500 0 17 0           
7 Unknown 11 ACIS 5.0 NT 24 Fri Mar 26 19:18:43 1999 
-1 9.9999999999999995e-007 1e-010 
body $-1 $17 $-1 $18 #
body $-1 $19 $-1 $20 #
body $-1 $21 $-1 $22 #
body $-1 $23 $-1 $24 #
body $-1 $25 $-1 $26 #
body $-1 $27 $-1 $28 #
body $-1 $29 $-1 $30 #
body $-1 $31 $-1 $32 #
body $-1 $33 $-1 $34 #
body $-1 $35 $-1 $36 #
body $-1 $37 $-1 $38 #
body $-1 $39 $-1 $40 #
body $-1 $41 $-1 $42 #
body $-1 $43 $-1 $44 #
body $-1 $45 $-1 $46 #
body $-1 $47 $-1 $48 #
body $-1 $49 $-1 $50 #
lump $-1 $-1 $51 $0 #
transform $-1 1 0 0 0 1 0 0 0 1 46.308786278878138 28.746157530167824 9.2427752700838077 1 rotate no_reflect no_shear #
lump $-1 $-1 $52 $1 #
transform $-1 1 0 0 0 1 0 0 0 1 46.308786278878138 28.746157530167824 9.2427752700838077 1 rotate no_reflect no_shear #
lump $-1 $-1 $53 $2 #
transform $-1 1 0 0 0 1 0 0 0 1 46.308786278878138 28.746157530167824 9.2427752700838077 1 rotate no_reflect no_shear #
lump $-1 $-1 $54 $3 #
transform $-1 1 0 0 0 1 0 0 0 1 46.308786278878138 28.746157530167824 9.2427752700838077 1 rotate no_reflect no_shear #
lump $-1 $-1 $55 $4 #
transform $-1 1 0 0 0 1 0 0 0 1 46.308786278878138 28.746157530167824 9.2427752700838077 1 rotate no_reflect no_shear #
lump $-1 $-1 $56 $5 #
transform $-1 1 0 0 0 1 0 0 0 1 46.308786278878138 28.746157530167824 9.2427752700838077 1 rotate no_reflect no_shear #
lump $-1 $-1 $57 $6 #
transform $-1 1 0 0 0 1 0 0 0 1 46.308786278878138 28.746157530167824 9.2427752700838077 1 rotate no_reflect no_shear #
lump $-1 $-1 $58 $7 #
transform $-1 1 0 0 0 1 0 0 0 1 46.308786278878138 28.746157530167824 9.2427752700838077 1 rotate no_reflect no_shear #
lump $-1 $-1 $59 $8 #
transform $-1 1 0 0 0 1 0 0 0 1 46.308786278878138 28.746157530167824 9.2427752700838077 1 rotate no_reflect no_shear #
lump $-1 $-1 $60 $9 #
transform $-1 1 0 0 0 1 0 0 0 1 46.308786278878138 28.746157530167824 9.2427752700838077 1 rotate no_reflect no_shear #
lump $-1 $-1 $61 $10 #
transform $-1 1 0 0 0 1 0 0 0 1 46.308786278878138 28.746157530167824 9.2427752700838077 1 rotate no_reflect no_shear #
lump $-1 $-1 $62 $11 #
transform $-1 1 0 0 0 1 0 0 0 1 46.308786278878138 28.746157530167824 9.2427752700838077 1 rotate no_reflect no_shear #
lump $-1 $-1 $63 $12 #
transform $-1 1 0 0 0 1 0 0 0 1 46.308786278878138 28.746157530167824 9.2427752700838077 1 rotate no_reflect no_shear #
lump $-1 $-1 $64 $13 #
transform $-1 1 0 0 0 1 0 0 0 1 46.308786278878138 28.746157530167824 9.2427752700838077 1 rotate no_reflect no_shear #
lump $-1 $-1 $65 $14 #
transform $-1 1 0 0 0 1 0 0 0 1 46.308786278878138 28.746157530167824 9.2427752700838077 1 rotate no_reflect no_shear #
lump $-1 $-1 $66 $15 #
transform $-1 1 0 0 0 1 0 0 0 1 46.308786278878138 28.746157530167824 9.2427752700838077 1 rotate no_reflect no_shear #
lump $-1 $-1 $67 $16 #
transform $-1 1 0 0 0 1 0 0 0 1 46.308786278878138 28.746157530167824 9.2427752700838077 1 rotate no_reflect no_shear #
shell $-1 $-1 $-1 $68 $-1 $17 #
shell $-1 $-1 $-1 $69 $-1 $19 #
shell $-1 $-1 $-1 $70 $-1 $21 #
shell $-1 $-1 $-1 $71 $-1 $23 #
shell $-1 $-1 $-1 $72 $-1 $25 #
shell $-1 $-1 $-1 $73 $-1 $27 #
shell $-1 $-1 $-1 $74 $-1 $29 #
shell $-1 $-1 $-1 $75 $-1 $31 #
shell $-1 $-1 $-1 $76 $-1 $33 #
shell $-1 $-1 $-1 $77 $-1 $35 #
shell $-1 $-1 $-1 $78 $-1 $37 #
shell $-1 $-1 $-1 $79 $-1 $39 #
shell $-1 $-1 $-1 $80 $-1 $41 #
shell $-1 $-1 $-1 $81 $-1 $43 #
shell $-1 $-1 $-1 $82 $-1 $45 #
shell $-1 $-1 $-1 $83 $-1 $47 #
shell $-1 $-1 $-1 $84 $-1 $49 #
face $-1 $85 $86 $51 $-1 $87 forward single #
face $-1 $88 $89 $52 $-1 $90 reversed single #
face $-1 $91 $92 $53 $-1 $93 reversed single #
face $-1 $94 $95 $54 $-1 $96 forward single #
face $-1 $97 $98 $55 $-1 $99 forward single #
face $-1 $100 $101 $56 $-1 $102 reversed single #
face $-1 $103 $104 $57 $-1 $105 forward single #
face $-1 $106 $107 $58 $-1 $108 forward single #
face $-1 $109 $110 $59 $-1 $111 reversed single #
face $-1 $112 $113 $60 $-1 $114 forward single #
face $-1 $115 $116 $61 $-1 $117 forward single #
face $-1 $118 $119 $62 $-1 $120 reversed single #
face $-1 $121 $122 $63 $-1 $123 forward single #
face $-1 $124 $125 $64 $-1 $126 forward single #
face $-1 $127 $128 $65 $-1 $129 reversed single #
face $-1 $130 $131 $66 $-1 $132 forward single #
face $-1 $133 $134 $67 $-1 $135 forward single #
face $-1 $136 $137 $51 $-1 $138 reversed single #
loop $-1 $-1 $139 $68 #
plane-surface $-1 0 0 9.2427752700838077 0 0 1 1 0 0 forward_v I I I I #
face $-1 $140 $141 $52 $-1 $142 reversed single #
loop $-1 $-1 $143 $69 #
plane-surface $-1 -30.823235738710522 -22.727375217409406 0 1 0 0 0 0 -1 forward_v I I I I #
face $-1 $144 $145 $53 $-1 $146 reversed single #
loop $-1 $-1 $147 $70 #
plane-surface $-1 -125.69754167143967 -14.285657540868591 51.584948225198772 0 1 0 -0.85716730853699208 0 0.51503806187062418 forward_v I I I I #
face $-1 $148 $149 $54 $-1 $150 forward single #
loop $-1 $151 $152 $71 #
cone-surface $-1 -44.171572366197708 -12.438076236563479 6.2463683246512041 0.85716730853699208 0 -0.51503806187062418 0.25751903093531209 0 0.42858365426849604 1 I I 0 1 0.5 forward I I I I #
face $-1 $153 $154 $55 $-1 $155 forward single #
loop $-1 $156 $157 $72 #
cone-surface $-1 -44.171572366197708 -9.6667042801058081 6.2463683246512041 0.85716730853699208 0 -0.51503806187062418 0.25751903093531209 0 0.42858365426849604 1 I I 0 1 0.5 forward I I I I #
face $-1 $158 $159 $56 $-1 $160 reversed single #
loop $-1 $-1 $161 $73 #
plane-surface $-1 -125.69754167143967 -2.9219699321638899 51.584948225198772 0 1 0 -0.85716730853699208 0 0.51503806187062418 forward_v I I I I #
face $-1 $162 $163 $57 $-1 $164 forward single #
loop $-1 $165 $166 $74 #
cone-surface $-1 -44.171572366197708 -1.0743886278587773 6.2463683246512041 0.85716730853699208 0 -0.51503806187062418 0.25751903093531209 0 0.42858365426849604 1 I I 0 1 0.5 forward I I I I #
face $-1 $167 $168 $58 $-1 $169 forward single #
loop $-1 $170 $171 $75 #
cone-surface $-1 -44.171572366197708 1.6969833285988933 6.2463683246512041 0.85716730853699208 0 -0.51503806187062418 0.25751903093531209 0 0.42858365426849604 1 I I 0 1 0.5 forward I I I I #
face $-1 $172 $173 $59 $-1 $174 reversed single #
loop $-1 $-1 $175 $76 #
plane-surface $-1 -125.69754167143967 8.4417176765408115 51.584948225198772 0 1 0 -0.85716730853699208 0 0.51503806187062418 forward_v I I I I #
face $-1 $176 $177 $60 $-1 $178 forward single #
loop $-1 $179 $180 $77 #
cone-surface $-1 -44.171572366197708 10.289298980845924 6.2463683246512041 0.85716730853699208 0 -0.51503806187062418 0.25751903093531209 0 0.42858365426849604 1 I I 0 1 0.5 forward I I I I #
face $-1 $181 $182 $61 $-1 $183 forward single #
loop $-1 $184 $185 $78 #
cone-surface $-1 -44.171572366197708 13.060670937303595 6.2463683246512041 0.85716730853699208 0 -0.51503806187062418 0.25751903093531209 0 0.42858365426849604 1 I I 0 1 0.5 forward I I I I #
face $-1 $186 $187 $62 $-1 $188 reversed single #
loop $-1 $-1 $189 $79 #
plane-surface $-1 -125.69754167143967 19.805405285245513 51.584948225198772 0 1 0 -0.85716730853699208 0 0.51503806187062418 forward_v I I I I #
face $-1 $190 $191 $63 $-1 $192 forward single #
loop $-1 $193 $194 $80 #
cone-surface $-1 -44.171572366197708 21.652986589550625 6.2463683246512041 0.85716730853699208 0 -0.51503806187062418 0.25751903093531209 0 0.42858365426849604 1 I I 0 1 0.5 forward I I I I #
face $-1 $195 $196 $64 $-1 $197 forward single #
loop $-1 $198 $199 $81 #
cone-surface $-1 -44.171572366197708 24.424358546008296 6.2463683246512041 0.85716730853699208 0 -0.51503806187062418 0.25751903093531209 0 0.42858365426849604 1 I I 0 1 0.5 forward I I I I #
face $-1 $200 $201 $65 $-1 $202 reversed single #
loop $-1 $-1 $203 $82 #
plane-surface $-1 62.271359808375784 19.085138749865369 132.04518559812945 0 1 0 0.78801076186113728 0 0.61566146476048833 forward_v I I I I #
face $-1 $204 $205 $66 $-1 $206 forward single #
loop $-1 $207 $208 $83 #
cone-surface $-1 42.760683997345609 21.845429829951787 5.0677111352155428 -0.78801076186113728 0 -0.61566146476048833 0.61566146476048833 0 -0.78801076186113728 1 I I 0 1 1 forward I I I I #
face $-1 $209 $210 $67 $-1 $211 forward single #
loop $-1 $212 $213 $84 #
cone-surface $-1 42.760683997345609 25.985866450081414 5.0677111352155428 -0.78801076186113728 0 -0.61566146476048833 0.61566146476048833 0 -0.78801076186113728 1 I I 0 1 1 forward I I I I #
face $-1 $214 $215 $51 $-1 $216 reversed single #
loop $-1 $-1 $217 $85 #
plane-surface $-1 0 0 -9.2427752700838077 0 0 1 1 0 0 forward_v I I I I #
coedge $-1 $218 $219 $220 $221 forward $86 $-1 #
face $-1 $222 $223 $52 $-1 $224 reversed single #
loop $-1 $-1 $225 $88 #
plane-surface $-1 -29.323235738710522 -16.708592904650988 0 0 -1 0 0 0 -1 forward_v I I I I #
coedge $-1 $226 $227 $228 $229 forward $89 $-1 #
face $-1 $230 $231 $53 $-1 $232 reversed single #
loop $-1 $-1 $233 $91 #
plane-surface $-1 -46.308786278878145 -11.052390258334643 3.8833731598900698 -0.85716730853699208 0 0.51503806187062418 0.51503806187062418 0 0.85716730853699208 forward_v I I I I #
coedge $-1 $234 $235 $236 $237 reversed $92 $-1 #
face $-1 $-1 $238 $54 $-1 $239 forward single #
loop $-1 $240 $241 $94 #
cone-surface $-1 -43.430193405675851 -12.438076236563479 5.8009029188478074 0.85716730853699208 0 -0.51503806187062418 0.12875951546765604 0 0.21429182713424802 1 I I -0.70710678118654746 0.70710678118654746 0.25 forward I I I I #
loop $-1 $-1 $242 $71 #
coedge $-1 $152 $152 $243 $244 reversed $95 $-1 #
face $-1 $-1 $245 $55 $-1 $246 forward single #
loop $-1 $247 $248 $97 #
cone-surface $-1 -43.430193405675851 -9.6667042801058081 5.8009029188478074 0.85716730853699208 0 -0.51503806187062418 0.12875951546765604 0 0.21429182713424802 1 I I -0.70710678118654746 0.70710678118654746 0.25 forward I I I I #
loop $-1 $-1 $249 $72 #
coedge $-1 $157 $157 $250 $251 reversed $98 $-1 #
face $-1 $252 $253 $56 $-1 $254 reversed single #
loop $-1 $-1 $255 $100 #
plane-surface $-1 -46.308786278878145 0.31129735037005801 3.8833731598900698 -0.85716730853699208 0 0.51503806187062418 0.51503806187062418 0 0.85716730853699208 forward_v I I I I #
coedge $-1 $256 $257 $258 $259 reversed $101 $-1 #
face $-1 $-1 $260 $57 $-1 $261 forward single #
loop $-1 $262 $263 $103 #
cone-surface $-1 -43.430193405675851 -1.0743886278587773 5.8009029188478074 0.85716730853699208 0 -0.51503806187062418 0.12875951546765604 0 0.21429182713424802 1 I I -0.70710678118654746 0.70710678118654746 0.25 forward I I I I #
loop $-1 $-1 $264 $74 #
coedge $-1 $166 $166 $265 $266 reversed $104 $-1 #
face $-1 $-1 $267 $58 $-1 $268 forward single #
loop $-1 $269 $270 $106 #
cone-surface $-1 -43.430193405675851 1.6969833285988933 5.8009029188478074 0.85716730853699208 0 -0.51503806187062418 0.12875951546765604 0 0.21429182713424802 1 I I -0.70710678118654746 0.70710678118654746 0.25 forward I I I I #
loop $-1 $-1 $271 $75 #
coedge $-1 $171 $171 $272 $273 reversed $107 $-1 #
face $-1 $274 $275 $59 $-1 $276 reversed single #
loop $-1 $-1 $277 $109 #
plane-surface $-1 -46.308786278878145 11.674984959074759 3.8833731598900698 -0.85716730853699208 0 0.51503806187062418 0.51503806187062418 0 0.85716730853699208 forward_v I I I I #
coedge $-1 $278 $279 $280 $281 reversed $110 $-1 #
face $-1 $-1 $282 $60 $-1 $283 forward single #
loop $-1 $284 $285 $112 #
cone-surface $-1 -43.430193405675851 10.289298980845924 5.8009029188478074 0.85716730853699208 0 -0.51503806187062418 0.12875951546765604 0 0.21429182713424802 1 I I -0.70710678118654746 0.70710678118654746 0.25 forward I I I I #
loop $-1 $-1 $286 $77 #
coedge $-1 $180 $180 $287 $288 reversed $113 $-1 #
face $-1 $-1 $289 $61 $-1 $290 forward single #
loop $-1 $291 $292 $115 #
cone-surface $-1 -43.430193405675851 13.060670937303595 5.8009029188478074 0.85716730853699208 0 -0.51503806187062418 0.12875951546765604 0 0.21429182713424802 1 I I -0.70710678118654746 0.70710678118654746 0.25 forward I I I I #
loop $-1 $-1 $293 $78 #
coedge $-1 $185 $185 $294 $295 reversed $116 $-1 #
face $-1 $296 $297 $62 $-1 $298 reversed single #
loop $-1 $-1 $299 $118 #
plane-surface $-1 -46.308786278878145 23.038672567779461 3.8833731598900698 -0.85716730853699208 0 0.51503806187062418 0.51503806187062418 0 0.85716730853699208 forward_v I I I I #
coedge $-1 $300 $301 $302 $303 reversed $119 $-1 #
face $-1 $-1 $304 $63 $-1 $305 forward single #
loop $-1 $306 $307 $121 #
cone-surface $-1 -43.430193405675851 21.652986589550625 5.8009029188478074 0.85716730853699208 0 -0.51503806187062418 0.12875951546765604 0 0.21429182713424802 1 I I -0.70710678118654746 0.70710678118654746 0.25 forward I I I I #
loop $-1 $-1 $308 $80 #
coedge $-1 $194 $194 $309 $310 reversed $122 $-1 #
face $-1 $-1 $311 $64 $-1 $312 forward single #
loop $-1 $313 $314 $124 #
cone-surface $-1 -43.430193405675851 24.424358546008296 5.8009029188478074 0.85716730853699208 0 -0.51503806187062418 0.12875951546765604 0 0.21429182713424802 1 I I -0.70710678118654746 0.70710678118654746 0.25 forward I I I I #
loop $-1 $-1 $315 $81 #
coedge $-1 $199 $199 $316 $317 reversed $125 $-1 #
face $-1 $318 $319 $65 $-1 $320 forward single #
loop $-1 $-1 $321 $127 #
plane-surface $-1 -10.7122841045909 23.915648140016597 75.024115214660412 0.78801076186113728 0 0.61566146476048833 0.61566146476048833 0 -0.78801076186113728 forward_v I I I I #
coedge $-1 $322 $323 $324 $325 reversed $128 $-1 #
face $-1 $-1 $326 $66 $-1 $327 forward single #
loop $-1 $328 $329 $130 #
cone-surface $-1 41.63210454124647 21.845429829951787 4.1859682521620876 -0.78801076186113728 0 -0.61566146476048833 0.30783073238024417 0 -0.39400538093056864 1 I I -0.70710678118654746 0.70710678118654746 0.5 forward I I I I #
loop $-1 $-1 $330 $83 #
coedge $-1 $208 $208 $331 $332 reversed $131 $-1 #
face $-1 $-1 $333 $67 $-1 $334 forward single #
loop $-1 $335 $336 $133 #
cone-surface $-1 41.63210454124647 25.985866450081414 4.1859682521620876 -0.78801076186113728 0 -0.61566146476048833 0.30783073238024417 0 -0.39400538093056864 1 I I -0.70710678118654746 0.70710678118654746 0.5 forward I I I I #
loop $-1 $-1 $337 $84 #
coedge $-1 $213 $213 $338 $339 reversed $134 $-1 #
face $-1 $340 $341 $51 $-1 $342 reversed single #
loop $-1 $-1 $343 $136 #
plane-surface $-1 0 -28.746157530167824 0 0 1 0 0 0 1 forward_v I I I I #
coedge $-1 $344 $345 $346 $347 forward $137 $-1 #
coedge $-1 $348 $139 $349 $350 forward $86 $-1 #
coedge $-1 $139 $348 $351 $352 forward $86 $-1 #
coedge $-1 $353 $354 $139 $221 reversed $355 $-1 #
edge $-1 $356 -28.746157530167824 $357 28.746157530167824 $220 $358 forward 7 unknown #
face $-1 $359 $360 $52 $-1 $361 forward single #
loop $-1 $-1 $362 $140 #
plane-surface $-1 -27.823235738710522 -22.727375217409406 0 -1 0 0 0 0 1 forward_v I I I I #
coedge $-1 $363 $364 $365 $366 forward $141 $-1 #
coedge $-1 $367 $143 $368 $369 reversed $89 $-1 #
coedge $-1 $143 $367 $370 $371 reversed $89 $-1 #
coedge $-1 $364 $363 $143 $229 reversed $141 $-1 #
edge $-1 $372 -9.2427752700838077 $373 9.2427752700838077 $228 $374 forward 7 unknown #
face $-1 $375 $376 $53 $-1 $377 reversed single #
loop $-1 $-1 $378 $144 #
plane-surface $-1 -125.69754167143967 -7.8191229758006955 51.584948225198772 0 -1 0 0.85716730853699208 0 -0.51503806187062418 forward_v I I I I #
coedge $-1 $379 $380 $381 $382 reversed $145 $-1 #
coedge $-1 $235 $147 $383 $384 reversed $92 $-1 #
coedge $-1 $147 $234 $379 $385 reversed $92 $-1 #
coedge $-1 $381 $386 $147 $237 forward $387 $-1 #
edge $-1 $388 16.539984556841695 $389 19.76023811542732 $236 $390 forward 7 unknown #
loop $-1 $-1 $243 $148 #
plane-surface $-1 -46.308786278878145 -11.052390258334643 3.8833731598900698 -0.85716730853699208 0 0.51503806187062418 0.51503806187062418 0 0.85716730853699208 forward_v I I I I #
loop $-1 $-1 $391 $94 #
coedge $-1 $241 $241 $242 $392 reversed $149 $-1 #
coedge $-1 $242 $242 $241 $392 forward $151 $-1 #
coedge $-1 $243 $243 $152 $244 forward $238 $-1 #
edge $-1 $393 0 $393 6.2831853071796004 $243 $394 forward 7 unknown #
loop $-1 $-1 $250 $153 #
plane-surface $-1 -46.308786278878145 -11.052390258334643 3.8833731598900698 -0.85716730853699208 0 0.51503806187062418 0.51503806187062418 0 0.85716730853699208 forward_v I I I I #
loop $-1 $-1 $395 $97 #
coedge $-1 $248 $248 $249 $396 reversed $154 $-1 #
coedge $-1 $249 $249 $248 $396 forward $156 $-1 #
coedge $-1 $250 $250 $157 $251 forward $245 $-1 #
edge $-1 $397 0 $397 6.2831853071796004 $250 $398 forward 7 unknown #
face $-1 $399 $400 $56 $-1 $401 forward single #
loop $-1 $-1 $402 $158 #
plane-surface $-1 -125.69754167143967 3.5445646329040059 51.584948225198772 0 -1 0 0.85716730853699208 0 -0.51503806187062418 forward_v I I I I #
coedge $-1 $403 $404 $405 $406 reversed $159 $-1 #
coedge $-1 $257 $161 $407 $408 reversed $101 $-1 #
coedge $-1 $161 $256 $403 $409 reversed $101 $-1 #
coedge $-1 $405 $410 $161 $259 forward $400 $-1 #
edge $-1 $411 16.539984556841695 $412 19.76023811542732 $258 $413 forward 7 unknown #
loop $-1 $-1 $265 $162 #
plane-surface $-1 -46.308786278878145 0.31129735037005801 3.8833731598900698 -0.85716730853699208 0 0.51503806187062418 0.51503806187062418 0 0.85716730853699208 forward_v I I I I #
loop $-1 $-1 $414 $103 #
coedge $-1 $263 $263 $264 $415 reversed $163 $-1 #
coedge $-1 $264 $264 $263 $415 forward $165 $-1 #
coedge $-1 $265 $265 $166 $266 forward $260 $-1 #
edge $-1 $416 0 $416 6.2831853071796004 $265 $417 forward 7 unknown #
loop $-1 $-1 $272 $167 #
plane-surface $-1 -46.308786278878145 0.31129735037005801 3.8833731598900698 -0.85716730853699208 0 0.51503806187062418 0.51503806187062418 0 0.85716730853699208 forward_v I I I I #
loop $-1 $-1 $418 $106 #
coedge $-1 $270 $270 $271 $419 reversed $168 $-1 #
coedge $-1 $271 $271 $270 $419 forward $170 $-1 #
coedge $-1 $272 $272 $171 $273 forward $267 $-1 #
edge $-1 $420 0 $420 6.2831853071796004 $272 $421 forward 7 unknown #
face $-1 $422 $423 $59 $-1 $424 forward single #
loop $-1 $-1 $425 $172 #
plane-surface $-1 -125.69754167143967 14.908252241608707 51.584948225198772 0 -1 0 0.85716730853699208 0 -0.51503806187062418 forward_v I I I I #
coedge $-1 $426 $427 $428 $429 reversed $173 $-1 #
coedge $-1 $279 $175 $430 $431 reversed $110 $-1 #
coedge $-1 $175 $278 $426 $432 reversed $110 $-1 #
coedge $-1 $428 $433 $175 $281 forward $423 $-1 #
edge $-1 $434 16.539984556841695 $435 19.76023811542732 $280 $436 forward 7 unknown #
loop $-1 $-1 $287 $176 #
plane-surface $-1 -46.308786278878145 11.674984959074759 3.8833731598900698 -0.85716730853699208 0 0.51503806187062418 0.51503806187062418 0 0.85716730853699208 forward_v I I I I #
loop $-1 $-1 $437 $112 #
coedge $-1 $285 $285 $286 $438 reversed $177 $-1 #
coedge $-1 $286 $286 $285 $438 forward $179 $-1 #
coedge $-1 $287 $287 $180 $288 forward $282 $-1 #
edge $-1 $439 0 $439 6.2831853071796004 $287 $440 forward 7 unknown #
loop $-1 $-1 $294 $181 #
plane-surface $-1 -46.308786278878145 11.674984959074759 3.8833731598900698 -0.85716730853699208 0 0.51503806187062418 0.51503806187062418 0 0.85716730853699208 forward_v I I I I #
loop $-1 $-1 $441 $115 #
coedge $-1 $292 $292 $293 $442 reversed $182 $-1 #
coedge $-1 $293 $293 $292 $442 forward $184 $-1 #
coedge $-1 $294 $294 $185 $295 forward $289 $-1 #
edge $-1 $443 0 $443 6.2831853071796004 $294 $444 forward 7 unknown #
face $-1 $445 $446 $62 $-1 $447 forward single #
loop $-1 $-1 $448 $186 #
plane-surface $-1 -125.69754167143967 26.271939850313409 51.584948225198772 0 -1 0 0.85716730853699208 0 -0.51503806187062418 forward_v I I I I #
coedge $-1 $449 $450 $451 $452 reversed $187 $-1 #
coedge $-1 $301 $189 $453 $454 reversed $119 $-1 #
coedge $-1 $189 $300 $449 $455 reversed $119 $-1 #
coedge $-1 $451 $456 $189 $303 forward $446 $-1 #
edge $-1 $457 16.539984556841695 $458 19.76023811542732 $302 $459 forward 7 unknown #
loop $-1 $-1 $309 $190 #
plane-surface $-1 -46.308786278878145 23.038672567779461 3.8833731598900698 -0.85716730853699208 0 0.51503806187062418 0.51503806187062418 0 0.85716730853699208 forward_v I I I I #
loop $-1 $-1 $460 $121 #
coedge $-1 $307 $307 $308 $461 reversed $191 $-1 #
coedge $-1 $308 $308 $307 $461 forward $193 $-1 #
coedge $-1 $309 $309 $194 $310 forward $304 $-1 #
edge $-1 $462 0 $462 6.2831853071796004 $309 $463 forward 7 unknown #
loop $-1 $-1 $316 $195 #
plane-surface $-1 -46.308786278878145 23.038672567779461 3.8833731598900698 -0.85716730853699208 0 0.51503806187062418 0.51503806187062418 0 0.85716730853699208 forward_v I I I I #
loop $-1 $-1 $464 $124 #
coedge $-1 $314 $314 $315 $465 reversed $196 $-1 #
coedge $-1 $315 $315 $314 $465 forward $198 $-1 #
coedge $-1 $316 $316 $199 $317 forward $311 $-1 #
edge $-1 $466 0 $466 6.2831853071796004 $316 $467 forward 7 unknown #
face $-1 $468 $469 $65 $-1 $470 reversed single #
loop $-1 $-1 $471 $200 #
plane-surface $-1 0 0 9.2427752700838077 0 0 1 1 0 0 forward_v I I I I #
coedge $-1 $472 $473 $474 $475 reversed $201 $-1 #
coedge $-1 $323 $203 $476 $477 reversed $128 $-1 #
coedge $-1 $203 $322 $472 $478 reversed $128 $-1 #
coedge $-1 $474 $479 $203 $325 forward $480 $-1 #
edge $-1 $481 56.779817528980914 $482 63.982121497370997 $324 $483 forward 7 unknown #
loop $-1 $-1 $331 $204 #
plane-surface $-1 -10.7122841045909 23.915648140016597 75.024115214660412 0.78801076186113728 0 0.61566146476048833 0.61566146476048833 0 -0.78801076186113728 forward_v I I I I #
loop $-1 $-1 $484 $130 #
coedge $-1 $329 $329 $330 $485 reversed $205 $-1 #
coedge $-1 $330 $330 $329 $485 forward $207 $-1 #
coedge $-1 $331 $331 $208 $332 forward $326 $-1 #
edge $-1 $486 0 $486 6.2831853071796004 $331 $487 forward 7 unknown #
loop $-1 $-1 $338 $209 #
plane-surface $-1 -10.7122841045909 23.915648140016597 75.024115214660412 0.78801076186113728 0 0.61566146476048833 0.61566146476048833 0 -0.78801076186113728 forward_v I I I I #
loop $-1 $-1 $488 $133 #
coedge $-1 $336 $336 $337 $489 reversed $210 $-1 #
coedge $-1 $337 $337 $336 $489 forward $212 $-1 #
coedge $-1 $338 $338 $213 $339 forward $333 $-1 #
edge $-1 $490 0 $490 6.2831853071796004 $338 $491 forward 7 unknown #
face $-1 $492 $493 $51 $-1 $494 reversed single #
loop $-1 $-1 $495 $214 #
plane-surface $-1 -46.308786278878138 0 0 1 0 0 0 0 -1 forward_v I I I I #
coedge $-1 $496 $351 $497 $498 forward $215 $-1 #
coedge $-1 $499 $217 $496 $500 forward $137 $-1 #
coedge $-1 $217 $499 $501 $502 forward $137 $-1 #
coedge $-1 $354 $353 $217 $347 reversed $355 $-1 #
edge $-1 $503 -28.746157530167824 $504 28.746157530167824 $346 $505 forward 7 unknown #
coedge $-1 $219 $218 $506 $507 forward $86 $-1 #
coedge $-1 $508 $509 $218 $350 reversed $493 $-1 #
edge $-1 $357 -46.308786278878138 $510 46.308786278878138 $349 $511 forward 7 unknown #
coedge $-1 $343 $512 $219 $352 reversed $215 $-1 #
edge $-1 $513 -46.308786278878138 $356 46.308786278878138 $351 $514 forward 7 unknown #
coedge $-1 $346 $220 $512 $515 forward $355 $-1 #
coedge $-1 $220 $346 $508 $516 reversed $355 $-1 #
loop $-1 $-1 $353 $492 #
vertex $-1 $221 $517 #
vertex $-1 $221 $518 #
straight-curve $-1 46.308786278878138 0 9.2427752700838077 0 1 0 I I #
face $-1 $519 $520 $52 $-1 $521 reversed single #
loop $-1 $-1 $522 $222 #
plane-surface $-1 0 0 9.2427752700838077 0 0 1 1 0 0 forward_v I I I I #
coedge $-1 $523 $524 $525 $526 reversed $223 $-1 #
coedge $-1 $228 $225 $527 $528 reversed $141 $-1 #
coedge $-1 $225 $228 $529 $530 reversed $141 $-1 #
coedge $-1 $524 $523 $225 $366 reversed $223 $-1 #
edge $-1 $531 -9.2427752700838077 $532 9.2427752700838077 $365 $533 forward 7 unknown #
coedge $-1 $227 $226 $534 $535 reversed $89 $-1 #
coedge $-1 $527 $536 $226 $369 forward $520 $-1 #
edge $-1 $537 -17.38246992146312 $373 -5.3449052959462851 $368 $538 forward 7 unknown #
coedge $-1 $539 $529 $227 $371 forward $360 $-1 #
edge $-1 $372 5.3449052959462851 $540 17.38246992146312 $370 $541 forward 7 unknown #
vertex $-1 $371 $542 #
vertex $-1 $369 $543 #
straight-curve $-1 -30.823235738710522 -16.708592904650988 0 0 0 -1 I I #
face $-1 $-1 $387 $53 $-1 $544 forward single #
loop $-1 $-1 $545 $230 #
plane-surface $-1 -46.308786278878138 0 0 1 0 0 0 0 -1 forward_v I I I I #
coedge $-1 $546 $547 $548 $549 reversed $231 $-1 #
coedge $-1 $550 $233 $235 $385 forward $145 $-1 #
coedge $-1 $233 $550 $546 $551 forward $145 $-1 #
coedge $-1 $548 $236 $233 $382 forward $387 $-1 #
edge $-1 $389 -8.7594624117012696 $552 -2.2929278466333738 $381 $553 forward 7 unknown #
coedge $-1 $554 $555 $234 $384 forward $376 $-1 #
edge $-1 $556 -21.909100952709306 $388 -16.549698842515578 $383 $557 forward 7 unknown #
edge $-1 $389 -6.2524574337081686 $556 -1.393735185947377e-014 $235 $558 forward 7 unknown #
coedge $-1 $236 $548 $554 $559 forward $387 $-1 #
loop $-1 $-1 $548 $375 #
vertex $-1 $384 $560 #
vertex $-1 $237 $561 #
straight-curve $-1 -62.848770835719833 -14.285657540868591 9.2427752700838077 1 0 0 I I #
coedge $-1 $391 $391 $-1 $562 reversed $240 $-1 #
edge $-1 $563 0 $563 6.2831853071796004 $241 $564 forward 7 unknown #
vertex $-1 $244 $565 #
ellipse-curve $-1 -44.698659499585325 -12.438076236563479 6.5630742149869477 -0.85716730853699208 0 0.51503806187062418 0.25751903093531209 0 0.42858365426849604 1 I I #
coedge $-1 $395 $395 $-1 $566 reversed $247 $-1 #
edge $-1 $567 0 $567 6.2831853071796004 $248 $568 forward 7 unknown #
vertex $-1 $251 $569 #
ellipse-curve $-1 -44.698659499585325 -9.6667042801058081 6.5630742149869477 -0.85716730853699208 0 0.51503806187062418 0.25751903093531209 0 0.42858365426849604 1 I I #
face $-1 $-1 $570 $56 $-1 $571 reversed single #
loop $-1 $-1 $258 $252 #
plane-surface $-1 0 0 9.2427752700838077 0 0 1 1 0 0 forward_v I I I I #
coedge $-1 $572 $573 $574 $575 reversed $253 $-1 #
coedge $-1 $576 $255 $257 $409 forward $159 $-1 #
coedge $-1 $255 $576 $572 $577 forward $159 $-1 #
coedge $-1 $574 $258 $255 $406 forward $400 $-1 #
edge $-1 $412 -3.0776186073489189 $578 3.3889159577189769 $405 $579 forward 7 unknown #
coedge $-1 $580 $581 $256 $408 forward $570 $-1 #
edge $-1 $582 -21.909100952709306 $411 -16.549698842515578 $407 $583 forward 7 unknown #
edge $-1 $412 -6.2524574337081686 $582 -1.393735185947377e-014 $257 $584 forward 7 unknown #
coedge $-1 $258 $574 $580 $585 forward $400 $-1 #
vertex $-1 $408 $586 #
vertex $-1 $259 $587 #
straight-curve $-1 -62.848770835719833 -2.9219699321638899 9.2427752700838077 1 0 0 I I #
coedge $-1 $414 $414 $-1 $588 reversed $262 $-1 #
edge $-1 $589 0 $589 6.2831853071796004 $263 $590 forward 7 unknown #
vertex $-1 $266 $591 #
ellipse-curve $-1 -44.698659499585325 -1.0743886278587773 6.5630742149869477 -0.85716730853699208 0 0.51503806187062418 0.25751903093531209 0 0.42858365426849604 1 I I #
coedge $-1 $418 $418 $-1 $592 reversed $269 $-1 #
edge $-1 $593 0 $593 6.2831853071796004 $270 $594 forward 7 unknown #
vertex $-1 $273 $595 #
ellipse-curve $-1 -44.698659499585325 1.6969833285988933 6.5630742149869477 -0.85716730853699208 0 0.51503806187062418 0.25751903093531209 0 0.42858365426849604 1 I I #
face $-1 $-1 $596 $59 $-1 $597 reversed single #
loop $-1 $-1 $280 $274 #
plane-surface $-1 0 0 9.2427752700838077 0 0 1 1 0 0 forward_v I I I I #
coedge $-1 $598 $599 $600 $601 reversed $275 $-1 #
coedge $-1 $602 $277 $279 $432 forward $173 $-1 #
coedge $-1 $277 $602 $598 $603 forward $173 $-1 #
coedge $-1 $600 $280 $277 $429 forward $423 $-1 #
edge $-1 $435 2.6042251970034318 $604 9.0707597620713276 $428 $605 forward 7 unknown #
coedge $-1 $606 $607 $278 $431 forward $596 $-1 #
edge $-1 $608 -21.909100952709306 $434 -16.549698842515578 $430 $609 forward 7 unknown #
edge $-1 $435 -6.2524574337081686 $608 -1.393735185947377e-014 $279 $610 forward 7 unknown #
coedge $-1 $280 $600 $606 $611 forward $423 $-1 #
vertex $-1 $281 $612 #
vertex $-1 $281 $613 #
straight-curve $-1 -62.848770835719833 8.4417176765408115 9.2427752700838077 1 0 0 I I #
coedge $-1 $437 $437 $-1 $614 reversed $284 $-1 #
edge $-1 $615 0 $615 6.2831853071796004 $285 $616 forward 7 unknown #
vertex $-1 $288 $617 #
ellipse-curve $-1 -44.698659499585325 10.289298980845924 6.5630742149869477 -0.85716730853699208 0 0.51503806187062418 0.25751903093531209 0 0.42858365426849604 1 I I #
coedge $-1 $441 $441 $-1 $618 reversed $291 $-1 #
edge $-1 $619 0 $619 6.2831853071796004 $292 $620 forward 7 unknown #
vertex $-1 $295 $621 #
ellipse-curve $-1 -44.698659499585325 13.060670937303595 6.5630742149869477 -0.85716730853699208 0 0.51503806187062418 0.25751903093531209 0 0.42858365426849604 1 I I #
face $-1 $-1 $622 $62 $-1 $623 reversed single #
loop $-1 $-1 $302 $296 #
plane-surface $-1 0 0 9.2427752700838077 0 0 1 1 0 0 forward_v I I I I #
coedge $-1 $624 $625 $626 $627 reversed $297 $-1 #
coedge $-1 $628 $299 $301 $455 forward $187 $-1 #
coedge $-1 $299 $628 $624 $629 forward $187 $-1 #
coedge $-1 $626 $302 $299 $452 forward $446 $-1 #
edge $-1 $458 8.2860690013557825 $630 14.752603566423678 $451 $631 forward 7 unknown #
coedge $-1 $632 $633 $300 $454 forward $622 $-1 #
edge $-1 $634 -21.909100952709306 $457 -16.549698842515578 $453 $635 forward 7 unknown #
edge $-1 $458 -6.2524574337081686 $634 -1.393735185947377e-014 $301 $636 forward 7 unknown #
coedge $-1 $302 $626 $632 $637 forward $446 $-1 #
vertex $-1 $303 $638 #
vertex $-1 $303 $639 #
straight-curve $-1 -62.848770835719833 19.805405285245513 9.2427752700838077 1 0 0 I I #
coedge $-1 $460 $460 $-1 $640 reversed $306 $-1 #
edge $-1 $641 0 $641 6.2831853071796004 $307 $642 forward 7 unknown #
vertex $-1 $310 $643 #
ellipse-curve $-1 -44.698659499585325 21.652986589550625 6.5630742149869477 -0.85716730853699208 0 0.51503806187062418 0.25751903093531209 0 0.42858365426849604 1 I I #
coedge $-1 $464 $464 $-1 $644 reversed $313 $-1 #
edge $-1 $645 0 $645 6.2831853071796004 $314 $646 forward 7 unknown #
vertex $-1 $317 $647 #
ellipse-curve $-1 -44.698659499585325 24.424358546008296 6.5630742149869477 -0.85716730853699208 0 0.51503806187062418 0.25751903093531209 0 0.42858365426849604 1 I I #
face $-1 $-1 $480 $65 $-1 $648 reversed single #
loop $-1 $-1 $649 $318 #
plane-surface $-1 0 28.746157530167824 0 0 -1 0 0 0 -1 forward_v I I I I #
coedge $-1 $476 $650 $651 $652 forward $319 $-1 #
coedge $-1 $651 $321 $323 $478 forward $201 $-1 #
coedge $-1 $321 $651 $649 $653 reversed $201 $-1 #
coedge $-1 $654 $324 $321 $475 forward $480 $-1 #
edge $-1 $482 7.1273146798570703 $655 16.788333460159528 $474 $656 forward 7 unknown #
coedge $-1 $657 $471 $322 $477 forward $319 $-1 #
edge $-1 $658 9.5460499619623356 $481 15.173106374690246 $476 $659 forward 7 unknown #
edge $-1 $482 -92.61757255775629 $658 -83.477717727119753 $323 $660 forward 7 unknown #
coedge $-1 $324 $654 $657 $661 reversed $480 $-1 #
loop $-1 $-1 $474 $468 #
vertex $-1 $661 $662 #
vertex $-1 $325 $663 #
straight-curve $-1 46.308786278878138 19.085138749865369 66.022592799064725 0 0 -1 I I #
coedge $-1 $484 $484 $-1 $664 reversed $328 $-1 #
edge $-1 $665 0 $665 6.2831853071796004 $329 $666 forward 7 unknown #
vertex $-1 $332 $667 #
ellipse-curve $-1 43.495258072514183 21.845429829951787 5.6416232858887598 0.78801076186113728 0 0.61566146476048833 0.61566146476048833 0 -0.78801076186113728 1 I I #
coedge $-1 $488 $488 $-1 $668 reversed $335 $-1 #
edge $-1 $669 0 $669 6.2831853071796004 $336 $670 forward 7 unknown #
vertex $-1 $339 $671 #
ellipse-curve $-1 43.495258072514183 25.985866450081414 5.6416232858887598 0.78801076186113728 0 0.61566146476048833 0.61566146476048833 0 -0.78801076186113728 1 I I #
face $-1 $-1 $355 $51 $-1 $672 reversed single #
loop $-1 $-1 $508 $340 #
plane-surface $-1 0 28.746157530167824 0 0 -1 0 0 0 -1 forward_v I I I I #
coedge $-1 $673 $506 $509 $674 forward $341 $-1 #
coedge $-1 $512 $343 $344 $500 reversed $215 $-1 #
coedge $-1 $506 $673 $343 $498 reversed $341 $-1 #
edge $-1 $513 -9.2427752700838077 $675 9.2427752700838077 $497 $676 forward 7 unknown #
coedge $-1 $345 $344 $673 $677 forward $137 $-1 #
edge $-1 $504 -46.308786278878138 $675 46.308786278878138 $496 $678 forward 7 unknown #
coedge $-1 $509 $508 $345 $502 reversed $493 $-1 #
edge $-1 $679 -46.308786278878138 $503 46.308786278878138 $501 $680 forward 7 unknown #
vertex $-1 $347 $681 #
vertex $-1 $515 $682 #
straight-curve $-1 46.308786278878138 0 -9.2427752700838077 0 -1 0 I I #
coedge $-1 $495 $497 $348 $507 reversed $341 $-1 #
edge $-1 $510 -28.746157530167824 $513 28.746157530167824 $506 $683 forward 7 unknown #
coedge $-1 $501 $349 $354 $516 forward $493 $-1 #
coedge $-1 $349 $501 $495 $674 reversed $493 $-1 #
vertex $-1 $350 $684 #
straight-curve $-1 0 28.746157530167824 9.2427752700838077 -1 0 0 I I #
coedge $-1 $351 $496 $353 $515 reversed $215 $-1 #
vertex $-1 $507 $685 #
straight-curve $-1 0 -28.746157530167824 9.2427752700838077 1 0 0 I I #
edge $-1 $356 -9.2427752700838077 $504 9.2427752700838077 $353 $686 forward 7 unknown #
edge $-1 $357 -9.2427752700838077 $503 9.2427752700838077 $354 $687 forward 7 unknown #
point $-1 46.308786278878138 -28.746157530167824 9.2427752700838077 #
point $-1 46.308786278878138 28.746157530167824 9.2427752700838077 #
face $-1 $-1 $688 $52 $-1 $689 reversed single #
loop $-1 $-1 $690 $359 #
plane-surface $-1 0 0 -9.2427752700838077 0 0 1 1 0 0 forward_v I I I I #
coedge $-1 $529 $539 $524 $691 forward $360 $-1 #
coedge $-1 $365 $362 $690 $692 reversed $223 $-1 #
coedge $-1 $362 $365 $522 $691 reversed $223 $-1 #
coedge $-1 $693 $694 $362 $526 forward $688 $-1 #
edge $-1 $695 -9.2427752700838077 $696 9.2427752700838077 $525 $697 forward 7 unknown #
coedge $-1 $690 $368 $363 $528 forward $520 $-1 #
edge $-1 $373 -16.161617869355261 $532 -13.161617869355261 $527 $698 forward 7 unknown #
coedge $-1 $370 $522 $364 $530 forward $360 $-1 #
edge $-1 $531 13.161617869355261 $372 16.161617869355261 $529 $699 forward 7 unknown #
vertex $-1 $530 $700 #
vertex $-1 $528 $701 #
straight-curve $-1 -27.823235738710522 -16.708592904650988 0 0 0 -1 I I #
coedge $-1 $694 $693 $367 $535 forward $688 $-1 #
edge $-1 $540 -9.2427752700838077 $537 9.2427752700838077 $534 $702 forward 7 unknown #
coedge $-1 $368 $690 $694 $703 forward $520 $-1 #
vertex $-1 $369 $704 #
straight-curve $-1 -30.823235738710522 -11.363687608704703 -9.2427752700838077 0 1 0 I I #
coedge $-1 $522 $370 $693 $705 forward $360 $-1 #
vertex $-1 $705 $706 #
straight-curve $-1 -30.823235738710522 -11.363687608704703 9.2427752700838077 0 -1 0 I I #
point $-1 -30.823235738710522 -16.708592904650988 9.2427752700838077 #
point $-1 -30.823235738710522 -16.708592904650988 -9.2427752700838077 #
plane-surface $-1 0 0 9.2427752700838077 0 0 1 1 0 0 forward_v I I I I #
coedge $-1 $555 $554 $547 $707 forward $376 $-1 #
coedge $-1 $547 $378 $380 $551 reversed $231 $-1 #
coedge $-1 $378 $546 $545 $707 reversed $231 $-1 #
coedge $-1 $386 $381 $378 $549 forward $387 $-1 #
edge $-1 $552 -19.76023811542732 $708 -16.539984556841695 $548 $709 forward 7 unknown #
coedge $-1 $380 $379 $555 $710 reversed $145 $-1 #
edge $-1 $711 1.393735185947377e-014 $552 6.2524574337081686 $546 $712 forward 7 unknown #
vertex $-1 $382 $713 #
straight-curve $-1 -43.088532720292505 -5.5261951291673217 9.2427752700838077 0 1 0 I I #
coedge $-1 $545 $383 $386 $559 reversed $376 $-1 #
coedge $-1 $383 $545 $550 $710 forward $376 $-1 #
vertex $-1 $384 $714 #
straight-curve $-1 -46.308786278878138 -14.285657540868591 25.792474112599386 0 0 1 I I #
straight-curve $-1 -46.308786278878145 -14.285657540868591 3.8833731598900698 -0.51503806187062418 0 -0.85716730853699208 I I #
edge $-1 $708 7.8191229758006955 $388 14.285657540868591 $554 $715 forward 7 unknown #
point $-1 -46.308786278878138 -14.285657540868591 9.2427752700838077 #
point $-1 -43.088532720292513 -14.285657540868591 9.2427752700838077 #
edge $-1 $716 1 $716 0 $391 $-1 forward 7 unknown #
vertex $-1 $392 $717 #
ellipse-curve $-1 -43.644485232810098 -12.438076236563479 5.9296624343154631 -0.85716730853699208 0 0.51503806187062418 0.25751903093531209 0 0.42858365426849604 1 I I #
point $-1 -44.441140468650012 -12.438076236563479 6.991657869255441 #
edge $-1 $718 1 $718 0 $395 $-1 forward 7 unknown #
vertex $-1 $396 $719 #
ellipse-curve $-1 -43.644485232810098 -9.6667042801058081 5.9296624343154631 -0.85716730853699208 0 0.51503806187062418 0.25751903093531209 0 0.42858365426849604 1 I I #
point $-1 -44.441140468650012 -9.6667042801058081 6.991657869255441 #
loop $-1 $-1 $407 $399 #
plane-surface $-1 -46.308786278878138 0 0 1 0 0 0 0 -1 forward_v I I I I #
coedge $-1 $573 $402 $404 $577 reversed $253 $-1 #
coedge $-1 $402 $572 $720 $721 reversed $253 $-1 #
coedge $-1 $410 $405 $402 $575 forward $400 $-1 #
edge $-1 $578 -19.76023811542732 $722 -16.539984556841695 $574 $723 forward 7 unknown #
coedge $-1 $404 $403 $581 $724 reversed $159 $-1 #
edge $-1 $725 1.393735185947377e-014 $578 6.2524574337081686 $572 $726 forward 7 unknown #
vertex $-1 $406 $727 #
straight-curve $-1 -43.088532720292505 0.15564867518502901 9.2427752700838077 0 1 0 I I #
coedge $-1 $720 $407 $410 $585 reversed $570 $-1 #
coedge $-1 $407 $720 $576 $724 forward $570 $-1 #
vertex $-1 $408 $728 #
straight-curve $-1 -46.308786278878138 -2.9219699321638899 25.792474112599386 0 0 1 I I #
straight-curve $-1 -46.308786278878145 -2.9219699321638899 3.8833731598900698 -0.51503806187062418 0 -0.85716730853699208 I I #
edge $-1 $722 -3.5445646329040059 $411 2.9219699321638899 $580 $729 forward 7 unknown #
point $-1 -46.308786278878138 -2.9219699321638899 9.2427752700838077 #
point $-1 -43.088532720292513 -2.9219699321638899 9.2427752700838077 #
edge $-1 $730 1 $730 0 $414 $-1 forward 7 unknown #
vertex $-1 $415 $731 #
ellipse-curve $-1 -43.644485232810098 -1.0743886278587773 5.9296624343154631 -0.85716730853699208 0 0.51503806187062418 0.25751903093531209 0 0.42858365426849604 1 I I #
point $-1 -44.441140468650012 -1.0743886278587773 6.991657869255441 #
edge $-1 $732 1 $732 0 $418 $-1 forward 7 unknown #
vertex $-1 $419 $733 #
ellipse-curve $-1 -43.644485232810098 1.6969833285988933 5.9296624343154631 -0.85716730853699208 0 0.51503806187062418 0.25751903093531209 0 0.42858365426849604 1 I I #
point $-1 -44.441140468650012 1.6969833285988933 6.991657869255441 #
loop $-1 $-1 $430 $422 #
plane-surface $-1 -46.308786278878138 0 0 1 0 0 0 0 -1 forward_v I I I I #
coedge $-1 $599 $425 $427 $603 reversed $275 $-1 #
coedge $-1 $425 $598 $734 $735 reversed $275 $-1 #
coedge $-1 $433 $428 $425 $601 forward $423 $-1 #
edge $-1 $604 -19.76023811542732 $736 -16.539984556841695 $600 $737 forward 7 unknown #
coedge $-1 $427 $426 $607 $738 reversed $173 $-1 #
edge $-1 $739 1.393735185947377e-014 $604 6.2524574337081686 $598 $740 forward 7 unknown #
vertex $-1 $429 $741 #
straight-curve $-1 -43.088532720292505 5.8374924795373797 9.2427752700838077 0 1 0 I I #
coedge $-1 $734 $430 $433 $611 reversed $596 $-1 #
coedge $-1 $430 $734 $602 $738 forward $596 $-1 #
vertex $-1 $431 $742 #
straight-curve $-1 -46.308786278878138 8.4417176765408115 25.792474112599386 0 0 1 I I #
straight-curve $-1 -46.308786278878145 8.4417176765408115 3.8833731598900698 -0.51503806187062418 0 -0.85716730853699208 I I #
edge $-1 $736 -14.908252241608707 $434 -8.4417176765408115 $606 $743 forward 7 unknown #
point $-1 -46.308786278878138 8.4417176765408115 9.2427752700838077 #
point $-1 -43.088532720292513 8.4417176765408115 9.2427752700838077 #
edge $-1 $744 1 $744 0 $437 $-1 forward 7 unknown #
vertex $-1 $438 $745 #
ellipse-curve $-1 -43.644485232810098 10.289298980845924 5.9296624343154631 -0.85716730853699208 0 0.51503806187062418 0.25751903093531209 0 0.42858365426849604 1 I I #
point $-1 -44.441140468650012 10.289298980845924 6.991657869255441 #
edge $-1 $746 1 $746 0 $441 $-1 forward 7 unknown #
vertex $-1 $442 $747 #
ellipse-curve $-1 -43.644485232810098 13.060670937303595 5.9296624343154631 -0.85716730853699208 0 0.51503806187062418 0.25751903093531209 0 0.42858365426849604 1 I I #
point $-1 -44.441140468650012 13.060670937303595 6.991657869255441 #
loop $-1 $-1 $453 $445 #
plane-surface $-1 -46.308786278878138 0 0 1 0 0 0 0 -1 forward_v I I I I #
coedge $-1 $625 $448 $450 $629 reversed $297 $-1 #
coedge $-1 $448 $624 $748 $749 reversed $297 $-1 #
coedge $-1 $456 $451 $448 $627 forward $446 $-1 #
edge $-1 $630 -19.76023811542732 $750 -16.539984556841695 $626 $751 forward 7 unknown #
coedge $-1 $450 $449 $633 $752 reversed $187 $-1 #
edge $-1 $753 1.393735185947377e-014 $630 6.2524574337081686 $624 $754 forward 7 unknown #
vertex $-1 $452 $755 #
straight-curve $-1 -43.088532720292505 11.51933628388973 9.2427752700838077 0 1 0 I I #
coedge $-1 $748 $453 $456 $637 reversed $622 $-1 #
coedge $-1 $453 $748 $628 $752 forward $622 $-1 #
vertex $-1 $454 $756 #
straight-curve $-1 -46.308786278878138 19.805405285245513 25.792474112599386 0 0 1 I I #
straight-curve $-1 -46.308786278878145 19.805405285245513 3.8833731598900698 -0.51503806187062418 0 -0.85716730853699208 I I #
edge $-1 $750 -26.271939850313409 $457 -19.805405285245513 $632 $757 forward 7 unknown #
point $-1 -46.308786278878138 19.805405285245513 9.2427752700838077 #
point $-1 -43.088532720292513 19.805405285245513 9.2427752700838077 #
edge $-1 $758 1 $758 0 $460 $-1 forward 7 unknown #
vertex $-1 $461 $759 #
ellipse-curve $-1 -43.644485232810098 21.652986589550625 5.9296624343154631 -0.85716730853699208 0 0.51503806187062418 0.25751903093531209 0 0.42858365426849604 1 I I #
point $-1 -44.441140468650012 21.652986589550625 6.991657869255441 #
edge $-1 $760 1 $760 0 $464 $-1 forward 7 unknown #
vertex $-1 $465 $761 #
ellipse-curve $-1 -43.644485232810098 24.424358546008296 5.9296624343154631 -0.85716730853699208 0 0.51503806187062418 0.25751903093531209 0 0.42858365426849604 1 I I #
point $-1 -44.441140468650012 24.424358546008296 6.991657869255441 #
plane-surface $-1 46.308786278878138 0 0 -1 0 0 0 0 1 forward_v I I I I #
coedge $-1 $762 $763 $473 $653 forward $469 $-1 #
coedge $-1 $471 $657 $762 $764 forward $319 $-1 #
coedge $-1 $473 $472 $471 $652 reversed $201 $-1 #
edge $-1 $765 -16.788333460159528 $658 -7.1273146798570703 $471 $766 forward 7 unknown #
edge $-1 $655 -59.760097202243671 $765 -50.620242371607148 $649 $767 forward 7 unknown #
coedge $-1 $479 $474 $763 $768 reversed $480 $-1 #
vertex $-1 $475 $769 #
straight-curve $-1 46.308786278878145 11.957824070008298 2.0404713016937208 0 1 0 I I #
coedge $-1 $650 $476 $479 $661 forward $319 $-1 #
vertex $-1 $477 $770 #
straight-curve $-1 31.135679904187892 19.085138749865369 9.2427752700838113 1 0 0 I I #
straight-curve $-1 -10.7122841045909 19.085138749865369 75.024115214660412 -0.61566146476048833 0 0.78801076186113728 I I #
edge $-1 $481 19.085138749865369 $771 28.746157530167824 $479 $772 forward 7 unknown #
point $-1 46.308786278878138 19.085138749865369 9.2427752700838077 #
point $-1 46.308786278878138 19.085138749865369 2.0404713016937279 #
edge $-1 $773 1 $773 0 $484 $-1 forward 7 unknown #
vertex $-1 $485 $774 #
ellipse-curve $-1 42.026109922177035 21.845429829951787 4.4937989845423321 0.78801076186113728 0 0.61566146476048833 0.61566146476048833 0 -0.78801076186113728 1 I I #
point $-1 44.110919537274661 21.845429829951787 4.8536125240276169 #
edge $-1 $775 1 $775 0 $488 $-1 forward 7 unknown #
vertex $-1 $489 $776 #
ellipse-curve $-1 42.026109922177035 25.985866450081414 4.4937989845423321 0.78801076186113728 0 0.61566146476048833 0.61566146476048833 0 -0.78801076186113728 1 I I #
point $-1 44.110919537274661 25.985866450081414 4.8536125240276169 #
plane-surface $-1 46.308786278878138 0 0 -1 0 0 0 0 1 forward_v I I I I #
coedge $-1 $497 $495 $499 $677 reversed $341 $-1 #
edge $-1 $510 -9.2427752700838077 $679 9.2427752700838077 $509 $777 forward 7 unknown #
vertex $-1 $677 $778 #
straight-curve $-1 -46.308786278878138 -28.746157530167824 0 0 0 -1 I I #
edge $-1 $675 -28.746157530167824 $679 28.746157530167824 $673 $779 forward 7 unknown #
straight-curve $-1 0 -28.746157530167824 -9.2427752700838077 -1 0 0 I I #
vertex $-1 $502 $780 #
straight-curve $-1 0 28.746157530167824 -9.2427752700838077 1 0 0 I I #
point $-1 46.308786278878138 28.746157530167824 -9.2427752700838077 #
point $-1 46.308786278878138 -28.746157530167824 -9.2427752700838077 #
straight-curve $-1 -46.308786278878138 0 9.2427752700838077 0 -1 0 I I #
point $-1 -46.308786278878138 28.746157530167824 9.2427752700838077 #
point $-1 -46.308786278878138 -28.746157530167824 9.2427752700838077 #
straight-curve $-1 46.308786278878138 -28.746157530167824 0 0 0 -1 I I #
straight-curve $-1 46.308786278878138 28.746157530167824 0 0 0 -1 I I #
loop $-1 $-1 $525 $519 #
plane-surface $-1 0 -28.746157530167824 0 0 1 0 0 0 1 forward_v I I I I #
coedge $-1 $536 $527 $523 $692 forward $520 $-1 #
edge $-1 $696 -17.38246992146312 $531 -5.3449052959462851 $522 $781 forward 7 unknown #
edge $-1 $532 5.3449052959462851 $695 17.38246992146312 $690 $782 forward 7 unknown #
coedge $-1 $534 $525 $539 $705 reversed $688 $-1 #
coedge $-1 $525 $534 $536 $703 reversed $688 $-1 #
vertex $-1 $703 $783 #
vertex $-1 $526 $784 #
straight-curve $-1 -27.823235738710522 -28.746157530167824 0 0 0 1 I I #
straight-curve $-1 -14.661617869355261 -16.708592904650988 -9.2427752700838077 1 0 0 I I #
straight-curve $-1 -14.661617869355261 -16.708592904650988 9.2427752700838077 -1 0 0 I I #
point $-1 -27.823235738710522 -16.708592904650988 9.2427752700838077 #
point $-1 -27.823235738710522 -16.708592904650988 -9.2427752700838077 #
straight-curve $-1 -30.823235738710522 -28.746157530167824 0 0 0 -1 I I #
edge $-1 $695 27.823235738710522 $537 30.823235738710522 $694 $785 forward 7 unknown #
point $-1 -30.823235738710522 -28.746157530167824 -9.2427752700838077 #
edge $-1 $540 -30.823235738710522 $696 -27.823235738710522 $693 $786 forward 7 unknown #
point $-1 -30.823235738710522 -28.746157530167824 9.2427752700838077 #
edge $-1 $708 16.549698842515578 $711 21.909100952709306 $545 $787 forward 7 unknown #
vertex $-1 $559 $788 #
straight-curve $-1 -62.848770835719833 -7.8191229758006955 9.2427752700838077 -1 0 0 I I #
edge $-1 $711 2.2929278466333738 $556 8.7594624117012696 $555 $789 forward 7 unknown #
vertex $-1 $710 $790 #
straight-curve $-1 -46.308786278878145 -7.8191229758006955 3.8833731598900698 0.51503806187062418 0 0.85716730853699208 I I #
point $-1 -43.088532720292513 -7.8191229758006955 9.2427752700838077 #
point $-1 -46.308786278878138 -14.285657540868591 3.8833731598900818 #
straight-curve $-1 -46.308786278878138 0 9.2427752700838077 0 -1 0 I I #
vertex $-1 $562 $791 #
point $-1 -43.386966201874785 -12.438076236563479 6.3582460885839591 #
vertex $-1 $566 $792 #
point $-1 -43.386966201874785 -9.6667042801058081 6.3582460885839591 #
coedge $-1 $581 $580 $573 $721 forward $570 $-1 #
edge $-1 $722 16.549698842515578 $725 21.909100952709306 $720 $793 forward 7 unknown #
vertex $-1 $585 $794 #
straight-curve $-1 -62.848770835719833 3.5445646329040059 9.2427752700838077 -1 0 0 I I #
edge $-1 $725 -3.3889159577189769 $582 3.0776186073489189 $581 $795 forward 7 unknown #
vertex $-1 $724 $796 #
straight-curve $-1 -46.308786278878145 3.5445646329040059 3.8833731598900698 0.51503806187062418 0 0.85716730853699208 I I #
point $-1 -43.088532720292513 3.5445646329040059 9.2427752700838077 #
point $-1 -46.308786278878138 -2.9219699321638899 3.8833731598900818 #
straight-curve $-1 -46.308786278878138 0 9.2427752700838077 0 -1 0 I I #
vertex $-1 $588 $797 #
point $-1 -43.386966201874785 -1.0743886278587773 6.3582460885839591 #
vertex $-1 $592 $798 #
point $-1 -43.386966201874785 1.6969833285988933 6.3582460885839591 #
coedge $-1 $607 $606 $599 $735 forward $596 $-1 #
edge $-1 $736 16.549698842515578 $739 21.909100952709306 $734 $799 forward 7 unknown #
vertex $-1 $611 $800 #
straight-curve $-1 -62.848770835719833 14.908252241608707 9.2427752700838077 -1 0 0 I I #
edge $-1 $739 -9.0707597620713276 $608 -2.6042251970034318 $607 $801 forward 7 unknown #
vertex $-1 $738 $802 #
straight-curve $-1 -46.308786278878145 14.908252241608707 3.8833731598900698 0.51503806187062418 0 0.85716730853699208 I I #
point $-1 -43.088532720292513 14.908252241608707 9.2427752700838077 #
point $-1 -46.308786278878138 8.4417176765408115 3.8833731598900818 #
straight-curve $-1 -46.308786278878138 0 9.2427752700838077 0 -1 0 I I #
vertex $-1 $614 $803 #
point $-1 -43.386966201874785 10.289298980845924 6.3582460885839591 #
vertex $-1 $618 $804 #
point $-1 -43.386966201874785 13.060670937303595 6.3582460885839591 #
coedge $-1 $633 $632 $625 $749 forward $622 $-1 #
edge $-1 $750 16.549698842515578 $753 21.909100952709306 $748 $805 forward 7 unknown #
vertex $-1 $637 $806 #
straight-curve $-1 -62.848770835719833 26.271939850313409 9.2427752700838077 -1 0 0 I I #
edge $-1 $753 -14.752603566423678 $634 -8.2860690013557825 $633 $807 forward 7 unknown #
vertex $-1 $752 $808 #
straight-curve $-1 -46.308786278878145 26.271939850313409 3.8833731598900698 0.51503806187062418 0 0.85716730853699208 I I #
point $-1 -43.088532720292513 26.271939850313409 9.2427752700838077 #
point $-1 -46.308786278878138 19.805405285245513 3.8833731598900818 #
straight-curve $-1 -46.308786278878138 0 9.2427752700838077 0 -1 0 I I #
vertex $-1 $640 $809 #
point $-1 -43.386966201874785 21.652986589550625 6.3582460885839591 #
vertex $-1 $644 $810 #
point $-1 -43.386966201874785 24.424358546008296 6.3582460885839591 #
coedge $-1 $763 $649 $650 $764 reversed $469 $-1 #
coedge $-1 $649 $762 $654 $768 forward $469 $-1 #
edge $-1 $771 -46.308786278878138 $765 -40.681729866150228 $762 $811 forward 7 unknown #
vertex $-1 $653 $812 #
straight-curve $-1 40.681729866150235 11.957824070008298 9.2427752700837971 0 -1 0 I I #
straight-curve $-1 9.5167973011156395 28.746157530167824 49.132071026929381 -0.61566146476048833 0 0.78801076186113728 I I #
edge $-1 $771 -9.2427752700838077 $655 -2.040471301693723 $654 $813 forward 7 unknown #
point $-1 46.308786278878138 28.746157530167824 2.040471301693723 #
point $-1 40.681729866150228 19.085138749865369 9.2427752700838113 #
vertex $-1 $661 $814 #
straight-curve $-1 46.308786278878138 0 9.2427752700838077 0 1 0 I I #
vertex $-1 $664 $815 #
point $-1 42.641771386937528 21.845429829951787 3.7057882226811945 #
vertex $-1 $668 $816 #
point $-1 42.641771386937528 25.985866450081414 3.7057882226811945 #
straight-curve $-1 -46.308786278878138 28.746157530167824 0 0 0 -1 I I #
point $-1 -46.308786278878138 -28.746157530167824 -9.2427752700838077 #
straight-curve $-1 -46.308786278878138 0 -9.2427752700838077 0 1 0 I I #
point $-1 -46.308786278878138 28.746157530167824 -9.2427752700838077 #
straight-curve $-1 -27.823235738710522 -11.363687608704703 9.2427752700838077 0 1 0 I I #
straight-curve $-1 -27.823235738710522 -11.363687608704703 -9.2427752700838077 0 -1 0 I I #
point $-1 -27.823235738710522 -28.746157530167824 -9.2427752700838077 #
point $-1 -27.823235738710522 -28.746157530167824 9.2427752700838077 #
straight-curve $-1 0 -28.746157530167824 -9.2427752700838077 -1 0 0 I I #
straight-curve $-1 0 -28.746157530167824 9.2427752700838077 1 0 0 I I #
straight-curve $-1 -46.308786278878138 -7.8191229758006955 25.792474112599386 0 0 -1 I I #
point $-1 -46.308786278878138 -7.8191229758006955 9.2427752700838077 #
straight-curve $-1 -46.308786278878138 -5.5261951291673217 3.8833731598900894 0 -1 0 I I #
point $-1 -46.308786278878138 -7.8191229758006955 3.8833731598900818 #
point $-1 -43.215901578541605 -12.438076236563479 5.6721434033801517 #
point $-1 -43.215901578541605 -9.6667042801058081 5.6721434033801517 #
straight-curve $-1 -46.308786278878138 3.5445646329040059 25.792474112599386 0 0 -1 I I #
point $-1 -46.308786278878138 3.5445646329040059 9.2427752700838077 #
straight-curve $-1 -46.308786278878138 0.15564867518502901 3.8833731598900894 0 -1 0 I I #
point $-1 -46.308786278878138 3.5445646329040059 3.8833731598900818 #
point $-1 -43.215901578541605 -1.0743886278587773 5.6721434033801517 #
point $-1 -43.215901578541605 1.6969833285988933 5.6721434033801517 #
straight-curve $-1 -46.308786278878138 14.908252241608707 25.792474112599386 0 0 -1 I I #
point $-1 -46.308786278878138 14.908252241608707 9.2427752700838077 #
straight-curve $-1 -46.308786278878138 5.8374924795373797 3.8833731598900894 0 -1 0 I I #
point $-1 -46.308786278878138 14.908252241608707 3.8833731598900818 #
point $-1 -43.215901578541605 10.289298980845924 5.6721434033801517 #
point $-1 -43.215901578541605 13.060670937303595 5.6721434033801517 #
straight-curve $-1 -46.308786278878138 26.271939850313409 25.792474112599386 0 0 -1 I I #
point $-1 -46.308786278878138 26.271939850313409 9.2427752700838077 #
straight-curve $-1 -46.308786278878138 11.51933628388973 3.8833731598900894 0 -1 0 I I #
point $-1 -46.308786278878138 26.271939850313409 3.8833731598900818 #
point $-1 -43.215901578541605 21.652986589550625 5.6721434033801517 #
point $-1 -43.215901578541605 24.424358546008296 5.6721434033801517 #
straight-curve $-1 0 28.746157530167824 9.2427752700838077 -1 0 0 I I #
point $-1 40.681729866150228 28.746157530167824 9.2427752700838113 #
straight-curve $-1 46.308786278878138 28.746157530167824 0 0 0 -1 I I #
point $-1 46.308786278878138 28.746157530167824 9.2427752700838077 #
point $-1 41.238099160315905 21.845429829951787 3.8781375197818435 #
point $-1 41.238099160315905 25.985866450081414 3.8781375197818435 #
End-of-ACIS-data 