500 0 11 0           
7 Unknown 11 ACIS 5.0 NT 24 Thu Mar 25 17:44:09 1999 
-1 9.9999999999999995e-007 1e-010 
body $-1 $11 $-1 $12 #
body $-1 $13 $-1 $14 #
body $-1 $15 $-1 $16 #
body $-1 $17 $-1 $18 #
body $-1 $19 $-1 $20 #
body $-1 $21 $-1 $22 #
body $-1 $23 $-1 $24 #
body $-1 $25 $-1 $26 #
body $-1 $27 $-1 $28 #
body $-1 $29 $-1 $30 #
body $-1 $31 $-1 $32 #
lump $-1 $-1 $33 $0 #
transform $-1 1 0 0 0 1 0 0 0 1 42.059389019440289 28.436136374433801 11.260508668064386 1 rotate no_reflect no_shear #
lump $-1 $-1 $34 $1 #
transform $-1 1 0 0 0 1 0 0 0 1 42.059389019440289 28.436136374433801 11.260508668064386 1 rotate no_reflect no_shear #
lump $-1 $-1 $35 $2 #
transform $-1 1 0 0 0 1 0 0 0 1 42.059389019440289 28.436136374433801 11.260508668064386 1 rotate no_reflect no_shear #
lump $-1 $-1 $36 $3 #
transform $-1 1 0 0 0 1 0 0 0 1 42.059389019440289 28.436136374433801 11.260508668064386 1 rotate no_reflect no_shear #
lump $-1 $-1 $37 $4 #
transform $-1 1 0 0 0 1 0 0 0 1 42.059389019440289 28.436136374433801 11.260508668064386 1 rotate no_reflect no_shear #
lump $-1 $-1 $38 $5 #
transform $-1 1 0 0 0 1 0 0 0 1 42.059389019440289 28.436136374433801 11.260508668064386 1 rotate no_reflect no_shear #
lump $-1 $-1 $39 $6 #
transform $-1 1 0 0 0 1 0 0 0 1 42.059389019440289 28.436136374433801 11.260508668064386 1 rotate no_reflect no_shear #
lump $-1 $-1 $40 $7 #
transform $-1 1 0 0 0 1 0 0 0 1 42.059389019440289 28.436136374433801 11.260508668064386 1 rotate no_reflect no_shear #
lump $-1 $-1 $41 $8 #
transform $-1 1 0 0 0 1 0 0 0 1 42.059389019440289 28.436136374433801 11.260508668064386 1 rotate no_reflect no_shear #
lump $-1 $-1 $42 $9 #
transform $-1 1 0 0 0 1 0 0 0 1 42.059389019440289 28.436136374433801 11.260508668064386 1 rotate no_reflect no_shear #
lump $-1 $-1 $43 $10 #
transform $-1 1 0 0 0 1 0 0 0 1 42.059389019440289 28.436136374433801 11.260508668064386 1 rotate no_reflect no_shear #
shell $-1 $-1 $-1 $44 $-1 $11 #
shell $-1 $-1 $-1 $45 $-1 $13 #
shell $-1 $-1 $-1 $46 $-1 $15 #
shell $-1 $-1 $-1 $47 $-1 $17 #
shell $-1 $-1 $-1 $48 $-1 $19 #
shell $-1 $-1 $-1 $49 $-1 $21 #
shell $-1 $-1 $-1 $50 $-1 $23 #
shell $-1 $-1 $-1 $51 $-1 $25 #
shell $-1 $-1 $-1 $52 $-1 $27 #
shell $-1 $-1 $-1 $53 $-1 $29 #
shell $-1 $-1 $-1 $54 $-1 $31 #
face $-1 $55 $56 $33 $-1 $57 forward single #
face $-1 $58 $59 $34 $-1 $60 forward single #
face $-1 $61 $62 $35 $-1 $63 forward single #
face $-1 $64 $65 $36 $-1 $66 reversed single #
face $-1 $67 $68 $37 $-1 $69 forward single #
face $-1 $70 $71 $38 $-1 $72 reversed single #
face $-1 $73 $74 $39 $-1 $75 forward single #
face $-1 $76 $77 $40 $-1 $78 reversed single #
face $-1 $79 $80 $41 $-1 $81 forward single #
face $-1 $82 $83 $42 $-1 $84 reversed single #
face $-1 $85 $86 $43 $-1 $87 forward single #
face $-1 $88 $89 $33 $-1 $90 reversed single #
loop $-1 $-1 $91 $44 #
plane-surface $-1 0 0 11.260508668064386 0 0 1 1 0 0 forward_v I I I I #
face $-1 $92 $93 $34 $-1 $94 reversed single #
loop $-1 $-1 $95 $45 #
plane-surface $-1 -37.930283828260322 0 -6.1140159860611938 0 0 1 1 0 0 forward_v I I I I #
face $-1 $96 $97 $35 $-1 $98 reversed single #
loop $-1 $-1 $99 $46 #
plane-surface $-1 34.715115982197602 0 1.572167088618285 0 0 1 1 0 0 forward_v I I I I #
face $-1 $100 $101 $36 $-1 $102 reversed single #
loop $-1 $-1 $103 $47 #
plane-surface $-1 -27.754384853472562 -97.342206052282449 53.73723458802894 1 0 0 0 0.81915205242281985 -0.57357642473473569 forward_v I I I I #
face $-1 $104 $105 $37 $-1 $106 forward single #
loop $-1 $107 $108 $48 #
cone-surface $-1 -24.616324740324796 -25.271119340061183 7.5733638789822404 0 0.81915205242281985 -0.57357642473473569 1.5 0 0 1 I I 0 1 1.5 forward I I I I #
face $-1 $109 $110 $38 $-1 $111 reversed single #
loop $-1 $-1 $112 $49 #
plane-surface $-1 -13.486946923964503 -97.342206052282449 53.73723458802894 1 0 0 0 0.81915205242281985 -0.57357642473473569 forward_v I I I I #
face $-1 $113 $114 $39 $-1 $115 forward single #
loop $-1 $116 $117 $50 #
cone-surface $-1 -10.348886810816737 -25.271119340061183 7.5733638789822404 0 0.81915205242281985 -0.57357642473473569 1.5 0 0 1 I I 0 1 1.5 forward I I I I #
face $-1 $118 $119 $40 $-1 $120 reversed single #
loop $-1 $-1 $121 $51 #
plane-surface $-1 0.78049100554355189 -97.342206052282449 53.73723458802894 1 0 0 0 0.81915205242281985 -0.57357642473473569 forward_v I I I I #
face $-1 $122 $123 $41 $-1 $124 forward single #
loop $-1 $125 $126 $52 #
cone-surface $-1 3.9185511186913189 -25.271119340061183 7.5733638789822404 0 0.81915205242281985 -0.57357642473473569 1.5 0 0 1 I I 0 1 1.5 forward I I I I #
face $-1 $127 $128 $42 $-1 $129 reversed single #
loop $-1 $-1 $130 $53 #
plane-surface $-1 15.047928935051608 -97.342206052282449 53.73723458802894 1 0 0 0 0.81915205242281985 -0.57357642473473569 forward_v I I I I #
face $-1 $131 $132 $43 $-1 $133 forward single #
loop $-1 $134 $135 $54 #
cone-surface $-1 18.185989048199374 -25.271119340061183 7.5733638789822404 0 0.81915205242281985 -0.57357642473473569 1.5 0 0 1 I I 0 1 1.5 forward I I I I #
face $-1 $136 $137 $33 $-1 $138 reversed single #
loop $-1 $-1 $139 $55 #
plane-surface $-1 0 0 -11.260508668064386 0 0 1 1 0 0 forward_v I I I I #
coedge $-1 $140 $141 $142 $143 forward $56 $-1 #
face $-1 $144 $145 $34 $-1 $146 reversed single #
loop $-1 $-1 $147 $58 #
plane-surface $-1 -33.801178637080355 0 -8.6872623270627898 -1 0 0 0 0 1 forward_v I I I I #
coedge $-1 $148 $149 $150 $151 forward $59 $-1 #
face $-1 $152 $153 $35 $-1 $154 reversed single #
loop $-1 $-1 $155 $61 #
plane-surface $-1 34.715115982197602 0 -4.9584262041059421 0 0 1 1 0 0 forward_v I I I I #
coedge $-1 $156 $157 $158 $159 reversed $62 $-1 #
face $-1 $160 $161 $36 $-1 $162 reversed single #
loop $-1 $-1 $163 $64 #
plane-surface $-1 -24.616324740324796 -28.436136374433801 5.4886866274330188 0 -0.81915205242281985 0.57357642473473569 1 0 0 forward_v I I I I #
coedge $-1 $164 $165 $166 $167 reversed $65 $-1 #
face $-1 $-1 $168 $37 $-1 $169 forward single #
loop $-1 $170 $171 $67 #
cone-surface $-1 -24.616324740324796 -23.512474856409113 6.341947791664726 0 0.81915205242281985 -0.57357642473473569 0.75 0 0 1 I I -0.70710678118654757 0.70710678118654757 0.75 forward I I I I #
loop $-1 $-1 $172 $48 #
coedge $-1 $108 $108 $173 $174 reversed $68 $-1 #
face $-1 $175 $176 $38 $-1 $177 reversed single #
loop $-1 $-1 $178 $70 #
plane-surface $-1 -10.348886810816737 -28.436136374433801 5.4886866274330188 0 -0.81915205242281985 0.57357642473473569 1 0 0 forward_v I I I I #
coedge $-1 $179 $180 $181 $182 reversed $71 $-1 #
face $-1 $-1 $183 $39 $-1 $184 forward single #
loop $-1 $185 $186 $73 #
cone-surface $-1 -10.348886810816737 -23.512474856409113 6.341947791664726 0 0.81915205242281985 -0.57357642473473569 0.75 0 0 1 I I -0.70710678118654757 0.70710678118654757 0.75 forward I I I I #
loop $-1 $-1 $187 $50 #
coedge $-1 $117 $117 $188 $189 reversed $74 $-1 #
face $-1 $190 $191 $40 $-1 $192 reversed single #
loop $-1 $-1 $193 $76 #
plane-surface $-1 3.9185511186913189 -28.436136374433801 5.4886866274330188 0 -0.81915205242281985 0.57357642473473569 1 0 0 forward_v I I I I #
coedge $-1 $194 $195 $196 $197 reversed $77 $-1 #
face $-1 $-1 $198 $41 $-1 $199 forward single #
loop $-1 $200 $201 $79 #
cone-surface $-1 3.9185511186913189 -23.512474856409113 6.341947791664726 0 0.81915205242281985 -0.57357642473473569 0.75 0 0 1 I I -0.70710678118654757 0.70710678118654757 0.75 forward I I I I #
loop $-1 $-1 $202 $52 #
coedge $-1 $126 $126 $203 $204 reversed $80 $-1 #
face $-1 $205 $206 $42 $-1 $207 reversed single #
loop $-1 $-1 $208 $82 #
plane-surface $-1 18.185989048199374 -28.436136374433801 5.4886866274330188 0 -0.81915205242281985 0.57357642473473569 1 0 0 forward_v I I I I #
coedge $-1 $209 $210 $211 $212 reversed $83 $-1 #
face $-1 $-1 $213 $43 $-1 $214 forward single #
loop $-1 $215 $216 $85 #
cone-surface $-1 18.185989048199374 -23.512474856409113 6.341947791664726 0 0.81915205242281985 -0.57357642473473569 0.75 0 0 1 I I -0.70710678118654757 0.70710678118654757 0.75 forward I I I I #
loop $-1 $-1 $217 $54 #
coedge $-1 $135 $135 $218 $219 reversed $86 $-1 #
face $-1 $220 $221 $33 $-1 $222 reversed single #
loop $-1 $-1 $223 $88 #
plane-surface $-1 0 -28.436136374433801 0 0 1 0 0 0 1 forward_v I I I I #
coedge $-1 $224 $225 $226 $227 forward $89 $-1 #
coedge $-1 $228 $91 $229 $230 forward $56 $-1 #
coedge $-1 $91 $228 $231 $232 forward $56 $-1 #
coedge $-1 $233 $234 $91 $143 reversed $235 $-1 #
edge $-1 $236 -28.436136374433801 $237 28.436136374433801 $142 $238 forward 7 unknown #
face $-1 $239 $240 $34 $-1 $241 reversed single #
loop $-1 $-1 $242 $92 #
plane-surface $-1 0 0 -11.260508668064386 0 0 1 1 0 0 forward_v I I I I #
coedge $-1 $243 $150 $244 $245 reversed $93 $-1 #
coedge $-1 $246 $95 $247 $248 reversed $59 $-1 #
coedge $-1 $95 $246 $249 $250 reversed $59 $-1 #
coedge $-1 $147 $251 $95 $151 reversed $93 $-1 #
edge $-1 $252 -28.436136374433801 $253 28.436136374433801 $150 $254 forward 7 unknown #
face $-1 $255 $256 $35 $-1 $257 reversed single #
loop $-1 $-1 $258 $96 #
plane-surface $-1 27.370842944954923 0 -1.6931295577438288 1 0 0 0 0 -1 forward_v I I I I #
coedge $-1 $259 $260 $261 $262 reversed $97 $-1 #
coedge $-1 $263 $99 $264 $265 reversed $62 $-1 #
coedge $-1 $99 $263 $266 $267 reversed $62 $-1 #
coedge $-1 $268 $269 $99 $159 forward $270 $-1 #
edge $-1 $271 -28.436136374433801 $272 28.436136374433801 $158 $273 forward 7 unknown #
face $-1 $274 $275 $36 $-1 $276 forward single #
loop $-1 $-1 $277 $100 #
plane-surface $-1 -21.47826462717703 -97.342206052282449 53.73723458802894 -1 0 0 0 -0.81915205242281985 0.57357642473473569 forward_v I I I I #
coedge $-1 $278 $279 $280 $281 reversed $101 $-1 #
coedge $-1 $165 $103 $282 $283 reversed $65 $-1 #
coedge $-1 $103 $164 $278 $284 reversed $65 $-1 #
coedge $-1 $280 $285 $103 $167 forward $286 $-1 #
edge $-1 $287 15.608108625950084 $288 21.379930666581451 $166 $289 forward 7 unknown #
loop $-1 $-1 $173 $104 #
plane-surface $-1 -24.616324740324796 -28.436136374433801 5.4886866274330188 0 -0.81915205242281985 0.57357642473473569 1 0 0 forward_v I I I I #
loop $-1 $-1 $290 $67 #
coedge $-1 $171 $171 $172 $291 reversed $105 $-1 #
coedge $-1 $172 $172 $171 $291 forward $107 $-1 #
coedge $-1 $173 $173 $108 $174 forward $168 $-1 #
edge $-1 $292 -1.3585018733283879e-015 $292 6.2831853071795987 $173 $293 forward 7 unknown #
face $-1 $294 $295 $38 $-1 $296 reversed single #
loop $-1 $-1 $297 $109 #
plane-surface $-1 -7.2108266976689697 -97.342206052282449 53.73723458802894 -1 0 0 0 -0.81915205242281985 0.57357642473473569 forward_v I I I I #
coedge $-1 $298 $299 $300 $301 reversed $110 $-1 #
coedge $-1 $180 $112 $302 $303 reversed $71 $-1 #
coedge $-1 $112 $179 $298 $304 reversed $71 $-1 #
coedge $-1 $300 $305 $112 $182 forward $295 $-1 #
edge $-1 $306 15.608108625950084 $307 21.379930666581451 $181 $308 forward 7 unknown #
loop $-1 $-1 $188 $113 #
plane-surface $-1 -10.348886810816737 -28.436136374433801 5.4886866274330188 0 -0.81915205242281985 0.57357642473473569 1 0 0 forward_v I I I I #
loop $-1 $-1 $309 $73 #
coedge $-1 $186 $186 $187 $310 reversed $114 $-1 #
coedge $-1 $187 $187 $186 $310 forward $116 $-1 #
coedge $-1 $188 $188 $117 $189 forward $183 $-1 #
edge $-1 $311 -1.3585018733283879e-015 $311 6.2831853071795987 $188 $312 forward 7 unknown #
face $-1 $313 $314 $40 $-1 $315 reversed single #
loop $-1 $-1 $316 $118 #
plane-surface $-1 7.0566112318390859 -97.342206052282449 53.73723458802894 -1 0 0 0 -0.81915205242281985 0.57357642473473569 forward_v I I I I #
coedge $-1 $317 $318 $319 $320 reversed $119 $-1 #
coedge $-1 $195 $121 $321 $322 reversed $77 $-1 #
coedge $-1 $121 $194 $317 $323 reversed $77 $-1 #
coedge $-1 $319 $324 $121 $197 forward $314 $-1 #
edge $-1 $325 15.608108625950084 $326 21.379930666581451 $196 $327 forward 7 unknown #
loop $-1 $-1 $203 $122 #
plane-surface $-1 3.9185511186913189 -28.436136374433801 5.4886866274330188 0 -0.81915205242281985 0.57357642473473569 1 0 0 forward_v I I I I #
loop $-1 $-1 $328 $79 #
coedge $-1 $201 $201 $202 $329 reversed $123 $-1 #
coedge $-1 $202 $202 $201 $329 forward $125 $-1 #
coedge $-1 $203 $203 $126 $204 forward $198 $-1 #
edge $-1 $330 -1.3585018733283879e-015 $330 6.2831853071795987 $203 $331 forward 7 unknown #
face $-1 $332 $333 $42 $-1 $334 reversed single #
loop $-1 $-1 $335 $127 #
plane-surface $-1 21.324049161347141 -97.342206052282449 53.73723458802894 -1 0 0 0 -0.81915205242281985 0.57357642473473569 forward_v I I I I #
coedge $-1 $336 $337 $338 $339 reversed $128 $-1 #
coedge $-1 $210 $130 $340 $341 reversed $83 $-1 #
coedge $-1 $130 $209 $336 $342 reversed $83 $-1 #
coedge $-1 $338 $343 $130 $212 forward $333 $-1 #
edge $-1 $344 15.608108625950084 $345 21.379930666581451 $211 $346 forward 7 unknown #
loop $-1 $-1 $218 $131 #
plane-surface $-1 18.185989048199374 -28.436136374433801 5.4886866274330188 0 -0.81915205242281985 0.57357642473473569 1 0 0 forward_v I I I I #
loop $-1 $-1 $347 $85 #
coedge $-1 $216 $216 $217 $348 reversed $132 $-1 #
coedge $-1 $217 $217 $216 $348 forward $134 $-1 #
coedge $-1 $218 $218 $135 $219 forward $213 $-1 #
edge $-1 $349 -1.3585018733283879e-015 $349 6.2831853071795987 $218 $350 forward 7 unknown #
face $-1 $351 $352 $33 $-1 $353 reversed single #
loop $-1 $-1 $354 $136 #
plane-surface $-1 -42.059389019440289 0 0 1 0 0 0 0 -1 forward_v I I I I #
coedge $-1 $355 $231 $356 $357 forward $137 $-1 #
coedge $-1 $358 $139 $355 $359 forward $89 $-1 #
coedge $-1 $139 $358 $360 $361 forward $89 $-1 #
coedge $-1 $234 $233 $139 $227 reversed $235 $-1 #
edge $-1 $362 -28.436136374433801 $363 28.436136374433801 $226 $364 forward 7 unknown #
coedge $-1 $141 $140 $365 $366 forward $56 $-1 #
coedge $-1 $367 $368 $140 $230 reversed $352 $-1 #
edge $-1 $237 -42.059389019440289 $369 42.059389019440289 $229 $370 forward 7 unknown #
coedge $-1 $223 $371 $141 $232 reversed $137 $-1 #
edge $-1 $372 -42.059389019440289 $236 42.059389019440289 $231 $373 forward 7 unknown #
coedge $-1 $226 $142 $371 $374 forward $235 $-1 #
coedge $-1 $142 $226 $367 $375 reversed $235 $-1 #
loop $-1 $-1 $233 $351 #
vertex $-1 $143 $376 #
vertex $-1 $143 $377 #
straight-curve $-1 42.059389019440289 0 11.260508668064386 0 1 0 I I #
face $-1 $378 $379 $34 $-1 $380 reversed single #
loop $-1 $-1 $244 $144 #
plane-surface $-1 0 -28.436136374433801 0 0 1 0 0 0 1 forward_v I I I I #
coedge $-1 $381 $382 $243 $383 forward $145 $-1 #
coedge $-1 $251 $147 $242 $383 reversed $93 $-1 #
coedge $-1 $249 $384 $147 $245 forward $240 $-1 #
edge $-1 $385 -6.9168775045329909 $252 -1.7703848225297989 $244 $386 forward 7 unknown #
coedge $-1 $149 $148 $387 $388 reversed $59 $-1 #
coedge $-1 $389 $390 $148 $248 forward $391 $-1 #
edge $-1 $392 -23.094247105310128 $253 -14.836036722950194 $247 $393 forward 7 unknown #
coedge $-1 $394 $244 $149 $250 forward $240 $-1 #
edge $-1 $252 14.836036722950194 $395 23.094247105310128 $249 $396 forward 7 unknown #
coedge $-1 $150 $243 $389 $397 reversed $93 $-1 #
vertex $-1 $250 $398 #
vertex $-1 $248 $399 #
straight-curve $-1 -33.801178637080355 0 -6.1140159860611938 0 1 0 I I #
face $-1 $400 $401 $35 $-1 $402 reversed single #
loop $-1 $-1 $266 $152 #
plane-surface $-1 0 -28.436136374433801 0 0 1 0 0 0 1 forward_v I I I I #
coedge $-1 $403 $404 $405 $406 reversed $153 $-1 #
coedge $-1 $407 $155 $408 $409 reversed $97 $-1 #
coedge $-1 $155 $407 $410 $411 reversed $97 $-1 #
coedge $-1 $269 $268 $155 $262 forward $270 $-1 #
edge $-1 $412 -28.436136374433801 $413 28.436136374433801 $261 $414 forward 7 unknown #
coedge $-1 $157 $156 $404 $415 forward $62 $-1 #
coedge $-1 $416 $405 $156 $265 forward $401 $-1 #
edge $-1 $417 10.013284953856122 $271 24.701831028341481 $264 $418 forward 7 unknown #
coedge $-1 $419 $420 $157 $267 forward $256 $-1 #
edge $-1 $272 -24.701831028341481 $421 -10.013284953856122 $266 $422 forward 7 unknown #
coedge $-1 $261 $158 $420 $423 forward $270 $-1 #
coedge $-1 $158 $261 $416 $424 reversed $270 $-1 #
loop $-1 $-1 $158 $400 #
vertex $-1 $424 $425 #
vertex $-1 $423 $426 #
straight-curve $-1 42.059389019440289 0 1.572167088618285 0 -1 0 I I #
face $-1 $-1 $286 $36 $-1 $427 reversed single #
loop $-1 $-1 $428 $160 #
plane-surface $-1 0 0 11.260508668064386 0 0 1 1 0 0 forward_v I I I I #
coedge $-1 $429 $430 $431 $432 reversed $161 $-1 #
coedge $-1 $433 $163 $165 $284 forward $101 $-1 #
coedge $-1 $163 $433 $429 $434 forward $101 $-1 #
coedge $-1 $431 $166 $163 $281 forward $286 $-1 #
edge $-1 $288 -15.446222483310164 $435 -9.1701022570146318 $280 $436 forward 7 unknown #
coedge $-1 $437 $438 $164 $283 forward $275 $-1 #
edge $-1 $439 -24.276439831782753 $287 -20.234966651707424 $282 $440 forward 7 unknown #
edge $-1 $288 0 $439 7.0460936080913825 $165 $441 forward 7 unknown #
coedge $-1 $166 $431 $437 $442 reversed $286 $-1 #
loop $-1 $-1 $431 $274 #
vertex $-1 $442 $443 #
vertex $-1 $167 $444 #
straight-curve $-1 -27.754384853472562 -28.436136374433801 26.86861729401447 0 0 -1 I I #
coedge $-1 $290 $290 $-1 $445 reversed $170 $-1 #
edge $-1 $446 0 $446 6.2831853071796004 $171 $447 forward 7 unknown #
vertex $-1 $174 $448 #
ellipse-curve $-1 -24.616324740324796 -26.415399784396136 8.3745976477487023 0 -0.81915205242281985 0.57357642473473569 1.5 0 0 1 I I #
face $-1 $-1 $449 $38 $-1 $450 forward single #
loop $-1 $-1 $181 $175 #
plane-surface $-1 0 -28.436136374433801 0 0 1 0 0 0 1 forward_v I I I I #
coedge $-1 $451 $452 $453 $454 reversed $176 $-1 #
coedge $-1 $455 $178 $180 $304 forward $110 $-1 #
coedge $-1 $178 $455 $451 $456 forward $110 $-1 #
coedge $-1 $453 $181 $178 $301 forward $295 $-1 #
edge $-1 $307 -8.3125035185561345 $457 -2.0363832922606013 $300 $458 forward 7 unknown #
coedge $-1 $459 $460 $179 $303 forward $449 $-1 #
edge $-1 $461 -24.276439831782753 $306 -20.234966651707424 $302 $462 forward 7 unknown #
edge $-1 $307 0 $461 7.0460936080913825 $180 $463 forward 7 unknown #
coedge $-1 $181 $453 $459 $464 reversed $295 $-1 #
vertex $-1 $464 $465 #
vertex $-1 $182 $466 #
straight-curve $-1 -13.486946923964503 -28.436136374433801 26.86861729401447 0 0 -1 I I #
coedge $-1 $309 $309 $-1 $467 reversed $185 $-1 #
edge $-1 $468 0 $468 6.2831853071796004 $186 $469 forward 7 unknown #
vertex $-1 $189 $470 #
ellipse-curve $-1 -10.348886810816737 -26.415399784396136 8.3745976477487023 0 -0.81915205242281985 0.57357642473473569 1.5 0 0 1 I I #
face $-1 $-1 $471 $40 $-1 $472 forward single #
loop $-1 $-1 $196 $190 #
plane-surface $-1 0 -28.436136374433801 0 0 1 0 0 0 1 forward_v I I I I #
coedge $-1 $473 $474 $475 $476 reversed $191 $-1 #
coedge $-1 $477 $193 $195 $323 forward $119 $-1 #
coedge $-1 $193 $477 $473 $478 forward $119 $-1 #
coedge $-1 $475 $196 $193 $320 forward $314 $-1 #
edge $-1 $326 -1.1787845538021076 $479 5.0973356724934265 $319 $480 forward 7 unknown #
coedge $-1 $481 $482 $194 $322 forward $471 $-1 #
edge $-1 $483 -24.276439831782753 $325 -20.234966651707424 $321 $484 forward 7 unknown #
edge $-1 $326 0 $483 7.0460936080913825 $195 $485 forward 7 unknown #
coedge $-1 $196 $475 $481 $486 reversed $314 $-1 #
vertex $-1 $486 $487 #
vertex $-1 $197 $488 #
straight-curve $-1 0.78049100554355189 -28.436136374433801 26.86861729401447 0 0 -1 I I #
coedge $-1 $328 $328 $-1 $489 reversed $200 $-1 #
edge $-1 $490 0 $490 6.2831853071796004 $201 $491 forward 7 unknown #
vertex $-1 $204 $492 #
ellipse-curve $-1 3.9185511186913189 -26.415399784396136 8.3745976477487023 0 -0.81915205242281985 0.57357642473473569 1.5 0 0 1 I I #
face $-1 $-1 $493 $42 $-1 $494 forward single #
loop $-1 $-1 $211 $205 #
plane-surface $-1 0 -28.436136374433801 0 0 1 0 0 0 1 forward_v I I I I #
coedge $-1 $495 $496 $497 $498 reversed $206 $-1 #
coedge $-1 $499 $208 $210 $342 forward $128 $-1 #
coedge $-1 $208 $499 $495 $500 forward $128 $-1 #
coedge $-1 $497 $211 $208 $339 forward $333 $-1 #
edge $-1 $345 5.9549344109519211 $501 12.231054637247453 $338 $502 forward 7 unknown #
coedge $-1 $503 $504 $209 $341 forward $493 $-1 #
edge $-1 $505 -24.276439831782753 $344 -20.234966651707424 $340 $506 forward 7 unknown #
edge $-1 $345 0 $505 7.0460936080913825 $210 $507 forward 7 unknown #
coedge $-1 $211 $497 $503 $508 reversed $333 $-1 #
vertex $-1 $508 $509 #
vertex $-1 $212 $510 #
straight-curve $-1 15.047928935051608 -28.436136374433801 26.86861729401447 0 0 -1 I I #
coedge $-1 $347 $347 $-1 $511 reversed $215 $-1 #
edge $-1 $512 0 $512 6.2831853071796004 $216 $513 forward 7 unknown #
vertex $-1 $219 $514 #
ellipse-curve $-1 18.185989048199374 -26.415399784396136 8.3745976477487023 0 -0.81915205242281985 0.57357642473473569 1.5 0 0 1 I I #
face $-1 $-1 $235 $33 $-1 $515 reversed single #
loop $-1 $-1 $367 $220 #
plane-surface $-1 0 28.436136374433801 0 0 -1 0 0 0 -1 forward_v I I I I #
coedge $-1 $516 $365 $368 $517 forward $221 $-1 #
coedge $-1 $371 $223 $224 $359 reversed $137 $-1 #
coedge $-1 $365 $516 $223 $357 reversed $221 $-1 #
edge $-1 $372 -11.260508668064386 $518 11.260508668064386 $356 $519 forward 7 unknown #
coedge $-1 $225 $224 $516 $520 forward $89 $-1 #
edge $-1 $363 -42.059389019440289 $518 42.059389019440289 $355 $521 forward 7 unknown #
coedge $-1 $368 $367 $225 $361 reversed $352 $-1 #
edge $-1 $522 -42.059389019440289 $362 42.059389019440289 $360 $523 forward 7 unknown #
vertex $-1 $227 $524 #
vertex $-1 $374 $525 #
straight-curve $-1 42.059389019440289 0 -11.260508668064386 0 -1 0 I I #
coedge $-1 $354 $356 $228 $366 reversed $221 $-1 #
edge $-1 $369 -28.436136374433801 $372 28.436136374433801 $365 $526 forward 7 unknown #
coedge $-1 $360 $229 $234 $375 forward $352 $-1 #
coedge $-1 $229 $360 $354 $517 reversed $352 $-1 #
vertex $-1 $230 $527 #
straight-curve $-1 0 28.436136374433801 11.260508668064386 -1 0 0 I I #
coedge $-1 $231 $355 $233 $374 reversed $137 $-1 #
vertex $-1 $366 $528 #
straight-curve $-1 0 -28.436136374433801 11.260508668064386 1 0 0 I I #
edge $-1 $236 -11.260508668064386 $363 11.260508668064386 $233 $529 forward 7 unknown #
edge $-1 $237 -11.260508668064386 $362 11.260508668064386 $234 $530 forward 7 unknown #
point $-1 42.059389019440289 -28.436136374433801 11.260508668064386 #
point $-1 42.059389019440289 28.436136374433801 11.260508668064386 #
face $-1 $-1 $391 $34 $-1 $531 reversed single #
loop $-1 $-1 $387 $239 #
plane-surface $-1 -42.059389019440289 0 0 1 0 0 0 0 -1 forward_v I I I I #
coedge $-1 $532 $242 $384 $533 forward $145 $-1 #
coedge $-1 $242 $532 $534 $535 forward $145 $-1 #
edge $-1 $536 -28.436136374433801 $385 28.436136374433801 $242 $537 forward 7 unknown #
coedge $-1 $244 $394 $381 $533 reversed $240 $-1 #
vertex $-1 $533 $538 #
straight-curve $-1 -33.801178637080355 -28.436136374433801 -4.3436311635313949 0 0 1 I I #
coedge $-1 $539 $540 $246 $388 forward $379 $-1 #
edge $-1 $395 -28.436136374433801 $392 28.436136374433801 $387 $541 forward 7 unknown #
coedge $-1 $534 $247 $251 $397 forward $391 $-1 #
coedge $-1 $247 $534 $539 $542 reversed $391 $-1 #
loop $-1 $-1 $389 $378 #
vertex $-1 $542 $543 #
straight-curve $-1 -18.965141914130161 28.436136374433801 -6.1140159860611938 1 0 0 I I #
coedge $-1 $384 $249 $540 $544 forward $240 $-1 #
vertex $-1 $544 $545 #
straight-curve $-1 -18.965141914130161 -28.436136374433801 -6.1140159860611938 -1 0 0 I I #
edge $-1 $253 1.7703848225297989 $536 6.9168775045329909 $389 $546 forward 7 unknown #
point $-1 -33.801178637080355 -28.436136374433801 -6.1140159860611938 #
point $-1 -33.801178637080355 28.436136374433801 -6.1140159860611938 #
face $-1 $-1 $270 $35 $-1 $547 reversed single #
loop $-1 $-1 $264 $255 #
plane-surface $-1 0 28.436136374433801 0 0 -1 0 0 0 -1 forward_v I I I I #
coedge $-1 $548 $258 $407 $549 reversed $153 $-1 #
coedge $-1 $258 $548 $263 $415 reversed $153 $-1 #
coedge $-1 $264 $410 $258 $406 forward $401 $-1 #
edge $-1 $550 -4.1118614252340278 $417 2.4187318674901994 $405 $551 forward 7 unknown #
coedge $-1 $260 $259 $403 $549 forward $97 $-1 #
coedge $-1 $420 $419 $259 $409 forward $256 $-1 #
edge $-1 $552 10.013284953856122 $412 24.701831028341481 $408 $553 forward 7 unknown #
coedge $-1 $405 $416 $260 $411 forward $401 $-1 #
edge $-1 $413 -24.701831028341481 $550 -10.013284953856122 $410 $554 forward 7 unknown #
vertex $-1 $262 $555 #
vertex $-1 $262 $556 #
straight-curve $-1 42.059389019440289 0 -4.9584262041059421 0 1 0 I I #
edge $-1 $417 -28.436136374433801 $421 28.436136374433801 $404 $557 forward 7 unknown #
coedge $-1 $410 $264 $269 $424 forward $401 $-1 #
vertex $-1 $265 $558 #
straight-curve $-1 17.357557991098801 28.436136374433801 1.572167088618285 1 0 0 I I #
coedge $-1 $408 $266 $548 $559 forward $256 $-1 #
coedge $-1 $266 $408 $268 $423 reversed $256 $-1 #
vertex $-1 $267 $560 #
straight-curve $-1 17.357557991098801 -28.436136374433801 1.572167088618285 -1 0 0 I I #
edge $-1 $272 -1.572167088618285 $412 4.9584262041059421 $268 $561 forward 7 unknown #
edge $-1 $271 -1.572167088618285 $413 4.9584262041059421 $269 $562 forward 7 unknown #
point $-1 42.059389019440282 28.436136374433801 1.572167088618285 #
point $-1 42.059389019440282 -28.436136374433801 1.572167088618285 #
plane-surface $-1 0 -28.436136374433801 0 0 1 0 0 0 1 forward_v I I I I #
coedge $-1 $438 $437 $430 $563 forward $275 $-1 #
coedge $-1 $430 $277 $279 $434 reversed $161 $-1 #
coedge $-1 $277 $429 $428 $563 reversed $161 $-1 #
coedge $-1 $285 $280 $277 $432 forward $286 $-1 #
edge $-1 $435 -21.379930666581451 $564 -15.608108625950084 $431 $565 forward 7 unknown #
coedge $-1 $279 $278 $438 $566 reversed $101 $-1 #
edge $-1 $567 -7.0460936080913825 $435 0 $429 $568 forward 7 unknown #
vertex $-1 $281 $569 #
straight-curve $-1 -12.308162370162398 -28.436136374433801 5.4886866274330197 1 0 0 I I #
coedge $-1 $428 $282 $285 $442 forward $275 $-1 #
coedge $-1 $282 $428 $433 $566 forward $275 $-1 #
vertex $-1 $283 $570 #
straight-curve $-1 -27.754384853472562 -48.671103026141225 11.260508668064386 0 -1 0 I I #
straight-curve $-1 -27.754384853472562 -28.436136374433801 5.4886866274330188 0 0.57357642473473569 0.81915205242281985 I I #
edge $-1 $287 -27.754384853472562 $564 -21.47826462717703 $285 $571 forward 7 unknown #
point $-1 -27.754384853472562 -28.436136374433801 11.260508668064386 #
point $-1 -27.754384853472562 -28.436136374433801 5.4886866274330188 #
edge $-1 $572 1 $572 0 $290 $-1 forward 7 unknown #
vertex $-1 $291 $573 #
ellipse-curve $-1 -24.616324740324796 -24.126838895726227 6.7721301102157776 0 -0.81915205242281985 0.57357642473473569 1.5 0 0 1 I I #
point $-1 -23.116324740324796 -26.41539978439614 8.3745976477487023 #
loop $-1 $-1 $302 $294 #
plane-surface $-1 0 0 11.260508668064386 0 0 1 1 0 0 forward_v I I I I #
coedge $-1 $452 $297 $299 $456 reversed $176 $-1 #
coedge $-1 $297 $451 $574 $575 reversed $176 $-1 #
coedge $-1 $305 $300 $297 $454 forward $295 $-1 #
edge $-1 $457 -21.379930666581451 $576 -15.608108625950084 $453 $577 forward 7 unknown #
coedge $-1 $299 $298 $460 $578 reversed $110 $-1 #
edge $-1 $579 -7.0460936080913825 $457 0 $451 $580 forward 7 unknown #
vertex $-1 $301 $581 #
straight-curve $-1 -5.1744434054083683 -28.436136374433801 5.4886866274330197 1 0 0 I I #
coedge $-1 $574 $302 $305 $464 forward $449 $-1 #
coedge $-1 $302 $574 $455 $578 forward $449 $-1 #
vertex $-1 $303 $582 #
straight-curve $-1 -13.486946923964503 -48.671103026141225 11.260508668064386 0 -1 0 I I #
straight-curve $-1 -13.486946923964503 -28.436136374433801 5.4886866274330188 0 0.57357642473473569 0.81915205242281985 I I #
edge $-1 $306 -13.486946923964503 $576 -7.2108266976689697 $305 $583 forward 7 unknown #
point $-1 -13.486946923964503 -28.436136374433801 11.260508668064386 #
point $-1 -13.486946923964503 -28.436136374433801 5.4886866274330188 #
edge $-1 $584 1 $584 0 $309 $-1 forward 7 unknown #
vertex $-1 $310 $585 #
ellipse-curve $-1 -10.348886810816737 -24.126838895726227 6.7721301102157776 0 -0.81915205242281985 0.57357642473473569 1.5 0 0 1 I I #
point $-1 -8.8488868108167367 -26.41539978439614 8.3745976477487023 #
loop $-1 $-1 $321 $313 #
plane-surface $-1 0 0 11.260508668064386 0 0 1 1 0 0 forward_v I I I I #
coedge $-1 $474 $316 $318 $478 reversed $191 $-1 #
coedge $-1 $316 $473 $586 $587 reversed $191 $-1 #
coedge $-1 $324 $319 $316 $476 forward $314 $-1 #
edge $-1 $479 -21.379930666581451 $588 -15.608108625950084 $475 $589 forward 7 unknown #
coedge $-1 $318 $317 $482 $590 reversed $119 $-1 #
edge $-1 $591 -7.0460936080913825 $479 0 $473 $592 forward 7 unknown #
vertex $-1 $320 $593 #
straight-curve $-1 1.9592755593456594 -28.436136374433801 5.4886866274330197 1 0 0 I I #
coedge $-1 $586 $321 $324 $486 forward $471 $-1 #
coedge $-1 $321 $586 $477 $590 forward $471 $-1 #
vertex $-1 $322 $594 #
straight-curve $-1 0.78049100554355189 -48.671103026141225 11.260508668064386 0 -1 0 I I #
straight-curve $-1 0.78049100554355189 -28.436136374433801 5.4886866274330188 0 0.57357642473473569 0.81915205242281985 I I #
edge $-1 $325 0.78049100554355189 $588 7.0566112318390859 $324 $595 forward 7 unknown #
point $-1 0.78049100554355189 -28.436136374433801 11.260508668064386 #
point $-1 0.78049100554355189 -28.436136374433801 5.4886866274330188 #
edge $-1 $596 1 $596 0 $328 $-1 forward 7 unknown #
vertex $-1 $329 $597 #
ellipse-curve $-1 3.9185511186913189 -24.126838895726227 6.7721301102157776 0 -0.81915205242281985 0.57357642473473569 1.5 0 0 1 I I #
point $-1 5.4185511186913189 -26.41539978439614 8.3745976477487023 #
loop $-1 $-1 $340 $332 #
plane-surface $-1 0 0 11.260508668064386 0 0 1 1 0 0 forward_v I I I I #
coedge $-1 $496 $335 $337 $500 reversed $206 $-1 #
coedge $-1 $335 $495 $598 $599 reversed $206 $-1 #
coedge $-1 $343 $338 $335 $498 forward $333 $-1 #
edge $-1 $501 -21.379930666581451 $600 -15.608108625950084 $497 $601 forward 7 unknown #
coedge $-1 $337 $336 $504 $602 reversed $128 $-1 #
edge $-1 $603 -7.0460936080913825 $501 0 $495 $604 forward 7 unknown #
vertex $-1 $339 $605 #
straight-curve $-1 9.0929945240996872 -28.436136374433801 5.4886866274330197 1 0 0 I I #
coedge $-1 $598 $340 $343 $508 forward $493 $-1 #
coedge $-1 $340 $598 $499 $602 forward $493 $-1 #
vertex $-1 $341 $606 #
straight-curve $-1 15.047928935051608 -48.671103026141225 11.260508668064386 0 -1 0 I I #
straight-curve $-1 15.047928935051608 -28.436136374433801 5.4886866274330188 0 0.57357642473473569 0.81915205242281985 I I #
edge $-1 $344 15.047928935051608 $600 21.324049161347141 $343 $607 forward 7 unknown #
point $-1 15.047928935051608 -28.436136374433801 11.260508668064386 #
point $-1 15.047928935051608 -28.436136374433801 5.4886866274330188 #
edge $-1 $608 1 $608 0 $347 $-1 forward 7 unknown #
vertex $-1 $348 $609 #
ellipse-curve $-1 18.185989048199374 -24.126838895726227 6.7721301102157776 0 -0.81915205242281985 0.57357642473473569 1.5 0 0 1 I I #
point $-1 19.685989048199374 -26.41539978439614 8.3745976477487023 #
plane-surface $-1 42.059389019440289 0 0 -1 0 0 0 0 1 forward_v I I I I #
coedge $-1 $356 $354 $358 $520 reversed $221 $-1 #
edge $-1 $369 -11.260508668064386 $522 11.260508668064386 $368 $610 forward 7 unknown #
vertex $-1 $520 $611 #
straight-curve $-1 -42.059389019440289 -28.436136374433801 0 0 0 -1 I I #
edge $-1 $518 -28.436136374433801 $522 28.436136374433801 $516 $612 forward 7 unknown #
straight-curve $-1 0 -28.436136374433801 -11.260508668064386 -1 0 0 I I #
vertex $-1 $361 $613 #
straight-curve $-1 0 28.436136374433801 -11.260508668064386 1 0 0 I I #
point $-1 42.059389019440289 28.436136374433801 -11.260508668064386 #
point $-1 42.059389019440289 -28.436136374433801 -11.260508668064386 #
straight-curve $-1 -42.059389019440289 0 11.260508668064386 0 -1 0 I I #
point $-1 -42.059389019440289 28.436136374433801 11.260508668064386 #
point $-1 -42.059389019440289 -28.436136374433801 11.260508668064386 #
straight-curve $-1 42.059389019440289 -28.436136374433801 0 0 0 -1 I I #
straight-curve $-1 42.059389019440289 28.436136374433801 0 0 0 -1 I I #
plane-surface $-1 0 28.436136374433801 0 0 -1 0 0 0 -1 forward_v I I I I #
coedge $-1 $382 $381 $614 $615 forward $145 $-1 #
edge $-1 $385 33.801178637080355 $616 42.059389019440289 $384 $617 forward 7 unknown #
coedge $-1 $390 $389 $382 $535 reversed $391 $-1 #
edge $-1 $618 -42.059389019440289 $536 -33.801178637080355 $534 $619 forward 7 unknown #
vertex $-1 $397 $620 #
straight-curve $-1 -33.801178637080355 0 -11.260508668064386 0 -1 0 I I #
point $-1 -33.801178637080355 -28.436136374433801 -11.260508668064386 #
coedge $-1 $614 $387 $390 $542 forward $379 $-1 #
coedge $-1 $387 $614 $394 $544 reversed $379 $-1 #
straight-curve $-1 -42.059389019440289 0 -6.1140159860611938 0 1 0 I I #
edge $-1 $392 6.1140159860611938 $618 11.260508668064386 $390 $621 forward 7 unknown #
point $-1 -42.059389019440289 28.436136374433801 -6.1140159860611938 #
edge $-1 $395 6.1140159860611938 $616 11.260508668064386 $540 $622 forward 7 unknown #
point $-1 -42.059389019440289 -28.436136374433801 -6.1140159860611938 #
straight-curve $-1 -33.801178637080355 28.436136374433801 -4.3436311635313949 0 0 -1 I I #
plane-surface $-1 42.059389019440289 0 0 -1 0 0 0 0 1 forward_v I I I I #
coedge $-1 $404 $403 $419 $559 reversed $153 $-1 #
edge $-1 $552 -28.436136374433801 $550 28.436136374433801 $403 $623 forward 7 unknown #
vertex $-1 $411 $624 #
straight-curve $-1 27.370842944954923 28.436136374433801 -0.84656477887191439 0 0 1 I I #
vertex $-1 $409 $625 #
straight-curve $-1 17.357557991098801 -28.436136374433801 -4.9584262041059421 1 0 0 I I #
straight-curve $-1 17.357557991098801 28.436136374433801 -4.9584262041059421 -1 0 0 I I #
point $-1 42.059389019440282 -28.436136374433801 -4.9584262041059421 #
point $-1 42.059389019440282 28.436136374433801 -4.9584262041059421 #
straight-curve $-1 27.370842944954923 0 1.572167088618285 0 -1 0 I I #
point $-1 27.370842944954923 28.436136374433801 1.572167088618285 #
edge $-1 $421 -2.4187318674901994 $552 4.1118614252340278 $419 $626 forward 7 unknown #
point $-1 27.370842944954923 -28.436136374433801 1.572167088618285 #
straight-curve $-1 42.059389019440289 -28.436136374433801 0 0 0 -1 I I #
straight-curve $-1 42.059389019440289 28.436136374433801 0 0 0 -1 I I #
edge $-1 $564 20.234966651707424 $567 24.276439831782753 $428 $627 forward 7 unknown #
vertex $-1 $563 $628 #
straight-curve $-1 -21.47826462717703 -28.436136374433801 26.86861729401447 0 0 1 I I #
edge $-1 $567 9.1701022570146318 $439 15.446222483310164 $438 $629 forward 7 unknown #
vertex $-1 $566 $630 #
straight-curve $-1 -21.47826462717703 -28.436136374433801 5.4886866274330188 0 -0.57357642473473569 -0.81915205242281985 I I #
point $-1 -21.47826462717703 -28.436136374433801 5.4886866274330188 #
point $-1 -27.754384853472562 -24.394663194358472 11.260508668064386 #
straight-curve $-1 0 -28.436136374433801 11.260508668064386 1 0 0 I I #
vertex $-1 $445 $631 #
point $-1 -23.116324740324796 -24.126838895726227 6.7721301102157776 #
coedge $-1 $460 $459 $452 $575 forward $449 $-1 #
edge $-1 $576 20.234966651707424 $579 24.276439831782753 $574 $632 forward 7 unknown #
vertex $-1 $575 $633 #
straight-curve $-1 -7.2108266976689697 -28.436136374433801 26.86861729401447 0 0 1 I I #
edge $-1 $579 2.0363832922606013 $461 8.3125035185561345 $460 $634 forward 7 unknown #
vertex $-1 $578 $635 #
straight-curve $-1 -7.2108266976689697 -28.436136374433801 5.4886866274330188 0 -0.57357642473473569 -0.81915205242281985 I I #
point $-1 -7.2108266976689697 -28.436136374433801 5.4886866274330188 #
point $-1 -13.486946923964503 -24.394663194358472 11.260508668064386 #
straight-curve $-1 0 -28.436136374433801 11.260508668064386 1 0 0 I I #
vertex $-1 $467 $636 #
point $-1 -8.8488868108167367 -24.126838895726227 6.7721301102157776 #
coedge $-1 $482 $481 $474 $587 forward $471 $-1 #
edge $-1 $588 20.234966651707424 $591 24.276439831782753 $586 $637 forward 7 unknown #
vertex $-1 $587 $638 #
straight-curve $-1 7.0566112318390859 -28.436136374433801 26.86861729401447 0 0 1 I I #
edge $-1 $591 -5.0973356724934265 $483 1.1787845538021076 $482 $639 forward 7 unknown #
vertex $-1 $590 $640 #
straight-curve $-1 7.0566112318390859 -28.436136374433801 5.4886866274330188 0 -0.57357642473473569 -0.81915205242281985 I I #
point $-1 7.0566112318390859 -28.436136374433801 5.4886866274330188 #
point $-1 0.78049100554355189 -24.394663194358472 11.260508668064386 #
straight-curve $-1 0 -28.436136374433801 11.260508668064386 1 0 0 I I #
vertex $-1 $489 $641 #
point $-1 5.4185511186913189 -24.126838895726227 6.7721301102157776 #
coedge $-1 $504 $503 $496 $599 forward $493 $-1 #
edge $-1 $600 20.234966651707424 $603 24.276439831782753 $598 $642 forward 7 unknown #
vertex $-1 $599 $643 #
straight-curve $-1 21.324049161347141 -28.436136374433801 26.86861729401447 0 0 1 I I #
edge $-1 $603 -12.231054637247453 $505 -5.9549344109519211 $504 $644 forward 7 unknown #
vertex $-1 $602 $645 #
straight-curve $-1 21.324049161347141 -28.436136374433801 5.4886866274330188 0 -0.57357642473473569 -0.81915205242281985 I I #
point $-1 21.324049161347141 -28.436136374433801 5.4886866274330188 #
point $-1 15.047928935051608 -24.394663194358472 11.260508668064386 #
straight-curve $-1 0 -28.436136374433801 11.260508668064386 1 0 0 I I #
vertex $-1 $511 $646 #
point $-1 19.685989048199374 -24.126838895726227 6.7721301102157776 #
straight-curve $-1 -42.059389019440289 28.436136374433801 0 0 0 -1 I I #
point $-1 -42.059389019440289 -28.436136374433801 -11.260508668064386 #
straight-curve $-1 -42.059389019440289 0 -11.260508668064386 0 1 0 I I #
point $-1 -42.059389019440289 28.436136374433801 -11.260508668064386 #
coedge $-1 $540 $539 $532 $615 reversed $379 $-1 #
edge $-1 $616 -28.436136374433801 $618 28.436136374433801 $614 $647 forward 7 unknown #
vertex $-1 $615 $648 #
straight-curve $-1 0 -28.436136374433801 -11.260508668064386 -1 0 0 I I #
vertex $-1 $535 $649 #
straight-curve $-1 0 28.436136374433801 -11.260508668064386 1 0 0 I I #
point $-1 -33.801178637080355 28.436136374433801 -11.260508668064386 #
straight-curve $-1 -42.059389019440289 28.436136374433801 0 0 0 -1 I I #
straight-curve $-1 -42.059389019440289 -28.436136374433801 0 0 0 -1 I I #
straight-curve $-1 27.370842944954923 0 -4.9584262041059421 0 1 0 I I #
point $-1 27.370842944954923 28.436136374433801 -4.9584262041059421 #
point $-1 27.370842944954923 -28.436136374433801 -4.9584262041059421 #
straight-curve $-1 27.370842944954923 -28.436136374433801 -0.84656477887191439 0 0 -1 I I #
straight-curve $-1 -21.47826462717703 -48.671103026141225 11.260508668064386 0 1 0 I I #
point $-1 -21.47826462717703 -28.436136374433801 11.260508668064386 #
straight-curve $-1 -12.308162370162398 -24.394663194358476 11.260508668064386 -1 0 0 I I #
point $-1 -21.47826462717703 -24.394663194358472 11.260508668064386 #
point $-1 -24.616324740324796 -22.898110817092 5.9117654731136744 #
straight-curve $-1 -7.2108266976689697 -48.671103026141225 11.260508668064386 0 1 0 I I #
point $-1 -7.2108266976689697 -28.436136374433801 11.260508668064386 #
straight-curve $-1 -5.1744434054083683 -24.394663194358476 11.260508668064386 -1 0 0 I I #
point $-1 -7.2108266976689697 -24.394663194358472 11.260508668064386 #
point $-1 -10.348886810816737 -22.898110817092 5.9117654731136744 #
straight-curve $-1 7.0566112318390859 -48.671103026141225 11.260508668064386 0 1 0 I I #
point $-1 7.0566112318390859 -28.436136374433801 11.260508668064386 #
straight-curve $-1 1.9592755593456594 -24.394663194358476 11.260508668064386 -1 0 0 I I #
point $-1 7.0566112318390859 -24.394663194358472 11.260508668064386 #
point $-1 3.9185511186913189 -22.898110817092 5.9117654731136744 #
straight-curve $-1 21.324049161347141 -48.671103026141225 11.260508668064386 0 1 0 I I #
point $-1 21.324049161347141 -28.436136374433801 11.260508668064386 #
straight-curve $-1 9.0929945240996872 -24.394663194358476 11.260508668064386 -1 0 0 I I #
point $-1 21.324049161347141 -24.394663194358472 11.260508668064386 #
point $-1 18.185989048199374 -22.898110817092 5.9117654731136744 #
straight-curve $-1 -42.059389019440289 0 -11.260508668064386 0 1 0 I I #
point $-1 -42.059389019440289 -28.436136374433801 -11.260508668064386 #
point $-1 -42.059389019440289 28.436136374433801 -11.260508668064386 #
End-of-ACIS-data 