500 0 5 0           
7 Unknown 11 ACIS 5.0 NT 24 Thu Mar 25 21:31:37 1999 
-1 9.9999999999999995e-007 1e-010 
body $-1 $5 $-1 $6 #
body $-1 $7 $-1 $8 #
body $-1 $9 $-1 $10 #
body $-1 $11 $-1 $12 #
body $-1 $13 $-1 $14 #
lump $-1 $-1 $15 $0 #
transform $-1 1 0 0 0 1 0 0 0 1 62.058778649250769 42.132052742015986 19.84129477407296 1 rotate no_reflect no_shear #
lump $-1 $-1 $16 $1 #
transform $-1 1 0 0 0 1 0 0 0 1 62.058778649250769 42.132052742015986 19.84129477407296 1 rotate no_reflect no_shear #
lump $-1 $-1 $17 $2 #
transform $-1 1 0 0 0 1 0 0 0 1 62.058778649250769 42.132052742015986 19.84129477407296 1 rotate no_reflect no_shear #
lump $-1 $-1 $18 $3 #
transform $-1 1 0 0 0 1 0 0 0 1 62.058778649250769 42.132052742015986 19.84129477407296 1 rotate no_reflect no_shear #
lump $-1 $-1 $19 $4 #
transform $-1 1 0 0 0 1 0 0 0 1 62.058778649250769 42.132052742015986 19.84129477407296 1 rotate no_reflect no_shear #
shell $-1 $-1 $-1 $20 $-1 $5 #
shell $-1 $-1 $-1 $21 $-1 $7 #
shell $-1 $-1 $-1 $22 $-1 $9 #
shell $-1 $-1 $-1 $23 $-1 $11 #
shell $-1 $-1 $-1 $24 $-1 $13 #
face $-1 $25 $26 $15 $-1 $27 forward single #
face $-1 $28 $29 $16 $-1 $30 reversed single #
face $-1 $31 $32 $17 $-1 $33 forward single #
face $-1 $34 $35 $18 $-1 $36 reversed single #
face $-1 $37 $38 $19 $-1 $39 reversed single #
face $-1 $40 $41 $15 $-1 $42 reversed single #
loop $-1 $-1 $43 $20 #
plane-surface $-1 0 0 19.84129477407296 0 0 1 1 0 0 forward_v I I I I #
face $-1 $44 $45 $16 $-1 $46 forward single #
loop $-1 $-1 $47 $21 #
plane-surface $-1 -54.695470519948763 0 19.341294774072953 0 0 1 1 0 0 forward_v I I I I #
face $-1 $48 $49 $17 $-1 $50 forward single #
loop $-1 $-1 $51 $22 #
plane-surface $-1 47.628335134587935 31.215976572247115 154.5669554963965 1 0 0 0 -0.50000000669873634 -0.8660253999169214 forward_v I I I I #
face $-1 $52 $53 $18 $-1 $54 reversed single #
loop $-1 $55 $56 $23 #
cone-surface $-1 51.751318995920187 28.214753507870601 10.631174809058393 0 -0.50000000669873634 -0.8660253999169214 1.5 0 0 1 I I 0 1 1.5 forward I I I I #
face $-1 $57 $58 $19 $-1 $59 reversed single #
loop $-1 $60 $61 $24 #
cone-surface $-1 57.935794787918539 28.214753507870601 10.631174809058393 0 -0.50000000669873634 -0.8660253999169214 1.5 0 0 1 I I 0 1 1.5 forward I I I I #
face $-1 $62 $63 $15 $-1 $64 reversed single #
loop $-1 $-1 $65 $25 #
plane-surface $-1 0 0 -19.84129477407296 0 0 1 1 0 0 forward_v I I I I #
coedge $-1 $66 $67 $68 $69 forward $26 $-1 #
face $-1 $70 $71 $16 $-1 $72 forward single #
loop $-1 $-1 $73 $28 #
plane-surface $-1 -54.695470519948763 0 14.067520162258905 0 0 1 1 0 0 forward_v I I I I #
coedge $-1 $74 $75 $76 $77 reversed $29 $-1 #
face $-1 $78 $79 $17 $-1 $80 forward single #
loop $-1 $-1 $81 $31 #
plane-surface $-1 54.843556891919349 -30.842802908434443 47.0779983002503 0 0.50000000669873634 0.8660253999169214 1 0 0 forward_v I I I I #
coedge $-1 $82 $83 $84 $85 reversed $32 $-1 #
face $-1 $86 $87 $18 $-1 $88 forward single #
loop $-1 $89 $90 $34 #
cone-surface $-1 51.751318995920187 26.822205346265278 8.2192106842569679 0 -0.50000000669873634 -0.8660253999169214 0.75 0 0 1 I I -0.70710678118654757 0.70710678118654757 0.75 forward I I I I #
loop $-1 $-1 $91 $23 #
coedge $-1 $56 $56 $92 $93 reversed $35 $-1 #
face $-1 $94 $95 $19 $-1 $96 reversed single #
loop $-1 $97 $98 $37 #
cone-surface $-1 57.935794787918539 26.822205346265278 8.2192106842569679 0 -0.50000000669873634 -0.8660253999169214 0.75 0 0 1 I I -0.70710678118654757 0.70710678118654757 0.75 forward I I I I #
loop $-1 $-1 $99 $24 #
coedge $-1 $61 $61 $100 $101 reversed $38 $-1 #
face $-1 $102 $103 $15 $-1 $104 reversed single #
loop $-1 $-1 $105 $40 #
plane-surface $-1 0 -42.132052742015986 0 0 1 0 0 0 1 forward_v I I I I #
coedge $-1 $106 $107 $108 $109 forward $41 $-1 #
coedge $-1 $110 $43 $111 $112 forward $26 $-1 #
coedge $-1 $43 $110 $113 $114 forward $26 $-1 #
coedge $-1 $115 $116 $43 $69 reversed $117 $-1 #
edge $-1 $118 -42.132052742015986 $119 42.132052742015986 $68 $120 forward 7 unknown #
face $-1 $121 $122 $16 $-1 $123 reversed single #
loop $-1 $-1 $124 $44 #
plane-surface $-1 -47.332162390646758 0 16.704407468165929 -1 0 0 0 0 1 forward_v I I I I #
coedge $-1 $125 $126 $127 $128 reversed $45 $-1 #
coedge $-1 $129 $47 $130 $131 reversed $29 $-1 #
coedge $-1 $47 $129 $132 $133 reversed $29 $-1 #
coedge $-1 $134 $124 $47 $77 forward $71 $-1 #
edge $-1 $135 -42.132052742015986 $136 42.132052742015986 $76 $137 forward 7 unknown #
face $-1 $138 $139 $17 $-1 $140 reversed single #
loop $-1 $-1 $141 $48 #
plane-surface $-1 0 0 19.84129477407296 0 0 1 1 0 0 forward_v I I I I #
coedge $-1 $142 $143 $141 $144 reversed $49 $-1 #
coedge $-1 $83 $51 $143 $145 forward $32 $-1 #
coedge $-1 $51 $82 $146 $147 reversed $32 $-1 #
coedge $-1 $148 $141 $51 $85 forward $79 $-1 #
edge $-1 $149 0.72456230076419814 $150 26.524064455892429 $84 $151 forward 7 unknown #
face $-1 $152 $153 $18 $-1 $154 forward single #
loop $-1 $-1 $155 $52 #
plane-surface $-1 47.628335134587935 31.215976572247115 154.5669554963965 1 0 0 0 -0.50000000669873634 -0.8660253999169214 forward_v I I I I #
loop $-1 $-1 $156 $34 #
coedge $-1 $90 $90 $91 $157 forward $53 $-1 #
coedge $-1 $91 $91 $90 $157 reversed $55 $-1 #
coedge $-1 $92 $92 $56 $93 forward $153 $-1 #
edge $-1 $158 -1.4590412352493665e-015 $158 6.2831853071795987 $92 $159 forward 7 unknown #
face $-1 $160 $161 $19 $-1 $162 reversed single #
loop $-1 $163 $164 $57 #
cone-surface $-1 51.751318995920187 28.214753507870601 10.631174809058393 0 -0.50000000669873634 -0.8660253999169214 1.5 0 0 1 I I 0 1 1.5 forward I I I I #
loop $-1 $-1 $165 $37 #
coedge $-1 $98 $98 $99 $166 forward $58 $-1 #
coedge $-1 $99 $99 $98 $166 reversed $60 $-1 #
coedge $-1 $100 $100 $61 $101 forward $167 $-1 #
edge $-1 $168 -1.4590412352493665e-015 $168 6.2831853071795987 $100 $169 forward 7 unknown #
face $-1 $170 $171 $15 $-1 $172 reversed single #
loop $-1 $-1 $173 $62 #
plane-surface $-1 -62.058778649250769 0 0 1 0 0 0 0 -1 forward_v I I I I #
coedge $-1 $174 $113 $175 $176 forward $63 $-1 #
coedge $-1 $177 $65 $174 $178 forward $41 $-1 #
coedge $-1 $65 $177 $179 $180 forward $41 $-1 #
coedge $-1 $116 $115 $65 $109 reversed $117 $-1 #
edge $-1 $181 -42.132052742015986 $182 42.132052742015986 $108 $183 forward 7 unknown #
coedge $-1 $67 $66 $184 $185 forward $26 $-1 #
coedge $-1 $186 $187 $66 $112 reversed $171 $-1 #
edge $-1 $119 -62.058778649250769 $188 62.058778649250769 $111 $189 forward 7 unknown #
coedge $-1 $105 $190 $67 $114 reversed $63 $-1 #
edge $-1 $191 -62.058778649250769 $118 62.058778649250769 $113 $192 forward 7 unknown #
coedge $-1 $108 $68 $190 $193 forward $117 $-1 #
coedge $-1 $68 $108 $186 $194 reversed $117 $-1 #
loop $-1 $-1 $115 $170 #
vertex $-1 $69 $195 #
vertex $-1 $69 $196 #
straight-curve $-1 62.058778649250769 0 19.84129477407296 0 1 0 I I #
face $-1 $197 $198 $16 $-1 $123 reversed single #
loop $-1 $-1 $199 $70 #
plane-surface $-1 -62.058778649250769 0 0 1 0 0 0 0 -1 forward_v I I I I #
coedge $-1 $76 $127 $200 $201 reversed $71 $-1 #
coedge $-1 $202 $73 $203 $204 reversed $45 $-1 #
coedge $-1 $73 $202 $205 $206 reversed $45 $-1 #
coedge $-1 $124 $134 $73 $128 forward $71 $-1 #
edge $-1 $207 -42.132052742015986 $208 42.132052742015986 $127 $209 forward 7 unknown #
coedge $-1 $75 $74 $210 $211 reversed $29 $-1 #
coedge $-1 $200 $212 $74 $131 forward $213 $-1 #
edge $-1 $214 -34.711043389276384 $135 -19.984427130672376 $130 $215 forward 7 unknown #
coedge $-1 $216 $217 $75 $133 forward $218 $-1 #
edge $-1 $136 19.984427130672376 $219 34.711043389276384 $132 $220 forward 7 unknown #
coedge $-1 $127 $76 $217 $221 reversed $71 $-1 #
vertex $-1 $131 $222 #
vertex $-1 $133 $223 #
straight-curve $-1 -47.332162390646758 0 19.341294774072953 0 1 0 I I #
face $-1 $224 $225 $17 $-1 $226 reversed single #
loop $-1 $-1 $146 $78 #
plane-surface $-1 0 42.132052742015986 0 0 -1 0 0 0 -1 forward_v I I I I #
coedge $-1 $84 $227 $81 $144 forward $79 $-1 #
coedge $-1 $228 $81 $229 $230 reversed $49 $-1 #
coedge $-1 $81 $228 $82 $145 reversed $49 $-1 #
edge $-1 $231 -34.637000203291088 $149 -20.206556688628261 $141 $232 forward 7 unknown #
edge $-1 $149 54.473406322548712 $233 84.264105484031958 $82 $234 forward 7 unknown #
coedge $-1 $235 $236 $83 $147 forward $139 $-1 #
edge $-1 $150 57.442182974125288 $233 72.33753275442696 $146 $237 forward 7 unknown #
coedge $-1 $238 $84 $236 $239 forward $79 $-1 #
vertex $-1 $144 $240 #
vertex $-1 $239 $241 #
straight-curve $-1 47.628335134587935 15.607988286123557 19.841294774072963 0 1 0 I I #
face $-1 $242 $243 $18 $-1 $244 forward single #
loop $-1 $245 $92 $86 #
plane-surface $-1 54.843556891919349 -30.842802908434443 47.0779983002503 0 0.50000000669873634 0.8660253999169214 1 0 0 forward_v I I I I #
coedge $-1 $246 $247 $248 $249 reversed $87 $-1 #
coedge $-1 $156 $156 $-1 $250 forward $89 $-1 #
edge $-1 $251 0 $251 6.2831853071796004 $90 $252 forward 7 unknown #
vertex $-1 $93 $253 #
ellipse-curve $-1 51.751318995920187 29.232301664451871 12.393619883922124 0 -0.50000000669873634 -0.8660253999169214 1.5 0 0 1 I I #
face $-1 $254 $255 $19 $-1 $256 forward single #
loop $-1 $257 $258 $94 #
cone-surface $-1 51.751318995920187 26.822205346265278 8.2192106842569679 0 -0.50000000669873634 -0.8660253999169214 0.75 0 0 1 I I -0.70710678118654757 0.70710678118654757 0.75 forward I I I I #
loop $-1 $-1 $259 $57 #
coedge $-1 $164 $164 $260 $261 reversed $95 $-1 #
coedge $-1 $165 $165 $-1 $262 forward $97 $-1 #
edge $-1 $263 0 $263 6.2831853071796004 $98 $264 forward 7 unknown #
loop $-1 $265 $100 $254 #
vertex $-1 $101 $266 #
ellipse-curve $-1 57.935794787918539 29.232301664451871 12.393619883922124 0 -0.50000000669873634 -0.8660253999169214 1.5 0 0 1 I I #
face $-1 $-1 $117 $15 $-1 $267 reversed single #
loop $-1 $-1 $186 $102 #
plane-surface $-1 0 42.132052742015986 0 0 -1 0 0 0 -1 forward_v I I I I #
coedge $-1 $268 $184 $187 $269 forward $103 $-1 #
coedge $-1 $190 $105 $106 $178 reversed $63 $-1 #
coedge $-1 $184 $268 $105 $176 reversed $103 $-1 #
edge $-1 $191 -19.84129477407296 $270 19.84129477407296 $175 $271 forward 7 unknown #
coedge $-1 $107 $106 $268 $272 forward $41 $-1 #
edge $-1 $182 -62.058778649250769 $270 62.058778649250769 $174 $273 forward 7 unknown #
coedge $-1 $187 $186 $107 $180 reversed $171 $-1 #
edge $-1 $274 -62.058778649250769 $181 62.058778649250769 $179 $275 forward 7 unknown #
vertex $-1 $109 $276 #
vertex $-1 $193 $277 #
straight-curve $-1 62.058778649250769 0 -19.84129477407296 0 -1 0 I I #
coedge $-1 $173 $175 $110 $185 reversed $103 $-1 #
edge $-1 $188 -42.132052742015986 $191 42.132052742015986 $184 $278 forward 7 unknown #
coedge $-1 $179 $111 $116 $194 forward $171 $-1 #
coedge $-1 $111 $179 $173 $269 reversed $171 $-1 #
vertex $-1 $112 $279 #
straight-curve $-1 0 42.132052742015986 19.84129477407296 -1 0 0 I I #
coedge $-1 $113 $174 $115 $193 reversed $63 $-1 #
vertex $-1 $185 $280 #
straight-curve $-1 0 -42.132052742015986 19.84129477407296 1 0 0 I I #
edge $-1 $118 -19.84129477407296 $182 19.84129477407296 $115 $281 forward 7 unknown #
edge $-1 $119 -19.84129477407296 $181 19.84129477407296 $116 $282 forward 7 unknown #
point $-1 62.058778649250769 -42.132052742015986 19.84129477407296 #
point $-1 62.058778649250769 42.132052742015986 19.84129477407296 #
face $-1 $283 $213 $16 $-1 $284 reversed single #
loop $-1 $-1 $210 $121 #
coedge $-1 $285 $286 $202 $287 forward $122 $-1 #
coedge $-1 $205 $130 $124 $201 forward $213 $-1 #
edge $-1 $135 -10.989091039989988 $208 -5.7153164281759405 $200 $288 forward 7 unknown #
coedge $-1 $126 $125 $199 $287 reversed $45 $-1 #
coedge $-1 $217 $289 $125 $204 forward $218 $-1 #
edge $-1 $290 -34.711043389276384 $207 -19.984427130672376 $203 $291 forward 7 unknown #
coedge $-1 $292 $200 $126 $206 forward $213 $-1 #
edge $-1 $208 19.984427130672376 $293 34.711043389276384 $205 $294 forward 7 unknown #
vertex $-1 $204 $295 #
vertex $-1 $206 $296 #
straight-curve $-1 -47.332162390646758 0 14.067520162258905 0 -1 0 I I #
coedge $-1 $297 $298 $129 $211 forward $198 $-1 #
edge $-1 $219 -42.132052742015986 $214 42.132052742015986 $210 $299 forward 7 unknown #
coedge $-1 $130 $300 $297 $301 forward $213 $-1 #
loop $-1 $-1 $130 $197 #
vertex $-1 $131 $302 #
straight-curve $-1 -27.347735259974382 -42.132052742015986 19.341294774072953 1 0 0 I I #
coedge $-1 $303 $132 $298 $304 reversed $218 $-1 #
coedge $-1 $132 $203 $134 $221 forward $218 $-1 #
loop $-1 $-1 $132 $305 #
vertex $-1 $211 $306 #
straight-curve $-1 -27.347735259974382 42.132052742015986 19.341294774072953 -1 0 0 I I #
edge $-1 $207 5.7153164281759405 $136 10.989091039989988 $217 $307 forward 7 unknown #
point $-1 -47.332162390646758 -42.132052742015986 19.341294774072953 #
point $-1 -47.332162390646758 42.132052742015986 19.341294774072953 #
face $-1 $308 $309 $17 $-1 $310 forward single #
loop $-1 $-1 $311 $138 #
plane-surface $-1 -54.695470519948763 0 19.341294774072953 0 0 1 1 0 0 forward_v I I I I #
coedge $-1 $141 $312 $313 $314 forward $79 $-1 #
coedge $-1 $143 $142 $235 $315 reversed $49 $-1 #
coedge $-1 $313 $316 $142 $230 forward $317 $-1 #
edge $-1 $318 -59.139280389619977 $231 -29.348581228136723 $229 $319 forward 7 unknown #
vertex $-1 $230 $320 #
straight-curve $-1 27.421778445959674 16.332550586887759 19.84129477407296 -1 0 0 I I #
vertex $-1 $315 $321 #
straight-curve $-1 47.628335134587935 -30.842802908434443 47.0779983002503 0 0.8660253999169214 -0.50000000669873634 I I #
coedge $-1 $322 $146 $228 $315 forward $139 $-1 #
coedge $-1 $146 $323 $148 $239 reversed $139 $-1 #
straight-curve $-1 47.628335134587935 42.132052742015986 77.283477748198251 0 0 -1 I I #
coedge $-1 $312 $148 $324 $325 forward $79 $-1 #
edge $-1 $150 -47.628335134587935 $326 62.058778649250769 $236 $327 forward 7 unknown #
point $-1 47.628335134587935 16.332550586887756 19.84129477407296 #
point $-1 47.628335134587935 42.132052742015986 19.84129477407296 #
face $-1 $328 $329 $18 $-1 $330 reversed single #
loop $-1 $-1 $331 $152 #
plane-surface $-1 0 0 19.84129477407296 0 0 1 1 0 0 forward_v I I I I #
loop $-1 $-1 $332 $86 #
coedge $-1 $247 $155 $333 $334 forward $87 $-1 #
coedge $-1 $155 $246 $335 $336 reversed $87 $-1 #
coedge $-1 $337 $331 $155 $249 forward $243 $-1 #
edge $-1 $338 0.72456230076419814 $339 26.524064455892429 $248 $340 forward 7 unknown #
edge $-1 $341 1 $341 0 $156 $-1 forward 7 unknown #
vertex $-1 $157 $342 #
ellipse-curve $-1 51.751318995920187 27.19720535128933 8.8687297341946589 0 0.50000000669873634 0.8660253999169214 1.5 0 0 1 I I #
point $-1 53.251318995920187 29.232301664451875 12.393619883922126 #
face $-1 $343 $167 $19 $-1 $344 forward single #
loop $-1 $-1 $345 $160 #
plane-surface $-1 47.628335134587935 31.215976572247115 154.5669554963965 1 0 0 0 -0.50000000669873634 -0.8660253999169214 forward_v I I I I #
loop $-1 $-1 $346 $94 #
coedge $-1 $258 $258 $259 $347 forward $161 $-1 #
coedge $-1 $259 $259 $258 $347 reversed $163 $-1 #
coedge $-1 $260 $260 $164 $261 forward $265 $-1 #
edge $-1 $348 -1.4590412352493665e-015 $348 6.2831853071795987 $260 $349 forward 7 unknown #
edge $-1 $350 1 $350 0 $165 $-1 forward 7 unknown #
vertex $-1 $166 $351 #
ellipse-curve $-1 57.935794787918539 27.19720535128933 8.8687297341946589 0 0.50000000669873634 0.8660253999169214 1.5 0 0 1 I I #
loop $-1 $352 $260 $254 #
point $-1 59.435794787918539 29.232301664451875 12.393619883922126 #
plane-surface $-1 62.058778649250769 0 0 -1 0 0 0 0 1 forward_v I I I I #
coedge $-1 $175 $173 $177 $272 reversed $103 $-1 #
edge $-1 $188 -19.84129477407296 $274 19.84129477407296 $187 $353 forward 7 unknown #
vertex $-1 $272 $354 #
straight-curve $-1 -62.058778649250769 -42.132052742015986 0 0 0 -1 I I #
edge $-1 $270 -42.132052742015986 $274 42.132052742015986 $268 $355 forward 7 unknown #
straight-curve $-1 0 -42.132052742015986 -19.84129477407296 -1 0 0 I I #
vertex $-1 $180 $356 #
straight-curve $-1 0 42.132052742015986 -19.84129477407296 1 0 0 I I #
point $-1 62.058778649250769 42.132052742015986 -19.84129477407296 #
point $-1 62.058778649250769 -42.132052742015986 -19.84129477407296 #
straight-curve $-1 -62.058778649250769 0 19.84129477407296 0 -1 0 I I #
point $-1 -62.058778649250769 42.132052742015986 19.84129477407296 #
point $-1 -62.058778649250769 -42.132052742015986 19.84129477407296 #
straight-curve $-1 62.058778649250769 -42.132052742015986 0 0 0 -1 I I #
straight-curve $-1 62.058778649250769 42.132052742015986 0 0 0 -1 I I #
face $-1 $357 $358 $16 $-1 $359 forward single #
plane-surface $-1 0 -42.132052742015986 0 0 1 0 0 0 1 forward_v I I I I #
coedge $-1 $360 $199 $289 $361 forward $122 $-1 #
coedge $-1 $199 $360 $292 $362 reversed $122 $-1 #
edge $-1 $293 -42.132052742015986 $290 42.132052742015986 $199 $363 forward 7 unknown #
straight-curve $-1 -47.332162390646758 -42.132052742015986 8.3522037340829645 0 0 -1 I I #
coedge $-1 $203 $364 $285 $361 reversed $218 $-1 #
vertex $-1 $361 $365 #
straight-curve $-1 -27.347735259974382 42.132052742015986 14.067520162258905 1 0 0 I I #
coedge $-1 $366 $205 $286 $362 forward $213 $-1 #
vertex $-1 $362 $367 #
straight-curve $-1 -27.347735259974382 -42.132052742015986 14.067520162258905 -1 0 0 I I #
point $-1 -47.332162390646758 42.132052742015986 14.067520162258905 #
point $-1 -47.332162390646758 -42.132052742015986 14.067520162258905 #
coedge $-1 $368 $210 $212 $301 reversed $198 $-1 #
coedge $-1 $210 $368 $216 $304 forward $198 $-1 #
straight-curve $-1 -62.058778649250769 0 19.341294774072953 0 -1 0 I I #
coedge $-1 $212 $369 $370 $371 reversed $213 $-1 #
edge $-1 $372 -19.84129477407296 $214 -19.341294774072953 $297 $373 forward 7 unknown #
point $-1 -62.058778649250769 -42.132052742015986 19.341294774072953 #
coedge $-1 $374 $216 $375 $376 reversed $218 $-1 #
edge $-1 $377 -19.84129477407296 $219 -19.341294774072953 $216 $378 forward 7 unknown #
face $-1 $379 $218 $16 $-1 $380 reversed single #
point $-1 -62.058778649250769 42.132052742015986 19.341294774072953 #
straight-curve $-1 -47.332162390646758 42.132052742015986 8.3522037340829645 0 0 1 I I #
face $-1 $381 $382 $17 $-1 $383 forward single #
loop $-1 $-1 $384 $224 #
plane-surface $-1 -54.695470519948763 0 14.067520162258905 0 0 1 1 0 0 forward_v I I I I #
coedge $-1 $385 $386 $387 $388 reversed $225 $-1 #
coedge $-1 $227 $238 $389 $390 forward $79 $-1 #
coedge $-1 $391 $229 $227 $314 reversed $317 $-1 #
edge $-1 $392 -42.132052742015986 $231 16.332550586887756 $313 $393 forward 7 unknown #
edge $-1 $233 20.206556688628261 $318 34.637000203291088 $235 $394 forward 7 unknown #
coedge $-1 $229 $395 $322 $396 reversed $317 $-1 #
loop $-1 $-1 $229 $397 #
vertex $-1 $396 $398 #
straight-curve $-1 62.058778649250769 -9.0840662082036019 34.515585584739725 0 -0.8660253999169214 0.50000000669873634 I I #
point $-1 62.058778649250762 16.332550586887756 19.84129477407296 #
point $-1 47.628335134587935 42.132052742015979 4.9459449937712918 #
coedge $-1 $399 $235 $316 $396 forward $139 $-1 #
coedge $-1 $236 $400 $401 $402 reversed $139 $-1 #
coedge $-1 $401 $403 $238 $325 reversed $404 $-1 #
edge $-1 $326 -42.132052742015986 $405 42.132052742015986 $324 $406 forward 7 unknown #
vertex $-1 $239 $407 #
straight-curve $-1 0 42.132052742015986 19.84129477407296 -1 0 0 I I #
face $-1 $408 $409 $18 $-1 $410 reversed single #
loop $-1 $-1 $335 $242 #
plane-surface $-1 0 42.132052742015986 0 0 -1 0 0 0 -1 forward_v I I I I #
coedge $-1 $248 $411 $332 $412 forward $243 $-1 #
coedge $-1 $413 $333 $331 $412 reversed $245 $-1 #
coedge $-1 $332 $414 $246 $334 reversed $245 $-1 #
edge $-1 $338 54.473406322548712 $415 84.264105484031958 $246 $416 forward 7 unknown #
coedge $-1 $417 $418 $247 $336 forward $329 $-1 #
edge $-1 $339 57.442182974125288 $415 72.33753275442696 $335 $419 forward 7 unknown #
coedge $-1 $420 $248 $418 $421 forward $243 $-1 #
vertex $-1 $412 $422 #
vertex $-1 $421 $423 #
straight-curve $-1 47.628335134587935 15.607988286123557 19.841294774072963 0 1 0 I I #
vertex $-1 $250 $424 #
point $-1 53.251318995920187 27.19720535128933 8.8687297341946589 #
face $-1 $425 $426 $19 $-1 $427 forward single #
plane-surface $-1 54.843556891919349 -30.842802908434443 47.0779983002503 0 0.50000000669873634 0.8660253999169214 1 0 0 forward_v I I I I #
coedge $-1 $428 $429 $430 $431 reversed $255 $-1 #
coedge $-1 $346 $346 $-1 $432 forward $257 $-1 #
edge $-1 $433 0 $433 6.2831853071796004 $258 $434 forward 7 unknown #
vertex $-1 $261 $435 #
ellipse-curve $-1 51.751318995920187 29.232301664451871 12.393619883922124 0 -0.50000000669873634 -0.8660253999169214 1.5 0 0 1 I I #
vertex $-1 $262 $436 #
point $-1 59.435794787918539 27.19720535128933 8.8687297341946589 #
loop $-1 $-1 $437 $254 #
straight-curve $-1 -62.058778649250769 42.132052742015986 0 0 0 -1 I I #
point $-1 -62.058778649250769 -42.132052742015986 -19.84129477407296 #
straight-curve $-1 -62.058778649250769 0 -19.84129477407296 0 1 0 I I #
point $-1 -62.058778649250769 42.132052742015986 -19.84129477407296 #
face $-1 $305 $438 $16 $-1 $439 reversed single #
loop $-1 $-1 $440 $283 #
plane-surface $-1 0 0 19.84129477407296 0 0 1 1 0 0 forward_v I I I I #
coedge $-1 $286 $285 $441 $442 reversed $122 $-1 #
edge $-1 $290 -14.067520162258905 $443 19.84129477407296 $289 $378 forward 7 unknown #
edge $-1 $293 -14.067520162258905 $444 19.84129477407296 $286 $373 forward 7 unknown #
straight-curve $-1 -62.058778649250769 0 14.067520162258905 0 1 0 I I #
coedge $-1 $289 $374 $445 $446 reversed $218 $-1 #
point $-1 -62.058778649250769 42.132052742015986 14.067520162258905 #
coedge $-1 $369 $292 $447 $448 reversed $213 $-1 #
point $-1 -62.058778649250769 -42.132052742015986 14.067520162258905 #
coedge $-1 $298 $297 $449 $450 reversed $198 $-1 #
coedge $-1 $300 $366 $451 $452 reversed $213 $-1 #
coedge $-1 $440 $449 $300 $371 forward $358 $-1 #
edge $-1 $372 -62.058778649250769 $453 62.058778649250769 $300 $454 forward 7 unknown #
vertex $-1 $450 $455 #
straight-curve $-1 -62.058778649250769 -42.132052742015986 0 0 0 -1 I I #
coedge $-1 $364 $303 $456 $457 forward $218 $-1 #
coedge $-1 $449 $440 $303 $376 forward $358 $-1 #
edge $-1 $458 -62.058778649250769 $377 62.058778649250769 $303 $459 forward 7 unknown #
vertex $-1 $376 $460 #
straight-curve $-1 -62.058778649250769 42.132052742015986 0 0 0 -1 I I #
face $-1 $-1 $461 $16 $-1 $462 reversed single #
plane-surface $-1 0 42.132052742015986 0 0 -1 0 0 0 -1 forward_v I I I I #
face $-1 $463 $464 $17 $-1 $465 reversed single #
loop $-1 $-1 $466 $308 #
plane-surface $-1 -47.332162390646758 0 16.704407468165929 -1 0 0 0 0 1 forward_v I I I I #
coedge $-1 $467 $468 $469 $470 reversed $309 $-1 #
coedge $-1 $471 $311 $472 $473 reversed $225 $-1 #
coedge $-1 $311 $471 $400 $474 reversed $225 $-1 #
coedge $-1 $475 $466 $311 $388 forward $382 $-1 #
edge $-1 $476 -42.132052742015986 $477 42.132052742015986 $387 $478 forward 7 unknown #
coedge $-1 $479 $480 $312 $390 reversed $481 $-1 #
edge $-1 $405 -62.058778649250769 $392 62.058778649250769 $389 $482 forward 7 unknown #
coedge $-1 $395 $313 $480 $483 forward $317 $-1 #
vertex $-1 $314 $484 #
straight-curve $-1 62.058778649250769 0 19.84129477407296 0 1 0 I I #
straight-curve $-1 27.421778445959674 42.132052742015986 4.9459449937712989 1 0 0 I I #
coedge $-1 $316 $391 $485 $486 reversed $317 $-1 #
edge $-1 $318 -4.9459449937712918 $487 19.84129477407296 $316 $488 forward 7 unknown #
face $-1 $-1 $317 $17 $-1 $489 reversed single #
point $-1 62.058778649250762 42.132052742015979 4.9459449937712918 #
coedge $-1 $490 $322 $491 $492 reversed $139 $-1 #
coedge $-1 $323 $493 $386 $474 forward $139 $-1 #
coedge $-1 $494 $324 $323 $402 forward $404 $-1 #
edge $-1 $326 -19.84129477407296 $495 -19.341294774072953 $323 $496 forward 7 unknown #
coedge $-1 $324 $494 $479 $497 reversed $404 $-1 #
loop $-1 $-1 $494 $463 #
vertex $-1 $325 $498 #
straight-curve $-1 -62.058778649250769 0 19.84129477407296 0 -1 0 I I #
point $-1 -62.058778649250769 42.132052742015986 19.84129477407296 #
face $-1 $499 $500 $18 $-1 $501 forward single #
loop $-1 $-1 $502 $328 #
plane-surface $-1 -54.695470519948763 0 19.341294774072953 0 0 1 1 0 0 forward_v I I I I #
coedge $-1 $331 $503 $504 $505 forward $243 $-1 #
edge $-1 $506 -34.637000203291088 $338 -20.206556688628261 $331 $507 forward 7 unknown #
coedge $-1 $414 $332 $508 $509 reversed $245 $-1 #
coedge $-1 $333 $413 $417 $510 reversed $245 $-1 #
vertex $-1 $510 $511 #
straight-curve $-1 47.628335134587935 -30.842802908434443 47.0779983002503 0 0.8660253999169214 -0.50000000669873634 I I #
coedge $-1 $512 $335 $414 $510 forward $329 $-1 #
coedge $-1 $335 $513 $337 $421 reversed $329 $-1 #
straight-curve $-1 47.628335134587935 42.132052742015986 77.283477748198251 0 0 -1 I I #
coedge $-1 $503 $337 $514 $515 forward $243 $-1 #
edge $-1 $339 -47.628335134587935 $516 62.058778649250769 $418 $517 forward 7 unknown #
point $-1 47.628335134587935 16.332550586887756 19.84129477407296 #
point $-1 47.628335134587935 42.132052742015986 19.84129477407296 #
point $-1 51.751318995920187 26.447205341241226 7.5696916343192768 #
face $-1 $518 $519 $19 $-1 $520 reversed single #
loop $-1 $-1 $521 $343 #
plane-surface $-1 0 0 19.84129477407296 0 0 1 1 0 0 forward_v I I I I #
coedge $-1 $429 $345 $522 $523 forward $255 $-1 #
coedge $-1 $345 $428 $524 $525 reversed $255 $-1 #
coedge $-1 $526 $521 $345 $431 forward $426 $-1 #
edge $-1 $527 0.72456230076419814 $528 26.524064455892429 $430 $529 forward 7 unknown #
edge $-1 $530 1 $530 0 $346 $-1 forward 7 unknown #
vertex $-1 $347 $531 #
ellipse-curve $-1 51.751318995920187 27.19720535128933 8.8687297341946589 0 0.50000000669873634 0.8660253999169214 1.5 0 0 1 I I #
point $-1 53.251318995920187 29.232301664451875 12.393619883922126 #
point $-1 57.935794787918539 26.447205341241226 7.5696916343192768 #
coedge $-1 $532 $522 $521 $533 reversed $352 $-1 #
loop $-1 $-1 $534 $357 #
plane-surface $-1 0 0 -19.84129477407296 0 0 1 1 0 0 forward_v I I I I #
coedge $-1 $375 $370 $535 $536 forward $358 $-1 #
coedge $-1 $445 $447 $360 $442 forward $438 $-1 #
edge $-1 $444 -42.132052742015986 $443 42.132052742015986 $360 $537 forward 7 unknown #
vertex $-1 $446 $538 #
vertex $-1 $442 $539 #
coedge $-1 $534 $441 $364 $446 forward $438 $-1 #
edge $-1 $443 -62.058778649250769 $540 62.058778649250769 $364 $541 forward 7 unknown #
coedge $-1 $441 $534 $366 $448 forward $438 $-1 #
edge $-1 $542 -62.058778649250769 $444 62.058778649250769 $366 $543 forward 7 unknown #
coedge $-1 $370 $375 $368 $450 forward $358 $-1 #
edge $-1 $377 -42.132052742015986 $372 42.132052742015986 $368 $544 forward 7 unknown #
coedge $-1 $545 $535 $369 $452 forward $461 $-1 #
edge $-1 $453 -19.84129477407296 $542 19.84129477407296 $451 $546 forward 7 unknown #
vertex $-1 $536 $547 #
straight-curve $-1 0 -42.132052742015986 19.84129477407296 1 0 0 I I #
point $-1 -62.058778649250769 -42.132052742015986 19.84129477407296 #
coedge $-1 $535 $545 $374 $457 reversed $461 $-1 #
edge $-1 $458 -19.84129477407296 $540 19.84129477407296 $456 $548 forward 7 unknown #
vertex $-1 $536 $549 #
straight-curve $-1 0 42.132052742015986 19.84129477407296 -1 0 0 I I #
point $-1 -62.058778649250769 42.132052742015986 19.84129477407296 #
loop $-1 $-1 $451 $379 #
plane-surface $-1 62.058778649250769 0 0 -1 0 0 0 0 1 forward_v I I I I #
face $-1 $550 $404 $17 $-1 $465 reversed single #
loop $-1 $-1 $551 $381 #
plane-surface $-1 -62.058778649250769 0 0 1 0 0 0 0 -1 forward_v I I I I #
coedge $-1 $387 $469 $552 $553 reversed $382 $-1 #
coedge $-1 $554 $384 $555 $556 reversed $309 $-1 #
coedge $-1 $384 $554 $557 $558 reversed $309 $-1 #
coedge $-1 $466 $475 $384 $470 forward $382 $-1 #
edge $-1 $559 -42.132052742015986 $560 42.132052742015986 $469 $561 forward 7 unknown #
coedge $-1 $386 $385 $494 $562 reversed $225 $-1 #
coedge $-1 $552 $479 $385 $473 forward $481 $-1 #
edge $-1 $563 -34.711043389276384 $476 -19.984427130672376 $472 $564 forward 7 unknown #
edge $-1 $477 19.984427130672376 $495 34.711043389276384 $400 $565 forward 7 unknown #
coedge $-1 $469 $387 $493 $566 reversed $382 $-1 #
vertex $-1 $473 $567 #
vertex $-1 $474 $568 #
straight-curve $-1 -47.332162390646758 0 19.341294774072953 0 1 0 I I #
coedge $-1 $472 $389 $403 $497 forward $481 $-1 #
coedge $-1 $389 $569 $391 $483 reversed $481 $-1 #
loop $-1 $-1 $472 $550 #
straight-curve $-1 0 -42.132052742015986 19.84129477407296 1 0 0 I I #
edge $-1 $392 -19.84129477407296 $570 19.84129477407296 $391 $571 forward 7 unknown #
point $-1 62.058778649250769 -42.132052742015986 19.84129477407296 #
coedge $-1 $572 $491 $395 $486 forward $573 $-1 #
edge $-1 $487 -42.132052742015986 $570 42.132052742015986 $395 $574 forward 7 unknown #
vertex $-1 $486 $575 #
straight-curve $-1 62.058778649250769 42.132052742015986 0 0 0 -1 I I #
plane-surface $-1 62.058778649250769 0 0 -1 0 0 0 0 1 forward_v I I I I #
coedge $-1 $555 $399 $576 $577 reversed $139 $-1 #
coedge $-1 $485 $578 $399 $492 forward $573 $-1 #
edge $-1 $579 -62.058778649250769 $487 62.058778649250769 $399 $580 forward 7 unknown #
coedge $-1 $400 $555 $475 $566 forward $139 $-1 #
coedge $-1 $403 $401 $471 $562 forward $404 $-1 #
vertex $-1 $562 $581 #
straight-curve $-1 -62.058778649250769 42.132052742015986 0 0 0 -1 I I #
edge $-1 $405 -19.84129477407296 $563 -19.341294774072953 $403 $582 forward 7 unknown #
point $-1 -62.058778649250769 -42.132052742015986 19.84129477407296 #
face $-1 $583 $584 $18 $-1 $585 forward single #
loop $-1 $-1 $586 $408 #
plane-surface $-1 -54.695470519948763 0 14.067520162258905 0 0 1 1 0 0 forward_v I I I I #
coedge $-1 $587 $588 $589 $590 reversed $409 $-1 #
coedge $-1 $411 $420 $591 $592 forward $243 $-1 #
coedge $-1 $593 $508 $411 $505 reversed $594 $-1 #
edge $-1 $595 -42.132052742015986 $506 16.332550586887756 $504 $596 forward 7 unknown #
vertex $-1 $509 $597 #
straight-curve $-1 27.421778445959674 16.332550586887759 19.84129477407296 -1 0 0 I I #
coedge $-1 $504 $598 $413 $509 forward $594 $-1 #
edge $-1 $599 -59.139280389619977 $506 -29.348581228136723 $508 $600 forward 7 unknown #
edge $-1 $415 20.206556688628261 $599 34.637000203291088 $417 $601 forward 7 unknown #
point $-1 47.628335134587935 42.132052742015979 4.9459449937712918 #
coedge $-1 $602 $417 $598 $603 forward $329 $-1 #
coedge $-1 $418 $604 $605 $606 reversed $329 $-1 #
coedge $-1 $605 $607 $420 $515 reversed $608 $-1 #
edge $-1 $516 -42.132052742015986 $609 42.132052742015986 $514 $610 forward 7 unknown #
vertex $-1 $421 $611 #
straight-curve $-1 0 42.132052742015986 19.84129477407296 -1 0 0 I I #
face $-1 $612 $613 $19 $-1 $614 reversed single #
loop $-1 $-1 $524 $425 #
plane-surface $-1 0 42.132052742015986 0 0 -1 0 0 0 -1 forward_v I I I I #
coedge $-1 $430 $615 $437 $533 forward $426 $-1 #
coedge $-1 $437 $616 $428 $523 reversed $352 $-1 #
edge $-1 $527 54.473406322548712 $617 84.264105484031958 $428 $618 forward 7 unknown #
coedge $-1 $619 $620 $429 $525 forward $519 $-1 #
edge $-1 $528 57.442182974125288 $617 72.33753275442696 $524 $621 forward 7 unknown #
coedge $-1 $622 $430 $620 $623 forward $426 $-1 #
vertex $-1 $533 $624 #
vertex $-1 $623 $625 #
straight-curve $-1 47.628335134587935 15.607988286123557 19.841294774072963 0 1 0 I I #
vertex $-1 $432 $626 #
point $-1 53.251318995920187 27.19720535128933 8.8687297341946589 #
coedge $-1 $616 $437 $627 $628 reversed $352 $-1 #
edge $-1 $629 -34.637000203291088 $527 -20.206556688628261 $521 $630 forward 7 unknown #
coedge $-1 $447 $445 $545 $631 forward $438 $-1 #
coedge $-1 $451 $456 $440 $536 reversed $461 $-1 #
edge $-1 $453 -42.132052742015986 $458 42.132052742015986 $535 $632 forward 7 unknown #
straight-curve $-1 -62.058778649250769 0 -19.84129477407296 0 1 0 I I #
point $-1 -62.058778649250769 42.132052742015986 -19.84129477407296 #
point $-1 -62.058778649250769 -42.132052742015986 -19.84129477407296 #
vertex $-1 $631 $633 #
straight-curve $-1 0 42.132052742015986 -19.84129477407296 1 0 0 I I #
vertex $-1 $452 $634 #
straight-curve $-1 0 -42.132052742015986 -19.84129477407296 -1 0 0 I I #
straight-curve $-1 -62.058778649250769 0 19.84129477407296 0 -1 0 I I #
coedge $-1 $456 $451 $534 $631 reversed $461 $-1 #
straight-curve $-1 62.058778649250769 -42.132052742015986 0 0 0 -1 I I #
point $-1 62.058778649250769 -42.132052742015986 19.84129477407296 #
straight-curve $-1 62.058778649250769 42.132052742015986 0 0 0 -1 I I #
point $-1 62.058778649250769 42.132052742015986 19.84129477407296 #
face $-1 $635 $481 $17 $-1 $636 reversed single #
coedge $-1 $576 $637 $554 $638 forward $464 $-1 #
coedge $-1 $557 $472 $466 $553 forward $481 $-1 #
edge $-1 $476 -10.989091039989988 $560 -5.7153164281759405 $552 $639 forward 7 unknown #
coedge $-1 $468 $467 $551 $638 reversed $309 $-1 #
coedge $-1 $493 $490 $467 $556 forward $139 $-1 #
edge $-1 $640 -34.711043389276384 $559 -19.984427130672376 $555 $641 forward 7 unknown #
coedge $-1 $642 $552 $468 $558 forward $481 $-1 #
edge $-1 $560 19.984427130672376 $643 34.711043389276384 $557 $644 forward 7 unknown #
vertex $-1 $556 $645 #
vertex $-1 $558 $646 #
straight-curve $-1 -47.332162390646758 0 14.067520162258905 0 -1 0 I I #
edge $-1 $495 -42.132052742015986 $563 42.132052742015986 $494 $647 forward 7 unknown #
vertex $-1 $473 $648 #
straight-curve $-1 -27.347735259974382 -42.132052742015986 19.341294774072953 1 0 0 I I #
straight-curve $-1 -27.347735259974382 42.132052742015986 19.341294774072953 -1 0 0 I I #
edge $-1 $559 5.7153164281759405 $477 10.989091039989988 $493 $649 forward 7 unknown #
point $-1 -47.332162390646758 -42.132052742015986 19.341294774072953 #
point $-1 -47.332162390646758 42.132052742015986 19.341294774072953 #
coedge $-1 $480 $642 $572 $650 reversed $481 $-1 #
vertex $-1 $483 $651 #
straight-curve $-1 62.058778649250769 -42.132052742015986 0 0 0 -1 I I #
coedge $-1 $578 $485 $569 $650 forward $573 $-1 #
loop $-1 $-1 $485 $635 #
straight-curve $-1 62.058778649250769 0 -19.84129477407296 0 -1 0 I I #
point $-1 62.058778649250769 42.132052742015986 -19.84129477407296 #
coedge $-1 $652 $551 $490 $577 forward $464 $-1 #
edge $-1 $640 -14.067520162258905 $579 19.84129477407296 $490 $496 forward 7 unknown #
coedge $-1 $491 $572 $652 $653 forward $573 $-1 #
vertex $-1 $492 $654 #
straight-curve $-1 0 42.132052742015986 -19.84129477407296 1 0 0 I I #
point $-1 -62.058778649250769 42.132052742015986 19.341294774072953 #
straight-curve $-1 -62.058778649250769 -42.132052742015986 0 0 0 -1 I I #
face $-1 $655 $656 $18 $-1 $657 reversed single #
loop $-1 $-1 $658 $499 #
plane-surface $-1 -47.332162390646758 0 16.704407468165929 -1 0 0 0 0 1 forward_v I I I I #
coedge $-1 $659 $660 $661 $662 reversed $500 $-1 #
coedge $-1 $663 $502 $664 $665 reversed $409 $-1 #
coedge $-1 $502 $663 $604 $666 reversed $409 $-1 #
coedge $-1 $667 $658 $502 $590 forward $584 $-1 #
edge $-1 $668 -42.132052742015986 $669 42.132052742015986 $589 $670 forward 7 unknown #
coedge $-1 $671 $672 $503 $592 reversed $673 $-1 #
edge $-1 $609 -62.058778649250769 $595 62.058778649250769 $591 $674 forward 7 unknown #
coedge $-1 $675 $504 $672 $676 forward $594 $-1 #
loop $-1 $-1 $508 $677 #
vertex $-1 $505 $678 #
straight-curve $-1 62.058778649250769 0 19.84129477407296 0 1 0 I I #
point $-1 62.058778649250762 16.332550586887756 19.84129477407296 #
coedge $-1 $508 $675 $512 $603 reversed $594 $-1 #
vertex $-1 $603 $679 #
straight-curve $-1 62.058778649250769 -9.0840662082036019 34.515585584739725 0 -0.8660253999169214 0.50000000669873634 I I #
straight-curve $-1 27.421778445959674 42.132052742015986 4.9459449937712989 1 0 0 I I #
coedge $-1 $680 $512 $681 $682 reversed $329 $-1 #
edge $-1 $599 -4.9459449937712918 $683 19.84129477407296 $598 $684 forward 7 unknown #
coedge $-1 $513 $685 $588 $666 forward $329 $-1 #
coedge $-1 $686 $514 $513 $606 forward $608 $-1 #
edge $-1 $516 -19.84129477407296 $687 -19.341294774072953 $513 $688 forward 7 unknown #
coedge $-1 $514 $686 $671 $689 reversed $608 $-1 #
loop $-1 $-1 $686 $655 #
vertex $-1 $515 $690 #
straight-curve $-1 -62.058778649250769 0 19.84129477407296 0 -1 0 I I #
point $-1 -62.058778649250769 42.132052742015986 19.84129477407296 #
face $-1 $691 $692 $19 $-1 $693 forward single #
loop $-1 $-1 $694 $518 #
plane-surface $-1 -54.695470519948763 0 19.341294774072953 0 0 1 1 0 0 forward_v I I I I #
coedge $-1 $521 $695 $696 $697 forward $426 $-1 #
coedge $-1 $522 $532 $619 $698 reversed $352 $-1 #
vertex $-1 $698 $699 #
straight-curve $-1 47.628335134587935 -30.842802908434443 47.0779983002503 0 0.8660253999169214 -0.50000000669873634 I I #
coedge $-1 $700 $524 $616 $698 forward $519 $-1 #
coedge $-1 $524 $701 $526 $623 reversed $519 $-1 #
straight-curve $-1 47.628335134587935 42.132052742015986 77.283477748198251 0 0 -1 I I #
coedge $-1 $695 $526 $702 $703 forward $426 $-1 #
edge $-1 $528 -47.628335134587935 $704 62.058778649250769 $620 $705 forward 7 unknown #
point $-1 47.628335134587935 16.332550586887756 19.84129477407296 #
point $-1 47.628335134587935 42.132052742015986 19.84129477407296 #
point $-1 51.751318995920187 26.447205341241226 7.5696916343192768 #
coedge $-1 $696 $706 $532 $628 forward $707 $-1 #
edge $-1 $708 -59.139280389619977 $629 -29.348581228136723 $627 $709 forward 7 unknown #
vertex $-1 $628 $710 #
straight-curve $-1 27.421778445959674 16.332550586887759 19.84129477407296 -1 0 0 I I #
edge $-1 $540 -42.132052742015986 $542 42.132052742015986 $545 $711 forward 7 unknown #
straight-curve $-1 62.058778649250769 0 19.84129477407296 0 1 0 I I #
point $-1 62.058778649250769 42.132052742015986 -19.84129477407296 #
point $-1 62.058778649250769 -42.132052742015986 -19.84129477407296 #
face $-1 $397 $573 $17 $-1 $712 reversed single #
plane-surface $-1 0 -42.132052742015986 0 0 1 0 0 0 1 forward_v I I I I #
coedge $-1 $551 $652 $642 $713 reversed $464 $-1 #
edge $-1 $643 -42.132052742015986 $640 42.132052742015986 $551 $714 forward 7 unknown #
straight-curve $-1 -47.332162390646758 -42.132052742015986 8.3522037340829645 0 0 -1 I I #
vertex $-1 $577 $715 #
straight-curve $-1 -27.347735259974382 42.132052742015986 14.067520162258905 1 0 0 I I #
coedge $-1 $569 $557 $637 $713 forward $481 $-1 #
vertex $-1 $713 $716 #
straight-curve $-1 -27.347735259974382 -42.132052742015986 14.067520162258905 -1 0 0 I I #
point $-1 -47.332162390646758 42.132052742015986 14.067520162258905 #
point $-1 -47.332162390646758 -42.132052742015986 14.067520162258905 #
straight-curve $-1 -62.058778649250769 0 19.341294774072953 0 -1 0 I I #
point $-1 -62.058778649250769 -42.132052742015986 19.341294774072953 #
straight-curve $-1 -47.332162390646758 42.132052742015986 8.3522037340829645 0 0 1 I I #
edge $-1 $570 -62.058778649250769 $717 62.058778649250769 $569 $718 forward 7 unknown #
point $-1 62.058778649250769 -42.132052742015986 -19.84129477407296 #
coedge $-1 $637 $576 $578 $653 reversed $464 $-1 #
edge $-1 $717 -42.132052742015986 $579 42.132052742015986 $652 $719 forward 7 unknown #
point $-1 -62.058778649250769 42.132052742015986 -19.84129477407296 #
face $-1 $720 $608 $18 $-1 $657 reversed single #
loop $-1 $-1 $721 $583 #
plane-surface $-1 -62.058778649250769 0 0 1 0 0 0 0 -1 forward_v I I I I #
coedge $-1 $589 $661 $722 $723 reversed $584 $-1 #
coedge $-1 $724 $586 $725 $726 reversed $500 $-1 #
coedge $-1 $586 $724 $727 $728 reversed $500 $-1 #
coedge $-1 $658 $667 $586 $662 forward $584 $-1 #
edge $-1 $729 -42.132052742015986 $730 42.132052742015986 $661 $731 forward 7 unknown #
coedge $-1 $588 $587 $686 $732 reversed $409 $-1 #
coedge $-1 $722 $671 $587 $665 forward $673 $-1 #
edge $-1 $733 -34.711043389276384 $668 -19.984427130672376 $664 $734 forward 7 unknown #
edge $-1 $669 19.984427130672376 $687 34.711043389276384 $604 $735 forward 7 unknown #
coedge $-1 $661 $589 $685 $736 reversed $584 $-1 #
vertex $-1 $665 $737 #
vertex $-1 $666 $738 #
straight-curve $-1 -47.332162390646758 0 19.341294774072953 0 1 0 I I #
coedge $-1 $664 $591 $607 $689 forward $673 $-1 #
coedge $-1 $591 $739 $593 $676 reversed $673 $-1 #
loop $-1 $-1 $664 $720 #
straight-curve $-1 0 -42.132052742015986 19.84129477407296 1 0 0 I I #
coedge $-1 $598 $593 $740 $741 reversed $594 $-1 #
edge $-1 $595 -19.84129477407296 $742 19.84129477407296 $593 $743 forward 7 unknown #
face $-1 $-1 $594 $18 $-1 $744 reversed single #
point $-1 62.058778649250769 -42.132052742015986 19.84129477407296 #
point $-1 62.058778649250762 42.132052742015979 4.9459449937712918 #
coedge $-1 $725 $602 $745 $746 reversed $329 $-1 #
coedge $-1 $740 $747 $602 $682 forward $748 $-1 #
edge $-1 $749 -62.058778649250769 $683 62.058778649250769 $602 $750 forward 7 unknown #
vertex $-1 $741 $751 #
straight-curve $-1 62.058778649250769 42.132052742015986 0 0 0 -1 I I #
coedge $-1 $604 $725 $667 $736 forward $329 $-1 #
coedge $-1 $607 $605 $663 $732 forward $608 $-1 #
vertex $-1 $732 $752 #
straight-curve $-1 -62.058778649250769 42.132052742015986 0 0 0 -1 I I #
edge $-1 $609 -19.84129477407296 $733 -19.341294774072953 $607 $753 forward 7 unknown #
point $-1 -62.058778649250769 -42.132052742015986 19.84129477407296 #
face $-1 $754 $755 $19 $-1 $756 forward single #
loop $-1 $-1 $757 $612 #
plane-surface $-1 -54.695470519948763 0 14.067520162258905 0 0 1 1 0 0 forward_v I I I I #
coedge $-1 $758 $759 $760 $761 reversed $613 $-1 #
coedge $-1 $615 $622 $762 $763 forward $426 $-1 #
coedge $-1 $764 $627 $615 $697 reversed $707 $-1 #
edge $-1 $765 -42.132052742015986 $629 16.332550586887756 $696 $766 forward 7 unknown #
edge $-1 $617 20.206556688628261 $708 34.637000203291088 $619 $767 forward 7 unknown #
point $-1 47.628335134587935 42.132052742015979 4.9459449937712918 #
coedge $-1 $768 $619 $706 $769 forward $519 $-1 #
coedge $-1 $620 $770 $771 $772 reversed $519 $-1 #
coedge $-1 $771 $773 $622 $703 reversed $774 $-1 #
edge $-1 $704 -42.132052742015986 $775 42.132052742015986 $702 $776 forward 7 unknown #
vertex $-1 $623 $777 #
straight-curve $-1 0 42.132052742015986 19.84129477407296 -1 0 0 I I #
coedge $-1 $627 $778 $700 $769 reversed $707 $-1 #
loop $-1 $-1 $627 $779 #
vertex $-1 $769 $780 #
straight-curve $-1 62.058778649250769 -9.0840662082036019 34.515585584739725 0 -0.8660253999169214 0.50000000669873634 I I #
point $-1 62.058778649250762 16.332550586887756 19.84129477407296 #
straight-curve $-1 62.058778649250769 0 -19.84129477407296 0 -1 0 I I #
plane-surface $-1 0 0 -19.84129477407296 0 0 1 1 0 0 forward_v I I I I #
edge $-1 $643 -14.067520162258905 $717 19.84129477407296 $637 $582 forward 7 unknown #
straight-curve $-1 -62.058778649250769 0 14.067520162258905 0 1 0 I I #
point $-1 -62.058778649250769 42.132052742015986 14.067520162258905 #
point $-1 -62.058778649250769 -42.132052742015986 14.067520162258905 #
vertex $-1 $653 $781 #
straight-curve $-1 0 -42.132052742015986 -19.84129477407296 -1 0 0 I I #
straight-curve $-1 -62.058778649250769 0 -19.84129477407296 0 1 0 I I #
face $-1 $782 $673 $18 $-1 $783 reversed single #
coedge $-1 $745 $784 $724 $785 forward $656 $-1 #
coedge $-1 $727 $664 $658 $723 forward $673 $-1 #
edge $-1 $668 -10.989091039989988 $730 -5.7153164281759405 $722 $786 forward 7 unknown #
coedge $-1 $660 $659 $721 $785 reversed $500 $-1 #
coedge $-1 $685 $680 $659 $726 forward $329 $-1 #
edge $-1 $787 -34.711043389276384 $729 -19.984427130672376 $725 $788 forward 7 unknown #
coedge $-1 $789 $722 $660 $728 forward $673 $-1 #
edge $-1 $730 19.984427130672376 $790 34.711043389276384 $727 $791 forward 7 unknown #
vertex $-1 $726 $792 #
vertex $-1 $728 $793 #
straight-curve $-1 -47.332162390646758 0 14.067520162258905 0 -1 0 I I #
edge $-1 $687 -42.132052742015986 $733 42.132052742015986 $686 $794 forward 7 unknown #
vertex $-1 $665 $795 #
straight-curve $-1 -27.347735259974382 -42.132052742015986 19.341294774072953 1 0 0 I I #
straight-curve $-1 -27.347735259974382 42.132052742015986 19.341294774072953 -1 0 0 I I #
edge $-1 $729 5.7153164281759405 $669 10.989091039989988 $685 $796 forward 7 unknown #
point $-1 -47.332162390646758 -42.132052742015986 19.341294774072953 #
point $-1 -47.332162390646758 42.132052742015986 19.341294774072953 #
coedge $-1 $672 $789 $797 $798 reversed $673 $-1 #
coedge $-1 $797 $681 $675 $741 forward $748 $-1 #
edge $-1 $683 -42.132052742015986 $742 42.132052742015986 $675 $799 forward 7 unknown #
vertex $-1 $676 $800 #
straight-curve $-1 62.058778649250769 -42.132052742015986 0 0 0 -1 I I #
plane-surface $-1 62.058778649250769 0 0 -1 0 0 0 0 1 forward_v I I I I #
coedge $-1 $801 $721 $680 $746 forward $656 $-1 #
edge $-1 $787 -14.067520162258905 $749 19.84129477407296 $680 $688 forward 7 unknown #
coedge $-1 $681 $797 $801 $802 forward $748 $-1 #
loop $-1 $-1 $740 $782 #
vertex $-1 $682 $803 #
straight-curve $-1 0 42.132052742015986 -19.84129477407296 1 0 0 I I #
point $-1 62.058778649250769 42.132052742015986 -19.84129477407296 #
point $-1 -62.058778649250769 42.132052742015986 19.341294774072953 #
straight-curve $-1 -62.058778649250769 -42.132052742015986 0 0 0 -1 I I #
face $-1 $804 $805 $19 $-1 $806 reversed single #
loop $-1 $-1 $807 $691 #
plane-surface $-1 -47.332162390646758 0 16.704407468165929 -1 0 0 0 0 1 forward_v I I I I #
coedge $-1 $808 $809 $810 $811 reversed $692 $-1 #
coedge $-1 $812 $694 $813 $814 reversed $613 $-1 #
coedge $-1 $694 $812 $770 $815 reversed $613 $-1 #
coedge $-1 $816 $807 $694 $761 forward $755 $-1 #
edge $-1 $817 -42.132052742015986 $818 42.132052742015986 $760 $819 forward 7 unknown #
coedge $-1 $820 $821 $695 $763 reversed $822 $-1 #
edge $-1 $775 -62.058778649250769 $765 62.058778649250769 $762 $823 forward 7 unknown #
coedge $-1 $778 $696 $821 $824 forward $707 $-1 #
vertex $-1 $697 $825 #
straight-curve $-1 62.058778649250769 0 19.84129477407296 0 1 0 I I #
straight-curve $-1 27.421778445959674 42.132052742015986 4.9459449937712989 1 0 0 I I #
coedge $-1 $826 $700 $827 $828 reversed $519 $-1 #
edge $-1 $708 -4.9459449937712918 $829 19.84129477407296 $706 $830 forward 7 unknown #
coedge $-1 $701 $831 $759 $815 forward $519 $-1 #
coedge $-1 $832 $702 $701 $772 forward $774 $-1 #
edge $-1 $704 -19.84129477407296 $833 -19.341294774072953 $701 $834 forward 7 unknown #
coedge $-1 $702 $832 $820 $835 reversed $774 $-1 #
loop $-1 $-1 $832 $804 #
vertex $-1 $703 $836 #
straight-curve $-1 -62.058778649250769 0 19.84129477407296 0 -1 0 I I #
point $-1 -62.058778649250769 42.132052742015986 19.84129477407296 #
coedge $-1 $706 $764 $837 $838 reversed $707 $-1 #
face $-1 $-1 $707 $19 $-1 $839 reversed single #
point $-1 62.058778649250762 42.132052742015979 4.9459449937712918 #
point $-1 -62.058778649250769 -42.132052742015986 -19.84129477407296 #
face $-1 $677 $748 $18 $-1 $840 reversed single #
plane-surface $-1 0 -42.132052742015986 0 0 1 0 0 0 1 forward_v I I I I #
coedge $-1 $721 $801 $789 $841 reversed $656 $-1 #
edge $-1 $790 -42.132052742015986 $787 42.132052742015986 $721 $842 forward 7 unknown #
straight-curve $-1 -47.332162390646758 -42.132052742015986 8.3522037340829645 0 0 -1 I I #
vertex $-1 $746 $843 #
straight-curve $-1 -27.347735259974382 42.132052742015986 14.067520162258905 1 0 0 I I #
coedge $-1 $739 $727 $784 $841 forward $673 $-1 #
vertex $-1 $841 $844 #
straight-curve $-1 -27.347735259974382 -42.132052742015986 14.067520162258905 -1 0 0 I I #
point $-1 -47.332162390646758 42.132052742015986 14.067520162258905 #
point $-1 -47.332162390646758 -42.132052742015986 14.067520162258905 #
straight-curve $-1 -62.058778649250769 0 19.341294774072953 0 -1 0 I I #
point $-1 -62.058778649250769 -42.132052742015986 19.341294774072953 #
straight-curve $-1 -47.332162390646758 42.132052742015986 8.3522037340829645 0 0 1 I I #
coedge $-1 $747 $740 $739 $798 forward $748 $-1 #
edge $-1 $742 -62.058778649250769 $845 62.058778649250769 $739 $846 forward 7 unknown #
straight-curve $-1 62.058778649250769 0 -19.84129477407296 0 -1 0 I I #
point $-1 62.058778649250769 -42.132052742015986 -19.84129477407296 #
coedge $-1 $784 $745 $747 $802 reversed $656 $-1 #
edge $-1 $845 -42.132052742015986 $749 42.132052742015986 $801 $847 forward 7 unknown #
point $-1 -62.058778649250769 42.132052742015986 -19.84129477407296 #
face $-1 $848 $774 $19 $-1 $806 reversed single #
loop $-1 $-1 $849 $754 #
plane-surface $-1 -62.058778649250769 0 0 1 0 0 0 0 -1 forward_v I I I I #
coedge $-1 $760 $810 $850 $851 reversed $755 $-1 #
coedge $-1 $852 $757 $853 $854 reversed $692 $-1 #
coedge $-1 $757 $852 $855 $856 reversed $692 $-1 #
coedge $-1 $807 $816 $757 $811 forward $755 $-1 #
edge $-1 $857 -42.132052742015986 $858 42.132052742015986 $810 $859 forward 7 unknown #
coedge $-1 $759 $758 $832 $860 reversed $613 $-1 #
coedge $-1 $850 $820 $758 $814 forward $822 $-1 #
edge $-1 $861 -34.711043389276384 $817 -19.984427130672376 $813 $862 forward 7 unknown #
edge $-1 $818 19.984427130672376 $833 34.711043389276384 $770 $863 forward 7 unknown #
coedge $-1 $810 $760 $831 $864 reversed $755 $-1 #
vertex $-1 $814 $865 #
vertex $-1 $815 $866 #
straight-curve $-1 -47.332162390646758 0 19.341294774072953 0 1 0 I I #
coedge $-1 $813 $762 $773 $835 forward $822 $-1 #
coedge $-1 $762 $867 $764 $824 reversed $822 $-1 #
loop $-1 $-1 $813 $848 #
straight-curve $-1 0 -42.132052742015986 19.84129477407296 1 0 0 I I #
edge $-1 $765 -19.84129477407296 $868 19.84129477407296 $764 $869 forward 7 unknown #
point $-1 62.058778649250769 -42.132052742015986 19.84129477407296 #
coedge $-1 $853 $768 $870 $871 reversed $519 $-1 #
coedge $-1 $837 $872 $768 $828 forward $873 $-1 #
edge $-1 $874 -62.058778649250769 $829 62.058778649250769 $768 $875 forward 7 unknown #
vertex $-1 $838 $876 #
straight-curve $-1 62.058778649250769 42.132052742015986 0 0 0 -1 I I #
coedge $-1 $770 $853 $816 $864 forward $519 $-1 #
coedge $-1 $773 $771 $812 $860 forward $774 $-1 #
vertex $-1 $860 $877 #
straight-curve $-1 -62.058778649250769 42.132052742015986 0 0 0 -1 I I #
edge $-1 $775 -19.84129477407296 $861 -19.341294774072953 $773 $878 forward 7 unknown #
point $-1 -62.058778649250769 -42.132052742015986 19.84129477407296 #
coedge $-1 $879 $827 $778 $838 forward $873 $-1 #
edge $-1 $829 -42.132052742015986 $868 42.132052742015986 $778 $880 forward 7 unknown #
plane-surface $-1 62.058778649250769 0 0 -1 0 0 0 0 1 forward_v I I I I #
plane-surface $-1 0 0 -19.84129477407296 0 0 1 1 0 0 forward_v I I I I #
edge $-1 $790 -14.067520162258905 $845 19.84129477407296 $784 $753 forward 7 unknown #
straight-curve $-1 -62.058778649250769 0 14.067520162258905 0 1 0 I I #
point $-1 -62.058778649250769 42.132052742015986 14.067520162258905 #
point $-1 -62.058778649250769 -42.132052742015986 14.067520162258905 #
vertex $-1 $802 $881 #
straight-curve $-1 0 -42.132052742015986 -19.84129477407296 -1 0 0 I I #
straight-curve $-1 -62.058778649250769 0 -19.84129477407296 0 1 0 I I #
face $-1 $882 $822 $19 $-1 $883 reversed single #
coedge $-1 $870 $884 $852 $885 forward $805 $-1 #
coedge $-1 $855 $813 $807 $851 forward $822 $-1 #
edge $-1 $817 -10.989091039989988 $858 -5.7153164281759405 $850 $886 forward 7 unknown #
coedge $-1 $809 $808 $849 $885 reversed $692 $-1 #
coedge $-1 $831 $826 $808 $854 forward $519 $-1 #
edge $-1 $887 -34.711043389276384 $857 -19.984427130672376 $853 $888 forward 7 unknown #
coedge $-1 $889 $850 $809 $856 forward $822 $-1 #
edge $-1 $858 19.984427130672376 $890 34.711043389276384 $855 $891 forward 7 unknown #
vertex $-1 $854 $892 #
vertex $-1 $856 $893 #
straight-curve $-1 -47.332162390646758 0 14.067520162258905 0 -1 0 I I #
edge $-1 $833 -42.132052742015986 $861 42.132052742015986 $832 $894 forward 7 unknown #
vertex $-1 $814 $895 #
straight-curve $-1 -27.347735259974382 -42.132052742015986 19.341294774072953 1 0 0 I I #
straight-curve $-1 -27.347735259974382 42.132052742015986 19.341294774072953 -1 0 0 I I #
edge $-1 $857 5.7153164281759405 $818 10.989091039989988 $831 $896 forward 7 unknown #
point $-1 -47.332162390646758 -42.132052742015986 19.341294774072953 #
point $-1 -47.332162390646758 42.132052742015986 19.341294774072953 #
coedge $-1 $821 $889 $879 $897 reversed $822 $-1 #
vertex $-1 $824 $898 #
straight-curve $-1 62.058778649250769 -42.132052742015986 0 0 0 -1 I I #
coedge $-1 $899 $849 $826 $871 forward $805 $-1 #
edge $-1 $887 -14.067520162258905 $874 19.84129477407296 $826 $834 forward 7 unknown #
coedge $-1 $827 $879 $899 $900 forward $873 $-1 #
loop $-1 $-1 $837 $882 #
vertex $-1 $828 $901 #
straight-curve $-1 0 42.132052742015986 -19.84129477407296 1 0 0 I I #
point $-1 62.058778649250769 42.132052742015986 -19.84129477407296 #
point $-1 -62.058778649250769 42.132052742015986 19.341294774072953 #
straight-curve $-1 -62.058778649250769 -42.132052742015986 0 0 0 -1 I I #
coedge $-1 $872 $837 $867 $897 forward $873 $-1 #
straight-curve $-1 62.058778649250769 0 -19.84129477407296 0 -1 0 I I #
point $-1 -62.058778649250769 -42.132052742015986 -19.84129477407296 #
face $-1 $779 $873 $19 $-1 $902 reversed single #
plane-surface $-1 0 -42.132052742015986 0 0 1 0 0 0 1 forward_v I I I I #
coedge $-1 $849 $899 $889 $903 reversed $805 $-1 #
edge $-1 $890 -42.132052742015986 $887 42.132052742015986 $849 $904 forward 7 unknown #
straight-curve $-1 -47.332162390646758 -42.132052742015986 8.3522037340829645 0 0 -1 I I #
vertex $-1 $871 $905 #
straight-curve $-1 -27.347735259974382 42.132052742015986 14.067520162258905 1 0 0 I I #
coedge $-1 $867 $855 $884 $903 forward $822 $-1 #
vertex $-1 $903 $906 #
straight-curve $-1 -27.347735259974382 -42.132052742015986 14.067520162258905 -1 0 0 I I #
point $-1 -47.332162390646758 42.132052742015986 14.067520162258905 #
point $-1 -47.332162390646758 -42.132052742015986 14.067520162258905 #
straight-curve $-1 -62.058778649250769 0 19.341294774072953 0 -1 0 I I #
point $-1 -62.058778649250769 -42.132052742015986 19.341294774072953 #
straight-curve $-1 -47.332162390646758 42.132052742015986 8.3522037340829645 0 0 1 I I #
edge $-1 $868 -62.058778649250769 $907 62.058778649250769 $867 $908 forward 7 unknown #
point $-1 62.058778649250769 -42.132052742015986 -19.84129477407296 #
coedge $-1 $884 $870 $872 $900 reversed $805 $-1 #
edge $-1 $907 -42.132052742015986 $874 42.132052742015986 $899 $909 forward 7 unknown #
point $-1 -62.058778649250769 42.132052742015986 -19.84129477407296 #
plane-surface $-1 0 0 -19.84129477407296 0 0 1 1 0 0 forward_v I I I I #
edge $-1 $890 -14.067520162258905 $907 19.84129477407296 $884 $878 forward 7 unknown #
straight-curve $-1 -62.058778649250769 0 14.067520162258905 0 1 0 I I #
point $-1 -62.058778649250769 42.132052742015986 14.067520162258905 #
point $-1 -62.058778649250769 -42.132052742015986 14.067520162258905 #
vertex $-1 $900 $910 #
straight-curve $-1 0 -42.132052742015986 -19.84129477407296 -1 0 0 I I #
straight-curve $-1 -62.058778649250769 0 -19.84129477407296 0 1 0 I I #
point $-1 -62.058778649250769 -42.132052742015986 -19.84129477407296 #
End-of-ACIS-data 