500 0 12 0           
7 Unknown 11 ACIS 5.0 NT 24 Fri Mar 26 01:00:08 1999 
-1 9.9999999999999995e-007 1e-010 
body $-1 $12 $-1 $13 #
body $-1 $14 $-1 $15 #
body $-1 $16 $-1 $17 #
body $-1 $18 $-1 $19 #
body $-1 $20 $-1 $21 #
body $-1 $22 $-1 $23 #
body $-1 $24 $-1 $25 #
body $-1 $26 $-1 $27 #
body $-1 $28 $-1 $29 #
body $-1 $30 $-1 $31 #
body $-1 $32 $-1 $33 #
body $-1 $34 $-1 $35 #
lump $-1 $-1 $36 $0 #
transform $-1 1 0 0 0 1 0 0 0 1 75.710318308053843 34.606041151012143 12.737076250173548 1 rotate no_reflect no_shear #
lump $-1 $-1 $37 $1 #
transform $-1 1 0 0 0 1 0 0 0 1 75.710318308053843 34.606041151012143 12.737076250173548 1 rotate no_reflect no_shear #
lump $-1 $-1 $38 $2 #
transform $-1 1 0 0 0 1 0 0 0 1 75.710318308053843 34.606041151012143 12.737076250173548 1 rotate no_reflect no_shear #
lump $-1 $-1 $39 $3 #
transform $-1 1 0 0 0 1 0 0 0 1 75.710318308053843 34.606041151012143 12.737076250173548 1 rotate no_reflect no_shear #
lump $-1 $-1 $40 $4 #
transform $-1 1 0 0 0 1 0 0 0 1 75.710318308053843 34.606041151012143 12.737076250173548 1 rotate no_reflect no_shear #
lump $-1 $-1 $41 $5 #
transform $-1 1 0 0 0 1 0 0 0 1 75.710318308053843 34.606041151012143 12.737076250173548 1 rotate no_reflect no_shear #
lump $-1 $-1 $42 $6 #
transform $-1 1 0 0 0 1 0 0 0 1 75.710318308053843 34.606041151012143 12.737076250173548 1 rotate no_reflect no_shear #
lump $-1 $-1 $43 $7 #
transform $-1 1 0 0 0 1 0 0 0 1 75.710318308053843 34.606041151012143 12.737076250173548 1 rotate no_reflect no_shear #
lump $-1 $-1 $44 $8 #
transform $-1 1 0 0 0 1 0 0 0 1 75.710318308053843 34.606041151012143 12.737076250173548 1 rotate no_reflect no_shear #
lump $-1 $-1 $45 $9 #
transform $-1 1 0 0 0 1 0 0 0 1 75.710318308053843 34.606041151012143 12.737076250173548 1 rotate no_reflect no_shear #
lump $-1 $-1 $46 $10 #
transform $-1 1 0 0 0 1 0 0 0 1 75.710318308053843 34.606041151012143 12.737076250173548 1 rotate no_reflect no_shear #
lump $-1 $-1 $47 $11 #
transform $-1 1 0 0 0 1 0 0 0 1 75.710318308053843 34.606041151012143 12.737076250173548 1 rotate no_reflect no_shear #
shell $-1 $-1 $-1 $48 $-1 $12 #
shell $-1 $-1 $-1 $49 $-1 $14 #
shell $-1 $-1 $-1 $50 $-1 $16 #
shell $-1 $-1 $-1 $51 $-1 $18 #
shell $-1 $-1 $-1 $52 $-1 $20 #
shell $-1 $-1 $-1 $53 $-1 $22 #
shell $-1 $-1 $-1 $54 $-1 $24 #
shell $-1 $-1 $-1 $55 $-1 $26 #
shell $-1 $-1 $-1 $56 $-1 $28 #
shell $-1 $-1 $-1 $57 $-1 $30 #
shell $-1 $-1 $-1 $58 $-1 $32 #
shell $-1 $-1 $-1 $59 $-1 $34 #
face $-1 $60 $61 $36 $-1 $62 forward single #
face $-1 $63 $64 $37 $-1 $65 forward single #
face $-1 $66 $67 $38 $-1 $68 reversed single #
face $-1 $69 $70 $39 $-1 $71 forward single #
face $-1 $72 $73 $40 $-1 $74 forward single #
face $-1 $75 $76 $41 $-1 $77 reversed single #
face $-1 $78 $79 $42 $-1 $80 forward single #
face $-1 $81 $82 $43 $-1 $83 forward single #
face $-1 $84 $85 $44 $-1 $86 reversed single #
face $-1 $87 $88 $45 $-1 $89 forward single #
face $-1 $90 $91 $46 $-1 $92 reversed single #
face $-1 $93 $94 $47 $-1 $95 forward single #
face $-1 $96 $97 $36 $-1 $98 reversed single #
loop $-1 $-1 $99 $48 #
plane-surface $-1 0 0 12.737076250173548 0 0 1 1 0 0 forward_v I I I I #
face $-1 $100 $101 $37 $-1 $102 forward single #
loop $-1 $-1 $103 $49 #
plane-surface $-1 0 -34.606041151012143 0 0 1 0 0 0 1 forward_v I I I I #
face $-1 $104 $105 $38 $-1 $106 reversed single #
loop $-1 $-1 $107 $50 #
plane-surface $-1 79.447598672436357 -6.1623765640086736 216.64328694086055 0 -1 0 -0.71933980857756763 0 -0.69465836192734942 forward_v I I I I #
face $-1 $108 $109 $39 $-1 $110 forward single #
loop $-1 $111 $112 $51 #
cone-surface $-1 70.14333608865762 -15.513172694711699 7.0170561353109928 -0.71933980857756763 0 -0.69465836192734942 1.0419875428910241 0 -1.0790097128663514 1 I I 0 1 1.5 forward I I I I #
face $-1 $113 $114 $40 $-1 $115 forward single #
loop $-1 $116 $117 $52 #
cone-surface $-1 70.14333608865762 -9.9026950162898828 7.0170561353109928 -0.71933980857756763 0 -0.69465836192734942 1.0419875428910241 0 -1.0790097128663514 1 I I 0 1 1.5 forward I I I I #
face $-1 $118 $119 $41 $-1 $120 reversed single #
loop $-1 $-1 $121 $53 #
plane-surface $-1 79.447598672436357 31.937725264977104 216.64328694086055 0 -1 0 -0.71933980857756763 0 -0.69465836192734942 forward_v I I I I #
face $-1 $122 $123 $42 $-1 $124 forward single #
loop $-1 $125 $126 $54 #
cone-surface $-1 70.14333608865762 22.586929134274079 7.0170561353109928 -0.71933980857756763 0 -0.69465836192734942 1.0419875428910241 0 -1.0790097128663514 1 I I 0 1 1.5 forward I I I I #
face $-1 $127 $128 $43 $-1 $129 forward single #
loop $-1 $130 $131 $55 #
cone-surface $-1 70.14333608865762 28.197406812695895 7.0170561353109928 -0.71933980857756763 0 -0.69465836192734942 1.0419875428910241 0 -1.0790097128663514 1 I I 0 1 1.5 forward I I I I #
face $-1 $132 $133 $44 $-1 $134 reversed single #
loop $-1 $-1 $135 $56 #
plane-surface $-1 -184.63321006617815 -17.518351078375098 109.03919593954245 0 1 0 -0.71933980857756763 0 0.69465836192734942 forward_v I I I I #
face $-1 $136 $137 $45 $-1 $138 forward single #
loop $-1 $139 $140 $57 #
cone-surface $-1 -70.283223368914534 -10.982100362911467 7.1966171215248966 0.71933980857756763 0 -0.69465836192734942 1.7366459048183736 0 1.7983495214439191 1 I I 0 1 2.5 forward I I I I #
face $-1 $141 $142 $46 $-1 $143 reversed single #
loop $-1 $-1 $144 $58 #
plane-surface $-1 -184.63321006617815 17.130083765432033 109.03919593954245 0 1 0 -0.71933980857756763 0 0.69465836192734942 forward_v I I I I #
face $-1 $145 $146 $47 $-1 $147 forward single #
loop $-1 $148 $149 $59 #
cone-surface $-1 -70.283223368914534 23.666334480895664 7.1966171215248966 0.71933980857756763 0 -0.69465836192734942 1.7366459048183736 0 1.7983495214439191 1 I I 0 1 2.5 forward I I I I #
face $-1 $150 $151 $36 $-1 $152 reversed single #
loop $-1 $-1 $153 $60 #
plane-surface $-1 0 0 -12.737076250173548 0 0 1 1 0 0 forward_v I I I I #
coedge $-1 $154 $155 $156 $157 forward $61 $-1 #
face $-1 $158 $159 $37 $-1 $160 reversed single #
loop $-1 $-1 $161 $63 #
plane-surface $-1 0 0 12.737076250173548 0 0 1 1 0 0 forward_v I I I I #
coedge $-1 $162 $163 $164 $165 forward $64 $-1 #
face $-1 $166 $167 $38 $-1 $168 reversed single #
loop $-1 $-1 $169 $66 #
plane-surface $-1 -29.47529308568798 -12.707933855500791 111.45767554711875 0.71933980857756763 0 0.69465836192734942 0.69465836192734942 0 -0.71933980857756763 forward_v I I I I #
coedge $-1 $170 $171 $172 $173 reversed $67 $-1 #
face $-1 $-1 $174 $39 $-1 $175 forward single #
loop $-1 $176 $177 $69 #
cone-surface $-1 68.962968549435402 -15.513172694711699 5.8771884795924727 -0.71933980857756763 0 -0.69465836192734942 0.52099377144551207 0 -0.53950485643317569 1 I I -0.70710678118654757 0.70710678118654757 0.75 forward I I I I #
loop $-1 $-1 $178 $51 #
coedge $-1 $112 $112 $179 $180 reversed $70 $-1 #
face $-1 $-1 $181 $40 $-1 $182 forward single #
loop $-1 $183 $184 $72 #
cone-surface $-1 68.962968549435402 -9.9026950162898828 5.8771884795924727 -0.71933980857756763 0 -0.69465836192734942 0.52099377144551207 0 -0.53950485643317569 1 I I -0.70710678118654757 0.70710678118654757 0.75 forward I I I I #
loop $-1 $-1 $185 $52 #
coedge $-1 $117 $117 $186 $187 reversed $73 $-1 #
face $-1 $188 $189 $41 $-1 $190 reversed single #
loop $-1 $-1 $191 $75 #
plane-surface $-1 -29.47529308568798 25.392167973484987 111.45767554711875 0.71933980857756763 0 0.69465836192734942 0.69465836192734942 0 -0.71933980857756763 forward_v I I I I #
coedge $-1 $192 $193 $194 $195 reversed $76 $-1 #
face $-1 $-1 $196 $42 $-1 $197 forward single #
loop $-1 $198 $199 $78 #
cone-surface $-1 68.962968549435402 22.586929134274079 5.8771884795924727 -0.71933980857756763 0 -0.69465836192734942 0.52099377144551207 0 -0.53950485643317569 1 I I -0.70710678118654757 0.70710678118654757 0.75 forward I I I I #
loop $-1 $-1 $200 $54 #
coedge $-1 $126 $126 $201 $202 reversed $79 $-1 #
face $-1 $-1 $203 $43 $-1 $204 forward single #
loop $-1 $205 $206 $81 #
cone-surface $-1 68.962968549435402 28.197406812695895 5.8771884795924727 -0.71933980857756763 0 -0.69465836192734942 0.52099377144551207 0 -0.53950485643317569 1 I I -0.70710678118654757 0.70710678118654757 0.75 forward I I I I #
loop $-1 $-1 $207 $55 #
coedge $-1 $131 $131 $208 $209 reversed $82 $-1 #
face $-1 $210 $211 $44 $-1 $212 reversed single #
loop $-1 $-1 $213 $84 #
plane-surface $-1 -75.710318308053814 -10.982100362911467 3.8535845458006577 -0.71933980857756763 0 0.69465836192734942 0.69465836192734942 0 0.71933980857756763 forward_v I I I I #
coedge $-1 $214 $215 $216 $217 reversed $85 $-1 #
face $-1 $-1 $218 $45 $-1 $219 forward single #
loop $-1 $220 $221 $87 #
cone-surface $-1 -68.246297677247014 -10.982100362911467 5.2295808926534981 0.71933980857756763 0 -0.69465836192734942 0.86832295240918678 0 0.89917476072195957 1 I I -0.70710678118654746 0.70710678118654746 1.25 forward I I I I #
loop $-1 $-1 $222 $57 #
coedge $-1 $140 $140 $223 $224 reversed $88 $-1 #
face $-1 $225 $226 $46 $-1 $227 reversed single #
loop $-1 $-1 $228 $90 #
plane-surface $-1 -75.710318308053814 23.666334480895664 3.8535845458006577 -0.71933980857756763 0 0.69465836192734942 0.69465836192734942 0 0.71933980857756763 forward_v I I I I #
coedge $-1 $229 $230 $231 $232 reversed $91 $-1 #
face $-1 $-1 $233 $47 $-1 $234 forward single #
loop $-1 $235 $236 $93 #
cone-surface $-1 -68.246297677247014 23.666334480895664 5.2295808926534981 0.71933980857756763 0 -0.69465836192734942 0.86832295240918678 0 0.89917476072195957 1 I I -0.70710678118654746 0.70710678118654746 1.25 forward I I I I #
loop $-1 $-1 $237 $59 #
coedge $-1 $149 $149 $238 $239 reversed $94 $-1 #
face $-1 $240 $241 $36 $-1 $242 reversed single #
loop $-1 $-1 $243 $96 #
plane-surface $-1 0 -34.606041151012143 0 0 1 0 0 0 1 forward_v I I I I #
coedge $-1 $244 $245 $246 $247 forward $97 $-1 #
coedge $-1 $248 $99 $249 $250 forward $61 $-1 #
coedge $-1 $99 $248 $251 $252 forward $61 $-1 #
coedge $-1 $253 $254 $99 $157 reversed $255 $-1 #
edge $-1 $256 -34.606041151012143 $257 34.606041151012143 $156 $258 forward 7 unknown #
face $-1 $259 $260 $37 $-1 $261 reversed single #
loop $-1 $-1 $262 $100 #
plane-surface $-1 -75.710318308053843 0 0 1 0 0 0 0 -1 forward_v I I I I #
coedge $-1 $263 $264 $163 $265 forward $101 $-1 #
coedge $-1 $266 $103 $267 $268 reversed $64 $-1 #
coedge $-1 $103 $266 $161 $265 reversed $64 $-1 #
coedge $-1 $269 $270 $103 $165 reversed $271 $-1 #
edge $-1 $272 -12.737076250173548 $273 12.737076250173548 $164 $274 forward 7 unknown #
face $-1 $275 $276 $38 $-1 $277 forward single #
loop $-1 $-1 $278 $104 #
plane-surface $-1 79.447598672436357 -19.253491146992907 216.64328694086055 0 1 0 0.71933980857756763 0 0.69465836192734942 forward_v I I I I #
coedge $-1 $279 $280 $281 $282 reversed $105 $-1 #
coedge $-1 $171 $107 $283 $284 reversed $67 $-1 #
coedge $-1 $107 $170 $279 $285 reversed $67 $-1 #
coedge $-1 $281 $286 $107 $173 forward $276 $-1 #
edge $-1 $287 -35.986518971835665 $288 -26.134279898621301 $172 $289 forward 7 unknown #
loop $-1 $-1 $179 $108 #
plane-surface $-1 -29.47529308568798 -12.707933855500791 111.45767554711875 0.71933980857756763 0 0.69465836192734942 0.69465836192734942 0 -0.71933980857756763 forward_v I I I I #
loop $-1 $-1 $290 $69 #
coedge $-1 $177 $177 $178 $291 reversed $109 $-1 #
coedge $-1 $178 $178 $177 $291 forward $111 $-1 #
coedge $-1 $179 $179 $112 $180 forward $174 $-1 #
edge $-1 $292 0 $292 6.2831853071796004 $179 $293 forward 7 unknown #
loop $-1 $-1 $186 $113 #
plane-surface $-1 -29.47529308568798 -12.707933855500791 111.45767554711875 0.71933980857756763 0 0.69465836192734942 0.69465836192734942 0 -0.71933980857756763 forward_v I I I I #
loop $-1 $-1 $294 $72 #
coedge $-1 $184 $184 $185 $295 reversed $114 $-1 #
coedge $-1 $185 $185 $184 $295 forward $116 $-1 #
coedge $-1 $186 $186 $117 $187 forward $181 $-1 #
edge $-1 $296 0 $296 6.2831853071796004 $186 $297 forward 7 unknown #
face $-1 $298 $299 $41 $-1 $300 reversed single #
loop $-1 $-1 $301 $118 #
plane-surface $-1 79.447598672436357 18.846610681992871 216.64328694086055 0 1 0 0.71933980857756763 0 0.69465836192734942 forward_v I I I I #
coedge $-1 $302 $303 $304 $305 reversed $119 $-1 #
coedge $-1 $193 $121 $306 $307 reversed $76 $-1 #
coedge $-1 $121 $192 $302 $308 reversed $76 $-1 #
coedge $-1 $304 $309 $121 $195 forward $310 $-1 #
edge $-1 $311 -35.986518971835665 $312 -26.134279898621301 $194 $313 forward 7 unknown #
loop $-1 $-1 $201 $122 #
plane-surface $-1 -29.47529308568798 25.392167973484987 111.45767554711875 0.71933980857756763 0 0.69465836192734942 0.69465836192734942 0 -0.71933980857756763 forward_v I I I I #
loop $-1 $-1 $314 $78 #
coedge $-1 $199 $199 $200 $315 reversed $123 $-1 #
coedge $-1 $200 $200 $199 $315 forward $125 $-1 #
coedge $-1 $201 $201 $126 $202 forward $196 $-1 #
edge $-1 $316 0 $316 6.2831853071796004 $201 $317 forward 7 unknown #
loop $-1 $-1 $208 $127 #
plane-surface $-1 -29.47529308568798 25.392167973484987 111.45767554711875 0.71933980857756763 0 0.69465836192734942 0.69465836192734942 0 -0.71933980857756763 forward_v I I I I #
loop $-1 $-1 $318 $81 #
coedge $-1 $206 $206 $207 $319 reversed $128 $-1 #
coedge $-1 $207 $207 $206 $319 forward $130 $-1 #
coedge $-1 $208 $208 $131 $209 forward $203 $-1 #
edge $-1 $320 0 $320 6.2831853071796004 $208 $321 forward 7 unknown #
face $-1 $322 $323 $44 $-1 $324 reversed single #
loop $-1 $-1 $325 $132 #
plane-surface $-1 -184.63321006617815 -4.4458496474478348 109.03919593954245 0 -1 0 0.71933980857756763 0 -0.69465836192734942 forward_v I I I I #
coedge $-1 $326 $327 $328 $329 reversed $133 $-1 #
coedge $-1 $215 $135 $330 $331 reversed $85 $-1 #
coedge $-1 $135 $214 $326 $332 reversed $85 $-1 #
coedge $-1 $328 $333 $135 $217 forward $334 $-1 #
edge $-1 $335 16.606286725035233 $336 25.184974741422778 $216 $337 forward 7 unknown #
loop $-1 $-1 $223 $136 #
plane-surface $-1 -75.710318308053814 -10.982100362911467 3.8535845458006577 -0.71933980857756763 0 0.69465836192734942 0.69465836192734942 0 0.71933980857756763 forward_v I I I I #
loop $-1 $-1 $338 $87 #
coedge $-1 $221 $221 $222 $339 reversed $137 $-1 #
coedge $-1 $222 $222 $221 $339 forward $139 $-1 #
coedge $-1 $223 $223 $140 $224 forward $218 $-1 #
edge $-1 $340 0 $340 6.2831853071796004 $223 $341 forward 7 unknown #
face $-1 $342 $343 $46 $-1 $344 forward single #
loop $-1 $-1 $345 $141 #
plane-surface $-1 -184.63321006617815 30.202585196359294 109.03919593954245 0 -1 0 0.71933980857756763 0 -0.69465836192734942 forward_v I I I I #
coedge $-1 $346 $347 $348 $349 reversed $142 $-1 #
coedge $-1 $230 $144 $350 $351 reversed $91 $-1 #
coedge $-1 $144 $229 $346 $352 reversed $91 $-1 #
coedge $-1 $348 $353 $144 $232 forward $343 $-1 #
edge $-1 $354 16.606286725035233 $355 25.184974741422778 $231 $356 forward 7 unknown #
loop $-1 $-1 $238 $145 #
plane-surface $-1 -75.710318308053814 23.666334480895664 3.8535845458006577 -0.71933980857756763 0 0.69465836192734942 0.69465836192734942 0 0.71933980857756763 forward_v I I I I #
loop $-1 $-1 $357 $93 #
coedge $-1 $236 $236 $237 $358 reversed $146 $-1 #
coedge $-1 $237 $237 $236 $358 forward $148 $-1 #
coedge $-1 $238 $238 $149 $239 forward $233 $-1 #
edge $-1 $359 0 $359 6.2831853071796004 $238 $360 forward 7 unknown #
face $-1 $361 $362 $36 $-1 $363 reversed single #
loop $-1 $-1 $364 $150 #
plane-surface $-1 -75.710318308053843 0 0 1 0 0 0 0 -1 forward_v I I I I #
coedge $-1 $365 $251 $366 $367 forward $151 $-1 #
coedge $-1 $368 $153 $365 $369 forward $97 $-1 #
coedge $-1 $153 $368 $370 $371 forward $97 $-1 #
coedge $-1 $254 $253 $153 $247 reversed $255 $-1 #
edge $-1 $372 -34.606041151012143 $373 34.606041151012143 $246 $374 forward 7 unknown #
coedge $-1 $155 $154 $375 $376 forward $61 $-1 #
coedge $-1 $377 $378 $154 $250 reversed $362 $-1 #
edge $-1 $257 -75.710318308053843 $379 75.710318308053843 $249 $380 forward 7 unknown #
coedge $-1 $243 $381 $155 $252 reversed $151 $-1 #
edge $-1 $382 -75.710318308053843 $256 75.710318308053843 $251 $383 forward 7 unknown #
coedge $-1 $246 $156 $381 $384 forward $255 $-1 #
coedge $-1 $156 $246 $377 $385 reversed $255 $-1 #
loop $-1 $-1 $253 $361 #
vertex $-1 $157 $386 #
vertex $-1 $157 $387 #
straight-curve $-1 75.710318308053843 0 12.737076250173548 0 1 0 I I #
face $-1 $388 $271 $37 $-1 $389 reversed single #
loop $-1 $-1 $390 $158 #
plane-surface $-1 -72.321215042500441 -47.290275268996332 0 0 1 0 0 0 1 forward_v I I I I #
coedge $-1 $391 $392 $266 $393 forward $159 $-1 #
coedge $-1 $394 $161 $392 $395 forward $101 $-1 #
coedge $-1 $161 $394 $269 $396 forward $101 $-1 #
edge $-1 $272 68.932111776947039 $397 75.710318308053843 $161 $398 forward 7 unknown #
coedge $-1 $163 $162 $262 $393 reversed $64 $-1 #
coedge $-1 $399 $400 $162 $268 forward $401 $-1 #
edge $-1 $402 -75.710318308053843 $273 -68.932111776947039 $267 $403 forward 7 unknown #
coedge $-1 $404 $164 $264 $396 reversed $271 $-1 #
coedge $-1 $164 $404 $399 $405 reversed $271 $-1 #
loop $-1 $-1 $404 $259 #
vertex $-1 $265 $406 #
vertex $-1 $405 $407 #
straight-curve $-1 -68.932111776947039 -34.606041151012143 0 0 0 -1 I I #
face $-1 $-1 $408 $38 $-1 $409 reversed single #
loop $-1 $-1 $172 $166 #
plane-surface $-1 0 0 12.737076250173548 0 0 1 1 0 0 forward_v I I I I #
coedge $-1 $410 $411 $412 $413 reversed $167 $-1 #
coedge $-1 $414 $169 $171 $285 forward $105 $-1 #
coedge $-1 $169 $414 $410 $415 forward $105 $-1 #
coedge $-1 $412 $172 $169 $282 forward $276 $-1 #
edge $-1 $288 -0.19159036374172178 $416 12.899524219242512 $281 $417 forward 7 unknown #
coedge $-1 $418 $419 $170 $284 forward $408 $-1 #
edge $-1 $420 -105.78685968143589 $287 -95.58456722025673 $283 $421 forward 7 unknown #
edge $-1 $288 137.23778125411508 $420 151.42063661610774 $171 $422 forward 7 unknown #
coedge $-1 $172 $412 $418 $423 forward $276 $-1 #
vertex $-1 $284 $424 #
vertex $-1 $173 $425 #
straight-curve $-1 39.723799336218178 -6.1623765640086736 12.737076250173544 -1 0 0 I I #
coedge $-1 $290 $290 $-1 $426 reversed $176 $-1 #
edge $-1 $427 0 $427 6.2831853071796004 $177 $428 forward 7 unknown #
vertex $-1 $180 $429 #
ellipse-curve $-1 70.78419877144664 -15.513172694711699 7.635930019583979 0.71933980857756763 0 0.69465836192734942 1.0419875428910241 0 -1.0790097128663514 1 I I #
coedge $-1 $294 $294 $-1 $430 reversed $183 $-1 #
edge $-1 $431 0 $431 6.2831853071796004 $184 $432 forward 7 unknown #
vertex $-1 $187 $433 #
ellipse-curve $-1 70.78419877144664 -9.9026950162898828 7.635930019583979 0.71933980857756763 0 0.69465836192734942 1.0419875428910241 0 -1.0790097128663514 1 I I #
face $-1 $-1 $310 $41 $-1 $434 forward single #
loop $-1 $-1 $435 $188 #
plane-surface $-1 75.710318308053843 0 0 -1 0 0 0 0 1 forward_v I I I I #
coedge $-1 $436 $437 $438 $439 reversed $189 $-1 #
coedge $-1 $440 $191 $193 $308 forward $119 $-1 #
coedge $-1 $191 $440 $436 $441 forward $119 $-1 #
coedge $-1 $438 $194 $191 $305 forward $310 $-1 #
edge $-1 $312 -19.24164127823461 $442 -6.1505266952503774 $304 $443 forward 7 unknown #
coedge $-1 $444 $445 $192 $307 forward $299 $-1 #
edge $-1 $446 -105.78685968143589 $311 -95.58456722025673 $306 $447 forward 7 unknown #
edge $-1 $312 137.23778125411508 $446 151.42063661610774 $193 $448 forward 7 unknown #
coedge $-1 $194 $438 $444 $449 forward $310 $-1 #
loop $-1 $-1 $438 $298 #
vertex $-1 $307 $450 #
vertex $-1 $195 $451 #
straight-curve $-1 39.723799336218178 31.937725264977104 12.737076250173544 -1 0 0 I I #
coedge $-1 $314 $314 $-1 $452 reversed $198 $-1 #
edge $-1 $453 0 $453 6.2831853071796004 $199 $454 forward 7 unknown #
vertex $-1 $202 $455 #
ellipse-curve $-1 70.78419877144664 22.586929134274079 7.635930019583979 0.71933980857756763 0 0.69465836192734942 1.0419875428910241 0 -1.0790097128663514 1 I I #
coedge $-1 $318 $318 $-1 $456 reversed $205 $-1 #
edge $-1 $457 0 $457 6.2831853071796004 $206 $458 forward 7 unknown #
vertex $-1 $209 $459 #
ellipse-curve $-1 70.78419877144664 28.197406812695895 7.635930019583979 0.71933980857756763 0 0.69465836192734942 1.0419875428910241 0 -1.0790097128663514 1 I I #
face $-1 $-1 $334 $44 $-1 $460 forward single #
loop $-1 $-1 $461 $210 #
plane-surface $-1 -75.710318308053843 0 0 1 0 0 0 0 -1 forward_v I I I I #
coedge $-1 $462 $463 $464 $465 reversed $211 $-1 #
coedge $-1 $466 $213 $215 $332 forward $133 $-1 #
coedge $-1 $213 $466 $462 $467 forward $133 $-1 #
coedge $-1 $464 $216 $213 $329 forward $334 $-1 #
edge $-1 $336 -12.027300896919364 $468 1.0452005340078987 $328 $469 forward 7 unknown #
coedge $-1 $470 $471 $214 $331 forward $323 $-1 #
edge $-1 $472 -50.666013423970597 $335 -41.782521719597682 $330 $473 forward 7 unknown #
edge $-1 $336 -12.349506587073538 $472 4.082714723162343e-014 $215 $474 forward 7 unknown #
coedge $-1 $216 $464 $470 $475 forward $334 $-1 #
loop $-1 $-1 $464 $322 #
vertex $-1 $331 $476 #
vertex $-1 $217 $477 #
straight-curve $-1 -92.316605033089076 -17.518351078375098 12.737076250173544 1 0 0 I I #
coedge $-1 $338 $338 $-1 $478 reversed $220 $-1 #
edge $-1 $479 0 $479 6.2831853071796004 $221 $480 forward 7 unknown #
vertex $-1 $224 $481 #
ellipse-curve $-1 -71.420974299860077 -10.982100362911467 8.2953303979870867 -0.71933980857756763 0 0.69465836192734942 1.7366459048183736 0 1.7983495214439191 1 I I #
face $-1 $-1 $482 $46 $-1 $483 reversed single #
loop $-1 $-1 $231 $225 #
plane-surface $-1 0 0 12.737076250173548 0 0 1 1 0 0 forward_v I I I I #
coedge $-1 $484 $485 $486 $487 reversed $226 $-1 #
coedge $-1 $488 $228 $230 $352 forward $142 $-1 #
coedge $-1 $228 $488 $484 $489 forward $142 $-1 #
coedge $-1 $486 $231 $228 $349 forward $343 $-1 #
edge $-1 $355 5.2969165249842014 $490 18.369417955911462 $348 $491 forward 7 unknown #
coedge $-1 $492 $493 $229 $351 forward $482 $-1 #
edge $-1 $494 -50.666013423970597 $354 -41.782521719597682 $350 $495 forward 7 unknown #
edge $-1 $355 -12.349506587073538 $494 4.082714723162343e-014 $230 $496 forward 7 unknown #
coedge $-1 $231 $486 $492 $497 forward $343 $-1 #
vertex $-1 $351 $498 #
vertex $-1 $232 $499 #
straight-curve $-1 -92.316605033089076 17.130083765432033 12.737076250173544 1 0 0 I I #
coedge $-1 $357 $357 $-1 $500 reversed $235 $-1 #
edge $-1 $501 0 $501 6.2831853071796004 $236 $502 forward 7 unknown #
vertex $-1 $239 $503 #
ellipse-curve $-1 -71.420974299860077 23.666334480895664 8.2953303979870867 -0.71933980857756763 0 0.69465836192734942 1.7366459048183736 0 1.7983495214439191 1 I I #
face $-1 $-1 $255 $36 $-1 $504 reversed single #
loop $-1 $-1 $377 $240 #
plane-surface $-1 0 34.606041151012143 0 0 -1 0 0 0 -1 forward_v I I I I #
coedge $-1 $505 $375 $378 $506 forward $241 $-1 #
coedge $-1 $381 $243 $244 $369 reversed $151 $-1 #
coedge $-1 $375 $505 $243 $367 reversed $241 $-1 #
edge $-1 $382 -12.737076250173548 $507 12.737076250173548 $366 $508 forward 7 unknown #
coedge $-1 $245 $244 $505 $509 forward $97 $-1 #
edge $-1 $373 -75.710318308053843 $507 75.710318308053843 $365 $510 forward 7 unknown #
coedge $-1 $378 $377 $245 $371 reversed $362 $-1 #
edge $-1 $511 -75.710318308053843 $372 75.710318308053843 $370 $512 forward 7 unknown #
vertex $-1 $247 $513 #
vertex $-1 $384 $514 #
straight-curve $-1 75.710318308053843 0 -12.737076250173548 0 -1 0 I I #
coedge $-1 $364 $366 $248 $376 reversed $241 $-1 #
edge $-1 $379 -34.606041151012143 $382 34.606041151012143 $375 $515 forward 7 unknown #
coedge $-1 $370 $249 $254 $385 forward $362 $-1 #
coedge $-1 $249 $370 $364 $506 reversed $362 $-1 #
vertex $-1 $250 $516 #
straight-curve $-1 0 34.606041151012143 12.737076250173548 -1 0 0 I I #
coedge $-1 $251 $365 $253 $384 reversed $151 $-1 #
vertex $-1 $376 $517 #
straight-curve $-1 0 -34.606041151012143 12.737076250173548 1 0 0 I I #
edge $-1 $256 -12.737076250173548 $373 12.737076250173548 $253 $518 forward 7 unknown #
edge $-1 $257 -12.737076250173548 $372 12.737076250173548 $254 $519 forward 7 unknown #
point $-1 75.710318308053843 -34.606041151012143 12.737076250173548 #
point $-1 75.710318308053843 34.606041151012143 12.737076250173548 #
face $-1 $-1 $401 $37 $-1 $520 reversed single #
plane-surface $-1 -68.932111776947039 -40.948158210004237 0 -1 0 0 0 0 1 forward_v I I I I #
coedge $-1 $521 $522 $523 $524 forward $260 $-1 #
coedge $-1 $523 $262 $400 $525 reversed $159 $-1 #
coedge $-1 $262 $523 $263 $395 reversed $159 $-1 #
edge $-1 $397 -12.737076250173548 $402 12.737076250173548 $262 $526 forward 7 unknown #
coedge $-1 $264 $263 $522 $527 forward $101 $-1 #
edge $-1 $397 34.606041151012143 $528 47.290275268996332 $392 $529 forward 7 unknown #
edge $-1 $530 -6.3421170589920948 $272 6.3421170589920948 $269 $531 forward 7 unknown #
vertex $-1 $395 $532 #
straight-curve $-1 0 -34.606041151012143 12.737076250173548 -1 0 0 I I #
coedge $-1 $533 $267 $270 $405 forward $401 $-1 #
coedge $-1 $267 $533 $391 $525 forward $401 $-1 #
loop $-1 $-1 $267 $388 #
vertex $-1 $393 $534 #
straight-curve $-1 0 -34.606041151012143 -12.737076250173548 1 0 0 I I #
coedge $-1 $270 $269 $535 $536 forward $271 $-1 #
edge $-1 $273 -6.3421170589920948 $537 6.3421170589920948 $270 $538 forward 7 unknown #
point $-1 -68.932111776947039 -34.606041151012143 12.737076250173548 #
point $-1 -68.932111776947039 -34.606041151012143 -12.737076250173548 #
loop $-1 $-1 $283 $275 #
plane-surface $-1 75.710318308053843 0 0 -1 0 0 0 0 1 forward_v I I I I #
coedge $-1 $411 $278 $280 $415 reversed $167 $-1 #
coedge $-1 $278 $410 $539 $540 reversed $167 $-1 #
coedge $-1 $286 $281 $278 $413 forward $276 $-1 #
edge $-1 $416 26.134279898621301 $541 35.986518971835665 $412 $542 forward 7 unknown #
coedge $-1 $280 $279 $419 $543 reversed $105 $-1 #
edge $-1 $544 -151.42063661610774 $416 -137.23778125411508 $410 $545 forward 7 unknown #
vertex $-1 $282 $546 #
straight-curve $-1 65.858079234839465 -6.3539669277503954 12.737076250173558 0 -1 0 I I #
coedge $-1 $539 $283 $286 $423 reversed $408 $-1 #
coedge $-1 $283 $539 $414 $543 forward $408 $-1 #
vertex $-1 $284 $547 #
straight-curve $-1 75.710318308053843 -6.1623765640086736 108.32164347043027 0 0 1 I I #
straight-curve $-1 -29.47529308568798 -6.1623765640086736 111.45767554711875 0.69465836192734942 0 -0.71933980857756763 I I #
edge $-1 $541 -19.253491146992907 $287 -6.1623765640086736 $418 $548 forward 7 unknown #
point $-1 75.710318308053843 -6.1623765640086736 12.737076250173548 #
point $-1 65.858079234839479 -6.1623765640086736 12.73707625017353 #
edge $-1 $549 1 $549 0 $290 $-1 forward 7 unknown #
vertex $-1 $291 $550 #
ellipse-curve $-1 69.502473405868571 -15.513172694711699 6.3981822510379844 0.71933980857756763 0 0.69465836192734942 1.0419875428910241 0 -1.0790097128663514 1 I I #
point $-1 71.82618631433769 -15.513172694711699 6.5569203067176502 #
edge $-1 $551 1 $551 0 $294 $-1 forward 7 unknown #
vertex $-1 $295 $552 #
ellipse-curve $-1 69.502473405868571 -9.9026950162898828 6.3981822510379844 0.71933980857756763 0 0.69465836192734942 1.0419875428910241 0 -1.0790097128663514 1 I I #
point $-1 71.82618631433769 -9.9026950162898828 6.5569203067176502 #
plane-surface $-1 0 0 12.737076250173548 0 0 1 1 0 0 forward_v I I I I #
coedge $-1 $445 $444 $437 $553 forward $299 $-1 #
coedge $-1 $437 $301 $303 $441 reversed $189 $-1 #
coedge $-1 $301 $436 $435 $553 reversed $189 $-1 #
coedge $-1 $309 $304 $301 $439 forward $310 $-1 #
edge $-1 $442 26.134279898621301 $554 35.986518971835665 $438 $555 forward 7 unknown #
coedge $-1 $303 $302 $445 $556 reversed $119 $-1 #
edge $-1 $557 -151.42063661610774 $442 -137.23778125411508 $436 $558 forward 7 unknown #
vertex $-1 $305 $559 #
straight-curve $-1 65.858079234839465 12.696083986742494 12.737076250173558 0 -1 0 I I #
coedge $-1 $435 $306 $309 $449 reversed $299 $-1 #
coedge $-1 $306 $435 $440 $556 forward $299 $-1 #
vertex $-1 $307 $560 #
straight-curve $-1 75.710318308053843 31.937725264977104 108.32164347043027 0 0 1 I I #
straight-curve $-1 -29.47529308568798 31.937725264977104 111.45767554711875 0.69465836192734942 0 -0.71933980857756763 I I #
edge $-1 $554 18.846610681992871 $311 31.937725264977104 $444 $561 forward 7 unknown #
point $-1 75.710318308053843 31.937725264977104 12.737076250173548 #
point $-1 65.858079234839479 31.937725264977104 12.73707625017353 #
edge $-1 $562 1 $562 0 $314 $-1 forward 7 unknown #
vertex $-1 $315 $563 #
ellipse-curve $-1 69.502473405868571 22.586929134274079 6.3981822510379844 0.71933980857756763 0 0.69465836192734942 1.0419875428910241 0 -1.0790097128663514 1 I I #
point $-1 71.82618631433769 22.586929134274079 6.5569203067176502 #
edge $-1 $564 1 $564 0 $318 $-1 forward 7 unknown #
vertex $-1 $319 $565 #
ellipse-curve $-1 69.502473405868571 28.197406812695895 6.3981822510379844 0.71933980857756763 0 0.69465836192734942 1.0419875428910241 0 -1.0790097128663514 1 I I #
point $-1 71.82618631433769 28.197406812695895 6.5569203067176502 #
plane-surface $-1 0 0 12.737076250173548 0 0 1 1 0 0 forward_v I I I I #
coedge $-1 $471 $470 $463 $566 forward $323 $-1 #
coedge $-1 $463 $325 $327 $467 reversed $211 $-1 #
coedge $-1 $325 $462 $461 $566 reversed $211 $-1 #
coedge $-1 $333 $328 $325 $465 forward $334 $-1 #
edge $-1 $468 -25.184974741422778 $567 -16.606286725035233 $464 $568 forward 7 unknown #
coedge $-1 $327 $326 $471 $569 reversed $133 $-1 #
edge $-1 $570 -4.082714723162343e-014 $468 12.349506587073538 $462 $571 forward 7 unknown #
vertex $-1 $329 $572 #
straight-curve $-1 -67.131630291666298 -5.4910501814557335 12.737076250173548 0 1 0 I I #
coedge $-1 $461 $330 $333 $475 reversed $323 $-1 #
coedge $-1 $330 $461 $466 $569 forward $323 $-1 #
vertex $-1 $331 $573 #
straight-curve $-1 -75.710318308053843 -17.518351078375098 54.519597969771226 0 0 1 I I #
straight-curve $-1 -75.710318308053814 -17.518351078375098 3.8535845458006577 -0.69465836192734942 0 -0.71933980857756763 I I #
edge $-1 $567 4.4458496474478348 $335 17.518351078375098 $470 $574 forward 7 unknown #
point $-1 -75.710318308053843 -17.518351078375098 12.737076250173548 #
point $-1 -67.131630291666298 -17.518351078375098 12.737076250173548 #
edge $-1 $575 1 $575 0 $338 $-1 forward 7 unknown #
vertex $-1 $339 $576 #
ellipse-curve $-1 -69.145472437968976 -10.982100362911467 6.0979038450626852 -0.71933980857756763 0 0.69465836192734942 1.7366459048183736 0 1.7983495214439191 1 I I #
point $-1 -69.684328395041717 -10.982100362911467 10.093679919431027 #
loop $-1 $-1 $350 $342 #
plane-surface $-1 -75.710318308053843 0 0 1 0 0 0 0 -1 forward_v I I I I #
coedge $-1 $485 $345 $347 $489 reversed $226 $-1 #
coedge $-1 $345 $484 $577 $578 reversed $226 $-1 #
coedge $-1 $353 $348 $345 $487 forward $343 $-1 #
edge $-1 $490 -25.184974741422778 $579 -16.606286725035233 $486 $580 forward 7 unknown #
coedge $-1 $347 $346 $493 $581 reversed $142 $-1 #
edge $-1 $582 -4.082714723162343e-014 $490 12.349506587073538 $484 $583 forward 7 unknown #
vertex $-1 $349 $584 #
straight-curve $-1 -67.131630291666298 11.833167240447832 12.737076250173548 0 1 0 I I #
coedge $-1 $577 $350 $353 $497 reversed $482 $-1 #
coedge $-1 $350 $577 $488 $581 forward $482 $-1 #
vertex $-1 $351 $585 #
straight-curve $-1 -75.710318308053843 17.130083765432033 54.519597969771226 0 0 1 I I #
straight-curve $-1 -75.710318308053814 17.130083765432033 3.8535845458006577 -0.69465836192734942 0 -0.71933980857756763 I I #
edge $-1 $579 -30.202585196359294 $354 -17.130083765432033 $492 $586 forward 7 unknown #
point $-1 -75.710318308053843 17.130083765432033 12.737076250173548 #
point $-1 -67.131630291666298 17.130083765432033 12.737076250173548 #
edge $-1 $587 1 $587 0 $357 $-1 forward 7 unknown #
vertex $-1 $358 $588 #
ellipse-curve $-1 -69.145472437968976 23.666334480895664 6.0979038450626852 -0.71933980857756763 0 0.69465836192734942 1.7366459048183736 0 1.7983495214439191 1 I I #
point $-1 -69.684328395041717 23.666334480895664 10.093679919431027 #
plane-surface $-1 75.710318308053843 0 0 -1 0 0 0 0 1 forward_v I I I I #
coedge $-1 $366 $364 $368 $509 reversed $241 $-1 #
edge $-1 $379 -12.737076250173548 $511 12.737076250173548 $378 $589 forward 7 unknown #
vertex $-1 $509 $590 #
straight-curve $-1 -75.710318308053843 -34.606041151012143 0 0 0 -1 I I #
edge $-1 $507 -34.606041151012143 $511 34.606041151012143 $505 $591 forward 7 unknown #
straight-curve $-1 0 -34.606041151012143 -12.737076250173548 -1 0 0 I I #
vertex $-1 $371 $592 #
straight-curve $-1 0 34.606041151012143 -12.737076250173548 1 0 0 I I #
point $-1 75.710318308053843 34.606041151012143 -12.737076250173548 #
point $-1 75.710318308053843 -34.606041151012143 -12.737076250173548 #
straight-curve $-1 -75.710318308053843 0 12.737076250173548 0 -1 0 I I #
point $-1 -75.710318308053843 34.606041151012143 12.737076250173548 #
point $-1 -75.710318308053843 -34.606041151012143 12.737076250173548 #
straight-curve $-1 75.710318308053843 -34.606041151012143 0 0 0 -1 I I #
straight-curve $-1 75.710318308053843 34.606041151012143 0 0 0 -1 I I #
plane-surface $-1 0 0 -12.737076250173548 0 0 1 1 0 0 forward_v I I I I #
coedge $-1 $535 $390 $533 $593 reversed $260 $-1 #
coedge $-1 $390 $535 $394 $527 reversed $260 $-1 #
coedge $-1 $392 $391 $390 $524 reversed $159 $-1 #
edge $-1 $528 -12.737076250173548 $594 12.737076250173548 $523 $595 forward 7 unknown #
edge $-1 $594 -47.290275268996332 $402 -34.606041151012143 $391 $596 forward 7 unknown #
straight-curve $-1 -75.710318308053843 -34.606041151012143 0 0 0 -1 I I #
edge $-1 $528 -3.3891032655534019 $530 3.3891032655534019 $522 $597 forward 7 unknown #
vertex $-1 $395 $598 #
straight-curve $-1 -75.710318308053843 0 12.737076250173548 0 -1 0 I I #
vertex $-1 $396 $599 #
straight-curve $-1 -68.932111776947039 -40.948158210004237 12.737076250173548 0 1 0 I I #
point $-1 -75.710318308053843 -34.606041151012143 12.737076250173548 #
coedge $-1 $400 $399 $521 $593 forward $401 $-1 #
point $-1 -75.710318308053843 -34.606041151012143 -12.737076250173548 #
coedge $-1 $522 $521 $404 $536 reversed $260 $-1 #
edge $-1 $530 -12.737076250173548 $537 12.737076250173548 $404 $600 forward 7 unknown #
vertex $-1 $536 $601 #
straight-curve $-1 -68.932111776947039 -40.948158210004237 -12.737076250173548 0 -1 0 I I #
coedge $-1 $419 $418 $411 $540 forward $408 $-1 #
edge $-1 $541 95.58456722025673 $544 105.78685968143589 $539 $602 forward 7 unknown #
vertex $-1 $423 $603 #
straight-curve $-1 39.723799336218178 -19.253491146992907 12.737076250173544 1 0 0 I I #
edge $-1 $544 -12.899524219242512 $420 0.19159036374172178 $419 $604 forward 7 unknown #
vertex $-1 $543 $605 #
straight-curve $-1 -29.47529308568798 -19.253491146992907 111.45767554711875 -0.69465836192734942 0 0.71933980857756763 I I #
point $-1 65.858079234839479 -19.253491146992907 12.73707625017353 #
point $-1 75.710318308053857 -6.1623765640086736 2.5347837889943889 #
straight-curve $-1 75.710318308053843 0 12.737076250173548 0 1 0 I I #
vertex $-1 $426 $606 #
point $-1 70.544460948759607 -15.513172694711699 5.3191725381716335 #
vertex $-1 $430 $607 #
point $-1 70.544460948759607 -9.9026950162898828 5.3191725381716335 #
edge $-1 $554 95.58456722025673 $557 105.78685968143589 $435 $608 forward 7 unknown #
vertex $-1 $449 $609 #
straight-curve $-1 39.723799336218178 18.846610681992871 12.737076250173544 1 0 0 I I #
edge $-1 $557 6.1505266952503774 $446 19.24164127823461 $445 $610 forward 7 unknown #
vertex $-1 $556 $611 #
straight-curve $-1 -29.47529308568798 18.846610681992871 111.45767554711875 -0.69465836192734942 0 0.71933980857756763 I I #
point $-1 65.858079234839479 18.846610681992871 12.73707625017353 #
point $-1 75.710318308053857 31.937725264977104 2.5347837889943889 #
straight-curve $-1 75.710318308053843 0 12.737076250173548 0 1 0 I I #
vertex $-1 $452 $612 #
point $-1 70.544460948759607 22.586929134274079 5.3191725381716335 #
vertex $-1 $456 $613 #
point $-1 70.544460948759607 28.197406812695895 5.3191725381716335 #
edge $-1 $567 41.782521719597682 $570 50.666013423970597 $461 $614 forward 7 unknown #
vertex $-1 $475 $615 #
straight-curve $-1 -92.316605033089076 -4.4458496474478348 12.737076250173544 -1 0 0 I I #
edge $-1 $570 -1.0452005340078987 $472 12.027300896919364 $471 $616 forward 7 unknown #
vertex $-1 $569 $617 #
straight-curve $-1 -75.710318308053814 -4.4458496474478348 3.8535845458006577 0.69465836192734942 0 0.71933980857756763 I I #
point $-1 -67.131630291666298 -4.4458496474478348 12.737076250173548 #
point $-1 -75.710318308053843 -17.518351078375098 3.8535845458006284 #
straight-curve $-1 -75.710318308053843 0 12.737076250173548 0 -1 0 I I #
vertex $-1 $478 $618 #
point $-1 -67.408826533150602 -10.982100362911467 7.8962533665066044 #
coedge $-1 $493 $492 $485 $578 forward $482 $-1 #
edge $-1 $579 41.782521719597682 $582 50.666013423970597 $577 $619 forward 7 unknown #
vertex $-1 $497 $620 #
straight-curve $-1 -92.316605033089076 30.202585196359294 12.737076250173544 -1 0 0 I I #
edge $-1 $582 -18.369417955911462 $494 -5.2969165249842014 $493 $621 forward 7 unknown #
vertex $-1 $581 $622 #
straight-curve $-1 -75.710318308053814 30.202585196359294 3.8535845458006577 0.69465836192734942 0 0.71933980857756763 I I #
point $-1 -67.131630291666298 30.202585196359294 12.737076250173548 #
point $-1 -75.710318308053843 17.130083765432033 3.8535845458006284 #
straight-curve $-1 -75.710318308053843 0 12.737076250173548 0 -1 0 I I #
vertex $-1 $500 $623 #
point $-1 -67.408826533150602 23.666334480895664 7.8962533665066044 #
straight-curve $-1 -75.710318308053843 34.606041151012143 0 0 0 -1 I I #
point $-1 -75.710318308053843 -34.606041151012143 -12.737076250173548 #
straight-curve $-1 -75.710318308053843 0 -12.737076250173548 0 1 0 I I #
point $-1 -75.710318308053843 34.606041151012143 -12.737076250173548 #
edge $-1 $537 -3.3891032655534019 $594 3.3891032655534019 $521 $624 forward 7 unknown #
vertex $-1 $525 $625 #
straight-curve $-1 -75.710318308053843 -47.290275268996332 0 0 0 -1 I I #
straight-curve $-1 -75.710318308053843 0 -12.737076250173548 0 1 0 I I #
straight-curve $-1 -72.321215042500441 -47.290275268996332 12.737076250173548 1 0 0 I I #
point $-1 -75.710318308053843 -47.290275268996332 12.737076250173548 #
point $-1 -68.932111776947039 -47.290275268996332 12.737076250173548 #
straight-curve $-1 -68.932111776947039 -47.290275268996332 0 0 0 -1 I I #
point $-1 -68.932111776947039 -47.290275268996332 -12.737076250173548 #
straight-curve $-1 75.710318308053843 -19.253491146992907 108.32164347043027 0 0 -1 I I #
point $-1 75.710318308053843 -19.253491146992907 12.737076250173548 #
straight-curve $-1 75.710318308053843 -6.3539669277503954 2.5347837889944032 0 1 0 I I #
point $-1 75.710318308053857 -19.253491146992907 2.5347837889943889 #
point $-1 68.423463693002233 -15.513172694711699 5.356194708146961 #
point $-1 68.423463693002233 -9.9026950162898828 5.356194708146961 #
straight-curve $-1 75.710318308053843 18.846610681992871 108.32164347043027 0 0 -1 I I #
point $-1 75.710318308053843 18.846610681992871 12.737076250173548 #
straight-curve $-1 75.710318308053843 12.696083986742494 2.5347837889944032 0 1 0 I I #
point $-1 75.710318308053857 18.846610681992871 2.5347837889943889 #
point $-1 68.423463693002233 22.586929134274079 5.356194708146961 #
point $-1 68.423463693002233 28.197406812695895 5.356194708146961 #
straight-curve $-1 -75.710318308053843 -4.4458496474478348 54.519597969771226 0 0 -1 I I #
point $-1 -75.710318308053843 -4.4458496474478348 12.737076250173548 #
straight-curve $-1 -75.710318308053843 -5.4910501814557335 3.8535845458006324 0 -1 0 I I #
point $-1 -75.710318308053843 -4.4458496474478348 3.8535845458006284 #
point $-1 -67.347122916525052 -10.982100362911467 4.361257940244311 #
straight-curve $-1 -75.710318308053843 30.202585196359294 54.519597969771226 0 0 -1 I I #
point $-1 -75.710318308053843 30.202585196359294 12.737076250173548 #
straight-curve $-1 -75.710318308053843 11.833167240447832 3.8535845458006324 0 -1 0 I I #
point $-1 -75.710318308053843 30.202585196359294 3.8535845458006284 #
point $-1 -67.347122916525052 23.666334480895664 4.361257940244311 #
straight-curve $-1 -72.321215042500441 -47.290275268996332 -12.737076250173548 -1 0 0 I I #
point $-1 -75.710318308053843 -47.290275268996332 -12.737076250173548 #
End-of-ACIS-data 