500 0 4 0           
7 Unknown 11 ACIS 5.0 NT 24 Thu Mar 25 19:33:59 1999 
-1 9.9999999999999995e-007 1e-010 
body $-1 $4 $-1 $5 #
body $-1 $6 $-1 $7 #
body $-1 $8 $-1 $9 #
body $-1 $10 $-1 $11 #
lump $-1 $-1 $12 $0 #
transform $-1 1 0 0 0 1 0 0 0 1 46.566362498855554 32.283093266670804 10.844940004665636 1 rotate no_reflect no_shear #
lump $-1 $-1 $13 $1 #
transform $-1 1 0 0 0 1 0 0 0 1 46.566362498855554 32.283093266670804 10.844940004665636 1 rotate no_reflect no_shear #
lump $-1 $-1 $14 $2 #
transform $-1 1 0 0 0 1 0 0 0 1 46.566362498855554 32.283093266670804 10.844940004665636 1 rotate no_reflect no_shear #
lump $-1 $-1 $15 $3 #
transform $-1 1 0 0 0 1 0 0 0 1 46.566362498855554 32.283093266670804 10.844940004665636 1 rotate no_reflect no_shear #
shell $-1 $-1 $-1 $16 $-1 $4 #
shell $-1 $-1 $-1 $17 $-1 $6 #
shell $-1 $-1 $-1 $18 $-1 $8 #
shell $-1 $-1 $-1 $19 $-1 $10 #
face $-1 $20 $21 $12 $-1 $22 forward single #
face $-1 $23 $24 $13 $-1 $25 forward single #
face $-1 $26 $27 $14 $-1 $28 forward single #
face $-1 $29 $30 $15 $-1 $31 reversed single #
face $-1 $32 $33 $12 $-1 $34 reversed single #
loop $-1 $-1 $35 $16 #
plane-surface $-1 0 0 10.844940004665636 0 0 1 1 0 0 forward_v I I I I #
face $-1 $36 $37 $13 $-1 $38 forward single #
loop $-1 $-1 $39 $17 #
plane-surface $-1 -42.217308884087409 0 7.3140708693229453 0 0 1 1 0 0 forward_v I I I I #
face $-1 $40 $41 $14 $-1 $42 forward single #
loop $-1 $-1 $43 $18 #
plane-surface $-1 22.144358396741296 -108.57295609627592 53.51186820570431 -1 0 0 0 -0.81915205242281985 0.57357642473473569 forward_v I I I I #
face $-1 $44 $45 $15 $-1 $46 reversed single #
loop $-1 $47 $48 $19 #
cone-surface $-1 11.275208353189861 -26.786143684323225 4.2557858027583366 0 0.81915205242281985 -0.57357642473473569 2 0 0 1 I I 0 1 2 forward I I I I #
face $-1 $49 $50 $12 $-1 $51 reversed single #
loop $-1 $-1 $52 $20 #
plane-surface $-1 0 0 -10.844940004665636 0 0 1 1 0 0 forward_v I I I I #
coedge $-1 $53 $54 $55 $56 forward $21 $-1 #
face $-1 $57 $58 $13 $-1 $59 forward single #
loop $-1 $-1 $60 $23 #
plane-surface $-1 -37.868255269319263 0 9.0795054369942907 -1 0 0 0 0 1 forward_v I I I I #
coedge $-1 $61 $62 $63 $64 reversed $24 $-1 #
face $-1 $65 $66 $14 $-1 $67 forward single #
loop $-1 $-1 $68 $26 #
plane-surface $-1 11.275208353189861 -32.283093266670804 0.093132775713826277 0 -0.81915205242281985 0.57357642473473569 1 0 0 forward_v I I I I #
coedge $-1 $69 $70 $71 $72 reversed $27 $-1 #
face $-1 $73 $74 $15 $-1 $75 forward single #
loop $-1 $76 $77 $29 #
cone-surface $-1 11.275208353189861 -24.234290171485181 2.4689587905922057 0 0.81915205242281985 -0.57357642473473569 1 0 0 1 I I -0.70710678118654746 0.70710678118654746 1 forward I I I I #
loop $-1 $-1 $78 $19 #
coedge $-1 $48 $48 $79 $80 reversed $30 $-1 #
face $-1 $81 $82 $12 $-1 $83 reversed single #
loop $-1 $-1 $84 $32 #
plane-surface $-1 0 -32.283093266670804 0 0 1 0 0 0 1 forward_v I I I I #
coedge $-1 $85 $86 $87 $88 forward $33 $-1 #
coedge $-1 $89 $35 $90 $91 forward $21 $-1 #
coedge $-1 $35 $89 $92 $93 forward $21 $-1 #
coedge $-1 $94 $95 $35 $56 reversed $96 $-1 #
edge $-1 $97 -32.283093266670804 $98 32.283093266670804 $55 $99 forward 7 unknown #
face $-1 $100 $101 $13 $-1 $102 reversed single #
loop $-1 $-1 $103 $36 #
plane-surface $-1 0 0 10.844940004665636 0 0 1 1 0 0 forward_v I I I I #
coedge $-1 $104 $63 $105 $106 reversed $37 $-1 #
coedge $-1 $107 $39 $108 $109 reversed $24 $-1 #
coedge $-1 $39 $107 $110 $111 reversed $24 $-1 #
coedge $-1 $60 $112 $39 $64 forward $37 $-1 #
edge $-1 $113 -32.283093266670804 $114 32.283093266670804 $63 $115 forward 7 unknown #
face $-1 $116 $117 $14 $-1 $118 forward single #
loop $-1 $-1 $119 $40 #
plane-surface $-1 0.40605830963842493 -108.57295609627592 53.51186820570431 1 0 0 0 0.81915205242281985 -0.57357642473473569 forward_v I I I I #
coedge $-1 $120 $121 $122 $123 reversed $41 $-1 #
coedge $-1 $70 $43 $121 $124 forward $27 $-1 #
coedge $-1 $43 $69 $125 $126 reversed $27 $-1 #
coedge $-1 $127 $122 $43 $72 forward $117 $-1 #
edge $-1 $128 -29.531881025331863 $129 -22.003384781467155 $71 $130 forward 7 unknown #
face $-1 $131 $132 $15 $-1 $133 forward single #
loop $-1 $-1 $134 $44 #
plane-surface $-1 22.144358396741296 -108.57295609627592 53.51186820570431 -1 0 0 0 -0.81915205242281985 0.57357642473473569 forward_v I I I I #
loop $-1 $-1 $135 $29 #
coedge $-1 $77 $77 $78 $136 forward $45 $-1 #
coedge $-1 $78 $78 $77 $136 reversed $47 $-1 #
coedge $-1 $79 $79 $48 $80 forward $132 $-1 #
edge $-1 $137 3.6377658770750719e-016 $137 6.2831853071796004 $79 $138 forward 7 unknown #
face $-1 $139 $140 $12 $-1 $141 reversed single #
loop $-1 $-1 $142 $49 #
plane-surface $-1 -46.566362498855554 0 0 1 0 0 0 0 -1 forward_v I I I I #
coedge $-1 $143 $92 $144 $145 forward $50 $-1 #
coedge $-1 $146 $52 $143 $147 forward $33 $-1 #
coedge $-1 $52 $146 $148 $149 forward $33 $-1 #
coedge $-1 $95 $94 $52 $88 reversed $96 $-1 #
edge $-1 $150 -32.283093266670804 $151 32.283093266670804 $87 $152 forward 7 unknown #
coedge $-1 $54 $53 $153 $154 forward $21 $-1 #
coedge $-1 $155 $156 $53 $91 reversed $140 $-1 #
edge $-1 $98 -46.566362498855554 $157 46.566362498855554 $90 $158 forward 7 unknown #
coedge $-1 $84 $159 $54 $93 reversed $50 $-1 #
edge $-1 $160 -46.566362498855554 $97 46.566362498855554 $92 $161 forward 7 unknown #
coedge $-1 $87 $55 $159 $162 forward $96 $-1 #
coedge $-1 $55 $87 $155 $163 reversed $96 $-1 #
loop $-1 $-1 $94 $139 #
vertex $-1 $56 $164 #
vertex $-1 $56 $165 #
straight-curve $-1 46.566362498855554 0 10.844940004665636 0 1 0 I I #
face $-1 $166 $167 $13 $-1 $168 reversed single #
loop $-1 $-1 $105 $57 #
plane-surface $-1 0 -32.283093266670804 0 0 1 0 0 0 1 forward_v I I I I #
coedge $-1 $169 $170 $104 $171 forward $58 $-1 #
coedge $-1 $112 $60 $103 $171 reversed $37 $-1 #
coedge $-1 $110 $172 $60 $106 forward $101 $-1 #
edge $-1 $173 -6.3051872861684908 $114 -2.7743181508257999 $105 $174 forward 7 unknown #
coedge $-1 $62 $61 $175 $176 reversed $24 $-1 #
coedge $-1 $177 $178 $61 $109 forward $179 $-1 #
edge $-1 $180 -25.45770805681185 $113 -16.759600827275559 $108 $181 forward 7 unknown #
coedge $-1 $182 $105 $62 $111 forward $101 $-1 #
edge $-1 $114 16.759600827275559 $183 25.45770805681185 $110 $184 forward 7 unknown #
coedge $-1 $63 $104 $177 $185 reversed $37 $-1 #
vertex $-1 $109 $186 #
vertex $-1 $111 $187 #
straight-curve $-1 -37.868255269319263 0 7.3140708693229453 0 -1 0 I I #
face $-1 $188 $189 $14 $-1 $190 forward single #
loop $-1 $-1 $191 $65 #
plane-surface $-1 0 0 10.844940004665636 0 0 1 1 0 0 forward_v I I I I #
coedge $-1 $192 $193 $191 $194 reversed $66 $-1 #
coedge $-1 $195 $68 $193 $196 reversed $41 $-1 #
coedge $-1 $68 $195 $69 $124 reversed $41 $-1 #
coedge $-1 $71 $191 $68 $123 forward $117 $-1 #
edge $-1 $197 -5.2315458669565054 $128 16.506754220146366 $122 $198 forward 7 unknown #
edge $-1 $128 -13.125532918035194 $199 0 $69 $200 forward 7 unknown #
coedge $-1 $201 $202 $70 $126 forward $203 $-1 #
edge $-1 $129 15.910994098186519 $199 26.662801327138329 $125 $204 forward 7 unknown #
coedge $-1 $205 $71 $202 $206 forward $117 $-1 #
vertex $-1 $123 $207 #
vertex $-1 $206 $208 #
straight-curve $-1 22.144358396741296 -54.286478048137958 10.844940004665638 0 -1 0 I I #
face $-1 $209 $210 $15 $-1 $211 forward single #
loop $-1 $212 $79 $73 #
plane-surface $-1 11.275208353189861 -32.283093266670804 0.093132775713826277 0 -0.81915205242281985 0.57357642473473569 1 0 0 forward_v I I I I #
coedge $-1 $213 $214 $215 $216 reversed $74 $-1 #
coedge $-1 $135 $135 $-1 $217 forward $76 $-1 #
edge $-1 $218 0 $218 6.2831853071796004 $77 $219 forward 7 unknown #
vertex $-1 $80 $220 #
ellipse-curve $-1 11.275208353189861 -28.518845144738449 5.4690363901897321 0 0.81915205242281985 -0.57357642473473569 2 0 0 1 I I #
face $-1 $-1 $96 $12 $-1 $221 reversed single #
loop $-1 $-1 $155 $81 #
plane-surface $-1 0 32.283093266670804 0 0 -1 0 0 0 -1 forward_v I I I I #
coedge $-1 $222 $153 $156 $223 forward $82 $-1 #
coedge $-1 $159 $84 $85 $147 reversed $50 $-1 #
coedge $-1 $153 $222 $84 $145 reversed $82 $-1 #
edge $-1 $160 -10.844940004665636 $224 10.844940004665636 $144 $225 forward 7 unknown #
coedge $-1 $86 $85 $222 $226 forward $33 $-1 #
edge $-1 $151 -46.566362498855554 $224 46.566362498855554 $143 $227 forward 7 unknown #
coedge $-1 $156 $155 $86 $149 reversed $140 $-1 #
edge $-1 $228 -46.566362498855554 $150 46.566362498855554 $148 $229 forward 7 unknown #
vertex $-1 $88 $230 #
vertex $-1 $162 $231 #
straight-curve $-1 46.566362498855554 0 -10.844940004665636 0 -1 0 I I #
coedge $-1 $142 $144 $89 $154 reversed $82 $-1 #
edge $-1 $157 -32.283093266670804 $160 32.283093266670804 $153 $232 forward 7 unknown #
coedge $-1 $148 $90 $95 $163 forward $140 $-1 #
coedge $-1 $90 $148 $142 $223 reversed $140 $-1 #
vertex $-1 $91 $233 #
straight-curve $-1 0 32.283093266670804 10.844940004665636 -1 0 0 I I #
coedge $-1 $92 $143 $94 $162 reversed $50 $-1 #
vertex $-1 $154 $234 #
straight-curve $-1 0 -32.283093266670804 10.844940004665636 1 0 0 I I #
edge $-1 $97 -10.844940004665636 $151 10.844940004665636 $94 $235 forward 7 unknown #
edge $-1 $98 -10.844940004665636 $150 10.844940004665636 $95 $236 forward 7 unknown #
point $-1 46.566362498855554 -32.283093266670804 10.844940004665636 #
point $-1 46.566362498855554 32.283093266670804 10.844940004665636 #
face $-1 $237 $238 $13 $-1 $239 reversed single #
loop $-1 $-1 $240 $100 #
plane-surface $-1 0 0 -10.844940004665636 0 0 1 1 0 0 forward_v I I I I #
coedge $-1 $241 $103 $172 $242 forward $58 $-1 #
coedge $-1 $103 $241 $243 $244 forward $58 $-1 #
edge $-1 $245 -32.283093266670804 $173 32.283093266670804 $103 $246 forward 7 unknown #
coedge $-1 $105 $247 $169 $242 reversed $101 $-1 #
vertex $-1 $242 $248 #
straight-curve $-1 -37.868255269319263 -32.283093266670804 4.5397527184971453 0 0 -1 I I #
coedge $-1 $249 $250 $107 $176 forward $238 $-1 #
edge $-1 $183 -32.283093266670804 $180 32.283093266670804 $175 $251 forward 7 unknown #
coedge $-1 $243 $108 $112 $185 forward $179 $-1 #
coedge $-1 $108 $252 $249 $253 reversed $179 $-1 #
loop $-1 $-1 $177 $237 #
vertex $-1 $253 $254 #
straight-curve $-1 -21.108654442043704 32.283093266670804 7.3140708693229453 1 0 0 I I #
coedge $-1 $255 $110 $250 $256 forward $101 $-1 #
vertex $-1 $256 $257 #
straight-curve $-1 -21.108654442043704 -32.283093266670804 7.3140708693229453 -1 0 0 I I #
edge $-1 $113 2.7743181508257999 $245 6.3051872861684908 $177 $258 forward 7 unknown #
point $-1 -37.868255269319263 32.283093266670804 7.3140708693229453 #
point $-1 -37.868255269319263 -32.283093266670804 7.3140708693229453 #
face $-1 $259 $260 $14 $-1 $261 forward single #
loop $-1 $-1 $262 $116 #
plane-surface $-1 -42.217308884087409 0 7.3140708693229453 0 0 1 1 0 0 forward_v I I I I #
coedge $-1 $122 $263 $119 $194 forward $117 $-1 #
coedge $-1 $193 $119 $264 $265 reversed $66 $-1 #
coedge $-1 $119 $192 $120 $196 forward $66 $-1 #
edge $-1 $266 22.003384781467155 $197 29.531881025331863 $191 $267 forward 7 unknown #
coedge $-1 $121 $120 $201 $268 reversed $41 $-1 #
edge $-1 $269 0 $197 13.125532918035194 $193 $270 forward 7 unknown #
vertex $-1 $123 $271 #
straight-curve $-1 5.6376041765949303 -24.754597022806099 10.844940004665636 1 0 0 I I #
vertex $-1 $268 $272 #
straight-curve $-1 22.144358396741296 -32.283093266670804 0.093132775713826277 0 -0.57357642473473569 -0.81915205242281985 I I #
coedge $-1 $264 $125 $195 $268 forward $203 $-1 #
coedge $-1 $125 $273 $127 $206 reversed $203 $-1 #
loop $-1 $-1 $264 $259 #
straight-curve $-1 22.144358396741296 -32.283093266670804 26.755934102852155 0 0 -1 I I #
coedge $-1 $274 $127 $275 $276 forward $117 $-1 #
edge $-1 $129 22.144358396741296 $277 46.566362498855554 $202 $278 forward 7 unknown #
point $-1 22.144358396741296 -24.754597022806095 10.844940004665636 #
point $-1 22.144358396741296 -32.283093266670804 10.844940004665636 #
face $-1 $279 $280 $15 $-1 $281 forward single #
loop $-1 $-1 $282 $131 #
plane-surface $-1 0.40605830963842493 -108.57295609627592 53.51186820570431 1 0 0 0 0.81915205242281985 -0.57357642473473569 forward_v I I I I #
loop $-1 $-1 $283 $73 #
coedge $-1 $214 $134 $284 $285 forward $74 $-1 #
coedge $-1 $134 $213 $286 $287 reversed $74 $-1 #
coedge $-1 $288 $289 $134 $216 forward $280 $-1 #
edge $-1 $290 -29.531881025331863 $291 -22.003384781467155 $215 $292 forward 7 unknown #
edge $-1 $293 1 $293 0 $135 $-1 forward 7 unknown #
vertex $-1 $136 $294 #
ellipse-curve $-1 11.275208353189861 -25.053442223908 3.0425352153269412 0 -0.81915205242281985 0.57357642473473569 2 0 0 1 I I #
point $-1 13.275208353189861 -28.518845144738449 5.4690363901897312 #
plane-surface $-1 46.566362498855554 0 0 -1 0 0 0 0 1 forward_v I I I I #
coedge $-1 $144 $142 $146 $226 reversed $82 $-1 #
edge $-1 $157 -10.844940004665636 $228 10.844940004665636 $156 $295 forward 7 unknown #
vertex $-1 $226 $296 #
straight-curve $-1 -46.566362498855554 -32.283093266670804 0 0 0 -1 I I #
edge $-1 $224 -32.283093266670804 $228 32.283093266670804 $222 $297 forward 7 unknown #
straight-curve $-1 0 -32.283093266670804 -10.844940004665636 -1 0 0 I I #
vertex $-1 $149 $298 #
straight-curve $-1 0 32.283093266670804 -10.844940004665636 1 0 0 I I #
point $-1 46.566362498855554 32.283093266670804 -10.844940004665636 #
point $-1 46.566362498855554 -32.283093266670804 -10.844940004665636 #
straight-curve $-1 -46.566362498855554 0 10.844940004665636 0 -1 0 I I #
point $-1 -46.566362498855554 32.283093266670804 10.844940004665636 #
point $-1 -46.566362498855554 -32.283093266670804 10.844940004665636 #
straight-curve $-1 46.566362498855554 -32.283093266670804 0 0 0 -1 I I #
straight-curve $-1 46.566362498855554 32.283093266670804 0 0 0 -1 I I #
face $-1 $299 $179 $13 $-1 $300 reversed single #
loop $-1 $-1 $175 $166 #
plane-surface $-1 -46.566362498855554 0 0 1 0 0 0 0 -1 forward_v I I I I #
coedge $-1 $301 $302 $303 $304 forward $167 $-1 #
coedge $-1 $170 $169 $305 $306 forward $58 $-1 #
edge $-1 $173 -37.868255269319263 $307 46.566362498855554 $172 $308 forward 7 unknown #
coedge $-1 $309 $177 $170 $244 reversed $179 $-1 #
edge $-1 $310 -46.566362498855554 $245 37.868255269319263 $243 $311 forward 7 unknown #
vertex $-1 $171 $312 #
straight-curve $-1 -37.868255269319263 0 10.844940004665636 0 -1 0 I I #
coedge $-1 $172 $255 $313 $314 reversed $101 $-1 #
point $-1 -37.868255269319263 -32.283093266670804 10.844940004665636 #
coedge $-1 $315 $175 $178 $253 forward $238 $-1 #
coedge $-1 $175 $315 $182 $256 reversed $238 $-1 #
straight-curve $-1 -46.566362498855554 0 7.3140708693229453 0 1 0 I I #
coedge $-1 $178 $309 $302 $316 reversed $179 $-1 #
edge $-1 $180 -7.3140708693229453 $317 10.844940004665636 $178 $318 forward 7 unknown #
point $-1 -46.566362498855554 32.283093266670804 7.3140708693229453 #
coedge $-1 $247 $182 $301 $319 reversed $101 $-1 #
edge $-1 $183 -7.3140708693229453 $320 10.844940004665636 $250 $321 forward 7 unknown #
point $-1 -46.566362498855554 -32.283093266670804 7.3140708693229453 #
straight-curve $-1 -37.868255269319263 32.283093266670804 4.5397527184971453 0 0 1 I I #
face $-1 $322 $203 $14 $-1 $323 reversed single #
loop $-1 $-1 $324 $188 #
plane-surface $-1 -37.868255269319263 0 9.0795054369942907 -1 0 0 0 0 1 forward_v I I I I #
coedge $-1 $325 $326 $327 $328 reversed $189 $-1 #
coedge $-1 $191 $329 $330 $331 forward $117 $-1 #
coedge $-1 $330 $201 $192 $265 forward $203 $-1 #
edge $-1 $269 -26.662801327138329 $266 -15.910994098186519 $264 $332 forward 7 unknown #
vertex $-1 $265 $333 #
straight-curve $-1 0.40605830963842493 -54.286478048137958 10.844940004665638 0 1 0 I I #
edge $-1 $199 -16.506754220146366 $269 5.2315458669565054 $201 $334 forward 7 unknown #
vertex $-1 $268 $335 #
straight-curve $-1 0.40605830963842493 -32.283093266670804 0.093132775713826277 0 0.57357642473473569 0.81915205242281985 I I #
point $-1 0.40605830963842493 -24.754597022806095 10.844940004665636 #
point $-1 22.144358396741296 -32.283093266670804 0.093132775713826277 #
coedge $-1 $202 $336 $337 $338 reversed $203 $-1 #
coedge $-1 $329 $205 $339 $340 forward $117 $-1 #
coedge $-1 $337 $341 $205 $276 reversed $342 $-1 #
edge $-1 $277 -32.283093266670804 $343 32.283093266670804 $275 $344 forward 7 unknown #
vertex $-1 $276 $345 #
straight-curve $-1 0 -32.283093266670804 10.844940004665636 1 0 0 I I #
face $-1 $346 $347 $15 $-1 $348 forward single #
loop $-1 $-1 $349 $209 #
plane-surface $-1 0 0 10.844940004665636 0 0 1 1 0 0 forward_v I I I I #
coedge $-1 $350 $351 $349 $352 reversed $210 $-1 #
coedge $-1 $353 $284 $289 $354 reversed $212 $-1 #
coedge $-1 $283 $355 $213 $285 reversed $212 $-1 #
edge $-1 $290 -13.125532918035194 $356 0 $213 $357 forward 7 unknown #
coedge $-1 $358 $359 $214 $287 forward $360 $-1 #
edge $-1 $291 15.910994098186519 $356 26.662801327138329 $286 $361 forward 7 unknown #
coedge $-1 $362 $215 $359 $363 forward $280 $-1 #
coedge $-1 $215 $349 $283 $354 forward $280 $-1 #
vertex $-1 $354 $364 #
vertex $-1 $363 $365 #
straight-curve $-1 22.144358396741296 -54.286478048137958 10.844940004665638 0 -1 0 I I #
vertex $-1 $217 $366 #
point $-1 13.275208353189861 -25.053442223908 3.0425352153269412 #
straight-curve $-1 -46.566362498855554 32.283093266670804 0 0 0 -1 I I #
point $-1 -46.566362498855554 -32.283093266670804 -10.844940004665636 #
straight-curve $-1 -46.566362498855554 0 -10.844940004665636 0 1 0 I I #
point $-1 -46.566362498855554 32.283093266670804 -10.844940004665636 #
face $-1 $-1 $367 $13 $-1 $368 reversed single #
plane-surface $-1 0 32.283093266670804 0 0 -1 0 0 0 -1 forward_v I I I I #
coedge $-1 $369 $240 $255 $319 forward $167 $-1 #
coedge $-1 $240 $369 $252 $316 forward $167 $-1 #
coedge $-1 $370 $313 $240 $304 reversed $367 $-1 #
edge $-1 $371 -32.283093266670804 $372 32.283093266670804 $303 $373 forward 7 unknown #
coedge $-1 $313 $370 $241 $306 reversed $367 $-1 #
edge $-1 $307 -32.283093266670804 $310 32.283093266670804 $305 $374 forward 7 unknown #
vertex $-1 $306 $375 #
straight-curve $-1 0 -32.283093266670804 10.844940004665636 1 0 0 I I #
coedge $-1 $252 $243 $370 $376 forward $179 $-1 #
vertex $-1 $306 $377 #
straight-curve $-1 0 32.283093266670804 10.844940004665636 -1 0 0 I I #
point $-1 -37.868255269319263 32.283093266670804 10.844940004665636 #
coedge $-1 $303 $305 $247 $314 forward $367 $-1 #
edge $-1 $307 -10.844940004665636 $372 10.844940004665636 $313 $378 forward 7 unknown #
coedge $-1 $250 $249 $369 $379 reversed $238 $-1 #
edge $-1 $317 -46.566362498855554 $371 46.566362498855554 $252 $380 forward 7 unknown #
vertex $-1 $316 $381 #
straight-curve $-1 -46.566362498855554 32.283093266670804 0 0 0 -1 I I #
edge $-1 $372 -46.566362498855554 $320 46.566362498855554 $255 $382 forward 7 unknown #
vertex $-1 $379 $383 #
straight-curve $-1 -46.566362498855554 -32.283093266670804 0 0 0 -1 I I #
face $-1 $384 $385 $14 $-1 $386 reversed single #
plane-surface $-1 0 -32.283093266670804 0 0 1 0 0 0 1 forward_v I I I I #
coedge $-1 $387 $327 $388 $389 reversed $260 $-1 #
coedge $-1 $390 $262 $391 $392 reversed $189 $-1 #
coedge $-1 $262 $390 $393 $394 reversed $189 $-1 #
coedge $-1 $324 $395 $262 $328 forward $260 $-1 #
edge $-1 $396 -32.283093266670804 $397 32.283093266670804 $327 $398 forward 7 unknown #
coedge $-1 $263 $274 $387 $399 forward $117 $-1 #
coedge $-1 $388 $264 $263 $331 reversed $203 $-1 #
edge $-1 $400 -37.868255269319263 $266 0.40605830963842493 $330 $278 forward 7 unknown #
straight-curve $-1 0.40605830963842493 -32.283093266670804 26.755934102852155 0 0 1 I I #
point $-1 0.40605830963842493 -32.283093266670804 10.844940004665636 #
straight-curve $-1 5.6376041765949303 -32.283093266670804 0.093132775713822238 -1 0 0 I I #
point $-1 0.40605830963842493 -32.283093266670804 0.093132775713826277 #
coedge $-1 $273 $401 $402 $403 reversed $203 $-1 #
coedge $-1 $404 $275 $273 $338 forward $342 $-1 #
edge $-1 $277 -10.844940004665636 $405 10.844940004665636 $337 $406 forward 7 unknown #
coedge $-1 $407 $408 $274 $340 reversed $409 $-1 #
edge $-1 $343 -46.566362498855554 $410 37.868255269319263 $339 $411 forward 7 unknown #
coedge $-1 $275 $404 $407 $412 reversed $342 $-1 #
loop $-1 $-1 $337 $413 #
vertex $-1 $276 $414 #
straight-curve $-1 46.566362498855554 0 10.844940004665636 0 1 0 I I #
point $-1 46.566362498855554 -32.283093266670804 10.844940004665636 #
face $-1 $415 $416 $15 $-1 $417 forward single #
loop $-1 $-1 $418 $279 #
plane-surface $-1 -42.217308884087409 0 7.3140708693229453 0 0 1 1 0 0 forward_v I I I I #
coedge $-1 $289 $419 $282 $352 forward $280 $-1 #
coedge $-1 $351 $282 $420 $421 reversed $210 $-1 #
coedge $-1 $282 $350 $353 $422 forward $210 $-1 #
edge $-1 $423 22.003384781467155 $424 29.531881025331863 $349 $425 forward 7 unknown #
coedge $-1 $355 $283 $351 $422 reversed $212 $-1 #
edge $-1 $424 -5.2315458669565054 $290 16.506754220146366 $289 $426 forward 7 unknown #
coedge $-1 $284 $353 $358 $427 reversed $212 $-1 #
vertex $-1 $427 $428 #
straight-curve $-1 22.144358396741296 -32.283093266670804 0.093132775713826277 0 -0.57357642473473569 -0.81915205242281985 I I #
coedge $-1 $420 $286 $355 $427 forward $360 $-1 #
coedge $-1 $286 $429 $288 $363 reversed $360 $-1 #
loop $-1 $-1 $420 $415 #
straight-curve $-1 22.144358396741296 -32.283093266670804 26.755934102852155 0 0 -1 I I #
coedge $-1 $430 $288 $431 $432 forward $280 $-1 #
edge $-1 $291 22.144358396741296 $433 46.566362498855554 $359 $434 forward 7 unknown #
point $-1 22.144358396741296 -24.754597022806095 10.844940004665636 #
point $-1 22.144358396741296 -32.283093266670804 10.844940004665636 #
point $-1 11.275208353189861 -23.415138119062362 1.89538236585747 #
loop $-1 $-1 $313 $299 #
plane-surface $-1 46.566362498855554 0 0 -1 0 0 0 0 1 forward_v I I I I #
coedge $-1 $302 $301 $315 $379 forward $167 $-1 #
coedge $-1 $305 $303 $309 $376 reversed $367 $-1 #
vertex $-1 $304 $435 #
vertex $-1 $314 $436 #
straight-curve $-1 46.566362498855554 0 -10.844940004665636 0 -1 0 I I #
straight-curve $-1 46.566362498855554 0 10.844940004665636 0 1 0 I I #
point $-1 46.566362498855554 -32.283093266670804 10.844940004665636 #
edge $-1 $310 -10.844940004665636 $371 10.844940004665636 $370 $437 forward 7 unknown #
point $-1 46.566362498855554 32.283093266670804 10.844940004665636 #
straight-curve $-1 46.566362498855554 -32.283093266670804 0 0 0 -1 I I #
edge $-1 $320 -32.283093266670804 $317 32.283093266670804 $315 $438 forward 7 unknown #
straight-curve $-1 0 32.283093266670804 -10.844940004665636 1 0 0 I I #
point $-1 -46.566362498855554 32.283093266670804 -10.844940004665636 #
straight-curve $-1 0 -32.283093266670804 -10.844940004665636 -1 0 0 I I #
point $-1 -46.566362498855554 -32.283093266670804 -10.844940004665636 #
face $-1 $439 $440 $14 $-1 $441 reversed single #
loop $-1 $-1 $442 $322 #
plane-surface $-1 0 0 -10.844940004665636 0 0 1 1 0 0 forward_v I I I I #
coedge $-1 $395 $324 $329 $399 reversed $260 $-1 #
coedge $-1 $393 $330 $324 $389 forward $203 $-1 #
edge $-1 $400 -6.3051872861684908 $397 -2.7743181508257999 $388 $443 forward 7 unknown #
coedge $-1 $326 $325 $444 $445 reversed $189 $-1 #
coedge $-1 $408 $446 $325 $392 forward $409 $-1 #
edge $-1 $447 -25.45770805681185 $396 -16.759600827275559 $391 $448 forward 7 unknown #
coedge $-1 $401 $388 $326 $394 forward $203 $-1 #
edge $-1 $397 16.759600827275559 $449 25.45770805681185 $393 $450 forward 7 unknown #
coedge $-1 $327 $387 $408 $451 reversed $260 $-1 #
vertex $-1 $392 $452 #
vertex $-1 $394 $453 #
straight-curve $-1 -37.868255269319263 0 7.3140708693229453 0 -1 0 I I #
edge $-1 $410 -32.283093266670804 $400 32.283093266670804 $329 $454 forward 7 unknown #
vertex $-1 $331 $455 #
coedge $-1 $336 $393 $456 $457 forward $203 $-1 #
coedge $-1 $458 $442 $336 $403 forward $385 $-1 #
edge $-1 $405 -46.566362498855554 $459 46.566362498855554 $336 $460 forward 7 unknown #
coedge $-1 $341 $337 $442 $461 reversed $342 $-1 #
vertex $-1 $338 $462 #
straight-curve $-1 46.566362498855554 -32.283093266670804 0 0 0 -1 I I #
coedge $-1 $463 $339 $341 $412 forward $409 $-1 #
coedge $-1 $339 $391 $395 $451 forward $409 $-1 #
loop $-1 $-1 $408 $439 #
vertex $-1 $399 $464 #
straight-curve $-1 0 32.283093266670804 10.844940004665636 -1 0 0 I I #
edge $-1 $343 -10.844940004665636 $465 10.844940004665636 $341 $466 forward 7 unknown #
face $-1 $-1 $342 $14 $-1 $467 reversed single #
point $-1 46.566362498855554 32.283093266670804 10.844940004665636 #
face $-1 $468 $360 $15 $-1 $469 reversed single #
loop $-1 $-1 $470 $346 #
plane-surface $-1 -37.868255269319263 0 9.0795054369942907 -1 0 0 0 0 1 forward_v I I I I #
coedge $-1 $471 $472 $473 $474 reversed $347 $-1 #
coedge $-1 $349 $475 $476 $477 forward $280 $-1 #
coedge $-1 $476 $358 $350 $421 forward $360 $-1 #
edge $-1 $478 -26.662801327138329 $423 -15.910994098186519 $420 $479 forward 7 unknown #
edge $-1 $478 0 $424 13.125532918035194 $351 $480 forward 7 unknown #
vertex $-1 $421 $481 #
vertex $-1 $354 $482 #
straight-curve $-1 0.40605830963842493 -54.286478048137958 10.844940004665638 0 1 0 I I #
straight-curve $-1 5.6376041765949303 -24.754597022806099 10.844940004665636 1 0 0 I I #
edge $-1 $356 -16.506754220146366 $478 5.2315458669565054 $358 $483 forward 7 unknown #
point $-1 22.144358396741296 -32.283093266670804 0.093132775713826277 #
coedge $-1 $359 $484 $485 $486 reversed $360 $-1 #
coedge $-1 $475 $362 $487 $488 forward $280 $-1 #
coedge $-1 $485 $489 $362 $432 reversed $490 $-1 #
edge $-1 $433 -32.283093266670804 $491 32.283093266670804 $431 $492 forward 7 unknown #
vertex $-1 $432 $493 #
straight-curve $-1 0 -32.283093266670804 10.844940004665636 1 0 0 I I #
point $-1 46.566362498855554 32.283093266670804 -10.844940004665636 #
point $-1 46.566362498855554 -32.283093266670804 -10.844940004665636 #
straight-curve $-1 46.566362498855554 32.283093266670804 0 0 0 -1 I I #
straight-curve $-1 -46.566362498855554 0 -10.844940004665636 0 1 0 I I #
face $-1 $413 $409 $14 $-1 $494 reversed single #
loop $-1 $-1 $444 $384 #
plane-surface $-1 -46.566362498855554 0 0 1 0 0 0 0 -1 forward_v I I I I #
coedge $-1 $402 $495 $404 $461 forward $385 $-1 #
straight-curve $-1 -37.868255269319263 -32.283093266670804 4.5397527184971453 0 0 -1 I I #
coedge $-1 $496 $456 $390 $445 forward $440 $-1 #
edge $-1 $449 -32.283093266670804 $447 32.283093266670804 $444 $497 forward 7 unknown #
coedge $-1 $391 $463 $496 $498 reversed $409 $-1 #
vertex $-1 $498 $499 #
straight-curve $-1 -21.108654442043704 32.283093266670804 7.3140708693229453 1 0 0 I I #
vertex $-1 $457 $500 #
straight-curve $-1 -21.108654442043704 -32.283093266670804 7.3140708693229453 -1 0 0 I I #
edge $-1 $396 2.7743181508257999 $410 6.3051872861684908 $408 $501 forward 7 unknown #
point $-1 -37.868255269319263 32.283093266670804 7.3140708693229453 #
point $-1 -37.868255269319263 -32.283093266670804 7.3140708693229453 #
straight-curve $-1 -37.868255269319263 0 10.844940004665636 0 -1 0 I I #
point $-1 -37.868255269319263 -32.283093266670804 10.844940004665636 #
coedge $-1 $444 $502 $401 $457 reversed $440 $-1 #
edge $-1 $449 -7.3140708693229453 $459 10.844940004665636 $456 $503 forward 7 unknown #
coedge $-1 $495 $402 $502 $504 forward $385 $-1 #
vertex $-1 $504 $505 #
straight-curve $-1 0 -32.283093266670804 -10.844940004665636 -1 0 0 I I #
edge $-1 $465 -32.283093266670804 $405 32.283093266670804 $404 $506 forward 7 unknown #
point $-1 46.566362498855554 -32.283093266670804 -10.844940004665636 #
coedge $-1 $446 $407 $495 $507 reversed $409 $-1 #
point $-1 -37.868255269319263 32.283093266670804 10.844940004665636 #
vertex $-1 $461 $508 #
straight-curve $-1 46.566362498855554 32.283093266670804 0 0 0 -1 I I #
plane-surface $-1 46.566362498855554 0 0 -1 0 0 0 0 1 forward_v I I I I #
face $-1 $509 $510 $15 $-1 $511 reversed single #
plane-surface $-1 0 -32.283093266670804 0 0 1 0 0 0 1 forward_v I I I I #
coedge $-1 $512 $473 $513 $514 reversed $416 $-1 #
coedge $-1 $515 $418 $516 $517 reversed $347 $-1 #
coedge $-1 $418 $515 $518 $519 reversed $347 $-1 #
coedge $-1 $470 $520 $418 $474 forward $416 $-1 #
edge $-1 $521 -32.283093266670804 $522 32.283093266670804 $473 $523 forward 7 unknown #
coedge $-1 $419 $430 $512 $524 forward $280 $-1 #
coedge $-1 $513 $420 $419 $477 reversed $360 $-1 #
edge $-1 $525 -37.868255269319263 $423 0.40605830963842493 $476 $434 forward 7 unknown #
vertex $-1 $427 $526 #
straight-curve $-1 0.40605830963842493 -32.283093266670804 26.755934102852155 0 0 1 I I #
straight-curve $-1 0.40605830963842493 -32.283093266670804 0.093132775713826277 0 0.57357642473473569 0.81915205242281985 I I #
point $-1 0.40605830963842493 -32.283093266670804 10.844940004665636 #
point $-1 0.40605830963842493 -24.754597022806095 10.844940004665636 #
straight-curve $-1 5.6376041765949303 -32.283093266670804 0.093132775713822238 -1 0 0 I I #
coedge $-1 $429 $527 $528 $529 reversed $360 $-1 #
coedge $-1 $530 $431 $429 $486 forward $490 $-1 #
edge $-1 $433 -10.844940004665636 $531 10.844940004665636 $485 $532 forward 7 unknown #
coedge $-1 $533 $534 $430 $488 reversed $535 $-1 #
edge $-1 $491 -46.566362498855554 $536 37.868255269319263 $487 $537 forward 7 unknown #
coedge $-1 $431 $530 $533 $538 reversed $490 $-1 #
loop $-1 $-1 $485 $539 #
vertex $-1 $432 $540 #
straight-curve $-1 46.566362498855554 0 10.844940004665636 0 1 0 I I #
point $-1 46.566362498855554 -32.283093266670804 10.844940004665636 #
plane-surface $-1 0 32.283093266670804 0 0 -1 0 0 0 -1 forward_v I I I I #
coedge $-1 $442 $458 $463 $507 forward $385 $-1 #
coedge $-1 $502 $444 $446 $498 forward $440 $-1 #
straight-curve $-1 -46.566362498855554 0 7.3140708693229453 0 1 0 I I #
edge $-1 $447 -7.3140708693229453 $541 10.844940004665636 $446 $542 forward 7 unknown #
point $-1 -46.566362498855554 32.283093266670804 7.3140708693229453 #
point $-1 -46.566362498855554 -32.283093266670804 7.3140708693229453 #
straight-curve $-1 -37.868255269319263 32.283093266670804 4.5397527184971453 0 0 1 I I #
coedge $-1 $456 $496 $458 $504 reversed $440 $-1 #
straight-curve $-1 -46.566362498855554 -32.283093266670804 0 0 0 -1 I I #
edge $-1 $459 -32.283093266670804 $541 32.283093266670804 $502 $543 forward 7 unknown #
point $-1 -46.566362498855554 -32.283093266670804 -10.844940004665636 #
straight-curve $-1 46.566362498855554 0 -10.844940004665636 0 -1 0 I I #
edge $-1 $541 -46.566362498855554 $465 46.566362498855554 $463 $544 forward 7 unknown #
point $-1 46.566362498855554 32.283093266670804 -10.844940004665636 #
face $-1 $545 $546 $15 $-1 $547 reversed single #
loop $-1 $-1 $548 $468 #
plane-surface $-1 0 0 -10.844940004665636 0 0 1 1 0 0 forward_v I I I I #
coedge $-1 $520 $470 $475 $524 reversed $416 $-1 #
coedge $-1 $518 $476 $470 $514 forward $360 $-1 #
edge $-1 $525 -6.3051872861684908 $522 -2.7743181508257999 $513 $549 forward 7 unknown #
coedge $-1 $472 $471 $550 $551 reversed $347 $-1 #
coedge $-1 $534 $552 $471 $517 forward $535 $-1 #
edge $-1 $553 -25.45770805681185 $521 -16.759600827275559 $516 $554 forward 7 unknown #
coedge $-1 $527 $513 $472 $519 forward $360 $-1 #
edge $-1 $522 16.759600827275559 $555 25.45770805681185 $518 $556 forward 7 unknown #
coedge $-1 $473 $512 $534 $557 reversed $416 $-1 #
vertex $-1 $517 $558 #
vertex $-1 $519 $559 #
straight-curve $-1 -37.868255269319263 0 7.3140708693229453 0 -1 0 I I #
edge $-1 $536 -32.283093266670804 $525 32.283093266670804 $475 $560 forward 7 unknown #
vertex $-1 $477 $561 #
point $-1 0.40605830963842493 -32.283093266670804 0.093132775713826277 #
coedge $-1 $484 $518 $562 $563 forward $360 $-1 #
coedge $-1 $564 $548 $484 $529 forward $510 $-1 #
edge $-1 $531 -46.566362498855554 $565 46.566362498855554 $484 $566 forward 7 unknown #
coedge $-1 $489 $485 $548 $567 reversed $490 $-1 #
vertex $-1 $486 $568 #
straight-curve $-1 46.566362498855554 -32.283093266670804 0 0 0 -1 I I #
coedge $-1 $569 $487 $489 $538 forward $535 $-1 #
coedge $-1 $487 $516 $520 $557 forward $535 $-1 #
loop $-1 $-1 $534 $545 #
vertex $-1 $524 $570 #
straight-curve $-1 0 32.283093266670804 10.844940004665636 -1 0 0 I I #
edge $-1 $491 -10.844940004665636 $571 10.844940004665636 $489 $572 forward 7 unknown #
face $-1 $-1 $490 $15 $-1 $573 reversed single #
point $-1 46.566362498855554 32.283093266670804 10.844940004665636 #
vertex $-1 $507 $574 #
straight-curve $-1 -46.566362498855554 32.283093266670804 0 0 0 -1 I I #
straight-curve $-1 -46.566362498855554 0 -10.844940004665636 0 1 0 I I #
straight-curve $-1 0 32.283093266670804 -10.844940004665636 1 0 0 I I #
face $-1 $539 $535 $15 $-1 $575 reversed single #
loop $-1 $-1 $550 $509 #
plane-surface $-1 -46.566362498855554 0 0 1 0 0 0 0 -1 forward_v I I I I #
coedge $-1 $528 $576 $530 $567 forward $510 $-1 #
straight-curve $-1 -37.868255269319263 -32.283093266670804 4.5397527184971453 0 0 -1 I I #
coedge $-1 $577 $562 $515 $551 forward $546 $-1 #
edge $-1 $555 -32.283093266670804 $553 32.283093266670804 $550 $578 forward 7 unknown #
coedge $-1 $516 $569 $577 $579 reversed $535 $-1 #
vertex $-1 $579 $580 #
straight-curve $-1 -21.108654442043704 32.283093266670804 7.3140708693229453 1 0 0 I I #
vertex $-1 $563 $581 #
straight-curve $-1 -21.108654442043704 -32.283093266670804 7.3140708693229453 -1 0 0 I I #
edge $-1 $521 2.7743181508257999 $536 6.3051872861684908 $534 $582 forward 7 unknown #
point $-1 -37.868255269319263 32.283093266670804 7.3140708693229453 #
point $-1 -37.868255269319263 -32.283093266670804 7.3140708693229453 #
straight-curve $-1 -37.868255269319263 0 10.844940004665636 0 -1 0 I I #
point $-1 -37.868255269319263 -32.283093266670804 10.844940004665636 #
coedge $-1 $550 $583 $527 $563 reversed $546 $-1 #
edge $-1 $555 -7.3140708693229453 $565 10.844940004665636 $562 $584 forward 7 unknown #
coedge $-1 $576 $528 $583 $585 forward $510 $-1 #
vertex $-1 $585 $586 #
straight-curve $-1 0 -32.283093266670804 -10.844940004665636 -1 0 0 I I #
edge $-1 $571 -32.283093266670804 $531 32.283093266670804 $530 $587 forward 7 unknown #
point $-1 46.566362498855554 -32.283093266670804 -10.844940004665636 #
coedge $-1 $552 $533 $576 $588 reversed $535 $-1 #
point $-1 -37.868255269319263 32.283093266670804 10.844940004665636 #
vertex $-1 $567 $589 #
straight-curve $-1 46.566362498855554 32.283093266670804 0 0 0 -1 I I #
plane-surface $-1 46.566362498855554 0 0 -1 0 0 0 0 1 forward_v I I I I #
point $-1 -46.566362498855554 32.283093266670804 -10.844940004665636 #
plane-surface $-1 0 32.283093266670804 0 0 -1 0 0 0 -1 forward_v I I I I #
coedge $-1 $548 $564 $569 $588 forward $510 $-1 #
coedge $-1 $583 $550 $552 $579 forward $546 $-1 #
straight-curve $-1 -46.566362498855554 0 7.3140708693229453 0 1 0 I I #
edge $-1 $553 -7.3140708693229453 $590 10.844940004665636 $552 $591 forward 7 unknown #
point $-1 -46.566362498855554 32.283093266670804 7.3140708693229453 #
point $-1 -46.566362498855554 -32.283093266670804 7.3140708693229453 #
straight-curve $-1 -37.868255269319263 32.283093266670804 4.5397527184971453 0 0 1 I I #
coedge $-1 $562 $577 $564 $585 reversed $546 $-1 #
straight-curve $-1 -46.566362498855554 -32.283093266670804 0 0 0 -1 I I #
edge $-1 $565 -32.283093266670804 $590 32.283093266670804 $583 $592 forward 7 unknown #
point $-1 -46.566362498855554 -32.283093266670804 -10.844940004665636 #
straight-curve $-1 46.566362498855554 0 -10.844940004665636 0 -1 0 I I #
edge $-1 $590 -46.566362498855554 $571 46.566362498855554 $569 $593 forward 7 unknown #
point $-1 46.566362498855554 32.283093266670804 -10.844940004665636 #
vertex $-1 $588 $594 #
straight-curve $-1 -46.566362498855554 32.283093266670804 0 0 0 -1 I I #
straight-curve $-1 -46.566362498855554 0 -10.844940004665636 0 1 0 I I #
straight-curve $-1 0 32.283093266670804 -10.844940004665636 1 0 0 I I #
point $-1 -46.566362498855554 32.283093266670804 -10.844940004665636 #
End-of-ACIS-data 