500 0 10 0           
7 Unknown 11 ACIS 5.0 NT 24 Thu Mar 25 16:12:31 1999 
-1 9.9999999999999995e-007 1e-010 
body $-1 $10 $-1 $11 #
body $-1 $12 $-1 $13 #
body $-1 $14 $-1 $15 #
body $-1 $16 $-1 $17 #
body $-1 $18 $-1 $19 #
body $-1 $20 $-1 $21 #
body $-1 $22 $-1 $23 #
body $-1 $24 $-1 $25 #
body $-1 $26 $-1 $27 #
body $-1 $28 $-1 $29 #
lump $-1 $-1 $30 $0 #
transform $-1 1 0 0 0 1 0 0 0 1 76.397595141453294 34.981737669723287 10.972268046337719 1 rotate no_reflect no_shear #
lump $-1 $-1 $31 $1 #
transform $-1 1 0 0 0 1 0 0 0 1 76.397595141453294 34.981737669723287 10.972268046337719 1 rotate no_reflect no_shear #
lump $-1 $-1 $32 $2 #
transform $-1 1 0 0 0 1 0 0 0 1 76.397595141453294 34.981737669723287 10.972268046337719 1 rotate no_reflect no_shear #
lump $-1 $-1 $33 $3 #
transform $-1 1 0 0 0 1 0 0 0 1 76.397595141453294 34.981737669723287 10.972268046337719 1 rotate no_reflect no_shear #
lump $-1 $-1 $34 $4 #
transform $-1 1 0 0 0 1 0 0 0 1 76.397595141453294 34.981737669723287 10.972268046337719 1 rotate no_reflect no_shear #
lump $-1 $-1 $35 $5 #
transform $-1 1 0 0 0 1 0 0 0 1 76.397595141453294 34.981737669723287 10.972268046337719 1 rotate no_reflect no_shear #
lump $-1 $-1 $36 $6 #
transform $-1 1 0 0 0 1 0 0 0 1 76.397595141453294 34.981737669723287 10.972268046337719 1 rotate no_reflect no_shear #
lump $-1 $-1 $37 $7 #
transform $-1 1 0 0 0 1 0 0 0 1 76.397595141453294 34.981737669723287 10.972268046337719 1 rotate no_reflect no_shear #
lump $-1 $-1 $38 $8 #
transform $-1 1 0 0 0 1 0 0 0 1 76.397595141453294 34.981737669723287 10.972268046337719 1 rotate no_reflect no_shear #
lump $-1 $-1 $39 $9 #
transform $-1 1 0 0 0 1 0 0 0 1 76.397595141453294 34.981737669723287 10.972268046337719 1 rotate no_reflect no_shear #
shell $-1 $-1 $-1 $40 $-1 $10 #
shell $-1 $-1 $-1 $41 $-1 $12 #
shell $-1 $-1 $-1 $42 $-1 $14 #
shell $-1 $-1 $-1 $43 $-1 $16 #
shell $-1 $-1 $-1 $44 $-1 $18 #
shell $-1 $-1 $-1 $45 $-1 $20 #
shell $-1 $-1 $-1 $46 $-1 $22 #
shell $-1 $-1 $-1 $47 $-1 $24 #
shell $-1 $-1 $-1 $48 $-1 $26 #
shell $-1 $-1 $-1 $49 $-1 $28 #
face $-1 $50 $51 $30 $-1 $52 forward single #
face $-1 $53 $54 $31 $-1 $55 forward single #
face $-1 $56 $57 $32 $-1 $58 reversed single #
face $-1 $59 $60 $33 $-1 $61 forward single #
face $-1 $62 $63 $34 $-1 $64 reversed single #
face $-1 $65 $66 $35 $-1 $67 forward single #
face $-1 $68 $69 $36 $-1 $70 reversed single #
face $-1 $71 $72 $37 $-1 $73 forward single #
face $-1 $74 $75 $38 $-1 $76 reversed single #
face $-1 $77 $78 $39 $-1 $79 forward single #
face $-1 $80 $81 $30 $-1 $82 reversed single #
loop $-1 $-1 $83 $40 #
plane-surface $-1 0 0 10.972268046337719 0 0 1 1 0 0 forward_v I I I I #
face $-1 $84 $85 $31 $-1 $86 reversed single #
loop $-1 $-1 $87 $41 #
plane-surface $-1 0 -30.49543051812633 -7.2630541070304009 0 0 1 1 0 0 forward_v I I I I #
face $-1 $88 $89 $32 $-1 $90 reversed single #
loop $-1 $-1 $91 $42 #
plane-surface $-1 -207.3686371536499 -26.009123366529376 81.548538147018164 0 1 0 -0.85716730853699208 0 0.51503806187062418 forward_v I I I I #
face $-1 $92 $93 $33 $-1 $94 forward single #
loop $-1 $95 $96 $43 #
cone-surface $-1 -72.920974895937562 -22.885940648596964 6.2893973451116025 0.85716730853699208 0 -0.51503806187062418 0.77255709280593621 0 1.2857509628054882 1 I I 0 1 1.5 forward I I I I #
face $-1 $97 $98 $34 $-1 $99 reversed single #
loop $-1 $-1 $100 $44 #
plane-surface $-1 -207.3686371536499 -10.761408107466213 81.548538147018164 0 1 0 -0.85716730853699208 0 0.51503806187062418 forward_v I I I I #
face $-1 $101 $102 $35 $-1 $103 forward single #
loop $-1 $104 $105 $45 #
cone-surface $-1 -72.920974895937562 -7.638225389533801 6.2893973451116025 0.85716730853699208 0 -0.51503806187062418 0.77255709280593621 0 1.2857509628054882 1 I I 0 1 1.5 forward I I I I #
face $-1 $106 $107 $36 $-1 $108 reversed single #
loop $-1 $-1 $109 $46 #
plane-surface $-1 -207.3686371536499 4.486307151596951 81.548538147018164 0 1 0 -0.85716730853699208 0 0.51503806187062418 forward_v I I I I #
face $-1 $110 $111 $37 $-1 $112 forward single #
loop $-1 $113 $114 $47 #
cone-surface $-1 -72.920974895937562 7.6094898695293622 6.2893973451116025 0.85716730853699208 0 -0.51503806187062418 0.77255709280593621 0 1.2857509628054882 1 I I 0 1 1.5 forward I I I I #
face $-1 $115 $116 $38 $-1 $117 reversed single #
loop $-1 $-1 $118 $48 #
plane-surface $-1 -207.3686371536499 19.734022410660113 81.548538147018164 0 1 0 -0.85716730853699208 0 0.51503806187062418 forward_v I I I I #
face $-1 $119 $120 $39 $-1 $121 forward single #
loop $-1 $122 $123 $49 #
cone-surface $-1 -72.920974895937562 22.857205128592526 6.2893973451116025 0.85716730853699208 0 -0.51503806187062418 0.77255709280593621 0 1.2857509628054882 1 I I 0 1 1.5 forward I I I I #
face $-1 $124 $125 $30 $-1 $126 reversed single #
loop $-1 $-1 $127 $50 #
plane-surface $-1 0 0 -10.972268046337719 0 0 1 1 0 0 forward_v I I I I #
coedge $-1 $128 $129 $130 $131 forward $51 $-1 #
face $-1 $132 $133 $31 $-1 $134 reversed single #
loop $-1 $-1 $135 $53 #
plane-surface $-1 0 -26.009123366529373 -9.11766107668406 0 -1 0 0 0 -1 forward_v I I I I #
coedge $-1 $136 $137 $138 $139 reversed $54 $-1 #
face $-1 $140 $141 $32 $-1 $142 reversed single #
loop $-1 $-1 $143 $56 #
plane-surface $-1 -76.39759514145328 -22.885940648596964 2.8531994805567251 -0.85716730853699208 0 0.51503806187062418 0.51503806187062418 0 0.85716730853699208 forward_v I I I I #
coedge $-1 $144 $145 $146 $147 reversed $57 $-1 #
face $-1 $-1 $148 $33 $-1 $149 forward single #
loop $-1 $150 $151 $59 #
cone-surface $-1 -71.240693367150214 -22.885940648596964 5.2797823803730122 0.85716730853699208 0 -0.51503806187062418 0.3862785464029681 0 0.64287548140274409 1 I I -0.70710678118654757 0.70710678118654757 0.75 forward I I I I #
loop $-1 $-1 $152 $43 #
coedge $-1 $96 $96 $153 $154 reversed $60 $-1 #
face $-1 $155 $156 $34 $-1 $157 reversed single #
loop $-1 $-1 $158 $62 #
plane-surface $-1 -76.39759514145328 -7.638225389533801 2.8531994805567251 -0.85716730853699208 0 0.51503806187062418 0.51503806187062418 0 0.85716730853699208 forward_v I I I I #
coedge $-1 $159 $160 $161 $162 reversed $63 $-1 #
face $-1 $-1 $163 $35 $-1 $164 forward single #
loop $-1 $165 $166 $65 #
cone-surface $-1 -71.240693367150214 -7.638225389533801 5.2797823803730122 0.85716730853699208 0 -0.51503806187062418 0.3862785464029681 0 0.64287548140274409 1 I I -0.70710678118654757 0.70710678118654757 0.75 forward I I I I #
loop $-1 $-1 $167 $45 #
coedge $-1 $105 $105 $168 $169 reversed $66 $-1 #
face $-1 $170 $171 $36 $-1 $172 reversed single #
loop $-1 $-1 $173 $68 #
plane-surface $-1 -76.39759514145328 7.6094898695293622 2.8531994805567251 -0.85716730853699208 0 0.51503806187062418 0.51503806187062418 0 0.85716730853699208 forward_v I I I I #
coedge $-1 $174 $175 $176 $177 reversed $69 $-1 #
face $-1 $-1 $178 $37 $-1 $179 forward single #
loop $-1 $180 $181 $71 #
cone-surface $-1 -71.240693367150214 7.6094898695293622 5.2797823803730122 0.85716730853699208 0 -0.51503806187062418 0.3862785464029681 0 0.64287548140274409 1 I I -0.70710678118654757 0.70710678118654757 0.75 forward I I I I #
loop $-1 $-1 $182 $47 #
coedge $-1 $114 $114 $183 $184 reversed $72 $-1 #
face $-1 $185 $186 $38 $-1 $187 reversed single #
loop $-1 $-1 $188 $74 #
plane-surface $-1 -76.39759514145328 22.857205128592526 2.8531994805567251 -0.85716730853699208 0 0.51503806187062418 0.51503806187062418 0 0.85716730853699208 forward_v I I I I #
coedge $-1 $189 $190 $191 $192 reversed $75 $-1 #
face $-1 $-1 $193 $39 $-1 $194 forward single #
loop $-1 $195 $196 $77 #
cone-surface $-1 -71.240693367150214 22.857205128592526 5.2797823803730122 0.85716730853699208 0 -0.51503806187062418 0.3862785464029681 0 0.64287548140274409 1 I I -0.70710678118654757 0.70710678118654757 0.75 forward I I I I #
loop $-1 $-1 $197 $49 #
coedge $-1 $123 $123 $198 $199 reversed $78 $-1 #
face $-1 $200 $201 $30 $-1 $202 reversed single #
loop $-1 $-1 $203 $80 #
plane-surface $-1 0 -34.981737669723287 0 0 1 0 0 0 1 forward_v I I I I #
coedge $-1 $204 $205 $206 $207 forward $81 $-1 #
coedge $-1 $208 $83 $209 $210 forward $51 $-1 #
coedge $-1 $83 $208 $211 $212 forward $51 $-1 #
coedge $-1 $213 $214 $83 $131 reversed $215 $-1 #
edge $-1 $216 -34.981737669723287 $217 34.981737669723287 $130 $218 forward 7 unknown #
face $-1 $219 $220 $31 $-1 $221 reversed single #
loop $-1 $-1 $222 $84 #
plane-surface $-1 0 0 -10.972268046337719 0 0 1 1 0 0 forward_v I I I I #
coedge $-1 $223 $224 $225 $226 reversed $85 $-1 #
coedge $-1 $227 $87 $224 $228 forward $54 $-1 #
coedge $-1 $87 $227 $229 $230 reversed $54 $-1 #
coedge $-1 $231 $225 $87 $139 forward $220 $-1 #
edge $-1 $232 10.761408107466208 $233 19.734022410660124 $138 $234 forward 7 unknown #
face $-1 $235 $236 $32 $-1 $237 forward single #
loop $-1 $-1 $238 $88 #
plane-surface $-1 -207.3686371536499 -19.762757930664552 81.548538147018164 0 -1 0 0.85716730853699208 0 -0.51503806187062418 forward_v I I I I #
coedge $-1 $239 $240 $241 $242 reversed $89 $-1 #
coedge $-1 $145 $91 $243 $244 reversed $57 $-1 #
coedge $-1 $91 $144 $239 $245 reversed $57 $-1 #
coedge $-1 $241 $246 $91 $147 forward $236 $-1 #
edge $-1 $247 27.286723435371655 $248 32.165151831633921 $146 $249 forward 7 unknown #
loop $-1 $-1 $153 $92 #
plane-surface $-1 -76.39759514145328 -22.885940648596964 2.8531994805567251 -0.85716730853699208 0 0.51503806187062418 0.51503806187062418 0 0.85716730853699208 forward_v I I I I #
loop $-1 $-1 $250 $59 #
coedge $-1 $151 $151 $152 $251 reversed $93 $-1 #
coedge $-1 $152 $152 $151 $251 forward $95 $-1 #
coedge $-1 $153 $153 $96 $154 forward $148 $-1 #
edge $-1 $252 0 $252 6.2831853071796004 $153 $253 forward 7 unknown #
face $-1 $254 $255 $34 $-1 $256 forward single #
loop $-1 $-1 $257 $97 #
plane-surface $-1 -207.3686371536499 -4.5150426716013898 81.548538147018164 0 -1 0 0.85716730853699208 0 -0.51503806187062418 forward_v I I I I #
coedge $-1 $258 $259 $260 $261 reversed $98 $-1 #
coedge $-1 $160 $100 $262 $263 reversed $63 $-1 #
coedge $-1 $100 $159 $258 $264 reversed $63 $-1 #
coedge $-1 $260 $265 $100 $162 forward $255 $-1 #
edge $-1 $266 27.286723435371655 $267 32.165151831633921 $161 $268 forward 7 unknown #
loop $-1 $-1 $168 $101 #
plane-surface $-1 -76.39759514145328 -7.638225389533801 2.8531994805567251 -0.85716730853699208 0 0.51503806187062418 0.51503806187062418 0 0.85716730853699208 forward_v I I I I #
loop $-1 $-1 $269 $65 #
coedge $-1 $166 $166 $167 $270 reversed $102 $-1 #
coedge $-1 $167 $167 $166 $270 forward $104 $-1 #
coedge $-1 $168 $168 $105 $169 forward $163 $-1 #
edge $-1 $271 0 $271 6.2831853071796004 $168 $272 forward 7 unknown #
face $-1 $273 $274 $36 $-1 $275 forward single #
loop $-1 $-1 $276 $106 #
plane-surface $-1 -207.3686371536499 10.732672587461774 81.548538147018164 0 -1 0 0.85716730853699208 0 -0.51503806187062418 forward_v I I I I #
coedge $-1 $277 $278 $279 $280 reversed $107 $-1 #
coedge $-1 $175 $109 $281 $282 reversed $69 $-1 #
coedge $-1 $109 $174 $277 $283 reversed $69 $-1 #
coedge $-1 $279 $284 $109 $177 forward $274 $-1 #
edge $-1 $285 27.286723435371655 $286 32.165151831633921 $176 $287 forward 7 unknown #
loop $-1 $-1 $183 $110 #
plane-surface $-1 -76.39759514145328 7.6094898695293622 2.8531994805567251 -0.85716730853699208 0 0.51503806187062418 0.51503806187062418 0 0.85716730853699208 forward_v I I I I #
loop $-1 $-1 $288 $71 #
coedge $-1 $181 $181 $182 $289 reversed $111 $-1 #
coedge $-1 $182 $182 $181 $289 forward $113 $-1 #
coedge $-1 $183 $183 $114 $184 forward $178 $-1 #
edge $-1 $290 0 $290 6.2831853071796004 $183 $291 forward 7 unknown #
face $-1 $292 $293 $38 $-1 $294 forward single #
loop $-1 $-1 $295 $115 #
plane-surface $-1 -207.3686371536499 25.980387846524938 81.548538147018164 0 -1 0 0.85716730853699208 0 -0.51503806187062418 forward_v I I I I #
coedge $-1 $296 $297 $298 $299 reversed $116 $-1 #
coedge $-1 $190 $118 $300 $301 reversed $75 $-1 #
coedge $-1 $118 $189 $296 $302 reversed $75 $-1 #
coedge $-1 $298 $303 $118 $192 forward $293 $-1 #
edge $-1 $304 27.286723435371655 $305 32.165151831633921 $191 $306 forward 7 unknown #
loop $-1 $-1 $198 $119 #
plane-surface $-1 -76.39759514145328 22.857205128592526 2.8531994805567251 -0.85716730853699208 0 0.51503806187062418 0.51503806187062418 0 0.85716730853699208 forward_v I I I I #
loop $-1 $-1 $307 $77 #
coedge $-1 $196 $196 $197 $308 reversed $120 $-1 #
coedge $-1 $197 $197 $196 $308 forward $122 $-1 #
coedge $-1 $198 $198 $123 $199 forward $193 $-1 #
edge $-1 $309 0 $309 6.2831853071796004 $198 $310 forward 7 unknown #
face $-1 $311 $312 $30 $-1 $313 reversed single #
loop $-1 $-1 $314 $124 #
plane-surface $-1 -76.397595141453294 0 0 1 0 0 0 0 -1 forward_v I I I I #
coedge $-1 $315 $211 $316 $317 forward $125 $-1 #
coedge $-1 $318 $127 $315 $319 forward $81 $-1 #
coedge $-1 $127 $318 $320 $321 forward $81 $-1 #
coedge $-1 $214 $213 $127 $207 reversed $215 $-1 #
edge $-1 $322 -34.981737669723287 $323 34.981737669723287 $206 $324 forward 7 unknown #
coedge $-1 $129 $128 $325 $326 forward $51 $-1 #
coedge $-1 $327 $328 $128 $210 reversed $312 $-1 #
edge $-1 $217 -76.397595141453294 $329 76.397595141453294 $209 $330 forward 7 unknown #
coedge $-1 $203 $331 $129 $212 reversed $125 $-1 #
edge $-1 $332 -76.397595141453294 $216 76.397595141453294 $211 $333 forward 7 unknown #
coedge $-1 $206 $130 $331 $334 forward $215 $-1 #
coedge $-1 $130 $206 $327 $335 reversed $215 $-1 #
loop $-1 $-1 $213 $311 #
vertex $-1 $131 $336 #
vertex $-1 $131 $337 #
straight-curve $-1 76.397595141453294 0 10.972268046337719 0 1 0 I I #
face $-1 $338 $339 $31 $-1 $340 reversed single #
loop $-1 $-1 $225 $132 #
plane-surface $-1 76.397595141453294 0 0 -1 0 0 0 0 1 forward_v I I I I #
coedge $-1 $341 $342 $223 $343 forward $133 $-1 #
coedge $-1 $344 $135 $222 $343 reversed $85 $-1 #
coedge $-1 $135 $344 $136 $228 reversed $85 $-1 #
coedge $-1 $138 $345 $135 $226 forward $220 $-1 #
edge $-1 $346 -6.4134375079956891 $232 -2.7042235686883709 $225 $347 forward 7 unknown #
coedge $-1 $137 $136 $348 $349 reversed $54 $-1 #
edge $-1 $232 -76.397595141453294 $350 76.397595141453294 $224 $351 forward 7 unknown #
coedge $-1 $352 $353 $137 $230 forward $339 $-1 #
edge $-1 $233 -76.397595141453294 $354 76.397595141453294 $229 $355 forward 7 unknown #
coedge $-1 $345 $138 $353 $356 forward $220 $-1 #
vertex $-1 $139 $357 #
vertex $-1 $356 $358 #
straight-curve $-1 76.397595141453294 -15.247715259063165 -7.2630541070304009 0 -1 0 I I #
face $-1 $-1 $359 $32 $-1 $360 reversed single #
loop $-1 $-1 $146 $140 #
plane-surface $-1 0 0 10.972268046337719 0 0 1 1 0 0 forward_v I I I I #
coedge $-1 $361 $362 $363 $364 reversed $141 $-1 #
coedge $-1 $365 $143 $145 $245 forward $89 $-1 #
coedge $-1 $143 $365 $361 $366 forward $89 $-1 #
coedge $-1 $363 $146 $143 $242 forward $236 $-1 #
edge $-1 $248 -14.566153042230894 $367 -8.3197876063660701 $241 $368 forward 7 unknown #
coedge $-1 $369 $370 $144 $244 forward $359 $-1 #
edge $-1 $371 -37.921069592952378 $247 -29.802001027171364 $243 $372 forward 7 unknown #
edge $-1 $248 -9.471976456543322 $371 2.7494044966190042e-014 $145 $373 forward 7 unknown #
coedge $-1 $146 $363 $369 $374 forward $236 $-1 #
vertex $-1 $244 $375 #
vertex $-1 $147 $376 #
straight-curve $-1 -103.68431857682495 -26.009123366529376 10.972268046337717 1 0 0 I I #
coedge $-1 $250 $250 $-1 $377 reversed $150 $-1 #
edge $-1 $378 0 $378 6.2831853071796004 $151 $379 forward 7 unknown #
vertex $-1 $154 $380 #
ellipse-curve $-1 -73.958380943322155 -22.885940648596964 6.9127337634472159 -0.85716730853699208 0 0.51503806187062418 0.77255709280593621 0 1.2857509628054882 1 I I #
face $-1 $-1 $381 $34 $-1 $382 reversed single #
loop $-1 $-1 $161 $155 #
plane-surface $-1 0 0 10.972268046337719 0 0 1 1 0 0 forward_v I I I I #
coedge $-1 $383 $384 $385 $386 reversed $156 $-1 #
coedge $-1 $387 $158 $160 $264 forward $98 $-1 #
coedge $-1 $158 $387 $383 $388 forward $98 $-1 #
coedge $-1 $385 $161 $158 $261 forward $255 $-1 #
edge $-1 $267 -6.9422954126993126 $389 -0.69592997683448932 $260 $390 forward 7 unknown #
coedge $-1 $391 $392 $159 $263 forward $381 $-1 #
edge $-1 $393 -37.921069592952378 $266 -29.802001027171364 $262 $394 forward 7 unknown #
edge $-1 $267 -9.471976456543322 $393 2.7494044966190042e-014 $160 $395 forward 7 unknown #
coedge $-1 $161 $385 $391 $396 forward $255 $-1 #
vertex $-1 $162 $397 #
vertex $-1 $162 $398 #
straight-curve $-1 -103.68431857682495 -10.761408107466213 10.972268046337717 1 0 0 I I #
coedge $-1 $269 $269 $-1 $399 reversed $165 $-1 #
edge $-1 $400 0 $400 6.2831853071796004 $166 $401 forward 7 unknown #
vertex $-1 $169 $402 #
ellipse-curve $-1 -73.958380943322155 -7.638225389533801 6.9127337634472159 -0.85716730853699208 0 0.51503806187062418 0.77255709280593621 0 1.2857509628054882 1 I I #
face $-1 $-1 $403 $36 $-1 $404 reversed single #
loop $-1 $-1 $176 $170 #
plane-surface $-1 0 0 10.972268046337719 0 0 1 1 0 0 forward_v I I I I #
coedge $-1 $405 $406 $407 $408 reversed $171 $-1 #
coedge $-1 $409 $173 $175 $283 forward $107 $-1 #
coedge $-1 $173 $409 $405 $410 forward $107 $-1 #
coedge $-1 $407 $176 $173 $280 forward $274 $-1 #
edge $-1 $286 0.68156221683226992 $411 6.9279276526970932 $279 $412 forward 7 unknown #
coedge $-1 $413 $414 $174 $282 forward $403 $-1 #
edge $-1 $415 -37.921069592952378 $285 -29.802001027171364 $281 $416 forward 7 unknown #
edge $-1 $286 -9.471976456543322 $415 2.7494044966190042e-014 $175 $417 forward 7 unknown #
coedge $-1 $176 $407 $413 $418 forward $274 $-1 #
vertex $-1 $177 $419 #
vertex $-1 $177 $420 #
straight-curve $-1 -103.68431857682495 4.486307151596951 10.972268046337717 1 0 0 I I #
coedge $-1 $288 $288 $-1 $421 reversed $180 $-1 #
edge $-1 $422 0 $422 6.2831853071796004 $181 $423 forward 7 unknown #
vertex $-1 $184 $424 #
ellipse-curve $-1 -73.958380943322155 7.6094898695293622 6.9127337634472159 -0.85716730853699208 0 0.51503806187062418 0.77255709280593621 0 1.2857509628054882 1 I I #
face $-1 $-1 $425 $38 $-1 $426 reversed single #
loop $-1 $-1 $191 $185 #
plane-surface $-1 0 0 10.972268046337719 0 0 1 1 0 0 forward_v I I I I #
coedge $-1 $427 $428 $429 $430 reversed $186 $-1 #
coedge $-1 $431 $188 $190 $302 forward $116 $-1 #
coedge $-1 $188 $431 $427 $432 forward $116 $-1 #
coedge $-1 $429 $191 $188 $299 forward $293 $-1 #
edge $-1 $305 8.3054198463638507 $433 14.551785282228675 $298 $434 forward 7 unknown #
coedge $-1 $435 $436 $189 $301 forward $425 $-1 #
edge $-1 $437 -37.921069592952378 $304 -29.802001027171364 $300 $438 forward 7 unknown #
edge $-1 $305 -9.471976456543322 $437 2.7494044966190042e-014 $190 $439 forward 7 unknown #
coedge $-1 $191 $429 $435 $440 forward $293 $-1 #
vertex $-1 $192 $441 #
vertex $-1 $192 $442 #
straight-curve $-1 -103.68431857682495 19.734022410660113 10.972268046337717 1 0 0 I I #
coedge $-1 $307 $307 $-1 $443 reversed $195 $-1 #
edge $-1 $444 0 $444 6.2831853071796004 $196 $445 forward 7 unknown #
vertex $-1 $199 $446 #
ellipse-curve $-1 -73.958380943322155 22.857205128592526 6.9127337634472159 -0.85716730853699208 0 0.51503806187062418 0.77255709280593621 0 1.2857509628054882 1 I I #
face $-1 $-1 $215 $30 $-1 $447 reversed single #
loop $-1 $-1 $327 $200 #
plane-surface $-1 0 34.981737669723287 0 0 -1 0 0 0 -1 forward_v I I I I #
coedge $-1 $448 $325 $328 $449 forward $201 $-1 #
coedge $-1 $331 $203 $204 $319 reversed $125 $-1 #
coedge $-1 $325 $448 $203 $317 reversed $201 $-1 #
edge $-1 $332 -10.972268046337719 $450 10.972268046337719 $316 $451 forward 7 unknown #
coedge $-1 $205 $204 $448 $452 forward $81 $-1 #
edge $-1 $323 -76.397595141453294 $450 76.397595141453294 $315 $453 forward 7 unknown #
coedge $-1 $328 $327 $205 $321 reversed $312 $-1 #
edge $-1 $454 -76.397595141453294 $322 76.397595141453294 $320 $455 forward 7 unknown #
vertex $-1 $207 $456 #
vertex $-1 $334 $457 #
straight-curve $-1 76.397595141453294 0 -10.972268046337719 0 -1 0 I I #
coedge $-1 $314 $316 $208 $326 reversed $201 $-1 #
edge $-1 $329 -34.981737669723287 $332 34.981737669723287 $325 $458 forward 7 unknown #
coedge $-1 $320 $209 $214 $335 forward $312 $-1 #
coedge $-1 $209 $320 $314 $449 reversed $312 $-1 #
vertex $-1 $210 $459 #
straight-curve $-1 0 34.981737669723287 10.972268046337719 -1 0 0 I I #
coedge $-1 $211 $315 $213 $334 reversed $125 $-1 #
vertex $-1 $326 $460 #
straight-curve $-1 0 -34.981737669723287 10.972268046337719 1 0 0 I I #
edge $-1 $216 -10.972268046337719 $323 10.972268046337719 $213 $461 forward 7 unknown #
edge $-1 $217 -10.972268046337719 $322 10.972268046337719 $214 $462 forward 7 unknown #
point $-1 76.397595141453294 -34.981737669723287 10.972268046337719 #
point $-1 76.397595141453294 34.981737669723287 10.972268046337719 #
face $-1 $-1 $463 $31 $-1 $464 reversed single #
loop $-1 $-1 $229 $219 #
plane-surface $-1 0 -34.981737669723287 0 0 1 0 0 0 1 forward_v I I I I #
coedge $-1 $465 $222 $345 $466 forward $133 $-1 #
coedge $-1 $222 $465 $467 $468 forward $133 $-1 #
edge $-1 $469 -76.397595141453294 $346 76.397595141453294 $222 $470 forward 7 unknown #
coedge $-1 $224 $223 $471 $472 reversed $85 $-1 #
coedge $-1 $225 $231 $341 $466 reversed $220 $-1 #
vertex $-1 $466 $473 #
straight-curve $-1 76.397595141453294 -26.009123366529373 -4.55883053834203 0 0 1 I I #
coedge $-1 $471 $474 $227 $349 forward $463 $-1 #
edge $-1 $354 -19.734022410660124 $350 -10.761408107466208 $348 $475 forward 7 unknown #
vertex $-1 $349 $476 #
straight-curve $-1 0 -26.009123366529373 -7.2630541070304009 -1 0 0 I I #
coedge $-1 $477 $229 $474 $478 forward $339 $-1 #
coedge $-1 $229 $477 $231 $356 reversed $339 $-1 #
vertex $-1 $478 $479 #
straight-curve $-1 0 -34.981737669723287 -7.2630541070304009 -1 0 0 I I #
edge $-1 $233 7.2630541070304009 $480 10.972268046337719 $231 $481 forward 7 unknown #
point $-1 76.397595141453294 -26.009123366529373 -7.2630541070304009 #
point $-1 76.397595141453294 -34.981737669723287 -7.2630541070304009 #
loop $-1 $-1 $243 $235 #
plane-surface $-1 -76.397595141453294 0 0 1 0 0 0 0 -1 forward_v I I I I #
coedge $-1 $362 $238 $240 $366 reversed $141 $-1 #
coedge $-1 $238 $361 $482 $483 reversed $141 $-1 #
coedge $-1 $246 $241 $238 $364 forward $236 $-1 #
edge $-1 $367 -32.165151831633921 $484 -27.286723435371655 $363 $485 forward 7 unknown #
coedge $-1 $240 $239 $370 $486 reversed $89 $-1 #
edge $-1 $487 -2.7494044966190042e-014 $367 9.471976456543322 $361 $488 forward 7 unknown #
vertex $-1 $242 $489 #
straight-curve $-1 -71.519166745191015 -11.442970324298482 10.972268046337719 0 1 0 I I #
coedge $-1 $482 $243 $246 $374 reversed $359 $-1 #
coedge $-1 $243 $482 $365 $486 forward $359 $-1 #
vertex $-1 $244 $490 #
straight-curve $-1 -76.397595141453294 -26.009123366529376 40.774269073509082 0 0 1 I I #
straight-curve $-1 -76.39759514145328 -26.009123366529376 2.8531994805567251 -0.51503806187062418 0 -0.85716730853699208 I I #
edge $-1 $484 19.762757930664552 $247 26.009123366529376 $369 $491 forward 7 unknown #
point $-1 -76.397595141453294 -26.009123366529376 10.972268046337719 #
point $-1 -71.519166745191029 -26.009123366529376 10.972268046337719 #
edge $-1 $492 1 $492 0 $250 $-1 forward 7 unknown #
vertex $-1 $251 $493 #
ellipse-curve $-1 -71.883568848552954 -22.885940648596964 5.6660609267759803 -0.85716730853699208 0 0.51503806187062418 0.77255709280593621 0 1.2857509628054882 1 I I #
point $-1 -73.185823850516243 -22.885940648596964 8.1984847262527119 #
loop $-1 $-1 $262 $254 #
plane-surface $-1 -76.397595141453294 0 0 1 0 0 0 0 -1 forward_v I I I I #
coedge $-1 $384 $257 $259 $388 reversed $156 $-1 #
coedge $-1 $257 $383 $494 $495 reversed $156 $-1 #
coedge $-1 $265 $260 $257 $386 forward $255 $-1 #
edge $-1 $389 -32.165151831633921 $496 -27.286723435371655 $385 $497 forward 7 unknown #
coedge $-1 $259 $258 $392 $498 reversed $98 $-1 #
edge $-1 $499 -2.7494044966190042e-014 $389 9.471976456543322 $383 $500 forward 7 unknown #
vertex $-1 $261 $501 #
straight-curve $-1 -71.519166745191015 -3.8191126947669005 10.972268046337719 0 1 0 I I #
coedge $-1 $494 $262 $265 $396 reversed $381 $-1 #
coedge $-1 $262 $494 $387 $498 forward $381 $-1 #
vertex $-1 $263 $502 #
straight-curve $-1 -76.397595141453294 -10.761408107466213 40.774269073509082 0 0 1 I I #
straight-curve $-1 -76.39759514145328 -10.761408107466213 2.8531994805567251 -0.51503806187062418 0 -0.85716730853699208 I I #
edge $-1 $496 4.5150426716013898 $266 10.761408107466213 $391 $503 forward 7 unknown #
point $-1 -76.397595141453294 -10.761408107466213 10.972268046337719 #
point $-1 -71.519166745191029 -10.761408107466213 10.972268046337719 #
edge $-1 $504 1 $504 0 $269 $-1 forward 7 unknown #
vertex $-1 $270 $505 #
ellipse-curve $-1 -71.883568848552954 -7.638225389533801 5.6660609267759803 -0.85716730853699208 0 0.51503806187062418 0.77255709280593621 0 1.2857509628054882 1 I I #
point $-1 -73.185823850516243 -7.638225389533801 8.1984847262527119 #
loop $-1 $-1 $281 $273 #
plane-surface $-1 -76.397595141453294 0 0 1 0 0 0 0 -1 forward_v I I I I #
coedge $-1 $406 $276 $278 $410 reversed $171 $-1 #
coedge $-1 $276 $405 $506 $507 reversed $171 $-1 #
coedge $-1 $284 $279 $276 $408 forward $274 $-1 #
edge $-1 $411 -32.165151831633921 $508 -27.286723435371655 $407 $509 forward 7 unknown #
coedge $-1 $278 $277 $414 $510 reversed $107 $-1 #
edge $-1 $511 -2.7494044966190042e-014 $411 9.471976456543322 $405 $512 forward 7 unknown #
vertex $-1 $280 $513 #
straight-curve $-1 -71.519166745191015 3.8047449347646811 10.972268046337719 0 1 0 I I #
coedge $-1 $506 $281 $284 $418 reversed $403 $-1 #
coedge $-1 $281 $506 $409 $510 forward $403 $-1 #
vertex $-1 $282 $514 #
straight-curve $-1 -76.397595141453294 4.486307151596951 40.774269073509082 0 0 1 I I #
straight-curve $-1 -76.39759514145328 4.486307151596951 2.8531994805567251 -0.51503806187062418 0 -0.85716730853699208 I I #
edge $-1 $508 -10.732672587461774 $285 -4.486307151596951 $413 $515 forward 7 unknown #
point $-1 -76.397595141453294 4.486307151596951 10.972268046337719 #
point $-1 -71.519166745191029 4.486307151596951 10.972268046337719 #
edge $-1 $516 1 $516 0 $288 $-1 forward 7 unknown #
vertex $-1 $289 $517 #
ellipse-curve $-1 -71.883568848552954 7.6094898695293622 5.6660609267759803 -0.85716730853699208 0 0.51503806187062418 0.77255709280593621 0 1.2857509628054882 1 I I #
point $-1 -73.185823850516243 7.6094898695293622 8.1984847262527119 #
loop $-1 $-1 $300 $292 #
plane-surface $-1 -76.397595141453294 0 0 1 0 0 0 0 -1 forward_v I I I I #
coedge $-1 $428 $295 $297 $432 reversed $186 $-1 #
coedge $-1 $295 $427 $518 $519 reversed $186 $-1 #
coedge $-1 $303 $298 $295 $430 forward $293 $-1 #
edge $-1 $433 -32.165151831633921 $520 -27.286723435371655 $429 $521 forward 7 unknown #
coedge $-1 $297 $296 $436 $522 reversed $116 $-1 #
edge $-1 $523 -2.7494044966190042e-014 $433 9.471976456543322 $427 $524 forward 7 unknown #
vertex $-1 $299 $525 #
straight-curve $-1 -71.519166745191015 11.428602564296263 10.972268046337719 0 1 0 I I #
coedge $-1 $518 $300 $303 $440 reversed $425 $-1 #
coedge $-1 $300 $518 $431 $522 forward $425 $-1 #
vertex $-1 $301 $526 #
straight-curve $-1 -76.397595141453294 19.734022410660113 40.774269073509082 0 0 1 I I #
straight-curve $-1 -76.39759514145328 19.734022410660113 2.8531994805567251 -0.51503806187062418 0 -0.85716730853699208 I I #
edge $-1 $520 -25.980387846524938 $304 -19.734022410660113 $435 $527 forward 7 unknown #
point $-1 -76.397595141453294 19.734022410660113 10.972268046337719 #
point $-1 -71.519166745191029 19.734022410660113 10.972268046337719 #
edge $-1 $528 1 $528 0 $307 $-1 forward 7 unknown #
vertex $-1 $308 $529 #
ellipse-curve $-1 -71.883568848552954 22.857205128592526 5.6660609267759803 -0.85716730853699208 0 0.51503806187062418 0.77255709280593621 0 1.2857509628054882 1 I I #
point $-1 -73.185823850516243 22.857205128592526 8.1984847262527119 #
plane-surface $-1 76.397595141453294 0 0 -1 0 0 0 0 1 forward_v I I I I #
coedge $-1 $316 $314 $318 $452 reversed $201 $-1 #
edge $-1 $329 -10.972268046337719 $454 10.972268046337719 $328 $530 forward 7 unknown #
vertex $-1 $452 $531 #
straight-curve $-1 -76.397595141453294 -34.981737669723287 0 0 0 -1 I I #
edge $-1 $450 -34.981737669723287 $454 34.981737669723287 $448 $532 forward 7 unknown #
straight-curve $-1 0 -34.981737669723287 -10.972268046337719 -1 0 0 I I #
vertex $-1 $321 $533 #
straight-curve $-1 0 34.981737669723287 -10.972268046337719 1 0 0 I I #
point $-1 76.397595141453294 34.981737669723287 -10.972268046337719 #
point $-1 76.397595141453294 -34.981737669723287 -10.972268046337719 #
straight-curve $-1 -76.397595141453294 0 10.972268046337719 0 -1 0 I I #
point $-1 -76.397595141453294 34.981737669723287 10.972268046337719 #
point $-1 -76.397595141453294 -34.981737669723287 10.972268046337719 #
straight-curve $-1 76.397595141453294 -34.981737669723287 0 0 0 -1 I I #
straight-curve $-1 76.397595141453294 34.981737669723287 0 0 0 -1 I I #
loop $-1 $-1 $471 $338 #
plane-surface $-1 -76.397595141453294 0 0 1 0 0 0 0 -1 forward_v I I I I #
coedge $-1 $342 $341 $477 $534 forward $133 $-1 #
edge $-1 $346 26.009123366529373 $480 34.981737669723287 $345 $535 forward 7 unknown #
coedge $-1 $474 $471 $342 $468 reversed $463 $-1 #
edge $-1 $536 -34.981737669723287 $469 -26.009123366529373 $467 $537 forward 7 unknown #
vertex $-1 $472 $538 #
straight-curve $-1 0 -26.009123366529373 -10.972268046337719 1 0 0 I I #
coedge $-1 $467 $348 $344 $472 forward $463 $-1 #
edge $-1 $350 2.7042235686883709 $469 6.4134375079956891 $471 $539 forward 7 unknown #
point $-1 76.397595141453294 -26.009123366529373 -10.972268046337719 #
coedge $-1 $348 $467 $352 $478 reversed $463 $-1 #
straight-curve $-1 -76.397595141453294 -15.247715259063165 -7.2630541070304009 0 1 0 I I #
point $-1 -76.397595141453294 -26.009123366529373 -7.2630541070304009 #
coedge $-1 $353 $352 $465 $534 reversed $339 $-1 #
edge $-1 $354 7.2630541070304009 $536 10.972268046337719 $474 $540 forward 7 unknown #
point $-1 -76.397595141453294 -34.981737669723287 -7.2630541070304009 #
vertex $-1 $356 $541 #
straight-curve $-1 76.397595141453294 -34.981737669723287 0 0 0 -1 I I #
coedge $-1 $370 $369 $362 $483 forward $359 $-1 #
edge $-1 $484 29.802001027171364 $487 37.921069592952378 $482 $542 forward 7 unknown #
vertex $-1 $374 $543 #
straight-curve $-1 -103.68431857682495 -19.762757930664552 10.972268046337717 -1 0 0 I I #
edge $-1 $487 8.3197876063660701 $371 14.566153042230894 $370 $544 forward 7 unknown #
vertex $-1 $486 $545 #
straight-curve $-1 -76.39759514145328 -19.762757930664552 2.8531994805567251 0.51503806187062418 0 0.85716730853699208 I I #
point $-1 -71.519166745191029 -19.762757930664552 10.972268046337719 #
point $-1 -76.397595141453294 -26.009123366529376 2.8531994805567016 #
straight-curve $-1 -76.397595141453294 0 10.972268046337719 0 -1 0 I I #
vertex $-1 $377 $546 #
point $-1 -71.111011755747029 -22.885940648596964 6.9518118895814682 #
coedge $-1 $392 $391 $384 $495 forward $381 $-1 #
edge $-1 $496 29.802001027171364 $499 37.921069592952378 $494 $547 forward 7 unknown #
vertex $-1 $396 $548 #
straight-curve $-1 -103.68431857682495 -4.5150426716013898 10.972268046337717 -1 0 0 I I #
edge $-1 $499 0.69592997683448932 $393 6.9422954126993126 $392 $549 forward 7 unknown #
vertex $-1 $498 $550 #
straight-curve $-1 -76.39759514145328 -4.5150426716013898 2.8531994805567251 0.51503806187062418 0 0.85716730853699208 I I #
point $-1 -71.519166745191029 -4.5150426716013898 10.972268046337719 #
point $-1 -76.397595141453294 -10.761408107466213 2.8531994805567016 #
straight-curve $-1 -76.397595141453294 0 10.972268046337719 0 -1 0 I I #
vertex $-1 $399 $551 #
point $-1 -71.111011755747029 -7.638225389533801 6.9518118895814682 #
coedge $-1 $414 $413 $406 $507 forward $403 $-1 #
edge $-1 $508 29.802001027171364 $511 37.921069592952378 $506 $552 forward 7 unknown #
vertex $-1 $418 $553 #
straight-curve $-1 -103.68431857682495 10.732672587461774 10.972268046337717 -1 0 0 I I #
edge $-1 $511 -6.9279276526970932 $415 -0.68156221683226992 $414 $554 forward 7 unknown #
vertex $-1 $510 $555 #
straight-curve $-1 -76.39759514145328 10.732672587461774 2.8531994805567251 0.51503806187062418 0 0.85716730853699208 I I #
point $-1 -71.519166745191029 10.732672587461774 10.972268046337719 #
point $-1 -76.397595141453294 4.486307151596951 2.8531994805567016 #
straight-curve $-1 -76.397595141453294 0 10.972268046337719 0 -1 0 I I #
vertex $-1 $421 $556 #
point $-1 -71.111011755747029 7.6094898695293622 6.9518118895814682 #
coedge $-1 $436 $435 $428 $519 forward $425 $-1 #
edge $-1 $520 29.802001027171364 $523 37.921069592952378 $518 $557 forward 7 unknown #
vertex $-1 $440 $558 #
straight-curve $-1 -103.68431857682495 25.980387846524938 10.972268046337717 -1 0 0 I I #
edge $-1 $523 -14.551785282228675 $437 -8.3054198463638507 $436 $559 forward 7 unknown #
vertex $-1 $522 $560 #
straight-curve $-1 -76.39759514145328 25.980387846524938 2.8531994805567251 0.51503806187062418 0 0.85716730853699208 I I #
point $-1 -71.519166745191029 25.980387846524938 10.972268046337719 #
point $-1 -76.397595141453294 19.734022410660113 2.8531994805567016 #
straight-curve $-1 -76.397595141453294 0 10.972268046337719 0 -1 0 I I #
vertex $-1 $443 $561 #
point $-1 -71.111011755747029 22.857205128592526 6.9518118895814682 #
straight-curve $-1 -76.397595141453294 34.981737669723287 0 0 0 -1 I I #
point $-1 -76.397595141453294 -34.981737669723287 -10.972268046337719 #
straight-curve $-1 -76.397595141453294 0 -10.972268046337719 0 1 0 I I #
point $-1 -76.397595141453294 34.981737669723287 -10.972268046337719 #
edge $-1 $480 -76.397595141453294 $536 76.397595141453294 $477 $562 forward 7 unknown #
straight-curve $-1 76.397595141453294 0 -10.972268046337719 0 -1 0 I I #
vertex $-1 $468 $563 #
straight-curve $-1 -76.397595141453294 0 -10.972268046337719 0 1 0 I I #
point $-1 -76.397595141453294 -26.009123366529373 -10.972268046337719 #
straight-curve $-1 -76.397595141453294 -26.009123366529373 -4.55883053834203 0 0 -1 I I #
straight-curve $-1 -76.397595141453294 -34.981737669723287 0 0 0 -1 I I #
point $-1 76.397595141453294 -34.981737669723287 -10.972268046337719 #
straight-curve $-1 -76.397595141453294 -19.762757930664552 40.774269073509082 0 0 -1 I I #
point $-1 -76.397595141453294 -19.762757930664552 10.972268046337719 #
straight-curve $-1 -76.397595141453294 -11.442970324298482 2.853199480556678 0 -1 0 I I #
point $-1 -76.397595141453294 -19.762757930664552 2.8531994805567016 #
point $-1 -70.597817885747475 -22.885940648596964 4.8935038339700441 #
straight-curve $-1 -76.397595141453294 -4.5150426716013898 40.774269073509082 0 0 -1 I I #
point $-1 -76.397595141453294 -4.5150426716013898 10.972268046337719 #
straight-curve $-1 -76.397595141453294 -3.8191126947669005 2.853199480556678 0 -1 0 I I #
point $-1 -76.397595141453294 -4.5150426716013898 2.8531994805567016 #
point $-1 -70.597817885747475 -7.638225389533801 4.8935038339700441 #
straight-curve $-1 -76.397595141453294 10.732672587461774 40.774269073509082 0 0 -1 I I #
point $-1 -76.397595141453294 10.732672587461774 10.972268046337719 #
straight-curve $-1 -76.397595141453294 3.8047449347646811 2.853199480556678 0 -1 0 I I #
point $-1 -76.397595141453294 10.732672587461774 2.8531994805567016 #
point $-1 -70.597817885747475 7.6094898695293622 4.8935038339700441 #
straight-curve $-1 -76.397595141453294 25.980387846524938 40.774269073509082 0 0 -1 I I #
point $-1 -76.397595141453294 25.980387846524938 10.972268046337719 #
straight-curve $-1 -76.397595141453294 11.428602564296263 2.853199480556678 0 -1 0 I I #
point $-1 -76.397595141453294 25.980387846524938 2.8531994805567016 #
point $-1 -70.597817885747475 22.857205128592526 4.8935038339700441 #
straight-curve $-1 0 -34.981737669723287 -10.972268046337719 -1 0 0 I I #
point $-1 -76.397595141453294 -34.981737669723287 -10.972268046337719 #
End-of-ACIS-data 