500 0 16 0           
7 Unknown 11 ACIS 5.0 NT 24 Thu Mar 25 20:06:37 1999 
-1 9.9999999999999995e-007 1e-010 
body $-1 $16 $-1 $17 #
body $-1 $18 $-1 $19 #
body $-1 $20 $-1 $21 #
body $-1 $22 $-1 $23 #
body $-1 $24 $-1 $25 #
body $-1 $26 $-1 $27 #
body $-1 $28 $-1 $29 #
body $-1 $30 $-1 $31 #
body $-1 $32 $-1 $33 #
body $-1 $34 $-1 $35 #
body $-1 $36 $-1 $37 #
body $-1 $38 $-1 $39 #
body $-1 $40 $-1 $41 #
body $-1 $42 $-1 $43 #
body $-1 $44 $-1 $45 #
body $-1 $46 $-1 $47 #
lump $-1 $-1 $48 $0 #
transform $-1 1 0 0 0 1 0 0 0 1 48.731955931272317 28.922096835091793 14.090066719502467 1 rotate no_reflect no_shear #
lump $-1 $-1 $49 $1 #
transform $-1 1 0 0 0 1 0 0 0 1 48.731955931272317 28.922096835091793 14.090066719502467 1 rotate no_reflect no_shear #
lump $-1 $-1 $50 $2 #
transform $-1 1 0 0 0 1 0 0 0 1 48.731955931272317 28.922096835091793 14.090066719502467 1 rotate no_reflect no_shear #
lump $-1 $-1 $51 $3 #
transform $-1 1 0 0 0 1 0 0 0 1 48.731955931272317 28.922096835091793 14.090066719502467 1 rotate no_reflect no_shear #
lump $-1 $-1 $52 $4 #
transform $-1 1 0 0 0 1 0 0 0 1 48.731955931272317 28.922096835091793 14.090066719502467 1 rotate no_reflect no_shear #
lump $-1 $-1 $53 $5 #
transform $-1 1 0 0 0 1 0 0 0 1 48.731955931272317 28.922096835091793 14.090066719502467 1 rotate no_reflect no_shear #
lump $-1 $-1 $54 $6 #
transform $-1 1 0 0 0 1 0 0 0 1 48.731955931272317 28.922096835091793 14.090066719502467 1 rotate no_reflect no_shear #
lump $-1 $-1 $55 $7 #
transform $-1 1 0 0 0 1 0 0 0 1 48.731955931272317 28.922096835091793 14.090066719502467 1 rotate no_reflect no_shear #
lump $-1 $-1 $56 $8 #
transform $-1 1 0 0 0 1 0 0 0 1 48.731955931272317 28.922096835091793 14.090066719502467 1 rotate no_reflect no_shear #
lump $-1 $-1 $57 $9 #
transform $-1 1 0 0 0 1 0 0 0 1 48.731955931272317 28.922096835091793 14.090066719502467 1 rotate no_reflect no_shear #
lump $-1 $-1 $58 $10 #
transform $-1 1 0 0 0 1 0 0 0 1 48.731955931272317 28.922096835091793 14.090066719502467 1 rotate no_reflect no_shear #
lump $-1 $-1 $59 $11 #
transform $-1 1 0 0 0 1 0 0 0 1 48.731955931272317 28.922096835091793 14.090066719502467 1 rotate no_reflect no_shear #
lump $-1 $-1 $60 $12 #
transform $-1 1 0 0 0 1 0 0 0 1 48.731955931272317 28.922096835091793 14.090066719502467 1 rotate no_reflect no_shear #
lump $-1 $-1 $61 $13 #
transform $-1 1 0 0 0 1 0 0 0 1 48.731955931272317 28.922096835091793 14.090066719502467 1 rotate no_reflect no_shear #
lump $-1 $-1 $62 $14 #
transform $-1 1 0 0 0 1 0 0 0 1 48.731955931272317 28.922096835091793 14.090066719502467 1 rotate no_reflect no_shear #
lump $-1 $-1 $63 $15 #
transform $-1 1 0 0 0 1 0 0 0 1 48.731955931272317 28.922096835091793 14.090066719502467 1 rotate no_reflect no_shear #
shell $-1 $-1 $-1 $64 $-1 $16 #
shell $-1 $-1 $-1 $65 $-1 $18 #
shell $-1 $-1 $-1 $66 $-1 $20 #
shell $-1 $-1 $-1 $67 $-1 $22 #
shell $-1 $-1 $-1 $68 $-1 $24 #
shell $-1 $-1 $-1 $69 $-1 $26 #
shell $-1 $-1 $-1 $70 $-1 $28 #
shell $-1 $-1 $-1 $71 $-1 $30 #
shell $-1 $-1 $-1 $72 $-1 $32 #
shell $-1 $-1 $-1 $73 $-1 $34 #
shell $-1 $-1 $-1 $74 $-1 $36 #
shell $-1 $-1 $-1 $75 $-1 $38 #
shell $-1 $-1 $-1 $76 $-1 $40 #
shell $-1 $-1 $-1 $77 $-1 $42 #
shell $-1 $-1 $-1 $78 $-1 $44 #
shell $-1 $-1 $-1 $79 $-1 $46 #
face $-1 $80 $81 $48 $-1 $82 forward single #
face $-1 $83 $84 $49 $-1 $85 forward single #
face $-1 $86 $87 $50 $-1 $88 reversed single #
face $-1 $89 $90 $51 $-1 $91 forward single #
face $-1 $92 $93 $52 $-1 $94 forward single #
face $-1 $95 $96 $53 $-1 $97 forward single #
face $-1 $98 $99 $54 $-1 $100 reversed single #
face $-1 $101 $102 $55 $-1 $103 forward single #
face $-1 $104 $105 $56 $-1 $106 forward single #
face $-1 $107 $108 $57 $-1 $109 forward single #
face $-1 $110 $111 $58 $-1 $112 reversed single #
face $-1 $113 $114 $59 $-1 $115 forward single #
face $-1 $116 $117 $60 $-1 $118 forward single #
face $-1 $119 $120 $61 $-1 $121 reversed single #
face $-1 $122 $123 $62 $-1 $124 forward single #
face $-1 $125 $126 $63 $-1 $127 forward single #
face $-1 $128 $129 $48 $-1 $130 reversed single #
loop $-1 $-1 $131 $64 #
plane-surface $-1 0 0 14.090066719502467 0 0 1 1 0 0 forward_v I I I I #
face $-1 $132 $133 $49 $-1 $134 reversed single #
loop $-1 $-1 $135 $65 #
plane-surface $-1 0 -21.255667753577242 -10.665226319278176 0 0 1 1 0 0 forward_v I I I I #
face $-1 $136 $137 $50 $-1 $138 reversed single #
loop $-1 $-1 $139 $66 #
plane-surface $-1 -111.38055163811123 -13.589238672062692 75.605630923004497 0 1 0 -0.64278761758704617 0 0.76604443648966558 forward_v I I I I #
face $-1 $140 $141 $51 $-1 $142 forward single #
loop $-1 $143 $144 $67 #
cone-surface $-1 -40.577092488169683 -12.02403426401191 7.1339828825979312 0.64278761758704617 0 -0.76604443648966558 0.38302221824483279 0 0.32139380879352308 1 I I 0 1 0.5 forward I I I I #
face $-1 $145 $146 $52 $-1 $147 forward single #
loop $-1 $148 $149 $68 #
cone-surface $-1 -40.577092488169683 -9.6762276519357329 7.1339828825979312 0.64278761758704617 0 -0.76604443648966558 0.38302221824483279 0 0.32139380879352308 1 I I 0 1 0.5 forward I I I I #
face $-1 $150 $151 $53 $-1 $152 forward single #
loop $-1 $153 $154 $69 #
cone-surface $-1 -40.577092488169683 -7.3284210398595562 7.1339828825979312 0.64278761758704617 0 -0.76604443648966558 0.38302221824483279 0 0.32139380879352308 1 I I 0 1 0.5 forward I I I I #
face $-1 $155 $156 $54 $-1 $157 reversed single #
loop $-1 $-1 $158 $70 #
plane-surface $-1 -111.38055163811123 21.096074794837875 75.605630923004497 0 1 0 -0.64278761758704617 0 0.76604443648966558 forward_v I I I I #
face $-1 $159 $160 $55 $-1 $161 forward single #
loop $-1 $162 $163 $71 #
cone-surface $-1 -40.577092488169683 22.661279202888657 7.1339828825979312 0.64278761758704617 0 -0.76604443648966558 0.38302221824483279 0 0.32139380879352308 1 I I 0 1 0.5 forward I I I I #
face $-1 $164 $165 $56 $-1 $166 forward single #
loop $-1 $167 $168 $72 #
cone-surface $-1 -40.577092488169683 25.009085814964834 7.1339828825979312 0.64278761758704617 0 -0.76604443648966558 0.38302221824483279 0 0.32139380879352308 1 I I 0 1 0.5 forward I I I I #
face $-1 $169 $170 $57 $-1 $171 forward single #
loop $-1 $172 $173 $73 #
cone-surface $-1 -40.577092488169683 27.356892427041011 7.1339828825979312 0.64278761758704617 0 -0.76604443648966558 0.38302221824483279 0 0.32139380879352308 1 I I 0 1 0.5 forward I I I I #
face $-1 $174 $175 $58 $-1 $176 reversed single #
loop $-1 $-1 $177 $74 #
plane-surface $-1 41.518242093102209 5.1709498563931948 142.42145033369295 0 -1 0 -0.66913061440640931 0 -0.74314481823134659 forward_v I I I I #
face $-1 $178 $179 $59 $-1 $180 forward single #
loop $-1 $181 $182 $75 #
cone-surface $-1 42.454641352683012 -0.96302082963334357 8.2056853579825653 -0.66913061440640931 0 -0.74314481823134659 0.74314481823134659 0 -0.66913061440640931 1 I I 0 1 1 forward I I I I #
face $-1 $183 $184 $60 $-1 $185 forward single #
loop $-1 $186 $187 $76 #
cone-surface $-1 42.454641352683012 2.7173615819825798 8.2056853579825653 -0.66913061440640931 0 -0.74314481823134659 0.74314481823134659 0 -0.66913061440640931 1 I I 0 1 1 forward I I I I #
face $-1 $188 $189 $61 $-1 $190 reversed single #
loop $-1 $-1 $191 $77 #
plane-surface $-1 41.518242093102209 18.749467267073058 142.42145033369295 0 -1 0 -0.66913061440640931 0 -0.74314481823134659 forward_v I I I I #
face $-1 $192 $193 $62 $-1 $194 forward single #
loop $-1 $195 $196 $78 #
cone-surface $-1 42.454641352683012 12.615496581046521 8.2056853579825653 -0.66913061440640931 0 -0.74314481823134659 0.74314481823134659 0 -0.66913061440640931 1 I I 0 1 1 forward I I I I #
face $-1 $197 $198 $63 $-1 $199 forward single #
loop $-1 $200 $201 $79 #
cone-surface $-1 42.454641352683012 16.295878992662445 8.2056853579825653 -0.66913061440640931 0 -0.74314481823134659 0.74314481823134659 0 -0.66913061440640931 1 I I 0 1 1 forward I I I I #
face $-1 $202 $203 $48 $-1 $204 reversed single #
loop $-1 $-1 $205 $80 #
plane-surface $-1 0 0 -14.090066719502467 0 0 1 1 0 0 forward_v I I I I #
coedge $-1 $206 $207 $208 $209 forward $81 $-1 #
face $-1 $210 $211 $49 $-1 $212 reversed single #
loop $-1 $-1 $213 $83 #
plane-surface $-1 0 -13.589238672062692 -12.377646519390321 0 -1 0 0 0 -1 forward_v I I I I #
coedge $-1 $214 $215 $216 $217 reversed $84 $-1 #
face $-1 $218 $219 $50 $-1 $220 reversed single #
loop $-1 $-1 $221 $86 #
plane-surface $-1 -48.731955931272317 -9.6762276519357329 0.94394348218305879 -0.64278761758704617 0 0.76604443648966558 0.76604443648966558 0 0.64278761758704617 forward_v I I I I #
coedge $-1 $222 $223 $224 $225 reversed $87 $-1 #
face $-1 $-1 $226 $51 $-1 $227 forward single #
loop $-1 $228 $229 $89 #
cone-surface $-1 -40.095001774979401 -12.02403426401191 6.5594495552306817 0.64278761758704617 0 -0.76604443648966558 0.1915111091224164 0 0.16069690439676154 1 I I -0.70710678118654746 0.70710678118654746 0.25 forward I I I I #
loop $-1 $-1 $230 $67 #
coedge $-1 $144 $144 $231 $232 reversed $90 $-1 #
face $-1 $-1 $233 $52 $-1 $234 forward single #
loop $-1 $235 $236 $92 #
cone-surface $-1 -40.095001774979401 -9.6762276519357329 6.5594495552306817 0.64278761758704617 0 -0.76604443648966558 0.1915111091224164 0 0.16069690439676154 1 I I -0.70710678118654746 0.70710678118654746 0.25 forward I I I I #
loop $-1 $-1 $237 $68 #
coedge $-1 $149 $149 $238 $239 reversed $93 $-1 #
face $-1 $-1 $240 $53 $-1 $241 forward single #
loop $-1 $242 $243 $95 #
cone-surface $-1 -40.095001774979401 -7.3284210398595562 6.5594495552306817 0.64278761758704617 0 -0.76604443648966558 0.1915111091224164 0 0.16069690439676154 1 I I -0.70710678118654746 0.70710678118654746 0.25 forward I I I I #
loop $-1 $-1 $244 $69 #
coedge $-1 $154 $154 $245 $246 reversed $96 $-1 #
face $-1 $247 $248 $54 $-1 $249 forward single #
loop $-1 $-1 $250 $98 #
plane-surface $-1 -48.731955931272317 25.009085814964834 0.94394348218305879 -0.64278761758704617 0 0.76604443648966558 0.76604443648966558 0 0.64278761758704617 forward_v I I I I #
coedge $-1 $251 $252 $253 $254 reversed $99 $-1 #
face $-1 $-1 $255 $55 $-1 $256 forward single #
loop $-1 $257 $258 $101 #
cone-surface $-1 -40.095001774979401 22.661279202888657 6.5594495552306817 0.64278761758704617 0 -0.76604443648966558 0.1915111091224164 0 0.16069690439676154 1 I I -0.70710678118654746 0.70710678118654746 0.25 forward I I I I #
loop $-1 $-1 $259 $71 #
coedge $-1 $163 $163 $260 $261 reversed $102 $-1 #
face $-1 $-1 $262 $56 $-1 $263 forward single #
loop $-1 $264 $265 $104 #
cone-surface $-1 -40.095001774979401 25.009085814964834 6.5594495552306817 0.64278761758704617 0 -0.76604443648966558 0.1915111091224164 0 0.16069690439676154 1 I I -0.70710678118654746 0.70710678118654746 0.25 forward I I I I #
loop $-1 $-1 $266 $72 #
coedge $-1 $168 $168 $267 $268 reversed $105 $-1 #
face $-1 $-1 $269 $57 $-1 $270 forward single #
loop $-1 $271 $272 $107 #
cone-surface $-1 -40.095001774979401 27.356892427041011 6.5594495552306817 0.64278761758704617 0 -0.76604443648966558 0.1915111091224164 0 0.16069690439676154 1 I I -0.70710678118654746 0.70710678118654746 0.25 forward I I I I #
loop $-1 $-1 $273 $73 #
coedge $-1 $173 $173 $274 $275 reversed $108 $-1 #
face $-1 $276 $277 $58 $-1 $278 reversed single #
loop $-1 $-1 $279 $110 #
plane-surface $-1 -23.697845133934401 0.87717037617461813 69.991649268486228 0.66913061440640931 0 0.74314481823134659 0.74314481823134659 0 -0.66913061440640931 forward_v I I I I #
coedge $-1 $280 $281 $282 $283 reversed $111 $-1 #
face $-1 $-1 $284 $59 $-1 $285 forward single #
loop $-1 $286 $287 $113 #
cone-surface $-1 41.015164086689332 -0.96302082963334357 6.6069839263734238 -0.66913061440640931 0 -0.74314481823134659 0.3715724091156733 0 -0.33456530720320465 1 I I -0.70710678118654746 0.70710678118654746 0.5 forward I I I I #
loop $-1 $-1 $288 $75 #
coedge $-1 $182 $182 $289 $290 reversed $114 $-1 #
face $-1 $-1 $291 $60 $-1 $292 forward single #
loop $-1 $293 $294 $116 #
cone-surface $-1 41.015164086689332 2.7173615819825798 6.6069839263734238 -0.66913061440640931 0 -0.74314481823134659 0.3715724091156733 0 -0.33456530720320465 1 I I -0.70710678118654746 0.70710678118654746 0.5 forward I I I I #
loop $-1 $-1 $295 $76 #
coedge $-1 $187 $187 $296 $297 reversed $117 $-1 #
face $-1 $298 $299 $61 $-1 $300 reversed single #
loop $-1 $-1 $301 $119 #
plane-surface $-1 -23.697845133934401 14.455687786854483 69.991649268486228 0.66913061440640931 0 0.74314481823134659 0.74314481823134659 0 -0.66913061440640931 forward_v I I I I #
coedge $-1 $302 $303 $304 $305 reversed $120 $-1 #
face $-1 $-1 $306 $62 $-1 $307 forward single #
loop $-1 $308 $309 $122 #
cone-surface $-1 41.015164086689332 12.615496581046521 6.6069839263734238 -0.66913061440640931 0 -0.74314481823134659 0.3715724091156733 0 -0.33456530720320465 1 I I -0.70710678118654746 0.70710678118654746 0.5 forward I I I I #
loop $-1 $-1 $310 $78 #
coedge $-1 $196 $196 $311 $312 reversed $123 $-1 #
face $-1 $-1 $313 $63 $-1 $314 forward single #
loop $-1 $315 $316 $125 #
cone-surface $-1 41.015164086689332 16.295878992662445 6.6069839263734238 -0.66913061440640931 0 -0.74314481823134659 0.3715724091156733 0 -0.33456530720320465 1 I I -0.70710678118654746 0.70710678118654746 0.5 forward I I I I #
loop $-1 $-1 $317 $79 #
coedge $-1 $201 $201 $318 $319 reversed $126 $-1 #
face $-1 $320 $321 $48 $-1 $322 reversed single #
loop $-1 $-1 $323 $128 #
plane-surface $-1 0 -28.922096835091793 0 0 1 0 0 0 1 forward_v I I I I #
coedge $-1 $324 $325 $326 $327 forward $129 $-1 #
coedge $-1 $328 $131 $329 $330 forward $81 $-1 #
coedge $-1 $131 $328 $331 $332 forward $81 $-1 #
coedge $-1 $333 $334 $131 $209 reversed $335 $-1 #
edge $-1 $336 -28.922096835091793 $337 28.922096835091793 $208 $338 forward 7 unknown #
face $-1 $339 $340 $49 $-1 $341 reversed single #
loop $-1 $-1 $342 $132 #
plane-surface $-1 0 0 -14.090066719502467 0 0 1 1 0 0 forward_v I I I I #
coedge $-1 $343 $344 $345 $346 reversed $133 $-1 #
coedge $-1 $347 $135 $344 $348 forward $84 $-1 #
coedge $-1 $135 $347 $349 $350 reversed $84 $-1 #
coedge $-1 $351 $345 $135 $217 forward $340 $-1 #
edge $-1 $352 2.9614047952740705 $353 18.294262958303172 $216 $354 forward 7 unknown #
face $-1 $355 $356 $50 $-1 $357 forward single #
loop $-1 $-1 $358 $136 #
plane-surface $-1 -111.38055163811123 -5.7632166318087741 75.605630923004497 0 -1 0 0.64278761758704617 0 -0.76604443648966558 forward_v I I I I #
coedge $-1 $359 $360 $361 $362 reversed $137 $-1 #
coedge $-1 $223 $139 $363 $364 reversed $87 $-1 #
coedge $-1 $139 $222 $359 $365 reversed $87 $-1 #
coedge $-1 $361 $366 $139 $225 forward $356 $-1 #
edge $-1 $367 6.958319887783297 $368 22.625259156401512 $224 $369 forward 7 unknown #
loop $-1 $-1 $231 $140 #
plane-surface $-1 -48.731955931272317 -9.6762276519357329 0.94394348218305879 -0.64278761758704617 0 0.76604443648966558 0.76604443648966558 0 0.64278761758704617 forward_v I I I I #
loop $-1 $-1 $370 $89 #
coedge $-1 $229 $229 $230 $371 reversed $141 $-1 #
coedge $-1 $230 $230 $229 $371 forward $143 $-1 #
coedge $-1 $231 $231 $144 $232 forward $226 $-1 #
edge $-1 $372 0 $372 6.2831853071796004 $231 $373 forward 7 unknown #
loop $-1 $-1 $238 $145 #
plane-surface $-1 -48.731955931272317 -9.6762276519357329 0.94394348218305879 -0.64278761758704617 0 0.76604443648966558 0.76604443648966558 0 0.64278761758704617 forward_v I I I I #
loop $-1 $-1 $374 $92 #
coedge $-1 $236 $236 $237 $375 reversed $146 $-1 #
coedge $-1 $237 $237 $236 $375 forward $148 $-1 #
coedge $-1 $238 $238 $149 $239 forward $233 $-1 #
edge $-1 $376 0 $376 6.2831853071796004 $238 $377 forward 7 unknown #
loop $-1 $-1 $245 $150 #
plane-surface $-1 -48.731955931272317 -9.6762276519357329 0.94394348218305879 -0.64278761758704617 0 0.76604443648966558 0.76604443648966558 0 0.64278761758704617 forward_v I I I I #
loop $-1 $-1 $378 $95 #
coedge $-1 $243 $243 $244 $379 reversed $151 $-1 #
coedge $-1 $244 $244 $243 $379 forward $153 $-1 #
coedge $-1 $245 $245 $154 $246 forward $240 $-1 #
edge $-1 $380 0 $380 6.2831853071796004 $245 $381 forward 7 unknown #
face $-1 $382 $383 $54 $-1 $384 reversed single #
loop $-1 $-1 $253 $155 #
plane-surface $-1 0 0 14.090066719502467 0 0 1 1 0 0 forward_v I I I I #
coedge $-1 $385 $386 $387 $388 reversed $156 $-1 #
coedge $-1 $252 $158 $389 $390 reversed $99 $-1 #
coedge $-1 $158 $251 $385 $391 reversed $99 $-1 #
coedge $-1 $387 $392 $158 $254 forward $248 $-1 #
edge $-1 $393 6.958319887783297 $394 22.625259156401512 $253 $395 forward 7 unknown #
loop $-1 $-1 $260 $159 #
plane-surface $-1 -48.731955931272317 25.009085814964834 0.94394348218305879 -0.64278761758704617 0 0.76604443648966558 0.76604443648966558 0 0.64278761758704617 forward_v I I I I #
loop $-1 $-1 $396 $101 #
coedge $-1 $258 $258 $259 $397 reversed $160 $-1 #
coedge $-1 $259 $259 $258 $397 forward $162 $-1 #
coedge $-1 $260 $260 $163 $261 forward $255 $-1 #
edge $-1 $398 0 $398 6.2831853071796004 $260 $399 forward 7 unknown #
loop $-1 $-1 $267 $164 #
plane-surface $-1 -48.731955931272317 25.009085814964834 0.94394348218305879 -0.64278761758704617 0 0.76604443648966558 0.76604443648966558 0 0.64278761758704617 forward_v I I I I #
loop $-1 $-1 $400 $104 #
coedge $-1 $265 $265 $266 $401 reversed $165 $-1 #
coedge $-1 $266 $266 $265 $401 forward $167 $-1 #
coedge $-1 $267 $267 $168 $268 forward $262 $-1 #
edge $-1 $402 0 $402 6.2831853071796004 $267 $403 forward 7 unknown #
loop $-1 $-1 $274 $169 #
plane-surface $-1 -48.731955931272317 25.009085814964834 0.94394348218305879 -0.64278761758704617 0 0.76604443648966558 0.76604443648966558 0 0.64278761758704617 forward_v I I I I #
loop $-1 $-1 $404 $107 #
coedge $-1 $272 $272 $273 $405 reversed $170 $-1 #
coedge $-1 $273 $273 $272 $405 forward $172 $-1 #
coedge $-1 $274 $274 $173 $275 forward $269 $-1 #
edge $-1 $406 0 $406 6.2831853071796004 $274 $407 forward 7 unknown #
face $-1 $408 $409 $58 $-1 $410 forward single #
loop $-1 $-1 $411 $174 #
plane-surface $-1 41.518242093102209 -3.4166091040439586 142.42145033369295 0 1 0 0.66913061440640931 0 0.74314481823134659 forward_v I I I I #
coedge $-1 $412 $413 $414 $415 reversed $175 $-1 #
coedge $-1 $281 $177 $416 $417 reversed $111 $-1 #
coedge $-1 $177 $280 $412 $418 reversed $111 $-1 #
coedge $-1 $414 $419 $177 $283 forward $409 $-1 #
edge $-1 $420 -27.972834884721212 $421 -17.628029645123565 $282 $422 forward 7 unknown #
loop $-1 $-1 $289 $178 #
plane-surface $-1 -23.697845133934401 0.87717037617461813 69.991649268486228 0.66913061440640931 0 0.74314481823134659 0.74314481823134659 0 -0.66913061440640931 forward_v I I I I #
loop $-1 $-1 $423 $113 #
coedge $-1 $287 $287 $288 $424 reversed $179 $-1 #
coedge $-1 $288 $288 $287 $424 forward $181 $-1 #
coedge $-1 $289 $289 $182 $290 forward $284 $-1 #
edge $-1 $425 0 $425 6.2831853071796004 $289 $426 forward 7 unknown #
loop $-1 $-1 $296 $183 #
plane-surface $-1 -23.697845133934401 0.87717037617461813 69.991649268486228 0.66913061440640931 0 0.74314481823134659 0.74314481823134659 0 -0.66913061440640931 forward_v I I I I #
loop $-1 $-1 $427 $116 #
coedge $-1 $294 $294 $295 $428 reversed $184 $-1 #
coedge $-1 $295 $295 $294 $428 forward $186 $-1 #
coedge $-1 $296 $296 $187 $297 forward $291 $-1 #
edge $-1 $429 0 $429 6.2831853071796004 $296 $430 forward 7 unknown #
face $-1 $431 $432 $61 $-1 $433 reversed single #
loop $-1 $-1 $434 $188 #
plane-surface $-1 41.518242093102209 10.161908306635906 142.42145033369295 0 1 0 0.66913061440640931 0 0.74314481823134659 forward_v I I I I #
coedge $-1 $435 $436 $437 $438 reversed $189 $-1 #
coedge $-1 $303 $191 $439 $440 reversed $120 $-1 #
coedge $-1 $191 $302 $435 $441 reversed $120 $-1 #
coedge $-1 $437 $442 $191 $305 forward $443 $-1 #
edge $-1 $444 -27.972834884721212 $445 -17.628029645123565 $304 $446 forward 7 unknown #
loop $-1 $-1 $311 $192 #
plane-surface $-1 -23.697845133934401 14.455687786854483 69.991649268486228 0.66913061440640931 0 0.74314481823134659 0.74314481823134659 0 -0.66913061440640931 forward_v I I I I #
loop $-1 $-1 $447 $122 #
coedge $-1 $309 $309 $310 $448 reversed $193 $-1 #
coedge $-1 $310 $310 $309 $448 forward $195 $-1 #
coedge $-1 $311 $311 $196 $312 forward $306 $-1 #
edge $-1 $449 0 $449 6.2831853071796004 $311 $450 forward 7 unknown #
loop $-1 $-1 $318 $197 #
plane-surface $-1 -23.697845133934401 14.455687786854483 69.991649268486228 0.66913061440640931 0 0.74314481823134659 0.74314481823134659 0 -0.66913061440640931 forward_v I I I I #
loop $-1 $-1 $451 $125 #
coedge $-1 $316 $316 $317 $452 reversed $198 $-1 #
coedge $-1 $317 $317 $316 $452 forward $200 $-1 #
coedge $-1 $318 $318 $201 $319 forward $313 $-1 #
edge $-1 $453 0 $453 6.2831853071796004 $318 $454 forward 7 unknown #
face $-1 $455 $456 $48 $-1 $457 reversed single #
loop $-1 $-1 $458 $202 #
plane-surface $-1 -48.731955931272317 0 0 1 0 0 0 0 -1 forward_v I I I I #
coedge $-1 $459 $331 $460 $461 forward $203 $-1 #
coedge $-1 $462 $205 $459 $463 forward $129 $-1 #
coedge $-1 $205 $462 $464 $465 forward $129 $-1 #
coedge $-1 $334 $333 $205 $327 reversed $335 $-1 #
edge $-1 $466 -28.922096835091793 $467 28.922096835091793 $326 $468 forward 7 unknown #
coedge $-1 $207 $206 $469 $470 forward $81 $-1 #
coedge $-1 $471 $472 $206 $330 reversed $456 $-1 #
edge $-1 $337 -48.731955931272317 $473 48.731955931272317 $329 $474 forward 7 unknown #
coedge $-1 $323 $475 $207 $332 reversed $203 $-1 #
edge $-1 $476 -48.731955931272317 $336 48.731955931272317 $331 $477 forward 7 unknown #
coedge $-1 $326 $208 $475 $478 forward $335 $-1 #
coedge $-1 $208 $326 $471 $479 reversed $335 $-1 #
loop $-1 $-1 $333 $455 #
vertex $-1 $209 $480 #
vertex $-1 $209 $481 #
straight-curve $-1 48.731955931272317 0 14.090066719502467 0 1 0 I I #
face $-1 $482 $483 $49 $-1 $484 reversed single #
loop $-1 $-1 $345 $210 #
plane-surface $-1 48.731955931272317 0 0 -1 0 0 0 0 1 forward_v I I I I #
coedge $-1 $485 $486 $343 $487 forward $211 $-1 #
coedge $-1 $488 $213 $342 $487 reversed $133 $-1 #
coedge $-1 $213 $488 $214 $348 reversed $133 $-1 #
coedge $-1 $216 $489 $213 $346 forward $340 $-1 #
edge $-1 $490 -7.901243459807306 $352 -4.4764030595830153 $345 $491 forward 7 unknown #
coedge $-1 $215 $214 $492 $493 reversed $84 $-1 #
edge $-1 $352 -48.731955931272317 $494 48.731955931272317 $344 $495 forward 7 unknown #
coedge $-1 $496 $497 $215 $350 forward $483 $-1 #
edge $-1 $353 -48.731955931272317 $498 48.731955931272317 $349 $499 forward 7 unknown #
coedge $-1 $489 $216 $497 $500 forward $340 $-1 #
vertex $-1 $217 $501 #
vertex $-1 $500 $502 #
straight-curve $-1 48.731955931272317 -10.627833876788621 -10.665226319278176 0 -1 0 I I #
face $-1 $-1 $503 $50 $-1 $504 reversed single #
loop $-1 $-1 $224 $218 #
plane-surface $-1 0 0 14.090066719502467 0 0 1 1 0 0 forward_v I I I I #
coedge $-1 $505 $506 $507 $508 reversed $219 $-1 #
coedge $-1 $509 $221 $223 $365 forward $137 $-1 #
coedge $-1 $221 $509 $505 $510 forward $137 $-1 #
coedge $-1 $507 $224 $221 $362 forward $356 $-1 #
edge $-1 $368 -8.7511248460948252 $511 -0.92510280584090765 $361 $512 forward 7 unknown #
coedge $-1 $513 $514 $222 $364 forward $503 $-1 #
edge $-1 $515 -36.85887197931919 $367 -23.712748741999782 $363 $516 forward 7 unknown #
edge $-1 $368 -20.451736899768704 $515 0 $223 $517 forward 7 unknown #
coedge $-1 $224 $507 $513 $518 forward $356 $-1 #
vertex $-1 $364 $519 #
vertex $-1 $225 $520 #
straight-curve $-1 -55.690275819055614 -13.589238672062692 14.090066719502467 1 0 0 I I #
coedge $-1 $370 $370 $-1 $521 reversed $228 $-1 #
edge $-1 $522 0 $522 6.2831853071796004 $229 $523 forward 7 unknown #
vertex $-1 $232 $524 #
ellipse-curve $-1 -40.898486296963206 -12.02403426401191 7.5170051008427645 -0.64278761758704617 0 0.76604443648966558 0.38302221824483279 0 0.32139380879352308 1 I I #
coedge $-1 $374 $374 $-1 $525 reversed $235 $-1 #
edge $-1 $526 0 $526 6.2831853071796004 $236 $527 forward 7 unknown #
vertex $-1 $239 $528 #
ellipse-curve $-1 -40.898486296963206 -9.6762276519357329 7.5170051008427645 -0.64278761758704617 0 0.76604443648966558 0.38302221824483279 0 0.32139380879352308 1 I I #
coedge $-1 $378 $378 $-1 $529 reversed $242 $-1 #
edge $-1 $530 0 $530 6.2831853071796004 $243 $531 forward 7 unknown #
vertex $-1 $246 $532 #
ellipse-curve $-1 -40.898486296963206 -7.3284210398595562 7.5170051008427645 -0.64278761758704617 0 0.76604443648966558 0.38302221824483279 0 0.32139380879352308 1 I I #
face $-1 $-1 $533 $54 $-1 $534 reversed single #
loop $-1 $-1 $535 $247 #
plane-surface $-1 0 28.922096835091793 0 0 -1 0 0 0 -1 forward_v I I I I #
coedge $-1 $536 $250 $252 $391 forward $156 $-1 #
coedge $-1 $250 $536 $535 $537 reversed $156 $-1 #
coedge $-1 $538 $253 $250 $388 forward $248 $-1 #
edge $-1 $394 8.5915318873554583 $539 16.417553927609376 $387 $540 forward 7 unknown #
coedge $-1 $541 $542 $251 $390 forward $533 $-1 #
edge $-1 $543 -36.85887197931919 $393 -23.712748741999782 $389 $544 forward 7 unknown #
edge $-1 $394 -20.451736899768704 $543 0 $252 $545 forward 7 unknown #
coedge $-1 $253 $538 $541 $546 forward $248 $-1 #
vertex $-1 $390 $547 #
vertex $-1 $254 $548 #
straight-curve $-1 -55.690275819055614 21.096074794837875 14.090066719502467 1 0 0 I I #
coedge $-1 $396 $396 $-1 $549 reversed $257 $-1 #
edge $-1 $550 0 $550 6.2831853071796004 $258 $551 forward 7 unknown #
vertex $-1 $261 $552 #
ellipse-curve $-1 -40.898486296963206 22.661279202888657 7.5170051008427645 -0.64278761758704617 0 0.76604443648966558 0.38302221824483279 0 0.32139380879352308 1 I I #
coedge $-1 $400 $400 $-1 $553 reversed $264 $-1 #
edge $-1 $554 0 $554 6.2831853071796004 $265 $555 forward 7 unknown #
vertex $-1 $268 $556 #
ellipse-curve $-1 -40.898486296963206 25.009085814964834 7.5170051008427645 -0.64278761758704617 0 0.76604443648966558 0.38302221824483279 0 0.32139380879352308 1 I I #
coedge $-1 $404 $404 $-1 $557 reversed $271 $-1 #
edge $-1 $558 0 $558 6.2831853071796004 $272 $559 forward 7 unknown #
vertex $-1 $275 $560 #
ellipse-curve $-1 -40.898486296963206 27.356892427041011 7.5170051008427645 -0.64278761758704617 0 0.76604443648966558 0.38302221824483279 0 0.32139380879352308 1 I I #
face $-1 $-1 $561 $58 $-1 $562 reversed single #
loop $-1 $-1 $282 $276 #
plane-surface $-1 0 0 14.090066719502467 0 0 1 1 0 0 forward_v I I I I #
coedge $-1 $563 $564 $565 $566 reversed $277 $-1 #
coedge $-1 $567 $279 $281 $418 forward $175 $-1 #
coedge $-1 $279 $567 $563 $568 forward $175 $-1 #
coedge $-1 $565 $282 $279 $415 forward $409 $-1 #
edge $-1 $421 -4.7323646683058858 $569 3.8551942921312676 $414 $570 forward 7 unknown #
coedge $-1 $571 $572 $280 $417 forward $561 $-1 #
edge $-1 $573 -66.435163125396855 $420 -57.120658447344006 $416 $574 forward 7 unknown #
edge $-1 $421 83.543603215008275 $573 97.46391186254462 $281 $575 forward 7 unknown #
coedge $-1 $282 $565 $571 $576 forward $409 $-1 #
vertex $-1 $417 $577 #
vertex $-1 $283 $578 #
straight-curve $-1 20.759121046551105 5.1709498563931948 14.09006671950246 -1 0 0 I I #
coedge $-1 $423 $423 $-1 $579 reversed $286 $-1 #
edge $-1 $580 0 $580 6.2831853071796004 $287 $581 forward 7 unknown #
vertex $-1 $290 $582 #
ellipse-curve $-1 43.559553311473493 -0.96302082963334357 9.4328143804760352 0.66913061440640931 0 0.74314481823134659 0.74314481823134659 0 -0.66913061440640931 1 I I #
coedge $-1 $427 $427 $-1 $583 reversed $293 $-1 #
edge $-1 $584 0 $584 6.2831853071796004 $294 $585 forward 7 unknown #
vertex $-1 $297 $586 #
ellipse-curve $-1 43.559553311473493 2.7173615819825798 9.4328143804760352 0.66913061440640931 0 0.74314481823134659 0.74314481823134659 0 -0.66913061440640931 1 I I #
face $-1 $-1 $443 $61 $-1 $587 forward single #
loop $-1 $-1 $588 $298 #
plane-surface $-1 48.731955931272317 0 0 -1 0 0 0 0 1 forward_v I I I I #
coedge $-1 $589 $590 $591 $592 reversed $299 $-1 #
coedge $-1 $593 $301 $303 $441 forward $189 $-1 #
coedge $-1 $301 $593 $589 $594 forward $189 $-1 #
coedge $-1 $591 $304 $301 $438 forward $443 $-1 #
edge $-1 $445 -11.521623373645816 $595 -2.9340644132086648 $437 $596 forward 7 unknown #
coedge $-1 $597 $598 $302 $440 forward $432 $-1 #
edge $-1 $599 -66.435163125396855 $444 -57.120658447344006 $439 $600 forward 7 unknown #
edge $-1 $445 83.543603215008275 $599 97.46391186254462 $303 $601 forward 7 unknown #
coedge $-1 $304 $591 $597 $602 forward $443 $-1 #
loop $-1 $-1 $591 $431 #
vertex $-1 $440 $603 #
vertex $-1 $305 $604 #
straight-curve $-1 20.759121046551105 18.749467267073058 14.09006671950246 -1 0 0 I I #
coedge $-1 $447 $447 $-1 $605 reversed $308 $-1 #
edge $-1 $606 0 $606 6.2831853071796004 $309 $607 forward 7 unknown #
vertex $-1 $312 $608 #
ellipse-curve $-1 43.559553311473493 12.615496581046521 9.4328143804760352 0.66913061440640931 0 0.74314481823134659 0.74314481823134659 0 -0.66913061440640931 1 I I #
coedge $-1 $451 $451 $-1 $609 reversed $315 $-1 #
edge $-1 $610 0 $610 6.2831853071796004 $316 $611 forward 7 unknown #
vertex $-1 $319 $612 #
ellipse-curve $-1 43.559553311473493 16.295878992662445 9.4328143804760352 0.66913061440640931 0 0.74314481823134659 0.74314481823134659 0 -0.66913061440640931 1 I I #
face $-1 $-1 $335 $48 $-1 $613 reversed single #
loop $-1 $-1 $471 $320 #
plane-surface $-1 0 28.922096835091793 0 0 -1 0 0 0 -1 forward_v I I I I #
coedge $-1 $614 $469 $472 $615 forward $321 $-1 #
coedge $-1 $475 $323 $324 $463 reversed $203 $-1 #
coedge $-1 $469 $614 $323 $461 reversed $321 $-1 #
edge $-1 $476 -14.090066719502467 $616 14.090066719502467 $460 $617 forward 7 unknown #
coedge $-1 $325 $324 $614 $618 forward $129 $-1 #
edge $-1 $467 -48.731955931272317 $616 48.731955931272317 $459 $619 forward 7 unknown #
coedge $-1 $472 $471 $325 $465 reversed $456 $-1 #
edge $-1 $620 -48.731955931272317 $466 48.731955931272317 $464 $621 forward 7 unknown #
vertex $-1 $327 $622 #
vertex $-1 $478 $623 #
straight-curve $-1 48.731955931272317 0 -14.090066719502467 0 -1 0 I I #
coedge $-1 $458 $460 $328 $470 reversed $321 $-1 #
edge $-1 $473 -28.922096835091793 $476 28.922096835091793 $469 $624 forward 7 unknown #
coedge $-1 $464 $329 $334 $479 forward $456 $-1 #
coedge $-1 $329 $464 $458 $615 reversed $456 $-1 #
vertex $-1 $330 $625 #
straight-curve $-1 0 28.922096835091793 14.090066719502467 -1 0 0 I I #
coedge $-1 $331 $459 $333 $478 reversed $203 $-1 #
vertex $-1 $470 $626 #
straight-curve $-1 0 -28.922096835091793 14.090066719502467 1 0 0 I I #
edge $-1 $336 -14.090066719502467 $467 14.090066719502467 $333 $627 forward 7 unknown #
edge $-1 $337 -14.090066719502467 $466 14.090066719502467 $334 $628 forward 7 unknown #
point $-1 48.731955931272317 -28.922096835091793 14.090066719502467 #
point $-1 48.731955931272317 28.922096835091793 14.090066719502467 #
face $-1 $-1 $629 $49 $-1 $630 reversed single #
loop $-1 $-1 $349 $339 #
plane-surface $-1 0 -28.922096835091793 0 0 1 0 0 0 1 forward_v I I I I #
coedge $-1 $631 $342 $489 $632 forward $211 $-1 #
coedge $-1 $342 $631 $633 $634 forward $211 $-1 #
edge $-1 $635 -48.731955931272317 $490 48.731955931272317 $342 $636 forward 7 unknown #
coedge $-1 $344 $343 $637 $638 reversed $133 $-1 #
coedge $-1 $345 $351 $485 $632 reversed $340 $-1 #
vertex $-1 $632 $639 #
straight-curve $-1 48.731955931272317 -13.589238672062692 -6.1888232596951607 0 0 1 I I #
coedge $-1 $637 $640 $347 $493 forward $629 $-1 #
edge $-1 $498 -18.294262958303172 $494 -2.9614047952740705 $492 $641 forward 7 unknown #
vertex $-1 $493 $642 #
straight-curve $-1 0 -13.589238672062692 -10.665226319278176 -1 0 0 I I #
coedge $-1 $643 $349 $640 $644 forward $483 $-1 #
coedge $-1 $349 $643 $351 $500 reversed $483 $-1 #
vertex $-1 $644 $645 #
straight-curve $-1 0 -28.922096835091793 -10.665226319278176 -1 0 0 I I #
edge $-1 $353 10.665226319278176 $646 14.090066719502467 $351 $647 forward 7 unknown #
point $-1 48.731955931272317 -13.589238672062692 -10.665226319278176 #
point $-1 48.731955931272317 -28.922096835091793 -10.665226319278176 #
loop $-1 $-1 $363 $355 #
plane-surface $-1 -48.731955931272317 0 0 1 0 0 0 0 -1 forward_v I I I I #
coedge $-1 $506 $358 $360 $510 reversed $219 $-1 #
coedge $-1 $358 $505 $648 $649 reversed $219 $-1 #
coedge $-1 $366 $361 $358 $508 forward $356 $-1 #
edge $-1 $511 -22.625259156401512 $650 -6.958319887783297 $507 $651 forward 7 unknown #
coedge $-1 $360 $359 $514 $652 reversed $137 $-1 #
edge $-1 $653 0 $511 20.451736899768704 $505 $654 forward 7 unknown #
vertex $-1 $362 $655 #
straight-curve $-1 -33.065016662654095 -4.8381138259678664 14.090066719502467 0 1 0 I I #
coedge $-1 $648 $363 $366 $518 reversed $503 $-1 #
coedge $-1 $363 $648 $509 $652 forward $503 $-1 #
vertex $-1 $364 $656 #
straight-curve $-1 -48.731955931272317 -13.589238672062692 37.802815461502249 0 0 1 I I #
straight-curve $-1 -48.731955931272317 -13.589238672062692 0.94394348218305879 -0.76604443648966558 0 -0.64278761758704617 I I #
edge $-1 $650 5.7632166318087741 $367 13.589238672062692 $513 $657 forward 7 unknown #
point $-1 -48.731955931272317 -13.589238672062692 14.090066719502467 #
point $-1 -33.065016662654102 -13.589238672062692 14.090066719502467 #
edge $-1 $658 1 $658 0 $370 $-1 forward 7 unknown #
vertex $-1 $371 $659 #
ellipse-curve $-1 -40.25569867937616 -12.02403426401191 6.7509606643530979 -0.64278761758704617 0 0.76604443648966558 0.38302221824483279 0 0.32139380879352308 1 I I #
point $-1 -40.515464078718374 -12.02403426401191 7.8383989096362869 #
edge $-1 $660 1 $660 0 $374 $-1 forward 7 unknown #
vertex $-1 $375 $661 #
ellipse-curve $-1 -40.25569867937616 -9.6762276519357329 6.7509606643530979 -0.64278761758704617 0 0.76604443648966558 0.38302221824483279 0 0.32139380879352308 1 I I #
point $-1 -40.515464078718374 -9.6762276519357329 7.8383989096362869 #
edge $-1 $662 1 $662 0 $378 $-1 forward 7 unknown #
vertex $-1 $379 $663 #
ellipse-curve $-1 -40.25569867937616 -7.3284210398595562 6.7509606643530979 -0.64278761758704617 0 0.76604443648966558 0.38302221824483279 0 0.32139380879352308 1 I I #
point $-1 -40.515464078718374 -7.3284210398595562 7.8383989096362869 #
loop $-1 $-1 $389 $382 #
plane-surface $-1 -48.731955931272317 0 0 1 0 0 0 0 -1 forward_v I I I I #
coedge $-1 $664 $665 $386 $537 forward $383 $-1 #
coedge $-1 $386 $385 $542 $666 reversed $156 $-1 #
edge $-1 $539 -2.0896926305879764 $667 18.362044269180728 $535 $668 forward 7 unknown #
coedge $-1 $392 $387 $665 $669 forward $248 $-1 #
vertex $-1 $669 $670 #
straight-curve $-1 -33.065016662654095 12.504542907482417 14.090066719502467 0 1 0 I I #
coedge $-1 $671 $389 $392 $546 reversed $533 $-1 #
coedge $-1 $389 $671 $536 $666 forward $533 $-1 #
vertex $-1 $390 $672 #
straight-curve $-1 -48.731955931272317 21.096074794837875 37.802815461502249 0 0 1 I I #
straight-curve $-1 -48.731955931272317 21.096074794837875 0.94394348218305879 -0.76604443648966558 0 -0.64278761758704617 I I #
edge $-1 $673 -28.922096835091793 $393 -21.096074794837875 $541 $674 forward 7 unknown #
point $-1 -48.731955931272317 21.096074794837875 14.090066719502467 #
point $-1 -33.065016662654102 21.096074794837875 14.090066719502467 #
edge $-1 $675 1 $675 0 $396 $-1 forward 7 unknown #
vertex $-1 $397 $676 #
ellipse-curve $-1 -40.25569867937616 22.661279202888657 6.7509606643530979 -0.64278761758704617 0 0.76604443648966558 0.38302221824483279 0 0.32139380879352308 1 I I #
point $-1 -40.515464078718374 22.661279202888657 7.8383989096362869 #
edge $-1 $677 1 $677 0 $400 $-1 forward 7 unknown #
vertex $-1 $401 $678 #
ellipse-curve $-1 -40.25569867937616 25.009085814964834 6.7509606643530979 -0.64278761758704617 0 0.76604443648966558 0.38302221824483279 0 0.32139380879352308 1 I I #
point $-1 -40.515464078718374 25.009085814964834 7.8383989096362869 #
edge $-1 $679 1 $679 0 $404 $-1 forward 7 unknown #
vertex $-1 $405 $680 #
ellipse-curve $-1 -40.25569867937616 27.356892427041011 6.7509606643530979 -0.64278761758704617 0 0.76604443648966558 0.38302221824483279 0 0.32139380879352308 1 I I #
point $-1 -40.515464078718374 27.356892427041011 7.8383989096362869 #
loop $-1 $-1 $416 $408 #
plane-surface $-1 48.731955931272317 0 0 -1 0 0 0 0 1 forward_v I I I I #
coedge $-1 $564 $411 $413 $568 reversed $277 $-1 #
coedge $-1 $411 $563 $681 $682 reversed $277 $-1 #
coedge $-1 $419 $414 $411 $566 forward $409 $-1 #
edge $-1 $569 17.628029645123565 $683 27.972834884721212 $565 $684 forward 7 unknown #
coedge $-1 $413 $412 $572 $685 reversed $175 $-1 #
edge $-1 $686 -97.46391186254462 $569 -83.543603215008275 $563 $687 forward 7 unknown #
vertex $-1 $415 $688 #
straight-curve $-1 38.387150691674684 0.43858518808730906 14.09006671950246 0 -1 0 I I #
coedge $-1 $681 $416 $419 $576 reversed $561 $-1 #
coedge $-1 $416 $681 $567 $685 forward $561 $-1 #
vertex $-1 $417 $689 #
straight-curve $-1 48.731955931272317 5.1709498563931948 71.210725166846473 0 0 1 I I #
straight-curve $-1 -23.697845133934401 5.1709498563931948 69.991649268486228 0.74314481823134659 0 -0.66913061440640931 I I #
edge $-1 $683 -3.4166091040439586 $420 5.1709498563931948 $571 $690 forward 7 unknown #
point $-1 48.731955931272317 5.1709498563931948 14.090066719502467 #
point $-1 38.38715069167467 5.1709498563931948 14.090066719502467 #
edge $-1 $691 1 $691 0 $423 $-1 forward 7 unknown #
vertex $-1 $424 $692 #
ellipse-curve $-1 41.349729393892538 -0.96302082963334357 6.9785563354890972 0.66913061440640931 0 0.74314481823134659 0.74314481823134659 0 -0.66913061440640931 1 I I #
point $-1 44.302698129704837 -0.96302082963334357 8.7636837660696258 #
edge $-1 $693 1 $693 0 $427 $-1 forward 7 unknown #
vertex $-1 $428 $694 #
ellipse-curve $-1 41.349729393892538 2.7173615819825798 6.9785563354890972 0.66913061440640931 0 0.74314481823134659 0.74314481823134659 0 -0.66913061440640931 1 I I #
point $-1 44.302698129704837 2.7173615819825798 8.7636837660696258 #
plane-surface $-1 0 0 14.090066719502467 0 0 1 1 0 0 forward_v I I I I #
coedge $-1 $598 $597 $590 $695 forward $432 $-1 #
coedge $-1 $590 $434 $436 $594 reversed $299 $-1 #
coedge $-1 $434 $589 $588 $695 reversed $299 $-1 #
coedge $-1 $442 $437 $434 $592 forward $443 $-1 #
edge $-1 $595 17.628029645123565 $696 27.972834884721212 $591 $697 forward 7 unknown #
coedge $-1 $436 $435 $598 $698 reversed $189 $-1 #
edge $-1 $699 -97.46391186254462 $595 -83.543603215008275 $589 $700 forward 7 unknown #
vertex $-1 $438 $701 #
straight-curve $-1 38.387150691674684 7.2278438934272415 14.09006671950246 0 -1 0 I I #
coedge $-1 $588 $439 $442 $602 reversed $432 $-1 #
coedge $-1 $439 $588 $593 $698 forward $432 $-1 #
vertex $-1 $440 $702 #
straight-curve $-1 48.731955931272317 18.749467267073058 71.210725166846473 0 0 1 I I #
straight-curve $-1 -23.697845133934401 18.749467267073058 69.991649268486228 0.74314481823134659 0 -0.66913061440640931 I I #
edge $-1 $696 10.161908306635906 $444 18.749467267073058 $597 $703 forward 7 unknown #
point $-1 48.731955931272317 18.749467267073058 14.090066719502467 #
point $-1 38.38715069167467 18.749467267073058 14.090066719502467 #
edge $-1 $704 1 $704 0 $447 $-1 forward 7 unknown #
vertex $-1 $448 $705 #
ellipse-curve $-1 41.349729393892538 12.615496581046521 6.9785563354890972 0.66913061440640931 0 0.74314481823134659 0.74314481823134659 0 -0.66913061440640931 1 I I #
point $-1 44.302698129704837 12.615496581046521 8.7636837660696258 #
edge $-1 $706 1 $706 0 $451 $-1 forward 7 unknown #
vertex $-1 $452 $707 #
ellipse-curve $-1 41.349729393892538 16.295878992662445 6.9785563354890972 0.66913061440640931 0 0.74314481823134659 0.74314481823134659 0 -0.66913061440640931 1 I I #
point $-1 44.302698129704837 16.295878992662445 8.7636837660696258 #
plane-surface $-1 48.731955931272317 0 0 -1 0 0 0 0 1 forward_v I I I I #
coedge $-1 $460 $458 $462 $618 reversed $321 $-1 #
edge $-1 $473 -14.090066719502467 $620 14.090066719502467 $472 $708 forward 7 unknown #
vertex $-1 $618 $709 #
straight-curve $-1 -48.731955931272317 -28.922096835091793 0 0 0 -1 I I #
edge $-1 $616 -28.922096835091793 $620 28.922096835091793 $614 $710 forward 7 unknown #
straight-curve $-1 0 -28.922096835091793 -14.090066719502467 -1 0 0 I I #
vertex $-1 $465 $711 #
straight-curve $-1 0 28.922096835091793 -14.090066719502467 1 0 0 I I #
point $-1 48.731955931272317 28.922096835091793 -14.090066719502467 #
point $-1 48.731955931272317 -28.922096835091793 -14.090066719502467 #
straight-curve $-1 -48.731955931272317 0 14.090066719502467 0 -1 0 I I #
point $-1 -48.731955931272317 28.922096835091793 14.090066719502467 #
point $-1 -48.731955931272317 -28.922096835091793 14.090066719502467 #
straight-curve $-1 48.731955931272317 -28.922096835091793 0 0 0 -1 I I #
straight-curve $-1 48.731955931272317 28.922096835091793 0 0 0 -1 I I #
loop $-1 $-1 $637 $482 #
plane-surface $-1 -48.731955931272317 0 0 1 0 0 0 0 -1 forward_v I I I I #
coedge $-1 $486 $485 $643 $712 forward $211 $-1 #
edge $-1 $490 13.589238672062692 $646 28.922096835091793 $489 $713 forward 7 unknown #
coedge $-1 $640 $637 $486 $634 reversed $629 $-1 #
edge $-1 $714 -28.922096835091793 $635 -13.589238672062692 $633 $715 forward 7 unknown #
vertex $-1 $638 $716 #
straight-curve $-1 0 -13.589238672062692 -14.090066719502467 1 0 0 I I #
coedge $-1 $633 $492 $488 $638 forward $629 $-1 #
edge $-1 $494 4.4764030595830153 $635 7.901243459807306 $637 $717 forward 7 unknown #
point $-1 48.731955931272317 -13.589238672062692 -14.090066719502467 #
coedge $-1 $492 $633 $496 $644 reversed $629 $-1 #
straight-curve $-1 -48.731955931272317 -10.627833876788621 -10.665226319278176 0 1 0 I I #
point $-1 -48.731955931272317 -13.589238672062692 -10.665226319278176 #
coedge $-1 $497 $496 $631 $712 reversed $483 $-1 #
edge $-1 $498 10.665226319278176 $714 14.090066719502467 $640 $718 forward 7 unknown #
point $-1 -48.731955931272317 -28.922096835091793 -10.665226319278176 #
vertex $-1 $500 $719 #
straight-curve $-1 48.731955931272317 -28.922096835091793 0 0 0 -1 I I #
coedge $-1 $514 $513 $506 $649 forward $503 $-1 #
edge $-1 $650 23.712748741999782 $653 36.85887197931919 $648 $720 forward 7 unknown #
vertex $-1 $518 $721 #
straight-curve $-1 -55.690275819055614 -5.7632166318087741 14.090066719502467 -1 0 0 I I #
edge $-1 $653 0.92510280584090765 $515 8.7511248460948252 $514 $722 forward 7 unknown #
vertex $-1 $652 $723 #
straight-curve $-1 -48.731955931272317 -5.7632166318087741 0.94394348218305879 0.76604443648966558 0 0.64278761758704617 I I #
point $-1 -33.065016662654102 -5.7632166318087741 14.090066719502467 #
point $-1 -48.731955931272317 -13.589238672062692 0.94394348218305879 #
straight-curve $-1 -48.731955931272317 0 14.090066719502467 0 -1 0 I I #
vertex $-1 $521 $724 #
point $-1 -39.872676461131327 -12.02403426401191 7.0723544731466212 #
vertex $-1 $525 $725 #
point $-1 -39.872676461131327 -9.6762276519357329 7.0723544731466212 #
vertex $-1 $529 $726 #
point $-1 -39.872676461131327 -7.3284210398595562 7.0723544731466212 #
coedge $-1 $665 $535 $671 $727 reversed $383 $-1 #
coedge $-1 $535 $664 $538 $669 reversed $383 $-1 #
edge $-1 $667 -16.417553927609376 $543 -8.5915318873554583 $542 $728 forward 7 unknown #
vertex $-1 $537 $729 #
straight-curve $-1 -34.665814076289472 28.922096835091793 12.746838171997609 -0.76604443648966558 0 -0.64278761758704617 I I #
edge $-1 $539 33.065016662654102 $673 48.731955931272317 $665 $730 forward 7 unknown #
point $-1 -33.065016662654102 28.922096835091793 14.090066719502467 #
coedge $-1 $542 $541 $664 $727 forward $533 $-1 #
point $-1 -48.731955931272317 21.096074794837875 0.94394348218305879 #
vertex $-1 $669 $731 #
straight-curve $-1 -48.731955931272317 0 14.090066719502467 0 -1 0 I I #
vertex $-1 $549 $732 #
point $-1 -39.872676461131327 22.661279202888657 7.0723544731466212 #
vertex $-1 $553 $733 #
point $-1 -39.872676461131327 25.009085814964834 7.0723544731466212 #
vertex $-1 $557 $734 #
point $-1 -39.872676461131327 27.356892427041011 7.0723544731466212 #
coedge $-1 $572 $571 $564 $682 forward $561 $-1 #
edge $-1 $683 57.120658447344006 $686 66.435163125396855 $681 $735 forward 7 unknown #
vertex $-1 $576 $736 #
straight-curve $-1 20.759121046551105 -3.4166091040439586 14.09006671950246 1 0 0 I I #
edge $-1 $686 -3.8551942921312676 $573 4.7323646683058858 $572 $737 forward 7 unknown #
vertex $-1 $685 $738 #
straight-curve $-1 -23.697845133934401 -3.4166091040439586 69.991649268486228 -0.74314481823134659 0 0.66913061440640931 I I #
point $-1 38.38715069167467 -3.4166091040439586 14.090066719502467 #
point $-1 48.731955931272317 5.1709498563931948 4.7755620414496178 #
straight-curve $-1 48.731955931272317 0 14.090066719502467 0 1 0 I I #
vertex $-1 $579 $739 #
point $-1 42.092874212123881 -0.96302082963334357 6.3094257210826878 #
vertex $-1 $583 $740 #
point $-1 42.092874212123881 2.7173615819825798 6.3094257210826878 #
edge $-1 $696 57.120658447344006 $699 66.435163125396855 $588 $741 forward 7 unknown #
vertex $-1 $602 $742 #
straight-curve $-1 20.759121046551105 10.161908306635906 14.09006671950246 1 0 0 I I #
edge $-1 $699 2.9340644132086648 $599 11.521623373645816 $598 $743 forward 7 unknown #
vertex $-1 $698 $744 #
straight-curve $-1 -23.697845133934401 10.161908306635906 69.991649268486228 -0.74314481823134659 0 0.66913061440640931 I I #
point $-1 38.38715069167467 10.161908306635906 14.090066719502467 #
point $-1 48.731955931272317 18.749467267073058 4.7755620414496178 #
straight-curve $-1 48.731955931272317 0 14.090066719502467 0 1 0 I I #
vertex $-1 $605 $745 #
point $-1 42.092874212123881 12.615496581046521 6.3094257210826878 #
vertex $-1 $609 $746 #
point $-1 42.092874212123881 16.295878992662445 6.3094257210826878 #
straight-curve $-1 -48.731955931272317 28.922096835091793 0 0 0 -1 I I #
point $-1 -48.731955931272317 -28.922096835091793 -14.090066719502467 #
straight-curve $-1 -48.731955931272317 0 -14.090066719502467 0 1 0 I I #
point $-1 -48.731955931272317 28.922096835091793 -14.090066719502467 #
edge $-1 $646 -48.731955931272317 $714 48.731955931272317 $643 $747 forward 7 unknown #
straight-curve $-1 48.731955931272317 0 -14.090066719502467 0 -1 0 I I #
vertex $-1 $634 $748 #
straight-curve $-1 -48.731955931272317 0 -14.090066719502467 0 1 0 I I #
point $-1 -48.731955931272317 -13.589238672062692 -14.090066719502467 #
straight-curve $-1 -48.731955931272317 -13.589238672062692 -6.1888232596951607 0 0 -1 I I #
straight-curve $-1 -48.731955931272317 -28.922096835091793 0 0 0 -1 I I #
point $-1 48.731955931272317 -28.922096835091793 -14.090066719502467 #
straight-curve $-1 -48.731955931272317 -5.7632166318087741 37.802815461502249 0 0 -1 I I #
point $-1 -48.731955931272317 -5.7632166318087741 14.090066719502467 #
straight-curve $-1 -48.731955931272317 -4.8381138259678664 0.94394348218305812 0 -1 0 I I #
point $-1 -48.731955931272317 -5.7632166318087741 0.94394348218305879 #
point $-1 -39.934304870582643 -12.02403426401191 6.3679384461082655 #
point $-1 -39.934304870582643 -9.6762276519357329 6.3679384461082655 #
point $-1 -39.934304870582643 -7.3284210398595562 6.3679384461082655 #
edge $-1 $673 -14.090066719502467 $667 -0.94394348218305879 $664 $749 forward 7 unknown #
straight-curve $-1 -48.731955931272317 12.504542907482417 0.94394348218305812 0 -1 0 I I #
point $-1 -48.731955931272317 28.922096835091793 0.94394348218305879 #
straight-curve $-1 0 28.922096835091793 14.090066719502467 -1 0 0 I I #
point $-1 -48.731955931272317 28.922096835091793 14.090066719502467 #
point $-1 -39.934304870582643 22.661279202888657 6.3679384461082655 #
point $-1 -39.934304870582643 25.009085814964834 6.3679384461082655 #
point $-1 -39.934304870582643 27.356892427041011 6.3679384461082655 #
straight-curve $-1 48.731955931272317 -3.4166091040439586 71.210725166846473 0 0 -1 I I #
point $-1 48.731955931272317 -3.4166091040439586 14.090066719502467 #
straight-curve $-1 48.731955931272317 0.43858518808730906 4.7755620414496107 0 1 0 I I #
point $-1 48.731955931272317 -3.4166091040439586 4.7755620414496178 #
point $-1 40.680598779486125 -0.96302082963334357 6.2354115172577504 #
point $-1 40.680598779486125 2.7173615819825798 6.2354115172577504 #
straight-curve $-1 48.731955931272317 10.161908306635906 71.210725166846473 0 0 -1 I I #
point $-1 48.731955931272317 10.161908306635906 14.090066719502467 #
straight-curve $-1 48.731955931272317 7.2278438934272415 4.7755620414496107 0 1 0 I I #
point $-1 48.731955931272317 10.161908306635906 4.7755620414496178 #
point $-1 40.680598779486125 12.615496581046521 6.2354115172577504 #
point $-1 40.680598779486125 16.295878992662445 6.2354115172577504 #
straight-curve $-1 0 -28.922096835091793 -14.090066719502467 -1 0 0 I I #
point $-1 -48.731955931272317 -28.922096835091793 -14.090066719502467 #
straight-curve $-1 -48.731955931272317 28.922096835091793 0 0 0 -1 I I #
End-of-ACIS-data 