500 0 10 0           
7 Unknown 11 ACIS 5.0 NT 24 Fri Mar 26 01:45:39 1999 
-1 9.9999999999999995e-007 1e-010 
body $-1 $10 $-1 $11 #
body $-1 $12 $-1 $13 #
body $-1 $14 $-1 $15 #
body $-1 $16 $-1 $17 #
body $-1 $18 $-1 $19 #
body $-1 $20 $-1 $21 #
body $-1 $22 $-1 $23 #
body $-1 $24 $-1 $25 #
body $-1 $26 $-1 $27 #
body $-1 $28 $-1 $29 #
lump $-1 $-1 $30 $0 #
transform $-1 1 0 0 0 1 0 0 0 1 75.90441602832118 44.600533280473698 11.309318853342443 1 rotate no_reflect no_shear #
lump $-1 $-1 $31 $1 #
transform $-1 1 0 0 0 1 0 0 0 1 75.90441602832118 44.600533280473698 11.309318853342443 1 rotate no_reflect no_shear #
lump $-1 $-1 $32 $2 #
transform $-1 1 0 0 0 1 0 0 0 1 75.90441602832118 44.600533280473698 11.309318853342443 1 rotate no_reflect no_shear #
lump $-1 $-1 $33 $3 #
transform $-1 1 0 0 0 1 0 0 0 1 75.90441602832118 44.600533280473698 11.309318853342443 1 rotate no_reflect no_shear #
lump $-1 $-1 $34 $4 #
transform $-1 1 0 0 0 1 0 0 0 1 75.90441602832118 44.600533280473698 11.309318853342443 1 rotate no_reflect no_shear #
lump $-1 $-1 $35 $5 #
transform $-1 1 0 0 0 1 0 0 0 1 75.90441602832118 44.600533280473698 11.309318853342443 1 rotate no_reflect no_shear #
lump $-1 $-1 $36 $6 #
transform $-1 1 0 0 0 1 0 0 0 1 75.90441602832118 44.600533280473698 11.309318853342443 1 rotate no_reflect no_shear #
lump $-1 $-1 $37 $7 #
transform $-1 1 0 0 0 1 0 0 0 1 75.90441602832118 44.600533280473698 11.309318853342443 1 rotate no_reflect no_shear #
lump $-1 $-1 $38 $8 #
transform $-1 1 0 0 0 1 0 0 0 1 75.90441602832118 44.600533280473698 11.309318853342443 1 rotate no_reflect no_shear #
lump $-1 $-1 $39 $9 #
transform $-1 1 0 0 0 1 0 0 0 1 75.90441602832118 44.600533280473698 11.309318853342443 1 rotate no_reflect no_shear #
shell $-1 $-1 $-1 $40 $-1 $10 #
shell $-1 $-1 $-1 $41 $-1 $12 #
shell $-1 $-1 $-1 $42 $-1 $14 #
shell $-1 $-1 $-1 $43 $-1 $16 #
shell $-1 $-1 $-1 $44 $-1 $18 #
shell $-1 $-1 $-1 $45 $-1 $20 #
shell $-1 $-1 $-1 $46 $-1 $22 #
shell $-1 $-1 $-1 $47 $-1 $24 #
shell $-1 $-1 $-1 $48 $-1 $26 #
shell $-1 $-1 $-1 $49 $-1 $28 #
face $-1 $50 $51 $30 $-1 $52 forward single #
face $-1 $53 $54 $31 $-1 $55 reversed single #
face $-1 $56 $57 $32 $-1 $58 forward single #
face $-1 $59 $60 $33 $-1 $61 reversed single #
face $-1 $62 $63 $34 $-1 $64 forward single #
face $-1 $65 $66 $35 $-1 $67 forward single #
face $-1 $68 $69 $36 $-1 $70 reversed single #
face $-1 $71 $72 $37 $-1 $73 forward single #
face $-1 $74 $75 $38 $-1 $76 reversed single #
face $-1 $77 $78 $39 $-1 $79 forward single #
face $-1 $80 $81 $30 $-1 $82 reversed single #
loop $-1 $-1 $83 $40 #
plane-surface $-1 0 0 11.309318853342443 0 0 1 1 0 0 forward_v I I I I #
face $-1 $84 $85 $31 $-1 $86 forward single #
loop $-1 $-1 $87 $41 #
plane-surface $-1 -64.543836454250624 0 8.0155190373926182 -1 0 0 0 0 1 forward_v I I I I #
face $-1 $88 $89 $32 $-1 $90 reversed single #
loop $-1 $-1 $91 $42 #
plane-surface $-1 70.224126241285887 0 9.5155190373926182 0 0 1 1 0 0 forward_v I I I I #
face $-1 $92 $93 $33 $-1 $94 reversed single #
loop $-1 $-1 $95 $43 #
plane-surface $-1 1.0170277693216079 -131.67450330033796 131.15168778787097 1 0 0 0 0.57357644374324357 -0.81915203911291934 forward_v I I I I #
face $-1 $96 $97 $34 $-1 $98 forward single #
loop $-1 $99 $100 $44 #
cone-surface $-1 9.4714433179183573 -40.099665000354591 7.2268410975893378 0 0.57357644374324357 -0.81915203911291934 1.5 0 0 1 I I 0 1 1.5 forward I I I I #
face $-1 $101 $102 $35 $-1 $103 forward single #
loop $-1 $104 $105 $45 #
cone-surface $-1 22.153066640813478 -40.099665000354591 7.2268410975893378 0 0.57357644374324357 -0.81915203911291934 1.5 0 0 1 I I 0 1 1.5 forward I I I I #
face $-1 $106 $107 $36 $-1 $108 reversed single #
loop $-1 $-1 $109 $46 #
plane-surface $-1 -38.743241995036598 46.327625860758317 177.10646252759923 -1 0 0 0 0.51503808176128008 0.85716729658548041 forward_v I I I I #
face $-1 $110 $111 $37 $-1 $112 forward single #
loop $-1 $113 $114 $47 #
cone-surface $-1 -51.643539224643604 33.805695176872639 2.4320748821328895 0 -0.51503808176128008 -0.85716729658548041 4 0 0 1 I I 0 1 4 forward I I I I #
face $-1 $115 $116 $38 $-1 $117 reversed single #
loop $-1 $-1 $118 $48 #
plane-surface $-1 38.743241995036627 46.327625860758317 177.10646252759923 1 0 0 0 -0.51503808176128008 -0.85716729658548041 forward_v I I I I #
face $-1 $119 $120 $39 $-1 $121 forward single #
loop $-1 $122 $123 $49 #
cone-surface $-1 51.643539224643632 33.805695176872639 2.4320748821328895 0 -0.51503808176128008 -0.85716729658548041 4 0 0 1 I I 0 1 4 forward I I I I #
face $-1 $124 $125 $30 $-1 $126 reversed single #
loop $-1 $-1 $127 $50 #
plane-surface $-1 0 0 -11.309318853342443 0 0 1 1 0 0 forward_v I I I I #
coedge $-1 $128 $129 $130 $131 forward $51 $-1 #
face $-1 $132 $133 $31 $-1 $134 reversed single #
loop $-1 $-1 $135 $53 #
plane-surface $-1 -70.224126241285902 0 9.5155190373926182 0 0 1 1 0 0 forward_v I I I I #
coedge $-1 $136 $137 $135 $138 reversed $54 $-1 #
face $-1 $139 $140 $32 $-1 $141 reversed single #
loop $-1 $-1 $142 $56 #
plane-surface $-1 70.224126241285887 0 6.5155190373926182 0 0 1 1 0 0 forward_v I I I I #
coedge $-1 $143 $144 $145 $146 reversed $57 $-1 #
face $-1 $147 $148 $33 $-1 $149 reversed single #
loop $-1 $-1 $150 $59 #
plane-surface $-1 15.812254979365918 -44.600533280473726 6.7971734533216619 0 -0.57357644374324357 0.81915203911291934 1 0 0 forward_v I I I I #
coedge $-1 $151 $152 $153 $154 reversed $60 $-1 #
face $-1 $-1 $155 $34 $-1 $156 forward single #
loop $-1 $157 $158 $62 #
cone-surface $-1 9.4714433179183573 -38.390620055129027 4.7860720125119371 0 0.57357644374324357 -0.81915203911291934 0.75 0 0 1 I I -0.70710678118654757 0.70710678118654757 0.75 forward I I I I #
loop $-1 $-1 $159 $44 #
coedge $-1 $100 $100 $160 $161 reversed $63 $-1 #
face $-1 $-1 $162 $35 $-1 $163 forward single #
loop $-1 $164 $165 $65 #
cone-surface $-1 22.153066640813478 -38.390620055129027 4.7860720125119371 0 0.57357644374324357 -0.81915203911291934 0.75 0 0 1 I I -0.70710678118654757 0.70710678118654757 0.75 forward I I I I #
loop $-1 $-1 $166 $45 #
coedge $-1 $105 $105 $167 $168 reversed $66 $-1 #
face $-1 $169 $170 $36 $-1 $171 reversed single #
loop $-1 $-1 $172 $68 #
plane-surface $-1 -51.643539224643604 -31.859703796115085 46.980896355807886 0 0.51503808176128008 0.85716729658548041 1 0 0 forward_v I I I I #
coedge $-1 $173 $174 $175 $176 reversed $69 $-1 #
face $-1 $-1 $177 $37 $-1 $178 forward single #
loop $-1 $179 $180 $71 #
cone-surface $-1 -51.643539224643604 30.527162715251762 -3.0243193271750322 0 -0.51503808176128008 -0.85716729658548041 2 0 0 1 I I -0.70710678118654746 0.70710678118654746 2 forward I I I I #
loop $-1 $-1 $181 $47 #
coedge $-1 $114 $114 $182 $183 reversed $72 $-1 #
face $-1 $184 $185 $38 $-1 $186 forward single #
loop $-1 $-1 $187 $74 #
plane-surface $-1 51.643539224643632 -31.859703796115085 46.980896355807886 0 0.51503808176128008 0.85716729658548041 1 0 0 forward_v I I I I #
coedge $-1 $188 $189 $190 $191 reversed $75 $-1 #
face $-1 $-1 $192 $39 $-1 $193 forward single #
loop $-1 $194 $195 $77 #
cone-surface $-1 51.643539224643632 30.527162715251762 -3.0243193271750322 0 -0.51503808176128008 -0.85716729658548041 2 0 0 1 I I -0.70710678118654746 0.70710678118654746 2 forward I I I I #
loop $-1 $-1 $196 $49 #
coedge $-1 $123 $123 $197 $198 reversed $78 $-1 #
face $-1 $199 $200 $30 $-1 $201 reversed single #
loop $-1 $-1 $202 $80 #
plane-surface $-1 0 -44.600533280473698 0 0 1 0 0 0 1 forward_v I I I I #
coedge $-1 $203 $204 $205 $206 forward $81 $-1 #
coedge $-1 $207 $83 $208 $209 forward $51 $-1 #
coedge $-1 $83 $207 $210 $211 forward $51 $-1 #
coedge $-1 $212 $213 $83 $131 reversed $214 $-1 #
edge $-1 $215 -44.600533280473698 $216 44.600533280473698 $130 $217 forward 7 unknown #
face $-1 $218 $219 $31 $-1 $220 reversed single #
loop $-1 $-1 $221 $84 #
plane-surface $-1 -70.224126241285902 0 6.5155190373926182 0 0 1 1 0 0 forward_v I I I I #
coedge $-1 $222 $223 $87 $138 forward $85 $-1 #
coedge $-1 $224 $87 $225 $226 reversed $54 $-1 #
coedge $-1 $87 $224 $227 $228 reversed $54 $-1 #
edge $-1 $229 -44.600533280473698 $230 44.600533280473698 $87 $231 forward 7 unknown #
face $-1 $232 $233 $32 $-1 $234 reversed single #
loop $-1 $-1 $235 $88 #
plane-surface $-1 64.543836454250609 0 8.0155190373926182 1 0 0 0 0 -1 forward_v I I I I #
coedge $-1 $236 $237 $238 $239 reversed $89 $-1 #
coedge $-1 $240 $91 $241 $242 reversed $57 $-1 #
coedge $-1 $91 $240 $243 $244 reversed $57 $-1 #
coedge $-1 $245 $246 $91 $146 forward $247 $-1 #
edge $-1 $248 -44.600533280473698 $249 44.600533280473698 $145 $250 forward 7 unknown #
face $-1 $251 $252 $33 $-1 $253 forward single #
loop $-1 $-1 $254 $92 #
plane-surface $-1 30.607482189410227 -131.67450330033796 131.15168778787097 -1 0 0 0 -0.57357644374324357 0.81915203911291934 forward_v I I I I #
coedge $-1 $255 $256 $257 $258 reversed $93 $-1 #
coedge $-1 $152 $95 $259 $260 reversed $60 $-1 #
coedge $-1 $95 $151 $255 $261 reversed $60 $-1 #
coedge $-1 $257 $262 $95 $154 forward $263 $-1 #
edge $-1 $264 54.266525040593038 $265 58.778670440613801 $153 $266 forward 7 unknown #
loop $-1 $-1 $160 $96 #
plane-surface $-1 15.812254979365918 -44.600533280473726 6.7971734533216619 0 -0.57357644374324357 0.81915203911291934 1 0 0 forward_v I I I I #
loop $-1 $-1 $267 $62 #
coedge $-1 $158 $158 $159 $268 reversed $97 $-1 #
coedge $-1 $159 $159 $158 $268 forward $99 $-1 #
coedge $-1 $160 $160 $100 $161 forward $155 $-1 #
edge $-1 $269 1.6473084457570081e-015 $269 6.2831853071796022 $160 $270 forward 7 unknown #
loop $-1 $-1 $167 $101 #
plane-surface $-1 15.812254979365918 -44.600533280473726 6.7971734533216619 0 -0.57357644374324357 0.81915203911291934 1 0 0 forward_v I I I I #
loop $-1 $-1 $271 $65 #
coedge $-1 $165 $165 $166 $272 reversed $102 $-1 #
coedge $-1 $166 $166 $165 $272 forward $104 $-1 #
coedge $-1 $167 $167 $105 $168 forward $162 $-1 #
edge $-1 $273 1.6473084457570081e-015 $273 6.2831853071796022 $167 $274 forward 7 unknown #
face $-1 $275 $276 $36 $-1 $277 forward single #
loop $-1 $-1 $175 $106 #
plane-surface $-1 0 44.600533280473698 0 0 -1 0 0 0 -1 forward_v I I I I #
coedge $-1 $278 $279 $280 $281 reversed $107 $-1 #
coedge $-1 $174 $109 $282 $283 reversed $69 $-1 #
coedge $-1 $109 $173 $278 $284 reversed $69 $-1 #
coedge $-1 $280 $285 $109 $176 forward $170 $-1 #
edge $-1 $286 77.24391241045717 $287 87.514281120602348 $175 $288 forward 7 unknown #
loop $-1 $-1 $182 $110 #
plane-surface $-1 -51.643539224643604 -31.859703796115085 46.980896355807886 0 0.51503808176128008 0.85716729658548041 1 0 0 forward_v I I I I #
loop $-1 $-1 $289 $71 #
coedge $-1 $180 $180 $181 $290 reversed $111 $-1 #
coedge $-1 $181 $181 $180 $290 forward $113 $-1 #
coedge $-1 $182 $182 $114 $183 forward $177 $-1 #
edge $-1 $291 4.2150927576265904e-016 $291 6.2831853071796004 $182 $292 forward 7 unknown #
face $-1 $293 $294 $38 $-1 $295 reversed single #
loop $-1 $-1 $296 $115 #
plane-surface $-1 64.543836454250609 0 8.0155190373926182 1 0 0 0 0 -1 forward_v I I I I #
coedge $-1 $297 $298 $299 $300 reversed $116 $-1 #
coedge $-1 $189 $118 $301 $302 reversed $75 $-1 #
coedge $-1 $118 $188 $297 $303 reversed $75 $-1 #
coedge $-1 $299 $304 $118 $191 forward $305 $-1 #
edge $-1 $306 -21.436720350094539 $307 -4.3439567390891085 $190 $308 forward 7 unknown #
loop $-1 $-1 $197 $119 #
plane-surface $-1 51.643539224643632 -31.859703796115085 46.980896355807886 0 0.51503808176128008 0.85716729658548041 1 0 0 forward_v I I I I #
loop $-1 $-1 $309 $77 #
coedge $-1 $195 $195 $196 $310 reversed $120 $-1 #
coedge $-1 $196 $196 $195 $310 forward $122 $-1 #
coedge $-1 $197 $197 $123 $198 forward $192 $-1 #
edge $-1 $311 4.2150927576265904e-016 $311 6.2831853071796004 $197 $312 forward 7 unknown #
face $-1 $313 $314 $30 $-1 $315 reversed single #
loop $-1 $-1 $316 $124 #
plane-surface $-1 -75.90441602832118 0 0 1 0 0 0 0 -1 forward_v I I I I #
coedge $-1 $317 $210 $318 $319 forward $125 $-1 #
coedge $-1 $320 $127 $317 $321 forward $81 $-1 #
coedge $-1 $127 $320 $322 $323 forward $81 $-1 #
coedge $-1 $213 $212 $127 $206 reversed $214 $-1 #
edge $-1 $324 -44.600533280473698 $325 44.600533280473698 $205 $326 forward 7 unknown #
coedge $-1 $129 $128 $327 $328 forward $51 $-1 #
coedge $-1 $329 $330 $128 $209 reversed $314 $-1 #
edge $-1 $216 -75.90441602832118 $331 75.90441602832118 $208 $332 forward 7 unknown #
coedge $-1 $202 $333 $129 $211 reversed $125 $-1 #
edge $-1 $334 -75.90441602832118 $215 75.90441602832118 $210 $335 forward 7 unknown #
coedge $-1 $205 $130 $333 $336 forward $214 $-1 #
coedge $-1 $130 $205 $329 $337 reversed $214 $-1 #
loop $-1 $-1 $212 $313 #
vertex $-1 $131 $338 #
vertex $-1 $131 $339 #
straight-curve $-1 75.90441602832118 0 11.309318853342443 0 1 0 I I #
face $-1 $340 $341 $31 $-1 $342 reversed single #
loop $-1 $-1 $343 $132 #
plane-surface $-1 0 -44.600533280473698 0 0 1 0 0 0 1 forward_v I I I I #
coedge $-1 $344 $345 $224 $346 forward $133 $-1 #
coedge $-1 $347 $135 $348 $349 reversed $85 $-1 #
coedge $-1 $135 $347 $350 $351 reversed $85 $-1 #
coedge $-1 $137 $136 $221 $346 reversed $54 $-1 #
coedge $-1 $350 $343 $136 $226 forward $219 $-1 #
edge $-1 $352 2.5077595186963091 $229 5.5077595186963091 $225 $353 forward 7 unknown #
coedge $-1 $354 $348 $137 $228 forward $355 $-1 #
edge $-1 $230 -5.5077595186963091 $356 -2.5077595186963091 $227 $357 forward 7 unknown #
vertex $-1 $351 $358 #
vertex $-1 $349 $359 #
straight-curve $-1 -64.543836454250624 0 9.5155190373926182 0 1 0 I I #
face $-1 $360 $361 $32 $-1 $362 reversed single #
loop $-1 $-1 $243 $139 #
plane-surface $-1 0 -44.600533280473698 0 0 1 0 0 0 1 forward_v I I I I #
coedge $-1 $363 $364 $365 $366 reversed $140 $-1 #
coedge $-1 $365 $142 $367 $368 reversed $89 $-1 #
coedge $-1 $142 $365 $369 $370 reversed $89 $-1 #
coedge $-1 $246 $245 $142 $239 forward $247 $-1 #
edge $-1 $371 -44.600533280473698 $372 44.600533280473698 $238 $373 forward 7 unknown #
coedge $-1 $144 $143 $374 $375 forward $57 $-1 #
coedge $-1 $376 $377 $143 $242 forward $361 $-1 #
edge $-1 $378 29.431773333607666 $248 40.792352907678222 $241 $379 forward 7 unknown #
coedge $-1 $380 $381 $144 $244 forward $233 $-1 #
edge $-1 $249 -40.792352907678222 $382 -29.431773333607666 $243 $383 forward 7 unknown #
coedge $-1 $238 $145 $381 $384 forward $247 $-1 #
coedge $-1 $145 $238 $376 $385 reversed $247 $-1 #
loop $-1 $-1 $145 $360 #
vertex $-1 $385 $386 #
vertex $-1 $384 $387 #
straight-curve $-1 75.90441602832118 0 9.5155190373926182 0 -1 0 I I #
face $-1 $-1 $263 $33 $-1 $388 reversed single #
loop $-1 $-1 $389 $147 #
plane-surface $-1 0 0 11.309318853342443 0 0 1 1 0 0 forward_v I I I I #
coedge $-1 $390 $391 $392 $393 reversed $148 $-1 #
coedge $-1 $394 $150 $152 $261 forward $93 $-1 #
coedge $-1 $150 $394 $390 $395 forward $93 $-1 #
coedge $-1 $392 $153 $150 $258 forward $263 $-1 #
edge $-1 $265 -6.8890997203613509 $396 22.701354699727268 $257 $397 forward 7 unknown #
coedge $-1 $398 $399 $151 $260 forward $252 $-1 #
edge $-1 $400 -27.680729705097207 $264 -21.236718369695282 $259 $401 forward 7 unknown #
edge $-1 $265 3.4489342061374355e-014 $400 7.866685337657632 $152 $402 forward 7 unknown #
coedge $-1 $153 $392 $398 $403 reversed $263 $-1 #
loop $-1 $-1 $392 $251 #
vertex $-1 $403 $404 #
vertex $-1 $154 $405 #
straight-curve $-1 1.0170277693216079 -44.600533280473698 65.575843893935485 0 0 -1 I I #
coedge $-1 $267 $267 $-1 $406 reversed $157 $-1 #
edge $-1 $407 0 $407 6.2831853071796004 $158 $408 forward 7 unknown #
vertex $-1 $161 $409 #
ellipse-curve $-1 9.4714433179183573 -41.378527612772729 9.0532461533320649 0 -0.57357644374324357 0.81915203911291934 1.5 0 0 1 I I #
coedge $-1 $271 $271 $-1 $410 reversed $164 $-1 #
edge $-1 $411 0 $411 6.2831853071796004 $165 $412 forward 7 unknown #
vertex $-1 $168 $413 #
ellipse-curve $-1 22.153066640813478 -41.378527612772729 9.0532461533320649 0 -0.57357644374324357 0.81915203911291934 1.5 0 0 1 I I #
face $-1 $-1 $414 $36 $-1 $415 forward single #
loop $-1 $-1 $416 $169 #
plane-surface $-1 -64.543836454250624 0 8.0155190373926182 -1 0 0 0 0 1 forward_v I I I I #
coedge $-1 $417 $172 $174 $284 forward $107 $-1 #
coedge $-1 $172 $417 $416 $418 forward $107 $-1 #
coedge $-1 $419 $175 $172 $281 forward $170 $-1 #
edge $-1 $287 12.921472382714796 $420 38.722066841928807 $280 $421 forward 7 unknown #
coedge $-1 $422 $423 $173 $283 forward $414 $-1 #
edge $-1 $424 4.3439567390891085 $286 21.436720350094539 $282 $425 forward 7 unknown #
edge $-1 $287 -89.201066560947396 $424 -69.260077585872949 $174 $426 forward 7 unknown #
coedge $-1 $175 $419 $422 $427 reversed $170 $-1 #
vertex $-1 $427 $428 #
vertex $-1 $176 $429 #
straight-curve $-1 -38.743241995036598 44.600533280473698 88.553231263799617 0 0 -1 I I #
coedge $-1 $289 $289 $-1 $430 reversed $179 $-1 #
edge $-1 $431 0 $431 6.2831853071796004 $180 $432 forward 7 unknown #
vertex $-1 $183 $433 #
ellipse-curve $-1 -51.643539224643604 36.054151474970965 6.1741344982698658 0 0.51503808176128008 0.85716729658548041 4 0 0 1 I I #
face $-1 $-1 $305 $38 $-1 $434 forward single #
loop $-1 $-1 $435 $184 #
plane-surface $-1 0 44.600533280473698 0 0 -1 0 0 0 -1 forward_v I I I I #
coedge $-1 $436 $437 $298 $438 reversed $185 $-1 #
coedge $-1 $439 $187 $189 $303 forward $116 $-1 #
coedge $-1 $187 $439 $296 $438 forward $116 $-1 #
coedge $-1 $440 $190 $187 $300 forward $305 $-1 #
edge $-1 $307 12.921472382714811 $441 38.722066841928822 $299 $442 forward 7 unknown #
coedge $-1 $443 $444 $188 $302 forward $294 $-1 #
edge $-1 $445 -87.514281120602348 $306 -77.24391241045717 $301 $446 forward 7 unknown #
edge $-1 $307 69.260077585872949 $445 89.201066560947396 $189 $447 forward 7 unknown #
coedge $-1 $190 $440 $443 $448 forward $305 $-1 #
loop $-1 $-1 $440 $293 #
vertex $-1 $302 $449 #
vertex $-1 $191 $450 #
straight-curve $-1 38.743241995036627 23.163812930379159 11.309318853342447 0 -1 0 I I #
coedge $-1 $309 $309 $-1 $451 reversed $194 $-1 #
edge $-1 $452 0 $452 6.2831853071796004 $195 $453 forward 7 unknown #
vertex $-1 $198 $454 #
ellipse-curve $-1 51.643539224643632 36.054151474970965 6.1741344982698658 0 0.51503808176128008 0.85716729658548041 4 0 0 1 I I #
face $-1 $-1 $214 $30 $-1 $455 reversed single #
loop $-1 $-1 $329 $199 #
plane-surface $-1 0 44.600533280473698 0 0 -1 0 0 0 -1 forward_v I I I I #
coedge $-1 $456 $327 $330 $457 forward $200 $-1 #
coedge $-1 $333 $202 $203 $321 reversed $125 $-1 #
coedge $-1 $327 $456 $202 $319 reversed $200 $-1 #
edge $-1 $334 -11.309318853342443 $458 11.309318853342443 $318 $459 forward 7 unknown #
coedge $-1 $204 $203 $456 $460 forward $81 $-1 #
edge $-1 $325 -75.90441602832118 $458 75.90441602832118 $317 $461 forward 7 unknown #
coedge $-1 $330 $329 $204 $323 reversed $314 $-1 #
edge $-1 $462 -75.90441602832118 $324 75.90441602832118 $322 $463 forward 7 unknown #
vertex $-1 $206 $464 #
vertex $-1 $336 $465 #
straight-curve $-1 75.90441602832118 0 -11.309318853342443 0 -1 0 I I #
coedge $-1 $316 $318 $207 $328 reversed $200 $-1 #
edge $-1 $331 -44.600533280473698 $334 44.600533280473698 $327 $466 forward 7 unknown #
coedge $-1 $322 $208 $213 $337 forward $314 $-1 #
coedge $-1 $208 $322 $316 $457 reversed $314 $-1 #
vertex $-1 $209 $467 #
straight-curve $-1 0 44.600533280473698 11.309318853342443 -1 0 0 I I #
coedge $-1 $210 $317 $212 $336 reversed $125 $-1 #
vertex $-1 $328 $468 #
straight-curve $-1 0 -44.600533280473698 11.309318853342443 1 0 0 I I #
edge $-1 $215 -11.309318853342443 $325 11.309318853342443 $212 $469 forward 7 unknown #
edge $-1 $216 -11.309318853342443 $324 11.309318853342443 $213 $470 forward 7 unknown #
point $-1 75.90441602832118 -44.600533280473698 11.309318853342443 #
point $-1 75.90441602832118 44.600533280473698 11.309318853342443 #
face $-1 $-1 $355 $31 $-1 $471 reversed single #
loop $-1 $-1 $472 $218 #
plane-surface $-1 -75.90441602832118 0 0 1 0 0 0 0 -1 forward_v I I I I #
coedge $-1 $225 $473 $344 $474 forward $219 $-1 #
coedge $-1 $475 $221 $343 $474 reversed $133 $-1 #
coedge $-1 $221 $475 $354 $476 reversed $133 $-1 #
edge $-1 $356 -44.600533280473698 $352 44.600533280473698 $224 $477 forward 7 unknown #
coedge $-1 $223 $222 $478 $479 reversed $85 $-1 #
coedge $-1 $227 $480 $222 $349 forward $355 $-1 #
edge $-1 $481 -40.792352907678229 $230 -29.431773333607673 $348 $482 forward 7 unknown #
coedge $-1 $473 $225 $223 $351 forward $219 $-1 #
edge $-1 $229 29.431773333607673 $483 40.792352907678229 $350 $484 forward 7 unknown #
vertex $-1 $474 $485 #
straight-curve $-1 -64.543836454250624 -44.600533280473698 4.0077595186963091 0 0 1 I I #
coedge $-1 $480 $227 $345 $476 forward $355 $-1 #
loop $-1 $-1 $354 $340 #
vertex $-1 $476 $486 #
straight-curve $-1 -64.543836454250624 44.600533280473698 4.0077595186963091 0 0 -1 I I #
point $-1 -64.543836454250624 -44.600533280473698 9.5155190373926182 #
point $-1 -64.543836454250624 44.600533280473698 9.5155190373926182 #
face $-1 $-1 $247 $32 $-1 $487 reversed single #
loop $-1 $-1 $241 $232 #
plane-surface $-1 0 44.600533280473698 0 0 -1 0 0 0 -1 forward_v I I I I #
coedge $-1 $374 $235 $380 $488 reversed $140 $-1 #
coedge $-1 $235 $374 $377 $489 reversed $140 $-1 #
coedge $-1 $237 $236 $235 $366 forward $89 $-1 #
edge $-1 $490 -44.600533280473698 $491 44.600533280473698 $235 $492 forward 7 unknown #
coedge $-1 $381 $380 $236 $368 forward $233 $-1 #
edge $-1 $490 29.431773333607666 $371 40.792352907678222 $367 $493 forward 7 unknown #
coedge $-1 $377 $376 $237 $370 forward $361 $-1 #
edge $-1 $372 -40.792352907678222 $491 -29.431773333607666 $369 $494 forward 7 unknown #
vertex $-1 $239 $495 #
vertex $-1 $239 $496 #
straight-curve $-1 75.90441602832118 0 6.5155190373926182 0 1 0 I I #
coedge $-1 $364 $363 $240 $375 reversed $140 $-1 #
edge $-1 $378 -44.600533280473698 $382 44.600533280473698 $374 $497 forward 7 unknown #
coedge $-1 $369 $241 $246 $385 forward $361 $-1 #
coedge $-1 $241 $369 $364 $489 forward $361 $-1 #
vertex $-1 $242 $498 #
straight-curve $-1 35.112063120642944 44.600533280473698 9.5155190373926182 1 0 0 I I #
coedge $-1 $367 $243 $363 $488 forward $233 $-1 #
coedge $-1 $243 $367 $245 $384 reversed $233 $-1 #
vertex $-1 $244 $499 #
straight-curve $-1 35.112063120642944 -44.600533280473698 9.5155190373926182 -1 0 0 I I #
edge $-1 $249 -9.5155190373926182 $371 -6.5155190373926182 $245 $500 forward 7 unknown #
edge $-1 $248 -9.5155190373926182 $372 -6.5155190373926182 $246 $501 forward 7 unknown #
point $-1 75.904416028321165 44.600533280473698 9.5155190373926182 #
point $-1 75.904416028321165 -44.600533280473698 9.5155190373926182 #
plane-surface $-1 0 -44.600533280473698 0 0 1 0 0 0 1 forward_v I I I I #
coedge $-1 $399 $398 $391 $502 forward $252 $-1 #
coedge $-1 $391 $254 $256 $395 reversed $148 $-1 #
coedge $-1 $254 $390 $389 $502 reversed $148 $-1 #
coedge $-1 $262 $257 $254 $393 forward $263 $-1 #
edge $-1 $396 -58.778670440613801 $503 -54.266525040593038 $392 $504 forward 7 unknown #
coedge $-1 $256 $255 $399 $505 reversed $93 $-1 #
edge $-1 $506 -7.866685337657632 $396 -3.4489342061374355e-014 $390 $507 forward 7 unknown #
vertex $-1 $258 $508 #
straight-curve $-1 7.9061274896829588 -44.600533280473698 6.7971734533216823 1 0 0 I I #
coedge $-1 $389 $259 $262 $403 forward $252 $-1 #
coedge $-1 $259 $389 $394 $505 forward $252 $-1 #
vertex $-1 $260 $509 #
straight-curve $-1 1.0170277693216079 -65.83725165016898 11.309318853342447 0 -1 0 I I #
straight-curve $-1 1.0170277693216079 -44.600533280473726 6.7971734533216619 0 0.81915203911291934 0.57357644374324357 I I #
edge $-1 $264 1.0170277693216079 $503 30.607482189410227 $262 $510 forward 7 unknown #
point $-1 1.0170277693216079 -44.600533280473698 11.309318853342443 #
point $-1 1.0170277693216079 -44.600533280473698 6.7971734533216814 #
edge $-1 $511 1 $511 0 $267 $-1 forward 7 unknown #
vertex $-1 $268 $512 #
ellipse-curve $-1 9.4714433179183573 -38.82080238793646 5.4004360418466266 0 -0.57357644374324357 0.81915203911291934 1.5 0 0 1 I I #
point $-1 10.971443317918357 -41.378527612772714 9.053246153332049 #
edge $-1 $513 1 $513 0 $271 $-1 forward 7 unknown #
vertex $-1 $272 $514 #
ellipse-curve $-1 22.153066640813478 -38.82080238793646 5.4004360418466266 0 -0.57357644374324357 0.81915203911291934 1.5 0 0 1 I I #
point $-1 23.653066640813478 -41.378527612772714 9.053246153332049 #
loop $-1 $-1 $282 $275 #
plane-surface $-1 0 0 11.309318853342443 0 0 1 1 0 0 forward_v I I I I #
coedge $-1 $515 $516 $279 $418 reversed $276 $-1 #
coedge $-1 $279 $278 $423 $517 reversed $107 $-1 #
edge $-1 $518 69.260077585872949 $420 89.201066560947396 $416 $519 forward 7 unknown #
coedge $-1 $285 $280 $516 $520 forward $170 $-1 #
vertex $-1 $281 $521 #
straight-curve $-1 -25.821769612321802 44.600533280473691 1.0389501431972725 -1 0 0 I I #
coedge $-1 $522 $282 $285 $427 forward $414 $-1 #
coedge $-1 $282 $522 $417 $517 forward $414 $-1 #
vertex $-1 $283 $523 #
straight-curve $-1 -38.743241995036598 23.163812930379159 11.309318853342447 0 1 0 I I #
straight-curve $-1 -38.743241995036598 -31.859703796115085 46.980896355807886 0 -0.85716729658548041 0.51503808176128008 I I #
edge $-1 $286 38.743241995036598 $524 64.543836454250609 $285 $525 forward 7 unknown #
point $-1 -38.743241995036598 44.600533280473698 11.309318853342443 #
point $-1 -38.743241995036598 44.600533280473698 1.038950143197269 #
edge $-1 $526 1 $526 0 $289 $-1 forward 7 unknown #
vertex $-1 $290 $527 #
ellipse-curve $-1 -51.643539224643604 31.557238878774321 -1.3099847340040713 0 0.51503808176128008 0.85716729658548041 4 0 0 1 I I #
point $-1 -47.643539224643604 36.054151474970958 6.1741344982698507 #
plane-surface $-1 0 0 11.309318853342443 0 0 1 1 0 0 forward_v I I I I #
coedge $-1 $444 $443 $436 $528 forward $294 $-1 #
coedge $-1 $437 $296 $435 $528 reversed $185 $-1 #
coedge $-1 $296 $436 $440 $529 reversed $185 $-1 #
edge $-1 $530 -89.201066560947396 $441 -69.260077585872949 $296 $531 forward 7 unknown #
coedge $-1 $298 $297 $444 $532 reversed $116 $-1 #
coedge $-1 $304 $299 $437 $529 forward $305 $-1 #
vertex $-1 $529 $533 #
straight-curve $-1 25.821769612321816 27.507769669468274 11.309318853342443 1 0 0 I I #
coedge $-1 $435 $301 $304 $448 reversed $294 $-1 #
coedge $-1 $301 $435 $439 $532 forward $294 $-1 #
vertex $-1 $302 $534 #
straight-curve $-1 38.743241995036627 44.600533280473698 88.553231263799617 0 0 1 I I #
straight-curve $-1 38.743241995036627 -31.859703796115085 46.980896355807886 0 0.85716729658548041 -0.51503808176128008 I I #
edge $-1 $535 -64.543836454250638 $306 -38.743241995036627 $443 $536 forward 7 unknown #
point $-1 38.743241995036627 44.600533280473698 11.309318853342443 #
point $-1 38.743241995036627 27.507769669468267 11.309318853342447 #
edge $-1 $537 1 $537 0 $309 $-1 forward 7 unknown #
vertex $-1 $310 $538 #
ellipse-curve $-1 51.643539224643632 31.557238878774321 -1.3099847340040713 0 0.51503808176128008 0.85716729658548041 4 0 0 1 I I #
point $-1 55.643539224643632 36.054151474970958 6.1741344982698507 #
plane-surface $-1 75.90441602832118 0 0 -1 0 0 0 0 1 forward_v I I I I #
coedge $-1 $318 $316 $320 $460 reversed $200 $-1 #
edge $-1 $331 -11.309318853342443 $462 11.309318853342443 $330 $539 forward 7 unknown #
vertex $-1 $460 $540 #
straight-curve $-1 -75.90441602832118 -44.600533280473698 0 0 0 -1 I I #
edge $-1 $458 -44.600533280473698 $462 44.600533280473698 $456 $541 forward 7 unknown #
straight-curve $-1 0 -44.600533280473698 -11.309318853342443 -1 0 0 I I #
vertex $-1 $323 $542 #
straight-curve $-1 0 44.600533280473698 -11.309318853342443 1 0 0 I I #
point $-1 75.90441602832118 44.600533280473698 -11.309318853342443 #
point $-1 75.90441602832118 -44.600533280473698 -11.309318853342443 #
straight-curve $-1 -75.90441602832118 0 11.309318853342443 0 -1 0 I I #
point $-1 -75.90441602832118 44.600533280473698 11.309318853342443 #
point $-1 -75.90441602832118 -44.600533280473698 11.309318853342443 #
straight-curve $-1 75.90441602832118 -44.600533280473698 0 0 0 -1 I I #
straight-curve $-1 75.90441602832118 44.600533280473698 0 0 0 -1 I I #
plane-surface $-1 0 44.600533280473698 0 0 -1 0 0 0 -1 forward_v I I I I #
coedge $-1 $543 $544 $475 $545 forward $341 $-1 #
coedge $-1 $343 $350 $543 $546 forward $219 $-1 #
edge $-1 $547 -40.792352907678229 $352 -29.431773333607673 $343 $548 forward 7 unknown #
coedge $-1 $345 $344 $472 $545 reversed $133 $-1 #
edge $-1 $356 29.431773333607673 $549 40.792352907678229 $354 $550 forward 7 unknown #
straight-curve $-1 -64.543836454250624 0 6.5155190373926182 0 -1 0 I I #
coedge $-1 $544 $543 $347 $479 forward $341 $-1 #
edge $-1 $483 -44.600533280473698 $481 44.600533280473698 $478 $551 forward 7 unknown #
coedge $-1 $348 $354 $544 $552 reversed $355 $-1 #
vertex $-1 $552 $553 #
straight-curve $-1 -35.112063120642951 44.600533280473698 9.5155190373926182 1 0 0 I I #
vertex $-1 $546 $554 #
straight-curve $-1 -35.112063120642951 -44.600533280473698 9.5155190373926182 -1 0 0 I I #
point $-1 -64.543836454250624 -44.600533280473698 6.5155190373926182 #
point $-1 -64.543836454250624 44.600533280473698 6.5155190373926182 #
plane-surface $-1 75.90441602832118 0 0 -1 0 0 0 0 1 forward_v I I I I #
edge $-1 $382 -5.5077595186963091 $490 -2.5077595186963091 $380 $555 forward 7 unknown #
edge $-1 $491 2.5077595186963091 $378 5.5077595186963091 $377 $556 forward 7 unknown #
vertex $-1 $368 $557 #
vertex $-1 $370 $558 #
straight-curve $-1 64.543836454250609 0 6.5155190373926182 0 1 0 I I #
straight-curve $-1 35.112063120642944 -44.600533280473698 6.5155190373926182 1 0 0 I I #
straight-curve $-1 35.112063120642944 44.600533280473698 6.5155190373926182 -1 0 0 I I #
point $-1 75.904416028321165 -44.600533280473698 6.5155190373926182 #
point $-1 75.904416028321165 44.600533280473698 6.5155190373926182 #
straight-curve $-1 64.543836454250609 0 9.5155190373926182 0 -1 0 I I #
point $-1 64.543836454250609 44.600533280473698 9.5155190373926182 #
point $-1 64.543836454250609 -44.600533280473698 9.5155190373926182 #
straight-curve $-1 75.90441602832118 -44.600533280473698 0 0 0 -1 I I #
straight-curve $-1 75.90441602832118 44.600533280473698 0 0 0 -1 I I #
edge $-1 $503 21.236718369695282 $506 27.680729705097207 $389 $559 forward 7 unknown #
vertex $-1 $502 $560 #
straight-curve $-1 30.607482189410227 -44.600533280473698 65.575843893935485 0 0 1 I I #
edge $-1 $506 -22.701354699727268 $400 6.8890997203613509 $399 $561 forward 7 unknown #
vertex $-1 $505 $562 #
straight-curve $-1 30.607482189410227 -44.600533280473726 6.7971734533216619 0 -0.81915203911291934 -0.57357644374324357 I I #
point $-1 30.607482189410227 -44.600533280473698 6.7971734533216814 #
point $-1 1.0170277693216079 -38.156521945071773 11.309318853342443 #
straight-curve $-1 0 -44.600533280473698 11.309318853342443 1 0 0 I I #
vertex $-1 $406 $563 #
point $-1 10.971443317918357 -38.82080238793646 5.4004360418466266 #
vertex $-1 $410 $564 #
point $-1 23.653066640813478 -38.82080238793646 5.4004360418466266 #
coedge $-1 $516 $416 $522 $565 reversed $276 $-1 #
coedge $-1 $416 $515 $419 $520 reversed $276 $-1 #
edge $-1 $518 -38.722066841928807 $424 -12.921472382714796 $423 $566 forward 7 unknown #
vertex $-1 $565 $567 #
straight-curve $-1 -64.543836454250609 -31.859703796115085 46.980896355807886 0 0.85716729658548041 -0.51503808176128008 I I #
edge $-1 $420 -87.514281120602348 $524 -77.24391241045717 $419 $568 forward 7 unknown #
point $-1 -64.543836454250609 44.600533280473698 1.038950143197269 #
coedge $-1 $423 $422 $515 $565 forward $414 $-1 #
point $-1 -38.743241995036598 27.507769669468267 11.309318853342447 #
vertex $-1 $520 $569 #
straight-curve $-1 0 44.600533280473698 11.309318853342443 -1 0 0 I I #
vertex $-1 $430 $570 #
point $-1 -47.643539224643604 31.557238878774321 -1.3099847340040713 #
edge $-1 $535 77.24391241045717 $530 87.514281120602348 $435 $571 forward 7 unknown #
edge $-1 $441 4.3439567390891085 $535 21.436720350094539 $440 $572 forward 7 unknown #
vertex $-1 $528 $573 #
straight-curve $-1 64.543836454250638 -31.859703796115085 46.980896355807886 0 -0.85716729658548041 0.51503808176128008 I I #
edge $-1 $530 -38.722066841928822 $445 -12.921472382714811 $444 $574 forward 7 unknown #
point $-1 64.543836454250638 27.507769669468267 11.309318853342447 #
point $-1 38.743241995036627 44.600533280473698 1.038950143197269 #
vertex $-1 $448 $575 #
straight-curve $-1 0 44.600533280473698 11.309318853342443 -1 0 0 I I #
vertex $-1 $451 $576 #
point $-1 55.643539224643632 31.557238878774321 -1.3099847340040713 #
straight-curve $-1 -75.90441602832118 44.600533280473698 0 0 0 -1 I I #
point $-1 -75.90441602832118 -44.600533280473698 -11.309318853342443 #
straight-curve $-1 -75.90441602832118 0 -11.309318853342443 0 1 0 I I #
point $-1 -75.90441602832118 44.600533280473698 -11.309318853342443 #
coedge $-1 $478 $472 $473 $546 reversed $341 $-1 #
coedge $-1 $472 $478 $480 $552 forward $341 $-1 #
edge $-1 $549 -44.600533280473698 $547 44.600533280473698 $472 $577 forward 7 unknown #
edge $-1 $483 -9.5155190373926182 $547 -6.5155190373926182 $543 $578 forward 7 unknown #
vertex $-1 $474 $579 #
straight-curve $-1 -35.112063120642951 -44.600533280473698 6.5155190373926182 1 0 0 I I #
vertex $-1 $476 $580 #
straight-curve $-1 -35.112063120642951 44.600533280473698 6.5155190373926182 -1 0 0 I I #
straight-curve $-1 -75.90441602832118 0 9.5155190373926182 0 1 0 I I #
edge $-1 $481 -9.5155190373926182 $549 -6.5155190373926182 $480 $581 forward 7 unknown #
point $-1 -75.90441602832118 44.600533280473698 9.5155190373926182 #
point $-1 -75.90441602832118 -44.600533280473698 9.5155190373926182 #
straight-curve $-1 64.543836454250609 -44.600533280473698 4.0077595186963091 0 0 -1 I I #
straight-curve $-1 64.543836454250609 44.600533280473698 4.0077595186963091 0 0 1 I I #
point $-1 64.543836454250609 -44.600533280473698 6.5155190373926182 #
point $-1 64.543836454250609 44.600533280473698 6.5155190373926182 #
straight-curve $-1 30.607482189410227 -65.83725165016898 11.309318853342447 0 1 0 I I #
point $-1 30.607482189410227 -44.600533280473698 11.309318853342443 #
straight-curve $-1 7.9061274896829588 -38.156521945071766 11.309318853342445 -1 0 0 I I #
point $-1 30.607482189410227 -38.156521945071773 11.309318853342443 #
point $-1 9.4714433179183573 -37.960437722321593 4.1717079831772477 #
point $-1 22.153066640813478 -37.960437722321593 4.1717079831772477 #
edge $-1 $524 -21.436720350094539 $518 -4.3439567390891085 $522 $582 forward 7 unknown #
straight-curve $-1 -25.821769612321802 27.507769669468274 11.309318853342443 1 0 0 I I #
point $-1 -64.543836454250609 27.507769669468267 11.309318853342447 #
straight-curve $-1 -64.543836454250609 44.600533280473698 88.553231263799617 0 0 1 I I #
point $-1 -64.543836454250609 44.600533280473698 11.309318853342443 #
point $-1 -51.643539224643604 29.497086551729204 -4.7386539203459925 #
straight-curve $-1 64.543836454250638 44.600533280473698 88.553231263799617 0 0 -1 I I #
straight-curve $-1 64.543836454250638 23.163812930379159 11.309318853342447 0 1 0 I I #
point $-1 64.543836454250638 44.600533280473698 1.038950143197269 #
straight-curve $-1 25.821769612321816 44.600533280473691 1.0389501431972725 -1 0 0 I I #
point $-1 64.543836454250638 44.600533280473698 11.309318853342443 #
point $-1 51.643539224643632 29.497086551729204 -4.7386539203459925 #
straight-curve $-1 -75.90441602832118 0 6.5155190373926182 0 -1 0 I I #
straight-curve $-1 -75.90441602832118 -44.600533280473698 0 0 0 -1 I I #
point $-1 -75.90441602832118 -44.600533280473698 6.5155190373926182 #
point $-1 -75.90441602832118 44.600533280473698 6.5155190373926182 #
straight-curve $-1 -75.90441602832118 44.600533280473698 0 0 0 -1 I I #
straight-curve $-1 -64.543836454250609 23.163812930379159 11.309318853342447 0 -1 0 I I #
End-of-ACIS-data 