500 0 18 0           
7 Unknown 11 ACIS 5.0 NT 24 Thu Mar 25 20:40:26 1999 
-1 9.9999999999999995e-007 1e-010 
body $-1 $18 $-1 $19 #
body $-1 $20 $-1 $21 #
body $-1 $22 $-1 $23 #
body $-1 $24 $-1 $25 #
body $-1 $26 $-1 $27 #
body $-1 $28 $-1 $29 #
body $-1 $30 $-1 $31 #
body $-1 $32 $-1 $33 #
body $-1 $34 $-1 $35 #
body $-1 $36 $-1 $37 #
body $-1 $38 $-1 $39 #
body $-1 $40 $-1 $41 #
body $-1 $42 $-1 $43 #
body $-1 $44 $-1 $45 #
body $-1 $46 $-1 $47 #
body $-1 $48 $-1 $49 #
body $-1 $50 $-1 $51 #
body $-1 $52 $-1 $53 #
lump $-1 $-1 $54 $0 #
transform $-1 1 0 0 0 1 0 0 0 1 53.856624042481762 27.492732465474049 10.538810858663696 1 rotate no_reflect no_shear #
lump $-1 $-1 $55 $1 #
transform $-1 1 0 0 0 1 0 0 0 1 53.856624042481762 27.492732465474049 10.538810858663696 1 rotate no_reflect no_shear #
lump $-1 $-1 $56 $2 #
transform $-1 1 0 0 0 1 0 0 0 1 53.856624042481762 27.492732465474049 10.538810858663696 1 rotate no_reflect no_shear #
lump $-1 $-1 $57 $3 #
transform $-1 1 0 0 0 1 0 0 0 1 53.856624042481762 27.492732465474049 10.538810858663696 1 rotate no_reflect no_shear #
lump $-1 $-1 $58 $4 #
transform $-1 1 0 0 0 1 0 0 0 1 53.856624042481762 27.492732465474049 10.538810858663696 1 rotate no_reflect no_shear #
lump $-1 $-1 $59 $5 #
transform $-1 1 0 0 0 1 0 0 0 1 53.856624042481762 27.492732465474049 10.538810858663696 1 rotate no_reflect no_shear #
lump $-1 $-1 $60 $6 #
transform $-1 1 0 0 0 1 0 0 0 1 53.856624042481762 27.492732465474049 10.538810858663696 1 rotate no_reflect no_shear #
lump $-1 $-1 $61 $7 #
transform $-1 1 0 0 0 1 0 0 0 1 53.856624042481762 27.492732465474049 10.538810858663696 1 rotate no_reflect no_shear #
lump $-1 $-1 $62 $8 #
transform $-1 1 0 0 0 1 0 0 0 1 53.856624042481762 27.492732465474049 10.538810858663696 1 rotate no_reflect no_shear #
lump $-1 $-1 $63 $9 #
transform $-1 1 0 0 0 1 0 0 0 1 53.856624042481762 27.492732465474049 10.538810858663696 1 rotate no_reflect no_shear #
lump $-1 $-1 $64 $10 #
transform $-1 1 0 0 0 1 0 0 0 1 53.856624042481762 27.492732465474049 10.538810858663696 1 rotate no_reflect no_shear #
lump $-1 $-1 $65 $11 #
transform $-1 1 0 0 0 1 0 0 0 1 53.856624042481762 27.492732465474049 10.538810858663696 1 rotate no_reflect no_shear #
lump $-1 $-1 $66 $12 #
transform $-1 1 0 0 0 1 0 0 0 1 53.856624042481762 27.492732465474049 10.538810858663696 1 rotate no_reflect no_shear #
lump $-1 $-1 $67 $13 #
transform $-1 1 0 0 0 1 0 0 0 1 53.856624042481762 27.492732465474049 10.538810858663696 1 rotate no_reflect no_shear #
lump $-1 $-1 $68 $14 #
transform $-1 1 0 0 0 1 0 0 0 1 53.856624042481762 27.492732465474049 10.538810858663696 1 rotate no_reflect no_shear #
lump $-1 $-1 $69 $15 #
transform $-1 1 0 0 0 1 0 0 0 1 53.856624042481762 27.492732465474049 10.538810858663696 1 rotate no_reflect no_shear #
lump $-1 $-1 $70 $16 #
transform $-1 1 0 0 0 1 0 0 0 1 53.856624042481762 27.492732465474049 10.538810858663696 1 rotate no_reflect no_shear #
lump $-1 $-1 $71 $17 #
transform $-1 1 0 0 0 1 0 0 0 1 53.856624042481762 27.492732465474049 10.538810858663696 1 rotate no_reflect no_shear #
shell $-1 $-1 $-1 $72 $-1 $18 #
shell $-1 $-1 $-1 $73 $-1 $20 #
shell $-1 $-1 $-1 $74 $-1 $22 #
shell $-1 $-1 $-1 $75 $-1 $24 #
shell $-1 $-1 $-1 $76 $-1 $26 #
shell $-1 $-1 $-1 $77 $-1 $28 #
shell $-1 $-1 $-1 $78 $-1 $30 #
shell $-1 $-1 $-1 $79 $-1 $32 #
shell $-1 $-1 $-1 $80 $-1 $34 #
shell $-1 $-1 $-1 $81 $-1 $36 #
shell $-1 $-1 $-1 $82 $-1 $38 #
shell $-1 $-1 $-1 $83 $-1 $40 #
shell $-1 $-1 $-1 $84 $-1 $42 #
shell $-1 $-1 $-1 $85 $-1 $44 #
shell $-1 $-1 $-1 $86 $-1 $46 #
shell $-1 $-1 $-1 $87 $-1 $48 #
shell $-1 $-1 $-1 $88 $-1 $50 #
shell $-1 $-1 $-1 $89 $-1 $52 #
face $-1 $90 $91 $54 $-1 $92 forward single #
face $-1 $93 $94 $55 $-1 $95 reversed single #
face $-1 $96 $97 $56 $-1 $98 reversed single #
face $-1 $99 $100 $57 $-1 $101 reversed single #
face $-1 $102 $103 $58 $-1 $104 forward single #
face $-1 $105 $106 $59 $-1 $107 forward single #
face $-1 $108 $109 $60 $-1 $110 reversed single #
face $-1 $111 $112 $61 $-1 $113 forward single #
face $-1 $114 $115 $62 $-1 $116 forward single #
face $-1 $117 $118 $63 $-1 $119 reversed single #
face $-1 $120 $121 $64 $-1 $122 forward single #
face $-1 $123 $124 $65 $-1 $125 forward single #
face $-1 $126 $127 $66 $-1 $128 reversed single #
face $-1 $129 $130 $67 $-1 $131 forward single #
face $-1 $132 $133 $68 $-1 $134 forward single #
face $-1 $135 $136 $69 $-1 $137 reversed single #
face $-1 $138 $139 $70 $-1 $140 forward single #
face $-1 $141 $142 $71 $-1 $143 forward single #
face $-1 $144 $145 $54 $-1 $146 reversed single #
loop $-1 $-1 $147 $72 #
plane-surface $-1 0 0 10.538810858663696 0 0 1 1 0 0 forward_v I I I I #
face $-1 $148 $149 $55 $-1 $150 reversed single #
loop $-1 $-1 $151 $73 #
plane-surface $-1 -50.28530931837323 -24.492732465474049 0 0 -1 0 0 0 -1 forward_v I I I I #
face $-1 $152 $153 $56 $-1 $154 reversed single #
loop $-1 $-1 $155 $74 #
plane-surface $-1 49.388022862191185 -12.667381624513336 0 0 1 0 0 0 1 forward_v I I I I #
face $-1 $156 $157 $57 $-1 $158 reversed single #
loop $-1 $-1 $159 $75 #
plane-surface $-1 -29.822819375246141 -102.31664273603673 79.581153897076675 -1 0 0 0 -0.69465837861970381 0.71933979245794832 forward_v I I I I #
face $-1 $160 $161 $58 $-1 $162 forward single #
loop $-1 $163 $164 $76 #
cone-surface $-1 -40.383509776866788 -21.753151118540785 4.9005064875432121 0 0.69465837861970381 -0.71933979245794832 1 0 0 1 I I 0 1 1 forward I I I I #
face $-1 $165 $166 $59 $-1 $167 forward single #
loop $-1 $168 $169 $77 #
cone-surface $-1 -34.0470955358944 -21.753151118540785 4.9005064875432121 0 0.69465837861970381 -0.71933979245794832 1 0 0 1 I I 0 1 1 forward I I I I #
face $-1 $170 $171 $60 $-1 $172 reversed single #
loop $-1 $-1 $173 $78 #
plane-surface $-1 -5.6108085751137811 -102.31664273603673 79.581153897076675 -1 0 0 0 -0.69465837861970381 0.71933979245794832 forward_v I I I I #
face $-1 $174 $175 $61 $-1 $176 forward single #
loop $-1 $177 $178 $79 #
cone-surface $-1 -16.171498976734419 -21.753151118540785 4.9005064875432121 0 0.69465837861970381 -0.71933979245794832 1 0 0 1 I I 0 1 1 forward I I I I #
face $-1 $179 $180 $62 $-1 $181 forward single #
loop $-1 $182 $183 $80 #
cone-surface $-1 -9.8350847357620381 -21.753151118540785 4.9005064875432121 0 0.69465837861970381 -0.71933979245794832 1 0 0 1 I I 0 1 1 forward I I I I #
face $-1 $184 $185 $63 $-1 $186 reversed single #
loop $-1 $-1 $187 $81 #
plane-surface $-1 18.601202225018582 -102.31664273603673 79.581153897076675 -1 0 0 0 -0.69465837861970381 0.71933979245794832 forward_v I I I I #
face $-1 $188 $189 $64 $-1 $190 forward single #
loop $-1 $191 $192 $82 #
cone-surface $-1 8.0405118233979422 -21.753151118540785 4.9005064875432121 0 0.69465837861970381 -0.71933979245794832 1 0 0 1 I I 0 1 1 forward I I I I #
face $-1 $193 $194 $65 $-1 $195 forward single #
loop $-1 $196 $197 $83 #
cone-surface $-1 14.376926064370316 -21.753151118540785 4.9005064875432121 0 0.69465837861970381 -0.71933979245794832 1 0 0 1 I I 0 1 1 forward I I I I #
face $-1 $198 $199 $66 $-1 $200 reversed single #
loop $-1 $-1 $201 $84 #
plane-surface $-1 42.813213025150944 -102.31664273603673 79.581153897076675 -1 0 0 0 -0.69465837861970381 0.71933979245794832 forward_v I I I I #
face $-1 $202 $203 $67 $-1 $204 forward single #
loop $-1 $205 $206 $85 #
cone-surface $-1 32.252522623530304 -21.753151118540785 4.9005064875432121 0 0.69465837861970381 -0.71933979245794832 1 0 0 1 I I 0 1 1 forward I I I I #
face $-1 $207 $208 $68 $-1 $209 forward single #
loop $-1 $210 $211 $86 #
cone-surface $-1 38.588936864502678 -21.753151118540785 4.9005064875432121 0 0.69465837861970381 -0.71933979245794832 1 0 0 1 I I 0 1 1 forward I I I I #
face $-1 $212 $213 $69 $-1 $214 reversed single #
loop $-1 $-1 $215 $87 #
plane-surface $-1 -44.003503951076318 89.700891865938942 109.4732085965323 1 0 0 0 -0.84804810408105047 -0.52991925155115449 forward_v I I I I #
face $-1 $216 $217 $70 $-1 $218 forward single #
loop $-1 $219 $220 $88 #
cone-surface $-1 -40.148867185505523 25.292076363099827 7.7083408382788567 0 -0.84804810408105047 -0.52991925155115449 1 0 0 1 I I 0 1 1 forward I I I I #
face $-1 $221 $222 $71 $-1 $223 forward single #
loop $-1 $224 $225 $89 #
cone-surface $-1 -34.366912037149319 25.292076363099827 7.7083408382788567 0 -0.84804810408105047 -0.52991925155115449 1 0 0 1 I I 0 1 1 forward I I I I #
face $-1 $226 $227 $54 $-1 $228 reversed single #
loop $-1 $-1 $229 $90 #
plane-surface $-1 0 0 -10.538810858663696 0 0 1 1 0 0 forward_v I I I I #
coedge $-1 $230 $231 $232 $233 forward $91 $-1 #
face $-1 $234 $235 $55 $-1 $236 forward single #
loop $-1 $-1 $237 $93 #
plane-surface $-1 -46.713994594264697 -25.992732465474049 0 -1 0 0 0 0 1 forward_v I I I I #
coedge $-1 $238 $239 $240 $241 forward $94 $-1 #
face $-1 $242 $243 $56 $-1 $244 reversed single #
loop $-1 $-1 $245 $96 #
plane-surface $-1 44.919421681900602 -9.541246186329996 0 1 0 0 0 0 -1 forward_v I I I I #
coedge $-1 $246 $247 $248 $249 forward $97 $-1 #
face $-1 $250 $251 $57 $-1 $252 reversed single #
loop $-1 $-1 $253 $99 #
plane-surface $-1 -37.215302656380594 -27.492732465474049 2.0987283746675161 0 -0.69465837861970381 0.71933979245794832 1 0 0 forward_v I I I I #
coedge $-1 $254 $255 $256 $257 reversed $100 $-1 #
face $-1 $-1 $258 $58 $-1 $259 forward single #
loop $-1 $260 $261 $102 #
cone-surface $-1 -40.383509776866788 -20.036221114620279 3.1225734621918502 0 0.69465837861970381 -0.71933979245794832 0.5 0 0 1 I I -0.70710678118654746 0.70710678118654746 0.5 forward I I I I #
loop $-1 $-1 $262 $76 #
coedge $-1 $164 $164 $263 $264 reversed $103 $-1 #
face $-1 $-1 $265 $59 $-1 $266 forward single #
loop $-1 $267 $268 $105 #
cone-surface $-1 -34.0470955358944 -20.036221114620279 3.1225734621918502 0 0.69465837861970381 -0.71933979245794832 0.5 0 0 1 I I -0.70710678118654746 0.70710678118654746 0.5 forward I I I I #
loop $-1 $-1 $269 $77 #
coedge $-1 $169 $169 $270 $271 reversed $106 $-1 #
face $-1 $272 $273 $60 $-1 $274 reversed single #
loop $-1 $-1 $275 $108 #
plane-surface $-1 -13.003291856248232 -27.492732465474049 2.0987283746675161 0 -0.69465837861970381 0.71933979245794832 1 0 0 forward_v I I I I #
coedge $-1 $276 $277 $278 $279 reversed $109 $-1 #
face $-1 $-1 $280 $61 $-1 $281 forward single #
loop $-1 $282 $283 $111 #
cone-surface $-1 -16.171498976734419 -20.036221114620279 3.1225734621918502 0 0.69465837861970381 -0.71933979245794832 0.5 0 0 1 I I -0.70710678118654746 0.70710678118654746 0.5 forward I I I I #
loop $-1 $-1 $284 $79 #
coedge $-1 $178 $178 $285 $286 reversed $112 $-1 #
face $-1 $-1 $287 $62 $-1 $288 forward single #
loop $-1 $289 $290 $114 #
cone-surface $-1 -9.8350847357620381 -20.036221114620279 3.1225734621918502 0 0.69465837861970381 -0.71933979245794832 0.5 0 0 1 I I -0.70710678118654746 0.70710678118654746 0.5 forward I I I I #
loop $-1 $-1 $291 $80 #
coedge $-1 $183 $183 $292 $293 reversed $115 $-1 #
face $-1 $294 $295 $63 $-1 $296 reversed single #
loop $-1 $-1 $297 $117 #
plane-surface $-1 11.208718943884129 -27.492732465474049 2.0987283746675161 0 -0.69465837861970381 0.71933979245794832 1 0 0 forward_v I I I I #
coedge $-1 $298 $299 $300 $301 reversed $118 $-1 #
face $-1 $-1 $302 $64 $-1 $303 forward single #
loop $-1 $304 $305 $120 #
cone-surface $-1 8.0405118233979422 -20.036221114620279 3.1225734621918502 0 0.69465837861970381 -0.71933979245794832 0.5 0 0 1 I I -0.70710678118654746 0.70710678118654746 0.5 forward I I I I #
loop $-1 $-1 $306 $82 #
coedge $-1 $192 $192 $307 $308 reversed $121 $-1 #
face $-1 $-1 $309 $65 $-1 $310 forward single #
loop $-1 $311 $312 $123 #
cone-surface $-1 14.376926064370316 -20.036221114620279 3.1225734621918502 0 0.69465837861970381 -0.71933979245794832 0.5 0 0 1 I I -0.70710678118654746 0.70710678118654746 0.5 forward I I I I #
loop $-1 $-1 $313 $83 #
coedge $-1 $197 $197 $314 $315 reversed $124 $-1 #
face $-1 $316 $317 $66 $-1 $318 reversed single #
loop $-1 $-1 $319 $126 #
plane-surface $-1 35.420729744016491 -27.492732465474049 2.0987283746675161 0 -0.69465837861970381 0.71933979245794832 1 0 0 forward_v I I I I #
coedge $-1 $320 $321 $322 $323 reversed $127 $-1 #
face $-1 $-1 $324 $67 $-1 $325 forward single #
loop $-1 $326 $327 $129 #
cone-surface $-1 32.252522623530304 -20.036221114620279 3.1225734621918502 0 0.69465837861970381 -0.71933979245794832 0.5 0 0 1 I I -0.70710678118654746 0.70710678118654746 0.5 forward I I I I #
loop $-1 $-1 $328 $85 #
coedge $-1 $206 $206 $329 $330 reversed $130 $-1 #
face $-1 $-1 $331 $68 $-1 $332 forward single #
loop $-1 $333 $334 $132 #
cone-surface $-1 38.588936864502678 -20.036221114620279 3.1225734621918502 0 0.69465837861970381 -0.71933979245794832 0.5 0 0 1 I I -0.70710678118654746 0.70710678118654746 0.5 forward I I I I #
loop $-1 $-1 $335 $86 #
coedge $-1 $211 $211 $336 $337 reversed $133 $-1 #
face $-1 $338 $339 $69 $-1 $340 reversed single #
loop $-1 $-1 $341 $135 #
plane-surface $-1 -37.257889611327421 -1.6451239569262128 52.393884789204606 0 0.84804810408105047 0.52991925155115449 1 0 0 forward_v I I I I #
coedge $-1 $342 $343 $344 $345 reversed $136 $-1 #
face $-1 $-1 $346 $70 $-1 $347 forward single #
loop $-1 $348 $349 $138 #
cone-surface $-1 -40.148867185505523 24.159348394495339 7.0005338702008029 0 -0.84804810408105047 -0.52991925155115449 0.5 0 0 1 I I -0.70710678118654746 0.70710678118654746 0.5 forward I I I I #
loop $-1 $-1 $350 $88 #
coedge $-1 $220 $220 $351 $352 reversed $139 $-1 #
face $-1 $-1 $353 $71 $-1 $354 forward single #
loop $-1 $355 $356 $141 #
cone-surface $-1 -34.366912037149319 24.159348394495339 7.0005338702008029 0 -0.84804810408105047 -0.52991925155115449 0.5 0 0 1 I I -0.70710678118654746 0.70710678118654746 0.5 forward I I I I #
loop $-1 $-1 $357 $89 #
coedge $-1 $225 $225 $358 $359 reversed $142 $-1 #
face $-1 $360 $361 $54 $-1 $362 reversed single #
loop $-1 $-1 $363 $144 #
plane-surface $-1 0 -27.492732465474049 0 0 1 0 0 0 1 forward_v I I I I #
coedge $-1 $364 $365 $366 $367 forward $145 $-1 #
coedge $-1 $368 $147 $369 $370 forward $91 $-1 #
coedge $-1 $147 $368 $371 $372 forward $91 $-1 #
coedge $-1 $373 $374 $147 $233 reversed $375 $-1 #
edge $-1 $376 -27.492732465474049 $377 27.492732465474049 $232 $378 forward 7 unknown #
face $-1 $379 $380 $55 $-1 $381 reversed single #
loop $-1 $-1 $382 $148 #
plane-surface $-1 0 0 10.538810858663696 0 0 1 1 0 0 forward_v I I I I #
coedge $-1 $383 $384 $385 $386 reversed $149 $-1 #
coedge $-1 $387 $151 $388 $389 reversed $94 $-1 #
coedge $-1 $151 $387 $390 $391 reversed $94 $-1 #
coedge $-1 $384 $383 $151 $241 reversed $149 $-1 #
edge $-1 $392 -10.538810858663696 $393 10.538810858663696 $240 $394 forward 7 unknown #
face $-1 $395 $396 $56 $-1 $397 reversed single #
loop $-1 $-1 $398 $152 #
plane-surface $-1 49.388022862191185 -6.4151107481466552 0 0 -1 0 0 0 -1 forward_v I I I I #
coedge $-1 $399 $400 $401 $402 forward $153 $-1 #
coedge $-1 $403 $155 $404 $405 reversed $97 $-1 #
coedge $-1 $155 $403 $406 $407 reversed $97 $-1 #
coedge $-1 $400 $399 $155 $249 reversed $153 $-1 #
edge $-1 $408 -10.538810858663696 $409 10.538810858663696 $248 $410 forward 7 unknown #
face $-1 $411 $412 $57 $-1 $413 forward single #
loop $-1 $-1 $414 $156 #
plane-surface $-1 -44.607785937515047 -102.31664273603673 79.581153897076675 1 0 0 0 0.69465837861970381 -0.71933979245794832 forward_v I I I I #
coedge $-1 $415 $416 $417 $418 reversed $157 $-1 #
coedge $-1 $255 $159 $419 $420 reversed $100 $-1 #
coedge $-1 $159 $254 $415 $421 reversed $100 $-1 #
coedge $-1 $417 $422 $159 $257 forward $412 $-1 #
edge $-1 $423 23.665588902544314 $424 32.405549967189515 $256 $425 forward 7 unknown #
loop $-1 $-1 $263 $160 #
plane-surface $-1 -37.215302656380594 -27.492732465474049 2.0987283746675161 0 -0.69465837861970381 0.71933979245794832 1 0 0 forward_v I I I I #
loop $-1 $-1 $426 $102 #
coedge $-1 $261 $261 $262 $427 reversed $161 $-1 #
coedge $-1 $262 $262 $261 $427 forward $163 $-1 #
coedge $-1 $263 $263 $164 $264 forward $258 $-1 #
edge $-1 $428 -2.3802363272603319e-015 $428 6.2831853071795978 $263 $429 forward 7 unknown #
loop $-1 $-1 $270 $165 #
plane-surface $-1 -37.215302656380594 -27.492732465474049 2.0987283746675161 0 -0.69465837861970381 0.71933979245794832 1 0 0 forward_v I I I I #
loop $-1 $-1 $430 $105 #
coedge $-1 $268 $268 $269 $431 reversed $166 $-1 #
coedge $-1 $269 $269 $268 $431 forward $168 $-1 #
coedge $-1 $270 $270 $169 $271 forward $265 $-1 #
edge $-1 $432 -2.3802363272603319e-015 $432 6.2831853071795978 $270 $433 forward 7 unknown #
face $-1 $434 $435 $60 $-1 $436 reversed single #
loop $-1 $-1 $437 $170 #
plane-surface $-1 -20.395775137382685 -102.31664273603673 79.581153897076675 1 0 0 0 0.69465837861970381 -0.71933979245794832 forward_v I I I I #
coedge $-1 $438 $439 $440 $441 reversed $171 $-1 #
coedge $-1 $277 $173 $442 $443 reversed $109 $-1 #
coedge $-1 $173 $276 $438 $444 reversed $109 $-1 #
coedge $-1 $440 $445 $173 $279 forward $446 $-1 #
edge $-1 $447 23.665588902544314 $448 32.405549967189515 $278 $449 forward 7 unknown #
loop $-1 $-1 $285 $174 #
plane-surface $-1 -13.003291856248232 -27.492732465474049 2.0987283746675161 0 -0.69465837861970381 0.71933979245794832 1 0 0 forward_v I I I I #
loop $-1 $-1 $450 $111 #
coedge $-1 $283 $283 $284 $451 reversed $175 $-1 #
coedge $-1 $284 $284 $283 $451 forward $177 $-1 #
coedge $-1 $285 $285 $178 $286 forward $280 $-1 #
edge $-1 $452 -2.3802363272603319e-015 $452 6.2831853071795978 $285 $453 forward 7 unknown #
loop $-1 $-1 $292 $179 #
plane-surface $-1 -13.003291856248232 -27.492732465474049 2.0987283746675161 0 -0.69465837861970381 0.71933979245794832 1 0 0 forward_v I I I I #
loop $-1 $-1 $454 $114 #
coedge $-1 $290 $290 $291 $455 reversed $180 $-1 #
coedge $-1 $291 $291 $290 $455 forward $182 $-1 #
coedge $-1 $292 $292 $183 $293 forward $287 $-1 #
edge $-1 $456 -2.3802363272603319e-015 $456 6.2831853071795978 $292 $457 forward 7 unknown #
face $-1 $458 $459 $63 $-1 $460 reversed single #
loop $-1 $-1 $461 $184 #
plane-surface $-1 3.8162356627496781 -102.31664273603673 79.581153897076675 1 0 0 0 0.69465837861970381 -0.71933979245794832 forward_v I I I I #
coedge $-1 $462 $463 $464 $465 reversed $185 $-1 #
coedge $-1 $299 $187 $466 $467 reversed $118 $-1 #
coedge $-1 $187 $298 $462 $468 reversed $118 $-1 #
coedge $-1 $464 $469 $187 $301 forward $470 $-1 #
edge $-1 $471 23.665588902544314 $472 32.405549967189515 $300 $473 forward 7 unknown #
loop $-1 $-1 $307 $188 #
plane-surface $-1 11.208718943884129 -27.492732465474049 2.0987283746675161 0 -0.69465837861970381 0.71933979245794832 1 0 0 forward_v I I I I #
loop $-1 $-1 $474 $120 #
coedge $-1 $305 $305 $306 $475 reversed $189 $-1 #
coedge $-1 $306 $306 $305 $475 forward $191 $-1 #
coedge $-1 $307 $307 $192 $308 forward $302 $-1 #
edge $-1 $476 -2.3802363272603319e-015 $476 6.2831853071795978 $307 $477 forward 7 unknown #
loop $-1 $-1 $314 $193 #
plane-surface $-1 11.208718943884129 -27.492732465474049 2.0987283746675161 0 -0.69465837861970381 0.71933979245794832 1 0 0 forward_v I I I I #
loop $-1 $-1 $478 $123 #
coedge $-1 $312 $312 $313 $479 reversed $194 $-1 #
coedge $-1 $313 $313 $312 $479 forward $196 $-1 #
coedge $-1 $314 $314 $197 $315 forward $309 $-1 #
edge $-1 $480 -2.3802363272603319e-015 $480 6.2831853071795978 $314 $481 forward 7 unknown #
face $-1 $482 $483 $66 $-1 $484 reversed single #
loop $-1 $-1 $485 $198 #
plane-surface $-1 28.028246462882038 -102.31664273603673 79.581153897076675 1 0 0 0 0.69465837861970381 -0.71933979245794832 forward_v I I I I #
coedge $-1 $486 $487 $488 $489 reversed $199 $-1 #
coedge $-1 $321 $201 $490 $491 reversed $127 $-1 #
coedge $-1 $201 $320 $486 $492 reversed $127 $-1 #
coedge $-1 $488 $493 $201 $323 forward $494 $-1 #
edge $-1 $495 23.665588902544314 $496 32.405549967189515 $322 $497 forward 7 unknown #
loop $-1 $-1 $329 $202 #
plane-surface $-1 35.420729744016491 -27.492732465474049 2.0987283746675161 0 -0.69465837861970381 0.71933979245794832 1 0 0 forward_v I I I I #
loop $-1 $-1 $498 $129 #
coedge $-1 $327 $327 $328 $499 reversed $203 $-1 #
coedge $-1 $328 $328 $327 $499 forward $205 $-1 #
coedge $-1 $329 $329 $206 $330 forward $324 $-1 #
edge $-1 $500 -2.3802363272603319e-015 $500 6.2831853071795978 $329 $501 forward 7 unknown #
loop $-1 $-1 $336 $207 #
plane-surface $-1 35.420729744016491 -27.492732465474049 2.0987283746675161 0 -0.69465837861970381 0.71933979245794832 1 0 0 forward_v I I I I #
loop $-1 $-1 $502 $132 #
coedge $-1 $334 $334 $335 $503 reversed $208 $-1 #
coedge $-1 $335 $335 $334 $503 forward $210 $-1 #
coedge $-1 $336 $336 $211 $337 forward $331 $-1 #
edge $-1 $504 -2.3802363272603319e-015 $504 6.2831853071795978 $336 $505 forward 7 unknown #
face $-1 $506 $507 $69 $-1 $508 reversed single #
loop $-1 $-1 $509 $212 #
plane-surface $-1 -30.512275271578524 89.700891865938942 109.4732085965323 -1 0 0 0 0.84804810408105047 0.52991925155115449 forward_v I I I I #
coedge $-1 $510 $511 $512 $513 reversed $213 $-1 #
coedge $-1 $343 $215 $514 $515 reversed $136 $-1 #
coedge $-1 $215 $342 $510 $516 reversed $136 $-1 #
coedge $-1 $512 $517 $215 $345 forward $518 $-1 #
edge $-1 $519 17.357713467495422 $520 20.341617839115926 $344 $521 forward 7 unknown #
loop $-1 $-1 $351 $216 #
plane-surface $-1 -37.257889611327421 -1.6451239569262128 52.393884789204606 0 0.84804810408105047 0.52991925155115449 1 0 0 forward_v I I I I #
loop $-1 $-1 $522 $138 #
coedge $-1 $349 $349 $350 $523 reversed $217 $-1 #
coedge $-1 $350 $350 $349 $523 forward $219 $-1 #
coedge $-1 $351 $351 $220 $352 forward $346 $-1 #
edge $-1 $524 7.5400540218334812e-016 $524 6.2831853071796013 $351 $525 forward 7 unknown #
loop $-1 $-1 $358 $221 #
plane-surface $-1 -37.257889611327421 -1.6451239569262128 52.393884789204606 0 0.84804810408105047 0.52991925155115449 1 0 0 forward_v I I I I #
loop $-1 $-1 $526 $141 #
coedge $-1 $356 $356 $357 $527 reversed $222 $-1 #
coedge $-1 $357 $357 $356 $527 forward $224 $-1 #
coedge $-1 $358 $358 $225 $359 forward $353 $-1 #
edge $-1 $528 7.5400540218334812e-016 $528 6.2831853071796013 $358 $529 forward 7 unknown #
face $-1 $530 $531 $54 $-1 $532 reversed single #
loop $-1 $-1 $533 $226 #
plane-surface $-1 -53.856624042481762 0 0 1 0 0 0 0 -1 forward_v I I I I #
coedge $-1 $534 $371 $535 $536 forward $227 $-1 #
coedge $-1 $537 $229 $534 $538 forward $145 $-1 #
coedge $-1 $229 $537 $539 $540 forward $145 $-1 #
coedge $-1 $374 $373 $229 $367 reversed $375 $-1 #
edge $-1 $541 -27.492732465474049 $542 27.492732465474049 $366 $543 forward 7 unknown #
coedge $-1 $231 $230 $544 $545 forward $91 $-1 #
coedge $-1 $546 $547 $230 $370 reversed $531 $-1 #
edge $-1 $377 -53.856624042481762 $548 53.856624042481762 $369 $549 forward 7 unknown #
coedge $-1 $363 $550 $231 $372 reversed $227 $-1 #
edge $-1 $551 -53.856624042481762 $376 53.856624042481762 $371 $552 forward 7 unknown #
coedge $-1 $366 $232 $550 $553 forward $375 $-1 #
coedge $-1 $232 $366 $546 $554 reversed $375 $-1 #
loop $-1 $-1 $373 $530 #
vertex $-1 $233 $555 #
vertex $-1 $233 $556 #
straight-curve $-1 53.856624042481762 0 10.538810858663696 0 1 0 I I #
face $-1 $557 $558 $55 $-1 $559 reversed single #
loop $-1 $-1 $560 $234 #
plane-surface $-1 -53.856624042481762 0 0 1 0 0 0 0 -1 forward_v I I I I #
coedge $-1 $390 $561 $384 $562 forward $235 $-1 #
coedge $-1 $240 $237 $563 $564 reversed $149 $-1 #
coedge $-1 $237 $240 $382 $562 reversed $149 $-1 #
coedge $-1 $565 $566 $237 $386 forward $567 $-1 #
edge $-1 $568 -10.538810858663696 $569 10.538810858663696 $385 $570 forward 7 unknown #
coedge $-1 $239 $238 $560 $571 reversed $94 $-1 #
coedge $-1 $563 $572 $238 $389 forward $558 $-1 #
edge $-1 $573 -28.713969383295147 $393 -21.571339935078083 $388 $574 forward 7 unknown #
coedge $-1 $575 $382 $239 $391 forward $235 $-1 #
edge $-1 $392 21.571339935078083 $576 28.713969383295147 $390 $577 forward 7 unknown #
vertex $-1 $391 $578 #
vertex $-1 $389 $579 #
straight-curve $-1 -46.713994594264697 -24.492732465474049 0 0 0 -1 I I #
face $-1 $580 $581 $56 $-1 $582 forward single #
loop $-1 $-1 $404 $242 #
plane-surface $-1 0 0 -10.538810858663696 0 0 1 1 0 0 forward_v I I I I #
coedge $-1 $583 $584 $585 $586 reversed $243 $-1 #
coedge $-1 $248 $245 $587 $588 reversed $153 $-1 #
coedge $-1 $245 $248 $589 $590 reversed $153 $-1 #
coedge $-1 $584 $583 $245 $402 reversed $243 $-1 #
edge $-1 $591 -10.538810858663696 $592 10.538810858663696 $401 $593 forward 7 unknown #
coedge $-1 $247 $246 $594 $595 reversed $97 $-1 #
coedge $-1 $587 $596 $246 $405 forward $396 $-1 #
edge $-1 $597 -29.162612611386177 $409 -20.225410250805009 $404 $598 forward 7 unknown #
coedge $-1 $599 $589 $247 $407 forward $581 $-1 #
edge $-1 $408 20.225410250805009 $600 29.162612611386177 $406 $601 forward 7 unknown #
vertex $-1 $407 $602 #
vertex $-1 $405 $603 #
straight-curve $-1 44.919421681900602 -12.667381624513336 0 0 0 -1 I I #
face $-1 $-1 $604 $57 $-1 $605 reversed single #
loop $-1 $-1 $256 $250 #
plane-surface $-1 0 0 10.538810858663696 0 0 1 1 0 0 forward_v I I I I #
coedge $-1 $606 $607 $608 $609 reversed $251 $-1 #
coedge $-1 $610 $253 $255 $421 forward $157 $-1 #
coedge $-1 $253 $610 $606 $611 forward $157 $-1 #
coedge $-1 $608 $256 $253 $418 forward $412 $-1 #
edge $-1 $424 11.215168047055844 $612 26.00013460932475 $417 $613 forward 7 unknown #
coedge $-1 $614 $615 $254 $420 forward $604 $-1 #
edge $-1 $616 -37.691848573870821 $423 -29.251766089874643 $419 $617 forward 7 unknown #
edge $-1 $424 -12.149975792081779 $616 0 $255 $618 forward 7 unknown #
coedge $-1 $256 $608 $614 $619 forward $412 $-1 #
vertex $-1 $257 $620 #
vertex $-1 $257 $621 #
straight-curve $-1 -29.822819375246141 -51.158321368018363 10.538810858663695 0 1 0 I I #
coedge $-1 $426 $426 $-1 $622 reversed $260 $-1 #
edge $-1 $623 0 $623 6.2831853071796004 $261 $624 forward 7 unknown #
vertex $-1 $264 $625 #
ellipse-curve $-1 -40.383509776866788 -23.122751933151445 6.3187696166656071 0 -0.69465837861970381 0.71933979245794832 1 0 0 1 I I #
coedge $-1 $430 $430 $-1 $626 reversed $267 $-1 #
edge $-1 $627 0 $627 6.2831853071796004 $268 $628 forward 7 unknown #
vertex $-1 $271 $629 #
ellipse-curve $-1 -34.0470955358944 -23.122751933151445 6.3187696166656071 0 -0.69465837861970381 0.71933979245794832 1 0 0 1 I I #
face $-1 $-1 $446 $60 $-1 $630 forward single #
loop $-1 $-1 $631 $272 #
plane-surface $-1 0 -27.492732465474049 0 0 1 0 0 0 1 forward_v I I I I #
coedge $-1 $632 $633 $634 $635 reversed $273 $-1 #
coedge $-1 $636 $275 $277 $444 forward $171 $-1 #
coedge $-1 $275 $636 $632 $637 forward $171 $-1 #
coedge $-1 $634 $278 $275 $441 forward $446 $-1 #
edge $-1 $448 -0.89083735301033506 $638 13.894129209258569 $440 $639 forward 7 unknown #
coedge $-1 $640 $641 $276 $443 forward $435 $-1 #
edge $-1 $642 -37.691848573870821 $447 -29.251766089874643 $442 $643 forward 7 unknown #
edge $-1 $448 -12.149975792081779 $642 0 $277 $644 forward 7 unknown #
coedge $-1 $278 $634 $640 $645 forward $446 $-1 #
loop $-1 $-1 $634 $434 #
vertex $-1 $443 $646 #
vertex $-1 $279 $647 #
straight-curve $-1 -5.6108085751137811 -51.158321368018363 10.538810858663695 0 1 0 I I #
coedge $-1 $450 $450 $-1 $648 reversed $282 $-1 #
edge $-1 $649 0 $649 6.2831853071796004 $283 $650 forward 7 unknown #
vertex $-1 $286 $651 #
ellipse-curve $-1 -16.171498976734419 -23.122751933151445 6.3187696166656071 0 -0.69465837861970381 0.71933979245794832 1 0 0 1 I I #
coedge $-1 $454 $454 $-1 $652 reversed $289 $-1 #
edge $-1 $653 0 $653 6.2831853071796004 $290 $654 forward 7 unknown #
vertex $-1 $293 $655 #
ellipse-curve $-1 -9.8350847357620381 -23.122751933151445 6.3187696166656071 0 -0.69465837861970381 0.71933979245794832 1 0 0 1 I I #
face $-1 $-1 $470 $63 $-1 $656 forward single #
loop $-1 $-1 $657 $294 #
plane-surface $-1 0 -27.492732465474049 0 0 1 0 0 0 1 forward_v I I I I #
coedge $-1 $658 $659 $660 $661 reversed $295 $-1 #
coedge $-1 $662 $297 $299 $468 forward $185 $-1 #
coedge $-1 $297 $662 $658 $663 forward $185 $-1 #
coedge $-1 $660 $300 $297 $465 forward $470 $-1 #
edge $-1 $472 -12.996842753076518 $664 1.7881238091923866 $464 $665 forward 7 unknown #
coedge $-1 $666 $667 $298 $467 forward $459 $-1 #
edge $-1 $668 -37.691848573870821 $471 -29.251766089874643 $466 $669 forward 7 unknown #
edge $-1 $472 -12.149975792081779 $668 0 $299 $670 forward 7 unknown #
coedge $-1 $300 $660 $666 $671 forward $470 $-1 #
loop $-1 $-1 $660 $458 #
vertex $-1 $467 $672 #
vertex $-1 $301 $673 #
straight-curve $-1 18.601202225018582 -51.158321368018363 10.538810858663695 0 1 0 I I #
coedge $-1 $474 $474 $-1 $674 reversed $304 $-1 #
edge $-1 $675 0 $675 6.2831853071796004 $305 $676 forward 7 unknown #
vertex $-1 $308 $677 #
ellipse-curve $-1 8.0405118233979422 -23.122751933151445 6.3187696166656071 0 -0.69465837861970381 0.71933979245794832 1 0 0 1 I I #
coedge $-1 $478 $478 $-1 $678 reversed $311 $-1 #
edge $-1 $679 0 $679 6.2831853071796004 $312 $680 forward 7 unknown #
vertex $-1 $315 $681 #
ellipse-curve $-1 14.376926064370316 -23.122751933151445 6.3187696166656071 0 -0.69465837861970381 0.71933979245794832 1 0 0 1 I I #
face $-1 $-1 $494 $66 $-1 $682 forward single #
loop $-1 $-1 $683 $316 #
plane-surface $-1 0 -27.492732465474049 0 0 1 0 0 0 1 forward_v I I I I #
coedge $-1 $684 $685 $686 $687 reversed $317 $-1 #
coedge $-1 $688 $319 $321 $492 forward $199 $-1 #
coedge $-1 $319 $688 $684 $689 forward $199 $-1 #
coedge $-1 $686 $322 $319 $489 forward $494 $-1 #
edge $-1 $496 -25.102848153142698 $690 -10.317881590873792 $488 $691 forward 7 unknown #
coedge $-1 $692 $693 $320 $491 forward $483 $-1 #
edge $-1 $694 -37.691848573870821 $495 -29.251766089874643 $490 $695 forward 7 unknown #
edge $-1 $496 -12.149975792081779 $694 0 $321 $696 forward 7 unknown #
coedge $-1 $322 $686 $692 $697 forward $494 $-1 #
loop $-1 $-1 $686 $482 #
vertex $-1 $491 $698 #
vertex $-1 $323 $699 #
straight-curve $-1 42.813213025150944 -51.158321368018363 10.538810858663695 0 1 0 I I #
coedge $-1 $498 $498 $-1 $700 reversed $326 $-1 #
edge $-1 $701 0 $701 6.2831853071796004 $327 $702 forward 7 unknown #
vertex $-1 $330 $703 #
ellipse-curve $-1 32.252522623530304 -23.122751933151445 6.3187696166656071 0 -0.69465837861970381 0.71933979245794832 1 0 0 1 I I #
coedge $-1 $502 $502 $-1 $704 reversed $333 $-1 #
edge $-1 $705 0 $705 6.2831853071796004 $334 $706 forward 7 unknown #
vertex $-1 $337 $707 #
ellipse-curve $-1 38.588936864502678 -23.122751933151445 6.3187696166656071 0 -0.69465837861970381 0.71933979245794832 1 0 0 1 I I #
face $-1 $-1 $518 $69 $-1 $708 forward single #
loop $-1 $-1 $709 $338 #
plane-surface $-1 0 27.492732465474049 0 0 -1 0 0 0 -1 forward_v I I I I #
coedge $-1 $710 $711 $712 $713 reversed $339 $-1 #
coedge $-1 $714 $341 $343 $516 forward $213 $-1 #
coedge $-1 $341 $714 $710 $715 forward $213 $-1 #
coedge $-1 $712 $344 $341 $513 forward $518 $-1 #
edge $-1 $520 -25.374559145412608 $716 -11.883330465914813 $512 $717 forward 7 unknown #
coedge $-1 $718 $719 $342 $515 forward $507 $-1 #
edge $-1 $720 -48.97303879576716 $519 -44.197793439602457 $514 $721 forward 7 unknown #
edge $-1 $520 49.354598788821413 $720 54.985464930948083 $343 $722 forward 7 unknown #
coedge $-1 $344 $712 $718 $723 forward $518 $-1 #
loop $-1 $-1 $712 $506 #
vertex $-1 $515 $724 #
vertex $-1 $345 $725 #
straight-curve $-1 -44.003503951076318 44.850445932969471 10.538810858663695 0 -1 0 I I #
coedge $-1 $522 $522 $-1 $726 reversed $348 $-1 #
edge $-1 $727 0 $727 6.2831853071796004 $349 $728 forward 7 unknown #
vertex $-1 $352 $729 #
ellipse-curve $-1 -40.148867185505523 26.0007802796638 8.1511881805813395 0 0.84804810408105047 0.52991925155115449 1 0 0 1 I I #
coedge $-1 $526 $526 $-1 $730 reversed $355 $-1 #
edge $-1 $731 0 $731 6.2831853071796004 $356 $732 forward 7 unknown #
vertex $-1 $359 $733 #
ellipse-curve $-1 -34.366912037149319 26.0007802796638 8.1511881805813395 0 0.84804810408105047 0.52991925155115449 1 0 0 1 I I #
face $-1 $-1 $375 $54 $-1 $734 reversed single #
loop $-1 $-1 $546 $360 #
plane-surface $-1 0 27.492732465474049 0 0 -1 0 0 0 -1 forward_v I I I I #
coedge $-1 $735 $544 $547 $736 forward $361 $-1 #
coedge $-1 $550 $363 $364 $538 reversed $227 $-1 #
coedge $-1 $544 $735 $363 $536 reversed $361 $-1 #
edge $-1 $551 -10.538810858663696 $737 10.538810858663696 $535 $738 forward 7 unknown #
coedge $-1 $365 $364 $735 $739 forward $145 $-1 #
edge $-1 $542 -53.856624042481762 $737 53.856624042481762 $534 $740 forward 7 unknown #
coedge $-1 $547 $546 $365 $540 reversed $531 $-1 #
edge $-1 $741 -53.856624042481762 $541 53.856624042481762 $539 $742 forward 7 unknown #
vertex $-1 $367 $743 #
vertex $-1 $553 $744 #
straight-curve $-1 53.856624042481762 0 -10.538810858663696 0 -1 0 I I #
coedge $-1 $533 $535 $368 $545 reversed $361 $-1 #
edge $-1 $548 -27.492732465474049 $551 27.492732465474049 $544 $745 forward 7 unknown #
coedge $-1 $539 $369 $374 $554 forward $531 $-1 #
coedge $-1 $369 $539 $533 $736 reversed $531 $-1 #
vertex $-1 $370 $746 #
straight-curve $-1 0 27.492732465474049 10.538810858663696 -1 0 0 I I #
coedge $-1 $371 $534 $373 $553 reversed $227 $-1 #
vertex $-1 $545 $747 #
straight-curve $-1 0 -27.492732465474049 10.538810858663696 1 0 0 I I #
edge $-1 $376 -10.538810858663696 $542 10.538810858663696 $373 $748 forward 7 unknown #
edge $-1 $377 -10.538810858663696 $541 10.538810858663696 $374 $749 forward 7 unknown #
point $-1 53.856624042481762 -27.492732465474049 10.538810858663696 #
point $-1 53.856624042481762 27.492732465474049 10.538810858663696 #
face $-1 $-1 $567 $55 $-1 $750 reversed single #
loop $-1 $-1 $563 $379 #
plane-surface $-1 0 0 -10.538810858663696 0 0 1 1 0 0 forward_v I I I I #
coedge $-1 $751 $752 $387 $571 forward $380 $-1 #
coedge $-1 $382 $575 $565 $753 forward $235 $-1 #
edge $-1 $569 -14.496366232737024 $392 -11.496366232737024 $382 $754 forward 7 unknown #
coedge $-1 $755 $388 $383 $564 forward $558 $-1 #
edge $-1 $393 11.496366232737024 $568 14.496366232737024 $563 $756 forward 7 unknown #
coedge $-1 $757 $385 $561 $753 reversed $567 $-1 #
coedge $-1 $385 $757 $755 $758 reversed $567 $-1 #
loop $-1 $-1 $385 $557 #
vertex $-1 $758 $759 #
vertex $-1 $386 $760 #
straight-curve $-1 -46.713994594264697 -27.492732465474049 0 0 0 1 I I #
edge $-1 $576 -10.538810858663696 $573 10.538810858663696 $560 $761 forward 7 unknown #
coedge $-1 $388 $755 $751 $762 forward $558 $-1 #
vertex $-1 $389 $763 #
straight-curve $-1 -25.142654659186615 -24.492732465474049 -10.538810858663696 1 0 0 I I #
coedge $-1 $561 $390 $752 $764 forward $235 $-1 #
vertex $-1 $764 $765 #
straight-curve $-1 -25.142654659186615 -24.492732465474049 10.538810858663696 -1 0 0 I I #
point $-1 -46.713994594264697 -24.492732465474049 10.538810858663696 #
point $-1 -46.713994594264697 -24.492732465474049 -10.538810858663696 #
face $-1 $-1 $766 $56 $-1 $767 reversed single #
loop $-1 $-1 $406 $395 #
plane-surface $-1 0 0 10.538810858663696 0 0 1 1 0 0 forward_v I I I I #
coedge $-1 $401 $398 $768 $769 reversed $243 $-1 #
coedge $-1 $398 $401 $770 $771 reversed $243 $-1 #
coedge $-1 $772 $773 $398 $586 forward $766 $-1 #
edge $-1 $774 -10.538810858663696 $775 10.538810858663696 $585 $776 forward 7 unknown #
coedge $-1 $768 $404 $399 $588 forward $396 $-1 #
edge $-1 $409 -7.8967585313483379 $592 -1.6444876549816572 $587 $777 forward 7 unknown #
coedge $-1 $406 $770 $400 $590 forward $581 $-1 #
edge $-1 $591 1.6444876549816572 $408 7.8967585313483379 $589 $778 forward 7 unknown #
vertex $-1 $590 $779 #
vertex $-1 $588 $780 #
straight-curve $-1 44.919421681900602 -6.4151107481466552 0 0 0 -1 I I #
coedge $-1 $773 $772 $403 $595 forward $766 $-1 #
edge $-1 $600 -10.538810858663696 $597 10.538810858663696 $594 $781 forward 7 unknown #
coedge $-1 $404 $768 $773 $782 forward $396 $-1 #
vertex $-1 $595 $783 #
straight-curve $-1 24.694011431095593 -12.667381624513336 -10.538810858663696 -1 0 0 I I #
coedge $-1 $770 $406 $772 $784 forward $581 $-1 #
vertex $-1 $784 $785 #
straight-curve $-1 24.694011431095593 -12.667381624513336 10.538810858663696 1 0 0 I I #
point $-1 44.919421681900602 -12.667381624513336 10.538810858663696 #
point $-1 44.919421681900602 -12.667381624513336 -10.538810858663696 #
loop $-1 $-1 $419 $411 #
plane-surface $-1 0 -27.492732465474049 0 0 1 0 0 0 1 forward_v I I I I #
coedge $-1 $607 $414 $416 $611 reversed $251 $-1 #
coedge $-1 $414 $606 $786 $787 reversed $251 $-1 #
coedge $-1 $422 $417 $414 $609 forward $412 $-1 #
edge $-1 $612 -32.405549967189515 $788 -23.665588902544314 $608 $789 forward 7 unknown #
coedge $-1 $416 $415 $615 $790 reversed $157 $-1 #
edge $-1 $791 0 $612 12.149975792081779 $606 $792 forward 7 unknown #
vertex $-1 $418 $793 #
straight-curve $-1 -18.607651328190297 -18.752771400828845 10.538810858663696 -1 0 0 I I #
coedge $-1 $786 $419 $422 $619 reversed $604 $-1 #
coedge $-1 $419 $786 $610 $790 forward $604 $-1 #
vertex $-1 $420 $794 #
straight-curve $-1 -29.822819375246141 -27.492732465474049 39.790576948538337 0 0 1 I I #
straight-curve $-1 -29.822819375246141 -27.492732465474049 2.0987283746675161 0 -0.71933979245794832 -0.69465837861970381 I I #
edge $-1 $788 -44.607785937515047 $423 -29.822819375246141 $614 $795 forward 7 unknown #
point $-1 -29.822819375246141 -27.492732465474049 10.538810858663696 #
point $-1 -29.822819375246141 -18.752771400828845 10.538810858663696 #
edge $-1 $796 1 $796 0 $426 $-1 forward 7 unknown #
vertex $-1 $427 $797 #
ellipse-curve $-1 -40.383509776866788 -20.383550303930132 3.4822433584208241 0 -0.69465837861970381 0.71933979245794832 1 0 0 1 I I #
point $-1 -39.383509776866788 -23.122751933151442 6.3187696166656 #
edge $-1 $798 1 $798 0 $430 $-1 forward 7 unknown #
vertex $-1 $431 $799 #
ellipse-curve $-1 -34.0470955358944 -20.383550303930132 3.4822433584208241 0 -0.69465837861970381 0.71933979245794832 1 0 0 1 I I #
point $-1 -33.0470955358944 -23.122751933151442 6.3187696166656 #
plane-surface $-1 0 0 10.538810858663696 0 0 1 1 0 0 forward_v I I I I #
coedge $-1 $641 $640 $633 $800 forward $435 $-1 #
coedge $-1 $633 $437 $439 $637 reversed $273 $-1 #
coedge $-1 $437 $632 $631 $800 reversed $273 $-1 #
coedge $-1 $445 $440 $437 $635 forward $446 $-1 #
edge $-1 $638 -32.405549967189515 $801 -23.665588902544314 $634 $802 forward 7 unknown #
coedge $-1 $439 $438 $641 $803 reversed $171 $-1 #
edge $-1 $804 0 $638 12.149975792081779 $632 $805 forward 7 unknown #
vertex $-1 $441 $806 #
straight-curve $-1 -6.5016459281241161 -18.752771400828845 10.538810858663696 -1 0 0 I I #
coedge $-1 $631 $442 $445 $645 reversed $435 $-1 #
coedge $-1 $442 $631 $636 $803 forward $435 $-1 #
vertex $-1 $443 $807 #
straight-curve $-1 -5.6108085751137811 -27.492732465474049 39.790576948538337 0 0 1 I I #
straight-curve $-1 -5.6108085751137811 -27.492732465474049 2.0987283746675161 0 -0.71933979245794832 -0.69465837861970381 I I #
edge $-1 $801 -20.395775137382685 $447 -5.6108085751137811 $640 $808 forward 7 unknown #
point $-1 -5.6108085751137811 -27.492732465474049 10.538810858663696 #
point $-1 -5.6108085751137811 -18.752771400828845 10.538810858663696 #
edge $-1 $809 1 $809 0 $450 $-1 forward 7 unknown #
vertex $-1 $451 $810 #
ellipse-curve $-1 -16.171498976734419 -20.383550303930132 3.4822433584208241 0 -0.69465837861970381 0.71933979245794832 1 0 0 1 I I #
point $-1 -15.171498976734419 -23.122751933151442 6.3187696166656 #
edge $-1 $811 1 $811 0 $454 $-1 forward 7 unknown #
vertex $-1 $455 $812 #
ellipse-curve $-1 -9.8350847357620381 -20.383550303930132 3.4822433584208241 0 -0.69465837861970381 0.71933979245794832 1 0 0 1 I I #
point $-1 -8.8350847357620381 -23.122751933151442 6.3187696166656 #
plane-surface $-1 0 0 10.538810858663696 0 0 1 1 0 0 forward_v I I I I #
coedge $-1 $667 $666 $659 $813 forward $459 $-1 #
coedge $-1 $659 $461 $463 $663 reversed $295 $-1 #
coedge $-1 $461 $658 $657 $813 reversed $295 $-1 #
coedge $-1 $469 $464 $461 $661 forward $470 $-1 #
edge $-1 $664 -32.405549967189515 $814 -23.665588902544314 $660 $815 forward 7 unknown #
coedge $-1 $463 $462 $667 $816 reversed $185 $-1 #
edge $-1 $817 0 $664 12.149975792081779 $658 $818 forward 7 unknown #
vertex $-1 $465 $819 #
straight-curve $-1 5.6043594719420646 -18.752771400828845 10.538810858663696 -1 0 0 I I #
coedge $-1 $657 $466 $469 $671 reversed $459 $-1 #
coedge $-1 $466 $657 $662 $816 forward $459 $-1 #
vertex $-1 $467 $820 #
straight-curve $-1 18.601202225018582 -27.492732465474049 39.790576948538337 0 0 1 I I #
straight-curve $-1 18.601202225018582 -27.492732465474049 2.0987283746675161 0 -0.71933979245794832 -0.69465837861970381 I I #
edge $-1 $814 3.8162356627496781 $471 18.601202225018582 $666 $821 forward 7 unknown #
point $-1 18.601202225018582 -27.492732465474049 10.538810858663696 #
point $-1 18.601202225018582 -18.752771400828845 10.538810858663696 #
edge $-1 $822 1 $822 0 $474 $-1 forward 7 unknown #
vertex $-1 $475 $823 #
ellipse-curve $-1 8.0405118233979422 -20.383550303930132 3.4822433584208241 0 -0.69465837861970381 0.71933979245794832 1 0 0 1 I I #
point $-1 9.0405118233979422 -23.122751933151442 6.3187696166656 #
edge $-1 $824 1 $824 0 $478 $-1 forward 7 unknown #
vertex $-1 $479 $825 #
ellipse-curve $-1 14.376926064370316 -20.383550303930132 3.4822433584208241 0 -0.69465837861970381 0.71933979245794832 1 0 0 1 I I #
point $-1 15.376926064370316 -23.122751933151442 6.3187696166656 #
plane-surface $-1 0 0 10.538810858663696 0 0 1 1 0 0 forward_v I I I I #
coedge $-1 $693 $692 $685 $826 forward $483 $-1 #
coedge $-1 $685 $485 $487 $689 reversed $317 $-1 #
coedge $-1 $485 $684 $683 $826 reversed $317 $-1 #
coedge $-1 $493 $488 $485 $687 forward $494 $-1 #
edge $-1 $690 -32.405549967189515 $827 -23.665588902544314 $686 $828 forward 7 unknown #
coedge $-1 $487 $486 $693 $829 reversed $199 $-1 #
edge $-1 $830 0 $690 12.149975792081779 $684 $831 forward 7 unknown #
vertex $-1 $489 $832 #
straight-curve $-1 17.710364872008245 -18.752771400828845 10.538810858663696 -1 0 0 I I #
coedge $-1 $683 $490 $493 $697 reversed $483 $-1 #
coedge $-1 $490 $683 $688 $829 forward $483 $-1 #
vertex $-1 $491 $833 #
straight-curve $-1 42.813213025150944 -27.492732465474049 39.790576948538337 0 0 1 I I #
straight-curve $-1 42.813213025150944 -27.492732465474049 2.0987283746675161 0 -0.71933979245794832 -0.69465837861970381 I I #
edge $-1 $827 28.028246462882038 $495 42.813213025150944 $692 $834 forward 7 unknown #
point $-1 42.813213025150944 -27.492732465474049 10.538810858663696 #
point $-1 42.813213025150944 -18.752771400828845 10.538810858663696 #
edge $-1 $835 1 $835 0 $498 $-1 forward 7 unknown #
vertex $-1 $499 $836 #
ellipse-curve $-1 32.252522623530304 -20.383550303930132 3.4822433584208241 0 -0.69465837861970381 0.71933979245794832 1 0 0 1 I I #
point $-1 33.252522623530304 -23.122751933151442 6.3187696166656 #
edge $-1 $837 1 $837 0 $502 $-1 forward 7 unknown #
vertex $-1 $503 $838 #
ellipse-curve $-1 38.588936864502678 -20.383550303930132 3.4822433584208241 0 -0.69465837861970381 0.71933979245794832 1 0 0 1 I I #
point $-1 39.588936864502678 -23.122751933151442 6.3187696166656 #
plane-surface $-1 0 0 10.538810858663696 0 0 1 1 0 0 forward_v I I I I #
coedge $-1 $719 $718 $711 $839 forward $507 $-1 #
coedge $-1 $711 $509 $511 $715 reversed $339 $-1 #
coedge $-1 $509 $710 $709 $839 reversed $339 $-1 #
coedge $-1 $517 $512 $509 $713 forward $518 $-1 #
edge $-1 $716 -20.341617839115926 $840 -17.357713467495422 $712 $841 forward 7 unknown #
coedge $-1 $511 $510 $719 $842 reversed $213 $-1 #
edge $-1 $843 -54.985464930948083 $716 -49.354598788821413 $710 $844 forward 7 unknown #
vertex $-1 $513 $845 #
straight-curve $-1 -18.628944805663711 24.508828093853552 10.538810858663695 1 0 0 I I #
coedge $-1 $709 $514 $517 $723 reversed $507 $-1 #
coedge $-1 $514 $709 $714 $842 forward $507 $-1 #
vertex $-1 $515 $846 #
straight-curve $-1 -44.003503951076318 27.492732465474049 54.736604298266151 0 0 1 I I #
straight-curve $-1 -44.003503951076318 -1.6451239569262128 52.393884789204606 0 0.52991925155115449 -0.84804810408105047 I I #
edge $-1 $840 30.512275271578524 $519 44.003503951076318 $718 $847 forward 7 unknown #
point $-1 -44.003503951076318 27.492732465474049 10.538810858663696 #
point $-1 -44.003503951076318 24.508828093853545 10.538810858663695 #
edge $-1 $848 1 $848 0 $522 $-1 forward 7 unknown #
vertex $-1 $523 $849 #
ellipse-curve $-1 -40.148867185505523 24.583372446535865 7.2654934959763802 0 0.84804810408105047 0.52991925155115449 1 0 0 1 I I #
point $-1 -39.148867185505523 26.000780279663793 8.1511881805813342 #
edge $-1 $850 1 $850 0 $526 $-1 forward 7 unknown #
vertex $-1 $527 $851 #
ellipse-curve $-1 -34.366912037149319 24.583372446535865 7.2654934959763802 0 0.84804810408105047 0.52991925155115449 1 0 0 1 I I #
point $-1 -33.366912037149319 26.000780279663793 8.1511881805813342 #
plane-surface $-1 53.856624042481762 0 0 -1 0 0 0 0 1 forward_v I I I I #
coedge $-1 $535 $533 $537 $739 reversed $361 $-1 #
edge $-1 $548 -10.538810858663696 $741 10.538810858663696 $547 $852 forward 7 unknown #
vertex $-1 $739 $853 #
straight-curve $-1 -53.856624042481762 -27.492732465474049 0 0 0 -1 I I #
edge $-1 $737 -27.492732465474049 $741 27.492732465474049 $735 $854 forward 7 unknown #
straight-curve $-1 0 -27.492732465474049 -10.538810858663696 -1 0 0 I I #
vertex $-1 $540 $855 #
straight-curve $-1 0 27.492732465474049 -10.538810858663696 1 0 0 I I #
point $-1 53.856624042481762 27.492732465474049 -10.538810858663696 #
point $-1 53.856624042481762 -27.492732465474049 -10.538810858663696 #
straight-curve $-1 -53.856624042481762 0 10.538810858663696 0 -1 0 I I #
point $-1 -53.856624042481762 27.492732465474049 10.538810858663696 #
point $-1 -53.856624042481762 -27.492732465474049 10.538810858663696 #
straight-curve $-1 53.856624042481762 -27.492732465474049 0 0 0 -1 I I #
straight-curve $-1 53.856624042481762 27.492732465474049 0 0 0 -1 I I #
plane-surface $-1 0 -27.492732465474049 0 0 1 0 0 0 1 forward_v I I I I #
coedge $-1 $856 $560 $572 $762 reversed $380 $-1 #
coedge $-1 $560 $856 $575 $764 reversed $380 $-1 #
edge $-1 $857 -53.856624042481762 $569 -46.713994594264697 $565 $858 forward 7 unknown #
straight-curve $-1 -46.713994594264697 -12.996366232737024 10.538810858663696 0 1 0 I I #
coedge $-1 $572 $563 $566 $758 forward $558 $-1 #
straight-curve $-1 -46.713994594264697 -12.996366232737024 -10.538810858663696 0 -1 0 I I #
coedge $-1 $566 $565 $856 $859 forward $567 $-1 #
edge $-1 $568 46.713994594264697 $860 53.856624042481762 $566 $861 forward 7 unknown #
point $-1 -46.713994594264697 -27.492732465474049 -10.538810858663696 #
point $-1 -46.713994594264697 -27.492732465474049 10.538810858663696 #
straight-curve $-1 -53.856624042481762 -24.492732465474049 0 0 0 -1 I I #
edge $-1 $860 -27.492732465474049 $573 -24.492732465474049 $751 $862 forward 7 unknown #
point $-1 -53.856624042481762 -24.492732465474049 -10.538810858663696 #
edge $-1 $576 24.492732465474049 $857 27.492732465474049 $752 $863 forward 7 unknown #
point $-1 -53.856624042481762 -24.492732465474049 10.538810858663696 #
loop $-1 $-1 $594 $580 #
plane-surface $-1 53.856624042481762 0 0 -1 0 0 0 0 1 forward_v I I I I #
coedge $-1 $596 $587 $583 $769 forward $396 $-1 #
edge $-1 $592 20.225410250805009 $774 29.162612611386177 $768 $864 forward 7 unknown #
coedge $-1 $589 $599 $584 $771 forward $581 $-1 #
edge $-1 $775 -29.162612611386177 $591 -20.225410250805009 $770 $865 forward 7 unknown #
coedge $-1 $594 $585 $599 $784 reversed $766 $-1 #
coedge $-1 $585 $594 $596 $782 reversed $766 $-1 #
vertex $-1 $782 $866 #
vertex $-1 $586 $867 #
straight-curve $-1 53.856624042481762 -6.4151107481466552 0 0 0 1 I I #
straight-curve $-1 44.919421681900602 -4.770623093164998 -10.538810858663696 0 1 0 I I #
straight-curve $-1 44.919421681900602 -4.770623093164998 10.538810858663696 0 -1 0 I I #
point $-1 44.919421681900602 -6.4151107481466552 10.538810858663696 #
point $-1 44.919421681900602 -6.4151107481466552 -10.538810858663696 #
straight-curve $-1 53.856624042481762 -12.667381624513336 0 0 0 -1 I I #
edge $-1 $774 6.4151107481466552 $597 12.667381624513336 $773 $868 forward 7 unknown #
point $-1 53.856624042481769 -12.667381624513336 -10.538810858663696 #
edge $-1 $600 -12.667381624513336 $775 -6.4151107481466552 $772 $869 forward 7 unknown #
point $-1 53.856624042481769 -12.667381624513336 10.538810858663696 #
coedge $-1 $615 $614 $607 $787 forward $604 $-1 #
edge $-1 $788 29.251766089874643 $791 37.691848573870821 $786 $870 forward 7 unknown #
vertex $-1 $619 $871 #
straight-curve $-1 -44.607785937515047 -51.158321368018363 10.538810858663695 0 -1 0 I I #
edge $-1 $791 -26.00013460932475 $616 -11.215168047055844 $615 $872 forward 7 unknown #
vertex $-1 $790 $873 #
straight-curve $-1 -44.607785937515047 -27.492732465474049 2.0987283746675161 0 0.71933979245794832 0.69465837861970381 I I #
point $-1 -44.607785937515047 -18.752771400828845 10.538810858663696 #
point $-1 -29.822819375246141 -27.492732465474049 2.0987283746675161 #
straight-curve $-1 0 -27.492732465474049 10.538810858663696 1 0 0 I I #
vertex $-1 $622 $874 #
point $-1 -39.383509776866788 -20.383550303930132 3.4822433584208241 #
vertex $-1 $626 $875 #
point $-1 -33.0470955358944 -20.383550303930132 3.4822433584208241 #
edge $-1 $801 29.251766089874643 $804 37.691848573870821 $631 $876 forward 7 unknown #
vertex $-1 $645 $877 #
straight-curve $-1 -20.395775137382685 -51.158321368018363 10.538810858663695 0 -1 0 I I #
edge $-1 $804 -13.894129209258569 $642 0.89083735301033506 $641 $878 forward 7 unknown #
vertex $-1 $803 $879 #
straight-curve $-1 -20.395775137382685 -27.492732465474049 2.0987283746675161 0 0.71933979245794832 0.69465837861970381 I I #
point $-1 -20.395775137382685 -18.752771400828845 10.538810858663696 #
point $-1 -5.6108085751137811 -27.492732465474049 2.0987283746675161 #
straight-curve $-1 0 -27.492732465474049 10.538810858663696 1 0 0 I I #
vertex $-1 $648 $880 #
point $-1 -15.171498976734419 -20.383550303930132 3.4822433584208241 #
vertex $-1 $652 $881 #
point $-1 -8.8350847357620381 -20.383550303930132 3.4822433584208241 #
edge $-1 $814 29.251766089874643 $817 37.691848573870821 $657 $882 forward 7 unknown #
vertex $-1 $671 $883 #
straight-curve $-1 3.8162356627496781 -51.158321368018363 10.538810858663695 0 -1 0 I I #
edge $-1 $817 -1.7881238091923866 $668 12.996842753076518 $667 $884 forward 7 unknown #
vertex $-1 $816 $885 #
straight-curve $-1 3.8162356627496781 -27.492732465474049 2.0987283746675161 0 0.71933979245794832 0.69465837861970381 I I #
point $-1 3.8162356627496781 -18.752771400828845 10.538810858663696 #
point $-1 18.601202225018582 -27.492732465474049 2.0987283746675161 #
straight-curve $-1 0 -27.492732465474049 10.538810858663696 1 0 0 I I #
vertex $-1 $674 $886 #
point $-1 9.0405118233979422 -20.383550303930132 3.4822433584208241 #
vertex $-1 $678 $887 #
point $-1 15.376926064370316 -20.383550303930132 3.4822433584208241 #
edge $-1 $827 29.251766089874643 $830 37.691848573870821 $683 $888 forward 7 unknown #
vertex $-1 $697 $889 #
straight-curve $-1 28.028246462882038 -51.158321368018363 10.538810858663695 0 -1 0 I I #
edge $-1 $830 10.317881590873792 $694 25.102848153142698 $693 $890 forward 7 unknown #
vertex $-1 $829 $891 #
straight-curve $-1 28.028246462882038 -27.492732465474049 2.0987283746675161 0 0.71933979245794832 0.69465837861970381 I I #
point $-1 28.028246462882038 -18.752771400828845 10.538810858663696 #
point $-1 42.813213025150944 -27.492732465474049 2.0987283746675161 #
straight-curve $-1 0 -27.492732465474049 10.538810858663696 1 0 0 I I #
vertex $-1 $700 $892 #
point $-1 33.252522623530304 -20.383550303930132 3.4822433584208241 #
vertex $-1 $704 $893 #
point $-1 39.588936864502678 -20.383550303930132 3.4822433584208241 #
edge $-1 $840 44.197793439602457 $843 48.97303879576716 $709 $894 forward 7 unknown #
vertex $-1 $723 $895 #
straight-curve $-1 -30.512275271578524 44.850445932969471 10.538810858663695 0 1 0 I I #
edge $-1 $843 11.883330465914813 $720 25.374559145412608 $719 $896 forward 7 unknown #
vertex $-1 $842 $897 #
straight-curve $-1 -30.512275271578524 -1.6451239569262128 52.393884789204606 0 -0.52991925155115449 0.84804810408105047 I I #
point $-1 -30.512275271578524 24.508828093853545 10.538810858663695 #
point $-1 -44.003503951076318 27.492732465474049 5.7635655024989916 #
straight-curve $-1 0 27.492732465474049 10.538810858663696 -1 0 0 I I #
vertex $-1 $726 $898 #
point $-1 -39.148867185505523 24.583372446535865 7.2654934959763802 #
vertex $-1 $730 $899 #
point $-1 -33.366912037149319 24.583372446535865 7.2654934959763802 #
straight-curve $-1 -53.856624042481762 27.492732465474049 0 0 0 -1 I I #
point $-1 -53.856624042481762 -27.492732465474049 -10.538810858663696 #
straight-curve $-1 -53.856624042481762 0 -10.538810858663696 0 1 0 I I #
point $-1 -53.856624042481762 27.492732465474049 -10.538810858663696 #
coedge $-1 $752 $751 $757 $859 reversed $380 $-1 #
vertex $-1 $764 $900 #
straight-curve $-1 0 -27.492732465474049 10.538810858663696 1 0 0 I I #
edge $-1 $857 -10.538810858663696 $860 10.538810858663696 $856 $901 forward 7 unknown #
vertex $-1 $762 $902 #
straight-curve $-1 0 -27.492732465474049 -10.538810858663696 -1 0 0 I I #
straight-curve $-1 -53.856624042481762 0 -10.538810858663696 0 1 0 I I #
straight-curve $-1 -53.856624042481762 0 10.538810858663696 0 -1 0 I I #
straight-curve $-1 24.694011431095593 -6.4151107481466552 -10.538810858663696 1 0 0 I I #
straight-curve $-1 24.694011431095593 -6.4151107481466552 10.538810858663696 -1 0 0 I I #
point $-1 53.856624042481769 -6.4151107481466552 -10.538810858663696 #
point $-1 53.856624042481769 -6.4151107481466552 10.538810858663696 #
straight-curve $-1 53.856624042481762 0 -10.538810858663696 0 -1 0 I I #
straight-curve $-1 53.856624042481762 0 10.538810858663696 0 1 0 I I #
straight-curve $-1 -44.607785937515047 -27.492732465474049 39.790576948538337 0 0 -1 I I #
point $-1 -44.607785937515047 -27.492732465474049 10.538810858663696 #
straight-curve $-1 -18.607651328190297 -27.492732465474049 2.0987283746675161 1 0 0 I I #
point $-1 -44.607785937515047 -27.492732465474049 2.0987283746675161 #
point $-1 -40.383509776866788 -19.688891925310426 2.7629035659628762 #
point $-1 -34.0470955358944 -19.688891925310426 2.7629035659628762 #
straight-curve $-1 -20.395775137382685 -27.492732465474049 39.790576948538337 0 0 -1 I I #
point $-1 -20.395775137382685 -27.492732465474049 10.538810858663696 #
straight-curve $-1 -6.5016459281241161 -27.492732465474049 2.0987283746675161 1 0 0 I I #
point $-1 -20.395775137382685 -27.492732465474049 2.0987283746675161 #
point $-1 -16.171498976734419 -19.688891925310426 2.7629035659628762 #
point $-1 -9.8350847357620381 -19.688891925310426 2.7629035659628762 #
straight-curve $-1 3.8162356627496781 -27.492732465474049 39.790576948538337 0 0 -1 I I #
point $-1 3.8162356627496781 -27.492732465474049 10.538810858663696 #
straight-curve $-1 5.6043594719420646 -27.492732465474049 2.0987283746675161 1 0 0 I I #
point $-1 3.8162356627496781 -27.492732465474049 2.0987283746675161 #
point $-1 8.0405118233979422 -19.688891925310426 2.7629035659628762 #
point $-1 14.376926064370316 -19.688891925310426 2.7629035659628762 #
straight-curve $-1 28.028246462882038 -27.492732465474049 39.790576948538337 0 0 -1 I I #
point $-1 28.028246462882038 -27.492732465474049 10.538810858663696 #
straight-curve $-1 17.710364872008245 -27.492732465474049 2.0987283746675161 1 0 0 I I #
point $-1 28.028246462882038 -27.492732465474049 2.0987283746675161 #
point $-1 32.252522623530304 -19.688891925310426 2.7629035659628762 #
point $-1 38.588936864502678 -19.688891925310426 2.7629035659628762 #
straight-curve $-1 -30.512275271578524 27.492732465474049 54.736604298266151 0 0 -1 I I #
point $-1 -30.512275271578524 27.492732465474049 10.538810858663696 #
straight-curve $-1 -18.628944805663711 27.492732465474049 5.7635655024989987 -1 0 0 I I #
point $-1 -30.512275271578524 27.492732465474049 5.7635655024989916 #
point $-1 -40.148867185505523 23.735324342454813 6.7355742444252256 #
point $-1 -34.366912037149319 23.735324342454813 6.7355742444252256 #
point $-1 -53.856624042481762 -27.492732465474049 10.538810858663696 #
straight-curve $-1 -53.856624042481762 -27.492732465474049 0 0 0 -1 I I #
point $-1 -53.856624042481762 -27.492732465474049 -10.538810858663696 #
End-of-ACIS-data 