500 0 10 0           
7 Unknown 11 ACIS 5.0 NT 24 Fri Mar 26 20:17:54 1999 
-1 9.9999999999999995e-007 1e-010 
body $-1 $10 $-1 $11 #
body $-1 $12 $-1 $13 #
body $-1 $14 $-1 $15 #
body $-1 $16 $-1 $17 #
body $-1 $18 $-1 $19 #
body $-1 $20 $-1 $21 #
body $-1 $22 $-1 $23 #
body $-1 $24 $-1 $25 #
body $-1 $26 $-1 $27 #
body $-1 $28 $-1 $29 #
lump $-1 $-1 $30 $0 #
transform $-1 1 0 0 0 1 0 0 0 1 49.088412121951961 21.936004959125999 8.2235750882871113 1 rotate no_reflect no_shear #
lump $-1 $-1 $31 $1 #
transform $-1 1 0 0 0 1 0 0 0 1 49.088412121951961 21.936004959125999 8.2235750882871113 1 rotate no_reflect no_shear #
lump $-1 $-1 $32 $2 #
transform $-1 1 0 0 0 1 0 0 0 1 49.088412121951961 21.936004959125999 8.2235750882871113 1 rotate no_reflect no_shear #
lump $-1 $-1 $33 $3 #
transform $-1 1 0 0 0 1 0 0 0 1 49.088412121951961 21.936004959125999 8.2235750882871113 1 rotate no_reflect no_shear #
lump $-1 $-1 $34 $4 #
transform $-1 1 0 0 0 1 0 0 0 1 49.088412121951961 21.936004959125999 8.2235750882871113 1 rotate no_reflect no_shear #
lump $-1 $-1 $35 $5 #
transform $-1 1 0 0 0 1 0 0 0 1 49.088412121951961 21.936004959125999 8.2235750882871113 1 rotate no_reflect no_shear #
lump $-1 $-1 $36 $6 #
transform $-1 1 0 0 0 1 0 0 0 1 49.088412121951961 21.936004959125999 8.2235750882871113 1 rotate no_reflect no_shear #
lump $-1 $-1 $37 $7 #
transform $-1 1 0 0 0 1 0 0 0 1 49.088412121951961 21.936004959125999 8.2235750882871113 1 rotate no_reflect no_shear #
lump $-1 $-1 $38 $8 #
transform $-1 1 0 0 0 1 0 0 0 1 49.088412121951961 21.936004959125999 8.2235750882871113 1 rotate no_reflect no_shear #
lump $-1 $-1 $39 $9 #
transform $-1 1 0 0 0 1 0 0 0 1 49.088412121951961 21.936004959125999 8.2235750882871113 1 rotate no_reflect no_shear #
shell $-1 $-1 $-1 $40 $-1 $10 #
shell $-1 $-1 $-1 $41 $-1 $12 #
shell $-1 $-1 $-1 $42 $-1 $14 #
shell $-1 $-1 $-1 $43 $-1 $16 #
shell $-1 $-1 $-1 $44 $-1 $18 #
shell $-1 $-1 $-1 $45 $-1 $20 #
shell $-1 $-1 $-1 $46 $-1 $22 #
shell $-1 $-1 $-1 $47 $-1 $24 #
shell $-1 $-1 $-1 $48 $-1 $26 #
shell $-1 $-1 $-1 $49 $-1 $28 #
face $-1 $50 $51 $30 $-1 $52 forward single #
face $-1 $53 $54 $31 $-1 $55 forward single #
face $-1 $56 $57 $32 $-1 $58 reversed single #
face $-1 $59 $60 $33 $-1 $61 forward single #
face $-1 $62 $63 $34 $-1 $64 forward single #
face $-1 $65 $66 $35 $-1 $67 forward single #
face $-1 $68 $69 $36 $-1 $70 reversed single #
face $-1 $71 $72 $37 $-1 $73 forward single #
face $-1 $74 $75 $38 $-1 $76 forward single #
face $-1 $77 $78 $39 $-1 $79 forward single #
face $-1 $80 $81 $30 $-1 $82 reversed single #
loop $-1 $-1 $83 $40 #
plane-surface $-1 0 0 8.2235750882871113 0 0 1 1 0 0 forward_v I I I I #
face $-1 $84 $85 $31 $-1 $86 reversed single #
loop $-1 $-1 $87 $41 #
plane-surface $-1 0 -17.456243361988683 -5.2235750882871113 0 0 1 1 0 0 forward_v I I I I #
face $-1 $88 $89 $32 $-1 $90 reversed single #
loop $-1 $-1 $91 $42 #
plane-surface $-1 -127.49591103420583 -12.976481764851364 62.884279340504285 0 1 0 -0.79863551827123203 0 0.60181501223851219 forward_v I I I I #
face $-1 $92 $93 $33 $-1 $94 forward single #
loop $-1 $95 $96 $43 #
cone-surface $-1 -46.329144231453583 -10.894320817364907 5.1884780877893064 0.79863551827123203 0 -0.60181501223851219 0.60181501223851219 0 0.79863551827123203 1 I I 0 1 1 forward I I I I #
face $-1 $97 $98 $34 $-1 $99 forward single #
loop $-1 $100 $101 $44 #
cone-surface $-1 -46.329144231453583 -7.7710793961352191 5.1884780877893064 0.79863551827123203 0 -0.60181501223851219 0.60181501223851219 0 0.79863551827123203 1 I I 0 1 1 forward I I I I #
face $-1 $102 $103 $35 $-1 $104 forward single #
loop $-1 $105 $106 $45 #
cone-surface $-1 -46.329144231453583 -4.6478379749055314 5.1884780877893064 0.79863551827123203 0 -0.60181501223851219 0.60181501223851219 0 0.79863551827123203 1 I I 0 1 1 forward I I I I #
face $-1 $107 $108 $36 $-1 $109 reversed single #
loop $-1 $-1 $110 $46 #
plane-surface $-1 68.411624350322526 -2.5656770274190741 141.29177825275815 0 -1 0 -0.79863551827123203 0 -0.60181501223851219 forward_v I I I I #
face $-1 $111 $112 $37 $-1 $113 forward single #
loop $-1 $114 $115 $47 #
cone-surface $-1 46.329144231453583 -10.894320817364907 5.1884780877893029 -0.79863551827123203 0 -0.60181501223851219 0.60181501223851219 0 -0.79863551827123203 1 I I 0 1 1 forward I I I I #
face $-1 $116 $117 $38 $-1 $118 forward single #
loop $-1 $119 $120 $48 #
cone-surface $-1 46.329144231453583 -7.7710793961352191 5.1884780877893029 -0.79863551827123203 0 -0.60181501223851219 0.60181501223851219 0 -0.79863551827123203 1 I I 0 1 1 forward I I I I #
face $-1 $121 $122 $39 $-1 $123 forward single #
loop $-1 $124 $125 $49 #
cone-surface $-1 46.329144231453583 -4.6478379749055314 5.1884780877893029 -0.79863551827123203 0 -0.60181501223851219 0.60181501223851219 0 -0.79863551827123203 1 I I 0 1 1 forward I I I I #
face $-1 $126 $127 $30 $-1 $128 reversed single #
loop $-1 $-1 $129 $50 #
plane-surface $-1 0 0 -8.2235750882871113 0 0 1 1 0 0 forward_v I I I I #
coedge $-1 $130 $131 $132 $133 forward $51 $-1 #
face $-1 $134 $135 $31 $-1 $136 reversed single #
loop $-1 $-1 $137 $53 #
plane-surface $-1 0 -12.976481764851366 -6.7235750882871113 0 -1 0 0 0 -1 forward_v I I I I #
coedge $-1 $138 $139 $140 $141 reversed $54 $-1 #
face $-1 $142 $143 $32 $-1 $144 reversed single #
loop $-1 $-1 $145 $56 #
plane-surface $-1 -49.088412121951961 -7.7710793961352191 3.7999926566209865 -0.79863551827123203 0 0.60181501223851219 0.60181501223851219 0 0.79863551827123203 forward_v I I I I #
coedge $-1 $146 $147 $148 $149 reversed $57 $-1 #
face $-1 $-1 $150 $33 $-1 $151 forward single #
loop $-1 $152 $153 $59 #
cone-surface $-1 -44.837262763104874 -10.894320817364907 4.0642647970053059 0.79863551827123203 0 -0.60181501223851219 0.3009075061192561 0 0.39931775913561601 1 I I -0.70710678118654746 0.70710678118654746 0.5 forward I I I I #
loop $-1 $-1 $154 $43 #
coedge $-1 $96 $96 $155 $156 reversed $60 $-1 #
face $-1 $-1 $157 $34 $-1 $158 forward single #
loop $-1 $159 $160 $62 #
cone-surface $-1 -44.837262763104874 -7.7710793961352191 4.0642647970053059 0.79863551827123203 0 -0.60181501223851219 0.3009075061192561 0 0.39931775913561601 1 I I -0.70710678118654746 0.70710678118654746 0.5 forward I I I I #
loop $-1 $-1 $161 $44 #
coedge $-1 $101 $101 $162 $163 reversed $63 $-1 #
face $-1 $-1 $164 $35 $-1 $165 forward single #
loop $-1 $166 $167 $65 #
cone-surface $-1 -44.837262763104874 -4.6478379749055314 4.0642647970053059 0.79863551827123203 0 -0.60181501223851219 0.3009075061192561 0 0.39931775913561601 1 I I -0.70710678118654746 0.70710678118654746 0.5 forward I I I I #
loop $-1 $-1 $168 $45 #
coedge $-1 $106 $106 $169 $170 reversed $66 $-1 #
face $-1 $171 $172 $36 $-1 $173 reversed single #
loop $-1 $-1 $174 $68 #
plane-surface $-1 -9.9958745619313447 -7.7710793961352191 82.207491568874843 0.79863551827123203 0 0.60181501223851219 0.60181501223851219 0 -0.79863551827123203 forward_v I I I I #
coedge $-1 $175 $176 $177 $178 reversed $69 $-1 #
face $-1 $-1 $179 $37 $-1 $180 forward single #
loop $-1 $181 $182 $71 #
cone-surface $-1 44.837262763104874 -10.894320817364907 4.0642647970053023 -0.79863551827123203 0 -0.60181501223851219 0.3009075061192561 0 -0.39931775913561601 1 I I -0.70710678118654746 0.70710678118654746 0.5 forward I I I I #
loop $-1 $-1 $183 $47 #
coedge $-1 $115 $115 $184 $185 reversed $72 $-1 #
face $-1 $-1 $186 $38 $-1 $187 forward single #
loop $-1 $188 $189 $74 #
cone-surface $-1 44.837262763104874 -7.7710793961352191 4.0642647970053023 -0.79863551827123203 0 -0.60181501223851219 0.3009075061192561 0 -0.39931775913561601 1 I I -0.70710678118654746 0.70710678118654746 0.5 forward I I I I #
loop $-1 $-1 $190 $48 #
coedge $-1 $120 $120 $191 $192 reversed $75 $-1 #
face $-1 $-1 $193 $39 $-1 $194 forward single #
loop $-1 $195 $196 $77 #
cone-surface $-1 44.837262763104874 -4.6478379749055314 4.0642647970053023 -0.79863551827123203 0 -0.60181501223851219 0.3009075061192561 0 -0.39931775913561601 1 I I -0.70710678118654746 0.70710678118654746 0.5 forward I I I I #
loop $-1 $-1 $197 $49 #
coedge $-1 $125 $125 $198 $199 reversed $78 $-1 #
face $-1 $200 $201 $30 $-1 $202 reversed single #
loop $-1 $-1 $203 $80 #
plane-surface $-1 0 -21.936004959125999 0 0 1 0 0 0 1 forward_v I I I I #
coedge $-1 $204 $205 $206 $207 forward $81 $-1 #
coedge $-1 $208 $83 $209 $210 forward $51 $-1 #
coedge $-1 $83 $208 $211 $212 forward $51 $-1 #
coedge $-1 $213 $214 $83 $133 reversed $215 $-1 #
edge $-1 $216 -21.936004959125999 $217 21.936004959125999 $132 $218 forward 7 unknown #
face $-1 $219 $220 $31 $-1 $221 reversed single #
loop $-1 $-1 $222 $84 #
plane-surface $-1 0 0 -8.2235750882871113 0 0 1 1 0 0 forward_v I I I I #
coedge $-1 $223 $224 $225 $226 reversed $85 $-1 #
coedge $-1 $227 $87 $224 $228 forward $54 $-1 #
coedge $-1 $87 $227 $229 $230 reversed $54 $-1 #
coedge $-1 $231 $225 $87 $141 forward $220 $-1 #
edge $-1 $232 4.2483600838570243 $233 13.207883278131661 $140 $234 forward 7 unknown #
face $-1 $235 $236 $32 $-1 $237 forward single #
loop $-1 $-1 $238 $88 #
plane-surface $-1 -127.49591103420583 -2.5656770274190741 62.884279340504285 0 -1 0 0.79863551827123203 0 -0.60181501223851219 forward_v I I I I #
coedge $-1 $239 $240 $241 $242 reversed $89 $-1 #
coedge $-1 $147 $91 $243 $244 reversed $57 $-1 #
coedge $-1 $91 $146 $239 $245 reversed $57 $-1 #
coedge $-1 $241 $246 $91 $149 forward $236 $-1 #
edge $-1 $247 14.659543395150955 $248 17.992951757721535 $148 $249 forward 7 unknown #
loop $-1 $-1 $155 $92 #
plane-surface $-1 -49.088412121951961 -7.7710793961352191 3.7999926566209865 -0.79863551827123203 0 0.60181501223851219 0.60181501223851219 0 0.79863551827123203 forward_v I I I I #
loop $-1 $-1 $250 $59 #
coedge $-1 $153 $153 $154 $251 reversed $93 $-1 #
coedge $-1 $154 $154 $153 $251 forward $95 $-1 #
coedge $-1 $155 $155 $96 $156 forward $150 $-1 #
edge $-1 $252 0 $252 6.2831853071796004 $155 $253 forward 7 unknown #
loop $-1 $-1 $162 $97 #
plane-surface $-1 -49.088412121951961 -7.7710793961352191 3.7999926566209865 -0.79863551827123203 0 0.60181501223851219 0.60181501223851219 0 0.79863551827123203 forward_v I I I I #
loop $-1 $-1 $254 $62 #
coedge $-1 $160 $160 $161 $255 reversed $98 $-1 #
coedge $-1 $161 $161 $160 $255 forward $100 $-1 #
coedge $-1 $162 $162 $101 $163 forward $157 $-1 #
edge $-1 $256 0 $256 6.2831853071796004 $162 $257 forward 7 unknown #
loop $-1 $-1 $169 $102 #
plane-surface $-1 -49.088412121951961 -7.7710793961352191 3.7999926566209865 -0.79863551827123203 0 0.60181501223851219 0.60181501223851219 0 0.79863551827123203 forward_v I I I I #
loop $-1 $-1 $258 $65 #
coedge $-1 $167 $167 $168 $259 reversed $103 $-1 #
coedge $-1 $168 $168 $167 $259 forward $105 $-1 #
coedge $-1 $169 $169 $106 $170 forward $164 $-1 #
edge $-1 $260 0 $260 6.2831853071796004 $169 $261 forward 7 unknown #
face $-1 $262 $263 $36 $-1 $264 reversed single #
loop $-1 $-1 $265 $107 #
plane-surface $-1 68.411624350322526 -12.976481764851364 141.29177825275815 0 1 0 0.79863551827123203 0 0.60181501223851219 forward_v I I I I #
coedge $-1 $266 $267 $268 $269 reversed $108 $-1 #
coedge $-1 $176 $110 $270 $271 reversed $69 $-1 #
coedge $-1 $110 $175 $266 $272 reversed $69 $-1 #
coedge $-1 $268 $273 $110 $178 forward $274 $-1 #
edge $-1 $275 -14.882599946790698 $276 -11.549191584220104 $177 $277 forward 7 unknown #
loop $-1 $-1 $184 $111 #
plane-surface $-1 -9.9958745619313447 -7.7710793961352191 82.207491568874843 0.79863551827123203 0 0.60181501223851219 0.60181501223851219 0 -0.79863551827123203 forward_v I I I I #
loop $-1 $-1 $278 $71 #
coedge $-1 $182 $182 $183 $279 reversed $112 $-1 #
coedge $-1 $183 $183 $182 $279 forward $114 $-1 #
coedge $-1 $184 $184 $115 $185 forward $179 $-1 #
edge $-1 $280 0 $280 6.2831853071796004 $184 $281 forward 7 unknown #
loop $-1 $-1 $191 $116 #
plane-surface $-1 -9.9958745619313447 -7.7710793961352191 82.207491568874843 0.79863551827123203 0 0.60181501223851219 0.60181501223851219 0 -0.79863551827123203 forward_v I I I I #
loop $-1 $-1 $282 $74 #
coedge $-1 $189 $189 $190 $283 reversed $117 $-1 #
coedge $-1 $190 $190 $189 $283 forward $119 $-1 #
coedge $-1 $191 $191 $120 $192 forward $186 $-1 #
edge $-1 $284 0 $284 6.2831853071796004 $191 $285 forward 7 unknown #
loop $-1 $-1 $198 $121 #
plane-surface $-1 -9.9958745619313447 -7.7710793961352191 82.207491568874843 0.79863551827123203 0 0.60181501223851219 0.60181501223851219 0 -0.79863551827123203 forward_v I I I I #
loop $-1 $-1 $286 $77 #
coedge $-1 $196 $196 $197 $287 reversed $122 $-1 #
coedge $-1 $197 $197 $196 $287 forward $124 $-1 #
coedge $-1 $198 $198 $125 $199 forward $193 $-1 #
edge $-1 $288 0 $288 6.2831853071796004 $198 $289 forward 7 unknown #
face $-1 $290 $291 $30 $-1 $292 reversed single #
loop $-1 $-1 $293 $126 #
plane-surface $-1 -49.088412121951961 0 0 1 0 0 0 0 -1 forward_v I I I I #
coedge $-1 $294 $211 $295 $296 forward $127 $-1 #
coedge $-1 $297 $129 $294 $298 forward $81 $-1 #
coedge $-1 $129 $297 $299 $300 forward $81 $-1 #
coedge $-1 $214 $213 $129 $207 reversed $215 $-1 #
edge $-1 $301 -21.936004959125999 $302 21.936004959125999 $206 $303 forward 7 unknown #
coedge $-1 $131 $130 $304 $305 forward $51 $-1 #
coedge $-1 $306 $307 $130 $210 reversed $291 $-1 #
edge $-1 $217 -49.088412121951961 $308 49.088412121951961 $209 $309 forward 7 unknown #
coedge $-1 $203 $310 $131 $212 reversed $127 $-1 #
edge $-1 $311 -49.088412121951961 $216 49.088412121951961 $211 $312 forward 7 unknown #
coedge $-1 $206 $132 $310 $313 forward $215 $-1 #
coedge $-1 $132 $206 $306 $314 reversed $215 $-1 #
loop $-1 $-1 $213 $290 #
vertex $-1 $133 $315 #
vertex $-1 $133 $316 #
straight-curve $-1 49.088412121951961 0 8.2235750882871113 0 1 0 I I #
face $-1 $317 $318 $31 $-1 $319 reversed single #
loop $-1 $-1 $225 $134 #
plane-surface $-1 49.088412121951961 0 0 -1 0 0 0 0 1 forward_v I I I I #
coedge $-1 $320 $321 $223 $322 forward $135 $-1 #
coedge $-1 $323 $137 $222 $322 reversed $85 $-1 #
coedge $-1 $137 $323 $138 $228 reversed $85 $-1 #
coedge $-1 $140 $324 $137 $226 forward $220 $-1 #
edge $-1 $325 -4.8617875441435556 $232 -1.8617875441435556 $225 $326 forward 7 unknown #
coedge $-1 $139 $138 $327 $328 reversed $54 $-1 #
edge $-1 $232 -49.088412121951961 $329 49.088412121951961 $224 $330 forward 7 unknown #
coedge $-1 $331 $332 $139 $230 forward $318 $-1 #
edge $-1 $233 -49.088412121951961 $333 49.088412121951961 $229 $334 forward 7 unknown #
coedge $-1 $324 $140 $332 $335 forward $220 $-1 #
vertex $-1 $141 $336 #
vertex $-1 $335 $337 #
straight-curve $-1 49.088412121951961 -8.7281216809943416 -5.2235750882871113 0 -1 0 I I #
face $-1 $-1 $338 $32 $-1 $339 reversed single #
loop $-1 $-1 $148 $142 #
plane-surface $-1 0 0 8.2235750882871113 0 0 1 1 0 0 forward_v I I I I #
coedge $-1 $340 $341 $342 $343 reversed $143 $-1 #
coedge $-1 $344 $145 $147 $245 forward $89 $-1 #
coedge $-1 $145 $344 $340 $345 forward $89 $-1 #
coedge $-1 $342 $148 $145 $242 forward $236 $-1 #
edge $-1 $248 -9.0909420667837537 $346 1.3198626706485355 $241 $347 forward 7 unknown #
coedge $-1 $348 $349 $146 $244 forward $338 $-1 #
edge $-1 $350 -27.642147013631156 $247 -23.218564581965033 $243 $351 forward 7 unknown #
edge $-1 $248 -5.5389252424455648 $350 0 $147 $352 forward 7 unknown #
coedge $-1 $148 $342 $348 $353 forward $236 $-1 #
vertex $-1 $244 $354 #
vertex $-1 $149 $355 #
straight-curve $-1 -63.747955517102916 -12.976481764851364 8.223575088287113 1 0 0 I I #
coedge $-1 $250 $250 $-1 $356 reversed $152 $-1 #
edge $-1 $357 0 $357 6.2831853071796004 $153 $358 forward 7 unknown #
vertex $-1 $156 $359 #
ellipse-curve $-1 -47.421707940666671 -10.894320817364907 6.0117838724540471 -0.79863551827123203 0 0.60181501223851219 0.60181501223851219 0 0.79863551827123203 1 I I #
coedge $-1 $254 $254 $-1 $360 reversed $159 $-1 #
edge $-1 $361 0 $361 6.2831853071796004 $160 $362 forward 7 unknown #
vertex $-1 $163 $363 #
ellipse-curve $-1 -47.421707940666671 -7.7710793961352191 6.0117838724540471 -0.79863551827123203 0 0.60181501223851219 0.60181501223851219 0 0.79863551827123203 1 I I #
coedge $-1 $258 $258 $-1 $364 reversed $166 $-1 #
edge $-1 $365 0 $365 6.2831853071796004 $167 $366 forward 7 unknown #
vertex $-1 $170 $367 #
ellipse-curve $-1 -47.421707940666671 -4.6478379749055314 6.0117838724540471 -0.79863551827123203 0 0.60181501223851219 0.60181501223851219 0 0.79863551827123203 1 I I #
face $-1 $-1 $274 $36 $-1 $368 forward single #
loop $-1 $-1 $369 $171 #
plane-surface $-1 49.088412121951961 0 0 -1 0 0 0 0 1 forward_v I I I I #
coedge $-1 $370 $371 $372 $373 reversed $172 $-1 #
coedge $-1 $374 $174 $176 $272 forward $108 $-1 #
coedge $-1 $174 $374 $370 $375 forward $108 $-1 #
coedge $-1 $372 $177 $174 $269 forward $274 $-1 #
edge $-1 $276 -1.3198626706485355 $376 9.0909420667837537 $268 $377 forward 7 unknown #
coedge $-1 $378 $379 $175 $271 forward $263 $-1 #
edge $-1 $380 -66.845896469758102 $275 -62.422314038091962 $270 $381 forward 7 unknown #
edge $-1 $276 92.637899001458351 $380 98.176824243903923 $176 $382 forward 7 unknown #
coedge $-1 $177 $372 $378 $383 forward $274 $-1 #
loop $-1 $-1 $372 $262 #
vertex $-1 $271 $384 #
vertex $-1 $178 $385 #
straight-curve $-1 34.205812175161263 -2.5656770274190741 8.2235750882871059 -1 0 0 I I #
coedge $-1 $278 $278 $-1 $386 reversed $181 $-1 #
edge $-1 $387 0 $387 6.2831853071796004 $182 $388 forward 7 unknown #
vertex $-1 $185 $389 #
ellipse-curve $-1 47.421707940666664 -10.894320817364907 6.0117838724540364 0.79863551827123203 0 0.60181501223851219 0.60181501223851219 0 -0.79863551827123203 1 I I #
coedge $-1 $282 $282 $-1 $390 reversed $188 $-1 #
edge $-1 $391 0 $391 6.2831853071796004 $189 $392 forward 7 unknown #
vertex $-1 $192 $393 #
ellipse-curve $-1 47.421707940666664 -7.7710793961352191 6.0117838724540364 0.79863551827123203 0 0.60181501223851219 0.60181501223851219 0 -0.79863551827123203 1 I I #
coedge $-1 $286 $286 $-1 $394 reversed $195 $-1 #
edge $-1 $395 0 $395 6.2831853071796004 $196 $396 forward 7 unknown #
vertex $-1 $199 $397 #
ellipse-curve $-1 47.421707940666664 -4.6478379749055314 6.0117838724540364 0.79863551827123203 0 0.60181501223851219 0.60181501223851219 0 -0.79863551827123203 1 I I #
face $-1 $-1 $215 $30 $-1 $398 reversed single #
loop $-1 $-1 $306 $200 #
plane-surface $-1 0 21.936004959125999 0 0 -1 0 0 0 -1 forward_v I I I I #
coedge $-1 $399 $304 $307 $400 forward $201 $-1 #
coedge $-1 $310 $203 $204 $298 reversed $127 $-1 #
coedge $-1 $304 $399 $203 $296 reversed $201 $-1 #
edge $-1 $311 -8.2235750882871113 $401 8.2235750882871113 $295 $402 forward 7 unknown #
coedge $-1 $205 $204 $399 $403 forward $81 $-1 #
edge $-1 $302 -49.088412121951961 $401 49.088412121951961 $294 $404 forward 7 unknown #
coedge $-1 $307 $306 $205 $300 reversed $291 $-1 #
edge $-1 $405 -49.088412121951961 $301 49.088412121951961 $299 $406 forward 7 unknown #
vertex $-1 $207 $407 #
vertex $-1 $313 $408 #
straight-curve $-1 49.088412121951961 0 -8.2235750882871113 0 -1 0 I I #
coedge $-1 $293 $295 $208 $305 reversed $201 $-1 #
edge $-1 $308 -21.936004959125999 $311 21.936004959125999 $304 $409 forward 7 unknown #
coedge $-1 $299 $209 $214 $314 forward $291 $-1 #
coedge $-1 $209 $299 $293 $400 reversed $291 $-1 #
vertex $-1 $210 $410 #
straight-curve $-1 0 21.936004959125999 8.2235750882871113 -1 0 0 I I #
coedge $-1 $211 $294 $213 $313 reversed $127 $-1 #
vertex $-1 $305 $411 #
straight-curve $-1 0 -21.936004959125999 8.2235750882871113 1 0 0 I I #
edge $-1 $216 -8.2235750882871113 $302 8.2235750882871113 $213 $412 forward 7 unknown #
edge $-1 $217 -8.2235750882871113 $301 8.2235750882871113 $214 $413 forward 7 unknown #
point $-1 49.088412121951961 -21.936004959125999 8.2235750882871113 #
point $-1 49.088412121951961 21.936004959125999 8.2235750882871113 #
face $-1 $-1 $414 $31 $-1 $415 reversed single #
loop $-1 $-1 $229 $219 #
plane-surface $-1 0 -21.936004959125999 0 0 1 0 0 0 1 forward_v I I I I #
coedge $-1 $416 $222 $324 $417 forward $135 $-1 #
coedge $-1 $222 $416 $418 $419 forward $135 $-1 #
edge $-1 $420 -49.088412121951961 $325 49.088412121951961 $222 $421 forward 7 unknown #
coedge $-1 $224 $223 $422 $423 reversed $85 $-1 #
coedge $-1 $225 $231 $320 $417 reversed $220 $-1 #
vertex $-1 $417 $424 #
straight-curve $-1 49.088412121951961 -12.976481764851366 -3.3617875441435556 0 0 1 I I #
coedge $-1 $422 $425 $227 $328 forward $414 $-1 #
edge $-1 $333 -13.207883278131661 $329 -4.2483600838570243 $327 $426 forward 7 unknown #
vertex $-1 $328 $427 #
straight-curve $-1 0 -12.976481764851366 -5.2235750882871113 -1 0 0 I I #
coedge $-1 $428 $229 $425 $429 forward $318 $-1 #
coedge $-1 $229 $428 $231 $335 reversed $318 $-1 #
vertex $-1 $429 $430 #
straight-curve $-1 0 -21.936004959125999 -5.2235750882871113 -1 0 0 I I #
edge $-1 $233 5.2235750882871113 $431 8.2235750882871113 $231 $432 forward 7 unknown #
point $-1 49.088412121951961 -12.976481764851366 -5.2235750882871113 #
point $-1 49.088412121951961 -21.936004959126002 -5.2235750882871113 #
loop $-1 $-1 $243 $235 #
plane-surface $-1 -49.088412121951961 0 0 1 0 0 0 0 -1 forward_v I I I I #
coedge $-1 $341 $238 $240 $345 reversed $143 $-1 #
coedge $-1 $238 $340 $433 $434 reversed $143 $-1 #
coedge $-1 $246 $241 $238 $343 forward $236 $-1 #
edge $-1 $346 -17.992951757721535 $435 -14.659543395150955 $342 $436 forward 7 unknown #
coedge $-1 $240 $239 $349 $437 reversed $89 $-1 #
edge $-1 $438 0 $346 5.5389252424455648 $340 $439 forward 7 unknown #
vertex $-1 $242 $440 #
straight-curve $-1 -45.755003759381374 -3.8855396980676096 8.223575088287113 0 1 0 I I #
coedge $-1 $433 $243 $246 $353 reversed $338 $-1 #
coedge $-1 $243 $433 $344 $437 forward $338 $-1 #
vertex $-1 $244 $441 #
straight-curve $-1 -49.088412121951961 -12.976481764851364 31.442139670252143 0 0 1 I I #
straight-curve $-1 -49.088412121951961 -12.976481764851364 3.7999926566209865 -0.60181501223851219 0 -0.79863551827123203 I I #
edge $-1 $435 2.5656770274190741 $247 12.976481764851364 $348 $442 forward 7 unknown #
point $-1 -49.088412121951961 -12.976481764851364 8.2235750882871113 #
point $-1 -45.755003759381381 -12.976481764851364 8.2235750882871113 #
edge $-1 $443 1 $443 0 $250 $-1 forward 7 unknown #
vertex $-1 $251 $444 #
ellipse-curve $-1 -45.236580522240487 -10.894320817364907 4.3651723031245622 -0.79863551827123203 0 0.60181501223851219 0.60181501223851219 0 0.79863551827123203 1 I I #
point $-1 -46.81989292842816 -10.894320817364907 6.8104193907252828 #
edge $-1 $445 1 $445 0 $254 $-1 forward 7 unknown #
vertex $-1 $255 $446 #
ellipse-curve $-1 -45.236580522240487 -7.7710793961352191 4.3651723031245622 -0.79863551827123203 0 0.60181501223851219 0.60181501223851219 0 0.79863551827123203 1 I I #
point $-1 -46.81989292842816 -7.7710793961352191 6.8104193907252828 #
edge $-1 $447 1 $447 0 $258 $-1 forward 7 unknown #
vertex $-1 $259 $448 #
ellipse-curve $-1 -45.236580522240487 -4.6478379749055314 4.3651723031245622 -0.79863551827123203 0 0.60181501223851219 0.60181501223851219 0 0.79863551827123203 1 I I #
point $-1 -46.81989292842816 -4.6478379749055314 6.8104193907252828 #
plane-surface $-1 0 0 8.2235750882871113 0 0 1 1 0 0 forward_v I I I I #
coedge $-1 $379 $378 $371 $449 forward $263 $-1 #
coedge $-1 $371 $265 $267 $375 reversed $172 $-1 #
coedge $-1 $265 $370 $369 $449 reversed $172 $-1 #
coedge $-1 $273 $268 $265 $373 forward $274 $-1 #
edge $-1 $376 11.549191584220104 $450 14.882599946790698 $372 $451 forward 7 unknown #
coedge $-1 $267 $266 $379 $452 reversed $108 $-1 #
edge $-1 $453 -98.176824243903923 $376 -92.637899001458351 $370 $454 forward 7 unknown #
vertex $-1 $269 $455 #
straight-curve $-1 45.75500375938136 -3.8855396980676096 8.2235750882871201 0 -1 0 I I #
coedge $-1 $369 $270 $273 $383 reversed $263 $-1 #
coedge $-1 $270 $369 $374 $452 forward $263 $-1 #
vertex $-1 $271 $456 #
straight-curve $-1 49.088412121951961 -2.5656770274190741 70.645889126379075 0 0 1 I I #
straight-curve $-1 -9.9958745619313447 -2.5656770274190741 82.207491568874843 0.60181501223851219 0 -0.79863551827123203 I I #
edge $-1 $450 -12.976481764851364 $275 -2.5656770274190741 $378 $457 forward 7 unknown #
point $-1 49.088412121951961 -2.5656770274190741 8.2235750882871113 #
point $-1 45.755003759381367 -2.5656770274190741 8.2235750882871059 #
edge $-1 $458 1 $458 0 $278 $-1 forward 7 unknown #
vertex $-1 $279 $459 #
ellipse-curve $-1 45.236580522240487 -10.894320817364907 4.3651723031245586 0.79863551827123203 0 0.60181501223851219 0.60181501223851219 0 -0.79863551827123203 1 I I #
point $-1 48.023522952905189 -10.894320817364907 5.213148354182815 #
edge $-1 $460 1 $460 0 $282 $-1 forward 7 unknown #
vertex $-1 $283 $461 #
ellipse-curve $-1 45.236580522240487 -7.7710793961352191 4.3651723031245586 0.79863551827123203 0 0.60181501223851219 0.60181501223851219 0 -0.79863551827123203 1 I I #
point $-1 48.023522952905189 -7.7710793961352191 5.213148354182815 #
edge $-1 $462 1 $462 0 $286 $-1 forward 7 unknown #
vertex $-1 $287 $463 #
ellipse-curve $-1 45.236580522240487 -4.6478379749055314 4.3651723031245586 0.79863551827123203 0 0.60181501223851219 0.60181501223851219 0 -0.79863551827123203 1 I I #
point $-1 48.023522952905189 -4.6478379749055314 5.213148354182815 #
plane-surface $-1 49.088412121951961 0 0 -1 0 0 0 0 1 forward_v I I I I #
coedge $-1 $295 $293 $297 $403 reversed $201 $-1 #
edge $-1 $308 -8.2235750882871113 $405 8.2235750882871113 $307 $464 forward 7 unknown #
vertex $-1 $403 $465 #
straight-curve $-1 -49.088412121951961 -21.936004959125999 0 0 0 -1 I I #
edge $-1 $401 -21.936004959125999 $405 21.936004959125999 $399 $466 forward 7 unknown #
straight-curve $-1 0 -21.936004959125999 -8.2235750882871113 -1 0 0 I I #
vertex $-1 $300 $467 #
straight-curve $-1 0 21.936004959125999 -8.2235750882871113 1 0 0 I I #
point $-1 49.088412121951961 21.936004959125999 -8.2235750882871113 #
point $-1 49.088412121951961 -21.936004959125999 -8.2235750882871113 #
straight-curve $-1 -49.088412121951961 0 8.2235750882871113 0 -1 0 I I #
point $-1 -49.088412121951961 21.936004959125999 8.2235750882871113 #
point $-1 -49.088412121951961 -21.936004959125999 8.2235750882871113 #
straight-curve $-1 49.088412121951961 -21.936004959125999 0 0 0 -1 I I #
straight-curve $-1 49.088412121951961 21.936004959125999 0 0 0 -1 I I #
loop $-1 $-1 $422 $317 #
plane-surface $-1 -49.088412121951961 0 0 1 0 0 0 0 -1 forward_v I I I I #
coedge $-1 $321 $320 $428 $468 forward $135 $-1 #
edge $-1 $325 12.976481764851366 $431 21.936004959125999 $324 $469 forward 7 unknown #
coedge $-1 $425 $422 $321 $419 reversed $414 $-1 #
edge $-1 $470 -21.936004959125999 $420 -12.976481764851366 $418 $471 forward 7 unknown #
vertex $-1 $423 $472 #
straight-curve $-1 0 -12.976481764851366 -8.2235750882871113 1 0 0 I I #
coedge $-1 $418 $327 $323 $423 forward $414 $-1 #
edge $-1 $329 1.8617875441435556 $420 4.8617875441435556 $422 $473 forward 7 unknown #
point $-1 49.088412121951961 -12.976481764851366 -8.2235750882871113 #
coedge $-1 $327 $418 $331 $429 reversed $414 $-1 #
straight-curve $-1 -49.088412121951961 -8.7281216809943416 -5.2235750882871113 0 1 0 I I #
point $-1 -49.088412121951961 -12.976481764851366 -5.2235750882871113 #
coedge $-1 $332 $331 $416 $468 reversed $318 $-1 #
edge $-1 $333 5.2235750882871113 $470 8.2235750882871113 $425 $474 forward 7 unknown #
point $-1 -49.088412121951961 -21.936004959126002 -5.2235750882871113 #
vertex $-1 $335 $475 #
straight-curve $-1 49.088412121951961 -21.936004959125999 0 0 0 -1 I I #
coedge $-1 $349 $348 $341 $434 forward $338 $-1 #
edge $-1 $435 23.218564581965033 $438 27.642147013631156 $433 $476 forward 7 unknown #
vertex $-1 $353 $477 #
straight-curve $-1 -63.747955517102916 -2.5656770274190741 8.223575088287113 -1 0 0 I I #
edge $-1 $438 -1.3198626706485355 $350 9.0909420667837537 $349 $478 forward 7 unknown #
vertex $-1 $437 $479 #
straight-curve $-1 -49.088412121951961 -2.5656770274190741 3.7999926566209865 0.60181501223851219 0 0.79863551827123203 I I #
point $-1 -45.755003759381381 -2.5656770274190741 8.2235750882871113 #
point $-1 -49.088412121951961 -12.976481764851364 3.7999926566209865 #
straight-curve $-1 -49.088412121951961 0 8.2235750882871113 0 -1 0 I I #
vertex $-1 $356 $480 #
point $-1 -44.634765510001976 -10.894320817364907 5.1638078213957943 #
vertex $-1 $360 $481 #
point $-1 -44.634765510001976 -7.7710793961352191 5.1638078213957943 #
vertex $-1 $364 $482 #
point $-1 -44.634765510001976 -4.6478379749055314 5.1638078213957943 #
edge $-1 $450 62.422314038091962 $453 66.845896469758102 $369 $483 forward 7 unknown #
vertex $-1 $383 $484 #
straight-curve $-1 34.205812175161263 -12.976481764851364 8.2235750882871059 1 0 0 I I #
edge $-1 $453 -9.0909420667837537 $380 1.3198626706485355 $379 $485 forward 7 unknown #
vertex $-1 $452 $486 #
straight-curve $-1 -9.9958745619313447 -12.976481764851364 82.207491568874843 -0.60181501223851219 0 0.79863551827123203 I I #
point $-1 45.755003759381367 -12.976481764851364 8.2235750882871059 #
point $-1 49.088412121951961 -2.5656770274190741 3.7999926566209723 #
straight-curve $-1 49.088412121951961 0 8.2235750882871113 0 1 0 I I #
vertex $-1 $386 $487 #
point $-1 45.838395534479005 -10.894320817364907 3.5665367848533265 #
vertex $-1 $390 $488 #
point $-1 45.838395534479005 -7.7710793961352191 3.5665367848533265 #
vertex $-1 $394 $489 #
point $-1 45.838395534479005 -4.6478379749055314 3.5665367848533265 #
straight-curve $-1 -49.088412121951961 21.936004959125999 0 0 0 -1 I I #
point $-1 -49.088412121951961 -21.936004959125999 -8.2235750882871113 #
straight-curve $-1 -49.088412121951961 0 -8.2235750882871113 0 1 0 I I #
point $-1 -49.088412121951961 21.936004959125999 -8.2235750882871113 #
edge $-1 $431 -49.088412121951961 $470 49.088412121951961 $428 $490 forward 7 unknown #
straight-curve $-1 49.088412121951961 0 -8.2235750882871113 0 -1 0 I I #
vertex $-1 $419 $491 #
straight-curve $-1 -49.088412121951961 0 -8.2235750882871113 0 1 0 I I #
point $-1 -49.088412121951961 -12.976481764851366 -8.2235750882871113 #
straight-curve $-1 -49.088412121951961 -12.976481764851366 -3.3617875441435556 0 0 -1 I I #
straight-curve $-1 -49.088412121951961 -21.936004959125999 0 0 0 -1 I I #
point $-1 49.088412121951961 -21.936004959125999 -8.2235750882871113 #
straight-curve $-1 -49.088412121951961 -2.5656770274190741 31.442139670252143 0 0 -1 I I #
point $-1 -49.088412121951961 -2.5656770274190741 8.2235750882871113 #
straight-curve $-1 -49.088412121951961 -3.8855396980676096 3.7999926566209852 0 -1 0 I I #
point $-1 -49.088412121951961 -2.5656770274190741 3.7999926566209865 #
point $-1 -44.437945003969261 -10.894320817364907 3.7633572908860495 #
point $-1 -44.437945003969261 -7.7710793961352191 3.7633572908860495 #
point $-1 -44.437945003969261 -4.6478379749055314 3.7633572908860495 #
straight-curve $-1 49.088412121951961 -12.976481764851364 70.645889126379075 0 0 -1 I I #
point $-1 49.088412121951961 -12.976481764851364 8.2235750882871113 #
straight-curve $-1 49.088412121951961 -3.8855396980676096 3.7999926566209723 0 1 0 I I #
point $-1 49.088412121951961 -12.976481764851364 3.7999926566209723 #
point $-1 44.437945003969261 -10.894320817364907 3.763357290886046 #
point $-1 44.437945003969261 -7.7710793961352191 3.763357290886046 #
point $-1 44.437945003969261 -4.6478379749055314 3.763357290886046 #
straight-curve $-1 0 -21.936004959125999 -8.2235750882871113 -1 0 0 I I #
point $-1 -49.088412121951961 -21.936004959125999 -8.2235750882871113 #
End-of-ACIS-data 