500 0 15 0           
7 Unknown 11 ACIS 5.0 NT 24 Fri Mar 26 00:20:23 1999 
-1 9.9999999999999995e-007 1e-010 
body $-1 $15 $-1 $16 #
body $-1 $17 $-1 $18 #
body $-1 $19 $-1 $20 #
body $-1 $21 $-1 $22 #
body $-1 $23 $-1 $24 #
body $-1 $25 $-1 $26 #
body $-1 $27 $-1 $28 #
body $-1 $29 $-1 $30 #
body $-1 $31 $-1 $32 #
body $-1 $33 $-1 $34 #
body $-1 $35 $-1 $36 #
body $-1 $37 $-1 $38 #
body $-1 $39 $-1 $40 #
body $-1 $41 $-1 $42 #
body $-1 $43 $-1 $44 #
lump $-1 $-1 $45 $0 #
transform $-1 1 0 0 0 1 0 0 0 1 75.53697317423017 38.229541753436266 17.544964412005207 1 rotate no_reflect no_shear #
lump $-1 $-1 $46 $1 #
transform $-1 1 0 0 0 1 0 0 0 1 75.53697317423017 38.229541753436266 17.544964412005207 1 rotate no_reflect no_shear #
lump $-1 $-1 $47 $2 #
transform $-1 1 0 0 0 1 0 0 0 1 75.53697317423017 38.229541753436266 17.544964412005207 1 rotate no_reflect no_shear #
lump $-1 $-1 $48 $3 #
transform $-1 1 0 0 0 1 0 0 0 1 75.53697317423017 38.229541753436266 17.544964412005207 1 rotate no_reflect no_shear #
lump $-1 $-1 $49 $4 #
transform $-1 1 0 0 0 1 0 0 0 1 75.53697317423017 38.229541753436266 17.544964412005207 1 rotate no_reflect no_shear #
lump $-1 $-1 $50 $5 #
transform $-1 1 0 0 0 1 0 0 0 1 75.53697317423017 38.229541753436266 17.544964412005207 1 rotate no_reflect no_shear #
lump $-1 $-1 $51 $6 #
transform $-1 1 0 0 0 1 0 0 0 1 75.53697317423017 38.229541753436266 17.544964412005207 1 rotate no_reflect no_shear #
lump $-1 $-1 $52 $7 #
transform $-1 1 0 0 0 1 0 0 0 1 75.53697317423017 38.229541753436266 17.544964412005207 1 rotate no_reflect no_shear #
lump $-1 $-1 $53 $8 #
transform $-1 1 0 0 0 1 0 0 0 1 75.53697317423017 38.229541753436266 17.544964412005207 1 rotate no_reflect no_shear #
lump $-1 $-1 $54 $9 #
transform $-1 1 0 0 0 1 0 0 0 1 75.53697317423017 38.229541753436266 17.544964412005207 1 rotate no_reflect no_shear #
lump $-1 $-1 $55 $10 #
transform $-1 1 0 0 0 1 0 0 0 1 75.53697317423017 38.229541753436266 17.544964412005207 1 rotate no_reflect no_shear #
lump $-1 $-1 $56 $11 #
transform $-1 1 0 0 0 1 0 0 0 1 75.53697317423017 38.229541753436266 17.544964412005207 1 rotate no_reflect no_shear #
lump $-1 $-1 $57 $12 #
transform $-1 1 0 0 0 1 0 0 0 1 75.53697317423017 38.229541753436266 17.544964412005207 1 rotate no_reflect no_shear #
lump $-1 $-1 $58 $13 #
transform $-1 1 0 0 0 1 0 0 0 1 75.53697317423017 38.229541753436266 17.544964412005207 1 rotate no_reflect no_shear #
lump $-1 $-1 $59 $14 #
transform $-1 1 0 0 0 1 0 0 0 1 75.53697317423017 38.229541753436266 17.544964412005207 1 rotate no_reflect no_shear #
shell $-1 $-1 $-1 $60 $-1 $15 #
shell $-1 $-1 $-1 $61 $-1 $17 #
shell $-1 $-1 $-1 $62 $-1 $19 #
shell $-1 $-1 $-1 $63 $-1 $21 #
shell $-1 $-1 $-1 $64 $-1 $23 #
shell $-1 $-1 $-1 $65 $-1 $25 #
shell $-1 $-1 $-1 $66 $-1 $27 #
shell $-1 $-1 $-1 $67 $-1 $29 #
shell $-1 $-1 $-1 $68 $-1 $31 #
shell $-1 $-1 $-1 $69 $-1 $33 #
shell $-1 $-1 $-1 $70 $-1 $35 #
shell $-1 $-1 $-1 $71 $-1 $37 #
shell $-1 $-1 $-1 $72 $-1 $39 #
shell $-1 $-1 $-1 $73 $-1 $41 #
shell $-1 $-1 $-1 $74 $-1 $43 #
face $-1 $75 $76 $45 $-1 $77 forward single #
face $-1 $78 $79 $46 $-1 $80 forward single #
face $-1 $81 $82 $47 $-1 $83 forward single #
face $-1 $84 $85 $48 $-1 $86 reversed single #
face $-1 $87 $88 $49 $-1 $89 forward single #
face $-1 $90 $91 $50 $-1 $92 forward single #
face $-1 $93 $94 $51 $-1 $95 reversed single #
face $-1 $96 $97 $52 $-1 $98 forward single #
face $-1 $99 $100 $53 $-1 $101 forward single #
face $-1 $102 $103 $54 $-1 $104 reversed single #
face $-1 $105 $106 $55 $-1 $107 forward single #
face $-1 $108 $109 $56 $-1 $110 forward single #
face $-1 $111 $112 $57 $-1 $113 reversed single #
face $-1 $114 $115 $58 $-1 $116 forward single #
face $-1 $117 $118 $59 $-1 $119 forward single #
face $-1 $120 $121 $45 $-1 $122 reversed single #
loop $-1 $-1 $123 $60 #
plane-surface $-1 0 0 17.544964412005207 0 0 1 1 0 0 forward_v I I I I #
face $-1 $124 $125 $46 $-1 $126 reversed single #
loop $-1 $-1 $127 $61 #
plane-surface $-1 -75.53697317423017 0 0 1 0 0 0 0 -1 forward_v I I I I #
face $-1 $128 $129 $47 $-1 $130 reversed single #
loop $-1 $-1 $131 $62 #
plane-surface $-1 69.703844096017079 0 -11.052037154311261 0 0 1 1 0 0 forward_v I I I I #
face $-1 $132 $133 $48 $-1 $134 reversed single #
loop $-1 $-1 $135 $63 #
plane-surface $-1 -38.549876211284726 -157.27743731285508 100.61958034811099 -1 0 0 0 -0.78801076186113728 0.61566146476048833 forward_v I I I I #
face $-1 $136 $137 $49 $-1 $138 forward single #
loop $-1 $139 $140 $64 #
cone-surface $-1 -49.472211414238714 -33.417202870613437 11.849696950127981 0 0.78801076186113728 -0.61566146476048833 1 0 0 1 I I 0 1 1 forward I I I I #
face $-1 $141 $142 $50 $-1 $143 forward single #
loop $-1 $144 $145 $65 #
cone-surface $-1 -42.918810292466318 -33.417202870613437 11.849696950127981 0 0.78801076186113728 -0.61566146476048833 1 0 0 1 I I 0 1 1 forward I I I I #
face $-1 $146 $147 $51 $-1 $148 reversed single #
loop $-1 $-1 $149 $66 #
plane-surface $-1 -6.1617692855143495 -157.27743731285508 100.61958034811099 -1 0 0 0 -0.78801076186113728 0.61566146476048833 forward_v I I I I #
face $-1 $150 $151 $52 $-1 $152 forward single #
loop $-1 $153 $154 $67 #
cone-surface $-1 -17.084104488468341 -33.417202870613437 11.849696950127981 0 0.78801076186113728 -0.61566146476048833 1 0 0 1 I I 0 1 1 forward I I I I #
face $-1 $155 $156 $53 $-1 $157 forward single #
loop $-1 $158 $159 $68 #
cone-surface $-1 -10.53070336669596 -33.417202870613437 11.849696950127981 0 0.78801076186113728 -0.61566146476048833 1 0 0 1 I I 0 1 1 forward I I I I #
face $-1 $160 $161 $54 $-1 $162 reversed single #
loop $-1 $-1 $163 $69 #
plane-surface $-1 26.226337640256009 -157.27743731285508 100.61958034811099 -1 0 0 0 -0.78801076186113728 0.61566146476048833 forward_v I I I I #
face $-1 $164 $165 $55 $-1 $166 forward single #
loop $-1 $167 $168 $70 #
cone-surface $-1 15.304002437302032 -33.417202870613437 11.849696950127981 0 0.78801076186113728 -0.61566146476048833 1 0 0 1 I I 0 1 1 forward I I I I #
face $-1 $169 $170 $56 $-1 $171 forward single #
loop $-1 $172 $173 $71 #
cone-surface $-1 21.857403559074399 -33.417202870613437 11.849696950127981 0 0.78801076186113728 -0.61566146476048833 1 0 0 1 I I 0 1 1 forward I I I I #
face $-1 $174 $175 $57 $-1 $176 reversed single #
loop $-1 $-1 $177 $72 #
plane-surface $-1 58.614444566026364 -157.27743731285508 100.61958034811099 -1 0 0 0 -0.78801076186113728 0.61566146476048833 forward_v I I I I #
face $-1 $178 $179 $58 $-1 $180 forward single #
loop $-1 $181 $182 $73 #
cone-surface $-1 47.69210936307239 -33.417202870613437 11.849696950127981 0 0.78801076186113728 -0.61566146476048833 1 0 0 1 I I 0 1 1 forward I I I I #
face $-1 $183 $184 $59 $-1 $185 forward single #
loop $-1 $186 $187 $74 #
cone-surface $-1 54.245510484844758 -33.417202870613437 11.849696950127981 0 0.78801076186113728 -0.61566146476048833 1 0 0 1 I I 0 1 1 forward I I I I #
face $-1 $188 $189 $45 $-1 $190 reversed single #
loop $-1 $-1 $191 $75 #
plane-surface $-1 0 0 -17.544964412005207 0 0 1 1 0 0 forward_v I I I I #
coedge $-1 $192 $193 $194 $195 forward $76 $-1 #
face $-1 $196 $197 $46 $-1 $198 reversed single #
loop $-1 $-1 $199 $78 #
plane-surface $-1 0 38.229541753436266 0 0 -1 0 0 0 -1 forward_v I I I I #
coedge $-1 $200 $201 $202 $203 forward $79 $-1 #
face $-1 $204 $205 $47 $-1 $206 reversed single #
loop $-1 $-1 $207 $81 #
plane-surface $-1 63.870715017803988 0 -14.298500783158234 1 0 0 0 0 -1 forward_v I I I I #
coedge $-1 $208 $209 $210 $211 reversed $82 $-1 #
face $-1 $212 $213 $48 $-1 $214 reversed single #
loop $-1 $-1 $215 $84 #
plane-surface $-1 -46.195510853352516 -38.22954175343628 7.6091732520704625 0 -0.78801076186113728 0.61566146476048833 1 0 0 forward_v I I I I #
coedge $-1 $216 $217 $218 $219 reversed $85 $-1 #
face $-1 $-1 $220 $49 $-1 $221 forward single #
loop $-1 $222 $223 $87 #
cone-surface $-1 -49.472211414238714 -32.092203910211168 10.814494335837878 0 0.78801076186113728 -0.61566146476048833 0.5 0 0 1 I I -0.70710678118654746 0.70710678118654746 0.5 forward I I I I #
loop $-1 $-1 $224 $64 #
coedge $-1 $140 $140 $225 $226 reversed $88 $-1 #
face $-1 $-1 $227 $50 $-1 $228 forward single #
loop $-1 $229 $230 $90 #
cone-surface $-1 -42.918810292466318 -32.092203910211168 10.814494335837878 0 0.78801076186113728 -0.61566146476048833 0.5 0 0 1 I I -0.70710678118654746 0.70710678118654746 0.5 forward I I I I #
loop $-1 $-1 $231 $65 #
coedge $-1 $145 $145 $232 $233 reversed $91 $-1 #
face $-1 $234 $235 $51 $-1 $236 reversed single #
loop $-1 $-1 $237 $93 #
plane-surface $-1 -13.807403927582143 -38.22954175343628 7.6091732520704625 0 -0.78801076186113728 0.61566146476048833 1 0 0 forward_v I I I I #
coedge $-1 $238 $239 $240 $241 reversed $94 $-1 #
face $-1 $-1 $242 $52 $-1 $243 forward single #
loop $-1 $244 $245 $96 #
cone-surface $-1 -17.084104488468341 -32.092203910211168 10.814494335837878 0 0.78801076186113728 -0.61566146476048833 0.5 0 0 1 I I -0.70710678118654746 0.70710678118654746 0.5 forward I I I I #
loop $-1 $-1 $246 $67 #
coedge $-1 $154 $154 $247 $248 reversed $97 $-1 #
face $-1 $-1 $249 $53 $-1 $250 forward single #
loop $-1 $251 $252 $99 #
cone-surface $-1 -10.53070336669596 -32.092203910211168 10.814494335837878 0 0.78801076186113728 -0.61566146476048833 0.5 0 0 1 I I -0.70710678118654746 0.70710678118654746 0.5 forward I I I I #
loop $-1 $-1 $253 $68 #
coedge $-1 $159 $159 $254 $255 reversed $100 $-1 #
face $-1 $256 $257 $54 $-1 $258 reversed single #
loop $-1 $-1 $259 $102 #
plane-surface $-1 18.580702998188215 -38.22954175343628 7.6091732520704625 0 -0.78801076186113728 0.61566146476048833 1 0 0 forward_v I I I I #
coedge $-1 $260 $261 $262 $263 reversed $103 $-1 #
face $-1 $-1 $264 $55 $-1 $265 forward single #
loop $-1 $266 $267 $105 #
cone-surface $-1 15.304002437302032 -32.092203910211168 10.814494335837878 0 0.78801076186113728 -0.61566146476048833 0.5 0 0 1 I I -0.70710678118654746 0.70710678118654746 0.5 forward I I I I #
loop $-1 $-1 $268 $70 #
coedge $-1 $168 $168 $269 $270 reversed $106 $-1 #
face $-1 $-1 $271 $56 $-1 $272 forward single #
loop $-1 $273 $274 $108 #
cone-surface $-1 21.857403559074399 -32.092203910211168 10.814494335837878 0 0.78801076186113728 -0.61566146476048833 0.5 0 0 1 I I -0.70710678118654746 0.70710678118654746 0.5 forward I I I I #
loop $-1 $-1 $275 $71 #
coedge $-1 $173 $173 $276 $277 reversed $109 $-1 #
face $-1 $278 $279 $57 $-1 $280 reversed single #
loop $-1 $-1 $281 $111 #
plane-surface $-1 50.968809923958574 -38.22954175343628 7.6091732520704625 0 -0.78801076186113728 0.61566146476048833 1 0 0 forward_v I I I I #
coedge $-1 $282 $283 $284 $285 reversed $112 $-1 #
face $-1 $-1 $286 $58 $-1 $287 forward single #
loop $-1 $288 $289 $114 #
cone-surface $-1 47.69210936307239 -32.092203910211168 10.814494335837878 0 0.78801076186113728 -0.61566146476048833 0.5 0 0 1 I I -0.70710678118654746 0.70710678118654746 0.5 forward I I I I #
loop $-1 $-1 $290 $73 #
coedge $-1 $182 $182 $291 $292 reversed $115 $-1 #
face $-1 $-1 $293 $59 $-1 $294 forward single #
loop $-1 $295 $296 $117 #
cone-surface $-1 54.245510484844758 -32.092203910211168 10.814494335837878 0 0.78801076186113728 -0.61566146476048833 0.5 0 0 1 I I -0.70710678118654746 0.70710678118654746 0.5 forward I I I I #
loop $-1 $-1 $297 $74 #
coedge $-1 $187 $187 $298 $299 reversed $118 $-1 #
face $-1 $300 $301 $45 $-1 $302 reversed single #
loop $-1 $-1 $303 $120 #
plane-surface $-1 0 -38.229541753436266 0 0 1 0 0 0 1 forward_v I I I I #
coedge $-1 $304 $305 $306 $307 forward $121 $-1 #
coedge $-1 $308 $123 $309 $310 forward $76 $-1 #
coedge $-1 $123 $308 $311 $312 forward $76 $-1 #
coedge $-1 $313 $314 $123 $195 reversed $315 $-1 #
edge $-1 $316 -38.229541753436266 $317 38.229541753436266 $194 $318 forward 7 unknown #
face $-1 $319 $320 $46 $-1 $321 reversed single #
loop $-1 $-1 $202 $124 #
plane-surface $-1 -83.75675178774631 0 13.176259170831141 0 0 1 1 0 0 forward_v I I I I #
coedge $-1 $322 $323 $200 $324 forward $125 $-1 #
coedge $-1 $325 $127 $199 $324 reversed $79 $-1 #
coedge $-1 $127 $325 $326 $327 reversed $79 $-1 #
coedge $-1 $328 $329 $127 $203 reversed $197 $-1 #
edge $-1 $330 -38.229541753436266 $331 38.229541753436266 $202 $332 forward 7 unknown #
face $-1 $333 $334 $47 $-1 $335 reversed single #
loop $-1 $-1 $336 $128 #
plane-surface $-1 0 -38.229541753436266 0 0 1 0 0 0 1 forward_v I I I I #
coedge $-1 $337 $338 $339 $340 reversed $129 $-1 #
coedge $-1 $341 $131 $342 $343 reversed $82 $-1 #
coedge $-1 $131 $341 $336 $344 reversed $82 $-1 #
coedge $-1 $345 $346 $131 $211 forward $347 $-1 #
edge $-1 $348 -38.229541753436266 $349 38.229541753436266 $210 $350 forward 7 unknown #
face $-1 $351 $352 $48 $-1 $353 forward single #
loop $-1 $-1 $354 $132 #
plane-surface $-1 -53.841145495420307 -157.27743731285508 100.61958034811099 1 0 0 0 0.78801076186113728 -0.61566146476048833 forward_v I I I I #
coedge $-1 $355 $356 $357 $358 reversed $133 $-1 #
coedge $-1 $217 $135 $359 $360 reversed $85 $-1 #
coedge $-1 $135 $216 $355 $361 reversed $85 $-1 #
coedge $-1 $357 $362 $135 $219 forward $352 $-1 #
edge $-1 $363 40.409176902991277 $364 48.171867509693513 $218 $365 forward 7 unknown #
loop $-1 $-1 $225 $136 #
plane-surface $-1 -46.195510853352516 -38.22954175343628 7.6091732520704625 0 -0.78801076186113728 0.61566146476048833 1 0 0 forward_v I I I I #
loop $-1 $-1 $366 $87 #
coedge $-1 $223 $223 $224 $367 reversed $137 $-1 #
coedge $-1 $224 $224 $223 $367 forward $139 $-1 #
coedge $-1 $225 $225 $140 $226 forward $220 $-1 #
edge $-1 $368 1.5749612020238124e-015 $368 6.2831853071796022 $225 $369 forward 7 unknown #
loop $-1 $-1 $232 $141 #
plane-surface $-1 -46.195510853352516 -38.22954175343628 7.6091732520704625 0 -0.78801076186113728 0.61566146476048833 1 0 0 forward_v I I I I #
loop $-1 $-1 $370 $90 #
coedge $-1 $230 $230 $231 $371 reversed $142 $-1 #
coedge $-1 $231 $231 $230 $371 forward $144 $-1 #
coedge $-1 $232 $232 $145 $233 forward $227 $-1 #
edge $-1 $372 1.5749612020238124e-015 $372 6.2831853071796022 $232 $373 forward 7 unknown #
face $-1 $374 $375 $51 $-1 $376 reversed single #
loop $-1 $-1 $377 $146 #
plane-surface $-1 -21.453038569649937 -157.27743731285508 100.61958034811099 1 0 0 0 0.78801076186113728 -0.61566146476048833 forward_v I I I I #
coedge $-1 $378 $379 $380 $381 reversed $147 $-1 #
coedge $-1 $239 $149 $382 $383 reversed $94 $-1 #
coedge $-1 $149 $238 $378 $384 reversed $94 $-1 #
coedge $-1 $380 $385 $149 $241 forward $386 $-1 #
edge $-1 $387 40.409176902991277 $388 48.171867509693513 $240 $389 forward 7 unknown #
loop $-1 $-1 $247 $150 #
plane-surface $-1 -13.807403927582143 -38.22954175343628 7.6091732520704625 0 -0.78801076186113728 0.61566146476048833 1 0 0 forward_v I I I I #
loop $-1 $-1 $390 $96 #
coedge $-1 $245 $245 $246 $391 reversed $151 $-1 #
coedge $-1 $246 $246 $245 $391 forward $153 $-1 #
coedge $-1 $247 $247 $154 $248 forward $242 $-1 #
edge $-1 $392 1.5749612020238124e-015 $392 6.2831853071796022 $247 $393 forward 7 unknown #
loop $-1 $-1 $254 $155 #
plane-surface $-1 -13.807403927582143 -38.22954175343628 7.6091732520704625 0 -0.78801076186113728 0.61566146476048833 1 0 0 forward_v I I I I #
loop $-1 $-1 $394 $99 #
coedge $-1 $252 $252 $253 $395 reversed $156 $-1 #
coedge $-1 $253 $253 $252 $395 forward $158 $-1 #
coedge $-1 $254 $254 $159 $255 forward $249 $-1 #
edge $-1 $396 1.5749612020238124e-015 $396 6.2831853071796022 $254 $397 forward 7 unknown #
face $-1 $398 $399 $54 $-1 $400 reversed single #
loop $-1 $-1 $401 $160 #
plane-surface $-1 10.935068356120421 -157.27743731285508 100.61958034811099 1 0 0 0 0.78801076186113728 -0.61566146476048833 forward_v I I I I #
coedge $-1 $402 $403 $404 $405 reversed $161 $-1 #
coedge $-1 $261 $163 $406 $407 reversed $103 $-1 #
coedge $-1 $163 $260 $402 $408 reversed $103 $-1 #
coedge $-1 $404 $409 $163 $263 forward $410 $-1 #
edge $-1 $411 40.409176902991277 $412 48.171867509693513 $262 $413 forward 7 unknown #
loop $-1 $-1 $269 $164 #
plane-surface $-1 18.580702998188215 -38.22954175343628 7.6091732520704625 0 -0.78801076186113728 0.61566146476048833 1 0 0 forward_v I I I I #
loop $-1 $-1 $414 $105 #
coedge $-1 $267 $267 $268 $415 reversed $165 $-1 #
coedge $-1 $268 $268 $267 $415 forward $167 $-1 #
coedge $-1 $269 $269 $168 $270 forward $264 $-1 #
edge $-1 $416 1.5749612020238124e-015 $416 6.2831853071796022 $269 $417 forward 7 unknown #
loop $-1 $-1 $276 $169 #
plane-surface $-1 18.580702998188215 -38.22954175343628 7.6091732520704625 0 -0.78801076186113728 0.61566146476048833 1 0 0 forward_v I I I I #
loop $-1 $-1 $418 $108 #
coedge $-1 $274 $274 $275 $419 reversed $170 $-1 #
coedge $-1 $275 $275 $274 $419 forward $172 $-1 #
coedge $-1 $276 $276 $173 $277 forward $271 $-1 #
edge $-1 $420 1.5749612020238124e-015 $420 6.2831853071796022 $276 $421 forward 7 unknown #
face $-1 $422 $423 $57 $-1 $424 reversed single #
loop $-1 $-1 $425 $174 #
plane-surface $-1 43.323175281890784 -157.27743731285508 100.61958034811099 1 0 0 0 0.78801076186113728 -0.61566146476048833 forward_v I I I I #
coedge $-1 $426 $427 $428 $429 reversed $175 $-1 #
coedge $-1 $283 $177 $430 $431 reversed $112 $-1 #
coedge $-1 $177 $282 $426 $432 reversed $112 $-1 #
coedge $-1 $428 $433 $177 $285 forward $434 $-1 #
edge $-1 $435 40.409176902991277 $436 48.171867509693513 $284 $437 forward 7 unknown #
loop $-1 $-1 $291 $178 #
plane-surface $-1 50.968809923958574 -38.22954175343628 7.6091732520704625 0 -0.78801076186113728 0.61566146476048833 1 0 0 forward_v I I I I #
loop $-1 $-1 $438 $114 #
coedge $-1 $289 $289 $290 $439 reversed $179 $-1 #
coedge $-1 $290 $290 $289 $439 forward $181 $-1 #
coedge $-1 $291 $291 $182 $292 forward $286 $-1 #
edge $-1 $440 1.5749612020238124e-015 $440 6.2831853071796022 $291 $441 forward 7 unknown #
loop $-1 $-1 $298 $183 #
plane-surface $-1 50.968809923958574 -38.22954175343628 7.6091732520704625 0 -0.78801076186113728 0.61566146476048833 1 0 0 forward_v I I I I #
loop $-1 $-1 $442 $117 #
coedge $-1 $296 $296 $297 $443 reversed $184 $-1 #
coedge $-1 $297 $297 $296 $443 forward $186 $-1 #
coedge $-1 $298 $298 $187 $299 forward $293 $-1 #
edge $-1 $444 1.5749612020238124e-015 $444 6.2831853071796022 $298 $445 forward 7 unknown #
face $-1 $446 $447 $45 $-1 $448 reversed single #
loop $-1 $-1 $449 $188 #
plane-surface $-1 -75.53697317423017 0 0 1 0 0 0 0 -1 forward_v I I I I #
coedge $-1 $450 $311 $451 $452 forward $189 $-1 #
coedge $-1 $453 $191 $450 $454 forward $121 $-1 #
coedge $-1 $191 $453 $455 $456 forward $121 $-1 #
coedge $-1 $314 $313 $191 $307 reversed $315 $-1 #
edge $-1 $457 -38.229541753436266 $458 38.229541753436266 $306 $459 forward 7 unknown #
coedge $-1 $193 $192 $460 $461 forward $76 $-1 #
coedge $-1 $462 $463 $192 $310 reversed $447 $-1 #
edge $-1 $317 -75.53697317423017 $464 75.53697317423017 $309 $465 forward 7 unknown #
coedge $-1 $303 $466 $193 $312 reversed $189 $-1 #
edge $-1 $467 -75.53697317423017 $316 75.53697317423017 $311 $468 forward 7 unknown #
coedge $-1 $306 $194 $466 $469 forward $315 $-1 #
coedge $-1 $194 $306 $462 $470 reversed $315 $-1 #
loop $-1 $-1 $313 $446 #
vertex $-1 $195 $471 #
vertex $-1 $195 $472 #
straight-curve $-1 75.53697317423017 0 17.544964412005207 0 1 0 I I #
face $-1 $473 $474 $46 $-1 $475 forward single #
loop $-1 $-1 $476 $196 #
plane-surface $-1 -91.976530401262437 0 15.360611791418172 1 0 0 0 0 -1 forward_v I I I I #
coedge $-1 $477 $199 $329 $478 reversed $125 $-1 #
coedge $-1 $199 $477 $479 $480 reversed $125 $-1 #
edge $-1 $481 -17.544964412005207 $331 -13.176259170831141 $199 $482 forward 7 unknown #
coedge $-1 $201 $200 $483 $484 reversed $79 $-1 #
coedge $-1 $485 $486 $201 $327 forward $487 $-1 #
edge $-1 $330 13.176259170831141 $488 17.544964412005207 $326 $489 forward 7 unknown #
coedge $-1 $490 $202 $486 $491 forward $197 $-1 #
coedge $-1 $202 $490 $322 $478 forward $197 $-1 #
vertex $-1 $327 $492 #
vertex $-1 $324 $493 #
straight-curve $-1 -75.53697317423017 0 13.176259170831141 0 1 0 I I #
face $-1 $494 $495 $47 $-1 $496 reversed single #
loop $-1 $-1 $497 $204 #
plane-surface $-1 0 0 -17.544964412005207 0 0 1 1 0 0 forward_v I I I I #
coedge $-1 $498 $499 $209 $344 forward $205 $-1 #
coedge $-1 $500 $207 $497 $501 reversed $129 $-1 #
coedge $-1 $207 $500 $341 $502 reversed $129 $-1 #
coedge $-1 $342 $503 $207 $340 forward $495 $-1 #
edge $-1 $504 -10.395714020426091 $505 -3.902786762732144 $339 $506 forward 7 unknown #
coedge $-1 $209 $208 $338 $502 forward $82 $-1 #
coedge $-1 $507 $339 $208 $343 forward $495 $-1 #
edge $-1 $505 29.018792969795449 $348 40.68505112622163 $342 $508 forward 7 unknown #
edge $-1 $349 -40.68505112622163 $509 -29.018792969795449 $336 $510 forward 7 unknown #
coedge $-1 $511 $210 $499 $512 forward $347 $-1 #
coedge $-1 $210 $511 $507 $513 reversed $347 $-1 #
loop $-1 $-1 $210 $494 #
vertex $-1 $513 $514 #
vertex $-1 $512 $515 #
straight-curve $-1 75.53697317423017 0 -11.052037154311261 0 -1 0 I I #
face $-1 $-1 $516 $48 $-1 $517 reversed single #
loop $-1 $-1 $218 $212 #
plane-surface $-1 0 0 17.544964412005207 0 0 1 1 0 0 forward_v I I I I #
coedge $-1 $518 $519 $520 $521 reversed $213 $-1 #
coedge $-1 $522 $215 $217 $361 forward $133 $-1 #
coedge $-1 $215 $522 $518 $523 forward $133 $-1 #
coedge $-1 $520 $218 $215 $358 forward $352 $-1 #
edge $-1 $364 15.452120784608468 $524 30.743390068744048 $357 $525 forward 7 unknown #
coedge $-1 $526 $527 $216 $360 forward $516 $-1 #
edge $-1 $528 -42.700616921985016 $363 -32.764825762050286 $359 $529 forward 7 unknown #
edge $-1 $364 -12.608699831038125 $528 -2.274695869299009e-014 $217 $530 forward 7 unknown #
coedge $-1 $218 $520 $526 $531 forward $352 $-1 #
vertex $-1 $360 $532 #
vertex $-1 $219 $533 #
straight-curve $-1 -38.549876211284726 -78.638718656427542 17.544964412005207 0 1 0 I I #
coedge $-1 $366 $366 $-1 $534 reversed $222 $-1 #
edge $-1 $535 0 $535 6.2831853071796004 $223 $536 forward 7 unknown #
vertex $-1 $226 $537 #
ellipse-curve $-1 -49.472211414238714 -34.348196450085148 12.577068832037845 0 -0.78801076186113728 0.61566146476048833 1 0 0 1 I I #
coedge $-1 $370 $370 $-1 $538 reversed $229 $-1 #
edge $-1 $539 0 $539 6.2831853071796004 $230 $540 forward 7 unknown #
vertex $-1 $233 $541 #
ellipse-curve $-1 -42.918810292466318 -34.348196450085148 12.577068832037845 0 -0.78801076186113728 0.61566146476048833 1 0 0 1 I I #
face $-1 $-1 $386 $51 $-1 $542 forward single #
loop $-1 $-1 $543 $234 #
plane-surface $-1 0 -38.229541753436266 0 0 1 0 0 0 1 forward_v I I I I #
coedge $-1 $544 $545 $546 $547 reversed $235 $-1 #
coedge $-1 $548 $237 $239 $384 forward $147 $-1 #
coedge $-1 $237 $548 $544 $549 forward $147 $-1 #
coedge $-1 $546 $240 $237 $381 forward $386 $-1 #
edge $-1 $388 -0.74193267827672216 $550 14.549336605858866 $380 $551 forward 7 unknown #
coedge $-1 $552 $553 $238 $383 forward $375 $-1 #
edge $-1 $554 -42.700616921985016 $387 -32.764825762050286 $382 $555 forward 7 unknown #
edge $-1 $388 -12.608699831038125 $554 -2.274695869299009e-014 $239 $556 forward 7 unknown #
coedge $-1 $240 $546 $552 $557 forward $386 $-1 #
loop $-1 $-1 $546 $374 #
vertex $-1 $383 $558 #
vertex $-1 $241 $559 #
straight-curve $-1 -6.1617692855143495 -78.638718656427542 17.544964412005207 0 1 0 I I #
coedge $-1 $390 $390 $-1 $560 reversed $244 $-1 #
edge $-1 $561 0 $561 6.2831853071796004 $245 $562 forward 7 unknown #
vertex $-1 $248 $563 #
ellipse-curve $-1 -17.084104488468341 -34.348196450085148 12.577068832037845 0 -0.78801076186113728 0.61566146476048833 1 0 0 1 I I #
coedge $-1 $394 $394 $-1 $564 reversed $251 $-1 #
edge $-1 $565 0 $565 6.2831853071796004 $252 $566 forward 7 unknown #
vertex $-1 $255 $567 #
ellipse-curve $-1 -10.53070336669596 -34.348196450085148 12.577068832037845 0 -0.78801076186113728 0.61566146476048833 1 0 0 1 I I #
face $-1 $-1 $410 $54 $-1 $568 forward single #
loop $-1 $-1 $569 $256 #
plane-surface $-1 0 -38.229541753436266 0 0 1 0 0 0 1 forward_v I I I I #
coedge $-1 $570 $571 $572 $573 reversed $257 $-1 #
coedge $-1 $574 $259 $261 $408 forward $161 $-1 #
coedge $-1 $259 $574 $570 $575 forward $161 $-1 #
coedge $-1 $572 $262 $259 $405 forward $410 $-1 #
edge $-1 $412 -16.935986141161901 $576 -1.6447168570263138 $404 $577 forward 7 unknown #
coedge $-1 $578 $579 $260 $407 forward $399 $-1 #
edge $-1 $580 -42.700616921985016 $411 -32.764825762050286 $406 $581 forward 7 unknown #
edge $-1 $412 -12.608699831038125 $580 -2.274695869299009e-014 $261 $582 forward 7 unknown #
coedge $-1 $262 $572 $578 $583 forward $410 $-1 #
loop $-1 $-1 $572 $398 #
vertex $-1 $407 $584 #
vertex $-1 $263 $585 #
straight-curve $-1 26.226337640256009 -78.638718656427542 17.544964412005207 0 1 0 I I #
coedge $-1 $414 $414 $-1 $586 reversed $266 $-1 #
edge $-1 $587 0 $587 6.2831853071796004 $267 $588 forward 7 unknown #
vertex $-1 $270 $589 #
ellipse-curve $-1 15.304002437302032 -34.348196450085148 12.577068832037845 0 -0.78801076186113728 0.61566146476048833 1 0 0 1 I I #
coedge $-1 $418 $418 $-1 $590 reversed $273 $-1 #
edge $-1 $591 0 $591 6.2831853071796004 $274 $592 forward 7 unknown #
vertex $-1 $277 $593 #
ellipse-curve $-1 21.857403559074399 -34.348196450085148 12.577068832037845 0 -0.78801076186113728 0.61566146476048833 1 0 0 1 I I #
face $-1 $-1 $434 $57 $-1 $594 forward single #
loop $-1 $-1 $595 $278 #
plane-surface $-1 0 -38.229541753436266 0 0 1 0 0 0 1 forward_v I I I I #
coedge $-1 $596 $597 $598 $599 reversed $279 $-1 #
coedge $-1 $600 $281 $283 $432 forward $175 $-1 #
coedge $-1 $281 $600 $596 $601 forward $175 $-1 #
coedge $-1 $598 $284 $281 $429 forward $434 $-1 #
edge $-1 $436 -33.130039604047077 $602 -17.838770319911497 $428 $603 forward 7 unknown #
coedge $-1 $604 $605 $282 $431 forward $423 $-1 #
edge $-1 $606 -42.700616921985016 $435 -32.764825762050286 $430 $607 forward 7 unknown #
edge $-1 $436 -12.608699831038125 $606 -2.274695869299009e-014 $283 $608 forward 7 unknown #
coedge $-1 $284 $598 $604 $609 forward $434 $-1 #
loop $-1 $-1 $598 $422 #
vertex $-1 $431 $610 #
vertex $-1 $285 $611 #
straight-curve $-1 58.614444566026364 -78.638718656427542 17.544964412005207 0 1 0 I I #
coedge $-1 $438 $438 $-1 $612 reversed $288 $-1 #
edge $-1 $613 0 $613 6.2831853071796004 $289 $614 forward 7 unknown #
vertex $-1 $292 $615 #
ellipse-curve $-1 47.69210936307239 -34.348196450085148 12.577068832037845 0 -0.78801076186113728 0.61566146476048833 1 0 0 1 I I #
coedge $-1 $442 $442 $-1 $616 reversed $295 $-1 #
edge $-1 $617 0 $617 6.2831853071796004 $296 $618 forward 7 unknown #
vertex $-1 $299 $619 #
ellipse-curve $-1 54.245510484844758 -34.348196450085148 12.577068832037845 0 -0.78801076186113728 0.61566146476048833 1 0 0 1 I I #
face $-1 $-1 $315 $45 $-1 $620 reversed single #
loop $-1 $-1 $462 $300 #
plane-surface $-1 0 38.229541753436266 0 0 -1 0 0 0 -1 forward_v I I I I #
coedge $-1 $621 $460 $463 $622 forward $301 $-1 #
coedge $-1 $466 $303 $304 $454 reversed $189 $-1 #
coedge $-1 $460 $621 $303 $452 reversed $301 $-1 #
edge $-1 $467 -17.544964412005207 $623 17.544964412005207 $451 $624 forward 7 unknown #
coedge $-1 $305 $304 $621 $625 forward $121 $-1 #
edge $-1 $458 -75.53697317423017 $623 75.53697317423017 $450 $626 forward 7 unknown #
coedge $-1 $463 $462 $305 $456 reversed $447 $-1 #
edge $-1 $627 -75.53697317423017 $457 75.53697317423017 $455 $628 forward 7 unknown #
vertex $-1 $307 $629 #
vertex $-1 $469 $630 #
straight-curve $-1 75.53697317423017 0 -17.544964412005207 0 -1 0 I I #
coedge $-1 $449 $451 $308 $461 reversed $301 $-1 #
edge $-1 $464 -38.229541753436266 $467 38.229541753436266 $460 $631 forward 7 unknown #
coedge $-1 $455 $309 $314 $470 forward $447 $-1 #
coedge $-1 $309 $455 $449 $622 reversed $447 $-1 #
vertex $-1 $310 $632 #
straight-curve $-1 0 38.229541753436266 17.544964412005207 -1 0 0 I I #
coedge $-1 $311 $450 $313 $469 reversed $189 $-1 #
vertex $-1 $461 $633 #
straight-curve $-1 0 -38.229541753436266 17.544964412005207 1 0 0 I I #
edge $-1 $316 -17.544964412005207 $458 17.544964412005207 $313 $634 forward 7 unknown #
edge $-1 $317 -17.544964412005207 $457 17.544964412005207 $314 $635 forward 7 unknown #
point $-1 75.53697317423017 -38.229541753436266 17.544964412005207 #
point $-1 75.53697317423017 38.229541753436266 17.544964412005207 #
face $-1 $-1 $487 $46 $-1 $636 reversed single #
loop $-1 $-1 $483 $319 #
plane-surface $-1 0 0 17.544964412005207 0 0 1 1 0 0 forward_v I I I I #
coedge $-1 $637 $638 $477 $639 forward $320 $-1 #
coedge $-1 $323 $322 $476 $639 reversed $125 $-1 #
edge $-1 $640 -8.2197786135161266 $331 8.2197786135161266 $322 $641 forward 7 unknown #
coedge $-1 $642 $483 $323 $480 forward $474 $-1 #
edge $-1 $481 75.53697317423017 $643 91.976530401262437 $323 $644 forward 7 unknown #
vertex $-1 $480 $645 #
straight-curve $-1 -75.53697317423017 38.229541753436266 0 0 0 -1 I I #
coedge $-1 $479 $646 $325 $484 forward $474 $-1 #
edge $-1 $488 -38.229541753436266 $481 38.229541753436266 $483 $647 forward 7 unknown #
coedge $-1 $648 $326 $646 $649 reversed $487 $-1 #
coedge $-1 $326 $648 $328 $491 reversed $487 $-1 #
loop $-1 $-1 $326 $473 #
vertex $-1 $327 $650 #
straight-curve $-1 -75.53697317423017 -38.229541753436266 0 0 0 1 I I #
coedge $-1 $329 $328 $637 $651 forward $197 $-1 #
edge $-1 $330 -8.2197786135161266 $652 8.2197786135161266 $486 $653 forward 7 unknown #
point $-1 -75.536973174230184 -38.229541753436266 13.176259170831141 #
point $-1 -75.536973174230184 38.229541753436266 13.176259170831141 #
face $-1 $-1 $347 $47 $-1 $654 reversed single #
loop $-1 $-1 $342 $333 #
plane-surface $-1 0 38.229541753436266 0 0 -1 0 0 0 -1 forward_v I I I I #
coedge $-1 $655 $656 $337 $501 forward $334 $-1 #
coedge $-1 $657 $336 $500 $658 forward $205 $-1 #
coedge $-1 $336 $657 $345 $512 reversed $205 $-1 #
coedge $-1 $338 $337 $498 $658 reversed $129 $-1 #
edge $-1 $659 -38.229541753436266 $504 38.229541753436266 $497 $660 forward 7 unknown #
edge $-1 $505 -38.229541753436266 $509 38.229541753436266 $338 $661 forward 7 unknown #
coedge $-1 $339 $507 $655 $662 reversed $495 $-1 #
vertex $-1 $662 $663 #
vertex $-1 $343 $664 #
straight-curve $-1 63.870715017803988 38.229541753436266 -7.149250391579117 0 0 1 I I #
coedge $-1 $503 $342 $346 $513 forward $495 $-1 #
straight-curve $-1 34.851922048008539 38.229541753436266 -11.052037154311261 1 0 0 I I #
vertex $-1 $344 $665 #
straight-curve $-1 34.851922048008539 -38.229541753436266 -11.052037154311261 -1 0 0 I I #
coedge $-1 $346 $345 $666 $667 reversed $347 $-1 #
edge $-1 $349 11.052037154311261 $668 17.544964412005207 $345 $669 forward 7 unknown #
edge $-1 $348 11.052037154311261 $670 17.544964412005207 $346 $671 forward 7 unknown #
point $-1 75.53697317423017 38.229541753436266 -11.052037154311261 #
point $-1 75.53697317423017 -38.229541753436266 -11.052037154311261 #
loop $-1 $-1 $359 $351 #
plane-surface $-1 0 -38.229541753436266 0 0 1 0 0 0 1 forward_v I I I I #
coedge $-1 $519 $354 $356 $523 reversed $213 $-1 #
coedge $-1 $354 $518 $672 $673 reversed $213 $-1 #
coedge $-1 $362 $357 $354 $521 forward $352 $-1 #
edge $-1 $524 -48.171867509693513 $674 -40.409176902991277 $520 $675 forward 7 unknown #
coedge $-1 $356 $355 $527 $676 reversed $133 $-1 #
edge $-1 $677 2.274695869299009e-014 $524 12.608699831038125 $518 $678 forward 7 unknown #
vertex $-1 $358 $679 #
straight-curve $-1 -23.097755426676258 -30.466851146734029 17.544964412005207 -1 0 0 I I #
coedge $-1 $672 $359 $362 $531 reversed $516 $-1 #
coedge $-1 $359 $672 $522 $676 forward $516 $-1 #
vertex $-1 $360 $680 #
straight-curve $-1 -38.549876211284726 -38.229541753436266 50.309790174055493 0 0 1 I I #
straight-curve $-1 -38.549876211284726 -38.22954175343628 7.6091732520704625 0 -0.61566146476048833 -0.78801076186113728 I I #
edge $-1 $674 -53.841145495420307 $363 -38.549876211284726 $526 $681 forward 7 unknown #
point $-1 -38.549876211284726 -38.229541753436266 17.544964412005207 #
point $-1 -38.549876211284726 -30.466851146734026 17.544964412005207 #
edge $-1 $682 1 $682 0 $366 $-1 forward 7 unknown #
vertex $-1 $367 $683 #
ellipse-curve $-1 -49.472211414238714 -32.486209291141734 11.122325068218123 0 -0.78801076186113728 0.61566146476048833 1 0 0 1 I I #
point $-1 -48.472211414238714 -34.34819645008514 12.577068832037842 #
edge $-1 $684 1 $684 0 $370 $-1 forward 7 unknown #
vertex $-1 $371 $685 #
ellipse-curve $-1 -42.918810292466318 -32.486209291141734 11.122325068218123 0 -0.78801076186113728 0.61566146476048833 1 0 0 1 I I #
point $-1 -41.918810292466318 -34.34819645008514 12.577068832037842 #
plane-surface $-1 0 0 17.544964412005207 0 0 1 1 0 0 forward_v I I I I #
coedge $-1 $553 $552 $545 $686 forward $375 $-1 #
coedge $-1 $545 $377 $379 $549 reversed $235 $-1 #
coedge $-1 $377 $544 $543 $686 reversed $235 $-1 #
coedge $-1 $385 $380 $377 $547 forward $386 $-1 #
edge $-1 $550 -48.171867509693513 $687 -40.409176902991277 $546 $688 forward 7 unknown #
coedge $-1 $379 $378 $553 $689 reversed $147 $-1 #
edge $-1 $690 2.274695869299009e-014 $550 12.608699831038125 $544 $691 forward 7 unknown #
vertex $-1 $381 $692 #
straight-curve $-1 -6.9037019637910717 -30.466851146734029 17.544964412005207 -1 0 0 I I #
coedge $-1 $543 $382 $385 $557 reversed $375 $-1 #
coedge $-1 $382 $543 $548 $689 forward $375 $-1 #
vertex $-1 $383 $693 #
straight-curve $-1 -6.1617692855143495 -38.229541753436266 50.309790174055493 0 0 1 I I #
straight-curve $-1 -6.1617692855143495 -38.22954175343628 7.6091732520704625 0 -0.61566146476048833 -0.78801076186113728 I I #
edge $-1 $687 -21.453038569649937 $387 -6.1617692855143495 $552 $694 forward 7 unknown #
point $-1 -6.1617692855143495 -38.229541753436266 17.544964412005207 #
point $-1 -6.1617692855143495 -30.466851146734026 17.544964412005207 #
edge $-1 $695 1 $695 0 $390 $-1 forward 7 unknown #
vertex $-1 $391 $696 #
ellipse-curve $-1 -17.084104488468341 -32.486209291141734 11.122325068218123 0 -0.78801076186113728 0.61566146476048833 1 0 0 1 I I #
point $-1 -16.084104488468341 -34.34819645008514 12.577068832037842 #
edge $-1 $697 1 $697 0 $394 $-1 forward 7 unknown #
vertex $-1 $395 $698 #
ellipse-curve $-1 -10.53070336669596 -32.486209291141734 11.122325068218123 0 -0.78801076186113728 0.61566146476048833 1 0 0 1 I I #
point $-1 -9.5307033666959597 -34.34819645008514 12.577068832037842 #
plane-surface $-1 0 0 17.544964412005207 0 0 1 1 0 0 forward_v I I I I #
coedge $-1 $579 $578 $571 $699 forward $399 $-1 #
coedge $-1 $571 $401 $403 $575 reversed $257 $-1 #
coedge $-1 $401 $570 $569 $699 reversed $257 $-1 #
coedge $-1 $409 $404 $401 $573 forward $410 $-1 #
edge $-1 $576 -48.171867509693513 $700 -40.409176902991277 $572 $701 forward 7 unknown #
coedge $-1 $403 $402 $579 $702 reversed $161 $-1 #
edge $-1 $703 2.274695869299009e-014 $576 12.608699831038125 $570 $704 forward 7 unknown #
vertex $-1 $405 $705 #
straight-curve $-1 9.2903514990941076 -30.466851146734029 17.544964412005207 -1 0 0 I I #
coedge $-1 $569 $406 $409 $583 reversed $399 $-1 #
coedge $-1 $406 $569 $574 $702 forward $399 $-1 #
vertex $-1 $407 $706 #
straight-curve $-1 26.226337640256009 -38.229541753436266 50.309790174055493 0 0 1 I I #
straight-curve $-1 26.226337640256009 -38.22954175343628 7.6091732520704625 0 -0.61566146476048833 -0.78801076186113728 I I #
edge $-1 $700 10.935068356120421 $411 26.226337640256009 $578 $707 forward 7 unknown #
point $-1 26.226337640256009 -38.229541753436266 17.544964412005207 #
point $-1 26.226337640256009 -30.466851146734026 17.544964412005207 #
edge $-1 $708 1 $708 0 $414 $-1 forward 7 unknown #
vertex $-1 $415 $709 #
ellipse-curve $-1 15.304002437302032 -32.486209291141734 11.122325068218123 0 -0.78801076186113728 0.61566146476048833 1 0 0 1 I I #
point $-1 16.304002437302032 -34.34819645008514 12.577068832037842 #
edge $-1 $710 1 $710 0 $418 $-1 forward 7 unknown #
vertex $-1 $419 $711 #
ellipse-curve $-1 21.857403559074399 -32.486209291141734 11.122325068218123 0 -0.78801076186113728 0.61566146476048833 1 0 0 1 I I #
point $-1 22.857403559074399 -34.34819645008514 12.577068832037842 #
plane-surface $-1 0 0 17.544964412005207 0 0 1 1 0 0 forward_v I I I I #
coedge $-1 $605 $604 $597 $712 forward $423 $-1 #
coedge $-1 $597 $425 $427 $601 reversed $279 $-1 #
coedge $-1 $425 $596 $595 $712 reversed $279 $-1 #
coedge $-1 $433 $428 $425 $599 forward $434 $-1 #
edge $-1 $602 -48.171867509693513 $713 -40.409176902991277 $598 $714 forward 7 unknown #
coedge $-1 $427 $426 $605 $715 reversed $175 $-1 #
edge $-1 $716 2.274695869299009e-014 $602 12.608699831038125 $596 $717 forward 7 unknown #
vertex $-1 $429 $718 #
straight-curve $-1 25.484404961979287 -30.466851146734029 17.544964412005207 -1 0 0 I I #
coedge $-1 $595 $430 $433 $609 reversed $423 $-1 #
coedge $-1 $430 $595 $600 $715 forward $423 $-1 #
vertex $-1 $431 $719 #
straight-curve $-1 58.614444566026364 -38.229541753436266 50.309790174055493 0 0 1 I I #
straight-curve $-1 58.614444566026364 -38.22954175343628 7.6091732520704625 0 -0.61566146476048833 -0.78801076186113728 I I #
edge $-1 $713 43.323175281890784 $435 58.614444566026364 $604 $720 forward 7 unknown #
point $-1 58.614444566026364 -38.229541753436266 17.544964412005207 #
point $-1 58.614444566026364 -30.466851146734026 17.544964412005207 #
edge $-1 $721 1 $721 0 $438 $-1 forward 7 unknown #
vertex $-1 $439 $722 #
ellipse-curve $-1 47.69210936307239 -32.486209291141734 11.122325068218123 0 -0.78801076186113728 0.61566146476048833 1 0 0 1 I I #
point $-1 48.69210936307239 -34.34819645008514 12.577068832037842 #
edge $-1 $723 1 $723 0 $442 $-1 forward 7 unknown #
vertex $-1 $443 $724 #
ellipse-curve $-1 54.245510484844758 -32.486209291141734 11.122325068218123 0 -0.78801076186113728 0.61566146476048833 1 0 0 1 I I #
point $-1 55.245510484844758 -34.34819645008514 12.577068832037842 #
plane-surface $-1 75.53697317423017 0 0 -1 0 0 0 0 1 forward_v I I I I #
coedge $-1 $451 $449 $453 $625 reversed $301 $-1 #
edge $-1 $464 -17.544964412005207 $627 17.544964412005207 $463 $725 forward 7 unknown #
vertex $-1 $625 $726 #
straight-curve $-1 -75.53697317423017 -38.229541753436266 0 0 0 -1 I I #
edge $-1 $623 -38.229541753436266 $627 38.229541753436266 $621 $727 forward 7 unknown #
straight-curve $-1 0 -38.229541753436266 -17.544964412005207 -1 0 0 I I #
vertex $-1 $456 $728 #
straight-curve $-1 0 38.229541753436266 -17.544964412005207 1 0 0 I I #
point $-1 75.53697317423017 38.229541753436266 -17.544964412005207 #
point $-1 75.53697317423017 -38.229541753436266 -17.544964412005207 #
straight-curve $-1 -75.53697317423017 0 17.544964412005207 0 -1 0 I I #
point $-1 -75.53697317423017 38.229541753436266 17.544964412005207 #
point $-1 -75.53697317423017 -38.229541753436266 17.544964412005207 #
straight-curve $-1 75.53697317423017 -38.229541753436266 0 0 0 -1 I I #
straight-curve $-1 75.53697317423017 38.229541753436266 0 0 0 -1 I I #
plane-surface $-1 0 -38.229541753436266 0 0 1 0 0 0 1 forward_v I I I I #
coedge $-1 $729 $476 $490 $651 reversed $320 $-1 #
coedge $-1 $476 $729 $642 $730 reversed $320 $-1 #
edge $-1 $643 -2.1843526205870312 $640 2.1843526205870312 $477 $731 forward 7 unknown #
vertex $-1 $478 $732 #
straight-curve $-1 -83.75675178774631 38.229541753436266 13.176259170831141 1 0 0 I I #
coedge $-1 $646 $479 $638 $730 forward $474 $-1 #
vertex $-1 $480 $733 #
straight-curve $-1 0 38.229541753436266 17.544964412005207 -1 0 0 I I #
point $-1 -75.53697317423017 38.229541753436266 17.544964412005207 #
coedge $-1 $483 $642 $485 $649 forward $474 $-1 #
straight-curve $-1 -75.53697317423017 0 17.544964412005207 0 1 0 I I #
coedge $-1 $486 $485 $729 $734 forward $487 $-1 #
edge $-1 $735 -91.976530401262437 $488 -75.53697317423017 $485 $736 forward 7 unknown #
point $-1 -75.53697317423017 -38.229541753436266 17.544964412005207 #
edge $-1 $652 -38.229541753436266 $640 38.229541753436266 $637 $737 forward 7 unknown #
vertex $-1 $651 $738 #
straight-curve $-1 -83.75675178774631 -38.229541753436266 13.176259170831141 -1 0 0 I I #
plane-surface $-1 75.53697317423017 0 0 -1 0 0 0 0 1 forward_v I I I I #
coedge $-1 $666 $497 $503 $662 forward $334 $-1 #
coedge $-1 $497 $666 $657 $739 forward $334 $-1 #
coedge $-1 $499 $498 $656 $739 reversed $205 $-1 #
edge $-1 $509 3.902786762732144 $659 10.395714020426091 $498 $740 forward 7 unknown #
vertex $-1 $501 $741 #
straight-curve $-1 63.870715017803988 0 -17.544964412005207 0 1 0 I I #
straight-curve $-1 63.870715017803988 0 -11.052037154311261 0 -1 0 I I #
edge $-1 $504 63.870715017803988 $670 75.53697317423017 $503 $742 forward 7 unknown #
point $-1 63.870715017803988 38.229541753436266 -17.544964412005207 #
point $-1 63.870715017803988 38.229541753436266 -11.052037154311261 #
point $-1 63.870715017803988 -38.229541753436266 -11.052037154311261 #
coedge $-1 $656 $655 $511 $667 forward $334 $-1 #
edge $-1 $670 -38.229541753436266 $668 38.229541753436266 $511 $743 forward 7 unknown #
vertex $-1 $512 $744 #
straight-curve $-1 75.53697317423017 -38.229541753436266 0 0 0 -1 I I #
vertex $-1 $667 $745 #
straight-curve $-1 75.53697317423017 38.229541753436266 0 0 0 -1 I I #
coedge $-1 $527 $526 $519 $673 forward $516 $-1 #
edge $-1 $674 32.764825762050286 $677 42.700616921985016 $672 $746 forward 7 unknown #
vertex $-1 $531 $747 #
straight-curve $-1 -53.841145495420307 -78.638718656427542 17.544964412005207 0 -1 0 I I #
edge $-1 $677 -30.743390068744048 $528 -15.452120784608468 $527 $748 forward 7 unknown #
vertex $-1 $676 $749 #
straight-curve $-1 -53.841145495420307 -38.22954175343628 7.6091732520704625 0 0.61566146476048833 0.78801076186113728 I I #
point $-1 -53.841145495420307 -30.466851146734026 17.544964412005207 #
point $-1 -38.549876211284726 -38.229541753436266 7.6091732520704802 #
straight-curve $-1 0 -38.229541753436266 17.544964412005207 1 0 0 I I #
vertex $-1 $534 $750 #
point $-1 -48.472211414238714 -32.486209291141734 11.122325068218123 #
vertex $-1 $538 $751 #
point $-1 -41.918810292466318 -32.486209291141734 11.122325068218123 #
edge $-1 $687 32.764825762050286 $690 42.700616921985016 $543 $752 forward 7 unknown #
vertex $-1 $557 $753 #
straight-curve $-1 -21.453038569649937 -78.638718656427542 17.544964412005207 0 -1 0 I I #
edge $-1 $690 -14.549336605858866 $554 0.74193267827672216 $553 $754 forward 7 unknown #
vertex $-1 $689 $755 #
straight-curve $-1 -21.453038569649937 -38.22954175343628 7.6091732520704625 0 0.61566146476048833 0.78801076186113728 I I #
point $-1 -21.453038569649937 -30.466851146734026 17.544964412005207 #
point $-1 -6.1617692855143495 -38.229541753436266 7.6091732520704802 #
straight-curve $-1 0 -38.229541753436266 17.544964412005207 1 0 0 I I #
vertex $-1 $560 $756 #
point $-1 -16.084104488468341 -32.486209291141734 11.122325068218123 #
vertex $-1 $564 $757 #
point $-1 -9.5307033666959597 -32.486209291141734 11.122325068218123 #
edge $-1 $700 32.764825762050286 $703 42.700616921985016 $569 $758 forward 7 unknown #
vertex $-1 $583 $759 #
straight-curve $-1 10.935068356120421 -78.638718656427542 17.544964412005207 0 -1 0 I I #
edge $-1 $703 1.6447168570263138 $580 16.935986141161901 $579 $760 forward 7 unknown #
vertex $-1 $702 $761 #
straight-curve $-1 10.935068356120421 -38.22954175343628 7.6091732520704625 0 0.61566146476048833 0.78801076186113728 I I #
point $-1 10.935068356120421 -30.466851146734026 17.544964412005207 #
point $-1 26.226337640256009 -38.229541753436266 7.6091732520704802 #
straight-curve $-1 0 -38.229541753436266 17.544964412005207 1 0 0 I I #
vertex $-1 $586 $762 #
point $-1 16.304002437302032 -32.486209291141734 11.122325068218123 #
vertex $-1 $590 $763 #
point $-1 22.857403559074399 -32.486209291141734 11.122325068218123 #
edge $-1 $713 32.764825762050286 $716 42.700616921985016 $595 $764 forward 7 unknown #
vertex $-1 $609 $765 #
straight-curve $-1 43.323175281890784 -78.638718656427542 17.544964412005207 0 -1 0 I I #
edge $-1 $716 17.838770319911497 $606 33.130039604047077 $605 $766 forward 7 unknown #
vertex $-1 $715 $767 #
straight-curve $-1 43.323175281890784 -38.22954175343628 7.6091732520704625 0 0.61566146476048833 0.78801076186113728 I I #
point $-1 43.323175281890784 -30.466851146734026 17.544964412005207 #
point $-1 58.614444566026364 -38.229541753436266 7.6091732520704802 #
straight-curve $-1 0 -38.229541753436266 17.544964412005207 1 0 0 I I #
vertex $-1 $612 $768 #
point $-1 48.69210936307239 -32.486209291141734 11.122325068218123 #
vertex $-1 $616 $769 #
point $-1 55.245510484844758 -32.486209291141734 11.122325068218123 #
straight-curve $-1 -75.53697317423017 38.229541753436266 0 0 0 -1 I I #
point $-1 -75.53697317423017 -38.229541753436266 -17.544964412005207 #
straight-curve $-1 -75.53697317423017 0 -17.544964412005207 0 1 0 I I #
point $-1 -75.53697317423017 38.229541753436266 -17.544964412005207 #
coedge $-1 $638 $637 $648 $734 reversed $320 $-1 #
edge $-1 $643 -38.229541753436266 $735 38.229541753436266 $638 $770 forward 7 unknown #
straight-curve $-1 -91.976530401262437 38.229541753436266 15.360611791418172 0 0 -1 I I #
point $-1 -91.976530401262437 38.229541753436266 13.176259170831141 #
point $-1 -91.976530401262437 38.229541753436266 17.544964412005204 #
edge $-1 $735 -2.1843526205870312 $652 2.1843526205870312 $729 $771 forward 7 unknown #
vertex $-1 $730 $772 #
straight-curve $-1 0 -38.229541753436266 17.544964412005207 1 0 0 I I #
straight-curve $-1 -91.976530401262437 0 13.176259170831141 0 1 0 I I #
point $-1 -91.976530401262437 -38.229541753436266 13.176259170831141 #
edge $-1 $668 -75.53697317423017 $659 -63.870715017803988 $657 $773 forward 7 unknown #
straight-curve $-1 63.870715017803988 -38.229541753436266 -7.149250391579117 0 0 -1 I I #
point $-1 63.870715017803988 -38.229541753436266 -17.544964412005207 #
straight-curve $-1 0 38.229541753436266 -17.544964412005207 1 0 0 I I #
straight-curve $-1 75.53697317423017 0 -17.544964412005207 0 -1 0 I I #
point $-1 75.53697317423017 -38.229541753436266 -17.544964412005207 #
point $-1 75.53697317423017 38.229541753436266 -17.544964412005207 #
straight-curve $-1 -53.841145495420307 -38.229541753436266 50.309790174055493 0 0 -1 I I #
point $-1 -53.841145495420307 -38.229541753436266 17.544964412005207 #
straight-curve $-1 -23.097755426676258 -38.229541753436266 7.609173252070482 1 0 0 I I #
point $-1 -53.841145495420307 -38.229541753436266 7.6091732520704802 #
point $-1 -49.472211414238714 -31.698198529280599 10.506663603457634 #
point $-1 -42.918810292466318 -31.698198529280599 10.506663603457634 #
straight-curve $-1 -21.453038569649937 -38.229541753436266 50.309790174055493 0 0 -1 I I #
point $-1 -21.453038569649937 -38.229541753436266 17.544964412005207 #
straight-curve $-1 -6.9037019637910717 -38.229541753436266 7.609173252070482 1 0 0 I I #
point $-1 -21.453038569649937 -38.229541753436266 7.6091732520704802 #
point $-1 -17.084104488468341 -31.698198529280599 10.506663603457634 #
point $-1 -10.53070336669596 -31.698198529280599 10.506663603457634 #
straight-curve $-1 10.935068356120421 -38.229541753436266 50.309790174055493 0 0 -1 I I #
point $-1 10.935068356120421 -38.229541753436266 17.544964412005207 #
straight-curve $-1 9.2903514990941076 -38.229541753436266 7.609173252070482 1 0 0 I I #
point $-1 10.935068356120421 -38.229541753436266 7.6091732520704802 #
point $-1 15.304002437302032 -31.698198529280599 10.506663603457634 #
point $-1 21.857403559074399 -31.698198529280599 10.506663603457634 #
straight-curve $-1 43.323175281890784 -38.229541753436266 50.309790174055493 0 0 -1 I I #
point $-1 43.323175281890784 -38.229541753436266 17.544964412005207 #
straight-curve $-1 25.484404961979287 -38.229541753436266 7.609173252070482 1 0 0 I I #
point $-1 43.323175281890784 -38.229541753436266 7.6091732520704802 #
point $-1 47.69210936307239 -31.698198529280599 10.506663603457634 #
point $-1 54.245510484844758 -31.698198529280599 10.506663603457634 #
straight-curve $-1 -91.976530401262437 0 17.544964412005204 0 -1 0 I I #
straight-curve $-1 -91.976530401262437 -38.229541753436266 15.360611791418172 0 0 -1 I I #
point $-1 -91.976530401262437 -38.229541753436266 17.544964412005204 #
straight-curve $-1 0 -38.229541753436266 -17.544964412005207 -1 0 0 I I #
End-of-ACIS-data 