500 0 5 0           
7 Unknown 11 ACIS 5.0 NT 24 Fri Mar 26 00:44:58 1999 
-1 9.9999999999999995e-007 1e-010 
body $-1 $5 $-1 $6 #
body $-1 $7 $-1 $8 #
body $-1 $9 $-1 $10 #
body $-1 $11 $-1 $12 #
body $-1 $13 $-1 $14 #
lump $-1 $-1 $15 $0 #
transform $-1 1 0 0 0 1 0 0 0 1 55.624256111331519 25.608852747981288 7.3707416079046464 1 rotate no_reflect no_shear #
lump $-1 $-1 $16 $1 #
transform $-1 1 0 0 0 1 0 0 0 1 55.624256111331519 25.608852747981288 7.3707416079046464 1 rotate no_reflect no_shear #
lump $-1 $-1 $17 $2 #
transform $-1 1 0 0 0 1 0 0 0 1 55.624256111331519 25.608852747981288 7.3707416079046464 1 rotate no_reflect no_shear #
lump $-1 $-1 $18 $3 #
transform $-1 1 0 0 0 1 0 0 0 1 55.624256111331519 25.608852747981288 7.3707416079046464 1 rotate no_reflect no_shear #
lump $-1 $-1 $19 $4 #
transform $-1 1 0 0 0 1 0 0 0 1 55.624256111331519 25.608852747981288 7.3707416079046464 1 rotate no_reflect no_shear #
shell $-1 $-1 $-1 $20 $-1 $5 #
shell $-1 $-1 $-1 $21 $-1 $7 #
shell $-1 $-1 $-1 $22 $-1 $9 #
shell $-1 $-1 $-1 $23 $-1 $11 #
shell $-1 $-1 $-1 $24 $-1 $13 #
face $-1 $25 $26 $15 $-1 $27 forward single #
face $-1 $28 $29 $16 $-1 $30 forward single #
face $-1 $31 $32 $17 $-1 $33 reversed single #
face $-1 $34 $35 $18 $-1 $36 forward single #
face $-1 $37 $38 $19 $-1 $39 forward single #
face $-1 $40 $41 $15 $-1 $42 reversed single #
loop $-1 $-1 $43 $20 #
plane-surface $-1 0 0 7.3707416079046464 0 0 1 1 0 0 forward_v I I I I #
face $-1 $44 $45 $16 $-1 $46 reversed single #
loop $-1 $-1 $47 $21 #
plane-surface $-1 0 -25.608852747981288 0 0 1 0 0 0 1 forward_v I I I I #
face $-1 $48 $49 $17 $-1 $50 reversed single #
loop $-1 $-1 $51 $22 #
plane-surface $-1 -35.850628375011084 59.939951881363385 120.81083311643508 -1 0 0 0 0.6560590369687036 0.75470957328743171 forward_v I I I I #
face $-1 $52 $53 $18 $-1 $54 forward single #
loop $-1 $55 $56 $23 #
cone-surface $-1 -49.974648186668539 22.430696873845225 4.3811209823699224 0 -0.6560590369687036 -0.75470957328743171 1.5 0 0 1 I I 0 1 1.5 forward I I I I #
face $-1 $57 $58 $19 $-1 $59 forward single #
loop $-1 $60 $61 $24 #
cone-surface $-1 -41.500236299674064 22.430696873845225 4.3811209823699224 0 -0.6560590369687036 -0.75470957328743171 1.5 0 0 1 I I 0 1 1.5 forward I I I I #
face $-1 $62 $63 $15 $-1 $64 reversed single #
loop $-1 $-1 $65 $25 #
plane-surface $-1 0 0 -7.3707416079046464 0 0 1 1 0 0 forward_v I I I I #
coedge $-1 $66 $67 $68 $69 forward $26 $-1 #
face $-1 $70 $71 $16 $-1 $72 reversed single #
loop $-1 $-1 $73 $28 #
plane-surface $-1 0 0 -7.3707416079046464 0 0 1 1 0 0 forward_v I I I I #
coedge $-1 $74 $75 $76 $77 forward $29 $-1 #
face $-1 $78 $79 $17 $-1 $80 forward single #
loop $-1 $-1 $81 $31 #
plane-surface $-1 -45.737442243171301 -13.045639911637977 36.850515928007425 0 0.6560590369687036 0.75470957328743171 1 0 0 forward_v I I I I #
coedge $-1 $82 $83 $84 $85 reversed $32 $-1 #
face $-1 $-1 $86 $18 $-1 $87 forward single #
loop $-1 $88 $89 $34 #
cone-surface $-1 -49.974648186668539 21.131442898887045 2.8865002885321775 0 -0.6560590369687036 -0.75470957328743171 0.75 0 0 1 I I -0.70710678118654724 0.70710678118654768 0.75 forward I I I I #
loop $-1 $-1 $90 $23 #
coedge $-1 $56 $56 $91 $92 reversed $35 $-1 #
face $-1 $-1 $93 $19 $-1 $94 forward single #
loop $-1 $95 $96 $37 #
cone-surface $-1 -41.500236299674064 21.131442898887045 2.8865002885321775 0 -0.6560590369687036 -0.75470957328743171 0.75 0 0 1 I I -0.70710678118654724 0.70710678118654768 0.75 forward I I I I #
loop $-1 $-1 $97 $24 #
coedge $-1 $61 $61 $98 $99 reversed $38 $-1 #
face $-1 $100 $101 $15 $-1 $102 reversed single #
loop $-1 $-1 $103 $40 #
plane-surface $-1 0 -25.608852747981288 0 0 1 0 0 0 1 forward_v I I I I #
coedge $-1 $104 $105 $106 $107 forward $41 $-1 #
coedge $-1 $108 $43 $109 $110 forward $26 $-1 #
coedge $-1 $43 $108 $111 $112 forward $26 $-1 #
coedge $-1 $113 $114 $43 $69 reversed $115 $-1 #
edge $-1 $116 -25.608852747981288 $117 25.608852747981288 $68 $118 forward 7 unknown #
face $-1 $119 $120 $16 $-1 $121 forward single #
loop $-1 $-1 $122 $44 #
plane-surface $-1 55.624256111331519 0 0 -1 0 0 0 0 1 forward_v I I I I #
coedge $-1 $123 $124 $125 $126 forward $45 $-1 #
coedge $-1 $125 $47 $122 $127 reversed $29 $-1 #
coedge $-1 $47 $125 $128 $129 reversed $29 $-1 #
coedge $-1 $130 $131 $47 $77 reversed $120 $-1 #
edge $-1 $132 -55.624256111331519 $133 55.624256111331519 $76 $134 forward 7 unknown #
face $-1 $135 $136 $17 $-1 $137 reversed single #
loop $-1 $-1 $138 $48 #
plane-surface $-1 0 0 7.3707416079046464 0 0 1 1 0 0 forward_v I I I I #
coedge $-1 $139 $140 $141 $142 reversed $49 $-1 #
coedge $-1 $83 $51 $143 $144 reversed $32 $-1 #
coedge $-1 $51 $82 $139 $145 reversed $32 $-1 #
coedge $-1 $141 $146 $51 $85 forward $136 $-1 #
edge $-1 $147 53.03467495031289 $148 57.156739173638002 $84 $149 forward 7 unknown #
loop $-1 $-1 $91 $52 #
plane-surface $-1 -45.737442243171301 -13.045639911637977 36.850515928007425 0 0.6560590369687036 0.75470957328743171 1 0 0 forward_v I I I I #
loop $-1 $-1 $150 $34 #
coedge $-1 $89 $89 $90 $151 reversed $53 $-1 #
coedge $-1 $90 $90 $89 $151 forward $55 $-1 #
coedge $-1 $91 $91 $56 $92 forward $86 $-1 #
edge $-1 $152 -1.3990463639033989e-015 $152 6.2831853071795987 $91 $153 forward 7 unknown #
loop $-1 $-1 $98 $57 #
plane-surface $-1 -45.737442243171301 -13.045639911637977 36.850515928007425 0 0.6560590369687036 0.75470957328743171 1 0 0 forward_v I I I I #
loop $-1 $-1 $154 $37 #
coedge $-1 $96 $96 $97 $155 reversed $58 $-1 #
coedge $-1 $97 $97 $96 $155 forward $60 $-1 #
coedge $-1 $98 $98 $61 $99 forward $93 $-1 #
edge $-1 $156 -1.3990463639033989e-015 $156 6.2831853071795987 $98 $157 forward 7 unknown #
face $-1 $158 $159 $15 $-1 $160 reversed single #
loop $-1 $-1 $161 $62 #
plane-surface $-1 -55.624256111331519 0 0 1 0 0 0 0 -1 forward_v I I I I #
coedge $-1 $111 $162 $113 $163 reversed $63 $-1 #
coedge $-1 $164 $65 $162 $165 forward $41 $-1 #
coedge $-1 $65 $164 $166 $167 forward $41 $-1 #
coedge $-1 $114 $113 $65 $107 reversed $115 $-1 #
edge $-1 $168 -25.608852747981288 $169 25.608852747981288 $106 $170 forward 7 unknown #
coedge $-1 $67 $66 $171 $172 forward $26 $-1 #
coedge $-1 $173 $174 $66 $110 reversed $159 $-1 #
edge $-1 $117 -55.624256111331519 $175 55.624256111331519 $109 $176 forward 7 unknown #
coedge $-1 $177 $103 $67 $112 reversed $63 $-1 #
edge $-1 $178 -55.624256111331519 $116 55.624256111331519 $111 $179 forward 7 unknown #
coedge $-1 $106 $68 $103 $163 forward $115 $-1 #
coedge $-1 $68 $106 $173 $180 reversed $115 $-1 #
loop $-1 $-1 $113 $158 #
vertex $-1 $69 $181 #
vertex $-1 $69 $182 #
straight-curve $-1 55.624256111331519 0 7.3707416079046464 0 1 0 I I #
face $-1 $183 $184 $16 $-1 $185 reversed single #
loop $-1 $-1 $131 $70 #
plane-surface $-1 0 -28.751815969941347 -4.3707416079046464 0 0 1 1 0 0 forward_v I I I I #
coedge $-1 $186 $187 $74 $127 forward $71 $-1 #
coedge $-1 $188 $73 $187 $189 forward $45 $-1 #
coedge $-1 $73 $188 $190 $191 forward $45 $-1 #
coedge $-1 $75 $74 $73 $126 reversed $29 $-1 #
edge $-1 $192 -55.624256111331519 $193 55.624256111331519 $73 $194 forward 7 unknown #
edge $-1 $193 -7.3707416079046464 $133 -4.3707416079046464 $122 $195 forward 7 unknown #
coedge $-1 $190 $196 $75 $129 forward $197 $-1 #
edge $-1 $132 4.3707416079046464 $192 7.3707416079046464 $128 $198 forward 7 unknown #
coedge $-1 $199 $76 $196 $200 forward $120 $-1 #
coedge $-1 $76 $199 $186 $201 forward $120 $-1 #
vertex $-1 $129 $202 #
vertex $-1 $201 $203 #
straight-curve $-1 0 -25.608852747981288 -4.3707416079046464 1 0 0 I I #
face $-1 $-1 $204 $17 $-1 $205 reversed single #
loop $-1 $-1 $84 $78 #
plane-surface $-1 0 25.608852747981288 0 0 -1 0 0 0 -1 forward_v I I I I #
coedge $-1 $143 $206 $207 $208 forward $79 $-1 #
coedge $-1 $207 $81 $83 $145 forward $49 $-1 #
coedge $-1 $81 $207 $209 $210 reversed $49 $-1 #
coedge $-1 $211 $84 $81 $142 forward $136 $-1 #
edge $-1 $148 12.981907253425433 $212 32.755534989745868 $141 $213 forward 7 unknown #
coedge $-1 $214 $138 $82 $144 forward $79 $-1 #
edge $-1 $215 -9.1030155465092406 $147 -4.3611231927004042 $143 $216 forward 7 unknown #
edge $-1 $148 -51.217705495962583 $215 -44.934636456366761 $83 $217 forward 7 unknown #
coedge $-1 $84 $211 $214 $218 reversed $136 $-1 #
vertex $-1 $218 $219 #
vertex $-1 $85 $220 #
straight-curve $-1 -35.850628375011084 25.608852747981288 60.405416558217539 0 0 -1 I I #
coedge $-1 $150 $150 $-1 $221 reversed $88 $-1 #
edge $-1 $222 0 $222 6.2831853071796004 $89 $223 forward 7 unknown #
vertex $-1 $92 $224 #
ellipse-curve $-1 -49.974648186668539 23.237906571076877 5.3097094962420934 0 0.6560590369687036 0.75470957328743171 1.5 0 0 1 I I #
coedge $-1 $154 $154 $-1 $225 reversed $95 $-1 #
edge $-1 $226 0 $226 6.2831853071796004 $96 $227 forward 7 unknown #
vertex $-1 $99 $228 #
ellipse-curve $-1 -41.500236299674064 23.237906571076877 5.3097094962420934 0 0.6560590369687036 0.75470957328743171 1.5 0 0 1 I I #
face $-1 $-1 $115 $15 $-1 $229 reversed single #
loop $-1 $-1 $173 $100 #
plane-surface $-1 0 25.608852747981288 0 0 -1 0 0 0 -1 forward_v I I I I #
coedge $-1 $230 $171 $174 $231 forward $101 $-1 #
coedge $-1 $103 $177 $104 $165 reversed $63 $-1 #
edge $-1 $116 -7.3707416079046464 $169 7.3707416079046464 $113 $232 forward 7 unknown #
coedge $-1 $105 $104 $230 $233 forward $41 $-1 #
edge $-1 $169 -55.624256111331519 $234 55.624256111331519 $162 $235 forward 7 unknown #
coedge $-1 $174 $173 $105 $167 reversed $159 $-1 #
edge $-1 $236 -55.624256111331519 $168 55.624256111331519 $166 $237 forward 7 unknown #
vertex $-1 $107 $238 #
vertex $-1 $163 $239 #
straight-curve $-1 55.624256111331519 0 -7.3707416079046464 0 -1 0 I I #
coedge $-1 $161 $240 $108 $172 reversed $101 $-1 #
edge $-1 $175 -25.608852747981288 $178 25.608852747981288 $171 $241 forward 7 unknown #
coedge $-1 $166 $109 $114 $180 forward $159 $-1 #
coedge $-1 $109 $166 $161 $231 reversed $159 $-1 #
vertex $-1 $110 $242 #
straight-curve $-1 0 25.608852747981288 7.3707416079046464 -1 0 0 I I #
coedge $-1 $162 $111 $240 $243 forward $63 $-1 #
vertex $-1 $172 $244 #
straight-curve $-1 0 -25.608852747981288 7.3707416079046464 1 0 0 I I #
edge $-1 $117 -7.3707416079046464 $168 7.3707416079046464 $114 $245 forward 7 unknown #
point $-1 55.624256111331519 -25.608852747981288 7.3707416079046464 #
point $-1 55.624256111331519 25.608852747981288 7.3707416079046464 #
face $-1 $-1 $197 $16 $-1 $246 reversed single #
loop $-1 $-1 $247 $119 #
plane-surface $-1 0 -31.894779191901407 -5.8707416079046464 0 1 0 0 0 1 forward_v I I I I #
coedge $-1 $248 $122 $131 $201 reversed $71 $-1 #
coedge $-1 $122 $248 $123 $189 reversed $71 $-1 #
coedge $-1 $124 $123 $249 $250 forward $45 $-1 #
edge $-1 $193 25.608852747981288 $251 31.894779191901407 $187 $252 forward 7 unknown #
coedge $-1 $253 $128 $124 $191 reversed $197 $-1 #
edge $-1 $254 -31.894779191901407 $192 -25.608852747981288 $190 $255 forward 7 unknown #
vertex $-1 $129 $256 #
vertex $-1 $189 $257 #
straight-curve $-1 0 -25.608852747981288 -7.3707416079046464 1 0 0 I I #
straight-curve $-1 55.624256111331519 -25.608852747981288 0 0 0 1 I I #
coedge $-1 $128 $253 $130 $200 reversed $197 $-1 #
loop $-1 $-1 $128 $183 #
straight-curve $-1 -55.624256111331519 -25.608852747981288 0 0 0 -1 I I #
coedge $-1 $131 $130 $258 $259 forward $120 $-1 #
edge $-1 $132 -3.1429632219600592 $260 3.1429632219600592 $196 $261 forward 7 unknown #
edge $-1 $262 -3.1429632219600592 $133 3.1429632219600592 $186 $263 forward 7 unknown #
point $-1 -55.624256111331519 -25.608852747981288 -4.3707416079046464 #
point $-1 55.624256111331519 -25.608852747981288 -4.3707416079046464 #
loop $-1 $-1 $209 $135 #
plane-surface $-1 -55.624256111331519 0 0 1 0 0 0 0 -1 forward_v I I I I #
coedge $-1 $138 $214 $264 $265 forward $79 $-1 #
coedge $-1 $140 $139 $138 $208 reversed $49 $-1 #
edge $-1 $266 -32.755534989745868 $215 -12.981907253425433 $138 $267 forward 7 unknown #
coedge $-1 $264 $268 $140 $210 forward $204 $-1 #
edge $-1 $212 -34.206813834711483 $266 -27.923744795115656 $209 $269 forward 7 unknown #
coedge $-1 $146 $141 $268 $270 reversed $136 $-1 #
vertex $-1 $142 $271 #
straight-curve $-1 -22.868721121585651 25.608852747981288 3.2486773845795369 -1 0 0 I I #
coedge $-1 $206 $143 $146 $218 forward $79 $-1 #
vertex $-1 $144 $272 #
straight-curve $-1 -35.850628375011084 29.969975940681692 7.3707416079046482 0 1 0 I I #
straight-curve $-1 -35.850628375011084 -13.045639911637977 36.850515928007425 0 -0.75470957328743171 0.6560590369687036 I I #
edge $-1 $147 35.850628375011084 $273 55.624256111331519 $146 $274 forward 7 unknown #
point $-1 -35.850628375011084 25.608852747981288 7.3707416079046464 #
point $-1 -35.850628375011084 25.608852747981288 3.2486773845795369 #
edge $-1 $275 1 $275 0 $150 $-1 forward 7 unknown #
vertex $-1 $151 $276 #
ellipse-curve $-1 -49.974648186668539 21.623487176613573 3.4525324684977514 0 0.6560590369687036 0.75470957328743171 1.5 0 0 1 I I #
point $-1 -48.474648186668539 23.237906571076874 5.3097094962420925 #
edge $-1 $277 1 $277 0 $154 $-1 forward 7 unknown #
vertex $-1 $155 $278 #
ellipse-curve $-1 -41.500236299674064 21.623487176613573 3.4525324684977514 0 0.6560590369687036 0.75470957328743171 1.5 0 0 1 I I #
point $-1 -40.000236299674064 23.237906571076874 5.3097094962420925 #
plane-surface $-1 55.624256111331519 0 0 -1 0 0 0 0 1 forward_v I I I I #
coedge $-1 $240 $161 $164 $233 reversed $101 $-1 #
edge $-1 $175 -7.3707416079046464 $236 7.3707416079046464 $174 $279 forward 7 unknown #
straight-curve $-1 55.624256111331519 -25.608852747981288 0 0 0 -1 I I #
edge $-1 $234 -25.608852747981288 $236 25.608852747981288 $230 $280 forward 7 unknown #
vertex $-1 $233 $281 #
straight-curve $-1 0 -25.608852747981288 -7.3707416079046464 -1 0 0 I I #
vertex $-1 $167 $282 #
straight-curve $-1 0 25.608852747981288 -7.3707416079046464 1 0 0 I I #
point $-1 55.624256111331519 25.608852747981288 -7.3707416079046464 #
point $-1 55.624256111331519 -25.608852747981288 -7.3707416079046464 #
coedge $-1 $171 $230 $177 $243 reversed $101 $-1 #
straight-curve $-1 -55.624256111331519 0 7.3707416079046464 0 -1 0 I I #
point $-1 -55.624256111331519 25.608852747981288 7.3707416079046464 #
edge $-1 $178 -7.3707416079046464 $234 7.3707416079046464 $240 $283 forward 7 unknown #
point $-1 -55.624256111331519 -25.608852747981288 7.3707416079046464 #
straight-curve $-1 55.624256111331519 25.608852747981288 0 0 0 -1 I I #
plane-surface $-1 -55.624256111331519 0 0 1 0 0 0 0 -1 forward_v I I I I #
coedge $-1 $249 $258 $253 $284 forward $184 $-1 #
coedge $-1 $187 $186 $285 $286 forward $71 $-1 #
coedge $-1 $285 $247 $188 $250 reversed $184 $-1 #
edge $-1 $251 -55.624256111331519 $254 55.624256111331519 $249 $287 forward 7 unknown #
vertex $-1 $286 $288 #
straight-curve $-1 55.624256111331519 0 -7.3707416079046464 0 -1 0 I I #
coedge $-1 $196 $190 $247 $284 reversed $197 $-1 #
vertex $-1 $191 $289 #
straight-curve $-1 -55.624256111331519 0 -7.3707416079046464 0 1 0 I I #
point $-1 -55.624256111331519 -25.608852747981288 -7.3707416079046464 #
point $-1 55.624256111331519 -25.608852747981288 -7.3707416079046464 #
coedge $-1 $247 $285 $199 $259 reversed $184 $-1 #
edge $-1 $260 -55.624256111331519 $262 55.624256111331519 $258 $290 forward 7 unknown #
vertex $-1 $200 $291 #
straight-curve $-1 -55.624256111331519 -28.751815969941347 -4.3707416079046464 0 -1 0 I I #
vertex $-1 $201 $292 #
straight-curve $-1 55.624256111331519 -28.751815969941347 -4.3707416079046464 0 1 0 I I #
coedge $-1 $268 $209 $206 $265 reversed $204 $-1 #
edge $-1 $273 -25.608852747981288 $266 -20.866960394172452 $264 $293 forward 7 unknown #
vertex $-1 $210 $294 #
straight-curve $-1 -22.868721121585651 20.866960394172445 7.3707416079046517 1 0 0 I I #
coedge $-1 $209 $264 $211 $270 forward $204 $-1 #
straight-curve $-1 -55.624256111331519 -0.20735712473642565 25.690366726748074 0 -0.75470957328743171 0.6560590369687036 I I #
edge $-1 $273 -7.3707416079046464 $212 -3.2486773845795338 $211 $295 forward 7 unknown #
point $-1 -55.624256111331519 25.608852747981288 3.2486773845795338 #
point $-1 -35.850628375011084 20.866960394172452 7.3707416079046482 #
vertex $-1 $218 $296 #
straight-curve $-1 0 25.608852747981288 7.3707416079046464 -1 0 0 I I #
vertex $-1 $221 $297 #
point $-1 -48.474648186668539 21.623487176613573 3.4525324684977514 #
vertex $-1 $225 $298 #
point $-1 -40.000236299674064 21.623487176613573 3.4525324684977514 #
straight-curve $-1 -55.624256111331519 25.608852747981288 0 0 0 -1 I I #
straight-curve $-1 -55.624256111331519 0 -7.3707416079046464 0 1 0 I I #
point $-1 -55.624256111331519 -25.608852747981288 -7.3707416079046464 #
point $-1 -55.624256111331519 25.608852747981288 -7.3707416079046464 #
straight-curve $-1 -55.624256111331519 -25.608852747981288 0 0 0 -1 I I #
edge $-1 $260 -1.5 $254 1.5 $253 $299 forward 7 unknown #
coedge $-1 $258 $249 $248 $286 reversed $184 $-1 #
edge $-1 $262 -1.5 $251 1.5 $248 $300 forward 7 unknown #
straight-curve $-1 0 -31.894779191901407 -7.3707416079046464 -1 0 0 I I #
point $-1 55.624256111331519 -31.894779191901407 -7.3707416079046464 #
point $-1 -55.624256111331519 -31.894779191901407 -7.3707416079046464 #
straight-curve $-1 0 -31.894779191901407 -4.3707416079046464 1 0 0 I I #
point $-1 -55.624256111331519 -31.894779191901407 -4.3707416079046464 #
point $-1 55.624256111331519 -31.894779191901407 -4.3707416079046464 #
straight-curve $-1 -55.624256111331519 0 7.3707416079046464 0 -1 0 I I #
point $-1 -55.624256111331519 20.866960394172452 7.3707416079046482 #
straight-curve $-1 -55.624256111331519 25.608852747981288 0 0 0 -1 I I #
point $-1 -55.624256111331519 25.608852747981288 7.3707416079046464 #
point $-1 -49.974648186668539 20.639398621160517 2.3204681085666037 #
point $-1 -41.500236299674064 20.639398621160517 2.3204681085666037 #
straight-curve $-1 -55.624256111331519 -31.894779191901407 -5.8707416079046464 0 0 -1 I I #
straight-curve $-1 55.624256111331519 -31.894779191901407 -5.8707416079046464 0 0 -1 I I #
End-of-ACIS-data 