500 0 10 0           
7 Unknown 11 ACIS 5.0 NT 24 Fri Mar 26 16:47:09 1999 
-1 9.9999999999999995e-007 1e-010 
body $-1 $10 $-1 $11 #
body $-1 $12 $-1 $13 #
body $-1 $14 $-1 $15 #
body $-1 $16 $-1 $17 #
body $-1 $18 $-1 $19 #
body $-1 $20 $-1 $21 #
body $-1 $22 $-1 $23 #
body $-1 $24 $-1 $25 #
body $-1 $26 $-1 $27 #
body $-1 $28 $-1 $29 #
lump $-1 $-1 $30 $0 #
transform $-1 1 0 0 0 1 0 0 0 1 49.110385448774679 22.480437434713622 6.076585662495865 1 rotate no_reflect no_shear #
lump $-1 $-1 $31 $1 #
transform $-1 1 0 0 0 1 0 0 0 1 49.110385448774679 22.480437434713622 6.076585662495865 1 rotate no_reflect no_shear #
lump $-1 $-1 $32 $2 #
transform $-1 1 0 0 0 1 0 0 0 1 49.110385448774679 22.480437434713622 6.076585662495865 1 rotate no_reflect no_shear #
lump $-1 $-1 $33 $3 #
transform $-1 1 0 0 0 1 0 0 0 1 49.110385448774679 22.480437434713622 6.076585662495865 1 rotate no_reflect no_shear #
lump $-1 $-1 $34 $4 #
transform $-1 1 0 0 0 1 0 0 0 1 49.110385448774679 22.480437434713622 6.076585662495865 1 rotate no_reflect no_shear #
lump $-1 $-1 $35 $5 #
transform $-1 1 0 0 0 1 0 0 0 1 49.110385448774679 22.480437434713622 6.076585662495865 1 rotate no_reflect no_shear #
lump $-1 $-1 $36 $6 #
transform $-1 1 0 0 0 1 0 0 0 1 49.110385448774679 22.480437434713622 6.076585662495865 1 rotate no_reflect no_shear #
lump $-1 $-1 $37 $7 #
transform $-1 1 0 0 0 1 0 0 0 1 49.110385448774679 22.480437434713622 6.076585662495865 1 rotate no_reflect no_shear #
lump $-1 $-1 $38 $8 #
transform $-1 1 0 0 0 1 0 0 0 1 49.110385448774679 22.480437434713622 6.076585662495865 1 rotate no_reflect no_shear #
lump $-1 $-1 $39 $9 #
transform $-1 1 0 0 0 1 0 0 0 1 49.110385448774679 22.480437434713622 6.076585662495865 1 rotate no_reflect no_shear #
shell $-1 $-1 $-1 $40 $-1 $10 #
shell $-1 $-1 $-1 $41 $-1 $12 #
shell $-1 $-1 $-1 $42 $-1 $14 #
shell $-1 $-1 $-1 $43 $-1 $16 #
shell $-1 $-1 $-1 $44 $-1 $18 #
shell $-1 $-1 $-1 $45 $-1 $20 #
shell $-1 $-1 $-1 $46 $-1 $22 #
shell $-1 $-1 $-1 $47 $-1 $24 #
shell $-1 $-1 $-1 $48 $-1 $26 #
shell $-1 $-1 $-1 $49 $-1 $28 #
face $-1 $50 $51 $30 $-1 $52 forward single #
face $-1 $53 $54 $31 $-1 $55 forward single #
face $-1 $56 $57 $32 $-1 $58 reversed single #
face $-1 $59 $60 $33 $-1 $61 forward single #
face $-1 $62 $63 $34 $-1 $64 forward single #
face $-1 $65 $66 $35 $-1 $67 forward single #
face $-1 $68 $69 $36 $-1 $70 reversed single #
face $-1 $71 $72 $37 $-1 $73 forward single #
face $-1 $74 $75 $38 $-1 $76 forward single #
face $-1 $77 $78 $39 $-1 $79 forward single #
face $-1 $80 $81 $30 $-1 $82 reversed single #
loop $-1 $-1 $83 $40 #
plane-surface $-1 0 0 6.076585662495865 0 0 1 1 0 0 forward_v I I I I #
face $-1 $84 $85 $31 $-1 $86 reversed single #
loop $-1 $-1 $87 $41 #
plane-surface $-1 -49.110385448774679 0 0 1 0 0 0 0 -1 forward_v I I I I #
face $-1 $88 $89 $32 $-1 $90 reversed single #
loop $-1 $-1 $91 $42 #
plane-surface $-1 42.553605714048189 -81.591173694766951 79.786670455556717 -1 0 0 0 -0.6018150307709319 0.79863550430605224 forward_v I I I I #
face $-1 $92 $93 $33 $-1 $94 forward single #
loop $-1 $95 $96 $43 #
cone-surface $-1 28.45360591958358 -18.309991784865066 2.3430508810428279 0 0.6018150307709319 -0.79863550430605224 1.5 0 0 1 I I 0 1 1.5 forward I I I I #
face $-1 $97 $98 $34 $-1 $99 forward single #
loop $-1 $100 $101 $44 #
cone-surface $-1 33.741105842507807 -18.309991784865066 2.3430508810428279 0 0.6018150307709319 -0.79863550430605224 1.5 0 0 1 I I 0 1 1.5 forward I I I I #
face $-1 $102 $103 $35 $-1 $104 forward single #
loop $-1 $105 $106 $45 #
cone-surface $-1 39.028605765432033 -18.309991784865066 2.3430508810428279 0 0.6018150307709319 -0.79863550430605224 1.5 0 0 1 I I 0 1 1.5 forward I I I I #
face $-1 $107 $108 $36 $-1 $109 reversed single #
loop $-1 $-1 $110 $46 #
plane-surface $-1 24.928605970967425 45.683822719380601 106.84480074858909 1 0 0 0 -0.6018150307709319 -0.79863550430605224 forward_v I I I I #
face $-1 $111 $112 $37 $-1 $113 forward single #
loop $-1 $114 $115 $47 #
cone-surface $-1 28.45360591958358 18.309991784865073 2.3430508810428243 0 -0.6018150307709319 -0.79863550430605224 1.5 0 0 1 I I 0 1 1.5 forward I I I I #
face $-1 $116 $117 $38 $-1 $118 forward single #
loop $-1 $119 $120 $48 #
cone-surface $-1 33.741105842507807 18.309991784865073 2.3430508810428243 0 -0.6018150307709319 -0.79863550430605224 1.5 0 0 1 I I 0 1 1.5 forward I I I I #
face $-1 $121 $122 $39 $-1 $123 forward single #
loop $-1 $124 $125 $49 #
cone-surface $-1 39.028605765432033 18.309991784865073 2.3430508810428243 0 -0.6018150307709319 -0.79863550430605224 1.5 0 0 1 I I 0 1 1.5 forward I I I I #
face $-1 $126 $127 $30 $-1 $128 reversed single #
loop $-1 $-1 $129 $50 #
plane-surface $-1 0 0 -6.076585662495865 0 0 1 1 0 0 forward_v I I I I #
coedge $-1 $130 $131 $132 $133 forward $51 $-1 #
face $-1 $134 $135 $31 $-1 $136 forward single #
loop $-1 $-1 $137 $53 #
plane-surface $-1 0 22.480437434713622 0 0 -1 0 0 0 -1 forward_v I I I I #
coedge $-1 $138 $139 $140 $141 forward $54 $-1 #
face $-1 $142 $143 $32 $-1 $144 reversed single #
loop $-1 $-1 $145 $56 #
plane-surface $-1 33.741105842507807 -22.480437434713629 1.3440755564631672 0 -0.6018150307709319 0.79863550430605224 1 0 0 forward_v I I I I #
coedge $-1 $146 $147 $148 $149 reversed $57 $-1 #
face $-1 $-1 $150 $33 $-1 $151 forward single #
loop $-1 $152 $153 $59 #
cone-surface $-1 28.45360591958358 -16.828311314349506 0.37679452437660377 0 0.6018150307709319 -0.79863550430605224 0.75 0 0 1 I I -0.70710678118654746 0.70710678118654768 0.75 forward I I I I #
loop $-1 $-1 $154 $43 #
coedge $-1 $96 $96 $155 $156 reversed $60 $-1 #
face $-1 $-1 $157 $34 $-1 $158 forward single #
loop $-1 $159 $160 $62 #
cone-surface $-1 33.741105842507807 -16.828311314349506 0.37679452437660377 0 0.6018150307709319 -0.79863550430605224 0.75 0 0 1 I I -0.70710678118654746 0.70710678118654768 0.75 forward I I I I #
loop $-1 $-1 $161 $44 #
coedge $-1 $101 $101 $162 $163 reversed $63 $-1 #
face $-1 $-1 $164 $35 $-1 $165 forward single #
loop $-1 $166 $167 $65 #
cone-surface $-1 39.028605765432033 -16.828311314349506 0.37679452437660377 0 0.6018150307709319 -0.79863550430605224 0.75 0 0 1 I I -0.70710678118654746 0.70710678118654768 0.75 forward I I I I #
loop $-1 $-1 $168 $45 #
coedge $-1 $106 $106 $169 $170 reversed $66 $-1 #
face $-1 $171 $172 $36 $-1 $173 reversed single #
loop $-1 $-1 $174 $68 #
plane-surface $-1 33.741105842507807 -13.426913540672722 28.402205849495544 0 0.6018150307709319 0.79863550430605224 1 0 0 forward_v I I I I #
coedge $-1 $175 $176 $177 $178 reversed $69 $-1 #
face $-1 $-1 $179 $37 $-1 $180 forward single #
loop $-1 $181 $182 $71 #
cone-surface $-1 28.45360591958358 16.828311314349513 0.37679452437660022 0 -0.6018150307709319 -0.79863550430605224 0.75 0 0 1 I I -0.70710678118654746 0.70710678118654768 0.75 forward I I I I #
loop $-1 $-1 $183 $47 #
coedge $-1 $115 $115 $184 $185 reversed $72 $-1 #
face $-1 $-1 $186 $38 $-1 $187 forward single #
loop $-1 $188 $189 $74 #
cone-surface $-1 33.741105842507807 16.828311314349513 0.37679452437660022 0 -0.6018150307709319 -0.79863550430605224 0.75 0 0 1 I I -0.70710678118654746 0.70710678118654768 0.75 forward I I I I #
loop $-1 $-1 $190 $48 #
coedge $-1 $120 $120 $191 $192 reversed $75 $-1 #
face $-1 $-1 $193 $39 $-1 $194 forward single #
loop $-1 $195 $196 $77 #
cone-surface $-1 39.028605765432033 16.828311314349513 0.37679452437660022 0 -0.6018150307709319 -0.79863550430605224 0.75 0 0 1 I I -0.70710678118654746 0.70710678118654768 0.75 forward I I I I #
loop $-1 $-1 $197 $49 #
coedge $-1 $125 $125 $198 $199 reversed $78 $-1 #
face $-1 $200 $201 $30 $-1 $202 reversed single #
loop $-1 $-1 $203 $80 #
plane-surface $-1 0 -22.480437434713622 0 0 1 0 0 0 1 forward_v I I I I #
coedge $-1 $204 $205 $206 $207 forward $81 $-1 #
coedge $-1 $208 $83 $209 $210 forward $51 $-1 #
coedge $-1 $83 $208 $211 $212 forward $51 $-1 #
coedge $-1 $213 $214 $83 $133 reversed $215 $-1 #
edge $-1 $216 -22.480437434713622 $217 22.480437434713622 $132 $218 forward 7 unknown #
face $-1 $219 $220 $31 $-1 $221 reversed single #
loop $-1 $-1 $140 $84 #
plane-surface $-1 -52.749032036272936 0 1.0101753008095651 0 0 1 1 0 0 forward_v I I I I #
coedge $-1 $222 $223 $139 $224 forward $85 $-1 #
coedge $-1 $225 $87 $226 $227 reversed $54 $-1 #
coedge $-1 $87 $225 $137 $224 reversed $54 $-1 #
coedge $-1 $228 $229 $87 $141 reversed $135 $-1 #
edge $-1 $230 -22.480437434713622 $231 22.480437434713622 $140 $232 forward 7 unknown #
face $-1 $233 $234 $32 $-1 $235 reversed single #
loop $-1 $-1 $236 $88 #
plane-surface $-1 24.928605970967425 -81.591173694766951 79.786670455556717 1 0 0 0 0.6018150307709319 -0.79863550430605224 forward_v I I I I #
coedge $-1 $237 $238 $239 $240 reversed $89 $-1 #
coedge $-1 $147 $91 $241 $242 reversed $57 $-1 #
coedge $-1 $91 $146 $237 $243 reversed $57 $-1 #
coedge $-1 $239 $244 $91 $149 forward $245 $-1 #
edge $-1 $246 18.315149412669854 $247 24.595402317492223 $148 $248 forward 7 unknown #
loop $-1 $-1 $155 $92 #
plane-surface $-1 33.741105842507807 -22.480437434713629 1.3440755564631672 0 -0.6018150307709319 0.79863550430605224 1 0 0 forward_v I I I I #
loop $-1 $-1 $249 $59 #
coedge $-1 $153 $153 $154 $250 reversed $93 $-1 #
coedge $-1 $154 $154 $153 $250 forward $95 $-1 #
coedge $-1 $155 $155 $96 $156 forward $150 $-1 #
edge $-1 $251 -1.8500850071907947e-015 $251 6.2831853071795987 $155 $252 forward 7 unknown #
loop $-1 $-1 $162 $97 #
plane-surface $-1 33.741105842507807 -22.480437434713629 1.3440755564631672 0 -0.6018150307709319 0.79863550430605224 1 0 0 forward_v I I I I #
loop $-1 $-1 $253 $62 #
coedge $-1 $160 $160 $161 $254 reversed $98 $-1 #
coedge $-1 $161 $161 $160 $254 forward $100 $-1 #
coedge $-1 $162 $162 $101 $163 forward $157 $-1 #
edge $-1 $255 -1.8500850071907947e-015 $255 6.2831853071795987 $162 $256 forward 7 unknown #
loop $-1 $-1 $169 $102 #
plane-surface $-1 33.741105842507807 -22.480437434713629 1.3440755564631672 0 -0.6018150307709319 0.79863550430605224 1 0 0 forward_v I I I I #
loop $-1 $-1 $257 $65 #
coedge $-1 $167 $167 $168 $258 reversed $103 $-1 #
coedge $-1 $168 $168 $167 $258 forward $105 $-1 #
coedge $-1 $169 $169 $106 $170 forward $164 $-1 #
edge $-1 $259 -1.8500850071907947e-015 $259 6.2831853071795987 $169 $260 forward 7 unknown #
face $-1 $261 $262 $36 $-1 $263 forward single #
loop $-1 $-1 $264 $107 #
plane-surface $-1 42.553605714048189 45.683822719380601 106.84480074858909 -1 0 0 0 0.6018150307709319 0.79863550430605224 forward_v I I I I #
coedge $-1 $265 $266 $267 $268 reversed $108 $-1 #
coedge $-1 $176 $110 $269 $270 reversed $69 $-1 #
coedge $-1 $110 $175 $265 $271 reversed $69 $-1 #
coedge $-1 $267 $272 $110 $178 forward $262 $-1 #
edge $-1 $273 0.36147392497667852 $274 6.6417268297990617 $177 $275 forward 7 unknown #
loop $-1 $-1 $184 $111 #
plane-surface $-1 33.741105842507807 -13.426913540672722 28.402205849495544 0 0.6018150307709319 0.79863550430605224 1 0 0 forward_v I I I I #
loop $-1 $-1 $276 $71 #
coedge $-1 $182 $182 $183 $277 reversed $112 $-1 #
coedge $-1 $183 $183 $182 $277 forward $114 $-1 #
coedge $-1 $184 $184 $115 $185 forward $179 $-1 #
edge $-1 $278 2.2478949356705044e-015 $278 6.2831853071796031 $184 $279 forward 7 unknown #
loop $-1 $-1 $191 $116 #
plane-surface $-1 33.741105842507807 -13.426913540672722 28.402205849495544 0 0.6018150307709319 0.79863550430605224 1 0 0 forward_v I I I I #
loop $-1 $-1 $280 $74 #
coedge $-1 $189 $189 $190 $281 reversed $117 $-1 #
coedge $-1 $190 $190 $189 $281 forward $119 $-1 #
coedge $-1 $191 $191 $120 $192 forward $186 $-1 #
edge $-1 $282 2.2478949356705044e-015 $282 6.2831853071796031 $191 $283 forward 7 unknown #
loop $-1 $-1 $198 $121 #
plane-surface $-1 33.741105842507807 -13.426913540672722 28.402205849495544 0 0.6018150307709319 0.79863550430605224 1 0 0 forward_v I I I I #
loop $-1 $-1 $284 $77 #
coedge $-1 $196 $196 $197 $285 reversed $122 $-1 #
coedge $-1 $197 $197 $196 $285 forward $124 $-1 #
coedge $-1 $198 $198 $125 $199 forward $193 $-1 #
edge $-1 $286 2.2478949356705044e-015 $286 6.2831853071796031 $198 $287 forward 7 unknown #
face $-1 $288 $289 $30 $-1 $290 reversed single #
loop $-1 $-1 $291 $126 #
plane-surface $-1 -49.110385448774679 0 0 1 0 0 0 0 -1 forward_v I I I I #
coedge $-1 $292 $211 $293 $294 forward $127 $-1 #
coedge $-1 $295 $129 $292 $296 forward $81 $-1 #
coedge $-1 $129 $295 $297 $298 forward $81 $-1 #
coedge $-1 $214 $213 $129 $207 reversed $215 $-1 #
edge $-1 $299 -22.480437434713622 $300 22.480437434713622 $206 $301 forward 7 unknown #
coedge $-1 $131 $130 $302 $303 forward $51 $-1 #
coedge $-1 $304 $305 $130 $210 reversed $289 $-1 #
edge $-1 $217 -49.110385448774679 $306 49.110385448774679 $209 $307 forward 7 unknown #
coedge $-1 $203 $308 $131 $212 reversed $127 $-1 #
edge $-1 $309 -49.110385448774679 $216 49.110385448774679 $211 $310 forward 7 unknown #
coedge $-1 $206 $132 $308 $311 forward $215 $-1 #
coedge $-1 $132 $206 $304 $312 reversed $215 $-1 #
loop $-1 $-1 $213 $288 #
vertex $-1 $133 $313 #
vertex $-1 $133 $314 #
straight-curve $-1 49.110385448774679 0 6.076585662495865 0 1 0 I I #
face $-1 $315 $316 $31 $-1 $317 reversed single #
loop $-1 $-1 $318 $134 #
plane-surface $-1 -52.749032036272936 0 -1.9898246991904349 0 0 1 1 0 0 forward_v I I I I #
coedge $-1 $319 $137 $320 $321 reversed $85 $-1 #
coedge $-1 $137 $319 $228 $322 reversed $85 $-1 #
edge $-1 $230 -1.0101753008095651 $323 1.9898246991904349 $137 $324 forward 7 unknown #
coedge $-1 $139 $138 $318 $325 forward $54 $-1 #
coedge $-1 $326 $327 $138 $227 forward $328 $-1 #
edge $-1 $329 -1.9898246991904349 $231 1.0101753008095651 $226 $330 forward 7 unknown #
coedge $-1 $331 $140 $223 $322 forward $135 $-1 #
coedge $-1 $140 $331 $326 $332 forward $135 $-1 #
vertex $-1 $224 $333 #
vertex $-1 $332 $334 #
straight-curve $-1 -49.110385448774679 0 1.0101753008095651 0 -1 0 I I #
face $-1 $-1 $245 $32 $-1 $335 forward single #
loop $-1 $-1 $336 $142 #
plane-surface $-1 0 -22.480437434713622 0 0 1 0 0 0 1 forward_v I I I I #
coedge $-1 $337 $338 $339 $340 reversed $143 $-1 #
coedge $-1 $341 $145 $147 $243 forward $89 $-1 #
coedge $-1 $145 $341 $337 $342 forward $89 $-1 #
coedge $-1 $339 $148 $145 $240 forward $245 $-1 #
edge $-1 $247 -25.683052792794285 $343 -8.0580530497135214 $239 $344 forward 7 unknown #
coedge $-1 $345 $346 $146 $242 forward $234 $-1 #
edge $-1 $347 -38.549259671315184 $246 -33.816749565282493 $241 $348 forward 7 unknown #
edge $-1 $247 -7.8637286608981825 $347 -8.8817612989391469e-015 $147 $349 forward 7 unknown #
coedge $-1 $148 $339 $345 $350 forward $245 $-1 #
loop $-1 $-1 $339 $233 #
vertex $-1 $242 $351 #
vertex $-1 $149 $352 #
straight-curve $-1 42.553605714048189 -40.795586847383476 6.0765856624958658 0 1 0 I I #
coedge $-1 $249 $249 $-1 $353 reversed $152 $-1 #
edge $-1 $354 0 $354 6.2831853071796004 $153 $355 forward 7 unknown #
vertex $-1 $156 $356 #
ellipse-curve $-1 28.45360591958358 -19.340310982302434 3.7103306094795214 0 -0.6018150307709319 0.79863550430605224 1.5 0 0 1 I I #
coedge $-1 $253 $253 $-1 $357 reversed $159 $-1 #
edge $-1 $358 0 $358 6.2831853071796004 $160 $359 forward 7 unknown #
vertex $-1 $163 $360 #
ellipse-curve $-1 33.741105842507807 -19.340310982302434 3.7103306094795214 0 -0.6018150307709319 0.79863550430605224 1.5 0 0 1 I I #
coedge $-1 $257 $257 $-1 $361 reversed $166 $-1 #
edge $-1 $362 0 $362 6.2831853071796004 $167 $363 forward 7 unknown #
vertex $-1 $170 $364 #
ellipse-curve $-1 39.028605765432033 -19.340310982302434 3.7103306094795214 0 -0.6018150307709319 0.79863550430605224 1.5 0 0 1 I I #
face $-1 $-1 $365 $36 $-1 $366 reversed single #
loop $-1 $-1 $177 $171 #
plane-surface $-1 0 0 6.076585662495865 0 0 1 1 0 0 forward_v I I I I #
coedge $-1 $367 $368 $369 $370 reversed $172 $-1 #
coedge $-1 $371 $174 $176 $271 forward $108 $-1 #
coedge $-1 $174 $371 $367 $372 forward $108 $-1 #
coedge $-1 $369 $177 $174 $268 forward $262 $-1 #
edge $-1 $274 8.0580530497135214 $373 25.683052792794285 $267 $374 forward 7 unknown #
coedge $-1 $375 $376 $175 $270 forward $365 $-1 #
edge $-1 $377 -52.078324817831387 $273 -47.345814711798681 $269 $378 forward 7 unknown #
edge $-1 $274 37.097146208529061 $377 44.960874869427258 $176 $379 forward 7 unknown #
coedge $-1 $177 $369 $375 $380 forward $262 $-1 #
vertex $-1 $178 $381 #
vertex $-1 $178 $382 #
straight-curve $-1 24.928605970967425 22.8419113596903 6.0765856624958658 0 -1 0 I I #
coedge $-1 $276 $276 $-1 $383 reversed $181 $-1 #
edge $-1 $384 0 $384 6.2831853071796004 $182 $385 forward 7 unknown #
vertex $-1 $185 $386 #
ellipse-curve $-1 28.45360591958358 19.340310982302434 3.7103306094795094 0 0.6018150307709319 0.79863550430605224 1.5 0 0 1 I I #
coedge $-1 $280 $280 $-1 $387 reversed $188 $-1 #
edge $-1 $388 0 $388 6.2831853071796004 $189 $389 forward 7 unknown #
vertex $-1 $192 $390 #
ellipse-curve $-1 33.741105842507807 19.340310982302434 3.7103306094795094 0 0.6018150307709319 0.79863550430605224 1.5 0 0 1 I I #
coedge $-1 $284 $284 $-1 $391 reversed $195 $-1 #
edge $-1 $392 0 $392 6.2831853071796004 $196 $393 forward 7 unknown #
vertex $-1 $199 $394 #
ellipse-curve $-1 39.028605765432033 19.340310982302434 3.7103306094795094 0 0.6018150307709319 0.79863550430605224 1.5 0 0 1 I I #
face $-1 $-1 $215 $30 $-1 $395 reversed single #
loop $-1 $-1 $304 $200 #
plane-surface $-1 0 22.480437434713622 0 0 -1 0 0 0 -1 forward_v I I I I #
coedge $-1 $396 $302 $305 $397 forward $201 $-1 #
coedge $-1 $308 $203 $204 $296 reversed $127 $-1 #
coedge $-1 $302 $396 $203 $294 reversed $201 $-1 #
edge $-1 $309 -6.076585662495865 $398 6.076585662495865 $293 $399 forward 7 unknown #
coedge $-1 $205 $204 $396 $400 forward $81 $-1 #
edge $-1 $300 -49.110385448774679 $398 49.110385448774679 $292 $401 forward 7 unknown #
coedge $-1 $305 $304 $205 $298 reversed $289 $-1 #
edge $-1 $402 -49.110385448774679 $299 49.110385448774679 $297 $403 forward 7 unknown #
vertex $-1 $207 $404 #
vertex $-1 $311 $405 #
straight-curve $-1 49.110385448774679 0 -6.076585662495865 0 -1 0 I I #
coedge $-1 $291 $293 $208 $303 reversed $201 $-1 #
edge $-1 $306 -22.480437434713622 $309 22.480437434713622 $302 $406 forward 7 unknown #
coedge $-1 $297 $209 $214 $312 forward $289 $-1 #
coedge $-1 $209 $297 $291 $397 reversed $289 $-1 #
vertex $-1 $210 $407 #
straight-curve $-1 0 22.480437434713622 6.076585662495865 -1 0 0 I I #
coedge $-1 $211 $292 $213 $311 reversed $127 $-1 #
vertex $-1 $303 $408 #
straight-curve $-1 0 -22.480437434713622 6.076585662495865 1 0 0 I I #
edge $-1 $216 -6.076585662495865 $300 6.076585662495865 $213 $409 forward 7 unknown #
edge $-1 $217 -6.076585662495865 $299 6.076585662495865 $214 $410 forward 7 unknown #
point $-1 49.110385448774679 -22.480437434713622 6.076585662495865 #
point $-1 49.110385448774679 22.480437434713622 6.076585662495865 #
face $-1 $-1 $328 $31 $-1 $411 reversed single #
loop $-1 $-1 $412 $219 #
plane-surface $-1 -56.387678623771194 0 -0.48982469919043492 1 0 0 0 0 -1 forward_v I I I I #
coedge $-1 $413 $320 $225 $325 reversed $220 $-1 #
coedge $-1 $223 $222 $412 $414 reversed $85 $-1 #
coedge $-1 $318 $415 $222 $321 forward $220 $-1 #
edge $-1 $416 -3.6386465874982576 $323 3.6386465874982576 $222 $417 forward 7 unknown #
edge $-1 $230 -3.6386465874982576 $418 3.6386465874982576 $223 $419 forward 7 unknown #
vertex $-1 $224 $420 #
straight-curve $-1 -49.110385448774679 22.480437434713622 0 0 0 -1 I I #
edge $-1 $329 -22.480437434713622 $323 22.480437434713622 $318 $421 forward 7 unknown #
coedge $-1 $422 $226 $229 $332 reversed $328 $-1 #
coedge $-1 $226 $422 $413 $423 reversed $328 $-1 #
loop $-1 $-1 $226 $315 #
vertex $-1 $227 $424 #
straight-curve $-1 -49.110385448774679 -22.480437434713622 0 0 0 1 I I #
coedge $-1 $229 $228 $425 $426 forward $135 $-1 #
edge $-1 $427 -3.6386465874982576 $231 3.6386465874982576 $326 $428 forward 7 unknown #
point $-1 -49.110385448774679 22.480437434713622 1.0101753008095651 #
point $-1 -49.110385448774679 -22.480437434713622 1.0101753008095651 #
plane-surface $-1 0 0 6.076585662495865 0 0 1 1 0 0 forward_v I I I I #
coedge $-1 $346 $345 $338 $429 forward $234 $-1 #
coedge $-1 $338 $236 $238 $342 reversed $143 $-1 #
coedge $-1 $236 $337 $336 $429 reversed $143 $-1 #
coedge $-1 $244 $239 $236 $340 forward $245 $-1 #
edge $-1 $343 -24.595402317492223 $430 -18.315149412669854 $339 $431 forward 7 unknown #
coedge $-1 $238 $237 $346 $432 reversed $89 $-1 #
edge $-1 $433 8.8817612989391469e-015 $343 7.8637286608981825 $337 $434 forward 7 unknown #
vertex $-1 $240 $435 #
straight-curve $-1 16.870552921253903 -16.200184529891253 6.076585662495865 -1 0 0 I I #
coedge $-1 $336 $241 $244 $350 reversed $234 $-1 #
coedge $-1 $241 $336 $341 $432 forward $234 $-1 #
vertex $-1 $242 $436 #
straight-curve $-1 42.553605714048189 -22.480437434713622 39.893335227778358 0 0 1 I I #
straight-curve $-1 42.553605714048189 -22.480437434713629 1.3440755564631672 0 -0.79863550430605224 -0.6018150307709319 I I #
edge $-1 $430 24.928605970967425 $246 42.553605714048189 $345 $437 forward 7 unknown #
point $-1 42.553605714048189 -22.480437434713622 6.076585662495865 #
point $-1 42.553605714048189 -16.200184529891253 6.076585662495865 #
edge $-1 $438 1 $438 0 $249 $-1 forward 7 unknown #
vertex $-1 $250 $439 #
ellipse-curve $-1 28.45360591958358 -17.279672587427704 0.97577115260614311 0 -0.6018150307709319 0.79863550430605224 1.5 0 0 1 I I #
point $-1 29.95360591958358 -19.34031098230243 3.7103306094795121 #
edge $-1 $440 1 $440 0 $253 $-1 forward 7 unknown #
vertex $-1 $254 $441 #
ellipse-curve $-1 33.741105842507807 -17.279672587427704 0.97577115260614311 0 -0.6018150307709319 0.79863550430605224 1.5 0 0 1 I I #
point $-1 35.241105842507807 -19.34031098230243 3.7103306094795121 #
edge $-1 $442 1 $442 0 $257 $-1 forward 7 unknown #
vertex $-1 $258 $443 #
ellipse-curve $-1 39.028605765432033 -17.279672587427704 0.97577115260614311 0 -0.6018150307709319 0.79863550430605224 1.5 0 0 1 I I #
point $-1 40.528605765432033 -19.34031098230243 3.7103306094795121 #
loop $-1 $-1 $269 $261 #
plane-surface $-1 0 22.480437434713622 0 0 -1 0 0 0 -1 forward_v I I I I #
coedge $-1 $368 $264 $266 $372 reversed $172 $-1 #
coedge $-1 $264 $367 $444 $445 reversed $172 $-1 #
coedge $-1 $272 $267 $264 $370 forward $262 $-1 #
edge $-1 $373 -6.6417268297990617 $446 -0.36147392497667852 $369 $447 forward 7 unknown #
coedge $-1 $266 $265 $376 $448 reversed $108 $-1 #
edge $-1 $449 -44.960874869427258 $373 -37.097146208529061 $367 $450 forward 7 unknown #
vertex $-1 $268 $451 #
straight-curve $-1 16.870552921253903 16.200184529891246 6.0765856624958641 1 0 0 I I #
coedge $-1 $444 $269 $272 $380 reversed $365 $-1 #
coedge $-1 $269 $444 $371 $448 forward $365 $-1 #
vertex $-1 $270 $452 #
straight-curve $-1 24.928605970967425 22.480437434713622 53.422400374294547 0 0 1 I I #
straight-curve $-1 24.928605970967425 -13.426913540672722 28.402205849495544 0 0.79863550430605224 -0.6018150307709319 I I #
edge $-1 $446 -42.553605714048189 $273 -24.928605970967425 $375 $453 forward 7 unknown #
point $-1 24.928605970967425 22.480437434713622 6.076585662495865 #
point $-1 24.928605970967425 16.200184529891239 6.0765856624958694 #
edge $-1 $454 1 $454 0 $276 $-1 forward 7 unknown #
vertex $-1 $277 $455 #
ellipse-curve $-1 28.45360591958358 17.279672587427712 0.97577115260613956 0 0.6018150307709319 0.79863550430605224 1.5 0 0 1 I I #
point $-1 29.95360591958358 19.340310982302437 3.7103306094795085 #
edge $-1 $456 1 $456 0 $280 $-1 forward 7 unknown #
vertex $-1 $281 $457 #
ellipse-curve $-1 33.741105842507807 17.279672587427712 0.97577115260613956 0 0.6018150307709319 0.79863550430605224 1.5 0 0 1 I I #
point $-1 35.241105842507807 19.340310982302437 3.7103306094795085 #
edge $-1 $458 1 $458 0 $284 $-1 forward 7 unknown #
vertex $-1 $285 $459 #
ellipse-curve $-1 39.028605765432033 17.279672587427712 0.97577115260613956 0 0.6018150307709319 0.79863550430605224 1.5 0 0 1 I I #
point $-1 40.528605765432033 19.340310982302437 3.7103306094795085 #
plane-surface $-1 49.110385448774679 0 0 -1 0 0 0 0 1 forward_v I I I I #
coedge $-1 $293 $291 $295 $400 reversed $201 $-1 #
edge $-1 $306 -6.076585662495865 $402 6.076585662495865 $305 $460 forward 7 unknown #
vertex $-1 $400 $461 #
straight-curve $-1 -49.110385448774679 -22.480437434713622 0 0 0 -1 I I #
edge $-1 $398 -22.480437434713622 $402 22.480437434713622 $396 $462 forward 7 unknown #
straight-curve $-1 0 -22.480437434713622 -6.076585662495865 -1 0 0 I I #
vertex $-1 $298 $463 #
straight-curve $-1 0 22.480437434713622 -6.076585662495865 1 0 0 I I #
point $-1 49.110385448774679 22.480437434713622 -6.076585662495865 #
point $-1 49.110385448774679 -22.480437434713622 -6.076585662495865 #
straight-curve $-1 -49.110385448774679 0 6.076585662495865 0 -1 0 I I #
point $-1 -49.110385448774679 22.480437434713622 6.076585662495865 #
point $-1 -49.110385448774679 -22.480437434713622 6.076585662495865 #
straight-curve $-1 49.110385448774679 -22.480437434713622 0 0 0 -1 I I #
straight-curve $-1 49.110385448774679 22.480437434713622 0 0 0 -1 I I #
plane-surface $-1 0 -22.480437434713622 0 0 1 0 0 0 1 forward_v I I I I #
coedge $-1 $464 $425 $319 $414 forward $316 $-1 #
coedge $-1 $415 $318 $327 $423 forward $220 $-1 #
edge $-1 $418 -1.5 $416 1.5 $319 $465 forward 7 unknown #
coedge $-1 $320 $413 $464 $466 forward $220 $-1 #
vertex $-1 $321 $467 #
straight-curve $-1 -52.749032036272936 22.480437434713622 -1.9898246991904349 1 0 0 I I #
vertex $-1 $322 $468 #
straight-curve $-1 -52.749032036272936 22.480437434713622 1.0101753008095651 -1 0 0 I I #
point $-1 -49.110385448774679 22.480437434713622 -1.9898246991904349 #
straight-curve $-1 -49.110385448774679 0 -1.9898246991904349 0 1 0 I I #
coedge $-1 $327 $326 $469 $470 forward $328 $-1 #
edge $-1 $329 -3.6386465874982576 $471 3.6386465874982576 $327 $472 forward 7 unknown #
point $-1 -49.110385448774679 -22.480437434713622 -1.9898246991904349 #
coedge $-1 $412 $469 $331 $426 reversed $316 $-1 #
edge $-1 $418 -22.480437434713622 $427 22.480437434713622 $425 $473 forward 7 unknown #
vertex $-1 $426 $474 #
straight-curve $-1 -52.749032036272936 -22.480437434713622 1.0101753008095651 1 0 0 I I #
edge $-1 $430 33.816749565282493 $433 38.549259671315184 $336 $475 forward 7 unknown #
vertex $-1 $350 $476 #
straight-curve $-1 24.928605970967425 -40.795586847383476 6.0765856624958658 0 -1 0 I I #
edge $-1 $433 8.0580530497135214 $347 25.683052792794285 $346 $477 forward 7 unknown #
vertex $-1 $432 $478 #
straight-curve $-1 24.928605970967425 -22.480437434713629 1.3440755564631672 0 0.79863550430605224 0.6018150307709319 I I #
point $-1 24.928605970967425 -16.200184529891253 6.076585662495865 #
point $-1 42.553605714048189 -22.480437434713622 1.3440755564631726 #
straight-curve $-1 0 -22.480437434713622 6.076585662495865 1 0 0 I I #
vertex $-1 $353 $479 #
point $-1 29.95360591958358 -17.279672587427704 0.97577115260614311 #
vertex $-1 $357 $480 #
point $-1 35.241105842507807 -17.279672587427704 0.97577115260614311 #
vertex $-1 $361 $481 #
point $-1 40.528605765432033 -17.279672587427704 0.97577115260614311 #
coedge $-1 $376 $375 $368 $445 forward $365 $-1 #
edge $-1 $446 47.345814711798681 $449 52.078324817831387 $444 $482 forward 7 unknown #
vertex $-1 $380 $483 #
straight-curve $-1 42.553605714048189 22.8419113596903 6.0765856624958658 0 1 0 I I #
edge $-1 $449 -25.683052792794285 $377 -8.0580530497135214 $376 $484 forward 7 unknown #
vertex $-1 $448 $485 #
straight-curve $-1 42.553605714048189 -13.426913540672722 28.402205849495544 0 -0.79863550430605224 0.6018150307709319 I I #
point $-1 42.553605714048189 16.200184529891239 6.0765856624958694 #
point $-1 24.928605970967425 22.480437434713622 1.3440755564631637 #
straight-curve $-1 0 22.480437434713622 6.076585662495865 -1 0 0 I I #
vertex $-1 $383 $486 #
point $-1 29.95360591958358 17.279672587427712 0.97577115260613956 #
vertex $-1 $387 $487 #
point $-1 35.241105842507807 17.279672587427712 0.97577115260613956 #
vertex $-1 $391 $488 #
point $-1 40.528605765432033 17.279672587427712 0.97577115260613956 #
straight-curve $-1 -49.110385448774679 22.480437434713622 0 0 0 -1 I I #
point $-1 -49.110385448774679 -22.480437434713622 -6.076585662495865 #
straight-curve $-1 -49.110385448774679 0 -6.076585662495865 0 1 0 I I #
point $-1 -49.110385448774679 22.480437434713622 -6.076585662495865 #
coedge $-1 $469 $412 $415 $466 reversed $316 $-1 #
straight-curve $-1 -56.387678623771194 22.480437434713622 -0.48982469919043492 0 0 -1 I I #
edge $-1 $471 -22.480437434713622 $416 22.480437434713622 $464 $489 forward 7 unknown #
point $-1 -56.387678623771194 22.480437434713622 -1.9898246991904349 #
point $-1 -56.387678623771194 22.480437434713622 1.0101753008095651 #
coedge $-1 $425 $464 $422 $470 reversed $316 $-1 #
edge $-1 $427 -1.5 $471 1.5 $469 $490 forward 7 unknown #
vertex $-1 $466 $491 #
straight-curve $-1 -52.749032036272936 -22.480437434713622 -1.9898246991904349 -1 0 0 I I #
straight-curve $-1 -56.387678623771194 0 1.0101753008095651 0 -1 0 I I #
point $-1 -56.387678623771194 -22.480437434713622 1.0101753008095651 #
straight-curve $-1 24.928605970967425 -22.480437434713622 39.893335227778358 0 0 -1 I I #
point $-1 24.928605970967425 -22.480437434713622 6.076585662495865 #
straight-curve $-1 16.870552921253903 -22.480437434713622 1.3440755564631734 1 0 0 I I #
point $-1 24.928605970967425 -22.480437434713622 1.3440755564631726 #
point $-1 28.45360591958358 -16.376950041271307 -0.22218210385293558 #
point $-1 33.741105842507807 -16.376950041271307 -0.22218210385293558 #
point $-1 39.028605765432033 -16.376950041271307 -0.22218210385293558 #
straight-curve $-1 42.553605714048189 22.480437434713622 53.422400374294547 0 0 -1 I I #
point $-1 42.553605714048189 22.480437434713622 6.076585662495865 #
straight-curve $-1 16.870552921253903 22.480437434713622 1.3440755564631655 -1 0 0 I I #
point $-1 42.553605714048189 22.480437434713622 1.3440755564631637 #
point $-1 28.45360591958358 16.376950041271314 -0.22218210385293913 #
point $-1 33.741105842507807 16.376950041271314 -0.22218210385293913 #
point $-1 39.028605765432033 16.376950041271314 -0.22218210385293913 #
straight-curve $-1 -56.387678623771194 0 -1.9898246991904349 0 1 0 I I #
straight-curve $-1 -56.387678623771194 -22.480437434713622 -0.48982469919043492 0 0 -1 I I #
point $-1 -56.387678623771194 -22.480437434713622 -1.9898246991904349 #
End-of-ACIS-data 