500 0 9 0           
7 Unknown 11 ACIS 5.0 NT 24 Fri Mar 26 14:59:39 1999 
-1 9.9999999999999995e-007 1e-010 
body $-1 $9 $-1 $10 #
body $-1 $11 $-1 $12 #
body $-1 $13 $-1 $14 #
body $-1 $15 $-1 $16 #
body $-1 $17 $-1 $18 #
body $-1 $19 $-1 $20 #
body $-1 $21 $-1 $22 #
body $-1 $23 $-1 $24 #
body $-1 $25 $-1 $26 #
lump $-1 $-1 $27 $0 #
transform $-1 1 0 0 0 1 0 0 0 1 46.070741904965359 20.847759412520659 7.841943841764035 1 rotate no_reflect no_shear #
lump $-1 $-1 $28 $1 #
transform $-1 1 0 0 0 1 0 0 0 1 46.070741904965359 20.847759412520659 7.841943841764035 1 rotate no_reflect no_shear #
lump $-1 $-1 $29 $2 #
transform $-1 1 0 0 0 1 0 0 0 1 46.070741904965359 20.847759412520659 7.841943841764035 1 rotate no_reflect no_shear #
lump $-1 $-1 $30 $3 #
transform $-1 1 0 0 0 1 0 0 0 1 46.070741904965359 20.847759412520659 7.841943841764035 1 rotate no_reflect no_shear #
lump $-1 $-1 $31 $4 #
transform $-1 1 0 0 0 1 0 0 0 1 46.070741904965359 20.847759412520659 7.841943841764035 1 rotate no_reflect no_shear #
lump $-1 $-1 $32 $5 #
transform $-1 1 0 0 0 1 0 0 0 1 46.070741904965359 20.847759412520659 7.841943841764035 1 rotate no_reflect no_shear #
lump $-1 $-1 $33 $6 #
transform $-1 1 0 0 0 1 0 0 0 1 46.070741904965359 20.847759412520659 7.841943841764035 1 rotate no_reflect no_shear #
lump $-1 $-1 $34 $7 #
transform $-1 1 0 0 0 1 0 0 0 1 46.070741904965359 20.847759412520659 7.841943841764035 1 rotate no_reflect no_shear #
lump $-1 $-1 $35 $8 #
transform $-1 1 0 0 0 1 0 0 0 1 46.070741904965359 20.847759412520659 7.841943841764035 1 rotate no_reflect no_shear #
shell $-1 $-1 $-1 $36 $-1 $9 #
shell $-1 $-1 $-1 $37 $-1 $11 #
shell $-1 $-1 $-1 $38 $-1 $13 #
shell $-1 $-1 $-1 $39 $-1 $15 #
shell $-1 $-1 $-1 $40 $-1 $17 #
shell $-1 $-1 $-1 $41 $-1 $19 #
shell $-1 $-1 $-1 $42 $-1 $21 #
shell $-1 $-1 $-1 $43 $-1 $23 #
shell $-1 $-1 $-1 $44 $-1 $25 #
face $-1 $45 $46 $27 $-1 $47 forward single #
face $-1 $48 $49 $28 $-1 $50 reversed single #
face $-1 $51 $52 $29 $-1 $53 reversed single #
face $-1 $54 $55 $30 $-1 $56 reversed single #
face $-1 $57 $58 $31 $-1 $59 forward single #
face $-1 $60 $61 $32 $-1 $62 forward single #
face $-1 $63 $64 $33 $-1 $65 reversed single #
face $-1 $66 $67 $34 $-1 $68 forward single #
face $-1 $69 $70 $35 $-1 $71 forward single #
face $-1 $72 $73 $27 $-1 $74 reversed single #
loop $-1 $-1 $75 $36 #
plane-surface $-1 0 0 7.841943841764035 0 0 1 1 0 0 forward_v I I I I #
face $-1 $76 $77 $28 $-1 $78 reversed single #
loop $-1 $-1 $79 $37 #
plane-surface $-1 -34.88591432096797 -15.778932445031264 0 1 0 0 0 0 -1 forward_v I I I I #
face $-1 $80 $81 $29 $-1 $82 reversed single #
loop $-1 $-1 $83 $38 #
plane-surface $-1 -32.63638427120263 10.710105477541871 0 0 1 0 0 0 1 forward_v I I I I #
face $-1 $84 $85 $30 $-1 $86 reversed single #
loop $-1 $-1 $87 $39 #
plane-surface $-1 81.988423685444388 10.710105477541871 125.58536970171242 0 -1 0 -0.87461971476443456 0 -0.48480960649040278 forward_v I I I I #
face $-1 $88 $89 $31 $-1 $90 forward single #
loop $-1 $91 $92 $40 #
cone-surface $-1 43.222239641704817 6.227305645392299 3.6595291190269594 -0.87461971476443456 0 -0.48480960649040278 0.24240480324520139 0 -0.43730985738221728 1 I I 0 1 0.5 forward I I I I #
face $-1 $93 $94 $32 $-1 $95 forward single #
loop $-1 $96 $97 $41 #
cone-surface $-1 43.222239641704817 8.9169855446820421 3.6595291190269594 -0.87461971476443456 0 -0.48480960649040278 0.24240480324520139 0 -0.43730985738221728 1 I I 0 1 0.5 forward I I I I #
face $-1 $98 $99 $33 $-1 $100 reversed single #
loop $-1 $-1 $101 $42 #
plane-surface $-1 -110.07759565198553 -3.0576581270261052 66.307486475317035 0 1 0 -0.69465837861970381 0 0.71933979245794832 forward_v I I I I #
face $-1 $102 $103 $34 $-1 $104 forward single #
loop $-1 $105 $106 $43 #
cone-surface $-1 -41.574957037382163 -1.2429609490447646 3.4690423204102823 0.69465837861970381 0 -0.71933979245794832 0.35966989622897416 0 0.3473291893098519 1 I I 0 1 0.5 forward I I I I #
face $-1 $107 $108 $35 $-1 $109 forward single #
loop $-1 $110 $111 $44 #
cone-surface $-1 -41.574957037382163 1.4790848179272444 3.4690423204102823 0.69465837861970381 0 -0.71933979245794832 0.35966989622897416 0 0.3473291893098519 1 I I 0 1 0.5 forward I I I I #
face $-1 $112 $113 $27 $-1 $114 reversed single #
loop $-1 $-1 $115 $45 #
plane-surface $-1 0 0 -7.841943841764035 0 0 1 1 0 0 forward_v I I I I #
coedge $-1 $116 $117 $118 $119 forward $46 $-1 #
face $-1 $120 $121 $28 $-1 $122 reversed single #
loop $-1 $-1 $123 $48 #
plane-surface $-1 -32.63638427120263 -10.71010547754187 0 0 -1 0 0 0 -1 forward_v I I I I #
coedge $-1 $124 $125 $126 $127 forward $49 $-1 #
face $-1 $128 $129 $29 $-1 $130 reversed single #
loop $-1 $-1 $131 $51 #
plane-surface $-1 -34.88591432096797 15.778932445031266 0 1 0 0 0 0 -1 forward_v I I I I #
coedge $-1 $132 $133 $134 $135 forward $52 $-1 #
face $-1 $136 $137 $30 $-1 $138 reversed single #
loop $-1 $-1 $139 $54 #
plane-surface $-1 1.3996653976310114 7.5721455950371706 80.914293194378089 0.87461971476443456 0 0.48480960649040278 0.48480960649040278 0 -0.87461971476443456 forward_v I I I I #
coedge $-1 $140 $141 $142 $143 reversed $55 $-1 #
face $-1 $-1 $144 $31 $-1 $145 forward single #
loop $-1 $146 $147 $57 #
cone-surface $-1 42.238289126083572 6.227305645392299 3.1141164622669351 -0.87461971476443456 0 -0.48480960649040278 0.12120240162260069 0 -0.21865492869110864 1 I I -0.70710678118654746 0.70710678118654746 0.25 forward I I I I #
loop $-1 $-1 $148 $40 #
coedge $-1 $92 $92 $149 $150 reversed $58 $-1 #
face $-1 $-1 $151 $32 $-1 $152 forward single #
loop $-1 $153 $154 $60 #
cone-surface $-1 42.238289126083572 8.9169855446820421 3.1141164622669351 -0.87461971476443456 0 -0.48480960649040278 0.12120240162260069 0 -0.21865492869110864 1 I I -0.70710678118654746 0.70710678118654746 0.25 forward I I I I #
loop $-1 $-1 $155 $41 #
coedge $-1 $97 $97 $156 $157 reversed $61 $-1 #
face $-1 $158 $159 $33 $-1 $160 reversed single #
loop $-1 $-1 $161 $63 #
plane-surface $-1 -46.070741904965374 0.11806193444123991 0.026450634714066723 -0.69465837861970381 0 0.71933979245794832 0.71933979245794832 0 0.69465837861970381 forward_v I I I I #
coedge $-1 $162 $163 $164 $165 reversed $64 $-1 #
face $-1 $-1 $166 $34 $-1 $167 forward single #
loop $-1 $168 $169 $66 #
cone-surface $-1 -40.9520975498355 -1.2429609490447646 2.8240524544670276 0.69465837861970381 0 -0.71933979245794832 0.17983494811448708 0 0.17366459465492595 1 I I -0.70710678118654746 0.70710678118654746 0.25 forward I I I I #
loop $-1 $-1 $170 $43 #
coedge $-1 $106 $106 $171 $172 reversed $67 $-1 #
face $-1 $-1 $173 $35 $-1 $174 forward single #
loop $-1 $175 $176 $69 #
cone-surface $-1 -40.9520975498355 1.4790848179272444 2.8240524544670276 0.69465837861970381 0 -0.71933979245794832 0.17983494811448708 0 0.17366459465492595 1 I I -0.70710678118654746 0.70710678118654746 0.25 forward I I I I #
loop $-1 $-1 $177 $44 #
coedge $-1 $111 $111 $178 $179 reversed $70 $-1 #
face $-1 $180 $181 $27 $-1 $182 reversed single #
loop $-1 $-1 $183 $72 #
plane-surface $-1 0 -20.847759412520659 0 0 1 0 0 0 1 forward_v I I I I #
coedge $-1 $184 $185 $186 $187 forward $73 $-1 #
coedge $-1 $188 $75 $189 $190 forward $46 $-1 #
coedge $-1 $75 $188 $191 $192 forward $46 $-1 #
coedge $-1 $193 $194 $75 $119 reversed $195 $-1 #
edge $-1 $196 -20.847759412520659 $197 20.847759412520659 $118 $198 forward 7 unknown #
face $-1 $199 $200 $28 $-1 $201 forward single #
loop $-1 $-1 $202 $76 #
plane-surface $-1 -30.386854221437286 -15.778932445031264 0 -1 0 0 0 0 1 forward_v I I I I #
coedge $-1 $203 $204 $205 $206 forward $77 $-1 #
coedge $-1 $207 $79 $208 $209 reversed $49 $-1 #
coedge $-1 $79 $207 $210 $211 reversed $49 $-1 #
coedge $-1 $204 $203 $79 $127 reversed $77 $-1 #
edge $-1 $212 -7.841943841764035 $213 7.841943841764035 $126 $214 forward 7 unknown #
face $-1 $215 $216 $29 $-1 $217 reversed single #
loop $-1 $-1 $218 $80 #
plane-surface $-1 -30.386854221437286 15.778932445031266 0 -1 0 0 0 0 1 forward_v I I I I #
coedge $-1 $219 $220 $221 $222 reversed $81 $-1 #
coedge $-1 $223 $83 $224 $225 reversed $52 $-1 #
coedge $-1 $83 $223 $226 $227 reversed $52 $-1 #
coedge $-1 $220 $219 $83 $135 reversed $81 $-1 #
edge $-1 $228 -7.841943841764035 $229 7.841943841764035 $134 $230 forward 7 unknown #
face $-1 $231 $232 $30 $-1 $233 forward single #
loop $-1 $-1 $234 $84 #
plane-surface $-1 81.988423685444388 4.4341857125324697 125.58536970171242 0 1 0 0.87461971476443456 0 0.48480960649040278 forward_v I I I I #
coedge $-1 $235 $236 $237 $238 reversed $85 $-1 #
coedge $-1 $141 $87 $239 $240 reversed $55 $-1 #
coedge $-1 $87 $140 $235 $241 reversed $55 $-1 #
coedge $-1 $237 $242 $87 $143 forward $232 $-1 #
edge $-1 $243 -5.0765300622431653 $244 -0.91011670958233992 $142 $245 forward 7 unknown #
loop $-1 $-1 $149 $88 #
plane-surface $-1 1.3996653976310114 7.5721455950371706 80.914293194378089 0.87461971476443456 0 0.48480960649040278 0.48480960649040278 0 -0.87461971476443456 forward_v I I I I #
loop $-1 $-1 $246 $57 #
coedge $-1 $147 $147 $148 $247 reversed $89 $-1 #
coedge $-1 $148 $148 $147 $247 forward $91 $-1 #
coedge $-1 $149 $149 $92 $150 forward $144 $-1 #
edge $-1 $248 0 $248 6.2831853071796004 $149 $249 forward 7 unknown #
loop $-1 $-1 $156 $93 #
plane-surface $-1 1.3996653976310114 7.5721455950371706 80.914293194378089 0.87461971476443456 0 0.48480960649040278 0.48480960649040278 0 -0.87461971476443456 forward_v I I I I #
loop $-1 $-1 $250 $60 #
coedge $-1 $154 $154 $155 $251 reversed $94 $-1 #
coedge $-1 $155 $155 $154 $251 forward $96 $-1 #
coedge $-1 $156 $156 $97 $157 forward $151 $-1 #
edge $-1 $252 0 $252 6.2831853071796004 $156 $253 forward 7 unknown #
face $-1 $254 $255 $33 $-1 $256 reversed single #
loop $-1 $-1 $257 $98 #
plane-surface $-1 -110.07759565198553 3.293781995908585 66.307486475317035 0 -1 0 0.69465837861970381 0 -0.71933979245794832 forward_v I I I I #
coedge $-1 $258 $259 $260 $261 reversed $99 $-1 #
coedge $-1 $163 $101 $262 $263 reversed $64 $-1 #
coedge $-1 $101 $162 $258 $264 reversed $64 $-1 #
coedge $-1 $260 $265 $101 $165 forward $266 $-1 #
edge $-1 $267 8.9680559210274069 $268 17.061235870410307 $164 $269 forward 7 unknown #
loop $-1 $-1 $171 $102 #
plane-surface $-1 -46.070741904965374 0.11806193444123991 0.026450634714066723 -0.69465837861970381 0 0.71933979245794832 0.71933979245794832 0 0.69465837861970381 forward_v I I I I #
loop $-1 $-1 $270 $66 #
coedge $-1 $169 $169 $170 $271 reversed $103 $-1 #
coedge $-1 $170 $170 $169 $271 forward $105 $-1 #
coedge $-1 $171 $171 $106 $172 forward $166 $-1 #
edge $-1 $272 0 $272 6.2831853071796004 $171 $273 forward 7 unknown #
loop $-1 $-1 $178 $107 #
plane-surface $-1 -46.070741904965374 0.11806193444123991 0.026450634714066723 -0.69465837861970381 0 0.71933979245794832 0.71933979245794832 0 0.69465837861970381 forward_v I I I I #
loop $-1 $-1 $274 $69 #
coedge $-1 $176 $176 $177 $275 reversed $108 $-1 #
coedge $-1 $177 $177 $176 $275 forward $110 $-1 #
coedge $-1 $178 $178 $111 $179 forward $173 $-1 #
edge $-1 $276 0 $276 6.2831853071796004 $178 $277 forward 7 unknown #
face $-1 $278 $279 $27 $-1 $280 reversed single #
loop $-1 $-1 $281 $112 #
plane-surface $-1 -46.070741904965359 0 0 1 0 0 0 0 -1 forward_v I I I I #
coedge $-1 $282 $191 $283 $284 forward $113 $-1 #
coedge $-1 $285 $115 $282 $286 forward $73 $-1 #
coedge $-1 $115 $285 $287 $288 forward $73 $-1 #
coedge $-1 $194 $193 $115 $187 reversed $195 $-1 #
edge $-1 $289 -20.847759412520659 $290 20.847759412520659 $186 $291 forward 7 unknown #
coedge $-1 $117 $116 $292 $293 forward $46 $-1 #
coedge $-1 $294 $295 $116 $190 reversed $279 $-1 #
edge $-1 $197 -46.070741904965359 $296 46.070741904965359 $189 $297 forward 7 unknown #
coedge $-1 $183 $298 $117 $192 reversed $113 $-1 #
edge $-1 $299 -46.070741904965359 $196 46.070741904965359 $191 $300 forward 7 unknown #
coedge $-1 $186 $118 $298 $301 forward $195 $-1 #
coedge $-1 $118 $186 $294 $302 reversed $195 $-1 #
loop $-1 $-1 $193 $278 #
vertex $-1 $119 $303 #
vertex $-1 $119 $304 #
straight-curve $-1 46.070741904965359 0 7.841943841764035 0 1 0 I I #
face $-1 $305 $306 $28 $-1 $307 reversed single #
loop $-1 $-1 $308 $120 #
plane-surface $-1 0 0 7.841943841764035 0 0 1 1 0 0 forward_v I I I I #
coedge $-1 $309 $310 $311 $312 reversed $121 $-1 #
coedge $-1 $126 $123 $313 $314 reversed $77 $-1 #
coedge $-1 $123 $126 $315 $316 reversed $77 $-1 #
coedge $-1 $310 $309 $123 $206 reversed $121 $-1 #
edge $-1 $317 -7.841943841764035 $318 7.841943841764035 $205 $319 forward 7 unknown #
coedge $-1 $125 $124 $320 $321 reversed $49 $-1 #
coedge $-1 $313 $322 $124 $209 forward $306 $-1 #
edge $-1 $323 -12.958293190005026 $213 -2.8206392550262374 $208 $324 forward 7 unknown #
coedge $-1 $325 $315 $125 $211 forward $200 $-1 #
edge $-1 $212 2.8206392550262374 $326 12.958293190005026 $210 $327 forward 7 unknown #
vertex $-1 $211 $328 #
vertex $-1 $209 $329 #
straight-curve $-1 -34.88591432096797 -10.71010547754187 0 0 0 -1 I I #
face $-1 $330 $331 $29 $-1 $332 forward single #
loop $-1 $-1 $333 $128 #
plane-surface $-1 0 0 -7.841943841764035 0 0 1 1 0 0 forward_v I I I I #
coedge $-1 $334 $335 $223 $336 forward $129 $-1 #
coedge $-1 $134 $131 $337 $338 reversed $81 $-1 #
coedge $-1 $131 $134 $339 $340 reversed $81 $-1 #
coedge $-1 $341 $342 $131 $222 forward $343 $-1 #
edge $-1 $344 -7.841943841764035 $345 7.841943841764035 $221 $346 forward 7 unknown #
coedge $-1 $133 $132 $218 $336 reversed $52 $-1 #
coedge $-1 $337 $333 $132 $225 forward $216 $-1 #
edge $-1 $347 14.068662085835971 $229 18.567722185366655 $224 $348 forward 7 unknown #
coedge $-1 $349 $339 $133 $227 forward $331 $-1 #
edge $-1 $228 -18.567722185366655 $350 -14.068662085835971 $226 $351 forward 7 unknown #
vertex $-1 $227 $352 #
vertex $-1 $225 $353 #
straight-curve $-1 -34.88591432096797 10.710105477541871 0 0 0 -1 I I #
face $-1 $-1 $354 $30 $-1 $355 reversed single #
loop $-1 $-1 $142 $136 #
plane-surface $-1 0 0 7.841943841764035 0 0 1 1 0 0 forward_v I I I I #
coedge $-1 $356 $357 $358 $359 reversed $137 $-1 #
coedge $-1 $360 $139 $141 $241 forward $85 $-1 #
coedge $-1 $139 $360 $356 $361 forward $85 $-1 #
coedge $-1 $358 $142 $139 $238 forward $232 $-1 #
edge $-1 $244 -6.9240326800232861 $362 -0.64811291501388446 $237 $363 forward 7 unknown #
coedge $-1 $364 $365 $140 $240 forward $354 $-1 #
edge $-1 $366 -62.467149944291528 $243 -54.950741009092177 $239 $367 forward 7 unknown #
edge $-1 $244 83.547567152994006 $366 92.141483809930762 $141 $368 forward 7 unknown #
coedge $-1 $142 $358 $364 $369 forward $232 $-1 #
vertex $-1 $143 $370 #
vertex $-1 $143 $371 #
straight-curve $-1 40.994211842722194 10.710105477541871 7.841943841764035 -1 0 0 I I #
coedge $-1 $246 $246 $-1 $372 reversed $146 $-1 #
edge $-1 $373 0 $373 6.2831853071796004 $147 $374 forward 7 unknown #
vertex $-1 $150 $375 #
ellipse-curve $-1 43.98753522863494 6.227305645392299 4.0837393741643746 0.87461971476443456 0 0.48480960649040278 0.24240480324520139 0 -0.43730985738221728 1 I I #
coedge $-1 $250 $250 $-1 $376 reversed $153 $-1 #
edge $-1 $377 0 $377 6.2831853071796004 $154 $378 forward 7 unknown #
vertex $-1 $157 $379 #
ellipse-curve $-1 43.98753522863494 8.9169855446820421 4.0837393741643746 0.87461971476443456 0 0.48480960649040278 0.24240480324520139 0 -0.43730985738221728 1 I I #
face $-1 $-1 $266 $33 $-1 $380 forward single #
loop $-1 $-1 $381 $158 #
plane-surface $-1 -46.070741904965359 0 0 1 0 0 0 0 -1 forward_v I I I I #
coedge $-1 $382 $383 $384 $385 reversed $159 $-1 #
coedge $-1 $386 $161 $163 $264 forward $99 $-1 #
coedge $-1 $161 $386 $382 $387 forward $99 $-1 #
coedge $-1 $384 $164 $161 $261 forward $266 $-1 #
edge $-1 $268 -3.1166890942467251 $388 3.234751028687965 $260 $389 forward 7 unknown #
coedge $-1 $390 $391 $162 $263 forward $255 $-1 #
edge $-1 $392 -33.127292602944436 $267 -25.311799395894482 $262 $393 forward 7 unknown #
edge $-1 $268 -11.250844224436575 $392 -1.9754301241142346e-014 $163 $394 forward 7 unknown #
coedge $-1 $164 $384 $390 $395 forward $266 $-1 #
loop $-1 $-1 $384 $254 #
vertex $-1 $263 $396 #
vertex $-1 $165 $397 #
straight-curve $-1 -55.038797825992766 -3.0576581270261052 7.841943841764035 1 0 0 I I #
coedge $-1 $270 $270 $-1 $398 reversed $168 $-1 #
edge $-1 $399 0 $399 6.2831853071796004 $169 $400 forward 7 unknown #
vertex $-1 $172 $401 #
ellipse-curve $-1 -42.024151930273909 -1.2429609490447646 3.9341972382390593 -0.69465837861970381 0 0.71933979245794832 0.35966989622897416 0 0.3473291893098519 1 I I #
coedge $-1 $274 $274 $-1 $402 reversed $175 $-1 #
edge $-1 $403 0 $403 6.2831853071796004 $176 $404 forward 7 unknown #
vertex $-1 $179 $405 #
ellipse-curve $-1 -42.024151930273909 1.4790848179272444 3.9341972382390593 -0.69465837861970381 0 0.71933979245794832 0.35966989622897416 0 0.3473291893098519 1 I I #
face $-1 $-1 $195 $27 $-1 $406 reversed single #
loop $-1 $-1 $294 $180 #
plane-surface $-1 0 20.847759412520659 0 0 -1 0 0 0 -1 forward_v I I I I #
coedge $-1 $407 $292 $295 $408 forward $181 $-1 #
coedge $-1 $298 $183 $184 $286 reversed $113 $-1 #
coedge $-1 $292 $407 $183 $284 reversed $181 $-1 #
edge $-1 $299 -7.841943841764035 $409 7.841943841764035 $283 $410 forward 7 unknown #
coedge $-1 $185 $184 $407 $411 forward $73 $-1 #
edge $-1 $290 -46.070741904965359 $409 46.070741904965359 $282 $412 forward 7 unknown #
coedge $-1 $295 $294 $185 $288 reversed $279 $-1 #
edge $-1 $413 -46.070741904965359 $289 46.070741904965359 $287 $414 forward 7 unknown #
vertex $-1 $187 $415 #
vertex $-1 $301 $416 #
straight-curve $-1 46.070741904965359 0 -7.841943841764035 0 -1 0 I I #
coedge $-1 $281 $283 $188 $293 reversed $181 $-1 #
edge $-1 $296 -20.847759412520659 $299 20.847759412520659 $292 $417 forward 7 unknown #
coedge $-1 $287 $189 $194 $302 forward $279 $-1 #
coedge $-1 $189 $287 $281 $408 reversed $279 $-1 #
vertex $-1 $190 $418 #
straight-curve $-1 0 20.847759412520659 7.841943841764035 -1 0 0 I I #
coedge $-1 $191 $282 $193 $301 reversed $113 $-1 #
vertex $-1 $293 $419 #
straight-curve $-1 0 -20.847759412520659 7.841943841764035 1 0 0 I I #
edge $-1 $196 -7.841943841764035 $290 7.841943841764035 $193 $420 forward 7 unknown #
edge $-1 $197 -7.841943841764035 $289 7.841943841764035 $194 $421 forward 7 unknown #
point $-1 46.070741904965359 -20.847759412520659 7.841943841764035 #
point $-1 46.070741904965359 20.847759412520659 7.841943841764035 #
face $-1 $-1 $422 $28 $-1 $423 reversed single #
loop $-1 $-1 $424 $199 #
plane-surface $-1 0 0 -7.841943841764035 0 0 1 1 0 0 forward_v I I I I #
coedge $-1 $315 $325 $310 $425 forward $200 $-1 #
coedge $-1 $205 $202 $424 $426 reversed $121 $-1 #
coedge $-1 $202 $205 $308 $425 reversed $121 $-1 #
coedge $-1 $427 $428 $202 $312 forward $422 $-1 #
edge $-1 $429 -7.841943841764035 $430 7.841943841764035 $311 $431 forward 7 unknown #
coedge $-1 $424 $208 $203 $314 forward $306 $-1 #
edge $-1 $213 -18.567722185366655 $318 -14.068662085835971 $313 $432 forward 7 unknown #
coedge $-1 $210 $308 $204 $316 forward $200 $-1 #
edge $-1 $317 14.068662085835971 $212 18.567722185366655 $315 $433 forward 7 unknown #
vertex $-1 $316 $434 #
vertex $-1 $314 $435 #
straight-curve $-1 -30.386854221437286 -10.71010547754187 0 0 0 -1 I I #
coedge $-1 $428 $427 $207 $321 forward $422 $-1 #
edge $-1 $326 -7.841943841764035 $323 7.841943841764035 $320 $436 forward 7 unknown #
coedge $-1 $208 $424 $428 $437 forward $306 $-1 #
vertex $-1 $209 $438 #
straight-curve $-1 -34.88591432096797 -7.8894662225156322 -7.841943841764035 0 1 0 I I #
coedge $-1 $308 $210 $427 $439 forward $200 $-1 #
vertex $-1 $439 $440 #
straight-curve $-1 -34.88591432096797 -7.8894662225156322 7.841943841764035 0 -1 0 I I #
point $-1 -34.88591432096797 -10.71010547754187 7.841943841764035 #
point $-1 -34.88591432096797 -10.71010547754187 -7.841943841764035 #
face $-1 $-1 $343 $29 $-1 $441 reversed single #
loop $-1 $-1 $349 $215 #
plane-surface $-1 0 0 7.841943841764035 0 0 1 1 0 0 forward_v I I I I #
coedge $-1 $224 $442 $334 $443 forward $216 $-1 #
coedge $-1 $444 $218 $333 $443 reversed $129 $-1 #
coedge $-1 $218 $444 $349 $445 reversed $129 $-1 #
edge $-1 $350 -7.841943841764035 $347 7.841943841764035 $218 $446 forward 7 unknown #
coedge $-1 $442 $224 $219 $338 forward $216 $-1 #
edge $-1 $229 2.8206392550262382 $344 12.958293190005026 $337 $447 forward 7 unknown #
coedge $-1 $226 $448 $220 $340 forward $331 $-1 #
edge $-1 $345 -12.958293190005026 $228 -2.8206392550262382 $339 $449 forward 7 unknown #
coedge $-1 $450 $221 $448 $451 reversed $343 $-1 #
coedge $-1 $221 $450 $442 $452 reversed $343 $-1 #
loop $-1 $-1 $450 $330 #
vertex $-1 $452 $453 #
vertex $-1 $222 $454 #
straight-curve $-1 -34.88591432096797 20.847759412520659 0 0 0 1 I I #
vertex $-1 $225 $455 #
straight-curve $-1 -16.318192135601315 10.710105477541871 -7.841943841764035 -1 0 0 I I #
coedge $-1 $448 $226 $335 $445 forward $331 $-1 #
vertex $-1 $227 $456 #
straight-curve $-1 -16.318192135601315 10.710105477541871 7.841943841764035 1 0 0 I I #
point $-1 -34.88591432096797 10.710105477541871 7.841943841764035 #
point $-1 -34.88591432096797 10.710105477541871 -7.841943841764035 #
loop $-1 $-1 $239 $231 #
plane-surface $-1 46.070741904965359 0 0 -1 0 0 0 0 1 forward_v I I I I #
coedge $-1 $357 $234 $236 $361 reversed $137 $-1 #
coedge $-1 $234 $356 $457 $458 reversed $137 $-1 #
coedge $-1 $242 $237 $234 $359 forward $232 $-1 #
edge $-1 $362 0.91011670958233992 $459 5.0765300622431653 $358 $460 forward 7 unknown #
coedge $-1 $236 $235 $365 $461 reversed $85 $-1 #
edge $-1 $462 -92.141483809930762 $362 -83.547567152994006 $356 $463 forward 7 unknown #
vertex $-1 $238 $464 #
straight-curve $-1 41.904328552304534 3.7860727975185853 7.841943841764035 0 -1 0 I I #
coedge $-1 $457 $239 $242 $369 reversed $354 $-1 #
coedge $-1 $239 $457 $360 $461 forward $354 $-1 #
vertex $-1 $240 $465 #
straight-curve $-1 46.070741904965359 10.710105477541871 62.792684850856212 0 0 1 I I #
straight-curve $-1 1.3996653976310114 10.710105477541871 80.914293194378089 0.48480960649040278 0 -0.87461971476443456 I I #
edge $-1 $459 4.4341857125324697 $243 10.710105477541871 $364 $466 forward 7 unknown #
point $-1 46.070741904965359 10.710105477541871 7.841943841764035 #
point $-1 41.904328552304534 10.710105477541871 7.841943841764035 #
edge $-1 $467 1 $467 0 $246 $-1 forward 7 unknown #
vertex $-1 $247 $468 #
ellipse-curve $-1 42.456944054774681 6.227305645392299 3.2353188638895358 0.87461971476443456 0 0.48480960649040278 0.24240480324520139 0 -0.43730985738221728 1 I I #
point $-1 44.229940031880155 6.227305645392299 3.6464295167821659 #
edge $-1 $469 1 $469 0 $250 $-1 forward 7 unknown #
vertex $-1 $251 $470 #
ellipse-curve $-1 42.456944054774681 8.9169855446820421 3.2353188638895358 0.87461971476443456 0 0.48480960649040278 0.24240480324520139 0 -0.43730985738221728 1 I I #
point $-1 44.229940031880155 8.9169855446820421 3.6464295167821659 #
plane-surface $-1 0 0 7.841943841764035 0 0 1 1 0 0 forward_v I I I I #
coedge $-1 $391 $390 $383 $471 forward $255 $-1 #
coedge $-1 $383 $257 $259 $387 reversed $159 $-1 #
coedge $-1 $257 $382 $381 $471 reversed $159 $-1 #
coedge $-1 $265 $260 $257 $385 forward $266 $-1 #
edge $-1 $388 -17.061235870410307 $472 -8.9680559210274069 $384 $473 forward 7 unknown #
coedge $-1 $259 $258 $391 $474 reversed $99 $-1 #
edge $-1 $475 1.9754301241142346e-014 $388 11.250844224436575 $382 $476 forward 7 unknown #
vertex $-1 $261 $477 #
straight-curve $-1 -37.977561955582466 0.059030967220619956 7.841943841764035 0 1 0 I I #
coedge $-1 $381 $262 $265 $395 reversed $255 $-1 #
coedge $-1 $262 $381 $386 $474 forward $255 $-1 #
vertex $-1 $263 $478 #
straight-curve $-1 -46.070741904965359 -3.0576581270261052 33.153743237658517 0 0 1 I I #
straight-curve $-1 -46.070741904965374 -3.0576581270261052 0.026450634714066723 -0.71933979245794832 0 -0.69465837861970381 I I #
edge $-1 $472 -3.293781995908585 $267 3.0576581270261052 $390 $479 forward 7 unknown #
point $-1 -46.070741904965359 -3.0576581270261052 7.841943841764035 #
point $-1 -37.977561955582459 -3.0576581270261052 7.8419438417640359 #
edge $-1 $480 1 $480 0 $270 $-1 forward 7 unknown #
vertex $-1 $271 $481 #
ellipse-curve $-1 -41.125762144490423 -1.2429609490447646 3.0038874025815145 -0.69465837861970381 0 0.71933979245794832 0.35966989622897416 0 0.3473291893098519 1 I I #
point $-1 -41.66448203404493 -1.2429609490447646 4.2815264275489024 #
edge $-1 $482 1 $482 0 $274 $-1 forward 7 unknown #
vertex $-1 $275 $483 #
ellipse-curve $-1 -41.125762144490423 1.4790848179272444 3.0038874025815145 -0.69465837861970381 0 0.71933979245794832 0.35966989622897416 0 0.3473291893098519 1 I I #
point $-1 -41.66448203404493 1.4790848179272444 4.2815264275489024 #
plane-surface $-1 46.070741904965359 0 0 -1 0 0 0 0 1 forward_v I I I I #
coedge $-1 $283 $281 $285 $411 reversed $181 $-1 #
edge $-1 $296 -7.841943841764035 $413 7.841943841764035 $295 $484 forward 7 unknown #
vertex $-1 $411 $485 #
straight-curve $-1 -46.070741904965359 -20.847759412520659 0 0 0 -1 I I #
edge $-1 $409 -20.847759412520659 $413 20.847759412520659 $407 $486 forward 7 unknown #
straight-curve $-1 0 -20.847759412520659 -7.841943841764035 -1 0 0 I I #
vertex $-1 $288 $487 #
straight-curve $-1 0 20.847759412520659 -7.841943841764035 1 0 0 I I #
point $-1 46.070741904965359 20.847759412520659 -7.841943841764035 #
point $-1 46.070741904965359 -20.847759412520659 -7.841943841764035 #
straight-curve $-1 -46.070741904965359 0 7.841943841764035 0 -1 0 I I #
point $-1 -46.070741904965359 20.847759412520659 7.841943841764035 #
point $-1 -46.070741904965359 -20.847759412520659 7.841943841764035 #
straight-curve $-1 46.070741904965359 -20.847759412520659 0 0 0 -1 I I #
straight-curve $-1 46.070741904965359 20.847759412520659 0 0 0 -1 I I #
loop $-1 $-1 $311 $305 #
plane-surface $-1 0 -20.847759412520659 0 0 1 0 0 0 1 forward_v I I I I #
coedge $-1 $322 $313 $309 $426 forward $306 $-1 #
edge $-1 $430 -12.958293190005026 $317 -2.8206392550262374 $308 $488 forward 7 unknown #
edge $-1 $318 2.8206392550262374 $429 12.958293190005026 $424 $489 forward 7 unknown #
coedge $-1 $320 $311 $325 $439 reversed $422 $-1 #
coedge $-1 $311 $320 $322 $437 reversed $422 $-1 #
vertex $-1 $437 $490 #
vertex $-1 $312 $491 #
straight-curve $-1 -30.386854221437286 -20.847759412520659 0 0 0 1 I I #
straight-curve $-1 -16.318192135601315 -10.71010547754187 -7.841943841764035 1 0 0 I I #
straight-curve $-1 -16.318192135601315 -10.71010547754187 7.841943841764035 -1 0 0 I I #
point $-1 -30.386854221437286 -10.71010547754187 7.841943841764035 #
point $-1 -30.386854221437286 -10.71010547754187 -7.841943841764035 #
straight-curve $-1 -34.88591432096797 -20.847759412520659 0 0 0 -1 I I #
edge $-1 $429 30.386854221437286 $323 34.88591432096797 $428 $492 forward 7 unknown #
point $-1 -34.88591432096797 -20.847759412520659 -7.841943841764035 #
edge $-1 $326 -34.88591432096797 $430 -30.386854221437286 $427 $493 forward 7 unknown #
point $-1 -34.88591432096797 -20.847759412520659 7.841943841764035 #
plane-surface $-1 0 20.847759412520659 0 0 -1 0 0 0 -1 forward_v I I I I #
coedge $-1 $333 $337 $342 $452 forward $216 $-1 #
edge $-1 $494 -12.958293190005026 $347 -2.8206392550262382 $333 $495 forward 7 unknown #
coedge $-1 $335 $334 $450 $496 reversed $129 $-1 #
edge $-1 $350 2.8206392550262382 $497 12.958293190005026 $349 $498 forward 7 unknown #
straight-curve $-1 -30.386854221437286 10.710105477541871 0 0 0 -1 I I #
straight-curve $-1 -34.88591432096797 7.8894662225156331 -7.841943841764035 0 1 0 I I #
coedge $-1 $339 $349 $341 $451 forward $331 $-1 #
straight-curve $-1 -34.88591432096797 7.8894662225156331 7.841943841764035 0 -1 0 I I #
coedge $-1 $342 $341 $444 $496 forward $343 $-1 #
edge $-1 $497 30.386854221437286 $345 34.88591432096797 $341 $499 forward 7 unknown #
edge $-1 $344 -34.88591432096797 $494 -30.386854221437286 $342 $500 forward 7 unknown #
point $-1 -34.88591432096797 20.847759412520659 -7.841943841764035 #
point $-1 -34.88591432096797 20.847759412520659 7.841943841764035 #
point $-1 -30.386854221437286 10.710105477541871 -7.841943841764035 #
point $-1 -30.386854221437286 10.710105477541871 7.841943841764035 #
coedge $-1 $365 $364 $357 $458 forward $354 $-1 #
edge $-1 $459 54.950741009092177 $462 62.467149944291528 $457 $501 forward 7 unknown #
vertex $-1 $369 $502 #
straight-curve $-1 40.994211842722194 4.4341857125324697 7.841943841764035 1 0 0 I I #
edge $-1 $462 0.64811291501388446 $366 6.9240326800232861 $365 $503 forward 7 unknown #
vertex $-1 $461 $504 #
straight-curve $-1 1.3996653976310114 4.4341857125324697 80.914293194378089 -0.48480960649040278 0 0.87461971476443456 I I #
point $-1 41.904328552304534 4.4341857125324697 7.841943841764035 #
point $-1 46.070741904965359 10.710105477541871 0.32553490656468398 #
straight-curve $-1 46.070741904965359 0 7.841943841764035 0 1 0 I I #
vertex $-1 $372 $505 #
point $-1 42.699348858019881 6.227305645392299 2.7980090065073187 #
vertex $-1 $376 $506 #
point $-1 42.699348858019881 8.9169855446820421 2.7980090065073187 #
edge $-1 $472 25.311799395894482 $475 33.127292602944436 $381 $507 forward 7 unknown #
vertex $-1 $395 $508 #
straight-curve $-1 -55.038797825992766 3.293781995908585 7.841943841764035 -1 0 0 I I #
edge $-1 $475 -3.234751028687965 $392 3.1166890942467251 $391 $509 forward 7 unknown #
vertex $-1 $474 $510 #
straight-curve $-1 -46.070741904965374 3.293781995908585 0.026450634714066723 0.71933979245794832 0 0.69465837861970381 I I #
point $-1 -37.977561955582459 3.293781995908585 7.8419438417640359 #
point $-1 -46.070741904965359 -3.0576581270261052 0.026450634714080445 #
straight-curve $-1 -46.070741904965359 0 7.841943841764035 0 -1 0 I I #
vertex $-1 $398 $511 #
point $-1 -40.766092248261451 -1.2429609490447646 3.3512165918913666 #
vertex $-1 $402 $512 #
point $-1 -40.766092248261451 1.4790848179272444 3.3512165918913666 #
straight-curve $-1 -46.070741904965359 20.847759412520659 0 0 0 -1 I I #
point $-1 -46.070741904965359 -20.847759412520659 -7.841943841764035 #
straight-curve $-1 -46.070741904965359 0 -7.841943841764035 0 1 0 I I #
point $-1 -46.070741904965359 20.847759412520659 -7.841943841764035 #
straight-curve $-1 -30.386854221437286 -7.8894662225156322 7.841943841764035 0 1 0 I I #
straight-curve $-1 -30.386854221437286 -7.8894662225156322 -7.841943841764035 0 -1 0 I I #
point $-1 -30.386854221437286 -20.847759412520659 -7.841943841764035 #
point $-1 -30.386854221437286 -20.847759412520659 7.841943841764035 #
straight-curve $-1 0 -20.847759412520659 -7.841943841764035 -1 0 0 I I #
straight-curve $-1 0 -20.847759412520659 7.841943841764035 1 0 0 I I #
vertex $-1 $496 $513 #
straight-curve $-1 -30.386854221437286 7.8894662225156331 -7.841943841764035 0 -1 0 I I #
edge $-1 $497 -7.841943841764035 $494 7.841943841764035 $450 $514 forward 7 unknown #
vertex $-1 $451 $515 #
straight-curve $-1 -30.386854221437286 7.8894662225156331 7.841943841764035 0 1 0 I I #
straight-curve $-1 0 20.847759412520659 7.841943841764035 -1 0 0 I I #
straight-curve $-1 0 20.847759412520659 -7.841943841764035 1 0 0 I I #
straight-curve $-1 46.070741904965359 4.4341857125324697 62.792684850856212 0 0 -1 I I #
point $-1 46.070741904965359 4.4341857125324697 7.841943841764035 #
straight-curve $-1 46.070741904965359 3.7860727975185853 0.32553490656469819 0 1 0 I I #
point $-1 46.070741904965359 4.4341857125324697 0.32553490656468398 #
point $-1 42.019634197392463 6.227305645392299 2.9929140606443343 #
point $-1 42.019634197392463 8.9169855446820421 2.9929140606443343 #
straight-curve $-1 -46.070741904965359 3.293781995908585 33.153743237658517 0 0 -1 I I #
point $-1 -46.070741904965359 3.293781995908585 7.841943841764035 #
straight-curve $-1 -46.070741904965359 0.059030967220619956 0.026450634714077756 0 -1 0 I I #
point $-1 -46.070741904965359 3.293781995908585 0.026450634714080445 #
point $-1 -40.778432955180577 -1.2429609490447646 2.6442175063525406 #
point $-1 -40.778432955180577 1.4790848179272444 2.6442175063525406 #
point $-1 -30.386854221437286 20.847759412520659 -7.841943841764035 #
straight-curve $-1 -30.386854221437286 20.847759412520659 0 0 0 -1 I I #
point $-1 -30.386854221437286 20.847759412520659 7.841943841764035 #
End-of-ACIS-data 