500 0 10 0           
7 Unknown 11 ACIS 5.0 NT 24 Fri Mar 26 19:00:45 1999 
-1 9.9999999999999995e-007 1e-010 
body $-1 $10 $-1 $11 #
body $-1 $12 $-1 $13 #
body $-1 $14 $-1 $15 #
body $-1 $16 $-1 $17 #
body $-1 $18 $-1 $19 #
body $-1 $20 $-1 $21 #
body $-1 $22 $-1 $23 #
body $-1 $24 $-1 $25 #
body $-1 $26 $-1 $27 #
body $-1 $28 $-1 $29 #
lump $-1 $-1 $30 $0 #
transform $-1 1 0 0 0 1 0 0 0 1 61.498458815271462 33.575564718464229 16.570141136471353 1 rotate no_reflect no_shear #
lump $-1 $-1 $31 $1 #
transform $-1 1 0 0 0 1 0 0 0 1 61.498458815271462 33.575564718464229 16.570141136471353 1 rotate no_reflect no_shear #
lump $-1 $-1 $32 $2 #
transform $-1 1 0 0 0 1 0 0 0 1 61.498458815271462 33.575564718464229 16.570141136471353 1 rotate no_reflect no_shear #
lump $-1 $-1 $33 $3 #
transform $-1 1 0 0 0 1 0 0 0 1 61.498458815271462 33.575564718464229 16.570141136471353 1 rotate no_reflect no_shear #
lump $-1 $-1 $34 $4 #
transform $-1 1 0 0 0 1 0 0 0 1 61.498458815271462 33.575564718464229 16.570141136471353 1 rotate no_reflect no_shear #
lump $-1 $-1 $35 $5 #
transform $-1 1 0 0 0 1 0 0 0 1 61.498458815271462 33.575564718464229 16.570141136471353 1 rotate no_reflect no_shear #
lump $-1 $-1 $36 $6 #
transform $-1 1 0 0 0 1 0 0 0 1 61.498458815271462 33.575564718464229 16.570141136471353 1 rotate no_reflect no_shear #
lump $-1 $-1 $37 $7 #
transform $-1 1 0 0 0 1 0 0 0 1 61.498458815271462 33.575564718464229 16.570141136471353 1 rotate no_reflect no_shear #
lump $-1 $-1 $38 $8 #
transform $-1 1 0 0 0 1 0 0 0 1 61.498458815271462 33.575564718464229 16.570141136471353 1 rotate no_reflect no_shear #
lump $-1 $-1 $39 $9 #
transform $-1 1 0 0 0 1 0 0 0 1 61.498458815271462 33.575564718464229 16.570141136471353 1 rotate no_reflect no_shear #
shell $-1 $-1 $-1 $40 $-1 $10 #
shell $-1 $-1 $-1 $41 $-1 $12 #
shell $-1 $-1 $-1 $42 $-1 $14 #
shell $-1 $-1 $-1 $43 $-1 $16 #
shell $-1 $-1 $-1 $44 $-1 $18 #
shell $-1 $-1 $-1 $45 $-1 $20 #
shell $-1 $-1 $-1 $46 $-1 $22 #
shell $-1 $-1 $-1 $47 $-1 $24 #
shell $-1 $-1 $-1 $48 $-1 $26 #
shell $-1 $-1 $-1 $49 $-1 $28 #
face $-1 $50 $51 $30 $-1 $52 forward single #
face $-1 $53 $54 $31 $-1 $55 forward single #
face $-1 $56 $57 $32 $-1 $58 reversed single #
face $-1 $59 $60 $33 $-1 $61 forward single #
face $-1 $62 $63 $34 $-1 $64 reversed single #
face $-1 $65 $66 $35 $-1 $67 forward single #
face $-1 $68 $69 $36 $-1 $70 forward single #
face $-1 $71 $72 $37 $-1 $73 reversed single #
face $-1 $74 $75 $38 $-1 $76 forward single #
face $-1 $77 $78 $39 $-1 $79 forward single #
face $-1 $80 $81 $30 $-1 $82 reversed single #
loop $-1 $-1 $83 $40 #
plane-surface $-1 0 0 16.570141136471353 0 0 1 1 0 0 forward_v I I I I #
face $-1 $84 $85 $31 $-1 $86 reversed single #
loop $-1 $-1 $87 $41 #
plane-surface $-1 -55.482112481362911 0 7.3225301191114127 0 0 1 1 0 0 forward_v I I I I #
face $-1 $88 $89 $32 $-1 $90 reversed single #
loop $-1 $-1 $91 $42 #
plane-surface $-1 -8.2566381631872687 -135.54463173572347 76.854741392320079 1 0 0 0 0.82903758062907751 -0.55919289150049634 forward_v I I I I #
face $-1 $92 $93 $33 $-1 $94 forward single #
loop $-1 $95 $96 $43 #
cone-surface $-1 8.36835409726568 -28.477574346925838 10.816616218414602 0 0.82903758062907751 -0.55919289150049634 1.5 0 0 1 I I 0 1 1.5 forward I I I I #
face $-1 $97 $98 $34 $-1 $99 reversed single #
loop $-1 $-1 $100 $44 #
plane-surface $-1 -10.202538988066308 39.363909155335584 147.45104488189372 1 0 0 0 -0.51503808176128008 -0.85716729658548041 forward_v I I I I #
face $-1 $101 $102 $35 $-1 $103 forward single #
loop $-1 $104 $105 $45 #
cone-surface $-1 -6.8026755201584876 25.349859634442229 10.962552173341304 0 -0.51503808176128008 -0.85716729658548041 1.5 0 0 1 I I 0 1 1.5 forward I I I I #
face $-1 $106 $107 $36 $-1 $108 forward single #
loop $-1 $109 $110 $46 #
cone-surface $-1 -1.7028803182967636 25.349859634442229 10.962552173341304 0 -0.51503808176128008 -0.85716729658548041 1.5 0 0 1 I I 0 1 1.5 forward I I I I #
face $-1 $111 $112 $37 $-1 $113 reversed single #
loop $-1 $-1 $114 $47 #
plane-surface $-1 10.335709518206045 39.363909155335584 147.45104488189372 1 0 0 0 -0.51503808176128008 -0.85716729658548041 forward_v I I I I #
face $-1 $115 $116 $38 $-1 $117 forward single #
loop $-1 $118 $119 $48 #
cone-surface $-1 13.735572986113866 25.349859634442229 10.962552173341304 0 -0.51503808176128008 -0.85716729658548041 1.5 0 0 1 I I 0 1 1.5 forward I I I I #
face $-1 $120 $121 $39 $-1 $122 forward single #
loop $-1 $123 $124 $49 #
cone-surface $-1 18.83536818797559 25.349859634442229 10.962552173341304 0 -0.51503808176128008 -0.85716729658548041 1.5 0 0 1 I I 0 1 1.5 forward I I I I #
face $-1 $125 $126 $30 $-1 $127 reversed single #
loop $-1 $-1 $128 $50 #
plane-surface $-1 0 0 -16.570141136471353 0 0 1 1 0 0 forward_v I I I I #
coedge $-1 $129 $130 $131 $132 forward $51 $-1 #
face $-1 $133 $134 $31 $-1 $135 reversed single #
loop $-1 $-1 $136 $53 #
plane-surface $-1 -55.482112481362911 0 2.293990141913504 0 0 1 1 0 0 forward_v I I I I #
coedge $-1 $137 $138 $139 $140 forward $54 $-1 #
face $-1 $141 $142 $32 $-1 $143 reversed single #
loop $-1 $-1 $144 $56 #
plane-surface $-1 8.36835409726568 -33.575564718464236 8.0757393768484036 0 -0.82903758062907751 0.55919289150049634 1 0 0 forward_v I I I I #
coedge $-1 $145 $146 $147 $148 reversed $57 $-1 #
face $-1 $-1 $149 $33 $-1 $150 forward single #
loop $-1 $151 $152 $59 #
cone-surface $-1 8.36835409726568 -25.622578866864771 8.8908975115439581 0 0.82903758062907751 -0.55919289150049634 0.75 0 0 1 I I -0.70710678118654757 0.70710678118654757 0.75 forward I I I I #
loop $-1 $-1 $153 $43 #
coedge $-1 $96 $96 $154 $155 reversed $60 $-1 #
face $-1 $156 $157 $34 $-1 $158 reversed single #
loop $-1 $-1 $159 $62 #
plane-surface $-1 -4.2527779192276256 -23.984187363649404 42.022109508174239 0 0.51503808176128008 0.85716729658548041 1 0 0 forward_v I I I I #
coedge $-1 $160 $161 $162 $163 reversed $63 $-1 #
face $-1 $-1 $164 $35 $-1 $165 forward single #
loop $-1 $166 $167 $65 #
cone-surface $-1 -6.8026755201584876 24.338158040382204 9.2787979985702087 0 -0.51503808176128008 -0.85716729658548041 0.75 0 0 1 I I -0.70710678118654757 0.70710678118654757 0.75 forward I I I I #
loop $-1 $-1 $168 $45 #
coedge $-1 $105 $105 $169 $170 reversed $66 $-1 #
face $-1 $-1 $171 $36 $-1 $172 forward single #
loop $-1 $173 $174 $68 #
cone-surface $-1 -1.7028803182967636 24.338158040382204 9.2787979985702087 0 -0.51503808176128008 -0.85716729658548041 0.75 0 0 1 I I -0.70710678118654757 0.70710678118654757 0.75 forward I I I I #
loop $-1 $-1 $175 $46 #
coedge $-1 $110 $110 $176 $177 reversed $69 $-1 #
face $-1 $178 $179 $37 $-1 $180 reversed single #
loop $-1 $-1 $181 $71 #
plane-surface $-1 16.285470587044728 -23.984187363649404 42.022109508174239 0 0.51503808176128008 0.85716729658548041 1 0 0 forward_v I I I I #
coedge $-1 $182 $183 $184 $185 reversed $72 $-1 #
face $-1 $-1 $186 $38 $-1 $187 forward single #
loop $-1 $188 $189 $74 #
cone-surface $-1 13.735572986113866 24.338158040382204 9.2787979985702087 0 -0.51503808176128008 -0.85716729658548041 0.75 0 0 1 I I -0.70710678118654757 0.70710678118654757 0.75 forward I I I I #
loop $-1 $-1 $190 $48 #
coedge $-1 $119 $119 $191 $192 reversed $75 $-1 #
face $-1 $-1 $193 $39 $-1 $194 forward single #
loop $-1 $195 $196 $77 #
cone-surface $-1 18.83536818797559 24.338158040382204 9.2787979985702087 0 -0.51503808176128008 -0.85716729658548041 0.75 0 0 1 I I -0.70710678118654757 0.70710678118654757 0.75 forward I I I I #
loop $-1 $-1 $197 $49 #
coedge $-1 $124 $124 $198 $199 reversed $78 $-1 #
face $-1 $200 $201 $30 $-1 $202 reversed single #
loop $-1 $-1 $203 $80 #
plane-surface $-1 0 -33.575564718464229 0 0 1 0 0 0 1 forward_v I I I I #
coedge $-1 $204 $205 $206 $207 forward $81 $-1 #
coedge $-1 $208 $83 $209 $210 forward $51 $-1 #
coedge $-1 $83 $208 $211 $212 forward $51 $-1 #
coedge $-1 $213 $214 $83 $132 reversed $215 $-1 #
edge $-1 $216 -33.575564718464229 $217 33.575564718464229 $131 $218 forward 7 unknown #
face $-1 $219 $220 $31 $-1 $221 reversed single #
loop $-1 $-1 $222 $84 #
plane-surface $-1 -49.46576614745436 0 4.8082601305124584 -1 0 0 0 0 1 forward_v I I I I #
coedge $-1 $223 $224 $225 $226 forward $85 $-1 #
coedge $-1 $227 $87 $228 $229 reversed $54 $-1 #
coedge $-1 $87 $227 $230 $231 reversed $54 $-1 #
coedge $-1 $222 $232 $87 $140 reversed $134 $-1 #
edge $-1 $233 -33.575564718464229 $234 33.575564718464229 $139 $235 forward 7 unknown #
face $-1 $236 $237 $32 $-1 $238 forward single #
loop $-1 $-1 $239 $88 #
plane-surface $-1 24.993346357718629 -135.54463173572347 76.854741392320079 -1 0 0 0 -0.82903758062907751 0.55919289150049634 forward_v I I I I #
coedge $-1 $240 $241 $242 $243 reversed $89 $-1 #
coedge $-1 $146 $91 $244 $245 reversed $57 $-1 #
coedge $-1 $91 $145 $240 $246 reversed $57 $-1 #
coedge $-1 $242 $247 $91 $148 forward $248 $-1 #
edge $-1 $249 21.857229559688687 $250 30.351631319311625 $147 $251 forward 7 unknown #
loop $-1 $-1 $154 $92 #
plane-surface $-1 8.36835409726568 -33.575564718464236 8.0757393768484036 0 -0.82903758062907751 0.55919289150049634 1 0 0 forward_v I I I I #
loop $-1 $-1 $252 $59 #
coedge $-1 $152 $152 $153 $253 reversed $93 $-1 #
coedge $-1 $153 $153 $152 $253 forward $95 $-1 #
coedge $-1 $154 $154 $96 $155 forward $149 $-1 #
edge $-1 $254 1.6670919286488912e-015 $254 6.2831853071796022 $154 $255 forward 7 unknown #
face $-1 $256 $257 $34 $-1 $258 reversed single #
loop $-1 $-1 $259 $97 #
plane-surface $-1 1.6969831496110572 39.363909155335584 147.45104488189372 -1 0 0 0 0.51503808176128008 0.85716729658548041 forward_v I I I I #
coedge $-1 $260 $261 $262 $263 reversed $98 $-1 #
coedge $-1 $161 $100 $264 $265 reversed $63 $-1 #
coedge $-1 $100 $160 $260 $266 reversed $63 $-1 #
coedge $-1 $262 $267 $100 $163 forward $268 $-1 #
edge $-1 $269 -13.893610140796437 $270 1.306953961769505 $162 $271 forward 7 unknown #
loop $-1 $-1 $169 $101 #
plane-surface $-1 -4.2527779192276256 -23.984187363649404 42.022109508174239 0 0.51503808176128008 0.85716729658548041 1 0 0 forward_v I I I I #
loop $-1 $-1 $272 $65 #
coedge $-1 $167 $167 $168 $273 reversed $102 $-1 #
coedge $-1 $168 $168 $167 $273 forward $104 $-1 #
coedge $-1 $169 $169 $105 $170 forward $164 $-1 #
edge $-1 $274 -2.1786948433439247e-016 $274 6.2831853071796004 $169 $275 forward 7 unknown #
loop $-1 $-1 $176 $106 #
plane-surface $-1 -4.2527779192276256 -23.984187363649404 42.022109508174239 0 0.51503808176128008 0.85716729658548041 1 0 0 forward_v I I I I #
loop $-1 $-1 $276 $68 #
coedge $-1 $174 $174 $175 $277 reversed $107 $-1 #
coedge $-1 $175 $175 $174 $277 forward $109 $-1 #
coedge $-1 $176 $176 $110 $177 forward $171 $-1 #
edge $-1 $278 -2.1786948433439247e-016 $278 6.2831853071796004 $176 $279 forward 7 unknown #
face $-1 $280 $281 $37 $-1 $282 forward single #
loop $-1 $-1 $283 $111 #
plane-surface $-1 22.23523165588341 39.363909155335584 147.45104488189372 -1 0 0 0 0.51503808176128008 0.85716729658548041 forward_v I I I I #
coedge $-1 $284 $285 $286 $287 reversed $112 $-1 #
coedge $-1 $183 $114 $288 $289 reversed $72 $-1 #
coedge $-1 $114 $182 $284 $290 reversed $72 $-1 #
coedge $-1 $286 $291 $114 $185 forward $281 $-1 #
edge $-1 $292 -13.893610140796437 $293 1.306953961769505 $184 $294 forward 7 unknown #
loop $-1 $-1 $191 $115 #
plane-surface $-1 16.285470587044728 -23.984187363649404 42.022109508174239 0 0.51503808176128008 0.85716729658548041 1 0 0 forward_v I I I I #
loop $-1 $-1 $295 $74 #
coedge $-1 $189 $189 $190 $296 reversed $116 $-1 #
coedge $-1 $190 $190 $189 $296 forward $118 $-1 #
coedge $-1 $191 $191 $119 $192 forward $186 $-1 #
edge $-1 $297 -2.1786948433439247e-016 $297 6.2831853071796004 $191 $298 forward 7 unknown #
loop $-1 $-1 $198 $120 #
plane-surface $-1 16.285470587044728 -23.984187363649404 42.022109508174239 0 0.51503808176128008 0.85716729658548041 1 0 0 forward_v I I I I #
loop $-1 $-1 $299 $77 #
coedge $-1 $196 $196 $197 $300 reversed $121 $-1 #
coedge $-1 $197 $197 $196 $300 forward $123 $-1 #
coedge $-1 $198 $198 $124 $199 forward $193 $-1 #
edge $-1 $301 -2.1786948433439247e-016 $301 6.2831853071796004 $198 $302 forward 7 unknown #
face $-1 $303 $304 $30 $-1 $305 reversed single #
loop $-1 $-1 $306 $125 #
plane-surface $-1 -61.498458815271462 0 0 1 0 0 0 0 -1 forward_v I I I I #
coedge $-1 $307 $211 $308 $309 forward $126 $-1 #
coedge $-1 $310 $128 $307 $311 forward $81 $-1 #
coedge $-1 $128 $310 $312 $313 forward $81 $-1 #
coedge $-1 $214 $213 $128 $207 reversed $215 $-1 #
edge $-1 $314 -33.575564718464229 $315 33.575564718464229 $206 $316 forward 7 unknown #
coedge $-1 $130 $129 $317 $318 forward $51 $-1 #
coedge $-1 $319 $320 $129 $210 reversed $304 $-1 #
edge $-1 $217 -61.498458815271462 $321 61.498458815271462 $209 $322 forward 7 unknown #
coedge $-1 $203 $323 $130 $212 reversed $126 $-1 #
edge $-1 $324 -61.498458815271462 $216 61.498458815271462 $211 $325 forward 7 unknown #
coedge $-1 $206 $131 $323 $326 forward $215 $-1 #
coedge $-1 $131 $206 $319 $327 reversed $215 $-1 #
loop $-1 $-1 $213 $303 #
vertex $-1 $132 $328 #
vertex $-1 $132 $329 #
straight-curve $-1 61.498458815271462 0 16.570141136471353 0 1 0 I I #
face $-1 $330 $331 $31 $-1 $332 reversed single #
loop $-1 $-1 $333 $133 #
plane-surface $-1 0 -33.575564718464229 0 0 1 0 0 0 1 forward_v I I I I #
coedge $-1 $225 $139 $334 $335 reversed $134 $-1 #
coedge $-1 $336 $136 $333 $337 reversed $85 $-1 #
coedge $-1 $136 $336 $338 $339 reversed $85 $-1 #
coedge $-1 $232 $222 $136 $226 reversed $134 $-1 #
edge $-1 $340 -33.575564718464229 $341 33.575564718464229 $225 $342 forward 7 unknown #
coedge $-1 $138 $137 $343 $344 reversed $54 $-1 #
coedge $-1 $345 $346 $137 $229 forward $347 $-1 #
edge $-1 $348 -33.757402574590003 $234 -21.724709906772905 $228 $349 forward 7 unknown #
coedge $-1 $350 $334 $138 $231 forward $220 $-1 #
edge $-1 $233 21.724709906772905 $351 33.757402574590003 $230 $352 forward 7 unknown #
coedge $-1 $139 $225 $345 $353 reversed $134 $-1 #
vertex $-1 $231 $354 #
vertex $-1 $229 $355 #
straight-curve $-1 -49.46576614745436 0 7.3225301191114127 0 1 0 I I #
face $-1 $-1 $248 $32 $-1 $356 reversed single #
loop $-1 $-1 $357 $141 #
plane-surface $-1 0 0 16.570141136471353 0 0 1 1 0 0 forward_v I I I I #
coedge $-1 $358 $359 $360 $361 reversed $142 $-1 #
coedge $-1 $362 $144 $146 $246 forward $89 $-1 #
coedge $-1 $144 $362 $358 $363 forward $89 $-1 #
coedge $-1 $360 $147 $144 $243 forward $248 $-1 #
edge $-1 $250 -12.440815211820109 $364 20.809169309085789 $242 $365 forward 7 unknown #
coedge $-1 $366 $367 $145 $245 forward $237 $-1 #
edge $-1 $368 -39.926297303295769 $249 -34.196751149397507 $244 $369 forward 7 unknown #
edge $-1 $250 1.2809303928265426e-014 $368 10.246099764473112 $146 $370 forward 7 unknown #
coedge $-1 $147 $360 $366 $371 reversed $248 $-1 #
loop $-1 $-1 $360 $236 #
vertex $-1 $371 $372 #
vertex $-1 $148 $373 #
straight-curve $-1 -8.2566381631872687 -33.575564718464229 38.42737069616004 0 0 -1 I I #
coedge $-1 $252 $252 $-1 $374 reversed $151 $-1 #
edge $-1 $375 0 $375 6.2831853071796004 $152 $376 forward 7 unknown #
vertex $-1 $155 $377 #
ellipse-curve $-1 8.36835409726568 -30.710791641515101 12.322940256659876 0 -0.82903758062907751 0.55919289150049634 1.5 0 0 1 I I #
face $-1 $-1 $268 $34 $-1 $378 forward single #
loop $-1 $-1 $379 $156 #
plane-surface $-1 0 33.575564718464229 0 0 -1 0 0 0 -1 forward_v I I I I #
coedge $-1 $380 $381 $382 $383 reversed $157 $-1 #
coedge $-1 $384 $159 $161 $266 forward $98 $-1 #
coedge $-1 $159 $384 $380 $385 forward $98 $-1 #
coedge $-1 $382 $162 $159 $263 forward $268 $-1 #
edge $-1 $270 -8.0761500284524956 $386 3.82337210922487 $262 $387 forward 7 unknown #
coedge $-1 $388 $389 $160 $265 forward $257 $-1 #
edge $-1 $390 -66.288801826071676 $269 -57.155381304475512 $264 $391 forward 7 unknown #
edge $-1 $270 49.4176436131957 $390 67.151129436928457 $161 $392 forward 7 unknown #
coedge $-1 $162 $382 $388 $393 forward $268 $-1 #
loop $-1 $-1 $382 $256 #
vertex $-1 $265 $394 #
vertex $-1 $163 $395 #
straight-curve $-1 -10.202538988066308 19.681954577667792 16.570141136471349 0 -1 0 I I #
coedge $-1 $272 $272 $-1 $396 reversed $166 $-1 #
edge $-1 $397 0 $397 6.2831853071796004 $167 $398 forward 7 unknown #
vertex $-1 $170 $399 #
ellipse-curve $-1 -6.8026755201584876 25.975282667181272 12.003430875673256 0 0.51503808176128008 0.85716729658548041 1.5 0 0 1 I I #
coedge $-1 $276 $276 $-1 $400 reversed $173 $-1 #
edge $-1 $401 0 $401 6.2831853071796004 $174 $402 forward 7 unknown #
vertex $-1 $177 $403 #
ellipse-curve $-1 -1.7028803182967636 25.975282667181272 12.003430875673256 0 0.51503808176128008 0.85716729658548041 1.5 0 0 1 I I #
face $-1 $-1 $404 $37 $-1 $405 reversed single #
loop $-1 $-1 $184 $178 #
plane-surface $-1 0 0 16.570141136471353 0 0 1 1 0 0 forward_v I I I I #
coedge $-1 $406 $407 $408 $409 reversed $179 $-1 #
coedge $-1 $410 $181 $183 $290 forward $112 $-1 #
coedge $-1 $181 $410 $406 $411 forward $112 $-1 #
coedge $-1 $408 $184 $181 $287 forward $281 $-1 #
edge $-1 $293 2.192974224683681 $412 14.092496362361047 $286 $413 forward 7 unknown #
coedge $-1 $414 $415 $182 $289 forward $404 $-1 #
edge $-1 $416 -66.288801826071676 $292 -57.155381304475512 $288 $417 forward 7 unknown #
edge $-1 $293 49.4176436131957 $416 67.151129436928457 $183 $418 forward 7 unknown #
coedge $-1 $184 $408 $414 $419 forward $281 $-1 #
vertex $-1 $185 $420 #
vertex $-1 $185 $421 #
straight-curve $-1 10.335709518206045 19.681954577667792 16.570141136471349 0 -1 0 I I #
coedge $-1 $295 $295 $-1 $422 reversed $188 $-1 #
edge $-1 $423 0 $423 6.2831853071796004 $189 $424 forward 7 unknown #
vertex $-1 $192 $425 #
ellipse-curve $-1 13.735572986113866 25.975282667181272 12.003430875673256 0 0.51503808176128008 0.85716729658548041 1.5 0 0 1 I I #
coedge $-1 $299 $299 $-1 $426 reversed $195 $-1 #
edge $-1 $427 0 $427 6.2831853071796004 $196 $428 forward 7 unknown #
vertex $-1 $199 $429 #
ellipse-curve $-1 18.83536818797559 25.975282667181272 12.003430875673256 0 0.51503808176128008 0.85716729658548041 1.5 0 0 1 I I #
face $-1 $-1 $215 $30 $-1 $430 reversed single #
loop $-1 $-1 $319 $200 #
plane-surface $-1 0 33.575564718464229 0 0 -1 0 0 0 -1 forward_v I I I I #
coedge $-1 $431 $317 $320 $432 forward $201 $-1 #
coedge $-1 $323 $203 $204 $311 reversed $126 $-1 #
coedge $-1 $317 $431 $203 $309 reversed $201 $-1 #
edge $-1 $324 -16.570141136471353 $433 16.570141136471353 $308 $434 forward 7 unknown #
coedge $-1 $205 $204 $431 $435 forward $81 $-1 #
edge $-1 $315 -61.498458815271462 $433 61.498458815271462 $307 $436 forward 7 unknown #
coedge $-1 $320 $319 $205 $313 reversed $304 $-1 #
edge $-1 $437 -61.498458815271462 $314 61.498458815271462 $312 $438 forward 7 unknown #
vertex $-1 $207 $439 #
vertex $-1 $326 $440 #
straight-curve $-1 61.498458815271462 0 -16.570141136471353 0 -1 0 I I #
coedge $-1 $306 $308 $208 $318 reversed $201 $-1 #
edge $-1 $321 -33.575564718464229 $324 33.575564718464229 $317 $441 forward 7 unknown #
coedge $-1 $312 $209 $214 $327 forward $304 $-1 #
coedge $-1 $209 $312 $306 $432 reversed $304 $-1 #
vertex $-1 $210 $442 #
straight-curve $-1 0 33.575564718464229 16.570141136471353 -1 0 0 I I #
coedge $-1 $211 $307 $213 $326 reversed $126 $-1 #
vertex $-1 $318 $443 #
straight-curve $-1 0 -33.575564718464229 16.570141136471353 1 0 0 I I #
edge $-1 $216 -16.570141136471353 $315 16.570141136471353 $213 $444 forward 7 unknown #
edge $-1 $217 -16.570141136471353 $314 16.570141136471353 $214 $445 forward 7 unknown #
point $-1 61.498458815271462 -33.575564718464229 16.570141136471353 #
point $-1 61.498458815271462 33.575564718464229 16.570141136471353 #
face $-1 $-1 $347 $31 $-1 $446 reversed single #
loop $-1 $-1 $447 $219 #
plane-surface $-1 -61.498458815271462 0 0 1 0 0 0 0 -1 forward_v I I I I #
coedge $-1 $334 $350 $223 $337 forward $220 $-1 #
coedge $-1 $230 $333 $222 $335 forward $220 $-1 #
edge $-1 $341 -0.11013992334272515 $233 4.9184000538551835 $334 $448 forward 7 unknown #
coedge $-1 $224 $223 $447 $449 reversed $85 $-1 #
edge $-1 $450 -33.757402574590003 $341 -21.724709906772905 $333 $451 forward 7 unknown #
coedge $-1 $346 $345 $224 $339 forward $347 $-1 #
edge $-1 $340 21.724709906772905 $452 33.757402574590003 $338 $453 forward 7 unknown #
vertex $-1 $339 $454 #
vertex $-1 $337 $455 #
straight-curve $-1 -49.46576614745436 0 2.293990141913504 0 -1 0 I I #
coedge $-1 $456 $457 $227 $344 forward $331 $-1 #
edge $-1 $351 -33.575564718464229 $348 33.575564718464229 $343 $458 forward 7 unknown #
coedge $-1 $338 $228 $232 $353 forward $347 $-1 #
coedge $-1 $228 $338 $456 $459 reversed $347 $-1 #
loop $-1 $-1 $338 $330 #
vertex $-1 $459 $460 #
straight-curve $-1 -27.741056240681456 33.575564718464229 7.3225301191114127 1 0 0 I I #
coedge $-1 $333 $230 $457 $461 forward $220 $-1 #
vertex $-1 $461 $462 #
straight-curve $-1 -27.741056240681456 -33.575564718464229 7.3225301191114127 -1 0 0 I I #
edge $-1 $234 -4.9184000538551835 $340 0.11013992334272515 $345 $463 forward 7 unknown #
point $-1 -49.46576614745436 -33.575564718464229 7.3225301191114127 #
point $-1 -49.46576614745436 33.575564718464229 7.3225301191114127 #
plane-surface $-1 0 -33.575564718464229 0 0 1 0 0 0 1 forward_v I I I I #
coedge $-1 $367 $366 $359 $464 forward $237 $-1 #
coedge $-1 $359 $239 $241 $363 reversed $142 $-1 #
coedge $-1 $239 $358 $357 $464 reversed $142 $-1 #
coedge $-1 $247 $242 $239 $361 forward $248 $-1 #
edge $-1 $364 -30.351631319311625 $465 -21.857229559688687 $360 $466 forward 7 unknown #
coedge $-1 $241 $240 $367 $467 reversed $89 $-1 #
edge $-1 $468 -10.246099764473112 $364 -1.2809303928265426e-014 $358 $469 forward 7 unknown #
vertex $-1 $243 $470 #
straight-curve $-1 4.18417704863284 -33.575564718464229 8.0757393768484249 1 0 0 I I #
coedge $-1 $357 $244 $247 $371 forward $237 $-1 #
coedge $-1 $244 $357 $362 $467 forward $237 $-1 #
vertex $-1 $245 $471 #
straight-curve $-1 -8.2566381631872687 -67.772315867861735 16.570141136471353 0 -1 0 I I #
straight-curve $-1 -8.2566381631872687 -33.575564718464236 8.0757393768484036 0 0.55919289150049634 0.82903758062907751 I I #
edge $-1 $249 -8.2566381631872687 $465 24.993346357718629 $247 $472 forward 7 unknown #
point $-1 -8.2566381631872687 -33.575564718464229 16.570141136471353 #
point $-1 -8.2566381631872687 -33.575564718464229 8.0757393768484143 #
edge $-1 $473 1 $473 0 $252 $-1 forward 7 unknown #
vertex $-1 $253 $474 #
ellipse-curve $-1 8.36835409726568 -26.244357052336579 9.3102921801693306 0 -0.82903758062907751 0.55919289150049634 1.5 0 0 1 I I #
point $-1 9.86835409726568 -30.710791641515094 12.322940256659875 #
plane-surface $-1 0 0 16.570141136471353 0 0 1 1 0 0 forward_v I I I I #
coedge $-1 $389 $388 $381 $475 forward $257 $-1 #
coedge $-1 $381 $259 $261 $385 reversed $157 $-1 #
coedge $-1 $259 $380 $379 $475 reversed $157 $-1 #
coedge $-1 $267 $262 $259 $383 forward $268 $-1 #
edge $-1 $386 -1.306953961769505 $476 13.893610140796437 $382 $477 forward 7 unknown #
coedge $-1 $261 $260 $389 $478 reversed $98 $-1 #
edge $-1 $479 -67.151129436928457 $386 -49.4176436131957 $380 $480 forward 7 unknown #
vertex $-1 $263 $481 #
straight-curve $-1 -2.1263889596138128 18.37500061589828 16.570141136471353 1 0 0 I I #
coedge $-1 $379 $264 $267 $393 reversed $257 $-1 #
coedge $-1 $264 $379 $384 $478 forward $257 $-1 #
vertex $-1 $265 $482 #
straight-curve $-1 -10.202538988066308 33.575564718464229 73.725522440946861 0 0 1 I I #
straight-curve $-1 -10.202538988066308 -23.984187363649404 42.022109508174239 0 0.85716729658548041 -0.51503808176128008 I I #
edge $-1 $476 -1.6969831496110572 $269 10.202538988066308 $388 $483 forward 7 unknown #
point $-1 -10.202538988066308 33.575564718464229 16.570141136471353 #
point $-1 -10.202538988066308 18.375000615898287 16.570141136471353 #
edge $-1 $484 1 $484 0 $272 $-1 forward 7 unknown #
vertex $-1 $273 $485 #
ellipse-curve $-1 -6.8026755201584876 24.724436601703164 9.9216734710093188 0 0.51503808176128008 0.85716729658548041 1.5 0 0 1 I I #
point $-1 -5.3026755201584876 25.97528266718129 12.003430875673287 #
edge $-1 $486 1 $486 0 $276 $-1 forward 7 unknown #
vertex $-1 $277 $487 #
ellipse-curve $-1 -1.7028803182967636 24.724436601703164 9.9216734710093188 0 0.51503808176128008 0.85716729658548041 1.5 0 0 1 I I #
point $-1 -0.20288031829676356 25.97528266718129 12.003430875673287 #
loop $-1 $-1 $288 $280 #
plane-surface $-1 0 33.575564718464229 0 0 -1 0 0 0 -1 forward_v I I I I #
coedge $-1 $407 $283 $285 $411 reversed $179 $-1 #
coedge $-1 $283 $406 $488 $489 reversed $179 $-1 #
coedge $-1 $291 $286 $283 $409 forward $281 $-1 #
edge $-1 $412 -1.306953961769505 $490 13.893610140796437 $408 $491 forward 7 unknown #
coedge $-1 $285 $284 $415 $492 reversed $112 $-1 #
edge $-1 $493 -67.151129436928457 $412 -49.4176436131957 $406 $494 forward 7 unknown #
vertex $-1 $287 $495 #
straight-curve $-1 8.1427352935223638 18.37500061589828 16.570141136471353 1 0 0 I I #
coedge $-1 $488 $288 $291 $419 reversed $404 $-1 #
coedge $-1 $288 $488 $410 $492 forward $404 $-1 #
vertex $-1 $289 $496 #
straight-curve $-1 10.335709518206045 33.575564718464229 73.725522440946861 0 0 1 I I #
straight-curve $-1 10.335709518206045 -23.984187363649404 42.022109508174239 0 0.85716729658548041 -0.51503808176128008 I I #
edge $-1 $490 -22.23523165588341 $292 -10.335709518206045 $414 $497 forward 7 unknown #
point $-1 10.335709518206045 33.575564718464229 16.570141136471353 #
point $-1 10.335709518206045 18.375000615898287 16.570141136471353 #
edge $-1 $498 1 $498 0 $295 $-1 forward 7 unknown #
vertex $-1 $296 $499 #
ellipse-curve $-1 13.735572986113866 24.724436601703164 9.9216734710093188 0 0.51503808176128008 0.85716729658548041 1.5 0 0 1 I I #
point $-1 15.235572986113866 25.97528266718129 12.003430875673287 #
edge $-1 $500 1 $500 0 $299 $-1 forward 7 unknown #
vertex $-1 $300 $501 #
ellipse-curve $-1 18.83536818797559 24.724436601703164 9.9216734710093188 0 0.51503808176128008 0.85716729658548041 1.5 0 0 1 I I #
point $-1 20.33536818797559 25.97528266718129 12.003430875673287 #
plane-surface $-1 61.498458815271462 0 0 -1 0 0 0 0 1 forward_v I I I I #
coedge $-1 $308 $306 $310 $435 reversed $201 $-1 #
edge $-1 $321 -16.570141136471353 $437 16.570141136471353 $320 $502 forward 7 unknown #
vertex $-1 $435 $503 #
straight-curve $-1 -61.498458815271462 -33.575564718464229 0 0 0 -1 I I #
edge $-1 $433 -33.575564718464229 $437 33.575564718464229 $431 $504 forward 7 unknown #
straight-curve $-1 0 -33.575564718464229 -16.570141136471353 -1 0 0 I I #
vertex $-1 $313 $505 #
straight-curve $-1 0 33.575564718464229 -16.570141136471353 1 0 0 I I #
point $-1 61.498458815271462 33.575564718464229 -16.570141136471353 #
point $-1 61.498458815271462 -33.575564718464229 -16.570141136471353 #
straight-curve $-1 -61.498458815271462 0 16.570141136471353 0 -1 0 I I #
point $-1 -61.498458815271462 33.575564718464229 16.570141136471353 #
point $-1 -61.498458815271462 -33.575564718464229 16.570141136471353 #
straight-curve $-1 61.498458815271462 -33.575564718464229 0 0 0 -1 I I #
straight-curve $-1 61.498458815271462 33.575564718464229 0 0 0 -1 I I #
plane-surface $-1 0 33.575564718464229 0 0 -1 0 0 0 -1 forward_v I I I I #
coedge $-1 $457 $456 $336 $449 forward $331 $-1 #
straight-curve $-1 -49.46576614745436 -33.575564718464229 2.4041300652562292 0 0 1 I I #
edge $-1 $452 -33.575564718464229 $450 33.575564718464229 $447 $506 forward 7 unknown #
vertex $-1 $337 $507 #
straight-curve $-1 -27.741056240681456 -33.575564718464229 2.293990141913504 1 0 0 I I #
vertex $-1 $339 $508 #
straight-curve $-1 -27.741056240681456 33.575564718464229 2.293990141913504 -1 0 0 I I #
point $-1 -49.46576614745436 33.575564718464229 2.293990141913504 #
point $-1 -49.46576614745436 -33.575564718464229 2.293990141913504 #
coedge $-1 $447 $343 $346 $459 forward $331 $-1 #
coedge $-1 $343 $447 $350 $461 reversed $331 $-1 #
straight-curve $-1 -61.498458815271462 0 7.3225301191114127 0 1 0 I I #
edge $-1 $348 -7.3225301191114127 $452 -2.293990141913504 $346 $509 forward 7 unknown #
point $-1 -61.498458815271462 33.575564718464229 7.3225301191114127 #
edge $-1 $351 -7.3225301191114127 $450 -2.293990141913504 $457 $510 forward 7 unknown #
point $-1 -61.498458815271462 -33.575564718464229 7.3225301191114127 #
straight-curve $-1 -49.46576614745436 33.575564718464229 2.4041300652562292 0 0 -1 I I #
edge $-1 $465 34.196751149397507 $468 39.926297303295769 $357 $511 forward 7 unknown #
vertex $-1 $464 $512 #
straight-curve $-1 24.993346357718629 -33.575564718464229 38.42737069616004 0 0 1 I I #
edge $-1 $468 -20.809169309085789 $368 12.440815211820109 $367 $513 forward 7 unknown #
vertex $-1 $467 $514 #
straight-curve $-1 24.993346357718629 -33.575564718464236 8.0757393768484036 0 -0.55919289150049634 -0.82903758062907751 I I #
point $-1 24.993346357718629 -33.575564718464229 8.0757393768484143 #
point $-1 -8.2566381631872687 -27.846018564565963 16.570141136471353 #
straight-curve $-1 0 -33.575564718464229 16.570141136471353 1 0 0 I I #
vertex $-1 $374 $515 #
point $-1 9.86835409726568 -26.244357052336579 9.3102921801693306 #
edge $-1 $476 57.155381304475512 $479 66.288801826071676 $379 $516 forward 7 unknown #
vertex $-1 $393 $517 #
straight-curve $-1 1.6969831496110572 19.681954577667792 16.570141136471349 0 1 0 I I #
edge $-1 $479 -3.82337210922487 $390 8.0761500284524956 $389 $518 forward 7 unknown #
vertex $-1 $478 $519 #
straight-curve $-1 1.6969831496110572 -23.984187363649404 42.022109508174239 0 -0.85716729658548041 0.51503808176128008 I I #
point $-1 1.6969831496110572 18.375000615898287 16.570141136471353 #
point $-1 -10.202538988066308 33.575564718464236 7.4367206148751777 #
straight-curve $-1 0 33.575564718464229 16.570141136471353 -1 0 0 I I #
vertex $-1 $396 $520 #
point $-1 -5.3026755201584876 24.724436601703164 9.9216734710093188 #
vertex $-1 $400 $521 #
point $-1 -0.20288031829676356 24.724436601703164 9.9216734710093188 #
coedge $-1 $415 $414 $407 $489 forward $404 $-1 #
edge $-1 $490 57.155381304475512 $493 66.288801826071676 $488 $522 forward 7 unknown #
vertex $-1 $419 $523 #
straight-curve $-1 22.23523165588341 19.681954577667792 16.570141136471349 0 1 0 I I #
edge $-1 $493 -14.092496362361047 $416 -2.192974224683681 $415 $524 forward 7 unknown #
vertex $-1 $492 $525 #
straight-curve $-1 22.23523165588341 -23.984187363649404 42.022109508174239 0 -0.85716729658548041 0.51503808176128008 I I #
point $-1 22.23523165588341 18.375000615898287 16.570141136471353 #
point $-1 10.335709518206045 33.575564718464236 7.4367206148751777 #
straight-curve $-1 0 33.575564718464229 16.570141136471353 -1 0 0 I I #
vertex $-1 $422 $526 #
point $-1 15.235572986113866 24.724436601703164 9.9216734710093188 #
vertex $-1 $426 $527 #
point $-1 20.33536818797559 24.724436601703164 9.9216734710093188 #
straight-curve $-1 -61.498458815271462 33.575564718464229 0 0 0 -1 I I #
point $-1 -61.498458815271462 -33.575564718464229 -16.570141136471353 #
straight-curve $-1 -61.498458815271462 0 -16.570141136471353 0 1 0 I I #
point $-1 -61.498458815271462 33.575564718464229 -16.570141136471353 #
straight-curve $-1 -61.498458815271462 0 2.293990141913504 0 -1 0 I I #
point $-1 -61.498458815271462 -33.575564718464229 2.293990141913504 #
point $-1 -61.498458815271462 33.575564718464229 2.293990141913504 #
straight-curve $-1 -61.498458815271462 33.575564718464229 0 0 0 -1 I I #
straight-curve $-1 -61.498458815271462 -33.575564718464229 0 0 0 -1 I I #
straight-curve $-1 24.993346357718629 -67.772315867861735 16.570141136471353 0 1 0 I I #
point $-1 24.993346357718629 -33.575564718464229 16.570141136471353 #
straight-curve $-1 4.18417704863284 -27.846018564565966 16.570141136471353 -1 0 0 I I #
point $-1 24.993346357718629 -27.846018564565963 16.570141136471353 #
point $-1 8.36835409726568 -25.000800681392963 8.4715028429185857 #
straight-curve $-1 1.6969831496110572 33.575564718464229 73.725522440946861 0 0 -1 I I #
point $-1 1.6969831496110572 33.575564718464229 16.570141136471353 #
straight-curve $-1 -2.1263889596138128 33.575564718464229 7.4367206148751812 -1 0 0 I I #
point $-1 1.6969831496110572 33.575564718464236 7.4367206148751777 #
point $-1 -6.8026755201584876 23.951879479061244 8.6359225261310986 #
point $-1 -1.7028803182967636 23.951879479061244 8.6359225261310986 #
straight-curve $-1 22.23523165588341 33.575564718464229 73.725522440946861 0 0 -1 I I #
point $-1 22.23523165588341 33.575564718464229 16.570141136471353 #
straight-curve $-1 8.1427352935223638 33.575564718464229 7.4367206148751812 -1 0 0 I I #
point $-1 22.23523165588341 33.575564718464236 7.4367206148751777 #
point $-1 13.735572986113866 23.951879479061244 8.6359225261310986 #
point $-1 18.83536818797559 23.951879479061244 8.6359225261310986 #
End-of-ACIS-data 