500 0 14 0           
7 Unknown 11 ACIS 5.0 NT 24 Fri Mar 26 19:52:10 1999 
-1 9.9999999999999995e-007 1e-010 
body $-1 $14 $-1 $15 #
body $-1 $16 $-1 $17 #
body $-1 $18 $-1 $19 #
body $-1 $20 $-1 $21 #
body $-1 $22 $-1 $23 #
body $-1 $24 $-1 $25 #
body $-1 $26 $-1 $27 #
body $-1 $28 $-1 $29 #
body $-1 $30 $-1 $31 #
body $-1 $32 $-1 $33 #
body $-1 $34 $-1 $35 #
body $-1 $36 $-1 $37 #
body $-1 $38 $-1 $39 #
body $-1 $40 $-1 $41 #
lump $-1 $-1 $42 $0 #
transform $-1 1 0 0 0 1 0 0 0 1 53.373210852381973 21.890232347302963 10.006161690051082 1 rotate no_reflect no_shear #
lump $-1 $-1 $43 $1 #
transform $-1 1 0 0 0 1 0 0 0 1 53.373210852381973 21.890232347302963 10.006161690051082 1 rotate no_reflect no_shear #
lump $-1 $-1 $44 $2 #
transform $-1 1 0 0 0 1 0 0 0 1 53.373210852381973 21.890232347302963 10.006161690051082 1 rotate no_reflect no_shear #
lump $-1 $-1 $45 $3 #
transform $-1 1 0 0 0 1 0 0 0 1 53.373210852381973 21.890232347302963 10.006161690051082 1 rotate no_reflect no_shear #
lump $-1 $-1 $46 $4 #
transform $-1 1 0 0 0 1 0 0 0 1 53.373210852381973 21.890232347302963 10.006161690051082 1 rotate no_reflect no_shear #
lump $-1 $-1 $47 $5 #
transform $-1 1 0 0 0 1 0 0 0 1 53.373210852381973 21.890232347302963 10.006161690051082 1 rotate no_reflect no_shear #
lump $-1 $-1 $48 $6 #
transform $-1 1 0 0 0 1 0 0 0 1 53.373210852381973 21.890232347302963 10.006161690051082 1 rotate no_reflect no_shear #
lump $-1 $-1 $49 $7 #
transform $-1 1 0 0 0 1 0 0 0 1 53.373210852381973 21.890232347302963 10.006161690051082 1 rotate no_reflect no_shear #
lump $-1 $-1 $50 $8 #
transform $-1 1 0 0 0 1 0 0 0 1 53.373210852381973 21.890232347302963 10.006161690051082 1 rotate no_reflect no_shear #
lump $-1 $-1 $51 $9 #
transform $-1 1 0 0 0 1 0 0 0 1 53.373210852381973 21.890232347302963 10.006161690051082 1 rotate no_reflect no_shear #
lump $-1 $-1 $52 $10 #
transform $-1 1 0 0 0 1 0 0 0 1 53.373210852381973 21.890232347302963 10.006161690051082 1 rotate no_reflect no_shear #
lump $-1 $-1 $53 $11 #
transform $-1 1 0 0 0 1 0 0 0 1 53.373210852381973 21.890232347302963 10.006161690051082 1 rotate no_reflect no_shear #
lump $-1 $-1 $54 $12 #
transform $-1 1 0 0 0 1 0 0 0 1 53.373210852381973 21.890232347302963 10.006161690051082 1 rotate no_reflect no_shear #
lump $-1 $-1 $55 $13 #
transform $-1 1 0 0 0 1 0 0 0 1 53.373210852381973 21.890232347302963 10.006161690051082 1 rotate no_reflect no_shear #
shell $-1 $-1 $-1 $56 $-1 $14 #
shell $-1 $-1 $-1 $57 $-1 $16 #
shell $-1 $-1 $-1 $58 $-1 $18 #
shell $-1 $-1 $-1 $59 $-1 $20 #
shell $-1 $-1 $-1 $60 $-1 $22 #
shell $-1 $-1 $-1 $61 $-1 $24 #
shell $-1 $-1 $-1 $62 $-1 $26 #
shell $-1 $-1 $-1 $63 $-1 $28 #
shell $-1 $-1 $-1 $64 $-1 $30 #
shell $-1 $-1 $-1 $65 $-1 $32 #
shell $-1 $-1 $-1 $66 $-1 $34 #
shell $-1 $-1 $-1 $67 $-1 $36 #
shell $-1 $-1 $-1 $68 $-1 $38 #
shell $-1 $-1 $-1 $69 $-1 $40 #
face $-1 $70 $71 $42 $-1 $72 forward single #
face $-1 $73 $74 $43 $-1 $75 reversed single #
face $-1 $76 $77 $44 $-1 $78 reversed single #
face $-1 $79 $80 $45 $-1 $81 forward single #
face $-1 $82 $83 $46 $-1 $84 forward single #
face $-1 $85 $86 $47 $-1 $87 reversed single #
face $-1 $88 $89 $48 $-1 $90 forward single #
face $-1 $91 $92 $49 $-1 $93 forward single #
face $-1 $94 $95 $50 $-1 $96 reversed single #
face $-1 $97 $98 $51 $-1 $99 forward single #
face $-1 $100 $101 $52 $-1 $102 forward single #
face $-1 $103 $104 $53 $-1 $105 reversed single #
face $-1 $106 $107 $54 $-1 $108 forward single #
face $-1 $109 $110 $55 $-1 $111 forward single #
face $-1 $112 $113 $42 $-1 $114 reversed single #
loop $-1 $-1 $115 $56 #
plane-surface $-1 0 0 10.006161690051082 0 0 1 1 0 0 forward_v I I I I #
face $-1 $116 $117 $43 $-1 $118 reversed single #
loop $-1 $-1 $119 $57 #
plane-surface $-1 -47.046270261821498 -18.890232347302963 0 0 -1 0 0 0 -1 forward_v I I I I #
face $-1 $120 $121 $44 $-1 $122 reversed single #
loop $-1 $-1 $123 $58 #
plane-surface $-1 -29.968265508932873 -21.890232347302955 3.7796539260546496 0 -0.79863551827123203 0.60181501223851219 1 0 0 forward_v I I I I #
face $-1 $124 $125 $45 $-1 $126 forward single #
loop $-1 $127 $128 $59 #
cone-surface $-1 -34.575864435644938 -18.333429406531209 5.9805061456950499 0 0.79863551827123203 -0.60181501223851219 1 0 0 1 I I 0 1 1 forward I I I I #
face $-1 $129 $130 $46 $-1 $131 forward single #
loop $-1 $132 $133 $60 #
cone-surface $-1 -25.360666582220816 -18.333429406531209 5.9805061456950499 0 0.79863551827123203 -0.60181501223851219 1 0 0 1 I I 0 1 1 forward I I I I #
face $-1 $134 $135 $47 $-1 $136 reversed single #
loop $-1 $-1 $137 $61 #
plane-surface $-1 27.829068915216759 -107.14171616908661 68.02125301072455 -1 0 0 0 -0.79863551827123203 0.60181501223851219 forward_v I I I I #
face $-1 $138 $139 $48 $-1 $140 forward single #
loop $-1 $141 $142 $62 #
cone-surface $-1 12.47040582617656 -18.333429406531209 5.9805061456950499 0 0.79863551827123203 -0.60181501223851219 1 0 0 1 I I 0 1 1 forward I I I I #
face $-1 $143 $144 $49 $-1 $145 forward single #
loop $-1 $146 $147 $63 #
cone-surface $-1 21.685603679600675 -18.333429406531209 5.9805061456950499 0 0.79863551827123203 -0.60181501223851219 1 0 0 1 I I 0 1 1 forward I I I I #
face $-1 $148 $149 $50 $-1 $150 reversed single #
loop $-1 $-1 $151 $64 #
plane-surface $-1 -40.719329671261015 80.793975273094588 102.98588712225653 1 0 0 0 -0.79863551827123203 -0.60181501223851219 forward_v I I I I #
face $-1 $152 $153 $51 $-1 $154 forward single #
loop $-1 $155 $156 $65 #
cone-surface $-1 -34.575864435644938 18.333429406531209 5.9805061456950446 0 -0.79863551827123203 -0.60181501223851219 1 0 0 1 I I 0 1 1 forward I I I I #
face $-1 $157 $158 $52 $-1 $159 forward single #
loop $-1 $160 $161 $66 #
cone-surface $-1 -25.360666582220816 18.333429406531209 5.9805061456950446 0 -0.79863551827123203 -0.60181501223851219 1 0 0 1 I I 0 1 1 forward I I I I #
face $-1 $162 $163 $53 $-1 $164 reversed single #
loop $-1 $-1 $165 $67 #
plane-surface $-1 6.3269405905604739 80.793975273094588 102.98588712225653 1 0 0 0 -0.79863551827123203 -0.60181501223851219 forward_v I I I I #
face $-1 $166 $167 $54 $-1 $168 forward single #
loop $-1 $169 $170 $68 #
cone-surface $-1 12.47040582617656 18.333429406531209 5.9805061456950446 0 -0.79863551827123203 -0.60181501223851219 1 0 0 1 I I 0 1 1 forward I I I I #
face $-1 $171 $172 $55 $-1 $173 forward single #
loop $-1 $174 $175 $69 #
cone-surface $-1 21.685603679600675 18.333429406531209 5.9805061456950446 0 -0.79863551827123203 -0.60181501223851219 1 0 0 1 I I 0 1 1 forward I I I I #
face $-1 $176 $177 $42 $-1 $178 reversed single #
loop $-1 $-1 $179 $70 #
plane-surface $-1 0 0 -10.006161690051082 0 0 1 1 0 0 forward_v I I I I #
coedge $-1 $180 $181 $182 $183 forward $71 $-1 #
face $-1 $184 $185 $43 $-1 $186 forward single #
loop $-1 $-1 $187 $73 #
plane-surface $-1 -40.719329671261022 -20.390232347302963 0 -1 0 0 0 0 1 forward_v I I I I #
coedge $-1 $188 $189 $190 $191 forward $74 $-1 #
face $-1 $192 $193 $44 $-1 $194 forward single #
loop $-1 $-1 $195 $76 #
plane-surface $-1 -19.217201346604732 -107.14171616908661 68.02125301072455 -1 0 0 0 -0.79863551827123203 0.60181501223851219 forward_v I I I I #
coedge $-1 $196 $197 $198 $199 reversed $77 $-1 #
face $-1 $-1 $200 $45 $-1 $201 forward single #
loop $-1 $202 $203 $79 #
cone-surface $-1 -34.575864435644938 -16.723313711700563 4.7671969772179743 0 0.79863551827123203 -0.60181501223851219 0.5 0 0 1 I I -0.70710678118654746 0.70710678118654746 0.5 forward I I I I #
loop $-1 $-1 $204 $59 #
coedge $-1 $128 $128 $205 $206 reversed $80 $-1 #
face $-1 $-1 $207 $46 $-1 $208 forward single #
loop $-1 $209 $210 $82 #
cone-surface $-1 -25.360666582220816 -16.723313711700563 4.7671969772179743 0 0.79863551827123203 -0.60181501223851219 0.5 0 0 1 I I -0.70710678118654746 0.70710678118654746 0.5 forward I I I I #
loop $-1 $-1 $211 $60 #
coedge $-1 $133 $133 $212 $213 reversed $83 $-1 #
face $-1 $214 $215 $47 $-1 $216 reversed single #
loop $-1 $-1 $217 $85 #
plane-surface $-1 17.078004752888617 -21.890232347302955 3.7796539260546496 0 -0.79863551827123203 0.60181501223851219 1 0 0 forward_v I I I I #
coedge $-1 $218 $219 $220 $221 reversed $86 $-1 #
face $-1 $-1 $222 $48 $-1 $223 forward single #
loop $-1 $224 $225 $88 #
cone-surface $-1 12.47040582617656 -16.723313711700563 4.7671969772179743 0 0.79863551827123203 -0.60181501223851219 0.5 0 0 1 I I -0.70710678118654746 0.70710678118654746 0.5 forward I I I I #
loop $-1 $-1 $226 $62 #
coedge $-1 $142 $142 $227 $228 reversed $89 $-1 #
face $-1 $-1 $229 $49 $-1 $230 forward single #
loop $-1 $231 $232 $91 #
cone-surface $-1 21.685603679600675 -16.723313711700563 4.7671969772179743 0 0.79863551827123203 -0.60181501223851219 0.5 0 0 1 I I -0.70710678118654746 0.70710678118654746 0.5 forward I I I I #
loop $-1 $-1 $233 $63 #
coedge $-1 $147 $147 $234 $235 reversed $92 $-1 #
face $-1 $236 $237 $50 $-1 $238 reversed single #
loop $-1 $-1 $239 $94 #
plane-surface $-1 -29.968265508932873 -4.4575085486890629 38.744288037586628 0 0.79863551827123203 0.60181501223851219 1 0 0 forward_v I I I I #
coedge $-1 $240 $241 $242 $243 reversed $95 $-1 #
face $-1 $-1 $244 $51 $-1 $245 forward single #
loop $-1 $246 $247 $97 #
cone-surface $-1 -34.575864435644938 16.723313711700563 4.767196977217969 0 -0.79863551827123203 -0.60181501223851219 0.5 0 0 1 I I -0.70710678118654746 0.70710678118654746 0.5 forward I I I I #
loop $-1 $-1 $248 $65 #
coedge $-1 $156 $156 $249 $250 reversed $98 $-1 #
face $-1 $-1 $251 $52 $-1 $252 forward single #
loop $-1 $253 $254 $100 #
cone-surface $-1 -25.360666582220816 16.723313711700563 4.767196977217969 0 -0.79863551827123203 -0.60181501223851219 0.5 0 0 1 I I -0.70710678118654746 0.70710678118654746 0.5 forward I I I I #
loop $-1 $-1 $255 $66 #
coedge $-1 $161 $161 $256 $257 reversed $101 $-1 #
face $-1 $258 $259 $53 $-1 $260 reversed single #
loop $-1 $-1 $261 $103 #
plane-surface $-1 17.078004752888617 -4.4575085486890629 38.744288037586628 0 0.79863551827123203 0.60181501223851219 1 0 0 forward_v I I I I #
coedge $-1 $262 $263 $264 $265 reversed $104 $-1 #
face $-1 $-1 $266 $54 $-1 $267 forward single #
loop $-1 $268 $269 $106 #
cone-surface $-1 12.47040582617656 16.723313711700563 4.767196977217969 0 -0.79863551827123203 -0.60181501223851219 0.5 0 0 1 I I -0.70710678118654746 0.70710678118654746 0.5 forward I I I I #
loop $-1 $-1 $270 $68 #
coedge $-1 $170 $170 $271 $272 reversed $107 $-1 #
face $-1 $-1 $273 $55 $-1 $274 forward single #
loop $-1 $275 $276 $109 #
cone-surface $-1 21.685603679600675 16.723313711700563 4.767196977217969 0 -0.79863551827123203 -0.60181501223851219 0.5 0 0 1 I I -0.70710678118654746 0.70710678118654746 0.5 forward I I I I #
loop $-1 $-1 $277 $69 #
coedge $-1 $175 $175 $278 $279 reversed $110 $-1 #
face $-1 $280 $281 $42 $-1 $282 reversed single #
loop $-1 $-1 $283 $112 #
plane-surface $-1 0 -21.890232347302963 0 0 1 0 0 0 1 forward_v I I I I #
coedge $-1 $284 $285 $286 $287 forward $113 $-1 #
coedge $-1 $288 $115 $289 $290 forward $71 $-1 #
coedge $-1 $115 $288 $291 $292 forward $71 $-1 #
coedge $-1 $293 $294 $115 $183 reversed $295 $-1 #
edge $-1 $296 -21.890232347302963 $297 21.890232347302963 $182 $298 forward 7 unknown #
face $-1 $299 $300 $43 $-1 $301 reversed single #
loop $-1 $-1 $302 $116 #
plane-surface $-1 0 0 10.006161690051082 0 0 1 1 0 0 forward_v I I I I #
coedge $-1 $303 $304 $305 $306 reversed $117 $-1 #
coedge $-1 $307 $119 $308 $309 reversed $74 $-1 #
coedge $-1 $119 $307 $310 $311 reversed $74 $-1 #
coedge $-1 $304 $303 $119 $191 reversed $117 $-1 #
edge $-1 $312 -10.006161690051082 $313 10.006161690051082 $190 $314 forward 7 unknown #
face $-1 $315 $316 $44 $-1 $317 forward single #
loop $-1 $-1 $318 $120 #
plane-surface $-1 0 0 10.006161690051082 0 0 1 1 0 0 forward_v I I I I #
coedge $-1 $319 $320 $321 $322 reversed $121 $-1 #
coedge $-1 $323 $123 $324 $325 reversed $77 $-1 #
coedge $-1 $123 $323 $319 $326 forward $77 $-1 #
coedge $-1 $321 $327 $123 $199 forward $328 $-1 #
edge $-1 $329 -25.735196916794585 $330 -4.2330685921382951 $198 $331 forward 7 unknown #
loop $-1 $-1 $205 $124 #
plane-surface $-1 -29.968265508932873 -21.890232347302955 3.7796539260546496 0 -0.79863551827123203 0.60181501223851219 1 0 0 forward_v I I I I #
loop $-1 $-1 $332 $79 #
coedge $-1 $203 $203 $204 $333 reversed $125 $-1 #
coedge $-1 $204 $204 $203 $333 forward $127 $-1 #
coedge $-1 $205 $205 $128 $206 forward $200 $-1 #
edge $-1 $334 -2.0167856967305989e-017 $334 6.2831853071796004 $205 $335 forward 7 unknown #
loop $-1 $-1 $212 $129 #
plane-surface $-1 -29.968265508932873 -21.890232347302955 3.7796539260546496 0 -0.79863551827123203 0.60181501223851219 1 0 0 forward_v I I I I #
loop $-1 $-1 $336 $82 #
coedge $-1 $210 $210 $211 $337 reversed $130 $-1 #
coedge $-1 $211 $211 $210 $337 forward $132 $-1 #
coedge $-1 $212 $212 $133 $213 forward $207 $-1 #
edge $-1 $338 -2.0167856967305989e-017 $338 6.2831853071796004 $212 $339 forward 7 unknown #
face $-1 $340 $341 $47 $-1 $342 forward single #
loop $-1 $-1 $343 $134 #
plane-surface $-1 6.3269405905604739 -107.14171616908661 68.02125301072455 1 0 0 0 0.79863551827123203 -0.60181501223851219 forward_v I I I I #
coedge $-1 $344 $345 $346 $347 reversed $135 $-1 #
coedge $-1 $219 $137 $348 $349 reversed $86 $-1 #
coedge $-1 $137 $218 $344 $350 reversed $86 $-1 #
coedge $-1 $346 $351 $137 $221 forward $341 $-1 #
edge $-1 $352 31.680625737240341 $353 36.372635747393787 $220 $354 forward 7 unknown #
loop $-1 $-1 $227 $138 #
plane-surface $-1 17.078004752888617 -21.890232347302955 3.7796539260546496 0 -0.79863551827123203 0.60181501223851219 1 0 0 forward_v I I I I #
loop $-1 $-1 $355 $88 #
coedge $-1 $225 $225 $226 $356 reversed $139 $-1 #
coedge $-1 $226 $226 $225 $356 forward $141 $-1 #
coedge $-1 $227 $227 $142 $228 forward $222 $-1 #
edge $-1 $357 -2.0167856967305989e-017 $357 6.2831853071796004 $227 $358 forward 7 unknown #
loop $-1 $-1 $234 $143 #
plane-surface $-1 17.078004752888617 -21.890232347302955 3.7796539260546496 0 -0.79863551827123203 0.60181501223851219 1 0 0 forward_v I I I I #
loop $-1 $-1 $359 $91 #
coedge $-1 $232 $232 $233 $360 reversed $144 $-1 #
coedge $-1 $233 $233 $232 $360 forward $146 $-1 #
coedge $-1 $234 $234 $147 $235 forward $229 $-1 #
edge $-1 $361 -2.0167856967305989e-017 $361 6.2831853071796004 $234 $362 forward 7 unknown #
face $-1 $363 $364 $50 $-1 $365 reversed single #
loop $-1 $-1 $366 $148 #
plane-surface $-1 -19.217201346604732 80.793975273094588 102.98588712225653 -1 0 0 0 0.79863551827123203 0.60181501223851219 forward_v I I I I #
coedge $-1 $367 $368 $369 $370 reversed $149 $-1 #
coedge $-1 $241 $151 $371 $372 reversed $95 $-1 #
coedge $-1 $151 $240 $367 $373 reversed $95 $-1 #
coedge $-1 $369 $374 $151 $243 forward $375 $-1 #
edge $-1 $376 18.506755289244332 $377 23.198765299397785 $242 $378 forward 7 unknown #
loop $-1 $-1 $249 $152 #
plane-surface $-1 -29.968265508932873 -4.4575085486890629 38.744288037586628 0 0.79863551827123203 0.60181501223851219 1 0 0 forward_v I I I I #
loop $-1 $-1 $379 $97 #
coedge $-1 $247 $247 $248 $380 reversed $153 $-1 #
coedge $-1 $248 $248 $247 $380 forward $155 $-1 #
coedge $-1 $249 $249 $156 $250 forward $244 $-1 #
edge $-1 $381 7.3958261798549163e-016 $381 6.2831853071796013 $249 $382 forward 7 unknown #
loop $-1 $-1 $256 $157 #
plane-surface $-1 -29.968265508932873 -4.4575085486890629 38.744288037586628 0 0.79863551827123203 0.60181501223851219 1 0 0 forward_v I I I I #
loop $-1 $-1 $383 $100 #
coedge $-1 $254 $254 $255 $384 reversed $158 $-1 #
coedge $-1 $255 $255 $254 $384 forward $160 $-1 #
coedge $-1 $256 $256 $161 $257 forward $251 $-1 #
edge $-1 $385 7.3958261798549163e-016 $385 6.2831853071796013 $256 $386 forward 7 unknown #
face $-1 $387 $388 $53 $-1 $389 forward single #
loop $-1 $-1 $390 $162 #
plane-surface $-1 27.829068915216759 80.793975273094588 102.98588712225653 -1 0 0 0 0.79863551827123203 0.60181501223851219 forward_v I I I I #
coedge $-1 $391 $392 $393 $394 reversed $163 $-1 #
coedge $-1 $263 $165 $395 $396 reversed $104 $-1 #
coedge $-1 $165 $262 $391 $397 reversed $104 $-1 #
coedge $-1 $393 $398 $165 $265 forward $388 $-1 #
edge $-1 $399 18.506755289244332 $400 23.198765299397785 $264 $401 forward 7 unknown #
loop $-1 $-1 $271 $166 #
plane-surface $-1 17.078004752888617 -4.4575085486890629 38.744288037586628 0 0.79863551827123203 0.60181501223851219 1 0 0 forward_v I I I I #
loop $-1 $-1 $402 $106 #
coedge $-1 $269 $269 $270 $403 reversed $167 $-1 #
coedge $-1 $270 $270 $269 $403 forward $169 $-1 #
coedge $-1 $271 $271 $170 $272 forward $266 $-1 #
edge $-1 $404 7.3958261798549163e-016 $404 6.2831853071796013 $271 $405 forward 7 unknown #
loop $-1 $-1 $278 $171 #
plane-surface $-1 17.078004752888617 -4.4575085486890629 38.744288037586628 0 0.79863551827123203 0.60181501223851219 1 0 0 forward_v I I I I #
loop $-1 $-1 $406 $109 #
coedge $-1 $276 $276 $277 $407 reversed $172 $-1 #
coedge $-1 $277 $277 $276 $407 forward $174 $-1 #
coedge $-1 $278 $278 $175 $279 forward $273 $-1 #
edge $-1 $408 7.3958261798549163e-016 $408 6.2831853071796013 $278 $409 forward 7 unknown #
face $-1 $410 $411 $42 $-1 $412 reversed single #
loop $-1 $-1 $413 $176 #
plane-surface $-1 -53.373210852381973 0 0 1 0 0 0 0 -1 forward_v I I I I #
coedge $-1 $414 $291 $415 $416 forward $177 $-1 #
coedge $-1 $417 $179 $414 $418 forward $113 $-1 #
coedge $-1 $179 $417 $419 $420 forward $113 $-1 #
coedge $-1 $294 $293 $179 $287 reversed $295 $-1 #
edge $-1 $421 -21.890232347302963 $422 21.890232347302963 $286 $423 forward 7 unknown #
coedge $-1 $181 $180 $424 $425 forward $71 $-1 #
coedge $-1 $426 $427 $180 $290 reversed $411 $-1 #
edge $-1 $297 -53.373210852381973 $428 53.373210852381973 $289 $429 forward 7 unknown #
coedge $-1 $283 $430 $181 $292 reversed $177 $-1 #
edge $-1 $431 -53.373210852381973 $296 53.373210852381973 $291 $432 forward 7 unknown #
coedge $-1 $286 $182 $430 $433 forward $295 $-1 #
coedge $-1 $182 $286 $426 $434 reversed $295 $-1 #
loop $-1 $-1 $293 $410 #
vertex $-1 $183 $435 #
vertex $-1 $183 $436 #
straight-curve $-1 53.373210852381973 0 10.006161690051082 0 1 0 I I #
face $-1 $437 $438 $43 $-1 $439 reversed single #
loop $-1 $-1 $440 $184 #
plane-surface $-1 -53.373210852381973 0 0 1 0 0 0 0 -1 forward_v I I I I #
coedge $-1 $310 $441 $304 $442 forward $185 $-1 #
coedge $-1 $190 $187 $443 $444 reversed $117 $-1 #
coedge $-1 $187 $190 $302 $442 reversed $117 $-1 #
coedge $-1 $445 $446 $187 $306 forward $447 $-1 #
edge $-1 $448 -10.006161690051082 $449 10.006161690051082 $305 $450 forward 7 unknown #
coedge $-1 $189 $188 $440 $451 reversed $74 $-1 #
coedge $-1 $443 $452 $188 $309 forward $438 $-1 #
edge $-1 $453 -29.850075721471224 $313 -17.196194540350273 $308 $454 forward 7 unknown #
coedge $-1 $455 $302 $189 $311 forward $185 $-1 #
edge $-1 $312 17.196194540350273 $456 29.850075721471224 $310 $457 forward 7 unknown #
vertex $-1 $311 $458 #
vertex $-1 $309 $459 #
straight-curve $-1 -40.719329671261022 -18.890232347302963 0 0 0 -1 I I #
face $-1 $-1 $328 $44 $-1 $460 reversed single #
loop $-1 $-1 $324 $192 #
plane-surface $-1 -40.719329671261022 -20.390232347302963 0 -1 0 0 0 0 1 forward_v I I I I #
coedge $-1 $461 $462 $320 $463 forward $193 $-1 #
coedge $-1 $320 $195 $197 $326 reversed $121 $-1 #
coedge $-1 $195 $319 $318 $463 reversed $121 $-1 #
coedge $-1 $464 $198 $195 $322 forward $328 $-1 #
edge $-1 $330 -30.230972579307636 $465 -24.004464815311195 $321 $466 forward 7 unknown #
coedge $-1 $197 $196 $461 $467 reversed $77 $-1 #
coedge $-1 $468 $469 $196 $325 forward $316 $-1 #
edge $-1 $470 -8.8543539936842492 $329 -1.0579216768813808 $324 $471 forward 7 unknown #
edge $-1 $472 -7.7964323168028553 $330 1.1724126593787106e-014 $319 $473 forward 7 unknown #
coedge $-1 $198 $464 $468 $474 forward $328 $-1 #
loop $-1 $-1 $321 $315 #
vertex $-1 $325 $475 #
vertex $-1 $199 $476 #
straight-curve $-1 -14.984132754466437 -21.890232347302963 3.779653926054638 1 0 0 I I #
coedge $-1 $332 $332 $-1 $477 reversed $202 $-1 #
edge $-1 $478 0 $478 6.2831853071796004 $203 $479 forward 7 unknown #
vertex $-1 $206 $480 #
ellipse-curve $-1 -34.575864435644938 -19.544227342226236 6.8929078080528647 0 -0.79863551827123203 0.60181501223851219 1 0 0 1 I I #
coedge $-1 $336 $336 $-1 $481 reversed $209 $-1 #
edge $-1 $482 0 $482 6.2831853071796004 $210 $483 forward 7 unknown #
vertex $-1 $213 $484 #
ellipse-curve $-1 -25.360666582220816 -19.544227342226236 6.8929078080528647 0 -0.79863551827123203 0.60181501223851219 1 0 0 1 I I #
face $-1 $-1 $485 $47 $-1 $486 reversed single #
loop $-1 $-1 $220 $214 #
plane-surface $-1 0 0 10.006161690051082 0 0 1 1 0 0 forward_v I I I I #
coedge $-1 $487 $488 $489 $490 reversed $215 $-1 #
coedge $-1 $491 $217 $219 $350 forward $135 $-1 #
coedge $-1 $217 $491 $487 $492 forward $135 $-1 #
coedge $-1 $489 $220 $217 $347 forward $341 $-1 #
edge $-1 $353 -19.29006653877245 $493 2.2120617858838347 $346 $494 forward 7 unknown #
coedge $-1 $495 $496 $218 $349 forward $485 $-1 #
edge $-1 $497 -30.230972579307636 $352 -24.004464815311195 $348 $498 forward 7 unknown #
edge $-1 $353 -7.7964323168028553 $497 1.1724126593787106e-014 $219 $499 forward 7 unknown #
coedge $-1 $220 $489 $495 $500 forward $341 $-1 #
vertex $-1 $349 $501 #
vertex $-1 $221 $502 #
straight-curve $-1 27.829068915216759 -53.570858084543303 10.00616169005108 0 1 0 I I #
coedge $-1 $355 $355 $-1 $503 reversed $224 $-1 #
edge $-1 $504 0 $504 6.2831853071796004 $225 $505 forward 7 unknown #
vertex $-1 $228 $506 #
ellipse-curve $-1 12.47040582617656 -19.544227342226236 6.8929078080528647 0 -0.79863551827123203 0.60181501223851219 1 0 0 1 I I #
coedge $-1 $359 $359 $-1 $507 reversed $231 $-1 #
edge $-1 $508 0 $508 6.2831853071796004 $232 $509 forward 7 unknown #
vertex $-1 $235 $510 #
ellipse-curve $-1 21.685603679600675 -19.544227342226236 6.8929078080528647 0 -0.79863551827123203 0.60181501223851219 1 0 0 1 I I #
face $-1 $-1 $375 $50 $-1 $511 forward single #
loop $-1 $-1 $512 $236 #
plane-surface $-1 0 21.890232347302963 0 0 -1 0 0 0 -1 forward_v I I I I #
coedge $-1 $513 $514 $515 $516 reversed $237 $-1 #
coedge $-1 $517 $239 $241 $373 forward $149 $-1 #
coedge $-1 $239 $517 $513 $518 forward $149 $-1 #
coedge $-1 $515 $242 $239 $370 forward $375 $-1 #
edge $-1 $377 -25.735196916794578 $519 -4.2330685921382951 $369 $520 forward 7 unknown #
coedge $-1 $521 $522 $240 $372 forward $364 $-1 #
edge $-1 $523 -47.713289635073629 $376 -41.486781871077184 $371 $524 forward 7 unknown #
edge $-1 $377 35.984032377803068 $523 43.780464694605939 $241 $525 forward 7 unknown #
coedge $-1 $242 $515 $521 $526 forward $375 $-1 #
loop $-1 $-1 $515 $363 #
vertex $-1 $372 $527 #
vertex $-1 $243 $528 #
straight-curve $-1 -40.719329671261015 40.396987636547294 10.00616169005108 0 -1 0 I I #
coedge $-1 $379 $379 $-1 $529 reversed $246 $-1 #
edge $-1 $530 0 $530 6.2831853071796004 $247 $531 forward 7 unknown #
vertex $-1 $250 $532 #
ellipse-curve $-1 -34.575864435644938 19.544227342226232 6.8929078080528576 0 0.79863551827123203 0.60181501223851219 1 0 0 1 I I #
coedge $-1 $383 $383 $-1 $533 reversed $253 $-1 #
edge $-1 $534 0 $534 6.2831853071796004 $254 $535 forward 7 unknown #
vertex $-1 $257 $536 #
ellipse-curve $-1 -25.360666582220816 19.544227342226232 6.8929078080528576 0 0.79863551827123203 0.60181501223851219 1 0 0 1 I I #
face $-1 $-1 $537 $53 $-1 $538 reversed single #
loop $-1 $-1 $264 $258 #
plane-surface $-1 0 0 10.006161690051082 0 0 1 1 0 0 forward_v I I I I #
coedge $-1 $539 $540 $541 $542 reversed $259 $-1 #
coedge $-1 $543 $261 $263 $397 forward $163 $-1 #
coedge $-1 $261 $543 $539 $544 forward $163 $-1 #
coedge $-1 $541 $264 $261 $394 forward $388 $-1 #
edge $-1 $400 -2.2120617858838347 $545 19.29006653877245 $393 $546 forward 7 unknown #
coedge $-1 $547 $548 $262 $396 forward $537 $-1 #
edge $-1 $549 -47.713289635073629 $399 -41.486781871077184 $395 $550 forward 7 unknown #
edge $-1 $400 35.984032377803068 $549 43.780464694605939 $263 $551 forward 7 unknown #
coedge $-1 $264 $541 $547 $552 forward $388 $-1 #
vertex $-1 $396 $553 #
vertex $-1 $265 $554 #
straight-curve $-1 6.3269405905604739 40.396987636547294 10.00616169005108 0 -1 0 I I #
coedge $-1 $402 $402 $-1 $555 reversed $268 $-1 #
edge $-1 $556 0 $556 6.2831853071796004 $269 $557 forward 7 unknown #
vertex $-1 $272 $558 #
ellipse-curve $-1 12.47040582617656 19.544227342226232 6.8929078080528576 0 0.79863551827123203 0.60181501223851219 1 0 0 1 I I #
coedge $-1 $406 $406 $-1 $559 reversed $275 $-1 #
edge $-1 $560 0 $560 6.2831853071796004 $276 $561 forward 7 unknown #
vertex $-1 $279 $562 #
ellipse-curve $-1 21.685603679600675 19.544227342226232 6.8929078080528576 0 0.79863551827123203 0.60181501223851219 1 0 0 1 I I #
face $-1 $-1 $295 $42 $-1 $563 reversed single #
loop $-1 $-1 $426 $280 #
plane-surface $-1 0 21.890232347302963 0 0 -1 0 0 0 -1 forward_v I I I I #
coedge $-1 $564 $424 $427 $565 forward $281 $-1 #
coedge $-1 $430 $283 $284 $418 reversed $177 $-1 #
coedge $-1 $424 $564 $283 $416 reversed $281 $-1 #
edge $-1 $431 -10.006161690051082 $566 10.006161690051082 $415 $567 forward 7 unknown #
coedge $-1 $285 $284 $564 $568 forward $113 $-1 #
edge $-1 $422 -53.373210852381973 $566 53.373210852381973 $414 $569 forward 7 unknown #
coedge $-1 $427 $426 $285 $420 reversed $411 $-1 #
edge $-1 $570 -53.373210852381973 $421 53.373210852381973 $419 $571 forward 7 unknown #
vertex $-1 $287 $572 #
vertex $-1 $433 $573 #
straight-curve $-1 53.373210852381973 0 -10.006161690051082 0 -1 0 I I #
coedge $-1 $413 $415 $288 $425 reversed $281 $-1 #
edge $-1 $428 -21.890232347302963 $431 21.890232347302963 $424 $574 forward 7 unknown #
coedge $-1 $419 $289 $294 $434 forward $411 $-1 #
coedge $-1 $289 $419 $413 $565 reversed $411 $-1 #
vertex $-1 $290 $575 #
straight-curve $-1 0 21.890232347302963 10.006161690051082 -1 0 0 I I #
coedge $-1 $291 $414 $293 $433 reversed $177 $-1 #
vertex $-1 $425 $576 #
straight-curve $-1 0 -21.890232347302963 10.006161690051082 1 0 0 I I #
edge $-1 $296 -10.006161690051082 $422 10.006161690051082 $293 $577 forward 7 unknown #
edge $-1 $297 -10.006161690051082 $421 10.006161690051082 $294 $578 forward 7 unknown #
point $-1 53.373210852381973 -21.890232347302963 10.006161690051082 #
point $-1 53.373210852381973 21.890232347302963 10.006161690051082 #
face $-1 $-1 $447 $43 $-1 $579 reversed single #
loop $-1 $-1 $443 $299 #
plane-surface $-1 0 0 -10.006161690051082 0 0 1 1 0 0 forward_v I I I I #
coedge $-1 $580 $581 $307 $451 forward $300 $-1 #
coedge $-1 $302 $455 $445 $582 forward $185 $-1 #
edge $-1 $449 -11.695116173651481 $312 -8.6951161736514813 $302 $583 forward 7 unknown #
coedge $-1 $584 $308 $303 $444 forward $438 $-1 #
edge $-1 $313 8.6951161736514813 $448 11.695116173651481 $443 $585 forward 7 unknown #
coedge $-1 $586 $305 $441 $582 reversed $447 $-1 #
coedge $-1 $305 $586 $584 $587 reversed $447 $-1 #
loop $-1 $-1 $305 $437 #
vertex $-1 $587 $588 #
vertex $-1 $306 $589 #
straight-curve $-1 -40.719329671261022 -21.890232347302963 0 0 0 1 I I #
edge $-1 $456 -10.006161690051082 $453 10.006161690051082 $440 $590 forward 7 unknown #
coedge $-1 $308 $584 $580 $591 forward $438 $-1 #
vertex $-1 $309 $592 #
straight-curve $-1 -23.523135130910749 -18.890232347302963 -10.006161690051082 1 0 0 I I #
coedge $-1 $441 $310 $581 $593 forward $185 $-1 #
vertex $-1 $593 $594 #
straight-curve $-1 -23.523135130910749 -18.890232347302963 10.006161690051082 -1 0 0 I I #
point $-1 -40.719329671261022 -18.890232347302963 10.006161690051082 #
point $-1 -40.719329671261022 -18.890232347302963 -10.006161690051082 #
plane-surface $-1 0 -21.890232347302963 0 0 1 0 0 0 1 forward_v I I I I #
coedge $-1 $595 $318 $323 $467 forward $193 $-1 #
coedge $-1 $318 $595 $464 $596 forward $193 $-1 #
edge $-1 $465 31.680625737240341 $472 36.372635747393787 $318 $597 forward 7 unknown #
coedge $-1 $327 $321 $462 $596 reversed $328 $-1 #
vertex $-1 $463 $598 #
straight-curve $-1 -19.217201346604732 -21.890232347302963 34.010626505362275 0 0 1 I I #
edge $-1 $472 4.2330685921382951 $470 25.735196916794578 $461 $599 forward 7 unknown #
coedge $-1 $469 $324 $327 $474 reversed $316 $-1 #
coedge $-1 $324 $468 $595 $600 reversed $316 $-1 #
vertex $-1 $600 $601 #
straight-curve $-1 -40.719329671261022 -22.526905494222717 2.9347600993481064 0 -0.60181501223851219 -0.79863551827123203 I I #
vertex $-1 $467 $602 #
straight-curve $-1 -19.217201346604732 -21.890232347302955 3.7796539260546496 0 -0.60181501223851219 -0.79863551827123203 I I #
edge $-1 $603 -10.006161690051082 $329 -3.7796539260546398 $327 $604 forward 7 unknown #
point $-1 -40.719329671261022 -21.890232347302963 3.7796539260546398 #
point $-1 -19.217201346604732 -21.890232347302963 3.7796539260546402 #
edge $-1 $605 1 $605 0 $332 $-1 forward 7 unknown #
vertex $-1 $333 $606 #
ellipse-curve $-1 -34.575864435644938 -17.122631470836179 5.0681044833372306 0 -0.79863551827123203 0.60181501223851219 1 0 0 1 I I #
point $-1 -33.575864435644938 -19.544227342226243 6.8929078080528701 #
edge $-1 $607 1 $607 0 $336 $-1 forward 7 unknown #
vertex $-1 $337 $608 #
ellipse-curve $-1 -25.360666582220816 -17.122631470836179 5.0681044833372306 0 -0.79863551827123203 0.60181501223851219 1 0 0 1 I I #
point $-1 -24.360666582220816 -19.544227342226243 6.8929078080528701 #
loop $-1 $-1 $348 $340 #
plane-surface $-1 0 -21.890232347302963 0 0 1 0 0 0 1 forward_v I I I I #
coedge $-1 $488 $343 $345 $492 reversed $215 $-1 #
coedge $-1 $343 $487 $609 $610 reversed $215 $-1 #
coedge $-1 $351 $346 $343 $490 forward $341 $-1 #
edge $-1 $493 -36.372635747393787 $611 -31.680625737240341 $489 $612 forward 7 unknown #
coedge $-1 $345 $344 $496 $613 reversed $135 $-1 #
edge $-1 $614 -1.1724126593787106e-014 $493 7.7964323168028553 $487 $615 forward 7 unknown #
vertex $-1 $347 $616 #
straight-curve $-1 8.5390023764443086 -17.19822233714951 10.006161690051082 -1 0 0 I I #
coedge $-1 $609 $348 $351 $500 reversed $485 $-1 #
coedge $-1 $348 $609 $491 $613 forward $485 $-1 #
vertex $-1 $349 $617 #
straight-curve $-1 27.829068915216759 -21.890232347302963 34.010626505362275 0 0 1 I I #
straight-curve $-1 27.829068915216759 -21.890232347302955 3.7796539260546496 0 -0.60181501223851219 -0.79863551827123203 I I #
edge $-1 $611 6.3269405905604739 $352 27.829068915216759 $495 $618 forward 7 unknown #
point $-1 27.829068915216759 -21.890232347302963 10.006161690051082 #
point $-1 27.829068915216759 -17.198222337149513 10.006161690051082 #
edge $-1 $619 1 $619 0 $355 $-1 forward 7 unknown #
vertex $-1 $356 $620 #
ellipse-curve $-1 12.47040582617656 -17.122631470836179 5.0681044833372306 0 -0.79863551827123203 0.60181501223851219 1 0 0 1 I I #
point $-1 13.47040582617656 -19.544227342226243 6.8929078080528701 #
edge $-1 $621 1 $621 0 $359 $-1 forward 7 unknown #
vertex $-1 $360 $622 #
ellipse-curve $-1 21.685603679600675 -17.122631470836179 5.0681044833372306 0 -0.79863551827123203 0.60181501223851219 1 0 0 1 I I #
point $-1 22.685603679600675 -19.544227342226243 6.8929078080528701 #
plane-surface $-1 0 0 10.006161690051082 0 0 1 1 0 0 forward_v I I I I #
coedge $-1 $522 $521 $514 $623 forward $364 $-1 #
coedge $-1 $514 $366 $368 $518 reversed $237 $-1 #
coedge $-1 $366 $513 $512 $623 reversed $237 $-1 #
coedge $-1 $374 $369 $366 $516 forward $375 $-1 #
edge $-1 $519 -23.198765299397785 $624 -18.506755289244332 $515 $625 forward 7 unknown #
coedge $-1 $368 $367 $522 $626 reversed $149 $-1 #
edge $-1 $627 -43.780464694605939 $519 -35.984032377803068 $513 $628 forward 7 unknown #
vertex $-1 $370 $629 #
straight-curve $-1 -14.984132754466437 17.198222337149513 10.006161690051083 1 0 0 I I #
coedge $-1 $512 $371 $374 $526 reversed $364 $-1 #
coedge $-1 $371 $512 $517 $626 forward $364 $-1 #
vertex $-1 $372 $630 #
straight-curve $-1 -40.719329671261015 21.890232347302963 51.492943561128264 0 0 1 I I #
straight-curve $-1 -40.719329671261015 -4.4575085486890629 38.744288037586628 0 0.60181501223851219 -0.79863551827123203 I I #
edge $-1 $624 19.217201346604732 $376 40.719329671261015 $521 $631 forward 7 unknown #
point $-1 -40.719329671261015 21.890232347302963 10.006161690051082 #
point $-1 -40.719329671261015 17.19822233714951 10.00616169005108 #
edge $-1 $632 1 $632 0 $379 $-1 forward 7 unknown #
vertex $-1 $380 $633 #
ellipse-curve $-1 -34.575864435644938 17.122631470836179 5.0681044833372253 0 0.79863551827123203 0.60181501223851219 1 0 0 1 I I #
point $-1 -33.575864435644938 19.544227342226243 6.8929078080528647 #
edge $-1 $634 1 $634 0 $383 $-1 forward 7 unknown #
vertex $-1 $384 $635 #
ellipse-curve $-1 -25.360666582220816 17.122631470836179 5.0681044833372253 0 0.79863551827123203 0.60181501223851219 1 0 0 1 I I #
point $-1 -24.360666582220816 19.544227342226243 6.8929078080528647 #
loop $-1 $-1 $395 $387 #
plane-surface $-1 0 21.890232347302963 0 0 -1 0 0 0 -1 forward_v I I I I #
coedge $-1 $540 $390 $392 $544 reversed $259 $-1 #
coedge $-1 $390 $539 $636 $637 reversed $259 $-1 #
coedge $-1 $398 $393 $390 $542 forward $388 $-1 #
edge $-1 $545 -23.198765299397785 $638 -18.506755289244332 $541 $639 forward 7 unknown #
coedge $-1 $392 $391 $548 $640 reversed $163 $-1 #
edge $-1 $641 -43.780464694605939 $545 -35.984032377803068 $539 $642 forward 7 unknown #
vertex $-1 $394 $643 #
straight-curve $-1 8.5390023764443086 17.198222337149513 10.006161690051083 1 0 0 I I #
coedge $-1 $636 $395 $398 $552 reversed $537 $-1 #
coedge $-1 $395 $636 $543 $640 forward $537 $-1 #
vertex $-1 $396 $644 #
straight-curve $-1 6.3269405905604739 21.890232347302963 51.492943561128264 0 0 1 I I #
straight-curve $-1 6.3269405905604739 -4.4575085486890629 38.744288037586628 0 0.60181501223851219 -0.79863551827123203 I I #
edge $-1 $638 -27.829068915216759 $399 -6.3269405905604739 $547 $645 forward 7 unknown #
point $-1 6.3269405905604739 21.890232347302963 10.006161690051082 #
point $-1 6.3269405905604739 17.19822233714951 10.00616169005108 #
edge $-1 $646 1 $646 0 $402 $-1 forward 7 unknown #
vertex $-1 $403 $647 #
ellipse-curve $-1 12.47040582617656 17.122631470836179 5.0681044833372253 0 0.79863551827123203 0.60181501223851219 1 0 0 1 I I #
point $-1 13.47040582617656 19.544227342226243 6.8929078080528647 #
edge $-1 $648 1 $648 0 $406 $-1 forward 7 unknown #
vertex $-1 $407 $649 #
ellipse-curve $-1 21.685603679600675 17.122631470836179 5.0681044833372253 0 0.79863551827123203 0.60181501223851219 1 0 0 1 I I #
point $-1 22.685603679600675 19.544227342226243 6.8929078080528647 #
plane-surface $-1 53.373210852381973 0 0 -1 0 0 0 0 1 forward_v I I I I #
coedge $-1 $415 $413 $417 $568 reversed $281 $-1 #
edge $-1 $428 -10.006161690051082 $570 10.006161690051082 $427 $650 forward 7 unknown #
vertex $-1 $568 $651 #
straight-curve $-1 -53.373210852381973 -21.890232347302963 0 0 0 -1 I I #
edge $-1 $566 -21.890232347302963 $570 21.890232347302963 $564 $652 forward 7 unknown #
straight-curve $-1 0 -21.890232347302963 -10.006161690051082 -1 0 0 I I #
vertex $-1 $420 $653 #
straight-curve $-1 0 21.890232347302963 -10.006161690051082 1 0 0 I I #
point $-1 53.373210852381973 21.890232347302963 -10.006161690051082 #
point $-1 53.373210852381973 -21.890232347302963 -10.006161690051082 #
straight-curve $-1 -53.373210852381973 0 10.006161690051082 0 -1 0 I I #
point $-1 -53.373210852381973 21.890232347302963 10.006161690051082 #
point $-1 -53.373210852381973 -21.890232347302963 10.006161690051082 #
straight-curve $-1 53.373210852381973 -21.890232347302963 0 0 0 -1 I I #
straight-curve $-1 53.373210852381973 21.890232347302963 0 0 0 -1 I I #
plane-surface $-1 0 -21.890232347302963 0 0 1 0 0 0 1 forward_v I I I I #
coedge $-1 $654 $440 $452 $591 reversed $300 $-1 #
coedge $-1 $440 $654 $455 $593 reversed $300 $-1 #
edge $-1 $655 -53.373210852381973 $449 -40.719329671261022 $445 $656 forward 7 unknown #
straight-curve $-1 -40.719329671261022 -10.195116173651481 10.006161690051082 0 1 0 I I #
coedge $-1 $452 $443 $446 $587 forward $438 $-1 #
straight-curve $-1 -40.719329671261022 -10.195116173651481 -10.006161690051082 0 -1 0 I I #
coedge $-1 $446 $445 $654 $657 forward $447 $-1 #
edge $-1 $448 40.719329671261022 $658 53.373210852381973 $446 $659 forward 7 unknown #
point $-1 -40.719329671261022 -21.890232347302963 -10.006161690051082 #
point $-1 -40.719329671261022 -21.890232347302963 10.006161690051082 #
straight-curve $-1 -53.373210852381973 -18.890232347302963 0 0 0 -1 I I #
edge $-1 $658 -21.890232347302963 $453 -18.890232347302963 $580 $660 forward 7 unknown #
point $-1 -53.373210852381973 -18.890232347302963 -10.006161690051082 #
edge $-1 $456 18.890232347302963 $655 21.890232347302963 $581 $661 forward 7 unknown #
point $-1 -53.373210852381973 -18.890232347302963 10.006161690051082 #
coedge $-1 $462 $461 $469 $600 forward $193 $-1 #
edge $-1 $603 -40.719329671261022 $465 -19.217201346604732 $464 $662 forward 7 unknown #
straight-curve $-1 -19.217201346604732 -53.570858084543303 10.00616169005108 0 1 0 I I #
point $-1 -19.217201346604732 -21.890232347302963 10.006161690051082 #
straight-curve $-1 -14.984132754466437 -17.19822233714951 10.006161690051082 -1 0 0 I I #
edge $-1 $470 -36.372635747393787 $603 -31.680625737240341 $595 $663 forward 7 unknown #
point $-1 -40.719329671261015 -17.198222337149513 10.006161690051082 #
point $-1 -19.217201346604732 -17.198222337149513 10.006161690051082 #
vertex $-1 $596 $664 #
straight-curve $-1 -40.719329671261022 -21.890232347302963 0 0 0 -1 I I #
vertex $-1 $477 $665 #
point $-1 -33.575864435644938 -17.122631470836179 5.0681044833372306 #
vertex $-1 $481 $666 #
point $-1 -24.360666582220816 -17.122631470836179 5.0681044833372306 #
coedge $-1 $496 $495 $488 $610 forward $485 $-1 #
edge $-1 $611 24.004464815311195 $614 30.230972579307636 $609 $667 forward 7 unknown #
vertex $-1 $500 $668 #
straight-curve $-1 6.3269405905604739 -53.570858084543303 10.00616169005108 0 -1 0 I I #
edge $-1 $614 -2.2120617858838347 $497 19.29006653877245 $496 $669 forward 7 unknown #
vertex $-1 $613 $670 #
straight-curve $-1 6.3269405905604739 -21.890232347302955 3.7796539260546496 0 0.60181501223851219 0.79863551827123203 I I #
point $-1 6.3269405905604739 -17.198222337149513 10.006161690051082 #
point $-1 27.829068915216759 -21.890232347302963 3.7796539260546402 #
straight-curve $-1 0 -21.890232347302963 10.006161690051082 1 0 0 I I #
vertex $-1 $503 $671 #
point $-1 13.47040582617656 -17.122631470836179 5.0681044833372306 #
vertex $-1 $507 $672 #
point $-1 22.685603679600675 -17.122631470836179 5.0681044833372306 #
edge $-1 $624 41.486781871077184 $627 47.713289635073629 $512 $673 forward 7 unknown #
vertex $-1 $526 $674 #
straight-curve $-1 -19.217201346604732 40.396987636547294 10.00616169005108 0 1 0 I I #
edge $-1 $627 4.2330685921382951 $523 25.735196916794578 $522 $675 forward 7 unknown #
vertex $-1 $626 $676 #
straight-curve $-1 -19.217201346604732 -4.4575085486890629 38.744288037586628 0 -0.60181501223851219 0.79863551827123203 I I #
point $-1 -19.217201346604732 17.19822233714951 10.00616169005108 #
point $-1 -40.719329671261015 21.890232347302963 3.7796539260546353 #
straight-curve $-1 0 21.890232347302963 10.006161690051082 -1 0 0 I I #
vertex $-1 $529 $677 #
point $-1 -33.575864435644938 17.122631470836179 5.0681044833372253 #
vertex $-1 $533 $678 #
point $-1 -24.360666582220816 17.122631470836179 5.0681044833372253 #
coedge $-1 $548 $547 $540 $637 forward $537 $-1 #
edge $-1 $638 41.486781871077184 $641 47.713289635073629 $636 $679 forward 7 unknown #
vertex $-1 $552 $680 #
straight-curve $-1 27.829068915216759 40.396987636547294 10.00616169005108 0 1 0 I I #
edge $-1 $641 -19.29006653877245 $549 2.2120617858838347 $548 $681 forward 7 unknown #
vertex $-1 $640 $682 #
straight-curve $-1 27.829068915216759 -4.4575085486890629 38.744288037586628 0 -0.60181501223851219 0.79863551827123203 I I #
point $-1 27.829068915216759 17.19822233714951 10.00616169005108 #
point $-1 6.3269405905604739 21.890232347302963 3.7796539260546353 #
straight-curve $-1 0 21.890232347302963 10.006161690051082 -1 0 0 I I #
vertex $-1 $555 $683 #
point $-1 13.47040582617656 17.122631470836179 5.0681044833372253 #
vertex $-1 $559 $684 #
point $-1 22.685603679600675 17.122631470836179 5.0681044833372253 #
straight-curve $-1 -53.373210852381973 21.890232347302963 0 0 0 -1 I I #
point $-1 -53.373210852381973 -21.890232347302963 -10.006161690051082 #
straight-curve $-1 -53.373210852381973 0 -10.006161690051082 0 1 0 I I #
point $-1 -53.373210852381973 21.890232347302963 -10.006161690051082 #
coedge $-1 $581 $580 $586 $657 reversed $300 $-1 #
vertex $-1 $593 $685 #
straight-curve $-1 0 -21.890232347302963 10.006161690051082 1 0 0 I I #
edge $-1 $655 -10.006161690051082 $658 10.006161690051082 $654 $686 forward 7 unknown #
vertex $-1 $591 $687 #
straight-curve $-1 0 -21.890232347302963 -10.006161690051082 -1 0 0 I I #
straight-curve $-1 -53.373210852381973 0 -10.006161690051082 0 1 0 I I #
straight-curve $-1 -53.373210852381973 0 10.006161690051082 0 -1 0 I I #
straight-curve $-1 0 -21.890232347302963 10.006161690051082 1 0 0 I I #
straight-curve $-1 -40.719329671261015 -53.570858084543303 10.00616169005108 0 -1 0 I I #
point $-1 -40.719329671261022 -21.890232347302963 10.006161690051082 #
point $-1 -34.575864435644938 -16.323995952564946 4.466289471098718 #
point $-1 -25.360666582220816 -16.323995952564946 4.466289471098718 #
straight-curve $-1 6.3269405905604739 -21.890232347302963 34.010626505362275 0 0 -1 I I #
point $-1 6.3269405905604739 -21.890232347302963 10.006161690051082 #
straight-curve $-1 8.5390023764443086 -21.890232347302963 3.779653926054638 1 0 0 I I #
point $-1 6.3269405905604739 -21.890232347302963 3.7796539260546402 #
point $-1 12.47040582617656 -16.323995952564946 4.466289471098718 #
point $-1 21.685603679600675 -16.323995952564946 4.466289471098718 #
straight-curve $-1 -19.217201346604732 21.890232347302963 51.492943561128264 0 0 -1 I I #
point $-1 -19.217201346604732 21.890232347302963 10.006161690051082 #
straight-curve $-1 -14.984132754466437 21.890232347302963 3.7796539260546389 -1 0 0 I I #
point $-1 -19.217201346604732 21.890232347302963 3.7796539260546353 #
point $-1 -34.575864435644938 16.323995952564946 4.4662894710987127 #
point $-1 -25.360666582220816 16.323995952564946 4.4662894710987127 #
straight-curve $-1 27.829068915216759 21.890232347302963 51.492943561128264 0 0 -1 I I #
point $-1 27.829068915216759 21.890232347302963 10.006161690051082 #
straight-curve $-1 8.5390023764443086 21.890232347302963 3.7796539260546389 -1 0 0 I I #
point $-1 27.829068915216759 21.890232347302963 3.7796539260546353 #
point $-1 12.47040582617656 16.323995952564946 4.4662894710987127 #
point $-1 21.685603679600675 16.323995952564946 4.4662894710987127 #
point $-1 -53.373210852381973 -21.890232347302963 10.006161690051082 #
straight-curve $-1 -53.373210852381973 -21.890232347302963 0 0 0 -1 I I #
point $-1 -53.373210852381973 -21.890232347302963 -10.006161690051082 #
End-of-ACIS-data 