500 0 5 0           
7 Unknown 11 ACIS 5.0 NT 24 Fri Mar 26 14:33:10 1999 
-1 9.9999999999999995e-007 1e-010 
body $-1 $5 $-1 $6 #
body $-1 $7 $-1 $8 #
body $-1 $9 $-1 $10 #
body $-1 $11 $-1 $12 #
body $-1 $13 $-1 $14 #
lump $-1 $-1 $15 $0 #
transform $-1 1 0 0 0 1 0 0 0 1 55.269020661030915 36.476507864839327 15.032880942947989 1 rotate no_reflect no_shear #
lump $-1 $-1 $16 $1 #
transform $-1 1 0 0 0 1 0 0 0 1 55.269020661030915 36.476507864839327 15.032880942947989 1 rotate no_reflect no_shear #
lump $-1 $-1 $17 $2 #
transform $-1 1 0 0 0 1 0 0 0 1 55.269020661030915 36.476507864839327 15.032880942947989 1 rotate no_reflect no_shear #
lump $-1 $-1 $18 $3 #
transform $-1 1 0 0 0 1 0 0 0 1 55.269020661030915 36.476507864839327 15.032880942947989 1 rotate no_reflect no_shear #
lump $-1 $-1 $19 $4 #
transform $-1 1 0 0 0 1 0 0 0 1 55.269020661030915 36.476507864839327 15.032880942947989 1 rotate no_reflect no_shear #
shell $-1 $-1 $-1 $20 $-1 $5 #
shell $-1 $-1 $-1 $21 $-1 $7 #
shell $-1 $-1 $-1 $22 $-1 $9 #
shell $-1 $-1 $-1 $23 $-1 $11 #
shell $-1 $-1 $-1 $24 $-1 $13 #
face $-1 $25 $26 $15 $-1 $27 forward single #
face $-1 $28 $29 $16 $-1 $30 reversed single #
face $-1 $31 $32 $17 $-1 $33 reversed single #
face $-1 $34 $35 $18 $-1 $36 forward single #
face $-1 $37 $38 $19 $-1 $39 forward single #
face $-1 $40 $41 $15 $-1 $42 reversed single #
loop $-1 $-1 $43 $20 #
plane-surface $-1 0 0 15.032880942947989 0 0 1 1 0 0 forward_v I I I I #
face $-1 $44 $45 $16 $-1 $46 reversed single #
loop $-1 $-1 $47 $21 #
plane-surface $-1 0 -29.969885927705167 6.7088480668024832 0 0 1 1 0 0 forward_v I I I I #
face $-1 $48 $49 $17 $-1 $50 reversed single #
loop $-1 $-1 $51 $22 #
plane-surface $-1 -23.21747537446084 37.807806225564399 143.60159389737458 -1 0 0 0 0.55919291073839883 0.82903756765294845 forward_v I I I I #
face $-1 $52 $53 $18 $-1 $54 forward single #
loop $-1 $55 $56 $23 #
cone-surface $-1 -46.111436293439468 33.039008871361034 12.252458776201895 0 -0.55919291073839883 -0.82903756765294845 1 0 0 1 I I 0 1 1 forward I I I I #
face $-1 $57 $58 $19 $-1 $59 forward single #
loop $-1 $60 $61 $24 #
cone-surface $-1 -32.375059742052287 33.039008871361034 12.252458776201895 0 -0.55919291073839883 -0.82903756765294845 1 0 0 1 I I 0 1 1 forward I I I I #
face $-1 $62 $63 $15 $-1 $64 reversed single #
loop $-1 $-1 $65 $25 #
plane-surface $-1 0 0 -15.032880942947989 0 0 1 1 0 0 forward_v I I I I #
coedge $-1 $66 $67 $68 $69 forward $26 $-1 #
face $-1 $70 $71 $16 $-1 $72 reversed single #
loop $-1 $-1 $73 $28 #
plane-surface $-1 0 -23.463263990571008 10.870864504875234 0 -1 0 0 0 -1 forward_v I I I I #
coedge $-1 $74 $75 $76 $77 reversed $29 $-1 #
face $-1 $78 $79 $17 $-1 $80 reversed single #
loop $-1 $-1 $81 $31 #
plane-surface $-1 -39.243248017745877 -24.004282848640756 51.961404986611356 0 0.55919291073839883 0.82903756765294845 1 0 0 forward_v I I I I #
coedge $-1 $82 $83 $84 $85 reversed $32 $-1 #
face $-1 $-1 $86 $18 $-1 $87 forward single #
loop $-1 $88 $89 $34 #
cone-surface $-1 -46.111436293439468 32.187915110934689 10.990660410309259 0 -0.55919291073839883 -0.82903756765294845 0.5 0 0 1 I I -0.70710678118654746 0.70710678118654746 0.5 forward I I I I #
loop $-1 $-1 $90 $23 #
coedge $-1 $56 $56 $91 $92 reversed $35 $-1 #
face $-1 $-1 $93 $19 $-1 $94 forward single #
loop $-1 $95 $96 $37 #
cone-surface $-1 -32.375059742052287 32.187915110934689 10.990660410309259 0 -0.55919291073839883 -0.82903756765294845 0.5 0 0 1 I I -0.70710678118654746 0.70710678118654746 0.5 forward I I I I #
loop $-1 $-1 $97 $24 #
coedge $-1 $61 $61 $98 $99 reversed $38 $-1 #
face $-1 $100 $101 $15 $-1 $102 reversed single #
loop $-1 $-1 $103 $40 #
plane-surface $-1 0 -36.476507864839327 0 0 1 0 0 0 1 forward_v I I I I #
coedge $-1 $104 $105 $106 $107 forward $41 $-1 #
coedge $-1 $108 $43 $109 $110 forward $26 $-1 #
coedge $-1 $43 $108 $111 $112 forward $26 $-1 #
coedge $-1 $113 $114 $43 $69 reversed $115 $-1 #
edge $-1 $116 -36.476507864839327 $117 36.476507864839327 $68 $118 forward 7 unknown #
face $-1 $119 $120 $16 $-1 $121 reversed single #
loop $-1 $-1 $122 $44 #
plane-surface $-1 -55.269020661030915 0 0 1 0 0 0 0 -1 forward_v I I I I #
coedge $-1 $123 $124 $125 $126 reversed $45 $-1 #
coedge $-1 $127 $47 $128 $129 reversed $29 $-1 #
coedge $-1 $47 $127 $123 $130 forward $29 $-1 #
coedge $-1 $125 $131 $47 $77 forward $132 $-1 #
edge $-1 $133 -21.491564900986745 $134 -8.4783210267184241 $76 $135 forward 7 unknown #
face $-1 $136 $137 $17 $-1 $138 forward single #
loop $-1 $-1 $139 $48 #
plane-surface $-1 -55.269020661030915 0 0 1 0 0 0 0 -1 forward_v I I I I #
coedge $-1 $140 $141 $142 $143 reversed $49 $-1 #
coedge $-1 $83 $51 $144 $145 reversed $32 $-1 #
coedge $-1 $51 $82 $140 $146 reversed $32 $-1 #
coedge $-1 $142 $147 $51 $85 forward $148 $-1 #
edge $-1 $149 56.767916005739302 $150 60.634201175099136 $84 $151 forward 7 unknown #
loop $-1 $-1 $91 $52 #
plane-surface $-1 -39.243248017745877 -24.004282848640756 51.961404986611356 0 0.55919291073839883 0.82903756765294845 1 0 0 forward_v I I I I #
loop $-1 $-1 $152 $34 #
coedge $-1 $89 $89 $90 $153 reversed $53 $-1 #
coedge $-1 $90 $90 $89 $153 forward $55 $-1 #
coedge $-1 $91 $91 $56 $92 forward $86 $-1 #
edge $-1 $154 -3.7654325195607146e-015 $154 6.2831853071795969 $91 $155 forward 7 unknown #
loop $-1 $-1 $98 $57 #
plane-surface $-1 -39.243248017745877 -24.004282848640756 51.961404986611356 0 0.55919291073839883 0.82903756765294845 1 0 0 forward_v I I I I #
loop $-1 $-1 $156 $37 #
coedge $-1 $96 $96 $97 $157 reversed $58 $-1 #
coedge $-1 $97 $97 $96 $157 forward $60 $-1 #
coedge $-1 $98 $98 $61 $99 forward $93 $-1 #
edge $-1 $158 -3.7654325195607146e-015 $158 6.2831853071795969 $98 $159 forward 7 unknown #
face $-1 $160 $161 $15 $-1 $162 reversed single #
loop $-1 $-1 $163 $62 #
plane-surface $-1 -55.269020661030915 0 0 1 0 0 0 0 -1 forward_v I I I I #
coedge $-1 $164 $111 $165 $166 forward $63 $-1 #
coedge $-1 $167 $65 $164 $168 forward $41 $-1 #
coedge $-1 $65 $167 $169 $170 forward $41 $-1 #
coedge $-1 $114 $113 $65 $107 reversed $115 $-1 #
edge $-1 $171 -36.476507864839327 $172 36.476507864839327 $106 $173 forward 7 unknown #
coedge $-1 $67 $66 $174 $175 forward $26 $-1 #
coedge $-1 $176 $177 $66 $110 reversed $161 $-1 #
edge $-1 $117 -55.269020661030915 $178 55.269020661030915 $109 $179 forward 7 unknown #
coedge $-1 $103 $180 $67 $112 reversed $63 $-1 #
edge $-1 $181 -55.269020661030915 $116 55.269020661030915 $111 $182 forward 7 unknown #
coedge $-1 $106 $68 $180 $183 forward $115 $-1 #
coedge $-1 $68 $106 $176 $184 reversed $115 $-1 #
loop $-1 $-1 $113 $160 #
vertex $-1 $69 $185 #
vertex $-1 $69 $186 #
straight-curve $-1 55.269020661030915 0 15.032880942947989 0 1 0 I I #
face $-1 $187 $188 $16 $-1 $189 forward single #
loop $-1 $-1 $128 $70 #
plane-surface $-1 0 -36.476507864839327 0 0 1 0 0 0 1 forward_v I I I I #
coedge $-1 $190 $191 $192 $193 forward $71 $-1 #
coedge $-1 $192 $73 $75 $130 reversed $45 $-1 #
coedge $-1 $73 $192 $194 $195 reversed $45 $-1 #
coedge $-1 $196 $76 $73 $126 forward $132 $-1 #
edge $-1 $134 1.2734158143648662 $197 9.5974486905103689 $125 $198 forward 7 unknown #
coedge $-1 $75 $74 $190 $199 reversed $29 $-1 #
coedge $-1 $200 $201 $74 $129 forward $120 $-1 #
edge $-1 $202 -55.269020661030915 $133 55.269020661030915 $128 $203 forward 7 unknown #
edge $-1 $204 -55.269020661030915 $134 55.269020661030915 $123 $205 forward 7 unknown #
coedge $-1 $76 $196 $200 $206 forward $132 $-1 #
loop $-1 $-1 $125 $187 #
vertex $-1 $129 $207 #
vertex $-1 $77 $208 #
straight-curve $-1 55.269020661030915 -14.984942963852584 6.7088480668024832 0 1 0 I I #
face $-1 $-1 $148 $17 $-1 $209 reversed single #
loop $-1 $-1 $144 $78 #
plane-surface $-1 0 0 15.032880942947989 0 0 1 1 0 0 forward_v I I I I #
coedge $-1 $210 $211 $141 $212 forward $79 $-1 #
coedge $-1 $213 $81 $83 $146 forward $49 $-1 #
coedge $-1 $81 $213 $139 $212 reversed $49 $-1 #
coedge $-1 $214 $84 $81 $143 forward $148 $-1 #
edge $-1 $150 3.595851365587901 $215 35.64739665215798 $142 $216 forward 7 unknown #
coedge $-1 $217 $218 $82 $145 forward $137 $-1 #
edge $-1 $219 11.840601375214884 $149 17.572604752057128 $144 $220 forward 7 unknown #
edge $-1 $150 -72.953015729678654 $219 -66.038970334763846 $83 $221 forward 7 unknown #
coedge $-1 $84 $214 $217 $222 reversed $148 $-1 #
loop $-1 $-1 $142 $136 #
vertex $-1 $222 $223 #
vertex $-1 $85 $224 #
straight-curve $-1 -23.21747537446084 36.476507864839327 71.800796948687292 0 0 -1 I I #
coedge $-1 $152 $152 $-1 $225 reversed $88 $-1 #
edge $-1 $226 0 $226 6.2831853071796004 $89 $227 forward 7 unknown #
vertex $-1 $92 $228 #
ellipse-curve $-1 -46.111436293439468 33.610506176418198 13.09973835826808 0 0.55919291073839883 0.82903756765294845 1 0 0 1 I I #
coedge $-1 $156 $156 $-1 $229 reversed $95 $-1 #
edge $-1 $230 0 $230 6.2831853071796004 $96 $231 forward 7 unknown #
vertex $-1 $99 $232 #
ellipse-curve $-1 -32.375059742052287 33.610506176418198 13.09973835826808 0 0.55919291073839883 0.82903756765294845 1 0 0 1 I I #
face $-1 $-1 $115 $15 $-1 $233 reversed single #
loop $-1 $-1 $176 $100 #
plane-surface $-1 0 36.476507864839327 0 0 -1 0 0 0 -1 forward_v I I I I #
coedge $-1 $234 $174 $177 $235 forward $101 $-1 #
coedge $-1 $180 $103 $104 $168 reversed $63 $-1 #
coedge $-1 $174 $234 $103 $166 reversed $101 $-1 #
edge $-1 $181 -15.032880942947989 $236 15.032880942947989 $165 $237 forward 7 unknown #
coedge $-1 $105 $104 $234 $238 forward $41 $-1 #
edge $-1 $172 -55.269020661030915 $236 55.269020661030915 $164 $239 forward 7 unknown #
coedge $-1 $177 $176 $105 $170 reversed $161 $-1 #
edge $-1 $240 -55.269020661030915 $171 55.269020661030915 $169 $241 forward 7 unknown #
vertex $-1 $107 $242 #
vertex $-1 $183 $243 #
straight-curve $-1 55.269020661030915 0 -15.032880942947989 0 -1 0 I I #
coedge $-1 $163 $165 $108 $175 reversed $101 $-1 #
edge $-1 $178 -36.476507864839327 $181 36.476507864839327 $174 $244 forward 7 unknown #
coedge $-1 $169 $109 $114 $184 forward $161 $-1 #
coedge $-1 $109 $169 $163 $235 reversed $161 $-1 #
vertex $-1 $110 $245 #
straight-curve $-1 0 36.476507864839327 15.032880942947989 -1 0 0 I I #
coedge $-1 $111 $164 $113 $183 reversed $63 $-1 #
vertex $-1 $175 $246 #
straight-curve $-1 0 -36.476507864839327 15.032880942947989 1 0 0 I I #
edge $-1 $116 -15.032880942947989 $172 15.032880942947989 $113 $247 forward 7 unknown #
edge $-1 $117 -15.032880942947989 $171 15.032880942947989 $114 $248 forward 7 unknown #
point $-1 55.269020661030915 -36.476507864839327 15.032880942947989 #
point $-1 55.269020661030915 36.476507864839327 15.032880942947989 #
face $-1 $-1 $132 $16 $-1 $249 reversed single #
loop $-1 $-1 $194 $119 #
plane-surface $-1 0 0 15.032880942947989 0 0 1 1 0 0 forward_v I I I I #
coedge $-1 $250 $122 $127 $199 forward $71 $-1 #
coedge $-1 $122 $250 $251 $252 reversed $71 $-1 #
coedge $-1 $124 $123 $122 $193 reversed $45 $-1 #
edge $-1 $253 -9.5974486905103689 $204 -1.2734158143648662 $122 $254 forward 7 unknown #
coedge $-1 $251 $255 $124 $195 forward $188 $-1 #
edge $-1 $197 -55.269020661030915 $253 55.269020661030915 $194 $256 forward 7 unknown #
coedge $-1 $131 $125 $255 $257 reversed $132 $-1 #
vertex $-1 $126 $258 #
straight-curve $-1 55.269020661030915 -23.463263990571008 5.4354322524376171 0 0 1 I I #
edge $-1 $204 8.4783210267184241 $202 21.491564900986745 $190 $259 forward 7 unknown #
coedge $-1 $260 $128 $131 $206 reversed $120 $-1 #
coedge $-1 $128 $260 $250 $261 forward $120 $-1 #
vertex $-1 $129 $262 #
straight-curve $-1 0 -36.476507864839327 6.7088480668024832 1 0 0 I I #
vertex $-1 $199 $263 #
straight-curve $-1 0 -23.463263990571008 6.7088480668024832 1 0 0 I I #
edge $-1 $264 -15.032880942947989 $133 -6.7088480668024832 $131 $265 forward 7 unknown #
point $-1 55.269020661030915 -36.476507864839327 6.7088480668024832 #
point $-1 55.269020661030915 -23.463263990571008 6.7088480668024832 #
plane-surface $-1 0 36.476507864839327 0 0 -1 0 0 0 -1 forward_v I I I I #
coedge $-1 $211 $139 $266 $267 reversed $79 $-1 #
coedge $-1 $139 $210 $214 $268 forward $79 $-1 #
edge $-1 $215 -48.474564946373405 $269 -41.560519551458597 $139 $270 forward 7 unknown #
coedge $-1 $141 $140 $218 $271 reversed $49 $-1 #
coedge $-1 $147 $142 $211 $268 reversed $148 $-1 #
vertex $-1 $212 $272 #
straight-curve $-1 -19.621624008872939 36.476507864839334 11.166595773588149 -1 0 0 I I #
coedge $-1 $266 $144 $147 $222 forward $137 $-1 #
coedge $-1 $144 $266 $213 $271 forward $137 $-1 #
vertex $-1 $145 $273 #
straight-curve $-1 -23.21747537446084 18.903903112782199 15.032880942947983 0 1 0 I I #
straight-curve $-1 -23.21747537446084 -24.004282848640756 51.961404986611356 0 -0.82903756765294845 0.55919291073839883 I I #
edge $-1 $149 23.21747537446084 $274 55.269020661030915 $147 $275 forward 7 unknown #
point $-1 -23.21747537446084 36.476507864839327 15.032880942947989 #
point $-1 -23.21747537446084 36.476507864839327 11.166595773588156 #
edge $-1 $276 1 $276 0 $152 $-1 forward 7 unknown #
vertex $-1 $153 $277 #
ellipse-curve $-1 -46.111436293439468 32.467511566303891 11.405179194135734 0 0.55919291073839883 0.82903756765294845 1 0 0 1 I I #
point $-1 -45.111436293439468 33.610506176418177 13.099738358268056 #
edge $-1 $278 1 $278 0 $156 $-1 forward 7 unknown #
vertex $-1 $157 $279 #
ellipse-curve $-1 -32.375059742052287 32.467511566303891 11.405179194135734 0 0.55919291073839883 0.82903756765294845 1 0 0 1 I I #
point $-1 -31.375059742052287 33.610506176418177 13.099738358268056 #
plane-surface $-1 55.269020661030915 0 0 -1 0 0 0 0 1 forward_v I I I I #
coedge $-1 $165 $163 $167 $238 reversed $101 $-1 #
edge $-1 $178 -15.032880942947989 $240 15.032880942947989 $177 $280 forward 7 unknown #
vertex $-1 $238 $281 #
straight-curve $-1 -55.269020661030915 -36.476507864839327 0 0 0 -1 I I #
edge $-1 $236 -36.476507864839327 $240 36.476507864839327 $234 $282 forward 7 unknown #
straight-curve $-1 0 -36.476507864839327 -15.032880942947989 -1 0 0 I I #
vertex $-1 $170 $283 #
straight-curve $-1 0 36.476507864839327 -15.032880942947989 1 0 0 I I #
point $-1 55.269020661030915 36.476507864839327 -15.032880942947989 #
point $-1 55.269020661030915 -36.476507864839327 -15.032880942947989 #
straight-curve $-1 -55.269020661030915 0 15.032880942947989 0 -1 0 I I #
point $-1 -55.269020661030915 36.476507864839327 15.032880942947989 #
point $-1 -55.269020661030915 -36.476507864839327 15.032880942947989 #
straight-curve $-1 55.269020661030915 -36.476507864839327 0 0 0 -1 I I #
straight-curve $-1 55.269020661030915 36.476507864839327 0 0 0 -1 I I #
plane-surface $-1 55.269020661030915 0 0 -1 0 0 0 0 1 forward_v I I I I #
coedge $-1 $191 $190 $201 $261 reversed $71 $-1 #
coedge $-1 $284 $194 $191 $252 forward $188 $-1 #
edge $-1 $253 23.463263990571008 $285 36.476507864839327 $191 $286 forward 7 unknown #
vertex $-1 $252 $287 #
straight-curve $-1 -55.269020661030915 -23.463263990571008 5.4354322524376171 0 0 -1 I I #
coedge $-1 $194 $284 $196 $257 forward $188 $-1 #
straight-curve $-1 0 -23.463263990571008 15.032880942947989 -1 0 0 I I #
edge $-1 $264 -36.476507864839327 $197 -23.463263990571008 $196 $288 forward 7 unknown #
point $-1 55.269020661030915 -23.463263990571008 15.032880942947985 #
straight-curve $-1 -55.269020661030915 -14.984942963852584 6.7088480668024832 0 -1 0 I I #
coedge $-1 $201 $200 $284 $289 reversed $120 $-1 #
edge $-1 $285 -15.032880942947989 $202 -6.7088480668024832 $250 $290 forward 7 unknown #
point $-1 -55.269020661030915 -36.476507864839327 6.7088480668024832 #
point $-1 -55.269020661030915 -23.463263990571008 6.7088480668024832 #
vertex $-1 $257 $291 #
straight-curve $-1 55.269020661030915 -36.476507864839327 0 0 0 -1 I I #
coedge $-1 $218 $217 $210 $267 forward $137 $-1 #
edge $-1 $274 -36.476507864839327 $269 -30.744504487997084 $210 $292 forward 7 unknown #
edge $-1 $274 -15.032880942947989 $215 -11.166595773588154 $214 $293 forward 7 unknown #
vertex $-1 $212 $294 #
straight-curve $-1 -55.269020661030915 -3.7107275513369693 38.273228842728258 0 -0.82903756765294845 0.55919291073839883 I I #
edge $-1 $269 -35.64739665215798 $219 -3.595851365587901 $218 $295 forward 7 unknown #
point $-1 -55.269020661030915 36.476507864839327 11.166595773588154 #
point $-1 -23.21747537446084 30.744504487997084 15.03288094294799 #
vertex $-1 $222 $296 #
straight-curve $-1 0 36.476507864839327 15.032880942947989 -1 0 0 I I #
vertex $-1 $225 $297 #
point $-1 -45.111436293439468 32.467511566303891 11.405179194135734 #
vertex $-1 $229 $298 #
point $-1 -31.375059742052287 32.467511566303891 11.405179194135734 #
straight-curve $-1 -55.269020661030915 36.476507864839327 0 0 0 -1 I I #
point $-1 -55.269020661030915 -36.476507864839327 -15.032880942947989 #
straight-curve $-1 -55.269020661030915 0 -15.032880942947989 0 1 0 I I #
point $-1 -55.269020661030915 36.476507864839327 -15.032880942947989 #
coedge $-1 $255 $251 $260 $289 forward $188 $-1 #
vertex $-1 $252 $299 #
straight-curve $-1 -55.269020661030915 0 15.032880942947989 0 -1 0 I I #
point $-1 -55.269020661030915 -23.463263990571008 15.032880942947985 #
straight-curve $-1 55.269020661030915 0 15.032880942947989 0 1 0 I I #
edge $-1 $285 -55.269020661030915 $264 55.269020661030915 $260 $300 forward 7 unknown #
straight-curve $-1 -55.269020661030915 -36.476507864839327 0 0 0 -1 I I #
point $-1 55.269020661030915 -36.476507864839327 15.032880942947989 #
straight-curve $-1 -55.269020661030915 0 15.032880942947989 0 -1 0 I I #
straight-curve $-1 -55.269020661030915 36.476507864839327 0 0 0 -1 I I #
point $-1 -55.269020661030915 30.744504487997084 15.03288094294799 #
straight-curve $-1 -19.621624008872939 30.744504487997069 15.03288094294799 1 0 0 I I #
point $-1 -55.269020661030915 36.476507864839327 15.032880942947989 #
point $-1 -46.111436293439468 31.908318655565491 10.576141626482784 #
point $-1 -32.375059742052287 31.908318655565491 10.576141626482784 #
point $-1 -55.269020661030915 -36.476507864839327 15.032880942947989 #
straight-curve $-1 0 -36.476507864839327 15.032880942947989 1 0 0 I I #
End-of-ACIS-data 