500 0 11 0           
7 Unknown 11 ACIS 5.0 NT 24 Thu Mar 25 17:37:05 1999 
-1 9.9999999999999995e-007 1e-010 
body $-1 $11 $-1 $12 #
body $-1 $13 $-1 $14 #
body $-1 $15 $-1 $16 #
body $-1 $17 $-1 $18 #
body $-1 $19 $-1 $20 #
body $-1 $21 $-1 $22 #
body $-1 $23 $-1 $24 #
body $-1 $25 $-1 $26 #
body $-1 $27 $-1 $28 #
body $-1 $29 $-1 $30 #
body $-1 $31 $-1 $32 #
lump $-1 $-1 $33 $0 #
transform $-1 1 0 0 0 1 0 0 0 1 77.352214117862474 46.063129014484545 14.062138305148178 1 rotate no_reflect no_shear #
lump $-1 $-1 $34 $1 #
transform $-1 1 0 0 0 1 0 0 0 1 77.352214117862474 46.063129014484545 14.062138305148178 1 rotate no_reflect no_shear #
lump $-1 $-1 $35 $2 #
transform $-1 1 0 0 0 1 0 0 0 1 77.352214117862474 46.063129014484545 14.062138305148178 1 rotate no_reflect no_shear #
lump $-1 $-1 $36 $3 #
transform $-1 1 0 0 0 1 0 0 0 1 77.352214117862474 46.063129014484545 14.062138305148178 1 rotate no_reflect no_shear #
lump $-1 $-1 $37 $4 #
transform $-1 1 0 0 0 1 0 0 0 1 77.352214117862474 46.063129014484545 14.062138305148178 1 rotate no_reflect no_shear #
lump $-1 $-1 $38 $5 #
transform $-1 1 0 0 0 1 0 0 0 1 77.352214117862474 46.063129014484545 14.062138305148178 1 rotate no_reflect no_shear #
lump $-1 $-1 $39 $6 #
transform $-1 1 0 0 0 1 0 0 0 1 77.352214117862474 46.063129014484545 14.062138305148178 1 rotate no_reflect no_shear #
lump $-1 $-1 $40 $7 #
transform $-1 1 0 0 0 1 0 0 0 1 77.352214117862474 46.063129014484545 14.062138305148178 1 rotate no_reflect no_shear #
lump $-1 $-1 $41 $8 #
transform $-1 1 0 0 0 1 0 0 0 1 77.352214117862474 46.063129014484545 14.062138305148178 1 rotate no_reflect no_shear #
lump $-1 $-1 $42 $9 #
transform $-1 1 0 0 0 1 0 0 0 1 77.352214117862474 46.063129014484545 14.062138305148178 1 rotate no_reflect no_shear #
lump $-1 $-1 $43 $10 #
transform $-1 1 0 0 0 1 0 0 0 1 77.352214117862474 46.063129014484545 14.062138305148178 1 rotate no_reflect no_shear #
shell $-1 $-1 $-1 $44 $-1 $11 #
shell $-1 $-1 $-1 $45 $-1 $13 #
shell $-1 $-1 $-1 $46 $-1 $15 #
shell $-1 $-1 $-1 $47 $-1 $17 #
shell $-1 $-1 $-1 $48 $-1 $19 #
shell $-1 $-1 $-1 $49 $-1 $21 #
shell $-1 $-1 $-1 $50 $-1 $23 #
shell $-1 $-1 $-1 $51 $-1 $25 #
shell $-1 $-1 $-1 $52 $-1 $27 #
shell $-1 $-1 $-1 $53 $-1 $29 #
shell $-1 $-1 $-1 $54 $-1 $31 #
face $-1 $55 $56 $33 $-1 $57 forward single #
face $-1 $58 $59 $34 $-1 $60 reversed single #
face $-1 $61 $62 $35 $-1 $63 reversed single #
face $-1 $64 $65 $36 $-1 $66 forward single #
face $-1 $67 $68 $37 $-1 $69 forward single #
face $-1 $70 $71 $38 $-1 $72 reversed single #
face $-1 $73 $74 $39 $-1 $75 forward single #
face $-1 $76 $77 $40 $-1 $78 forward single #
face $-1 $79 $80 $41 $-1 $81 reversed single #
face $-1 $82 $83 $42 $-1 $84 forward single #
face $-1 $85 $86 $43 $-1 $87 forward single #
face $-1 $88 $89 $33 $-1 $90 reversed single #
loop $-1 $-1 $91 $44 #
plane-surface $-1 0 0 14.062138305148178 0 0 1 1 0 0 forward_v I I I I #
face $-1 $92 $93 $34 $-1 $94 reversed single #
loop $-1 $-1 $95 $45 #
plane-surface $-1 -72.52675103929154 0 9.8298925842182676 0 0 1 1 0 0 forward_v I I I I #
face $-1 $96 $97 $35 $-1 $98 reversed single #
loop $-1 $-1 $99 $46 #
plane-surface $-1 -43.078890917619717 -178.67070738405516 85.181886036157962 -1 0 0 0 -0.85716730853699208 0.51503806187062418 forward_v I I I I #
face $-1 $100 $101 $36 $-1 $102 forward single #
loop $-1 $103 $104 $47 #
cone-surface $-1 -60.666317376977503 -40.951698448738732 8.2564489544327717 0 0.85716730853699208 -0.51503806187062418 1.5 0 0 1 I I 0 1 1.5 forward I I I I #
face $-1 $105 $106 $37 $-1 $107 forward single #
loop $-1 $108 $109 $48 #
cone-surface $-1 -50.113861501362834 -40.951698448738732 8.2564489544327717 0 0.85716730853699208 -0.51503806187062418 1.5 0 0 1 I I 0 1 1.5 forward I I I I #
face $-1 $110 $111 $38 $-1 $112 reversed single #
loop $-1 $-1 $113 $49 #
plane-surface $-1 29.44786012167182 -178.67070738405516 85.181886036157962 -1 0 0 0 -0.85716730853699208 0.51503806187062418 forward_v I I I I #
face $-1 $114 $115 $39 $-1 $116 forward single #
loop $-1 $117 $118 $50 #
cone-surface $-1 11.860433662314037 -40.951698448738732 8.2564489544327717 0 0.85716730853699208 -0.51503806187062418 1.5 0 0 1 I I 0 1 1.5 forward I I I I #
face $-1 $119 $120 $40 $-1 $121 forward single #
loop $-1 $122 $123 $51 #
cone-surface $-1 22.412889537928706 -40.951698448738732 8.2564489544327717 0 0.85716730853699208 -0.51503806187062418 1.5 0 0 1 I I 0 1 1.5 forward I I I I #
face $-1 $124 $125 $41 $-1 $126 reversed single #
loop $-1 $-1 $127 $52 #
plane-surface $-1 44.59952556447606 136.70697700835143 166.57090240561553 1 0 0 0 -0.87461971476443456 -0.48480960649040278 forward_v I I I I #
face $-1 $128 $129 $42 $-1 $130 forward single #
loop $-1 $131 $132 $53 #
cone-surface $-1 53.957436579729318 44.775267869967323 12.285298304688546 0 -0.87461971476443456 -0.48480960649040278 0.25 0 0 1 I I 0 1 0.25 forward I I I I #
face $-1 $133 $134 $43 $-1 $135 forward single #
loop $-1 $136 $137 $54 #
cone-surface $-1 67.994303102609223 44.775267869967323 12.285298304688546 0 -0.87461971476443456 -0.48480960649040278 0.25 0 0 1 I I 0 1 0.25 forward I I I I #
face $-1 $138 $139 $33 $-1 $140 reversed single #
loop $-1 $-1 $141 $55 #
plane-surface $-1 0 0 -14.062138305148178 0 0 1 1 0 0 forward_v I I I I #
coedge $-1 $142 $143 $144 $145 forward $56 $-1 #
face $-1 $146 $147 $34 $-1 $148 reversed single #
loop $-1 $-1 $149 $58 #
plane-surface $-1 -67.701287960720606 0 11.946015444683223 -1 0 0 0 0 1 forward_v I I I I #
coedge $-1 $150 $151 $149 $152 forward $59 $-1 #
face $-1 $153 $154 $35 $-1 $155 forward single #
loop $-1 $-1 $156 $61 #
plane-surface $-1 -55.390089439170168 -46.063129014484559 5.5032171548271265 0 -0.85716730853699208 0.51503806187062418 1 0 0 forward_v I I I I #
coedge $-1 $157 $158 $159 $160 reversed $62 $-1 #
face $-1 $-1 $161 $36 $-1 $162 forward single #
loop $-1 $163 $164 $64 #
cone-surface $-1 -60.666317376977503 -37.768751643281675 6.3439416324749267 0 0.85716730853699208 -0.51503806187062418 0.75 0 0 1 I I -0.70710678118654757 0.70710678118654757 0.75 forward I I I I #
loop $-1 $-1 $165 $47 #
coedge $-1 $104 $104 $166 $167 reversed $65 $-1 #
face $-1 $-1 $168 $37 $-1 $169 forward single #
loop $-1 $170 $171 $67 #
cone-surface $-1 -50.113861501362834 -37.768751643281675 6.3439416324749267 0 0.85716730853699208 -0.51503806187062418 0.75 0 0 1 I I -0.70710678118654757 0.70710678118654757 0.75 forward I I I I #
loop $-1 $-1 $172 $48 #
coedge $-1 $109 $109 $173 $174 reversed $68 $-1 #
face $-1 $175 $176 $38 $-1 $177 reversed single #
loop $-1 $-1 $178 $70 #
plane-surface $-1 17.136661600121371 -46.063129014484559 5.5032171548271265 0 -0.85716730853699208 0.51503806187062418 1 0 0 forward_v I I I I #
coedge $-1 $179 $180 $181 $182 reversed $71 $-1 #
face $-1 $-1 $183 $39 $-1 $184 forward single #
loop $-1 $185 $186 $73 #
cone-surface $-1 11.860433662314037 -37.768751643281675 6.3439416324749267 0 0.85716730853699208 -0.51503806187062418 0.75 0 0 1 I I -0.70710678118654757 0.70710678118654757 0.75 forward I I I I #
loop $-1 $-1 $187 $50 #
coedge $-1 $118 $118 $188 $189 reversed $74 $-1 #
face $-1 $-1 $190 $40 $-1 $191 forward single #
loop $-1 $192 $193 $76 #
cone-surface $-1 22.412889537928706 -37.768751643281675 6.3439416324749267 0 0.85716730853699208 -0.51503806187062418 0.75 0 0 1 I I -0.70710678118654757 0.70710678118654757 0.75 forward I I I I #
loop $-1 $-1 $194 $51 #
coedge $-1 $123 $123 $195 $196 reversed $77 $-1 #
face $-1 $197 $198 $41 $-1 $199 forward single #
loop $-1 $-1 $200 $79 #
plane-surface $-1 60.975869841169271 1.3994341120267393 91.568709430330955 0 0.87461971476443456 0.48480960649040278 1 0 0 forward_v I I I I #
coedge $-1 $201 $202 $203 $204 reversed $80 $-1 #
face $-1 $-1 $205 $42 $-1 $206 forward single #
loop $-1 $207 $208 $82 #
cone-surface $-1 53.957436579729318 44.228630548239551 11.982292300632043 0 -0.87461971476443456 -0.48480960649040278 0.125 0 0 1 I I -0.70710678118654746 0.70710678118654746 0.125 forward I I I I #
loop $-1 $-1 $209 $53 #
coedge $-1 $132 $132 $210 $211 reversed $83 $-1 #
face $-1 $-1 $212 $43 $-1 $213 forward single #
loop $-1 $214 $215 $85 #
cone-surface $-1 67.994303102609223 44.228630548239551 11.982292300632043 0 -0.87461971476443456 -0.48480960649040278 0.125 0 0 1 I I -0.70710678118654746 0.70710678118654746 0.125 forward I I I I #
loop $-1 $-1 $216 $54 #
coedge $-1 $137 $137 $217 $218 reversed $86 $-1 #
face $-1 $219 $220 $33 $-1 $221 reversed single #
loop $-1 $-1 $222 $88 #
plane-surface $-1 0 -46.063129014484545 0 0 1 0 0 0 1 forward_v I I I I #
coedge $-1 $223 $224 $225 $226 forward $89 $-1 #
coedge $-1 $227 $91 $228 $229 forward $56 $-1 #
coedge $-1 $91 $227 $230 $231 forward $56 $-1 #
coedge $-1 $232 $233 $91 $145 reversed $234 $-1 #
edge $-1 $235 -46.063129014484545 $236 46.063129014484545 $144 $237 forward 7 unknown #
face $-1 $238 $239 $34 $-1 $240 reversed single #
loop $-1 $-1 $241 $92 #
plane-surface $-1 0 46.063129014484545 0 0 -1 0 0 0 -1 forward_v I I I I #
coedge $-1 $242 $243 $95 $152 reversed $93 $-1 #
coedge $-1 $244 $95 $245 $246 reversed $59 $-1 #
coedge $-1 $95 $244 $247 $248 reversed $59 $-1 #
edge $-1 $249 -46.063129014484545 $250 46.063129014484545 $149 $251 forward 7 unknown #
face $-1 $252 $253 $35 $-1 $254 forward single #
loop $-1 $-1 $255 $96 #
plane-surface $-1 -67.701287960720606 0 11.946015444683223 -1 0 0 0 0 1 forward_v I I I I #
coedge $-1 $256 $257 $258 $259 reversed $97 $-1 #
coedge $-1 $158 $99 $260 $261 reversed $62 $-1 #
coedge $-1 $99 $157 $256 $262 reversed $62 $-1 #
coedge $-1 $258 $263 $99 $160 forward $253 $-1 #
edge $-1 $264 43.272224677543036 $265 48.414943160926022 $159 $266 forward 7 unknown #
loop $-1 $-1 $166 $100 #
plane-surface $-1 -55.390089439170168 -46.063129014484559 5.5032171548271265 0 -0.85716730853699208 0.51503806187062418 1 0 0 forward_v I I I I #
loop $-1 $-1 $267 $64 #
coedge $-1 $164 $164 $165 $268 reversed $101 $-1 #
coedge $-1 $165 $165 $164 $268 forward $103 $-1 #
coedge $-1 $166 $166 $104 $167 forward $161 $-1 #
edge $-1 $269 1.834150691301792e-015 $269 6.2831853071796022 $166 $270 forward 7 unknown #
loop $-1 $-1 $173 $105 #
plane-surface $-1 -55.390089439170168 -46.063129014484559 5.5032171548271265 0 -0.85716730853699208 0.51503806187062418 1 0 0 forward_v I I I I #
loop $-1 $-1 $271 $67 #
coedge $-1 $171 $171 $172 $272 reversed $106 $-1 #
coedge $-1 $172 $172 $171 $272 forward $108 $-1 #
coedge $-1 $173 $173 $109 $174 forward $168 $-1 #
edge $-1 $273 1.834150691301792e-015 $273 6.2831853071796022 $173 $274 forward 7 unknown #
face $-1 $275 $276 $38 $-1 $277 reversed single #
loop $-1 $-1 $278 $110 #
plane-surface $-1 4.8254630785709232 -178.67070738405516 85.181886036157962 1 0 0 0 0.85716730853699208 -0.51503806187062418 forward_v I I I I #
coedge $-1 $279 $280 $281 $282 reversed $111 $-1 #
coedge $-1 $180 $113 $283 $284 reversed $71 $-1 #
coedge $-1 $113 $179 $279 $285 reversed $71 $-1 #
coedge $-1 $281 $286 $113 $182 forward $287 $-1 #
edge $-1 $288 43.272224677543036 $289 48.414943160926022 $181 $290 forward 7 unknown #
loop $-1 $-1 $188 $114 #
plane-surface $-1 17.136661600121371 -46.063129014484559 5.5032171548271265 0 -0.85716730853699208 0.51503806187062418 1 0 0 forward_v I I I I #
loop $-1 $-1 $291 $73 #
coedge $-1 $186 $186 $187 $292 reversed $115 $-1 #
coedge $-1 $187 $187 $186 $292 forward $117 $-1 #
coedge $-1 $188 $188 $118 $189 forward $183 $-1 #
edge $-1 $293 1.834150691301792e-015 $293 6.2831853071796022 $188 $294 forward 7 unknown #
loop $-1 $-1 $195 $119 #
plane-surface $-1 17.136661600121371 -46.063129014484559 5.5032171548271265 0 -0.85716730853699208 0.51503806187062418 1 0 0 forward_v I I I I #
loop $-1 $-1 $295 $76 #
coedge $-1 $193 $193 $194 $296 reversed $120 $-1 #
coedge $-1 $194 $194 $193 $296 forward $122 $-1 #
coedge $-1 $195 $195 $123 $196 forward $190 $-1 #
edge $-1 $297 1.834150691301792e-015 $297 6.2831853071796022 $195 $298 forward 7 unknown #
face $-1 $299 $300 $41 $-1 $301 reversed single #
loop $-1 $-1 $203 $124 #
plane-surface $-1 0 0 14.062138305148178 0 0 1 1 0 0 forward_v I I I I #
coedge $-1 $302 $303 $304 $305 reversed $125 $-1 #
coedge $-1 $202 $127 $306 $307 reversed $80 $-1 #
coedge $-1 $127 $201 $302 $308 reversed $80 $-1 #
coedge $-1 $304 $309 $127 $204 forward $198 $-1 #
edge $-1 $310 22.29035948969117 $311 23.991462063961201 $203 $312 forward 7 unknown #
loop $-1 $-1 $210 $128 #
plane-surface $-1 60.975869841169271 1.3994341120267393 91.568709430330955 0 0.87461971476443456 0.48480960649040278 1 0 0 forward_v I I I I #
loop $-1 $-1 $313 $82 #
coedge $-1 $208 $208 $209 $314 reversed $129 $-1 #
coedge $-1 $209 $209 $208 $314 forward $131 $-1 #
coedge $-1 $210 $210 $132 $211 forward $205 $-1 #
edge $-1 $315 1.350024067169941e-015 $315 6.2831853071796022 $210 $316 forward 7 unknown #
loop $-1 $-1 $217 $133 #
plane-surface $-1 60.975869841169271 1.3994341120267393 91.568709430330955 0 0.87461971476443456 0.48480960649040278 1 0 0 forward_v I I I I #
loop $-1 $-1 $317 $85 #
coedge $-1 $215 $215 $216 $318 reversed $134 $-1 #
coedge $-1 $216 $216 $215 $318 forward $136 $-1 #
coedge $-1 $217 $217 $137 $218 forward $212 $-1 #
edge $-1 $319 1.350024067169941e-015 $319 6.2831853071796022 $217 $320 forward 7 unknown #
face $-1 $321 $322 $33 $-1 $323 reversed single #
loop $-1 $-1 $324 $138 #
plane-surface $-1 -77.352214117862474 0 0 1 0 0 0 0 -1 forward_v I I I I #
coedge $-1 $325 $230 $326 $327 forward $139 $-1 #
coedge $-1 $328 $141 $325 $329 forward $89 $-1 #
coedge $-1 $141 $328 $330 $331 forward $89 $-1 #
coedge $-1 $233 $232 $141 $226 reversed $234 $-1 #
edge $-1 $332 -46.063129014484545 $333 46.063129014484545 $225 $334 forward 7 unknown #
coedge $-1 $143 $142 $335 $336 forward $56 $-1 #
coedge $-1 $337 $338 $142 $229 reversed $322 $-1 #
edge $-1 $236 -77.352214117862474 $339 77.352214117862474 $228 $340 forward 7 unknown #
coedge $-1 $222 $341 $143 $231 reversed $139 $-1 #
edge $-1 $342 -77.352214117862474 $235 77.352214117862474 $230 $343 forward 7 unknown #
coedge $-1 $225 $144 $341 $344 forward $234 $-1 #
coedge $-1 $144 $225 $337 $345 reversed $234 $-1 #
loop $-1 $-1 $232 $321 #
vertex $-1 $145 $346 #
vertex $-1 $145 $347 #
straight-curve $-1 77.352214117862474 0 14.062138305148178 0 1 0 I I #
face $-1 $348 $349 $34 $-1 $350 forward single #
loop $-1 $-1 $351 $146 #
plane-surface $-1 -77.352214117862474 0 0 1 0 0 0 0 -1 forward_v I I I I #
coedge $-1 $247 $352 $242 $353 forward $147 $-1 #
coedge $-1 $354 $149 $241 $353 reversed $93 $-1 #
coedge $-1 $149 $354 $355 $356 reversed $93 $-1 #
coedge $-1 $151 $150 $351 $357 reversed $59 $-1 #
coedge $-1 $355 $358 $150 $246 forward $359 $-1 #
edge $-1 $360 -41.088838598216704 $250 -31.437912441074836 $245 $361 forward 7 unknown #
coedge $-1 $362 $241 $151 $248 forward $147 $-1 #
edge $-1 $249 31.437912441074836 $363 41.088838598216704 $247 $364 forward 7 unknown #
vertex $-1 $248 $365 #
vertex $-1 $246 $366 #
straight-curve $-1 -67.701287960720606 0 9.8298925842182676 0 -1 0 I I #
face $-1 $-1 $367 $35 $-1 $368 reversed single #
loop $-1 $-1 $258 $153 #
plane-surface $-1 0 0 14.062138305148178 0 0 1 1 0 0 forward_v I I I I #
coedge $-1 $369 $370 $257 $371 reversed $154 $-1 #
coedge $-1 $372 $156 $158 $262 forward $97 $-1 #
coedge $-1 $156 $372 $255 $371 forward $97 $-1 #
coedge $-1 $373 $159 $156 $259 forward $253 $-1 #
edge $-1 $265 15.383846198034632 $374 40.006243241135522 $258 $375 forward 7 unknown #
coedge $-1 $376 $377 $157 $261 forward $367 $-1 #
edge $-1 $378 -37.087725863251833 $264 -28.528804712930803 $260 $379 forward 7 unknown #
edge $-1 $265 -9.9851231668288509 $378 -2.787470371894754e-014 $158 $380 forward 7 unknown #
coedge $-1 $159 $373 $376 $381 forward $253 $-1 #
vertex $-1 $261 $382 #
vertex $-1 $160 $383 #
straight-curve $-1 -43.078890917619717 -89.335353692027581 14.062138305148174 0 1 0 I I #
coedge $-1 $267 $267 $-1 $384 reversed $163 $-1 #
edge $-1 $385 0 $385 6.2831853071796004 $164 $386 forward 7 unknown #
vertex $-1 $167 $387 #
ellipse-curve $-1 -60.666317376977503 -43.491769772793056 9.7826777299876557 0 -0.85716730853699208 0.51503806187062418 1.5 0 0 1 I I #
coedge $-1 $271 $271 $-1 $388 reversed $170 $-1 #
edge $-1 $389 0 $389 6.2831853071796004 $171 $390 forward 7 unknown #
vertex $-1 $174 $391 #
ellipse-curve $-1 -50.113861501362834 -43.491769772793056 9.7826777299876557 0 -0.85716730853699208 0.51503806187062418 1.5 0 0 1 I I #
face $-1 $-1 $287 $38 $-1 $392 forward single #
loop $-1 $-1 $393 $175 #
plane-surface $-1 0 -46.063129014484545 0 0 1 0 0 0 1 forward_v I I I I #
coedge $-1 $394 $395 $396 $397 reversed $176 $-1 #
coedge $-1 $398 $178 $180 $285 forward $111 $-1 #
coedge $-1 $178 $398 $394 $399 forward $111 $-1 #
coedge $-1 $396 $181 $178 $282 forward $287 $-1 #
edge $-1 $289 -20.879529321611134 $400 3.7428677214897625 $281 $401 forward 7 unknown #
coedge $-1 $402 $403 $179 $284 forward $276 $-1 #
edge $-1 $404 -37.087725863251833 $288 -28.528804712930803 $283 $405 forward 7 unknown #
edge $-1 $289 -9.9851231668288509 $404 -2.787470371894754e-014 $180 $406 forward 7 unknown #
coedge $-1 $181 $396 $402 $407 forward $287 $-1 #
loop $-1 $-1 $396 $275 #
vertex $-1 $284 $408 #
vertex $-1 $182 $409 #
straight-curve $-1 29.44786012167182 -89.335353692027581 14.062138305148174 0 1 0 I I #
coedge $-1 $291 $291 $-1 $410 reversed $185 $-1 #
edge $-1 $411 0 $411 6.2831853071796004 $186 $412 forward 7 unknown #
vertex $-1 $189 $413 #
ellipse-curve $-1 11.860433662314037 -43.491769772793056 9.7826777299876557 0 -0.85716730853699208 0.51503806187062418 1.5 0 0 1 I I #
coedge $-1 $295 $295 $-1 $414 reversed $192 $-1 #
edge $-1 $415 0 $415 6.2831853071796004 $193 $416 forward 7 unknown #
vertex $-1 $196 $417 #
ellipse-curve $-1 22.412889537928706 -43.491769772793056 9.7826777299876557 0 -0.85716730853699208 0.51503806187062418 1.5 0 0 1 I I #
face $-1 $-1 $418 $41 $-1 $419 reversed single #
loop $-1 $-1 $420 $197 #
plane-surface $-1 77.352214117862474 0 0 -1 0 0 0 0 1 forward_v I I I I #
coedge $-1 $421 $200 $202 $308 forward $125 $-1 #
coedge $-1 $200 $421 $420 $422 reversed $125 $-1 #
coedge $-1 $423 $203 $200 $305 forward $198 $-1 #
edge $-1 $311 14.111590643891425 $424 46.864279197277838 $304 $425 forward 7 unknown #
coedge $-1 $426 $427 $201 $307 forward $418 $-1 #
edge $-1 $428 -72.292183292088438 $310 -69.223312897659582 $306 $429 forward 7 unknown #
edge $-1 $311 88.617452610313023 $428 92.12625802896909 $202 $430 forward 7 unknown #
coedge $-1 $203 $423 $426 $431 forward $198 $-1 #
vertex $-1 $307 $432 #
vertex $-1 $204 $433 #
straight-curve $-1 44.59952556447606 68.353488504175715 14.062138305148181 0 -1 0 I I #
coedge $-1 $313 $313 $-1 $434 reversed $207 $-1 #
edge $-1 $435 0 $435 6.2831853071796004 $208 $436 forward 7 unknown #
vertex $-1 $211 $437 #
ellipse-curve $-1 53.957436579729318 45.212577727349533 12.527703107933743 0 0.87461971476443456 0.48480960649040278 0.25 0 0 1 I I #
coedge $-1 $317 $317 $-1 $438 reversed $214 $-1 #
edge $-1 $439 0 $439 6.2831853071796004 $215 $440 forward 7 unknown #
vertex $-1 $218 $441 #
ellipse-curve $-1 67.994303102609223 45.212577727349533 12.527703107933743 0 0.87461971476443456 0.48480960649040278 0.25 0 0 1 I I #
face $-1 $-1 $234 $33 $-1 $442 reversed single #
loop $-1 $-1 $337 $219 #
plane-surface $-1 0 46.063129014484545 0 0 -1 0 0 0 -1 forward_v I I I I #
coedge $-1 $443 $335 $338 $444 forward $220 $-1 #
coedge $-1 $341 $222 $223 $329 reversed $139 $-1 #
coedge $-1 $335 $443 $222 $327 reversed $220 $-1 #
edge $-1 $342 -14.062138305148178 $445 14.062138305148178 $326 $446 forward 7 unknown #
coedge $-1 $224 $223 $443 $447 forward $89 $-1 #
edge $-1 $333 -77.352214117862474 $445 77.352214117862474 $325 $448 forward 7 unknown #
coedge $-1 $338 $337 $224 $331 reversed $322 $-1 #
edge $-1 $449 -77.352214117862474 $332 77.352214117862474 $330 $450 forward 7 unknown #
vertex $-1 $226 $451 #
vertex $-1 $344 $452 #
straight-curve $-1 77.352214117862474 0 -14.062138305148178 0 -1 0 I I #
coedge $-1 $324 $326 $227 $336 reversed $220 $-1 #
edge $-1 $339 -46.063129014484545 $342 46.063129014484545 $335 $453 forward 7 unknown #
coedge $-1 $330 $228 $233 $345 forward $322 $-1 #
coedge $-1 $228 $330 $324 $444 reversed $322 $-1 #
vertex $-1 $229 $454 #
straight-curve $-1 0 46.063129014484545 14.062138305148178 -1 0 0 I I #
coedge $-1 $230 $325 $232 $344 reversed $139 $-1 #
vertex $-1 $336 $455 #
straight-curve $-1 0 -46.063129014484545 14.062138305148178 1 0 0 I I #
edge $-1 $235 -14.062138305148178 $333 14.062138305148178 $232 $456 forward 7 unknown #
edge $-1 $236 -14.062138305148178 $332 14.062138305148178 $233 $457 forward 7 unknown #
point $-1 77.352214117862474 -46.063129014484545 14.062138305148178 #
point $-1 77.352214117862474 46.063129014484545 14.062138305148178 #
face $-1 $-1 $359 $34 $-1 $458 reversed single #
loop $-1 $-1 $459 $238 #
plane-surface $-1 0 0 14.062138305148178 0 0 1 1 0 0 forward_v I I I I #
coedge $-1 $460 $461 $244 $357 forward $239 $-1 #
coedge $-1 $241 $362 $462 $463 reversed $147 $-1 #
edge $-1 $464 -8.0891305828065665 $249 -3.8568848618766562 $241 $465 forward 7 unknown #
coedge $-1 $243 $242 $459 $466 reversed $93 $-1 #
coedge $-1 $467 $245 $243 $356 forward $359 $-1 #
edge $-1 $250 3.8568848618766562 $468 8.0891305828065665 $355 $469 forward 7 unknown #
edge $-1 $363 -46.063129014484545 $360 46.063129014484545 $351 $470 forward 7 unknown #
coedge $-1 $245 $467 $460 $471 forward $359 $-1 #
loop $-1 $-1 $355 $348 #
vertex $-1 $357 $472 #
straight-curve $-1 -36.26337551964577 -46.063129014484545 9.8298925842182676 1 0 0 I I #
coedge $-1 $352 $247 $461 $473 reversed $147 $-1 #
vertex $-1 $357 $474 #
straight-curve $-1 -36.26337551964577 46.063129014484545 9.8298925842182676 -1 0 0 I I #
point $-1 -67.701287960720606 46.063129014484545 9.8298925842182676 #
point $-1 -67.701287960720606 -46.063129014484545 9.8298925842182676 #
loop $-1 $-1 $260 $252 #
plane-surface $-1 0 -46.063129014484545 0 0 1 0 0 0 1 forward_v I I I I #
coedge $-1 $370 $255 $475 $476 reversed $154 $-1 #
coedge $-1 $255 $369 $373 $477 reversed $154 $-1 #
edge $-1 $478 2.787470371894754e-014 $374 9.9851231668288509 $255 $479 forward 7 unknown #
coedge $-1 $257 $256 $377 $480 reversed $97 $-1 #
coedge $-1 $263 $258 $370 $477 forward $253 $-1 #
vertex $-1 $477 $481 #
straight-curve $-1 -27.695044719585084 -40.920410531101552 14.062138305148178 -1 0 0 I I #
coedge $-1 $475 $260 $263 $381 reversed $367 $-1 #
coedge $-1 $260 $475 $372 $480 forward $367 $-1 #
vertex $-1 $261 $482 #
straight-curve $-1 -43.078890917619717 -46.063129014484545 42.590943018078981 0 0 1 I I #
straight-curve $-1 -43.078890917619717 -46.063129014484559 5.5032171548271265 0 -0.51503806187062418 -0.85716730853699208 I I #
edge $-1 $483 -67.701287960720606 $264 -43.078890917619717 $376 $484 forward 7 unknown #
point $-1 -43.078890917619717 -46.063129014484545 14.062138305148178 #
point $-1 -43.078890917619717 -40.92041053110156 14.062138305148178 #
edge $-1 $485 1 $485 0 $267 $-1 forward 7 unknown #
vertex $-1 $268 $486 #
ellipse-curve $-1 -60.666317376977503 -38.411627124684422 6.7302201788778948 0 -0.85716730853699208 0.51503806187062418 1.5 0 0 1 I I #
point $-1 -59.166317376977503 -43.491769772793042 9.7826777299876504 #
edge $-1 $487 1 $487 0 $271 $-1 forward 7 unknown #
vertex $-1 $272 $488 #
ellipse-curve $-1 -50.113861501362834 -38.411627124684422 6.7302201788778948 0 -0.85716730853699208 0.51503806187062418 1.5 0 0 1 I I #
point $-1 -48.613861501362834 -43.491769772793042 9.7826777299876504 #
plane-surface $-1 0 0 14.062138305148178 0 0 1 1 0 0 forward_v I I I I #
coedge $-1 $403 $402 $395 $489 forward $276 $-1 #
coedge $-1 $395 $278 $280 $399 reversed $176 $-1 #
coedge $-1 $278 $394 $393 $489 reversed $176 $-1 #
coedge $-1 $286 $281 $278 $397 forward $287 $-1 #
edge $-1 $400 -48.414943160926022 $490 -43.272224677543036 $396 $491 forward 7 unknown #
coedge $-1 $280 $279 $403 $492 reversed $111 $-1 #
edge $-1 $493 2.787470371894754e-014 $400 9.9851231668288509 $394 $494 forward 7 unknown #
vertex $-1 $282 $495 #
straight-curve $-1 8.5683308000606857 -40.920410531101552 14.062138305148178 -1 0 0 I I #
coedge $-1 $393 $283 $286 $407 reversed $276 $-1 #
coedge $-1 $283 $393 $398 $492 forward $276 $-1 #
vertex $-1 $284 $496 #
straight-curve $-1 29.44786012167182 -46.063129014484545 42.590943018078981 0 0 1 I I #
straight-curve $-1 29.44786012167182 -46.063129014484559 5.5032171548271265 0 -0.51503806187062418 -0.85716730853699208 I I #
edge $-1 $490 4.8254630785709232 $288 29.44786012167182 $402 $497 forward 7 unknown #
point $-1 29.44786012167182 -46.063129014484545 14.062138305148178 #
point $-1 29.44786012167182 -40.92041053110156 14.062138305148178 #
edge $-1 $498 1 $498 0 $291 $-1 forward 7 unknown #
vertex $-1 $292 $499 #
ellipse-curve $-1 11.860433662314037 -38.411627124684422 6.7302201788778948 0 -0.85716730853699208 0.51503806187062418 1.5 0 0 1 I I #
point $-1 13.360433662314037 -43.491769772793042 9.7826777299876504 #
edge $-1 $500 1 $500 0 $295 $-1 forward 7 unknown #
vertex $-1 $296 $501 #
ellipse-curve $-1 22.412889537928706 -38.411627124684422 6.7302201788778948 0 -0.85716730853699208 0.51503806187062418 1.5 0 0 1 I I #
point $-1 23.912889537928706 -43.491769772793042 9.7826777299876504 #
loop $-1 $-1 $306 $299 #
plane-surface $-1 0 46.063129014484545 0 0 -1 0 0 0 -1 forward_v I I I I #
coedge $-1 $502 $503 $303 $422 forward $300 $-1 #
coedge $-1 $303 $302 $427 $504 reversed $125 $-1 #
edge $-1 $424 48.912782899241776 $505 52.421588317897815 $420 $506 forward 7 unknown #
coedge $-1 $309 $304 $503 $507 forward $198 $-1 #
vertex $-1 $507 $508 #
straight-curve $-1 30.487934920584635 44.362026440214521 14.062138305148174 1 0 0 I I #
coedge $-1 $509 $306 $309 $431 reversed $418 $-1 #
coedge $-1 $306 $509 $421 $504 forward $418 $-1 #
vertex $-1 $307 $510 #
straight-curve $-1 44.59952556447606 46.063129014484545 83.285451202807764 0 0 1 I I #
straight-curve $-1 44.59952556447606 1.3994341120267393 91.568709430330955 0 0.48480960649040278 -0.87461971476443456 I I #
edge $-1 $511 -77.352214117862474 $310 -44.59952556447606 $426 $512 forward 7 unknown #
point $-1 44.59952556447606 46.063129014484545 14.062138305148178 #
point $-1 44.59952556447606 44.362026440214514 14.062138305148181 #
edge $-1 $513 1 $513 0 $313 $-1 forward 7 unknown #
vertex $-1 $314 $514 #
ellipse-curve $-1 53.957436579729318 44.337958012585105 12.042893501443343 0 0.87461971476443456 0.48480960649040278 0.25 0 0 1 I I #
point $-1 54.207436579729318 45.21257772734954 12.527703107933746 #
edge $-1 $515 1 $515 0 $317 $-1 forward 7 unknown #
vertex $-1 $318 $516 #
ellipse-curve $-1 67.994303102609223 44.337958012585105 12.042893501443343 0 0.87461971476443456 0.48480960649040278 0.25 0 0 1 I I #
point $-1 68.244303102609223 45.21257772734954 12.527703107933746 #
plane-surface $-1 77.352214117862474 0 0 -1 0 0 0 0 1 forward_v I I I I #
coedge $-1 $326 $324 $328 $447 reversed $220 $-1 #
edge $-1 $339 -14.062138305148178 $449 14.062138305148178 $338 $517 forward 7 unknown #
vertex $-1 $447 $518 #
straight-curve $-1 -77.352214117862474 -46.063129014484545 0 0 0 -1 I I #
edge $-1 $445 -46.063129014484545 $449 46.063129014484545 $443 $519 forward 7 unknown #
straight-curve $-1 0 -46.063129014484545 -14.062138305148178 -1 0 0 I I #
vertex $-1 $331 $520 #
straight-curve $-1 0 46.063129014484545 -14.062138305148178 1 0 0 I I #
point $-1 77.352214117862474 46.063129014484545 -14.062138305148178 #
point $-1 77.352214117862474 -46.063129014484545 -14.062138305148178 #
straight-curve $-1 -77.352214117862474 0 14.062138305148178 0 -1 0 I I #
point $-1 -77.352214117862474 46.063129014484545 14.062138305148178 #
point $-1 -77.352214117862474 -46.063129014484545 14.062138305148178 #
straight-curve $-1 77.352214117862474 -46.063129014484545 0 0 0 -1 I I #
straight-curve $-1 77.352214117862474 46.063129014484545 0 0 0 -1 I I #
plane-surface $-1 0 -46.063129014484545 0 0 1 0 0 0 1 forward_v I I I I #
coedge $-1 $462 $521 $354 $466 forward $349 $-1 #
coedge $-1 $522 $351 $358 $471 reversed $239 $-1 #
coedge $-1 $351 $522 $362 $473 forward $239 $-1 #
coedge $-1 $523 $459 $352 $463 forward $349 $-1 #
edge $-1 $464 67.701287960720606 $524 77.352214117862474 $352 $525 forward 7 unknown #
vertex $-1 $463 $526 #
straight-curve $-1 -67.701287960720606 46.063129014484545 5.9730077223416114 0 0 -1 I I #
edge $-1 $468 -46.063129014484545 $464 46.063129014484545 $459 $527 forward 7 unknown #
coedge $-1 $358 $355 $521 $528 reversed $359 $-1 #
vertex $-1 $356 $529 #
straight-curve $-1 -67.701287960720606 -46.063129014484545 5.9730077223416114 0 0 1 I I #
straight-curve $-1 -77.352214117862474 0 9.8298925842182676 0 -1 0 I I #
edge $-1 $530 -14.062138305148178 $360 -9.8298925842182676 $460 $531 forward 7 unknown #
point $-1 -77.352214117862474 -46.063129014484545 9.8298925842182676 #
edge $-1 $524 -14.062138305148178 $363 -9.8298925842182676 $362 $532 forward 7 unknown #
point $-1 -77.352214117862474 46.063129014484545 9.8298925842182676 #
coedge $-1 $377 $376 $369 $476 forward $367 $-1 #
edge $-1 $483 28.528804712930803 $478 37.087725863251833 $475 $533 forward 7 unknown #
edge $-1 $374 40.92041053110156 $483 46.063129014484545 $373 $534 forward 7 unknown #
vertex $-1 $476 $535 #
straight-curve $-1 -67.70128796072062 -46.063129014484559 5.5032171548271265 0 0.51503806187062418 0.85716730853699208 I I #
edge $-1 $478 -40.006243241135536 $378 -15.383846198034632 $377 $536 forward 7 unknown #
point $-1 -67.701287960720606 -40.92041053110156 14.062138305148178 #
point $-1 -43.078890917619717 -46.063129014484545 5.5032171548271505 #
vertex $-1 $381 $537 #
straight-curve $-1 0 -46.063129014484545 14.062138305148178 1 0 0 I I #
vertex $-1 $384 $538 #
point $-1 -59.166317376977503 -38.411627124684422 6.7302201788778948 #
vertex $-1 $388 $539 #
point $-1 -48.613861501362834 -38.411627124684422 6.7302201788778948 #
edge $-1 $490 28.528804712930803 $493 37.087725863251833 $393 $540 forward 7 unknown #
vertex $-1 $407 $541 #
straight-curve $-1 4.8254630785709232 -89.335353692027581 14.062138305148174 0 -1 0 I I #
edge $-1 $493 -3.7428677214897625 $404 20.879529321611134 $403 $542 forward 7 unknown #
vertex $-1 $492 $543 #
straight-curve $-1 4.8254630785709232 -46.063129014484559 5.5032171548271265 0 0.51503806187062418 0.85716730853699208 I I #
point $-1 4.8254630785709232 -40.92041053110156 14.062138305148178 #
point $-1 29.44786012167182 -46.063129014484545 5.5032171548271505 #
straight-curve $-1 0 -46.063129014484545 14.062138305148178 1 0 0 I I #
vertex $-1 $410 $544 #
point $-1 13.360433662314037 -38.411627124684422 6.7302201788778948 #
vertex $-1 $414 $545 #
point $-1 23.912889537928706 -38.411627124684422 6.7302201788778948 #
coedge $-1 $503 $420 $509 $546 reversed $300 $-1 #
coedge $-1 $420 $502 $423 $507 reversed $300 $-1 #
edge $-1 $505 -46.864279197277838 $428 -14.111590643891425 $427 $547 forward 7 unknown #
vertex $-1 $422 $548 #
straight-curve $-1 77.352214117862474 20.648639410482609 56.842222532817729 0 0.48480960649040278 -0.87461971476443456 I I #
edge $-1 $424 44.362026440214514 $511 46.063129014484545 $503 $549 forward 7 unknown #
point $-1 77.352214117862474 44.362026440214514 14.062138305148181 #
coedge $-1 $427 $426 $502 $546 forward $418 $-1 #
point $-1 44.59952556447606 46.063129014484545 10.993267910719325 #
vertex $-1 $507 $550 #
straight-curve $-1 0 46.063129014484545 14.062138305148178 -1 0 0 I I #
vertex $-1 $434 $551 #
point $-1 54.207436579729318 44.337958012585105 12.042893501443343 #
vertex $-1 $438 $552 #
point $-1 68.244303102609223 44.337958012585105 12.042893501443343 #
straight-curve $-1 -77.352214117862474 46.063129014484545 0 0 0 -1 I I #
point $-1 -77.352214117862474 -46.063129014484545 -14.062138305148178 #
straight-curve $-1 -77.352214117862474 0 -14.062138305148178 0 1 0 I I #
point $-1 -77.352214117862474 46.063129014484545 -14.062138305148178 #
coedge $-1 $459 $523 $467 $528 forward $349 $-1 #
coedge $-1 $461 $460 $523 $553 reversed $239 $-1 #
coedge $-1 $521 $462 $522 $553 forward $349 $-1 #
vertex $-1 $463 $554 #
straight-curve $-1 0 46.063129014484545 14.062138305148178 -1 0 0 I I #
point $-1 -67.701287960720606 46.063129014484545 14.062138305148178 #
straight-curve $-1 -67.701287960720606 0 14.062138305148178 0 1 0 I I #
edge $-1 $530 -77.352214117862474 $468 -67.701287960720606 $467 $555 forward 7 unknown #
point $-1 -67.701287960720606 -46.063129014484545 14.062138305148178 #
vertex $-1 $553 $556 #
straight-curve $-1 -77.352214117862474 -46.063129014484545 0 0 0 -1 I I #
straight-curve $-1 -77.352214117862474 46.063129014484545 0 0 0 -1 I I #
straight-curve $-1 -67.70128796072062 -46.063129014484545 42.590943018078981 0 0 -1 I I #
straight-curve $-1 -67.701287960720606 0 14.062138305148178 0 -1 0 I I #
point $-1 -67.70128796072062 -46.063129014484545 5.5032171548271505 #
straight-curve $-1 -27.695044719585084 -46.063129014484545 5.5032171548271513 1 0 0 I I #
point $-1 -67.701287960720606 -46.063129014484545 14.062138305148178 #
point $-1 -60.666317376977503 -37.125876161878928 5.9576630860719586 #
point $-1 -50.113861501362834 -37.125876161878928 5.9576630860719586 #
straight-curve $-1 4.8254630785709232 -46.063129014484545 42.590943018078981 0 0 -1 I I #
point $-1 4.8254630785709232 -46.063129014484545 14.062138305148178 #
straight-curve $-1 8.5683308000606857 -46.063129014484545 5.5032171548271513 1 0 0 I I #
point $-1 4.8254630785709232 -46.063129014484545 5.5032171548271505 #
point $-1 11.860433662314037 -37.125876161878928 5.9576630860719586 #
point $-1 22.412889537928706 -37.125876161878928 5.9576630860719586 #
edge $-1 $511 -14.062138305148178 $505 -10.993267910719325 $502 $557 forward 7 unknown #
straight-curve $-1 30.487934920584635 46.063129014484545 10.993267910719332 -1 0 0 I I #
point $-1 77.352214117862474 46.063129014484545 10.993267910719325 #
straight-curve $-1 77.352214117862474 0 14.062138305148178 0 1 0 I I #
point $-1 77.352214117862474 46.063129014484545 14.062138305148178 #
point $-1 53.957436579729318 44.119303083893996 11.921691099820743 #
point $-1 67.994303102609223 44.119303083893996 11.921691099820743 #
edge $-1 $524 -46.063129014484545 $530 46.063129014484545 $522 $558 forward 7 unknown #
point $-1 -77.352214117862474 46.063129014484545 14.062138305148178 #
straight-curve $-1 0 -46.063129014484545 14.062138305148178 1 0 0 I I #
point $-1 -77.352214117862474 -46.063129014484545 14.062138305148178 #
straight-curve $-1 77.352214117862474 46.063129014484545 0 0 0 -1 I I #
straight-curve $-1 -77.352214117862474 0 14.062138305148178 0 -1 0 I I #
End-of-ACIS-data 