500 0 12 0           
7 Unknown 11 ACIS 5.0 NT 24 Fri Mar 26 16:29:59 1999 
-1 9.9999999999999995e-007 1e-010 
body $-1 $12 $-1 $13 #
body $-1 $14 $-1 $15 #
body $-1 $16 $-1 $17 #
body $-1 $18 $-1 $19 #
body $-1 $20 $-1 $21 #
body $-1 $22 $-1 $23 #
body $-1 $24 $-1 $25 #
body $-1 $26 $-1 $27 #
body $-1 $28 $-1 $29 #
body $-1 $30 $-1 $31 #
body $-1 $32 $-1 $33 #
body $-1 $34 $-1 $35 #
lump $-1 $-1 $36 $0 #
transform $-1 1 0 0 0 1 0 0 0 1 48.6489455854976 27.670674567723456 8.4713626207335011 1 rotate no_reflect no_shear #
lump $-1 $-1 $37 $1 #
transform $-1 1 0 0 0 1 0 0 0 1 48.6489455854976 27.670674567723456 8.4713626207335011 1 rotate no_reflect no_shear #
lump $-1 $-1 $38 $2 #
transform $-1 1 0 0 0 1 0 0 0 1 48.6489455854976 27.670674567723456 8.4713626207335011 1 rotate no_reflect no_shear #
lump $-1 $-1 $39 $3 #
transform $-1 1 0 0 0 1 0 0 0 1 48.6489455854976 27.670674567723456 8.4713626207335011 1 rotate no_reflect no_shear #
lump $-1 $-1 $40 $4 #
transform $-1 1 0 0 0 1 0 0 0 1 48.6489455854976 27.670674567723456 8.4713626207335011 1 rotate no_reflect no_shear #
lump $-1 $-1 $41 $5 #
transform $-1 1 0 0 0 1 0 0 0 1 48.6489455854976 27.670674567723456 8.4713626207335011 1 rotate no_reflect no_shear #
lump $-1 $-1 $42 $6 #
transform $-1 1 0 0 0 1 0 0 0 1 48.6489455854976 27.670674567723456 8.4713626207335011 1 rotate no_reflect no_shear #
lump $-1 $-1 $43 $7 #
transform $-1 1 0 0 0 1 0 0 0 1 48.6489455854976 27.670674567723456 8.4713626207335011 1 rotate no_reflect no_shear #
lump $-1 $-1 $44 $8 #
transform $-1 1 0 0 0 1 0 0 0 1 48.6489455854976 27.670674567723456 8.4713626207335011 1 rotate no_reflect no_shear #
lump $-1 $-1 $45 $9 #
transform $-1 1 0 0 0 1 0 0 0 1 48.6489455854976 27.670674567723456 8.4713626207335011 1 rotate no_reflect no_shear #
lump $-1 $-1 $46 $10 #
transform $-1 1 0 0 0 1 0 0 0 1 48.6489455854976 27.670674567723456 8.4713626207335011 1 rotate no_reflect no_shear #
lump $-1 $-1 $47 $11 #
transform $-1 1 0 0 0 1 0 0 0 1 48.6489455854976 27.670674567723456 8.4713626207335011 1 rotate no_reflect no_shear #
shell $-1 $-1 $-1 $48 $-1 $12 #
shell $-1 $-1 $-1 $49 $-1 $14 #
shell $-1 $-1 $-1 $50 $-1 $16 #
shell $-1 $-1 $-1 $51 $-1 $18 #
shell $-1 $-1 $-1 $52 $-1 $20 #
shell $-1 $-1 $-1 $53 $-1 $22 #
shell $-1 $-1 $-1 $54 $-1 $24 #
shell $-1 $-1 $-1 $55 $-1 $26 #
shell $-1 $-1 $-1 $56 $-1 $28 #
shell $-1 $-1 $-1 $57 $-1 $30 #
shell $-1 $-1 $-1 $58 $-1 $32 #
shell $-1 $-1 $-1 $59 $-1 $34 #
face $-1 $60 $61 $36 $-1 $62 forward single #
face $-1 $63 $64 $37 $-1 $65 reversed single #
face $-1 $66 $67 $38 $-1 $68 reversed single #
face $-1 $69 $70 $39 $-1 $71 forward single #
face $-1 $72 $73 $40 $-1 $74 forward single #
face $-1 $75 $76 $41 $-1 $77 reversed single #
face $-1 $78 $79 $42 $-1 $80 forward single #
face $-1 $81 $82 $43 $-1 $83 forward single #
face $-1 $84 $85 $44 $-1 $86 reversed single #
face $-1 $87 $88 $45 $-1 $89 forward single #
face $-1 $90 $91 $46 $-1 $92 forward single #
face $-1 $93 $94 $47 $-1 $95 forward single #
face $-1 $96 $97 $36 $-1 $98 reversed single #
loop $-1 $-1 $99 $48 #
plane-surface $-1 0 0 8.4713626207335011 0 0 1 1 0 0 forward_v I I I I #
face $-1 $100 $101 $37 $-1 $102 reversed single #
loop $-1 $-1 $103 $49 #
plane-surface $-1 -34.706220344030598 -24.246687181050699 0 1 0 0 0 0 -1 forward_v I I I I #
face $-1 $104 $105 $38 $-1 $106 reversed single #
loop $-1 $-1 $107 $50 #
plane-surface $-1 -105.83921182560849 -14.69903442925534 79.960967614299406 0 1 0 -0.5877852598018023 0 0.80901698891910034 forward_v I I I I #
face $-1 $108 $109 $39 $-1 $110 forward single #
loop $-1 $111 $112 $51 #
cone-surface $-1 -43.091721287759995 -11.359680937534755 4.0540836530107898 0.5877852598018023 0 -0.80901698891910034 0.40450849445955017 0 0.29389262990090115 1 I I 0 1 0.5 forward I I I I #
face $-1 $113 $114 $40 $-1 $115 forward single #
loop $-1 $116 $117 $52 #
cone-surface $-1 -43.091721287759995 -6.3506506999538743 4.0540836530107898 0.5877852598018023 0 -0.80901698891910034 0.40450849445955017 0 0.29389262990090115 1 I I 0 1 0.5 forward I I I I #
face $-1 $118 $119 $41 $-1 $120 reversed single #
loop $-1 $-1 $121 $53 #
plane-surface $-1 -105.83921182560849 9.5476527517953631 79.960967614299406 0 1 0 -0.5877852598018023 0 0.80901698891910034 forward_v I I I I #
face $-1 $122 $123 $42 $-1 $124 forward single #
loop $-1 $125 $126 $54 #
cone-surface $-1 -43.091721287759995 12.887006243515945 4.0540836530107898 0.5877852598018023 0 -0.80901698891910034 0.40450849445955017 0 0.29389262990090115 1 I I 0 1 0.5 forward I I I I #
face $-1 $127 $128 $43 $-1 $129 forward single #
loop $-1 $130 $131 $55 #
cone-surface $-1 -43.091721287759995 17.896036481096825 4.0540836530107898 0.5877852598018023 0 -0.80901698891910034 0.40450849445955017 0 0.29389262990090115 1 I I 0 1 0.5 forward I I I I #
face $-1 $132 $133 $44 $-1 $134 reversed single #
loop $-1 $-1 $135 $56 #
plane-surface $-1 72.54293628254166 20.73574210672427 137.29904522663145 0 -1 0 -0.81915205242281985 0 -0.57357642473473569 forward_v I I I I #
face $-1 $136 $137 $45 $-1 $138 forward single #
loop $-1 $139 $140 $57 #
cone-surface $-1 45.900024840773959 10.982501977739997 4.8436438107042692 -0.81915205242281985 0 -0.57357642473473569 0.28678821236736785 0 -0.40957602621140993 1 I I 0 1 0.5 forward I I I I #
face $-1 $141 $142 $46 $-1 $143 forward single #
loop $-1 $144 $145 $58 #
cone-surface $-1 45.900024840773959 14.639967026109101 4.8436438107042692 -0.81915205242281985 0 -0.57357642473473569 0.28678821236736785 0 -0.40957602621140993 1 I I 0 1 0.5 forward I I I I #
face $-1 $146 $147 $47 $-1 $148 forward single #
loop $-1 $149 $150 $59 #
cone-surface $-1 45.900024840773959 18.297432074478206 4.8436438107042692 -0.81915205242281985 0 -0.57357642473473569 0.28678821236736785 0 -0.40957602621140993 1 I I 0 1 0.5 forward I I I I #
face $-1 $151 $152 $36 $-1 $153 reversed single #
loop $-1 $-1 $154 $60 #
plane-surface $-1 0 0 -8.4713626207335011 0 0 1 1 0 0 forward_v I I I I #
coedge $-1 $155 $156 $157 $158 forward $61 $-1 #
face $-1 $159 $160 $37 $-1 $161 reversed single #
loop $-1 $-1 $162 $63 #
plane-surface $-1 -33.206220344030598 -20.822699794377943 0 0 -1 0 0 0 -1 forward_v I I I I #
coedge $-1 $163 $164 $165 $166 forward $64 $-1 #
face $-1 $167 $168 $38 $-1 $169 reversed single #
loop $-1 $-1 $170 $66 #
plane-surface $-1 -48.648945585497586 -8.8551658187443145 1.2453206709625562 -0.5877852598018023 0 0.80901698891910034 0.80901698891910034 0 0.5877852598018023 forward_v I I I I #
coedge $-1 $171 $172 $173 $174 reversed $67 $-1 #
face $-1 $-1 $175 $39 $-1 $176 forward single #
loop $-1 $177 $178 $69 #
cone-surface $-1 -42.360447326119314 -11.359680937534755 3.0475714129437694 0.5877852598018023 0 -0.80901698891910034 0.20225424722977509 0 0.14694631495045057 1 I I -0.70710678118654746 0.70710678118654746 0.25 forward I I I I #
loop $-1 $-1 $179 $51 #
coedge $-1 $112 $112 $180 $181 reversed $70 $-1 #
face $-1 $-1 $182 $40 $-1 $183 forward single #
loop $-1 $184 $185 $72 #
cone-surface $-1 -42.360447326119314 -6.3506506999538743 3.0475714129437694 0.5877852598018023 0 -0.80901698891910034 0.20225424722977509 0 0.14694631495045057 1 I I -0.70710678118654746 0.70710678118654746 0.25 forward I I I I #
loop $-1 $-1 $186 $52 #
coedge $-1 $117 $117 $187 $188 reversed $73 $-1 #
face $-1 $189 $190 $41 $-1 $191 reversed single #
loop $-1 $-1 $192 $75 #
plane-surface $-1 -48.648945585497586 15.391521362306388 1.2453206709625562 -0.5877852598018023 0 0.80901698891910034 0.80901698891910034 0 0.5877852598018023 forward_v I I I I #
coedge $-1 $193 $194 $195 $196 reversed $76 $-1 #
face $-1 $-1 $197 $42 $-1 $198 forward single #
loop $-1 $199 $200 $78 #
cone-surface $-1 -42.360447326119314 12.887006243515945 3.0475714129437694 0.5877852598018023 0 -0.80901698891910034 0.20225424722977509 0 0.14694631495045057 1 I I -0.70710678118654746 0.70710678118654746 0.25 forward I I I I #
loop $-1 $-1 $201 $54 #
coedge $-1 $126 $126 $202 $203 reversed $79 $-1 #
face $-1 $-1 $204 $43 $-1 $205 forward single #
loop $-1 $206 $207 $81 #
cone-surface $-1 -42.360447326119314 17.896036481096825 3.0475714129437694 0.5877852598018023 0 -0.80901698891910034 0.20225424722977509 0 0.14694631495045057 1 I I -0.70710678118654746 0.70710678118654746 0.25 forward I I I I #
loop $-1 $-1 $208 $55 #
coedge $-1 $131 $131 $209 $210 reversed $82 $-1 #
face $-1 $211 $212 $44 $-1 $213 reversed single #
loop $-1 $-1 $214 $84 #
plane-surface $-1 -7.1588309665912249 14.639967026109101 81.491268674542624 0.81915205242281985 0 0.57357642473473569 0.57357642473473569 0 -0.81915205242281985 forward_v I I I I #
coedge $-1 $215 $216 $217 $218 reversed $85 $-1 #
face $-1 $-1 $219 $45 $-1 $220 forward single #
loop $-1 $221 $222 $87 #
cone-surface $-1 45.285660801456842 10.982501977739997 4.4134614921532176 -0.81915205242281985 0 -0.57357642473473569 0.14339410618368392 0 -0.20478801310570496 1 I I -0.70710678118654746 0.70710678118654746 0.25 forward I I I I #
loop $-1 $-1 $223 $57 #
coedge $-1 $140 $140 $224 $225 reversed $88 $-1 #
face $-1 $-1 $226 $46 $-1 $227 forward single #
loop $-1 $228 $229 $90 #
cone-surface $-1 45.285660801456842 14.639967026109101 4.4134614921532176 -0.81915205242281985 0 -0.57357642473473569 0.14339410618368392 0 -0.20478801310570496 1 I I -0.70710678118654746 0.70710678118654746 0.25 forward I I I I #
loop $-1 $-1 $230 $58 #
coedge $-1 $145 $145 $231 $232 reversed $91 $-1 #
face $-1 $-1 $233 $47 $-1 $234 forward single #
loop $-1 $235 $236 $93 #
cone-surface $-1 45.285660801456842 18.297432074478206 4.4134614921532176 -0.81915205242281985 0 -0.57357642473473569 0.14339410618368392 0 -0.20478801310570496 1 I I -0.70710678118654746 0.70710678118654746 0.25 forward I I I I #
loop $-1 $-1 $237 $59 #
coedge $-1 $150 $150 $238 $239 reversed $94 $-1 #
face $-1 $240 $241 $36 $-1 $242 reversed single #
loop $-1 $-1 $243 $96 #
plane-surface $-1 0 -27.670674567723456 0 0 1 0 0 0 1 forward_v I I I I #
coedge $-1 $244 $245 $246 $247 forward $97 $-1 #
coedge $-1 $248 $99 $249 $250 forward $61 $-1 #
coedge $-1 $99 $248 $251 $252 forward $61 $-1 #
coedge $-1 $253 $254 $99 $158 reversed $255 $-1 #
edge $-1 $256 -27.670674567723456 $257 27.670674567723456 $157 $258 forward 7 unknown #
face $-1 $259 $260 $37 $-1 $261 forward single #
loop $-1 $-1 $262 $100 #
plane-surface $-1 -31.706220344030598 -24.246687181050699 0 -1 0 0 0 0 1 forward_v I I I I #
coedge $-1 $263 $264 $265 $266 forward $101 $-1 #
coedge $-1 $267 $103 $268 $269 reversed $64 $-1 #
coedge $-1 $103 $267 $270 $271 reversed $64 $-1 #
coedge $-1 $264 $263 $103 $166 reversed $101 $-1 #
edge $-1 $272 -8.4713626207335011 $273 8.4713626207335011 $165 $274 forward 7 unknown #
face $-1 $275 $276 $38 $-1 $277 reversed single #
loop $-1 $-1 $278 $104 #
plane-surface $-1 -105.83921182560849 -3.0112972082332892 79.960967614299406 0 -1 0 0.5877852598018023 0 -0.80901698891910034 forward_v I I I I #
coedge $-1 $279 $280 $281 $282 reversed $105 $-1 #
coedge $-1 $172 $107 $283 $284 reversed $67 $-1 #
coedge $-1 $107 $171 $279 $285 reversed $67 $-1 #
coedge $-1 $281 $286 $107 $174 forward $287 $-1 #
edge $-1 $288 4.2706603273066435 $289 14.216453629401421 $173 $290 forward 7 unknown #
loop $-1 $-1 $180 $108 #
plane-surface $-1 -48.648945585497586 -8.8551658187443145 1.2453206709625562 -0.5877852598018023 0 0.80901698891910034 0.80901698891910034 0 0.5877852598018023 forward_v I I I I #
loop $-1 $-1 $291 $69 #
coedge $-1 $178 $178 $179 $292 reversed $109 $-1 #
coedge $-1 $179 $179 $178 $292 forward $111 $-1 #
coedge $-1 $180 $180 $112 $181 forward $175 $-1 #
edge $-1 $293 0 $293 6.2831853071796004 $180 $294 forward 7 unknown #
loop $-1 $-1 $187 $113 #
plane-surface $-1 -48.648945585497586 -8.8551658187443145 1.2453206709625562 -0.5877852598018023 0 0.80901698891910034 0.80901698891910034 0 0.5877852598018023 forward_v I I I I #
loop $-1 $-1 $295 $72 #
coedge $-1 $185 $185 $186 $296 reversed $114 $-1 #
coedge $-1 $186 $186 $185 $296 forward $116 $-1 #
coedge $-1 $187 $187 $117 $188 forward $182 $-1 #
edge $-1 $297 0 $297 6.2831853071796004 $187 $298 forward 7 unknown #
face $-1 $299 $300 $41 $-1 $301 forward single #
loop $-1 $-1 $302 $118 #
plane-surface $-1 -105.83921182560849 21.235389972817416 79.960967614299406 0 -1 0 0.5877852598018023 0 -0.80901698891910034 forward_v I I I I #
coedge $-1 $303 $304 $305 $306 reversed $119 $-1 #
coedge $-1 $194 $121 $307 $308 reversed $76 $-1 #
coedge $-1 $121 $193 $303 $309 reversed $76 $-1 #
coedge $-1 $305 $310 $121 $196 forward $300 $-1 #
edge $-1 $311 4.2706603273066435 $312 14.216453629401421 $195 $313 forward 7 unknown #
loop $-1 $-1 $202 $122 #
plane-surface $-1 -48.648945585497586 15.391521362306388 1.2453206709625562 -0.5877852598018023 0 0.80901698891910034 0.80901698891910034 0 0.5877852598018023 forward_v I I I I #
loop $-1 $-1 $314 $78 #
coedge $-1 $200 $200 $201 $315 reversed $123 $-1 #
coedge $-1 $201 $201 $200 $315 forward $125 $-1 #
coedge $-1 $202 $202 $126 $203 forward $197 $-1 #
edge $-1 $316 0 $316 6.2831853071796004 $202 $317 forward 7 unknown #
loop $-1 $-1 $209 $127 #
plane-surface $-1 -48.648945585497586 15.391521362306388 1.2453206709625562 -0.5877852598018023 0 0.80901698891910034 0.80901698891910034 0 0.5877852598018023 forward_v I I I I #
loop $-1 $-1 $318 $81 #
coedge $-1 $207 $207 $208 $319 reversed $128 $-1 #
coedge $-1 $208 $208 $207 $319 forward $130 $-1 #
coedge $-1 $209 $209 $131 $210 forward $204 $-1 #
edge $-1 $320 0 $320 6.2831853071796004 $209 $321 forward 7 unknown #
face $-1 $322 $323 $44 $-1 $324 forward single #
loop $-1 $-1 $325 $132 #
plane-surface $-1 72.54293628254166 8.5441919454939317 137.29904522663145 0 1 0 0.81915205242281985 0 0.57357642473473569 forward_v I I I I #
coedge $-1 $326 $327 $328 $329 reversed $133 $-1 #
coedge $-1 $216 $135 $330 $331 reversed $85 $-1 #
coedge $-1 $135 $215 $326 $332 reversed $85 $-1 #
coedge $-1 $328 $333 $135 $218 forward $323 $-1 #
edge $-1 $334 -12.37747744422677 $335 -7.6987880072022961 $217 $336 forward 7 unknown #
loop $-1 $-1 $224 $136 #
plane-surface $-1 -7.1588309665912249 14.639967026109101 81.491268674542624 0.81915205242281985 0 0.57357642473473569 0.57357642473473569 0 -0.81915205242281985 forward_v I I I I #
loop $-1 $-1 $337 $87 #
coedge $-1 $222 $222 $223 $338 reversed $137 $-1 #
coedge $-1 $223 $223 $222 $338 forward $139 $-1 #
coedge $-1 $224 $224 $140 $225 forward $219 $-1 #
edge $-1 $339 0 $339 6.2831853071796004 $224 $340 forward 7 unknown #
loop $-1 $-1 $231 $141 #
plane-surface $-1 -7.1588309665912249 14.639967026109101 81.491268674542624 0.81915205242281985 0 0.57357642473473569 0.57357642473473569 0 -0.81915205242281985 forward_v I I I I #
loop $-1 $-1 $341 $90 #
coedge $-1 $229 $229 $230 $342 reversed $142 $-1 #
coedge $-1 $230 $230 $229 $342 forward $144 $-1 #
coedge $-1 $231 $231 $145 $232 forward $226 $-1 #
edge $-1 $343 0 $343 6.2831853071796004 $231 $344 forward 7 unknown #
loop $-1 $-1 $238 $146 #
plane-surface $-1 -7.1588309665912249 14.639967026109101 81.491268674542624 0.81915205242281985 0 0.57357642473473569 0.57357642473473569 0 -0.81915205242281985 forward_v I I I I #
loop $-1 $-1 $345 $93 #
coedge $-1 $236 $236 $237 $346 reversed $147 $-1 #
coedge $-1 $237 $237 $236 $346 forward $149 $-1 #
coedge $-1 $238 $238 $150 $239 forward $233 $-1 #
edge $-1 $347 0 $347 6.2831853071796004 $238 $348 forward 7 unknown #
face $-1 $349 $350 $36 $-1 $351 reversed single #
loop $-1 $-1 $352 $151 #
plane-surface $-1 -48.6489455854976 0 0 1 0 0 0 0 -1 forward_v I I I I #
coedge $-1 $353 $251 $354 $355 forward $152 $-1 #
coedge $-1 $356 $154 $353 $357 forward $97 $-1 #
coedge $-1 $154 $356 $358 $359 forward $97 $-1 #
coedge $-1 $254 $253 $154 $247 reversed $255 $-1 #
edge $-1 $360 -27.670674567723456 $361 27.670674567723456 $246 $362 forward 7 unknown #
coedge $-1 $156 $155 $363 $364 forward $61 $-1 #
coedge $-1 $365 $366 $155 $250 reversed $350 $-1 #
edge $-1 $257 -48.6489455854976 $367 48.6489455854976 $249 $368 forward 7 unknown #
coedge $-1 $243 $369 $156 $252 reversed $152 $-1 #
edge $-1 $370 -48.6489455854976 $256 48.6489455854976 $251 $371 forward 7 unknown #
coedge $-1 $246 $157 $369 $372 forward $255 $-1 #
coedge $-1 $157 $246 $365 $373 reversed $255 $-1 #
loop $-1 $-1 $253 $349 #
vertex $-1 $158 $374 #
vertex $-1 $158 $375 #
straight-curve $-1 48.6489455854976 0 8.4713626207335011 0 1 0 I I #
face $-1 $376 $377 $37 $-1 $378 reversed single #
loop $-1 $-1 $379 $159 #
plane-surface $-1 0 0 8.4713626207335011 0 0 1 1 0 0 forward_v I I I I #
coedge $-1 $380 $381 $382 $383 reversed $160 $-1 #
coedge $-1 $165 $162 $384 $385 reversed $101 $-1 #
coedge $-1 $162 $165 $386 $387 reversed $101 $-1 #
coedge $-1 $381 $380 $162 $266 reversed $160 $-1 #
edge $-1 $388 -8.4713626207335011 $389 8.4713626207335011 $265 $390 forward 7 unknown #
coedge $-1 $164 $163 $391 $392 reversed $64 $-1 #
coedge $-1 $384 $393 $163 $269 forward $377 $-1 #
edge $-1 $394 -15.547330977198106 $273 -8.6993562038525933 $268 $395 forward 7 unknown #
coedge $-1 $396 $386 $164 $271 forward $260 $-1 #
edge $-1 $272 8.6993562038525933 $397 15.547330977198106 $270 $398 forward 7 unknown #
vertex $-1 $271 $399 #
vertex $-1 $269 $400 #
straight-curve $-1 -34.706220344030598 -20.822699794377943 0 0 0 -1 I I #
face $-1 $-1 $287 $38 $-1 $401 forward single #
loop $-1 $-1 $402 $167 #
plane-surface $-1 -48.6489455854976 0 0 1 0 0 0 0 -1 forward_v I I I I #
coedge $-1 $403 $404 $405 $406 reversed $168 $-1 #
coedge $-1 $407 $170 $172 $285 forward $105 $-1 #
coedge $-1 $170 $407 $403 $408 forward $105 $-1 #
coedge $-1 $405 $173 $170 $282 forward $287 $-1 #
edge $-1 $289 -10.271451519883183 $409 1.4162857011388681 $281 $410 forward 7 unknown #
coedge $-1 $411 $412 $171 $284 forward $276 $-1 #
edge $-1 $413 -38.735163136187154 $288 -31.509121186416202 $283 $414 forward 7 unknown #
edge $-1 $289 -12.293676694457297 $413 1.7500491998158137e-014 $172 $415 forward 7 unknown #
coedge $-1 $173 $405 $411 $416 forward $287 $-1 #
loop $-1 $-1 $405 $275 #
vertex $-1 $284 $417 #
vertex $-1 $174 $418 #
straight-curve $-1 -52.919605912804244 -14.69903442925534 8.4713626207335011 1 0 0 I I #
coedge $-1 $291 $291 $-1 $419 reversed $177 $-1 #
edge $-1 $420 0 $420 6.2831853071796004 $178 $421 forward 7 unknown #
vertex $-1 $181 $422 #
ellipse-curve $-1 -43.676048934450215 -11.359680937534755 4.8583416458480198 -0.5877852598018023 0 0.80901698891910034 0.40450849445955017 0 0.29389262990090115 1 I I #
coedge $-1 $295 $295 $-1 $423 reversed $184 $-1 #
edge $-1 $424 0 $424 6.2831853071796004 $185 $425 forward 7 unknown #
vertex $-1 $188 $426 #
ellipse-curve $-1 -43.676048934450215 -6.3506506999538743 4.8583416458480198 -0.5877852598018023 0 0.80901698891910034 0.40450849445955017 0 0.29389262990090115 1 I I #
face $-1 $-1 $427 $41 $-1 $428 reversed single #
loop $-1 $-1 $195 $189 #
plane-surface $-1 0 0 8.4713626207335011 0 0 1 1 0 0 forward_v I I I I #
coedge $-1 $429 $430 $431 $432 reversed $190 $-1 #
coedge $-1 $433 $192 $194 $309 forward $119 $-1 #
coedge $-1 $192 $433 $429 $434 forward $119 $-1 #
coedge $-1 $431 $195 $192 $306 forward $300 $-1 #
edge $-1 $312 1.8518920706421689 $435 13.539629291664221 $305 $436 forward 7 unknown #
coedge $-1 $437 $438 $193 $308 forward $427 $-1 #
edge $-1 $439 -38.735163136187154 $311 -31.509121186416202 $307 $440 forward 7 unknown #
edge $-1 $312 -12.293676694457297 $439 1.7500491998158137e-014 $194 $441 forward 7 unknown #
coedge $-1 $195 $431 $437 $442 forward $300 $-1 #
vertex $-1 $308 $443 #
vertex $-1 $196 $444 #
straight-curve $-1 -52.919605912804244 9.5476527517953631 8.4713626207335011 1 0 0 I I #
coedge $-1 $314 $314 $-1 $445 reversed $199 $-1 #
edge $-1 $446 0 $446 6.2831853071796004 $200 $447 forward 7 unknown #
vertex $-1 $203 $448 #
ellipse-curve $-1 -43.676048934450215 12.887006243515945 4.8583416458480198 -0.5877852598018023 0 0.80901698891910034 0.40450849445955017 0 0.29389262990090115 1 I I #
coedge $-1 $318 $318 $-1 $449 reversed $206 $-1 #
edge $-1 $450 0 $450 6.2831853071796004 $207 $451 forward 7 unknown #
vertex $-1 $210 $452 #
ellipse-curve $-1 -43.676048934450215 17.896036481096825 4.8583416458480198 -0.5877852598018023 0 0.80901698891910034 0.40450849445955017 0 0.29389262990090115 1 I I #
face $-1 $-1 $453 $44 $-1 $454 reversed single #
loop $-1 $-1 $217 $211 #
plane-surface $-1 0 0 8.4713626207335011 0 0 1 1 0 0 forward_v I I I I #
coedge $-1 $455 $456 $457 $458 reversed $212 $-1 #
coedge $-1 $459 $214 $216 $332 forward $133 $-1 #
coedge $-1 $214 $459 $455 $460 forward $133 $-1 #
coedge $-1 $457 $217 $214 $329 forward $323 $-1 #
edge $-1 $335 -13.41575859366972 $461 -1.2242084324393812 $328 $462 forward 7 unknown #
coedge $-1 $463 $464 $215 $331 forward $453 $-1 #
edge $-1 $465 -66.860021187905971 $334 -60.178159992582223 $330 $466 forward 7 unknown #
edge $-1 $335 89.140844899108686 $465 97.2978911709952 $216 $467 forward 7 unknown #
coedge $-1 $217 $457 $463 $468 forward $323 $-1 #
vertex $-1 $331 $469 #
vertex $-1 $218 $470 #
straight-curve $-1 36.27146814127083 20.73574210672427 8.4713626207335011 -1 0 0 I I #
coedge $-1 $337 $337 $-1 $471 reversed $221 $-1 #
edge $-1 $472 0 $472 6.2831853071796004 $222 $473 forward 7 unknown #
vertex $-1 $225 $474 #
ellipse-curve $-1 46.309600866985363 10.982501977739997 5.1304320230716334 0.81915205242281985 0 0.57357642473473569 0.28678821236736785 0 -0.40957602621140993 1 I I #
coedge $-1 $341 $341 $-1 $475 reversed $228 $-1 #
edge $-1 $476 0 $476 6.2831853071796004 $229 $477 forward 7 unknown #
vertex $-1 $232 $478 #
ellipse-curve $-1 46.309600866985363 14.639967026109101 5.1304320230716334 0.81915205242281985 0 0.57357642473473569 0.28678821236736785 0 -0.40957602621140993 1 I I #
coedge $-1 $345 $345 $-1 $479 reversed $235 $-1 #
edge $-1 $480 0 $480 6.2831853071796004 $236 $481 forward 7 unknown #
vertex $-1 $239 $482 #
ellipse-curve $-1 46.309600866985363 18.297432074478206 5.1304320230716334 0.81915205242281985 0 0.57357642473473569 0.28678821236736785 0 -0.40957602621140993 1 I I #
face $-1 $-1 $255 $36 $-1 $483 reversed single #
loop $-1 $-1 $365 $240 #
plane-surface $-1 0 27.670674567723456 0 0 -1 0 0 0 -1 forward_v I I I I #
coedge $-1 $484 $363 $366 $485 forward $241 $-1 #
coedge $-1 $369 $243 $244 $357 reversed $152 $-1 #
coedge $-1 $363 $484 $243 $355 reversed $241 $-1 #
edge $-1 $370 -8.4713626207335011 $486 8.4713626207335011 $354 $487 forward 7 unknown #
coedge $-1 $245 $244 $484 $488 forward $97 $-1 #
edge $-1 $361 -48.6489455854976 $486 48.6489455854976 $353 $489 forward 7 unknown #
coedge $-1 $366 $365 $245 $359 reversed $350 $-1 #
edge $-1 $490 -48.6489455854976 $360 48.6489455854976 $358 $491 forward 7 unknown #
vertex $-1 $247 $492 #
vertex $-1 $372 $493 #
straight-curve $-1 48.6489455854976 0 -8.4713626207335011 0 -1 0 I I #
coedge $-1 $352 $354 $248 $364 reversed $241 $-1 #
edge $-1 $367 -27.670674567723456 $370 27.670674567723456 $363 $494 forward 7 unknown #
coedge $-1 $358 $249 $254 $373 forward $350 $-1 #
coedge $-1 $249 $358 $352 $485 reversed $350 $-1 #
vertex $-1 $250 $495 #
straight-curve $-1 0 27.670674567723456 8.4713626207335011 -1 0 0 I I #
coedge $-1 $251 $353 $253 $372 reversed $152 $-1 #
vertex $-1 $364 $496 #
straight-curve $-1 0 -27.670674567723456 8.4713626207335011 1 0 0 I I #
edge $-1 $256 -8.4713626207335011 $361 8.4713626207335011 $253 $497 forward 7 unknown #
edge $-1 $257 -8.4713626207335011 $360 8.4713626207335011 $254 $498 forward 7 unknown #
point $-1 48.6489455854976 -27.670674567723456 8.4713626207335011 #
point $-1 48.6489455854976 27.670674567723456 8.4713626207335011 #
face $-1 $-1 $499 $37 $-1 $500 reversed single #
loop $-1 $-1 $501 $259 #
plane-surface $-1 0 0 -8.4713626207335011 0 0 1 1 0 0 forward_v I I I I #
coedge $-1 $386 $396 $381 $502 forward $260 $-1 #
coedge $-1 $265 $262 $501 $503 reversed $160 $-1 #
coedge $-1 $262 $265 $379 $502 reversed $160 $-1 #
coedge $-1 $504 $505 $262 $383 forward $499 $-1 #
edge $-1 $506 -8.4713626207335011 $507 8.4713626207335011 $382 $508 forward 7 unknown #
coedge $-1 $501 $268 $263 $385 forward $377 $-1 #
edge $-1 $273 -18.103110172015299 $389 -15.103110172015299 $384 $509 forward 7 unknown #
coedge $-1 $270 $379 $264 $387 forward $260 $-1 #
edge $-1 $388 15.103110172015299 $272 18.103110172015299 $386 $510 forward 7 unknown #
vertex $-1 $387 $511 #
vertex $-1 $385 $512 #
straight-curve $-1 -31.706220344030598 -20.822699794377943 0 0 0 -1 I I #
coedge $-1 $505 $504 $267 $392 forward $499 $-1 #
edge $-1 $397 -8.4713626207335011 $394 8.4713626207335011 $391 $513 forward 7 unknown #
coedge $-1 $268 $501 $505 $514 forward $377 $-1 #
vertex $-1 $269 $515 #
straight-curve $-1 -34.706220344030598 -12.12334359052535 -8.4713626207335011 0 1 0 I I #
coedge $-1 $379 $270 $504 $516 forward $260 $-1 #
vertex $-1 $516 $517 #
straight-curve $-1 -34.706220344030598 -12.12334359052535 8.4713626207335011 0 -1 0 I I #
point $-1 -34.706220344030598 -20.822699794377943 8.4713626207335011 #
point $-1 -34.706220344030598 -20.822699794377943 -8.4713626207335011 #
plane-surface $-1 0 0 8.4713626207335011 0 0 1 1 0 0 forward_v I I I I #
coedge $-1 $412 $411 $404 $518 forward $276 $-1 #
coedge $-1 $404 $278 $280 $408 reversed $168 $-1 #
coedge $-1 $278 $403 $402 $518 reversed $168 $-1 #
coedge $-1 $286 $281 $278 $406 forward $287 $-1 #
edge $-1 $409 -14.216453629401421 $519 -4.2706603273066435 $405 $520 forward 7 unknown #
coedge $-1 $280 $279 $412 $521 reversed $105 $-1 #
edge $-1 $522 -1.7500491998158137e-014 $409 12.293676694457297 $403 $523 forward 7 unknown #
vertex $-1 $282 $524 #
straight-curve $-1 -38.703152283402822 -4.4275829093721573 8.4713626207335011 0 1 0 I I #
coedge $-1 $402 $283 $286 $416 reversed $276 $-1 #
coedge $-1 $283 $402 $407 $521 forward $276 $-1 #
vertex $-1 $284 $525 #
straight-curve $-1 -48.6489455854976 -14.69903442925534 39.980483807149703 0 0 1 I I #
straight-curve $-1 -48.648945585497586 -14.69903442925534 1.2453206709625562 -0.80901698891910034 0 -0.5877852598018023 I I #
edge $-1 $519 3.0112972082332892 $288 14.69903442925534 $411 $526 forward 7 unknown #
point $-1 -48.6489455854976 -14.69903442925534 8.4713626207335011 #
point $-1 -38.703152283402822 -14.69903442925534 8.4713626207335011 #
edge $-1 $527 1 $527 0 $291 $-1 forward 7 unknown #
vertex $-1 $292 $528 #
ellipse-curve $-1 -42.507393641069761 -11.359680937534755 3.2498256601735447 -0.5877852598018023 0 0.80901698891910034 0.40450849445955017 0 0.29389262990090115 1 I I #
point $-1 -43.27154043999068 -11.359680937534755 5.1522342757489357 #
edge $-1 $529 1 $529 0 $295 $-1 forward 7 unknown #
vertex $-1 $296 $530 #
ellipse-curve $-1 -42.507393641069761 -6.3506506999538743 3.2498256601735447 -0.5877852598018023 0 0.80901698891910034 0.40450849445955017 0 0.29389262990090115 1 I I #
point $-1 -43.27154043999068 -6.3506506999538743 5.1522342757489357 #
loop $-1 $-1 $307 $299 #
plane-surface $-1 -48.6489455854976 0 0 1 0 0 0 0 -1 forward_v I I I I #
coedge $-1 $430 $302 $304 $434 reversed $190 $-1 #
coedge $-1 $302 $429 $531 $532 reversed $190 $-1 #
coedge $-1 $310 $305 $302 $432 forward $300 $-1 #
edge $-1 $435 -14.216453629401421 $533 -4.2706603273066435 $431 $534 forward 7 unknown #
coedge $-1 $304 $303 $438 $535 reversed $119 $-1 #
edge $-1 $536 -1.7500491998158137e-014 $435 12.293676694457297 $429 $537 forward 7 unknown #
vertex $-1 $306 $538 #
straight-curve $-1 -38.703152283402822 7.6957606811531942 8.4713626207335011 0 1 0 I I #
coedge $-1 $531 $307 $310 $442 reversed $427 $-1 #
coedge $-1 $307 $531 $433 $535 forward $427 $-1 #
vertex $-1 $308 $539 #
straight-curve $-1 -48.6489455854976 9.5476527517953631 39.980483807149703 0 0 1 I I #
straight-curve $-1 -48.648945585497586 9.5476527517953631 1.2453206709625562 -0.80901698891910034 0 -0.5877852598018023 I I #
edge $-1 $533 -21.235389972817416 $311 -9.5476527517953631 $437 $540 forward 7 unknown #
point $-1 -48.6489455854976 9.5476527517953631 8.4713626207335011 #
point $-1 -38.703152283402822 9.5476527517953631 8.4713626207335011 #
edge $-1 $541 1 $541 0 $314 $-1 forward 7 unknown #
vertex $-1 $315 $542 #
ellipse-curve $-1 -42.507393641069761 12.887006243515945 3.2498256601735447 -0.5877852598018023 0 0.80901698891910034 0.40450849445955017 0 0.29389262990090115 1 I I #
point $-1 -43.27154043999068 12.887006243515945 5.1522342757489357 #
edge $-1 $543 1 $543 0 $318 $-1 forward 7 unknown #
vertex $-1 $319 $544 #
ellipse-curve $-1 -42.507393641069761 17.896036481096825 3.2498256601735447 -0.5877852598018023 0 0.80901698891910034 0.40450849445955017 0 0.29389262990090115 1 I I #
point $-1 -43.27154043999068 17.896036481096825 5.1522342757489357 #
loop $-1 $-1 $330 $322 #
plane-surface $-1 48.6489455854976 0 0 -1 0 0 0 0 1 forward_v I I I I #
coedge $-1 $456 $325 $327 $460 reversed $212 $-1 #
coedge $-1 $325 $455 $545 $546 reversed $212 $-1 #
coedge $-1 $333 $328 $325 $458 forward $323 $-1 #
edge $-1 $461 7.6987880072022961 $547 12.37747744422677 $457 $548 forward 7 unknown #
coedge $-1 $327 $326 $464 $549 reversed $133 $-1 #
edge $-1 $550 -97.2978911709952 $461 -89.140844899108686 $455 $551 forward 7 unknown #
vertex $-1 $329 $552 #
straight-curve $-1 43.970256148473133 7.3199835130545505 8.4713626207335011 0 -1 0 I I #
coedge $-1 $545 $330 $333 $468 reversed $453 $-1 #
coedge $-1 $330 $545 $459 $549 forward $453 $-1 #
vertex $-1 $331 $553 #
straight-curve $-1 48.6489455854976 20.73574210672427 68.649522613315725 0 0 1 I I #
straight-curve $-1 -7.1588309665912249 20.73574210672427 81.491268674542624 0.57357642473473569 0 -0.81915205242281985 I I #
edge $-1 $547 8.5441919454939317 $334 20.73574210672427 $463 $554 forward 7 unknown #
point $-1 48.6489455854976 20.73574210672427 8.4713626207335011 #
point $-1 43.970256148473126 20.73574210672427 8.4713626207335011 #
edge $-1 $555 1 $555 0 $337 $-1 forward 7 unknown #
vertex $-1 $338 $556 #
ellipse-curve $-1 45.490448814562548 10.982501977739997 4.5568555983369015 0.81915205242281985 0 0.57357642473473569 0.28678821236736785 0 -0.40957602621140993 1 I I #
point $-1 46.596389079352733 10.982501977739997 4.7208559968602275 #
edge $-1 $557 1 $557 0 $341 $-1 forward 7 unknown #
vertex $-1 $342 $558 #
ellipse-curve $-1 45.490448814562548 14.639967026109101 4.5568555983369015 0.81915205242281985 0 0.57357642473473569 0.28678821236736785 0 -0.40957602621140993 1 I I #
point $-1 46.596389079352733 14.639967026109101 4.7208559968602275 #
edge $-1 $559 1 $559 0 $345 $-1 forward 7 unknown #
vertex $-1 $346 $560 #
ellipse-curve $-1 45.490448814562548 18.297432074478206 4.5568555983369015 0.81915205242281985 0 0.57357642473473569 0.28678821236736785 0 -0.40957602621140993 1 I I #
point $-1 46.596389079352733 18.297432074478206 4.7208559968602275 #
plane-surface $-1 48.6489455854976 0 0 -1 0 0 0 0 1 forward_v I I I I #
coedge $-1 $354 $352 $356 $488 reversed $241 $-1 #
edge $-1 $367 -8.4713626207335011 $490 8.4713626207335011 $366 $561 forward 7 unknown #
vertex $-1 $488 $562 #
straight-curve $-1 -48.6489455854976 -27.670674567723456 0 0 0 -1 I I #
edge $-1 $486 -27.670674567723456 $490 27.670674567723456 $484 $563 forward 7 unknown #
straight-curve $-1 0 -27.670674567723456 -8.4713626207335011 -1 0 0 I I #
vertex $-1 $359 $564 #
straight-curve $-1 0 27.670674567723456 -8.4713626207335011 1 0 0 I I #
point $-1 48.6489455854976 27.670674567723456 -8.4713626207335011 #
point $-1 48.6489455854976 -27.670674567723456 -8.4713626207335011 #
straight-curve $-1 -48.6489455854976 0 8.4713626207335011 0 -1 0 I I #
point $-1 -48.6489455854976 27.670674567723456 8.4713626207335011 #
point $-1 -48.6489455854976 -27.670674567723456 8.4713626207335011 #
straight-curve $-1 48.6489455854976 -27.670674567723456 0 0 0 -1 I I #
straight-curve $-1 48.6489455854976 27.670674567723456 0 0 0 -1 I I #
loop $-1 $-1 $382 $376 #
plane-surface $-1 0 -27.670674567723456 0 0 1 0 0 0 1 forward_v I I I I #
coedge $-1 $393 $384 $380 $503 forward $377 $-1 #
edge $-1 $507 -15.547330977198106 $388 -8.6993562038525933 $379 $565 forward 7 unknown #
edge $-1 $389 8.6993562038525933 $506 15.547330977198106 $501 $566 forward 7 unknown #
coedge $-1 $391 $382 $396 $516 reversed $499 $-1 #
coedge $-1 $382 $391 $393 $514 reversed $499 $-1 #
vertex $-1 $514 $567 #
vertex $-1 $383 $568 #
straight-curve $-1 -31.706220344030598 -27.670674567723456 0 0 0 1 I I #
straight-curve $-1 -16.603110172015299 -20.822699794377943 -8.4713626207335011 1 0 0 I I #
straight-curve $-1 -16.603110172015299 -20.822699794377943 8.4713626207335011 -1 0 0 I I #
point $-1 -31.706220344030598 -20.822699794377943 8.4713626207335011 #
point $-1 -31.706220344030598 -20.822699794377943 -8.4713626207335011 #
straight-curve $-1 -34.706220344030598 -27.670674567723456 0 0 0 -1 I I #
edge $-1 $506 31.706220344030598 $394 34.706220344030598 $505 $569 forward 7 unknown #
point $-1 -34.706220344030598 -27.670674567723456 -8.4713626207335011 #
edge $-1 $397 -34.706220344030598 $507 -31.706220344030598 $504 $570 forward 7 unknown #
point $-1 -34.706220344030598 -27.670674567723456 8.4713626207335011 #
edge $-1 $519 31.509121186416202 $522 38.735163136187154 $402 $571 forward 7 unknown #
vertex $-1 $416 $572 #
straight-curve $-1 -52.919605912804244 -3.0112972082332892 8.4713626207335011 -1 0 0 I I #
edge $-1 $522 -1.4162857011388681 $413 10.271451519883183 $412 $573 forward 7 unknown #
vertex $-1 $521 $574 #
straight-curve $-1 -48.648945585497586 -3.0112972082332892 1.2453206709625562 0.80901698891910034 0 0.5877852598018023 I I #
point $-1 -38.703152283402822 -3.0112972082332892 8.4713626207335011 #
point $-1 -48.6489455854976 -14.69903442925534 1.245320670962546 #
straight-curve $-1 -48.6489455854976 0 8.4713626207335011 0 -1 0 I I #
vertex $-1 $419 $575 #
point $-1 -42.102885146610213 -11.359680937534755 3.5437182900744455 #
vertex $-1 $423 $576 #
point $-1 -42.102885146610213 -6.3506506999538743 3.5437182900744455 #
coedge $-1 $438 $437 $430 $532 forward $427 $-1 #
edge $-1 $533 31.509121186416202 $536 38.735163136187154 $531 $577 forward 7 unknown #
vertex $-1 $442 $578 #
straight-curve $-1 -52.919605912804244 21.235389972817416 8.4713626207335011 -1 0 0 I I #
edge $-1 $536 -13.539629291664221 $439 -1.8518920706421689 $438 $579 forward 7 unknown #
vertex $-1 $535 $580 #
straight-curve $-1 -48.648945585497586 21.235389972817416 1.2453206709625562 0.80901698891910034 0 0.5877852598018023 I I #
point $-1 -38.703152283402822 21.235389972817416 8.4713626207335011 #
point $-1 -48.6489455854976 9.5476527517953631 1.245320670962546 #
straight-curve $-1 -48.6489455854976 0 8.4713626207335011 0 -1 0 I I #
vertex $-1 $445 $581 #
point $-1 -42.102885146610213 12.887006243515945 3.5437182900744455 #
vertex $-1 $449 $582 #
point $-1 -42.102885146610213 17.896036481096825 3.5437182900744455 #
coedge $-1 $464 $463 $456 $546 forward $453 $-1 #
edge $-1 $547 60.178159992582223 $550 66.860021187905971 $545 $583 forward 7 unknown #
vertex $-1 $468 $584 #
straight-curve $-1 36.27146814127083 8.5441919454939317 8.4713626207335011 1 0 0 I I #
edge $-1 $550 1.2242084324393812 $465 13.41575859366972 $464 $585 forward 7 unknown #
vertex $-1 $549 $586 #
straight-curve $-1 -7.1588309665912249 8.5441919454939317 81.491268674542624 -0.57357642473473569 0 0.81915205242281985 I I #
point $-1 43.970256148473126 8.5441919454939317 8.4713626207335011 #
point $-1 48.6489455854976 20.73574210672427 1.7895014254097532 #
straight-curve $-1 48.6489455854976 0 8.4713626207335011 0 1 0 I I #
vertex $-1 $471 $587 #
point $-1 45.777237026929917 10.982501977739997 4.1472795721254911 #
vertex $-1 $475 $588 #
point $-1 45.777237026929917 14.639967026109101 4.1472795721254911 #
vertex $-1 $479 $589 #
point $-1 45.777237026929917 18.297432074478206 4.1472795721254911 #
straight-curve $-1 -48.6489455854976 27.670674567723456 0 0 0 -1 I I #
point $-1 -48.6489455854976 -27.670674567723456 -8.4713626207335011 #
straight-curve $-1 -48.6489455854976 0 -8.4713626207335011 0 1 0 I I #
point $-1 -48.6489455854976 27.670674567723456 -8.4713626207335011 #
straight-curve $-1 -31.706220344030598 -12.12334359052535 8.4713626207335011 0 1 0 I I #
straight-curve $-1 -31.706220344030598 -12.12334359052535 -8.4713626207335011 0 -1 0 I I #
point $-1 -31.706220344030598 -27.670674567723456 -8.4713626207335011 #
point $-1 -31.706220344030598 -27.670674567723456 8.4713626207335011 #
straight-curve $-1 0 -27.670674567723456 -8.4713626207335011 -1 0 0 I I #
straight-curve $-1 0 -27.670674567723456 8.4713626207335011 1 0 0 I I #
straight-curve $-1 -48.6489455854976 -3.0112972082332892 39.980483807149703 0 0 -1 I I #
point $-1 -48.6489455854976 -3.0112972082332892 8.4713626207335011 #
straight-curve $-1 -48.6489455854976 -4.4275829093721573 1.2453206709625442 0 -1 0 I I #
point $-1 -48.6489455854976 -3.0112972082332892 1.245320670962546 #
point $-1 -42.213501011168866 -11.359680937534755 2.8453171657139942 #
point $-1 -42.213501011168866 -6.3506506999538743 2.8453171657139942 #
straight-curve $-1 -48.6489455854976 21.235389972817416 39.980483807149703 0 0 -1 I I #
point $-1 -48.6489455854976 21.235389972817416 8.4713626207335011 #
straight-curve $-1 -48.6489455854976 7.6957606811531942 1.2453206709625442 0 -1 0 I I #
point $-1 -48.6489455854976 21.235389972817416 1.245320670962546 #
point $-1 -42.213501011168866 12.887006243515945 2.8453171657139942 #
point $-1 -42.213501011168866 17.896036481096825 2.8453171657139942 #
straight-curve $-1 48.6489455854976 8.5441919454939317 68.649522613315725 0 0 -1 I I #
point $-1 48.6489455854976 8.5441919454939317 8.4713626207335011 #
straight-curve $-1 48.648945585497607 7.3199835130545505 1.789501425409739 0 1 0 I I #
point $-1 48.6489455854976 8.5441919454939317 1.7895014254097532 #
point $-1 45.080872788351137 10.982501977739997 4.2700673859695337 #
point $-1 45.080872788351137 14.639967026109101 4.2700673859695337 #
point $-1 45.080872788351137 18.297432074478206 4.2700673859695337 #
End-of-ACIS-data 