500 0 7 0           
7 Unknown 11 ACIS 5.0 NT 24 Thu Mar 25 17:02:35 1999 
-1 9.9999999999999995e-007 1e-010 
body $-1 $7 $-1 $8 #
body $-1 $9 $-1 $10 #
body $-1 $11 $-1 $12 #
body $-1 $13 $-1 $14 #
body $-1 $15 $-1 $16 #
body $-1 $17 $-1 $18 #
body $-1 $19 $-1 $20 #
lump $-1 $-1 $21 $0 #
transform $-1 1 0 0 0 1 0 0 0 1 74.3809320352794 50.91031688043546 11.19026384069217 1 rotate no_reflect no_shear #
lump $-1 $-1 $22 $1 #
transform $-1 1 0 0 0 1 0 0 0 1 74.3809320352794 50.91031688043546 11.19026384069217 1 rotate no_reflect no_shear #
lump $-1 $-1 $23 $2 #
transform $-1 1 0 0 0 1 0 0 0 1 74.3809320352794 50.91031688043546 11.19026384069217 1 rotate no_reflect no_shear #
lump $-1 $-1 $24 $3 #
transform $-1 1 0 0 0 1 0 0 0 1 74.3809320352794 50.91031688043546 11.19026384069217 1 rotate no_reflect no_shear #
lump $-1 $-1 $25 $4 #
transform $-1 1 0 0 0 1 0 0 0 1 74.3809320352794 50.91031688043546 11.19026384069217 1 rotate no_reflect no_shear #
lump $-1 $-1 $26 $5 #
transform $-1 1 0 0 0 1 0 0 0 1 74.3809320352794 50.91031688043546 11.19026384069217 1 rotate no_reflect no_shear #
lump $-1 $-1 $27 $6 #
transform $-1 1 0 0 0 1 0 0 0 1 74.3809320352794 50.91031688043546 11.19026384069217 1 rotate no_reflect no_shear #
shell $-1 $-1 $-1 $28 $-1 $7 #
shell $-1 $-1 $-1 $29 $-1 $9 #
shell $-1 $-1 $-1 $30 $-1 $11 #
shell $-1 $-1 $-1 $31 $-1 $13 #
shell $-1 $-1 $-1 $32 $-1 $15 #
shell $-1 $-1 $-1 $33 $-1 $17 #
shell $-1 $-1 $-1 $34 $-1 $19 #
face $-1 $35 $36 $21 $-1 $37 forward single #
face $-1 $38 $39 $22 $-1 $40 forward single #
face $-1 $41 $42 $23 $-1 $43 reversed single #
face $-1 $44 $45 $24 $-1 $46 forward single #
face $-1 $47 $48 $25 $-1 $49 forward single #
face $-1 $50 $51 $26 $-1 $52 reversed single #
face $-1 $53 $54 $27 $-1 $55 forward single #
face $-1 $56 $57 $21 $-1 $58 reversed single #
loop $-1 $-1 $59 $28 #
plane-surface $-1 0 0 11.19026384069217 0 0 1 1 0 0 forward_v I I I I #
face $-1 $60 $61 $22 $-1 $62 reversed single #
loop $-1 $-1 $63 $29 #
plane-surface $-1 0 -50.91031688043546 0 0 1 0 0 0 1 forward_v I I I I #
face $-1 $64 $65 $23 $-1 $66 reversed single #
loop $-1 $-1 $67 $30 #
plane-surface $-1 -171.9774973150794 21.938296875646358 114.97101320688238 0 1 0 -0.6560590369687036 0 0.75470957328743171 forward_v I I I I #
face $-1 $68 $69 $24 $-1 $70 forward single #
loop $-1 $71 $72 $31 #
cone-surface $-1 -67.112258656645864 28.666089159260508 4.2014242544138138 0.6560590369687036 0 -0.75470957328743171 1.8867739332185793 0 1.640147592421759 1 I I 0 1 2.5 forward I I I I #
face $-1 $73 $74 $25 $-1 $75 forward single #
loop $-1 $76 $77 $32 #
cone-surface $-1 -67.112258656645864 38.757777584681719 4.2014242544138138 0.6560590369687036 0 -0.75470957328743171 1.8867739332185793 0 1.640147592421759 1 I I 0 1 2.5 forward I I I I #
face $-1 $78 $79 $26 $-1 $80 reversed single #
loop $-1 $-1 $81 $33 #
plane-surface $-1 89.05637457963563 -20.912494262793544 213.48591151051917 0 -1 0 -0.75470958851134928 0 -0.65605901945558964 forward_v I I I I #
face $-1 $82 $83 $27 $-1 $84 forward single #
loop $-1 $85 $86 $34 #
cone-surface $-1 69.619609475975196 -30.208530606769379 6.1261234326514202 -0.75470958851134928 0 -0.65605901945558964 1.3121180389111793 0 -1.5094191770226986 1 I I 0 1 2 forward I I I I #
face $-1 $87 $88 $21 $-1 $89 reversed single #
loop $-1 $-1 $90 $35 #
plane-surface $-1 0 0 -11.19026384069217 0 0 1 1 0 0 forward_v I I I I #
coedge $-1 $91 $92 $93 $94 forward $36 $-1 #
face $-1 $95 $96 $22 $-1 $97 forward single #
loop $-1 $-1 $98 $38 #
plane-surface $-1 -74.3809320352794 0 0 1 0 0 0 0 -1 forward_v I I I I #
coedge $-1 $99 $100 $101 $102 forward $39 $-1 #
face $-1 $103 $104 $23 $-1 $105 reversed single #
loop $-1 $-1 $106 $41 #
plane-surface $-1 -74.380932035279415 33.711933371971114 2.6990102527480246 -0.6560590369687036 0 0.75470957328743171 0.75470957328743171 0 0.6560590369687036 forward_v I I I I #
coedge $-1 $107 $108 $109 $110 reversed $42 $-1 #
face $-1 $-1 $111 $24 $-1 $112 forward single #
loop $-1 $113 $114 $44 #
cone-surface $-1 -63.907546310162793 28.666089159260508 0.51482449549824949 0.6560590369687036 0 -0.75470957328743171 0.94338696660928967 0 0.8200737962108795 1 I I -0.70710678118654746 0.70710678118654746 1.25 forward I I I I #
loop $-1 $-1 $115 $31 #
coedge $-1 $72 $72 $116 $117 reversed $45 $-1 #
face $-1 $-1 $118 $25 $-1 $119 forward single #
loop $-1 $120 $121 $47 #
cone-surface $-1 -63.907546310162793 38.757777584681719 0.51482449549824949 0.6560590369687036 0 -0.75470957328743171 0.94338696660928967 0 0.8200737962108795 1 I I -0.70710678118654746 0.70710678118654746 1.25 forward I I I I #
loop $-1 $-1 $122 $32 #
coedge $-1 $77 $77 $123 $124 reversed $48 $-1 #
face $-1 $125 $126 $26 $-1 $127 reversed single #
loop $-1 $-1 $128 $50 #
plane-surface $-1 -23.215630639237077 -30.208530606769379 115.88934883600265 0.75470958851134928 0 0.65605901945558964 0.65605901945558964 0 -0.75470958851134928 forward_v I I I I #
coedge $-1 $129 $130 $131 $132 reversed $51 $-1 #
face $-1 $-1 $133 $27 $-1 $134 forward single #
loop $-1 $135 $136 $53 #
cone-surface $-1 67.395096802614361 -30.208530606769379 4.1923841169362088 -0.75470958851134928 0 -0.65605901945558964 0.65605901945558964 0 -0.75470958851134928 1 I I -0.70710678118654746 0.70710678118654746 1 forward I I I I #
loop $-1 $-1 $137 $34 #
coedge $-1 $86 $86 $138 $139 reversed $54 $-1 #
face $-1 $140 $141 $21 $-1 $142 reversed single #
loop $-1 $-1 $143 $56 #
plane-surface $-1 0 -50.91031688043546 0 0 1 0 0 0 1 forward_v I I I I #
coedge $-1 $144 $145 $146 $147 forward $57 $-1 #
coedge $-1 $148 $59 $149 $150 forward $36 $-1 #
coedge $-1 $59 $148 $151 $152 forward $36 $-1 #
coedge $-1 $153 $154 $59 $94 reversed $155 $-1 #
edge $-1 $156 -50.91031688043546 $157 50.91031688043546 $93 $158 forward 7 unknown #
face $-1 $159 $160 $22 $-1 $161 reversed single #
loop $-1 $-1 $162 $60 #
plane-surface $-1 0 -56.613191845280582 9.3360109734442869 0 0 1 1 0 0 forward_v I I I I #
coedge $-1 $163 $164 $100 $165 forward $61 $-1 #
coedge $-1 $166 $63 $167 $168 reversed $39 $-1 #
coedge $-1 $63 $166 $98 $165 reversed $39 $-1 #
coedge $-1 $169 $162 $63 $102 reversed $96 $-1 #
edge $-1 $170 -74.3809320352794 $171 74.3809320352794 $101 $172 forward 7 unknown #
face $-1 $173 $174 $23 $-1 $175 forward single #
loop $-1 $-1 $176 $64 #
plane-surface $-1 -171.9774973150794 45.485569868295869 114.97101320688238 0 -1 0 0.6560590369687036 0 -0.75470957328743171 forward_v I I I I #
coedge $-1 $177 $178 $179 $180 reversed $65 $-1 #
coedge $-1 $108 $67 $181 $182 reversed $42 $-1 #
coedge $-1 $67 $107 $177 $183 reversed $42 $-1 #
coedge $-1 $179 $184 $67 $110 forward $174 $-1 #
edge $-1 $185 11.607816622260302 $186 21.375886278982975 $109 $187 forward 7 unknown #
loop $-1 $-1 $116 $68 #
plane-surface $-1 -74.380932035279415 33.711933371971114 2.6990102527480246 -0.6560590369687036 0 0.75470957328743171 0.75470957328743171 0 0.6560590369687036 forward_v I I I I #
loop $-1 $-1 $188 $44 #
coedge $-1 $114 $114 $115 $189 reversed $69 $-1 #
coedge $-1 $115 $115 $114 $189 forward $71 $-1 #
coedge $-1 $116 $116 $72 $117 forward $111 $-1 #
edge $-1 $190 0 $190 6.2831853071796004 $116 $191 forward 7 unknown #
loop $-1 $-1 $123 $73 #
plane-surface $-1 -74.380932035279415 33.711933371971114 2.6990102527480246 -0.6560590369687036 0 0.75470957328743171 0.75470957328743171 0 0.6560590369687036 forward_v I I I I #
loop $-1 $-1 $192 $47 #
coedge $-1 $121 $121 $122 $193 reversed $74 $-1 #
coedge $-1 $122 $122 $121 $193 forward $76 $-1 #
coedge $-1 $123 $123 $77 $124 forward $118 $-1 #
edge $-1 $194 0 $194 6.2831853071796004 $123 $195 forward 7 unknown #
face $-1 $196 $197 $26 $-1 $198 reversed single #
loop $-1 $-1 $199 $78 #
plane-surface $-1 89.05637457963563 -39.504566950745215 213.48591151051917 0 1 0 0.75470958851134928 0 0.65605901945558964 forward_v I I I I #
coedge $-1 $200 $201 $202 $203 reversed $79 $-1 #
coedge $-1 $130 $81 $204 $205 reversed $51 $-1 #
coedge $-1 $81 $129 $200 $206 reversed $51 $-1 #
coedge $-1 $202 $207 $81 $132 forward $208 $-1 #
edge $-1 $209 -29.852744745461585 $210 -23.269705796552167 $131 $211 forward 7 unknown #
loop $-1 $-1 $138 $82 #
plane-surface $-1 -23.215630639237077 -30.208530606769379 115.88934883600265 0.75470958851134928 0 0.65605901945558964 0.65605901945558964 0 -0.75470958851134928 forward_v I I I I #
loop $-1 $-1 $212 $53 #
coedge $-1 $136 $136 $137 $213 reversed $83 $-1 #
coedge $-1 $137 $137 $136 $213 forward $85 $-1 #
coedge $-1 $138 $138 $86 $139 forward $133 $-1 #
edge $-1 $214 0 $214 6.2831853071796004 $138 $215 forward 7 unknown #
face $-1 $216 $217 $21 $-1 $218 reversed single #
loop $-1 $-1 $219 $87 #
plane-surface $-1 -74.3809320352794 0 0 1 0 0 0 0 -1 forward_v I I I I #
coedge $-1 $220 $151 $221 $222 forward $88 $-1 #
coedge $-1 $223 $90 $220 $224 forward $57 $-1 #
coedge $-1 $90 $223 $225 $226 forward $57 $-1 #
coedge $-1 $154 $153 $90 $147 reversed $155 $-1 #
edge $-1 $227 -50.91031688043546 $228 50.91031688043546 $146 $229 forward 7 unknown #
coedge $-1 $92 $91 $230 $231 forward $36 $-1 #
coedge $-1 $232 $233 $91 $150 reversed $217 $-1 #
edge $-1 $157 -74.3809320352794 $234 74.3809320352794 $149 $235 forward 7 unknown #
coedge $-1 $143 $236 $92 $152 reversed $88 $-1 #
edge $-1 $237 -74.3809320352794 $156 74.3809320352794 $151 $238 forward 7 unknown #
coedge $-1 $146 $93 $236 $239 forward $155 $-1 #
coedge $-1 $93 $146 $232 $240 reversed $155 $-1 #
loop $-1 $-1 $153 $216 #
vertex $-1 $94 $241 #
vertex $-1 $94 $242 #
straight-curve $-1 74.3809320352794 0 11.19026384069217 0 1 0 I I #
face $-1 $243 $244 $22 $-1 $245 reversed single #
loop $-1 $-1 $246 $95 #
plane-surface $-1 0 -56.613191845280582 4.6692744585647272 0 0 1 1 0 0 forward_v I I I I #
coedge $-1 $101 $247 $248 $249 forward $96 $-1 #
coedge $-1 $250 $98 $251 $252 reversed $61 $-1 #
coedge $-1 $98 $250 $169 $253 reversed $61 $-1 #
edge $-1 $170 -9.3360109734442869 $254 -4.6692744585647272 $98 $255 forward 7 unknown #
coedge $-1 $100 $99 $256 $257 forward $39 $-1 #
coedge $-1 $248 $258 $99 $168 forward $259 $-1 #
edge $-1 $260 4.6692744585647272 $171 9.3360109734442869 $167 $261 forward 7 unknown #
coedge $-1 $247 $101 $164 $253 forward $96 $-1 #
vertex $-1 $165 $262 #
vertex $-1 $249 $263 #
straight-curve $-1 0 -50.91031688043546 9.3360109734442869 1 0 0 I I #
face $-1 $-1 $264 $23 $-1 $265 reversed single #
loop $-1 $-1 $109 $103 #
plane-surface $-1 0 0 11.19026384069217 0 0 1 1 0 0 forward_v I I I I #
coedge $-1 $266 $267 $268 $269 reversed $104 $-1 #
coedge $-1 $270 $106 $108 $183 forward $65 $-1 #
coedge $-1 $106 $270 $266 $271 forward $65 $-1 #
coedge $-1 $268 $109 $106 $180 forward $174 $-1 #
edge $-1 $186 5.0823301896608015 $272 28.629603182310312 $179 $273 forward 7 unknown #
coedge $-1 $274 $275 $107 $182 forward $264 $-1 #
edge $-1 $276 -54.786496350693149 $185 -46.29524276274902 $181 $277 forward 7 unknown #
edge $-1 $186 -12.942819334030773 $276 -1.888283279974768e-014 $108 $278 forward 7 unknown #
coedge $-1 $109 $268 $274 $279 forward $174 $-1 #
vertex $-1 $182 $280 #
vertex $-1 $110 $281 #
straight-curve $-1 -85.988748657539702 21.938296875646358 11.190263840692168 1 0 0 I I #
coedge $-1 $188 $188 $-1 $282 reversed $113 $-1 #
edge $-1 $283 0 $283 6.2831853071796004 $114 $284 forward 7 unknown #
vertex $-1 $117 $285 #
ellipse-curve $-1 -69.496897206918064 28.666089159260508 6.9446370467201035 -0.6560590369687036 0 0.75470957328743171 1.8867739332185793 0 1.640147592421759 1 I I #
coedge $-1 $192 $192 $-1 $286 reversed $120 $-1 #
edge $-1 $287 0 $287 6.2831853071796004 $121 $288 forward 7 unknown #
vertex $-1 $124 $289 #
ellipse-curve $-1 -69.496897206918064 38.757777584681719 6.9446370467201035 -0.6560590369687036 0 0.75470957328743171 1.8867739332185793 0 1.640147592421759 1 I I #
face $-1 $-1 $208 $26 $-1 $290 forward single #
loop $-1 $-1 $291 $125 #
plane-surface $-1 74.3809320352794 0 0 -1 0 0 0 0 1 forward_v I I I I #
coedge $-1 $292 $293 $294 $295 reversed $126 $-1 #
coedge $-1 $296 $128 $130 $206 forward $79 $-1 #
coedge $-1 $128 $296 $292 $297 forward $79 $-1 #
coedge $-1 $294 $131 $128 $203 forward $208 $-1 #
edge $-1 $210 5.8082289594088543 $298 24.400301647360525 $202 $299 forward 7 unknown #
coedge $-1 $300 $301 $129 $205 forward $197 $-1 #
edge $-1 $302 -103.1256121381296 $209 -95.552691914567419 $204 $303 forward 7 unknown #
edge $-1 $210 138.72764648694542 $302 148.76186407055877 $130 $304 forward 7 unknown #
coedge $-1 $131 $294 $300 $305 forward $208 $-1 #
loop $-1 $-1 $294 $196 #
vertex $-1 $205 $306 #
vertex $-1 $132 $307 #
straight-curve $-1 44.528187289817815 -20.912494262793544 11.190263840692168 -1 0 0 I I #
coedge $-1 $212 $212 $-1 $308 reversed $135 $-1 #
edge $-1 $309 0 $309 6.2831853071796004 $136 $310 forward 7 unknown #
vertex $-1 $139 $311 #
ellipse-curve $-1 71.089412560824712 -30.208530606769379 7.4038037289110612 0.75470958851134928 0 0.65605901945558964 1.3121180389111793 0 -1.5094191770226986 1 I I #
face $-1 $-1 $155 $21 $-1 $312 reversed single #
loop $-1 $-1 $232 $140 #
plane-surface $-1 0 50.91031688043546 0 0 -1 0 0 0 -1 forward_v I I I I #
coedge $-1 $313 $230 $233 $314 forward $141 $-1 #
coedge $-1 $236 $143 $144 $224 reversed $88 $-1 #
coedge $-1 $230 $313 $143 $222 reversed $141 $-1 #
edge $-1 $237 -11.19026384069217 $315 11.19026384069217 $221 $316 forward 7 unknown #
coedge $-1 $145 $144 $313 $317 forward $57 $-1 #
edge $-1 $228 -74.3809320352794 $315 74.3809320352794 $220 $318 forward 7 unknown #
coedge $-1 $233 $232 $145 $226 reversed $217 $-1 #
edge $-1 $319 -74.3809320352794 $227 74.3809320352794 $225 $320 forward 7 unknown #
vertex $-1 $147 $321 #
vertex $-1 $239 $322 #
straight-curve $-1 74.3809320352794 0 -11.19026384069217 0 -1 0 I I #
coedge $-1 $219 $221 $148 $231 reversed $141 $-1 #
edge $-1 $234 -50.91031688043546 $237 50.91031688043546 $230 $323 forward 7 unknown #
coedge $-1 $225 $149 $154 $240 forward $217 $-1 #
coedge $-1 $149 $225 $219 $314 reversed $217 $-1 #
vertex $-1 $150 $324 #
straight-curve $-1 0 50.91031688043546 11.19026384069217 -1 0 0 I I #
coedge $-1 $151 $220 $153 $239 reversed $88 $-1 #
vertex $-1 $231 $325 #
straight-curve $-1 0 -50.91031688043546 11.19026384069217 1 0 0 I I #
edge $-1 $156 -11.19026384069217 $228 11.19026384069217 $153 $326 forward 7 unknown #
edge $-1 $157 -11.19026384069217 $227 11.19026384069217 $154 $327 forward 7 unknown #
point $-1 74.3809320352794 -50.91031688043546 11.19026384069217 #
point $-1 74.3809320352794 50.91031688043546 11.19026384069217 #
face $-1 $-1 $259 $22 $-1 $328 reversed single #
loop $-1 $-1 $329 $159 #
plane-surface $-1 0 -62.316066810125704 7.0026427160045071 0 1 0 0 0 1 forward_v I I I I #
coedge $-1 $330 $256 $258 $331 forward $160 $-1 #
coedge $-1 $162 $169 $332 $333 forward $96 $-1 #
coedge $-1 $334 $167 $162 $249 reversed $259 $-1 #
edge $-1 $335 -5.7028749648451225 $171 5.7028749648451225 $248 $336 forward 7 unknown #
coedge $-1 $164 $163 $329 $337 reversed $61 $-1 #
coedge $-1 $256 $330 $163 $252 forward $160 $-1 #
edge $-1 $338 -5.7028749648451225 $254 5.7028749648451225 $163 $339 forward 7 unknown #
edge $-1 $170 -5.7028749648451225 $340 5.7028749648451225 $164 $341 forward 7 unknown #
vertex $-1 $165 $342 #
straight-curve $-1 -74.3809320352794 -50.91031688043546 0 0 0 -1 I I #
coedge $-1 $246 $251 $166 $257 reversed $160 $-1 #
edge $-1 $260 -74.3809320352794 $254 74.3809320352794 $256 $343 forward 7 unknown #
coedge $-1 $167 $334 $246 $331 reversed $259 $-1 #
loop $-1 $-1 $167 $243 #
vertex $-1 $168 $344 #
straight-curve $-1 74.3809320352794 -50.91031688043546 0 0 0 1 I I #
point $-1 -74.3809320352794 -50.91031688043546 9.3360109734442869 #
point $-1 74.3809320352794 -50.91031688043546 9.3360109734442869 #
loop $-1 $-1 $181 $173 #
plane-surface $-1 -74.3809320352794 0 0 1 0 0 0 0 -1 forward_v I I I I #
coedge $-1 $267 $176 $178 $271 reversed $104 $-1 #
coedge $-1 $176 $266 $345 $346 reversed $104 $-1 #
coedge $-1 $184 $179 $176 $269 forward $174 $-1 #
edge $-1 $272 -21.375886278982975 $347 -11.607816622260302 $268 $348 forward 7 unknown #
coedge $-1 $178 $177 $275 $349 reversed $65 $-1 #
edge $-1 $350 1.888283279974768e-014 $272 12.942819334030773 $266 $351 forward 7 unknown #
vertex $-1 $180 $352 #
straight-curve $-1 -64.612862378556727 16.855966685985557 11.19026384069217 0 1 0 I I #
coedge $-1 $345 $181 $184 $279 reversed $264 $-1 #
coedge $-1 $181 $345 $270 $349 forward $264 $-1 #
vertex $-1 $182 $353 #
straight-curve $-1 -74.3809320352794 21.938296875646358 57.485506603441188 0 0 1 I I #
straight-curve $-1 -74.380932035279415 21.938296875646358 2.6990102527480246 -0.75470957328743171 0 -0.6560590369687036 I I #
edge $-1 $347 -45.485569868295869 $185 -21.938296875646358 $274 $354 forward 7 unknown #
point $-1 -74.3809320352794 21.938296875646358 11.19026384069217 #
point $-1 -64.612862378556727 21.938296875646358 11.19026384069217 #
edge $-1 $355 1 $355 0 $188 $-1 forward 7 unknown #
vertex $-1 $189 $356 #
ellipse-curve $-1 -64.727620106373678 28.666089159260508 1.4582114621075393 -0.6560590369687036 0 0.75470957328743171 1.8867739332185793 0 1.640147592421759 1 I I #
point $-1 -67.610123273699472 28.666089159260508 8.5847846391418479 #
edge $-1 $357 1 $357 0 $192 $-1 forward 7 unknown #
vertex $-1 $193 $358 #
ellipse-curve $-1 -64.727620106373678 38.757777584681719 1.4582114621075393 -0.6560590369687036 0 0.75470957328743171 1.8867739332185793 0 1.640147592421759 1 I I #
point $-1 -67.610123273699472 38.757777584681719 8.5847846391418479 #
plane-surface $-1 0 0 11.19026384069217 0 0 1 1 0 0 forward_v I I I I #
coedge $-1 $301 $300 $293 $359 forward $197 $-1 #
coedge $-1 $293 $199 $201 $297 reversed $126 $-1 #
coedge $-1 $199 $292 $291 $359 reversed $126 $-1 #
coedge $-1 $207 $202 $199 $295 forward $208 $-1 #
edge $-1 $298 23.269705796552167 $360 29.852744745461585 $294 $361 forward 7 unknown #
coedge $-1 $201 $200 $301 $362 reversed $79 $-1 #
edge $-1 $363 -148.76186407055877 $298 -138.72764648694542 $292 $364 forward 7 unknown #
vertex $-1 $203 $365 #
straight-curve $-1 67.797893086369982 -15.10426530338469 11.190263840692168 0 -1 0 I I #
coedge $-1 $291 $204 $207 $305 reversed $197 $-1 #
coedge $-1 $204 $291 $296 $362 forward $197 $-1 #
vertex $-1 $205 $366 #
straight-curve $-1 74.3809320352794 -20.912494262793544 106.74295575525959 0 0 1 I I #
straight-curve $-1 -23.215630639237077 -20.912494262793544 115.88934883600265 0.65605901945558964 0 -0.75470958851134928 I I #
edge $-1 $360 -39.504566950745215 $209 -20.912494262793544 $300 $367 forward 7 unknown #
point $-1 74.3809320352794 -20.912494262793544 11.19026384069217 #
point $-1 67.797893086369982 -20.912494262793544 11.190263840692182 #
edge $-1 $368 1 $368 0 $212 $-1 forward 7 unknown #
vertex $-1 $213 $369 #
ellipse-curve $-1 68.149806391125708 -30.208530606769379 4.8484431363917988 0.75470958851134928 0 0.65605901945558964 1.3121180389111793 0 -1.5094191770226986 1 I I #
point $-1 72.401530599735878 -30.208530606769379 5.8943845518883435 #
plane-surface $-1 74.3809320352794 0 0 -1 0 0 0 0 1 forward_v I I I I #
coedge $-1 $221 $219 $223 $317 reversed $141 $-1 #
edge $-1 $234 -11.19026384069217 $319 11.19026384069217 $233 $370 forward 7 unknown #
vertex $-1 $317 $371 #
straight-curve $-1 -74.3809320352794 -50.91031688043546 0 0 0 -1 I I #
edge $-1 $315 -50.91031688043546 $319 50.91031688043546 $313 $372 forward 7 unknown #
straight-curve $-1 0 -50.91031688043546 -11.19026384069217 -1 0 0 I I #
vertex $-1 $226 $373 #
straight-curve $-1 0 50.91031688043546 -11.19026384069217 1 0 0 I I #
point $-1 74.3809320352794 50.91031688043546 -11.19026384069217 #
point $-1 74.3809320352794 -50.91031688043546 -11.19026384069217 #
straight-curve $-1 -74.3809320352794 0 11.19026384069217 0 -1 0 I I #
point $-1 -74.3809320352794 50.91031688043546 11.19026384069217 #
point $-1 -74.3809320352794 -50.91031688043546 11.19026384069217 #
straight-curve $-1 74.3809320352794 -50.91031688043546 0 0 0 -1 I I #
straight-curve $-1 74.3809320352794 50.91031688043546 0 0 0 -1 I I #
plane-surface $-1 74.3809320352794 0 0 -1 0 0 0 0 1 forward_v I I I I #
coedge $-1 $374 $332 $250 $337 forward $244 $-1 #
coedge $-1 $251 $246 $374 $375 forward $160 $-1 #
edge $-1 $260 -5.7028749648451225 $376 5.7028749648451225 $258 $377 forward 7 unknown #
coedge $-1 $329 $378 $247 $333 reversed $244 $-1 #
edge $-1 $340 -74.3809320352794 $335 74.3809320352794 $332 $379 forward 7 unknown #
coedge $-1 $258 $248 $378 $380 forward $259 $-1 #
vertex $-1 $249 $381 #
straight-curve $-1 74.3809320352794 -56.613191845280582 9.3360109734442869 0 1 0 I I #
edge $-1 $340 -2.3333682574397798 $338 2.3333682574397798 $250 $382 forward 7 unknown #
vertex $-1 $252 $383 #
straight-curve $-1 -74.3809320352794 -56.613191845280582 4.6692744585647272 0 1 0 I I #
vertex $-1 $253 $384 #
straight-curve $-1 -74.3809320352794 -56.613191845280582 9.3360109734442869 0 -1 0 I I #
point $-1 -74.3809320352794 -50.91031688043546 4.6692744585647272 #
straight-curve $-1 0 -50.91031688043546 4.6692744585647272 -1 0 0 I I #
point $-1 74.3809320352794 -50.91031688043546 4.6692744585647272 #
coedge $-1 $275 $274 $267 $346 forward $264 $-1 #
edge $-1 $347 46.29524276274902 $350 54.786496350693149 $345 $385 forward 7 unknown #
vertex $-1 $279 $386 #
straight-curve $-1 -85.988748657539702 45.485569868295869 11.190263840692168 -1 0 0 I I #
edge $-1 $350 -28.629603182310312 $276 -5.0823301896608015 $275 $387 forward 7 unknown #
vertex $-1 $349 $388 #
straight-curve $-1 -74.380932035279415 45.485569868295869 2.6990102527480246 0.75470957328743171 0 0.6560590369687036 I I #
point $-1 -64.612862378556727 45.485569868295869 11.19026384069217 #
point $-1 -74.3809320352794 21.938296875646358 2.6990102527480371 #
straight-curve $-1 -74.3809320352794 0 11.19026384069217 0 -1 0 I I #
vertex $-1 $282 $389 #
point $-1 -62.840846173155093 28.666089159260508 3.0983590545292983 #
vertex $-1 $286 $390 #
point $-1 -62.840846173155093 38.757777584681719 3.0983590545292983 #
edge $-1 $360 95.552691914567419 $363 103.1256121381296 $291 $391 forward 7 unknown #
vertex $-1 $305 $392 #
straight-curve $-1 44.528187289817815 -39.504566950745215 11.190263840692168 1 0 0 I I #
edge $-1 $363 -24.400301647360525 $302 -5.8082289594088543 $301 $393 forward 7 unknown #
vertex $-1 $362 $394 #
straight-curve $-1 -23.215630639237077 -39.504566950745215 115.88934883600265 -0.65605901945558964 0 0.75470958851134928 I I #
point $-1 67.797893086369982 -39.504566950745215 11.190263840692182 #
point $-1 74.3809320352794 -20.912494262793544 3.6173436171299898 #
straight-curve $-1 74.3809320352794 0 11.19026384069217 0 1 0 I I #
vertex $-1 $308 $395 #
point $-1 69.461924430036888 -30.208530606769379 3.3390239593690998 #
straight-curve $-1 -74.3809320352794 50.91031688043546 0 0 0 -1 I I #
point $-1 -74.3809320352794 -50.91031688043546 -11.19026384069217 #
straight-curve $-1 -74.3809320352794 0 -11.19026384069217 0 1 0 I I #
point $-1 -74.3809320352794 50.91031688043546 -11.19026384069217 #
coedge $-1 $378 $329 $330 $375 reversed $244 $-1 #
edge $-1 $376 -74.3809320352794 $338 74.3809320352794 $374 $396 forward 7 unknown #
vertex $-1 $380 $397 #
straight-curve $-1 74.3809320352794 -56.613191845280582 4.6692744585647272 0 -1 0 I I #
coedge $-1 $332 $374 $334 $380 reversed $244 $-1 #
straight-curve $-1 0 -62.316066810125704 9.3360109734442869 1 0 0 I I #
edge $-1 $335 -2.3333682574397798 $376 2.3333682574397798 $334 $398 forward 7 unknown #
point $-1 74.3809320352794 -62.316066810125704 9.3360109734442869 #
straight-curve $-1 -74.3809320352794 -62.316066810125704 7.0026427160045071 0 0 -1 I I #
point $-1 -74.3809320352794 -62.316066810125704 4.6692744585647272 #
point $-1 -74.3809320352794 -62.316066810125704 9.3360109734442869 #
straight-curve $-1 -74.3809320352794 45.485569868295869 57.485506603441188 0 0 -1 I I #
point $-1 -74.3809320352794 45.485569868295869 11.19026384069217 #
straight-curve $-1 -74.3809320352794 16.855966685985557 2.6990102527480375 0 -1 0 I I #
point $-1 -74.3809320352794 45.485569868295869 2.6990102527480371 #
point $-1 -63.087472513951916 28.666089159260508 -0.42856247111104018 #
point $-1 -63.087472513951916 38.757777584681719 -0.42856247111104018 #
straight-curve $-1 74.3809320352794 -39.504566950745215 106.74295575525959 0 0 -1 I I #
point $-1 74.3809320352794 -39.504566950745215 11.19026384069217 #
straight-curve $-1 74.380932035279415 -15.10426530338469 3.6173436171299969 0 1 0 I I #
point $-1 74.3809320352794 -39.504566950745215 3.6173436171299898 #
point $-1 66.640387214103015 -30.208530606769379 3.5363250974806193 #
straight-curve $-1 0 -62.316066810125704 4.6692744585647272 -1 0 0 I I #
point $-1 74.3809320352794 -62.316066810125704 4.6692744585647272 #
straight-curve $-1 74.3809320352794 -62.316066810125704 7.0026427160045071 0 0 -1 I I #
End-of-ACIS-data 