500 0 10 0           
7 Unknown 11 ACIS 5.0 NT 24 Fri Mar 26 18:06:46 1999 
-1 9.9999999999999995e-007 1e-010 
body $-1 $10 $-1 $11 #
body $-1 $12 $-1 $13 #
body $-1 $14 $-1 $15 #
body $-1 $16 $-1 $17 #
body $-1 $18 $-1 $19 #
body $-1 $20 $-1 $21 #
body $-1 $22 $-1 $23 #
body $-1 $24 $-1 $25 #
body $-1 $26 $-1 $27 #
body $-1 $28 $-1 $29 #
lump $-1 $-1 $30 $0 #
transform $-1 1 0 0 0 1 0 0 0 1 72.425305948057499 38.674498909419427 7.843958398761548 1 rotate no_reflect no_shear #
lump $-1 $-1 $31 $1 #
transform $-1 1 0 0 0 1 0 0 0 1 72.425305948057499 38.674498909419427 7.843958398761548 1 rotate no_reflect no_shear #
lump $-1 $-1 $32 $2 #
transform $-1 1 0 0 0 1 0 0 0 1 72.425305948057499 38.674498909419427 7.843958398761548 1 rotate no_reflect no_shear #
lump $-1 $-1 $33 $3 #
transform $-1 1 0 0 0 1 0 0 0 1 72.425305948057499 38.674498909419427 7.843958398761548 1 rotate no_reflect no_shear #
lump $-1 $-1 $34 $4 #
transform $-1 1 0 0 0 1 0 0 0 1 72.425305948057499 38.674498909419427 7.843958398761548 1 rotate no_reflect no_shear #
lump $-1 $-1 $35 $5 #
transform $-1 1 0 0 0 1 0 0 0 1 72.425305948057499 38.674498909419427 7.843958398761548 1 rotate no_reflect no_shear #
lump $-1 $-1 $36 $6 #
transform $-1 1 0 0 0 1 0 0 0 1 72.425305948057499 38.674498909419427 7.843958398761548 1 rotate no_reflect no_shear #
lump $-1 $-1 $37 $7 #
transform $-1 1 0 0 0 1 0 0 0 1 72.425305948057499 38.674498909419427 7.843958398761548 1 rotate no_reflect no_shear #
lump $-1 $-1 $38 $8 #
transform $-1 1 0 0 0 1 0 0 0 1 72.425305948057499 38.674498909419427 7.843958398761548 1 rotate no_reflect no_shear #
lump $-1 $-1 $39 $9 #
transform $-1 1 0 0 0 1 0 0 0 1 72.425305948057499 38.674498909419427 7.843958398761548 1 rotate no_reflect no_shear #
shell $-1 $-1 $-1 $40 $-1 $10 #
shell $-1 $-1 $-1 $41 $-1 $12 #
shell $-1 $-1 $-1 $42 $-1 $14 #
shell $-1 $-1 $-1 $43 $-1 $16 #
shell $-1 $-1 $-1 $44 $-1 $18 #
shell $-1 $-1 $-1 $45 $-1 $20 #
shell $-1 $-1 $-1 $46 $-1 $22 #
shell $-1 $-1 $-1 $47 $-1 $24 #
shell $-1 $-1 $-1 $48 $-1 $26 #
shell $-1 $-1 $-1 $49 $-1 $28 #
face $-1 $50 $51 $30 $-1 $52 reversed single #
face $-1 $53 $54 $31 $-1 $55 forward single #
face $-1 $56 $57 $32 $-1 $58 reversed single #
face $-1 $59 $60 $33 $-1 $61 forward single #
face $-1 $62 $63 $34 $-1 $64 forward single #
face $-1 $65 $66 $35 $-1 $67 forward single #
face $-1 $68 $69 $36 $-1 $70 reversed single #
face $-1 $71 $72 $37 $-1 $73 forward single #
face $-1 $74 $75 $38 $-1 $76 forward single #
face $-1 $77 $78 $39 $-1 $79 forward single #
face $-1 $80 $81 $30 $-1 $82 forward single #
loop $-1 $-1 $83 $40 #
plane-surface $-1 0 -38.674498909419427 0 0 1 0 0 0 1 forward_v I I I I #
face $-1 $84 $85 $31 $-1 $86 reversed single #
loop $-1 $-1 $87 $41 #
plane-surface $-1 0 -38.674498909419427 0 0 1 0 0 0 1 forward_v I I I I #
face $-1 $88 $89 $32 $-1 $90 reversed single #
loop $-1 $-1 $91 $42 #
plane-surface $-1 -188.10814945161638 -8.3696791450753629 91.573592168505854 0 1 0 -0.79863551827123203 0 0.60181501223851219 forward_v I I I I #
face $-1 $92 $93 $33 $-1 $94 forward single #
loop $-1 $95 $96 $43 #
cone-surface $-1 -69.933219959564681 -5.6674347697391667 5.2219417731263693 0.79863551827123203 0 -0.60181501223851219 0.60181501223851219 0 0.79863551827123203 1 I I 0 1 1 forward I I I I #
face $-1 $97 $98 $34 $-1 $99 forward single #
loop $-1 $100 $101 $44 #
cone-surface $-1 -69.933219959564681 -1.6140682067348777 5.2219417731263693 0.79863551827123203 0 -0.60181501223851219 0.60181501223851219 0 0.79863551827123203 1 I I 0 1 1 forward I I I I #
face $-1 $102 $103 $35 $-1 $104 forward single #
loop $-1 $105 $106 $45 #
cone-surface $-1 -69.933219959564681 2.4392983562694113 5.2219417731263693 0.79863551827123203 0 -0.60181501223851219 0.60181501223851219 0 0.79863551827123203 1 I I 0 1 1 forward I I I I #
face $-1 $107 $108 $36 $-1 $109 reversed single #
loop $-1 $-1 $110 $46 #
plane-surface $-1 -188.10814945161638 25.163277032738467 91.573592168505854 0 1 0 -0.79863551827123203 0 0.60181501223851219 forward_v I I I I #
face $-1 $111 $112 $37 $-1 $113 forward single #
loop $-1 $114 $115 $47 #
cone-surface $-1 -69.933219959564681 27.86552140807467 5.2219417731263693 0.79863551827123203 0 -0.60181501223851219 0.60181501223851219 0 0.79863551827123203 1 I I 0 1 1 forward I I I I #
face $-1 $116 $117 $38 $-1 $118 forward single #
loop $-1 $119 $120 $48 #
cone-surface $-1 -69.933219959564681 31.918887971078959 5.2219417731263693 0.79863551827123203 0 -0.60181501223851219 0.60181501223851219 0 0.79863551827123203 1 I I 0 1 1 forward I I I I #
face $-1 $121 $122 $39 $-1 $123 forward single #
loop $-1 $124 $125 $49 #
cone-surface $-1 -69.933219959564681 35.972254534083248 5.2219417731263693 0.79863551827123203 0 -0.60181501223851219 0.60181501223851219 0 0.79863551827123203 1 I I 0 1 1 forward I I I I #
face $-1 $126 $127 $30 $-1 $128 reversed single #
loop $-1 $-1 $129 $50 #
plane-surface $-1 0 0 7.843958398761548 0 0 1 1 0 0 forward_v I I I I #
coedge $-1 $130 $131 $132 $133 reversed $51 $-1 #
face $-1 $134 $135 $31 $-1 $136 reversed single #
loop $-1 $-1 $137 $53 #
plane-surface $-1 0 0 -7.843958398761548 0 0 1 1 0 0 forward_v I I I I #
coedge $-1 $138 $139 $140 $141 forward $54 $-1 #
face $-1 $142 $143 $32 $-1 $144 reversed single #
loop $-1 $-1 $145 $56 #
plane-surface $-1 -72.425305948057499 -1.6140682067348848 4.4003193974894259 -0.79863551827123203 0 0.60181501223851219 0.60181501223851219 0 0.79863551827123203 forward_v I I I I #
coedge $-1 $146 $147 $148 $149 reversed $57 $-1 #
face $-1 $-1 $150 $33 $-1 $151 forward single #
loop $-1 $152 $153 $59 #
cone-surface $-1 -68.339300233296655 -5.6674347697391667 4.0208371420079922 0.79863551827123203 0 -0.60181501223851219 0.3009075061192561 0 0.39931775913561601 1 I I -0.70710678118654746 0.70710678118654746 0.5 forward I I I I #
loop $-1 $-1 $154 $43 #
coedge $-1 $96 $96 $155 $156 reversed $60 $-1 #
face $-1 $-1 $157 $34 $-1 $158 forward single #
loop $-1 $159 $160 $62 #
cone-surface $-1 -68.339300233296655 -1.6140682067348777 4.0208371420079922 0.79863551827123203 0 -0.60181501223851219 0.3009075061192561 0 0.39931775913561601 1 I I -0.70710678118654746 0.70710678118654746 0.5 forward I I I I #
loop $-1 $-1 $161 $44 #
coedge $-1 $101 $101 $162 $163 reversed $63 $-1 #
face $-1 $-1 $164 $35 $-1 $165 forward single #
loop $-1 $166 $167 $65 #
cone-surface $-1 -68.339300233296655 2.4392983562694113 4.0208371420079922 0.79863551827123203 0 -0.60181501223851219 0.3009075061192561 0 0.39931775913561601 1 I I -0.70710678118654746 0.70710678118654746 0.5 forward I I I I #
loop $-1 $-1 $168 $45 #
coedge $-1 $106 $106 $169 $170 reversed $66 $-1 #
face $-1 $171 $172 $36 $-1 $173 forward single #
loop $-1 $-1 $174 $68 #
plane-surface $-1 -72.425305948057499 31.918887971078945 4.4003193974894259 -0.79863551827123203 0 0.60181501223851219 0.60181501223851219 0 0.79863551827123203 forward_v I I I I #
coedge $-1 $175 $176 $177 $178 reversed $69 $-1 #
face $-1 $-1 $179 $37 $-1 $180 forward single #
loop $-1 $181 $182 $71 #
cone-surface $-1 -68.339300233296655 27.86552140807467 4.0208371420079922 0.79863551827123203 0 -0.60181501223851219 0.3009075061192561 0 0.39931775913561601 1 I I -0.70710678118654746 0.70710678118654746 0.5 forward I I I I #
loop $-1 $-1 $183 $47 #
coedge $-1 $115 $115 $184 $185 reversed $72 $-1 #
face $-1 $-1 $186 $38 $-1 $187 forward single #
loop $-1 $188 $189 $74 #
cone-surface $-1 -68.339300233296655 31.918887971078959 4.0208371420079922 0.79863551827123203 0 -0.60181501223851219 0.3009075061192561 0 0.39931775913561601 1 I I -0.70710678118654746 0.70710678118654746 0.5 forward I I I I #
loop $-1 $-1 $190 $48 #
coedge $-1 $120 $120 $191 $192 reversed $75 $-1 #
face $-1 $-1 $193 $39 $-1 $194 forward single #
loop $-1 $195 $196 $77 #
cone-surface $-1 -68.339300233296655 35.972254534083248 4.0208371420079922 0.79863551827123203 0 -0.60181501223851219 0.3009075061192561 0 0.39931775913561601 1 I I -0.70710678118654746 0.70710678118654746 0.5 forward I I I I #
loop $-1 $-1 $197 $49 #
coedge $-1 $125 $125 $198 $199 reversed $78 $-1 #
face $-1 $200 $201 $30 $-1 $202 reversed single #
loop $-1 $-1 $203 $80 #
plane-surface $-1 0 0 -7.843958398761548 0 0 1 1 0 0 forward_v I I I I #
coedge $-1 $204 $205 $206 $207 forward $81 $-1 #
coedge $-1 $208 $83 $209 $210 reversed $51 $-1 #
coedge $-1 $83 $208 $211 $212 forward $51 $-1 #
coedge $-1 $213 $203 $83 $133 forward $127 $-1 #
edge $-1 $214 -72.425305948057499 $215 72.425305948057499 $83 $216 forward 7 unknown #
face $-1 $217 $218 $31 $-1 $219 reversed single #
loop $-1 $-1 $220 $84 #
plane-surface $-1 -58.297395367069619 -48.957584372630606 0 0 1 0 0 0 1 forward_v I I I I #
coedge $-1 $221 $222 $139 $223 forward $85 $-1 #
coedge $-1 $224 $87 $225 $226 reversed $54 $-1 #
coedge $-1 $87 $224 $137 $223 reversed $54 $-1 #
coedge $-1 $227 $228 $87 $141 reversed $218 $-1 #
edge $-1 $229 -7.843958398761548 $230 7.843958398761548 $140 $231 forward 7 unknown #
face $-1 $232 $233 $32 $-1 $234 reversed single #
loop $-1 $-1 $235 $88 #
plane-surface $-1 -188.10814945161638 5.1415427316055933 91.573592168505854 0 -1 0 0.79863551827123203 0 -0.60181501223851219 forward_v I I I I #
coedge $-1 $236 $237 $238 $239 reversed $89 $-1 #
coedge $-1 $147 $91 $240 $241 reversed $57 $-1 #
coedge $-1 $91 $146 $236 $242 reversed $57 $-1 #
coedge $-1 $238 $243 $91 $149 forward $244 $-1 #
edge $-1 $245 21.628768777750693 $246 24.223736820471487 $148 $247 forward 7 unknown #
loop $-1 $-1 $155 $92 #
plane-surface $-1 -72.425305948057499 -1.6140682067348848 4.4003193974894259 -0.79863551827123203 0 0.60181501223851219 0.60181501223851219 0 0.79863551827123203 forward_v I I I I #
loop $-1 $-1 $248 $59 #
coedge $-1 $153 $153 $154 $249 reversed $93 $-1 #
coedge $-1 $154 $154 $153 $249 forward $95 $-1 #
coedge $-1 $155 $155 $96 $156 forward $150 $-1 #
edge $-1 $250 0 $250 6.2831853071796004 $155 $251 forward 7 unknown #
loop $-1 $-1 $162 $97 #
plane-surface $-1 -72.425305948057499 -1.6140682067348848 4.4003193974894259 -0.79863551827123203 0 0.60181501223851219 0.60181501223851219 0 0.79863551827123203 forward_v I I I I #
loop $-1 $-1 $252 $62 #
coedge $-1 $160 $160 $161 $253 reversed $98 $-1 #
coedge $-1 $161 $161 $160 $253 forward $100 $-1 #
coedge $-1 $162 $162 $101 $163 forward $157 $-1 #
edge $-1 $254 0 $254 6.2831853071796004 $162 $255 forward 7 unknown #
loop $-1 $-1 $169 $102 #
plane-surface $-1 -72.425305948057499 -1.6140682067348848 4.4003193974894259 -0.79863551827123203 0 0.60181501223851219 0.60181501223851219 0 0.79863551827123203 forward_v I I I I #
loop $-1 $-1 $256 $65 #
coedge $-1 $167 $167 $168 $257 reversed $103 $-1 #
coedge $-1 $168 $168 $167 $257 forward $105 $-1 #
coedge $-1 $169 $169 $106 $170 forward $164 $-1 #
edge $-1 $258 0 $258 6.2831853071796004 $169 $259 forward 7 unknown #
face $-1 $260 $261 $36 $-1 $262 reversed single #
loop $-1 $-1 $177 $107 #
plane-surface $-1 0 0 7.843958398761548 0 0 1 1 0 0 forward_v I I I I #
coedge $-1 $263 $264 $265 $266 reversed $108 $-1 #
coedge $-1 $176 $110 $267 $268 reversed $69 $-1 #
coedge $-1 $110 $175 $263 $269 reversed $69 $-1 #
coedge $-1 $265 $270 $110 $178 forward $172 $-1 #
edge $-1 $271 21.628768777750693 $272 24.223736820471487 $177 $273 forward 7 unknown #
loop $-1 $-1 $184 $111 #
plane-surface $-1 -72.425305948057499 31.918887971078945 4.4003193974894259 -0.79863551827123203 0 0.60181501223851219 0.60181501223851219 0 0.79863551827123203 forward_v I I I I #
loop $-1 $-1 $274 $71 #
coedge $-1 $182 $182 $183 $275 reversed $112 $-1 #
coedge $-1 $183 $183 $182 $275 forward $114 $-1 #
coedge $-1 $184 $184 $115 $185 forward $179 $-1 #
edge $-1 $276 0 $276 6.2831853071796004 $184 $277 forward 7 unknown #
loop $-1 $-1 $191 $116 #
plane-surface $-1 -72.425305948057499 31.918887971078945 4.4003193974894259 -0.79863551827123203 0 0.60181501223851219 0.60181501223851219 0 0.79863551827123203 forward_v I I I I #
loop $-1 $-1 $278 $74 #
coedge $-1 $189 $189 $190 $279 reversed $117 $-1 #
coedge $-1 $190 $190 $189 $279 forward $119 $-1 #
coedge $-1 $191 $191 $120 $192 forward $186 $-1 #
edge $-1 $280 0 $280 6.2831853071796004 $191 $281 forward 7 unknown #
loop $-1 $-1 $198 $121 #
plane-surface $-1 -72.425305948057499 31.918887971078945 4.4003193974894259 -0.79863551827123203 0 0.60181501223851219 0.60181501223851219 0 0.79863551827123203 forward_v I I I I #
loop $-1 $-1 $282 $77 #
coedge $-1 $196 $196 $197 $283 reversed $122 $-1 #
coedge $-1 $197 $197 $196 $283 forward $124 $-1 #
coedge $-1 $198 $198 $125 $199 forward $193 $-1 #
edge $-1 $284 0 $284 6.2831853071796004 $198 $285 forward 7 unknown #
face $-1 $286 $287 $30 $-1 $288 reversed single #
loop $-1 $-1 $289 $126 #
plane-surface $-1 -72.425305948057499 0 0 1 0 0 0 0 -1 forward_v I I I I #
coedge $-1 $132 $290 $291 $292 forward $127 $-1 #
coedge $-1 $293 $129 $294 $295 forward $81 $-1 #
coedge $-1 $129 $293 $208 $296 forward $81 $-1 #
coedge $-1 $209 $297 $129 $207 reversed $298 $-1 #
edge $-1 $299 -38.674498909419427 $300 38.674498909419427 $206 $301 forward 7 unknown #
coedge $-1 $131 $130 $205 $296 reversed $51 $-1 #
coedge $-1 $291 $206 $130 $210 forward $298 $-1 #
edge $-1 $299 -7.843958398761548 $214 7.843958398761548 $209 $302 forward 7 unknown #
coedge $-1 $303 $304 $131 $212 reversed $201 $-1 #
edge $-1 $305 -7.843958398761548 $215 7.843958398761548 $211 $306 forward 7 unknown #
coedge $-1 $290 $132 $304 $307 forward $127 $-1 #
vertex $-1 $210 $308 #
vertex $-1 $307 $309 #
straight-curve $-1 0 -38.674498909419427 -7.843958398761548 -1 0 0 I I #
face $-1 $310 $311 $31 $-1 $312 reversed single #
loop $-1 $-1 $140 $134 #
plane-surface $-1 -59.857401583604833 -43.816041641025016 0 1 0 0 0 0 -1 forward_v I I I I #
coedge $-1 $313 $314 $315 $316 forward $135 $-1 #
coedge $-1 $317 $137 $318 $319 forward $85 $-1 #
coedge $-1 $137 $317 $227 $320 forward $85 $-1 #
edge $-1 $229 -59.857401583604833 $321 -56.737389150534405 $137 $322 forward 7 unknown #
coedge $-1 $139 $138 $323 $324 forward $54 $-1 #
coedge $-1 $325 $326 $138 $226 forward $327 $-1 #
edge $-1 $328 56.737389150534405 $230 59.857401583604833 $225 $329 forward 7 unknown #
coedge $-1 $315 $140 $222 $320 reversed $218 $-1 #
coedge $-1 $140 $315 $325 $330 reversed $218 $-1 #
vertex $-1 $223 $331 #
vertex $-1 $330 $332 #
straight-curve $-1 -59.857401583604833 -38.674498909419427 0 0 0 1 I I #
face $-1 $-1 $244 $32 $-1 $333 forward single #
loop $-1 $-1 $334 $142 #
plane-surface $-1 -72.425305948057499 0 0 1 0 0 0 0 -1 forward_v I I I I #
coedge $-1 $335 $336 $337 $338 reversed $143 $-1 #
coedge $-1 $339 $145 $147 $242 forward $89 $-1 #
coedge $-1 $145 $339 $335 $340 forward $89 $-1 #
coedge $-1 $337 $148 $145 $239 forward $244 $-1 #
edge $-1 $246 -7.5626450417079205 $341 5.9485768349730357 $238 $342 forward 7 unknown #
coedge $-1 $343 $344 $146 $241 forward $233 $-1 #
edge $-1 $345 -41.386476686763501 $245 -37.942837685491376 $240 $346 forward 7 unknown #
edge $-1 $246 -4.3119031429085517 $345 0 $147 $347 forward 7 unknown #
coedge $-1 $148 $337 $343 $348 forward $244 $-1 #
loop $-1 $-1 $337 $232 #
vertex $-1 $241 $349 #
vertex $-1 $149 $350 #
straight-curve $-1 -94.054074725808192 -8.3696791450753629 7.8439583987615507 1 0 0 I I #
coedge $-1 $248 $248 $-1 $351 reversed $152 $-1 #
edge $-1 $352 0 $352 6.2831853071796004 $153 $353 forward 7 unknown #
vertex $-1 $156 $354 #
ellipse-curve $-1 -71.127821926697095 -5.6674347697391667 6.1221388981254927 -0.79863551827123203 0 0.60181501223851219 0.60181501223851219 0 0.79863551827123203 1 I I #
coedge $-1 $252 $252 $-1 $355 reversed $159 $-1 #
edge $-1 $356 0 $356 6.2831853071796004 $160 $357 forward 7 unknown #
vertex $-1 $163 $358 #
ellipse-curve $-1 -71.127821926697095 -1.6140682067348777 6.1221388981254927 -0.79863551827123203 0 0.60181501223851219 0.60181501223851219 0 0.79863551827123203 1 I I #
coedge $-1 $256 $256 $-1 $359 reversed $166 $-1 #
edge $-1 $360 0 $360 6.2831853071796004 $167 $361 forward 7 unknown #
vertex $-1 $170 $362 #
ellipse-curve $-1 -71.127821926697095 2.4392983562694113 6.1221388981254927 -0.79863551827123203 0 0.60181501223851219 0.60181501223851219 0 0.79863551827123203 1 I I #
face $-1 $-1 $363 $36 $-1 $364 reversed single #
loop $-1 $-1 $267 $171 #
plane-surface $-1 -72.425305948057499 0 0 1 0 0 0 0 -1 forward_v I I I I #
coedge $-1 $365 $174 $176 $269 forward $108 $-1 #
coedge $-1 $174 $365 $366 $367 reversed $108 $-1 #
coedge $-1 $368 $177 $174 $266 forward $172 $-1 #
edge $-1 $272 9.2038330471989944 $369 22.715054923879954 $265 $370 forward 7 unknown #
coedge $-1 $371 $372 $175 $268 forward $261 $-1 #
edge $-1 $373 -41.386476686763501 $271 -37.942837685491376 $267 $374 forward 7 unknown #
edge $-1 $272 -4.3119031429085517 $373 0 $176 $375 forward 7 unknown #
coedge $-1 $177 $368 $371 $376 forward $172 $-1 #
vertex $-1 $178 $377 #
vertex $-1 $178 $378 #
straight-curve $-1 -94.054074725808192 25.163277032738467 7.8439583987615507 1 0 0 I I #
coedge $-1 $274 $274 $-1 $379 reversed $181 $-1 #
edge $-1 $380 0 $380 6.2831853071796004 $182 $381 forward 7 unknown #
vertex $-1 $185 $382 #
ellipse-curve $-1 -71.127821926697095 27.86552140807467 6.1221388981254927 -0.79863551827123203 0 0.60181501223851219 0.60181501223851219 0 0.79863551827123203 1 I I #
coedge $-1 $278 $278 $-1 $383 reversed $188 $-1 #
edge $-1 $384 0 $384 6.2831853071796004 $189 $385 forward 7 unknown #
vertex $-1 $192 $386 #
ellipse-curve $-1 -71.127821926697095 31.918887971078959 6.1221388981254927 -0.79863551827123203 0 0.60181501223851219 0.60181501223851219 0 0.79863551827123203 1 I I #
coedge $-1 $282 $282 $-1 $387 reversed $195 $-1 #
edge $-1 $388 0 $388 6.2831853071796004 $196 $389 forward 7 unknown #
vertex $-1 $199 $390 #
ellipse-curve $-1 -71.127821926697095 35.972254534083248 6.1221388981254927 -0.79863551827123203 0 0.60181501223851219 0.60181501223851219 0 0.79863551827123203 1 I I #
face $-1 $-1 $298 $30 $-1 $391 reversed single #
loop $-1 $-1 $392 $200 #
plane-surface $-1 0 38.674498909419427 0 0 -1 0 0 0 -1 forward_v I I I I #
coedge $-1 $304 $303 $393 $394 forward $201 $-1 #
coedge $-1 $203 $213 $395 $396 forward $127 $-1 #
coedge $-1 $297 $209 $203 $292 reversed $298 $-1 #
edge $-1 $397 -38.674498909419427 $214 38.674498909419427 $291 $398 forward 7 unknown #
coedge $-1 $205 $204 $303 $399 forward $81 $-1 #
coedge $-1 $392 $393 $204 $295 reversed $287 $-1 #
edge $-1 $300 -72.425305948057499 $400 72.425305948057499 $294 $401 forward 7 unknown #
edge $-1 $305 -72.425305948057499 $299 72.425305948057499 $208 $402 forward 7 unknown #
coedge $-1 $206 $291 $392 $403 reversed $298 $-1 #
loop $-1 $-1 $209 $286 #
vertex $-1 $207 $404 #
vertex $-1 $207 $405 #
straight-curve $-1 72.425305948057499 0 7.843958398761548 0 1 0 I I #
straight-curve $-1 72.425305948057499 -38.674498909419427 0 0 0 -1 I I #
coedge $-1 $289 $211 $293 $399 reversed $201 $-1 #
coedge $-1 $211 $289 $213 $307 reversed $201 $-1 #
vertex $-1 $399 $406 #
straight-curve $-1 -72.425305948057499 -38.674498909419427 0 0 0 -1 I I #
edge $-1 $215 -38.674498909419427 $407 38.674498909419427 $304 $408 forward 7 unknown #
point $-1 72.425305948057499 -38.674498909419427 -7.843958398761548 #
point $-1 -72.425305948057499 -38.674498909419427 -7.843958398761548 #
face $-1 $-1 $327 $31 $-1 $409 forward single #
loop $-1 $-1 $410 $217 #
plane-surface $-1 -56.737389150534405 -43.816041641025016 0 -1 0 0 0 0 1 forward_v I I I I #
coedge $-1 $411 $220 $317 $412 reversed $135 $-1 #
coedge $-1 $220 $411 $413 $414 reversed $135 $-1 #
coedge $-1 $228 $227 $220 $316 reversed $218 $-1 #
edge $-1 $415 -7.843958398761548 $416 7.843958398761548 $315 $417 forward 7 unknown #
coedge $-1 $222 $221 $313 $412 forward $85 $-1 #
coedge $-1 $323 $410 $221 $319 reversed $311 $-1 #
edge $-1 $321 -5.1415427316055897 $418 5.1415427316055897 $318 $419 forward 7 unknown #
edge $-1 $416 -5.1415427316055897 $229 5.1415427316055897 $227 $420 forward 7 unknown #
vertex $-1 $319 $421 #
straight-curve $-1 0 -38.674498909419427 -7.843958398761548 1 0 0 I I #
coedge $-1 $422 $318 $224 $324 reversed $311 $-1 #
edge $-1 $328 -7.843958398761548 $321 7.843958398761548 $323 $423 forward 7 unknown #
coedge $-1 $413 $225 $228 $330 forward $327 $-1 #
coedge $-1 $225 $413 $422 $424 forward $327 $-1 #
loop $-1 $-1 $225 $310 #
vertex $-1 $226 $425 #
straight-curve $-1 0 -38.674498909419427 7.843958398761548 -1 0 0 I I #
edge $-1 $230 -5.1415427316055897 $415 5.1415427316055897 $228 $426 forward 7 unknown #
point $-1 -59.857401583604833 -38.674498909419427 -7.843958398761548 #
point $-1 -59.857401583604833 -38.674498909419427 7.843958398761548 #
plane-surface $-1 0 0 7.843958398761548 0 0 1 1 0 0 forward_v I I I I #
coedge $-1 $344 $343 $336 $427 forward $233 $-1 #
coedge $-1 $336 $235 $237 $340 reversed $143 $-1 #
coedge $-1 $235 $335 $334 $427 reversed $143 $-1 #
coedge $-1 $243 $238 $235 $338 forward $244 $-1 #
edge $-1 $341 -24.223736820471487 $428 -21.628768777750693 $337 $429 forward 7 unknown #
coedge $-1 $237 $236 $344 $430 reversed $89 $-1 #
edge $-1 $431 0 $341 4.3119031429085517 $335 $432 forward 7 unknown #
vertex $-1 $239 $433 #
straight-curve $-1 -69.830337905336705 -0.80703410336744241 7.8439583987615489 0 1 0 I I #
coedge $-1 $334 $240 $243 $348 reversed $233 $-1 #
coedge $-1 $240 $334 $339 $430 forward $233 $-1 #
vertex $-1 $241 $434 #
straight-curve $-1 -72.425305948057499 -8.3696791450753629 45.786796084252927 0 0 1 I I #
straight-curve $-1 -72.425305948057499 -8.3696791450753629 4.4003193974894259 -0.60181501223851219 0 -0.79863551827123203 I I #
edge $-1 $428 -5.1415427316055933 $245 8.3696791450753629 $343 $435 forward 7 unknown #
point $-1 -72.425305948057499 -8.3696791450753629 7.843958398761548 #
point $-1 -69.830337905336705 -8.3696791450753629 7.843958398761548 #
edge $-1 $436 1 $436 0 $248 $-1 forward 7 unknown #
vertex $-1 $249 $437 #
ellipse-curve $-1 -68.738617992432268 -5.6674347697391667 4.3217446481272486 -0.79863551827123203 0 0.60181501223851219 0.60181501223851219 0 0.79863551827123203 1 I I #
point $-1 -70.526006914458591 -5.6674347697391667 6.9207744163967231 #
edge $-1 $438 1 $438 0 $252 $-1 forward 7 unknown #
vertex $-1 $253 $439 #
ellipse-curve $-1 -68.738617992432268 -1.6140682067348777 4.3217446481272486 -0.79863551827123203 0 0.60181501223851219 0.60181501223851219 0 0.79863551827123203 1 I I #
point $-1 -70.526006914458591 -1.6140682067348777 6.9207744163967231 #
edge $-1 $440 1 $440 0 $256 $-1 forward 7 unknown #
vertex $-1 $257 $441 #
ellipse-curve $-1 -68.738617992432268 2.4392983562694113 4.3217446481272486 -0.79863551827123203 0 0.60181501223851219 0.60181501223851219 0 0.79863551827123203 1 I I #
point $-1 -70.526006914458591 2.4392983562694113 6.9207744163967231 #
loop $-1 $-1 $366 $260 #
plane-surface $-1 0 38.674498909419427 0 0 -1 0 0 0 -1 forward_v I I I I #
coedge $-1 $264 $263 $372 $442 reversed $108 $-1 #
coedge $-1 $443 $444 $264 $367 forward $363 $-1 #
edge $-1 $369 15.724289368559095 $445 20.036192511467647 $366 $446 forward 7 unknown #
coedge $-1 $270 $265 $444 $447 forward $172 $-1 #
vertex $-1 $447 $448 #
straight-curve $-1 -69.830337905336705 15.959443985539473 7.8439583987615489 0 1 0 I I #
coedge $-1 $449 $267 $270 $376 reversed $261 $-1 #
coedge $-1 $267 $449 $365 $442 forward $261 $-1 #
vertex $-1 $268 $450 #
straight-curve $-1 -72.425305948057499 25.163277032738467 45.786796084252927 0 0 1 I I #
straight-curve $-1 -72.425305948057499 25.163277032738467 4.4003193974894259 -0.60181501223851219 0 -0.79863551827123203 I I #
edge $-1 $451 -38.674498909419427 $271 -25.163277032738467 $371 $452 forward 7 unknown #
point $-1 -72.425305948057499 25.163277032738467 7.843958398761548 #
point $-1 -69.830337905336705 25.163277032738467 7.843958398761548 #
edge $-1 $453 1 $453 0 $274 $-1 forward 7 unknown #
vertex $-1 $275 $454 #
ellipse-curve $-1 -68.738617992432268 27.86552140807467 4.3217446481272486 -0.79863551827123203 0 0.60181501223851219 0.60181501223851219 0 0.79863551827123203 1 I I #
point $-1 -70.526006914458591 27.86552140807467 6.9207744163967231 #
edge $-1 $455 1 $455 0 $278 $-1 forward 7 unknown #
vertex $-1 $279 $456 #
ellipse-curve $-1 -68.738617992432268 31.918887971078959 4.3217446481272486 -0.79863551827123203 0 0.60181501223851219 0.60181501223851219 0 0.79863551827123203 1 I I #
point $-1 -70.526006914458591 31.918887971078959 6.9207744163967231 #
edge $-1 $457 1 $457 0 $282 $-1 forward 7 unknown #
vertex $-1 $283 $458 #
ellipse-curve $-1 -68.738617992432268 35.972254534083248 4.3217446481272486 -0.79863551827123203 0 0.60181501223851219 0.60181501223851219 0 0.79863551827123203 1 I I #
point $-1 -70.526006914458591 35.972254534083248 6.9207744163967231 #
plane-surface $-1 72.425305948057499 0 0 -1 0 0 0 0 1 forward_v I I I I #
coedge $-1 $395 $294 $297 $403 forward $287 $-1 #
coedge $-1 $294 $395 $289 $394 reversed $287 $-1 #
edge $-1 $400 -7.843958398761548 $407 7.843958398761548 $393 $459 forward 7 unknown #
coedge $-1 $393 $392 $290 $396 reversed $287 $-1 #
edge $-1 $407 -72.425305948057499 $397 72.425305948057499 $395 $460 forward 7 unknown #
vertex $-1 $292 $461 #
straight-curve $-1 72.425305948057499 0 -7.843958398761548 0 -1 0 I I #
edge $-1 $400 -38.674498909419427 $305 38.674498909419427 $303 $462 forward 7 unknown #
vertex $-1 $295 $463 #
straight-curve $-1 0 38.674498909419427 7.843958398761548 -1 0 0 I I #
straight-curve $-1 0 -38.674498909419427 7.843958398761548 1 0 0 I I #
edge $-1 $300 -7.843958398761548 $397 7.843958398761548 $297 $464 forward 7 unknown #
point $-1 72.425305948057499 -38.674498909419427 7.843958398761548 #
point $-1 72.425305948057499 38.674498909419427 7.843958398761548 #
point $-1 -72.425305948057499 -38.674498909419427 7.843958398761548 #
vertex $-1 $396 $465 #
straight-curve $-1 -72.425305948057499 0 -7.843958398761548 0 1 0 I I #
plane-surface $-1 0 0 7.843958398761548 0 0 1 1 0 0 forward_v I I I I #
coedge $-1 $318 $422 $411 $466 forward $311 $-1 #
coedge $-1 $314 $313 $410 $466 reversed $135 $-1 #
edge $-1 $418 -1.5600062165352142 $416 1.5600062165352142 $313 $467 forward 7 unknown #
coedge $-1 $326 $325 $314 $414 forward $327 $-1 #
edge $-1 $415 -1.5600062165352142 $468 1.5600062165352142 $314 $469 forward 7 unknown #
vertex $-1 $330 $470 #
vertex $-1 $320 $471 #
straight-curve $-1 -59.857401583604833 -48.957584372630606 0 0 0 -1 I I #
vertex $-1 $466 $472 #
straight-curve $-1 -56.737389150534405 -43.816041641025016 -7.843958398761548 0 -1 0 I I #
straight-curve $-1 -59.857401583604833 -43.816041641025016 -7.843958398761548 0 1 0 I I #
point $-1 -56.737389150534405 -38.674498909419427 -7.843958398761548 #
coedge $-1 $410 $323 $326 $424 reversed $311 $-1 #
straight-curve $-1 -56.737389150534405 -38.674498909419427 0 0 0 -1 I I #
edge $-1 $468 -5.1415427316055897 $328 5.1415427316055897 $422 $473 forward 7 unknown #
point $-1 -56.737389150534405 -38.674498909419427 7.843958398761548 #
straight-curve $-1 -59.857401583604833 -43.816041641025016 7.843958398761548 0 -1 0 I I #
edge $-1 $428 37.942837685491376 $431 41.386476686763501 $334 $474 forward 7 unknown #
vertex $-1 $348 $475 #
straight-curve $-1 -94.054074725808192 5.1415427316055933 7.8439583987615507 -1 0 0 I I #
edge $-1 $431 -5.9485768349730357 $345 7.5626450417079205 $344 $476 forward 7 unknown #
vertex $-1 $430 $477 #
straight-curve $-1 -72.425305948057499 5.1415427316055933 4.4003193974894259 0.60181501223851219 0 0.79863551827123203 I I #
point $-1 -69.830337905336705 5.1415427316055933 7.843958398761548 #
point $-1 -72.425305948057499 -8.3696791450753629 4.4003193974894259 #
straight-curve $-1 -72.425305948057499 0 7.843958398761548 0 -1 0 I I #
vertex $-1 $351 $478 #
point $-1 -68.136802980193764 -5.6674347697391667 5.1203801663984798 #
vertex $-1 $355 $479 #
point $-1 -68.136802980193764 -1.6140682067348777 5.1203801663984798 #
vertex $-1 $359 $480 #
point $-1 -68.136802980193764 2.4392983562694113 5.1203801663984798 #
edge $-1 $445 -22.715054923879954 $373 -9.2038330471989944 $372 $481 forward 7 unknown #
coedge $-1 $444 $366 $449 $482 reversed $363 $-1 #
coedge $-1 $366 $443 $368 $447 reversed $363 $-1 #
vertex $-1 $367 $483 #
straight-curve $-1 -60.367224506555409 38.674498909419427 20.401934388067566 -0.60181501223851219 0 -0.79863551827123203 I I #
edge $-1 $369 69.830337905336705 $451 72.425305948057499 $444 $484 forward 7 unknown #
point $-1 -69.830337905336705 38.674498909419427 7.843958398761548 #
coedge $-1 $372 $371 $443 $482 forward $261 $-1 #
point $-1 -72.425305948057499 25.163277032738467 4.4003193974894259 #
vertex $-1 $447 $485 #
straight-curve $-1 -72.425305948057499 0 7.843958398761548 0 -1 0 I I #
vertex $-1 $379 $486 #
point $-1 -68.136802980193764 27.86552140807467 5.1203801663984798 #
vertex $-1 $383 $487 #
point $-1 -68.136802980193764 31.918887971078959 5.1203801663984798 #
vertex $-1 $387 $488 #
point $-1 -68.136802980193764 35.972254534083248 5.1203801663984798 #
straight-curve $-1 -72.425305948057499 38.674498909419427 0 0 0 -1 I I #
straight-curve $-1 0 38.674498909419427 -7.843958398761548 1 0 0 I I #
point $-1 72.425305948057499 38.674498909419427 -7.843958398761548 #
straight-curve $-1 -72.425305948057499 0 7.843958398761548 0 -1 0 I I #
point $-1 -72.425305948057499 38.674498909419427 7.843958398761548 #
straight-curve $-1 72.425305948057499 38.674498909419427 0 0 0 -1 I I #
point $-1 -72.425305948057499 38.674498909419427 -7.843958398761548 #
edge $-1 $468 -7.843958398761548 $418 7.843958398761548 $410 $489 forward 7 unknown #
straight-curve $-1 -58.297395367069619 -48.957584372630606 -7.843958398761548 -1 0 0 I I #
vertex $-1 $424 $490 #
straight-curve $-1 -58.297395367069619 -48.957584372630606 7.843958398761548 1 0 0 I I #
point $-1 -59.857401583604833 -48.957584372630606 7.843958398761548 #
point $-1 -59.857401583604833 -48.957584372630606 -7.843958398761548 #
point $-1 -56.737389150534405 -48.957584372630606 -7.843958398761548 #
straight-curve $-1 -56.737389150534405 -43.816041641025016 7.843958398761548 0 1 0 I I #
straight-curve $-1 -72.425305948057499 5.1415427316055933 45.786796084252927 0 0 -1 I I #
point $-1 -72.425305948057499 5.1415427316055933 7.843958398761548 #
straight-curve $-1 -72.425305948057499 -0.80703410336744241 4.4003193974894321 0 -1 0 I I #
point $-1 -72.425305948057499 5.1415427316055933 4.4003193974894259 #
point $-1 -67.939982474161042 -5.6674347697391667 3.7199296358887359 #
point $-1 -67.939982474161042 -1.6140682067348777 3.7199296358887359 #
point $-1 -67.939982474161042 2.4392983562694113 3.7199296358887359 #
straight-curve $-1 -72.425305948057499 15.959443985539473 4.4003193974894321 0 -1 0 I I #
edge $-1 $451 -7.843958398761548 $445 -4.4003193974894259 $443 $491 forward 7 unknown #
point $-1 -72.425305948057499 38.674498909419427 4.4003193974894259 #
straight-curve $-1 0 38.674498909419427 7.843958398761548 -1 0 0 I I #
point $-1 -72.425305948057499 38.674498909419427 7.843958398761548 #
point $-1 -67.939982474161042 27.86552140807467 3.7199296358887359 #
point $-1 -67.939982474161042 31.918887971078959 3.7199296358887359 #
point $-1 -67.939982474161042 35.972254534083248 3.7199296358887359 #
straight-curve $-1 -56.737389150534405 -48.957584372630606 0 0 0 -1 I I #
point $-1 -56.737389150534405 -48.957584372630606 7.843958398761548 #
straight-curve $-1 -72.425305948057499 38.674498909419427 0 0 0 -1 I I #
End-of-ACIS-data 