500 0 8 0           
7 Unknown 11 ACIS 5.0 NT 24 Thu Mar 25 23:24:15 1999 
-1 9.9999999999999995e-007 1e-010 
body $-1 $8 $-1 $9 #
body $-1 $10 $-1 $11 #
body $-1 $12 $-1 $13 #
body $-1 $14 $-1 $15 #
body $-1 $16 $-1 $17 #
body $-1 $18 $-1 $19 #
body $-1 $20 $-1 $21 #
body $-1 $22 $-1 $23 #
lump $-1 $-1 $24 $0 #
transform $-1 1 0 0 0 1 0 0 0 1 50.764488662373729 28.14797708548447 9.3540245516477061 1 rotate no_reflect no_shear #
lump $-1 $-1 $25 $1 #
transform $-1 1 0 0 0 1 0 0 0 1 50.764488662373729 28.14797708548447 9.3540245516477061 1 rotate no_reflect no_shear #
lump $-1 $-1 $26 $2 #
transform $-1 1 0 0 0 1 0 0 0 1 50.764488662373729 28.14797708548447 9.3540245516477061 1 rotate no_reflect no_shear #
lump $-1 $-1 $27 $3 #
transform $-1 1 0 0 0 1 0 0 0 1 50.764488662373729 28.14797708548447 9.3540245516477061 1 rotate no_reflect no_shear #
lump $-1 $-1 $28 $4 #
transform $-1 1 0 0 0 1 0 0 0 1 50.764488662373729 28.14797708548447 9.3540245516477061 1 rotate no_reflect no_shear #
lump $-1 $-1 $29 $5 #
transform $-1 1 0 0 0 1 0 0 0 1 50.764488662373729 28.14797708548447 9.3540245516477061 1 rotate no_reflect no_shear #
lump $-1 $-1 $30 $6 #
transform $-1 1 0 0 0 1 0 0 0 1 50.764488662373729 28.14797708548447 9.3540245516477061 1 rotate no_reflect no_shear #
lump $-1 $-1 $31 $7 #
transform $-1 1 0 0 0 1 0 0 0 1 50.764488662373729 28.14797708548447 9.3540245516477061 1 rotate no_reflect no_shear #
shell $-1 $-1 $-1 $32 $-1 $8 #
shell $-1 $-1 $-1 $33 $-1 $10 #
shell $-1 $-1 $-1 $34 $-1 $12 #
shell $-1 $-1 $-1 $35 $-1 $14 #
shell $-1 $-1 $-1 $36 $-1 $16 #
shell $-1 $-1 $-1 $37 $-1 $18 #
shell $-1 $-1 $-1 $38 $-1 $20 #
shell $-1 $-1 $-1 $39 $-1 $22 #
face $-1 $40 $41 $24 $-1 $42 forward single #
face $-1 $43 $44 $25 $-1 $45 forward single #
face $-1 $46 $47 $26 $-1 $48 reversed single #
face $-1 $49 $50 $27 $-1 $51 forward single #
face $-1 $52 $53 $28 $-1 $54 forward single #
face $-1 $55 $56 $29 $-1 $57 reversed single #
face $-1 $58 $59 $30 $-1 $60 forward single #
face $-1 $61 $62 $31 $-1 $63 forward single #
face $-1 $64 $65 $24 $-1 $66 reversed single #
loop $-1 $-1 $67 $32 #
plane-surface $-1 0 0 9.3540245516477061 0 0 1 1 0 0 forward_v I I I I #
face $-1 $68 $69 $25 $-1 $70 forward single #
loop $-1 $-1 $71 $33 #
plane-surface $-1 0 -28.14797708548447 0 0 1 0 0 0 1 forward_v I I I I #
face $-1 $72 $73 $26 $-1 $74 reversed single #
loop $-1 $-1 $75 $34 #
plane-surface $-1 -130.77041543503012 19.986896823033035 63.099696400217432 0 1 0 -0.78801076186113728 0 0.61566146476048833 forward_v I I I I #
face $-1 $76 $77 $27 $-1 $78 forward single #
loop $-1 $79 $80 $35 #
cone-surface $-1 -46.677959693687619 22.318634040876304 4.4545098085675638 0.78801076186113728 0 -0.61566146476048833 0.30783073238024417 0 0.39400538093056864 1 I I 0 1 0.5 forward I I I I #
face $-1 $81 $82 $28 $-1 $83 forward single #
loop $-1 $84 $85 $36 #
cone-surface $-1 -46.677959693687619 25.816239867641201 4.4545098085675638 0.78801076186113728 0 -0.61566146476048833 0.30783073238024417 0 0.39400538093056864 1 I I 0 1 0.5 forward I I I I #
face $-1 $86 $87 $29 $-1 $88 reversed single #
loop $-1 $-1 $89 $37 #
plane-surface $-1 68.262936539641686 19.986896823033035 143.10562317287381 0 1 0 0.78801076186113728 0 0.61566146476048833 forward_v I I I I #
face $-1 $90 $91 $30 $-1 $92 forward single #
loop $-1 $93 $94 $38 #
cone-surface $-1 46.677959693687619 22.318634040876304 4.4545098085675603 -0.78801076186113728 0 -0.61566146476048833 0.30783073238024417 0 -0.39400538093056864 1 I I 0 1 0.5 forward I I I I #
face $-1 $95 $96 $31 $-1 $97 forward single #
loop $-1 $98 $99 $39 #
cone-surface $-1 46.677959693687619 25.816239867641201 4.4545098085675603 -0.78801076186113728 0 -0.61566146476048833 0.30783073238024417 0 -0.39400538093056864 1 I I 0 1 0.5 forward I I I I #
face $-1 $100 $101 $24 $-1 $102 reversed single #
loop $-1 $-1 $103 $40 #
plane-surface $-1 0 0 -9.3540245516477061 0 0 1 1 0 0 forward_v I I I I #
coedge $-1 $104 $105 $106 $107 forward $41 $-1 #
face $-1 $108 $109 $25 $-1 $110 reversed single #
loop $-1 $-1 $111 $43 #
plane-surface $-1 0 0 9.3540245516477061 0 0 1 1 0 0 forward_v I I I I #
coedge $-1 $112 $113 $114 $115 forward $44 $-1 #
face $-1 $116 $117 $26 $-1 $118 forward single #
loop $-1 $-1 $119 $46 #
plane-surface $-1 -50.764488662373736 24.067436954258753 0.59221750482900859 -0.78801076186113728 0 0.61566146476048833 0.61566146476048833 0 0.78801076186113728 forward_v I I I I #
coedge $-1 $120 $121 $122 $123 reversed $47 $-1 #
face $-1 $-1 $124 $27 $-1 $125 forward single #
loop $-1 $126 $127 $49 #
cone-surface $-1 -45.817164893898912 22.318634040876304 3.7819832227066517 0.78801076186113728 0 -0.61566146476048833 0.15391536619012208 0 0.19700269046528432 1 I I -0.70710678118654746 0.70710678118654746 0.25 forward I I I I #
loop $-1 $-1 $128 $35 #
coedge $-1 $80 $80 $129 $130 reversed $50 $-1 #
face $-1 $-1 $131 $28 $-1 $132 forward single #
loop $-1 $133 $134 $52 #
cone-surface $-1 -45.817164893898912 25.816239867641201 3.7819832227066517 0.78801076186113728 0 -0.61566146476048833 0.15391536619012208 0 0.19700269046528432 1 I I -0.70710678118654746 0.70710678118654746 0.25 forward I I I I #
loop $-1 $-1 $135 $36 #
coedge $-1 $85 $85 $136 $137 reversed $53 $-1 #
face $-1 $138 $139 $29 $-1 $140 reversed single #
loop $-1 $-1 $141 $55 #
plane-surface $-1 -11.742990233014694 24.067436954258753 80.598144277485375 0.78801076186113728 0 0.61566146476048833 0.61566146476048833 0 -0.78801076186113728 forward_v I I I I #
coedge $-1 $142 $143 $144 $145 reversed $56 $-1 #
face $-1 $-1 $146 $30 $-1 $147 forward single #
loop $-1 $148 $149 $58 #
cone-surface $-1 45.817164893898912 22.318634040876304 3.7819832227066481 -0.78801076186113728 0 -0.61566146476048833 0.15391536619012208 0 -0.19700269046528432 1 I I -0.70710678118654746 0.70710678118654746 0.25 forward I I I I #
loop $-1 $-1 $150 $38 #
coedge $-1 $94 $94 $151 $152 reversed $59 $-1 #
face $-1 $-1 $153 $31 $-1 $154 forward single #
loop $-1 $155 $156 $61 #
cone-surface $-1 45.817164893898912 25.816239867641201 3.7819832227066481 -0.78801076186113728 0 -0.61566146476048833 0.15391536619012208 0 -0.19700269046528432 1 I I -0.70710678118654746 0.70710678118654746 0.25 forward I I I I #
loop $-1 $-1 $157 $39 #
coedge $-1 $99 $99 $158 $159 reversed $62 $-1 #
face $-1 $160 $161 $24 $-1 $162 reversed single #
loop $-1 $-1 $163 $64 #
plane-surface $-1 0 -28.14797708548447 0 0 1 0 0 0 1 forward_v I I I I #
coedge $-1 $164 $165 $166 $167 forward $65 $-1 #
coedge $-1 $168 $67 $169 $170 forward $41 $-1 #
coedge $-1 $67 $168 $171 $172 forward $41 $-1 #
coedge $-1 $173 $174 $67 $107 reversed $175 $-1 #
edge $-1 $176 -28.14797708548447 $177 28.14797708548447 $106 $178 forward 7 unknown #
face $-1 $179 $180 $25 $-1 $181 reversed single #
loop $-1 $-1 $182 $68 #
plane-surface $-1 -50.764488662373729 0 0 1 0 0 0 0 -1 forward_v I I I I #
coedge $-1 $183 $184 $185 $186 forward $69 $-1 #
coedge $-1 $185 $71 $182 $187 reversed $44 $-1 #
coedge $-1 $71 $185 $188 $189 reversed $44 $-1 #
coedge $-1 $190 $191 $71 $115 reversed $180 $-1 #
edge $-1 $192 -50.764488662373729 $193 50.764488662373729 $114 $194 forward 7 unknown #
face $-1 $195 $196 $26 $-1 $197 reversed single #
loop $-1 $-1 $122 $72 #
plane-surface $-1 0 0 9.3540245516477061 0 0 1 1 0 0 forward_v I I I I #
coedge $-1 $198 $199 $200 $201 reversed $73 $-1 #
coedge $-1 $121 $75 $202 $203 reversed $47 $-1 #
coedge $-1 $75 $120 $198 $204 reversed $47 $-1 #
coedge $-1 $200 $205 $75 $123 forward $117 $-1 #
edge $-1 $206 14.620719055141329 $207 21.466192773866688 $122 $208 forward 7 unknown #
loop $-1 $-1 $129 $76 #
plane-surface $-1 -50.764488662373736 24.067436954258753 0.59221750482900859 -0.78801076186113728 0 0.61566146476048833 0.61566146476048833 0 0.78801076186113728 forward_v I I I I #
loop $-1 $-1 $209 $49 #
coedge $-1 $127 $127 $128 $210 reversed $77 $-1 #
coedge $-1 $128 $128 $127 $210 forward $79 $-1 #
coedge $-1 $129 $129 $80 $130 forward $124 $-1 #
edge $-1 $211 0 $211 6.2831853071796004 $129 $212 forward 7 unknown #
loop $-1 $-1 $136 $81 #
plane-surface $-1 -50.764488662373736 24.067436954258753 0.59221750482900859 -0.78801076186113728 0 0.61566146476048833 0.61566146476048833 0 0.78801076186113728 forward_v I I I I #
loop $-1 $-1 $213 $52 #
coedge $-1 $134 $134 $135 $214 reversed $82 $-1 #
coedge $-1 $135 $135 $134 $214 forward $84 $-1 #
coedge $-1 $136 $136 $85 $137 forward $131 $-1 #
edge $-1 $215 0 $215 6.2831853071796004 $136 $216 forward 7 unknown #
face $-1 $217 $218 $29 $-1 $219 forward single #
loop $-1 $-1 $144 $86 #
plane-surface $-1 50.764488662373729 0 0 -1 0 0 0 0 1 forward_v I I I I #
coedge $-1 $220 $221 $222 $223 reversed $87 $-1 #
coedge $-1 $143 $89 $224 $225 reversed $56 $-1 #
coedge $-1 $89 $142 $220 $226 reversed $56 $-1 #
coedge $-1 $222 $227 $89 $145 forward $139 $-1 #
edge $-1 $228 62.198787034789198 $229 70.960594081607908 $144 $230 forward 7 unknown #
loop $-1 $-1 $151 $90 #
plane-surface $-1 -11.742990233014694 24.067436954258753 80.598144277485375 0.78801076186113728 0 0.61566146476048833 0.61566146476048833 0 -0.78801076186113728 forward_v I I I I #
loop $-1 $-1 $231 $58 #
coedge $-1 $149 $149 $150 $232 reversed $91 $-1 #
coedge $-1 $150 $150 $149 $232 forward $93 $-1 #
coedge $-1 $151 $151 $94 $152 forward $146 $-1 #
edge $-1 $233 0 $233 6.2831853071796004 $151 $234 forward 7 unknown #
loop $-1 $-1 $158 $95 #
plane-surface $-1 -11.742990233014694 24.067436954258753 80.598144277485375 0.78801076186113728 0 0.61566146476048833 0.61566146476048833 0 -0.78801076186113728 forward_v I I I I #
loop $-1 $-1 $235 $61 #
coedge $-1 $156 $156 $157 $236 reversed $96 $-1 #
coedge $-1 $157 $157 $156 $236 forward $98 $-1 #
coedge $-1 $158 $158 $99 $159 forward $153 $-1 #
edge $-1 $237 0 $237 6.2831853071796004 $158 $238 forward 7 unknown #
face $-1 $239 $240 $24 $-1 $241 reversed single #
loop $-1 $-1 $242 $100 #
plane-surface $-1 -50.764488662373729 0 0 1 0 0 0 0 -1 forward_v I I I I #
coedge $-1 $243 $171 $244 $245 forward $101 $-1 #
coedge $-1 $246 $103 $243 $247 forward $65 $-1 #
coedge $-1 $103 $246 $248 $249 forward $65 $-1 #
coedge $-1 $174 $173 $103 $167 reversed $175 $-1 #
edge $-1 $250 -28.14797708548447 $251 28.14797708548447 $166 $252 forward 7 unknown #
coedge $-1 $105 $104 $253 $254 forward $41 $-1 #
coedge $-1 $255 $256 $104 $170 reversed $240 $-1 #
edge $-1 $177 -50.764488662373729 $257 50.764488662373729 $169 $258 forward 7 unknown #
coedge $-1 $163 $259 $105 $172 reversed $101 $-1 #
edge $-1 $260 -50.764488662373729 $176 50.764488662373729 $171 $261 forward 7 unknown #
coedge $-1 $166 $106 $259 $262 forward $175 $-1 #
coedge $-1 $106 $166 $255 $263 reversed $175 $-1 #
loop $-1 $-1 $173 $239 #
vertex $-1 $107 $264 #
vertex $-1 $107 $265 #
straight-curve $-1 50.764488662373729 0 9.3540245516477061 0 1 0 I I #
face $-1 $266 $267 $25 $-1 $268 reversed single #
loop $-1 $-1 $190 $108 #
plane-surface $-1 0 -32.031971220411727 4.8620259576355185 0 0 1 1 0 0 forward_v I I I I #
coedge $-1 $269 $270 $112 $187 forward $109 $-1 #
coedge $-1 $271 $111 $270 $272 forward $69 $-1 #
coedge $-1 $111 $271 $273 $274 forward $69 $-1 #
coedge $-1 $113 $112 $111 $186 reversed $44 $-1 #
edge $-1 $275 -50.764488662373729 $276 50.764488662373729 $111 $277 forward 7 unknown #
edge $-1 $276 -9.3540245516477061 $193 -4.8620259576355185 $182 $278 forward 7 unknown #
coedge $-1 $273 $279 $113 $189 forward $280 $-1 #
edge $-1 $192 4.8620259576355185 $275 9.3540245516477061 $188 $281 forward 7 unknown #
coedge $-1 $282 $114 $279 $283 forward $180 $-1 #
coedge $-1 $114 $282 $269 $284 forward $180 $-1 #
vertex $-1 $189 $285 #
vertex $-1 $187 $286 #
straight-curve $-1 0 -28.14797708548447 4.8620259576355185 -1 0 0 I I #
face $-1 $-1 $287 $26 $-1 $288 reversed single #
loop $-1 $-1 $289 $116 #
plane-surface $-1 0 28.14797708548447 0 0 -1 0 0 0 -1 forward_v I I I I #
coedge $-1 $290 $119 $121 $204 forward $73 $-1 #
coedge $-1 $119 $290 $289 $291 reversed $73 $-1 #
coedge $-1 $292 $122 $119 $201 forward $117 $-1 #
edge $-1 $207 7.9531783459036589 $293 16.114258608355094 $200 $294 forward 7 unknown #
coedge $-1 $295 $296 $120 $203 forward $287 $-1 #
edge $-1 $297 -30.957630695279697 $206 -22.195823648461008 $202 $298 forward 7 unknown #
edge $-1 $207 -11.118892622893767 $297 -1.1548452884789174e-014 $121 $299 forward 7 unknown #
coedge $-1 $122 $292 $295 $300 forward $117 $-1 #
vertex $-1 $203 $301 #
vertex $-1 $123 $302 #
straight-curve $-1 -65.385207717515058 19.986896823033035 9.3540245516477043 1 0 0 I I #
coedge $-1 $209 $209 $-1 $303 reversed $126 $-1 #
edge $-1 $304 0 $304 6.2831853071796004 $127 $305 forward 7 unknown #
vertex $-1 $130 $306 #
ellipse-curve $-1 -47.34175180301105 22.318634040876304 4.9731210282383609 -0.78801076186113728 0 0.61566146476048833 0.30783073238024417 0 0.39400538093056864 1 I I #
coedge $-1 $213 $213 $-1 $307 reversed $133 $-1 #
edge $-1 $308 0 $308 6.2831853071796004 $134 $309 forward 7 unknown #
vertex $-1 $137 $310 #
ellipse-curve $-1 -47.34175180301105 25.816239867641201 4.9731210282383609 -0.78801076186113728 0 0.61566146476048833 0.30783073238024417 0 0.39400538093056864 1 I I #
face $-1 $-1 $311 $29 $-1 $312 reversed single #
loop $-1 $-1 $224 $138 #
plane-surface $-1 0 0 9.3540245516477061 0 0 1 1 0 0 forward_v I I I I #
coedge $-1 $313 $141 $143 $226 forward $87 $-1 #
coedge $-1 $141 $313 $314 $315 reversed $87 $-1 #
coedge $-1 $316 $144 $141 $223 forward $139 $-1 #
edge $-1 $229 7.9531783459036589 $317 16.114258608355094 $222 $318 forward 7 unknown #
coedge $-1 $319 $320 $142 $225 forward $218 $-1 #
edge $-1 $321 9.7875466738275136 $228 16.633020392552886 $224 $322 forward 7 unknown #
edge $-1 $229 -101.52897732474746 $321 -90.410084701853663 $143 $323 forward 7 unknown #
coedge $-1 $144 $316 $319 $324 reversed $139 $-1 #
vertex $-1 $324 $325 #
vertex $-1 $145 $326 #
straight-curve $-1 50.764488662373729 19.986896823033035 71.552811586436903 0 0 -1 I I #
coedge $-1 $231 $231 $-1 $327 reversed $148 $-1 #
edge $-1 $328 0 $328 6.2831853071796004 $149 $329 forward 7 unknown #
vertex $-1 $152 $330 #
ellipse-curve $-1 47.341751803011043 22.318634040876304 4.9731210282383493 0.78801076186113728 0 0.61566146476048833 0.30783073238024417 0 -0.39400538093056864 1 I I #
coedge $-1 $235 $235 $-1 $331 reversed $155 $-1 #
edge $-1 $332 0 $332 6.2831853071796004 $156 $333 forward 7 unknown #
vertex $-1 $159 $334 #
ellipse-curve $-1 47.341751803011043 25.816239867641201 4.9731210282383493 0.78801076186113728 0 0.61566146476048833 0.30783073238024417 0 -0.39400538093056864 1 I I #
face $-1 $-1 $175 $24 $-1 $335 reversed single #
loop $-1 $-1 $255 $160 #
plane-surface $-1 0 28.14797708548447 0 0 -1 0 0 0 -1 forward_v I I I I #
coedge $-1 $336 $253 $256 $337 forward $161 $-1 #
coedge $-1 $259 $163 $164 $247 reversed $101 $-1 #
coedge $-1 $253 $336 $163 $245 reversed $161 $-1 #
edge $-1 $260 -9.3540245516477061 $338 9.3540245516477061 $244 $339 forward 7 unknown #
coedge $-1 $165 $164 $336 $340 forward $65 $-1 #
edge $-1 $251 -50.764488662373729 $338 50.764488662373729 $243 $341 forward 7 unknown #
coedge $-1 $256 $255 $165 $249 reversed $240 $-1 #
edge $-1 $342 -50.764488662373729 $250 50.764488662373729 $248 $343 forward 7 unknown #
vertex $-1 $167 $344 #
vertex $-1 $262 $345 #
straight-curve $-1 50.764488662373729 0 -9.3540245516477061 0 -1 0 I I #
coedge $-1 $242 $244 $168 $254 reversed $161 $-1 #
edge $-1 $257 -28.14797708548447 $260 28.14797708548447 $253 $346 forward 7 unknown #
coedge $-1 $248 $169 $174 $263 forward $240 $-1 #
coedge $-1 $169 $248 $242 $337 reversed $240 $-1 #
vertex $-1 $170 $347 #
straight-curve $-1 0 28.14797708548447 9.3540245516477061 -1 0 0 I I #
coedge $-1 $171 $243 $173 $262 reversed $101 $-1 #
vertex $-1 $254 $348 #
straight-curve $-1 0 -28.14797708548447 9.3540245516477061 1 0 0 I I #
edge $-1 $176 -9.3540245516477061 $251 9.3540245516477061 $173 $349 forward 7 unknown #
edge $-1 $177 -9.3540245516477061 $250 9.3540245516477061 $174 $350 forward 7 unknown #
point $-1 50.764488662373729 -28.14797708548447 9.3540245516477061 #
point $-1 50.764488662373729 28.14797708548447 9.3540245516477061 #
face $-1 $-1 $280 $25 $-1 $351 reversed single #
loop $-1 $-1 $352 $179 #
plane-surface $-1 0 -35.915965355338983 7.1080252546416123 0 1 0 0 0 1 forward_v I I I I #
coedge $-1 $353 $182 $191 $284 reversed $109 $-1 #
coedge $-1 $182 $353 $183 $272 reversed $109 $-1 #
coedge $-1 $184 $183 $354 $355 forward $69 $-1 #
edge $-1 $276 28.14797708548447 $356 35.915965355338983 $270 $357 forward 7 unknown #
coedge $-1 $358 $188 $184 $274 reversed $280 $-1 #
edge $-1 $359 -35.915965355338983 $275 -28.14797708548447 $273 $360 forward 7 unknown #
vertex $-1 $189 $361 #
vertex $-1 $272 $362 #
straight-curve $-1 0 -28.14797708548447 9.3540245516477061 -1 0 0 I I #
straight-curve $-1 -50.764488662373729 -28.14797708548447 0 0 0 -1 I I #
coedge $-1 $188 $358 $190 $283 reversed $280 $-1 #
loop $-1 $-1 $188 $266 #
straight-curve $-1 50.764488662373729 -28.14797708548447 0 0 0 1 I I #
coedge $-1 $191 $190 $363 $364 forward $180 $-1 #
edge $-1 $192 -3.88399413492726 $365 3.8839941349272564 $279 $366 forward 7 unknown #
edge $-1 $367 -3.8839941349272564 $193 3.88399413492726 $269 $368 forward 7 unknown #
point $-1 50.764488662373729 -28.147977085484467 4.8620259576355185 #
point $-1 -50.764488662373729 -28.147977085484467 4.8620259576355185 #
loop $-1 $-1 $202 $195 #
plane-surface $-1 -50.764488662373729 0 0 1 0 0 0 0 -1 forward_v I I I I #
coedge $-1 $369 $370 $199 $291 forward $196 $-1 #
coedge $-1 $199 $198 $296 $371 reversed $73 $-1 #
edge $-1 $293 4.2746402173694369 $372 15.393532840263195 $289 $373 forward 7 unknown #
coedge $-1 $205 $200 $370 $374 forward $117 $-1 #
vertex $-1 $374 $375 #
straight-curve $-1 -43.919014943648371 12.033718477129376 9.3540245516477061 0 1 0 I I #
coedge $-1 $376 $202 $205 $300 reversed $287 $-1 #
coedge $-1 $202 $376 $290 $371 forward $287 $-1 #
vertex $-1 $203 $377 #
straight-curve $-1 -50.764488662373729 19.986896823033035 31.549848200108716 0 0 1 I I #
straight-curve $-1 -50.764488662373736 19.986896823033035 0.59221750482900859 -0.61566146476048833 0 -0.78801076186113728 I I #
edge $-1 $378 -28.14797708548447 $206 -19.986896823033035 $295 $379 forward 7 unknown #
point $-1 -50.764488662373729 19.986896823033035 9.3540245516477061 #
point $-1 -43.919014943648371 19.986896823033035 9.3540245516477061 #
edge $-1 $380 1 $380 0 $209 $-1 forward 7 unknown #
vertex $-1 $210 $381 #
ellipse-curve $-1 -46.014167584364195 22.318634040876304 3.9358985888967739 -0.78801076186113728 0 0.61566146476048833 0.30783073238024417 0 0.39400538093056864 1 I I #
point $-1 -47.033921070630804 22.318634040876304 5.3671264091689235 #
edge $-1 $382 1 $382 0 $213 $-1 forward 7 unknown #
vertex $-1 $214 $383 #
ellipse-curve $-1 -46.014167584364195 25.816239867641201 3.9358985888967739 -0.78801076186113728 0 0.61566146476048833 0.30783073238024417 0 0.39400538093056864 1 I I #
point $-1 -47.033921070630804 25.816239867641201 5.3671264091689235 #
loop $-1 $-1 $314 $217 #
plane-surface $-1 0 28.14797708548447 0 0 -1 0 0 0 -1 forward_v I I I I #
coedge $-1 $221 $220 $320 $384 reversed $87 $-1 #
coedge $-1 $385 $386 $221 $315 forward $311 $-1 #
edge $-1 $317 -66.158021502636927 $387 -55.039128879743146 $314 $388 forward 7 unknown #
coedge $-1 $227 $222 $386 $389 reversed $139 $-1 #
vertex $-1 $223 $390 #
straight-curve $-1 50.764488662373736 12.033718477129376 0.59221750482900148 0 1 0 I I #
coedge $-1 $391 $224 $227 $324 forward $218 $-1 #
coedge $-1 $224 $391 $313 $384 forward $218 $-1 #
vertex $-1 $225 $392 #
straight-curve $-1 34.131468269820843 19.986896823033035 9.3540245516477114 1 0 0 I I #
straight-curve $-1 -11.742990233014694 19.986896823033035 80.598144277485375 -0.61566146476048833 0 0.78801076186113728 I I #
edge $-1 $228 19.986896823033035 $393 28.14797708548447 $227 $394 forward 7 unknown #
point $-1 50.764488662373729 19.986896823033035 9.3540245516477061 #
point $-1 50.764488662373729 19.986896823033035 0.59221750482899438 #
edge $-1 $395 1 $395 0 $231 $-1 forward 7 unknown #
vertex $-1 $232 $396 #
ellipse-curve $-1 46.014167584364195 22.318634040876304 3.9358985888967704 0.78801076186113728 0 0.61566146476048833 0.30783073238024417 0 -0.39400538093056864 1 I I #
point $-1 47.649582535391289 22.318634040876304 4.5791156473077832 #
edge $-1 $397 1 $397 0 $235 $-1 forward 7 unknown #
vertex $-1 $236 $398 #
ellipse-curve $-1 46.014167584364195 25.816239867641201 3.9358985888967704 0.78801076186113728 0 0.61566146476048833 0.30783073238024417 0 -0.39400538093056864 1 I I #
point $-1 47.649582535391289 25.816239867641201 4.5791156473077832 #
plane-surface $-1 50.764488662373729 0 0 -1 0 0 0 0 1 forward_v I I I I #
coedge $-1 $244 $242 $246 $340 reversed $161 $-1 #
edge $-1 $257 -9.3540245516477061 $342 9.3540245516477061 $256 $399 forward 7 unknown #
vertex $-1 $340 $400 #
straight-curve $-1 -50.764488662373729 -28.14797708548447 0 0 0 -1 I I #
edge $-1 $338 -28.14797708548447 $342 28.14797708548447 $336 $401 forward 7 unknown #
straight-curve $-1 0 -28.14797708548447 -9.3540245516477061 -1 0 0 I I #
vertex $-1 $249 $402 #
straight-curve $-1 0 28.14797708548447 -9.3540245516477061 1 0 0 I I #
point $-1 50.764488662373729 28.14797708548447 -9.3540245516477061 #
point $-1 50.764488662373729 -28.14797708548447 -9.3540245516477061 #
straight-curve $-1 -50.764488662373729 0 9.3540245516477061 0 -1 0 I I #
point $-1 -50.764488662373729 28.14797708548447 9.3540245516477061 #
point $-1 -50.764488662373729 -28.14797708548447 9.3540245516477061 #
straight-curve $-1 50.764488662373729 -28.14797708548447 0 0 0 -1 I I #
straight-curve $-1 50.764488662373729 28.14797708548447 0 0 0 -1 I I #
plane-surface $-1 50.764488662373729 0 0 -1 0 0 0 0 1 forward_v I I I I #
coedge $-1 $363 $354 $353 $403 forward $267 $-1 #
coedge $-1 $270 $269 $352 $403 reversed $109 $-1 #
coedge $-1 $352 $404 $271 $355 reversed $267 $-1 #
edge $-1 $356 -50.764488662373729 $359 50.764488662373729 $354 $405 forward 7 unknown #
vertex $-1 $272 $406 #
straight-curve $-1 -50.764488662373729 0 9.3540245516477061 0 -1 0 I I #
coedge $-1 $279 $273 $404 $407 forward $280 $-1 #
vertex $-1 $274 $408 #
straight-curve $-1 50.764488662373729 0 9.3540245516477061 0 1 0 I I #
point $-1 50.764488662373729 -28.14797708548447 9.3540245516477061 #
point $-1 -50.764488662373729 -28.14797708548447 9.3540245516477061 #
coedge $-1 $404 $352 $282 $364 reversed $267 $-1 #
edge $-1 $365 -50.764488662373729 $367 50.764488662373729 $363 $409 forward 7 unknown #
vertex $-1 $407 $410 #
straight-curve $-1 50.764488662373729 -32.031971220411727 4.8620259576355185 0 -1 0 I I #
vertex $-1 $284 $411 #
straight-curve $-1 -50.764488662373729 -32.031971220411727 4.8620259576355185 0 1 0 I I #
coedge $-1 $370 $289 $376 $412 reversed $196 $-1 #
coedge $-1 $289 $369 $292 $374 reversed $196 $-1 #
edge $-1 $372 -16.114258608355094 $297 -7.9531783459036589 $296 $413 forward 7 unknown #
vertex $-1 $291 $414 #
straight-curve $-1 -41.287283686098611 28.14797708548447 12.722487046019253 -0.61566146476048833 0 -0.78801076186113728 I I #
edge $-1 $293 43.919014943648371 $378 50.764488662373729 $370 $415 forward 7 unknown #
point $-1 -43.919014943648371 28.14797708548447 9.3540245516477061 #
coedge $-1 $296 $295 $369 $412 forward $287 $-1 #
point $-1 -50.764488662373729 19.986896823033035 0.59221750482901769 #
vertex $-1 $374 $416 #
straight-curve $-1 -50.764488662373729 0 9.3540245516477061 0 -1 0 I I #
vertex $-1 $303 $417 #
point $-1 -45.706336851983956 22.318634040876304 4.3299039698273427 #
vertex $-1 $307 $418 #
point $-1 -45.706336851983956 25.816239867641201 4.3299039698273427 #
edge $-1 $387 -16.114258608355094 $321 -7.9531783459036589 $320 $419 forward 7 unknown #
coedge $-1 $386 $314 $391 $420 reversed $311 $-1 #
coedge $-1 $314 $385 $316 $389 forward $311 $-1 #
vertex $-1 $315 $421 #
straight-curve $-1 10.033544238404394 28.14797708548447 52.725450432347429 -0.61566146476048833 0 0.78801076186113728 I I #
edge $-1 $393 -9.3540245516477061 $317 -0.59221750482900259 $316 $422 forward 7 unknown #
point $-1 50.764488662373729 28.14797708548447 0.59221750482900259 #
coedge $-1 $320 $319 $385 $420 forward $218 $-1 #
point $-1 43.919014943648357 19.986896823033035 9.3540245516477114 #
vertex $-1 $324 $423 #
straight-curve $-1 50.764488662373729 0 9.3540245516477061 0 1 0 I I #
vertex $-1 $327 $424 #
point $-1 46.321998316744441 22.318634040876304 3.5418932079662016 #
vertex $-1 $331 $425 #
point $-1 46.321998316744441 25.816239867641201 3.5418932079662016 #
straight-curve $-1 -50.764488662373729 28.14797708548447 0 0 0 -1 I I #
point $-1 -50.764488662373729 -28.14797708548447 -9.3540245516477061 #
straight-curve $-1 -50.764488662373729 0 -9.3540245516477061 0 1 0 I I #
point $-1 -50.764488662373729 28.14797708548447 -9.3540245516477061 #
edge $-1 $356 -2.2459992970060938 $367 2.2459992970060938 $353 $426 forward 7 unknown #
coedge $-1 $354 $363 $358 $407 reversed $267 $-1 #
straight-curve $-1 0 -35.915965355338983 9.3540245516477061 1 0 0 I I #
point $-1 -50.764488662373729 -35.915965355338983 9.3540245516477061 #
edge $-1 $359 -2.2459992970060938 $365 2.2459992970060938 $358 $427 forward 7 unknown #
point $-1 50.764488662373729 -35.915965355338983 9.3540245516477061 #
straight-curve $-1 0 -35.915965355338983 4.8620259576355185 -1 0 0 I I #
point $-1 50.764488662373729 -35.915965355338983 4.8620259576355185 #
point $-1 -50.764488662373729 -35.915965355338983 4.8620259576355185 #
edge $-1 $378 -9.3540245516477061 $372 -0.59221750482901769 $369 $428 forward 7 unknown #
straight-curve $-1 -50.764488662373729 12.033718477129376 0.59221750482901814 0 -1 0 I I #
point $-1 -50.764488662373729 28.14797708548447 0.59221750482901769 #
straight-curve $-1 0 28.14797708548447 9.3540245516477061 -1 0 0 I I #
point $-1 -50.764488662373729 28.14797708548447 9.3540245516477061 #
point $-1 -45.62016220343363 22.318634040876304 3.6280678565165294 #
point $-1 -45.62016220343363 25.816239867641201 3.6280678565165294 #
straight-curve $-1 43.919014943648371 12.033718477129376 9.3540245516477043 0 -1 0 I I #
edge $-1 $393 -50.764488662373729 $387 -43.919014943648357 $385 $429 forward 7 unknown #
point $-1 43.919014943648357 28.14797708548447 9.3540245516477114 #
straight-curve $-1 50.764488662373729 28.14797708548447 0 0 0 -1 I I #
point $-1 50.764488662373729 28.14797708548447 9.3540245516477061 #
point $-1 45.62016220343363 22.318634040876304 3.6280678565165259 #
point $-1 45.62016220343363 25.816239867641201 3.6280678565165259 #
straight-curve $-1 -50.764488662373729 -35.915965355338983 7.1080252546416123 0 0 -1 I I #
straight-curve $-1 50.764488662373729 -35.915965355338983 7.1080252546416123 0 0 -1 I I #
straight-curve $-1 -50.764488662373729 28.14797708548447 0 0 0 -1 I I #
straight-curve $-1 0 28.14797708548447 9.3540245516477061 -1 0 0 I I #
End-of-ACIS-data 