500 0 18 0           
7 Unknown 11 ACIS 5.0 NT 24 Thu Mar 25 15:18:30 1999 
-1 9.9999999999999995e-007 1e-010 
body $-1 $18 $-1 $19 #
body $-1 $20 $-1 $21 #
body $-1 $22 $-1 $23 #
body $-1 $24 $-1 $25 #
body $-1 $26 $-1 $27 #
body $-1 $28 $-1 $29 #
body $-1 $30 $-1 $31 #
body $-1 $32 $-1 $33 #
body $-1 $34 $-1 $35 #
body $-1 $36 $-1 $37 #
body $-1 $38 $-1 $39 #
body $-1 $40 $-1 $41 #
body $-1 $42 $-1 $43 #
body $-1 $44 $-1 $45 #
body $-1 $46 $-1 $47 #
body $-1 $48 $-1 $49 #
body $-1 $50 $-1 $51 #
body $-1 $52 $-1 $53 #
lump $-1 $-1 $54 $0 #
transform $-1 1 0 0 0 1 0 0 0 1 62.556840723899043 43.461607076618606 18.153547326704935 1 rotate no_reflect no_shear #
lump $-1 $-1 $55 $1 #
transform $-1 1 0 0 0 1 0 0 0 1 62.556840723899043 43.461607076618606 18.153547326704935 1 rotate no_reflect no_shear #
lump $-1 $-1 $56 $2 #
transform $-1 1 0 0 0 1 0 0 0 1 62.556840723899043 43.461607076618606 18.153547326704935 1 rotate no_reflect no_shear #
lump $-1 $-1 $57 $3 #
transform $-1 1 0 0 0 1 0 0 0 1 62.556840723899043 43.461607076618606 18.153547326704935 1 rotate no_reflect no_shear #
lump $-1 $-1 $58 $4 #
transform $-1 1 0 0 0 1 0 0 0 1 62.556840723899043 43.461607076618606 18.153547326704935 1 rotate no_reflect no_shear #
lump $-1 $-1 $59 $5 #
transform $-1 1 0 0 0 1 0 0 0 1 62.556840723899043 43.461607076618606 18.153547326704935 1 rotate no_reflect no_shear #
lump $-1 $-1 $60 $6 #
transform $-1 1 0 0 0 1 0 0 0 1 62.556840723899043 43.461607076618606 18.153547326704935 1 rotate no_reflect no_shear #
lump $-1 $-1 $61 $7 #
transform $-1 1 0 0 0 1 0 0 0 1 62.556840723899043 43.461607076618606 18.153547326704935 1 rotate no_reflect no_shear #
lump $-1 $-1 $62 $8 #
transform $-1 1 0 0 0 1 0 0 0 1 62.556840723899043 43.461607076618606 18.153547326704935 1 rotate no_reflect no_shear #
lump $-1 $-1 $63 $9 #
transform $-1 1 0 0 0 1 0 0 0 1 62.556840723899043 43.461607076618606 18.153547326704935 1 rotate no_reflect no_shear #
lump $-1 $-1 $64 $10 #
transform $-1 1 0 0 0 1 0 0 0 1 62.556840723899043 43.461607076618606 18.153547326704935 1 rotate no_reflect no_shear #
lump $-1 $-1 $65 $11 #
transform $-1 1 0 0 0 1 0 0 0 1 62.556840723899043 43.461607076618606 18.153547326704935 1 rotate no_reflect no_shear #
lump $-1 $-1 $66 $12 #
transform $-1 1 0 0 0 1 0 0 0 1 62.556840723899043 43.461607076618606 18.153547326704935 1 rotate no_reflect no_shear #
lump $-1 $-1 $67 $13 #
transform $-1 1 0 0 0 1 0 0 0 1 62.556840723899043 43.461607076618606 18.153547326704935 1 rotate no_reflect no_shear #
lump $-1 $-1 $68 $14 #
transform $-1 1 0 0 0 1 0 0 0 1 62.556840723899043 43.461607076618606 18.153547326704935 1 rotate no_reflect no_shear #
lump $-1 $-1 $69 $15 #
transform $-1 1 0 0 0 1 0 0 0 1 62.556840723899043 43.461607076618606 18.153547326704935 1 rotate no_reflect no_shear #
lump $-1 $-1 $70 $16 #
transform $-1 1 0 0 0 1 0 0 0 1 62.556840723899043 43.461607076618606 18.153547326704935 1 rotate no_reflect no_shear #
lump $-1 $-1 $71 $17 #
transform $-1 1 0 0 0 1 0 0 0 1 62.556840723899043 43.461607076618606 18.153547326704935 1 rotate no_reflect no_shear #
shell $-1 $-1 $-1 $72 $-1 $18 #
shell $-1 $-1 $-1 $73 $-1 $20 #
shell $-1 $-1 $-1 $74 $-1 $22 #
shell $-1 $-1 $-1 $75 $-1 $24 #
shell $-1 $-1 $-1 $76 $-1 $26 #
shell $-1 $-1 $-1 $77 $-1 $28 #
shell $-1 $-1 $-1 $78 $-1 $30 #
shell $-1 $-1 $-1 $79 $-1 $32 #
shell $-1 $-1 $-1 $80 $-1 $34 #
shell $-1 $-1 $-1 $81 $-1 $36 #
shell $-1 $-1 $-1 $82 $-1 $38 #
shell $-1 $-1 $-1 $83 $-1 $40 #
shell $-1 $-1 $-1 $84 $-1 $42 #
shell $-1 $-1 $-1 $85 $-1 $44 #
shell $-1 $-1 $-1 $86 $-1 $46 #
shell $-1 $-1 $-1 $87 $-1 $48 #
shell $-1 $-1 $-1 $88 $-1 $50 #
shell $-1 $-1 $-1 $89 $-1 $52 #
face $-1 $90 $91 $54 $-1 $92 forward single #
face $-1 $93 $94 $55 $-1 $95 forward single #
face $-1 $96 $97 $56 $-1 $98 reversed single #
face $-1 $99 $100 $57 $-1 $101 forward single #
face $-1 $102 $103 $58 $-1 $104 forward single #
face $-1 $105 $106 $59 $-1 $107 forward single #
face $-1 $108 $109 $60 $-1 $110 reversed single #
face $-1 $111 $112 $61 $-1 $113 forward single #
face $-1 $114 $115 $62 $-1 $116 forward single #
face $-1 $117 $118 $63 $-1 $119 forward single #
face $-1 $120 $121 $64 $-1 $122 reversed single #
face $-1 $123 $124 $65 $-1 $125 forward single #
face $-1 $126 $127 $66 $-1 $128 forward single #
face $-1 $129 $130 $67 $-1 $131 forward single #
face $-1 $132 $133 $68 $-1 $134 reversed single #
face $-1 $135 $136 $69 $-1 $137 forward single #
face $-1 $138 $139 $70 $-1 $140 forward single #
face $-1 $141 $142 $71 $-1 $143 forward single #
face $-1 $144 $145 $54 $-1 $146 reversed single #
loop $-1 $-1 $147 $72 #
plane-surface $-1 0 0 18.153547326704935 0 0 1 1 0 0 forward_v I I I I #
face $-1 $148 $149 $55 $-1 $150 reversed single #
loop $-1 $-1 $151 $73 #
plane-surface $-1 0 -35.962984822839346 -12.107092515028789 0 0 1 1 0 0 forward_v I I I I #
face $-1 $152 $153 $56 $-1 $154 reversed single #
loop $-1 $-1 $155 $74 #
plane-surface $-1 34.877724640971863 2.3840179440612239 182.66350077102734 0 -1 0 -0.5877852598018023 0 -0.80901698891910034 forward_v I I I I #
face $-1 $156 $157 $57 $-1 $158 forward single #
loop $-1 $159 $160 $75 #
cone-surface $-1 55.111466137652698 -9.8804716851971079 12.489413153637893 -0.5877852598018023 0 -0.80901698891910034 0.80901698891910034 0 -0.5877852598018023 1 I I 0 1 1 forward I I I I #
face $-1 $161 $162 $58 $-1 $163 forward single #
loop $-1 $164 $165 $76 #
cone-surface $-1 55.111466137652698 -5.2812880742252375 12.489413153637893 -0.5877852598018023 0 -0.80901698891910034 0.80901698891910034 0 -0.5877852598018023 1 I I 0 1 1 forward I I I I #
face $-1 $166 $167 $59 $-1 $168 forward single #
loop $-1 $169 $170 $77 #
cone-surface $-1 55.111466137652698 -0.68210446325336704 12.489413153637893 -0.5877852598018023 0 -0.80901698891910034 0.80901698891910034 0 -0.5877852598018023 1 I I 0 1 1 forward I I I I #
face $-1 $171 $172 $60 $-1 $173 reversed single #
loop $-1 $-1 $174 $78 #
plane-surface $-1 34.877724640971863 27.943838600070205 182.66350077102734 0 -1 0 -0.5877852598018023 0 -0.80901698891910034 forward_v I I I I #
face $-1 $175 $176 $61 $-1 $177 forward single #
loop $-1 $178 $179 $79 #
cone-surface $-1 55.111466137652698 15.679348970811873 12.489413153637893 -0.5877852598018023 0 -0.80901698891910034 0.80901698891910034 0 -0.5877852598018023 1 I I 0 1 1 forward I I I I #
face $-1 $180 $181 $62 $-1 $182 forward single #
loop $-1 $183 $184 $80 #
cone-surface $-1 55.111466137652698 20.278532581783743 12.489413153637893 -0.5877852598018023 0 -0.80901698891910034 0.80901698891910034 0 -0.5877852598018023 1 I I 0 1 1 forward I I I I #
face $-1 $185 $186 $63 $-1 $187 forward single #
loop $-1 $188 $189 $81 #
cone-surface $-1 55.111466137652698 24.877716192755614 12.489413153637893 -0.5877852598018023 0 -0.80901698891910034 0.80901698891910034 0 -0.5877852598018023 1 I I 0 1 1 forward I I I I #
face $-1 $190 $191 $64 $-1 $192 reversed single #
loop $-1 $-1 $193 $82 #
plane-surface $-1 -136.09681847845297 -12.946594092511685 109.12352301647341 0 1 0 -0.5877852598018023 0 0.80901698891910034 forward_v I I I I #
face $-1 $194 $195 $65 $-1 $196 forward single #
loop $-1 $197 $198 $83 #
cone-surface $-1 -55.111466137652698 -9.8804716851971079 12.489413153637889 0.5877852598018023 0 -0.80901698891910034 0.80901698891910034 0 0.5877852598018023 1 I I 0 1 1 forward I I I I #
face $-1 $199 $200 $66 $-1 $201 forward single #
loop $-1 $202 $203 $84 #
cone-surface $-1 -55.111466137652698 -5.2812880742252375 12.489413153637889 0.5877852598018023 0 -0.80901698891910034 0.80901698891910034 0 0.5877852598018023 1 I I 0 1 1 forward I I I I #
face $-1 $204 $205 $67 $-1 $206 forward single #
loop $-1 $207 $208 $85 #
cone-surface $-1 -55.111466137652698 -0.68210446325336704 12.489413153637889 0.5877852598018023 0 -0.80901698891910034 0.80901698891910034 0 0.5877852598018023 1 I I 0 1 1 forward I I I I #
face $-1 $209 $210 $68 $-1 $211 reversed single #
loop $-1 $-1 $212 $86 #
plane-surface $-1 -136.09681847845297 12.613226563497296 109.12352301647341 0 1 0 -0.5877852598018023 0 0.80901698891910034 forward_v I I I I #
face $-1 $213 $214 $69 $-1 $215 forward single #
loop $-1 $216 $217 $87 #
cone-surface $-1 -55.111466137652698 15.679348970811873 12.489413153637889 0.5877852598018023 0 -0.80901698891910034 0.80901698891910034 0 0.5877852598018023 1 I I 0 1 1 forward I I I I #
face $-1 $218 $219 $70 $-1 $220 forward single #
loop $-1 $221 $222 $88 #
cone-surface $-1 -55.111466137652698 20.278532581783743 12.489413153637889 0.5877852598018023 0 -0.80901698891910034 0.80901698891910034 0 0.5877852598018023 1 I I 0 1 1 forward I I I I #
face $-1 $223 $224 $71 $-1 $225 forward single #
loop $-1 $226 $227 $89 #
cone-surface $-1 -55.111466137652698 24.877716192755614 12.489413153637889 0.5877852598018023 0 -0.80901698891910034 0.80901698891910034 0 0.5877852598018023 1 I I 0 1 1 forward I I I I #
face $-1 $228 $229 $54 $-1 $230 reversed single #
loop $-1 $-1 $231 $90 #
plane-surface $-1 0 0 -18.153547326704935 0 0 1 1 0 0 forward_v I I I I #
coedge $-1 $232 $233 $234 $235 forward $91 $-1 #
face $-1 $236 $237 $55 $-1 $238 reversed single #
loop $-1 $-1 $239 $93 #
plane-surface $-1 0 -28.464362569060086 -15.130319920866862 0 -1 0 0 0 -1 forward_v I I I I #
coedge $-1 $240 $241 $242 $243 reversed $94 $-1 #
face $-1 $244 $245 $56 $-1 $246 reversed single #
loop $-1 $-1 $247 $96 #
plane-surface $-1 -38.662253113582068 -5.2812880742252304 81.444406933546233 0.5877852598018023 0 0.80901698891910034 0.80901698891910034 0 -0.5877852598018023 forward_v I I I I #
coedge $-1 $248 $249 $250 $251 reversed $97 $-1 #
face $-1 $-1 $252 $57 $-1 $253 forward single #
loop $-1 $254 $255 $99 #
cone-surface $-1 54.4255492434704 -9.8804716851971079 11.545329559967609 -0.5877852598018023 0 -0.80901698891910034 0.40450849445955017 0 -0.29389262990090115 1 I I -0.70710678118654746 0.70710678118654746 0.5 forward I I I I #
loop $-1 $-1 $256 $75 #
coedge $-1 $160 $160 $257 $258 reversed $100 $-1 #
face $-1 $-1 $259 $58 $-1 $260 forward single #
loop $-1 $261 $262 $102 #
cone-surface $-1 54.4255492434704 -5.2812880742252375 11.545329559967609 -0.5877852598018023 0 -0.80901698891910034 0.40450849445955017 0 -0.29389262990090115 1 I I -0.70710678118654746 0.70710678118654746 0.5 forward I I I I #
loop $-1 $-1 $263 $76 #
coedge $-1 $165 $165 $264 $265 reversed $103 $-1 #
face $-1 $-1 $266 $59 $-1 $267 forward single #
loop $-1 $268 $269 $105 #
cone-surface $-1 54.4255492434704 -0.68210446325336704 11.545329559967609 -0.5877852598018023 0 -0.80901698891910034 0.40450849445955017 0 -0.29389262990090115 1 I I -0.70710678118654746 0.70710678118654746 0.5 forward I I I I #
loop $-1 $-1 $270 $77 #
coedge $-1 $170 $170 $271 $272 reversed $106 $-1 #
face $-1 $273 $274 $60 $-1 $275 reversed single #
loop $-1 $-1 $276 $108 #
plane-surface $-1 -38.662253113582068 20.27853258178375 81.444406933546233 0.5877852598018023 0 0.80901698891910034 0.80901698891910034 0 -0.5877852598018023 forward_v I I I I #
coedge $-1 $277 $278 $279 $280 reversed $109 $-1 #
face $-1 $-1 $281 $61 $-1 $282 forward single #
loop $-1 $283 $284 $111 #
cone-surface $-1 54.4255492434704 15.679348970811873 11.545329559967609 -0.5877852598018023 0 -0.80901698891910034 0.40450849445955017 0 -0.29389262990090115 1 I I -0.70710678118654746 0.70710678118654746 0.5 forward I I I I #
loop $-1 $-1 $285 $79 #
coedge $-1 $179 $179 $286 $287 reversed $112 $-1 #
face $-1 $-1 $288 $62 $-1 $289 forward single #
loop $-1 $290 $291 $114 #
cone-surface $-1 54.4255492434704 20.278532581783743 11.545329559967609 -0.5877852598018023 0 -0.80901698891910034 0.40450849445955017 0 -0.29389262990090115 1 I I -0.70710678118654746 0.70710678118654746 0.5 forward I I I I #
loop $-1 $-1 $292 $80 #
coedge $-1 $184 $184 $293 $294 reversed $115 $-1 #
face $-1 $-1 $295 $63 $-1 $296 forward single #
loop $-1 $297 $298 $117 #
cone-surface $-1 54.4255492434704 24.877716192755614 11.545329559967609 -0.5877852598018023 0 -0.80901698891910034 0.40450849445955017 0 -0.29389262990090115 1 I I -0.70710678118654746 0.70710678118654746 0.5 forward I I I I #
loop $-1 $-1 $299 $81 #
coedge $-1 $189 $189 $300 $301 reversed $118 $-1 #
face $-1 $302 $303 $64 $-1 $304 reversed single #
loop $-1 $-1 $305 $120 #
plane-surface $-1 -62.556840723899043 -5.2812880742252304 7.9044291789923022 -0.5877852598018023 0 0.80901698891910034 0.80901698891910034 0 0.5877852598018023 forward_v I I I I #
coedge $-1 $306 $307 $308 $309 reversed $121 $-1 #
face $-1 $-1 $310 $65 $-1 $311 forward single #
loop $-1 $312 $313 $123 #
cone-surface $-1 -54.4255492434704 -9.8804716851971079 11.545329559967605 0.5877852598018023 0 -0.80901698891910034 0.40450849445955017 0 0.29389262990090115 1 I I -0.70710678118654746 0.70710678118654746 0.5 forward I I I I #
loop $-1 $-1 $314 $83 #
coedge $-1 $198 $198 $315 $316 reversed $124 $-1 #
face $-1 $-1 $317 $66 $-1 $318 forward single #
loop $-1 $319 $320 $126 #
cone-surface $-1 -54.4255492434704 -5.2812880742252375 11.545329559967605 0.5877852598018023 0 -0.80901698891910034 0.40450849445955017 0 0.29389262990090115 1 I I -0.70710678118654746 0.70710678118654746 0.5 forward I I I I #
loop $-1 $-1 $321 $84 #
coedge $-1 $203 $203 $322 $323 reversed $127 $-1 #
face $-1 $-1 $324 $67 $-1 $325 forward single #
loop $-1 $326 $327 $129 #
cone-surface $-1 -54.4255492434704 -0.68210446325336704 11.545329559967605 0.5877852598018023 0 -0.80901698891910034 0.40450849445955017 0 0.29389262990090115 1 I I -0.70710678118654746 0.70710678118654746 0.5 forward I I I I #
loop $-1 $-1 $328 $85 #
coedge $-1 $208 $208 $329 $330 reversed $130 $-1 #
face $-1 $331 $332 $68 $-1 $333 reversed single #
loop $-1 $-1 $334 $132 #
plane-surface $-1 -62.556840723899043 20.27853258178375 7.9044291789923022 -0.5877852598018023 0 0.80901698891910034 0.80901698891910034 0 0.5877852598018023 forward_v I I I I #
coedge $-1 $335 $336 $337 $338 reversed $133 $-1 #
face $-1 $-1 $339 $69 $-1 $340 forward single #
loop $-1 $341 $342 $135 #
cone-surface $-1 -54.4255492434704 15.679348970811873 11.545329559967605 0.5877852598018023 0 -0.80901698891910034 0.40450849445955017 0 0.29389262990090115 1 I I -0.70710678118654746 0.70710678118654746 0.5 forward I I I I #
loop $-1 $-1 $343 $87 #
coedge $-1 $217 $217 $344 $345 reversed $136 $-1 #
face $-1 $-1 $346 $70 $-1 $347 forward single #
loop $-1 $348 $349 $138 #
cone-surface $-1 -54.4255492434704 20.278532581783743 11.545329559967605 0.5877852598018023 0 -0.80901698891910034 0.40450849445955017 0 0.29389262990090115 1 I I -0.70710678118654746 0.70710678118654746 0.5 forward I I I I #
loop $-1 $-1 $350 $88 #
coedge $-1 $222 $222 $351 $352 reversed $139 $-1 #
face $-1 $-1 $353 $71 $-1 $354 forward single #
loop $-1 $355 $356 $141 #
cone-surface $-1 -54.4255492434704 24.877716192755614 11.545329559967605 0.5877852598018023 0 -0.80901698891910034 0.40450849445955017 0 0.29389262990090115 1 I I -0.70710678118654746 0.70710678118654746 0.5 forward I I I I #
loop $-1 $-1 $357 $89 #
coedge $-1 $227 $227 $358 $359 reversed $142 $-1 #
face $-1 $360 $361 $54 $-1 $362 reversed single #
loop $-1 $-1 $363 $144 #
plane-surface $-1 0 -43.461607076618606 0 0 1 0 0 0 1 forward_v I I I I #
coedge $-1 $364 $365 $366 $367 forward $145 $-1 #
coedge $-1 $368 $147 $369 $370 forward $91 $-1 #
coedge $-1 $147 $368 $371 $372 forward $91 $-1 #
coedge $-1 $373 $374 $147 $235 reversed $375 $-1 #
edge $-1 $376 -43.461607076618606 $377 43.461607076618606 $234 $378 forward 7 unknown #
face $-1 $379 $380 $55 $-1 $381 reversed single #
loop $-1 $-1 $382 $148 #
plane-surface $-1 0 0 -18.153547326704935 0 0 1 1 0 0 forward_v I I I I #
coedge $-1 $383 $384 $385 $386 reversed $149 $-1 #
coedge $-1 $387 $151 $384 $388 forward $94 $-1 #
coedge $-1 $151 $387 $389 $390 reversed $94 $-1 #
coedge $-1 $391 $385 $151 $243 forward $380 $-1 #
edge $-1 $392 10.482870157640413 $393 25.480114665198933 $242 $394 forward 7 unknown #
face $-1 $395 $396 $56 $-1 $397 reversed single #
loop $-1 $-1 $398 $152 #
plane-surface $-1 34.877724640971863 -12.946594092511685 182.66350077102734 0 1 0 0.5877852598018023 0 0.80901698891910034 forward_v I I I I #
coedge $-1 $399 $400 $401 $402 reversed $153 $-1 #
coedge $-1 $249 $155 $403 $404 reversed $97 $-1 #
coedge $-1 $155 $248 $399 $405 reversed $97 $-1 #
coedge $-1 $401 $406 $155 $251 forward $407 $-1 #
edge $-1 $408 -45.117978403413112 $409 -31.011277759483214 $250 $410 forward 7 unknown #
loop $-1 $-1 $257 $156 #
plane-surface $-1 -38.662253113582068 -5.2812880742252304 81.444406933546233 0.5877852598018023 0 0.80901698891910034 0.80901698891910034 0 -0.5877852598018023 forward_v I I I I #
loop $-1 $-1 $411 $99 #
coedge $-1 $255 $255 $256 $412 reversed $157 $-1 #
coedge $-1 $256 $256 $255 $412 forward $159 $-1 #
coedge $-1 $257 $257 $160 $258 forward $252 $-1 #
edge $-1 $413 0 $413 6.2831853071796004 $257 $414 forward 7 unknown #
loop $-1 $-1 $264 $161 #
plane-surface $-1 -38.662253113582068 -5.2812880742252304 81.444406933546233 0.5877852598018023 0 0.80901698891910034 0.80901698891910034 0 -0.5877852598018023 forward_v I I I I #
loop $-1 $-1 $415 $102 #
coedge $-1 $262 $262 $263 $416 reversed $162 $-1 #
coedge $-1 $263 $263 $262 $416 forward $164 $-1 #
coedge $-1 $264 $264 $165 $265 forward $259 $-1 #
edge $-1 $417 0 $417 6.2831853071796004 $264 $418 forward 7 unknown #
loop $-1 $-1 $271 $166 #
plane-surface $-1 -38.662253113582068 -5.2812880742252304 81.444406933546233 0.5877852598018023 0 0.80901698891910034 0.80901698891910034 0 -0.5877852598018023 forward_v I I I I #
loop $-1 $-1 $419 $105 #
coedge $-1 $269 $269 $270 $420 reversed $167 $-1 #
coedge $-1 $270 $270 $269 $420 forward $169 $-1 #
coedge $-1 $271 $271 $170 $272 forward $266 $-1 #
edge $-1 $421 0 $421 6.2831853071796004 $271 $422 forward 7 unknown #
face $-1 $423 $424 $60 $-1 $425 reversed single #
loop $-1 $-1 $426 $171 #
plane-surface $-1 34.877724640971863 12.613226563497296 182.66350077102734 0 1 0 0.5877852598018023 0 0.80901698891910034 forward_v I I I I #
coedge $-1 $427 $428 $429 $430 reversed $172 $-1 #
coedge $-1 $278 $174 $431 $432 reversed $109 $-1 #
coedge $-1 $174 $277 $427 $433 reversed $109 $-1 #
coedge $-1 $429 $434 $174 $280 forward $435 $-1 #
edge $-1 $436 -45.117978403413112 $437 -31.011277759483214 $279 $438 forward 7 unknown #
loop $-1 $-1 $286 $175 #
plane-surface $-1 -38.662253113582068 20.27853258178375 81.444406933546233 0.5877852598018023 0 0.80901698891910034 0.80901698891910034 0 -0.5877852598018023 forward_v I I I I #
loop $-1 $-1 $439 $111 #
coedge $-1 $284 $284 $285 $440 reversed $176 $-1 #
coedge $-1 $285 $285 $284 $440 forward $178 $-1 #
coedge $-1 $286 $286 $179 $287 forward $281 $-1 #
edge $-1 $441 0 $441 6.2831853071796004 $286 $442 forward 7 unknown #
loop $-1 $-1 $293 $180 #
plane-surface $-1 -38.662253113582068 20.27853258178375 81.444406933546233 0.5877852598018023 0 0.80901698891910034 0.80901698891910034 0 -0.5877852598018023 forward_v I I I I #
loop $-1 $-1 $443 $114 #
coedge $-1 $291 $291 $292 $444 reversed $181 $-1 #
coedge $-1 $292 $292 $291 $444 forward $183 $-1 #
coedge $-1 $293 $293 $184 $294 forward $288 $-1 #
edge $-1 $445 0 $445 6.2831853071796004 $293 $446 forward 7 unknown #
loop $-1 $-1 $300 $185 #
plane-surface $-1 -38.662253113582068 20.27853258178375 81.444406933546233 0.5877852598018023 0 0.80901698891910034 0.80901698891910034 0 -0.5877852598018023 forward_v I I I I #
loop $-1 $-1 $447 $117 #
coedge $-1 $298 $298 $299 $448 reversed $186 $-1 #
coedge $-1 $299 $299 $298 $448 forward $188 $-1 #
coedge $-1 $300 $300 $189 $301 forward $295 $-1 #
edge $-1 $449 0 $449 6.2831853071796004 $300 $450 forward 7 unknown #
face $-1 $451 $452 $64 $-1 $453 forward single #
loop $-1 $-1 $454 $190 #
plane-surface $-1 -136.09681847845297 2.3840179440612239 109.12352301647341 0 -1 0 0.5877852598018023 0 -0.80901698891910034 forward_v I I I I #
coedge $-1 $455 $456 $457 $458 reversed $191 $-1 #
coedge $-1 $307 $193 $459 $460 reversed $121 $-1 #
coedge $-1 $193 $306 $455 $461 reversed $121 $-1 #
coedge $-1 $457 $462 $193 $309 forward $452 $-1 #
edge $-1 $463 5.4915685153274438 $464 19.598269159257327 $308 $465 forward 7 unknown #
loop $-1 $-1 $315 $194 #
plane-surface $-1 -62.556840723899043 -5.2812880742252304 7.9044291789923022 -0.5877852598018023 0 0.80901698891910034 0.80901698891910034 0 0.5877852598018023 forward_v I I I I #
loop $-1 $-1 $466 $123 #
coedge $-1 $313 $313 $314 $467 reversed $195 $-1 #
coedge $-1 $314 $314 $313 $467 forward $197 $-1 #
coedge $-1 $315 $315 $198 $316 forward $310 $-1 #
edge $-1 $468 0 $468 6.2831853071796004 $315 $469 forward 7 unknown #
loop $-1 $-1 $322 $199 #
plane-surface $-1 -62.556840723899043 -5.2812880742252304 7.9044291789923022 -0.5877852598018023 0 0.80901698891910034 0.80901698891910034 0 0.5877852598018023 forward_v I I I I #
loop $-1 $-1 $470 $126 #
coedge $-1 $320 $320 $321 $471 reversed $200 $-1 #
coedge $-1 $321 $321 $320 $471 forward $202 $-1 #
coedge $-1 $322 $322 $203 $323 forward $317 $-1 #
edge $-1 $472 0 $472 6.2831853071796004 $322 $473 forward 7 unknown #
loop $-1 $-1 $329 $204 #
plane-surface $-1 -62.556840723899043 -5.2812880742252304 7.9044291789923022 -0.5877852598018023 0 0.80901698891910034 0.80901698891910034 0 0.5877852598018023 forward_v I I I I #
loop $-1 $-1 $474 $129 #
coedge $-1 $327 $327 $328 $475 reversed $205 $-1 #
coedge $-1 $328 $328 $327 $475 forward $207 $-1 #
coedge $-1 $329 $329 $208 $330 forward $324 $-1 #
edge $-1 $476 0 $476 6.2831853071796004 $329 $477 forward 7 unknown #
face $-1 $478 $479 $68 $-1 $480 forward single #
loop $-1 $-1 $481 $209 #
plane-surface $-1 -136.09681847845297 27.943838600070205 109.12352301647341 0 -1 0 0.5877852598018023 0 -0.80901698891910034 forward_v I I I I #
coedge $-1 $482 $483 $484 $485 reversed $210 $-1 #
coedge $-1 $336 $212 $486 $487 reversed $133 $-1 #
coedge $-1 $212 $335 $482 $488 reversed $133 $-1 #
coedge $-1 $484 $489 $212 $338 forward $479 $-1 #
edge $-1 $490 5.4915685153274438 $491 19.598269159257327 $337 $492 forward 7 unknown #
loop $-1 $-1 $344 $213 #
plane-surface $-1 -62.556840723899043 20.27853258178375 7.9044291789923022 -0.5877852598018023 0 0.80901698891910034 0.80901698891910034 0 0.5877852598018023 forward_v I I I I #
loop $-1 $-1 $493 $135 #
coedge $-1 $342 $342 $343 $494 reversed $214 $-1 #
coedge $-1 $343 $343 $342 $494 forward $216 $-1 #
coedge $-1 $344 $344 $217 $345 forward $339 $-1 #
edge $-1 $495 0 $495 6.2831853071796004 $344 $496 forward 7 unknown #
loop $-1 $-1 $351 $218 #
plane-surface $-1 -62.556840723899043 20.27853258178375 7.9044291789923022 -0.5877852598018023 0 0.80901698891910034 0.80901698891910034 0 0.5877852598018023 forward_v I I I I #
loop $-1 $-1 $497 $138 #
coedge $-1 $349 $349 $350 $498 reversed $219 $-1 #
coedge $-1 $350 $350 $349 $498 forward $221 $-1 #
coedge $-1 $351 $351 $222 $352 forward $346 $-1 #
edge $-1 $499 0 $499 6.2831853071796004 $351 $500 forward 7 unknown #
loop $-1 $-1 $358 $223 #
plane-surface $-1 -62.556840723899043 20.27853258178375 7.9044291789923022 -0.5877852598018023 0 0.80901698891910034 0.80901698891910034 0 0.5877852598018023 forward_v I I I I #
loop $-1 $-1 $501 $141 #
coedge $-1 $356 $356 $357 $502 reversed $224 $-1 #
coedge $-1 $357 $357 $356 $502 forward $226 $-1 #
coedge $-1 $358 $358 $227 $359 forward $353 $-1 #
edge $-1 $503 0 $503 6.2831853071796004 $358 $504 forward 7 unknown #
face $-1 $505 $506 $54 $-1 $507 reversed single #
loop $-1 $-1 $508 $228 #
plane-surface $-1 -62.556840723899043 0 0 1 0 0 0 0 -1 forward_v I I I I #
coedge $-1 $509 $371 $510 $511 forward $229 $-1 #
coedge $-1 $512 $231 $509 $513 forward $145 $-1 #
coedge $-1 $231 $512 $514 $515 forward $145 $-1 #
coedge $-1 $374 $373 $231 $367 reversed $375 $-1 #
edge $-1 $516 -43.461607076618606 $517 43.461607076618606 $366 $518 forward 7 unknown #
coedge $-1 $233 $232 $519 $520 forward $91 $-1 #
coedge $-1 $521 $522 $232 $370 reversed $506 $-1 #
edge $-1 $377 -62.556840723899043 $523 62.556840723899043 $369 $524 forward 7 unknown #
coedge $-1 $363 $525 $233 $372 reversed $229 $-1 #
edge $-1 $526 -62.556840723899043 $376 62.556840723899043 $371 $527 forward 7 unknown #
coedge $-1 $366 $234 $525 $528 forward $375 $-1 #
coedge $-1 $234 $366 $521 $529 reversed $375 $-1 #
loop $-1 $-1 $373 $505 #
vertex $-1 $235 $530 #
vertex $-1 $235 $531 #
straight-curve $-1 62.556840723899043 0 18.153547326704935 0 1 0 I I #
face $-1 $532 $533 $55 $-1 $534 reversed single #
loop $-1 $-1 $385 $236 #
plane-surface $-1 62.556840723899043 0 0 -1 0 0 0 0 1 forward_v I I I I #
coedge $-1 $535 $536 $383 $537 forward $237 $-1 #
coedge $-1 $538 $239 $382 $537 reversed $149 $-1 #
coedge $-1 $239 $538 $240 $388 reversed $149 $-1 #
coedge $-1 $242 $539 $239 $386 forward $380 $-1 #
edge $-1 $540 -10.588387366271505 $392 -4.5419325545953582 $385 $541 forward 7 unknown #
coedge $-1 $241 $240 $542 $543 reversed $94 $-1 #
edge $-1 $392 -62.556840723899043 $544 62.556840723899043 $384 $545 forward 7 unknown #
coedge $-1 $546 $547 $241 $390 forward $533 $-1 #
edge $-1 $393 -62.556840723899043 $548 62.556840723899043 $389 $549 forward 7 unknown #
coedge $-1 $539 $242 $547 $550 forward $380 $-1 #
vertex $-1 $243 $551 #
vertex $-1 $550 $552 #
straight-curve $-1 62.556840723899043 -17.981492411419673 -12.107092515028789 0 -1 0 I I #
face $-1 $-1 $407 $56 $-1 $553 forward single #
loop $-1 $-1 $554 $244 #
plane-surface $-1 62.556840723899043 0 0 -1 0 0 0 0 1 forward_v I I I I #
coedge $-1 $555 $556 $557 $558 reversed $245 $-1 #
coedge $-1 $559 $247 $249 $405 forward $153 $-1 #
coedge $-1 $247 $559 $555 $560 forward $153 $-1 #
coedge $-1 $557 $250 $247 $402 forward $407 $-1 #
edge $-1 $409 -5.0246619811738391 $561 10.305950055399069 $401 $562 forward 7 unknown #
coedge $-1 $563 $564 $248 $404 forward $396 $-1 #
edge $-1 $565 -83.42732120652137 $408 -73.178203058808734 $403 $566 forward 7 unknown #
edge $-1 $409 107.67684039607013 $565 125.11368144779809 $249 $567 forward 7 unknown #
coedge $-1 $250 $557 $563 $568 forward $407 $-1 #
loop $-1 $-1 $557 $395 #
vertex $-1 $404 $569 #
vertex $-1 $251 $570 #
straight-curve $-1 17.438862320485931 2.3840179440612239 18.153547326704938 -1 0 0 I I #
coedge $-1 $411 $411 $-1 $571 reversed $254 $-1 #
edge $-1 $572 0 $572 6.2831853071796004 $255 $573 forward 7 unknown #
vertex $-1 $258 $574 #
ellipse-curve $-1 55.503490401934094 -9.8804716851971079 13.02898825284862 0.5877852598018023 0 0.80901698891910034 0.80901698891910034 0 -0.5877852598018023 1 I I #
coedge $-1 $415 $415 $-1 $575 reversed $261 $-1 #
edge $-1 $576 0 $576 6.2831853071796004 $262 $577 forward 7 unknown #
vertex $-1 $265 $578 #
ellipse-curve $-1 55.503490401934094 -5.2812880742252375 13.02898825284862 0.5877852598018023 0 0.80901698891910034 0.80901698891910034 0 -0.5877852598018023 1 I I #
coedge $-1 $419 $419 $-1 $579 reversed $268 $-1 #
edge $-1 $580 0 $580 6.2831853071796004 $269 $581 forward 7 unknown #
vertex $-1 $272 $582 #
ellipse-curve $-1 55.503490401934094 -0.68210446325336704 13.02898825284862 0.5877852598018023 0 0.80901698891910034 0.80901698891910034 0 -0.5877852598018023 1 I I #
face $-1 $-1 $435 $60 $-1 $583 forward single #
loop $-1 $-1 $584 $273 #
plane-surface $-1 62.556840723899043 0 0 -1 0 0 0 0 1 forward_v I I I I #
coedge $-1 $585 $586 $587 $588 reversed $274 $-1 #
coedge $-1 $589 $276 $278 $433 forward $172 $-1 #
coedge $-1 $276 $589 $585 $590 forward $172 $-1 #
coedge $-1 $587 $279 $276 $430 forward $435 $-1 #
edge $-1 $437 -17.804572309178329 $591 -2.4739602726054208 $429 $592 forward 7 unknown #
coedge $-1 $593 $594 $277 $432 forward $424 $-1 #
edge $-1 $595 -83.42732120652137 $436 -73.178203058808734 $431 $596 forward 7 unknown #
edge $-1 $437 107.67684039607013 $595 125.11368144779809 $278 $597 forward 7 unknown #
coedge $-1 $279 $587 $593 $598 forward $435 $-1 #
loop $-1 $-1 $587 $423 #
vertex $-1 $432 $599 #
vertex $-1 $280 $600 #
straight-curve $-1 17.438862320485931 27.943838600070205 18.153547326704938 -1 0 0 I I #
coedge $-1 $439 $439 $-1 $601 reversed $283 $-1 #
edge $-1 $602 0 $602 6.2831853071796004 $284 $603 forward 7 unknown #
vertex $-1 $287 $604 #
ellipse-curve $-1 55.503490401934094 15.679348970811873 13.02898825284862 0.5877852598018023 0 0.80901698891910034 0.80901698891910034 0 -0.5877852598018023 1 I I #
coedge $-1 $443 $443 $-1 $605 reversed $290 $-1 #
edge $-1 $606 0 $606 6.2831853071796004 $291 $607 forward 7 unknown #
vertex $-1 $294 $608 #
ellipse-curve $-1 55.503490401934094 20.278532581783743 13.02898825284862 0.5877852598018023 0 0.80901698891910034 0.80901698891910034 0 -0.5877852598018023 1 I I #
coedge $-1 $447 $447 $-1 $609 reversed $297 $-1 #
edge $-1 $610 0 $610 6.2831853071796004 $298 $611 forward 7 unknown #
vertex $-1 $301 $612 #
ellipse-curve $-1 55.503490401934094 24.877716192755614 13.02898825284862 0.5877852598018023 0 0.80901698891910034 0.80901698891910034 0 -0.5877852598018023 1 I I #
face $-1 $-1 $613 $64 $-1 $614 reversed single #
loop $-1 $-1 $308 $302 #
plane-surface $-1 0 0 18.153547326704935 0 0 1 1 0 0 forward_v I I I I #
coedge $-1 $615 $616 $617 $618 reversed $303 $-1 #
coedge $-1 $619 $305 $307 $461 forward $191 $-1 #
coedge $-1 $305 $619 $615 $620 forward $191 $-1 #
coedge $-1 $617 $308 $305 $458 forward $452 $-1 #
edge $-1 $464 -10.305950055399069 $621 5.0246619811738391 $457 $622 forward 7 unknown #
coedge $-1 $623 $624 $306 $460 forward $613 $-1 #
edge $-1 $625 -46.657332329244404 $463 -36.408214181531775 $459 $626 forward 7 unknown #
edge $-1 $464 -17.436841051727924 $625 0 $307 $627 forward 7 unknown #
coedge $-1 $308 $617 $623 $628 forward $452 $-1 #
vertex $-1 $460 $629 #
vertex $-1 $309 $630 #
straight-curve $-1 -68.048409239226487 -12.946594092511685 18.153547326704931 1 0 0 I I #
coedge $-1 $466 $466 $-1 $631 reversed $312 $-1 #
edge $-1 $632 0 $632 6.2831853071796004 $313 $633 forward 7 unknown #
vertex $-1 $316 $634 #
ellipse-curve $-1 -55.503490401934094 -9.8804716851971079 13.02898825284862 -0.5877852598018023 0 0.80901698891910034 0.80901698891910034 0 0.5877852598018023 1 I I #
coedge $-1 $470 $470 $-1 $635 reversed $319 $-1 #
edge $-1 $636 0 $636 6.2831853071796004 $320 $637 forward 7 unknown #
vertex $-1 $323 $638 #
ellipse-curve $-1 -55.503490401934094 -5.2812880742252375 13.02898825284862 -0.5877852598018023 0 0.80901698891910034 0.80901698891910034 0 0.5877852598018023 1 I I #
coedge $-1 $474 $474 $-1 $639 reversed $326 $-1 #
edge $-1 $640 0 $640 6.2831853071796004 $327 $641 forward 7 unknown #
vertex $-1 $330 $642 #
ellipse-curve $-1 -55.503490401934094 -0.68210446325336704 13.02898825284862 -0.5877852598018023 0 0.80901698891910034 0.80901698891910034 0 0.5877852598018023 1 I I #
face $-1 $-1 $643 $68 $-1 $644 reversed single #
loop $-1 $-1 $337 $331 #
plane-surface $-1 0 0 18.153547326704935 0 0 1 1 0 0 forward_v I I I I #
coedge $-1 $645 $646 $647 $648 reversed $332 $-1 #
coedge $-1 $649 $334 $336 $488 forward $210 $-1 #
coedge $-1 $334 $649 $645 $650 forward $210 $-1 #
coedge $-1 $647 $337 $334 $485 forward $479 $-1 #
edge $-1 $491 2.4739602726054208 $651 17.804572309178329 $484 $652 forward 7 unknown #
coedge $-1 $653 $654 $335 $487 forward $643 $-1 #
edge $-1 $655 -46.657332329244404 $490 -36.408214181531775 $486 $656 forward 7 unknown #
edge $-1 $491 -17.436841051727924 $655 0 $336 $657 forward 7 unknown #
coedge $-1 $337 $647 $653 $658 forward $479 $-1 #
vertex $-1 $338 $659 #
vertex $-1 $338 $660 #
straight-curve $-1 -68.048409239226487 12.613226563497296 18.153547326704931 1 0 0 I I #
coedge $-1 $493 $493 $-1 $661 reversed $341 $-1 #
edge $-1 $662 0 $662 6.2831853071796004 $342 $663 forward 7 unknown #
vertex $-1 $345 $664 #
ellipse-curve $-1 -55.503490401934094 15.679348970811873 13.02898825284862 -0.5877852598018023 0 0.80901698891910034 0.80901698891910034 0 0.5877852598018023 1 I I #
coedge $-1 $497 $497 $-1 $665 reversed $348 $-1 #
edge $-1 $666 0 $666 6.2831853071796004 $349 $667 forward 7 unknown #
vertex $-1 $352 $668 #
ellipse-curve $-1 -55.503490401934094 20.278532581783743 13.02898825284862 -0.5877852598018023 0 0.80901698891910034 0.80901698891910034 0 0.5877852598018023 1 I I #
coedge $-1 $501 $501 $-1 $669 reversed $355 $-1 #
edge $-1 $670 0 $670 6.2831853071796004 $356 $671 forward 7 unknown #
vertex $-1 $359 $672 #
ellipse-curve $-1 -55.503490401934094 24.877716192755614 13.02898825284862 -0.5877852598018023 0 0.80901698891910034 0.80901698891910034 0 0.5877852598018023 1 I I #
face $-1 $-1 $375 $54 $-1 $673 reversed single #
loop $-1 $-1 $521 $360 #
plane-surface $-1 0 43.461607076618606 0 0 -1 0 0 0 -1 forward_v I I I I #
coedge $-1 $674 $519 $522 $675 forward $361 $-1 #
coedge $-1 $525 $363 $364 $513 reversed $229 $-1 #
coedge $-1 $519 $674 $363 $511 reversed $361 $-1 #
edge $-1 $526 -18.153547326704935 $676 18.153547326704935 $510 $677 forward 7 unknown #
coedge $-1 $365 $364 $674 $678 forward $145 $-1 #
edge $-1 $517 -62.556840723899043 $676 62.556840723899043 $509 $679 forward 7 unknown #
coedge $-1 $522 $521 $365 $515 reversed $506 $-1 #
edge $-1 $680 -62.556840723899043 $516 62.556840723899043 $514 $681 forward 7 unknown #
vertex $-1 $367 $682 #
vertex $-1 $528 $683 #
straight-curve $-1 62.556840723899043 0 -18.153547326704935 0 -1 0 I I #
coedge $-1 $508 $510 $368 $520 reversed $361 $-1 #
edge $-1 $523 -43.461607076618606 $526 43.461607076618606 $519 $684 forward 7 unknown #
coedge $-1 $514 $369 $374 $529 forward $506 $-1 #
coedge $-1 $369 $514 $508 $675 reversed $506 $-1 #
vertex $-1 $370 $685 #
straight-curve $-1 0 43.461607076618606 18.153547326704935 -1 0 0 I I #
coedge $-1 $371 $509 $373 $528 reversed $229 $-1 #
vertex $-1 $520 $686 #
straight-curve $-1 0 -43.461607076618606 18.153547326704935 1 0 0 I I #
edge $-1 $376 -18.153547326704935 $517 18.153547326704935 $373 $687 forward 7 unknown #
edge $-1 $377 -18.153547326704935 $516 18.153547326704935 $374 $688 forward 7 unknown #
point $-1 62.556840723899043 -43.461607076618606 18.153547326704935 #
point $-1 62.556840723899043 43.461607076618606 18.153547326704935 #
face $-1 $-1 $689 $55 $-1 $690 reversed single #
loop $-1 $-1 $389 $379 #
plane-surface $-1 0 -43.461607076618606 0 0 1 0 0 0 1 forward_v I I I I #
coedge $-1 $691 $382 $539 $692 forward $237 $-1 #
coedge $-1 $382 $691 $693 $694 forward $237 $-1 #
edge $-1 $695 -62.556840723899043 $540 62.556840723899043 $382 $696 forward 7 unknown #
coedge $-1 $384 $383 $697 $698 reversed $149 $-1 #
coedge $-1 $385 $391 $535 $692 reversed $380 $-1 #
vertex $-1 $692 $699 #
straight-curve $-1 62.556840723899043 -28.464362569060086 -7.565159960433431 0 0 1 I I #
coedge $-1 $697 $700 $387 $543 forward $689 $-1 #
edge $-1 $548 -25.480114665198933 $544 -10.482870157640413 $542 $701 forward 7 unknown #
vertex $-1 $543 $702 #
straight-curve $-1 0 -28.464362569060086 -12.107092515028789 -1 0 0 I I #
coedge $-1 $703 $389 $700 $704 forward $533 $-1 #
coedge $-1 $389 $703 $391 $550 reversed $533 $-1 #
vertex $-1 $704 $705 #
straight-curve $-1 0 -43.461607076618606 -12.107092515028789 -1 0 0 I I #
edge $-1 $393 12.107092515028789 $706 18.153547326704935 $391 $707 forward 7 unknown #
point $-1 62.556840723899043 -28.464362569060086 -12.107092515028789 #
point $-1 62.556840723899043 -43.461607076618606 -12.107092515028789 #
plane-surface $-1 0 0 18.153547326704935 0 0 1 1 0 0 forward_v I I I I #
coedge $-1 $564 $563 $556 $708 forward $396 $-1 #
coedge $-1 $556 $398 $400 $560 reversed $245 $-1 #
coedge $-1 $398 $555 $554 $708 reversed $245 $-1 #
coedge $-1 $406 $401 $398 $558 forward $407 $-1 #
edge $-1 $561 31.011277759483214 $709 45.117978403413112 $557 $710 forward 7 unknown #
coedge $-1 $400 $399 $564 $711 reversed $153 $-1 #
edge $-1 $712 -125.11368144779809 $561 -107.67684039607013 $555 $713 forward 7 unknown #
vertex $-1 $402 $714 #
straight-curve $-1 48.450140079969145 -2.6406440371126152 18.153547326704938 0 -1 0 I I #
coedge $-1 $554 $403 $406 $568 reversed $396 $-1 #
coedge $-1 $403 $554 $559 $711 forward $396 $-1 #
vertex $-1 $404 $715 #
straight-curve $-1 62.556840723899043 2.3840179440612239 91.331750385513672 0 0 1 I I #
straight-curve $-1 -38.662253113582068 2.3840179440612239 81.444406933546233 0.80901698891910034 0 -0.5877852598018023 I I #
edge $-1 $709 -12.946594092511685 $408 2.3840179440612239 $563 $716 forward 7 unknown #
point $-1 62.556840723899043 2.3840179440612239 18.153547326704935 #
point $-1 48.450140079969145 2.3840179440612239 18.153547326704938 #
edge $-1 $717 1 $717 0 $411 $-1 forward 7 unknown #
vertex $-1 $412 $718 #
ellipse-curve $-1 54.719441873371302 -9.8804716851971079 11.949838054427159 0.5877852598018023 0 0.80901698891910034 0.80901698891910034 0 -0.5877852598018023 1 I I #
point $-1 56.312507390853199 -9.8804716851971079 12.44120299304682 #
edge $-1 $719 1 $719 0 $415 $-1 forward 7 unknown #
vertex $-1 $416 $720 #
ellipse-curve $-1 54.719441873371302 -5.2812880742252375 11.949838054427159 0.5877852598018023 0 0.80901698891910034 0.80901698891910034 0 -0.5877852598018023 1 I I #
point $-1 56.312507390853199 -5.2812880742252375 12.44120299304682 #
edge $-1 $721 1 $721 0 $419 $-1 forward 7 unknown #
vertex $-1 $420 $722 #
ellipse-curve $-1 54.719441873371302 -0.68210446325336704 11.949838054427159 0.5877852598018023 0 0.80901698891910034 0.80901698891910034 0 -0.5877852598018023 1 I I #
point $-1 56.312507390853199 -0.68210446325336704 12.44120299304682 #
plane-surface $-1 0 0 18.153547326704935 0 0 1 1 0 0 forward_v I I I I #
coedge $-1 $594 $593 $586 $723 forward $424 $-1 #
coedge $-1 $586 $426 $428 $590 reversed $274 $-1 #
coedge $-1 $426 $585 $584 $723 reversed $274 $-1 #
coedge $-1 $434 $429 $426 $588 forward $435 $-1 #
edge $-1 $591 31.011277759483214 $724 45.117978403413112 $587 $725 forward 7 unknown #
coedge $-1 $428 $427 $594 $726 reversed $172 $-1 #
edge $-1 $727 -125.11368144779809 $591 -107.67684039607013 $585 $728 forward 7 unknown #
vertex $-1 $430 $729 #
straight-curve $-1 48.450140079969145 10.139266290891875 18.153547326704938 0 -1 0 I I #
coedge $-1 $584 $431 $434 $598 reversed $424 $-1 #
coedge $-1 $431 $584 $589 $726 forward $424 $-1 #
vertex $-1 $432 $730 #
straight-curve $-1 62.556840723899043 27.943838600070205 91.331750385513672 0 0 1 I I #
straight-curve $-1 -38.662253113582068 27.943838600070205 81.444406933546233 0.80901698891910034 0 -0.5877852598018023 I I #
edge $-1 $724 12.613226563497296 $436 27.943838600070205 $593 $731 forward 7 unknown #
point $-1 62.556840723899043 27.943838600070205 18.153547326704935 #
point $-1 48.450140079969145 27.943838600070205 18.153547326704938 #
edge $-1 $732 1 $732 0 $439 $-1 forward 7 unknown #
vertex $-1 $440 $733 #
ellipse-curve $-1 54.719441873371302 15.679348970811873 11.949838054427159 0.5877852598018023 0 0.80901698891910034 0.80901698891910034 0 -0.5877852598018023 1 I I #
point $-1 56.312507390853199 15.679348970811873 12.44120299304682 #
edge $-1 $734 1 $734 0 $443 $-1 forward 7 unknown #
vertex $-1 $444 $735 #
ellipse-curve $-1 54.719441873371302 20.278532581783743 11.949838054427159 0.5877852598018023 0 0.80901698891910034 0.80901698891910034 0 -0.5877852598018023 1 I I #
point $-1 56.312507390853199 20.278532581783743 12.44120299304682 #
edge $-1 $736 1 $736 0 $447 $-1 forward 7 unknown #
vertex $-1 $448 $737 #
ellipse-curve $-1 54.719441873371302 24.877716192755614 11.949838054427159 0.5877852598018023 0 0.80901698891910034 0.80901698891910034 0 -0.5877852598018023 1 I I #
point $-1 56.312507390853199 24.877716192755614 12.44120299304682 #
loop $-1 $-1 $459 $451 #
plane-surface $-1 -62.556840723899043 0 0 1 0 0 0 0 -1 forward_v I I I I #
coedge $-1 $616 $454 $456 $620 reversed $303 $-1 #
coedge $-1 $454 $615 $738 $739 reversed $303 $-1 #
coedge $-1 $462 $457 $454 $618 forward $452 $-1 #
edge $-1 $621 -19.598269159257327 $740 -5.4915685153274438 $617 $741 forward 7 unknown #
coedge $-1 $456 $455 $624 $742 reversed $191 $-1 #
edge $-1 $743 0 $621 17.436841051727924 $615 $744 forward 7 unknown #
vertex $-1 $458 $745 #
straight-curve $-1 -48.450140079969152 -2.6406440371126152 18.153547326704935 0 1 0 I I #
coedge $-1 $738 $459 $462 $628 reversed $613 $-1 #
coedge $-1 $459 $738 $619 $742 forward $613 $-1 #
vertex $-1 $460 $746 #
straight-curve $-1 -62.556840723899043 -12.946594092511685 54.561761508236707 0 0 1 I I #
straight-curve $-1 -62.556840723899043 -12.946594092511685 7.9044291789923022 -0.80901698891910034 0 -0.5877852598018023 I I #
edge $-1 $740 -2.3840179440612239 $463 12.946594092511685 $623 $747 forward 7 unknown #
point $-1 -62.556840723899043 -12.946594092511685 18.153547326704935 #
point $-1 -48.45014007996916 -12.946594092511685 18.153547326704935 #
edge $-1 $748 1 $748 0 $466 $-1 forward 7 unknown #
vertex $-1 $467 $749 #
ellipse-curve $-1 -54.719441873371302 -9.8804716851971079 11.949838054427156 -0.5877852598018023 0 0.80901698891910034 0.80901698891910034 0 0.5877852598018023 1 I I #
point $-1 -54.694473413014997 -9.8804716851971079 13.616773512650422 #
edge $-1 $750 1 $750 0 $470 $-1 forward 7 unknown #
vertex $-1 $471 $751 #
ellipse-curve $-1 -54.719441873371302 -5.2812880742252375 11.949838054427156 -0.5877852598018023 0 0.80901698891910034 0.80901698891910034 0 0.5877852598018023 1 I I #
point $-1 -54.694473413014997 -5.2812880742252375 13.616773512650422 #
edge $-1 $752 1 $752 0 $474 $-1 forward 7 unknown #
vertex $-1 $475 $753 #
ellipse-curve $-1 -54.719441873371302 -0.68210446325336704 11.949838054427156 -0.5877852598018023 0 0.80901698891910034 0.80901698891910034 0 0.5877852598018023 1 I I #
point $-1 -54.694473413014997 -0.68210446325336704 13.616773512650422 #
loop $-1 $-1 $486 $478 #
plane-surface $-1 -62.556840723899043 0 0 1 0 0 0 0 -1 forward_v I I I I #
coedge $-1 $646 $481 $483 $650 reversed $332 $-1 #
coedge $-1 $481 $645 $754 $755 reversed $332 $-1 #
coedge $-1 $489 $484 $481 $648 forward $479 $-1 #
edge $-1 $651 -19.598269159257327 $756 -5.4915685153274438 $647 $757 forward 7 unknown #
coedge $-1 $483 $482 $654 $758 reversed $210 $-1 #
edge $-1 $759 0 $651 17.436841051727924 $645 $760 forward 7 unknown #
vertex $-1 $485 $761 #
straight-curve $-1 -48.450140079969152 10.139266290891875 18.153547326704935 0 1 0 I I #
coedge $-1 $754 $486 $489 $658 reversed $643 $-1 #
coedge $-1 $486 $754 $649 $758 forward $643 $-1 #
vertex $-1 $487 $762 #
straight-curve $-1 -62.556840723899043 12.613226563497296 54.561761508236707 0 0 1 I I #
straight-curve $-1 -62.556840723899043 12.613226563497296 7.9044291789923022 -0.80901698891910034 0 -0.5877852598018023 I I #
edge $-1 $756 -27.943838600070205 $490 -12.613226563497296 $653 $763 forward 7 unknown #
point $-1 -62.556840723899043 12.613226563497296 18.153547326704935 #
point $-1 -48.45014007996916 12.613226563497296 18.153547326704935 #
edge $-1 $764 1 $764 0 $493 $-1 forward 7 unknown #
vertex $-1 $494 $765 #
ellipse-curve $-1 -54.719441873371302 15.679348970811873 11.949838054427156 -0.5877852598018023 0 0.80901698891910034 0.80901698891910034 0 0.5877852598018023 1 I I #
point $-1 -54.694473413014997 15.679348970811873 13.616773512650422 #
edge $-1 $766 1 $766 0 $497 $-1 forward 7 unknown #
vertex $-1 $498 $767 #
ellipse-curve $-1 -54.719441873371302 20.278532581783743 11.949838054427156 -0.5877852598018023 0 0.80901698891910034 0.80901698891910034 0 0.5877852598018023 1 I I #
point $-1 -54.694473413014997 20.278532581783743 13.616773512650422 #
edge $-1 $768 1 $768 0 $501 $-1 forward 7 unknown #
vertex $-1 $502 $769 #
ellipse-curve $-1 -54.719441873371302 24.877716192755614 11.949838054427156 -0.5877852598018023 0 0.80901698891910034 0.80901698891910034 0 0.5877852598018023 1 I I #
point $-1 -54.694473413014997 24.877716192755614 13.616773512650422 #
plane-surface $-1 62.556840723899043 0 0 -1 0 0 0 0 1 forward_v I I I I #
coedge $-1 $510 $508 $512 $678 reversed $361 $-1 #
edge $-1 $523 -18.153547326704935 $680 18.153547326704935 $522 $770 forward 7 unknown #
vertex $-1 $678 $771 #
straight-curve $-1 -62.556840723899043 -43.461607076618606 0 0 0 -1 I I #
edge $-1 $676 -43.461607076618606 $680 43.461607076618606 $674 $772 forward 7 unknown #
straight-curve $-1 0 -43.461607076618606 -18.153547326704935 -1 0 0 I I #
vertex $-1 $515 $773 #
straight-curve $-1 0 43.461607076618606 -18.153547326704935 1 0 0 I I #
point $-1 62.556840723899043 43.461607076618606 -18.153547326704935 #
point $-1 62.556840723899043 -43.461607076618606 -18.153547326704935 #
straight-curve $-1 -62.556840723899043 0 18.153547326704935 0 -1 0 I I #
point $-1 -62.556840723899043 43.461607076618606 18.153547326704935 #
point $-1 -62.556840723899043 -43.461607076618606 18.153547326704935 #
straight-curve $-1 62.556840723899043 -43.461607076618606 0 0 0 -1 I I #
straight-curve $-1 62.556840723899043 43.461607076618606 0 0 0 -1 I I #
loop $-1 $-1 $697 $532 #
plane-surface $-1 -62.556840723899043 0 0 1 0 0 0 0 -1 forward_v I I I I #
coedge $-1 $536 $535 $703 $774 forward $237 $-1 #
edge $-1 $540 28.464362569060086 $706 43.461607076618606 $539 $775 forward 7 unknown #
coedge $-1 $700 $697 $536 $694 reversed $689 $-1 #
edge $-1 $776 -43.461607076618606 $695 -28.464362569060086 $693 $777 forward 7 unknown #
vertex $-1 $698 $778 #
straight-curve $-1 0 -28.464362569060086 -18.153547326704935 1 0 0 I I #
coedge $-1 $693 $542 $538 $698 forward $689 $-1 #
edge $-1 $544 4.5419325545953582 $695 10.588387366271505 $697 $779 forward 7 unknown #
point $-1 62.556840723899043 -28.464362569060086 -18.153547326704935 #
coedge $-1 $542 $693 $546 $704 reversed $689 $-1 #
straight-curve $-1 -62.556840723899043 -17.981492411419673 -12.107092515028789 0 1 0 I I #
point $-1 -62.556840723899043 -28.464362569060086 -12.107092515028789 #
coedge $-1 $547 $546 $691 $774 reversed $533 $-1 #
edge $-1 $548 12.107092515028789 $776 18.153547326704935 $700 $780 forward 7 unknown #
point $-1 -62.556840723899043 -43.461607076618606 -12.107092515028789 #
vertex $-1 $550 $781 #
straight-curve $-1 62.556840723899043 -43.461607076618606 0 0 0 -1 I I #
edge $-1 $709 73.178203058808734 $712 83.42732120652137 $554 $782 forward 7 unknown #
vertex $-1 $568 $783 #
straight-curve $-1 17.438862320485931 -12.946594092511685 18.153547326704938 1 0 0 I I #
edge $-1 $712 -10.305950055399069 $565 5.0246619811738391 $564 $784 forward 7 unknown #
vertex $-1 $711 $785 #
straight-curve $-1 -38.662253113582068 -12.946594092511685 81.444406933546233 -0.80901698891910034 0 0.5877852598018023 I I #
point $-1 48.450140079969145 -12.946594092511685 18.153547326704938 #
point $-1 62.556840723899043 2.3840179440612239 7.9044291789923022 #
straight-curve $-1 62.556840723899043 0 18.153547326704935 0 1 0 I I #
vertex $-1 $571 $786 #
point $-1 55.5284588622904 -9.8804716851971079 11.362052794625356 #
vertex $-1 $575 $787 #
point $-1 55.5284588622904 -5.2812880742252375 11.362052794625356 #
vertex $-1 $579 $788 #
point $-1 55.5284588622904 -0.68210446325336704 11.362052794625356 #
edge $-1 $724 73.178203058808734 $727 83.42732120652137 $584 $789 forward 7 unknown #
vertex $-1 $598 $790 #
straight-curve $-1 17.438862320485931 12.613226563497296 18.153547326704938 1 0 0 I I #
edge $-1 $727 2.4739602726054208 $595 17.804572309178329 $594 $791 forward 7 unknown #
vertex $-1 $726 $792 #
straight-curve $-1 -38.662253113582068 12.613226563497296 81.444406933546233 -0.80901698891910034 0 0.5877852598018023 I I #
point $-1 48.450140079969145 12.613226563497296 18.153547326704938 #
point $-1 62.556840723899043 27.943838600070205 7.9044291789923022 #
straight-curve $-1 62.556840723899043 0 18.153547326704935 0 1 0 I I #
vertex $-1 $601 $793 #
point $-1 55.5284588622904 15.679348970811873 11.362052794625356 #
vertex $-1 $605 $794 #
point $-1 55.5284588622904 20.278532581783743 11.362052794625356 #
vertex $-1 $609 $795 #
point $-1 55.5284588622904 24.877716192755614 11.362052794625356 #
coedge $-1 $624 $623 $616 $739 forward $613 $-1 #
edge $-1 $740 36.408214181531775 $743 46.657332329244404 $738 $796 forward 7 unknown #
vertex $-1 $628 $797 #
straight-curve $-1 -68.048409239226487 2.3840179440612239 18.153547326704931 -1 0 0 I I #
edge $-1 $743 -5.0246619811738391 $625 10.305950055399069 $624 $798 forward 7 unknown #
vertex $-1 $742 $799 #
straight-curve $-1 -62.556840723899043 2.3840179440612239 7.9044291789923022 0.80901698891910034 0 0.5877852598018023 I I #
point $-1 -48.45014007996916 2.3840179440612239 18.153547326704935 #
point $-1 -62.556840723899043 -12.946594092511685 7.9044291789923022 #
straight-curve $-1 -62.556840723899043 0 18.153547326704935 0 -1 0 I I #
vertex $-1 $631 $800 #
point $-1 -53.910424884452198 -9.8804716851971079 12.537623314228957 #
vertex $-1 $635 $801 #
point $-1 -53.910424884452198 -5.2812880742252375 12.537623314228957 #
vertex $-1 $639 $802 #
point $-1 -53.910424884452198 -0.68210446325336704 12.537623314228957 #
coedge $-1 $654 $653 $646 $755 forward $643 $-1 #
edge $-1 $756 36.408214181531775 $759 46.657332329244404 $754 $803 forward 7 unknown #
vertex $-1 $658 $804 #
straight-curve $-1 -68.048409239226487 27.943838600070205 18.153547326704931 -1 0 0 I I #
edge $-1 $759 -17.804572309178329 $655 -2.4739602726054208 $654 $805 forward 7 unknown #
vertex $-1 $758 $806 #
straight-curve $-1 -62.556840723899043 27.943838600070205 7.9044291789923022 0.80901698891910034 0 0.5877852598018023 I I #
point $-1 -48.45014007996916 27.943838600070205 18.153547326704935 #
point $-1 -62.556840723899043 12.613226563497296 7.9044291789923022 #
straight-curve $-1 -62.556840723899043 0 18.153547326704935 0 -1 0 I I #
vertex $-1 $661 $807 #
point $-1 -53.910424884452198 15.679348970811873 12.537623314228957 #
vertex $-1 $665 $808 #
point $-1 -53.910424884452198 20.278532581783743 12.537623314228957 #
vertex $-1 $669 $809 #
point $-1 -53.910424884452198 24.877716192755614 12.537623314228957 #
straight-curve $-1 -62.556840723899043 43.461607076618606 0 0 0 -1 I I #
point $-1 -62.556840723899043 -43.461607076618606 -18.153547326704935 #
straight-curve $-1 -62.556840723899043 0 -18.153547326704935 0 1 0 I I #
point $-1 -62.556840723899043 43.461607076618606 -18.153547326704935 #
edge $-1 $706 -62.556840723899043 $776 62.556840723899043 $703 $810 forward 7 unknown #
straight-curve $-1 62.556840723899043 0 -18.153547326704935 0 -1 0 I I #
vertex $-1 $694 $811 #
straight-curve $-1 -62.556840723899043 0 -18.153547326704935 0 1 0 I I #
point $-1 -62.556840723899043 -28.464362569060086 -18.153547326704935 #
straight-curve $-1 -62.556840723899043 -28.464362569060086 -7.565159960433431 0 0 -1 I I #
straight-curve $-1 -62.556840723899043 -43.461607076618606 0 0 0 -1 I I #
point $-1 62.556840723899043 -43.461607076618606 -18.153547326704935 #
straight-curve $-1 62.556840723899043 -12.946594092511685 91.331750385513672 0 0 -1 I I #
point $-1 62.556840723899043 -12.946594092511685 18.153547326704935 #
straight-curve $-1 62.556840723899043 -2.6406440371126152 7.9044291789923022 0 1 0 I I #
point $-1 62.556840723899043 -12.946594092511685 7.9044291789923022 #
point $-1 54.131656613569497 -9.8804716851971079 11.140821065508058 #
point $-1 54.131656613569497 -5.2812880742252375 11.140821065508058 #
point $-1 54.131656613569497 -0.68210446325336704 11.140821065508058 #
straight-curve $-1 62.556840723899043 12.613226563497296 91.331750385513672 0 0 -1 I I #
point $-1 62.556840723899043 12.613226563497296 18.153547326704935 #
straight-curve $-1 62.556840723899043 10.139266290891875 7.9044291789923022 0 1 0 I I #
point $-1 62.556840723899043 12.613226563497296 7.9044291789923022 #
point $-1 54.131656613569497 15.679348970811873 11.140821065508058 #
point $-1 54.131656613569497 20.278532581783743 11.140821065508058 #
point $-1 54.131656613569497 24.877716192755614 11.140821065508058 #
straight-curve $-1 -62.556840723899043 2.3840179440612239 54.561761508236707 0 0 -1 I I #
point $-1 -62.556840723899043 2.3840179440612239 18.153547326704935 #
straight-curve $-1 -62.556840723899043 -2.6406440371126152 7.9044291789923058 0 -1 0 I I #
point $-1 -62.556840723899043 2.3840179440612239 7.9044291789923022 #
point $-1 -54.131656613569497 -9.8804716851971079 11.140821065508055 #
point $-1 -54.131656613569497 -5.2812880742252375 11.140821065508055 #
point $-1 -54.131656613569497 -0.68210446325336704 11.140821065508055 #
straight-curve $-1 -62.556840723899043 27.943838600070205 54.561761508236707 0 0 -1 I I #
point $-1 -62.556840723899043 27.943838600070205 18.153547326704935 #
straight-curve $-1 -62.556840723899043 10.139266290891875 7.9044291789923058 0 -1 0 I I #
point $-1 -62.556840723899043 27.943838600070205 7.9044291789923022 #
point $-1 -54.131656613569497 15.679348970811873 11.140821065508055 #
point $-1 -54.131656613569497 20.278532581783743 11.140821065508055 #
point $-1 -54.131656613569497 24.877716192755614 11.140821065508055 #
straight-curve $-1 0 -43.461607076618606 -18.153547326704935 -1 0 0 I I #
point $-1 -62.556840723899043 -43.461607076618606 -18.153547326704935 #
End-of-ACIS-data 