500 0 4 0           
7 Unknown 11 ACIS 5.0 NT 24 Fri Mar 26 17:59:18 1999 
-1 9.9999999999999995e-007 1e-010 
body $-1 $4 $-1 $5 #
body $-1 $6 $-1 $7 #
body $-1 $8 $-1 $9 #
body $-1 $10 $-1 $11 #
lump $-1 $-1 $12 $0 #
transform $-1 1 0 0 0 1 0 0 0 1 45.777764213995788 23.129736825174504 8.9963643265933424 1 rotate no_reflect no_shear #
lump $-1 $-1 $13 $1 #
transform $-1 1 0 0 0 1 0 0 0 1 45.777764213995788 23.129736825174504 8.9963643265933424 1 rotate no_reflect no_shear #
lump $-1 $-1 $14 $2 #
transform $-1 1 0 0 0 1 0 0 0 1 45.777764213995788 23.129736825174504 8.9963643265933424 1 rotate no_reflect no_shear #
lump $-1 $-1 $15 $3 #
transform $-1 1 0 0 0 1 0 0 0 1 45.777764213995788 23.129736825174504 8.9963643265933424 1 rotate no_reflect no_shear #
shell $-1 $-1 $-1 $16 $-1 $4 #
shell $-1 $-1 $-1 $17 $-1 $6 #
shell $-1 $-1 $-1 $18 $-1 $8 #
shell $-1 $-1 $-1 $19 $-1 $10 #
face $-1 $20 $21 $12 $-1 $22 forward single #
face $-1 $23 $24 $13 $-1 $25 forward single #
face $-1 $26 $27 $14 $-1 $28 forward single #
face $-1 $29 $30 $15 $-1 $31 reversed single #
face $-1 $32 $33 $12 $-1 $34 reversed single #
loop $-1 $-1 $35 $16 #
plane-surface $-1 0 0 8.9963643265933424 0 0 1 1 0 0 forward_v I I I I #
face $-1 $36 $37 $13 $-1 $38 forward single #
loop $-1 $-1 $39 $17 #
plane-surface $-1 -43.5033728310475 -13.214830165243425 0 0 -1 0 0 0 -1 forward_v I I I I #
face $-1 $40 $41 $14 $-1 $42 forward single #
loop $-1 $-1 $43 $18 #
plane-surface $-1 -110.51729997169016 14.15946206526846 68.273815216114102 0 1 0 -0.70710678939079041 0 0.70710677298230451 forward_v I I I I #
face $-1 $44 $45 $15 $-1 $46 reversed single #
loop $-1 $47 $48 $19 #
cone-surface $-1 -41.891251360223556 18.64459944522148 5.109851436259838 0.70710678939079041 0 -0.70710677298230451 1.0606601594734568 0 1.0606601840861856 1 I I 0 1 1.5 forward I I I I #
face $-1 $49 $50 $12 $-1 $51 reversed single #
loop $-1 $-1 $52 $20 #
plane-surface $-1 0 0 -8.9963643265933424 0 0 1 1 0 0 forward_v I I I I #
coedge $-1 $53 $54 $55 $56 forward $21 $-1 #
face $-1 $57 $58 $13 $-1 $59 forward single #
loop $-1 $-1 $60 $23 #
plane-surface $-1 -41.228981448099212 -18.172283495208966 0 -1 0 0 0 0 1 forward_v I I I I #
coedge $-1 $61 $62 $63 $64 reversed $24 $-1 #
face $-1 $65 $66 $14 $-1 $67 forward single #
loop $-1 $-1 $68 $26 #
plane-surface $-1 -45.777764213995795 18.644599445221488 3.5342809607073349 -0.70710678939079041 0 0.70710677298230451 0.70710677298230451 0 0.70710678939079041 forward_v I I I I #
coedge $-1 $69 $70 $71 $72 reversed $27 $-1 #
face $-1 $73 $74 $15 $-1 $75 forward single #
loop $-1 $76 $77 $29 #
cone-surface $-1 -40.205450033977137 18.64459944522148 3.4240501491326096 0.70710678939079041 0 -0.70710677298230451 0.53033007973672841 0 0.53033009204309278 1 I I -0.70710678118654724 0.70710678118654768 0.75 forward I I I I #
loop $-1 $-1 $78 $19 #
coedge $-1 $48 $48 $79 $80 reversed $30 $-1 #
face $-1 $81 $82 $12 $-1 $83 reversed single #
loop $-1 $-1 $84 $32 #
plane-surface $-1 0 -23.129736825174504 0 0 1 0 0 0 1 forward_v I I I I #
coedge $-1 $85 $86 $87 $88 forward $33 $-1 #
coedge $-1 $89 $35 $90 $91 forward $21 $-1 #
coedge $-1 $35 $89 $92 $93 forward $21 $-1 #
coedge $-1 $94 $95 $35 $56 reversed $96 $-1 #
edge $-1 $97 -23.129736825174504 $98 23.129736825174504 $55 $99 forward 7 unknown #
face $-1 $100 $101 $13 $-1 $102 reversed single #
loop $-1 $-1 $103 $36 #
plane-surface $-1 0 0 8.9963643265933424 0 0 1 1 0 0 forward_v I I I I #
coedge $-1 $104 $105 $106 $107 reversed $37 $-1 #
coedge $-1 $108 $39 $103 $109 reversed $24 $-1 #
coedge $-1 $39 $108 $110 $111 reversed $24 $-1 #
coedge $-1 $105 $104 $39 $64 forward $37 $-1 #
edge $-1 $112 -8.9963643265933424 $113 8.9963643265933424 $63 $114 forward 7 unknown #
face $-1 $115 $116 $14 $-1 $117 reversed single #
loop $-1 $-1 $118 $40 #
plane-surface $-1 0 0 8.9963643265933424 0 0 1 1 0 0 forward_v I I I I #
coedge $-1 $119 $120 $118 $121 reversed $41 $-1 #
coedge $-1 $70 $43 $120 $122 forward $27 $-1 #
coedge $-1 $43 $69 $123 $124 reversed $27 $-1 #
coedge $-1 $125 $118 $43 $72 forward $66 $-1 #
edge $-1 $126 -14.942969010987085 $127 -9.4808857718492945 $71 $128 forward 7 unknown #
face $-1 $129 $130 $15 $-1 $131 forward single #
loop $-1 $-1 $132 $44 #
plane-surface $-1 -110.51729997169016 14.15946206526846 68.273815216114102 0 1 0 -0.70710678939079041 0 0.70710677298230451 forward_v I I I I #
loop $-1 $-1 $133 $29 #
coedge $-1 $77 $77 $78 $134 forward $45 $-1 #
coedge $-1 $78 $78 $77 $134 reversed $47 $-1 #
coedge $-1 $79 $79 $48 $80 forward $130 $-1 #
edge $-1 $135 0 $135 6.2831853071796004 $79 $136 forward 7 unknown #
face $-1 $137 $138 $12 $-1 $139 reversed single #
loop $-1 $-1 $140 $49 #
plane-surface $-1 -45.777764213995788 0 0 1 0 0 0 0 -1 forward_v I I I I #
coedge $-1 $141 $92 $142 $143 forward $50 $-1 #
coedge $-1 $144 $52 $141 $145 forward $33 $-1 #
coedge $-1 $52 $144 $146 $147 forward $33 $-1 #
coedge $-1 $95 $94 $52 $88 reversed $96 $-1 #
edge $-1 $148 -23.129736825174504 $149 23.129736825174504 $87 $150 forward 7 unknown #
coedge $-1 $54 $53 $151 $152 forward $21 $-1 #
coedge $-1 $153 $154 $53 $91 reversed $138 $-1 #
edge $-1 $98 -45.777764213995788 $155 45.777764213995788 $90 $156 forward 7 unknown #
coedge $-1 $84 $157 $54 $93 reversed $50 $-1 #
edge $-1 $158 -45.777764213995788 $97 45.777764213995788 $92 $159 forward 7 unknown #
coedge $-1 $87 $55 $157 $160 forward $96 $-1 #
coedge $-1 $55 $87 $153 $161 reversed $96 $-1 #
loop $-1 $-1 $94 $137 #
vertex $-1 $56 $162 #
vertex $-1 $56 $163 #
straight-curve $-1 45.777764213995788 0 8.9963643265933424 0 1 0 I I #
face $-1 $164 $165 $13 $-1 $166 reversed single #
loop $-1 $-1 $106 $57 #
plane-surface $-1 0 -23.129736825174504 0 0 1 0 0 0 1 forward_v I I I I #
coedge $-1 $167 $168 $61 $109 forward $58 $-1 #
coedge $-1 $63 $60 $167 $169 reversed $37 $-1 #
coedge $-1 $60 $63 $170 $171 reversed $37 $-1 #
coedge $-1 $172 $173 $60 $107 forward $101 $-1 #
edge $-1 $174 -8.9963643265933424 $175 8.9963643265933424 $106 $176 forward 7 unknown #
coedge $-1 $62 $61 $177 $178 reversed $24 $-1 #
edge $-1 $179 -24.026077798472038 $112 -19.477295032575462 $103 $180 forward 7 unknown #
coedge $-1 $181 $170 $62 $111 forward $165 $-1 #
edge $-1 $113 19.477295032575462 $182 24.026077798472038 $110 $183 forward 7 unknown #
vertex $-1 $109 $184 #
vertex $-1 $111 $185 #
straight-curve $-1 -41.228981448099212 -13.214830165243425 0 0 0 -1 I I #
face $-1 $186 $187 $14 $-1 $188 forward single #
loop $-1 $-1 $123 $65 #
plane-surface $-1 -45.777764213995788 0 0 1 0 0 0 0 -1 forward_v I I I I #
coedge $-1 $71 $189 $68 $121 forward $66 $-1 #
coedge $-1 $190 $68 $191 $192 reversed $41 $-1 #
coedge $-1 $68 $190 $69 $122 reversed $41 $-1 #
edge $-1 $193 -13.807437102563771 $126 -4.8371623426577166 $118 $194 forward 7 unknown #
edge $-1 $126 -7.7245522852239601 $195 -1.0048591735576163e-014 $69 $196 forward 7 unknown #
coedge $-1 $197 $198 $70 $124 forward $116 $-1 #
edge $-1 $127 25.140543281463707 $195 30.602626647349709 $123 $199 forward 7 unknown #
coedge $-1 $200 $71 $198 $201 forward $66 $-1 #
vertex $-1 $121 $202 #
vertex $-1 $201 $203 #
straight-curve $-1 -55.258649985845082 14.15946206526846 8.9963643265933442 -1 0 0 I I #
face $-1 $204 $205 $15 $-1 $206 forward single #
loop $-1 $207 $79 $73 #
plane-surface $-1 -45.777764213995795 18.644599445221488 3.5342809607073349 -0.70710678939079041 0 0.70710677298230451 0.70710677298230451 0 0.70710678939079041 forward_v I I I I #
coedge $-1 $208 $209 $210 $211 reversed $74 $-1 #
coedge $-1 $133 $133 $-1 $212 forward $76 $-1 #
edge $-1 $213 0 $213 6.2831853071796004 $77 $214 forward 7 unknown #
vertex $-1 $80 $215 #
ellipse-curve $-1 -43.046722594426889 18.64459944522148 6.2653226436503431 0.70710678939079041 0 -0.70710677298230451 1.0606601594734568 0 1.0606601840861856 1 I I #
face $-1 $-1 $96 $12 $-1 $216 reversed single #
loop $-1 $-1 $153 $81 #
plane-surface $-1 0 23.129736825174504 0 0 -1 0 0 0 -1 forward_v I I I I #
coedge $-1 $217 $151 $154 $218 forward $82 $-1 #
coedge $-1 $157 $84 $85 $145 reversed $50 $-1 #
coedge $-1 $151 $217 $84 $143 reversed $82 $-1 #
edge $-1 $158 -8.9963643265933424 $219 8.9963643265933424 $142 $220 forward 7 unknown #
coedge $-1 $86 $85 $217 $221 forward $33 $-1 #
edge $-1 $149 -45.777764213995788 $219 45.777764213995788 $141 $222 forward 7 unknown #
coedge $-1 $154 $153 $86 $147 reversed $138 $-1 #
edge $-1 $223 -45.777764213995788 $148 45.777764213995788 $146 $224 forward 7 unknown #
vertex $-1 $88 $225 #
vertex $-1 $160 $226 #
straight-curve $-1 45.777764213995788 0 -8.9963643265933424 0 -1 0 I I #
coedge $-1 $140 $142 $89 $152 reversed $82 $-1 #
edge $-1 $155 -23.129736825174504 $158 23.129736825174504 $151 $227 forward 7 unknown #
coedge $-1 $146 $90 $95 $161 forward $138 $-1 #
coedge $-1 $90 $146 $140 $218 reversed $138 $-1 #
vertex $-1 $91 $228 #
straight-curve $-1 0 23.129736825174504 8.9963643265933424 -1 0 0 I I #
coedge $-1 $92 $141 $94 $160 reversed $50 $-1 #
vertex $-1 $152 $229 #
straight-curve $-1 0 -23.129736825174504 8.9963643265933424 1 0 0 I I #
edge $-1 $97 -8.9963643265933424 $149 8.9963643265933424 $94 $230 forward 7 unknown #
edge $-1 $98 -8.9963643265933424 $148 8.9963643265933424 $95 $231 forward 7 unknown #
point $-1 45.777764213995788 -23.129736825174504 8.9963643265933424 #
point $-1 45.777764213995788 23.129736825174504 8.9963643265933424 #
face $-1 $232 $233 $13 $-1 $234 reversed single #
loop $-1 $-1 $110 $100 #
plane-surface $-1 0 0 -8.9963643265933424 0 0 1 1 0 0 forward_v I I I I #
coedge $-1 $235 $103 $104 $169 forward $58 $-1 #
coedge $-1 $103 $236 $237 $238 forward $58 $-1 #
edge $-1 $112 4.1286884176389425 $174 14.043595077570021 $167 $239 forward 7 unknown #
coedge $-1 $110 $240 $105 $171 forward $165 $-1 #
edge $-1 $175 -14.043595077570021 $113 -4.1286884176389425 $170 $241 forward 7 unknown #
coedge $-1 $242 $106 $240 $243 reversed $101 $-1 #
coedge $-1 $106 $242 $235 $244 reversed $101 $-1 #
vertex $-1 $244 $245 #
vertex $-1 $107 $246 #
straight-curve $-1 -41.228981448099212 -23.129736825174504 0 0 0 -1 I I #
coedge $-1 $237 $247 $108 $178 forward $233 $-1 #
edge $-1 $182 -8.9963643265933424 $179 8.9963643265933424 $177 $248 forward 7 unknown #
vertex $-1 $178 $249 #
straight-curve $-1 -21.75168641552375 -13.214830165243425 8.9963643265933424 1 0 0 I I #
coedge $-1 $250 $110 $247 $251 forward $165 $-1 #
vertex $-1 $251 $252 #
straight-curve $-1 -21.75168641552375 -13.214830165243425 -8.9963643265933424 -1 0 0 I I #
point $-1 -41.228981448099212 -13.214830165243425 8.9963643265933424 #
point $-1 -41.228981448099212 -13.214830165243425 -8.9963643265933424 #
face $-1 $253 $254 $14 $-1 $255 forward single #
loop $-1 $-1 $256 $115 #
plane-surface $-1 -43.5033728310475 -13.214830165243425 0 0 -1 0 0 0 -1 forward_v I I I I #
coedge $-1 $118 $257 $258 $259 forward $66 $-1 #
coedge $-1 $120 $119 $197 $260 reversed $41 $-1 #
coedge $-1 $258 $261 $119 $192 forward $262 $-1 #
edge $-1 $263 -14.935326532386306 $193 -7.2107742471623553 $191 $264 forward 7 unknown #
vertex $-1 $192 $265 #
straight-curve $-1 -40.31568097485799 9.3222997226107438 8.9963643265933406 0 -1 0 I I #
vertex $-1 $260 $266 #
straight-curve $-1 -45.777764213995795 14.15946206526846 3.5342809607073349 -0.70710677298230451 0 -0.70710678939079041 I I #
coedge $-1 $267 $123 $190 $260 forward $116 $-1 #
coedge $-1 $123 $268 $125 $201 reversed $116 $-1 #
straight-curve $-1 -45.777764213995788 14.15946206526846 34.136907608057051 0 0 -1 I I #
coedge $-1 $269 $125 $270 $271 forward $66 $-1 #
edge $-1 $127 -14.15946206526846 $272 13.214830165243425 $198 $273 forward 7 unknown #
point $-1 -40.315680974857997 14.15946206526846 8.9963643265933424 #
point $-1 -45.777764213995788 14.15946206526846 8.9963643265933424 #
face $-1 $274 $275 $15 $-1 $276 reversed single #
loop $-1 $-1 $277 $129 #
plane-surface $-1 0 0 8.9963643265933424 0 0 1 1 0 0 forward_v I I I I #
loop $-1 $-1 $278 $73 #
coedge $-1 $209 $132 $279 $280 forward $74 $-1 #
coedge $-1 $132 $208 $281 $282 reversed $74 $-1 #
coedge $-1 $283 $277 $132 $211 forward $205 $-1 #
edge $-1 $284 -14.942969010987085 $285 -9.4808857718492945 $210 $286 forward 7 unknown #
edge $-1 $287 1 $287 0 $133 $-1 forward 7 unknown #
vertex $-1 $134 $288 #
ellipse-curve $-1 -40.735780126020231 18.64459944522148 3.9543802288693382 -0.70710678939079041 0 0.70710677298230451 1.0606601594734568 0 1.0606601840861856 1 I I #
point $-1 -41.986062434953432 18.64459944522148 7.3259828277365235 #
plane-surface $-1 45.777764213995788 0 0 -1 0 0 0 0 1 forward_v I I I I #
coedge $-1 $142 $140 $144 $221 reversed $82 $-1 #
edge $-1 $155 -8.9963643265933424 $223 8.9963643265933424 $154 $289 forward 7 unknown #
vertex $-1 $221 $290 #
straight-curve $-1 -45.777764213995788 -23.129736825174504 0 0 0 -1 I I #
edge $-1 $219 -23.129736825174504 $223 23.129736825174504 $217 $291 forward 7 unknown #
straight-curve $-1 0 -23.129736825174504 -8.9963643265933424 -1 0 0 I I #
vertex $-1 $147 $292 #
straight-curve $-1 0 23.129736825174504 -8.9963643265933424 1 0 0 I I #
point $-1 45.777764213995788 23.129736825174504 -8.9963643265933424 #
point $-1 45.777764213995788 -23.129736825174504 -8.9963643265933424 #
straight-curve $-1 -45.777764213995788 0 8.9963643265933424 0 -1 0 I I #
point $-1 -45.777764213995788 23.129736825174504 8.9963643265933424 #
point $-1 -45.777764213995788 -23.129736825174504 8.9963643265933424 #
straight-curve $-1 45.777764213995788 -23.129736825174504 0 0 0 -1 I I #
straight-curve $-1 45.777764213995788 23.129736825174504 0 0 0 -1 I I #
face $-1 $293 $294 $13 $-1 $295 reversed single #
loop $-1 $-1 $177 $164 #
plane-surface $-1 -45.777764213995788 0 0 1 0 0 0 0 -1 forward_v I I I I #
coedge $-1 $296 $167 $173 $244 forward $58 $-1 #
coedge $-1 $168 $296 $297 $298 forward $58 $-1 #
coedge $-1 $299 $177 $168 $238 reversed $233 $-1 #
edge $-1 $300 -23.129736825174504 $179 13.214830165243425 $237 $301 forward 7 unknown #
straight-curve $-1 -41.228981448099212 -9.0861417476044828 8.9963643265933424 0 -1 0 I I #
coedge $-1 $170 $302 $172 $243 forward $165 $-1 #
straight-curve $-1 -41.228981448099212 -9.0861417476044828 -8.9963643265933424 0 1 0 I I #
coedge $-1 $173 $172 $303 $304 reversed $101 $-1 #
edge $-1 $305 -45.777764213995788 $175 41.228981448099212 $172 $306 forward 7 unknown #
edge $-1 $174 -41.228981448099212 $307 45.777764213995788 $173 $308 forward 7 unknown #
point $-1 -41.228981448099212 -23.129736825174504 8.9963643265933424 #
point $-1 -41.228981448099212 -23.129736825174504 -8.9963643265933424 #
coedge $-1 $177 $299 $181 $251 reversed $233 $-1 #
straight-curve $-1 -45.777764213995788 -13.214830165243425 0 0 0 1 I I #
point $-1 -45.777764213995788 -13.214830165243425 8.9963643265933424 #
coedge $-1 $302 $181 $309 $310 forward $165 $-1 #
edge $-1 $182 -13.214830165243425 $311 23.129736825174504 $247 $312 forward 7 unknown #
point $-1 -45.777764213995788 -13.214830165243425 -8.9963643265933424 #
face $-1 $313 $314 $14 $-1 $315 reversed single #
loop $-1 $-1 $316 $186 #
plane-surface $-1 -41.228981448099212 -18.172283495208966 0 -1 0 0 0 0 1 forward_v I I I I #
coedge $-1 $270 $317 $318 $319 reversed $187 $-1 #
coedge $-1 $189 $320 $321 $322 forward $66 $-1 #
coedge $-1 $323 $191 $189 $259 reversed $262 $-1 #
edge $-1 $324 -45.777764213995788 $193 40.315680974857997 $258 $325 forward 7 unknown #
edge $-1 $195 4.8371623426577166 $263 13.807437102563771 $197 $326 forward 7 unknown #
coedge $-1 $191 $327 $267 $328 reversed $262 $-1 #
loop $-1 $-1 $191 $329 #
vertex $-1 $328 $330 #
straight-curve $-1 -35.216893666243116 23.129736825174504 14.095151753526107 0.70710677298230462 0 0.70710678939079052 I I #
point $-1 -40.315680974857997 23.129736825174515 8.9963643265933424 #
point $-1 -45.777764213995788 14.15946206526846 3.534280960707342 #
coedge $-1 $331 $197 $261 $328 forward $116 $-1 #
coedge $-1 $198 $331 $332 $333 forward $116 $-1 #
coedge $-1 $320 $200 $334 $335 forward $66 $-1 #
coedge $-1 $332 $256 $200 $271 reversed $187 $-1 #
edge $-1 $272 -24.026077798472038 $336 -19.477295032575462 $200 $337 forward 7 unknown #
vertex $-1 $333 $338 #
straight-curve $-1 -45.777764213995788 0 8.9963643265933424 0 -1 0 I I #
face $-1 $339 $340 $15 $-1 $341 forward single #
loop $-1 $-1 $281 $204 #
plane-surface $-1 -45.777764213995788 0 0 1 0 0 0 0 -1 forward_v I I I I #
coedge $-1 $210 $342 $278 $343 forward $205 $-1 #
coedge $-1 $344 $279 $277 $343 reversed $207 $-1 #
coedge $-1 $278 $345 $208 $280 reversed $207 $-1 #
edge $-1 $284 -7.7245522852239601 $346 -1.0048591735576163e-014 $208 $347 forward 7 unknown #
coedge $-1 $348 $349 $209 $282 forward $275 $-1 #
edge $-1 $285 25.140543281463707 $346 30.602626647349709 $281 $350 forward 7 unknown #
coedge $-1 $351 $210 $349 $352 forward $205 $-1 #
vertex $-1 $343 $353 #
vertex $-1 $352 $354 #
straight-curve $-1 -55.258649985845082 14.15946206526846 8.9963643265933442 -1 0 0 I I #
vertex $-1 $212 $355 #
point $-1 -39.675119966546774 18.64459944522148 5.0150404129555239 #
straight-curve $-1 -45.777764213995788 23.129736825174504 0 0 0 -1 I I #
point $-1 -45.777764213995788 -23.129736825174504 -8.9963643265933424 #
straight-curve $-1 -45.777764213995788 0 -8.9963643265933424 0 1 0 I I #
point $-1 -45.777764213995788 23.129736825174504 -8.9963643265933424 #
face $-1 $-1 $356 $13 $-1 $357 reversed single #
loop $-1 $-1 $358 $232 #
plane-surface $-1 0 23.129736825174504 0 0 -1 0 0 0 -1 forward_v I I I I #
coedge $-1 $236 $235 $359 $360 forward $58 $-1 #
coedge $-1 $358 $361 $236 $298 reversed $294 $-1 #
edge $-1 $362 -45.777764213995788 $300 45.777764213995788 $297 $363 forward 7 unknown #
coedge $-1 $247 $237 $361 $364 forward $233 $-1 #
vertex $-1 $298 $365 #
straight-curve $-1 -45.777764213995788 0 8.9963643265933424 0 -1 0 I I #
coedge $-1 $240 $250 $366 $367 forward $165 $-1 #
coedge $-1 $366 $359 $242 $304 forward $356 $-1 #
edge $-1 $307 -8.9963643265933424 $305 8.9963643265933424 $303 $368 forward 7 unknown #
vertex $-1 $304 $369 #
straight-curve $-1 0 -23.129736825174504 -8.9963643265933424 -1 0 0 I I #
vertex $-1 $360 $370 #
straight-curve $-1 0 -23.129736825174504 8.9963643265933424 1 0 0 I I #
coedge $-1 $361 $358 $250 $310 reversed $294 $-1 #
edge $-1 $311 -45.777764213995788 $371 45.777764213995788 $309 $372 forward 7 unknown #
vertex $-1 $310 $373 #
straight-curve $-1 -45.777764213995788 0 -8.9963643265933424 0 1 0 I I #
face $-1 $329 $374 $14 $-1 $375 reversed single #
loop $-1 $-1 $376 $253 #
plane-surface $-1 0 -23.129736825174504 0 0 1 0 0 0 1 forward_v I I I I #
coedge $-1 $334 $377 $376 $378 reversed $254 $-1 #
coedge $-1 $256 $332 $379 $380 reversed $187 $-1 #
coedge $-1 $377 $334 $256 $319 forward $254 $-1 #
edge $-1 $336 -8.9963643265933424 $381 8.9963643265933424 $318 $382 forward 7 unknown #
coedge $-1 $257 $269 $383 $384 forward $66 $-1 #
coedge $-1 $385 $386 $257 $322 reversed $387 $-1 #
edge $-1 $388 -23.129736825174504 $324 23.129736825174504 $321 $389 forward 7 unknown #
coedge $-1 $327 $258 $386 $390 forward $262 $-1 #
vertex $-1 $322 $391 #
straight-curve $-1 0 23.129736825174504 8.9963643265933424 -1 0 0 I I #
straight-curve $-1 -45.777764213995788 9.3222997226107438 3.5342809607073478 0 1 0 I I #
coedge $-1 $261 $323 $392 $393 reversed $262 $-1 #
edge $-1 $263 -3.534280960707342 $394 8.9963643265933424 $261 $395 forward 7 unknown #
face $-1 $396 $262 $14 $-1 $397 reversed single #
point $-1 -45.777764213995788 23.129736825174515 3.534280960707342 #
coedge $-1 $268 $267 $398 $399 reversed $116 $-1 #
coedge $-1 $317 $270 $268 $333 reversed $187 $-1 #
edge $-1 $400 -8.9963643265933424 $272 8.9963643265933424 $268 $401 forward 7 unknown #
coedge $-1 $318 $316 $269 $335 reversed $254 $-1 #
edge $-1 $336 4.1286884176389425 $402 14.043595077570021 $269 $403 forward 7 unknown #
vertex $-1 $271 $404 #
straight-curve $-1 -21.75168641552375 -13.214830165243425 8.9963643265933424 1 0 0 I I #
point $-1 -45.777764213995788 -13.214830165243425 8.9963643265933424 #
face $-1 $405 $406 $15 $-1 $407 forward single #
loop $-1 $-1 $408 $274 #
plane-surface $-1 -43.5033728310475 -13.214830165243425 0 0 -1 0 0 0 -1 forward_v I I I I #
coedge $-1 $277 $409 $410 $411 forward $205 $-1 #
edge $-1 $412 -13.807437102563771 $284 -4.8371623426577166 $277 $413 forward 7 unknown #
coedge $-1 $345 $278 $414 $415 reversed $207 $-1 #
coedge $-1 $279 $344 $348 $416 reversed $207 $-1 #
vertex $-1 $416 $417 #
straight-curve $-1 -45.777764213995795 14.15946206526846 3.5342809607073349 -0.70710677298230451 0 -0.70710678939079041 I I #
coedge $-1 $418 $281 $345 $416 forward $275 $-1 #
coedge $-1 $281 $419 $283 $352 reversed $275 $-1 #
straight-curve $-1 -45.777764213995788 14.15946206526846 34.136907608057051 0 0 -1 I I #
coedge $-1 $420 $283 $421 $422 forward $205 $-1 #
edge $-1 $285 -14.15946206526846 $423 13.214830165243425 $349 $424 forward 7 unknown #
point $-1 -40.315680974857997 14.15946206526846 8.9963643265933424 #
point $-1 -45.777764213995788 14.15946206526846 8.9963643265933424 #
point $-1 -39.675119941934042 18.64459944522148 2.8937200693958811 #
loop $-1 $-1 $303 $293 #
plane-surface $-1 45.777764213995788 0 0 -1 0 0 0 0 1 forward_v I I I I #
coedge $-1 $309 $297 $425 $426 forward $294 $-1 #
coedge $-1 $303 $425 $296 $360 reversed $356 $-1 #
edge $-1 $307 -23.129736825174504 $362 23.129736825174504 $359 $427 forward 7 unknown #
coedge $-1 $297 $309 $299 $364 reversed $294 $-1 #
vertex $-1 $360 $428 #
straight-curve $-1 0 23.129736825174504 8.9963643265933424 -1 0 0 I I #
edge $-1 $300 -8.9963643265933424 $311 8.9963643265933424 $361 $429 forward 7 unknown #
point $-1 -45.777764213995788 23.129736825174504 8.9963643265933424 #
coedge $-1 $425 $303 $302 $367 reversed $356 $-1 #
edge $-1 $371 -23.129736825174504 $305 23.129736825174504 $366 $430 forward 7 unknown #
straight-curve $-1 45.777764213995788 -23.129736825174504 0 0 0 -1 I I #
point $-1 45.777764213995788 -23.129736825174504 -8.9963643265933424 #
point $-1 45.777764213995788 -23.129736825174504 8.9963643265933424 #
vertex $-1 $367 $431 #
straight-curve $-1 0 23.129736825174504 -8.9963643265933424 1 0 0 I I #
point $-1 -45.777764213995788 23.129736825174504 -8.9963643265933424 #
loop $-1 $-1 $379 $313 #
plane-surface $-1 0 0 -8.9963643265933424 0 0 1 1 0 0 forward_v I I I I #
coedge $-1 $432 $383 $316 $378 forward $314 $-1 #
coedge $-1 $316 $318 $433 $434 reversed $254 $-1 #
edge $-1 $402 -8.9963643265933424 $435 8.9963643265933424 $376 $436 forward 7 unknown #
coedge $-1 $398 $433 $317 $380 forward $374 $-1 #
edge $-1 $381 19.477295032575462 $400 24.026077798472038 $379 $437 forward 7 unknown #
vertex $-1 $380 $438 #
straight-curve $-1 -41.228981448099212 -13.214830165243425 0 0 0 -1 I I #
coedge $-1 $376 $439 $320 $384 reversed $314 $-1 #
edge $-1 $402 -41.228981448099212 $388 45.777764213995788 $383 $440 forward 7 unknown #
coedge $-1 $441 $321 $439 $442 forward $387 $-1 #
coedge $-1 $321 $441 $323 $390 reversed $387 $-1 #
loop $-1 $-1 $385 $396 #
vertex $-1 $322 $443 #
straight-curve $-1 45.777764213995788 0 8.9963643265933424 0 1 0 I I #
edge $-1 $324 -8.9963643265933424 $444 8.9963643265933424 $386 $445 forward 7 unknown #
point $-1 45.777764213995788 23.129736825174504 8.9963643265933424 #
coedge $-1 $446 $398 $327 $393 forward $374 $-1 #
edge $-1 $394 -45.777764213995788 $444 45.777764213995788 $327 $447 forward 7 unknown #
vertex $-1 $393 $448 #
straight-curve $-1 -45.777764213995788 23.129736825174504 0 0 0 -1 I I #
face $-1 $-1 $387 $14 $-1 $449 reversed single #
plane-surface $-1 0 23.129736825174504 0 0 -1 0 0 0 -1 forward_v I I I I #
coedge $-1 $392 $379 $331 $399 forward $374 $-1 #
edge $-1 $400 -13.214830165243425 $394 23.129736825174504 $331 $450 forward 7 unknown #
vertex $-1 $399 $451 #
straight-curve $-1 -45.777764213995788 -13.214830165243425 0 0 0 1 I I #
vertex $-1 $384 $452 #
straight-curve $-1 -41.228981448099212 -9.0861417476044828 8.9963643265933424 0 -1 0 I I #
point $-1 -41.228981448099212 -13.214830165243425 8.9963643265933424 #
face $-1 $453 $454 $15 $-1 $455 reversed single #
loop $-1 $-1 $456 $339 #
plane-surface $-1 -41.228981448099212 -18.172283495208966 0 -1 0 0 0 0 1 forward_v I I I I #
coedge $-1 $421 $457 $458 $459 reversed $340 $-1 #
coedge $-1 $342 $460 $461 $462 forward $205 $-1 #
coedge $-1 $463 $414 $342 $411 reversed $464 $-1 #
edge $-1 $465 -45.777764213995788 $412 40.315680974857997 $410 $466 forward 7 unknown #
vertex $-1 $415 $467 #
straight-curve $-1 -40.31568097485799 9.3222997226107438 8.9963643265933406 0 -1 0 I I #
coedge $-1 $410 $468 $344 $415 forward $464 $-1 #
edge $-1 $469 -14.935326532386306 $412 -7.2107742471623553 $414 $470 forward 7 unknown #
edge $-1 $346 4.8371623426577166 $469 13.807437102563771 $348 $471 forward 7 unknown #
point $-1 -45.777764213995788 14.15946206526846 3.534280960707342 #
coedge $-1 $472 $348 $468 $473 forward $275 $-1 #
coedge $-1 $349 $472 $474 $475 forward $275 $-1 #
coedge $-1 $460 $351 $476 $477 forward $205 $-1 #
coedge $-1 $474 $408 $351 $422 reversed $340 $-1 #
edge $-1 $423 -24.026077798472038 $478 -19.477295032575462 $351 $479 forward 7 unknown #
vertex $-1 $475 $480 #
straight-curve $-1 -45.777764213995788 0 8.9963643265933424 0 -1 0 I I #
coedge $-1 $359 $366 $358 $426 reversed $356 $-1 #
edge $-1 $362 -8.9963643265933424 $371 8.9963643265933424 $425 $481 forward 7 unknown #
straight-curve $-1 45.777764213995788 0 8.9963643265933424 0 1 0 I I #
point $-1 45.777764213995788 23.129736825174504 8.9963643265933424 #
straight-curve $-1 -45.777764213995788 23.129736825174504 0 0 0 -1 I I #
straight-curve $-1 45.777764213995788 0 -8.9963643265933424 0 -1 0 I I #
point $-1 45.777764213995788 23.129736825174504 -8.9963643265933424 #
coedge $-1 $439 $376 $482 $483 reversed $314 $-1 #
coedge $-1 $379 $482 $377 $434 forward $374 $-1 #
edge $-1 $435 -14.043595077570021 $381 -4.1286884176389425 $433 $484 forward 7 unknown #
vertex $-1 $378 $485 #
straight-curve $-1 -41.228981448099212 -23.129736825174504 0 0 0 -1 I I #
straight-curve $-1 -21.75168641552375 -13.214830165243425 -8.9963643265933424 -1 0 0 I I #
point $-1 -41.228981448099212 -13.214830165243425 -8.9963643265933424 #
coedge $-1 $383 $432 $385 $442 reversed $314 $-1 #
straight-curve $-1 0 -23.129736825174504 8.9963643265933424 1 0 0 I I #
coedge $-1 $386 $385 $446 $486 reversed $387 $-1 #
edge $-1 $388 -8.9963643265933424 $487 8.9963643265933424 $385 $488 forward 7 unknown #
point $-1 45.777764213995788 -23.129736825174504 8.9963643265933424 #
vertex $-1 $486 $489 #
straight-curve $-1 45.777764213995788 23.129736825174504 0 0 0 -1 I I #
coedge $-1 $482 $392 $441 $486 forward $374 $-1 #
straight-curve $-1 0 23.129736825174504 -8.9963643265933424 1 0 0 I I #
point $-1 -45.777764213995788 23.129736825174504 -8.9963643265933424 #
plane-surface $-1 45.777764213995788 0 0 -1 0 0 0 0 1 forward_v I I I I #
straight-curve $-1 -45.777764213995788 0 -8.9963643265933424 0 1 0 I I #
point $-1 -45.777764213995788 -13.214830165243425 -8.9963643265933424 #
point $-1 -41.228981448099212 -23.129736825174504 8.9963643265933424 #
face $-1 $490 $491 $15 $-1 $492 reversed single #
loop $-1 $-1 $493 $405 #
plane-surface $-1 0 -23.129736825174504 0 0 1 0 0 0 1 forward_v I I I I #
coedge $-1 $476 $494 $493 $495 reversed $406 $-1 #
coedge $-1 $408 $474 $496 $497 reversed $340 $-1 #
coedge $-1 $494 $476 $408 $459 forward $406 $-1 #
edge $-1 $478 -8.9963643265933424 $498 8.9963643265933424 $458 $499 forward 7 unknown #
coedge $-1 $409 $420 $500 $501 forward $205 $-1 #
coedge $-1 $502 $503 $409 $462 reversed $504 $-1 #
edge $-1 $505 -23.129736825174504 $465 23.129736825174504 $461 $506 forward 7 unknown #
coedge $-1 $507 $410 $503 $508 forward $464 $-1 #
loop $-1 $-1 $414 $490 #
vertex $-1 $462 $509 #
straight-curve $-1 0 23.129736825174504 8.9963643265933424 -1 0 0 I I #
point $-1 -40.315680974857997 23.129736825174515 8.9963643265933424 #
coedge $-1 $414 $507 $418 $473 reversed $464 $-1 #
vertex $-1 $473 $510 #
straight-curve $-1 -35.216893666243116 23.129736825174504 14.095151753526107 0.70710677298230462 0 0.70710678939079052 I I #
straight-curve $-1 -45.777764213995788 9.3222997226107438 3.5342809607073478 0 1 0 I I #
coedge $-1 $419 $418 $511 $512 reversed $275 $-1 #
edge $-1 $469 -3.534280960707342 $513 8.9963643265933424 $468 $514 forward 7 unknown #
coedge $-1 $457 $421 $419 $475 reversed $340 $-1 #
edge $-1 $515 -8.9963643265933424 $423 8.9963643265933424 $419 $516 forward 7 unknown #
coedge $-1 $458 $456 $420 $477 reversed $406 $-1 #
edge $-1 $478 4.1286884176389425 $517 14.043595077570021 $420 $518 forward 7 unknown #
vertex $-1 $422 $519 #
straight-curve $-1 -21.75168641552375 -13.214830165243425 8.9963643265933424 1 0 0 I I #
point $-1 -45.777764213995788 -13.214830165243425 8.9963643265933424 #
straight-curve $-1 45.777764213995788 23.129736825174504 0 0 0 -1 I I #
coedge $-1 $433 $446 $432 $483 forward $374 $-1 #
edge $-1 $487 -45.777764213995788 $435 41.228981448099212 $432 $520 forward 7 unknown #
straight-curve $-1 -41.228981448099212 -9.0861417476044828 -8.9963643265933424 0 1 0 I I #
point $-1 -41.228981448099212 -23.129736825174504 -8.9963643265933424 #
edge $-1 $444 -23.129736825174504 $487 23.129736825174504 $441 $521 forward 7 unknown #
vertex $-1 $442 $522 #
straight-curve $-1 45.777764213995788 -23.129736825174504 0 0 0 -1 I I #
point $-1 45.777764213995788 23.129736825174504 -8.9963643265933424 #
face $-1 $523 $464 $15 $-1 $524 reversed single #
loop $-1 $-1 $496 $453 #
plane-surface $-1 0 0 -8.9963643265933424 0 0 1 1 0 0 forward_v I I I I #
coedge $-1 $525 $500 $456 $495 forward $454 $-1 #
coedge $-1 $456 $458 $526 $527 reversed $406 $-1 #
edge $-1 $517 -8.9963643265933424 $528 8.9963643265933424 $493 $529 forward 7 unknown #
coedge $-1 $511 $526 $457 $497 forward $491 $-1 #
edge $-1 $498 19.477295032575462 $515 24.026077798472038 $496 $530 forward 7 unknown #
vertex $-1 $497 $531 #
straight-curve $-1 -41.228981448099212 -13.214830165243425 0 0 0 -1 I I #
coedge $-1 $493 $532 $460 $501 reversed $454 $-1 #
edge $-1 $517 -41.228981448099212 $505 45.777764213995788 $500 $533 forward 7 unknown #
coedge $-1 $534 $461 $532 $535 forward $504 $-1 #
coedge $-1 $461 $534 $463 $508 reversed $504 $-1 #
loop $-1 $-1 $502 $523 #
vertex $-1 $462 $536 #
straight-curve $-1 45.777764213995788 0 8.9963643265933424 0 1 0 I I #
coedge $-1 $468 $463 $537 $538 reversed $464 $-1 #
edge $-1 $465 -8.9963643265933424 $539 8.9963643265933424 $503 $540 forward 7 unknown #
point $-1 45.777764213995788 23.129736825174504 8.9963643265933424 #
point $-1 -45.777764213995788 23.129736825174515 3.534280960707342 #
coedge $-1 $537 $496 $472 $512 forward $491 $-1 #
edge $-1 $515 -13.214830165243425 $513 23.129736825174504 $472 $541 forward 7 unknown #
vertex $-1 $538 $542 #
straight-curve $-1 -45.777764213995788 23.129736825174504 0 0 0 -1 I I #
vertex $-1 $512 $543 #
straight-curve $-1 -45.777764213995788 -13.214830165243425 0 0 0 1 I I #
vertex $-1 $501 $544 #
straight-curve $-1 -41.228981448099212 -9.0861417476044828 8.9963643265933424 0 -1 0 I I #
point $-1 -41.228981448099212 -13.214830165243425 8.9963643265933424 #
straight-curve $-1 0 -23.129736825174504 -8.9963643265933424 -1 0 0 I I #
straight-curve $-1 45.777764213995788 0 -8.9963643265933424 0 -1 0 I I #
point $-1 45.777764213995788 -23.129736825174504 -8.9963643265933424 #
face $-1 $-1 $504 $15 $-1 $545 reversed single #
plane-surface $-1 0 23.129736825174504 0 0 -1 0 0 0 -1 forward_v I I I I #
coedge $-1 $532 $493 $546 $547 reversed $454 $-1 #
coedge $-1 $496 $546 $494 $527 forward $491 $-1 #
edge $-1 $528 -14.043595077570021 $498 -4.1286884176389425 $526 $548 forward 7 unknown #
vertex $-1 $495 $549 #
straight-curve $-1 -41.228981448099212 -23.129736825174504 0 0 0 -1 I I #
straight-curve $-1 -21.75168641552375 -13.214830165243425 -8.9963643265933424 -1 0 0 I I #
point $-1 -41.228981448099212 -13.214830165243425 -8.9963643265933424 #
coedge $-1 $500 $525 $502 $535 reversed $454 $-1 #
straight-curve $-1 0 -23.129736825174504 8.9963643265933424 1 0 0 I I #
coedge $-1 $503 $502 $550 $551 reversed $504 $-1 #
edge $-1 $505 -8.9963643265933424 $552 8.9963643265933424 $502 $553 forward 7 unknown #
point $-1 45.777764213995788 -23.129736825174504 8.9963643265933424 #
coedge $-1 $550 $511 $507 $538 forward $491 $-1 #
edge $-1 $513 -45.777764213995788 $539 45.777764213995788 $507 $554 forward 7 unknown #
vertex $-1 $551 $555 #
straight-curve $-1 45.777764213995788 23.129736825174504 0 0 0 -1 I I #
straight-curve $-1 -45.777764213995788 0 -8.9963643265933424 0 1 0 I I #
point $-1 -45.777764213995788 23.129736825174504 -8.9963643265933424 #
point $-1 -45.777764213995788 -13.214830165243425 -8.9963643265933424 #
point $-1 -41.228981448099212 -23.129736825174504 8.9963643265933424 #
plane-surface $-1 45.777764213995788 0 0 -1 0 0 0 0 1 forward_v I I I I #
coedge $-1 $526 $550 $525 $547 forward $491 $-1 #
edge $-1 $552 -45.777764213995788 $528 41.228981448099212 $525 $556 forward 7 unknown #
straight-curve $-1 -41.228981448099212 -9.0861417476044828 -8.9963643265933424 0 1 0 I I #
point $-1 -41.228981448099212 -23.129736825174504 -8.9963643265933424 #
coedge $-1 $546 $537 $534 $551 forward $491 $-1 #
edge $-1 $539 -23.129736825174504 $552 23.129736825174504 $534 $557 forward 7 unknown #
vertex $-1 $535 $558 #
straight-curve $-1 45.777764213995788 -23.129736825174504 0 0 0 -1 I I #
straight-curve $-1 0 23.129736825174504 -8.9963643265933424 1 0 0 I I #
point $-1 45.777764213995788 23.129736825174504 -8.9963643265933424 #
straight-curve $-1 0 -23.129736825174504 -8.9963643265933424 -1 0 0 I I #
straight-curve $-1 45.777764213995788 0 -8.9963643265933424 0 -1 0 I I #
point $-1 45.777764213995788 -23.129736825174504 -8.9963643265933424 #
End-of-ACIS-data 