500 0 9 0           
7 Unknown 11 ACIS 5.0 NT 24 Fri Mar 26 20:20:27 1999 
-1 9.9999999999999995e-007 1e-010 
body $-1 $9 $-1 $10 #
body $-1 $11 $-1 $12 #
body $-1 $13 $-1 $14 #
body $-1 $15 $-1 $16 #
body $-1 $17 $-1 $18 #
body $-1 $19 $-1 $20 #
body $-1 $21 $-1 $22 #
body $-1 $23 $-1 $24 #
body $-1 $25 $-1 $26 #
lump $-1 $-1 $27 $0 #
transform $-1 1 0 0 0 1 0 0 0 1 59.895626697592093 39.951134284572056 10.189264480000265 1 rotate no_reflect no_shear #
lump $-1 $-1 $28 $1 #
transform $-1 1 0 0 0 1 0 0 0 1 59.895626697592093 39.951134284572056 10.189264480000265 1 rotate no_reflect no_shear #
lump $-1 $-1 $29 $2 #
transform $-1 1 0 0 0 1 0 0 0 1 59.895626697592093 39.951134284572056 10.189264480000265 1 rotate no_reflect no_shear #
lump $-1 $-1 $30 $3 #
transform $-1 1 0 0 0 1 0 0 0 1 59.895626697592093 39.951134284572056 10.189264480000265 1 rotate no_reflect no_shear #
lump $-1 $-1 $31 $4 #
transform $-1 1 0 0 0 1 0 0 0 1 59.895626697592093 39.951134284572056 10.189264480000265 1 rotate no_reflect no_shear #
lump $-1 $-1 $32 $5 #
transform $-1 1 0 0 0 1 0 0 0 1 59.895626697592093 39.951134284572056 10.189264480000265 1 rotate no_reflect no_shear #
lump $-1 $-1 $33 $6 #
transform $-1 1 0 0 0 1 0 0 0 1 59.895626697592093 39.951134284572056 10.189264480000265 1 rotate no_reflect no_shear #
lump $-1 $-1 $34 $7 #
transform $-1 1 0 0 0 1 0 0 0 1 59.895626697592093 39.951134284572056 10.189264480000265 1 rotate no_reflect no_shear #
lump $-1 $-1 $35 $8 #
transform $-1 1 0 0 0 1 0 0 0 1 59.895626697592093 39.951134284572056 10.189264480000265 1 rotate no_reflect no_shear #
shell $-1 $-1 $-1 $36 $-1 $9 #
shell $-1 $-1 $-1 $37 $-1 $11 #
shell $-1 $-1 $-1 $38 $-1 $13 #
shell $-1 $-1 $-1 $39 $-1 $15 #
shell $-1 $-1 $-1 $40 $-1 $17 #
shell $-1 $-1 $-1 $41 $-1 $19 #
shell $-1 $-1 $-1 $42 $-1 $21 #
shell $-1 $-1 $-1 $43 $-1 $23 #
shell $-1 $-1 $-1 $44 $-1 $25 #
face $-1 $45 $46 $27 $-1 $47 forward single #
face $-1 $48 $49 $28 $-1 $50 forward single #
face $-1 $51 $52 $29 $-1 $53 forward single #
face $-1 $54 $55 $30 $-1 $56 reversed single #
face $-1 $57 $58 $31 $-1 $59 forward single #
face $-1 $60 $61 $32 $-1 $62 forward single #
face $-1 $63 $64 $33 $-1 $65 reversed single #
face $-1 $66 $67 $34 $-1 $68 forward single #
face $-1 $69 $70 $35 $-1 $71 forward single #
face $-1 $72 $73 $27 $-1 $74 reversed single #
loop $-1 $-1 $75 $36 #
plane-surface $-1 0 0 10.189264480000265 0 0 1 1 0 0 forward_v I I I I #
face $-1 $76 $77 $28 $-1 $78 forward single #
loop $-1 $-1 $79 $37 #
plane-surface $-1 0 -39.951134284572056 0 0 1 0 0 0 1 forward_v I I I I #
face $-1 $80 $81 $29 $-1 $82 reversed single #
loop $-1 $-1 $83 $38 #
plane-surface $-1 0 39.951134284572056 0 0 -1 0 0 0 -1 forward_v I I I I #
face $-1 $84 $85 $30 $-1 $86 reversed single #
loop $-1 $-1 $87 $39 #
plane-surface $-1 -136.89596107524869 -23.054007819105948 95.64539247332867 0 1 0 -0.64278761758704617 0 0.76604443648966558 forward_v I I I I #
face $-1 $88 $89 $31 $-1 $90 forward single #
loop $-1 $91 $92 $40 #
cone-surface $-1 -55.237285544497546 -20.591827677463826 5.9634942538474043 0.64278761758704617 0 -0.76604443648966558 0.76604443648966558 0 0.64278761758704617 1 I I 0 1 1 forward I I I I #
face $-1 $93 $94 $32 $-1 $95 forward single #
loop $-1 $96 $97 $41 #
cone-surface $-1 -55.237285544497546 -16.898557465000643 5.9634942538474043 0.64278761758704617 0 -0.76604443648966558 0.76604443648966558 0 0.64278761758704617 1 I I 0 1 1 forward I I I I #
face $-1 $98 $99 $33 $-1 $100 reversed single #
loop $-1 $-1 $101 $42 #
plane-surface $-1 21.786576542294299 -15.293035828171412 165.9039342156448 0 -1 0 -0.52991927123019833 0 -0.84804809178421925 forward_v I I I I #
face $-1 $102 $103 $34 $-1 $104 forward single #
loop $-1 $105 $106 $43 #
cone-surface $-1 52.013386204324362 -26.003638288148576 4.8759886364062215 -0.52991927123019833 0 -0.84804809178421925 0.42402404589210962 0 -0.26495963561509916 1 I I 0 1 0.5 forward I I I I #
face $-1 $107 $108 $35 $-1 $109 forward single #
loop $-1 $110 $111 $44 #
cone-surface $-1 52.013386204324362 -19.577276812162275 4.8759886364062215 -0.52991927123019833 0 -0.84804809178421925 0.42402404589210962 0 -0.26495963561509916 1 I I 0 1 0.5 forward I I I I #
face $-1 $112 $113 $27 $-1 $114 reversed single #
loop $-1 $-1 $115 $45 #
plane-surface $-1 0 0 -10.189264480000265 0 0 1 1 0 0 forward_v I I I I #
coedge $-1 $116 $117 $118 $119 forward $46 $-1 #
face $-1 $120 $121 $28 $-1 $122 reversed single #
loop $-1 $-1 $123 $48 #
plane-surface $-1 0 0 10.189264480000265 0 0 1 1 0 0 forward_v I I I I #
coedge $-1 $124 $125 $126 $127 forward $49 $-1 #
face $-1 $128 $129 $29 $-1 $130 reversed single #
loop $-1 $-1 $131 $51 #
plane-surface $-1 59.895626697592093 0 0 -1 0 0 0 0 1 forward_v I I I I #
coedge $-1 $132 $133 $134 $135 forward $52 $-1 #
face $-1 $136 $137 $30 $-1 $138 reversed single #
loop $-1 $-1 $139 $54 #
plane-surface $-1 -59.895626697592093 -18.745192571232234 3.8799692698240591 -0.64278761758704617 0 0.76604443648966558 0.76604443648966558 0 0.64278761758704617 forward_v I I I I #
coedge $-1 $140 $141 $142 $143 reversed $55 $-1 #
face $-1 $-1 $144 $31 $-1 $145 forward single #
loop $-1 $146 $147 $57 #
cone-surface $-1 -54.017113120598069 -20.591827677463826 4.5093494145378195 0.64278761758704617 0 -0.76604443648966558 0.38302221824483279 0 0.32139380879352308 1 I I -0.70710678118654746 0.70710678118654746 0.5 forward I I I I #
loop $-1 $-1 $148 $40 #
coedge $-1 $92 $92 $149 $150 reversed $58 $-1 #
face $-1 $-1 $151 $32 $-1 $152 forward single #
loop $-1 $153 $154 $60 #
cone-surface $-1 -54.017113120598069 -16.898557465000643 4.5093494145378195 0.64278761758704617 0 -0.76604443648966558 0.38302221824483279 0 0.32139380879352308 1 I I -0.70710678118654746 0.70710678118654746 0.5 forward I I I I #
loop $-1 $-1 $155 $41 #
coedge $-1 $97 $97 $156 $157 reversed $61 $-1 #
face $-1 $158 $159 $33 $-1 $160 reversed single #
loop $-1 $-1 $161 $63 #
plane-surface $-1 -41.693117156633726 -22.790457550155427 64.315190361418971 0.52991927123019833 0 0.84804809178421925 0.84804809178421925 0 -0.52991927123019833 forward_v I I I I #
coedge $-1 $162 $163 $164 $165 reversed $64 $-1 #
face $-1 $-1 $166 $34 $-1 $167 forward single #
loop $-1 $168 $169 $66 #
cone-surface $-1 51.483244563332534 -26.003638288148576 4.0275846786207801 -0.52991927123019833 0 -0.84804809178421925 0.21201202294605481 0 -0.13247981780754958 1 I I -0.70710678118654746 0.70710678118654746 0.25 forward I I I I #
loop $-1 $-1 $170 $43 #
coedge $-1 $106 $106 $171 $172 reversed $67 $-1 #
face $-1 $-1 $173 $35 $-1 $174 forward single #
loop $-1 $175 $176 $69 #
cone-surface $-1 51.483244563332534 -19.577276812162275 4.0275846786207801 -0.52991927123019833 0 -0.84804809178421925 0.21201202294605481 0 -0.13247981780754958 1 I I -0.70710678118654746 0.70710678118654746 0.25 forward I I I I #
loop $-1 $-1 $177 $44 #
coedge $-1 $111 $111 $178 $179 reversed $70 $-1 #
face $-1 $180 $181 $27 $-1 $182 reversed single #
loop $-1 $-1 $183 $72 #
plane-surface $-1 0 -39.951134284572056 0 0 1 0 0 0 1 forward_v I I I I #
coedge $-1 $184 $185 $186 $187 forward $73 $-1 #
coedge $-1 $188 $75 $189 $190 forward $46 $-1 #
coedge $-1 $75 $188 $191 $192 forward $46 $-1 #
coedge $-1 $193 $194 $75 $119 reversed $195 $-1 #
edge $-1 $196 -39.951134284572056 $197 39.951134284572056 $118 $198 forward 7 unknown #
face $-1 $199 $200 $28 $-1 $201 reversed single #
loop $-1 $-1 $202 $76 #
plane-surface $-1 -59.895626697592093 0 0 1 0 0 0 0 -1 forward_v I I I I #
coedge $-1 $203 $204 $205 $206 forward $77 $-1 #
coedge $-1 $205 $79 $202 $207 reversed $49 $-1 #
coedge $-1 $79 $205 $208 $209 reversed $49 $-1 #
coedge $-1 $210 $211 $79 $127 reversed $200 $-1 #
edge $-1 $212 -59.895626697592093 $213 59.895626697592093 $126 $214 forward 7 unknown #
face $-1 $215 $216 $29 $-1 $217 reversed single #
loop $-1 $-1 $218 $80 #
plane-surface $-1 0 44.782761790788363 6.5462300524055781 0 0 1 1 0 0 forward_v I I I I #
coedge $-1 $219 $220 $132 $221 forward $81 $-1 #
coedge $-1 $222 $83 $131 $221 reversed $52 $-1 #
coedge $-1 $83 $222 $223 $224 reversed $52 $-1 #
coedge $-1 $225 $218 $83 $135 reversed $129 $-1 #
edge $-1 $226 -59.895626697592093 $227 59.895626697592093 $134 $228 forward 7 unknown #
face $-1 $229 $230 $30 $-1 $231 reversed single #
loop $-1 $-1 $232 $84 #
plane-surface $-1 -136.89596107524869 -14.436377323358521 95.64539247332867 0 -1 0 0.64278761758704617 0 -0.76604443648966558 forward_v I I I I #
coedge $-1 $233 $234 $235 $236 reversed $85 $-1 #
coedge $-1 $141 $87 $237 $238 reversed $55 $-1 #
coedge $-1 $87 $140 $233 $239 reversed $55 $-1 #
coedge $-1 $235 $240 $87 $143 forward $241 $-1 #
edge $-1 $242 8.5523538400322536 $243 16.071478916009418 $142 $244 forward 7 unknown #
loop $-1 $-1 $149 $88 #
plane-surface $-1 -59.895626697592093 -18.745192571232234 3.8799692698240591 -0.64278761758704617 0 0.76604443648966558 0.76604443648966558 0 0.64278761758704617 forward_v I I I I #
loop $-1 $-1 $245 $57 #
coedge $-1 $147 $147 $148 $246 reversed $89 $-1 #
coedge $-1 $148 $148 $147 $246 forward $91 $-1 #
coedge $-1 $149 $149 $92 $150 forward $144 $-1 #
edge $-1 $247 0 $247 6.2831853071796004 $149 $248 forward 7 unknown #
loop $-1 $-1 $156 $93 #
plane-surface $-1 -59.895626697592093 -18.745192571232234 3.8799692698240591 -0.64278761758704617 0 0.76604443648966558 0.76604443648966558 0 0.64278761758704617 forward_v I I I I #
loop $-1 $-1 $249 $60 #
coedge $-1 $154 $154 $155 $250 reversed $94 $-1 #
coedge $-1 $155 $155 $154 $250 forward $96 $-1 #
coedge $-1 $156 $156 $97 $157 forward $151 $-1 #
edge $-1 $251 0 $251 6.2831853071796004 $156 $252 forward 7 unknown #
face $-1 $253 $254 $33 $-1 $255 forward single #
loop $-1 $-1 $256 $98 #
plane-surface $-1 21.786576542294299 -30.287879272139442 165.9039342156448 0 1 0 0.52991927123019833 0 0.84804809178421925 forward_v I I I I #
coedge $-1 $257 $258 $259 $260 reversed $99 $-1 #
coedge $-1 $163 $101 $261 $262 reversed $64 $-1 #
coedge $-1 $101 $162 $257 $263 reversed $64 $-1 #
coedge $-1 $259 $264 $101 $165 forward $254 $-1 #
edge $-1 $265 -49.002338426444943 $266 -34.033181086278049 $164 $267 forward 7 unknown #
loop $-1 $-1 $171 $102 #
plane-surface $-1 -41.693117156633726 -22.790457550155427 64.315190361418971 0.52991927123019833 0 0.84804809178421925 0.84804809178421925 0 -0.52991927123019833 forward_v I I I I #
loop $-1 $-1 $268 $66 #
coedge $-1 $169 $169 $170 $269 reversed $103 $-1 #
coedge $-1 $170 $170 $169 $269 forward $105 $-1 #
coedge $-1 $171 $171 $106 $172 forward $166 $-1 #
edge $-1 $270 0 $270 6.2831853071796004 $171 $271 forward 7 unknown #
loop $-1 $-1 $178 $107 #
plane-surface $-1 -41.693117156633726 -22.790457550155427 64.315190361418971 0.52991927123019833 0 0.84804809178421925 0.84804809178421925 0 -0.52991927123019833 forward_v I I I I #
loop $-1 $-1 $272 $69 #
coedge $-1 $176 $176 $177 $273 reversed $108 $-1 #
coedge $-1 $177 $177 $176 $273 forward $110 $-1 #
coedge $-1 $178 $178 $111 $179 forward $173 $-1 #
edge $-1 $274 0 $274 6.2831853071796004 $178 $275 forward 7 unknown #
face $-1 $276 $277 $27 $-1 $278 reversed single #
loop $-1 $-1 $279 $112 #
plane-surface $-1 -59.895626697592093 0 0 1 0 0 0 0 -1 forward_v I I I I #
coedge $-1 $280 $191 $281 $282 forward $113 $-1 #
coedge $-1 $283 $115 $280 $284 forward $73 $-1 #
coedge $-1 $115 $283 $285 $286 forward $73 $-1 #
coedge $-1 $194 $193 $115 $187 reversed $195 $-1 #
edge $-1 $287 -39.951134284572056 $288 39.951134284572056 $186 $289 forward 7 unknown #
coedge $-1 $117 $116 $290 $291 forward $46 $-1 #
coedge $-1 $292 $293 $116 $190 reversed $277 $-1 #
edge $-1 $197 -59.895626697592093 $294 59.895626697592093 $189 $295 forward 7 unknown #
coedge $-1 $183 $296 $117 $192 reversed $113 $-1 #
edge $-1 $297 -59.895626697592093 $196 59.895626697592093 $191 $298 forward 7 unknown #
coedge $-1 $186 $118 $296 $299 forward $195 $-1 #
coedge $-1 $118 $186 $292 $300 reversed $195 $-1 #
loop $-1 $-1 $193 $276 #
vertex $-1 $119 $301 #
vertex $-1 $119 $302 #
straight-curve $-1 59.895626697592093 0 10.189264480000265 0 1 0 I I #
face $-1 $303 $304 $28 $-1 $305 reversed single #
loop $-1 $-1 $210 $120 #
plane-surface $-1 0 -44.782761790788363 6.5462300524055781 0 0 1 1 0 0 forward_v I I I I #
coedge $-1 $306 $307 $124 $207 forward $121 $-1 #
coedge $-1 $308 $123 $307 $309 forward $77 $-1 #
coedge $-1 $123 $308 $310 $311 forward $77 $-1 #
coedge $-1 $125 $124 $123 $206 reversed $49 $-1 #
edge $-1 $312 -59.895626697592093 $313 59.895626697592093 $123 $314 forward 7 unknown #
edge $-1 $313 -10.189264480000265 $213 -6.5462300524055781 $202 $315 forward 7 unknown #
coedge $-1 $310 $316 $125 $209 forward $317 $-1 #
edge $-1 $212 6.5462300524055781 $312 10.189264480000265 $208 $318 forward 7 unknown #
coedge $-1 $319 $126 $316 $320 forward $200 $-1 #
coedge $-1 $126 $319 $306 $321 forward $200 $-1 #
vertex $-1 $209 $322 #
vertex $-1 $207 $323 #
straight-curve $-1 0 -39.951134284572056 6.5462300524055781 -1 0 0 I I #
face $-1 $324 $325 $29 $-1 $326 forward single #
loop $-1 $-1 $327 $128 #
plane-surface $-1 0 49.614389297004671 8.3677472662029224 0 -1 0 0 0 -1 forward_v I I I I #
coedge $-1 $134 $328 $219 $329 forward $129 $-1 #
coedge $-1 $330 $131 $218 $329 reversed $81 $-1 #
coedge $-1 $131 $330 $331 $332 reversed $81 $-1 #
edge $-1 $333 -10.189264480000265 $227 -6.5462300524055781 $131 $334 forward 7 unknown #
coedge $-1 $133 $132 $335 $336 reversed $52 $-1 #
coedge $-1 $337 $338 $133 $224 forward $339 $-1 #
edge $-1 $226 6.5462300524055781 $340 10.189264480000265 $223 $341 forward 7 unknown #
coedge $-1 $328 $134 $338 $342 forward $129 $-1 #
vertex $-1 $224 $343 #
vertex $-1 $221 $344 #
straight-curve $-1 0 39.951134284572056 6.5462300524055781 1 0 0 I I #
face $-1 $-1 $241 $30 $-1 $345 forward single #
loop $-1 $-1 $346 $136 #
plane-surface $-1 -59.895626697592093 0 0 1 0 0 0 0 -1 forward_v I I I I #
coedge $-1 $347 $348 $349 $350 reversed $137 $-1 #
coedge $-1 $351 $139 $141 $239 forward $85 $-1 #
coedge $-1 $139 $351 $347 $352 forward $85 $-1 #
coedge $-1 $349 $142 $139 $236 forward $241 $-1 #
edge $-1 $243 -13.681411533489831 $353 -5.0637810377424035 $235 $354 forward 7 unknown #
coedge $-1 $355 $356 $140 $238 forward $230 $-1 #
edge $-1 $357 -43.942726966840276 $242 -37.633431756664066 $237 $358 forward 7 unknown #
edge $-1 $243 -9.8155207685247667 $357 0 $141 $359 forward 7 unknown #
coedge $-1 $142 $349 $355 $360 forward $241 $-1 #
loop $-1 $-1 $349 $229 #
vertex $-1 $238 $361 #
vertex $-1 $143 $362 #
straight-curve $-1 -68.447980537624346 -23.054007819105948 10.189264480000261 1 0 0 I I #
coedge $-1 $245 $245 $-1 $363 reversed $146 $-1 #
edge $-1 $364 0 $364 6.2831853071796004 $147 $365 forward 7 unknown #
vertex $-1 $150 $366 #
ellipse-curve $-1 -56.136064159603507 -20.591827677463826 7.0346168749121638 -0.64278761758704617 0 0.76604443648966558 0.76604443648966558 0 0.64278761758704617 1 I I #
coedge $-1 $249 $249 $-1 $367 reversed $153 $-1 #
edge $-1 $368 0 $368 6.2831853071796004 $154 $369 forward 7 unknown #
vertex $-1 $157 $370 #
ellipse-curve $-1 -56.136064159603507 -16.898557465000643 7.0346168749121638 -0.64278761758704617 0 0.76604443648966558 0.76604443648966558 0 0.64278761758704617 1 I I #
face $-1 $-1 $371 $33 $-1 $372 reversed single #
loop $-1 $-1 $164 $158 #
plane-surface $-1 0 0 10.189264480000265 0 0 1 1 0 0 forward_v I I I I #
coedge $-1 $373 $374 $375 $376 reversed $159 $-1 #
coedge $-1 $377 $161 $163 $263 forward $99 $-1 #
coedge $-1 $161 $377 $373 $378 forward $99 $-1 #
coedge $-1 $375 $164 $161 $260 forward $254 $-1 #
edge $-1 $266 3.8978070530936986 $379 18.89265049706173 $259 $380 forward 7 unknown #
coedge $-1 $381 $382 $162 $262 forward $371 $-1 #
edge $-1 $383 -82.116470445331444 $265 -72.762702627822136 $261 $384 forward 7 unknown #
edge $-1 $266 102.13994625212689 $383 119.79125339518419 $163 $385 forward 7 unknown #
coedge $-1 $164 $375 $381 $386 forward $254 $-1 #
vertex $-1 $262 $387 #
vertex $-1 $165 $388 #
straight-curve $-1 10.893288271147149 -15.293035828171412 10.189264480000261 -1 0 0 I I #
coedge $-1 $268 $268 $-1 $389 reversed $168 $-1 #
edge $-1 $390 0 $390 6.2831853071796004 $169 $391 forward 7 unknown #
vertex $-1 $172 $392 #
ellipse-curve $-1 52.411048027508642 -26.003638288148576 5.5123805712456013 0.52991927123019833 0 0.84804809178421925 0.42402404589210962 0 -0.26495963561509916 1 I I #
coedge $-1 $272 $272 $-1 $393 reversed $175 $-1 #
edge $-1 $394 0 $394 6.2831853071796004 $176 $395 forward 7 unknown #
vertex $-1 $179 $396 #
ellipse-curve $-1 52.411048027508642 -19.577276812162275 5.5123805712456013 0.52991927123019833 0 0.84804809178421925 0.42402404589210962 0 -0.26495963561509916 1 I I #
face $-1 $-1 $195 $27 $-1 $397 reversed single #
loop $-1 $-1 $292 $180 #
plane-surface $-1 0 39.951134284572056 0 0 -1 0 0 0 -1 forward_v I I I I #
coedge $-1 $398 $290 $293 $399 forward $181 $-1 #
coedge $-1 $296 $183 $184 $284 reversed $113 $-1 #
coedge $-1 $290 $398 $183 $282 reversed $181 $-1 #
edge $-1 $297 -10.189264480000265 $400 10.189264480000265 $281 $401 forward 7 unknown #
coedge $-1 $185 $184 $398 $402 forward $73 $-1 #
edge $-1 $288 -59.895626697592093 $400 59.895626697592093 $280 $403 forward 7 unknown #
coedge $-1 $293 $292 $185 $286 reversed $277 $-1 #
edge $-1 $404 -59.895626697592093 $287 59.895626697592093 $285 $405 forward 7 unknown #
vertex $-1 $187 $406 #
vertex $-1 $299 $407 #
straight-curve $-1 59.895626697592093 0 -10.189264480000265 0 -1 0 I I #
coedge $-1 $279 $281 $188 $291 reversed $181 $-1 #
edge $-1 $294 -39.951134284572056 $297 39.951134284572056 $290 $408 forward 7 unknown #
coedge $-1 $285 $189 $194 $300 forward $277 $-1 #
coedge $-1 $189 $285 $279 $399 reversed $277 $-1 #
vertex $-1 $190 $409 #
straight-curve $-1 0 39.951134284572056 10.189264480000265 -1 0 0 I I #
coedge $-1 $191 $280 $193 $299 reversed $113 $-1 #
vertex $-1 $291 $410 #
straight-curve $-1 0 -39.951134284572056 10.189264480000265 1 0 0 I I #
edge $-1 $196 -10.189264480000265 $288 10.189264480000265 $193 $411 forward 7 unknown #
edge $-1 $197 -10.189264480000265 $287 10.189264480000265 $194 $412 forward 7 unknown #
point $-1 59.895626697592093 -39.951134284572056 10.189264480000265 #
point $-1 59.895626697592093 39.951134284572056 10.189264480000265 #
face $-1 $-1 $317 $28 $-1 $413 reversed single #
loop $-1 $-1 $414 $199 #
plane-surface $-1 0 -49.614389297004671 8.3677472662029224 0 1 0 0 0 1 forward_v I I I I #
coedge $-1 $415 $202 $211 $321 reversed $121 $-1 #
coedge $-1 $202 $415 $203 $309 reversed $121 $-1 #
coedge $-1 $204 $203 $416 $417 forward $77 $-1 #
edge $-1 $313 39.951134284572056 $418 49.614389297004671 $307 $419 forward 7 unknown #
coedge $-1 $420 $208 $204 $311 reversed $317 $-1 #
edge $-1 $421 -49.614389297004671 $312 -39.951134284572056 $310 $422 forward 7 unknown #
vertex $-1 $209 $423 #
vertex $-1 $309 $424 #
straight-curve $-1 0 -39.951134284572056 10.189264480000265 -1 0 0 I I #
straight-curve $-1 -59.895626697592093 -39.951134284572056 0 0 0 -1 I I #
coedge $-1 $208 $420 $210 $320 reversed $317 $-1 #
loop $-1 $-1 $208 $303 #
straight-curve $-1 59.895626697592093 -39.951134284572056 0 0 0 1 I I #
coedge $-1 $211 $210 $425 $426 forward $200 $-1 #
edge $-1 $212 -4.8316275062163072 $427 4.8316275062163072 $316 $428 forward 7 unknown #
edge $-1 $429 -4.8316275062163072 $213 4.8316275062163072 $306 $430 forward 7 unknown #
point $-1 59.895626697592093 -39.951134284572056 6.5462300524055781 #
point $-1 -59.895626697592093 -39.951134284572056 6.5462300524055781 #
face $-1 $-1 $339 $29 $-1 $431 reversed single #
loop $-1 $-1 $335 $215 #
plane-surface $-1 0 0 10.189264480000265 0 0 1 1 0 0 forward_v I I I I #
coedge $-1 $432 $433 $330 $434 forward $216 $-1 #
coedge $-1 $218 $225 $432 $435 forward $129 $-1 #
edge $-1 $436 -4.8316275062163072 $227 4.8316275062163072 $219 $437 forward 7 unknown #
coedge $-1 $220 $219 $327 $434 reversed $81 $-1 #
coedge $-1 $438 $335 $220 $332 forward $325 $-1 #
edge $-1 $333 39.951134284572056 $439 49.614389297004671 $220 $440 forward 7 unknown #
vertex $-1 $332 $441 #
straight-curve $-1 59.895626697592093 39.951134284572056 0 0 0 -1 I I #
coedge $-1 $331 $442 $222 $336 forward $325 $-1 #
edge $-1 $340 -59.895626697592093 $333 59.895626697592093 $335 $443 forward 7 unknown #
coedge $-1 $444 $223 $442 $445 reversed $339 $-1 #
coedge $-1 $223 $444 $225 $342 reversed $339 $-1 #
loop $-1 $-1 $223 $324 #
vertex $-1 $224 $446 #
straight-curve $-1 -59.895626697592093 39.951134284572056 0 0 0 1 I I #
edge $-1 $226 -4.8316275062163072 $447 4.8316275062163072 $338 $448 forward 7 unknown #
point $-1 -59.895626697592093 39.951134284572056 6.5462300524055781 #
point $-1 59.895626697592093 39.951134284572056 6.5462300524055781 #
plane-surface $-1 0 0 10.189264480000265 0 0 1 1 0 0 forward_v I I I I #
coedge $-1 $356 $355 $348 $449 forward $230 $-1 #
coedge $-1 $348 $232 $234 $352 reversed $137 $-1 #
coedge $-1 $232 $347 $346 $449 reversed $137 $-1 #
coedge $-1 $240 $235 $232 $350 forward $241 $-1 #
edge $-1 $353 -16.071478916009418 $450 -8.5523538400322536 $349 $451 forward 7 unknown #
coedge $-1 $234 $233 $356 $452 reversed $85 $-1 #
edge $-1 $453 0 $353 9.8155207685247667 $347 $454 forward 7 unknown #
vertex $-1 $236 $455 #
straight-curve $-1 -52.376501621614935 -9.3725962856161171 10.189264480000267 0 1 0 I I #
coedge $-1 $346 $237 $240 $360 reversed $230 $-1 #
coedge $-1 $237 $346 $351 $452 forward $230 $-1 #
vertex $-1 $238 $456 #
straight-curve $-1 -59.895626697592093 -23.054007819105948 47.822696236664335 0 0 1 I I #
straight-curve $-1 -59.895626697592093 -23.054007819105948 3.8799692698240591 -0.76604443648966558 0 -0.64278761758704617 I I #
edge $-1 $450 14.436377323358521 $242 23.054007819105948 $355 $457 forward 7 unknown #
point $-1 -59.895626697592093 -23.054007819105948 10.189264480000265 #
point $-1 -52.376501621614928 -23.054007819105948 10.189264480000265 #
edge $-1 $458 1 $458 0 $245 $-1 forward 7 unknown #
vertex $-1 $246 $459 #
ellipse-curve $-1 -54.338506929391592 -20.591827677463826 4.8923716327826519 -0.64278761758704617 0 0.76604443648966558 0.76604443648966558 0 0.64278761758704617 1 I I #
point $-1 -55.370019723113842 -20.591827677463826 7.6774044924992042 #
edge $-1 $460 1 $460 0 $249 $-1 forward 7 unknown #
vertex $-1 $250 $461 #
ellipse-curve $-1 -54.338506929391592 -16.898557465000643 4.8923716327826519 -0.64278761758704617 0 0.76604443648966558 0.76604443648966558 0 0.64278761758704617 1 I I #
point $-1 -55.370019723113842 -16.898557465000643 7.6774044924992042 #
loop $-1 $-1 $261 $253 #
plane-surface $-1 59.895626697592093 0 0 -1 0 0 0 0 1 forward_v I I I I #
coedge $-1 $374 $256 $258 $378 reversed $159 $-1 #
coedge $-1 $256 $373 $462 $463 reversed $159 $-1 #
coedge $-1 $264 $259 $256 $376 forward $254 $-1 #
edge $-1 $379 34.033181086278049 $464 49.002338426444943 $375 $465 forward 7 unknown #
coedge $-1 $258 $257 $382 $466 reversed $99 $-1 #
edge $-1 $467 -119.79125339518419 $379 -102.13994625212689 $373 $468 forward 7 unknown #
vertex $-1 $260 $469 #
straight-curve $-1 44.926469357425219 -11.395228775077713 10.189264480000254 0 -1 0 I I #
coedge $-1 $462 $261 $264 $386 reversed $371 $-1 #
coedge $-1 $261 $462 $377 $466 forward $371 $-1 #
vertex $-1 $262 $470 #
straight-curve $-1 59.895626697592093 -15.293035828171412 82.951967107822398 0 0 1 I I #
straight-curve $-1 -41.693117156633726 -15.293035828171412 64.315190361418971 0.84804809178421925 0 -0.52991927123019833 I I #
edge $-1 $464 -30.287879272139442 $265 -15.293035828171412 $381 $471 forward 7 unknown #
point $-1 59.895626697592093 -15.293035828171412 10.189264480000265 #
point $-1 44.926469357425198 -15.293035828171412 10.189264480000261 #
edge $-1 $472 1 $472 0 $268 $-1 forward 7 unknown #
vertex $-1 $269 $473 #
ellipse-curve $-1 51.615724381140083 -26.003638288148576 4.2395967015668345 0.52991927123019833 0 0.84804809178421925 0.42402404589210962 0 -0.26495963561509916 1 I I #
point $-1 52.835072073400752 -26.003638288148576 5.2474209356305082 #
edge $-1 $474 1 $474 0 $272 $-1 forward 7 unknown #
vertex $-1 $273 $475 #
ellipse-curve $-1 51.615724381140083 -19.577276812162275 4.2395967015668345 0.52991927123019833 0 0.84804809178421925 0.42402404589210962 0 -0.26495963561509916 1 I I #
point $-1 52.835072073400752 -19.577276812162275 5.2474209356305082 #
plane-surface $-1 59.895626697592093 0 0 -1 0 0 0 0 1 forward_v I I I I #
coedge $-1 $281 $279 $283 $402 reversed $181 $-1 #
edge $-1 $294 -10.189264480000265 $404 10.189264480000265 $293 $476 forward 7 unknown #
vertex $-1 $402 $477 #
straight-curve $-1 -59.895626697592093 -39.951134284572056 0 0 0 -1 I I #
edge $-1 $400 -39.951134284572056 $404 39.951134284572056 $398 $478 forward 7 unknown #
straight-curve $-1 0 -39.951134284572056 -10.189264480000265 -1 0 0 I I #
vertex $-1 $286 $479 #
straight-curve $-1 0 39.951134284572056 -10.189264480000265 1 0 0 I I #
point $-1 59.895626697592093 39.951134284572056 -10.189264480000265 #
point $-1 59.895626697592093 -39.951134284572056 -10.189264480000265 #
straight-curve $-1 -59.895626697592093 0 10.189264480000265 0 -1 0 I I #
point $-1 -59.895626697592093 39.951134284572056 10.189264480000265 #
point $-1 -59.895626697592093 -39.951134284572056 10.189264480000265 #
straight-curve $-1 59.895626697592093 -39.951134284572056 0 0 0 -1 I I #
straight-curve $-1 59.895626697592093 39.951134284572056 0 0 0 -1 I I #
plane-surface $-1 59.895626697592093 0 0 -1 0 0 0 0 1 forward_v I I I I #
coedge $-1 $425 $416 $415 $480 forward $304 $-1 #
coedge $-1 $307 $306 $414 $480 reversed $121 $-1 #
coedge $-1 $414 $481 $308 $417 reversed $304 $-1 #
edge $-1 $418 -59.895626697592093 $421 59.895626697592093 $416 $482 forward 7 unknown #
vertex $-1 $309 $483 #
straight-curve $-1 -59.895626697592093 0 10.189264480000265 0 -1 0 I I #
coedge $-1 $316 $310 $481 $484 forward $317 $-1 #
vertex $-1 $311 $485 #
straight-curve $-1 59.895626697592093 0 10.189264480000265 0 1 0 I I #
point $-1 59.895626697592093 -39.951134284572056 10.189264480000265 #
point $-1 -59.895626697592093 -39.951134284572056 10.189264480000265 #
coedge $-1 $481 $414 $319 $426 reversed $304 $-1 #
edge $-1 $427 -59.895626697592093 $429 59.895626697592093 $425 $486 forward 7 unknown #
vertex $-1 $484 $487 #
straight-curve $-1 59.895626697592093 -44.782761790788363 6.5462300524055781 0 -1 0 I I #
vertex $-1 $321 $488 #
straight-curve $-1 -59.895626697592093 -44.782761790788363 6.5462300524055781 0 1 0 I I #
plane-surface $-1 -59.895626697592093 0 0 1 0 0 0 0 -1 forward_v I I I I #
coedge $-1 $489 $327 $328 $435 reversed $216 $-1 #
coedge $-1 $327 $489 $438 $490 reversed $216 $-1 #
edge $-1 $439 -1.8215172137973443 $436 1.8215172137973443 $330 $491 forward 7 unknown #
edge $-1 $447 -59.895626697592093 $436 59.895626697592093 $432 $492 forward 7 unknown #
vertex $-1 $329 $493 #
straight-curve $-1 59.895626697592093 44.782761790788363 6.5462300524055781 0 -1 0 I I #
coedge $-1 $442 $331 $433 $490 forward $325 $-1 #
vertex $-1 $332 $494 #
straight-curve $-1 59.895626697592093 0 10.189264480000265 0 1 0 I I #
point $-1 59.895626697592093 39.951134284572056 10.189264480000265 #
coedge $-1 $335 $438 $337 $445 forward $325 $-1 #
straight-curve $-1 0 39.951134284572056 10.189264480000265 1 0 0 I I #
coedge $-1 $338 $337 $489 $495 forward $339 $-1 #
edge $-1 $496 -49.614389297004671 $340 -39.951134284572056 $337 $497 forward 7 unknown #
point $-1 -59.895626697592093 39.951134284572056 10.189264480000265 #
vertex $-1 $435 $498 #
straight-curve $-1 -59.895626697592093 44.782761790788363 6.5462300524055781 0 1 0 I I #
edge $-1 $450 37.633431756664066 $453 43.942726966840276 $346 $499 forward 7 unknown #
vertex $-1 $360 $500 #
straight-curve $-1 -68.447980537624346 -14.436377323358521 10.189264480000261 -1 0 0 I I #
edge $-1 $453 5.0637810377424035 $357 13.681411533489831 $356 $501 forward 7 unknown #
vertex $-1 $452 $502 #
straight-curve $-1 -59.895626697592093 -14.436377323358521 3.8799692698240591 0.76604443648966558 0 0.64278761758704617 I I #
point $-1 -52.376501621614928 -14.436377323358521 10.189264480000265 #
point $-1 -59.895626697592093 -23.054007819105948 3.8799692698240591 #
straight-curve $-1 -59.895626697592093 0 10.189264480000265 0 -1 0 I I #
vertex $-1 $363 $503 #
point $-1 -53.572462492901927 -20.591827677463826 5.5351592503696985 #
vertex $-1 $367 $504 #
point $-1 -53.572462492901927 -16.898557465000643 5.5351592503696985 #
coedge $-1 $382 $381 $374 $463 forward $371 $-1 #
edge $-1 $464 72.762702627822136 $467 82.116470445331444 $462 $505 forward 7 unknown #
vertex $-1 $386 $506 #
straight-curve $-1 10.893288271147149 -30.287879272139442 10.189264480000261 1 0 0 I I #
edge $-1 $467 -18.89265049706173 $383 -3.8978070530936986 $382 $507 forward 7 unknown #
vertex $-1 $466 $508 #
straight-curve $-1 -41.693117156633726 -30.287879272139442 64.315190361418971 -0.84804809178421925 0 0.52991927123019833 I I #
point $-1 44.926469357425198 -30.287879272139442 10.189264480000261 #
point $-1 59.895626697592085 -15.293035828171412 0.83549666249095367 #
straight-curve $-1 59.895626697592093 0 10.189264480000265 0 1 0 I I #
vertex $-1 $389 $509 #
point $-1 52.039748427032194 -26.003638288148576 3.9746370659517356 #
vertex $-1 $393 $510 #
point $-1 52.039748427032194 -19.577276812162275 3.9746370659517356 #
straight-curve $-1 -59.895626697592093 39.951134284572056 0 0 0 -1 I I #
point $-1 -59.895626697592093 -39.951134284572056 -10.189264480000265 #
straight-curve $-1 -59.895626697592093 0 -10.189264480000265 0 1 0 I I #
point $-1 -59.895626697592093 39.951134284572056 -10.189264480000265 #
edge $-1 $418 -1.8215172137973443 $429 1.8215172137973443 $415 $511 forward 7 unknown #
coedge $-1 $416 $425 $420 $484 reversed $304 $-1 #
straight-curve $-1 0 -49.614389297004671 10.189264480000267 1 0 0 I I #
point $-1 -59.895626697592093 -49.614389297004671 10.189264480000267 #
edge $-1 $421 -1.8215172137973443 $427 1.8215172137973443 $420 $512 forward 7 unknown #
point $-1 59.895626697592093 -49.614389297004671 10.189264480000267 #
straight-curve $-1 0 -49.614389297004671 6.5462300524055781 -1 0 0 I I #
point $-1 59.895626697592093 -49.614389297004671 6.5462300524055781 #
point $-1 -59.895626697592093 -49.614389297004671 6.5462300524055781 #
coedge $-1 $433 $432 $444 $495 reversed $216 $-1 #
edge $-1 $439 -59.895626697592093 $496 59.895626697592093 $433 $513 forward 7 unknown #
straight-curve $-1 59.895626697592093 49.614389297004671 8.3677472662029224 0 0 -1 I I #
straight-curve $-1 0 49.614389297004671 6.5462300524055781 1 0 0 I I #
point $-1 59.895626697592093 49.614389297004671 6.5462300524055781 #
point $-1 59.895626697592093 49.614389297004671 10.189264480000267 #
edge $-1 $496 -1.8215172137973443 $447 1.8215172137973443 $489 $514 forward 7 unknown #
vertex $-1 $490 $515 #
straight-curve $-1 -59.895626697592093 0 10.189264480000265 0 -1 0 I I #
point $-1 -59.895626697592093 49.614389297004671 6.5462300524055781 #
straight-curve $-1 -59.895626697592093 -14.436377323358521 47.822696236664335 0 0 -1 I I #
point $-1 -59.895626697592093 -14.436377323358521 10.189264480000265 #
straight-curve $-1 -59.895626697592093 -9.3725962856161171 3.879969269824056 0 -1 0 I I #
point $-1 -59.895626697592093 -14.436377323358521 3.8799692698240591 #
point $-1 -53.695719311804545 -20.591827677463826 4.1263271962929871 #
point $-1 -53.695719311804545 -16.898557465000643 4.1263271962929871 #
straight-curve $-1 59.895626697592093 -30.287879272139442 82.951967107822398 0 0 -1 I I #
point $-1 59.895626697592093 -30.287879272139442 10.189264480000265 #
straight-curve $-1 59.895626697592093 -11.395228775077713 0.83549666249095367 0 1 0 I I #
point $-1 59.895626697592085 -30.287879272139442 0.83549666249095367 #
point $-1 51.350764745524984 -26.003638288148576 3.8155726556747251 #
point $-1 51.350764745524984 -19.577276812162275 3.8155726556747251 #
straight-curve $-1 -59.895626697592093 -49.614389297004671 8.3677472662029224 0 0 -1 I I #
straight-curve $-1 59.895626697592093 -49.614389297004671 8.3677472662029224 0 0 -1 I I #
straight-curve $-1 0 49.614389297004671 10.189264480000267 -1 0 0 I I #
straight-curve $-1 -59.895626697592093 49.614389297004671 8.3677472662029224 0 0 -1 I I #
point $-1 -59.895626697592093 49.614389297004671 10.189264480000267 #
End-of-ACIS-data 