500 0 6 0           
7 Unknown 11 ACIS 5.0 NT 24 Thu Mar 25 17:27:26 1999 
-1 9.9999999999999995e-007 1e-010 
body $-1 $6 $-1 $7 #
body $-1 $8 $-1 $9 #
body $-1 $10 $-1 $11 #
body $-1 $12 $-1 $13 #
body $-1 $14 $-1 $15 #
body $-1 $16 $-1 $17 #
lump $-1 $-1 $18 $0 #
transform $-1 1 0 0 0 1 0 0 0 1 56.606952116458629 36.603882651263426 13.849755458551712 1 rotate no_reflect no_shear #
lump $-1 $-1 $19 $1 #
transform $-1 1 0 0 0 1 0 0 0 1 56.606952116458629 36.603882651263426 13.849755458551712 1 rotate no_reflect no_shear #
lump $-1 $-1 $20 $2 #
transform $-1 1 0 0 0 1 0 0 0 1 56.606952116458629 36.603882651263426 13.849755458551712 1 rotate no_reflect no_shear #
lump $-1 $-1 $21 $3 #
transform $-1 1 0 0 0 1 0 0 0 1 56.606952116458629 36.603882651263426 13.849755458551712 1 rotate no_reflect no_shear #
lump $-1 $-1 $22 $4 #
transform $-1 1 0 0 0 1 0 0 0 1 56.606952116458629 36.603882651263426 13.849755458551712 1 rotate no_reflect no_shear #
lump $-1 $-1 $23 $5 #
transform $-1 1 0 0 0 1 0 0 0 1 56.606952116458629 36.603882651263426 13.849755458551712 1 rotate no_reflect no_shear #
shell $-1 $-1 $-1 $24 $-1 $6 #
shell $-1 $-1 $-1 $25 $-1 $8 #
shell $-1 $-1 $-1 $26 $-1 $10 #
shell $-1 $-1 $-1 $27 $-1 $12 #
shell $-1 $-1 $-1 $28 $-1 $14 #
shell $-1 $-1 $-1 $29 $-1 $16 #
face $-1 $30 $31 $18 $-1 $32 forward single #
face $-1 $33 $34 $19 $-1 $35 forward single #
face $-1 $36 $37 $20 $-1 $38 reversed single #
face $-1 $39 $40 $21 $-1 $41 forward single #
face $-1 $42 $43 $22 $-1 $44 reversed single #
face $-1 $45 $46 $23 $-1 $47 forward single #
face $-1 $48 $49 $18 $-1 $50 reversed single #
loop $-1 $-1 $51 $24 #
plane-surface $-1 0 0 13.849755458551712 0 0 1 1 0 0 forward_v I I I I #
face $-1 $52 $53 $19 $-1 $54 reversed single #
loop $-1 $-1 $55 $25 #
plane-surface $-1 -49.11409788971465 0 -10.060822145109857 0 0 1 1 0 0 forward_v I I I I #
face $-1 $56 $57 $20 $-1 $58 reversed single #
loop $-1 $-1 $59 $26 #
plane-surface $-1 23.318495638339925 -20.725856820863488 158.61877631635963 0 -1 0 -0.54463904215088732 0 -0.83867056331134215 forward_v I I I I #
face $-1 $60 $61 $21 $-1 $62 forward single #
loop $-1 $63 $64 $27 #
cone-surface $-1 46.294317343709309 -25.616837972999072 6.0876900142447532 -0.54463904215088732 0 -0.83867056331134215 1.6773411266226843 0 -1.0892780843017746 1 I I 0 1 2 forward I I I I #
face $-1 $65 $66 $22 $-1 $67 reversed single #
loop $-1 $-1 $68 $28 #
plane-surface $-1 23.318495638339925 30.507819125134656 158.61877631635963 0 -1 0 -0.54463904215088732 0 -0.83867056331134215 forward_v I I I I #
face $-1 $69 $70 $23 $-1 $71 forward single #
loop $-1 $72 $73 $29 #
cone-surface $-1 46.294317343709309 25.616837972999072 6.0876900142447532 -0.54463904215088732 0 -0.83867056331134215 1.6773411266226843 0 -1.0892780843017746 1 I I 0 1 2 forward I I I I #
face $-1 $74 $75 $18 $-1 $76 reversed single #
loop $-1 $-1 $77 $30 #
plane-surface $-1 0 0 -13.849755458551712 0 0 1 1 0 0 forward_v I I I I #
coedge $-1 $78 $79 $80 $81 forward $31 $-1 #
face $-1 $82 $83 $19 $-1 $84 reversed single #
loop $-1 $-1 $85 $33 #
plane-surface $-1 -41.62124366297067 0 -11.955288801830784 -1 0 0 0 0 1 forward_v I I I I #
coedge $-1 $86 $87 $88 $89 forward $34 $-1 #
face $-1 $90 $91 $20 $-1 $92 reversed single #
loop $-1 $-1 $93 $36 #
plane-surface $-1 -38.342216721238415 -25.616837972999072 63.66960747866257 0.54463904215088732 0 0.83867056331134215 0.83867056331134215 0 -0.54463904215088732 forward_v I I I I #
coedge $-1 $94 $95 $96 $97 reversed $37 $-1 #
face $-1 $-1 $98 $21 $-1 $99 forward single #
loop $-1 $100 $101 $39 #
cone-surface $-1 44.553706348072211 -25.616837972999072 3.407384176360182 -0.54463904215088732 0 -0.83867056331134215 0.83867056331134215 0 -0.54463904215088732 1 I I -0.70710678118654746 0.70710678118654746 1 forward I I I I #
loop $-1 $-1 $102 $27 #
coedge $-1 $64 $64 $103 $104 reversed $40 $-1 #
face $-1 $105 $106 $22 $-1 $107 reversed single #
loop $-1 $-1 $108 $42 #
plane-surface $-1 -38.342216721238415 25.616837972999072 63.66960747866257 0.54463904215088732 0 0.83867056331134215 0.83867056331134215 0 -0.54463904215088732 forward_v I I I I #
coedge $-1 $109 $110 $111 $112 reversed $43 $-1 #
face $-1 $-1 $113 $23 $-1 $114 forward single #
loop $-1 $115 $116 $45 #
cone-surface $-1 44.553706348072211 25.616837972999072 3.407384176360182 -0.54463904215088732 0 -0.83867056331134215 0.83867056331134215 0 -0.54463904215088732 1 I I -0.70710678118654746 0.70710678118654746 1 forward I I I I #
loop $-1 $-1 $117 $29 #
coedge $-1 $73 $73 $118 $119 reversed $46 $-1 #
face $-1 $120 $121 $18 $-1 $122 reversed single #
loop $-1 $-1 $123 $48 #
plane-surface $-1 0 -36.603882651263426 0 0 1 0 0 0 1 forward_v I I I I #
coedge $-1 $124 $125 $126 $127 forward $49 $-1 #
coedge $-1 $128 $51 $129 $130 forward $31 $-1 #
coedge $-1 $51 $128 $131 $132 forward $31 $-1 #
coedge $-1 $133 $134 $51 $81 reversed $135 $-1 #
edge $-1 $136 -36.603882651263426 $137 36.603882651263426 $80 $138 forward 7 unknown #
face $-1 $139 $140 $19 $-1 $141 reversed single #
loop $-1 $-1 $142 $52 #
plane-surface $-1 0 0 -13.849755458551712 0 0 1 1 0 0 forward_v I I I I #
coedge $-1 $143 $88 $144 $145 reversed $53 $-1 #
coedge $-1 $146 $55 $147 $148 reversed $34 $-1 #
coedge $-1 $55 $146 $149 $150 reversed $34 $-1 #
coedge $-1 $85 $151 $55 $89 reversed $53 $-1 #
edge $-1 $152 -36.603882651263426 $153 36.603882651263426 $88 $154 forward 7 unknown #
face $-1 $155 $156 $20 $-1 $157 forward single #
loop $-1 $-1 $158 $56 #
plane-surface $-1 23.318495638339925 -30.507819125134656 158.61877631635963 0 1 0 0.54463904215088732 0 0.83867056331134215 forward_v I I I I #
coedge $-1 $159 $160 $161 $162 reversed $57 $-1 #
coedge $-1 $95 $59 $163 $164 reversed $37 $-1 #
coedge $-1 $59 $94 $159 $165 reversed $37 $-1 #
coedge $-1 $161 $166 $59 $97 forward $156 $-1 #
edge $-1 $167 -44.947704297288666 $168 -26.714378658762485 $96 $169 forward 7 unknown #
loop $-1 $-1 $103 $60 #
plane-surface $-1 -38.342216721238415 -25.616837972999072 63.66960747866257 0.54463904215088732 0 0.83867056331134215 0.83867056331134215 0 -0.54463904215088732 forward_v I I I I #
loop $-1 $-1 $170 $39 #
coedge $-1 $101 $101 $102 $171 reversed $61 $-1 #
coedge $-1 $102 $102 $101 $171 forward $63 $-1 #
coedge $-1 $103 $103 $64 $104 forward $98 $-1 #
edge $-1 $172 0 $172 6.2831853071796004 $103 $173 forward 7 unknown #
face $-1 $174 $175 $22 $-1 $176 reversed single #
loop $-1 $-1 $177 $65 #
plane-surface $-1 23.318495638339925 20.725856820863488 158.61877631635963 0 1 0 0.54463904215088732 0 0.83867056331134215 forward_v I I I I #
coedge $-1 $178 $179 $180 $181 reversed $66 $-1 #
coedge $-1 $110 $68 $182 $183 reversed $43 $-1 #
coedge $-1 $68 $109 $178 $184 reversed $43 $-1 #
coedge $-1 $180 $185 $68 $112 forward $186 $-1 #
edge $-1 $187 -44.947704297288666 $188 -26.714378658762485 $111 $189 forward 7 unknown #
loop $-1 $-1 $118 $69 #
plane-surface $-1 -38.342216721238415 25.616837972999072 63.66960747866257 0.54463904215088732 0 0.83867056331134215 0.83867056331134215 0 -0.54463904215088732 forward_v I I I I #
loop $-1 $-1 $190 $45 #
coedge $-1 $116 $116 $117 $191 reversed $70 $-1 #
coedge $-1 $117 $117 $116 $191 forward $72 $-1 #
coedge $-1 $118 $118 $73 $119 forward $113 $-1 #
edge $-1 $192 0 $192 6.2831853071796004 $118 $193 forward 7 unknown #
face $-1 $194 $195 $18 $-1 $196 reversed single #
loop $-1 $-1 $197 $74 #
plane-surface $-1 -56.606952116458629 0 0 1 0 0 0 0 -1 forward_v I I I I #
coedge $-1 $198 $131 $199 $200 forward $75 $-1 #
coedge $-1 $201 $77 $198 $202 forward $49 $-1 #
coedge $-1 $77 $201 $203 $204 forward $49 $-1 #
coedge $-1 $134 $133 $77 $127 reversed $135 $-1 #
edge $-1 $205 -36.603882651263426 $206 36.603882651263426 $126 $207 forward 7 unknown #
coedge $-1 $79 $78 $208 $209 forward $31 $-1 #
coedge $-1 $210 $211 $78 $130 reversed $195 $-1 #
edge $-1 $137 -56.606952116458629 $212 56.606952116458629 $129 $213 forward 7 unknown #
coedge $-1 $123 $214 $79 $132 reversed $75 $-1 #
edge $-1 $215 -56.606952116458629 $136 56.606952116458629 $131 $216 forward 7 unknown #
coedge $-1 $126 $80 $214 $217 forward $135 $-1 #
coedge $-1 $80 $126 $210 $218 reversed $135 $-1 #
loop $-1 $-1 $133 $194 #
vertex $-1 $81 $219 #
vertex $-1 $81 $220 #
straight-curve $-1 56.606952116458629 0 13.849755458551712 0 1 0 I I #
face $-1 $221 $222 $19 $-1 $223 reversed single #
loop $-1 $-1 $144 $82 #
plane-surface $-1 0 -36.603882651263426 0 0 1 0 0 0 1 forward_v I I I I #
coedge $-1 $224 $225 $143 $226 forward $83 $-1 #
coedge $-1 $151 $85 $142 $226 reversed $53 $-1 #
coedge $-1 $149 $227 $85 $145 forward $140 $-1 #
edge $-1 $228 -7.87211105763632 $152 -4.0831777441944643 $144 $229 forward 7 unknown #
coedge $-1 $87 $86 $230 $231 reversed $34 $-1 #
coedge $-1 $232 $233 $86 $148 forward $234 $-1 #
edge $-1 $235 -32.049903171601301 $153 -17.064194718113345 $147 $236 forward 7 unknown #
coedge $-1 $237 $144 $87 $150 forward $140 $-1 #
edge $-1 $152 17.064194718113345 $238 32.049903171601301 $149 $239 forward 7 unknown #
coedge $-1 $88 $143 $232 $240 reversed $53 $-1 #
vertex $-1 $150 $241 #
vertex $-1 $148 $242 #
straight-curve $-1 -41.62124366297067 0 -10.060822145109857 0 1 0 I I #
face $-1 $-1 $243 $20 $-1 $244 reversed single #
loop $-1 $-1 $96 $90 #
plane-surface $-1 0 0 13.849755458551712 0 0 1 1 0 0 forward_v I I I I #
coedge $-1 $245 $246 $247 $248 reversed $91 $-1 #
coedge $-1 $249 $93 $95 $165 forward $57 $-1 #
coedge $-1 $93 $249 $245 $250 forward $57 $-1 #
coedge $-1 $247 $96 $93 $162 forward $156 $-1 #
edge $-1 $168 7.9174378343639518 $251 17.69940013863512 $161 $252 forward 7 unknown #
coedge $-1 $253 $254 $94 $164 forward $243 $-1 #
edge $-1 $255 -77.300493039095585 $167 -65.459632699628102 $163 $256 forward 7 unknown #
edge $-1 $168 91.473155915085357 $255 113.21390423291723 $95 $257 forward 7 unknown #
coedge $-1 $96 $247 $253 $258 forward $156 $-1 #
vertex $-1 $164 $259 #
vertex $-1 $97 $260 #
straight-curve $-1 11.659247819169963 -20.725856820863488 13.849755458551712 -1 0 0 I I #
coedge $-1 $170 $170 $-1 $261 reversed $100 $-1 #
edge $-1 $262 0 $262 6.2831853071796004 $101 $263 forward 7 unknown #
vertex $-1 $104 $264 #
ellipse-curve $-1 47.490289297195524 -25.616837972999072 7.9293252888179779 0.54463904215088732 0 0.83867056331134215 1.6773411266226843 0 -1.0892780843017746 1 I I #
face $-1 $-1 $186 $22 $-1 $265 forward single #
loop $-1 $-1 $266 $105 #
plane-surface $-1 56.606952116458629 0 0 -1 0 0 0 0 1 forward_v I I I I #
coedge $-1 $267 $268 $269 $270 reversed $106 $-1 #
coedge $-1 $271 $108 $110 $184 forward $66 $-1 #
coedge $-1 $108 $271 $267 $272 forward $66 $-1 #
coedge $-1 $269 $111 $108 $181 forward $186 $-1 #
edge $-1 $188 -17.69940013863512 $273 -7.9174378343639518 $180 $274 forward 7 unknown #
coedge $-1 $275 $276 $109 $183 forward $175 $-1 #
edge $-1 $277 -77.300493039095585 $187 -65.459632699628102 $182 $278 forward 7 unknown #
edge $-1 $188 91.473155915085357 $277 113.21390423291723 $110 $279 forward 7 unknown #
coedge $-1 $111 $269 $275 $280 forward $186 $-1 #
loop $-1 $-1 $269 $174 #
vertex $-1 $183 $281 #
vertex $-1 $112 $282 #
straight-curve $-1 11.659247819169963 30.507819125134656 13.849755458551712 -1 0 0 I I #
coedge $-1 $190 $190 $-1 $283 reversed $115 $-1 #
edge $-1 $284 0 $284 6.2831853071796004 $116 $285 forward 7 unknown #
vertex $-1 $119 $286 #
ellipse-curve $-1 47.490289297195524 25.616837972999072 7.9293252888179779 0.54463904215088732 0 0.83867056331134215 1.6773411266226843 0 -1.0892780843017746 1 I I #
face $-1 $-1 $135 $18 $-1 $287 reversed single #
loop $-1 $-1 $210 $120 #
plane-surface $-1 0 36.603882651263426 0 0 -1 0 0 0 -1 forward_v I I I I #
coedge $-1 $288 $208 $211 $289 forward $121 $-1 #
coedge $-1 $214 $123 $124 $202 reversed $75 $-1 #
coedge $-1 $208 $288 $123 $200 reversed $121 $-1 #
edge $-1 $215 -13.849755458551712 $290 13.849755458551712 $199 $291 forward 7 unknown #
coedge $-1 $125 $124 $288 $292 forward $49 $-1 #
edge $-1 $206 -56.606952116458629 $290 56.606952116458629 $198 $293 forward 7 unknown #
coedge $-1 $211 $210 $125 $204 reversed $195 $-1 #
edge $-1 $294 -56.606952116458629 $205 56.606952116458629 $203 $295 forward 7 unknown #
vertex $-1 $127 $296 #
vertex $-1 $217 $297 #
straight-curve $-1 56.606952116458629 0 -13.849755458551712 0 -1 0 I I #
coedge $-1 $197 $199 $128 $209 reversed $121 $-1 #
edge $-1 $212 -36.603882651263426 $215 36.603882651263426 $208 $298 forward 7 unknown #
coedge $-1 $203 $129 $134 $218 forward $195 $-1 #
coedge $-1 $129 $203 $197 $289 reversed $195 $-1 #
vertex $-1 $130 $299 #
straight-curve $-1 0 36.603882651263426 13.849755458551712 -1 0 0 I I #
coedge $-1 $131 $198 $133 $217 reversed $75 $-1 #
vertex $-1 $209 $300 #
straight-curve $-1 0 -36.603882651263426 13.849755458551712 1 0 0 I I #
edge $-1 $136 -13.849755458551712 $206 13.849755458551712 $133 $301 forward 7 unknown #
edge $-1 $137 -13.849755458551712 $205 13.849755458551712 $134 $302 forward 7 unknown #
point $-1 56.606952116458629 -36.603882651263426 13.849755458551712 #
point $-1 56.606952116458629 36.603882651263426 13.849755458551712 #
face $-1 $-1 $234 $19 $-1 $303 reversed single #
loop $-1 $-1 $230 $139 #
plane-surface $-1 -56.606952116458629 0 0 1 0 0 0 0 -1 forward_v I I I I #
coedge $-1 $304 $142 $227 $305 forward $83 $-1 #
coedge $-1 $142 $304 $306 $307 forward $83 $-1 #
edge $-1 $308 -36.603882651263426 $228 36.603882651263426 $142 $309 forward 7 unknown #
coedge $-1 $144 $237 $224 $305 reversed $140 $-1 #
vertex $-1 $305 $310 #
straight-curve $-1 -41.62124366297067 -36.603882651263426 -5.9776444009153922 0 0 1 I I #
coedge $-1 $311 $312 $146 $231 forward $222 $-1 #
edge $-1 $238 -36.603882651263426 $235 36.603882651263426 $230 $313 forward 7 unknown #
coedge $-1 $306 $147 $151 $240 forward $234 $-1 #
coedge $-1 $147 $306 $311 $314 reversed $234 $-1 #
loop $-1 $-1 $232 $221 #
vertex $-1 $314 $315 #
straight-curve $-1 -24.557048944857325 36.603882651263426 -10.060822145109857 1 0 0 I I #
coedge $-1 $227 $149 $312 $316 forward $140 $-1 #
vertex $-1 $316 $317 #
straight-curve $-1 -24.557048944857325 -36.603882651263426 -10.060822145109857 -1 0 0 I I #
edge $-1 $153 4.0831777441944643 $308 7.87211105763632 $232 $318 forward 7 unknown #
point $-1 -41.62124366297067 -36.603882651263426 -10.060822145109857 #
point $-1 -41.62124366297067 36.603882651263426 -10.060822145109857 #
loop $-1 $-1 $163 $155 #
plane-surface $-1 56.606952116458629 0 0 -1 0 0 0 0 1 forward_v I I I I #
coedge $-1 $246 $158 $160 $250 reversed $91 $-1 #
coedge $-1 $158 $245 $319 $320 reversed $91 $-1 #
coedge $-1 $166 $161 $158 $248 forward $156 $-1 #
edge $-1 $251 26.714378658762485 $321 44.947704297288666 $247 $322 forward 7 unknown #
coedge $-1 $160 $159 $254 $323 reversed $57 $-1 #
edge $-1 $324 -113.21390423291723 $251 -91.473155915085357 $245 $325 forward 7 unknown #
vertex $-1 $162 $326 #
straight-curve $-1 38.373626477932454 -12.808418986499536 13.849755458551705 0 -1 0 I I #
coedge $-1 $319 $163 $166 $258 reversed $243 $-1 #
coedge $-1 $163 $319 $249 $323 forward $243 $-1 #
vertex $-1 $164 $327 #
straight-curve $-1 56.606952116458629 -20.725856820863488 79.309388158179814 0 0 1 I I #
straight-curve $-1 -38.342216721238415 -20.725856820863488 63.66960747866257 0.83867056331134215 0 -0.54463904215088732 I I #
edge $-1 $321 -30.507819125134656 $167 -20.725856820863488 $253 $328 forward 7 unknown #
point $-1 56.606952116458629 -20.725856820863488 13.849755458551712 #
point $-1 38.373626477932447 -20.725856820863488 13.849755458551705 #
edge $-1 $329 1 $329 0 $170 $-1 forward 7 unknown #
vertex $-1 $171 $330 #
ellipse-curve $-1 45.098345390223102 -25.616837972999072 4.246054739671524 0.54463904215088732 0 0.83867056331134215 1.6773411266226843 0 -1.0892780843017746 1 I I #
point $-1 49.16763042381821 -25.616837972999072 6.8400472045162077 #
plane-surface $-1 0 0 13.849755458551712 0 0 1 1 0 0 forward_v I I I I #
coedge $-1 $276 $275 $268 $331 forward $175 $-1 #
coedge $-1 $268 $177 $179 $272 reversed $106 $-1 #
coedge $-1 $177 $267 $266 $331 reversed $106 $-1 #
coedge $-1 $185 $180 $177 $270 forward $186 $-1 #
edge $-1 $273 26.714378658762485 $332 44.947704297288666 $269 $333 forward 7 unknown #
coedge $-1 $179 $178 $276 $334 reversed $66 $-1 #
edge $-1 $335 -113.21390423291723 $273 -91.473155915085357 $267 $336 forward 7 unknown #
vertex $-1 $181 $337 #
straight-curve $-1 38.373626477932454 12.808418986499536 13.849755458551705 0 -1 0 I I #
coedge $-1 $266 $182 $185 $280 reversed $175 $-1 #
coedge $-1 $182 $266 $271 $334 forward $175 $-1 #
vertex $-1 $183 $338 #
straight-curve $-1 56.606952116458629 30.507819125134656 79.309388158179814 0 0 1 I I #
straight-curve $-1 -38.342216721238415 30.507819125134656 63.66960747866257 0.83867056331134215 0 -0.54463904215088732 I I #
edge $-1 $332 20.725856820863488 $187 30.507819125134656 $275 $339 forward 7 unknown #
point $-1 56.606952116458629 30.507819125134656 13.849755458551712 #
point $-1 38.373626477932447 30.507819125134656 13.849755458551705 #
edge $-1 $340 1 $340 0 $190 $-1 forward 7 unknown #
vertex $-1 $191 $341 #
ellipse-curve $-1 45.098345390223102 25.616837972999072 4.246054739671524 0.54463904215088732 0 0.83867056331134215 1.6773411266226843 0 -1.0892780843017746 1 I I #
point $-1 49.16763042381821 25.616837972999072 6.8400472045162077 #
plane-surface $-1 56.606952116458629 0 0 -1 0 0 0 0 1 forward_v I I I I #
coedge $-1 $199 $197 $201 $292 reversed $121 $-1 #
edge $-1 $212 -13.849755458551712 $294 13.849755458551712 $211 $342 forward 7 unknown #
vertex $-1 $292 $343 #
straight-curve $-1 -56.606952116458629 -36.603882651263426 0 0 0 -1 I I #
edge $-1 $290 -36.603882651263426 $294 36.603882651263426 $288 $344 forward 7 unknown #
straight-curve $-1 0 -36.603882651263426 -13.849755458551712 -1 0 0 I I #
vertex $-1 $204 $345 #
straight-curve $-1 0 36.603882651263426 -13.849755458551712 1 0 0 I I #
point $-1 56.606952116458629 36.603882651263426 -13.849755458551712 #
point $-1 56.606952116458629 -36.603882651263426 -13.849755458551712 #
straight-curve $-1 -56.606952116458629 0 13.849755458551712 0 -1 0 I I #
point $-1 -56.606952116458629 36.603882651263426 13.849755458551712 #
point $-1 -56.606952116458629 -36.603882651263426 13.849755458551712 #
straight-curve $-1 56.606952116458629 -36.603882651263426 0 0 0 -1 I I #
straight-curve $-1 56.606952116458629 36.603882651263426 0 0 0 -1 I I #
plane-surface $-1 0 36.603882651263426 0 0 -1 0 0 0 -1 forward_v I I I I #
coedge $-1 $225 $224 $346 $347 forward $83 $-1 #
edge $-1 $228 41.62124366297067 $348 56.606952116458629 $227 $349 forward 7 unknown #
coedge $-1 $233 $232 $225 $307 reversed $234 $-1 #
edge $-1 $350 -56.606952116458629 $308 -41.62124366297067 $306 $351 forward 7 unknown #
vertex $-1 $240 $352 #
straight-curve $-1 -41.62124366297067 0 -13.849755458551712 0 -1 0 I I #
point $-1 -41.62124366297067 -36.603882651263426 -13.849755458551712 #
coedge $-1 $346 $230 $233 $314 forward $222 $-1 #
coedge $-1 $230 $346 $237 $316 reversed $222 $-1 #
straight-curve $-1 -56.606952116458629 0 -10.060822145109857 0 1 0 I I #
edge $-1 $235 10.060822145109857 $350 13.849755458551712 $233 $353 forward 7 unknown #
point $-1 -56.606952116458629 36.603882651263426 -10.060822145109857 #
edge $-1 $238 10.060822145109857 $348 13.849755458551712 $312 $354 forward 7 unknown #
point $-1 -56.606952116458629 -36.603882651263426 -10.060822145109857 #
straight-curve $-1 -41.62124366297067 36.603882651263426 -5.9776444009153922 0 0 -1 I I #
coedge $-1 $254 $253 $246 $320 forward $243 $-1 #
edge $-1 $321 65.459632699628102 $324 77.300493039095585 $319 $355 forward 7 unknown #
vertex $-1 $258 $356 #
straight-curve $-1 11.659247819169963 -30.507819125134656 13.849755458551712 1 0 0 I I #
edge $-1 $324 -17.69940013863512 $255 -7.9174378343639518 $254 $357 forward 7 unknown #
vertex $-1 $323 $358 #
straight-curve $-1 -38.342216721238415 -30.507819125134656 63.66960747866257 -0.83867056331134215 0 0.54463904215088732 I I #
point $-1 38.373626477932447 -30.507819125134656 13.849755458551705 #
point $-1 56.606952116458629 -20.725856820863488 2.0088951190842366 #
straight-curve $-1 56.606952116458629 0 13.849755458551712 0 1 0 I I #
vertex $-1 $261 $359 #
point $-1 46.775686516845781 -25.616837972999072 3.1567766553697494 #
edge $-1 $332 65.459632699628102 $335 77.300493039095585 $266 $360 forward 7 unknown #
vertex $-1 $280 $361 #
straight-curve $-1 11.659247819169963 20.725856820863488 13.849755458551712 1 0 0 I I #
edge $-1 $335 7.9174378343639518 $277 17.69940013863512 $276 $362 forward 7 unknown #
vertex $-1 $334 $363 #
straight-curve $-1 -38.342216721238415 20.725856820863488 63.66960747866257 -0.83867056331134215 0 0.54463904215088732 I I #
point $-1 38.373626477932447 20.725856820863488 13.849755458551705 #
point $-1 56.606952116458629 30.507819125134656 2.0088951190842366 #
straight-curve $-1 56.606952116458629 0 13.849755458551712 0 1 0 I I #
vertex $-1 $283 $364 #
point $-1 46.775686516845781 25.616837972999072 3.1567766553697494 #
straight-curve $-1 -56.606952116458629 36.603882651263426 0 0 0 -1 I I #
point $-1 -56.606952116458629 -36.603882651263426 -13.849755458551712 #
straight-curve $-1 -56.606952116458629 0 -13.849755458551712 0 1 0 I I #
point $-1 -56.606952116458629 36.603882651263426 -13.849755458551712 #
coedge $-1 $312 $311 $304 $347 reversed $222 $-1 #
edge $-1 $348 -36.603882651263426 $350 36.603882651263426 $346 $365 forward 7 unknown #
vertex $-1 $347 $366 #
straight-curve $-1 0 -36.603882651263426 -13.849755458551712 -1 0 0 I I #
vertex $-1 $307 $367 #
straight-curve $-1 0 36.603882651263426 -13.849755458551712 1 0 0 I I #
point $-1 -41.62124366297067 36.603882651263426 -13.849755458551712 #
straight-curve $-1 -56.606952116458629 36.603882651263426 0 0 0 -1 I I #
straight-curve $-1 -56.606952116458629 -36.603882651263426 0 0 0 -1 I I #
straight-curve $-1 56.606952116458629 -30.507819125134656 79.309388158179814 0 0 -1 I I #
point $-1 56.606952116458629 -30.507819125134656 13.849755458551712 #
straight-curve $-1 56.606952116458629 -12.808418986499536 2.0088951190842366 0 1 0 I I #
point $-1 56.606952116458629 -30.507819125134656 2.0088951190842366 #
point $-1 44.00906730592132 -25.616837972999072 2.5687136130488399 #
straight-curve $-1 56.606952116458629 20.725856820863488 79.309388158179814 0 0 -1 I I #
point $-1 56.606952116458629 20.725856820863488 13.849755458551712 #
straight-curve $-1 56.606952116458629 12.808418986499536 2.0088951190842366 0 1 0 I I #
point $-1 56.606952116458629 20.725856820863488 2.0088951190842366 #
point $-1 44.00906730592132 25.616837972999072 2.5687136130488399 #
straight-curve $-1 -56.606952116458629 0 -13.849755458551712 0 1 0 I I #
point $-1 -56.606952116458629 -36.603882651263426 -13.849755458551712 #
point $-1 -56.606952116458629 36.603882651263426 -13.849755458551712 #
End-of-ACIS-data 