500 0 18 0           
7 Unknown 11 ACIS 5.0 NT 24 Fri Mar 26 17:32:16 1999 
-1 9.9999999999999995e-007 1e-010 
body $-1 $18 $-1 $19 #
body $-1 $20 $-1 $21 #
body $-1 $22 $-1 $23 #
body $-1 $24 $-1 $25 #
body $-1 $26 $-1 $27 #
body $-1 $28 $-1 $29 #
body $-1 $30 $-1 $31 #
body $-1 $32 $-1 $33 #
body $-1 $34 $-1 $35 #
body $-1 $36 $-1 $37 #
body $-1 $38 $-1 $39 #
body $-1 $40 $-1 $41 #
body $-1 $42 $-1 $43 #
body $-1 $44 $-1 $45 #
body $-1 $46 $-1 $47 #
body $-1 $48 $-1 $49 #
body $-1 $50 $-1 $51 #
body $-1 $52 $-1 $53 #
lump $-1 $-1 $54 $0 #
transform $-1 1 0 0 0 1 0 0 0 1 70.600299081392862 33.743439555458039 11.923121357373232 1 rotate no_reflect no_shear #
lump $-1 $-1 $55 $1 #
transform $-1 1 0 0 0 1 0 0 0 1 70.600299081392862 33.743439555458039 11.923121357373232 1 rotate no_reflect no_shear #
lump $-1 $-1 $56 $2 #
transform $-1 1 0 0 0 1 0 0 0 1 70.600299081392862 33.743439555458039 11.923121357373232 1 rotate no_reflect no_shear #
lump $-1 $-1 $57 $3 #
transform $-1 1 0 0 0 1 0 0 0 1 70.600299081392862 33.743439555458039 11.923121357373232 1 rotate no_reflect no_shear #
lump $-1 $-1 $58 $4 #
transform $-1 1 0 0 0 1 0 0 0 1 70.600299081392862 33.743439555458039 11.923121357373232 1 rotate no_reflect no_shear #
lump $-1 $-1 $59 $5 #
transform $-1 1 0 0 0 1 0 0 0 1 70.600299081392862 33.743439555458039 11.923121357373232 1 rotate no_reflect no_shear #
lump $-1 $-1 $60 $6 #
transform $-1 1 0 0 0 1 0 0 0 1 70.600299081392862 33.743439555458039 11.923121357373232 1 rotate no_reflect no_shear #
lump $-1 $-1 $61 $7 #
transform $-1 1 0 0 0 1 0 0 0 1 70.600299081392862 33.743439555458039 11.923121357373232 1 rotate no_reflect no_shear #
lump $-1 $-1 $62 $8 #
transform $-1 1 0 0 0 1 0 0 0 1 70.600299081392862 33.743439555458039 11.923121357373232 1 rotate no_reflect no_shear #
lump $-1 $-1 $63 $9 #
transform $-1 1 0 0 0 1 0 0 0 1 70.600299081392862 33.743439555458039 11.923121357373232 1 rotate no_reflect no_shear #
lump $-1 $-1 $64 $10 #
transform $-1 1 0 0 0 1 0 0 0 1 70.600299081392862 33.743439555458039 11.923121357373232 1 rotate no_reflect no_shear #
lump $-1 $-1 $65 $11 #
transform $-1 1 0 0 0 1 0 0 0 1 70.600299081392862 33.743439555458039 11.923121357373232 1 rotate no_reflect no_shear #
lump $-1 $-1 $66 $12 #
transform $-1 1 0 0 0 1 0 0 0 1 70.600299081392862 33.743439555458039 11.923121357373232 1 rotate no_reflect no_shear #
lump $-1 $-1 $67 $13 #
transform $-1 1 0 0 0 1 0 0 0 1 70.600299081392862 33.743439555458039 11.923121357373232 1 rotate no_reflect no_shear #
lump $-1 $-1 $68 $14 #
transform $-1 1 0 0 0 1 0 0 0 1 70.600299081392862 33.743439555458039 11.923121357373232 1 rotate no_reflect no_shear #
lump $-1 $-1 $69 $15 #
transform $-1 1 0 0 0 1 0 0 0 1 70.600299081392862 33.743439555458039 11.923121357373232 1 rotate no_reflect no_shear #
lump $-1 $-1 $70 $16 #
transform $-1 1 0 0 0 1 0 0 0 1 70.600299081392862 33.743439555458039 11.923121357373232 1 rotate no_reflect no_shear #
lump $-1 $-1 $71 $17 #
transform $-1 1 0 0 0 1 0 0 0 1 70.600299081392862 33.743439555458039 11.923121357373232 1 rotate no_reflect no_shear #
shell $-1 $-1 $-1 $72 $-1 $18 #
shell $-1 $-1 $-1 $73 $-1 $20 #
shell $-1 $-1 $-1 $74 $-1 $22 #
shell $-1 $-1 $-1 $75 $-1 $24 #
shell $-1 $-1 $-1 $76 $-1 $26 #
shell $-1 $-1 $-1 $77 $-1 $28 #
shell $-1 $-1 $-1 $78 $-1 $30 #
shell $-1 $-1 $-1 $79 $-1 $32 #
shell $-1 $-1 $-1 $80 $-1 $34 #
shell $-1 $-1 $-1 $81 $-1 $36 #
shell $-1 $-1 $-1 $82 $-1 $38 #
shell $-1 $-1 $-1 $83 $-1 $40 #
shell $-1 $-1 $-1 $84 $-1 $42 #
shell $-1 $-1 $-1 $85 $-1 $44 #
shell $-1 $-1 $-1 $86 $-1 $46 #
shell $-1 $-1 $-1 $87 $-1 $48 #
shell $-1 $-1 $-1 $88 $-1 $50 #
shell $-1 $-1 $-1 $89 $-1 $52 #
face $-1 $90 $91 $54 $-1 $92 forward single #
face $-1 $93 $94 $55 $-1 $95 forward single #
face $-1 $96 $97 $56 $-1 $98 reversed single #
face $-1 $99 $100 $57 $-1 $101 forward single #
face $-1 $102 $103 $58 $-1 $104 forward single #
face $-1 $105 $106 $59 $-1 $107 forward single #
face $-1 $108 $109 $60 $-1 $110 reversed single #
face $-1 $111 $112 $61 $-1 $113 forward single #
face $-1 $114 $115 $62 $-1 $116 forward single #
face $-1 $117 $118 $63 $-1 $119 forward single #
face $-1 $120 $121 $64 $-1 $122 reversed single #
face $-1 $123 $124 $65 $-1 $125 forward single #
face $-1 $126 $127 $66 $-1 $128 forward single #
face $-1 $129 $130 $67 $-1 $131 forward single #
face $-1 $132 $133 $68 $-1 $134 reversed single #
face $-1 $135 $136 $69 $-1 $137 forward single #
face $-1 $138 $139 $70 $-1 $140 forward single #
face $-1 $141 $142 $71 $-1 $143 forward single #
face $-1 $144 $145 $54 $-1 $146 reversed single #
loop $-1 $-1 $147 $72 #
plane-surface $-1 0 0 11.923121357373232 0 0 1 1 0 0 forward_v I I I I #
face $-1 $148 $149 $55 $-1 $150 reversed single #
loop $-1 $-1 $151 $73 #
plane-surface $-1 -70.600299081392862 0 0 1 0 0 0 0 -1 forward_v I I I I #
face $-1 $152 $153 $56 $-1 $154 reversed single #
loop $-1 $-1 $155 $74 #
plane-surface $-1 -42.069712953228716 -124.50543565038092 109.30586569406505 -1 0 0 0 -0.64278761758704617 0.76604443648966558 forward_v I I I I #
face $-1 $156 $157 $57 $-1 $158 forward single #
loop $-1 $159 $160 $75 #
cone-surface $-1 -53.719780984821938 -26.240097079922922 5.2469468705621152 0 0.64278761758704617 -0.76604443648966558 1 0 0 1 I I 0 1 1 forward I I I I #
face $-1 $161 $162 $58 $-1 $163 forward single #
loop $-1 $164 $165 $76 #
cone-surface $-1 -49.351005472974478 -26.240097079922922 5.2469468705621152 0 0.64278761758704617 -0.76604443648966558 1 0 0 1 I I 0 1 1 forward I I I I #
face $-1 $166 $167 $59 $-1 $168 forward single #
loop $-1 $169 $170 $77 #
cone-surface $-1 -44.982229961127018 -26.240097079922922 5.2469468705621152 0 0.64278761758704617 -0.76604443648966558 1 0 0 1 I I 0 1 1 forward I I I I #
face $-1 $171 $172 $60 $-1 $173 reversed single #
loop $-1 $-1 $174 $78 #
plane-surface $-1 -9.6529014267225151 -124.50543565038092 109.30586569406505 -1 0 0 0 -0.64278761758704617 0.76604443648966558 forward_v I I I I #
face $-1 $175 $176 $61 $-1 $177 forward single #
loop $-1 $178 $179 $79 #
cone-surface $-1 -21.302969458315729 -26.240097079922922 5.2469468705621152 0 0.64278761758704617 -0.76604443648966558 1 0 0 1 I I 0 1 1 forward I I I I #
face $-1 $180 $181 $62 $-1 $182 forward single #
loop $-1 $183 $184 $80 #
cone-surface $-1 -16.934193946468277 -26.240097079922922 5.2469468705621152 0 0.64278761758704617 -0.76604443648966558 1 0 0 1 I I 0 1 1 forward I I I I #
face $-1 $185 $186 $63 $-1 $187 forward single #
loop $-1 $188 $189 $81 #
cone-surface $-1 -12.565418434620824 -26.240097079922922 5.2469468705621152 0 0.64278761758704617 -0.76604443648966558 1 0 0 1 I I 0 1 1 forward I I I I #
face $-1 $190 $191 $64 $-1 $192 reversed single #
loop $-1 $-1 $193 $82 #
plane-surface $-1 22.763910099783686 -124.50543565038092 109.30586569406505 -1 0 0 0 -0.64278761758704617 0.76604443648966558 forward_v I I I I #
face $-1 $194 $195 $65 $-1 $196 forward single #
loop $-1 $197 $198 $83 #
cone-surface $-1 11.113842068190465 -26.240097079922922 5.2469468705621152 0 0.64278761758704617 -0.76604443648966558 1 0 0 1 I I 0 1 1 forward I I I I #
face $-1 $199 $200 $66 $-1 $201 forward single #
loop $-1 $202 $203 $84 #
cone-surface $-1 15.482617580037925 -26.240097079922922 5.2469468705621152 0 0.64278761758704617 -0.76604443648966558 1 0 0 1 I I 0 1 1 forward I I I I #
face $-1 $204 $205 $67 $-1 $206 forward single #
loop $-1 $207 $208 $85 #
cone-surface $-1 19.851393091885384 -26.240097079922922 5.2469468705621152 0 0.64278761758704617 -0.76604443648966558 1 0 0 1 I I 0 1 1 forward I I I I #
face $-1 $209 $210 $68 $-1 $211 reversed single #
loop $-1 $-1 $212 $86 #
plane-surface $-1 55.180721626289895 -124.50543565038092 109.30586569406505 -1 0 0 0 -0.64278761758704617 0.76604443648966558 forward_v I I I I #
face $-1 $213 $214 $69 $-1 $215 forward single #
loop $-1 $216 $217 $87 #
cone-surface $-1 43.530653594696659 -26.240097079922922 5.2469468705621152 0 0.64278761758704617 -0.76604443648966558 1 0 0 1 I I 0 1 1 forward I I I I #
face $-1 $218 $219 $70 $-1 $220 forward single #
loop $-1 $221 $222 $88 #
cone-surface $-1 47.899429106544133 -26.240097079922922 5.2469468705621152 0 0.64278761758704617 -0.76604443648966558 1 0 0 1 I I 0 1 1 forward I I I I #
face $-1 $223 $224 $71 $-1 $225 forward single #
loop $-1 $226 $227 $89 #
cone-surface $-1 52.268204618391579 -26.240097079922922 5.2469468705621152 0 0.64278761758704617 -0.76604443648966558 1 0 0 1 I I 0 1 1 forward I I I I #
face $-1 $228 $229 $54 $-1 $230 reversed single #
loop $-1 $-1 $231 $90 #
plane-surface $-1 0 0 -11.923121357373232 0 0 1 1 0 0 forward_v I I I I #
coedge $-1 $232 $233 $234 $235 forward $91 $-1 #
face $-1 $236 $237 $55 $-1 $238 forward single #
loop $-1 $-1 $239 $93 #
plane-surface $-1 0 33.743439555458039 0 0 -1 0 0 0 -1 forward_v I I I I #
coedge $-1 $240 $241 $242 $243 forward $94 $-1 #
face $-1 $244 $245 $56 $-1 $246 reversed single #
loop $-1 $-1 $247 $96 #
plane-surface $-1 -49.351005472974478 -33.743439555458039 1.1399330424501528 0 -0.64278761758704617 0.76604443648966558 1 0 0 forward_v I I I I #
coedge $-1 $248 $249 $250 $251 reversed $97 $-1 #
face $-1 $-1 $252 $57 $-1 $253 forward single #
loop $-1 $254 $255 $99 #
cone-surface $-1 -53.719780984821938 -24.840812367978199 3.5793443229677031 0 0.64278761758704617 -0.76604443648966558 0.5 0 0 1 I I -0.70710678118654746 0.70710678118654746 0.5 forward I I I I #
loop $-1 $-1 $256 $75 #
coedge $-1 $160 $160 $257 $258 reversed $100 $-1 #
face $-1 $-1 $259 $58 $-1 $260 forward single #
loop $-1 $261 $262 $102 #
cone-surface $-1 -49.351005472974478 -24.840812367978199 3.5793443229677031 0 0.64278761758704617 -0.76604443648966558 0.5 0 0 1 I I -0.70710678118654746 0.70710678118654746 0.5 forward I I I I #
loop $-1 $-1 $263 $76 #
coedge $-1 $165 $165 $264 $265 reversed $103 $-1 #
face $-1 $-1 $266 $59 $-1 $267 forward single #
loop $-1 $268 $269 $105 #
cone-surface $-1 -44.982229961127018 -24.840812367978199 3.5793443229677031 0 0.64278761758704617 -0.76604443648966558 0.5 0 0 1 I I -0.70710678118654746 0.70710678118654746 0.5 forward I I I I #
loop $-1 $-1 $270 $77 #
coedge $-1 $170 $170 $271 $272 reversed $106 $-1 #
face $-1 $273 $274 $60 $-1 $275 reversed single #
loop $-1 $-1 $276 $108 #
plane-surface $-1 -16.934193946468277 -33.743439555458039 1.1399330424501528 0 -0.64278761758704617 0.76604443648966558 1 0 0 forward_v I I I I #
coedge $-1 $277 $278 $279 $280 reversed $109 $-1 #
face $-1 $-1 $281 $61 $-1 $282 forward single #
loop $-1 $283 $284 $111 #
cone-surface $-1 -21.302969458315729 -24.840812367978199 3.5793443229677031 0 0.64278761758704617 -0.76604443648966558 0.5 0 0 1 I I -0.70710678118654746 0.70710678118654746 0.5 forward I I I I #
loop $-1 $-1 $285 $79 #
coedge $-1 $179 $179 $286 $287 reversed $112 $-1 #
face $-1 $-1 $288 $62 $-1 $289 forward single #
loop $-1 $290 $291 $114 #
cone-surface $-1 -16.934193946468277 -24.840812367978199 3.5793443229677031 0 0.64278761758704617 -0.76604443648966558 0.5 0 0 1 I I -0.70710678118654746 0.70710678118654746 0.5 forward I I I I #
loop $-1 $-1 $292 $80 #
coedge $-1 $184 $184 $293 $294 reversed $115 $-1 #
face $-1 $-1 $295 $63 $-1 $296 forward single #
loop $-1 $297 $298 $117 #
cone-surface $-1 -12.565418434620824 -24.840812367978199 3.5793443229677031 0 0.64278761758704617 -0.76604443648966558 0.5 0 0 1 I I -0.70710678118654746 0.70710678118654746 0.5 forward I I I I #
loop $-1 $-1 $299 $81 #
coedge $-1 $189 $189 $300 $301 reversed $118 $-1 #
face $-1 $302 $303 $64 $-1 $304 reversed single #
loop $-1 $-1 $305 $120 #
plane-surface $-1 15.482617580037925 -33.743439555458039 1.1399330424501528 0 -0.64278761758704617 0.76604443648966558 1 0 0 forward_v I I I I #
coedge $-1 $306 $307 $308 $309 reversed $121 $-1 #
face $-1 $-1 $310 $65 $-1 $311 forward single #
loop $-1 $312 $313 $123 #
cone-surface $-1 11.113842068190465 -24.840812367978199 3.5793443229677031 0 0.64278761758704617 -0.76604443648966558 0.5 0 0 1 I I -0.70710678118654746 0.70710678118654746 0.5 forward I I I I #
loop $-1 $-1 $314 $83 #
coedge $-1 $198 $198 $315 $316 reversed $124 $-1 #
face $-1 $-1 $317 $66 $-1 $318 forward single #
loop $-1 $319 $320 $126 #
cone-surface $-1 15.482617580037925 -24.840812367978199 3.5793443229677031 0 0.64278761758704617 -0.76604443648966558 0.5 0 0 1 I I -0.70710678118654746 0.70710678118654746 0.5 forward I I I I #
loop $-1 $-1 $321 $84 #
coedge $-1 $203 $203 $322 $323 reversed $127 $-1 #
face $-1 $-1 $324 $67 $-1 $325 forward single #
loop $-1 $326 $327 $129 #
cone-surface $-1 19.851393091885384 -24.840812367978199 3.5793443229677031 0 0.64278761758704617 -0.76604443648966558 0.5 0 0 1 I I -0.70710678118654746 0.70710678118654746 0.5 forward I I I I #
loop $-1 $-1 $328 $85 #
coedge $-1 $208 $208 $329 $330 reversed $130 $-1 #
face $-1 $331 $332 $68 $-1 $333 reversed single #
loop $-1 $-1 $334 $132 #
plane-surface $-1 47.899429106544133 -33.743439555458039 1.1399330424501528 0 -0.64278761758704617 0.76604443648966558 1 0 0 forward_v I I I I #
coedge $-1 $335 $336 $337 $338 reversed $133 $-1 #
face $-1 $-1 $339 $69 $-1 $340 forward single #
loop $-1 $341 $342 $135 #
cone-surface $-1 43.530653594696659 -24.840812367978199 3.5793443229677031 0 0.64278761758704617 -0.76604443648966558 0.5 0 0 1 I I -0.70710678118654746 0.70710678118654746 0.5 forward I I I I #
loop $-1 $-1 $343 $87 #
coedge $-1 $217 $217 $344 $345 reversed $136 $-1 #
face $-1 $-1 $346 $70 $-1 $347 forward single #
loop $-1 $348 $349 $138 #
cone-surface $-1 47.899429106544133 -24.840812367978199 3.5793443229677031 0 0.64278761758704617 -0.76604443648966558 0.5 0 0 1 I I -0.70710678118654746 0.70710678118654746 0.5 forward I I I I #
loop $-1 $-1 $350 $88 #
coedge $-1 $222 $222 $351 $352 reversed $139 $-1 #
face $-1 $-1 $353 $71 $-1 $354 forward single #
loop $-1 $355 $356 $141 #
cone-surface $-1 52.268204618391579 -24.840812367978199 3.5793443229677031 0 0.64278761758704617 -0.76604443648966558 0.5 0 0 1 I I -0.70710678118654746 0.70710678118654746 0.5 forward I I I I #
loop $-1 $-1 $357 $89 #
coedge $-1 $227 $227 $358 $359 reversed $142 $-1 #
face $-1 $360 $361 $54 $-1 $362 reversed single #
loop $-1 $-1 $363 $144 #
plane-surface $-1 0 -33.743439555458039 0 0 1 0 0 0 1 forward_v I I I I #
coedge $-1 $364 $365 $366 $367 forward $145 $-1 #
coedge $-1 $368 $147 $369 $370 forward $91 $-1 #
coedge $-1 $147 $368 $371 $372 forward $91 $-1 #
coedge $-1 $373 $374 $147 $235 reversed $375 $-1 #
edge $-1 $376 -33.743439555458039 $377 33.743439555458039 $234 $378 forward 7 unknown #
face $-1 $379 $380 $55 $-1 $381 reversed single #
loop $-1 $-1 $242 $148 #
plane-surface $-1 -76.366975109773321 0 6.6045687704452591 0 0 1 1 0 0 forward_v I I I I #
coedge $-1 $382 $383 $241 $384 forward $149 $-1 #
coedge $-1 $385 $151 $386 $387 reversed $94 $-1 #
coedge $-1 $151 $385 $239 $384 reversed $94 $-1 #
coedge $-1 $388 $389 $151 $243 reversed $237 $-1 #
edge $-1 $390 -33.743439555458039 $391 33.743439555458039 $242 $392 forward 7 unknown #
face $-1 $393 $394 $56 $-1 $395 reversed single #
loop $-1 $-1 $396 $152 #
plane-surface $-1 -56.63229799272024 -124.50543565038092 109.30586569406505 1 0 0 0 0.64278761758704617 -0.76604443648966558 forward_v I I I I #
coedge $-1 $397 $398 $399 $400 reversed $153 $-1 #
coedge $-1 $249 $155 $401 $402 reversed $97 $-1 #
coedge $-1 $155 $248 $397 $403 reversed $97 $-1 #
coedge $-1 $399 $404 $155 $251 forward $405 $-1 #
edge $-1 $406 28.50927826973242 $407 41.360181414500254 $250 $408 forward 7 unknown #
loop $-1 $-1 $257 $156 #
plane-surface $-1 -49.351005472974478 -33.743439555458039 1.1399330424501528 0 -0.64278761758704617 0.76604443648966558 1 0 0 forward_v I I I I #
loop $-1 $-1 $409 $99 #
coedge $-1 $255 $255 $256 $410 reversed $157 $-1 #
coedge $-1 $256 $256 $255 $410 forward $159 $-1 #
coedge $-1 $257 $257 $160 $258 forward $252 $-1 #
edge $-1 $411 -4.3789618652077234e-016 $411 6.2831853071796004 $257 $412 forward 7 unknown #
loop $-1 $-1 $264 $161 #
plane-surface $-1 -49.351005472974478 -33.743439555458039 1.1399330424501528 0 -0.64278761758704617 0.76604443648966558 1 0 0 forward_v I I I I #
loop $-1 $-1 $413 $102 #
coedge $-1 $262 $262 $263 $414 reversed $162 $-1 #
coedge $-1 $263 $263 $262 $414 forward $164 $-1 #
coedge $-1 $264 $264 $165 $265 forward $259 $-1 #
edge $-1 $415 -4.3789618652077234e-016 $415 6.2831853071796004 $264 $416 forward 7 unknown #
loop $-1 $-1 $271 $166 #
plane-surface $-1 -49.351005472974478 -33.743439555458039 1.1399330424501528 0 -0.64278761758704617 0.76604443648966558 1 0 0 forward_v I I I I #
loop $-1 $-1 $417 $105 #
coedge $-1 $269 $269 $270 $418 reversed $167 $-1 #
coedge $-1 $270 $270 $269 $418 forward $169 $-1 #
coedge $-1 $271 $271 $170 $272 forward $266 $-1 #
edge $-1 $419 -4.3789618652077234e-016 $419 6.2831853071796004 $271 $420 forward 7 unknown #
face $-1 $421 $422 $60 $-1 $423 reversed single #
loop $-1 $-1 $424 $171 #
plane-surface $-1 -24.215486466214038 -124.50543565038092 109.30586569406505 1 0 0 0 0.64278761758704617 -0.76604443648966558 forward_v I I I I #
coedge $-1 $425 $426 $427 $428 reversed $172 $-1 #
coedge $-1 $278 $174 $429 $430 reversed $109 $-1 #
coedge $-1 $174 $277 $425 $431 reversed $109 $-1 #
coedge $-1 $427 $432 $174 $280 forward $433 $-1 #
edge $-1 $434 28.50927826973242 $435 41.360181414500254 $279 $436 forward 7 unknown #
loop $-1 $-1 $286 $175 #
plane-surface $-1 -16.934193946468277 -33.743439555458039 1.1399330424501528 0 -0.64278761758704617 0.76604443648966558 1 0 0 forward_v I I I I #
loop $-1 $-1 $437 $111 #
coedge $-1 $284 $284 $285 $438 reversed $176 $-1 #
coedge $-1 $285 $285 $284 $438 forward $178 $-1 #
coedge $-1 $286 $286 $179 $287 forward $281 $-1 #
edge $-1 $439 -4.3789618652077234e-016 $439 6.2831853071796004 $286 $440 forward 7 unknown #
loop $-1 $-1 $293 $180 #
plane-surface $-1 -16.934193946468277 -33.743439555458039 1.1399330424501528 0 -0.64278761758704617 0.76604443648966558 1 0 0 forward_v I I I I #
loop $-1 $-1 $441 $114 #
coedge $-1 $291 $291 $292 $442 reversed $181 $-1 #
coedge $-1 $292 $292 $291 $442 forward $183 $-1 #
coedge $-1 $293 $293 $184 $294 forward $288 $-1 #
edge $-1 $443 -4.3789618652077234e-016 $443 6.2831853071796004 $293 $444 forward 7 unknown #
loop $-1 $-1 $300 $185 #
plane-surface $-1 -16.934193946468277 -33.743439555458039 1.1399330424501528 0 -0.64278761758704617 0.76604443648966558 1 0 0 forward_v I I I I #
loop $-1 $-1 $445 $117 #
coedge $-1 $298 $298 $299 $446 reversed $186 $-1 #
coedge $-1 $299 $299 $298 $446 forward $188 $-1 #
coedge $-1 $300 $300 $189 $301 forward $295 $-1 #
edge $-1 $447 -4.3789618652077234e-016 $447 6.2831853071796004 $300 $448 forward 7 unknown #
face $-1 $449 $450 $64 $-1 $451 reversed single #
loop $-1 $-1 $452 $190 #
plane-surface $-1 8.201325060292163 -124.50543565038092 109.30586569406505 1 0 0 0 0.64278761758704617 -0.76604443648966558 forward_v I I I I #
coedge $-1 $453 $454 $455 $456 reversed $191 $-1 #
coedge $-1 $307 $193 $457 $458 reversed $121 $-1 #
coedge $-1 $193 $306 $453 $459 reversed $121 $-1 #
coedge $-1 $455 $460 $193 $309 forward $461 $-1 #
edge $-1 $462 28.50927826973242 $463 41.360181414500254 $308 $464 forward 7 unknown #
loop $-1 $-1 $315 $194 #
plane-surface $-1 15.482617580037925 -33.743439555458039 1.1399330424501528 0 -0.64278761758704617 0.76604443648966558 1 0 0 forward_v I I I I #
loop $-1 $-1 $465 $123 #
coedge $-1 $313 $313 $314 $466 reversed $195 $-1 #
coedge $-1 $314 $314 $313 $466 forward $197 $-1 #
coedge $-1 $315 $315 $198 $316 forward $310 $-1 #
edge $-1 $467 -4.3789618652077234e-016 $467 6.2831853071796004 $315 $468 forward 7 unknown #
loop $-1 $-1 $322 $199 #
plane-surface $-1 15.482617580037925 -33.743439555458039 1.1399330424501528 0 -0.64278761758704617 0.76604443648966558 1 0 0 forward_v I I I I #
loop $-1 $-1 $469 $126 #
coedge $-1 $320 $320 $321 $470 reversed $200 $-1 #
coedge $-1 $321 $321 $320 $470 forward $202 $-1 #
coedge $-1 $322 $322 $203 $323 forward $317 $-1 #
edge $-1 $471 -4.3789618652077234e-016 $471 6.2831853071796004 $322 $472 forward 7 unknown #
loop $-1 $-1 $329 $204 #
plane-surface $-1 15.482617580037925 -33.743439555458039 1.1399330424501528 0 -0.64278761758704617 0.76604443648966558 1 0 0 forward_v I I I I #
loop $-1 $-1 $473 $129 #
coedge $-1 $327 $327 $328 $474 reversed $205 $-1 #
coedge $-1 $328 $328 $327 $474 forward $207 $-1 #
coedge $-1 $329 $329 $208 $330 forward $324 $-1 #
edge $-1 $475 -4.3789618652077234e-016 $475 6.2831853071796004 $329 $476 forward 7 unknown #
face $-1 $477 $478 $68 $-1 $479 reversed single #
loop $-1 $-1 $480 $209 #
plane-surface $-1 40.618136586798371 -124.50543565038092 109.30586569406505 1 0 0 0 0.64278761758704617 -0.76604443648966558 forward_v I I I I #
coedge $-1 $481 $482 $483 $484 reversed $210 $-1 #
coedge $-1 $336 $212 $485 $486 reversed $133 $-1 #
coedge $-1 $212 $335 $481 $487 reversed $133 $-1 #
coedge $-1 $483 $488 $212 $338 forward $489 $-1 #
edge $-1 $490 28.50927826973242 $491 41.360181414500254 $337 $492 forward 7 unknown #
loop $-1 $-1 $344 $213 #
plane-surface $-1 47.899429106544133 -33.743439555458039 1.1399330424501528 0 -0.64278761758704617 0.76604443648966558 1 0 0 forward_v I I I I #
loop $-1 $-1 $493 $135 #
coedge $-1 $342 $342 $343 $494 reversed $214 $-1 #
coedge $-1 $343 $343 $342 $494 forward $216 $-1 #
coedge $-1 $344 $344 $217 $345 forward $339 $-1 #
edge $-1 $495 -4.3789618652077234e-016 $495 6.2831853071796004 $344 $496 forward 7 unknown #
loop $-1 $-1 $351 $218 #
plane-surface $-1 47.899429106544133 -33.743439555458039 1.1399330424501528 0 -0.64278761758704617 0.76604443648966558 1 0 0 forward_v I I I I #
loop $-1 $-1 $497 $138 #
coedge $-1 $349 $349 $350 $498 reversed $219 $-1 #
coedge $-1 $350 $350 $349 $498 forward $221 $-1 #
coedge $-1 $351 $351 $222 $352 forward $346 $-1 #
edge $-1 $499 -4.3789618652077234e-016 $499 6.2831853071796004 $351 $500 forward 7 unknown #
loop $-1 $-1 $358 $223 #
plane-surface $-1 47.899429106544133 -33.743439555458039 1.1399330424501528 0 -0.64278761758704617 0.76604443648966558 1 0 0 forward_v I I I I #
loop $-1 $-1 $501 $141 #
coedge $-1 $356 $356 $357 $502 reversed $224 $-1 #
coedge $-1 $357 $357 $356 $502 forward $226 $-1 #
coedge $-1 $358 $358 $227 $359 forward $353 $-1 #
edge $-1 $503 -4.3789618652077234e-016 $503 6.2831853071796004 $358 $504 forward 7 unknown #
face $-1 $505 $506 $54 $-1 $507 reversed single #
loop $-1 $-1 $508 $228 #
plane-surface $-1 -70.600299081392862 0 0 1 0 0 0 0 -1 forward_v I I I I #
coedge $-1 $509 $371 $510 $511 forward $229 $-1 #
coedge $-1 $512 $231 $509 $513 forward $145 $-1 #
coedge $-1 $231 $512 $514 $515 forward $145 $-1 #
coedge $-1 $374 $373 $231 $367 reversed $375 $-1 #
edge $-1 $516 -33.743439555458039 $517 33.743439555458039 $366 $518 forward 7 unknown #
coedge $-1 $233 $232 $519 $520 forward $91 $-1 #
coedge $-1 $521 $522 $232 $370 reversed $506 $-1 #
edge $-1 $377 -70.600299081392862 $523 70.600299081392862 $369 $524 forward 7 unknown #
coedge $-1 $363 $525 $233 $372 reversed $229 $-1 #
edge $-1 $526 -70.600299081392862 $376 70.600299081392862 $371 $527 forward 7 unknown #
coedge $-1 $366 $234 $525 $528 forward $375 $-1 #
coedge $-1 $234 $366 $521 $529 reversed $375 $-1 #
loop $-1 $-1 $373 $505 #
vertex $-1 $235 $530 #
vertex $-1 $235 $531 #
straight-curve $-1 70.600299081392862 0 11.923121357373232 0 1 0 I I #
face $-1 $532 $533 $55 $-1 $534 reversed single #
loop $-1 $-1 $535 $236 #
plane-surface $-1 -76.366975109773321 0 1.9556175974336361 0 0 1 1 0 0 forward_v I I I I #
coedge $-1 $536 $239 $537 $538 reversed $149 $-1 #
coedge $-1 $239 $536 $388 $539 reversed $149 $-1 #
edge $-1 $390 -6.6045687704452591 $540 -1.9556175974336361 $239 $541 forward 7 unknown #
coedge $-1 $241 $240 $535 $542 forward $94 $-1 #
coedge $-1 $543 $544 $240 $387 forward $545 $-1 #
edge $-1 $546 1.9556175974336361 $391 6.6045687704452591 $386 $547 forward 7 unknown #
coedge $-1 $548 $242 $383 $539 forward $237 $-1 #
coedge $-1 $242 $548 $543 $549 forward $237 $-1 #
vertex $-1 $384 $550 #
vertex $-1 $549 $551 #
straight-curve $-1 -70.600299081392862 0 6.6045687704452591 0 -1 0 I I #
face $-1 $-1 $405 $56 $-1 $552 forward single #
loop $-1 $-1 $553 $244 #
plane-surface $-1 0 -33.743439555458039 0 0 1 0 0 0 1 forward_v I I I I #
coedge $-1 $554 $555 $556 $557 reversed $245 $-1 #
coedge $-1 $558 $247 $249 $403 forward $153 $-1 #
coedge $-1 $247 $558 $554 $559 forward $153 $-1 #
coedge $-1 $556 $250 $247 $400 forward $405 $-1 #
edge $-1 $407 17.394210216741477 $560 31.956795256233001 $399 $561 forward 7 unknown #
coedge $-1 $562 $563 $248 $402 forward $394 $-1 #
edge $-1 $564 -53.512999804582371 $406 -42.729811489659291 $401 $565 forward 7 unknown #
edge $-1 $407 -16.775662784858827 $564 0 $249 $566 forward 7 unknown #
coedge $-1 $250 $556 $562 $567 forward $405 $-1 #
loop $-1 $-1 $556 $393 #
vertex $-1 $402 $568 #
vertex $-1 $251 $569 #
straight-curve $-1 -42.069712953228716 -62.252717825190459 11.923121357373233 0 1 0 I I #
coedge $-1 $409 $409 $-1 $570 reversed $254 $-1 #
edge $-1 $571 0 $571 6.2831853071796004 $255 $572 forward 7 unknown #
vertex $-1 $258 $573 #
ellipse-curve $-1 -53.719780984821938 -27.317987983074122 6.5315271999116913 0 -0.64278761758704617 0.76604443648966558 1 0 0 1 I I #
coedge $-1 $413 $413 $-1 $574 reversed $261 $-1 #
edge $-1 $575 0 $575 6.2831853071796004 $262 $576 forward 7 unknown #
vertex $-1 $265 $577 #
ellipse-curve $-1 -49.351005472974478 -27.317987983074122 6.5315271999116913 0 -0.64278761758704617 0.76604443648966558 1 0 0 1 I I #
coedge $-1 $417 $417 $-1 $578 reversed $268 $-1 #
edge $-1 $579 0 $579 6.2831853071796004 $269 $580 forward 7 unknown #
vertex $-1 $272 $581 #
ellipse-curve $-1 -44.982229961127018 -27.317987983074122 6.5315271999116913 0 -0.64278761758704617 0.76604443648966558 1 0 0 1 I I #
face $-1 $-1 $433 $60 $-1 $582 forward single #
loop $-1 $-1 $583 $273 #
plane-surface $-1 0 -33.743439555458039 0 0 1 0 0 0 1 forward_v I I I I #
coedge $-1 $584 $585 $586 $587 reversed $274 $-1 #
coedge $-1 $588 $276 $278 $431 forward $172 $-1 #
coedge $-1 $276 $588 $584 $589 forward $172 $-1 #
coedge $-1 $586 $279 $276 $428 forward $433 $-1 #
edge $-1 $435 1.1858044534883767 $590 15.7483894929799 $427 $591 forward 7 unknown #
coedge $-1 $592 $593 $277 $430 forward $422 $-1 #
edge $-1 $594 -53.512999804582371 $434 -42.729811489659291 $429 $595 forward 7 unknown #
edge $-1 $435 -16.775662784858827 $594 0 $278 $596 forward 7 unknown #
coedge $-1 $279 $586 $592 $597 forward $433 $-1 #
loop $-1 $-1 $586 $421 #
vertex $-1 $430 $598 #
vertex $-1 $280 $599 #
straight-curve $-1 -9.6529014267225151 -62.252717825190459 11.923121357373233 0 1 0 I I #
coedge $-1 $437 $437 $-1 $600 reversed $283 $-1 #
edge $-1 $601 0 $601 6.2831853071796004 $284 $602 forward 7 unknown #
vertex $-1 $287 $603 #
ellipse-curve $-1 -21.302969458315729 -27.317987983074122 6.5315271999116913 0 -0.64278761758704617 0.76604443648966558 1 0 0 1 I I #
coedge $-1 $441 $441 $-1 $604 reversed $290 $-1 #
edge $-1 $605 0 $605 6.2831853071796004 $291 $606 forward 7 unknown #
vertex $-1 $294 $607 #
ellipse-curve $-1 -16.934193946468277 -27.317987983074122 6.5315271999116913 0 -0.64278761758704617 0.76604443648966558 1 0 0 1 I I #
coedge $-1 $445 $445 $-1 $608 reversed $297 $-1 #
edge $-1 $609 0 $609 6.2831853071796004 $298 $610 forward 7 unknown #
vertex $-1 $301 $611 #
ellipse-curve $-1 -12.565418434620824 -27.317987983074122 6.5315271999116913 0 -0.64278761758704617 0.76604443648966558 1 0 0 1 I I #
face $-1 $-1 $461 $64 $-1 $612 forward single #
loop $-1 $-1 $613 $302 #
plane-surface $-1 0 -33.743439555458039 0 0 1 0 0 0 1 forward_v I I I I #
coedge $-1 $614 $615 $616 $617 reversed $303 $-1 #
coedge $-1 $618 $305 $307 $459 forward $191 $-1 #
coedge $-1 $305 $618 $614 $619 forward $191 $-1 #
coedge $-1 $616 $308 $305 $456 forward $461 $-1 #
edge $-1 $463 -15.022601309764724 $620 -0.46001627027320069 $455 $621 forward 7 unknown #
coedge $-1 $622 $623 $306 $458 forward $450 $-1 #
edge $-1 $624 -53.512999804582371 $462 -42.729811489659291 $457 $625 forward 7 unknown #
edge $-1 $463 -16.775662784858827 $624 0 $307 $626 forward 7 unknown #
coedge $-1 $308 $616 $622 $627 forward $461 $-1 #
loop $-1 $-1 $616 $449 #
vertex $-1 $458 $628 #
vertex $-1 $309 $629 #
straight-curve $-1 22.763910099783686 -62.252717825190459 11.923121357373233 0 1 0 I I #
coedge $-1 $465 $465 $-1 $630 reversed $312 $-1 #
edge $-1 $631 0 $631 6.2831853071796004 $313 $632 forward 7 unknown #
vertex $-1 $316 $633 #
ellipse-curve $-1 11.113842068190465 -27.317987983074122 6.5315271999116913 0 -0.64278761758704617 0.76604443648966558 1 0 0 1 I I #
coedge $-1 $469 $469 $-1 $634 reversed $319 $-1 #
edge $-1 $635 0 $635 6.2831853071796004 $320 $636 forward 7 unknown #
vertex $-1 $323 $637 #
ellipse-curve $-1 15.482617580037925 -27.317987983074122 6.5315271999116913 0 -0.64278761758704617 0.76604443648966558 1 0 0 1 I I #
coedge $-1 $473 $473 $-1 $638 reversed $326 $-1 #
edge $-1 $639 0 $639 6.2831853071796004 $327 $640 forward 7 unknown #
vertex $-1 $330 $641 #
ellipse-curve $-1 19.851393091885384 -27.317987983074122 6.5315271999116913 0 -0.64278761758704617 0.76604443648966558 1 0 0 1 I I #
face $-1 $-1 $489 $68 $-1 $642 forward single #
loop $-1 $-1 $643 $331 #
plane-surface $-1 0 -33.743439555458039 0 0 1 0 0 0 1 forward_v I I I I #
coedge $-1 $644 $645 $646 $647 reversed $332 $-1 #
coedge $-1 $648 $334 $336 $487 forward $210 $-1 #
coedge $-1 $334 $648 $644 $649 forward $210 $-1 #
coedge $-1 $646 $337 $334 $484 forward $489 $-1 #
edge $-1 $491 -31.231007073017828 $650 -16.668422033526305 $483 $651 forward 7 unknown #
coedge $-1 $652 $653 $335 $486 forward $478 $-1 #
edge $-1 $654 -53.512999804582371 $490 -42.729811489659291 $485 $655 forward 7 unknown #
edge $-1 $491 -16.775662784858827 $654 0 $336 $656 forward 7 unknown #
coedge $-1 $337 $646 $652 $657 forward $489 $-1 #
loop $-1 $-1 $646 $477 #
vertex $-1 $486 $658 #
vertex $-1 $338 $659 #
straight-curve $-1 55.180721626289895 -62.252717825190459 11.923121357373233 0 1 0 I I #
coedge $-1 $493 $493 $-1 $660 reversed $341 $-1 #
edge $-1 $661 0 $661 6.2831853071796004 $342 $662 forward 7 unknown #
vertex $-1 $345 $663 #
ellipse-curve $-1 43.530653594696659 -27.317987983074122 6.5315271999116913 0 -0.64278761758704617 0.76604443648966558 1 0 0 1 I I #
coedge $-1 $497 $497 $-1 $664 reversed $348 $-1 #
edge $-1 $665 0 $665 6.2831853071796004 $349 $666 forward 7 unknown #
vertex $-1 $352 $667 #
ellipse-curve $-1 47.899429106544133 -27.317987983074122 6.5315271999116913 0 -0.64278761758704617 0.76604443648966558 1 0 0 1 I I #
coedge $-1 $501 $501 $-1 $668 reversed $355 $-1 #
edge $-1 $669 0 $669 6.2831853071796004 $356 $670 forward 7 unknown #
vertex $-1 $359 $671 #
ellipse-curve $-1 52.268204618391579 -27.317987983074122 6.5315271999116913 0 -0.64278761758704617 0.76604443648966558 1 0 0 1 I I #
face $-1 $-1 $375 $54 $-1 $672 reversed single #
loop $-1 $-1 $521 $360 #
plane-surface $-1 0 33.743439555458039 0 0 -1 0 0 0 -1 forward_v I I I I #
coedge $-1 $673 $519 $522 $674 forward $361 $-1 #
coedge $-1 $525 $363 $364 $513 reversed $229 $-1 #
coedge $-1 $519 $673 $363 $511 reversed $361 $-1 #
edge $-1 $526 -11.923121357373232 $675 11.923121357373232 $510 $676 forward 7 unknown #
coedge $-1 $365 $364 $673 $677 forward $145 $-1 #
edge $-1 $517 -70.600299081392862 $675 70.600299081392862 $509 $678 forward 7 unknown #
coedge $-1 $522 $521 $365 $515 reversed $506 $-1 #
edge $-1 $679 -70.600299081392862 $516 70.600299081392862 $514 $680 forward 7 unknown #
vertex $-1 $367 $681 #
vertex $-1 $528 $682 #
straight-curve $-1 70.600299081392862 0 -11.923121357373232 0 -1 0 I I #
coedge $-1 $508 $510 $368 $520 reversed $361 $-1 #
edge $-1 $523 -33.743439555458039 $526 33.743439555458039 $519 $683 forward 7 unknown #
coedge $-1 $514 $369 $374 $529 forward $506 $-1 #
coedge $-1 $369 $514 $508 $674 reversed $506 $-1 #
vertex $-1 $370 $684 #
straight-curve $-1 0 33.743439555458039 11.923121357373232 -1 0 0 I I #
coedge $-1 $371 $509 $373 $528 reversed $229 $-1 #
vertex $-1 $520 $685 #
straight-curve $-1 0 -33.743439555458039 11.923121357373232 1 0 0 I I #
edge $-1 $376 -11.923121357373232 $517 11.923121357373232 $373 $686 forward 7 unknown #
edge $-1 $377 -11.923121357373232 $516 11.923121357373232 $374 $687 forward 7 unknown #
point $-1 70.600299081392862 -33.743439555458039 11.923121357373232 #
point $-1 70.600299081392862 33.743439555458039 11.923121357373232 #
face $-1 $-1 $545 $55 $-1 $688 reversed single #
loop $-1 $-1 $689 $379 #
plane-surface $-1 -82.13365113815378 0 4.2800931839394476 1 0 0 0 0 -1 forward_v I I I I #
coedge $-1 $690 $537 $385 $542 reversed $380 $-1 #
coedge $-1 $383 $382 $689 $691 reversed $149 $-1 #
coedge $-1 $535 $692 $382 $538 forward $380 $-1 #
edge $-1 $693 -5.7666760283804592 $540 5.7666760283804592 $382 $694 forward 7 unknown #
edge $-1 $390 -5.7666760283804592 $695 5.7666760283804592 $383 $696 forward 7 unknown #
vertex $-1 $384 $697 #
straight-curve $-1 -70.600299081392862 33.743439555458039 0 0 0 -1 I I #
edge $-1 $546 -33.743439555458039 $540 33.743439555458039 $535 $698 forward 7 unknown #
coedge $-1 $699 $386 $389 $549 reversed $545 $-1 #
coedge $-1 $386 $699 $690 $700 reversed $545 $-1 #
loop $-1 $-1 $386 $532 #
vertex $-1 $387 $701 #
straight-curve $-1 -70.600299081392862 -33.743439555458039 0 0 0 1 I I #
coedge $-1 $389 $388 $702 $703 forward $237 $-1 #
edge $-1 $704 -5.7666760283804592 $391 5.7666760283804592 $543 $705 forward 7 unknown #
point $-1 -70.600299081392862 33.743439555458039 6.6045687704452591 #
point $-1 -70.600299081392862 -33.743439555458039 6.6045687704452591 #
plane-surface $-1 0 0 11.923121357373232 0 0 1 1 0 0 forward_v I I I I #
coedge $-1 $563 $562 $555 $706 forward $394 $-1 #
coedge $-1 $555 $396 $398 $559 reversed $245 $-1 #
coedge $-1 $396 $554 $553 $706 reversed $245 $-1 #
coedge $-1 $404 $399 $396 $557 forward $405 $-1 #
edge $-1 $560 -41.360181414500254 $707 -28.50927826973242 $556 $708 forward 7 unknown #
coedge $-1 $398 $397 $563 $709 reversed $153 $-1 #
edge $-1 $710 0 $560 16.775662784858827 $554 $711 forward 7 unknown #
vertex $-1 $400 $712 #
straight-curve $-1 -24.675502736487239 -20.892536410690202 11.923121357373232 -1 0 0 I I #
coedge $-1 $553 $401 $404 $567 reversed $394 $-1 #
coedge $-1 $401 $553 $558 $709 forward $394 $-1 #
vertex $-1 $402 $713 #
straight-curve $-1 -42.069712953228716 -33.743439555458039 54.652932847032524 0 0 1 I I #
straight-curve $-1 -42.069712953228716 -33.743439555458039 1.1399330424501528 0 -0.76604443648966558 -0.64278761758704617 I I #
edge $-1 $707 -56.63229799272024 $406 -42.069712953228716 $562 $714 forward 7 unknown #
point $-1 -42.069712953228716 -33.743439555458039 11.923121357373232 #
point $-1 -42.069712953228716 -20.892536410690205 11.923121357373232 #
edge $-1 $715 1 $715 0 $409 $-1 forward 7 unknown #
vertex $-1 $410 $716 #
ellipse-curve $-1 -53.719780984821938 -25.162206176771722 3.962366541212536 0 -0.64278761758704617 0.76604443648966558 1 0 0 1 I I #
point $-1 -52.719780984821938 -27.317987983074126 6.5315271999116948 #
edge $-1 $717 1 $717 0 $413 $-1 forward 7 unknown #
vertex $-1 $414 $718 #
ellipse-curve $-1 -49.351005472974478 -25.162206176771722 3.962366541212536 0 -0.64278761758704617 0.76604443648966558 1 0 0 1 I I #
point $-1 -48.351005472974478 -27.317987983074126 6.5315271999116948 #
edge $-1 $719 1 $719 0 $417 $-1 forward 7 unknown #
vertex $-1 $418 $720 #
ellipse-curve $-1 -44.982229961127018 -25.162206176771722 3.962366541212536 0 -0.64278761758704617 0.76604443648966558 1 0 0 1 I I #
point $-1 -43.982229961127018 -27.317987983074126 6.5315271999116948 #
plane-surface $-1 0 0 11.923121357373232 0 0 1 1 0 0 forward_v I I I I #
coedge $-1 $593 $592 $585 $721 forward $422 $-1 #
coedge $-1 $585 $424 $426 $589 reversed $274 $-1 #
coedge $-1 $424 $584 $583 $721 reversed $274 $-1 #
coedge $-1 $432 $427 $424 $587 forward $433 $-1 #
edge $-1 $590 -41.360181414500254 $722 -28.50927826973242 $586 $723 forward 7 unknown #
coedge $-1 $426 $425 $593 $724 reversed $172 $-1 #
edge $-1 $725 0 $590 16.775662784858827 $584 $726 forward 7 unknown #
vertex $-1 $428 $727 #
straight-curve $-1 -8.4670969732341383 -20.892536410690202 11.923121357373232 -1 0 0 I I #
coedge $-1 $583 $429 $432 $597 reversed $422 $-1 #
coedge $-1 $429 $583 $588 $724 forward $422 $-1 #
vertex $-1 $430 $728 #
straight-curve $-1 -9.6529014267225151 -33.743439555458039 54.652932847032524 0 0 1 I I #
straight-curve $-1 -9.6529014267225151 -33.743439555458039 1.1399330424501528 0 -0.76604443648966558 -0.64278761758704617 I I #
edge $-1 $722 -24.215486466214038 $434 -9.6529014267225151 $592 $729 forward 7 unknown #
point $-1 -9.6529014267225151 -33.743439555458039 11.923121357373232 #
point $-1 -9.6529014267225151 -20.892536410690205 11.923121357373232 #
edge $-1 $730 1 $730 0 $437 $-1 forward 7 unknown #
vertex $-1 $438 $731 #
ellipse-curve $-1 -21.302969458315729 -25.162206176771722 3.962366541212536 0 -0.64278761758704617 0.76604443648966558 1 0 0 1 I I #
point $-1 -20.302969458315729 -27.317987983074126 6.5315271999116948 #
edge $-1 $732 1 $732 0 $441 $-1 forward 7 unknown #
vertex $-1 $442 $733 #
ellipse-curve $-1 -16.934193946468277 -25.162206176771722 3.962366541212536 0 -0.64278761758704617 0.76604443648966558 1 0 0 1 I I #
point $-1 -15.934193946468277 -27.317987983074126 6.5315271999116948 #
edge $-1 $734 1 $734 0 $445 $-1 forward 7 unknown #
vertex $-1 $446 $735 #
ellipse-curve $-1 -12.565418434620824 -25.162206176771722 3.962366541212536 0 -0.64278761758704617 0.76604443648966558 1 0 0 1 I I #
point $-1 -11.565418434620824 -27.317987983074126 6.5315271999116948 #
plane-surface $-1 0 0 11.923121357373232 0 0 1 1 0 0 forward_v I I I I #
coedge $-1 $623 $622 $615 $736 forward $450 $-1 #
coedge $-1 $615 $452 $454 $619 reversed $303 $-1 #
coedge $-1 $452 $614 $613 $736 reversed $303 $-1 #
coedge $-1 $460 $455 $452 $617 forward $461 $-1 #
edge $-1 $620 -41.360181414500254 $737 -28.50927826973242 $616 $738 forward 7 unknown #
coedge $-1 $454 $453 $623 $739 reversed $191 $-1 #
edge $-1 $740 0 $620 16.775662784858827 $614 $741 forward 7 unknown #
vertex $-1 $456 $742 #
straight-curve $-1 7.7413087900189623 -20.892536410690202 11.923121357373232 -1 0 0 I I #
coedge $-1 $613 $457 $460 $627 reversed $450 $-1 #
coedge $-1 $457 $613 $618 $739 forward $450 $-1 #
vertex $-1 $458 $743 #
straight-curve $-1 22.763910099783686 -33.743439555458039 54.652932847032524 0 0 1 I I #
straight-curve $-1 22.763910099783686 -33.743439555458039 1.1399330424501528 0 -0.76604443648966558 -0.64278761758704617 I I #
edge $-1 $737 8.201325060292163 $462 22.763910099783686 $622 $744 forward 7 unknown #
point $-1 22.763910099783686 -33.743439555458039 11.923121357373232 #
point $-1 22.763910099783686 -20.892536410690205 11.923121357373232 #
edge $-1 $745 1 $745 0 $465 $-1 forward 7 unknown #
vertex $-1 $466 $746 #
ellipse-curve $-1 11.113842068190465 -25.162206176771722 3.962366541212536 0 -0.64278761758704617 0.76604443648966558 1 0 0 1 I I #
point $-1 12.113842068190465 -27.317987983074126 6.5315271999116948 #
edge $-1 $747 1 $747 0 $469 $-1 forward 7 unknown #
vertex $-1 $470 $748 #
ellipse-curve $-1 15.482617580037925 -25.162206176771722 3.962366541212536 0 -0.64278761758704617 0.76604443648966558 1 0 0 1 I I #
point $-1 16.482617580037925 -27.317987983074126 6.5315271999116948 #
edge $-1 $749 1 $749 0 $473 $-1 forward 7 unknown #
vertex $-1 $474 $750 #
ellipse-curve $-1 19.851393091885384 -25.162206176771722 3.962366541212536 0 -0.64278761758704617 0.76604443648966558 1 0 0 1 I I #
point $-1 20.851393091885384 -27.317987983074126 6.5315271999116948 #
plane-surface $-1 0 0 11.923121357373232 0 0 1 1 0 0 forward_v I I I I #
coedge $-1 $653 $652 $645 $751 forward $478 $-1 #
coedge $-1 $645 $480 $482 $649 reversed $332 $-1 #
coedge $-1 $480 $644 $643 $751 reversed $332 $-1 #
coedge $-1 $488 $483 $480 $647 forward $489 $-1 #
edge $-1 $650 -41.360181414500254 $752 -28.50927826973242 $646 $753 forward 7 unknown #
coedge $-1 $482 $481 $653 $754 reversed $210 $-1 #
edge $-1 $755 0 $650 16.775662784858827 $644 $756 forward 7 unknown #
vertex $-1 $484 $757 #
straight-curve $-1 23.949714553272067 -20.892536410690202 11.923121357373232 -1 0 0 I I #
coedge $-1 $643 $485 $488 $657 reversed $478 $-1 #
coedge $-1 $485 $643 $648 $754 forward $478 $-1 #
vertex $-1 $486 $758 #
straight-curve $-1 55.180721626289895 -33.743439555458039 54.652932847032524 0 0 1 I I #
straight-curve $-1 55.180721626289895 -33.743439555458039 1.1399330424501528 0 -0.76604443648966558 -0.64278761758704617 I I #
edge $-1 $752 40.618136586798371 $490 55.180721626289895 $652 $759 forward 7 unknown #
point $-1 55.180721626289895 -33.743439555458039 11.923121357373232 #
point $-1 55.180721626289895 -20.892536410690205 11.923121357373232 #
edge $-1 $760 1 $760 0 $493 $-1 forward 7 unknown #
vertex $-1 $494 $761 #
ellipse-curve $-1 43.530653594696659 -25.162206176771722 3.962366541212536 0 -0.64278761758704617 0.76604443648966558 1 0 0 1 I I #
point $-1 44.530653594696659 -27.317987983074126 6.5315271999116948 #
edge $-1 $762 1 $762 0 $497 $-1 forward 7 unknown #
vertex $-1 $498 $763 #
ellipse-curve $-1 47.899429106544133 -25.162206176771722 3.962366541212536 0 -0.64278761758704617 0.76604443648966558 1 0 0 1 I I #
point $-1 48.899429106544133 -27.317987983074126 6.5315271999116948 #
edge $-1 $764 1 $764 0 $501 $-1 forward 7 unknown #
vertex $-1 $502 $765 #
ellipse-curve $-1 52.268204618391579 -25.162206176771722 3.962366541212536 0 -0.64278761758704617 0.76604443648966558 1 0 0 1 I I #
point $-1 53.268204618391579 -27.317987983074126 6.5315271999116948 #
plane-surface $-1 70.600299081392862 0 0 -1 0 0 0 0 1 forward_v I I I I #
coedge $-1 $510 $508 $512 $677 reversed $361 $-1 #
edge $-1 $523 -11.923121357373232 $679 11.923121357373232 $522 $766 forward 7 unknown #
vertex $-1 $677 $767 #
straight-curve $-1 -70.600299081392862 -33.743439555458039 0 0 0 -1 I I #
edge $-1 $675 -33.743439555458039 $679 33.743439555458039 $673 $768 forward 7 unknown #
straight-curve $-1 0 -33.743439555458039 -11.923121357373232 -1 0 0 I I #
vertex $-1 $515 $769 #
straight-curve $-1 0 33.743439555458039 -11.923121357373232 1 0 0 I I #
point $-1 70.600299081392862 33.743439555458039 -11.923121357373232 #
point $-1 70.600299081392862 -33.743439555458039 -11.923121357373232 #
straight-curve $-1 -70.600299081392862 0 11.923121357373232 0 -1 0 I I #
point $-1 -70.600299081392862 33.743439555458039 11.923121357373232 #
point $-1 -70.600299081392862 -33.743439555458039 11.923121357373232 #
straight-curve $-1 70.600299081392862 -33.743439555458039 0 0 0 -1 I I #
straight-curve $-1 70.600299081392862 33.743439555458039 0 0 0 -1 I I #
plane-surface $-1 0 -33.743439555458039 0 0 1 0 0 0 1 forward_v I I I I #
coedge $-1 $770 $702 $536 $691 forward $533 $-1 #
coedge $-1 $692 $535 $544 $700 forward $380 $-1 #
edge $-1 $695 -2.3244755865058115 $693 2.3244755865058115 $536 $771 forward 7 unknown #
coedge $-1 $537 $690 $770 $772 forward $380 $-1 #
vertex $-1 $538 $773 #
straight-curve $-1 -76.366975109773321 33.743439555458039 1.9556175974336361 1 0 0 I I #
vertex $-1 $539 $774 #
straight-curve $-1 -76.366975109773321 33.743439555458039 6.6045687704452591 -1 0 0 I I #
point $-1 -70.600299081392862 33.743439555458039 1.9556175974336361 #
straight-curve $-1 -70.600299081392862 0 1.9556175974336361 0 1 0 I I #
coedge $-1 $544 $543 $775 $776 forward $545 $-1 #
edge $-1 $546 -5.7666760283804592 $777 5.7666760283804592 $544 $778 forward 7 unknown #
point $-1 -70.600299081392862 -33.743439555458039 1.9556175974336361 #
coedge $-1 $689 $775 $548 $703 reversed $533 $-1 #
edge $-1 $695 -33.743439555458039 $704 33.743439555458039 $702 $779 forward 7 unknown #
vertex $-1 $703 $780 #
straight-curve $-1 -76.366975109773321 -33.743439555458039 6.6045687704452591 1 0 0 I I #
edge $-1 $707 42.729811489659291 $710 53.512999804582371 $553 $781 forward 7 unknown #
vertex $-1 $567 $782 #
straight-curve $-1 -56.63229799272024 -62.252717825190459 11.923121357373233 0 -1 0 I I #
edge $-1 $710 -31.956795256233001 $564 -17.394210216741477 $563 $783 forward 7 unknown #
vertex $-1 $709 $784 #
straight-curve $-1 -56.63229799272024 -33.743439555458039 1.1399330424501528 0 0.76604443648966558 0.64278761758704617 I I #
point $-1 -56.63229799272024 -20.892536410690205 11.923121357373232 #
point $-1 -42.069712953228716 -33.743439555458039 1.1399330424501528 #
straight-curve $-1 0 -33.743439555458039 11.923121357373232 1 0 0 I I #
vertex $-1 $570 $785 #
point $-1 -52.719780984821938 -25.162206176771722 3.962366541212536 #
vertex $-1 $574 $786 #
point $-1 -48.351005472974478 -25.162206176771722 3.962366541212536 #
vertex $-1 $578 $787 #
point $-1 -43.982229961127018 -25.162206176771722 3.962366541212536 #
edge $-1 $722 42.729811489659291 $725 53.512999804582371 $583 $788 forward 7 unknown #
vertex $-1 $597 $789 #
straight-curve $-1 -24.215486466214038 -62.252717825190459 11.923121357373233 0 -1 0 I I #
edge $-1 $725 -15.7483894929799 $594 -1.1858044534883767 $593 $790 forward 7 unknown #
vertex $-1 $724 $791 #
straight-curve $-1 -24.215486466214038 -33.743439555458039 1.1399330424501528 0 0.76604443648966558 0.64278761758704617 I I #
point $-1 -24.215486466214038 -20.892536410690205 11.923121357373232 #
point $-1 -9.6529014267225151 -33.743439555458039 1.1399330424501528 #
straight-curve $-1 0 -33.743439555458039 11.923121357373232 1 0 0 I I #
vertex $-1 $600 $792 #
point $-1 -20.302969458315729 -25.162206176771722 3.962366541212536 #
vertex $-1 $604 $793 #
point $-1 -15.934193946468277 -25.162206176771722 3.962366541212536 #
vertex $-1 $608 $794 #
point $-1 -11.565418434620824 -25.162206176771722 3.962366541212536 #
edge $-1 $737 42.729811489659291 $740 53.512999804582371 $613 $795 forward 7 unknown #
vertex $-1 $627 $796 #
straight-curve $-1 8.201325060292163 -62.252717825190459 11.923121357373233 0 -1 0 I I #
edge $-1 $740 0.46001627027320069 $624 15.022601309764724 $623 $797 forward 7 unknown #
vertex $-1 $739 $798 #
straight-curve $-1 8.201325060292163 -33.743439555458039 1.1399330424501528 0 0.76604443648966558 0.64278761758704617 I I #
point $-1 8.201325060292163 -20.892536410690205 11.923121357373232 #
point $-1 22.763910099783686 -33.743439555458039 1.1399330424501528 #
straight-curve $-1 0 -33.743439555458039 11.923121357373232 1 0 0 I I #
vertex $-1 $630 $799 #
point $-1 12.113842068190465 -25.162206176771722 3.962366541212536 #
vertex $-1 $634 $800 #
point $-1 16.482617580037925 -25.162206176771722 3.962366541212536 #
vertex $-1 $638 $801 #
point $-1 20.851393091885384 -25.162206176771722 3.962366541212536 #
edge $-1 $752 42.729811489659291 $755 53.512999804582371 $643 $802 forward 7 unknown #
vertex $-1 $657 $803 #
straight-curve $-1 40.618136586798371 -62.252717825190459 11.923121357373233 0 -1 0 I I #
edge $-1 $755 16.668422033526305 $654 31.231007073017828 $653 $804 forward 7 unknown #
vertex $-1 $754 $805 #
straight-curve $-1 40.618136586798371 -33.743439555458039 1.1399330424501528 0 0.76604443648966558 0.64278761758704617 I I #
point $-1 40.618136586798371 -20.892536410690205 11.923121357373232 #
point $-1 55.180721626289895 -33.743439555458039 1.1399330424501528 #
straight-curve $-1 0 -33.743439555458039 11.923121357373232 1 0 0 I I #
vertex $-1 $660 $806 #
point $-1 44.530653594696659 -25.162206176771722 3.962366541212536 #
vertex $-1 $664 $807 #
point $-1 48.899429106544133 -25.162206176771722 3.962366541212536 #
vertex $-1 $668 $808 #
point $-1 53.268204618391579 -25.162206176771722 3.962366541212536 #
straight-curve $-1 -70.600299081392862 33.743439555458039 0 0 0 -1 I I #
point $-1 -70.600299081392862 -33.743439555458039 -11.923121357373232 #
straight-curve $-1 -70.600299081392862 0 -11.923121357373232 0 1 0 I I #
point $-1 -70.600299081392862 33.743439555458039 -11.923121357373232 #
coedge $-1 $775 $689 $692 $772 reversed $533 $-1 #
straight-curve $-1 -82.13365113815378 33.743439555458039 4.2800931839394476 0 0 -1 I I #
edge $-1 $777 -33.743439555458039 $693 33.743439555458039 $770 $809 forward 7 unknown #
point $-1 -82.13365113815378 33.743439555458039 1.9556175974336361 #
point $-1 -82.13365113815378 33.743439555458039 6.6045687704452591 #
coedge $-1 $702 $770 $699 $776 reversed $533 $-1 #
edge $-1 $704 -2.3244755865058115 $777 2.3244755865058115 $775 $810 forward 7 unknown #
vertex $-1 $772 $811 #
straight-curve $-1 -76.366975109773321 -33.743439555458039 1.9556175974336361 -1 0 0 I I #
straight-curve $-1 -82.13365113815378 0 6.6045687704452591 0 -1 0 I I #
point $-1 -82.13365113815378 -33.743439555458039 6.6045687704452591 #
straight-curve $-1 -56.63229799272024 -33.743439555458039 54.652932847032524 0 0 -1 I I #
point $-1 -56.63229799272024 -33.743439555458039 11.923121357373232 #
straight-curve $-1 -24.675502736487239 -33.743439555458039 1.1399330424501521 1 0 0 I I #
point $-1 -56.63229799272024 -33.743439555458039 1.1399330424501528 #
point $-1 -53.719780984821938 -24.519418559184675 3.1963221047228703 #
point $-1 -49.351005472974478 -24.519418559184675 3.1963221047228703 #
point $-1 -44.982229961127018 -24.519418559184675 3.1963221047228703 #
straight-curve $-1 -24.215486466214038 -33.743439555458039 54.652932847032524 0 0 -1 I I #
point $-1 -24.215486466214038 -33.743439555458039 11.923121357373232 #
straight-curve $-1 -8.4670969732341383 -33.743439555458039 1.1399330424501521 1 0 0 I I #
point $-1 -24.215486466214038 -33.743439555458039 1.1399330424501528 #
point $-1 -21.302969458315729 -24.519418559184675 3.1963221047228703 #
point $-1 -16.934193946468277 -24.519418559184675 3.1963221047228703 #
point $-1 -12.565418434620824 -24.519418559184675 3.1963221047228703 #
straight-curve $-1 8.201325060292163 -33.743439555458039 54.652932847032524 0 0 -1 I I #
point $-1 8.201325060292163 -33.743439555458039 11.923121357373232 #
straight-curve $-1 7.7413087900189623 -33.743439555458039 1.1399330424501521 1 0 0 I I #
point $-1 8.201325060292163 -33.743439555458039 1.1399330424501528 #
point $-1 11.113842068190465 -24.519418559184675 3.1963221047228703 #
point $-1 15.482617580037925 -24.519418559184675 3.1963221047228703 #
point $-1 19.851393091885384 -24.519418559184675 3.1963221047228703 #
straight-curve $-1 40.618136586798371 -33.743439555458039 54.652932847032524 0 0 -1 I I #
point $-1 40.618136586798371 -33.743439555458039 11.923121357373232 #
straight-curve $-1 23.949714553272067 -33.743439555458039 1.1399330424501521 1 0 0 I I #
point $-1 40.618136586798371 -33.743439555458039 1.1399330424501528 #
point $-1 43.530653594696659 -24.519418559184675 3.1963221047228703 #
point $-1 47.899429106544133 -24.519418559184675 3.1963221047228703 #
point $-1 52.268204618391579 -24.519418559184675 3.1963221047228703 #
straight-curve $-1 -82.13365113815378 0 1.9556175974336361 0 1 0 I I #
straight-curve $-1 -82.13365113815378 -33.743439555458039 4.2800931839394476 0 0 -1 I I #
point $-1 -82.13365113815378 -33.743439555458039 1.9556175974336361 #
End-of-ACIS-data 