500 0 8 0           
7 Unknown 11 ACIS 5.0 NT 24 Fri Mar 26 19:21:25 1999 
-1 9.9999999999999995e-007 1e-010 
body $-1 $8 $-1 $9 #
body $-1 $10 $-1 $11 #
body $-1 $12 $-1 $13 #
body $-1 $14 $-1 $15 #
body $-1 $16 $-1 $17 #
body $-1 $18 $-1 $19 #
body $-1 $20 $-1 $21 #
body $-1 $22 $-1 $23 #
lump $-1 $-1 $24 $0 #
transform $-1 1 0 0 0 1 0 0 0 1 76.140018921475871 32.331914342945872 8.58201315340958 1 rotate no_reflect no_shear #
lump $-1 $-1 $25 $1 #
transform $-1 1 0 0 0 1 0 0 0 1 76.140018921475871 32.331914342945872 8.58201315340958 1 rotate no_reflect no_shear #
lump $-1 $-1 $26 $2 #
transform $-1 1 0 0 0 1 0 0 0 1 76.140018921475871 32.331914342945872 8.58201315340958 1 rotate no_reflect no_shear #
lump $-1 $-1 $27 $3 #
transform $-1 1 0 0 0 1 0 0 0 1 76.140018921475871 32.331914342945872 8.58201315340958 1 rotate no_reflect no_shear #
lump $-1 $-1 $28 $4 #
transform $-1 1 0 0 0 1 0 0 0 1 76.140018921475871 32.331914342945872 8.58201315340958 1 rotate no_reflect no_shear #
lump $-1 $-1 $29 $5 #
transform $-1 1 0 0 0 1 0 0 0 1 76.140018921475871 32.331914342945872 8.58201315340958 1 rotate no_reflect no_shear #
lump $-1 $-1 $30 $6 #
transform $-1 1 0 0 0 1 0 0 0 1 76.140018921475871 32.331914342945872 8.58201315340958 1 rotate no_reflect no_shear #
lump $-1 $-1 $31 $7 #
transform $-1 1 0 0 0 1 0 0 0 1 76.140018921475871 32.331914342945872 8.58201315340958 1 rotate no_reflect no_shear #
shell $-1 $-1 $-1 $32 $-1 $8 #
shell $-1 $-1 $-1 $33 $-1 $10 #
shell $-1 $-1 $-1 $34 $-1 $12 #
shell $-1 $-1 $-1 $35 $-1 $14 #
shell $-1 $-1 $-1 $36 $-1 $16 #
shell $-1 $-1 $-1 $37 $-1 $18 #
shell $-1 $-1 $-1 $38 $-1 $20 #
shell $-1 $-1 $-1 $39 $-1 $22 #
face $-1 $40 $41 $24 $-1 $42 forward single #
face $-1 $43 $44 $25 $-1 $45 reversed single #
face $-1 $46 $47 $26 $-1 $48 reversed single #
face $-1 $49 $50 $27 $-1 $51 forward single #
face $-1 $52 $53 $28 $-1 $54 forward single #
face $-1 $55 $56 $29 $-1 $57 reversed single #
face $-1 $58 $59 $30 $-1 $60 forward single #
face $-1 $61 $62 $31 $-1 $63 forward single #
face $-1 $64 $65 $24 $-1 $66 reversed single #
loop $-1 $-1 $67 $32 #
plane-surface $-1 0 0 8.58201315340958 0 0 1 1 0 0 forward_v I I I I #
face $-1 $68 $69 $25 $-1 $70 reversed single #
loop $-1 $-1 $71 $33 #
plane-surface $-1 0 -29.49207126790327 4.1709731092464439 0 0 1 1 0 0 forward_v I I I I #
face $-1 $72 $73 $26 $-1 $74 reversed single #
loop $-1 $-1 $75 $34 #
plane-surface $-1 -189.30614232902823 1.6401477964038982 107.26328028108881 0 1 0 -0.74314483375859142 0 0.66913059716165679 forward_v I I I I #
face $-1 $76 $77 $27 $-1 $78 forward single #
loop $-1 $79 $80 $35 #
cone-surface $-1 -74.298130017393675 4.4974997149731664 6.6194111744486479 0.74314483375859142 0 -0.66913059716165679 0.3345652985808284 0 0.37157241687929571 1 I I 0 1 0.5 forward I I I I #
face $-1 $81 $82 $28 $-1 $83 forward single #
loop $-1 $84 $85 $36 #
cone-surface $-1 -74.298130017393675 8.7835275928270633 6.6194111744486479 0.74314483375859142 0 -0.66913059716165679 0.3345652985808284 0 0.37157241687929571 1 I I 0 1 0.5 forward I I I I #
face $-1 $86 $87 $29 $-1 $88 reversed single #
loop $-1 $-1 $89 $37 #
plane-surface $-1 120.91515497897575 6.4644250343513345 212.29333896168103 0 -1 0 -0.83867057594974714 0 -0.54463902268945019 forward_v I I I I #
face $-1 $90 $91 $30 $-1 $92 forward single #
loop $-1 $93 $94 $38 #
cone-surface $-1 73.259747608291178 -3.8239419812800151 4.7052036167546811 -0.83867057594974714 0 -0.54463902268945019 0.54463902268945019 0 -0.83867057594974714 1 I I 0 1 1 forward I I I I #
face $-1 $95 $96 $31 $-1 $97 forward single #
loop $-1 $98 $99 $39 #
cone-surface $-1 73.259747608291178 2.3490782280987972 4.7052036167546811 -0.83867057594974714 0 -0.54463902268945019 0.54463902268945019 0 -0.83867057594974714 1 I I 0 1 1 forward I I I I #
face $-1 $100 $101 $24 $-1 $102 reversed single #
loop $-1 $-1 $103 $40 #
plane-surface $-1 0 0 -8.58201315340958 0 0 1 1 0 0 forward_v I I I I #
coedge $-1 $104 $105 $106 $107 forward $41 $-1 #
face $-1 $108 $109 $25 $-1 $110 reversed single #
loop $-1 $-1 $111 $43 #
plane-surface $-1 0 -26.652228192860669 6.3764931313280115 0 -1 0 0 0 -1 forward_v I I I I #
coedge $-1 $112 $113 $114 $115 reversed $44 $-1 #
face $-1 $116 $117 $26 $-1 $118 reversed single #
loop $-1 $-1 $119 $46 #
plane-surface $-1 -76.140018921475857 6.6405136539001077 5.3680476234348191 -0.74314483375859142 0 0.66913059716165679 0.66913059716165679 0 0.74314483375859142 forward_v I I I I #
coedge $-1 $120 $121 $122 $123 reversed $47 $-1 #
face $-1 $-1 $124 $27 $-1 $125 forward single #
loop $-1 $126 $127 $49 #
cone-surface $-1 -73.717388649571447 4.4974997149731664 6.096509311184672 0.74314483375859142 0 -0.66913059716165679 0.1672826492904142 0 0.18578620843964785 1 I I -0.70710678118654746 0.70710678118654746 0.25 forward I I I I #
loop $-1 $-1 $128 $35 #
coedge $-1 $80 $80 $129 $130 reversed $50 $-1 #
face $-1 $-1 $131 $28 $-1 $132 forward single #
loop $-1 $133 $134 $52 #
cone-surface $-1 -73.717388649571447 8.7835275928270633 6.096509311184672 0.74314483375859142 0 -0.66913059716165679 0.1672826492904142 0 0.18578620843964785 1 I I -0.70710678118654746 0.70710678118654746 0.25 forward I I I I #
loop $-1 $-1 $135 $36 #
coedge $-1 $85 $85 $136 $137 reversed $53 $-1 #
face $-1 $138 $139 $29 $-1 $140 reversed single #
loop $-1 $-1 $141 $55 #
plane-surface $-1 -6.797632064421876 -0.73743187659061249 129.3556879757833 0.83867057594974714 0 0.54463902268945019 0.54463902268945019 0 -0.83867057594974714 forward_v I I I I #
coedge $-1 $142 $143 $144 $145 reversed $56 $-1 #
face $-1 $-1 $146 $30 $-1 $147 forward single #
loop $-1 $148 $149 $58 #
cone-surface $-1 72.21329701782804 -3.8239419812800151 4.0256306792670209 -0.83867057594974714 0 -0.54463902268945019 0.2723195113447251 0 -0.41933528797487357 1 I I -0.70710678118654746 0.70710678118654746 0.5 forward I I I I #
loop $-1 $-1 $150 $38 #
coedge $-1 $94 $94 $151 $152 reversed $59 $-1 #
face $-1 $-1 $153 $31 $-1 $154 forward single #
loop $-1 $155 $156 $61 #
cone-surface $-1 72.21329701782804 2.3490782280987972 4.0256306792670209 -0.83867057594974714 0 -0.54463902268945019 0.2723195113447251 0 -0.41933528797487357 1 I I -0.70710678118654746 0.70710678118654746 0.5 forward I I I I #
loop $-1 $-1 $157 $39 #
coedge $-1 $99 $99 $158 $159 reversed $62 $-1 #
face $-1 $160 $161 $24 $-1 $162 reversed single #
loop $-1 $-1 $163 $64 #
plane-surface $-1 0 -32.331914342945872 0 0 1 0 0 0 1 forward_v I I I I #
coedge $-1 $164 $165 $166 $167 forward $65 $-1 #
coedge $-1 $168 $67 $169 $170 forward $41 $-1 #
coedge $-1 $67 $168 $171 $172 forward $41 $-1 #
coedge $-1 $173 $174 $67 $107 reversed $175 $-1 #
edge $-1 $176 -32.331914342945872 $177 32.331914342945872 $106 $178 forward 7 unknown #
face $-1 $179 $180 $25 $-1 $181 reversed single #
loop $-1 $-1 $182 $68 #
plane-surface $-1 -76.140018921475871 0 0 1 0 0 0 0 -1 forward_v I I I I #
coedge $-1 $183 $184 $185 $186 reversed $69 $-1 #
coedge $-1 $187 $71 $188 $189 reversed $44 $-1 #
coedge $-1 $71 $187 $183 $190 forward $44 $-1 #
coedge $-1 $185 $191 $71 $115 forward $192 $-1 #
edge $-1 $193 -17.585878708994237 $194 -11.906192558909034 $114 $195 forward 7 unknown #
face $-1 $196 $197 $26 $-1 $198 forward single #
loop $-1 $-1 $199 $72 #
plane-surface $-1 -189.30614232902823 11.640879511396317 107.26328028108881 0 -1 0 0.74314483375859142 0 -0.66913059716165679 forward_v I I I I #
coedge $-1 $200 $201 $202 $203 reversed $73 $-1 #
coedge $-1 $121 $75 $204 $205 reversed $47 $-1 #
coedge $-1 $75 $120 $200 $206 reversed $47 $-1 #
coedge $-1 $202 $207 $75 $123 forward $197 $-1 #
edge $-1 $208 18.513052243038246 $209 21.406919732437501 $122 $210 forward 7 unknown #
loop $-1 $-1 $129 $76 #
plane-surface $-1 -76.140018921475857 6.6405136539001077 5.3680476234348191 -0.74314483375859142 0 0.66913059716165679 0.66913059716165679 0 0.74314483375859142 forward_v I I I I #
loop $-1 $-1 $211 $49 #
coedge $-1 $127 $127 $128 $212 reversed $77 $-1 #
coedge $-1 $128 $128 $127 $212 forward $79 $-1 #
coedge $-1 $129 $129 $80 $130 forward $124 $-1 #
edge $-1 $213 0 $213 6.2831853071796004 $129 $214 forward 7 unknown #
loop $-1 $-1 $136 $81 #
plane-surface $-1 -76.140018921475857 6.6405136539001077 5.3680476234348191 -0.74314483375859142 0 0.66913059716165679 0.66913059716165679 0 0.74314483375859142 forward_v I I I I #
loop $-1 $-1 $215 $52 #
coedge $-1 $134 $134 $135 $216 reversed $82 $-1 #
coedge $-1 $135 $135 $134 $216 forward $84 $-1 #
coedge $-1 $136 $136 $85 $137 forward $131 $-1 #
edge $-1 $217 0 $217 6.2831853071796004 $136 $218 forward 7 unknown #
face $-1 $219 $220 $29 $-1 $221 reversed single #
loop $-1 $-1 $222 $86 #
plane-surface $-1 120.91515497897575 -7.9392887875325595 212.29333896168103 0 1 0 0.83867057594974714 0 0.54463902268945019 forward_v I I I I #
coedge $-1 $223 $224 $225 $226 reversed $87 $-1 #
coedge $-1 $143 $89 $227 $228 reversed $56 $-1 #
coedge $-1 $89 $142 $223 $229 reversed $56 $-1 #
coedge $-1 $225 $230 $89 $145 forward $231 $-1 #
edge $-1 $232 -15.682441431987996 $233 -11.176129410595038 $144 $234 forward 7 unknown #
loop $-1 $-1 $151 $90 #
plane-surface $-1 -6.797632064421876 -0.73743187659061249 129.3556879757833 0.83867057594974714 0 0.54463902268945019 0.54463902268945019 0 -0.83867057594974714 forward_v I I I I #
loop $-1 $-1 $235 $58 #
coedge $-1 $149 $149 $150 $236 reversed $91 $-1 #
coedge $-1 $150 $150 $149 $236 forward $93 $-1 #
coedge $-1 $151 $151 $94 $152 forward $146 $-1 #
edge $-1 $237 0 $237 6.2831853071796004 $151 $238 forward 7 unknown #
loop $-1 $-1 $158 $95 #
plane-surface $-1 -6.797632064421876 -0.73743187659061249 129.3556879757833 0.83867057594974714 0 0.54463902268945019 0.54463902268945019 0 -0.83867057594974714 forward_v I I I I #
loop $-1 $-1 $239 $61 #
coedge $-1 $156 $156 $157 $240 reversed $96 $-1 #
coedge $-1 $157 $157 $156 $240 forward $98 $-1 #
coedge $-1 $158 $158 $99 $159 forward $153 $-1 #
edge $-1 $241 0 $241 6.2831853071796004 $158 $242 forward 7 unknown #
face $-1 $243 $244 $24 $-1 $245 reversed single #
loop $-1 $-1 $246 $100 #
plane-surface $-1 -76.140018921475871 0 0 1 0 0 0 0 -1 forward_v I I I I #
coedge $-1 $247 $171 $248 $249 forward $101 $-1 #
coedge $-1 $250 $103 $247 $251 forward $65 $-1 #
coedge $-1 $103 $250 $252 $253 forward $65 $-1 #
coedge $-1 $174 $173 $103 $167 reversed $175 $-1 #
edge $-1 $254 -32.331914342945872 $255 32.331914342945872 $166 $256 forward 7 unknown #
coedge $-1 $105 $104 $257 $258 forward $41 $-1 #
coedge $-1 $259 $260 $104 $170 reversed $244 $-1 #
edge $-1 $177 -76.140018921475871 $261 76.140018921475871 $169 $262 forward 7 unknown #
coedge $-1 $163 $263 $105 $172 reversed $101 $-1 #
edge $-1 $264 -76.140018921475871 $176 76.140018921475871 $171 $265 forward 7 unknown #
coedge $-1 $166 $106 $263 $266 forward $175 $-1 #
coedge $-1 $106 $166 $259 $267 reversed $175 $-1 #
loop $-1 $-1 $173 $243 #
vertex $-1 $107 $268 #
vertex $-1 $107 $269 #
straight-curve $-1 76.140018921475871 0 8.58201315340958 0 1 0 I I #
face $-1 $270 $271 $25 $-1 $272 forward single #
loop $-1 $-1 $188 $108 #
plane-surface $-1 0 -32.331914342945872 0 0 1 0 0 0 1 forward_v I I I I #
coedge $-1 $273 $274 $275 $276 forward $109 $-1 #
coedge $-1 $275 $111 $113 $190 reversed $69 $-1 #
coedge $-1 $111 $275 $277 $278 reversed $69 $-1 #
coedge $-1 $279 $114 $111 $186 forward $192 $-1 #
edge $-1 $194 0.98272654358243816 $280 5.3937665877455743 $185 $281 forward 7 unknown #
coedge $-1 $113 $112 $273 $282 reversed $44 $-1 #
coedge $-1 $283 $284 $112 $189 forward $180 $-1 #
edge $-1 $285 -76.140018921475871 $193 76.140018921475871 $188 $286 forward 7 unknown #
edge $-1 $287 -76.140018921475871 $194 76.140018921475871 $183 $288 forward 7 unknown #
coedge $-1 $114 $279 $283 $289 forward $192 $-1 #
loop $-1 $-1 $185 $270 #
vertex $-1 $189 $290 #
vertex $-1 $115 $291 #
straight-curve $-1 76.140018921475871 -14.746035633951635 4.1709731092464439 0 1 0 I I #
face $-1 $-1 $292 $26 $-1 $293 reversed single #
loop $-1 $-1 $122 $116 #
plane-surface $-1 0 0 8.58201315340958 0 0 1 1 0 0 forward_v I I I I #
coedge $-1 $294 $295 $296 $297 reversed $117 $-1 #
coedge $-1 $298 $119 $121 $206 forward $73 $-1 #
coedge $-1 $119 $298 $294 $299 forward $73 $-1 #
coedge $-1 $296 $122 $119 $203 forward $197 $-1 #
edge $-1 $209 -1.6801090305461557 $300 8.3206226844462634 $202 $301 forward 7 unknown #
coedge $-1 $302 $303 $120 $205 forward $292 $-1 #
edge $-1 $304 -48.263592517109601 $208 -45.049626987134829 $204 $305 forward 7 unknown #
edge $-1 $209 -4.3248171607673562 $304 2.1389731374768986e-014 $121 $306 forward 7 unknown #
coedge $-1 $122 $296 $302 $307 forward $197 $-1 #
vertex $-1 $205 $308 #
vertex $-1 $123 $309 #
straight-curve $-1 -94.653071164514117 1.6401477964038982 8.5820131534095765 1 0 0 I I #
coedge $-1 $211 $211 $-1 $310 reversed $126 $-1 #
edge $-1 $311 0 $311 6.2831853071796004 $127 $312 forward 7 unknown #
vertex $-1 $130 $313 #
ellipse-curve $-1 -74.693085176776236 4.4974997149731664 6.9750303884221951 -0.74314483375859142 0 0.66913059716165679 0.3345652985808284 0 0.37157241687929571 1 I I #
coedge $-1 $215 $215 $-1 $314 reversed $133 $-1 #
edge $-1 $315 0 $315 6.2831853071796004 $134 $316 forward 7 unknown #
vertex $-1 $137 $317 #
ellipse-curve $-1 -74.693085176776236 8.7835275928270633 6.9750303884221951 -0.74314483375859142 0 0.66913059716165679 0.3345652985808284 0 0.37157241687929571 1 I I #
face $-1 $-1 $231 $29 $-1 $318 forward single #
loop $-1 $-1 $319 $138 #
plane-surface $-1 76.140018921475871 0 0 -1 0 0 0 0 1 forward_v I I I I #
coedge $-1 $320 $321 $322 $323 reversed $139 $-1 #
coedge $-1 $324 $141 $143 $229 forward $87 $-1 #
coedge $-1 $141 $324 $320 $325 forward $87 $-1 #
coedge $-1 $322 $144 $141 $226 forward $231 $-1 #
edge $-1 $233 -6.8331409726466408 $326 7.5705728492372533 $225 $327 forward 7 unknown #
coedge $-1 $328 $329 $142 $228 forward $220 $-1 #
edge $-1 $330 -104.50376854845487 $232 -97.564656327430939 $227 $331 forward 7 unknown #
edge $-1 $233 144.00609522470052 $330 152.28003784295177 $143 $332 forward 7 unknown #
coedge $-1 $144 $322 $328 $333 forward $231 $-1 #
loop $-1 $-1 $322 $219 #
vertex $-1 $228 $334 #
vertex $-1 $145 $335 #
straight-curve $-1 60.457577489487875 6.4644250343513345 8.5820131534095765 -1 0 0 I I #
coedge $-1 $235 $235 $-1 $336 reversed $148 $-1 #
edge $-1 $337 0 $337 6.2831853071796004 $149 $338 forward 7 unknown #
vertex $-1 $152 $339 #
ellipse-curve $-1 73.886862910779399 -3.8239419812800151 5.1124570428975975 0.83867057594974714 0 0.54463902268945019 0.54463902268945019 0 -0.83867057594974714 1 I I #
coedge $-1 $239 $239 $-1 $340 reversed $155 $-1 #
edge $-1 $341 0 $341 6.2831853071796004 $156 $342 forward 7 unknown #
vertex $-1 $159 $343 #
ellipse-curve $-1 73.886862910779399 2.3490782280987972 5.1124570428975975 0.83867057594974714 0 0.54463902268945019 0.54463902268945019 0 -0.83867057594974714 1 I I #
face $-1 $-1 $175 $24 $-1 $344 reversed single #
loop $-1 $-1 $259 $160 #
plane-surface $-1 0 32.331914342945872 0 0 -1 0 0 0 -1 forward_v I I I I #
coedge $-1 $345 $257 $260 $346 forward $161 $-1 #
coedge $-1 $263 $163 $164 $251 reversed $101 $-1 #
coedge $-1 $257 $345 $163 $249 reversed $161 $-1 #
edge $-1 $264 -8.58201315340958 $347 8.58201315340958 $248 $348 forward 7 unknown #
coedge $-1 $165 $164 $345 $349 forward $65 $-1 #
edge $-1 $255 -76.140018921475871 $347 76.140018921475871 $247 $350 forward 7 unknown #
coedge $-1 $260 $259 $165 $253 reversed $244 $-1 #
edge $-1 $351 -76.140018921475871 $254 76.140018921475871 $252 $352 forward 7 unknown #
vertex $-1 $167 $353 #
vertex $-1 $266 $354 #
straight-curve $-1 76.140018921475871 0 -8.58201315340958 0 -1 0 I I #
coedge $-1 $246 $248 $168 $258 reversed $161 $-1 #
edge $-1 $261 -32.331914342945872 $264 32.331914342945872 $257 $355 forward 7 unknown #
coedge $-1 $252 $169 $174 $267 forward $244 $-1 #
coedge $-1 $169 $252 $246 $346 reversed $244 $-1 #
vertex $-1 $170 $356 #
straight-curve $-1 0 32.331914342945872 8.58201315340958 -1 0 0 I I #
coedge $-1 $171 $247 $173 $266 reversed $101 $-1 #
vertex $-1 $258 $357 #
straight-curve $-1 0 -32.331914342945872 8.58201315340958 1 0 0 I I #
edge $-1 $176 -8.58201315340958 $255 8.58201315340958 $173 $358 forward 7 unknown #
edge $-1 $177 -8.58201315340958 $254 8.58201315340958 $174 $359 forward 7 unknown #
point $-1 76.140018921475871 -32.331914342945872 8.58201315340958 #
point $-1 76.140018921475871 32.331914342945872 8.58201315340958 #
face $-1 $-1 $192 $25 $-1 $360 reversed single #
loop $-1 $-1 $277 $179 #
plane-surface $-1 0 0 8.58201315340958 0 0 1 1 0 0 forward_v I I I I #
coedge $-1 $361 $182 $187 $282 forward $109 $-1 #
coedge $-1 $182 $361 $362 $363 reversed $109 $-1 #
coedge $-1 $184 $183 $182 $276 reversed $69 $-1 #
edge $-1 $364 -5.3937665877455743 $287 -0.98272654358243816 $182 $365 forward 7 unknown #
coedge $-1 $362 $366 $184 $278 forward $271 $-1 #
edge $-1 $280 -76.140018921475871 $364 76.140018921475871 $277 $367 forward 7 unknown #
coedge $-1 $191 $185 $366 $368 reversed $192 $-1 #
vertex $-1 $186 $369 #
straight-curve $-1 76.140018921475871 -26.652228192860669 3.1882465656640058 0 0 1 I I #
edge $-1 $287 11.906192558909034 $285 17.585878708994237 $273 $370 forward 7 unknown #
coedge $-1 $371 $188 $191 $289 reversed $180 $-1 #
coedge $-1 $188 $371 $361 $372 forward $180 $-1 #
vertex $-1 $189 $373 #
straight-curve $-1 0 -32.331914342945872 4.1709731092464439 1 0 0 I I #
vertex $-1 $282 $374 #
straight-curve $-1 0 -26.652228192860669 4.1709731092464439 1 0 0 I I #
edge $-1 $375 -8.58201315340958 $193 -4.1709731092464439 $191 $376 forward 7 unknown #
point $-1 76.140018921475871 -32.331914342945872 4.1709731092464439 #
point $-1 76.140018921475871 -26.652228192860669 4.1709731092464439 #
loop $-1 $-1 $204 $196 #
plane-surface $-1 -76.140018921475871 0 0 1 0 0 0 0 -1 forward_v I I I I #
coedge $-1 $295 $199 $201 $299 reversed $117 $-1 #
coedge $-1 $199 $294 $377 $378 reversed $117 $-1 #
coedge $-1 $207 $202 $199 $297 forward $197 $-1 #
edge $-1 $300 -21.406919732437501 $379 -18.513052243038246 $296 $380 forward 7 unknown #
coedge $-1 $201 $200 $303 $381 reversed $73 $-1 #
edge $-1 $382 -2.1389731374768986e-014 $300 4.3248171607673562 $294 $383 forward 7 unknown #
vertex $-1 $203 $384 #
straight-curve $-1 -73.246151432076601 3.3202568269500539 8.58201315340958 0 1 0 I I #
coedge $-1 $377 $204 $207 $307 reversed $292 $-1 #
coedge $-1 $204 $377 $298 $381 forward $292 $-1 #
vertex $-1 $205 $385 #
straight-curve $-1 -76.140018921475871 1.6401477964038982 53.631640140544405 0 0 1 I I #
straight-curve $-1 -76.140018921475857 1.6401477964038982 5.3680476234348191 -0.66913059716165679 0 -0.74314483375859142 I I #
edge $-1 $379 -11.640879511396317 $208 -1.6401477964038982 $302 $386 forward 7 unknown #
point $-1 -76.140018921475871 1.6401477964038982 8.58201315340958 #
point $-1 -73.246151432076616 1.6401477964038982 8.58201315340958 #
edge $-1 $387 1 $387 0 $211 $-1 forward 7 unknown #
vertex $-1 $212 $388 #
ellipse-curve $-1 -73.903174858011099 4.4974997149731664 6.2637919604750865 -0.74314483375859142 0 0.66913059716165679 0.3345652985808284 0 0.37157241687929571 1 I I #
point $-1 -74.358519878195423 4.4974997149731664 7.3466028053015044 #
edge $-1 $389 1 $389 0 $215 $-1 forward 7 unknown #
vertex $-1 $216 $390 #
ellipse-curve $-1 -73.903174858011099 8.7835275928270633 6.2637919604750865 -0.74314483375859142 0 0.66913059716165679 0.3345652985808284 0 0.37157241687929571 1 I I #
point $-1 -74.358519878195423 8.7835275928270633 7.3466028053015044 #
plane-surface $-1 0 0 8.58201315340958 0 0 1 1 0 0 forward_v I I I I #
coedge $-1 $329 $328 $321 $391 forward $220 $-1 #
coedge $-1 $321 $222 $224 $325 reversed $139 $-1 #
coedge $-1 $222 $320 $319 $391 reversed $139 $-1 #
coedge $-1 $230 $225 $222 $323 forward $231 $-1 #
edge $-1 $326 11.176129410595038 $392 15.682441431987996 $322 $393 forward 7 unknown #
coedge $-1 $224 $223 $329 $394 reversed $87 $-1 #
edge $-1 $395 -152.28003784295177 $326 -144.00609522470052 $320 $396 forward 7 unknown #
vertex $-1 $226 $397 #
straight-curve $-1 71.633706900082927 -0.36871593829530624 8.5820131534095623 0 -1 0 I I #
coedge $-1 $319 $227 $230 $333 reversed $220 $-1 #
coedge $-1 $227 $319 $324 $394 forward $220 $-1 #
vertex $-1 $228 $398 #
straight-curve $-1 76.140018921475871 6.4644250343513345 106.14666948084052 0 0 1 I I #
straight-curve $-1 -6.797632064421876 6.4644250343513345 129.3556879757833 0.54463902268945019 0 -0.83867057594974714 I I #
edge $-1 $392 -7.9392887875325595 $232 6.4644250343513345 $328 $399 forward 7 unknown #
point $-1 76.140018921475871 6.4644250343513345 8.58201315340958 #
point $-1 71.633706900082913 6.4644250343513345 8.5820131534095907 #
edge $-1 $400 1 $400 0 $235 $-1 forward 7 unknown #
vertex $-1 $236 $401 #
ellipse-curve $-1 72.632632305802915 -3.8239419812800151 4.2979501906117461 0.83867057594974714 0 0.54463902268945019 0.54463902268945019 0 -0.83867057594974714 1 I I #
point $-1 74.43150193346888 -3.8239419812800151 4.27378646694787 #
edge $-1 $402 1 $402 0 $239 $-1 forward 7 unknown #
vertex $-1 $240 $403 #
ellipse-curve $-1 72.632632305802915 2.3490782280987972 4.2979501906117461 0.83867057594974714 0 0.54463902268945019 0.54463902268945019 0 -0.83867057594974714 1 I I #
point $-1 74.43150193346888 2.3490782280987972 4.27378646694787 #
plane-surface $-1 76.140018921475871 0 0 -1 0 0 0 0 1 forward_v I I I I #
coedge $-1 $248 $246 $250 $349 reversed $161 $-1 #
edge $-1 $261 -8.58201315340958 $351 8.58201315340958 $260 $404 forward 7 unknown #
vertex $-1 $349 $405 #
straight-curve $-1 -76.140018921475871 -32.331914342945872 0 0 0 -1 I I #
edge $-1 $347 -32.331914342945872 $351 32.331914342945872 $345 $406 forward 7 unknown #
straight-curve $-1 0 -32.331914342945872 -8.58201315340958 -1 0 0 I I #
vertex $-1 $253 $407 #
straight-curve $-1 0 32.331914342945872 -8.58201315340958 1 0 0 I I #
point $-1 76.140018921475871 32.331914342945872 -8.58201315340958 #
point $-1 76.140018921475871 -32.331914342945872 -8.58201315340958 #
straight-curve $-1 -76.140018921475871 0 8.58201315340958 0 -1 0 I I #
point $-1 -76.140018921475871 32.331914342945872 8.58201315340958 #
point $-1 -76.140018921475871 -32.331914342945872 8.58201315340958 #
straight-curve $-1 76.140018921475871 -32.331914342945872 0 0 0 -1 I I #
straight-curve $-1 76.140018921475871 32.331914342945872 0 0 0 -1 I I #
plane-surface $-1 76.140018921475871 0 0 -1 0 0 0 0 1 forward_v I I I I #
coedge $-1 $274 $273 $284 $372 reversed $109 $-1 #
coedge $-1 $408 $277 $274 $363 forward $271 $-1 #
edge $-1 $364 26.652228192860669 $409 32.331914342945872 $274 $410 forward 7 unknown #
vertex $-1 $363 $411 #
straight-curve $-1 -76.140018921475871 -26.652228192860669 3.1882465656640058 0 0 -1 I I #
coedge $-1 $277 $408 $279 $368 forward $271 $-1 #
straight-curve $-1 0 -26.652228192860669 8.58201315340958 -1 0 0 I I #
edge $-1 $375 -32.331914342945872 $280 -26.652228192860669 $279 $412 forward 7 unknown #
point $-1 76.140018921475871 -26.652228192860669 8.58201315340958 #
straight-curve $-1 -76.140018921475871 -14.746035633951635 4.1709731092464439 0 -1 0 I I #
coedge $-1 $284 $283 $408 $413 reversed $180 $-1 #
edge $-1 $409 -8.58201315340958 $285 -4.1709731092464439 $361 $414 forward 7 unknown #
point $-1 -76.140018921475871 -32.331914342945872 4.1709731092464439 #
point $-1 -76.140018921475871 -26.652228192860669 4.1709731092464439 #
vertex $-1 $368 $415 #
straight-curve $-1 76.140018921475871 -32.331914342945872 0 0 0 -1 I I #
coedge $-1 $303 $302 $295 $378 forward $292 $-1 #
edge $-1 $379 45.049626987134829 $382 48.263592517109601 $377 $416 forward 7 unknown #
vertex $-1 $307 $417 #
straight-curve $-1 -94.653071164514117 11.640879511396317 8.5820131534095765 -1 0 0 I I #
edge $-1 $382 -8.3206226844462634 $304 1.6801090305461557 $303 $418 forward 7 unknown #
vertex $-1 $381 $419 #
straight-curve $-1 -76.140018921475857 11.640879511396317 5.3680476234348191 0.66913059716165679 0 0.74314483375859142 I I #
point $-1 -73.246151432076616 11.640879511396317 8.58201315340958 #
point $-1 -76.140018921475871 1.6401477964038982 5.3680476234348031 #
straight-curve $-1 -76.140018921475871 0 8.58201315340958 0 -1 0 I I #
vertex $-1 $310 $420 #
point $-1 -73.568609559430271 4.4974997149731664 6.6353643773543816 #
vertex $-1 $314 $421 #
point $-1 -73.568609559430271 8.7835275928270633 6.6353643773543816 #
edge $-1 $392 97.564656327430939 $395 104.50376854845487 $319 $422 forward 7 unknown #
vertex $-1 $333 $423 #
straight-curve $-1 60.457577489487875 -7.9392887875325595 8.5820131534095765 1 0 0 I I #
edge $-1 $395 -7.5705728492372533 $330 6.8331409726466408 $329 $424 forward 7 unknown #
vertex $-1 $394 $425 #
straight-curve $-1 -6.797632064421876 -7.9392887875325595 129.3556879757833 -0.54463902268945019 0 0.83867057594974714 I I #
point $-1 71.633706900082913 -7.9392887875325595 8.5820131534095907 #
point $-1 76.140018921475871 6.4644250343513345 1.6429009323856434 #
straight-curve $-1 76.140018921475871 0 8.58201315340958 0 1 0 I I #
vertex $-1 $336 $426 #
point $-1 73.177271328492367 -3.8239419812800151 3.4592796146619991 #
vertex $-1 $340 $427 #
point $-1 73.177271328492367 2.3490782280987972 3.4592796146619991 #
straight-curve $-1 -76.140018921475871 32.331914342945872 0 0 0 -1 I I #
point $-1 -76.140018921475871 -32.331914342945872 -8.58201315340958 #
straight-curve $-1 -76.140018921475871 0 -8.58201315340958 0 1 0 I I #
point $-1 -76.140018921475871 32.331914342945872 -8.58201315340958 #
coedge $-1 $366 $362 $371 $413 forward $271 $-1 #
vertex $-1 $363 $428 #
straight-curve $-1 -76.140018921475871 0 8.58201315340958 0 -1 0 I I #
point $-1 -76.140018921475871 -26.652228192860669 8.58201315340958 #
straight-curve $-1 76.140018921475871 0 8.58201315340958 0 1 0 I I #
edge $-1 $409 -76.140018921475871 $375 76.140018921475871 $371 $429 forward 7 unknown #
straight-curve $-1 -76.140018921475871 -32.331914342945872 0 0 0 -1 I I #
point $-1 76.140018921475871 -32.331914342945872 8.58201315340958 #
straight-curve $-1 -76.140018921475871 11.640879511396317 53.631640140544405 0 0 -1 I I #
point $-1 -76.140018921475871 11.640879511396317 8.58201315340958 #
straight-curve $-1 -76.140018921475871 3.3202568269500539 5.3680476234348156 0 -1 0 I I #
point $-1 -76.140018921475871 11.640879511396317 5.3680476234348031 #
point $-1 -73.531602441131795 4.4974997149731664 5.9292266618942575 #
point $-1 -73.531602441131795 8.7835275928270633 5.9292266618942575 #
straight-curve $-1 76.140018921475871 -7.9392887875325595 106.14666948084052 0 0 -1 I I #
point $-1 76.140018921475871 -7.9392887875325595 8.58201315340958 #
straight-curve $-1 76.140018921475871 -0.36871593829530624 1.6429009323856434 0 1 0 I I #
point $-1 76.140018921475871 -7.9392887875325595 1.6429009323856434 #
point $-1 71.793961729853166 -3.8239419812800151 3.7533111679222957 #
point $-1 71.793961729853166 2.3490782280987972 3.7533111679222957 #
point $-1 -76.140018921475871 -32.331914342945872 8.58201315340958 #
straight-curve $-1 0 -32.331914342945872 8.58201315340958 1 0 0 I I #
End-of-ACIS-data 