500 0 7 0           
7 Unknown 11 ACIS 5.0 NT 24 Thu Mar 25 15:28:25 1999 
-1 9.9999999999999995e-007 1e-010 
body $-1 $7 $-1 $8 #
body $-1 $9 $-1 $10 #
body $-1 $11 $-1 $12 #
body $-1 $13 $-1 $14 #
body $-1 $15 $-1 $16 #
body $-1 $17 $-1 $18 #
body $-1 $19 $-1 $20 #
lump $-1 $-1 $21 $0 #
transform $-1 1 0 0 0 1 0 0 0 1 69.361247596667383 45.968258207479138 11.237371193382042 1 rotate no_reflect no_shear #
lump $-1 $-1 $22 $1 #
transform $-1 1 0 0 0 1 0 0 0 1 69.361247596667383 45.968258207479138 11.237371193382042 1 rotate no_reflect no_shear #
lump $-1 $-1 $23 $2 #
transform $-1 1 0 0 0 1 0 0 0 1 69.361247596667383 45.968258207479138 11.237371193382042 1 rotate no_reflect no_shear #
lump $-1 $-1 $24 $3 #
transform $-1 1 0 0 0 1 0 0 0 1 69.361247596667383 45.968258207479138 11.237371193382042 1 rotate no_reflect no_shear #
lump $-1 $-1 $25 $4 #
transform $-1 1 0 0 0 1 0 0 0 1 69.361247596667383 45.968258207479138 11.237371193382042 1 rotate no_reflect no_shear #
lump $-1 $-1 $26 $5 #
transform $-1 1 0 0 0 1 0 0 0 1 69.361247596667383 45.968258207479138 11.237371193382042 1 rotate no_reflect no_shear #
lump $-1 $-1 $27 $6 #
transform $-1 1 0 0 0 1 0 0 0 1 69.361247596667383 45.968258207479138 11.237371193382042 1 rotate no_reflect no_shear #
shell $-1 $-1 $-1 $28 $-1 $7 #
shell $-1 $-1 $-1 $29 $-1 $9 #
shell $-1 $-1 $-1 $30 $-1 $11 #
shell $-1 $-1 $-1 $31 $-1 $13 #
shell $-1 $-1 $-1 $32 $-1 $15 #
shell $-1 $-1 $-1 $33 $-1 $17 #
shell $-1 $-1 $-1 $34 $-1 $19 #
face $-1 $35 $36 $21 $-1 $37 forward single #
face $-1 $38 $39 $22 $-1 $40 reversed single #
face $-1 $41 $42 $23 $-1 $43 reversed single #
face $-1 $44 $45 $24 $-1 $46 reversed single #
face $-1 $47 $48 $25 $-1 $49 forward single #
face $-1 $50 $51 $26 $-1 $52 forward single #
face $-1 $53 $54 $27 $-1 $55 forward single #
face $-1 $56 $57 $21 $-1 $58 reversed single #
loop $-1 $-1 $59 $28 #
plane-surface $-1 0 0 11.237371193382042 0 0 1 1 0 0 forward_v I I I I #
face $-1 $60 $61 $22 $-1 $62 reversed single #
loop $-1 $-1 $63 $29 #
plane-surface $-1 -63.956455125364727 0 6.4943342635833936 0 0 1 1 0 0 forward_v I I I I #
face $-1 $64 $65 $23 $-1 $66 reversed single #
loop $-1 $-1 $67 $30 #
plane-surface $-1 63.956455125364712 0 6.4943342635833936 0 0 1 1 0 0 forward_v I I I I #
face $-1 $68 $69 $24 $-1 $70 reversed single #
loop $-1 $-1 $71 $31 #
plane-surface $-1 34.73730345124487 -156.7569700520865 91.48508562108843 -1 0 0 0 -0.79863551827123203 0.60181501223851219 forward_v I I I I #
face $-1 $72 $73 $25 $-1 $74 forward single #
loop $-1 $75 $76 $32 #
cone-surface $-1 23.084652358173869 -44.349100104584821 9.317680829849138 0 0.79863551827123203 -0.60181501223851219 0.5 0 0 1 I I 0 1 0.5 forward I I I I #
face $-1 $77 $78 $26 $-1 $79 forward single #
loop $-1 $80 $81 $33 #
cone-surface $-1 27.454396518075498 -44.349100104584821 9.317680829849138 0 0.79863551827123203 -0.60181501223851219 0.5 0 0 1 I I 0 1 0.5 forward I I I I #
face $-1 $82 $83 $27 $-1 $84 forward single #
loop $-1 $85 $86 $34 #
cone-surface $-1 31.824140677977127 -44.349100104584821 9.317680829849138 0 0.79863551827123203 -0.60181501223851219 0.5 0 0 1 I I 0 1 0.5 forward I I I I #
face $-1 $87 $88 $21 $-1 $89 reversed single #
loop $-1 $-1 $90 $35 #
plane-surface $-1 0 0 -11.237371193382042 0 0 1 1 0 0 forward_v I I I I #
coedge $-1 $91 $92 $93 $94 forward $36 $-1 #
face $-1 $95 $96 $22 $-1 $97 reversed single #
loop $-1 $-1 $98 $38 #
plane-surface $-1 -58.551662654062071 0 8.865852728482718 -1 0 0 0 0 1 forward_v I I I I #
coedge $-1 $99 $100 $101 $102 forward $39 $-1 #
face $-1 $103 $104 $23 $-1 $105 forward single #
loop $-1 $-1 $106 $41 #
plane-surface $-1 58.551662654062056 0 8.865852728482718 1 0 0 0 0 -1 forward_v I I I I #
coedge $-1 $107 $108 $109 $110 reversed $42 $-1 #
face $-1 $111 $112 $24 $-1 $113 reversed single #
loop $-1 $-1 $114 $44 #
plane-surface $-1 27.454396518075498 -45.968258207479096 7.9998054785547197 0 -0.79863551827123203 0.60181501223851219 1 0 0 forward_v I I I I #
coedge $-1 $115 $116 $117 $118 reversed $45 $-1 #
face $-1 $-1 $119 $25 $-1 $120 forward single #
loop $-1 $121 $122 $47 #
cone-surface $-1 23.084652358173869 -43.750123465881394 8.8663195706702531 0 0.79863551827123203 -0.60181501223851219 0.25 0 0 1 I I -0.70710678118654746 0.70710678118654746 0.25 forward I I I I #
loop $-1 $-1 $123 $32 #
coedge $-1 $76 $76 $124 $125 reversed $48 $-1 #
face $-1 $-1 $126 $26 $-1 $127 forward single #
loop $-1 $128 $129 $50 #
cone-surface $-1 27.454396518075498 -43.750123465881394 8.8663195706702531 0 0.79863551827123203 -0.60181501223851219 0.25 0 0 1 I I -0.70710678118654746 0.70710678118654746 0.25 forward I I I I #
loop $-1 $-1 $130 $33 #
coedge $-1 $81 $81 $131 $132 reversed $51 $-1 #
face $-1 $-1 $133 $27 $-1 $134 forward single #
loop $-1 $135 $136 $53 #
cone-surface $-1 31.824140677977127 -43.750123465881394 8.8663195706702531 0 0.79863551827123203 -0.60181501223851219 0.25 0 0 1 I I -0.70710678118654746 0.70710678118654746 0.25 forward I I I I #
loop $-1 $-1 $137 $34 #
coedge $-1 $86 $86 $138 $139 reversed $54 $-1 #
face $-1 $140 $141 $21 $-1 $142 reversed single #
loop $-1 $-1 $143 $56 #
plane-surface $-1 0 -45.968258207479138 0 0 1 0 0 0 1 forward_v I I I I #
coedge $-1 $144 $145 $146 $147 forward $57 $-1 #
coedge $-1 $148 $59 $149 $150 forward $36 $-1 #
coedge $-1 $59 $148 $151 $152 forward $36 $-1 #
coedge $-1 $153 $154 $59 $94 reversed $155 $-1 #
edge $-1 $156 -45.968258207479138 $157 45.968258207479138 $93 $158 forward 7 unknown #
face $-1 $159 $160 $22 $-1 $161 reversed single #
loop $-1 $-1 $162 $60 #
plane-surface $-1 0 45.968258207479138 0 0 -1 0 0 0 -1 forward_v I I I I #
coedge $-1 $101 $163 $164 $165 reversed $61 $-1 #
coedge $-1 $166 $63 $167 $168 reversed $39 $-1 #
coedge $-1 $63 $166 $169 $170 reversed $39 $-1 #
coedge $-1 $171 $98 $63 $102 reversed $61 $-1 #
edge $-1 $172 -45.968258207479138 $173 45.968258207479138 $101 $174 forward 7 unknown #
face $-1 $175 $176 $23 $-1 $177 reversed single #
loop $-1 $-1 $178 $64 #
plane-surface $-1 0 0 11.237371193382042 0 0 1 1 0 0 forward_v I I I I #
coedge $-1 $179 $180 $181 $182 reversed $65 $-1 #
coedge $-1 $183 $67 $184 $185 reversed $42 $-1 #
coedge $-1 $67 $183 $186 $187 reversed $42 $-1 #
coedge $-1 $188 $189 $67 $110 forward $190 $-1 #
edge $-1 $191 -45.968258207479138 $192 45.968258207479138 $109 $193 forward 7 unknown #
face $-1 $194 $195 $24 $-1 $196 forward single #
loop $-1 $-1 $197 $68 #
plane-surface $-1 20.171489584906126 -156.7569700520865 91.48508562108843 1 0 0 0 0.79863551827123203 -0.60181501223851219 forward_v I I I I #
coedge $-1 $198 $199 $200 $201 reversed $69 $-1 #
coedge $-1 $116 $71 $202 $203 reversed $45 $-1 #
coedge $-1 $71 $115 $198 $204 reversed $45 $-1 #
coedge $-1 $200 $205 $71 $118 forward $195 $-1 #
edge $-1 $206 32.410226818564112 $207 34.849907506081578 $117 $208 forward 7 unknown #
loop $-1 $-1 $124 $72 #
plane-surface $-1 27.454396518075498 -45.968258207479096 7.9998054785547197 0 -0.79863551827123203 0.60181501223851219 1 0 0 forward_v I I I I #
loop $-1 $-1 $209 $47 #
coedge $-1 $122 $122 $123 $210 reversed $73 $-1 #
coedge $-1 $123 $123 $122 $210 forward $75 $-1 #
coedge $-1 $124 $124 $76 $125 forward $119 $-1 #
edge $-1 $211 2.6356447604650709e-015 $211 6.2831853071796031 $124 $212 forward 7 unknown #
loop $-1 $-1 $131 $77 #
plane-surface $-1 27.454396518075498 -45.968258207479096 7.9998054785547197 0 -0.79863551827123203 0.60181501223851219 1 0 0 forward_v I I I I #
loop $-1 $-1 $213 $50 #
coedge $-1 $129 $129 $130 $214 reversed $78 $-1 #
coedge $-1 $130 $130 $129 $214 forward $80 $-1 #
coedge $-1 $131 $131 $81 $132 forward $126 $-1 #
edge $-1 $215 2.6356447604650709e-015 $215 6.2831853071796031 $131 $216 forward 7 unknown #
loop $-1 $-1 $138 $82 #
plane-surface $-1 27.454396518075498 -45.968258207479096 7.9998054785547197 0 -0.79863551827123203 0.60181501223851219 1 0 0 forward_v I I I I #
loop $-1 $-1 $217 $53 #
coedge $-1 $136 $136 $137 $218 reversed $83 $-1 #
coedge $-1 $137 $137 $136 $218 forward $85 $-1 #
coedge $-1 $138 $138 $86 $139 forward $133 $-1 #
edge $-1 $219 2.6356447604650709e-015 $219 6.2831853071796031 $138 $220 forward 7 unknown #
face $-1 $221 $222 $21 $-1 $223 reversed single #
loop $-1 $-1 $224 $87 #
plane-surface $-1 -69.361247596667383 0 0 1 0 0 0 0 -1 forward_v I I I I #
coedge $-1 $225 $151 $226 $227 forward $88 $-1 #
coedge $-1 $228 $90 $225 $229 forward $57 $-1 #
coedge $-1 $90 $228 $230 $231 forward $57 $-1 #
coedge $-1 $154 $153 $90 $147 reversed $155 $-1 #
edge $-1 $232 -45.968258207479138 $233 45.968258207479138 $146 $234 forward 7 unknown #
coedge $-1 $92 $91 $235 $236 forward $36 $-1 #
coedge $-1 $237 $238 $91 $150 reversed $222 $-1 #
edge $-1 $157 -69.361247596667383 $239 69.361247596667383 $149 $240 forward 7 unknown #
coedge $-1 $143 $241 $92 $152 reversed $88 $-1 #
edge $-1 $242 -69.361247596667383 $156 69.361247596667383 $151 $243 forward 7 unknown #
coedge $-1 $146 $93 $241 $244 forward $155 $-1 #
coedge $-1 $93 $146 $237 $245 reversed $155 $-1 #
loop $-1 $-1 $153 $221 #
vertex $-1 $94 $246 #
vertex $-1 $94 $247 #
straight-curve $-1 69.361247596667383 0 11.237371193382042 0 1 0 I I #
face $-1 $248 $249 $22 $-1 $250 forward single #
loop $-1 $-1 $251 $95 #
plane-surface $-1 -69.361247596667383 0 0 1 0 0 0 0 -1 forward_v I I I I #
coedge $-1 $169 $252 $171 $253 forward $96 $-1 #
coedge $-1 $98 $171 $254 $255 reversed $61 $-1 #
coedge $-1 $256 $167 $98 $165 forward $257 $-1 #
edge $-1 $173 2.0614078993420346 $258 6.8044448291406834 $164 $259 forward 7 unknown #
coedge $-1 $100 $99 $251 $260 reversed $39 $-1 #
coedge $-1 $164 $261 $99 $168 forward $257 $-1 #
edge $-1 $262 -37.383020033985019 $173 -26.573435091379707 $167 $263 forward 7 unknown #
coedge $-1 $264 $162 $100 $170 forward $96 $-1 #
edge $-1 $172 26.573435091379707 $265 37.383020033985019 $169 $266 forward 7 unknown #
coedge $-1 $163 $101 $162 $253 reversed $61 $-1 #
vertex $-1 $170 $267 #
vertex $-1 $168 $268 #
straight-curve $-1 -58.551662654062071 0 6.4943342635833936 0 -1 0 I I #
face $-1 $269 $270 $23 $-1 $271 reversed single #
loop $-1 $-1 $272 $103 #
plane-surface $-1 0 -45.968258207479138 0 0 1 0 0 0 1 forward_v I I I I #
coedge $-1 $273 $274 $180 $275 forward $104 $-1 #
coedge $-1 $276 $106 $183 $277 reversed $65 $-1 #
coedge $-1 $106 $276 $178 $275 reversed $65 $-1 #
coedge $-1 $278 $186 $106 $182 forward $270 $-1 #
edge $-1 $279 2.0614078993420346 $280 6.8044448291406834 $181 $281 forward 7 unknown #
coedge $-1 $108 $107 $179 $277 forward $42 $-1 #
coedge $-1 $282 $272 $107 $185 forward $176 $-1 #
edge $-1 $283 26.5734350913797 $191 37.383020033985012 $184 $284 forward 7 unknown #
coedge $-1 $181 $285 $108 $187 forward $270 $-1 #
edge $-1 $192 -37.383020033985012 $279 -26.5734350913797 $186 $286 forward 7 unknown #
coedge $-1 $287 $109 $285 $288 reversed $190 $-1 #
coedge $-1 $109 $287 $282 $289 forward $190 $-1 #
loop $-1 $-1 $109 $269 #
vertex $-1 $185 $290 #
vertex $-1 $110 $291 #
straight-curve $-1 69.361247596667383 0 6.4943342635833936 0 1 0 I I #
face $-1 $-1 $292 $24 $-1 $293 reversed single #
loop $-1 $-1 $117 $111 #
plane-surface $-1 0 0 11.237371193382042 0 0 1 1 0 0 forward_v I I I I #
coedge $-1 $294 $295 $296 $297 reversed $112 $-1 #
coedge $-1 $298 $114 $116 $204 forward $69 $-1 #
coedge $-1 $114 $298 $294 $299 forward $69 $-1 #
coedge $-1 $296 $117 $114 $201 forward $195 $-1 #
edge $-1 $207 -21.010105192207121 $300 -6.4442913258683774 $200 $301 forward 7 unknown #
coedge $-1 $302 $303 $115 $203 forward $292 $-1 #
edge $-1 $304 -37.742737331989552 $206 -34.505171617162176 $202 $305 forward 7 unknown #
edge $-1 $207 -4.053871435414651 $304 7.1054090395257172e-014 $116 $306 forward 7 unknown #
coedge $-1 $117 $296 $302 $307 forward $195 $-1 #
vertex $-1 $203 $308 #
vertex $-1 $118 $309 #
straight-curve $-1 34.73730345124487 -78.378485026043251 11.237371193382039 0 1 0 I I #
coedge $-1 $209 $209 $-1 $310 reversed $121 $-1 #
edge $-1 $311 0 $311 6.2831853071796004 $122 $312 forward 7 unknown #
vertex $-1 $125 $313 #
ellipse-curve $-1 23.084652358173869 -44.748417863720398 9.618588335968365 0 -0.79863551827123203 0.60181501223851219 0.5 0 0 1 I I #
coedge $-1 $213 $213 $-1 $314 reversed $128 $-1 #
edge $-1 $315 0 $315 6.2831853071796004 $129 $316 forward 7 unknown #
vertex $-1 $132 $317 #
ellipse-curve $-1 27.454396518075498 -44.748417863720398 9.618588335968365 0 -0.79863551827123203 0.60181501223851219 0.5 0 0 1 I I #
coedge $-1 $217 $217 $-1 $318 reversed $135 $-1 #
edge $-1 $319 0 $319 6.2831853071796004 $136 $320 forward 7 unknown #
vertex $-1 $139 $321 #
ellipse-curve $-1 31.824140677977127 -44.748417863720398 9.618588335968365 0 -0.79863551827123203 0.60181501223851219 0.5 0 0 1 I I #
face $-1 $-1 $155 $21 $-1 $322 reversed single #
loop $-1 $-1 $237 $140 #
plane-surface $-1 0 45.968258207479138 0 0 -1 0 0 0 -1 forward_v I I I I #
coedge $-1 $323 $235 $238 $324 forward $141 $-1 #
coedge $-1 $241 $143 $144 $229 reversed $88 $-1 #
coedge $-1 $235 $323 $143 $227 reversed $141 $-1 #
edge $-1 $242 -11.237371193382042 $325 11.237371193382042 $226 $326 forward 7 unknown #
coedge $-1 $145 $144 $323 $327 forward $57 $-1 #
edge $-1 $233 -69.361247596667383 $325 69.361247596667383 $225 $328 forward 7 unknown #
coedge $-1 $238 $237 $145 $231 reversed $222 $-1 #
edge $-1 $329 -69.361247596667383 $232 69.361247596667383 $230 $330 forward 7 unknown #
vertex $-1 $147 $331 #
vertex $-1 $244 $332 #
straight-curve $-1 69.361247596667383 0 -11.237371193382042 0 -1 0 I I #
coedge $-1 $224 $226 $148 $236 reversed $141 $-1 #
edge $-1 $239 -45.968258207479138 $242 45.968258207479138 $235 $333 forward 7 unknown #
coedge $-1 $230 $149 $154 $245 forward $222 $-1 #
coedge $-1 $149 $230 $224 $324 reversed $222 $-1 #
vertex $-1 $150 $334 #
straight-curve $-1 0 45.968258207479138 11.237371193382042 -1 0 0 I I #
coedge $-1 $151 $225 $153 $244 reversed $88 $-1 #
vertex $-1 $236 $335 #
straight-curve $-1 0 -45.968258207479138 11.237371193382042 1 0 0 I I #
edge $-1 $156 -11.237371193382042 $233 11.237371193382042 $153 $336 forward 7 unknown #
edge $-1 $157 -11.237371193382042 $232 11.237371193382042 $154 $337 forward 7 unknown #
point $-1 69.361247596667383 -45.968258207479138 11.237371193382042 #
point $-1 69.361247596667383 45.968258207479138 11.237371193382042 #
face $-1 $-1 $257 $22 $-1 $338 reversed single #
loop $-1 $-1 $254 $159 #
plane-surface $-1 0 0 11.237371193382042 0 0 1 1 0 0 forward_v I I I I #
coedge $-1 $339 $340 $166 $260 forward $160 $-1 #
coedge $-1 $162 $264 $341 $342 reversed $96 $-1 #
edge $-1 $343 -6.8044448291406834 $172 -2.0614078993420346 $162 $344 forward 7 unknown #
coedge $-1 $341 $345 $163 $255 forward $249 $-1 #
edge $-1 $258 -45.968258207479138 $343 45.968258207479138 $254 $346 forward 7 unknown #
coedge $-1 $261 $164 $345 $347 reversed $257 $-1 #
loop $-1 $-1 $164 $248 #
vertex $-1 $165 $348 #
straight-curve $-1 -58.551662654062071 -45.968258207479138 4.432926364241359 0 0 1 I I #
edge $-1 $265 -45.968258207479138 $262 45.968258207479138 $251 $349 forward 7 unknown #
coedge $-1 $167 $256 $339 $350 forward $257 $-1 #
vertex $-1 $260 $351 #
straight-curve $-1 -31.978227562682363 -45.968258207479138 6.4943342635833936 1 0 0 I I #
coedge $-1 $252 $169 $340 $352 reversed $96 $-1 #
vertex $-1 $260 $353 #
straight-curve $-1 -31.978227562682363 45.968258207479138 6.4943342635833936 -1 0 0 I I #
point $-1 -58.551662654062071 45.968258207479138 6.4943342635833936 #
point $-1 -58.551662654062071 -45.968258207479138 6.4943342635833936 #
face $-1 $-1 $190 $23 $-1 $354 reversed single #
loop $-1 $-1 $181 $175 #
plane-surface $-1 0 45.968258207479138 0 0 -1 0 0 0 -1 forward_v I I I I #
coedge $-1 $184 $355 $276 $356 forward $176 $-1 #
coedge $-1 $357 $178 $355 $358 forward $104 $-1 #
coedge $-1 $178 $357 $278 $359 forward $104 $-1 #
edge $-1 $280 -45.968258207479138 $360 45.968258207479138 $178 $361 forward 7 unknown #
coedge $-1 $180 $179 $272 $356 reversed $65 $-1 #
edge $-1 $283 -45.968258207479138 $279 45.968258207479138 $179 $362 forward 7 unknown #
coedge $-1 $285 $181 $274 $359 reversed $270 $-1 #
vertex $-1 $187 $363 #
vertex $-1 $182 $364 #
straight-curve $-1 58.551662654062056 45.968258207479138 4.432926364241359 0 0 1 I I #
coedge $-1 $355 $184 $189 $289 reversed $176 $-1 #
vertex $-1 $185 $365 #
straight-curve $-1 31.978227562682356 -45.968258207479138 6.4943342635833936 1 0 0 I I #
coedge $-1 $186 $278 $188 $288 forward $270 $-1 #
straight-curve $-1 31.978227562682356 45.968258207479138 6.4943342635833936 -1 0 0 I I #
coedge $-1 $189 $188 $357 $366 reversed $190 $-1 #
edge $-1 $367 -11.237371193382042 $192 -6.4943342635833936 $188 $368 forward 7 unknown #
edge $-1 $369 -11.237371193382042 $191 -6.4943342635833936 $189 $370 forward 7 unknown #
point $-1 69.361247596667368 -45.968258207479138 6.4943342635833936 #
point $-1 69.361247596667368 45.968258207479138 6.4943342635833936 #
loop $-1 $-1 $202 $194 #
plane-surface $-1 0 -45.968258207479138 0 0 1 0 0 0 1 forward_v I I I I #
coedge $-1 $295 $197 $199 $299 reversed $112 $-1 #
coedge $-1 $197 $294 $371 $372 reversed $112 $-1 #
coedge $-1 $205 $200 $197 $297 forward $195 $-1 #
edge $-1 $300 -34.849907506081578 $373 -32.410226818564112 $296 $374 forward 7 unknown #
coedge $-1 $199 $198 $303 $375 reversed $69 $-1 #
edge $-1 $376 -7.1054090395257172e-014 $300 4.053871435414651 $294 $377 forward 7 unknown #
vertex $-1 $201 $378 #
straight-curve $-1 13.727198259037749 -43.528577519961672 11.237371193382042 -1 0 0 I I #
coedge $-1 $371 $202 $205 $307 reversed $292 $-1 #
coedge $-1 $202 $371 $298 $375 forward $292 $-1 #
vertex $-1 $203 $379 #
straight-curve $-1 34.73730345124487 -45.968258207479138 45.742542810544215 0 0 1 I I #
straight-curve $-1 34.73730345124487 -45.968258207479096 7.9998054785547197 0 -0.60181501223851219 -0.79863551827123203 I I #
edge $-1 $373 20.171489584906126 $206 34.73730345124487 $302 $380 forward 7 unknown #
point $-1 34.73730345124487 -45.968258207479138 11.237371193382042 #
point $-1 34.73730345124487 -43.528577519961672 11.237371193382042 #
edge $-1 $381 1 $381 0 $209 $-1 forward 7 unknown #
vertex $-1 $210 $382 #
ellipse-curve $-1 23.084652358173869 -43.949782345449201 9.0167733237298808 0 -0.79863551827123203 0.60181501223851219 0.5 0 0 1 I I #
point $-1 23.584652358173869 -44.748417863720434 9.6185883359683935 #
edge $-1 $383 1 $383 0 $213 $-1 forward 7 unknown #
vertex $-1 $214 $384 #
ellipse-curve $-1 27.454396518075498 -43.949782345449201 9.0167733237298808 0 -0.79863551827123203 0.60181501223851219 0.5 0 0 1 I I #
point $-1 27.954396518075498 -44.748417863720434 9.6185883359683935 #
edge $-1 $385 1 $385 0 $217 $-1 forward 7 unknown #
vertex $-1 $218 $386 #
ellipse-curve $-1 31.824140677977127 -43.949782345449201 9.0167733237298808 0 -0.79863551827123203 0.60181501223851219 0.5 0 0 1 I I #
point $-1 32.324140677977127 -44.748417863720434 9.6185883359683935 #
plane-surface $-1 69.361247596667383 0 0 -1 0 0 0 0 1 forward_v I I I I #
coedge $-1 $226 $224 $228 $327 reversed $141 $-1 #
edge $-1 $239 -11.237371193382042 $329 11.237371193382042 $238 $387 forward 7 unknown #
vertex $-1 $327 $388 #
straight-curve $-1 -69.361247596667383 -45.968258207479138 0 0 0 -1 I I #
edge $-1 $325 -45.968258207479138 $329 45.968258207479138 $323 $389 forward 7 unknown #
straight-curve $-1 0 -45.968258207479138 -11.237371193382042 -1 0 0 I I #
vertex $-1 $231 $390 #
straight-curve $-1 0 45.968258207479138 -11.237371193382042 1 0 0 I I #
point $-1 69.361247596667383 45.968258207479138 -11.237371193382042 #
point $-1 69.361247596667383 -45.968258207479138 -11.237371193382042 #
straight-curve $-1 -69.361247596667383 0 11.237371193382042 0 -1 0 I I #
point $-1 -69.361247596667383 45.968258207479138 11.237371193382042 #
point $-1 -69.361247596667383 -45.968258207479138 11.237371193382042 #
straight-curve $-1 69.361247596667383 -45.968258207479138 0 0 0 -1 I I #
straight-curve $-1 69.361247596667383 45.968258207479138 0 0 0 -1 I I #
plane-surface $-1 0 -45.968258207479138 0 0 1 0 0 0 1 forward_v I I I I #
coedge $-1 $391 $251 $261 $350 reversed $160 $-1 #
coedge $-1 $251 $391 $264 $352 forward $160 $-1 #
coedge $-1 $392 $254 $252 $342 forward $249 $-1 #
edge $-1 $343 58.551662654062071 $393 69.361247596667383 $252 $394 forward 7 unknown #
vertex $-1 $342 $395 #
straight-curve $-1 -58.551662654062071 45.968258207479138 4.432926364241359 0 0 -1 I I #
coedge $-1 $254 $392 $256 $347 forward $249 $-1 #
straight-curve $-1 -58.551662654062071 0 11.237371193382042 0 1 0 I I #
edge $-1 $396 -69.361247596667383 $258 -58.551662654062071 $256 $397 forward 7 unknown #
point $-1 -58.551662654062071 -45.968258207479138 11.237371193382042 #
straight-curve $-1 -69.361247596667383 0 6.4943342635833936 0 -1 0 I I #
edge $-1 $396 -11.237371193382042 $262 -6.4943342635833936 $339 $398 forward 7 unknown #
point $-1 -69.361247596667383 -45.968258207479138 6.4943342635833936 #
edge $-1 $393 -11.237371193382042 $265 -6.4943342635833936 $264 $399 forward 7 unknown #
point $-1 -69.361247596667383 45.968258207479138 6.4943342635833936 #
plane-surface $-1 69.361247596667383 0 0 -1 0 0 0 0 1 forward_v I I I I #
coedge $-1 $272 $282 $273 $358 reversed $176 $-1 #
edge $-1 $360 -6.8044448291406834 $283 -2.0614078993420346 $272 $400 forward 7 unknown #
coedge $-1 $274 $273 $287 $366 forward $104 $-1 #
edge $-1 $360 58.551662654062056 $369 69.361247596667383 $355 $401 forward 7 unknown #
edge $-1 $367 -69.361247596667383 $280 -58.551662654062056 $278 $402 forward 7 unknown #
vertex $-1 $358 $403 #
straight-curve $-1 58.551662654062056 0 11.237371193382042 0 -1 0 I I #
straight-curve $-1 58.551662654062056 0 6.4943342635833936 0 1 0 I I #
point $-1 58.551662654062056 45.968258207479138 6.4943342635833936 #
point $-1 58.551662654062056 45.968258207479138 11.237371193382042 #
point $-1 58.551662654062056 -45.968258207479138 6.4943342635833936 #
edge $-1 $369 -45.968258207479138 $367 45.968258207479138 $287 $404 forward 7 unknown #
vertex $-1 $366 $405 #
straight-curve $-1 69.361247596667383 45.968258207479138 0 0 0 -1 I I #
vertex $-1 $366 $406 #
straight-curve $-1 69.361247596667383 -45.968258207479138 0 0 0 -1 I I #
coedge $-1 $303 $302 $295 $372 forward $292 $-1 #
edge $-1 $373 34.505171617162176 $376 37.742737331989552 $371 $407 forward 7 unknown #
vertex $-1 $307 $408 #
straight-curve $-1 20.171489584906126 -78.378485026043251 11.237371193382039 0 -1 0 I I #
edge $-1 $376 6.4442913258683774 $304 21.010105192207121 $303 $409 forward 7 unknown #
vertex $-1 $375 $410 #
straight-curve $-1 20.171489584906126 -45.968258207479096 7.9998054785547197 0 0.60181501223851219 0.79863551827123203 I I #
point $-1 20.171489584906126 -43.528577519961672 11.237371193382042 #
point $-1 34.73730345124487 -45.968258207479138 7.9998054785546628 #
straight-curve $-1 0 -45.968258207479138 11.237371193382042 1 0 0 I I #
vertex $-1 $310 $411 #
point $-1 23.584652358173869 -43.949782345449201 9.0167733237298808 #
vertex $-1 $314 $412 #
point $-1 27.954396518075498 -43.949782345449201 9.0167733237298808 #
vertex $-1 $318 $413 #
point $-1 32.324140677977127 -43.949782345449201 9.0167733237298808 #
straight-curve $-1 -69.361247596667383 45.968258207479138 0 0 0 -1 I I #
point $-1 -69.361247596667383 -45.968258207479138 -11.237371193382042 #
straight-curve $-1 -69.361247596667383 0 -11.237371193382042 0 1 0 I I #
point $-1 -69.361247596667383 45.968258207479138 -11.237371193382042 #
coedge $-1 $340 $339 $392 $414 reversed $160 $-1 #
coedge $-1 $345 $341 $391 $414 forward $249 $-1 #
vertex $-1 $342 $415 #
straight-curve $-1 0 45.968258207479138 11.237371193382042 -1 0 0 I I #
point $-1 -58.551662654062071 45.968258207479138 11.237371193382042 #
vertex $-1 $414 $416 #
straight-curve $-1 0 -45.968258207479138 11.237371193382042 1 0 0 I I #
straight-curve $-1 -69.361247596667383 -45.968258207479138 0 0 0 -1 I I #
straight-curve $-1 -69.361247596667383 45.968258207479138 0 0 0 -1 I I #
straight-curve $-1 58.551662654062056 -45.968258207479138 4.432926364241359 0 0 -1 I I #
straight-curve $-1 0 -45.968258207479138 11.237371193382042 1 0 0 I I #
straight-curve $-1 0 45.968258207479138 11.237371193382042 -1 0 0 I I #
point $-1 58.551662654062056 -45.968258207479138 11.237371193382042 #
straight-curve $-1 69.361247596667383 0 11.237371193382042 0 1 0 I I #
point $-1 69.361247596667383 45.968258207479138 11.237371193382042 #
point $-1 69.361247596667383 -45.968258207479138 11.237371193382042 #
straight-curve $-1 20.171489584906126 -45.968258207479138 45.742542810544215 0 0 -1 I I #
point $-1 20.171489584906126 -45.968258207479138 11.237371193382042 #
straight-curve $-1 13.727198259037749 -45.968258207479138 7.999805478554662 1 0 0 I I #
point $-1 20.171489584906126 -45.968258207479138 7.9998054785546628 #
point $-1 23.084652358173869 -43.550464586313588 8.7158658176106254 #
point $-1 27.454396518075498 -43.550464586313588 8.7158658176106254 #
point $-1 31.824140677977127 -43.550464586313588 8.7158658176106254 #
edge $-1 $393 -45.968258207479138 $396 45.968258207479138 $391 $417 forward 7 unknown #
point $-1 -69.361247596667383 45.968258207479138 11.237371193382042 #
point $-1 -69.361247596667383 -45.968258207479138 11.237371193382042 #
straight-curve $-1 -69.361247596667383 0 11.237371193382042 0 -1 0 I I #
End-of-ACIS-data 