500 0 11 0           
7 Unknown 11 ACIS 5.0 NT 24 Fri Mar 26 03:23:45 1999 
-1 9.9999999999999995e-007 1e-010 
body $-1 $11 $-1 $12 #
body $-1 $13 $-1 $14 #
body $-1 $15 $-1 $16 #
body $-1 $17 $-1 $18 #
body $-1 $19 $-1 $20 #
body $-1 $21 $-1 $22 #
body $-1 $23 $-1 $24 #
body $-1 $25 $-1 $26 #
body $-1 $27 $-1 $28 #
body $-1 $29 $-1 $30 #
body $-1 $31 $-1 $32 #
lump $-1 $-1 $33 $0 #
transform $-1 1 0 0 0 1 0 0 0 1 44.586321604052856 18.000262885566993 7.8367915974279496 1 rotate no_reflect no_shear #
lump $-1 $-1 $34 $1 #
transform $-1 1 0 0 0 1 0 0 0 1 44.586321604052856 18.000262885566993 7.8367915974279496 1 rotate no_reflect no_shear #
lump $-1 $-1 $35 $2 #
transform $-1 1 0 0 0 1 0 0 0 1 44.586321604052856 18.000262885566993 7.8367915974279496 1 rotate no_reflect no_shear #
lump $-1 $-1 $36 $3 #
transform $-1 1 0 0 0 1 0 0 0 1 44.586321604052856 18.000262885566993 7.8367915974279496 1 rotate no_reflect no_shear #
lump $-1 $-1 $37 $4 #
transform $-1 1 0 0 0 1 0 0 0 1 44.586321604052856 18.000262885566993 7.8367915974279496 1 rotate no_reflect no_shear #
lump $-1 $-1 $38 $5 #
transform $-1 1 0 0 0 1 0 0 0 1 44.586321604052856 18.000262885566993 7.8367915974279496 1 rotate no_reflect no_shear #
lump $-1 $-1 $39 $6 #
transform $-1 1 0 0 0 1 0 0 0 1 44.586321604052856 18.000262885566993 7.8367915974279496 1 rotate no_reflect no_shear #
lump $-1 $-1 $40 $7 #
transform $-1 1 0 0 0 1 0 0 0 1 44.586321604052856 18.000262885566993 7.8367915974279496 1 rotate no_reflect no_shear #
lump $-1 $-1 $41 $8 #
transform $-1 1 0 0 0 1 0 0 0 1 44.586321604052856 18.000262885566993 7.8367915974279496 1 rotate no_reflect no_shear #
lump $-1 $-1 $42 $9 #
transform $-1 1 0 0 0 1 0 0 0 1 44.586321604052856 18.000262885566993 7.8367915974279496 1 rotate no_reflect no_shear #
lump $-1 $-1 $43 $10 #
transform $-1 1 0 0 0 1 0 0 0 1 44.586321604052856 18.000262885566993 7.8367915974279496 1 rotate no_reflect no_shear #
shell $-1 $-1 $-1 $44 $-1 $11 #
shell $-1 $-1 $-1 $45 $-1 $13 #
shell $-1 $-1 $-1 $46 $-1 $15 #
shell $-1 $-1 $-1 $47 $-1 $17 #
shell $-1 $-1 $-1 $48 $-1 $19 #
shell $-1 $-1 $-1 $49 $-1 $21 #
shell $-1 $-1 $-1 $50 $-1 $23 #
shell $-1 $-1 $-1 $51 $-1 $25 #
shell $-1 $-1 $-1 $52 $-1 $27 #
shell $-1 $-1 $-1 $53 $-1 $29 #
shell $-1 $-1 $-1 $54 $-1 $31 #
face $-1 $55 $56 $33 $-1 $57 forward single #
face $-1 $58 $59 $34 $-1 $60 forward single #
face $-1 $61 $62 $35 $-1 $63 reversed single #
face $-1 $64 $65 $36 $-1 $66 forward single #
face $-1 $67 $68 $37 $-1 $69 forward single #
face $-1 $70 $71 $38 $-1 $72 reversed single #
face $-1 $73 $74 $39 $-1 $75 forward single #
face $-1 $76 $77 $40 $-1 $78 forward single #
face $-1 $79 $80 $41 $-1 $81 reversed single #
face $-1 $82 $83 $42 $-1 $84 forward single #
face $-1 $85 $86 $43 $-1 $87 forward single #
face $-1 $88 $89 $33 $-1 $90 reversed single #
loop $-1 $-1 $91 $44 #
plane-surface $-1 0 0 7.8367915974279496 0 0 1 1 0 0 forward_v I I I I #
face $-1 $92 $93 $34 $-1 $94 reversed single #
loop $-1 $-1 $95 $45 #
plane-surface $-1 0 -18.000262885566993 0 0 1 0 0 0 1 forward_v I I I I #
face $-1 $96 $97 $35 $-1 $98 reversed single #
loop $-1 $-1 $99 $46 #
plane-surface $-1 -105.40191875746962 -9.3050754033199787 66.717952705087498 0 1 0 -0.68199836817093118 0 0.7313536940579346 forward_v I I I I #
face $-1 $100 $101 $36 $-1 $102 forward single #
loop $-1 $103 $104 $47 #
cone-surface $-1 -40.743731346920192 -7.5951155409249225 4.1912062355146107 0.68199836817093118 0 -0.7313536940579346 0.3656768470289673 0 0.34099918408546559 1 I I 0 1 0.5 forward I I I I #
face $-1 $105 $106 $37 $-1 $107 forward single #
loop $-1 $108 $109 $48 #
cone-surface $-1 -40.743731346920192 -5.0301757473323399 4.1912062355146107 0.68199836817093118 0 -0.7313536940579346 0.3656768470289673 0 0.34099918408546559 1 I I 0 1 0.5 forward I I I I #
face $-1 $110 $111 $38 $-1 $112 reversed single #
loop $-1 $-1 $113 $49 #
plane-surface $-1 -105.40191875746962 0.41589863427605955 66.717952705087498 0 1 0 -0.68199836817093118 0 0.7313536940579346 forward_v I I I I #
face $-1 $114 $115 $39 $-1 $116 forward single #
loop $-1 $117 $118 $50 #
cone-surface $-1 -40.743731346920192 2.1258584966711176 4.1912062355146107 0.68199836817093118 0 -0.7313536940579346 0.3656768470289673 0 0.34099918408546559 1 I I 0 1 0.5 forward I I I I #
face $-1 $119 $120 $40 $-1 $121 forward single #
loop $-1 $122 $123 $51 #
cone-surface $-1 -40.743731346920192 4.6907982902636967 4.1912062355146107 0.68199836817093118 0 -0.7313536940579346 0.3656768470289673 0 0.34099918408546559 1 I I 0 1 0.5 forward I I I I #
face $-1 $124 $125 $41 $-1 $126 reversed single #
loop $-1 $-1 $127 $52 #
plane-surface $-1 -105.40191875746962 10.1368726718721 66.717952705087498 0 1 0 -0.68199836817093118 0 0.7313536940579346 forward_v I I I I #
face $-1 $128 $129 $42 $-1 $130 forward single #
loop $-1 $131 $132 $53 #
cone-surface $-1 -40.743731346920192 11.846832534267154 4.1912062355146107 0.68199836817093118 0 -0.7313536940579346 0.3656768470289673 0 0.34099918408546559 1 I I 0 1 0.5 forward I I I I #
face $-1 $133 $134 $43 $-1 $135 forward single #
loop $-1 $136 $137 $54 #
cone-surface $-1 -40.743731346920192 14.411772327859733 4.1912062355146107 0.68199836817093118 0 -0.7313536940579346 0.3656768470289673 0 0.34099918408546559 1 I I 0 1 0.5 forward I I I I #
face $-1 $138 $139 $33 $-1 $140 reversed single #
loop $-1 $-1 $141 $55 #
plane-surface $-1 0 0 -7.8367915974279496 0 0 1 1 0 0 forward_v I I I I #
coedge $-1 $142 $143 $144 $145 forward $56 $-1 #
face $-1 $146 $147 $34 $-1 $148 reversed single #
loop $-1 $-1 $149 $58 #
plane-surface $-1 0 0 -7.8367915974279496 0 0 1 1 0 0 forward_v I I I I #
coedge $-1 $150 $151 $152 $153 forward $59 $-1 #
face $-1 $154 $155 $35 $-1 $156 reversed single #
loop $-1 $-1 $157 $61 #
plane-surface $-1 -44.586321604052848 -6.3126456441286312 1.5012106859291947 -0.68199836817093118 0 0.7313536940579346 0.7313536940579346 0 0.68199836817093118 forward_v I I I I #
coedge $-1 $158 $159 $160 $161 reversed $62 $-1 #
face $-1 $-1 $162 $36 $-1 $163 forward single #
loop $-1 $164 $165 $64 #
cone-surface $-1 -40.127680786896164 -7.5951155409249225 3.5305729058361601 0.68199836817093118 0 -0.7313536940579346 0.18283842351448365 0 0.17049959204273279 1 I I -0.70710678118654746 0.70710678118654746 0.25 forward I I I I #
loop $-1 $-1 $166 $47 #
coedge $-1 $104 $104 $167 $168 reversed $65 $-1 #
face $-1 $-1 $169 $37 $-1 $170 forward single #
loop $-1 $171 $172 $67 #
cone-surface $-1 -40.127680786896164 -5.0301757473323399 3.5305729058361601 0.68199836817093118 0 -0.7313536940579346 0.18283842351448365 0 0.17049959204273279 1 I I -0.70710678118654746 0.70710678118654746 0.25 forward I I I I #
loop $-1 $-1 $173 $48 #
coedge $-1 $109 $109 $174 $175 reversed $68 $-1 #
face $-1 $176 $177 $38 $-1 $178 reversed single #
loop $-1 $-1 $179 $70 #
plane-surface $-1 -44.586321604052848 3.4083283934674071 1.5012106859291947 -0.68199836817093118 0 0.7313536940579346 0.7313536940579346 0 0.68199836817093118 forward_v I I I I #
coedge $-1 $180 $181 $182 $183 reversed $71 $-1 #
face $-1 $-1 $184 $39 $-1 $185 forward single #
loop $-1 $186 $187 $73 #
cone-surface $-1 -40.127680786896164 2.1258584966711176 3.5305729058361601 0.68199836817093118 0 -0.7313536940579346 0.18283842351448365 0 0.17049959204273279 1 I I -0.70710678118654746 0.70710678118654746 0.25 forward I I I I #
loop $-1 $-1 $188 $50 #
coedge $-1 $118 $118 $189 $190 reversed $74 $-1 #
face $-1 $-1 $191 $40 $-1 $192 forward single #
loop $-1 $193 $194 $76 #
cone-surface $-1 -40.127680786896164 4.6907982902636967 3.5305729058361601 0.68199836817093118 0 -0.7313536940579346 0.18283842351448365 0 0.17049959204273279 1 I I -0.70710678118654746 0.70710678118654746 0.25 forward I I I I #
loop $-1 $-1 $195 $51 #
coedge $-1 $123 $123 $196 $197 reversed $77 $-1 #
face $-1 $198 $199 $41 $-1 $200 reversed single #
loop $-1 $-1 $201 $79 #
plane-surface $-1 -44.586321604052848 13.129302431063447 1.5012106859291947 -0.68199836817093118 0 0.7313536940579346 0.7313536940579346 0 0.68199836817093118 forward_v I I I I #
coedge $-1 $202 $203 $204 $205 reversed $80 $-1 #
face $-1 $-1 $206 $42 $-1 $207 forward single #
loop $-1 $208 $209 $82 #
cone-surface $-1 -40.127680786896164 11.846832534267154 3.5305729058361601 0.68199836817093118 0 -0.7313536940579346 0.18283842351448365 0 0.17049959204273279 1 I I -0.70710678118654746 0.70710678118654746 0.25 forward I I I I #
loop $-1 $-1 $210 $53 #
coedge $-1 $132 $132 $211 $212 reversed $83 $-1 #
face $-1 $-1 $213 $43 $-1 $214 forward single #
loop $-1 $215 $216 $85 #
cone-surface $-1 -40.127680786896164 14.411772327859733 3.5305729058361601 0.68199836817093118 0 -0.7313536940579346 0.18283842351448365 0 0.17049959204273279 1 I I -0.70710678118654746 0.70710678118654746 0.25 forward I I I I #
loop $-1 $-1 $217 $54 #
coedge $-1 $137 $137 $218 $219 reversed $86 $-1 #
face $-1 $220 $221 $33 $-1 $222 reversed single #
loop $-1 $-1 $223 $88 #
plane-surface $-1 0 -18.000262885566993 0 0 1 0 0 0 1 forward_v I I I I #
coedge $-1 $224 $225 $226 $227 forward $89 $-1 #
coedge $-1 $228 $91 $229 $230 forward $56 $-1 #
coedge $-1 $91 $228 $231 $232 forward $56 $-1 #
coedge $-1 $233 $234 $91 $145 reversed $235 $-1 #
edge $-1 $236 -18.000262885566993 $237 18.000262885566993 $144 $238 forward 7 unknown #
face $-1 $239 $240 $34 $-1 $241 reversed single #
loop $-1 $-1 $242 $92 #
plane-surface $-1 -31.005953648304875 -24.837866543912863 0 0 1 0 0 0 1 forward_v I I I I #
coedge $-1 $243 $244 $151 $245 forward $93 $-1 #
coedge $-1 $246 $95 $247 $248 reversed $59 $-1 #
coedge $-1 $95 $246 $149 $245 reversed $59 $-1 #
coedge $-1 $249 $250 $95 $153 reversed $240 $-1 #
edge $-1 $251 -7.8367915974279496 $252 7.8367915974279496 $152 $253 forward 7 unknown #
face $-1 $254 $255 $35 $-1 $256 reversed single #
loop $-1 $-1 $257 $96 #
plane-surface $-1 -105.40191875746962 -3.3202158849372836 66.717952705087498 0 -1 0 0.68199836817093118 0 -0.7313536940579346 forward_v I I I I #
coedge $-1 $258 $259 $260 $261 reversed $97 $-1 #
coedge $-1 $159 $99 $262 $263 reversed $62 $-1 #
coedge $-1 $99 $158 $258 $264 reversed $62 $-1 #
coedge $-1 $260 $265 $99 $161 forward $266 $-1 #
edge $-1 $267 8.1146377746819525 $268 14.908716352984705 $160 $269 forward 7 unknown #
loop $-1 $-1 $167 $100 #
plane-surface $-1 -44.586321604052848 -6.3126456441286312 1.5012106859291947 -0.68199836817093118 0 0.7313536940579346 0.7313536940579346 0 0.68199836817093118 forward_v I I I I #
loop $-1 $-1 $270 $64 #
coedge $-1 $165 $165 $166 $271 reversed $101 $-1 #
coedge $-1 $166 $166 $165 $271 forward $103 $-1 #
coedge $-1 $167 $167 $104 $168 forward $162 $-1 #
edge $-1 $272 0 $272 6.2831853071796004 $167 $273 forward 7 unknown #
loop $-1 $-1 $174 $105 #
plane-surface $-1 -44.586321604052848 -6.3126456441286312 1.5012106859291947 -0.68199836817093118 0 0.7313536940579346 0.7313536940579346 0 0.68199836817093118 forward_v I I I I #
loop $-1 $-1 $274 $67 #
coedge $-1 $172 $172 $173 $275 reversed $106 $-1 #
coedge $-1 $173 $173 $172 $275 forward $108 $-1 #
coedge $-1 $174 $174 $109 $175 forward $169 $-1 #
edge $-1 $276 0 $276 6.2831853071796004 $174 $277 forward 7 unknown #
face $-1 $278 $279 $38 $-1 $280 forward single #
loop $-1 $-1 $281 $110 #
plane-surface $-1 -105.40191875746962 6.4007581526587547 66.717952705087498 0 -1 0 0.68199836817093118 0 -0.7313536940579346 forward_v I I I I #
coedge $-1 $282 $283 $284 $285 reversed $111 $-1 #
coedge $-1 $181 $113 $286 $287 reversed $71 $-1 #
coedge $-1 $113 $180 $282 $288 reversed $71 $-1 #
coedge $-1 $284 $289 $113 $183 forward $279 $-1 #
edge $-1 $290 8.1146377746819525 $291 14.908716352984705 $182 $292 forward 7 unknown #
loop $-1 $-1 $189 $114 #
plane-surface $-1 -44.586321604052848 3.4083283934674071 1.5012106859291947 -0.68199836817093118 0 0.7313536940579346 0.7313536940579346 0 0.68199836817093118 forward_v I I I I #
loop $-1 $-1 $293 $73 #
coedge $-1 $187 $187 $188 $294 reversed $115 $-1 #
coedge $-1 $188 $188 $187 $294 forward $117 $-1 #
coedge $-1 $189 $189 $118 $190 forward $184 $-1 #
edge $-1 $295 0 $295 6.2831853071796004 $189 $296 forward 7 unknown #
loop $-1 $-1 $196 $119 #
plane-surface $-1 -44.586321604052848 3.4083283934674071 1.5012106859291947 -0.68199836817093118 0 0.7313536940579346 0.7313536940579346 0 0.68199836817093118 forward_v I I I I #
loop $-1 $-1 $297 $76 #
coedge $-1 $194 $194 $195 $298 reversed $120 $-1 #
coedge $-1 $195 $195 $194 $298 forward $122 $-1 #
coedge $-1 $196 $196 $123 $197 forward $191 $-1 #
edge $-1 $299 0 $299 6.2831853071796004 $196 $300 forward 7 unknown #
face $-1 $301 $302 $41 $-1 $303 forward single #
loop $-1 $-1 $304 $124 #
plane-surface $-1 -105.40191875746962 16.121732190254797 66.717952705087498 0 -1 0 0.68199836817093118 0 -0.7313536940579346 forward_v I I I I #
coedge $-1 $305 $306 $307 $308 reversed $125 $-1 #
coedge $-1 $203 $127 $309 $310 reversed $80 $-1 #
coedge $-1 $127 $202 $305 $311 reversed $80 $-1 #
coedge $-1 $307 $312 $127 $205 forward $302 $-1 #
edge $-1 $313 8.1146377746819525 $314 14.908716352984705 $204 $315 forward 7 unknown #
loop $-1 $-1 $211 $128 #
plane-surface $-1 -44.586321604052848 13.129302431063447 1.5012106859291947 -0.68199836817093118 0 0.7313536940579346 0.7313536940579346 0 0.68199836817093118 forward_v I I I I #
loop $-1 $-1 $316 $82 #
coedge $-1 $209 $209 $210 $317 reversed $129 $-1 #
coedge $-1 $210 $210 $209 $317 forward $131 $-1 #
coedge $-1 $211 $211 $132 $212 forward $206 $-1 #
edge $-1 $318 0 $318 6.2831853071796004 $211 $319 forward 7 unknown #
loop $-1 $-1 $218 $133 #
plane-surface $-1 -44.586321604052848 13.129302431063447 1.5012106859291947 -0.68199836817093118 0 0.7313536940579346 0.7313536940579346 0 0.68199836817093118 forward_v I I I I #
loop $-1 $-1 $320 $85 #
coedge $-1 $216 $216 $217 $321 reversed $134 $-1 #
coedge $-1 $217 $217 $216 $321 forward $136 $-1 #
coedge $-1 $218 $218 $137 $219 forward $213 $-1 #
edge $-1 $322 0 $322 6.2831853071796004 $218 $323 forward 7 unknown #
face $-1 $324 $325 $33 $-1 $326 reversed single #
loop $-1 $-1 $327 $138 #
plane-surface $-1 -44.586321604052856 0 0 1 0 0 0 0 -1 forward_v I I I I #
coedge $-1 $328 $231 $329 $330 forward $139 $-1 #
coedge $-1 $331 $141 $328 $332 forward $89 $-1 #
coedge $-1 $141 $331 $333 $334 forward $89 $-1 #
coedge $-1 $234 $233 $141 $227 reversed $235 $-1 #
edge $-1 $335 -18.000262885566993 $336 18.000262885566993 $226 $337 forward 7 unknown #
coedge $-1 $143 $142 $338 $339 forward $56 $-1 #
coedge $-1 $340 $341 $142 $230 reversed $325 $-1 #
edge $-1 $237 -44.586321604052856 $342 44.586321604052856 $229 $343 forward 7 unknown #
coedge $-1 $223 $344 $143 $232 reversed $139 $-1 #
edge $-1 $345 -44.586321604052856 $236 44.586321604052856 $231 $346 forward 7 unknown #
coedge $-1 $226 $144 $344 $347 forward $235 $-1 #
coedge $-1 $144 $226 $340 $348 reversed $235 $-1 #
loop $-1 $-1 $233 $324 #
vertex $-1 $145 $349 #
vertex $-1 $145 $350 #
straight-curve $-1 44.586321604052856 0 7.8367915974279496 0 1 0 I I #
face $-1 $351 $352 $34 $-1 $353 reversed single #
loop $-1 $-1 $152 $146 #
plane-surface $-1 -33.099168887412795 -21.419064714739928 0 1 0 0 0 0 -1 forward_v I I I I #
coedge $-1 $354 $355 $356 $357 forward $147 $-1 #
coedge $-1 $358 $149 $359 $360 forward $93 $-1 #
coedge $-1 $149 $358 $249 $361 forward $93 $-1 #
edge $-1 $251 -33.099168887412795 $362 -28.912738409196955 $149 $363 forward 7 unknown #
coedge $-1 $151 $150 $364 $365 forward $59 $-1 #
coedge $-1 $366 $367 $150 $248 forward $368 $-1 #
edge $-1 $369 28.912738409196955 $252 33.099168887412795 $247 $370 forward 7 unknown #
coedge $-1 $356 $152 $244 $361 reversed $240 $-1 #
coedge $-1 $152 $356 $366 $371 reversed $240 $-1 #
vertex $-1 $245 $372 #
vertex $-1 $371 $373 #
straight-curve $-1 -33.099168887412795 -18.000262885566993 0 0 0 1 I I #
face $-1 $-1 $266 $35 $-1 $374 forward single #
loop $-1 $-1 $375 $154 #
plane-surface $-1 -44.586321604052856 0 0 1 0 0 0 0 -1 forward_v I I I I #
coedge $-1 $376 $377 $378 $379 reversed $155 $-1 #
coedge $-1 $380 $157 $159 $264 forward $97 $-1 #
coedge $-1 $157 $380 $376 $381 forward $97 $-1 #
coedge $-1 $378 $160 $157 $261 forward $266 $-1 #
edge $-1 $268 -6.1487525812556632 $382 -0.16389306287296801 $260 $383 forward 7 unknown #
coedge $-1 $384 $385 $158 $263 forward $255 $-1 #
edge $-1 $386 -31.857765666614561 $267 -25.522184755115799 $262 $387 forward 7 unknown #
edge $-1 $268 -9.2897303090186458 $386 9.739602292442716e-015 $159 $388 forward 7 unknown #
coedge $-1 $160 $378 $384 $389 forward $266 $-1 #
loop $-1 $-1 $378 $254 #
vertex $-1 $263 $390 #
vertex $-1 $161 $391 #
straight-curve $-1 -52.700959378734808 -9.3050754033199787 7.8367915974279505 1 0 0 I I #
coedge $-1 $270 $270 $-1 $392 reversed $164 $-1 #
edge $-1 $393 0 $393 6.2831853071796004 $165 $394 forward 7 unknown #
vertex $-1 $168 $395 #
ellipse-curve $-1 -41.189282314901483 -7.5951155409249225 4.6690011416785691 -0.68199836817093118 0 0.7313536940579346 0.3656768470289673 0 0.34099918408546559 1 I I #
coedge $-1 $274 $274 $-1 $396 reversed $171 $-1 #
edge $-1 $397 0 $397 6.2831853071796004 $172 $398 forward 7 unknown #
vertex $-1 $175 $399 #
ellipse-curve $-1 -41.189282314901483 -5.0301757473323399 4.6690011416785691 -0.68199836817093118 0 0.7313536940579346 0.3656768470289673 0 0.34099918408546559 1 I I #
face $-1 $-1 $400 $38 $-1 $401 reversed single #
loop $-1 $-1 $182 $176 #
plane-surface $-1 0 0 7.8367915974279496 0 0 1 1 0 0 forward_v I I I I #
coedge $-1 $402 $403 $404 $405 reversed $177 $-1 #
coedge $-1 $406 $179 $181 $288 forward $111 $-1 #
coedge $-1 $179 $406 $402 $407 forward $111 $-1 #
coedge $-1 $404 $182 $179 $285 forward $279 $-1 #
edge $-1 $291 -1.288265562457644 $408 4.6965939559250511 $284 $409 forward 7 unknown #
coedge $-1 $410 $411 $180 $287 forward $400 $-1 #
edge $-1 $412 -31.857765666614561 $290 -25.522184755115799 $286 $413 forward 7 unknown #
edge $-1 $291 -9.2897303090186458 $412 9.739602292442716e-015 $181 $414 forward 7 unknown #
coedge $-1 $182 $404 $410 $415 forward $279 $-1 #
vertex $-1 $183 $416 #
vertex $-1 $183 $417 #
straight-curve $-1 -52.700959378734808 0.41589863427605955 7.8367915974279505 1 0 0 I I #
coedge $-1 $293 $293 $-1 $418 reversed $186 $-1 #
edge $-1 $419 0 $419 6.2831853071796004 $187 $420 forward 7 unknown #
vertex $-1 $190 $421 #
ellipse-curve $-1 -41.189282314901483 2.1258584966711176 4.6690011416785691 -0.68199836817093118 0 0.7313536940579346 0.3656768470289673 0 0.34099918408546559 1 I I #
coedge $-1 $297 $297 $-1 $422 reversed $193 $-1 #
edge $-1 $423 0 $423 6.2831853071796004 $194 $424 forward 7 unknown #
vertex $-1 $197 $425 #
ellipse-curve $-1 -41.189282314901483 4.6907982902636967 4.6690011416785691 -0.68199836817093118 0 0.7313536940579346 0.3656768470289673 0 0.34099918408546559 1 I I #
face $-1 $-1 $426 $41 $-1 $427 reversed single #
loop $-1 $-1 $204 $198 #
plane-surface $-1 0 0 7.8367915974279496 0 0 1 1 0 0 forward_v I I I I #
coedge $-1 $428 $429 $430 $431 reversed $199 $-1 #
coedge $-1 $432 $201 $203 $311 forward $125 $-1 #
coedge $-1 $201 $432 $428 $433 forward $125 $-1 #
coedge $-1 $430 $204 $201 $308 forward $302 $-1 #
edge $-1 $314 3.572221456340376 $434 9.5570809747230729 $307 $435 forward 7 unknown #
coedge $-1 $436 $437 $202 $310 forward $426 $-1 #
edge $-1 $438 -31.857765666614561 $313 -25.522184755115799 $309 $439 forward 7 unknown #
edge $-1 $314 -9.2897303090186458 $438 9.739602292442716e-015 $203 $440 forward 7 unknown #
coedge $-1 $204 $430 $436 $441 forward $302 $-1 #
vertex $-1 $205 $442 #
vertex $-1 $205 $443 #
straight-curve $-1 -52.700959378734808 10.1368726718721 7.8367915974279505 1 0 0 I I #
coedge $-1 $316 $316 $-1 $444 reversed $208 $-1 #
edge $-1 $445 0 $445 6.2831853071796004 $209 $446 forward 7 unknown #
vertex $-1 $212 $447 #
ellipse-curve $-1 -41.189282314901483 11.846832534267154 4.6690011416785691 -0.68199836817093118 0 0.7313536940579346 0.3656768470289673 0 0.34099918408546559 1 I I #
coedge $-1 $320 $320 $-1 $448 reversed $215 $-1 #
edge $-1 $449 0 $449 6.2831853071796004 $216 $450 forward 7 unknown #
vertex $-1 $219 $451 #
ellipse-curve $-1 -41.189282314901483 14.411772327859733 4.6690011416785691 -0.68199836817093118 0 0.7313536940579346 0.3656768470289673 0 0.34099918408546559 1 I I #
face $-1 $-1 $235 $33 $-1 $452 reversed single #
loop $-1 $-1 $340 $220 #
plane-surface $-1 0 18.000262885566993 0 0 -1 0 0 0 -1 forward_v I I I I #
coedge $-1 $453 $338 $341 $454 forward $221 $-1 #
coedge $-1 $344 $223 $224 $332 reversed $139 $-1 #
coedge $-1 $338 $453 $223 $330 reversed $221 $-1 #
edge $-1 $345 -7.8367915974279496 $455 7.8367915974279496 $329 $456 forward 7 unknown #
coedge $-1 $225 $224 $453 $457 forward $89 $-1 #
edge $-1 $336 -44.586321604052856 $455 44.586321604052856 $328 $458 forward 7 unknown #
coedge $-1 $341 $340 $225 $334 reversed $325 $-1 #
edge $-1 $459 -44.586321604052856 $335 44.586321604052856 $333 $460 forward 7 unknown #
vertex $-1 $227 $461 #
vertex $-1 $347 $462 #
straight-curve $-1 44.586321604052856 0 -7.8367915974279496 0 -1 0 I I #
coedge $-1 $327 $329 $228 $339 reversed $221 $-1 #
edge $-1 $342 -18.000262885566993 $345 18.000262885566993 $338 $463 forward 7 unknown #
coedge $-1 $333 $229 $234 $348 forward $325 $-1 #
coedge $-1 $229 $333 $327 $454 reversed $325 $-1 #
vertex $-1 $230 $464 #
straight-curve $-1 0 18.000262885566993 7.8367915974279496 -1 0 0 I I #
coedge $-1 $231 $328 $233 $347 reversed $139 $-1 #
vertex $-1 $339 $465 #
straight-curve $-1 0 -18.000262885566993 7.8367915974279496 1 0 0 I I #
edge $-1 $236 -7.8367915974279496 $336 7.8367915974279496 $233 $466 forward 7 unknown #
edge $-1 $237 -7.8367915974279496 $335 7.8367915974279496 $234 $467 forward 7 unknown #
point $-1 44.586321604052856 -18.000262885566993 7.8367915974279496 #
point $-1 44.586321604052856 18.000262885566993 7.8367915974279496 #
face $-1 $-1 $368 $34 $-1 $468 forward single #
loop $-1 $-1 $469 $239 #
plane-surface $-1 -28.912738409196955 -21.419064714739928 0 -1 0 0 0 0 1 forward_v I I I I #
coedge $-1 $470 $242 $358 $471 reversed $147 $-1 #
coedge $-1 $242 $470 $472 $473 reversed $147 $-1 #
coedge $-1 $250 $249 $242 $357 reversed $240 $-1 #
edge $-1 $474 -7.8367915974279496 $475 7.8367915974279496 $356 $476 forward 7 unknown #
coedge $-1 $244 $243 $354 $471 forward $93 $-1 #
coedge $-1 $364 $469 $243 $360 reversed $352 $-1 #
edge $-1 $362 -3.418801829172935 $477 3.418801829172935 $359 $478 forward 7 unknown #
edge $-1 $475 -3.418801829172935 $251 3.418801829172935 $249 $479 forward 7 unknown #
vertex $-1 $360 $480 #
straight-curve $-1 0 -18.000262885566993 -7.8367915974279496 1 0 0 I I #
coedge $-1 $481 $359 $246 $365 reversed $352 $-1 #
edge $-1 $369 -7.8367915974279496 $362 7.8367915974279496 $364 $482 forward 7 unknown #
coedge $-1 $472 $247 $250 $371 forward $368 $-1 #
coedge $-1 $247 $472 $481 $483 forward $368 $-1 #
loop $-1 $-1 $247 $351 #
vertex $-1 $248 $484 #
straight-curve $-1 0 -18.000262885566993 7.8367915974279496 -1 0 0 I I #
edge $-1 $252 -3.418801829172935 $474 3.418801829172935 $250 $485 forward 7 unknown #
point $-1 -33.099168887412795 -18.000262885566993 -7.8367915974279496 #
point $-1 -33.099168887412795 -18.000262885566993 7.8367915974279496 #
plane-surface $-1 0 0 7.8367915974279496 0 0 1 1 0 0 forward_v I I I I #
coedge $-1 $385 $384 $377 $486 forward $255 $-1 #
coedge $-1 $377 $257 $259 $381 reversed $155 $-1 #
coedge $-1 $257 $376 $375 $486 reversed $155 $-1 #
coedge $-1 $265 $260 $257 $379 forward $266 $-1 #
edge $-1 $382 -14.908716352984705 $487 -8.1146377746819525 $378 $488 forward 7 unknown #
coedge $-1 $259 $258 $385 $489 reversed $97 $-1 #
edge $-1 $490 -9.739602292442716e-015 $382 9.2897303090186458 $376 $491 forward 7 unknown #
vertex $-1 $261 $492 #
straight-curve $-1 -37.792243025750111 -3.1563228220643156 7.8367915974279496 0 1 0 I I #
coedge $-1 $375 $262 $265 $389 reversed $255 $-1 #
coedge $-1 $262 $375 $380 $489 forward $255 $-1 #
vertex $-1 $263 $493 #
straight-curve $-1 -44.586321604052856 -9.3050754033199787 33.358976352543749 0 0 1 I I #
straight-curve $-1 -44.586321604052848 -9.3050754033199787 1.5012106859291947 -0.7313536940579346 0 -0.68199836817093118 I I #
edge $-1 $487 3.3202158849372836 $267 9.3050754033199787 $384 $494 forward 7 unknown #
point $-1 -44.586321604052856 -9.3050754033199787 7.8367915974279496 #
point $-1 -37.792243025750103 -9.3050754033199787 7.8367915974279505 #
edge $-1 $495 1 $495 0 $270 $-1 forward 7 unknown #
vertex $-1 $271 $496 #
ellipse-curve $-1 -40.298180378938895 -7.5951155409249225 3.7134113293506439 -0.68199836817093118 0 0.7313536940579346 0.3656768470289673 0 0.34099918408546559 1 I I #
point $-1 -40.823605467872518 -7.5951155409249225 5.0100003257640431 #
edge $-1 $497 1 $497 0 $274 $-1 forward 7 unknown #
vertex $-1 $275 $498 #
ellipse-curve $-1 -40.298180378938895 -5.0301757473323399 3.7134113293506439 -0.68199836817093118 0 0.7313536940579346 0.3656768470289673 0 0.34099918408546559 1 I I #
point $-1 -40.823605467872518 -5.0301757473323399 5.0100003257640431 #
loop $-1 $-1 $286 $278 #
plane-surface $-1 -44.586321604052856 0 0 1 0 0 0 0 -1 forward_v I I I I #
coedge $-1 $403 $281 $283 $407 reversed $177 $-1 #
coedge $-1 $281 $402 $499 $500 reversed $177 $-1 #
coedge $-1 $289 $284 $281 $405 forward $279 $-1 #
edge $-1 $408 -14.908716352984705 $501 -8.1146377746819525 $404 $502 forward 7 unknown #
coedge $-1 $283 $282 $411 $503 reversed $111 $-1 #
edge $-1 $504 -9.739602292442716e-015 $408 9.2897303090186458 $402 $505 forward 7 unknown #
vertex $-1 $285 $506 #
straight-curve $-1 -37.792243025750111 1.7041641967337036 7.8367915974279496 0 1 0 I I #
coedge $-1 $499 $286 $289 $415 reversed $400 $-1 #
coedge $-1 $286 $499 $406 $503 forward $400 $-1 #
vertex $-1 $287 $507 #
straight-curve $-1 -44.586321604052856 0.41589863427605955 33.358976352543749 0 0 1 I I #
straight-curve $-1 -44.586321604052848 0.41589863427605955 1.5012106859291947 -0.7313536940579346 0 -0.68199836817093118 I I #
edge $-1 $501 -6.4007581526587547 $290 -0.41589863427605955 $410 $508 forward 7 unknown #
point $-1 -44.586321604052856 0.41589863427605955 7.8367915974279496 #
point $-1 -37.792243025750103 0.41589863427605955 7.8367915974279505 #
edge $-1 $509 1 $509 0 $293 $-1 forward 7 unknown #
vertex $-1 $294 $510 #
ellipse-curve $-1 -40.298180378938895 2.1258584966711176 3.7134113293506439 -0.68199836817093118 0 0.7313536940579346 0.3656768470289673 0 0.34099918408546559 1 I I #
point $-1 -40.823605467872518 2.1258584966711176 5.0100003257640431 #
edge $-1 $511 1 $511 0 $297 $-1 forward 7 unknown #
vertex $-1 $298 $512 #
ellipse-curve $-1 -40.298180378938895 4.6907982902636967 3.7134113293506439 -0.68199836817093118 0 0.7313536940579346 0.3656768470289673 0 0.34099918408546559 1 I I #
point $-1 -40.823605467872518 4.6907982902636967 5.0100003257640431 #
loop $-1 $-1 $309 $301 #
plane-surface $-1 -44.586321604052856 0 0 1 0 0 0 0 -1 forward_v I I I I #
coedge $-1 $429 $304 $306 $433 reversed $199 $-1 #
coedge $-1 $304 $428 $513 $514 reversed $199 $-1 #
coedge $-1 $312 $307 $304 $431 forward $302 $-1 #
edge $-1 $434 -14.908716352984705 $515 -8.1146377746819525 $430 $516 forward 7 unknown #
coedge $-1 $306 $305 $437 $517 reversed $125 $-1 #
edge $-1 $518 -9.739602292442716e-015 $434 9.2897303090186458 $428 $519 forward 7 unknown #
vertex $-1 $308 $520 #
straight-curve $-1 -37.792243025750111 6.5646512155317236 7.8367915974279496 0 1 0 I I #
coedge $-1 $513 $309 $312 $441 reversed $426 $-1 #
coedge $-1 $309 $513 $432 $517 forward $426 $-1 #
vertex $-1 $310 $521 #
straight-curve $-1 -44.586321604052856 10.1368726718721 33.358976352543749 0 0 1 I I #
straight-curve $-1 -44.586321604052848 10.1368726718721 1.5012106859291947 -0.7313536940579346 0 -0.68199836817093118 I I #
edge $-1 $515 -16.121732190254797 $313 -10.1368726718721 $436 $522 forward 7 unknown #
point $-1 -44.586321604052856 10.1368726718721 7.8367915974279496 #
point $-1 -37.792243025750103 10.1368726718721 7.8367915974279505 #
edge $-1 $523 1 $523 0 $316 $-1 forward 7 unknown #
vertex $-1 $317 $524 #
ellipse-curve $-1 -40.298180378938895 11.846832534267154 3.7134113293506439 -0.68199836817093118 0 0.7313536940579346 0.3656768470289673 0 0.34099918408546559 1 I I #
point $-1 -40.823605467872518 11.846832534267154 5.0100003257640431 #
edge $-1 $525 1 $525 0 $320 $-1 forward 7 unknown #
vertex $-1 $321 $526 #
ellipse-curve $-1 -40.298180378938895 14.411772327859733 3.7134113293506439 -0.68199836817093118 0 0.7313536940579346 0.3656768470289673 0 0.34099918408546559 1 I I #
point $-1 -40.823605467872518 14.411772327859733 5.0100003257640431 #
plane-surface $-1 44.586321604052856 0 0 -1 0 0 0 0 1 forward_v I I I I #
coedge $-1 $329 $327 $331 $457 reversed $221 $-1 #
edge $-1 $342 -7.8367915974279496 $459 7.8367915974279496 $341 $527 forward 7 unknown #
vertex $-1 $457 $528 #
straight-curve $-1 -44.586321604052856 -18.000262885566993 0 0 0 -1 I I #
edge $-1 $455 -18.000262885566993 $459 18.000262885566993 $453 $529 forward 7 unknown #
straight-curve $-1 0 -18.000262885566993 -7.8367915974279496 -1 0 0 I I #
vertex $-1 $334 $530 #
straight-curve $-1 0 18.000262885566993 -7.8367915974279496 1 0 0 I I #
point $-1 44.586321604052856 18.000262885566993 -7.8367915974279496 #
point $-1 44.586321604052856 -18.000262885566993 -7.8367915974279496 #
straight-curve $-1 -44.586321604052856 0 7.8367915974279496 0 -1 0 I I #
point $-1 -44.586321604052856 18.000262885566993 7.8367915974279496 #
point $-1 -44.586321604052856 -18.000262885566993 7.8367915974279496 #
straight-curve $-1 44.586321604052856 -18.000262885566993 0 0 0 -1 I I #
straight-curve $-1 44.586321604052856 18.000262885566993 0 0 0 -1 I I #
plane-surface $-1 0 0 7.8367915974279496 0 0 1 1 0 0 forward_v I I I I #
coedge $-1 $359 $481 $470 $531 forward $352 $-1 #
coedge $-1 $355 $354 $469 $531 reversed $147 $-1 #
edge $-1 $477 -2.09321523910792 $475 2.09321523910792 $354 $532 forward 7 unknown #
coedge $-1 $367 $366 $355 $473 forward $368 $-1 #
edge $-1 $474 -2.09321523910792 $533 2.09321523910792 $355 $534 forward 7 unknown #
vertex $-1 $371 $535 #
vertex $-1 $361 $536 #
straight-curve $-1 -33.099168887412795 -24.837866543912863 0 0 0 -1 I I #
vertex $-1 $531 $537 #
straight-curve $-1 -28.912738409196955 -21.419064714739928 -7.8367915974279496 0 -1 0 I I #
straight-curve $-1 -33.099168887412795 -21.419064714739928 -7.8367915974279496 0 1 0 I I #
point $-1 -28.912738409196955 -18.000262885566993 -7.8367915974279496 #
coedge $-1 $469 $364 $367 $483 reversed $352 $-1 #
straight-curve $-1 -28.912738409196955 -18.000262885566993 0 0 0 -1 I I #
edge $-1 $533 -3.418801829172935 $369 3.418801829172935 $481 $538 forward 7 unknown #
point $-1 -28.912738409196955 -18.000262885566993 7.8367915974279496 #
straight-curve $-1 -33.099168887412795 -21.419064714739928 7.8367915974279496 0 -1 0 I I #
edge $-1 $487 25.522184755115799 $490 31.857765666614561 $375 $539 forward 7 unknown #
vertex $-1 $389 $540 #
straight-curve $-1 -52.700959378734808 -3.3202158849372836 7.8367915974279505 -1 0 0 I I #
edge $-1 $490 0.16389306287296801 $386 6.1487525812556632 $385 $541 forward 7 unknown #
vertex $-1 $489 $542 #
straight-curve $-1 -44.586321604052848 -3.3202158849372836 1.5012106859291947 0.7313536940579346 0 0.68199836817093118 I I #
point $-1 -37.792243025750103 -3.3202158849372836 7.8367915974279505 #
point $-1 -44.586321604052856 -9.3050754033199787 1.501210685929188 #
straight-curve $-1 -44.586321604052856 0 7.8367915974279496 0 -1 0 I I #
vertex $-1 $392 $543 #
point $-1 -39.93250353190993 -7.5951155409249225 4.0544105134361095 #
vertex $-1 $396 $544 #
point $-1 -39.93250353190993 -5.0301757473323399 4.0544105134361095 #
coedge $-1 $411 $410 $403 $500 forward $400 $-1 #
edge $-1 $501 25.522184755115799 $504 31.857765666614561 $499 $545 forward 7 unknown #
vertex $-1 $415 $546 #
straight-curve $-1 -52.700959378734808 6.4007581526587547 7.8367915974279505 -1 0 0 I I #
edge $-1 $504 -4.6965939559250511 $412 1.288265562457644 $411 $547 forward 7 unknown #
vertex $-1 $503 $548 #
straight-curve $-1 -44.586321604052848 6.4007581526587547 1.5012106859291947 0.7313536940579346 0 0.68199836817093118 I I #
point $-1 -37.792243025750103 6.4007581526587547 7.8367915974279505 #
point $-1 -44.586321604052856 0.41589863427605955 1.501210685929188 #
straight-curve $-1 -44.586321604052856 0 7.8367915974279496 0 -1 0 I I #
vertex $-1 $418 $549 #
point $-1 -39.93250353190993 2.1258584966711176 4.0544105134361095 #
vertex $-1 $422 $550 #
point $-1 -39.93250353190993 4.6907982902636967 4.0544105134361095 #
coedge $-1 $437 $436 $429 $514 forward $426 $-1 #
edge $-1 $515 25.522184755115799 $518 31.857765666614561 $513 $551 forward 7 unknown #
vertex $-1 $441 $552 #
straight-curve $-1 -52.700959378734808 16.121732190254797 7.8367915974279505 -1 0 0 I I #
edge $-1 $518 -9.5570809747230729 $438 -3.572221456340376 $437 $553 forward 7 unknown #
vertex $-1 $517 $554 #
straight-curve $-1 -44.586321604052848 16.121732190254797 1.5012106859291947 0.7313536940579346 0 0.68199836817093118 I I #
point $-1 -37.792243025750103 16.121732190254797 7.8367915974279505 #
point $-1 -44.586321604052856 10.1368726718721 1.501210685929188 #
straight-curve $-1 -44.586321604052856 0 7.8367915974279496 0 -1 0 I I #
vertex $-1 $444 $555 #
point $-1 -39.93250353190993 11.846832534267154 4.0544105134361095 #
vertex $-1 $448 $556 #
point $-1 -39.93250353190993 14.411772327859733 4.0544105134361095 #
straight-curve $-1 -44.586321604052856 18.000262885566993 0 0 0 -1 I I #
point $-1 -44.586321604052856 -18.000262885566993 -7.8367915974279496 #
straight-curve $-1 -44.586321604052856 0 -7.8367915974279496 0 1 0 I I #
point $-1 -44.586321604052856 18.000262885566993 -7.8367915974279496 #
edge $-1 $533 -7.8367915974279496 $477 7.8367915974279496 $469 $557 forward 7 unknown #
straight-curve $-1 -31.005953648304875 -24.837866543912863 -7.8367915974279496 -1 0 0 I I #
vertex $-1 $483 $558 #
straight-curve $-1 -31.005953648304875 -24.837866543912863 7.8367915974279496 1 0 0 I I #
point $-1 -33.099168887412795 -24.837866543912863 7.8367915974279496 #
point $-1 -33.099168887412795 -24.837866543912863 -7.8367915974279496 #
point $-1 -28.912738409196955 -24.837866543912863 -7.8367915974279496 #
straight-curve $-1 -28.912738409196955 -21.419064714739928 7.8367915974279496 0 1 0 I I #
straight-curve $-1 -44.586321604052856 -3.3202158849372836 33.358976352543749 0 0 -1 I I #
point $-1 -44.586321604052856 -3.3202158849372836 7.8367915974279496 #
straight-curve $-1 -44.586321604052856 -3.1563228220643156 1.5012106859291934 0 -1 0 I I #
point $-1 -44.586321604052856 -3.3202158849372836 1.501210685929188 #
point $-1 -39.957181194853433 -7.5951155409249225 3.3477344823216764 #
point $-1 -39.957181194853433 -5.0301757473323399 3.3477344823216764 #
straight-curve $-1 -44.586321604052856 6.4007581526587547 33.358976352543749 0 0 -1 I I #
point $-1 -44.586321604052856 6.4007581526587547 7.8367915974279496 #
straight-curve $-1 -44.586321604052856 1.7041641967337036 1.5012106859291934 0 -1 0 I I #
point $-1 -44.586321604052856 6.4007581526587547 1.501210685929188 #
point $-1 -39.957181194853433 2.1258584966711176 3.3477344823216764 #
point $-1 -39.957181194853433 4.6907982902636967 3.3477344823216764 #
straight-curve $-1 -44.586321604052856 16.121732190254797 33.358976352543749 0 0 -1 I I #
point $-1 -44.586321604052856 16.121732190254797 7.8367915974279496 #
straight-curve $-1 -44.586321604052856 6.5646512155317236 1.5012106859291934 0 -1 0 I I #
point $-1 -44.586321604052856 16.121732190254797 1.501210685929188 #
point $-1 -39.957181194853433 11.846832534267154 3.3477344823216764 #
point $-1 -39.957181194853433 14.411772327859733 3.3477344823216764 #
straight-curve $-1 -28.912738409196955 -24.837866543912863 0 0 0 -1 I I #
point $-1 -28.912738409196955 -24.837866543912863 7.8367915974279496 #
End-of-ACIS-data 