500 0 7 0           
7 Unknown 11 ACIS 5.0 NT 24 Thu Mar 25 19:44:15 1999 
-1 9.9999999999999995e-007 1e-010 
body $-1 $7 $-1 $8 #
body $-1 $9 $-1 $10 #
body $-1 $11 $-1 $12 #
body $-1 $13 $-1 $14 #
body $-1 $15 $-1 $16 #
body $-1 $17 $-1 $18 #
body $-1 $19 $-1 $20 #
lump $-1 $-1 $21 $0 #
transform $-1 1 0 0 0 1 0 0 0 1 40.997344889675588 16.94470173775068 4.8106260074342932 1 rotate no_reflect no_shear #
lump $-1 $-1 $22 $1 #
transform $-1 1 0 0 0 1 0 0 0 1 40.997344889675588 16.94470173775068 4.8106260074342932 1 rotate no_reflect no_shear #
lump $-1 $-1 $23 $2 #
transform $-1 1 0 0 0 1 0 0 0 1 40.997344889675588 16.94470173775068 4.8106260074342932 1 rotate no_reflect no_shear #
lump $-1 $-1 $24 $3 #
transform $-1 1 0 0 0 1 0 0 0 1 40.997344889675588 16.94470173775068 4.8106260074342932 1 rotate no_reflect no_shear #
lump $-1 $-1 $25 $4 #
transform $-1 1 0 0 0 1 0 0 0 1 40.997344889675588 16.94470173775068 4.8106260074342932 1 rotate no_reflect no_shear #
lump $-1 $-1 $26 $5 #
transform $-1 1 0 0 0 1 0 0 0 1 40.997344889675588 16.94470173775068 4.8106260074342932 1 rotate no_reflect no_shear #
lump $-1 $-1 $27 $6 #
transform $-1 1 0 0 0 1 0 0 0 1 40.997344889675588 16.94470173775068 4.8106260074342932 1 rotate no_reflect no_shear #
shell $-1 $-1 $-1 $28 $-1 $7 #
shell $-1 $-1 $-1 $29 $-1 $9 #
shell $-1 $-1 $-1 $30 $-1 $11 #
shell $-1 $-1 $-1 $31 $-1 $13 #
shell $-1 $-1 $-1 $32 $-1 $15 #
shell $-1 $-1 $-1 $33 $-1 $17 #
shell $-1 $-1 $-1 $34 $-1 $19 #
face $-1 $35 $36 $21 $-1 $37 forward single #
face $-1 $38 $39 $22 $-1 $40 reversed single #
face $-1 $41 $42 $23 $-1 $43 forward single #
face $-1 $44 $45 $24 $-1 $46 forward single #
face $-1 $47 $48 $25 $-1 $49 reversed single #
face $-1 $50 $51 $26 $-1 $52 forward single #
face $-1 $53 $54 $27 $-1 $55 forward single #
face $-1 $56 $57 $21 $-1 $58 reversed single #
loop $-1 $-1 $59 $28 #
plane-surface $-1 0 0 4.8106260074342932 0 0 1 1 0 0 forward_v I I I I #
face $-1 $60 $61 $22 $-1 $62 reversed single #
loop $-1 $-1 $63 $29 #
plane-surface $-1 -29.495892425356519 -79.756278887947616 53.052850703535043 -1 0 0 0 -0.7660444514056185 0.64278759981090561 forward_v I I I I #
face $-1 $64 $65 $23 $-1 $66 forward single #
loop $-1 $67 $68 $30 #
cone-surface $-1 -37.711215614155854 -14.160955307495511 1.8144662979204425 0 0.7660444514056185 -0.64278759981090561 1 0 0 1 I I 0 1 1 forward I I I I #
face $-1 $69 $70 $24 $-1 $71 forward single #
loop $-1 $72 $73 $31 #
cone-surface $-1 -32.782021700876257 -14.160955307495511 1.8144662979204425 0 0.7660444514056185 -0.64278759981090561 1 0 0 1 I I 0 1 1 forward I I I I #
face $-1 $74 $75 $25 $-1 $76 reversed single #
loop $-1 $-1 $77 $32 #
plane-surface $-1 11.501452464319069 -79.756278887947616 53.052850703535043 -1 0 0 0 -0.7660444514056185 0.64278759981090561 forward_v I I I I #
face $-1 $78 $79 $26 $-1 $80 forward single #
loop $-1 $81 $82 $33 #
cone-surface $-1 3.286129275519734 -14.160955307495511 1.8144662979204425 0 0.7660444514056185 -0.64278759981090561 1 0 0 1 I I 0 1 1 forward I I I I #
face $-1 $83 $84 $27 $-1 $85 forward single #
loop $-1 $86 $87 $34 #
cone-surface $-1 8.2153231887993314 -14.160955307495511 1.8144662979204425 0 0.7660444514056185 -0.64278759981090561 1 0 0 1 I I 0 1 1 forward I I I I #
face $-1 $88 $89 $21 $-1 $90 reversed single #
loop $-1 $-1 $91 $35 #
plane-surface $-1 0 0 -4.8106260074342932 0 0 1 1 0 0 forward_v I I I I #
coedge $-1 $92 $93 $94 $95 forward $36 $-1 #
face $-1 $96 $97 $22 $-1 $98 forward single #
loop $-1 $-1 $99 $38 #
plane-surface $-1 -35.246618657516052 -16.94470173775067 0.34768086302610612 0 -0.7660444514056185 0.64278759981090561 1 0 0 forward_v I I I I #
coedge $-1 $100 $101 $102 $103 reversed $39 $-1 #
face $-1 $-1 $104 $23 $-1 $105 forward single #
loop $-1 $106 $107 $41 #
cone-surface $-1 -37.711215614155854 -12.866614414833798 0.72838536070522952 0 0.7660444514056185 -0.64278759981090561 0.5 0 0 1 I I -0.70710678118654746 0.70710678118654746 0.5 forward I I I I #
loop $-1 $-1 $108 $30 #
coedge $-1 $68 $68 $109 $110 reversed $42 $-1 #
face $-1 $-1 $111 $24 $-1 $112 forward single #
loop $-1 $113 $114 $44 #
cone-surface $-1 -32.782021700876257 -12.866614414833798 0.72838536070522952 0 0.7660444514056185 -0.64278759981090561 0.5 0 0 1 I I -0.70710678118654746 0.70710678118654746 0.5 forward I I I I #
loop $-1 $-1 $115 $31 #
coedge $-1 $73 $73 $116 $117 reversed $45 $-1 #
face $-1 $118 $119 $25 $-1 $120 reversed single #
loop $-1 $-1 $121 $47 #
plane-surface $-1 5.7507262321595363 -16.94470173775067 0.34768086302610612 0 -0.7660444514056185 0.64278759981090561 1 0 0 forward_v I I I I #
coedge $-1 $122 $123 $124 $125 reversed $48 $-1 #
face $-1 $-1 $126 $26 $-1 $127 forward single #
loop $-1 $128 $129 $50 #
cone-surface $-1 3.286129275519734 -12.866614414833798 0.72838536070522952 0 0.7660444514056185 -0.64278759981090561 0.5 0 0 1 I I -0.70710678118654746 0.70710678118654746 0.5 forward I I I I #
loop $-1 $-1 $130 $33 #
coedge $-1 $82 $82 $131 $132 reversed $51 $-1 #
face $-1 $-1 $133 $27 $-1 $134 forward single #
loop $-1 $135 $136 $53 #
cone-surface $-1 8.2153231887993314 -12.866614414833798 0.72838536070522952 0 0.7660444514056185 -0.64278759981090561 0.5 0 0 1 I I -0.70710678118654746 0.70710678118654746 0.5 forward I I I I #
loop $-1 $-1 $137 $34 #
coedge $-1 $87 $87 $138 $139 reversed $54 $-1 #
face $-1 $140 $141 $21 $-1 $142 reversed single #
loop $-1 $-1 $143 $56 #
plane-surface $-1 0 -16.94470173775068 0 0 1 0 0 0 1 forward_v I I I I #
coedge $-1 $144 $145 $146 $147 forward $57 $-1 #
coedge $-1 $148 $59 $149 $150 forward $36 $-1 #
coedge $-1 $59 $148 $151 $152 forward $36 $-1 #
coedge $-1 $153 $154 $59 $95 reversed $155 $-1 #
edge $-1 $156 -16.94470173775068 $157 16.94470173775068 $94 $158 forward 7 unknown #
face $-1 $159 $160 $22 $-1 $161 reversed single #
loop $-1 $-1 $102 $60 #
plane-surface $-1 0 0 4.8106260074342932 0 0 1 1 0 0 forward_v I I I I #
coedge $-1 $162 $163 $164 $165 reversed $61 $-1 #
coedge $-1 $101 $63 $166 $167 reversed $39 $-1 #
coedge $-1 $63 $100 $162 $168 reversed $39 $-1 #
coedge $-1 $164 $169 $63 $103 forward $97 $-1 #
edge $-1 $170 22.933437706223128 $171 26.678293232815669 $102 $172 forward 7 unknown #
loop $-1 $-1 $109 $64 #
plane-surface $-1 -35.246618657516052 -16.94470173775067 0.34768086302610612 0 -0.7660444514056185 0.64278759981090561 1 0 0 forward_v I I I I #
loop $-1 $-1 $173 $41 #
coedge $-1 $107 $107 $108 $174 reversed $65 $-1 #
coedge $-1 $108 $108 $107 $174 forward $67 $-1 #
coedge $-1 $109 $109 $68 $110 forward $104 $-1 #
edge $-1 $175 8.7579260533283984e-016 $175 6.2831853071796013 $109 $176 forward 7 unknown #
loop $-1 $-1 $116 $69 #
plane-surface $-1 -35.246618657516052 -16.94470173775067 0.34768086302610612 0 -0.7660444514056185 0.64278759981090561 1 0 0 forward_v I I I I #
loop $-1 $-1 $177 $44 #
coedge $-1 $114 $114 $115 $178 reversed $70 $-1 #
coedge $-1 $115 $115 $114 $178 forward $72 $-1 #
coedge $-1 $116 $116 $73 $117 forward $111 $-1 #
edge $-1 $179 8.7579260533283984e-016 $179 6.2831853071796013 $116 $180 forward 7 unknown #
face $-1 $181 $182 $25 $-1 $183 reversed single #
loop $-1 $-1 $184 $74 #
plane-surface $-1 2.6645352591003757e-015 -79.756278887947616 53.052850703535043 1 0 0 0 0.7660444514056185 -0.64278759981090561 forward_v I I I I #
coedge $-1 $185 $186 $187 $188 reversed $75 $-1 #
coedge $-1 $123 $77 $189 $190 reversed $48 $-1 #
coedge $-1 $77 $122 $185 $191 reversed $48 $-1 #
coedge $-1 $187 $192 $77 $125 forward $193 $-1 #
edge $-1 $194 22.933437706223128 $195 26.678293232815669 $124 $196 forward 7 unknown #
loop $-1 $-1 $131 $78 #
plane-surface $-1 5.7507262321595363 -16.94470173775067 0.34768086302610612 0 -0.7660444514056185 0.64278759981090561 1 0 0 forward_v I I I I #
loop $-1 $-1 $197 $50 #
coedge $-1 $129 $129 $130 $198 reversed $79 $-1 #
coedge $-1 $130 $130 $129 $198 forward $81 $-1 #
coedge $-1 $131 $131 $82 $132 forward $126 $-1 #
edge $-1 $199 8.7579260533283984e-016 $199 6.2831853071796013 $131 $200 forward 7 unknown #
loop $-1 $-1 $138 $83 #
plane-surface $-1 5.7507262321595363 -16.94470173775067 0.34768086302610612 0 -0.7660444514056185 0.64278759981090561 1 0 0 forward_v I I I I #
loop $-1 $-1 $201 $53 #
coedge $-1 $136 $136 $137 $202 reversed $84 $-1 #
coedge $-1 $137 $137 $136 $202 forward $86 $-1 #
coedge $-1 $138 $138 $87 $139 forward $133 $-1 #
edge $-1 $203 8.7579260533283984e-016 $203 6.2831853071796013 $138 $204 forward 7 unknown #
face $-1 $205 $206 $21 $-1 $207 reversed single #
loop $-1 $-1 $208 $88 #
plane-surface $-1 -40.997344889675588 0 0 1 0 0 0 0 -1 forward_v I I I I #
coedge $-1 $209 $151 $210 $211 forward $89 $-1 #
coedge $-1 $212 $91 $209 $213 forward $57 $-1 #
coedge $-1 $91 $212 $214 $215 forward $57 $-1 #
coedge $-1 $154 $153 $91 $147 reversed $155 $-1 #
edge $-1 $216 -16.94470173775068 $217 16.94470173775068 $146 $218 forward 7 unknown #
coedge $-1 $93 $92 $219 $220 forward $36 $-1 #
coedge $-1 $221 $222 $92 $150 reversed $206 $-1 #
edge $-1 $157 -40.997344889675588 $223 40.997344889675588 $149 $224 forward 7 unknown #
coedge $-1 $143 $225 $93 $152 reversed $89 $-1 #
edge $-1 $226 -40.997344889675588 $156 40.997344889675588 $151 $227 forward 7 unknown #
coedge $-1 $146 $94 $225 $228 forward $155 $-1 #
coedge $-1 $94 $146 $221 $229 reversed $155 $-1 #
loop $-1 $-1 $153 $205 #
vertex $-1 $95 $230 #
vertex $-1 $95 $231 #
straight-curve $-1 40.997344889675588 0 4.8106260074342932 0 1 0 I I #
face $-1 $-1 $232 $22 $-1 $233 reversed single #
loop $-1 $-1 $234 $96 #
plane-surface $-1 -40.997344889675588 0 0 1 0 0 0 0 -1 forward_v I I I I #
coedge $-1 $235 $99 $101 $168 forward $61 $-1 #
coedge $-1 $99 $235 $234 $236 reversed $61 $-1 #
coedge $-1 $237 $102 $99 $165 forward $97 $-1 #
edge $-1 $171 11.872583096598493 $238 23.374035560917562 $164 $239 forward 7 unknown #
coedge $-1 $240 $241 $100 $167 forward $232 $-1 #
edge $-1 $242 -26.17874448874143 $170 -21.715799344333227 $166 $243 forward 7 unknown #
edge $-1 $171 -5.8259610603785577 $242 1.6588919045966746e-014 $101 $244 forward 7 unknown #
coedge $-1 $102 $237 $240 $245 forward $97 $-1 #
vertex $-1 $167 $246 #
vertex $-1 $103 $247 #
straight-curve $-1 -29.495892425356519 -39.878139443973808 4.8106260074342941 0 1 0 I I #
coedge $-1 $173 $173 $-1 $248 reversed $106 $-1 #
edge $-1 $249 0 $249 6.2831853071796004 $107 $250 forward 7 unknown #
vertex $-1 $110 $251 #
ellipse-curve $-1 -37.711215614155854 -15.072273974454408 2.5791534352301957 0 -0.7660444514056185 0.64278759981090561 1 0 0 1 I I #
coedge $-1 $177 $177 $-1 $252 reversed $113 $-1 #
edge $-1 $253 0 $253 6.2831853071796004 $114 $254 forward 7 unknown #
vertex $-1 $117 $255 #
ellipse-curve $-1 -32.782021700876257 -15.072273974454408 2.5791534352301957 0 -0.7660444514056185 0.64278759981090561 1 0 0 1 I I #
face $-1 $-1 $193 $25 $-1 $256 forward single #
loop $-1 $-1 $257 $118 #
plane-surface $-1 0 -16.94470173775068 0 0 1 0 0 0 1 forward_v I I I I #
coedge $-1 $258 $259 $260 $261 reversed $119 $-1 #
coedge $-1 $262 $121 $123 $191 forward $75 $-1 #
coedge $-1 $121 $262 $258 $263 forward $75 $-1 #
coedge $-1 $260 $124 $121 $188 forward $193 $-1 #
edge $-1 $195 -8.6260893482393008 $264 2.8753631160797655 $187 $265 forward 7 unknown #
coedge $-1 $266 $267 $122 $190 forward $182 $-1 #
edge $-1 $268 -26.17874448874143 $194 -21.715799344333227 $189 $269 forward 7 unknown #
edge $-1 $195 -5.8259610603785577 $268 1.6588919045966746e-014 $123 $270 forward 7 unknown #
coedge $-1 $124 $260 $266 $271 forward $193 $-1 #
loop $-1 $-1 $260 $181 #
vertex $-1 $190 $272 #
vertex $-1 $125 $273 #
straight-curve $-1 11.501452464319069 -39.878139443973808 4.8106260074342941 0 1 0 I I #
coedge $-1 $197 $197 $-1 $274 reversed $128 $-1 #
edge $-1 $275 0 $275 6.2831853071796004 $129 $276 forward 7 unknown #
vertex $-1 $132 $277 #
ellipse-curve $-1 3.286129275519734 -15.072273974454408 2.5791534352301957 0 -0.7660444514056185 0.64278759981090561 1 0 0 1 I I #
coedge $-1 $201 $201 $-1 $278 reversed $135 $-1 #
edge $-1 $279 0 $279 6.2831853071796004 $136 $280 forward 7 unknown #
vertex $-1 $139 $281 #
ellipse-curve $-1 8.2153231887993314 -15.072273974454408 2.5791534352301957 0 -0.7660444514056185 0.64278759981090561 1 0 0 1 I I #
face $-1 $-1 $155 $21 $-1 $282 reversed single #
loop $-1 $-1 $221 $140 #
plane-surface $-1 0 16.94470173775068 0 0 -1 0 0 0 -1 forward_v I I I I #
coedge $-1 $283 $219 $222 $284 forward $141 $-1 #
coedge $-1 $225 $143 $144 $213 reversed $89 $-1 #
coedge $-1 $219 $283 $143 $211 reversed $141 $-1 #
edge $-1 $226 -4.8106260074342932 $285 4.8106260074342932 $210 $286 forward 7 unknown #
coedge $-1 $145 $144 $283 $287 forward $57 $-1 #
edge $-1 $217 -40.997344889675588 $285 40.997344889675588 $209 $288 forward 7 unknown #
coedge $-1 $222 $221 $145 $215 reversed $206 $-1 #
edge $-1 $289 -40.997344889675588 $216 40.997344889675588 $214 $290 forward 7 unknown #
vertex $-1 $147 $291 #
vertex $-1 $228 $292 #
straight-curve $-1 40.997344889675588 0 -4.8106260074342932 0 -1 0 I I #
coedge $-1 $208 $210 $148 $220 reversed $141 $-1 #
edge $-1 $223 -16.94470173775068 $226 16.94470173775068 $219 $293 forward 7 unknown #
coedge $-1 $214 $149 $154 $229 forward $206 $-1 #
coedge $-1 $149 $214 $208 $284 reversed $206 $-1 #
vertex $-1 $150 $294 #
straight-curve $-1 0 16.94470173775068 4.8106260074342932 -1 0 0 I I #
coedge $-1 $151 $209 $153 $228 reversed $89 $-1 #
vertex $-1 $220 $295 #
straight-curve $-1 0 -16.94470173775068 4.8106260074342932 1 0 0 I I #
edge $-1 $156 -4.8106260074342932 $217 4.8106260074342932 $153 $296 forward 7 unknown #
edge $-1 $157 -4.8106260074342932 $216 4.8106260074342932 $154 $297 forward 7 unknown #
point $-1 40.997344889675588 -16.94470173775068 4.8106260074342932 #
point $-1 40.997344889675588 16.94470173775068 4.8106260074342932 #
loop $-1 $-1 $166 $159 #
plane-surface $-1 0 -16.94470173775068 0 0 1 0 0 0 1 forward_v I I I I #
coedge $-1 $298 $299 $163 $236 forward $160 $-1 #
coedge $-1 $163 $162 $241 $300 reversed $61 $-1 #
edge $-1 $238 -0.5132084786088722 $301 5.3127525817697014 $234 $302 forward 7 unknown #
coedge $-1 $169 $164 $299 $303 forward $97 $-1 #
vertex $-1 $303 $304 #
straight-curve $-1 -17.623309328758026 -13.199846211158139 4.8106260074342932 -1 0 0 I I #
coedge $-1 $305 $166 $169 $245 reversed $232 $-1 #
coedge $-1 $166 $305 $235 $300 forward $232 $-1 #
vertex $-1 $167 $306 #
straight-curve $-1 -29.495892425356519 -16.94470173775068 26.526425351767521 0 0 1 I I #
straight-curve $-1 -29.495892425356519 -16.94470173775067 0.34768086302610612 0 -0.64278759981090561 -0.7660444514056185 I I #
edge $-1 $307 -40.997344889675588 $170 -29.495892425356519 $240 $308 forward 7 unknown #
point $-1 -29.495892425356519 -16.94470173775068 4.8106260074342932 #
point $-1 -29.495892425356519 -13.199846211158139 4.8106260074342932 #
edge $-1 $309 1 $309 0 $173 $-1 forward 7 unknown #
vertex $-1 $174 $310 #
ellipse-curve $-1 -37.711215614155854 -13.249636640536608 1.0497791606106823 0 -0.7660444514056185 0.64278759981090561 1 0 0 1 I I #
point $-1 -36.711215614155854 -15.072273974454415 2.5791534352302028 #
edge $-1 $311 1 $311 0 $177 $-1 forward 7 unknown #
vertex $-1 $178 $312 #
ellipse-curve $-1 -32.782021700876257 -13.249636640536608 1.0497791606106823 0 -0.7660444514056185 0.64278759981090561 1 0 0 1 I I #
point $-1 -31.782021700876257 -15.072273974454415 2.5791534352302028 #
plane-surface $-1 0 0 4.8106260074342932 0 0 1 1 0 0 forward_v I I I I #
coedge $-1 $267 $266 $259 $313 forward $182 $-1 #
coedge $-1 $259 $184 $186 $263 reversed $119 $-1 #
coedge $-1 $184 $258 $257 $313 reversed $119 $-1 #
coedge $-1 $192 $187 $184 $261 forward $193 $-1 #
edge $-1 $264 -26.678293232815669 $314 -22.933437706223128 $260 $315 forward 7 unknown #
coedge $-1 $186 $185 $267 $316 reversed $75 $-1 #
edge $-1 $317 -1.6588919045966746e-014 $264 5.8259610603785577 $258 $318 forward 7 unknown #
vertex $-1 $188 $319 #
straight-curve $-1 2.8753631160797681 -13.199846211158139 4.8106260074342932 -1 0 0 I I #
coedge $-1 $257 $189 $192 $271 reversed $182 $-1 #
coedge $-1 $189 $257 $262 $316 forward $182 $-1 #
vertex $-1 $190 $320 #
straight-curve $-1 11.501452464319069 -16.94470173775068 26.526425351767521 0 0 1 I I #
straight-curve $-1 11.501452464319069 -16.94470173775067 0.34768086302610612 0 -0.64278759981090561 -0.7660444514056185 I I #
edge $-1 $314 2.6645352591003757e-015 $194 11.501452464319069 $266 $321 forward 7 unknown #
point $-1 11.501452464319069 -16.94470173775068 4.8106260074342932 #
point $-1 11.501452464319069 -13.199846211158139 4.8106260074342932 #
edge $-1 $322 1 $322 0 $197 $-1 forward 7 unknown #
vertex $-1 $198 $323 #
ellipse-curve $-1 3.286129275519734 -13.249636640536608 1.0497791606106823 0 -0.7660444514056185 0.64278759981090561 1 0 0 1 I I #
point $-1 4.286129275519734 -15.072273974454415 2.5791534352302028 #
edge $-1 $324 1 $324 0 $201 $-1 forward 7 unknown #
vertex $-1 $202 $325 #
ellipse-curve $-1 8.2153231887993314 -13.249636640536608 1.0497791606106823 0 -0.7660444514056185 0.64278759981090561 1 0 0 1 I I #
point $-1 9.2153231887993314 -15.072273974454415 2.5791534352302028 #
plane-surface $-1 40.997344889675588 0 0 -1 0 0 0 0 1 forward_v I I I I #
coedge $-1 $210 $208 $212 $287 reversed $141 $-1 #
edge $-1 $223 -4.8106260074342932 $289 4.8106260074342932 $222 $326 forward 7 unknown #
vertex $-1 $287 $327 #
straight-curve $-1 -40.997344889675588 -16.94470173775068 0 0 0 -1 I I #
edge $-1 $285 -16.94470173775068 $289 16.94470173775068 $283 $328 forward 7 unknown #
straight-curve $-1 0 -16.94470173775068 -4.8106260074342932 -1 0 0 I I #
vertex $-1 $215 $329 #
straight-curve $-1 0 16.94470173775068 -4.8106260074342932 1 0 0 I I #
point $-1 40.997344889675588 16.94470173775068 -4.8106260074342932 #
point $-1 40.997344889675588 -16.94470173775068 -4.8106260074342932 #
straight-curve $-1 -40.997344889675588 0 4.8106260074342932 0 -1 0 I I #
point $-1 -40.997344889675588 16.94470173775068 4.8106260074342932 #
point $-1 -40.997344889675588 -16.94470173775068 4.8106260074342932 #
straight-curve $-1 40.997344889675588 -16.94470173775068 0 0 0 -1 I I #
straight-curve $-1 40.997344889675588 16.94470173775068 0 0 0 -1 I I #
coedge $-1 $299 $234 $305 $330 reversed $160 $-1 #
coedge $-1 $234 $298 $237 $303 reversed $160 $-1 #
edge $-1 $301 -23.374035560917562 $242 -11.872583096598493 $241 $331 forward 7 unknown #
vertex $-1 $236 $332 #
straight-curve $-1 -40.997344889675588 -13.529730257325742 4.4174854999816473 0 -0.64278759981090572 -0.76604445140561861 I I #
edge $-1 $238 13.199846211158139 $307 16.94470173775068 $299 $333 forward 7 unknown #
point $-1 -40.997344889675588 -13.199846211158139 4.8106260074342932 #
coedge $-1 $241 $240 $298 $330 forward $232 $-1 #
point $-1 -29.495892425356519 -16.94470173775068 0.34768086302609341 #
vertex $-1 $303 $334 #
straight-curve $-1 0 -16.94470173775068 4.8106260074342932 1 0 0 I I #
vertex $-1 $248 $335 #
point $-1 -36.711215614155854 -13.249636640536608 1.0497791606106823 #
vertex $-1 $252 $336 #
point $-1 -31.782021700876257 -13.249636640536608 1.0497791606106823 #
edge $-1 $314 21.715799344333227 $317 26.17874448874143 $257 $337 forward 7 unknown #
vertex $-1 $271 $338 #
straight-curve $-1 2.6645352591003757e-015 -39.878139443973808 4.8106260074342941 0 -1 0 I I #
edge $-1 $317 -2.8753631160797655 $268 8.6260893482393008 $267 $339 forward 7 unknown #
vertex $-1 $316 $340 #
straight-curve $-1 2.6645352591003757e-015 -16.94470173775067 0.34768086302610612 0 0.64278759981090561 0.7660444514056185 I I #
point $-1 2.6645352591003757e-015 -13.199846211158139 4.8106260074342932 #
point $-1 11.501452464319069 -16.94470173775068 0.34768086302609341 #
straight-curve $-1 0 -16.94470173775068 4.8106260074342932 1 0 0 I I #
vertex $-1 $274 $341 #
point $-1 4.286129275519734 -13.249636640536608 1.0497791606106823 #
vertex $-1 $278 $342 #
point $-1 9.2153231887993314 -13.249636640536608 1.0497791606106823 #
straight-curve $-1 -40.997344889675588 16.94470173775068 0 0 0 -1 I I #
point $-1 -40.997344889675588 -16.94470173775068 -4.8106260074342932 #
straight-curve $-1 -40.997344889675588 0 -4.8106260074342932 0 1 0 I I #
point $-1 -40.997344889675588 16.94470173775068 -4.8106260074342932 #
edge $-1 $307 -4.8106260074342932 $301 -0.34768086302609341 $298 $343 forward 7 unknown #
straight-curve $-1 -17.623309328758026 -16.94470173775068 0.34768086302609602 1 0 0 I I #
point $-1 -40.997344889675588 -16.94470173775068 0.34768086302609341 #
straight-curve $-1 -40.997344889675588 0 4.8106260074342932 0 -1 0 I I #
point $-1 -40.997344889675588 -16.94470173775068 4.8106260074342932 #
point $-1 -37.711215614155854 -12.483592189130988 0.40699156079977672 #
point $-1 -32.782021700876257 -12.483592189130988 0.40699156079977672 #
straight-curve $-1 2.6645352591003757e-015 -16.94470173775068 26.526425351767521 0 0 -1 I I #
point $-1 2.6645352591003757e-015 -16.94470173775068 4.8106260074342932 #
straight-curve $-1 2.8753631160797681 -16.94470173775068 0.34768086302609602 1 0 0 I I #
point $-1 2.6645352591003757e-015 -16.94470173775068 0.34768086302609341 #
point $-1 3.286129275519734 -12.483592189130988 0.40699156079977672 #
point $-1 8.2153231887993314 -12.483592189130988 0.40699156079977672 #
straight-curve $-1 -40.997344889675588 -16.94470173775068 0 0 0 -1 I I #
End-of-ACIS-data 