500 0 12 0           
7 Unknown 11 ACIS 5.0 NT 24 Thu Mar 25 16:14:27 1999 
-1 9.9999999999999995e-007 1e-010 
body $-1 $12 $-1 $13 #
body $-1 $14 $-1 $15 #
body $-1 $16 $-1 $17 #
body $-1 $18 $-1 $19 #
body $-1 $20 $-1 $21 #
body $-1 $22 $-1 $23 #
body $-1 $24 $-1 $25 #
body $-1 $26 $-1 $27 #
body $-1 $28 $-1 $29 #
body $-1 $30 $-1 $31 #
body $-1 $32 $-1 $33 #
body $-1 $34 $-1 $35 #
lump $-1 $-1 $36 $0 #
transform $-1 1 0 0 0 1 0 0 0 1 49.125034333323157 32.254729641328602 9.0659149303772786 1 rotate no_reflect no_shear #
lump $-1 $-1 $37 $1 #
transform $-1 1 0 0 0 1 0 0 0 1 49.125034333323157 32.254729641328602 9.0659149303772786 1 rotate no_reflect no_shear #
lump $-1 $-1 $38 $2 #
transform $-1 1 0 0 0 1 0 0 0 1 49.125034333323157 32.254729641328602 9.0659149303772786 1 rotate no_reflect no_shear #
lump $-1 $-1 $39 $3 #
transform $-1 1 0 0 0 1 0 0 0 1 49.125034333323157 32.254729641328602 9.0659149303772786 1 rotate no_reflect no_shear #
lump $-1 $-1 $40 $4 #
transform $-1 1 0 0 0 1 0 0 0 1 49.125034333323157 32.254729641328602 9.0659149303772786 1 rotate no_reflect no_shear #
lump $-1 $-1 $41 $5 #
transform $-1 1 0 0 0 1 0 0 0 1 49.125034333323157 32.254729641328602 9.0659149303772786 1 rotate no_reflect no_shear #
lump $-1 $-1 $42 $6 #
transform $-1 1 0 0 0 1 0 0 0 1 49.125034333323157 32.254729641328602 9.0659149303772786 1 rotate no_reflect no_shear #
lump $-1 $-1 $43 $7 #
transform $-1 1 0 0 0 1 0 0 0 1 49.125034333323157 32.254729641328602 9.0659149303772786 1 rotate no_reflect no_shear #
lump $-1 $-1 $44 $8 #
transform $-1 1 0 0 0 1 0 0 0 1 49.125034333323157 32.254729641328602 9.0659149303772786 1 rotate no_reflect no_shear #
lump $-1 $-1 $45 $9 #
transform $-1 1 0 0 0 1 0 0 0 1 49.125034333323157 32.254729641328602 9.0659149303772786 1 rotate no_reflect no_shear #
lump $-1 $-1 $46 $10 #
transform $-1 1 0 0 0 1 0 0 0 1 49.125034333323157 32.254729641328602 9.0659149303772786 1 rotate no_reflect no_shear #
lump $-1 $-1 $47 $11 #
transform $-1 1 0 0 0 1 0 0 0 1 49.125034333323157 32.254729641328602 9.0659149303772786 1 rotate no_reflect no_shear #
shell $-1 $-1 $-1 $48 $-1 $12 #
shell $-1 $-1 $-1 $49 $-1 $14 #
shell $-1 $-1 $-1 $50 $-1 $16 #
shell $-1 $-1 $-1 $51 $-1 $18 #
shell $-1 $-1 $-1 $52 $-1 $20 #
shell $-1 $-1 $-1 $53 $-1 $22 #
shell $-1 $-1 $-1 $54 $-1 $24 #
shell $-1 $-1 $-1 $55 $-1 $26 #
shell $-1 $-1 $-1 $56 $-1 $28 #
shell $-1 $-1 $-1 $57 $-1 $30 #
shell $-1 $-1 $-1 $58 $-1 $32 #
shell $-1 $-1 $-1 $59 $-1 $34 #
face $-1 $60 $61 $36 $-1 $62 forward single #
face $-1 $63 $64 $37 $-1 $65 forward single #
face $-1 $66 $67 $38 $-1 $68 reversed single #
face $-1 $69 $70 $39 $-1 $71 forward single #
face $-1 $72 $73 $40 $-1 $74 forward single #
face $-1 $75 $76 $41 $-1 $77 forward single #
face $-1 $78 $79 $42 $-1 $80 reversed single #
face $-1 $81 $82 $43 $-1 $83 forward single #
face $-1 $84 $85 $44 $-1 $86 forward single #
face $-1 $87 $88 $45 $-1 $89 reversed single #
face $-1 $90 $91 $46 $-1 $92 forward single #
face $-1 $93 $94 $47 $-1 $95 forward single #
face $-1 $96 $97 $36 $-1 $98 reversed single #
loop $-1 $-1 $99 $48 #
plane-surface $-1 0 0 9.0659149303772786 0 0 1 1 0 0 forward_v I I I I #
face $-1 $100 $101 $37 $-1 $102 reversed single #
loop $-1 $-1 $103 $49 #
plane-surface $-1 -43.651644863144689 0 -3.6727372402661262 0 0 1 1 0 0 forward_v I I I I #
face $-1 $104 $105 $38 $-1 $106 reversed single #
loop $-1 $-1 $107 $50 #
plane-surface $-1 -32.142064108679456 -94.08550204308338 78.156627644757918 1 0 0 0 0.62932039886446345 -0.77714595512881146 forward_v I I I I #
face $-1 $108 $109 $39 $-1 $110 forward single #
loop $-1 $111 $112 $51 #
cone-surface $-1 -29.573455157798186 -26.648345970949261 4.0492840380764825 0 0.62932039886446345 -0.77714595512881146 1 0 0 1 I I 0 1 1 forward I I I I #
face $-1 $113 $114 $40 $-1 $115 forward single #
loop $-1 $116 $117 $52 #
cone-surface $-1 -25.720541731476281 -26.648345970949261 4.0492840380764825 0 0.62932039886446345 -0.77714595512881146 1 0 0 1 I I 0 1 1 forward I I I I #
face $-1 $118 $119 $41 $-1 $120 forward single #
loop $-1 $121 $122 $53 #
cone-surface $-1 -21.867628305154376 -26.648345970949261 4.0492840380764825 0 0.62932039886446345 -0.77714595512881146 1 0 0 1 I I 0 1 1 forward I I I I #
face $-1 $123 $124 $42 $-1 $125 reversed single #
loop $-1 $-1 $126 $54 #
plane-surface $-1 -5.5629485132877008 50.056988060900814 118.90317869243852 1 0 0 0 -0.66913061440640931 -0.74314481823134659 forward_v I I I I #
face $-1 $127 $128 $43 $-1 $129 forward single #
loop $-1 $130 $131 $55 #
cone-surface $-1 -2.4097090894402271 26.918965339125961 3.8802527494893444 0 -0.66913061440640931 -0.74314481823134659 1.5 0 0 1 I I 0 1 1.5 forward I I I I #
face $-1 $132 $133 $44 $-1 $134 forward single #
loop $-1 $135 $136 $56 #
cone-surface $-1 2.320150046330987 26.918965339125961 3.8802527494893444 0 -0.66913061440640931 -0.74314481823134659 1.5 0 0 1 I I 0 1 1.5 forward I I I I #
face $-1 $137 $138 $45 $-1 $139 reversed single #
loop $-1 $-1 $140 $57 #
plane-surface $-1 -0.044779521554616508 -15.685140751484134 45.889149271946323 0 0.66913061440640931 0.74314481823134659 1 0 0 forward_v I I I I #
face $-1 $141 $142 $46 $-1 $143 forward single #
loop $-1 $144 $145 $58 #
cone-surface $-1 8.6266288940259415 26.918965339125961 3.8802527494893444 0 -0.66913061440640931 -0.74314481823134659 1.5 0 0 1 I I 0 1 1.5 forward I I I I #
face $-1 $146 $147 $47 $-1 $148 forward single #
loop $-1 $149 $150 $59 #
cone-surface $-1 13.356488029797156 26.918965339125961 3.8802527494893444 0 -0.66913061440640931 -0.74314481823134659 1.5 0 0 1 I I 0 1 1.5 forward I I I I #
face $-1 $151 $152 $36 $-1 $153 reversed single #
loop $-1 $-1 $154 $60 #
plane-surface $-1 0 0 -9.0659149303772786 0 0 1 1 0 0 forward_v I I I I #
coedge $-1 $155 $156 $157 $158 forward $61 $-1 #
face $-1 $159 $160 $37 $-1 $161 reversed single #
loop $-1 $-1 $162 $63 #
plane-surface $-1 -38.178255392966221 0 -6.3693260853217026 -1 0 0 0 0 1 forward_v I I I I #
coedge $-1 $163 $164 $165 $166 forward $64 $-1 #
face $-1 $167 $168 $38 $-1 $169 reversed single #
loop $-1 $-1 $170 $66 #
plane-surface $-1 -25.720541731476285 -32.254729641328602 1.8019841893457595 0 -0.62932039886446345 0.77714595512881146 1 0 0 forward_v I I I I #
coedge $-1 $171 $172 $173 $174 reversed $67 $-1 #
face $-1 $-1 $175 $39 $-1 $176 forward single #
loop $-1 $177 $178 $69 #
cone-surface $-1 -29.573455157798186 -25.212405717605925 2.2760455387270397 0 0.62932039886446345 -0.77714595512881146 0.5 0 0 1 I I -0.70710678118654746 0.70710678118654746 0.5 forward I I I I #
loop $-1 $-1 $179 $51 #
coedge $-1 $112 $112 $180 $181 reversed $70 $-1 #
face $-1 $-1 $182 $40 $-1 $183 forward single #
loop $-1 $184 $185 $72 #
cone-surface $-1 -25.720541731476281 -25.212405717605925 2.2760455387270397 0 0.62932039886446345 -0.77714595512881146 0.5 0 0 1 I I -0.70710678118654746 0.70710678118654746 0.5 forward I I I I #
loop $-1 $-1 $186 $52 #
coedge $-1 $117 $117 $187 $188 reversed $73 $-1 #
face $-1 $-1 $189 $41 $-1 $190 forward single #
loop $-1 $191 $192 $75 #
cone-surface $-1 -21.867628305154376 -25.212405717605925 2.2760455387270397 0 0.62932039886446345 -0.77714595512881146 0.5 0 0 1 I I -0.70710678118654746 0.70710678118654746 0.5 forward I I I I #
loop $-1 $-1 $193 $53 #
coedge $-1 $122 $122 $194 $195 reversed $76 $-1 #
face $-1 $196 $197 $42 $-1 $198 reversed single #
loop $-1 $-1 $199 $78 #
plane-surface $-1 -0.044779521554616508 -15.685140751484134 45.889149271946323 0 0.66913061440640931 0.74314481823134659 1 0 0 forward_v I I I I #
coedge $-1 $200 $201 $202 $203 reversed $79 $-1 #
face $-1 $-1 $204 $43 $-1 $205 forward single #
loop $-1 $206 $207 $81 #
cone-surface $-1 -2.4097090894402271 24.603116269715478 1.3082418465582215 0 -0.66913061440640931 -0.74314481823134659 0.75 0 0 1 I I -0.70710678118654757 0.70710678118654757 0.75 forward I I I I #
loop $-1 $-1 $208 $55 #
coedge $-1 $131 $131 $209 $210 reversed $82 $-1 #
face $-1 $-1 $211 $44 $-1 $212 forward single #
loop $-1 $213 $214 $84 #
cone-surface $-1 2.320150046330987 24.603116269715478 1.3082418465582215 0 -0.66913061440640931 -0.74314481823134659 0.75 0 0 1 I I -0.70710678118654757 0.70710678118654757 0.75 forward I I I I #
loop $-1 $-1 $215 $56 #
coedge $-1 $136 $136 $216 $217 reversed $85 $-1 #
face $-1 $218 $219 $45 $-1 $220 reversed single #
loop $-1 $-1 $221 $87 #
plane-surface $-1 16.509727453644636 50.056988060900814 118.90317869243852 -1 0 0 0 0.66913061440640931 0.74314481823134659 forward_v I I I I #
coedge $-1 $222 $223 $224 $225 reversed $88 $-1 #
face $-1 $-1 $226 $46 $-1 $227 forward single #
loop $-1 $228 $229 $90 #
cone-surface $-1 8.6266288940259415 24.603116269715478 1.3082418465582215 0 -0.66913061440640931 -0.74314481823134659 0.75 0 0 1 I I -0.70710678118654757 0.70710678118654757 0.75 forward I I I I #
loop $-1 $-1 $230 $58 #
coedge $-1 $145 $145 $231 $232 reversed $91 $-1 #
face $-1 $-1 $233 $47 $-1 $234 forward single #
loop $-1 $235 $236 $93 #
cone-surface $-1 13.356488029797156 24.603116269715478 1.3082418465582215 0 -0.66913061440640931 -0.74314481823134659 0.75 0 0 1 I I -0.70710678118654757 0.70710678118654757 0.75 forward I I I I #
loop $-1 $-1 $237 $59 #
coedge $-1 $150 $150 $238 $239 reversed $94 $-1 #
face $-1 $240 $241 $36 $-1 $242 reversed single #
loop $-1 $-1 $243 $96 #
plane-surface $-1 0 -32.254729641328602 0 0 1 0 0 0 1 forward_v I I I I #
coedge $-1 $244 $245 $246 $247 forward $97 $-1 #
coedge $-1 $248 $99 $249 $250 forward $61 $-1 #
coedge $-1 $99 $248 $251 $252 forward $61 $-1 #
coedge $-1 $253 $254 $99 $158 reversed $255 $-1 #
edge $-1 $256 -32.254729641328602 $257 32.254729641328602 $157 $258 forward 7 unknown #
face $-1 $259 $260 $37 $-1 $261 reversed single #
loop $-1 $-1 $262 $100 #
plane-surface $-1 0 0 -9.0659149303772786 0 0 1 1 0 0 forward_v I I I I #
coedge $-1 $263 $165 $264 $265 reversed $101 $-1 #
coedge $-1 $266 $103 $267 $268 reversed $64 $-1 #
coedge $-1 $103 $266 $269 $270 reversed $64 $-1 #
coedge $-1 $162 $271 $103 $166 reversed $101 $-1 #
edge $-1 $272 -32.254729641328602 $273 32.254729641328602 $165 $274 forward 7 unknown #
face $-1 $275 $276 $38 $-1 $277 forward single #
loop $-1 $-1 $278 $104 #
plane-surface $-1 -19.299019354273113 -94.08550204308338 78.156627644757918 -1 0 0 0 -0.62932039886446345 0.77714595512881146 forward_v I I I I #
coedge $-1 $279 $280 $281 $282 reversed $105 $-1 #
coedge $-1 $172 $107 $283 $284 reversed $67 $-1 #
coedge $-1 $107 $171 $279 $285 reversed $67 $-1 #
coedge $-1 $281 $286 $107 $174 forward $287 $-1 #
edge $-1 $288 30.012398892001681 $289 37.2763296330332 $173 $290 forward 7 unknown #
loop $-1 $-1 $180 $108 #
plane-surface $-1 -25.720541731476285 -32.254729641328602 1.8019841893457595 0 -0.62932039886446345 0.77714595512881146 1 0 0 forward_v I I I I #
loop $-1 $-1 $291 $69 #
coedge $-1 $178 $178 $179 $292 reversed $109 $-1 #
coedge $-1 $179 $179 $178 $292 forward $111 $-1 #
coedge $-1 $180 $180 $112 $181 forward $175 $-1 #
edge $-1 $293 -1.676846392045475e-015 $293 6.2831853071795987 $180 $294 forward 7 unknown #
loop $-1 $-1 $187 $113 #
plane-surface $-1 -25.720541731476285 -32.254729641328602 1.8019841893457595 0 -0.62932039886446345 0.77714595512881146 1 0 0 forward_v I I I I #
loop $-1 $-1 $295 $72 #
coedge $-1 $185 $185 $186 $296 reversed $114 $-1 #
coedge $-1 $186 $186 $185 $296 forward $116 $-1 #
coedge $-1 $187 $187 $117 $188 forward $182 $-1 #
edge $-1 $297 -1.676846392045475e-015 $297 6.2831853071795987 $187 $298 forward 7 unknown #
loop $-1 $-1 $194 $118 #
plane-surface $-1 -25.720541731476285 -32.254729641328602 1.8019841893457595 0 -0.62932039886446345 0.77714595512881146 1 0 0 forward_v I I I I #
loop $-1 $-1 $299 $75 #
coedge $-1 $192 $192 $193 $300 reversed $119 $-1 #
coedge $-1 $193 $193 $192 $300 forward $121 $-1 #
coedge $-1 $194 $194 $122 $195 forward $189 $-1 #
edge $-1 $301 -1.676846392045475e-015 $301 6.2831853071795987 $194 $302 forward 7 unknown #
face $-1 $303 $304 $42 $-1 $305 reversed single #
loop $-1 $-1 $306 $123 #
plane-surface $-1 5.4733894701784678 50.056988060900814 118.90317869243852 -1 0 0 0 0.66913061440640931 0.74314481823134659 forward_v I I I I #
coedge $-1 $307 $308 $309 $310 reversed $124 $-1 #
coedge $-1 $201 $126 $311 $312 reversed $79 $-1 #
coedge $-1 $126 $200 $307 $313 reversed $79 $-1 #
coedge $-1 $309 $314 $126 $203 forward $315 $-1 #
edge $-1 $316 -7.2262356108781951 $317 -0.1827092236842951 $202 $318 forward 7 unknown #
loop $-1 $-1 $209 $127 #
plane-surface $-1 -0.044779521554616508 -15.685140751484134 45.889149271946323 0 0.66913061440640931 0.74314481823134659 1 0 0 forward_v I I I I #
loop $-1 $-1 $319 $81 #
coedge $-1 $207 $207 $208 $320 reversed $128 $-1 #
coedge $-1 $208 $208 $207 $320 forward $130 $-1 #
coedge $-1 $209 $209 $131 $210 forward $204 $-1 #
edge $-1 $321 -8.4094418945998144e-017 $321 6.2831853071796004 $209 $322 forward 7 unknown #
loop $-1 $-1 $216 $132 #
plane-surface $-1 -0.044779521554616508 -15.685140751484134 45.889149271946323 0 0.66913061440640931 0.74314481823134659 1 0 0 forward_v I I I I #
loop $-1 $-1 $323 $84 #
coedge $-1 $214 $214 $215 $324 reversed $133 $-1 #
coedge $-1 $215 $215 $214 $324 forward $135 $-1 #
coedge $-1 $216 $216 $136 $217 forward $211 $-1 #
edge $-1 $325 -8.4094418945998144e-017 $325 6.2831853071796004 $216 $326 forward 7 unknown #
face $-1 $327 $328 $45 $-1 $329 forward single #
loop $-1 $-1 $330 $137 #
plane-surface $-1 0 32.254729641328602 0 0 -1 0 0 0 -1 forward_v I I I I #
coedge $-1 $331 $332 $333 $334 reversed $138 $-1 #
coedge $-1 $335 $140 $336 $337 reversed $88 $-1 #
coedge $-1 $140 $335 $338 $339 reversed $88 $-1 #
coedge $-1 $340 $341 $140 $225 forward $328 $-1 #
edge $-1 $342 -64.50945928265719 $343 -55.03145955178752 $224 $344 forward 7 unknown #
loop $-1 $-1 $231 $141 #
plane-surface $-1 -0.044779521554616508 -15.685140751484134 45.889149271946323 0 0.66913061440640931 0.74314481823134659 1 0 0 forward_v I I I I #
loop $-1 $-1 $345 $90 #
coedge $-1 $229 $229 $230 $346 reversed $142 $-1 #
coedge $-1 $230 $230 $229 $346 forward $144 $-1 #
coedge $-1 $231 $231 $145 $232 forward $226 $-1 #
edge $-1 $347 -8.4094418945998144e-017 $347 6.2831853071796004 $231 $348 forward 7 unknown #
loop $-1 $-1 $238 $146 #
plane-surface $-1 -0.044779521554616508 -15.685140751484134 45.889149271946323 0 0.66913061440640931 0.74314481823134659 1 0 0 forward_v I I I I #
loop $-1 $-1 $349 $93 #
coedge $-1 $236 $236 $237 $350 reversed $147 $-1 #
coedge $-1 $237 $237 $236 $350 forward $149 $-1 #
coedge $-1 $238 $238 $150 $239 forward $233 $-1 #
edge $-1 $351 -8.4094418945998144e-017 $351 6.2831853071796004 $238 $352 forward 7 unknown #
face $-1 $353 $354 $36 $-1 $355 reversed single #
loop $-1 $-1 $356 $151 #
plane-surface $-1 -49.125034333323157 0 0 1 0 0 0 0 -1 forward_v I I I I #
coedge $-1 $357 $251 $358 $359 forward $152 $-1 #
coedge $-1 $360 $154 $357 $361 forward $97 $-1 #
coedge $-1 $154 $360 $362 $363 forward $97 $-1 #
coedge $-1 $254 $253 $154 $247 reversed $255 $-1 #
edge $-1 $364 -32.254729641328602 $365 32.254729641328602 $246 $366 forward 7 unknown #
coedge $-1 $156 $155 $367 $368 forward $61 $-1 #
coedge $-1 $369 $370 $155 $250 reversed $354 $-1 #
edge $-1 $257 -49.125034333323157 $371 49.125034333323157 $249 $372 forward 7 unknown #
coedge $-1 $243 $373 $156 $252 reversed $152 $-1 #
edge $-1 $374 -49.125034333323157 $256 49.125034333323157 $251 $375 forward 7 unknown #
coedge $-1 $246 $157 $373 $376 forward $255 $-1 #
coedge $-1 $157 $246 $369 $377 reversed $255 $-1 #
loop $-1 $-1 $253 $353 #
vertex $-1 $158 $378 #
vertex $-1 $158 $379 #
straight-curve $-1 49.125034333323157 0 9.0659149303772786 0 1 0 I I #
face $-1 $380 $381 $37 $-1 $382 reversed single #
loop $-1 $-1 $264 $159 #
plane-surface $-1 0 -32.254729641328602 0 0 1 0 0 0 1 forward_v I I I I #
coedge $-1 $383 $384 $263 $385 forward $160 $-1 #
coedge $-1 $271 $162 $262 $385 reversed $101 $-1 #
coedge $-1 $269 $386 $162 $265 forward $260 $-1 #
edge $-1 $387 -5.8812518877164273 $272 -0.48807419760527493 $264 $388 forward 7 unknown #
coedge $-1 $164 $163 $389 $390 reversed $64 $-1 #
coedge $-1 $391 $392 $163 $268 forward $393 $-1 #
edge $-1 $394 -27.299211901750812 $273 -16.352432961393877 $267 $395 forward 7 unknown #
coedge $-1 $396 $264 $164 $270 forward $260 $-1 #
edge $-1 $272 16.352432961393877 $397 27.299211901750812 $269 $398 forward 7 unknown #
coedge $-1 $165 $263 $391 $399 reversed $101 $-1 #
vertex $-1 $270 $400 #
vertex $-1 $268 $401 #
straight-curve $-1 -38.178255392966221 0 -3.6727372402661262 0 1 0 I I #
face $-1 $-1 $287 $38 $-1 $402 reversed single #
loop $-1 $-1 $403 $167 #
plane-surface $-1 0 0 9.0659149303772786 0 0 1 1 0 0 forward_v I I I I #
coedge $-1 $404 $405 $406 $407 reversed $168 $-1 #
coedge $-1 $408 $170 $172 $285 forward $105 $-1 #
coedge $-1 $170 $408 $404 $409 forward $105 $-1 #
coedge $-1 $406 $173 $170 $282 forward $287 $-1 #
edge $-1 $289 -19.281793242941312 $410 -6.4387484885349711 $281 $411 forward 7 unknown #
coedge $-1 $412 $413 $171 $284 forward $276 $-1 #
edge $-1 $414 -23.758228613149562 $288 -14.788021380213088 $283 $415 forward 7 unknown #
edge $-1 $289 0 $414 11.542500059013582 $172 $416 forward 7 unknown #
coedge $-1 $173 $406 $412 $417 reversed $287 $-1 #
loop $-1 $-1 $406 $275 #
vertex $-1 $417 $418 #
vertex $-1 $174 $419 #
straight-curve $-1 -32.142064108679456 -32.254729641328602 39.078313822378959 0 0 -1 I I #
coedge $-1 $291 $291 $-1 $420 reversed $177 $-1 #
edge $-1 $421 0 $421 6.2831853071796004 $178 $422 forward 7 unknown #
vertex $-1 $181 $423 #
ellipse-curve $-1 -29.573455157798186 -27.769626024860365 5.43394955986152 0 -0.62932039886446345 0.77714595512881146 1 0 0 1 I I #
coedge $-1 $295 $295 $-1 $424 reversed $184 $-1 #
edge $-1 $425 0 $425 6.2831853071796004 $185 $426 forward 7 unknown #
vertex $-1 $188 $427 #
ellipse-curve $-1 -25.720541731476281 -27.769626024860365 5.43394955986152 0 -0.62932039886446345 0.77714595512881146 1 0 0 1 I I #
coedge $-1 $299 $299 $-1 $428 reversed $191 $-1 #
edge $-1 $429 0 $429 6.2831853071796004 $192 $430 forward 7 unknown #
vertex $-1 $195 $431 #
ellipse-curve $-1 -21.867628305154376 -27.769626024860365 5.43394955986152 0 -0.62932039886446345 0.77714595512881146 1 0 0 1 I I #
face $-1 $-1 $315 $42 $-1 $432 forward single #
loop $-1 $-1 $433 $196 #
plane-surface $-1 0 32.254729641328602 0 0 -1 0 0 0 -1 forward_v I I I I #
coedge $-1 $434 $435 $436 $437 reversed $197 $-1 #
coedge $-1 $438 $199 $201 $313 forward $124 $-1 #
coedge $-1 $199 $438 $434 $439 forward $124 $-1 #
coedge $-1 $436 $202 $199 $310 forward $315 $-1 #
edge $-1 $317 -5.5405587525103925 $440 5.495779230955776 $309 $441 forward 7 unknown #
coedge $-1 $442 $443 $200 $312 forward $304 $-1 #
edge $-1 $444 -56.727694199102586 $316 -50.385674415841976 $311 $445 forward 7 unknown #
edge $-1 $317 55.03145955178752 $444 64.50945928265719 $201 $446 forward 7 unknown #
coedge $-1 $202 $436 $442 $447 forward $315 $-1 #
loop $-1 $-1 $436 $303 #
vertex $-1 $312 $448 #
vertex $-1 $203 $449 #
straight-curve $-1 -5.5629485132877008 25.028494030450407 9.065914930377275 0 -1 0 I I #
coedge $-1 $319 $319 $-1 $450 reversed $206 $-1 #
edge $-1 $451 0 $451 6.2831853071796004 $207 $452 forward 7 unknown #
vertex $-1 $210 $453 #
ellipse-curve $-1 -2.4097090894402271 28.732966447731652 5.8949050387469768 0 0.66913061440640931 0.74314481823134659 1.5 0 0 1 I I #
coedge $-1 $323 $323 $-1 $454 reversed $213 $-1 #
edge $-1 $455 0 $455 6.2831853071796004 $214 $456 forward 7 unknown #
vertex $-1 $217 $457 #
ellipse-curve $-1 2.320150046330987 28.732966447731652 5.8949050387469768 0 0.66913061440640931 0.74314481823134659 1.5 0 0 1 I I #
face $-1 $-1 $458 $45 $-1 $459 forward single #
loop $-1 $-1 $340 $218 #
plane-surface $-1 5.4733894701784678 50.056988060900814 118.90317869243852 -1 0 0 0 0.66913061440640931 0.74314481823134659 forward_v I I I I #
coedge $-1 $336 $460 $332 $461 forward $219 $-1 #
coedge $-1 $332 $221 $335 $462 reversed $138 $-1 #
coedge $-1 $221 $331 $330 $461 reversed $138 $-1 #
coedge $-1 $463 $338 $221 $334 forward $458 $-1 #
edge $-1 $464 0.1827092236842951 $465 7.2262356108781951 $333 $466 forward 7 unknown #
coedge $-1 $223 $222 $331 $462 forward $88 $-1 #
coedge $-1 $467 $330 $222 $337 forward $219 $-1 #
edge $-1 $468 -16.532117214421945 $342 -5.495779230955776 $336 $469 forward 7 unknown #
coedge $-1 $333 $470 $223 $339 forward $458 $-1 #
edge $-1 $343 5.495779230955776 $464 16.532117214421945 $338 $471 forward 7 unknown #
coedge $-1 $341 $224 $470 $472 reversed $328 $-1 #
coedge $-1 $224 $340 $467 $473 reversed $328 $-1 #
vertex $-1 $337 $474 #
vertex $-1 $339 $475 #
straight-curve $-1 5.4733894701784678 -15.685140751484134 45.889149271946323 0 -0.74314481823134659 0.66913061440640931 I I #
coedge $-1 $345 $345 $-1 $476 reversed $228 $-1 #
edge $-1 $477 0 $477 6.2831853071796004 $229 $478 forward 7 unknown #
vertex $-1 $232 $479 #
ellipse-curve $-1 8.6266288940259415 28.732966447731652 5.8949050387469768 0 0.66913061440640931 0.74314481823134659 1.5 0 0 1 I I #
coedge $-1 $349 $349 $-1 $480 reversed $235 $-1 #
edge $-1 $481 0 $481 6.2831853071796004 $236 $482 forward 7 unknown #
vertex $-1 $239 $483 #
ellipse-curve $-1 13.356488029797156 28.732966447731652 5.8949050387469768 0 0.66913061440640931 0.74314481823134659 1.5 0 0 1 I I #
face $-1 $-1 $255 $36 $-1 $484 reversed single #
loop $-1 $-1 $369 $240 #
plane-surface $-1 0 32.254729641328602 0 0 -1 0 0 0 -1 forward_v I I I I #
coedge $-1 $485 $367 $370 $486 forward $241 $-1 #
coedge $-1 $373 $243 $244 $361 reversed $152 $-1 #
coedge $-1 $367 $485 $243 $359 reversed $241 $-1 #
edge $-1 $374 -9.0659149303772786 $487 9.0659149303772786 $358 $488 forward 7 unknown #
coedge $-1 $245 $244 $485 $489 forward $97 $-1 #
edge $-1 $365 -49.125034333323157 $487 49.125034333323157 $357 $490 forward 7 unknown #
coedge $-1 $370 $369 $245 $363 reversed $354 $-1 #
edge $-1 $491 -49.125034333323157 $364 49.125034333323157 $362 $492 forward 7 unknown #
vertex $-1 $247 $493 #
vertex $-1 $376 $494 #
straight-curve $-1 49.125034333323157 0 -9.0659149303772786 0 -1 0 I I #
coedge $-1 $356 $358 $248 $368 reversed $241 $-1 #
edge $-1 $371 -32.254729641328602 $374 32.254729641328602 $367 $495 forward 7 unknown #
coedge $-1 $362 $249 $254 $377 forward $354 $-1 #
coedge $-1 $249 $362 $356 $486 reversed $354 $-1 #
vertex $-1 $250 $496 #
straight-curve $-1 0 32.254729641328602 9.0659149303772786 -1 0 0 I I #
coedge $-1 $251 $357 $253 $376 reversed $152 $-1 #
vertex $-1 $368 $497 #
straight-curve $-1 0 -32.254729641328602 9.0659149303772786 1 0 0 I I #
edge $-1 $256 -9.0659149303772786 $365 9.0659149303772786 $253 $498 forward 7 unknown #
edge $-1 $257 -9.0659149303772786 $364 9.0659149303772786 $254 $499 forward 7 unknown #
point $-1 49.125034333323157 -32.254729641328602 9.0659149303772786 #
point $-1 49.125034333323157 32.254729641328602 9.0659149303772786 #
face $-1 $-1 $393 $37 $-1 $500 reversed single #
loop $-1 $-1 $389 $259 #
plane-surface $-1 -49.125034333323157 0 0 1 0 0 0 0 -1 forward_v I I I I #
coedge $-1 $501 $262 $386 $502 forward $160 $-1 #
coedge $-1 $262 $501 $503 $504 forward $160 $-1 #
edge $-1 $505 -32.254729641328602 $387 32.254729641328602 $262 $506 forward 7 unknown #
coedge $-1 $264 $396 $383 $502 reversed $260 $-1 #
vertex $-1 $502 $507 #
straight-curve $-1 -38.178255392966221 -32.254729641328602 -3.1846630426608513 0 0 1 I I #
coedge $-1 $508 $509 $266 $390 forward $381 $-1 #
edge $-1 $397 -32.254729641328602 $394 32.254729641328602 $389 $510 forward 7 unknown #
coedge $-1 $503 $267 $271 $399 forward $393 $-1 #
coedge $-1 $267 $503 $508 $511 reversed $393 $-1 #
loop $-1 $-1 $391 $380 #
vertex $-1 $511 $512 #
straight-curve $-1 -21.825822431572345 32.254729641328602 -3.6727372402661262 1 0 0 I I #
coedge $-1 $386 $269 $509 $513 forward $260 $-1 #
vertex $-1 $513 $514 #
straight-curve $-1 -21.825822431572345 -32.254729641328602 -3.6727372402661262 -1 0 0 I I #
edge $-1 $273 0.48807419760527493 $505 5.8812518877164273 $391 $515 forward 7 unknown #
point $-1 -38.178255392966221 -32.254729641328602 -3.6727372402661262 #
point $-1 -38.178255392966221 32.254729641328602 -3.6727372402661262 #
plane-surface $-1 0 -32.254729641328602 0 0 1 0 0 0 1 forward_v I I I I #
coedge $-1 $413 $412 $405 $516 forward $276 $-1 #
coedge $-1 $405 $278 $280 $409 reversed $168 $-1 #
coedge $-1 $278 $404 $403 $516 reversed $168 $-1 #
coedge $-1 $286 $281 $278 $407 forward $287 $-1 #
edge $-1 $410 -37.2763296330332 $517 -30.012398892001681 $406 $518 forward 7 unknown #
coedge $-1 $280 $279 $413 $519 reversed $105 $-1 #
edge $-1 $520 -11.542500059013582 $410 0 $404 $521 forward 7 unknown #
vertex $-1 $282 $522 #
straight-curve $-1 -12.860270865738142 -32.254729641328602 1.8019841893457622 1 0 0 I I #
coedge $-1 $403 $283 $286 $417 forward $276 $-1 #
coedge $-1 $283 $403 $408 $519 forward $276 $-1 #
vertex $-1 $284 $523 #
straight-curve $-1 -32.142064108679456 -47.04275102154169 9.0659149303772821 0 -1 0 I I #
straight-curve $-1 -32.142064108679456 -32.254729641328602 1.8019841893457595 0 0.77714595512881146 0.62932039886446345 I I #
edge $-1 $288 -32.142064108679456 $517 -19.299019354273113 $286 $524 forward 7 unknown #
point $-1 -32.142064108679456 -32.254729641328602 9.0659149303772786 #
point $-1 -32.142064108679456 -32.254729641328602 1.8019841893457595 #
edge $-1 $525 1 $525 0 $291 $-1 forward 7 unknown #
vertex $-1 $292 $526 #
ellipse-curve $-1 -29.573455157798186 -25.527065917038158 2.6646185162914455 0 -0.62932039886446345 0.77714595512881146 1 0 0 1 I I #
point $-1 -28.573455157798186 -27.769626024860365 5.4339495598615173 #
edge $-1 $527 1 $527 0 $295 $-1 forward 7 unknown #
vertex $-1 $296 $528 #
ellipse-curve $-1 -25.720541731476281 -25.527065917038158 2.6646185162914455 0 -0.62932039886446345 0.77714595512881146 1 0 0 1 I I #
point $-1 -24.720541731476281 -27.769626024860365 5.4339495598615173 #
edge $-1 $529 1 $529 0 $299 $-1 forward 7 unknown #
vertex $-1 $300 $530 #
ellipse-curve $-1 -21.867628305154376 -25.527065917038158 2.6646185162914455 0 -0.62932039886446345 0.77714595512881146 1 0 0 1 I I #
point $-1 -20.867628305154376 -27.769626024860365 5.4339495598615173 #
plane-surface $-1 0 0 9.0659149303772786 0 0 1 1 0 0 forward_v I I I I #
coedge $-1 $443 $442 $435 $531 forward $304 $-1 #
coedge $-1 $435 $306 $308 $439 reversed $197 $-1 #
coedge $-1 $306 $434 $433 $531 reversed $197 $-1 #
coedge $-1 $314 $309 $306 $437 forward $315 $-1 #
edge $-1 $440 0.1827092236842951 $532 7.2262356108781951 $436 $533 forward 7 unknown #
coedge $-1 $308 $307 $443 $534 reversed $124 $-1 #
edge $-1 $535 -64.50945928265719 $440 -55.03145955178752 $434 $536 forward 7 unknown #
vertex $-1 $310 $537 #
straight-curve $-1 -0.022389760777308254 25.211203254134709 9.0659149303772715 1 0 0 I I #
coedge $-1 $433 $311 $314 $447 reversed $304 $-1 #
coedge $-1 $311 $433 $438 $534 forward $304 $-1 #
vertex $-1 $312 $538 #
straight-curve $-1 -5.5629485132877008 32.254729641328602 59.451589346219258 0 0 1 I I #
straight-curve $-1 -5.5629485132877008 -15.685140751484134 45.889149271946323 0 0.74314481823134659 -0.66913061440640931 I I #
edge $-1 $532 -5.4733894701784678 $316 5.5629485132877008 $442 $539 forward 7 unknown #
point $-1 -5.5629485132877008 32.254729641328602 9.0659149303772786 #
point $-1 -5.5629485132877008 25.211203254134702 9.065914930377275 #
edge $-1 $540 1 $540 0 $319 $-1 forward 7 unknown #
vertex $-1 $320 $541 #
ellipse-curve $-1 -2.4097090894402271 25.104964230520284 1.8656004602317315 0 0.66913061440640931 0.74314481823134659 1.5 0 0 1 I I #
point $-1 -0.9097090894402271 28.732966447731634 5.8949050387469573 #
edge $-1 $542 1 $542 0 $323 $-1 forward 7 unknown #
vertex $-1 $324 $543 #
ellipse-curve $-1 2.320150046330987 25.104964230520284 1.8656004602317315 0 0.66913061440640931 0.74314481823134659 1.5 0 0 1 I I #
point $-1 3.820150046330987 28.732966447731634 5.8949050387469573 #
loop $-1 $-1 $333 $327 #
plane-surface $-1 0 0 9.0659149303772786 0 0 1 1 0 0 forward_v I I I I #
coedge $-1 $330 $467 $463 $544 reversed $219 $-1 #
edge $-1 $465 50.385674415841976 $468 56.727694199102586 $330 $545 forward 7 unknown #
edge $-1 $468 -64.50945928265719 $464 -55.03145955178752 $331 $546 forward 7 unknown #
coedge $-1 $470 $333 $460 $544 forward $458 $-1 #
vertex $-1 $334 $547 #
vertex $-1 $544 $548 #
straight-curve $-1 16.509727453644636 25.028494030450407 9.065914930377275 0 1 0 I I #
coedge $-1 $460 $336 $341 $473 forward $219 $-1 #
vertex $-1 $461 $549 #
straight-curve $-1 -0.022389760777308254 32.254729641328602 2.7238951471166644 -1 0 0 I I #
coedge $-1 $338 $463 $340 $472 forward $458 $-1 #
straight-curve $-1 -0.022389760777308254 25.211203254134709 9.0659149303772715 1 0 0 I I #
edge $-1 $550 -7.2262356108781951 $343 -0.1827092236842951 $470 $551 forward 7 unknown #
edge $-1 $342 -56.727694199102586 $550 -50.385674415841976 $467 $552 forward 7 unknown #
point $-1 5.4733894701784678 32.254729641328595 2.7238951471166715 #
point $-1 5.4733894701784678 25.211203254134702 9.065914930377275 #
edge $-1 $553 1 $553 0 $345 $-1 forward 7 unknown #
vertex $-1 $346 $554 #
ellipse-curve $-1 8.6266288940259415 25.104964230520284 1.8656004602317315 0 0.66913061440640931 0.74314481823134659 1.5 0 0 1 I I #
point $-1 10.126628894025941 28.732966447731634 5.8949050387469573 #
edge $-1 $555 1 $555 0 $349 $-1 forward 7 unknown #
vertex $-1 $350 $556 #
ellipse-curve $-1 13.356488029797156 25.104964230520284 1.8656004602317315 0 0.66913061440640931 0.74314481823134659 1.5 0 0 1 I I #
point $-1 14.856488029797156 28.732966447731634 5.8949050387469573 #
plane-surface $-1 49.125034333323157 0 0 -1 0 0 0 0 1 forward_v I I I I #
coedge $-1 $358 $356 $360 $489 reversed $241 $-1 #
edge $-1 $371 -9.0659149303772786 $491 9.0659149303772786 $370 $557 forward 7 unknown #
vertex $-1 $489 $558 #
straight-curve $-1 -49.125034333323157 -32.254729641328602 0 0 0 -1 I I #
edge $-1 $487 -32.254729641328602 $491 32.254729641328602 $485 $559 forward 7 unknown #
straight-curve $-1 0 -32.254729641328602 -9.0659149303772786 -1 0 0 I I #
vertex $-1 $363 $560 #
straight-curve $-1 0 32.254729641328602 -9.0659149303772786 1 0 0 I I #
point $-1 49.125034333323157 32.254729641328602 -9.0659149303772786 #
point $-1 49.125034333323157 -32.254729641328602 -9.0659149303772786 #
straight-curve $-1 -49.125034333323157 0 9.0659149303772786 0 -1 0 I I #
point $-1 -49.125034333323157 32.254729641328602 9.0659149303772786 #
point $-1 -49.125034333323157 -32.254729641328602 9.0659149303772786 #
straight-curve $-1 49.125034333323157 -32.254729641328602 0 0 0 -1 I I #
straight-curve $-1 49.125034333323157 32.254729641328602 0 0 0 -1 I I #
plane-surface $-1 0 32.254729641328602 0 0 -1 0 0 0 -1 forward_v I I I I #
coedge $-1 $384 $383 $561 $562 forward $160 $-1 #
edge $-1 $387 38.178255392966221 $563 49.125034333323157 $386 $564 forward 7 unknown #
coedge $-1 $392 $391 $384 $504 reversed $393 $-1 #
edge $-1 $565 -49.125034333323157 $505 -38.178255392966221 $503 $566 forward 7 unknown #
vertex $-1 $399 $567 #
straight-curve $-1 -38.178255392966221 0 -9.0659149303772786 0 -1 0 I I #
point $-1 -38.178255392966221 -32.254729641328602 -9.0659149303772786 #
coedge $-1 $561 $389 $392 $511 forward $381 $-1 #
coedge $-1 $389 $561 $396 $513 reversed $381 $-1 #
straight-curve $-1 -49.125034333323157 0 -3.6727372402661262 0 1 0 I I #
edge $-1 $394 3.6727372402661262 $565 9.0659149303772786 $392 $568 forward 7 unknown #
point $-1 -49.125034333323157 32.254729641328602 -3.6727372402661262 #
edge $-1 $397 3.6727372402661262 $563 9.0659149303772786 $509 $569 forward 7 unknown #
point $-1 -49.125034333323157 -32.254729641328602 -3.6727372402661262 #
straight-curve $-1 -38.178255392966221 32.254729641328602 -3.1846630426608513 0 0 -1 I I #
edge $-1 $517 14.788021380213088 $520 23.758228613149562 $403 $570 forward 7 unknown #
vertex $-1 $407 $571 #
straight-curve $-1 -19.299019354273113 -32.254729641328602 39.078313822378959 0 0 1 I I #
edge $-1 $520 6.4387484885349711 $414 19.281793242941312 $413 $572 forward 7 unknown #
vertex $-1 $519 $573 #
straight-curve $-1 -19.299019354273113 -32.254729641328602 1.8019841893457595 0 -0.77714595512881146 -0.62932039886446345 I I #
point $-1 -19.299019354273113 -32.254729641328602 1.8019841893457595 #
point $-1 -32.142064108679456 -23.284522408392128 9.0659149303772786 #
straight-curve $-1 0 -32.254729641328602 9.0659149303772786 1 0 0 I I #
vertex $-1 $420 $574 #
point $-1 -28.573455157798186 -25.527065917038158 2.6646185162914455 #
vertex $-1 $424 $575 #
point $-1 -24.720541731476281 -25.527065917038158 2.6646185162914455 #
vertex $-1 $428 $576 #
point $-1 -20.867628305154376 -25.527065917038158 2.6646185162914455 #
edge $-1 $532 50.385674415841976 $535 56.727694199102586 $433 $577 forward 7 unknown #
vertex $-1 $447 $578 #
straight-curve $-1 5.4733894701784678 25.028494030450407 9.065914930377275 0 1 0 I I #
edge $-1 $535 -5.495779230955776 $444 5.5405587525103925 $443 $579 forward 7 unknown #
vertex $-1 $534 $580 #
straight-curve $-1 5.4733894701784678 -15.685140751484134 45.889149271946323 0 -0.74314481823134659 0.66913061440640931 I I #
point $-1 5.4733894701784678 25.211203254134702 9.065914930377275 #
point $-1 -5.5629485132877008 32.254729641328595 2.7238951471166715 #
straight-curve $-1 0 32.254729641328602 9.0659149303772786 -1 0 0 I I #
vertex $-1 $450 $581 #
point $-1 -0.9097090894402271 25.104964230520284 1.8656004602317315 #
vertex $-1 $454 $582 #
point $-1 3.820150046330987 25.104964230520284 1.8656004602317315 #
edge $-1 $465 -16.509727453644636 $550 -5.4733894701784678 $460 $583 forward 7 unknown #
straight-curve $-1 16.509727453644636 32.254729641328602 59.451589346219258 0 0 -1 I I #
straight-curve $-1 16.509727453644636 -15.685140751484134 45.889149271946323 0 -0.74314481823134659 0.66913061440640931 I I #
point $-1 16.509727453644636 25.211203254134702 9.065914930377275 #
point $-1 16.509727453644636 32.254729641328602 9.0659149303772786 #
point $-1 16.509727453644636 32.254729641328595 2.7238951471166715 #
vertex $-1 $473 $584 #
straight-curve $-1 5.4733894701784678 25.028494030450407 9.065914930377275 0 -1 0 I I #
straight-curve $-1 5.4733894701784678 32.254729641328602 59.451589346219258 0 0 1 I I #
vertex $-1 $476 $585 #
point $-1 10.126628894025941 25.104964230520284 1.8656004602317315 #
vertex $-1 $480 $586 #
point $-1 14.856488029797156 25.104964230520284 1.8656004602317315 #
straight-curve $-1 -49.125034333323157 32.254729641328602 0 0 0 -1 I I #
point $-1 -49.125034333323157 -32.254729641328602 -9.0659149303772786 #
straight-curve $-1 -49.125034333323157 0 -9.0659149303772786 0 1 0 I I #
point $-1 -49.125034333323157 32.254729641328602 -9.0659149303772786 #
coedge $-1 $509 $508 $501 $562 reversed $381 $-1 #
edge $-1 $563 -32.254729641328602 $565 32.254729641328602 $561 $587 forward 7 unknown #
vertex $-1 $562 $588 #
straight-curve $-1 0 -32.254729641328602 -9.0659149303772786 -1 0 0 I I #
vertex $-1 $504 $589 #
straight-curve $-1 0 32.254729641328602 -9.0659149303772786 1 0 0 I I #
point $-1 -38.178255392966221 32.254729641328602 -9.0659149303772786 #
straight-curve $-1 -49.125034333323157 32.254729641328602 0 0 0 -1 I I #
straight-curve $-1 -49.125034333323157 -32.254729641328602 0 0 0 -1 I I #
straight-curve $-1 -19.299019354273113 -47.04275102154169 9.0659149303772821 0 1 0 I I #
point $-1 -19.299019354273113 -32.254729641328602 9.0659149303772786 #
straight-curve $-1 -12.860270865738142 -23.284522408392128 9.0659149303772786 -1 0 0 I I #
point $-1 -19.299019354273113 -23.284522408392128 9.0659149303772786 #
point $-1 -29.573455157798186 -24.897745518173693 1.887472561162634 #
point $-1 -25.720541731476281 -24.897745518173693 1.887472561162634 #
point $-1 -21.867628305154376 -24.897745518173693 1.887472561162634 #
straight-curve $-1 5.4733894701784678 32.254729641328602 59.451589346219258 0 0 -1 I I #
point $-1 5.4733894701784678 32.254729641328602 9.0659149303772786 #
straight-curve $-1 -0.022389760777308254 32.254729641328602 2.7238951471166644 -1 0 0 I I #
point $-1 5.4733894701784678 32.254729641328595 2.7238951471166715 #
point $-1 -2.4097090894402271 24.101268308910672 0.75088323288471159 #
point $-1 2.320150046330987 24.101268308910672 0.75088323288471159 #
straight-curve $-1 0 32.254729641328602 9.0659149303772786 -1 0 0 I I #
point $-1 5.4733894701784678 32.254729641328602 9.0659149303772786 #
point $-1 8.6266288940259415 24.101268308910672 0.75088323288471159 #
point $-1 13.356488029797156 24.101268308910672 0.75088323288471159 #
straight-curve $-1 -49.125034333323157 0 -9.0659149303772786 0 1 0 I I #
point $-1 -49.125034333323157 -32.254729641328602 -9.0659149303772786 #
point $-1 -49.125034333323157 32.254729641328602 -9.0659149303772786 #
End-of-ACIS-data 