500 0 9 0           
7 Unknown 11 ACIS 5.0 NT 24 Thu Mar 25 15:51:04 1999 
-1 9.9999999999999995e-007 1e-010 
body $-1 $9 $-1 $10 #
body $-1 $11 $-1 $12 #
body $-1 $13 $-1 $14 #
body $-1 $15 $-1 $16 #
body $-1 $17 $-1 $18 #
body $-1 $19 $-1 $20 #
body $-1 $21 $-1 $22 #
body $-1 $23 $-1 $24 #
body $-1 $25 $-1 $26 #
lump $-1 $-1 $27 $0 #
transform $-1 1 0 0 0 1 0 0 0 1 65.858943449201945 40.701618958821953 8.3948408889860655 1 rotate no_reflect no_shear #
lump $-1 $-1 $28 $1 #
transform $-1 1 0 0 0 1 0 0 0 1 65.858943449201945 40.701618958821953 8.3948408889860655 1 rotate no_reflect no_shear #
lump $-1 $-1 $29 $2 #
transform $-1 1 0 0 0 1 0 0 0 1 65.858943449201945 40.701618958821953 8.3948408889860655 1 rotate no_reflect no_shear #
lump $-1 $-1 $30 $3 #
transform $-1 1 0 0 0 1 0 0 0 1 65.858943449201945 40.701618958821953 8.3948408889860655 1 rotate no_reflect no_shear #
lump $-1 $-1 $31 $4 #
transform $-1 1 0 0 0 1 0 0 0 1 65.858943449201945 40.701618958821953 8.3948408889860655 1 rotate no_reflect no_shear #
lump $-1 $-1 $32 $5 #
transform $-1 1 0 0 0 1 0 0 0 1 65.858943449201945 40.701618958821953 8.3948408889860655 1 rotate no_reflect no_shear #
lump $-1 $-1 $33 $6 #
transform $-1 1 0 0 0 1 0 0 0 1 65.858943449201945 40.701618958821953 8.3948408889860655 1 rotate no_reflect no_shear #
lump $-1 $-1 $34 $7 #
transform $-1 1 0 0 0 1 0 0 0 1 65.858943449201945 40.701618958821953 8.3948408889860655 1 rotate no_reflect no_shear #
lump $-1 $-1 $35 $8 #
transform $-1 1 0 0 0 1 0 0 0 1 65.858943449201945 40.701618958821953 8.3948408889860655 1 rotate no_reflect no_shear #
shell $-1 $-1 $-1 $36 $-1 $9 #
shell $-1 $-1 $-1 $37 $-1 $11 #
shell $-1 $-1 $-1 $38 $-1 $13 #
shell $-1 $-1 $-1 $39 $-1 $15 #
shell $-1 $-1 $-1 $40 $-1 $17 #
shell $-1 $-1 $-1 $41 $-1 $19 #
shell $-1 $-1 $-1 $42 $-1 $21 #
shell $-1 $-1 $-1 $43 $-1 $23 #
shell $-1 $-1 $-1 $44 $-1 $25 #
face $-1 $45 $46 $27 $-1 $47 forward single #
face $-1 $48 $49 $28 $-1 $50 forward single #
face $-1 $51 $52 $29 $-1 $53 reversed single #
face $-1 $54 $55 $30 $-1 $56 forward single #
face $-1 $57 $58 $31 $-1 $59 forward single #
face $-1 $60 $61 $32 $-1 $62 reversed single #
face $-1 $63 $64 $33 $-1 $65 forward single #
face $-1 $66 $67 $34 $-1 $68 forward single #
face $-1 $69 $70 $35 $-1 $71 forward single #
face $-1 $72 $73 $27 $-1 $74 reversed single #
loop $-1 $-1 $75 $36 #
plane-surface $-1 0 0 8.3948408889860655 0 0 1 1 0 0 forward_v I I I I #
face $-1 $76 $77 $28 $-1 $78 reversed single #
loop $-1 $-1 $79 $37 #
plane-surface $-1 0 -40.701618958821953 0 0 1 0 0 0 1 forward_v I I I I #
face $-1 $80 $81 $29 $-1 $82 reversed single #
loop $-1 $-1 $83 $38 #
plane-surface $-1 -157.35787719726071 29.555442421418618 98.814940818432291 0 1 0 -0.69465837861970381 0 0.71933979245794832 forward_v I I I I #
face $-1 $84 $85 $30 $-1 $86 forward single #
loop $-1 $87 $88 $39 #
cone-surface $-1 -62.612672388263995 32.740064289248139 5.189801531494334 0.69465837861970381 0 -0.71933979245794832 0.71933979245794832 0 0.69465837861970381 1 I I 0 1 1 forward I I I I #
face $-1 $89 $90 $31 $-1 $91 forward single #
loop $-1 $92 $93 $40 #
cone-surface $-1 -62.612672388263995 37.516997090992433 5.189801531494334 0.69465837861970381 0 -0.71933979245794832 0.71933979245794832 0 0.69465837861970381 1 I I 0 1 1 forward I I I I #
face $-1 $94 $95 $32 $-1 $96 reversed single #
loop $-1 $-1 $97 $41 #
plane-surface $-1 75.6079422941487 -5.9443190646220145 190.54417110353623 0 -1 0 -0.74314483375859142 0 -0.66913059716165679 forward_v I I I I #
face $-1 $98 $99 $33 $-1 $100 forward single #
loop $-1 $101 $102 $42 #
cone-surface $-1 63.743916354518049 -12.967095844556198 6.1239729580063944 -0.74314483375859142 0 -0.66913059716165679 0.3345652985808284 0 -0.37157241687929571 1 I I 0 1 0.5 forward I I I I #
face $-1 $103 $104 $34 $-1 $105 forward single #
loop $-1 $106 $107 $43 #
cone-surface $-1 63.743916354518049 -10.333554552080876 6.1239729580063944 -0.74314483375859142 0 -0.66913059716165679 0.3345652985808284 0 -0.37157241687929571 1 I I 0 1 0.5 forward I I I I #
face $-1 $108 $109 $35 $-1 $110 forward single #
loop $-1 $111 $112 $44 #
cone-surface $-1 63.743916354518049 -7.700013259605555 6.1239729580063944 -0.74314483375859142 0 -0.66913059716165679 0.3345652985808284 0 -0.37157241687929571 1 I I 0 1 0.5 forward I I I I #
face $-1 $113 $114 $27 $-1 $115 reversed single #
loop $-1 $-1 $116 $45 #
plane-surface $-1 0 0 -8.3948408889860655 0 0 1 1 0 0 forward_v I I I I #
coedge $-1 $117 $118 $119 $120 forward $46 $-1 #
face $-1 $121 $122 $28 $-1 $123 forward single #
loop $-1 $-1 $124 $48 #
plane-surface $-1 -65.858943449201945 0 0 1 0 0 0 0 -1 forward_v I I I I #
coedge $-1 $125 $126 $127 $128 forward $49 $-1 #
face $-1 $129 $130 $29 $-1 $131 forward single #
loop $-1 $-1 $132 $51 #
plane-surface $-1 -65.858943449201931 35.128530690120286 4.0650233939349221 -0.69465837861970381 0 0.71933979245794832 0.71933979245794832 0 0.69465837861970381 forward_v I I I I #
coedge $-1 $133 $134 $135 $136 reversed $52 $-1 #
face $-1 $-1 $137 $30 $-1 $138 forward single #
loop $-1 $139 $140 $54 #
cone-surface $-1 -61.260900721772458 32.740064289248139 3.790001025299194 0.69465837861970381 0 -0.71933979245794832 0.35966989622897416 0 0.3473291893098519 1 I I -0.70710678118654746 0.70710678118654746 0.5 forward I I I I #
loop $-1 $-1 $141 $39 #
coedge $-1 $88 $88 $142 $143 reversed $55 $-1 #
face $-1 $-1 $144 $31 $-1 $145 forward single #
loop $-1 $146 $147 $57 #
cone-surface $-1 -61.260900721772458 37.516997090992433 3.790001025299194 0.69465837861970381 0 -0.71933979245794832 0.35966989622897416 0 0.3473291893098519 1 I I -0.70710678118654746 0.70710678118654746 0.5 forward I I I I #
loop $-1 $-1 $148 $40 #
coedge $-1 $93 $93 $149 $150 reversed $58 $-1 #
face $-1 $151 $152 $32 $-1 $153 reversed single #
loop $-1 $-1 $154 $60 #
plane-surface $-1 -22.277524867998608 -10.33355455208088 102.40770278633566 0.74314483375859142 0 0.66913059716165679 0.66913059716165679 0 -0.74314483375859142 forward_v I I I I #
coedge $-1 $155 $156 $157 $158 reversed $61 $-1 #
face $-1 $-1 $159 $33 $-1 $160 forward single #
loop $-1 $161 $162 $63 #
cone-surface $-1 63.186557729199109 -12.967095844556198 5.6221250101351519 -0.74314483375859142 0 -0.66913059716165679 0.1672826492904142 0 -0.18578620843964785 1 I I -0.70710678118654746 0.70710678118654746 0.25 forward I I I I #
loop $-1 $-1 $163 $42 #
coedge $-1 $102 $102 $164 $165 reversed $64 $-1 #
face $-1 $-1 $166 $34 $-1 $167 forward single #
loop $-1 $168 $169 $66 #
cone-surface $-1 63.186557729199109 -10.333554552080876 5.6221250101351519 -0.74314483375859142 0 -0.66913059716165679 0.1672826492904142 0 -0.18578620843964785 1 I I -0.70710678118654746 0.70710678118654746 0.25 forward I I I I #
loop $-1 $-1 $170 $43 #
coedge $-1 $107 $107 $171 $172 reversed $67 $-1 #
face $-1 $-1 $173 $35 $-1 $174 forward single #
loop $-1 $175 $176 $69 #
cone-surface $-1 63.186557729199109 -7.700013259605555 5.6221250101351519 -0.74314483375859142 0 -0.66913059716165679 0.1672826492904142 0 -0.18578620843964785 1 I I -0.70710678118654746 0.70710678118654746 0.25 forward I I I I #
loop $-1 $-1 $177 $44 #
coedge $-1 $112 $112 $178 $179 reversed $70 $-1 #
face $-1 $180 $181 $27 $-1 $182 reversed single #
loop $-1 $-1 $183 $72 #
plane-surface $-1 0 -40.701618958821953 0 0 1 0 0 0 1 forward_v I I I I #
coedge $-1 $184 $185 $186 $187 forward $73 $-1 #
coedge $-1 $188 $75 $189 $190 forward $46 $-1 #
coedge $-1 $75 $188 $191 $192 forward $46 $-1 #
coedge $-1 $193 $194 $75 $120 reversed $195 $-1 #
edge $-1 $196 -40.701618958821953 $197 40.701618958821953 $119 $198 forward 7 unknown #
face $-1 $199 $200 $28 $-1 $201 reversed single #
loop $-1 $-1 $202 $76 #
plane-surface $-1 0 -45.518590292312773 -4.8948408889860655 0 0 1 1 0 0 forward_v I I I I #
coedge $-1 $203 $204 $126 $205 forward $77 $-1 #
coedge $-1 $206 $79 $207 $208 reversed $49 $-1 #
coedge $-1 $79 $206 $124 $205 reversed $49 $-1 #
coedge $-1 $209 $202 $79 $128 reversed $122 $-1 #
edge $-1 $210 -65.858943449201945 $211 65.858943449201945 $127 $212 forward 7 unknown #
face $-1 $213 $214 $29 $-1 $215 reversed single #
loop $-1 $-1 $135 $80 #
plane-surface $-1 0 0 8.3948408889860655 0 0 1 1 0 0 forward_v I I I I #
coedge $-1 $216 $217 $218 $219 reversed $81 $-1 #
coedge $-1 $134 $83 $220 $221 reversed $52 $-1 #
coedge $-1 $83 $133 $216 $222 reversed $52 $-1 #
coedge $-1 $218 $223 $83 $136 forward $130 $-1 #
edge $-1 $224 12.819995149428408 $225 17.303652316940976 $135 $226 forward 7 unknown #
loop $-1 $-1 $142 $84 #
plane-surface $-1 -65.858943449201931 35.128530690120286 4.0650233939349221 -0.69465837861970381 0 0.71933979245794832 0.71933979245794832 0 0.69465837861970381 forward_v I I I I #
loop $-1 $-1 $227 $54 #
coedge $-1 $140 $140 $141 $228 reversed $85 $-1 #
coedge $-1 $141 $141 $140 $228 forward $87 $-1 #
coedge $-1 $142 $142 $88 $143 forward $137 $-1 #
edge $-1 $229 0 $229 6.2831853071796004 $142 $230 forward 7 unknown #
loop $-1 $-1 $149 $89 #
plane-surface $-1 -65.858943449201931 35.128530690120286 4.0650233939349221 -0.69465837861970381 0 0.71933979245794832 0.71933979245794832 0 0.69465837861970381 forward_v I I I I #
loop $-1 $-1 $231 $57 #
coedge $-1 $147 $147 $148 $232 reversed $90 $-1 #
coedge $-1 $148 $148 $147 $232 forward $92 $-1 #
coedge $-1 $149 $149 $93 $150 forward $144 $-1 #
edge $-1 $233 0 $233 6.2831853071796004 $149 $234 forward 7 unknown #
face $-1 $235 $236 $32 $-1 $237 reversed single #
loop $-1 $-1 $238 $94 #
plane-surface $-1 75.6079422941487 -14.722790039539746 190.54417110353623 0 1 0 0.74314483375859142 0 0.66913059716165679 forward_v I I I I #
coedge $-1 $239 $240 $241 $242 reversed $95 $-1 #
coedge $-1 $156 $97 $243 $244 reversed $61 $-1 #
coedge $-1 $97 $155 $239 $245 reversed $61 $-1 #
coedge $-1 $241 $246 $97 $158 forward $247 $-1 #
edge $-1 $248 -28.054972302127595 $249 -24.568062946518424 $157 $250 forward 7 unknown #
loop $-1 $-1 $164 $98 #
plane-surface $-1 -22.277524867998608 -10.33355455208088 102.40770278633566 0.74314483375859142 0 0.66913059716165679 0.66913059716165679 0 -0.74314483375859142 forward_v I I I I #
loop $-1 $-1 $251 $63 #
coedge $-1 $162 $162 $163 $252 reversed $99 $-1 #
coedge $-1 $163 $163 $162 $252 forward $101 $-1 #
coedge $-1 $164 $164 $102 $165 forward $159 $-1 #
edge $-1 $253 0 $253 6.2831853071796004 $164 $254 forward 7 unknown #
loop $-1 $-1 $171 $103 #
plane-surface $-1 -22.277524867998608 -10.33355455208088 102.40770278633566 0.74314483375859142 0 0.66913059716165679 0.66913059716165679 0 -0.74314483375859142 forward_v I I I I #
loop $-1 $-1 $255 $66 #
coedge $-1 $169 $169 $170 $256 reversed $104 $-1 #
coedge $-1 $170 $170 $169 $256 forward $106 $-1 #
coedge $-1 $171 $171 $107 $172 forward $166 $-1 #
edge $-1 $257 0 $257 6.2831853071796004 $171 $258 forward 7 unknown #
loop $-1 $-1 $178 $108 #
plane-surface $-1 -22.277524867998608 -10.33355455208088 102.40770278633566 0.74314483375859142 0 0.66913059716165679 0.66913059716165679 0 -0.74314483375859142 forward_v I I I I #
loop $-1 $-1 $259 $69 #
coedge $-1 $176 $176 $177 $260 reversed $109 $-1 #
coedge $-1 $177 $177 $176 $260 forward $111 $-1 #
coedge $-1 $178 $178 $112 $179 forward $173 $-1 #
edge $-1 $261 0 $261 6.2831853071796004 $178 $262 forward 7 unknown #
face $-1 $263 $264 $27 $-1 $265 reversed single #
loop $-1 $-1 $266 $113 #
plane-surface $-1 -65.858943449201945 0 0 1 0 0 0 0 -1 forward_v I I I I #
coedge $-1 $267 $191 $268 $269 forward $114 $-1 #
coedge $-1 $270 $116 $267 $271 forward $73 $-1 #
coedge $-1 $116 $270 $272 $273 forward $73 $-1 #
coedge $-1 $194 $193 $116 $187 reversed $195 $-1 #
edge $-1 $274 -40.701618958821953 $275 40.701618958821953 $186 $276 forward 7 unknown #
coedge $-1 $118 $117 $277 $278 forward $46 $-1 #
coedge $-1 $279 $280 $117 $190 reversed $264 $-1 #
edge $-1 $197 -65.858943449201945 $281 65.858943449201945 $189 $282 forward 7 unknown #
coedge $-1 $183 $283 $118 $192 reversed $114 $-1 #
edge $-1 $284 -65.858943449201945 $196 65.858943449201945 $191 $285 forward 7 unknown #
coedge $-1 $186 $119 $283 $286 forward $195 $-1 #
coedge $-1 $119 $186 $279 $287 reversed $195 $-1 #
loop $-1 $-1 $193 $263 #
vertex $-1 $120 $288 #
vertex $-1 $120 $289 #
straight-curve $-1 65.858943449201945 0 8.3948408889860655 0 1 0 I I #
face $-1 $290 $291 $28 $-1 $292 reversed single #
loop $-1 $-1 $293 $121 #
plane-surface $-1 0 -45.518590292312773 -7.8948408889860655 0 0 1 1 0 0 forward_v I I I I #
coedge $-1 $127 $294 $295 $296 forward $122 $-1 #
coedge $-1 $297 $124 $298 $299 reversed $77 $-1 #
coedge $-1 $124 $297 $209 $300 reversed $77 $-1 #
edge $-1 $210 4.8948408889860655 $301 7.8948408889860655 $124 $302 forward 7 unknown #
coedge $-1 $126 $125 $303 $304 forward $49 $-1 #
coedge $-1 $295 $305 $125 $208 forward $306 $-1 #
edge $-1 $307 -7.8948408889860655 $211 -4.8948408889860655 $207 $308 forward 7 unknown #
coedge $-1 $294 $127 $204 $300 forward $122 $-1 #
vertex $-1 $205 $309 #
vertex $-1 $296 $310 #
straight-curve $-1 0 -40.701618958821953 -4.8948408889860655 1 0 0 I I #
face $-1 $-1 $311 $29 $-1 $312 reversed single #
loop $-1 $-1 $313 $129 #
plane-surface $-1 0 40.701618958821953 0 0 -1 0 0 0 -1 forward_v I I I I #
coedge $-1 $314 $132 $134 $222 forward $81 $-1 #
coedge $-1 $132 $314 $313 $315 reversed $81 $-1 #
coedge $-1 $316 $135 $132 $219 forward $130 $-1 #
edge $-1 $225 11.991177076358476 $317 23.13735361376181 $218 $318 forward 7 unknown #
coedge $-1 $319 $320 $133 $221 forward $311 $-1 #
edge $-1 $321 -45.342447015281238 $224 -41.012629520230078 $220 $322 forward 7 unknown #
edge $-1 $225 -6.2330170171625277 $321 1.9477141995791963e-014 $134 $323 forward 7 unknown #
coedge $-1 $135 $316 $319 $324 forward $130 $-1 #
vertex $-1 $221 $325 #
vertex $-1 $136 $326 #
straight-curve $-1 -78.678938598630353 29.555442421418618 8.3948408889860673 1 0 0 I I #
coedge $-1 $227 $227 $-1 $327 reversed $139 $-1 #
edge $-1 $328 0 $328 6.2831853071796004 $140 $329 forward 7 unknown #
vertex $-1 $143 $330 #
ellipse-curve $-1 -63.617114865445664 32.740064289248139 6.229932141460484 -0.69465837861970381 0 0.71933979245794832 0.71933979245794832 0 0.69465837861970381 1 I I #
coedge $-1 $231 $231 $-1 $331 reversed $146 $-1 #
edge $-1 $332 0 $332 6.2831853071796004 $147 $333 forward 7 unknown #
vertex $-1 $150 $334 #
ellipse-curve $-1 -63.617114865445664 37.516997090992433 6.229932141460484 -0.69465837861970381 0 0.71933979245794832 0.71933979245794832 0 0.69465837861970381 1 I I #
face $-1 $-1 $247 $32 $-1 $335 forward single #
loop $-1 $-1 $336 $151 #
plane-surface $-1 65.858943449201945 0 0 -1 0 0 0 0 1 forward_v I I I I #
coedge $-1 $337 $338 $339 $340 reversed $152 $-1 #
coedge $-1 $341 $154 $156 $245 forward $95 $-1 #
coedge $-1 $154 $341 $337 $342 forward $95 $-1 #
coedge $-1 $339 $157 $154 $242 forward $247 $-1 #
edge $-1 $249 0.77754178858157452 $343 9.5560127634993055 $241 $344 forward 7 unknown #
coedge $-1 $345 $346 $155 $244 forward $236 $-1 #
edge $-1 $347 -90.749849927579731 $248 -86.877244662782047 $243 $348 forward 7 unknown #
edge $-1 $249 126.5067825633158 $347 131.71788689840383 $156 $349 forward 7 unknown #
coedge $-1 $157 $339 $345 $350 forward $247 $-1 #
loop $-1 $-1 $339 $235 #
vertex $-1 $244 $351 #
vertex $-1 $158 $352 #
straight-curve $-1 37.80397114707435 -5.9443190646220145 8.3948408889860673 -1 0 0 I I #
coedge $-1 $251 $251 $-1 $353 reversed $161 $-1 #
edge $-1 $354 0 $354 6.2831853071796004 $162 $355 forward 7 unknown #
vertex $-1 $165 $356 #
ellipse-curve $-1 64.115488771397352 -12.967095844556198 6.4585382565872322 0.74314483375859142 0 0.66913059716165679 0.3345652985808284 0 -0.37157241687929571 1 I I #
coedge $-1 $255 $255 $-1 $357 reversed $168 $-1 #
edge $-1 $358 0 $358 6.2831853071796004 $169 $359 forward 7 unknown #
vertex $-1 $172 $360 #
ellipse-curve $-1 64.115488771397352 -10.333554552080876 6.4585382565872322 0.74314483375859142 0 0.66913059716165679 0.3345652985808284 0 -0.37157241687929571 1 I I #
coedge $-1 $259 $259 $-1 $361 reversed $175 $-1 #
edge $-1 $362 0 $362 6.2831853071796004 $176 $363 forward 7 unknown #
vertex $-1 $179 $364 #
ellipse-curve $-1 64.115488771397352 -7.700013259605555 6.4585382565872322 0.74314483375859142 0 0.66913059716165679 0.3345652985808284 0 -0.37157241687929571 1 I I #
face $-1 $-1 $195 $27 $-1 $365 reversed single #
loop $-1 $-1 $279 $180 #
plane-surface $-1 0 40.701618958821953 0 0 -1 0 0 0 -1 forward_v I I I I #
coedge $-1 $366 $277 $280 $367 forward $181 $-1 #
coedge $-1 $283 $183 $184 $271 reversed $114 $-1 #
coedge $-1 $277 $366 $183 $269 reversed $181 $-1 #
edge $-1 $284 -8.3948408889860655 $368 8.3948408889860655 $268 $369 forward 7 unknown #
coedge $-1 $185 $184 $366 $370 forward $73 $-1 #
edge $-1 $275 -65.858943449201945 $368 65.858943449201945 $267 $371 forward 7 unknown #
coedge $-1 $280 $279 $185 $273 reversed $264 $-1 #
edge $-1 $372 -65.858943449201945 $274 65.858943449201945 $272 $373 forward 7 unknown #
vertex $-1 $187 $374 #
vertex $-1 $286 $375 #
straight-curve $-1 65.858943449201945 0 -8.3948408889860655 0 -1 0 I I #
coedge $-1 $266 $268 $188 $278 reversed $181 $-1 #
edge $-1 $281 -40.701618958821953 $284 40.701618958821953 $277 $376 forward 7 unknown #
coedge $-1 $272 $189 $194 $287 forward $264 $-1 #
coedge $-1 $189 $272 $266 $367 reversed $264 $-1 #
vertex $-1 $190 $377 #
straight-curve $-1 0 40.701618958821953 8.3948408889860655 -1 0 0 I I #
coedge $-1 $191 $267 $193 $286 reversed $114 $-1 #
vertex $-1 $278 $378 #
straight-curve $-1 0 -40.701618958821953 8.3948408889860655 1 0 0 I I #
edge $-1 $196 -8.3948408889860655 $275 8.3948408889860655 $193 $379 forward 7 unknown #
edge $-1 $197 -8.3948408889860655 $274 8.3948408889860655 $194 $380 forward 7 unknown #
point $-1 65.858943449201945 -40.701618958821953 8.3948408889860655 #
point $-1 65.858943449201945 40.701618958821953 8.3948408889860655 #
face $-1 $-1 $306 $28 $-1 $381 reversed single #
loop $-1 $-1 $382 $199 #
plane-surface $-1 0 -50.335561625803592 -6.3948408889860655 0 1 0 0 0 1 forward_v I I I I #
coedge $-1 $383 $303 $305 $384 forward $200 $-1 #
coedge $-1 $202 $209 $385 $386 forward $122 $-1 #
coedge $-1 $387 $207 $202 $296 reversed $306 $-1 #
edge $-1 $388 -4.8169713334908195 $211 4.8169713334908195 $295 $389 forward 7 unknown #
coedge $-1 $204 $203 $382 $390 reversed $77 $-1 #
coedge $-1 $303 $383 $203 $299 forward $200 $-1 #
edge $-1 $391 -4.8169713334908195 $301 4.8169713334908195 $203 $392 forward 7 unknown #
edge $-1 $210 -4.8169713334908195 $393 4.8169713334908195 $204 $394 forward 7 unknown #
vertex $-1 $205 $395 #
straight-curve $-1 -65.858943449201945 -40.701618958821953 0 0 0 -1 I I #
coedge $-1 $293 $298 $206 $304 reversed $200 $-1 #
edge $-1 $307 -65.858943449201945 $301 65.858943449201945 $303 $396 forward 7 unknown #
coedge $-1 $207 $387 $293 $384 reversed $306 $-1 #
loop $-1 $-1 $207 $290 #
vertex $-1 $208 $397 #
straight-curve $-1 65.858943449201945 -40.701618958821953 0 0 0 1 I I #
point $-1 -65.858943449201945 -40.701618958821953 -4.8948408889860655 #
point $-1 65.858943449201945 -40.701618958821953 -4.8948408889860655 #
loop $-1 $-1 $220 $213 #
plane-surface $-1 -65.858943449201945 0 0 1 0 0 0 0 -1 forward_v I I I I #
coedge $-1 $398 $399 $217 $315 forward $214 $-1 #
coedge $-1 $217 $216 $320 $400 reversed $81 $-1 #
edge $-1 $317 16.042561059020812 $401 22.275578076183361 $313 $402 forward 7 unknown #
coedge $-1 $223 $218 $399 $403 forward $130 $-1 #
vertex $-1 $403 $404 #
straight-curve $-1 -61.375286281689377 17.564265345060143 8.3948408889860655 0 1 0 I I #
coedge $-1 $405 $220 $223 $324 reversed $311 $-1 #
coedge $-1 $220 $405 $314 $400 forward $311 $-1 #
vertex $-1 $221 $406 #
straight-curve $-1 -65.858943449201945 29.555442421418618 49.407470409216145 0 0 1 I I #
straight-curve $-1 -65.858943449201931 29.555442421418618 4.0650233939349221 -0.71933979245794832 0 -0.69465837861970381 I I #
edge $-1 $407 -40.701618958821953 $224 -29.555442421418618 $319 $408 forward 7 unknown #
point $-1 -65.858943449201945 29.555442421418618 8.3948408889860655 #
point $-1 -61.375286281689377 29.555442421418618 8.3948408889860655 #
edge $-1 $409 1 $409 0 $227 $-1 forward 7 unknown #
vertex $-1 $228 $410 #
ellipse-curve $-1 -61.608229911082312 32.740064289248139 4.149670921528168 -0.69465837861970381 0 0.71933979245794832 0.71933979245794832 0 0.69465837861970381 1 I I #
point $-1 -62.897775072987727 32.740064289248139 6.924590520080204 #
edge $-1 $411 1 $411 0 $231 $-1 forward 7 unknown #
vertex $-1 $232 $412 #
ellipse-curve $-1 -61.608229911082312 37.516997090992433 4.149670921528168 -0.69465837861970381 0 0.71933979245794832 0.71933979245794832 0 0.69465837861970381 1 I I #
point $-1 -62.897775072987727 37.516997090992433 6.924590520080204 #
plane-surface $-1 0 0 8.3948408889860655 0 0 1 1 0 0 forward_v I I I I #
coedge $-1 $346 $345 $338 $413 forward $236 $-1 #
coedge $-1 $338 $238 $240 $342 reversed $152 $-1 #
coedge $-1 $238 $337 $336 $413 reversed $152 $-1 #
coedge $-1 $246 $241 $238 $340 forward $247 $-1 #
edge $-1 $343 24.568062946518424 $414 28.054972302127595 $339 $415 forward 7 unknown #
coedge $-1 $240 $239 $346 $416 reversed $95 $-1 #
edge $-1 $417 -131.71788689840383 $343 -126.5067825633158 $337 $418 forward 7 unknown #
vertex $-1 $242 $419 #
straight-curve $-1 62.372034093592774 -5.16677727604044 8.3948408889860673 0 -1 0 I I #
coedge $-1 $336 $243 $246 $350 reversed $236 $-1 #
coedge $-1 $243 $336 $341 $416 forward $236 $-1 #
vertex $-1 $244 $420 #
straight-curve $-1 65.858943449201945 -5.9443190646220145 95.272085551768114 0 0 1 I I #
straight-curve $-1 -22.277524867998608 -5.9443190646220145 102.40770278633566 0.66913059716165679 0 -0.74314483375859142 I I #
edge $-1 $414 -14.722790039539746 $248 -5.9443190646220145 $345 $421 forward 7 unknown #
point $-1 65.858943449201945 -5.9443190646220145 8.3948408889860655 #
point $-1 62.372034093592774 -5.9443190646220145 8.3948408889860673 #
edge $-1 $422 1 $422 0 $251 $-1 forward 7 unknown #
vertex $-1 $252 $423 #
ellipse-curve $-1 63.372343937638753 -12.967095844556198 5.7894076594255663 0.74314483375859142 0 0.66913059716165679 0.3345652985808284 0 -0.37157241687929571 1 I I #
point $-1 64.450054069978179 -12.967095844556198 6.0869658397079274 #
edge $-1 $424 1 $424 0 $255 $-1 forward 7 unknown #
vertex $-1 $256 $425 #
ellipse-curve $-1 63.372343937638753 -10.333554552080876 5.7894076594255663 0.74314483375859142 0 0.66913059716165679 0.3345652985808284 0 -0.37157241687929571 1 I I #
point $-1 64.450054069978179 -10.333554552080876 6.0869658397079274 #
edge $-1 $426 1 $426 0 $259 $-1 forward 7 unknown #
vertex $-1 $260 $427 #
ellipse-curve $-1 63.372343937638753 -7.700013259605555 5.7894076594255663 0.74314483375859142 0 0.66913059716165679 0.3345652985808284 0 -0.37157241687929571 1 I I #
point $-1 64.450054069978179 -7.700013259605555 6.0869658397079274 #
plane-surface $-1 65.858943449201945 0 0 -1 0 0 0 0 1 forward_v I I I I #
coedge $-1 $268 $266 $270 $370 reversed $181 $-1 #
edge $-1 $281 -8.3948408889860655 $372 8.3948408889860655 $280 $428 forward 7 unknown #
vertex $-1 $370 $429 #
straight-curve $-1 -65.858943449201945 -40.701618958821953 0 0 0 -1 I I #
edge $-1 $368 -40.701618958821953 $372 40.701618958821953 $366 $430 forward 7 unknown #
straight-curve $-1 0 -40.701618958821953 -8.3948408889860655 -1 0 0 I I #
vertex $-1 $273 $431 #
straight-curve $-1 0 40.701618958821953 -8.3948408889860655 1 0 0 I I #
point $-1 65.858943449201945 40.701618958821953 -8.3948408889860655 #
point $-1 65.858943449201945 -40.701618958821953 -8.3948408889860655 #
straight-curve $-1 -65.858943449201945 0 8.3948408889860655 0 -1 0 I I #
point $-1 -65.858943449201945 40.701618958821953 8.3948408889860655 #
point $-1 -65.858943449201945 -40.701618958821953 8.3948408889860655 #
straight-curve $-1 65.858943449201945 -40.701618958821953 0 0 0 -1 I I #
straight-curve $-1 65.858943449201945 40.701618958821953 0 0 0 -1 I I #
plane-surface $-1 65.858943449201945 0 0 -1 0 0 0 0 1 forward_v I I I I #
coedge $-1 $432 $385 $297 $390 forward $291 $-1 #
coedge $-1 $298 $293 $432 $433 forward $200 $-1 #
edge $-1 $307 -4.8169713334908195 $434 4.8169713334908195 $305 $435 forward 7 unknown #
coedge $-1 $382 $436 $294 $386 reversed $291 $-1 #
edge $-1 $393 -65.858943449201945 $388 65.858943449201945 $385 $437 forward 7 unknown #
coedge $-1 $305 $295 $436 $438 forward $306 $-1 #
vertex $-1 $296 $439 #
straight-curve $-1 65.858943449201945 -45.518590292312773 -4.8948408889860655 0 1 0 I I #
edge $-1 $393 -1.5 $391 1.5 $297 $440 forward 7 unknown #
vertex $-1 $299 $441 #
straight-curve $-1 -65.858943449201945 -45.518590292312773 -7.8948408889860655 0 1 0 I I #
vertex $-1 $300 $442 #
straight-curve $-1 -65.858943449201945 -45.518590292312773 -4.8948408889860655 0 -1 0 I I #
point $-1 -65.858943449201945 -40.701618958821953 -7.8948408889860655 #
straight-curve $-1 0 -40.701618958821953 -7.8948408889860655 -1 0 0 I I #
point $-1 65.858943449201945 -40.701618958821953 -7.8948408889860655 #
coedge $-1 $399 $313 $405 $443 reversed $214 $-1 #
coedge $-1 $313 $398 $316 $403 reversed $214 $-1 #
edge $-1 $401 -23.13735361376181 $321 -11.991177076358476 $320 $444 forward 7 unknown #
vertex $-1 $315 $445 #
straight-curve $-1 -49.835233738999378 40.701618958821953 19.538940343153058 -0.71933979245794832 0 -0.69465837861970381 I I #
edge $-1 $317 61.375286281689377 $407 65.858943449201945 $399 $446 forward 7 unknown #
point $-1 -61.375286281689377 40.701618958821953 8.3948408889860655 #
coedge $-1 $320 $319 $398 $443 forward $311 $-1 #
point $-1 -65.858943449201945 29.555442421418618 4.0650233939349087 #
vertex $-1 $403 $447 #
straight-curve $-1 -65.858943449201945 0 8.3948408889860655 0 -1 0 I I #
vertex $-1 $327 $448 #
point $-1 -60.88889011862436 32.740064289248139 4.844329300147872 #
vertex $-1 $331 $449 #
point $-1 -60.88889011862436 37.516997090992433 4.844329300147872 #
edge $-1 $414 86.877244662782047 $417 90.749849927579731 $336 $450 forward 7 unknown #
vertex $-1 $350 $451 #
straight-curve $-1 37.80397114707435 -14.722790039539746 8.3948408889860673 1 0 0 I I #
edge $-1 $417 -9.5560127634993055 $347 -0.77754178858157452 $346 $452 forward 7 unknown #
vertex $-1 $416 $453 #
straight-curve $-1 -22.277524867998608 -14.722790039539746 102.40770278633566 -0.66913059716165679 0 0.74314483375859142 I I #
point $-1 62.372034093592774 -14.722790039539746 8.3948408889860673 #
point $-1 65.858943449201931 -5.9443190646220145 4.522235624188383 #
straight-curve $-1 65.858943449201945 0 8.3948408889860655 0 1 0 I I #
vertex $-1 $353 $454 #
point $-1 63.706909236219587 -12.967095844556198 5.4178352425462704 #
vertex $-1 $357 $455 #
point $-1 63.706909236219587 -10.333554552080876 5.4178352425462704 #
vertex $-1 $361 $456 #
point $-1 63.706909236219587 -7.700013259605555 5.4178352425462704 #
straight-curve $-1 -65.858943449201945 40.701618958821953 0 0 0 -1 I I #
point $-1 -65.858943449201945 -40.701618958821953 -8.3948408889860655 #
straight-curve $-1 -65.858943449201945 0 -8.3948408889860655 0 1 0 I I #
point $-1 -65.858943449201945 40.701618958821953 -8.3948408889860655 #
coedge $-1 $436 $382 $383 $433 reversed $291 $-1 #
edge $-1 $434 -65.858943449201945 $391 65.858943449201945 $432 $457 forward 7 unknown #
vertex $-1 $438 $458 #
straight-curve $-1 65.858943449201945 -45.518590292312773 -7.8948408889860655 0 -1 0 I I #
coedge $-1 $385 $432 $387 $438 reversed $291 $-1 #
straight-curve $-1 0 -50.335561625803592 -4.8948408889860655 1 0 0 I I #
edge $-1 $388 -1.5 $434 1.5 $387 $459 forward 7 unknown #
point $-1 65.858943449201945 -50.335561625803592 -4.8948408889860655 #
straight-curve $-1 -65.858943449201945 -50.335561625803592 -6.3948408889860655 0 0 -1 I I #
point $-1 -65.858943449201945 -50.335561625803592 -7.8948408889860655 #
point $-1 -65.858943449201945 -50.335561625803592 -4.8948408889860655 #
edge $-1 $407 -8.3948408889860655 $401 -4.0650233939349087 $398 $460 forward 7 unknown #
straight-curve $-1 -65.858943449201945 17.564265345060143 4.065023393934915 0 -1 0 I I #
point $-1 -65.858943449201945 40.701618958821953 4.0650233939349087 #
straight-curve $-1 0 40.701618958821953 8.3948408889860655 -1 0 0 I I #
point $-1 -65.858943449201945 40.701618958821953 8.3948408889860655 #
point $-1 -60.913571532462605 32.740064289248139 3.4303311290702201 #
point $-1 -60.913571532462605 37.516997090992433 3.4303311290702201 #
straight-curve $-1 65.858943449201945 -14.722790039539746 95.272085551768114 0 0 -1 I I #
point $-1 65.858943449201945 -14.722790039539746 8.3948408889860655 #
straight-curve $-1 65.858943449201945 -5.16677727604044 4.5222356241883688 0 1 0 I I #
point $-1 65.858943449201931 -14.722790039539746 4.522235624188383 #
point $-1 63.000771520759464 -12.967095844556198 5.4548423608447374 #
point $-1 63.000771520759464 -10.333554552080876 5.4548423608447374 #
point $-1 63.000771520759464 -7.700013259605555 5.4548423608447374 #
straight-curve $-1 0 -50.335561625803592 -7.8948408889860655 -1 0 0 I I #
point $-1 65.858943449201945 -50.335561625803592 -7.8948408889860655 #
straight-curve $-1 65.858943449201945 -50.335561625803592 -6.3948408889860655 0 0 -1 I I #
straight-curve $-1 -65.858943449201945 40.701618958821953 0 0 0 -1 I I #
End-of-ACIS-data 