500 0 11 0           
7 Unknown 11 ACIS 5.0 NT 24 Fri Mar 26 02:02:04 1999 
-1 9.9999999999999995e-007 1e-010 
body $-1 $11 $-1 $12 #
body $-1 $13 $-1 $14 #
body $-1 $15 $-1 $16 #
body $-1 $17 $-1 $18 #
body $-1 $19 $-1 $20 #
body $-1 $21 $-1 $22 #
body $-1 $23 $-1 $24 #
body $-1 $25 $-1 $26 #
body $-1 $27 $-1 $28 #
body $-1 $29 $-1 $30 #
body $-1 $31 $-1 $32 #
lump $-1 $-1 $33 $0 #
transform $-1 1 0 0 0 1 0 0 0 1 40.84109012115848 21.288669065504525 6.2241761074996163 1 rotate no_reflect no_shear #
lump $-1 $-1 $34 $1 #
transform $-1 1 0 0 0 1 0 0 0 1 40.84109012115848 21.288669065504525 6.2241761074996163 1 rotate no_reflect no_shear #
lump $-1 $-1 $35 $2 #
transform $-1 1 0 0 0 1 0 0 0 1 40.84109012115848 21.288669065504525 6.2241761074996163 1 rotate no_reflect no_shear #
lump $-1 $-1 $36 $3 #
transform $-1 1 0 0 0 1 0 0 0 1 40.84109012115848 21.288669065504525 6.2241761074996163 1 rotate no_reflect no_shear #
lump $-1 $-1 $37 $4 #
transform $-1 1 0 0 0 1 0 0 0 1 40.84109012115848 21.288669065504525 6.2241761074996163 1 rotate no_reflect no_shear #
lump $-1 $-1 $38 $5 #
transform $-1 1 0 0 0 1 0 0 0 1 40.84109012115848 21.288669065504525 6.2241761074996163 1 rotate no_reflect no_shear #
lump $-1 $-1 $39 $6 #
transform $-1 1 0 0 0 1 0 0 0 1 40.84109012115848 21.288669065504525 6.2241761074996163 1 rotate no_reflect no_shear #
lump $-1 $-1 $40 $7 #
transform $-1 1 0 0 0 1 0 0 0 1 40.84109012115848 21.288669065504525 6.2241761074996163 1 rotate no_reflect no_shear #
lump $-1 $-1 $41 $8 #
transform $-1 1 0 0 0 1 0 0 0 1 40.84109012115848 21.288669065504525 6.2241761074996163 1 rotate no_reflect no_shear #
lump $-1 $-1 $42 $9 #
transform $-1 1 0 0 0 1 0 0 0 1 40.84109012115848 21.288669065504525 6.2241761074996163 1 rotate no_reflect no_shear #
lump $-1 $-1 $43 $10 #
transform $-1 1 0 0 0 1 0 0 0 1 40.84109012115848 21.288669065504525 6.2241761074996163 1 rotate no_reflect no_shear #
shell $-1 $-1 $-1 $44 $-1 $11 #
shell $-1 $-1 $-1 $45 $-1 $13 #
shell $-1 $-1 $-1 $46 $-1 $15 #
shell $-1 $-1 $-1 $47 $-1 $17 #
shell $-1 $-1 $-1 $48 $-1 $19 #
shell $-1 $-1 $-1 $49 $-1 $21 #
shell $-1 $-1 $-1 $50 $-1 $23 #
shell $-1 $-1 $-1 $51 $-1 $25 #
shell $-1 $-1 $-1 $52 $-1 $27 #
shell $-1 $-1 $-1 $53 $-1 $29 #
shell $-1 $-1 $-1 $54 $-1 $31 #
face $-1 $55 $56 $33 $-1 $57 forward single #
face $-1 $58 $59 $34 $-1 $60 reversed single #
face $-1 $61 $62 $35 $-1 $63 reversed single #
face $-1 $64 $65 $36 $-1 $66 reversed single #
face $-1 $67 $68 $37 $-1 $69 forward single #
face $-1 $70 $71 $38 $-1 $72 forward single #
face $-1 $73 $74 $39 $-1 $75 forward single #
face $-1 $76 $77 $40 $-1 $78 reversed single #
face $-1 $79 $80 $41 $-1 $81 forward single #
face $-1 $82 $83 $42 $-1 $84 forward single #
face $-1 $85 $86 $43 $-1 $87 forward single #
face $-1 $88 $89 $33 $-1 $90 reversed single #
loop $-1 $-1 $91 $44 #
plane-surface $-1 0 0 6.2241761074996163 0 0 1 1 0 0 forward_v I I I I #
face $-1 $92 $93 $34 $-1 $94 reversed single #
loop $-1 $-1 $95 $45 #
plane-surface $-1 -35.510658923719717 -18.414466222682361 0 1 0 0 0 0 -1 forward_v I I I I #
face $-1 $96 $97 $35 $-1 $98 reversed single #
loop $-1 $-1 $99 $46 #
plane-surface $-1 0 16.964201087649347 4.7241761074996163 0 1 0 0 0 1 forward_v I I I I #
face $-1 $100 $101 $36 $-1 $102 reversed single #
loop $-1 $-1 $103 $47 #
plane-surface $-1 -28.429326966113067 13.256624782451052 46.170553288086637 0.52991927123019833 0 0.84804809178421925 0.84804809178421925 0 -0.52991927123019833 forward_v I I I I #
face $-1 $104 $105 $37 $-1 $106 forward single #
loop $-1 $107 $108 $48 #
cone-surface $-1 37.796018457851204 11.032078999332068 3.9569255778345354 -0.52991927123019833 0 -0.84804809178421925 0.42402404589210962 0 -0.26495963561509916 1 I I 0 1 0.5 forward I I I I #
face $-1 $109 $110 $38 $-1 $111 forward single #
loop $-1 $112 $113 $49 #
cone-surface $-1 37.796018457851204 13.256624782451052 3.9569255778345354 -0.52991927123019833 0 -0.84804809178421925 0.42402404589210962 0 -0.26495963561509916 1 I I 0 1 0.5 forward I I I I #
face $-1 $114 $115 $39 $-1 $116 forward single #
loop $-1 $117 $118 $50 #
cone-surface $-1 37.796018457851204 15.481170565570036 3.9569255778345354 -0.52991927123019833 0 -0.84804809178421925 0.42402404589210962 0 -0.26495963561509916 1 I I 0 1 0.5 forward I I I I #
face $-1 $119 $120 $40 $-1 $121 reversed single #
loop $-1 $-1 $122 $51 #
plane-surface $-1 -93.345384158433092 5.1321749247474138 65.35514347435749 0 1 0 -0.64278761758704617 0 0.76604443648966558 forward_v I I I I #
face $-1 $123 $124 $41 $-1 $125 forward single #
loop $-1 $126 $127 $52 #
cone-surface $-1 -38.469157754022987 6.8613717070706315 4.1205477051972226 0.64278761758704617 0 -0.76604443648966558 0.38302221824483279 0 0.32139380879352308 1 I I 0 1 0.5 forward I I I I #
face $-1 $128 $129 $42 $-1 $130 forward single #
loop $-1 $131 $132 $53 #
cone-surface $-1 -38.469157754022987 9.4551668805554563 4.1205477051972226 0.64278761758704617 0 -0.76604443648966558 0.38302221824483279 0 0.32139380879352308 1 I I 0 1 0.5 forward I I I I #
face $-1 $133 $134 $43 $-1 $135 forward single #
loop $-1 $136 $137 $54 #
cone-surface $-1 -38.469157754022987 12.048962054040285 4.1205477051972226 0.64278761758704617 0 -0.76604443648966558 0.38302221824483279 0 0.32139380879352308 1 I I 0 1 0.5 forward I I I I #
face $-1 $138 $139 $33 $-1 $140 reversed single #
loop $-1 $-1 $141 $55 #
plane-surface $-1 0 0 -6.2241761074996163 0 0 1 1 0 0 forward_v I I I I #
coedge $-1 $142 $143 $144 $145 forward $56 $-1 #
face $-1 $146 $147 $34 $-1 $148 reversed single #
loop $-1 $-1 $149 $58 #
plane-surface $-1 -34.010658923719717 -15.540263379860196 0 0 -1 0 0 0 -1 forward_v I I I I #
coedge $-1 $150 $151 $152 $153 forward $59 $-1 #
face $-1 $154 $155 $35 $-1 $156 reversed single #
loop $-1 $-1 $157 $61 #
plane-surface $-1 0 19.126435076576936 3.2241761074996163 0 0 1 1 0 0 forward_v I I I I #
coedge $-1 $158 $159 $160 $161 reversed $62 $-1 #
face $-1 $162 $163 $36 $-1 $164 reversed single #
loop $-1 $-1 $165 $64 #
plane-surface $-1 14.85563446038924 9.5490484772527466 115.44097037535819 0 1 0 0.52991927123019833 0 0.84804809178421925 forward_v I I I I #
coedge $-1 $166 $167 $168 $169 reversed $65 $-1 #
face $-1 $-1 $170 $37 $-1 $171 forward single #
loop $-1 $172 $173 $67 #
cone-surface $-1 37.289892751115694 11.032078999332068 3.1469551481810427 -0.52991927123019833 0 -0.84804809178421925 0.21201202294605481 0 -0.13247981780754958 1 I I -0.70710678118654746 0.70710678118654746 0.25 forward I I I I #
loop $-1 $-1 $174 $48 #
coedge $-1 $108 $108 $175 $176 reversed $68 $-1 #
face $-1 $-1 $177 $38 $-1 $178 forward single #
loop $-1 $179 $180 $70 #
cone-surface $-1 37.289892751115694 13.256624782451052 3.1469551481810427 -0.52991927123019833 0 -0.84804809178421925 0.21201202294605481 0 -0.13247981780754958 1 I I -0.70710678118654746 0.70710678118654746 0.25 forward I I I I #
loop $-1 $-1 $181 $49 #
coedge $-1 $113 $113 $182 $183 reversed $71 $-1 #
face $-1 $-1 $184 $39 $-1 $185 forward single #
loop $-1 $186 $187 $73 #
cone-surface $-1 37.289892751115694 15.481170565570036 3.1469551481810427 -0.52991927123019833 0 -0.84804809178421925 0.21201202294605481 0 -0.13247981780754958 1 I I -0.70710678118654746 0.70710678118654746 0.25 forward I I I I #
loop $-1 $-1 $188 $50 #
coedge $-1 $118 $118 $189 $190 reversed $74 $-1 #
face $-1 $191 $192 $40 $-1 $193 reversed single #
loop $-1 $-1 $194 $76 #
plane-surface $-1 -40.84109012115848 9.4551668805554563 2.782963739384499 -0.64278761758704617 0 0.76604443648966558 0.76604443648966558 0 0.64278761758704617 forward_v I I I I #
coedge $-1 $195 $196 $197 $198 reversed $77 $-1 #
face $-1 $-1 $199 $41 $-1 $200 forward single #
loop $-1 $201 $202 $79 #
cone-surface $-1 -37.987067040832706 6.8613717070706315 3.5460143778299731 0.64278761758704617 0 -0.76604443648966558 0.1915111091224164 0 0.16069690439676154 1 I I -0.70710678118654746 0.70710678118654746 0.25 forward I I I I #
loop $-1 $-1 $203 $52 #
coedge $-1 $127 $127 $204 $205 reversed $80 $-1 #
face $-1 $-1 $206 $42 $-1 $207 forward single #
loop $-1 $208 $209 $82 #
cone-surface $-1 -37.987067040832706 9.4551668805554563 3.5460143778299731 0.64278761758704617 0 -0.76604443648966558 0.1915111091224164 0 0.16069690439676154 1 I I -0.70710678118654746 0.70710678118654746 0.25 forward I I I I #
loop $-1 $-1 $210 $53 #
coedge $-1 $132 $132 $211 $212 reversed $83 $-1 #
face $-1 $-1 $213 $43 $-1 $214 forward single #
loop $-1 $215 $216 $85 #
cone-surface $-1 -37.987067040832706 12.048962054040285 3.5460143778299731 0.64278761758704617 0 -0.76604443648966558 0.1915111091224164 0 0.16069690439676154 1 I I -0.70710678118654746 0.70710678118654746 0.25 forward I I I I #
loop $-1 $-1 $217 $54 #
coedge $-1 $137 $137 $218 $219 reversed $86 $-1 #
face $-1 $220 $221 $33 $-1 $222 reversed single #
loop $-1 $-1 $223 $88 #
plane-surface $-1 0 -21.288669065504525 0 0 1 0 0 0 1 forward_v I I I I #
coedge $-1 $224 $225 $226 $227 forward $89 $-1 #
coedge $-1 $228 $91 $229 $230 forward $56 $-1 #
coedge $-1 $91 $228 $231 $232 forward $56 $-1 #
coedge $-1 $233 $234 $91 $145 reversed $235 $-1 #
edge $-1 $236 -21.288669065504525 $237 21.288669065504525 $144 $238 forward 7 unknown #
face $-1 $239 $240 $34 $-1 $241 forward single #
loop $-1 $-1 $242 $92 #
plane-surface $-1 -32.510658923719717 -18.414466222682361 0 -1 0 0 0 0 1 forward_v I I I I #
coedge $-1 $243 $244 $245 $246 forward $93 $-1 #
coedge $-1 $247 $95 $248 $249 reversed $59 $-1 #
coedge $-1 $95 $247 $250 $251 reversed $59 $-1 #
coedge $-1 $244 $243 $95 $153 reversed $93 $-1 #
edge $-1 $252 -6.2241761074996163 $253 6.2241761074996163 $152 $254 forward 7 unknown #
face $-1 $255 $256 $35 $-1 $257 reversed single #
loop $-1 $-1 $258 $96 #
plane-surface $-1 40.84109012115848 0 0 -1 0 0 0 0 1 forward_v I I I I #
coedge $-1 $259 $260 $261 $262 reversed $97 $-1 #
coedge $-1 $263 $99 $264 $265 reversed $62 $-1 #
coedge $-1 $99 $263 $258 $266 reversed $62 $-1 #
coedge $-1 $267 $268 $99 $161 forward $269 $-1 #
edge $-1 $270 -40.84109012115848 $271 40.84109012115848 $160 $272 forward 7 unknown #
face $-1 $273 $274 $36 $-1 $275 forward single #
loop $-1 $-1 $276 $100 #
plane-surface $-1 40.84109012115848 0 0 -1 0 0 0 0 1 forward_v I I I I #
coedge $-1 $277 $278 $279 $280 reversed $101 $-1 #
coedge $-1 $281 $103 $282 $283 reversed $65 $-1 #
coedge $-1 $103 $281 $277 $284 forward $65 $-1 #
coedge $-1 $279 $285 $103 $169 forward $286 $-1 #
edge $-1 $287 -10.335888696423821 $288 -2.9207360860272207 $168 $289 forward 7 unknown #
loop $-1 $-1 $175 $104 #
plane-surface $-1 -28.429326966113067 13.256624782451052 46.170553288086637 0.52991927123019833 0 0.84804809178421925 0.84804809178421925 0 -0.52991927123019833 forward_v I I I I #
loop $-1 $-1 $290 $67 #
coedge $-1 $173 $173 $174 $291 reversed $105 $-1 #
coedge $-1 $174 $174 $173 $291 forward $107 $-1 #
coedge $-1 $175 $175 $108 $176 forward $170 $-1 #
edge $-1 $292 0 $292 6.2831853071796004 $175 $293 forward 7 unknown #
loop $-1 $-1 $182 $109 #
plane-surface $-1 -28.429326966113067 13.256624782451052 46.170553288086637 0.52991927123019833 0 0.84804809178421925 0.84804809178421925 0 -0.52991927123019833 forward_v I I I I #
loop $-1 $-1 $294 $70 #
coedge $-1 $180 $180 $181 $295 reversed $110 $-1 #
coedge $-1 $181 $181 $180 $295 forward $112 $-1 #
coedge $-1 $182 $182 $113 $183 forward $177 $-1 #
edge $-1 $296 0 $296 6.2831853071796004 $182 $297 forward 7 unknown #
loop $-1 $-1 $189 $114 #
plane-surface $-1 -28.429326966113067 13.256624782451052 46.170553288086637 0.52991927123019833 0 0.84804809178421925 0.84804809178421925 0 -0.52991927123019833 forward_v I I I I #
loop $-1 $-1 $298 $73 #
coedge $-1 $187 $187 $188 $299 reversed $115 $-1 #
coedge $-1 $188 $188 $187 $299 forward $117 $-1 #
coedge $-1 $189 $189 $118 $190 forward $184 $-1 #
edge $-1 $300 0 $300 6.2831853071796004 $189 $301 forward 7 unknown #
face $-1 $302 $303 $40 $-1 $304 reversed single #
loop $-1 $-1 $305 $119 #
plane-surface $-1 -93.345384158433092 13.778158836363499 65.35514347435749 0 -1 0 0.64278761758704617 0 -0.76604443648966558 forward_v I I I I #
coedge $-1 $306 $307 $308 $309 reversed $120 $-1 #
coedge $-1 $196 $122 $310 $311 reversed $77 $-1 #
coedge $-1 $122 $195 $306 $312 reversed $77 $-1 #
coedge $-1 $308 $313 $122 $198 forward $314 $-1 #
edge $-1 $315 5.8316019580580658 $316 9.9326790747419906 $197 $317 forward 7 unknown #
loop $-1 $-1 $204 $123 #
plane-surface $-1 -40.84109012115848 9.4551668805554563 2.782963739384499 -0.64278761758704617 0 0.76604443648966558 0.76604443648966558 0 0.64278761758704617 forward_v I I I I #
loop $-1 $-1 $318 $79 #
coedge $-1 $202 $202 $203 $319 reversed $124 $-1 #
coedge $-1 $203 $203 $202 $319 forward $126 $-1 #
coedge $-1 $204 $204 $127 $205 forward $199 $-1 #
edge $-1 $320 0 $320 6.2831853071796004 $204 $321 forward 7 unknown #
loop $-1 $-1 $211 $128 #
plane-surface $-1 -40.84109012115848 9.4551668805554563 2.782963739384499 -0.64278761758704617 0 0.76604443648966558 0.76604443648966558 0 0.64278761758704617 forward_v I I I I #
loop $-1 $-1 $322 $82 #
coedge $-1 $209 $209 $210 $323 reversed $129 $-1 #
coedge $-1 $210 $210 $209 $323 forward $131 $-1 #
coedge $-1 $211 $211 $132 $212 forward $206 $-1 #
edge $-1 $324 0 $324 6.2831853071796004 $211 $325 forward 7 unknown #
loop $-1 $-1 $218 $133 #
plane-surface $-1 -40.84109012115848 9.4551668805554563 2.782963739384499 -0.64278761758704617 0 0.76604443648966558 0.76604443648966558 0 0.64278761758704617 forward_v I I I I #
loop $-1 $-1 $326 $85 #
coedge $-1 $216 $216 $217 $327 reversed $134 $-1 #
coedge $-1 $217 $217 $216 $327 forward $136 $-1 #
coedge $-1 $218 $218 $137 $219 forward $213 $-1 #
edge $-1 $328 0 $328 6.2831853071796004 $218 $329 forward 7 unknown #
face $-1 $330 $331 $33 $-1 $332 reversed single #
loop $-1 $-1 $333 $138 #
plane-surface $-1 -40.84109012115848 0 0 1 0 0 0 0 -1 forward_v I I I I #
coedge $-1 $334 $231 $335 $336 forward $139 $-1 #
coedge $-1 $337 $141 $334 $338 forward $89 $-1 #
coedge $-1 $141 $337 $339 $340 forward $89 $-1 #
coedge $-1 $234 $233 $141 $227 reversed $235 $-1 #
edge $-1 $341 -21.288669065504525 $342 21.288669065504525 $226 $343 forward 7 unknown #
coedge $-1 $143 $142 $344 $345 forward $56 $-1 #
coedge $-1 $346 $347 $142 $230 reversed $331 $-1 #
edge $-1 $237 -40.84109012115848 $348 40.84109012115848 $229 $349 forward 7 unknown #
coedge $-1 $223 $350 $143 $232 reversed $139 $-1 #
edge $-1 $351 -40.84109012115848 $236 40.84109012115848 $231 $352 forward 7 unknown #
coedge $-1 $226 $144 $350 $353 forward $235 $-1 #
coedge $-1 $144 $226 $346 $354 reversed $235 $-1 #
loop $-1 $-1 $233 $330 #
vertex $-1 $145 $355 #
vertex $-1 $145 $356 #
straight-curve $-1 40.84109012115848 0 6.2241761074996163 0 1 0 I I #
face $-1 $357 $358 $34 $-1 $359 reversed single #
loop $-1 $-1 $360 $146 #
plane-surface $-1 0 0 6.2241761074996163 0 0 1 1 0 0 forward_v I I I I #
coedge $-1 $361 $362 $363 $364 reversed $147 $-1 #
coedge $-1 $152 $149 $365 $366 reversed $93 $-1 #
coedge $-1 $149 $152 $367 $368 reversed $93 $-1 #
coedge $-1 $362 $361 $149 $246 reversed $147 $-1 #
edge $-1 $369 -6.2241761074996163 $370 6.2241761074996163 $245 $371 forward 7 unknown #
coedge $-1 $151 $150 $372 $373 reversed $59 $-1 #
coedge $-1 $365 $374 $150 $249 forward $358 $-1 #
edge $-1 $375 -12.081435954163345 $253 -6.3330302685190158 $248 $376 forward 7 unknown #
coedge $-1 $377 $367 $151 $251 forward $240 $-1 #
edge $-1 $252 6.3330302685190158 $378 12.081435954163345 $250 $379 forward 7 unknown #
vertex $-1 $251 $380 #
vertex $-1 $249 $381 #
straight-curve $-1 -35.510658923719717 -15.540263379860196 0 0 0 -1 I I #
face $-1 $382 $269 $35 $-1 $383 forward single #
loop $-1 $-1 $384 $154 #
plane-surface $-1 0 21.288669065504525 0 0 -1 0 0 0 -1 forward_v I I I I #
coedge $-1 $261 $385 $159 $266 forward $155 $-1 #
coedge $-1 $386 $157 $263 $387 forward $97 $-1 #
coedge $-1 $157 $386 $384 $388 reversed $97 $-1 #
coedge $-1 $389 $258 $157 $262 forward $155 $-1 #
edge $-1 $390 7.4009835493608787 $391 11.725451527216057 $261 $392 forward 7 unknown #
coedge $-1 $159 $158 $259 $387 reversed $62 $-1 #
coedge $-1 $393 $394 $158 $265 forward $395 $-1 #
edge $-1 $396 0.86208805374980813 $270 3.8620880537498081 $264 $397 forward 7 unknown #
edge $-1 $271 -3.8620880537498081 $390 -0.86208805374980813 $258 $398 forward 7 unknown #
coedge $-1 $399 $160 $385 $400 forward $269 $-1 #
coedge $-1 $160 $399 $393 $401 forward $269 $-1 #
loop $-1 $-1 $160 $255 #
vertex $-1 $265 $402 #
vertex $-1 $400 $403 #
straight-curve $-1 0 16.964201087649347 6.2241761074996163 1 0 0 I I #
face $-1 $-1 $286 $36 $-1 $404 forward single #
loop $-1 $-1 $282 $162 #
plane-surface $-1 0 16.964201087649347 4.7241761074996163 0 1 0 0 0 1 forward_v I I I I #
coedge $-1 $405 $406 $278 $407 forward $163 $-1 #
coedge $-1 $278 $165 $167 $284 reversed $101 $-1 #
coedge $-1 $165 $277 $276 $407 reversed $101 $-1 #
coedge $-1 $408 $168 $165 $280 forward $286 $-1 #
edge $-1 $288 28.070421342205229 $409 33.41327289096386 $279 $410 forward 7 unknown #
coedge $-1 $167 $166 $405 $411 reversed $65 $-1 #
coedge $-1 $412 $413 $166 $283 forward $274 $-1 #
edge $-1 $414 -58.645845004821737 $287 -52.345669813674576 $282 $415 forward 7 unknown #
edge $-1 $416 -81.682180242316946 $288 -75.382005051169784 $277 $417 forward 7 unknown #
coedge $-1 $168 $408 $412 $418 forward $286 $-1 #
loop $-1 $-1 $279 $273 #
vertex $-1 $283 $419 #
vertex $-1 $169 $420 #
straight-curve $-1 35.498238572399849 6.628312391225526 6.2241761074996127 0 -1 0 I I #
coedge $-1 $290 $290 $-1 $421 reversed $172 $-1 #
edge $-1 $422 0 $422 6.2831853071796004 $173 $423 forward 7 unknown #
vertex $-1 $176 $424 #
ellipse-curve $-1 38.169664346779165 11.032078999332068 4.5548839845419735 0.52991927123019833 0 0.84804809178421925 0.42402404589210962 0 -0.26495963561509916 1 I I #
coedge $-1 $294 $294 $-1 $425 reversed $179 $-1 #
edge $-1 $426 0 $426 6.2831853071796004 $180 $427 forward 7 unknown #
vertex $-1 $183 $428 #
ellipse-curve $-1 38.169664346779165 13.256624782451052 4.5548839845419735 0.52991927123019833 0 0.84804809178421925 0.42402404589210962 0 -0.26495963561509916 1 I I #
coedge $-1 $298 $298 $-1 $429 reversed $186 $-1 #
edge $-1 $430 0 $430 6.2831853071796004 $187 $431 forward 7 unknown #
vertex $-1 $190 $432 #
ellipse-curve $-1 38.169664346779165 15.481170565570036 4.5548839845419735 0.52991927123019833 0 0.84804809178421925 0.42402404589210962 0 -0.26495963561509916 1 I I #
face $-1 $-1 $314 $40 $-1 $433 forward single #
loop $-1 $-1 $434 $191 #
plane-surface $-1 -40.84109012115848 0 0 1 0 0 0 0 -1 forward_v I I I I #
coedge $-1 $435 $436 $437 $438 reversed $192 $-1 #
coedge $-1 $439 $194 $196 $312 forward $120 $-1 #
coedge $-1 $194 $439 $435 $440 forward $120 $-1 #
coedge $-1 $437 $197 $194 $309 forward $314 $-1 #
edge $-1 $316 0.40459148446968562 $441 9.0505753960857707 $308 $442 forward 7 unknown #
coedge $-1 $443 $444 $195 $311 forward $303 $-1 #
edge $-1 $445 -29.894607997794246 $315 -26.453395629679129 $310 $446 forward 7 unknown #
edge $-1 $316 -5.3535760085625927 $445 0 $196 $447 forward 7 unknown #
coedge $-1 $197 $437 $443 $448 forward $314 $-1 #
loop $-1 $-1 $437 $302 #
vertex $-1 $311 $449 #
vertex $-1 $198 $450 #
straight-curve $-1 -46.672692079216546 5.1321749247474138 6.2241761074996163 1 0 0 I I #
coedge $-1 $318 $318 $-1 $451 reversed $201 $-1 #
edge $-1 $452 0 $452 6.2831853071796004 $202 $453 forward 7 unknown #
vertex $-1 $205 $454 #
ellipse-curve $-1 -38.790551562816518 6.8613717070706315 4.5035699234420603 -0.64278761758704617 0 0.76604443648966558 0.38302221824483279 0 0.32139380879352308 1 I I #
coedge $-1 $322 $322 $-1 $455 reversed $208 $-1 #
edge $-1 $456 0 $456 6.2831853071796004 $209 $457 forward 7 unknown #
vertex $-1 $212 $458 #
ellipse-curve $-1 -38.790551562816518 9.4551668805554563 4.5035699234420603 -0.64278761758704617 0 0.76604443648966558 0.38302221824483279 0 0.32139380879352308 1 I I #
coedge $-1 $326 $326 $-1 $459 reversed $215 $-1 #
edge $-1 $460 0 $460 6.2831853071796004 $216 $461 forward 7 unknown #
vertex $-1 $219 $462 #
ellipse-curve $-1 -38.790551562816518 12.048962054040285 4.5035699234420603 -0.64278761758704617 0 0.76604443648966558 0.38302221824483279 0 0.32139380879352308 1 I I #
face $-1 $-1 $235 $33 $-1 $463 reversed single #
loop $-1 $-1 $346 $220 #
plane-surface $-1 0 21.288669065504525 0 0 -1 0 0 0 -1 forward_v I I I I #
coedge $-1 $464 $344 $347 $465 forward $221 $-1 #
coedge $-1 $350 $223 $224 $338 reversed $139 $-1 #
coedge $-1 $344 $464 $223 $336 reversed $221 $-1 #
edge $-1 $351 -6.2241761074996163 $466 6.2241761074996163 $335 $467 forward 7 unknown #
coedge $-1 $225 $224 $464 $468 forward $89 $-1 #
edge $-1 $342 -40.84109012115848 $466 40.84109012115848 $334 $469 forward 7 unknown #
coedge $-1 $347 $346 $225 $340 reversed $331 $-1 #
edge $-1 $470 -40.84109012115848 $341 40.84109012115848 $339 $471 forward 7 unknown #
vertex $-1 $227 $472 #
vertex $-1 $353 $473 #
straight-curve $-1 40.84109012115848 0 -6.2241761074996163 0 -1 0 I I #
coedge $-1 $333 $335 $228 $345 reversed $221 $-1 #
edge $-1 $348 -21.288669065504525 $351 21.288669065504525 $344 $474 forward 7 unknown #
coedge $-1 $339 $229 $234 $354 forward $331 $-1 #
coedge $-1 $229 $339 $333 $465 reversed $331 $-1 #
vertex $-1 $230 $475 #
straight-curve $-1 0 21.288669065504525 6.2241761074996163 -1 0 0 I I #
coedge $-1 $231 $334 $233 $353 reversed $139 $-1 #
vertex $-1 $345 $476 #
straight-curve $-1 0 -21.288669065504525 6.2241761074996163 1 0 0 I I #
edge $-1 $236 -6.2241761074996163 $342 6.2241761074996163 $233 $477 forward 7 unknown #
edge $-1 $237 -6.2241761074996163 $341 6.2241761074996163 $234 $478 forward 7 unknown #
point $-1 40.84109012115848 -21.288669065504525 6.2241761074996163 #
point $-1 40.84109012115848 21.288669065504525 6.2241761074996163 #
face $-1 $-1 $479 $34 $-1 $480 reversed single #
loop $-1 $-1 $481 $239 #
plane-surface $-1 0 0 -6.2241761074996163 0 0 1 1 0 0 forward_v I I I I #
coedge $-1 $367 $377 $362 $482 forward $240 $-1 #
coedge $-1 $245 $242 $481 $483 reversed $147 $-1 #
coedge $-1 $242 $245 $360 $482 reversed $147 $-1 #
coedge $-1 $484 $485 $242 $364 forward $479 $-1 #
edge $-1 $486 -6.2241761074996163 $487 6.2241761074996163 $363 $488 forward 7 unknown #
coedge $-1 $481 $248 $243 $366 forward $358 $-1 #
edge $-1 $253 -18.505329461859858 $370 -15.505329461859858 $365 $489 forward 7 unknown #
coedge $-1 $250 $360 $244 $368 forward $240 $-1 #
edge $-1 $369 15.505329461859858 $252 18.505329461859858 $367 $490 forward 7 unknown #
vertex $-1 $368 $491 #
vertex $-1 $366 $492 #
straight-curve $-1 -32.510658923719717 -15.540263379860196 0 0 0 -1 I I #
coedge $-1 $485 $484 $247 $373 forward $479 $-1 #
edge $-1 $378 -6.2241761074996163 $375 6.2241761074996163 $372 $493 forward 7 unknown #
coedge $-1 $248 $481 $485 $494 forward $358 $-1 #
vertex $-1 $249 $495 #
straight-curve $-1 -35.510658923719717 -9.2072331113411803 -6.2241761074996163 0 1 0 I I #
coedge $-1 $360 $250 $484 $496 forward $240 $-1 #
vertex $-1 $496 $497 #
straight-curve $-1 -35.510658923719717 -9.2072331113411803 6.2241761074996163 0 -1 0 I I #
point $-1 -35.510658923719717 -15.540263379860196 6.2241761074996163 #
point $-1 -35.510658923719717 -15.540263379860196 -6.2241761074996163 #
face $-1 $-1 $395 $35 $-1 $498 reversed single #
plane-surface $-1 0 0 6.2241761074996163 0 0 1 1 0 0 forward_v I I I I #
coedge $-1 $499 $500 $260 $388 forward $256 $-1 #
coedge $-1 $258 $389 $267 $400 reversed $155 $-1 #
coedge $-1 $260 $259 $394 $501 reversed $97 $-1 #
edge $-1 $390 -40.84109012115848 $396 40.84109012115848 $263 $502 forward 7 unknown #
edge $-1 $391 -40.84109012115848 $503 40.84109012115848 $384 $504 forward 7 unknown #
coedge $-1 $385 $261 $500 $505 reversed $155 $-1 #
vertex $-1 $262 $506 #
vertex $-1 $388 $507 #
straight-curve $-1 40.84109012115848 9.5632175382884679 3.2241761074996163 0 1 0 I I #
coedge $-1 $508 $264 $268 $401 reversed $395 $-1 #
coedge $-1 $264 $508 $386 $501 forward $395 $-1 #
loop $-1 $-1 $264 $382 #
vertex $-1 $501 $509 #
straight-curve $-1 -40.84109012115848 16.964201087649347 2.3620880537498081 0 0 1 I I #
straight-curve $-1 40.84109012115848 16.964201087649347 2.3620880537498081 0 0 -1 I I #
coedge $-1 $268 $267 $510 $511 forward $269 $-1 #
edge $-1 $271 16.964201087649347 $512 21.288669065504525 $385 $513 forward 7 unknown #
edge $-1 $514 -21.288669065504525 $270 -16.964201087649347 $393 $515 forward 7 unknown #
point $-1 -40.84109012115848 16.964201087649347 6.2241761074996163 #
point $-1 40.84109012115848 16.964201087649347 6.2241761074996163 #
plane-surface $-1 0 0 6.2241761074996163 0 0 1 1 0 0 forward_v I I I I #
coedge $-1 $516 $276 $281 $411 forward $163 $-1 #
coedge $-1 $276 $516 $408 $517 reversed $163 $-1 #
edge $-1 $409 51.496309080179479 $416 54.834893326094758 $276 $518 forward 7 unknown #
coedge $-1 $285 $279 $406 $517 forward $286 $-1 #
vertex $-1 $517 $519 #
straight-curve $-1 7.4278172301946199 9.5490484772527466 6.2241761074996163 1 0 0 I I #
edge $-1 $416 2.9207360860272207 $414 10.335888696423831 $405 $520 forward 7 unknown #
coedge $-1 $413 $282 $285 $418 reversed $274 $-1 #
coedge $-1 $282 $412 $516 $521 reversed $274 $-1 #
vertex $-1 $521 $522 #
straight-curve $-1 -8.8934068262536812 16.964201087649347 33.963155307218642 -0.84804809178421925 0 0.52991927123019833 I I #
vertex $-1 $411 $523 #
straight-curve $-1 -28.429326966113067 9.5490484772527466 46.170553288086637 -0.84804809178421925 0 0.52991927123019833 I I #
edge $-1 $524 -40.84109012115848 $287 -35.498238572399842 $285 $525 forward 7 unknown #
point $-1 35.498238572399842 16.964201087649347 6.2241761074996163 #
point $-1 35.498238572399849 9.5490484772527466 6.2241761074996163 #
edge $-1 $526 1 $526 0 $290 $-1 forward 7 unknown #
vertex $-1 $291 $527 #
ellipse-curve $-1 37.422372568923244 11.032078999332068 3.3589671711270976 0.52991927123019833 0 0.84804809178421925 0.42402404589210962 0 -0.26495963561509916 1 I I #
point $-1 38.593688392671275 11.032078999332068 4.2899243489268732 #
edge $-1 $528 1 $528 0 $294 $-1 forward 7 unknown #
vertex $-1 $295 $529 #
ellipse-curve $-1 37.422372568923244 13.256624782451052 3.3589671711270976 0.52991927123019833 0 0.84804809178421925 0.42402404589210962 0 -0.26495963561509916 1 I I #
point $-1 38.593688392671275 13.256624782451052 4.2899243489268732 #
edge $-1 $530 1 $530 0 $298 $-1 forward 7 unknown #
vertex $-1 $299 $531 #
ellipse-curve $-1 37.422372568923244 15.481170565570036 3.3589671711270976 0.52991927123019833 0 0.84804809178421925 0.42402404589210962 0 -0.26495963561509916 1 I I #
point $-1 38.593688392671275 15.481170565570036 4.2899243489268732 #
plane-surface $-1 0 0 6.2241761074996163 0 0 1 1 0 0 forward_v I I I I #
coedge $-1 $444 $443 $436 $532 forward $303 $-1 #
coedge $-1 $436 $305 $307 $440 reversed $192 $-1 #
coedge $-1 $305 $435 $434 $532 reversed $192 $-1 #
coedge $-1 $313 $308 $305 $438 forward $314 $-1 #
edge $-1 $441 -9.9326790747419906 $533 -5.8316019580580658 $437 $534 forward 7 unknown #
coedge $-1 $307 $306 $444 $535 reversed $120 $-1 #
edge $-1 $536 0 $441 5.3535760085625927 $435 $537 forward 7 unknown #
vertex $-1 $309 $538 #
straight-curve $-1 -36.740013004474555 4.7275834402777281 6.2241761074996171 0 1 0 I I #
coedge $-1 $434 $310 $313 $448 reversed $303 $-1 #
coedge $-1 $310 $434 $439 $535 forward $303 $-1 #
vertex $-1 $311 $539 #
straight-curve $-1 -40.84109012115848 5.1321749247474138 32.677571737178745 0 0 1 I I #
straight-curve $-1 -40.84109012115848 5.1321749247474138 2.782963739384499 -0.76604443648966558 0 -0.64278761758704617 I I #
edge $-1 $533 -13.778158836363499 $315 -5.1321749247474138 $443 $540 forward 7 unknown #
point $-1 -40.84109012115848 5.1321749247474138 6.2241761074996163 #
point $-1 -36.740013004474555 5.1321749247474138 6.2241761074996163 #
edge $-1 $541 1 $541 0 $318 $-1 forward 7 unknown #
vertex $-1 $319 $542 #
ellipse-curve $-1 -38.147763945229464 6.8613717070706315 3.7375254869523893 -0.64278761758704617 0 0.76604443648966558 0.38302221824483279 0 0.32139380879352308 1 I I #
point $-1 -38.407529344571678 6.8613717070706315 4.8249637322355783 #
edge $-1 $543 1 $543 0 $322 $-1 forward 7 unknown #
vertex $-1 $323 $544 #
ellipse-curve $-1 -38.147763945229464 9.4551668805554563 3.7375254869523893 -0.64278761758704617 0 0.76604443648966558 0.38302221824483279 0 0.32139380879352308 1 I I #
point $-1 -38.407529344571678 9.4551668805554563 4.8249637322355783 #
edge $-1 $545 1 $545 0 $326 $-1 forward 7 unknown #
vertex $-1 $327 $546 #
ellipse-curve $-1 -38.147763945229464 12.048962054040285 3.7375254869523893 -0.64278761758704617 0 0.76604443648966558 0.38302221824483279 0 0.32139380879352308 1 I I #
point $-1 -38.407529344571678 12.048962054040285 4.8249637322355783 #
plane-surface $-1 40.84109012115848 0 0 -1 0 0 0 0 1 forward_v I I I I #
coedge $-1 $335 $333 $337 $468 reversed $221 $-1 #
edge $-1 $348 -6.2241761074996163 $470 6.2241761074996163 $347 $547 forward 7 unknown #
vertex $-1 $468 $548 #
straight-curve $-1 -40.84109012115848 -21.288669065504525 0 0 0 -1 I I #
edge $-1 $466 -21.288669065504525 $470 21.288669065504525 $464 $549 forward 7 unknown #
straight-curve $-1 0 -21.288669065504525 -6.2241761074996163 -1 0 0 I I #
vertex $-1 $340 $550 #
straight-curve $-1 0 21.288669065504525 -6.2241761074996163 1 0 0 I I #
point $-1 40.84109012115848 21.288669065504525 -6.2241761074996163 #
point $-1 40.84109012115848 -21.288669065504525 -6.2241761074996163 #
straight-curve $-1 -40.84109012115848 0 6.2241761074996163 0 -1 0 I I #
point $-1 -40.84109012115848 21.288669065504525 6.2241761074996163 #
point $-1 -40.84109012115848 -21.288669065504525 6.2241761074996163 #
straight-curve $-1 40.84109012115848 -21.288669065504525 0 0 0 -1 I I #
straight-curve $-1 40.84109012115848 21.288669065504525 0 0 0 -1 I I #
loop $-1 $-1 $363 $357 #
plane-surface $-1 0 -21.288669065504525 0 0 1 0 0 0 1 forward_v I I I I #
coedge $-1 $374 $365 $361 $483 forward $358 $-1 #
edge $-1 $487 -12.081435954163345 $369 -6.3330302685190158 $360 $551 forward 7 unknown #
edge $-1 $370 6.3330302685190158 $486 12.081435954163345 $481 $552 forward 7 unknown #
coedge $-1 $372 $363 $377 $496 reversed $479 $-1 #
coedge $-1 $363 $372 $374 $494 reversed $479 $-1 #
vertex $-1 $494 $553 #
vertex $-1 $364 $554 #
straight-curve $-1 -32.510658923719717 -21.288669065504525 0 0 0 1 I I #
straight-curve $-1 -17.005329461859858 -15.540263379860196 -6.2241761074996163 1 0 0 I I #
straight-curve $-1 -17.005329461859858 -15.540263379860196 6.2241761074996163 -1 0 0 I I #
point $-1 -32.510658923719717 -15.540263379860196 6.2241761074996163 #
point $-1 -32.510658923719717 -15.540263379860196 -6.2241761074996163 #
straight-curve $-1 -35.510658923719717 -21.288669065504525 0 0 0 -1 I I #
edge $-1 $486 32.510658923719717 $375 35.510658923719717 $485 $555 forward 7 unknown #
point $-1 -35.510658923719717 -21.288669065504525 -6.2241761074996163 #
edge $-1 $378 -35.510658923719717 $487 -32.510658923719717 $484 $556 forward 7 unknown #
point $-1 -35.510658923719717 -21.288669065504525 6.2241761074996163 #
plane-surface $-1 -40.84109012115848 0 0 1 0 0 0 0 -1 forward_v I I I I #
coedge $-1 $510 $384 $508 $557 reversed $256 $-1 #
coedge $-1 $384 $510 $389 $505 forward $256 $-1 #
edge $-1 $503 -11.725451527216057 $396 -7.4009835493608787 $394 $558 forward 7 unknown #
straight-curve $-1 0 16.964201087649347 3.2241761074996163 -1 0 0 I I #
vertex $-1 $388 $559 #
straight-curve $-1 0 21.288669065504525 3.2241761074996163 -1 0 0 I I #
edge $-1 $512 -6.2241761074996163 $391 -3.2241761074996163 $389 $560 forward 7 unknown #
point $-1 40.84109012115848 16.964201087649347 3.2241761074996163 #
point $-1 40.84109012115848 21.288669065504525 3.2241761074996163 #
coedge $-1 $394 $393 $499 $557 forward $395 $-1 #
point $-1 -40.84109012115848 16.964201087649347 3.2241761074996163 #
coedge $-1 $500 $499 $399 $511 reversed $256 $-1 #
edge $-1 $512 -40.84109012115848 $514 40.84109012115848 $510 $561 forward 7 unknown #
vertex $-1 $400 $562 #
straight-curve $-1 40.84109012115848 0 6.2241761074996163 0 1 0 I I #
vertex $-1 $511 $563 #
straight-curve $-1 -40.84109012115848 0 6.2241761074996163 0 -1 0 I I #
coedge $-1 $406 $405 $413 $521 forward $163 $-1 #
edge $-1 $409 9.5490484772527466 $524 16.964201087649347 $406 $564 forward 7 unknown #
straight-curve $-1 40.84109012115848 9.5490484772527466 57.720485187679095 0 0 -1 I I #
point $-1 40.84109012115848 9.5490484772527466 6.2241761074996163 #
straight-curve $-1 40.841090121158487 6.628312391225526 2.8855918615843308 0 1 0 I I #
edge $-1 $414 -54.834893326094758 $524 -51.496309080179479 $516 $565 forward 7 unknown #
point $-1 40.841090121158473 16.964201087649357 2.8855918615843379 #
point $-1 40.841090121158473 9.5490484772527466 2.8855918615843379 #
vertex $-1 $418 $566 #
straight-curve $-1 0 16.964201087649347 6.2241761074996163 -1 0 0 I I #
vertex $-1 $421 $567 #
point $-1 37.846396614815355 11.032078999332068 3.0940075355119983 #
vertex $-1 $425 $568 #
point $-1 37.846396614815355 13.256624782451052 3.0940075355119983 #
vertex $-1 $429 $569 #
point $-1 37.846396614815355 15.481170565570036 3.0940075355119983 #
edge $-1 $533 26.453395629679129 $536 29.894607997794246 $434 $570 forward 7 unknown #
vertex $-1 $448 $571 #
straight-curve $-1 -46.672692079216546 13.778158836363499 6.2241761074996163 -1 0 0 I I #
edge $-1 $536 -9.0505753960857707 $445 -0.40459148446968562 $444 $572 forward 7 unknown #
vertex $-1 $535 $573 #
straight-curve $-1 -40.84109012115848 13.778158836363499 2.782963739384499 0.76604443648966558 0 0.64278761758704617 I I #
point $-1 -36.740013004474555 13.778158836363499 6.2241761074996163 #
point $-1 -40.84109012115848 5.1321749247474138 2.782963739384499 #
straight-curve $-1 -40.84109012115848 0 6.2241761074996163 0 -1 0 I I #
vertex $-1 $451 $574 #
point $-1 -37.764741726984631 6.8613717070706315 4.0589192957459126 #
vertex $-1 $455 $575 #
point $-1 -37.764741726984631 9.4551668805554563 4.0589192957459126 #
vertex $-1 $459 $576 #
point $-1 -37.764741726984631 12.048962054040285 4.0589192957459126 #
straight-curve $-1 -40.84109012115848 21.288669065504525 0 0 0 -1 I I #
point $-1 -40.84109012115848 -21.288669065504525 -6.2241761074996163 #
straight-curve $-1 -40.84109012115848 0 -6.2241761074996163 0 1 0 I I #
point $-1 -40.84109012115848 21.288669065504525 -6.2241761074996163 #
straight-curve $-1 -32.510658923719717 -9.2072331113411803 6.2241761074996163 0 1 0 I I #
straight-curve $-1 -32.510658923719717 -9.2072331113411803 -6.2241761074996163 0 -1 0 I I #
point $-1 -32.510658923719717 -21.288669065504525 -6.2241761074996163 #
point $-1 -32.510658923719717 -21.288669065504525 6.2241761074996163 #
straight-curve $-1 0 -21.288669065504525 -6.2241761074996163 -1 0 0 I I #
straight-curve $-1 0 -21.288669065504525 6.2241761074996163 1 0 0 I I #
edge $-1 $514 -6.2241761074996163 $503 -3.2241761074996163 $499 $577 forward 7 unknown #
straight-curve $-1 -40.84109012115848 9.5632175382884679 3.2241761074996163 0 -1 0 I I #
point $-1 -40.84109012115848 21.288669065504525 3.2241761074996163 #
straight-curve $-1 40.84109012115848 21.288669065504525 0 0 0 -1 I I #
straight-curve $-1 0 21.288669065504525 6.2241761074996163 -1 0 0 I I #
point $-1 40.84109012115848 21.288669065504525 6.2241761074996163 #
point $-1 -40.84109012115848 21.288669065504525 6.2241761074996163 #
straight-curve $-1 40.84109012115848 0 6.2241761074996163 0 1 0 I I #
straight-curve $-1 40.84109012115848 16.964201087649357 57.720485187679095 0 0 1 I I #
point $-1 40.84109012115848 16.964201087649347 6.2241761074996163 #
point $-1 37.157412933308144 11.032078999332068 2.9349431252349878 #
point $-1 37.157412933308144 13.256624782451052 2.9349431252349878 #
point $-1 37.157412933308144 15.481170565570036 2.9349431252349878 #
straight-curve $-1 -40.84109012115848 13.778158836363499 32.677571737178745 0 0 -1 I I #
point $-1 -40.84109012115848 13.778158836363499 6.2241761074996163 #
straight-curve $-1 -40.84109012115848 4.7275834402777281 2.7829637393844999 0 -1 0 I I #
point $-1 -40.84109012115848 13.778158836363499 2.782963739384499 #
point $-1 -37.826370136435948 6.8613717070706315 3.3545032687075569 #
point $-1 -37.826370136435948 9.4551668805554563 3.3545032687075569 #
point $-1 -37.826370136435948 12.048962054040285 3.3545032687075569 #
straight-curve $-1 -40.84109012115848 21.288669065504525 0 0 0 -1 I I #
End-of-ACIS-data 