500 0 9 0           
7 Unknown 11 ACIS 5.0 NT 24 Thu Mar 25 17:50:43 1999 
-1 9.9999999999999995e-007 1e-010 
body $-1 $9 $-1 $10 #
body $-1 $11 $-1 $12 #
body $-1 $13 $-1 $14 #
body $-1 $15 $-1 $16 #
body $-1 $17 $-1 $18 #
body $-1 $19 $-1 $20 #
body $-1 $21 $-1 $22 #
body $-1 $23 $-1 $24 #
body $-1 $25 $-1 $26 #
lump $-1 $-1 $27 $0 #
transform $-1 1 0 0 0 1 0 0 0 1 51.081881160924098 25.9228815846561 10.925315412084835 1 rotate no_reflect no_shear #
lump $-1 $-1 $28 $1 #
transform $-1 1 0 0 0 1 0 0 0 1 51.081881160924098 25.9228815846561 10.925315412084835 1 rotate no_reflect no_shear #
lump $-1 $-1 $29 $2 #
transform $-1 1 0 0 0 1 0 0 0 1 51.081881160924098 25.9228815846561 10.925315412084835 1 rotate no_reflect no_shear #
lump $-1 $-1 $30 $3 #
transform $-1 1 0 0 0 1 0 0 0 1 51.081881160924098 25.9228815846561 10.925315412084835 1 rotate no_reflect no_shear #
lump $-1 $-1 $31 $4 #
transform $-1 1 0 0 0 1 0 0 0 1 51.081881160924098 25.9228815846561 10.925315412084835 1 rotate no_reflect no_shear #
lump $-1 $-1 $32 $5 #
transform $-1 1 0 0 0 1 0 0 0 1 51.081881160924098 25.9228815846561 10.925315412084835 1 rotate no_reflect no_shear #
lump $-1 $-1 $33 $6 #
transform $-1 1 0 0 0 1 0 0 0 1 51.081881160924098 25.9228815846561 10.925315412084835 1 rotate no_reflect no_shear #
lump $-1 $-1 $34 $7 #
transform $-1 1 0 0 0 1 0 0 0 1 51.081881160924098 25.9228815846561 10.925315412084835 1 rotate no_reflect no_shear #
lump $-1 $-1 $35 $8 #
transform $-1 1 0 0 0 1 0 0 0 1 51.081881160924098 25.9228815846561 10.925315412084835 1 rotate no_reflect no_shear #
shell $-1 $-1 $-1 $36 $-1 $9 #
shell $-1 $-1 $-1 $37 $-1 $11 #
shell $-1 $-1 $-1 $38 $-1 $13 #
shell $-1 $-1 $-1 $39 $-1 $15 #
shell $-1 $-1 $-1 $40 $-1 $17 #
shell $-1 $-1 $-1 $41 $-1 $19 #
shell $-1 $-1 $-1 $42 $-1 $21 #
shell $-1 $-1 $-1 $43 $-1 $23 #
shell $-1 $-1 $-1 $44 $-1 $25 #
face $-1 $45 $46 $27 $-1 $47 forward single #
face $-1 $48 $49 $28 $-1 $50 reversed single #
face $-1 $51 $52 $29 $-1 $53 reversed single #
face $-1 $54 $55 $30 $-1 $56 reversed single #
face $-1 $57 $58 $31 $-1 $59 forward single #
face $-1 $60 $61 $32 $-1 $62 forward single #
face $-1 $63 $64 $33 $-1 $65 reversed single #
face $-1 $66 $67 $34 $-1 $68 forward single #
face $-1 $69 $70 $35 $-1 $71 forward single #
face $-1 $72 $73 $27 $-1 $74 reversed single #
loop $-1 $-1 $75 $36 #
plane-surface $-1 0 0 10.925315412084835 0 0 1 1 0 0 forward_v I I I I #
face $-1 $76 $77 $28 $-1 $78 reversed single #
loop $-1 $-1 $79 $37 #
plane-surface $-1 -45.864697123898836 0 7.4627036211213351 0 0 1 1 0 0 forward_v I I I I #
face $-1 $80 $81 $29 $-1 $82 reversed single #
loop $-1 $-1 $83 $38 #
plane-surface $-1 45.864697123898836 0 7.4627036211213351 0 0 1 1 0 0 forward_v I I I I #
face $-1 $84 $85 $30 $-1 $86 reversed single #
loop $-1 $-1 $87 $39 #
plane-surface $-1 -6.9028789659635983 -88.82117500932091 81.986863598549718 -1 0 0 0 -0.61566148304635926 0.78801074757464917 forward_v I I I I #
face $-1 $88 $89 $31 $-1 $90 forward single #
loop $-1 $91 $92 $40 #
cone-surface $-1 -20.624243419270044 -19.064298505275588 5.1607382345163817 0 0.61566148304635926 -0.78801074757464917 2.5 0 0 1 I I 0 1 2.5 forward I I I I #
face $-1 $93 $94 $32 $-1 $95 forward single #
loop $-1 $96 $97 $41 #
cone-surface $-1 -12.391424747286173 -19.064298505275588 5.1607382345163817 0 0.61566148304635926 -0.78801074757464917 2.5 0 0 1 I I 0 1 2.5 forward I I I I #
face $-1 $98 $99 $33 $-1 $100 reversed single #
loop $-1 $-1 $101 $42 #
plane-surface $-1 26.112789200592612 -88.82117500932091 81.986863598549718 -1 0 0 0 -0.61566148304635926 0.78801074757464917 forward_v I I I I #
face $-1 $102 $103 $34 $-1 $104 forward single #
loop $-1 $105 $106 $43 #
cone-surface $-1 12.391424747286166 -19.064298505275588 5.1607382345163817 0 0.61566148304635926 -0.78801074757464917 2.5 0 0 1 I I 0 1 2.5 forward I I I I #
face $-1 $107 $108 $35 $-1 $109 forward single #
loop $-1 $110 $111 $44 #
cone-surface $-1 20.624243419270044 -19.064298505275588 5.1607382345163817 0 0.61566148304635926 -0.78801074757464917 2.5 0 0 1 I I 0 1 2.5 forward I I I I #
face $-1 $112 $113 $27 $-1 $114 reversed single #
loop $-1 $-1 $115 $45 #
plane-surface $-1 0 0 -10.925315412084835 0 0 1 1 0 0 forward_v I I I I #
coedge $-1 $116 $117 $118 $119 forward $46 $-1 #
face $-1 $120 $121 $28 $-1 $122 reversed single #
loop $-1 $-1 $123 $48 #
plane-surface $-1 -40.647513086873573 0 9.1940095166030851 -1 0 0 0 0 1 forward_v I I I I #
coedge $-1 $124 $125 $126 $127 forward $49 $-1 #
face $-1 $128 $129 $29 $-1 $130 forward single #
loop $-1 $-1 $131 $51 #
plane-surface $-1 40.647513086873573 0 9.1940095166030851 1 0 0 0 0 -1 forward_v I I I I #
coedge $-1 $132 $133 $134 $135 reversed $52 $-1 #
face $-1 $136 $137 $30 $-1 $138 reversed single #
loop $-1 $-1 $139 $54 #
plane-surface $-1 -16.507834083278112 -25.922881584656089 1.4807208762713486 0 -0.61566148304635926 0.78801074757464917 1 0 0 forward_v I I I I #
coedge $-1 $140 $141 $142 $143 reversed $55 $-1 #
face $-1 $-1 $144 $31 $-1 $145 forward single #
loop $-1 $146 $147 $57 #
cone-surface $-1 -20.624243419270044 -17.480403322806815 3.1334448903863592 0 0.61566148304635926 -0.78801074757464917 1.25 0 0 1 I I -0.70710678118654746 0.70710678118654746 1.25 forward I I I I #
loop $-1 $-1 $148 $40 #
coedge $-1 $92 $92 $149 $150 reversed $58 $-1 #
face $-1 $-1 $151 $32 $-1 $152 forward single #
loop $-1 $153 $154 $60 #
cone-surface $-1 -12.391424747286173 -17.480403322806815 3.1334448903863592 0 0.61566148304635926 -0.78801074757464917 1.25 0 0 1 I I -0.70710678118654746 0.70710678118654746 1.25 forward I I I I #
loop $-1 $-1 $155 $41 #
coedge $-1 $97 $97 $156 $157 reversed $61 $-1 #
face $-1 $158 $159 $33 $-1 $160 reversed single #
loop $-1 $-1 $161 $63 #
plane-surface $-1 16.507834083278098 -25.922881584656089 1.4807208762713486 0 -0.61566148304635926 0.78801074757464917 1 0 0 forward_v I I I I #
coedge $-1 $162 $163 $164 $165 reversed $64 $-1 #
face $-1 $-1 $166 $34 $-1 $167 forward single #
loop $-1 $168 $169 $66 #
cone-surface $-1 12.391424747286166 -17.480403322806815 3.1334448903863592 0 0.61566148304635926 -0.78801074757464917 1.25 0 0 1 I I -0.70710678118654746 0.70710678118654746 1.25 forward I I I I #
loop $-1 $-1 $170 $43 #
coedge $-1 $106 $106 $171 $172 reversed $67 $-1 #
face $-1 $-1 $173 $35 $-1 $174 forward single #
loop $-1 $175 $176 $69 #
cone-surface $-1 20.624243419270044 -17.480403322806815 3.1334448903863592 0 0.61566148304635926 -0.78801074757464917 1.25 0 0 1 I I -0.70710678118654746 0.70710678118654746 1.25 forward I I I I #
loop $-1 $-1 $177 $44 #
coedge $-1 $111 $111 $178 $179 reversed $70 $-1 #
face $-1 $180 $181 $27 $-1 $182 reversed single #
loop $-1 $-1 $183 $72 #
plane-surface $-1 0 -25.9228815846561 0 0 1 0 0 0 1 forward_v I I I I #
coedge $-1 $184 $185 $186 $187 forward $73 $-1 #
coedge $-1 $188 $75 $189 $190 forward $46 $-1 #
coedge $-1 $75 $188 $191 $192 forward $46 $-1 #
coedge $-1 $193 $194 $75 $119 reversed $195 $-1 #
edge $-1 $196 -25.9228815846561 $197 25.9228815846561 $118 $198 forward 7 unknown #
face $-1 $199 $200 $28 $-1 $201 reversed single #
loop $-1 $-1 $202 $76 #
plane-surface $-1 0 25.9228815846561 0 0 -1 0 0 0 -1 forward_v I I I I #
coedge $-1 $126 $203 $204 $205 reversed $77 $-1 #
coedge $-1 $206 $79 $207 $208 reversed $49 $-1 #
coedge $-1 $79 $206 $209 $210 reversed $49 $-1 #
coedge $-1 $211 $123 $79 $127 reversed $77 $-1 #
edge $-1 $212 -25.9228815846561 $213 25.9228815846561 $126 $214 forward 7 unknown #
face $-1 $215 $216 $29 $-1 $217 reversed single #
loop $-1 $-1 $218 $80 #
plane-surface $-1 0 0 10.925315412084835 0 0 1 1 0 0 forward_v I I I I #
coedge $-1 $219 $220 $221 $222 reversed $81 $-1 #
coedge $-1 $223 $83 $224 $225 reversed $52 $-1 #
coedge $-1 $83 $223 $226 $227 reversed $52 $-1 #
coedge $-1 $228 $229 $83 $135 forward $230 $-1 #
edge $-1 $231 -25.9228815846561 $232 25.9228815846561 $134 $233 forward 7 unknown #
face $-1 $234 $235 $30 $-1 $236 forward single #
loop $-1 $-1 $237 $84 #
plane-surface $-1 -26.112789200592626 -88.82117500932091 81.986863598549718 1 0 0 0 0.61566148304635926 -0.78801074757464917 forward_v I I I I #
coedge $-1 $238 $239 $240 $241 reversed $85 $-1 #
coedge $-1 $141 $87 $242 $243 reversed $55 $-1 #
coedge $-1 $87 $140 $238 $244 reversed $55 $-1 #
coedge $-1 $240 $245 $87 $143 forward $235 $-1 #
edge $-1 $246 18.487705920004355 $247 30.576235421443741 $142 $248 forward 7 unknown #
loop $-1 $-1 $149 $88 #
plane-surface $-1 -16.507834083278112 -25.922881584656089 1.4807208762713486 0 -0.61566148304635926 0.78801074757464917 1 0 0 forward_v I I I I #
loop $-1 $-1 $249 $57 #
coedge $-1 $147 $147 $148 $250 reversed $89 $-1 #
coedge $-1 $148 $148 $147 $250 forward $91 $-1 #
coedge $-1 $149 $149 $92 $150 forward $144 $-1 #
edge $-1 $251 -9.2729986616256988e-016 $251 6.2831853071795996 $149 $252 forward 7 unknown #
loop $-1 $-1 $156 $93 #
plane-surface $-1 -16.507834083278112 -25.922881584656089 1.4807208762713486 0 -0.61566148304635926 0.78801074757464917 1 0 0 forward_v I I I I #
loop $-1 $-1 $253 $60 #
coedge $-1 $154 $154 $155 $254 reversed $94 $-1 #
coedge $-1 $155 $155 $154 $254 forward $96 $-1 #
coedge $-1 $156 $156 $97 $157 forward $151 $-1 #
edge $-1 $255 -9.2729986616256988e-016 $255 6.2831853071795996 $156 $256 forward 7 unknown #
face $-1 $257 $258 $33 $-1 $259 reversed single #
loop $-1 $-1 $260 $98 #
plane-surface $-1 6.9028789659635841 -88.82117500932091 81.986863598549718 1 0 0 0 0.61566148304635926 -0.78801074757464917 forward_v I I I I #
coedge $-1 $261 $262 $263 $264 reversed $99 $-1 #
coedge $-1 $163 $101 $265 $266 reversed $64 $-1 #
coedge $-1 $101 $162 $261 $267 reversed $64 $-1 #
coedge $-1 $263 $268 $101 $165 forward $269 $-1 #
edge $-1 $270 18.487705920004355 $271 30.576235421443741 $164 $272 forward 7 unknown #
loop $-1 $-1 $171 $102 #
plane-surface $-1 16.507834083278098 -25.922881584656089 1.4807208762713486 0 -0.61566148304635926 0.78801074757464917 1 0 0 forward_v I I I I #
loop $-1 $-1 $273 $66 #
coedge $-1 $169 $169 $170 $274 reversed $103 $-1 #
coedge $-1 $170 $170 $169 $274 forward $105 $-1 #
coedge $-1 $171 $171 $106 $172 forward $166 $-1 #
edge $-1 $275 -9.2729986616256988e-016 $275 6.2831853071795996 $171 $276 forward 7 unknown #
loop $-1 $-1 $178 $107 #
plane-surface $-1 16.507834083278098 -25.922881584656089 1.4807208762713486 0 -0.61566148304635926 0.78801074757464917 1 0 0 forward_v I I I I #
loop $-1 $-1 $277 $69 #
coedge $-1 $176 $176 $177 $278 reversed $108 $-1 #
coedge $-1 $177 $177 $176 $278 forward $110 $-1 #
coedge $-1 $178 $178 $111 $179 forward $173 $-1 #
edge $-1 $279 -9.2729986616256988e-016 $279 6.2831853071795996 $178 $280 forward 7 unknown #
face $-1 $281 $282 $27 $-1 $283 reversed single #
loop $-1 $-1 $284 $112 #
plane-surface $-1 -51.081881160924098 0 0 1 0 0 0 0 -1 forward_v I I I I #
coedge $-1 $285 $191 $286 $287 forward $113 $-1 #
coedge $-1 $288 $115 $285 $289 forward $73 $-1 #
coedge $-1 $115 $288 $290 $291 forward $73 $-1 #
coedge $-1 $194 $193 $115 $187 reversed $195 $-1 #
edge $-1 $292 -25.9228815846561 $293 25.9228815846561 $186 $294 forward 7 unknown #
coedge $-1 $117 $116 $295 $296 forward $46 $-1 #
coedge $-1 $297 $298 $116 $190 reversed $282 $-1 #
edge $-1 $197 -51.081881160924098 $299 51.081881160924098 $189 $300 forward 7 unknown #
coedge $-1 $183 $301 $117 $192 reversed $113 $-1 #
edge $-1 $302 -51.081881160924098 $196 51.081881160924098 $191 $303 forward 7 unknown #
coedge $-1 $186 $118 $301 $304 forward $195 $-1 #
coedge $-1 $118 $186 $297 $305 reversed $195 $-1 #
loop $-1 $-1 $193 $281 #
vertex $-1 $119 $306 #
vertex $-1 $119 $307 #
straight-curve $-1 51.081881160924098 0 10.925315412084835 0 1 0 I I #
face $-1 $308 $309 $28 $-1 $310 forward single #
loop $-1 $-1 $311 $120 #
plane-surface $-1 -51.081881160924098 0 0 1 0 0 0 0 -1 forward_v I I I I #
coedge $-1 $209 $312 $211 $313 forward $121 $-1 #
coedge $-1 $123 $211 $314 $315 reversed $77 $-1 #
coedge $-1 $316 $207 $123 $205 forward $317 $-1 #
edge $-1 $213 2.8656988628197926 $318 6.3283106537832925 $204 $319 forward 7 unknown #
coedge $-1 $125 $124 $311 $320 reversed $49 $-1 #
coedge $-1 $204 $321 $124 $208 forward $317 $-1 #
edge $-1 $322 -28.14953259897468 $213 -17.715164524924155 $207 $323 forward 7 unknown #
coedge $-1 $324 $202 $125 $210 forward $121 $-1 #
edge $-1 $212 17.715164524924155 $325 28.14953259897468 $209 $326 forward 7 unknown #
coedge $-1 $203 $126 $202 $313 reversed $77 $-1 #
vertex $-1 $210 $327 #
vertex $-1 $208 $328 #
straight-curve $-1 -40.647513086873573 0 7.4627036211213351 0 -1 0 I I #
face $-1 $329 $330 $29 $-1 $331 reversed single #
loop $-1 $-1 $332 $128 #
plane-surface $-1 0 -25.9228815846561 0 0 1 0 0 0 1 forward_v I I I I #
coedge $-1 $333 $334 $220 $335 forward $129 $-1 #
coedge $-1 $336 $131 $223 $337 reversed $81 $-1 #
coedge $-1 $131 $336 $218 $335 reversed $81 $-1 #
coedge $-1 $338 $226 $131 $222 forward $330 $-1 #
edge $-1 $339 2.8656988628197926 $340 6.3283106537832925 $221 $341 forward 7 unknown #
coedge $-1 $133 $132 $219 $337 forward $52 $-1 #
coedge $-1 $342 $332 $132 $225 forward $216 $-1 #
edge $-1 $343 17.715164524924155 $231 28.14953259897468 $224 $344 forward 7 unknown #
coedge $-1 $221 $345 $133 $227 forward $330 $-1 #
edge $-1 $232 -28.14953259897468 $339 -17.715164524924155 $226 $346 forward 7 unknown #
coedge $-1 $347 $134 $345 $348 reversed $230 $-1 #
coedge $-1 $134 $347 $342 $349 forward $230 $-1 #
loop $-1 $-1 $134 $329 #
vertex $-1 $225 $350 #
vertex $-1 $135 $351 #
straight-curve $-1 51.081881160924098 0 7.4627036211213351 0 1 0 I I #
face $-1 $-1 $352 $30 $-1 $353 reversed single #
loop $-1 $-1 $142 $136 #
plane-surface $-1 0 0 10.925315412084835 0 0 1 1 0 0 forward_v I I I I #
coedge $-1 $354 $355 $356 $357 reversed $137 $-1 #
coedge $-1 $358 $139 $141 $244 forward $85 $-1 #
coedge $-1 $139 $358 $354 $359 forward $85 $-1 #
coedge $-1 $356 $142 $139 $241 forward $235 $-1 #
edge $-1 $247 -1.3510380756754579 $360 17.85887215895357 $240 $361 forward 7 unknown #
coedge $-1 $362 $363 $140 $243 forward $352 $-1 #
edge $-1 $364 -39.512710923003517 $246 -30.068116387190024 $242 $365 forward 7 unknown #
edge $-1 $247 -15.340564248197916 $364 1.3593493495133127e-014 $141 $366 forward 7 unknown #
coedge $-1 $142 $356 $362 $367 forward $235 $-1 #
vertex $-1 $243 $368 #
vertex $-1 $143 $369 #
straight-curve $-1 -6.9028789659635983 -44.410587504660455 10.925315412084835 0 1 0 I I #
coedge $-1 $249 $249 $-1 $370 reversed $146 $-1 #
edge $-1 $371 0 $371 6.2831853071796004 $147 $372 forward 7 unknown #
vertex $-1 $150 $373 #
ellipse-curve $-1 -20.624243419270044 -19.878616833936405 6.2030181441780874 0 -0.61566148304635926 0.78801074757464917 2.5 0 0 1 I I #
coedge $-1 $253 $253 $-1 $374 reversed $153 $-1 #
edge $-1 $375 0 $375 6.2831853071796004 $154 $376 forward 7 unknown #
vertex $-1 $157 $377 #
ellipse-curve $-1 -12.391424747286173 -19.878616833936405 6.2030181441780874 0 -0.61566148304635926 0.78801074757464917 2.5 0 0 1 I I #
face $-1 $-1 $269 $33 $-1 $378 forward single #
loop $-1 $-1 $379 $158 #
plane-surface $-1 0 -25.9228815846561 0 0 1 0 0 0 1 forward_v I I I I #
coedge $-1 $380 $381 $382 $383 reversed $159 $-1 #
coedge $-1 $384 $161 $163 $267 forward $99 $-1 #
coedge $-1 $161 $384 $380 $385 forward $99 $-1 #
coedge $-1 $382 $164 $161 $264 forward $269 $-1 #
edge $-1 $271 -17.858872158953563 $386 1.351038075675465 $263 $387 forward 7 unknown #
coedge $-1 $388 $389 $162 $266 forward $258 $-1 #
edge $-1 $390 -39.512710923003517 $270 -30.068116387190024 $265 $391 forward 7 unknown #
edge $-1 $271 -15.340564248197916 $390 1.3593493495133127e-014 $163 $392 forward 7 unknown #
coedge $-1 $164 $382 $388 $393 forward $269 $-1 #
loop $-1 $-1 $382 $257 #
vertex $-1 $266 $394 #
vertex $-1 $165 $395 #
straight-curve $-1 26.112789200592612 -44.410587504660455 10.925315412084835 0 1 0 I I #
coedge $-1 $273 $273 $-1 $396 reversed $168 $-1 #
edge $-1 $397 0 $397 6.2831853071796004 $169 $398 forward 7 unknown #
vertex $-1 $172 $399 #
ellipse-curve $-1 12.391424747286166 -19.878616833936405 6.2030181441780874 0 -0.61566148304635926 0.78801074757464917 2.5 0 0 1 I I #
coedge $-1 $277 $277 $-1 $400 reversed $175 $-1 #
edge $-1 $401 0 $401 6.2831853071796004 $176 $402 forward 7 unknown #
vertex $-1 $179 $403 #
ellipse-curve $-1 20.624243419270044 -19.878616833936405 6.2030181441780874 0 -0.61566148304635926 0.78801074757464917 2.5 0 0 1 I I #
face $-1 $-1 $195 $27 $-1 $404 reversed single #
loop $-1 $-1 $297 $180 #
plane-surface $-1 0 25.9228815846561 0 0 -1 0 0 0 -1 forward_v I I I I #
coedge $-1 $405 $295 $298 $406 forward $181 $-1 #
coedge $-1 $301 $183 $184 $289 reversed $113 $-1 #
coedge $-1 $295 $405 $183 $287 reversed $181 $-1 #
edge $-1 $302 -10.925315412084835 $407 10.925315412084835 $286 $408 forward 7 unknown #
coedge $-1 $185 $184 $405 $409 forward $73 $-1 #
edge $-1 $293 -51.081881160924098 $407 51.081881160924098 $285 $410 forward 7 unknown #
coedge $-1 $298 $297 $185 $291 reversed $282 $-1 #
edge $-1 $411 -51.081881160924098 $292 51.081881160924098 $290 $412 forward 7 unknown #
vertex $-1 $187 $413 #
vertex $-1 $304 $414 #
straight-curve $-1 51.081881160924098 0 -10.925315412084835 0 -1 0 I I #
coedge $-1 $284 $286 $188 $296 reversed $181 $-1 #
edge $-1 $299 -25.9228815846561 $302 25.9228815846561 $295 $415 forward 7 unknown #
coedge $-1 $290 $189 $194 $305 forward $282 $-1 #
coedge $-1 $189 $290 $284 $406 reversed $282 $-1 #
vertex $-1 $190 $416 #
straight-curve $-1 0 25.9228815846561 10.925315412084835 -1 0 0 I I #
coedge $-1 $191 $285 $193 $304 reversed $113 $-1 #
vertex $-1 $296 $417 #
straight-curve $-1 0 -25.9228815846561 10.925315412084835 1 0 0 I I #
edge $-1 $196 -10.925315412084835 $293 10.925315412084835 $193 $418 forward 7 unknown #
edge $-1 $197 -10.925315412084835 $292 10.925315412084835 $194 $419 forward 7 unknown #
point $-1 51.081881160924098 -25.9228815846561 10.925315412084835 #
point $-1 51.081881160924098 25.9228815846561 10.925315412084835 #
face $-1 $-1 $317 $28 $-1 $420 reversed single #
loop $-1 $-1 $314 $199 #
plane-surface $-1 0 0 10.925315412084835 0 0 1 1 0 0 forward_v I I I I #
coedge $-1 $421 $422 $206 $320 forward $200 $-1 #
coedge $-1 $202 $324 $423 $424 reversed $121 $-1 #
edge $-1 $425 -6.3283106537832925 $212 -2.8656988628197926 $202 $426 forward 7 unknown #
coedge $-1 $423 $427 $203 $315 forward $309 $-1 #
edge $-1 $318 -25.9228815846561 $425 25.9228815846561 $314 $428 forward 7 unknown #
coedge $-1 $321 $204 $427 $429 reversed $317 $-1 #
loop $-1 $-1 $204 $308 #
vertex $-1 $205 $430 #
straight-curve $-1 -40.647513086873573 -25.9228815846561 4.5970047583015425 0 0 1 I I #
edge $-1 $325 -25.9228815846561 $322 25.9228815846561 $311 $431 forward 7 unknown #
coedge $-1 $207 $316 $421 $432 forward $317 $-1 #
vertex $-1 $320 $433 #
straight-curve $-1 -22.932348561949418 -25.9228815846561 7.4627036211213351 1 0 0 I I #
coedge $-1 $312 $209 $422 $434 reversed $121 $-1 #
vertex $-1 $320 $435 #
straight-curve $-1 -22.932348561949418 25.9228815846561 7.4627036211213351 -1 0 0 I I #
point $-1 -40.647513086873573 25.9228815846561 7.4627036211213351 #
point $-1 -40.647513086873573 -25.9228815846561 7.4627036211213351 #
face $-1 $-1 $230 $29 $-1 $436 reversed single #
loop $-1 $-1 $221 $215 #
plane-surface $-1 0 25.9228815846561 0 0 -1 0 0 0 -1 forward_v I I I I #
coedge $-1 $224 $437 $336 $438 forward $216 $-1 #
coedge $-1 $439 $218 $437 $440 forward $129 $-1 #
coedge $-1 $218 $439 $338 $441 forward $129 $-1 #
edge $-1 $340 -25.9228815846561 $442 25.9228815846561 $218 $443 forward 7 unknown #
coedge $-1 $220 $219 $332 $438 reversed $81 $-1 #
edge $-1 $343 -25.9228815846561 $339 25.9228815846561 $219 $444 forward 7 unknown #
coedge $-1 $345 $221 $334 $441 reversed $330 $-1 #
vertex $-1 $227 $445 #
vertex $-1 $222 $446 #
straight-curve $-1 40.647513086873573 25.9228815846561 4.5970047583015425 0 0 1 I I #
coedge $-1 $437 $224 $229 $349 reversed $216 $-1 #
vertex $-1 $225 $447 #
straight-curve $-1 22.932348561949418 -25.9228815846561 7.4627036211213351 1 0 0 I I #
coedge $-1 $226 $338 $228 $348 forward $330 $-1 #
straight-curve $-1 22.932348561949418 25.9228815846561 7.4627036211213351 -1 0 0 I I #
coedge $-1 $229 $228 $439 $448 reversed $230 $-1 #
edge $-1 $449 -10.925315412084835 $232 -7.4627036211213351 $228 $450 forward 7 unknown #
edge $-1 $451 -10.925315412084835 $231 -7.4627036211213351 $229 $452 forward 7 unknown #
point $-1 51.081881160924098 -25.9228815846561 7.4627036211213351 #
point $-1 51.081881160924098 25.9228815846561 7.4627036211213351 #
loop $-1 $-1 $242 $234 #
plane-surface $-1 0 -25.9228815846561 0 0 1 0 0 0 1 forward_v I I I I #
coedge $-1 $355 $237 $239 $359 reversed $137 $-1 #
coedge $-1 $237 $354 $453 $454 reversed $137 $-1 #
coedge $-1 $245 $240 $237 $357 forward $235 $-1 #
edge $-1 $360 -30.576235421443741 $455 -18.487705920004355 $356 $456 forward 7 unknown #
coedge $-1 $239 $238 $363 $457 reversed $85 $-1 #
edge $-1 $458 -1.3593493495133127e-014 $360 15.340564248197916 $354 $459 forward 7 unknown #
vertex $-1 $241 $460 #
straight-curve $-1 -8.2539170416390562 -13.834352083216711 10.925315412084835 -1 0 0 I I #
coedge $-1 $453 $242 $245 $367 reversed $352 $-1 #
coedge $-1 $242 $453 $358 $457 forward $352 $-1 #
vertex $-1 $243 $461 #
straight-curve $-1 -6.9028789659635983 -25.9228815846561 40.993431799274859 0 0 1 I I #
straight-curve $-1 -6.9028789659635983 -25.922881584656089 1.4807208762713486 0 -0.78801074757464917 -0.61566148304635926 I I #
edge $-1 $455 -26.112789200592626 $246 -6.9028789659635983 $362 $462 forward 7 unknown #
point $-1 -6.9028789659635983 -25.9228815846561 10.925315412084835 #
point $-1 -6.9028789659635983 -13.834352083216713 10.925315412084835 #
edge $-1 $463 1 $463 0 $249 $-1 forward 7 unknown #
vertex $-1 $250 $464 #
ellipse-curve $-1 -20.624243419270044 -18.249980176614763 4.1184583248546707 0 -0.61566148304635926 0.78801074757464917 2.5 0 0 1 I I #
point $-1 -18.124243419270044 -19.878616833936412 6.2030181441780927 #
edge $-1 $465 1 $465 0 $253 $-1 forward 7 unknown #
vertex $-1 $254 $466 #
ellipse-curve $-1 -12.391424747286173 -18.249980176614763 4.1184583248546707 0 -0.61566148304635926 0.78801074757464917 2.5 0 0 1 I I #
point $-1 -9.8914247472861732 -19.878616833936412 6.2030181441780927 #
plane-surface $-1 0 0 10.925315412084835 0 0 1 1 0 0 forward_v I I I I #
coedge $-1 $389 $388 $381 $467 forward $258 $-1 #
coedge $-1 $381 $260 $262 $385 reversed $159 $-1 #
coedge $-1 $260 $380 $379 $467 reversed $159 $-1 #
coedge $-1 $268 $263 $260 $383 forward $269 $-1 #
edge $-1 $386 -30.576235421443741 $468 -18.487705920004355 $382 $469 forward 7 unknown #
coedge $-1 $262 $261 $389 $470 reversed $99 $-1 #
edge $-1 $471 -1.3593493495133127e-014 $386 15.340564248197916 $380 $472 forward 7 unknown #
vertex $-1 $264 $473 #
straight-curve $-1 8.253917041639049 -13.834352083216711 10.925315412084835 -1 0 0 I I #
coedge $-1 $379 $265 $268 $393 reversed $258 $-1 #
coedge $-1 $265 $379 $384 $470 forward $258 $-1 #
vertex $-1 $266 $474 #
straight-curve $-1 26.112789200592612 -25.9228815846561 40.993431799274859 0 0 1 I I #
straight-curve $-1 26.112789200592612 -25.922881584656089 1.4807208762713486 0 -0.78801074757464917 -0.61566148304635926 I I #
edge $-1 $468 6.9028789659635841 $270 26.112789200592612 $388 $475 forward 7 unknown #
point $-1 26.112789200592612 -25.9228815846561 10.925315412084835 #
point $-1 26.112789200592612 -13.834352083216713 10.925315412084835 #
edge $-1 $476 1 $476 0 $273 $-1 forward 7 unknown #
vertex $-1 $274 $477 #
ellipse-curve $-1 12.391424747286166 -18.249980176614763 4.1184583248546707 0 -0.61566148304635926 0.78801074757464917 2.5 0 0 1 I I #
point $-1 14.891424747286166 -19.878616833936412 6.2030181441780927 #
edge $-1 $478 1 $478 0 $277 $-1 forward 7 unknown #
vertex $-1 $278 $479 #
ellipse-curve $-1 20.624243419270044 -18.249980176614763 4.1184583248546707 0 -0.61566148304635926 0.78801074757464917 2.5 0 0 1 I I #
point $-1 23.124243419270044 -19.878616833936412 6.2030181441780927 #
plane-surface $-1 51.081881160924098 0 0 -1 0 0 0 0 1 forward_v I I I I #
coedge $-1 $286 $284 $288 $409 reversed $181 $-1 #
edge $-1 $299 -10.925315412084835 $411 10.925315412084835 $298 $480 forward 7 unknown #
vertex $-1 $409 $481 #
straight-curve $-1 -51.081881160924098 -25.9228815846561 0 0 0 -1 I I #
edge $-1 $407 -25.9228815846561 $411 25.9228815846561 $405 $482 forward 7 unknown #
straight-curve $-1 0 -25.9228815846561 -10.925315412084835 -1 0 0 I I #
vertex $-1 $291 $483 #
straight-curve $-1 0 25.9228815846561 -10.925315412084835 1 0 0 I I #
point $-1 51.081881160924098 25.9228815846561 -10.925315412084835 #
point $-1 51.081881160924098 -25.9228815846561 -10.925315412084835 #
straight-curve $-1 -51.081881160924098 0 10.925315412084835 0 -1 0 I I #
point $-1 -51.081881160924098 25.9228815846561 10.925315412084835 #
point $-1 -51.081881160924098 -25.9228815846561 10.925315412084835 #
straight-curve $-1 51.081881160924098 -25.9228815846561 0 0 0 -1 I I #
straight-curve $-1 51.081881160924098 25.9228815846561 0 0 0 -1 I I #
plane-surface $-1 0 -25.9228815846561 0 0 1 0 0 0 1 forward_v I I I I #
coedge $-1 $484 $311 $321 $432 reversed $200 $-1 #
coedge $-1 $311 $484 $324 $434 forward $200 $-1 #
coedge $-1 $485 $314 $312 $424 forward $309 $-1 #
edge $-1 $425 40.647513086873573 $486 51.081881160924098 $312 $487 forward 7 unknown #
vertex $-1 $424 $488 #
straight-curve $-1 -40.647513086873573 25.9228815846561 4.5970047583015425 0 0 -1 I I #
coedge $-1 $314 $485 $316 $429 forward $309 $-1 #
straight-curve $-1 -40.647513086873573 0 10.925315412084835 0 1 0 I I #
edge $-1 $489 -51.081881160924098 $318 -40.647513086873573 $316 $490 forward 7 unknown #
point $-1 -40.647513086873573 -25.9228815846561 10.925315412084835 #
straight-curve $-1 -51.081881160924098 0 7.4627036211213351 0 -1 0 I I #
edge $-1 $489 -10.925315412084835 $322 -7.4627036211213351 $421 $491 forward 7 unknown #
point $-1 -51.081881160924098 -25.9228815846561 7.4627036211213351 #
edge $-1 $486 -10.925315412084835 $325 -7.4627036211213351 $324 $492 forward 7 unknown #
point $-1 -51.081881160924098 25.9228815846561 7.4627036211213351 #
plane-surface $-1 51.081881160924098 0 0 -1 0 0 0 0 1 forward_v I I I I #
coedge $-1 $332 $342 $333 $440 reversed $216 $-1 #
edge $-1 $442 -6.3283106537832925 $343 -2.8656988628197926 $332 $493 forward 7 unknown #
coedge $-1 $334 $333 $347 $448 forward $129 $-1 #
edge $-1 $442 40.647513086873573 $451 51.081881160924098 $437 $494 forward 7 unknown #
edge $-1 $449 -51.081881160924098 $340 -40.647513086873573 $338 $495 forward 7 unknown #
vertex $-1 $440 $496 #
straight-curve $-1 40.647513086873573 0 10.925315412084835 0 -1 0 I I #
straight-curve $-1 40.647513086873573 0 7.4627036211213351 0 1 0 I I #
point $-1 40.647513086873573 25.9228815846561 7.4627036211213351 #
point $-1 40.647513086873573 25.9228815846561 10.925315412084835 #
point $-1 40.647513086873573 -25.9228815846561 7.4627036211213351 #
edge $-1 $451 -25.9228815846561 $449 25.9228815846561 $347 $497 forward 7 unknown #
vertex $-1 $448 $498 #
straight-curve $-1 51.081881160924098 25.9228815846561 0 0 0 -1 I I #
vertex $-1 $448 $499 #
straight-curve $-1 51.081881160924098 -25.9228815846561 0 0 0 -1 I I #
coedge $-1 $363 $362 $355 $454 forward $352 $-1 #
edge $-1 $455 30.068116387190024 $458 39.512710923003517 $453 $500 forward 7 unknown #
vertex $-1 $367 $501 #
straight-curve $-1 -26.112789200592626 -44.410587504660455 10.925315412084835 0 -1 0 I I #
edge $-1 $458 -17.85887215895357 $364 1.3510380756754579 $363 $502 forward 7 unknown #
vertex $-1 $457 $503 #
straight-curve $-1 -26.112789200592626 -25.922881584656089 1.4807208762713486 0 0.78801074757464917 0.61566148304635926 I I #
point $-1 -26.112789200592626 -13.834352083216713 10.925315412084835 #
point $-1 -6.9028789659635983 -25.9228815846561 1.4807208762713402 #
straight-curve $-1 0 -25.9228815846561 10.925315412084835 1 0 0 I I #
vertex $-1 $370 $504 #
point $-1 -18.124243419270044 -18.249980176614763 4.1184583248546707 #
vertex $-1 $374 $505 #
point $-1 -9.8914247472861732 -18.249980176614763 4.1184583248546707 #
edge $-1 $468 30.068116387190024 $471 39.512710923003517 $379 $506 forward 7 unknown #
vertex $-1 $393 $507 #
straight-curve $-1 6.9028789659635841 -44.410587504660455 10.925315412084835 0 -1 0 I I #
edge $-1 $471 -1.351038075675465 $390 17.858872158953563 $389 $508 forward 7 unknown #
vertex $-1 $470 $509 #
straight-curve $-1 6.9028789659635841 -25.922881584656089 1.4807208762713486 0 0.78801074757464917 0.61566148304635926 I I #
point $-1 6.9028789659635841 -13.834352083216713 10.925315412084835 #
point $-1 26.112789200592612 -25.9228815846561 1.4807208762713402 #
straight-curve $-1 0 -25.9228815846561 10.925315412084835 1 0 0 I I #
vertex $-1 $396 $510 #
point $-1 14.891424747286166 -18.249980176614763 4.1184583248546707 #
vertex $-1 $400 $511 #
point $-1 23.124243419270044 -18.249980176614763 4.1184583248546707 #
straight-curve $-1 -51.081881160924098 25.9228815846561 0 0 0 -1 I I #
point $-1 -51.081881160924098 -25.9228815846561 -10.925315412084835 #
straight-curve $-1 -51.081881160924098 0 -10.925315412084835 0 1 0 I I #
point $-1 -51.081881160924098 25.9228815846561 -10.925315412084835 #
coedge $-1 $422 $421 $485 $512 reversed $200 $-1 #
coedge $-1 $427 $423 $484 $512 forward $309 $-1 #
vertex $-1 $424 $513 #
straight-curve $-1 0 25.9228815846561 10.925315412084835 -1 0 0 I I #
point $-1 -40.647513086873573 25.9228815846561 10.925315412084835 #
vertex $-1 $512 $514 #
straight-curve $-1 0 -25.9228815846561 10.925315412084835 1 0 0 I I #
straight-curve $-1 -51.081881160924098 -25.9228815846561 0 0 0 -1 I I #
straight-curve $-1 -51.081881160924098 25.9228815846561 0 0 0 -1 I I #
straight-curve $-1 40.647513086873573 -25.9228815846561 4.5970047583015425 0 0 -1 I I #
straight-curve $-1 0 -25.9228815846561 10.925315412084835 1 0 0 I I #
straight-curve $-1 0 25.9228815846561 10.925315412084835 -1 0 0 I I #
point $-1 40.647513086873573 -25.9228815846561 10.925315412084835 #
straight-curve $-1 51.081881160924098 0 10.925315412084835 0 1 0 I I #
point $-1 51.081881160924098 25.9228815846561 10.925315412084835 #
point $-1 51.081881160924098 -25.9228815846561 10.925315412084835 #
straight-curve $-1 -26.112789200592626 -25.9228815846561 40.993431799274859 0 0 -1 I I #
point $-1 -26.112789200592626 -25.9228815846561 10.925315412084835 #
straight-curve $-1 -8.2539170416390562 -25.9228815846561 1.4807208762713422 1 0 0 I I #
point $-1 -26.112789200592626 -25.9228815846561 1.4807208762713402 #
point $-1 -20.624243419270044 -16.710826468998867 2.1484314559180477 #
point $-1 -12.391424747286173 -16.710826468998867 2.1484314559180477 #
straight-curve $-1 6.9028789659635841 -25.9228815846561 40.993431799274859 0 0 -1 I I #
point $-1 6.9028789659635841 -25.9228815846561 10.925315412084835 #
straight-curve $-1 8.253917041639049 -25.9228815846561 1.4807208762713422 1 0 0 I I #
point $-1 6.9028789659635841 -25.9228815846561 1.4807208762713402 #
point $-1 12.391424747286166 -16.710826468998867 2.1484314559180477 #
point $-1 20.624243419270044 -16.710826468998867 2.1484314559180477 #
edge $-1 $486 -25.9228815846561 $489 25.9228815846561 $484 $515 forward 7 unknown #
point $-1 -51.081881160924098 25.9228815846561 10.925315412084835 #
point $-1 -51.081881160924098 -25.9228815846561 10.925315412084835 #
straight-curve $-1 -51.081881160924098 0 10.925315412084835 0 -1 0 I I #
End-of-ACIS-data 