500 0 9 0           
7 Unknown 11 ACIS 5.0 NT 24 Fri Mar 26 19:18:13 1999 
-1 9.9999999999999995e-007 1e-010 
body $-1 $9 $-1 $10 #
body $-1 $11 $-1 $12 #
body $-1 $13 $-1 $14 #
body $-1 $15 $-1 $16 #
body $-1 $17 $-1 $18 #
body $-1 $19 $-1 $20 #
body $-1 $21 $-1 $22 #
body $-1 $23 $-1 $24 #
body $-1 $25 $-1 $26 #
lump $-1 $-1 $27 $0 #
transform $-1 1 0 0 0 1 0 0 0 1 70.350047303689678 37.154108511750877 17.601457009758601 1 rotate no_reflect no_shear #
lump $-1 $-1 $28 $1 #
transform $-1 1 0 0 0 1 0 0 0 1 70.350047303689678 37.154108511750877 17.601457009758601 1 rotate no_reflect no_shear #
lump $-1 $-1 $29 $2 #
transform $-1 1 0 0 0 1 0 0 0 1 70.350047303689678 37.154108511750877 17.601457009758601 1 rotate no_reflect no_shear #
lump $-1 $-1 $30 $3 #
transform $-1 1 0 0 0 1 0 0 0 1 70.350047303689678 37.154108511750877 17.601457009758601 1 rotate no_reflect no_shear #
lump $-1 $-1 $31 $4 #
transform $-1 1 0 0 0 1 0 0 0 1 70.350047303689678 37.154108511750877 17.601457009758601 1 rotate no_reflect no_shear #
lump $-1 $-1 $32 $5 #
transform $-1 1 0 0 0 1 0 0 0 1 70.350047303689678 37.154108511750877 17.601457009758601 1 rotate no_reflect no_shear #
lump $-1 $-1 $33 $6 #
transform $-1 1 0 0 0 1 0 0 0 1 70.350047303689678 37.154108511750877 17.601457009758601 1 rotate no_reflect no_shear #
lump $-1 $-1 $34 $7 #
transform $-1 1 0 0 0 1 0 0 0 1 70.350047303689678 37.154108511750877 17.601457009758601 1 rotate no_reflect no_shear #
lump $-1 $-1 $35 $8 #
transform $-1 1 0 0 0 1 0 0 0 1 70.350047303689678 37.154108511750877 17.601457009758601 1 rotate no_reflect no_shear #
shell $-1 $-1 $-1 $36 $-1 $9 #
shell $-1 $-1 $-1 $37 $-1 $11 #
shell $-1 $-1 $-1 $38 $-1 $13 #
shell $-1 $-1 $-1 $39 $-1 $15 #
shell $-1 $-1 $-1 $40 $-1 $17 #
shell $-1 $-1 $-1 $41 $-1 $19 #
shell $-1 $-1 $-1 $42 $-1 $21 #
shell $-1 $-1 $-1 $43 $-1 $23 #
shell $-1 $-1 $-1 $44 $-1 $25 #
face $-1 $45 $46 $27 $-1 $47 forward single #
face $-1 $48 $49 $28 $-1 $50 reversed single #
face $-1 $51 $52 $29 $-1 $53 reversed single #
face $-1 $54 $55 $30 $-1 $56 reversed single #
face $-1 $57 $58 $31 $-1 $59 forward single #
face $-1 $60 $61 $32 $-1 $62 reversed single #
face $-1 $63 $64 $33 $-1 $65 forward single #
face $-1 $66 $67 $34 $-1 $68 forward single #
face $-1 $69 $70 $35 $-1 $71 forward single #
face $-1 $72 $73 $27 $-1 $74 reversed single #
loop $-1 $-1 $75 $36 #
plane-surface $-1 0 0 17.601457009758601 0 0 1 1 0 0 forward_v I I I I #
face $-1 $76 $77 $28 $-1 $78 reversed single #
loop $-1 $-1 $79 $37 #
plane-surface $-1 -59.060141773333214 -31.495664716182315 0 0 -1 0 0 0 -1 forward_v I I I I #
face $-1 $80 $81 $29 $-1 $82 reversed single #
loop $-1 $-1 $83 $38 #
plane-surface $-1 47.77023624297675 -34.324886613966598 0 1 0 0 0 0 -1 forward_v I I I I #
face $-1 $84 $85 $30 $-1 $86 reversed single #
loop $-1 $-1 $87 $39 #
plane-surface $-1 -11.262211589326306 -119.85555017468751 115.17184959809927 -1 0 0 0 -0.5877852598018023 0.80901698891910034 forward_v I I I I #
face $-1 $88 $89 $31 $-1 $90 forward single #
loop $-1 $91 $92 $40 #
cone-surface $-1 -24.460512493629196 -24.067299929605799 6.8599760549252888 0 0.5877852598018023 -0.80901698891910034 2.5 0 0 1 I I 0 1 2.5 forward I I I I #
face $-1 $93 $94 $32 $-1 $95 reversed single #
loop $-1 $-1 $96 $41 #
plane-surface $-1 -47.77023624297675 102.2785915208166 150.87425696574925 1 0 0 0 -0.78801076186113728 -0.61566146476048833 forward_v I I I I #
face $-1 $97 $98 $33 $-1 $99 forward single #
loop $-1 $100 $101 $42 #
cone-surface $-1 -43.650569090799145 30.433654810160917 10.031519703905946 0 -0.78801076186113728 -0.61566146476048833 2 0 0 1 I I 0 1 2 forward I I I I #
face $-1 $102 $103 $34 $-1 $104 forward single #
loop $-1 $105 $106 $43 #
cone-surface $-1 -37.471068362532733 30.433654810160917 10.031519703905946 0 -0.78801076186113728 -0.61566146476048833 2 0 0 1 I I 0 1 2 forward I I I I #
face $-1 $107 $108 $35 $-1 $109 forward single #
loop $-1 $110 $111 $44 #
cone-surface $-1 -31.291567634266322 30.433654810160917 10.031519703905946 0 -0.78801076186113728 -0.61566146476048833 2 0 0 1 I I 0 1 2 forward I I I I #
face $-1 $112 $113 $27 $-1 $114 reversed single #
loop $-1 $-1 $115 $45 #
plane-surface $-1 0 0 -17.601457009758601 0 0 1 1 0 0 forward_v I I I I #
coedge $-1 $116 $117 $118 $119 forward $46 $-1 #
face $-1 $120 $121 $28 $-1 $122 forward single #
loop $-1 $-1 $123 $48 #
plane-surface $-1 -47.77023624297675 -34.324886613966598 0 -1 0 0 0 0 1 forward_v I I I I #
coedge $-1 $124 $125 $126 $127 forward $49 $-1 #
face $-1 $128 $129 $29 $-1 $130 forward single #
loop $-1 $-1 $131 $51 #
plane-surface $-1 59.060141773333214 -31.495664716182315 0 0 -1 0 0 0 -1 forward_v I I I I #
coedge $-1 $132 $133 $134 $135 forward $52 $-1 #
face $-1 $136 $137 $30 $-1 $138 reversed single #
loop $-1 $-1 $139 $54 #
plane-surface $-1 -24.460512493629196 -37.154108511750877 1.3430827182046841 0 -0.5877852598018023 0.80901698891910034 1 0 0 forward_v I I I I #
coedge $-1 $140 $141 $142 $143 reversed $55 $-1 #
face $-1 $-1 $144 $31 $-1 $145 forward single #
loop $-1 $146 $147 $57 #
cone-surface $-1 -24.460512493629196 -21.434625769882235 3.2364110097200687 0 0.5877852598018023 -0.80901698891910034 1.25 0 0 1 I I -0.70710678118654746 0.70710678118654746 1.25 forward I I I I #
loop $-1 $-1 $148 $40 #
coedge $-1 $92 $92 $149 $150 reversed $58 $-1 #
face $-1 $151 $152 $32 $-1 $153 reversed single #
loop $-1 $-1 $154 $60 #
plane-surface $-1 -37.471068362532733 -8.5945972246784947 64.250630627830787 0 0.78801076186113728 0.61566146476048833 1 0 0 forward_v I I I I #
coedge $-1 $155 $156 $157 $158 reversed $61 $-1 #
face $-1 $-1 $159 $33 $-1 $160 forward single #
loop $-1 $161 $162 $63 #
cone-surface $-1 -43.650569090799145 27.576379300426012 7.7991714788728821 0 -0.78801076186113728 -0.61566146476048833 1 0 0 1 I I -0.70710678118654746 0.70710678118654746 1 forward I I I I #
loop $-1 $-1 $163 $42 #
coedge $-1 $101 $101 $164 $165 reversed $64 $-1 #
face $-1 $-1 $166 $34 $-1 $167 forward single #
loop $-1 $168 $169 $66 #
cone-surface $-1 -37.471068362532733 27.576379300426012 7.7991714788728821 0 -0.78801076186113728 -0.61566146476048833 1 0 0 1 I I -0.70710678118654746 0.70710678118654746 1 forward I I I I #
loop $-1 $-1 $170 $43 #
coedge $-1 $106 $106 $171 $172 reversed $67 $-1 #
face $-1 $-1 $173 $35 $-1 $174 forward single #
loop $-1 $175 $176 $69 #
cone-surface $-1 -31.291567634266322 27.576379300426012 7.7991714788728821 0 -0.78801076186113728 -0.61566146476048833 1 0 0 1 I I -0.70710678118654746 0.70710678118654746 1 forward I I I I #
loop $-1 $-1 $177 $44 #
coedge $-1 $111 $111 $178 $179 reversed $70 $-1 #
face $-1 $180 $181 $27 $-1 $182 reversed single #
loop $-1 $-1 $183 $72 #
plane-surface $-1 0 -37.154108511750877 0 0 1 0 0 0 1 forward_v I I I I #
coedge $-1 $184 $185 $186 $187 forward $73 $-1 #
coedge $-1 $188 $75 $189 $190 forward $46 $-1 #
coedge $-1 $75 $188 $191 $192 forward $46 $-1 #
coedge $-1 $193 $194 $75 $119 reversed $195 $-1 #
edge $-1 $196 -37.154108511750877 $197 37.154108511750877 $118 $198 forward 7 unknown #
face $-1 $199 $200 $28 $-1 $201 reversed single #
loop $-1 $-1 $202 $76 #
plane-surface $-1 0 0 17.601457009758601 0 0 1 1 0 0 forward_v I I I I #
coedge $-1 $203 $204 $205 $206 reversed $77 $-1 #
coedge $-1 $207 $79 $208 $209 reversed $49 $-1 #
coedge $-1 $79 $207 $210 $211 reversed $49 $-1 #
coedge $-1 $204 $203 $79 $127 reversed $77 $-1 #
edge $-1 $212 -17.601457009758601 $213 17.601457009758601 $126 $214 forward 7 unknown #
face $-1 $215 $216 $29 $-1 $217 reversed single #
loop $-1 $-1 $218 $80 #
plane-surface $-1 0 0 17.601457009758601 0 0 1 1 0 0 forward_v I I I I #
coedge $-1 $219 $220 $221 $222 reversed $81 $-1 #
coedge $-1 $223 $83 $224 $225 reversed $52 $-1 #
coedge $-1 $83 $223 $226 $227 reversed $52 $-1 #
coedge $-1 $220 $219 $83 $135 reversed $81 $-1 #
edge $-1 $228 -17.601457009758601 $229 17.601457009758601 $134 $230 forward 7 unknown #
face $-1 $231 $232 $30 $-1 $233 forward single #
loop $-1 $-1 $234 $84 #
plane-surface $-1 -37.658813397932086 -119.85555017468751 115.17184959809927 1 0 0 0 0.5877852598018023 -0.80901698891910034 forward_v I I I I #
coedge $-1 $235 $236 $237 $238 reversed $85 $-1 #
coedge $-1 $141 $87 $239 $240 reversed $55 $-1 #
coedge $-1 $87 $140 $235 $241 reversed $55 $-1 #
coedge $-1 $237 $242 $87 $143 forward $232 $-1 #
edge $-1 $243 22.773666575592877 $244 45.151398569940397 $142 $245 forward 7 unknown #
loop $-1 $-1 $149 $88 #
plane-surface $-1 -24.460512493629196 -37.154108511750877 1.3430827182046841 0 -0.5877852598018023 0.80901698891910034 1 0 0 forward_v I I I I #
loop $-1 $-1 $246 $57 #
coedge $-1 $147 $147 $148 $247 reversed $89 $-1 #
coedge $-1 $148 $148 $147 $247 forward $91 $-1 #
coedge $-1 $149 $149 $92 $150 forward $144 $-1 #
edge $-1 $248 2.1113184563673564e-016 $248 6.2831853071796004 $149 $249 forward 7 unknown #
face $-1 $250 $251 $32 $-1 $252 reversed single #
loop $-1 $-1 $253 $93 #
plane-surface $-1 -27.171900482088716 102.2785915208166 150.87425696574925 -1 0 0 0 0.78801076186113728 0.61566146476048833 forward_v I I I I #
coedge $-1 $254 $255 $256 $257 reversed $94 $-1 #
coedge $-1 $156 $96 $258 $259 reversed $61 $-1 #
coedge $-1 $96 $155 $254 $260 reversed $61 $-1 #
coedge $-1 $256 $261 $96 $158 forward $262 $-1 #
edge $-1 $263 13.985187248657425 $264 23.287565156089855 $157 $265 forward 7 unknown #
loop $-1 $-1 $164 $97 #
plane-surface $-1 -37.471068362532733 -8.5945972246784947 64.250630627830787 0 0.78801076186113728 0.61566146476048833 1 0 0 forward_v I I I I #
loop $-1 $-1 $266 $63 #
coedge $-1 $162 $162 $163 $267 reversed $98 $-1 #
coedge $-1 $163 $163 $162 $267 forward $100 $-1 #
coedge $-1 $164 $164 $101 $165 forward $159 $-1 #
edge $-1 $268 9.6265349668268541e-016 $268 6.2831853071796013 $164 $269 forward 7 unknown #
loop $-1 $-1 $171 $102 #
plane-surface $-1 -37.471068362532733 -8.5945972246784947 64.250630627830787 0 0.78801076186113728 0.61566146476048833 1 0 0 forward_v I I I I #
loop $-1 $-1 $270 $66 #
coedge $-1 $169 $169 $170 $271 reversed $103 $-1 #
coedge $-1 $170 $170 $169 $271 forward $105 $-1 #
coedge $-1 $171 $171 $106 $172 forward $166 $-1 #
edge $-1 $272 9.6265349668268541e-016 $272 6.2831853071796013 $171 $273 forward 7 unknown #
loop $-1 $-1 $178 $107 #
plane-surface $-1 -37.471068362532733 -8.5945972246784947 64.250630627830787 0 0.78801076186113728 0.61566146476048833 1 0 0 forward_v I I I I #
loop $-1 $-1 $274 $69 #
coedge $-1 $176 $176 $177 $275 reversed $108 $-1 #
coedge $-1 $177 $177 $176 $275 forward $110 $-1 #
coedge $-1 $178 $178 $111 $179 forward $173 $-1 #
edge $-1 $276 9.6265349668268541e-016 $276 6.2831853071796013 $178 $277 forward 7 unknown #
face $-1 $278 $279 $27 $-1 $280 reversed single #
loop $-1 $-1 $281 $112 #
plane-surface $-1 -70.350047303689678 0 0 1 0 0 0 0 -1 forward_v I I I I #
coedge $-1 $282 $191 $283 $284 forward $113 $-1 #
coedge $-1 $285 $115 $282 $286 forward $73 $-1 #
coedge $-1 $115 $285 $287 $288 forward $73 $-1 #
coedge $-1 $194 $193 $115 $187 reversed $195 $-1 #
edge $-1 $289 -37.154108511750877 $290 37.154108511750877 $186 $291 forward 7 unknown #
coedge $-1 $117 $116 $292 $293 forward $46 $-1 #
coedge $-1 $294 $295 $116 $190 reversed $279 $-1 #
edge $-1 $197 -70.350047303689678 $296 70.350047303689678 $189 $297 forward 7 unknown #
coedge $-1 $183 $298 $117 $192 reversed $113 $-1 #
edge $-1 $299 -70.350047303689678 $196 70.350047303689678 $191 $300 forward 7 unknown #
coedge $-1 $186 $118 $298 $301 forward $195 $-1 #
coedge $-1 $118 $186 $294 $302 reversed $195 $-1 #
loop $-1 $-1 $193 $278 #
vertex $-1 $119 $303 #
vertex $-1 $119 $304 #
straight-curve $-1 70.350047303689678 0 17.601457009758601 0 1 0 I I #
face $-1 $305 $306 $28 $-1 $307 reversed single #
loop $-1 $-1 $308 $120 #
plane-surface $-1 -70.350047303689678 0 0 1 0 0 0 0 -1 forward_v I I I I #
coedge $-1 $210 $309 $204 $310 forward $121 $-1 #
coedge $-1 $126 $123 $311 $312 reversed $77 $-1 #
coedge $-1 $123 $126 $202 $310 reversed $77 $-1 #
coedge $-1 $313 $314 $123 $206 forward $315 $-1 #
edge $-1 $316 -17.601457009758601 $317 17.601457009758601 $205 $318 forward 7 unknown #
coedge $-1 $125 $124 $308 $319 reversed $49 $-1 #
coedge $-1 $311 $320 $124 $209 forward $306 $-1 #
edge $-1 $321 -40.819976417023071 $213 -18.240165356310143 $208 $322 forward 7 unknown #
coedge $-1 $323 $202 $125 $211 forward $121 $-1 #
edge $-1 $212 18.240165356310143 $324 40.819976417023071 $210 $325 forward 7 unknown #
vertex $-1 $211 $326 #
vertex $-1 $209 $327 #
straight-curve $-1 -47.77023624297675 -31.495664716182315 0 0 0 -1 I I #
face $-1 $328 $329 $29 $-1 $330 reversed single #
loop $-1 $-1 $331 $128 #
plane-surface $-1 0 -37.154108511750877 0 0 1 0 0 0 1 forward_v I I I I #
coedge $-1 $226 $332 $220 $333 forward $129 $-1 #
coedge $-1 $134 $131 $334 $335 reversed $81 $-1 #
coedge $-1 $131 $134 $218 $333 reversed $81 $-1 #
coedge $-1 $336 $337 $131 $222 forward $338 $-1 #
edge $-1 $339 -17.601457009758601 $340 17.601457009758601 $221 $341 forward 7 unknown #
coedge $-1 $133 $132 $331 $342 reversed $52 $-1 #
coedge $-1 $334 $343 $132 $225 forward $329 $-1 #
edge $-1 $344 -19.991665204767578 $229 -14.333221409199016 $224 $345 forward 7 unknown #
coedge $-1 $346 $218 $133 $227 forward $129 $-1 #
edge $-1 $228 14.333221409199016 $347 19.991665204767578 $226 $348 forward 7 unknown #
vertex $-1 $227 $349 #
vertex $-1 $225 $350 #
straight-curve $-1 47.77023624297675 -31.495664716182315 0 0 0 -1 I I #
face $-1 $-1 $351 $30 $-1 $352 reversed single #
loop $-1 $-1 $142 $136 #
plane-surface $-1 0 0 17.601457009758601 0 0 1 1 0 0 forward_v I I I I #
coedge $-1 $353 $354 $355 $356 reversed $137 $-1 #
coedge $-1 $357 $139 $141 $241 forward $85 $-1 #
coedge $-1 $139 $357 $353 $358 forward $85 $-1 #
coedge $-1 $355 $142 $139 $238 forward $232 $-1 #
edge $-1 $244 -0.96804465748829216 $359 25.428557151117488 $237 $360 forward 7 unknown #
coedge $-1 $361 $362 $140 $240 forward $351 $-1 #
edge $-1 $363 -56.242842080844952 $243 -39.984467789291031 $239 $364 forward 7 unknown #
edge $-1 $244 -27.660398113821607 $363 0 $141 $365 forward 7 unknown #
coedge $-1 $142 $355 $361 $366 forward $232 $-1 #
vertex $-1 $240 $367 #
vertex $-1 $143 $368 #
straight-curve $-1 -11.262211589326306 -59.927775087343754 17.601457009758604 0 1 0 I I #
coedge $-1 $246 $246 $-1 $369 reversed $146 $-1 #
edge $-1 $370 0 $370 6.2831853071796004 $147 $371 forward 7 unknown #
vertex $-1 $150 $372 #
ellipse-curve $-1 -24.460512493629196 -25.965242514577117 9.4722698639816425 0 -0.5877852598018023 0.80901698891910034 2.5 0 0 1 I I #
face $-1 $-1 $262 $32 $-1 $373 forward single #
loop $-1 $-1 $374 $151 #
plane-surface $-1 0 37.154108511750877 0 0 -1 0 0 0 -1 forward_v I I I I #
coedge $-1 $375 $376 $377 $378 reversed $152 $-1 #
coedge $-1 $379 $154 $156 $260 forward $94 $-1 #
coedge $-1 $154 $379 $375 $380 forward $94 $-1 #
coedge $-1 $377 $157 $154 $257 forward $262 $-1 #
edge $-1 $264 -29.034702061710384 $381 -8.4363663008223497 $256 $382 forward 7 unknown #
coedge $-1 $383 $384 $155 $259 forward $251 $-1 #
edge $-1 $385 -69.742172564276217 $263 -57.835671473116022 $258 $386 forward 7 unknown #
edge $-1 $264 59.198650419310738 $385 74.308217023501797 $156 $387 forward 7 unknown #
coedge $-1 $157 $377 $383 $388 forward $262 $-1 #
loop $-1 $-1 $377 $250 #
vertex $-1 $259 $389 #
vertex $-1 $158 $390 #
straight-curve $-1 -47.77023624297675 51.139295760408302 17.601457009758604 0 -1 0 I I #
coedge $-1 $266 $266 $-1 $391 reversed $161 $-1 #
edge $-1 $392 0 $392 6.2831853071796004 $162 $393 forward 7 unknown #
vertex $-1 $165 $394 #
ellipse-curve $-1 -43.650569090799145 32.502919558034662 11.648206464178505 0 0.78801076186113728 0.61566146476048833 2 0 0 1 I I #
coedge $-1 $270 $270 $-1 $395 reversed $168 $-1 #
edge $-1 $396 0 $396 6.2831853071796004 $169 $397 forward 7 unknown #
vertex $-1 $172 $398 #
ellipse-curve $-1 -37.471068362532733 32.502919558034662 11.648206464178505 0 0.78801076186113728 0.61566146476048833 2 0 0 1 I I #
coedge $-1 $274 $274 $-1 $399 reversed $175 $-1 #
edge $-1 $400 0 $400 6.2831853071796004 $176 $401 forward 7 unknown #
vertex $-1 $179 $402 #
ellipse-curve $-1 -31.291567634266322 32.502919558034662 11.648206464178505 0 0.78801076186113728 0.61566146476048833 2 0 0 1 I I #
face $-1 $-1 $195 $27 $-1 $403 reversed single #
loop $-1 $-1 $294 $180 #
plane-surface $-1 0 37.154108511750877 0 0 -1 0 0 0 -1 forward_v I I I I #
coedge $-1 $404 $292 $295 $405 forward $181 $-1 #
coedge $-1 $298 $183 $184 $286 reversed $113 $-1 #
coedge $-1 $292 $404 $183 $284 reversed $181 $-1 #
edge $-1 $299 -17.601457009758601 $406 17.601457009758601 $283 $407 forward 7 unknown #
coedge $-1 $185 $184 $404 $408 forward $73 $-1 #
edge $-1 $290 -70.350047303689678 $406 70.350047303689678 $282 $409 forward 7 unknown #
coedge $-1 $295 $294 $185 $288 reversed $279 $-1 #
edge $-1 $410 -70.350047303689678 $289 70.350047303689678 $287 $411 forward 7 unknown #
vertex $-1 $187 $412 #
vertex $-1 $301 $413 #
straight-curve $-1 70.350047303689678 0 -17.601457009758601 0 -1 0 I I #
coedge $-1 $281 $283 $188 $293 reversed $181 $-1 #
edge $-1 $296 -37.154108511750877 $299 37.154108511750877 $292 $414 forward 7 unknown #
coedge $-1 $287 $189 $194 $302 forward $279 $-1 #
coedge $-1 $189 $287 $281 $405 reversed $279 $-1 #
vertex $-1 $190 $415 #
straight-curve $-1 0 37.154108511750877 17.601457009758601 -1 0 0 I I #
coedge $-1 $191 $282 $193 $301 reversed $113 $-1 #
vertex $-1 $293 $416 #
straight-curve $-1 0 -37.154108511750877 17.601457009758601 1 0 0 I I #
edge $-1 $196 -17.601457009758601 $290 17.601457009758601 $193 $417 forward 7 unknown #
edge $-1 $197 -17.601457009758601 $289 17.601457009758601 $194 $418 forward 7 unknown #
point $-1 70.350047303689678 -37.154108511750877 17.601457009758601 #
point $-1 70.350047303689678 37.154108511750877 17.601457009758601 #
face $-1 $-1 $315 $28 $-1 $419 reversed single #
loop $-1 $-1 $311 $199 #
plane-surface $-1 0 0 -17.601457009758601 0 0 1 1 0 0 forward_v I I I I #
coedge $-1 $420 $421 $207 $319 forward $200 $-1 #
coedge $-1 $202 $323 $313 $422 forward $121 $-1 #
edge $-1 $317 -19.991665204767578 $212 -14.333221409199016 $202 $423 forward 7 unknown #
coedge $-1 $424 $208 $203 $312 forward $306 $-1 #
edge $-1 $213 14.333221409199016 $316 19.991665204767578 $311 $425 forward 7 unknown #
coedge $-1 $426 $205 $309 $422 reversed $315 $-1 #
coedge $-1 $205 $426 $424 $427 reversed $315 $-1 #
loop $-1 $-1 $205 $305 #
vertex $-1 $427 $428 #
vertex $-1 $206 $429 #
straight-curve $-1 -47.77023624297675 -37.154108511750877 0 0 0 1 I I #
edge $-1 $324 -17.601457009758601 $321 17.601457009758601 $308 $430 forward 7 unknown #
coedge $-1 $208 $424 $420 $431 forward $306 $-1 #
vertex $-1 $209 $432 #
straight-curve $-1 -29.530070886666607 -31.495664716182315 -17.601457009758601 1 0 0 I I #
coedge $-1 $309 $210 $421 $433 forward $121 $-1 #
vertex $-1 $433 $434 #
straight-curve $-1 -29.530070886666607 -31.495664716182315 17.601457009758601 -1 0 0 I I #
point $-1 -47.77023624297675 -31.495664716182315 17.601457009758601 #
point $-1 -47.77023624297675 -31.495664716182315 -17.601457009758601 #
face $-1 $-1 $338 $29 $-1 $435 reversed single #
loop $-1 $-1 $334 $215 #
plane-surface $-1 0 0 -17.601457009758601 0 0 1 1 0 0 forward_v I I I I #
coedge $-1 $436 $437 $223 $342 forward $216 $-1 #
coedge $-1 $218 $346 $336 $438 forward $129 $-1 #
edge $-1 $340 -40.819976417023071 $228 -18.240165356310143 $218 $439 forward 7 unknown #
coedge $-1 $440 $224 $219 $335 forward $329 $-1 #
edge $-1 $229 18.240165356310143 $339 40.819976417023071 $334 $441 forward 7 unknown #
coedge $-1 $442 $221 $332 $438 reversed $338 $-1 #
coedge $-1 $221 $442 $440 $443 reversed $338 $-1 #
loop $-1 $-1 $221 $328 #
vertex $-1 $443 $444 #
vertex $-1 $222 $445 #
straight-curve $-1 70.350047303689678 -31.495664716182315 0 0 0 1 I I #
edge $-1 $347 -17.601457009758601 $344 17.601457009758601 $331 $446 forward 7 unknown #
coedge $-1 $224 $440 $436 $447 forward $329 $-1 #
vertex $-1 $225 $448 #
straight-curve $-1 47.77023624297675 -17.162443306983299 -17.601457009758601 0 1 0 I I #
coedge $-1 $332 $226 $437 $449 forward $129 $-1 #
vertex $-1 $449 $450 #
straight-curve $-1 47.77023624297675 -17.162443306983299 17.601457009758601 0 -1 0 I I #
point $-1 47.77023624297675 -31.495664716182315 17.601457009758601 #
point $-1 47.77023624297675 -31.495664716182315 -17.601457009758601 #
loop $-1 $-1 $239 $231 #
plane-surface $-1 0 -37.154108511750877 0 0 1 0 0 0 1 forward_v I I I I #
coedge $-1 $354 $234 $236 $358 reversed $137 $-1 #
coedge $-1 $234 $353 $451 $452 reversed $137 $-1 #
coedge $-1 $242 $237 $234 $356 forward $232 $-1 #
edge $-1 $359 -45.151398569940397 $453 -22.773666575592877 $355 $454 forward 7 unknown #
coedge $-1 $236 $235 $362 $455 reversed $85 $-1 #
edge $-1 $456 0 $359 27.660398113821607 $353 $457 forward 7 unknown #
vertex $-1 $238 $458 #
straight-curve $-1 -12.230256246814598 -14.776376517403357 17.601457009758601 -1 0 0 I I #
coedge $-1 $451 $239 $242 $366 reversed $351 $-1 #
coedge $-1 $239 $451 $357 $455 forward $351 $-1 #
vertex $-1 $240 $459 #
straight-curve $-1 -11.262211589326306 -37.154108511750877 57.585924799049636 0 0 1 I I #
straight-curve $-1 -11.262211589326306 -37.154108511750877 1.3430827182046841 0 -0.80901698891910034 -0.5877852598018023 I I #
edge $-1 $453 -37.658813397932086 $243 -11.262211589326306 $361 $460 forward 7 unknown #
point $-1 -11.262211589326306 -37.154108511750877 17.601457009758601 #
point $-1 -11.262211589326306 -14.776376517403357 17.601457009758601 #
edge $-1 $461 1 $461 0 $246 $-1 forward 7 unknown #
vertex $-1 $247 $462 #
ellipse-curve $-1 -24.460512493629196 -22.169357344634488 4.2476822458689441 0 -0.5877852598018023 0.80901698891910034 2.5 0 0 1 I I #
point $-1 -21.960512493629196 -25.96524251457711 9.4722698639816336 #
plane-surface $-1 0 0 17.601457009758601 0 0 1 1 0 0 forward_v I I I I #
coedge $-1 $384 $383 $376 $463 forward $251 $-1 #
coedge $-1 $376 $253 $255 $380 reversed $152 $-1 #
coedge $-1 $253 $375 $374 $463 reversed $152 $-1 #
coedge $-1 $261 $256 $253 $378 forward $262 $-1 #
edge $-1 $381 -23.287565156089855 $464 -13.985187248657425 $377 $465 forward 7 unknown #
coedge $-1 $255 $254 $384 $466 reversed $94 $-1 #
edge $-1 $467 -74.308217023501797 $381 -59.198650419310738 $375 $468 forward 7 unknown #
vertex $-1 $257 $469 #
straight-curve $-1 -18.735534181266367 27.851730604318448 17.601457009758601 1 0 0 I I #
coedge $-1 $374 $258 $261 $388 reversed $251 $-1 #
coedge $-1 $258 $374 $379 $466 forward $251 $-1 #
vertex $-1 $259 $470 #
straight-curve $-1 -47.77023624297675 37.154108511750877 75.437128482874627 0 0 1 I I #
straight-curve $-1 -47.77023624297675 -8.5945972246784947 64.250630627830787 0 0.61566146476048833 -0.78801076186113728 I I #
edge $-1 $464 27.171900482088716 $263 47.77023624297675 $383 $471 forward 7 unknown #
point $-1 -47.77023624297675 37.154108511750877 17.601457009758601 #
point $-1 -47.77023624297675 27.851730604318448 17.601457009758604 #
edge $-1 $472 1 $472 0 $266 $-1 forward 7 unknown #
vertex $-1 $267 $473 #
ellipse-curve $-1 -43.650569090799145 28.36439006228715 8.4148329436333711 0 0.78801076186113728 0.61566146476048833 2 0 0 1 I I #
point $-1 -41.650569090799145 32.502919558034684 11.64820646417852 #
edge $-1 $474 1 $474 0 $270 $-1 forward 7 unknown #
vertex $-1 $271 $475 #
ellipse-curve $-1 -37.471068362532733 28.36439006228715 8.4148329436333711 0 0.78801076186113728 0.61566146476048833 2 0 0 1 I I #
point $-1 -35.471068362532733 32.502919558034684 11.64820646417852 #
edge $-1 $476 1 $476 0 $274 $-1 forward 7 unknown #
vertex $-1 $275 $477 #
ellipse-curve $-1 -31.291567634266322 28.36439006228715 8.4148329436333711 0 0.78801076186113728 0.61566146476048833 2 0 0 1 I I #
point $-1 -29.291567634266322 32.502919558034684 11.64820646417852 #
plane-surface $-1 70.350047303689678 0 0 -1 0 0 0 0 1 forward_v I I I I #
coedge $-1 $283 $281 $285 $408 reversed $181 $-1 #
edge $-1 $296 -17.601457009758601 $410 17.601457009758601 $295 $478 forward 7 unknown #
vertex $-1 $408 $479 #
straight-curve $-1 -70.350047303689678 -37.154108511750877 0 0 0 -1 I I #
edge $-1 $406 -37.154108511750877 $410 37.154108511750877 $404 $480 forward 7 unknown #
straight-curve $-1 0 -37.154108511750877 -17.601457009758601 -1 0 0 I I #
vertex $-1 $288 $481 #
straight-curve $-1 0 37.154108511750877 -17.601457009758601 1 0 0 I I #
point $-1 70.350047303689678 37.154108511750877 -17.601457009758601 #
point $-1 70.350047303689678 -37.154108511750877 -17.601457009758601 #
straight-curve $-1 -70.350047303689678 0 17.601457009758601 0 -1 0 I I #
point $-1 -70.350047303689678 37.154108511750877 17.601457009758601 #
point $-1 -70.350047303689678 -37.154108511750877 17.601457009758601 #
straight-curve $-1 70.350047303689678 -37.154108511750877 0 0 0 -1 I I #
straight-curve $-1 70.350047303689678 37.154108511750877 0 0 0 -1 I I #
plane-surface $-1 0 -37.154108511750877 0 0 1 0 0 0 1 forward_v I I I I #
coedge $-1 $482 $308 $320 $431 reversed $200 $-1 #
coedge $-1 $308 $482 $323 $433 reversed $200 $-1 #
edge $-1 $483 -70.350047303689678 $317 -47.77023624297675 $313 $484 forward 7 unknown #
straight-curve $-1 -47.77023624297675 -17.162443306983299 17.601457009758601 0 1 0 I I #
coedge $-1 $320 $311 $314 $427 forward $306 $-1 #
straight-curve $-1 -47.77023624297675 -17.162443306983299 -17.601457009758601 0 -1 0 I I #
coedge $-1 $314 $313 $482 $485 forward $315 $-1 #
edge $-1 $316 47.77023624297675 $486 70.350047303689678 $314 $487 forward 7 unknown #
point $-1 -47.77023624297675 -37.154108511750877 -17.601457009758601 #
point $-1 -47.77023624297675 -37.154108511750877 17.601457009758601 #
straight-curve $-1 -70.350047303689678 -31.495664716182315 0 0 0 -1 I I #
edge $-1 $486 -37.154108511750877 $321 -31.495664716182315 $420 $488 forward 7 unknown #
point $-1 -70.350047303689678 -31.495664716182315 -17.601457009758601 #
edge $-1 $324 31.495664716182315 $483 37.154108511750877 $421 $489 forward 7 unknown #
point $-1 -70.350047303689678 -31.495664716182315 17.601457009758601 #
plane-surface $-1 70.350047303689678 0 0 -1 0 0 0 0 1 forward_v I I I I #
coedge $-1 $490 $331 $343 $447 reversed $216 $-1 #
coedge $-1 $331 $490 $346 $449 reversed $216 $-1 #
edge $-1 $491 -37.154108511750877 $340 -31.495664716182315 $336 $492 forward 7 unknown #
straight-curve $-1 29.530070886666607 -31.495664716182315 17.601457009758601 -1 0 0 I I #
coedge $-1 $343 $334 $337 $443 forward $329 $-1 #
straight-curve $-1 29.530070886666607 -31.495664716182315 -17.601457009758601 1 0 0 I I #
coedge $-1 $337 $336 $490 $493 forward $338 $-1 #
edge $-1 $339 31.495664716182315 $494 37.154108511750877 $337 $495 forward 7 unknown #
point $-1 70.350047303689678 -31.495664716182315 -17.601457009758601 #
point $-1 70.350047303689678 -31.495664716182315 17.601457009758601 #
straight-curve $-1 47.77023624297675 -37.154108511750877 0 0 0 -1 I I #
edge $-1 $494 -70.350047303689678 $344 -47.77023624297675 $436 $496 forward 7 unknown #
point $-1 47.77023624297675 -37.154108511750877 -17.601457009758601 #
edge $-1 $347 47.77023624297675 $491 70.350047303689678 $437 $497 forward 7 unknown #
point $-1 47.77023624297675 -37.154108511750877 17.601457009758601 #
coedge $-1 $362 $361 $354 $452 forward $351 $-1 #
edge $-1 $453 39.984467789291031 $456 56.242842080844952 $451 $498 forward 7 unknown #
vertex $-1 $366 $499 #
straight-curve $-1 -37.658813397932086 -59.927775087343754 17.601457009758604 0 -1 0 I I #
edge $-1 $456 -25.428557151117488 $363 0.96804465748829216 $362 $500 forward 7 unknown #
vertex $-1 $455 $501 #
straight-curve $-1 -37.658813397932086 -37.154108511750877 1.3430827182046841 0 0.80901698891910034 0.5877852598018023 I I #
point $-1 -37.658813397932086 -14.776376517403357 17.601457009758601 #
point $-1 -11.262211589326306 -37.154108511750877 1.3430827182046841 #
straight-curve $-1 0 -37.154108511750877 17.601457009758601 1 0 0 I I #
vertex $-1 $369 $502 #
point $-1 -21.960512493629196 -22.169357344634488 4.2476822458689441 #
edge $-1 $464 57.835671473116022 $467 69.742172564276217 $374 $503 forward 7 unknown #
vertex $-1 $388 $504 #
straight-curve $-1 -27.171900482088716 51.139295760408302 17.601457009758604 0 1 0 I I #
edge $-1 $467 8.4363663008223497 $385 29.034702061710384 $384 $505 forward 7 unknown #
vertex $-1 $466 $506 #
straight-curve $-1 -27.171900482088716 -8.5945972246784947 64.250630627830787 0 -0.61566146476048833 0.78801076186113728 I I #
point $-1 -27.171900482088716 27.851730604318448 17.601457009758604 #
point $-1 -47.77023624297675 37.154108511750877 5.6949559185984029 #
straight-curve $-1 0 37.154108511750877 17.601457009758601 -1 0 0 I I #
vertex $-1 $391 $507 #
point $-1 -41.650569090799145 28.36439006228715 8.4148329436333711 #
vertex $-1 $395 $508 #
point $-1 -35.471068362532733 28.36439006228715 8.4148329436333711 #
vertex $-1 $399 $509 #
point $-1 -29.291567634266322 28.36439006228715 8.4148329436333711 #
straight-curve $-1 -70.350047303689678 37.154108511750877 0 0 0 -1 I I #
point $-1 -70.350047303689678 -37.154108511750877 -17.601457009758601 #
straight-curve $-1 -70.350047303689678 0 -17.601457009758601 0 1 0 I I #
point $-1 -70.350047303689678 37.154108511750877 -17.601457009758601 #
coedge $-1 $421 $420 $426 $485 reversed $200 $-1 #
vertex $-1 $433 $510 #
straight-curve $-1 0 -37.154108511750877 17.601457009758601 1 0 0 I I #
edge $-1 $483 -17.601457009758601 $486 17.601457009758601 $482 $511 forward 7 unknown #
vertex $-1 $431 $512 #
straight-curve $-1 0 -37.154108511750877 -17.601457009758601 -1 0 0 I I #
straight-curve $-1 -70.350047303689678 0 -17.601457009758601 0 1 0 I I #
straight-curve $-1 -70.350047303689678 0 17.601457009758601 0 -1 0 I I #
coedge $-1 $437 $436 $442 $493 reversed $216 $-1 #
vertex $-1 $438 $513 #
straight-curve $-1 70.350047303689678 0 17.601457009758601 0 1 0 I I #
edge $-1 $491 -17.601457009758601 $494 17.601457009758601 $442 $514 forward 7 unknown #
vertex $-1 $493 $515 #
straight-curve $-1 70.350047303689678 0 -17.601457009758601 0 -1 0 I I #
straight-curve $-1 0 -37.154108511750877 -17.601457009758601 -1 0 0 I I #
straight-curve $-1 0 -37.154108511750877 17.601457009758601 1 0 0 I I #
straight-curve $-1 -37.658813397932086 -37.154108511750877 57.585924799049636 0 0 -1 I I #
point $-1 -37.658813397932086 -37.154108511750877 17.601457009758601 #
straight-curve $-1 -12.230256246814598 -37.154108511750877 1.3430827182046847 1 0 0 I I #
point $-1 -37.658813397932086 -37.154108511750877 1.3430827182046841 #
point $-1 -24.460512493629196 -20.699894195129982 2.2251397735711933 #
straight-curve $-1 -27.171900482088716 37.154108511750877 75.437128482874627 0 0 -1 I I #
point $-1 -27.171900482088716 37.154108511750877 17.601457009758601 #
straight-curve $-1 -18.735534181266367 37.154108511750877 5.6949559185983993 -1 0 0 I I #
point $-1 -27.171900482088716 37.154108511750877 5.6949559185984029 #
point $-1 -43.650569090799145 26.788368538564875 7.183510014112394 #
point $-1 -37.471068362532733 26.788368538564875 7.183510014112394 #
point $-1 -31.291567634266322 26.788368538564875 7.183510014112394 #
point $-1 -70.350047303689678 -37.154108511750877 17.601457009758601 #
straight-curve $-1 -70.350047303689678 -37.154108511750877 0 0 0 -1 I I #
point $-1 -70.350047303689678 -37.154108511750877 -17.601457009758601 #
point $-1 70.350047303689678 -37.154108511750877 17.601457009758601 #
straight-curve $-1 70.350047303689678 -37.154108511750877 0 0 0 -1 I I #
point $-1 70.350047303689678 -37.154108511750877 -17.601457009758601 #
End-of-ACIS-data 