500 0 10 0           
7 Unknown 11 ACIS 5.0 NT 24 Thu Mar 25 21:58:39 1999 
-1 9.9999999999999995e-007 1e-010 
body $-1 $10 $-1 $11 #
body $-1 $12 $-1 $13 #
body $-1 $14 $-1 $15 #
body $-1 $16 $-1 $17 #
body $-1 $18 $-1 $19 #
body $-1 $20 $-1 $21 #
body $-1 $22 $-1 $23 #
body $-1 $24 $-1 $25 #
body $-1 $26 $-1 $27 #
body $-1 $28 $-1 $29 #
lump $-1 $-1 $30 $0 #
transform $-1 1 0 0 0 1 0 0 0 1 78.981902523880734 45.544695827775705 12.038271922812056 1 rotate no_reflect no_shear #
lump $-1 $-1 $31 $1 #
transform $-1 1 0 0 0 1 0 0 0 1 78.981902523880734 45.544695827775705 12.038271922812056 1 rotate no_reflect no_shear #
lump $-1 $-1 $32 $2 #
transform $-1 1 0 0 0 1 0 0 0 1 78.981902523880734 45.544695827775705 12.038271922812056 1 rotate no_reflect no_shear #
lump $-1 $-1 $33 $3 #
transform $-1 1 0 0 0 1 0 0 0 1 78.981902523880734 45.544695827775705 12.038271922812056 1 rotate no_reflect no_shear #
lump $-1 $-1 $34 $4 #
transform $-1 1 0 0 0 1 0 0 0 1 78.981902523880734 45.544695827775705 12.038271922812056 1 rotate no_reflect no_shear #
lump $-1 $-1 $35 $5 #
transform $-1 1 0 0 0 1 0 0 0 1 78.981902523880734 45.544695827775705 12.038271922812056 1 rotate no_reflect no_shear #
lump $-1 $-1 $36 $6 #
transform $-1 1 0 0 0 1 0 0 0 1 78.981902523880734 45.544695827775705 12.038271922812056 1 rotate no_reflect no_shear #
lump $-1 $-1 $37 $7 #
transform $-1 1 0 0 0 1 0 0 0 1 78.981902523880734 45.544695827775705 12.038271922812056 1 rotate no_reflect no_shear #
lump $-1 $-1 $38 $8 #
transform $-1 1 0 0 0 1 0 0 0 1 78.981902523880734 45.544695827775705 12.038271922812056 1 rotate no_reflect no_shear #
lump $-1 $-1 $39 $9 #
transform $-1 1 0 0 0 1 0 0 0 1 78.981902523880734 45.544695827775705 12.038271922812056 1 rotate no_reflect no_shear #
shell $-1 $-1 $-1 $40 $-1 $10 #
shell $-1 $-1 $-1 $41 $-1 $12 #
shell $-1 $-1 $-1 $42 $-1 $14 #
shell $-1 $-1 $-1 $43 $-1 $16 #
shell $-1 $-1 $-1 $44 $-1 $18 #
shell $-1 $-1 $-1 $45 $-1 $20 #
shell $-1 $-1 $-1 $46 $-1 $22 #
shell $-1 $-1 $-1 $47 $-1 $24 #
shell $-1 $-1 $-1 $48 $-1 $26 #
shell $-1 $-1 $-1 $49 $-1 $28 #
face $-1 $50 $51 $30 $-1 $52 forward single #
face $-1 $53 $54 $31 $-1 $55 forward single #
face $-1 $56 $57 $32 $-1 $58 reversed single #
face $-1 $59 $60 $33 $-1 $61 forward single #
face $-1 $62 $63 $34 $-1 $64 reversed single #
face $-1 $65 $66 $35 $-1 $67 forward single #
face $-1 $68 $69 $36 $-1 $70 reversed single #
face $-1 $71 $72 $37 $-1 $73 forward single #
face $-1 $74 $75 $38 $-1 $76 reversed single #
face $-1 $77 $78 $39 $-1 $79 forward single #
face $-1 $80 $81 $30 $-1 $82 reversed single #
loop $-1 $-1 $83 $40 #
plane-surface $-1 0 0 12.038271922812056 0 0 1 1 0 0 forward_v I I I I #
face $-1 $84 $85 $31 $-1 $86 reversed single #
loop $-1 $-1 $87 $41 #
plane-surface $-1 -78.981902523880734 0 0 1 0 0 0 0 -1 forward_v I I I I #
face $-1 $88 $89 $32 $-1 $90 reversed single #
loop $-1 $-1 $91 $42 #
plane-surface $-1 -37.64930198405591 -180.94610544682754 86.191097305756074 -1 0 0 0 -0.85716730853699208 0.51503806187062418 forward_v I I I I #
face $-1 $92 $93 $33 $-1 $94 forward single #
loop $-1 $95 $96 $43 #
cone-surface $-1 -47.705948956644455 -42.488769361130068 7.9003540013624551 0 0.85716730853699208 -0.51503806187062418 2 0 0 1 I I 0 1 2 forward I I I I #
face $-1 $97 $98 $34 $-1 $99 reversed single #
loop $-1 $-1 $100 $44 #
plane-surface $-1 -2.0988165251705695 -180.94610544682754 86.191097305756074 -1 0 0 0 -0.85716730853699208 0.51503806187062418 forward_v I I I I #
face $-1 $101 $102 $35 $-1 $103 forward single #
loop $-1 $104 $105 $45 #
cone-surface $-1 -12.155463497759115 -42.488769361130068 7.9003540013624551 0 0.85716730853699208 -0.51503806187062418 2 0 0 1 I I 0 1 2 forward I I I I #
face $-1 $106 $107 $36 $-1 $108 reversed single #
loop $-1 $-1 $109 $46 #
plane-surface $-1 33.451668933714764 -180.94610544682754 86.191097305756074 -1 0 0 0 -0.85716730853699208 0.51503806187062418 forward_v I I I I #
face $-1 $110 $111 $37 $-1 $112 forward single #
loop $-1 $113 $114 $47 #
cone-surface $-1 23.395021961126218 -42.488769361130068 7.9003540013624551 0 0.85716730853699208 -0.51503806187062418 2 0 0 1 I I 0 1 2 forward I I I I #
face $-1 $115 $116 $38 $-1 $117 reversed single #
loop $-1 $-1 $118 $48 #
plane-surface $-1 69.00215439260009 -180.94610544682754 86.191097305756074 -1 0 0 0 -0.85716730853699208 0.51503806187062418 forward_v I I I I #
face $-1 $119 $120 $39 $-1 $121 forward single #
loop $-1 $122 $123 $49 #
cone-surface $-1 58.945507420011552 -42.488769361130068 7.9003540013624551 0 0.85716730853699208 -0.51503806187062418 2 0 0 1 I I 0 1 2 forward I I I I #
face $-1 $124 $125 $30 $-1 $126 reversed single #
loop $-1 $-1 $127 $50 #
plane-surface $-1 0 0 -12.038271922812056 0 0 1 1 0 0 forward_v I I I I #
coedge $-1 $128 $129 $130 $131 forward $51 $-1 #
face $-1 $132 $133 $31 $-1 $134 forward single #
loop $-1 $-1 $135 $53 #
plane-surface $-1 0 45.544695827775705 0 0 -1 0 0 0 -1 forward_v I I I I #
coedge $-1 $136 $137 $138 $139 forward $54 $-1 #
face $-1 $140 $141 $32 $-1 $142 reversed single #
loop $-1 $-1 $143 $56 #
plane-surface $-1 -47.705948956644455 -45.544695827775712 4.8337253082478924 0 -0.85716730853699208 0.51503806187062418 1 0 0 forward_v I I I I #
coedge $-1 $144 $145 $146 $147 reversed $57 $-1 #
face $-1 $-1 $148 $33 $-1 $149 forward single #
loop $-1 $150 $151 $59 #
cone-surface $-1 -47.705948956644455 -40.740139680684642 6.8496713253243104 0 0.85716730853699208 -0.51503806187062418 1 0 0 1 I I -0.70710678118654746 0.70710678118654746 1 forward I I I I #
loop $-1 $-1 $152 $43 #
coedge $-1 $96 $96 $153 $154 reversed $60 $-1 #
face $-1 $155 $156 $34 $-1 $157 reversed single #
loop $-1 $-1 $158 $62 #
plane-surface $-1 -12.155463497759115 -45.544695827775712 4.8337253082478924 0 -0.85716730853699208 0.51503806187062418 1 0 0 forward_v I I I I #
coedge $-1 $159 $160 $161 $162 reversed $63 $-1 #
face $-1 $-1 $163 $35 $-1 $164 forward single #
loop $-1 $165 $166 $65 #
cone-surface $-1 -12.155463497759115 -40.740139680684642 6.8496713253243104 0 0.85716730853699208 -0.51503806187062418 1 0 0 1 I I -0.70710678118654746 0.70710678118654746 1 forward I I I I #
loop $-1 $-1 $167 $45 #
coedge $-1 $105 $105 $168 $169 reversed $66 $-1 #
face $-1 $170 $171 $36 $-1 $172 reversed single #
loop $-1 $-1 $173 $68 #
plane-surface $-1 23.395021961126218 -45.544695827775712 4.8337253082478924 0 -0.85716730853699208 0.51503806187062418 1 0 0 forward_v I I I I #
coedge $-1 $174 $175 $176 $177 reversed $69 $-1 #
face $-1 $-1 $178 $37 $-1 $179 forward single #
loop $-1 $180 $181 $71 #
cone-surface $-1 23.395021961126218 -40.740139680684642 6.8496713253243104 0 0.85716730853699208 -0.51503806187062418 1 0 0 1 I I -0.70710678118654746 0.70710678118654746 1 forward I I I I #
loop $-1 $-1 $182 $47 #
coedge $-1 $114 $114 $183 $184 reversed $72 $-1 #
face $-1 $185 $186 $38 $-1 $187 reversed single #
loop $-1 $-1 $188 $74 #
plane-surface $-1 58.945507420011552 -45.544695827775712 4.8337253082478924 0 -0.85716730853699208 0.51503806187062418 1 0 0 forward_v I I I I #
coedge $-1 $189 $190 $191 $192 reversed $75 $-1 #
face $-1 $-1 $193 $39 $-1 $194 forward single #
loop $-1 $195 $196 $77 #
cone-surface $-1 58.945507420011552 -40.740139680684642 6.8496713253243104 0 0.85716730853699208 -0.51503806187062418 1 0 0 1 I I -0.70710678118654746 0.70710678118654746 1 forward I I I I #
loop $-1 $-1 $197 $49 #
coedge $-1 $123 $123 $198 $199 reversed $78 $-1 #
face $-1 $200 $201 $30 $-1 $202 reversed single #
loop $-1 $-1 $203 $80 #
plane-surface $-1 0 -45.544695827775705 0 0 1 0 0 0 1 forward_v I I I I #
coedge $-1 $204 $205 $206 $207 forward $81 $-1 #
coedge $-1 $208 $83 $209 $210 forward $51 $-1 #
coedge $-1 $83 $208 $211 $212 forward $51 $-1 #
coedge $-1 $213 $214 $83 $131 reversed $215 $-1 #
edge $-1 $216 -45.544695827775705 $217 45.544695827775705 $130 $218 forward 7 unknown #
face $-1 $219 $220 $31 $-1 $221 reversed single #
loop $-1 $-1 $138 $84 #
plane-surface $-1 -84.6016817555643 0 1.8558278693257555 0 0 1 1 0 0 forward_v I I I I #
coedge $-1 $222 $223 $137 $224 forward $85 $-1 #
coedge $-1 $225 $87 $226 $227 reversed $54 $-1 #
coedge $-1 $87 $225 $135 $224 reversed $54 $-1 #
coedge $-1 $228 $229 $87 $139 reversed $133 $-1 #
edge $-1 $230 -45.544695827775705 $231 45.544695827775705 $138 $232 forward 7 unknown #
face $-1 $233 $234 $32 $-1 $235 reversed single #
loop $-1 $-1 $236 $88 #
plane-surface $-1 -57.762595929233001 -180.94610544682754 86.191097305756074 1 0 0 0 0.85716730853699208 -0.51503806187062418 forward_v I I I I #
coedge $-1 $237 $238 $239 $240 reversed $89 $-1 #
coedge $-1 $145 $91 $241 $242 reversed $57 $-1 #
coedge $-1 $91 $144 $237 $243 reversed $57 $-1 #
coedge $-1 $239 $244 $91 $147 forward $245 $-1 #
edge $-1 $246 44.928356895638068 $247 49.257285085112471 $146 $248 forward 7 unknown #
loop $-1 $-1 $153 $92 #
plane-surface $-1 -47.705948956644455 -45.544695827775712 4.8337253082478924 0 -0.85716730853699208 0.51503806187062418 1 0 0 forward_v I I I I #
loop $-1 $-1 $249 $59 #
coedge $-1 $151 $151 $152 $250 reversed $93 $-1 #
coedge $-1 $152 $152 $151 $250 forward $95 $-1 #
coedge $-1 $153 $153 $96 $154 forward $148 $-1 #
edge $-1 $251 3.0714775648067455e-016 $251 6.2831853071796004 $153 $252 forward 7 unknown #
face $-1 $253 $254 $34 $-1 $255 reversed single #
loop $-1 $-1 $256 $97 #
plane-surface $-1 -22.21211047034766 -180.94610544682754 86.191097305756074 1 0 0 0 0.85716730853699208 -0.51503806187062418 forward_v I I I I #
coedge $-1 $257 $258 $259 $260 reversed $98 $-1 #
coedge $-1 $160 $100 $261 $262 reversed $63 $-1 #
coedge $-1 $100 $159 $257 $263 reversed $63 $-1 #
coedge $-1 $259 $264 $100 $162 forward $265 $-1 #
edge $-1 $266 44.928356895638068 $267 49.257285085112471 $161 $268 forward 7 unknown #
loop $-1 $-1 $168 $101 #
plane-surface $-1 -12.155463497759115 -45.544695827775712 4.8337253082478924 0 -0.85716730853699208 0.51503806187062418 1 0 0 forward_v I I I I #
loop $-1 $-1 $269 $65 #
coedge $-1 $166 $166 $167 $270 reversed $102 $-1 #
coedge $-1 $167 $167 $166 $270 forward $104 $-1 #
coedge $-1 $168 $168 $105 $169 forward $163 $-1 #
edge $-1 $271 3.0714775648067455e-016 $271 6.2831853071796004 $168 $272 forward 7 unknown #
face $-1 $273 $274 $36 $-1 $275 reversed single #
loop $-1 $-1 $276 $106 #
plane-surface $-1 13.338374988537673 -180.94610544682754 86.191097305756074 1 0 0 0 0.85716730853699208 -0.51503806187062418 forward_v I I I I #
coedge $-1 $277 $278 $279 $280 reversed $107 $-1 #
coedge $-1 $175 $109 $281 $282 reversed $69 $-1 #
coedge $-1 $109 $174 $277 $283 reversed $69 $-1 #
coedge $-1 $279 $284 $109 $177 forward $285 $-1 #
edge $-1 $286 44.928356895638068 $287 49.257285085112471 $176 $288 forward 7 unknown #
loop $-1 $-1 $183 $110 #
plane-surface $-1 23.395021961126218 -45.544695827775712 4.8337253082478924 0 -0.85716730853699208 0.51503806187062418 1 0 0 forward_v I I I I #
loop $-1 $-1 $289 $71 #
coedge $-1 $181 $181 $182 $290 reversed $111 $-1 #
coedge $-1 $182 $182 $181 $290 forward $113 $-1 #
coedge $-1 $183 $183 $114 $184 forward $178 $-1 #
edge $-1 $291 3.0714775648067455e-016 $291 6.2831853071796004 $183 $292 forward 7 unknown #
face $-1 $293 $294 $38 $-1 $295 reversed single #
loop $-1 $-1 $296 $115 #
plane-surface $-1 48.888860447423006 -180.94610544682754 86.191097305756074 1 0 0 0 0.85716730853699208 -0.51503806187062418 forward_v I I I I #
coedge $-1 $297 $298 $299 $300 reversed $116 $-1 #
coedge $-1 $190 $118 $301 $302 reversed $75 $-1 #
coedge $-1 $118 $189 $297 $303 reversed $75 $-1 #
coedge $-1 $299 $304 $118 $192 forward $305 $-1 #
edge $-1 $306 44.928356895638068 $307 49.257285085112471 $191 $308 forward 7 unknown #
loop $-1 $-1 $198 $119 #
plane-surface $-1 58.945507420011552 -45.544695827775712 4.8337253082478924 0 -0.85716730853699208 0.51503806187062418 1 0 0 forward_v I I I I #
loop $-1 $-1 $309 $77 #
coedge $-1 $196 $196 $197 $310 reversed $120 $-1 #
coedge $-1 $197 $197 $196 $310 forward $122 $-1 #
coedge $-1 $198 $198 $123 $199 forward $193 $-1 #
edge $-1 $311 3.0714775648067455e-016 $311 6.2831853071796004 $198 $312 forward 7 unknown #
face $-1 $313 $314 $30 $-1 $315 reversed single #
loop $-1 $-1 $316 $124 #
plane-surface $-1 -78.981902523880734 0 0 1 0 0 0 0 -1 forward_v I I I I #
coedge $-1 $317 $211 $316 $318 forward $125 $-1 #
coedge $-1 $319 $127 $317 $320 forward $81 $-1 #
coedge $-1 $127 $319 $321 $322 forward $81 $-1 #
coedge $-1 $214 $213 $127 $207 reversed $215 $-1 #
edge $-1 $323 -45.544695827775705 $324 45.544695827775705 $206 $325 forward 7 unknown #
coedge $-1 $129 $128 $326 $327 forward $51 $-1 #
coedge $-1 $328 $329 $128 $210 reversed $314 $-1 #
edge $-1 $217 -78.981902523880734 $330 78.981902523880734 $209 $331 forward 7 unknown #
coedge $-1 $203 $332 $129 $212 reversed $125 $-1 #
edge $-1 $333 -78.981902523880734 $216 78.981902523880734 $211 $334 forward 7 unknown #
coedge $-1 $206 $130 $332 $335 forward $215 $-1 #
coedge $-1 $130 $206 $328 $336 reversed $215 $-1 #
loop $-1 $-1 $213 $313 #
vertex $-1 $131 $337 #
vertex $-1 $131 $338 #
straight-curve $-1 78.981902523880734 0 12.038271922812056 0 1 0 I I #
face $-1 $339 $340 $31 $-1 $341 reversed single #
loop $-1 $-1 $342 $132 #
plane-surface $-1 -84.6016817555643 0 -4.2942091903223432 0 0 1 1 0 0 forward_v I I I I #
coedge $-1 $343 $135 $344 $345 reversed $85 $-1 #
coedge $-1 $135 $343 $228 $346 reversed $85 $-1 #
edge $-1 $230 -1.8558278693257555 $347 4.2942091903223432 $135 $348 forward 7 unknown #
coedge $-1 $137 $136 $342 $349 forward $54 $-1 #
coedge $-1 $350 $351 $136 $227 forward $352 $-1 #
edge $-1 $353 -4.2942091903223432 $231 1.8558278693257555 $226 $354 forward 7 unknown #
coedge $-1 $355 $138 $223 $346 forward $133 $-1 #
coedge $-1 $138 $355 $350 $356 forward $133 $-1 #
vertex $-1 $224 $357 #
vertex $-1 $356 $358 #
straight-curve $-1 -78.981902523880734 0 1.8558278693257555 0 -1 0 I I #
face $-1 $-1 $245 $32 $-1 $359 forward single #
loop $-1 $-1 $360 $140 #
plane-surface $-1 0 -45.544695827775705 0 0 1 0 0 0 1 forward_v I I I I #
coedge $-1 $361 $362 $363 $364 reversed $141 $-1 #
coedge $-1 $365 $143 $145 $243 forward $89 $-1 #
coedge $-1 $143 $365 $361 $366 forward $89 $-1 #
coedge $-1 $363 $146 $143 $240 forward $245 $-1 #
edge $-1 $247 13.796327505733682 $367 33.909621450910777 $239 $368 forward 7 unknown #
coedge $-1 $369 $370 $144 $242 forward $234 $-1 #
edge $-1 $371 -38.26182334463013 $246 -31.057276730065979 $241 $372 forward 7 unknown #
edge $-1 $247 -8.4050646155192759 $371 -1.3556693106716273e-014 $145 $373 forward 7 unknown #
coedge $-1 $146 $363 $369 $374 forward $245 $-1 #
loop $-1 $-1 $363 $233 #
vertex $-1 $242 $375 #
vertex $-1 $147 $376 #
straight-curve $-1 -37.64930198405591 -90.473052723413772 12.038271922812058 0 1 0 I I #
coedge $-1 $249 $249 $-1 $377 reversed $150 $-1 #
edge $-1 $378 0 $378 6.2831853071796004 $151 $379 forward 7 unknown #
vertex $-1 $154 $380 #
ellipse-curve $-1 -47.705948956644455 -43.380231733038507 8.4359986155299787 0 -0.85716730853699208 0.51503806187062418 2 0 0 1 I I #
face $-1 $-1 $265 $34 $-1 $381 forward single #
loop $-1 $-1 $382 $155 #
plane-surface $-1 0 -45.544695827775705 0 0 1 0 0 0 1 forward_v I I I I #
coedge $-1 $383 $384 $385 $386 reversed $156 $-1 #
coedge $-1 $387 $158 $160 $263 forward $98 $-1 #
coedge $-1 $158 $387 $383 $388 forward $98 $-1 #
coedge $-1 $385 $161 $158 $260 forward $265 $-1 #
edge $-1 $267 -3.978915223708988 $389 16.134378721468103 $259 $390 forward 7 unknown #
coedge $-1 $391 $392 $159 $262 forward $254 $-1 #
edge $-1 $393 -38.26182334463013 $266 -31.057276730065979 $261 $394 forward 7 unknown #
edge $-1 $267 -8.4050646155192759 $393 -1.3556693106716273e-014 $160 $395 forward 7 unknown #
coedge $-1 $161 $385 $391 $396 forward $265 $-1 #
loop $-1 $-1 $385 $253 #
vertex $-1 $262 $397 #
vertex $-1 $162 $398 #
straight-curve $-1 -2.0988165251705695 -90.473052723413772 12.038271922812058 0 1 0 I I #
coedge $-1 $269 $269 $-1 $399 reversed $165 $-1 #
edge $-1 $400 0 $400 6.2831853071796004 $166 $401 forward 7 unknown #
vertex $-1 $169 $402 #
ellipse-curve $-1 -12.155463497759115 -43.380231733038507 8.4359986155299787 0 -0.85716730853699208 0.51503806187062418 2 0 0 1 I I #
face $-1 $-1 $285 $36 $-1 $403 forward single #
loop $-1 $-1 $404 $170 #
plane-surface $-1 0 -45.544695827775705 0 0 1 0 0 0 1 forward_v I I I I #
coedge $-1 $405 $406 $407 $408 reversed $171 $-1 #
coedge $-1 $409 $173 $175 $283 forward $107 $-1 #
coedge $-1 $173 $409 $405 $410 forward $107 $-1 #
coedge $-1 $407 $176 $173 $280 forward $285 $-1 #
edge $-1 $287 -21.754157953151655 $411 -1.6408640079745638 $279 $412 forward 7 unknown #
coedge $-1 $413 $414 $174 $282 forward $274 $-1 #
edge $-1 $415 -38.26182334463013 $286 -31.057276730065979 $281 $416 forward 7 unknown #
edge $-1 $287 -8.4050646155192759 $415 -1.3556693106716273e-014 $175 $417 forward 7 unknown #
coedge $-1 $176 $407 $413 $418 forward $285 $-1 #
loop $-1 $-1 $407 $273 #
vertex $-1 $282 $419 #
vertex $-1 $177 $420 #
straight-curve $-1 33.451668933714764 -90.473052723413772 12.038271922812058 0 1 0 I I #
coedge $-1 $289 $289 $-1 $421 reversed $180 $-1 #
edge $-1 $422 0 $422 6.2831853071796004 $181 $423 forward 7 unknown #
vertex $-1 $184 $424 #
ellipse-curve $-1 23.395021961126218 -43.380231733038507 8.4359986155299787 0 -0.85716730853699208 0.51503806187062418 2 0 0 1 I I #
face $-1 $-1 $305 $38 $-1 $425 forward single #
loop $-1 $-1 $426 $185 #
plane-surface $-1 0 -45.544695827775705 0 0 1 0 0 0 1 forward_v I I I I #
coedge $-1 $427 $428 $429 $430 reversed $186 $-1 #
coedge $-1 $431 $188 $190 $303 forward $116 $-1 #
coedge $-1 $188 $431 $427 $432 forward $116 $-1 #
coedge $-1 $429 $191 $188 $300 forward $305 $-1 #
edge $-1 $307 -39.529400682594314 $433 -19.41610673741723 $299 $434 forward 7 unknown #
coedge $-1 $435 $436 $189 $302 forward $294 $-1 #
edge $-1 $437 -38.26182334463013 $306 -31.057276730065979 $301 $438 forward 7 unknown #
edge $-1 $307 -8.4050646155192759 $437 -1.3556693106716273e-014 $190 $439 forward 7 unknown #
coedge $-1 $191 $429 $435 $440 forward $305 $-1 #
loop $-1 $-1 $429 $293 #
vertex $-1 $302 $441 #
vertex $-1 $192 $442 #
straight-curve $-1 69.00215439260009 -90.473052723413772 12.038271922812058 0 1 0 I I #
coedge $-1 $309 $309 $-1 $443 reversed $195 $-1 #
edge $-1 $444 0 $444 6.2831853071796004 $196 $445 forward 7 unknown #
vertex $-1 $199 $446 #
ellipse-curve $-1 58.945507420011552 -43.380231733038507 8.4359986155299787 0 -0.85716730853699208 0.51503806187062418 2 0 0 1 I I #
face $-1 $-1 $215 $30 $-1 $447 reversed single #
loop $-1 $-1 $328 $200 #
plane-surface $-1 0 45.544695827775705 0 0 -1 0 0 0 -1 forward_v I I I I #
coedge $-1 $326 $448 $203 $318 reversed $201 $-1 #
coedge $-1 $332 $203 $204 $320 reversed $125 $-1 #
edge $-1 $333 -12.038271922812056 $449 12.038271922812056 $316 $450 forward 7 unknown #
coedge $-1 $205 $204 $448 $451 forward $81 $-1 #
edge $-1 $324 -78.981902523880734 $449 78.981902523880734 $317 $452 forward 7 unknown #
coedge $-1 $329 $328 $205 $322 reversed $314 $-1 #
edge $-1 $453 -78.981902523880734 $323 78.981902523880734 $321 $454 forward 7 unknown #
vertex $-1 $207 $455 #
vertex $-1 $335 $456 #
straight-curve $-1 78.981902523880734 0 -12.038271922812056 0 -1 0 I I #
coedge $-1 $457 $316 $208 $327 reversed $201 $-1 #
edge $-1 $330 -45.544695827775705 $333 45.544695827775705 $326 $458 forward 7 unknown #
coedge $-1 $321 $209 $214 $336 forward $314 $-1 #
coedge $-1 $209 $321 $457 $459 reversed $314 $-1 #
vertex $-1 $210 $460 #
straight-curve $-1 0 45.544695827775705 12.038271922812056 -1 0 0 I I #
coedge $-1 $211 $317 $213 $335 reversed $125 $-1 #
vertex $-1 $327 $461 #
straight-curve $-1 0 -45.544695827775705 12.038271922812056 1 0 0 I I #
edge $-1 $216 -12.038271922812056 $324 12.038271922812056 $213 $462 forward 7 unknown #
edge $-1 $217 -12.038271922812056 $323 12.038271922812056 $214 $463 forward 7 unknown #
point $-1 78.981902523880734 -45.544695827775705 12.038271922812056 #
point $-1 78.981902523880734 45.544695827775705 12.038271922812056 #
face $-1 $-1 $352 $31 $-1 $464 reversed single #
loop $-1 $-1 $465 $219 #
plane-surface $-1 -90.221460987247866 0 -1.2191906604982936 1 0 0 0 0 -1 forward_v I I I I #
coedge $-1 $466 $344 $225 $349 reversed $220 $-1 #
coedge $-1 $223 $222 $465 $467 reversed $85 $-1 #
coedge $-1 $342 $468 $222 $345 forward $220 $-1 #
edge $-1 $469 -5.619779231683566 $347 5.619779231683566 $222 $470 forward 7 unknown #
edge $-1 $230 -5.619779231683566 $471 5.619779231683566 $223 $472 forward 7 unknown #
vertex $-1 $224 $473 #
straight-curve $-1 -78.981902523880734 45.544695827775705 0 0 0 -1 I I #
edge $-1 $353 -45.544695827775705 $347 45.544695827775705 $342 $474 forward 7 unknown #
coedge $-1 $475 $226 $229 $356 reversed $352 $-1 #
coedge $-1 $226 $475 $466 $476 reversed $352 $-1 #
loop $-1 $-1 $226 $339 #
vertex $-1 $227 $477 #
straight-curve $-1 -78.981902523880734 -45.544695827775705 0 0 0 1 I I #
coedge $-1 $229 $228 $478 $479 forward $133 $-1 #
edge $-1 $480 -5.619779231683566 $231 5.619779231683566 $350 $481 forward 7 unknown #
point $-1 -78.981902523880734 45.544695827775705 1.8558278693257555 #
point $-1 -78.981902523880734 -45.544695827775705 1.8558278693257555 #
plane-surface $-1 0 0 12.038271922812056 0 0 1 1 0 0 forward_v I I I I #
coedge $-1 $370 $369 $362 $482 forward $234 $-1 #
coedge $-1 $362 $236 $238 $366 reversed $141 $-1 #
coedge $-1 $236 $361 $360 $482 reversed $141 $-1 #
coedge $-1 $244 $239 $236 $364 forward $245 $-1 #
edge $-1 $367 -49.257285085112471 $483 -44.928356895638068 $363 $484 forward 7 unknown #
coedge $-1 $238 $237 $370 $485 reversed $89 $-1 #
edge $-1 $486 1.3556693106716273e-014 $367 8.4050646155192759 $361 $487 forward 7 unknown #
vertex $-1 $240 $488 #
straight-curve $-1 -23.852974478322228 -41.215767638301294 12.038271922812056 -1 0 0 I I #
coedge $-1 $360 $241 $244 $374 reversed $234 $-1 #
coedge $-1 $241 $360 $365 $485 forward $234 $-1 #
vertex $-1 $242 $489 #
straight-curve $-1 -37.64930198405591 -45.544695827775712 43.095548652878037 0 0 1 I I #
straight-curve $-1 -37.64930198405591 -45.544695827775712 4.8337253082478924 0 -0.51503806187062418 -0.85716730853699208 I I #
edge $-1 $483 -57.762595929233001 $246 -37.64930198405591 $369 $490 forward 7 unknown #
point $-1 -37.64930198405591 -45.544695827775705 12.038271922812056 #
point $-1 -37.64930198405591 -41.215767638301301 12.038271922812056 #
edge $-1 $491 1 $491 0 $249 $-1 forward 7 unknown #
vertex $-1 $250 $492 #
ellipse-curve $-1 -47.705948956644455 -41.597306989221636 7.3647093871949343 0 -0.85716730853699208 0.51503806187062418 2 0 0 1 I I #
point $-1 -45.705948956644455 -43.380231733038499 8.4359986155299751 #
plane-surface $-1 0 0 12.038271922812056 0 0 1 1 0 0 forward_v I I I I #
coedge $-1 $392 $391 $384 $493 forward $254 $-1 #
coedge $-1 $384 $256 $258 $388 reversed $156 $-1 #
coedge $-1 $256 $383 $382 $493 reversed $156 $-1 #
coedge $-1 $264 $259 $256 $386 forward $265 $-1 #
edge $-1 $389 -49.257285085112471 $494 -44.928356895638068 $385 $495 forward 7 unknown #
coedge $-1 $258 $257 $392 $496 reversed $98 $-1 #
edge $-1 $497 1.3556693106716273e-014 $389 8.4050646155192759 $383 $498 forward 7 unknown #
vertex $-1 $260 $499 #
straight-curve $-1 -6.0777317488795575 -41.215767638301294 12.038271922812056 -1 0 0 I I #
coedge $-1 $382 $261 $264 $396 reversed $254 $-1 #
coedge $-1 $261 $382 $387 $496 forward $254 $-1 #
vertex $-1 $262 $500 #
straight-curve $-1 -2.0988165251705695 -45.544695827775712 43.095548652878037 0 0 1 I I #
straight-curve $-1 -2.0988165251705695 -45.544695827775712 4.8337253082478924 0 -0.51503806187062418 -0.85716730853699208 I I #
edge $-1 $494 -22.21211047034766 $266 -2.0988165251705695 $391 $501 forward 7 unknown #
point $-1 -2.0988165251705695 -45.544695827775705 12.038271922812056 #
point $-1 -2.0988165251705695 -41.215767638301301 12.038271922812056 #
edge $-1 $502 1 $502 0 $269 $-1 forward 7 unknown #
vertex $-1 $270 $503 #
ellipse-curve $-1 -12.155463497759115 -41.597306989221636 7.3647093871949343 0 -0.85716730853699208 0.51503806187062418 2 0 0 1 I I #
point $-1 -10.155463497759115 -43.380231733038499 8.4359986155299751 #
plane-surface $-1 0 0 12.038271922812056 0 0 1 1 0 0 forward_v I I I I #
coedge $-1 $414 $413 $406 $504 forward $274 $-1 #
coedge $-1 $406 $276 $278 $410 reversed $171 $-1 #
coedge $-1 $276 $405 $404 $504 reversed $171 $-1 #
coedge $-1 $284 $279 $276 $408 forward $285 $-1 #
edge $-1 $411 -49.257285085112471 $505 -44.928356895638068 $407 $506 forward 7 unknown #
coedge $-1 $278 $277 $414 $507 reversed $107 $-1 #
edge $-1 $508 1.3556693106716273e-014 $411 8.4050646155192759 $405 $509 forward 7 unknown #
vertex $-1 $280 $510 #
straight-curve $-1 11.697510980563109 -41.215767638301294 12.038271922812056 -1 0 0 I I #
coedge $-1 $404 $281 $284 $418 reversed $274 $-1 #
coedge $-1 $281 $404 $409 $507 forward $274 $-1 #
vertex $-1 $282 $511 #
straight-curve $-1 33.451668933714764 -45.544695827775712 43.095548652878037 0 0 1 I I #
straight-curve $-1 33.451668933714764 -45.544695827775712 4.8337253082478924 0 -0.51503806187062418 -0.85716730853699208 I I #
edge $-1 $505 13.338374988537673 $286 33.451668933714764 $413 $512 forward 7 unknown #
point $-1 33.451668933714764 -45.544695827775705 12.038271922812056 #
point $-1 33.451668933714764 -41.215767638301301 12.038271922812056 #
edge $-1 $513 1 $513 0 $289 $-1 forward 7 unknown #
vertex $-1 $290 $514 #
ellipse-curve $-1 23.395021961126218 -41.597306989221636 7.3647093871949343 0 -0.85716730853699208 0.51503806187062418 2 0 0 1 I I #
point $-1 25.395021961126218 -43.380231733038499 8.4359986155299751 #
plane-surface $-1 0 0 12.038271922812056 0 0 1 1 0 0 forward_v I I I I #
coedge $-1 $436 $435 $428 $515 forward $294 $-1 #
coedge $-1 $428 $296 $298 $432 reversed $186 $-1 #
coedge $-1 $296 $427 $426 $515 reversed $186 $-1 #
coedge $-1 $304 $299 $296 $430 forward $305 $-1 #
edge $-1 $433 -49.257285085112471 $516 -44.928356895638068 $429 $517 forward 7 unknown #
coedge $-1 $298 $297 $436 $518 reversed $116 $-1 #
edge $-1 $519 1.3556693106716273e-014 $433 8.4050646155192759 $427 $520 forward 7 unknown #
vertex $-1 $300 $521 #
straight-curve $-1 29.472753710005776 -41.215767638301294 12.038271922812056 -1 0 0 I I #
coedge $-1 $426 $301 $304 $440 reversed $294 $-1 #
coedge $-1 $301 $426 $431 $518 forward $294 $-1 #
vertex $-1 $302 $522 #
straight-curve $-1 69.00215439260009 -45.544695827775712 43.095548652878037 0 0 1 I I #
straight-curve $-1 69.00215439260009 -45.544695827775712 4.8337253082478924 0 -0.51503806187062418 -0.85716730853699208 I I #
edge $-1 $516 48.888860447423006 $306 69.00215439260009 $435 $523 forward 7 unknown #
point $-1 69.00215439260009 -45.544695827775705 12.038271922812056 #
point $-1 69.00215439260009 -41.215767638301301 12.038271922812056 #
edge $-1 $524 1 $524 0 $309 $-1 forward 7 unknown #
vertex $-1 $310 $525 #
ellipse-curve $-1 58.945507420011552 -41.597306989221636 7.3647093871949343 0 -0.85716730853699208 0.51503806187062418 2 0 0 1 I I #
point $-1 60.945507420011552 -43.380231733038499 8.4359986155299751 #
plane-surface $-1 78.981902523880734 0 0 -1 0 0 0 0 1 forward_v I I I I #
coedge $-1 $316 $457 $319 $451 reversed $201 $-1 #
vertex $-1 $451 $526 #
straight-curve $-1 -78.981902523880734 -45.544695827775705 0 0 0 -1 I I #
edge $-1 $449 -45.544695827775705 $453 45.544695827775705 $448 $527 forward 7 unknown #
straight-curve $-1 0 -45.544695827775705 -12.038271922812056 -1 0 0 I I #
vertex $-1 $322 $528 #
straight-curve $-1 0 45.544695827775705 -12.038271922812056 1 0 0 I I #
point $-1 78.981902523880734 45.544695827775705 -12.038271922812056 #
point $-1 78.981902523880734 -45.544695827775705 -12.038271922812056 #
coedge $-1 $448 $326 $329 $459 forward $201 $-1 #
straight-curve $-1 -78.981902523880734 0 12.038271922812056 0 -1 0 I I #
edge $-1 $330 -12.038271922812056 $453 12.038271922812056 $329 $529 forward 7 unknown #
point $-1 -78.981902523880734 45.544695827775705 12.038271922812056 #
point $-1 -78.981902523880734 -45.544695827775705 12.038271922812056 #
straight-curve $-1 78.981902523880734 -45.544695827775705 0 0 0 -1 I I #
straight-curve $-1 78.981902523880734 45.544695827775705 0 0 0 -1 I I #
plane-surface $-1 0 -45.544695827775705 0 0 1 0 0 0 1 forward_v I I I I #
coedge $-1 $530 $478 $343 $467 forward $340 $-1 #
coedge $-1 $468 $342 $351 $476 forward $220 $-1 #
edge $-1 $471 -3.0750185298240491 $469 3.0750185298240496 $343 $531 forward 7 unknown #
coedge $-1 $344 $466 $530 $532 forward $220 $-1 #
vertex $-1 $345 $533 #
straight-curve $-1 -84.6016817555643 45.544695827775705 -4.2942091903223432 1 0 0 I I #
vertex $-1 $346 $534 #
straight-curve $-1 -84.6016817555643 45.544695827775705 1.8558278693257555 -1 0 0 I I #
point $-1 -78.981902523880734 45.544695827775705 -4.2942091903223432 #
straight-curve $-1 -78.981902523880734 0 -4.2942091903223432 0 1 0 I I #
coedge $-1 $351 $350 $535 $536 forward $352 $-1 #
edge $-1 $353 -5.619779231683566 $537 5.619779231683566 $351 $538 forward 7 unknown #
point $-1 -78.981902523880734 -45.544695827775705 -4.2942091903223432 #
coedge $-1 $465 $535 $355 $479 reversed $340 $-1 #
edge $-1 $471 -45.544695827775705 $480 45.544695827775705 $478 $539 forward 7 unknown #
vertex $-1 $479 $540 #
straight-curve $-1 -84.6016817555643 -45.544695827775705 1.8558278693257555 1 0 0 I I #
edge $-1 $483 31.057276730065979 $486 38.26182334463013 $360 $541 forward 7 unknown #
vertex $-1 $374 $542 #
straight-curve $-1 -57.762595929233001 -90.473052723413772 12.038271922812058 0 -1 0 I I #
edge $-1 $486 -33.909621450910777 $371 -13.796327505733682 $370 $543 forward 7 unknown #
vertex $-1 $485 $544 #
straight-curve $-1 -57.762595929233001 -45.544695827775712 4.8337253082478924 0 0.51503806187062418 0.85716730853699208 I I #
point $-1 -57.762595929233001 -41.215767638301301 12.038271922812056 #
point $-1 -37.64930198405591 -45.544695827775705 4.8337253082479039 #
straight-curve $-1 0 -45.544695827775705 12.038271922812056 1 0 0 I I #
vertex $-1 $377 $545 #
point $-1 -45.705948956644455 -41.597306989221636 7.3647093871949343 #
edge $-1 $494 31.057276730065979 $497 38.26182334463013 $382 $546 forward 7 unknown #
vertex $-1 $396 $547 #
straight-curve $-1 -22.21211047034766 -90.473052723413772 12.038271922812058 0 -1 0 I I #
edge $-1 $497 -16.134378721468103 $393 3.978915223708988 $392 $548 forward 7 unknown #
vertex $-1 $496 $549 #
straight-curve $-1 -22.21211047034766 -45.544695827775712 4.8337253082478924 0 0.51503806187062418 0.85716730853699208 I I #
point $-1 -22.21211047034766 -41.215767638301301 12.038271922812056 #
point $-1 -2.0988165251705695 -45.544695827775705 4.8337253082479039 #
straight-curve $-1 0 -45.544695827775705 12.038271922812056 1 0 0 I I #
vertex $-1 $399 $550 #
point $-1 -10.155463497759115 -41.597306989221636 7.3647093871949343 #
edge $-1 $505 31.057276730065979 $508 38.26182334463013 $404 $551 forward 7 unknown #
vertex $-1 $418 $552 #
straight-curve $-1 13.338374988537673 -90.473052723413772 12.038271922812058 0 -1 0 I I #
edge $-1 $508 1.6408640079745638 $415 21.754157953151655 $414 $553 forward 7 unknown #
vertex $-1 $507 $554 #
straight-curve $-1 13.338374988537673 -45.544695827775712 4.8337253082478924 0 0.51503806187062418 0.85716730853699208 I I #
point $-1 13.338374988537673 -41.215767638301301 12.038271922812056 #
point $-1 33.451668933714764 -45.544695827775705 4.8337253082479039 #
straight-curve $-1 0 -45.544695827775705 12.038271922812056 1 0 0 I I #
vertex $-1 $421 $555 #
point $-1 25.395021961126218 -41.597306989221636 7.3647093871949343 #
edge $-1 $516 31.057276730065979 $519 38.26182334463013 $426 $556 forward 7 unknown #
vertex $-1 $440 $557 #
straight-curve $-1 48.888860447423006 -90.473052723413772 12.038271922812058 0 -1 0 I I #
edge $-1 $519 19.41610673741723 $437 39.529400682594314 $436 $558 forward 7 unknown #
vertex $-1 $518 $559 #
straight-curve $-1 48.888860447423006 -45.544695827775712 4.8337253082478924 0 0.51503806187062418 0.85716730853699208 I I #
point $-1 48.888860447423006 -41.215767638301301 12.038271922812056 #
point $-1 69.00215439260009 -45.544695827775705 4.8337253082479039 #
straight-curve $-1 0 -45.544695827775705 12.038271922812056 1 0 0 I I #
vertex $-1 $443 $560 #
point $-1 60.945507420011552 -41.597306989221636 7.3647093871949343 #
point $-1 -78.981902523880734 -45.544695827775705 -12.038271922812056 #
straight-curve $-1 -78.981902523880734 0 -12.038271922812056 0 1 0 I I #
point $-1 -78.981902523880734 45.544695827775705 -12.038271922812056 #
straight-curve $-1 -78.981902523880734 45.544695827775705 0 0 0 -1 I I #
coedge $-1 $535 $465 $468 $532 reversed $340 $-1 #
straight-curve $-1 -90.221460987247866 45.544695827775705 -1.2191906604982936 0 0 -1 I I #
edge $-1 $537 -45.544695827775705 $469 45.544695827775705 $530 $561 forward 7 unknown #
point $-1 -90.221460987247866 45.544695827775705 -4.2942091903223432 #
point $-1 -90.221460987247866 45.544695827775705 1.8558278693257555 #
coedge $-1 $478 $530 $475 $536 reversed $340 $-1 #
edge $-1 $480 -3.0750185298240491 $537 3.0750185298240496 $535 $562 forward 7 unknown #
vertex $-1 $532 $563 #
straight-curve $-1 -84.6016817555643 -45.544695827775705 -4.2942091903223432 -1 0 0 I I #
straight-curve $-1 -90.221460987247866 0 1.8558278693257555 0 -1 0 I I #
point $-1 -90.221460987247866 -45.544695827775705 1.8558278693257555 #
straight-curve $-1 -57.762595929233001 -45.544695827775712 43.095548652878037 0 0 -1 I I #
point $-1 -57.762595929233001 -45.544695827775705 12.038271922812056 #
straight-curve $-1 -23.852974478322228 -45.544695827775705 4.8337253082479146 1 0 0 I I #
point $-1 -57.762595929233001 -45.544695827775705 4.8337253082479039 #
point $-1 -47.705948956644455 -39.882972372147648 6.3346332634536866 #
straight-curve $-1 -22.21211047034766 -45.544695827775712 43.095548652878037 0 0 -1 I I #
point $-1 -22.21211047034766 -45.544695827775705 12.038271922812056 #
straight-curve $-1 -6.0777317488795575 -45.544695827775705 4.8337253082479146 1 0 0 I I #
point $-1 -22.21211047034766 -45.544695827775705 4.8337253082479039 #
point $-1 -12.155463497759115 -39.882972372147648 6.3346332634536866 #
straight-curve $-1 13.338374988537673 -45.544695827775712 43.095548652878037 0 0 -1 I I #
point $-1 13.338374988537673 -45.544695827775705 12.038271922812056 #
straight-curve $-1 11.697510980563109 -45.544695827775705 4.8337253082479146 1 0 0 I I #
point $-1 13.338374988537673 -45.544695827775705 4.8337253082479039 #
point $-1 23.395021961126218 -39.882972372147648 6.3346332634536866 #
straight-curve $-1 48.888860447423006 -45.544695827775712 43.095548652878037 0 0 -1 I I #
point $-1 48.888860447423006 -45.544695827775705 12.038271922812056 #
straight-curve $-1 29.472753710005776 -45.544695827775705 4.8337253082479146 1 0 0 I I #
point $-1 48.888860447423006 -45.544695827775705 4.8337253082479039 #
point $-1 58.945507420011552 -39.882972372147648 6.3346332634536866 #
straight-curve $-1 -90.221460987247866 0 -4.2942091903223432 0 1 0 I I #
straight-curve $-1 -90.221460987247866 -45.544695827775705 -1.2191906604982936 0 0 -1 I I #
point $-1 -90.221460987247866 -45.544695827775705 -4.2942091903223432 #
End-of-ACIS-data 