500 0 18 0           
7 Unknown 11 ACIS 5.0 NT 24 Fri Mar 26 18:37:03 1999 
-1 9.9999999999999995e-007 1e-010 
body $-1 $18 $-1 $19 #
body $-1 $20 $-1 $21 #
body $-1 $22 $-1 $23 #
body $-1 $24 $-1 $25 #
body $-1 $26 $-1 $27 #
body $-1 $28 $-1 $29 #
body $-1 $30 $-1 $31 #
body $-1 $32 $-1 $33 #
body $-1 $34 $-1 $35 #
body $-1 $36 $-1 $37 #
body $-1 $38 $-1 $39 #
body $-1 $40 $-1 $41 #
body $-1 $42 $-1 $43 #
body $-1 $44 $-1 $45 #
body $-1 $46 $-1 $47 #
body $-1 $48 $-1 $49 #
body $-1 $50 $-1 $51 #
body $-1 $52 $-1 $53 #
lump $-1 $-1 $54 $0 #
transform $-1 1 0 0 0 1 0 0 0 1 58.540604876857813 40.057624202596131 15.345785244006125 1 rotate no_reflect no_shear #
lump $-1 $-1 $55 $1 #
transform $-1 1 0 0 0 1 0 0 0 1 58.540604876857813 40.057624202596131 15.345785244006125 1 rotate no_reflect no_shear #
lump $-1 $-1 $56 $2 #
transform $-1 1 0 0 0 1 0 0 0 1 58.540604876857813 40.057624202596131 15.345785244006125 1 rotate no_reflect no_shear #
lump $-1 $-1 $57 $3 #
transform $-1 1 0 0 0 1 0 0 0 1 58.540604876857813 40.057624202596131 15.345785244006125 1 rotate no_reflect no_shear #
lump $-1 $-1 $58 $4 #
transform $-1 1 0 0 0 1 0 0 0 1 58.540604876857813 40.057624202596131 15.345785244006125 1 rotate no_reflect no_shear #
lump $-1 $-1 $59 $5 #
transform $-1 1 0 0 0 1 0 0 0 1 58.540604876857813 40.057624202596131 15.345785244006125 1 rotate no_reflect no_shear #
lump $-1 $-1 $60 $6 #
transform $-1 1 0 0 0 1 0 0 0 1 58.540604876857813 40.057624202596131 15.345785244006125 1 rotate no_reflect no_shear #
lump $-1 $-1 $61 $7 #
transform $-1 1 0 0 0 1 0 0 0 1 58.540604876857813 40.057624202596131 15.345785244006125 1 rotate no_reflect no_shear #
lump $-1 $-1 $62 $8 #
transform $-1 1 0 0 0 1 0 0 0 1 58.540604876857813 40.057624202596131 15.345785244006125 1 rotate no_reflect no_shear #
lump $-1 $-1 $63 $9 #
transform $-1 1 0 0 0 1 0 0 0 1 58.540604876857813 40.057624202596131 15.345785244006125 1 rotate no_reflect no_shear #
lump $-1 $-1 $64 $10 #
transform $-1 1 0 0 0 1 0 0 0 1 58.540604876857813 40.057624202596131 15.345785244006125 1 rotate no_reflect no_shear #
lump $-1 $-1 $65 $11 #
transform $-1 1 0 0 0 1 0 0 0 1 58.540604876857813 40.057624202596131 15.345785244006125 1 rotate no_reflect no_shear #
lump $-1 $-1 $66 $12 #
transform $-1 1 0 0 0 1 0 0 0 1 58.540604876857813 40.057624202596131 15.345785244006125 1 rotate no_reflect no_shear #
lump $-1 $-1 $67 $13 #
transform $-1 1 0 0 0 1 0 0 0 1 58.540604876857813 40.057624202596131 15.345785244006125 1 rotate no_reflect no_shear #
lump $-1 $-1 $68 $14 #
transform $-1 1 0 0 0 1 0 0 0 1 58.540604876857813 40.057624202596131 15.345785244006125 1 rotate no_reflect no_shear #
lump $-1 $-1 $69 $15 #
transform $-1 1 0 0 0 1 0 0 0 1 58.540604876857813 40.057624202596131 15.345785244006125 1 rotate no_reflect no_shear #
lump $-1 $-1 $70 $16 #
transform $-1 1 0 0 0 1 0 0 0 1 58.540604876857813 40.057624202596131 15.345785244006125 1 rotate no_reflect no_shear #
lump $-1 $-1 $71 $17 #
transform $-1 1 0 0 0 1 0 0 0 1 58.540604876857813 40.057624202596131 15.345785244006125 1 rotate no_reflect no_shear #
shell $-1 $-1 $-1 $72 $-1 $18 #
shell $-1 $-1 $-1 $73 $-1 $20 #
shell $-1 $-1 $-1 $74 $-1 $22 #
shell $-1 $-1 $-1 $75 $-1 $24 #
shell $-1 $-1 $-1 $76 $-1 $26 #
shell $-1 $-1 $-1 $77 $-1 $28 #
shell $-1 $-1 $-1 $78 $-1 $30 #
shell $-1 $-1 $-1 $79 $-1 $32 #
shell $-1 $-1 $-1 $80 $-1 $34 #
shell $-1 $-1 $-1 $81 $-1 $36 #
shell $-1 $-1 $-1 $82 $-1 $38 #
shell $-1 $-1 $-1 $83 $-1 $40 #
shell $-1 $-1 $-1 $84 $-1 $42 #
shell $-1 $-1 $-1 $85 $-1 $44 #
shell $-1 $-1 $-1 $86 $-1 $46 #
shell $-1 $-1 $-1 $87 $-1 $48 #
shell $-1 $-1 $-1 $88 $-1 $50 #
shell $-1 $-1 $-1 $89 $-1 $52 #
face $-1 $90 $91 $54 $-1 $92 forward single #
face $-1 $93 $94 $55 $-1 $95 reversed single #
face $-1 $96 $97 $56 $-1 $98 reversed single #
face $-1 $99 $100 $57 $-1 $101 forward single #
face $-1 $102 $103 $58 $-1 $104 forward single #
face $-1 $105 $106 $59 $-1 $107 forward single #
face $-1 $108 $109 $60 $-1 $110 reversed single #
face $-1 $111 $112 $61 $-1 $113 forward single #
face $-1 $114 $115 $62 $-1 $116 forward single #
face $-1 $117 $118 $63 $-1 $119 forward single #
face $-1 $120 $121 $64 $-1 $122 reversed single #
face $-1 $123 $124 $65 $-1 $125 forward single #
face $-1 $126 $127 $66 $-1 $128 forward single #
face $-1 $129 $130 $67 $-1 $131 forward single #
face $-1 $132 $133 $68 $-1 $134 reversed single #
face $-1 $135 $136 $69 $-1 $137 forward single #
face $-1 $138 $139 $70 $-1 $140 forward single #
face $-1 $141 $142 $71 $-1 $143 forward single #
face $-1 $144 $145 $54 $-1 $146 reversed single #
loop $-1 $-1 $147 $72 #
plane-surface $-1 0 0 15.345785244006125 0 0 1 1 0 0 forward_v I I I I #
face $-1 $148 $149 $55 $-1 $150 reversed single #
loop $-1 $-1 $151 $73 #
plane-surface $-1 -36.128510181047361 -31.595599384227885 0 1 0 0 0 0 -1 forward_v I I I I #
face $-1 $152 $153 $56 $-1 $154 reversed single #
loop $-1 $-1 $155 $74 #
plane-surface $-1 98.597510968683551 8.4620248183682456 172.67783259819595 0 -1 0 -0.85716730853699208 0 -0.51503806187062418 forward_v I I I I #
face $-1 $156 $157 $57 $-1 $158 forward single #
loop $-1 $159 $160 $75 #
cone-surface $-1 57.112364204549216 2.1427120914028279 13.424557491231145 -0.85716730853699208 0 -0.51503806187062418 0.25751903093531209 0 -0.42858365426849604 1 I I 0 1 0.5 forward I I I I #
face $-1 $161 $162 $58 $-1 $163 forward single #
loop $-1 $164 $165 $76 #
cone-surface $-1 57.112364204549216 4.5124543640148573 13.424557491231145 -0.85716730853699208 0 -0.51503806187062418 0.25751903093531209 0 -0.42858365426849604 1 I I 0 1 0.5 forward I I I I #
face $-1 $166 $167 $59 $-1 $168 forward single #
loop $-1 $169 $170 $77 #
cone-surface $-1 57.112364204549216 6.8821966366268867 13.424557491231145 -0.85716730853699208 0 -0.51503806187062418 0.25751903093531209 0 -0.42858365426849604 1 I I 0 1 0.5 forward I I I I #
face $-1 $171 $172 $60 $-1 $173 reversed single #
loop $-1 $-1 $174 $78 #
plane-surface $-1 -1.7606744761638993 4.5124543640148573 112.37655324517424 0.85716730853699208 0 0.51503806187062418 0.51503806187062418 0 -0.85716730853699208 forward_v I I I I #
face $-1 $175 $176 $61 $-1 $177 forward single #
loop $-1 $178 $179 $79 #
cone-surface $-1 57.112364204549216 10.041853000109597 13.424557491231145 -0.85716730853699208 0 -0.51503806187062418 0.25751903093531209 0 -0.42858365426849604 1 I I 0 1 0.5 forward I I I I #
face $-1 $180 $181 $62 $-1 $182 forward single #
loop $-1 $183 $184 $80 #
cone-surface $-1 57.112364204549216 12.411595272721627 13.424557491231145 -0.85716730853699208 0 -0.51503806187062418 0.25751903093531209 0 -0.42858365426849604 1 I I 0 1 0.5 forward I I I I #
face $-1 $185 $186 $63 $-1 $187 forward single #
loop $-1 $188 $189 $81 #
cone-surface $-1 57.112364204549216 14.781337545333656 13.424557491231145 -0.85716730853699208 0 -0.51503806187062418 0.25751903093531209 0 -0.42858365426849604 1 I I 0 1 0.5 forward I I I I #
face $-1 $190 $191 $64 $-1 $192 reversed single #
loop $-1 $-1 $193 $82 #
plane-surface $-1 -158.89879032170526 0.56288390966146906 72.319647153348498 0 1 0 -0.85716730853699208 0 0.51503806187062418 forward_v I I I I #
face $-1 $194 $195 $65 $-1 $196 forward single #
loop $-1 $197 $198 $83 #
cone-surface $-1 -57.112364204549209 2.1427120914028279 13.424557491231138 0.85716730853699208 0 -0.51503806187062418 0.25751903093531209 0 0.42858365426849604 1 I I 0 1 0.5 forward I I I I #
face $-1 $199 $200 $66 $-1 $201 forward single #
loop $-1 $202 $203 $84 #
cone-surface $-1 -57.112364204549209 4.5124543640148573 13.424557491231138 0.85716730853699208 0 -0.51503806187062418 0.25751903093531209 0 0.42858365426849604 1 I I 0 1 0.5 forward I I I I #
face $-1 $204 $205 $67 $-1 $206 forward single #
loop $-1 $207 $208 $85 #
cone-surface $-1 -57.112364204549209 6.8821966366268867 13.424557491231138 0.85716730853699208 0 -0.51503806187062418 0.25751903093531209 0 0.42858365426849604 1 I I 0 1 0.5 forward I I I I #
face $-1 $209 $210 $68 $-1 $211 reversed single #
loop $-1 $-1 $212 $86 #
plane-surface $-1 -58.540604876857813 4.5124543640148573 12.018367800326786 -0.85716730853699208 0 0.51503806187062418 0.51503806187062418 0 0.85716730853699208 forward_v I I I I #
face $-1 $213 $214 $69 $-1 $215 forward single #
loop $-1 $216 $217 $87 #
cone-surface $-1 -57.112364204549209 10.041853000109597 13.424557491231138 0.85716730853699208 0 -0.51503806187062418 0.25751903093531209 0 0.42858365426849604 1 I I 0 1 0.5 forward I I I I #
face $-1 $218 $219 $70 $-1 $220 forward single #
loop $-1 $221 $222 $88 #
cone-surface $-1 -57.112364204549209 12.411595272721627 13.424557491231138 0.85716730853699208 0 -0.51503806187062418 0.25751903093531209 0 0.42858365426849604 1 I I 0 1 0.5 forward I I I I #
face $-1 $223 $224 $71 $-1 $225 forward single #
loop $-1 $226 $227 $89 #
cone-surface $-1 -57.112364204549209 14.781337545333656 13.424557491231138 0.85716730853699208 0 -0.51503806187062418 0.25751903093531209 0 0.42858365426849604 1 I I 0 1 0.5 forward I I I I #
face $-1 $228 $229 $54 $-1 $230 reversed single #
loop $-1 $-1 $231 $90 #
plane-surface $-1 0 0 -15.345785244006125 0 0 1 1 0 0 forward_v I I I I #
coedge $-1 $232 $233 $234 $235 forward $91 $-1 #
face $-1 $236 $237 $55 $-1 $238 reversed single #
loop $-1 $-1 $239 $93 #
plane-surface $-1 -34.359672744355365 -23.133574565859639 0 0 -1 0 0 0 -1 forward_v I I I I #
coedge $-1 $240 $241 $242 $243 forward $94 $-1 #
face $-1 $244 $245 $56 $-1 $246 reversed single #
loop $-1 $-1 $247 $96 #
plane-surface $-1 -1.7606744761638993 4.5124543640148573 112.37655324517424 0.85716730853699208 0 0.51503806187062418 0.51503806187062418 0 -0.85716730853699208 forward_v I I I I #
coedge $-1 $248 $249 $250 $251 reversed $97 $-1 #
face $-1 $-1 $252 $57 $-1 $253 forward single #
loop $-1 $254 $255 $99 #
cone-surface $-1 56.469488723146469 2.1427120914028279 13.038278944828177 -0.85716730853699208 0 -0.51503806187062418 0.12875951546765604 0 -0.21429182713424802 1 I I -0.70710678118654746 0.70710678118654746 0.25 forward I I I I #
loop $-1 $-1 $256 $75 #
coedge $-1 $160 $160 $257 $258 reversed $100 $-1 #
face $-1 $-1 $259 $58 $-1 $260 forward single #
loop $-1 $261 $262 $102 #
cone-surface $-1 56.469488723146469 4.5124543640148573 13.038278944828177 -0.85716730853699208 0 -0.51503806187062418 0.12875951546765604 0 -0.21429182713424802 1 I I -0.70710678118654746 0.70710678118654746 0.25 forward I I I I #
loop $-1 $-1 $263 $76 #
coedge $-1 $165 $165 $264 $265 reversed $103 $-1 #
face $-1 $-1 $266 $59 $-1 $267 forward single #
loop $-1 $268 $269 $105 #
cone-surface $-1 56.469488723146469 6.8821966366268867 13.038278944828177 -0.85716730853699208 0 -0.51503806187062418 0.12875951546765604 0 -0.21429182713424802 1 I I -0.70710678118654746 0.70710678118654746 0.25 forward I I I I #
loop $-1 $-1 $270 $77 #
coedge $-1 $170 $170 $271 $272 reversed $106 $-1 #
face $-1 $273 $274 $60 $-1 $275 reversed single #
loop $-1 $-1 $276 $108 #
plane-surface $-1 98.597510968683551 16.361165727075015 172.67783259819595 0 -1 0 -0.85716730853699208 0 -0.51503806187062418 forward_v I I I I #
coedge $-1 $277 $278 $279 $280 reversed $109 $-1 #
face $-1 $-1 $281 $61 $-1 $282 forward single #
loop $-1 $283 $284 $111 #
cone-surface $-1 56.469488723146469 10.041853000109597 13.038278944828177 -0.85716730853699208 0 -0.51503806187062418 0.12875951546765604 0 -0.21429182713424802 1 I I -0.70710678118654746 0.70710678118654746 0.25 forward I I I I #
loop $-1 $-1 $285 $79 #
coedge $-1 $179 $179 $286 $287 reversed $112 $-1 #
face $-1 $-1 $288 $62 $-1 $289 forward single #
loop $-1 $290 $291 $114 #
cone-surface $-1 56.469488723146469 12.411595272721627 13.038278944828177 -0.85716730853699208 0 -0.51503806187062418 0.12875951546765604 0 -0.21429182713424802 1 I I -0.70710678118654746 0.70710678118654746 0.25 forward I I I I #
loop $-1 $-1 $292 $80 #
coedge $-1 $184 $184 $293 $294 reversed $115 $-1 #
face $-1 $-1 $295 $63 $-1 $296 forward single #
loop $-1 $297 $298 $117 #
cone-surface $-1 56.469488723146469 14.781337545333656 13.038278944828177 -0.85716730853699208 0 -0.51503806187062418 0.12875951546765604 0 -0.21429182713424802 1 I I -0.70710678118654746 0.70710678118654746 0.25 forward I I I I #
loop $-1 $-1 $299 $81 #
coedge $-1 $189 $189 $300 $301 reversed $118 $-1 #
face $-1 $302 $303 $64 $-1 $304 reversed single #
loop $-1 $-1 $305 $120 #
plane-surface $-1 -58.540604876857813 4.5124543640148573 12.018367800326786 -0.85716730853699208 0 0.51503806187062418 0.51503806187062418 0 0.85716730853699208 forward_v I I I I #
coedge $-1 $306 $307 $308 $309 reversed $121 $-1 #
face $-1 $-1 $310 $65 $-1 $311 forward single #
loop $-1 $312 $313 $123 #
cone-surface $-1 -56.469488723146462 2.1427120914028279 13.03827894482817 0.85716730853699208 0 -0.51503806187062418 0.12875951546765604 0 0.21429182713424802 1 I I -0.70710678118654746 0.70710678118654746 0.25 forward I I I I #
loop $-1 $-1 $314 $83 #
coedge $-1 $198 $198 $315 $316 reversed $124 $-1 #
face $-1 $-1 $317 $66 $-1 $318 forward single #
loop $-1 $319 $320 $126 #
cone-surface $-1 -56.469488723146462 4.5124543640148573 13.03827894482817 0.85716730853699208 0 -0.51503806187062418 0.12875951546765604 0 0.21429182713424802 1 I I -0.70710678118654746 0.70710678118654746 0.25 forward I I I I #
loop $-1 $-1 $321 $84 #
coedge $-1 $203 $203 $322 $323 reversed $127 $-1 #
face $-1 $-1 $324 $67 $-1 $325 forward single #
loop $-1 $326 $327 $129 #
cone-surface $-1 -56.469488723146462 6.8821966366268867 13.03827894482817 0.85716730853699208 0 -0.51503806187062418 0.12875951546765604 0 0.21429182713424802 1 I I -0.70710678118654746 0.70710678118654746 0.25 forward I I I I #
loop $-1 $-1 $328 $85 #
coedge $-1 $208 $208 $329 $330 reversed $130 $-1 #
face $-1 $331 $332 $68 $-1 $333 reversed single #
loop $-1 $-1 $334 $132 #
plane-surface $-1 -158.89879032170526 16.361165727075015 72.319647153348498 0 -1 0 0.85716730853699208 0 -0.51503806187062418 forward_v I I I I #
coedge $-1 $335 $336 $337 $338 reversed $133 $-1 #
face $-1 $-1 $339 $69 $-1 $340 forward single #
loop $-1 $341 $342 $135 #
cone-surface $-1 -56.469488723146462 10.041853000109597 13.03827894482817 0.85716730853699208 0 -0.51503806187062418 0.12875951546765604 0 0.21429182713424802 1 I I -0.70710678118654746 0.70710678118654746 0.25 forward I I I I #
loop $-1 $-1 $343 $87 #
coedge $-1 $217 $217 $344 $345 reversed $136 $-1 #
face $-1 $-1 $346 $70 $-1 $347 forward single #
loop $-1 $348 $349 $138 #
cone-surface $-1 -56.469488723146462 12.411595272721627 13.03827894482817 0.85716730853699208 0 -0.51503806187062418 0.12875951546765604 0 0.21429182713424802 1 I I -0.70710678118654746 0.70710678118654746 0.25 forward I I I I #
loop $-1 $-1 $350 $88 #
coedge $-1 $222 $222 $351 $352 reversed $139 $-1 #
face $-1 $-1 $353 $71 $-1 $354 forward single #
loop $-1 $355 $356 $141 #
cone-surface $-1 -56.469488723146462 14.781337545333656 13.03827894482817 0.85716730853699208 0 -0.51503806187062418 0.12875951546765604 0 0.21429182713424802 1 I I -0.70710678118654746 0.70710678118654746 0.25 forward I I I I #
loop $-1 $-1 $357 $89 #
coedge $-1 $227 $227 $358 $359 reversed $142 $-1 #
face $-1 $360 $361 $54 $-1 $362 reversed single #
loop $-1 $-1 $363 $144 #
plane-surface $-1 0 -40.057624202596131 0 0 1 0 0 0 1 forward_v I I I I #
coedge $-1 $364 $365 $366 $367 forward $145 $-1 #
coedge $-1 $368 $147 $369 $370 forward $91 $-1 #
coedge $-1 $147 $368 $371 $372 forward $91 $-1 #
coedge $-1 $373 $374 $147 $235 reversed $375 $-1 #
edge $-1 $376 -40.057624202596131 $377 40.057624202596131 $234 $378 forward 7 unknown #
face $-1 $379 $380 $55 $-1 $381 forward single #
loop $-1 $-1 $382 $148 #
plane-surface $-1 -32.590835307663369 -31.595599384227885 0 -1 0 0 0 0 1 forward_v I I I I #
coedge $-1 $383 $384 $385 $386 forward $149 $-1 #
coedge $-1 $387 $151 $388 $389 reversed $94 $-1 #
coedge $-1 $151 $387 $390 $391 reversed $94 $-1 #
coedge $-1 $384 $383 $151 $243 reversed $149 $-1 #
edge $-1 $392 -15.345785244006125 $393 15.345785244006125 $242 $394 forward 7 unknown #
face $-1 $395 $396 $56 $-1 $397 reversed single #
loop $-1 $-1 $398 $152 #
plane-surface $-1 98.597510968683551 0.56288390966146906 172.67783259819595 0 1 0 0.85716730853699208 0 0.51503806187062418 forward_v I I I I #
coedge $-1 $399 $400 $401 $402 reversed $153 $-1 #
coedge $-1 $249 $155 $403 $404 reversed $97 $-1 #
coedge $-1 $155 $248 $399 $405 reversed $97 $-1 #
coedge $-1 $401 $406 $155 $251 forward $407 $-1 #
edge $-1 $408 -9.2418493925160377 $409 -7.2425353564358232 $250 $410 forward 7 unknown #
loop $-1 $-1 $257 $156 #
plane-surface $-1 -1.7606744761638993 4.5124543640148573 112.37655324517424 0.85716730853699208 0 0.51503806187062418 0.51503806187062418 0 -0.85716730853699208 forward_v I I I I #
loop $-1 $-1 $411 $99 #
coedge $-1 $255 $255 $256 $412 reversed $157 $-1 #
coedge $-1 $256 $256 $255 $412 forward $159 $-1 #
coedge $-1 $257 $257 $160 $258 forward $252 $-1 #
edge $-1 $413 0 $413 6.2831853071796004 $257 $414 forward 7 unknown #
loop $-1 $-1 $264 $161 #
plane-surface $-1 -1.7606744761638993 4.5124543640148573 112.37655324517424 0.85716730853699208 0 0.51503806187062418 0.51503806187062418 0 -0.85716730853699208 forward_v I I I I #
loop $-1 $-1 $415 $102 #
coedge $-1 $262 $262 $263 $416 reversed $162 $-1 #
coedge $-1 $263 $263 $262 $416 forward $164 $-1 #
coedge $-1 $264 $264 $165 $265 forward $259 $-1 #
edge $-1 $417 0 $417 6.2831853071796004 $264 $418 forward 7 unknown #
loop $-1 $-1 $271 $166 #
plane-surface $-1 -1.7606744761638993 4.5124543640148573 112.37655324517424 0.85716730853699208 0 0.51503806187062418 0.51503806187062418 0 -0.85716730853699208 forward_v I I I I #
loop $-1 $-1 $419 $105 #
coedge $-1 $269 $269 $270 $420 reversed $167 $-1 #
coedge $-1 $270 $270 $269 $420 forward $169 $-1 #
coedge $-1 $271 $271 $170 $272 forward $266 $-1 #
edge $-1 $421 0 $421 6.2831853071796004 $271 $422 forward 7 unknown #
face $-1 $423 $424 $60 $-1 $425 forward single #
loop $-1 $-1 $426 $171 #
plane-surface $-1 58.540604876857813 0 0 -1 0 0 0 0 1 forward_v I I I I #
coedge $-1 $427 $428 $429 $430 reversed $172 $-1 #
coedge $-1 $431 $174 $432 $433 reversed $109 $-1 #
coedge $-1 $174 $431 $426 $434 reversed $109 $-1 #
coedge $-1 $435 $436 $174 $280 forward $424 $-1 #
edge $-1 $437 113.19933347292451 $438 117.08120975371563 $279 $439 forward 7 unknown #
loop $-1 $-1 $286 $175 #
plane-surface $-1 -1.7606744761638993 4.5124543640148573 112.37655324517424 0.85716730853699208 0 0.51503806187062418 0.51503806187062418 0 -0.85716730853699208 forward_v I I I I #
loop $-1 $-1 $440 $111 #
coedge $-1 $284 $284 $285 $441 reversed $176 $-1 #
coedge $-1 $285 $285 $284 $441 forward $178 $-1 #
coedge $-1 $286 $286 $179 $287 forward $281 $-1 #
edge $-1 $442 0 $442 6.2831853071796004 $286 $443 forward 7 unknown #
loop $-1 $-1 $293 $180 #
plane-surface $-1 -1.7606744761638993 4.5124543640148573 112.37655324517424 0.85716730853699208 0 0.51503806187062418 0.51503806187062418 0 -0.85716730853699208 forward_v I I I I #
loop $-1 $-1 $444 $114 #
coedge $-1 $291 $291 $292 $445 reversed $181 $-1 #
coedge $-1 $292 $292 $291 $445 forward $183 $-1 #
coedge $-1 $293 $293 $184 $294 forward $288 $-1 #
edge $-1 $446 0 $446 6.2831853071796004 $293 $447 forward 7 unknown #
loop $-1 $-1 $300 $185 #
plane-surface $-1 -1.7606744761638993 4.5124543640148573 112.37655324517424 0.85716730853699208 0 0.51503806187062418 0.51503806187062418 0 -0.85716730853699208 forward_v I I I I #
loop $-1 $-1 $448 $117 #
coedge $-1 $298 $298 $299 $449 reversed $186 $-1 #
coedge $-1 $299 $299 $298 $449 forward $188 $-1 #
coedge $-1 $300 $300 $189 $301 forward $295 $-1 #
edge $-1 $450 0 $450 6.2831853071796004 $300 $451 forward 7 unknown #
face $-1 $452 $453 $64 $-1 $454 reversed single #
loop $-1 $-1 $455 $190 #
plane-surface $-1 -158.89879032170526 8.4620248183682456 72.319647153348498 0 -1 0 0.85716730853699208 0 -0.51503806187062418 forward_v I I I I #
coedge $-1 $456 $457 $458 $459 reversed $191 $-1 #
coedge $-1 $307 $193 $460 $461 reversed $121 $-1 #
coedge $-1 $193 $306 $456 $462 reversed $121 $-1 #
coedge $-1 $458 $463 $193 $309 forward $464 $-1 #
edge $-1 $465 20.908790283994819 $466 22.90810432007504 $308 $467 forward 7 unknown #
loop $-1 $-1 $315 $194 #
plane-surface $-1 -58.540604876857813 4.5124543640148573 12.018367800326786 -0.85716730853699208 0 0.51503806187062418 0.51503806187062418 0 0.85716730853699208 forward_v I I I I #
loop $-1 $-1 $468 $123 #
coedge $-1 $313 $313 $314 $469 reversed $195 $-1 #
coedge $-1 $314 $314 $313 $469 forward $197 $-1 #
coedge $-1 $315 $315 $198 $316 forward $310 $-1 #
edge $-1 $470 0 $470 6.2831853071796004 $315 $471 forward 7 unknown #
loop $-1 $-1 $322 $199 #
plane-surface $-1 -58.540604876857813 4.5124543640148573 12.018367800326786 -0.85716730853699208 0 0.51503806187062418 0.51503806187062418 0 0.85716730853699208 forward_v I I I I #
loop $-1 $-1 $472 $126 #
coedge $-1 $320 $320 $321 $473 reversed $200 $-1 #
coedge $-1 $321 $321 $320 $473 forward $202 $-1 #
coedge $-1 $322 $322 $203 $323 forward $317 $-1 #
edge $-1 $474 0 $474 6.2831853071796004 $322 $475 forward 7 unknown #
loop $-1 $-1 $329 $204 #
plane-surface $-1 -58.540604876857813 4.5124543640148573 12.018367800326786 -0.85716730853699208 0 0.51503806187062418 0.51503806187062418 0 0.85716730853699208 forward_v I I I I #
loop $-1 $-1 $476 $129 #
coedge $-1 $327 $327 $328 $477 reversed $205 $-1 #
coedge $-1 $328 $328 $327 $477 forward $207 $-1 #
coedge $-1 $329 $329 $208 $330 forward $324 $-1 #
edge $-1 $478 0 $478 6.2831853071796004 $329 $479 forward 7 unknown #
face $-1 $480 $481 $68 $-1 $482 forward single #
loop $-1 $-1 $483 $209 #
plane-surface $-1 -58.540604876857813 0 0 1 0 0 0 0 -1 forward_v I I I I #
coedge $-1 $484 $485 $486 $487 reversed $210 $-1 #
coedge $-1 $488 $212 $489 $490 reversed $133 $-1 #
coedge $-1 $212 $488 $491 $492 reversed $133 $-1 #
coedge $-1 $493 $494 $212 $338 forward $481 $-1 #
edge $-1 $495 0 $496 3.8818762807911513 $337 $497 forward 7 unknown #
loop $-1 $-1 $344 $213 #
plane-surface $-1 -58.540604876857813 4.5124543640148573 12.018367800326786 -0.85716730853699208 0 0.51503806187062418 0.51503806187062418 0 0.85716730853699208 forward_v I I I I #
loop $-1 $-1 $498 $135 #
coedge $-1 $342 $342 $343 $499 reversed $214 $-1 #
coedge $-1 $343 $343 $342 $499 forward $216 $-1 #
coedge $-1 $344 $344 $217 $345 forward $339 $-1 #
edge $-1 $500 0 $500 6.2831853071796004 $344 $501 forward 7 unknown #
loop $-1 $-1 $351 $218 #
plane-surface $-1 -58.540604876857813 4.5124543640148573 12.018367800326786 -0.85716730853699208 0 0.51503806187062418 0.51503806187062418 0 0.85716730853699208 forward_v I I I I #
loop $-1 $-1 $502 $138 #
coedge $-1 $349 $349 $350 $503 reversed $219 $-1 #
coedge $-1 $350 $350 $349 $503 forward $221 $-1 #
coedge $-1 $351 $351 $222 $352 forward $346 $-1 #
edge $-1 $504 0 $504 6.2831853071796004 $351 $505 forward 7 unknown #
loop $-1 $-1 $358 $223 #
plane-surface $-1 -58.540604876857813 4.5124543640148573 12.018367800326786 -0.85716730853699208 0 0.51503806187062418 0.51503806187062418 0 0.85716730853699208 forward_v I I I I #
loop $-1 $-1 $506 $141 #
coedge $-1 $356 $356 $357 $507 reversed $224 $-1 #
coedge $-1 $357 $357 $356 $507 forward $226 $-1 #
coedge $-1 $358 $358 $227 $359 forward $353 $-1 #
edge $-1 $508 0 $508 6.2831853071796004 $358 $509 forward 7 unknown #
face $-1 $510 $511 $54 $-1 $512 reversed single #
loop $-1 $-1 $513 $228 #
plane-surface $-1 -58.540604876857813 0 0 1 0 0 0 0 -1 forward_v I I I I #
coedge $-1 $514 $371 $515 $516 forward $229 $-1 #
coedge $-1 $517 $231 $514 $518 forward $145 $-1 #
coedge $-1 $231 $517 $519 $520 forward $145 $-1 #
coedge $-1 $374 $373 $231 $367 reversed $375 $-1 #
edge $-1 $521 -40.057624202596131 $522 40.057624202596131 $366 $523 forward 7 unknown #
coedge $-1 $233 $232 $524 $525 forward $91 $-1 #
coedge $-1 $526 $527 $232 $370 reversed $511 $-1 #
edge $-1 $377 -58.540604876857813 $528 58.540604876857813 $369 $529 forward 7 unknown #
coedge $-1 $363 $530 $233 $372 reversed $229 $-1 #
edge $-1 $531 -58.540604876857813 $376 58.540604876857813 $371 $532 forward 7 unknown #
coedge $-1 $366 $234 $530 $533 forward $375 $-1 #
coedge $-1 $234 $366 $526 $534 reversed $375 $-1 #
loop $-1 $-1 $373 $510 #
vertex $-1 $235 $535 #
vertex $-1 $235 $536 #
straight-curve $-1 58.540604876857813 0 15.345785244006125 0 1 0 I I #
face $-1 $537 $538 $55 $-1 $539 reversed single #
loop $-1 $-1 $540 $236 #
plane-surface $-1 0 0 15.345785244006125 0 0 1 1 0 0 forward_v I I I I #
coedge $-1 $541 $542 $543 $544 reversed $237 $-1 #
coedge $-1 $242 $239 $545 $546 reversed $149 $-1 #
coedge $-1 $239 $242 $547 $548 reversed $149 $-1 #
coedge $-1 $542 $541 $239 $386 reversed $237 $-1 #
edge $-1 $549 -15.345785244006125 $550 15.345785244006125 $385 $551 forward 7 unknown #
coedge $-1 $241 $240 $552 $553 reversed $94 $-1 #
coedge $-1 $545 $554 $240 $389 forward $538 $-1 #
edge $-1 $555 -24.25982451048219 $393 -7.3357748737456969 $388 $556 forward 7 unknown #
coedge $-1 $557 $547 $241 $391 forward $380 $-1 #
edge $-1 $392 7.3357748737456969 $558 24.25982451048219 $390 $559 forward 7 unknown #
vertex $-1 $391 $560 #
vertex $-1 $389 $561 #
straight-curve $-1 -36.128510181047361 -23.133574565859639 0 0 0 -1 I I #
face $-1 $-1 $407 $56 $-1 $562 forward single #
loop $-1 $-1 $563 $244 #
plane-surface $-1 58.540604876857813 0 0 -1 0 0 0 0 1 forward_v I I I I #
coedge $-1 $564 $565 $566 $567 reversed $245 $-1 #
coedge $-1 $568 $247 $249 $405 forward $153 $-1 #
coedge $-1 $247 $568 $564 $569 forward $153 $-1 #
coedge $-1 $566 $250 $247 $402 forward $407 $-1 #
edge $-1 $409 -6.2057976363608169 $570 1.6933432723459596 $401 $571 forward 7 unknown #
coedge $-1 $572 $573 $248 $404 forward $396 $-1 #
edge $-1 $574 -74.320548498771174 $408 -70.993131055091851 $403 $575 forward 7 unknown #
edge $-1 $409 113.19933347292451 $574 117.08120975371563 $249 $576 forward 7 unknown #
coedge $-1 $250 $566 $572 $577 forward $407 $-1 #
loop $-1 $-1 $566 $395 #
vertex $-1 $404 $578 #
vertex $-1 $251 $579 #
straight-curve $-1 49.298755484341775 8.4620248183682456 15.345785244006123 -1 0 0 I I #
coedge $-1 $411 $411 $-1 $580 reversed $254 $-1 #
edge $-1 $581 0 $581 6.2831853071796004 $255 $582 forward 7 unknown #
vertex $-1 $258 $583 #
ellipse-curve $-1 57.540947858817709 2.1427120914028279 13.682076522166453 0.85716730853699208 0 0.51503806187062418 0.25751903093531209 0 -0.42858365426849604 1 I I #
coedge $-1 $415 $415 $-1 $584 reversed $261 $-1 #
edge $-1 $585 0 $585 6.2831853071796004 $262 $586 forward 7 unknown #
vertex $-1 $265 $587 #
ellipse-curve $-1 57.540947858817709 4.5124543640148573 13.682076522166453 0.85716730853699208 0 0.51503806187062418 0.25751903093531209 0 -0.42858365426849604 1 I I #
coedge $-1 $419 $419 $-1 $588 reversed $268 $-1 #
edge $-1 $589 0 $589 6.2831853071796004 $269 $590 forward 7 unknown #
vertex $-1 $272 $591 #
ellipse-curve $-1 57.540947858817709 6.8821966366268867 13.682076522166453 0.85716730853699208 0 0.51503806187062418 0.25751903093531209 0 -0.42858365426849604 1 I I #
face $-1 $-1 $592 $60 $-1 $593 forward single #
loop $-1 $-1 $436 $273 #
plane-surface $-1 98.597510968683551 8.4620248183682456 172.67783259819595 0 -1 0 -0.85716730853699208 0 -0.51503806187062418 forward_v I I I I #
coedge $-1 $429 $594 $278 $434 forward $274 $-1 #
coedge $-1 $428 $276 $431 $595 reversed $172 $-1 #
coedge $-1 $276 $427 $596 $597 reversed $172 $-1 #
coedge $-1 $598 $426 $276 $430 forward $274 $-1 #
edge $-1 $599 -74.320548498771174 $600 -70.993131055091851 $429 $601 forward 7 unknown #
coedge $-1 $278 $277 $427 $595 forward $109 $-1 #
coedge $-1 $602 $596 $277 $433 forward $592 $-1 #
edge $-1 $603 -14.104938545067586 $437 -6.2057976363608169 $432 $604 forward 7 unknown #
edge $-1 $438 6.2057976363608169 $599 14.104938545067586 $426 $605 forward 7 unknown #
coedge $-1 $436 $279 $594 $606 reversed $424 $-1 #
coedge $-1 $279 $435 $602 $607 reversed $424 $-1 #
vertex $-1 $433 $608 #
vertex $-1 $434 $609 #
straight-curve $-1 -1.7606744761638993 8.4620248183682456 112.37655324517424 0.51503806187062418 0 -0.85716730853699208 I I #
coedge $-1 $440 $440 $-1 $610 reversed $283 $-1 #
edge $-1 $611 0 $611 6.2831853071796004 $284 $612 forward 7 unknown #
vertex $-1 $287 $613 #
ellipse-curve $-1 57.540947858817709 10.041853000109597 13.682076522166453 0.85716730853699208 0 0.51503806187062418 0.25751903093531209 0 -0.42858365426849604 1 I I #
coedge $-1 $444 $444 $-1 $614 reversed $290 $-1 #
edge $-1 $615 0 $615 6.2831853071796004 $291 $616 forward 7 unknown #
vertex $-1 $294 $617 #
ellipse-curve $-1 57.540947858817709 12.411595272721627 13.682076522166453 0.85716730853699208 0 0.51503806187062418 0.25751903093531209 0 -0.42858365426849604 1 I I #
coedge $-1 $448 $448 $-1 $618 reversed $297 $-1 #
edge $-1 $619 0 $619 6.2831853071796004 $298 $620 forward 7 unknown #
vertex $-1 $301 $621 #
ellipse-curve $-1 57.540947858817709 14.781337545333656 13.682076522166453 0.85716730853699208 0 0.51503806187062418 0.25751903093531209 0 -0.42858365426849604 1 I I #
face $-1 $-1 $464 $64 $-1 $622 forward single #
loop $-1 $-1 $623 $302 #
plane-surface $-1 -58.540604876857813 0 0 1 0 0 0 0 -1 forward_v I I I I #
coedge $-1 $624 $625 $626 $627 reversed $303 $-1 #
coedge $-1 $628 $305 $307 $462 forward $191 $-1 #
coedge $-1 $305 $628 $624 $629 forward $191 $-1 #
coedge $-1 $626 $308 $305 $459 forward $464 $-1 #
edge $-1 $466 -1.6933432723459596 $630 6.2057976363608169 $458 $631 forward 7 unknown #
coedge $-1 $632 $633 $306 $461 forward $453 $-1 #
edge $-1 $634 -24.141455776347463 $465 -20.814038332668126 $460 $635 forward 7 unknown #
edge $-1 $466 -3.8818762807911513 $634 0 $307 $636 forward 7 unknown #
coedge $-1 $308 $626 $632 $637 forward $464 $-1 #
loop $-1 $-1 $626 $452 #
vertex $-1 $461 $638 #
vertex $-1 $309 $639 #
straight-curve $-1 -79.449395160852632 0.56288390966146906 15.345785244006123 1 0 0 I I #
coedge $-1 $468 $468 $-1 $640 reversed $312 $-1 #
edge $-1 $641 0 $641 6.2831853071796004 $313 $642 forward 7 unknown #
vertex $-1 $316 $643 #
ellipse-curve $-1 -57.540947858817702 2.1427120914028279 13.682076522166451 -0.85716730853699208 0 0.51503806187062418 0.25751903093531209 0 0.42858365426849604 1 I I #
coedge $-1 $472 $472 $-1 $644 reversed $319 $-1 #
edge $-1 $645 0 $645 6.2831853071796004 $320 $646 forward 7 unknown #
vertex $-1 $323 $647 #
ellipse-curve $-1 -57.540947858817702 4.5124543640148573 13.682076522166451 -0.85716730853699208 0 0.51503806187062418 0.25751903093531209 0 0.42858365426849604 1 I I #
coedge $-1 $476 $476 $-1 $648 reversed $326 $-1 #
edge $-1 $649 0 $649 6.2831853071796004 $327 $650 forward 7 unknown #
vertex $-1 $330 $651 #
ellipse-curve $-1 -57.540947858817702 6.8821966366268867 13.682076522166451 -0.85716730853699208 0 0.51503806187062418 0.25751903093531209 0 0.42858365426849604 1 I I #
face $-1 $-1 $652 $68 $-1 $653 forward single #
loop $-1 $-1 $493 $331 #
plane-surface $-1 -158.89879032170526 8.4620248183682456 72.319647153348498 0 -1 0 0.85716730853699208 0 -0.51503806187062418 forward_v I I I I #
coedge $-1 $489 $654 $485 $655 forward $332 $-1 #
coedge $-1 $485 $334 $488 $656 reversed $210 $-1 #
coedge $-1 $334 $484 $483 $655 reversed $210 $-1 #
coedge $-1 $657 $491 $334 $487 forward $652 $-1 #
edge $-1 $658 -22.90810432007504 $659 -20.908790283994819 $486 $660 forward 7 unknown #
coedge $-1 $336 $335 $484 $656 forward $133 $-1 #
coedge $-1 $661 $483 $335 $490 forward $332 $-1 #
edge $-1 $662 -14.104938545067586 $495 -6.2057976363608169 $489 $663 forward 7 unknown #
coedge $-1 $486 $664 $336 $492 forward $652 $-1 #
edge $-1 $496 6.2057976363608169 $658 14.104938545067586 $491 $665 forward 7 unknown #
coedge $-1 $494 $337 $664 $666 reversed $481 $-1 #
coedge $-1 $337 $493 $661 $667 reversed $481 $-1 #
vertex $-1 $490 $668 #
vertex $-1 $492 $669 #
straight-curve $-1 -58.540604876857813 8.4620248183682456 12.018367800326786 0.51503806187062418 0 0.85716730853699208 I I #
coedge $-1 $498 $498 $-1 $670 reversed $341 $-1 #
edge $-1 $671 0 $671 6.2831853071796004 $342 $672 forward 7 unknown #
vertex $-1 $345 $673 #
ellipse-curve $-1 -57.540947858817702 10.041853000109597 13.682076522166451 -0.85716730853699208 0 0.51503806187062418 0.25751903093531209 0 0.42858365426849604 1 I I #
coedge $-1 $502 $502 $-1 $674 reversed $348 $-1 #
edge $-1 $675 0 $675 6.2831853071796004 $349 $676 forward 7 unknown #
vertex $-1 $352 $677 #
ellipse-curve $-1 -57.540947858817702 12.411595272721627 13.682076522166451 -0.85716730853699208 0 0.51503806187062418 0.25751903093531209 0 0.42858365426849604 1 I I #
coedge $-1 $506 $506 $-1 $678 reversed $355 $-1 #
edge $-1 $679 0 $679 6.2831853071796004 $356 $680 forward 7 unknown #
vertex $-1 $359 $681 #
ellipse-curve $-1 -57.540947858817702 14.781337545333656 13.682076522166451 -0.85716730853699208 0 0.51503806187062418 0.25751903093531209 0 0.42858365426849604 1 I I #
face $-1 $-1 $375 $54 $-1 $682 reversed single #
loop $-1 $-1 $526 $360 #
plane-surface $-1 0 40.057624202596131 0 0 -1 0 0 0 -1 forward_v I I I I #
coedge $-1 $683 $524 $527 $684 forward $361 $-1 #
coedge $-1 $530 $363 $364 $518 reversed $229 $-1 #
coedge $-1 $524 $683 $363 $516 reversed $361 $-1 #
edge $-1 $531 -15.345785244006125 $685 15.345785244006125 $515 $686 forward 7 unknown #
coedge $-1 $365 $364 $683 $687 forward $145 $-1 #
edge $-1 $522 -58.540604876857813 $685 58.540604876857813 $514 $688 forward 7 unknown #
coedge $-1 $527 $526 $365 $520 reversed $511 $-1 #
edge $-1 $689 -58.540604876857813 $521 58.540604876857813 $519 $690 forward 7 unknown #
vertex $-1 $367 $691 #
vertex $-1 $533 $692 #
straight-curve $-1 58.540604876857813 0 -15.345785244006125 0 -1 0 I I #
coedge $-1 $513 $515 $368 $525 reversed $361 $-1 #
edge $-1 $528 -40.057624202596131 $531 40.057624202596131 $524 $693 forward 7 unknown #
coedge $-1 $519 $369 $374 $534 forward $511 $-1 #
coedge $-1 $369 $519 $513 $684 reversed $511 $-1 #
vertex $-1 $370 $694 #
straight-curve $-1 0 40.057624202596131 15.345785244006125 -1 0 0 I I #
coedge $-1 $371 $514 $373 $533 reversed $229 $-1 #
vertex $-1 $525 $695 #
straight-curve $-1 0 -40.057624202596131 15.345785244006125 1 0 0 I I #
edge $-1 $376 -15.345785244006125 $522 15.345785244006125 $373 $696 forward 7 unknown #
edge $-1 $377 -15.345785244006125 $521 15.345785244006125 $374 $697 forward 7 unknown #
point $-1 58.540604876857813 -40.057624202596131 15.345785244006125 #
point $-1 58.540604876857813 40.057624202596131 15.345785244006125 #
face $-1 $-1 $698 $55 $-1 $699 reversed single #
loop $-1 $-1 $700 $379 #
plane-surface $-1 0 0 -15.345785244006125 0 0 1 1 0 0 forward_v I I I I #
coedge $-1 $547 $557 $542 $701 forward $380 $-1 #
coedge $-1 $385 $382 $700 $702 reversed $237 $-1 #
coedge $-1 $382 $385 $540 $701 reversed $237 $-1 #
coedge $-1 $703 $704 $382 $544 forward $698 $-1 #
edge $-1 $705 -15.345785244006125 $706 15.345785244006125 $543 $707 forward 7 unknown #
coedge $-1 $700 $388 $383 $546 forward $538 $-1 #
edge $-1 $393 -18.948673808869678 $550 -15.410998935485686 $545 $708 forward 7 unknown #
coedge $-1 $390 $540 $384 $548 forward $380 $-1 #
edge $-1 $549 15.410998935485686 $392 18.948673808869678 $547 $709 forward 7 unknown #
vertex $-1 $548 $710 #
vertex $-1 $546 $711 #
straight-curve $-1 -32.590835307663369 -23.133574565859639 0 0 0 -1 I I #
coedge $-1 $704 $703 $387 $553 forward $698 $-1 #
edge $-1 $558 -15.345785244006125 $555 15.345785244006125 $552 $712 forward 7 unknown #
coedge $-1 $388 $700 $704 $713 forward $538 $-1 #
vertex $-1 $389 $714 #
straight-curve $-1 -36.128510181047361 -15.797799692113943 -15.345785244006125 0 1 0 I I #
coedge $-1 $540 $390 $703 $715 forward $380 $-1 #
vertex $-1 $715 $716 #
straight-curve $-1 -36.128510181047361 -15.797799692113943 15.345785244006125 0 -1 0 I I #
point $-1 -36.128510181047361 -23.133574565859639 15.345785244006125 #
point $-1 -36.128510181047361 -23.133574565859639 -15.345785244006125 #
plane-surface $-1 0 0 15.345785244006125 0 0 1 1 0 0 forward_v I I I I #
coedge $-1 $573 $572 $565 $717 forward $396 $-1 #
coedge $-1 $565 $398 $400 $569 reversed $245 $-1 #
coedge $-1 $398 $564 $563 $717 reversed $245 $-1 #
coedge $-1 $406 $401 $398 $567 forward $407 $-1 #
edge $-1 $570 7.2425353564358232 $718 9.2418493925160377 $566 $719 forward 7 unknown #
coedge $-1 $400 $399 $573 $720 reversed $153 $-1 #
edge $-1 $721 -117.08120975371563 $570 -113.19933347292451 $564 $722 forward 7 unknown #
vertex $-1 $402 $723 #
straight-curve $-1 56.541290840777584 2.2562271820074287 15.345785244006123 0 -1 0 I I #
coedge $-1 $563 $403 $406 $577 reversed $396 $-1 #
coedge $-1 $403 $563 $568 $720 forward $396 $-1 #
vertex $-1 $404 $724 #
straight-curve $-1 58.540604876857813 8.4620248183682456 86.338916299097974 0 0 1 I I #
straight-curve $-1 -1.7606744761638993 8.4620248183682456 112.37655324517424 0.51503806187062418 0 -0.85716730853699208 I I #
edge $-1 $718 0.56288390966146906 $408 8.4620248183682456 $572 $725 forward 7 unknown #
point $-1 58.540604876857813 8.4620248183682456 15.345785244006125 #
point $-1 56.541290840777599 8.4620248183682456 15.345785244006123 #
edge $-1 $726 1 $726 0 $411 $-1 forward 7 unknown #
vertex $-1 $412 $727 #
ellipse-curve $-1 56.683780550280716 2.1427120914028279 13.167038460295833 0.85716730853699208 0 0.51503806187062418 0.25751903093531209 0 -0.42858365426849604 1 I I #
point $-1 57.798466889753023 2.1427120914028279 13.253492867897961 #
edge $-1 $728 1 $728 0 $415 $-1 forward 7 unknown #
vertex $-1 $416 $729 #
ellipse-curve $-1 56.683780550280716 4.5124543640148573 13.167038460295833 0.85716730853699208 0 0.51503806187062418 0.25751903093531209 0 -0.42858365426849604 1 I I #
point $-1 57.798466889753023 4.5124543640148573 13.253492867897961 #
edge $-1 $730 1 $730 0 $419 $-1 forward 7 unknown #
vertex $-1 $420 $731 #
ellipse-curve $-1 56.683780550280716 6.8821966366268867 13.167038460295833 0.85716730853699208 0 0.51503806187062418 0.25751903093531209 0 -0.42858365426849604 1 I I #
point $-1 57.798466889753023 6.8821966366268867 13.253492867897961 #
loop $-1 $-1 $432 $423 #
plane-surface $-1 0 0 15.345785244006125 0 0 1 1 0 0 forward_v I I I I #
coedge $-1 $426 $598 $435 $606 forward $274 $-1 #
edge $-1 $603 113.19933347292451 $599 117.08120975371563 $427 $732 forward 7 unknown #
coedge $-1 $432 $733 $428 $597 forward $592 $-1 #
edge $-1 $600 -9.2418493925160377 $603 -7.2425353564358232 $596 $734 forward 7 unknown #
coedge $-1 $594 $429 $733 $735 reversed $274 $-1 #
vertex $-1 $430 $736 #
vertex $-1 $430 $737 #
straight-curve $-1 58.540604876857813 16.361165727075015 86.338916299097974 0 0 1 I I #
coedge $-1 $733 $432 $436 $607 forward $592 $-1 #
vertex $-1 $597 $738 #
straight-curve $-1 56.541290840777584 2.2562271820074287 15.345785244006123 0 -1 0 I I #
straight-curve $-1 58.540604876857813 2.2562271820074287 12.018367800326793 0 1 0 I I #
edge $-1 $739 70.993131055091851 $438 74.320548498771174 $594 $740 forward 7 unknown #
edge $-1 $437 7.2425353564358232 $739 9.2418493925160377 $602 $741 forward 7 unknown #
point $-1 56.541290840777599 8.4620248183682456 15.345785244006123 #
point $-1 58.540604876857813 8.4620248183682456 12.0183678003268 #
edge $-1 $742 1 $742 0 $440 $-1 forward 7 unknown #
vertex $-1 $441 $743 #
ellipse-curve $-1 56.683780550280716 10.041853000109597 13.167038460295833 0.85716730853699208 0 0.51503806187062418 0.25751903093531209 0 -0.42858365426849604 1 I I #
point $-1 57.798466889753023 10.041853000109597 13.253492867897961 #
edge $-1 $744 1 $744 0 $444 $-1 forward 7 unknown #
vertex $-1 $445 $745 #
ellipse-curve $-1 56.683780550280716 12.411595272721627 13.167038460295833 0.85716730853699208 0 0.51503806187062418 0.25751903093531209 0 -0.42858365426849604 1 I I #
point $-1 57.798466889753023 12.411595272721627 13.253492867897961 #
edge $-1 $746 1 $746 0 $448 $-1 forward 7 unknown #
vertex $-1 $449 $747 #
ellipse-curve $-1 56.683780550280716 14.781337545333656 13.167038460295833 0.85716730853699208 0 0.51503806187062418 0.25751903093531209 0 -0.42858365426849604 1 I I #
point $-1 57.798466889753023 14.781337545333656 13.253492867897961 #
plane-surface $-1 0 0 15.345785244006125 0 0 1 1 0 0 forward_v I I I I #
coedge $-1 $633 $632 $625 $748 forward $453 $-1 #
coedge $-1 $625 $455 $457 $629 reversed $303 $-1 #
coedge $-1 $455 $624 $623 $748 reversed $303 $-1 #
coedge $-1 $463 $458 $455 $627 forward $464 $-1 #
edge $-1 $630 -22.90810432007504 $749 -20.908790283994819 $626 $750 forward 7 unknown #
coedge $-1 $457 $456 $633 $751 reversed $191 $-1 #
edge $-1 $752 0 $630 3.8818762807911513 $624 $753 forward 7 unknown #
vertex $-1 $459 $754 #
straight-curve $-1 -56.541290840777577 2.2562271820074287 15.345785244006125 0 1 0 I I #
coedge $-1 $623 $460 $463 $637 reversed $453 $-1 #
coedge $-1 $460 $623 $628 $751 forward $453 $-1 #
vertex $-1 $461 $755 #
straight-curve $-1 -58.540604876857813 0.56288390966146906 36.159823576674249 0 0 1 I I #
straight-curve $-1 -58.540604876857813 0.56288390966146906 12.018367800326786 -0.51503806187062418 0 -0.85716730853699208 I I #
edge $-1 $749 -8.4620248183682456 $465 -0.56288390966146906 $632 $756 forward 7 unknown #
point $-1 -58.540604876857813 0.56288390966146906 15.345785244006125 #
point $-1 -56.541290840777592 0.56288390966146906 15.345785244006125 #
edge $-1 $757 1 $757 0 $468 $-1 forward 7 unknown #
vertex $-1 $469 $758 #
ellipse-curve $-1 -56.683780550280709 2.1427120914028279 13.167038460295826 -0.85716730853699208 0 0.51503806187062418 0.25751903093531209 0 0.42858365426849604 1 I I #
point $-1 -57.283428827882389 2.1427120914028279 14.110660176434946 #
edge $-1 $759 1 $759 0 $472 $-1 forward 7 unknown #
vertex $-1 $473 $760 #
ellipse-curve $-1 -56.683780550280709 4.5124543640148573 13.167038460295826 -0.85716730853699208 0 0.51503806187062418 0.25751903093531209 0 0.42858365426849604 1 I I #
point $-1 -57.283428827882389 4.5124543640148573 14.110660176434946 #
edge $-1 $761 1 $761 0 $476 $-1 forward 7 unknown #
vertex $-1 $477 $762 #
ellipse-curve $-1 -56.683780550280709 6.8821966366268867 13.167038460295826 -0.85716730853699208 0 0.51503806187062418 0.25751903093531209 0 0.42858365426849604 1 I I #
point $-1 -57.283428827882389 6.8821966366268867 14.110660176434946 #
loop $-1 $-1 $486 $480 #
plane-surface $-1 0 0 15.345785244006125 0 0 1 1 0 0 forward_v I I I I #
coedge $-1 $483 $661 $657 $763 reversed $332 $-1 #
edge $-1 $659 20.814038332668126 $662 24.141455776347463 $483 $764 forward 7 unknown #
edge $-1 $662 0 $658 3.8818762807911513 $484 $765 forward 7 unknown #
coedge $-1 $664 $486 $654 $763 forward $652 $-1 #
vertex $-1 $487 $766 #
vertex $-1 $763 $767 #
straight-curve $-1 -79.449395160852632 16.361165727075015 15.345785244006123 -1 0 0 I I #
coedge $-1 $654 $489 $494 $667 forward $332 $-1 #
vertex $-1 $655 $768 #
straight-curve $-1 -58.540604876857813 2.2562271820074287 12.018367800326789 0 -1 0 I I #
coedge $-1 $491 $657 $493 $666 forward $652 $-1 #
straight-curve $-1 -56.541290840777577 2.2562271820074287 15.345785244006125 0 1 0 I I #
edge $-1 $769 20.908790283994819 $496 22.90810432007504 $664 $770 forward 7 unknown #
edge $-1 $495 -24.141455776347463 $769 -20.814038332668126 $661 $771 forward 7 unknown #
point $-1 -58.540604876857813 8.4620248183682456 12.018367800326786 #
point $-1 -56.541290840777592 8.4620248183682456 15.345785244006125 #
edge $-1 $772 1 $772 0 $498 $-1 forward 7 unknown #
vertex $-1 $499 $773 #
ellipse-curve $-1 -56.683780550280709 10.041853000109597 13.167038460295826 -0.85716730853699208 0 0.51503806187062418 0.25751903093531209 0 0.42858365426849604 1 I I #
point $-1 -57.283428827882389 10.041853000109597 14.110660176434946 #
edge $-1 $774 1 $774 0 $502 $-1 forward 7 unknown #
vertex $-1 $503 $775 #
ellipse-curve $-1 -56.683780550280709 12.411595272721627 13.167038460295826 -0.85716730853699208 0 0.51503806187062418 0.25751903093531209 0 0.42858365426849604 1 I I #
point $-1 -57.283428827882389 12.411595272721627 14.110660176434946 #
edge $-1 $776 1 $776 0 $506 $-1 forward 7 unknown #
vertex $-1 $507 $777 #
ellipse-curve $-1 -56.683780550280709 14.781337545333656 13.167038460295826 -0.85716730853699208 0 0.51503806187062418 0.25751903093531209 0 0.42858365426849604 1 I I #
point $-1 -57.283428827882389 14.781337545333656 14.110660176434946 #
plane-surface $-1 58.540604876857813 0 0 -1 0 0 0 0 1 forward_v I I I I #
coedge $-1 $515 $513 $517 $687 reversed $361 $-1 #
edge $-1 $528 -15.345785244006125 $689 15.345785244006125 $527 $778 forward 7 unknown #
vertex $-1 $687 $779 #
straight-curve $-1 -58.540604876857813 -40.057624202596131 0 0 0 -1 I I #
edge $-1 $685 -40.057624202596131 $689 40.057624202596131 $683 $780 forward 7 unknown #
straight-curve $-1 0 -40.057624202596131 -15.345785244006125 -1 0 0 I I #
vertex $-1 $520 $781 #
straight-curve $-1 0 40.057624202596131 -15.345785244006125 1 0 0 I I #
point $-1 58.540604876857813 40.057624202596131 -15.345785244006125 #
point $-1 58.540604876857813 -40.057624202596131 -15.345785244006125 #
straight-curve $-1 -58.540604876857813 0 15.345785244006125 0 -1 0 I I #
point $-1 -58.540604876857813 40.057624202596131 15.345785244006125 #
point $-1 -58.540604876857813 -40.057624202596131 15.345785244006125 #
straight-curve $-1 58.540604876857813 -40.057624202596131 0 0 0 -1 I I #
straight-curve $-1 58.540604876857813 40.057624202596131 0 0 0 -1 I I #
loop $-1 $-1 $543 $537 #
plane-surface $-1 0 -40.057624202596131 0 0 1 0 0 0 1 forward_v I I I I #
coedge $-1 $554 $545 $541 $702 forward $538 $-1 #
edge $-1 $706 -24.25982451048219 $549 -7.3357748737456969 $540 $782 forward 7 unknown #
edge $-1 $550 7.3357748737456969 $705 24.25982451048219 $700 $783 forward 7 unknown #
coedge $-1 $552 $543 $557 $715 reversed $698 $-1 #
coedge $-1 $543 $552 $554 $713 reversed $698 $-1 #
vertex $-1 $713 $784 #
vertex $-1 $544 $785 #
straight-curve $-1 -32.590835307663369 -40.057624202596131 0 0 0 1 I I #
straight-curve $-1 -17.179836372177682 -23.133574565859639 -15.345785244006125 1 0 0 I I #
straight-curve $-1 -17.179836372177682 -23.133574565859639 15.345785244006125 -1 0 0 I I #
point $-1 -32.590835307663369 -23.133574565859639 15.345785244006125 #
point $-1 -32.590835307663369 -23.133574565859639 -15.345785244006125 #
straight-curve $-1 -36.128510181047361 -40.057624202596131 0 0 0 -1 I I #
edge $-1 $705 32.590835307663369 $555 36.128510181047361 $704 $786 forward 7 unknown #
point $-1 -36.128510181047361 -40.057624202596131 -15.345785244006125 #
edge $-1 $558 -36.128510181047361 $706 -32.590835307663369 $703 $787 forward 7 unknown #
point $-1 -36.128510181047361 -40.057624202596131 15.345785244006125 #
edge $-1 $718 70.993131055091851 $721 74.320548498771174 $563 $788 forward 7 unknown #
vertex $-1 $577 $789 #
straight-curve $-1 49.298755484341775 0.56288390966146906 15.345785244006123 1 0 0 I I #
edge $-1 $721 -1.6933432723459596 $574 6.2057976363608169 $573 $790 forward 7 unknown #
vertex $-1 $720 $791 #
straight-curve $-1 -1.7606744761638993 0.56288390966146906 112.37655324517424 -0.51503806187062418 0 0.85716730853699208 I I #
point $-1 56.541290840777599 0.56288390966146906 15.345785244006123 #
point $-1 58.540604876857813 8.4620248183682456 12.0183678003268 #
straight-curve $-1 58.540604876857813 0 15.345785244006125 0 1 0 I I #
vertex $-1 $580 $792 #
point $-1 56.941299581216029 2.1427120914028279 12.738454806027336 #
vertex $-1 $584 $793 #
point $-1 56.941299581216029 4.5124543640148573 12.738454806027336 #
vertex $-1 $588 $794 #
point $-1 56.941299581216029 6.8821966366268867 12.738454806027336 #
straight-curve $-1 -1.7606744761638993 16.361165727075015 112.37655324517424 0.51503806187062418 0 -0.85716730853699208 I I #
coedge $-1 $596 $602 $598 $735 forward $592 $-1 #
straight-curve $-1 49.298755484341775 16.361165727075015 15.345785244006123 -1 0 0 I I #
edge $-1 $739 8.4620248183682456 $600 16.361165727075015 $598 $795 forward 7 unknown #
point $-1 58.540604876857813 16.361165727075015 12.0183678003268 #
point $-1 58.540604876857813 16.361165727075015 15.345785244006125 #
point $-1 56.541290840777599 16.361165727075015 15.345785244006123 #
vertex $-1 $735 $796 #
straight-curve $-1 58.540604876857813 8.4620248183682456 86.338916299097974 0 0 -1 I I #
straight-curve $-1 49.298755484341775 8.4620248183682456 15.345785244006123 1 0 0 I I #
vertex $-1 $610 $797 #
point $-1 56.941299581216029 10.041853000109597 12.738454806027336 #
vertex $-1 $614 $798 #
point $-1 56.941299581216029 12.411595272721627 12.738454806027336 #
vertex $-1 $618 $799 #
point $-1 56.941299581216029 14.781337545333656 12.738454806027336 #
edge $-1 $749 20.814038332668126 $752 24.141455776347463 $623 $800 forward 7 unknown #
vertex $-1 $637 $801 #
straight-curve $-1 -79.449395160852632 8.4620248183682456 15.345785244006123 -1 0 0 I I #
edge $-1 $752 -6.2057976363608169 $634 1.6933432723459596 $633 $802 forward 7 unknown #
vertex $-1 $751 $803 #
straight-curve $-1 -58.540604876857813 8.4620248183682456 12.018367800326786 0.51503806187062418 0 0.85716730853699208 I I #
point $-1 -56.541290840777592 8.4620248183682456 15.345785244006125 #
point $-1 -58.540604876857813 0.56288390966146906 12.018367800326786 #
straight-curve $-1 -58.540604876857813 0 15.345785244006125 0 -1 0 I I #
vertex $-1 $640 $804 #
point $-1 -56.426261519345395 2.1427120914028279 13.595622114564321 #
vertex $-1 $644 $805 #
point $-1 -56.426261519345395 4.5124543640148573 13.595622114564321 #
vertex $-1 $648 $806 #
point $-1 -56.426261519345395 6.8821966366268867 13.595622114564321 #
edge $-1 $659 -16.361165727075015 $769 -8.4620248183682456 $654 $807 forward 7 unknown #
straight-curve $-1 -58.540604876857813 16.361165727075015 36.159823576674249 0 0 -1 I I #
straight-curve $-1 -58.540604876857813 16.361165727075015 12.018367800326786 0.51503806187062418 0 0.85716730853699208 I I #
point $-1 -56.541290840777592 16.361165727075015 15.345785244006125 #
point $-1 -58.540604876857813 16.361165727075015 15.345785244006125 #
point $-1 -58.540604876857813 16.361165727075015 12.018367800326786 #
vertex $-1 $667 $808 #
straight-curve $-1 -79.449395160852632 8.4620248183682456 15.345785244006123 1 0 0 I I #
straight-curve $-1 -58.540604876857813 8.4620248183682456 36.159823576674249 0 0 1 I I #
vertex $-1 $670 $809 #
point $-1 -56.426261519345395 10.041853000109597 13.595622114564321 #
vertex $-1 $674 $810 #
point $-1 -56.426261519345395 12.411595272721627 13.595622114564321 #
vertex $-1 $678 $811 #
point $-1 -56.426261519345395 14.781337545333656 13.595622114564321 #
straight-curve $-1 -58.540604876857813 40.057624202596131 0 0 0 -1 I I #
point $-1 -58.540604876857813 -40.057624202596131 -15.345785244006125 #
straight-curve $-1 -58.540604876857813 0 -15.345785244006125 0 1 0 I I #
point $-1 -58.540604876857813 40.057624202596131 -15.345785244006125 #
straight-curve $-1 -32.590835307663369 -15.797799692113943 15.345785244006125 0 1 0 I I #
straight-curve $-1 -32.590835307663369 -15.797799692113943 -15.345785244006125 0 -1 0 I I #
point $-1 -32.590835307663369 -40.057624202596131 -15.345785244006125 #
point $-1 -32.590835307663369 -40.057624202596131 15.345785244006125 #
straight-curve $-1 0 -40.057624202596131 -15.345785244006125 -1 0 0 I I #
straight-curve $-1 0 -40.057624202596131 15.345785244006125 1 0 0 I I #
straight-curve $-1 58.540604876857813 0.56288390966146906 86.338916299097974 0 0 -1 I I #
point $-1 58.540604876857813 0.56288390966146906 15.345785244006125 #
straight-curve $-1 58.540604876857813 2.2562271820074287 12.018367800326793 0 1 0 I I #
point $-1 58.540604876857813 0.56288390966146906 12.0183678003268 #
point $-1 56.255196896012222 2.1427120914028279 12.90951942936052 #
point $-1 56.255196896012222 4.5124543640148573 12.90951942936052 #
point $-1 56.255196896012222 6.8821966366268867 12.90951942936052 #
straight-curve $-1 58.540604876857813 0 15.345785244006125 0 1 0 I I #
point $-1 58.540604876857813 8.4620248183682456 15.345785244006125 #
point $-1 56.255196896012222 10.041853000109597 12.90951942936052 #
point $-1 56.255196896012222 12.411595272721627 12.90951942936052 #
point $-1 56.255196896012222 14.781337545333656 12.90951942936052 #
straight-curve $-1 -58.540604876857813 8.4620248183682456 36.159823576674249 0 0 -1 I I #
point $-1 -58.540604876857813 8.4620248183682456 15.345785244006125 #
straight-curve $-1 -58.540604876857813 2.2562271820074287 12.018367800326789 0 -1 0 I I #
point $-1 -58.540604876857813 8.4620248183682456 12.018367800326786 #
point $-1 -56.255196896012215 2.1427120914028279 12.909519429360513 #
point $-1 -56.255196896012215 4.5124543640148573 12.909519429360513 #
point $-1 -56.255196896012215 6.8821966366268867 12.909519429360513 #
straight-curve $-1 -58.540604876857813 0 15.345785244006125 0 -1 0 I I #
point $-1 -58.540604876857813 8.4620248183682456 15.345785244006125 #
point $-1 -56.255196896012215 10.041853000109597 12.909519429360513 #
point $-1 -56.255196896012215 12.411595272721627 12.909519429360513 #
point $-1 -56.255196896012215 14.781337545333656 12.909519429360513 #
End-of-ACIS-data 