500 0 4 0           
7 Unknown 11 ACIS 5.0 NT 24 Fri Mar 26 19:58:18 1999 
-1 9.9999999999999995e-007 1e-010 
body $-1 $4 $-1 $5 #
body $-1 $6 $-1 $7 #
body $-1 $8 $-1 $9 #
body $-1 $10 $-1 $11 #
lump $-1 $-1 $12 $0 #
transform $-1 1 0 0 0 1 0 0 0 1 70.585650196844384 41.652362331343234 19.038029119664948 1 rotate no_reflect no_shear #
lump $-1 $-1 $13 $1 #
transform $-1 1 0 0 0 1 0 0 0 1 70.585650196844384 41.652362331343234 19.038029119664948 1 rotate no_reflect no_shear #
lump $-1 $-1 $14 $2 #
transform $-1 1 0 0 0 1 0 0 0 1 70.585650196844384 41.652362331343234 19.038029119664948 1 rotate no_reflect no_shear #
lump $-1 $-1 $15 $3 #
transform $-1 1 0 0 0 1 0 0 0 1 70.585650196844384 41.652362331343234 19.038029119664948 1 rotate no_reflect no_shear #
shell $-1 $-1 $-1 $16 $-1 $4 #
shell $-1 $-1 $-1 $17 $-1 $6 #
shell $-1 $-1 $-1 $18 $-1 $8 #
shell $-1 $-1 $-1 $19 $-1 $10 #
face $-1 $20 $21 $12 $-1 $22 forward single #
face $-1 $23 $24 $13 $-1 $25 reversed single #
face $-1 $26 $27 $14 $-1 $28 forward single #
face $-1 $29 $30 $15 $-1 $31 reversed single #
face $-1 $32 $33 $12 $-1 $34 reversed single #
loop $-1 $-1 $35 $16 #
plane-surface $-1 0 0 19.038029119664948 0 0 1 1 0 0 forward_v I I I I #
face $-1 $36 $37 $13 $-1 $38 reversed single #
loop $-1 $-1 $39 $17 #
plane-surface $-1 0 -49.882162950506263 9.1074835675091421 0 0 1 1 0 0 forward_v I I I I #
face $-1 $40 $41 $14 $-1 $42 forward single #
loop $-1 $-1 $43 $18 #
plane-surface $-1 81.034336224879823 26.356136862176172 208.05914792688804 0 1 0 0.74314483375859142 0 0.66913059716165679 forward_v I I I I #
face $-1 $44 $45 $15 $-1 $46 reversed single #
loop $-1 $47 $48 $19 #
cone-surface $-1 64.581244141627607 34.004249596759699 12.651996836161004 -0.74314483375859142 0 -0.66913059716165679 1.0036958957424851 0 -1.1147172506378871 1 I I 0 1 1.5 forward I I I I #
face $-1 $49 $50 $12 $-1 $51 reversed single #
loop $-1 $-1 $52 $20 #
plane-surface $-1 0 0 -19.038029119664948 0 0 1 1 0 0 forward_v I I I I #
coedge $-1 $53 $54 $55 $56 forward $21 $-1 #
face $-1 $57 $58 $13 $-1 $59 forward single #
loop $-1 $-1 $60 $23 #
plane-surface $-1 0 -58.111963569669292 14.072756343587045 0 1 0 0 0 1 forward_v I I I I #
coedge $-1 $61 $62 $63 $64 forward $24 $-1 #
face $-1 $65 $66 $14 $-1 $67 reversed single #
loop $-1 $-1 $68 $26 #
plane-surface $-1 -23.876386337672187 34.004249596759699 113.59711139237145 0.74314483375859142 0 0.66913059716165679 0.66913059716165679 0 -0.74314483375859142 forward_v I I I I #
coedge $-1 $69 $70 $71 $72 reversed $27 $-1 #
face $-1 $73 $74 $15 $-1 $75 forward single #
loop $-1 $76 $77 $29 #
cone-surface $-1 62.679808736150207 34.004249596759699 10.939936749708572 -0.74314483375859142 0 -0.66913059716165679 0.50184794787124254 0 -0.55735862531894353 1 I I -0.70710678118654757 0.70710678118654757 0.75 forward I I I I #
loop $-1 $-1 $78 $19 #
coedge $-1 $48 $48 $79 $80 reversed $30 $-1 #
face $-1 $81 $82 $12 $-1 $83 reversed single #
loop $-1 $-1 $84 $32 #
plane-surface $-1 0 -41.652362331343234 0 0 1 0 0 0 1 forward_v I I I I #
coedge $-1 $85 $86 $87 $88 forward $33 $-1 #
coedge $-1 $89 $35 $90 $91 forward $21 $-1 #
coedge $-1 $35 $89 $92 $93 forward $21 $-1 #
coedge $-1 $94 $95 $35 $56 reversed $96 $-1 #
edge $-1 $97 -41.652362331343234 $98 41.652362331343234 $55 $99 forward 7 unknown #
face $-1 $100 $101 $13 $-1 $102 reversed single #
loop $-1 $-1 $103 $36 #
plane-surface $-1 0 0 19.038029119664948 0 0 1 1 0 0 forward_v I I I I #
coedge $-1 $104 $105 $106 $107 forward $37 $-1 #
coedge $-1 $108 $39 $104 $109 forward $24 $-1 #
coedge $-1 $39 $108 $110 $111 reversed $24 $-1 #
coedge $-1 $112 $113 $39 $64 reversed $114 $-1 #
edge $-1 $115 -8.2298006191630293 $116 8.2298006191630293 $63 $117 forward 7 unknown #
face $-1 $118 $119 $14 $-1 $120 forward single #
loop $-1 $-1 $121 $40 #
plane-surface $-1 70.585650196844384 0 0 -1 0 0 0 0 1 forward_v I I I I #
coedge $-1 $122 $123 $121 $124 reversed $41 $-1 #
coedge $-1 $70 $43 $123 $125 forward $27 $-1 #
coedge $-1 $43 $69 $126 $127 reversed $27 $-1 #
coedge $-1 $128 $121 $43 $72 forward $66 $-1 #
edge $-1 $129 -95.343185133624544 $130 -84.991544843779081 $71 $131 forward 7 unknown #
face $-1 $132 $133 $15 $-1 $134 forward single #
loop $-1 $-1 $135 $44 #
plane-surface $-1 81.034336224879823 26.356136862176172 208.05914792688804 0 1 0 0.74314483375859142 0 0.66913059716165679 forward_v I I I I #
loop $-1 $-1 $136 $29 #
coedge $-1 $77 $77 $78 $137 forward $45 $-1 #
coedge $-1 $78 $78 $77 $137 reversed $47 $-1 #
coedge $-1 $79 $79 $48 $80 forward $133 $-1 #
edge $-1 $138 0 $138 6.2831853071796004 $79 $139 forward 7 unknown #
face $-1 $140 $141 $12 $-1 $142 reversed single #
loop $-1 $-1 $143 $49 #
plane-surface $-1 -70.585650196844384 0 0 1 0 0 0 0 -1 forward_v I I I I #
coedge $-1 $144 $92 $145 $146 forward $50 $-1 #
coedge $-1 $147 $52 $144 $148 forward $33 $-1 #
coedge $-1 $52 $147 $149 $150 forward $33 $-1 #
coedge $-1 $95 $94 $52 $88 reversed $96 $-1 #
edge $-1 $151 -41.652362331343234 $152 41.652362331343234 $87 $153 forward 7 unknown #
coedge $-1 $54 $53 $154 $155 forward $21 $-1 #
coedge $-1 $156 $157 $53 $91 reversed $141 $-1 #
edge $-1 $98 -70.585650196844384 $158 70.585650196844384 $90 $159 forward 7 unknown #
coedge $-1 $84 $160 $54 $93 reversed $50 $-1 #
edge $-1 $161 -70.585650196844384 $97 70.585650196844384 $92 $162 forward 7 unknown #
coedge $-1 $87 $55 $160 $163 forward $96 $-1 #
coedge $-1 $55 $87 $156 $164 reversed $96 $-1 #
loop $-1 $-1 $94 $140 #
vertex $-1 $56 $165 #
vertex $-1 $56 $166 #
straight-curve $-1 70.585650196844384 0 19.038029119664948 0 1 0 I I #
face $-1 $167 $168 $13 $-1 $169 reversed single #
loop $-1 $-1 $170 $57 #
plane-surface $-1 0 0 -19.038029119664948 0 0 1 1 0 0 forward_v I I I I #
coedge $-1 $171 $172 $173 $174 forward $58 $-1 #
coedge $-1 $175 $60 $61 $109 reversed $37 $-1 #
coedge $-1 $60 $175 $172 $176 reversed $37 $-1 #
coedge $-1 $177 $178 $60 $107 reversed $179 $-1 #
edge $-1 $180 -4.965272776077903 $181 4.965272776077903 $106 $182 forward 7 unknown #
coedge $-1 $62 $61 $178 $183 forward $24 $-1 #
edge $-1 $116 -70.585650196844384 $181 70.585650196844384 $104 $184 forward 7 unknown #
coedge $-1 $185 $186 $62 $111 forward $168 $-1 #
edge $-1 $115 -70.585650196844384 $187 70.585650196844384 $110 $188 forward 7 unknown #
coedge $-1 $189 $63 $186 $190 forward $114 $-1 #
coedge $-1 $63 $173 $175 $191 forward $114 $-1 #
loop $-1 $-1 $112 $192 #
vertex $-1 $190 $193 #
vertex $-1 $191 $194 #
straight-curve $-1 70.585650196844384 -49.882162950506263 9.1074835675091421 0 -1 0 I I #
face $-1 $195 $196 $14 $-1 $197 reversed single #
loop $-1 $-1 $126 $65 #
plane-surface $-1 0 0 19.038029119664948 0 0 1 1 0 0 forward_v I I I I #
coedge $-1 $71 $198 $68 $124 forward $66 $-1 #
coedge $-1 $199 $68 $200 $201 reversed $41 $-1 #
coedge $-1 $68 $199 $69 $125 reversed $41 $-1 #
edge $-1 $202 -24.650237532963384 $129 -9.354012063796322 $121 $203 forward 7 unknown #
edge $-1 $129 -141.17130039368868 $204 -127.24179456978334 $69 $205 forward 7 unknown #
coedge $-1 $206 $207 $70 $127 forward $119 $-1 #
edge $-1 $130 -30.068482084404472 $204 -20.747823534287896 $126 $208 forward 7 unknown #
coedge $-1 $209 $71 $207 $210 reversed $66 $-1 #
vertex $-1 $124 $211 #
vertex $-1 $127 $212 #
straight-curve $-1 70.585650196844384 26.356136862176172 104.02957396344402 0 0 1 I I #
face $-1 $213 $214 $15 $-1 $215 reversed single #
loop $-1 $216 $79 $73 #
plane-surface $-1 -23.876386337672187 34.004249596759699 113.59711139237145 0.74314483375859142 0 0.66913059716165679 0.66913059716165679 0 -0.74314483375859142 forward_v I I I I #
coedge $-1 $217 $218 $219 $220 reversed $74 $-1 #
coedge $-1 $136 $136 $-1 $221 forward $76 $-1 #
edge $-1 $222 0 $222 6.2831853071796004 $77 $223 forward 7 unknown #
vertex $-1 $80 $224 #
ellipse-curve $-1 65.925320921786096 34.004249596759699 13.862208974742217 -0.74314483375859142 0 -0.66913059716165679 1.0036958957424851 0 -1.1147172506378871 1 I I #
face $-1 $-1 $96 $12 $-1 $225 reversed single #
loop $-1 $-1 $156 $81 #
plane-surface $-1 0 41.652362331343234 0 0 -1 0 0 0 -1 forward_v I I I I #
coedge $-1 $226 $154 $157 $227 forward $82 $-1 #
coedge $-1 $160 $84 $85 $148 reversed $50 $-1 #
coedge $-1 $154 $226 $84 $146 reversed $82 $-1 #
edge $-1 $161 -19.038029119664948 $228 19.038029119664948 $145 $229 forward 7 unknown #
coedge $-1 $86 $85 $226 $230 forward $33 $-1 #
edge $-1 $152 -70.585650196844384 $228 70.585650196844384 $144 $231 forward 7 unknown #
coedge $-1 $157 $156 $86 $150 reversed $141 $-1 #
edge $-1 $232 -70.585650196844384 $151 70.585650196844384 $149 $233 forward 7 unknown #
vertex $-1 $88 $234 #
vertex $-1 $163 $235 #
straight-curve $-1 70.585650196844384 0 -19.038029119664948 0 -1 0 I I #
coedge $-1 $143 $145 $89 $155 reversed $82 $-1 #
edge $-1 $158 -41.652362331343234 $161 41.652362331343234 $154 $236 forward 7 unknown #
coedge $-1 $149 $90 $95 $164 forward $141 $-1 #
coedge $-1 $90 $149 $143 $227 reversed $141 $-1 #
vertex $-1 $91 $237 #
straight-curve $-1 0 41.652362331343234 19.038029119664948 -1 0 0 I I #
coedge $-1 $92 $144 $94 $163 reversed $50 $-1 #
vertex $-1 $155 $238 #
straight-curve $-1 0 -41.652362331343234 19.038029119664948 1 0 0 I I #
edge $-1 $97 -19.038029119664948 $152 19.038029119664948 $94 $239 forward 7 unknown #
edge $-1 $98 -19.038029119664948 $151 19.038029119664948 $95 $240 forward 7 unknown #
point $-1 70.585650196844384 -41.652362331343234 19.038029119664948 #
point $-1 70.585650196844384 41.652362331343234 19.038029119664948 #
face $-1 $241 $179 $13 $-1 $242 reversed single #
loop $-1 $-1 $110 $100 #
plane-surface $-1 0 -41.652362331343234 0 0 1 0 0 0 1 forward_v I I I I #
coedge $-1 $243 $244 $189 $245 forward $101 $-1 #
coedge $-1 $246 $103 $247 $248 forward $58 $-1 #
coedge $-1 $103 $246 $105 $176 forward $58 $-1 #
coedge $-1 $113 $249 $103 $174 reversed $114 $-1 #
edge $-1 $250 -58.111963569669292 $251 41.652362331343234 $173 $252 forward 7 unknown #
coedge $-1 $105 $104 $113 $191 reversed $37 $-1 #
edge $-1 $180 -70.585650196844384 $250 70.585650196844384 $105 $253 forward 7 unknown #
coedge $-1 $254 $106 $246 $255 reversed $179 $-1 #
coedge $-1 $106 $256 $108 $183 reversed $179 $-1 #
loop $-1 $-1 $254 $167 #
vertex $-1 $255 $257 #
vertex $-1 $183 $258 #
straight-curve $-1 -70.585650196844384 -58.111963569669292 14.072756343587045 0 0 -1 I I #
edge $-1 $181 -8.2298006191630293 $187 8.2298006191630293 $178 $259 forward 7 unknown #
straight-curve $-1 0 -58.111963569669292 9.1074835675091421 -1 0 0 I I #
coedge $-1 $260 $110 $256 $261 forward $168 $-1 #
coedge $-1 $110 $260 $112 $190 reversed $168 $-1 #
vertex $-1 $261 $262 #
straight-curve $-1 0 -41.652362331343234 9.1074835675091421 -1 0 0 I I #
coedge $-1 $249 $112 $170 $245 reversed $114 $-1 #
edge $-1 $115 -9.1074835675091421 $263 19.038029119664948 $112 $264 forward 7 unknown #
edge $-1 $250 -4.965272776077903 $116 4.965272776077903 $113 $265 forward 7 unknown #
face $-1 $-1 $114 $13 $-1 $266 reversed single #
point $-1 70.585650196844384 -41.652362331343234 9.1074835675091421 #
point $-1 70.585650196844384 -58.111963569669292 9.1074835675091421 #
face $-1 $267 $268 $14 $-1 $269 reversed single #
loop $-1 $-1 $270 $118 #
plane-surface $-1 0 -49.882162950506263 9.1074835675091421 0 0 1 1 0 0 forward_v I I I I #
coedge $-1 $121 $271 $272 $273 reversed $66 $-1 #
coedge $-1 $123 $122 $206 $274 reversed $41 $-1 #
coedge $-1 $272 $275 $122 $201 forward $276 $-1 #
edge $-1 $277 77.044031015118804 $202 90.973536839024149 $200 $278 forward 7 unknown #
vertex $-1 $273 $279 #
straight-curve $-1 70.585650196844384 17.00212479837985 8.686388829819478 0 -1 0 I I #
vertex $-1 $274 $280 #
straight-curve $-1 -23.876386337672187 26.356136862176172 113.59711139237145 -0.66913059716165679 0 0.74314483375859142 I I #
coedge $-1 $281 $126 $199 $274 forward $119 $-1 #
coedge $-1 $126 $282 $128 $210 forward $119 $-1 #
straight-curve $-1 40.517168112439911 26.356136862176172 19.038029119664941 -1 0 0 I I #
coedge $-1 $283 $128 $284 $285 forward $66 $-1 #
edge $-1 $286 -58.111963569669292 $130 26.356136862176172 $128 $287 forward 7 unknown #
point $-1 70.585650196844369 26.356136862176172 8.686388829819478 #
point $-1 70.585650196844384 26.356136862176172 19.038029119664948 #
face $-1 $288 $289 $15 $-1 $290 forward single #
loop $-1 $-1 $291 $132 #
plane-surface $-1 70.585650196844384 0 0 -1 0 0 0 0 1 forward_v I I I I #
loop $-1 $-1 $292 $73 #
coedge $-1 $218 $135 $293 $294 forward $74 $-1 #
coedge $-1 $135 $217 $295 $296 reversed $74 $-1 #
coedge $-1 $297 $291 $135 $220 forward $214 $-1 #
edge $-1 $298 -95.343185133624544 $299 -84.991544843779081 $219 $300 forward 7 unknown #
edge $-1 $301 1 $301 0 $136 $-1 forward 7 unknown #
vertex $-1 $137 $302 #
ellipse-curve $-1 63.237167361469147 34.004249596759699 11.441784697579815 0.74314483375859142 0 0.66913059716165679 1.0036958957424851 0 -1.1147172506378871 1 I I #
point $-1 66.929016817528549 34.004249596759699 12.747491724104306 #
plane-surface $-1 70.585650196844384 0 0 -1 0 0 0 0 1 forward_v I I I I #
coedge $-1 $145 $143 $147 $230 reversed $82 $-1 #
edge $-1 $158 -19.038029119664948 $232 19.038029119664948 $157 $303 forward 7 unknown #
vertex $-1 $230 $304 #
straight-curve $-1 -70.585650196844384 -41.652362331343234 0 0 0 -1 I I #
edge $-1 $228 -41.652362331343234 $232 41.652362331343234 $226 $305 forward 7 unknown #
straight-curve $-1 0 -41.652362331343234 -19.038029119664948 -1 0 0 I I #
vertex $-1 $150 $306 #
straight-curve $-1 0 41.652362331343234 -19.038029119664948 1 0 0 I I #
point $-1 70.585650196844384 41.652362331343234 -19.038029119664948 #
point $-1 70.585650196844384 -41.652362331343234 -19.038029119664948 #
straight-curve $-1 -70.585650196844384 0 19.038029119664948 0 -1 0 I I #
point $-1 -70.585650196844384 41.652362331343234 19.038029119664948 #
point $-1 -70.585650196844384 -41.652362331343234 19.038029119664948 #
straight-curve $-1 70.585650196844384 -41.652362331343234 0 0 0 -1 I I #
straight-curve $-1 70.585650196844384 41.652362331343234 0 0 0 -1 I I #
face $-1 $192 $307 $13 $-1 $308 reversed single #
plane-surface $-1 -70.585650196844384 0 0 1 0 0 0 0 -1 forward_v I I I I #
coedge $-1 $309 $170 $260 $310 forward $101 $-1 #
coedge $-1 $170 $309 $311 $312 forward $101 $-1 #
edge $-1 $313 -41.652362331343234 $263 41.652362331343234 $189 $314 forward 7 unknown #
coedge $-1 $172 $171 $177 $255 forward $58 $-1 #
coedge $-1 $315 $316 $171 $248 reversed $307 $-1 #
edge $-1 $251 -70.585650196844384 $317 70.585650196844384 $247 $318 forward 7 unknown #
coedge $-1 $173 $189 $315 $319 reversed $114 $-1 #
vertex $-1 $174 $320 #
vertex $-1 $174 $321 #
straight-curve $-1 70.585650196844384 0 19.038029119664948 0 1 0 I I #
straight-curve $-1 0 -58.111963569669292 19.038029119664948 1 0 0 I I #
coedge $-1 $322 $177 $316 $323 forward $179 $-1 #
edge $-1 $317 -41.652362331343234 $180 58.111963569669292 $177 $324 forward 7 unknown #
coedge $-1 $178 $322 $185 $261 reversed $179 $-1 #
point $-1 -70.585650196844384 -58.111963569669292 19.038029119664948 #
point $-1 -70.585650196844384 -58.111963569669292 9.1074835675091421 #
straight-curve $-1 -70.585650196844384 -49.882162950506263 9.1074835675091421 0 1 0 I I #
coedge $-1 $186 $185 $243 $310 reversed $168 $-1 #
edge $-1 $187 -9.1074835675091421 $325 19.038029119664948 $256 $326 forward 7 unknown #
point $-1 -70.585650196844384 -41.652362331343234 9.1074835675091421 #
vertex $-1 $190 $327 #
straight-curve $-1 70.585650196844384 -41.652362331343234 0 0 0 -1 I I #
straight-curve $-1 70.585650196844384 -58.111963569669292 14.072756343587045 0 0 -1 I I #
plane-surface $-1 70.585650196844384 0 0 -1 0 0 0 0 1 forward_v I I I I #
face $-1 $328 $329 $14 $-1 $330 reversed single #
loop $-1 $-1 $331 $195 #
plane-surface $-1 0 -58.111963569669292 14.072756343587045 0 1 0 0 0 1 forward_v I I I I #
coedge $-1 $332 $333 $283 $334 forward $196 $-1 #
coedge $-1 $198 $335 $336 $337 reversed $66 $-1 #
coedge $-1 $338 $200 $198 $273 forward $276 $-1 #
edge $-1 $202 -8.6863888298194833 $339 19.038029119664948 $198 $340 forward 7 unknown #
edge $-1 $204 9.354012063796322 $277 24.650237532963377 $206 $341 forward 7 unknown #
coedge $-1 $200 $342 $281 $343 reversed $276 $-1 #
loop $-1 $-1 $200 $344 #
vertex $-1 $343 $345 #
straight-curve $-1 9.7124731658401515 41.652362331343234 76.292902740487179 0.66913059716165679 0 -0.74314483375859142 I I #
point $-1 70.585650196844384 41.652362331343234 8.6863888298194833 #
point $-1 61.264991646727808 26.356136862176172 19.038029119664955 #
coedge $-1 $346 $206 $275 $343 forward $119 $-1 #
coedge $-1 $207 $346 $347 $348 forward $119 $-1 #
coedge $-1 $335 $209 $270 $334 reversed $66 $-1 #
coedge $-1 $347 $349 $209 $285 reversed $268 $-1 #
edge $-1 $286 -4.965272776077903 $350 4.965272776077903 $209 $351 forward 7 unknown #
vertex $-1 $210 $352 #
straight-curve $-1 70.585650196844384 0 19.038029119664948 0 1 0 I I #
face $-1 $353 $354 $15 $-1 $355 reversed single #
loop $-1 $-1 $295 $213 #
plane-surface $-1 0 0 19.038029119664948 0 0 1 1 0 0 forward_v I I I I #
coedge $-1 $219 $356 $292 $357 forward $214 $-1 #
coedge $-1 $358 $293 $291 $357 reversed $216 $-1 #
coedge $-1 $292 $359 $217 $294 reversed $216 $-1 #
edge $-1 $298 -141.17130039368868 $360 -127.24179456978334 $217 $361 forward 7 unknown #
coedge $-1 $362 $363 $218 $296 forward $289 $-1 #
edge $-1 $299 -30.068482084404472 $360 -20.747823534287896 $295 $364 forward 7 unknown #
coedge $-1 $365 $219 $363 $366 reversed $214 $-1 #
vertex $-1 $357 $367 #
vertex $-1 $296 $368 #
straight-curve $-1 70.585650196844384 26.356136862176172 104.02957396344402 0 0 1 I I #
vertex $-1 $221 $369 #
point $-1 64.240863257211629 34.004249596759699 10.327067446941928 #
straight-curve $-1 -70.585650196844384 41.652362331343234 0 0 0 -1 I I #
point $-1 -70.585650196844384 -41.652362331343234 -19.038029119664948 #
straight-curve $-1 -70.585650196844384 0 -19.038029119664948 0 1 0 I I #
point $-1 -70.585650196844384 41.652362331343234 -19.038029119664948 #
loop $-1 $-1 $315 $241 #
plane-surface $-1 0 41.652362331343234 0 0 -1 0 0 0 -1 forward_v I I I I #
coedge $-1 $244 $243 $322 $370 forward $101 $-1 #
edge $-1 $263 -70.585650196844384 $325 70.585650196844384 $260 $371 forward 7 unknown #
coedge $-1 $316 $315 $244 $312 reversed $307 $-1 #
edge $-1 $372 -70.585650196844384 $313 70.585650196844384 $311 $373 forward 7 unknown #
vertex $-1 $245 $374 #
straight-curve $-1 70.585650196844384 0 -19.038029119664948 0 -1 0 I I #
coedge $-1 $311 $247 $249 $319 forward $307 $-1 #
coedge $-1 $247 $311 $254 $323 reversed $307 $-1 #
vertex $-1 $248 $375 #
straight-curve $-1 0 41.652362331343234 19.038029119664948 -1 0 0 I I #
edge $-1 $251 -19.038029119664948 $313 19.038029119664948 $249 $376 forward 7 unknown #
point $-1 70.585650196844384 -58.111963569669292 19.038029119664948 #
point $-1 70.585650196844384 41.652362331343234 19.038029119664948 #
coedge $-1 $256 $254 $309 $370 reversed $179 $-1 #
edge $-1 $317 -19.038029119664948 $372 19.038029119664948 $316 $377 forward 7 unknown #
straight-curve $-1 -70.585650196844384 0 19.038029119664948 0 -1 0 I I #
vertex $-1 $370 $378 #
straight-curve $-1 -70.585650196844384 -41.652362331343234 0 0 0 -1 I I #
point $-1 70.585650196844384 -41.652362331343234 -19.038029119664948 #
face $-1 $379 $380 $14 $-1 $381 reversed single #
loop $-1 $-1 $336 $267 #
plane-surface $-1 0 0 -19.038029119664948 0 0 1 1 0 0 forward_v I I I I #
coedge $-1 $349 $347 $382 $383 forward $268 $-1 #
coedge $-1 $384 $270 $349 $385 forward $196 $-1 #
coedge $-1 $270 $384 $386 $387 reversed $196 $-1 #
edge $-1 $388 -8.2298006191630293 $350 8.2298006191630293 $283 $389 forward 7 unknown #
coedge $-1 $271 $283 $390 $391 forward $66 $-1 #
coedge $-1 $392 $393 $271 $337 forward $329 $-1 #
edge $-1 $339 -41.652362331343234 $394 41.652362331343234 $271 $395 forward 7 unknown #
coedge $-1 $342 $272 $393 $396 reversed $276 $-1 #
vertex $-1 $337 $397 #
straight-curve $-1 70.585650196844384 41.652362331343234 0 0 0 -1 I I #
straight-curve $-1 61.264991646727808 17.00212479837985 19.038029119664955 0 1 0 I I #
coedge $-1 $275 $338 $398 $399 reversed $276 $-1 #
edge $-1 $277 -61.264991646727808 $400 70.585650196844384 $275 $401 forward 7 unknown #
face $-1 $-1 $276 $14 $-1 $402 reversed single #
point $-1 61.264991646727808 41.652362331343227 19.038029119664955 #
coedge $-1 $282 $281 $403 $404 forward $119 $-1 #
coedge $-1 $331 $284 $282 $348 reversed $268 $-1 #
edge $-1 $405 -70.585650196844384 $286 70.585650196844384 $347 $406 forward 7 unknown #
coedge $-1 $284 $331 $332 $385 reversed $268 $-1 #
vertex $-1 $285 $407 #
straight-curve $-1 70.585650196844384 -58.111963569669292 14.072756343587045 0 0 -1 I I #
point $-1 70.585650196844384 -58.111963569669292 19.038029119664948 #
face $-1 $408 $409 $15 $-1 $410 reversed single #
loop $-1 $-1 $411 $288 #
plane-surface $-1 0 -49.882162950506263 9.1074835675091421 0 0 1 1 0 0 forward_v I I I I #
coedge $-1 $291 $412 $413 $414 reversed $214 $-1 #
edge $-1 $415 -24.650237532963384 $298 -9.354012063796322 $291 $416 forward 7 unknown #
coedge $-1 $359 $292 $417 $418 reversed $216 $-1 #
coedge $-1 $293 $358 $362 $419 reversed $216 $-1 #
vertex $-1 $419 $420 #
straight-curve $-1 -23.876386337672187 26.356136862176172 113.59711139237145 -0.66913059716165679 0 0.74314483375859142 I I #
coedge $-1 $421 $295 $359 $419 forward $289 $-1 #
coedge $-1 $295 $422 $297 $366 forward $289 $-1 #
straight-curve $-1 40.517168112439911 26.356136862176172 19.038029119664941 -1 0 0 I I #
coedge $-1 $423 $297 $424 $425 forward $214 $-1 #
edge $-1 $426 -58.111963569669292 $299 26.356136862176172 $297 $427 forward 7 unknown #
point $-1 70.585650196844369 26.356136862176172 8.686388829819478 #
point $-1 70.585650196844384 26.356136862176172 19.038029119664948 #
point $-1 62.122450110831267 34.004249596759699 10.438088801837329 #
edge $-1 $325 -41.652362331343234 $372 41.652362331343234 $322 $428 forward 7 unknown #
straight-curve $-1 0 -41.652362331343234 -19.038029119664948 -1 0 0 I I #
vertex $-1 $312 $429 #
straight-curve $-1 0 41.652362331343234 -19.038029119664948 1 0 0 I I #
point $-1 70.585650196844384 41.652362331343234 -19.038029119664948 #
point $-1 -70.585650196844384 41.652362331343234 19.038029119664948 #
straight-curve $-1 70.585650196844384 41.652362331343234 0 0 0 -1 I I #
straight-curve $-1 -70.585650196844384 41.652362331343234 0 0 0 -1 I I #
point $-1 -70.585650196844384 -41.652362331343234 -19.038029119664948 #
face $-1 $344 $430 $14 $-1 $431 reversed single #
loop $-1 $-1 $386 $328 #
plane-surface $-1 0 -41.652362331343234 0 0 1 0 0 0 1 forward_v I I I I #
coedge $-1 $403 $432 $331 $383 reversed $430 $-1 #
edge $-1 $405 -4.965272776077903 $433 4.965272776077903 $382 $434 forward 7 unknown #
coedge $-1 $333 $332 $432 $435 forward $196 $-1 #
edge $-1 $350 -70.585650196844384 $433 70.585650196844384 $349 $436 forward 7 unknown #
coedge $-1 $437 $390 $333 $387 forward $380 $-1 #
edge $-1 $388 -70.585650196844384 $438 70.585650196844384 $386 $439 forward 7 unknown #
vertex $-1 $391 $440 #
straight-curve $-1 70.585650196844384 -49.882162950506263 9.1074835675091421 0 -1 0 I I #
coedge $-1 $386 $441 $335 $391 reversed $380 $-1 #
edge $-1 $388 -9.1074835675091421 $394 19.038029119664948 $335 $442 forward 7 unknown #
coedge $-1 $443 $336 $441 $444 forward $329 $-1 #
coedge $-1 $336 $443 $338 $396 forward $329 $-1 #
vertex $-1 $391 $445 #
straight-curve $-1 70.585650196844384 0 -19.038029119664948 0 -1 0 I I #
edge $-1 $446 -70.585650196844384 $339 70.585650196844384 $338 $447 forward 7 unknown #
point $-1 70.585650196844384 41.652362331343234 -19.038029119664948 #
coedge $-1 $448 $403 $342 $399 forward $430 $-1 #
edge $-1 $400 -19.038029119664948 $446 19.038029119664948 $342 $449 forward 7 unknown #
vertex $-1 $343 $450 #
straight-curve $-1 0 41.652362331343234 19.038029119664948 -1 0 0 I I #
plane-surface $-1 0 41.652362331343234 0 0 -1 0 0 0 -1 forward_v I I I I #
coedge $-1 $398 $382 $346 $404 reversed $430 $-1 #
edge $-1 $400 -41.652362331343234 $405 58.111963569669292 $403 $451 forward 7 unknown #
vertex $-1 $404 $452 #
straight-curve $-1 0 -58.111963569669292 19.038029119664948 1 0 0 I I #
point $-1 70.585650196844384 -58.111963569669292 9.1074835675091421 #
face $-1 $453 $454 $15 $-1 $455 reversed single #
loop $-1 $-1 $456 $353 #
plane-surface $-1 0 -58.111963569669292 14.072756343587045 0 1 0 0 0 1 forward_v I I I I #
coedge $-1 $457 $458 $423 $459 forward $354 $-1 #
coedge $-1 $356 $460 $461 $462 reversed $214 $-1 #
coedge $-1 $463 $417 $356 $414 forward $464 $-1 #
edge $-1 $415 -8.6863888298194833 $465 19.038029119664948 $356 $466 forward 7 unknown #
vertex $-1 $414 $467 #
straight-curve $-1 70.585650196844384 17.00212479837985 8.686388829819478 0 -1 0 I I #
coedge $-1 $413 $468 $358 $418 forward $464 $-1 #
edge $-1 $469 77.044031015118804 $415 90.973536839024149 $417 $470 forward 7 unknown #
edge $-1 $360 9.354012063796322 $469 24.650237532963377 $362 $471 forward 7 unknown #
point $-1 61.264991646727808 26.356136862176172 19.038029119664955 #
coedge $-1 $472 $362 $468 $473 forward $289 $-1 #
coedge $-1 $363 $472 $474 $475 forward $289 $-1 #
coedge $-1 $460 $365 $411 $459 reversed $214 $-1 #
coedge $-1 $474 $476 $365 $425 reversed $409 $-1 #
edge $-1 $426 -4.965272776077903 $477 4.965272776077903 $365 $478 forward 7 unknown #
vertex $-1 $366 $479 #
straight-curve $-1 70.585650196844384 0 19.038029119664948 0 1 0 I I #
straight-curve $-1 -70.585650196844384 0 -19.038029119664948 0 1 0 I I #
point $-1 -70.585650196844384 41.652362331343234 -19.038029119664948 #
loop $-1 $-1 $398 $379 #
plane-surface $-1 -70.585650196844384 0 0 1 0 0 0 0 -1 forward_v I I I I #
coedge $-1 $382 $480 $384 $435 reversed $430 $-1 #
vertex $-1 $435 $481 #
straight-curve $-1 -70.585650196844384 -58.111963569669292 14.072756343587045 0 0 -1 I I #
edge $-1 $433 -8.2298006191630293 $438 8.2298006191630293 $432 $482 forward 7 unknown #
straight-curve $-1 0 -58.111963569669292 9.1074835675091421 -1 0 0 I I #
coedge $-1 $441 $386 $480 $483 forward $380 $-1 #
vertex $-1 $483 $484 #
straight-curve $-1 0 -41.652362331343234 9.1074835675091421 -1 0 0 I I #
point $-1 70.585650196844384 -41.652362331343234 9.1074835675091421 #
coedge $-1 $390 $437 $392 $444 reversed $380 $-1 #
straight-curve $-1 70.585650196844384 -41.652362331343234 0 0 0 -1 I I #
coedge $-1 $393 $392 $448 $485 forward $329 $-1 #
edge $-1 $394 -70.585650196844384 $486 70.585650196844384 $441 $487 forward 7 unknown #
point $-1 70.585650196844384 -41.652362331343234 -19.038029119664948 #
vertex $-1 $396 $488 #
straight-curve $-1 0 41.652362331343234 -19.038029119664948 1 0 0 I I #
coedge $-1 $480 $398 $443 $485 reversed $430 $-1 #
straight-curve $-1 -70.585650196844384 41.652362331343234 0 0 0 -1 I I #
point $-1 -70.585650196844384 41.652362331343234 19.038029119664948 #
straight-curve $-1 -70.585650196844384 0 19.038029119664948 0 -1 0 I I #
point $-1 -70.585650196844384 -58.111963569669292 19.038029119664948 #
face $-1 $489 $490 $15 $-1 $491 reversed single #
loop $-1 $-1 $461 $408 #
plane-surface $-1 0 0 -19.038029119664948 0 0 1 1 0 0 forward_v I I I I #
coedge $-1 $476 $474 $492 $493 forward $409 $-1 #
coedge $-1 $494 $411 $476 $495 forward $354 $-1 #
coedge $-1 $411 $494 $496 $497 reversed $354 $-1 #
edge $-1 $498 -8.2298006191630293 $477 8.2298006191630293 $423 $499 forward 7 unknown #
coedge $-1 $412 $423 $500 $501 forward $214 $-1 #
coedge $-1 $502 $503 $412 $462 forward $454 $-1 #
edge $-1 $465 -41.652362331343234 $504 41.652362331343234 $412 $505 forward 7 unknown #
coedge $-1 $506 $413 $503 $507 reversed $464 $-1 #
loop $-1 $-1 $417 $508 #
vertex $-1 $462 $509 #
straight-curve $-1 70.585650196844384 41.652362331343234 0 0 0 -1 I I #
point $-1 70.585650196844384 41.652362331343234 8.6863888298194833 #
coedge $-1 $417 $506 $421 $473 reversed $464 $-1 #
vertex $-1 $473 $510 #
straight-curve $-1 9.7124731658401515 41.652362331343234 76.292902740487179 0.66913059716165679 0 -0.74314483375859142 I I #
straight-curve $-1 61.264991646727808 17.00212479837985 19.038029119664955 0 1 0 I I #
coedge $-1 $422 $421 $511 $512 forward $289 $-1 #
edge $-1 $469 -61.264991646727808 $513 70.585650196844384 $468 $514 forward 7 unknown #
coedge $-1 $456 $424 $422 $475 reversed $409 $-1 #
edge $-1 $515 -70.585650196844384 $426 70.585650196844384 $474 $516 forward 7 unknown #
coedge $-1 $424 $456 $457 $495 reversed $409 $-1 #
vertex $-1 $425 $517 #
straight-curve $-1 70.585650196844384 -58.111963569669292 14.072756343587045 0 0 -1 I I #
point $-1 70.585650196844384 -58.111963569669292 19.038029119664948 #
coedge $-1 $432 $448 $437 $483 reversed $430 $-1 #
point $-1 -70.585650196844384 -58.111963569669292 9.1074835675091421 #
straight-curve $-1 -70.585650196844384 -49.882162950506263 9.1074835675091421 0 1 0 I I #
edge $-1 $438 -9.1074835675091421 $486 19.038029119664948 $480 $518 forward 7 unknown #
point $-1 -70.585650196844384 -41.652362331343234 9.1074835675091421 #
edge $-1 $486 -41.652362331343234 $446 41.652362331343234 $448 $519 forward 7 unknown #
vertex $-1 $485 $520 #
straight-curve $-1 0 -41.652362331343234 -19.038029119664948 -1 0 0 I I #
point $-1 -70.585650196844384 41.652362331343234 -19.038029119664948 #
face $-1 $508 $521 $15 $-1 $522 reversed single #
loop $-1 $-1 $496 $453 #
plane-surface $-1 0 -41.652362331343234 0 0 1 0 0 0 1 forward_v I I I I #
coedge $-1 $511 $523 $456 $493 reversed $521 $-1 #
edge $-1 $515 -4.965272776077903 $524 4.965272776077903 $492 $525 forward 7 unknown #
coedge $-1 $458 $457 $523 $526 forward $354 $-1 #
edge $-1 $477 -70.585650196844384 $524 70.585650196844384 $476 $527 forward 7 unknown #
coedge $-1 $528 $500 $458 $497 forward $490 $-1 #
edge $-1 $498 -70.585650196844384 $529 70.585650196844384 $496 $530 forward 7 unknown #
vertex $-1 $501 $531 #
straight-curve $-1 70.585650196844384 -49.882162950506263 9.1074835675091421 0 -1 0 I I #
coedge $-1 $496 $532 $460 $501 reversed $490 $-1 #
edge $-1 $498 -9.1074835675091421 $504 19.038029119664948 $460 $533 forward 7 unknown #
coedge $-1 $534 $461 $532 $535 forward $454 $-1 #
coedge $-1 $461 $534 $463 $507 forward $454 $-1 #
vertex $-1 $501 $536 #
straight-curve $-1 70.585650196844384 0 -19.038029119664948 0 -1 0 I I #
coedge $-1 $468 $463 $537 $538 reversed $464 $-1 #
edge $-1 $539 -70.585650196844384 $465 70.585650196844384 $463 $540 forward 7 unknown #
face $-1 $-1 $464 $15 $-1 $541 reversed single #
point $-1 70.585650196844384 41.652362331343234 -19.038029119664948 #
point $-1 61.264991646727808 41.652362331343227 19.038029119664955 #
coedge $-1 $537 $492 $472 $512 reversed $521 $-1 #
edge $-1 $513 -41.652362331343234 $515 58.111963569669292 $511 $542 forward 7 unknown #
vertex $-1 $473 $543 #
straight-curve $-1 0 41.652362331343234 19.038029119664948 -1 0 0 I I #
vertex $-1 $512 $544 #
straight-curve $-1 0 -58.111963569669292 19.038029119664948 1 0 0 I I #
point $-1 70.585650196844384 -58.111963569669292 9.1074835675091421 #
straight-curve $-1 -70.585650196844384 -41.652362331343234 0 0 0 -1 I I #
straight-curve $-1 -70.585650196844384 0 -19.038029119664948 0 1 0 I I #
point $-1 -70.585650196844384 -41.652362331343234 -19.038029119664948 #
loop $-1 $-1 $537 $489 #
plane-surface $-1 -70.585650196844384 0 0 1 0 0 0 0 -1 forward_v I I I I #
coedge $-1 $492 $545 $494 $526 reversed $521 $-1 #
vertex $-1 $526 $546 #
straight-curve $-1 -70.585650196844384 -58.111963569669292 14.072756343587045 0 0 -1 I I #
edge $-1 $524 -8.2298006191630293 $529 8.2298006191630293 $523 $547 forward 7 unknown #
straight-curve $-1 0 -58.111963569669292 9.1074835675091421 -1 0 0 I I #
coedge $-1 $532 $496 $545 $548 forward $490 $-1 #
vertex $-1 $548 $549 #
straight-curve $-1 0 -41.652362331343234 9.1074835675091421 -1 0 0 I I #
point $-1 70.585650196844384 -41.652362331343234 9.1074835675091421 #
coedge $-1 $500 $528 $502 $535 reversed $490 $-1 #
straight-curve $-1 70.585650196844384 -41.652362331343234 0 0 0 -1 I I #
coedge $-1 $503 $502 $550 $551 forward $454 $-1 #
edge $-1 $504 -70.585650196844384 $552 70.585650196844384 $532 $553 forward 7 unknown #
point $-1 70.585650196844384 -41.652362331343234 -19.038029119664948 #
coedge $-1 $550 $511 $506 $538 forward $521 $-1 #
edge $-1 $513 -19.038029119664948 $539 19.038029119664948 $506 $554 forward 7 unknown #
vertex $-1 $507 $555 #
straight-curve $-1 0 41.652362331343234 -19.038029119664948 1 0 0 I I #
plane-surface $-1 0 41.652362331343234 0 0 -1 0 0 0 -1 forward_v I I I I #
straight-curve $-1 -70.585650196844384 0 19.038029119664948 0 -1 0 I I #
point $-1 -70.585650196844384 41.652362331343234 19.038029119664948 #
point $-1 -70.585650196844384 -58.111963569669292 19.038029119664948 #
coedge $-1 $523 $550 $528 $548 reversed $521 $-1 #
point $-1 -70.585650196844384 -58.111963569669292 9.1074835675091421 #
straight-curve $-1 -70.585650196844384 -49.882162950506263 9.1074835675091421 0 1 0 I I #
edge $-1 $529 -9.1074835675091421 $552 19.038029119664948 $545 $556 forward 7 unknown #
point $-1 -70.585650196844384 -41.652362331343234 9.1074835675091421 #
coedge $-1 $545 $537 $534 $551 reversed $521 $-1 #
edge $-1 $552 -41.652362331343234 $539 41.652362331343234 $550 $557 forward 7 unknown #
vertex $-1 $551 $558 #
straight-curve $-1 0 -41.652362331343234 -19.038029119664948 -1 0 0 I I #
straight-curve $-1 -70.585650196844384 41.652362331343234 0 0 0 -1 I I #
point $-1 -70.585650196844384 41.652362331343234 -19.038029119664948 #
straight-curve $-1 -70.585650196844384 -41.652362331343234 0 0 0 -1 I I #
straight-curve $-1 -70.585650196844384 0 -19.038029119664948 0 1 0 I I #
point $-1 -70.585650196844384 -41.652362331343234 -19.038029119664948 #
End-of-ACIS-data 