500 0 8 0           
7 Unknown 11 ACIS 5.0 NT 24 Fri Mar 26 16:28:24 1999 
-1 9.9999999999999995e-007 1e-010 
body $-1 $8 $-1 $9 #
body $-1 $10 $-1 $11 #
body $-1 $12 $-1 $13 #
body $-1 $14 $-1 $15 #
body $-1 $16 $-1 $17 #
body $-1 $18 $-1 $19 #
body $-1 $20 $-1 $21 #
body $-1 $22 $-1 $23 #
lump $-1 $-1 $24 $0 #
transform $-1 1 0 0 0 1 0 0 0 1 79.218726157414466 50.998369554196231 24.702622212998939 1 rotate no_reflect no_shear #
lump $-1 $-1 $25 $1 #
transform $-1 1 0 0 0 1 0 0 0 1 79.218726157414466 50.998369554196231 24.702622212998939 1 rotate no_reflect no_shear #
lump $-1 $-1 $26 $2 #
transform $-1 1 0 0 0 1 0 0 0 1 79.218726157414466 50.998369554196231 24.702622212998939 1 rotate no_reflect no_shear #
lump $-1 $-1 $27 $3 #
transform $-1 1 0 0 0 1 0 0 0 1 79.218726157414466 50.998369554196231 24.702622212998939 1 rotate no_reflect no_shear #
lump $-1 $-1 $28 $4 #
transform $-1 1 0 0 0 1 0 0 0 1 79.218726157414466 50.998369554196231 24.702622212998939 1 rotate no_reflect no_shear #
lump $-1 $-1 $29 $5 #
transform $-1 1 0 0 0 1 0 0 0 1 79.218726157414466 50.998369554196231 24.702622212998939 1 rotate no_reflect no_shear #
lump $-1 $-1 $30 $6 #
transform $-1 1 0 0 0 1 0 0 0 1 79.218726157414466 50.998369554196231 24.702622212998939 1 rotate no_reflect no_shear #
lump $-1 $-1 $31 $7 #
transform $-1 1 0 0 0 1 0 0 0 1 79.218726157414466 50.998369554196231 24.702622212998939 1 rotate no_reflect no_shear #
shell $-1 $-1 $-1 $32 $-1 $8 #
shell $-1 $-1 $-1 $33 $-1 $10 #
shell $-1 $-1 $-1 $34 $-1 $12 #
shell $-1 $-1 $-1 $35 $-1 $14 #
shell $-1 $-1 $-1 $36 $-1 $16 #
shell $-1 $-1 $-1 $37 $-1 $18 #
shell $-1 $-1 $-1 $38 $-1 $20 #
shell $-1 $-1 $-1 $39 $-1 $22 #
face $-1 $40 $41 $24 $-1 $42 forward single #
face $-1 $43 $44 $25 $-1 $45 reversed single #
face $-1 $46 $47 $26 $-1 $48 reversed single #
face $-1 $49 $50 $27 $-1 $51 forward single #
face $-1 $52 $53 $28 $-1 $54 forward single #
face $-1 $55 $56 $29 $-1 $57 reversed single #
face $-1 $58 $59 $30 $-1 $60 forward single #
face $-1 $61 $62 $31 $-1 $63 forward single #
face $-1 $64 $65 $24 $-1 $66 reversed single #
loop $-1 $-1 $67 $32 #
plane-surface $-1 0 0 24.702622212998939 0 0 1 1 0 0 forward_v I I I I #
face $-1 $68 $69 $25 $-1 $70 reversed single #
loop $-1 $-1 $71 $33 #
plane-surface $-1 0 -40.89380818894935 11.387918640726244 0 0 1 1 0 0 forward_v I I I I #
face $-1 $72 $73 $26 $-1 $74 reversed single #
loop $-1 $-1 $75 $34 #
plane-surface $-1 -204.06914366336042 6.7702314095864544 116.0235502151022 0 1 0 -0.78801076186113728 0 0.61566146476048833 forward_v I I I I #
face $-1 $76 $77 $27 $-1 $78 forward single #
loop $-1 $79 $80 $35 #
cone-surface $-1 -75.332653074622868 10.615767325900713 20.454289563588809 0.78801076186113728 0 -0.61566146476048833 0.61566146476048833 0 0.78801076186113728 1 I I 0 1 1 forward I I I I #
face $-1 $81 $82 $28 $-1 $83 forward single #
loop $-1 $84 $85 $36 #
cone-surface $-1 -75.332653074622868 16.384071200372105 20.454289563588809 0.78801076186113728 0 -0.61566146476048833 0.61566146476048833 0 0.78801076186113728 1 I I 0 1 1 forward I I I I #
face $-1 $86 $87 $29 $-1 $88 reversed single #
loop $-1 $-1 $89 $37 #
plane-surface $-1 79.218728757133135 -12.884430741559441 227.59793337313511 0 -1 0 -0.70710678939079041 0 -0.70710677298230451 forward_v I I I I #
face $-1 $90 $91 $30 $-1 $92 forward single #
loop $-1 $93 $94 $38 #
cone-surface $-1 65.70517963603811 -25.673585085947323 11.189075513975048 -0.70710678939079041 0 -0.70710677298230451 1.7677669324557612 0 -1.7677669734769761 1 I I 0 1 2.5 forward I I I I #
face $-1 $95 $96 $31 $-1 $97 forward single #
loop $-1 $98 $99 $39 #
cone-surface $-1 65.70517963603811 -18.000092479314596 11.189075513975048 -0.70710678939079041 0 -0.70710677298230451 1.7677669324557612 0 -1.7677669734769761 1 I I 0 1 2.5 forward I I I I #
face $-1 $100 $101 $24 $-1 $102 reversed single #
loop $-1 $-1 $103 $40 #
plane-surface $-1 0 0 -24.702622212998939 0 0 1 1 0 0 forward_v I I I I #
coedge $-1 $104 $105 $106 $107 forward $41 $-1 #
face $-1 $108 $109 $25 $-1 $110 reversed single #
loop $-1 $-1 $111 $43 #
plane-surface $-1 0 -30.789246823702474 18.045270426862594 0 -1 0 0 0 -1 forward_v I I I I #
coedge $-1 $112 $113 $114 $115 reversed $44 $-1 #
face $-1 $116 $117 $26 $-1 $118 reversed single #
loop $-1 $-1 $119 $46 #
plane-surface $-1 -79.218726157414466 13.49991926313642 18.479716250034599 -0.78801076186113728 0 0.61566146476048833 0.61566146476048833 0 0.78801076186113728 forward_v I I I I #
coedge $-1 $120 $121 $122 $123 reversed $47 $-1 #
face $-1 $-1 $124 $27 $-1 $125 forward single #
loop $-1 $126 $127 $49 #
cone-surface $-1 -73.483508035703693 10.615767325900713 19.009579163280613 0.78801076186113728 0 -0.61566146476048833 0.30783073238024417 0 0.39400538093056864 1 I I -0.70710678118654746 0.70710678118654746 0.5 forward I I I I #
loop $-1 $-1 $128 $35 #
coedge $-1 $80 $80 $129 $130 reversed $50 $-1 #
face $-1 $-1 $131 $28 $-1 $132 forward single #
loop $-1 $133 $134 $52 #
cone-surface $-1 -73.483508035703693 16.384071200372105 19.009579163280613 0.78801076186113728 0 -0.61566146476048833 0.30783073238024417 0 0.39400538093056864 1 I I -0.70710678118654746 0.70710678118654746 0.5 forward I I I I #
loop $-1 $-1 $135 $36 #
coedge $-1 $85 $85 $136 $137 reversed $53 $-1 #
face $-1 $138 $139 $29 $-1 $140 forward single #
loop $-1 $-1 $141 $55 #
plane-surface $-1 -32.813469468462003 -21.836838782630959 115.56573774725867 0.70710678939079041 0 0.70710677298230451 0.70710677298230451 0 -0.70710678939079041 forward_v I I I I #
coedge $-1 $142 $143 $144 $145 reversed $56 $-1 #
face $-1 $-1 $146 $30 $-1 $147 forward single #
loop $-1 $148 $149 $58 #
cone-surface $-1 61.892290727975563 -25.673585085947323 7.376186694390988 -0.70710678939079041 0 -0.70710677298230451 0.88388346622788061 0 -0.88388348673848804 1 I I -0.70710678118654746 0.70710678118654746 1.25 forward I I I I #
loop $-1 $-1 $150 $38 #
coedge $-1 $94 $94 $151 $152 reversed $59 $-1 #
face $-1 $-1 $153 $31 $-1 $154 forward single #
loop $-1 $155 $156 $61 #
cone-surface $-1 61.892290727975563 -18.000092479314596 7.376186694390988 -0.70710678939079041 0 -0.70710677298230451 0.88388346622788061 0 -0.88388348673848804 1 I I -0.70710678118654746 0.70710678118654746 1.25 forward I I I I #
loop $-1 $-1 $157 $39 #
coedge $-1 $99 $99 $158 $159 reversed $62 $-1 #
face $-1 $160 $161 $24 $-1 $162 reversed single #
loop $-1 $-1 $163 $64 #
plane-surface $-1 0 -50.998369554196231 0 0 1 0 0 0 1 forward_v I I I I #
coedge $-1 $164 $165 $166 $167 forward $65 $-1 #
coedge $-1 $168 $67 $169 $170 forward $41 $-1 #
coedge $-1 $67 $168 $171 $172 forward $41 $-1 #
coedge $-1 $173 $174 $67 $107 reversed $175 $-1 #
edge $-1 $176 -50.998369554196231 $177 50.998369554196231 $106 $178 forward 7 unknown #
face $-1 $179 $180 $25 $-1 $181 reversed single #
loop $-1 $-1 $182 $68 #
plane-surface $-1 -79.218726157414466 0 0 1 0 0 0 0 -1 forward_v I I I I #
coedge $-1 $183 $184 $113 $185 reversed $69 $-1 #
coedge $-1 $186 $71 $187 $188 reversed $44 $-1 #
coedge $-1 $71 $186 $111 $185 forward $44 $-1 #
coedge $-1 $189 $190 $71 $115 forward $191 $-1 #
edge $-1 $192 -30.551465459721555 $193 -10.342342729227799 $114 $194 forward 7 unknown #
face $-1 $195 $196 $26 $-1 $197 forward single #
loop $-1 $-1 $198 $72 #
plane-surface $-1 -204.06914366336042 20.229607116686385 116.0235502151022 0 -1 0 0.78801076186113728 0 -0.61566146476048833 forward_v I I I I #
coedge $-1 $199 $200 $201 $202 reversed $73 $-1 #
coedge $-1 $121 $75 $203 $204 reversed $47 $-1 #
coedge $-1 $75 $120 $199 $205 reversed $47 $-1 #
coedge $-1 $201 $206 $75 $123 forward $196 $-1 #
edge $-1 $207 22.815845674265745 $208 27.677712523871705 $122 $209 forward 7 unknown #
loop $-1 $-1 $129 $76 #
plane-surface $-1 -79.218726157414466 13.49991926313642 18.479716250034599 -0.78801076186113728 0 0.61566146476048833 0.61566146476048833 0 0.78801076186113728 forward_v I I I I #
loop $-1 $-1 $210 $49 #
coedge $-1 $127 $127 $128 $211 reversed $77 $-1 #
coedge $-1 $128 $128 $127 $211 forward $79 $-1 #
coedge $-1 $129 $129 $80 $130 forward $124 $-1 #
edge $-1 $212 0 $212 6.2831853071796004 $129 $213 forward 7 unknown #
loop $-1 $-1 $136 $81 #
plane-surface $-1 -79.218726157414466 13.49991926313642 18.479716250034599 -0.78801076186113728 0 0.61566146476048833 0.61566146476048833 0 0.78801076186113728 forward_v I I I I #
loop $-1 $-1 $214 $52 #
coedge $-1 $134 $134 $135 $215 reversed $82 $-1 #
coedge $-1 $135 $135 $134 $215 forward $84 $-1 #
coedge $-1 $136 $136 $85 $137 forward $131 $-1 #
edge $-1 $216 0 $216 6.2831853071796004 $136 $217 forward 7 unknown #
face $-1 $218 $219 $29 $-1 $220 forward single #
loop $-1 $-1 $221 $86 #
plane-surface $-1 0 -30.789246823702474 18.045270426862594 0 -1 0 0 0 -1 forward_v I I I I #
coedge $-1 $222 $223 $224 $225 reversed $87 $-1 #
coedge $-1 $143 $89 $226 $227 reversed $56 $-1 #
coedge $-1 $89 $142 $222 $228 reversed $56 $-1 #
coedge $-1 $224 $229 $89 $145 forward $219 $-1 #
edge $-1 $230 -39.609361778847898 $231 -18.440279578743201 $144 $232 forward 7 unknown #
loop $-1 $-1 $151 $90 #
plane-surface $-1 -32.813469468462003 -21.836838782630959 115.56573774725867 0.70710678939079041 0 0.70710677298230451 0.70710677298230451 0 -0.70710678939079041 forward_v I I I I #
loop $-1 $-1 $233 $58 #
coedge $-1 $149 $149 $150 $234 reversed $91 $-1 #
coedge $-1 $150 $150 $149 $234 forward $93 $-1 #
coedge $-1 $151 $151 $94 $152 forward $146 $-1 #
edge $-1 $235 0 $235 6.2831853071796004 $151 $236 forward 7 unknown #
loop $-1 $-1 $158 $95 #
plane-surface $-1 -32.813469468462003 -21.836838782630959 115.56573774725867 0.70710678939079041 0 0.70710677298230451 0.70710677298230451 0 -0.70710678939079041 forward_v I I I I #
loop $-1 $-1 $237 $61 #
coedge $-1 $156 $156 $157 $238 reversed $96 $-1 #
coedge $-1 $157 $157 $156 $238 forward $98 $-1 #
coedge $-1 $158 $158 $99 $159 forward $153 $-1 #
edge $-1 $239 0 $239 6.2831853071796004 $158 $240 forward 7 unknown #
face $-1 $241 $242 $24 $-1 $243 reversed single #
loop $-1 $-1 $244 $100 #
plane-surface $-1 -79.218726157414466 0 0 1 0 0 0 0 -1 forward_v I I I I #
coedge $-1 $245 $171 $246 $247 forward $101 $-1 #
coedge $-1 $248 $103 $245 $249 forward $65 $-1 #
coedge $-1 $103 $248 $250 $251 forward $65 $-1 #
coedge $-1 $174 $173 $103 $167 reversed $175 $-1 #
edge $-1 $252 -50.998369554196231 $253 50.998369554196231 $166 $254 forward 7 unknown #
coedge $-1 $105 $104 $255 $256 forward $41 $-1 #
coedge $-1 $257 $258 $104 $170 reversed $242 $-1 #
edge $-1 $177 -79.218726157414466 $259 79.218726157414466 $169 $260 forward 7 unknown #
coedge $-1 $163 $261 $105 $172 reversed $101 $-1 #
edge $-1 $262 -79.218726157414466 $176 79.218726157414466 $171 $263 forward 7 unknown #
coedge $-1 $166 $106 $261 $264 forward $175 $-1 #
coedge $-1 $106 $166 $257 $265 reversed $175 $-1 #
loop $-1 $-1 $173 $241 #
vertex $-1 $107 $266 #
vertex $-1 $107 $267 #
straight-curve $-1 79.218726157414466 0 24.702622212998939 0 1 0 I I #
face $-1 $268 $269 $25 $-1 $270 forward single #
loop $-1 $-1 $187 $108 #
plane-surface $-1 0 -50.998369554196231 0 0 1 0 0 0 1 forward_v I I I I #
coedge $-1 $271 $272 $183 $273 forward $109 $-1 #
coedge $-1 $274 $111 $182 $273 reversed $69 $-1 #
coedge $-1 $111 $274 $189 $275 reversed $69 $-1 #
edge $-1 $276 -79.218726157414466 $193 79.218726157414466 $111 $277 forward 7 unknown #
coedge $-1 $113 $112 $271 $278 reversed $44 $-1 #
coedge $-1 $279 $280 $112 $188 forward $180 $-1 #
edge $-1 $281 -79.218726157414466 $192 79.218726157414466 $187 $282 forward 7 unknown #
coedge $-1 $283 $114 $184 $275 forward $191 $-1 #
coedge $-1 $114 $283 $279 $284 forward $191 $-1 #
loop $-1 $-1 $189 $268 #
vertex $-1 $188 $285 #
vertex $-1 $115 $286 #
straight-curve $-1 79.218726157414466 -20.446904094474675 11.387918640726244 0 1 0 I I #
face $-1 $-1 $287 $26 $-1 $288 reversed single #
loop $-1 $-1 $122 $116 #
plane-surface $-1 0 0 24.702622212998939 0 0 1 1 0 0 forward_v I I I I #
coedge $-1 $289 $290 $291 $292 reversed $117 $-1 #
coedge $-1 $293 $119 $121 $205 forward $73 $-1 #
coedge $-1 $119 $293 $289 $294 forward $73 $-1 #
coedge $-1 $291 $122 $119 $202 forward $196 $-1 #
edge $-1 $208 0.020271778018244646 $295 13.479647485118175 $201 $296 forward 7 unknown #
coedge $-1 $297 $298 $120 $204 forward $287 $-1 #
edge $-1 $299 -39.532058857516503 $207 -33.309152894552163 $203 $300 forward 7 unknown #
edge $-1 $208 -7.8969809349646098 $299 0 $121 $301 forward 7 unknown #
coedge $-1 $122 $291 $297 $302 forward $196 $-1 #
vertex $-1 $204 $303 #
vertex $-1 $123 $304 #
straight-curve $-1 -102.03457183168021 6.7702314095864544 24.702622212998939 1 0 0 I I #
coedge $-1 $210 $210 $-1 $305 reversed $126 $-1 #
edge $-1 $306 0 $306 6.2831853071796004 $127 $307 forward 7 unknown #
vertex $-1 $130 $308 #
ellipse-curve $-1 -76.787792732611479 10.615767325900713 21.591169231516769 -0.78801076186113728 0 0.61566146476048833 0.61566146476048833 0 0.78801076186113728 1 I I #
coedge $-1 $214 $214 $-1 $309 reversed $133 $-1 #
edge $-1 $310 0 $310 6.2831853071796004 $134 $311 forward 7 unknown #
vertex $-1 $137 $312 #
ellipse-curve $-1 -76.787792732611479 16.384071200372105 21.591169231516769 -0.78801076186113728 0 0.61566146476048833 0.61566146476048833 0 0.78801076186113728 1 I I #
face $-1 $-1 $313 $29 $-1 $314 reversed single #
loop $-1 $-1 $224 $138 #
plane-surface $-1 0 0 24.702622212998939 0 0 1 1 0 0 forward_v I I I I #
coedge $-1 $315 $316 $223 $317 reversed $139 $-1 #
coedge $-1 $318 $141 $143 $228 forward $87 $-1 #
coedge $-1 $141 $318 $221 $317 forward $87 $-1 #
coedge $-1 $319 $144 $141 $225 forward $219 $-1 #
edge $-1 $231 1.9660113502439618 $320 19.870827432386996 $224 $321 forward 7 unknown #
coedge $-1 $322 $323 $142 $227 forward $313 $-1 #
edge $-1 $324 -110.26542716490407 $230 -89.096344473568621 $226 $325 forward 7 unknown #
edge $-1 $231 128.4998488170975 $324 158.43745231482902 $143 $326 forward 7 unknown #
coedge $-1 $144 $319 $322 $327 forward $219 $-1 #
vertex $-1 $227 $328 #
vertex $-1 $145 $329 #
straight-curve $-1 39.609364378566568 -12.884430741559441 24.702622212998946 -1 0 0 I I #
coedge $-1 $233 $233 $-1 $330 reversed $148 $-1 #
edge $-1 $331 0 $331 6.2831853071796004 $149 $332 forward 7 unknown #
vertex $-1 $152 $333 #
ellipse-curve $-1 68.634185057362131 -25.673585085947323 14.118080867331191 0.70710678939079041 0 0.70710677298230451 1.7677669324557612 0 -1.7677669734769761 1 I I #
coedge $-1 $237 $237 $-1 $334 reversed $155 $-1 #
edge $-1 $335 0 $335 6.2831853071796004 $156 $336 forward 7 unknown #
vertex $-1 $159 $337 #
ellipse-curve $-1 68.634185057362131 -18.000092479314596 14.118080867331191 0.70710678939079041 0 0.70710677298230451 1.7677669324557612 0 -1.7677669734769761 1 I I #
face $-1 $-1 $175 $24 $-1 $338 reversed single #
loop $-1 $-1 $257 $160 #
plane-surface $-1 0 50.998369554196231 0 0 -1 0 0 0 -1 forward_v I I I I #
coedge $-1 $339 $255 $258 $340 forward $161 $-1 #
coedge $-1 $261 $163 $164 $249 reversed $101 $-1 #
coedge $-1 $255 $339 $163 $247 reversed $161 $-1 #
edge $-1 $262 -24.702622212998939 $341 24.702622212998939 $246 $342 forward 7 unknown #
coedge $-1 $165 $164 $339 $343 forward $65 $-1 #
edge $-1 $253 -79.218726157414466 $341 79.218726157414466 $245 $344 forward 7 unknown #
coedge $-1 $258 $257 $165 $251 reversed $242 $-1 #
edge $-1 $345 -79.218726157414466 $252 79.218726157414466 $250 $346 forward 7 unknown #
vertex $-1 $167 $347 #
vertex $-1 $264 $348 #
straight-curve $-1 79.218726157414466 0 -24.702622212998939 0 -1 0 I I #
coedge $-1 $244 $246 $168 $256 reversed $161 $-1 #
edge $-1 $259 -50.998369554196231 $262 50.998369554196231 $255 $349 forward 7 unknown #
coedge $-1 $250 $169 $174 $265 forward $242 $-1 #
coedge $-1 $169 $250 $244 $340 reversed $242 $-1 #
vertex $-1 $170 $350 #
straight-curve $-1 0 50.998369554196231 24.702622212998939 -1 0 0 I I #
coedge $-1 $171 $245 $173 $264 reversed $101 $-1 #
vertex $-1 $256 $351 #
straight-curve $-1 0 -50.998369554196231 24.702622212998939 1 0 0 I I #
edge $-1 $176 -24.702622212998939 $253 24.702622212998939 $173 $352 forward 7 unknown #
edge $-1 $177 -24.702622212998939 $252 24.702622212998939 $174 $353 forward 7 unknown #
point $-1 79.218726157414466 -50.998369554196231 24.702622212998939 #
point $-1 79.218726157414466 50.998369554196231 24.702622212998939 #
face $-1 $-1 $191 $25 $-1 $354 reversed single #
loop $-1 $-1 $355 $179 #
plane-surface $-1 0 0 24.702622212998939 0 0 1 1 0 0 forward_v I I I I #
coedge $-1 $356 $182 $186 $278 forward $109 $-1 #
coedge $-1 $182 $356 $357 $358 reversed $109 $-1 #
edge $-1 $359 -15.679986999567646 $276 -2.3652834272949477 $182 $360 forward 7 unknown #
coedge $-1 $184 $183 $355 $361 reversed $69 $-1 #
edge $-1 $193 2.3652834272949477 $362 15.679986999567646 $189 $363 forward 7 unknown #
vertex $-1 $278 $364 #
straight-curve $-1 0 -30.789246823702474 11.387918640726244 1 0 0 I I #
edge $-1 $276 10.342342729227799 $281 30.551465459721555 $271 $365 forward 7 unknown #
coedge $-1 $366 $187 $190 $284 reversed $180 $-1 #
coedge $-1 $187 $366 $356 $367 forward $180 $-1 #
vertex $-1 $188 $368 #
straight-curve $-1 0 -50.998369554196231 11.387918640726244 1 0 0 I I #
coedge $-1 $190 $189 $369 $370 reversed $191 $-1 #
edge $-1 $371 -24.702622212998939 $192 -11.387918640726244 $190 $372 forward 7 unknown #
point $-1 79.218726157414466 -50.998369554196231 11.387918640726244 #
point $-1 79.218726157414466 -30.789246823702474 11.387918640726244 #
loop $-1 $-1 $203 $195 #
plane-surface $-1 -79.218726157414466 0 0 1 0 0 0 0 -1 forward_v I I I I #
coedge $-1 $290 $198 $200 $294 reversed $117 $-1 #
coedge $-1 $198 $289 $373 $374 reversed $117 $-1 #
coedge $-1 $206 $201 $198 $292 forward $196 $-1 #
edge $-1 $295 -27.677712523871705 $375 -22.815845674265745 $291 $376 forward 7 unknown #
coedge $-1 $200 $199 $298 $377 reversed $73 $-1 #
edge $-1 $378 0 $295 7.8969809349646098 $289 $379 forward 7 unknown #
vertex $-1 $202 $380 #
straight-curve $-1 -74.356859307808506 6.7499596315682098 24.702622212998939 0 1 0 I I #
coedge $-1 $373 $203 $206 $302 reversed $287 $-1 #
coedge $-1 $203 $373 $293 $377 forward $287 $-1 #
vertex $-1 $204 $381 #
straight-curve $-1 -79.218726157414466 6.7702314095864544 58.011775107551102 0 0 1 I I #
straight-curve $-1 -79.218726157414466 6.7702314095864544 18.479716250034599 -0.61566146476048833 0 -0.78801076186113728 I I #
edge $-1 $375 -20.229607116686385 $207 -6.7702314095864544 $297 $382 forward 7 unknown #
point $-1 -79.218726157414466 6.7702314095864544 24.702622212998939 #
point $-1 -74.356859307808506 6.7702314095864544 24.702622212998939 #
edge $-1 $383 1 $383 0 $210 $-1 forward 7 unknown #
vertex $-1 $211 $384 #
ellipse-curve $-1 -73.877513416634258 10.615767325900713 19.317409895660855 -0.78801076186113728 0 0.61566146476048833 0.61566146476048833 0 0.78801076186113728 1 I I #
point $-1 -76.172131267850986 10.615767325900713 22.3791799933779 #
edge $-1 $385 1 $385 0 $214 $-1 forward 7 unknown #
vertex $-1 $215 $386 #
ellipse-curve $-1 -73.877513416634258 16.384071200372105 19.317409895660855 -0.78801076186113728 0 0.61566146476048833 0.61566146476048833 0 0.78801076186113728 1 I I #
point $-1 -76.172131267850986 16.384071200372105 22.3791799933779 #
loop $-1 $-1 $226 $218 #
plane-surface $-1 79.218726157414466 0 0 -1 0 0 0 0 1 forward_v I I I I #
coedge $-1 $316 $221 $387 $388 reversed $139 $-1 #
coedge $-1 $221 $315 $319 $389 reversed $139 $-1 #
edge $-1 $390 -158.43745231482902 $320 -128.4998488170975 $221 $391 forward 7 unknown #
coedge $-1 $223 $222 $323 $392 reversed $87 $-1 #
coedge $-1 $229 $224 $316 $389 forward $219 $-1 #
vertex $-1 $389 $393 #
straight-curve $-1 58.049643957309776 -10.91841939131548 24.702622212998932 0 -1 0 I I #
coedge $-1 $387 $226 $229 $327 reversed $313 $-1 #
coedge $-1 $226 $387 $318 $392 forward $313 $-1 #
vertex $-1 $227 $394 #
straight-curve $-1 79.218726157414466 -12.884430741559441 113.79896668656755 0 0 1 I I #
straight-curve $-1 -32.813469468462003 -12.884430741559441 115.56573774725867 0.70710677298230451 0 -0.70710678939079041 I I #
edge $-1 $395 -30.789246823702474 $230 -12.884430741559441 $322 $396 forward 7 unknown #
point $-1 79.218726157414466 -12.884430741559441 24.702622212998939 #
point $-1 58.049643957309769 -12.884430741559441 24.702622212998946 #
edge $-1 $397 1 $397 0 $233 $-1 forward 7 unknown #
vertex $-1 $234 $398 #
ellipse-curve $-1 62.776174214714054 -25.673585085947323 8.2600701606188682 0.70710678939079041 0 0.70710677298230451 1.7677669324557612 0 -1.7677669734769761 1 I I #
point $-1 70.401951989817917 -25.673585085947323 12.350313893854253 #
edge $-1 $399 1 $399 0 $237 $-1 forward 7 unknown #
vertex $-1 $238 $400 #
ellipse-curve $-1 62.776174214714054 -18.000092479314596 8.2600701606188682 0.70710678939079041 0 0.70710677298230451 1.7677669324557612 0 -1.7677669734769761 1 I I #
point $-1 70.401951989817917 -18.000092479314596 12.350313893854253 #
plane-surface $-1 79.218726157414466 0 0 -1 0 0 0 0 1 forward_v I I I I #
coedge $-1 $246 $244 $248 $343 reversed $161 $-1 #
edge $-1 $259 -24.702622212998939 $345 24.702622212998939 $258 $401 forward 7 unknown #
vertex $-1 $343 $402 #
straight-curve $-1 -79.218726157414466 -50.998369554196231 0 0 0 -1 I I #
edge $-1 $341 -50.998369554196231 $345 50.998369554196231 $339 $403 forward 7 unknown #
straight-curve $-1 0 -50.998369554196231 -24.702622212998939 -1 0 0 I I #
vertex $-1 $251 $404 #
straight-curve $-1 0 50.998369554196231 -24.702622212998939 1 0 0 I I #
point $-1 79.218726157414466 50.998369554196231 -24.702622212998939 #
point $-1 79.218726157414466 -50.998369554196231 -24.702622212998939 #
straight-curve $-1 -79.218726157414466 0 24.702622212998939 0 -1 0 I I #
point $-1 -79.218726157414466 50.998369554196231 24.702622212998939 #
point $-1 -79.218726157414466 -50.998369554196231 24.702622212998939 #
straight-curve $-1 79.218726157414466 -50.998369554196231 0 0 0 -1 I I #
straight-curve $-1 79.218726157414466 50.998369554196231 0 0 0 -1 I I #
plane-surface $-1 79.218726157414466 0 0 -1 0 0 0 0 1 forward_v I I I I #
coedge $-1 $357 $369 $274 $361 forward $269 $-1 #
coedge $-1 $272 $271 $280 $367 reversed $109 $-1 #
coedge $-1 $405 $355 $272 $358 forward $269 $-1 #
edge $-1 $359 30.789246823702474 $406 50.998369554196231 $272 $407 forward 7 unknown #
vertex $-1 $358 $408 #
straight-curve $-1 -79.218726157414466 -30.789246823702474 9.0226352134312968 0 0 -1 I I #
edge $-1 $362 -79.218726157414466 $359 79.218726157414466 $355 $409 forward 7 unknown #
vertex $-1 $275 $410 #
straight-curve $-1 79.218726157414466 -30.789246823702474 9.0226352134312968 0 0 1 I I #
point $-1 -79.218726157414466 -30.789246823702474 11.387918640726244 #
straight-curve $-1 -79.218726157414466 -20.446904094474675 11.387918640726244 0 -1 0 I I #
coedge $-1 $280 $279 $405 $411 reversed $180 $-1 #
edge $-1 $406 -24.702622212998939 $281 -11.387918640726244 $356 $412 forward 7 unknown #
point $-1 -79.218726157414466 -50.998369554196231 11.387918640726244 #
coedge $-1 $355 $405 $283 $370 forward $269 $-1 #
edge $-1 $371 -50.998369554196231 $362 -30.789246823702474 $283 $413 forward 7 unknown #
vertex $-1 $370 $414 #
straight-curve $-1 79.218726157414466 -50.998369554196231 0 0 0 -1 I I #
coedge $-1 $298 $297 $290 $374 forward $287 $-1 #
edge $-1 $375 33.309152894552163 $378 39.532058857516503 $373 $415 forward 7 unknown #
vertex $-1 $302 $416 #
straight-curve $-1 -102.03457183168021 20.229607116686385 24.702622212998939 -1 0 0 I I #
edge $-1 $378 -13.479647485118175 $299 -0.020271778018244646 $298 $417 forward 7 unknown #
vertex $-1 $377 $418 #
straight-curve $-1 -79.218726157414466 20.229607116686385 18.479716250034599 0.61566146476048833 0 0.78801076186113728 I I #
point $-1 -74.356859307808506 20.229607116686385 24.702622212998939 #
point $-1 -79.218726157414466 6.7702314095864544 18.479716250034599 #
straight-curve $-1 -79.218726157414466 0 24.702622212998939 0 -1 0 I I #
vertex $-1 $305 $419 #
point $-1 -73.26185195187378 10.615767325900713 20.105420657521993 #
vertex $-1 $309 $420 #
point $-1 -73.26185195187378 16.384071200372105 20.105420657521993 #
coedge $-1 $323 $322 $315 $388 forward $313 $-1 #
edge $-1 $395 89.096344473568607 $390 110.26542716490407 $387 $421 forward 7 unknown #
edge $-1 $320 58.049643957309769 $395 79.218726157414466 $319 $422 forward 7 unknown #
vertex $-1 $388 $423 #
straight-curve $-1 -32.813469468462003 -30.789246823702477 115.56573774725867 -0.70710677298230451 0 0.70710678939079041 I I #
edge $-1 $390 -19.870827432386996 $324 -1.9660113502439618 $323 $424 forward 7 unknown #
point $-1 58.049643957309769 -30.789246823702477 24.702622212998946 #
point $-1 79.218726157414466 -12.884430741559441 3.5335395216634851 #
vertex $-1 $327 $425 #
straight-curve $-1 79.218726157414466 0 24.702622212998939 0 1 0 I I #
vertex $-1 $330 $426 #
point $-1 64.543941147169818 -25.673585085947323 6.4923031871418928 #
vertex $-1 $334 $427 #
point $-1 64.543941147169818 -18.000092479314596 6.4923031871418928 #
straight-curve $-1 -79.218726157414466 50.998369554196231 0 0 0 -1 I I #
point $-1 -79.218726157414466 -50.998369554196231 -24.702622212998939 #
straight-curve $-1 -79.218726157414466 0 -24.702622212998939 0 1 0 I I #
point $-1 -79.218726157414466 50.998369554196231 -24.702622212998939 #
coedge $-1 $369 $357 $366 $411 forward $269 $-1 #
vertex $-1 $358 $428 #
straight-curve $-1 -79.218726157414466 0 24.702622212998939 0 -1 0 I I #
point $-1 -79.218726157414466 -30.789246823702474 24.702622212998943 #
straight-curve $-1 0 -30.789246823702474 24.702622212998939 -1 0 0 I I #
point $-1 79.218726157414466 -30.789246823702474 24.702622212998943 #
edge $-1 $406 -79.218726157414466 $371 79.218726157414466 $366 $429 forward 7 unknown #
straight-curve $-1 -79.218726157414466 -50.998369554196231 0 0 0 -1 I I #
straight-curve $-1 79.218726157414466 0 24.702622212998939 0 1 0 I I #
point $-1 79.218726157414466 -50.998369554196231 24.702622212998939 #
straight-curve $-1 -79.218726157414466 20.229607116686385 58.011775107551102 0 0 -1 I I #
point $-1 -79.218726157414466 20.229607116686385 24.702622212998939 #
straight-curve $-1 -79.218726157414466 6.7499596315682098 18.479716250034606 0 -1 0 I I #
point $-1 -79.218726157414466 20.229607116686385 18.479716250034599 #
point $-1 -73.089502654773128 10.615767325900713 18.70174843090037 #
point $-1 -73.089502654773128 16.384071200372105 18.70174843090037 #
straight-curve $-1 79.218726157414466 -30.789246823702477 113.79896668656755 0 0 -1 I I #
straight-curve $-1 0 -30.789246823702474 24.702622212998939 1 0 0 I I #
point $-1 79.218726157414466 -30.789246823702477 3.5335395216634851 #
straight-curve $-1 79.218726157414466 -10.91841939131548 3.5335395216634993 0 1 0 I I #
point $-1 79.218726157414466 -30.789246823702474 24.702622212998943 #
point $-1 61.008407241237073 -25.673585085947323 6.4923032281631077 #
point $-1 61.008407241237073 -18.000092479314596 6.4923032281631077 #
point $-1 -79.218726157414466 -50.998369554196231 24.702622212998939 #
straight-curve $-1 0 -50.998369554196231 24.702622212998939 1 0 0 I I #
End-of-ACIS-data 