500 0 8 0           
7 Unknown 11 ACIS 5.0 NT 24 Fri Mar 26 01:25:47 1999 
-1 9.9999999999999995e-007 1e-010 
body $-1 $8 $-1 $9 #
body $-1 $10 $-1 $11 #
body $-1 $12 $-1 $13 #
body $-1 $14 $-1 $15 #
body $-1 $16 $-1 $17 #
body $-1 $18 $-1 $19 #
body $-1 $20 $-1 $21 #
body $-1 $22 $-1 $23 #
lump $-1 $-1 $24 $0 #
transform $-1 1 0 0 0 1 0 0 0 1 59.01425214392529 31.8583668377909 10.779556051227996 1 rotate no_reflect no_shear #
lump $-1 $-1 $25 $1 #
transform $-1 1 0 0 0 1 0 0 0 1 59.01425214392529 31.8583668377909 10.779556051227996 1 rotate no_reflect no_shear #
lump $-1 $-1 $26 $2 #
transform $-1 1 0 0 0 1 0 0 0 1 59.01425214392529 31.8583668377909 10.779556051227996 1 rotate no_reflect no_shear #
lump $-1 $-1 $27 $3 #
transform $-1 1 0 0 0 1 0 0 0 1 59.01425214392529 31.8583668377909 10.779556051227996 1 rotate no_reflect no_shear #
lump $-1 $-1 $28 $4 #
transform $-1 1 0 0 0 1 0 0 0 1 59.01425214392529 31.8583668377909 10.779556051227996 1 rotate no_reflect no_shear #
lump $-1 $-1 $29 $5 #
transform $-1 1 0 0 0 1 0 0 0 1 59.01425214392529 31.8583668377909 10.779556051227996 1 rotate no_reflect no_shear #
lump $-1 $-1 $30 $6 #
transform $-1 1 0 0 0 1 0 0 0 1 59.01425214392529 31.8583668377909 10.779556051227996 1 rotate no_reflect no_shear #
lump $-1 $-1 $31 $7 #
transform $-1 1 0 0 0 1 0 0 0 1 59.01425214392529 31.8583668377909 10.779556051227996 1 rotate no_reflect no_shear #
shell $-1 $-1 $-1 $32 $-1 $8 #
shell $-1 $-1 $-1 $33 $-1 $10 #
shell $-1 $-1 $-1 $34 $-1 $12 #
shell $-1 $-1 $-1 $35 $-1 $14 #
shell $-1 $-1 $-1 $36 $-1 $16 #
shell $-1 $-1 $-1 $37 $-1 $18 #
shell $-1 $-1 $-1 $38 $-1 $20 #
shell $-1 $-1 $-1 $39 $-1 $22 #
face $-1 $40 $41 $24 $-1 $42 forward single #
face $-1 $43 $44 $25 $-1 $45 forward single #
face $-1 $46 $47 $26 $-1 $48 reversed single #
face $-1 $49 $50 $27 $-1 $51 forward single #
face $-1 $52 $53 $28 $-1 $54 forward single #
face $-1 $55 $56 $29 $-1 $57 reversed single #
face $-1 $58 $59 $30 $-1 $60 forward single #
face $-1 $61 $62 $31 $-1 $63 forward single #
face $-1 $64 $65 $24 $-1 $66 reversed single #
loop $-1 $-1 $67 $32 #
plane-surface $-1 0 0 10.779556051227996 0 0 1 1 0 0 forward_v I I I I #
face $-1 $68 $69 $25 $-1 $70 reversed single #
loop $-1 $-1 $71 $33 #
plane-surface $-1 0 -26.842798993404109 7.4389077690415846 0 0 1 1 0 0 forward_v I I I I #
face $-1 $72 $73 $26 $-1 $74 reversed single #
loop $-1 $-1 $75 $34 #
plane-surface $-1 -155.69754367571369 15.886845910246574 71.685606628633337 0 1 0 -0.81915205242281985 0 0.57357642473473569 forward_v I I I I #
face $-1 $76 $77 $27 $-1 $78 forward single #
loop $-1 $79 $80 $35 #
cone-surface $-1 -54.944933837813167 20.450137603830665 6.199134778540957 0.81915205242281985 0 -0.57357642473473569 1.1471528494694714 0 1.6383041048456397 1 I I 0 1 2 forward I I I I #
face $-1 $81 $82 $28 $-1 $83 forward single #
loop $-1 $84 $85 $36 #
cone-surface $-1 -54.944933837813167 27.295075144206802 6.199134778540957 0.81915205242281985 0 -0.57357642473473569 1.1471528494694714 0 1.6383041048456397 1 I I 0 1 2 forward I I I I #
face $-1 $86 $87 $29 $-1 $88 reversed single #
loop $-1 $-1 $89 $37 #
plane-surface $-1 -37.669037816915463 27.813781245139889 71.599187826534191 0.57357644374324357 0 0.81915203911291934 0.81915203911291934 0 -0.57357644374324357 forward_v I I I I #
face $-1 $90 $91 $30 $-1 $92 forward single #
loop $-1 $93 $94 $38 #
cone-surface $-1 53.732108661532628 26.080387419718026 6.8114643841338296 -0.57357644374324357 0 -0.81915203911291934 0.40957601955645967 0 -0.28678822187162178 1 I I 0 1 0.5 forward I I I I #
face $-1 $95 $96 $31 $-1 $97 forward single #
loop $-1 $98 $99 $39 #
cone-surface $-1 53.732108661532628 29.547175070561753 6.8114643841338296 -0.57357644374324357 0 -0.81915203911291934 0.40957601955645967 0 -0.28678822187162178 1 I I 0 1 0.5 forward I I I I #
face $-1 $100 $101 $24 $-1 $102 reversed single #
loop $-1 $-1 $103 $40 #
plane-surface $-1 0 0 -10.779556051227996 0 0 1 1 0 0 forward_v I I I I #
coedge $-1 $104 $105 $106 $107 forward $41 $-1 #
face $-1 $108 $109 $25 $-1 $110 reversed single #
loop $-1 $-1 $111 $43 #
plane-surface $-1 0 -26.842798993404109 1.2927810597709133 0 0 1 1 0 0 forward_v I I I I #
coedge $-1 $112 $113 $114 $115 reversed $44 $-1 #
face $-1 $116 $117 $26 $-1 $118 forward single #
loop $-1 $-1 $119 $46 #
plane-surface $-1 -59.01425214392529 23.872606374018741 3.9872391224195809 -0.81915205242281985 0 0.57357642473473569 0.57357642473473569 0 0.81915205242281985 forward_v I I I I #
coedge $-1 $120 $121 $122 $123 reversed $47 $-1 #
face $-1 $-1 $124 $27 $-1 $125 forward single #
loop $-1 $126 $127 $49 #
cone-surface $-1 -52.434479165235516 20.450137603830665 4.4412955455233813 0.81915205242281985 0 -0.57357642473473569 0.57357642473473569 0 0.81915205242281985 1 I I -0.70710678118654746 0.70710678118654746 1 forward I I I I #
loop $-1 $-1 $128 $35 #
coedge $-1 $80 $80 $129 $130 reversed $50 $-1 #
face $-1 $-1 $131 $28 $-1 $132 forward single #
loop $-1 $133 $134 $52 #
cone-surface $-1 -52.434479165235516 27.295075144206802 4.4412955455233813 0.81915205242281985 0 -0.57357642473473569 0.57357642473473569 0 0.81915205242281985 1 I I -0.70710678118654746 0.70710678118654746 1 forward I I I I #
loop $-1 $-1 $135 $36 #
coedge $-1 $85 $85 $136 $137 reversed $53 $-1 #
face $-1 $138 $139 $29 $-1 $140 reversed single #
loop $-1 $-1 $141 $55 #
plane-surface $-1 30.029331932844045 23.769195652488872 168.28247778737494 0 1 0 0.57357644374324357 0 0.81915203911291934 forward_v I I I I #
coedge $-1 $142 $143 $144 $145 reversed $56 $-1 #
face $-1 $-1 $146 $30 $-1 $147 forward single #
loop $-1 $148 $149 $58 #
cone-surface $-1 53.21849893742052 26.080387419718026 6.077953694488091 -0.57357644374324357 0 -0.81915203911291934 0.20478800977822983 0 -0.14339411093581089 1 I I -0.70710678118654746 0.70710678118654746 0.25 forward I I I I #
loop $-1 $-1 $150 $38 #
coedge $-1 $94 $94 $151 $152 reversed $59 $-1 #
face $-1 $-1 $153 $31 $-1 $154 forward single #
loop $-1 $155 $156 $61 #
cone-surface $-1 53.21849893742052 29.547175070561753 6.077953694488091 -0.57357644374324357 0 -0.81915203911291934 0.20478800977822983 0 -0.14339411093581089 1 I I -0.70710678118654746 0.70710678118654746 0.25 forward I I I I #
loop $-1 $-1 $157 $39 #
coedge $-1 $99 $99 $158 $159 reversed $62 $-1 #
face $-1 $160 $161 $24 $-1 $162 reversed single #
loop $-1 $-1 $163 $64 #
plane-surface $-1 0 -31.8583668377909 0 0 1 0 0 0 1 forward_v I I I I #
coedge $-1 $164 $165 $166 $167 forward $65 $-1 #
coedge $-1 $168 $67 $169 $170 forward $41 $-1 #
coedge $-1 $67 $168 $171 $172 forward $41 $-1 #
coedge $-1 $173 $174 $67 $107 reversed $175 $-1 #
edge $-1 $176 -31.8583668377909 $177 31.8583668377909 $106 $178 forward 7 unknown #
face $-1 $179 $180 $25 $-1 $181 reversed single #
loop $-1 $-1 $182 $68 #
plane-surface $-1 0 -21.827231149017315 4.3658444144062489 0 -1 0 0 0 -1 forward_v I I I I #
coedge $-1 $183 $184 $185 $186 reversed $69 $-1 #
coedge $-1 $187 $71 $188 $189 forward $44 $-1 #
coedge $-1 $71 $187 $190 $191 reversed $44 $-1 #
coedge $-1 $192 $193 $71 $115 forward $194 $-1 #
edge $-1 $195 8.4058316523152605 $196 18.436967341088849 $114 $197 forward 7 unknown #
face $-1 $198 $199 $26 $-1 $200 reversed single #
loop $-1 $-1 $122 $72 #
plane-surface $-1 0 0 10.779556051227996 0 0 1 1 0 0 forward_v I I I I #
coedge $-1 $201 $202 $203 $204 reversed $73 $-1 #
coedge $-1 $121 $75 $205 $206 reversed $47 $-1 #
coedge $-1 $75 $120 $201 $207 reversed $47 $-1 #
coedge $-1 $203 $208 $75 $123 forward $117 $-1 #
edge $-1 $209 18.834519693931554 $210 23.590551065846135 $122 $211 forward 7 unknown #
loop $-1 $-1 $129 $76 #
plane-surface $-1 -59.01425214392529 23.872606374018741 3.9872391224195809 -0.81915205242281985 0 0.57357642473473569 0.57357642473473569 0 0.81915205242281985 forward_v I I I I #
loop $-1 $-1 $212 $49 #
coedge $-1 $127 $127 $128 $213 reversed $77 $-1 #
coedge $-1 $128 $128 $127 $213 forward $79 $-1 #
coedge $-1 $129 $129 $80 $130 forward $124 $-1 #
edge $-1 $214 0 $214 6.2831853071796004 $129 $215 forward 7 unknown #
loop $-1 $-1 $136 $81 #
plane-surface $-1 -59.01425214392529 23.872606374018741 3.9872391224195809 -0.81915205242281985 0 0.57357642473473569 0.57357642473473569 0 0.81915205242281985 forward_v I I I I #
loop $-1 $-1 $216 $52 #
coedge $-1 $134 $134 $135 $217 reversed $82 $-1 #
coedge $-1 $135 $135 $134 $217 forward $84 $-1 #
coedge $-1 $136 $136 $85 $137 forward $131 $-1 #
edge $-1 $218 0 $218 6.2831853071796004 $136 $219 forward 7 unknown #
face $-1 $220 $221 $29 $-1 $222 forward single #
loop $-1 $-1 $223 $86 #
plane-surface $-1 59.01425214392529 0 0 -1 0 0 0 0 1 forward_v I I I I #
coedge $-1 $224 $225 $226 $227 reversed $87 $-1 #
coedge $-1 $228 $89 $229 $230 reversed $56 $-1 #
coedge $-1 $89 $228 $224 $231 forward $56 $-1 #
coedge $-1 $226 $232 $89 $145 forward $221 $-1 #
edge $-1 $233 -17.951476215220964 $234 -9.862305029918927 $144 $235 forward 7 unknown #
loop $-1 $-1 $151 $90 #
plane-surface $-1 -37.669037816915463 27.813781245139889 71.599187826534191 0.57357644374324357 0 0.81915203911291934 0.81915203911291934 0 -0.57357644374324357 forward_v I I I I #
loop $-1 $-1 $236 $58 #
coedge $-1 $149 $149 $150 $237 reversed $91 $-1 #
coedge $-1 $150 $150 $149 $237 forward $93 $-1 #
coedge $-1 $151 $151 $94 $152 forward $146 $-1 #
edge $-1 $238 0 $238 6.2831853071796004 $151 $239 forward 7 unknown #
loop $-1 $-1 $158 $95 #
plane-surface $-1 -37.669037816915463 27.813781245139889 71.599187826534191 0.57357644374324357 0 0.81915203911291934 0.81915203911291934 0 -0.57357644374324357 forward_v I I I I #
loop $-1 $-1 $240 $61 #
coedge $-1 $156 $156 $157 $241 reversed $96 $-1 #
coedge $-1 $157 $157 $156 $241 forward $98 $-1 #
coedge $-1 $158 $158 $99 $159 forward $153 $-1 #
edge $-1 $242 0 $242 6.2831853071796004 $158 $243 forward 7 unknown #
face $-1 $244 $245 $24 $-1 $246 reversed single #
loop $-1 $-1 $247 $100 #
plane-surface $-1 -59.01425214392529 0 0 1 0 0 0 0 -1 forward_v I I I I #
coedge $-1 $248 $171 $249 $250 forward $101 $-1 #
coedge $-1 $251 $103 $248 $252 forward $65 $-1 #
coedge $-1 $103 $251 $253 $254 forward $65 $-1 #
coedge $-1 $174 $173 $103 $167 reversed $175 $-1 #
edge $-1 $255 -31.8583668377909 $256 31.8583668377909 $166 $257 forward 7 unknown #
coedge $-1 $105 $104 $258 $259 forward $41 $-1 #
coedge $-1 $260 $261 $104 $170 reversed $245 $-1 #
edge $-1 $177 -59.01425214392529 $262 59.01425214392529 $169 $263 forward 7 unknown #
coedge $-1 $163 $264 $105 $172 reversed $101 $-1 #
edge $-1 $265 -59.01425214392529 $176 59.01425214392529 $171 $266 forward 7 unknown #
coedge $-1 $166 $106 $264 $267 forward $175 $-1 #
coedge $-1 $106 $166 $260 $268 reversed $175 $-1 #
loop $-1 $-1 $173 $244 #
vertex $-1 $107 $269 #
vertex $-1 $107 $270 #
straight-curve $-1 59.01425214392529 0 10.779556051227996 0 1 0 I I #
face $-1 $271 $272 $25 $-1 $273 reversed single #
loop $-1 $-1 $274 $108 #
plane-surface $-1 -59.01425214392529 0 0 1 0 0 0 0 -1 forward_v I I I I #
coedge $-1 $275 $188 $193 $276 reversed $109 $-1 #
coedge $-1 $277 $111 $278 $279 reversed $69 $-1 #
coedge $-1 $111 $277 $275 $280 forward $69 $-1 #
coedge $-1 $193 $192 $111 $186 forward $194 $-1 #
edge $-1 $281 -18.436967341088849 $282 -8.4058316523152605 $185 $283 forward 7 unknown #
coedge $-1 $113 $112 $274 $284 reversed $44 $-1 #
coedge $-1 $182 $285 $112 $189 reversed $109 $-1 #
edge $-1 $195 -59.01425214392529 $286 59.01425214392529 $188 $287 forward 7 unknown #
coedge $-1 $288 $289 $113 $191 forward $272 $-1 #
edge $-1 $196 -59.01425214392529 $290 59.01425214392529 $190 $291 forward 7 unknown #
coedge $-1 $185 $114 $289 $292 forward $194 $-1 #
coedge $-1 $114 $185 $182 $276 forward $194 $-1 #
loop $-1 $-1 $114 $271 #
vertex $-1 $115 $293 #
vertex $-1 $292 $294 #
straight-curve $-1 59.01425214392529 -13.421399496702055 7.4389077690415846 0 -1 0 I I #
face $-1 $-1 $295 $26 $-1 $296 reversed single #
loop $-1 $-1 $297 $116 #
plane-surface $-1 0 31.8583668377909 0 0 -1 0 0 0 -1 forward_v I I I I #
coedge $-1 $298 $119 $121 $207 forward $73 $-1 #
coedge $-1 $119 $298 $297 $299 reversed $73 $-1 #
coedge $-1 $300 $122 $119 $204 forward $117 $-1 #
edge $-1 $210 3.9505427232372039 $301 19.922063650781539 $203 $302 forward 7 unknown #
coedge $-1 $303 $304 $120 $206 forward $295 $-1 #
edge $-1 $305 -31.855564191897088 $209 -25.063247263088673 $205 $306 forward 7 unknown #
edge $-1 $210 -8.2918878231686826 $305 0 $121 $307 forward 7 unknown #
coedge $-1 $122 $300 $303 $308 forward $117 $-1 #
vertex $-1 $206 $309 #
vertex $-1 $123 $310 #
straight-curve $-1 -77.848771837856845 15.886845910246574 10.779556051227996 1 0 0 I I #
coedge $-1 $212 $212 $-1 $311 reversed $126 $-1 #
edge $-1 $312 0 $312 6.2831853071796004 $127 $313 forward 7 unknown #
vertex $-1 $130 $314 #
ellipse-curve $-1 -56.636236457967996 20.450137603830665 7.3833975868237927 -0.81915205242281985 0 0.57357642473473569 1.1471528494694714 0 1.6383041048456397 1 I I #
coedge $-1 $216 $216 $-1 $315 reversed $133 $-1 #
edge $-1 $316 0 $316 6.2831853071796004 $134 $317 forward 7 unknown #
vertex $-1 $137 $318 #
ellipse-curve $-1 -56.636236457967996 27.295075144206802 7.3833975868237927 -0.81915205242281985 0 0.57357642473473569 1.1471528494694714 0 1.6383041048456397 1 I I #
face $-1 $-1 $319 $29 $-1 $320 reversed single #
loop $-1 $-1 $226 $138 #
plane-surface $-1 0 0 10.779556051227996 0 0 1 1 0 0 forward_v I I I I #
coedge $-1 $321 $322 $225 $323 forward $139 $-1 #
coedge $-1 $225 $141 $143 $231 reversed $87 $-1 #
coedge $-1 $141 $224 $223 $323 reversed $87 $-1 #
coedge $-1 $324 $144 $141 $227 forward $221 $-1 #
edge $-1 $234 34.175730439070513 $325 43.999586177503268 $226 $326 forward 7 unknown #
coedge $-1 $143 $142 $321 $327 reversed $56 $-1 #
coedge $-1 $328 $329 $142 $230 forward $319 $-1 #
edge $-1 $330 -82.0663659540526 $233 -70.073652429135706 $229 $331 forward 7 unknown #
edge $-1 $332 -118.02850428785059 $234 -106.03579076293369 $224 $333 forward 7 unknown #
coedge $-1 $144 $324 $328 $334 forward $221 $-1 #
vertex $-1 $230 $335 #
vertex $-1 $145 $336 #
straight-curve $-1 49.190396405492521 13.906890622569945 10.779556051228006 0 -1 0 I I #
coedge $-1 $236 $236 $-1 $337 reversed $148 $-1 #
edge $-1 $338 0 $338 6.2831853071796004 $149 $339 forward 7 unknown #
vertex $-1 $152 $340 #
ellipse-curve $-1 54.102324274708927 26.080387419718026 7.3401870640013414 0.57357644374324357 0 0.81915203911291934 0.40957601955645967 0 -0.28678822187162178 1 I I #
coedge $-1 $240 $240 $-1 $341 reversed $155 $-1 #
edge $-1 $342 0 $342 6.2831853071796004 $156 $343 forward 7 unknown #
vertex $-1 $159 $344 #
ellipse-curve $-1 54.102324274708927 29.547175070561753 7.3401870640013414 0.57357644374324357 0 0.81915203911291934 0.40957601955645967 0 -0.28678822187162178 1 I I #
face $-1 $-1 $175 $24 $-1 $345 reversed single #
loop $-1 $-1 $260 $160 #
plane-surface $-1 0 31.8583668377909 0 0 -1 0 0 0 -1 forward_v I I I I #
coedge $-1 $346 $258 $261 $347 forward $161 $-1 #
coedge $-1 $264 $163 $164 $252 reversed $101 $-1 #
coedge $-1 $258 $346 $163 $250 reversed $161 $-1 #
edge $-1 $265 -10.779556051227996 $348 10.779556051227996 $249 $349 forward 7 unknown #
coedge $-1 $165 $164 $346 $350 forward $65 $-1 #
edge $-1 $256 -59.01425214392529 $348 59.01425214392529 $248 $351 forward 7 unknown #
coedge $-1 $261 $260 $165 $254 reversed $245 $-1 #
edge $-1 $352 -59.01425214392529 $255 59.01425214392529 $253 $353 forward 7 unknown #
vertex $-1 $167 $354 #
vertex $-1 $267 $355 #
straight-curve $-1 59.01425214392529 0 -10.779556051227996 0 -1 0 I I #
coedge $-1 $247 $249 $168 $259 reversed $161 $-1 #
edge $-1 $262 -31.8583668377909 $265 31.8583668377909 $258 $356 forward 7 unknown #
coedge $-1 $253 $169 $174 $268 forward $245 $-1 #
coedge $-1 $169 $253 $247 $347 reversed $245 $-1 #
vertex $-1 $170 $357 #
straight-curve $-1 0 31.8583668377909 10.779556051227996 -1 0 0 I I #
coedge $-1 $171 $248 $173 $267 reversed $101 $-1 #
vertex $-1 $259 $358 #
straight-curve $-1 0 -31.8583668377909 10.779556051227996 1 0 0 I I #
edge $-1 $176 -10.779556051227996 $256 10.779556051227996 $173 $359 forward 7 unknown #
edge $-1 $177 -10.779556051227996 $255 10.779556051227996 $174 $360 forward 7 unknown #
point $-1 59.01425214392529 -31.8583668377909 10.779556051227996 #
point $-1 59.01425214392529 31.8583668377909 10.779556051227996 #
face $-1 $-1 $194 $25 $-1 $361 reversed single #
loop $-1 $-1 $190 $179 #
plane-surface $-1 0 -31.8583668377909 0 0 1 0 0 0 1 forward_v I I I I #
coedge $-1 $362 $363 $187 $284 forward $180 $-1 #
coedge $-1 $285 $182 $184 $280 reversed $109 $-1 #
edge $-1 $282 -0.89014114743221118 $195 5.2559855618384601 $193 $364 forward 7 unknown #
coedge $-1 $184 $183 $365 $366 reversed $69 $-1 #
coedge $-1 $289 $288 $183 $279 forward $272 $-1 #
edge $-1 $367 -59.01425214392529 $281 59.01425214392529 $278 $368 forward 7 unknown #
edge $-1 $369 -59.01425214392529 $282 59.01425214392529 $275 $370 forward 7 unknown #
vertex $-1 $279 $371 #
vertex $-1 $186 $372 #
straight-curve $-1 59.01425214392529 -13.421399496702055 1.2927810597709133 0 1 0 I I #
edge $-1 $290 -18.436967341088849 $286 -8.4058316523152605 $274 $373 forward 7 unknown #
coedge $-1 $188 $275 $362 $374 reversed $109 $-1 #
vertex $-1 $284 $375 #
straight-curve $-1 0 -21.827231149017315 7.4389077690415846 -1 0 0 I I #
coedge $-1 $278 $190 $363 $376 forward $272 $-1 #
coedge $-1 $190 $278 $192 $292 reversed $272 $-1 #
vertex $-1 $376 $377 #
straight-curve $-1 0 -31.8583668377909 7.4389077690415846 -1 0 0 I I #
edge $-1 $196 -7.4389077690415846 $281 -1.2927810597709133 $192 $378 forward 7 unknown #
point $-1 59.01425214392529 -21.827231149017315 7.4389077690415846 #
point $-1 59.01425214392529 -31.858366837790904 7.4389077690415846 #
loop $-1 $-1 $205 $198 #
plane-surface $-1 -59.01425214392529 0 0 1 0 0 0 0 -1 forward_v I I I I #
coedge $-1 $379 $380 $202 $299 forward $199 $-1 #
coedge $-1 $202 $201 $304 $381 reversed $73 $-1 #
edge $-1 $301 6.999626498069472 $382 15.291514321238154 $297 $383 forward 7 unknown #
coedge $-1 $208 $203 $380 $384 forward $117 $-1 #
vertex $-1 $384 $385 #
straight-curve $-1 -54.258220772010709 11.93630318700937 10.779556051227996 0 1 0 I I #
coedge $-1 $386 $205 $208 $308 reversed $295 $-1 #
coedge $-1 $205 $386 $298 $381 forward $295 $-1 #
vertex $-1 $206 $387 #
straight-curve $-1 -59.01425214392529 15.886845910246574 35.842803314316669 0 0 1 I I #
straight-curve $-1 -59.01425214392529 15.886845910246574 3.9872391224195809 -0.57357642473473569 0 -0.81915205242281985 I I #
edge $-1 $388 -31.8583668377909 $209 -15.886845910246574 $303 $389 forward 7 unknown #
point $-1 -59.01425214392529 15.886845910246574 10.779556051227996 #
point $-1 -54.258220772010709 15.886845910246574 10.779556051227996 #
edge $-1 $390 1 $390 0 $212 $-1 forward 7 unknown #
vertex $-1 $213 $391 #
ellipse-curve $-1 -53.253631217658338 20.450137603830665 5.0148719702581168 -0.81915205242281985 0 0.57357642473473569 1.1471528494694714 0 1.6383041048456397 1 I I #
point $-1 -55.489083608498532 20.450137603830665 9.0217016916694348 #
edge $-1 $392 1 $392 0 $216 $-1 forward 7 unknown #
vertex $-1 $217 $393 #
ellipse-curve $-1 -53.253631217658338 27.295075144206802 5.0148719702581168 -0.81915205242281985 0 0.57357642473473569 1.1471528494694714 0 1.6383041048456397 1 I I #
point $-1 -55.489083608498532 27.295075144206802 9.0217016916694348 #
loop $-1 $-1 $229 $220 #
plane-surface $-1 0 31.8583668377909 0 0 -1 0 0 0 -1 forward_v I I I I #
coedge $-1 $394 $223 $228 $327 forward $139 $-1 #
coedge $-1 $223 $394 $324 $395 reversed $139 $-1 #
edge $-1 $325 73.361682842459473 $332 80.240420816912803 $223 $396 forward 7 unknown #
coedge $-1 $232 $226 $322 $395 forward $221 $-1 #
vertex $-1 $395 $397 #
straight-curve $-1 15.014665966422022 23.769195652488872 10.779556051227999 1 0 0 I I #
edge $-1 $332 9.862305029918927 $330 17.951476215220964 $321 $398 forward 7 unknown #
coedge $-1 $329 $229 $232 $334 reversed $319 $-1 #
coedge $-1 $229 $328 $394 $399 forward $319 $-1 #
vertex $-1 $230 $400 #
straight-curve $-1 -8.2105788699239497 31.8583668377909 50.972152411631761 -0.81915203911291934 0 0.57357644374324357 I I #
vertex $-1 $327 $401 #
straight-curve $-1 -37.669037816915463 23.769195652488872 71.599187826534191 -0.81915203911291934 0 0.57357644374324357 I I #
edge $-1 $402 -59.01425214392529 $233 -49.190396405492535 $328 $403 forward 7 unknown #
point $-1 49.190396405492535 31.858366837790907 10.779556051228006 #
point $-1 49.190396405492535 23.769195652488872 10.779556051228006 #
edge $-1 $404 1 $404 0 $236 $-1 forward 7 unknown #
vertex $-1 $237 $405 #
ellipse-curve $-1 53.361893048356329 26.080387419718026 6.2827417042663205 0.57357644374324357 0 0.81915203911291934 0.40957601955645967 0 -0.28678822187162178 1 I I #
point $-1 54.511900294265388 26.080387419718026 7.0533988421297185 #
edge $-1 $406 1 $406 0 $240 $-1 forward 7 unknown #
vertex $-1 $241 $407 #
ellipse-curve $-1 53.361893048356329 29.547175070561753 6.2827417042663205 0.57357644374324357 0 0.81915203911291934 0.40957601955645967 0 -0.28678822187162178 1 I I #
point $-1 54.511900294265388 29.547175070561753 7.0533988421297185 #
plane-surface $-1 59.01425214392529 0 0 -1 0 0 0 0 1 forward_v I I I I #
coedge $-1 $249 $247 $251 $350 reversed $161 $-1 #
edge $-1 $262 -10.779556051227996 $352 10.779556051227996 $261 $408 forward 7 unknown #
vertex $-1 $350 $409 #
straight-curve $-1 -59.01425214392529 -31.8583668377909 0 0 0 -1 I I #
edge $-1 $348 -31.8583668377909 $352 31.8583668377909 $346 $410 forward 7 unknown #
straight-curve $-1 0 -31.8583668377909 -10.779556051227996 -1 0 0 I I #
vertex $-1 $254 $411 #
straight-curve $-1 0 31.8583668377909 -10.779556051227996 1 0 0 I I #
point $-1 59.01425214392529 31.8583668377909 -10.779556051227996 #
point $-1 59.01425214392529 -31.8583668377909 -10.779556051227996 #
straight-curve $-1 -59.01425214392529 0 10.779556051227996 0 -1 0 I I #
point $-1 -59.01425214392529 31.8583668377909 10.779556051227996 #
point $-1 -59.01425214392529 -31.8583668377909 10.779556051227996 #
straight-curve $-1 59.01425214392529 -31.8583668377909 0 0 0 -1 I I #
straight-curve $-1 59.01425214392529 31.8583668377909 0 0 0 -1 I I #
plane-surface $-1 59.01425214392529 0 0 -1 0 0 0 0 1 forward_v I I I I #
coedge $-1 $365 $274 $285 $374 forward $180 $-1 #
coedge $-1 $274 $365 $288 $376 reversed $180 $-1 #
straight-curve $-1 59.01425214392529 -21.827231149017315 2.1829222072031245 0 0 1 I I #
coedge $-1 $363 $362 $277 $366 forward $180 $-1 #
edge $-1 $369 8.4058316523152605 $367 18.436967341088849 $365 $412 forward 7 unknown #
vertex $-1 $279 $413 #
straight-curve $-1 0 -31.8583668377909 1.2927810597709133 1 0 0 I I #
vertex $-1 $366 $414 #
straight-curve $-1 0 -21.827231149017315 1.2927810597709133 1 0 0 I I #
point $-1 59.01425214392529 -31.858366837790904 1.2927810597709133 #
point $-1 59.01425214392529 -21.827231149017315 1.2927810597709133 #
straight-curve $-1 -59.01425214392529 -13.421399496702055 7.4389077690415846 0 1 0 I I #
edge $-1 $286 -5.2559855618384601 $369 0.89014114743221118 $362 $415 forward 7 unknown #
point $-1 -59.01425214392529 -21.827231149017315 7.4389077690415846 #
edge $-1 $290 -7.4389077690415846 $367 -1.2927810597709133 $363 $416 forward 7 unknown #
point $-1 -59.01425214392529 -31.858366837790904 7.4389077690415846 #
straight-curve $-1 59.01425214392529 -31.8583668377909 0 0 0 -1 I I #
coedge $-1 $380 $297 $386 $417 reversed $199 $-1 #
coedge $-1 $297 $379 $300 $384 reversed $199 $-1 #
edge $-1 $382 -19.922063650781539 $305 -3.9505427232372039 $304 $418 forward 7 unknown #
vertex $-1 $299 $419 #
straight-curve $-1 -50.243400030769507 31.8583668377909 16.51331446331476 -0.57357642473473569 0 -0.81915205242281985 I I #
edge $-1 $301 54.258220772010709 $388 59.01425214392529 $380 $420 forward 7 unknown #
point $-1 -54.258220772010709 31.858366837790907 10.779556051227996 #
coedge $-1 $304 $303 $379 $417 forward $295 $-1 #
point $-1 -59.01425214392529 15.886845910246574 3.9872391224195809 #
vertex $-1 $384 $421 #
straight-curve $-1 -59.01425214392529 0 10.779556051227996 0 -1 0 I I #
vertex $-1 $311 $422 #
point $-1 -52.106478368188867 20.450137603830665 6.6531760751037563 #
vertex $-1 $315 $423 #
point $-1 -52.106478368188867 27.295075144206802 6.6531760751037563 #
coedge $-1 $322 $321 $329 $399 reversed $139 $-1 #
edge $-1 $325 23.769195652488872 $402 31.8583668377909 $322 $424 forward 7 unknown #
straight-curve $-1 59.01425214392529 23.769195652488872 84.141238893687472 0 0 -1 I I #
point $-1 59.01425214392529 23.769195652488872 10.779556051227996 #
straight-curve $-1 59.014252143925297 13.906890622569945 3.9008180767746765 0 1 0 I I #
edge $-1 $402 -10.779556051227996 $330 -3.9008180767746694 $394 $425 forward 7 unknown #
point $-1 59.01425214392529 31.858366837790907 3.9008180767746694 #
point $-1 59.01425214392529 23.769195652488872 3.9008180767746694 #
vertex $-1 $395 $426 #
straight-curve $-1 0 31.8583668377909 10.779556051227996 -1 0 0 I I #
vertex $-1 $337 $427 #
point $-1 53.77146906791279 26.080387419718026 5.9959534823946994 #
vertex $-1 $341 $428 #
point $-1 53.77146906791279 29.547175070561753 5.9959534823946994 #
straight-curve $-1 -59.01425214392529 31.8583668377909 0 0 0 -1 I I #
point $-1 -59.01425214392529 -31.8583668377909 -10.779556051227996 #
straight-curve $-1 -59.01425214392529 0 -10.779556051227996 0 1 0 I I #
point $-1 -59.01425214392529 31.8583668377909 -10.779556051227996 #
straight-curve $-1 -59.01425214392529 -13.421399496702055 1.2927810597709133 0 -1 0 I I #
point $-1 -59.01425214392529 -31.858366837790904 1.2927810597709133 #
point $-1 -59.01425214392529 -21.827231149017315 1.2927810597709133 #
straight-curve $-1 -59.01425214392529 -21.827231149017315 2.1829222072031245 0 0 -1 I I #
straight-curve $-1 -59.01425214392529 -31.8583668377909 0 0 0 -1 I I #
edge $-1 $388 -10.779556051227996 $382 -3.9872391224195809 $379 $429 forward 7 unknown #
straight-curve $-1 -59.01425214392529 11.93630318700937 3.9872391224195765 0 -1 0 I I #
point $-1 -59.01425214392529 31.858366837790907 3.9872391224195809 #
straight-curve $-1 0 31.8583668377909 10.779556051227996 -1 0 0 I I #
point $-1 -59.01425214392529 31.8583668377909 10.779556051227996 #
point $-1 -51.615327112812693 20.450137603830665 3.8677191207886459 #
point $-1 -51.615327112812693 27.295075144206802 3.8677191207886459 #
straight-curve $-1 59.01425214392529 0 10.779556051227996 0 1 0 I I #
straight-curve $-1 59.01425214392529 31.8583668377909 0 0 0 -1 I I #
point $-1 59.01425214392529 31.8583668377909 10.779556051227996 #
point $-1 53.075104826484711 26.080387419718026 5.8731656847098614 #
point $-1 53.075104826484711 29.547175070561753 5.8731656847098614 #
straight-curve $-1 -59.01425214392529 31.8583668377909 0 0 0 -1 I I #
End-of-ACIS-data 