500 0 7 0           
7 Unknown 11 ACIS 5.0 NT 24 Fri Mar 26 19:44:44 1999 
-1 9.9999999999999995e-007 1e-010 
body $-1 $7 $-1 $8 #
body $-1 $9 $-1 $10 #
body $-1 $11 $-1 $12 #
body $-1 $13 $-1 $14 #
body $-1 $15 $-1 $16 #
body $-1 $17 $-1 $18 #
body $-1 $19 $-1 $20 #
lump $-1 $-1 $21 $0 #
transform $-1 1 0 0 0 1 0 0 0 1 42.694174016541034 24.934924697773596 6.017727928022822 1 rotate no_reflect no_shear #
lump $-1 $-1 $22 $1 #
transform $-1 1 0 0 0 1 0 0 0 1 42.694174016541034 24.934924697773596 6.017727928022822 1 rotate no_reflect no_shear #
lump $-1 $-1 $23 $2 #
transform $-1 1 0 0 0 1 0 0 0 1 42.694174016541034 24.934924697773596 6.017727928022822 1 rotate no_reflect no_shear #
lump $-1 $-1 $24 $3 #
transform $-1 1 0 0 0 1 0 0 0 1 42.694174016541034 24.934924697773596 6.017727928022822 1 rotate no_reflect no_shear #
lump $-1 $-1 $25 $4 #
transform $-1 1 0 0 0 1 0 0 0 1 42.694174016541034 24.934924697773596 6.017727928022822 1 rotate no_reflect no_shear #
lump $-1 $-1 $26 $5 #
transform $-1 1 0 0 0 1 0 0 0 1 42.694174016541034 24.934924697773596 6.017727928022822 1 rotate no_reflect no_shear #
lump $-1 $-1 $27 $6 #
transform $-1 1 0 0 0 1 0 0 0 1 42.694174016541034 24.934924697773596 6.017727928022822 1 rotate no_reflect no_shear #
shell $-1 $-1 $-1 $28 $-1 $7 #
shell $-1 $-1 $-1 $29 $-1 $9 #
shell $-1 $-1 $-1 $30 $-1 $11 #
shell $-1 $-1 $-1 $31 $-1 $13 #
shell $-1 $-1 $-1 $32 $-1 $15 #
shell $-1 $-1 $-1 $33 $-1 $17 #
shell $-1 $-1 $-1 $34 $-1 $19 #
face $-1 $35 $36 $21 $-1 $37 forward single #
face $-1 $38 $39 $22 $-1 $40 forward single #
face $-1 $41 $42 $23 $-1 $43 reversed single #
face $-1 $44 $45 $24 $-1 $46 forward single #
face $-1 $47 $48 $25 $-1 $49 reversed single #
face $-1 $50 $51 $26 $-1 $52 forward single #
face $-1 $53 $54 $27 $-1 $55 forward single #
face $-1 $56 $57 $21 $-1 $58 reversed single #
loop $-1 $-1 $59 $28 #
plane-surface $-1 0 0 6.017727928022822 0 0 1 1 0 0 forward_v I I I I #
face $-1 $60 $61 $22 $-1 $62 reversed single #
loop $-1 $-1 $63 $29 #
plane-surface $-1 0 -21.390672660773813 -3.017727928022822 0 0 1 1 0 0 forward_v I I I I #
face $-1 $64 $65 $23 $-1 $66 reversed single #
loop $-1 $-1 $67 $30 #
plane-surface $-1 -115.88627448047797 15.101509868847629 44.671828458357389 0 1 0 -0.85716730853699208 0 0.51503806187062418 forward_v I I I I #
face $-1 $68 $69 $24 $-1 $70 forward single #
loop $-1 $71 $72 $31 #
cone-surface $-1 -40.255965851494558 20.018217283310612 2.8517282558110173 0.85716730853699208 0 -0.51503806187062418 0.51503806187062418 0 0.85716730853699208 1 I I 0 1 1 forward I I I I #
face $-1 $73 $74 $25 $-1 $75 reversed single #
loop $-1 $-1 $76 $32 #
plane-surface $-1 25.887998922288155 18.084769692457627 120.82932928568013 0 1 0 0.6018150307709319 0 0.79863550430605224 forward_v I I I I #
face $-1 $77 $78 $26 $-1 $79 forward single #
loop $-1 $80 $81 $33 #
cone-surface $-1 39.227895523936127 20.04195683683362 3.2331320085636883 -0.6018150307709319 0 -0.79863550430605224 0.19965887607651306 0 -0.15045375769273298 1 I I 0 1 0.25 forward I I I I #
face $-1 $82 $83 $27 $-1 $84 forward single #
loop $-1 $85 $86 $34 #
cone-surface $-1 39.227895523936127 22.97773755339761 3.2331320085636883 -0.6018150307709319 0 -0.79863550430605224 0.19965887607651306 0 -0.15045375769273298 1 I I 0 1 0.25 forward I I I I #
face $-1 $87 $88 $21 $-1 $89 reversed single #
loop $-1 $-1 $90 $35 #
plane-surface $-1 0 0 -6.017727928022822 0 0 1 1 0 0 forward_v I I I I #
coedge $-1 $91 $92 $93 $94 forward $36 $-1 #
face $-1 $95 $96 $22 $-1 $97 reversed single #
loop $-1 $-1 $98 $38 #
plane-surface $-1 0 -17.84642062377403 -4.517727928022822 0 -1 0 0 0 -1 forward_v I I I I #
coedge $-1 $99 $100 $101 $102 reversed $39 $-1 #
face $-1 $103 $104 $23 $-1 $105 reversed single #
loop $-1 $-1 $106 $41 #
plane-surface $-1 -42.694174016541055 20.018217283310612 0.69357918106447869 -0.85716730853699208 0 0.51503806187062418 0.51503806187062418 0 0.85716730853699208 forward_v I I I I #
coedge $-1 $107 $108 $109 $110 reversed $42 $-1 #
face $-1 $-1 $111 $24 $-1 $112 forward single #
loop $-1 $113 $114 $44 #
cone-surface $-1 -38.988709633009137 20.018217283310612 2.090283926143071 0.85716730853699208 0 -0.51503806187062418 0.25751903093531209 0 0.42858365426849604 1 I I -0.70710678118654768 0.70710678118654735 0.5 forward I I I I #
loop $-1 $-1 $115 $31 #
coedge $-1 $72 $72 $116 $117 reversed $45 $-1 #
face $-1 $118 $119 $25 $-1 $120 forward single #
loop $-1 $-1 $121 $47 #
plane-surface $-1 -25.499992376720172 21.509847195115611 52.635162892418933 0.6018150307709319 0 0.79863550430605224 0.79863550430605224 0 -0.6018150307709319 forward_v I I I I #
coedge $-1 $122 $123 $124 $125 reversed $48 $-1 #
face $-1 $-1 $126 $26 $-1 $127 forward single #
loop $-1 $128 $129 $50 #
cone-surface $-1 38.851761129704293 20.04195683683362 2.7339848183724058 -0.6018150307709319 0 -0.79863550430605224 0.099829438038256529 0 -0.075226878846366488 1 I I -0.70710678118654746 0.70710678118654746 0.125 forward I I I I #
loop $-1 $-1 $130 $33 #
coedge $-1 $81 $81 $131 $132 reversed $51 $-1 #
face $-1 $-1 $133 $27 $-1 $134 forward single #
loop $-1 $135 $136 $53 #
cone-surface $-1 38.851761129704293 22.97773755339761 2.7339848183724058 -0.6018150307709319 0 -0.79863550430605224 0.099829438038256529 0 -0.075226878846366488 1 I I -0.70710678118654746 0.70710678118654746 0.125 forward I I I I #
loop $-1 $-1 $137 $34 #
coedge $-1 $86 $86 $138 $139 reversed $54 $-1 #
face $-1 $140 $141 $21 $-1 $142 reversed single #
loop $-1 $-1 $143 $56 #
plane-surface $-1 0 -24.934924697773596 0 0 1 0 0 0 1 forward_v I I I I #
coedge $-1 $144 $145 $146 $147 forward $57 $-1 #
coedge $-1 $148 $59 $149 $150 forward $36 $-1 #
coedge $-1 $59 $148 $151 $152 forward $36 $-1 #
coedge $-1 $153 $154 $59 $94 reversed $155 $-1 #
edge $-1 $156 -24.934924697773596 $157 24.934924697773596 $93 $158 forward 7 unknown #
face $-1 $159 $160 $22 $-1 $161 reversed single #
loop $-1 $-1 $162 $60 #
plane-surface $-1 0 0 -6.017727928022822 0 0 1 1 0 0 forward_v I I I I #
coedge $-1 $163 $164 $165 $166 reversed $61 $-1 #
coedge $-1 $167 $63 $164 $168 forward $39 $-1 #
coedge $-1 $63 $167 $169 $170 reversed $39 $-1 #
coedge $-1 $171 $165 $63 $102 forward $160 $-1 #
edge $-1 $172 7.1510842933871235 $173 14.239588367386689 $101 $174 forward 7 unknown #
face $-1 $175 $176 $23 $-1 $177 reversed single #
loop $-1 $-1 $178 $64 #
plane-surface $-1 0 24.934924697773596 0 0 -1 0 0 0 -1 forward_v I I I I #
coedge $-1 $179 $180 $181 $182 reversed $65 $-1 #
coedge $-1 $108 $67 $183 $184 reversed $42 $-1 #
coedge $-1 $67 $107 $179 $185 reversed $42 $-1 #
coedge $-1 $181 $186 $67 $110 forward $187 $-1 #
edge $-1 $188 15.248963223697949 $189 18.448034425357037 $109 $190 forward 7 unknown #
loop $-1 $-1 $116 $68 #
plane-surface $-1 -42.694174016541055 20.018217283310612 0.69357918106447869 -0.85716730853699208 0 0.51503806187062418 0.51503806187062418 0 0.85716730853699208 forward_v I I I I #
loop $-1 $-1 $191 $44 #
coedge $-1 $114 $114 $115 $192 reversed $69 $-1 #
coedge $-1 $115 $115 $114 $192 forward $71 $-1 #
coedge $-1 $116 $116 $72 $117 forward $111 $-1 #
edge $-1 $193 0 $193 6.2831853071796004 $116 $194 forward 7 unknown #
face $-1 $195 $196 $25 $-1 $197 reversed single #
loop $-1 $-1 $198 $73 #
plane-surface $-1 0 0 6.017727928022822 0 0 1 1 0 0 forward_v I I I I #
coedge $-1 $199 $200 $201 $202 reversed $74 $-1 #
coedge $-1 $123 $76 $203 $204 reversed $48 $-1 #
coedge $-1 $76 $122 $199 $205 reversed $48 $-1 #
coedge $-1 $201 $206 $76 $125 forward $207 $-1 #
edge $-1 $208 54.396936714817244 $209 59.167493049429467 $124 $210 forward 7 unknown #
loop $-1 $-1 $131 $77 #
plane-surface $-1 -25.499992376720172 21.509847195115611 52.635162892418933 0.6018150307709319 0 0.79863550430605224 0.79863550430605224 0 -0.6018150307709319 forward_v I I I I #
loop $-1 $-1 $211 $50 #
coedge $-1 $129 $129 $130 $212 reversed $78 $-1 #
coedge $-1 $130 $130 $129 $212 forward $80 $-1 #
coedge $-1 $131 $131 $81 $132 forward $126 $-1 #
edge $-1 $213 0 $213 6.2831853071796004 $131 $214 forward 7 unknown #
loop $-1 $-1 $138 $82 #
plane-surface $-1 -25.499992376720172 21.509847195115611 52.635162892418933 0.6018150307709319 0 0.79863550430605224 0.79863550430605224 0 -0.6018150307709319 forward_v I I I I #
loop $-1 $-1 $215 $53 #
coedge $-1 $136 $136 $137 $216 reversed $83 $-1 #
coedge $-1 $137 $137 $136 $216 forward $85 $-1 #
coedge $-1 $138 $138 $86 $139 forward $133 $-1 #
edge $-1 $217 0 $217 6.2831853071796004 $138 $218 forward 7 unknown #
face $-1 $219 $220 $21 $-1 $221 reversed single #
loop $-1 $-1 $222 $87 #
plane-surface $-1 -42.694174016541034 0 0 1 0 0 0 0 -1 forward_v I I I I #
coedge $-1 $223 $151 $224 $225 forward $88 $-1 #
coedge $-1 $226 $90 $223 $227 forward $57 $-1 #
coedge $-1 $90 $226 $228 $229 forward $57 $-1 #
coedge $-1 $154 $153 $90 $147 reversed $155 $-1 #
edge $-1 $230 -24.934924697773596 $231 24.934924697773596 $146 $232 forward 7 unknown #
coedge $-1 $92 $91 $233 $234 forward $36 $-1 #
coedge $-1 $235 $236 $91 $150 reversed $220 $-1 #
edge $-1 $157 -42.694174016541034 $237 42.694174016541034 $149 $238 forward 7 unknown #
coedge $-1 $143 $239 $92 $152 reversed $88 $-1 #
edge $-1 $240 -42.694174016541034 $156 42.694174016541034 $151 $241 forward 7 unknown #
coedge $-1 $146 $93 $239 $242 forward $155 $-1 #
coedge $-1 $93 $146 $235 $243 reversed $155 $-1 #
loop $-1 $-1 $153 $219 #
vertex $-1 $94 $244 #
vertex $-1 $94 $245 #
straight-curve $-1 42.694174016541034 0 6.017727928022822 0 1 0 I I #
face $-1 $246 $247 $22 $-1 $248 reversed single #
loop $-1 $-1 $165 $95 #
plane-surface $-1 42.694174016541034 0 0 -1 0 0 0 0 1 forward_v I I I I #
coedge $-1 $249 $250 $163 $251 forward $96 $-1 #
coedge $-1 $252 $98 $162 $251 reversed $61 $-1 #
coedge $-1 $98 $252 $99 $168 reversed $61 $-1 #
coedge $-1 $101 $253 $98 $166 forward $160 $-1 #
edge $-1 $254 -3.758863964011411 $172 -0.75886396401141099 $165 $255 forward 7 unknown #
coedge $-1 $100 $99 $256 $257 reversed $39 $-1 #
edge $-1 $172 -42.694174016541034 $258 42.694174016541034 $164 $259 forward 7 unknown #
coedge $-1 $260 $261 $100 $170 forward $247 $-1 #
edge $-1 $173 -42.694174016541034 $262 42.694174016541034 $169 $263 forward 7 unknown #
coedge $-1 $253 $101 $261 $264 forward $160 $-1 #
vertex $-1 $102 $265 #
vertex $-1 $264 $266 #
straight-curve $-1 42.694174016541034 -10.695336330386906 -3.017727928022822 0 -1 0 I I #
face $-1 $-1 $187 $23 $-1 $267 forward single #
loop $-1 $-1 $268 $103 #
plane-surface $-1 -42.694174016541034 0 0 1 0 0 0 0 -1 forward_v I I I I #
coedge $-1 $269 $270 $180 $271 forward $104 $-1 #
coedge $-1 $272 $106 $108 $185 forward $65 $-1 #
coedge $-1 $106 $272 $178 $271 reversed $65 $-1 #
coedge $-1 $273 $109 $106 $182 forward $187 $-1 #
edge $-1 $189 5.0924012271923225 $274 14.92581605611829 $181 $275 forward 7 unknown #
coedge $-1 $276 $268 $107 $184 forward $176 $-1 #
edge $-1 $277 -21.64233504811418 $188 -16.318186301155873 $183 $278 forward 7 unknown #
edge $-1 $189 -6.2113296831695202 $277 -4.1431396825663817e-014 $108 $279 forward 7 unknown #
coedge $-1 $109 $273 $276 $280 forward $187 $-1 #
loop $-1 $-1 $181 $175 #
vertex $-1 $184 $281 #
vertex $-1 $110 $282 #
straight-curve $-1 -57.943137240238983 15.101509868847629 6.017727928022822 1 0 0 I I #
coedge $-1 $191 $191 $-1 $283 reversed $113 $-1 #
edge $-1 $284 0 $284 6.2831853071796004 $114 $285 forward 7 unknown #
vertex $-1 $117 $286 #
ellipse-curve $-1 -41.094638415711493 20.018217283310612 3.3556535545436592 -0.85716730853699208 0 0.51503806187062418 0.51503806187062418 0 0.85716730853699208 1 I I #
face $-1 $-1 $207 $25 $-1 $287 reversed single #
loop $-1 $-1 $288 $118 #
plane-surface $-1 0 24.934924697773596 0 0 -1 0 0 0 -1 forward_v I I I I #
coedge $-1 $203 $289 $290 $291 forward $119 $-1 #
coedge $-1 $290 $121 $123 $205 forward $74 $-1 #
coedge $-1 $121 $290 $288 $292 reversed $74 $-1 #
coedge $-1 $293 $124 $121 $202 forward $207 $-1 #
edge $-1 $209 7.3298460948998212 $294 14.18000110021579 $201 $295 forward 7 unknown #
coedge $-1 $296 $198 $122 $204 forward $119 $-1 #
edge $-1 $297 23.419432600958086 $208 29.750174555396956 $203 $298 forward 7 unknown #
edge $-1 $209 -85.388348033082096 $297 -77.461400232358201 $123 $299 forward 7 unknown #
coedge $-1 $124 $293 $296 $300 reversed $207 $-1 #
loop $-1 $-1 $201 $195 #
vertex $-1 $300 $301 #
vertex $-1 $125 $302 #
straight-curve $-1 42.694174016541034 18.084769692457627 60.414664642840066 0 0 -1 I I #
coedge $-1 $211 $211 $-1 $303 reversed $128 $-1 #
edge $-1 $304 0 $304 6.2831853071796004 $129 $305 forward 7 unknown #
vertex $-1 $132 $306 #
ellipse-curve $-1 39.528803039321595 20.04195683683362 3.6324497607167201 0.6018150307709319 0 0.79863550430605224 0.19965887607651306 0 -0.15045375769273298 1 I I #
coedge $-1 $215 $215 $-1 $307 reversed $135 $-1 #
edge $-1 $308 0 $308 6.2831853071796004 $136 $309 forward 7 unknown #
vertex $-1 $139 $310 #
ellipse-curve $-1 39.528803039321595 22.97773755339761 3.6324497607167201 0.6018150307709319 0 0.79863550430605224 0.19965887607651306 0 -0.15045375769273298 1 I I #
face $-1 $-1 $155 $21 $-1 $311 reversed single #
loop $-1 $-1 $235 $140 #
plane-surface $-1 0 24.934924697773596 0 0 -1 0 0 0 -1 forward_v I I I I #
coedge $-1 $312 $233 $236 $313 forward $141 $-1 #
coedge $-1 $239 $143 $144 $227 reversed $88 $-1 #
coedge $-1 $233 $312 $143 $225 reversed $141 $-1 #
edge $-1 $240 -6.017727928022822 $314 6.017727928022822 $224 $315 forward 7 unknown #
coedge $-1 $145 $144 $312 $316 forward $57 $-1 #
edge $-1 $231 -42.694174016541034 $314 42.694174016541034 $223 $317 forward 7 unknown #
coedge $-1 $236 $235 $145 $229 reversed $220 $-1 #
edge $-1 $318 -42.694174016541034 $230 42.694174016541034 $228 $319 forward 7 unknown #
vertex $-1 $147 $320 #
vertex $-1 $242 $321 #
straight-curve $-1 42.694174016541034 0 -6.017727928022822 0 -1 0 I I #
coedge $-1 $222 $224 $148 $234 reversed $141 $-1 #
edge $-1 $237 -24.934924697773596 $240 24.934924697773596 $233 $322 forward 7 unknown #
coedge $-1 $228 $149 $154 $243 forward $220 $-1 #
coedge $-1 $149 $228 $222 $313 reversed $220 $-1 #
vertex $-1 $150 $323 #
straight-curve $-1 0 24.934924697773596 6.017727928022822 -1 0 0 I I #
coedge $-1 $151 $223 $153 $242 reversed $88 $-1 #
vertex $-1 $234 $324 #
straight-curve $-1 0 -24.934924697773596 6.017727928022822 1 0 0 I I #
edge $-1 $156 -6.017727928022822 $231 6.017727928022822 $153 $325 forward 7 unknown #
edge $-1 $157 -6.017727928022822 $230 6.017727928022822 $154 $326 forward 7 unknown #
point $-1 42.694174016541034 -24.934924697773596 6.017727928022822 #
point $-1 42.694174016541034 24.934924697773596 6.017727928022822 #
face $-1 $-1 $327 $22 $-1 $328 reversed single #
loop $-1 $-1 $169 $159 #
plane-surface $-1 0 -24.934924697773596 0 0 1 0 0 0 1 forward_v I I I I #
coedge $-1 $329 $162 $253 $330 forward $96 $-1 #
coedge $-1 $162 $329 $331 $332 forward $96 $-1 #
edge $-1 $333 -42.694174016541034 $254 42.694174016541034 $162 $334 forward 7 unknown #
coedge $-1 $164 $163 $335 $336 reversed $61 $-1 #
coedge $-1 $165 $171 $249 $330 reversed $160 $-1 #
vertex $-1 $330 $337 #
straight-curve $-1 42.694174016541034 -17.84642062377403 -2.258863964011411 0 0 1 I I #
coedge $-1 $335 $338 $167 $257 forward $327 $-1 #
edge $-1 $262 -14.239588367386689 $258 -7.1510842933871235 $256 $339 forward 7 unknown #
vertex $-1 $257 $340 #
straight-curve $-1 0 -17.84642062377403 -3.017727928022822 -1 0 0 I I #
coedge $-1 $341 $169 $338 $342 forward $247 $-1 #
coedge $-1 $169 $341 $171 $264 reversed $247 $-1 #
vertex $-1 $342 $343 #
straight-curve $-1 0 -24.934924697773596 -3.017727928022822 -1 0 0 I I #
edge $-1 $173 3.017727928022822 $344 6.017727928022822 $171 $345 forward 7 unknown #
point $-1 42.694174016541034 -17.84642062377403 -3.017727928022822 #
point $-1 42.694174016541034 -24.934924697773596 -3.017727928022822 #
plane-surface $-1 0 0 6.017727928022822 0 0 1 1 0 0 forward_v I I I I #
coedge $-1 $183 $346 $272 $347 forward $176 $-1 #
coedge $-1 $270 $178 $346 $348 reversed $104 $-1 #
coedge $-1 $178 $269 $273 $349 reversed $104 $-1 #
edge $-1 $274 4.4859759362085496 $350 10.697305619378028 $178 $351 forward 7 unknown #
coedge $-1 $180 $179 $268 $347 reversed $65 $-1 #
coedge $-1 $186 $181 $270 $349 forward $187 $-1 #
vertex $-1 $349 $352 #
straight-curve $-1 -39.495102814881953 10.009108641655306 6.0177279280228229 0 1 0 I I #
coedge $-1 $346 $183 $186 $280 reversed $176 $-1 #
vertex $-1 $184 $353 #
straight-curve $-1 -42.694174016541034 15.101509868847629 22.335914229178695 0 0 1 I I #
straight-curve $-1 -42.694174016541055 15.101509868847629 0.69357918106447869 -0.51503806187062418 0 -0.85716730853699208 I I #
edge $-1 $354 -24.934924697773596 $188 -15.101509868847629 $276 $355 forward 7 unknown #
point $-1 -42.694174016541034 15.101509868847629 6.017727928022822 #
point $-1 -39.495102814881946 15.101509868847629 6.017727928022822 #
edge $-1 $356 1 $356 0 $191 $-1 forward 7 unknown #
vertex $-1 $192 $357 #
ellipse-curve $-1 -39.41729328727763 20.018217283310612 2.3478029570783829 -0.85716730853699208 0 0.51503806187062418 0.51503806187062418 0 0.85716730853699208 1 I I #
point $-1 -40.57960035384086 20.018217283310612 4.2128208630806432 #
plane-surface $-1 42.694174016541034 0 0 -1 0 0 0 0 1 forward_v I I I I #
coedge $-1 $358 $359 $200 $292 forward $196 $-1 #
coedge $-1 $198 $296 $358 $360 forward $119 $-1 #
coedge $-1 $200 $199 $198 $291 reversed $74 $-1 #
edge $-1 $361 -14.18000110021579 $297 -7.3298460948998212 $198 $362 forward 7 unknown #
edge $-1 $294 -59.367432309423833 $361 -51.440484508699939 $288 $363 forward 7 unknown #
coedge $-1 $206 $201 $359 $364 reversed $207 $-1 #
vertex $-1 $202 $365 #
straight-curve $-1 42.694174016541027 10.754923597557806 1.2471715934106058 0 1 0 I I #
coedge $-1 $289 $203 $206 $300 forward $119 $-1 #
vertex $-1 $204 $366 #
straight-curve $-1 12.943999461144077 18.084769692457627 6.017727928022822 1 0 0 I I #
straight-curve $-1 -25.499992376720172 18.084769692457627 52.635162892418933 -0.79863550430605224 0 0.6018150307709319 I I #
edge $-1 $208 18.084769692457627 $367 24.934924697773596 $206 $368 forward 7 unknown #
point $-1 42.694174016541034 18.084769692457627 6.017727928022822 #
point $-1 42.694174016541041 18.084769692457627 1.2471715934105987 #
edge $-1 $369 1 $369 0 $211 $-1 forward 7 unknown #
vertex $-1 $212 $370 #
ellipse-curve $-1 38.926988008550659 20.04195683683362 2.8338142564106623 0.6018150307709319 0 0.79863550430605224 0.19965887607651306 0 -0.15045375769273298 1 I I #
point $-1 39.728461915398107 20.04195683683362 3.4819960030239816 #
edge $-1 $371 1 $371 0 $215 $-1 forward 7 unknown #
vertex $-1 $216 $372 #
ellipse-curve $-1 38.926988008550659 22.97773755339761 2.8338142564106623 0.6018150307709319 0 0.79863550430605224 0.19965887607651306 0 -0.15045375769273298 1 I I #
point $-1 39.728461915398107 22.97773755339761 3.4819960030239816 #
plane-surface $-1 42.694174016541034 0 0 -1 0 0 0 0 1 forward_v I I I I #
coedge $-1 $224 $222 $226 $316 reversed $141 $-1 #
edge $-1 $237 -6.017727928022822 $318 6.017727928022822 $236 $373 forward 7 unknown #
vertex $-1 $316 $374 #
straight-curve $-1 -42.694174016541034 -24.934924697773596 0 0 0 -1 I I #
edge $-1 $314 -24.934924697773596 $318 24.934924697773596 $312 $375 forward 7 unknown #
straight-curve $-1 0 -24.934924697773596 -6.017727928022822 -1 0 0 I I #
vertex $-1 $229 $376 #
straight-curve $-1 0 24.934924697773596 -6.017727928022822 1 0 0 I I #
point $-1 42.694174016541034 24.934924697773596 -6.017727928022822 #
point $-1 42.694174016541034 -24.934924697773596 -6.017727928022822 #
straight-curve $-1 -42.694174016541034 0 6.017727928022822 0 -1 0 I I #
point $-1 -42.694174016541034 24.934924697773596 6.017727928022822 #
point $-1 -42.694174016541034 -24.934924697773596 6.017727928022822 #
straight-curve $-1 42.694174016541034 -24.934924697773596 0 0 0 -1 I I #
straight-curve $-1 42.694174016541034 24.934924697773596 0 0 0 -1 I I #
loop $-1 $-1 $335 $246 #
plane-surface $-1 -42.694174016541034 0 0 1 0 0 0 0 -1 forward_v I I I I #
coedge $-1 $250 $249 $341 $377 forward $96 $-1 #
edge $-1 $254 17.84642062377403 $344 24.934924697773596 $253 $378 forward 7 unknown #
coedge $-1 $338 $335 $250 $332 reversed $327 $-1 #
edge $-1 $379 -24.934924697773596 $333 -17.84642062377403 $331 $380 forward 7 unknown #
vertex $-1 $336 $381 #
straight-curve $-1 0 -17.84642062377403 -6.017727928022822 1 0 0 I I #
coedge $-1 $331 $256 $252 $336 forward $327 $-1 #
edge $-1 $258 0.75886396401141099 $333 3.758863964011411 $335 $382 forward 7 unknown #
point $-1 42.694174016541034 -17.84642062377403 -6.017727928022822 #
coedge $-1 $256 $331 $260 $342 reversed $327 $-1 #
straight-curve $-1 -42.694174016541034 -10.695336330386906 -3.017727928022822 0 1 0 I I #
point $-1 -42.694174016541034 -17.84642062377403 -3.017727928022822 #
coedge $-1 $261 $260 $329 $377 reversed $247 $-1 #
edge $-1 $262 3.017727928022822 $379 6.017727928022822 $338 $383 forward 7 unknown #
point $-1 -42.694174016541034 -24.934924697773596 -3.017727928022822 #
vertex $-1 $264 $384 #
straight-curve $-1 42.694174016541034 -24.934924697773596 0 0 0 -1 I I #
coedge $-1 $268 $276 $269 $348 forward $176 $-1 #
edge $-1 $350 -14.92581605611829 $277 -5.0924012271923225 $268 $385 forward 7 unknown #
edge $-1 $354 -6.017727928022822 $350 -0.69357918106451422 $269 $386 forward 7 unknown #
edge $-1 $274 39.495102814881946 $354 42.694174016541034 $270 $387 forward 7 unknown #
vertex $-1 $271 $388 #
straight-curve $-1 -37.184654463098838 24.934924697773596 9.8629598474244187 -0.51503806187062429 0 -0.85716730853699219 I I #
point $-1 -39.495102814881946 24.934924697773596 6.017727928022822 #
point $-1 -42.694174016541034 15.101509868847629 0.69357918106451422 #
vertex $-1 $349 $389 #
straight-curve $-1 -42.694174016541034 0 6.017727928022822 0 -1 0 I I #
vertex $-1 $283 $390 #
point $-1 -38.902255225407011 20.018217283310612 3.2049702656153753 #
coedge $-1 $359 $288 $289 $360 reversed $196 $-1 #
coedge $-1 $288 $358 $293 $364 forward $196 $-1 #
edge $-1 $367 -42.694174016541034 $361 -36.363432062102163 $358 $391 forward 7 unknown #
vertex $-1 $292 $392 #
straight-curve $-1 36.363432062102163 10.754923597557806 6.017727928022822 0 -1 0 I I #
straight-curve $-1 -4.7187652252510759 24.934924697773596 36.975384695497716 -0.79863550430605224 0 0.6018150307709319 I I #
edge $-1 $367 -6.017727928022822 $294 -1.2471715934105987 $293 $393 forward 7 unknown #
point $-1 42.694174016541034 24.934924697773596 1.2471715934105987 #
point $-1 36.363432062102163 18.084769692457627 6.017727928022822 #
vertex $-1 $300 $394 #
straight-curve $-1 42.694174016541034 0 6.017727928022822 0 1 0 I I #
vertex $-1 $303 $395 #
point $-1 39.126646884627171 20.04195683683362 2.6833604987179296 #
vertex $-1 $307 $396 #
point $-1 39.126646884627171 22.97773755339761 2.6833604987179296 #
straight-curve $-1 -42.694174016541034 24.934924697773596 0 0 0 -1 I I #
point $-1 -42.694174016541034 -24.934924697773596 -6.017727928022822 #
straight-curve $-1 -42.694174016541034 0 -6.017727928022822 0 1 0 I I #
point $-1 -42.694174016541034 24.934924697773596 -6.017727928022822 #
edge $-1 $344 -42.694174016541034 $379 42.694174016541034 $341 $397 forward 7 unknown #
straight-curve $-1 42.694174016541034 0 -6.017727928022822 0 -1 0 I I #
vertex $-1 $332 $398 #
straight-curve $-1 -42.694174016541034 0 -6.017727928022822 0 1 0 I I #
point $-1 -42.694174016541034 -17.84642062377403 -6.017727928022822 #
straight-curve $-1 -42.694174016541034 -17.84642062377403 -2.258863964011411 0 0 -1 I I #
straight-curve $-1 -42.694174016541034 -24.934924697773596 0 0 0 -1 I I #
point $-1 42.694174016541034 -24.934924697773596 -6.017727928022822 #
straight-curve $-1 -42.694174016541034 10.009108641655306 0.69357918106450911 0 -1 0 I I #
straight-curve $-1 -42.694174016541034 24.934924697773596 0 0 0 -1 I I #
straight-curve $-1 0 24.934924697773596 6.017727928022822 -1 0 0 I I #
point $-1 -42.694174016541034 24.934924697773596 0.69357918106451422 #
point $-1 -42.694174016541034 24.934924697773596 6.017727928022822 #
point $-1 -38.560125978740643 20.018217283310612 1.8327648952077591 #
straight-curve $-1 0 24.934924697773596 6.017727928022822 -1 0 0 I I #
point $-1 36.363432062102163 24.934924697773596 6.017727928022822 #
straight-curve $-1 42.694174016541034 24.934924697773596 0 0 0 -1 I I #
point $-1 42.694174016541034 24.934924697773596 6.017727928022822 #
point $-1 38.776534250857928 20.04195683683362 2.6341553803341493 #
point $-1 38.776534250857928 22.97773755339761 2.6341553803341493 #
straight-curve $-1 0 -24.934924697773596 -6.017727928022822 -1 0 0 I I #
point $-1 -42.694174016541034 -24.934924697773596 -6.017727928022822 #
End-of-ACIS-data 