500 0 8 0           
7 Unknown 11 ACIS 5.0 NT 24 Thu Mar 25 16:53:13 1999 
-1 9.9999999999999995e-007 1e-010 
body $-1 $8 $-1 $9 #
body $-1 $10 $-1 $11 #
body $-1 $12 $-1 $13 #
body $-1 $14 $-1 $15 #
body $-1 $16 $-1 $17 #
body $-1 $18 $-1 $19 #
body $-1 $20 $-1 $21 #
body $-1 $22 $-1 $23 #
lump $-1 $-1 $24 $0 #
transform $-1 1 0 0 0 1 0 0 0 1 71.130100405896172 29.730415238777805 9.7620322457208264 1 rotate no_reflect no_shear #
lump $-1 $-1 $25 $1 #
transform $-1 1 0 0 0 1 0 0 0 1 71.130100405896172 29.730415238777805 9.7620322457208264 1 rotate no_reflect no_shear #
lump $-1 $-1 $26 $2 #
transform $-1 1 0 0 0 1 0 0 0 1 71.130100405896172 29.730415238777805 9.7620322457208264 1 rotate no_reflect no_shear #
lump $-1 $-1 $27 $3 #
transform $-1 1 0 0 0 1 0 0 0 1 71.130100405896172 29.730415238777805 9.7620322457208264 1 rotate no_reflect no_shear #
lump $-1 $-1 $28 $4 #
transform $-1 1 0 0 0 1 0 0 0 1 71.130100405896172 29.730415238777805 9.7620322457208264 1 rotate no_reflect no_shear #
lump $-1 $-1 $29 $5 #
transform $-1 1 0 0 0 1 0 0 0 1 71.130100405896172 29.730415238777805 9.7620322457208264 1 rotate no_reflect no_shear #
lump $-1 $-1 $30 $6 #
transform $-1 1 0 0 0 1 0 0 0 1 71.130100405896172 29.730415238777805 9.7620322457208264 1 rotate no_reflect no_shear #
lump $-1 $-1 $31 $7 #
transform $-1 1 0 0 0 1 0 0 0 1 71.130100405896172 29.730415238777805 9.7620322457208264 1 rotate no_reflect no_shear #
shell $-1 $-1 $-1 $32 $-1 $8 #
shell $-1 $-1 $-1 $33 $-1 $10 #
shell $-1 $-1 $-1 $34 $-1 $12 #
shell $-1 $-1 $-1 $35 $-1 $14 #
shell $-1 $-1 $-1 $36 $-1 $16 #
shell $-1 $-1 $-1 $37 $-1 $18 #
shell $-1 $-1 $-1 $38 $-1 $20 #
shell $-1 $-1 $-1 $39 $-1 $22 #
face $-1 $40 $41 $24 $-1 $42 forward single #
face $-1 $43 $44 $25 $-1 $45 reversed single #
face $-1 $46 $47 $26 $-1 $48 reversed single #
face $-1 $49 $50 $27 $-1 $51 forward single #
face $-1 $52 $53 $28 $-1 $54 forward single #
face $-1 $55 $56 $29 $-1 $57 reversed single #
face $-1 $58 $59 $30 $-1 $60 forward single #
face $-1 $61 $62 $31 $-1 $63 forward single #
face $-1 $64 $65 $24 $-1 $66 reversed single #
loop $-1 $-1 $67 $32 #
plane-surface $-1 0 0 9.7620322457208264 0 0 1 1 0 0 forward_v I I I I #
face $-1 $68 $69 $25 $-1 $70 reversed single #
loop $-1 $-1 $71 $33 #
plane-surface $-1 -68.993901026984602 -25.371740981079824 0 1 0 0 0 0 -1 forward_v I I I I #
face $-1 $72 $73 $26 $-1 $74 reversed single #
loop $-1 $-1 $75 $34 #
plane-surface $-1 -190.43954495544875 -15.866353640190896 80.248871990168624 0 1 0 -0.83867057594974714 0 0.54463902268945019 forward_v I I I I #
face $-1 $76 $77 $27 $-1 $78 forward single #
loop $-1 $79 $80 $35 #
cone-surface $-1 -67.363271336746138 -12.998876307392042 5.2937261570417382 0.83867057594974714 0 -0.54463902268945019 0.54463902268945019 0 0.83867057594974714 1 I I 0 1 1 forward I I I I #
face $-1 $81 $82 $28 $-1 $83 forward single #
loop $-1 $84 $85 $36 #
cone-surface $-1 -67.363271336746138 -8.6976603081937647 5.2937261570417382 0.83867057594974714 0 -0.54463902268945019 0.54463902268945019 0 0.83867057594974714 1 I I 0 1 1 forward I I I I #
face $-1 $86 $87 $29 $-1 $88 reversed single #
loop $-1 $-1 $89 $37 #
plane-surface $-1 -190.43954495544875 14.547531490790872 80.248871990168624 0 1 0 -0.83867057594974714 0 0.54463902268945019 forward_v I I I I #
face $-1 $90 $91 $30 $-1 $92 forward single #
loop $-1 $93 $94 $38 #
cone-surface $-1 -67.363271336746138 17.415008823589726 5.2937261570417382 0.83867057594974714 0 -0.54463902268945019 0.54463902268945019 0 0.83867057594974714 1 I I 0 1 1 forward I I I I #
face $-1 $95 $96 $31 $-1 $97 forward single #
loop $-1 $98 $99 $39 #
cone-surface $-1 -67.363271336746138 21.716224822788003 5.2937261570417382 0.83867057594974714 0 -0.54463902268945019 0.54463902268945019 0 0.83867057594974714 1 I I 0 1 1 forward I I I I #
face $-1 $100 $101 $24 $-1 $102 reversed single #
loop $-1 $-1 $103 $40 #
plane-surface $-1 0 0 -9.7620322457208264 0 0 1 1 0 0 forward_v I I I I #
coedge $-1 $104 $105 $106 $107 forward $41 $-1 #
face $-1 $108 $109 $25 $-1 $110 reversed single #
loop $-1 $-1 $111 $43 #
plane-surface $-1 -66.285158286382213 -21.013066723381844 0 0 -1 0 0 0 -1 forward_v I I I I #
coedge $-1 $112 $113 $114 $115 forward $44 $-1 #
face $-1 $116 $117 $26 $-1 $118 reversed single #
loop $-1 $-1 $119 $46 #
plane-surface $-1 -71.130100405896187 -10.848268307792903 2.7684152524291079 -0.83867057594974714 0 0.54463902268945019 0.54463902268945019 0 0.83867057594974714 forward_v I I I I #
coedge $-1 $120 $121 $122 $123 reversed $47 $-1 #
face $-1 $-1 $124 $27 $-1 $125 forward single #
loop $-1 $126 $127 $49 #
cone-surface $-1 -65.447960896236367 -12.998876307392042 4.0499090536637787 0.83867057594974714 0 -0.54463902268945019 0.2723195113447251 0 0.41933528797487357 1 I I -0.70710678118654746 0.70710678118654746 0.5 forward I I I I #
loop $-1 $-1 $128 $35 #
coedge $-1 $80 $80 $129 $130 reversed $50 $-1 #
face $-1 $-1 $131 $28 $-1 $132 forward single #
loop $-1 $133 $134 $52 #
cone-surface $-1 -65.447960896236367 -8.6976603081937647 4.0499090536637787 0.83867057594974714 0 -0.54463902268945019 0.2723195113447251 0 0.41933528797487357 1 I I -0.70710678118654746 0.70710678118654746 0.5 forward I I I I #
loop $-1 $-1 $135 $36 #
coedge $-1 $85 $85 $136 $137 reversed $53 $-1 #
face $-1 $138 $139 $29 $-1 $140 reversed single #
loop $-1 $-1 $141 $55 #
plane-surface $-1 -71.130100405896187 19.565616823188865 2.7684152524291079 -0.83867057594974714 0 0.54463902268945019 0.54463902268945019 0 0.83867057594974714 forward_v I I I I #
coedge $-1 $142 $143 $144 $145 reversed $56 $-1 #
face $-1 $-1 $146 $30 $-1 $147 forward single #
loop $-1 $148 $149 $58 #
cone-surface $-1 -65.447960896236367 17.415008823589726 4.0499090536637787 0.83867057594974714 0 -0.54463902268945019 0.2723195113447251 0 0.41933528797487357 1 I I -0.70710678118654746 0.70710678118654746 0.5 forward I I I I #
loop $-1 $-1 $150 $38 #
coedge $-1 $94 $94 $151 $152 reversed $59 $-1 #
face $-1 $-1 $153 $31 $-1 $154 forward single #
loop $-1 $155 $156 $61 #
cone-surface $-1 -65.447960896236367 21.716224822788003 4.0499090536637787 0.83867057594974714 0 -0.54463902268945019 0.2723195113447251 0 0.41933528797487357 1 I I -0.70710678118654746 0.70710678118654746 0.5 forward I I I I #
loop $-1 $-1 $157 $39 #
coedge $-1 $99 $99 $158 $159 reversed $62 $-1 #
face $-1 $160 $161 $24 $-1 $162 reversed single #
loop $-1 $-1 $163 $64 #
plane-surface $-1 0 -29.730415238777805 0 0 1 0 0 0 1 forward_v I I I I #
coedge $-1 $164 $165 $166 $167 forward $65 $-1 #
coedge $-1 $168 $67 $169 $170 forward $41 $-1 #
coedge $-1 $67 $168 $171 $172 forward $41 $-1 #
coedge $-1 $173 $174 $67 $107 reversed $175 $-1 #
edge $-1 $176 -29.730415238777805 $177 29.730415238777805 $106 $178 forward 7 unknown #
face $-1 $179 $180 $25 $-1 $181 forward single #
loop $-1 $-1 $182 $68 #
plane-surface $-1 -63.576415545779831 -25.371740981079824 0 -1 0 0 0 0 1 forward_v I I I I #
coedge $-1 $183 $184 $185 $186 forward $69 $-1 #
coedge $-1 $187 $71 $188 $189 reversed $44 $-1 #
coedge $-1 $71 $187 $190 $191 reversed $44 $-1 #
coedge $-1 $184 $183 $71 $115 reversed $69 $-1 #
edge $-1 $192 -9.7620322457208264 $193 9.7620322457208264 $114 $194 forward 7 unknown #
face $-1 $195 $196 $26 $-1 $197 reversed single #
loop $-1 $-1 $198 $72 #
plane-surface $-1 -190.43954495544875 -5.8301829753949104 80.248871990168624 0 -1 0 0.83867057594974714 0 -0.54463902268945019 forward_v I I I I #
coedge $-1 $199 $200 $201 $202 reversed $73 $-1 #
coedge $-1 $121 $75 $203 $204 reversed $47 $-1 #
coedge $-1 $75 $120 $199 $205 reversed $47 $-1 #
coedge $-1 $201 $206 $75 $123 forward $207 $-1 #
edge $-1 $208 24.089672071828204 $209 28.631379905058495 $122 $210 forward 7 unknown #
loop $-1 $-1 $129 $76 #
plane-surface $-1 -71.130100405896187 -10.848268307792903 2.7684152524291079 -0.83867057594974714 0 0.54463902268945019 0.54463902268945019 0 0.83867057594974714 forward_v I I I I #
loop $-1 $-1 $211 $49 #
coedge $-1 $127 $127 $128 $212 reversed $77 $-1 #
coedge $-1 $128 $128 $127 $212 forward $79 $-1 #
coedge $-1 $129 $129 $80 $130 forward $124 $-1 #
edge $-1 $213 0 $213 6.2831853071796004 $129 $214 forward 7 unknown #
loop $-1 $-1 $136 $81 #
plane-surface $-1 -71.130100405896187 -10.848268307792903 2.7684152524291079 -0.83867057594974714 0 0.54463902268945019 0.54463902268945019 0 0.83867057594974714 forward_v I I I I #
loop $-1 $-1 $215 $52 #
coedge $-1 $134 $134 $135 $216 reversed $82 $-1 #
coedge $-1 $135 $135 $134 $216 forward $84 $-1 #
coedge $-1 $136 $136 $85 $137 forward $131 $-1 #
edge $-1 $217 0 $217 6.2831853071796004 $136 $218 forward 7 unknown #
face $-1 $219 $220 $29 $-1 $221 forward single #
loop $-1 $-1 $222 $86 #
plane-surface $-1 -190.43954495544875 24.583702155586856 80.248871990168624 0 -1 0 0.83867057594974714 0 -0.54463902268945019 forward_v I I I I #
coedge $-1 $223 $224 $225 $226 reversed $87 $-1 #
coedge $-1 $143 $89 $227 $228 reversed $56 $-1 #
coedge $-1 $89 $142 $223 $229 reversed $56 $-1 #
coedge $-1 $225 $230 $89 $145 forward $220 $-1 #
edge $-1 $231 24.089672071828204 $232 28.631379905058495 $144 $233 forward 7 unknown #
loop $-1 $-1 $151 $90 #
plane-surface $-1 -71.130100405896187 19.565616823188865 2.7684152524291079 -0.83867057594974714 0 0.54463902268945019 0.54463902268945019 0 0.83867057594974714 forward_v I I I I #
loop $-1 $-1 $234 $58 #
coedge $-1 $149 $149 $150 $235 reversed $91 $-1 #
coedge $-1 $150 $150 $149 $235 forward $93 $-1 #
coedge $-1 $151 $151 $94 $152 forward $146 $-1 #
edge $-1 $236 0 $236 6.2831853071796004 $151 $237 forward 7 unknown #
loop $-1 $-1 $158 $95 #
plane-surface $-1 -71.130100405896187 19.565616823188865 2.7684152524291079 -0.83867057594974714 0 0.54463902268945019 0.54463902268945019 0 0.83867057594974714 forward_v I I I I #
loop $-1 $-1 $238 $61 #
coedge $-1 $156 $156 $157 $239 reversed $96 $-1 #
coedge $-1 $157 $157 $156 $239 forward $98 $-1 #
coedge $-1 $158 $158 $99 $159 forward $153 $-1 #
edge $-1 $240 0 $240 6.2831853071796004 $158 $241 forward 7 unknown #
face $-1 $242 $243 $24 $-1 $244 reversed single #
loop $-1 $-1 $245 $100 #
plane-surface $-1 -71.130100405896172 0 0 1 0 0 0 0 -1 forward_v I I I I #
coedge $-1 $246 $171 $247 $248 forward $101 $-1 #
coedge $-1 $249 $103 $246 $250 forward $65 $-1 #
coedge $-1 $103 $249 $251 $252 forward $65 $-1 #
coedge $-1 $174 $173 $103 $167 reversed $175 $-1 #
edge $-1 $253 -29.730415238777805 $254 29.730415238777805 $166 $255 forward 7 unknown #
coedge $-1 $105 $104 $256 $257 forward $41 $-1 #
coedge $-1 $258 $259 $104 $170 reversed $243 $-1 #
edge $-1 $177 -71.130100405896172 $260 71.130100405896172 $169 $261 forward 7 unknown #
coedge $-1 $163 $262 $105 $172 reversed $101 $-1 #
edge $-1 $263 -71.130100405896172 $176 71.130100405896172 $171 $264 forward 7 unknown #
coedge $-1 $166 $106 $262 $265 forward $175 $-1 #
coedge $-1 $106 $166 $258 $266 reversed $175 $-1 #
loop $-1 $-1 $173 $242 #
vertex $-1 $107 $267 #
vertex $-1 $107 $268 #
straight-curve $-1 71.130100405896172 0 9.7620322457208264 0 1 0 I I #
face $-1 $269 $270 $25 $-1 $271 reversed single #
loop $-1 $-1 $272 $108 #
plane-surface $-1 0 0 9.7620322457208264 0 0 1 1 0 0 forward_v I I I I #
coedge $-1 $273 $274 $275 $276 reversed $109 $-1 #
coedge $-1 $114 $111 $277 $278 reversed $69 $-1 #
coedge $-1 $111 $114 $279 $280 reversed $69 $-1 #
coedge $-1 $274 $273 $111 $186 reversed $109 $-1 #
edge $-1 $281 -9.7620322457208264 $282 9.7620322457208264 $185 $283 forward 7 unknown #
coedge $-1 $113 $112 $284 $285 reversed $44 $-1 #
coedge $-1 $277 $286 $112 $189 forward $270 $-1 #
edge $-1 $287 -17.044544748237893 $193 -8.3271962328419313 $188 $288 forward 7 unknown #
coedge $-1 $289 $279 $113 $191 forward $180 $-1 #
edge $-1 $192 8.3271962328419313 $290 17.044544748237893 $190 $291 forward 7 unknown #
vertex $-1 $191 $292 #
vertex $-1 $189 $293 #
straight-curve $-1 -68.993901026984602 -21.013066723381844 0 0 0 -1 I I #
face $-1 $-1 $207 $26 $-1 $294 forward single #
loop $-1 $-1 $295 $116 #
plane-surface $-1 -71.130100405896172 0 0 1 0 0 0 0 -1 forward_v I I I I #
coedge $-1 $296 $297 $298 $299 reversed $117 $-1 #
coedge $-1 $300 $119 $121 $205 forward $73 $-1 #
coedge $-1 $119 $300 $296 $301 forward $73 $-1 #
coedge $-1 $298 $122 $119 $202 forward $207 $-1 #
edge $-1 $209 -10.442219486294444 $302 -0.40604882149845878 $201 $303 forward 7 unknown #
coedge $-1 $304 $305 $120 $204 forward $196 $-1 #
edge $-1 $306 -37.356020742655183 $208 -30.362403749363487 $203 $307 forward 7 unknown #
edge $-1 $209 -8.3389321073674783 $306 -2.5989569140172373e-014 $121 $308 forward 7 unknown #
coedge $-1 $122 $298 $304 $309 forward $207 $-1 #
loop $-1 $-1 $298 $195 #
vertex $-1 $204 $310 #
vertex $-1 $123 $311 #
straight-curve $-1 -95.219772477724376 -15.866353640190896 9.7620322457208246 1 0 0 I I #
coedge $-1 $211 $211 $-1 $312 reversed $126 $-1 #
edge $-1 $313 0 $313 6.2831853071796004 $127 $314 forward 7 unknown #
vertex $-1 $130 $315 #
ellipse-curve $-1 -68.859246489281034 -12.998876307392042 6.2652237490749743 -0.83867057594974714 0 0.54463902268945019 0.54463902268945019 0 0.83867057594974714 1 I I #
coedge $-1 $215 $215 $-1 $316 reversed $133 $-1 #
edge $-1 $317 0 $317 6.2831853071796004 $134 $318 forward 7 unknown #
vertex $-1 $137 $319 #
ellipse-curve $-1 -68.859246489281034 -8.6976603081937647 6.2652237490749743 -0.83867057594974714 0 0.54463902268945019 0.54463902268945019 0 0.83867057594974714 1 I I #
face $-1 $-1 $320 $29 $-1 $321 reversed single #
loop $-1 $-1 $144 $138 #
plane-surface $-1 0 0 9.7620322457208264 0 0 1 1 0 0 forward_v I I I I #
coedge $-1 $322 $323 $324 $325 reversed $139 $-1 #
coedge $-1 $326 $141 $143 $229 forward $87 $-1 #
coedge $-1 $141 $326 $322 $327 forward $87 $-1 #
coedge $-1 $324 $144 $141 $226 forward $220 $-1 #
edge $-1 $232 4.7647230791964397 $328 14.800893743992424 $225 $329 forward 7 unknown #
coedge $-1 $330 $331 $142 $228 forward $320 $-1 #
edge $-1 $332 -37.356020742655183 $231 -30.362403749363487 $227 $333 forward 7 unknown #
edge $-1 $232 -8.3389321073674783 $332 -2.5989569140172373e-014 $143 $334 forward 7 unknown #
coedge $-1 $144 $324 $330 $335 forward $220 $-1 #
vertex $-1 $228 $336 #
vertex $-1 $145 $337 #
straight-curve $-1 -95.219772477724376 14.547531490790872 9.7620322457208246 1 0 0 I I #
coedge $-1 $234 $234 $-1 $338 reversed $148 $-1 #
edge $-1 $339 0 $339 6.2831853071796004 $149 $340 forward 7 unknown #
vertex $-1 $152 $341 #
ellipse-curve $-1 -68.859246489281034 17.415008823589726 6.2652237490749743 -0.83867057594974714 0 0.54463902268945019 0.54463902268945019 0 0.83867057594974714 1 I I #
coedge $-1 $238 $238 $-1 $342 reversed $155 $-1 #
edge $-1 $343 0 $343 6.2831853071796004 $156 $344 forward 7 unknown #
vertex $-1 $159 $345 #
ellipse-curve $-1 -68.859246489281034 21.716224822788003 6.2652237490749743 -0.83867057594974714 0 0.54463902268945019 0.54463902268945019 0 0.83867057594974714 1 I I #
face $-1 $-1 $175 $24 $-1 $346 reversed single #
loop $-1 $-1 $258 $160 #
plane-surface $-1 0 29.730415238777805 0 0 -1 0 0 0 -1 forward_v I I I I #
coedge $-1 $347 $256 $259 $348 forward $161 $-1 #
coedge $-1 $262 $163 $164 $250 reversed $101 $-1 #
coedge $-1 $256 $347 $163 $248 reversed $161 $-1 #
edge $-1 $263 -9.7620322457208264 $349 9.7620322457208264 $247 $350 forward 7 unknown #
coedge $-1 $165 $164 $347 $351 forward $65 $-1 #
edge $-1 $254 -71.130100405896172 $349 71.130100405896172 $246 $352 forward 7 unknown #
coedge $-1 $259 $258 $165 $252 reversed $243 $-1 #
edge $-1 $353 -71.130100405896172 $253 71.130100405896172 $251 $354 forward 7 unknown #
vertex $-1 $167 $355 #
vertex $-1 $265 $356 #
straight-curve $-1 71.130100405896172 0 -9.7620322457208264 0 -1 0 I I #
coedge $-1 $245 $247 $168 $257 reversed $161 $-1 #
edge $-1 $260 -29.730415238777805 $263 29.730415238777805 $256 $357 forward 7 unknown #
coedge $-1 $251 $169 $174 $266 forward $243 $-1 #
coedge $-1 $169 $251 $245 $348 reversed $243 $-1 #
vertex $-1 $170 $358 #
straight-curve $-1 0 29.730415238777805 9.7620322457208264 -1 0 0 I I #
coedge $-1 $171 $246 $173 $265 reversed $101 $-1 #
vertex $-1 $257 $359 #
straight-curve $-1 0 -29.730415238777805 9.7620322457208264 1 0 0 I I #
edge $-1 $176 -9.7620322457208264 $254 9.7620322457208264 $173 $360 forward 7 unknown #
edge $-1 $177 -9.7620322457208264 $253 9.7620322457208264 $174 $361 forward 7 unknown #
point $-1 71.130100405896172 -29.730415238777805 9.7620322457208264 #
point $-1 71.130100405896172 29.730415238777805 9.7620322457208264 #
face $-1 $-1 $362 $25 $-1 $363 reversed single #
loop $-1 $-1 $364 $179 #
plane-surface $-1 0 0 -9.7620322457208264 0 0 1 1 0 0 forward_v I I I I #
coedge $-1 $279 $289 $274 $365 forward $180 $-1 #
coedge $-1 $185 $182 $364 $366 reversed $109 $-1 #
coedge $-1 $182 $185 $272 $365 reversed $109 $-1 #
coedge $-1 $367 $368 $182 $276 forward $362 $-1 #
edge $-1 $369 -9.7620322457208264 $370 9.7620322457208264 $275 $371 forward 7 unknown #
coedge $-1 $364 $188 $183 $278 forward $270 $-1 #
edge $-1 $193 -35.851321883793496 $282 -30.433836402588724 $277 $372 forward 7 unknown #
coedge $-1 $190 $272 $184 $280 forward $180 $-1 #
edge $-1 $281 30.433836402588724 $192 35.851321883793496 $279 $373 forward 7 unknown #
vertex $-1 $280 $374 #
vertex $-1 $278 $375 #
straight-curve $-1 -63.576415545779831 -21.013066723381844 0 0 0 -1 I I #
coedge $-1 $368 $367 $187 $285 forward $362 $-1 #
edge $-1 $290 -9.7620322457208264 $287 9.7620322457208264 $284 $376 forward 7 unknown #
coedge $-1 $188 $364 $368 $377 forward $270 $-1 #
vertex $-1 $189 $378 #
straight-curve $-1 -68.993901026984602 -12.685870490539912 -9.7620322457208264 0 1 0 I I #
coedge $-1 $272 $190 $367 $379 forward $180 $-1 #
vertex $-1 $379 $380 #
straight-curve $-1 -68.993901026984602 -12.685870490539912 9.7620322457208264 0 -1 0 I I #
point $-1 -68.993901026984602 -21.013066723381844 9.7620322457208264 #
point $-1 -68.993901026984602 -21.013066723381844 -9.7620322457208264 #
plane-surface $-1 0 0 9.7620322457208264 0 0 1 1 0 0 forward_v I I I I #
coedge $-1 $305 $304 $297 $381 forward $196 $-1 #
coedge $-1 $297 $198 $200 $301 reversed $117 $-1 #
coedge $-1 $198 $296 $295 $381 reversed $117 $-1 #
coedge $-1 $206 $201 $198 $299 forward $207 $-1 #
edge $-1 $302 -28.631379905058495 $382 -24.089672071828204 $298 $383 forward 7 unknown #
coedge $-1 $200 $199 $305 $384 reversed $73 $-1 #
edge $-1 $385 2.5989569140172373e-014 $302 8.3389321073674783 $296 $386 forward 7 unknown #
vertex $-1 $202 $387 #
straight-curve $-1 -66.588392572665896 -5.4241341538964516 9.7620322457208264 0 1 0 I I #
coedge $-1 $295 $203 $206 $309 reversed $196 $-1 #
coedge $-1 $203 $295 $300 $384 forward $196 $-1 #
vertex $-1 $204 $388 #
straight-curve $-1 -71.130100405896172 -15.866353640190896 40.124435995084312 0 0 1 I I #
straight-curve $-1 -71.130100405896187 -15.866353640190896 2.7684152524291079 -0.54463902268945019 0 -0.83867057594974714 I I #
edge $-1 $382 5.8301829753949104 $208 15.866353640190896 $304 $389 forward 7 unknown #
point $-1 -71.130100405896172 -15.866353640190896 9.7620322457208264 #
point $-1 -66.588392572665882 -15.866353640190896 9.7620322457208264 #
edge $-1 $390 1 $390 0 $211 $-1 forward 7 unknown #
vertex $-1 $212 $391 #
ellipse-curve $-1 -65.867296184211241 -12.998876307392042 4.3222285650085039 -0.83867057594974714 0 0.54463902268945019 0.54463902268945019 0 0.83867057594974714 1 I I #
point $-1 -68.314607466591582 -12.998876307392042 7.1038943250247195 #
edge $-1 $392 1 $392 0 $215 $-1 forward 7 unknown #
vertex $-1 $216 $393 #
ellipse-curve $-1 -65.867296184211241 -8.6976603081937647 4.3222285650085039 -0.83867057594974714 0 0.54463902268945019 0.54463902268945019 0 0.83867057594974714 1 I I #
point $-1 -68.314607466591582 -8.6976603081937647 7.1038943250247195 #
loop $-1 $-1 $227 $219 #
plane-surface $-1 -71.130100405896172 0 0 1 0 0 0 0 -1 forward_v I I I I #
coedge $-1 $323 $222 $224 $327 reversed $139 $-1 #
coedge $-1 $222 $322 $394 $395 reversed $139 $-1 #
coedge $-1 $230 $225 $222 $325 forward $220 $-1 #
edge $-1 $328 -28.631379905058495 $396 -24.089672071828204 $324 $397 forward 7 unknown #
coedge $-1 $224 $223 $331 $398 reversed $87 $-1 #
edge $-1 $399 2.5989569140172373e-014 $328 8.3389321073674783 $322 $400 forward 7 unknown #
vertex $-1 $226 $401 #
straight-curve $-1 -66.588392572665896 9.7828084115944325 9.7620322457208264 0 1 0 I I #
coedge $-1 $394 $227 $230 $335 reversed $320 $-1 #
coedge $-1 $227 $394 $326 $398 forward $320 $-1 #
vertex $-1 $228 $402 #
straight-curve $-1 -71.130100405896172 14.547531490790872 40.124435995084312 0 0 1 I I #
straight-curve $-1 -71.130100405896187 14.547531490790872 2.7684152524291079 -0.54463902268945019 0 -0.83867057594974714 I I #
edge $-1 $396 -24.583702155586856 $231 -14.547531490790872 $330 $403 forward 7 unknown #
point $-1 -71.130100405896172 14.547531490790872 9.7620322457208264 #
point $-1 -66.588392572665882 14.547531490790872 9.7620322457208264 #
edge $-1 $404 1 $404 0 $234 $-1 forward 7 unknown #
vertex $-1 $235 $405 #
ellipse-curve $-1 -65.867296184211241 17.415008823589726 4.3222285650085039 -0.83867057594974714 0 0.54463902268945019 0.54463902268945019 0 0.83867057594974714 1 I I #
point $-1 -68.314607466591582 17.415008823589726 7.1038943250247195 #
edge $-1 $406 1 $406 0 $238 $-1 forward 7 unknown #
vertex $-1 $239 $407 #
ellipse-curve $-1 -65.867296184211241 21.716224822788003 4.3222285650085039 -0.83867057594974714 0 0.54463902268945019 0.54463902268945019 0 0.83867057594974714 1 I I #
point $-1 -68.314607466591582 21.716224822788003 7.1038943250247195 #
plane-surface $-1 71.130100405896172 0 0 -1 0 0 0 0 1 forward_v I I I I #
coedge $-1 $247 $245 $249 $351 reversed $161 $-1 #
edge $-1 $260 -9.7620322457208264 $353 9.7620322457208264 $259 $408 forward 7 unknown #
vertex $-1 $351 $409 #
straight-curve $-1 -71.130100405896172 -29.730415238777805 0 0 0 -1 I I #
edge $-1 $349 -29.730415238777805 $353 29.730415238777805 $347 $410 forward 7 unknown #
straight-curve $-1 0 -29.730415238777805 -9.7620322457208264 -1 0 0 I I #
vertex $-1 $252 $411 #
straight-curve $-1 0 29.730415238777805 -9.7620322457208264 1 0 0 I I #
point $-1 71.130100405896172 29.730415238777805 -9.7620322457208264 #
point $-1 71.130100405896172 -29.730415238777805 -9.7620322457208264 #
straight-curve $-1 -71.130100405896172 0 9.7620322457208264 0 -1 0 I I #
point $-1 -71.130100405896172 29.730415238777805 9.7620322457208264 #
point $-1 -71.130100405896172 -29.730415238777805 9.7620322457208264 #
straight-curve $-1 71.130100405896172 -29.730415238777805 0 0 0 -1 I I #
straight-curve $-1 71.130100405896172 29.730415238777805 0 0 0 -1 I I #
loop $-1 $-1 $275 $269 #
plane-surface $-1 0 -29.730415238777805 0 0 1 0 0 0 1 forward_v I I I I #
coedge $-1 $286 $277 $273 $366 forward $270 $-1 #
edge $-1 $370 -17.044544748237893 $281 -8.3271962328419313 $272 $412 forward 7 unknown #
edge $-1 $282 8.3271962328419313 $369 17.044544748237893 $364 $413 forward 7 unknown #
coedge $-1 $284 $275 $289 $379 reversed $362 $-1 #
coedge $-1 $275 $284 $286 $377 reversed $362 $-1 #
vertex $-1 $377 $414 #
vertex $-1 $276 $415 #
straight-curve $-1 -63.576415545779831 -29.730415238777805 0 0 0 1 I I #
straight-curve $-1 -33.142579143191107 -21.013066723381844 -9.7620322457208264 1 0 0 I I #
straight-curve $-1 -33.142579143191107 -21.013066723381844 9.7620322457208264 -1 0 0 I I #
point $-1 -63.576415545779831 -21.013066723381844 9.7620322457208264 #
point $-1 -63.576415545779831 -21.013066723381844 -9.7620322457208264 #
straight-curve $-1 -68.993901026984602 -29.730415238777805 0 0 0 -1 I I #
edge $-1 $369 63.576415545779831 $287 68.993901026984602 $368 $416 forward 7 unknown #
point $-1 -68.993901026984602 -29.730415238777805 -9.7620322457208264 #
edge $-1 $290 -68.993901026984602 $370 -63.576415545779831 $367 $417 forward 7 unknown #
point $-1 -68.993901026984602 -29.730415238777805 9.7620322457208264 #
edge $-1 $382 30.362403749363487 $385 37.356020742655183 $295 $418 forward 7 unknown #
vertex $-1 $309 $419 #
straight-curve $-1 -95.219772477724376 -5.8301829753949104 9.7620322457208246 -1 0 0 I I #
edge $-1 $385 0.40604882149845878 $306 10.442219486294444 $305 $420 forward 7 unknown #
vertex $-1 $384 $421 #
straight-curve $-1 -71.130100405896187 -5.8301829753949104 2.7684152524291079 0.54463902268945019 0 0.83867057594974714 I I #
point $-1 -66.588392572665882 -5.8301829753949104 9.7620322457208264 #
point $-1 -71.130100405896172 -15.866353640190896 2.7684152524291297 #
straight-curve $-1 -71.130100405896172 0 9.7620322457208264 0 -1 0 I I #
vertex $-1 $312 $422 #
point $-1 -65.322657161521789 -12.998876307392042 5.160899140958251 #
vertex $-1 $316 $423 #
point $-1 -65.322657161521789 -8.6976603081937647 5.160899140958251 #
coedge $-1 $331 $330 $323 $395 forward $320 $-1 #
edge $-1 $396 30.362403749363487 $399 37.356020742655183 $394 $424 forward 7 unknown #
vertex $-1 $335 $425 #
straight-curve $-1 -95.219772477724376 24.583702155586856 9.7620322457208246 -1 0 0 I I #
edge $-1 $399 -14.800893743992424 $332 -4.7647230791964397 $331 $426 forward 7 unknown #
vertex $-1 $398 $427 #
straight-curve $-1 -71.130100405896187 24.583702155586856 2.7684152524291079 0.54463902268945019 0 0.83867057594974714 I I #
point $-1 -66.588392572665882 24.583702155586856 9.7620322457208264 #
point $-1 -71.130100405896172 14.547531490790872 2.7684152524291297 #
straight-curve $-1 -71.130100405896172 0 9.7620322457208264 0 -1 0 I I #
vertex $-1 $338 $428 #
point $-1 -65.322657161521789 17.415008823589726 5.160899140958251 #
vertex $-1 $342 $429 #
point $-1 -65.322657161521789 21.716224822788003 5.160899140958251 #
straight-curve $-1 -71.130100405896172 29.730415238777805 0 0 0 -1 I I #
point $-1 -71.130100405896172 -29.730415238777805 -9.7620322457208264 #
straight-curve $-1 -71.130100405896172 0 -9.7620322457208264 0 1 0 I I #
point $-1 -71.130100405896172 29.730415238777805 -9.7620322457208264 #
straight-curve $-1 -63.576415545779831 -12.685870490539912 9.7620322457208264 0 1 0 I I #
straight-curve $-1 -63.576415545779831 -12.685870490539912 -9.7620322457208264 0 -1 0 I I #
point $-1 -63.576415545779831 -29.730415238777805 -9.7620322457208264 #
point $-1 -63.576415545779831 -29.730415238777805 9.7620322457208264 #
straight-curve $-1 0 -29.730415238777805 -9.7620322457208264 -1 0 0 I I #
straight-curve $-1 0 -29.730415238777805 9.7620322457208264 1 0 0 I I #
straight-curve $-1 -71.130100405896172 -5.8301829753949104 40.124435995084312 0 0 -1 I I #
point $-1 -71.130100405896172 -5.8301829753949104 9.7620322457208264 #
straight-curve $-1 -71.130100405896172 -5.4241341538964516 2.7684152524291181 0 -1 0 I I #
point $-1 -71.130100405896172 -5.8301829753949104 2.7684152524291297 #
point $-1 -65.028625608261493 -12.998876307392042 3.7775895423190535 #
point $-1 -65.028625608261493 -8.6976603081937647 3.7775895423190535 #
straight-curve $-1 -71.130100405896172 24.583702155586856 40.124435995084312 0 0 -1 I I #
point $-1 -71.130100405896172 24.583702155586856 9.7620322457208264 #
straight-curve $-1 -71.130100405896172 9.7828084115944325 2.7684152524291181 0 -1 0 I I #
point $-1 -71.130100405896172 24.583702155586856 2.7684152524291297 #
point $-1 -65.028625608261493 17.415008823589726 3.7775895423190535 #
point $-1 -65.028625608261493 21.716224822788003 3.7775895423190535 #
End-of-ACIS-data 