500 0 7 0           
7 Unknown 11 ACIS 5.0 NT 24 Thu Mar 25 17:27:45 1999 
-1 9.9999999999999995e-007 1e-010 
body $-1 $7 $-1 $8 #
body $-1 $9 $-1 $10 #
body $-1 $11 $-1 $12 #
body $-1 $13 $-1 $14 #
body $-1 $15 $-1 $16 #
body $-1 $17 $-1 $18 #
body $-1 $19 $-1 $20 #
lump $-1 $-1 $21 $0 #
transform $-1 1 0 0 0 1 0 0 0 1 75.595568712424082 32.919497358854315 9.0526357265367157 1 rotate no_reflect no_shear #
lump $-1 $-1 $22 $1 #
transform $-1 1 0 0 0 1 0 0 0 1 75.595568712424082 32.919497358854315 9.0526357265367157 1 rotate no_reflect no_shear #
lump $-1 $-1 $23 $2 #
transform $-1 1 0 0 0 1 0 0 0 1 75.595568712424082 32.919497358854315 9.0526357265367157 1 rotate no_reflect no_shear #
lump $-1 $-1 $24 $3 #
transform $-1 1 0 0 0 1 0 0 0 1 75.595568712424082 32.919497358854315 9.0526357265367157 1 rotate no_reflect no_shear #
lump $-1 $-1 $25 $4 #
transform $-1 1 0 0 0 1 0 0 0 1 75.595568712424082 32.919497358854315 9.0526357265367157 1 rotate no_reflect no_shear #
lump $-1 $-1 $26 $5 #
transform $-1 1 0 0 0 1 0 0 0 1 75.595568712424082 32.919497358854315 9.0526357265367157 1 rotate no_reflect no_shear #
lump $-1 $-1 $27 $6 #
transform $-1 1 0 0 0 1 0 0 0 1 75.595568712424082 32.919497358854315 9.0526357265367157 1 rotate no_reflect no_shear #
shell $-1 $-1 $-1 $28 $-1 $7 #
shell $-1 $-1 $-1 $29 $-1 $9 #
shell $-1 $-1 $-1 $30 $-1 $11 #
shell $-1 $-1 $-1 $31 $-1 $13 #
shell $-1 $-1 $-1 $32 $-1 $15 #
shell $-1 $-1 $-1 $33 $-1 $17 #
shell $-1 $-1 $-1 $34 $-1 $19 #
face $-1 $35 $36 $21 $-1 $37 forward single #
face $-1 $38 $39 $22 $-1 $40 reversed single #
face $-1 $41 $42 $23 $-1 $43 reversed single #
face $-1 $44 $45 $24 $-1 $46 forward single #
face $-1 $47 $48 $25 $-1 $49 reversed single #
face $-1 $50 $51 $26 $-1 $52 forward single #
face $-1 $53 $54 $27 $-1 $55 forward single #
face $-1 $56 $57 $21 $-1 $58 reversed single #
loop $-1 $-1 $59 $28 #
plane-surface $-1 0 0 9.0526357265367157 0 0 1 1 0 0 forward_v I I I I #
face $-1 $60 $61 $22 $-1 $62 reversed single #
loop $-1 $-1 $63 $29 #
plane-surface $-1 0 -27.434979263135485 5.6001631895257384 0 0 1 1 0 0 forward_v I I I I #
face $-1 $64 $65 $23 $-1 $66 reversed single #
loop $-1 $-1 $67 $30 #
plane-surface $-1 -186.16976796963473 26.888529745306709 107.57728065216352 0 1 0 -0.73135370988377701 0 0.68199835119979291 forward_v I I I I #
face $-1 $68 $69 $24 $-1 $70 forward single #
loop $-1 $71 $72 $31 #
cone-surface $-1 -72.692644935667644 29.904013552080507 6.0464771743303487 0.73135370988377701 0 -0.68199835119979291 0.68199835119979291 0 0.73135370988377701 1 I I 0 1 1 forward I I I I #
face $-1 $73 $74 $25 $-1 $75 reversed single #
loop $-1 $-1 $76 $32 #
plane-surface $-1 49.537887374055884 -12.209765003114306 213.00193920009326 0 -1 0 -0.61566148304635926 0 -0.78801074757464917 forward_v I I I I #
face $-1 $77 $78 $26 $-1 $79 forward single #
loop $-1 $80 $81 $33 #
cone-surface $-1 69.883870481515444 -19.167405120473127 4.3822775872194626 -0.61566148304635926 0 -0.78801074757464917 0.78801074757464917 0 -0.61566148304635926 1 I I 0 1 1 forward I I I I #
face $-1 $82 $83 $27 $-1 $84 forward single #
loop $-1 $85 $86 $34 #
cone-surface $-1 69.883870481515444 -14.992821050057834 4.3822775872194626 -0.61566148304635926 0 -0.78801074757464917 0.78801074757464917 0 -0.61566148304635926 1 I I 0 1 1 forward I I I I #
face $-1 $87 $88 $21 $-1 $89 reversed single #
loop $-1 $-1 $90 $35 #
plane-surface $-1 0 0 -9.0526357265367157 0 0 1 1 0 0 forward_v I I I I #
coedge $-1 $91 $92 $93 $94 forward $36 $-1 #
face $-1 $95 $96 $22 $-1 $97 reversed single #
loop $-1 $-1 $98 $38 #
plane-surface $-1 0 -21.950461167416655 7.3263994580312275 0 -1 0 0 0 -1 forward_v I I I I #
coedge $-1 $99 $100 $101 $102 reversed $39 $-1 #
face $-1 $103 $104 $23 $-1 $105 forward single #
loop $-1 $-1 $106 $41 #
plane-surface $-1 -75.595568712424068 29.904013552080514 4.4651742123957661 -0.73135370988377701 0 0.68199835119979291 0.68199835119979291 0 0.73135370988377701 forward_v I I I I #
coedge $-1 $107 $108 $109 $110 reversed $42 $-1 #
face $-1 $-1 $111 $24 $-1 $112 forward single #
loop $-1 $113 $114 $44 #
cone-surface $-1 -71.562982786508655 29.904013552080507 4.9930502035945619 0.73135370988377701 0 -0.68199835119979291 0.34099917559989645 0 0.36567685494188851 1 I I -0.70710678118654746 0.70710678118654746 0.5 forward I I I I #
loop $-1 $-1 $115 $31 #
coedge $-1 $72 $72 $116 $117 reversed $45 $-1 #
face $-1 $118 $119 $25 $-1 $120 forward single #
loop $-1 $-1 $121 $47 #
plane-surface $-1 -43.544672516392041 -17.080113085265481 93.861697971277138 0.61566148304635926 0 0.78801074757464917 0.78801074757464917 0 -0.61566148304635926 forward_v I I I I #
coedge $-1 $122 $123 $124 $125 reversed $48 $-1 #
face $-1 $-1 $126 $26 $-1 $127 forward single #
loop $-1 $128 $129 $50 #
cone-surface $-1 69.159138442449787 -19.167405120473127 3.4546628969686193 -0.61566148304635926 0 -0.78801074757464917 0.39400537378732459 0 -0.30783074152317963 1 I I -0.70710678118654746 0.70710678118654746 0.5 forward I I I I #
loop $-1 $-1 $130 $33 #
coedge $-1 $81 $81 $131 $132 reversed $51 $-1 #
face $-1 $-1 $133 $27 $-1 $134 forward single #
loop $-1 $135 $136 $53 #
cone-surface $-1 69.159138442449787 -14.992821050057834 3.4546628969686193 -0.61566148304635926 0 -0.78801074757464917 0.39400537378732459 0 -0.30783074152317963 1 I I -0.70710678118654746 0.70710678118654746 0.5 forward I I I I #
loop $-1 $-1 $137 $34 #
coedge $-1 $86 $86 $138 $139 reversed $54 $-1 #
face $-1 $140 $141 $21 $-1 $142 reversed single #
loop $-1 $-1 $143 $56 #
plane-surface $-1 0 -32.919497358854315 0 0 1 0 0 0 1 forward_v I I I I #
coedge $-1 $144 $145 $146 $147 forward $57 $-1 #
coedge $-1 $148 $59 $149 $150 forward $36 $-1 #
coedge $-1 $59 $148 $151 $152 forward $36 $-1 #
coedge $-1 $153 $154 $59 $94 reversed $155 $-1 #
edge $-1 $156 -32.919497358854315 $157 32.919497358854315 $93 $158 forward 7 unknown #
face $-1 $159 $160 $22 $-1 $161 reversed single #
loop $-1 $-1 $162 $60 #
plane-surface $-1 -75.595568712424082 0 0 1 0 0 0 0 -1 forward_v I I I I #
coedge $-1 $163 $164 $100 $165 reversed $61 $-1 #
coedge $-1 $166 $63 $167 $168 reversed $39 $-1 #
coedge $-1 $63 $166 $98 $165 forward $39 $-1 #
coedge $-1 $169 $170 $63 $102 forward $171 $-1 #
edge $-1 $172 -19.202007727286571 $173 -8.2329715358489128 $101 $174 forward 7 unknown #
face $-1 $175 $176 $23 $-1 $177 reversed single #
loop $-1 $-1 $109 $64 #
plane-surface $-1 0 0 9.0526357265367157 0 0 1 1 0 0 forward_v I I I I #
coedge $-1 $178 $179 $180 $181 reversed $65 $-1 #
coedge $-1 $108 $67 $182 $183 reversed $42 $-1 #
coedge $-1 $67 $107 $178 $184 reversed $42 $-1 #
coedge $-1 $180 $185 $67 $110 forward $104 $-1 #
edge $-1 $186 17.489315272393284 $187 21.76719223747196 $109 $188 forward 7 unknown #
loop $-1 $-1 $116 $68 #
plane-surface $-1 -75.595568712424068 29.904013552080514 4.4651742123957661 -0.73135370988377701 0 0.68199835119979291 0.68199835119979291 0 0.73135370988377701 forward_v I I I I #
loop $-1 $-1 $189 $44 #
coedge $-1 $114 $114 $115 $190 reversed $69 $-1 #
coedge $-1 $115 $115 $114 $190 forward $71 $-1 #
coedge $-1 $116 $116 $72 $117 forward $111 $-1 #
edge $-1 $191 0 $191 6.2831853071796004 $116 $192 forward 7 unknown #
face $-1 $193 $194 $25 $-1 $195 forward single #
loop $-1 $-1 $196 $73 #
plane-surface $-1 0 -21.950461167416655 7.3263994580312275 0 -1 0 0 0 -1 forward_v I I I I #
coedge $-1 $197 $198 $199 $200 reversed $74 $-1 #
coedge $-1 $123 $76 $201 $202 reversed $48 $-1 #
coedge $-1 $76 $122 $197 $203 reversed $48 $-1 #
coedge $-1 $199 $204 $76 $125 forward $194 $-1 #
edge $-1 $205 -50.82662502539614 $206 -40.237031158663768 $124 $207 forward 7 unknown #
loop $-1 $-1 $131 $77 #
plane-surface $-1 -43.544672516392041 -17.080113085265481 93.861697971277138 0.61566148304635926 0 0.78801074757464917 0.78801074757464917 0 -0.61566148304635926 forward_v I I I I #
loop $-1 $-1 $208 $50 #
coedge $-1 $129 $129 $130 $209 reversed $78 $-1 #
coedge $-1 $130 $130 $129 $209 forward $80 $-1 #
coedge $-1 $131 $131 $81 $132 forward $126 $-1 #
edge $-1 $210 0 $210 6.2831853071796004 $131 $211 forward 7 unknown #
loop $-1 $-1 $138 $82 #
plane-surface $-1 -43.544672516392041 -17.080113085265481 93.861697971277138 0.61566148304635926 0 0.78801074757464917 0.78801074757464917 0 -0.61566148304635926 forward_v I I I I #
loop $-1 $-1 $212 $53 #
coedge $-1 $136 $136 $137 $213 reversed $83 $-1 #
coedge $-1 $137 $137 $136 $213 forward $85 $-1 #
coedge $-1 $138 $138 $86 $139 forward $133 $-1 #
edge $-1 $214 0 $214 6.2831853071796004 $138 $215 forward 7 unknown #
face $-1 $216 $217 $21 $-1 $218 reversed single #
loop $-1 $-1 $219 $87 #
plane-surface $-1 -75.595568712424082 0 0 1 0 0 0 0 -1 forward_v I I I I #
coedge $-1 $220 $151 $221 $222 forward $88 $-1 #
coedge $-1 $223 $90 $220 $224 forward $57 $-1 #
coedge $-1 $90 $223 $225 $226 forward $57 $-1 #
coedge $-1 $154 $153 $90 $147 reversed $155 $-1 #
edge $-1 $227 -32.919497358854315 $228 32.919497358854315 $146 $229 forward 7 unknown #
coedge $-1 $92 $91 $230 $231 forward $36 $-1 #
coedge $-1 $232 $233 $91 $150 reversed $217 $-1 #
edge $-1 $157 -75.595568712424082 $234 75.595568712424082 $149 $235 forward 7 unknown #
coedge $-1 $143 $236 $92 $152 reversed $88 $-1 #
edge $-1 $237 -75.595568712424082 $156 75.595568712424082 $151 $238 forward 7 unknown #
coedge $-1 $146 $93 $236 $239 forward $155 $-1 #
coedge $-1 $93 $146 $232 $240 reversed $155 $-1 #
loop $-1 $-1 $153 $216 #
vertex $-1 $94 $241 #
vertex $-1 $94 $242 #
straight-curve $-1 75.595568712424082 0 9.0526357265367157 0 1 0 I I #
face $-1 $243 $244 $22 $-1 $245 forward single #
loop $-1 $-1 $167 $95 #
plane-surface $-1 0 -32.919497358854315 0 0 1 0 0 0 1 forward_v I I I I #
coedge $-1 $246 $247 $163 $248 forward $96 $-1 #
coedge $-1 $249 $98 $162 $248 reversed $61 $-1 #
coedge $-1 $98 $249 $169 $250 reversed $61 $-1 #
edge $-1 $251 -75.595568712424082 $173 75.595568712424082 $98 $252 forward 7 unknown #
coedge $-1 $100 $99 $246 $253 reversed $39 $-1 #
coedge $-1 $254 $255 $99 $168 forward $160 $-1 #
edge $-1 $256 -75.595568712424082 $172 75.595568712424082 $167 $257 forward 7 unknown #
coedge $-1 $258 $101 $164 $250 forward $171 $-1 #
coedge $-1 $101 $258 $254 $259 forward $171 $-1 #
loop $-1 $-1 $169 $243 #
vertex $-1 $168 $260 #
vertex $-1 $102 $261 #
straight-curve $-1 75.595568712424082 -13.717489631567743 5.6001631895257384 0 1 0 I I #
face $-1 $-1 $262 $23 $-1 $263 reversed single #
loop $-1 $-1 $264 $103 #
plane-surface $-1 0 32.919497358854315 0 0 -1 0 0 0 -1 forward_v I I I I #
coedge $-1 $265 $106 $108 $184 forward $65 $-1 #
coedge $-1 $106 $265 $264 $266 reversed $65 $-1 #
coedge $-1 $267 $109 $106 $181 forward $104 $-1 #
edge $-1 $187 11.936522969266452 $268 17.967490582814058 $180 $269 forward 7 unknown #
coedge $-1 $270 $271 $107 $183 forward $262 $-1 #
edge $-1 $272 -49.32346611368601 $186 -44.736004599545048 $182 $273 forward 7 unknown #
edge $-1 $187 -6.2725620341352535 $272 2.0734513383776317e-014 $108 $274 forward 7 unknown #
coedge $-1 $109 $267 $270 $275 forward $104 $-1 #
vertex $-1 $183 $276 #
vertex $-1 $110 $277 #
straight-curve $-1 -93.084883984817367 26.888529745306709 9.0526357265367139 1 0 0 I I #
coedge $-1 $189 $189 $-1 $278 reversed $113 $-1 #
edge $-1 $279 0 $279 6.2831853071796004 $114 $280 forward 7 unknown #
vertex $-1 $117 $281 #
ellipse-curve $-1 -73.456630229884738 29.904013552080507 6.7589049694662346 -0.73135370988377701 0 0.68199835119979291 0.68199835119979291 0 0.73135370988377701 1 I I #
face $-1 $-1 $282 $25 $-1 $283 reversed single #
loop $-1 $-1 $199 $118 #
plane-surface $-1 0 0 9.0526357265367157 0 0 1 1 0 0 forward_v I I I I #
coedge $-1 $284 $285 $198 $286 reversed $119 $-1 #
coedge $-1 $287 $121 $123 $203 forward $74 $-1 #
coedge $-1 $121 $287 $196 $286 forward $74 $-1 #
coedge $-1 $288 $124 $121 $200 forward $194 $-1 #
edge $-1 $206 3.6697084604815657 $289 13.410404624783915 $199 $290 forward 7 unknown #
coedge $-1 $291 $292 $122 $202 forward $282 $-1 #
edge $-1 $293 -105.72183151921742 $205 -97.44833387350991 $201 $294 forward 7 unknown #
edge $-1 $206 137.75274981487561 $293 151.19113742484816 $123 $295 forward 7 unknown #
coedge $-1 $124 $288 $291 $296 forward $194 $-1 #
vertex $-1 $202 $297 #
vertex $-1 $125 $298 #
straight-curve $-1 24.768943687027942 -12.209765003114306 9.052635726536721 -1 0 0 I I #
coedge $-1 $208 $208 $-1 $299 reversed $128 $-1 #
edge $-1 $300 0 $300 6.2831853071796004 $129 $301 forward 7 unknown #
vertex $-1 $132 $302 #
ellipse-curve $-1 70.300771779057897 -19.167405120473127 4.9158869036829547 0.61566148304635926 0 0.78801074757464917 0.78801074757464917 0 -0.61566148304635926 1 I I #
coedge $-1 $212 $212 $-1 $303 reversed $135 $-1 #
edge $-1 $304 0 $304 6.2831853071796004 $136 $305 forward 7 unknown #
vertex $-1 $139 $306 #
ellipse-curve $-1 70.300771779057897 -14.992821050057834 4.9158869036829547 0.61566148304635926 0 0.78801074757464917 0.78801074757464917 0 -0.61566148304635926 1 I I #
face $-1 $-1 $155 $21 $-1 $307 reversed single #
loop $-1 $-1 $232 $140 #
plane-surface $-1 0 32.919497358854315 0 0 -1 0 0 0 -1 forward_v I I I I #
coedge $-1 $308 $230 $233 $309 forward $141 $-1 #
coedge $-1 $236 $143 $144 $224 reversed $88 $-1 #
coedge $-1 $230 $308 $143 $222 reversed $141 $-1 #
edge $-1 $237 -9.0526357265367157 $310 9.0526357265367157 $221 $311 forward 7 unknown #
coedge $-1 $145 $144 $308 $312 forward $57 $-1 #
edge $-1 $228 -75.595568712424082 $310 75.595568712424082 $220 $313 forward 7 unknown #
coedge $-1 $233 $232 $145 $226 reversed $217 $-1 #
edge $-1 $314 -75.595568712424082 $227 75.595568712424082 $225 $315 forward 7 unknown #
vertex $-1 $147 $316 #
vertex $-1 $239 $317 #
straight-curve $-1 75.595568712424082 0 -9.0526357265367157 0 -1 0 I I #
coedge $-1 $219 $221 $148 $231 reversed $141 $-1 #
edge $-1 $234 -32.919497358854315 $237 32.919497358854315 $230 $318 forward 7 unknown #
coedge $-1 $225 $149 $154 $240 forward $217 $-1 #
coedge $-1 $149 $225 $219 $309 reversed $217 $-1 #
vertex $-1 $150 $319 #
straight-curve $-1 0 32.919497358854315 9.0526357265367157 -1 0 0 I I #
coedge $-1 $151 $220 $153 $239 reversed $88 $-1 #
vertex $-1 $231 $320 #
straight-curve $-1 0 -32.919497358854315 9.0526357265367157 1 0 0 I I #
edge $-1 $156 -9.0526357265367157 $228 9.0526357265367157 $153 $321 forward 7 unknown #
edge $-1 $157 -9.0526357265367157 $227 9.0526357265367157 $154 $322 forward 7 unknown #
point $-1 75.595568712424082 -32.919497358854315 9.0526357265367157 #
point $-1 75.595568712424082 32.919497358854315 9.0526357265367157 #
face $-1 $-1 $171 $22 $-1 $323 reversed single #
loop $-1 $-1 $324 $159 #
plane-surface $-1 0 0 9.0526357265367157 0 0 1 1 0 0 forward_v I I I I #
coedge $-1 $325 $162 $166 $253 forward $96 $-1 #
coedge $-1 $162 $325 $326 $327 reversed $96 $-1 #
edge $-1 $328 -5.3894359975211037 $251 -1.9369634605101247 $162 $329 forward 7 unknown #
coedge $-1 $164 $163 $324 $330 reversed $61 $-1 #
edge $-1 $173 1.9369634605101247 $331 5.3894359975211037 $169 $332 forward 7 unknown #
vertex $-1 $253 $333 #
straight-curve $-1 0 -21.950461167416655 5.6001631895257384 1 0 0 I I #
edge $-1 $251 8.2329715358489128 $256 19.202007727286571 $246 $334 forward 7 unknown #
coedge $-1 $335 $167 $170 $259 reversed $160 $-1 #
coedge $-1 $167 $335 $325 $336 forward $160 $-1 #
vertex $-1 $168 $337 #
straight-curve $-1 0 -32.919497358854315 5.6001631895257384 1 0 0 I I #
coedge $-1 $170 $169 $338 $339 reversed $171 $-1 #
edge $-1 $340 -9.0526357265367157 $172 -5.6001631895257384 $170 $341 forward 7 unknown #
point $-1 75.595568712424082 -32.919497358854315 5.6001631895257384 #
point $-1 75.595568712424082 -21.950461167416655 5.6001631895257384 #
loop $-1 $-1 $182 $175 #
plane-surface $-1 -75.595568712424082 0 0 1 0 0 0 0 -1 forward_v I I I I #
coedge $-1 $342 $343 $179 $266 forward $176 $-1 #
coedge $-1 $179 $178 $271 $344 reversed $65 $-1 #
edge $-1 $268 17.87265371305017 $345 24.145215747185446 $264 $346 forward 7 unknown #
coedge $-1 $185 $180 $343 $347 forward $104 $-1 #
vertex $-1 $347 $348 #
straight-curve $-1 -71.317691747345407 14.952006776040257 9.0526357265367157 0 1 0 I I #
coedge $-1 $349 $182 $185 $275 reversed $262 $-1 #
coedge $-1 $182 $349 $265 $344 forward $262 $-1 #
vertex $-1 $183 $350 #
straight-curve $-1 -75.595568712424082 26.888529745306709 53.788640326081762 0 0 1 I I #
straight-curve $-1 -75.595568712424068 26.888529745306709 4.4651742123957661 -0.68199835119979291 0 -0.73135370988377701 I I #
edge $-1 $351 -32.919497358854315 $186 -26.888529745306709 $270 $352 forward 7 unknown #
point $-1 -75.595568712424082 26.888529745306709 9.0526357265367157 #
point $-1 -71.317691747345407 26.888529745306709 9.0526357265367157 #
edge $-1 $353 1 $353 0 $189 $-1 forward 7 unknown #
vertex $-1 $190 $354 #
ellipse-curve $-1 -71.928659641450537 29.904013552080507 5.3340493791944583 -0.73135370988377701 0 0.68199835119979291 0.68199835119979291 0 0.73135370988377701 1 I I #
point $-1 -72.774631878684957 29.904013552080507 7.4902586793500161 #
loop $-1 $-1 $201 $193 #
plane-surface $-1 75.595568712424082 0 0 -1 0 0 0 0 1 forward_v I I I I #
coedge $-1 $285 $196 $355 $356 reversed $119 $-1 #
coedge $-1 $196 $284 $288 $357 reversed $119 $-1 #
edge $-1 $358 -151.19113742484816 $289 -137.75274981487561 $196 $359 forward 7 unknown #
coedge $-1 $198 $197 $292 $360 reversed $74 $-1 #
coedge $-1 $204 $199 $285 $357 forward $194 $-1 #
vertex $-1 $357 $361 #
straight-curve $-1 65.005974845691725 -8.5400565426327404 9.0526357265367139 0 -1 0 I I #
coedge $-1 $355 $201 $204 $296 reversed $282 $-1 #
coedge $-1 $201 $355 $287 $360 forward $282 $-1 #
vertex $-1 $202 $362 #
straight-curve $-1 75.595568712424082 -12.209765003114306 106.50096960004663 0 0 1 I I #
straight-curve $-1 -43.544672516392041 -12.209765003114306 93.861697971277138 0.78801074757464917 0 -0.61566148304635926 I I #
edge $-1 $363 -21.950461167416655 $205 -12.209765003114306 $291 $364 forward 7 unknown #
point $-1 75.595568712424082 -12.209765003114306 9.0526357265367157 #
point $-1 65.005974845691711 -12.209765003114306 9.052635726536721 #
edge $-1 $365 1 $365 0 $208 $-1 forward 7 unknown #
vertex $-1 $209 $366 #
ellipse-curve $-1 69.466969183972964 -19.167405120473127 3.8486682707559439 0.61566148304635926 0 0.78801074757464917 0.78801074757464917 0 -0.61566148304635926 1 I I #
point $-1 71.088782526632556 -19.167405120473127 4.3002254206366217 #
edge $-1 $367 1 $367 0 $212 $-1 forward 7 unknown #
vertex $-1 $213 $368 #
ellipse-curve $-1 69.466969183972964 -14.992821050057834 3.8486682707559439 0.61566148304635926 0 0.78801074757464917 0.78801074757464917 0 -0.61566148304635926 1 I I #
point $-1 71.088782526632556 -14.992821050057834 4.3002254206366217 #
plane-surface $-1 75.595568712424082 0 0 -1 0 0 0 0 1 forward_v I I I I #
coedge $-1 $221 $219 $223 $312 reversed $141 $-1 #
edge $-1 $234 -9.0526357265367157 $314 9.0526357265367157 $233 $369 forward 7 unknown #
vertex $-1 $312 $370 #
straight-curve $-1 -75.595568712424082 -32.919497358854315 0 0 0 -1 I I #
edge $-1 $310 -32.919497358854315 $314 32.919497358854315 $308 $371 forward 7 unknown #
straight-curve $-1 0 -32.919497358854315 -9.0526357265367157 -1 0 0 I I #
vertex $-1 $226 $372 #
straight-curve $-1 0 32.919497358854315 -9.0526357265367157 1 0 0 I I #
point $-1 75.595568712424082 32.919497358854315 -9.0526357265367157 #
point $-1 75.595568712424082 -32.919497358854315 -9.0526357265367157 #
straight-curve $-1 -75.595568712424082 0 9.0526357265367157 0 -1 0 I I #
point $-1 -75.595568712424082 32.919497358854315 9.0526357265367157 #
point $-1 -75.595568712424082 -32.919497358854315 9.0526357265367157 #
straight-curve $-1 75.595568712424082 -32.919497358854315 0 0 0 -1 I I #
straight-curve $-1 75.595568712424082 32.919497358854315 0 0 0 -1 I I #
plane-surface $-1 75.595568712424082 0 0 -1 0 0 0 0 1 forward_v I I I I #
coedge $-1 $326 $338 $249 $330 forward $244 $-1 #
coedge $-1 $247 $246 $255 $336 reversed $96 $-1 #
coedge $-1 $373 $324 $247 $327 forward $244 $-1 #
edge $-1 $328 21.950461167416655 $374 32.919497358854315 $247 $375 forward 7 unknown #
vertex $-1 $327 $376 #
straight-curve $-1 -75.595568712424082 -21.950461167416655 3.6631997290156137 0 0 -1 I I #
edge $-1 $331 -75.595568712424082 $328 75.595568712424082 $324 $377 forward 7 unknown #
vertex $-1 $250 $378 #
straight-curve $-1 75.595568712424082 -21.950461167416655 3.6631997290156137 0 0 1 I I #
point $-1 -75.595568712424082 -21.950461167416655 5.6001631895257384 #
straight-curve $-1 -75.595568712424082 -13.717489631567743 5.6001631895257384 0 -1 0 I I #
coedge $-1 $255 $254 $373 $379 reversed $160 $-1 #
edge $-1 $374 -9.0526357265367157 $256 -5.6001631895257384 $325 $380 forward 7 unknown #
point $-1 -75.595568712424082 -32.919497358854315 5.6001631895257384 #
coedge $-1 $324 $373 $258 $339 forward $244 $-1 #
edge $-1 $340 -32.919497358854315 $331 -21.950461167416655 $258 $381 forward 7 unknown #
vertex $-1 $339 $382 #
straight-curve $-1 75.595568712424082 -32.919497358854315 0 0 0 -1 I I #
coedge $-1 $343 $264 $349 $383 reversed $176 $-1 #
coedge $-1 $264 $342 $267 $347 reversed $176 $-1 #
edge $-1 $345 -17.967490582814058 $272 -11.936522969266452 $271 $384 forward 7 unknown #
vertex $-1 $266 $385 #
straight-curve $-1 -59.128571383480335 32.919497358854315 22.123867325044021 -0.68199835119979291 0 -0.73135370988377701 I I #
edge $-1 $268 71.317691747345407 $351 75.595568712424082 $343 $386 forward 7 unknown #
point $-1 -71.317691747345407 32.919497358854315 9.0526357265367157 #
coedge $-1 $271 $270 $342 $383 forward $262 $-1 #
point $-1 -75.595568712424082 26.888529745306709 4.465174212395751 #
vertex $-1 $347 $387 #
straight-curve $-1 -75.595568712424082 0 9.0526357265367157 0 -1 0 I I #
vertex $-1 $278 $388 #
point $-1 -71.246661290250756 29.904013552080507 6.0654030890782353 #
coedge $-1 $292 $291 $284 $356 forward $282 $-1 #
edge $-1 $363 97.44833387350991 $358 105.72183151921742 $355 $389 forward 7 unknown #
edge $-1 $289 65.005974845691711 $363 75.595568712424082 $288 $390 forward 7 unknown #
vertex $-1 $356 $391 #
straight-curve $-1 -43.544672516392041 -21.950461167416655 93.861697971277138 -0.78801074757464917 0 0.61566148304635926 I I #
edge $-1 $358 -13.410404624783915 $293 -3.6697084604815657 $292 $392 forward 7 unknown #
point $-1 65.005974845691711 -21.950461167416655 9.052635726536721 #
point $-1 75.595568712424082 -12.209765003114306 0.77913808082921321 #
vertex $-1 $296 $393 #
straight-curve $-1 75.595568712424082 0 9.0526357265367157 0 1 0 I I #
vertex $-1 $299 $394 #
point $-1 70.254979931547609 -19.167405120473127 3.2330067877095847 #
vertex $-1 $303 $395 #
point $-1 70.254979931547609 -14.992821050057834 3.2330067877095847 #
straight-curve $-1 -75.595568712424082 32.919497358854315 0 0 0 -1 I I #
point $-1 -75.595568712424082 -32.919497358854315 -9.0526357265367157 #
straight-curve $-1 -75.595568712424082 0 -9.0526357265367157 0 1 0 I I #
point $-1 -75.595568712424082 32.919497358854315 -9.0526357265367157 #
coedge $-1 $338 $326 $335 $379 forward $244 $-1 #
vertex $-1 $327 $396 #
straight-curve $-1 -75.595568712424082 0 9.0526357265367157 0 -1 0 I I #
point $-1 -75.595568712424082 -21.950461167416655 9.0526357265367174 #
straight-curve $-1 0 -21.950461167416655 9.0526357265367157 -1 0 0 I I #
point $-1 75.595568712424082 -21.950461167416655 9.0526357265367174 #
edge $-1 $374 -75.595568712424082 $340 75.595568712424082 $335 $397 forward 7 unknown #
straight-curve $-1 -75.595568712424082 -32.919497358854315 0 0 0 -1 I I #
straight-curve $-1 75.595568712424082 0 9.0526357265367157 0 1 0 I I #
point $-1 75.595568712424082 -32.919497358854315 9.0526357265367157 #
edge $-1 $351 -9.0526357265367157 $345 -4.465174212395751 $342 $398 forward 7 unknown #
straight-curve $-1 -75.595568712424082 14.952006776040257 4.4651742123957447 0 -1 0 I I #
point $-1 -75.595568712424082 32.919497358854315 4.465174212395751 #
straight-curve $-1 0 32.919497358854315 9.0526357265367157 -1 0 0 I I #
point $-1 -75.595568712424082 32.919497358854315 9.0526357265367157 #
point $-1 -71.197305931566774 29.904013552080507 4.6520510279946654 #
straight-curve $-1 75.595568712424082 -21.950461167416655 106.50096960004663 0 0 -1 I I #
straight-curve $-1 0 -21.950461167416655 9.0526357265367157 1 0 0 I I #
point $-1 75.595568712424082 -21.950461167416655 0.77913808082921321 #
straight-curve $-1 75.595568712424082 -8.5400565426327404 0.7791380808292061 0 1 0 I I #
point $-1 75.595568712424082 -21.950461167416655 9.0526357265367174 #
point $-1 68.851307700926611 -19.167405120473127 3.0606575231812947 #
point $-1 68.851307700926611 -14.992821050057834 3.0606575231812947 #
point $-1 -75.595568712424082 -32.919497358854315 9.0526357265367157 #
straight-curve $-1 0 -32.919497358854315 9.0526357265367157 1 0 0 I I #
straight-curve $-1 -75.595568712424082 32.919497358854315 0 0 0 -1 I I #
End-of-ACIS-data 