500 0 10 0           
7 Unknown 11 ACIS 5.0 NT 24 Fri Mar 26 02:43:57 1999 
-1 9.9999999999999995e-007 1e-010 
body $-1 $10 $-1 $11 #
body $-1 $12 $-1 $13 #
body $-1 $14 $-1 $15 #
body $-1 $16 $-1 $17 #
body $-1 $18 $-1 $19 #
body $-1 $20 $-1 $21 #
body $-1 $22 $-1 $23 #
body $-1 $24 $-1 $25 #
body $-1 $26 $-1 $27 #
body $-1 $28 $-1 $29 #
lump $-1 $-1 $30 $0 #
transform $-1 1 0 0 0 1 0 0 0 1 73.56547746208075 49.334468057718276 16.801151434555443 1 rotate no_reflect no_shear #
lump $-1 $-1 $31 $1 #
transform $-1 1 0 0 0 1 0 0 0 1 73.56547746208075 49.334468057718276 16.801151434555443 1 rotate no_reflect no_shear #
lump $-1 $-1 $32 $2 #
transform $-1 1 0 0 0 1 0 0 0 1 73.56547746208075 49.334468057718276 16.801151434555443 1 rotate no_reflect no_shear #
lump $-1 $-1 $33 $3 #
transform $-1 1 0 0 0 1 0 0 0 1 73.56547746208075 49.334468057718276 16.801151434555443 1 rotate no_reflect no_shear #
lump $-1 $-1 $34 $4 #
transform $-1 1 0 0 0 1 0 0 0 1 73.56547746208075 49.334468057718276 16.801151434555443 1 rotate no_reflect no_shear #
lump $-1 $-1 $35 $5 #
transform $-1 1 0 0 0 1 0 0 0 1 73.56547746208075 49.334468057718276 16.801151434555443 1 rotate no_reflect no_shear #
lump $-1 $-1 $36 $6 #
transform $-1 1 0 0 0 1 0 0 0 1 73.56547746208075 49.334468057718276 16.801151434555443 1 rotate no_reflect no_shear #
lump $-1 $-1 $37 $7 #
transform $-1 1 0 0 0 1 0 0 0 1 73.56547746208075 49.334468057718276 16.801151434555443 1 rotate no_reflect no_shear #
lump $-1 $-1 $38 $8 #
transform $-1 1 0 0 0 1 0 0 0 1 73.56547746208075 49.334468057718276 16.801151434555443 1 rotate no_reflect no_shear #
lump $-1 $-1 $39 $9 #
transform $-1 1 0 0 0 1 0 0 0 1 73.56547746208075 49.334468057718276 16.801151434555443 1 rotate no_reflect no_shear #
shell $-1 $-1 $-1 $40 $-1 $10 #
shell $-1 $-1 $-1 $41 $-1 $12 #
shell $-1 $-1 $-1 $42 $-1 $14 #
shell $-1 $-1 $-1 $43 $-1 $16 #
shell $-1 $-1 $-1 $44 $-1 $18 #
shell $-1 $-1 $-1 $45 $-1 $20 #
shell $-1 $-1 $-1 $46 $-1 $22 #
shell $-1 $-1 $-1 $47 $-1 $24 #
shell $-1 $-1 $-1 $48 $-1 $26 #
shell $-1 $-1 $-1 $49 $-1 $28 #
face $-1 $50 $51 $30 $-1 $52 forward single #
face $-1 $53 $54 $31 $-1 $55 reversed single #
face $-1 $56 $57 $32 $-1 $58 reversed single #
face $-1 $59 $60 $33 $-1 $61 forward single #
face $-1 $62 $63 $34 $-1 $64 forward single #
face $-1 $65 $66 $35 $-1 $67 forward single #
face $-1 $68 $69 $36 $-1 $70 reversed single #
face $-1 $71 $72 $37 $-1 $73 forward single #
face $-1 $74 $75 $38 $-1 $76 forward single #
face $-1 $77 $78 $39 $-1 $79 forward single #
face $-1 $80 $81 $30 $-1 $82 reversed single #
loop $-1 $-1 $83 $40 #
plane-surface $-1 0 0 16.801151434555443 0 0 1 1 0 0 forward_v I I I I #
face $-1 $84 $85 $31 $-1 $86 reversed single #
loop $-1 $-1 $87 $41 #
plane-surface $-1 0 -39.147069606267358 12.117420916226328 0 0 1 1 0 0 forward_v I I I I #
face $-1 $88 $89 $32 $-1 $90 reversed single #
loop $-1 $-1 $91 $42 #
plane-surface $-1 123.90328023158743 1.3492226092284252 207.56690229871398 0 -1 0 -0.85716730853699208 0 -0.51503806187062418 forward_v I I I I #
face $-1 $92 $93 $33 $-1 $94 forward single #
loop $-1 $95 $96 $43 #
cone-surface $-1 68.138509330414834 -15.623117431768293 9.9850469462029636 -0.85716730853699208 0 -0.51503806187062418 0.77255709280593621 0 -1.2857509628054882 1 I I 0 1 1.5 forward I I I I #
face $-1 $97 $98 $34 $-1 $99 forward single #
loop $-1 $100 $101 $44 #
cone-surface $-1 68.138509330414834 -9.2584899163945238 9.9850469462029636 -0.85716730853699208 0 -0.51503806187062418 0.77255709280593621 0 -1.2857509628054882 1 I I 0 1 1.5 forward I I I I #
face $-1 $102 $103 $35 $-1 $104 forward single #
loop $-1 $105 $106 $45 #
cone-surface $-1 68.138509330414834 -2.8938624010207548 9.9850469462029636 -0.85716730853699208 0 -0.51503806187062418 0.77255709280593621 0 -1.2857509628054882 1 I I 0 1 1.5 forward I I I I #
face $-1 $107 $108 $36 $-1 $109 reversed single #
loop $-1 $-1 $110 $46 #
plane-surface $-1 -73.565477462080736 -20.732777145120167 4.4962093436652566 -0.81915205242281985 0 0.57357642473473569 0.57357642473473569 0 0.81915205242281985 forward_v I I I I #
face $-1 $111 $112 $37 $-1 $113 forward single #
loop $-1 $114 $115 $47 #
cone-surface $-1 -66.860594383134256 -25.66891355093793 8.9703693732526038 0.81915205242281985 0 -0.57357642473473569 0.86036463710210354 0 1.2287280786342298 1 I I 0 1 1.5 forward I I I I #
face $-1 $116 $117 $38 $-1 $118 forward single #
loop $-1 $119 $120 $48 #
cone-surface $-1 -66.860594383134256 -20.732777145120167 8.9703693732526038 0.81915205242281985 0 -0.57357642473473569 0.86036463710210354 0 1.2287280786342298 1 I I 0 1 1.5 forward I I I I #
face $-1 $121 $122 $39 $-1 $123 forward single #
loop $-1 $124 $125 $49 #
cone-surface $-1 -66.860594383134256 -15.796640739302404 8.9703693732526038 0.81915205242281985 0 -0.57357642473473569 0.86036463710210354 0 1.2287280786342298 1 I I 0 1 1.5 forward I I I I #
face $-1 $126 $127 $30 $-1 $128 reversed single #
loop $-1 $-1 $129 $50 #
plane-surface $-1 0 0 -16.801151434555443 0 0 1 1 0 0 forward_v I I I I #
coedge $-1 $130 $131 $132 $133 forward $51 $-1 #
face $-1 $134 $135 $31 $-1 $136 reversed single #
loop $-1 $-1 $137 $53 #
plane-surface $-1 0 -28.959671154816441 14.459286175390886 0 -1 0 0 0 -1 forward_v I I I I #
coedge $-1 $138 $139 $140 $141 reversed $54 $-1 #
face $-1 $142 $143 $32 $-1 $144 reversed single #
loop $-1 $-1 $145 $56 #
plane-surface $-1 -2.2125644032335856 -9.2584899163945238 131.78886043339969 0.85716730853699208 0 0.51503806187062418 0.51503806187062418 0 -0.85716730853699208 forward_v I I I I #
coedge $-1 $146 $147 $148 $149 reversed $57 $-1 #
face $-1 $-1 $150 $33 $-1 $151 forward single #
loop $-1 $152 $153 $59 #
cone-surface $-1 65.411894835573534 -15.623117431768293 8.3467317294359091 -0.85716730853699208 0 -0.51503806187062418 0.3862785464029681 0 -0.64287548140274409 1 I I -0.70710678118654757 0.70710678118654757 0.75 forward I I I I #
loop $-1 $-1 $154 $43 #
coedge $-1 $96 $96 $155 $156 reversed $60 $-1 #
face $-1 $-1 $157 $34 $-1 $158 forward single #
loop $-1 $159 $160 $62 #
cone-surface $-1 65.411894835573534 -9.2584899163945238 8.3467317294359091 -0.85716730853699208 0 -0.51503806187062418 0.3862785464029681 0 -0.64287548140274409 1 I I -0.70710678118654757 0.70710678118654757 0.75 forward I I I I #
loop $-1 $-1 $161 $44 #
coedge $-1 $101 $101 $162 $163 reversed $63 $-1 #
face $-1 $-1 $164 $35 $-1 $165 forward single #
loop $-1 $166 $167 $65 #
cone-surface $-1 65.411894835573534 -2.8938624010207548 8.3467317294359091 -0.85716730853699208 0 -0.51503806187062418 0.3862785464029681 0 -0.64287548140274409 1 I I -0.70710678118654757 0.70710678118654757 0.75 forward I I I I #
loop $-1 $-1 $168 $45 #
coedge $-1 $106 $106 $169 $170 reversed $66 $-1 #
face $-1 $171 $172 $36 $-1 $173 forward single #
loop $-1 $-1 $174 $68 #
plane-surface $-1 -194.08810116313703 -12.505883135423899 88.887056436873365 0 -1 0 0.81915205242281985 0 -0.57357642473473569 forward_v I I I I #
coedge $-1 $175 $176 $177 $178 reversed $69 $-1 #
face $-1 $-1 $179 $37 $-1 $180 forward single #
loop $-1 $181 $182 $71 #
cone-surface $-1 -63.849353739484059 -25.66891355093793 6.8618760388438034 0.81915205242281985 0 -0.57357642473473569 0.43018231855105177 0 0.61436403931711492 1 I I -0.70710678118654757 0.70710678118654757 0.75 forward I I I I #
loop $-1 $-1 $183 $47 #
coedge $-1 $115 $115 $184 $185 reversed $72 $-1 #
face $-1 $-1 $186 $38 $-1 $187 forward single #
loop $-1 $188 $189 $74 #
cone-surface $-1 -63.849353739484059 -20.732777145120167 6.8618760388438034 0.81915205242281985 0 -0.57357642473473569 0.43018231855105177 0 0.61436403931711492 1 I I -0.70710678118654757 0.70710678118654757 0.75 forward I I I I #
loop $-1 $-1 $190 $48 #
coedge $-1 $120 $120 $191 $192 reversed $75 $-1 #
face $-1 $-1 $193 $39 $-1 $194 forward single #
loop $-1 $195 $196 $77 #
cone-surface $-1 -63.849353739484059 -15.796640739302404 6.8618760388438034 0.81915205242281985 0 -0.57357642473473569 0.43018231855105177 0 0.61436403931711492 1 I I -0.70710678118654757 0.70710678118654757 0.75 forward I I I I #
loop $-1 $-1 $197 $49 #
coedge $-1 $125 $125 $198 $199 reversed $78 $-1 #
face $-1 $200 $201 $30 $-1 $202 reversed single #
loop $-1 $-1 $203 $80 #
plane-surface $-1 0 -49.334468057718276 0 0 1 0 0 0 1 forward_v I I I I #
coedge $-1 $204 $205 $206 $207 forward $81 $-1 #
coedge $-1 $208 $83 $209 $210 forward $51 $-1 #
coedge $-1 $83 $208 $211 $212 forward $51 $-1 #
coedge $-1 $213 $214 $83 $133 reversed $215 $-1 #
edge $-1 $216 -49.334468057718276 $217 49.334468057718276 $132 $218 forward 7 unknown #
face $-1 $219 $220 $31 $-1 $221 reversed single #
loop $-1 $-1 $222 $84 #
plane-surface $-1 -73.56547746208075 0 0 1 0 0 0 0 -1 forward_v I I I I #
coedge $-1 $223 $224 $225 $226 reversed $85 $-1 #
coedge $-1 $227 $87 $228 $229 reversed $54 $-1 #
coedge $-1 $87 $227 $230 $231 forward $54 $-1 #
coedge $-1 $232 $233 $87 $141 forward $234 $-1 #
edge $-1 $235 -29.760933254584597 $236 -9.3861363516827616 $140 $237 forward 7 unknown #
face $-1 $238 $239 $32 $-1 $240 reversed single #
loop $-1 $-1 $241 $88 #
plane-surface $-1 123.90328023158743 -19.866202442017475 207.56690229871398 0 1 0 0.85716730853699208 0 0.51503806187062418 forward_v I I I I #
coedge $-1 $242 $243 $244 $245 reversed $89 $-1 #
coedge $-1 $147 $91 $246 $247 reversed $57 $-1 #
coedge $-1 $91 $146 $242 $248 reversed $57 $-1 #
coedge $-1 $244 $249 $91 $149 forward $250 $-1 #
edge $-1 $251 -11.613837346287035 $252 -4.9273791098322945 $148 $253 forward 7 unknown #
loop $-1 $-1 $155 $92 #
plane-surface $-1 -2.2125644032335856 -9.2584899163945238 131.78886043339969 0.85716730853699208 0 0.51503806187062418 0.51503806187062418 0 -0.85716730853699208 forward_v I I I I #
loop $-1 $-1 $254 $59 #
coedge $-1 $153 $153 $154 $255 reversed $93 $-1 #
coedge $-1 $154 $154 $153 $255 forward $95 $-1 #
coedge $-1 $155 $155 $96 $156 forward $150 $-1 #
edge $-1 $256 0 $256 6.2831853071796004 $155 $257 forward 7 unknown #
loop $-1 $-1 $162 $97 #
plane-surface $-1 -2.2125644032335856 -9.2584899163945238 131.78886043339969 0.85716730853699208 0 0.51503806187062418 0.51503806187062418 0 -0.85716730853699208 forward_v I I I I #
loop $-1 $-1 $258 $62 #
coedge $-1 $160 $160 $161 $259 reversed $98 $-1 #
coedge $-1 $161 $161 $160 $259 forward $100 $-1 #
coedge $-1 $162 $162 $101 $163 forward $157 $-1 #
edge $-1 $260 0 $260 6.2831853071796004 $162 $261 forward 7 unknown #
loop $-1 $-1 $169 $102 #
plane-surface $-1 -2.2125644032335856 -9.2584899163945238 131.78886043339969 0.85716730853699208 0 0.51503806187062418 0.51503806187062418 0 -0.85716730853699208 forward_v I I I I #
loop $-1 $-1 $262 $65 #
coedge $-1 $167 $167 $168 $263 reversed $103 $-1 #
coedge $-1 $168 $168 $167 $263 forward $105 $-1 #
coedge $-1 $169 $169 $106 $170 forward $164 $-1 #
edge $-1 $264 0 $264 6.2831853071796004 $169 $265 forward 7 unknown #
face $-1 $266 $267 $36 $-1 $268 reversed single #
loop $-1 $-1 $177 $107 #
plane-surface $-1 0 0 16.801151434555443 0 0 1 1 0 0 forward_v I I I I #
coedge $-1 $269 $270 $271 $272 reversed $108 $-1 #
coedge $-1 $273 $110 $274 $275 reversed $69 $-1 #
coedge $-1 $110 $273 $269 $276 forward $69 $-1 #
coedge $-1 $271 $277 $110 $178 forward $172 $-1 #
edge $-1 $278 -18.59328258225635 $279 -2.1394945628638151 $177 $280 forward 7 unknown #
loop $-1 $-1 $184 $111 #
plane-surface $-1 -73.565477462080736 -20.732777145120167 4.4962093436652566 -0.81915205242281985 0 0.57357642473473569 0.57357642473473569 0 0.81915205242281985 forward_v I I I I #
loop $-1 $-1 $281 $71 #
coedge $-1 $182 $182 $183 $282 reversed $112 $-1 #
coedge $-1 $183 $183 $182 $282 forward $114 $-1 #
coedge $-1 $184 $184 $115 $185 forward $179 $-1 #
edge $-1 $283 0 $283 6.2831853071796004 $184 $284 forward 7 unknown #
loop $-1 $-1 $191 $116 #
plane-surface $-1 -73.565477462080736 -20.732777145120167 4.4962093436652566 -0.81915205242281985 0 0.57357642473473569 0.57357642473473569 0 0.81915205242281985 forward_v I I I I #
loop $-1 $-1 $285 $74 #
coedge $-1 $189 $189 $190 $286 reversed $117 $-1 #
coedge $-1 $190 $190 $189 $286 forward $119 $-1 #
coedge $-1 $191 $191 $120 $192 forward $186 $-1 #
edge $-1 $287 0 $287 6.2831853071796004 $191 $288 forward 7 unknown #
loop $-1 $-1 $198 $121 #
plane-surface $-1 -73.565477462080736 -20.732777145120167 4.4962093436652566 -0.81915205242281985 0 0.57357642473473569 0.57357642473473569 0 0.81915205242281985 forward_v I I I I #
loop $-1 $-1 $289 $77 #
coedge $-1 $196 $196 $197 $290 reversed $122 $-1 #
coedge $-1 $197 $197 $196 $290 forward $124 $-1 #
coedge $-1 $198 $198 $125 $199 forward $193 $-1 #
edge $-1 $291 0 $291 6.2831853071796004 $198 $292 forward 7 unknown #
face $-1 $293 $294 $30 $-1 $295 reversed single #
loop $-1 $-1 $296 $126 #
plane-surface $-1 -73.56547746208075 0 0 1 0 0 0 0 -1 forward_v I I I I #
coedge $-1 $297 $211 $298 $299 forward $127 $-1 #
coedge $-1 $300 $129 $297 $301 forward $81 $-1 #
coedge $-1 $129 $300 $302 $303 forward $81 $-1 #
coedge $-1 $214 $213 $129 $207 reversed $215 $-1 #
edge $-1 $304 -49.334468057718276 $305 49.334468057718276 $206 $306 forward 7 unknown #
coedge $-1 $131 $130 $307 $308 forward $51 $-1 #
coedge $-1 $309 $310 $130 $210 reversed $294 $-1 #
edge $-1 $217 -73.56547746208075 $311 73.56547746208075 $209 $312 forward 7 unknown #
coedge $-1 $203 $313 $131 $212 reversed $127 $-1 #
edge $-1 $314 -73.56547746208075 $216 73.56547746208075 $211 $315 forward 7 unknown #
coedge $-1 $206 $132 $313 $316 forward $215 $-1 #
coedge $-1 $132 $206 $309 $317 reversed $215 $-1 #
loop $-1 $-1 $213 $293 #
vertex $-1 $133 $318 #
vertex $-1 $133 $319 #
straight-curve $-1 73.56547746208075 0 16.801151434555443 0 1 0 I I #
face $-1 $320 $321 $31 $-1 $322 forward single #
loop $-1 $-1 $228 $134 #
plane-surface $-1 0 -49.334468057718276 0 0 1 0 0 0 1 forward_v I I I I #
coedge $-1 $323 $324 $224 $325 forward $135 $-1 #
coedge $-1 $230 $137 $232 $326 reversed $85 $-1 #
coedge $-1 $137 $230 $222 $325 reversed $85 $-1 #
coedge $-1 $327 $328 $137 $226 forward $321 $-1 #
edge $-1 $329 -73.56547746208075 $330 73.56547746208075 $225 $331 forward 7 unknown #
coedge $-1 $139 $138 $323 $332 reversed $54 $-1 #
coedge $-1 $333 $334 $138 $229 forward $220 $-1 #
edge $-1 $335 -73.56547746208075 $235 73.56547746208075 $228 $336 forward 7 unknown #
coedge $-1 $224 $223 $139 $231 reversed $85 $-1 #
edge $-1 $337 -73.56547746208075 $236 73.56547746208075 $230 $338 forward 7 unknown #
coedge $-1 $339 $140 $223 $326 forward $234 $-1 #
coedge $-1 $140 $339 $333 $340 forward $234 $-1 #
loop $-1 $-1 $232 $320 #
vertex $-1 $229 $341 #
vertex $-1 $141 $342 #
straight-curve $-1 73.56547746208075 -19.573534803133679 12.117420916226328 0 1 0 I I #
face $-1 $-1 $250 $32 $-1 $343 forward single #
loop $-1 $-1 $344 $142 #
plane-surface $-1 73.56547746208075 0 0 -1 0 0 0 0 1 forward_v I I I I #
coedge $-1 $345 $346 $347 $348 reversed $143 $-1 #
coedge $-1 $349 $145 $147 $248 forward $89 $-1 #
coedge $-1 $145 $349 $345 $350 forward $89 $-1 #
coedge $-1 $347 $148 $145 $245 forward $250 $-1 #
edge $-1 $252 -5.9784675674256871 $351 15.236957483820213 $244 $352 forward 7 unknown #
coedge $-1 $353 $354 $146 $247 forward $239 $-1 #
edge $-1 $355 -98.11043535077836 $251 -86.982299714801542 $246 $356 forward 7 unknown #
edge $-1 $252 134.14850036115425 $355 147.13095492416159 $147 $357 forward 7 unknown #
coedge $-1 $148 $347 $353 $358 forward $250 $-1 #
loop $-1 $-1 $347 $238 #
vertex $-1 $247 $359 #
vertex $-1 $149 $360 #
straight-curve $-1 61.951640115793715 1.3492226092284252 16.80115143455545 -1 0 0 I I #
coedge $-1 $254 $254 $-1 $361 reversed $152 $-1 #
edge $-1 $362 0 $362 6.2831853071796004 $153 $363 forward 7 unknown #
vertex $-1 $156 $364 #
ellipse-curve $-1 70.222248343853366 -15.623117431768293 11.237083616567038 0.85716730853699208 0 0.51503806187062418 0.77255709280593621 0 -1.2857509628054882 1 I I #
coedge $-1 $258 $258 $-1 $365 reversed $159 $-1 #
edge $-1 $366 0 $366 6.2831853071796004 $160 $367 forward 7 unknown #
vertex $-1 $163 $368 #
ellipse-curve $-1 70.222248343853366 -9.2584899163945238 11.237083616567038 0.85716730853699208 0 0.51503806187062418 0.77255709280593621 0 -1.2857509628054882 1 I I #
coedge $-1 $262 $262 $-1 $369 reversed $166 $-1 #
edge $-1 $370 0 $370 6.2831853071796004 $167 $371 forward 7 unknown #
vertex $-1 $170 $372 #
ellipse-curve $-1 70.222248343853366 -2.8938624010207548 11.237083616567038 0.85716730853699208 0 0.51503806187062418 0.77255709280593621 0 -1.2857509628054882 1 I I #
face $-1 $-1 $373 $36 $-1 $374 forward single #
loop $-1 $-1 $375 $171 #
plane-surface $-1 -73.56547746208075 0 0 1 0 0 0 0 -1 forward_v I I I I #
coedge $-1 $270 $174 $176 $276 reversed $108 $-1 #
coedge $-1 $174 $269 $375 $376 reversed $108 $-1 #
coedge $-1 $377 $177 $174 $272 forward $172 $-1 #
edge $-1 $279 -32.094586068714619 $378 -23.478573119487763 $271 $379 forward 7 unknown #
coedge $-1 $176 $175 $380 $381 reversed $69 $-1 #
coedge $-1 $382 $383 $175 $275 forward $373 $-1 #
edge $-1 $384 -25.178349190879196 $278 -10.156788719296811 $274 $385 forward 7 unknown #
edge $-1 $386 -2.4884734274515653e-014 $279 15.021560471582358 $269 $387 forward 7 unknown #
coedge $-1 $177 $377 $382 $388 forward $172 $-1 #
vertex $-1 $275 $389 #
vertex $-1 $178 $390 #
straight-curve $-1 -64.949464512853908 -10.366388572560084 16.801151434555443 0 1 0 I I #
coedge $-1 $281 $281 $-1 $391 reversed $181 $-1 #
edge $-1 $392 0 $392 6.2831853071796004 $182 $393 forward 7 unknown #
vertex $-1 $185 $394 #
ellipse-curve $-1 -69.257470987467329 -25.66891355093793 10.648680389110343 -0.81915205242281985 0 0.57357642473473569 0.86036463710210354 0 1.2287280786342298 1 I I #
coedge $-1 $285 $285 $-1 $395 reversed $188 $-1 #
edge $-1 $396 0 $396 6.2831853071796004 $189 $397 forward 7 unknown #
vertex $-1 $192 $398 #
ellipse-curve $-1 -69.257470987467329 -20.732777145120167 10.648680389110343 -0.81915205242281985 0 0.57357642473473569 0.86036463710210354 0 1.2287280786342298 1 I I #
coedge $-1 $289 $289 $-1 $399 reversed $195 $-1 #
edge $-1 $400 0 $400 6.2831853071796004 $196 $401 forward 7 unknown #
vertex $-1 $199 $402 #
ellipse-curve $-1 -69.257470987467329 -15.796640739302404 10.648680389110343 -0.81915205242281985 0 0.57357642473473569 0.86036463710210354 0 1.2287280786342298 1 I I #
face $-1 $-1 $215 $30 $-1 $403 reversed single #
loop $-1 $-1 $309 $200 #
plane-surface $-1 0 49.334468057718276 0 0 -1 0 0 0 -1 forward_v I I I I #
coedge $-1 $404 $307 $310 $405 forward $201 $-1 #
coedge $-1 $313 $203 $204 $301 reversed $127 $-1 #
coedge $-1 $307 $404 $203 $299 reversed $201 $-1 #
edge $-1 $314 -16.801151434555443 $406 16.801151434555443 $298 $407 forward 7 unknown #
coedge $-1 $205 $204 $404 $408 forward $81 $-1 #
edge $-1 $305 -73.56547746208075 $406 73.56547746208075 $297 $409 forward 7 unknown #
coedge $-1 $310 $309 $205 $303 reversed $294 $-1 #
edge $-1 $410 -73.56547746208075 $304 73.56547746208075 $302 $411 forward 7 unknown #
vertex $-1 $207 $412 #
vertex $-1 $316 $413 #
straight-curve $-1 73.56547746208075 0 -16.801151434555443 0 -1 0 I I #
coedge $-1 $296 $298 $208 $308 reversed $201 $-1 #
edge $-1 $311 -49.334468057718276 $314 49.334468057718276 $307 $414 forward 7 unknown #
coedge $-1 $302 $209 $214 $317 forward $294 $-1 #
coedge $-1 $209 $302 $296 $405 reversed $294 $-1 #
vertex $-1 $210 $415 #
straight-curve $-1 0 49.334468057718276 16.801151434555443 -1 0 0 I I #
coedge $-1 $211 $297 $213 $316 reversed $127 $-1 #
vertex $-1 $308 $416 #
straight-curve $-1 0 -49.334468057718276 16.801151434555443 1 0 0 I I #
edge $-1 $216 -16.801151434555443 $305 16.801151434555443 $213 $417 forward 7 unknown #
edge $-1 $217 -16.801151434555443 $304 16.801151434555443 $214 $418 forward 7 unknown #
point $-1 73.56547746208075 -49.334468057718276 16.801151434555443 #
point $-1 73.56547746208075 49.334468057718276 16.801151434555443 #
face $-1 $-1 $234 $31 $-1 $419 reversed single #
loop $-1 $-1 $225 $219 #
plane-surface $-1 0 0 16.801151434555443 0 0 1 1 0 0 forward_v I I I I #
coedge $-1 $420 $222 $227 $332 forward $135 $-1 #
coedge $-1 $222 $420 $327 $421 reversed $135 $-1 #
edge $-1 $330 -9.57150834686 $337 -4.8877778285308846 $222 $422 forward 7 unknown #
edge $-1 $236 4.8877778285308846 $329 9.57150834686 $232 $423 forward 7 unknown #
coedge $-1 $424 $225 $324 $421 forward $321 $-1 #
coedge $-1 $225 $424 $339 $425 forward $321 $-1 #
vertex $-1 $326 $426 #
vertex $-1 $421 $427 #
straight-curve $-1 0 -28.959671154816441 16.801151434555443 -1 0 0 I I #
edge $-1 $337 9.3861363516827616 $335 29.760933254584597 $323 $428 forward 7 unknown #
coedge $-1 $429 $228 $233 $340 reversed $220 $-1 #
coedge $-1 $228 $429 $420 $430 forward $220 $-1 #
vertex $-1 $229 $431 #
straight-curve $-1 0 -49.334468057718276 12.117420916226328 1 0 0 I I #
vertex $-1 $332 $432 #
straight-curve $-1 0 -28.959671154816441 12.117420916226328 1 0 0 I I #
coedge $-1 $233 $232 $328 $425 reversed $234 $-1 #
edge $-1 $433 -16.801151434555443 $235 -12.117420916226328 $233 $434 forward 7 unknown #
point $-1 73.56547746208075 -49.334468057718276 12.117420916226328 #
point $-1 73.56547746208075 -28.959671154816441 12.117420916226328 #
plane-surface $-1 0 0 16.801151434555443 0 0 1 1 0 0 forward_v I I I I #
coedge $-1 $354 $353 $346 $435 forward $239 $-1 #
coedge $-1 $346 $241 $243 $350 reversed $143 $-1 #
coedge $-1 $241 $345 $344 $435 reversed $143 $-1 #
coedge $-1 $249 $244 $241 $348 forward $250 $-1 #
edge $-1 $351 4.9273791098322945 $436 11.613837346287035 $347 $437 forward 7 unknown #
coedge $-1 $243 $242 $354 $438 reversed $89 $-1 #
edge $-1 $439 -147.13095492416159 $351 -134.14850036115425 $345 $440 forward 7 unknown #
vertex $-1 $245 $441 #
straight-curve $-1 66.879019225625996 -4.6292449581972619 16.801151434555436 0 -1 0 I I #
coedge $-1 $344 $246 $249 $358 reversed $239 $-1 #
coedge $-1 $246 $344 $349 $438 forward $239 $-1 #
vertex $-1 $247 $442 #
straight-curve $-1 73.56547746208075 1.3492226092284252 103.78345114935699 0 0 1 I I #
straight-curve $-1 -2.2125644032335856 1.3492226092284252 131.78886043339969 0.51503806187062418 0 -0.85716730853699208 I I #
edge $-1 $436 -19.866202442017475 $251 1.3492226092284252 $353 $443 forward 7 unknown #
point $-1 73.56547746208075 1.3492226092284252 16.801151434555443 #
point $-1 66.87901922562601 1.3492226092284252 16.801151434555422 #
edge $-1 $444 1 $444 0 $254 $-1 forward 7 unknown #
vertex $-1 $255 $445 #
ellipse-curve $-1 66.054770316976274 -15.623117431768293 8.7330102758388772 0.85716730853699208 0 0.51503806187062418 0.77255709280593621 0 -1.2857509628054882 1 I I #
point $-1 70.994805436659334 -15.623117431768293 9.951332653761563 #
edge $-1 $446 1 $446 0 $258 $-1 forward 7 unknown #
vertex $-1 $259 $447 #
ellipse-curve $-1 66.054770316976274 -9.2584899163945238 8.7330102758388772 0.85716730853699208 0 0.51503806187062418 0.77255709280593621 0 -1.2857509628054882 1 I I #
point $-1 70.994805436659334 -9.2584899163945238 9.951332653761563 #
edge $-1 $448 1 $448 0 $262 $-1 forward 7 unknown #
vertex $-1 $263 $449 #
ellipse-curve $-1 66.054770316976274 -2.8938624010207548 8.7330102758388772 0.85716730853699208 0 0.51503806187062418 0.77255709280593621 0 -1.2857509628054882 1 I I #
point $-1 70.994805436659334 -2.8938624010207548 9.951332653761563 #
loop $-1 $-1 $274 $266 #
plane-surface $-1 0 -28.959671154816441 14.459286175390886 0 -1 0 0 0 -1 forward_v I I I I #
coedge $-1 $380 $450 $270 $376 forward $267 $-1 #
edge $-1 $378 27.64237678388124 $386 39.947318874771447 $375 $451 forward 7 unknown #
coedge $-1 $277 $271 $450 $452 forward $172 $-1 #
vertex $-1 $452 $453 #
straight-curve $-1 -97.044050581568513 -12.505883135423899 16.801151434555443 -1 0 0 I I #
coedge $-1 $454 $375 $273 $381 forward $267 $-1 #
edge $-1 $386 2.1394945628638151 $384 18.59328258225635 $380 $455 forward 7 unknown #
coedge $-1 $383 $274 $277 $388 reversed $373 $-1 #
coedge $-1 $274 $382 $454 $456 reversed $373 $-1 #
vertex $-1 $456 $457 #
straight-curve $-1 -59.123769952453543 -28.959671154816441 25.121105759992375 0.57357642473473569 0 0.81915205242281985 I I #
vertex $-1 $381 $458 #
straight-curve $-1 -73.565477462080736 -12.505883135423899 4.4962093436652566 0.57357642473473569 0 0.81915205242281985 I I #
edge $-1 $459 -73.56547746208075 $278 -64.949464512853893 $277 $460 forward 7 unknown #
point $-1 -64.949464512853893 -28.959671154816434 16.801151434555443 #
point $-1 -64.949464512853893 -12.505883135423899 16.801151434555443 #
edge $-1 $461 1 $461 0 $281 $-1 forward 7 unknown #
vertex $-1 $282 $462 #
ellipse-curve $-1 -64.463717778801168 -25.66891355093793 7.292058357394855 -0.81915205242281985 0 0.57357642473473569 0.86036463710210354 0 1.2287280786342298 1 I I #
point $-1 -68.397106350365235 -25.66891355093793 11.87740846774458 #
edge $-1 $463 1 $463 0 $285 $-1 forward 7 unknown #
vertex $-1 $286 $464 #
ellipse-curve $-1 -64.463717778801168 -20.732777145120167 7.292058357394855 -0.81915205242281985 0 0.57357642473473569 0.86036463710210354 0 1.2287280786342298 1 I I #
point $-1 -68.397106350365235 -20.732777145120167 11.87740846774458 #
edge $-1 $465 1 $465 0 $289 $-1 forward 7 unknown #
vertex $-1 $290 $466 #
ellipse-curve $-1 -64.463717778801168 -15.796640739302404 7.292058357394855 -0.81915205242281985 0 0.57357642473473569 0.86036463710210354 0 1.2287280786342298 1 I I #
point $-1 -68.397106350365235 -15.796640739302404 11.87740846774458 #
plane-surface $-1 73.56547746208075 0 0 -1 0 0 0 0 1 forward_v I I I I #
coedge $-1 $298 $296 $300 $408 reversed $201 $-1 #
edge $-1 $311 -16.801151434555443 $410 16.801151434555443 $310 $467 forward 7 unknown #
vertex $-1 $408 $468 #
straight-curve $-1 -73.56547746208075 -49.334468057718276 0 0 0 -1 I I #
edge $-1 $406 -49.334468057718276 $410 49.334468057718276 $404 $469 forward 7 unknown #
straight-curve $-1 0 -49.334468057718276 -16.801151434555443 -1 0 0 I I #
vertex $-1 $303 $470 #
straight-curve $-1 0 49.334468057718276 -16.801151434555443 1 0 0 I I #
point $-1 73.56547746208075 49.334468057718276 -16.801151434555443 #
point $-1 73.56547746208075 -49.334468057718276 -16.801151434555443 #
straight-curve $-1 -73.56547746208075 0 16.801151434555443 0 -1 0 I I #
point $-1 -73.56547746208075 49.334468057718276 16.801151434555443 #
point $-1 -73.56547746208075 -49.334468057718276 16.801151434555443 #
straight-curve $-1 73.56547746208075 -49.334468057718276 0 0 0 -1 I I #
straight-curve $-1 73.56547746208075 49.334468057718276 0 0 0 -1 I I #
plane-surface $-1 73.56547746208075 0 0 -1 0 0 0 0 1 forward_v I I I I #
coedge $-1 $324 $323 $334 $430 reversed $135 $-1 #
edge $-1 $330 28.959671154816441 $471 49.334468057718276 $324 $472 forward 7 unknown #
straight-curve $-1 -73.56547746208075 -28.959671154816441 7.2296430876954432 0 0 -1 I I #
straight-curve $-1 73.56547746208075 -28.959671154816441 7.2296430876954432 0 0 1 I I #
coedge $-1 $328 $327 $429 $473 forward $321 $-1 #
edge $-1 $433 -49.334468057718276 $329 -28.959671154816441 $339 $474 forward 7 unknown #
point $-1 73.56547746208075 -28.959671154816441 16.801151434555443 #
point $-1 -73.56547746208075 -28.959671154816441 16.801151434555443 #
straight-curve $-1 -73.56547746208075 -19.573534803133679 12.117420916226328 0 -1 0 I I #
coedge $-1 $334 $333 $424 $473 reversed $220 $-1 #
edge $-1 $471 -16.801151434555443 $335 -12.117420916226328 $420 $475 forward 7 unknown #
point $-1 -73.56547746208075 -49.334468057718276 12.117420916226328 #
point $-1 -73.56547746208075 -28.959671154816441 12.117420916226328 #
vertex $-1 $425 $476 #
straight-curve $-1 73.56547746208075 -49.334468057718276 0 0 0 -1 I I #
edge $-1 $436 86.982299714801542 $439 98.11043535077836 $344 $477 forward 7 unknown #
vertex $-1 $358 $478 #
straight-curve $-1 61.951640115793715 -19.866202442017475 16.80115143455545 1 0 0 I I #
edge $-1 $439 -15.236957483820213 $355 5.9784675674256871 $354 $479 forward 7 unknown #
vertex $-1 $438 $480 #
straight-curve $-1 -2.2125644032335856 -19.866202442017475 131.78886043339969 -0.51503806187062418 0 0.85716730853699208 I I #
point $-1 66.87901922562601 -19.866202442017475 16.801151434555422 #
point $-1 73.56547746208075 1.3492226092284252 5.673015798578632 #
straight-curve $-1 73.56547746208075 0 16.801151434555443 0 1 0 I I #
vertex $-1 $361 $481 #
point $-1 66.827327409782214 -15.623117431768293 7.4472593130333893 #
vertex $-1 $365 $482 #
point $-1 66.827327409782214 -9.2584899163945238 7.4472593130333893 #
vertex $-1 $369 $483 #
point $-1 66.827327409782214 -2.8938624010207548 7.4472593130333893 #
coedge $-1 $375 $454 $377 $452 reversed $267 $-1 #
straight-curve $-1 -73.56547746208075 -12.505883135423899 44.443528218436683 0 0 -1 I I #
edge $-1 $378 12.505883135423899 $459 28.959671154816441 $450 $484 forward 7 unknown #
point $-1 -73.56547746208075 -12.505883135423899 16.801151434555443 #
coedge $-1 $450 $380 $383 $456 forward $267 $-1 #
straight-curve $-1 -73.56547746208075 -10.366388572560084 4.4962093436652228 0 -1 0 I I #
edge $-1 $384 -39.947318874771447 $459 -27.64237678388124 $454 $485 forward 7 unknown #
point $-1 -73.56547746208075 -28.959671154816434 4.4962093436652362 #
point $-1 -73.56547746208075 -12.505883135423899 4.4962093436652362 #
vertex $-1 $456 $486 #
straight-curve $-1 0 -28.959671154816441 16.801151434555443 1 0 0 I I #
vertex $-1 $391 $487 #
point $-1 -63.603353141699067 -25.66891355093793 8.5207864360290841 #
vertex $-1 $395 $488 #
point $-1 -63.603353141699067 -20.732777145120167 8.5207864360290841 #
vertex $-1 $399 $489 #
point $-1 -63.603353141699067 -15.796640739302404 8.5207864360290841 #
straight-curve $-1 -73.56547746208075 49.334468057718276 0 0 0 -1 I I #
point $-1 -73.56547746208075 -49.334468057718276 -16.801151434555443 #
straight-curve $-1 -73.56547746208075 0 -16.801151434555443 0 1 0 I I #
point $-1 -73.56547746208075 49.334468057718276 -16.801151434555443 #
vertex $-1 $421 $490 #
straight-curve $-1 -73.56547746208075 0 16.801151434555443 0 -1 0 I I #
edge $-1 $471 -73.56547746208075 $433 73.56547746208075 $429 $491 forward 7 unknown #
straight-curve $-1 73.56547746208075 0 16.801151434555443 0 1 0 I I #
straight-curve $-1 -73.56547746208075 -49.334468057718276 0 0 0 -1 I I #
point $-1 73.56547746208075 -49.334468057718276 16.801151434555443 #
straight-curve $-1 73.56547746208075 -19.866202442017475 103.78345114935699 0 0 -1 I I #
point $-1 73.56547746208075 -19.866202442017475 16.801151434555443 #
straight-curve $-1 73.56547746208075 -4.6292449581972619 5.673015798578632 0 1 0 I I #
point $-1 73.56547746208075 -19.866202442017475 5.673015798578632 #
point $-1 64.769019354170794 -15.623117431768293 7.960453183032941 #
point $-1 64.769019354170794 -9.2584899163945238 7.960453183032941 #
point $-1 64.769019354170794 -2.8938624010207548 7.960453183032941 #
straight-curve $-1 -73.56547746208075 0 16.801151434555443 0 -1 0 I I #
straight-curve $-1 -73.56547746208075 -28.959671154816434 44.443528218436683 0 0 1 I I #
point $-1 -73.56547746208075 -28.959671154816441 16.801151434555443 #
point $-1 -63.234989700166942 -25.66891355093793 6.4316937202927518 #
point $-1 -63.234989700166942 -20.732777145120167 6.4316937202927518 #
point $-1 -63.234989700166942 -15.796640739302404 6.4316937202927518 #
point $-1 -73.56547746208075 -49.334468057718276 16.801151434555443 #
straight-curve $-1 0 -49.334468057718276 16.801151434555443 1 0 0 I I #
End-of-ACIS-data 