500 0 9 0           
7 Unknown 11 ACIS 5.0 NT 24 Thu Mar 25 18:55:23 1999 
-1 9.9999999999999995e-007 1e-010 
body $-1 $9 $-1 $10 #
body $-1 $11 $-1 $12 #
body $-1 $13 $-1 $14 #
body $-1 $15 $-1 $16 #
body $-1 $17 $-1 $18 #
body $-1 $19 $-1 $20 #
body $-1 $21 $-1 $22 #
body $-1 $23 $-1 $24 #
body $-1 $25 $-1 $26 #
lump $-1 $-1 $27 $0 #
transform $-1 1 0 0 0 1 0 0 0 1 63.006073183385723 33.164187951998258 15.648411814503772 1 rotate no_reflect no_shear #
lump $-1 $-1 $28 $1 #
transform $-1 1 0 0 0 1 0 0 0 1 63.006073183385723 33.164187951998258 15.648411814503772 1 rotate no_reflect no_shear #
lump $-1 $-1 $29 $2 #
transform $-1 1 0 0 0 1 0 0 0 1 63.006073183385723 33.164187951998258 15.648411814503772 1 rotate no_reflect no_shear #
lump $-1 $-1 $30 $3 #
transform $-1 1 0 0 0 1 0 0 0 1 63.006073183385723 33.164187951998258 15.648411814503772 1 rotate no_reflect no_shear #
lump $-1 $-1 $31 $4 #
transform $-1 1 0 0 0 1 0 0 0 1 63.006073183385723 33.164187951998258 15.648411814503772 1 rotate no_reflect no_shear #
lump $-1 $-1 $32 $5 #
transform $-1 1 0 0 0 1 0 0 0 1 63.006073183385723 33.164187951998258 15.648411814503772 1 rotate no_reflect no_shear #
lump $-1 $-1 $33 $6 #
transform $-1 1 0 0 0 1 0 0 0 1 63.006073183385723 33.164187951998258 15.648411814503772 1 rotate no_reflect no_shear #
lump $-1 $-1 $34 $7 #
transform $-1 1 0 0 0 1 0 0 0 1 63.006073183385723 33.164187951998258 15.648411814503772 1 rotate no_reflect no_shear #
lump $-1 $-1 $35 $8 #
transform $-1 1 0 0 0 1 0 0 0 1 63.006073183385723 33.164187951998258 15.648411814503772 1 rotate no_reflect no_shear #
shell $-1 $-1 $-1 $36 $-1 $9 #
shell $-1 $-1 $-1 $37 $-1 $11 #
shell $-1 $-1 $-1 $38 $-1 $13 #
shell $-1 $-1 $-1 $39 $-1 $15 #
shell $-1 $-1 $-1 $40 $-1 $17 #
shell $-1 $-1 $-1 $41 $-1 $19 #
shell $-1 $-1 $-1 $42 $-1 $21 #
shell $-1 $-1 $-1 $43 $-1 $23 #
shell $-1 $-1 $-1 $44 $-1 $25 #
face $-1 $45 $46 $27 $-1 $47 reversed single #
face $-1 $48 $49 $28 $-1 $50 forward single #
face $-1 $51 $52 $29 $-1 $53 forward single #
face $-1 $54 $55 $30 $-1 $56 reversed single #
face $-1 $57 $58 $31 $-1 $59 forward single #
face $-1 $60 $61 $32 $-1 $62 forward single #
face $-1 $63 $64 $33 $-1 $65 reversed single #
face $-1 $66 $67 $34 $-1 $68 forward single #
face $-1 $69 $70 $35 $-1 $71 forward single #
face $-1 $72 $73 $27 $-1 $74 forward single #
loop $-1 $-1 $75 $36 #
plane-surface $-1 63.006073183385723 0 0 -1 0 0 0 0 1 forward_v I I I I #
face $-1 $76 $77 $28 $-1 $78 reversed single #
loop $-1 $-1 $79 $37 #
plane-surface $-1 -63.006073183385723 0 0 1 0 0 0 0 -1 forward_v I I I I #
face $-1 $80 $81 $29 $-1 $82 reversed single #
loop $-1 $-1 $83 $38 #
plane-surface $-1 63.006073183385723 0 0 -1 0 0 0 0 1 forward_v I I I I #
face $-1 $84 $85 $30 $-1 $86 reversed single #
loop $-1 $-1 $87 $39 #
plane-surface $-1 5.9409838219317415 -138.84686732208229 69.4019955638054 -1 0 0 0 -0.83867057594974714 0.54463902268945019 forward_v I I I I #
face $-1 $88 $89 $31 $-1 $90 forward single #
loop $-1 $91 $92 $40 #
cone-surface $-1 -10.852729576768589 -27.401209806581903 7.6042716340782954 0 0.83867057594974714 -0.54463902268945019 1 0 0 1 I I 0 1 1 forward I I I I #
face $-1 $93 $94 $32 $-1 $95 forward single #
loop $-1 $96 $97 $41 #
cone-surface $-1 -0.77650153754838414 -27.401209806581903 7.6042716340782954 0 0.83867057594974714 -0.54463902268945019 1 0 0 1 I I 0 1 1 forward I I I I #
face $-1 $98 $99 $33 $-1 $100 reversed single #
loop $-1 $-1 $101 $42 #
plane-surface $-1 -17.570214936248721 102.72184549315116 125.0296527850215 1 0 0 0 -0.83867057594974714 -0.54463902268945019 forward_v I I I I #
face $-1 $102 $103 $34 $-1 $104 forward single #
loop $-1 $105 $106 $43 #
cone-surface $-1 -10.852729576768589 27.401209806581903 7.6042716340782954 0 -0.83867057594974714 -0.54463902268945019 1 0 0 1 I I 0 1 1 forward I I I I #
face $-1 $107 $108 $35 $-1 $109 forward single #
loop $-1 $110 $111 $44 #
cone-surface $-1 -0.77650153754838414 27.401209806581903 7.6042716340782954 0 -0.83867057594974714 -0.54463902268945019 1 0 0 1 I I 0 1 1 forward I I I I #
face $-1 $112 $113 $27 $-1 $114 reversed single #
loop $-1 $-1 $115 $45 #
plane-surface $-1 0 0 15.648411814503772 0 0 1 1 0 0 forward_v I I I I #
coedge $-1 $116 $117 $118 $119 reversed $46 $-1 #
face $-1 $120 $121 $28 $-1 $122 forward single #
loop $-1 $-1 $123 $48 #
plane-surface $-1 0 33.164187951998258 0 0 -1 0 0 0 -1 forward_v I I I I #
coedge $-1 $124 $125 $126 $127 forward $49 $-1 #
face $-1 $128 $129 $29 $-1 $130 forward single #
loop $-1 $-1 $131 $51 #
plane-surface $-1 0 -33.164187951998258 0 0 1 0 0 0 1 forward_v I I I I #
coedge $-1 $132 $133 $134 $135 forward $52 $-1 #
face $-1 $136 $137 $30 $-1 $138 reversed single #
loop $-1 $-1 $139 $54 #
plane-surface $-1 -5.8146155571584899 -33.164187951998244 0.77086331960704513 0 -0.83867057594974714 0.54463902268945019 1 0 0 forward_v I I I I #
coedge $-1 $140 $141 $142 $143 reversed $55 $-1 #
face $-1 $-1 $144 $31 $-1 $145 forward single #
loop $-1 $146 $147 $57 #
cone-surface $-1 -10.852729576768589 -26.049692698135892 6.7265861897564552 0 0.83867057594974714 -0.54463902268945019 0.5 0 0 1 I I -0.70710678118654746 0.70710678118654746 0.5 forward I I I I #
loop $-1 $-1 $148 $40 #
coedge $-1 $92 $92 $149 $150 reversed $58 $-1 #
face $-1 $-1 $151 $32 $-1 $152 forward single #
loop $-1 $153 $154 $60 #
cone-surface $-1 -0.77650153754838414 -26.049692698135892 6.7265861897564552 0 0.83867057594974714 -0.54463902268945019 0.5 0 0 1 I I -0.70710678118654746 0.70710678118654746 0.5 forward I I I I #
loop $-1 $-1 $155 $41 #
coedge $-1 $97 $97 $156 $157 reversed $61 $-1 #
face $-1 $158 $159 $33 $-1 $160 reversed single #
loop $-1 $-1 $161 $63 #
plane-surface $-1 -5.8146155571584899 -2.960833876932881 56.398520540823142 0 0.83867057594974714 0.54463902268945019 1 0 0 forward_v I I I I #
coedge $-1 $162 $163 $164 $165 reversed $64 $-1 #
face $-1 $-1 $166 $34 $-1 $167 forward single #
loop $-1 $168 $169 $66 #
cone-surface $-1 -10.852729576768589 26.049692698135892 6.7265861897564552 0 -0.83867057594974714 -0.54463902268945019 0.5 0 0 1 I I -0.70710678118654746 0.70710678118654746 0.5 forward I I I I #
loop $-1 $-1 $170 $43 #
coedge $-1 $106 $106 $171 $172 reversed $67 $-1 #
face $-1 $-1 $173 $35 $-1 $174 forward single #
loop $-1 $175 $176 $69 #
cone-surface $-1 -0.77650153754838414 26.049692698135892 6.7265861897564552 0 -0.83867057594974714 -0.54463902268945019 0.5 0 0 1 I I -0.70710678118654746 0.70710678118654746 0.5 forward I I I I #
loop $-1 $-1 $177 $44 #
coedge $-1 $111 $111 $178 $179 reversed $70 $-1 #
face $-1 $180 $181 $27 $-1 $182 reversed single #
loop $-1 $-1 $183 $72 #
plane-surface $-1 0 0 -15.648411814503772 0 0 1 1 0 0 forward_v I I I I #
coedge $-1 $184 $185 $116 $186 forward $73 $-1 #
coedge $-1 $187 $75 $115 $186 reversed $46 $-1 #
coedge $-1 $75 $187 $183 $188 reversed $46 $-1 #
coedge $-1 $189 $190 $75 $119 forward $191 $-1 #
edge $-1 $192 -15.648411814503772 $193 15.648411814503772 $75 $194 forward 7 unknown #
face $-1 $195 $196 $28 $-1 $197 reversed single #
loop $-1 $-1 $126 $76 #
plane-surface $-1 -68.806425151976924 0 8.3104620397695825 0 0 1 1 0 0 forward_v I I I I #
coedge $-1 $198 $199 $125 $200 forward $77 $-1 #
coedge $-1 $201 $79 $202 $203 reversed $49 $-1 #
coedge $-1 $79 $201 $123 $200 reversed $49 $-1 #
coedge $-1 $204 $205 $79 $127 reversed $121 $-1 #
edge $-1 $206 -33.164187951998258 $207 33.164187951998258 $126 $208 forward 7 unknown #
face $-1 $209 $210 $29 $-1 $211 reversed single #
loop $-1 $-1 $212 $80 #
plane-surface $-1 69.09703373858423 0 1.6416747890308452 0 0 1 1 0 0 forward_v I I I I #
coedge $-1 $213 $214 $133 $215 forward $81 $-1 #
coedge $-1 $216 $83 $217 $218 reversed $52 $-1 #
coedge $-1 $83 $216 $131 $215 reversed $52 $-1 #
coedge $-1 $219 $220 $83 $135 reversed $129 $-1 #
edge $-1 $221 -33.164187951998258 $222 33.164187951998258 $134 $223 forward 7 unknown #
face $-1 $224 $225 $30 $-1 $226 forward single #
loop $-1 $-1 $227 $84 #
plane-surface $-1 -17.570214936248721 -138.84686732208229 69.4019955638054 1 0 0 0 0.83867057594974714 -0.54463902268945019 forward_v I I I I #
coedge $-1 $228 $229 $230 $231 reversed $85 $-1 #
coedge $-1 $141 $87 $232 $233 reversed $55 $-1 #
coedge $-1 $87 $140 $228 $234 reversed $55 $-1 #
coedge $-1 $230 $235 $87 $143 forward $225 $-1 #
edge $-1 $236 36.259245709042887 $237 45.920838358933338 $142 $238 forward 7 unknown #
loop $-1 $-1 $149 $88 #
plane-surface $-1 -5.8146155571584899 -33.164187951998244 0.77086331960704513 0 -0.83867057594974714 0.54463902268945019 1 0 0 forward_v I I I I #
loop $-1 $-1 $239 $57 #
coedge $-1 $147 $147 $148 $240 reversed $89 $-1 #
coedge $-1 $148 $148 $147 $240 forward $91 $-1 #
coedge $-1 $149 $149 $92 $150 forward $144 $-1 #
edge $-1 $241 -1.7806731693010629e-015 $241 6.2831853071795987 $149 $242 forward 7 unknown #
loop $-1 $-1 $156 $93 #
plane-surface $-1 -5.8146155571584899 -33.164187951998244 0.77086331960704513 0 -0.83867057594974714 0.54463902268945019 1 0 0 forward_v I I I I #
loop $-1 $-1 $243 $60 #
coedge $-1 $154 $154 $155 $244 reversed $94 $-1 #
coedge $-1 $155 $155 $154 $244 forward $96 $-1 #
coedge $-1 $156 $156 $97 $157 forward $151 $-1 #
edge $-1 $245 -1.7806731693010629e-015 $245 6.2831853071795987 $156 $246 forward 7 unknown #
face $-1 $247 $248 $33 $-1 $249 reversed single #
loop $-1 $-1 $250 $98 #
plane-surface $-1 5.9409838219317415 102.72184549315116 125.0296527850215 -1 0 0 0 0.83867057594974714 0.54463902268945019 forward_v I I I I #
coedge $-1 $251 $252 $253 $254 reversed $99 $-1 #
coedge $-1 $163 $101 $255 $256 reversed $64 $-1 #
coedge $-1 $101 $162 $251 $257 reversed $64 $-1 #
coedge $-1 $253 $258 $101 $165 forward $259 $-1 #
edge $-1 $260 18.196734794577324 $261 27.858327444467754 $164 $262 forward 7 unknown #
loop $-1 $-1 $171 $102 #
plane-surface $-1 -5.8146155571584899 -2.960833876932881 56.398520540823142 0 0.83867057594974714 0.54463902268945019 1 0 0 forward_v I I I I #
loop $-1 $-1 $263 $66 #
coedge $-1 $169 $169 $170 $264 reversed $103 $-1 #
coedge $-1 $170 $170 $169 $264 forward $105 $-1 #
coedge $-1 $171 $171 $106 $172 forward $166 $-1 #
edge $-1 $265 2.9795564271841615e-015 $265 6.2831853071796031 $171 $266 forward 7 unknown #
loop $-1 $-1 $178 $107 #
plane-surface $-1 -5.8146155571584899 -2.960833876932881 56.398520540823142 0 0.83867057594974714 0.54463902268945019 1 0 0 forward_v I I I I #
loop $-1 $-1 $267 $69 #
coedge $-1 $176 $176 $177 $268 reversed $108 $-1 #
coedge $-1 $177 $177 $176 $268 forward $110 $-1 #
coedge $-1 $178 $178 $111 $179 forward $173 $-1 #
edge $-1 $269 2.9795564271841615e-015 $269 6.2831853071796031 $178 $270 forward 7 unknown #
face $-1 $271 $272 $27 $-1 $273 reversed single #
loop $-1 $-1 $274 $112 #
plane-surface $-1 0 -33.164187951998258 0 0 1 0 0 0 1 forward_v I I I I #
coedge $-1 $275 $276 $117 $188 forward $113 $-1 #
coedge $-1 $277 $115 $190 $278 forward $73 $-1 #
coedge $-1 $115 $277 $279 $280 forward $73 $-1 #
edge $-1 $281 -33.164187951998258 $192 33.164187951998258 $116 $282 forward 7 unknown #
coedge $-1 $117 $116 $283 $284 forward $46 $-1 #
edge $-1 $193 -33.164187951998258 $285 33.164187951998258 $117 $286 forward 7 unknown #
coedge $-1 $287 $118 $276 $288 reversed $191 $-1 #
coedge $-1 $118 $287 $184 $278 reversed $191 $-1 #
loop $-1 $-1 $118 $271 #
vertex $-1 $186 $289 #
vertex $-1 $188 $290 #
straight-curve $-1 63.006073183385723 33.164187951998258 0 0 0 -1 I I #
face $-1 $291 $292 $28 $-1 $293 reversed single #
loop $-1 $-1 $294 $120 #
plane-surface $-1 -68.806425151976924 0 -0.64247159121592645 0 0 1 1 0 0 forward_v I I I I #
coedge $-1 $295 $123 $296 $297 reversed $77 $-1 #
coedge $-1 $123 $295 $204 $298 reversed $77 $-1 #
edge $-1 $206 -8.3104620397695825 $299 0.64247159121592645 $123 $300 forward 7 unknown #
coedge $-1 $125 $124 $294 $301 forward $49 $-1 #
coedge $-1 $302 $303 $124 $203 forward $304 $-1 #
edge $-1 $305 -0.64247159121592645 $207 8.3104620397695825 $202 $306 forward 7 unknown #
coedge $-1 $307 $126 $199 $298 forward $121 $-1 #
coedge $-1 $126 $307 $302 $308 forward $121 $-1 #
vertex $-1 $200 $309 #
vertex $-1 $308 $310 #
straight-curve $-1 -63.006073183385723 0 8.3104620397695825 0 -1 0 I I #
face $-1 $311 $312 $29 $-1 $313 reversed single #
loop $-1 $-1 $314 $128 #
plane-surface $-1 69.09703373858423 0 -5.7261210968238645 0 0 1 1 0 0 forward_v I I I I #
coedge $-1 $220 $219 $315 $316 forward $129 $-1 #
coedge $-1 $317 $131 $318 $319 reversed $81 $-1 #
coedge $-1 $131 $317 $219 $320 reversed $81 $-1 #
edge $-1 $221 -1.6416747890308452 $321 5.7261210968238645 $131 $322 forward 7 unknown #
coedge $-1 $133 $132 $323 $324 forward $52 $-1 #
coedge $-1 $325 $326 $132 $218 forward $327 $-1 #
edge $-1 $328 -5.7261210968238645 $222 1.6416747890308452 $217 $329 forward 7 unknown #
coedge $-1 $212 $134 $214 $320 forward $129 $-1 #
coedge $-1 $134 $212 $325 $330 forward $129 $-1 #
vertex $-1 $215 $331 #
vertex $-1 $330 $332 #
straight-curve $-1 63.006073183385723 0 1.6416747890308452 0 1 0 I I #
face $-1 $-1 $333 $30 $-1 $334 reversed single #
loop $-1 $-1 $142 $136 #
plane-surface $-1 0 0 15.648411814503772 0 0 1 1 0 0 forward_v I I I I #
coedge $-1 $335 $336 $337 $338 reversed $137 $-1 #
coedge $-1 $339 $139 $141 $234 forward $85 $-1 #
coedge $-1 $139 $339 $335 $340 forward $85 $-1 #
coedge $-1 $337 $142 $139 $231 forward $225 $-1 #
edge $-1 $237 -8.8482916005109864 $341 14.662907157669476 $230 $342 forward 7 unknown #
coedge $-1 $343 $344 $140 $233 forward $333 $-1 #
edge $-1 $345 -33.930134462295676 $236 -19.052585967398926 $232 $346 forward 7 unknown #
edge $-1 $237 -17.739442543395231 $345 2.6082680278521875e-014 $141 $347 forward 7 unknown #
coedge $-1 $142 $337 $343 $348 forward $225 $-1 #
vertex $-1 $233 $349 #
vertex $-1 $143 $350 #
straight-curve $-1 5.9409838219317415 -69.423433661041145 15.648411814503774 0 1 0 I I #
coedge $-1 $239 $239 $-1 $351 reversed $146 $-1 #
edge $-1 $352 0 $352 6.2831853071796004 $147 $353 forward 7 unknown #
vertex $-1 $150 $354 #
ellipse-curve $-1 -10.852729576768589 -28.333391627053029 8.2096375670554025 0 -0.83867057594974714 0.54463902268945019 1 0 0 1 I I #
coedge $-1 $243 $243 $-1 $355 reversed $153 $-1 #
edge $-1 $356 0 $356 6.2831853071796004 $154 $357 forward 7 unknown #
vertex $-1 $157 $358 #
ellipse-curve $-1 -0.77650153754838414 -28.333391627053029 8.2096375670554025 0 -0.83867057594974714 0.54463902268945019 1 0 0 1 I I #
face $-1 $-1 $259 $33 $-1 $359 forward single #
loop $-1 $-1 $360 $158 #
plane-surface $-1 0 33.164187951998258 0 0 -1 0 0 0 -1 forward_v I I I I #
coedge $-1 $361 $362 $363 $364 reversed $159 $-1 #
coedge $-1 $365 $161 $163 $257 forward $99 $-1 #
coedge $-1 $161 $365 $361 $366 forward $99 $-1 #
coedge $-1 $363 $164 $161 $254 forward $259 $-1 #
edge $-1 $261 -14.662907157669476 $367 8.8482916005109864 $253 $368 forward 7 unknown #
coedge $-1 $369 $370 $162 $256 forward $248 $-1 #
edge $-1 $371 -61.743963072903696 $260 -46.866414578006975 $255 $372 forward 7 unknown #
edge $-1 $261 48.588933360601295 $371 66.328375903996516 $163 $373 forward 7 unknown #
coedge $-1 $164 $363 $369 $374 forward $259 $-1 #
loop $-1 $-1 $363 $247 #
vertex $-1 $256 $375 #
vertex $-1 $165 $376 #
straight-curve $-1 -17.570214936248721 51.360922746575582 15.648411814503774 0 -1 0 I I #
coedge $-1 $263 $263 $-1 $377 reversed $168 $-1 #
edge $-1 $378 0 $378 6.2831853071796004 $169 $379 forward 7 unknown #
vertex $-1 $172 $380 #
ellipse-curve $-1 -10.852729576768589 28.333391627053043 8.2096375670554131 0 0.83867057594974714 0.54463902268945019 1 0 0 1 I I #
coedge $-1 $267 $267 $-1 $381 reversed $175 $-1 #
edge $-1 $382 0 $382 6.2831853071796004 $176 $383 forward 7 unknown #
vertex $-1 $179 $384 #
ellipse-curve $-1 -0.77650153754838414 28.333391627053043 8.2096375670554131 0 0.83867057594974714 0.54463902268945019 1 0 0 1 I I #
face $-1 $-1 $191 $27 $-1 $385 reversed single #
loop $-1 $-1 $386 $180 #
plane-surface $-1 -63.006073183385723 0 0 1 0 0 0 0 -1 forward_v I I I I #
coedge $-1 $387 $279 $386 $388 forward $181 $-1 #
coedge $-1 $389 $183 $387 $390 forward $113 $-1 #
coedge $-1 $183 $389 $189 $288 forward $113 $-1 #
coedge $-1 $185 $184 $391 $392 forward $73 $-1 #
edge $-1 $192 -63.006073183385723 $393 63.006073183385723 $190 $394 forward 7 unknown #
coedge $-1 $274 $283 $185 $280 reversed $181 $-1 #
edge $-1 $395 -63.006073183385723 $281 63.006073183385723 $279 $396 forward 7 unknown #
vertex $-1 $186 $397 #
straight-curve $-1 63.006073183385723 0 15.648411814503772 0 1 0 I I #
coedge $-1 $279 $387 $187 $284 reversed $181 $-1 #
edge $-1 $281 -15.648411814503772 $285 15.648411814503772 $187 $398 forward 7 unknown #
vertex $-1 $284 $399 #
straight-curve $-1 63.006073183385723 0 -15.648411814503772 0 -1 0 I I #
coedge $-1 $190 $189 $400 $401 reversed $191 $-1 #
edge $-1 $402 -63.006073183385723 $193 63.006073183385723 $189 $403 forward 7 unknown #
point $-1 63.006073183385723 33.164187951998258 15.648411814503772 #
point $-1 63.006073183385723 33.164187951998258 -15.648411814503772 #
face $-1 $-1 $304 $28 $-1 $404 reversed single #
loop $-1 $-1 $405 $195 #
plane-surface $-1 -74.606777120568125 0 3.833995224276828 1 0 0 0 0 -1 forward_v I I I I #
coedge $-1 $406 $296 $201 $301 reversed $196 $-1 #
coedge $-1 $199 $198 $405 $407 reversed $77 $-1 #
coedge $-1 $294 $408 $198 $297 forward $196 $-1 #
edge $-1 $409 -5.8003519685912011 $299 5.800351968591194 $198 $410 forward 7 unknown #
edge $-1 $206 -5.800351968591194 $411 5.8003519685912011 $199 $412 forward 7 unknown #
vertex $-1 $200 $413 #
straight-curve $-1 -63.006073183385723 33.164187951998258 0 0 0 -1 I I #
edge $-1 $305 -33.164187951998258 $299 33.164187951998258 $294 $414 forward 7 unknown #
coedge $-1 $415 $202 $205 $308 reversed $304 $-1 #
coedge $-1 $202 $415 $406 $416 reversed $304 $-1 #
loop $-1 $-1 $202 $291 #
vertex $-1 $203 $417 #
straight-curve $-1 -63.006073183385723 -33.164187951998258 0 0 0 1 I I #
coedge $-1 $205 $204 $418 $419 forward $121 $-1 #
edge $-1 $420 -5.8003519685912011 $207 5.800351968591194 $302 $421 forward 7 unknown #
point $-1 -63.00607318338573 33.164187951998258 8.3104620397695825 #
point $-1 -63.00607318338573 -33.164187951998258 8.3104620397695825 #
face $-1 $-1 $327 $29 $-1 $422 reversed single #
loop $-1 $-1 $423 $209 #
plane-surface $-1 75.187994293782737 0 -2.0422231538965097 -1 0 0 0 0 1 forward_v I I I I #
coedge $-1 $318 $424 $425 $426 forward $210 $-1 #
coedge $-1 $423 $427 $212 $316 reversed $312 $-1 #
edge $-1 $428 -33.164187951998258 $429 33.164187951998258 $315 $430 forward 7 unknown #
coedge $-1 $214 $213 $423 $431 reversed $81 $-1 #
coedge $-1 $323 $314 $213 $319 forward $210 $-1 #
edge $-1 $432 -6.0909605551985067 $321 6.0909605551985067 $213 $433 forward 7 unknown #
edge $-1 $221 -6.0909605551985067 $428 6.0909605551985067 $214 $434 forward 7 unknown #
vertex $-1 $215 $435 #
straight-curve $-1 63.006073183385723 -33.164187951998258 0 0 0 -1 I I #
coedge $-1 $424 $318 $216 $324 reversed $210 $-1 #
edge $-1 $328 -33.164187951998258 $321 33.164187951998258 $323 $436 forward 7 unknown #
coedge $-1 $437 $217 $220 $330 reversed $327 $-1 #
coedge $-1 $217 $437 $424 $438 reversed $327 $-1 #
loop $-1 $-1 $217 $311 #
vertex $-1 $218 $439 #
straight-curve $-1 63.006073183385723 33.164187951998258 0 0 0 1 I I #
edge $-1 $429 -6.0909605551985067 $222 6.0909605551985067 $325 $440 forward 7 unknown #
point $-1 63.006073183385723 -33.164187951998258 1.6416747890308452 #
point $-1 63.006073183385723 33.164187951998258 1.6416747890308452 #
loop $-1 $-1 $232 $224 #
plane-surface $-1 0 -33.164187951998258 0 0 1 0 0 0 1 forward_v I I I I #
coedge $-1 $336 $227 $229 $340 reversed $137 $-1 #
coedge $-1 $227 $335 $441 $442 reversed $137 $-1 #
coedge $-1 $235 $230 $227 $338 forward $225 $-1 #
edge $-1 $341 -45.920838358933338 $443 -36.259245709042887 $337 $444 forward 7 unknown #
coedge $-1 $229 $228 $344 $445 reversed $85 $-1 #
edge $-1 $446 -2.6082680278521875e-014 $341 17.739442543395231 $335 $447 forward 7 unknown #
vertex $-1 $231 $448 #
straight-curve $-1 -2.9073077785792449 -23.502595302107814 15.648411814503772 -1 0 0 I I #
coedge $-1 $441 $232 $235 $348 reversed $333 $-1 #
coedge $-1 $232 $441 $339 $445 forward $333 $-1 #
vertex $-1 $233 $449 #
straight-curve $-1 5.9409838219317415 -33.164187951998258 34.7009977819027 0 0 1 I I #
straight-curve $-1 5.9409838219317415 -33.164187951998244 0.77086331960704513 0 -0.54463902268945019 -0.83867057594974714 I I #
edge $-1 $443 -17.570214936248721 $236 5.9409838219317415 $343 $450 forward 7 unknown #
point $-1 5.9409838219317415 -33.164187951998258 15.648411814503772 #
point $-1 5.9409838219317415 -23.50259530210781 15.648411814503771 #
edge $-1 $451 1 $451 0 $239 $-1 forward 7 unknown #
vertex $-1 $240 $452 #
ellipse-curve $-1 -10.852729576768589 -26.469027986110767 6.9989057011011804 0 -0.83867057594974714 0.54463902268945019 1 0 0 1 I I #
point $-1 -9.8527295767685885 -28.333391627053043 8.2096375670554096 #
edge $-1 $453 1 $453 0 $243 $-1 forward 7 unknown #
vertex $-1 $244 $454 #
ellipse-curve $-1 -0.77650153754838414 -26.469027986110767 6.9989057011011804 0 -0.83867057594974714 0.54463902268945019 1 0 0 1 I I #
point $-1 0.22349846245161586 -28.333391627053043 8.2096375670554096 #
plane-surface $-1 0 0 15.648411814503772 0 0 1 1 0 0 forward_v I I I I #
coedge $-1 $370 $369 $362 $455 forward $248 $-1 #
coedge $-1 $362 $250 $252 $366 reversed $159 $-1 #
coedge $-1 $250 $361 $360 $455 reversed $159 $-1 #
coedge $-1 $258 $253 $250 $364 forward $259 $-1 #
edge $-1 $367 -27.858327444467754 $456 -18.196734794577324 $363 $457 forward 7 unknown #
coedge $-1 $252 $251 $370 $458 reversed $99 $-1 #
edge $-1 $459 -66.328375903996516 $367 -48.588933360601295 $361 $460 forward 7 unknown #
vertex $-1 $254 $461 #
straight-curve $-1 -2.9073077785792449 23.502595302107828 15.648411814503774 1 0 0 I I #
coedge $-1 $360 $255 $258 $374 reversed $248 $-1 #
coedge $-1 $255 $360 $365 $458 forward $248 $-1 #
vertex $-1 $256 $462 #
straight-curve $-1 -17.570214936248721 33.164187951998258 62.514826392510749 0 0 1 I I #
straight-curve $-1 -17.570214936248721 -2.960833876932881 56.398520540823142 0 0.54463902268945019 -0.83867057594974714 I I #
edge $-1 $456 -5.9409838219317415 $260 17.570214936248721 $369 $463 forward 7 unknown #
point $-1 -17.570214936248721 33.164187951998258 15.648411814503772 #
point $-1 -17.570214936248721 23.502595302107828 15.648411814503774 #
edge $-1 $464 1 $464 0 $263 $-1 forward 7 unknown #
vertex $-1 $264 $465 #
ellipse-curve $-1 -10.852729576768589 26.469027986110767 6.9989057011011804 0 0.83867057594974714 0.54463902268945019 1 0 0 1 I I #
point $-1 -9.8527295767685885 28.333391627053043 8.2096375670554096 #
edge $-1 $466 1 $466 0 $267 $-1 forward 7 unknown #
vertex $-1 $268 $467 #
ellipse-curve $-1 -0.77650153754838414 26.469027986110767 6.9989057011011804 0 0.83867057594974714 0.54463902268945019 1 0 0 1 I I #
point $-1 0.22349846245161586 28.333391627053043 8.2096375670554096 #
plane-surface $-1 0 33.164187951998258 0 0 -1 0 0 0 -1 forward_v I I I I #
coedge $-1 $391 $468 $274 $388 reversed $272 $-1 #
coedge $-1 $283 $274 $275 $390 reversed $181 $-1 #
edge $-1 $395 -15.648411814503772 $469 15.648411814503772 $386 $470 forward 7 unknown #
coedge $-1 $276 $275 $468 $471 forward $113 $-1 #
edge $-1 $285 -63.006073183385723 $469 63.006073183385723 $387 $472 forward 7 unknown #
coedge $-1 $400 $386 $277 $392 reversed $272 $-1 #
edge $-1 $393 -33.164187951998258 $395 33.164187951998258 $391 $473 forward 7 unknown #
vertex $-1 $278 $474 #
straight-curve $-1 0 33.164187951998258 15.648411814503772 -1 0 0 I I #
vertex $-1 $392 $475 #
straight-curve $-1 0 -33.164187951998258 15.648411814503772 1 0 0 I I #
point $-1 63.006073183385723 -33.164187951998258 15.648411814503772 #
straight-curve $-1 63.006073183385723 -33.164187951998258 0 0 0 -1 I I #
point $-1 63.006073183385723 -33.164187951998258 -15.648411814503772 #
coedge $-1 $468 $391 $287 $401 forward $272 $-1 #
edge $-1 $393 -15.648411814503772 $402 15.648411814503772 $287 $476 forward 7 unknown #
vertex $-1 $288 $477 #
straight-curve $-1 0 33.164187951998258 -15.648411814503772 1 0 0 I I #
plane-surface $-1 0 -33.164187951998258 0 0 1 0 0 0 1 forward_v I I I I #
coedge $-1 $478 $418 $295 $407 forward $292 $-1 #
coedge $-1 $408 $294 $303 $416 forward $196 $-1 #
edge $-1 $411 -4.4764668154927545 $409 4.4764668154927545 $295 $479 forward 7 unknown #
coedge $-1 $296 $406 $478 $480 forward $196 $-1 #
vertex $-1 $297 $481 #
straight-curve $-1 -68.806425151976924 33.164187951998258 -0.64247159121592645 1 0 0 I I #
vertex $-1 $298 $482 #
straight-curve $-1 -68.806425151976924 33.164187951998258 8.3104620397695825 -1 0 0 I I #
point $-1 -63.00607318338573 33.164187951998258 -0.64247159121592645 #
straight-curve $-1 -63.006073183385723 0 -0.64247159121592645 0 1 0 I I #
coedge $-1 $303 $302 $483 $484 forward $304 $-1 #
edge $-1 $305 -5.800351968591194 $485 5.8003519685912011 $303 $486 forward 7 unknown #
point $-1 -63.00607318338573 -33.164187951998258 -0.64247159121592645 #
coedge $-1 $405 $483 $307 $419 reversed $292 $-1 #
edge $-1 $411 -33.164187951998258 $420 33.164187951998258 $418 $487 forward 7 unknown #
vertex $-1 $419 $488 #
straight-curve $-1 -68.806425151976924 -33.164187951998258 8.3104620397695825 1 0 0 I I #
plane-surface $-1 0 33.164187951998258 0 0 -1 0 0 0 -1 forward_v I I I I #
coedge $-1 $425 $315 $317 $431 forward $312 $-1 #
coedge $-1 $314 $323 $326 $438 forward $210 $-1 #
coedge $-1 $427 $423 $314 $426 reversed $312 $-1 #
edge $-1 $489 -33.164187951998258 $432 33.164187951998258 $425 $490 forward 7 unknown #
coedge $-1 $315 $425 $437 $491 reversed $312 $-1 #
vertex $-1 $316 $492 #
vertex $-1 $316 $493 #
straight-curve $-1 75.187994293782737 0 1.6416747890308452 0 1 0 I I #
edge $-1 $428 -3.6838979429273548 $432 3.6838979429273548 $423 $494 forward 7 unknown #
vertex $-1 $431 $495 #
straight-curve $-1 69.09703373858423 -33.164187951998258 -5.7261210968238645 -1 0 0 I I #
straight-curve $-1 69.09703373858423 -33.164187951998258 1.6416747890308452 1 0 0 I I #
point $-1 63.006073183385723 -33.164187951998258 -5.7261210968238645 #
straight-curve $-1 63.006073183385723 0 -5.7261210968238645 0 -1 0 I I #
coedge $-1 $326 $325 $427 $491 forward $327 $-1 #
edge $-1 $328 -6.0909605551985067 $489 6.0909605551985067 $326 $496 forward 7 unknown #
point $-1 63.006073183385723 33.164187951998258 -5.7261210968238645 #
straight-curve $-1 69.09703373858423 33.164187951998258 1.6416747890308452 -1 0 0 I I #
coedge $-1 $344 $343 $336 $442 forward $333 $-1 #
edge $-1 $443 19.052585967398926 $446 33.930134462295676 $441 $497 forward 7 unknown #
vertex $-1 $348 $498 #
straight-curve $-1 -17.570214936248721 -69.423433661041145 15.648411814503774 0 -1 0 I I #
edge $-1 $446 -14.662907157669476 $345 8.8482916005109864 $344 $499 forward 7 unknown #
vertex $-1 $445 $500 #
straight-curve $-1 -17.570214936248721 -33.164187951998244 0.77086331960704513 0 0.54463902268945019 0.83867057594974714 I I #
point $-1 -17.570214936248721 -23.50259530210781 15.648411814503771 #
point $-1 5.9409838219317415 -33.164187951998258 0.77086331960702326 #
straight-curve $-1 0 -33.164187951998258 15.648411814503772 1 0 0 I I #
vertex $-1 $351 $501 #
point $-1 -9.8527295767685885 -26.469027986110767 6.9989057011011804 #
vertex $-1 $355 $502 #
point $-1 0.22349846245161586 -26.469027986110767 6.9989057011011804 #
edge $-1 $456 46.866414578006975 $459 61.743963072903696 $360 $503 forward 7 unknown #
vertex $-1 $374 $504 #
straight-curve $-1 5.9409838219317415 51.360922746575582 15.648411814503774 0 1 0 I I #
edge $-1 $459 -8.8482916005109864 $371 14.662907157669476 $370 $505 forward 7 unknown #
vertex $-1 $458 $506 #
straight-curve $-1 5.9409838219317415 -2.960833876932881 56.398520540823142 0 -0.54463902268945019 0.83867057594974714 I I #
point $-1 5.9409838219317415 23.502595302107828 15.648411814503774 #
point $-1 -17.570214936248721 33.164187951998258 0.77086331960705223 #
straight-curve $-1 0 33.164187951998258 15.648411814503772 -1 0 0 I I #
vertex $-1 $377 $507 #
point $-1 -9.8527295767685885 26.469027986110767 6.9989057011011804 #
vertex $-1 $381 $508 #
point $-1 0.22349846245161586 26.469027986110767 6.9989057011011804 #
coedge $-1 $386 $400 $389 $471 reversed $272 $-1 #
vertex $-1 $471 $509 #
straight-curve $-1 -63.006073183385723 -33.164187951998258 0 0 0 -1 I I #
edge $-1 $469 -33.164187951998258 $402 33.164187951998258 $468 $510 forward 7 unknown #
straight-curve $-1 0 -33.164187951998258 -15.648411814503772 -1 0 0 I I #
straight-curve $-1 -63.006073183385723 0 15.648411814503772 0 -1 0 I I #
point $-1 -63.006073183385723 33.164187951998258 15.648411814503772 #
point $-1 -63.006073183385723 -33.164187951998258 15.648411814503772 #
straight-curve $-1 -63.006073183385723 33.164187951998258 0 0 0 -1 I I #
point $-1 -63.006073183385723 33.164187951998258 -15.648411814503772 #
coedge $-1 $483 $405 $408 $480 reversed $292 $-1 #
straight-curve $-1 -74.606777120568125 33.164187951998258 3.833995224276828 0 0 -1 I I #
edge $-1 $485 -33.164187951998258 $409 33.164187951998258 $478 $511 forward 7 unknown #
point $-1 -74.606777120568125 33.164187951998258 -0.64247159121592645 #
point $-1 -74.606777120568125 33.164187951998258 8.3104620397695825 #
coedge $-1 $418 $478 $415 $484 reversed $292 $-1 #
edge $-1 $420 -4.4764668154927545 $485 4.4764668154927545 $483 $512 forward 7 unknown #
vertex $-1 $480 $513 #
straight-curve $-1 -68.806425151976924 -33.164187951998258 -0.64247159121592645 -1 0 0 I I #
straight-curve $-1 -74.606777120568125 0 8.3104620397695825 0 -1 0 I I #
point $-1 -74.606777120568125 -33.164187951998258 8.3104620397695825 #
vertex $-1 $426 $514 #
straight-curve $-1 75.187994293782737 0 -5.7261210968238645 0 -1 0 I I #
edge $-1 $429 -3.6838979429273548 $489 3.6838979429273548 $427 $515 forward 7 unknown #
point $-1 75.187994293782737 -33.164187951998258 1.6416747890308452 #
point $-1 75.187994293782737 33.164187951998258 1.6416747890308452 #
straight-curve $-1 75.187994293782737 -33.164187951998258 -2.0422231538965097 0 0 -1 I I #
point $-1 75.187994293782737 -33.164187951998258 -5.7261210968238645 #
straight-curve $-1 69.09703373858423 33.164187951998258 -5.7261210968238645 1 0 0 I I #
straight-curve $-1 -17.570214936248721 -33.164187951998258 34.7009977819027 0 0 -1 I I #
point $-1 -17.570214936248721 -33.164187951998258 15.648411814503772 #
straight-curve $-1 -2.9073077785792449 -33.164187951998258 0.77086331960702603 1 0 0 I I #
point $-1 -17.570214936248721 -33.164187951998258 0.77086331960702326 #
point $-1 -10.852729576768589 -25.630357410161018 6.45426667841173 #
point $-1 -0.77650153754838414 -25.630357410161018 6.45426667841173 #
straight-curve $-1 5.9409838219317415 33.164187951998258 62.514826392510749 0 0 -1 I I #
point $-1 5.9409838219317415 33.164187951998258 15.648411814503772 #
straight-curve $-1 -2.9073077785792449 33.164187951998258 0.77086331960705934 -1 0 0 I I #
point $-1 5.9409838219317415 33.164187951998258 0.77086331960705223 #
point $-1 -10.852729576768589 25.630357410161018 6.45426667841173 #
point $-1 -0.77650153754838414 25.630357410161018 6.45426667841173 #
point $-1 -63.006073183385723 -33.164187951998258 -15.648411814503772 #
straight-curve $-1 -63.006073183385723 0 -15.648411814503772 0 1 0 I I #
straight-curve $-1 -74.606777120568125 0 -0.64247159121592645 0 1 0 I I #
straight-curve $-1 -74.606777120568125 -33.164187951998258 3.833995224276828 0 0 -1 I I #
point $-1 -74.606777120568125 -33.164187951998258 -0.64247159121592645 #
point $-1 75.187994293782737 33.164187951998258 -5.7261210968238645 #
straight-curve $-1 75.187994293782737 33.164187951998258 -2.0422231538965097 0 0 -1 I I #
End-of-ACIS-data 