500 0 11 0           
7 Unknown 11 ACIS 5.0 NT 24 Fri Mar 26 19:39:49 1999 
-1 9.9999999999999995e-007 1e-010 
body $-1 $11 $-1 $12 #
body $-1 $13 $-1 $14 #
body $-1 $15 $-1 $16 #
body $-1 $17 $-1 $18 #
body $-1 $19 $-1 $20 #
body $-1 $21 $-1 $22 #
body $-1 $23 $-1 $24 #
body $-1 $25 $-1 $26 #
body $-1 $27 $-1 $28 #
body $-1 $29 $-1 $30 #
body $-1 $31 $-1 $32 #
lump $-1 $-1 $33 $0 #
transform $-1 1 0 0 0 1 0 0 0 1 44.542374950407421 20.235671491111788 8.8298473284941323 1 rotate no_reflect no_shear #
lump $-1 $-1 $34 $1 #
transform $-1 1 0 0 0 1 0 0 0 1 44.542374950407421 20.235671491111788 8.8298473284941323 1 rotate no_reflect no_shear #
lump $-1 $-1 $35 $2 #
transform $-1 1 0 0 0 1 0 0 0 1 44.542374950407421 20.235671491111788 8.8298473284941323 1 rotate no_reflect no_shear #
lump $-1 $-1 $36 $3 #
transform $-1 1 0 0 0 1 0 0 0 1 44.542374950407421 20.235671491111788 8.8298473284941323 1 rotate no_reflect no_shear #
lump $-1 $-1 $37 $4 #
transform $-1 1 0 0 0 1 0 0 0 1 44.542374950407421 20.235671491111788 8.8298473284941323 1 rotate no_reflect no_shear #
lump $-1 $-1 $38 $5 #
transform $-1 1 0 0 0 1 0 0 0 1 44.542374950407421 20.235671491111788 8.8298473284941323 1 rotate no_reflect no_shear #
lump $-1 $-1 $39 $6 #
transform $-1 1 0 0 0 1 0 0 0 1 44.542374950407421 20.235671491111788 8.8298473284941323 1 rotate no_reflect no_shear #
lump $-1 $-1 $40 $7 #
transform $-1 1 0 0 0 1 0 0 0 1 44.542374950407421 20.235671491111788 8.8298473284941323 1 rotate no_reflect no_shear #
lump $-1 $-1 $41 $8 #
transform $-1 1 0 0 0 1 0 0 0 1 44.542374950407421 20.235671491111788 8.8298473284941323 1 rotate no_reflect no_shear #
lump $-1 $-1 $42 $9 #
transform $-1 1 0 0 0 1 0 0 0 1 44.542374950407421 20.235671491111788 8.8298473284941323 1 rotate no_reflect no_shear #
lump $-1 $-1 $43 $10 #
transform $-1 1 0 0 0 1 0 0 0 1 44.542374950407421 20.235671491111788 8.8298473284941323 1 rotate no_reflect no_shear #
shell $-1 $-1 $-1 $44 $-1 $11 #
shell $-1 $-1 $-1 $45 $-1 $13 #
shell $-1 $-1 $-1 $46 $-1 $15 #
shell $-1 $-1 $-1 $47 $-1 $17 #
shell $-1 $-1 $-1 $48 $-1 $19 #
shell $-1 $-1 $-1 $49 $-1 $21 #
shell $-1 $-1 $-1 $50 $-1 $23 #
shell $-1 $-1 $-1 $51 $-1 $25 #
shell $-1 $-1 $-1 $52 $-1 $27 #
shell $-1 $-1 $-1 $53 $-1 $29 #
shell $-1 $-1 $-1 $54 $-1 $31 #
face $-1 $55 $56 $33 $-1 $57 forward single #
face $-1 $58 $59 $34 $-1 $60 forward single #
face $-1 $61 $62 $35 $-1 $63 reversed single #
face $-1 $64 $65 $36 $-1 $66 reversed single #
face $-1 $67 $68 $37 $-1 $69 forward single #
face $-1 $70 $71 $38 $-1 $72 forward single #
face $-1 $73 $74 $39 $-1 $75 forward single #
face $-1 $76 $77 $40 $-1 $78 reversed single #
face $-1 $79 $80 $41 $-1 $81 forward single #
face $-1 $82 $83 $42 $-1 $84 forward single #
face $-1 $85 $86 $43 $-1 $87 forward single #
face $-1 $88 $89 $33 $-1 $90 reversed single #
loop $-1 $-1 $91 $44 #
plane-surface $-1 0 0 8.8298473284941323 0 0 1 1 0 0 forward_v I I I I #
face $-1 $92 $93 $34 $-1 $94 reversed single #
loop $-1 $-1 $95 $45 #
plane-surface $-1 0 -20.235671491111788 0 0 1 0 0 0 1 forward_v I I I I #
face $-1 $96 $97 $35 $-1 $98 reversed single #
loop $-1 $-1 $99 $46 #
plane-surface $-1 0 16.354214288924922 5.8298473284941323 0 0 1 1 0 0 forward_v I I I I #
face $-1 $100 $101 $36 $-1 $102 reversed single #
loop $-1 $-1 $103 $47 #
plane-surface $-1 -113.77422930043168 -9.6298192958984572 59.341348343828862 0 1 0 -0.77714596973225614 0 0.62932038083071107 forward_v I I I I #
face $-1 $104 $105 $37 $-1 $106 forward single #
loop $-1 $107 $108 $48 #
cone-surface $-1 -41.534288966886344 -8.3451880262794447 5.4384220709201712 0.77714596973225614 0 -0.62932038083071107 0.31466019041535553 0 0.38857298486612807 1 I I 0 1 0.5 forward I I I I #
face $-1 $109 $110 $38 $-1 $111 forward single #
loop $-1 $112 $113 $49 #
cone-surface $-1 -41.534288966886344 -6.4182411218509259 5.4384220709201712 0.77714596973225614 0 -0.62932038083071107 0.31466019041535553 0 0.38857298486612807 1 I I 0 1 0.5 forward I I I I #
face $-1 $114 $115 $39 $-1 $116 forward single #
loop $-1 $117 $118 $50 #
cone-surface $-1 -41.534288966886344 -4.4912942174224071 5.4384220709201712 0.77714596973225614 0 -0.62932038083071107 0.31466019041535553 0 0.38857298486612807 1 I I 0 1 0.5 forward I I I I #
face $-1 $119 $120 $40 $-1 $121 reversed single #
loop $-1 $-1 $122 $51 #
plane-surface $-1 57.711380566642234 -3.2066629478033946 128.57320269385312 0 -1 0 -0.77714596973225614 0 -0.62932038083071107 forward_v I I I I #
face $-1 $123 $124 $41 $-1 $125 forward single #
loop $-1 $126 $127 $52 #
cone-surface $-1 41.534288966886351 -8.3451880262794447 5.4384220709201729 -0.77714596973225614 0 -0.62932038083071107 0.31466019041535553 0 -0.38857298486612807 1 I I 0 1 0.5 forward I I I I #
face $-1 $128 $129 $42 $-1 $130 forward single #
loop $-1 $131 $132 $53 #
cone-surface $-1 41.534288966886351 -6.4182411218509259 5.4384220709201729 -0.77714596973225614 0 -0.62932038083071107 0.31466019041535553 0 -0.38857298486612807 1 I I 0 1 0.5 forward I I I I #
face $-1 $133 $134 $43 $-1 $135 forward single #
loop $-1 $136 $137 $54 #
cone-surface $-1 41.534288966886351 -4.4912942174224071 5.4384220709201729 -0.77714596973225614 0 -0.62932038083071107 0.31466019041535553 0 -0.38857298486612807 1 I I 0 1 0.5 forward I I I I #
face $-1 $138 $139 $33 $-1 $140 reversed single #
loop $-1 $-1 $141 $55 #
plane-surface $-1 0 0 -8.8298473284941323 0 0 1 1 0 0 forward_v I I I I #
coedge $-1 $142 $143 $144 $145 forward $56 $-1 #
face $-1 $146 $147 $34 $-1 $148 reversed single #
loop $-1 $-1 $149 $58 #
plane-surface $-1 0 0 -8.8298473284941323 0 0 1 1 0 0 forward_v I I I I #
coedge $-1 $150 $151 $152 $153 forward $59 $-1 #
face $-1 $154 $155 $35 $-1 $156 reversed single #
loop $-1 $-1 $157 $61 #
plane-surface $-1 0 12.47275708673806 7.3298473284941323 0 1 0 0 0 1 forward_v I I I I #
coedge $-1 $158 $159 $160 $161 reversed $62 $-1 #
face $-1 $162 $163 $36 $-1 $164 reversed single #
loop $-1 $-1 $165 $64 #
plane-surface $-1 -44.542374950407421 -6.4182411218509259 3.2784996100394181 -0.77714596973225614 0 0.62932038083071107 0.62932038083071107 0 0.77714596973225614 forward_v I I I I #
coedge $-1 $166 $167 $168 $169 reversed $65 $-1 #
face $-1 $-1 $170 $37 $-1 $171 forward single #
loop $-1 $172 $173 $67 #
cone-surface $-1 -40.579612803058247 -8.3451880262794447 4.6653405773658942 0.77714596973225614 0 -0.62932038083071107 0.15733009520767777 0 0.19428649243306403 1 I I -0.70710678118654624 0.70710678118654879 0.25 forward I I I I #
loop $-1 $-1 $174 $48 #
coedge $-1 $108 $108 $175 $176 reversed $68 $-1 #
face $-1 $-1 $177 $38 $-1 $178 forward single #
loop $-1 $179 $180 $70 #
cone-surface $-1 -40.579612803058247 -6.4182411218509259 4.6653405773658942 0.77714596973225614 0 -0.62932038083071107 0.15733009520767777 0 0.19428649243306403 1 I I -0.70710678118654624 0.70710678118654879 0.25 forward I I I I #
loop $-1 $-1 $181 $49 #
coedge $-1 $113 $113 $182 $183 reversed $71 $-1 #
face $-1 $-1 $184 $39 $-1 $185 forward single #
loop $-1 $186 $187 $73 #
cone-surface $-1 -40.579612803058247 -4.4912942174224071 4.6653405773658942 0.77714596973225614 0 -0.62932038083071107 0.15733009520767777 0 0.19428649243306403 1 I I -0.70710678118654624 0.70710678118654879 0.25 forward I I I I #
loop $-1 $-1 $188 $50 #
coedge $-1 $118 $118 $189 $190 reversed $74 $-1 #
face $-1 $191 $192 $40 $-1 $193 reversed single #
loop $-1 $-1 $194 $76 #
plane-surface $-1 -11.52047378338203 -6.4182411218509259 72.510353960063668 0.77714596973225614 0 0.62932038083071107 0.62932038083071107 0 -0.77714596973225614 forward_v I I I I #
coedge $-1 $195 $196 $197 $198 reversed $77 $-1 #
face $-1 $-1 $199 $41 $-1 $200 forward single #
loop $-1 $201 $202 $79 #
cone-surface $-1 40.579612803058254 -8.3451880262794447 4.665340577365896 -0.77714596973225614 0 -0.62932038083071107 0.15733009520767777 0 -0.19428649243306403 1 I I -0.70710678118654624 0.70710678118654879 0.25 forward I I I I #
loop $-1 $-1 $203 $52 #
coedge $-1 $127 $127 $204 $205 reversed $80 $-1 #
face $-1 $-1 $206 $42 $-1 $207 forward single #
loop $-1 $208 $209 $82 #
cone-surface $-1 40.579612803058254 -6.4182411218509259 4.665340577365896 -0.77714596973225614 0 -0.62932038083071107 0.15733009520767777 0 -0.19428649243306403 1 I I -0.70710678118654624 0.70710678118654879 0.25 forward I I I I #
loop $-1 $-1 $210 $53 #
coedge $-1 $132 $132 $211 $212 reversed $83 $-1 #
face $-1 $-1 $213 $43 $-1 $214 forward single #
loop $-1 $215 $216 $85 #
cone-surface $-1 40.579612803058254 -4.4912942174224071 4.665340577365896 -0.77714596973225614 0 -0.62932038083071107 0.15733009520767777 0 -0.19428649243306403 1 I I -0.70710678118654624 0.70710678118654879 0.25 forward I I I I #
loop $-1 $-1 $217 $54 #
coedge $-1 $137 $137 $218 $219 reversed $86 $-1 #
face $-1 $220 $221 $33 $-1 $222 reversed single #
loop $-1 $-1 $223 $88 #
plane-surface $-1 0 -20.235671491111788 0 0 1 0 0 0 1 forward_v I I I I #
coedge $-1 $224 $225 $226 $227 forward $89 $-1 #
coedge $-1 $228 $91 $229 $230 forward $56 $-1 #
coedge $-1 $91 $228 $231 $232 forward $56 $-1 #
coedge $-1 $233 $234 $91 $145 reversed $235 $-1 #
edge $-1 $236 -20.235671491111788 $237 20.235671491111788 $144 $238 forward 7 unknown #
face $-1 $239 $240 $34 $-1 $241 forward single #
loop $-1 $-1 $242 $92 #
plane-surface $-1 44.542374950407421 0 0 -1 0 0 0 0 1 forward_v I I I I #
coedge $-1 $243 $244 $245 $246 forward $93 $-1 #
coedge $-1 $245 $95 $242 $247 reversed $59 $-1 #
coedge $-1 $95 $245 $248 $249 reversed $59 $-1 #
coedge $-1 $250 $251 $95 $153 reversed $240 $-1 #
edge $-1 $252 -44.542374950407421 $253 44.542374950407421 $152 $254 forward 7 unknown #
face $-1 $255 $256 $35 $-1 $257 reversed single #
loop $-1 $-1 $258 $96 #
plane-surface $-1 0 20.235671491111788 0 0 -1 0 0 0 -1 forward_v I I I I #
coedge $-1 $259 $260 $261 $262 reversed $97 $-1 #
coedge $-1 $263 $99 $259 $264 forward $62 $-1 #
coedge $-1 $99 $263 $258 $265 reversed $62 $-1 #
coedge $-1 $266 $267 $99 $161 forward $268 $-1 #
edge $-1 $269 4.2956499422755989 $270 12.058564346649323 $160 $271 forward 7 unknown #
face $-1 $272 $273 $36 $-1 $274 reversed single #
loop $-1 $-1 $275 $100 #
plane-surface $-1 -113.77422930043168 -3.2066629478033946 59.341348343828862 0 -1 0 0.77714596973225614 0 -0.62932038083071107 forward_v I I I I #
coedge $-1 $276 $277 $278 $279 reversed $101 $-1 #
coedge $-1 $167 $103 $280 $281 reversed $65 $-1 #
coedge $-1 $103 $166 $276 $282 reversed $65 $-1 #
coedge $-1 $278 $283 $103 $169 forward $284 $-1 #
edge $-1 $285 12.344739699808422 $286 16.840132324060512 $168 $287 forward 7 unknown #
loop $-1 $-1 $175 $104 #
plane-surface $-1 -44.542374950407421 -6.4182411218509259 3.2784996100394181 -0.77714596973225614 0 0.62932038083071107 0.62932038083071107 0 0.77714596973225614 forward_v I I I I #
loop $-1 $-1 $288 $67 #
coedge $-1 $173 $173 $174 $289 reversed $105 $-1 #
coedge $-1 $174 $174 $173 $289 forward $107 $-1 #
coedge $-1 $175 $175 $108 $176 forward $170 $-1 #
edge $-1 $290 0 $290 6.2831853071796004 $175 $291 forward 7 unknown #
loop $-1 $-1 $182 $109 #
plane-surface $-1 -44.542374950407421 -6.4182411218509259 3.2784996100394181 -0.77714596973225614 0 0.62932038083071107 0.62932038083071107 0 0.77714596973225614 forward_v I I I I #
loop $-1 $-1 $292 $70 #
coedge $-1 $180 $180 $181 $293 reversed $110 $-1 #
coedge $-1 $181 $181 $180 $293 forward $112 $-1 #
coedge $-1 $182 $182 $113 $183 forward $177 $-1 #
edge $-1 $294 0 $294 6.2831853071796004 $182 $295 forward 7 unknown #
loop $-1 $-1 $189 $114 #
plane-surface $-1 -44.542374950407421 -6.4182411218509259 3.2784996100394181 -0.77714596973225614 0 0.62932038083071107 0.62932038083071107 0 0.77714596973225614 forward_v I I I I #
loop $-1 $-1 $296 $73 #
coedge $-1 $187 $187 $188 $297 reversed $115 $-1 #
coedge $-1 $188 $188 $187 $297 forward $117 $-1 #
coedge $-1 $189 $189 $118 $190 forward $184 $-1 #
edge $-1 $298 0 $298 6.2831853071796004 $189 $299 forward 7 unknown #
face $-1 $300 $301 $40 $-1 $302 forward single #
loop $-1 $-1 $303 $119 #
plane-surface $-1 57.711380566642234 -9.6298192958984572 128.57320269385312 0 1 0 0.77714596973225614 0 0.62932038083071107 forward_v I I I I #
coedge $-1 $304 $305 $306 $307 reversed $120 $-1 #
coedge $-1 $196 $122 $308 $309 reversed $77 $-1 #
coedge $-1 $122 $195 $304 $310 reversed $77 $-1 #
coedge $-1 $306 $311 $122 $198 forward $301 $-1 #
edge $-1 $312 -15.686684667086304 $313 -11.191292042834206 $197 $314 forward 7 unknown #
loop $-1 $-1 $204 $123 #
plane-surface $-1 -11.52047378338203 -6.4182411218509259 72.510353960063668 0.77714596973225614 0 0.62932038083071107 0.62932038083071107 0 -0.77714596973225614 forward_v I I I I #
loop $-1 $-1 $315 $79 #
coedge $-1 $202 $202 $203 $316 reversed $124 $-1 #
coedge $-1 $203 $203 $202 $316 forward $126 $-1 #
coedge $-1 $204 $204 $127 $205 forward $199 $-1 #
edge $-1 $317 0 $317 6.2831853071796004 $204 $318 forward 7 unknown #
loop $-1 $-1 $211 $128 #
plane-surface $-1 -11.52047378338203 -6.4182411218509259 72.510353960063668 0.77714596973225614 0 0.62932038083071107 0.62932038083071107 0 -0.77714596973225614 forward_v I I I I #
loop $-1 $-1 $319 $82 #
coedge $-1 $209 $209 $210 $320 reversed $129 $-1 #
coedge $-1 $210 $210 $209 $320 forward $131 $-1 #
coedge $-1 $211 $211 $132 $212 forward $206 $-1 #
edge $-1 $321 0 $321 6.2831853071796004 $211 $322 forward 7 unknown #
loop $-1 $-1 $218 $133 #
plane-surface $-1 -11.52047378338203 -6.4182411218509259 72.510353960063668 0.77714596973225614 0 0.62932038083071107 0.62932038083071107 0 -0.77714596973225614 forward_v I I I I #
loop $-1 $-1 $323 $85 #
coedge $-1 $216 $216 $217 $324 reversed $134 $-1 #
coedge $-1 $217 $217 $216 $324 forward $136 $-1 #
coedge $-1 $218 $218 $137 $219 forward $213 $-1 #
edge $-1 $325 0 $325 6.2831853071796004 $218 $326 forward 7 unknown #
face $-1 $327 $328 $33 $-1 $329 reversed single #
loop $-1 $-1 $330 $138 #
plane-surface $-1 -44.542374950407421 0 0 1 0 0 0 0 -1 forward_v I I I I #
coedge $-1 $231 $331 $233 $332 reversed $139 $-1 #
coedge $-1 $333 $141 $331 $334 forward $89 $-1 #
coedge $-1 $141 $333 $335 $336 forward $89 $-1 #
coedge $-1 $234 $233 $141 $227 reversed $235 $-1 #
edge $-1 $337 -20.235671491111788 $338 20.235671491111788 $226 $339 forward 7 unknown #
coedge $-1 $143 $142 $340 $341 forward $56 $-1 #
coedge $-1 $342 $343 $142 $230 reversed $328 $-1 #
edge $-1 $237 -44.542374950407421 $344 44.542374950407421 $229 $345 forward 7 unknown #
coedge $-1 $346 $223 $143 $232 reversed $139 $-1 #
edge $-1 $347 -44.542374950407421 $236 44.542374950407421 $231 $348 forward 7 unknown #
coedge $-1 $226 $144 $223 $332 forward $235 $-1 #
coedge $-1 $144 $226 $342 $349 reversed $235 $-1 #
loop $-1 $-1 $233 $327 #
vertex $-1 $145 $350 #
vertex $-1 $145 $351 #
straight-curve $-1 44.542374950407421 0 8.8298473284941323 0 1 0 I I #
face $-1 $352 $353 $34 $-1 $354 reversed single #
loop $-1 $-1 $251 $146 #
plane-surface $-1 0 -23.796549211675583 -4.941610166018414 0 0 1 1 0 0 forward_v I I I I #
coedge $-1 $355 $356 $150 $247 forward $147 $-1 #
coedge $-1 $357 $149 $356 $358 forward $93 $-1 #
coedge $-1 $149 $357 $359 $360 forward $93 $-1 #
coedge $-1 $151 $150 $149 $246 reversed $59 $-1 #
edge $-1 $361 -44.542374950407421 $362 44.542374950407421 $149 $363 forward 7 unknown #
edge $-1 $362 -8.8298473284941323 $253 -4.941610166018414 $242 $364 forward 7 unknown #
coedge $-1 $359 $365 $151 $249 forward $366 $-1 #
edge $-1 $252 4.941610166018414 $361 8.8298473284941323 $248 $367 forward 7 unknown #
coedge $-1 $368 $152 $365 $369 forward $240 $-1 #
coedge $-1 $152 $368 $355 $370 forward $240 $-1 #
vertex $-1 $249 $371 #
vertex $-1 $370 $372 #
straight-curve $-1 0 -20.235671491111788 -4.941610166018414 1 0 0 I I #
face $-1 $373 $374 $35 $-1 $375 forward single #
loop $-1 $-1 $376 $154 #
plane-surface $-1 -44.542374950407421 0 0 1 0 0 0 0 -1 forward_v I I I I #
coedge $-1 $377 $378 $159 $265 forward $155 $-1 #
coedge $-1 $379 $157 $158 $264 reversed $97 $-1 #
coedge $-1 $157 $379 $380 $381 reversed $97 $-1 #
coedge $-1 $382 $376 $157 $262 forward $256 $-1 #
edge $-1 $383 2.1649236642470662 $384 5.1649236642470662 $261 $385 forward 7 unknown #
coedge $-1 $159 $158 $376 $386 reversed $62 $-1 #
edge $-1 $269 -44.542374950407421 $383 44.542374950407421 $259 $387 forward 7 unknown #
edge $-1 $270 -44.542374950407421 $388 44.542374950407421 $258 $389 forward 7 unknown #
coedge $-1 $390 $160 $378 $391 reversed $268 $-1 #
coedge $-1 $160 $390 $379 $392 forward $268 $-1 #
loop $-1 $-1 $160 $373 #
vertex $-1 $161 $393 #
vertex $-1 $265 $394 #
straight-curve $-1 44.542374950407421 8.177107144462461 5.8298473284941323 0 1 0 I I #
face $-1 $-1 $284 $36 $-1 $395 forward single #
loop $-1 $-1 $396 $162 #
plane-surface $-1 -44.542374950407421 0 0 1 0 0 0 0 -1 forward_v I I I I #
coedge $-1 $397 $398 $399 $400 reversed $163 $-1 #
coedge $-1 $401 $165 $167 $282 forward $101 $-1 #
coedge $-1 $165 $401 $397 $402 forward $101 $-1 #
coedge $-1 $399 $168 $165 $279 forward $284 $-1 #
edge $-1 $286 -6.4206987349729943 $403 0.0024576131220683806 $278 $404 forward 7 unknown #
coedge $-1 $405 $406 $166 $281 forward $273 $-1 #
edge $-1 $407 -26.392174561875013 $285 -20.840826843420299 $280 $408 forward 7 unknown #
edge $-1 $286 -7.1432497042573324 $407 0 $167 $409 forward 7 unknown #
coedge $-1 $168 $399 $405 $410 forward $284 $-1 #
loop $-1 $-1 $399 $272 #
vertex $-1 $281 $411 #
vertex $-1 $169 $412 #
straight-curve $-1 -56.887114650215842 -9.6298192958984572 8.8298473284941323 1 0 0 I I #
coedge $-1 $288 $288 $-1 $413 reversed $172 $-1 #
edge $-1 $414 0 $414 6.2831853071796004 $173 $415 forward 7 unknown #
vertex $-1 $176 $416 #
ellipse-curve $-1 -42.294678638281376 -8.3451880262794447 6.0541734692667735 -0.77714596973225614 0 0.62932038083071107 0.31466019041535553 0 0.38857298486612807 1 I I #
coedge $-1 $292 $292 $-1 $417 reversed $179 $-1 #
edge $-1 $418 0 $418 6.2831853071796004 $180 $419 forward 7 unknown #
vertex $-1 $183 $420 #
ellipse-curve $-1 -42.294678638281376 -6.4182411218509259 6.0541734692667735 -0.77714596973225614 0 0.62932038083071107 0.31466019041535553 0 0.38857298486612807 1 I I #
coedge $-1 $296 $296 $-1 $421 reversed $186 $-1 #
edge $-1 $422 0 $422 6.2831853071796004 $187 $423 forward 7 unknown #
vertex $-1 $190 $424 #
ellipse-curve $-1 -42.294678638281376 -4.4912942174224071 6.0541734692667735 -0.77714596973225614 0 0.62932038083071107 0.31466019041535553 0 0.38857298486612807 1 I I #
face $-1 $-1 $425 $40 $-1 $426 reversed single #
loop $-1 $-1 $197 $191 #
plane-surface $-1 0 0 8.8298473284941323 0 0 1 1 0 0 forward_v I I I I #
coedge $-1 $427 $428 $429 $430 reversed $192 $-1 #
coedge $-1 $431 $194 $196 $310 forward $120 $-1 #
coedge $-1 $194 $431 $427 $432 forward $120 $-1 #
coedge $-1 $429 $197 $194 $307 forward $301 $-1 #
edge $-1 $313 -0.0024576131220683806 $433 6.4206987349729943 $306 $434 forward 7 unknown #
coedge $-1 $435 $436 $195 $309 forward $425 $-1 #
edge $-1 $437 -61.008101736887156 $312 -55.456754018432427 $308 $438 forward 7 unknown #
edge $-1 $313 81.941500196557499 $437 89.084749900814842 $196 $439 forward 7 unknown #
coedge $-1 $197 $429 $435 $440 forward $301 $-1 #
vertex $-1 $198 $441 #
vertex $-1 $198 $442 #
straight-curve $-1 28.855690283321117 -3.2066629478033946 8.8298473284941323 -1 0 0 I I #
coedge $-1 $315 $315 $-1 $443 reversed $201 $-1 #
edge $-1 $444 0 $444 6.2831853071796004 $202 $445 forward 7 unknown #
vertex $-1 $205 $446 #
ellipse-curve $-1 42.294678638281376 -8.3451880262794447 6.0541734692667681 0.77714596973225614 0 0.62932038083071107 0.31466019041535553 0 -0.38857298486612807 1 I I #
coedge $-1 $319 $319 $-1 $447 reversed $208 $-1 #
edge $-1 $448 0 $448 6.2831853071796004 $209 $449 forward 7 unknown #
vertex $-1 $212 $450 #
ellipse-curve $-1 42.294678638281376 -6.4182411218509259 6.0541734692667681 0.77714596973225614 0 0.62932038083071107 0.31466019041535553 0 -0.38857298486612807 1 I I #
coedge $-1 $323 $323 $-1 $451 reversed $215 $-1 #
edge $-1 $452 0 $452 6.2831853071796004 $216 $453 forward 7 unknown #
vertex $-1 $219 $454 #
ellipse-curve $-1 42.294678638281376 -4.4912942174224071 6.0541734692667681 0.77714596973225614 0 0.62932038083071107 0.31466019041535553 0 -0.38857298486612807 1 I I #
face $-1 $-1 $235 $33 $-1 $455 reversed single #
loop $-1 $-1 $342 $220 #
plane-surface $-1 0 20.235671491111788 0 0 -1 0 0 0 -1 forward_v I I I I #
coedge $-1 $456 $340 $343 $457 forward $221 $-1 #
coedge $-1 $223 $346 $224 $334 reversed $139 $-1 #
edge $-1 $236 -8.8298473284941323 $338 8.8298473284941323 $233 $458 forward 7 unknown #
coedge $-1 $225 $224 $456 $459 forward $89 $-1 #
edge $-1 $338 -44.542374950407421 $460 44.542374950407421 $331 $461 forward 7 unknown #
coedge $-1 $343 $342 $225 $336 reversed $328 $-1 #
edge $-1 $462 -44.542374950407421 $337 44.542374950407421 $335 $463 forward 7 unknown #
vertex $-1 $227 $464 #
vertex $-1 $332 $465 #
straight-curve $-1 44.542374950407421 0 -8.8298473284941323 0 -1 0 I I #
coedge $-1 $330 $466 $228 $341 reversed $221 $-1 #
edge $-1 $344 -20.235671491111788 $347 20.235671491111788 $340 $467 forward 7 unknown #
coedge $-1 $335 $229 $234 $349 forward $328 $-1 #
coedge $-1 $229 $335 $330 $457 reversed $328 $-1 #
vertex $-1 $230 $468 #
straight-curve $-1 0 20.235671491111788 8.8298473284941323 -1 0 0 I I #
coedge $-1 $331 $231 $466 $469 forward $139 $-1 #
vertex $-1 $341 $470 #
straight-curve $-1 0 -20.235671491111788 8.8298473284941323 1 0 0 I I #
edge $-1 $237 -8.8298473284941323 $337 8.8298473284941323 $234 $471 forward 7 unknown #
point $-1 44.542374950407421 -20.235671491111788 8.8298473284941323 #
point $-1 44.542374950407421 20.235671491111788 8.8298473284941323 #
face $-1 $-1 $366 $34 $-1 $472 reversed single #
loop $-1 $-1 $473 $239 #
plane-surface $-1 0 -27.357426932239377 -6.8857287472562732 0 1 0 0 0 1 forward_v I I I I #
coedge $-1 $474 $242 $251 $370 reversed $147 $-1 #
coedge $-1 $242 $474 $243 $358 reversed $147 $-1 #
coedge $-1 $244 $243 $475 $476 forward $93 $-1 #
edge $-1 $362 20.235671491111788 $477 27.357426932239377 $356 $478 forward 7 unknown #
coedge $-1 $479 $248 $244 $360 reversed $366 $-1 #
edge $-1 $480 -27.357426932239377 $361 -20.235671491111788 $359 $481 forward 7 unknown #
vertex $-1 $249 $482 #
vertex $-1 $358 $483 #
straight-curve $-1 0 -20.235671491111788 -8.8298473284941323 1 0 0 I I #
straight-curve $-1 44.542374950407421 -20.235671491111788 0 0 0 1 I I #
coedge $-1 $248 $479 $250 $369 reversed $366 $-1 #
loop $-1 $-1 $248 $352 #
straight-curve $-1 -44.542374950407421 -20.235671491111788 0 0 0 -1 I I #
coedge $-1 $251 $250 $484 $485 forward $240 $-1 #
edge $-1 $252 -3.5608777205637949 $486 3.5608777205637949 $365 $487 forward 7 unknown #
edge $-1 $488 -3.5608777205637949 $253 3.5608777205637949 $355 $489 forward 7 unknown #
point $-1 -44.542374950407421 -20.235671491111788 -4.941610166018414 #
point $-1 44.542374950407421 -20.235671491111788 -4.941610166018414 #
face $-1 $-1 $268 $35 $-1 $490 reversed single #
loop $-1 $-1 $380 $255 #
plane-surface $-1 0 0 8.8298473284941323 0 0 1 1 0 0 forward_v I I I I #
coedge $-1 $261 $491 $263 $386 forward $256 $-1 #
coedge $-1 $492 $258 $491 $493 reversed $155 $-1 #
coedge $-1 $258 $492 $266 $391 forward $155 $-1 #
coedge $-1 $260 $259 $267 $392 reversed $97 $-1 #
coedge $-1 $494 $495 $260 $381 forward $374 $-1 #
edge $-1 $384 -44.542374950407421 $496 44.542374950407421 $380 $497 forward 7 unknown #
coedge $-1 $491 $261 $495 $498 reversed $256 $-1 #
vertex $-1 $386 $499 #
vertex $-1 $262 $500 #
straight-curve $-1 -44.542374950407421 12.47275708673806 3.6649236642470662 0 0 1 I I #
edge $-1 $388 -12.058564346649323 $383 -4.2956499422755989 $376 $501 forward 7 unknown #
straight-curve $-1 0 12.47275708673806 5.8298473284941323 -1 0 0 I I #
vertex $-1 $265 $502 #
straight-curve $-1 0 20.235671491111788 5.8298473284941323 -1 0 0 I I #
coedge $-1 $267 $266 $494 $503 reversed $268 $-1 #
edge $-1 $504 -8.8298473284941323 $270 -5.8298473284941323 $266 $505 forward 7 unknown #
edge $-1 $496 -5.1649236642470662 $269 -2.1649236642470662 $267 $506 forward 7 unknown #
point $-1 44.542374950407421 12.47275708673806 5.8298473284941323 #
point $-1 44.542374950407421 20.235671491111784 5.8298473284941323 #
plane-surface $-1 0 0 8.8298473284941323 0 0 1 1 0 0 forward_v I I I I #
coedge $-1 $406 $405 $398 $507 forward $273 $-1 #
coedge $-1 $398 $275 $277 $402 reversed $163 $-1 #
coedge $-1 $275 $397 $396 $507 reversed $163 $-1 #
coedge $-1 $283 $278 $275 $400 forward $284 $-1 #
edge $-1 $403 -16.840132324060512 $508 -12.344739699808422 $399 $509 forward 7 unknown #
coedge $-1 $277 $276 $406 $510 reversed $101 $-1 #
edge $-1 $511 0 $403 7.1432497042573324 $397 $512 forward 7 unknown #
vertex $-1 $279 $513 #
straight-curve $-1 -40.046982326155337 -3.2091205609254629 8.8298473284941323 0 1 0 I I #
coedge $-1 $396 $280 $283 $410 reversed $273 $-1 #
coedge $-1 $280 $396 $401 $510 forward $273 $-1 #
vertex $-1 $281 $514 #
straight-curve $-1 -44.542374950407421 -9.6298192958984572 29.670674171914431 0 0 1 I I #
straight-curve $-1 -44.542374950407421 -9.6298192958984572 3.2784996100394181 -0.62932038083071107 0 -0.77714596973225614 I I #
edge $-1 $508 3.2066629478033946 $285 9.6298192958984572 $405 $515 forward 7 unknown #
point $-1 -44.542374950407421 -9.6298192958984572 8.8298473284941323 #
point $-1 -40.04698232615533 -9.6298192958984572 8.8298473284941323 #
edge $-1 $516 1 $516 0 $288 $-1 forward 7 unknown #
vertex $-1 $289 $517 #
ellipse-curve $-1 -40.773899295491312 -8.3451880262794447 4.8226706725735724 -0.77714596973225614 0 0.62932038083071107 0.31466019041535553 0 0.38857298486612807 1 I I #
point $-1 -41.980018447866016 -8.3451880262794447 6.442746454132898 #
edge $-1 $518 1 $518 0 $292 $-1 forward 7 unknown #
vertex $-1 $293 $519 #
ellipse-curve $-1 -40.773899295491312 -6.4182411218509259 4.8226706725735724 -0.77714596973225614 0 0.62932038083071107 0.31466019041535553 0 0.38857298486612807 1 I I #
point $-1 -41.980018447866016 -6.4182411218509259 6.442746454132898 #
edge $-1 $520 1 $520 0 $296 $-1 forward 7 unknown #
vertex $-1 $297 $521 #
ellipse-curve $-1 -40.773899295491312 -4.4912942174224071 4.8226706725735724 -0.77714596973225614 0 0.62932038083071107 0.31466019041535553 0 0.38857298486612807 1 I I #
point $-1 -41.980018447866016 -4.4912942174224071 6.442746454132898 #
loop $-1 $-1 $308 $300 #
plane-surface $-1 44.542374950407421 0 0 -1 0 0 0 0 1 forward_v I I I I #
coedge $-1 $428 $303 $305 $432 reversed $192 $-1 #
coedge $-1 $303 $427 $522 $523 reversed $192 $-1 #
coedge $-1 $311 $306 $303 $430 forward $301 $-1 #
edge $-1 $433 11.191292042834206 $524 15.686684667086304 $429 $525 forward 7 unknown #
coedge $-1 $305 $304 $436 $526 reversed $120 $-1 #
edge $-1 $527 -89.084749900814842 $433 -81.941500196557499 $427 $528 forward 7 unknown #
vertex $-1 $307 $529 #
straight-curve $-1 40.04698232615533 -3.2091205609254629 8.8298473284941323 0 -1 0 I I #
coedge $-1 $522 $308 $311 $440 reversed $425 $-1 #
coedge $-1 $308 $522 $431 $526 forward $425 $-1 #
vertex $-1 $309 $530 #
straight-curve $-1 44.542374950407421 -3.2066629478033946 64.28660134692656 0 0 1 I I #
straight-curve $-1 -11.52047378338203 -3.2066629478033946 72.510353960063668 0.62932038083071107 0 -0.77714596973225614 I I #
edge $-1 $524 -9.6298192958984572 $312 -3.2066629478033946 $435 $531 forward 7 unknown #
point $-1 44.542374950407421 -3.2066629478033946 8.8298473284941323 #
point $-1 40.046982326155323 -3.2066629478033946 8.8298473284941323 #
edge $-1 $532 1 $532 0 $315 $-1 forward 7 unknown #
vertex $-1 $316 $533 #
ellipse-curve $-1 40.773899295491319 -8.3451880262794447 4.8226706725735742 0.77714596973225614 0 0.62932038083071107 0.31466019041535553 0 -0.38857298486612807 1 I I #
point $-1 42.609338828696735 -8.3451880262794447 5.6656004844006436 #
edge $-1 $534 1 $534 0 $319 $-1 forward 7 unknown #
vertex $-1 $320 $535 #
ellipse-curve $-1 40.773899295491319 -6.4182411218509259 4.8226706725735742 0.77714596973225614 0 0.62932038083071107 0.31466019041535553 0 -0.38857298486612807 1 I I #
point $-1 42.609338828696735 -6.4182411218509259 5.6656004844006436 #
edge $-1 $536 1 $536 0 $323 $-1 forward 7 unknown #
vertex $-1 $324 $537 #
ellipse-curve $-1 40.773899295491319 -4.4912942174224071 4.8226706725735742 0.77714596973225614 0 0.62932038083071107 0.31466019041535553 0 -0.38857298486612807 1 I I #
point $-1 42.609338828696735 -4.4912942174224071 5.6656004844006436 #
plane-surface $-1 44.542374950407421 0 0 -1 0 0 0 0 1 forward_v I I I I #
coedge $-1 $466 $330 $333 $459 reversed $221 $-1 #
edge $-1 $344 -8.8298473284941323 $462 8.8298473284941323 $343 $538 forward 7 unknown #
straight-curve $-1 44.542374950407421 -20.235671491111788 0 0 0 -1 I I #
edge $-1 $460 -20.235671491111788 $462 20.235671491111788 $456 $539 forward 7 unknown #
vertex $-1 $459 $540 #
straight-curve $-1 0 -20.235671491111788 -8.8298473284941323 -1 0 0 I I #
vertex $-1 $336 $541 #
straight-curve $-1 0 20.235671491111788 -8.8298473284941323 1 0 0 I I #
point $-1 44.542374950407421 20.235671491111788 -8.8298473284941323 #
point $-1 44.542374950407421 -20.235671491111788 -8.8298473284941323 #
coedge $-1 $340 $456 $346 $469 reversed $221 $-1 #
straight-curve $-1 -44.542374950407421 0 8.8298473284941323 0 -1 0 I I #
point $-1 -44.542374950407421 20.235671491111788 8.8298473284941323 #
edge $-1 $347 -8.8298473284941323 $460 8.8298473284941323 $466 $542 forward 7 unknown #
point $-1 -44.542374950407421 -20.235671491111788 8.8298473284941323 #
straight-curve $-1 44.542374950407421 20.235671491111788 0 0 0 -1 I I #
plane-surface $-1 -44.542374950407421 0 0 1 0 0 0 0 -1 forward_v I I I I #
coedge $-1 $475 $484 $479 $543 forward $353 $-1 #
coedge $-1 $356 $355 $544 $545 forward $147 $-1 #
coedge $-1 $544 $473 $357 $476 reversed $353 $-1 #
edge $-1 $477 -44.542374950407421 $480 44.542374950407421 $475 $546 forward 7 unknown #
vertex $-1 $545 $547 #
straight-curve $-1 44.542374950407421 0 -8.8298473284941323 0 -1 0 I I #
coedge $-1 $365 $359 $473 $543 reversed $366 $-1 #
vertex $-1 $360 $548 #
straight-curve $-1 -44.542374950407421 0 -8.8298473284941323 0 1 0 I I #
point $-1 -44.542374950407421 -20.235671491111788 -8.8298473284941323 #
point $-1 44.542374950407421 -20.235671491111788 -8.8298473284941323 #
coedge $-1 $473 $544 $368 $485 reversed $353 $-1 #
edge $-1 $486 -44.542374950407421 $488 44.542374950407421 $484 $549 forward 7 unknown #
vertex $-1 $369 $550 #
straight-curve $-1 -44.542374950407421 -23.796549211675583 -4.941610166018414 0 -1 0 I I #
vertex $-1 $370 $551 #
straight-curve $-1 44.542374950407421 -23.796549211675583 -4.941610166018414 0 1 0 I I #
plane-surface $-1 44.542374950407421 0 0 -1 0 0 0 0 1 forward_v I I I I #
coedge $-1 $376 $382 $377 $493 forward $256 $-1 #
coedge $-1 $378 $377 $552 $553 reversed $155 $-1 #
edge $-1 $554 -8.8298473284941323 $388 -5.8298473284941323 $377 $555 forward 7 unknown #
coedge $-1 $552 $380 $390 $503 forward $374 $-1 #
coedge $-1 $380 $552 $382 $498 forward $374 $-1 #
vertex $-1 $503 $556 #
straight-curve $-1 0 12.47275708673806 8.8298473284941323 1 0 0 I I #
edge $-1 $554 -20.235671491111788 $384 -12.47275708673806 $382 $557 forward 7 unknown #
point $-1 -44.542374950407421 12.47275708673806 5.8298473284941323 #
point $-1 -44.542374950407421 12.47275708673806 8.8298473284941323 #
straight-curve $-1 -44.542374950407421 8.177107144462461 5.8298473284941323 0 -1 0 I I #
point $-1 -44.542374950407421 20.235671491111784 5.8298473284941323 #
edge $-1 $496 12.47275708673806 $504 20.235671491111788 $390 $558 forward 7 unknown #
vertex $-1 $503 $559 #
straight-curve $-1 44.542374950407421 20.235671491111788 0 0 0 -1 I I #
straight-curve $-1 44.542374950407421 12.47275708673806 3.6649236642470662 0 0 -1 I I #
edge $-1 $508 20.840826843420299 $511 26.392174561875013 $396 $560 forward 7 unknown #
vertex $-1 $410 $561 #
straight-curve $-1 -56.887114650215842 -3.2066629478033946 8.8298473284941323 -1 0 0 I I #
edge $-1 $511 -0.0024576131220683806 $407 6.4206987349729943 $406 $562 forward 7 unknown #
vertex $-1 $510 $563 #
straight-curve $-1 -44.542374950407421 -3.2066629478033946 3.2784996100394181 0.62932038083071107 0 0.77714596973225614 I I #
point $-1 -40.04698232615533 -3.2066629478033946 8.8298473284941323 #
point $-1 -44.542374950407421 -9.6298192958984572 3.2784996100394181 #
straight-curve $-1 -44.542374950407421 0 8.8298473284941323 0 -1 0 I I #
vertex $-1 $413 $564 #
point $-1 -40.459239105075959 -8.3451880262794447 5.2112436574397005 #
vertex $-1 $417 $565 #
point $-1 -40.459239105075959 -6.4182411218509259 5.2112436574397005 #
vertex $-1 $421 $566 #
point $-1 -40.459239105075959 -4.4912942174224071 5.2112436574397005 #
coedge $-1 $436 $435 $428 $523 forward $425 $-1 #
edge $-1 $524 55.456754018432427 $527 61.008101736887156 $522 $567 forward 7 unknown #
vertex $-1 $440 $568 #
straight-curve $-1 28.855690283321117 -9.6298192958984572 8.8298473284941323 1 0 0 I I #
edge $-1 $527 -6.4206987349729943 $437 0.0024576131220683806 $436 $569 forward 7 unknown #
vertex $-1 $526 $570 #
straight-curve $-1 -11.52047378338203 -9.6298192958984572 72.510353960063668 -0.62932038083071107 0 0.77714596973225614 I I #
point $-1 40.046982326155323 -9.6298192958984572 8.8298473284941323 #
point $-1 44.542374950407428 -3.2066629478033946 3.2784996100394039 #
straight-curve $-1 44.542374950407421 0 8.8298473284941323 0 1 0 I I #
vertex $-1 $443 $571 #
point $-1 41.088559485906671 -8.3451880262794447 4.4340976877074461 #
vertex $-1 $447 $572 #
point $-1 41.088559485906671 -6.4182411218509259 4.4340976877074461 #
vertex $-1 $451 $573 #
point $-1 41.088559485906671 -4.4912942174224071 4.4340976877074461 #
straight-curve $-1 -44.542374950407421 20.235671491111788 0 0 0 -1 I I #
straight-curve $-1 -44.542374950407421 0 -8.8298473284941323 0 1 0 I I #
point $-1 -44.542374950407421 -20.235671491111788 -8.8298473284941323 #
point $-1 -44.542374950407421 20.235671491111788 -8.8298473284941323 #
straight-curve $-1 -44.542374950407421 -20.235671491111788 0 0 0 -1 I I #
edge $-1 $486 -1.9441185812378592 $480 1.9441185812378592 $479 $574 forward 7 unknown #
coedge $-1 $484 $475 $474 $545 reversed $353 $-1 #
edge $-1 $488 -1.9441185812378592 $477 1.9441185812378592 $474 $575 forward 7 unknown #
straight-curve $-1 0 -27.357426932239377 -8.8298473284941323 -1 0 0 I I #
point $-1 44.542374950407421 -27.357426932239377 -8.8298473284941323 #
point $-1 -44.542374950407421 -27.357426932239377 -8.8298473284941323 #
straight-curve $-1 0 -27.357426932239377 -4.941610166018414 1 0 0 I I #
point $-1 -44.542374950407421 -27.357426932239377 -4.941610166018414 #
point $-1 44.542374950407421 -27.357426932239377 -4.941610166018414 #
coedge $-1 $495 $494 $492 $553 forward $374 $-1 #
edge $-1 $504 -44.542374950407421 $554 44.542374950407421 $492 $576 forward 7 unknown #
vertex $-1 $553 $577 #
straight-curve $-1 -44.542374950407421 20.235671491111788 0 0 0 -1 I I #
point $-1 44.542374950407421 12.47275708673806 8.8298473284941323 #
straight-curve $-1 -44.542374950407421 0 8.8298473284941323 0 -1 0 I I #
straight-curve $-1 44.542374950407421 0 8.8298473284941323 0 1 0 I I #
point $-1 44.542374950407421 20.235671491111788 8.8298473284941323 #
straight-curve $-1 -44.542374950407421 -3.2066629478033946 29.670674171914431 0 0 -1 I I #
point $-1 -44.542374950407421 -3.2066629478033946 8.8298473284941323 #
straight-curve $-1 -44.542374950407421 -3.2091205609254629 3.278499610039419 0 -1 0 I I #
point $-1 -44.542374950407421 -3.2066629478033946 3.2784996100394181 #
point $-1 -40.385326310625182 -8.3451880262794447 4.5080104821582161 #
point $-1 -40.385326310625182 -6.4182411218509259 4.5080104821582161 #
point $-1 -40.385326310625182 -4.4912942174224071 4.5080104821582161 #
straight-curve $-1 44.542374950407421 -9.6298192958984572 64.28660134692656 0 0 -1 I I #
point $-1 44.542374950407421 -9.6298192958984572 8.8298473284941323 #
straight-curve $-1 44.542374950407421 -3.2091205609254629 3.2784996100393897 0 1 0 I I #
point $-1 44.542374950407428 -9.6298192958984572 3.2784996100394039 #
point $-1 40.385326310625189 -8.3451880262794447 4.5080104821582179 #
point $-1 40.385326310625189 -6.4182411218509259 4.5080104821582179 #
point $-1 40.385326310625189 -4.4912942174224071 4.5080104821582179 #
straight-curve $-1 -44.542374950407421 -27.357426932239377 -6.8857287472562732 0 0 -1 I I #
straight-curve $-1 44.542374950407421 -27.357426932239377 -6.8857287472562732 0 0 -1 I I #
straight-curve $-1 0 20.235671491111788 8.8298473284941323 -1 0 0 I I #
point $-1 -44.542374950407421 20.235671491111788 8.8298473284941323 #
End-of-ACIS-data 