500 0 9 0           
7 Unknown 11 ACIS 5.0 NT 24 Thu Mar 25 15:42:24 1999 
-1 9.9999999999999995e-007 1e-010 
body $-1 $9 $-1 $10 #
body $-1 $11 $-1 $12 #
body $-1 $13 $-1 $14 #
body $-1 $15 $-1 $16 #
body $-1 $17 $-1 $18 #
body $-1 $19 $-1 $20 #
body $-1 $21 $-1 $22 #
body $-1 $23 $-1 $24 #
body $-1 $25 $-1 $26 #
lump $-1 $-1 $27 $0 #
transform $-1 1 0 0 0 1 0 0 0 1 40.972930082094791 27.373723612145447 11.687653517971119 1 rotate no_reflect no_shear #
lump $-1 $-1 $28 $1 #
transform $-1 1 0 0 0 1 0 0 0 1 40.972930082094791 27.373723612145447 11.687653517971119 1 rotate no_reflect no_shear #
lump $-1 $-1 $29 $2 #
transform $-1 1 0 0 0 1 0 0 0 1 40.972930082094791 27.373723612145447 11.687653517971119 1 rotate no_reflect no_shear #
lump $-1 $-1 $30 $3 #
transform $-1 1 0 0 0 1 0 0 0 1 40.972930082094791 27.373723612145447 11.687653517971119 1 rotate no_reflect no_shear #
lump $-1 $-1 $31 $4 #
transform $-1 1 0 0 0 1 0 0 0 1 40.972930082094791 27.373723612145447 11.687653517971119 1 rotate no_reflect no_shear #
lump $-1 $-1 $32 $5 #
transform $-1 1 0 0 0 1 0 0 0 1 40.972930082094791 27.373723612145447 11.687653517971119 1 rotate no_reflect no_shear #
lump $-1 $-1 $33 $6 #
transform $-1 1 0 0 0 1 0 0 0 1 40.972930082094791 27.373723612145447 11.687653517971119 1 rotate no_reflect no_shear #
lump $-1 $-1 $34 $7 #
transform $-1 1 0 0 0 1 0 0 0 1 40.972930082094791 27.373723612145447 11.687653517971119 1 rotate no_reflect no_shear #
lump $-1 $-1 $35 $8 #
transform $-1 1 0 0 0 1 0 0 0 1 40.972930082094791 27.373723612145447 11.687653517971119 1 rotate no_reflect no_shear #
shell $-1 $-1 $-1 $36 $-1 $9 #
shell $-1 $-1 $-1 $37 $-1 $11 #
shell $-1 $-1 $-1 $38 $-1 $13 #
shell $-1 $-1 $-1 $39 $-1 $15 #
shell $-1 $-1 $-1 $40 $-1 $17 #
shell $-1 $-1 $-1 $41 $-1 $19 #
shell $-1 $-1 $-1 $42 $-1 $21 #
shell $-1 $-1 $-1 $43 $-1 $23 #
shell $-1 $-1 $-1 $44 $-1 $25 #
face $-1 $45 $46 $27 $-1 $47 forward single #
face $-1 $48 $49 $28 $-1 $50 forward single #
face $-1 $51 $52 $29 $-1 $53 forward single #
face $-1 $54 $55 $30 $-1 $56 reversed single #
face $-1 $57 $58 $31 $-1 $59 forward single #
face $-1 $60 $61 $32 $-1 $62 reversed single #
face $-1 $63 $64 $33 $-1 $65 forward single #
face $-1 $66 $67 $34 $-1 $68 reversed single #
face $-1 $69 $70 $35 $-1 $71 forward single #
face $-1 $72 $73 $27 $-1 $74 reversed single #
loop $-1 $-1 $75 $36 #
plane-surface $-1 0 0 11.687653517971119 0 0 1 1 0 0 forward_v I I I I #
face $-1 $76 $77 $28 $-1 $78 reversed single #
loop $-1 $-1 $79 $37 #
plane-surface $-1 -35.453855086223705 0 -7.6467151743603266 0 0 1 1 0 0 forward_v I I I I #
face $-1 $80 $81 $29 $-1 $82 reversed single #
loop $-1 $-1 $83 $38 #
plane-surface $-1 35.453855086223712 0 -7.6467151743603266 0 0 1 1 0 0 forward_v I I I I #
face $-1 $84 $85 $30 $-1 $86 reversed single #
loop $-1 $-1 $87 $39 #
plane-surface $-1 19.598249053515751 -91.057618574988425 52.578770560579891 1 0 0 0 0.77714596973225614 -0.62932038083071107 forward_v I I I I #
face $-1 $88 $89 $31 $-1 $90 forward single #
loop $-1 $91 $92 $40 #
cone-surface $-1 24.766514571934195 -21.007222352741522 4.6940262231602503 0 0.77714596973225614 -0.62932038083071107 2.5 0 0 1 I I 0 1 2.5 forward I I I I #
face $-1 $93 $94 $32 $-1 $95 reversed single #
loop $-1 $-1 $96 $41 #
plane-surface $-1 -4.1339543540763586 63.097998110932345 95.612542870747347 -1 0 0 0 0.81915205242281985 0.57357642473473569 forward_v I I I I #
face $-1 $97 $98 $33 $-1 $99 forward single #
loop $-1 $100 $101 $42 #
cone-surface $-1 -7.403246990095937 23.988248309595228 7.2976984459971277 0 -0.81915205242281985 -0.57357642473473569 1 0 0 1 I I 0 1 1 forward I I I I #
face $-1 $102 $103 $34 $-1 $104 reversed single #
loop $-1 $-1 $105 $43 #
plane-surface $-1 25.800825736276259 63.097998110932345 95.612542870747347 -1 0 0 0 0.81915205242281985 0.57357642473473569 forward_v I I I I #
face $-1 $106 $107 $35 $-1 $108 forward single #
loop $-1 $109 $110 $44 #
cone-surface $-1 22.531533100256681 23.988248309595228 7.2976984459971277 0 -0.81915205242281985 -0.57357642473473569 1 0 0 1 I I 0 1 1 forward I I I I #
face $-1 $111 $112 $27 $-1 $113 reversed single #
loop $-1 $-1 $114 $45 #
plane-surface $-1 0 0 -11.687653517971119 0 0 1 1 0 0 forward_v I I I I #
coedge $-1 $115 $116 $117 $118 forward $46 $-1 #
face $-1 $119 $120 $28 $-1 $121 reversed single #
loop $-1 $-1 $122 $48 #
plane-surface $-1 -29.934780090352618 0 -9.6671843461657225 -1 0 0 0 0 1 forward_v I I I I #
coedge $-1 $123 $124 $125 $126 forward $49 $-1 #
face $-1 $127 $128 $29 $-1 $129 reversed single #
loop $-1 $-1 $130 $51 #
plane-surface $-1 29.934780090352625 0 -9.6671843461657225 1 0 0 0 0 -1 forward_v I I I I #
coedge $-1 $131 $132 $133 $134 reversed $52 $-1 #
face $-1 $135 $136 $30 $-1 $137 reversed single #
loop $-1 $-1 $138 $54 #
plane-surface $-1 24.766514571934181 -27.373723612145454 1.0085706345519085 0 -0.77714596973225614 0.62932038083071107 1 0 0 forward_v I I I I #
coedge $-1 $139 $140 $141 $142 reversed $55 $-1 #
face $-1 $-1 $143 $31 $-1 $144 forward single #
loop $-1 $145 $146 $57 #
cone-surface $-1 24.766514571934195 -17.993163918997222 2.2532898940206021 0 0.77714596973225614 -0.62932038083071107 1.25 0 0 1 I I -0.70710678118654746 0.70710678118654746 1.25 forward I I I I #
loop $-1 $-1 $147 $40 #
coedge $-1 $92 $92 $148 $149 reversed $58 $-1 #
face $-1 $150 $151 $32 $-1 $152 reversed single #
loop $-1 $-1 $153 $60 #
plane-surface $-1 -7.403246990095937 -4.028121430116947 48.610329375958884 0 0.81915205242281985 0.57357642473473569 1 0 0 forward_v I I I I #
coedge $-1 $154 $155 $156 $157 reversed $61 $-1 #
face $-1 $-1 $158 $33 $-1 $159 forward single #
loop $-1 $160 $161 $63 #
cone-surface $-1 -7.403246990095937 22.96735190880203 6.5828591120058437 0 -0.81915205242281985 -0.57357642473473569 0.5 0 0 1 I I -0.70710678118654746 0.70710678118654746 0.5 forward I I I I #
loop $-1 $-1 $162 $42 #
coedge $-1 $101 $101 $163 $164 reversed $64 $-1 #
face $-1 $165 $166 $34 $-1 $167 reversed single #
loop $-1 $-1 $168 $66 #
plane-surface $-1 22.531533100256681 -4.028121430116947 48.610329375958884 0 0.81915205242281985 0.57357642473473569 1 0 0 forward_v I I I I #
coedge $-1 $169 $170 $171 $172 reversed $67 $-1 #
face $-1 $-1 $173 $35 $-1 $174 forward single #
loop $-1 $175 $176 $69 #
cone-surface $-1 22.531533100256681 22.96735190880203 6.5828591120058437 0 -0.81915205242281985 -0.57357642473473569 0.5 0 0 1 I I -0.70710678118654746 0.70710678118654746 0.5 forward I I I I #
loop $-1 $-1 $177 $44 #
coedge $-1 $110 $110 $178 $179 reversed $70 $-1 #
face $-1 $180 $181 $27 $-1 $182 reversed single #
loop $-1 $-1 $183 $72 #
plane-surface $-1 0 -27.373723612145447 0 0 1 0 0 0 1 forward_v I I I I #
coedge $-1 $184 $185 $186 $187 forward $73 $-1 #
coedge $-1 $188 $75 $189 $190 forward $46 $-1 #
coedge $-1 $75 $188 $191 $192 forward $46 $-1 #
coedge $-1 $193 $194 $75 $118 reversed $195 $-1 #
edge $-1 $196 -27.373723612145447 $197 27.373723612145447 $117 $198 forward 7 unknown #
face $-1 $199 $200 $28 $-1 $201 reversed single #
loop $-1 $-1 $202 $76 #
plane-surface $-1 0 0 -11.687653517971119 0 0 1 1 0 0 forward_v I I I I #
coedge $-1 $203 $125 $204 $205 reversed $77 $-1 #
coedge $-1 $206 $79 $207 $208 reversed $49 $-1 #
coedge $-1 $79 $206 $209 $210 reversed $49 $-1 #
coedge $-1 $122 $211 $79 $126 reversed $77 $-1 #
edge $-1 $212 -27.373723612145447 $213 27.373723612145447 $125 $214 forward 7 unknown #
face $-1 $215 $216 $29 $-1 $217 reversed single #
loop $-1 $-1 $218 $80 #
plane-surface $-1 0 -27.373723612145447 0 0 1 0 0 0 1 forward_v I I I I #
coedge $-1 $219 $220 $221 $222 reversed $81 $-1 #
coedge $-1 $223 $83 $224 $225 reversed $52 $-1 #
coedge $-1 $83 $223 $218 $226 reversed $52 $-1 #
coedge $-1 $227 $228 $83 $134 forward $229 $-1 #
edge $-1 $230 -27.373723612145447 $231 27.373723612145447 $133 $232 forward 7 unknown #
face $-1 $233 $234 $30 $-1 $235 forward single #
loop $-1 $-1 $236 $84 #
plane-surface $-1 29.934780090352611 -91.057618574988425 52.578770560579891 -1 0 0 0 -0.77714596973225614 0.62932038083071107 forward_v I I I I #
coedge $-1 $237 $238 $239 $240 reversed $85 $-1 #
coedge $-1 $140 $87 $241 $242 reversed $55 $-1 #
coedge $-1 $87 $139 $237 $243 reversed $55 $-1 #
coedge $-1 $239 $244 $87 $142 forward $245 $-1 #
edge $-1 $246 14.601731762318826 $247 25.280814645738026 $141 $248 forward 7 unknown #
loop $-1 $-1 $148 $88 #
plane-surface $-1 24.766514571934181 -27.373723612145454 1.0085706345519085 0 -0.77714596973225614 0.62932038083071107 1 0 0 forward_v I I I I #
loop $-1 $-1 $249 $57 #
coedge $-1 $146 $146 $147 $250 reversed $89 $-1 #
coedge $-1 $147 $147 $146 $250 forward $91 $-1 #
coedge $-1 $148 $148 $92 $149 forward $143 $-1 #
edge $-1 $251 1.9807474500702948e-016 $251 6.2831853071796004 $148 $252 forward 7 unknown #
face $-1 $253 $254 $32 $-1 $255 reversed single #
loop $-1 $-1 $256 $93 #
plane-surface $-1 -10.672539626115515 63.097998110932345 95.612542870747347 1 0 0 0 -0.81915205242281985 -0.57357642473473569 forward_v I I I I #
coedge $-1 $257 $258 $259 $260 reversed $94 $-1 #
coedge $-1 $155 $96 $261 $262 reversed $61 $-1 #
coedge $-1 $96 $154 $257 $263 reversed $61 $-1 #
coedge $-1 $259 $264 $96 $157 forward $254 $-1 #
edge $-1 $265 36.118617917402553 $266 44.042425818102679 $156 $267 forward 7 unknown #
loop $-1 $-1 $163 $97 #
plane-surface $-1 -7.403246990095937 -4.028121430116947 48.610329375958884 0 0.81915205242281985 0.57357642473473569 1 0 0 forward_v I I I I #
loop $-1 $-1 $268 $63 #
coedge $-1 $161 $161 $162 $269 reversed $98 $-1 #
coedge $-1 $162 $162 $161 $269 forward $100 $-1 #
coedge $-1 $163 $163 $101 $164 forward $158 $-1 #
edge $-1 $270 4.3472014875738356e-016 $270 6.2831853071796004 $163 $271 forward 7 unknown #
face $-1 $272 $273 $34 $-1 $274 reversed single #
loop $-1 $-1 $275 $102 #
plane-surface $-1 19.262240464237102 63.097998110932345 95.612542870747347 1 0 0 0 -0.81915205242281985 -0.57357642473473569 forward_v I I I I #
coedge $-1 $276 $277 $278 $279 reversed $103 $-1 #
coedge $-1 $170 $105 $280 $281 reversed $67 $-1 #
coedge $-1 $105 $169 $276 $282 reversed $67 $-1 #
coedge $-1 $278 $283 $105 $172 forward $273 $-1 #
edge $-1 $284 36.118617917402553 $285 44.042425818102679 $171 $286 forward 7 unknown #
loop $-1 $-1 $178 $106 #
plane-surface $-1 22.531533100256681 -4.028121430116947 48.610329375958884 0 0.81915205242281985 0.57357642473473569 1 0 0 forward_v I I I I #
loop $-1 $-1 $287 $69 #
coedge $-1 $176 $176 $177 $288 reversed $107 $-1 #
coedge $-1 $177 $177 $176 $288 forward $109 $-1 #
coedge $-1 $178 $178 $110 $179 forward $173 $-1 #
edge $-1 $289 4.3472014875738356e-016 $289 6.2831853071796004 $178 $290 forward 7 unknown #
face $-1 $291 $292 $27 $-1 $293 reversed single #
loop $-1 $-1 $294 $111 #
plane-surface $-1 -40.972930082094791 0 0 1 0 0 0 0 -1 forward_v I I I I #
coedge $-1 $295 $191 $296 $297 forward $112 $-1 #
coedge $-1 $298 $114 $295 $299 forward $73 $-1 #
coedge $-1 $114 $298 $300 $301 forward $73 $-1 #
coedge $-1 $194 $193 $114 $187 reversed $195 $-1 #
edge $-1 $302 -27.373723612145447 $303 27.373723612145447 $186 $304 forward 7 unknown #
coedge $-1 $116 $115 $305 $306 forward $46 $-1 #
coedge $-1 $307 $308 $115 $190 reversed $292 $-1 #
edge $-1 $197 -40.972930082094791 $309 40.972930082094791 $189 $310 forward 7 unknown #
coedge $-1 $183 $311 $116 $192 reversed $112 $-1 #
edge $-1 $312 -40.972930082094791 $196 40.972930082094791 $191 $313 forward 7 unknown #
coedge $-1 $186 $117 $311 $314 forward $195 $-1 #
coedge $-1 $117 $186 $307 $315 reversed $195 $-1 #
loop $-1 $-1 $193 $291 #
vertex $-1 $118 $316 #
vertex $-1 $118 $317 #
straight-curve $-1 40.972930082094791 0 11.687653517971119 0 1 0 I I #
face $-1 $318 $319 $28 $-1 $320 reversed single #
loop $-1 $-1 $204 $119 #
plane-surface $-1 0 -27.373723612145447 0 0 1 0 0 0 1 forward_v I I I I #
coedge $-1 $321 $322 $203 $323 forward $120 $-1 #
coedge $-1 $211 $122 $202 $323 reversed $77 $-1 #
coedge $-1 $209 $324 $122 $205 forward $200 $-1 #
edge $-1 $325 -6.8540613448882564 $212 -2.8131230012774653 $204 $326 forward 7 unknown #
coedge $-1 $124 $123 $327 $328 reversed $49 $-1 #
coedge $-1 $329 $330 $123 $208 forward $331 $-1 #
edge $-1 $332 -23.246002538982939 $213 -12.207852547240766 $207 $333 forward 7 unknown #
coedge $-1 $334 $204 $124 $210 forward $200 $-1 #
edge $-1 $212 12.207852547240766 $335 23.246002538982939 $209 $336 forward 7 unknown #
coedge $-1 $125 $203 $329 $337 reversed $77 $-1 #
vertex $-1 $210 $338 #
vertex $-1 $208 $339 #
straight-curve $-1 -29.934780090352618 0 -7.6467151743603266 0 1 0 I I #
face $-1 $340 $341 $29 $-1 $342 reversed single #
loop $-1 $-1 $343 $127 #
plane-surface $-1 0 0 -11.687653517971119 0 0 1 1 0 0 forward_v I I I I #
coedge $-1 $344 $345 $132 $226 forward $128 $-1 #
coedge $-1 $346 $130 $343 $347 reversed $81 $-1 #
coedge $-1 $130 $346 $223 $348 reversed $81 $-1 #
coedge $-1 $224 $349 $130 $222 forward $341 $-1 #
edge $-1 $350 -6.8540613448882564 $351 -2.8131230012774653 $221 $352 forward 7 unknown #
coedge $-1 $132 $131 $220 $348 forward $52 $-1 #
coedge $-1 $353 $221 $131 $225 forward $341 $-1 #
edge $-1 $351 12.207852547240769 $230 23.246002538982943 $224 $354 forward 7 unknown #
edge $-1 $231 -23.246002538982943 $355 -12.207852547240769 $218 $356 forward 7 unknown #
coedge $-1 $357 $133 $345 $358 forward $229 $-1 #
coedge $-1 $133 $357 $353 $359 reversed $229 $-1 #
loop $-1 $-1 $133 $340 #
vertex $-1 $359 $360 #
vertex $-1 $358 $361 #
straight-curve $-1 40.972930082094791 0 -7.6467151743603266 0 -1 0 I I #
face $-1 $-1 $245 $30 $-1 $362 reversed single #
loop $-1 $-1 $363 $135 #
plane-surface $-1 0 0 11.687653517971119 0 0 1 1 0 0 forward_v I I I I #
coedge $-1 $364 $365 $366 $367 reversed $136 $-1 #
coedge $-1 $368 $138 $140 $243 forward $85 $-1 #
coedge $-1 $138 $368 $364 $369 forward $85 $-1 #
coedge $-1 $366 $141 $138 $240 forward $245 $-1 #
edge $-1 $247 7.2149917675486606 $370 17.55152280438552 $239 $371 forward 7 unknown #
coedge $-1 $372 $373 $139 $242 forward $234 $-1 #
edge $-1 $374 -26.802836250998645 $246 -18.155085675348765 $241 $375 forward 7 unknown #
edge $-1 $247 1.1374033043381581e-014 $374 13.741411908882949 $140 $376 forward 7 unknown #
coedge $-1 $141 $366 $372 $377 reversed $245 $-1 #
loop $-1 $-1 $366 $233 #
vertex $-1 $377 $378 #
vertex $-1 $142 $379 #
straight-curve $-1 19.598249053515751 -27.373723612145447 26.289385280289945 0 0 -1 I I #
coedge $-1 $249 $249 $-1 $380 reversed $145 $-1 #
edge $-1 $381 0 $381 6.2831853071796004 $146 $382 forward 7 unknown #
vertex $-1 $149 $383 #
ellipse-curve $-1 24.766514571934195 -23.049848324320511 6.3481120762615166 0 -0.77714596973225614 0.62932038083071107 2.5 0 0 1 I I #
face $-1 $-1 $384 $32 $-1 $385 forward single #
loop $-1 $-1 $156 $150 #
plane-surface $-1 0 27.373723612145447 0 0 -1 0 0 0 -1 forward_v I I I I #
coedge $-1 $386 $387 $388 $389 reversed $151 $-1 #
coedge $-1 $390 $153 $155 $263 forward $94 $-1 #
coedge $-1 $153 $390 $386 $391 forward $94 $-1 #
coedge $-1 $388 $156 $153 $260 forward $254 $-1 #
edge $-1 $266 0.43233085902839008 $392 6.9709161310675469 $259 $393 forward 7 unknown #
coedge $-1 $394 $395 $154 $262 forward $384 $-1 #
edge $-1 $396 -9.7235852992575751 $265 -4.1752754433207251 $261 $397 forward 7 unknown #
edge $-1 $266 -54.747447224290887 $396 -45.074263988939471 $155 $398 forward 7 unknown #
coedge $-1 $156 $388 $394 $399 reversed $254 $-1 #
vertex $-1 $399 $400 #
vertex $-1 $157 $401 #
straight-curve $-1 -4.1339543540763586 27.373723612145447 47.806271435373674 0 0 -1 I I #
coedge $-1 $268 $268 $-1 $402 reversed $160 $-1 #
edge $-1 $403 0 $403 6.2831853071796004 $161 $404 forward 7 unknown #
vertex $-1 $164 $405 #
ellipse-curve $-1 -7.403246990095937 24.599568684177026 7.7257495676210519 0 0.81915205242281985 0.57357642473473569 1 0 0 1 I I #
face $-1 $-1 $406 $34 $-1 $407 forward single #
loop $-1 $-1 $171 $165 #
plane-surface $-1 0 27.373723612145447 0 0 -1 0 0 0 -1 forward_v I I I I #
coedge $-1 $408 $409 $410 $411 reversed $166 $-1 #
coedge $-1 $412 $168 $170 $282 forward $103 $-1 #
coedge $-1 $168 $412 $408 $413 forward $103 $-1 #
coedge $-1 $410 $171 $168 $279 forward $273 $-1 #
edge $-1 $285 -14.535059186147919 $414 -7.996473914108762 $278 $415 forward 7 unknown #
coedge $-1 $416 $417 $169 $281 forward $406 $-1 #
edge $-1 $418 -9.7235852992575751 $284 -4.1752754433207251 $280 $419 forward 7 unknown #
edge $-1 $285 -54.747447224290887 $418 -45.074263988939471 $170 $420 forward 7 unknown #
coedge $-1 $171 $410 $416 $421 reversed $273 $-1 #
vertex $-1 $421 $422 #
vertex $-1 $172 $423 #
straight-curve $-1 25.800825736276259 27.373723612145447 47.806271435373674 0 0 -1 I I #
coedge $-1 $287 $287 $-1 $424 reversed $175 $-1 #
edge $-1 $425 0 $425 6.2831853071796004 $176 $426 forward 7 unknown #
vertex $-1 $179 $427 #
ellipse-curve $-1 22.531533100256681 24.599568684177026 7.7257495676210519 0 0.81915205242281985 0.57357642473473569 1 0 0 1 I I #
face $-1 $-1 $195 $27 $-1 $428 reversed single #
loop $-1 $-1 $307 $180 #
plane-surface $-1 0 27.373723612145447 0 0 -1 0 0 0 -1 forward_v I I I I #
coedge $-1 $429 $305 $308 $430 forward $181 $-1 #
coedge $-1 $311 $183 $184 $299 reversed $112 $-1 #
coedge $-1 $305 $429 $183 $297 reversed $181 $-1 #
edge $-1 $312 -11.687653517971119 $431 11.687653517971119 $296 $432 forward 7 unknown #
coedge $-1 $185 $184 $429 $433 forward $73 $-1 #
edge $-1 $303 -40.972930082094791 $431 40.972930082094791 $295 $434 forward 7 unknown #
coedge $-1 $308 $307 $185 $301 reversed $292 $-1 #
edge $-1 $435 -40.972930082094791 $302 40.972930082094791 $300 $436 forward 7 unknown #
vertex $-1 $187 $437 #
vertex $-1 $314 $438 #
straight-curve $-1 40.972930082094791 0 -11.687653517971119 0 -1 0 I I #
coedge $-1 $294 $296 $188 $306 reversed $181 $-1 #
edge $-1 $309 -27.373723612145447 $312 27.373723612145447 $305 $439 forward 7 unknown #
coedge $-1 $300 $189 $194 $315 forward $292 $-1 #
coedge $-1 $189 $300 $294 $430 reversed $292 $-1 #
vertex $-1 $190 $440 #
straight-curve $-1 0 27.373723612145447 11.687653517971119 -1 0 0 I I #
coedge $-1 $191 $295 $193 $314 reversed $112 $-1 #
vertex $-1 $306 $441 #
straight-curve $-1 0 -27.373723612145447 11.687653517971119 1 0 0 I I #
edge $-1 $196 -11.687653517971119 $303 11.687653517971119 $193 $442 forward 7 unknown #
edge $-1 $197 -11.687653517971119 $302 11.687653517971119 $194 $443 forward 7 unknown #
point $-1 40.972930082094791 -27.373723612145447 11.687653517971119 #
point $-1 40.972930082094791 27.373723612145447 11.687653517971119 #
face $-1 $-1 $331 $28 $-1 $444 reversed single #
loop $-1 $-1 $327 $199 #
plane-surface $-1 -40.972930082094791 0 0 1 0 0 0 0 -1 forward_v I I I I #
coedge $-1 $445 $202 $324 $446 forward $120 $-1 #
coedge $-1 $202 $445 $447 $448 forward $120 $-1 #
edge $-1 $449 -27.373723612145447 $325 27.373723612145447 $202 $450 forward 7 unknown #
coedge $-1 $204 $334 $321 $446 reversed $200 $-1 #
vertex $-1 $446 $451 #
straight-curve $-1 -29.934780090352618 -27.373723612145447 -4.8335921730828613 0 0 1 I I #
coedge $-1 $452 $453 $206 $328 forward $319 $-1 #
edge $-1 $335 -27.373723612145447 $332 27.373723612145447 $327 $454 forward 7 unknown #
coedge $-1 $447 $207 $211 $337 forward $331 $-1 #
coedge $-1 $207 $447 $452 $455 reversed $331 $-1 #
loop $-1 $-1 $329 $318 #
vertex $-1 $455 $456 #
straight-curve $-1 -17.726927543111852 27.373723612145447 -7.6467151743603266 1 0 0 I I #
coedge $-1 $324 $209 $453 $457 forward $200 $-1 #
vertex $-1 $457 $458 #
straight-curve $-1 -17.726927543111852 -27.373723612145447 -7.6467151743603266 -1 0 0 I I #
edge $-1 $213 2.8131230012774653 $449 6.8540613448882564 $329 $459 forward 7 unknown #
point $-1 -29.934780090352618 -27.373723612145447 -7.6467151743603266 #
point $-1 -29.934780090352618 27.373723612145447 -7.6467151743603266 #
face $-1 $-1 $229 $29 $-1 $460 reversed single #
loop $-1 $-1 $224 $215 #
plane-surface $-1 0 27.373723612145447 0 0 -1 0 0 0 -1 forward_v I I I I #
coedge $-1 $461 $462 $219 $347 forward $216 $-1 #
coedge $-1 $463 $218 $346 $464 forward $128 $-1 #
coedge $-1 $218 $463 $227 $358 reversed $128 $-1 #
coedge $-1 $220 $219 $344 $464 reversed $81 $-1 #
edge $-1 $465 -27.373723612145447 $350 27.373723612145447 $343 $466 forward 7 unknown #
edge $-1 $351 -27.373723612145447 $355 27.373723612145447 $220 $467 forward 7 unknown #
coedge $-1 $221 $353 $461 $468 reversed $341 $-1 #
vertex $-1 $468 $469 #
vertex $-1 $225 $470 #
straight-curve $-1 29.934780090352625 27.373723612145447 -4.8335921730828613 0 0 1 I I #
coedge $-1 $349 $224 $228 $359 forward $341 $-1 #
straight-curve $-1 17.726927543111856 27.373723612145447 -7.6467151743603266 1 0 0 I I #
vertex $-1 $226 $471 #
straight-curve $-1 17.726927543111856 -27.373723612145447 -7.6467151743603266 -1 0 0 I I #
coedge $-1 $228 $227 $472 $473 reversed $229 $-1 #
edge $-1 $231 7.6467151743603266 $474 11.687653517971119 $227 $475 forward 7 unknown #
edge $-1 $230 7.6467151743603266 $476 11.687653517971119 $228 $477 forward 7 unknown #
point $-1 40.972930082094798 27.373723612145447 -7.6467151743603266 #
point $-1 40.972930082094798 -27.373723612145447 -7.6467151743603266 #
plane-surface $-1 0 -27.373723612145447 0 0 1 0 0 0 1 forward_v I I I I #
coedge $-1 $373 $372 $365 $478 forward $234 $-1 #
coedge $-1 $365 $236 $238 $369 reversed $136 $-1 #
coedge $-1 $236 $364 $363 $478 reversed $136 $-1 #
coedge $-1 $244 $239 $236 $367 forward $245 $-1 #
edge $-1 $370 -25.280814645738026 $479 -14.601731762318826 $366 $480 forward 7 unknown #
coedge $-1 $238 $237 $373 $481 reversed $85 $-1 #
edge $-1 $482 -13.741411908882949 $370 -1.1374033043381581e-014 $364 $483 forward 7 unknown #
vertex $-1 $240 $484 #
straight-curve $-1 12.38325728596709 -27.373723612145447 1.0085706345519163 1 0 0 I I #
coedge $-1 $363 $241 $244 $377 forward $234 $-1 #
coedge $-1 $241 $363 $368 $481 forward $234 $-1 #
vertex $-1 $242 $485 #
straight-curve $-1 19.598249053515751 -45.528809287494212 11.687653517971121 0 -1 0 I I #
straight-curve $-1 19.598249053515751 -27.373723612145454 1.0085706345519085 0 0.62932038083071107 0.77714596973225614 I I #
edge $-1 $246 19.598249053515751 $479 29.934780090352611 $244 $486 forward 7 unknown #
point $-1 19.598249053515751 -27.373723612145447 11.687653517971119 #
point $-1 19.598249053515751 -27.373723612145447 1.0085706345519174 #
edge $-1 $487 1 $487 0 $249 $-1 forward 7 unknown #
vertex $-1 $250 $488 #
ellipse-curve $-1 24.766514571934195 -18.964596381162544 3.0399403700589911 0 -0.77714596973225614 0.62932038083071107 2.5 0 0 1 I I #
point $-1 27.266514571934195 -23.0498483243205 6.3481120762615086 #
loop $-1 $-1 $261 $253 #
plane-surface $-1 0 0 11.687653517971119 0 0 1 1 0 0 forward_v I I I I #
coedge $-1 $387 $256 $258 $391 reversed $151 $-1 #
coedge $-1 $256 $386 $489 $490 reversed $151 $-1 #
coedge $-1 $264 $259 $256 $389 forward $254 $-1 #
edge $-1 $392 -44.042425818102679 $491 -36.118617917402553 $388 $492 forward 7 unknown #
coedge $-1 $258 $257 $395 $493 reversed $94 $-1 #
edge $-1 $494 45.074263988939471 $392 54.747447224290887 $386 $495 forward 7 unknown #
vertex $-1 $260 $496 #
straight-curve $-1 -3.7016234950479685 27.373723612145447 3.7638456172709915 -1 0 0 I I #
coedge $-1 $489 $261 $264 $399 forward $384 $-1 #
coedge $-1 $261 $489 $390 $493 forward $384 $-1 #
vertex $-1 $262 $497 #
straight-curve $-1 -4.1339543540763586 31.548999055466172 11.687653517971121 0 1 0 I I #
straight-curve $-1 -4.1339543540763586 -4.028121430116947 48.610329375958884 0 -0.57357642473473569 0.81915205242281985 I I #
edge $-1 $265 4.1339543540763586 $491 10.672539626115515 $264 $498 forward 7 unknown #
point $-1 -4.1339543540763586 27.373723612145447 11.687653517971119 #
point $-1 -4.1339543540763586 27.373723612145444 3.7638456172709951 #
edge $-1 $499 1 $499 0 $268 $-1 forward 7 unknown #
vertex $-1 $269 $500 #
ellipse-curve $-1 -7.403246990095937 23.376927935013441 6.8696473243732115 0 0.81915205242281985 0.57357642473473569 1 0 0 1 I I #
point $-1 -6.403246990095937 24.599568684177015 7.7257495676210439 #
loop $-1 $-1 $280 $272 #
plane-surface $-1 0 0 11.687653517971119 0 0 1 1 0 0 forward_v I I I I #
coedge $-1 $409 $275 $277 $413 reversed $166 $-1 #
coedge $-1 $275 $408 $501 $502 reversed $166 $-1 #
coedge $-1 $283 $278 $275 $411 forward $273 $-1 #
edge $-1 $414 -44.042425818102679 $503 -36.118617917402553 $410 $504 forward 7 unknown #
coedge $-1 $277 $276 $417 $505 reversed $103 $-1 #
edge $-1 $506 45.074263988939471 $414 54.747447224290887 $408 $507 forward 7 unknown #
vertex $-1 $279 $508 #
straight-curve $-1 11.26576655012834 27.373723612145447 3.7638456172709915 -1 0 0 I I #
coedge $-1 $501 $280 $283 $421 forward $406 $-1 #
coedge $-1 $280 $501 $412 $505 forward $406 $-1 #
vertex $-1 $281 $509 #
straight-curve $-1 25.800825736276259 31.548999055466172 11.687653517971121 0 1 0 I I #
straight-curve $-1 25.800825736276259 -4.028121430116947 48.610329375958884 0 -0.57357642473473569 0.81915205242281985 I I #
edge $-1 $284 -25.800825736276259 $503 -19.262240464237102 $283 $510 forward 7 unknown #
point $-1 25.800825736276259 27.373723612145447 11.687653517971119 #
point $-1 25.800825736276259 27.373723612145444 3.7638456172709951 #
edge $-1 $511 1 $511 0 $287 $-1 forward 7 unknown #
vertex $-1 $288 $512 #
ellipse-curve $-1 22.531533100256681 23.376927935013441 6.8696473243732115 0 0.81915205242281985 0.57357642473473569 1 0 0 1 I I #
point $-1 23.531533100256681 24.599568684177015 7.7257495676210439 #
plane-surface $-1 40.972930082094791 0 0 -1 0 0 0 0 1 forward_v I I I I #
coedge $-1 $296 $294 $298 $433 reversed $181 $-1 #
edge $-1 $309 -11.687653517971119 $435 11.687653517971119 $308 $513 forward 7 unknown #
vertex $-1 $433 $514 #
straight-curve $-1 -40.972930082094791 -27.373723612145447 0 0 0 -1 I I #
edge $-1 $431 -27.373723612145447 $435 27.373723612145447 $429 $515 forward 7 unknown #
straight-curve $-1 0 -27.373723612145447 -11.687653517971119 -1 0 0 I I #
vertex $-1 $301 $516 #
straight-curve $-1 0 27.373723612145447 -11.687653517971119 1 0 0 I I #
point $-1 40.972930082094791 27.373723612145447 -11.687653517971119 #
point $-1 40.972930082094791 -27.373723612145447 -11.687653517971119 #
straight-curve $-1 -40.972930082094791 0 11.687653517971119 0 -1 0 I I #
point $-1 -40.972930082094791 27.373723612145447 11.687653517971119 #
point $-1 -40.972930082094791 -27.373723612145447 11.687653517971119 #
straight-curve $-1 40.972930082094791 -27.373723612145447 0 0 0 -1 I I #
straight-curve $-1 40.972930082094791 27.373723612145447 0 0 0 -1 I I #
plane-surface $-1 0 27.373723612145447 0 0 -1 0 0 0 -1 forward_v I I I I #
coedge $-1 $322 $321 $517 $518 forward $120 $-1 #
edge $-1 $325 29.934780090352618 $519 40.972930082094791 $324 $520 forward 7 unknown #
coedge $-1 $330 $329 $322 $448 reversed $331 $-1 #
edge $-1 $521 -40.972930082094791 $449 -29.934780090352618 $447 $522 forward 7 unknown #
vertex $-1 $337 $523 #
straight-curve $-1 -29.934780090352618 0 -11.687653517971119 0 -1 0 I I #
point $-1 -29.934780090352618 -27.373723612145447 -11.687653517971118 #
coedge $-1 $517 $327 $330 $455 forward $319 $-1 #
coedge $-1 $327 $517 $334 $457 reversed $319 $-1 #
straight-curve $-1 -40.972930082094791 0 -7.6467151743603266 0 1 0 I I #
edge $-1 $332 7.6467151743603266 $521 11.687653517971119 $330 $524 forward 7 unknown #
point $-1 -40.972930082094791 27.373723612145447 -7.6467151743603266 #
edge $-1 $335 7.6467151743603266 $519 11.687653517971119 $453 $525 forward 7 unknown #
point $-1 -40.972930082094791 -27.373723612145447 -7.6467151743603266 #
straight-curve $-1 -29.934780090352618 27.373723612145447 -4.8335921730828613 0 0 -1 I I #
plane-surface $-1 40.972930082094791 0 0 -1 0 0 0 0 1 forward_v I I I I #
coedge $-1 $472 $343 $349 $468 forward $216 $-1 #
coedge $-1 $343 $472 $463 $526 forward $216 $-1 #
coedge $-1 $345 $344 $462 $526 reversed $128 $-1 #
edge $-1 $355 2.8131230012774653 $465 6.8540613448882564 $344 $527 forward 7 unknown #
vertex $-1 $347 $528 #
straight-curve $-1 29.934780090352625 0 -11.687653517971119 0 1 0 I I #
straight-curve $-1 29.934780090352625 0 -7.6467151743603266 0 -1 0 I I #
edge $-1 $350 29.934780090352625 $476 40.972930082094791 $349 $529 forward 7 unknown #
point $-1 29.934780090352625 27.373723612145447 -11.687653517971118 #
point $-1 29.934780090352625 27.373723612145447 -7.6467151743603266 #
point $-1 29.934780090352625 -27.373723612145447 -7.6467151743603266 #
coedge $-1 $462 $461 $357 $473 forward $216 $-1 #
edge $-1 $476 -27.373723612145447 $474 27.373723612145447 $357 $530 forward 7 unknown #
vertex $-1 $358 $531 #
straight-curve $-1 40.972930082094791 -27.373723612145447 0 0 0 -1 I I #
vertex $-1 $473 $532 #
straight-curve $-1 40.972930082094791 27.373723612145447 0 0 0 -1 I I #
edge $-1 $479 18.155085675348765 $482 26.802836250998645 $363 $533 forward 7 unknown #
vertex $-1 $478 $534 #
straight-curve $-1 29.934780090352611 -27.373723612145447 26.289385280289945 0 0 1 I I #
edge $-1 $482 -17.55152280438552 $374 -7.2149917675486606 $373 $535 forward 7 unknown #
vertex $-1 $481 $536 #
straight-curve $-1 29.934780090352611 -27.373723612145454 1.0085706345519085 0 -0.62932038083071107 -0.77714596973225614 I I #
point $-1 29.934780090352611 -27.373723612145447 1.0085706345519174 #
point $-1 19.598249053515751 -18.725973036495567 11.687653517971119 #
straight-curve $-1 0 -27.373723612145447 11.687653517971119 1 0 0 I I #
vertex $-1 $380 $537 #
point $-1 27.266514571934195 -18.964596381162544 3.0399403700589911 #
coedge $-1 $395 $394 $387 $490 forward $384 $-1 #
edge $-1 $491 4.1752754433207251 $494 9.7235852992575751 $489 $538 forward 7 unknown #
vertex $-1 $490 $539 #
straight-curve $-1 -10.672539626115515 27.373723612145447 47.806271435373674 0 0 1 I I #
edge $-1 $494 -6.9709161310675469 $396 -0.43233085902839008 $395 $540 forward 7 unknown #
vertex $-1 $493 $541 #
straight-curve $-1 -10.672539626115515 -4.028121430116947 48.610329375958884 0 0.57357642473473569 -0.81915205242281985 I I #
point $-1 -10.672539626115515 27.373723612145444 3.7638456172709951 #
point $-1 -4.1339543540763586 21.825413756208597 11.687653517971121 #
straight-curve $-1 0 27.373723612145447 11.687653517971119 -1 0 0 I I #
vertex $-1 $402 $542 #
point $-1 -6.403246990095937 23.376927935013441 6.8696473243732115 #
coedge $-1 $417 $416 $409 $502 forward $406 $-1 #
edge $-1 $503 4.1752754433207251 $506 9.7235852992575751 $501 $543 forward 7 unknown #
vertex $-1 $502 $544 #
straight-curve $-1 19.262240464237102 27.373723612145447 47.806271435373674 0 0 1 I I #
edge $-1 $506 7.996473914108762 $418 14.535059186147919 $417 $545 forward 7 unknown #
vertex $-1 $505 $546 #
straight-curve $-1 19.262240464237102 -4.028121430116947 48.610329375958884 0 0.57357642473473569 -0.81915205242281985 I I #
point $-1 19.262240464237102 27.373723612145444 3.7638456172709951 #
point $-1 25.800825736276259 21.825413756208597 11.687653517971121 #
straight-curve $-1 0 27.373723612145447 11.687653517971119 -1 0 0 I I #
vertex $-1 $424 $547 #
point $-1 23.531533100256681 23.376927935013441 6.8696473243732115 #
straight-curve $-1 -40.972930082094791 27.373723612145447 0 0 0 -1 I I #
point $-1 -40.972930082094791 -27.373723612145447 -11.687653517971119 #
straight-curve $-1 -40.972930082094791 0 -11.687653517971119 0 1 0 I I #
point $-1 -40.972930082094791 27.373723612145447 -11.687653517971119 #
coedge $-1 $453 $452 $445 $518 reversed $319 $-1 #
edge $-1 $519 -27.373723612145447 $521 27.373723612145447 $517 $548 forward 7 unknown #
vertex $-1 $518 $549 #
straight-curve $-1 0 -27.373723612145447 -11.687653517971119 -1 0 0 I I #
vertex $-1 $448 $550 #
straight-curve $-1 0 27.373723612145447 -11.687653517971119 1 0 0 I I #
point $-1 -29.934780090352618 27.373723612145447 -11.687653517971118 #
straight-curve $-1 -40.972930082094791 27.373723612145447 0 0 0 -1 I I #
straight-curve $-1 -40.972930082094791 -27.373723612145447 0 0 0 -1 I I #
edge $-1 $474 -40.972930082094791 $465 -29.934780090352625 $463 $551 forward 7 unknown #
straight-curve $-1 29.934780090352625 -27.373723612145447 -4.8335921730828613 0 0 -1 I I #
point $-1 29.934780090352625 -27.373723612145447 -11.687653517971118 #
straight-curve $-1 0 27.373723612145447 -11.687653517971119 1 0 0 I I #
straight-curve $-1 40.972930082094791 0 -11.687653517971119 0 -1 0 I I #
point $-1 40.972930082094791 -27.373723612145447 -11.687653517971119 #
point $-1 40.972930082094791 27.373723612145447 -11.687653517971119 #
straight-curve $-1 29.934780090352611 -45.528809287494212 11.687653517971121 0 1 0 I I #
point $-1 29.934780090352611 -27.373723612145447 11.687653517971119 #
straight-curve $-1 12.38325728596709 -18.725973036495571 11.687653517971119 -1 0 0 I I #
point $-1 29.934780090352611 -18.725973036495567 11.687653517971119 #
point $-1 24.766514571934195 -17.021731456831901 1.4666394179822133 #
straight-curve $-1 -10.672539626115515 31.548999055466172 11.687653517971121 0 -1 0 I I #
point $-1 -10.672539626115515 27.373723612145447 11.687653517971119 #
straight-curve $-1 -3.7016234950479685 21.825413756208594 11.687653517971121 1 0 0 I I #
point $-1 -10.672539626115515 21.825413756208597 11.687653517971121 #
point $-1 -7.403246990095937 22.557775882590619 6.296070899638476 #
straight-curve $-1 19.262240464237102 31.548999055466172 11.687653517971121 0 -1 0 I I #
point $-1 19.262240464237102 27.373723612145447 11.687653517971119 #
straight-curve $-1 11.26576655012834 21.825413756208594 11.687653517971121 1 0 0 I I #
point $-1 19.262240464237102 21.825413756208597 11.687653517971121 #
point $-1 22.531533100256681 22.557775882590619 6.296070899638476 #
straight-curve $-1 -40.972930082094791 0 -11.687653517971119 0 1 0 I I #
point $-1 -40.972930082094791 -27.373723612145447 -11.687653517971119 #
point $-1 -40.972930082094791 27.373723612145447 -11.687653517971119 #
straight-curve $-1 0 -27.373723612145447 -11.687653517971119 -1 0 0 I I #
End-of-ACIS-data 