500 0 7 0           
7 Unknown 11 ACIS 5.0 NT 24 Fri Mar 26 14:38:26 1999 
-1 9.9999999999999995e-007 1e-010 
body $-1 $7 $-1 $8 #
body $-1 $9 $-1 $10 #
body $-1 $11 $-1 $12 #
body $-1 $13 $-1 $14 #
body $-1 $15 $-1 $16 #
body $-1 $17 $-1 $18 #
body $-1 $19 $-1 $20 #
lump $-1 $-1 $21 $0 #
transform $-1 1 0 0 0 1 0 0 0 1 42.80770287179174 23.31593841130266 6.8638530689189299 1 rotate no_reflect no_shear #
lump $-1 $-1 $22 $1 #
transform $-1 1 0 0 0 1 0 0 0 1 42.80770287179174 23.31593841130266 6.8638530689189299 1 rotate no_reflect no_shear #
lump $-1 $-1 $23 $2 #
transform $-1 1 0 0 0 1 0 0 0 1 42.80770287179174 23.31593841130266 6.8638530689189299 1 rotate no_reflect no_shear #
lump $-1 $-1 $24 $3 #
transform $-1 1 0 0 0 1 0 0 0 1 42.80770287179174 23.31593841130266 6.8638530689189299 1 rotate no_reflect no_shear #
lump $-1 $-1 $25 $4 #
transform $-1 1 0 0 0 1 0 0 0 1 42.80770287179174 23.31593841130266 6.8638530689189299 1 rotate no_reflect no_shear #
lump $-1 $-1 $26 $5 #
transform $-1 1 0 0 0 1 0 0 0 1 42.80770287179174 23.31593841130266 6.8638530689189299 1 rotate no_reflect no_shear #
lump $-1 $-1 $27 $6 #
transform $-1 1 0 0 0 1 0 0 0 1 42.80770287179174 23.31593841130266 6.8638530689189299 1 rotate no_reflect no_shear #
shell $-1 $-1 $-1 $28 $-1 $7 #
shell $-1 $-1 $-1 $29 $-1 $9 #
shell $-1 $-1 $-1 $30 $-1 $11 #
shell $-1 $-1 $-1 $31 $-1 $13 #
shell $-1 $-1 $-1 $32 $-1 $15 #
shell $-1 $-1 $-1 $33 $-1 $17 #
shell $-1 $-1 $-1 $34 $-1 $19 #
face $-1 $35 $36 $21 $-1 $37 forward single #
face $-1 $38 $39 $22 $-1 $40 forward single #
face $-1 $41 $42 $23 $-1 $43 reversed single #
face $-1 $44 $45 $24 $-1 $46 forward single #
face $-1 $47 $48 $25 $-1 $49 reversed single #
face $-1 $50 $51 $26 $-1 $52 forward single #
face $-1 $53 $54 $27 $-1 $55 forward single #
face $-1 $56 $57 $21 $-1 $58 reversed single #
loop $-1 $-1 $59 $28 #
plane-surface $-1 0 0 6.8638530689189299 0 0 1 1 0 0 forward_v I I I I #
face $-1 $60 $61 $22 $-1 $62 reversed single #
loop $-1 $-1 $63 $29 #
plane-surface $-1 0 -23.31593841130266 0 0 1 0 0 0 1 forward_v I I I I #
face $-1 $64 $65 $23 $-1 $66 reversed single #
loop $-1 $-1 $67 $30 #
plane-surface $-1 -100.09559191964978 1.2059681204186035 65.877016655260192 0 1 0 -0.66913061440640931 0 0.74314481823134659 forward_v I I I I #
face $-1 $68 $69 $24 $-1 $70 forward single #
loop $-1 $71 $72 $31 #
cone-surface $-1 -38.629983747777111 6.479453473388034 2.7623245097011142 0.66913061440640931 0 -0.74314481823134659 1.1147172273470198 0 1.003695921609614 1 I I 0 1 1.5 forward I I I I #
face $-1 $73 $74 $25 $-1 $75 reversed single #
loop $-1 $-1 $76 $32 #
plane-surface $-1 53.360388231749731 -7.1365154102715413 122.25208553532531 0 -1 0 -0.7660444514056185 0 -0.64278759981090561 forward_v I I I I #
face $-1 $77 $78 $26 $-1 $79 forward single #
loop $-1 $80 $81 $33 #
cone-surface $-1 39.238193074921064 -14.0989931099624 3.0949440012014175 -0.7660444514056185 0 -0.64278759981090561 0.64278759981090561 0 -0.7660444514056185 1 I I 0 1 1 forward I I I I #
face $-1 $82 $83 $27 $-1 $84 forward single #
loop $-1 $85 $86 $34 #
cone-surface $-1 39.238193074921064 -9.9215064901478858 3.0949440012014175 -0.7660444514056185 0 -0.64278759981090561 0.64278759981090561 0 -0.7660444514056185 1 I I 0 1 1 forward I I I I #
face $-1 $87 $88 $21 $-1 $89 reversed single #
loop $-1 $-1 $90 $35 #
plane-surface $-1 0 0 -6.8638530689189299 0 0 1 1 0 0 forward_v I I I I #
coedge $-1 $91 $92 $93 $94 forward $36 $-1 #
face $-1 $95 $96 $22 $-1 $97 reversed single #
loop $-1 $-1 $98 $38 #
plane-surface $-1 0 0 -6.8638530689189299 0 0 1 1 0 0 forward_v I I I I #
coedge $-1 $99 $100 $101 $102 forward $39 $-1 #
face $-1 $103 $104 $23 $-1 $105 reversed single #
loop $-1 $-1 $106 $41 #
plane-surface $-1 -42.80770287179174 6.4794534733880376 2.2523715161418565 -0.66913061440640931 0 0.74314481823134659 0.74314481823134659 0 0.66913061440640931 forward_v I I I I #
coedge $-1 $107 $108 $109 $110 reversed $42 $-1 #
face $-1 $-1 $111 $24 $-1 $112 forward single #
loop $-1 $113 $114 $44 #
cone-surface $-1 -36.511201169399541 6.479453473388034 0.40917811319832076 0.66913061440640931 0 -0.74314481823134659 0.55735861367350992 0 0.50184796080480698 1 I I -0.70710678118654757 0.70710678118654757 0.75 forward I I I I #
loop $-1 $-1 $115 $31 #
coedge $-1 $72 $72 $116 $117 reversed $45 $-1 #
face $-1 $118 $119 $25 $-1 $120 reversed single #
loop $-1 $-1 $121 $47 #
plane-surface $-1 -12.224818292963114 -12.010249800055142 67.219564370570453 0.7660444514056185 0 0.64278759981090561 0.64278759981090561 0 -0.7660444514056185 forward_v I I I I #
coedge $-1 $122 $123 $124 $125 reversed $48 $-1 #
face $-1 $-1 $126 $26 $-1 $127 forward single #
loop $-1 $128 $129 $50 #
cone-surface $-1 37.479694751362196 -14.0989931099624 1.6193887451091111 -0.7660444514056185 0 -0.64278759981090561 0.3213937999054528 0 -0.38302222570280925 1 I I -0.70710678118654746 0.70710678118654746 0.5 forward I I I I #
loop $-1 $-1 $130 $33 #
coedge $-1 $81 $81 $131 $132 reversed $51 $-1 #
face $-1 $-1 $133 $27 $-1 $134 forward single #
loop $-1 $135 $136 $53 #
cone-surface $-1 37.479694751362196 -9.9215064901478858 1.6193887451091111 -0.7660444514056185 0 -0.64278759981090561 0.3213937999054528 0 -0.38302222570280925 1 I I -0.70710678118654746 0.70710678118654746 0.5 forward I I I I #
loop $-1 $-1 $137 $34 #
coedge $-1 $86 $86 $138 $139 reversed $54 $-1 #
face $-1 $140 $141 $21 $-1 $142 reversed single #
loop $-1 $-1 $143 $56 #
plane-surface $-1 0 -23.31593841130266 0 0 1 0 0 0 1 forward_v I I I I #
coedge $-1 $144 $145 $146 $147 forward $57 $-1 #
coedge $-1 $148 $59 $149 $150 forward $36 $-1 #
coedge $-1 $59 $148 $151 $152 forward $36 $-1 #
coedge $-1 $153 $154 $59 $94 reversed $155 $-1 #
edge $-1 $156 -23.31593841130266 $157 23.31593841130266 $93 $158 forward 7 unknown #
face $-1 $159 $160 $22 $-1 $161 forward single #
loop $-1 $-1 $162 $60 #
plane-surface $-1 42.80770287179174 0 0 -1 0 0 0 0 1 forward_v I I I I #
coedge $-1 $163 $164 $165 $166 forward $61 $-1 #
coedge $-1 $165 $63 $162 $167 reversed $39 $-1 #
coedge $-1 $63 $165 $168 $169 reversed $39 $-1 #
coedge $-1 $170 $171 $63 $102 reversed $160 $-1 #
edge $-1 $172 -42.80770287179174 $173 42.80770287179174 $101 $174 forward 7 unknown #
face $-1 $175 $176 $23 $-1 $177 forward single #
loop $-1 $-1 $178 $64 #
plane-surface $-1 -100.09559191964978 11.752938826357472 65.877016655260192 0 -1 0 0.66913061440640931 0 -0.74314481823134659 forward_v I I I I #
coedge $-1 $179 $180 $181 $182 reversed $65 $-1 #
coedge $-1 $108 $67 $183 $184 reversed $42 $-1 #
coedge $-1 $67 $107 $179 $185 reversed $42 $-1 #
coedge $-1 $181 $186 $67 $110 forward $176 $-1 #
edge $-1 $187 7.2400930880331487 $188 12.361662100916895 $109 $189 forward 7 unknown #
loop $-1 $-1 $116 $68 #
plane-surface $-1 -42.80770287179174 6.4794534733880376 2.2523715161418565 -0.66913061440640931 0 0.74314481823134659 0.74314481823134659 0 0.66913061440640931 forward_v I I I I #
loop $-1 $-1 $190 $44 #
coedge $-1 $114 $114 $115 $191 reversed $69 $-1 #
coedge $-1 $115 $115 $114 $191 forward $71 $-1 #
coedge $-1 $116 $116 $72 $117 forward $111 $-1 #
edge $-1 $192 0 $192 6.2831853071796004 $116 $193 forward 7 unknown #
face $-1 $194 $195 $25 $-1 $196 reversed single #
loop $-1 $-1 $197 $73 #
plane-surface $-1 53.360388231749731 -16.883984189838742 122.25208553532531 0 1 0 0.7660444514056185 0 0.64278759981090561 forward_v I I I I #
coedge $-1 $198 $199 $200 $201 reversed $74 $-1 #
coedge $-1 $123 $76 $202 $203 reversed $48 $-1 #
coedge $-1 $76 $122 $198 $204 reversed $48 $-1 #
coedge $-1 $200 $205 $76 $125 forward $206 $-1 #
edge $-1 $207 -16.127508755916875 $208 -11.739441357887632 $124 $209 forward 7 unknown #
loop $-1 $-1 $131 $77 #
plane-surface $-1 -12.224818292963114 -12.010249800055142 67.219564370570453 0.7660444514056185 0 0.64278759981090561 0.64278759981090561 0 -0.7660444514056185 forward_v I I I I #
loop $-1 $-1 $210 $50 #
coedge $-1 $129 $129 $130 $211 reversed $78 $-1 #
coedge $-1 $130 $130 $129 $211 forward $80 $-1 #
coedge $-1 $131 $131 $81 $132 forward $126 $-1 #
edge $-1 $212 0 $212 6.2831853071796004 $131 $213 forward 7 unknown #
loop $-1 $-1 $138 $82 #
plane-surface $-1 -12.224818292963114 -12.010249800055142 67.219564370570453 0.7660444514056185 0 0.64278759981090561 0.64278759981090561 0 -0.7660444514056185 forward_v I I I I #
loop $-1 $-1 $214 $53 #
coedge $-1 $136 $136 $137 $215 reversed $83 $-1 #
coedge $-1 $137 $137 $136 $215 forward $85 $-1 #
coedge $-1 $138 $138 $86 $139 forward $133 $-1 #
edge $-1 $216 0 $216 6.2831853071796004 $138 $217 forward 7 unknown #
face $-1 $218 $219 $21 $-1 $220 reversed single #
loop $-1 $-1 $221 $87 #
plane-surface $-1 -42.80770287179174 0 0 1 0 0 0 0 -1 forward_v I I I I #
coedge $-1 $151 $222 $153 $223 reversed $88 $-1 #
coedge $-1 $224 $90 $222 $225 forward $57 $-1 #
coedge $-1 $90 $224 $226 $227 forward $57 $-1 #
coedge $-1 $154 $153 $90 $147 reversed $155 $-1 #
edge $-1 $228 -23.31593841130266 $229 23.31593841130266 $146 $230 forward 7 unknown #
coedge $-1 $92 $91 $231 $232 forward $36 $-1 #
coedge $-1 $233 $234 $91 $150 reversed $219 $-1 #
edge $-1 $157 -42.80770287179174 $235 42.80770287179174 $149 $236 forward 7 unknown #
coedge $-1 $237 $143 $92 $152 reversed $88 $-1 #
edge $-1 $238 -42.80770287179174 $156 42.80770287179174 $151 $239 forward 7 unknown #
coedge $-1 $146 $93 $143 $223 forward $155 $-1 #
coedge $-1 $93 $146 $233 $240 reversed $155 $-1 #
loop $-1 $-1 $153 $218 #
vertex $-1 $94 $241 #
vertex $-1 $94 $242 #
straight-curve $-1 42.80770287179174 0 6.8638530689189299 0 1 0 I I #
face $-1 $243 $244 $22 $-1 $245 reversed single #
loop $-1 $-1 $171 $95 #
plane-surface $-1 0 -26.53191552203462 -3.6337133828523478 0 0 1 1 0 0 forward_v I I I I #
coedge $-1 $246 $247 $99 $167 forward $96 $-1 #
coedge $-1 $248 $98 $247 $249 forward $61 $-1 #
coedge $-1 $98 $248 $250 $251 forward $61 $-1 #
coedge $-1 $100 $99 $98 $166 reversed $39 $-1 #
edge $-1 $252 -42.80770287179174 $253 42.80770287179174 $98 $254 forward 7 unknown #
edge $-1 $253 -6.8638530689189299 $173 -3.6337133828523478 $162 $255 forward 7 unknown #
coedge $-1 $250 $256 $100 $169 forward $257 $-1 #
edge $-1 $172 3.6337133828523478 $252 6.8638530689189299 $168 $258 forward 7 unknown #
coedge $-1 $259 $101 $256 $260 forward $160 $-1 #
coedge $-1 $101 $259 $246 $261 forward $160 $-1 #
vertex $-1 $169 $262 #
vertex $-1 $261 $263 #
straight-curve $-1 0 -23.31593841130266 -3.6337133828523478 1 0 0 I I #
face $-1 $-1 $264 $23 $-1 $265 reversed single #
loop $-1 $-1 $109 $103 #
plane-surface $-1 0 0 6.8638530689189299 0 0 1 1 0 0 forward_v I I I I #
coedge $-1 $266 $267 $268 $269 reversed $104 $-1 #
coedge $-1 $270 $106 $108 $185 forward $65 $-1 #
coedge $-1 $106 $270 $266 $271 forward $65 $-1 #
coedge $-1 $268 $109 $106 $182 forward $176 $-1 #
edge $-1 $188 -2.0337586162754153 $272 8.5132120896634529 $181 $273 forward 7 unknown #
coedge $-1 $274 $275 $107 $184 forward $264 $-1 #
edge $-1 $276 -30.68613681148824 $187 -26.074655258711168 $183 $277 forward 7 unknown #
edge $-1 $188 -6.8917509578723344 $276 0 $108 $278 forward 7 unknown #
coedge $-1 $109 $268 $274 $279 forward $176 $-1 #
vertex $-1 $184 $280 #
vertex $-1 $110 $281 #
straight-curve $-1 -50.047795959824889 1.2059681204186035 6.8638530689189281 1 0 0 I I #
coedge $-1 $190 $190 $-1 $282 reversed $113 $-1 #
edge $-1 $283 0 $283 6.2831853071796004 $114 $284 forward 7 unknown #
vertex $-1 $117 $285 #
ellipse-curve $-1 -40.24691836534987 6.479453473388034 4.5581122925303932 -0.66913061440640931 0 0.74314481823134659 1.1147172273470198 0 1.003695921609614 1 I I #
face $-1 $-1 $206 $25 $-1 $286 forward single #
loop $-1 $-1 $287 $118 #
plane-surface $-1 42.80770287179174 0 0 -1 0 0 0 0 1 forward_v I I I I #
coedge $-1 $288 $289 $290 $291 reversed $119 $-1 #
coedge $-1 $292 $121 $123 $204 forward $74 $-1 #
coedge $-1 $121 $292 $288 $293 forward $74 $-1 #
coedge $-1 $290 $124 $121 $201 forward $206 $-1 #
edge $-1 $208 1.1313905102439703 $294 10.878859289811171 $200 $295 forward 7 unknown #
coedge $-1 $296 $297 $122 $203 forward $195 $-1 #
edge $-1 $298 -59.49168492180506 $207 -54.262189698743725 $202 $299 forward 7 unknown #
edge $-1 $208 78.788784633717498 $298 85.615405743583509 $123 $300 forward 7 unknown #
coedge $-1 $124 $290 $296 $301 forward $206 $-1 #
loop $-1 $-1 $290 $194 #
vertex $-1 $203 $302 #
vertex $-1 $125 $303 #
straight-curve $-1 26.680194115874865 -7.1365154102715413 6.8638530689189281 -1 0 0 I I #
coedge $-1 $210 $210 $-1 $304 reversed $128 $-1 #
edge $-1 $305 0 $305 6.2831853071796004 $129 $306 forward 7 unknown #
vertex $-1 $132 $307 #
ellipse-curve $-1 40.613669172777122 -14.0989931099624 4.2491054573882705 0.7660444514056185 0 0.64278759981090561 0.64278759981090561 0 -0.7660444514056185 1 I I #
coedge $-1 $214 $214 $-1 $308 reversed $135 $-1 #
edge $-1 $309 0 $309 6.2831853071796004 $136 $310 forward 7 unknown #
vertex $-1 $139 $311 #
ellipse-curve $-1 40.613669172777122 -9.9215064901478858 4.2491054573882705 0.7660444514056185 0 0.64278759981090561 0.64278759981090561 0 -0.7660444514056185 1 I I #
face $-1 $-1 $155 $21 $-1 $312 reversed single #
loop $-1 $-1 $233 $140 #
plane-surface $-1 0 23.31593841130266 0 0 -1 0 0 0 -1 forward_v I I I I #
coedge $-1 $313 $231 $234 $314 forward $141 $-1 #
coedge $-1 $143 $237 $144 $225 reversed $88 $-1 #
edge $-1 $156 -6.8638530689189299 $229 6.8638530689189299 $153 $315 forward 7 unknown #
coedge $-1 $145 $144 $313 $316 forward $57 $-1 #
edge $-1 $229 -42.80770287179174 $317 42.80770287179174 $222 $318 forward 7 unknown #
coedge $-1 $234 $233 $145 $227 reversed $219 $-1 #
edge $-1 $319 -42.80770287179174 $228 42.80770287179174 $226 $320 forward 7 unknown #
vertex $-1 $147 $321 #
vertex $-1 $223 $322 #
straight-curve $-1 42.80770287179174 0 -6.8638530689189299 0 -1 0 I I #
coedge $-1 $221 $323 $148 $232 reversed $141 $-1 #
edge $-1 $235 -23.31593841130266 $238 23.31593841130266 $231 $324 forward 7 unknown #
coedge $-1 $226 $149 $154 $240 forward $219 $-1 #
coedge $-1 $149 $226 $221 $314 reversed $219 $-1 #
vertex $-1 $150 $325 #
straight-curve $-1 0 23.31593841130266 6.8638530689189299 -1 0 0 I I #
coedge $-1 $222 $151 $323 $326 forward $88 $-1 #
vertex $-1 $232 $327 #
straight-curve $-1 0 -23.31593841130266 6.8638530689189299 1 0 0 I I #
edge $-1 $157 -6.8638530689189299 $228 6.8638530689189299 $154 $328 forward 7 unknown #
point $-1 42.80770287179174 -23.31593841130266 6.8638530689189299 #
point $-1 42.80770287179174 23.31593841130266 6.8638530689189299 #
face $-1 $-1 $257 $22 $-1 $329 reversed single #
loop $-1 $-1 $330 $159 #
plane-surface $-1 0 -29.747892632766579 -5.2487832258856386 0 1 0 0 0 1 forward_v I I I I #
coedge $-1 $331 $162 $171 $261 reversed $96 $-1 #
coedge $-1 $162 $331 $163 $249 reversed $96 $-1 #
coedge $-1 $164 $163 $332 $333 forward $61 $-1 #
edge $-1 $253 23.31593841130266 $334 29.747892632766579 $247 $335 forward 7 unknown #
coedge $-1 $336 $168 $164 $251 reversed $257 $-1 #
edge $-1 $337 -29.747892632766579 $252 -23.31593841130266 $250 $338 forward 7 unknown #
vertex $-1 $169 $339 #
vertex $-1 $249 $340 #
straight-curve $-1 0 -23.31593841130266 -6.8638530689189299 1 0 0 I I #
straight-curve $-1 42.80770287179174 -23.31593841130266 0 0 0 1 I I #
coedge $-1 $168 $336 $170 $260 reversed $257 $-1 #
loop $-1 $-1 $168 $243 #
straight-curve $-1 -42.80770287179174 -23.31593841130266 0 0 0 -1 I I #
coedge $-1 $171 $170 $341 $342 forward $160 $-1 #
edge $-1 $172 -3.2159771107319592 $343 3.2159771107319592 $256 $344 forward 7 unknown #
edge $-1 $345 -3.2159771107319592 $173 3.2159771107319592 $246 $346 forward 7 unknown #
point $-1 -42.80770287179174 -23.31593841130266 -3.6337133828523478 #
point $-1 42.80770287179174 -23.31593841130266 -3.6337133828523478 #
loop $-1 $-1 $183 $175 #
plane-surface $-1 -42.80770287179174 0 0 1 0 0 0 0 -1 forward_v I I I I #
coedge $-1 $267 $178 $180 $271 reversed $104 $-1 #
coedge $-1 $178 $266 $347 $348 reversed $104 $-1 #
coedge $-1 $186 $181 $178 $269 forward $176 $-1 #
edge $-1 $272 -12.361662100916895 $349 -7.2400930880331487 $268 $350 forward 7 unknown #
coedge $-1 $180 $179 $275 $351 reversed $65 $-1 #
edge $-1 $352 0 $272 6.8917509578723344 $266 $353 forward 7 unknown #
vertex $-1 $182 $354 #
straight-curve $-1 -37.686133858908001 3.2397267366940188 6.8638530689189281 0 1 0 I I #
coedge $-1 $347 $183 $186 $279 reversed $264 $-1 #
coedge $-1 $183 $347 $270 $351 forward $264 $-1 #
vertex $-1 $184 $355 #
straight-curve $-1 -42.80770287179174 1.2059681204186035 32.938508327630096 0 0 1 I I #
straight-curve $-1 -42.80770287179174 1.2059681204186035 2.2523715161418565 -0.74314481823134659 0 -0.66913061440640931 I I #
edge $-1 $349 -11.752938826357472 $187 -1.2059681204186035 $274 $356 forward 7 unknown #
point $-1 -42.80770287179174 1.2059681204186035 6.8638530689189299 #
point $-1 -37.686133858907993 1.2059681204186035 6.8638530689189299 #
edge $-1 $357 1 $357 0 $190 $-1 forward 7 unknown #
vertex $-1 $191 $358 #
ellipse-curve $-1 -37.013049130204351 6.479453473388034 0.96653672687183068 -0.66913061440640931 0 0.74314481823134659 1.1147172273470198 0 1.003695921609614 1 I I #
point $-1 -39.132201138002856 6.479453473388034 5.5618082141400116 #
plane-surface $-1 0 0 6.8638530689189299 0 0 1 1 0 0 forward_v I I I I #
coedge $-1 $297 $296 $289 $359 forward $195 $-1 #
coedge $-1 $289 $197 $199 $293 reversed $119 $-1 #
coedge $-1 $197 $288 $287 $359 reversed $119 $-1 #
coedge $-1 $205 $200 $197 $291 forward $206 $-1 #
edge $-1 $294 11.739441357887632 $360 16.127508755916875 $290 $361 forward 7 unknown #
coedge $-1 $199 $198 $297 $362 reversed $74 $-1 #
edge $-1 $363 -85.615405743583509 $294 -78.788784633717498 $288 $364 forward 7 unknown #
vertex $-1 $201 $365 #
straight-curve $-1 38.419635473762497 -6.005124900027571 6.8638530689189352 0 -1 0 I I #
coedge $-1 $287 $202 $205 $301 reversed $195 $-1 #
coedge $-1 $202 $287 $292 $362 forward $195 $-1 #
vertex $-1 $203 $366 #
straight-curve $-1 42.80770287179174 -7.1365154102715413 61.126042767662653 0 0 1 I I #
straight-curve $-1 -12.224818292963114 -7.1365154102715413 67.219564370570453 0.64278759981090561 0 -0.7660444514056185 I I #
edge $-1 $360 -16.883984189838742 $207 -7.1365154102715413 $296 $367 forward 7 unknown #
point $-1 42.80770287179174 -7.1365154102715413 6.8638530689189299 #
point $-1 38.419635473762497 -7.1365154102715413 6.8638530689189281 #
edge $-1 $368 1 $368 0 $210 $-1 forward 7 unknown #
vertex $-1 $211 $369 #
ellipse-curve $-1 37.862716977065006 -14.0989931099624 1.9407825450145639 0.7660444514056185 0 0.64278759981090561 0.64278759981090561 0 -0.7660444514056185 1 I I #
point $-1 41.256456772588031 -14.0989931099624 3.4830610059826519 #
edge $-1 $370 1 $370 0 $214 $-1 forward 7 unknown #
vertex $-1 $215 $371 #
ellipse-curve $-1 37.862716977065006 -9.9215064901478858 1.9407825450145639 0.7660444514056185 0 0.64278759981090561 0.64278759981090561 0 -0.7660444514056185 1 I I #
point $-1 41.256456772588031 -9.9215064901478858 3.4830610059826519 #
plane-surface $-1 42.80770287179174 0 0 -1 0 0 0 0 1 forward_v I I I I #
coedge $-1 $323 $221 $224 $316 reversed $141 $-1 #
edge $-1 $235 -6.8638530689189299 $319 6.8638530689189299 $234 $372 forward 7 unknown #
straight-curve $-1 42.80770287179174 -23.31593841130266 0 0 0 -1 I I #
edge $-1 $317 -23.31593841130266 $319 23.31593841130266 $313 $373 forward 7 unknown #
vertex $-1 $316 $374 #
straight-curve $-1 0 -23.31593841130266 -6.8638530689189299 -1 0 0 I I #
vertex $-1 $227 $375 #
straight-curve $-1 0 23.31593841130266 -6.8638530689189299 1 0 0 I I #
point $-1 42.80770287179174 23.31593841130266 -6.8638530689189299 #
point $-1 42.80770287179174 -23.31593841130266 -6.8638530689189299 #
coedge $-1 $231 $313 $237 $326 reversed $141 $-1 #
straight-curve $-1 -42.80770287179174 0 6.8638530689189299 0 -1 0 I I #
point $-1 -42.80770287179174 23.31593841130266 6.8638530689189299 #
edge $-1 $238 -6.8638530689189299 $317 6.8638530689189299 $323 $376 forward 7 unknown #
point $-1 -42.80770287179174 -23.31593841130266 6.8638530689189299 #
straight-curve $-1 42.80770287179174 23.31593841130266 0 0 0 -1 I I #
plane-surface $-1 -42.80770287179174 0 0 1 0 0 0 0 -1 forward_v I I I I #
coedge $-1 $332 $341 $336 $377 forward $244 $-1 #
coedge $-1 $247 $246 $378 $379 forward $96 $-1 #
coedge $-1 $378 $330 $248 $333 reversed $244 $-1 #
edge $-1 $334 -42.80770287179174 $337 42.80770287179174 $332 $380 forward 7 unknown #
vertex $-1 $379 $381 #
straight-curve $-1 42.80770287179174 0 -6.8638530689189299 0 -1 0 I I #
coedge $-1 $256 $250 $330 $377 reversed $257 $-1 #
vertex $-1 $251 $382 #
straight-curve $-1 -42.80770287179174 0 -6.8638530689189299 0 1 0 I I #
point $-1 -42.80770287179174 -23.31593841130266 -6.8638530689189299 #
point $-1 42.80770287179174 -23.31593841130266 -6.8638530689189299 #
coedge $-1 $330 $378 $259 $342 reversed $244 $-1 #
edge $-1 $343 -42.80770287179174 $345 42.80770287179174 $341 $383 forward 7 unknown #
vertex $-1 $260 $384 #
straight-curve $-1 -42.80770287179174 -26.53191552203462 -3.6337133828523478 0 -1 0 I I #
vertex $-1 $261 $385 #
straight-curve $-1 42.80770287179174 -26.53191552203462 -3.6337133828523478 0 1 0 I I #
coedge $-1 $275 $274 $267 $348 forward $264 $-1 #
edge $-1 $349 26.074655258711168 $352 30.68613681148824 $347 $386 forward 7 unknown #
vertex $-1 $279 $387 #
straight-curve $-1 -50.047795959824889 11.752938826357472 6.8638530689189281 -1 0 0 I I #
edge $-1 $352 -8.5132120896634529 $276 2.0337586162754153 $275 $388 forward 7 unknown #
vertex $-1 $351 $389 #
straight-curve $-1 -42.80770287179174 11.752938826357472 2.2523715161418565 0.74314481823134659 0 0.66913061440640931 I I #
point $-1 -37.686133858907993 11.752938826357472 6.8638530689189299 #
point $-1 -42.80770287179174 1.2059681204186035 2.2523715161418565 #
straight-curve $-1 -42.80770287179174 0 6.8638530689189299 0 -1 0 I I #
vertex $-1 $282 $390 #
point $-1 -35.898331902857329 6.479453473388034 1.9702326484814447 #
edge $-1 $360 54.262189698743725 $363 59.49168492180506 $287 $391 forward 7 unknown #
vertex $-1 $301 $392 #
straight-curve $-1 26.680194115874865 -16.883984189838742 6.8638530689189281 1 0 0 I I #
edge $-1 $363 -10.878859289811171 $298 -1.1313905102439703 $297 $393 forward 7 unknown #
vertex $-1 $362 $394 #
straight-curve $-1 -12.224818292963114 -16.883984189838742 67.219564370570453 -0.64278759981090561 0 0.7660444514056185 I I #
point $-1 38.419635473762497 -16.883984189838742 6.8638530689189281 #
point $-1 42.80770287179174 -7.1365154102715413 1.6343578458575934 #
straight-curve $-1 42.80770287179174 0 6.8638530689189299 0 1 0 I I #
vertex $-1 $304 $395 #
point $-1 38.505504576875907 -14.0989931099624 1.1747380936089455 #
vertex $-1 $308 $396 #
point $-1 38.505504576875907 -9.9215064901478858 1.1747380936089455 #
straight-curve $-1 -42.80770287179174 23.31593841130266 0 0 0 -1 I I #
straight-curve $-1 -42.80770287179174 0 -6.8638530689189299 0 1 0 I I #
point $-1 -42.80770287179174 -23.31593841130266 -6.8638530689189299 #
point $-1 -42.80770287179174 23.31593841130266 -6.8638530689189299 #
straight-curve $-1 -42.80770287179174 -23.31593841130266 0 0 0 -1 I I #
edge $-1 $343 -1.6150698430332908 $337 1.6150698430332913 $336 $397 forward 7 unknown #
coedge $-1 $341 $332 $331 $379 reversed $244 $-1 #
edge $-1 $345 -1.6150698430332908 $334 1.6150698430332913 $331 $398 forward 7 unknown #
straight-curve $-1 0 -29.747892632766579 -6.8638530689189299 -1 0 0 I I #
point $-1 42.80770287179174 -29.747892632766579 -6.8638530689189299 #
point $-1 -42.80770287179174 -29.747892632766579 -6.8638530689189299 #
straight-curve $-1 0 -29.747892632766579 -3.6337133828523478 1 0 0 I I #
point $-1 -42.80770287179174 -29.747892632766579 -3.6337133828523478 #
point $-1 42.80770287179174 -29.747892632766579 -3.6337133828523478 #
straight-curve $-1 -42.80770287179174 11.752938826357472 32.938508327630096 0 0 -1 I I #
point $-1 -42.80770287179174 11.752938826357472 6.8638530689189299 #
straight-curve $-1 -42.80770287179174 3.2397267366940188 2.2523715161418583 0 -1 0 I I #
point $-1 -42.80770287179174 11.752938826357472 2.2523715161418565 #
point $-1 -36.009353208594732 6.479453473388034 -0.14818050047518916 #
straight-curve $-1 42.80770287179174 -16.883984189838742 61.126042767662653 0 0 -1 I I #
point $-1 42.80770287179174 -16.883984189838742 6.8638530689189299 #
straight-curve $-1 42.807702871791733 -6.005124900027571 1.6343578458575934 0 1 0 I I #
point $-1 42.80770287179174 -16.883984189838742 1.6343578458575934 #
point $-1 37.096672525659386 -14.0989931099624 1.2979949452036583 #
point $-1 37.096672525659386 -9.9215064901478858 1.2979949452036583 #
straight-curve $-1 -42.80770287179174 -29.747892632766579 -5.2487832258856386 0 0 -1 I I #
straight-curve $-1 42.80770287179174 -29.747892632766579 -5.2487832258856386 0 0 -1 I I #
End-of-ACIS-data 