500 0 7 0           
7 Unknown 11 ACIS 5.0 NT 24 Fri Mar 26 17:20:47 1999 
-1 9.9999999999999995e-007 1e-010 
body $-1 $7 $-1 $8 #
body $-1 $9 $-1 $10 #
body $-1 $11 $-1 $12 #
body $-1 $13 $-1 $14 #
body $-1 $15 $-1 $16 #
body $-1 $17 $-1 $18 #
body $-1 $19 $-1 $20 #
lump $-1 $-1 $21 $0 #
transform $-1 1 0 0 0 1 0 0 0 1 40.357676931058684 18.912449616366633 5.8937558143133222 1 rotate no_reflect no_shear #
lump $-1 $-1 $22 $1 #
transform $-1 1 0 0 0 1 0 0 0 1 40.357676931058684 18.912449616366633 5.8937558143133222 1 rotate no_reflect no_shear #
lump $-1 $-1 $23 $2 #
transform $-1 1 0 0 0 1 0 0 0 1 40.357676931058684 18.912449616366633 5.8937558143133222 1 rotate no_reflect no_shear #
lump $-1 $-1 $24 $3 #
transform $-1 1 0 0 0 1 0 0 0 1 40.357676931058684 18.912449616366633 5.8937558143133222 1 rotate no_reflect no_shear #
lump $-1 $-1 $25 $4 #
transform $-1 1 0 0 0 1 0 0 0 1 40.357676931058684 18.912449616366633 5.8937558143133222 1 rotate no_reflect no_shear #
lump $-1 $-1 $26 $5 #
transform $-1 1 0 0 0 1 0 0 0 1 40.357676931058684 18.912449616366633 5.8937558143133222 1 rotate no_reflect no_shear #
lump $-1 $-1 $27 $6 #
transform $-1 1 0 0 0 1 0 0 0 1 40.357676931058684 18.912449616366633 5.8937558143133222 1 rotate no_reflect no_shear #
shell $-1 $-1 $-1 $28 $-1 $7 #
shell $-1 $-1 $-1 $29 $-1 $9 #
shell $-1 $-1 $-1 $30 $-1 $11 #
shell $-1 $-1 $-1 $31 $-1 $13 #
shell $-1 $-1 $-1 $32 $-1 $15 #
shell $-1 $-1 $-1 $33 $-1 $17 #
shell $-1 $-1 $-1 $34 $-1 $19 #
face $-1 $35 $36 $21 $-1 $37 forward single #
face $-1 $38 $39 $22 $-1 $40 reversed single #
face $-1 $41 $42 $23 $-1 $43 reversed single #
face $-1 $44 $45 $24 $-1 $46 reversed single #
face $-1 $47 $48 $25 $-1 $49 forward single #
face $-1 $50 $51 $26 $-1 $52 forward single #
face $-1 $53 $54 $27 $-1 $55 forward single #
face $-1 $56 $57 $21 $-1 $58 reversed single #
loop $-1 $-1 $59 $28 #
plane-surface $-1 0 0 5.8937558143133222 0 0 1 1 0 0 forward_v I I I I #
face $-1 $60 $61 $22 $-1 $62 reversed single #
loop $-1 $-1 $63 $29 #
plane-surface $-1 -36.549769630135131 0 2.8937558143133222 0 0 1 1 0 0 forward_v I I I I #
face $-1 $64 $65 $23 $-1 $66 reversed single #
loop $-1 $-1 $67 $30 #
plane-surface $-1 36.549769630135124 0 2.8937558143133222 0 0 1 1 0 0 forward_v I I I I #
face $-1 $68 $69 $24 $-1 $70 reversed single #
loop $-1 $-1 $71 $31 #
plane-surface $-1 -3.8387632441252642 47.773091296123582 84.453369126149838 1 0 0 0 -0.69465837861970381 -0.71933979245794832 forward_v I I I I #
face $-1 $72 $73 $25 $-1 $74 forward single #
loop $-1 $75 $76 $32 #
cone-surface $-1 -1.7390553016948047 15.411126160924294 2.4769536276307735 0 -0.69465837861970381 -0.71933979245794832 0.5 0 0 1 I I 0 1 0.5 forward I I I I #
face $-1 $77 $78 $26 $-1 $79 forward single #
loop $-1 $80 $81 $33 #
cone-surface $-1 1.4105066119508862 15.411126160924294 2.4769536276307735 0 -0.69465837861970381 -0.71933979245794832 0.5 0 0 1 I I 0 1 0.5 forward I I I I #
face $-1 $82 $83 $27 $-1 $84 forward single #
loop $-1 $85 $86 $34 #
cone-surface $-1 4.5600685255965772 15.411126160924294 2.4769536276307735 0 -0.69465837861970381 -0.71933979245794832 0.5 0 0 1 I I 0 1 0.5 forward I I I I #
face $-1 $87 $88 $21 $-1 $89 reversed single #
loop $-1 $-1 $90 $35 #
plane-surface $-1 0 0 -5.8937558143133222 0 0 1 1 0 0 forward_v I I I I #
coedge $-1 $91 $92 $93 $94 forward $36 $-1 #
face $-1 $95 $96 $22 $-1 $97 reversed single #
loop $-1 $-1 $98 $38 #
plane-surface $-1 -32.741862329211578 0 4.3937558143133222 -1 0 0 0 0 1 forward_v I I I I #
coedge $-1 $99 $100 $101 $102 forward $39 $-1 #
face $-1 $103 $104 $23 $-1 $105 forward single #
loop $-1 $-1 $106 $41 #
plane-surface $-1 32.741862329211571 0 4.3937558143133222 1 0 0 0 0 -1 forward_v I I I I #
coedge $-1 $107 $108 $109 $110 reversed $42 $-1 #
face $-1 $111 $112 $24 $-1 $113 reversed single #
loop $-1 $-1 $114 $44 #
plane-surface $-1 1.4105066119508862 -8.2965055474505149 26.391603230804471 0 0.69465837861970381 0.71933979245794832 1 0 0 forward_v I I I I #
coedge $-1 $115 $116 $117 $118 reversed $45 $-1 #
face $-1 $-1 $119 $25 $-1 $120 forward single #
loop $-1 $121 $122 $47 #
cone-surface $-1 -1.7390553016948047 14.727544750071818 1.769084370820253 0 -0.69465837861970381 -0.71933979245794832 0.25 0 0 1 I I -0.70710678118654746 0.70710678118654746 0.25 forward I I I I #
loop $-1 $-1 $123 $32 #
coedge $-1 $76 $76 $124 $125 reversed $48 $-1 #
face $-1 $-1 $126 $26 $-1 $127 forward single #
loop $-1 $128 $129 $50 #
cone-surface $-1 1.4105066119508862 14.727544750071818 1.769084370820253 0 -0.69465837861970381 -0.71933979245794832 0.25 0 0 1 I I -0.70710678118654746 0.70710678118654746 0.25 forward I I I I #
loop $-1 $-1 $130 $33 #
coedge $-1 $81 $81 $131 $132 reversed $51 $-1 #
face $-1 $-1 $133 $27 $-1 $134 forward single #
loop $-1 $135 $136 $53 #
cone-surface $-1 4.5600685255965772 14.727544750071818 1.769084370820253 0 -0.69465837861970381 -0.71933979245794832 0.25 0 0 1 I I -0.70710678118654746 0.70710678118654746 0.25 forward I I I I #
loop $-1 $-1 $137 $34 #
coedge $-1 $86 $86 $138 $139 reversed $54 $-1 #
face $-1 $140 $141 $21 $-1 $142 reversed single #
loop $-1 $-1 $143 $56 #
plane-surface $-1 0 -18.912449616366633 0 0 1 0 0 0 1 forward_v I I I I #
coedge $-1 $144 $145 $146 $147 forward $57 $-1 #
coedge $-1 $148 $59 $149 $150 forward $36 $-1 #
coedge $-1 $59 $148 $151 $152 forward $36 $-1 #
coedge $-1 $153 $154 $59 $94 reversed $155 $-1 #
edge $-1 $156 -18.912449616366633 $157 18.912449616366633 $93 $158 forward 7 unknown #
face $-1 $159 $160 $22 $-1 $161 reversed single #
loop $-1 $-1 $162 $60 #
plane-surface $-1 0 18.912449616366633 0 0 -1 0 0 0 -1 forward_v I I I I #
coedge $-1 $101 $163 $164 $165 reversed $61 $-1 #
coedge $-1 $166 $63 $167 $168 reversed $39 $-1 #
coedge $-1 $63 $166 $169 $170 reversed $39 $-1 #
coedge $-1 $171 $98 $63 $102 reversed $61 $-1 #
edge $-1 $172 -18.912449616366633 $173 18.912449616366633 $101 $174 forward 7 unknown #
face $-1 $175 $176 $23 $-1 $177 reversed single #
loop $-1 $-1 $178 $64 #
plane-surface $-1 0 0 5.8937558143133222 0 0 1 1 0 0 forward_v I I I I #
coedge $-1 $179 $180 $181 $182 reversed $65 $-1 #
coedge $-1 $183 $67 $184 $185 reversed $42 $-1 #
coedge $-1 $67 $183 $186 $187 reversed $42 $-1 #
coedge $-1 $188 $189 $67 $110 forward $190 $-1 #
edge $-1 $191 -18.912449616366633 $192 18.912449616366633 $109 $193 forward 7 unknown #
face $-1 $194 $195 $24 $-1 $196 reversed single #
loop $-1 $-1 $197 $68 #
plane-surface $-1 6.6597764680270366 47.773091296123582 84.453369126149838 -1 0 0 0 0.69465837861970381 0.71933979245794832 forward_v I I I I #
coedge $-1 $198 $199 $200 $201 reversed $69 $-1 #
coedge $-1 $116 $71 $202 $203 reversed $45 $-1 #
coedge $-1 $71 $115 $198 $204 reversed $45 $-1 #
coedge $-1 $200 $205 $71 $118 forward $206 $-1 #
edge $-1 $207 4.9740960316951579 $208 10.956909310184734 $117 $209 forward 7 unknown #
loop $-1 $-1 $124 $72 #
plane-surface $-1 1.4105066119508862 -8.2965055474505149 26.391603230804471 0 0.69465837861970381 0.71933979245794832 1 0 0 forward_v I I I I #
loop $-1 $-1 $210 $47 #
coedge $-1 $122 $122 $123 $211 reversed $73 $-1 #
coedge $-1 $123 $123 $122 $211 forward $75 $-1 #
coedge $-1 $124 $124 $76 $125 forward $119 $-1 #
edge $-1 $212 -2.8186663100366674e-015 $212 6.2831853071795978 $124 $213 forward 7 unknown #
loop $-1 $-1 $131 $77 #
plane-surface $-1 1.4105066119508862 -8.2965055474505149 26.391603230804471 0 0.69465837861970381 0.71933979245794832 1 0 0 forward_v I I I I #
loop $-1 $-1 $214 $50 #
coedge $-1 $129 $129 $130 $215 reversed $78 $-1 #
coedge $-1 $130 $130 $129 $215 forward $80 $-1 #
coedge $-1 $131 $131 $81 $132 forward $126 $-1 #
edge $-1 $216 -2.8186663100366674e-015 $216 6.2831853071795978 $131 $217 forward 7 unknown #
loop $-1 $-1 $138 $82 #
plane-surface $-1 1.4105066119508862 -8.2965055474505149 26.391603230804471 0 0.69465837861970381 0.71933979245794832 1 0 0 forward_v I I I I #
loop $-1 $-1 $218 $53 #
coedge $-1 $136 $136 $137 $219 reversed $83 $-1 #
coedge $-1 $137 $137 $136 $219 forward $85 $-1 #
coedge $-1 $138 $138 $86 $139 forward $133 $-1 #
edge $-1 $220 -2.8186663100366674e-015 $220 6.2831853071795978 $138 $221 forward 7 unknown #
face $-1 $222 $223 $21 $-1 $224 reversed single #
loop $-1 $-1 $225 $87 #
plane-surface $-1 -40.357676931058684 0 0 1 0 0 0 0 -1 forward_v I I I I #
coedge $-1 $226 $151 $227 $228 forward $88 $-1 #
coedge $-1 $229 $90 $226 $230 forward $57 $-1 #
coedge $-1 $90 $229 $231 $232 forward $57 $-1 #
coedge $-1 $154 $153 $90 $147 reversed $155 $-1 #
edge $-1 $233 -18.912449616366633 $234 18.912449616366633 $146 $235 forward 7 unknown #
coedge $-1 $92 $91 $236 $237 forward $36 $-1 #
coedge $-1 $238 $239 $91 $150 reversed $223 $-1 #
edge $-1 $157 -40.357676931058684 $240 40.357676931058684 $149 $241 forward 7 unknown #
coedge $-1 $143 $242 $92 $152 reversed $88 $-1 #
edge $-1 $243 -40.357676931058684 $156 40.357676931058684 $151 $244 forward 7 unknown #
coedge $-1 $146 $93 $242 $245 forward $155 $-1 #
coedge $-1 $93 $146 $238 $246 reversed $155 $-1 #
loop $-1 $-1 $153 $222 #
vertex $-1 $94 $247 #
vertex $-1 $94 $248 #
straight-curve $-1 40.357676931058684 0 5.8937558143133222 0 1 0 I I #
face $-1 $249 $250 $22 $-1 $251 forward single #
loop $-1 $-1 $252 $95 #
plane-surface $-1 -40.357676931058684 0 0 1 0 0 0 0 -1 forward_v I I I I #
coedge $-1 $169 $253 $171 $254 forward $96 $-1 #
coedge $-1 $98 $171 $255 $256 reversed $61 $-1 #
coedge $-1 $257 $167 $98 $165 forward $258 $-1 #
edge $-1 $173 0.69687790715666109 $259 3.6968779071566611 $164 $260 forward 7 unknown #
coedge $-1 $100 $99 $252 $261 reversed $39 $-1 #
coedge $-1 $164 $262 $99 $168 forward $258 $-1 #
edge $-1 $263 -22.082792115991118 $173 -14.466977514144013 $167 $264 forward 7 unknown #
coedge $-1 $265 $162 $100 $170 forward $96 $-1 #
edge $-1 $172 14.466977514144013 $266 22.082792115991118 $169 $267 forward 7 unknown #
coedge $-1 $163 $101 $162 $254 reversed $61 $-1 #
vertex $-1 $170 $268 #
vertex $-1 $168 $269 #
straight-curve $-1 -32.741862329211578 0 2.8937558143133222 0 -1 0 I I #
face $-1 $270 $271 $23 $-1 $272 reversed single #
loop $-1 $-1 $273 $103 #
plane-surface $-1 0 -18.912449616366633 0 0 1 0 0 0 1 forward_v I I I I #
coedge $-1 $274 $275 $180 $276 forward $104 $-1 #
coedge $-1 $277 $106 $183 $278 reversed $65 $-1 #
coedge $-1 $106 $277 $178 $276 reversed $65 $-1 #
coedge $-1 $279 $186 $106 $182 forward $271 $-1 #
edge $-1 $280 0.69687790715666109 $281 3.6968779071566611 $181 $282 forward 7 unknown #
coedge $-1 $108 $107 $179 $278 forward $42 $-1 #
coedge $-1 $283 $273 $107 $185 forward $176 $-1 #
edge $-1 $284 14.466977514144009 $191 22.082792115991115 $184 $285 forward 7 unknown #
coedge $-1 $181 $286 $108 $187 forward $271 $-1 #
edge $-1 $192 -22.082792115991115 $280 -14.466977514144009 $186 $287 forward 7 unknown #
coedge $-1 $288 $109 $286 $289 reversed $190 $-1 #
coedge $-1 $109 $288 $283 $290 forward $190 $-1 #
loop $-1 $-1 $109 $270 #
vertex $-1 $185 $291 #
vertex $-1 $110 $292 #
straight-curve $-1 40.357676931058684 0 2.8937558143133222 0 1 0 I I #
face $-1 $-1 $206 $24 $-1 $293 forward single #
loop $-1 $-1 $294 $111 #
plane-surface $-1 0 18.912449616366633 0 0 -1 0 0 0 -1 forward_v I I I I #
coedge $-1 $295 $296 $297 $298 reversed $112 $-1 #
coedge $-1 $299 $114 $116 $204 forward $69 $-1 #
coedge $-1 $114 $299 $295 $300 forward $69 $-1 #
coedge $-1 $297 $117 $114 $201 forward $206 $-1 #
edge $-1 $208 -4.5440165501007073 $301 5.9545231620515935 $200 $302 forward 7 unknown #
coedge $-1 $303 $304 $115 $203 forward $195 $-1 #
edge $-1 $305 -42.110464504734608 $207 -36.332928748761596 $202 $306 forward 7 unknown #
edge $-1 $208 29.507809950008323 $305 37.824899232733252 $116 $307 forward 7 unknown #
coedge $-1 $117 $297 $303 $308 forward $206 $-1 #
loop $-1 $-1 $297 $194 #
vertex $-1 $203 $309 #
vertex $-1 $118 $310 #
straight-curve $-1 -3.8387632441252642 23.886545648061791 5.8937558143133231 0 -1 0 I I #
coedge $-1 $210 $210 $-1 $311 reversed $121 $-1 #
edge $-1 $312 0 $312 6.2831853071796004 $122 $313 forward 7 unknown #
vertex $-1 $125 $314 #
ellipse-curve $-1 -1.7390553016948047 15.921042977121848 3.0049879363268119 0 0.69465837861970381 0.71933979245794832 0.5 0 0 1 I I #
coedge $-1 $214 $214 $-1 $315 reversed $128 $-1 #
edge $-1 $316 0 $316 6.2831853071796004 $129 $317 forward 7 unknown #
vertex $-1 $132 $318 #
ellipse-curve $-1 1.4105066119508862 15.921042977121848 3.0049879363268119 0 0.69465837861970381 0.71933979245794832 0.5 0 0 1 I I #
coedge $-1 $218 $218 $-1 $319 reversed $135 $-1 #
edge $-1 $320 0 $320 6.2831853071796004 $136 $321 forward 7 unknown #
vertex $-1 $139 $322 #
ellipse-curve $-1 4.5600685255965772 15.921042977121848 3.0049879363268119 0 0.69465837861970381 0.71933979245794832 0.5 0 0 1 I I #
face $-1 $-1 $155 $21 $-1 $323 reversed single #
loop $-1 $-1 $238 $140 #
plane-surface $-1 0 18.912449616366633 0 0 -1 0 0 0 -1 forward_v I I I I #
coedge $-1 $324 $236 $239 $325 forward $141 $-1 #
coedge $-1 $242 $143 $144 $230 reversed $88 $-1 #
coedge $-1 $236 $324 $143 $228 reversed $141 $-1 #
edge $-1 $243 -5.8937558143133222 $326 5.8937558143133222 $227 $327 forward 7 unknown #
coedge $-1 $145 $144 $324 $328 forward $57 $-1 #
edge $-1 $234 -40.357676931058684 $326 40.357676931058684 $226 $329 forward 7 unknown #
coedge $-1 $239 $238 $145 $232 reversed $223 $-1 #
edge $-1 $330 -40.357676931058684 $233 40.357676931058684 $231 $331 forward 7 unknown #
vertex $-1 $147 $332 #
vertex $-1 $245 $333 #
straight-curve $-1 40.357676931058684 0 -5.8937558143133222 0 -1 0 I I #
coedge $-1 $225 $227 $148 $237 reversed $141 $-1 #
edge $-1 $240 -18.912449616366633 $243 18.912449616366633 $236 $334 forward 7 unknown #
coedge $-1 $231 $149 $154 $246 forward $223 $-1 #
coedge $-1 $149 $231 $225 $325 reversed $223 $-1 #
vertex $-1 $150 $335 #
straight-curve $-1 0 18.912449616366633 5.8937558143133222 -1 0 0 I I #
coedge $-1 $151 $226 $153 $245 reversed $88 $-1 #
vertex $-1 $237 $336 #
straight-curve $-1 0 -18.912449616366633 5.8937558143133222 1 0 0 I I #
edge $-1 $156 -5.8937558143133222 $234 5.8937558143133222 $153 $337 forward 7 unknown #
edge $-1 $157 -5.8937558143133222 $233 5.8937558143133222 $154 $338 forward 7 unknown #
point $-1 40.357676931058684 -18.912449616366633 5.8937558143133222 #
point $-1 40.357676931058684 18.912449616366633 5.8937558143133222 #
face $-1 $-1 $258 $22 $-1 $339 reversed single #
loop $-1 $-1 $255 $159 #
plane-surface $-1 0 0 5.8937558143133222 0 0 1 1 0 0 forward_v I I I I #
coedge $-1 $340 $341 $166 $261 forward $160 $-1 #
coedge $-1 $162 $265 $342 $343 reversed $96 $-1 #
edge $-1 $344 -3.6968779071566611 $172 -0.69687790715666109 $162 $345 forward 7 unknown #
coedge $-1 $342 $346 $163 $256 forward $250 $-1 #
edge $-1 $259 -18.912449616366633 $344 18.912449616366633 $255 $347 forward 7 unknown #
coedge $-1 $262 $164 $346 $348 reversed $258 $-1 #
loop $-1 $-1 $164 $249 #
vertex $-1 $165 $349 #
straight-curve $-1 -32.741862329211578 -18.912449616366633 2.1968779071566611 0 0 1 I I #
edge $-1 $266 -18.912449616366633 $263 18.912449616366633 $252 $350 forward 7 unknown #
coedge $-1 $167 $257 $340 $351 forward $258 $-1 #
vertex $-1 $261 $352 #
straight-curve $-1 -18.274884815067566 -18.912449616366633 2.8937558143133222 1 0 0 I I #
coedge $-1 $253 $169 $341 $353 reversed $96 $-1 #
vertex $-1 $261 $354 #
straight-curve $-1 -18.274884815067566 18.912449616366633 2.8937558143133222 -1 0 0 I I #
point $-1 -32.741862329211578 18.912449616366633 2.8937558143133222 #
point $-1 -32.741862329211578 -18.912449616366633 2.8937558143133222 #
face $-1 $-1 $190 $23 $-1 $355 reversed single #
loop $-1 $-1 $181 $175 #
plane-surface $-1 0 18.912449616366633 0 0 -1 0 0 0 -1 forward_v I I I I #
coedge $-1 $184 $356 $277 $357 forward $176 $-1 #
coedge $-1 $358 $178 $356 $359 forward $104 $-1 #
coedge $-1 $178 $358 $279 $360 forward $104 $-1 #
edge $-1 $281 -18.912449616366633 $361 18.912449616366633 $178 $362 forward 7 unknown #
coedge $-1 $180 $179 $273 $357 reversed $65 $-1 #
edge $-1 $284 -18.912449616366633 $280 18.912449616366633 $179 $363 forward 7 unknown #
coedge $-1 $286 $181 $275 $360 reversed $271 $-1 #
vertex $-1 $187 $364 #
vertex $-1 $182 $365 #
straight-curve $-1 32.741862329211571 18.912449616366633 2.1968779071566611 0 0 1 I I #
coedge $-1 $356 $184 $189 $290 reversed $176 $-1 #
vertex $-1 $185 $366 #
straight-curve $-1 18.274884815067562 -18.912449616366633 2.8937558143133222 1 0 0 I I #
coedge $-1 $186 $279 $188 $289 forward $271 $-1 #
straight-curve $-1 18.274884815067562 18.912449616366633 2.8937558143133222 -1 0 0 I I #
coedge $-1 $189 $188 $358 $367 reversed $190 $-1 #
edge $-1 $368 -5.8937558143133222 $192 -2.8937558143133222 $188 $369 forward 7 unknown #
edge $-1 $370 -5.8937558143133222 $191 -2.8937558143133222 $189 $371 forward 7 unknown #
point $-1 40.357676931058677 -18.912449616366633 2.8937558143133222 #
point $-1 40.357676931058677 18.912449616366633 2.8937558143133222 #
plane-surface $-1 0 0 5.8937558143133222 0 0 1 1 0 0 forward_v I I I I #
coedge $-1 $304 $303 $296 $372 forward $195 $-1 #
coedge $-1 $296 $197 $199 $300 reversed $112 $-1 #
coedge $-1 $197 $295 $294 $372 reversed $112 $-1 #
coedge $-1 $205 $200 $197 $298 forward $206 $-1 #
edge $-1 $301 -10.956909310184734 $373 -4.9740960316951579 $297 $374 forward 7 unknown #
coedge $-1 $199 $198 $304 $375 reversed $69 $-1 #
edge $-1 $376 -37.824899232733252 $301 -29.507809950008323 $295 $377 forward 7 unknown #
vertex $-1 $201 $378 #
straight-curve $-1 0.70525330597544311 12.929636337877058 5.8937558143133231 1 0 0 I I #
coedge $-1 $294 $202 $205 $308 reversed $195 $-1 #
coedge $-1 $202 $294 $299 $375 forward $195 $-1 #
vertex $-1 $203 $379 #
straight-curve $-1 -3.8387632441252642 18.912449616366633 42.226684563074919 0 0 1 I I #
straight-curve $-1 -3.8387632441252642 -8.2965055474505149 26.391603230804471 0 0.71933979245794832 -0.69465837861970381 I I #
edge $-1 $373 -6.6597764680270366 $207 3.8387632441252642 $303 $380 forward 7 unknown #
point $-1 -3.8387632441252642 18.912449616366633 5.8937558143133222 #
point $-1 -3.8387632441252642 12.929636337877056 5.8937558143133231 #
edge $-1 $381 1 $381 0 $210 $-1 forward 7 unknown #
vertex $-1 $211 $382 #
ellipse-curve $-1 -1.7390553016948047 14.901209344726745 1.94891931893474 0 0.69465837861970381 0.71933979245794832 0.5 0 0 1 I I #
point $-1 -1.2390553016948047 15.921042977121841 3.0049879363268066 #
edge $-1 $383 1 $383 0 $214 $-1 forward 7 unknown #
vertex $-1 $215 $384 #
ellipse-curve $-1 1.4105066119508862 14.901209344726745 1.94891931893474 0 0.69465837861970381 0.71933979245794832 0.5 0 0 1 I I #
point $-1 1.9105066119508862 15.921042977121841 3.0049879363268066 #
edge $-1 $385 1 $385 0 $218 $-1 forward 7 unknown #
vertex $-1 $219 $386 #
ellipse-curve $-1 4.5600685255965772 14.901209344726745 1.94891931893474 0 0.69465837861970381 0.71933979245794832 0.5 0 0 1 I I #
point $-1 5.0600685255965772 15.921042977121841 3.0049879363268066 #
plane-surface $-1 40.357676931058684 0 0 -1 0 0 0 0 1 forward_v I I I I #
coedge $-1 $227 $225 $229 $328 reversed $141 $-1 #
edge $-1 $240 -5.8937558143133222 $330 5.8937558143133222 $239 $387 forward 7 unknown #
vertex $-1 $328 $388 #
straight-curve $-1 -40.357676931058684 -18.912449616366633 0 0 0 -1 I I #
edge $-1 $326 -18.912449616366633 $330 18.912449616366633 $324 $389 forward 7 unknown #
straight-curve $-1 0 -18.912449616366633 -5.8937558143133222 -1 0 0 I I #
vertex $-1 $232 $390 #
straight-curve $-1 0 18.912449616366633 -5.8937558143133222 1 0 0 I I #
point $-1 40.357676931058684 18.912449616366633 -5.8937558143133222 #
point $-1 40.357676931058684 -18.912449616366633 -5.8937558143133222 #
straight-curve $-1 -40.357676931058684 0 5.8937558143133222 0 -1 0 I I #
point $-1 -40.357676931058684 18.912449616366633 5.8937558143133222 #
point $-1 -40.357676931058684 -18.912449616366633 5.8937558143133222 #
straight-curve $-1 40.357676931058684 -18.912449616366633 0 0 0 -1 I I #
straight-curve $-1 40.357676931058684 18.912449616366633 0 0 0 -1 I I #
plane-surface $-1 0 -18.912449616366633 0 0 1 0 0 0 1 forward_v I I I I #
coedge $-1 $391 $252 $262 $351 reversed $160 $-1 #
coedge $-1 $252 $391 $265 $353 forward $160 $-1 #
coedge $-1 $392 $255 $253 $343 forward $250 $-1 #
edge $-1 $344 32.741862329211578 $393 40.357676931058684 $253 $394 forward 7 unknown #
vertex $-1 $343 $395 #
straight-curve $-1 -32.741862329211578 18.912449616366633 2.1968779071566611 0 0 -1 I I #
coedge $-1 $255 $392 $257 $348 forward $250 $-1 #
straight-curve $-1 -32.741862329211578 0 5.8937558143133222 0 1 0 I I #
edge $-1 $396 -40.357676931058684 $259 -32.741862329211578 $257 $397 forward 7 unknown #
point $-1 -32.741862329211578 -18.912449616366633 5.8937558143133222 #
straight-curve $-1 -40.357676931058684 0 2.8937558143133222 0 -1 0 I I #
edge $-1 $396 -5.8937558143133222 $263 -2.8937558143133222 $340 $398 forward 7 unknown #
point $-1 -40.357676931058684 -18.912449616366633 2.8937558143133222 #
edge $-1 $393 -5.8937558143133222 $266 -2.8937558143133222 $265 $399 forward 7 unknown #
point $-1 -40.357676931058684 18.912449616366633 2.8937558143133222 #
plane-surface $-1 40.357676931058684 0 0 -1 0 0 0 0 1 forward_v I I I I #
coedge $-1 $273 $283 $274 $359 reversed $176 $-1 #
edge $-1 $361 -3.6968779071566611 $284 -0.69687790715666109 $273 $400 forward 7 unknown #
coedge $-1 $275 $274 $288 $367 forward $104 $-1 #
edge $-1 $361 32.741862329211571 $370 40.357676931058684 $356 $401 forward 7 unknown #
edge $-1 $368 -40.357676931058684 $281 -32.741862329211571 $279 $402 forward 7 unknown #
vertex $-1 $359 $403 #
straight-curve $-1 32.741862329211571 0 5.8937558143133222 0 -1 0 I I #
straight-curve $-1 32.741862329211571 0 2.8937558143133222 0 1 0 I I #
point $-1 32.741862329211571 18.912449616366633 2.8937558143133222 #
point $-1 32.741862329211571 18.912449616366633 5.8937558143133222 #
point $-1 32.741862329211571 -18.912449616366633 2.8937558143133222 #
edge $-1 $370 -18.912449616366633 $368 18.912449616366633 $288 $404 forward 7 unknown #
vertex $-1 $367 $405 #
straight-curve $-1 40.357676931058684 18.912449616366633 0 0 0 -1 I I #
vertex $-1 $367 $406 #
straight-curve $-1 40.357676931058684 -18.912449616366633 0 0 0 -1 I I #
edge $-1 $373 36.332928748761596 $376 42.110464504734608 $294 $407 forward 7 unknown #
vertex $-1 $308 $408 #
straight-curve $-1 6.6597764680270366 23.886545648061791 5.8937558143133231 0 1 0 I I #
edge $-1 $376 -5.9545231620515935 $305 4.5440165501007073 $304 $409 forward 7 unknown #
vertex $-1 $375 $410 #
straight-curve $-1 6.6597764680270366 -8.2965055474505149 26.391603230804471 0 -0.71933979245794832 0.69465837861970381 I I #
point $-1 6.6597764680270366 12.929636337877056 5.8937558143133231 #
point $-1 -3.8387632441252642 18.912449616366629 0.11622005834031057 #
straight-curve $-1 0 18.912449616366633 5.8937558143133222 -1 0 0 I I #
vertex $-1 $311 $411 #
point $-1 -1.2390553016948047 14.901209344726745 1.94891931893474 #
vertex $-1 $315 $412 #
point $-1 1.9105066119508862 14.901209344726745 1.94891931893474 #
vertex $-1 $319 $413 #
point $-1 5.0600685255965772 14.901209344726745 1.94891931893474 #
straight-curve $-1 -40.357676931058684 18.912449616366633 0 0 0 -1 I I #
point $-1 -40.357676931058684 -18.912449616366633 -5.8937558143133222 #
straight-curve $-1 -40.357676931058684 0 -5.8937558143133222 0 1 0 I I #
point $-1 -40.357676931058684 18.912449616366633 -5.8937558143133222 #
coedge $-1 $341 $340 $392 $414 reversed $160 $-1 #
coedge $-1 $346 $342 $391 $414 forward $250 $-1 #
vertex $-1 $343 $415 #
straight-curve $-1 0 18.912449616366633 5.8937558143133222 -1 0 0 I I #
point $-1 -32.741862329211578 18.912449616366633 5.8937558143133222 #
vertex $-1 $414 $416 #
straight-curve $-1 0 -18.912449616366633 5.8937558143133222 1 0 0 I I #
straight-curve $-1 -40.357676931058684 -18.912449616366633 0 0 0 -1 I I #
straight-curve $-1 -40.357676931058684 18.912449616366633 0 0 0 -1 I I #
straight-curve $-1 32.741862329211571 -18.912449616366633 2.1968779071566611 0 0 -1 I I #
straight-curve $-1 0 -18.912449616366633 5.8937558143133222 1 0 0 I I #
straight-curve $-1 0 18.912449616366633 5.8937558143133222 -1 0 0 I I #
point $-1 32.741862329211571 -18.912449616366633 5.8937558143133222 #
straight-curve $-1 40.357676931058684 0 5.8937558143133222 0 1 0 I I #
point $-1 40.357676931058684 18.912449616366633 5.8937558143133222 #
point $-1 40.357676931058684 -18.912449616366633 5.8937558143133222 #
straight-curve $-1 6.6597764680270366 18.912449616366633 42.226684563074919 0 0 -1 I I #
point $-1 6.6597764680270366 18.912449616366633 5.8937558143133222 #
straight-curve $-1 0.70525330597544311 18.912449616366633 0.1162200583403088 -1 0 0 I I #
point $-1 6.6597764680270366 18.912449616366629 0.11622005834031057 #
point $-1 -1.7390553016948047 14.553880155416891 1.5892494227057661 #
point $-1 1.4105066119508862 14.553880155416891 1.5892494227057661 #
point $-1 4.5600685255965772 14.553880155416891 1.5892494227057661 #
edge $-1 $393 -18.912449616366633 $396 18.912449616366633 $391 $417 forward 7 unknown #
point $-1 -40.357676931058684 18.912449616366633 5.8937558143133222 #
point $-1 -40.357676931058684 -18.912449616366633 5.8937558143133222 #
straight-curve $-1 -40.357676931058684 0 5.8937558143133222 0 -1 0 I I #
End-of-ACIS-data 