500 0 8 0           
7 Unknown 11 ACIS 5.0 NT 24 Fri Mar 26 15:13:01 1999 
-1 9.9999999999999995e-007 1e-010 
body $-1 $8 $-1 $9 #
body $-1 $10 $-1 $11 #
body $-1 $12 $-1 $13 #
body $-1 $14 $-1 $15 #
body $-1 $16 $-1 $17 #
body $-1 $18 $-1 $19 #
body $-1 $20 $-1 $21 #
body $-1 $22 $-1 $23 #
lump $-1 $-1 $24 $0 #
transform $-1 1 0 0 0 1 0 0 0 1 65.725882747886601 39.096339403281732 15.938973954059856 1 rotate no_reflect no_shear #
lump $-1 $-1 $25 $1 #
transform $-1 1 0 0 0 1 0 0 0 1 65.725882747886601 39.096339403281732 15.938973954059856 1 rotate no_reflect no_shear #
lump $-1 $-1 $26 $2 #
transform $-1 1 0 0 0 1 0 0 0 1 65.725882747886601 39.096339403281732 15.938973954059856 1 rotate no_reflect no_shear #
lump $-1 $-1 $27 $3 #
transform $-1 1 0 0 0 1 0 0 0 1 65.725882747886601 39.096339403281732 15.938973954059856 1 rotate no_reflect no_shear #
lump $-1 $-1 $28 $4 #
transform $-1 1 0 0 0 1 0 0 0 1 65.725882747886601 39.096339403281732 15.938973954059856 1 rotate no_reflect no_shear #
lump $-1 $-1 $29 $5 #
transform $-1 1 0 0 0 1 0 0 0 1 65.725882747886601 39.096339403281732 15.938973954059856 1 rotate no_reflect no_shear #
lump $-1 $-1 $30 $6 #
transform $-1 1 0 0 0 1 0 0 0 1 65.725882747886601 39.096339403281732 15.938973954059856 1 rotate no_reflect no_shear #
lump $-1 $-1 $31 $7 #
transform $-1 1 0 0 0 1 0 0 0 1 65.725882747886601 39.096339403281732 15.938973954059856 1 rotate no_reflect no_shear #
shell $-1 $-1 $-1 $32 $-1 $8 #
shell $-1 $-1 $-1 $33 $-1 $10 #
shell $-1 $-1 $-1 $34 $-1 $12 #
shell $-1 $-1 $-1 $35 $-1 $14 #
shell $-1 $-1 $-1 $36 $-1 $16 #
shell $-1 $-1 $-1 $37 $-1 $18 #
shell $-1 $-1 $-1 $38 $-1 $20 #
shell $-1 $-1 $-1 $39 $-1 $22 #
face $-1 $40 $41 $24 $-1 $42 forward single #
face $-1 $43 $44 $25 $-1 $45 forward single #
face $-1 $46 $47 $26 $-1 $48 reversed single #
face $-1 $49 $50 $27 $-1 $51 forward single #
face $-1 $52 $53 $28 $-1 $54 reversed single #
face $-1 $55 $56 $29 $-1 $57 forward single #
face $-1 $58 $59 $30 $-1 $60 forward single #
face $-1 $61 $62 $31 $-1 $63 forward single #
face $-1 $64 $65 $24 $-1 $66 reversed single #
loop $-1 $-1 $67 $32 #
plane-surface $-1 0 0 15.938973954059856 0 0 1 1 0 0 forward_v I I I I #
face $-1 $68 $69 $25 $-1 $70 reversed single #
loop $-1 $-1 $71 $33 #
plane-surface $-1 0 -32.935140622784303 -7.5405166452600056 0 0 1 1 0 0 forward_v I I I I #
face $-1 $72 $73 $26 $-1 $74 reversed single #
loop $-1 $-1 $75 $34 #
plane-surface $-1 -148.45116024112451 -26.773941842286867 106.03570152238541 0 1 0 -0.62932039886446345 0 0.77714595512881146 forward_v I I I I #
face $-1 $76 $77 $27 $-1 $78 forward single #
loop $-1 $79 $80 $35 #
cone-surface $-1 -56.885166776740832 -20.84135477304465 8.1872999056683415 0.62932039886446345 0 -0.77714595512881146 1.1657189326932171 0 0.94398059829669512 1 I I 0 1 1.5 forward I I I I #
face $-1 $81 $82 $28 $-1 $83 reversed single #
loop $-1 $-1 $84 $36 #
plane-surface $-1 81.928213499462117 29.76919536370653 197.0998278825258 0 -1 0 -0.7660444514056185 0 -0.64278759981090561 forward_v I I I I #
face $-1 $85 $86 $29 $-1 $87 forward single #
loop $-1 $88 $89 $37 #
cone-surface $-1 62.724910734399188 19.264205242568103 12.824211495179149 -0.7660444514056185 0 -0.64278759981090561 0.64278759981090561 0 -0.7660444514056185 1 I I 0 1 1 forward I I I I #
face $-1 $90 $91 $30 $-1 $92 forward single #
loop $-1 $93 $94 $38 #
cone-surface $-1 62.724910734399188 23.203576537995012 12.824211495179149 -0.7660444514056185 0 -0.64278759981090561 0.64278759981090561 0 -0.7660444514056185 1 I I 0 1 1 forward I I I I #
face $-1 $95 $96 $31 $-1 $97 forward single #
loop $-1 $98 $99 $39 #
cone-surface $-1 62.724910734399188 27.142947833421928 12.824211495179149 -0.7660444514056185 0 -0.64278759981090561 0.64278759981090561 0 -0.7660444514056185 1 I I 0 1 1 forward I I I I #
face $-1 $100 $101 $24 $-1 $102 reversed single #
loop $-1 $-1 $103 $40 #
plane-surface $-1 0 0 -15.938973954059856 0 0 1 1 0 0 forward_v I I I I #
coedge $-1 $104 $105 $106 $107 forward $41 $-1 #
face $-1 $108 $109 $25 $-1 $110 reversed single #
loop $-1 $-1 $111 $43 #
plane-surface $-1 0 -32.935140622784303 -13.491644156132502 0 0 1 1 0 0 forward_v I I I I #
coedge $-1 $112 $113 $114 $115 reversed $44 $-1 #
face $-1 $116 $117 $26 $-1 $118 reversed single #
loop $-1 $-1 $119 $46 #
plane-surface $-1 -65.725882747886601 -20.84135477304465 3.878493672804197 -0.62932039886446345 0 0.77714595512881146 0.77714595512881146 0 0.62932039886446345 forward_v I I I I #
coedge $-1 $120 $121 $122 $123 reversed $47 $-1 #
face $-1 $-1 $124 $27 $-1 $125 forward single #
loop $-1 $126 $127 $49 #
cone-surface $-1 -55.019186756223995 -20.84135477304465 5.8830065315580367 0.62932039886446345 0 -0.77714595512881146 0.58285946634660857 0 0.47199029914834756 1 I I -0.70710678118654757 0.70710678118654757 0.75 forward I I I I #
loop $-1 $-1 $128 $35 #
coedge $-1 $80 $80 $129 $130 reversed $50 $-1 #
face $-1 $131 $132 $28 $-1 $133 reversed single #
loop $-1 $-1 $134 $52 #
plane-surface $-1 -18.769682086047482 23.203576537995012 112.60426304859173 0.7660444514056185 0 0.64278759981090561 0.64278759981090561 0 -0.7660444514056185 forward_v I I I I #
coedge $-1 $135 $136 $137 $138 reversed $53 $-1 #
face $-1 $-1 $139 $29 $-1 $140 forward single #
loop $-1 $141 $142 $55 #
cone-surface $-1 61.032795760544786 19.264205242568103 11.40435848188182 -0.7660444514056185 0 -0.64278759981090561 0.3213937999054528 0 -0.38302222570280925 1 I I -0.70710678118654746 0.70710678118654746 0.5 forward I I I I #
loop $-1 $-1 $143 $37 #
coedge $-1 $89 $89 $144 $145 reversed $56 $-1 #
face $-1 $-1 $146 $30 $-1 $147 forward single #
loop $-1 $148 $149 $58 #
cone-surface $-1 61.032795760544786 23.203576537995012 11.40435848188182 -0.7660444514056185 0 -0.64278759981090561 0.3213937999054528 0 -0.38302222570280925 1 I I -0.70710678118654746 0.70710678118654746 0.5 forward I I I I #
loop $-1 $-1 $150 $38 #
coedge $-1 $94 $94 $151 $152 reversed $59 $-1 #
face $-1 $-1 $153 $31 $-1 $154 forward single #
loop $-1 $155 $156 $61 #
cone-surface $-1 61.032795760544786 27.142947833421928 11.40435848188182 -0.7660444514056185 0 -0.64278759981090561 0.3213937999054528 0 -0.38302222570280925 1 I I -0.70710678118654746 0.70710678118654746 0.5 forward I I I I #
loop $-1 $-1 $157 $39 #
coedge $-1 $99 $99 $158 $159 reversed $62 $-1 #
face $-1 $160 $161 $24 $-1 $162 reversed single #
loop $-1 $-1 $163 $64 #
plane-surface $-1 0 -39.096339403281732 0 0 1 0 0 0 1 forward_v I I I I #
coedge $-1 $164 $165 $166 $167 forward $65 $-1 #
coedge $-1 $168 $67 $169 $170 forward $41 $-1 #
coedge $-1 $67 $168 $171 $172 forward $41 $-1 #
coedge $-1 $173 $174 $67 $107 reversed $175 $-1 #
edge $-1 $176 -39.096339403281732 $177 39.096339403281732 $106 $178 forward 7 unknown #
face $-1 $179 $180 $25 $-1 $181 reversed single #
loop $-1 $-1 $182 $68 #
plane-surface $-1 0 -26.77394184228687 -10.516080400696254 0 -1 0 0 0 -1 forward_v I I I I #
coedge $-1 $183 $184 $185 $186 reversed $69 $-1 #
coedge $-1 $187 $71 $188 $189 forward $44 $-1 #
coedge $-1 $71 $187 $190 $191 reversed $44 $-1 #
coedge $-1 $192 $193 $71 $115 forward $194 $-1 #
edge $-1 $195 10.306371530894719 $196 22.628769091889581 $114 $197 forward 7 unknown #
face $-1 $198 $199 $26 $-1 $200 reversed single #
loop $-1 $-1 $201 $72 #
plane-surface $-1 -148.45116024112451 -14.908767703802431 106.03570152238541 0 -1 0 0.62932039886446345 0 -0.77714595512881146 forward_v I I I I #
coedge $-1 $202 $203 $204 $205 reversed $73 $-1 #
coedge $-1 $121 $75 $206 $207 reversed $47 $-1 #
coedge $-1 $75 $120 $202 $208 reversed $47 $-1 #
coedge $-1 $204 $209 $75 $123 forward $210 $-1 #
edge $-1 $211 8.4996973726756551 $212 23.393149872230232 $122 $213 forward 7 unknown #
loop $-1 $-1 $129 $76 #
plane-surface $-1 -65.725882747886601 -20.84135477304465 3.878493672804197 -0.62932039886446345 0 0.77714595512881146 0.77714595512881146 0 0.62932039886446345 forward_v I I I I #
loop $-1 $-1 $214 $49 #
coedge $-1 $127 $127 $128 $215 reversed $77 $-1 #
coedge $-1 $128 $128 $127 $215 forward $79 $-1 #
coedge $-1 $129 $129 $80 $130 forward $124 $-1 #
edge $-1 $216 0 $216 6.2831853071796004 $129 $217 forward 7 unknown #
face $-1 $218 $219 $28 $-1 $220 forward single #
loop $-1 $-1 $221 $81 #
plane-surface $-1 81.928213499462117 16.637957712283495 197.0998278825258 0 1 0 0.7660444514056185 0 0.64278759981090561 forward_v I I I I #
coedge $-1 $222 $223 $224 $225 reversed $82 $-1 #
coedge $-1 $136 $84 $226 $227 reversed $53 $-1 #
coedge $-1 $84 $135 $222 $228 reversed $53 $-1 #
coedge $-1 $224 $229 $84 $138 forward $219 $-1 #
edge $-1 $230 -24.761775998155542 $231 -21.378017467483886 $137 $232 forward 7 unknown #
loop $-1 $-1 $144 $85 #
plane-surface $-1 -18.769682086047482 23.203576537995012 112.60426304859173 0.7660444514056185 0 0.64278759981090561 0.64278759981090561 0 -0.7660444514056185 forward_v I I I I #
loop $-1 $-1 $233 $55 #
coedge $-1 $142 $142 $143 $234 reversed $86 $-1 #
coedge $-1 $143 $143 $142 $234 forward $88 $-1 #
coedge $-1 $144 $144 $89 $145 forward $139 $-1 #
edge $-1 $235 0 $235 6.2831853071796004 $144 $236 forward 7 unknown #
loop $-1 $-1 $151 $90 #
plane-surface $-1 -18.769682086047482 23.203576537995012 112.60426304859173 0.7660444514056185 0 0.64278759981090561 0.64278759981090561 0 -0.7660444514056185 forward_v I I I I #
loop $-1 $-1 $237 $58 #
coedge $-1 $149 $149 $150 $238 reversed $91 $-1 #
coedge $-1 $150 $150 $149 $238 forward $93 $-1 #
coedge $-1 $151 $151 $94 $152 forward $146 $-1 #
edge $-1 $239 0 $239 6.2831853071796004 $151 $240 forward 7 unknown #
loop $-1 $-1 $158 $95 #
plane-surface $-1 -18.769682086047482 23.203576537995012 112.60426304859173 0.7660444514056185 0 0.64278759981090561 0.64278759981090561 0 -0.7660444514056185 forward_v I I I I #
loop $-1 $-1 $241 $61 #
coedge $-1 $156 $156 $157 $242 reversed $96 $-1 #
coedge $-1 $157 $157 $156 $242 forward $98 $-1 #
coedge $-1 $158 $158 $99 $159 forward $153 $-1 #
edge $-1 $243 0 $243 6.2831853071796004 $158 $244 forward 7 unknown #
face $-1 $245 $246 $24 $-1 $247 reversed single #
loop $-1 $-1 $248 $100 #
plane-surface $-1 -65.725882747886601 0 0 1 0 0 0 0 -1 forward_v I I I I #
coedge $-1 $249 $171 $250 $251 forward $101 $-1 #
coedge $-1 $252 $103 $249 $253 forward $65 $-1 #
coedge $-1 $103 $252 $254 $255 forward $65 $-1 #
coedge $-1 $174 $173 $103 $167 reversed $175 $-1 #
edge $-1 $256 -39.096339403281732 $257 39.096339403281732 $166 $258 forward 7 unknown #
coedge $-1 $105 $104 $259 $260 forward $41 $-1 #
coedge $-1 $261 $262 $104 $170 reversed $246 $-1 #
edge $-1 $177 -65.725882747886601 $263 65.725882747886601 $169 $264 forward 7 unknown #
coedge $-1 $163 $265 $105 $172 reversed $101 $-1 #
edge $-1 $266 -65.725882747886601 $176 65.725882747886601 $171 $267 forward 7 unknown #
coedge $-1 $166 $106 $265 $268 forward $175 $-1 #
coedge $-1 $106 $166 $261 $269 reversed $175 $-1 #
loop $-1 $-1 $173 $245 #
vertex $-1 $107 $270 #
vertex $-1 $107 $271 #
straight-curve $-1 65.725882747886601 0 15.938973954059856 0 1 0 I I #
face $-1 $272 $273 $25 $-1 $274 reversed single #
loop $-1 $-1 $275 $108 #
plane-surface $-1 -65.725882747886601 0 0 1 0 0 0 0 -1 forward_v I I I I #
coedge $-1 $276 $188 $193 $277 reversed $109 $-1 #
coedge $-1 $278 $111 $279 $280 reversed $69 $-1 #
coedge $-1 $111 $278 $276 $281 forward $69 $-1 #
coedge $-1 $193 $192 $111 $186 forward $194 $-1 #
edge $-1 $282 -22.628769091889581 $283 -10.306371530894719 $185 $284 forward 7 unknown #
coedge $-1 $113 $112 $275 $285 reversed $44 $-1 #
coedge $-1 $182 $286 $112 $189 reversed $109 $-1 #
edge $-1 $195 -65.725882747886601 $287 65.725882747886601 $188 $288 forward 7 unknown #
coedge $-1 $289 $290 $113 $191 forward $273 $-1 #
edge $-1 $196 -65.725882747886601 $291 65.725882747886601 $190 $292 forward 7 unknown #
coedge $-1 $185 $114 $290 $293 forward $194 $-1 #
coedge $-1 $114 $185 $182 $277 forward $194 $-1 #
loop $-1 $-1 $114 $272 #
vertex $-1 $115 $294 #
vertex $-1 $293 $295 #
straight-curve $-1 65.725882747886601 -16.467570311392151 -7.5405166452600056 0 -1 0 I I #
face $-1 $-1 $210 $26 $-1 $296 forward single #
loop $-1 $-1 $297 $116 #
plane-surface $-1 -65.725882747886601 0 0 1 0 0 0 0 -1 forward_v I I I I #
coedge $-1 $298 $299 $300 $301 reversed $117 $-1 #
coedge $-1 $302 $119 $121 $208 forward $73 $-1 #
coedge $-1 $119 $302 $298 $303 forward $73 $-1 #
coedge $-1 $300 $122 $119 $205 forward $210 $-1 #
edge $-1 $212 -16.353264455764542 $304 -4.4880903172801059 $204 $305 forward 7 unknown #
coedge $-1 $306 $307 $120 $207 forward $199 $-1 #
edge $-1 $308 -49.139357088388508 $211 -37.078876807132851 $206 $309 forward 7 unknown #
edge $-1 $212 -19.164292629028736 $308 0 $121 $310 forward 7 unknown #
coedge $-1 $122 $300 $306 $311 forward $210 $-1 #
loop $-1 $-1 $300 $198 #
vertex $-1 $207 $312 #
vertex $-1 $123 $313 #
straight-curve $-1 -74.225580120562256 -26.773941842286867 15.938973954059854 1 0 0 I I #
coedge $-1 $214 $214 $-1 $314 reversed $126 $-1 #
edge $-1 $315 0 $315 6.2831853071796004 $127 $316 forward 7 unknown #
vertex $-1 $130 $317 #
ellipse-curve $-1 -58.279156498109316 -20.84135477304465 9.9087338134320255 -0.62932039886446345 0 0.77714595512881146 1.1657189326932171 0 0.94398059829669512 1 I I #
face $-1 $-1 $318 $28 $-1 $319 reversed single #
loop $-1 $-1 $137 $131 #
plane-surface $-1 0 0 15.938973954059856 0 0 1 1 0 0 forward_v I I I I #
coedge $-1 $320 $321 $322 $323 reversed $132 $-1 #
coedge $-1 $324 $134 $136 $228 forward $82 $-1 #
coedge $-1 $134 $324 $320 $325 forward $82 $-1 #
coedge $-1 $322 $137 $134 $225 forward $219 $-1 #
edge $-1 $231 -18.167407094709024 $326 -5.0361694432859885 $224 $327 forward 7 unknown #
coedge $-1 $328 $329 $135 $227 forward $318 $-1 #
edge $-1 $330 -86.643546478180781 $230 -82.610939987203039 $226 $331 forward 7 unknown #
edge $-1 $231 126.18757164438735 $330 131.45176549577326 $136 $332 forward 7 unknown #
coedge $-1 $137 $322 $328 $333 forward $219 $-1 #
vertex $-1 $227 $334 #
vertex $-1 $138 $335 #
straight-curve $-1 40.964106749731059 29.76919536370653 15.938973954059861 -1 0 0 I I #
coedge $-1 $233 $233 $-1 $336 reversed $141 $-1 #
edge $-1 $337 0 $337 6.2831853071796004 $142 $338 forward 7 unknown #
vertex $-1 $145 $339 #
ellipse-curve $-1 64.034003482550773 19.264205242568103 13.922670708571012 0.7660444514056185 0 0.64278759981090561 0.64278759981090561 0 -0.7660444514056185 1 I I #
coedge $-1 $237 $237 $-1 $340 reversed $148 $-1 #
edge $-1 $341 0 $341 6.2831853071796004 $149 $342 forward 7 unknown #
vertex $-1 $152 $343 #
ellipse-curve $-1 64.034003482550773 23.203576537995012 13.922670708571012 0.7660444514056185 0 0.64278759981090561 0.64278759981090561 0 -0.7660444514056185 1 I I #
coedge $-1 $241 $241 $-1 $344 reversed $155 $-1 #
edge $-1 $345 0 $345 6.2831853071796004 $156 $346 forward 7 unknown #
vertex $-1 $159 $347 #
ellipse-curve $-1 64.034003482550773 27.142947833421928 13.922670708571012 0.7660444514056185 0 0.64278759981090561 0.64278759981090561 0 -0.7660444514056185 1 I I #
face $-1 $-1 $175 $24 $-1 $348 reversed single #
loop $-1 $-1 $261 $160 #
plane-surface $-1 0 39.096339403281732 0 0 -1 0 0 0 -1 forward_v I I I I #
coedge $-1 $349 $259 $262 $350 forward $161 $-1 #
coedge $-1 $265 $163 $164 $253 reversed $101 $-1 #
coedge $-1 $259 $349 $163 $251 reversed $161 $-1 #
edge $-1 $266 -15.938973954059856 $351 15.938973954059856 $250 $352 forward 7 unknown #
coedge $-1 $165 $164 $349 $353 forward $65 $-1 #
edge $-1 $257 -65.725882747886601 $351 65.725882747886601 $249 $354 forward 7 unknown #
coedge $-1 $262 $261 $165 $255 reversed $246 $-1 #
edge $-1 $355 -65.725882747886601 $256 65.725882747886601 $254 $356 forward 7 unknown #
vertex $-1 $167 $357 #
vertex $-1 $268 $358 #
straight-curve $-1 65.725882747886601 0 -15.938973954059856 0 -1 0 I I #
coedge $-1 $248 $250 $168 $260 reversed $161 $-1 #
edge $-1 $263 -39.096339403281732 $266 39.096339403281732 $259 $359 forward 7 unknown #
coedge $-1 $254 $169 $174 $269 forward $246 $-1 #
coedge $-1 $169 $254 $248 $350 reversed $246 $-1 #
vertex $-1 $170 $360 #
straight-curve $-1 0 39.096339403281732 15.938973954059856 -1 0 0 I I #
coedge $-1 $171 $249 $173 $268 reversed $101 $-1 #
vertex $-1 $260 $361 #
straight-curve $-1 0 -39.096339403281732 15.938973954059856 1 0 0 I I #
edge $-1 $176 -15.938973954059856 $257 15.938973954059856 $173 $362 forward 7 unknown #
edge $-1 $177 -15.938973954059856 $256 15.938973954059856 $174 $363 forward 7 unknown #
point $-1 65.725882747886601 -39.096339403281732 15.938973954059856 #
point $-1 65.725882747886601 39.096339403281732 15.938973954059856 #
face $-1 $-1 $194 $25 $-1 $364 reversed single #
loop $-1 $-1 $190 $179 #
plane-surface $-1 0 -39.096339403281732 0 0 1 0 0 0 1 forward_v I I I I #
coedge $-1 $365 $366 $187 $285 forward $180 $-1 #
coedge $-1 $286 $182 $184 $281 reversed $109 $-1 #
edge $-1 $283 -8.2336039557843748 $195 -2.2824764449118788 $193 $367 forward 7 unknown #
coedge $-1 $184 $183 $368 $369 reversed $69 $-1 #
coedge $-1 $290 $289 $183 $280 forward $273 $-1 #
edge $-1 $370 -65.725882747886601 $282 65.725882747886601 $279 $371 forward 7 unknown #
edge $-1 $372 -65.725882747886601 $283 65.725882747886601 $276 $373 forward 7 unknown #
vertex $-1 $280 $374 #
vertex $-1 $186 $375 #
straight-curve $-1 65.725882747886601 -16.467570311392151 -13.491644156132502 0 1 0 I I #
edge $-1 $291 -22.628769091889581 $287 -10.306371530894719 $275 $376 forward 7 unknown #
coedge $-1 $188 $276 $365 $377 reversed $109 $-1 #
vertex $-1 $285 $378 #
straight-curve $-1 0 -26.77394184228687 -7.5405166452600056 -1 0 0 I I #
coedge $-1 $279 $190 $366 $379 forward $273 $-1 #
coedge $-1 $190 $279 $192 $293 reversed $273 $-1 #
vertex $-1 $379 $380 #
straight-curve $-1 0 -39.096339403281732 -7.5405166452600056 -1 0 0 I I #
edge $-1 $196 7.5405166452600056 $282 13.491644156132502 $192 $381 forward 7 unknown #
point $-1 65.725882747886601 -26.77394184228687 -7.5405166452600056 #
point $-1 65.725882747886601 -39.096339403281732 -7.5405166452600056 #
plane-surface $-1 0 0 15.938973954059856 0 0 1 1 0 0 forward_v I I I I #
coedge $-1 $307 $306 $299 $382 forward $199 $-1 #
coedge $-1 $299 $201 $203 $303 reversed $117 $-1 #
coedge $-1 $201 $298 $297 $382 reversed $117 $-1 #
coedge $-1 $209 $204 $201 $301 forward $210 $-1 #
edge $-1 $304 -23.393149872230232 $383 -8.4996973726756551 $300 $384 forward 7 unknown #
coedge $-1 $203 $202 $307 $385 reversed $73 $-1 #
edge $-1 $386 0 $304 19.164292629028736 $298 $387 forward 7 unknown #
vertex $-1 $205 $388 #
straight-curve $-1 -50.832430248332031 -10.420677386522325 15.938973954059856 0 1 0 I I #
coedge $-1 $297 $206 $209 $311 reversed $199 $-1 #
coedge $-1 $206 $297 $302 $385 forward $199 $-1 #
vertex $-1 $207 $389 #
straight-curve $-1 -65.725882747886601 -26.773941842286867 53.017850761192705 0 0 1 I I #
straight-curve $-1 -65.725882747886601 -26.773941842286867 3.878493672804197 -0.77714595512881146 0 -0.62932039886446345 I I #
edge $-1 $383 14.908767703802431 $211 26.773941842286867 $306 $390 forward 7 unknown #
point $-1 -65.725882747886601 -26.773941842286867 15.938973954059856 #
point $-1 -50.832430248332024 -26.773941842286867 15.938973954059856 #
edge $-1 $391 1 $391 0 $214 $-1 forward 7 unknown #
vertex $-1 $215 $392 #
ellipse-curve $-1 -55.49117705537234 -20.84135477304465 6.4658659979046451 -0.62932039886446345 0 0.77714595512881146 1.1657189326932171 0 0.94398059829669512 1 I I #
point $-1 -57.113437565416106 -20.84135477304465 10.852714411728734 #
loop $-1 $-1 $226 $218 #
plane-surface $-1 65.725882747886601 0 0 -1 0 0 0 0 1 forward_v I I I I #
coedge $-1 $321 $221 $223 $325 reversed $132 $-1 #
coedge $-1 $221 $320 $393 $394 reversed $132 $-1 #
coedge $-1 $229 $224 $221 $323 forward $219 $-1 #
edge $-1 $326 21.378017467483886 $395 24.761775998155542 $322 $396 forward 7 unknown #
coedge $-1 $223 $222 $329 $397 reversed $82 $-1 #
edge $-1 $398 -131.45176549577326 $326 -126.18757164438735 $320 $399 forward 7 unknown #
vertex $-1 $225 $400 #
straight-curve $-1 62.342124217214945 11.601788268997506 15.938973954059847 0 -1 0 I I #
coedge $-1 $393 $226 $229 $333 reversed $318 $-1 #
coedge $-1 $226 $393 $324 $397 forward $318 $-1 #
vertex $-1 $227 $401 #
straight-curve $-1 65.725882747886601 29.76919536370653 98.549913941262901 0 0 1 I I #
straight-curve $-1 -18.769682086047482 29.76919536370653 112.60426304859173 0.64278759981090561 0 -0.7660444514056185 I I #
edge $-1 $395 16.637957712283495 $230 29.76919536370653 $328 $402 forward 7 unknown #
point $-1 65.725882747886601 29.76919536370653 15.938973954059856 #
point $-1 62.342124217214945 29.76919536370653 15.938973954059861 #
edge $-1 $403 1 $403 0 $233 $-1 forward 7 unknown #
vertex $-1 $234 $404 #
ellipse-curve $-1 61.415817986247596 19.264205242568103 11.725752281787273 0.7660444514056185 0 0.64278759981090561 0.64278759981090561 0 -0.7660444514056185 1 I I #
point $-1 64.676791082361689 19.264205242568103 13.156626257165405 #
edge $-1 $405 1 $405 0 $237 $-1 forward 7 unknown #
vertex $-1 $238 $406 #
ellipse-curve $-1 61.415817986247596 23.203576537995012 11.725752281787273 0.7660444514056185 0 0.64278759981090561 0.64278759981090561 0 -0.7660444514056185 1 I I #
point $-1 64.676791082361689 23.203576537995012 13.156626257165405 #
edge $-1 $407 1 $407 0 $241 $-1 forward 7 unknown #
vertex $-1 $242 $408 #
ellipse-curve $-1 61.415817986247596 27.142947833421928 11.725752281787273 0.7660444514056185 0 0.64278759981090561 0.64278759981090561 0 -0.7660444514056185 1 I I #
point $-1 64.676791082361689 27.142947833421928 13.156626257165405 #
plane-surface $-1 65.725882747886601 0 0 -1 0 0 0 0 1 forward_v I I I I #
coedge $-1 $250 $248 $252 $353 reversed $161 $-1 #
edge $-1 $263 -15.938973954059856 $355 15.938973954059856 $262 $409 forward 7 unknown #
vertex $-1 $353 $410 #
straight-curve $-1 -65.725882747886601 -39.096339403281732 0 0 0 -1 I I #
edge $-1 $351 -39.096339403281732 $355 39.096339403281732 $349 $411 forward 7 unknown #
straight-curve $-1 0 -39.096339403281732 -15.938973954059856 -1 0 0 I I #
vertex $-1 $255 $412 #
straight-curve $-1 0 39.096339403281732 -15.938973954059856 1 0 0 I I #
point $-1 65.725882747886601 39.096339403281732 -15.938973954059856 #
point $-1 65.725882747886601 -39.096339403281732 -15.938973954059856 #
straight-curve $-1 -65.725882747886601 0 15.938973954059856 0 -1 0 I I #
point $-1 -65.725882747886601 39.096339403281732 15.938973954059856 #
point $-1 -65.725882747886601 -39.096339403281732 15.938973954059856 #
straight-curve $-1 65.725882747886601 -39.096339403281732 0 0 0 -1 I I #
straight-curve $-1 65.725882747886601 39.096339403281732 0 0 0 -1 I I #
plane-surface $-1 65.725882747886601 0 0 -1 0 0 0 0 1 forward_v I I I I #
coedge $-1 $368 $275 $286 $377 forward $180 $-1 #
coedge $-1 $275 $368 $289 $379 reversed $180 $-1 #
straight-curve $-1 65.725882747886601 -26.77394184228687 -5.2580402003481268 0 0 1 I I #
coedge $-1 $366 $365 $278 $369 forward $180 $-1 #
edge $-1 $372 10.306371530894719 $370 22.628769091889581 $368 $413 forward 7 unknown #
vertex $-1 $280 $414 #
straight-curve $-1 0 -39.096339403281732 -13.491644156132502 1 0 0 I I #
vertex $-1 $369 $415 #
straight-curve $-1 0 -26.77394184228687 -13.491644156132502 1 0 0 I I #
point $-1 65.725882747886601 -39.096339403281732 -13.491644156132502 #
point $-1 65.725882747886601 -26.77394184228687 -13.491644156132502 #
straight-curve $-1 -65.725882747886601 -16.467570311392151 -7.5405166452600056 0 1 0 I I #
edge $-1 $287 2.2824764449118788 $372 8.2336039557843748 $365 $416 forward 7 unknown #
point $-1 -65.725882747886601 -26.77394184228687 -7.5405166452600056 #
edge $-1 $291 7.5405166452600056 $370 13.491644156132502 $366 $417 forward 7 unknown #
point $-1 -65.725882747886601 -39.096339403281732 -7.5405166452600056 #
straight-curve $-1 65.725882747886601 -39.096339403281732 0 0 0 -1 I I #
edge $-1 $383 37.078876807132851 $386 49.139357088388508 $297 $418 forward 7 unknown #
vertex $-1 $311 $419 #
straight-curve $-1 -74.225580120562256 -14.908767703802431 15.938973954059854 -1 0 0 I I #
edge $-1 $386 4.4880903172801059 $308 16.353264455764542 $307 $420 forward 7 unknown #
vertex $-1 $385 $421 #
straight-curve $-1 -65.725882747886601 -14.908767703802431 3.878493672804197 0.77714595512881146 0 0.62932039886446345 I I #
point $-1 -50.832430248332024 -14.908767703802431 15.938973954059856 #
point $-1 -65.725882747886601 -26.773941842286867 3.878493672804197 #
straight-curve $-1 -65.725882747886601 0 15.938973954059856 0 -1 0 I I #
vertex $-1 $314 $422 #
point $-1 -54.325458122679123 -20.84135477304465 7.4098465962013407 #
coedge $-1 $329 $328 $321 $394 forward $318 $-1 #
edge $-1 $395 82.610939987203039 $398 86.643546478180781 $393 $423 forward 7 unknown #
vertex $-1 $333 $424 #
straight-curve $-1 40.964106749731059 16.637957712283495 15.938973954059861 1 0 0 I I #
edge $-1 $398 5.0361694432859885 $330 18.167407094709024 $329 $425 forward 7 unknown #
vertex $-1 $397 $426 #
straight-curve $-1 -18.769682086047482 16.637957712283495 112.60426304859173 -0.64278759981090561 0 0.7660444514056185 I I #
point $-1 62.342124217214945 16.637957712283495 15.938973954059861 #
point $-1 65.725882747886601 29.76919536370653 11.90636746308212 #
straight-curve $-1 65.725882747886601 0 15.938973954059856 0 1 0 I I #
vertex $-1 $336 $427 #
point $-1 62.058605586058505 19.264205242568103 10.959707830381655 #
vertex $-1 $340 $428 #
point $-1 62.058605586058505 23.203576537995012 10.959707830381655 #
vertex $-1 $344 $429 #
point $-1 62.058605586058505 27.142947833421928 10.959707830381655 #
straight-curve $-1 -65.725882747886601 39.096339403281732 0 0 0 -1 I I #
point $-1 -65.725882747886601 -39.096339403281732 -15.938973954059856 #
straight-curve $-1 -65.725882747886601 0 -15.938973954059856 0 1 0 I I #
point $-1 -65.725882747886601 39.096339403281732 -15.938973954059856 #
straight-curve $-1 -65.725882747886601 -16.467570311392151 -13.491644156132502 0 -1 0 I I #
point $-1 -65.725882747886601 -39.096339403281732 -13.491644156132502 #
point $-1 -65.725882747886601 -26.77394184228687 -13.491644156132502 #
straight-curve $-1 -65.725882747886601 -26.77394184228687 -5.2580402003481268 0 0 -1 I I #
straight-curve $-1 -65.725882747886601 -39.096339403281732 0 0 0 -1 I I #
straight-curve $-1 -65.725882747886601 -14.908767703802431 53.017850761192705 0 0 -1 I I #
point $-1 -65.725882747886601 -14.908767703802431 15.938973954059856 #
straight-curve $-1 -65.725882747886601 -10.420677386522325 3.8784936728041957 0 -1 0 I I #
point $-1 -65.725882747886601 -14.908767703802431 3.878493672804197 #
point $-1 -54.54719645707565 -20.84135477304465 5.3001470652114282 #
straight-curve $-1 65.725882747886601 16.637957712283495 98.549913941262901 0 0 -1 I I #
point $-1 65.725882747886601 16.637957712283495 15.938973954059856 #
straight-curve $-1 65.725882747886601 11.601788268997506 11.906367463082134 0 1 0 I I #
point $-1 65.725882747886601 16.637957712283495 11.90636746308212 #
point $-1 60.649773534841977 19.264205242568103 11.082964681976367 #
point $-1 60.649773534841977 23.203576537995012 11.082964681976367 #
point $-1 60.649773534841977 27.142947833421928 11.082964681976367 #
End-of-ACIS-data 