500 0 9 0           
7 Unknown 11 ACIS 5.0 NT 24 Thu Mar 25 23:07:21 1999 
-1 9.9999999999999995e-007 1e-010 
body $-1 $9 $-1 $10 #
body $-1 $11 $-1 $12 #
body $-1 $13 $-1 $14 #
body $-1 $15 $-1 $16 #
body $-1 $17 $-1 $18 #
body $-1 $19 $-1 $20 #
body $-1 $21 $-1 $22 #
body $-1 $23 $-1 $24 #
body $-1 $25 $-1 $26 #
lump $-1 $-1 $27 $0 #
transform $-1 1 0 0 0 1 0 0 0 1 70.641804254280217 49.006875874111806 21.774535513278799 1 rotate no_reflect no_shear #
lump $-1 $-1 $28 $1 #
transform $-1 1 0 0 0 1 0 0 0 1 70.641804254280217 49.006875874111806 21.774535513278799 1 rotate no_reflect no_shear #
lump $-1 $-1 $29 $2 #
transform $-1 1 0 0 0 1 0 0 0 1 70.641804254280217 49.006875874111806 21.774535513278799 1 rotate no_reflect no_shear #
lump $-1 $-1 $30 $3 #
transform $-1 1 0 0 0 1 0 0 0 1 70.641804254280217 49.006875874111806 21.774535513278799 1 rotate no_reflect no_shear #
lump $-1 $-1 $31 $4 #
transform $-1 1 0 0 0 1 0 0 0 1 70.641804254280217 49.006875874111806 21.774535513278799 1 rotate no_reflect no_shear #
lump $-1 $-1 $32 $5 #
transform $-1 1 0 0 0 1 0 0 0 1 70.641804254280217 49.006875874111806 21.774535513278799 1 rotate no_reflect no_shear #
lump $-1 $-1 $33 $6 #
transform $-1 1 0 0 0 1 0 0 0 1 70.641804254280217 49.006875874111806 21.774535513278799 1 rotate no_reflect no_shear #
lump $-1 $-1 $34 $7 #
transform $-1 1 0 0 0 1 0 0 0 1 70.641804254280217 49.006875874111806 21.774535513278799 1 rotate no_reflect no_shear #
lump $-1 $-1 $35 $8 #
transform $-1 1 0 0 0 1 0 0 0 1 70.641804254280217 49.006875874111806 21.774535513278799 1 rotate no_reflect no_shear #
shell $-1 $-1 $-1 $36 $-1 $9 #
shell $-1 $-1 $-1 $37 $-1 $11 #
shell $-1 $-1 $-1 $38 $-1 $13 #
shell $-1 $-1 $-1 $39 $-1 $15 #
shell $-1 $-1 $-1 $40 $-1 $17 #
shell $-1 $-1 $-1 $41 $-1 $19 #
shell $-1 $-1 $-1 $42 $-1 $21 #
shell $-1 $-1 $-1 $43 $-1 $23 #
shell $-1 $-1 $-1 $44 $-1 $25 #
face $-1 $45 $46 $27 $-1 $47 forward single #
face $-1 $48 $49 $28 $-1 $50 forward single #
face $-1 $51 $52 $29 $-1 $53 forward single #
face $-1 $54 $55 $30 $-1 $56 reversed single #
face $-1 $57 $58 $31 $-1 $59 forward single #
face $-1 $60 $61 $32 $-1 $62 forward single #
face $-1 $63 $64 $33 $-1 $65 reversed single #
face $-1 $66 $67 $34 $-1 $68 forward single #
face $-1 $69 $70 $35 $-1 $71 forward single #
face $-1 $72 $73 $27 $-1 $74 reversed single #
loop $-1 $-1 $75 $36 #
plane-surface $-1 0 0 21.774535513278799 0 0 1 1 0 0 forward_v I I I I #
face $-1 $76 $77 $28 $-1 $78 reversed single #
loop $-1 $-1 $79 $37 #
plane-surface $-1 -59.773169817010682 0 21.274535513278799 0 0 1 1 0 0 forward_v I I I I #
face $-1 $80 $81 $29 $-1 $82 reversed single #
loop $-1 $-1 $83 $38 #
plane-surface $-1 59.773169817010668 0 21.274535513278799 0 0 1 1 0 0 forward_v I I I I #
face $-1 $84 $85 $30 $-1 $86 reversed single #
loop $-1 $-1 $87 $39 #
plane-surface $-1 12.131209328366729 88.417059394676613 177.31263185706632 -1 0 0 0 0.74314483375859142 0.66913059716165679 forward_v I I I I #
face $-1 $88 $89 $31 $-1 $90 forward single #
loop $-1 $91 $92 $40 #
cone-surface $-1 -8.7349162375919178 40.722674013337794 13.195149442457584 0 -0.74314483375859142 -0.66913059716165679 3 0 0 1 I I 0 1 3 forward I I I I #
face $-1 $93 $94 $32 $-1 $95 forward single #
loop $-1 $96 $97 $41 #
cone-surface $-1 3.7847591019832691 40.722674013337794 13.195149442457584 0 -0.74314483375859142 -0.66913059716165679 3 0 0 1 I I 0 1 3 forward I I I I #
face $-1 $98 $99 $33 $-1 $100 reversed single #
loop $-1 $-1 $101 $42 #
plane-surface $-1 -23.574813777867138 -155.63496991500602 108.87681189241039 1 0 0 0 0.75470958851134928 -0.65605901945558964 forward_v I I I I #
face $-1 $102 $103 $34 $-1 $104 forward single #
loop $-1 $105 $106 $43 #
cone-surface $-1 -18.1621793976758 -45.846110955488257 18.344223553776857 0 0.75470958851134928 -0.65605901945558964 1 0 0 1 I I 0 1 1 forward I I I I #
face $-1 $107 $108 $35 $-1 $109 forward single #
loop $-1 $110 $111 $44 #
cone-surface $-1 -10.043227827388783 -45.846110955488257 18.344223553776857 0 0.75470958851134928 -0.65605901945558964 1 0 0 1 I I 0 1 1 forward I I I I #
face $-1 $112 $113 $27 $-1 $114 reversed single #
loop $-1 $-1 $115 $45 #
plane-surface $-1 0 0 -21.774535513278799 0 0 1 1 0 0 forward_v I I I I #
coedge $-1 $116 $117 $118 $119 forward $46 $-1 #
face $-1 $120 $121 $28 $-1 $122 reversed single #
loop $-1 $-1 $123 $48 #
plane-surface $-1 -59.773169817010682 0 11.303317355475265 0 0 1 1 0 0 forward_v I I I I #
coedge $-1 $124 $125 $126 $127 forward $49 $-1 #
face $-1 $128 $129 $29 $-1 $130 reversed single #
loop $-1 $-1 $131 $51 #
plane-surface $-1 59.773169817010668 0 11.303317355475265 0 0 1 1 0 0 forward_v I I I I #
coedge $-1 $132 $133 $134 $135 reversed $52 $-1 #
face $-1 $136 $137 $30 $-1 $138 reversed single #
loop $-1 $-1 $139 $54 #
plane-surface $-1 -2.4750785678043172 -16.57712436323142 82.775446526579557 0 0.74314483375859142 0.66913059716165679 1 0 0 forward_v I I I I #
coedge $-1 $140 $141 $142 $143 reversed $55 $-1 #
face $-1 $-1 $144 $31 $-1 $145 forward single #
loop $-1 $146 $147 $57 #
cone-surface $-1 -8.7349162375919178 36.653022212988098 9.5308185937382532 0 -0.74314483375859142 -0.66913059716165679 1.5 0 0 1 I I -0.70710678118654757 0.70710678118654757 1.5 forward I I I I #
loop $-1 $-1 $148 $40 #
coedge $-1 $92 $92 $149 $150 reversed $58 $-1 #
face $-1 $-1 $151 $32 $-1 $152 forward single #
loop $-1 $153 $154 $60 #
cone-surface $-1 3.7847591019832691 36.653022212988098 9.5308185937382532 0 -0.74314483375859142 -0.66913059716165679 1.5 0 0 1 I I -0.70710678118654757 0.70710678118654757 1.5 forward I I I I #
loop $-1 $-1 $155 $41 #
coedge $-1 $97 $97 $156 $157 reversed $61 $-1 #
face $-1 $158 $159 $33 $-1 $160 reversed single #
loop $-1 $-1 $161 $63 #
plane-surface $-1 -14.102703612532281 -49.006875874111813 16.186426229136828 0 -0.75470958851134928 0.65605901945558964 1 0 0 forward_v I I I I #
coedge $-1 $162 $163 $164 $165 reversed $64 $-1 #
face $-1 $-1 $166 $34 $-1 $167 forward single #
loop $-1 $168 $169 $66 #
cone-surface $-1 -18.1621793976758 -44.736825825720828 17.379936726618119 0 0.75470958851134928 -0.65605901945558964 0.5 0 0 1 I I -0.70710678118654746 0.70710678118654746 0.5 forward I I I I #
loop $-1 $-1 $170 $43 #
coedge $-1 $106 $106 $171 $172 reversed $67 $-1 #
face $-1 $-1 $173 $35 $-1 $174 forward single #
loop $-1 $175 $176 $69 #
cone-surface $-1 -10.043227827388783 -44.736825825720828 17.379936726618119 0 0.75470958851134928 -0.65605901945558964 0.5 0 0 1 I I -0.70710678118654746 0.70710678118654746 0.5 forward I I I I #
loop $-1 $-1 $177 $44 #
coedge $-1 $111 $111 $178 $179 reversed $70 $-1 #
face $-1 $180 $181 $27 $-1 $182 reversed single #
loop $-1 $-1 $183 $72 #
plane-surface $-1 0 -49.006875874111806 0 0 1 0 0 0 1 forward_v I I I I #
coedge $-1 $184 $185 $186 $187 forward $73 $-1 #
coedge $-1 $188 $75 $189 $190 forward $46 $-1 #
coedge $-1 $75 $188 $191 $192 forward $46 $-1 #
coedge $-1 $193 $194 $75 $119 reversed $195 $-1 #
edge $-1 $196 -49.006875874111806 $197 49.006875874111806 $118 $198 forward 7 unknown #
face $-1 $199 $200 $28 $-1 $201 reversed single #
loop $-1 $-1 $202 $76 #
plane-surface $-1 -48.904535379741148 0 16.288926434377032 -1 0 0 0 0 1 forward_v I I I I #
coedge $-1 $203 $204 $205 $206 forward $77 $-1 #
coedge $-1 $207 $79 $208 $209 reversed $49 $-1 #
coedge $-1 $79 $207 $210 $211 reversed $49 $-1 #
coedge $-1 $202 $212 $79 $127 reversed $121 $-1 #
edge $-1 $213 -49.006875874111806 $214 49.006875874111806 $126 $215 forward 7 unknown #
face $-1 $216 $217 $29 $-1 $218 reversed single #
loop $-1 $-1 $219 $80 #
plane-surface $-1 48.904535379741134 0 16.288926434377032 1 0 0 0 0 -1 forward_v I I I I #
coedge $-1 $220 $221 $222 $223 reversed $81 $-1 #
coedge $-1 $224 $83 $225 $226 reversed $52 $-1 #
coedge $-1 $83 $224 $227 $228 reversed $52 $-1 #
coedge $-1 $229 $230 $83 $135 forward $231 $-1 #
edge $-1 $232 -49.006875874111806 $233 49.006875874111806 $134 $234 forward 7 unknown #
face $-1 $235 $236 $30 $-1 $237 reversed single #
loop $-1 $-1 $238 $84 #
plane-surface $-1 -17.081366463975364 88.417059394676613 177.31263185706632 1 0 0 0 -0.74314483375859142 -0.66913059716165679 forward_v I I I I #
coedge $-1 $239 $240 $241 $242 reversed $85 $-1 #
coedge $-1 $141 $87 $243 $244 reversed $55 $-1 #
coedge $-1 $87 $140 $239 $245 reversed $55 $-1 #
coedge $-1 $241 $246 $87 $143 forward $236 $-1 #
edge $-1 $247 66.881780415254354 $248 78.719282650943057 $142 $249 forward 7 unknown #
loop $-1 $-1 $149 $88 #
plane-surface $-1 -2.4750785678043172 -16.57712436323142 82.775446526579557 0 0.74314483375859142 0.66913059716165679 1 0 0 forward_v I I I I #
loop $-1 $-1 $250 $57 #
coedge $-1 $147 $147 $148 $251 reversed $89 $-1 #
coedge $-1 $148 $148 $147 $251 forward $91 $-1 #
coedge $-1 $149 $149 $92 $150 forward $144 $-1 #
edge $-1 $252 -5.294584176961491e-016 $252 6.2831853071795996 $149 $253 forward 7 unknown #
loop $-1 $-1 $156 $93 #
plane-surface $-1 -2.4750785678043172 -16.57712436323142 82.775446526579557 0 0.74314483375859142 0.66913059716165679 1 0 0 forward_v I I I I #
loop $-1 $-1 $254 $60 #
coedge $-1 $154 $154 $155 $255 reversed $94 $-1 #
coedge $-1 $155 $155 $154 $255 forward $96 $-1 #
coedge $-1 $156 $156 $97 $157 forward $151 $-1 #
edge $-1 $256 -5.294584176961491e-016 $256 6.2831853071795996 $156 $257 forward 7 unknown #
face $-1 $258 $259 $33 $-1 $260 forward single #
loop $-1 $-1 $261 $98 #
plane-surface $-1 -4.6305934471974233 -155.63496991500602 108.87681189241039 -1 0 0 0 -0.75470958851134928 0.65605901945558964 forward_v I I I I #
coedge $-1 $262 $263 $264 $265 reversed $99 $-1 #
coedge $-1 $163 $101 $266 $267 reversed $64 $-1 #
coedge $-1 $101 $162 $262 $268 reversed $64 $-1 #
coedge $-1 $264 $269 $101 $165 forward $270 $-1 #
edge $-1 $271 32.663870432926394 $272 38.251979717068359 $164 $273 forward 7 unknown #
loop $-1 $-1 $171 $102 #
plane-surface $-1 -14.102703612532281 -49.006875874111813 16.186426229136828 0 -0.75470958851134928 0.65605901945558964 1 0 0 forward_v I I I I #
loop $-1 $-1 $274 $66 #
coedge $-1 $169 $169 $170 $275 reversed $103 $-1 #
coedge $-1 $170 $170 $169 $275 forward $105 $-1 #
coedge $-1 $171 $171 $106 $172 forward $166 $-1 #
edge $-1 $276 1.279358174202766e-015 $276 6.2831853071796013 $171 $277 forward 7 unknown #
loop $-1 $-1 $178 $107 #
plane-surface $-1 -14.102703612532281 -49.006875874111813 16.186426229136828 0 -0.75470958851134928 0.65605901945558964 1 0 0 forward_v I I I I #
loop $-1 $-1 $278 $69 #
coedge $-1 $176 $176 $177 $279 reversed $108 $-1 #
coedge $-1 $177 $177 $176 $279 forward $110 $-1 #
coedge $-1 $178 $178 $111 $179 forward $173 $-1 #
edge $-1 $280 1.279358174202766e-015 $280 6.2831853071796013 $178 $281 forward 7 unknown #
face $-1 $282 $283 $27 $-1 $284 reversed single #
loop $-1 $-1 $285 $112 #
plane-surface $-1 -70.641804254280217 0 0 1 0 0 0 0 -1 forward_v I I I I #
coedge $-1 $286 $191 $287 $288 forward $113 $-1 #
coedge $-1 $289 $115 $286 $290 forward $73 $-1 #
coedge $-1 $115 $289 $291 $292 forward $73 $-1 #
coedge $-1 $194 $193 $115 $187 reversed $195 $-1 #
edge $-1 $293 -49.006875874111806 $294 49.006875874111806 $186 $295 forward 7 unknown #
coedge $-1 $117 $116 $296 $297 forward $46 $-1 #
coedge $-1 $298 $299 $116 $190 reversed $283 $-1 #
edge $-1 $197 -70.641804254280217 $300 70.641804254280217 $189 $301 forward 7 unknown #
coedge $-1 $183 $302 $117 $192 reversed $113 $-1 #
edge $-1 $303 -70.641804254280217 $196 70.641804254280217 $191 $304 forward 7 unknown #
coedge $-1 $186 $118 $302 $305 forward $195 $-1 #
coedge $-1 $118 $186 $298 $306 reversed $195 $-1 #
loop $-1 $-1 $193 $282 #
vertex $-1 $119 $307 #
vertex $-1 $119 $308 #
straight-curve $-1 70.641804254280217 0 21.774535513278799 0 1 0 I I #
face $-1 $309 $310 $28 $-1 $311 reversed single #
loop $-1 $-1 $312 $120 #
plane-surface $-1 0 -49.006875874111806 0 0 1 0 0 0 1 forward_v I I I I #
coedge $-1 $205 $126 $313 $314 reversed $121 $-1 #
coedge $-1 $315 $123 $312 $316 reversed $77 $-1 #
coedge $-1 $123 $315 $317 $318 reversed $77 $-1 #
coedge $-1 $212 $202 $123 $206 reversed $121 $-1 #
edge $-1 $319 -49.006875874111806 $320 49.006875874111806 $205 $321 forward 7 unknown #
coedge $-1 $125 $124 $322 $323 reversed $49 $-1 #
coedge $-1 $324 $325 $124 $209 forward $326 $-1 #
edge $-1 $327 -40.755219345774876 $214 -19.017950471235807 $208 $328 forward 7 unknown #
coedge $-1 $329 $313 $125 $211 forward $200 $-1 #
edge $-1 $213 19.017950471235807 $330 40.755219345774876 $210 $331 forward 7 unknown #
coedge $-1 $126 $205 $324 $332 reversed $121 $-1 #
vertex $-1 $211 $333 #
vertex $-1 $209 $334 #
straight-curve $-1 -48.904535379741148 0 21.274535513278799 0 1 0 I I #
face $-1 $335 $336 $29 $-1 $337 reversed single #
loop $-1 $-1 $227 $128 #
plane-surface $-1 0 -49.006875874111806 0 0 1 0 0 0 1 forward_v I I I I #
coedge $-1 $338 $339 $340 $341 reversed $129 $-1 #
coedge $-1 $342 $131 $343 $344 reversed $81 $-1 #
coedge $-1 $131 $342 $345 $346 reversed $81 $-1 #
coedge $-1 $230 $229 $131 $223 forward $231 $-1 #
edge $-1 $347 -49.006875874111806 $348 49.006875874111806 $222 $349 forward 7 unknown #
coedge $-1 $133 $132 $339 $350 forward $52 $-1 #
coedge $-1 $351 $340 $132 $226 forward $336 $-1 #
edge $-1 $352 19.0179504712358 $232 40.755219345774869 $225 $353 forward 7 unknown #
coedge $-1 $354 $355 $133 $228 forward $217 $-1 #
edge $-1 $233 -40.755219345774869 $356 -19.0179504712358 $227 $357 forward 7 unknown #
coedge $-1 $222 $134 $355 $358 forward $231 $-1 #
coedge $-1 $134 $222 $351 $359 reversed $231 $-1 #
loop $-1 $-1 $134 $335 #
vertex $-1 $359 $360 #
vertex $-1 $358 $361 #
straight-curve $-1 70.641804254280217 0 21.274535513278799 0 -1 0 I I #
face $-1 $-1 $362 $30 $-1 $363 forward single #
loop $-1 $-1 $142 $136 #
plane-surface $-1 0 49.006875874111806 0 0 -1 0 0 0 -1 forward_v I I I I #
coedge $-1 $364 $365 $366 $367 reversed $137 $-1 #
coedge $-1 $368 $139 $141 $245 forward $85 $-1 #
coedge $-1 $139 $368 $364 $369 forward $85 $-1 #
coedge $-1 $366 $142 $139 $242 forward $236 $-1 #
edge $-1 $248 -13.368748612268888 $370 15.843827180073205 $241 $371 forward 7 unknown #
coedge $-1 $372 $373 $140 $244 forward $362 $-1 #
edge $-1 $374 -5.8601884453509001 $247 4.7983461767734994 $243 $375 forward 7 unknown #
edge $-1 $248 -98.013751748223569 $374 -82.084821480595437 $141 $376 forward 7 unknown #
coedge $-1 $142 $366 $372 $377 reversed $236 $-1 #
vertex $-1 $377 $378 #
vertex $-1 $143 $379 #
straight-curve $-1 12.131209328366729 49.006875874111806 88.656315928533161 0 0 -1 I I #
coedge $-1 $250 $250 $-1 $380 reversed $146 $-1 #
edge $-1 $381 0 $381 6.2831853071796004 $147 $382 forward 7 unknown #
vertex $-1 $150 $383 #
ellipse-curve $-1 -8.7349162375919178 43.677608563049617 15.855784395434439 0 0.74314483375859142 0.66913059716165679 3 0 0 1 I I #
coedge $-1 $254 $254 $-1 $384 reversed $153 $-1 #
edge $-1 $385 0 $385 6.2831853071796004 $154 $386 forward 7 unknown #
vertex $-1 $157 $387 #
ellipse-curve $-1 3.7847591019832691 43.677608563049617 15.855784395434439 0 0.74314483375859142 0.66913059716165679 3 0 0 1 I I #
face $-1 $-1 $270 $33 $-1 $388 reversed single #
loop $-1 $-1 $389 $158 #
plane-surface $-1 0 0 21.774535513278799 0 0 1 1 0 0 forward_v I I I I #
coedge $-1 $390 $391 $392 $393 reversed $159 $-1 #
coedge $-1 $394 $161 $163 $268 forward $99 $-1 #
coedge $-1 $161 $394 $390 $395 forward $99 $-1 #
coedge $-1 $392 $164 $161 $265 forward $270 $-1 #
edge $-1 $272 -16.523461971600998 $396 2.4207583590687172 $264 $397 forward 7 unknown #
coedge $-1 $398 $399 $162 $267 forward $259 $-1 #
edge $-1 $400 -33.668278249614765 $271 -28.810609083391206 $266 $401 forward 7 unknown #
edge $-1 $272 1.0024113862292973e-014 $400 7.4043173284235246 $163 $402 forward 7 unknown #
coedge $-1 $164 $392 $398 $403 reversed $270 $-1 #
loop $-1 $-1 $392 $258 #
vertex $-1 $403 $404 #
vertex $-1 $165 $405 #
straight-curve $-1 -23.574813777867138 -49.006875874111806 54.438405946205194 0 0 -1 I I #
coedge $-1 $274 $274 $-1 $406 reversed $168 $-1 #
edge $-1 $407 0 $407 6.2831853071796004 $169 $408 forward 7 unknown #
vertex $-1 $172 $409 #
ellipse-curve $-1 -18.1621793976758 -46.578041291000027 18.980480871207813 0 -0.75470958851134928 0.65605901945558964 1 0 0 1 I I #
coedge $-1 $278 $278 $-1 $410 reversed $175 $-1 #
edge $-1 $411 0 $411 6.2831853071796004 $176 $412 forward 7 unknown #
vertex $-1 $179 $413 #
ellipse-curve $-1 -10.043227827388783 -46.578041291000027 18.980480871207813 0 -0.75470958851134928 0.65605901945558964 1 0 0 1 I I #
face $-1 $-1 $195 $27 $-1 $414 reversed single #
loop $-1 $-1 $298 $180 #
plane-surface $-1 0 49.006875874111806 0 0 -1 0 0 0 -1 forward_v I I I I #
coedge $-1 $415 $296 $299 $416 forward $181 $-1 #
coedge $-1 $302 $183 $184 $290 reversed $113 $-1 #
coedge $-1 $296 $415 $183 $288 reversed $181 $-1 #
edge $-1 $303 -21.774535513278799 $417 21.774535513278799 $287 $418 forward 7 unknown #
coedge $-1 $185 $184 $415 $419 forward $73 $-1 #
edge $-1 $294 -70.641804254280217 $417 70.641804254280217 $286 $420 forward 7 unknown #
coedge $-1 $299 $298 $185 $292 reversed $283 $-1 #
edge $-1 $421 -70.641804254280217 $293 70.641804254280217 $291 $422 forward 7 unknown #
vertex $-1 $187 $423 #
vertex $-1 $305 $424 #
straight-curve $-1 70.641804254280217 0 -21.774535513278799 0 -1 0 I I #
coedge $-1 $285 $287 $188 $297 reversed $181 $-1 #
edge $-1 $300 -49.006875874111806 $303 49.006875874111806 $296 $425 forward 7 unknown #
coedge $-1 $291 $189 $194 $306 forward $283 $-1 #
coedge $-1 $189 $291 $285 $416 reversed $283 $-1 #
vertex $-1 $190 $426 #
straight-curve $-1 0 49.006875874111806 21.774535513278799 -1 0 0 I I #
coedge $-1 $191 $286 $193 $305 reversed $113 $-1 #
vertex $-1 $297 $427 #
straight-curve $-1 0 -49.006875874111806 21.774535513278799 1 0 0 I I #
edge $-1 $196 -21.774535513278799 $294 21.774535513278799 $193 $428 forward 7 unknown #
edge $-1 $197 -21.774535513278799 $293 21.774535513278799 $194 $429 forward 7 unknown #
point $-1 70.641804254280217 -49.006875874111806 21.774535513278799 #
point $-1 70.641804254280217 49.006875874111806 21.774535513278799 #
face $-1 $-1 $326 $28 $-1 $430 reversed single #
loop $-1 $-1 $431 $199 #
plane-surface $-1 -70.641804254280217 0 0 1 0 0 0 0 -1 forward_v I I I I #
coedge $-1 $313 $329 $203 $316 forward $200 $-1 #
coedge $-1 $210 $312 $202 $314 forward $200 $-1 #
edge $-1 $320 3.158854138286749 $213 13.130072296090283 $313 $432 forward 7 unknown #
coedge $-1 $204 $203 $431 $433 reversed $77 $-1 #
edge $-1 $434 -40.755219345774876 $320 -19.017950471235807 $312 $435 forward 7 unknown #
coedge $-1 $325 $324 $204 $318 forward $326 $-1 #
edge $-1 $319 19.017950471235807 $436 40.755219345774876 $317 $437 forward 7 unknown #
vertex $-1 $318 $438 #
vertex $-1 $316 $439 #
straight-curve $-1 -48.904535379741148 0 11.303317355475265 0 -1 0 I I #
coedge $-1 $440 $441 $207 $323 forward $310 $-1 #
edge $-1 $330 -49.006875874111806 $327 49.006875874111806 $322 $442 forward 7 unknown #
coedge $-1 $317 $208 $212 $332 forward $326 $-1 #
coedge $-1 $208 $317 $440 $443 reversed $326 $-1 #
loop $-1 $-1 $317 $309 #
vertex $-1 $443 $444 #
straight-curve $-1 -29.886584908505341 49.006875874111806 21.274535513278799 1 0 0 I I #
coedge $-1 $312 $210 $441 $445 forward $200 $-1 #
vertex $-1 $445 $446 #
straight-curve $-1 -29.886584908505341 -49.006875874111806 21.274535513278799 -1 0 0 I I #
edge $-1 $214 -13.130072296090283 $319 -3.158854138286749 $324 $447 forward 7 unknown #
point $-1 -48.904535379741148 -49.006875874111806 21.274535513278799 #
point $-1 -48.904535379741148 49.006875874111806 21.274535513278799 #
face $-1 $-1 $231 $29 $-1 $448 reversed single #
loop $-1 $-1 $225 $216 #
plane-surface $-1 0 49.006875874111806 0 0 -1 0 0 0 -1 forward_v I I I I #
coedge $-1 $449 $219 $342 $450 reversed $129 $-1 #
coedge $-1 $219 $449 $224 $350 reversed $129 $-1 #
coedge $-1 $225 $345 $219 $341 forward $336 $-1 #
edge $-1 $451 3.158854138286749 $352 13.130072296090283 $340 $452 forward 7 unknown #
coedge $-1 $221 $220 $338 $450 forward $81 $-1 #
coedge $-1 $355 $354 $220 $344 forward $217 $-1 #
edge $-1 $453 19.0179504712358 $347 40.755219345774869 $343 $454 forward 7 unknown #
coedge $-1 $340 $351 $221 $346 forward $336 $-1 #
edge $-1 $348 -40.755219345774869 $451 -19.0179504712358 $345 $455 forward 7 unknown #
vertex $-1 $223 $456 #
vertex $-1 $223 $457 #
straight-curve $-1 70.641804254280217 0 11.303317355475265 0 1 0 I I #
edge $-1 $352 -49.006875874111806 $356 49.006875874111806 $339 $458 forward 7 unknown #
coedge $-1 $345 $225 $230 $359 forward $336 $-1 #
vertex $-1 $226 $459 #
straight-curve $-1 29.886584908505334 49.006875874111806 21.274535513278799 1 0 0 I I #
coedge $-1 $343 $227 $449 $460 forward $217 $-1 #
coedge $-1 $227 $343 $229 $358 reversed $217 $-1 #
vertex $-1 $228 $461 #
straight-curve $-1 29.886584908505334 -49.006875874111806 21.274535513278799 -1 0 0 I I #
edge $-1 $233 -21.274535513278799 $347 -11.303317355475265 $229 $462 forward 7 unknown #
edge $-1 $232 -21.274535513278799 $348 -11.303317355475265 $230 $463 forward 7 unknown #
point $-1 70.641804254280203 49.006875874111806 21.274535513278799 #
point $-1 70.641804254280203 -49.006875874111806 21.274535513278799 #
loop $-1 $-1 $243 $235 #
plane-surface $-1 0 0 21.774535513278799 0 0 1 1 0 0 forward_v I I I I #
coedge $-1 $365 $238 $240 $369 reversed $137 $-1 #
coedge $-1 $238 $364 $464 $465 reversed $137 $-1 #
coedge $-1 $246 $241 $238 $367 forward $236 $-1 #
edge $-1 $370 -78.719282650943057 $466 -66.881780415254354 $366 $467 forward 7 unknown #
coedge $-1 $240 $239 $373 $468 reversed $85 $-1 #
edge $-1 $469 82.084821480595437 $370 98.013751748223569 $364 $470 forward 7 unknown #
vertex $-1 $242 $471 #
straight-curve $-1 -1.2375392839021586 49.006875874111806 9.9370332775901034 -1 0 0 I I #
coedge $-1 $464 $243 $246 $377 forward $362 $-1 #
coedge $-1 $243 $464 $368 $468 forward $362 $-1 #
vertex $-1 $244 $472 #
straight-curve $-1 12.131209328366729 44.208529697338307 21.774535513278806 0 1 0 I I #
straight-curve $-1 12.131209328366729 -16.57712436323142 82.775446526579557 0 -0.66913059716165679 0.74314483375859142 I I #
edge $-1 $247 -12.131209328366729 $466 17.081366463975364 $246 $473 forward 7 unknown #
point $-1 12.131209328366729 49.006875874111806 21.774535513278799 #
point $-1 12.131209328366729 49.006875874111799 9.9370332775901034 #
edge $-1 $474 1 $474 0 $250 $-1 forward 7 unknown #
vertex $-1 $251 $475 #
ellipse-curve $-1 -8.7349162375919178 37.767739463625986 10.534514489480738 0 0.74314483375859142 0.66913059716165679 3 0 0 1 I I #
point $-1 -5.7349162375919178 43.677608563049603 15.855784395434428 #
edge $-1 $476 1 $476 0 $254 $-1 forward 7 unknown #
vertex $-1 $255 $477 #
ellipse-curve $-1 3.7847591019832691 37.767739463625986 10.534514489480738 0 0.74314483375859142 0.66913059716165679 3 0 0 1 I I #
point $-1 6.7847591019832691 43.677608563049603 15.855784395434428 #
plane-surface $-1 0 -49.006875874111806 0 0 1 0 0 0 1 forward_v I I I I #
coedge $-1 $399 $398 $391 $478 forward $259 $-1 #
coedge $-1 $391 $261 $263 $395 reversed $159 $-1 #
coedge $-1 $261 $390 $389 $478 reversed $159 $-1 #
coedge $-1 $269 $264 $261 $393 forward $270 $-1 #
edge $-1 $396 -38.251979717068359 $479 -32.663870432926394 $392 $480 forward 7 unknown #
coedge $-1 $263 $262 $399 $481 reversed $99 $-1 #
edge $-1 $482 -7.4043173284235246 $396 -1.0024113862292973e-014 $390 $483 forward 7 unknown #
vertex $-1 $265 $484 #
straight-curve $-1 -7.0513518062661404 -49.006875874111806 16.186426229136835 1 0 0 I I #
coedge $-1 $389 $266 $269 $403 forward $259 $-1 #
coedge $-1 $266 $389 $394 $481 forward $259 $-1 #
vertex $-1 $267 $485 #
straight-curve $-1 -23.574813777867138 -77.817484957503012 21.774535513278799 0 -1 0 I I #
straight-curve $-1 -23.574813777867138 -49.006875874111813 16.186426229136828 0 0.65605901945558964 0.75470958851134928 I I #
edge $-1 $271 -23.574813777867138 $479 -4.6305934471974233 $269 $486 forward 7 unknown #
point $-1 -23.574813777867138 -49.006875874111806 21.774535513278799 #
point $-1 -23.574813777867138 -49.006875874111806 16.186426229136835 #
edge $-1 $487 1 $487 0 $274 $-1 forward 7 unknown #
vertex $-1 $275 $488 #
ellipse-curve $-1 -18.1621793976758 -45.114180619976501 17.707966236345914 0 -0.75470958851134928 0.65605901945558964 1 0 0 1 I I #
point $-1 -17.1621793976758 -46.578041291000012 18.980480871207803 #
edge $-1 $489 1 $489 0 $278 $-1 forward 7 unknown #
vertex $-1 $279 $490 #
ellipse-curve $-1 -10.043227827388783 -45.114180619976501 17.707966236345914 0 -0.75470958851134928 0.65605901945558964 1 0 0 1 I I #
point $-1 -9.0432278273887832 -46.578041291000012 18.980480871207803 #
plane-surface $-1 70.641804254280217 0 0 -1 0 0 0 0 1 forward_v I I I I #
coedge $-1 $287 $285 $289 $419 reversed $181 $-1 #
edge $-1 $300 -21.774535513278799 $421 21.774535513278799 $299 $491 forward 7 unknown #
vertex $-1 $419 $492 #
straight-curve $-1 -70.641804254280217 -49.006875874111806 0 0 0 -1 I I #
edge $-1 $417 -49.006875874111806 $421 49.006875874111806 $415 $493 forward 7 unknown #
straight-curve $-1 0 -49.006875874111806 -21.774535513278799 -1 0 0 I I #
vertex $-1 $292 $494 #
straight-curve $-1 0 49.006875874111806 -21.774535513278799 1 0 0 I I #
point $-1 70.641804254280217 49.006875874111806 -21.774535513278799 #
point $-1 70.641804254280217 -49.006875874111806 -21.774535513278799 #
straight-curve $-1 -70.641804254280217 0 21.774535513278799 0 -1 0 I I #
point $-1 -70.641804254280217 49.006875874111806 21.774535513278799 #
point $-1 -70.641804254280217 -49.006875874111806 21.774535513278799 #
straight-curve $-1 70.641804254280217 -49.006875874111806 0 0 0 -1 I I #
straight-curve $-1 70.641804254280217 49.006875874111806 0 0 0 -1 I I #
plane-surface $-1 0 49.006875874111806 0 0 -1 0 0 0 -1 forward_v I I I I #
coedge $-1 $441 $440 $315 $433 forward $310 $-1 #
straight-curve $-1 -48.904535379741148 -49.006875874111806 8.1444632171885161 0 0 1 I I #
edge $-1 $436 -49.006875874111806 $434 49.006875874111806 $431 $495 forward 7 unknown #
vertex $-1 $316 $496 #
straight-curve $-1 -29.886584908505341 -49.006875874111806 11.303317355475265 1 0 0 I I #
vertex $-1 $318 $497 #
straight-curve $-1 -29.886584908505341 49.006875874111806 11.303317355475265 -1 0 0 I I #
point $-1 -48.904535379741148 49.006875874111806 11.303317355475265 #
point $-1 -48.904535379741148 -49.006875874111806 11.303317355475265 #
coedge $-1 $431 $322 $325 $443 forward $310 $-1 #
coedge $-1 $322 $431 $329 $445 reversed $310 $-1 #
straight-curve $-1 -70.641804254280217 0 21.274535513278799 0 1 0 I I #
edge $-1 $327 -21.274535513278799 $436 -11.303317355475265 $325 $498 forward 7 unknown #
point $-1 -70.641804254280217 49.006875874111806 21.274535513278799 #
edge $-1 $330 -21.274535513278799 $434 -11.303317355475265 $441 $499 forward 7 unknown #
point $-1 -70.641804254280217 -49.006875874111806 21.274535513278799 #
straight-curve $-1 -48.904535379741148 49.006875874111806 8.1444632171885161 0 0 -1 I I #
plane-surface $-1 70.641804254280217 0 0 -1 0 0 0 0 1 forward_v I I I I #
coedge $-1 $339 $338 $354 $460 reversed $129 $-1 #
edge $-1 $453 -49.006875874111806 $451 49.006875874111806 $338 $500 forward 7 unknown #
vertex $-1 $346 $501 #
straight-curve $-1 48.904535379741134 49.006875874111806 8.1444632171885161 0 0 1 I I #
vertex $-1 $344 $502 #
straight-curve $-1 29.886584908505334 -49.006875874111806 11.303317355475265 1 0 0 I I #
straight-curve $-1 29.886584908505334 49.006875874111806 11.303317355475265 -1 0 0 I I #
point $-1 70.641804254280203 -49.006875874111806 11.303317355475265 #
point $-1 70.641804254280203 49.006875874111806 11.303317355475265 #
straight-curve $-1 48.904535379741134 0 21.274535513278799 0 -1 0 I I #
point $-1 48.904535379741134 49.006875874111806 21.274535513278799 #
edge $-1 $356 -13.130072296090283 $453 -3.158854138286749 $354 $503 forward 7 unknown #
point $-1 48.904535379741134 -49.006875874111806 21.274535513278799 #
straight-curve $-1 70.641804254280217 -49.006875874111806 0 0 0 -1 I I #
straight-curve $-1 70.641804254280217 49.006875874111806 0 0 0 -1 I I #
coedge $-1 $373 $372 $365 $465 forward $362 $-1 #
edge $-1 $466 -4.7983461767734994 $469 5.8601884453509001 $464 $504 forward 7 unknown #
vertex $-1 $465 $505 #
straight-curve $-1 -17.081366463975364 49.006875874111806 88.656315928533161 0 0 1 I I #
edge $-1 $469 -15.843827180073205 $374 13.368748612268888 $373 $506 forward 7 unknown #
vertex $-1 $468 $507 #
straight-curve $-1 -17.081366463975364 -16.57712436323142 82.775446526579557 0 0.66913059716165679 -0.74314483375859142 I I #
point $-1 -17.081366463975364 49.006875874111799 9.9370332775901034 #
point $-1 12.131209328366729 38.348341251987407 21.774535513278799 #
straight-curve $-1 0 49.006875874111806 21.774535513278799 -1 0 0 I I #
vertex $-1 $380 $508 #
point $-1 -5.7349162375919178 37.767739463625986 10.534514489480738 #
vertex $-1 $384 $509 #
point $-1 6.7847591019832691 37.767739463625986 10.534514489480738 #
edge $-1 $479 28.810609083391206 $482 33.668278249614765 $389 $510 forward 7 unknown #
vertex $-1 $393 $511 #
straight-curve $-1 -4.6305934471974233 -49.006875874111806 54.438405946205194 0 0 1 I I #
edge $-1 $482 -2.4207583590687172 $400 16.523461971600998 $399 $512 forward 7 unknown #
vertex $-1 $481 $513 #
straight-curve $-1 -4.6305934471974233 -49.006875874111813 16.186426229136828 0 -0.65605901945558964 -0.75470958851134928 I I #
point $-1 -4.6305934471974233 -49.006875874111806 16.186426229136835 #
point $-1 -23.574813777867138 -44.149206707888247 21.774535513278799 #
straight-curve $-1 0 -49.006875874111806 21.774535513278799 1 0 0 I I #
vertex $-1 $406 $514 #
point $-1 -17.1621793976758 -45.114180619976501 17.707966236345914 #
vertex $-1 $410 $515 #
point $-1 -9.0432278273887832 -45.114180619976501 17.707966236345914 #
straight-curve $-1 -70.641804254280217 49.006875874111806 0 0 0 -1 I I #
point $-1 -70.641804254280217 -49.006875874111806 -21.774535513278799 #
straight-curve $-1 -70.641804254280217 0 -21.774535513278799 0 1 0 I I #
point $-1 -70.641804254280217 49.006875874111806 -21.774535513278799 #
straight-curve $-1 -70.641804254280217 0 11.303317355475265 0 -1 0 I I #
point $-1 -70.641804254280217 -49.006875874111806 11.303317355475265 #
point $-1 -70.641804254280217 49.006875874111806 11.303317355475265 #
straight-curve $-1 -70.641804254280217 49.006875874111806 0 0 0 -1 I I #
straight-curve $-1 -70.641804254280217 -49.006875874111806 0 0 0 -1 I I #
straight-curve $-1 48.904535379741134 0 11.303317355475265 0 1 0 I I #
point $-1 48.904535379741134 49.006875874111806 11.303317355475265 #
point $-1 48.904535379741134 -49.006875874111806 11.303317355475265 #
straight-curve $-1 48.904535379741134 -49.006875874111806 8.1444632171885161 0 0 -1 I I #
straight-curve $-1 -17.081366463975364 44.208529697338307 21.774535513278806 0 -1 0 I I #
point $-1 -17.081366463975364 49.006875874111806 21.774535513278799 #
straight-curve $-1 -1.2375392839021586 38.348341251987399 21.774535513278799 1 0 0 I I #
point $-1 -17.081366463975364 38.348341251987407 21.774535513278799 #
point $-1 -8.7349162375919178 35.53830496235021 8.5271226979957682 #
point $-1 3.7847591019832691 35.53830496235021 8.5271226979957682 #
straight-curve $-1 -4.6305934471974233 -77.817484957503012 21.774535513278799 0 1 0 I I #
point $-1 -4.6305934471974233 -49.006875874111806 21.774535513278799 #
straight-curve $-1 -7.0513518062661404 -44.149206707888247 21.774535513278799 -1 0 0 I I #
point $-1 -4.6305934471974233 -44.149206707888247 21.774535513278799 #
point $-1 -18.1621793976758 -44.359471031465155 17.051907216890324 #
point $-1 -10.043227827388783 -44.359471031465155 17.051907216890324 #
End-of-ACIS-data 