500 0 3 0           
7 Unknown 11 ACIS 5.0 NT 24 Thu Mar 25 15:13:05 1999 
-1 9.9999999999999995e-007 1e-010 
body $-1 $3 $-1 $4 #
body $-1 $5 $-1 $6 #
body $-1 $7 $-1 $8 #
lump $-1 $-1 $9 $0 #
transform $-1 1 0 0 0 1 0 0 0 1 68.913235877559742 42.652302282517859 15.362352559222618 1 rotate no_reflect no_shear #
lump $-1 $-1 $10 $1 #
transform $-1 1 0 0 0 1 0 0 0 1 68.913235877559742 42.652302282517859 15.362352559222618 1 rotate no_reflect no_shear #
lump $-1 $-1 $11 $2 #
transform $-1 1 0 0 0 1 0 0 0 1 68.913235877559742 42.652302282517859 15.362352559222618 1 rotate no_reflect no_shear #
shell $-1 $-1 $-1 $12 $-1 $3 #
shell $-1 $-1 $-1 $13 $-1 $5 #
shell $-1 $-1 $-1 $14 $-1 $7 #
face $-1 $15 $16 $9 $-1 $17 reversed single #
face $-1 $18 $19 $10 $-1 $20 forward single #
face $-1 $21 $22 $11 $-1 $23 forward single #
face $-1 $24 $25 $9 $-1 $26 forward single #
loop $-1 $-1 $27 $12 #
plane-surface $-1 0 42.652302282517859 0 0 -1 0 0 0 -1 forward_v I I I I #
face $-1 $28 $29 $10 $-1 $30 reversed single #
loop $-1 $-1 $31 $13 #
plane-surface $-1 0 -36.99480546587548 -8.8906327723334577 0 0 1 1 0 0 forward_v I I I I #
face $-1 $32 $33 $11 $-1 $34 reversed single #
loop $-1 $-1 $35 $14 #
plane-surface $-1 0 42.652302282517859 0 0 -1 0 0 0 -1 forward_v I I I I #
face $-1 $36 $37 $9 $-1 $38 reversed single #
loop $-1 $-1 $39 $15 #
plane-surface $-1 0 0 15.362352559222618 0 0 1 1 0 0 forward_v I I I I #
coedge $-1 $40 $41 $42 $43 reversed $16 $-1 #
face $-1 $44 $45 $10 $-1 $46 reversed single #
loop $-1 $-1 $47 $18 #
plane-surface $-1 0 -31.337308649233101 -12.126492665778038 0 -1 0 0 0 -1 forward_v I I I I #
coedge $-1 $48 $49 $50 $51 reversed $19 $-1 #
face $-1 $52 $53 $11 $-1 $54 reversed single #
loop $-1 $-1 $55 $21 #
plane-surface $-1 0 0 -15.362352559222618 0 0 1 1 0 0 forward_v I I I I #
coedge $-1 $56 $57 $58 $59 forward $22 $-1 #
face $-1 $60 $61 $9 $-1 $62 reversed single #
loop $-1 $-1 $63 $24 #
plane-surface $-1 0 0 -15.362352559222618 0 0 1 1 0 0 forward_v I I I I #
coedge $-1 $64 $65 $66 $67 forward $25 $-1 #
coedge $-1 $68 $27 $69 $70 reversed $16 $-1 #
coedge $-1 $27 $68 $71 $72 forward $16 $-1 #
coedge $-1 $63 $73 $27 $43 forward $37 $-1 #
edge $-1 $74 -68.913235877559742 $75 68.913235877559742 $27 $76 forward 7 unknown #
face $-1 $77 $78 $10 $-1 $79 reversed single #
loop $-1 $-1 $80 $28 #
plane-surface $-1 0 0 -15.362352559222618 0 0 1 1 0 0 forward_v I I I I #
coedge $-1 $81 $82 $83 $84 reversed $29 $-1 #
coedge $-1 $85 $31 $82 $86 forward $19 $-1 #
coedge $-1 $31 $85 $87 $88 reversed $19 $-1 #
coedge $-1 $89 $83 $31 $51 forward $78 $-1 #
edge $-1 $90 12.839905916295361 $91 24.154899549580119 $50 $92 forward 7 unknown #
face $-1 $93 $94 $11 $-1 $95 reversed single #
loop $-1 $-1 $96 $32 #
plane-surface $-1 -56.662984933505143 49.258981229772566 0 1 0 0 0 0 -1 forward_v I I I I #
coedge $-1 $97 $98 $57 $99 forward $33 $-1 #
coedge $-1 $100 $35 $101 $102 reversed $22 $-1 #
coedge $-1 $35 $100 $55 $99 reversed $22 $-1 #
coedge $-1 $103 $104 $35 $59 reversed $105 $-1 #
edge $-1 $106 -15.362352559222618 $107 15.362352559222618 $58 $108 forward 7 unknown #
face $-1 $109 $110 $9 $-1 $111 reversed single #
loop $-1 $-1 $112 $36 #
plane-surface $-1 0 -42.652302282517859 0 0 1 0 0 0 1 forward_v I I I I #
coedge $-1 $113 $42 $114 $115 forward $37 $-1 #
coedge $-1 $116 $39 $68 $117 forward $25 $-1 #
coedge $-1 $39 $116 $118 $119 forward $25 $-1 #
coedge $-1 $120 $71 $39 $67 reversed $121 $-1 #
edge $-1 $122 -42.652302282517859 $123 42.652302282517859 $66 $124 forward 7 unknown #
coedge $-1 $41 $40 $64 $117 reversed $16 $-1 #
coedge $-1 $125 $126 $40 $70 forward $110 $-1 #
edge $-1 $127 -15.362352559222618 $74 15.362352559222618 $40 $128 forward 7 unknown #
coedge $-1 $66 $114 $41 $72 reversed $121 $-1 #
edge $-1 $123 -15.362352559222618 $75 15.362352559222618 $71 $129 forward 7 unknown #
coedge $-1 $42 $113 $125 $130 forward $37 $-1 #
vertex $-1 $43 $131 #
vertex $-1 $115 $132 #
straight-curve $-1 0 42.652302282517859 -15.362352559222618 1 0 0 I I #
face $-1 $133 $134 $10 $-1 $135 reversed single #
loop $-1 $-1 $83 $44 #
plane-surface $-1 68.913235877559742 0 0 -1 0 0 0 0 1 forward_v I I I I #
coedge $-1 $136 $137 $81 $138 forward $45 $-1 #
coedge $-1 $139 $47 $80 $138 reversed $29 $-1 #
coedge $-1 $47 $139 $48 $86 reversed $29 $-1 #
coedge $-1 $50 $140 $47 $84 forward $78 $-1 #
edge $-1 $141 -9.2991062263335991 $90 -2.8273864394444388 $83 $142 forward 7 unknown #
coedge $-1 $49 $48 $143 $144 reversed $19 $-1 #
edge $-1 $90 -68.913235877559742 $145 68.913235877559742 $82 $146 forward 7 unknown #
coedge $-1 $147 $148 $49 $88 forward $134 $-1 #
edge $-1 $91 -68.913235877559742 $149 68.913235877559742 $87 $150 forward 7 unknown #
coedge $-1 $140 $50 $148 $151 forward $78 $-1 #
vertex $-1 $51 $152 #
vertex $-1 $151 $153 #
straight-curve $-1 68.913235877559742 -18.49740273293774 -8.8906327723334577 0 -1 0 I I #
face $-1 $154 $105 $11 $-1 $155 reversed single #
loop $-1 $-1 $156 $52 #
plane-surface $-1 -53.732618644222967 55.865660177027273 0 0 -1 0 0 0 -1 forward_v I I I I #
coedge $-1 $157 $158 $159 $160 forward $53 $-1 #
coedge $-1 $161 $55 $157 $162 forward $33 $-1 #
coedge $-1 $55 $161 $103 $163 forward $33 $-1 #
edge $-1 $106 50.802252354940791 $164 56.662984933505143 $55 $165 forward 7 unknown #
coedge $-1 $57 $56 $166 $167 forward $22 $-1 #
coedge $-1 $168 $169 $56 $102 forward $170 $-1 #
edge $-1 $171 -56.662984933505143 $107 -50.802252354940791 $101 $172 forward 7 unknown #
coedge $-1 $173 $58 $98 $163 reversed $105 $-1 #
coedge $-1 $58 $173 $168 $174 reversed $105 $-1 #
loop $-1 $-1 $58 $93 #
vertex $-1 $99 $175 #
vertex $-1 $174 $176 #
straight-curve $-1 -50.802252354940791 42.652302282517859 0 0 0 1 I I #
face $-1 $-1 $121 $9 $-1 $177 reversed single #
loop $-1 $-1 $69 $60 #
plane-surface $-1 -68.913235877559742 0 0 1 0 0 0 0 -1 forward_v I I I I #
coedge $-1 $178 $118 $179 $180 forward $61 $-1 #
coedge $-1 $73 $63 $178 $181 forward $37 $-1 #
coedge $-1 $71 $120 $63 $115 reversed $121 $-1 #
edge $-1 $75 -42.652302282517859 $182 42.652302282517859 $114 $183 forward 7 unknown #
coedge $-1 $65 $64 $126 $184 forward $25 $-1 #
edge $-1 $123 -68.913235877559742 $127 68.913235877559742 $68 $185 forward 7 unknown #
coedge $-1 $112 $186 $65 $119 reversed $61 $-1 #
edge $-1 $187 -68.913235877559742 $122 68.913235877559742 $118 $188 forward 7 unknown #
coedge $-1 $114 $66 $186 $189 forward $121 $-1 #
loop $-1 $-1 $120 $109 #
vertex $-1 $67 $190 #
vertex $-1 $67 $191 #
straight-curve $-1 68.913235877559742 0 15.362352559222618 0 1 0 I I #
coedge $-1 $179 $69 $73 $130 reversed $110 $-1 #
coedge $-1 $69 $179 $116 $184 reversed $110 $-1 #
vertex $-1 $117 $192 #
straight-curve $-1 -68.913235877559742 42.652302282517859 0 0 0 -1 I I #
straight-curve $-1 68.913235877559742 42.652302282517859 0 0 0 -1 I I #
edge $-1 $193 -42.652302282517859 $74 42.652302282517859 $125 $194 forward 7 unknown #
point $-1 -68.913235877559742 42.652302282517859 -15.362352559222618 #
point $-1 68.913235877559742 42.652302282517859 -15.362352559222618 #
face $-1 $-1 $195 $10 $-1 $196 reversed single #
loop $-1 $-1 $87 $77 #
plane-surface $-1 0 -42.652302282517859 0 0 1 0 0 0 1 forward_v I I I I #
coedge $-1 $197 $80 $140 $198 forward $45 $-1 #
coedge $-1 $80 $197 $199 $200 forward $45 $-1 #
edge $-1 $201 -68.913235877559742 $141 68.913235877559742 $80 $202 forward 7 unknown #
coedge $-1 $82 $81 $203 $204 reversed $29 $-1 #
coedge $-1 $83 $89 $136 $198 reversed $78 $-1 #
vertex $-1 $198 $205 #
straight-curve $-1 68.913235877559742 -31.337308649233101 -6.0632463328890189 0 0 1 I I #
coedge $-1 $203 $206 $85 $144 forward $195 $-1 #
edge $-1 $149 -24.154899549580119 $145 -12.839905916295361 $143 $207 forward 7 unknown #
vertex $-1 $144 $208 #
straight-curve $-1 0 -31.337308649233101 -8.8906327723334577 -1 0 0 I I #
coedge $-1 $209 $87 $206 $210 forward $134 $-1 #
coedge $-1 $87 $209 $89 $151 reversed $134 $-1 #
vertex $-1 $210 $211 #
straight-curve $-1 0 -42.652302282517859 -8.8906327723334577 -1 0 0 I I #
edge $-1 $91 8.8906327723334577 $212 15.362352559222618 $89 $213 forward 7 unknown #
point $-1 68.913235877559742 -31.337308649233101 -8.8906327723334577 #
point $-1 68.913235877559742 -42.652302282517859 -8.8906327723334577 #
face $-1 $-1 $170 $11 $-1 $214 forward single #
plane-surface $-1 -50.802252354940791 49.258981229772566 0 -1 0 0 0 0 1 forward_v I I I I #
coedge $-1 $215 $216 $173 $217 forward $94 $-1 #
coedge $-1 $166 $96 $97 $162 reversed $53 $-1 #
coedge $-1 $96 $166 $169 $218 reversed $53 $-1 #
coedge $-1 $216 $215 $96 $160 reversed $94 $-1 #
edge $-1 $219 -15.362352559222618 $220 15.362352559222618 $159 $221 forward 7 unknown #
coedge $-1 $98 $97 $215 $222 forward $33 $-1 #
edge $-1 $164 -6.6066789472547072 $220 6.6066789472547072 $157 $223 forward 7 unknown #
edge $-1 $224 -6.6066789472547072 $106 6.6066789472547072 $103 $225 forward 7 unknown #
vertex $-1 $162 $226 #
straight-curve $-1 0 42.652302282517859 -15.362352559222618 -1 0 0 I I #
coedge $-1 $158 $157 $100 $167 reversed $53 $-1 #
edge $-1 $171 -15.362352559222618 $164 15.362352559222618 $166 $227 forward 7 unknown #
coedge $-1 $228 $101 $104 $174 forward $170 $-1 #
coedge $-1 $101 $228 $158 $218 forward $170 $-1 #
loop $-1 $-1 $101 $154 #
vertex $-1 $102 $229 #
straight-curve $-1 0 42.652302282517859 15.362352559222618 1 0 0 I I #
coedge $-1 $104 $103 $156 $217 reversed $105 $-1 #
edge $-1 $107 -6.6066789472547072 $230 6.6066789472547072 $104 $231 forward 7 unknown #
point $-1 -50.802252354940791 42.652302282517859 -15.362352559222618 #
point $-1 -50.802252354940791 42.652302282517859 15.362352559222618 #
plane-surface $-1 68.913235877559742 0 0 -1 0 0 0 0 1 forward_v I I I I #
coedge $-1 $186 $112 $113 $181 reversed $61 $-1 #
coedge $-1 $126 $125 $112 $180 reversed $110 $-1 #
edge $-1 $187 -15.362352559222618 $193 15.362352559222618 $179 $232 forward 7 unknown #
edge $-1 $182 -68.913235877559742 $193 68.913235877559742 $178 $233 forward 7 unknown #
vertex $-1 $189 $234 #
straight-curve $-1 68.913235877559742 0 -15.362352559222618 0 -1 0 I I #
edge $-1 $127 -42.652302282517859 $187 42.652302282517859 $126 $235 forward 7 unknown #
straight-curve $-1 0 42.652302282517859 15.362352559222618 -1 0 0 I I #
coedge $-1 $118 $178 $120 $189 reversed $61 $-1 #
vertex $-1 $184 $236 #
straight-curve $-1 0 -42.652302282517859 15.362352559222618 1 0 0 I I #
edge $-1 $122 -15.362352559222618 $182 15.362352559222618 $120 $237 forward 7 unknown #
point $-1 68.913235877559742 -42.652302282517859 15.362352559222618 #
point $-1 68.913235877559742 42.652302282517859 15.362352559222618 #
point $-1 -68.913235877559742 42.652302282517859 15.362352559222618 #
vertex $-1 $130 $238 #
straight-curve $-1 -68.913235877559742 0 -15.362352559222618 0 1 0 I I #
loop $-1 $-1 $203 $133 #
plane-surface $-1 -68.913235877559742 0 0 1 0 0 0 0 -1 forward_v I I I I #
coedge $-1 $137 $136 $209 $239 forward $45 $-1 #
edge $-1 $141 31.337308649233101 $212 42.652302282517859 $140 $240 forward 7 unknown #
coedge $-1 $206 $203 $137 $200 reversed $195 $-1 #
edge $-1 $241 -42.652302282517859 $201 -31.337308649233101 $199 $242 forward 7 unknown #
vertex $-1 $204 $243 #
straight-curve $-1 0 -31.337308649233101 -15.362352559222618 1 0 0 I I #
coedge $-1 $199 $143 $139 $204 forward $195 $-1 #
edge $-1 $145 2.8273864394444388 $201 9.2991062263335991 $203 $244 forward 7 unknown #
point $-1 68.913235877559742 -31.337308649233101 -15.362352559222618 #
coedge $-1 $143 $199 $147 $210 reversed $195 $-1 #
straight-curve $-1 -68.913235877559742 -18.49740273293774 -8.8906327723334577 0 1 0 I I #
point $-1 -68.913235877559742 -31.337308649233101 -8.8906327723334577 #
coedge $-1 $148 $147 $197 $239 reversed $134 $-1 #
edge $-1 $149 8.8906327723334577 $241 15.362352559222618 $206 $245 forward 7 unknown #
point $-1 -68.913235877559742 -42.652302282517859 -8.8906327723334577 #
vertex $-1 $151 $246 #
straight-curve $-1 68.913235877559742 -42.652302282517859 0 0 0 -1 I I #
plane-surface $-1 0 0 15.362352559222618 0 0 1 1 0 0 forward_v I I I I #
coedge $-1 $159 $156 $161 $222 reversed $94 $-1 #
coedge $-1 $156 $159 $228 $247 reversed $94 $-1 #
edge $-1 $230 -15.362352559222618 $224 15.362352559222618 $173 $248 forward 7 unknown #
edge $-1 $219 -6.6066789472547072 $171 6.6066789472547072 $158 $249 forward 7 unknown #
vertex $-1 $247 $250 #
vertex $-1 $222 $251 #
straight-curve $-1 -56.662984933505143 55.865660177027273 0 0 0 -1 I I #
edge $-1 $220 -2.9303662892821762 $224 2.9303662892821762 $215 $252 forward 7 unknown #
straight-curve $-1 -56.662984933505143 49.258981229772566 -15.362352559222618 0 1 0 I I #
vertex $-1 $163 $253 #
straight-curve $-1 -50.802252354940791 49.258981229772566 -15.362352559222618 0 -1 0 I I #
point $-1 -56.662984933505143 42.652302282517859 -15.362352559222618 #
straight-curve $-1 -56.662984933505143 42.652302282517859 0 0 0 -1 I I #
coedge $-1 $169 $168 $216 $247 forward $170 $-1 #
point $-1 -56.662984933505143 42.652302282517859 15.362352559222618 #
vertex $-1 $174 $254 #
straight-curve $-1 -50.802252354940791 49.258981229772566 15.362352559222618 0 1 0 I I #
straight-curve $-1 -68.913235877559742 -42.652302282517859 0 0 0 -1 I I #
straight-curve $-1 0 -42.652302282517859 -15.362352559222618 -1 0 0 I I #
point $-1 68.913235877559742 -42.652302282517859 -15.362352559222618 #
straight-curve $-1 -68.913235877559742 0 15.362352559222618 0 -1 0 I I #
point $-1 -68.913235877559742 -42.652302282517859 15.362352559222618 #
straight-curve $-1 68.913235877559742 -42.652302282517859 0 0 0 -1 I I #
point $-1 -68.913235877559742 -42.652302282517859 -15.362352559222618 #
edge $-1 $212 -68.913235877559742 $241 68.913235877559742 $209 $255 forward 7 unknown #
straight-curve $-1 68.913235877559742 0 -15.362352559222618 0 -1 0 I I #
vertex $-1 $200 $256 #
straight-curve $-1 -68.913235877559742 0 -15.362352559222618 0 1 0 I I #
point $-1 -68.913235877559742 -31.337308649233101 -15.362352559222618 #
straight-curve $-1 -68.913235877559742 -31.337308649233101 -6.0632463328890189 0 0 -1 I I #
straight-curve $-1 -68.913235877559742 -42.652302282517859 0 0 0 -1 I I #
point $-1 68.913235877559742 -42.652302282517859 -15.362352559222618 #
edge $-1 $230 -2.9303662892821762 $219 2.9303662892821762 $216 $257 forward 7 unknown #
straight-curve $-1 -50.802252354940791 55.865660177027273 0 0 0 -1 I I #
straight-curve $-1 -56.662984933505143 49.258981229772566 15.362352559222618 0 -1 0 I I #
point $-1 -56.662984933505143 55.865660177027273 15.362352559222618 #
point $-1 -56.662984933505143 55.865660177027273 -15.362352559222618 #
straight-curve $-1 -53.732618644222967 55.865660177027273 -15.362352559222618 1 0 0 I I #
point $-1 -50.802252354940791 55.865660177027273 -15.362352559222618 #
point $-1 -50.802252354940791 55.865660177027273 15.362352559222618 #
straight-curve $-1 0 -42.652302282517859 -15.362352559222618 -1 0 0 I I #
point $-1 -68.913235877559742 -42.652302282517859 -15.362352559222618 #
straight-curve $-1 -53.732618644222967 55.865660177027273 15.362352559222618 -1 0 0 I I #
End-of-ACIS-data 