500 0 5 0           
7 Unknown 11 ACIS 5.0 NT 24 Thu Mar 25 21:42:39 1999 
-1 9.9999999999999995e-007 1e-010 
body $-1 $5 $-1 $6 #
body $-1 $7 $-1 $8 #
body $-1 $9 $-1 $10 #
body $-1 $11 $-1 $12 #
body $-1 $13 $-1 $14 #
lump $-1 $-1 $15 $0 #
transform $-1 1 0 0 0 1 0 0 0 1 71.006805627613147 32.522447528875254 12.939402194271311 1 rotate no_reflect no_shear #
lump $-1 $-1 $16 $1 #
transform $-1 1 0 0 0 1 0 0 0 1 71.006805627613147 32.522447528875254 12.939402194271311 1 rotate no_reflect no_shear #
lump $-1 $-1 $17 $2 #
transform $-1 1 0 0 0 1 0 0 0 1 71.006805627613147 32.522447528875254 12.939402194271311 1 rotate no_reflect no_shear #
lump $-1 $-1 $18 $3 #
transform $-1 1 0 0 0 1 0 0 0 1 71.006805627613147 32.522447528875254 12.939402194271311 1 rotate no_reflect no_shear #
lump $-1 $-1 $19 $4 #
transform $-1 1 0 0 0 1 0 0 0 1 71.006805627613147 32.522447528875254 12.939402194271311 1 rotate no_reflect no_shear #
shell $-1 $-1 $-1 $20 $-1 $5 #
shell $-1 $-1 $-1 $21 $-1 $7 #
shell $-1 $-1 $-1 $22 $-1 $9 #
shell $-1 $-1 $-1 $23 $-1 $11 #
shell $-1 $-1 $-1 $24 $-1 $13 #
face $-1 $25 $26 $15 $-1 $27 forward single #
face $-1 $28 $29 $16 $-1 $30 forward single #
face $-1 $31 $32 $17 $-1 $33 forward single #
face $-1 $34 $35 $18 $-1 $36 reversed single #
face $-1 $37 $38 $19 $-1 $39 reversed single #
face $-1 $40 $41 $15 $-1 $42 reversed single #
loop $-1 $-1 $43 $20 #
plane-surface $-1 0 0 12.939402194271311 0 0 1 1 0 0 forward_v I I I I #
face $-1 $44 $45 $16 $-1 $46 reversed single #
loop $-1 $-1 $47 $21 #
plane-surface $-1 -76.313066222816133 0 -8.3582685886393815 0 0 1 1 0 0 forward_v I I I I #
face $-1 $48 $49 $17 $-1 $50 forward single #
loop $-1 $-1 $51 $22 #
plane-surface $-1 12.648703548740034 -127.54810248215782 113.34605795027115 -1 0 0 0 -0.66913061440640931 0.74314481823134659 forward_v I I I I #
face $-1 $52 $53 $18 $-1 $54 reversed single #
loop $-1 $55 $56 $23 #
cone-surface $-1 -13.181058312268156 -28.962720007823247 9.5847522647554104 0 0.66913061440640931 -0.74314481823134659 1 0 0 1 I I 0 1 1 forward I I I I #
face $-1 $57 $58 $19 $-1 $59 reversed single #
loop $-1 $60 $61 $24 #
cone-surface $-1 2.3167988043367558 -28.962720007823247 9.5847522647554104 0 0.66913061440640931 -0.74314481823134659 1 0 0 1 I I 0 1 1 forward I I I I #
face $-1 $62 $63 $15 $-1 $64 reversed single #
loop $-1 $-1 $65 $25 #
plane-surface $-1 0 0 -12.939402194271311 0 0 1 1 0 0 forward_v I I I I #
coedge $-1 $66 $67 $68 $69 forward $26 $-1 #
face $-1 $70 $71 $16 $-1 $72 forward single #
loop $-1 $-1 $73 $28 #
plane-surface $-1 -81.619326818019118 0 -10.648835391455346 1 0 0 0 0 -1 forward_v I I I I #
coedge $-1 $74 $75 $76 $77 reversed $29 $-1 #
face $-1 $78 $79 $17 $-1 $80 forward single #
loop $-1 $-1 $81 $31 #
plane-surface $-1 -5.4321297539656968 -32.522447528875276 7.8093786276288881 0 -0.66913061440640931 0.74314481823134659 1 0 0 forward_v I I I I #
coedge $-1 $82 $83 $84 $85 reversed $32 $-1 #
face $-1 $86 $87 $18 $-1 $88 forward single #
loop $-1 $89 $90 $34 #
cone-surface $-1 -13.181058312268156 -27.917161304770929 8.4235417094450664 0 0.66913061440640931 -0.74314481823134659 0.5 0 0 1 I I -0.70710678118654746 0.70710678118654746 0.5 forward I I I I #
loop $-1 $-1 $91 $23 #
coedge $-1 $56 $56 $92 $93 reversed $35 $-1 #
face $-1 $94 $95 $19 $-1 $96 reversed single #
loop $-1 $97 $98 $37 #
cone-surface $-1 2.3167988043367558 -27.917161304770929 8.4235417094450664 0 0.66913061440640931 -0.74314481823134659 0.5 0 0 1 I I -0.70710678118654746 0.70710678118654746 0.5 forward I I I I #
loop $-1 $-1 $99 $24 #
coedge $-1 $61 $61 $100 $101 reversed $38 $-1 #
face $-1 $102 $103 $15 $-1 $104 reversed single #
loop $-1 $-1 $105 $40 #
plane-surface $-1 0 -32.522447528875254 0 0 1 0 0 0 1 forward_v I I I I #
coedge $-1 $106 $107 $108 $109 forward $41 $-1 #
coedge $-1 $110 $43 $111 $112 forward $26 $-1 #
coedge $-1 $43 $110 $113 $114 forward $26 $-1 #
coedge $-1 $115 $116 $43 $69 reversed $117 $-1 #
edge $-1 $118 -32.522447528875254 $119 32.522447528875254 $68 $120 forward 7 unknown #
face $-1 $121 $122 $16 $-1 $123 reversed single #
loop $-1 $-1 $124 $44 #
plane-surface $-1 0 0 12.939402194271311 0 0 1 1 0 0 forward_v I I I I #
coedge $-1 $125 $126 $127 $128 forward $45 $-1 #
coedge $-1 $129 $47 $130 $131 forward $29 $-1 #
coedge $-1 $47 $129 $132 $133 forward $29 $-1 #
coedge $-1 $134 $135 $47 $77 forward $136 $-1 #
edge $-1 $137 -32.522447528875254 $138 32.522447528875254 $76 $139 forward 7 unknown #
face $-1 $140 $141 $17 $-1 $142 forward single #
loop $-1 $-1 $143 $48 #
plane-surface $-1 -23.512963056671428 -127.54810248215782 113.34605795027115 1 0 0 0 0.66913061440640931 -0.74314481823134659 forward_v I I I I #
coedge $-1 $144 $145 $146 $147 reversed $49 $-1 #
coedge $-1 $83 $51 $145 $148 forward $32 $-1 #
coedge $-1 $51 $82 $149 $150 reversed $32 $-1 #
coedge $-1 $151 $146 $51 $85 forward $141 $-1 #
edge $-1 $152 -36.949071962609381 $153 -31.251603712203654 $84 $154 forward 7 unknown #
face $-1 $155 $156 $18 $-1 $157 forward single #
loop $-1 $-1 $158 $52 #
plane-surface $-1 12.648703548740034 -127.54810248215782 113.34605795027115 -1 0 0 0 -0.66913061440640931 0.74314481823134659 forward_v I I I I #
loop $-1 $-1 $159 $34 #
coedge $-1 $90 $90 $91 $160 forward $53 $-1 #
coedge $-1 $91 $91 $90 $160 reversed $55 $-1 #
coedge $-1 $92 $92 $56 $93 forward $156 $-1 #
edge $-1 $161 1.7251853095780693e-015 $161 6.2831853071796022 $92 $162 forward 7 unknown #
face $-1 $163 $164 $19 $-1 $165 reversed single #
loop $-1 $166 $167 $57 #
cone-surface $-1 -13.181058312268156 -28.962720007823247 9.5847522647554104 0 0.66913061440640931 -0.74314481823134659 1 0 0 1 I I 0 1 1 forward I I I I #
loop $-1 $-1 $168 $37 #
coedge $-1 $98 $98 $99 $169 forward $58 $-1 #
coedge $-1 $99 $99 $98 $169 reversed $60 $-1 #
coedge $-1 $100 $100 $61 $101 forward $170 $-1 #
edge $-1 $171 1.7251853095780693e-015 $171 6.2831853071796022 $100 $172 forward 7 unknown #
face $-1 $173 $174 $15 $-1 $175 reversed single #
loop $-1 $-1 $176 $62 #
plane-surface $-1 -71.006805627613147 0 0 1 0 0 0 0 -1 forward_v I I I I #
coedge $-1 $177 $113 $178 $179 forward $63 $-1 #
coedge $-1 $180 $65 $177 $181 forward $41 $-1 #
coedge $-1 $65 $180 $182 $183 forward $41 $-1 #
coedge $-1 $116 $115 $65 $109 reversed $117 $-1 #
edge $-1 $184 -32.522447528875254 $185 32.522447528875254 $108 $186 forward 7 unknown #
coedge $-1 $67 $66 $187 $188 forward $26 $-1 #
coedge $-1 $189 $190 $66 $112 reversed $174 $-1 #
edge $-1 $119 -71.006805627613147 $191 71.006805627613147 $111 $192 forward 7 unknown #
coedge $-1 $105 $193 $67 $114 reversed $63 $-1 #
edge $-1 $194 -71.006805627613147 $118 71.006805627613147 $113 $195 forward 7 unknown #
coedge $-1 $108 $68 $193 $196 forward $117 $-1 #
coedge $-1 $68 $108 $189 $197 reversed $117 $-1 #
loop $-1 $-1 $115 $173 #
vertex $-1 $69 $198 #
vertex $-1 $69 $199 #
straight-curve $-1 71.006805627613147 0 12.939402194271311 0 1 0 I I #
face $-1 $200 $201 $16 $-1 $202 reversed single #
loop $-1 $-1 $203 $70 #
plane-surface $-1 0 0 -12.939402194271311 0 0 1 1 0 0 forward_v I I I I #
coedge $-1 $204 $205 $206 $207 forward $71 $-1 #
coedge $-1 $208 $73 $209 $210 reversed $45 $-1 #
coedge $-1 $73 $208 $129 $211 reversed $45 $-1 #
coedge $-1 $130 $212 $73 $128 reversed $213 $-1 #
edge $-1 $214 -2.2905668028159649 $215 2.2905668028159649 $127 $216 forward 7 unknown #
coedge $-1 $75 $74 $126 $211 forward $29 $-1 #
coedge $-1 $217 $127 $74 $131 reversed $213 $-1 #
edge $-1 $137 -5.3062605952029855 $214 5.3062605952029855 $130 $218 forward 7 unknown #
coedge $-1 $219 $220 $75 $133 reversed $201 $-1 #
edge $-1 $221 -5.3062605952029855 $138 5.3062605952029855 $132 $222 forward 7 unknown #
coedge $-1 $223 $76 $220 $224 reversed $136 $-1 #
coedge $-1 $76 $223 $217 $225 forward $136 $-1 #
loop $-1 $-1 $76 $200 #
vertex $-1 $225 $226 #
vertex $-1 $133 $227 #
straight-curve $-1 -71.006805627613147 0 -8.3582685886393815 0 -1 0 I I #
face $-1 $228 $229 $17 $-1 $230 forward single #
loop $-1 $-1 $231 $78 #
plane-surface $-1 0 0 12.939402194271311 0 0 1 1 0 0 forward_v I I I I #
coedge $-1 $232 $233 $231 $234 reversed $79 $-1 #
coedge $-1 $235 $81 $233 $236 reversed $49 $-1 #
coedge $-1 $81 $235 $82 $148 reversed $49 $-1 #
coedge $-1 $84 $231 $81 $147 forward $141 $-1 #
edge $-1 $237 -20.796898179688579 $152 15.364768425722882 $146 $238 forward 7 unknown #
edge $-1 $152 -7.6666998283934529 $239 -2.8915846743243384e-014 $82 $240 forward 7 unknown #
coedge $-1 $241 $242 $83 $150 forward $243 $-1 #
edge $-1 $153 43.733626780864263 $239 48.863650347506663 $149 $244 forward 7 unknown #
coedge $-1 $245 $84 $242 $246 forward $141 $-1 #
vertex $-1 $147 $247 #
vertex $-1 $246 $248 #
straight-curve $-1 12.648703548740034 -63.774051241078908 12.93940219427131 0 -1 0 I I #
face $-1 $249 $250 $18 $-1 $251 forward single #
loop $-1 $252 $92 $86 #
plane-surface $-1 -5.4321297539656968 -32.522447528875276 7.8093786276288881 0 -0.66913061440640931 0.74314481823134659 1 0 0 forward_v I I I I #
coedge $-1 $253 $254 $255 $256 reversed $87 $-1 #
coedge $-1 $159 $159 $-1 $257 forward $89 $-1 #
edge $-1 $258 0 $258 6.2831853071796004 $90 $259 forward 7 unknown #
vertex $-1 $93 $260 #
ellipse-curve $-1 -13.181058312268156 -29.673713403672387 10.374390410950111 0 0.66913061440640931 -0.74314481823134659 1 0 0 1 I I #
face $-1 $261 $262 $19 $-1 $263 forward single #
loop $-1 $264 $265 $94 #
cone-surface $-1 -13.181058312268156 -27.917161304770929 8.4235417094450664 0 0.66913061440640931 -0.74314481823134659 0.5 0 0 1 I I -0.70710678118654746 0.70710678118654746 0.5 forward I I I I #
loop $-1 $-1 $266 $57 #
coedge $-1 $167 $167 $267 $268 reversed $95 $-1 #
coedge $-1 $168 $168 $-1 $269 forward $97 $-1 #
edge $-1 $270 0 $270 6.2831853071796004 $98 $271 forward 7 unknown #
loop $-1 $272 $100 $261 #
vertex $-1 $101 $273 #
ellipse-curve $-1 2.3167988043367558 -29.673713403672387 10.374390410950111 0 0.66913061440640931 -0.74314481823134659 1 0 0 1 I I #
face $-1 $-1 $117 $15 $-1 $274 reversed single #
loop $-1 $-1 $189 $102 #
plane-surface $-1 0 32.522447528875254 0 0 -1 0 0 0 -1 forward_v I I I I #
coedge $-1 $275 $187 $190 $276 forward $103 $-1 #
coedge $-1 $193 $105 $106 $181 reversed $63 $-1 #
coedge $-1 $187 $275 $105 $179 reversed $103 $-1 #
edge $-1 $194 -12.939402194271311 $277 12.939402194271311 $178 $278 forward 7 unknown #
coedge $-1 $107 $106 $275 $279 forward $41 $-1 #
edge $-1 $185 -71.006805627613147 $277 71.006805627613147 $177 $280 forward 7 unknown #
coedge $-1 $190 $189 $107 $183 reversed $174 $-1 #
edge $-1 $281 -71.006805627613147 $184 71.006805627613147 $182 $282 forward 7 unknown #
vertex $-1 $109 $283 #
vertex $-1 $196 $284 #
straight-curve $-1 71.006805627613147 0 -12.939402194271311 0 -1 0 I I #
coedge $-1 $176 $178 $110 $188 reversed $103 $-1 #
edge $-1 $191 -32.522447528875254 $194 32.522447528875254 $187 $285 forward 7 unknown #
coedge $-1 $182 $111 $116 $197 forward $174 $-1 #
coedge $-1 $111 $182 $176 $276 reversed $174 $-1 #
vertex $-1 $112 $286 #
straight-curve $-1 0 32.522447528875254 12.939402194271311 -1 0 0 I I #
coedge $-1 $113 $177 $115 $196 reversed $63 $-1 #
vertex $-1 $188 $287 #
straight-curve $-1 0 -32.522447528875254 12.939402194271311 1 0 0 I I #
edge $-1 $118 -12.939402194271311 $185 12.939402194271311 $115 $288 forward 7 unknown #
edge $-1 $119 -12.939402194271311 $184 12.939402194271311 $116 $289 forward 7 unknown #
point $-1 71.006805627613147 -32.522447528875254 12.939402194271311 #
point $-1 71.006805627613147 32.522447528875254 12.939402194271311 #
face $-1 $290 $136 $16 $-1 $291 reversed single #
loop $-1 $-1 $220 $121 #
plane-surface $-1 0 -32.522447528875254 0 0 1 0 0 0 1 forward_v I I I I #
coedge $-1 $292 $293 $294 $295 forward $122 $-1 #
coedge $-1 $296 $124 $297 $298 forward $71 $-1 #
coedge $-1 $124 $296 $299 $300 forward $71 $-1 #
coedge $-1 $301 $302 $124 $207 reversed $303 $-1 #
edge $-1 $304 -32.522447528875254 $305 32.522447528875254 $206 $306 forward 7 unknown #
coedge $-1 $126 $125 $219 $307 reversed $45 $-1 #
coedge $-1 $293 $292 $125 $210 forward $122 $-1 #
edge $-1 $308 -32.522447528875254 $215 32.522447528875254 $125 $309 forward 7 unknown #
edge $-1 $214 -32.522447528875254 $221 32.522447528875254 $126 $310 forward 7 unknown #
coedge $-1 $127 $311 $293 $312 reversed $213 $-1 #
loop $-1 $-1 $311 $290 #
vertex $-1 $131 $313 #
vertex $-1 $312 $314 #
straight-curve $-1 -81.619326818019118 32.522447528875254 -10.648835391455346 0 0 -1 I I #
coedge $-1 $297 $130 $135 $225 reversed $213 $-1 #
straight-curve $-1 -76.313066222816133 32.522447528875254 -8.3582685886393815 -1 0 0 I I #
coedge $-1 $315 $132 $208 $307 forward $201 $-1 #
coedge $-1 $132 $299 $134 $224 forward $201 $-1 #
vertex $-1 $211 $316 #
straight-curve $-1 -76.313066222816133 -32.522447528875254 -8.3582685886393815 1 0 0 I I #
coedge $-1 $135 $134 $296 $317 reversed $136 $-1 #
edge $-1 $318 -12.939402194271311 $138 8.3582685886393815 $134 $319 forward 7 unknown #
edge $-1 $320 -12.939402194271311 $137 8.3582685886393815 $217 $321 forward 7 unknown #
point $-1 -71.006805627613147 32.522447528875254 -8.3582685886393815 #
point $-1 -71.006805627613147 -32.522447528875254 -8.3582685886393815 #
face $-1 $322 $323 $17 $-1 $324 reversed single #
loop $-1 $-1 $325 $140 #
plane-surface $-1 -76.313066222816133 0 -8.3582685886393815 0 0 1 1 0 0 forward_v I I I I #
coedge $-1 $146 $326 $143 $234 forward $141 $-1 #
coedge $-1 $233 $143 $327 $328 reversed $79 $-1 #
coedge $-1 $143 $232 $144 $236 forward $79 $-1 #
edge $-1 $329 31.251603712203654 $237 36.949071962609381 $231 $330 forward 7 unknown #
coedge $-1 $145 $144 $241 $331 reversed $49 $-1 #
edge $-1 $332 2.8915846743243384e-014 $237 7.6666998283934529 $233 $333 forward 7 unknown #
vertex $-1 $147 $334 #
straight-curve $-1 -2.7160648769828484 -26.824979278469527 12.93940219427131 1 0 0 I I #
vertex $-1 $331 $335 #
straight-curve $-1 12.648703548740034 -32.522447528875276 7.8093786276288881 0 -0.74314481823134659 -0.66913061440640931 I I #
coedge $-1 $327 $149 $235 $331 forward $243 $-1 #
coedge $-1 $149 $336 $151 $246 reversed $243 $-1 #
loop $-1 $-1 $327 $337 #
straight-curve $-1 12.648703548740034 -32.522447528875254 56.673028975135573 0 0 -1 I I #
coedge $-1 $338 $151 $339 $340 forward $141 $-1 #
edge $-1 $153 12.648703548740034 $341 71.006805627613147 $242 $342 forward 7 unknown #
point $-1 12.648703548740034 -26.824979278469527 12.939402194271311 #
point $-1 12.648703548740034 -32.522447528875254 12.939402194271311 #
face $-1 $343 $344 $18 $-1 $345 forward single #
loop $-1 $-1 $346 $155 #
plane-surface $-1 -23.512963056671428 -127.54810248215782 113.34605795027115 1 0 0 0 0.66913061440640931 -0.74314481823134659 forward_v I I I I #
loop $-1 $-1 $347 $86 #
coedge $-1 $254 $158 $348 $349 forward $87 $-1 #
coedge $-1 $158 $253 $350 $351 reversed $87 $-1 #
coedge $-1 $352 $353 $158 $256 forward $344 $-1 #
edge $-1 $354 -36.949071962609381 $355 -31.251603712203654 $255 $356 forward 7 unknown #
edge $-1 $357 1 $357 0 $159 $-1 forward 7 unknown #
vertex $-1 $160 $358 #
ellipse-curve $-1 -13.181058312268156 -28.251726611974135 8.7951141185607398 0 -0.66913061440640931 0.74314481823134659 1 0 0 1 I I #
point $-1 -12.181058312268156 -29.673713403672362 10.374390410950081 #
face $-1 $359 $170 $19 $-1 $360 forward single #
loop $-1 $-1 $361 $163 #
plane-surface $-1 12.648703548740034 -127.54810248215782 113.34605795027115 -1 0 0 0 -0.66913061440640931 0.74314481823134659 forward_v I I I I #
loop $-1 $-1 $362 $94 #
coedge $-1 $265 $265 $266 $363 forward $164 $-1 #
coedge $-1 $266 $266 $265 $363 reversed $166 $-1 #
coedge $-1 $267 $267 $167 $268 forward $272 $-1 #
edge $-1 $364 1.7251853095780693e-015 $364 6.2831853071796022 $267 $365 forward 7 unknown #
edge $-1 $366 1 $366 0 $168 $-1 forward 7 unknown #
vertex $-1 $169 $367 #
ellipse-curve $-1 2.3167988043367558 -28.251726611974135 8.7951141185607398 0 -0.66913061440640931 0.74314481823134659 1 0 0 1 I I #
loop $-1 $368 $267 $261 #
point $-1 3.3167988043367558 -29.673713403672362 10.374390410950081 #
plane-surface $-1 71.006805627613147 0 0 -1 0 0 0 0 1 forward_v I I I I #
coedge $-1 $178 $176 $180 $279 reversed $103 $-1 #
edge $-1 $191 -12.939402194271311 $281 12.939402194271311 $190 $369 forward 7 unknown #
vertex $-1 $279 $370 #
straight-curve $-1 -71.006805627613147 -32.522447528875254 0 0 0 -1 I I #
edge $-1 $277 -32.522447528875254 $281 32.522447528875254 $275 $371 forward 7 unknown #
straight-curve $-1 0 -32.522447528875254 -12.939402194271311 -1 0 0 I I #
vertex $-1 $183 $372 #
straight-curve $-1 0 32.522447528875254 -12.939402194271311 1 0 0 I I #
point $-1 71.006805627613147 32.522447528875254 -12.939402194271311 #
point $-1 71.006805627613147 -32.522447528875254 -12.939402194271311 #
straight-curve $-1 -71.006805627613147 0 12.939402194271311 0 -1 0 I I #
point $-1 -71.006805627613147 32.522447528875254 12.939402194271311 #
point $-1 -71.006805627613147 -32.522447528875254 12.939402194271311 #
straight-curve $-1 71.006805627613147 -32.522447528875254 0 0 0 -1 I I #
straight-curve $-1 71.006805627613147 32.522447528875254 0 0 0 -1 I I #
face $-1 $373 $213 $16 $-1 $374 reversed single #
plane-surface $-1 -71.006805627613147 0 0 1 0 0 0 0 -1 forward_v I I I I #
coedge $-1 $209 $203 $315 $375 forward $122 $-1 #
coedge $-1 $203 $209 $212 $312 forward $122 $-1 #
coedge $-1 $302 $301 $203 $295 reversed $303 $-1 #
edge $-1 $376 -32.522447528875254 $377 32.522447528875254 $294 $378 forward 7 unknown #
coedge $-1 $205 $204 $223 $317 forward $71 $-1 #
coedge $-1 $311 $217 $204 $298 reversed $213 $-1 #
edge $-1 $305 -71.006805627613147 $320 71.006805627613147 $297 $379 forward 7 unknown #
coedge $-1 $220 $380 $205 $300 reversed $201 $-1 #
edge $-1 $318 -71.006805627613147 $304 71.006805627613147 $299 $381 forward 7 unknown #
coedge $-1 $294 $206 $380 $382 forward $303 $-1 #
coedge $-1 $206 $294 $311 $383 reversed $303 $-1 #
loop $-1 $-1 $301 $373 #
vertex $-1 $207 $384 #
vertex $-1 $207 $385 #
straight-curve $-1 71.006805627613147 0 12.939402194271311 0 1 0 I I #
edge $-1 $221 -2.2905668028159649 $308 2.2905668028159649 $208 $386 forward 7 unknown #
vertex $-1 $210 $387 #
straight-curve $-1 -81.619326818019118 0 -12.939402194271311 0 1 0 I I #
straight-curve $-1 -81.619326818019118 0 -8.3582685886393815 0 -1 0 I I #
coedge $-1 $212 $297 $302 $383 forward $213 $-1 #
edge $-1 $215 -81.619326818019118 $376 71.006805627613147 $212 $388 forward 7 unknown #
point $-1 -81.619326818019118 32.522447528875254 -8.3582685886393815 #
point $-1 -81.619326818019118 32.522447528875254 -12.939402194271311 #
coedge $-1 $380 $219 $292 $375 reversed $201 $-1 #
point $-1 -81.619326818019118 -32.522447528875254 -8.3582685886393815 #
edge $-1 $320 -32.522447528875254 $318 32.522447528875254 $223 $389 forward 7 unknown #
vertex $-1 $317 $390 #
straight-curve $-1 -71.006805627613147 -32.522447528875254 0 0 0 -1 I I #
vertex $-1 $298 $391 #
straight-curve $-1 -71.006805627613147 32.522447528875254 0 0 0 -1 I I #
face $-1 $337 $392 $17 $-1 $393 reversed single #
loop $-1 $-1 $394 $228 #
plane-surface $-1 -81.619326818019118 0 -10.648835391455346 1 0 0 0 0 -1 forward_v I I I I #
coedge $-1 $395 $396 $397 $398 reversed $229 $-1 #
coedge $-1 $231 $399 $400 $401 forward $141 $-1 #
coedge $-1 $400 $241 $232 $328 forward $243 $-1 #
edge $-1 $332 -48.863650347506663 $329 -43.733626780864263 $327 $402 forward 7 unknown #
vertex $-1 $328 $403 #
straight-curve $-1 -23.512963056671428 -63.774051241078908 12.93940219427131 0 1 0 I I #
edge $-1 $239 -15.364768425722882 $332 20.796898179688579 $241 $404 forward 7 unknown #
vertex $-1 $331 $405 #
straight-curve $-1 -23.512963056671428 -32.522447528875276 7.8093786276288881 0 0.74314481823134659 0.66913061440640931 I I #
point $-1 -23.512963056671428 -26.824979278469527 12.939402194271311 #
point $-1 12.648703548740034 -32.522447528875254 7.8093786276289077 #
coedge $-1 $242 $406 $407 $408 reversed $243 $-1 #
face $-1 $409 $243 $17 $-1 $410 reversed single #
coedge $-1 $399 $245 $411 $412 forward $141 $-1 #
coedge $-1 $407 $413 $245 $340 reversed $414 $-1 #
edge $-1 $341 -32.522447528875254 $415 32.522447528875254 $339 $416 forward 7 unknown #
vertex $-1 $340 $417 #
straight-curve $-1 0 -32.522447528875254 12.939402194271311 1 0 0 I I #
face $-1 $418 $419 $18 $-1 $420 forward single #
loop $-1 $-1 $421 $249 #
plane-surface $-1 0 0 12.939402194271311 0 0 1 1 0 0 forward_v I I I I #
coedge $-1 $422 $423 $421 $424 reversed $250 $-1 #
coedge $-1 $425 $348 $353 $426 reversed $252 $-1 #
coedge $-1 $347 $427 $253 $349 reversed $252 $-1 #
edge $-1 $354 -7.6666998283934529 $428 -2.8915846743243384e-014 $253 $429 forward 7 unknown #
coedge $-1 $430 $431 $254 $351 forward $432 $-1 #
edge $-1 $355 43.733626780864263 $428 48.863650347506663 $350 $433 forward 7 unknown #
coedge $-1 $434 $255 $431 $435 forward $344 $-1 #
coedge $-1 $255 $421 $347 $426 forward $344 $-1 #
vertex $-1 $426 $436 #
vertex $-1 $435 $437 #
straight-curve $-1 12.648703548740034 -63.774051241078908 12.93940219427131 0 -1 0 I I #
vertex $-1 $257 $438 #
point $-1 -12.181058312268156 -28.251726611974135 8.7951141185607398 #
face $-1 $439 $440 $19 $-1 $441 forward single #
plane-surface $-1 -5.4321297539656968 -32.522447528875276 7.8093786276288881 0 -0.66913061440640931 0.74314481823134659 1 0 0 forward_v I I I I #
coedge $-1 $442 $443 $444 $445 reversed $262 $-1 #
coedge $-1 $362 $362 $-1 $446 forward $264 $-1 #
edge $-1 $447 0 $447 6.2831853071796004 $265 $448 forward 7 unknown #
vertex $-1 $268 $449 #
ellipse-curve $-1 -13.181058312268156 -29.673713403672387 10.374390410950111 0 0.66913061440640931 -0.74314481823134659 1 0 0 1 I I #
vertex $-1 $269 $450 #
point $-1 3.3167988043367558 -28.251726611974135 8.7951141185607398 #
loop $-1 $-1 $451 $261 #
straight-curve $-1 -71.006805627613147 32.522447528875254 0 0 0 -1 I I #
point $-1 -71.006805627613147 -32.522447528875254 -12.939402194271311 #
straight-curve $-1 -71.006805627613147 0 -12.939402194271311 0 1 0 I I #
point $-1 -71.006805627613147 32.522447528875254 -12.939402194271311 #
face $-1 $-1 $303 $16 $-1 $452 reversed single #
plane-surface $-1 0 32.522447528875254 0 0 -1 0 0 0 -1 forward_v I I I I #
edge $-1 $377 -147.31987185042928 $308 5.3062605952029855 $315 $453 forward 7 unknown #
vertex $-1 $295 $454 #
vertex $-1 $382 $455 #
straight-curve $-1 71.006805627613147 0 -12.939402194271311 0 -1 0 I I #
straight-curve $-1 0 32.522447528875254 12.939402194271311 -1 0 0 I I #
coedge $-1 $299 $315 $301 $382 reversed $201 $-1 #
straight-curve $-1 0 -32.522447528875254 12.939402194271311 1 0 0 I I #
edge $-1 $304 -12.939402194271311 $377 12.939402194271311 $301 $456 forward 7 unknown #
edge $-1 $305 -12.939402194271311 $376 12.939402194271311 $302 $457 forward 7 unknown #
point $-1 71.006805627613147 -32.522447528875254 12.939402194271311 #
point $-1 71.006805627613147 32.522447528875254 12.939402194271311 #
straight-curve $-1 -81.619326818019118 -32.522447528875254 -10.648835391455346 0 0 -1 I I #
point $-1 -81.619326818019118 -32.522447528875254 -12.939402194271311 #
straight-curve $-1 0 32.522447528875254 -12.939402194271311 1 0 0 I I #
straight-curve $-1 -71.006805627613147 0 12.939402194271311 0 -1 0 I I #
point $-1 -71.006805627613147 -32.522447528875254 12.939402194271311 #
point $-1 -71.006805627613147 32.522447528875254 12.939402194271311 #
loop $-1 $-1 $458 $322 #
plane-surface $-1 0 0 -12.939402194271311 0 0 1 1 0 0 forward_v I I I I #
coedge $-1 $459 $460 $461 $462 forward $323 $-1 #
coedge $-1 $463 $325 $464 $465 forward $229 $-1 #
coedge $-1 $325 $463 $466 $467 forward $229 $-1 #
coedge $-1 $468 $469 $325 $398 forward $470 $-1 #
edge $-1 $471 -32.522447528875254 $472 32.522447528875254 $397 $473 forward 7 unknown #
coedge $-1 $326 $338 $474 $475 forward $141 $-1 #
coedge $-1 $476 $327 $326 $401 reversed $243 $-1 #
edge $-1 $477 -71.006805627613147 $329 -23.512963056671428 $400 $342 forward 7 unknown #
straight-curve $-1 -23.512963056671428 -32.522447528875254 56.673028975135573 0 0 1 I I #
point $-1 -23.512963056671428 -32.522447528875254 12.939402194271311 #
straight-curve $-1 -2.7160648769828484 -32.522447528875254 7.8093786276289041 -1 0 0 I I #
point $-1 -23.512963056671428 -32.522447528875254 7.8093786276289077 #
coedge $-1 $336 $478 $479 $480 reversed $243 $-1 #
coedge $-1 $481 $339 $336 $408 forward $414 $-1 #
edge $-1 $341 -12.939402194271311 $482 12.939402194271311 $407 $483 forward 7 unknown #
face $-1 $484 $470 $17 $-1 $485 reversed single #
plane-surface $-1 0 -32.522447528875254 0 0 1 0 0 0 1 forward_v I I I I #
coedge $-1 $486 $487 $338 $412 reversed $488 $-1 #
edge $-1 $415 -71.006805627613147 $489 71.006805627613147 $411 $490 forward 7 unknown #
coedge $-1 $339 $481 $486 $491 reversed $414 $-1 #
loop $-1 $-1 $407 $492 #
vertex $-1 $340 $493 #
straight-curve $-1 71.006805627613147 0 12.939402194271311 0 1 0 I I #
point $-1 71.006805627613147 -32.522447528875254 12.939402194271311 #
face $-1 $494 $495 $18 $-1 $496 reversed single #
loop $-1 $-1 $497 $343 #
plane-surface $-1 -76.313066222816133 0 -8.3582685886393815 0 0 1 1 0 0 forward_v I I I I #
coedge $-1 $353 $498 $346 $424 forward $344 $-1 #
coedge $-1 $423 $346 $499 $500 reversed $250 $-1 #
coedge $-1 $346 $422 $425 $501 forward $250 $-1 #
edge $-1 $502 31.251603712203654 $503 36.949071962609381 $421 $504 forward 7 unknown #
coedge $-1 $427 $347 $423 $501 reversed $252 $-1 #
edge $-1 $503 -20.796898179688579 $354 15.364768425722882 $353 $505 forward 7 unknown #
coedge $-1 $348 $425 $430 $506 reversed $252 $-1 #
vertex $-1 $506 $507 #
straight-curve $-1 12.648703548740034 -32.522447528875276 7.8093786276288881 0 -0.74314481823134659 -0.66913061440640931 I I #
coedge $-1 $499 $350 $427 $506 forward $432 $-1 #
coedge $-1 $350 $508 $352 $435 reversed $432 $-1 #
loop $-1 $-1 $499 $509 #
straight-curve $-1 12.648703548740034 -32.522447528875254 56.673028975135573 0 0 -1 I I #
coedge $-1 $510 $352 $511 $512 forward $344 $-1 #
edge $-1 $355 12.648703548740034 $513 71.006805627613147 $431 $514 forward 7 unknown #
point $-1 12.648703548740034 -26.824979278469527 12.939402194271311 #
point $-1 12.648703548740034 -32.522447528875254 12.939402194271311 #
point $-1 -13.181058312268156 -27.582595997567722 8.0519693003293931 #
face $-1 $515 $516 $19 $-1 $517 forward single #
loop $-1 $-1 $518 $359 #
plane-surface $-1 -23.512963056671428 -127.54810248215782 113.34605795027115 1 0 0 0 0.66913061440640931 -0.74314481823134659 forward_v I I I I #
coedge $-1 $443 $361 $519 $520 forward $262 $-1 #
coedge $-1 $361 $442 $521 $522 reversed $262 $-1 #
coedge $-1 $523 $524 $361 $445 forward $516 $-1 #
edge $-1 $525 -36.949071962609381 $526 -31.251603712203654 $444 $527 forward 7 unknown #
edge $-1 $528 1 $528 0 $362 $-1 forward 7 unknown #
vertex $-1 $363 $529 #
ellipse-curve $-1 -13.181058312268156 -28.251726611974135 8.7951141185607398 0 -0.66913061440640931 0.74314481823134659 1 0 0 1 I I #
point $-1 -12.181058312268156 -29.673713403672362 10.374390410950081 #
point $-1 2.3167988043367558 -27.582595997567722 8.0519693003293931 #
coedge $-1 $530 $519 $524 $531 reversed $368 $-1 #
plane-surface $-1 71.006805627613147 0 0 -1 0 0 0 0 1 forward_v I I I I #
straight-curve $-1 -76.313066222816133 -32.522447528875254 -12.939402194271311 -1 0 0 I I #
point $-1 71.006805627613147 32.522447528875254 -12.939402194271311 #
point $-1 71.006805627613147 -32.522447528875254 -12.939402194271311 #
straight-curve $-1 71.006805627613147 -32.522447528875254 0 0 0 -1 I I #
straight-curve $-1 71.006805627613147 32.522447528875254 0 0 0 -1 I I #
coedge $-1 $479 $532 $481 $533 forward $392 $-1 #
coedge $-1 $534 $394 $535 $536 reversed $323 $-1 #
coedge $-1 $394 $534 $463 $537 reversed $323 $-1 #
coedge $-1 $464 $538 $394 $462 reversed $488 $-1 #
edge $-1 $539 -2.2905668028159649 $540 2.2905668028159649 $461 $541 forward 7 unknown #
coedge $-1 $396 $395 $460 $537 forward $229 $-1 #
coedge $-1 $487 $461 $395 $465 reversed $488 $-1 #
edge $-1 $471 -5.3062605952029855 $539 5.3062605952029855 $464 $542 forward 7 unknown #
coedge $-1 $478 $476 $396 $467 reversed $243 $-1 #
edge $-1 $543 -5.3062605952029855 $472 5.3062605952029855 $466 $544 forward 7 unknown #
coedge $-1 $474 $397 $476 $545 reversed $470 $-1 #
coedge $-1 $397 $474 $487 $546 forward $470 $-1 #
loop $-1 $-1 $397 $409 #
vertex $-1 $546 $547 #
vertex $-1 $467 $548 #
straight-curve $-1 -71.006805627613147 0 -8.3582685886393815 0 -1 0 I I #
coedge $-1 $469 $468 $399 $475 reversed $470 $-1 #
edge $-1 $489 -32.522447528875254 $477 32.522447528875254 $474 $549 forward 7 unknown #
coedge $-1 $466 $400 $468 $545 forward $243 $-1 #
vertex $-1 $475 $550 #
coedge $-1 $406 $466 $534 $551 forward $243 $-1 #
coedge $-1 $535 $458 $406 $480 forward $392 $-1 #
edge $-1 $482 -147.31987185042928 $552 5.3062605952029855 $406 $553 forward 7 unknown #
coedge $-1 $413 $407 $458 $533 reversed $414 $-1 #
vertex $-1 $408 $554 #
straight-curve $-1 71.006805627613147 -32.522447528875254 0 0 0 -1 I I #
face $-1 $492 $488 $17 $-1 $555 reversed single #
plane-surface $-1 -71.006805627613147 0 0 1 0 0 0 0 -1 forward_v I I I I #
coedge $-1 $538 $411 $413 $491 forward $488 $-1 #
coedge $-1 $411 $464 $469 $546 reversed $488 $-1 #
loop $-1 $-1 $486 $484 #
vertex $-1 $412 $556 #
straight-curve $-1 0 32.522447528875254 12.939402194271311 -1 0 0 I I #
edge $-1 $415 -12.939402194271311 $557 12.939402194271311 $413 $558 forward 7 unknown #
face $-1 $-1 $414 $17 $-1 $559 reversed single #
point $-1 71.006805627613147 32.522447528875254 12.939402194271311 #
face $-1 $509 $560 $18 $-1 $561 reversed single #
loop $-1 $-1 $562 $418 #
plane-surface $-1 -81.619326818019118 0 -10.648835391455346 1 0 0 0 0 -1 forward_v I I I I #
coedge $-1 $563 $564 $565 $566 reversed $419 $-1 #
coedge $-1 $421 $567 $568 $569 forward $344 $-1 #
coedge $-1 $568 $430 $422 $500 forward $432 $-1 #
edge $-1 $570 -48.863650347506663 $502 -43.733626780864263 $499 $571 forward 7 unknown #
edge $-1 $570 2.8915846743243384e-014 $503 7.6666998283934529 $423 $572 forward 7 unknown #
vertex $-1 $500 $573 #
vertex $-1 $426 $574 #
straight-curve $-1 -23.512963056671428 -63.774051241078908 12.93940219427131 0 1 0 I I #
straight-curve $-1 -2.7160648769828484 -26.824979278469527 12.93940219427131 1 0 0 I I #
edge $-1 $428 -15.364768425722882 $570 20.796898179688579 $430 $575 forward 7 unknown #
point $-1 12.648703548740034 -32.522447528875254 7.8093786276289077 #
coedge $-1 $431 $576 $577 $578 reversed $432 $-1 #
face $-1 $579 $432 $18 $-1 $580 reversed single #
coedge $-1 $567 $434 $581 $582 forward $344 $-1 #
coedge $-1 $577 $583 $434 $512 reversed $584 $-1 #
edge $-1 $513 -32.522447528875254 $585 32.522447528875254 $511 $586 forward 7 unknown #
vertex $-1 $512 $587 #
straight-curve $-1 0 -32.522447528875254 12.939402194271311 1 0 0 I I #
face $-1 $588 $589 $19 $-1 $590 forward single #
loop $-1 $-1 $591 $439 #
plane-surface $-1 0 0 12.939402194271311 0 0 1 1 0 0 forward_v I I I I #
coedge $-1 $592 $593 $591 $594 reversed $440 $-1 #
coedge $-1 $451 $595 $442 $520 reversed $368 $-1 #
edge $-1 $525 -7.6666998283934529 $596 -2.8915846743243384e-014 $442 $597 forward 7 unknown #
coedge $-1 $598 $599 $443 $522 forward $600 $-1 #
edge $-1 $526 43.733626780864263 $596 48.863650347506663 $521 $601 forward 7 unknown #
coedge $-1 $602 $444 $599 $603 forward $516 $-1 #
coedge $-1 $444 $591 $451 $531 forward $516 $-1 #
vertex $-1 $531 $604 #
vertex $-1 $603 $605 #
straight-curve $-1 12.648703548740034 -63.774051241078908 12.93940219427131 0 -1 0 I I #
vertex $-1 $446 $606 #
point $-1 -12.181058312268156 -28.251726611974135 8.7951141185607398 #
coedge $-1 $595 $451 $593 $607 reversed $368 $-1 #
edge $-1 $608 -20.796898179688579 $525 15.364768425722882 $524 $609 forward 7 unknown #
coedge $-1 $458 $535 $538 $610 forward $392 $-1 #
edge $-1 $557 -32.522447528875254 $482 32.522447528875254 $481 $611 forward 7 unknown #
coedge $-1 $460 $459 $478 $551 reversed $323 $-1 #
coedge $-1 $532 $479 $459 $536 forward $392 $-1 #
edge $-1 $552 -32.522447528875254 $540 32.522447528875254 $459 $612 forward 7 unknown #
edge $-1 $539 -32.522447528875254 $543 32.522447528875254 $460 $613 forward 7 unknown #
coedge $-1 $461 $486 $532 $610 reversed $488 $-1 #
vertex $-1 $465 $614 #
vertex $-1 $610 $615 #
straight-curve $-1 -81.619326818019118 32.522447528875254 -10.648835391455346 0 0 -1 I I #
straight-curve $-1 -76.313066222816133 32.522447528875254 -8.3582685886393815 -1 0 0 I I #
vertex $-1 $537 $616 #
straight-curve $-1 -76.313066222816133 -32.522447528875254 -8.3582685886393815 1 0 0 I I #
edge $-1 $477 -12.939402194271311 $472 8.3582685886393815 $468 $617 forward 7 unknown #
edge $-1 $489 -12.939402194271311 $471 8.3582685886393815 $487 $618 forward 7 unknown #
point $-1 -71.006805627613147 32.522447528875254 -8.3582685886393815 #
point $-1 -71.006805627613147 -32.522447528875254 -8.3582685886393815 #
straight-curve $-1 -71.006805627613147 0 12.939402194271311 0 -1 0 I I #
point $-1 -71.006805627613147 -32.522447528875254 12.939402194271311 #
edge $-1 $543 -2.2905668028159649 $552 2.2905668028159649 $534 $619 forward 7 unknown #
vertex $-1 $536 $620 #
straight-curve $-1 -76.313066222816133 -32.522447528875254 -12.939402194271311 -1 0 0 I I #
point $-1 71.006805627613147 -32.522447528875254 -12.939402194271311 #
plane-surface $-1 0 32.522447528875254 0 0 -1 0 0 0 -1 forward_v I I I I #
point $-1 -71.006805627613147 32.522447528875254 12.939402194271311 #
vertex $-1 $533 $621 #
straight-curve $-1 71.006805627613147 32.522447528875254 0 0 0 -1 I I #
plane-surface $-1 71.006805627613147 0 0 -1 0 0 0 0 1 forward_v I I I I #
loop $-1 $-1 $622 $494 #
plane-surface $-1 0 0 -12.939402194271311 0 0 1 1 0 0 forward_v I I I I #
coedge $-1 $623 $624 $625 $626 forward $495 $-1 #
coedge $-1 $627 $497 $628 $629 forward $419 $-1 #
coedge $-1 $497 $627 $630 $631 forward $419 $-1 #
coedge $-1 $632 $633 $497 $566 forward $634 $-1 #
edge $-1 $635 -32.522447528875254 $636 32.522447528875254 $565 $637 forward 7 unknown #
coedge $-1 $498 $510 $638 $639 forward $344 $-1 #
coedge $-1 $640 $499 $498 $569 reversed $432 $-1 #
edge $-1 $641 -71.006805627613147 $502 -23.512963056671428 $568 $514 forward 7 unknown #
vertex $-1 $506 $642 #
straight-curve $-1 -23.512963056671428 -32.522447528875254 56.673028975135573 0 0 1 I I #
straight-curve $-1 -23.512963056671428 -32.522447528875276 7.8093786276288881 0 0.74314481823134659 0.66913061440640931 I I #
point $-1 -23.512963056671428 -32.522447528875254 12.939402194271311 #
point $-1 -23.512963056671428 -26.824979278469527 12.939402194271311 #
straight-curve $-1 -2.7160648769828484 -32.522447528875254 7.8093786276289041 -1 0 0 I I #
coedge $-1 $508 $643 $644 $645 reversed $432 $-1 #
coedge $-1 $646 $511 $508 $578 forward $584 $-1 #
edge $-1 $513 -12.939402194271311 $647 12.939402194271311 $577 $648 forward 7 unknown #
face $-1 $649 $634 $18 $-1 $650 reversed single #
plane-surface $-1 0 -32.522447528875254 0 0 1 0 0 0 1 forward_v I I I I #
coedge $-1 $651 $652 $510 $582 reversed $653 $-1 #
edge $-1 $585 -71.006805627613147 $654 71.006805627613147 $581 $655 forward 7 unknown #
coedge $-1 $511 $646 $651 $656 reversed $584 $-1 #
loop $-1 $-1 $577 $657 #
vertex $-1 $512 $658 #
straight-curve $-1 71.006805627613147 0 12.939402194271311 0 1 0 I I #
point $-1 71.006805627613147 -32.522447528875254 12.939402194271311 #
face $-1 $659 $660 $19 $-1 $661 reversed single #
loop $-1 $-1 $662 $515 #
plane-surface $-1 -76.313066222816133 0 -8.3582685886393815 0 0 1 1 0 0 forward_v I I I I #
coedge $-1 $524 $663 $518 $594 forward $516 $-1 #
coedge $-1 $593 $518 $664 $665 reversed $440 $-1 #
coedge $-1 $518 $592 $530 $607 forward $440 $-1 #
edge $-1 $666 31.251603712203654 $608 36.949071962609381 $591 $667 forward 7 unknown #
coedge $-1 $519 $530 $598 $668 reversed $368 $-1 #
vertex $-1 $668 $669 #
straight-curve $-1 12.648703548740034 -32.522447528875276 7.8093786276288881 0 -0.74314481823134659 -0.66913061440640931 I I #
coedge $-1 $664 $521 $595 $668 forward $600 $-1 #
coedge $-1 $521 $670 $523 $603 reversed $600 $-1 #
loop $-1 $-1 $664 $671 #
straight-curve $-1 12.648703548740034 -32.522447528875254 56.673028975135573 0 0 -1 I I #
coedge $-1 $672 $523 $673 $674 forward $516 $-1 #
edge $-1 $526 12.648703548740034 $675 71.006805627613147 $599 $676 forward 7 unknown #
point $-1 12.648703548740034 -26.824979278469527 12.939402194271311 #
point $-1 12.648703548740034 -32.522447528875254 12.939402194271311 #
point $-1 -13.181058312268156 -27.582595997567722 8.0519693003293931 #
edge $-1 $677 2.8915846743243384e-014 $608 7.6666998283934529 $593 $678 forward 7 unknown #
vertex $-1 $531 $679 #
straight-curve $-1 -2.7160648769828484 -26.824979278469527 12.93940219427131 1 0 0 I I #
edge $-1 $540 -81.619326818019118 $557 71.006805627613147 $538 $680 forward 7 unknown #
straight-curve $-1 71.006805627613147 0 -12.939402194271311 0 -1 0 I I #
straight-curve $-1 -81.619326818019118 0 -12.939402194271311 0 1 0 I I #
straight-curve $-1 -81.619326818019118 0 -8.3582685886393815 0 -1 0 I I #
point $-1 -81.619326818019118 32.522447528875254 -8.3582685886393815 #
point $-1 -81.619326818019118 32.522447528875254 -12.939402194271311 #
point $-1 -81.619326818019118 -32.522447528875254 -8.3582685886393815 #
straight-curve $-1 -71.006805627613147 -32.522447528875254 0 0 0 -1 I I #
straight-curve $-1 -71.006805627613147 32.522447528875254 0 0 0 -1 I I #
straight-curve $-1 -81.619326818019118 -32.522447528875254 -10.648835391455346 0 0 -1 I I #
point $-1 -81.619326818019118 -32.522447528875254 -12.939402194271311 #
point $-1 71.006805627613147 32.522447528875254 -12.939402194271311 #
coedge $-1 $644 $681 $646 $682 forward $560 $-1 #
coedge $-1 $683 $562 $684 $685 reversed $495 $-1 #
coedge $-1 $562 $683 $627 $686 reversed $495 $-1 #
coedge $-1 $628 $687 $562 $626 reversed $653 $-1 #
edge $-1 $688 -2.2905668028159649 $689 2.2905668028159649 $625 $690 forward 7 unknown #
coedge $-1 $564 $563 $624 $686 forward $419 $-1 #
coedge $-1 $652 $625 $563 $629 reversed $653 $-1 #
edge $-1 $635 -5.3062605952029855 $688 5.3062605952029855 $628 $691 forward 7 unknown #
coedge $-1 $643 $640 $564 $631 reversed $432 $-1 #
edge $-1 $692 -5.3062605952029855 $636 5.3062605952029855 $630 $693 forward 7 unknown #
coedge $-1 $638 $565 $640 $694 reversed $634 $-1 #
coedge $-1 $565 $638 $652 $695 forward $634 $-1 #
loop $-1 $-1 $565 $579 #
vertex $-1 $695 $696 #
vertex $-1 $631 $697 #
straight-curve $-1 -71.006805627613147 0 -8.3582685886393815 0 -1 0 I I #
coedge $-1 $633 $632 $567 $639 reversed $634 $-1 #
edge $-1 $654 -32.522447528875254 $641 32.522447528875254 $638 $698 forward 7 unknown #
coedge $-1 $630 $568 $632 $694 forward $432 $-1 #
vertex $-1 $639 $699 #
point $-1 -23.512963056671428 -32.522447528875254 7.8093786276289077 #
coedge $-1 $576 $630 $683 $700 forward $432 $-1 #
coedge $-1 $684 $622 $576 $645 forward $560 $-1 #
edge $-1 $647 -147.31987185042928 $701 5.3062605952029855 $576 $702 forward 7 unknown #
coedge $-1 $583 $577 $622 $682 reversed $584 $-1 #
vertex $-1 $578 $703 #
straight-curve $-1 71.006805627613147 -32.522447528875254 0 0 0 -1 I I #
face $-1 $657 $653 $18 $-1 $704 reversed single #
plane-surface $-1 -71.006805627613147 0 0 1 0 0 0 0 -1 forward_v I I I I #
coedge $-1 $687 $581 $583 $656 forward $653 $-1 #
coedge $-1 $581 $628 $633 $695 reversed $653 $-1 #
loop $-1 $-1 $651 $649 #
vertex $-1 $582 $705 #
straight-curve $-1 0 32.522447528875254 12.939402194271311 -1 0 0 I I #
edge $-1 $585 -12.939402194271311 $706 12.939402194271311 $583 $707 forward 7 unknown #
face $-1 $-1 $584 $18 $-1 $708 reversed single #
point $-1 71.006805627613147 32.522447528875254 12.939402194271311 #
face $-1 $671 $709 $19 $-1 $710 reversed single #
loop $-1 $-1 $711 $588 #
plane-surface $-1 -81.619326818019118 0 -10.648835391455346 1 0 0 0 0 -1 forward_v I I I I #
coedge $-1 $712 $713 $714 $715 reversed $589 $-1 #
coedge $-1 $591 $716 $717 $718 forward $516 $-1 #
coedge $-1 $717 $598 $592 $665 forward $600 $-1 #
edge $-1 $677 -48.863650347506663 $666 -43.733626780864263 $664 $719 forward 7 unknown #
vertex $-1 $665 $720 #
straight-curve $-1 -23.512963056671428 -63.774051241078908 12.93940219427131 0 1 0 I I #
edge $-1 $596 -15.364768425722882 $677 20.796898179688579 $598 $721 forward 7 unknown #
point $-1 12.648703548740034 -32.522447528875254 7.8093786276289077 #
coedge $-1 $599 $722 $723 $724 reversed $600 $-1 #
face $-1 $725 $600 $19 $-1 $726 reversed single #
coedge $-1 $716 $602 $727 $728 forward $516 $-1 #
coedge $-1 $723 $729 $602 $674 reversed $730 $-1 #
edge $-1 $675 -32.522447528875254 $731 32.522447528875254 $673 $732 forward 7 unknown #
vertex $-1 $674 $733 #
straight-curve $-1 0 -32.522447528875254 12.939402194271311 1 0 0 I I #
vertex $-1 $668 $734 #
straight-curve $-1 -23.512963056671428 -32.522447528875276 7.8093786276288881 0 0.74314481823134659 0.66913061440640931 I I #
point $-1 -23.512963056671428 -26.824979278469527 12.939402194271311 #
straight-curve $-1 0 32.522447528875254 -12.939402194271311 1 0 0 I I #
coedge $-1 $622 $684 $687 $735 forward $560 $-1 #
edge $-1 $706 -32.522447528875254 $647 32.522447528875254 $646 $736 forward 7 unknown #
coedge $-1 $624 $623 $643 $700 reversed $495 $-1 #
coedge $-1 $681 $644 $623 $685 forward $560 $-1 #
edge $-1 $701 -32.522447528875254 $689 32.522447528875254 $623 $737 forward 7 unknown #
edge $-1 $688 -32.522447528875254 $692 32.522447528875254 $624 $738 forward 7 unknown #
coedge $-1 $625 $651 $681 $735 reversed $653 $-1 #
vertex $-1 $629 $739 #
vertex $-1 $735 $740 #
straight-curve $-1 -81.619326818019118 32.522447528875254 -10.648835391455346 0 0 -1 I I #
straight-curve $-1 -76.313066222816133 32.522447528875254 -8.3582685886393815 -1 0 0 I I #
vertex $-1 $686 $741 #
straight-curve $-1 -76.313066222816133 -32.522447528875254 -8.3582685886393815 1 0 0 I I #
edge $-1 $641 -12.939402194271311 $636 8.3582685886393815 $632 $742 forward 7 unknown #
edge $-1 $654 -12.939402194271311 $635 8.3582685886393815 $652 $743 forward 7 unknown #
point $-1 -71.006805627613147 32.522447528875254 -8.3582685886393815 #
point $-1 -71.006805627613147 -32.522447528875254 -8.3582685886393815 #
straight-curve $-1 -71.006805627613147 0 12.939402194271311 0 -1 0 I I #
point $-1 -71.006805627613147 -32.522447528875254 12.939402194271311 #
edge $-1 $692 -2.2905668028159649 $701 2.2905668028159649 $683 $744 forward 7 unknown #
vertex $-1 $685 $745 #
straight-curve $-1 -76.313066222816133 -32.522447528875254 -12.939402194271311 -1 0 0 I I #
point $-1 71.006805627613147 -32.522447528875254 -12.939402194271311 #
plane-surface $-1 0 32.522447528875254 0 0 -1 0 0 0 -1 forward_v I I I I #
point $-1 -71.006805627613147 32.522447528875254 12.939402194271311 #
vertex $-1 $682 $746 #
straight-curve $-1 71.006805627613147 32.522447528875254 0 0 0 -1 I I #
plane-surface $-1 71.006805627613147 0 0 -1 0 0 0 0 1 forward_v I I I I #
loop $-1 $-1 $747 $659 #
plane-surface $-1 0 0 -12.939402194271311 0 0 1 1 0 0 forward_v I I I I #
coedge $-1 $748 $749 $750 $751 forward $660 $-1 #
coedge $-1 $752 $662 $753 $754 forward $589 $-1 #
coedge $-1 $662 $752 $755 $756 forward $589 $-1 #
coedge $-1 $757 $758 $662 $715 forward $759 $-1 #
edge $-1 $760 -32.522447528875254 $761 32.522447528875254 $714 $762 forward 7 unknown #
coedge $-1 $663 $672 $763 $764 forward $516 $-1 #
coedge $-1 $765 $664 $663 $718 reversed $600 $-1 #
edge $-1 $766 -71.006805627613147 $666 -23.512963056671428 $717 $676 forward 7 unknown #
straight-curve $-1 -23.512963056671428 -32.522447528875254 56.673028975135573 0 0 1 I I #
point $-1 -23.512963056671428 -32.522447528875254 12.939402194271311 #
straight-curve $-1 -2.7160648769828484 -32.522447528875254 7.8093786276289041 -1 0 0 I I #
coedge $-1 $670 $767 $768 $769 reversed $600 $-1 #
coedge $-1 $770 $673 $670 $724 forward $730 $-1 #
edge $-1 $675 -12.939402194271311 $771 12.939402194271311 $723 $772 forward 7 unknown #
face $-1 $773 $759 $19 $-1 $774 reversed single #
plane-surface $-1 0 -32.522447528875254 0 0 1 0 0 0 1 forward_v I I I I #
coedge $-1 $775 $776 $672 $728 reversed $777 $-1 #
edge $-1 $731 -71.006805627613147 $778 71.006805627613147 $727 $779 forward 7 unknown #
coedge $-1 $673 $770 $775 $780 reversed $730 $-1 #
loop $-1 $-1 $723 $781 #
vertex $-1 $674 $782 #
straight-curve $-1 71.006805627613147 0 12.939402194271311 0 1 0 I I #
point $-1 71.006805627613147 -32.522447528875254 12.939402194271311 #
point $-1 -23.512963056671428 -32.522447528875254 7.8093786276289077 #
edge $-1 $689 -81.619326818019118 $706 71.006805627613147 $687 $783 forward 7 unknown #
straight-curve $-1 71.006805627613147 0 -12.939402194271311 0 -1 0 I I #
straight-curve $-1 -81.619326818019118 0 -12.939402194271311 0 1 0 I I #
straight-curve $-1 -81.619326818019118 0 -8.3582685886393815 0 -1 0 I I #
point $-1 -81.619326818019118 32.522447528875254 -8.3582685886393815 #
point $-1 -81.619326818019118 32.522447528875254 -12.939402194271311 #
point $-1 -81.619326818019118 -32.522447528875254 -8.3582685886393815 #
straight-curve $-1 -71.006805627613147 -32.522447528875254 0 0 0 -1 I I #
straight-curve $-1 -71.006805627613147 32.522447528875254 0 0 0 -1 I I #
straight-curve $-1 -81.619326818019118 -32.522447528875254 -10.648835391455346 0 0 -1 I I #
point $-1 -81.619326818019118 -32.522447528875254 -12.939402194271311 #
point $-1 71.006805627613147 32.522447528875254 -12.939402194271311 #
coedge $-1 $768 $784 $770 $785 forward $709 $-1 #
coedge $-1 $786 $711 $787 $788 reversed $660 $-1 #
coedge $-1 $711 $786 $752 $789 reversed $660 $-1 #
coedge $-1 $753 $790 $711 $751 reversed $777 $-1 #
edge $-1 $791 -2.2905668028159649 $792 2.2905668028159649 $750 $793 forward 7 unknown #
coedge $-1 $713 $712 $749 $789 forward $589 $-1 #
coedge $-1 $776 $750 $712 $754 reversed $777 $-1 #
edge $-1 $760 -5.3062605952029855 $791 5.3062605952029855 $753 $794 forward 7 unknown #
coedge $-1 $767 $765 $713 $756 reversed $600 $-1 #
edge $-1 $795 -5.3062605952029855 $761 5.3062605952029855 $755 $796 forward 7 unknown #
coedge $-1 $763 $714 $765 $797 reversed $759 $-1 #
coedge $-1 $714 $763 $776 $798 forward $759 $-1 #
loop $-1 $-1 $714 $725 #
vertex $-1 $798 $799 #
vertex $-1 $756 $800 #
straight-curve $-1 -71.006805627613147 0 -8.3582685886393815 0 -1 0 I I #
coedge $-1 $758 $757 $716 $764 reversed $759 $-1 #
edge $-1 $778 -32.522447528875254 $766 32.522447528875254 $763 $801 forward 7 unknown #
coedge $-1 $755 $717 $757 $797 forward $600 $-1 #
vertex $-1 $764 $802 #
coedge $-1 $722 $755 $786 $803 forward $600 $-1 #
coedge $-1 $787 $747 $722 $769 forward $709 $-1 #
edge $-1 $771 -147.31987185042928 $804 5.3062605952029855 $722 $805 forward 7 unknown #
coedge $-1 $729 $723 $747 $785 reversed $730 $-1 #
vertex $-1 $724 $806 #
straight-curve $-1 71.006805627613147 -32.522447528875254 0 0 0 -1 I I #
face $-1 $781 $777 $19 $-1 $807 reversed single #
plane-surface $-1 -71.006805627613147 0 0 1 0 0 0 0 -1 forward_v I I I I #
coedge $-1 $790 $727 $729 $780 forward $777 $-1 #
coedge $-1 $727 $753 $758 $798 reversed $777 $-1 #
loop $-1 $-1 $775 $773 #
vertex $-1 $728 $808 #
straight-curve $-1 0 32.522447528875254 12.939402194271311 -1 0 0 I I #
edge $-1 $731 -12.939402194271311 $809 12.939402194271311 $729 $810 forward 7 unknown #
face $-1 $-1 $730 $19 $-1 $811 reversed single #
point $-1 71.006805627613147 32.522447528875254 12.939402194271311 #
straight-curve $-1 0 32.522447528875254 -12.939402194271311 1 0 0 I I #
coedge $-1 $747 $787 $790 $812 forward $709 $-1 #
edge $-1 $809 -32.522447528875254 $771 32.522447528875254 $770 $813 forward 7 unknown #
coedge $-1 $749 $748 $767 $803 reversed $660 $-1 #
coedge $-1 $784 $768 $748 $788 forward $709 $-1 #
edge $-1 $804 -32.522447528875254 $792 32.522447528875254 $748 $814 forward 7 unknown #
edge $-1 $791 -32.522447528875254 $795 32.522447528875254 $749 $815 forward 7 unknown #
coedge $-1 $750 $775 $784 $812 reversed $777 $-1 #
vertex $-1 $754 $816 #
vertex $-1 $812 $817 #
straight-curve $-1 -81.619326818019118 32.522447528875254 -10.648835391455346 0 0 -1 I I #
straight-curve $-1 -76.313066222816133 32.522447528875254 -8.3582685886393815 -1 0 0 I I #
vertex $-1 $789 $818 #
straight-curve $-1 -76.313066222816133 -32.522447528875254 -8.3582685886393815 1 0 0 I I #
edge $-1 $766 -12.939402194271311 $761 8.3582685886393815 $757 $819 forward 7 unknown #
edge $-1 $778 -12.939402194271311 $760 8.3582685886393815 $776 $820 forward 7 unknown #
point $-1 -71.006805627613147 32.522447528875254 -8.3582685886393815 #
point $-1 -71.006805627613147 -32.522447528875254 -8.3582685886393815 #
straight-curve $-1 -71.006805627613147 0 12.939402194271311 0 -1 0 I I #
point $-1 -71.006805627613147 -32.522447528875254 12.939402194271311 #
edge $-1 $795 -2.2905668028159649 $804 2.2905668028159649 $786 $821 forward 7 unknown #
vertex $-1 $788 $822 #
straight-curve $-1 -76.313066222816133 -32.522447528875254 -12.939402194271311 -1 0 0 I I #
point $-1 71.006805627613147 -32.522447528875254 -12.939402194271311 #
plane-surface $-1 0 32.522447528875254 0 0 -1 0 0 0 -1 forward_v I I I I #
point $-1 -71.006805627613147 32.522447528875254 12.939402194271311 #
vertex $-1 $785 $823 #
straight-curve $-1 71.006805627613147 32.522447528875254 0 0 0 -1 I I #
plane-surface $-1 71.006805627613147 0 0 -1 0 0 0 0 1 forward_v I I I I #
edge $-1 $792 -81.619326818019118 $809 71.006805627613147 $790 $824 forward 7 unknown #
straight-curve $-1 71.006805627613147 0 -12.939402194271311 0 -1 0 I I #
straight-curve $-1 -81.619326818019118 0 -12.939402194271311 0 1 0 I I #
straight-curve $-1 -81.619326818019118 0 -8.3582685886393815 0 -1 0 I I #
point $-1 -81.619326818019118 32.522447528875254 -8.3582685886393815 #
point $-1 -81.619326818019118 32.522447528875254 -12.939402194271311 #
point $-1 -81.619326818019118 -32.522447528875254 -8.3582685886393815 #
straight-curve $-1 -71.006805627613147 -32.522447528875254 0 0 0 -1 I I #
straight-curve $-1 -71.006805627613147 32.522447528875254 0 0 0 -1 I I #
straight-curve $-1 -81.619326818019118 -32.522447528875254 -10.648835391455346 0 0 -1 I I #
point $-1 -81.619326818019118 -32.522447528875254 -12.939402194271311 #
point $-1 71.006805627613147 32.522447528875254 -12.939402194271311 #
straight-curve $-1 0 32.522447528875254 -12.939402194271311 1 0 0 I I #
End-of-ACIS-data 