500 0 15 0           
7 Unknown 11 ACIS 5.0 NT 24 Fri Mar 26 00:02:35 1999 
-1 9.9999999999999995e-007 1e-010 
body $-1 $15 $-1 $16 #
body $-1 $17 $-1 $18 #
body $-1 $19 $-1 $20 #
body $-1 $21 $-1 $22 #
body $-1 $23 $-1 $24 #
body $-1 $25 $-1 $26 #
body $-1 $27 $-1 $28 #
body $-1 $29 $-1 $30 #
body $-1 $31 $-1 $32 #
body $-1 $33 $-1 $34 #
body $-1 $35 $-1 $36 #
body $-1 $37 $-1 $38 #
body $-1 $39 $-1 $40 #
body $-1 $41 $-1 $42 #
body $-1 $43 $-1 $44 #
lump $-1 $-1 $45 $0 #
transform $-1 1 0 0 0 1 0 0 0 1 64.691915646839817 42.402848875803009 12.994033208157999 1 rotate no_reflect no_shear #
lump $-1 $-1 $46 $1 #
transform $-1 1 0 0 0 1 0 0 0 1 64.691915646839817 42.402848875803009 12.994033208157999 1 rotate no_reflect no_shear #
lump $-1 $-1 $47 $2 #
transform $-1 1 0 0 0 1 0 0 0 1 64.691915646839817 42.402848875803009 12.994033208157999 1 rotate no_reflect no_shear #
lump $-1 $-1 $48 $3 #
transform $-1 1 0 0 0 1 0 0 0 1 64.691915646839817 42.402848875803009 12.994033208157999 1 rotate no_reflect no_shear #
lump $-1 $-1 $49 $4 #
transform $-1 1 0 0 0 1 0 0 0 1 64.691915646839817 42.402848875803009 12.994033208157999 1 rotate no_reflect no_shear #
lump $-1 $-1 $50 $5 #
transform $-1 1 0 0 0 1 0 0 0 1 64.691915646839817 42.402848875803009 12.994033208157999 1 rotate no_reflect no_shear #
lump $-1 $-1 $51 $6 #
transform $-1 1 0 0 0 1 0 0 0 1 64.691915646839817 42.402848875803009 12.994033208157999 1 rotate no_reflect no_shear #
lump $-1 $-1 $52 $7 #
transform $-1 1 0 0 0 1 0 0 0 1 64.691915646839817 42.402848875803009 12.994033208157999 1 rotate no_reflect no_shear #
lump $-1 $-1 $53 $8 #
transform $-1 1 0 0 0 1 0 0 0 1 64.691915646839817 42.402848875803009 12.994033208157999 1 rotate no_reflect no_shear #
lump $-1 $-1 $54 $9 #
transform $-1 1 0 0 0 1 0 0 0 1 64.691915646839817 42.402848875803009 12.994033208157999 1 rotate no_reflect no_shear #
lump $-1 $-1 $55 $10 #
transform $-1 1 0 0 0 1 0 0 0 1 64.691915646839817 42.402848875803009 12.994033208157999 1 rotate no_reflect no_shear #
lump $-1 $-1 $56 $11 #
transform $-1 1 0 0 0 1 0 0 0 1 64.691915646839817 42.402848875803009 12.994033208157999 1 rotate no_reflect no_shear #
lump $-1 $-1 $57 $12 #
transform $-1 1 0 0 0 1 0 0 0 1 64.691915646839817 42.402848875803009 12.994033208157999 1 rotate no_reflect no_shear #
lump $-1 $-1 $58 $13 #
transform $-1 1 0 0 0 1 0 0 0 1 64.691915646839817 42.402848875803009 12.994033208157999 1 rotate no_reflect no_shear #
lump $-1 $-1 $59 $14 #
transform $-1 1 0 0 0 1 0 0 0 1 64.691915646839817 42.402848875803009 12.994033208157999 1 rotate no_reflect no_shear #
shell $-1 $-1 $-1 $60 $-1 $15 #
shell $-1 $-1 $-1 $61 $-1 $17 #
shell $-1 $-1 $-1 $62 $-1 $19 #
shell $-1 $-1 $-1 $63 $-1 $21 #
shell $-1 $-1 $-1 $64 $-1 $23 #
shell $-1 $-1 $-1 $65 $-1 $25 #
shell $-1 $-1 $-1 $66 $-1 $27 #
shell $-1 $-1 $-1 $67 $-1 $29 #
shell $-1 $-1 $-1 $68 $-1 $31 #
shell $-1 $-1 $-1 $69 $-1 $33 #
shell $-1 $-1 $-1 $70 $-1 $35 #
shell $-1 $-1 $-1 $71 $-1 $37 #
shell $-1 $-1 $-1 $72 $-1 $39 #
shell $-1 $-1 $-1 $73 $-1 $41 #
shell $-1 $-1 $-1 $74 $-1 $43 #
face $-1 $75 $76 $45 $-1 $77 forward single #
face $-1 $78 $79 $46 $-1 $80 forward single #
face $-1 $81 $82 $47 $-1 $83 forward single #
face $-1 $84 $85 $48 $-1 $86 reversed single #
face $-1 $87 $88 $49 $-1 $89 forward single #
face $-1 $90 $91 $50 $-1 $92 forward single #
face $-1 $93 $94 $51 $-1 $95 forward single #
face $-1 $96 $97 $52 $-1 $98 reversed single #
face $-1 $99 $100 $53 $-1 $101 forward single #
face $-1 $102 $103 $54 $-1 $104 forward single #
face $-1 $105 $106 $55 $-1 $107 forward single #
face $-1 $108 $109 $56 $-1 $110 reversed single #
face $-1 $111 $112 $57 $-1 $113 forward single #
face $-1 $114 $115 $58 $-1 $116 reversed single #
face $-1 $117 $118 $59 $-1 $119 forward single #
face $-1 $120 $121 $45 $-1 $122 reversed single #
loop $-1 $-1 $123 $60 #
plane-surface $-1 0 0 12.994033208157999 0 0 1 1 0 0 forward_v I I I I #
face $-1 $124 $125 $46 $-1 $126 reversed single #
loop $-1 $-1 $127 $61 #
plane-surface $-1 0 -34.543923396103992 5.3232052696021359 0 0 1 1 0 0 forward_v I I I I #
face $-1 $128 $129 $47 $-1 $130 reversed single #
loop $-1 $-1 $131 $62 #
plane-surface $-1 0 35.114099209789153 -6.1220705181293145 0 0 1 1 0 0 forward_v I I I I #
face $-1 $132 $133 $48 $-1 $134 reversed single #
loop $-1 $-1 $135 $63 #
plane-surface $-1 -147.85824031838845 -1.516860261060927 99.822591099655952 0 -1 0 0.64278761758704617 0 -0.76604443648966558 forward_v I I I I #
face $-1 $136 $137 $49 $-1 $138 forward single #
loop $-1 $139 $140 $64 #
cone-surface $-1 -57.025178399040485 -7.8547151109169988 6.4387638869301096 0.64278761758704617 0 -0.76604443648966558 0.38302221824483279 0 0.32139380879352308 1 I I 0 1 0.5 forward I I I I #
face $-1 $141 $142 $50 $-1 $143 forward single #
loop $-1 $144 $145 $65 #
cone-surface $-1 -57.025178399040485 -5.4780195422209701 6.4387638869301096 0.64278761758704617 0 -0.76604443648966558 0.38302221824483279 0 0.32139380879352308 1 I I 0 1 0.5 forward I I I I #
face $-1 $146 $147 $51 $-1 $148 forward single #
loop $-1 $149 $150 $66 #
cone-surface $-1 -57.025178399040485 -3.1013239735249485 6.4387638869301096 0.64278761758704617 0 -0.76604443648966558 0.38302221824483279 0 0.32139380879352308 1 I I 0 1 0.5 forward I I I I #
face $-1 $151 $152 $52 $-1 $153 reversed single #
loop $-1 $-1 $154 $67 #
plane-surface $-1 -147.85824031838845 10.579530450751335 99.822591099655952 0 -1 0 0.64278761758704617 0 -0.76604443648966558 forward_v I I I I #
face $-1 $155 $156 $53 $-1 $157 forward single #
loop $-1 $158 $159 $68 #
cone-surface $-1 -57.025178399040485 4.2416756008952632 6.4387638869301096 0.64278761758704617 0 -0.76604443648966558 0.38302221824483279 0 0.32139380879352308 1 I I 0 1 0.5 forward I I I I #
face $-1 $160 $161 $54 $-1 $162 forward single #
loop $-1 $163 $164 $69 #
cone-surface $-1 -57.025178399040485 6.6183711695912919 6.4387638869301096 0.64278761758704617 0 -0.76604443648966558 0.38302221824483279 0 0.32139380879352308 1 I I 0 1 0.5 forward I I I I #
face $-1 $165 $166 $55 $-1 $167 forward single #
loop $-1 $168 $169 $70 #
cone-surface $-1 -57.025178399040485 8.9950667382873135 6.4387638869301096 0.64278761758704617 0 -0.76604443648966558 0.38302221824483279 0 0.32139380879352308 1 I I 0 1 0.5 forward I I I I #
face $-1 $170 $171 $56 $-1 $172 reversed single #
loop $-1 $-1 $173 $71 #
plane-surface $-1 29.77838008110686 -8.0888996207278083 184.58094181579401 0 1 0 0.55919291073839883 0 0.82903756765294845 forward_v I I I I #
face $-1 $174 $175 $57 $-1 $176 forward single #
loop $-1 $177 $178 $72 #
cone-surface $-1 57.752594313326426 -3.7593619035213237 7.5145880077102714 -0.55919291073839883 0 -0.82903756765294845 1.2435563514794228 0 -0.83878936610759824 1 I I 0 1 1.5 forward I I I I #
face $-1 $179 $180 $58 $-1 $181 reversed single #
loop $-1 $-1 $182 $73 #
plane-surface $-1 29.77838008110686 9.2292512480981301 184.58094181579401 0 -1 0 -0.55919291073839883 0 -0.82903756765294845 forward_v I I I I #
face $-1 $183 $184 $59 $-1 $185 forward single #
loop $-1 $186 $187 $74 #
cone-surface $-1 57.752594313326426 4.8997135308916455 7.5145880077102714 -0.55919291073839883 0 -0.82903756765294845 1.2435563514794228 0 -0.83878936610759824 1 I I 0 1 1.5 forward I I I I #
face $-1 $188 $189 $45 $-1 $190 reversed single #
loop $-1 $-1 $191 $75 #
plane-surface $-1 0 0 -12.994033208157999 0 0 1 1 0 0 forward_v I I I I #
coedge $-1 $192 $193 $194 $195 forward $76 $-1 #
face $-1 $196 $197 $46 $-1 $198 reversed single #
loop $-1 $-1 $199 $78 #
plane-surface $-1 0 -34.543923396103992 1.1291229912086127 0 0 1 1 0 0 forward_v I I I I #
coedge $-1 $200 $201 $202 $203 reversed $79 $-1 #
face $-1 $204 $205 $47 $-1 $206 reversed single #
loop $-1 $-1 $207 $81 #
plane-surface $-1 0 27.825349543775296 -9.5580518631436568 0 1 0 0 0 1 forward_v I I I I #
coedge $-1 $208 $209 $210 $211 reversed $82 $-1 #
face $-1 $212 $213 $48 $-1 $214 reversed single #
loop $-1 $-1 $215 $84 #
plane-surface $-1 -64.691915646839817 -5.4780195422209701 0.70882696541518442 -0.64278761758704617 0 0.76604443648966558 0.76604443648966558 0 0.64278761758704617 forward_v I I I I #
coedge $-1 $216 $217 $218 $219 reversed $85 $-1 #
face $-1 $-1 $220 $49 $-1 $221 forward single #
loop $-1 $222 $223 $87 #
cone-surface $-1 -56.518213431292253 -7.8547151109169988 5.834586577951212 0.64278761758704617 0 -0.76604443648966558 0.1915111091224164 0 0.16069690439676154 1 I I -0.70710678118654746 0.70710678118654746 0.25 forward I I I I #
loop $-1 $-1 $224 $64 #
coedge $-1 $140 $140 $225 $226 reversed $88 $-1 #
face $-1 $-1 $227 $50 $-1 $228 forward single #
loop $-1 $229 $230 $90 #
cone-surface $-1 -56.518213431292253 -5.4780195422209701 5.834586577951212 0.64278761758704617 0 -0.76604443648966558 0.1915111091224164 0 0.16069690439676154 1 I I -0.70710678118654746 0.70710678118654746 0.25 forward I I I I #
loop $-1 $-1 $231 $65 #
coedge $-1 $145 $145 $232 $233 reversed $91 $-1 #
face $-1 $-1 $234 $51 $-1 $235 forward single #
loop $-1 $236 $237 $93 #
cone-surface $-1 -56.518213431292253 -3.1013239735249485 5.834586577951212 0.64278761758704617 0 -0.76604443648966558 0.1915111091224164 0 0.16069690439676154 1 I I -0.70710678118654746 0.70710678118654746 0.25 forward I I I I #
loop $-1 $-1 $238 $66 #
coedge $-1 $150 $150 $239 $240 reversed $94 $-1 #
face $-1 $241 $242 $52 $-1 $243 reversed single #
loop $-1 $-1 $244 $96 #
plane-surface $-1 -64.691915646839817 6.6183711695912919 0.70882696541518442 -0.64278761758704617 0 0.76604443648966558 0.76604443648966558 0 0.64278761758704617 forward_v I I I I #
coedge $-1 $245 $246 $247 $248 reversed $97 $-1 #
face $-1 $-1 $249 $53 $-1 $250 forward single #
loop $-1 $251 $252 $99 #
cone-surface $-1 -56.518213431292253 4.2416756008952632 5.834586577951212 0.64278761758704617 0 -0.76604443648966558 0.1915111091224164 0 0.16069690439676154 1 I I -0.70710678118654746 0.70710678118654746 0.25 forward I I I I #
loop $-1 $-1 $253 $68 #
coedge $-1 $159 $159 $254 $255 reversed $100 $-1 #
face $-1 $-1 $256 $54 $-1 $257 forward single #
loop $-1 $258 $259 $102 #
cone-surface $-1 -56.518213431292253 6.6183711695912919 5.834586577951212 0.64278761758704617 0 -0.76604443648966558 0.1915111091224164 0 0.16069690439676154 1 I I -0.70710678118654746 0.70710678118654746 0.25 forward I I I I #
loop $-1 $-1 $260 $69 #
coedge $-1 $164 $164 $261 $262 reversed $103 $-1 #
face $-1 $-1 $263 $55 $-1 $264 forward single #
loop $-1 $265 $266 $105 #
cone-surface $-1 -56.518213431292253 8.9950667382873135 5.834586577951212 0.64278761758704617 0 -0.76604443648966558 0.1915111091224164 0 0.16069690439676154 1 I I -0.70710678118654746 0.70710678118654746 0.25 forward I I I I #
loop $-1 $-1 $267 $70 #
coedge $-1 $169 $169 $268 $269 reversed $106 $-1 #
face $-1 $270 $271 $56 $-1 $272 reversed single #
loop $-1 $-1 $273 $108 #
plane-surface $-1 -42.572141142491787 -3.7593619035213237 77.316885026462401 0.55919291073839883 0 0.82903756765294845 0.82903756765294845 0 -0.55919291073839883 forward_v I I I I #
coedge $-1 $274 $275 $276 $277 reversed $109 $-1 #
face $-1 $-1 $278 $57 $-1 $279 forward single #
loop $-1 $280 $281 $111 #
cone-surface $-1 56.344632848438977 -3.7593619035213237 5.4271993341699574 -0.55919291073839883 0 -0.82903756765294845 0.62177817573971139 0 -0.41939468305379912 1 I I -0.70710678118654757 0.70710678118654757 0.75 forward I I I I #
loop $-1 $-1 $282 $72 #
coedge $-1 $178 $178 $283 $284 reversed $112 $-1 #
face $-1 $285 $286 $58 $-1 $287 reversed single #
loop $-1 $-1 $288 $114 #
plane-surface $-1 -42.572141142491787 -3.7593619035213237 77.316885026462401 0.55919291073839883 0 0.82903756765294845 0.82903756765294845 0 -0.55919291073839883 forward_v I I I I #
coedge $-1 $289 $290 $291 $292 reversed $115 $-1 #
face $-1 $-1 $293 $59 $-1 $294 forward single #
loop $-1 $295 $296 $117 #
cone-surface $-1 56.344632848438977 4.8997135308916455 5.4271993341699574 -0.55919291073839883 0 -0.82903756765294845 0.62177817573971139 0 -0.41939468305379912 1 I I -0.70710678118654757 0.70710678118654757 0.75 forward I I I I #
loop $-1 $-1 $297 $74 #
coedge $-1 $187 $187 $298 $299 reversed $118 $-1 #
face $-1 $300 $301 $45 $-1 $302 reversed single #
loop $-1 $-1 $303 $120 #
plane-surface $-1 0 -42.402848875803009 0 0 1 0 0 0 1 forward_v I I I I #
coedge $-1 $304 $305 $306 $307 forward $121 $-1 #
coedge $-1 $308 $123 $309 $310 forward $76 $-1 #
coedge $-1 $123 $308 $311 $312 forward $76 $-1 #
coedge $-1 $313 $314 $123 $195 reversed $315 $-1 #
edge $-1 $316 -42.402848875803009 $317 42.402848875803009 $194 $318 forward 7 unknown #
face $-1 $319 $320 $46 $-1 $321 reversed single #
loop $-1 $-1 $322 $124 #
plane-surface $-1 0 -26.684997916404971 3.2261641304053743 0 -1 0 0 0 -1 forward_v I I I I #
coedge $-1 $323 $324 $325 $326 reversed $125 $-1 #
coedge $-1 $327 $127 $328 $329 forward $79 $-1 #
coedge $-1 $127 $327 $330 $331 reversed $79 $-1 #
coedge $-1 $332 $333 $127 $203 forward $334 $-1 #
edge $-1 $335 9.4130362183529748 $336 25.130887177751013 $202 $337 forward 7 unknown #
face $-1 $338 $339 $47 $-1 $340 reversed single #
loop $-1 $-1 $210 $128 #
plane-surface $-1 64.691915646839817 0 0 -1 0 0 0 0 1 forward_v I I I I #
coedge $-1 $341 $342 $343 $344 reversed $129 $-1 #
coedge $-1 $345 $131 $346 $347 reversed $82 $-1 #
coedge $-1 $131 $345 $342 $348 forward $82 $-1 #
coedge $-1 $349 $350 $131 $211 forward $205 $-1 #
edge $-1 $351 -24.845799270908433 $352 -10.26829993888072 $210 $353 forward 7 unknown #
face $-1 $354 $355 $48 $-1 $356 reversed single #
loop $-1 $-1 $357 $132 #
plane-surface $-1 -147.85824031838845 -9.4391788233810132 99.822591099655952 0 1 0 -0.64278761758704617 0 0.76604443648966558 forward_v I I I I #
coedge $-1 $358 $359 $360 $361 reversed $133 $-1 #
coedge $-1 $217 $135 $362 $363 reversed $85 $-1 #
coedge $-1 $135 $216 $358 $364 reversed $85 $-1 #
coedge $-1 $360 $365 $135 $219 forward $355 $-1 #
edge $-1 $366 36.917262341669975 $367 49.202468584412792 $218 $368 forward 7 unknown #
loop $-1 $-1 $225 $136 #
plane-surface $-1 -64.691915646839817 -5.4780195422209701 0.70882696541518442 -0.64278761758704617 0 0.76604443648966558 0.76604443648966558 0 0.64278761758704617 forward_v I I I I #
loop $-1 $-1 $369 $87 #
coedge $-1 $223 $223 $224 $370 reversed $137 $-1 #
coedge $-1 $224 $224 $223 $370 forward $139 $-1 #
coedge $-1 $225 $225 $140 $226 forward $220 $-1 #
edge $-1 $371 0 $371 6.2831853071796004 $225 $372 forward 7 unknown #
loop $-1 $-1 $232 $141 #
plane-surface $-1 -64.691915646839817 -5.4780195422209701 0.70882696541518442 -0.64278761758704617 0 0.76604443648966558 0.76604443648966558 0 0.64278761758704617 forward_v I I I I #
loop $-1 $-1 $373 $90 #
coedge $-1 $230 $230 $231 $374 reversed $142 $-1 #
coedge $-1 $231 $231 $230 $374 forward $144 $-1 #
coedge $-1 $232 $232 $145 $233 forward $227 $-1 #
edge $-1 $375 0 $375 6.2831853071796004 $232 $376 forward 7 unknown #
loop $-1 $-1 $239 $146 #
plane-surface $-1 -64.691915646839817 -5.4780195422209701 0.70882696541518442 -0.64278761758704617 0 0.76604443648966558 0.76604443648966558 0 0.64278761758704617 forward_v I I I I #
loop $-1 $-1 $377 $93 #
coedge $-1 $237 $237 $238 $378 reversed $147 $-1 #
coedge $-1 $238 $238 $237 $378 forward $149 $-1 #
coedge $-1 $239 $239 $150 $240 forward $234 $-1 #
edge $-1 $379 0 $379 6.2831853071796004 $239 $380 forward 7 unknown #
face $-1 $381 $382 $52 $-1 $383 forward single #
loop $-1 $-1 $384 $151 #
plane-surface $-1 -147.85824031838845 2.6572118884312488 99.822591099655952 0 1 0 -0.64278761758704617 0 0.76604443648966558 forward_v I I I I #
coedge $-1 $385 $386 $387 $388 reversed $152 $-1 #
coedge $-1 $246 $154 $389 $390 reversed $97 $-1 #
coedge $-1 $154 $245 $385 $391 reversed $97 $-1 #
coedge $-1 $387 $392 $154 $248 forward $393 $-1 #
edge $-1 $394 36.917262341669975 $395 49.202468584412792 $247 $396 forward 7 unknown #
loop $-1 $-1 $254 $155 #
plane-surface $-1 -64.691915646839817 6.6183711695912919 0.70882696541518442 -0.64278761758704617 0 0.76604443648966558 0.76604443648966558 0 0.64278761758704617 forward_v I I I I #
loop $-1 $-1 $397 $99 #
coedge $-1 $252 $252 $253 $398 reversed $156 $-1 #
coedge $-1 $253 $253 $252 $398 forward $158 $-1 #
coedge $-1 $254 $254 $159 $255 forward $249 $-1 #
edge $-1 $399 0 $399 6.2831853071796004 $254 $400 forward 7 unknown #
loop $-1 $-1 $261 $160 #
plane-surface $-1 -64.691915646839817 6.6183711695912919 0.70882696541518442 -0.64278761758704617 0 0.76604443648966558 0.76604443648966558 0 0.64278761758704617 forward_v I I I I #
loop $-1 $-1 $401 $102 #
coedge $-1 $259 $259 $260 $402 reversed $161 $-1 #
coedge $-1 $260 $260 $259 $402 forward $163 $-1 #
coedge $-1 $261 $261 $164 $262 forward $256 $-1 #
edge $-1 $403 0 $403 6.2831853071796004 $261 $404 forward 7 unknown #
loop $-1 $-1 $268 $165 #
plane-surface $-1 -64.691915646839817 6.6183711695912919 0.70882696541518442 -0.64278761758704617 0 0.76604443648966558 0.76604443648966558 0 0.64278761758704617 forward_v I I I I #
loop $-1 $-1 $405 $105 #
coedge $-1 $266 $266 $267 $406 reversed $166 $-1 #
coedge $-1 $267 $267 $266 $406 forward $168 $-1 #
coedge $-1 $268 $268 $169 $269 forward $263 $-1 #
edge $-1 $407 0 $407 6.2831853071796004 $268 $408 forward 7 unknown #
face $-1 $409 $410 $56 $-1 $411 forward single #
loop $-1 $-1 $412 $170 #
plane-surface $-1 29.77838008110686 0.5701758136851609 184.58094181579401 0 -1 0 -0.55919291073839883 0 -0.82903756765294845 forward_v I I I I #
coedge $-1 $413 $414 $415 $416 reversed $171 $-1 #
coedge $-1 $275 $173 $417 $418 reversed $109 $-1 #
coedge $-1 $173 $274 $413 $419 reversed $109 $-1 #
coedge $-1 $415 $420 $173 $277 forward $421 $-1 #
edge $-1 $422 79.296437699739002 $423 87.324107105033249 $276 $424 forward 7 unknown #
loop $-1 $-1 $283 $174 #
plane-surface $-1 -42.572141142491787 -3.7593619035213237 77.316885026462401 0.55919291073839883 0 0.82903756765294845 0.82903756765294845 0 -0.55919291073839883 forward_v I I I I #
loop $-1 $-1 $425 $111 #
coedge $-1 $281 $281 $282 $426 reversed $175 $-1 #
coedge $-1 $282 $282 $281 $426 forward $177 $-1 #
coedge $-1 $283 $283 $178 $284 forward $278 $-1 #
edge $-1 $427 0 $427 6.2831853071796004 $283 $428 forward 7 unknown #
face $-1 $429 $430 $58 $-1 $431 forward single #
loop $-1 $-1 $432 $179 #
plane-surface $-1 64.691915646839817 0 0 -1 0 0 0 0 1 forward_v I I I I #
coedge $-1 $433 $434 $435 $436 reversed $180 $-1 #
coedge $-1 $290 $182 $437 $438 reversed $115 $-1 #
coedge $-1 $182 $289 $439 $440 reversed $115 $-1 #
coedge $-1 $441 $432 $182 $292 forward $286 $-1 #
edge $-1 $442 -87.324107105033249 $443 -79.296437699739002 $291 $444 forward 7 unknown #
loop $-1 $-1 $298 $183 #
plane-surface $-1 -42.572141142491787 -3.7593619035213237 77.316885026462401 0.55919291073839883 0 0.82903756765294845 0.82903756765294845 0 -0.55919291073839883 forward_v I I I I #
loop $-1 $-1 $445 $117 #
coedge $-1 $296 $296 $297 $446 reversed $184 $-1 #
coedge $-1 $297 $297 $296 $446 forward $186 $-1 #
coedge $-1 $298 $298 $187 $299 forward $293 $-1 #
edge $-1 $447 0 $447 6.2831853071796004 $298 $448 forward 7 unknown #
face $-1 $449 $450 $45 $-1 $451 reversed single #
loop $-1 $-1 $452 $188 #
plane-surface $-1 -64.691915646839817 0 0 1 0 0 0 0 -1 forward_v I I I I #
coedge $-1 $453 $311 $454 $455 forward $189 $-1 #
coedge $-1 $456 $191 $453 $457 forward $121 $-1 #
coedge $-1 $191 $456 $458 $459 forward $121 $-1 #
coedge $-1 $314 $313 $191 $307 reversed $315 $-1 #
edge $-1 $460 -42.402848875803009 $461 42.402848875803009 $306 $462 forward 7 unknown #
coedge $-1 $193 $192 $463 $464 forward $76 $-1 #
coedge $-1 $465 $466 $192 $310 reversed $450 $-1 #
edge $-1 $317 -64.691915646839817 $467 64.691915646839817 $309 $468 forward 7 unknown #
coedge $-1 $303 $469 $193 $312 reversed $189 $-1 #
edge $-1 $470 -64.691915646839817 $316 64.691915646839817 $311 $471 forward 7 unknown #
coedge $-1 $306 $194 $469 $472 forward $315 $-1 #
coedge $-1 $194 $306 $465 $473 reversed $315 $-1 #
loop $-1 $-1 $313 $449 #
vertex $-1 $195 $474 #
vertex $-1 $195 $475 #
straight-curve $-1 64.691915646839817 0 12.994033208157999 0 1 0 I I #
face $-1 $476 $477 $46 $-1 $478 reversed single #
loop $-1 $-1 $479 $196 #
plane-surface $-1 -64.691915646839817 0 0 1 0 0 0 0 -1 forward_v I I I I #
coedge $-1 $480 $328 $333 $481 reversed $197 $-1 #
coedge $-1 $482 $199 $483 $484 reversed $125 $-1 #
coedge $-1 $199 $482 $480 $485 forward $125 $-1 #
coedge $-1 $333 $332 $199 $326 forward $334 $-1 #
edge $-1 $486 -25.130887177751013 $487 -9.4130362183529748 $325 $488 forward 7 unknown #
coedge $-1 $201 $200 $479 $489 reversed $79 $-1 #
coedge $-1 $322 $490 $200 $329 reversed $197 $-1 #
edge $-1 $335 -64.691915646839817 $491 64.691915646839817 $328 $492 forward 7 unknown #
coedge $-1 $493 $494 $201 $331 forward $477 $-1 #
edge $-1 $336 -64.691915646839817 $495 64.691915646839817 $330 $496 forward 7 unknown #
coedge $-1 $325 $202 $494 $497 forward $334 $-1 #
coedge $-1 $202 $325 $322 $481 forward $334 $-1 #
loop $-1 $-1 $202 $476 #
vertex $-1 $203 $498 #
vertex $-1 $497 $499 #
straight-curve $-1 64.691915646839817 -17.271961698051996 5.3232052696021359 0 -1 0 I I #
face $-1 $500 $501 $47 $-1 $502 reversed single #
loop $-1 $-1 $503 $204 #
plane-surface $-1 0 0 -12.994033208157999 0 0 1 1 0 0 forward_v I I I I #
coedge $-1 $504 $207 $503 $505 reversed $129 $-1 #
coedge $-1 $207 $504 $209 $348 reversed $129 $-1 #
coedge $-1 $506 $507 $207 $344 forward $501 $-1 #
edge $-1 $508 -8.2150072765861708 $509 -1.343044586557486 $343 $510 forward 7 unknown #
coedge $-1 $209 $208 $506 $511 reversed $82 $-1 #
coedge $-1 $512 $513 $208 $347 forward $514 $-1 #
edge $-1 $515 -64.691915646839817 $351 64.691915646839817 $346 $516 forward 7 unknown #
edge $-1 $509 -64.691915646839817 $352 64.691915646839817 $342 $517 forward 7 unknown #
coedge $-1 $518 $210 $504 $519 forward $205 $-1 #
coedge $-1 $210 $518 $512 $520 reversed $205 $-1 #
vertex $-1 $520 $521 #
vertex $-1 $211 $522 #
straight-curve $-1 64.691915646839817 17.557049604894576 -6.1220705181293145 0 -1 0 I I #
face $-1 $-1 $523 $48 $-1 $524 forward single #
loop $-1 $-1 $218 $212 #
plane-surface $-1 -64.691915646839817 0 0 1 0 0 0 0 -1 forward_v I I I I #
coedge $-1 $525 $526 $527 $528 reversed $213 $-1 #
coedge $-1 $529 $215 $217 $364 forward $133 $-1 #
coedge $-1 $215 $529 $525 $530 forward $133 $-1 #
coedge $-1 $527 $218 $215 $361 forward $355 $-1 #
edge $-1 $367 -1.2221495100495581 $531 6.7001690522705282 $360 $532 forward 7 unknown #
coedge $-1 $533 $534 $216 $363 forward $523 $-1 #
edge $-1 $535 -23.878142881250113 $366 -9.2372045123544098 $362 $536 forward 7 unknown #
edge $-1 $367 0 $535 19.11238783481879 $217 $537 forward 7 unknown #
coedge $-1 $218 $527 $533 $538 reversed $355 $-1 #
vertex $-1 $538 $539 #
vertex $-1 $219 $540 #
straight-curve $-1 -64.691915646839817 -1.516860261060927 49.911295549827976 0 0 -1 I I #
coedge $-1 $369 $369 $-1 $541 reversed $222 $-1 #
edge $-1 $542 0 $542 6.2831853071796004 $223 $543 forward 7 unknown #
vertex $-1 $226 $544 #
ellipse-curve $-1 -57.371446462391958 -7.8547151109169988 6.8514300867865954 -0.64278761758704617 0 0.76604443648966558 0.38302221824483279 0 0.32139380879352308 1 I I #
coedge $-1 $373 $373 $-1 $545 reversed $229 $-1 #
edge $-1 $546 0 $546 6.2831853071796004 $230 $547 forward 7 unknown #
vertex $-1 $233 $548 #
ellipse-curve $-1 -57.371446462391958 -5.4780195422209701 6.8514300867865954 -0.64278761758704617 0 0.76604443648966558 0.38302221824483279 0 0.32139380879352308 1 I I #
coedge $-1 $377 $377 $-1 $549 reversed $236 $-1 #
edge $-1 $550 0 $550 6.2831853071796004 $237 $551 forward 7 unknown #
vertex $-1 $240 $552 #
ellipse-curve $-1 -57.371446462391958 -3.1013239735249485 6.8514300867865954 -0.64278761758704617 0 0.76604443648966558 0.38302221824483279 0 0.32139380879352308 1 I I #
face $-1 $-1 $393 $52 $-1 $553 reversed single #
loop $-1 $-1 $554 $241 #
plane-surface $-1 0 0 12.994033208157999 0 0 1 1 0 0 forward_v I I I I #
coedge $-1 $555 $556 $557 $558 reversed $242 $-1 #
coedge $-1 $559 $244 $246 $391 forward $152 $-1 #
coedge $-1 $244 $559 $555 $560 forward $152 $-1 #
coedge $-1 $557 $247 $244 $388 forward $393 $-1 #
edge $-1 $395 -7.2703448659556891 $561 0.65197369636439717 $387 $562 forward 7 unknown #
coedge $-1 $563 $564 $245 $390 forward $382 $-1 #
edge $-1 $565 -23.878142881250113 $394 -9.2372045123544098 $389 $566 forward 7 unknown #
edge $-1 $395 0 $565 19.11238783481879 $246 $567 forward 7 unknown #
coedge $-1 $247 $557 $563 $568 reversed $393 $-1 #
loop $-1 $-1 $557 $381 #
vertex $-1 $568 $569 #
vertex $-1 $248 $570 #
straight-curve $-1 -64.691915646839817 10.579530450751335 49.911295549827976 0 0 -1 I I #
coedge $-1 $397 $397 $-1 $571 reversed $251 $-1 #
edge $-1 $572 0 $572 6.2831853071796004 $252 $573 forward 7 unknown #
vertex $-1 $255 $574 #
ellipse-curve $-1 -57.371446462391958 4.2416756008952632 6.8514300867865954 -0.64278761758704617 0 0.76604443648966558 0.38302221824483279 0 0.32139380879352308 1 I I #
coedge $-1 $401 $401 $-1 $575 reversed $258 $-1 #
edge $-1 $576 0 $576 6.2831853071796004 $259 $577 forward 7 unknown #
vertex $-1 $262 $578 #
ellipse-curve $-1 -57.371446462391958 6.6183711695912919 6.8514300867865954 -0.64278761758704617 0 0.76604443648966558 0.38302221824483279 0 0.32139380879352308 1 I I #
coedge $-1 $405 $405 $-1 $579 reversed $265 $-1 #
edge $-1 $580 0 $580 6.2831853071796004 $266 $581 forward 7 unknown #
vertex $-1 $269 $582 #
ellipse-curve $-1 -57.371446462391958 8.9950667382873135 6.8514300867865954 -0.64278761758704617 0 0.76604443648966558 0.38302221824483279 0 0.32139380879352308 1 I I #
face $-1 $-1 $421 $56 $-1 $583 reversed single #
loop $-1 $-1 $584 $270 #
plane-surface $-1 0 0 12.994033208157999 0 0 1 1 0 0 forward_v I I I I #
coedge $-1 $585 $586 $587 $588 reversed $271 $-1 #
coedge $-1 $589 $273 $275 $419 forward $171 $-1 #
coedge $-1 $273 $589 $585 $590 forward $171 $-1 #
coedge $-1 $587 $276 $273 $416 forward $421 $-1 #
edge $-1 $423 -6.2092186689671465 $591 2.4498567654458228 $415 $592 forward 7 unknown #
coedge $-1 $593 $594 $274 $418 forward $410 $-1 #
edge $-1 $595 37.901216502926914 $422 49.802725606286387 $417 $596 forward 7 unknown #
edge $-1 $423 -129.38383129367963 $595 -115.02801731403899 $275 $597 forward 7 unknown #
coedge $-1 $276 $587 $593 $598 reversed $421 $-1 #
loop $-1 $-1 $587 $409 #
vertex $-1 $598 $599 #
vertex $-1 $277 $600 #
straight-curve $-1 64.691915646839817 -8.0888996207278083 92.290470907897003 0 0 -1 I I #
coedge $-1 $425 $425 $-1 $601 reversed $280 $-1 #
edge $-1 $602 0 $602 6.2831853071796004 $281 $603 forward 7 unknown #
vertex $-1 $284 $604 #
ellipse-curve $-1 58.741161095160074 -3.7593619035213237 8.9801985055108737 0.55919291073839883 0 0.82903756765294845 1.2435563514794228 0 -0.83878936610759824 1 I I #
face $-1 $-1 $605 $58 $-1 $606 forward single #
loop $-1 $-1 $607 $285 #
plane-surface $-1 29.77838008110686 0.5701758136851609 184.58094181579401 0 -1 0 -0.55919291073839883 0 -0.82903756765294845 forward_v I I I I #
coedge $-1 $291 $608 $434 $609 forward $286 $-1 #
coedge $-1 $437 $288 $610 $611 reversed $180 $-1 #
coedge $-1 $288 $437 $432 $609 reversed $180 $-1 #
coedge $-1 $607 $612 $288 $436 forward $430 $-1 #
edge $-1 $613 115.02801731403899 $614 129.38383129367963 $435 $615 forward 7 unknown #
coedge $-1 $434 $433 $289 $438 forward $180 $-1 #
edge $-1 $616 115.02801731403899 $442 129.38383129367963 $289 $617 forward 7 unknown #
coedge $-1 $610 $618 $290 $440 forward $605 $-1 #
edge $-1 $443 -49.802725606286387 $616 -37.901216502926914 $439 $619 forward 7 unknown #
coedge $-1 $608 $291 $618 $620 reversed $286 $-1 #
vertex $-1 $292 $621 #
vertex $-1 $440 $622 #
straight-curve $-1 64.691915646839817 9.2292512480981301 92.290470907897003 0 0 1 I I #
coedge $-1 $445 $445 $-1 $623 reversed $295 $-1 #
edge $-1 $624 0 $624 6.2831853071796004 $296 $625 forward 7 unknown #
vertex $-1 $299 $626 #
ellipse-curve $-1 58.741161095160074 4.8997135308916455 8.9801985055108737 0.55919291073839883 0 0.82903756765294845 1.2435563514794228 0 -0.83878936610759824 1 I I #
face $-1 $-1 $315 $45 $-1 $627 reversed single #
loop $-1 $-1 $465 $300 #
plane-surface $-1 0 42.402848875803009 0 0 -1 0 0 0 -1 forward_v I I I I #
coedge $-1 $628 $463 $466 $629 forward $301 $-1 #
coedge $-1 $469 $303 $304 $457 reversed $189 $-1 #
coedge $-1 $463 $628 $303 $455 reversed $301 $-1 #
edge $-1 $470 -12.994033208157999 $630 12.994033208157999 $454 $631 forward 7 unknown #
coedge $-1 $305 $304 $628 $632 forward $121 $-1 #
edge $-1 $461 -64.691915646839817 $630 64.691915646839817 $453 $633 forward 7 unknown #
coedge $-1 $466 $465 $305 $459 reversed $450 $-1 #
edge $-1 $634 -64.691915646839817 $460 64.691915646839817 $458 $635 forward 7 unknown #
vertex $-1 $307 $636 #
vertex $-1 $472 $637 #
straight-curve $-1 64.691915646839817 0 -12.994033208157999 0 -1 0 I I #
coedge $-1 $452 $454 $308 $464 reversed $301 $-1 #
edge $-1 $467 -42.402848875803009 $470 42.402848875803009 $463 $638 forward 7 unknown #
coedge $-1 $458 $309 $314 $473 forward $450 $-1 #
coedge $-1 $309 $458 $452 $629 reversed $450 $-1 #
vertex $-1 $310 $639 #
straight-curve $-1 0 42.402848875803009 12.994033208157999 -1 0 0 I I #
coedge $-1 $311 $453 $313 $472 reversed $189 $-1 #
vertex $-1 $464 $640 #
straight-curve $-1 0 -42.402848875803009 12.994033208157999 1 0 0 I I #
edge $-1 $316 -12.994033208157999 $461 12.994033208157999 $313 $641 forward 7 unknown #
edge $-1 $317 -12.994033208157999 $460 12.994033208157999 $314 $642 forward 7 unknown #
point $-1 64.691915646839817 -42.402848875803009 12.994033208157999 #
point $-1 64.691915646839817 42.402848875803009 12.994033208157999 #
face $-1 $-1 $334 $46 $-1 $643 reversed single #
loop $-1 $-1 $330 $319 #
plane-surface $-1 0 -42.402848875803009 0 0 1 0 0 0 1 forward_v I I I I #
coedge $-1 $644 $645 $327 $489 forward $320 $-1 #
coedge $-1 $490 $322 $324 $485 reversed $197 $-1 #
edge $-1 $487 -0.48395907399407445 $335 3.7101232043994488 $333 $646 forward 7 unknown #
coedge $-1 $324 $323 $647 $648 reversed $125 $-1 #
coedge $-1 $494 $493 $323 $484 forward $477 $-1 #
edge $-1 $649 -64.691915646839817 $486 64.691915646839817 $483 $650 forward 7 unknown #
edge $-1 $651 -64.691915646839817 $487 64.691915646839817 $480 $652 forward 7 unknown #
vertex $-1 $484 $653 #
vertex $-1 $326 $654 #
straight-curve $-1 64.691915646839817 -17.271961698051996 1.1291229912086127 0 1 0 I I #
edge $-1 $495 -25.130887177751013 $491 -9.4130362183529748 $479 $655 forward 7 unknown #
coedge $-1 $328 $480 $644 $656 reversed $197 $-1 #
vertex $-1 $489 $657 #
straight-curve $-1 0 -26.684997916404971 5.3232052696021359 -1 0 0 I I #
coedge $-1 $483 $330 $645 $658 forward $477 $-1 #
coedge $-1 $330 $483 $332 $497 reversed $477 $-1 #
vertex $-1 $658 $659 #
straight-curve $-1 0 -42.402848875803009 5.3232052696021359 -1 0 0 I I #
edge $-1 $336 -5.3232052696021359 $486 -1.1291229912086127 $332 $660 forward 7 unknown #
point $-1 64.691915646839817 -26.684997916404971 5.3232052696021359 #
point $-1 64.691915646839817 -42.402848875803009 5.3232052696021359 #
face $-1 $-1 $514 $47 $-1 $661 reversed single #
loop $-1 $-1 $506 $338 #
plane-surface $-1 -64.691915646839817 0 0 1 0 0 0 0 -1 forward_v I I I I #
coedge $-1 $662 $663 $341 $505 forward $339 $-1 #
coedge $-1 $342 $341 $349 $519 reversed $129 $-1 #
edge $-1 $664 -64.691915646839817 $508 64.691915646839817 $503 $665 forward 7 unknown #
coedge $-1 $666 $343 $345 $511 forward $501 $-1 #
coedge $-1 $343 $666 $662 $667 reversed $501 $-1 #
vertex $-1 $667 $668 #
vertex $-1 $511 $669 #
straight-curve $-1 -64.691915646839817 27.825349543775296 -4.7790259315718284 0 0 1 I I #
edge $-1 $509 10.26829993888072 $515 24.845799270908433 $506 $670 forward 7 unknown #
coedge $-1 $671 $346 $350 $520 forward $514 $-1 #
coedge $-1 $346 $671 $666 $672 reversed $514 $-1 #
loop $-1 $-1 $346 $500 #
vertex $-1 $672 $673 #
straight-curve $-1 0 42.402848875803009 -6.1220705181293145 1 0 0 I I #
straight-curve $-1 0 27.825349543775296 -6.1220705181293145 1 0 0 I I #
coedge $-1 $350 $349 $663 $674 reversed $205 $-1 #
edge $-1 $352 1.343044586557486 $664 8.2150072765861708 $349 $675 forward 7 unknown #
edge $-1 $351 6.1220705181293145 $676 12.994033208157999 $350 $677 forward 7 unknown #
point $-1 64.691915646839817 42.402848875803009 -6.1220705181293145 #
point $-1 64.691915646839817 27.825349543775296 -6.1220705181293145 #
loop $-1 $-1 $362 $354 #
plane-surface $-1 0 0 12.994033208157999 0 0 1 1 0 0 forward_v I I I I #
coedge $-1 $526 $357 $359 $530 reversed $213 $-1 #
coedge $-1 $357 $525 $678 $679 reversed $213 $-1 #
coedge $-1 $365 $360 $357 $528 forward $355 $-1 #
edge $-1 $531 -49.202468584412792 $680 -36.917262341669975 $527 $681 forward 7 unknown #
coedge $-1 $359 $358 $534 $682 reversed $133 $-1 #
edge $-1 $683 -19.11238783481879 $531 0 $525 $684 forward 7 unknown #
vertex $-1 $361 $685 #
straight-curve $-1 -64.691915646839817 -2.739009771110485 0.70882696541518897 0 -1 0 I I #
coedge $-1 $678 $362 $365 $538 forward $523 $-1 #
coedge $-1 $362 $678 $529 $682 forward $523 $-1 #
vertex $-1 $363 $686 #
straight-curve $-1 -73.929120159194227 -1.516860261060927 12.994033208158001 -1 0 0 I I #
straight-curve $-1 -64.691915646839817 -1.516860261060927 0.70882696541518442 0.76604443648966558 0 0.64278761758704617 I I #
edge $-1 $366 1.516860261060927 $680 9.4391788233810132 $365 $687 forward 7 unknown #
point $-1 -64.691915646839817 -1.516860261060927 12.994033208157999 #
point $-1 -64.691915646839817 -1.516860261060927 0.70882696541518442 #
edge $-1 $688 1 $688 0 $369 $-1 forward 7 unknown #
vertex $-1 $370 $689 #
ellipse-curve $-1 -56.678910335689011 -7.8547151109169988 6.0260976870736283 -0.64278761758704617 0 0.76604443648966558 0.38302221824483279 0 0.32139380879352308 1 I I #
point $-1 -56.988424244147126 -7.8547151109169988 7.1728238955801142 #
edge $-1 $690 1 $690 0 $373 $-1 forward 7 unknown #
vertex $-1 $374 $691 #
ellipse-curve $-1 -56.678910335689011 -5.4780195422209701 6.0260976870736283 -0.64278761758704617 0 0.76604443648966558 0.38302221824483279 0 0.32139380879352308 1 I I #
point $-1 -56.988424244147126 -5.4780195422209701 7.1728238955801142 #
edge $-1 $692 1 $692 0 $377 $-1 forward 7 unknown #
vertex $-1 $378 $693 #
ellipse-curve $-1 -56.678910335689011 -3.1013239735249485 6.0260976870736283 -0.64278761758704617 0 0.76604443648966558 0.38302221824483279 0 0.32139380879352308 1 I I #
point $-1 -56.988424244147126 -3.1013239735249485 7.1728238955801142 #
plane-surface $-1 -64.691915646839817 0 0 1 0 0 0 0 -1 forward_v I I I I #
coedge $-1 $564 $563 $556 $694 forward $382 $-1 #
coedge $-1 $556 $384 $386 $560 reversed $242 $-1 #
coedge $-1 $384 $555 $554 $694 reversed $242 $-1 #
coedge $-1 $392 $387 $384 $558 forward $393 $-1 #
edge $-1 $561 -49.202468584412792 $695 -36.917262341669975 $557 $696 forward 7 unknown #
coedge $-1 $386 $385 $564 $697 reversed $152 $-1 #
edge $-1 $698 -19.11238783481879 $561 0 $555 $699 forward 7 unknown #
vertex $-1 $388 $700 #
straight-curve $-1 -64.691915646839817 3.309185584795646 0.70882696541518897 0 -1 0 I I #
coedge $-1 $554 $389 $392 $568 forward $382 $-1 #
coedge $-1 $389 $554 $559 $697 forward $382 $-1 #
vertex $-1 $390 $701 #
straight-curve $-1 -73.929120159194227 10.579530450751335 12.994033208158001 -1 0 0 I I #
straight-curve $-1 -64.691915646839817 10.579530450751335 0.70882696541518442 0.76604443648966558 0 0.64278761758704617 I I #
edge $-1 $394 -10.579530450751335 $695 -2.6572118884312488 $392 $702 forward 7 unknown #
point $-1 -64.691915646839817 10.579530450751335 12.994033208157999 #
point $-1 -64.691915646839817 10.579530450751335 0.70882696541518442 #
edge $-1 $703 1 $703 0 $397 $-1 forward 7 unknown #
vertex $-1 $398 $704 #
ellipse-curve $-1 -56.678910335689011 4.2416756008952632 6.0260976870736283 -0.64278761758704617 0 0.76604443648966558 0.38302221824483279 0 0.32139380879352308 1 I I #
point $-1 -56.988424244147126 4.2416756008952632 7.1728238955801142 #
edge $-1 $705 1 $705 0 $401 $-1 forward 7 unknown #
vertex $-1 $402 $706 #
ellipse-curve $-1 -56.678910335689011 6.6183711695912919 6.0260976870736283 -0.64278761758704617 0 0.76604443648966558 0.38302221824483279 0 0.32139380879352308 1 I I #
point $-1 -56.988424244147126 6.6183711695912919 7.1728238955801142 #
edge $-1 $707 1 $707 0 $405 $-1 forward 7 unknown #
vertex $-1 $406 $708 #
ellipse-curve $-1 -56.678910335689011 8.9950667382873135 6.0260976870736283 -0.64278761758704617 0 0.76604443648966558 0.38302221824483279 0 0.32139380879352308 1 I I #
point $-1 -56.988424244147126 8.9950667382873135 7.1728238955801142 #
plane-surface $-1 64.691915646839817 0 0 -1 0 0 0 0 1 forward_v I I I I #
coedge $-1 $594 $593 $586 $709 forward $410 $-1 #
coedge $-1 $586 $412 $414 $590 reversed $271 $-1 #
coedge $-1 $412 $585 $584 $709 reversed $271 $-1 #
coedge $-1 $420 $415 $412 $588 forward $421 $-1 #
edge $-1 $591 -87.324107105033249 $710 -79.296437699739002 $587 $711 forward 7 unknown #
coedge $-1 $414 $413 $594 $712 reversed $171 $-1 #
edge $-1 $713 115.02801731403899 $591 129.38383129367963 $585 $714 forward 7 unknown #
vertex $-1 $416 $715 #
straight-curve $-1 64.691915646839817 -1.8796809517606619 4.9663638028637465 0 1 0 I I #
coedge $-1 $584 $417 $420 $598 forward $410 $-1 #
coedge $-1 $417 $584 $589 $712 forward $410 $-1 #
vertex $-1 $418 $716 #
straight-curve $-1 14.88919004055343 -8.0888996207278083 12.994033208158001 1 0 0 I I #
straight-curve $-1 -42.572141142491787 -8.0888996207278083 77.316885026462401 -0.82903756765294845 0 0.55919291073839883 I I #
edge $-1 $422 -8.0888996207278083 $710 0.5701758136851609 $420 $717 forward 7 unknown #
point $-1 64.691915646839817 -8.0888996207278083 12.994033208157999 #
point $-1 64.691915646839817 -8.0888996207278083 4.9663638028637536 #
edge $-1 $718 1 $718 0 $425 $-1 forward 7 unknown #
vertex $-1 $426 $719 #
ellipse-curve $-1 56.764027531492779 -3.7593619035213237 6.048977509909669 0.55919291073839883 0 0.82903756765294845 1.2435563514794228 0 -0.83878936610759824 1 I I #
point $-1 59.9847174466395 -3.7593619035213237 8.1414091394032742 #
loop $-1 $-1 $610 $429 #
plane-surface $-1 0 0 12.994033208157999 0 0 1 1 0 0 forward_v I I I I #
coedge $-1 $612 $435 $608 $720 reversed $430 $-1 #
coedge $-1 $432 $441 $607 $720 forward $286 $-1 #
edge $-1 $614 2.4498567654458228 $442 11.108932199858792 $432 $721 forward 7 unknown #
coedge $-1 $722 $439 $433 $611 forward $605 $-1 #
edge $-1 $616 -11.108932199858792 $613 -2.4498567654458228 $610 $723 forward 7 unknown #
coedge $-1 $435 $607 $722 $724 reversed $430 $-1 #
vertex $-1 $611 $725 #
vertex $-1 $609 $726 #
straight-curve $-1 -42.572141142491787 0.5701758136851609 77.316885026462401 0.82903756765294845 0 -0.55919291073839883 I I #
vertex $-1 $440 $727 #
straight-curve $-1 -42.572141142491787 9.2292512480981301 77.316885026462401 0.82903756765294845 0 -0.55919291073839883 I I #
coedge $-1 $439 $722 $441 $620 forward $605 $-1 #
straight-curve $-1 14.88919004055343 9.2292512480981301 12.994033208158001 -1 0 0 I I #
edge $-1 $728 0.5701758136851609 $443 9.2292512480981301 $441 $729 forward 7 unknown #
point $-1 64.691915646839817 9.2292512480981301 4.9663638028637536 #
point $-1 64.691915646839817 9.2292512480981301 12.994033208157999 #
edge $-1 $730 1 $730 0 $445 $-1 forward 7 unknown #
vertex $-1 $446 $731 #
ellipse-curve $-1 56.764027531492779 4.8997135308916455 6.048977509909669 0.55919291073839883 0 0.82903756765294845 1.2435563514794228 0 -0.83878936610759824 1 I I #
point $-1 59.9847174466395 4.8997135308916455 8.1414091394032742 #
plane-surface $-1 64.691915646839817 0 0 -1 0 0 0 0 1 forward_v I I I I #
coedge $-1 $454 $452 $456 $632 reversed $301 $-1 #
edge $-1 $467 -12.994033208157999 $634 12.994033208157999 $466 $732 forward 7 unknown #
vertex $-1 $632 $733 #
straight-curve $-1 -64.691915646839817 -42.402848875803009 0 0 0 -1 I I #
edge $-1 $630 -42.402848875803009 $634 42.402848875803009 $628 $734 forward 7 unknown #
straight-curve $-1 0 -42.402848875803009 -12.994033208157999 -1 0 0 I I #
vertex $-1 $459 $735 #
straight-curve $-1 0 42.402848875803009 -12.994033208157999 1 0 0 I I #
point $-1 64.691915646839817 42.402848875803009 -12.994033208157999 #
point $-1 64.691915646839817 -42.402848875803009 -12.994033208157999 #
straight-curve $-1 -64.691915646839817 0 12.994033208157999 0 -1 0 I I #
point $-1 -64.691915646839817 42.402848875803009 12.994033208157999 #
point $-1 -64.691915646839817 -42.402848875803009 12.994033208157999 #
straight-curve $-1 64.691915646839817 -42.402848875803009 0 0 0 -1 I I #
straight-curve $-1 64.691915646839817 42.402848875803009 0 0 0 -1 I I #
plane-surface $-1 64.691915646839817 0 0 -1 0 0 0 0 1 forward_v I I I I #
coedge $-1 $647 $479 $490 $656 forward $320 $-1 #
coedge $-1 $479 $647 $493 $658 reversed $320 $-1 #
straight-curve $-1 64.691915646839817 -26.684997916404971 1.6130820652026872 0 0 1 I I #
coedge $-1 $645 $644 $482 $648 forward $320 $-1 #
edge $-1 $651 9.4130362183529748 $649 25.130887177751013 $647 $736 forward 7 unknown #
vertex $-1 $484 $737 #
straight-curve $-1 0 -42.402848875803009 1.1291229912086127 1 0 0 I I #
vertex $-1 $648 $738 #
straight-curve $-1 0 -26.684997916404971 1.1291229912086127 1 0 0 I I #
point $-1 64.691915646839817 -42.402848875803009 1.1291229912086127 #
point $-1 64.691915646839817 -26.684997916404971 1.1291229912086127 #
straight-curve $-1 -64.691915646839817 -17.271961698051996 5.3232052696021359 0 1 0 I I #
edge $-1 $491 -3.7101232043994488 $651 0.48395907399407445 $644 $739 forward 7 unknown #
point $-1 -64.691915646839817 -26.684997916404971 5.3232052696021359 #
edge $-1 $495 -5.3232052696021359 $649 -1.1291229912086127 $645 $740 forward 7 unknown #
point $-1 -64.691915646839817 -42.402848875803009 5.3232052696021359 #
straight-curve $-1 64.691915646839817 -42.402848875803009 0 0 0 -1 I I #
plane-surface $-1 0 42.402848875803009 0 0 -1 0 0 0 -1 forward_v I I I I #
coedge $-1 $741 $503 $507 $667 forward $339 $-1 #
coedge $-1 $503 $741 $518 $674 forward $339 $-1 #
vertex $-1 $505 $742 #
straight-curve $-1 0 27.825349543775296 -12.994033208157999 -1 0 0 I I #
coedge $-1 $507 $506 $513 $672 forward $501 $-1 #
edge $-1 $508 27.825349543775296 $743 42.402848875803009 $507 $744 forward 7 unknown #
point $-1 -64.691915646839817 27.825349543775296 -12.994033208157999 #
point $-1 -64.691915646839817 27.825349543775296 -6.1220705181293145 #
straight-curve $-1 -64.691915646839817 17.557049604894576 -6.1220705181293145 0 1 0 I I #
coedge $-1 $513 $512 $741 $745 reversed $514 $-1 #
edge $-1 $515 6.1220705181293145 $743 12.994033208157999 $513 $746 forward 7 unknown #
point $-1 -64.691915646839817 42.402848875803009 -6.1220705181293145 #
edge $-1 $676 -42.402848875803009 $664 -27.825349543775296 $518 $747 forward 7 unknown #
straight-curve $-1 64.691915646839817 27.825349543775296 -4.7790259315718284 0 0 -1 I I #
vertex $-1 $674 $748 #
straight-curve $-1 64.691915646839817 42.402848875803009 0 0 0 -1 I I #
coedge $-1 $534 $533 $526 $679 forward $523 $-1 #
edge $-1 $680 9.2372045123544098 $683 23.878142881250113 $678 $749 forward 7 unknown #
vertex $-1 $679 $750 #
straight-curve $-1 -64.691915646839817 -9.4391788233810132 49.911295549827976 0 0 1 I I #
edge $-1 $683 -6.7001690522705282 $535 1.2221495100495581 $534 $751 forward 7 unknown #
vertex $-1 $682 $752 #
straight-curve $-1 -64.691915646839817 -9.4391788233810132 0.70882696541518442 -0.76604443648966558 0 -0.64278761758704617 I I #
point $-1 -64.691915646839817 -9.4391788233810132 0.70882696541518442 #
point $-1 -50.050977277944114 -1.516860261060927 12.994033208157997 #
straight-curve $-1 -64.691915646839817 0 12.994033208157999 0 -1 0 I I #
vertex $-1 $541 $753 #
point $-1 -56.295888117444179 -7.8547151109169988 6.3474914958671516 #
vertex $-1 $545 $754 #
point $-1 -56.295888117444179 -5.4780195422209701 6.3474914958671516 #
vertex $-1 $549 $755 #
point $-1 -56.295888117444179 -3.1013239735249485 6.3474914958671516 #
edge $-1 $695 9.2372045123544098 $698 23.878142881250113 $554 $756 forward 7 unknown #
vertex $-1 $558 $757 #
straight-curve $-1 -64.691915646839817 2.6572118884312488 49.911295549827976 0 0 1 I I #
edge $-1 $698 -0.65197369636439717 $565 7.2703448659556891 $564 $758 forward 7 unknown #
vertex $-1 $697 $759 #
straight-curve $-1 -64.691915646839817 2.6572118884312488 0.70882696541518442 -0.76604443648966558 0 -0.64278761758704617 I I #
point $-1 -64.691915646839817 2.6572118884312488 0.70882696541518442 #
point $-1 -50.050977277944114 10.579530450751335 12.994033208157997 #
straight-curve $-1 -64.691915646839817 0 12.994033208157999 0 -1 0 I I #
vertex $-1 $571 $760 #
point $-1 -56.295888117444179 4.2416756008952632 6.3474914958671516 #
vertex $-1 $575 $761 #
point $-1 -56.295888117444179 6.6183711695912919 6.3474914958671516 #
vertex $-1 $579 $762 #
point $-1 -56.295888117444179 8.9950667382873135 6.3474914958671516 #
edge $-1 $710 -49.802725606286387 $713 -37.901216502926914 $584 $763 forward 7 unknown #
vertex $-1 $709 $764 #
straight-curve $-1 64.691915646839817 0.5701758136851609 92.290470907897003 0 0 1 I I #
edge $-1 $713 -2.4498567654458228 $595 6.2092186689671465 $594 $765 forward 7 unknown #
vertex $-1 $712 $766 #
straight-curve $-1 -42.572141142491787 0.5701758136851609 77.316885026462401 0.82903756765294845 0 -0.55919291073839883 I I #
point $-1 64.691915646839817 0.5701758136851609 4.9663638028637536 #
point $-1 52.790406543480344 -8.0888996207278083 12.994033208158001 #
straight-curve $-1 64.691915646839817 0 12.994033208157999 0 1 0 I I #
vertex $-1 $601 $767 #
point $-1 58.007583882972199 -3.7593619035213237 5.2101881438020703 #
edge $-1 $728 79.296437699739002 $614 87.324107105033249 $608 $768 forward 7 unknown #
straight-curve $-1 64.691915646839817 -1.8796809517606619 4.9663638028637465 0 1 0 I I #
coedge $-1 $618 $610 $612 $724 forward $605 $-1 #
straight-curve $-1 52.790406543480344 -1.8796809517606619 12.994033208157994 0 -1 0 I I #
edge $-1 $613 37.901216502926914 $728 49.802725606286387 $722 $769 forward 7 unknown #
point $-1 52.790406543480344 0.5701758136851609 12.994033208158001 #
point $-1 64.691915646839817 0.5701758136851609 4.9663638028637536 #
point $-1 52.790406543480344 9.2292512480981301 12.994033208158001 #
vertex $-1 $620 $770 #
straight-curve $-1 64.691915646839817 0 12.994033208157999 0 1 0 I I #
vertex $-1 $623 $771 #
point $-1 58.007583882972199 4.8997135308916455 5.2101881438020703 #
straight-curve $-1 -64.691915646839817 42.402848875803009 0 0 0 -1 I I #
point $-1 -64.691915646839817 -42.402848875803009 -12.994033208157999 #
straight-curve $-1 -64.691915646839817 0 -12.994033208157999 0 1 0 I I #
point $-1 -64.691915646839817 42.402848875803009 -12.994033208157999 #
straight-curve $-1 -64.691915646839817 -17.271961698051996 1.1291229912086127 0 -1 0 I I #
point $-1 -64.691915646839817 -42.402848875803009 1.1291229912086127 #
point $-1 -64.691915646839817 -26.684997916404971 1.1291229912086127 #
straight-curve $-1 -64.691915646839817 -26.684997916404971 1.6130820652026872 0 0 -1 I I #
straight-curve $-1 -64.691915646839817 -42.402848875803009 0 0 0 -1 I I #
coedge $-1 $663 $662 $671 $745 forward $339 $-1 #
point $-1 64.691915646839817 27.825349543775296 -12.994033208157999 #
vertex $-1 $745 $772 #
straight-curve $-1 -64.691915646839817 0 -12.994033208157999 0 1 0 I I #
edge $-1 $743 -64.691915646839817 $676 64.691915646839817 $671 $773 forward 7 unknown #
straight-curve $-1 -64.691915646839817 42.402848875803009 0 0 0 -1 I I #
straight-curve $-1 64.691915646839817 0 -12.994033208157999 0 -1 0 I I #
point $-1 64.691915646839817 42.402848875803009 -12.994033208157999 #
straight-curve $-1 -73.929120159194227 -9.4391788233810132 12.994033208158001 1 0 0 I I #
point $-1 -64.691915646839817 -9.4391788233810132 12.994033208157999 #
straight-curve $-1 -50.050977277944114 -2.739009771110485 12.994033208157999 0 1 0 I I #
point $-1 -50.050977277944114 -9.4391788233810132 12.994033208157997 #
point $-1 -56.357516526895495 -7.8547151109169988 5.6430754688287958 #
point $-1 -56.357516526895495 -5.4780195422209701 5.6430754688287958 #
point $-1 -56.357516526895495 -3.1013239735249485 5.6430754688287958 #
straight-curve $-1 -73.929120159194227 2.6572118884312488 12.994033208158001 1 0 0 I I #
point $-1 -64.691915646839817 2.6572118884312488 12.994033208157999 #
straight-curve $-1 -50.050977277944114 3.309185584795646 12.994033208157999 0 1 0 I I #
point $-1 -50.050977277944114 2.6572118884312488 12.994033208157997 #
point $-1 -56.357516526895495 4.2416756008952632 5.6430754688287958 #
point $-1 -56.357516526895495 6.6183711695912919 5.6430754688287958 #
point $-1 -56.357516526895495 8.9950667382873135 5.6430754688287958 #
straight-curve $-1 14.88919004055343 0.5701758136851609 12.994033208158001 -1 0 0 I I #
point $-1 64.691915646839817 0.5701758136851609 12.994033208157999 #
straight-curve $-1 52.790406543480344 -1.8796809517606619 12.994033208157994 0 -1 0 I I #
point $-1 52.790406543480344 0.5701758136851609 12.994033208158001 #
point $-1 55.925238165385174 -3.7593619035213237 4.8054211584302458 #
straight-curve $-1 64.691915646839817 0.5701758136851609 92.290470907897003 0 0 -1 I I #
straight-curve $-1 14.88919004055343 0.5701758136851609 12.994033208158001 1 0 0 I I #
point $-1 64.691915646839817 0.5701758136851609 12.994033208157999 #
point $-1 55.925238165385174 4.8997135308916455 4.8054211584302458 #
point $-1 -64.691915646839817 42.402848875803009 -12.994033208157999 #
straight-curve $-1 0 42.402848875803009 -12.994033208157999 1 0 0 I I #
End-of-ACIS-data 