500 0 8 0           
7 Unknown 11 ACIS 5.0 NT 24 Thu Mar 25 21:15:42 1999 
-1 9.9999999999999995e-007 1e-010 
body $-1 $8 $-1 $9 #
body $-1 $10 $-1 $11 #
body $-1 $12 $-1 $13 #
body $-1 $14 $-1 $15 #
body $-1 $16 $-1 $17 #
body $-1 $18 $-1 $19 #
body $-1 $20 $-1 $21 #
body $-1 $22 $-1 $23 #
lump $-1 $-1 $24 $0 #
transform $-1 1 0 0 0 1 0 0 0 1 55.703604235969117 37.482930980512691 13.14219028766186 1 rotate no_reflect no_shear #
lump $-1 $-1 $25 $1 #
transform $-1 1 0 0 0 1 0 0 0 1 55.703604235969117 37.482930980512691 13.14219028766186 1 rotate no_reflect no_shear #
lump $-1 $-1 $26 $2 #
transform $-1 1 0 0 0 1 0 0 0 1 55.703604235969117 37.482930980512691 13.14219028766186 1 rotate no_reflect no_shear #
lump $-1 $-1 $27 $3 #
transform $-1 1 0 0 0 1 0 0 0 1 55.703604235969117 37.482930980512691 13.14219028766186 1 rotate no_reflect no_shear #
lump $-1 $-1 $28 $4 #
transform $-1 1 0 0 0 1 0 0 0 1 55.703604235969117 37.482930980512691 13.14219028766186 1 rotate no_reflect no_shear #
lump $-1 $-1 $29 $5 #
transform $-1 1 0 0 0 1 0 0 0 1 55.703604235969117 37.482930980512691 13.14219028766186 1 rotate no_reflect no_shear #
lump $-1 $-1 $30 $6 #
transform $-1 1 0 0 0 1 0 0 0 1 55.703604235969117 37.482930980512691 13.14219028766186 1 rotate no_reflect no_shear #
lump $-1 $-1 $31 $7 #
transform $-1 1 0 0 0 1 0 0 0 1 55.703604235969117 37.482930980512691 13.14219028766186 1 rotate no_reflect no_shear #
shell $-1 $-1 $-1 $32 $-1 $8 #
shell $-1 $-1 $-1 $33 $-1 $10 #
shell $-1 $-1 $-1 $34 $-1 $12 #
shell $-1 $-1 $-1 $35 $-1 $14 #
shell $-1 $-1 $-1 $36 $-1 $16 #
shell $-1 $-1 $-1 $37 $-1 $18 #
shell $-1 $-1 $-1 $38 $-1 $20 #
shell $-1 $-1 $-1 $39 $-1 $22 #
face $-1 $40 $41 $24 $-1 $42 forward single #
face $-1 $43 $44 $25 $-1 $45 forward single #
face $-1 $46 $47 $26 $-1 $48 reversed single #
face $-1 $49 $50 $27 $-1 $51 forward single #
face $-1 $52 $53 $28 $-1 $54 forward single #
face $-1 $55 $56 $29 $-1 $57 reversed single #
face $-1 $58 $59 $30 $-1 $60 forward single #
face $-1 $61 $62 $31 $-1 $63 forward single #
face $-1 $64 $65 $24 $-1 $66 reversed single #
loop $-1 $-1 $67 $32 #
plane-surface $-1 0 0 13.14219028766186 0 0 1 1 0 0 forward_v I I I I #
face $-1 $68 $69 $25 $-1 $70 reversed single #
loop $-1 $-1 $71 $33 #
plane-surface $-1 0 -37.482930980512691 0 0 1 0 0 0 1 forward_v I I I I #
face $-1 $72 $73 $26 $-1 $74 reversed single #
loop $-1 $-1 $75 $34 #
plane-surface $-1 25.640964288051229 -4.0567845151077364 156.73207761787177 0 -1 0 -0.55919291073839883 0 -0.82903756765294845 forward_v I I I I #
face $-1 $76 $77 $27 $-1 $78 forward single #
loop $-1 $79 $80 $35 #
cone-surface $-1 46.489755410418624 -9.9212993698666772 6.112353634078894 -0.55919291073839883 0 -0.82903756765294845 0.82903756765294845 0 -0.55919291073839883 1 I I 0 1 1 forward I I I I #
face $-1 $81 $82 $28 $-1 $83 forward single #
loop $-1 $84 $85 $36 #
cone-surface $-1 46.489755410418624 -6.4025904570113141 6.112353634078894 -0.55919291073839883 0 -0.82903756765294845 0.82903756765294845 0 -0.55919291073839883 1 I I 0 1 1 forward I I I I #
face $-1 $86 $87 $29 $-1 $88 reversed single #
loop $-1 $-1 $89 $37 #
plane-surface $-1 -114.74043095920941 16.124015974777393 95.112267269365532 0 1 0 -0.52991927123019833 0 0.84804809178421925 forward_v I I I I #
face $-1 $90 $91 $30 $-1 $92 forward single #
loop $-1 $93 $94 $38 #
cone-surface $-1 -44.555432984747583 20.25755068230005 5.0647855061467926 0.52991927123019833 0 -0.84804809178421925 1.2720721376763289 0 0.79487890684529749 1 I I 0 1 1.5 forward I I I I #
face $-1 $95 $96 $31 $-1 $97 forward single #
loop $-1 $98 $99 $39 #
cone-surface $-1 -44.555432984747583 26.457852743584034 5.0647855061467926 0.52991927123019833 0 -0.84804809178421925 1.2720721376763289 0 0.79487890684529749 1 I I 0 1 1.5 forward I I I I #
face $-1 $100 $101 $24 $-1 $102 reversed single #
loop $-1 $-1 $103 $40 #
plane-surface $-1 0 0 -13.14219028766186 0 0 1 1 0 0 forward_v I I I I #
coedge $-1 $104 $105 $106 $107 forward $41 $-1 #
face $-1 $108 $109 $25 $-1 $110 reversed single #
loop $-1 $-1 $111 $43 #
plane-surface $-1 0 0 -13.14219028766186 0 0 1 1 0 0 forward_v I I I I #
coedge $-1 $112 $113 $114 $115 forward $44 $-1 #
face $-1 $116 $117 $26 $-1 $118 reversed single #
loop $-1 $-1 $119 $46 #
plane-surface $-1 -36.657156894611518 -8.1619449134389939 64.371316487291139 0.55919291073839883 0 0.82903756765294845 0.82903756765294845 0 -0.55919291073839883 forward_v I I I I #
coedge $-1 $120 $121 $122 $123 reversed $47 $-1 #
face $-1 $-1 $124 $27 $-1 $125 forward single #
loop $-1 $126 $127 $49 #
cone-surface $-1 45.201539935595072 -9.9212993698666772 4.2024956881861772 -0.55919291073839883 0 -0.82903756765294845 0.41451878382647422 0 -0.27959645536919941 1 I I -0.70710678118654746 0.70710678118654746 0.5 forward I I I I #
loop $-1 $-1 $128 $35 #
coedge $-1 $80 $80 $129 $130 reversed $50 $-1 #
face $-1 $-1 $131 $28 $-1 $132 forward single #
loop $-1 $133 $134 $52 #
cone-surface $-1 45.201539935595072 -6.4025904570113141 4.2024956881861772 -0.55919291073839883 0 -0.82903756765294845 0.41451878382647422 0 -0.27959645536919941 1 I I -0.70710678118654746 0.70710678118654746 0.5 forward I I I I #
loop $-1 $-1 $135 $36 #
coedge $-1 $85 $85 $136 $137 reversed $53 $-1 #
face $-1 $138 $139 $29 $-1 $140 reversed single #
loop $-1 $-1 $141 $55 #
plane-surface $-1 -55.703604235969117 23.357701712942045 0.63359671373160609 -0.52991927123019833 0 0.84804809178421925 0.84804809178421925 0 0.52991927123019833 forward_v I I I I #
coedge $-1 $142 $143 $144 $145 reversed $56 $-1 #
face $-1 $-1 $146 $30 $-1 $147 forward single #
loop $-1 $148 $149 $58 #
cone-surface $-1 -43.018789199394575 20.25755068230005 2.6056414427586834 0.52991927123019833 0 -0.84804809178421925 0.63603606883816444 0 0.39743945342264875 1 I I -0.70710678118654724 0.70710678118654768 0.75 forward I I I I #
loop $-1 $-1 $150 $38 #
coedge $-1 $94 $94 $151 $152 reversed $59 $-1 #
face $-1 $-1 $153 $31 $-1 $154 forward single #
loop $-1 $155 $156 $61 #
cone-surface $-1 -43.018789199394575 26.457852743584034 2.6056414427586834 0.52991927123019833 0 -0.84804809178421925 0.63603606883816444 0 0.39743945342264875 1 I I -0.70710678118654724 0.70710678118654768 0.75 forward I I I I #
loop $-1 $-1 $157 $39 #
coedge $-1 $99 $99 $158 $159 reversed $62 $-1 #
face $-1 $160 $161 $24 $-1 $162 reversed single #
loop $-1 $-1 $163 $64 #
plane-surface $-1 0 -37.482930980512691 0 0 1 0 0 0 1 forward_v I I I I #
coedge $-1 $164 $165 $166 $167 forward $65 $-1 #
coedge $-1 $168 $67 $169 $170 forward $41 $-1 #
coedge $-1 $67 $168 $171 $172 forward $41 $-1 #
coedge $-1 $173 $174 $67 $107 reversed $175 $-1 #
edge $-1 $176 -37.482930980512691 $177 37.482930980512691 $106 $178 forward 7 unknown #
face $-1 $179 $180 $25 $-1 $181 forward single #
loop $-1 $-1 $182 $68 #
plane-surface $-1 55.703604235969117 0 0 -1 0 0 0 0 1 forward_v I I I I #
coedge $-1 $183 $184 $185 $186 forward $69 $-1 #
coedge $-1 $185 $71 $182 $187 reversed $44 $-1 #
coedge $-1 $71 $185 $188 $189 reversed $44 $-1 #
coedge $-1 $190 $191 $71 $115 reversed $180 $-1 #
edge $-1 $192 -55.703604235969117 $193 55.703604235969117 $114 $194 forward 7 unknown #
face $-1 $195 $196 $26 $-1 $197 reversed single #
loop $-1 $-1 $198 $72 #
plane-surface $-1 25.640964288051229 -12.267105311770251 156.73207761787177 0 1 0 0.55919291073839883 0 0.82903756765294845 forward_v I I I I #
coedge $-1 $199 $200 $201 $202 reversed $73 $-1 #
coedge $-1 $121 $75 $203 $204 reversed $47 $-1 #
coedge $-1 $75 $120 $199 $205 reversed $47 $-1 #
coedge $-1 $201 $206 $75 $123 forward $207 $-1 #
edge $-1 $208 -42.883122091943505 $209 -26.472662479751182 $122 $210 forward 7 unknown #
loop $-1 $-1 $129 $76 #
plane-surface $-1 -36.657156894611518 -8.1619449134389939 64.371316487291139 0.55919291073839883 0 0.82903756765294845 0.82903756765294845 0 -0.55919291073839883 forward_v I I I I #
loop $-1 $-1 $211 $49 #
coedge $-1 $127 $127 $128 $212 reversed $77 $-1 #
coedge $-1 $128 $128 $127 $212 forward $79 $-1 #
coedge $-1 $129 $129 $80 $130 forward $124 $-1 #
edge $-1 $213 0 $213 6.2831853071796004 $129 $214 forward 7 unknown #
loop $-1 $-1 $136 $81 #
plane-surface $-1 -36.657156894611518 -8.1619449134389939 64.371316487291139 0.55919291073839883 0 0.82903756765294845 0.82903756765294845 0 -0.55919291073839883 forward_v I I I I #
loop $-1 $-1 $215 $52 #
coedge $-1 $134 $134 $135 $216 reversed $82 $-1 #
coedge $-1 $135 $135 $134 $216 forward $84 $-1 #
coedge $-1 $136 $136 $85 $137 forward $131 $-1 #
edge $-1 $217 0 $217 6.2831853071796004 $136 $218 forward 7 unknown #
face $-1 $219 $220 $29 $-1 $221 forward single #
loop $-1 $-1 $222 $86 #
plane-surface $-1 -114.74043095920941 30.591387451106698 95.112267269365532 0 -1 0 0.52991927123019833 0 -0.84804809178421925 forward_v I I I I #
coedge $-1 $223 $224 $225 $226 reversed $87 $-1 #
coedge $-1 $143 $89 $227 $228 reversed $56 $-1 #
coedge $-1 $89 $142 $223 $229 reversed $56 $-1 #
coedge $-1 $225 $230 $89 $145 forward $220 $-1 #
edge $-1 $231 1.666611243635586 $232 21.684545082217959 $144 $233 forward 7 unknown #
loop $-1 $-1 $151 $90 #
plane-surface $-1 -55.703604235969117 23.357701712942045 0.63359671373160609 -0.52991927123019833 0 0.84804809178421925 0.84804809178421925 0 0.52991927123019833 forward_v I I I I #
loop $-1 $-1 $234 $58 #
coedge $-1 $149 $149 $150 $235 reversed $91 $-1 #
coedge $-1 $150 $150 $149 $235 forward $93 $-1 #
coedge $-1 $151 $151 $94 $152 forward $146 $-1 #
edge $-1 $236 0 $236 6.2831853071796004 $151 $237 forward 7 unknown #
loop $-1 $-1 $158 $95 #
plane-surface $-1 -55.703604235969117 23.357701712942045 0.63359671373160609 -0.52991927123019833 0 0.84804809178421925 0.84804809178421925 0 0.52991927123019833 forward_v I I I I #
loop $-1 $-1 $238 $61 #
coedge $-1 $156 $156 $157 $239 reversed $96 $-1 #
coedge $-1 $157 $157 $156 $239 forward $98 $-1 #
coedge $-1 $158 $158 $99 $159 forward $153 $-1 #
edge $-1 $240 0 $240 6.2831853071796004 $158 $241 forward 7 unknown #
face $-1 $242 $243 $24 $-1 $244 reversed single #
loop $-1 $-1 $245 $100 #
plane-surface $-1 -55.703604235969117 0 0 1 0 0 0 0 -1 forward_v I I I I #
coedge $-1 $246 $171 $247 $248 forward $101 $-1 #
coedge $-1 $249 $103 $246 $250 forward $65 $-1 #
coedge $-1 $103 $249 $251 $252 forward $65 $-1 #
coedge $-1 $174 $173 $103 $167 reversed $175 $-1 #
edge $-1 $253 -37.482930980512691 $254 37.482930980512691 $166 $255 forward 7 unknown #
coedge $-1 $105 $104 $256 $257 forward $41 $-1 #
coedge $-1 $258 $259 $104 $170 reversed $243 $-1 #
edge $-1 $177 -55.703604235969117 $260 55.703604235969117 $169 $261 forward 7 unknown #
coedge $-1 $163 $262 $105 $172 reversed $101 $-1 #
edge $-1 $263 -55.703604235969117 $176 55.703604235969117 $171 $264 forward 7 unknown #
coedge $-1 $166 $106 $262 $265 forward $175 $-1 #
coedge $-1 $106 $166 $258 $266 reversed $175 $-1 #
loop $-1 $-1 $173 $242 #
vertex $-1 $107 $267 #
vertex $-1 $107 $268 #
straight-curve $-1 55.703604235969117 0 13.14219028766186 0 1 0 I I #
face $-1 $269 $270 $25 $-1 $271 reversed single #
loop $-1 $-1 $191 $108 #
plane-surface $-1 0 -45.499759304399959 -8.321609060591701 0 0 1 1 0 0 forward_v I I I I #
coedge $-1 $272 $273 $112 $187 forward $109 $-1 #
coedge $-1 $274 $111 $273 $275 forward $69 $-1 #
coedge $-1 $111 $274 $276 $277 forward $69 $-1 #
coedge $-1 $113 $112 $111 $186 reversed $44 $-1 #
edge $-1 $278 -55.703604235969117 $279 55.703604235969117 $111 $280 forward 7 unknown #
edge $-1 $279 -13.14219028766186 $193 -8.321609060591701 $182 $281 forward 7 unknown #
coedge $-1 $276 $282 $113 $189 forward $283 $-1 #
edge $-1 $192 8.321609060591701 $278 13.14219028766186 $188 $284 forward 7 unknown #
coedge $-1 $285 $114 $282 $286 forward $180 $-1 #
coedge $-1 $114 $285 $272 $287 forward $180 $-1 #
vertex $-1 $189 $288 #
vertex $-1 $287 $289 #
straight-curve $-1 0 -37.482930980512691 -8.321609060591701 1 0 0 I I #
face $-1 $-1 $207 $26 $-1 $290 forward single #
loop $-1 $-1 $291 $116 #
plane-surface $-1 55.703604235969117 0 0 -1 0 0 0 0 1 forward_v I I I I #
coedge $-1 $292 $293 $294 $295 reversed $117 $-1 #
coedge $-1 $296 $119 $121 $205 forward $73 $-1 #
coedge $-1 $119 $296 $292 $297 forward $73 $-1 #
coedge $-1 $294 $122 $119 $202 forward $207 $-1 #
edge $-1 $209 -0.024187941611760522 $298 8.1861328550507544 $201 $299 forward 7 unknown #
coedge $-1 $300 $301 $120 $204 forward $196 $-1 #
edge $-1 $302 -76.292843504307498 $208 -65.223848521274022 $203 $303 forward 7 unknown #
edge $-1 $209 91.612617427468152 $302 111.40720847193825 $121 $304 forward 7 unknown #
coedge $-1 $122 $294 $300 $305 forward $207 $-1 #
loop $-1 $-1 $294 $195 #
vertex $-1 $204 $306 #
vertex $-1 $123 $307 #
straight-curve $-1 12.820482144025615 -4.0567845151077364 13.142190287661862 -1 0 0 I I #
coedge $-1 $211 $211 $-1 $308 reversed $126 $-1 #
edge $-1 $309 0 $309 6.2831853071796004 $127 $310 forward 7 unknown #
vertex $-1 $130 $311 #
ellipse-curve $-1 47.498374429872968 -9.9212993698666772 7.6076927961451171 0.55919291073839883 0 0.82903756765294845 0.82903756765294845 0 -0.55919291073839883 1 I I #
coedge $-1 $215 $215 $-1 $312 reversed $133 $-1 #
edge $-1 $313 0 $313 6.2831853071796004 $134 $314 forward 7 unknown #
vertex $-1 $137 $315 #
ellipse-curve $-1 47.498374429872968 -6.4025904570113141 7.6076927961451171 0.55919291073839883 0 0.82903756765294845 0.82903756765294845 0 -0.55919291073839883 1 I I #
face $-1 $-1 $316 $29 $-1 $317 reversed single #
loop $-1 $-1 $144 $138 #
plane-surface $-1 0 0 13.14219028766186 0 0 1 1 0 0 forward_v I I I I #
coedge $-1 $318 $319 $320 $321 reversed $139 $-1 #
coedge $-1 $322 $141 $143 $229 forward $87 $-1 #
coedge $-1 $141 $322 $318 $323 forward $87 $-1 #
coedge $-1 $320 $144 $141 $226 forward $220 $-1 #
edge $-1 $232 4.4451651183063703 $324 18.912536594635675 $225 $325 forward 7 unknown #
coedge $-1 $326 $327 $142 $228 forward $316 $-1 #
edge $-1 $328 -46.92253692095116 $231 -34.413943347020904 $227 $329 forward 7 unknown #
edge $-1 $232 -23.604715384084393 $328 0 $143 $330 forward 7 unknown #
coedge $-1 $144 $320 $326 $331 forward $220 $-1 #
vertex $-1 $228 $332 #
vertex $-1 $145 $333 #
straight-curve $-1 -57.370215479604703 16.124015974777393 13.142190287661862 1 0 0 I I #
coedge $-1 $234 $234 $-1 $334 reversed $148 $-1 #
edge $-1 $335 0 $335 6.2831853071796004 $149 $336 forward 7 unknown #
vertex $-1 $152 $337 #
ellipse-curve $-1 -45.694637316677934 20.25755068230005 6.8878935006967303 -0.52991927123019833 0 0.84804809178421925 1.2720721376763289 0 0.79487890684529749 1 I I #
coedge $-1 $238 $238 $-1 $338 reversed $155 $-1 #
edge $-1 $339 0 $339 6.2831853071796004 $156 $340 forward 7 unknown #
vertex $-1 $159 $341 #
ellipse-curve $-1 -45.694637316677934 26.457852743584034 6.8878935006967303 -0.52991927123019833 0 0.84804809178421925 1.2720721376763289 0 0.79487890684529749 1 I I #
face $-1 $-1 $175 $24 $-1 $342 reversed single #
loop $-1 $-1 $258 $160 #
plane-surface $-1 0 37.482930980512691 0 0 -1 0 0 0 -1 forward_v I I I I #
coedge $-1 $343 $256 $259 $344 forward $161 $-1 #
coedge $-1 $262 $163 $164 $250 reversed $101 $-1 #
coedge $-1 $256 $343 $163 $248 reversed $161 $-1 #
edge $-1 $263 -13.14219028766186 $345 13.14219028766186 $247 $346 forward 7 unknown #
coedge $-1 $165 $164 $343 $347 forward $65 $-1 #
edge $-1 $254 -55.703604235969117 $345 55.703604235969117 $246 $348 forward 7 unknown #
coedge $-1 $259 $258 $165 $252 reversed $243 $-1 #
edge $-1 $349 -55.703604235969117 $253 55.703604235969117 $251 $350 forward 7 unknown #
vertex $-1 $167 $351 #
vertex $-1 $265 $352 #
straight-curve $-1 55.703604235969117 0 -13.14219028766186 0 -1 0 I I #
coedge $-1 $245 $247 $168 $257 reversed $161 $-1 #
edge $-1 $260 -37.482930980512691 $263 37.482930980512691 $256 $353 forward 7 unknown #
coedge $-1 $251 $169 $174 $266 forward $243 $-1 #
coedge $-1 $169 $251 $245 $344 reversed $243 $-1 #
vertex $-1 $170 $354 #
straight-curve $-1 0 37.482930980512691 13.14219028766186 -1 0 0 I I #
coedge $-1 $171 $246 $173 $265 reversed $101 $-1 #
vertex $-1 $257 $355 #
straight-curve $-1 0 -37.482930980512691 13.14219028766186 1 0 0 I I #
edge $-1 $176 -13.14219028766186 $254 13.14219028766186 $173 $356 forward 7 unknown #
edge $-1 $177 -13.14219028766186 $253 13.14219028766186 $174 $357 forward 7 unknown #
point $-1 55.703604235969117 -37.482930980512691 13.14219028766186 #
point $-1 55.703604235969117 37.482930980512691 13.14219028766186 #
face $-1 $-1 $283 $25 $-1 $358 reversed single #
loop $-1 $-1 $359 $179 #
plane-surface $-1 0 -53.516587628287226 -10.73189967412678 0 1 0 0 0 1 forward_v I I I I #
coedge $-1 $360 $182 $191 $287 reversed $109 $-1 #
coedge $-1 $182 $360 $183 $275 reversed $109 $-1 #
coedge $-1 $184 $183 $361 $362 forward $69 $-1 #
edge $-1 $279 37.482930980512691 $363 53.516587628287226 $273 $364 forward 7 unknown #
coedge $-1 $365 $188 $184 $277 reversed $283 $-1 #
edge $-1 $366 -53.516587628287226 $278 -37.482930980512691 $276 $367 forward 7 unknown #
vertex $-1 $189 $368 #
vertex $-1 $275 $369 #
straight-curve $-1 0 -37.482930980512691 -13.14219028766186 1 0 0 I I #
straight-curve $-1 55.703604235969117 -37.482930980512691 0 0 0 1 I I #
coedge $-1 $188 $365 $190 $286 reversed $283 $-1 #
loop $-1 $-1 $188 $269 #
straight-curve $-1 -55.703604235969117 -37.482930980512691 0 0 0 -1 I I #
coedge $-1 $191 $190 $370 $371 forward $180 $-1 #
edge $-1 $192 -8.0168283238872675 $372 8.0168283238872675 $282 $373 forward 7 unknown #
edge $-1 $374 -8.0168283238872675 $193 8.0168283238872675 $272 $375 forward 7 unknown #
point $-1 -55.703604235969117 -37.482930980512691 -8.321609060591701 #
point $-1 55.703604235969117 -37.482930980512691 -8.321609060591701 #
plane-surface $-1 0 0 13.14219028766186 0 0 1 1 0 0 forward_v I I I I #
coedge $-1 $301 $300 $293 $376 forward $196 $-1 #
coedge $-1 $293 $198 $200 $297 reversed $117 $-1 #
coedge $-1 $198 $292 $291 $376 reversed $117 $-1 #
coedge $-1 $206 $201 $198 $295 forward $207 $-1 #
edge $-1 $298 26.472662479751182 $377 42.883122091943505 $294 $378 forward 7 unknown #
coedge $-1 $200 $199 $301 $379 reversed $73 $-1 #
edge $-1 $380 -111.40720847193825 $298 -91.612617427468152 $292 $381 forward 7 unknown #
vertex $-1 $202 $382 #
straight-curve $-1 39.293144623776797 -4.0809724567194969 13.142190287661862 0 -1 0 I I #
coedge $-1 $291 $203 $206 $305 reversed $196 $-1 #
coedge $-1 $203 $291 $296 $379 forward $196 $-1 #
vertex $-1 $204 $383 #
straight-curve $-1 55.703604235969117 -4.0567845151077364 78.366038808935883 0 0 1 I I #
straight-curve $-1 -36.657156894611518 -4.0567845151077364 64.371316487291139 0.82903756765294845 0 -0.55919291073839883 I I #
edge $-1 $377 -12.267105311770251 $208 -4.0567845151077364 $300 $384 forward 7 unknown #
point $-1 55.703604235969117 -4.0567845151077364 13.14219028766186 #
point $-1 39.293144623776797 -4.0567845151077364 13.142190287661862 #
edge $-1 $385 1 $385 0 $211 $-1 forward 7 unknown #
vertex $-1 $212 $386 #
ellipse-curve $-1 45.481136390964274 -9.9212993698666772 4.6170144720126514 0.55919291073839883 0 0.82903756765294845 0.82903756765294845 0 -0.55919291073839883 1 I I #
point $-1 48.327411997525928 -9.9212993698666772 7.0484998854067378 #
edge $-1 $387 1 $387 0 $215 $-1 forward 7 unknown #
vertex $-1 $216 $388 #
ellipse-curve $-1 45.481136390964274 -6.4025904570113141 4.6170144720126514 0.55919291073839883 0 0.82903756765294845 0.82903756765294845 0 -0.55919291073839883 1 I I #
point $-1 48.327411997525928 -6.4025904570113141 7.0484998854067378 #
loop $-1 $-1 $227 $219 #
plane-surface $-1 -55.703604235969117 0 0 1 0 0 0 0 -1 forward_v I I I I #
coedge $-1 $319 $222 $224 $323 reversed $139 $-1 #
coedge $-1 $222 $318 $389 $390 reversed $139 $-1 #
coedge $-1 $230 $225 $222 $321 forward $220 $-1 #
edge $-1 $324 -21.684545082217959 $391 -1.666611243635586 $320 $392 forward 7 unknown #
coedge $-1 $224 $223 $327 $393 reversed $87 $-1 #
edge $-1 $394 0 $324 23.604715384084393 $318 $395 forward 7 unknown #
vertex $-1 $226 $396 #
straight-curve $-1 -35.685670397386744 11.678850856471023 13.14219028766186 0 1 0 I I #
coedge $-1 $389 $227 $230 $331 reversed $316 $-1 #
coedge $-1 $227 $389 $322 $393 forward $316 $-1 #
vertex $-1 $228 $397 #
straight-curve $-1 -55.703604235969117 16.124015974777393 47.556133634682766 0 0 1 I I #
straight-curve $-1 -55.703604235969117 16.124015974777393 0.63359671373160609 -0.84804809178421925 0 -0.52991927123019833 I I #
edge $-1 $391 -30.591387451106698 $231 -16.124015974777393 $326 $398 forward 7 unknown #
point $-1 -55.703604235969117 16.124015974777393 13.14219028766186 #
point $-1 -35.685670397386744 16.124015974777393 13.14219028766186 #
edge $-1 $399 1 $399 0 $234 $-1 forward 7 unknown #
vertex $-1 $235 $400 #
ellipse-curve $-1 -43.416228652817225 20.25755068230005 3.2416775115968481 -0.52991927123019833 0 0.84804809178421925 1.2720721376763289 0 0.79487890684529749 1 I I #
point $-1 -44.422565179001609 20.25755068230005 7.6827724075420356 #
edge $-1 $401 1 $401 0 $238 $-1 forward 7 unknown #
vertex $-1 $239 $402 #
ellipse-curve $-1 -43.416228652817225 26.457852743584034 3.2416775115968481 -0.52991927123019833 0 0.84804809178421925 1.2720721376763289 0 0.79487890684529749 1 I I #
point $-1 -44.422565179001609 26.457852743584034 7.6827724075420356 #
plane-surface $-1 55.703604235969117 0 0 -1 0 0 0 0 1 forward_v I I I I #
coedge $-1 $247 $245 $249 $347 reversed $161 $-1 #
edge $-1 $260 -13.14219028766186 $349 13.14219028766186 $259 $403 forward 7 unknown #
vertex $-1 $347 $404 #
straight-curve $-1 -55.703604235969117 -37.482930980512691 0 0 0 -1 I I #
edge $-1 $345 -37.482930980512691 $349 37.482930980512691 $343 $405 forward 7 unknown #
straight-curve $-1 0 -37.482930980512691 -13.14219028766186 -1 0 0 I I #
vertex $-1 $252 $406 #
straight-curve $-1 0 37.482930980512691 -13.14219028766186 1 0 0 I I #
point $-1 55.703604235969117 37.482930980512691 -13.14219028766186 #
point $-1 55.703604235969117 -37.482930980512691 -13.14219028766186 #
straight-curve $-1 -55.703604235969117 0 13.14219028766186 0 -1 0 I I #
point $-1 -55.703604235969117 37.482930980512691 13.14219028766186 #
point $-1 -55.703604235969117 -37.482930980512691 13.14219028766186 #
straight-curve $-1 55.703604235969117 -37.482930980512691 0 0 0 -1 I I #
straight-curve $-1 55.703604235969117 37.482930980512691 0 0 0 -1 I I #
plane-surface $-1 -55.703604235969117 0 0 1 0 0 0 0 -1 forward_v I I I I #
coedge $-1 $361 $370 $365 $407 forward $270 $-1 #
coedge $-1 $273 $272 $408 $409 forward $109 $-1 #
coedge $-1 $408 $359 $274 $362 reversed $270 $-1 #
edge $-1 $363 -55.703604235969117 $366 55.703604235969117 $361 $410 forward 7 unknown #
vertex $-1 $409 $411 #
straight-curve $-1 55.703604235969117 0 -13.14219028766186 0 -1 0 I I #
coedge $-1 $282 $276 $359 $407 reversed $283 $-1 #
vertex $-1 $277 $412 #
straight-curve $-1 -55.703604235969117 0 -13.14219028766186 0 1 0 I I #
point $-1 -55.703604235969117 -37.482930980512691 -13.14219028766186 #
point $-1 55.703604235969117 -37.482930980512691 -13.14219028766186 #
coedge $-1 $359 $408 $285 $371 reversed $270 $-1 #
edge $-1 $372 -55.703604235969117 $374 55.703604235969117 $370 $413 forward 7 unknown #
vertex $-1 $286 $414 #
straight-curve $-1 -55.703604235969117 -45.499759304399959 -8.321609060591701 0 -1 0 I I #
vertex $-1 $287 $415 #
straight-curve $-1 55.703604235969117 -45.499759304399959 -8.321609060591701 0 1 0 I I #
edge $-1 $377 65.223848521274022 $380 76.292843504307498 $291 $416 forward 7 unknown #
vertex $-1 $305 $417 #
straight-curve $-1 12.820482144025615 -12.267105311770251 13.142190287661862 1 0 0 I I #
edge $-1 $380 -8.1861328550507544 $302 0.024187941611760522 $301 $418 forward 7 unknown #
vertex $-1 $379 $419 #
straight-curve $-1 -36.657156894611518 -12.267105311770251 64.371316487291139 -0.82903756765294845 0 0.55919291073839883 I I #
point $-1 39.293144623776797 -12.267105311770251 13.142190287661862 #
point $-1 55.703604235969124 -4.0567845151077364 2.0731953046283849 #
straight-curve $-1 55.703604235969117 0 13.14219028766186 0 1 0 I I #
vertex $-1 $308 $420 #
point $-1 46.31017395861722 -9.9212993698666772 4.0578215612742525 #
vertex $-1 $312 $421 #
point $-1 46.31017395861722 -6.4025904570113141 4.0578215612742525 #
coedge $-1 $327 $326 $319 $390 forward $316 $-1 #
edge $-1 $391 34.413943347020904 $394 46.92253692095116 $389 $422 forward 7 unknown #
vertex $-1 $331 $423 #
straight-curve $-1 -57.370215479604703 30.591387451106698 13.142190287661862 -1 0 0 I I #
edge $-1 $394 -18.912536594635675 $328 -4.4451651183063703 $327 $424 forward 7 unknown #
vertex $-1 $393 $425 #
straight-curve $-1 -55.703604235969117 30.591387451106698 0.63359671373160609 0.84804809178421925 0 0.52991927123019833 I I #
point $-1 -35.685670397386744 30.591387451106698 13.14219028766186 #
point $-1 -55.703604235969117 16.124015974777393 0.63359671373160609 #
straight-curve $-1 -55.703604235969117 0 13.14219028766186 0 -1 0 I I #
vertex $-1 $334 $426 #
point $-1 -42.144156515140892 20.25755068230005 4.0365564184421459 #
vertex $-1 $338 $427 #
point $-1 -42.144156515140892 26.457852743584034 4.0365564184421459 #
straight-curve $-1 -55.703604235969117 37.482930980512691 0 0 0 -1 I I #
point $-1 -55.703604235969117 -37.482930980512691 -13.14219028766186 #
straight-curve $-1 -55.703604235969117 0 -13.14219028766186 0 1 0 I I #
point $-1 -55.703604235969117 37.482930980512691 -13.14219028766186 #
edge $-1 $372 -2.4102906135350786 $366 2.4102906135350786 $365 $428 forward 7 unknown #
coedge $-1 $370 $361 $360 $409 reversed $270 $-1 #
edge $-1 $374 -2.4102906135350786 $363 2.4102906135350786 $360 $429 forward 7 unknown #
straight-curve $-1 0 -53.516587628287226 -13.142190287661858 -1 0 0 I I #
point $-1 55.703604235969117 -53.516587628287226 -13.142190287661858 #
point $-1 -55.703604235969117 -53.516587628287226 -13.142190287661858 #
straight-curve $-1 0 -53.516587628287226 -8.321609060591701 1 0 0 I I #
point $-1 -55.703604235969117 -53.516587628287226 -8.321609060591701 #
point $-1 55.703604235969117 -53.516587628287226 -8.321609060591701 #
straight-curve $-1 55.703604235969117 -12.267105311770251 78.366038808935883 0 0 -1 I I #
point $-1 55.703604235969117 -12.267105311770251 13.14219028766186 #
straight-curve $-1 55.703604235969117 -4.0809724567194969 2.0731953046283884 0 1 0 I I #
point $-1 55.703604235969124 -12.267105311770251 2.0731953046283849 #
point $-1 44.92194348022587 -9.9212993698666772 3.7879769043597031 #
point $-1 44.92194348022587 -6.4025904570113141 3.7879769043597031 #
straight-curve $-1 -55.703604235969117 30.591387451106698 47.556133634682766 0 0 -1 I I #
point $-1 -55.703604235969117 30.591387451106698 13.14219028766186 #
straight-curve $-1 -55.703604235969117 11.678850856471023 0.63359671373160442 0 -1 0 I I #
point $-1 -55.703604235969117 30.591387451106698 0.63359671373160609 #
point $-1 -42.621349745971926 20.25755068230005 1.9696053739205186 #
point $-1 -42.621349745971926 26.457852743584034 1.9696053739205186 #
straight-curve $-1 -55.703604235969117 -53.516587628287226 -10.73189967412678 0 0 -1 I I #
straight-curve $-1 55.703604235969117 -53.516587628287226 -10.73189967412678 0 0 -1 I I #
End-of-ACIS-data 