500 0 10 0           
7 Unknown 11 ACIS 5.0 NT 24 Fri Mar 26 17:24:59 1999 
-1 9.9999999999999995e-007 1e-010 
body $-1 $10 $-1 $11 #
body $-1 $12 $-1 $13 #
body $-1 $14 $-1 $15 #
body $-1 $16 $-1 $17 #
body $-1 $18 $-1 $19 #
body $-1 $20 $-1 $21 #
body $-1 $22 $-1 $23 #
body $-1 $24 $-1 $25 #
body $-1 $26 $-1 $27 #
body $-1 $28 $-1 $29 #
lump $-1 $-1 $30 $0 #
transform $-1 1 0 0 0 1 0 0 0 1 67.777947325052651 45.188263040798148 17.280680222755372 1 rotate no_reflect no_shear #
lump $-1 $-1 $31 $1 #
transform $-1 1 0 0 0 1 0 0 0 1 67.777947325052651 45.188263040798148 17.280680222755372 1 rotate no_reflect no_shear #
lump $-1 $-1 $32 $2 #
transform $-1 1 0 0 0 1 0 0 0 1 67.777947325052651 45.188263040798148 17.280680222755372 1 rotate no_reflect no_shear #
lump $-1 $-1 $33 $3 #
transform $-1 1 0 0 0 1 0 0 0 1 67.777947325052651 45.188263040798148 17.280680222755372 1 rotate no_reflect no_shear #
lump $-1 $-1 $34 $4 #
transform $-1 1 0 0 0 1 0 0 0 1 67.777947325052651 45.188263040798148 17.280680222755372 1 rotate no_reflect no_shear #
lump $-1 $-1 $35 $5 #
transform $-1 1 0 0 0 1 0 0 0 1 67.777947325052651 45.188263040798148 17.280680222755372 1 rotate no_reflect no_shear #
lump $-1 $-1 $36 $6 #
transform $-1 1 0 0 0 1 0 0 0 1 67.777947325052651 45.188263040798148 17.280680222755372 1 rotate no_reflect no_shear #
lump $-1 $-1 $37 $7 #
transform $-1 1 0 0 0 1 0 0 0 1 67.777947325052651 45.188263040798148 17.280680222755372 1 rotate no_reflect no_shear #
lump $-1 $-1 $38 $8 #
transform $-1 1 0 0 0 1 0 0 0 1 67.777947325052651 45.188263040798148 17.280680222755372 1 rotate no_reflect no_shear #
lump $-1 $-1 $39 $9 #
transform $-1 1 0 0 0 1 0 0 0 1 67.777947325052651 45.188263040798148 17.280680222755372 1 rotate no_reflect no_shear #
shell $-1 $-1 $-1 $40 $-1 $10 #
shell $-1 $-1 $-1 $41 $-1 $12 #
shell $-1 $-1 $-1 $42 $-1 $14 #
shell $-1 $-1 $-1 $43 $-1 $16 #
shell $-1 $-1 $-1 $44 $-1 $18 #
shell $-1 $-1 $-1 $45 $-1 $20 #
shell $-1 $-1 $-1 $46 $-1 $22 #
shell $-1 $-1 $-1 $47 $-1 $24 #
shell $-1 $-1 $-1 $48 $-1 $26 #
shell $-1 $-1 $-1 $49 $-1 $28 #
face $-1 $50 $51 $30 $-1 $52 forward single #
face $-1 $53 $54 $31 $-1 $55 forward single #
face $-1 $56 $57 $32 $-1 $58 reversed single #
face $-1 $59 $60 $33 $-1 $61 forward single #
face $-1 $62 $63 $34 $-1 $64 forward single #
face $-1 $65 $66 $35 $-1 $67 forward single #
face $-1 $68 $69 $36 $-1 $70 reversed single #
face $-1 $71 $72 $37 $-1 $73 forward single #
face $-1 $74 $75 $38 $-1 $76 forward single #
face $-1 $77 $78 $39 $-1 $79 forward single #
face $-1 $80 $81 $30 $-1 $82 reversed single #
loop $-1 $-1 $83 $40 #
plane-surface $-1 0 0 17.280680222755372 0 0 1 1 0 0 forward_v I I I I #
face $-1 $84 $85 $31 $-1 $86 reversed single #
loop $-1 $-1 $87 $41 #
plane-surface $-1 -57.572499797766547 0 9.4666213654839293 0 0 1 1 0 0 forward_v I I I I #
face $-1 $88 $89 $32 $-1 $90 reversed single #
loop $-1 $-1 $91 $42 #
plane-surface $-1 34.488727790484006 -2.1697464734941878 199.5025208839742 0 -1 0 -0.57357644374324357 0 -0.81915203911291934 forward_v I I I I #
face $-1 $92 $93 $33 $-1 $94 forward single #
loop $-1 $95 $96 $43 #
cone-surface $-1 62.381091582037655 -12.98271433107184 12.98865102131745 -0.57357644374324357 0 -0.81915203911291934 0.81915203911291934 0 -0.57357644374324357 1 I I 0 1 1 forward I I I I #
face $-1 $97 $98 $34 $-1 $99 forward single #
loop $-1 $100 $101 $44 #
cone-surface $-1 62.381091582037655 -8.9278513844802205 12.98865102131745 -0.57357644374324357 0 -0.81915203911291934 0.81915203911291934 0 -0.57357644374324357 1 I I 0 1 1 forward I I I I #
face $-1 $102 $103 $35 $-1 $104 forward single #
loop $-1 $105 $106 $45 #
cone-surface $-1 62.381091582037655 -4.8729884378886013 12.98865102131745 -0.57357644374324357 0 -0.81915203911291934 0.81915203911291934 0 -0.57357644374324357 1 I I 0 1 1 forward I I I I #
face $-1 $107 $108 $36 $-1 $109 reversed single #
loop $-1 $-1 $110 $46 #
plane-surface $-1 34.488727790484006 15.685956295466246 199.5025208839742 0 -1 0 -0.57357644374324357 0 -0.81915203911291934 forward_v I I I I #
face $-1 $111 $112 $37 $-1 $113 forward single #
loop $-1 $114 $115 $47 #
cone-surface $-1 62.381091582037655 4.8729884378885941 12.98865102131745 -0.57357644374324357 0 -0.81915203911291934 0.81915203911291934 0 -0.57357644374324357 1 I I 0 1 1 forward I I I I #
face $-1 $116 $117 $38 $-1 $118 forward single #
loop $-1 $119 $120 $48 #
cone-surface $-1 62.381091582037655 8.9278513844802134 12.98865102131745 -0.57357644374324357 0 -0.81915203911291934 0.81915203911291934 0 -0.57357644374324357 1 I I 0 1 1 forward I I I I #
face $-1 $121 $122 $39 $-1 $123 forward single #
loop $-1 $124 $125 $49 #
cone-surface $-1 62.381091582037655 12.982714331071833 12.98865102131745 -0.57357644374324357 0 -0.81915203911291934 0.81915203911291934 0 -0.57357644374324357 1 I I 0 1 1 forward I I I I #
face $-1 $126 $127 $30 $-1 $128 reversed single #
loop $-1 $-1 $129 $50 #
plane-surface $-1 0 0 -17.280680222755372 0 0 1 1 0 0 forward_v I I I I #
coedge $-1 $130 $131 $132 $133 forward $51 $-1 #
face $-1 $134 $135 $31 $-1 $136 reversed single #
loop $-1 $-1 $137 $53 #
plane-surface $-1 -57.572499797766547 0 4.8658584598998562 0 0 1 1 0 0 forward_v I I I I #
coedge $-1 $138 $139 $140 $141 forward $54 $-1 #
face $-1 $142 $143 $32 $-1 $144 reversed single #
loop $-1 $-1 $145 $56 #
plane-surface $-1 -43.262940191357174 -8.9278513844802205 88.461633367564374 0.57357644374324357 0 0.81915203911291934 0.81915203911291934 0 -0.57357644374324357 forward_v I I I I #
coedge $-1 $146 $147 $148 $149 reversed $57 $-1 #
face $-1 $-1 $150 $33 $-1 $151 forward single #
loop $-1 $152 $153 $59 #
cone-surface $-1 61.389424175722752 -12.98271433107184 11.572403218839177 -0.57357644374324357 0 -0.81915203911291934 0.40957601955645967 0 -0.28678822187162178 1 I I -0.70710678118654746 0.70710678118654746 0.5 forward I I I I #
loop $-1 $-1 $154 $43 #
coedge $-1 $96 $96 $155 $156 reversed $60 $-1 #
face $-1 $-1 $157 $34 $-1 $158 forward single #
loop $-1 $159 $160 $62 #
cone-surface $-1 61.389424175722752 -8.9278513844802205 11.572403218839177 -0.57357644374324357 0 -0.81915203911291934 0.40957601955645967 0 -0.28678822187162178 1 I I -0.70710678118654746 0.70710678118654746 0.5 forward I I I I #
loop $-1 $-1 $161 $44 #
coedge $-1 $101 $101 $162 $163 reversed $63 $-1 #
face $-1 $-1 $164 $35 $-1 $165 forward single #
loop $-1 $166 $167 $65 #
cone-surface $-1 61.389424175722752 -4.8729884378886013 11.572403218839177 -0.57357644374324357 0 -0.81915203911291934 0.40957601955645967 0 -0.28678822187162178 1 I I -0.70710678118654746 0.70710678118654746 0.5 forward I I I I #
loop $-1 $-1 $168 $45 #
coedge $-1 $106 $106 $169 $170 reversed $66 $-1 #
face $-1 $171 $172 $36 $-1 $173 reversed single #
loop $-1 $-1 $174 $68 #
plane-surface $-1 -43.262940191357174 8.9278513844802134 88.461633367564374 0.57357644374324357 0 0.81915203911291934 0.81915203911291934 0 -0.57357644374324357 forward_v I I I I #
coedge $-1 $175 $176 $177 $178 reversed $69 $-1 #
face $-1 $-1 $179 $37 $-1 $180 forward single #
loop $-1 $181 $182 $71 #
cone-surface $-1 61.389424175722752 4.8729884378885941 11.572403218839177 -0.57357644374324357 0 -0.81915203911291934 0.40957601955645967 0 -0.28678822187162178 1 I I -0.70710678118654746 0.70710678118654746 0.5 forward I I I I #
loop $-1 $-1 $183 $47 #
coedge $-1 $115 $115 $184 $185 reversed $72 $-1 #
face $-1 $-1 $186 $38 $-1 $187 forward single #
loop $-1 $188 $189 $74 #
cone-surface $-1 61.389424175722752 8.9278513844802134 11.572403218839177 -0.57357644374324357 0 -0.81915203911291934 0.40957601955645967 0 -0.28678822187162178 1 I I -0.70710678118654746 0.70710678118654746 0.5 forward I I I I #
loop $-1 $-1 $190 $48 #
coedge $-1 $120 $120 $191 $192 reversed $75 $-1 #
face $-1 $-1 $193 $39 $-1 $194 forward single #
loop $-1 $195 $196 $77 #
cone-surface $-1 61.389424175722752 12.982714331071833 11.572403218839177 -0.57357644374324357 0 -0.81915203911291934 0.40957601955645967 0 -0.28678822187162178 1 I I -0.70710678118654746 0.70710678118654746 0.5 forward I I I I #
loop $-1 $-1 $197 $49 #
coedge $-1 $125 $125 $198 $199 reversed $78 $-1 #
face $-1 $200 $201 $30 $-1 $202 reversed single #
loop $-1 $-1 $203 $80 #
plane-surface $-1 0 -45.188263040798148 0 0 1 0 0 0 1 forward_v I I I I #
coedge $-1 $204 $205 $206 $207 forward $81 $-1 #
coedge $-1 $208 $83 $209 $210 forward $51 $-1 #
coedge $-1 $83 $208 $211 $212 forward $51 $-1 #
coedge $-1 $213 $214 $83 $133 reversed $215 $-1 #
edge $-1 $216 -45.188263040798148 $217 45.188263040798148 $132 $218 forward 7 unknown #
face $-1 $219 $220 $31 $-1 $221 reversed single #
loop $-1 $-1 $222 $84 #
plane-surface $-1 -47.367052270480443 0 7.1662399126918928 -1 0 0 0 0 1 forward_v I I I I #
coedge $-1 $223 $224 $225 $226 forward $85 $-1 #
coedge $-1 $227 $87 $228 $229 reversed $54 $-1 #
coedge $-1 $87 $227 $230 $231 reversed $54 $-1 #
coedge $-1 $222 $232 $87 $141 reversed $135 $-1 #
edge $-1 $233 -45.188263040798148 $234 45.188263040798148 $140 $235 forward 7 unknown #
face $-1 $236 $237 $32 $-1 $238 reversed single #
loop $-1 $-1 $239 $88 #
plane-surface $-1 34.488727790484006 -15.685956295466253 199.5025208839742 0 1 0 0.57357644374324357 0 0.81915203911291934 forward_v I I I I #
coedge $-1 $240 $241 $242 $243 reversed $89 $-1 #
coedge $-1 $147 $91 $244 $245 reversed $57 $-1 #
coedge $-1 $91 $146 $240 $246 reversed $57 $-1 #
coedge $-1 $242 $247 $91 $149 forward $248 $-1 #
edge $-1 $249 -50.533583429810648 $250 -41.14963031266727 $148 $251 forward 7 unknown #
loop $-1 $-1 $155 $92 #
plane-surface $-1 -43.262940191357174 -8.9278513844802205 88.461633367564374 0.57357644374324357 0 0.81915203911291934 0.81915203911291934 0 -0.57357644374324357 forward_v I I I I #
loop $-1 $-1 $252 $59 #
coedge $-1 $153 $153 $154 $253 reversed $93 $-1 #
coedge $-1 $154 $154 $153 $253 forward $95 $-1 #
coedge $-1 $155 $155 $96 $156 forward $150 $-1 #
edge $-1 $254 0 $254 6.2831853071796004 $155 $255 forward 7 unknown #
loop $-1 $-1 $162 $97 #
plane-surface $-1 -43.262940191357174 -8.9278513844802205 88.461633367564374 0.57357644374324357 0 0.81915203911291934 0.81915203911291934 0 -0.57357644374324357 forward_v I I I I #
loop $-1 $-1 $256 $62 #
coedge $-1 $160 $160 $161 $257 reversed $98 $-1 #
coedge $-1 $161 $161 $160 $257 forward $100 $-1 #
coedge $-1 $162 $162 $101 $163 forward $157 $-1 #
edge $-1 $258 0 $258 6.2831853071796004 $162 $259 forward 7 unknown #
loop $-1 $-1 $169 $102 #
plane-surface $-1 -43.262940191357174 -8.9278513844802205 88.461633367564374 0.57357644374324357 0 0.81915203911291934 0.81915203911291934 0 -0.57357644374324357 forward_v I I I I #
loop $-1 $-1 $260 $65 #
coedge $-1 $167 $167 $168 $261 reversed $103 $-1 #
coedge $-1 $168 $168 $167 $261 forward $105 $-1 #
coedge $-1 $169 $169 $106 $170 forward $164 $-1 #
edge $-1 $262 0 $262 6.2831853071796004 $169 $263 forward 7 unknown #
face $-1 $264 $265 $36 $-1 $266 reversed single #
loop $-1 $-1 $267 $107 #
plane-surface $-1 34.488727790484006 2.1697464734941807 199.5025208839742 0 1 0 0.57357644374324357 0 0.81915203911291934 forward_v I I I I #
coedge $-1 $268 $269 $270 $271 reversed $108 $-1 #
coedge $-1 $176 $110 $272 $273 reversed $69 $-1 #
coedge $-1 $110 $175 $268 $274 reversed $69 $-1 #
coedge $-1 $270 $275 $110 $178 forward $276 $-1 #
edge $-1 $277 -50.533583429810648 $278 -41.14963031266727 $177 $279 forward 7 unknown #
loop $-1 $-1 $184 $111 #
plane-surface $-1 -43.262940191357174 8.9278513844802134 88.461633367564374 0.57357644374324357 0 0.81915203911291934 0.81915203911291934 0 -0.57357644374324357 forward_v I I I I #
loop $-1 $-1 $280 $71 #
coedge $-1 $182 $182 $183 $281 reversed $112 $-1 #
coedge $-1 $183 $183 $182 $281 forward $114 $-1 #
coedge $-1 $184 $184 $115 $185 forward $179 $-1 #
edge $-1 $282 0 $282 6.2831853071796004 $184 $283 forward 7 unknown #
loop $-1 $-1 $191 $116 #
plane-surface $-1 -43.262940191357174 8.9278513844802134 88.461633367564374 0.57357644374324357 0 0.81915203911291934 0.81915203911291934 0 -0.57357644374324357 forward_v I I I I #
loop $-1 $-1 $284 $74 #
coedge $-1 $189 $189 $190 $285 reversed $117 $-1 #
coedge $-1 $190 $190 $189 $285 forward $119 $-1 #
coedge $-1 $191 $191 $120 $192 forward $186 $-1 #
edge $-1 $286 0 $286 6.2831853071796004 $191 $287 forward 7 unknown #
loop $-1 $-1 $198 $121 #
plane-surface $-1 -43.262940191357174 8.9278513844802134 88.461633367564374 0.57357644374324357 0 0.81915203911291934 0.81915203911291934 0 -0.57357644374324357 forward_v I I I I #
loop $-1 $-1 $288 $77 #
coedge $-1 $196 $196 $197 $289 reversed $122 $-1 #
coedge $-1 $197 $197 $196 $289 forward $124 $-1 #
coedge $-1 $198 $198 $125 $199 forward $193 $-1 #
edge $-1 $290 0 $290 6.2831853071796004 $198 $291 forward 7 unknown #
face $-1 $292 $293 $30 $-1 $294 reversed single #
loop $-1 $-1 $295 $126 #
plane-surface $-1 -67.777947325052651 0 0 1 0 0 0 0 -1 forward_v I I I I #
coedge $-1 $296 $211 $297 $298 forward $127 $-1 #
coedge $-1 $299 $129 $296 $300 forward $81 $-1 #
coedge $-1 $129 $299 $301 $302 forward $81 $-1 #
coedge $-1 $214 $213 $129 $207 reversed $215 $-1 #
edge $-1 $303 -45.188263040798148 $304 45.188263040798148 $206 $305 forward 7 unknown #
coedge $-1 $131 $130 $306 $307 forward $51 $-1 #
coedge $-1 $308 $309 $130 $210 reversed $293 $-1 #
edge $-1 $217 -67.777947325052651 $310 67.777947325052651 $209 $311 forward 7 unknown #
coedge $-1 $203 $312 $131 $212 reversed $127 $-1 #
edge $-1 $313 -67.777947325052651 $216 67.777947325052651 $211 $314 forward 7 unknown #
coedge $-1 $206 $132 $312 $315 forward $215 $-1 #
coedge $-1 $132 $206 $308 $316 reversed $215 $-1 #
loop $-1 $-1 $213 $292 #
vertex $-1 $133 $317 #
vertex $-1 $133 $318 #
straight-curve $-1 67.777947325052651 0 17.280680222755372 0 1 0 I I #
face $-1 $319 $320 $31 $-1 $321 reversed single #
loop $-1 $-1 $322 $134 #
plane-surface $-1 0 -45.188263040798148 0 0 1 0 0 0 1 forward_v I I I I #
coedge $-1 $225 $140 $323 $324 reversed $135 $-1 #
coedge $-1 $325 $137 $322 $326 reversed $85 $-1 #
coedge $-1 $137 $325 $327 $328 reversed $85 $-1 #
coedge $-1 $232 $222 $137 $226 reversed $135 $-1 #
edge $-1 $329 -45.188263040798148 $330 45.188263040798148 $225 $331 forward 7 unknown #
coedge $-1 $139 $138 $332 $333 reversed $54 $-1 #
coedge $-1 $334 $335 $138 $229 forward $336 $-1 #
edge $-1 $337 -38.991697426169381 $234 -18.580802371597169 $228 $338 forward 7 unknown #
coedge $-1 $339 $323 $139 $231 forward $220 $-1 #
edge $-1 $233 18.580802371597169 $340 38.991697426169381 $230 $341 forward 7 unknown #
coedge $-1 $140 $225 $334 $342 reversed $135 $-1 #
vertex $-1 $231 $343 #
vertex $-1 $229 $344 #
straight-curve $-1 -47.367052270480443 0 9.4666213654839293 0 1 0 I I #
face $-1 $-1 $248 $32 $-1 $345 forward single #
loop $-1 $-1 $346 $142 #
plane-surface $-1 67.777947325052651 0 0 -1 0 0 0 0 1 forward_v I I I I #
coedge $-1 $347 $348 $349 $350 reversed $143 $-1 #
coedge $-1 $351 $145 $147 $246 forward $89 $-1 #
coedge $-1 $145 $351 $347 $352 forward $89 $-1 #
coedge $-1 $349 $148 $145 $243 forward $248 $-1 #
edge $-1 $250 -2.2941792187459225 $353 11.222030603226143 $242 $354 forward 7 unknown #
coedge $-1 $355 $356 $146 $245 forward $237 $-1 #
edge $-1 $357 -89.041295056263905 $249 -82.470580219231721 $244 $358 forward 7 unknown #
edge $-1 $250 124.10020307018138 $357 135.5558946501053 $147 $359 forward 7 unknown #
coedge $-1 $148 $349 $355 $360 forward $248 $-1 #
loop $-1 $-1 $349 $236 #
vertex $-1 $245 $361 #
vertex $-1 $149 $362 #
straight-curve $-1 17.244363895242003 -2.1697464734941878 17.280680222755365 -1 0 0 I I #
coedge $-1 $252 $252 $-1 $363 reversed $152 $-1 #
edge $-1 $364 0 $364 6.2831853071796004 $153 $365 forward 7 unknown #
vertex $-1 $156 $366 #
ellipse-curve $-1 63.085970766480962 -12.98271433107184 13.995322804239297 0.57357644374324357 0 0.81915203911291934 0.81915203911291934 0 -0.57357644374324357 1 I I #
coedge $-1 $256 $256 $-1 $367 reversed $159 $-1 #
edge $-1 $368 0 $368 6.2831853071796004 $160 $369 forward 7 unknown #
vertex $-1 $163 $370 #
ellipse-curve $-1 63.085970766480962 -8.9278513844802205 13.995322804239297 0.57357644374324357 0 0.81915203911291934 0.81915203911291934 0 -0.57357644374324357 1 I I #
coedge $-1 $260 $260 $-1 $371 reversed $166 $-1 #
edge $-1 $372 0 $372 6.2831853071796004 $167 $373 forward 7 unknown #
vertex $-1 $170 $374 #
ellipse-curve $-1 63.085970766480962 -4.8729884378886013 13.995322804239297 0.57357644374324357 0 0.81915203911291934 0.81915203911291934 0 -0.57357644374324357 1 I I #
face $-1 $-1 $276 $36 $-1 $375 forward single #
loop $-1 $-1 $376 $171 #
plane-surface $-1 67.777947325052651 0 0 -1 0 0 0 0 1 forward_v I I I I #
coedge $-1 $377 $378 $379 $380 reversed $172 $-1 #
coedge $-1 $381 $174 $176 $274 forward $108 $-1 #
coedge $-1 $174 $381 $377 $382 forward $108 $-1 #
coedge $-1 $379 $177 $174 $271 forward $276 $-1 #
edge $-1 $278 -11.222030603226139 $383 2.294179218745926 $270 $384 forward 7 unknown #
coedge $-1 $385 $386 $175 $273 forward $265 $-1 #
edge $-1 $387 -89.041295056263905 $277 -82.470580219231721 $272 $388 forward 7 unknown #
edge $-1 $278 124.10020307018138 $387 135.5558946501053 $176 $389 forward 7 unknown #
coedge $-1 $177 $379 $385 $390 forward $276 $-1 #
loop $-1 $-1 $379 $264 #
vertex $-1 $273 $391 #
vertex $-1 $178 $392 #
straight-curve $-1 17.244363895242003 15.685956295466246 17.280680222755365 -1 0 0 I I #
coedge $-1 $280 $280 $-1 $393 reversed $181 $-1 #
edge $-1 $394 0 $394 6.2831853071796004 $182 $395 forward 7 unknown #
vertex $-1 $185 $396 #
ellipse-curve $-1 63.085970766480962 4.8729884378885941 13.995322804239297 0.57357644374324357 0 0.81915203911291934 0.81915203911291934 0 -0.57357644374324357 1 I I #
coedge $-1 $284 $284 $-1 $397 reversed $188 $-1 #
edge $-1 $398 0 $398 6.2831853071796004 $189 $399 forward 7 unknown #
vertex $-1 $192 $400 #
ellipse-curve $-1 63.085970766480962 8.9278513844802134 13.995322804239297 0.57357644374324357 0 0.81915203911291934 0.81915203911291934 0 -0.57357644374324357 1 I I #
coedge $-1 $288 $288 $-1 $401 reversed $195 $-1 #
edge $-1 $402 0 $402 6.2831853071796004 $196 $403 forward 7 unknown #
vertex $-1 $199 $404 #
ellipse-curve $-1 63.085970766480962 12.982714331071833 13.995322804239297 0.57357644374324357 0 0.81915203911291934 0.81915203911291934 0 -0.57357644374324357 1 I I #
face $-1 $-1 $215 $30 $-1 $405 reversed single #
loop $-1 $-1 $308 $200 #
plane-surface $-1 0 45.188263040798148 0 0 -1 0 0 0 -1 forward_v I I I I #
coedge $-1 $406 $306 $309 $407 forward $201 $-1 #
coedge $-1 $312 $203 $204 $300 reversed $127 $-1 #
coedge $-1 $306 $406 $203 $298 reversed $201 $-1 #
edge $-1 $313 -17.280680222755372 $408 17.280680222755372 $297 $409 forward 7 unknown #
coedge $-1 $205 $204 $406 $410 forward $81 $-1 #
edge $-1 $304 -67.777947325052651 $408 67.777947325052651 $296 $411 forward 7 unknown #
coedge $-1 $309 $308 $205 $302 reversed $293 $-1 #
edge $-1 $412 -67.777947325052651 $303 67.777947325052651 $301 $413 forward 7 unknown #
vertex $-1 $207 $414 #
vertex $-1 $315 $415 #
straight-curve $-1 67.777947325052651 0 -17.280680222755372 0 -1 0 I I #
coedge $-1 $295 $297 $208 $307 reversed $201 $-1 #
edge $-1 $310 -45.188263040798148 $313 45.188263040798148 $306 $416 forward 7 unknown #
coedge $-1 $301 $209 $214 $316 forward $293 $-1 #
coedge $-1 $209 $301 $295 $407 reversed $293 $-1 #
vertex $-1 $210 $417 #
straight-curve $-1 0 45.188263040798148 17.280680222755372 -1 0 0 I I #
coedge $-1 $211 $296 $213 $315 reversed $127 $-1 #
vertex $-1 $307 $418 #
straight-curve $-1 0 -45.188263040798148 17.280680222755372 1 0 0 I I #
edge $-1 $216 -17.280680222755372 $304 17.280680222755372 $213 $419 forward 7 unknown #
edge $-1 $217 -17.280680222755372 $303 17.280680222755372 $214 $420 forward 7 unknown #
point $-1 67.777947325052651 -45.188263040798148 17.280680222755372 #
point $-1 67.777947325052651 45.188263040798148 17.280680222755372 #
face $-1 $-1 $336 $31 $-1 $421 reversed single #
loop $-1 $-1 $422 $219 #
plane-surface $-1 -67.777947325052651 0 0 1 0 0 0 0 -1 forward_v I I I I #
coedge $-1 $323 $339 $223 $326 forward $220 $-1 #
coedge $-1 $230 $322 $222 $324 forward $220 $-1 #
edge $-1 $330 1.2827385035539098 $233 5.8835014091379829 $323 $423 forward 7 unknown #
coedge $-1 $224 $223 $422 $424 reversed $85 $-1 #
edge $-1 $425 -38.991697426169381 $330 -18.580802371597169 $322 $426 forward 7 unknown #
coedge $-1 $335 $334 $224 $328 forward $336 $-1 #
edge $-1 $329 18.580802371597169 $427 38.991697426169381 $327 $428 forward 7 unknown #
vertex $-1 $328 $429 #
vertex $-1 $326 $430 #
straight-curve $-1 -47.367052270480443 0 4.8658584598998562 0 -1 0 I I #
coedge $-1 $431 $432 $227 $333 forward $320 $-1 #
edge $-1 $340 -45.188263040798148 $337 45.188263040798148 $332 $433 forward 7 unknown #
coedge $-1 $327 $228 $232 $342 forward $336 $-1 #
coedge $-1 $228 $327 $431 $434 reversed $336 $-1 #
loop $-1 $-1 $327 $319 #
vertex $-1 $434 $435 #
straight-curve $-1 -28.786249898883273 45.188263040798148 9.4666213654839293 1 0 0 I I #
coedge $-1 $322 $230 $432 $436 forward $220 $-1 #
vertex $-1 $436 $437 #
straight-curve $-1 -28.786249898883273 -45.188263040798148 9.4666213654839293 -1 0 0 I I #
edge $-1 $234 -5.8835014091379829 $329 -1.2827385035539098 $334 $438 forward 7 unknown #
point $-1 -47.367052270480443 -45.188263040798148 9.4666213654839293 #
point $-1 -47.367052270480443 45.188263040798148 9.4666213654839293 #
plane-surface $-1 0 0 17.280680222755372 0 0 1 1 0 0 forward_v I I I I #
coedge $-1 $356 $355 $348 $439 forward $237 $-1 #
coedge $-1 $348 $239 $241 $352 reversed $143 $-1 #
coedge $-1 $239 $347 $346 $439 reversed $143 $-1 #
coedge $-1 $247 $242 $239 $350 forward $248 $-1 #
edge $-1 $353 41.14963031266727 $440 50.533583429810648 $349 $441 forward 7 unknown #
coedge $-1 $241 $240 $356 $442 reversed $89 $-1 #
edge $-1 $443 -135.5558946501053 $353 -124.10020307018138 $347 $444 forward 7 unknown #
vertex $-1 $243 $445 #
straight-curve $-1 58.393994207909287 -4.4639256922401103 17.280680222755379 0 -1 0 I I #
coedge $-1 $346 $244 $247 $360 reversed $237 $-1 #
coedge $-1 $244 $346 $351 $442 forward $237 $-1 #
vertex $-1 $245 $446 #
straight-curve $-1 67.777947325052651 -2.1697464734941878 99.7512604419871 0 0 1 I I #
straight-curve $-1 -43.262940191357174 -2.1697464734941878 88.461633367564374 0.81915203911291934 0 -0.57357644374324357 I I #
edge $-1 $440 -15.685956295466253 $249 -2.1697464734941878 $355 $447 forward 7 unknown #
point $-1 67.777947325052651 -2.1697464734941878 17.280680222755372 #
point $-1 58.393994207909273 -2.1697464734941878 17.280680222755379 #
edge $-1 $448 1 $448 0 $252 $-1 forward 7 unknown #
vertex $-1 $253 $449 #
ellipse-curve $-1 61.676212397594377 -12.98271433107184 11.981979238395637 0.57357644374324357 0 0.81915203911291934 0.81915203911291934 0 -0.57357644374324357 1 I I #
point $-1 63.905122805593855 -12.98271433107184 13.421746360496019 #
edge $-1 $450 1 $450 0 $256 $-1 forward 7 unknown #
vertex $-1 $257 $451 #
ellipse-curve $-1 61.676212397594377 -8.9278513844802205 11.981979238395637 0.57357644374324357 0 0.81915203911291934 0.81915203911291934 0 -0.57357644374324357 1 I I #
point $-1 63.905122805593855 -8.9278513844802205 13.421746360496019 #
edge $-1 $452 1 $452 0 $260 $-1 forward 7 unknown #
vertex $-1 $261 $453 #
ellipse-curve $-1 61.676212397594377 -4.8729884378886013 11.981979238395637 0.57357644374324357 0 0.81915203911291934 0.81915203911291934 0 -0.57357644374324357 1 I I #
point $-1 63.905122805593855 -4.8729884378886013 13.421746360496019 #
plane-surface $-1 0 0 17.280680222755372 0 0 1 1 0 0 forward_v I I I I #
coedge $-1 $386 $385 $378 $454 forward $265 $-1 #
coedge $-1 $378 $267 $269 $382 reversed $172 $-1 #
coedge $-1 $267 $377 $376 $454 reversed $172 $-1 #
coedge $-1 $275 $270 $267 $380 forward $276 $-1 #
edge $-1 $383 41.14963031266727 $455 50.533583429810648 $379 $456 forward 7 unknown #
coedge $-1 $269 $268 $386 $457 reversed $108 $-1 #
edge $-1 $458 -135.5558946501053 $383 -124.10020307018138 $377 $459 forward 7 unknown #
vertex $-1 $271 $460 #
straight-curve $-1 58.393994207909287 4.4639256922401067 17.280680222755379 0 -1 0 I I #
coedge $-1 $376 $272 $275 $390 reversed $265 $-1 #
coedge $-1 $272 $376 $381 $457 forward $265 $-1 #
vertex $-1 $273 $461 #
straight-curve $-1 67.777947325052651 15.685956295466246 99.7512604419871 0 0 1 I I #
straight-curve $-1 -43.262940191357174 15.685956295466246 88.461633367564374 0.81915203911291934 0 -0.57357644374324357 I I #
edge $-1 $455 2.1697464734941807 $277 15.685956295466246 $385 $462 forward 7 unknown #
point $-1 67.777947325052651 15.685956295466246 17.280680222755372 #
point $-1 58.393994207909273 15.685956295466246 17.280680222755379 #
edge $-1 $463 1 $463 0 $280 $-1 forward 7 unknown #
vertex $-1 $281 $464 #
ellipse-curve $-1 61.676212397594377 4.8729884378885941 11.981979238395637 0.57357644374324357 0 0.81915203911291934 0.81915203911291934 0 -0.57357644374324357 1 I I #
point $-1 63.905122805593855 4.8729884378885941 13.421746360496019 #
edge $-1 $465 1 $465 0 $284 $-1 forward 7 unknown #
vertex $-1 $285 $466 #
ellipse-curve $-1 61.676212397594377 8.9278513844802134 11.981979238395637 0.57357644374324357 0 0.81915203911291934 0.81915203911291934 0 -0.57357644374324357 1 I I #
point $-1 63.905122805593855 8.9278513844802134 13.421746360496019 #
edge $-1 $467 1 $467 0 $288 $-1 forward 7 unknown #
vertex $-1 $289 $468 #
ellipse-curve $-1 61.676212397594377 12.982714331071833 11.981979238395637 0.57357644374324357 0 0.81915203911291934 0.81915203911291934 0 -0.57357644374324357 1 I I #
point $-1 63.905122805593855 12.982714331071833 13.421746360496019 #
plane-surface $-1 67.777947325052651 0 0 -1 0 0 0 0 1 forward_v I I I I #
coedge $-1 $297 $295 $299 $410 reversed $201 $-1 #
edge $-1 $310 -17.280680222755372 $412 17.280680222755372 $309 $469 forward 7 unknown #
vertex $-1 $410 $470 #
straight-curve $-1 -67.777947325052651 -45.188263040798148 0 0 0 -1 I I #
edge $-1 $408 -45.188263040798148 $412 45.188263040798148 $406 $471 forward 7 unknown #
straight-curve $-1 0 -45.188263040798148 -17.280680222755372 -1 0 0 I I #
vertex $-1 $302 $472 #
straight-curve $-1 0 45.188263040798148 -17.280680222755372 1 0 0 I I #
point $-1 67.777947325052651 45.188263040798148 -17.280680222755372 #
point $-1 67.777947325052651 -45.188263040798148 -17.280680222755372 #
straight-curve $-1 -67.777947325052651 0 17.280680222755372 0 -1 0 I I #
point $-1 -67.777947325052651 45.188263040798148 17.280680222755372 #
point $-1 -67.777947325052651 -45.188263040798148 17.280680222755372 #
straight-curve $-1 67.777947325052651 -45.188263040798148 0 0 0 -1 I I #
straight-curve $-1 67.777947325052651 45.188263040798148 0 0 0 -1 I I #
plane-surface $-1 0 45.188263040798148 0 0 -1 0 0 0 -1 forward_v I I I I #
coedge $-1 $432 $431 $325 $424 forward $320 $-1 #
straight-curve $-1 -47.367052270480443 -45.188263040798148 3.5831199563459464 0 0 1 I I #
edge $-1 $427 -45.188263040798148 $425 45.188263040798148 $422 $473 forward 7 unknown #
vertex $-1 $326 $474 #
straight-curve $-1 -28.786249898883273 -45.188263040798148 4.8658584598998562 1 0 0 I I #
vertex $-1 $328 $475 #
straight-curve $-1 -28.786249898883273 45.188263040798148 4.8658584598998562 -1 0 0 I I #
point $-1 -47.367052270480443 45.188263040798148 4.8658584598998562 #
point $-1 -47.367052270480443 -45.188263040798148 4.8658584598998562 #
coedge $-1 $422 $332 $335 $434 forward $320 $-1 #
coedge $-1 $332 $422 $339 $436 reversed $320 $-1 #
straight-curve $-1 -67.777947325052651 0 9.4666213654839293 0 1 0 I I #
edge $-1 $337 -9.4666213654839293 $427 -4.8658584598998562 $335 $476 forward 7 unknown #
point $-1 -67.777947325052651 45.188263040798148 9.4666213654839293 #
edge $-1 $340 -9.4666213654839293 $425 -4.8658584598998562 $432 $477 forward 7 unknown #
point $-1 -67.777947325052651 -45.188263040798148 9.4666213654839293 #
straight-curve $-1 -47.367052270480443 45.188263040798148 3.5831199563459464 0 0 -1 I I #
edge $-1 $440 82.470580219231721 $443 89.041295056263905 $346 $478 forward 7 unknown #
vertex $-1 $360 $479 #
straight-curve $-1 17.244363895242003 -15.685956295466253 17.280680222755365 1 0 0 I I #
edge $-1 $443 -11.222030603226143 $357 2.2941792187459225 $356 $480 forward 7 unknown #
vertex $-1 $442 $481 #
straight-curve $-1 -43.262940191357174 -15.685956295466253 88.461633367564374 -0.81915203911291934 0 0.57357644374324357 I I #
point $-1 58.393994207909273 -15.685956295466253 17.280680222755379 #
point $-1 67.777947325052651 -2.1697464734941878 10.709965385723194 #
straight-curve $-1 67.777947325052651 0 17.280680222755372 0 1 0 I I #
vertex $-1 $363 $482 #
point $-1 62.495364436707291 -12.98271433107184 11.408402794652394 #
vertex $-1 $367 $483 #
point $-1 62.495364436707291 -8.9278513844802205 11.408402794652394 #
vertex $-1 $371 $484 #
point $-1 62.495364436707291 -4.8729884378886013 11.408402794652394 #
edge $-1 $455 82.470580219231721 $458 89.041295056263905 $376 $485 forward 7 unknown #
vertex $-1 $390 $486 #
straight-curve $-1 17.244363895242003 2.1697464734941807 17.280680222755365 1 0 0 I I #
edge $-1 $458 -2.294179218745926 $387 11.222030603226139 $386 $487 forward 7 unknown #
vertex $-1 $457 $488 #
straight-curve $-1 -43.262940191357174 2.1697464734941807 88.461633367564374 -0.81915203911291934 0 0.57357644374324357 I I #
point $-1 58.393994207909273 2.1697464734941807 17.280680222755379 #
point $-1 67.777947325052651 15.685956295466246 10.709965385723194 #
straight-curve $-1 67.777947325052651 0 17.280680222755372 0 1 0 I I #
vertex $-1 $393 $489 #
point $-1 62.495364436707291 4.8729884378885941 11.408402794652394 #
vertex $-1 $397 $490 #
point $-1 62.495364436707291 8.9278513844802134 11.408402794652394 #
vertex $-1 $401 $491 #
point $-1 62.495364436707291 12.982714331071833 11.408402794652394 #
straight-curve $-1 -67.777947325052651 45.188263040798148 0 0 0 -1 I I #
point $-1 -67.777947325052651 -45.188263040798148 -17.280680222755372 #
straight-curve $-1 -67.777947325052651 0 -17.280680222755372 0 1 0 I I #
point $-1 -67.777947325052651 45.188263040798148 -17.280680222755372 #
straight-curve $-1 -67.777947325052651 0 4.8658584598998562 0 -1 0 I I #
point $-1 -67.777947325052651 -45.188263040798148 4.8658584598998562 #
point $-1 -67.777947325052651 45.188263040798148 4.8658584598998562 #
straight-curve $-1 -67.777947325052651 45.188263040798148 0 0 0 -1 I I #
straight-curve $-1 -67.777947325052651 -45.188263040798148 0 0 0 -1 I I #
straight-curve $-1 67.777947325052651 -15.685956295466253 99.7512604419871 0 0 -1 I I #
point $-1 67.777947325052651 -15.685956295466253 17.280680222755372 #
straight-curve $-1 67.777947325052665 -4.4639256922401103 10.709965385723194 0 1 0 I I #
point $-1 67.777947325052651 -15.685956295466253 10.709965385723194 #
point $-1 61.102635953851127 -12.98271433107184 11.162827199282718 #
point $-1 61.102635953851127 -8.9278513844802205 11.162827199282718 #
point $-1 61.102635953851127 -4.8729884378886013 11.162827199282718 #
straight-curve $-1 67.777947325052651 2.1697464734941807 99.7512604419871 0 0 -1 I I #
point $-1 67.777947325052651 2.1697464734941807 17.280680222755372 #
straight-curve $-1 67.777947325052665 4.4639256922401067 10.709965385723194 0 1 0 I I #
point $-1 67.777947325052651 2.1697464734941807 10.709965385723194 #
point $-1 61.102635953851127 4.8729884378885941 11.162827199282718 #
point $-1 61.102635953851127 8.9278513844802134 11.162827199282718 #
point $-1 61.102635953851127 12.982714331071833 11.162827199282718 #
End-of-ACIS-data 