500 0 10 0           
7 Unknown 11 ACIS 5.0 NT 24 Thu Mar 25 23:14:26 1999 
-1 9.9999999999999995e-007 1e-010 
body $-1 $10 $-1 $11 #
body $-1 $12 $-1 $13 #
body $-1 $14 $-1 $15 #
body $-1 $16 $-1 $17 #
body $-1 $18 $-1 $19 #
body $-1 $20 $-1 $21 #
body $-1 $22 $-1 $23 #
body $-1 $24 $-1 $25 #
body $-1 $26 $-1 $27 #
body $-1 $28 $-1 $29 #
lump $-1 $-1 $30 $0 #
transform $-1 1 0 0 0 1 0 0 0 1 67.509384441663869 33.458423124402259 14.624721982459528 1 rotate no_reflect no_shear #
lump $-1 $-1 $31 $1 #
transform $-1 1 0 0 0 1 0 0 0 1 67.509384441663869 33.458423124402259 14.624721982459528 1 rotate no_reflect no_shear #
lump $-1 $-1 $32 $2 #
transform $-1 1 0 0 0 1 0 0 0 1 67.509384441663869 33.458423124402259 14.624721982459528 1 rotate no_reflect no_shear #
lump $-1 $-1 $33 $3 #
transform $-1 1 0 0 0 1 0 0 0 1 67.509384441663869 33.458423124402259 14.624721982459528 1 rotate no_reflect no_shear #
lump $-1 $-1 $34 $4 #
transform $-1 1 0 0 0 1 0 0 0 1 67.509384441663869 33.458423124402259 14.624721982459528 1 rotate no_reflect no_shear #
lump $-1 $-1 $35 $5 #
transform $-1 1 0 0 0 1 0 0 0 1 67.509384441663869 33.458423124402259 14.624721982459528 1 rotate no_reflect no_shear #
lump $-1 $-1 $36 $6 #
transform $-1 1 0 0 0 1 0 0 0 1 67.509384441663869 33.458423124402259 14.624721982459528 1 rotate no_reflect no_shear #
lump $-1 $-1 $37 $7 #
transform $-1 1 0 0 0 1 0 0 0 1 67.509384441663869 33.458423124402259 14.624721982459528 1 rotate no_reflect no_shear #
lump $-1 $-1 $38 $8 #
transform $-1 1 0 0 0 1 0 0 0 1 67.509384441663869 33.458423124402259 14.624721982459528 1 rotate no_reflect no_shear #
lump $-1 $-1 $39 $9 #
transform $-1 1 0 0 0 1 0 0 0 1 67.509384441663869 33.458423124402259 14.624721982459528 1 rotate no_reflect no_shear #
shell $-1 $-1 $-1 $40 $-1 $10 #
shell $-1 $-1 $-1 $41 $-1 $12 #
shell $-1 $-1 $-1 $42 $-1 $14 #
shell $-1 $-1 $-1 $43 $-1 $16 #
shell $-1 $-1 $-1 $44 $-1 $18 #
shell $-1 $-1 $-1 $45 $-1 $20 #
shell $-1 $-1 $-1 $46 $-1 $22 #
shell $-1 $-1 $-1 $47 $-1 $24 #
shell $-1 $-1 $-1 $48 $-1 $26 #
shell $-1 $-1 $-1 $49 $-1 $28 #
face $-1 $50 $51 $30 $-1 $52 forward single #
face $-1 $53 $54 $31 $-1 $55 reversed single #
face $-1 $56 $57 $32 $-1 $58 reversed single #
face $-1 $59 $60 $33 $-1 $61 forward single #
face $-1 $62 $63 $34 $-1 $64 forward single #
face $-1 $65 $66 $35 $-1 $67 forward single #
face $-1 $68 $69 $36 $-1 $70 reversed single #
face $-1 $71 $72 $37 $-1 $73 forward single #
face $-1 $74 $75 $38 $-1 $76 forward single #
face $-1 $77 $78 $39 $-1 $79 forward single #
face $-1 $80 $81 $30 $-1 $82 reversed single #
loop $-1 $-1 $83 $40 #
plane-surface $-1 0 0 14.624721982459528 0 0 1 1 0 0 forward_v I I I I #
face $-1 $84 $85 $31 $-1 $86 reversed single #
loop $-1 $-1 $87 $41 #
plane-surface $-1 -58.370069099029919 -9.8968520804118096 0 0 1 0 0 0 1 forward_v I I I I #
face $-1 $88 $89 $32 $-1 $90 reversed single #
loop $-1 $-1 $91 $42 #
plane-surface $-1 9.1393153426339637 -136.88880186309308 88.681438766985693 -1 0 0 0 -0.7660444514056185 0.64278759981090561 forward_v I I I I #
face $-1 $92 $93 $33 $-1 $94 forward single #
loop $-1 $95 $96 $43 #
cone-surface $-1 -12.442593295923835 -26.793720396832793 7.1486460112286672 0 0.7660444514056185 -0.64278759981090561 2 0 0 1 I I 0 1 2 forward I I I I #
face $-1 $97 $98 $34 $-1 $99 forward single #
loop $-1 $100 $101 $44 #
cone-surface $-1 -4.3493775564646597 -26.793720396832793 7.1486460112286672 0 0.7660444514056185 -0.64278759981090561 2 0 0 1 I I 0 1 2 forward I I I I #
face $-1 $102 $103 $35 $-1 $104 forward single #
loop $-1 $105 $106 $45 #
cone-surface $-1 3.7438381829945087 -26.793720396832793 7.1486460112286672 0 0.7660444514056185 -0.64278759981090561 2 0 0 1 I I 0 1 2 forward I I I I #
face $-1 $107 $108 $36 $-1 $109 reversed single #
loop $-1 $-1 $110 $46 #
plane-surface $-1 54.02069154256526 -33.458423124402287 1.8930483870480685 0 -0.7660444514056185 0.64278759981090561 1 0 0 forward_v I I I I #
face $-1 $111 $112 $37 $-1 $113 forward single #
loop $-1 $114 $115 $47 #
cone-surface $-1 45.927475803106077 -26.793720396832793 7.1486460112286672 0 0.7660444514056185 -0.64278759981090561 2 0 0 1 I I 0 1 2 forward I I I I #
face $-1 $116 $117 $38 $-1 $118 forward single #
loop $-1 $119 $120 $48 #
cone-surface $-1 54.02069154256526 -26.793720396832793 7.1486460112286672 0 0.7660444514056185 -0.64278759981090561 2 0 0 1 I I 0 1 2 forward I I I I #
face $-1 $121 $122 $39 $-1 $123 forward single #
loop $-1 $124 $125 $49 #
cone-surface $-1 62.113907282024414 -26.793720396832793 7.1486460112286672 0 0.7660444514056185 -0.64278759981090561 2 0 0 1 I I 0 1 2 forward I I I I #
face $-1 $126 $127 $30 $-1 $128 reversed single #
loop $-1 $-1 $129 $50 #
plane-surface $-1 0 0 -14.624721982459528 0 0 1 1 0 0 forward_v I I I I #
coedge $-1 $130 $131 $132 $133 forward $51 $-1 #
face $-1 $134 $135 $31 $-1 $136 reversed single #
loop $-1 $-1 $137 $53 #
plane-surface $-1 -58.370069099029919 -4.2089791594832011 0 0 -1 0 0 0 -1 forward_v I I I I #
coedge $-1 $138 $139 $140 $141 reversed $54 $-1 #
face $-1 $142 $143 $32 $-1 $144 reversed single #
loop $-1 $-1 $145 $56 #
plane-surface $-1 -4.3493775564646597 -33.458423124402287 1.8930483870480685 0 -0.7660444514056185 0.64278759981090561 1 0 0 forward_v I I I I #
coedge $-1 $146 $147 $148 $149 reversed $57 $-1 #
face $-1 $-1 $150 $33 $-1 $151 forward single #
loop $-1 $152 $153 $59 #
cone-surface $-1 -12.442593295923835 -24.704544387098601 5.39561923789263 0 0.7660444514056185 -0.64278759981090561 1 0 0 1 I I -0.70710678118654746 0.70710678118654746 1 forward I I I I #
loop $-1 $-1 $154 $43 #
coedge $-1 $96 $96 $155 $156 reversed $60 $-1 #
face $-1 $-1 $157 $34 $-1 $158 forward single #
loop $-1 $159 $160 $62 #
cone-surface $-1 -4.3493775564646597 -24.704544387098601 5.39561923789263 0 0.7660444514056185 -0.64278759981090561 1 0 0 1 I I -0.70710678118654746 0.70710678118654746 1 forward I I I I #
loop $-1 $-1 $161 $44 #
coedge $-1 $101 $101 $162 $163 reversed $63 $-1 #
face $-1 $-1 $164 $35 $-1 $165 forward single #
loop $-1 $166 $167 $65 #
cone-surface $-1 3.7438381829945087 -24.704544387098601 5.39561923789263 0 0.7660444514056185 -0.64278759981090561 1 0 0 1 I I -0.70710678118654746 0.70710678118654746 1 forward I I I I #
loop $-1 $-1 $168 $45 #
coedge $-1 $106 $106 $169 $170 reversed $66 $-1 #
face $-1 $171 $172 $36 $-1 $173 reversed single #
loop $-1 $-1 $174 $68 #
plane-surface $-1 40.531998643466636 -136.88880186309308 88.681438766985693 1 0 0 0 0.7660444514056185 -0.64278759981090561 forward_v I I I I #
coedge $-1 $175 $176 $177 $178 reversed $69 $-1 #
face $-1 $-1 $179 $37 $-1 $180 forward single #
loop $-1 $181 $182 $71 #
cone-surface $-1 45.927475803106077 -24.704544387098601 5.39561923789263 0 0.7660444514056185 -0.64278759981090561 1 0 0 1 I I -0.70710678118654746 0.70710678118654746 1 forward I I I I #
loop $-1 $-1 $183 $47 #
coedge $-1 $115 $115 $184 $185 reversed $72 $-1 #
face $-1 $-1 $186 $38 $-1 $187 forward single #
loop $-1 $188 $189 $74 #
cone-surface $-1 54.02069154256526 -24.704544387098601 5.39561923789263 0 0.7660444514056185 -0.64278759981090561 1 0 0 1 I I -0.70710678118654746 0.70710678118654746 1 forward I I I I #
loop $-1 $-1 $190 $48 #
coedge $-1 $120 $120 $191 $192 reversed $75 $-1 #
face $-1 $-1 $193 $39 $-1 $194 forward single #
loop $-1 $195 $196 $77 #
cone-surface $-1 62.113907282024414 -24.704544387098601 5.39561923789263 0 0.7660444514056185 -0.64278759981090561 1 0 0 1 I I -0.70710678118654746 0.70710678118654746 1 forward I I I I #
loop $-1 $-1 $197 $49 #
coedge $-1 $125 $125 $198 $199 reversed $78 $-1 #
face $-1 $200 $201 $30 $-1 $202 reversed single #
loop $-1 $-1 $203 $80 #
plane-surface $-1 0 -33.458423124402259 0 0 1 0 0 0 1 forward_v I I I I #
coedge $-1 $204 $205 $206 $207 forward $81 $-1 #
coedge $-1 $208 $83 $209 $210 forward $51 $-1 #
coedge $-1 $83 $208 $211 $212 forward $51 $-1 #
coedge $-1 $213 $214 $83 $133 reversed $215 $-1 #
edge $-1 $216 -33.458423124402259 $217 33.458423124402259 $132 $218 forward 7 unknown #
face $-1 $219 $220 $31 $-1 $221 reversed single #
loop $-1 $-1 $222 $84 #
plane-surface $-1 -49.23075375639597 -7.0529156199475054 0 -1 0 0 0 0 1 forward_v I I I I #
coedge $-1 $223 $224 $225 $226 forward $85 $-1 #
coedge $-1 $227 $87 $228 $229 reversed $54 $-1 #
coedge $-1 $87 $227 $230 $231 reversed $54 $-1 #
coedge $-1 $232 $233 $87 $141 forward $234 $-1 #
edge $-1 $235 -14.624721982459528 $236 14.624721982459528 $140 $237 forward 7 unknown #
face $-1 $238 $239 $32 $-1 $240 reversed single #
loop $-1 $-1 $241 $88 #
plane-surface $-1 -17.838070455563283 -136.88880186309308 88.681438766985693 1 0 0 0 0.7660444514056185 -0.64278759981090561 forward_v I I I I #
coedge $-1 $242 $243 $244 $245 reversed $89 $-1 #
coedge $-1 $147 $91 $246 $247 reversed $57 $-1 #
coedge $-1 $91 $146 $242 $248 reversed $57 $-1 #
coedge $-1 $244 $249 $91 $149 forward $250 $-1 #
edge $-1 $251 34.98597780714428 $252 45.669120145626039 $148 $253 forward 7 unknown #
loop $-1 $-1 $155 $92 #
plane-surface $-1 -4.3493775564646597 -33.458423124402287 1.8930483870480685 0 -0.7660444514056185 0.64278759981090561 1 0 0 forward_v I I I I #
loop $-1 $-1 $254 $59 #
coedge $-1 $153 $153 $154 $255 reversed $93 $-1 #
coedge $-1 $154 $154 $153 $255 forward $95 $-1 #
coedge $-1 $155 $155 $96 $156 forward $150 $-1 #
edge $-1 $256 2.6602754387293283e-016 $256 6.2831853071796004 $155 $257 forward 7 unknown #
loop $-1 $-1 $162 $97 #
plane-surface $-1 -4.3493775564646597 -33.458423124402287 1.8930483870480685 0 -0.7660444514056185 0.64278759981090561 1 0 0 forward_v I I I I #
loop $-1 $-1 $258 $62 #
coedge $-1 $160 $160 $161 $259 reversed $98 $-1 #
coedge $-1 $161 $161 $160 $259 forward $100 $-1 #
coedge $-1 $162 $162 $101 $163 forward $157 $-1 #
edge $-1 $260 2.6602754387293283e-016 $260 6.2831853071796004 $162 $261 forward 7 unknown #
loop $-1 $-1 $169 $102 #
plane-surface $-1 -4.3493775564646597 -33.458423124402287 1.8930483870480685 0 -0.7660444514056185 0.64278759981090561 1 0 0 forward_v I I I I #
loop $-1 $-1 $262 $65 #
coedge $-1 $167 $167 $168 $263 reversed $103 $-1 #
coedge $-1 $168 $168 $167 $263 forward $105 $-1 #
coedge $-1 $169 $169 $106 $170 forward $164 $-1 #
edge $-1 $264 2.6602754387293283e-016 $264 6.2831853071796004 $169 $265 forward 7 unknown #
face $-1 $266 $267 $36 $-1 $268 forward single #
loop $-1 $-1 $269 $107 #
plane-surface $-1 0 -33.458423124402259 0 0 1 0 0 0 1 forward_v I I I I #
coedge $-1 $270 $271 $272 $273 reversed $108 $-1 #
coedge $-1 $274 $110 $275 $276 reversed $69 $-1 #
coedge $-1 $110 $274 $270 $277 forward $69 $-1 #
coedge $-1 $272 $278 $110 $178 forward $267 $-1 #
edge $-1 $279 -40.499038670381253 $280 -13.521652872184006 $177 $281 forward 7 unknown #
loop $-1 $-1 $184 $111 #
plane-surface $-1 54.02069154256526 -33.458423124402287 1.8930483870480685 0 -0.7660444514056185 0.64278759981090561 1 0 0 forward_v I I I I #
loop $-1 $-1 $282 $71 #
coedge $-1 $182 $182 $183 $283 reversed $112 $-1 #
coedge $-1 $183 $183 $182 $283 forward $114 $-1 #
coedge $-1 $184 $184 $115 $185 forward $179 $-1 #
edge $-1 $284 2.6602754387293283e-016 $284 6.2831853071796004 $184 $285 forward 7 unknown #
loop $-1 $-1 $191 $116 #
plane-surface $-1 54.02069154256526 -33.458423124402287 1.8930483870480685 0 -0.7660444514056185 0.64278759981090561 1 0 0 forward_v I I I I #
loop $-1 $-1 $286 $74 #
coedge $-1 $189 $189 $190 $287 reversed $117 $-1 #
coedge $-1 $190 $190 $189 $287 forward $119 $-1 #
coedge $-1 $191 $191 $120 $192 forward $186 $-1 #
edge $-1 $288 2.6602754387293283e-016 $288 6.2831853071796004 $191 $289 forward 7 unknown #
loop $-1 $-1 $198 $121 #
plane-surface $-1 54.02069154256526 -33.458423124402287 1.8930483870480685 0 -0.7660444514056185 0.64278759981090561 1 0 0 forward_v I I I I #
loop $-1 $-1 $290 $77 #
coedge $-1 $196 $196 $197 $291 reversed $122 $-1 #
coedge $-1 $197 $197 $196 $291 forward $124 $-1 #
coedge $-1 $198 $198 $125 $199 forward $193 $-1 #
edge $-1 $292 2.6602754387293283e-016 $292 6.2831853071796004 $198 $293 forward 7 unknown #
face $-1 $294 $295 $30 $-1 $296 reversed single #
loop $-1 $-1 $297 $126 #
plane-surface $-1 -67.509384441663869 0 0 1 0 0 0 0 -1 forward_v I I I I #
coedge $-1 $298 $211 $299 $300 forward $127 $-1 #
coedge $-1 $301 $129 $298 $302 forward $81 $-1 #
coedge $-1 $129 $301 $303 $304 forward $81 $-1 #
coedge $-1 $214 $213 $129 $207 reversed $215 $-1 #
edge $-1 $305 -33.458423124402259 $306 33.458423124402259 $206 $307 forward 7 unknown #
coedge $-1 $131 $130 $308 $309 forward $51 $-1 #
coedge $-1 $310 $311 $130 $210 reversed $295 $-1 #
edge $-1 $217 -67.509384441663869 $312 67.509384441663869 $209 $313 forward 7 unknown #
coedge $-1 $203 $314 $131 $212 reversed $127 $-1 #
edge $-1 $315 -67.509384441663869 $216 67.509384441663869 $211 $316 forward 7 unknown #
coedge $-1 $206 $132 $314 $317 forward $215 $-1 #
coedge $-1 $132 $206 $310 $318 reversed $215 $-1 #
loop $-1 $-1 $213 $294 #
vertex $-1 $133 $319 #
vertex $-1 $133 $320 #
straight-curve $-1 67.509384441663869 0 14.624721982459528 0 1 0 I I #
face $-1 $321 $322 $31 $-1 $323 forward single #
loop $-1 $-1 $324 $134 #
plane-surface $-1 0 0 -14.624721982459528 0 0 1 1 0 0 forward_v I I I I #
coedge $-1 $325 $326 $227 $327 forward $135 $-1 #
coedge $-1 $328 $137 $324 $329 reversed $85 $-1 #
coedge $-1 $137 $328 $330 $331 reversed $85 $-1 #
coedge $-1 $326 $325 $137 $226 reversed $135 $-1 #
edge $-1 $332 -14.624721982459528 $333 14.624721982459528 $225 $334 forward 7 unknown #
coedge $-1 $139 $138 $222 $327 reversed $54 $-1 #
coedge $-1 $335 $336 $138 $229 forward $220 $-1 #
edge $-1 $337 20.04571920688101 $235 38.324349892148909 $228 $338 forward 7 unknown #
coedge $-1 $339 $340 $139 $231 forward $322 $-1 #
edge $-1 $236 -38.324349892148909 $341 -20.04571920688101 $230 $342 forward 7 unknown #
coedge $-1 $343 $140 $340 $344 reversed $234 $-1 #
coedge $-1 $140 $343 $335 $345 reversed $234 $-1 #
loop $-1 $-1 $343 $321 #
vertex $-1 $345 $346 #
vertex $-1 $141 $347 #
straight-curve $-1 -67.509384441663869 -9.8968520804118096 0 0 0 1 I I #
face $-1 $-1 $250 $32 $-1 $348 forward single #
loop $-1 $-1 $349 $142 #
plane-surface $-1 0 -33.458423124402259 0 0 1 0 0 0 1 forward_v I I I I #
coedge $-1 $350 $351 $352 $353 reversed $143 $-1 #
coedge $-1 $354 $145 $147 $248 forward $89 $-1 #
coedge $-1 $145 $354 $350 $355 forward $89 $-1 #
coedge $-1 $352 $148 $145 $245 forward $250 $-1 #
edge $-1 $252 -11.314004120866294 $356 15.663381677330953 $244 $357 forward 7 unknown #
coedge $-1 $358 $359 $146 $247 forward $239 $-1 #
edge $-1 $360 -42.447670996444742 $251 -29.71599740103332 $246 $361 forward 7 unknown #
edge $-1 $252 -16.620019337063351 $360 -4.4293816135100439e-014 $147 $362 forward 7 unknown #
coedge $-1 $148 $352 $358 $363 forward $250 $-1 #
loop $-1 $-1 $352 $238 #
vertex $-1 $247 $364 #
vertex $-1 $149 $365 #
straight-curve $-1 9.1393153426339637 -68.444400931546539 14.624721982459526 0 1 0 I I #
coedge $-1 $254 $254 $-1 $366 reversed $152 $-1 #
edge $-1 $367 0 $367 6.2831853071796004 $153 $368 forward 7 unknown #
vertex $-1 $156 $369 #
ellipse-curve $-1 -12.442593295923835 -28.116851955161383 8.2588851847538134 0 -0.7660444514056185 0.64278759981090561 2 0 0 1 I I #
coedge $-1 $258 $258 $-1 $370 reversed $159 $-1 #
edge $-1 $371 0 $371 6.2831853071796004 $160 $372 forward 7 unknown #
vertex $-1 $163 $373 #
ellipse-curve $-1 -4.3493775564646597 -28.116851955161383 8.2588851847538134 0 -0.7660444514056185 0.64278759981090561 2 0 0 1 I I #
coedge $-1 $262 $262 $-1 $374 reversed $166 $-1 #
edge $-1 $375 0 $375 6.2831853071796004 $167 $376 forward 7 unknown #
vertex $-1 $170 $377 #
ellipse-curve $-1 3.7438381829945087 -28.116851955161383 8.2588851847538134 0 -0.7660444514056185 0.64278759981090561 2 0 0 1 I I #
face $-1 $-1 $378 $36 $-1 $379 reversed single #
loop $-1 $-1 $272 $171 #
plane-surface $-1 0 0 14.624721982459528 0 0 1 1 0 0 forward_v I I I I #
coedge $-1 $380 $381 $271 $382 forward $172 $-1 #
coedge $-1 $271 $174 $176 $277 reversed $108 $-1 #
coedge $-1 $174 $270 $269 $382 reversed $108 $-1 #
coedge $-1 $383 $177 $174 $273 forward $267 $-1 #
edge $-1 $280 -45.669120145626039 $384 -34.98597780714428 $272 $385 forward 7 unknown #
coedge $-1 $176 $175 $380 $386 reversed $69 $-1 #
coedge $-1 $387 $388 $175 $276 forward $378 $-1 #
edge $-1 $389 -10.028250140225817 $279 6.5917691968374843 $275 $390 forward 7 unknown #
edge $-1 $391 4.4293816135100439e-014 $280 16.620019337063351 $270 $392 forward 7 unknown #
coedge $-1 $177 $383 $387 $393 forward $267 $-1 #
vertex $-1 $276 $394 #
vertex $-1 $178 $395 #
straight-curve $-1 27.01034577128263 -22.775280785920504 14.624721982459528 -1 0 0 I I #
coedge $-1 $282 $282 $-1 $396 reversed $181 $-1 #
edge $-1 $397 0 $397 6.2831853071796004 $182 $398 forward 7 unknown #
vertex $-1 $185 $399 #
ellipse-curve $-1 45.927475803106077 -28.116851955161383 8.2588851847538134 0 -0.7660444514056185 0.64278759981090561 2 0 0 1 I I #
coedge $-1 $286 $286 $-1 $400 reversed $188 $-1 #
edge $-1 $401 0 $401 6.2831853071796004 $189 $402 forward 7 unknown #
vertex $-1 $192 $403 #
ellipse-curve $-1 54.02069154256526 -28.116851955161383 8.2588851847538134 0 -0.7660444514056185 0.64278759981090561 2 0 0 1 I I #
coedge $-1 $290 $290 $-1 $404 reversed $195 $-1 #
edge $-1 $405 0 $405 6.2831853071796004 $196 $406 forward 7 unknown #
vertex $-1 $199 $407 #
ellipse-curve $-1 62.113907282024414 -28.116851955161383 8.2588851847538134 0 -0.7660444514056185 0.64278759981090561 2 0 0 1 I I #
face $-1 $-1 $215 $30 $-1 $408 reversed single #
loop $-1 $-1 $310 $200 #
plane-surface $-1 0 33.458423124402259 0 0 -1 0 0 0 -1 forward_v I I I I #
coedge $-1 $409 $308 $311 $410 forward $201 $-1 #
coedge $-1 $314 $203 $204 $302 reversed $127 $-1 #
coedge $-1 $308 $409 $203 $300 reversed $201 $-1 #
edge $-1 $315 -14.624721982459528 $411 14.624721982459528 $299 $412 forward 7 unknown #
coedge $-1 $205 $204 $409 $413 forward $81 $-1 #
edge $-1 $306 -67.509384441663869 $411 67.509384441663869 $298 $414 forward 7 unknown #
coedge $-1 $311 $310 $205 $304 reversed $295 $-1 #
edge $-1 $415 -67.509384441663869 $305 67.509384441663869 $303 $416 forward 7 unknown #
vertex $-1 $207 $417 #
vertex $-1 $317 $418 #
straight-curve $-1 67.509384441663869 0 -14.624721982459528 0 -1 0 I I #
coedge $-1 $297 $299 $208 $309 reversed $201 $-1 #
edge $-1 $312 -33.458423124402259 $315 33.458423124402259 $308 $419 forward 7 unknown #
coedge $-1 $303 $209 $214 $318 forward $295 $-1 #
coedge $-1 $209 $303 $297 $410 reversed $295 $-1 #
vertex $-1 $210 $420 #
straight-curve $-1 0 33.458423124402259 14.624721982459528 -1 0 0 I I #
coedge $-1 $211 $298 $213 $317 reversed $127 $-1 #
vertex $-1 $309 $421 #
straight-curve $-1 0 -33.458423124402259 14.624721982459528 1 0 0 I I #
edge $-1 $216 -14.624721982459528 $306 14.624721982459528 $213 $422 forward 7 unknown #
edge $-1 $217 -14.624721982459528 $305 14.624721982459528 $214 $423 forward 7 unknown #
point $-1 67.509384441663869 -33.458423124402259 14.624721982459528 #
point $-1 67.509384441663869 33.458423124402259 14.624721982459528 #
face $-1 $-1 $234 $31 $-1 $424 reversed single #
loop $-1 $-1 $330 $219 #
plane-surface $-1 0 0 14.624721982459528 0 0 1 1 0 0 forward_v I I I I #
coedge $-1 $336 $335 $223 $329 forward $220 $-1 #
coedge $-1 $225 $222 $336 $425 reversed $135 $-1 #
coedge $-1 $222 $225 $339 $426 reversed $135 $-1 #
edge $-1 $341 -14.624721982459528 $337 14.624721982459528 $222 $427 forward 7 unknown #
coedge $-1 $224 $223 $343 $428 reversed $85 $-1 #
edge $-1 $429 -38.324349892148909 $333 -20.04571920688101 $324 $430 forward 7 unknown #
coedge $-1 $340 $339 $224 $331 forward $322 $-1 #
edge $-1 $332 20.04571920688101 $431 38.324349892148909 $330 $432 forward 7 unknown #
vertex $-1 $331 $433 #
vertex $-1 $329 $434 #
straight-curve $-1 -49.23075375639597 -4.2089791594832011 0 0 0 -1 I I #
coedge $-1 $324 $228 $233 $345 forward $220 $-1 #
coedge $-1 $228 $324 $325 $425 forward $220 $-1 #
vertex $-1 $229 $435 #
straight-curve $-1 -29.18503454951496 -9.8968520804118096 -14.624721982459528 -1 0 0 I I #
coedge $-1 $330 $230 $326 $426 forward $322 $-1 #
coedge $-1 $230 $330 $232 $344 forward $322 $-1 #
vertex $-1 $231 $436 #
straight-curve $-1 -29.18503454951496 -9.8968520804118096 14.624721982459528 1 0 0 I I #
coedge $-1 $233 $232 $328 $428 forward $234 $-1 #
edge $-1 $431 4.2089791594832011 $236 9.8968520804118096 $232 $437 forward 7 unknown #
edge $-1 $235 -9.8968520804118096 $429 -4.2089791594832011 $233 $438 forward 7 unknown #
point $-1 -67.509384441663869 -9.8968520804118096 -14.624721982459528 #
point $-1 -67.509384441663869 -9.8968520804118096 14.624721982459528 #
plane-surface $-1 0 0 14.624721982459528 0 0 1 1 0 0 forward_v I I I I #
coedge $-1 $359 $358 $351 $439 forward $239 $-1 #
coedge $-1 $351 $241 $243 $355 reversed $143 $-1 #
coedge $-1 $241 $350 $349 $439 reversed $143 $-1 #
coedge $-1 $249 $244 $241 $353 forward $250 $-1 #
edge $-1 $356 -45.669120145626039 $440 -34.98597780714428 $352 $441 forward 7 unknown #
coedge $-1 $243 $242 $359 $442 reversed $89 $-1 #
edge $-1 $443 4.4293816135100439e-014 $356 16.620019337063351 $350 $444 forward 7 unknown #
vertex $-1 $245 $445 #
straight-curve $-1 -2.1746887782323299 -22.775280785920504 14.624721982459528 -1 0 0 I I #
coedge $-1 $349 $246 $249 $363 reversed $239 $-1 #
coedge $-1 $246 $349 $354 $442 forward $239 $-1 #
vertex $-1 $247 $446 #
straight-curve $-1 9.1393153426339637 -33.458423124402259 44.340719383492846 0 0 1 I I #
straight-curve $-1 9.1393153426339637 -33.458423124402287 1.8930483870480685 0 -0.64278759981090561 -0.7660444514056185 I I #
edge $-1 $440 -17.838070455563283 $251 9.1393153426339637 $358 $447 forward 7 unknown #
point $-1 9.1393153426339637 -33.458423124402259 14.624721982459528 #
point $-1 9.1393153426339637 -22.775280785920501 14.624721982459528 #
edge $-1 $448 1 $448 0 $254 $-1 forward 7 unknown #
vertex $-1 $255 $449 #
ellipse-curve $-1 -12.442593295923835 -25.47058883850422 6.0384068377035351 0 -0.7660444514056185 0.64278759981090561 2 0 0 1 I I #
point $-1 -10.442593295923835 -28.116851955161366 8.2588851847537992 #
edge $-1 $450 1 $450 0 $258 $-1 forward 7 unknown #
vertex $-1 $259 $451 #
ellipse-curve $-1 -4.3493775564646597 -25.47058883850422 6.0384068377035351 0 -0.7660444514056185 0.64278759981090561 2 0 0 1 I I #
point $-1 -2.3493775564646597 -28.116851955161366 8.2588851847537992 #
edge $-1 $452 1 $452 0 $262 $-1 forward 7 unknown #
vertex $-1 $263 $453 #
ellipse-curve $-1 3.7438381829945087 -25.47058883850422 6.0384068377035351 0 -0.7660444514056185 0.64278759981090561 2 0 0 1 I I #
point $-1 5.7438381829945087 -28.116851955161366 8.2588851847537992 #
loop $-1 $-1 $275 $266 #
plane-surface $-1 67.509384441663869 0 0 -1 0 0 0 0 1 forward_v I I I I #
coedge $-1 $454 $269 $274 $386 forward $172 $-1 #
coedge $-1 $269 $454 $383 $455 reversed $172 $-1 #
edge $-1 $384 29.71599740103332 $391 42.447670996444742 $269 $456 forward 7 unknown #
coedge $-1 $278 $272 $381 $455 forward $267 $-1 #
vertex $-1 $455 $457 #
straight-curve $-1 40.531998643466636 -68.444400931546539 14.624721982459526 0 -1 0 I I #
edge $-1 $391 13.521652872184006 $389 40.499038670381253 $380 $458 forward 7 unknown #
coedge $-1 $388 $275 $278 $393 reversed $378 $-1 #
coedge $-1 $275 $387 $454 $459 forward $378 $-1 #
vertex $-1 $386 $460 #
straight-curve $-1 67.509384441663869 -27.012388286463128 9.5751337642757033 0 0.64278759981090572 0.76604445140561861 I I #
vertex $-1 $386 $461 #
straight-curve $-1 40.531998643466636 -33.458423124402287 1.8930483870480685 0 0.64278759981090561 0.7660444514056185 I I #
edge $-1 $462 -33.458423124402259 $279 -22.775280785920501 $387 $463 forward 7 unknown #
point $-1 67.509384441663883 -22.775280785920501 14.624721982459528 #
point $-1 40.531998643466636 -22.775280785920501 14.624721982459528 #
edge $-1 $464 1 $464 0 $282 $-1 forward 7 unknown #
vertex $-1 $283 $465 #
ellipse-curve $-1 45.927475803106077 -25.47058883850422 6.0384068377035351 0 -0.7660444514056185 0.64278759981090561 2 0 0 1 I I #
point $-1 47.927475803106077 -28.116851955161366 8.2588851847537992 #
edge $-1 $466 1 $466 0 $286 $-1 forward 7 unknown #
vertex $-1 $287 $467 #
ellipse-curve $-1 54.02069154256526 -25.47058883850422 6.0384068377035351 0 -0.7660444514056185 0.64278759981090561 2 0 0 1 I I #
point $-1 56.02069154256526 -28.116851955161366 8.2588851847537992 #
edge $-1 $468 1 $468 0 $290 $-1 forward 7 unknown #
vertex $-1 $291 $469 #
ellipse-curve $-1 62.113907282024414 -25.47058883850422 6.0384068377035351 0 -0.7660444514056185 0.64278759981090561 2 0 0 1 I I #
point $-1 64.113907282024414 -28.116851955161366 8.2588851847537992 #
plane-surface $-1 67.509384441663869 0 0 -1 0 0 0 0 1 forward_v I I I I #
coedge $-1 $299 $297 $301 $413 reversed $201 $-1 #
edge $-1 $312 -14.624721982459528 $415 14.624721982459528 $311 $470 forward 7 unknown #
vertex $-1 $413 $471 #
straight-curve $-1 -67.509384441663869 -33.458423124402259 0 0 0 -1 I I #
edge $-1 $411 -33.458423124402259 $415 33.458423124402259 $409 $472 forward 7 unknown #
straight-curve $-1 0 -33.458423124402259 -14.624721982459528 -1 0 0 I I #
vertex $-1 $304 $473 #
straight-curve $-1 0 33.458423124402259 -14.624721982459528 1 0 0 I I #
point $-1 67.509384441663869 33.458423124402259 -14.624721982459528 #
point $-1 67.509384441663869 -33.458423124402259 -14.624721982459528 #
straight-curve $-1 -67.509384441663869 0 14.624721982459528 0 -1 0 I I #
point $-1 -67.509384441663869 33.458423124402259 14.624721982459528 #
point $-1 -67.509384441663869 -33.458423124402259 14.624721982459528 #
straight-curve $-1 67.509384441663869 -33.458423124402259 0 0 0 -1 I I #
straight-curve $-1 67.509384441663869 33.458423124402259 0 0 0 -1 I I #
plane-surface $-1 -67.509384441663869 0 0 1 0 0 0 0 -1 forward_v I I I I #
edge $-1 $333 0.68252134950944843 $337 6.3703942704380569 $336 $474 forward 7 unknown #
edge $-1 $341 -6.3703942704380569 $332 -0.68252134950944843 $339 $475 forward 7 unknown #
straight-curve $-1 -49.23075375639597 -9.8968520804118096 0 0 0 -1 I I #
edge $-1 $431 -14.624721982459528 $429 14.624721982459528 $343 $476 forward 7 unknown #
vertex $-1 $428 $477 #
straight-curve $-1 -29.18503454951496 -4.2089791594832011 -14.624721982459528 1 0 0 I I #
vertex $-1 $344 $478 #
straight-curve $-1 -29.18503454951496 -4.2089791594832011 14.624721982459528 -1 0 0 I I #
point $-1 -49.23075375639597 -4.2089791594832011 14.624721982459528 #
point $-1 -49.23075375639597 -4.2089791594832011 -14.624721982459528 #
point $-1 -49.23075375639597 -9.8968520804118096 -14.624721982459528 #
point $-1 -49.23075375639597 -9.8968520804118096 14.624721982459528 #
straight-curve $-1 -67.509384441663869 0 14.624721982459528 0 -1 0 I I #
straight-curve $-1 -67.509384441663869 0 -14.624721982459528 0 1 0 I I #
edge $-1 $440 29.71599740103332 $443 42.447670996444742 $349 $479 forward 7 unknown #
vertex $-1 $363 $480 #
straight-curve $-1 -17.838070455563283 -68.444400931546539 14.624721982459526 0 -1 0 I I #
edge $-1 $443 -15.663381677330953 $360 11.314004120866294 $359 $481 forward 7 unknown #
vertex $-1 $442 $482 #
straight-curve $-1 -17.838070455563283 -33.458423124402287 1.8930483870480685 0 0.64278759981090561 0.7660444514056185 I I #
point $-1 -17.838070455563283 -22.775280785920501 14.624721982459528 #
point $-1 9.1393153426339637 -33.458423124402259 1.8930483870481025 #
straight-curve $-1 0 -33.458423124402259 14.624721982459528 1 0 0 I I #
vertex $-1 $366 $483 #
point $-1 -10.442593295923835 -25.47058883850422 6.0384068377035351 #
vertex $-1 $370 $484 #
point $-1 -2.3493775564646597 -25.47058883850422 6.0384068377035351 #
vertex $-1 $374 $485 #
point $-1 5.7438381829945087 -25.47058883850422 6.0384068377035351 #
coedge $-1 $381 $380 $388 $459 reversed $172 $-1 #
edge $-1 $384 40.531998643466636 $462 67.509384441663869 $381 $486 forward 7 unknown #
straight-curve $-1 40.531998643466636 -33.458423124402259 44.340719383492846 0 0 -1 I I #
point $-1 40.531998643466636 -33.458423124402259 14.624721982459528 #
straight-curve $-1 27.01034577128263 -33.458423124402259 1.893048387048101 1 0 0 I I #
edge $-1 $462 -14.624721982459528 $389 -1.8930483870481025 $388 $487 forward 7 unknown #
point $-1 67.509384441663883 -33.458423124402259 1.8930483870481025 #
point $-1 40.531998643466636 -33.458423124402259 1.8930483870481025 #
vertex $-1 $393 $488 #
straight-curve $-1 67.509384441663869 0 14.624721982459528 0 1 0 I I #
vertex $-1 $396 $489 #
point $-1 47.927475803106077 -25.47058883850422 6.0384068377035351 #
vertex $-1 $400 $490 #
point $-1 56.02069154256526 -25.47058883850422 6.0384068377035351 #
vertex $-1 $404 $491 #
point $-1 64.113907282024414 -25.47058883850422 6.0384068377035351 #
straight-curve $-1 -67.509384441663869 33.458423124402259 0 0 0 -1 I I #
point $-1 -67.509384441663869 -33.458423124402259 -14.624721982459528 #
straight-curve $-1 -67.509384441663869 0 -14.624721982459528 0 1 0 I I #
point $-1 -67.509384441663869 33.458423124402259 -14.624721982459528 #
straight-curve $-1 -49.23075375639597 -3.5264578099737527 -14.624721982459528 0 -1 0 I I #
straight-curve $-1 -49.23075375639597 -3.5264578099737527 14.624721982459528 0 1 0 I I #
straight-curve $-1 -67.509384441663869 -4.2089791594832011 0 0 0 -1 I I #
point $-1 -67.509384441663869 -4.2089791594832011 -14.624721982459528 #
point $-1 -67.509384441663869 -4.2089791594832011 14.624721982459528 #
straight-curve $-1 -17.838070455563283 -33.458423124402259 44.340719383492846 0 0 -1 I I #
point $-1 -17.838070455563283 -33.458423124402259 14.624721982459528 #
straight-curve $-1 -2.1746887782323299 -33.458423124402259 1.893048387048101 1 0 0 I I #
point $-1 -17.838070455563283 -33.458423124402259 1.8930483870481025 #
point $-1 -12.442593295923835 -23.938499935692981 4.7528316380817248 #
point $-1 -4.3493775564646597 -23.938499935692981 4.7528316380817248 #
point $-1 3.7438381829945087 -23.938499935692981 4.7528316380817248 #
straight-curve $-1 0 -33.458423124402259 14.624721982459528 1 0 0 I I #
straight-curve $-1 67.509384441663869 -33.458423124402259 0 0 0 -1 I I #
point $-1 67.509384441663869 -33.458423124402259 14.624721982459528 #
point $-1 45.927475803106077 -23.938499935692981 4.7528316380817248 #
point $-1 54.02069154256526 -23.938499935692981 4.7528316380817248 #
point $-1 62.113907282024414 -23.938499935692981 4.7528316380817248 #
End-of-ACIS-data 