500 0 11 0           
7 Unknown 11 ACIS 5.0 NT 24 Thu Mar 25 22:53:46 1999 
-1 9.9999999999999995e-007 1e-010 
body $-1 $11 $-1 $12 #
body $-1 $13 $-1 $14 #
body $-1 $15 $-1 $16 #
body $-1 $17 $-1 $18 #
body $-1 $19 $-1 $20 #
body $-1 $21 $-1 $22 #
body $-1 $23 $-1 $24 #
body $-1 $25 $-1 $26 #
body $-1 $27 $-1 $28 #
body $-1 $29 $-1 $30 #
body $-1 $31 $-1 $32 #
lump $-1 $-1 $33 $0 #
transform $-1 1 0 0 0 1 0 0 0 1 62.542191839350565 30.089041431742004 14.447276154354689 1 rotate no_reflect no_shear #
lump $-1 $-1 $34 $1 #
transform $-1 1 0 0 0 1 0 0 0 1 62.542191839350565 30.089041431742004 14.447276154354689 1 rotate no_reflect no_shear #
lump $-1 $-1 $35 $2 #
transform $-1 1 0 0 0 1 0 0 0 1 62.542191839350565 30.089041431742004 14.447276154354689 1 rotate no_reflect no_shear #
lump $-1 $-1 $36 $3 #
transform $-1 1 0 0 0 1 0 0 0 1 62.542191839350565 30.089041431742004 14.447276154354689 1 rotate no_reflect no_shear #
lump $-1 $-1 $37 $4 #
transform $-1 1 0 0 0 1 0 0 0 1 62.542191839350565 30.089041431742004 14.447276154354689 1 rotate no_reflect no_shear #
lump $-1 $-1 $38 $5 #
transform $-1 1 0 0 0 1 0 0 0 1 62.542191839350565 30.089041431742004 14.447276154354689 1 rotate no_reflect no_shear #
lump $-1 $-1 $39 $6 #
transform $-1 1 0 0 0 1 0 0 0 1 62.542191839350565 30.089041431742004 14.447276154354689 1 rotate no_reflect no_shear #
lump $-1 $-1 $40 $7 #
transform $-1 1 0 0 0 1 0 0 0 1 62.542191839350565 30.089041431742004 14.447276154354689 1 rotate no_reflect no_shear #
lump $-1 $-1 $41 $8 #
transform $-1 1 0 0 0 1 0 0 0 1 62.542191839350565 30.089041431742004 14.447276154354689 1 rotate no_reflect no_shear #
lump $-1 $-1 $42 $9 #
transform $-1 1 0 0 0 1 0 0 0 1 62.542191839350565 30.089041431742004 14.447276154354689 1 rotate no_reflect no_shear #
lump $-1 $-1 $43 $10 #
transform $-1 1 0 0 0 1 0 0 0 1 62.542191839350565 30.089041431742004 14.447276154354689 1 rotate no_reflect no_shear #
shell $-1 $-1 $-1 $44 $-1 $11 #
shell $-1 $-1 $-1 $45 $-1 $13 #
shell $-1 $-1 $-1 $46 $-1 $15 #
shell $-1 $-1 $-1 $47 $-1 $17 #
shell $-1 $-1 $-1 $48 $-1 $19 #
shell $-1 $-1 $-1 $49 $-1 $21 #
shell $-1 $-1 $-1 $50 $-1 $23 #
shell $-1 $-1 $-1 $51 $-1 $25 #
shell $-1 $-1 $-1 $52 $-1 $27 #
shell $-1 $-1 $-1 $53 $-1 $29 #
shell $-1 $-1 $-1 $54 $-1 $31 #
face $-1 $55 $56 $33 $-1 $57 reversed single #
face $-1 $58 $59 $34 $-1 $60 forward single #
face $-1 $61 $62 $35 $-1 $63 reversed single #
face $-1 $64 $65 $36 $-1 $66 forward single #
face $-1 $67 $68 $37 $-1 $69 forward single #
face $-1 $70 $71 $38 $-1 $72 reversed single #
face $-1 $73 $74 $39 $-1 $75 forward single #
face $-1 $76 $77 $40 $-1 $78 forward single #
face $-1 $79 $80 $41 $-1 $81 reversed single #
face $-1 $82 $83 $42 $-1 $84 forward single #
face $-1 $85 $86 $43 $-1 $87 forward single #
face $-1 $88 $89 $33 $-1 $90 forward single #
loop $-1 $-1 $91 $44 #
plane-surface $-1 -62.542191839350565 0 0 1 0 0 0 0 -1 forward_v I I I I #
face $-1 $92 $93 $34 $-1 $94 reversed single #
loop $-1 $-1 $95 $45 #
plane-surface $-1 -62.542191839350565 0 0 1 0 0 0 0 -1 forward_v I I I I #
face $-1 $96 $97 $35 $-1 $98 reversed single #
loop $-1 $-1 $99 $46 #
plane-surface $-1 6.5208770984589961 -108.80719566013778 102.46100794194524 -1 0 0 0 -0.62932039886446345 0.77714595512881146 forward_v I I I I #
face $-1 $100 $101 $36 $-1 $102 forward single #
loop $-1 $103 $104 $47 #
cone-surface $-1 -10.263120423783896 -23.573831420103577 8.815239723786835 0 0.62932039886446345 -0.77714595512881146 2.5 0 0 1 I I 0 1 2.5 forward I I I I #
face $-1 $105 $106 $37 $-1 $107 forward single #
loop $-1 $108 $109 $48 #
cone-surface $-1 -0.19272191043816633 -23.573831420103577 8.815239723786835 0 0.62932039886446345 -0.77714595512881146 2.5 0 0 1 I I 0 1 2.5 forward I I I I #
face $-1 $110 $111 $38 $-1 $112 reversed single #
loop $-1 $-1 $113 $49 #
plane-surface $-1 30.018473629599022 -108.80719566013778 102.46100794194524 -1 0 0 0 -0.62932039886446345 0.77714595512881146 forward_v I I I I #
face $-1 $114 $115 $39 $-1 $116 forward single #
loop $-1 $117 $118 $50 #
cone-surface $-1 13.234476107356144 -23.573831420103577 8.815239723786835 0 0.62932039886446345 -0.77714595512881146 2.5 0 0 1 I I 0 1 2.5 forward I I I I #
face $-1 $119 $120 $40 $-1 $121 forward single #
loop $-1 $122 $123 $51 #
cone-surface $-1 23.304874620701867 -23.573831420103577 8.815239723786835 0 0.62932039886446345 -0.77714595512881146 2.5 0 0 1 I I 0 1 2.5 forward I I I I #
face $-1 $124 $125 $41 $-1 $126 reversed single #
loop $-1 $-1 $127 $52 #
plane-surface $-1 45.862143288214163 85.011051130955735 137.07436718300218 1 0 0 0 -0.75470958851134928 -0.65605901945558964 forward_v I I I I #
face $-1 $128 $129 $42 $-1 $130 forward single #
loop $-1 $131 $132 $53 #
cone-surface $-1 50.627871445681706 27.074929661096483 11.234302382032485 0 -0.75470958851134928 -0.65605901945558964 1 0 0 1 I I 0 1 1 forward I I I I #
face $-1 $133 $134 $43 $-1 $135 forward single #
loop $-1 $136 $137 $54 #
cone-surface $-1 57.776463681883016 27.074929661096483 11.234302382032485 0 -0.75470958851134928 -0.65605901945558964 1 0 0 1 I I 0 1 1 forward I I I I #
face $-1 $138 $139 $33 $-1 $140 reversed single #
loop $-1 $-1 $141 $55 #
plane-surface $-1 0 0 14.447276154354689 0 0 1 1 0 0 forward_v I I I I #
coedge $-1 $142 $143 $144 $145 reversed $56 $-1 #
face $-1 $146 $147 $34 $-1 $148 reversed single #
loop $-1 $-1 $149 $58 #
plane-surface $-1 0 0 -14.447276154354689 0 0 1 1 0 0 forward_v I I I I #
coedge $-1 $150 $151 $152 $153 forward $59 $-1 #
face $-1 $154 $155 $35 $-1 $156 reversed single #
loop $-1 $-1 $157 $61 #
plane-surface $-1 -5.2279211671110275 -30.08904143174199 5.252185116262325 0 -0.62932039886446345 0.77714595512881146 1 0 0 forward_v I I I I #
coedge $-1 $158 $159 $160 $161 reversed $62 $-1 #
face $-1 $-1 $162 $36 $-1 $163 forward single #
loop $-1 $164 $165 $64 #
cone-surface $-1 -10.263120423783896 -21.949466681663665 6.8093163683541391 0 0.62932039886446345 -0.77714595512881146 1.25 0 0 1 I I -0.70710678118654746 0.70710678118654746 1.25 forward I I I I #
loop $-1 $-1 $166 $47 #
coedge $-1 $104 $104 $167 $168 reversed $65 $-1 #
face $-1 $-1 $169 $37 $-1 $170 forward single #
loop $-1 $171 $172 $67 #
cone-surface $-1 -0.19272191043816633 -21.949466681663665 6.8093163683541391 0 0.62932039886446345 -0.77714595512881146 1.25 0 0 1 I I -0.70710678118654746 0.70710678118654746 1.25 forward I I I I #
loop $-1 $-1 $173 $48 #
coedge $-1 $109 $109 $174 $175 reversed $68 $-1 #
face $-1 $176 $177 $38 $-1 $178 forward single #
loop $-1 $-1 $179 $70 #
plane-surface $-1 -5.2279211671110275 -30.08904143174199 5.252185116262325 0 -0.62932039886446345 0.77714595512881146 1 0 0 forward_v I I I I #
coedge $-1 $180 $181 $182 $183 reversed $71 $-1 #
face $-1 $-1 $184 $39 $-1 $185 forward single #
loop $-1 $186 $187 $73 #
cone-surface $-1 13.234476107356144 -21.949466681663665 6.8093163683541391 0 0.62932039886446345 -0.77714595512881146 1.25 0 0 1 I I -0.70710678118654746 0.70710678118654746 1.25 forward I I I I #
loop $-1 $-1 $188 $50 #
coedge $-1 $118 $118 $189 $190 reversed $74 $-1 #
face $-1 $-1 $191 $40 $-1 $192 forward single #
loop $-1 $193 $194 $76 #
cone-surface $-1 23.304874620701867 -21.949466681663665 6.8093163683541391 0 0.62932039886446345 -0.77714595512881146 1.25 0 0 1 I I -0.70710678118654746 0.70710678118654746 1.25 forward I I I I #
loop $-1 $-1 $195 $51 #
coedge $-1 $123 $123 $196 $197 reversed $77 $-1 #
face $-1 $198 $199 $41 $-1 $200 reversed single #
loop $-1 $-1 $201 $79 #
plane-surface $-1 54.202167563782368 -9.3913326043925309 55.011629077546758 0 0.75470958851134928 0.65605901945558964 1 0 0 forward_v I I I I #
coedge $-1 $202 $203 $204 $205 reversed $80 $-1 #
face $-1 $-1 $206 $42 $-1 $207 forward single #
loop $-1 $208 $209 $82 #
cone-surface $-1 50.627871445681706 25.792623552023741 10.119610716037407 0 -0.75470958851134928 -0.65605901945558964 0.5 0 0 1 I I -0.70710678118654746 0.70710678118654746 0.5 forward I I I I #
loop $-1 $-1 $210 $53 #
coedge $-1 $132 $132 $211 $212 reversed $83 $-1 #
face $-1 $-1 $213 $43 $-1 $214 forward single #
loop $-1 $215 $216 $85 #
cone-surface $-1 57.776463681883016 25.792623552023741 10.119610716037407 0 -0.75470958851134928 -0.65605901945558964 0.5 0 0 1 I I -0.70710678118654746 0.70710678118654746 0.5 forward I I I I #
loop $-1 $-1 $217 $54 #
coedge $-1 $137 $137 $218 $219 reversed $86 $-1 #
face $-1 $220 $221 $33 $-1 $222 reversed single #
loop $-1 $-1 $223 $88 #
plane-surface $-1 0 0 -14.447276154354689 0 0 1 1 0 0 forward_v I I I I #
coedge $-1 $224 $225 $226 $227 forward $89 $-1 #
coedge $-1 $228 $91 $229 $230 reversed $56 $-1 #
coedge $-1 $91 $228 $231 $232 forward $56 $-1 #
coedge $-1 $233 $234 $91 $145 forward $139 $-1 #
edge $-1 $235 -30.089041431742004 $236 30.089041431742004 $91 $237 forward 7 unknown #
face $-1 $238 $239 $34 $-1 $240 reversed single #
loop $-1 $-1 $241 $92 #
plane-surface $-1 -69.063068937809547 -22.795804220961752 0 0 1 0 0 0 1 forward_v I I I I #
coedge $-1 $242 $243 $151 $244 forward $93 $-1 #
coedge $-1 $245 $95 $246 $247 reversed $59 $-1 #
coedge $-1 $95 $245 $149 $244 reversed $59 $-1 #
coedge $-1 $248 $249 $95 $153 reversed $250 $-1 #
edge $-1 $251 -14.447276154354689 $252 14.447276154354689 $152 $253 forward 7 unknown #
face $-1 $254 $255 $35 $-1 $256 forward single #
loop $-1 $-1 $257 $96 #
plane-surface $-1 -16.976719432681051 -108.80719566013778 102.46100794194524 1 0 0 0 0.62932039886446345 -0.77714595512881146 forward_v I I I I #
coedge $-1 $258 $259 $260 $261 reversed $97 $-1 #
coedge $-1 $159 $99 $262 $263 reversed $62 $-1 #
coedge $-1 $99 $158 $258 $264 reversed $62 $-1 #
coedge $-1 $260 $265 $99 $161 forward $255 $-1 #
edge $-1 $266 24.314556398326886 $267 35.669547941885114 $160 $268 forward 7 unknown #
loop $-1 $-1 $167 $100 #
plane-surface $-1 -5.2279211671110275 -30.08904143174199 5.252185116262325 0 -0.62932039886446345 0.77714595512881146 1 0 0 forward_v I I I I #
loop $-1 $-1 $269 $64 #
coedge $-1 $165 $165 $166 $270 reversed $101 $-1 #
coedge $-1 $166 $166 $165 $270 forward $103 $-1 #
coedge $-1 $167 $167 $104 $168 forward $162 $-1 #
edge $-1 $271 5.4027074450958785e-017 $271 6.2831853071796004 $167 $272 forward 7 unknown #
loop $-1 $-1 $174 $105 #
plane-surface $-1 -5.2279211671110275 -30.08904143174199 5.252185116262325 0 -0.62932039886446345 0.77714595512881146 1 0 0 forward_v I I I I #
loop $-1 $-1 $273 $67 #
coedge $-1 $172 $172 $173 $274 reversed $106 $-1 #
coedge $-1 $173 $173 $172 $274 forward $108 $-1 #
coedge $-1 $174 $174 $109 $175 forward $169 $-1 #
edge $-1 $275 5.4027074450958785e-017 $275 6.2831853071796004 $174 $276 forward 7 unknown #
face $-1 $277 $278 $38 $-1 $279 forward single #
loop $-1 $-1 $280 $110 #
plane-surface $-1 0 0 14.447276154354689 0 0 1 1 0 0 forward_v I I I I #
coedge $-1 $281 $282 $283 $284 reversed $111 $-1 #
coedge $-1 $181 $113 $285 $286 reversed $71 $-1 #
coedge $-1 $113 $180 $280 $287 reversed $71 $-1 #
coedge $-1 $288 $289 $113 $183 forward $290 $-1 #
edge $-1 $291 -45.978318854710309 $292 -36.783227816617931 $182 $293 forward 7 unknown #
loop $-1 $-1 $189 $114 #
plane-surface $-1 -5.2279211671110275 -30.08904143174199 5.252185116262325 0 -0.62932039886446345 0.77714595512881146 1 0 0 forward_v I I I I #
loop $-1 $-1 $294 $73 #
coedge $-1 $187 $187 $188 $295 reversed $115 $-1 #
coedge $-1 $188 $188 $187 $295 forward $117 $-1 #
coedge $-1 $189 $189 $118 $190 forward $184 $-1 #
edge $-1 $296 5.4027074450958785e-017 $296 6.2831853071796004 $189 $297 forward 7 unknown #
loop $-1 $-1 $196 $119 #
plane-surface $-1 -5.2279211671110275 -30.08904143174199 5.252185116262325 0 -0.62932039886446345 0.77714595512881146 1 0 0 forward_v I I I I #
loop $-1 $-1 $298 $76 #
coedge $-1 $194 $194 $195 $299 reversed $120 $-1 #
coedge $-1 $195 $195 $194 $299 forward $122 $-1 #
coedge $-1 $196 $196 $123 $197 forward $191 $-1 #
edge $-1 $300 5.4027074450958785e-017 $300 6.2831853071796004 $196 $301 forward 7 unknown #
face $-1 $302 $303 $41 $-1 $304 reversed single #
loop $-1 $-1 $305 $124 #
plane-surface $-1 62.542191839350565 0 0 -1 0 0 0 0 1 forward_v I I I I #
coedge $-1 $306 $307 $308 $309 reversed $125 $-1 #
coedge $-1 $203 $127 $310 $311 reversed $80 $-1 #
coedge $-1 $127 $202 $306 $312 reversed $80 $-1 #
coedge $-1 $308 $313 $127 $205 forward $314 $-1 #
edge $-1 $315 12.416484133735864 $316 16.634805045392739 $204 $317 forward 7 unknown #
loop $-1 $-1 $211 $128 #
plane-surface $-1 54.202167563782368 -9.3913326043925309 55.011629077546758 0 0.75470958851134928 0.65605901945558964 1 0 0 forward_v I I I I #
loop $-1 $-1 $318 $82 #
coedge $-1 $209 $209 $210 $319 reversed $129 $-1 #
coedge $-1 $210 $210 $209 $319 forward $131 $-1 #
coedge $-1 $211 $211 $132 $212 forward $206 $-1 #
edge $-1 $320 2.3920652176306361e-015 $320 6.2831853071796031 $211 $321 forward 7 unknown #
loop $-1 $-1 $218 $133 #
plane-surface $-1 54.202167563782368 -9.3913326043925309 55.011629077546758 0 0.75470958851134928 0.65605901945558964 1 0 0 forward_v I I I I #
loop $-1 $-1 $322 $85 #
coedge $-1 $216 $216 $217 $323 reversed $134 $-1 #
coedge $-1 $217 $217 $216 $323 forward $136 $-1 #
coedge $-1 $218 $218 $137 $219 forward $213 $-1 #
edge $-1 $324 2.3920652176306361e-015 $324 6.2831853071796031 $218 $325 forward 7 unknown #
face $-1 $326 $327 $33 $-1 $328 reversed single #
loop $-1 $-1 $229 $138 #
plane-surface $-1 0 -30.089041431742004 0 0 1 0 0 0 1 forward_v I I I I #
coedge $-1 $234 $233 $329 $330 forward $139 $-1 #
coedge $-1 $331 $141 $332 $333 forward $89 $-1 #
coedge $-1 $141 $331 $334 $335 forward $89 $-1 #
coedge $-1 $336 $337 $141 $227 reversed $338 $-1 #
edge $-1 $339 -30.089041431742004 $340 30.089041431742004 $226 $341 forward 7 unknown #
coedge $-1 $143 $142 $331 $342 reversed $56 $-1 #
coedge $-1 $343 $334 $142 $230 forward $221 $-1 #
edge $-1 $344 -14.447276154354689 $235 14.447276154354689 $142 $345 forward 7 unknown #
coedge $-1 $332 $346 $143 $232 reversed $327 $-1 #
edge $-1 $347 -14.447276154354689 $236 14.447276154354689 $231 $348 forward 7 unknown #
coedge $-1 $223 $144 $346 $349 forward $139 $-1 #
coedge $-1 $144 $223 $343 $350 forward $139 $-1 #
vertex $-1 $145 $351 #
vertex $-1 $349 $352 #
straight-curve $-1 -62.542191839350565 0 -14.447276154354689 0 1 0 I I #
face $-1 $353 $250 $34 $-1 $354 reversed single #
loop $-1 $-1 $355 $146 #
plane-surface $-1 -75.583946036268529 -18.675991492952633 0 1 0 0 0 0 -1 forward_v I I I I #
coedge $-1 $356 $357 $358 $359 forward $147 $-1 #
coedge $-1 $360 $149 $356 $361 forward $93 $-1 #
coedge $-1 $149 $360 $248 $362 forward $93 $-1 #
edge $-1 $251 14.556178764943514 $363 22.795804220961752 $149 $364 forward 7 unknown #
coedge $-1 $151 $150 $365 $366 forward $59 $-1 #
coedge $-1 $367 $368 $150 $247 forward $369 $-1 #
edge $-1 $370 -22.795804220961752 $252 -14.556178764943514 $246 $371 forward 7 unknown #
coedge $-1 $372 $152 $243 $362 reversed $250 $-1 #
coedge $-1 $152 $372 $367 $373 reversed $250 $-1 #
loop $-1 $-1 $152 $238 #
vertex $-1 $244 $374 #
vertex $-1 $373 $375 #
straight-curve $-1 -62.542191839350565 -14.556178764943514 0 0 0 1 I I #
face $-1 $-1 $376 $35 $-1 $377 reversed single #
loop $-1 $-1 $160 $154 #
plane-surface $-1 0 0 14.447276154354689 0 0 1 1 0 0 forward_v I I I I #
coedge $-1 $378 $379 $380 $381 reversed $155 $-1 #
coedge $-1 $382 $157 $159 $264 forward $97 $-1 #
coedge $-1 $157 $382 $378 $383 forward $97 $-1 #
coedge $-1 $380 $160 $157 $261 forward $255 $-1 #
edge $-1 $267 -9.1348376820145099 $384 14.362758849125537 $260 $385 forward 7 unknown #
coedge $-1 $386 $387 $158 $263 forward $376 $-1 #
edge $-1 $388 -45.978318854710309 $266 -36.783227816617931 $262 $389 forward 7 unknown #
edge $-1 $267 -14.611144108285465 $388 1.8310242626372826e-014 $159 $390 forward 7 unknown #
coedge $-1 $160 $380 $386 $391 forward $255 $-1 #
vertex $-1 $161 $392 #
vertex $-1 $161 $393 #
straight-curve $-1 6.5208770984589961 -54.40359783006889 14.447276154354689 0 1 0 I I #
coedge $-1 $269 $269 $-1 $394 reversed $164 $-1 #
edge $-1 $395 0 $395 6.2831853071796004 $165 $396 forward 7 unknown #
vertex $-1 $168 $397 #
ellipse-curve $-1 -10.263120423783896 -24.411545659962893 9.8497306353084983 0 -0.62932039886446345 0.77714595512881146 2.5 0 0 1 I I #
coedge $-1 $273 $273 $-1 $398 reversed $171 $-1 #
edge $-1 $399 0 $399 6.2831853071796004 $172 $400 forward 7 unknown #
vertex $-1 $175 $401 #
ellipse-curve $-1 -0.19272191043816633 -24.411545659962893 9.8497306353084983 0 -0.62932039886446345 0.77714595512881146 2.5 0 0 1 I I #
face $-1 $-1 $290 $38 $-1 $402 reversed single #
loop $-1 $-1 $403 $176 #
plane-surface $-1 6.5208770984589961 -108.80719566013778 102.46100794194524 -1 0 0 0 -0.62932039886446345 0.77714595512881146 forward_v I I I I #
coedge $-1 $404 $405 $181 $287 forward $177 $-1 #
coedge $-1 $285 $179 $404 $406 reversed $111 $-1 #
coedge $-1 $179 $285 $289 $407 reversed $111 $-1 #
coedge $-1 $408 $403 $179 $284 forward $278 $-1 #
edge $-1 $409 -14.611144108285465 $410 1.8310242626372826e-014 $283 $411 forward 7 unknown #
coedge $-1 $282 $281 $180 $286 forward $111 $-1 #
edge $-1 $412 -14.611144108285465 $291 1.8310242626372826e-014 $180 $413 forward 7 unknown #
edge $-1 $292 24.314556398326886 $412 35.669547941885114 $280 $414 forward 7 unknown #
coedge $-1 $415 $182 $405 $416 reversed $290 $-1 #
coedge $-1 $182 $415 $282 $407 forward $290 $-1 #
loop $-1 $-1 $182 $277 #
vertex $-1 $183 $417 #
vertex $-1 $287 $418 #
straight-curve $-1 30.018473629599022 -30.089041431742004 51.23050397097262 0 0 1 I I #
coedge $-1 $294 $294 $-1 $419 reversed $186 $-1 #
edge $-1 $420 0 $420 6.2831853071796004 $187 $421 forward 7 unknown #
vertex $-1 $190 $422 #
ellipse-curve $-1 13.234476107356144 -24.411545659962893 9.8497306353084983 0 -0.62932039886446345 0.77714595512881146 2.5 0 0 1 I I #
coedge $-1 $298 $298 $-1 $423 reversed $193 $-1 #
edge $-1 $424 0 $424 6.2831853071796004 $194 $425 forward 7 unknown #
vertex $-1 $197 $426 #
ellipse-curve $-1 23.304874620701867 -24.411545659962893 9.8497306353084983 0 -0.62932039886446345 0.77714595512881146 2.5 0 0 1 I I #
face $-1 $-1 $314 $41 $-1 $427 forward single #
loop $-1 $-1 $428 $198 #
plane-surface $-1 0 30.089041431742004 0 0 -1 0 0 0 -1 forward_v I I I I #
coedge $-1 $429 $430 $307 $431 forward $199 $-1 #
coedge $-1 $432 $201 $203 $312 forward $125 $-1 #
coedge $-1 $201 $432 $305 $431 reversed $125 $-1 #
coedge $-1 $433 $204 $201 $309 forward $314 $-1 #
edge $-1 $316 18.761059506322979 $434 35.441108057459388 $308 $435 forward 7 unknown #
coedge $-1 $436 $428 $202 $311 forward $303 $-1 #
edge $-1 $437 -58.942530669256222 $315 -54.089907437146401 $310 $438 forward 7 unknown #
edge $-1 $316 53.748294099727175 $437 60.178082863484015 $203 $439 forward 7 unknown #
coedge $-1 $204 $433 $436 $440 forward $314 $-1 #
loop $-1 $-1 $308 $302 #
vertex $-1 $311 $441 #
vertex $-1 $205 $442 #
straight-curve $-1 45.862143288214163 42.505525565477868 14.447276154354689 0 -1 0 I I #
coedge $-1 $318 $318 $-1 $443 reversed $208 $-1 #
edge $-1 $444 0 $444 6.2831853071796004 $209 $445 forward 7 unknown #
vertex $-1 $212 $446 #
ellipse-curve $-1 50.627871445681706 27.979880975913563 12.020964538299781 0 0.75470958851134928 0.65605901945558964 1 0 0 1 I I #
coedge $-1 $322 $322 $-1 $447 reversed $215 $-1 #
edge $-1 $448 0 $448 6.2831853071796004 $216 $449 forward 7 unknown #
vertex $-1 $219 $450 #
ellipse-curve $-1 57.776463681883016 27.979880975913563 12.020964538299781 0 0.75470958851134928 0.65605901945558964 1 0 0 1 I I #
face $-1 $-1 $338 $33 $-1 $451 reversed single #
loop $-1 $-1 $452 $220 #
plane-surface $-1 0 30.089041431742004 0 0 -1 0 0 0 -1 forward_v I I I I #
coedge $-1 $337 $336 $223 $330 reversed $338 $-1 #
edge $-1 $453 -30.089041431742004 $454 30.089041431742004 $329 $455 forward 7 unknown #
coedge $-1 $225 $224 $228 $342 forward $89 $-1 #
coedge $-1 $452 $231 $224 $333 reversed $327 $-1 #
edge $-1 $340 -62.542191839350565 $347 62.542191839350565 $332 $456 forward 7 unknown #
coedge $-1 $229 $457 $225 $335 reversed $221 $-1 #
edge $-1 $344 -62.542191839350565 $339 62.542191839350565 $334 $458 forward 7 unknown #
coedge $-1 $329 $226 $457 $459 forward $338 $-1 #
coedge $-1 $226 $329 $452 $460 reversed $338 $-1 #
loop $-1 $-1 $336 $326 #
vertex $-1 $227 $461 #
vertex $-1 $227 $462 #
straight-curve $-1 62.542191839350565 0 14.447276154354689 0 1 0 I I #
edge $-1 $347 -30.089041431742004 $344 30.089041431742004 $228 $463 forward 7 unknown #
coedge $-1 $457 $229 $234 $350 reversed $221 $-1 #
vertex $-1 $342 $464 #
straight-curve $-1 -62.542191839350565 -30.089041431742004 0 0 0 -1 I I #
coedge $-1 $231 $452 $233 $349 reversed $327 $-1 #
vertex $-1 $333 $465 #
straight-curve $-1 -62.542191839350565 30.089041431742004 0 0 0 -1 I I #
edge $-1 $236 -62.542191839350565 $453 62.542191839350565 $346 $466 forward 7 unknown #
edge $-1 $454 -62.542191839350565 $235 62.542191839350565 $343 $467 forward 7 unknown #
point $-1 -62.542191839350565 -30.089041431742004 -14.447276154354689 #
point $-1 -62.542191839350565 30.089041431742004 -14.447276154354689 #
face $-1 $-1 $369 $34 $-1 $468 forward single #
plane-surface $-1 -69.063068937809547 -14.556178764943514 0 0 -1 0 0 0 -1 forward_v I I I I #
coedge $-1 $469 $470 $372 $471 forward $239 $-1 #
coedge $-1 $365 $241 $242 $361 reversed $147 $-1 #
coedge $-1 $241 $365 $368 $472 reversed $147 $-1 #
coedge $-1 $470 $469 $241 $359 reversed $239 $-1 #
edge $-1 $473 -14.447276154354689 $474 14.447276154354689 $358 $475 forward 7 unknown #
coedge $-1 $243 $242 $469 $476 forward $93 $-1 #
edge $-1 $363 -6.520877098458989 $474 6.5208770984589819 $356 $477 forward 7 unknown #
edge $-1 $478 -6.5208770984589819 $251 6.520877098458989 $248 $479 forward 7 unknown #
vertex $-1 $361 $480 #
straight-curve $-1 -62.542191839350565 0 -14.447276154354689 0 -1 0 I I #
coedge $-1 $357 $356 $245 $366 reversed $147 $-1 #
edge $-1 $370 -14.447276154354689 $363 14.447276154354689 $365 $481 forward 7 unknown #
coedge $-1 $482 $246 $249 $373 forward $369 $-1 #
coedge $-1 $246 $482 $357 $472 forward $369 $-1 #
loop $-1 $-1 $246 $353 #
vertex $-1 $247 $483 #
straight-curve $-1 -62.542191839350565 0 14.447276154354689 0 1 0 I I #
coedge $-1 $249 $248 $355 $471 reversed $250 $-1 #
edge $-1 $252 -6.520877098458989 $484 6.5208770984589819 $249 $485 forward 7 unknown #
point $-1 -62.542191839350558 -14.556178764943514 -14.447276154354689 #
point $-1 -62.542191839350558 -14.556178764943514 14.447276154354689 #
loop $-1 $-1 $262 $254 #
plane-surface $-1 0 -30.089041431742004 0 0 1 0 0 0 1 forward_v I I I I #
coedge $-1 $379 $257 $259 $383 reversed $155 $-1 #
coedge $-1 $257 $378 $486 $487 reversed $155 $-1 #
coedge $-1 $265 $260 $257 $381 forward $255 $-1 #
edge $-1 $384 -35.669547941885114 $488 -24.314556398326886 $380 $489 forward 7 unknown #
coedge $-1 $259 $258 $387 $490 reversed $97 $-1 #
edge $-1 $491 -1.8310242626372826e-014 $384 14.611144108285465 $378 $492 forward 7 unknown #
vertex $-1 $261 $493 #
straight-curve $-1 -2.6139605835555138 -18.734049888183772 14.447276154354689 -1 0 0 I I #
coedge $-1 $486 $262 $265 $391 reversed $376 $-1 #
coedge $-1 $262 $486 $382 $490 forward $376 $-1 #
vertex $-1 $263 $494 #
straight-curve $-1 6.5208770984589961 -30.089041431742004 51.23050397097262 0 0 1 I I #
straight-curve $-1 6.5208770984589961 -30.08904143174199 5.252185116262325 0 -0.77714595512881146 -0.62932039886446345 I I #
edge $-1 $488 -16.976719432681051 $266 6.5208770984589961 $386 $495 forward 7 unknown #
point $-1 6.5208770984589961 -30.089041431742004 14.447276154354689 #
point $-1 6.5208770984589961 -18.734049888183776 14.447276154354689 #
edge $-1 $496 1 $496 0 $269 $-1 forward 7 unknown #
vertex $-1 $270 $497 #
ellipse-curve $-1 -10.263120423783896 -22.736117180244243 7.7807488122651538 0 -0.62932039886446345 0.77714595512881146 2.5 0 0 1 I I #
point $-1 -7.7631204237838958 -24.411545659962908 9.8497306353085161 #
edge $-1 $498 1 $498 0 $273 $-1 forward 7 unknown #
vertex $-1 $274 $499 #
ellipse-curve $-1 -0.19272191043816633 -22.736117180244243 7.7807488122651538 0 -0.62932039886446345 0.77714595512881146 2.5 0 0 1 I I #
point $-1 2.3072780895618337 -24.411545659962908 9.8497306353085161 #
plane-surface $-1 0 -30.089041431742004 0 0 1 0 0 0 1 forward_v I I I I #
coedge $-1 $283 $408 $500 $501 reversed $278 $-1 #
coedge $-1 $500 $280 $281 $406 forward $177 $-1 #
coedge $-1 $280 $500 $288 $416 forward $177 $-1 #
edge $-1 $412 -32.632434213154539 $409 -9.1348376820145099 $404 $502 forward 7 unknown #
edge $-1 $410 9.1348376820145099 $291 32.632434213154539 $289 $503 forward 7 unknown #
coedge $-1 $403 $283 $415 $504 reversed $278 $-1 #
vertex $-1 $406 $505 #
vertex $-1 $407 $506 #
straight-curve $-1 6.5208770984589961 -30.08904143174199 5.252185116262325 0 -0.77714595512881146 -0.62932039886446345 I I #
vertex $-1 $287 $507 #
straight-curve $-1 30.018473629599022 -30.08904143174199 5.252185116262325 0 -0.77714595512881146 -0.62932039886446345 I I #
straight-curve $-1 30.018473629599022 -54.40359783006889 14.447276154354689 0 1 0 I I #
coedge $-1 $289 $288 $408 $504 forward $290 $-1 #
edge $-1 $508 6.5208770984589961 $292 30.018473629599022 $288 $509 forward 7 unknown #
point $-1 30.018473629599022 -30.089041431742004 5.2521851162623134 #
point $-1 30.018473629599022 -30.089041431742004 14.447276154354689 #
edge $-1 $510 1 $510 0 $294 $-1 forward 7 unknown #
vertex $-1 $295 $511 #
ellipse-curve $-1 13.234476107356144 -22.736117180244243 7.7807488122651538 0 -0.62932039886446345 0.77714595512881146 2.5 0 0 1 I I #
point $-1 15.734476107356144 -24.411545659962908 9.8497306353085161 #
edge $-1 $512 1 $512 0 $298 $-1 forward 7 unknown #
vertex $-1 $299 $513 #
ellipse-curve $-1 23.304874620701867 -22.736117180244243 7.7807488122651538 0 -0.62932039886446345 0.77714595512881146 2.5 0 0 1 I I #
point $-1 25.804874620701867 -24.411545659962908 9.8497306353085161 #
plane-surface $-1 0 0 14.447276154354689 0 0 1 1 0 0 forward_v I I I I #
coedge $-1 $310 $514 $432 $515 forward $303 $-1 #
coedge $-1 $430 $305 $514 $516 reversed $199 $-1 #
coedge $-1 $305 $429 $433 $517 reversed $199 $-1 #
edge $-1 $434 29.908757897590483 $518 36.338546661347316 $305 $519 forward 7 unknown #
coedge $-1 $307 $306 $428 $515 reversed $125 $-1 #
coedge $-1 $313 $308 $430 $517 forward $314 $-1 #
vertex $-1 $517 $520 #
straight-curve $-1 27.101083781891184 25.870720520085118 14.447276154354686 1 0 0 I I #
coedge $-1 $514 $310 $313 $440 reversed $303 $-1 #
vertex $-1 $311 $521 #
straight-curve $-1 45.862143288214163 30.089041431742004 68.537183591501091 0 0 1 I I #
straight-curve $-1 45.862143288214163 -9.3913326043925309 55.011629077546758 0 0.65605901945558964 -0.75470958851134928 I I #
edge $-1 $522 -62.542191839350565 $315 -45.862143288214163 $436 $523 forward 7 unknown #
point $-1 45.862143288214163 30.089041431742004 14.447276154354689 #
point $-1 45.862143288214163 25.870720520085129 14.447276154354689 #
edge $-1 $524 1 $524 0 $318 $-1 forward 7 unknown #
vertex $-1 $319 $525 #
ellipse-curve $-1 50.627871445681706 26.169978346279414 10.447640225765202 0 0.75470958851134928 0.65605901945558964 1 0 0 1 I I #
point $-1 51.627871445681706 27.979880975913552 12.020964538299769 #
edge $-1 $526 1 $526 0 $322 $-1 forward 7 unknown #
vertex $-1 $323 $527 #
ellipse-curve $-1 57.776463681883016 26.169978346279414 10.447640225765202 0 0.75470958851134928 0.65605901945558964 1 0 0 1 I I #
point $-1 58.776463681883016 27.979880975913552 12.020964538299769 #
plane-surface $-1 62.542191839350565 0 0 -1 0 0 0 0 1 forward_v I I I I #
coedge $-1 $346 $332 $337 $460 forward $327 $-1 #
vertex $-1 $330 $528 #
vertex $-1 $459 $529 #
straight-curve $-1 62.542191839350565 0 -14.447276154354689 0 -1 0 I I #
straight-curve $-1 0 30.089041431742004 14.447276154354689 -1 0 0 I I #
coedge $-1 $334 $343 $336 $459 reversed $221 $-1 #
straight-curve $-1 0 -30.089041431742004 14.447276154354689 1 0 0 I I #
edge $-1 $339 -14.447276154354689 $454 14.447276154354689 $336 $530 forward 7 unknown #
edge $-1 $340 -14.447276154354689 $453 14.447276154354689 $337 $531 forward 7 unknown #
point $-1 62.542191839350565 -30.089041431742004 14.447276154354689 #
point $-1 62.542191839350565 30.089041431742004 14.447276154354689 #
straight-curve $-1 -62.542191839350565 0 14.447276154354689 0 -1 0 I I #
point $-1 -62.542191839350565 -30.089041431742004 14.447276154354689 #
point $-1 -62.542191839350565 30.089041431742004 14.447276154354689 #
straight-curve $-1 0 30.089041431742004 -14.447276154354689 1 0 0 I I #
straight-curve $-1 0 -30.089041431742004 -14.447276154354689 -1 0 0 I I #
plane-surface $-1 0 0 14.447276154354689 0 0 1 1 0 0 forward_v I I I I #
coedge $-1 $358 $355 $360 $476 reversed $239 $-1 #
coedge $-1 $355 $358 $482 $532 reversed $239 $-1 #
edge $-1 $484 -14.447276154354689 $478 14.447276154354689 $372 $533 forward 7 unknown #
edge $-1 $473 -6.5208770984589819 $370 6.520877098458989 $357 $534 forward 7 unknown #
vertex $-1 $532 $535 #
vertex $-1 $476 $536 #
straight-curve $-1 -75.583946036268529 -22.795804220961752 0 0 0 -1 I I #
edge $-1 $474 -4.1198127280091192 $478 4.1198127280091192 $469 $537 forward 7 unknown #
straight-curve $-1 -69.063068937809547 -22.795804220961752 -14.447276154354689 -1 0 0 I I #
vertex $-1 $362 $538 #
straight-curve $-1 -69.063068937809547 -14.556178764943514 -14.447276154354689 1 0 0 I I #
point $-1 -62.542191839350558 -22.795804220961752 -14.447276154354689 #
straight-curve $-1 -62.542191839350565 -22.795804220961752 0 0 0 -1 I I #
coedge $-1 $368 $367 $470 $532 forward $369 $-1 #
point $-1 -62.542191839350558 -22.795804220961752 14.447276154354689 #
vertex $-1 $373 $539 #
straight-curve $-1 -69.063068937809547 -14.556178764943514 14.447276154354689 -1 0 0 I I #
coedge $-1 $387 $386 $379 $487 forward $376 $-1 #
edge $-1 $488 36.783227816617931 $491 45.978318854710309 $486 $540 forward 7 unknown #
vertex $-1 $391 $541 #
straight-curve $-1 -16.976719432681051 -54.40359783006889 14.447276154354689 0 -1 0 I I #
edge $-1 $491 -14.362758849125537 $388 9.1348376820145099 $387 $542 forward 7 unknown #
vertex $-1 $490 $543 #
straight-curve $-1 -16.976719432681051 -30.08904143174199 5.252185116262325 0 0.77714595512881146 0.62932039886446345 I I #
point $-1 -16.976719432681051 -18.734049888183776 14.447276154354689 #
point $-1 6.5208770984589961 -30.089041431742004 5.2521851162623134 #
straight-curve $-1 0 -30.089041431742004 14.447276154354689 1 0 0 I I #
vertex $-1 $394 $544 #
point $-1 -7.7631204237838958 -22.736117180244243 7.7807488122651538 #
vertex $-1 $398 $545 #
point $-1 2.3072780895618337 -22.736117180244243 7.7807488122651538 #
coedge $-1 $405 $404 $403 $501 forward $177 $-1 #
edge $-1 $409 -35.669547941885114 $508 -24.314556398326886 $500 $546 forward 7 unknown #
straight-curve $-1 -2.6139605835555138 -18.734049888183772 14.447276154354689 -1 0 0 I I #
straight-curve $-1 -2.6139605835555138 -30.089041431742004 5.2521851162623143 1 0 0 I I #
edge $-1 $508 36.783227816617931 $410 45.978318854710309 $415 $547 forward 7 unknown #
point $-1 6.5208770984589961 -18.734049888183776 14.447276154354689 #
point $-1 6.5208770984589961 -30.089041431742004 5.2521851162623134 #
point $-1 30.018473629599022 -18.734049888183776 14.447276154354689 #
vertex $-1 $416 $548 #
straight-curve $-1 0 -30.089041431742004 14.447276154354689 1 0 0 I I #
vertex $-1 $419 $549 #
point $-1 15.734476107356144 -22.736117180244243 7.7807488122651538 #
vertex $-1 $423 $550 #
point $-1 25.804874620701867 -22.736117180244243 7.7807488122651538 #
coedge $-1 $428 $436 $429 $516 forward $303 $-1 #
edge $-1 $518 -35.441108057459388 $437 -18.761059506322979 $428 $551 forward 7 unknown #
edge $-1 $522 -14.447276154354689 $518 -9.5946529222448689 $429 $552 forward 7 unknown #
edge $-1 $434 25.870720520085129 $522 30.089041431742004 $430 $553 forward 7 unknown #
vertex $-1 $431 $554 #
straight-curve $-1 62.542191839350565 6.2488101406572909 37.019702520130764 0 0.65605901945558975 -0.75470958851134939 I I #
point $-1 62.542191839350572 25.870720520085129 14.447276154354689 #
point $-1 45.862143288214163 30.089041431742004 9.5946529222448689 #
vertex $-1 $517 $555 #
straight-curve $-1 0 30.089041431742004 14.447276154354689 -1 0 0 I I #
vertex $-1 $443 $556 #
point $-1 51.627871445681706 26.169978346279414 10.447640225765202 #
vertex $-1 $447 $557 #
point $-1 58.776463681883016 26.169978346279414 10.447640225765202 #
point $-1 62.542191839350565 30.089041431742004 -14.447276154354689 #
point $-1 62.542191839350565 -30.089041431742004 -14.447276154354689 #
straight-curve $-1 62.542191839350565 -30.089041431742004 0 0 0 -1 I I #
straight-curve $-1 62.542191839350565 30.089041431742004 0 0 0 -1 I I #
edge $-1 $484 -4.1198127280091192 $473 4.1198127280091192 $470 $558 forward 7 unknown #
straight-curve $-1 -75.583946036268529 -14.556178764943514 0 0 0 -1 I I #
straight-curve $-1 -69.063068937809547 -22.795804220961752 14.447276154354689 1 0 0 I I #
point $-1 -75.583946036268529 -22.795804220961752 14.447276154354689 #
point $-1 -75.583946036268529 -22.795804220961752 -14.447276154354689 #
straight-curve $-1 -75.583946036268529 -18.675991492952633 -14.447276154354689 0 1 0 I I #
point $-1 -75.583946036268529 -14.556178764943514 -14.447276154354689 #
point $-1 -75.583946036268529 -14.556178764943514 14.447276154354689 #
straight-curve $-1 -16.976719432681051 -30.089041431742004 51.23050397097262 0 0 -1 I I #
point $-1 -16.976719432681051 -30.089041431742004 14.447276154354689 #
straight-curve $-1 -2.6139605835555138 -30.089041431742004 5.2521851162623143 1 0 0 I I #
point $-1 -16.976719432681051 -30.089041431742004 5.2521851162623134 #
point $-1 -10.263120423783896 -21.162816183083088 5.8378839244431244 #
point $-1 -0.19272191043816633 -21.162816183083088 5.8378839244431244 #
straight-curve $-1 6.5208770984589961 -54.40359783006889 14.447276154354689 0 -1 0 I I #
straight-curve $-1 6.5208770984589961 -30.089041431742004 51.23050397097262 0 0 -1 I I #
point $-1 6.5208770984589961 -30.089041431742004 14.447276154354689 #
point $-1 13.234476107356144 -21.162816183083088 5.8378839244431244 #
point $-1 23.304874620701867 -21.162816183083088 5.8378839244431244 #
straight-curve $-1 27.101083781891184 30.089041431742004 9.5946529222448653 -1 0 0 I I #
straight-curve $-1 62.542191839350565 30.089041431742004 0 0 0 -1 I I #
straight-curve $-1 62.542191839350565 0 14.447276154354689 0 1 0 I I #
point $-1 62.542191839350572 30.089041431742004 9.5946529222448689 #
point $-1 62.542191839350565 30.089041431742004 14.447276154354689 #
point $-1 50.627871445681706 25.415268757768068 9.7915812063096119 #
point $-1 57.776463681883016 25.415268757768068 9.7915812063096119 #
straight-curve $-1 -75.583946036268529 -18.675991492952633 14.447276154354689 0 -1 0 I I #
End-of-ACIS-data 