500 0 10 0           
7 Unknown 11 ACIS 5.0 NT 24 Thu Mar 25 15:28:57 1999 
-1 9.9999999999999995e-007 1e-010 
body $-1 $10 $-1 $11 #
body $-1 $12 $-1 $13 #
body $-1 $14 $-1 $15 #
body $-1 $16 $-1 $17 #
body $-1 $18 $-1 $19 #
body $-1 $20 $-1 $21 #
body $-1 $22 $-1 $23 #
body $-1 $24 $-1 $25 #
body $-1 $26 $-1 $27 #
body $-1 $28 $-1 $29 #
lump $-1 $-1 $30 $0 #
transform $-1 1 0 0 0 1 0 0 0 1 43.348490859706409 21.294299552143688 10.258397372980552 1 rotate no_reflect no_shear #
lump $-1 $-1 $31 $1 #
transform $-1 1 0 0 0 1 0 0 0 1 43.348490859706409 21.294299552143688 10.258397372980552 1 rotate no_reflect no_shear #
lump $-1 $-1 $32 $2 #
transform $-1 1 0 0 0 1 0 0 0 1 43.348490859706409 21.294299552143688 10.258397372980552 1 rotate no_reflect no_shear #
lump $-1 $-1 $33 $3 #
transform $-1 1 0 0 0 1 0 0 0 1 43.348490859706409 21.294299552143688 10.258397372980552 1 rotate no_reflect no_shear #
lump $-1 $-1 $34 $4 #
transform $-1 1 0 0 0 1 0 0 0 1 43.348490859706409 21.294299552143688 10.258397372980552 1 rotate no_reflect no_shear #
lump $-1 $-1 $35 $5 #
transform $-1 1 0 0 0 1 0 0 0 1 43.348490859706409 21.294299552143688 10.258397372980552 1 rotate no_reflect no_shear #
lump $-1 $-1 $36 $6 #
transform $-1 1 0 0 0 1 0 0 0 1 43.348490859706409 21.294299552143688 10.258397372980552 1 rotate no_reflect no_shear #
lump $-1 $-1 $37 $7 #
transform $-1 1 0 0 0 1 0 0 0 1 43.348490859706409 21.294299552143688 10.258397372980552 1 rotate no_reflect no_shear #
lump $-1 $-1 $38 $8 #
transform $-1 1 0 0 0 1 0 0 0 1 43.348490859706409 21.294299552143688 10.258397372980552 1 rotate no_reflect no_shear #
lump $-1 $-1 $39 $9 #
transform $-1 1 0 0 0 1 0 0 0 1 43.348490859706409 21.294299552143688 10.258397372980552 1 rotate no_reflect no_shear #
shell $-1 $-1 $-1 $40 $-1 $10 #
shell $-1 $-1 $-1 $41 $-1 $12 #
shell $-1 $-1 $-1 $42 $-1 $14 #
shell $-1 $-1 $-1 $43 $-1 $16 #
shell $-1 $-1 $-1 $44 $-1 $18 #
shell $-1 $-1 $-1 $45 $-1 $20 #
shell $-1 $-1 $-1 $46 $-1 $22 #
shell $-1 $-1 $-1 $47 $-1 $24 #
shell $-1 $-1 $-1 $48 $-1 $26 #
shell $-1 $-1 $-1 $49 $-1 $28 #
face $-1 $50 $51 $30 $-1 $52 forward single #
face $-1 $53 $54 $31 $-1 $55 forward single #
face $-1 $56 $57 $32 $-1 $58 reversed single #
face $-1 $59 $60 $33 $-1 $61 forward single #
face $-1 $62 $63 $34 $-1 $64 forward single #
face $-1 $65 $66 $35 $-1 $67 forward single #
face $-1 $68 $69 $36 $-1 $70 reversed single #
face $-1 $71 $72 $37 $-1 $73 forward single #
face $-1 $74 $75 $38 $-1 $76 forward single #
face $-1 $77 $78 $39 $-1 $79 forward single #
face $-1 $80 $81 $30 $-1 $82 reversed single #
loop $-1 $-1 $83 $40 #
plane-surface $-1 0 0 10.258397372980552 0 0 1 1 0 0 forward_v I I I I #
face $-1 $84 $85 $31 $-1 $86 reversed single #
loop $-1 $-1 $87 $41 #
plane-surface $-1 -43.348490859706409 0 0 1 0 0 0 0 -1 forward_v I I I I #
face $-1 $88 $89 $32 $-1 $90 reversed single #
loop $-1 $-1 $91 $42 #
plane-surface $-1 -19.532946714849999 -73.469846273359039 74.732206802283756 -1 0 0 0 -0.6018150307709319 0.79863550430605224 forward_v I I I I #
face $-1 $92 $93 $33 $-1 $94 forward single #
loop $-1 $95 $96 $43 #
cone-surface $-1 -29.264031198759874 -17.201300203197214 6.6401824846904631 0 0.6018150307709319 -0.79863550430605224 1 0 0 1 I I 0 1 1 forward I I I I #
face $-1 $97 $98 $34 $-1 $99 forward single #
loop $-1 $100 $101 $44 #
cone-surface $-1 -25.614874517293671 -17.201300203197214 6.6401824846904631 0 0.6018150307709319 -0.79863550430605224 1 0 0 1 I I 0 1 1 forward I I I I #
face $-1 $102 $103 $35 $-1 $104 forward single #
loop $-1 $105 $106 $45 #
cone-surface $-1 -21.965717835827469 -17.201300203197214 6.6401824846904631 0 0.6018150307709319 -0.79863550430605224 1 0 0 1 I I 0 1 1 forward I I I I #
face $-1 $107 $108 $36 $-1 $109 reversed single #
loop $-1 $-1 $110 $46 #
plane-surface $-1 24.795238638955176 57.225378868458165 93.638853828365015 1 0 0 0 -0.74314483375859142 -0.66913059716165679 forward_v I I I I #
face $-1 $111 $112 $37 $-1 $113 forward single #
loop $-1 $114 $115 $47 #
cone-surface $-1 28.505889083105423 18.062991747644439 6.7545379192544832 0 -0.74314483375859142 -0.66913059716165679 0.5 0 0 1 I I 0 1 0.5 forward I I I I #
face $-1 $116 $117 $38 $-1 $118 forward single #
loop $-1 $119 $120 $48 #
cone-surface $-1 34.071864749330793 18.062991747644439 6.7545379192544832 0 -0.74314483375859142 -0.66913059716165679 0.5 0 0 1 I I 0 1 0.5 forward I I I I #
face $-1 $121 $122 $39 $-1 $123 forward single #
loop $-1 $124 $125 $49 #
cone-surface $-1 39.637840415556163 18.062991747644439 6.7545379192544832 0 -0.74314483375859142 -0.66913059716165679 0.5 0 0 1 I I 0 1 0.5 forward I I I I #
face $-1 $126 $127 $30 $-1 $128 reversed single #
loop $-1 $-1 $129 $50 #
plane-surface $-1 0 0 -10.258397372980552 0 0 1 1 0 0 forward_v I I I I #
coedge $-1 $130 $131 $132 $133 forward $51 $-1 #
face $-1 $134 $135 $31 $-1 $136 forward single #
loop $-1 $-1 $137 $53 #
plane-surface $-1 0 21.294299552143688 0 0 -1 0 0 0 -1 forward_v I I I I #
coedge $-1 $138 $139 $140 $141 forward $54 $-1 #
face $-1 $142 $143 $32 $-1 $144 reversed single #
loop $-1 $-1 $145 $56 #
plane-surface $-1 -25.614874517293671 -21.294299552143691 5.4929190849879035 0 -0.6018150307709319 0.79863550430605224 1 0 0 forward_v I I I I #
coedge $-1 $146 $147 $148 $149 reversed $57 $-1 #
face $-1 $-1 $150 $33 $-1 $151 forward single #
loop $-1 $152 $153 $59 #
cone-surface $-1 -29.264031198759874 -15.969394918416365 5.0053889882436735 0 0.6018150307709319 -0.79863550430605224 0.5 0 0 1 I I -0.70710678118654746 0.70710678118654746 0.5 forward I I I I #
loop $-1 $-1 $154 $43 #
coedge $-1 $96 $96 $155 $156 reversed $60 $-1 #
face $-1 $-1 $157 $34 $-1 $158 forward single #
loop $-1 $159 $160 $62 #
cone-surface $-1 -25.614874517293671 -15.969394918416365 5.0053889882436735 0 0.6018150307709319 -0.79863550430605224 0.5 0 0 1 I I -0.70710678118654746 0.70710678118654746 0.5 forward I I I I #
loop $-1 $-1 $161 $44 #
coedge $-1 $101 $101 $162 $163 reversed $63 $-1 #
face $-1 $-1 $164 $35 $-1 $165 forward single #
loop $-1 $166 $167 $65 #
cone-surface $-1 -21.965717835827469 -15.969394918416365 5.0053889882436735 0 0.6018150307709319 -0.79863550430605224 0.5 0 0 1 I I -0.70710678118654746 0.70710678118654746 0.5 forward I I I I #
loop $-1 $-1 $168 $45 #
coedge $-1 $106 $106 $169 $170 reversed $66 $-1 #
face $-1 $171 $172 $36 $-1 $173 forward single #
loop $-1 $-1 $174 $68 #
plane-surface $-1 34.071864749330793 -7.2030351987865089 35.627250678341085 0 0.74314483375859142 0.66913059716165679 1 0 0 forward_v I I I I #
coedge $-1 $175 $176 $177 $178 reversed $69 $-1 #
face $-1 $-1 $179 $37 $-1 $180 forward single #
loop $-1 $181 $182 $71 #
cone-surface $-1 28.505889083105423 17.473456336751749 6.2237178642412037 0 -0.74314483375859142 -0.66913059716165679 0.25 0 0 1 I I -0.70710678118654746 0.70710678118654746 0.25 forward I I I I #
loop $-1 $-1 $183 $47 #
coedge $-1 $115 $115 $184 $185 reversed $72 $-1 #
face $-1 $-1 $186 $38 $-1 $187 forward single #
loop $-1 $188 $189 $74 #
cone-surface $-1 34.071864749330793 17.473456336751749 6.2237178642412037 0 -0.74314483375859142 -0.66913059716165679 0.25 0 0 1 I I -0.70710678118654746 0.70710678118654746 0.25 forward I I I I #
loop $-1 $-1 $190 $48 #
coedge $-1 $120 $120 $191 $192 reversed $75 $-1 #
face $-1 $-1 $193 $39 $-1 $194 forward single #
loop $-1 $195 $196 $77 #
cone-surface $-1 39.637840415556163 17.473456336751749 6.2237178642412037 0 -0.74314483375859142 -0.66913059716165679 0.25 0 0 1 I I -0.70710678118654746 0.70710678118654746 0.25 forward I I I I #
loop $-1 $-1 $197 $49 #
coedge $-1 $125 $125 $198 $199 reversed $78 $-1 #
face $-1 $200 $201 $30 $-1 $202 reversed single #
loop $-1 $-1 $203 $80 #
plane-surface $-1 0 -21.294299552143688 0 0 1 0 0 0 1 forward_v I I I I #
coedge $-1 $204 $205 $206 $207 forward $81 $-1 #
coedge $-1 $208 $83 $209 $210 forward $51 $-1 #
coedge $-1 $83 $208 $211 $212 forward $51 $-1 #
coedge $-1 $213 $214 $83 $133 reversed $215 $-1 #
edge $-1 $216 -21.294299552143688 $217 21.294299552143688 $132 $218 forward 7 unknown #
face $-1 $219 $220 $31 $-1 $221 reversed single #
loop $-1 $-1 $140 $84 #
plane-surface $-1 -49.174335129690945 0 8.6939994560797196 0 0 1 1 0 0 forward_v I I I I #
coedge $-1 $222 $223 $139 $224 forward $85 $-1 #
coedge $-1 $225 $87 $226 $227 reversed $54 $-1 #
coedge $-1 $87 $225 $137 $224 reversed $54 $-1 #
coedge $-1 $228 $229 $87 $141 reversed $135 $-1 #
edge $-1 $230 -21.294299552143688 $231 21.294299552143688 $140 $232 forward 7 unknown #
face $-1 $233 $234 $32 $-1 $235 reversed single #
loop $-1 $-1 $236 $88 #
plane-surface $-1 -31.696802319737344 -73.469846273359039 74.732206802283756 1 0 0 0 0.6018150307709319 -0.79863550430605224 forward_v I I I I #
coedge $-1 $237 $238 $239 $240 reversed $89 $-1 #
coedge $-1 $147 $91 $241 $242 reversed $57 $-1 #
coedge $-1 $91 $146 $237 $243 reversed $57 $-1 #
coedge $-1 $239 $244 $91 $149 forward $245 $-1 #
edge $-1 $246 15.440623584535832 $247 21.764626743638011 $148 $248 forward 7 unknown #
loop $-1 $-1 $155 $92 #
plane-surface $-1 -25.614874517293671 -21.294299552143691 5.4929190849879035 0 -0.6018150307709319 0.79863550430605224 1 0 0 forward_v I I I I #
loop $-1 $-1 $249 $59 #
coedge $-1 $153 $153 $154 $250 reversed $93 $-1 #
coedge $-1 $154 $154 $153 $250 forward $95 $-1 #
coedge $-1 $155 $155 $96 $156 forward $150 $-1 #
edge $-1 $251 2.3028041575419397e-015 $251 6.2831853071796031 $155 $252 forward 7 unknown #
loop $-1 $-1 $162 $97 #
plane-surface $-1 -25.614874517293671 -21.294299552143691 5.4929190849879035 0 -0.6018150307709319 0.79863550430605224 1 0 0 forward_v I I I I #
loop $-1 $-1 $253 $62 #
coedge $-1 $160 $160 $161 $254 reversed $98 $-1 #
coedge $-1 $161 $161 $160 $254 forward $100 $-1 #
coedge $-1 $162 $162 $101 $163 forward $157 $-1 #
edge $-1 $255 2.3028041575419397e-015 $255 6.2831853071796031 $162 $256 forward 7 unknown #
loop $-1 $-1 $169 $102 #
plane-surface $-1 -25.614874517293671 -21.294299552143691 5.4929190849879035 0 -0.6018150307709319 0.79863550430605224 1 0 0 forward_v I I I I #
loop $-1 $-1 $257 $65 #
coedge $-1 $167 $167 $168 $258 reversed $103 $-1 #
coedge $-1 $168 $168 $167 $258 forward $105 $-1 #
coedge $-1 $169 $169 $106 $170 forward $164 $-1 #
edge $-1 $259 2.3028041575419397e-015 $259 6.2831853071796031 $169 $260 forward 7 unknown #
face $-1 $261 $262 $36 $-1 $263 reversed single #
loop $-1 $-1 $177 $107 #
plane-surface $-1 0 0 10.258397372980552 0 0 1 1 0 0 forward_v I I I I #
coedge $-1 $264 $265 $266 $267 reversed $108 $-1 #
coedge $-1 $176 $110 $268 $269 reversed $69 $-1 #
coedge $-1 $110 $175 $264 $270 reversed $69 $-1 #
coedge $-1 $266 $271 $110 $178 forward $172 $-1 #
edge $-1 $272 7.3183898820853948 $273 12.973507086177783 $177 $274 forward 7 unknown #
loop $-1 $-1 $184 $111 #
plane-surface $-1 34.071864749330793 -7.2030351987865089 35.627250678341085 0 0.74314483375859142 0.66913059716165679 1 0 0 forward_v I I I I #
loop $-1 $-1 $275 $71 #
coedge $-1 $182 $182 $183 $276 reversed $112 $-1 #
coedge $-1 $183 $183 $182 $276 forward $114 $-1 #
coedge $-1 $184 $184 $115 $185 forward $179 $-1 #
edge $-1 $277 2.8977987528154754e-015 $277 6.2831853071796031 $184 $278 forward 7 unknown #
loop $-1 $-1 $191 $116 #
plane-surface $-1 34.071864749330793 -7.2030351987865089 35.627250678341085 0 0.74314483375859142 0.66913059716165679 1 0 0 forward_v I I I I #
loop $-1 $-1 $279 $74 #
coedge $-1 $189 $189 $190 $280 reversed $117 $-1 #
coedge $-1 $190 $190 $189 $280 forward $119 $-1 #
coedge $-1 $191 $191 $120 $192 forward $186 $-1 #
edge $-1 $281 2.8977987528154754e-015 $281 6.2831853071796031 $191 $282 forward 7 unknown #
loop $-1 $-1 $198 $121 #
plane-surface $-1 34.071864749330793 -7.2030351987865089 35.627250678341085 0 0.74314483375859142 0.66913059716165679 1 0 0 forward_v I I I I #
loop $-1 $-1 $283 $77 #
coedge $-1 $196 $196 $197 $284 reversed $122 $-1 #
coedge $-1 $197 $197 $196 $284 forward $124 $-1 #
coedge $-1 $198 $198 $125 $199 forward $193 $-1 #
edge $-1 $285 2.8977987528154754e-015 $285 6.2831853071796031 $198 $286 forward 7 unknown #
face $-1 $287 $288 $30 $-1 $289 reversed single #
loop $-1 $-1 $290 $126 #
plane-surface $-1 -43.348490859706409 0 0 1 0 0 0 0 -1 forward_v I I I I #
coedge $-1 $291 $211 $292 $293 forward $127 $-1 #
coedge $-1 $294 $129 $291 $295 forward $81 $-1 #
coedge $-1 $129 $294 $296 $297 forward $81 $-1 #
coedge $-1 $214 $213 $129 $207 reversed $215 $-1 #
edge $-1 $298 -21.294299552143688 $299 21.294299552143688 $206 $300 forward 7 unknown #
coedge $-1 $131 $130 $301 $302 forward $51 $-1 #
coedge $-1 $303 $304 $130 $210 reversed $288 $-1 #
edge $-1 $217 -43.348490859706409 $305 43.348490859706409 $209 $306 forward 7 unknown #
coedge $-1 $203 $307 $131 $212 reversed $127 $-1 #
edge $-1 $308 -43.348490859706409 $216 43.348490859706409 $211 $309 forward 7 unknown #
coedge $-1 $206 $132 $307 $310 forward $215 $-1 #
coedge $-1 $132 $206 $303 $311 reversed $215 $-1 #
loop $-1 $-1 $213 $287 #
vertex $-1 $133 $312 #
vertex $-1 $133 $313 #
straight-curve $-1 43.348490859706409 0 10.258397372980552 0 1 0 I I #
face $-1 $314 $315 $31 $-1 $316 reversed single #
loop $-1 $-1 $317 $134 #
plane-surface $-1 -49.174335129690945 0 2.7647478356421251 0 0 1 1 0 0 forward_v I I I I #
coedge $-1 $318 $137 $319 $320 reversed $85 $-1 #
coedge $-1 $137 $318 $228 $321 reversed $85 $-1 #
edge $-1 $230 -8.6939994560797196 $322 -2.7647478356421251 $137 $323 forward 7 unknown #
coedge $-1 $139 $138 $317 $324 forward $54 $-1 #
coedge $-1 $325 $326 $138 $227 forward $327 $-1 #
edge $-1 $328 2.7647478356421251 $231 8.6939994560797196 $226 $329 forward 7 unknown #
coedge $-1 $330 $140 $223 $321 forward $135 $-1 #
coedge $-1 $140 $330 $325 $331 forward $135 $-1 #
vertex $-1 $224 $332 #
vertex $-1 $331 $333 #
straight-curve $-1 -43.348490859706409 0 8.6939994560797196 0 -1 0 I I #
face $-1 $-1 $245 $32 $-1 $334 forward single #
loop $-1 $-1 $335 $142 #
plane-surface $-1 0 -21.294299552143688 0 0 1 0 0 0 1 forward_v I I I I #
coedge $-1 $336 $337 $338 $339 reversed $143 $-1 #
coedge $-1 $340 $145 $147 $243 forward $89 $-1 #
coedge $-1 $145 $340 $336 $341 forward $89 $-1 #
coedge $-1 $338 $148 $145 $240 forward $245 $-1 #
edge $-1 $247 6.725509456203163 $342 18.889365061090508 $239 $343 forward 7 unknown #
coedge $-1 $344 $345 $146 $242 forward $234 $-1 #
edge $-1 $346 -31.873184316153971 $246 -27.107706028161324 $241 $347 forward 7 unknown #
edge $-1 $247 -7.9185099147291433 $346 -4.4408806494695735e-015 $147 $348 forward 7 unknown #
coedge $-1 $148 $338 $344 $349 forward $245 $-1 #
loop $-1 $-1 $338 $233 #
vertex $-1 $242 $350 #
vertex $-1 $149 $351 #
straight-curve $-1 -19.532946714849999 -36.734923136679519 10.258397372980554 0 1 0 I I #
coedge $-1 $249 $249 $-1 $352 reversed $152 $-1 #
edge $-1 $353 0 $353 6.2831853071796004 $153 $354 forward 7 unknown #
vertex $-1 $156 $355 #
ellipse-curve $-1 -29.264031198759874 -18.1322979725926 7.8756582289842285 0 -0.6018150307709319 0.79863550430605224 1 0 0 1 I I #
coedge $-1 $253 $253 $-1 $356 reversed $159 $-1 #
edge $-1 $357 0 $357 6.2831853071796004 $160 $358 forward 7 unknown #
vertex $-1 $163 $359 #
ellipse-curve $-1 -25.614874517293671 -18.1322979725926 7.8756582289842285 0 -0.6018150307709319 0.79863550430605224 1 0 0 1 I I #
coedge $-1 $257 $257 $-1 $360 reversed $166 $-1 #
edge $-1 $361 0 $361 6.2831853071796004 $167 $362 forward 7 unknown #
vertex $-1 $170 $363 #
ellipse-curve $-1 -21.965717835827469 -18.1322979725926 7.8756582289842285 0 -0.6018150307709319 0.79863550430605224 1 0 0 1 I I #
face $-1 $-1 $364 $36 $-1 $365 reversed single #
loop $-1 $-1 $366 $171 #
plane-surface $-1 43.348490859706409 0 0 -1 0 0 0 0 1 forward_v I I I I #
coedge $-1 $367 $174 $176 $270 forward $108 $-1 #
coedge $-1 $174 $367 $366 $368 reversed $108 $-1 #
coedge $-1 $369 $177 $174 $267 forward $172 $-1 #
edge $-1 $273 7.7593062642897799 $370 26.312558485041013 $266 $371 forward 7 unknown #
coedge $-1 $372 $373 $175 $269 forward $364 $-1 #
edge $-1 $374 -42.841673637208345 $272 -36.561029541201954 $268 $375 forward 7 unknown #
edge $-1 $273 34.137158939870304 $374 42.588599104287354 $176 $376 forward 7 unknown #
coedge $-1 $177 $369 $372 $377 forward $172 $-1 #
vertex $-1 $269 $378 #
vertex $-1 $178 $379 #
straight-curve $-1 24.795238638955176 28.612689434229083 10.258397372980554 0 -1 0 I I #
coedge $-1 $275 $275 $-1 $380 reversed $181 $-1 #
edge $-1 $381 0 $381 6.2831853071796004 $182 $382 forward 7 unknown #
vertex $-1 $185 $383 #
ellipse-curve $-1 28.505889083105423 18.466740950097495 7.118075324977359 0 0.74314483375859142 0.66913059716165679 0.5 0 0 1 I I #
coedge $-1 $279 $279 $-1 $384 reversed $188 $-1 #
edge $-1 $385 0 $385 6.2831853071796004 $189 $386 forward 7 unknown #
vertex $-1 $192 $387 #
ellipse-curve $-1 34.071864749330793 18.466740950097495 7.118075324977359 0 0.74314483375859142 0.66913059716165679 0.5 0 0 1 I I #
coedge $-1 $283 $283 $-1 $388 reversed $195 $-1 #
edge $-1 $389 0 $389 6.2831853071796004 $196 $390 forward 7 unknown #
vertex $-1 $199 $391 #
ellipse-curve $-1 39.637840415556163 18.466740950097495 7.118075324977359 0 0.74314483375859142 0.66913059716165679 0.5 0 0 1 I I #
face $-1 $-1 $215 $30 $-1 $392 reversed single #
loop $-1 $-1 $303 $200 #
plane-surface $-1 0 21.294299552143688 0 0 -1 0 0 0 -1 forward_v I I I I #
coedge $-1 $393 $301 $304 $394 forward $201 $-1 #
coedge $-1 $307 $203 $204 $295 reversed $127 $-1 #
coedge $-1 $301 $393 $203 $293 reversed $201 $-1 #
edge $-1 $308 -10.258397372980552 $395 10.258397372980552 $292 $396 forward 7 unknown #
coedge $-1 $205 $204 $393 $397 forward $81 $-1 #
edge $-1 $299 -43.348490859706409 $395 43.348490859706409 $291 $398 forward 7 unknown #
coedge $-1 $304 $303 $205 $297 reversed $288 $-1 #
edge $-1 $399 -43.348490859706409 $298 43.348490859706409 $296 $400 forward 7 unknown #
vertex $-1 $207 $401 #
vertex $-1 $310 $402 #
straight-curve $-1 43.348490859706409 0 -10.258397372980552 0 -1 0 I I #
coedge $-1 $290 $292 $208 $302 reversed $201 $-1 #
edge $-1 $305 -21.294299552143688 $308 21.294299552143688 $301 $403 forward 7 unknown #
coedge $-1 $296 $209 $214 $311 forward $288 $-1 #
coedge $-1 $209 $296 $290 $394 reversed $288 $-1 #
vertex $-1 $210 $404 #
straight-curve $-1 0 21.294299552143688 10.258397372980552 -1 0 0 I I #
coedge $-1 $211 $291 $213 $310 reversed $127 $-1 #
vertex $-1 $302 $405 #
straight-curve $-1 0 -21.294299552143688 10.258397372980552 1 0 0 I I #
edge $-1 $216 -10.258397372980552 $299 10.258397372980552 $213 $406 forward 7 unknown #
edge $-1 $217 -10.258397372980552 $298 10.258397372980552 $214 $407 forward 7 unknown #
point $-1 43.348490859706409 -21.294299552143688 10.258397372980552 #
point $-1 43.348490859706409 21.294299552143688 10.258397372980552 #
face $-1 $-1 $327 $31 $-1 $408 reversed single #
loop $-1 $-1 $409 $219 #
plane-surface $-1 -55.000179399675481 0 5.7293736458609228 1 0 0 0 0 -1 forward_v I I I I #
coedge $-1 $410 $319 $225 $324 reversed $220 $-1 #
coedge $-1 $223 $222 $409 $411 reversed $85 $-1 #
coedge $-1 $317 $412 $222 $320 forward $220 $-1 #
edge $-1 $413 -5.8258442699845361 $322 5.8258442699845361 $222 $414 forward 7 unknown #
edge $-1 $230 -5.8258442699845361 $415 5.8258442699845361 $223 $416 forward 7 unknown #
vertex $-1 $224 $417 #
straight-curve $-1 -43.348490859706409 21.294299552143688 0 0 0 -1 I I #
edge $-1 $328 -21.294299552143688 $322 21.294299552143688 $317 $418 forward 7 unknown #
coedge $-1 $419 $226 $229 $331 reversed $327 $-1 #
coedge $-1 $226 $419 $410 $420 reversed $327 $-1 #
loop $-1 $-1 $226 $314 #
vertex $-1 $227 $421 #
straight-curve $-1 -43.348490859706409 -21.294299552143688 0 0 0 1 I I #
coedge $-1 $229 $228 $422 $423 forward $135 $-1 #
edge $-1 $424 -5.8258442699845361 $231 5.8258442699845361 $325 $425 forward 7 unknown #
point $-1 -43.348490859706409 21.294299552143688 8.6939994560797196 #
point $-1 -43.348490859706409 -21.294299552143688 8.6939994560797196 #
plane-surface $-1 0 0 10.258397372980552 0 0 1 1 0 0 forward_v I I I I #
coedge $-1 $345 $344 $337 $426 forward $234 $-1 #
coedge $-1 $337 $236 $238 $341 reversed $143 $-1 #
coedge $-1 $236 $336 $335 $426 reversed $143 $-1 #
coedge $-1 $244 $239 $236 $339 forward $245 $-1 #
edge $-1 $342 -21.764626743638011 $427 -15.440623584535832 $338 $428 forward 7 unknown #
coedge $-1 $238 $237 $345 $429 reversed $89 $-1 #
edge $-1 $430 4.4408806494695735e-015 $342 7.9185099147291433 $336 $431 forward 7 unknown #
vertex $-1 $240 $432 #
straight-curve $-1 -12.807437258646836 -14.970296393041508 10.258397372980552 -1 0 0 I I #
coedge $-1 $335 $241 $244 $349 reversed $234 $-1 #
coedge $-1 $241 $335 $340 $429 forward $234 $-1 #
vertex $-1 $242 $433 #
straight-curve $-1 -19.532946714849999 -21.294299552143688 37.366103401141878 0 0 1 I I #
straight-curve $-1 -19.532946714849999 -21.294299552143691 5.4929190849879035 0 -0.79863550430605224 -0.6018150307709319 I I #
edge $-1 $427 -31.696802319737344 $246 -19.532946714849999 $344 $434 forward 7 unknown #
point $-1 -19.532946714849999 -21.294299552143688 10.258397372980552 #
point $-1 -19.532946714849999 -14.970296393041508 10.258397372980552 #
edge $-1 $435 1 $435 0 $249 $-1 forward 7 unknown #
vertex $-1 $250 $436 #
ellipse-curve $-1 -29.264031198759874 -16.270302433801831 5.4047067403966995 0 -0.6018150307709319 0.79863550430605224 1 0 0 1 I I #
point $-1 -28.264031198759874 -18.132297972592596 7.8756582289842276 #
edge $-1 $437 1 $437 0 $253 $-1 forward 7 unknown #
vertex $-1 $254 $438 #
ellipse-curve $-1 -25.614874517293671 -16.270302433801831 5.4047067403966995 0 -0.6018150307709319 0.79863550430605224 1 0 0 1 I I #
point $-1 -24.614874517293671 -18.132297972592596 7.8756582289842276 #
edge $-1 $439 1 $439 0 $257 $-1 forward 7 unknown #
vertex $-1 $258 $440 #
ellipse-curve $-1 -21.965717835827469 -16.270302433801831 5.4047067403966995 0 -0.6018150307709319 0.79863550430605224 1 0 0 1 I I #
point $-1 -20.965717835827469 -18.132297972592596 7.8756582289842276 #
loop $-1 $-1 $268 $261 #
plane-surface $-1 0 21.294299552143688 0 0 -1 0 0 0 -1 forward_v I I I I #
coedge $-1 $441 $442 $265 $368 forward $262 $-1 #
coedge $-1 $265 $264 $373 $443 reversed $108 $-1 #
edge $-1 $370 18.489169676584353 $444 26.940609841001404 $366 $445 forward 7 unknown #
coedge $-1 $271 $266 $442 $446 forward $172 $-1 #
vertex $-1 $446 $447 #
straight-curve $-1 17.035932374665396 15.639182348051303 10.25839737298055 1 0 0 I I #
coedge $-1 $448 $268 $271 $377 reversed $364 $-1 #
coedge $-1 $268 $448 $367 $443 forward $364 $-1 #
vertex $-1 $269 $449 #
straight-curve $-1 24.795238638955176 21.294299552143688 46.819426914182507 0 0 1 I I #
straight-curve $-1 24.795238638955176 -7.2030351987865089 35.627250678341085 0 0.66913059716165679 -0.74314483375859142 I I #
edge $-1 $450 -43.348490859706409 $272 -24.795238638955176 $372 $451 forward 7 unknown #
point $-1 24.795238638955176 21.294299552143688 10.258397372980552 #
point $-1 24.795238638955176 15.6391823480513 10.258397372980554 #
edge $-1 $452 1 $452 0 $275 $-1 forward 7 unknown #
vertex $-1 $276 $453 #
ellipse-curve $-1 28.505889083105423 17.659242545191397 6.3910005135316181 0 0.74314483375859142 0.66913059716165679 0.5 0 0 1 I I #
point $-1 29.005889083105423 18.466740950097485 7.1180753249773474 #
edge $-1 $454 1 $454 0 $279 $-1 forward 7 unknown #
vertex $-1 $280 $455 #
ellipse-curve $-1 34.071864749330793 17.659242545191397 6.3910005135316181 0 0.74314483375859142 0.66913059716165679 0.5 0 0 1 I I #
point $-1 34.571864749330793 18.466740950097485 7.1180753249773474 #
edge $-1 $456 1 $456 0 $283 $-1 forward 7 unknown #
vertex $-1 $284 $457 #
ellipse-curve $-1 39.637840415556163 17.659242545191397 6.3910005135316181 0 0.74314483375859142 0.66913059716165679 0.5 0 0 1 I I #
point $-1 40.137840415556163 18.466740950097485 7.1180753249773474 #
plane-surface $-1 43.348490859706409 0 0 -1 0 0 0 0 1 forward_v I I I I #
coedge $-1 $292 $290 $294 $397 reversed $201 $-1 #
edge $-1 $305 -10.258397372980552 $399 10.258397372980552 $304 $458 forward 7 unknown #
vertex $-1 $397 $459 #
straight-curve $-1 -43.348490859706409 -21.294299552143688 0 0 0 -1 I I #
edge $-1 $395 -21.294299552143688 $399 21.294299552143688 $393 $460 forward 7 unknown #
straight-curve $-1 0 -21.294299552143688 -10.258397372980552 -1 0 0 I I #
vertex $-1 $297 $461 #
straight-curve $-1 0 21.294299552143688 -10.258397372980552 1 0 0 I I #
point $-1 43.348490859706409 21.294299552143688 -10.258397372980552 #
point $-1 43.348490859706409 -21.294299552143688 -10.258397372980552 #
straight-curve $-1 -43.348490859706409 0 10.258397372980552 0 -1 0 I I #
point $-1 -43.348490859706409 21.294299552143688 10.258397372980552 #
point $-1 -43.348490859706409 -21.294299552143688 10.258397372980552 #
straight-curve $-1 43.348490859706409 -21.294299552143688 0 0 0 -1 I I #
straight-curve $-1 43.348490859706409 21.294299552143688 0 0 0 -1 I I #
plane-surface $-1 0 -21.294299552143688 0 0 1 0 0 0 1 forward_v I I I I #
coedge $-1 $462 $422 $318 $411 forward $315 $-1 #
coedge $-1 $412 $317 $326 $420 forward $220 $-1 #
edge $-1 $415 -2.9646258102187968 $413 2.9646258102187977 $318 $463 forward 7 unknown #
coedge $-1 $319 $410 $462 $464 forward $220 $-1 #
vertex $-1 $320 $465 #
straight-curve $-1 -49.174335129690945 21.294299552143688 2.7647478356421251 1 0 0 I I #
vertex $-1 $321 $466 #
straight-curve $-1 -49.174335129690945 21.294299552143688 8.6939994560797196 -1 0 0 I I #
point $-1 -43.348490859706409 21.294299552143688 2.7647478356421251 #
straight-curve $-1 -43.348490859706409 0 2.7647478356421251 0 1 0 I I #
coedge $-1 $326 $325 $467 $468 forward $327 $-1 #
edge $-1 $328 -5.8258442699845361 $469 5.8258442699845361 $326 $470 forward 7 unknown #
point $-1 -43.348490859706409 -21.294299552143688 2.7647478356421251 #
coedge $-1 $409 $467 $330 $423 reversed $315 $-1 #
edge $-1 $415 -21.294299552143688 $424 21.294299552143688 $422 $471 forward 7 unknown #
vertex $-1 $423 $472 #
straight-curve $-1 -49.174335129690945 -21.294299552143688 8.6939994560797196 1 0 0 I I #
edge $-1 $427 27.107706028161324 $430 31.873184316153971 $335 $473 forward 7 unknown #
vertex $-1 $349 $474 #
straight-curve $-1 -31.696802319737344 -36.734923136679519 10.258397372980554 0 -1 0 I I #
edge $-1 $430 -18.889365061090508 $346 -6.725509456203163 $345 $475 forward 7 unknown #
vertex $-1 $429 $476 #
straight-curve $-1 -31.696802319737344 -21.294299552143691 5.4929190849879035 0 0.79863550430605224 0.6018150307709319 I I #
point $-1 -31.696802319737344 -14.970296393041508 10.258397372980552 #
point $-1 -19.532946714849999 -21.294299552143688 5.4929190849879062 #
straight-curve $-1 0 -21.294299552143688 10.258397372980552 1 0 0 I I #
vertex $-1 $352 $477 #
point $-1 -28.264031198759874 -16.270302433801831 5.4047067403966995 #
vertex $-1 $356 $478 #
point $-1 -24.614874517293671 -16.270302433801831 5.4047067403966995 #
vertex $-1 $360 $479 #
point $-1 -20.965717835827469 -16.270302433801831 5.4047067403966995 #
coedge $-1 $442 $366 $448 $480 reversed $262 $-1 #
coedge $-1 $366 $441 $369 $446 reversed $262 $-1 #
edge $-1 $444 -26.312558485041013 $374 -7.7593062642897799 $373 $481 forward 7 unknown #
vertex $-1 $368 $482 #
straight-curve $-1 43.348490859706409 3.2675132013352135 23.998528298620222 0 0.66913059716165679 -0.74314483375859142 I I #
edge $-1 $370 15.6391823480513 $450 21.294299552143688 $442 $483 forward 7 unknown #
point $-1 43.348490859706409 15.6391823480513 10.258397372980554 #
coedge $-1 $373 $372 $441 $480 forward $364 $-1 #
point $-1 24.795238638955176 21.294299552143691 3.9777532769741626 #
vertex $-1 $446 $484 #
straight-curve $-1 0 21.294299552143688 10.258397372980552 -1 0 0 I I #
vertex $-1 $380 $485 #
point $-1 29.005889083105423 17.659242545191397 6.3910005135316181 #
vertex $-1 $384 $486 #
point $-1 34.571864749330793 17.659242545191397 6.3910005135316181 #
vertex $-1 $388 $487 #
point $-1 40.137840415556163 17.659242545191397 6.3910005135316181 #
straight-curve $-1 -43.348490859706409 21.294299552143688 0 0 0 -1 I I #
point $-1 -43.348490859706409 -21.294299552143688 -10.258397372980552 #
straight-curve $-1 -43.348490859706409 0 -10.258397372980552 0 1 0 I I #
point $-1 -43.348490859706409 21.294299552143688 -10.258397372980552 #
coedge $-1 $467 $409 $412 $464 reversed $315 $-1 #
straight-curve $-1 -55.000179399675481 21.294299552143688 5.7293736458609228 0 0 -1 I I #
edge $-1 $469 -21.294299552143688 $413 21.294299552143688 $462 $488 forward 7 unknown #
point $-1 -55.000179399675481 21.294299552143688 2.7647478356421251 #
point $-1 -55.000179399675481 21.294299552143688 8.6939994560797196 #
coedge $-1 $422 $462 $419 $468 reversed $315 $-1 #
edge $-1 $424 -2.9646258102187968 $469 2.9646258102187977 $467 $489 forward 7 unknown #
vertex $-1 $464 $490 #
straight-curve $-1 -49.174335129690945 -21.294299552143688 2.7647478356421251 -1 0 0 I I #
straight-curve $-1 -55.000179399675481 0 8.6939994560797196 0 -1 0 I I #
point $-1 -55.000179399675481 -21.294299552143688 8.6939994560797196 #
straight-curve $-1 -31.696802319737344 -21.294299552143688 37.366103401141878 0 0 -1 I I #
point $-1 -31.696802319737344 -21.294299552143688 10.258397372980552 #
straight-curve $-1 -12.807437258646836 -21.294299552143688 5.4929190849879088 1 0 0 I I #
point $-1 -31.696802319737344 -21.294299552143688 5.4929190849879062 #
point $-1 -29.264031198759874 -15.668487403030898 4.6060712360906475 #
point $-1 -25.614874517293671 -15.668487403030898 4.6060712360906475 #
point $-1 -21.965717835827469 -15.668487403030898 4.6060712360906475 #
edge $-1 $450 -10.258397372980552 $444 -3.9777532769741626 $441 $491 forward 7 unknown #
straight-curve $-1 17.035932374665396 21.294299552143691 3.9777532769741661 -1 0 0 I I #
point $-1 43.348490859706409 21.294299552143691 3.9777532769741626 #
straight-curve $-1 43.348490859706409 0 10.258397372980552 0 1 0 I I #
point $-1 43.348490859706409 21.294299552143688 10.258397372980552 #
point $-1 28.505889083105423 17.287670128312101 6.0564352149507892 #
point $-1 34.071864749330793 17.287670128312101 6.0564352149507892 #
point $-1 39.637840415556163 17.287670128312101 6.0564352149507892 #
straight-curve $-1 -55.000179399675481 0 2.7647478356421251 0 1 0 I I #
straight-curve $-1 -55.000179399675481 -21.294299552143688 5.7293736458609228 0 0 -1 I I #
point $-1 -55.000179399675481 -21.294299552143688 2.7647478356421251 #
straight-curve $-1 43.348490859706409 21.294299552143688 0 0 0 -1 I I #
End-of-ACIS-data 