500 0 9 0           
7 Unknown 11 ACIS 5.0 NT 24 Fri Mar 26 17:38:00 1999 
-1 9.9999999999999995e-007 1e-010 
body $-1 $9 $-1 $10 #
body $-1 $11 $-1 $12 #
body $-1 $13 $-1 $14 #
body $-1 $15 $-1 $16 #
body $-1 $17 $-1 $18 #
body $-1 $19 $-1 $20 #
body $-1 $21 $-1 $22 #
body $-1 $23 $-1 $24 #
body $-1 $25 $-1 $26 #
lump $-1 $-1 $27 $0 #
transform $-1 1 0 0 0 1 0 0 0 1 45.558030945768607 26.926607932197708 7.5503303226121572 1 rotate no_reflect no_shear #
lump $-1 $-1 $28 $1 #
transform $-1 1 0 0 0 1 0 0 0 1 45.558030945768607 26.926607932197708 7.5503303226121572 1 rotate no_reflect no_shear #
lump $-1 $-1 $29 $2 #
transform $-1 1 0 0 0 1 0 0 0 1 45.558030945768607 26.926607932197708 7.5503303226121572 1 rotate no_reflect no_shear #
lump $-1 $-1 $30 $3 #
transform $-1 1 0 0 0 1 0 0 0 1 45.558030945768607 26.926607932197708 7.5503303226121572 1 rotate no_reflect no_shear #
lump $-1 $-1 $31 $4 #
transform $-1 1 0 0 0 1 0 0 0 1 45.558030945768607 26.926607932197708 7.5503303226121572 1 rotate no_reflect no_shear #
lump $-1 $-1 $32 $5 #
transform $-1 1 0 0 0 1 0 0 0 1 45.558030945768607 26.926607932197708 7.5503303226121572 1 rotate no_reflect no_shear #
lump $-1 $-1 $33 $6 #
transform $-1 1 0 0 0 1 0 0 0 1 45.558030945768607 26.926607932197708 7.5503303226121572 1 rotate no_reflect no_shear #
lump $-1 $-1 $34 $7 #
transform $-1 1 0 0 0 1 0 0 0 1 45.558030945768607 26.926607932197708 7.5503303226121572 1 rotate no_reflect no_shear #
lump $-1 $-1 $35 $8 #
transform $-1 1 0 0 0 1 0 0 0 1 45.558030945768607 26.926607932197708 7.5503303226121572 1 rotate no_reflect no_shear #
shell $-1 $-1 $-1 $36 $-1 $9 #
shell $-1 $-1 $-1 $37 $-1 $11 #
shell $-1 $-1 $-1 $38 $-1 $13 #
shell $-1 $-1 $-1 $39 $-1 $15 #
shell $-1 $-1 $-1 $40 $-1 $17 #
shell $-1 $-1 $-1 $41 $-1 $19 #
shell $-1 $-1 $-1 $42 $-1 $21 #
shell $-1 $-1 $-1 $43 $-1 $23 #
shell $-1 $-1 $-1 $44 $-1 $25 #
face $-1 $45 $46 $27 $-1 $47 forward single #
face $-1 $48 $49 $28 $-1 $50 forward single #
face $-1 $51 $52 $29 $-1 $53 forward single #
face $-1 $54 $55 $30 $-1 $56 reversed single #
face $-1 $57 $58 $31 $-1 $59 forward single #
face $-1 $60 $61 $32 $-1 $62 reversed single #
face $-1 $63 $64 $33 $-1 $65 forward single #
face $-1 $66 $67 $34 $-1 $68 forward single #
face $-1 $69 $70 $35 $-1 $71 forward single #
face $-1 $72 $73 $27 $-1 $74 reversed single #
loop $-1 $-1 $75 $36 #
plane-surface $-1 0 0 7.5503303226121572 0 0 1 1 0 0 forward_v I I I I #
face $-1 $76 $77 $28 $-1 $78 reversed single #
loop $-1 $-1 $79 $37 #
plane-surface $-1 -41.088160276288448 0 -3.1509212611324715 0 0 1 1 0 0 forward_v I I I I #
face $-1 $80 $81 $29 $-1 $82 reversed single #
loop $-1 $-1 $83 $38 #
plane-surface $-1 41.088160276288448 0 -3.1509212611324715 0 0 1 1 0 0 forward_v I I I I #
face $-1 $84 $85 $30 $-1 $86 reversed single #
loop $-1 $-1 $87 $39 #
plane-surface $-1 -23.370351865395598 29.540648096882567 109.15749246933629 -1 0 0 0 0.52991927123019833 0.84804809178421925 forward_v I I I I #
face $-1 $88 $89 $31 $-1 $90 forward single #
loop $-1 $91 $92 $40 #
cone-surface $-1 -29.99432073610194 22.963185157594214 4.4869447906596349 0 -0.52991927123019833 -0.84804809178421925 1 0 0 1 I I 0 1 1 forward I I I I #
face $-1 $93 $94 $32 $-1 $95 reversed single #
loop $-1 $-1 $96 $41 #
plane-surface $-1 -36.618289606808283 -101.5645170393351 55.717370915105519 1 0 0 0 0.81915205242281985 -0.57357642473473569 forward_v I I I I #
face $-1 $97 $98 $33 $-1 $99 forward single #
loop $-1 $100 $101 $42 #
cone-surface $-1 -33.842644040774715 -25.0833624682821 5.2160498986630639 0 0.81915205242281985 -0.57357642473473569 0.5 0 0 1 I I 0 1 0.5 forward I I I I #
face $-1 $102 $103 $34 $-1 $104 forward single #
loop $-1 $105 $106 $43 #
cone-surface $-1 -29.679175691724367 -25.0833624682821 5.2160498986630639 0 0.81915205242281985 -0.57357642473473569 0.5 0 0 1 I I 0 1 0.5 forward I I I I #
face $-1 $107 $108 $35 $-1 $109 forward single #
loop $-1 $110 $111 $44 #
cone-surface $-1 -25.515707342674016 -25.0833624682821 5.2160498986630639 0 0.81915205242281985 -0.57357642473473569 0.5 0 0 1 I I 0 1 0.5 forward I I I I #
face $-1 $112 $113 $27 $-1 $114 reversed single #
loop $-1 $-1 $115 $45 #
plane-surface $-1 0 0 -7.5503303226121572 0 0 1 1 0 0 forward_v I I I I #
coedge $-1 $116 $117 $118 $119 forward $46 $-1 #
face $-1 $120 $121 $28 $-1 $122 reversed single #
loop $-1 $-1 $123 $48 #
plane-surface $-1 -36.61828960680829 0 -5.3506257918723144 -1 0 0 0 0 1 forward_v I I I I #
coedge $-1 $124 $125 $126 $127 forward $49 $-1 #
face $-1 $128 $129 $29 $-1 $130 reversed single #
loop $-1 $-1 $131 $51 #
plane-surface $-1 36.61828960680829 0 -5.3506257918723144 1 0 0 0 0 -1 forward_v I I I I #
coedge $-1 $132 $133 $134 $135 reversed $52 $-1 #
face $-1 $136 $137 $30 $-1 $138 reversed single #
loop $-1 $-1 $139 $54 #
plane-surface $-1 -29.99432073610194 -18.743509018046478 31.886690051325331 0 0.52991927123019833 0.84804809178421925 1 0 0 forward_v I I I I #
coedge $-1 $140 $141 $142 $143 reversed $55 $-1 #
face $-1 $-1 $144 $31 $-1 $145 forward single #
loop $-1 $146 $147 $57 #
cone-surface $-1 -29.99432073610194 22.09670318750322 3.1002838005899038 0 -0.52991927123019833 -0.84804809178421925 0.5 0 0 1 I I -0.70710678118654724 0.70710678118654791 0.5 forward I I I I #
loop $-1 $-1 $148 $40 #
coedge $-1 $92 $92 $149 $150 reversed $58 $-1 #
face $-1 $151 $152 $32 $-1 $153 reversed single #
loop $-1 $-1 $154 $60 #
plane-surface $-1 -29.679175691724367 -26.926607932197712 3.4553458994487087 0 -0.81915205242281985 0.57357642473473569 1 0 0 forward_v I I I I #
coedge $-1 $155 $156 $157 $158 reversed $61 $-1 #
face $-1 $-1 $159 $33 $-1 $160 forward single #
loop $-1 $161 $162 $63 #
cone-surface $-1 -33.842644040774715 -24.468998428964987 4.7858675801120123 0 0.81915205242281985 -0.57357642473473569 0.25 0 0 1 I I -0.70710678118654746 0.70710678118654746 0.25 forward I I I I #
loop $-1 $-1 $163 $42 #
coedge $-1 $101 $101 $164 $165 reversed $64 $-1 #
face $-1 $-1 $166 $34 $-1 $167 forward single #
loop $-1 $168 $169 $66 #
cone-surface $-1 -29.679175691724367 -24.468998428964987 4.7858675801120123 0 0.81915205242281985 -0.57357642473473569 0.25 0 0 1 I I -0.70710678118654746 0.70710678118654746 0.25 forward I I I I #
loop $-1 $-1 $170 $43 #
coedge $-1 $106 $106 $171 $172 reversed $67 $-1 #
face $-1 $-1 $173 $35 $-1 $174 forward single #
loop $-1 $175 $176 $69 #
cone-surface $-1 -25.515707342674016 -24.468998428964987 4.7858675801120123 0 0.81915205242281985 -0.57357642473473569 0.25 0 0 1 I I -0.70710678118654746 0.70710678118654746 0.25 forward I I I I #
loop $-1 $-1 $177 $44 #
coedge $-1 $111 $111 $178 $179 reversed $70 $-1 #
face $-1 $180 $181 $27 $-1 $182 reversed single #
loop $-1 $-1 $183 $72 #
plane-surface $-1 0 -26.926607932197708 0 0 1 0 0 0 1 forward_v I I I I #
coedge $-1 $184 $185 $186 $187 forward $73 $-1 #
coedge $-1 $188 $75 $189 $190 forward $46 $-1 #
coedge $-1 $75 $188 $191 $192 forward $46 $-1 #
coedge $-1 $193 $194 $75 $119 reversed $195 $-1 #
edge $-1 $196 -26.926607932197708 $197 26.926607932197708 $118 $198 forward 7 unknown #
face $-1 $199 $200 $28 $-1 $201 reversed single #
loop $-1 $-1 $202 $76 #
plane-surface $-1 0 0 -7.5503303226121572 0 0 1 1 0 0 forward_v I I I I #
coedge $-1 $203 $126 $204 $205 reversed $77 $-1 #
coedge $-1 $206 $79 $207 $208 reversed $49 $-1 #
coedge $-1 $79 $206 $209 $210 reversed $49 $-1 #
coedge $-1 $123 $211 $79 $127 reversed $77 $-1 #
edge $-1 $212 -26.926607932197708 $213 26.926607932197708 $126 $214 forward 7 unknown #
face $-1 $215 $216 $29 $-1 $217 reversed single #
loop $-1 $-1 $218 $80 #
plane-surface $-1 0 -26.926607932197708 0 0 1 0 0 0 1 forward_v I I I I #
coedge $-1 $219 $220 $221 $222 reversed $81 $-1 #
coedge $-1 $223 $83 $224 $225 reversed $52 $-1 #
coedge $-1 $83 $223 $218 $226 reversed $52 $-1 #
coedge $-1 $227 $228 $83 $135 forward $229 $-1 #
edge $-1 $230 -26.926607932197708 $231 26.926607932197708 $134 $232 forward 7 unknown #
face $-1 $233 $234 $30 $-1 $235 reversed single #
loop $-1 $-1 $236 $84 #
plane-surface $-1 -36.618289606808283 29.540648096882567 109.15749246933629 1 0 0 0 -0.52991927123019833 -0.84804809178421925 forward_v I I I I #
coedge $-1 $237 $238 $239 $240 reversed $85 $-1 #
coedge $-1 $141 $87 $241 $242 reversed $55 $-1 #
coedge $-1 $87 $140 $237 $243 reversed $55 $-1 #
coedge $-1 $239 $244 $87 $143 forward $234 $-1 #
edge $-1 $245 47.028415912055991 $246 51.229913087605794 $142 $247 forward 7 unknown #
loop $-1 $-1 $149 $88 #
plane-surface $-1 -29.99432073610194 -18.743509018046478 31.886690051325331 0 0.52991927123019833 0.84804809178421925 1 0 0 forward_v I I I I #
loop $-1 $-1 $248 $57 #
coedge $-1 $147 $147 $148 $249 reversed $89 $-1 #
coedge $-1 $148 $148 $147 $249 forward $91 $-1 #
coedge $-1 $149 $149 $92 $150 forward $144 $-1 #
edge $-1 $250 -1.8826514435595184e-015 $250 6.2831853071795987 $149 $251 forward 7 unknown #
face $-1 $252 $253 $32 $-1 $254 forward single #
loop $-1 $-1 $255 $93 #
plane-surface $-1 -22.740061776640449 -101.5645170393351 55.717370915105519 -1 0 0 0 -0.81915205242281985 0.57357642473473569 forward_v I I I I #
coedge $-1 $256 $257 $258 $259 reversed $94 $-1 #
coedge $-1 $156 $96 $260 $261 reversed $61 $-1 #
coedge $-1 $96 $155 $256 $262 reversed $61 $-1 #
coedge $-1 $258 $263 $96 $158 forward $264 $-1 #
edge $-1 $265 20.308355134940602 $266 24.403339558104047 $157 $267 forward 7 unknown #
loop $-1 $-1 $164 $97 #
plane-surface $-1 -29.679175691724367 -26.926607932197712 3.4553458994487087 0 -0.81915205242281985 0.57357642473473569 1 0 0 forward_v I I I I #
loop $-1 $-1 $268 $63 #
coedge $-1 $162 $162 $163 $269 reversed $98 $-1 #
coedge $-1 $163 $163 $162 $269 forward $100 $-1 #
coedge $-1 $164 $164 $101 $165 forward $159 $-1 #
edge $-1 $270 -2.8981343250492278e-016 $270 6.2831853071796004 $164 $271 forward 7 unknown #
loop $-1 $-1 $171 $102 #
plane-surface $-1 -29.679175691724367 -26.926607932197712 3.4553458994487087 0 -0.81915205242281985 0.57357642473473569 1 0 0 forward_v I I I I #
loop $-1 $-1 $272 $66 #
coedge $-1 $169 $169 $170 $273 reversed $103 $-1 #
coedge $-1 $170 $170 $169 $273 forward $105 $-1 #
coedge $-1 $171 $171 $106 $172 forward $166 $-1 #
edge $-1 $274 -2.8981343250492278e-016 $274 6.2831853071796004 $171 $275 forward 7 unknown #
loop $-1 $-1 $178 $107 #
plane-surface $-1 -29.679175691724367 -26.926607932197712 3.4553458994487087 0 -0.81915205242281985 0.57357642473473569 1 0 0 forward_v I I I I #
loop $-1 $-1 $276 $69 #
coedge $-1 $176 $176 $177 $277 reversed $108 $-1 #
coedge $-1 $177 $177 $176 $277 forward $110 $-1 #
coedge $-1 $178 $178 $111 $179 forward $173 $-1 #
edge $-1 $278 -2.8981343250492278e-016 $278 6.2831853071796004 $178 $279 forward 7 unknown #
face $-1 $280 $281 $27 $-1 $282 reversed single #
loop $-1 $-1 $283 $112 #
plane-surface $-1 -45.558030945768607 0 0 1 0 0 0 0 -1 forward_v I I I I #
coedge $-1 $284 $191 $285 $286 forward $113 $-1 #
coedge $-1 $287 $115 $284 $288 forward $73 $-1 #
coedge $-1 $115 $287 $289 $290 forward $73 $-1 #
coedge $-1 $194 $193 $115 $187 reversed $195 $-1 #
edge $-1 $291 -26.926607932197708 $292 26.926607932197708 $186 $293 forward 7 unknown #
coedge $-1 $117 $116 $294 $295 forward $46 $-1 #
coedge $-1 $296 $297 $116 $190 reversed $281 $-1 #
edge $-1 $197 -45.558030945768607 $298 45.558030945768607 $189 $299 forward 7 unknown #
coedge $-1 $183 $300 $117 $192 reversed $113 $-1 #
edge $-1 $301 -45.558030945768607 $196 45.558030945768607 $191 $302 forward 7 unknown #
coedge $-1 $186 $118 $300 $303 forward $195 $-1 #
coedge $-1 $118 $186 $296 $304 reversed $195 $-1 #
loop $-1 $-1 $193 $280 #
vertex $-1 $119 $305 #
vertex $-1 $119 $306 #
straight-curve $-1 45.558030945768607 0 7.5503303226121572 0 1 0 I I #
face $-1 $307 $308 $28 $-1 $309 reversed single #
loop $-1 $-1 $204 $120 #
plane-surface $-1 0 -26.926607932197708 0 0 1 0 0 0 1 forward_v I I I I #
coedge $-1 $310 $311 $203 $312 forward $121 $-1 #
coedge $-1 $211 $123 $202 $312 reversed $77 $-1 #
coedge $-1 $209 $313 $123 $205 forward $200 $-1 #
edge $-1 $314 -4.875017426676 $212 -0.47560836519631433 $204 $315 forward 7 unknown #
coedge $-1 $125 $124 $316 $317 reversed $49 $-1 #
coedge $-1 $318 $319 $124 $208 forward $320 $-1 #
edge $-1 $321 -25.013950807624383 $213 -16.074209468664066 $207 $322 forward 7 unknown #
coedge $-1 $323 $204 $125 $210 forward $200 $-1 #
edge $-1 $212 16.074209468664066 $324 25.013950807624383 $209 $325 forward 7 unknown #
coedge $-1 $126 $203 $318 $326 reversed $77 $-1 #
vertex $-1 $210 $327 #
vertex $-1 $208 $328 #
straight-curve $-1 -36.61828960680829 0 -3.1509212611324715 0 1 0 I I #
face $-1 $329 $330 $29 $-1 $331 reversed single #
loop $-1 $-1 $332 $128 #
plane-surface $-1 0 0 -7.5503303226121572 0 0 1 1 0 0 forward_v I I I I #
coedge $-1 $333 $334 $133 $226 forward $129 $-1 #
coedge $-1 $335 $131 $332 $336 reversed $81 $-1 #
coedge $-1 $131 $335 $223 $337 reversed $81 $-1 #
coedge $-1 $224 $338 $131 $222 forward $330 $-1 #
edge $-1 $339 -4.875017426676 $340 -0.47560836519631433 $221 $341 forward 7 unknown #
coedge $-1 $133 $132 $220 $337 forward $52 $-1 #
coedge $-1 $342 $221 $132 $225 forward $330 $-1 #
edge $-1 $340 16.074209468664066 $230 25.013950807624383 $224 $343 forward 7 unknown #
edge $-1 $231 -25.013950807624383 $344 -16.074209468664066 $218 $345 forward 7 unknown #
coedge $-1 $346 $134 $334 $347 forward $229 $-1 #
coedge $-1 $134 $346 $342 $348 reversed $229 $-1 #
loop $-1 $-1 $134 $329 #
vertex $-1 $348 $349 #
vertex $-1 $347 $350 #
straight-curve $-1 45.558030945768607 0 -3.1509212611324715 0 -1 0 I I #
face $-1 $-1 $351 $30 $-1 $352 forward single #
loop $-1 $-1 $142 $136 #
plane-surface $-1 0 26.926607932197708 0 0 -1 0 0 0 -1 forward_v I I I I #
coedge $-1 $353 $354 $355 $356 reversed $137 $-1 #
coedge $-1 $357 $139 $141 $243 forward $85 $-1 #
coedge $-1 $139 $357 $353 $358 forward $85 $-1 #
coedge $-1 $355 $142 $139 $240 forward $234 $-1 #
edge $-1 $246 8.373191497344628 $359 21.621129238757312 $239 $360 forward 7 unknown #
coedge $-1 $361 $362 $140 $242 forward $351 $-1 #
edge $-1 $363 5.4324830035012273 $245 12.156283883756425 $241 $364 forward 7 unknown #
edge $-1 $246 -53.85321586439543 $363 -45.924655037014865 $141 $365 forward 7 unknown #
coedge $-1 $142 $355 $361 $366 reversed $234 $-1 #
vertex $-1 $366 $367 #
vertex $-1 $143 $368 #
straight-curve $-1 -23.370351865395598 26.926607932197708 54.578746234668145 0 0 -1 I I #
coedge $-1 $248 $248 $-1 $369 reversed $146 $-1 #
edge $-1 $370 0 $370 6.2831853071796004 $147 $371 forward 7 unknown #
vertex $-1 $150 $372 #
ellipse-curve $-1 -29.99432073610194 23.564707492070106 5.4495817348372535 0 0.52991927123019833 0.84804809178421925 1 0 0 1 I I #
face $-1 $-1 $264 $32 $-1 $373 reversed single #
loop $-1 $-1 $374 $151 #
plane-surface $-1 0 0 7.5503303226121572 0 0 1 1 0 0 forward_v I I I I #
coedge $-1 $375 $376 $377 $378 reversed $152 $-1 #
coedge $-1 $379 $154 $156 $262 forward $94 $-1 #
coedge $-1 $154 $379 $375 $380 forward $94 $-1 #
coedge $-1 $377 $157 $154 $259 forward $264 $-1 #
edge $-1 $266 -21.778701760946099 $381 -7.900473930778265 $258 $382 forward 7 unknown #
coedge $-1 $383 $384 $155 $261 forward $253 $-1 #
edge $-1 $385 -26.722989462878232 $265 -23.855650587469842 $260 $386 forward 7 unknown #
edge $-1 $266 6.0392952747751599e-015 $385 4.9990528755334793 $156 $387 forward 7 unknown #
coedge $-1 $157 $377 $383 $388 reversed $264 $-1 #
loop $-1 $-1 $377 $252 #
vertex $-1 $388 $389 #
vertex $-1 $158 $390 #
straight-curve $-1 -36.618289606808283 -26.926607932197712 27.85868545755276 0 0 -1 I I #
coedge $-1 $268 $268 $-1 $391 reversed $161 $-1 #
edge $-1 $392 0 $392 6.2831853071796004 $162 $393 forward 7 unknown #
vertex $-1 $165 $394 #
ellipse-curve $-1 -33.842644040774715 -25.492938494493515 5.5028381110304343 0 -0.81915205242281985 0.57357642473473569 0.5 0 0 1 I I #
coedge $-1 $272 $272 $-1 $395 reversed $168 $-1 #
edge $-1 $396 0 $396 6.2831853071796004 $169 $397 forward 7 unknown #
vertex $-1 $172 $398 #
ellipse-curve $-1 -29.679175691724367 -25.492938494493515 5.5028381110304343 0 -0.81915205242281985 0.57357642473473569 0.5 0 0 1 I I #
coedge $-1 $276 $276 $-1 $399 reversed $175 $-1 #
edge $-1 $400 0 $400 6.2831853071796004 $176 $401 forward 7 unknown #
vertex $-1 $179 $402 #
ellipse-curve $-1 -25.515707342674016 -25.492938494493515 5.5028381110304343 0 -0.81915205242281985 0.57357642473473569 0.5 0 0 1 I I #
face $-1 $-1 $195 $27 $-1 $403 reversed single #
loop $-1 $-1 $296 $180 #
plane-surface $-1 0 26.926607932197708 0 0 -1 0 0 0 -1 forward_v I I I I #
coedge $-1 $404 $294 $297 $405 forward $181 $-1 #
coedge $-1 $300 $183 $184 $288 reversed $113 $-1 #
coedge $-1 $294 $404 $183 $286 reversed $181 $-1 #
edge $-1 $301 -7.5503303226121572 $406 7.5503303226121572 $285 $407 forward 7 unknown #
coedge $-1 $185 $184 $404 $408 forward $73 $-1 #
edge $-1 $292 -45.558030945768607 $406 45.558030945768607 $284 $409 forward 7 unknown #
coedge $-1 $297 $296 $185 $290 reversed $281 $-1 #
edge $-1 $410 -45.558030945768607 $291 45.558030945768607 $289 $411 forward 7 unknown #
vertex $-1 $187 $412 #
vertex $-1 $303 $413 #
straight-curve $-1 45.558030945768607 0 -7.5503303226121572 0 -1 0 I I #
coedge $-1 $283 $285 $188 $295 reversed $181 $-1 #
edge $-1 $298 -26.926607932197708 $301 26.926607932197708 $294 $414 forward 7 unknown #
coedge $-1 $289 $189 $194 $304 forward $281 $-1 #
coedge $-1 $189 $289 $283 $405 reversed $281 $-1 #
vertex $-1 $190 $415 #
straight-curve $-1 0 26.926607932197708 7.5503303226121572 -1 0 0 I I #
coedge $-1 $191 $284 $193 $303 reversed $113 $-1 #
vertex $-1 $295 $416 #
straight-curve $-1 0 -26.926607932197708 7.5503303226121572 1 0 0 I I #
edge $-1 $196 -7.5503303226121572 $292 7.5503303226121572 $193 $417 forward 7 unknown #
edge $-1 $197 -7.5503303226121572 $291 7.5503303226121572 $194 $418 forward 7 unknown #
point $-1 45.558030945768607 -26.926607932197708 7.5503303226121572 #
point $-1 45.558030945768607 26.926607932197708 7.5503303226121572 #
face $-1 $-1 $320 $28 $-1 $419 reversed single #
loop $-1 $-1 $316 $199 #
plane-surface $-1 -45.558030945768607 0 0 1 0 0 0 0 -1 forward_v I I I I #
coedge $-1 $420 $202 $313 $421 forward $121 $-1 #
coedge $-1 $202 $420 $422 $423 forward $121 $-1 #
edge $-1 $424 -26.926607932197708 $314 26.926607932197708 $202 $425 forward 7 unknown #
coedge $-1 $204 $323 $310 $421 reversed $200 $-1 #
vertex $-1 $421 $426 #
straight-curve $-1 -36.61828960680829 -26.926607932197708 -2.6753128959361572 0 0 1 I I #
coedge $-1 $427 $428 $206 $317 forward $308 $-1 #
edge $-1 $324 -26.926607932197708 $321 26.926607932197708 $316 $429 forward 7 unknown #
coedge $-1 $422 $207 $211 $326 forward $320 $-1 #
coedge $-1 $207 $422 $427 $430 reversed $320 $-1 #
loop $-1 $-1 $318 $307 #
vertex $-1 $430 $431 #
straight-curve $-1 -20.544080138144224 26.926607932197708 -3.1509212611324715 1 0 0 I I #
coedge $-1 $313 $209 $428 $432 forward $200 $-1 #
vertex $-1 $432 $433 #
straight-curve $-1 -20.544080138144224 -26.926607932197708 -3.1509212611324715 -1 0 0 I I #
edge $-1 $213 0.47560836519631433 $424 4.875017426676 $318 $434 forward 7 unknown #
point $-1 -36.61828960680829 -26.926607932197708 -3.1509212611324715 #
point $-1 -36.61828960680829 26.926607932197708 -3.1509212611324715 #
face $-1 $-1 $229 $29 $-1 $435 reversed single #
loop $-1 $-1 $224 $215 #
plane-surface $-1 0 26.926607932197708 0 0 -1 0 0 0 -1 forward_v I I I I #
coedge $-1 $436 $437 $219 $336 forward $216 $-1 #
coedge $-1 $438 $218 $335 $439 forward $129 $-1 #
coedge $-1 $218 $438 $227 $347 reversed $129 $-1 #
coedge $-1 $220 $219 $333 $439 reversed $81 $-1 #
edge $-1 $440 -26.926607932197708 $339 26.926607932197708 $332 $441 forward 7 unknown #
edge $-1 $340 -26.926607932197708 $344 26.926607932197708 $220 $442 forward 7 unknown #
coedge $-1 $221 $342 $436 $443 reversed $330 $-1 #
vertex $-1 $443 $444 #
vertex $-1 $225 $445 #
straight-curve $-1 36.61828960680829 26.926607932197708 -2.6753128959361572 0 0 1 I I #
coedge $-1 $338 $224 $228 $348 forward $330 $-1 #
straight-curve $-1 20.544080138144224 26.926607932197708 -3.1509212611324715 1 0 0 I I #
vertex $-1 $226 $446 #
straight-curve $-1 20.544080138144224 -26.926607932197708 -3.1509212611324715 -1 0 0 I I #
coedge $-1 $228 $227 $447 $448 reversed $229 $-1 #
edge $-1 $231 3.1509212611324715 $449 7.5503303226121572 $227 $450 forward 7 unknown #
edge $-1 $230 3.1509212611324715 $451 7.5503303226121572 $228 $452 forward 7 unknown #
point $-1 45.558030945768607 26.926607932197708 -3.1509212611324715 #
point $-1 45.558030945768607 -26.926607932197708 -3.1509212611324715 #
loop $-1 $-1 $241 $233 #
plane-surface $-1 0 0 7.5503303226121572 0 0 1 1 0 0 forward_v I I I I #
coedge $-1 $354 $236 $238 $358 reversed $137 $-1 #
coedge $-1 $236 $353 $453 $454 reversed $137 $-1 #
coedge $-1 $244 $239 $236 $356 forward $234 $-1 #
edge $-1 $359 -51.229913087605794 $455 -47.028415912055991 $355 $456 forward 7 unknown #
coedge $-1 $238 $237 $362 $457 reversed $85 $-1 #
edge $-1 $458 45.924655037014865 $359 53.85321586439543 $353 $459 forward 7 unknown #
vertex $-1 $240 $460 #
straight-curve $-1 -14.99716036805097 26.926607932197708 3.3488331470623542 -1 0 0 I I #
coedge $-1 $453 $241 $244 $366 forward $351 $-1 #
coedge $-1 $241 $453 $357 $457 forward $351 $-1 #
vertex $-1 $242 $461 #
straight-curve $-1 -23.370351865395598 14.770324048441283 7.5503303226121545 0 1 0 I I #
straight-curve $-1 -23.370351865395598 -18.743509018046478 31.886690051325331 0 -0.84804809178421925 0.52991927123019833 I I #
edge $-1 $245 23.370351865395598 $455 36.618289606808283 $244 $462 forward 7 unknown #
point $-1 -23.370351865395598 26.926607932197708 7.5503303226121572 #
point $-1 -23.370351865395598 26.926607932197708 3.3488331470623507 #
edge $-1 $463 1 $463 0 $248 $-1 forward 7 unknown #
vertex $-1 $249 $464 #
ellipse-curve $-1 -29.99432073610194 22.361662823118319 3.5243078464820137 0 0.52991927123019833 0.84804809178421925 1 0 0 1 I I #
point $-1 -28.99432073610194 23.564707492070106 5.4495817348372571 #
plane-surface $-1 0 -26.926607932197708 0 0 1 0 0 0 1 forward_v I I I I #
coedge $-1 $384 $383 $376 $465 forward $253 $-1 #
coedge $-1 $376 $255 $257 $380 reversed $152 $-1 #
coedge $-1 $255 $375 $374 $465 reversed $152 $-1 #
coedge $-1 $263 $258 $255 $378 forward $264 $-1 #
edge $-1 $381 -24.403339558104047 $466 -20.308355134940602 $377 $467 forward 7 unknown #
coedge $-1 $257 $256 $384 $468 reversed $94 $-1 #
edge $-1 $469 -4.9990528755334793 $381 -6.0392952747751599e-015 $375 $470 forward 7 unknown #
vertex $-1 $259 $471 #
straight-curve $-1 -14.839587845862184 -26.926607932197708 3.4553458994487167 1 0 0 I I #
coedge $-1 $374 $260 $263 $388 forward $253 $-1 #
coedge $-1 $260 $374 $379 $468 forward $253 $-1 #
vertex $-1 $261 $472 #
straight-curve $-1 -36.618289606808283 -50.78225851966755 7.5503303226121581 0 -1 0 I I #
straight-curve $-1 -36.618289606808283 -26.926607932197712 3.4553458994487087 0 0.57357642473473569 0.81915205242281985 I I #
edge $-1 $265 -36.618289606808283 $466 -22.740061776640449 $263 $473 forward 7 unknown #
point $-1 -36.618289606808283 -26.926607932197708 7.5503303226121572 #
point $-1 -36.618289606808283 -26.926607932197708 3.4553458994487136 #
edge $-1 $474 1 $474 0 $268 $-1 forward 7 unknown #
vertex $-1 $269 $475 #
ellipse-curve $-1 -33.842644040774715 -24.673786442070693 4.9292616862956962 0 -0.81915205242281985 0.57357642473473569 0.5 0 0 1 I I #
point $-1 -33.342644040774715 -25.492938494493512 5.5028381110304316 #
edge $-1 $476 1 $476 0 $272 $-1 forward 7 unknown #
vertex $-1 $273 $477 #
ellipse-curve $-1 -29.679175691724367 -24.673786442070693 4.9292616862956962 0 -0.81915205242281985 0.57357642473473569 0.5 0 0 1 I I #
point $-1 -29.179175691724367 -25.492938494493512 5.5028381110304316 #
edge $-1 $478 1 $478 0 $276 $-1 forward 7 unknown #
vertex $-1 $277 $479 #
ellipse-curve $-1 -25.515707342674016 -24.673786442070693 4.9292616862956962 0 -0.81915205242281985 0.57357642473473569 0.5 0 0 1 I I #
point $-1 -25.015707342674016 -25.492938494493512 5.5028381110304316 #
plane-surface $-1 45.558030945768607 0 0 -1 0 0 0 0 1 forward_v I I I I #
coedge $-1 $285 $283 $287 $408 reversed $181 $-1 #
edge $-1 $298 -7.5503303226121572 $410 7.5503303226121572 $297 $480 forward 7 unknown #
vertex $-1 $408 $481 #
straight-curve $-1 -45.558030945768607 -26.926607932197708 0 0 0 -1 I I #
edge $-1 $406 -26.926607932197708 $410 26.926607932197708 $404 $482 forward 7 unknown #
straight-curve $-1 0 -26.926607932197708 -7.5503303226121572 -1 0 0 I I #
vertex $-1 $290 $483 #
straight-curve $-1 0 26.926607932197708 -7.5503303226121572 1 0 0 I I #
point $-1 45.558030945768607 26.926607932197708 -7.5503303226121572 #
point $-1 45.558030945768607 -26.926607932197708 -7.5503303226121572 #
straight-curve $-1 -45.558030945768607 0 7.5503303226121572 0 -1 0 I I #
point $-1 -45.558030945768607 26.926607932197708 7.5503303226121572 #
point $-1 -45.558030945768607 -26.926607932197708 7.5503303226121572 #
straight-curve $-1 45.558030945768607 -26.926607932197708 0 0 0 -1 I I #
straight-curve $-1 45.558030945768607 26.926607932197708 0 0 0 -1 I I #
plane-surface $-1 0 26.926607932197708 0 0 -1 0 0 0 -1 forward_v I I I I #
coedge $-1 $311 $310 $484 $485 forward $121 $-1 #
edge $-1 $314 36.61828960680829 $486 45.558030945768607 $313 $487 forward 7 unknown #
coedge $-1 $319 $318 $311 $423 reversed $320 $-1 #
edge $-1 $488 -45.558030945768607 $424 -36.61828960680829 $422 $489 forward 7 unknown #
vertex $-1 $326 $490 #
straight-curve $-1 -36.61828960680829 0 -7.5503303226121572 0 -1 0 I I #
point $-1 -36.61828960680829 -26.926607932197708 -7.5503303226121572 #
coedge $-1 $484 $316 $319 $430 forward $308 $-1 #
coedge $-1 $316 $484 $323 $432 reversed $308 $-1 #
straight-curve $-1 -45.558030945768607 0 -3.1509212611324715 0 1 0 I I #
edge $-1 $321 3.1509212611324715 $488 7.5503303226121572 $319 $491 forward 7 unknown #
point $-1 -45.558030945768607 26.926607932197708 -3.1509212611324715 #
edge $-1 $324 3.1509212611324715 $486 7.5503303226121572 $428 $492 forward 7 unknown #
point $-1 -45.558030945768607 -26.926607932197708 -3.1509212611324715 #
straight-curve $-1 -36.61828960680829 26.926607932197708 -2.6753128959361572 0 0 -1 I I #
plane-surface $-1 45.558030945768607 0 0 -1 0 0 0 0 1 forward_v I I I I #
coedge $-1 $447 $332 $338 $443 forward $216 $-1 #
coedge $-1 $332 $447 $438 $493 forward $216 $-1 #
coedge $-1 $334 $333 $437 $493 reversed $129 $-1 #
edge $-1 $344 0.47560836519631433 $440 4.875017426676 $333 $494 forward 7 unknown #
vertex $-1 $336 $495 #
straight-curve $-1 36.61828960680829 0 -7.5503303226121572 0 1 0 I I #
straight-curve $-1 36.61828960680829 0 -3.1509212611324715 0 -1 0 I I #
edge $-1 $339 36.61828960680829 $451 45.558030945768607 $338 $496 forward 7 unknown #
point $-1 36.61828960680829 26.926607932197708 -7.5503303226121572 #
point $-1 36.61828960680829 26.926607932197708 -3.1509212611324715 #
point $-1 36.61828960680829 -26.926607932197708 -3.1509212611324715 #
coedge $-1 $437 $436 $346 $448 forward $216 $-1 #
edge $-1 $451 -26.926607932197708 $449 26.926607932197708 $346 $497 forward 7 unknown #
vertex $-1 $347 $498 #
straight-curve $-1 45.558030945768607 -26.926607932197708 0 0 0 -1 I I #
vertex $-1 $448 $499 #
straight-curve $-1 45.558030945768607 26.926607932197708 0 0 0 -1 I I #
coedge $-1 $362 $361 $354 $454 forward $351 $-1 #
edge $-1 $455 -12.156283883756425 $458 -5.4324830035012273 $453 $500 forward 7 unknown #
vertex $-1 $454 $501 #
straight-curve $-1 -36.618289606808283 26.926607932197708 54.578746234668145 0 0 1 I I #
edge $-1 $458 -21.621129238757312 $363 -8.373191497344628 $362 $502 forward 7 unknown #
vertex $-1 $457 $503 #
straight-curve $-1 -36.618289606808283 -18.743509018046478 31.886690051325331 0 0.84804809178421925 -0.52991927123019833 I I #
point $-1 -36.618289606808283 26.926607932197708 3.3488331470623507 #
point $-1 -23.370351865395598 20.202807051942511 7.5503303226121581 #
straight-curve $-1 0 26.926607932197708 7.5503303226121572 -1 0 0 I I #
vertex $-1 $369 $504 #
point $-1 -28.99432073610194 22.361662823118319 3.5243078464820137 #
edge $-1 $466 23.855650587469842 $469 26.722989462878232 $374 $505 forward 7 unknown #
vertex $-1 $378 $506 #
straight-curve $-1 -22.740061776640449 -26.926607932197712 27.85868545755276 0 0 1 I I #
edge $-1 $469 7.900473930778265 $385 21.778701760946099 $384 $507 forward 7 unknown #
vertex $-1 $468 $508 #
straight-curve $-1 -22.740061776640449 -26.926607932197712 3.4553458994487087 0 -0.57357642473473569 -0.81915205242281985 I I #
point $-1 -22.740061776640449 -26.926607932197708 3.4553458994487136 #
point $-1 -36.618289606808283 -24.059269056789319 7.5503303226121572 #
straight-curve $-1 0 -26.926607932197708 7.5503303226121572 1 0 0 I I #
vertex $-1 $391 $509 #
point $-1 -33.342644040774715 -24.673786442070693 4.9292616862956962 #
vertex $-1 $395 $510 #
point $-1 -29.179175691724367 -24.673786442070693 4.9292616862956962 #
vertex $-1 $399 $511 #
point $-1 -25.015707342674016 -24.673786442070693 4.9292616862956962 #
straight-curve $-1 -45.558030945768607 26.926607932197708 0 0 0 -1 I I #
point $-1 -45.558030945768607 -26.926607932197708 -7.5503303226121572 #
straight-curve $-1 -45.558030945768607 0 -7.5503303226121572 0 1 0 I I #
point $-1 -45.558030945768607 26.926607932197708 -7.5503303226121572 #
coedge $-1 $428 $427 $420 $485 reversed $308 $-1 #
edge $-1 $486 -26.926607932197708 $488 26.926607932197708 $484 $512 forward 7 unknown #
vertex $-1 $485 $513 #
straight-curve $-1 0 -26.926607932197708 -7.5503303226121572 -1 0 0 I I #
vertex $-1 $423 $514 #
straight-curve $-1 0 26.926607932197708 -7.5503303226121572 1 0 0 I I #
point $-1 -36.61828960680829 26.926607932197708 -7.5503303226121572 #
straight-curve $-1 -45.558030945768607 26.926607932197708 0 0 0 -1 I I #
straight-curve $-1 -45.558030945768607 -26.926607932197708 0 0 0 -1 I I #
edge $-1 $449 -45.558030945768607 $440 -36.61828960680829 $438 $515 forward 7 unknown #
straight-curve $-1 36.61828960680829 -26.926607932197708 -2.6753128959361572 0 0 -1 I I #
point $-1 36.61828960680829 -26.926607932197708 -7.5503303226121572 #
straight-curve $-1 0 26.926607932197708 -7.5503303226121572 1 0 0 I I #
straight-curve $-1 45.558030945768607 0 -7.5503303226121572 0 -1 0 I I #
point $-1 45.558030945768607 -26.926607932197708 -7.5503303226121572 #
point $-1 45.558030945768607 26.926607932197708 -7.5503303226121572 #
straight-curve $-1 -36.618289606808283 14.770324048441283 7.5503303226121545 0 -1 0 I I #
point $-1 -36.618289606808283 26.926607932197708 7.5503303226121572 #
straight-curve $-1 -14.99716036805097 20.202807051942511 7.5503303226121545 1 0 0 I I #
point $-1 -36.618289606808283 20.202807051942511 7.5503303226121581 #
point $-1 -29.99432073610194 21.83174355188812 2.676259754697794 #
straight-curve $-1 -22.740061776640449 -50.78225851966755 7.5503303226121581 0 1 0 I I #
point $-1 -22.740061776640449 -26.926607932197708 7.5503303226121572 #
straight-curve $-1 -14.839587845862184 -24.059269056789322 7.5503303226121572 -1 0 0 I I #
point $-1 -22.740061776640449 -24.059269056789319 7.5503303226121572 #
point $-1 -33.842644040774715 -24.264210415859282 4.6424734739283284 #
point $-1 -29.679175691724367 -24.264210415859282 4.6424734739283284 #
point $-1 -25.515707342674016 -24.264210415859282 4.6424734739283284 #
straight-curve $-1 -45.558030945768607 0 -7.5503303226121572 0 1 0 I I #
point $-1 -45.558030945768607 -26.926607932197708 -7.5503303226121572 #
point $-1 -45.558030945768607 26.926607932197708 -7.5503303226121572 #
straight-curve $-1 0 -26.926607932197708 -7.5503303226121572 -1 0 0 I I #
End-of-ACIS-data 