500 0 18 0           
7 Unknown 11 ACIS 5.0 NT 24 Fri Mar 26 14:47:55 1999 
-1 9.9999999999999995e-007 1e-010 
body $-1 $18 $-1 $19 #
body $-1 $20 $-1 $21 #
body $-1 $22 $-1 $23 #
body $-1 $24 $-1 $25 #
body $-1 $26 $-1 $27 #
body $-1 $28 $-1 $29 #
body $-1 $30 $-1 $31 #
body $-1 $32 $-1 $33 #
body $-1 $34 $-1 $35 #
body $-1 $36 $-1 $37 #
body $-1 $38 $-1 $39 #
body $-1 $40 $-1 $41 #
body $-1 $42 $-1 $43 #
body $-1 $44 $-1 $45 #
body $-1 $46 $-1 $47 #
body $-1 $48 $-1 $49 #
body $-1 $50 $-1 $51 #
body $-1 $52 $-1 $53 #
lump $-1 $-1 $54 $0 #
transform $-1 1 0 0 0 1 0 0 0 1 69.573656422620317 32.163510467539069 9.8792342128236861 1 rotate no_reflect no_shear #
lump $-1 $-1 $55 $1 #
transform $-1 1 0 0 0 1 0 0 0 1 69.573656422620317 32.163510467539069 9.8792342128236861 1 rotate no_reflect no_shear #
lump $-1 $-1 $56 $2 #
transform $-1 1 0 0 0 1 0 0 0 1 69.573656422620317 32.163510467539069 9.8792342128236861 1 rotate no_reflect no_shear #
lump $-1 $-1 $57 $3 #
transform $-1 1 0 0 0 1 0 0 0 1 69.573656422620317 32.163510467539069 9.8792342128236861 1 rotate no_reflect no_shear #
lump $-1 $-1 $58 $4 #
transform $-1 1 0 0 0 1 0 0 0 1 69.573656422620317 32.163510467539069 9.8792342128236861 1 rotate no_reflect no_shear #
lump $-1 $-1 $59 $5 #
transform $-1 1 0 0 0 1 0 0 0 1 69.573656422620317 32.163510467539069 9.8792342128236861 1 rotate no_reflect no_shear #
lump $-1 $-1 $60 $6 #
transform $-1 1 0 0 0 1 0 0 0 1 69.573656422620317 32.163510467539069 9.8792342128236861 1 rotate no_reflect no_shear #
lump $-1 $-1 $61 $7 #
transform $-1 1 0 0 0 1 0 0 0 1 69.573656422620317 32.163510467539069 9.8792342128236861 1 rotate no_reflect no_shear #
lump $-1 $-1 $62 $8 #
transform $-1 1 0 0 0 1 0 0 0 1 69.573656422620317 32.163510467539069 9.8792342128236861 1 rotate no_reflect no_shear #
lump $-1 $-1 $63 $9 #
transform $-1 1 0 0 0 1 0 0 0 1 69.573656422620317 32.163510467539069 9.8792342128236861 1 rotate no_reflect no_shear #
lump $-1 $-1 $64 $10 #
transform $-1 1 0 0 0 1 0 0 0 1 69.573656422620317 32.163510467539069 9.8792342128236861 1 rotate no_reflect no_shear #
lump $-1 $-1 $65 $11 #
transform $-1 1 0 0 0 1 0 0 0 1 69.573656422620317 32.163510467539069 9.8792342128236861 1 rotate no_reflect no_shear #
lump $-1 $-1 $66 $12 #
transform $-1 1 0 0 0 1 0 0 0 1 69.573656422620317 32.163510467539069 9.8792342128236861 1 rotate no_reflect no_shear #
lump $-1 $-1 $67 $13 #
transform $-1 1 0 0 0 1 0 0 0 1 69.573656422620317 32.163510467539069 9.8792342128236861 1 rotate no_reflect no_shear #
lump $-1 $-1 $68 $14 #
transform $-1 1 0 0 0 1 0 0 0 1 69.573656422620317 32.163510467539069 9.8792342128236861 1 rotate no_reflect no_shear #
lump $-1 $-1 $69 $15 #
transform $-1 1 0 0 0 1 0 0 0 1 69.573656422620317 32.163510467539069 9.8792342128236861 1 rotate no_reflect no_shear #
lump $-1 $-1 $70 $16 #
transform $-1 1 0 0 0 1 0 0 0 1 69.573656422620317 32.163510467539069 9.8792342128236861 1 rotate no_reflect no_shear #
lump $-1 $-1 $71 $17 #
transform $-1 1 0 0 0 1 0 0 0 1 69.573656422620317 32.163510467539069 9.8792342128236861 1 rotate no_reflect no_shear #
shell $-1 $-1 $-1 $72 $-1 $18 #
shell $-1 $-1 $-1 $73 $-1 $20 #
shell $-1 $-1 $-1 $74 $-1 $22 #
shell $-1 $-1 $-1 $75 $-1 $24 #
shell $-1 $-1 $-1 $76 $-1 $26 #
shell $-1 $-1 $-1 $77 $-1 $28 #
shell $-1 $-1 $-1 $78 $-1 $30 #
shell $-1 $-1 $-1 $79 $-1 $32 #
shell $-1 $-1 $-1 $80 $-1 $34 #
shell $-1 $-1 $-1 $81 $-1 $36 #
shell $-1 $-1 $-1 $82 $-1 $38 #
shell $-1 $-1 $-1 $83 $-1 $40 #
shell $-1 $-1 $-1 $84 $-1 $42 #
shell $-1 $-1 $-1 $85 $-1 $44 #
shell $-1 $-1 $-1 $86 $-1 $46 #
shell $-1 $-1 $-1 $87 $-1 $48 #
shell $-1 $-1 $-1 $88 $-1 $50 #
shell $-1 $-1 $-1 $89 $-1 $52 #
face $-1 $90 $91 $54 $-1 $92 forward single #
face $-1 $93 $94 $55 $-1 $95 reversed single #
face $-1 $96 $97 $56 $-1 $98 reversed single #
face $-1 $99 $100 $57 $-1 $101 forward single #
face $-1 $102 $103 $58 $-1 $104 forward single #
face $-1 $105 $106 $59 $-1 $107 forward single #
face $-1 $108 $109 $60 $-1 $110 reversed single #
face $-1 $111 $112 $61 $-1 $113 forward single #
face $-1 $114 $115 $62 $-1 $116 forward single #
face $-1 $117 $118 $63 $-1 $119 forward single #
face $-1 $120 $121 $64 $-1 $122 reversed single #
face $-1 $123 $124 $65 $-1 $125 forward single #
face $-1 $126 $127 $66 $-1 $128 forward single #
face $-1 $129 $130 $67 $-1 $131 forward single #
face $-1 $132 $133 $68 $-1 $134 reversed single #
face $-1 $135 $136 $69 $-1 $137 forward single #
face $-1 $138 $139 $70 $-1 $140 forward single #
face $-1 $141 $142 $71 $-1 $143 forward single #
face $-1 $144 $145 $54 $-1 $146 reversed single #
loop $-1 $-1 $147 $72 #
plane-surface $-1 0 0 9.8792342128236861 0 0 1 1 0 0 forward_v I I I I #
face $-1 $148 $149 $55 $-1 $150 reversed single #
loop $-1 $-1 $151 $73 #
plane-surface $-1 -63.31135195182712 0 6.7397198887130525 0 0 1 1 0 0 forward_v I I I I #
face $-1 $152 $153 $56 $-1 $154 reversed single #
loop $-1 $-1 $155 $74 #
plane-surface $-1 -49.303855065905992 -6.5494564237719715 58.05741013190935 0 0.79863551827123203 0.60181501223851219 1 0 0 forward_v I I I I #
face $-1 $156 $157 $57 $-1 $158 forward single #
loop $-1 $159 $160 $75 #
cone-surface $-1 -53.95097051498275 30.560138541836576 7.980492814581992 0 -0.79863551827123203 -0.60181501223851219 0.5 0 0 1 I I 0 1 0.5 forward I I I I #
face $-1 $161 $162 $58 $-1 $163 forward single #
loop $-1 $164 $165 $76 #
cone-surface $-1 -49.303855065905992 30.560138541836576 7.980492814581992 0 -0.79863551827123203 -0.60181501223851219 0.5 0 0 1 I I 0 1 0.5 forward I I I I #
face $-1 $166 $167 $59 $-1 $168 forward single #
loop $-1 $169 $170 $77 #
cone-surface $-1 -44.656739616829242 30.560138541836576 7.980492814581992 0 -0.79863551827123203 -0.60181501223851219 0.5 0 0 1 I I 0 1 0.5 forward I I I I #
face $-1 $171 $172 $60 $-1 $173 reversed single #
loop $-1 $-1 $174 $78 #
plane-surface $-1 6.2623044707932065 104.57852988643602 141.79835191482391 1 0 0 0 -0.79863551827123203 -0.60181501223851219 forward_v I I I I #
face $-1 $175 $176 $61 $-1 $177 forward single #
loop $-1 $178 $179 $79 #
cone-surface $-1 9.3603814368443778 30.560138541836576 7.980492814581992 0 -0.79863551827123203 -0.60181501223851219 0.5 0 0 1 I I 0 1 0.5 forward I I I I #
face $-1 $180 $181 $62 $-1 $182 forward single #
loop $-1 $183 $184 $80 #
cone-surface $-1 14.007496885921128 30.560138541836576 7.980492814581992 0 -0.79863551827123203 -0.60181501223851219 0.5 0 0 1 I I 0 1 0.5 forward I I I I #
face $-1 $185 $186 $63 $-1 $187 forward single #
loop $-1 $188 $189 $81 #
cone-surface $-1 18.654612334997879 30.560138541836576 7.980492814581992 0 -0.79863551827123203 -0.60181501223851219 0.5 0 0 1 I I 0 1 0.5 forward I I I I #
face $-1 $190 $191 $64 $-1 $192 reversed single #
loop $-1 $-1 $193 $82 #
plane-surface $-1 -41.558662650778068 -143.29149677774708 90.424508211493389 -1 0 0 0 -0.79863551827123203 0.60181501223851219 forward_v I I I I #
face $-1 $194 $195 $65 $-1 $196 forward single #
loop $-1 $197 $198 $83 #
cone-surface $-1 -53.95097051498275 -30.560138541836576 7.9804928145819956 0 0.79863551827123203 -0.60181501223851219 0.5 0 0 1 I I 0 1 0.5 forward I I I I #
face $-1 $199 $200 $66 $-1 $201 forward single #
loop $-1 $202 $203 $84 #
cone-surface $-1 -49.303855065905992 -30.560138541836576 7.9804928145819956 0 0.79863551827123203 -0.60181501223851219 0.5 0 0 1 I I 0 1 0.5 forward I I I I #
face $-1 $204 $205 $67 $-1 $206 forward single #
loop $-1 $207 $208 $85 #
cone-surface $-1 -44.656739616829242 -30.560138541836576 7.9804928145819956 0 0.79863551827123203 -0.60181501223851219 0.5 0 0 1 I I 0 1 0.5 forward I I I I #
face $-1 $209 $210 $68 $-1 $211 reversed single #
loop $-1 $-1 $212 $86 #
plane-surface $-1 21.752689301049049 -143.29149677774708 90.424508211493389 -1 0 0 0 -0.79863551827123203 0.60181501223851219 forward_v I I I I #
face $-1 $213 $214 $69 $-1 $215 forward single #
loop $-1 $216 $217 $87 #
cone-surface $-1 9.3603814368443778 -30.560138541836576 7.9804928145819956 0 0.79863551827123203 -0.60181501223851219 0.5 0 0 1 I I 0 1 0.5 forward I I I I #
face $-1 $218 $219 $70 $-1 $220 forward single #
loop $-1 $221 $222 $88 #
cone-surface $-1 14.007496885921128 -30.560138541836576 7.9804928145819956 0 0.79863551827123203 -0.60181501223851219 0.5 0 0 1 I I 0 1 0.5 forward I I I I #
face $-1 $223 $224 $71 $-1 $225 forward single #
loop $-1 $226 $227 $89 #
cone-surface $-1 18.654612334997879 -30.560138541836576 7.9804928145819956 0 0.79863551827123203 -0.60181501223851219 0.5 0 0 1 I I 0 1 0.5 forward I I I I #
face $-1 $228 $229 $54 $-1 $230 reversed single #
loop $-1 $-1 $231 $90 #
plane-surface $-1 0 0 -9.8792342128236861 0 0 1 1 0 0 forward_v I I I I #
coedge $-1 $232 $233 $234 $235 forward $91 $-1 #
face $-1 $236 $237 $55 $-1 $238 reversed single #
loop $-1 $-1 $239 $93 #
plane-surface $-1 -57.049047481033924 0 8.3094770507683684 -1 0 0 0 0 1 forward_v I I I I #
coedge $-1 $240 $241 $242 $243 forward $94 $-1 #
face $-1 $244 $245 $56 $-1 $246 forward single #
loop $-1 $-1 $247 $96 #
plane-surface $-1 -41.558662650778068 104.57852988643602 141.79835191482391 -1 0 0 0 0.79863551827123203 0.60181501223851219 forward_v I I I I #
coedge $-1 $248 $249 $250 $251 reversed $97 $-1 #
face $-1 $-1 $252 $57 $-1 $253 forward single #
loop $-1 $254 $255 $99 #
cone-surface $-1 -53.95097051498275 29.961161903133153 7.529131555403108 0 -0.79863551827123203 -0.60181501223851219 0.25 0 0 1 I I -0.70710678118654746 0.70710678118654746 0.25 forward I I I I #
loop $-1 $-1 $256 $75 #
coedge $-1 $160 $160 $257 $258 reversed $100 $-1 #
face $-1 $-1 $259 $58 $-1 $260 forward single #
loop $-1 $261 $262 $102 #
cone-surface $-1 -49.303855065905992 29.961161903133153 7.529131555403108 0 -0.79863551827123203 -0.60181501223851219 0.25 0 0 1 I I -0.70710678118654746 0.70710678118654746 0.25 forward I I I I #
loop $-1 $-1 $263 $76 #
coedge $-1 $165 $165 $264 $265 reversed $103 $-1 #
face $-1 $-1 $266 $59 $-1 $267 forward single #
loop $-1 $268 $269 $105 #
cone-surface $-1 -44.656739616829242 29.961161903133153 7.529131555403108 0 -0.79863551827123203 -0.60181501223851219 0.25 0 0 1 I I -0.70710678118654746 0.70710678118654746 0.25 forward I I I I #
loop $-1 $-1 $270 $77 #
coedge $-1 $170 $170 $271 $272 reversed $106 $-1 #
face $-1 $273 $274 $60 $-1 $275 reversed single #
loop $-1 $-1 $276 $108 #
plane-surface $-1 14.007496885921128 -6.5494564237719715 58.05741013190935 0 0.79863551827123203 0.60181501223851219 1 0 0 forward_v I I I I #
coedge $-1 $277 $278 $279 $280 reversed $109 $-1 #
face $-1 $-1 $281 $61 $-1 $282 forward single #
loop $-1 $283 $284 $111 #
cone-surface $-1 9.3603814368443778 29.961161903133153 7.529131555403108 0 -0.79863551827123203 -0.60181501223851219 0.25 0 0 1 I I -0.70710678118654746 0.70710678118654746 0.25 forward I I I I #
loop $-1 $-1 $285 $79 #
coedge $-1 $179 $179 $286 $287 reversed $112 $-1 #
face $-1 $-1 $288 $62 $-1 $289 forward single #
loop $-1 $290 $291 $114 #
cone-surface $-1 14.007496885921128 29.961161903133153 7.529131555403108 0 -0.79863551827123203 -0.60181501223851219 0.25 0 0 1 I I -0.70710678118654746 0.70710678118654746 0.25 forward I I I I #
loop $-1 $-1 $292 $80 #
coedge $-1 $184 $184 $293 $294 reversed $115 $-1 #
face $-1 $-1 $295 $63 $-1 $296 forward single #
loop $-1 $297 $298 $117 #
cone-surface $-1 18.654612334997879 29.961161903133153 7.529131555403108 0 -0.79863551827123203 -0.60181501223851219 0.25 0 0 1 I I -0.70710678118654746 0.70710678118654746 0.25 forward I I I I #
loop $-1 $-1 $299 $81 #
coedge $-1 $189 $189 $300 $301 reversed $118 $-1 #
face $-1 $302 $303 $64 $-1 $304 forward single #
loop $-1 $-1 $305 $120 #
plane-surface $-1 -49.303855065905992 -32.163510467539098 6.6835664285788283 0 -0.79863551827123203 0.60181501223851219 1 0 0 forward_v I I I I #
coedge $-1 $306 $307 $308 $309 reversed $121 $-1 #
face $-1 $-1 $310 $65 $-1 $311 forward single #
loop $-1 $312 $313 $123 #
cone-surface $-1 -53.95097051498275 -29.961161903133153 7.5291315554031115 0 0.79863551827123203 -0.60181501223851219 0.25 0 0 1 I I -0.70710678118654746 0.70710678118654746 0.25 forward I I I I #
loop $-1 $-1 $314 $83 #
coedge $-1 $198 $198 $315 $316 reversed $124 $-1 #
face $-1 $-1 $317 $66 $-1 $318 forward single #
loop $-1 $319 $320 $126 #
cone-surface $-1 -49.303855065905992 -29.961161903133153 7.5291315554031115 0 0.79863551827123203 -0.60181501223851219 0.25 0 0 1 I I -0.70710678118654746 0.70710678118654746 0.25 forward I I I I #
loop $-1 $-1 $321 $84 #
coedge $-1 $203 $203 $322 $323 reversed $127 $-1 #
face $-1 $-1 $324 $67 $-1 $325 forward single #
loop $-1 $326 $327 $129 #
cone-surface $-1 -44.656739616829242 -29.961161903133153 7.5291315554031115 0 0.79863551827123203 -0.60181501223851219 0.25 0 0 1 I I -0.70710678118654746 0.70710678118654746 0.25 forward I I I I #
loop $-1 $-1 $328 $85 #
coedge $-1 $208 $208 $329 $330 reversed $130 $-1 #
face $-1 $331 $332 $68 $-1 $333 reversed single #
loop $-1 $-1 $334 $132 #
plane-surface $-1 14.007496885921128 -32.163510467539098 6.6835664285788283 0 -0.79863551827123203 0.60181501223851219 1 0 0 forward_v I I I I #
coedge $-1 $335 $336 $337 $338 reversed $133 $-1 #
face $-1 $-1 $339 $69 $-1 $340 forward single #
loop $-1 $341 $342 $135 #
cone-surface $-1 9.3603814368443778 -29.961161903133153 7.5291315554031115 0 0.79863551827123203 -0.60181501223851219 0.25 0 0 1 I I -0.70710678118654746 0.70710678118654746 0.25 forward I I I I #
loop $-1 $-1 $343 $87 #
coedge $-1 $217 $217 $344 $345 reversed $136 $-1 #
face $-1 $-1 $346 $70 $-1 $347 forward single #
loop $-1 $348 $349 $138 #
cone-surface $-1 14.007496885921128 -29.961161903133153 7.5291315554031115 0 0.79863551827123203 -0.60181501223851219 0.25 0 0 1 I I -0.70710678118654746 0.70710678118654746 0.25 forward I I I I #
loop $-1 $-1 $350 $88 #
coedge $-1 $222 $222 $351 $352 reversed $139 $-1 #
face $-1 $-1 $353 $71 $-1 $354 forward single #
loop $-1 $355 $356 $141 #
cone-surface $-1 18.654612334997879 -29.961161903133153 7.5291315554031115 0 0.79863551827123203 -0.60181501223851219 0.25 0 0 1 I I -0.70710678118654746 0.70710678118654746 0.25 forward I I I I #
loop $-1 $-1 $357 $89 #
coedge $-1 $227 $227 $358 $359 reversed $142 $-1 #
face $-1 $360 $361 $54 $-1 $362 reversed single #
loop $-1 $-1 $363 $144 #
plane-surface $-1 0 -32.163510467539069 0 0 1 0 0 0 1 forward_v I I I I #
coedge $-1 $364 $365 $366 $367 forward $145 $-1 #
coedge $-1 $368 $147 $369 $370 forward $91 $-1 #
coedge $-1 $147 $368 $371 $372 forward $91 $-1 #
coedge $-1 $373 $374 $147 $235 reversed $375 $-1 #
edge $-1 $376 -32.163510467539069 $377 32.163510467539069 $234 $378 forward 7 unknown #
face $-1 $379 $380 $55 $-1 $381 reversed single #
loop $-1 $-1 $382 $148 #
plane-surface $-1 0 32.163510467539069 0 0 -1 0 0 0 -1 forward_v I I I I #
coedge $-1 $242 $383 $384 $385 reversed $149 $-1 #
coedge $-1 $386 $151 $387 $388 reversed $94 $-1 #
coedge $-1 $151 $386 $389 $390 reversed $94 $-1 #
coedge $-1 $391 $239 $151 $243 reversed $149 $-1 #
edge $-1 $392 -32.163510467539069 $393 32.163510467539069 $242 $394 forward 7 unknown #
face $-1 $395 $396 $56 $-1 $397 reversed single #
loop $-1 $-1 $250 $152 #
plane-surface $-1 0 0 9.8792342128236861 0 0 1 1 0 0 forward_v I I I I #
coedge $-1 $398 $399 $400 $401 reversed $153 $-1 #
coedge $-1 $402 $155 $403 $404 reversed $97 $-1 #
coedge $-1 $155 $402 $398 $405 forward $97 $-1 #
coedge $-1 $400 $406 $155 $251 forward $245 $-1 #
edge $-1 $407 -32.397119948080928 $408 -16.906735117825072 $250 $409 forward 7 unknown #
loop $-1 $-1 $257 $156 #
plane-surface $-1 -49.303855065905992 -6.5494564237719715 58.05741013190935 0 0.79863551827123203 0.60181501223851219 1 0 0 forward_v I I I I #
loop $-1 $-1 $410 $99 #
coedge $-1 $255 $255 $256 $411 reversed $157 $-1 #
coedge $-1 $256 $256 $255 $411 forward $159 $-1 #
coedge $-1 $257 $257 $160 $258 forward $252 $-1 #
edge $-1 $412 -1.6001723777748209e-015 $412 6.2831853071795987 $257 $413 forward 7 unknown #
loop $-1 $-1 $264 $161 #
plane-surface $-1 -49.303855065905992 -6.5494564237719715 58.05741013190935 0 0.79863551827123203 0.60181501223851219 1 0 0 forward_v I I I I #
loop $-1 $-1 $414 $102 #
coedge $-1 $262 $262 $263 $415 reversed $162 $-1 #
coedge $-1 $263 $263 $262 $415 forward $164 $-1 #
coedge $-1 $264 $264 $165 $265 forward $259 $-1 #
edge $-1 $416 -1.6001723777748209e-015 $416 6.2831853071795987 $264 $417 forward 7 unknown #
loop $-1 $-1 $271 $166 #
plane-surface $-1 -49.303855065905992 -6.5494564237719715 58.05741013190935 0 0.79863551827123203 0.60181501223851219 1 0 0 forward_v I I I I #
loop $-1 $-1 $418 $105 #
coedge $-1 $269 $269 $270 $419 reversed $167 $-1 #
coedge $-1 $270 $270 $269 $419 forward $169 $-1 #
coedge $-1 $271 $271 $170 $272 forward $266 $-1 #
edge $-1 $420 -1.6001723777748209e-015 $420 6.2831853071795987 $271 $421 forward 7 unknown #
face $-1 $422 $423 $60 $-1 $424 forward single #
loop $-1 $-1 $425 $171 #
plane-surface $-1 21.752689301049049 104.57852988643602 141.79835191482391 -1 0 0 0 0.79863551827123203 0.60181501223851219 forward_v I I I I #
coedge $-1 $426 $427 $428 $429 reversed $172 $-1 #
coedge $-1 $278 $174 $430 $431 reversed $109 $-1 #
coedge $-1 $174 $277 $426 $432 reversed $109 $-1 #
coedge $-1 $428 $433 $174 $280 forward $423 $-1 #
edge $-1 $434 20.125754475678939 $435 22.533862808812643 $279 $436 forward 7 unknown #
loop $-1 $-1 $286 $175 #
plane-surface $-1 14.007496885921128 -6.5494564237719715 58.05741013190935 0 0.79863551827123203 0.60181501223851219 1 0 0 forward_v I I I I #
loop $-1 $-1 $437 $111 #
coedge $-1 $284 $284 $285 $438 reversed $176 $-1 #
coedge $-1 $285 $285 $284 $438 forward $178 $-1 #
coedge $-1 $286 $286 $179 $287 forward $281 $-1 #
edge $-1 $439 -1.6001723777748209e-015 $439 6.2831853071795987 $286 $440 forward 7 unknown #
loop $-1 $-1 $293 $180 #
plane-surface $-1 14.007496885921128 -6.5494564237719715 58.05741013190935 0 0.79863551827123203 0.60181501223851219 1 0 0 forward_v I I I I #
loop $-1 $-1 $441 $114 #
coedge $-1 $291 $291 $292 $442 reversed $181 $-1 #
coedge $-1 $292 $292 $291 $442 forward $183 $-1 #
coedge $-1 $293 $293 $184 $294 forward $288 $-1 #
edge $-1 $443 -1.6001723777748209e-015 $443 6.2831853071795987 $293 $444 forward 7 unknown #
loop $-1 $-1 $300 $185 #
plane-surface $-1 14.007496885921128 -6.5494564237719715 58.05741013190935 0 0.79863551827123203 0.60181501223851219 1 0 0 forward_v I I I I #
loop $-1 $-1 $445 $117 #
coedge $-1 $298 $298 $299 $446 reversed $186 $-1 #
coedge $-1 $299 $299 $298 $446 forward $188 $-1 #
coedge $-1 $300 $300 $189 $301 forward $295 $-1 #
edge $-1 $447 -1.6001723777748209e-015 $447 6.2831853071795987 $300 $448 forward 7 unknown #
face $-1 $449 $450 $64 $-1 $451 forward single #
loop $-1 $-1 $452 $190 #
plane-surface $-1 -57.049047481033924 0 8.3094770507683684 -1 0 0 0 0 1 forward_v I I I I #
coedge $-1 $453 $454 $455 $456 reversed $191 $-1 #
coedge $-1 $307 $193 $457 $458 reversed $121 $-1 #
coedge $-1 $193 $306 $453 $459 reversed $121 $-1 #
coedge $-1 $455 $460 $193 $309 forward $450 $-1 #
edge $-1 $461 39.482237921334473 $462 41.890346254468184 $308 $463 forward 7 unknown #
loop $-1 $-1 $315 $194 #
plane-surface $-1 -49.303855065905992 -32.163510467539098 6.6835664285788283 0 -0.79863551827123203 0.60181501223851219 1 0 0 forward_v I I I I #
loop $-1 $-1 $464 $123 #
coedge $-1 $313 $313 $314 $465 reversed $195 $-1 #
coedge $-1 $314 $314 $313 $465 forward $197 $-1 #
coedge $-1 $315 $315 $198 $316 forward $310 $-1 #
edge $-1 $466 -1.2774866662979251e-015 $466 6.2831853071795996 $315 $467 forward 7 unknown #
loop $-1 $-1 $322 $199 #
plane-surface $-1 -49.303855065905992 -32.163510467539098 6.6835664285788283 0 -0.79863551827123203 0.60181501223851219 1 0 0 forward_v I I I I #
loop $-1 $-1 $468 $126 #
coedge $-1 $320 $320 $321 $469 reversed $200 $-1 #
coedge $-1 $321 $321 $320 $469 forward $202 $-1 #
coedge $-1 $322 $322 $203 $323 forward $317 $-1 #
edge $-1 $470 -1.2774866662979251e-015 $470 6.2831853071795996 $322 $471 forward 7 unknown #
loop $-1 $-1 $329 $204 #
plane-surface $-1 -49.303855065905992 -32.163510467539098 6.6835664285788283 0 -0.79863551827123203 0.60181501223851219 1 0 0 forward_v I I I I #
loop $-1 $-1 $472 $129 #
coedge $-1 $327 $327 $328 $473 reversed $205 $-1 #
coedge $-1 $328 $328 $327 $473 forward $207 $-1 #
coedge $-1 $329 $329 $208 $330 forward $324 $-1 #
edge $-1 $474 -1.2774866662979251e-015 $474 6.2831853071795996 $329 $475 forward 7 unknown #
face $-1 $476 $477 $68 $-1 $478 reversed single #
loop $-1 $-1 $479 $209 #
plane-surface $-1 6.2623044707932065 -143.29149677774708 90.424508211493389 1 0 0 0 0.79863551827123203 -0.60181501223851219 forward_v I I I I #
coedge $-1 $480 $481 $482 $483 reversed $210 $-1 #
coedge $-1 $336 $212 $484 $485 reversed $133 $-1 #
coedge $-1 $212 $335 $480 $486 reversed $133 $-1 #
coedge $-1 $482 $487 $212 $338 forward $488 $-1 #
edge $-1 $489 39.482237921334473 $490 41.890346254468184 $337 $491 forward 7 unknown #
loop $-1 $-1 $344 $213 #
plane-surface $-1 14.007496885921128 -32.163510467539098 6.6835664285788283 0 -0.79863551827123203 0.60181501223851219 1 0 0 forward_v I I I I #
loop $-1 $-1 $492 $135 #
coedge $-1 $342 $342 $343 $493 reversed $214 $-1 #
coedge $-1 $343 $343 $342 $493 forward $216 $-1 #
coedge $-1 $344 $344 $217 $345 forward $339 $-1 #
edge $-1 $494 -1.2774866662979251e-015 $494 6.2831853071795996 $344 $495 forward 7 unknown #
loop $-1 $-1 $351 $218 #
plane-surface $-1 14.007496885921128 -32.163510467539098 6.6835664285788283 0 -0.79863551827123203 0.60181501223851219 1 0 0 forward_v I I I I #
loop $-1 $-1 $496 $138 #
coedge $-1 $349 $349 $350 $497 reversed $219 $-1 #
coedge $-1 $350 $350 $349 $497 forward $221 $-1 #
coedge $-1 $351 $351 $222 $352 forward $346 $-1 #
edge $-1 $498 -1.2774866662979251e-015 $498 6.2831853071795996 $351 $499 forward 7 unknown #
loop $-1 $-1 $358 $223 #
plane-surface $-1 14.007496885921128 -32.163510467539098 6.6835664285788283 0 -0.79863551827123203 0.60181501223851219 1 0 0 forward_v I I I I #
loop $-1 $-1 $500 $141 #
coedge $-1 $356 $356 $357 $501 reversed $224 $-1 #
coedge $-1 $357 $357 $356 $501 forward $226 $-1 #
coedge $-1 $358 $358 $227 $359 forward $353 $-1 #
edge $-1 $502 -1.2774866662979251e-015 $502 6.2831853071795996 $358 $503 forward 7 unknown #
face $-1 $504 $505 $54 $-1 $506 reversed single #
loop $-1 $-1 $507 $228 #
plane-surface $-1 -69.573656422620317 0 0 1 0 0 0 0 -1 forward_v I I I I #
coedge $-1 $508 $371 $509 $510 forward $229 $-1 #
coedge $-1 $511 $231 $508 $512 forward $145 $-1 #
coedge $-1 $231 $511 $513 $514 forward $145 $-1 #
coedge $-1 $374 $373 $231 $367 reversed $375 $-1 #
edge $-1 $515 -32.163510467539069 $516 32.163510467539069 $366 $517 forward 7 unknown #
coedge $-1 $233 $232 $518 $519 forward $91 $-1 #
coedge $-1 $520 $521 $232 $370 reversed $505 $-1 #
edge $-1 $377 -69.573656422620317 $522 69.573656422620317 $369 $523 forward 7 unknown #
coedge $-1 $363 $524 $233 $372 reversed $229 $-1 #
edge $-1 $525 -69.573656422620317 $376 69.573656422620317 $371 $526 forward 7 unknown #
coedge $-1 $366 $234 $524 $527 forward $375 $-1 #
coedge $-1 $234 $366 $520 $528 reversed $375 $-1 #
loop $-1 $-1 $373 $504 #
vertex $-1 $235 $529 #
vertex $-1 $235 $530 #
straight-curve $-1 69.573656422620317 0 9.8792342128236861 0 1 0 I I #
face $-1 $531 $532 $55 $-1 $533 forward single #
loop $-1 $-1 $534 $236 #
plane-surface $-1 -69.573656422620317 0 0 1 0 0 0 0 -1 forward_v I I I I #
coedge $-1 $389 $535 $391 $536 forward $237 $-1 #
coedge $-1 $239 $391 $537 $538 reversed $149 $-1 #
coedge $-1 $539 $387 $239 $385 forward $540 $-1 #
edge $-1 $393 2.5849813633288683 $541 5.7244956874395001 $384 $542 forward 7 unknown #
coedge $-1 $241 $240 $534 $543 reversed $94 $-1 #
coedge $-1 $384 $544 $240 $388 forward $540 $-1 #
edge $-1 $545 -37.917980446706757 $393 -25.393371505120363 $387 $546 forward 7 unknown #
coedge $-1 $547 $382 $241 $390 forward $237 $-1 #
edge $-1 $392 25.393371505120363 $548 37.917980446706757 $389 $549 forward 7 unknown #
coedge $-1 $383 $242 $382 $536 reversed $149 $-1 #
vertex $-1 $390 $550 #
vertex $-1 $388 $551 #
straight-curve $-1 -57.049047481033924 0 6.7397198887130525 0 -1 0 I I #
face $-1 $-1 $552 $56 $-1 $553 forward single #
loop $-1 $-1 $554 $244 #
plane-surface $-1 0 32.163510467539069 0 0 -1 0 0 0 -1 forward_v I I I I #
coedge $-1 $399 $247 $249 $405 reversed $153 $-1 #
coedge $-1 $247 $398 $554 $555 reversed $153 $-1 #
coedge $-1 $556 $250 $247 $401 forward $245 $-1 #
edge $-1 $408 -22.533862808812643 $557 -20.125754475678939 $400 $558 forward 7 unknown #
coedge $-1 $249 $248 $559 $560 reversed $97 $-1 #
coedge $-1 $561 $562 $248 $404 forward $552 $-1 #
edge $-1 $563 -42.4910071765743 $407 -38.489597633504751 $403 $564 forward 7 unknown #
edge $-1 $565 -64.327020935078068 $408 -60.325611392008518 $398 $566 forward 7 unknown #
coedge $-1 $250 $556 $561 $567 forward $245 $-1 #
vertex $-1 $404 $568 #
vertex $-1 $251 $569 #
straight-curve $-1 -24.651927532952996 29.755402134405362 9.8792342128236896 1 0 0 I I #
coedge $-1 $410 $410 $-1 $570 reversed $254 $-1 #
edge $-1 $571 0 $571 6.2831853071796004 $255 $572 forward 7 unknown #
vertex $-1 $258 $573 #
ellipse-curve $-1 -53.95097051498275 30.959456300972224 8.2814003207012714 0 0.79863551827123203 0.60181501223851219 0.5 0 0 1 I I #
coedge $-1 $414 $414 $-1 $574 reversed $261 $-1 #
edge $-1 $575 0 $575 6.2831853071796004 $262 $576 forward 7 unknown #
vertex $-1 $265 $577 #
ellipse-curve $-1 -49.303855065905992 30.959456300972224 8.2814003207012714 0 0.79863551827123203 0.60181501223851219 0.5 0 0 1 I I #
coedge $-1 $418 $418 $-1 $578 reversed $268 $-1 #
edge $-1 $579 0 $579 6.2831853071796004 $269 $580 forward 7 unknown #
vertex $-1 $272 $581 #
ellipse-curve $-1 -44.656739616829242 30.959456300972224 8.2814003207012714 0 0.79863551827123203 0.60181501223851219 0.5 0 0 1 I I #
face $-1 $-1 $582 $60 $-1 $583 reversed single #
loop $-1 $-1 $279 $273 #
plane-surface $-1 0 0 9.8792342128236861 0 0 1 1 0 0 forward_v I I I I #
coedge $-1 $584 $585 $586 $587 reversed $274 $-1 #
coedge $-1 $588 $276 $278 $432 forward $172 $-1 #
coedge $-1 $276 $588 $584 $589 forward $172 $-1 #
coedge $-1 $586 $279 $276 $429 forward $423 $-1 #
edge $-1 $435 -0.74144397216735758 $590 14.748940858088485 $428 $591 forward 7 unknown #
coedge $-1 $592 $593 $277 $431 forward $582 $-1 #
edge $-1 $594 -64.21560952883307 $434 -61.019941744588266 $430 $595 forward 7 unknown #
edge $-1 $435 60.325611392008518 $594 64.327020935078068 $278 $596 forward 7 unknown #
coedge $-1 $279 $586 $592 $597 forward $423 $-1 #
vertex $-1 $280 $598 #
vertex $-1 $280 $599 #
straight-curve $-1 6.2623044707932065 52.289264943218008 9.8792342128236896 0 -1 0 I I #
coedge $-1 $437 $437 $-1 $600 reversed $283 $-1 #
edge $-1 $601 0 $601 6.2831853071796004 $284 $602 forward 7 unknown #
vertex $-1 $287 $603 #
ellipse-curve $-1 9.3603814368443778 30.959456300972224 8.2814003207012714 0 0.79863551827123203 0.60181501223851219 0.5 0 0 1 I I #
coedge $-1 $441 $441 $-1 $604 reversed $290 $-1 #
edge $-1 $605 0 $605 6.2831853071796004 $291 $606 forward 7 unknown #
vertex $-1 $294 $607 #
ellipse-curve $-1 14.007496885921128 30.959456300972224 8.2814003207012714 0 0.79863551827123203 0.60181501223851219 0.5 0 0 1 I I #
coedge $-1 $445 $445 $-1 $608 reversed $297 $-1 #
edge $-1 $609 0 $609 6.2831853071796004 $298 $610 forward 7 unknown #
vertex $-1 $301 $611 #
ellipse-curve $-1 18.654612334997879 30.959456300972224 8.2814003207012714 0 0.79863551827123203 0.60181501223851219 0.5 0 0 1 I I #
face $-1 $-1 $612 $64 $-1 $613 reversed single #
loop $-1 $-1 $455 $302 #
plane-surface $-1 0 0 9.8792342128236861 0 0 1 1 0 0 forward_v I I I I #
coedge $-1 $614 $615 $454 $616 reversed $303 $-1 #
coedge $-1 $617 $305 $307 $459 forward $191 $-1 #
coedge $-1 $305 $617 $452 $616 forward $191 $-1 #
coedge $-1 $618 $308 $305 $456 forward $450 $-1 #
edge $-1 $462 16.906735117825072 $619 32.39711994808092 $455 $620 forward 7 unknown #
coedge $-1 $621 $622 $306 $458 forward $612 $-1 #
edge $-1 $623 -38.528687677167831 $461 -35.333019892923005 $457 $624 forward 7 unknown #
edge $-1 $462 -4.0014095430696166 $623 -4.6896506375148425e-014 $307 $625 forward 7 unknown #
coedge $-1 $308 $618 $621 $626 forward $450 $-1 #
vertex $-1 $458 $627 #
vertex $-1 $309 $628 #
straight-curve $-1 -41.558662650778068 -71.645748388873542 9.8792342128236896 0 1 0 I I #
coedge $-1 $464 $464 $-1 $629 reversed $312 $-1 #
edge $-1 $630 0 $630 6.2831853071796004 $313 $631 forward 7 unknown #
vertex $-1 $316 $632 #
ellipse-curve $-1 -53.95097051498275 -30.959456300972217 8.2814003207012714 0 -0.79863551827123203 0.60181501223851219 0.5 0 0 1 I I #
coedge $-1 $468 $468 $-1 $633 reversed $319 $-1 #
edge $-1 $634 0 $634 6.2831853071796004 $320 $635 forward 7 unknown #
vertex $-1 $323 $636 #
ellipse-curve $-1 -49.303855065905992 -30.959456300972217 8.2814003207012714 0 -0.79863551827123203 0.60181501223851219 0.5 0 0 1 I I #
coedge $-1 $472 $472 $-1 $637 reversed $326 $-1 #
edge $-1 $638 0 $638 6.2831853071796004 $327 $639 forward 7 unknown #
vertex $-1 $330 $640 #
ellipse-curve $-1 -44.656739616829242 -30.959456300972217 8.2814003207012714 0 -0.79863551827123203 0.60181501223851219 0.5 0 0 1 I I #
face $-1 $-1 $488 $68 $-1 $641 forward single #
loop $-1 $-1 $642 $331 #
plane-surface $-1 0 -32.163510467539069 0 0 1 0 0 0 1 forward_v I I I I #
coedge $-1 $643 $644 $645 $646 reversed $332 $-1 #
coedge $-1 $647 $334 $336 $486 forward $210 $-1 #
coedge $-1 $334 $647 $643 $648 forward $210 $-1 #
coedge $-1 $645 $337 $334 $483 forward $488 $-1 #
edge $-1 $490 -14.748940858088485 $649 0.74144397216735758 $482 $650 forward 7 unknown #
coedge $-1 $651 $652 $335 $485 forward $477 $-1 #
edge $-1 $653 -38.528687677167831 $489 -35.333019892923005 $484 $654 forward 7 unknown #
edge $-1 $490 -4.0014095430696166 $653 -4.6896506375148425e-014 $336 $655 forward 7 unknown #
coedge $-1 $337 $645 $651 $656 forward $488 $-1 #
loop $-1 $-1 $645 $476 #
vertex $-1 $485 $657 #
vertex $-1 $338 $658 #
straight-curve $-1 21.752689301049049 -71.645748388873542 9.8792342128236896 0 1 0 I I #
coedge $-1 $492 $492 $-1 $659 reversed $341 $-1 #
edge $-1 $660 0 $660 6.2831853071796004 $342 $661 forward 7 unknown #
vertex $-1 $345 $662 #
ellipse-curve $-1 9.3603814368443778 -30.959456300972217 8.2814003207012714 0 -0.79863551827123203 0.60181501223851219 0.5 0 0 1 I I #
coedge $-1 $496 $496 $-1 $663 reversed $348 $-1 #
edge $-1 $664 0 $664 6.2831853071796004 $349 $665 forward 7 unknown #
vertex $-1 $352 $666 #
ellipse-curve $-1 14.007496885921128 -30.959456300972217 8.2814003207012714 0 -0.79863551827123203 0.60181501223851219 0.5 0 0 1 I I #
coedge $-1 $500 $500 $-1 $667 reversed $355 $-1 #
edge $-1 $668 0 $668 6.2831853071796004 $356 $669 forward 7 unknown #
vertex $-1 $359 $670 #
ellipse-curve $-1 18.654612334997879 -30.959456300972217 8.2814003207012714 0 -0.79863551827123203 0.60181501223851219 0.5 0 0 1 I I #
face $-1 $-1 $375 $54 $-1 $671 reversed single #
loop $-1 $-1 $520 $360 #
plane-surface $-1 0 32.163510467539069 0 0 -1 0 0 0 -1 forward_v I I I I #
coedge $-1 $672 $518 $521 $673 forward $361 $-1 #
coedge $-1 $524 $363 $364 $512 reversed $229 $-1 #
coedge $-1 $518 $672 $363 $510 reversed $361 $-1 #
edge $-1 $525 -9.8792342128236861 $674 9.8792342128236861 $509 $675 forward 7 unknown #
coedge $-1 $365 $364 $672 $676 forward $145 $-1 #
edge $-1 $516 -69.573656422620317 $674 69.573656422620317 $508 $677 forward 7 unknown #
coedge $-1 $521 $520 $365 $514 reversed $505 $-1 #
edge $-1 $678 -69.573656422620317 $515 69.573656422620317 $513 $679 forward 7 unknown #
vertex $-1 $367 $680 #
vertex $-1 $527 $681 #
straight-curve $-1 69.573656422620317 0 -9.8792342128236861 0 -1 0 I I #
coedge $-1 $507 $509 $368 $519 reversed $361 $-1 #
edge $-1 $522 -32.163510467539069 $525 32.163510467539069 $518 $682 forward 7 unknown #
coedge $-1 $513 $369 $374 $528 forward $505 $-1 #
coedge $-1 $369 $513 $507 $673 reversed $505 $-1 #
vertex $-1 $370 $683 #
straight-curve $-1 0 32.163510467539069 9.8792342128236861 -1 0 0 I I #
coedge $-1 $371 $508 $373 $527 reversed $229 $-1 #
vertex $-1 $519 $684 #
straight-curve $-1 0 -32.163510467539069 9.8792342128236861 1 0 0 I I #
edge $-1 $376 -9.8792342128236861 $516 9.8792342128236861 $373 $685 forward 7 unknown #
edge $-1 $377 -9.8792342128236861 $515 9.8792342128236861 $374 $686 forward 7 unknown #
point $-1 69.573656422620317 -32.163510467539069 9.8792342128236861 #
point $-1 69.573656422620317 32.163510467539069 9.8792342128236861 #
face $-1 $-1 $540 $55 $-1 $687 reversed single #
loop $-1 $-1 $537 $379 #
plane-surface $-1 0 0 9.8792342128236861 0 0 1 1 0 0 forward_v I I I I #
coedge $-1 $688 $689 $386 $543 forward $380 $-1 #
coedge $-1 $382 $547 $690 $691 reversed $237 $-1 #
edge $-1 $692 -5.7244956874395001 $392 -2.5849813633288683 $382 $693 forward 7 unknown #
coedge $-1 $690 $694 $383 $538 forward $532 $-1 #
edge $-1 $541 -32.163510467539069 $692 32.163510467539069 $537 $695 forward 7 unknown #
coedge $-1 $544 $384 $694 $696 reversed $540 $-1 #
loop $-1 $-1 $384 $531 #
vertex $-1 $385 $697 #
straight-curve $-1 -57.049047481033924 -32.163510467539069 4.1547385253841842 0 0 1 I I #
edge $-1 $548 -32.163510467539069 $545 32.163510467539069 $534 $698 forward 7 unknown #
coedge $-1 $387 $539 $688 $699 forward $540 $-1 #
vertex $-1 $543 $700 #
straight-curve $-1 -31.65567597591356 -32.163510467539069 6.7397198887130525 1 0 0 I I #
coedge $-1 $535 $389 $689 $701 reversed $237 $-1 #
vertex $-1 $543 $702 #
straight-curve $-1 -31.65567597591356 32.163510467539069 6.7397198887130525 -1 0 0 I I #
point $-1 -57.049047481033924 32.163510467539069 6.7397198887130525 #
point $-1 -57.049047481033924 -32.163510467539069 6.7397198887130525 #
loop $-1 $-1 $403 $395 #
plane-surface $-1 -57.049047481033924 0 8.3094770507683684 -1 0 0 0 0 1 forward_v I I I I #
coedge $-1 $559 $703 $399 $555 forward $396 $-1 #
edge $-1 $557 61.019941744588266 $565 64.21560952883307 $554 $704 forward 7 unknown #
coedge $-1 $406 $400 $703 $705 forward $245 $-1 #
vertex $-1 $705 $706 #
straight-curve $-1 -41.558662650778068 52.289264943218008 9.8792342128236896 0 1 0 I I #
coedge $-1 $707 $554 $402 $560 forward $396 $-1 #
edge $-1 $565 16.906735117825072 $563 32.39711994808092 $559 $708 forward 7 unknown #
coedge $-1 $562 $403 $406 $567 reversed $552 $-1 #
coedge $-1 $403 $561 $707 $709 reversed $552 $-1 #
vertex $-1 $709 $710 #
straight-curve $-1 -57.049047481033924 6.5917844635422931 40.61839396690894 0 -0.60181501223851219 0.79863551827123203 I I #
vertex $-1 $560 $711 #
straight-curve $-1 -41.558662650778068 -6.5494564237719715 58.05741013190935 0 -0.60181501223851219 0.79863551827123203 I I #
edge $-1 $712 -32.163510467539069 $407 -29.755402134405362 $406 $713 forward 7 unknown #
point $-1 -57.049047481033924 29.755402134405362 9.8792342128236861 #
point $-1 -41.558662650778068 29.755402134405365 9.8792342128236896 #
edge $-1 $714 1 $714 0 $410 $-1 forward 7 unknown #
vertex $-1 $411 $715 #
ellipse-curve $-1 -53.95097051498275 30.160820782700959 7.6795853084627357 0 0.79863551827123203 0.60181501223851219 0.5 0 0 1 I I #
point $-1 -53.45097051498275 30.959456300972192 8.2814003207012483 #
edge $-1 $716 1 $716 0 $414 $-1 forward 7 unknown #
vertex $-1 $415 $717 #
ellipse-curve $-1 -49.303855065905992 30.160820782700959 7.6795853084627357 0 0.79863551827123203 0.60181501223851219 0.5 0 0 1 I I #
point $-1 -48.803855065905992 30.959456300972192 8.2814003207012483 #
edge $-1 $718 1 $718 0 $418 $-1 forward 7 unknown #
vertex $-1 $419 $719 #
ellipse-curve $-1 -44.656739616829242 30.160820782700959 7.6795853084627357 0 0.79863551827123203 0.60181501223851219 0.5 0 0 1 I I #
point $-1 -44.156739616829242 30.959456300972192 8.2814003207012483 #
loop $-1 $-1 $430 $422 #
plane-surface $-1 0 32.163510467539069 0 0 -1 0 0 0 -1 forward_v I I I I #
coedge $-1 $585 $425 $427 $589 reversed $274 $-1 #
coedge $-1 $425 $584 $720 $721 reversed $274 $-1 #
coedge $-1 $433 $428 $425 $587 forward $423 $-1 #
edge $-1 $590 -22.533862808812643 $722 -20.125754475678939 $586 $723 forward 7 unknown #
coedge $-1 $427 $426 $593 $724 reversed $172 $-1 #
edge $-1 $725 -64.327020935078068 $590 -60.325611392008518 $584 $726 forward 7 unknown #
vertex $-1 $429 $727 #
straight-curve $-1 7.0037484429605641 29.755402134405362 9.8792342128236896 1 0 0 I I #
coedge $-1 $720 $430 $433 $597 reversed $582 $-1 #
coedge $-1 $430 $720 $588 $724 forward $582 $-1 #
vertex $-1 $431 $728 #
straight-curve $-1 6.2623044707932065 32.163510467539069 70.899175957411956 0 0 1 I I #
straight-curve $-1 6.2623044707932065 -6.5494564237719715 58.05741013190935 0 0.60181501223851219 -0.79863551827123203 I I #
edge $-1 $722 -21.752689301049049 $434 -6.2623044707932065 $592 $729 forward 7 unknown #
point $-1 6.2623044707932065 32.163510467539069 9.8792342128236861 #
point $-1 6.2623044707932065 29.755402134405365 9.8792342128236896 #
edge $-1 $730 1 $730 0 $437 $-1 forward 7 unknown #
vertex $-1 $438 $731 #
ellipse-curve $-1 9.3603814368443778 30.160820782700959 7.6795853084627357 0 0.79863551827123203 0.60181501223851219 0.5 0 0 1 I I #
point $-1 9.8603814368443778 30.959456300972192 8.2814003207012483 #
edge $-1 $732 1 $732 0 $441 $-1 forward 7 unknown #
vertex $-1 $442 $733 #
ellipse-curve $-1 14.007496885921128 30.160820782700959 7.6795853084627357 0 0.79863551827123203 0.60181501223851219 0.5 0 0 1 I I #
point $-1 14.507496885921128 30.959456300972192 8.2814003207012483 #
edge $-1 $734 1 $734 0 $445 $-1 forward 7 unknown #
vertex $-1 $446 $735 #
ellipse-curve $-1 18.654612334997879 30.160820782700959 7.6795853084627357 0 0.79863551827123203 0.60181501223851219 0.5 0 0 1 I I #
point $-1 19.154612334997879 30.959456300972192 8.2814003207012483 #
loop $-1 $-1 $457 $449 #
plane-surface $-1 0 -32.163510467539069 0 0 1 0 0 0 1 forward_v I I I I #
coedge $-1 $615 $452 $736 $737 reversed $303 $-1 #
coedge $-1 $452 $614 $618 $738 reversed $303 $-1 #
edge $-1 $739 4.6896506375148425e-014 $619 4.0014095430696166 $452 $740 forward 7 unknown #
coedge $-1 $454 $453 $622 $741 reversed $191 $-1 #
coedge $-1 $460 $455 $615 $738 forward $450 $-1 #
vertex $-1 $738 $742 #
straight-curve $-1 -24.651927532952996 -29.755402134405358 9.8792342128236861 -1 0 0 I I #
coedge $-1 $736 $457 $460 $626 reversed $612 $-1 #
coedge $-1 $457 $736 $617 $741 forward $612 $-1 #
vertex $-1 $458 $743 #
straight-curve $-1 -41.558662650778068 -32.163510467539069 45.212254105746695 0 0 1 I I #
straight-curve $-1 -41.558662650778068 -32.163510467539098 6.6835664285788283 0 -0.60181501223851219 -0.79863551827123203 I I #
edge $-1 $744 -57.049047481033924 $461 -41.558662650778068 $621 $745 forward 7 unknown #
point $-1 -41.558662650778068 -32.163510467539069 9.8792342128236861 #
point $-1 -41.558662650778068 -29.755402134405358 9.8792342128236861 #
edge $-1 $746 1 $746 0 $464 $-1 forward 7 unknown #
vertex $-1 $465 $747 #
ellipse-curve $-1 -53.95097051498275 -30.160820782700959 7.6795853084627392 0 -0.79863551827123203 0.60181501223851219 0.5 0 0 1 I I #
point $-1 -53.45097051498275 -30.959456300972192 8.2814003207012519 #
edge $-1 $748 1 $748 0 $468 $-1 forward 7 unknown #
vertex $-1 $469 $749 #
ellipse-curve $-1 -49.303855065905992 -30.160820782700959 7.6795853084627392 0 -0.79863551827123203 0.60181501223851219 0.5 0 0 1 I I #
point $-1 -48.803855065905992 -30.959456300972192 8.2814003207012519 #
edge $-1 $750 1 $750 0 $472 $-1 forward 7 unknown #
vertex $-1 $473 $751 #
ellipse-curve $-1 -44.656739616829242 -30.160820782700959 7.6795853084627392 0 -0.79863551827123203 0.60181501223851219 0.5 0 0 1 I I #
point $-1 -44.156739616829242 -30.959456300972192 8.2814003207012519 #
plane-surface $-1 0 0 9.8792342128236861 0 0 1 1 0 0 forward_v I I I I #
coedge $-1 $652 $651 $644 $752 forward $477 $-1 #
coedge $-1 $644 $479 $481 $648 reversed $332 $-1 #
coedge $-1 $479 $643 $642 $752 reversed $332 $-1 #
coedge $-1 $487 $482 $479 $646 forward $488 $-1 #
edge $-1 $649 -41.890346254468184 $753 -39.482237921334473 $645 $754 forward 7 unknown #
coedge $-1 $481 $480 $652 $755 reversed $210 $-1 #
edge $-1 $756 4.6896506375148425e-014 $649 4.0014095430696166 $643 $757 forward 7 unknown #
vertex $-1 $483 $758 #
straight-curve $-1 7.0037484429605641 -29.755402134405358 9.8792342128236861 -1 0 0 I I #
coedge $-1 $642 $484 $487 $656 reversed $477 $-1 #
coedge $-1 $484 $642 $647 $755 forward $477 $-1 #
vertex $-1 $485 $759 #
straight-curve $-1 21.752689301049049 -32.163510467539069 45.212254105746695 0 0 1 I I #
straight-curve $-1 21.752689301049049 -32.163510467539098 6.6835664285788283 0 -0.60181501223851219 -0.79863551827123203 I I #
edge $-1 $753 6.2623044707932065 $489 21.752689301049049 $651 $760 forward 7 unknown #
point $-1 21.752689301049049 -32.163510467539069 9.8792342128236861 #
point $-1 21.752689301049049 -29.755402134405358 9.8792342128236861 #
edge $-1 $761 1 $761 0 $492 $-1 forward 7 unknown #
vertex $-1 $493 $762 #
ellipse-curve $-1 9.3603814368443778 -30.160820782700959 7.6795853084627392 0 -0.79863551827123203 0.60181501223851219 0.5 0 0 1 I I #
point $-1 9.8603814368443778 -30.959456300972192 8.2814003207012519 #
edge $-1 $763 1 $763 0 $496 $-1 forward 7 unknown #
vertex $-1 $497 $764 #
ellipse-curve $-1 14.007496885921128 -30.160820782700959 7.6795853084627392 0 -0.79863551827123203 0.60181501223851219 0.5 0 0 1 I I #
point $-1 14.507496885921128 -30.959456300972192 8.2814003207012519 #
edge $-1 $765 1 $765 0 $500 $-1 forward 7 unknown #
vertex $-1 $501 $766 #
ellipse-curve $-1 18.654612334997879 -30.160820782700959 7.6795853084627392 0 -0.79863551827123203 0.60181501223851219 0.5 0 0 1 I I #
point $-1 19.154612334997879 -30.959456300972192 8.2814003207012519 #
plane-surface $-1 69.573656422620317 0 0 -1 0 0 0 0 1 forward_v I I I I #
coedge $-1 $509 $507 $511 $676 reversed $361 $-1 #
edge $-1 $522 -9.8792342128236861 $678 9.8792342128236861 $521 $767 forward 7 unknown #
vertex $-1 $676 $768 #
straight-curve $-1 -69.573656422620317 -32.163510467539069 0 0 0 -1 I I #
edge $-1 $674 -32.163510467539069 $678 32.163510467539069 $672 $769 forward 7 unknown #
straight-curve $-1 0 -32.163510467539069 -9.8792342128236861 -1 0 0 I I #
vertex $-1 $514 $770 #
straight-curve $-1 0 32.163510467539069 -9.8792342128236861 1 0 0 I I #
point $-1 69.573656422620317 32.163510467539069 -9.8792342128236861 #
point $-1 69.573656422620317 -32.163510467539069 -9.8792342128236861 #
straight-curve $-1 -69.573656422620317 0 9.8792342128236861 0 -1 0 I I #
point $-1 -69.573656422620317 32.163510467539069 9.8792342128236861 #
point $-1 -69.573656422620317 -32.163510467539069 9.8792342128236861 #
straight-curve $-1 69.573656422620317 -32.163510467539069 0 0 0 -1 I I #
straight-curve $-1 69.573656422620317 32.163510467539069 0 0 0 -1 I I #
plane-surface $-1 0 -32.163510467539069 0 0 1 0 0 0 1 forward_v I I I I #
coedge $-1 $771 $534 $544 $699 reversed $380 $-1 #
coedge $-1 $534 $771 $547 $701 forward $380 $-1 #
coedge $-1 $772 $537 $535 $691 forward $532 $-1 #
edge $-1 $692 57.049047481033924 $773 69.573656422620317 $535 $774 forward 7 unknown #
vertex $-1 $691 $775 #
straight-curve $-1 -57.049047481033924 32.163510467539069 4.1547385253841842 0 0 -1 I I #
coedge $-1 $537 $772 $539 $696 forward $532 $-1 #
straight-curve $-1 -57.049047481033924 0 9.8792342128236861 0 1 0 I I #
edge $-1 $776 -69.573656422620317 $541 -57.049047481033924 $539 $777 forward 7 unknown #
point $-1 -57.049047481033924 -32.163510467539069 9.8792342128236843 #
straight-curve $-1 -69.573656422620317 0 6.7397198887130525 0 -1 0 I I #
edge $-1 $776 -9.8792342128236861 $545 -6.7397198887130525 $688 $778 forward 7 unknown #
point $-1 -69.573656422620317 -32.163510467539069 6.7397198887130525 #
edge $-1 $773 -9.8792342128236861 $548 -6.7397198887130525 $547 $779 forward 7 unknown #
point $-1 -69.573656422620317 32.163510467539069 6.7397198887130525 #
coedge $-1 $554 $707 $556 $705 reversed $396 $-1 #
straight-curve $-1 -41.558662650778068 32.163510467539069 70.899175957411956 0 0 -1 I I #
edge $-1 $557 41.558662650778068 $712 57.049047481033924 $703 $780 forward 7 unknown #
point $-1 -41.558662650778068 32.163510467539069 9.8792342128236861 #
coedge $-1 $703 $559 $562 $709 forward $396 $-1 #
straight-curve $-1 -24.651927532952996 32.163510467539069 6.6835664285788816 -1 0 0 I I #
edge $-1 $563 -64.21560952883307 $712 -61.019941744588273 $707 $781 forward 7 unknown #
point $-1 -57.049047481033917 32.163510467539069 6.6835664285788852 #
point $-1 -41.558662650778068 32.163510467539069 6.6835664285788852 #
vertex $-1 $567 $782 #
straight-curve $-1 -57.049047481033924 0 9.8792342128236861 0 -1 0 I I #
vertex $-1 $570 $783 #
point $-1 -53.45097051498275 30.160820782700959 7.6795853084627357 #
vertex $-1 $574 $784 #
point $-1 -48.803855065905992 30.160820782700959 7.6795853084627357 #
vertex $-1 $578 $785 #
point $-1 -44.156739616829242 30.160820782700959 7.6795853084627357 #
coedge $-1 $593 $592 $585 $721 forward $582 $-1 #
edge $-1 $722 61.019941744588266 $725 64.21560952883307 $720 $786 forward 7 unknown #
vertex $-1 $597 $787 #
straight-curve $-1 21.752689301049049 52.289264943218008 9.8792342128236896 0 1 0 I I #
edge $-1 $725 -14.748940858088485 $594 0.74144397216735758 $593 $788 forward 7 unknown #
vertex $-1 $724 $789 #
straight-curve $-1 21.752689301049049 -6.5494564237719715 58.05741013190935 0 -0.60181501223851219 0.79863551827123203 I I #
point $-1 21.752689301049049 29.755402134405365 9.8792342128236896 #
point $-1 6.2623044707932065 32.163510467539069 6.6835664285788852 #
straight-curve $-1 0 32.163510467539069 9.8792342128236861 -1 0 0 I I #
vertex $-1 $600 $790 #
point $-1 9.8603814368443778 30.160820782700959 7.6795853084627357 #
vertex $-1 $604 $791 #
point $-1 14.507496885921128 30.160820782700959 7.6795853084627357 #
vertex $-1 $608 $792 #
point $-1 19.154612334997879 30.160820782700959 7.6795853084627357 #
coedge $-1 $622 $621 $614 $737 forward $612 $-1 #
edge $-1 $744 35.333019892923012 $739 38.528687677167831 $736 $793 forward 7 unknown #
edge $-1 $619 29.755402134405358 $744 32.163510467539069 $618 $794 forward 7 unknown #
vertex $-1 $737 $795 #
straight-curve $-1 -57.049047481033917 -32.163510467539098 6.6835664285788283 0 0.60181501223851219 0.79863551827123203 I I #
edge $-1 $739 -32.39711994808092 $623 -16.906735117825072 $622 $796 forward 7 unknown #
point $-1 -57.049047481033917 -29.755402134405358 9.8792342128236861 #
point $-1 -41.558662650778068 -32.163510467539069 6.6835664285788656 #
vertex $-1 $626 $797 #
straight-curve $-1 0 -32.163510467539069 9.8792342128236861 1 0 0 I I #
vertex $-1 $629 $798 #
point $-1 -53.45097051498275 -30.160820782700959 7.6795853084627392 #
vertex $-1 $633 $799 #
point $-1 -48.803855065905992 -30.160820782700959 7.6795853084627392 #
vertex $-1 $637 $800 #
point $-1 -44.156739616829242 -30.160820782700959 7.6795853084627392 #
edge $-1 $753 35.333019892923005 $756 38.528687677167831 $642 $801 forward 7 unknown #
vertex $-1 $656 $802 #
straight-curve $-1 6.2623044707932065 -71.645748388873542 9.8792342128236896 0 -1 0 I I #
edge $-1 $756 -0.74144397216735758 $653 14.748940858088485 $652 $803 forward 7 unknown #
vertex $-1 $755 $804 #
straight-curve $-1 6.2623044707932065 -32.163510467539098 6.6835664285788283 0 0.60181501223851219 0.79863551827123203 I I #
point $-1 6.2623044707932065 -29.755402134405358 9.8792342128236861 #
point $-1 21.752689301049049 -32.163510467539069 6.6835664285788656 #
straight-curve $-1 0 -32.163510467539069 9.8792342128236861 1 0 0 I I #
vertex $-1 $659 $805 #
point $-1 9.8603814368443778 -30.160820782700959 7.6795853084627392 #
vertex $-1 $663 $806 #
point $-1 14.507496885921128 -30.160820782700959 7.6795853084627392 #
vertex $-1 $667 $807 #
point $-1 19.154612334997879 -30.160820782700959 7.6795853084627392 #
straight-curve $-1 -69.573656422620317 32.163510467539069 0 0 0 -1 I I #
point $-1 -69.573656422620317 -32.163510467539069 -9.8792342128236861 #
straight-curve $-1 -69.573656422620317 0 -9.8792342128236861 0 1 0 I I #
point $-1 -69.573656422620317 32.163510467539069 -9.8792342128236861 #
coedge $-1 $689 $688 $772 $808 reversed $380 $-1 #
coedge $-1 $694 $690 $771 $808 forward $532 $-1 #
vertex $-1 $691 $809 #
straight-curve $-1 0 32.163510467539069 9.8792342128236861 -1 0 0 I I #
point $-1 -57.049047481033924 32.163510467539069 9.8792342128236843 #
vertex $-1 $808 $810 #
straight-curve $-1 0 -32.163510467539069 9.8792342128236861 1 0 0 I I #
straight-curve $-1 -69.573656422620317 -32.163510467539069 0 0 0 -1 I I #
straight-curve $-1 -69.573656422620317 32.163510467539069 0 0 0 -1 I I #
straight-curve $-1 0 32.163510467539069 9.8792342128236861 -1 0 0 I I #
straight-curve $-1 -57.049047481033917 32.163510467539069 70.899175957411956 0 0 1 I I #
point $-1 -57.049047481033924 32.163510467539069 9.8792342128236843 #
point $-1 -53.95097051498275 29.761503023565346 7.3786778023434803 #
point $-1 -49.303855065905992 29.761503023565346 7.3786778023434803 #
point $-1 -44.656739616829242 29.761503023565346 7.3786778023434803 #
straight-curve $-1 21.752689301049049 32.163510467539069 70.899175957411956 0 0 -1 I I #
point $-1 21.752689301049049 32.163510467539069 9.8792342128236861 #
straight-curve $-1 7.0037484429605641 32.163510467539069 6.6835664285788816 -1 0 0 I I #
point $-1 21.752689301049049 32.163510467539069 6.6835664285788852 #
point $-1 9.3603814368443778 29.761503023565346 7.3786778023434803 #
point $-1 14.007496885921128 29.761503023565346 7.3786778023434803 #
point $-1 18.654612334997879 29.761503023565346 7.3786778023434803 #
straight-curve $-1 -57.049047481033917 -32.163510467539069 45.212254105746695 0 0 -1 I I #
straight-curve $-1 -57.049047481033924 0 9.8792342128236861 0 -1 0 I I #
point $-1 -57.049047481033917 -32.163510467539069 6.6835664285788656 #
straight-curve $-1 -24.651927532952996 -32.163510467539069 6.6835664285788612 1 0 0 I I #
point $-1 -57.049047481033924 -32.163510467539069 9.8792342128236843 #
point $-1 -53.95097051498275 -29.761503023565346 7.3786778023434838 #
point $-1 -49.303855065905992 -29.761503023565346 7.3786778023434838 #
point $-1 -44.656739616829242 -29.761503023565346 7.3786778023434838 #
straight-curve $-1 6.2623044707932065 -32.163510467539069 45.212254105746695 0 0 -1 I I #
point $-1 6.2623044707932065 -32.163510467539069 9.8792342128236861 #
straight-curve $-1 7.0037484429605641 -32.163510467539069 6.6835664285788612 1 0 0 I I #
point $-1 6.2623044707932065 -32.163510467539069 6.6835664285788656 #
point $-1 9.3603814368443778 -29.761503023565346 7.3786778023434838 #
point $-1 14.007496885921128 -29.761503023565346 7.3786778023434838 #
point $-1 18.654612334997879 -29.761503023565346 7.3786778023434838 #
edge $-1 $773 -32.163510467539069 $776 32.163510467539069 $771 $811 forward 7 unknown #
point $-1 -69.573656422620317 32.163510467539069 9.8792342128236861 #
point $-1 -69.573656422620317 -32.163510467539069 9.8792342128236861 #
straight-curve $-1 -69.573656422620317 0 9.8792342128236861 0 -1 0 I I #
End-of-ACIS-data 