500 0 7 0           
7 Unknown 11 ACIS 5.0 NT 24 Fri Mar 26 17:36:41 1999 
-1 9.9999999999999995e-007 1e-010 
body $-1 $7 $-1 $8 #
body $-1 $9 $-1 $10 #
body $-1 $11 $-1 $12 #
body $-1 $13 $-1 $14 #
body $-1 $15 $-1 $16 #
body $-1 $17 $-1 $18 #
body $-1 $19 $-1 $20 #
lump $-1 $-1 $21 $0 #
transform $-1 1 0 0 0 1 0 0 0 1 78.526566362498855 33.103044562065392 13.555003207710691 1 rotate no_reflect no_shear #
lump $-1 $-1 $22 $1 #
transform $-1 1 0 0 0 1 0 0 0 1 78.526566362498855 33.103044562065392 13.555003207710691 1 rotate no_reflect no_shear #
lump $-1 $-1 $23 $2 #
transform $-1 1 0 0 0 1 0 0 0 1 78.526566362498855 33.103044562065392 13.555003207710691 1 rotate no_reflect no_shear #
lump $-1 $-1 $24 $3 #
transform $-1 1 0 0 0 1 0 0 0 1 78.526566362498855 33.103044562065392 13.555003207710691 1 rotate no_reflect no_shear #
lump $-1 $-1 $25 $4 #
transform $-1 1 0 0 0 1 0 0 0 1 78.526566362498855 33.103044562065392 13.555003207710691 1 rotate no_reflect no_shear #
lump $-1 $-1 $26 $5 #
transform $-1 1 0 0 0 1 0 0 0 1 78.526566362498855 33.103044562065392 13.555003207710691 1 rotate no_reflect no_shear #
lump $-1 $-1 $27 $6 #
transform $-1 1 0 0 0 1 0 0 0 1 78.526566362498855 33.103044562065392 13.555003207710691 1 rotate no_reflect no_shear #
shell $-1 $-1 $-1 $28 $-1 $7 #
shell $-1 $-1 $-1 $29 $-1 $9 #
shell $-1 $-1 $-1 $30 $-1 $11 #
shell $-1 $-1 $-1 $31 $-1 $13 #
shell $-1 $-1 $-1 $32 $-1 $15 #
shell $-1 $-1 $-1 $33 $-1 $17 #
shell $-1 $-1 $-1 $34 $-1 $19 #
face $-1 $35 $36 $21 $-1 $37 forward single #
face $-1 $38 $39 $22 $-1 $40 forward single #
face $-1 $41 $42 $23 $-1 $43 reversed single #
face $-1 $44 $45 $24 $-1 $46 forward single #
face $-1 $47 $48 $25 $-1 $49 forward single #
face $-1 $50 $51 $26 $-1 $52 reversed single #
face $-1 $53 $54 $27 $-1 $55 forward single #
face $-1 $56 $57 $21 $-1 $58 reversed single #
loop $-1 $-1 $59 $28 #
plane-surface $-1 0 0 13.555003207710691 0 0 1 1 0 0 forward_v I I I I #
face $-1 $60 $61 $22 $-1 $62 reversed single #
loop $-1 $-1 $63 $29 #
plane-surface $-1 0 -33.103044562065392 0 0 1 0 0 0 1 forward_v I I I I #
face $-1 $64 $65 $23 $-1 $66 reversed single #
loop $-1 $-1 $67 $30 #
plane-surface $-1 90.150734086296623 27.634803783200272 225.4986417246933 0 -1 0 -0.74314483375859142 0 -0.66913059716165679 forward_v I I I I #
face $-1 $68 $69 $24 $-1 $70 forward single #
loop $-1 $71 $72 $31 #
cone-surface $-1 73.322882954131202 17.67843472333184 7.9366003322594603 -0.74314483375859142 0 -0.66913059716165679 1.0036958957424851 0 -1.1147172506378871 1 I I 0 1 1.5 forward I I I I #
face $-1 $73 $74 $25 $-1 $75 forward single #
loop $-1 $76 $77 $32 #
cone-surface $-1 73.322882954131202 23.652256159252893 7.9366003322594603 -0.74314483375859142 0 -0.66913059716165679 1.0036958957424851 0 -1.1147172506378871 1 I I 0 1 1.5 forward I I I I #
face $-1 $78 $79 $26 $-1 $80 reversed single #
loop $-1 $-1 $81 $33 #
plane-surface $-1 -183.61562555722793 16.957779862530376 122.16837419086298 0 1 0 -0.66913061440640931 0 0.74314481823134659 forward_v I I I I #
face $-1 $82 $83 $27 $-1 $84 forward single #
loop $-1 $85 $86 $34 #
cone-surface $-1 -73.449328580082735 19.97868420395735 8.8616555138277864 0.66913061440640931 0 -0.74314481823134659 0.74314481823134659 0 0.66913061440640931 1 I I 0 1 1 forward I I I I #
face $-1 $87 $88 $21 $-1 $89 reversed single #
loop $-1 $-1 $90 $35 #
plane-surface $-1 0 0 -13.555003207710691 0 0 1 1 0 0 forward_v I I I I #
coedge $-1 $91 $92 $93 $94 forward $36 $-1 #
face $-1 $95 $96 $22 $-1 $97 forward single #
loop $-1 $-1 $98 $38 #
plane-surface $-1 -78.526566362498855 0 0 1 0 0 0 0 -1 forward_v I I I I #
coedge $-1 $99 $100 $101 $102 forward $39 $-1 #
face $-1 $103 $104 $23 $-1 $105 reversed single #
loop $-1 $-1 $106 $41 #
plane-surface $-1 -26.562490123887798 20.665345441292374 120.40958523830665 0.74314483375859142 0 0.66913059716165679 0.66913059716165679 0 -0.74314483375859142 forward_v I I I I #
coedge $-1 $107 $108 $109 $110 reversed $42 $-1 #
face $-1 $-1 $111 $24 $-1 $112 forward single #
loop $-1 $113 $114 $44 #
cone-surface $-1 72.00022145487354 17.67843472333184 6.7456705987312162 -0.74314483375859142 0 -0.66913059716165679 0.50184794787124254 0 -0.55735862531894353 1 I I -0.70710678118654757 0.70710678118654757 0.75 forward I I I I #
loop $-1 $-1 $115 $31 #
coedge $-1 $72 $72 $116 $117 reversed $45 $-1 #
face $-1 $-1 $118 $25 $-1 $119 forward single #
loop $-1 $120 $121 $47 #
cone-surface $-1 72.00022145487354 23.652256159252893 6.7456705987312162 -0.74314483375859142 0 -0.66913059716165679 0.50184794787124254 0 -0.55735862531894353 1 I I -0.70710678118654757 0.70710678118654757 0.75 forward I I I I #
loop $-1 $-1 $122 $32 #
coedge $-1 $77 $77 $123 $124 reversed $48 $-1 #
face $-1 $125 $126 $26 $-1 $127 reversed single #
loop $-1 $-1 $128 $50 #
plane-surface $-1 -78.526566362498883 19.978684203957357 5.4551524192810206 -0.66913061440640931 0 0.74314481823134659 0.74314481823134659 0 0.66913061440640931 forward_v I I I I #
coedge $-1 $129 $130 $131 $132 reversed $51 $-1 #
face $-1 $-1 $133 $27 $-1 $134 forward single #
loop $-1 $135 $136 $53 #
cone-surface $-1 -72.535423219450479 19.97868420395735 7.8466608050440527 0.66913061440640931 0 -0.74314481823134659 0.3715724091156733 0 0.33456530720320465 1 I I -0.70710678118654746 0.70710678118654746 0.5 forward I I I I #
loop $-1 $-1 $137 $34 #
coedge $-1 $86 $86 $138 $139 reversed $54 $-1 #
face $-1 $140 $141 $21 $-1 $142 reversed single #
loop $-1 $-1 $143 $56 #
plane-surface $-1 0 -33.103044562065392 0 0 1 0 0 0 1 forward_v I I I I #
coedge $-1 $144 $145 $146 $147 forward $57 $-1 #
coedge $-1 $148 $59 $149 $150 forward $36 $-1 #
coedge $-1 $59 $148 $151 $152 forward $36 $-1 #
coedge $-1 $153 $154 $59 $94 reversed $155 $-1 #
edge $-1 $156 -33.103044562065392 $157 33.103044562065392 $93 $158 forward 7 unknown #
face $-1 $159 $160 $22 $-1 $161 reversed single #
loop $-1 $-1 $162 $60 #
plane-surface $-1 0 -41.846077477635454 -1.7734687251068868 0 0 1 1 0 0 forward_v I I I I #
coedge $-1 $163 $164 $100 $165 forward $61 $-1 #
coedge $-1 $166 $63 $167 $168 reversed $39 $-1 #
coedge $-1 $63 $166 $98 $165 reversed $39 $-1 #
coedge $-1 $169 $162 $63 $102 reversed $96 $-1 #
edge $-1 $170 -78.526566362498855 $171 78.526566362498855 $101 $172 forward 7 unknown #
face $-1 $173 $174 $23 $-1 $175 reversed single #
loop $-1 $-1 $176 $64 #
plane-surface $-1 90.150734086296623 13.695887099384475 225.4986417246933 0 1 0 0.74314483375859142 0 0.66913059716165679 forward_v I I I I #
coedge $-1 $177 $178 $179 $180 reversed $65 $-1 #
coedge $-1 $108 $67 $181 $182 reversed $42 $-1 #
coedge $-1 $67 $107 $177 $183 reversed $42 $-1 #
coedge $-1 $179 $184 $67 $110 forward $185 $-1 #
edge $-1 $186 -33.451199319350543 $187 -24.574438250492669 $109 $188 forward 7 unknown #
loop $-1 $-1 $116 $68 #
plane-surface $-1 -26.562490123887798 20.665345441292374 120.40958523830665 0.74314483375859142 0 0.66913059716165679 0.66913059716165679 0 -0.74314483375859142 forward_v I I I I #
loop $-1 $-1 $189 $44 #
coedge $-1 $114 $114 $115 $190 reversed $69 $-1 #
coedge $-1 $115 $115 $114 $190 forward $71 $-1 #
coedge $-1 $116 $116 $72 $117 forward $111 $-1 #
edge $-1 $191 0 $191 6.2831853071796004 $116 $192 forward 7 unknown #
loop $-1 $-1 $123 $73 #
plane-surface $-1 -26.562490123887798 20.665345441292374 120.40958523830665 0.74314483375859142 0 0.66913059716165679 0.66913059716165679 0 -0.74314483375859142 forward_v I I I I #
loop $-1 $-1 $193 $47 #
coedge $-1 $121 $121 $122 $194 reversed $74 $-1 #
coedge $-1 $122 $122 $121 $194 forward $76 $-1 #
coedge $-1 $123 $123 $77 $124 forward $118 $-1 #
edge $-1 $195 0 $195 6.2831853071796004 $123 $196 forward 7 unknown #
face $-1 $197 $198 $26 $-1 $199 forward single #
loop $-1 $-1 $200 $78 #
plane-surface $-1 -183.61562555722793 22.999588545384338 122.16837419086298 0 -1 0 0.66913061440640931 0 -0.74314481823134659 forward_v I I I I #
coedge $-1 $201 $202 $203 $204 reversed $79 $-1 #
coedge $-1 $130 $81 $205 $206 reversed $51 $-1 #
coedge $-1 $81 $129 $201 $207 reversed $51 $-1 #
coedge $-1 $203 $208 $81 $132 forward $198 $-1 #
edge $-1 $209 13.28124641611511 $210 22.277041874089178 $131 $211 forward 7 unknown #
loop $-1 $-1 $138 $82 #
plane-surface $-1 -78.526566362498883 19.978684203957357 5.4551524192810206 -0.66913061440640931 0 0.74314481823134659 0.74314481823134659 0 0.66913061440640931 forward_v I I I I #
loop $-1 $-1 $212 $53 #
coedge $-1 $136 $136 $137 $213 reversed $83 $-1 #
coedge $-1 $137 $137 $136 $213 forward $85 $-1 #
coedge $-1 $138 $138 $86 $139 forward $133 $-1 #
edge $-1 $214 0 $214 6.2831853071796004 $138 $215 forward 7 unknown #
face $-1 $216 $217 $21 $-1 $218 reversed single #
loop $-1 $-1 $219 $87 #
plane-surface $-1 -78.526566362498855 0 0 1 0 0 0 0 -1 forward_v I I I I #
coedge $-1 $220 $151 $221 $222 forward $88 $-1 #
coedge $-1 $223 $90 $220 $224 forward $57 $-1 #
coedge $-1 $90 $223 $225 $226 forward $57 $-1 #
coedge $-1 $154 $153 $90 $147 reversed $155 $-1 #
edge $-1 $227 -33.103044562065392 $228 33.103044562065392 $146 $229 forward 7 unknown #
coedge $-1 $92 $91 $230 $231 forward $36 $-1 #
coedge $-1 $232 $233 $91 $150 reversed $217 $-1 #
edge $-1 $157 -78.526566362498855 $234 78.526566362498855 $149 $235 forward 7 unknown #
coedge $-1 $143 $236 $92 $152 reversed $88 $-1 #
edge $-1 $237 -78.526566362498855 $156 78.526566362498855 $151 $238 forward 7 unknown #
coedge $-1 $146 $93 $236 $239 forward $155 $-1 #
coedge $-1 $93 $146 $232 $240 reversed $155 $-1 #
loop $-1 $-1 $153 $216 #
vertex $-1 $94 $241 #
vertex $-1 $94 $242 #
straight-curve $-1 78.526566362498855 0 13.555003207710691 0 1 0 I I #
face $-1 $243 $244 $22 $-1 $245 reversed single #
loop $-1 $-1 $246 $95 #
plane-surface $-1 0 -41.846077477635454 -7.6297496910261708 0 0 1 1 0 0 forward_v I I I I #
coedge $-1 $101 $247 $248 $249 forward $96 $-1 #
coedge $-1 $250 $98 $251 $252 reversed $61 $-1 #
coedge $-1 $98 $250 $169 $253 reversed $61 $-1 #
edge $-1 $170 1.7734687251068868 $254 7.6297496910261708 $98 $255 forward 7 unknown #
coedge $-1 $100 $99 $256 $257 forward $39 $-1 #
coedge $-1 $248 $258 $99 $168 forward $259 $-1 #
edge $-1 $260 -7.6297496910261708 $171 -1.7734687251068868 $167 $261 forward 7 unknown #
coedge $-1 $247 $101 $164 $253 forward $96 $-1 #
vertex $-1 $165 $262 #
vertex $-1 $249 $263 #
straight-curve $-1 0 -33.103044562065392 -1.7734687251068868 1 0 0 I I #
face $-1 $-1 $185 $23 $-1 $264 forward single #
loop $-1 $-1 $265 $103 #
plane-surface $-1 78.526566362498855 0 0 -1 0 0 0 0 1 forward_v I I I I #
coedge $-1 $266 $267 $268 $269 reversed $104 $-1 #
coedge $-1 $270 $106 $108 $183 forward $65 $-1 #
coedge $-1 $106 $270 $266 $271 forward $65 $-1 #
coedge $-1 $268 $109 $106 $180 forward $185 $-1 #
edge $-1 $187 -17.302131062554086 $272 -3.363214378738288 $179 $273 forward 7 unknown #
coedge $-1 $274 $275 $107 $182 forward $174 $-1 #
edge $-1 $276 -109.05295983422442 $186 -99.194317654635967 $181 $277 forward 7 unknown #
edge $-1 $187 143.78702128649576 $276 157.05313272499768 $108 $278 forward 7 unknown #
coedge $-1 $109 $268 $274 $279 forward $185 $-1 #
loop $-1 $-1 $268 $173 #
vertex $-1 $182 $280 #
vertex $-1 $110 $281 #
straight-curve $-1 45.075367043148312 27.634803783200272 13.555003207710683 -1 0 0 I I #
coedge $-1 $189 $189 $-1 $282 reversed $113 $-1 #
edge $-1 $283 0 $283 6.2831853071796004 $114 $284 forward 7 unknown #
vertex $-1 $117 $285 #
ellipse-curve $-1 74.088185828069925 17.67843472333184 8.62568211791646 0.74314483375859142 0 0.66913059716165679 1.0036958957424851 0 -1.1147172506378871 1 I I #
coedge $-1 $193 $193 $-1 $286 reversed $120 $-1 #
edge $-1 $287 0 $287 6.2831853071796004 $121 $288 forward 7 unknown #
vertex $-1 $124 $289 #
ellipse-curve $-1 74.088185828069925 23.652256159252893 8.62568211791646 0.74314483375859142 0 0.66913059716165679 1.0036958957424851 0 -1.1147172506378871 1 I I #
face $-1 $-1 $290 $26 $-1 $291 reversed single #
loop $-1 $-1 $131 $125 #
plane-surface $-1 0 0 13.555003207710691 0 0 1 1 0 0 forward_v I I I I #
coedge $-1 $292 $293 $294 $295 reversed $126 $-1 #
coedge $-1 $296 $128 $130 $207 forward $79 $-1 #
coedge $-1 $128 $296 $292 $297 forward $79 $-1 #
coedge $-1 $294 $131 $128 $204 forward $198 $-1 #
edge $-1 $210 6.9684377605516978 $298 13.010246443405659 $203 $299 forward 7 unknown #
coedge $-1 $300 $301 $129 $206 forward $290 $-1 #
edge $-1 $302 -55.62903467615044 $209 -47.529183887720798 $205 $303 forward 7 unknown #
edge $-1 $210 -12.105036915124717 $302 -3.8356359867099031e-014 $130 $304 forward 7 unknown #
coedge $-1 $131 $294 $300 $305 forward $198 $-1 #
vertex $-1 $132 $306 #
vertex $-1 $132 $307 #
straight-curve $-1 -91.807812778613965 16.957779862530376 13.555003207710691 1 0 0 I I #
coedge $-1 $212 $212 $-1 $308 reversed $135 $-1 #
edge $-1 $309 0 $309 6.2831853071796004 $136 $310 forward 7 unknown #
vertex $-1 $139 $311 #
ellipse-curve $-1 -74.028668633511813 19.97868420395735 9.5050778134958733 -0.66913061440640931 0 0.74314481823134659 0.74314481823134659 0 0.66913061440640931 1 I I #
face $-1 $-1 $155 $21 $-1 $312 reversed single #
loop $-1 $-1 $232 $140 #
plane-surface $-1 0 33.103044562065392 0 0 -1 0 0 0 -1 forward_v I I I I #
coedge $-1 $313 $230 $233 $314 forward $141 $-1 #
coedge $-1 $236 $143 $144 $224 reversed $88 $-1 #
coedge $-1 $230 $313 $143 $222 reversed $141 $-1 #
edge $-1 $237 -13.555003207710691 $315 13.555003207710691 $221 $316 forward 7 unknown #
coedge $-1 $145 $144 $313 $317 forward $57 $-1 #
edge $-1 $228 -78.526566362498855 $315 78.526566362498855 $220 $318 forward 7 unknown #
coedge $-1 $233 $232 $145 $226 reversed $217 $-1 #
edge $-1 $319 -78.526566362498855 $227 78.526566362498855 $225 $320 forward 7 unknown #
vertex $-1 $147 $321 #
vertex $-1 $239 $322 #
straight-curve $-1 78.526566362498855 0 -13.555003207710691 0 -1 0 I I #
coedge $-1 $219 $221 $148 $231 reversed $141 $-1 #
edge $-1 $234 -33.103044562065392 $237 33.103044562065392 $230 $323 forward 7 unknown #
coedge $-1 $225 $149 $154 $240 forward $217 $-1 #
coedge $-1 $149 $225 $219 $314 reversed $217 $-1 #
vertex $-1 $150 $324 #
straight-curve $-1 0 33.103044562065392 13.555003207710691 -1 0 0 I I #
coedge $-1 $151 $220 $153 $239 reversed $88 $-1 #
vertex $-1 $231 $325 #
straight-curve $-1 0 -33.103044562065392 13.555003207710691 1 0 0 I I #
edge $-1 $156 -13.555003207710691 $228 13.555003207710691 $153 $326 forward 7 unknown #
edge $-1 $157 -13.555003207710691 $227 13.555003207710691 $154 $327 forward 7 unknown #
point $-1 78.526566362498855 -33.103044562065392 13.555003207710691 #
point $-1 78.526566362498855 33.103044562065392 13.555003207710691 #
face $-1 $-1 $259 $22 $-1 $328 reversed single #
loop $-1 $-1 $329 $159 #
plane-surface $-1 0 -50.589110393205516 -4.7016092080665288 0 1 0 0 0 1 forward_v I I I I #
coedge $-1 $330 $256 $258 $331 forward $160 $-1 #
coedge $-1 $162 $169 $332 $333 forward $96 $-1 #
coedge $-1 $334 $167 $162 $249 reversed $259 $-1 #
edge $-1 $335 -8.7430329155700619 $171 8.7430329155700619 $248 $336 forward 7 unknown #
coedge $-1 $164 $163 $329 $337 reversed $61 $-1 #
coedge $-1 $256 $330 $163 $252 forward $160 $-1 #
edge $-1 $338 -8.7430329155700619 $254 8.7430329155700619 $163 $339 forward 7 unknown #
edge $-1 $170 -8.7430329155700619 $340 8.7430329155700619 $164 $341 forward 7 unknown #
vertex $-1 $165 $342 #
straight-curve $-1 -78.526566362498855 -33.103044562065392 0 0 0 -1 I I #
coedge $-1 $246 $251 $166 $257 reversed $160 $-1 #
edge $-1 $260 -78.526566362498855 $254 78.526566362498855 $256 $343 forward 7 unknown #
coedge $-1 $167 $334 $246 $331 reversed $259 $-1 #
loop $-1 $-1 $167 $243 #
vertex $-1 $168 $344 #
straight-curve $-1 78.526566362498855 -33.103044562065392 0 0 0 1 I I #
point $-1 -78.526566362498855 -33.103044562065392 -1.7734687251068868 #
point $-1 78.526566362498855 -33.103044562065392 -1.7734687251068868 #
plane-surface $-1 0 0 13.555003207710691 0 0 1 1 0 0 forward_v I I I I #
coedge $-1 $275 $274 $267 $345 forward $174 $-1 #
coedge $-1 $267 $176 $178 $271 reversed $104 $-1 #
coedge $-1 $176 $266 $265 $345 reversed $104 $-1 #
coedge $-1 $184 $179 $176 $269 forward $185 $-1 #
edge $-1 $272 24.574438250492669 $346 33.451199319350543 $268 $347 forward 7 unknown #
coedge $-1 $178 $177 $275 $348 reversed $65 $-1 #
edge $-1 $349 -157.05313272499768 $272 -143.78702128649576 $266 $350 forward 7 unknown #
vertex $-1 $180 $351 #
straight-curve $-1 69.649805293640981 10.332672720646187 13.555003207710698 0 -1 0 I I #
coedge $-1 $265 $181 $184 $279 reversed $174 $-1 #
coedge $-1 $181 $265 $270 $348 forward $174 $-1 #
vertex $-1 $182 $352 #
straight-curve $-1 78.526566362498855 27.634803783200272 112.74932086234665 0 0 1 I I #
straight-curve $-1 -26.562490123887798 27.634803783200272 120.40958523830665 0.66913059716165679 0 -0.74314483375859142 I I #
edge $-1 $346 13.695887099384475 $186 27.634803783200272 $274 $353 forward 7 unknown #
point $-1 78.526566362498855 27.634803783200272 13.555003207710691 #
point $-1 69.649805293640981 27.634803783200272 13.555003207710698 #
edge $-1 $354 1 $354 0 $189 $-1 forward 7 unknown #
vertex $-1 $190 $355 #
ellipse-curve $-1 72.55758008019248 17.67843472333184 7.2475185466024588 0.74314483375859142 0 0.66913059716165679 1.0036958957424851 0 -1.1147172506378871 1 I I #
point $-1 75.091881723812406 17.67843472333184 7.5109648672785738 #
edge $-1 $356 1 $356 0 $193 $-1 forward 7 unknown #
vertex $-1 $194 $357 #
ellipse-curve $-1 72.55758008019248 23.652256159252893 7.2475185466024588 0.74314483375859142 0 0.66913059716165679 1.0036958957424851 0 -1.1147172506378871 1 I I #
point $-1 75.091881723812406 23.652256159252893 7.5109648672785738 #
loop $-1 $-1 $205 $197 #
plane-surface $-1 -78.526566362498855 0 0 1 0 0 0 0 -1 forward_v I I I I #
coedge $-1 $293 $200 $202 $297 reversed $126 $-1 #
coedge $-1 $200 $292 $358 $359 reversed $126 $-1 #
coedge $-1 $208 $203 $200 $295 forward $198 $-1 #
edge $-1 $298 -22.277041874089178 $360 -13.28124641611511 $294 $361 forward 7 unknown #
coedge $-1 $202 $201 $301 $362 reversed $79 $-1 #
edge $-1 $363 3.8356359867099031e-014 $298 12.105036915124717 $292 $364 forward 7 unknown #
vertex $-1 $204 $365 #
straight-curve $-1 -69.530770904524786 9.9893421019786786 13.555003207710689 0 1 0 I I #
coedge $-1 $358 $205 $208 $305 reversed $290 $-1 #
coedge $-1 $205 $358 $296 $362 forward $290 $-1 #
vertex $-1 $206 $366 #
straight-curve $-1 -78.526566362498855 16.957779862530376 61.084187095431489 0 0 1 I I #
straight-curve $-1 -78.526566362498883 16.957779862530376 5.4551524192810206 -0.74314481823134659 0 -0.66913061440640931 I I #
edge $-1 $360 -22.999588545384338 $209 -16.957779862530376 $300 $367 forward 7 unknown #
point $-1 -78.526566362498855 16.957779862530376 13.555003207710691 #
point $-1 -69.530770904524786 16.957779862530376 13.555003207710691 #
edge $-1 $368 1 $368 0 $212 $-1 forward 7 unknown #
vertex $-1 $213 $369 #
ellipse-curve $-1 -72.869988526653685 19.97868420395735 8.2182332141597261 -0.66913061440640931 0 0.74314481823134659 0.74314481823134659 0 0.66913061440640931 1 I I #
point $-1 -73.285523815280442 19.97868420395735 10.174208427902254 #
plane-surface $-1 78.526566362498855 0 0 -1 0 0 0 0 1 forward_v I I I I #
coedge $-1 $221 $219 $223 $317 reversed $141 $-1 #
edge $-1 $234 -13.555003207710691 $319 13.555003207710691 $233 $370 forward 7 unknown #
vertex $-1 $317 $371 #
straight-curve $-1 -78.526566362498855 -33.103044562065392 0 0 0 -1 I I #
edge $-1 $315 -33.103044562065392 $319 33.103044562065392 $313 $372 forward 7 unknown #
straight-curve $-1 0 -33.103044562065392 -13.555003207710691 -1 0 0 I I #
vertex $-1 $226 $373 #
straight-curve $-1 0 33.103044562065392 -13.555003207710691 1 0 0 I I #
point $-1 78.526566362498855 33.103044562065392 -13.555003207710691 #
point $-1 78.526566362498855 -33.103044562065392 -13.555003207710691 #
straight-curve $-1 -78.526566362498855 0 13.555003207710691 0 -1 0 I I #
point $-1 -78.526566362498855 33.103044562065392 13.555003207710691 #
point $-1 -78.526566362498855 -33.103044562065392 13.555003207710691 #
straight-curve $-1 78.526566362498855 -33.103044562065392 0 0 0 -1 I I #
straight-curve $-1 78.526566362498855 33.103044562065392 0 0 0 -1 I I #
plane-surface $-1 78.526566362498855 0 0 -1 0 0 0 0 1 forward_v I I I I #
coedge $-1 $374 $332 $250 $337 forward $244 $-1 #
coedge $-1 $251 $246 $374 $375 forward $160 $-1 #
edge $-1 $260 -8.7430329155700619 $376 8.7430329155700619 $258 $377 forward 7 unknown #
coedge $-1 $329 $378 $247 $333 reversed $244 $-1 #
edge $-1 $340 -78.526566362498855 $335 78.526566362498855 $332 $379 forward 7 unknown #
coedge $-1 $258 $248 $378 $380 forward $259 $-1 #
vertex $-1 $249 $381 #
straight-curve $-1 78.526566362498855 -41.846077477635454 -1.7734687251068868 0 1 0 I I #
edge $-1 $340 -2.928140482959642 $338 2.928140482959642 $250 $382 forward 7 unknown #
vertex $-1 $252 $383 #
straight-curve $-1 -78.526566362498855 -41.846077477635454 -7.6297496910261708 0 1 0 I I #
vertex $-1 $253 $384 #
straight-curve $-1 -78.526566362498855 -41.846077477635454 -1.7734687251068868 0 -1 0 I I #
point $-1 -78.526566362498855 -33.103044562065392 -7.6297496910261708 #
straight-curve $-1 0 -33.103044562065392 -7.6297496910261708 -1 0 0 I I #
point $-1 78.526566362498855 -33.103044562065392 -7.6297496910261708 #
edge $-1 $346 99.194317654635967 $349 109.05295983422442 $265 $385 forward 7 unknown #
vertex $-1 $279 $386 #
straight-curve $-1 45.075367043148312 13.695887099384475 13.555003207710683 1 0 0 I I #
edge $-1 $349 3.363214378738288 $276 17.302131062554086 $275 $387 forward 7 unknown #
vertex $-1 $348 $388 #
straight-curve $-1 -26.562490123887798 13.695887099384475 120.40958523830665 -0.66913059716165679 0 0.74314483375859142 I I #
point $-1 69.649805293640981 13.695887099384475 13.555003207710698 #
point $-1 78.526566362498855 27.634803783200272 3.6963610281222259 #
straight-curve $-1 78.526566362498855 0 13.555003207710691 0 1 0 I I #
vertex $-1 $282 $389 #
point $-1 73.561275975934961 17.67843472333184 6.1328012959645717 #
vertex $-1 $286 $390 #
point $-1 73.561275975934961 23.652256159252893 6.1328012959645717 #
coedge $-1 $301 $300 $293 $359 forward $290 $-1 #
edge $-1 $360 47.529183887720798 $363 55.62903467615044 $358 $391 forward 7 unknown #
vertex $-1 $305 $392 #
straight-curve $-1 -91.807812778613965 22.999588545384338 13.555003207710691 -1 0 0 I I #
edge $-1 $363 -13.010246443405659 $302 -6.9684377605516978 $301 $393 forward 7 unknown #
vertex $-1 $362 $394 #
straight-curve $-1 -78.526566362498883 22.999588545384338 5.4551524192810206 0.74314481823134659 0 0.66913061440640931 I I #
point $-1 -69.530770904524786 22.999588545384338 13.555003207710691 #
point $-1 -78.526566362498855 16.957779862530376 5.4551524192810463 #
straight-curve $-1 -78.526566362498855 0 13.555003207710691 0 -1 0 I I #
vertex $-1 $308 $395 #
point $-1 -72.126843708422342 19.97868420395735 8.8873638285661354 #
straight-curve $-1 -78.526566362498855 33.103044562065392 0 0 0 -1 I I #
point $-1 -78.526566362498855 -33.103044562065392 -13.555003207710691 #
straight-curve $-1 -78.526566362498855 0 -13.555003207710691 0 1 0 I I #
point $-1 -78.526566362498855 33.103044562065392 -13.555003207710691 #
coedge $-1 $378 $329 $330 $375 reversed $244 $-1 #
edge $-1 $376 -78.526566362498855 $338 78.526566362498855 $374 $396 forward 7 unknown #
vertex $-1 $380 $397 #
straight-curve $-1 78.526566362498855 -41.846077477635454 -7.6297496910261708 0 -1 0 I I #
coedge $-1 $332 $374 $334 $380 reversed $244 $-1 #
straight-curve $-1 0 -50.589110393205516 -1.7734687251068868 1 0 0 I I #
edge $-1 $335 -2.928140482959642 $376 2.928140482959642 $334 $398 forward 7 unknown #
point $-1 78.526566362498855 -50.589110393205516 -1.7734687251068868 #
straight-curve $-1 -78.526566362498855 -50.589110393205516 -4.7016092080665288 0 0 -1 I I #
point $-1 -78.526566362498855 -50.589110393205516 -7.6297496910261708 #
point $-1 -78.526566362498855 -50.589110393205516 -1.7734687251068868 #
straight-curve $-1 78.526566362498855 13.695887099384475 112.74932086234665 0 0 -1 I I #
point $-1 78.526566362498855 13.695887099384475 13.555003207710691 #
straight-curve $-1 78.526566362498855 10.332672720646187 3.696361028122233 0 1 0 I I #
point $-1 78.526566362498855 13.695887099384475 3.6963610281222259 #
point $-1 71.442862829554599 17.67843472333184 6.2438226508599737 #
point $-1 71.442862829554599 23.652256159252893 6.2438226508599737 #
straight-curve $-1 -78.526566362498855 22.999588545384338 61.084187095431489 0 0 -1 I I #
point $-1 -78.526566362498855 22.999588545384338 13.555003207710691 #
straight-curve $-1 -78.526566362498855 9.9893421019786786 5.4551524192810472 0 -1 0 I I #
point $-1 -78.526566362498855 22.999588545384338 5.4551524192810463 #
point $-1 -72.200857912247272 19.97868420395735 7.4750883959283794 #
straight-curve $-1 0 -50.589110393205516 -7.6297496910261708 -1 0 0 I I #
point $-1 78.526566362498855 -50.589110393205516 -7.6297496910261708 #
straight-curve $-1 78.526566362498855 -50.589110393205516 -4.7016092080665288 0 0 -1 I I #
End-of-ACIS-data 