500 0 9 0           
7 Unknown 11 ACIS 5.0 NT 24 Fri Mar 26 19:18:05 1999 
-1 9.9999999999999995e-007 1e-010 
body $-1 $9 $-1 $10 #
body $-1 $11 $-1 $12 #
body $-1 $13 $-1 $14 #
body $-1 $15 $-1 $16 #
body $-1 $17 $-1 $18 #
body $-1 $19 $-1 $20 #
body $-1 $21 $-1 $22 #
body $-1 $23 $-1 $24 #
body $-1 $25 $-1 $26 #
lump $-1 $-1 $27 $0 #
transform $-1 1 0 0 0 1 0 0 0 1 44.23841059602649 23.832739974012785 11.631398292258073 1 rotate no_reflect no_shear #
lump $-1 $-1 $28 $1 #
transform $-1 1 0 0 0 1 0 0 0 1 44.23841059602649 23.832739974012785 11.631398292258073 1 rotate no_reflect no_shear #
lump $-1 $-1 $29 $2 #
transform $-1 1 0 0 0 1 0 0 0 1 44.23841059602649 23.832739974012785 11.631398292258073 1 rotate no_reflect no_shear #
lump $-1 $-1 $30 $3 #
transform $-1 1 0 0 0 1 0 0 0 1 44.23841059602649 23.832739974012785 11.631398292258073 1 rotate no_reflect no_shear #
lump $-1 $-1 $31 $4 #
transform $-1 1 0 0 0 1 0 0 0 1 44.23841059602649 23.832739974012785 11.631398292258073 1 rotate no_reflect no_shear #
lump $-1 $-1 $32 $5 #
transform $-1 1 0 0 0 1 0 0 0 1 44.23841059602649 23.832739974012785 11.631398292258073 1 rotate no_reflect no_shear #
lump $-1 $-1 $33 $6 #
transform $-1 1 0 0 0 1 0 0 0 1 44.23841059602649 23.832739974012785 11.631398292258073 1 rotate no_reflect no_shear #
lump $-1 $-1 $34 $7 #
transform $-1 1 0 0 0 1 0 0 0 1 44.23841059602649 23.832739974012785 11.631398292258073 1 rotate no_reflect no_shear #
lump $-1 $-1 $35 $8 #
transform $-1 1 0 0 0 1 0 0 0 1 44.23841059602649 23.832739974012785 11.631398292258073 1 rotate no_reflect no_shear #
shell $-1 $-1 $-1 $36 $-1 $9 #
shell $-1 $-1 $-1 $37 $-1 $11 #
shell $-1 $-1 $-1 $38 $-1 $13 #
shell $-1 $-1 $-1 $39 $-1 $15 #
shell $-1 $-1 $-1 $40 $-1 $17 #
shell $-1 $-1 $-1 $41 $-1 $19 #
shell $-1 $-1 $-1 $42 $-1 $21 #
shell $-1 $-1 $-1 $43 $-1 $23 #
shell $-1 $-1 $-1 $44 $-1 $25 #
face $-1 $45 $46 $27 $-1 $47 forward single #
face $-1 $48 $49 $28 $-1 $50 forward single #
face $-1 $51 $52 $29 $-1 $53 forward single #
face $-1 $54 $55 $30 $-1 $56 reversed single #
face $-1 $57 $58 $31 $-1 $59 forward single #
face $-1 $60 $61 $32 $-1 $62 reversed single #
face $-1 $63 $64 $33 $-1 $65 forward single #
face $-1 $66 $67 $34 $-1 $68 reversed single #
face $-1 $69 $70 $35 $-1 $71 forward single #
face $-1 $72 $73 $27 $-1 $74 reversed single #
loop $-1 $-1 $75 $36 #
plane-surface $-1 0 0 11.631398292258073 0 0 1 1 0 0 forward_v I I I I #
face $-1 $76 $77 $28 $-1 $78 reversed single #
loop $-1 $-1 $79 $37 #
plane-surface $-1 0 -19.692154577301849 -3.9793382694583541 0 0 1 1 0 0 forward_v I I I I #
face $-1 $80 $81 $29 $-1 $82 reversed single #
loop $-1 $-1 $83 $38 #
plane-surface $-1 0 19.692154577301846 -3.9793382694583541 0 0 1 1 0 0 forward_v I I I I #
face $-1 $84 $85 $30 $-1 $86 reversed single #
loop $-1 $-1 $87 $39 #
plane-surface $-1 46.422146538059046 -4.0507462758635757 131.11777544175939 0 1 0 0.71933980857756763 0 0.69465836192734942 forward_v I I I I #
face $-1 $88 $89 $31 $-1 $90 forward single #
loop $-1 $91 $92 $40 #
cone-surface $-1 39.482392621331655 0.024005123320922195 6.8490547053423212 -0.71933980857756763 0 -0.69465836192734942 1.0419875428910241 0 -1.0790097128663514 1 I I 0 1 1.5 forward I I I I #
face $-1 $93 $94 $32 $-1 $95 reversed single #
loop $-1 $-1 $96 $41 #
plane-surface $-1 -106.80097156464211 -3.5527136788005009e-015 64.358539422134285 0 -1 0 0.70710678939079041 0 -0.70710677298230451 forward_v I I I I #
face $-1 $97 $98 $33 $-1 $99 forward single #
loop $-1 $100 $101 $42 #
cone-surface $-1 -38.344639720923247 -3.2561222563474352 5.7376273256884973 0.70710678939079041 0 -0.70710677298230451 1.0606601594734568 0 1.0606601840861856 1 I I 0 1 1.5 forward I I I I #
face $-1 $102 $103 $34 $-1 $104 reversed single #
loop $-1 $-1 $105 $43 #
plane-surface $-1 -44.238410596026483 -3.2561222563474352 1.7959799052893288 -0.70710678939079041 0 0.70710677298230451 0.70710677298230451 0 0.70710678939079041 forward_v I I I I #
face $-1 $106 $107 $35 $-1 $108 forward single #
loop $-1 $109 $110 $44 #
cone-surface $-1 -38.344639720923247 3.2561222563474317 5.7376273256884973 0.70710678939079041 0 -0.70710677298230451 1.0606601594734568 0 1.0606601840861856 1 I I 0 1 1.5 forward I I I I #
face $-1 $111 $112 $27 $-1 $113 reversed single #
loop $-1 $-1 $114 $45 #
plane-surface $-1 0 0 -11.631398292258073 0 0 1 1 0 0 forward_v I I I I #
coedge $-1 $115 $116 $117 $118 forward $46 $-1 #
face $-1 $119 $120 $28 $-1 $121 reversed single #
loop $-1 $-1 $122 $48 #
plane-surface $-1 0 -19.692154577301849 -10.710122155039036 0 0 1 1 0 0 forward_v I I I I #
coedge $-1 $123 $124 $125 $126 reversed $49 $-1 #
face $-1 $127 $128 $29 $-1 $129 reversed single #
loop $-1 $-1 $130 $51 #
plane-surface $-1 0 19.692154577301846 -10.710122155039036 0 0 1 1 0 0 forward_v I I I I #
coedge $-1 $131 $132 $133 $134 reversed $52 $-1 #
face $-1 $135 $136 $30 $-1 $137 reversed single #
loop $-1 $-1 $138 $54 #
plane-surface $-1 -17.222753081784035 0.024005123320922195 69.65661176394886 0.71933980857756763 0 0.69465836192734942 0.69465836192734942 0 -0.71933980857756763 forward_v I I I I #
coedge $-1 $139 $140 $141 $142 reversed $55 $-1 #
face $-1 $-1 $143 $31 $-1 $144 forward single #
loop $-1 $145 $146 $57 #
cone-surface $-1 36.900303641404399 0.024005123320922195 4.3555604210571879 -0.71933980857756763 0 -0.69465836192734942 0.52099377144551207 0 -0.53950485643317569 1 I I -0.70710678118654757 0.70710678118654757 0.75 forward I I I I #
loop $-1 $-1 $147 $40 #
coedge $-1 $92 $92 $148 $149 reversed $58 $-1 #
face $-1 $150 $151 $32 $-1 $152 reversed single #
loop $-1 $-1 $153 $60 #
plane-surface $-1 -44.238410596026483 -3.2561222563474352 1.7959799052893288 -0.70710678939079041 0 0.70710677298230451 0.70710677298230451 0 0.70710678939079041 forward_v I I I I #
coedge $-1 $154 $155 $156 $157 reversed $61 $-1 #
face $-1 $-1 $158 $33 $-1 $159 forward single #
loop $-1 $160 $161 $63 #
cone-surface $-1 -36.838247833145338 -3.2561222563474352 4.2312354728665653 0.70710678939079041 0 -0.70710677298230451 0.53033007973672841 0 0.53033009204309278 1 I I -0.70710678118654757 0.70710678118654757 0.75 forward I I I I #
loop $-1 $-1 $162 $42 #
coedge $-1 $101 $101 $163 $164 reversed $64 $-1 #
face $-1 $165 $166 $34 $-1 $167 reversed single #
loop $-1 $-1 $168 $66 #
plane-surface $-1 -106.80097156464211 6.5122445126948634 64.358539422134285 0 -1 0 0.70710678939079041 0 -0.70710677298230451 forward_v I I I I #
coedge $-1 $169 $170 $171 $172 reversed $67 $-1 #
face $-1 $-1 $173 $35 $-1 $174 forward single #
loop $-1 $175 $176 $69 #
cone-surface $-1 -36.838247833145338 3.2561222563474317 4.2312354728665653 0.70710678939079041 0 -0.70710677298230451 0.53033007973672841 0 0.53033009204309278 1 I I -0.70710678118654757 0.70710678118654757 0.75 forward I I I I #
loop $-1 $-1 $177 $44 #
coedge $-1 $110 $110 $178 $179 reversed $70 $-1 #
face $-1 $180 $181 $27 $-1 $182 reversed single #
loop $-1 $-1 $183 $72 #
plane-surface $-1 0 -23.832739974012785 0 0 1 0 0 0 1 forward_v I I I I #
coedge $-1 $184 $185 $186 $187 forward $73 $-1 #
coedge $-1 $188 $75 $189 $190 forward $46 $-1 #
coedge $-1 $75 $188 $191 $192 forward $46 $-1 #
coedge $-1 $193 $194 $75 $118 reversed $195 $-1 #
edge $-1 $196 -23.832739974012785 $197 23.832739974012785 $117 $198 forward 7 unknown #
face $-1 $199 $200 $28 $-1 $201 reversed single #
loop $-1 $-1 $202 $76 #
plane-surface $-1 0 -15.551569180590914 -7.3447302122486953 0 -1 0 0 0 -1 forward_v I I I I #
coedge $-1 $203 $204 $205 $206 reversed $77 $-1 #
coedge $-1 $207 $79 $208 $209 forward $49 $-1 #
coedge $-1 $79 $207 $210 $211 reversed $49 $-1 #
coedge $-1 $212 $213 $79 $126 forward $214 $-1 #
edge $-1 $215 5.7054918919399888 $216 13.986662685361861 $125 $217 forward 7 unknown #
face $-1 $218 $219 $29 $-1 $220 reversed single #
loop $-1 $-1 $221 $80 #
plane-surface $-1 0 15.55156918059091 -7.3447302122486953 0 1 0 0 0 1 forward_v I I I I #
coedge $-1 $222 $223 $224 $225 reversed $81 $-1 #
coedge $-1 $226 $83 $227 $228 reversed $52 $-1 #
coedge $-1 $83 $226 $229 $230 forward $52 $-1 #
coedge $-1 $231 $232 $83 $134 forward $219 $-1 #
edge $-1 $233 -13.986662685361859 $234 -5.7054918919399871 $133 $235 forward 7 unknown #
face $-1 $236 $237 $30 $-1 $238 forward single #
loop $-1 $-1 $239 $84 #
plane-surface $-1 46.422146538059046 4.0987565225054201 131.11777544175939 0 -1 0 -0.71933980857756763 0 -0.69465836192734942 forward_v I I I I #
coedge $-1 $240 $241 $242 $243 reversed $85 $-1 #
coedge $-1 $140 $87 $244 $245 reversed $55 $-1 #
coedge $-1 $87 $139 $240 $246 reversed $55 $-1 #
coedge $-1 $242 $247 $87 $142 forward $248 $-1 #
edge $-1 $249 53.927489428621627 $250 59.547175576773917 $141 $251 forward 7 unknown #
loop $-1 $-1 $148 $88 #
plane-surface $-1 -17.222753081784035 0.024005123320922195 69.65661176394886 0.71933980857756763 0 0.69465836192734942 0.69465836192734942 0 -0.71933980857756763 forward_v I I I I #
loop $-1 $-1 $252 $57 #
coedge $-1 $146 $146 $147 $253 reversed $89 $-1 #
coedge $-1 $147 $147 $146 $253 forward $91 $-1 #
coedge $-1 $148 $148 $92 $149 forward $143 $-1 #
edge $-1 $254 0 $254 6.2831853071796004 $148 $255 forward 7 unknown #
face $-1 $256 $257 $32 $-1 $258 reversed single #
loop $-1 $-1 $259 $93 #
plane-surface $-1 -106.80097156464211 -6.5122445126948669 64.358539422134285 0 1 0 -0.70710678939079041 0 0.70710677298230451 forward_v I I I I #
coedge $-1 $260 $261 $262 $263 reversed $94 $-1 #
coedge $-1 $155 $96 $264 $265 reversed $61 $-1 #
coedge $-1 $96 $154 $260 $266 reversed $61 $-1 #
coedge $-1 $262 $267 $96 $157 forward $257 $-1 #
edge $-1 $268 20.54787141880907 $269 30.383289805777821 $156 $270 forward 7 unknown #
loop $-1 $-1 $163 $97 #
plane-surface $-1 -44.238410596026483 -3.2561222563474352 1.7959799052893288 -0.70710678939079041 0 0.70710677298230451 0.70710677298230451 0 0.70710678939079041 forward_v I I I I #
loop $-1 $-1 $271 $63 #
coedge $-1 $161 $161 $162 $272 reversed $98 $-1 #
coedge $-1 $162 $162 $161 $272 forward $100 $-1 #
coedge $-1 $163 $163 $101 $164 forward $158 $-1 #
edge $-1 $273 0 $273 6.2831853071796004 $163 $274 forward 7 unknown #
face $-1 $275 $276 $34 $-1 $277 forward single #
loop $-1 $-1 $278 $102 #
plane-surface $-1 -44.23841059602649 0 0 1 0 0 0 0 -1 forward_v I I I I #
coedge $-1 $279 $280 $281 $282 reversed $103 $-1 #
coedge $-1 $283 $105 $284 $285 reversed $67 $-1 #
coedge $-1 $105 $283 $286 $287 reversed $67 $-1 #
coedge $-1 $288 $289 $105 $172 forward $276 $-1 #
edge $-1 $290 -1.0048591735576163e-014 $291 13.909381913080589 $171 $292 forward 7 unknown #
loop $-1 $-1 $178 $106 #
plane-surface $-1 -44.238410596026483 -3.2561222563474352 1.7959799052893288 -0.70710678939079041 0 0.70710677298230451 0.70710677298230451 0 0.70710678939079041 forward_v I I I I #
loop $-1 $-1 $293 $69 #
coedge $-1 $176 $176 $177 $294 reversed $107 $-1 #
coedge $-1 $177 $177 $176 $294 forward $109 $-1 #
coedge $-1 $178 $178 $110 $179 forward $173 $-1 #
edge $-1 $295 0 $295 6.2831853071796004 $178 $296 forward 7 unknown #
face $-1 $297 $298 $27 $-1 $299 reversed single #
loop $-1 $-1 $300 $111 #
plane-surface $-1 -44.23841059602649 0 0 1 0 0 0 0 -1 forward_v I I I I #
coedge $-1 $301 $191 $302 $303 forward $112 $-1 #
coedge $-1 $304 $114 $301 $305 forward $73 $-1 #
coedge $-1 $114 $304 $306 $307 forward $73 $-1 #
coedge $-1 $194 $193 $114 $187 reversed $195 $-1 #
edge $-1 $308 -23.832739974012785 $309 23.832739974012785 $186 $310 forward 7 unknown #
coedge $-1 $116 $115 $311 $312 forward $46 $-1 #
coedge $-1 $313 $314 $115 $190 reversed $298 $-1 #
edge $-1 $197 -44.23841059602649 $315 44.23841059602649 $189 $316 forward 7 unknown #
coedge $-1 $183 $317 $116 $192 reversed $112 $-1 #
edge $-1 $318 -44.23841059602649 $196 44.23841059602649 $191 $319 forward 7 unknown #
coedge $-1 $186 $117 $317 $320 forward $195 $-1 #
coedge $-1 $117 $186 $313 $321 reversed $195 $-1 #
loop $-1 $-1 $193 $297 #
vertex $-1 $118 $322 #
vertex $-1 $118 $323 #
straight-curve $-1 44.23841059602649 0 11.631398292258073 0 1 0 I I #
face $-1 $324 $325 $28 $-1 $326 reversed single #
loop $-1 $-1 $327 $119 #
plane-surface $-1 -44.23841059602649 0 0 1 0 0 0 0 -1 forward_v I I I I #
coedge $-1 $328 $208 $213 $329 reversed $120 $-1 #
coedge $-1 $330 $122 $331 $332 reversed $77 $-1 #
coedge $-1 $122 $330 $328 $333 forward $77 $-1 #
coedge $-1 $213 $212 $122 $206 forward $214 $-1 #
edge $-1 $334 -13.986662685361861 $335 -5.7054918919399888 $205 $336 forward 7 unknown #
coedge $-1 $124 $123 $327 $337 reversed $49 $-1 #
coedge $-1 $202 $338 $123 $209 reversed $120 $-1 #
edge $-1 $215 -44.23841059602649 $339 44.23841059602649 $208 $340 forward 7 unknown #
coedge $-1 $341 $342 $124 $211 forward $325 $-1 #
edge $-1 $216 -44.23841059602649 $343 44.23841059602649 $210 $344 forward 7 unknown #
coedge $-1 $205 $125 $342 $345 forward $214 $-1 #
coedge $-1 $125 $205 $202 $329 forward $214 $-1 #
loop $-1 $-1 $125 $324 #
vertex $-1 $126 $346 #
vertex $-1 $345 $347 #
straight-curve $-1 44.23841059602649 -9.8460772886509247 -3.9793382694583541 0 -1 0 I I #
face $-1 $348 $349 $29 $-1 $350 reversed single #
loop $-1 $-1 $133 $127 #
plane-surface $-1 44.23841059602649 0 0 -1 0 0 0 0 1 forward_v I I I I #
coedge $-1 $351 $229 $352 $353 reversed $128 $-1 #
coedge $-1 $354 $130 $351 $355 forward $81 $-1 #
coedge $-1 $130 $354 $356 $357 reversed $81 $-1 #
coedge $-1 $232 $231 $130 $225 forward $219 $-1 #
edge $-1 $358 5.7054918919399871 $359 13.986662685361859 $224 $360 forward 7 unknown #
coedge $-1 $132 $131 $361 $362 reversed $52 $-1 #
coedge $-1 $363 $364 $131 $228 forward $365 $-1 #
edge $-1 $366 -44.23841059602649 $233 44.23841059602649 $227 $367 forward 7 unknown #
coedge $-1 $221 $368 $132 $230 reversed $128 $-1 #
edge $-1 $369 -44.23841059602649 $234 44.23841059602649 $229 $370 forward 7 unknown #
coedge $-1 $224 $133 $368 $371 forward $219 $-1 #
coedge $-1 $133 $224 $363 $372 reversed $219 $-1 #
vertex $-1 $372 $373 #
vertex $-1 $134 $374 #
straight-curve $-1 44.23841059602649 9.8460772886509229 -3.9793382694583541 0 -1 0 I I #
face $-1 $-1 $248 $30 $-1 $375 reversed single #
loop $-1 $-1 $376 $135 #
plane-surface $-1 0 0 11.631398292258073 0 0 1 1 0 0 forward_v I I I I #
coedge $-1 $377 $378 $379 $380 reversed $136 $-1 #
coedge $-1 $381 $138 $140 $246 forward $85 $-1 #
coedge $-1 $138 $381 $377 $382 forward $85 $-1 #
coedge $-1 $379 $141 $138 $243 forward $248 $-1 #
edge $-1 $250 -4.0627488375240368 $383 4.086753960844959 $242 $384 forward 7 unknown #
coedge $-1 $385 $386 $139 $245 forward $237 $-1 #
edge $-1 $387 15.600469624595458 $249 21.027337326996967 $244 $388 forward 7 unknown #
edge $-1 $250 -88.476821192052995 $387 -80.664538205428443 $140 $389 forward 7 unknown #
coedge $-1 $141 $379 $385 $390 reversed $248 $-1 #
loop $-1 $-1 $379 $236 #
vertex $-1 $390 $391 #
vertex $-1 $142 $392 #
straight-curve $-1 44.23841059602649 -4.0507462758635757 65.558887720879696 0 0 -1 I I #
coedge $-1 $252 $252 $-1 $393 reversed $145 $-1 #
edge $-1 $394 0 $394 6.2831853071796004 $146 $395 forward 7 unknown #
vertex $-1 $149 $396 #
ellipse-curve $-1 41.524976744825729 0.024005123320922195 8.8215552181819366 0.71933980857756763 0 0.69465836192734942 1.0419875428910241 0 -1.0790097128663514 1 I I #
face $-1 $-1 $397 $32 $-1 $398 forward single #
loop $-1 $-1 $156 $150 #
plane-surface $-1 -44.23841059602649 0 0 1 0 0 0 0 -1 forward_v I I I I #
coedge $-1 $399 $400 $401 $402 reversed $151 $-1 #
coedge $-1 $403 $153 $155 $266 forward $94 $-1 #
coedge $-1 $153 $403 $399 $404 forward $94 $-1 #
coedge $-1 $401 $156 $153 $263 forward $257 $-1 #
edge $-1 $269 -1.6280611281737141 $405 4.8841833845211493 $262 $406 forward 7 unknown #
coedge $-1 $407 $408 $154 $265 forward $397 $-1 #
edge $-1 $409 -18.997493345031415 $268 -9.1620751862945653 $264 $410 forward 7 unknown #
edge $-1 $269 -1.0048591735576163e-014 $409 13.909381913080589 $155 $411 forward 7 unknown #
coedge $-1 $156 $401 $407 $412 reversed $257 $-1 #
vertex $-1 $412 $413 #
vertex $-1 $157 $414 #
straight-curve $-1 -44.23841059602649 -3.5527136788005009e-015 32.179269711067143 0 0 -1 I I #
coedge $-1 $271 $271 $-1 $415 reversed $160 $-1 #
edge $-1 $416 0 $416 6.2831853071796004 $161 $417 forward 7 unknown #
vertex $-1 $164 $418 #
ellipse-curve $-1 -39.320701516658062 -3.2561222563474352 6.7136890987736981 -0.70710678939079041 0 0.70710677298230451 1.0606601594734568 0 1.0606601840861856 1 I I #
face $-1 $-1 $419 $34 $-1 $420 forward single #
loop $-1 $-1 $289 $165 #
plane-surface $-1 -106.80097156464211 -3.5527136788005009e-015 64.358539422134285 0 -1 0 0.70710678939079041 0 -0.70710677298230451 forward_v I I I I #
coedge $-1 $284 $421 $280 $422 forward $166 $-1 #
coedge $-1 $280 $168 $283 $423 reversed $103 $-1 #
coedge $-1 $168 $279 $278 $422 reversed $103 $-1 #
coedge $-1 $424 $286 $168 $282 forward $419 $-1 #
edge $-1 $425 -18.997493345031415 $426 -9.1620751862945653 $281 $427 forward 7 unknown #
coedge $-1 $170 $169 $279 $423 forward $67 $-1 #
coedge $-1 $428 $278 $169 $285 forward $166 $-1 #
edge $-1 $429 -8.140305640868581 $290 -1.6280611281737141 $284 $430 forward 7 unknown #
coedge $-1 $281 $431 $170 $287 forward $419 $-1 #
edge $-1 $291 1.6280611281737141 $425 8.140305640868581 $286 $432 forward 7 unknown #
coedge $-1 $289 $171 $431 $433 reversed $276 $-1 #
coedge $-1 $171 $288 $428 $434 reversed $276 $-1 #
vertex $-1 $285 $435 #
vertex $-1 $287 $436 #
straight-curve $-1 -44.238410596026483 -3.5527136788005009e-015 1.7959799052893288 0.70710677298230451 0 0.70710678939079041 I I #
coedge $-1 $293 $293 $-1 $437 reversed $175 $-1 #
edge $-1 $438 0 $438 6.2831853071796004 $176 $439 forward 7 unknown #
vertex $-1 $179 $440 #
ellipse-curve $-1 -39.320701516658062 3.2561222563474317 6.7136890987736981 -0.70710678939079041 0 0.70710677298230451 1.0606601594734568 0 1.0606601840861856 1 I I #
face $-1 $-1 $195 $27 $-1 $441 reversed single #
loop $-1 $-1 $313 $180 #
plane-surface $-1 0 23.832739974012785 0 0 -1 0 0 0 -1 forward_v I I I I #
coedge $-1 $442 $311 $314 $443 forward $181 $-1 #
coedge $-1 $317 $183 $184 $305 reversed $112 $-1 #
coedge $-1 $311 $442 $183 $303 reversed $181 $-1 #
edge $-1 $318 -11.631398292258073 $444 11.631398292258073 $302 $445 forward 7 unknown #
coedge $-1 $185 $184 $442 $446 forward $73 $-1 #
edge $-1 $309 -44.23841059602649 $444 44.23841059602649 $301 $447 forward 7 unknown #
coedge $-1 $314 $313 $185 $307 reversed $298 $-1 #
edge $-1 $448 -44.23841059602649 $308 44.23841059602649 $306 $449 forward 7 unknown #
vertex $-1 $187 $450 #
vertex $-1 $320 $451 #
straight-curve $-1 44.23841059602649 0 -11.631398292258073 0 -1 0 I I #
coedge $-1 $300 $302 $188 $312 reversed $181 $-1 #
edge $-1 $315 -23.832739974012785 $318 23.832739974012785 $311 $452 forward 7 unknown #
coedge $-1 $306 $189 $194 $321 forward $298 $-1 #
coedge $-1 $189 $306 $300 $443 reversed $298 $-1 #
vertex $-1 $190 $453 #
straight-curve $-1 0 23.832739974012785 11.631398292258073 -1 0 0 I I #
coedge $-1 $191 $301 $193 $320 reversed $112 $-1 #
vertex $-1 $312 $454 #
straight-curve $-1 0 -23.832739974012785 11.631398292258073 1 0 0 I I #
edge $-1 $196 -11.631398292258073 $309 11.631398292258073 $193 $455 forward 7 unknown #
edge $-1 $197 -11.631398292258073 $308 11.631398292258073 $194 $456 forward 7 unknown #
point $-1 44.23841059602649 -23.832739974012785 11.631398292258073 #
point $-1 44.23841059602649 23.832739974012785 11.631398292258073 #
face $-1 $-1 $214 $28 $-1 $457 reversed single #
loop $-1 $-1 $210 $199 #
plane-surface $-1 0 -23.832739974012785 0 0 1 0 0 0 1 forward_v I I I I #
coedge $-1 $458 $459 $207 $337 forward $200 $-1 #
coedge $-1 $338 $202 $204 $333 reversed $120 $-1 #
edge $-1 $335 -7.0377570489146883 $215 -0.30697316333400648 $213 $460 forward 7 unknown #
coedge $-1 $204 $203 $461 $462 reversed $77 $-1 #
coedge $-1 $342 $341 $203 $332 forward $325 $-1 #
edge $-1 $463 -44.23841059602649 $334 44.23841059602649 $331 $464 forward 7 unknown #
edge $-1 $465 -44.23841059602649 $335 44.23841059602649 $328 $466 forward 7 unknown #
vertex $-1 $332 $467 #
vertex $-1 $206 $468 #
straight-curve $-1 44.23841059602649 -9.8460772886509247 -10.710122155039036 0 1 0 I I #
edge $-1 $343 -13.986662685361861 $339 -5.7054918919399888 $327 $469 forward 7 unknown #
coedge $-1 $208 $328 $458 $470 reversed $120 $-1 #
vertex $-1 $337 $471 #
straight-curve $-1 0 -15.551569180590914 -3.9793382694583541 -1 0 0 I I #
coedge $-1 $331 $210 $459 $472 forward $325 $-1 #
coedge $-1 $210 $331 $212 $345 reversed $325 $-1 #
vertex $-1 $472 $473 #
straight-curve $-1 0 -23.832739974012785 -3.9793382694583541 -1 0 0 I I #
edge $-1 $216 3.9793382694583541 $334 10.710122155039036 $212 $474 forward 7 unknown #
point $-1 44.23841059602649 -15.551569180590914 -3.9793382694583541 #
point $-1 44.23841059602649 -23.832739974012785 -3.9793382694583541 #
face $-1 $-1 $365 $29 $-1 $475 reversed single #
loop $-1 $-1 $361 $218 #
plane-surface $-1 -44.23841059602649 0 0 1 0 0 0 0 -1 forward_v I I I I #
coedge $-1 $368 $221 $222 $355 reversed $128 $-1 #
coedge $-1 $361 $476 $221 $353 forward $349 $-1 #
edge $-1 $477 -7.0377570489146883 $369 -0.30697316333400648 $352 $478 forward 7 unknown #
coedge $-1 $223 $222 $476 $479 reversed $81 $-1 #
edge $-1 $358 -44.23841059602649 $477 44.23841059602649 $351 $480 forward 7 unknown #
coedge $-1 $364 $363 $223 $357 forward $365 $-1 #
edge $-1 $359 -44.23841059602649 $481 44.23841059602649 $356 $482 forward 7 unknown #
vertex $-1 $225 $483 #
vertex $-1 $357 $484 #
straight-curve $-1 44.23841059602649 9.8460772886509229 -10.710122155039036 0 1 0 I I #
coedge $-1 $485 $352 $226 $362 forward $349 $-1 #
edge $-1 $369 5.7054918919399871 $366 13.986662685361859 $361 $486 forward 7 unknown #
coedge $-1 $356 $227 $232 $372 forward $365 $-1 #
coedge $-1 $227 $356 $485 $487 reversed $365 $-1 #
loop $-1 $-1 $227 $348 #
vertex $-1 $487 $488 #
straight-curve $-1 0 23.832739974012785 -3.9793382694583541 1 0 0 I I #
coedge $-1 $229 $351 $231 $371 reversed $128 $-1 #
vertex $-1 $362 $489 #
straight-curve $-1 0 15.55156918059091 -3.9793382694583541 1 0 0 I I #
edge $-1 $234 0.30697316333400648 $358 7.0377570489146883 $231 $490 forward 7 unknown #
edge $-1 $233 3.9793382694583541 $359 10.710122155039036 $232 $491 forward 7 unknown #
point $-1 44.23841059602649 23.832739974012782 -3.9793382694583541 #
point $-1 44.23841059602649 15.55156918059091 -3.9793382694583541 #
plane-surface $-1 44.23841059602649 0 0 -1 0 0 0 0 1 forward_v I I I I #
coedge $-1 $386 $385 $378 $492 forward $237 $-1 #
coedge $-1 $378 $239 $241 $382 reversed $136 $-1 #
coedge $-1 $239 $377 $376 $492 reversed $136 $-1 #
coedge $-1 $247 $242 $239 $380 forward $248 $-1 #
edge $-1 $383 -59.547175576773917 $493 -53.927489428621627 $379 $494 forward 7 unknown #
coedge $-1 $241 $240 $386 $495 reversed $85 $-1 #
edge $-1 $496 80.664538205428443 $383 88.476821192052995 $377 $497 forward 7 unknown #
vertex $-1 $243 $498 #
straight-curve $-1 44.238410596026483 0.012002561660461097 6.0117121441057932 0 1 0 I I #
coedge $-1 $376 $244 $247 $390 forward $237 $-1 #
coedge $-1 $244 $376 $381 $495 forward $237 $-1 #
vertex $-1 $245 $499 #
straight-curve $-1 23.211073269029523 -4.0507462758635757 11.631398292258069 1 0 0 I I #
straight-curve $-1 -17.222753081784035 -4.0507462758635757 69.65661176394886 -0.69465836192734942 0 0.71933980857756763 I I #
edge $-1 $249 -4.0507462758635757 $493 4.0987565225054201 $247 $500 forward 7 unknown #
point $-1 44.23841059602649 -4.0507462758635757 11.631398292258073 #
point $-1 44.238410596026498 -4.0507462758635757 6.011712144105779 #
edge $-1 $501 1 $501 0 $252 $-1 forward 7 unknown #
vertex $-1 $253 $502 #
ellipse-curve $-1 37.439808497837575 0.024005123320922195 4.8765541925026996 0.71933980857756763 0 0.69465836192734942 1.0419875428910241 0 -1.0790097128663514 1 I I #
point $-1 42.566964287716758 0.024005123320922195 7.7425455053155918 #
loop $-1 $-1 $264 $256 #
plane-surface $-1 0 0 11.631398292258073 0 0 1 1 0 0 forward_v I I I I #
coedge $-1 $400 $259 $261 $404 reversed $151 $-1 #
coedge $-1 $259 $399 $503 $504 reversed $151 $-1 #
coedge $-1 $267 $262 $259 $402 forward $257 $-1 #
edge $-1 $405 -30.383289805777821 $505 -20.54787141880907 $401 $506 forward 7 unknown #
coedge $-1 $261 $260 $408 $507 reversed $94 $-1 #
edge $-1 $508 -13.909381913080589 $405 1.0048591735576163e-014 $399 $509 forward 7 unknown #
vertex $-1 $263 $510 #
straight-curve $-1 -44.23841059602649 -1.6280611281737176 1.7959799052893199 0 -1 0 I I #
coedge $-1 $503 $264 $267 $412 forward $397 $-1 #
coedge $-1 $264 $503 $403 $507 forward $397 $-1 #
vertex $-1 $265 $511 #
straight-curve $-1 -53.400485782321056 -3.5527136788005009e-015 11.631398292258073 -1 0 0 I I #
straight-curve $-1 -44.238410596026483 -3.5527136788005009e-015 1.7959799052893288 0.70710677298230451 0 0.70710678939079041 I I #
edge $-1 $268 3.5527136788005009e-015 $505 6.5122445126948669 $267 $512 forward 7 unknown #
point $-1 -44.23841059602649 -3.5527136788005009e-015 11.631398292258073 #
point $-1 -44.23841059602649 -3.5527136788005009e-015 1.7959799052893217 #
edge $-1 $513 1 $513 0 $271 $-1 forward 7 unknown #
vertex $-1 $272 $514 #
ellipse-curve $-1 -37.368577925188433 -3.2561222563474352 4.7615655526032938 -0.70710678939079041 0 0.70710677298230451 1.0606601594734568 0 1.0606601840861856 1 I I #
point $-1 -38.260041357184612 -3.2561222563474352 7.7743492828598866 #
loop $-1 $-1 $281 $275 #
plane-surface $-1 0 0 11.631398292258073 0 0 1 1 0 0 forward_v I I I I #
coedge $-1 $278 $428 $424 $515 reversed $166 $-1 #
edge $-1 $426 20.54787141880907 $429 30.383289805777821 $278 $516 forward 7 unknown #
edge $-1 $429 -1.0048591735576163e-014 $425 13.909381913080589 $279 $517 forward 7 unknown #
coedge $-1 $431 $281 $421 $515 forward $419 $-1 #
vertex $-1 $282 $518 #
vertex $-1 $515 $519 #
straight-curve $-1 -53.400485782321056 6.5122445126948634 11.631398292258073 -1 0 0 I I #
coedge $-1 $421 $284 $289 $434 forward $166 $-1 #
vertex $-1 $422 $520 #
straight-curve $-1 -44.23841059602649 -1.6280611281737176 1.7959799052893199 0 -1 0 I I #
coedge $-1 $286 $424 $288 $433 forward $419 $-1 #
straight-curve $-1 -34.40299243728964 -1.6280611281737176 11.631398292258073 0 1 0 I I #
edge $-1 $521 9.1620751862945653 $291 18.997493345031415 $431 $522 forward 7 unknown #
edge $-1 $290 -30.383289805777821 $521 -20.54787141880907 $428 $523 forward 7 unknown #
point $-1 -44.23841059602649 -3.5527136788005009e-015 1.7959799052893217 #
point $-1 -34.40299243728964 -3.5527136788005009e-015 11.631398292258073 #
edge $-1 $524 1 $524 0 $293 $-1 forward 7 unknown #
vertex $-1 $294 $525 #
ellipse-curve $-1 -37.368577925188433 3.2561222563474317 4.7615655526032938 -0.70710678939079041 0 0.70710677298230451 1.0606601594734568 0 1.0606601840861856 1 I I #
point $-1 -38.260041357184612 3.2561222563474317 7.7743492828598866 #
plane-surface $-1 44.23841059602649 0 0 -1 0 0 0 0 1 forward_v I I I I #
coedge $-1 $302 $300 $304 $446 reversed $181 $-1 #
edge $-1 $315 -11.631398292258073 $448 11.631398292258073 $314 $526 forward 7 unknown #
vertex $-1 $446 $527 #
straight-curve $-1 -44.23841059602649 -23.832739974012785 0 0 0 -1 I I #
edge $-1 $444 -23.832739974012785 $448 23.832739974012785 $442 $528 forward 7 unknown #
straight-curve $-1 0 -23.832739974012785 -11.631398292258073 -1 0 0 I I #
vertex $-1 $307 $529 #
straight-curve $-1 0 23.832739974012785 -11.631398292258073 1 0 0 I I #
point $-1 44.23841059602649 23.832739974012785 -11.631398292258073 #
point $-1 44.23841059602649 -23.832739974012785 -11.631398292258073 #
straight-curve $-1 -44.23841059602649 0 11.631398292258073 0 -1 0 I I #
point $-1 -44.23841059602649 23.832739974012785 11.631398292258073 #
point $-1 -44.23841059602649 -23.832739974012785 11.631398292258073 #
straight-curve $-1 44.23841059602649 -23.832739974012785 0 0 0 -1 I I #
straight-curve $-1 44.23841059602649 23.832739974012785 0 0 0 -1 I I #
plane-surface $-1 44.23841059602649 0 0 -1 0 0 0 0 1 forward_v I I I I #
coedge $-1 $461 $327 $338 $470 forward $200 $-1 #
coedge $-1 $327 $461 $341 $472 reversed $200 $-1 #
straight-curve $-1 44.23841059602649 -15.551569180590914 -3.6723651061243476 0 0 1 I I #
coedge $-1 $459 $458 $330 $462 forward $200 $-1 #
edge $-1 $465 5.7054918919399888 $463 13.986662685361861 $461 $530 forward 7 unknown #
vertex $-1 $332 $531 #
straight-curve $-1 0 -23.832739974012785 -10.710122155039036 1 0 0 I I #
vertex $-1 $462 $532 #
straight-curve $-1 0 -15.551569180590914 -10.710122155039036 1 0 0 I I #
point $-1 44.23841059602649 -23.832739974012785 -10.710122155039036 #
point $-1 44.23841059602649 -15.551569180590914 -10.710122155039036 #
straight-curve $-1 -44.23841059602649 -9.8460772886509247 -3.9793382694583541 0 1 0 I I #
edge $-1 $339 0.30697316333400648 $465 7.0377570489146883 $458 $533 forward 7 unknown #
point $-1 -44.23841059602649 -15.551569180590914 -3.9793382694583541 #
edge $-1 $343 3.9793382694583541 $463 10.710122155039036 $459 $534 forward 7 unknown #
point $-1 -44.23841059602649 -23.832739974012785 -3.9793382694583541 #
straight-curve $-1 44.23841059602649 -23.832739974012785 0 0 0 -1 I I #
plane-surface $-1 0 23.832739974012785 0 0 -1 0 0 0 -1 forward_v I I I I #
coedge $-1 $352 $485 $354 $479 forward $349 $-1 #
vertex $-1 $479 $535 #
straight-curve $-1 -44.23841059602649 15.55156918059091 -3.6723651061243476 0 0 1 I I #
edge $-1 $481 -13.986662685361859 $477 -5.7054918919399871 $476 $536 forward 7 unknown #
straight-curve $-1 0 15.55156918059091 -10.710122155039036 -1 0 0 I I #
vertex $-1 $357 $537 #
straight-curve $-1 0 23.832739974012785 -10.710122155039036 -1 0 0 I I #
point $-1 44.23841059602649 15.55156918059091 -10.710122155039036 #
point $-1 44.23841059602649 23.832739974012782 -10.710122155039036 #
coedge $-1 $476 $361 $364 $487 forward $349 $-1 #
straight-curve $-1 -44.23841059602649 9.8460772886509229 -3.9793382694583541 0 1 0 I I #
edge $-1 $366 3.9793382694583541 $481 10.710122155039036 $364 $538 forward 7 unknown #
point $-1 -44.23841059602649 23.832739974012782 -3.9793382694583541 #
point $-1 -44.23841059602649 15.55156918059091 -3.9793382694583541 #
straight-curve $-1 44.23841059602649 15.55156918059091 -3.6723651061243476 0 0 -1 I I #
straight-curve $-1 44.23841059602649 23.832739974012785 0 0 0 -1 I I #
edge $-1 $493 -21.027337326996967 $496 -15.600469624595458 $376 $539 forward 7 unknown #
vertex $-1 $492 $540 #
straight-curve $-1 44.23841059602649 4.0987565225054201 65.558887720879696 0 0 1 I I #
edge $-1 $496 -4.086753960844959 $387 4.0627488375240368 $386 $541 forward 7 unknown #
vertex $-1 $495 $542 #
straight-curve $-1 -17.222753081784035 4.0987565225054201 69.65661176394886 0.69465836192734942 0 -0.71933980857756763 I I #
point $-1 44.238410596026498 4.0987565225054201 6.011712144105779 #
point $-1 38.811542893624981 -4.0507462758635757 11.631398292258076 #
straight-curve $-1 44.23841059602649 0 11.631398292258073 0 1 0 I I #
vertex $-1 $393 $543 #
point $-1 38.481796040728597 0.024005123320922195 3.7975444796363487 #
coedge $-1 $408 $407 $400 $504 forward $397 $-1 #
edge $-1 $505 9.1620751862945653 $508 18.997493345031415 $503 $544 forward 7 unknown #
vertex $-1 $504 $545 #
straight-curve $-1 -44.23841059602649 -6.5122445126948669 32.179269711067143 0 0 1 I I #
edge $-1 $508 -4.8841833845211493 $409 1.6280611281737141 $408 $546 forward 7 unknown #
vertex $-1 $507 $547 #
straight-curve $-1 -44.238410596026483 -6.5122445126948669 1.7959799052893288 -0.70710677298230451 0 -0.70710678939079041 I I #
point $-1 -44.23841059602649 -6.5122445126948669 1.7959799052893217 #
point $-1 -34.40299243728964 -3.5527136788005009e-015 11.631398292258073 #
straight-curve $-1 -44.23841059602649 0 11.631398292258073 0 -1 0 I I #
vertex $-1 $415 $548 #
point $-1 -36.307917765714976 -3.2561222563474352 5.8222257366894787 #
edge $-1 $426 -6.5122445126948634 $521 3.5527136788005009e-015 $421 $549 forward 7 unknown #
straight-curve $-1 -44.23841059602649 6.5122445126948634 32.179269711067143 0 0 -1 I I #
straight-curve $-1 -44.238410596026483 6.5122445126948634 1.7959799052893288 0.70710677298230451 0 0.70710678939079041 I I #
point $-1 -34.40299243728964 6.5122445126948634 11.631398292258073 #
point $-1 -44.23841059602649 6.5122445126948634 11.631398292258073 #
point $-1 -44.23841059602649 6.5122445126948634 1.7959799052893217 #
vertex $-1 $433 $550 #
straight-curve $-1 -53.400485782321056 -3.5527136788005009e-015 11.631398292258073 1 0 0 I I #
straight-curve $-1 -44.23841059602649 -3.5527136788005009e-015 32.179269711067143 0 0 1 I I #
vertex $-1 $437 $551 #
point $-1 -36.307917765714976 3.2561222563474317 5.8222257366894787 #
straight-curve $-1 -44.23841059602649 23.832739974012785 0 0 0 -1 I I #
point $-1 -44.23841059602649 -23.832739974012785 -11.631398292258073 #
straight-curve $-1 -44.23841059602649 0 -11.631398292258073 0 1 0 I I #
point $-1 -44.23841059602649 23.832739974012785 -11.631398292258073 #
straight-curve $-1 -44.23841059602649 -9.8460772886509247 -10.710122155039036 0 -1 0 I I #
point $-1 -44.23841059602649 -23.832739974012785 -10.710122155039036 #
point $-1 -44.23841059602649 -15.551569180590914 -10.710122155039036 #
straight-curve $-1 -44.23841059602649 -15.551569180590914 -3.6723651061243476 0 0 -1 I I #
straight-curve $-1 -44.23841059602649 -23.832739974012785 0 0 0 -1 I I #
point $-1 -44.23841059602649 15.55156918059091 -10.710122155039036 #
straight-curve $-1 -44.23841059602649 9.8460772886509229 -10.710122155039036 0 -1 0 I I #
point $-1 -44.23841059602649 23.832739974012782 -10.710122155039036 #
straight-curve $-1 -44.23841059602649 23.832739974012785 0 0 0 -1 I I #
straight-curve $-1 23.211073269029523 4.0987565225054201 11.631398292258069 -1 0 0 I I #
point $-1 44.23841059602649 4.0987565225054201 11.631398292258073 #
straight-curve $-1 38.811542893624974 0.012002561660461097 11.631398292258076 0 -1 0 I I #
point $-1 38.811542893624981 4.0987565225054201 11.631398292258076 #
point $-1 36.360798784971223 0.024005123320922195 3.8345666496116757 #
straight-curve $-1 -53.400485782321056 -6.5122445126948669 11.631398292258073 1 0 0 I I #
point $-1 -44.23841059602649 -6.5122445126948669 11.631398292258073 #
straight-curve $-1 -34.40299243728964 -1.6280611281737176 11.631398292258073 0 1 0 I I #
point $-1 -34.40299243728964 -6.5122445126948669 11.631398292258073 #
point $-1 -36.307917741102244 -3.2561222563474352 3.7009053931298368 #
straight-curve $-1 -44.23841059602649 0 11.631398292258073 0 -1 0 I I #
point $-1 -44.23841059602649 -3.5527136788005009e-015 11.631398292258073 #
point $-1 -36.307917741102244 3.2561222563474317 3.7009053931298368 #
End-of-ACIS-data 