500 0 5 0           
7 Unknown 11 ACIS 5.0 NT 24 Fri Mar 26 20:34:38 1999 
-1 9.9999999999999995e-007 1e-010 
body $-1 $5 $-1 $6 #
body $-1 $7 $-1 $8 #
body $-1 $9 $-1 $10 #
body $-1 $11 $-1 $12 #
body $-1 $13 $-1 $14 #
lump $-1 $-1 $15 $0 #
transform $-1 1 0 0 0 1 0 0 0 1 63.678701132236704 31.663086086834504 12.483858011548927 1 rotate no_reflect no_shear #
lump $-1 $-1 $16 $1 #
transform $-1 1 0 0 0 1 0 0 0 1 63.678701132236704 31.663086086834504 12.483858011548927 1 rotate no_reflect no_shear #
lump $-1 $-1 $17 $2 #
transform $-1 1 0 0 0 1 0 0 0 1 63.678701132236704 31.663086086834504 12.483858011548927 1 rotate no_reflect no_shear #
lump $-1 $-1 $18 $3 #
transform $-1 1 0 0 0 1 0 0 0 1 63.678701132236704 31.663086086834504 12.483858011548927 1 rotate no_reflect no_shear #
lump $-1 $-1 $19 $4 #
transform $-1 1 0 0 0 1 0 0 0 1 63.678701132236704 31.663086086834504 12.483858011548927 1 rotate no_reflect no_shear #
shell $-1 $-1 $-1 $20 $-1 $5 #
shell $-1 $-1 $-1 $21 $-1 $7 #
shell $-1 $-1 $-1 $22 $-1 $9 #
shell $-1 $-1 $-1 $23 $-1 $11 #
shell $-1 $-1 $-1 $24 $-1 $13 #
face $-1 $25 $26 $15 $-1 $27 forward single #
face $-1 $28 $29 $16 $-1 $30 forward single #
face $-1 $31 $32 $17 $-1 $33 reversed single #
face $-1 $34 $35 $18 $-1 $36 forward single #
face $-1 $37 $38 $19 $-1 $39 forward single #
face $-1 $40 $41 $15 $-1 $42 reversed single #
loop $-1 $-1 $43 $20 #
plane-surface $-1 0 0 12.483858011548927 0 0 1 1 0 0 forward_v I I I I #
face $-1 $44 $45 $16 $-1 $46 reversed single #
loop $-1 $-1 $47 $21 #
plane-surface $-1 -57.887622770559247 0 1.9446276807615974 0 0 1 1 0 0 forward_v I I I I #
face $-1 $48 $49 $17 $-1 $50 reversed single #
loop $-1 $-1 $51 $22 #
plane-surface $-1 19.541460387635809 -102.88044256318653 112.0048573397648 1 0 0 0 0.55919291073839883 -0.82903756765294845 forward_v I I I I #
face $-1 $52 $53 $18 $-1 $54 forward single #
loop $-1 $55 $56 $23 #
cone-surface $-1 29.036414561364516 -25.390553563562452 6.8161866385382908 0 0.55919291073839883 -0.82903756765294845 2 0 0 1 I I 0 1 2 forward I I I I #
face $-1 $57 $58 $19 $-1 $59 forward single #
loop $-1 $60 $61 $24 #
cone-surface $-1 43.278845821957567 -25.390553563562452 6.8161866385382908 0 0.55919291073839883 -0.82903756765294845 2 0 0 1 I I 0 1 2 forward I I I I #
face $-1 $62 $63 $15 $-1 $64 reversed single #
loop $-1 $-1 $65 $25 #
plane-surface $-1 0 0 -12.483858011548927 0 0 1 1 0 0 forward_v I I I I #
coedge $-1 $66 $67 $68 $69 forward $26 $-1 #
face $-1 $70 $71 $16 $-1 $72 reversed single #
loop $-1 $-1 $73 $28 #
plane-surface $-1 -57.887622770559247 0 -5.1243135808089182 0 0 1 1 0 0 forward_v I I I I #
coedge $-1 $74 $75 $76 $77 forward $29 $-1 #
face $-1 $78 $79 $17 $-1 $80 reversed single #
loop $-1 $-1 $81 $31 #
plane-surface $-1 36.157630191661049 -31.663086086834511 6.4207863438276718 0 -0.55919291073839883 0.82903756765294845 1 0 0 forward_v I I I I #
coedge $-1 $82 $83 $84 $85 reversed $32 $-1 #
face $-1 $-1 $86 $18 $-1 $87 forward single #
loop $-1 $88 $89 $34 #
cone-surface $-1 29.036414561364516 -23.053264746493156 3.3510135317353331 0 0.55919291073839883 -0.82903756765294845 1 0 0 1 I I -0.70710678118654746 0.70710678118654746 1 forward I I I I #
loop $-1 $-1 $90 $23 #
coedge $-1 $56 $56 $91 $92 reversed $35 $-1 #
face $-1 $-1 $93 $19 $-1 $94 forward single #
loop $-1 $95 $96 $37 #
cone-surface $-1 43.278845821957567 -23.053264746493156 3.3510135317353331 0 0.55919291073839883 -0.82903756765294845 1 0 0 1 I I -0.70710678118654746 0.70710678118654746 1 forward I I I I #
loop $-1 $-1 $97 $24 #
coedge $-1 $61 $61 $98 $99 reversed $38 $-1 #
face $-1 $100 $101 $15 $-1 $102 reversed single #
loop $-1 $-1 $103 $40 #
plane-surface $-1 0 -31.663086086834504 0 0 1 0 0 0 1 forward_v I I I I #
coedge $-1 $104 $105 $106 $107 forward $41 $-1 #
coedge $-1 $108 $43 $109 $110 forward $26 $-1 #
coedge $-1 $43 $108 $111 $112 forward $26 $-1 #
coedge $-1 $113 $114 $43 $69 reversed $115 $-1 #
edge $-1 $116 -31.663086086834504 $117 31.663086086834504 $68 $118 forward 7 unknown #
face $-1 $119 $120 $16 $-1 $121 reversed single #
loop $-1 $-1 $122 $44 #
plane-surface $-1 -52.09654440888179 0 -1.5898429500236606 -1 0 0 0 0 1 forward_v I I I I #
coedge $-1 $123 $124 $125 $126 forward $45 $-1 #
coedge $-1 $127 $47 $128 $129 reversed $29 $-1 #
coedge $-1 $47 $127 $130 $131 reversed $29 $-1 #
coedge $-1 $122 $132 $47 $77 reversed $71 $-1 #
edge $-1 $133 -31.663086086834504 $134 31.663086086834504 $76 $135 forward 7 unknown #
face $-1 $136 $137 $17 $-1 $138 forward single #
loop $-1 $-1 $139 $48 #
plane-surface $-1 52.773799995686289 -102.88044256318653 112.0048573397648 -1 0 0 0 -0.55919291073839883 0.82903756765294845 forward_v I I I I #
coedge $-1 $140 $141 $142 $143 reversed $49 $-1 #
coedge $-1 $83 $51 $144 $145 reversed $32 $-1 #
coedge $-1 $51 $82 $140 $146 reversed $32 $-1 #
coedge $-1 $142 $147 $51 $85 forward $148 $-1 #
edge $-1 $149 43.518570658333473 $150 49.58164232605472 $84 $151 forward 7 unknown #
loop $-1 $-1 $91 $52 #
plane-surface $-1 36.157630191661049 -31.663086086834511 6.4207863438276718 0 -0.55919291073839883 0.82903756765294845 1 0 0 forward_v I I I I #
loop $-1 $-1 $152 $34 #
coedge $-1 $89 $89 $90 $153 reversed $53 $-1 #
coedge $-1 $90 $90 $89 $153 forward $55 $-1 #
coedge $-1 $91 $91 $56 $92 forward $86 $-1 #
edge $-1 $154 -4.9666307576714426e-016 $154 6.2831853071795996 $91 $155 forward 7 unknown #
loop $-1 $-1 $98 $57 #
plane-surface $-1 36.157630191661049 -31.663086086834511 6.4207863438276718 0 -0.55919291073839883 0.82903756765294845 1 0 0 forward_v I I I I #
loop $-1 $-1 $156 $37 #
coedge $-1 $96 $96 $97 $157 reversed $58 $-1 #
coedge $-1 $97 $97 $96 $157 forward $60 $-1 #
coedge $-1 $98 $98 $61 $99 forward $93 $-1 #
edge $-1 $158 -4.9666307576714426e-016 $158 6.2831853071795996 $98 $159 forward 7 unknown #
face $-1 $160 $161 $15 $-1 $162 reversed single #
loop $-1 $-1 $163 $62 #
plane-surface $-1 -63.678701132236704 0 0 1 0 0 0 0 -1 forward_v I I I I #
coedge $-1 $164 $111 $165 $166 forward $63 $-1 #
coedge $-1 $167 $65 $164 $168 forward $41 $-1 #
coedge $-1 $65 $167 $169 $170 forward $41 $-1 #
coedge $-1 $114 $113 $65 $107 reversed $115 $-1 #
edge $-1 $171 -31.663086086834504 $172 31.663086086834504 $106 $173 forward 7 unknown #
coedge $-1 $67 $66 $174 $175 forward $26 $-1 #
coedge $-1 $176 $177 $66 $110 reversed $161 $-1 #
edge $-1 $117 -63.678701132236704 $178 63.678701132236704 $109 $179 forward 7 unknown #
coedge $-1 $103 $180 $67 $112 reversed $63 $-1 #
edge $-1 $181 -63.678701132236704 $116 63.678701132236704 $111 $182 forward 7 unknown #
coedge $-1 $106 $68 $180 $183 forward $115 $-1 #
coedge $-1 $68 $106 $176 $184 reversed $115 $-1 #
loop $-1 $-1 $113 $160 #
vertex $-1 $69 $185 #
vertex $-1 $69 $186 #
straight-curve $-1 63.678701132236704 0 12.483858011548927 0 1 0 I I #
face $-1 $187 $188 $16 $-1 $189 reversed single #
loop $-1 $-1 $190 $70 #
plane-surface $-1 0 -31.663086086834504 0 0 1 0 0 0 1 forward_v I I I I #
coedge $-1 $125 $76 $191 $192 reversed $71 $-1 #
coedge $-1 $193 $73 $190 $194 reversed $45 $-1 #
coedge $-1 $73 $193 $195 $196 reversed $45 $-1 #
coedge $-1 $132 $122 $73 $126 reversed $71 $-1 #
edge $-1 $197 -31.663086086834504 $198 31.663086086834504 $125 $199 forward 7 unknown #
coedge $-1 $75 $74 $200 $201 reversed $29 $-1 #
coedge $-1 $202 $203 $74 $129 forward $204 $-1 #
edge $-1 $205 -34.73488974695708 $134 -23.152733023602167 $128 $206 forward 7 unknown #
coedge $-1 $207 $191 $75 $131 forward $120 $-1 #
edge $-1 $133 23.152733023602167 $208 34.73488974695708 $130 $209 forward 7 unknown #
coedge $-1 $76 $125 $202 $210 reversed $71 $-1 #
vertex $-1 $131 $211 #
vertex $-1 $129 $212 #
straight-curve $-1 -52.09654440888179 0 1.9446276807615974 0 1 0 I I #
face $-1 $-1 $148 $17 $-1 $213 reversed single #
loop $-1 $-1 $214 $78 #
plane-surface $-1 0 0 12.483858011548927 0 0 1 1 0 0 forward_v I I I I #
coedge $-1 $215 $216 $217 $218 reversed $79 $-1 #
coedge $-1 $219 $81 $83 $146 forward $49 $-1 #
coedge $-1 $81 $219 $215 $220 forward $49 $-1 #
coedge $-1 $217 $84 $81 $143 forward $148 $-1 #
edge $-1 $150 1.4626452918052841 $221 34.694984899855768 $142 $222 forward 7 unknown #
coedge $-1 $223 $224 $82 $145 forward $137 $-1 #
edge $-1 $225 -28.766008428641072 $149 -19.777135194758763 $144 $226 forward 7 unknown #
edge $-1 $150 8.3739815925159718e-015 $225 10.842540295647055 $83 $227 forward 7 unknown #
coedge $-1 $84 $217 $223 $228 reversed $148 $-1 #
loop $-1 $-1 $217 $136 #
vertex $-1 $228 $229 #
vertex $-1 $85 $230 #
straight-curve $-1 19.541460387635809 -31.663086086834504 56.002428669882399 0 0 -1 I I #
coedge $-1 $152 $152 $-1 $231 reversed $88 $-1 #
edge $-1 $232 0 $232 6.2831853071796004 $89 $233 forward 7 unknown #
vertex $-1 $92 $234 #
ellipse-curve $-1 29.036414561364516 -27.168649469893349 9.452322177688302 0 -0.55919291073839883 0.82903756765294845 2 0 0 1 I I #
coedge $-1 $156 $156 $-1 $235 reversed $95 $-1 #
edge $-1 $236 0 $236 6.2831853071796004 $96 $237 forward 7 unknown #
vertex $-1 $99 $238 #
ellipse-curve $-1 43.278845821957567 -27.168649469893349 9.452322177688302 0 -0.55919291073839883 0.82903756765294845 2 0 0 1 I I #
face $-1 $-1 $115 $15 $-1 $239 reversed single #
loop $-1 $-1 $176 $100 #
plane-surface $-1 0 31.663086086834504 0 0 -1 0 0 0 -1 forward_v I I I I #
coedge $-1 $240 $174 $177 $241 forward $101 $-1 #
coedge $-1 $180 $103 $104 $168 reversed $63 $-1 #
coedge $-1 $174 $240 $103 $166 reversed $101 $-1 #
edge $-1 $181 -12.483858011548927 $242 12.483858011548927 $165 $243 forward 7 unknown #
coedge $-1 $105 $104 $240 $244 forward $41 $-1 #
edge $-1 $172 -63.678701132236704 $242 63.678701132236704 $164 $245 forward 7 unknown #
coedge $-1 $177 $176 $105 $170 reversed $161 $-1 #
edge $-1 $246 -63.678701132236704 $171 63.678701132236704 $169 $247 forward 7 unknown #
vertex $-1 $107 $248 #
vertex $-1 $183 $249 #
straight-curve $-1 63.678701132236704 0 -12.483858011548927 0 -1 0 I I #
coedge $-1 $163 $165 $108 $175 reversed $101 $-1 #
edge $-1 $178 -31.663086086834504 $181 31.663086086834504 $174 $250 forward 7 unknown #
coedge $-1 $169 $109 $114 $184 forward $161 $-1 #
coedge $-1 $109 $169 $163 $241 reversed $161 $-1 #
vertex $-1 $110 $251 #
straight-curve $-1 0 31.663086086834504 12.483858011548927 -1 0 0 I I #
coedge $-1 $111 $164 $113 $183 reversed $63 $-1 #
vertex $-1 $175 $252 #
straight-curve $-1 0 -31.663086086834504 12.483858011548927 1 0 0 I I #
edge $-1 $116 -12.483858011548927 $172 12.483858011548927 $113 $253 forward 7 unknown #
edge $-1 $117 -12.483858011548927 $171 12.483858011548927 $114 $254 forward 7 unknown #
point $-1 63.678701132236704 -31.663086086834504 12.483858011548927 #
point $-1 63.678701132236704 31.663086086834504 12.483858011548927 #
face $-1 $-1 $204 $16 $-1 $255 reversed single #
loop $-1 $-1 $256 $119 #
plane-surface $-1 -63.678701132236704 0 0 1 0 0 0 0 -1 forward_v I I I I #
coedge $-1 $191 $207 $123 $194 forward $120 $-1 #
coedge $-1 $130 $190 $122 $192 forward $120 $-1 #
edge $-1 $198 -4.3293921057970879 $133 2.7395491557734277 $191 $257 forward 7 unknown #
coedge $-1 $124 $123 $256 $258 reversed $45 $-1 #
edge $-1 $259 -34.73488974695708 $198 -23.152733023602167 $190 $260 forward 7 unknown #
coedge $-1 $203 $202 $124 $196 forward $204 $-1 #
edge $-1 $197 23.152733023602167 $261 34.73488974695708 $195 $262 forward 7 unknown #
vertex $-1 $196 $263 #
vertex $-1 $194 $264 #
straight-curve $-1 -52.09654440888179 0 -5.1243135808089182 0 -1 0 I I #
coedge $-1 $265 $266 $127 $201 forward $188 $-1 #
edge $-1 $208 -31.663086086834504 $205 31.663086086834504 $200 $267 forward 7 unknown #
coedge $-1 $195 $128 $132 $210 forward $204 $-1 #
coedge $-1 $128 $195 $265 $268 reversed $204 $-1 #
loop $-1 $-1 $195 $187 #
vertex $-1 $268 $269 #
straight-curve $-1 -28.943811385279623 31.663086086834504 1.9446276807615974 1 0 0 I I #
coedge $-1 $190 $130 $266 $270 forward $120 $-1 #
vertex $-1 $270 $271 #
straight-curve $-1 -28.943811385279623 -31.663086086834504 1.9446276807615974 -1 0 0 I I #
edge $-1 $134 -2.7395491557734277 $197 4.3293921057970879 $202 $272 forward 7 unknown #
point $-1 -52.09654440888179 -31.663086086834504 1.9446276807615974 #
point $-1 -52.09654440888179 31.663086086834504 1.9446276807615974 #
plane-surface $-1 0 -31.663086086834504 0 0 1 0 0 0 1 forward_v I I I I #
coedge $-1 $224 $223 $216 $273 forward $137 $-1 #
coedge $-1 $216 $139 $141 $220 reversed $79 $-1 #
coedge $-1 $139 $215 $214 $273 reversed $79 $-1 #
coedge $-1 $147 $142 $139 $218 forward $148 $-1 #
edge $-1 $221 -49.58164232605472 $274 -43.518570658333473 $217 $275 forward 7 unknown #
coedge $-1 $141 $140 $224 $276 reversed $49 $-1 #
edge $-1 $277 -10.842540295647055 $221 -8.3739815925159718e-015 $215 $278 forward 7 unknown #
vertex $-1 $143 $279 #
straight-curve $-1 18.078815095830524 -31.663086086834504 6.4207863438276771 1 0 0 I I #
coedge $-1 $214 $144 $147 $228 forward $137 $-1 #
coedge $-1 $144 $214 $219 $276 forward $137 $-1 #
vertex $-1 $145 $280 #
straight-curve $-1 19.541460387635809 -51.440221281593267 12.483858011548925 0 -1 0 I I #
straight-curve $-1 19.541460387635809 -31.663086086834511 6.4207863438276718 0 0.82903756765294845 0.55919291073839883 I I #
edge $-1 $149 19.541460387635809 $274 52.773799995686289 $147 $281 forward 7 unknown #
point $-1 19.541460387635809 -31.663086086834504 12.483858011548927 #
point $-1 19.541460387635809 -31.663086086834504 6.4207863438276762 #
edge $-1 $282 1 $282 0 $152 $-1 forward 7 unknown #
vertex $-1 $153 $283 #
ellipse-curve $-1 29.036414561364516 -23.612457657231555 4.1800510993882813 0 -0.55919291073839883 0.82903756765294845 2 0 0 1 I I #
point $-1 31.036414561364516 -27.168649469893349 9.4523221776883002 #
edge $-1 $284 1 $284 0 $156 $-1 forward 7 unknown #
vertex $-1 $157 $285 #
ellipse-curve $-1 43.278845821957567 -23.612457657231555 4.1800510993882813 0 -0.55919291073839883 0.82903756765294845 2 0 0 1 I I #
point $-1 45.278845821957567 -27.168649469893349 9.4523221776883002 #
plane-surface $-1 63.678701132236704 0 0 -1 0 0 0 0 1 forward_v I I I I #
coedge $-1 $165 $163 $167 $244 reversed $101 $-1 #
edge $-1 $178 -12.483858011548927 $246 12.483858011548927 $177 $286 forward 7 unknown #
vertex $-1 $244 $287 #
straight-curve $-1 -63.678701132236704 -31.663086086834504 0 0 0 -1 I I #
edge $-1 $242 -31.663086086834504 $246 31.663086086834504 $240 $288 forward 7 unknown #
straight-curve $-1 0 -31.663086086834504 -12.483858011548927 -1 0 0 I I #
vertex $-1 $170 $289 #
straight-curve $-1 0 31.663086086834504 -12.483858011548927 1 0 0 I I #
point $-1 63.678701132236704 31.663086086834504 -12.483858011548927 #
point $-1 63.678701132236704 -31.663086086834504 -12.483858011548927 #
straight-curve $-1 -63.678701132236704 0 12.483858011548927 0 -1 0 I I #
point $-1 -63.678701132236704 31.663086086834504 12.483858011548927 #
point $-1 -63.678701132236704 -31.663086086834504 12.483858011548927 #
straight-curve $-1 63.678701132236704 -31.663086086834504 0 0 0 -1 I I #
straight-curve $-1 63.678701132236704 31.663086086834504 0 0 0 -1 I I #
plane-surface $-1 0 31.663086086834504 0 0 -1 0 0 0 -1 forward_v I I I I #
coedge $-1 $266 $265 $193 $258 forward $188 $-1 #
straight-curve $-1 -52.09654440888179 -31.663086086834504 -0.7949214750118303 0 0 1 I I #
edge $-1 $261 -31.663086086834504 $259 31.663086086834504 $256 $290 forward 7 unknown #
vertex $-1 $194 $291 #
straight-curve $-1 -28.943811385279623 -31.663086086834504 -5.1243135808089182 1 0 0 I I #
vertex $-1 $196 $292 #
straight-curve $-1 -28.943811385279623 31.663086086834504 -5.1243135808089182 -1 0 0 I I #
point $-1 -52.09654440888179 31.663086086834504 -5.1243135808089182 #
point $-1 -52.09654440888179 -31.663086086834504 -5.1243135808089182 #
coedge $-1 $256 $200 $203 $268 forward $188 $-1 #
coedge $-1 $200 $256 $207 $270 reversed $188 $-1 #
straight-curve $-1 -63.678701132236704 0 1.9446276807615974 0 1 0 I I #
edge $-1 $205 -1.9446276807615974 $261 5.1243135808089182 $203 $293 forward 7 unknown #
point $-1 -63.678701132236704 31.663086086834504 1.9446276807615974 #
edge $-1 $208 -1.9446276807615974 $259 5.1243135808089182 $266 $294 forward 7 unknown #
point $-1 -63.678701132236704 -31.663086086834504 1.9446276807615974 #
straight-curve $-1 -52.09654440888179 31.663086086834504 -0.7949214750118303 0 0 -1 I I #
edge $-1 $274 19.777135194758763 $277 28.766008428641072 $214 $295 forward 7 unknown #
vertex $-1 $273 $296 #
straight-curve $-1 52.773799995686289 -31.663086086834504 56.002428669882399 0 0 1 I I #
edge $-1 $277 -34.694984899855768 $225 -1.4626452918052841 $224 $297 forward 7 unknown #
vertex $-1 $276 $298 #
straight-curve $-1 52.773799995686289 -31.663086086834511 6.4207863438276718 0 -0.82903756765294845 -0.55919291073839883 I I #
point $-1 52.773799995686289 -31.663086086834504 6.4207863438276762 #
point $-1 19.541460387635809 -22.674212852952195 12.483858011548927 #
straight-curve $-1 0 -31.663086086834504 12.483858011548927 1 0 0 I I #
vertex $-1 $231 $299 #
point $-1 31.036414561364516 -23.612457657231555 4.1800510993882813 #
vertex $-1 $235 $300 #
point $-1 45.278845821957567 -23.612457657231555 4.1800510993882813 #
straight-curve $-1 -63.678701132236704 31.663086086834504 0 0 0 -1 I I #
point $-1 -63.678701132236704 -31.663086086834504 -12.483858011548927 #
straight-curve $-1 -63.678701132236704 0 -12.483858011548927 0 1 0 I I #
point $-1 -63.678701132236704 31.663086086834504 -12.483858011548927 #
straight-curve $-1 -63.678701132236704 0 -5.1243135808089182 0 -1 0 I I #
point $-1 -63.678701132236704 -31.663086086834504 -5.1243135808089182 #
point $-1 -63.678701132236704 31.663086086834504 -5.1243135808089182 #
straight-curve $-1 -63.678701132236704 31.663086086834504 0 0 0 -1 I I #
straight-curve $-1 -63.678701132236704 -31.663086086834504 0 0 0 -1 I I #
straight-curve $-1 52.773799995686289 -51.440221281593267 12.483858011548925 0 1 0 I I #
point $-1 52.773799995686289 -31.663086086834504 12.483858011548927 #
straight-curve $-1 18.078815095830524 -22.674212852952195 12.483858011548927 -1 0 0 I I #
point $-1 52.773799995686289 -22.674212852952195 12.483858011548927 #
point $-1 29.036414561364516 -22.494071835754756 2.5219759640823849 #
point $-1 43.278845821957567 -22.494071835754756 2.5219759640823849 #
End-of-ACIS-data 