500 0 10 0           
7 Unknown 11 ACIS 5.0 NT 24 Thu Mar 25 18:17:02 1999 
-1 9.9999999999999995e-007 1e-010 
body $-1 $10 $-1 $11 #
body $-1 $12 $-1 $13 #
body $-1 $14 $-1 $15 #
body $-1 $16 $-1 $17 #
body $-1 $18 $-1 $19 #
body $-1 $20 $-1 $21 #
body $-1 $22 $-1 $23 #
body $-1 $24 $-1 $25 #
body $-1 $26 $-1 $27 #
body $-1 $28 $-1 $29 #
lump $-1 $-1 $30 $0 #
transform $-1 1 0 0 0 1 0 0 0 1 47.892086550492877 32.853588435722635 7.115152591792417 1 rotate no_reflect no_shear #
lump $-1 $-1 $31 $1 #
transform $-1 1 0 0 0 1 0 0 0 1 47.892086550492877 32.853588435722635 7.115152591792417 1 rotate no_reflect no_shear #
lump $-1 $-1 $32 $2 #
transform $-1 1 0 0 0 1 0 0 0 1 47.892086550492877 32.853588435722635 7.115152591792417 1 rotate no_reflect no_shear #
lump $-1 $-1 $33 $3 #
transform $-1 1 0 0 0 1 0 0 0 1 47.892086550492877 32.853588435722635 7.115152591792417 1 rotate no_reflect no_shear #
lump $-1 $-1 $34 $4 #
transform $-1 1 0 0 0 1 0 0 0 1 47.892086550492877 32.853588435722635 7.115152591792417 1 rotate no_reflect no_shear #
lump $-1 $-1 $35 $5 #
transform $-1 1 0 0 0 1 0 0 0 1 47.892086550492877 32.853588435722635 7.115152591792417 1 rotate no_reflect no_shear #
lump $-1 $-1 $36 $6 #
transform $-1 1 0 0 0 1 0 0 0 1 47.892086550492877 32.853588435722635 7.115152591792417 1 rotate no_reflect no_shear #
lump $-1 $-1 $37 $7 #
transform $-1 1 0 0 0 1 0 0 0 1 47.892086550492877 32.853588435722635 7.115152591792417 1 rotate no_reflect no_shear #
lump $-1 $-1 $38 $8 #
transform $-1 1 0 0 0 1 0 0 0 1 47.892086550492877 32.853588435722635 7.115152591792417 1 rotate no_reflect no_shear #
lump $-1 $-1 $39 $9 #
transform $-1 1 0 0 0 1 0 0 0 1 47.892086550492877 32.853588435722635 7.115152591792417 1 rotate no_reflect no_shear #
shell $-1 $-1 $-1 $40 $-1 $10 #
shell $-1 $-1 $-1 $41 $-1 $12 #
shell $-1 $-1 $-1 $42 $-1 $14 #
shell $-1 $-1 $-1 $43 $-1 $16 #
shell $-1 $-1 $-1 $44 $-1 $18 #
shell $-1 $-1 $-1 $45 $-1 $20 #
shell $-1 $-1 $-1 $46 $-1 $22 #
shell $-1 $-1 $-1 $47 $-1 $24 #
shell $-1 $-1 $-1 $48 $-1 $26 #
shell $-1 $-1 $-1 $49 $-1 $28 #
face $-1 $50 $51 $30 $-1 $52 forward single #
face $-1 $53 $54 $31 $-1 $55 forward single #
face $-1 $56 $57 $32 $-1 $58 reversed single #
face $-1 $59 $60 $33 $-1 $61 forward single #
face $-1 $62 $63 $34 $-1 $64 forward single #
face $-1 $65 $66 $35 $-1 $67 forward single #
face $-1 $68 $69 $36 $-1 $70 reversed single #
face $-1 $71 $72 $37 $-1 $73 forward single #
face $-1 $74 $75 $38 $-1 $76 reversed single #
face $-1 $77 $78 $39 $-1 $79 forward single #
face $-1 $80 $81 $30 $-1 $82 reversed single #
loop $-1 $-1 $83 $40 #
plane-surface $-1 0 0 7.115152591792417 0 0 1 1 0 0 forward_v I I I I #
face $-1 $84 $85 $31 $-1 $86 reversed single #
loop $-1 $-1 $87 $41 #
plane-surface $-1 -45.044490306743711 0 -3.3141874984351443 0 0 1 1 0 0 forward_v I I I I #
face $-1 $88 $89 $32 $-1 $90 reversed single #
loop $-1 $-1 $91 $42 #
plane-surface $-1 9.8807357746330915 -93.132522456537799 75.175988502251386 1 0 0 0 0.62932039886446345 -0.77714595512881146 forward_v I I I I #
face $-1 $92 $93 $33 $-1 $94 forward single #
loop $-1 $95 $96 $43 #
cone-surface $-1 15.11858229603434 -28.413992365059542 3.3066952068303341 0 0.62932039886446345 -0.77714595512881146 1.5 0 0 1 I I 0 1 1.5 forward I I I I #
face $-1 $97 $98 $34 $-1 $99 forward single #
loop $-1 $100 $101 $44 #
cone-surface $-1 22.975352078136225 -28.413992365059542 3.3066952068303341 0 0.62932039886446345 -0.77714595512881146 1.5 0 0 1 I I 0 1 1.5 forward I I I I #
face $-1 $102 $103 $35 $-1 $104 forward single #
loop $-1 $105 $106 $45 #
cone-surface $-1 30.832121860238104 -28.413992365059542 3.3066952068303341 0 0.62932039886446345 -0.77714595512881146 1.5 0 0 1 I I 0 1 1.5 forward I I I I #
face $-1 $107 $108 $36 $-1 $109 reversed single #
loop $-1 $-1 $110 $46 #
plane-surface $-1 -11.570847207963887 46.103825378628692 116.67701578071163 1 0 0 0 -0.6560590369687036 -0.75470957328743171 forward_v I I I I #
face $-1 $111 $112 $37 $-1 $113 forward single #
loop $-1 $114 $115 $47 #
cone-surface $-1 -4.3616254821073639 28.528667105753289 3.0832912077431422 0 -0.6560590369687036 -0.75470957328743171 1 0 0 1 I I 0 1 1 forward I I I I #
face $-1 $116 $117 $38 $-1 $118 reversed single #
loop $-1 $-1 $119 $48 #
plane-surface $-1 -4.3616254821073639 -16.736246982847625 44.387783371977179 0 0.6560590369687036 0.75470957328743171 1 0 0 forward_v I I I I #
face $-1 $120 $121 $39 $-1 $122 forward single #
loop $-1 $123 $124 $49 #
cone-surface $-1 10.056817969605682 28.528667105753289 3.0832912077431422 0 -0.6560590369687036 -0.75470957328743171 1 0 0 1 I I 0 1 1 forward I I I I #
face $-1 $125 $126 $30 $-1 $127 reversed single #
loop $-1 $-1 $128 $50 #
plane-surface $-1 0 0 -7.115152591792417 0 0 1 1 0 0 forward_v I I I I #
coedge $-1 $129 $130 $131 $132 forward $51 $-1 #
face $-1 $133 $134 $31 $-1 $135 reversed single #
loop $-1 $-1 $136 $53 #
plane-surface $-1 -45.044490306743711 0 -6.3141874984351443 0 0 1 1 0 0 forward_v I I I I #
coedge $-1 $137 $138 $139 $140 forward $54 $-1 #
face $-1 $141 $142 $32 $-1 $143 reversed single #
loop $-1 $-1 $144 $56 #
plane-surface $-1 22.975352078136225 -32.853588435722635 0.73770581146240488 0 -0.62932039886446345 0.77714595512881146 1 0 0 forward_v I I I I #
coedge $-1 $145 $146 $147 $148 reversed $57 $-1 #
face $-1 $-1 $149 $33 $-1 $150 forward single #
loop $-1 $151 $152 $59 #
cone-surface $-1 15.11858229603434 -27.440151361778121 2.1041017456866475 0 0.62932039886446345 -0.77714595512881146 0.75 0 0 1 I I -0.70710678118654757 0.70710678118654757 0.75 forward I I I I #
loop $-1 $-1 $153 $43 #
coedge $-1 $96 $96 $154 $155 reversed $60 $-1 #
face $-1 $-1 $156 $34 $-1 $157 forward single #
loop $-1 $158 $159 $62 #
cone-surface $-1 22.975352078136225 -27.440151361778121 2.1041017456866475 0 0.62932039886446345 -0.77714595512881146 0.75 0 0 1 I I -0.70710678118654757 0.70710678118654757 0.75 forward I I I I #
loop $-1 $-1 $160 $44 #
coedge $-1 $101 $101 $161 $162 reversed $63 $-1 #
face $-1 $-1 $163 $35 $-1 $164 forward single #
loop $-1 $165 $166 $65 #
cone-surface $-1 30.832121860238104 -27.440151361778121 2.1041017456866475 0 0.62932039886446345 -0.77714595512881146 0.75 0 0 1 I I -0.70710678118654757 0.70710678118654757 0.75 forward I I I I #
loop $-1 $-1 $167 $45 #
coedge $-1 $106 $106 $168 $169 reversed $66 $-1 #
face $-1 $170 $171 $36 $-1 $172 reversed single #
loop $-1 $-1 $173 $68 #
plane-surface $-1 -4.3616254821073639 -16.736246982847625 44.387783371977179 0 0.6560590369687036 0.75470957328743171 1 0 0 forward_v I I I I #
coedge $-1 $174 $175 $176 $177 reversed $69 $-1 #
face $-1 $-1 $178 $37 $-1 $179 forward single #
loop $-1 $180 $181 $71 #
cone-surface $-1 -4.3616254821073639 27.232005972534893 1.5916532370640857 0 -0.6560590369687036 -0.75470957328743171 0.5 0 0 1 I I -0.70710678118654746 0.70710678118654746 0.5 forward I I I I #
loop $-1 $-1 $182 $47 #
coedge $-1 $115 $115 $183 $184 reversed $72 $-1 #
face $-1 $185 $186 $38 $-1 $187 forward single #
loop $-1 $-1 $188 $74 #
plane-surface $-1 17.266039695462204 46.103825378628692 116.67701578071163 -1 0 0 0 0.6560590369687036 0.75470957328743171 forward_v I I I I #
coedge $-1 $189 $190 $191 $192 reversed $75 $-1 #
face $-1 $-1 $193 $39 $-1 $194 forward single #
loop $-1 $195 $196 $77 #
cone-surface $-1 10.056817969605682 27.232005972534893 1.5916532370640857 0 -0.6560590369687036 -0.75470957328743171 0.5 0 0 1 I I -0.70710678118654746 0.70710678118654746 0.5 forward I I I I #
loop $-1 $-1 $197 $49 #
coedge $-1 $124 $124 $198 $199 reversed $78 $-1 #
face $-1 $200 $201 $30 $-1 $202 reversed single #
loop $-1 $-1 $203 $80 #
plane-surface $-1 0 -32.853588435722635 0 0 1 0 0 0 1 forward_v I I I I #
coedge $-1 $204 $205 $206 $207 forward $81 $-1 #
coedge $-1 $208 $83 $209 $210 forward $51 $-1 #
coedge $-1 $83 $208 $211 $212 forward $51 $-1 #
coedge $-1 $213 $214 $83 $132 reversed $215 $-1 #
edge $-1 $216 -32.853588435722635 $217 32.853588435722635 $131 $218 forward 7 unknown #
face $-1 $219 $220 $31 $-1 $221 reversed single #
loop $-1 $-1 $222 $84 #
plane-surface $-1 -42.196894062994545 0 -4.8141874984351443 -1 0 0 0 0 1 forward_v I I I I #
coedge $-1 $223 $224 $225 $226 forward $85 $-1 #
coedge $-1 $227 $87 $228 $229 reversed $54 $-1 #
coedge $-1 $87 $227 $230 $231 reversed $54 $-1 #
coedge $-1 $222 $232 $87 $140 reversed $134 $-1 #
edge $-1 $233 -32.853588435722635 $234 32.853588435722635 $139 $235 forward 7 unknown #
face $-1 $236 $237 $32 $-1 $238 forward single #
loop $-1 $-1 $239 $88 #
plane-surface $-1 36.069968381639356 -93.132522456537799 75.175988502251386 -1 0 0 0 -0.62932039886446345 0.77714595512881146 forward_v I I I I #
coedge $-1 $240 $241 $242 $243 reversed $89 $-1 #
coedge $-1 $146 $91 $244 $245 reversed $57 $-1 #
coedge $-1 $91 $145 $240 $246 reversed $57 $-1 #
coedge $-1 $242 $247 $91 $148 forward $248 $-1 #
edge $-1 $249 30.472841659333277 $250 36.850288439663288 $147 $251 forward 7 unknown #
loop $-1 $-1 $154 $92 #
plane-surface $-1 22.975352078136225 -32.853588435722635 0.73770581146240488 0 -0.62932039886446345 0.77714595512881146 1 0 0 forward_v I I I I #
loop $-1 $-1 $252 $59 #
coedge $-1 $152 $152 $153 $253 reversed $93 $-1 #
coedge $-1 $153 $153 $152 $253 forward $95 $-1 #
coedge $-1 $154 $154 $96 $155 forward $149 $-1 #
edge $-1 $254 5.5894879734849173e-016 $254 6.2831853071796013 $154 $255 forward 7 unknown #
loop $-1 $-1 $161 $97 #
plane-surface $-1 22.975352078136225 -32.853588435722635 0.73770581146240488 0 -0.62932039886446345 0.77714595512881146 1 0 0 forward_v I I I I #
loop $-1 $-1 $256 $62 #
coedge $-1 $159 $159 $160 $257 reversed $98 $-1 #
coedge $-1 $160 $160 $159 $257 forward $100 $-1 #
coedge $-1 $161 $161 $101 $162 forward $156 $-1 #
edge $-1 $258 5.5894879734849173e-016 $258 6.2831853071796013 $161 $259 forward 7 unknown #
loop $-1 $-1 $168 $102 #
plane-surface $-1 22.975352078136225 -32.853588435722635 0.73770581146240488 0 -0.62932039886446345 0.77714595512881146 1 0 0 forward_v I I I I #
loop $-1 $-1 $260 $65 #
coedge $-1 $166 $166 $167 $261 reversed $103 $-1 #
coedge $-1 $167 $167 $166 $261 forward $105 $-1 #
coedge $-1 $168 $168 $106 $169 forward $163 $-1 #
edge $-1 $262 5.5894879734849173e-016 $262 6.2831853071796013 $168 $263 forward 7 unknown #
face $-1 $264 $265 $36 $-1 $266 reversed single #
loop $-1 $-1 $267 $107 #
plane-surface $-1 2.8475962437491589 46.103825378628692 116.67701578071163 -1 0 0 0 0.6560590369687036 0.75470957328743171 forward_v I I I I #
coedge $-1 $268 $269 $270 $271 reversed $108 $-1 #
coedge $-1 $175 $110 $272 $273 reversed $69 $-1 #
coedge $-1 $110 $174 $268 $274 reversed $69 $-1 #
coedge $-1 $270 $275 $110 $177 forward $276 $-1 #
edge $-1 $277 -9.8016757464082893 $278 -3.0890963159376774 $176 $279 forward 7 unknown #
loop $-1 $-1 $183 $111 #
plane-surface $-1 -4.3616254821073639 -16.736246982847625 44.387783371977179 0 0.6560590369687036 0.75470957328743171 1 0 0 forward_v I I I I #
loop $-1 $-1 $280 $71 #
coedge $-1 $181 $181 $182 $281 reversed $112 $-1 #
coedge $-1 $182 $182 $181 $281 forward $114 $-1 #
coedge $-1 $183 $183 $115 $184 forward $178 $-1 #
edge $-1 $282 -1.1396362796804539e-016 $282 6.2831853071796004 $183 $283 forward 7 unknown #
face $-1 $284 $285 $38 $-1 $286 forward single #
loop $-1 $-1 $287 $116 #
plane-surface $-1 0 0 7.115152591792417 0 0 1 1 0 0 forward_v I I I I #
coedge $-1 $288 $289 $290 $291 reversed $117 $-1 #
coedge $-1 $292 $119 $293 $294 reversed $75 $-1 #
coedge $-1 $119 $292 $287 $295 reversed $75 $-1 #
coedge $-1 $296 $297 $119 $192 forward $285 $-1 #
edge $-1 $298 -65.70717687144527 $299 -56.812921825452733 $191 $300 forward 7 unknown #
loop $-1 $-1 $198 $120 #
plane-surface $-1 -4.3616254821073639 -16.736246982847625 44.387783371977179 0 0.6560590369687036 0.75470957328743171 1 0 0 forward_v I I I I #
loop $-1 $-1 $301 $77 #
coedge $-1 $196 $196 $197 $302 reversed $121 $-1 #
coedge $-1 $197 $197 $196 $302 forward $123 $-1 #
coedge $-1 $198 $198 $124 $199 forward $193 $-1 #
edge $-1 $303 -1.1396362796804539e-016 $303 6.2831853071796004 $198 $304 forward 7 unknown #
face $-1 $305 $306 $30 $-1 $307 reversed single #
loop $-1 $-1 $308 $125 #
plane-surface $-1 -47.892086550492877 0 0 1 0 0 0 0 -1 forward_v I I I I #
coedge $-1 $309 $211 $310 $311 forward $126 $-1 #
coedge $-1 $312 $128 $309 $313 forward $81 $-1 #
coedge $-1 $128 $312 $314 $315 forward $81 $-1 #
coedge $-1 $214 $213 $128 $207 reversed $215 $-1 #
edge $-1 $316 -32.853588435722635 $317 32.853588435722635 $206 $318 forward 7 unknown #
coedge $-1 $130 $129 $319 $320 forward $51 $-1 #
coedge $-1 $321 $322 $129 $210 reversed $306 $-1 #
edge $-1 $217 -47.892086550492877 $323 47.892086550492877 $209 $324 forward 7 unknown #
coedge $-1 $203 $325 $130 $212 reversed $126 $-1 #
edge $-1 $326 -47.892086550492877 $216 47.892086550492877 $211 $327 forward 7 unknown #
coedge $-1 $206 $131 $325 $328 forward $215 $-1 #
coedge $-1 $131 $206 $321 $329 reversed $215 $-1 #
loop $-1 $-1 $213 $305 #
vertex $-1 $132 $330 #
vertex $-1 $132 $331 #
straight-curve $-1 47.892086550492877 0 7.115152591792417 0 1 0 I I #
face $-1 $332 $333 $31 $-1 $334 reversed single #
loop $-1 $-1 $335 $133 #
plane-surface $-1 0 -32.853588435722635 0 0 1 0 0 0 1 forward_v I I I I #
coedge $-1 $225 $139 $336 $337 reversed $134 $-1 #
coedge $-1 $338 $136 $335 $339 reversed $85 $-1 #
coedge $-1 $136 $338 $340 $341 reversed $85 $-1 #
coedge $-1 $232 $222 $136 $226 reversed $134 $-1 #
edge $-1 $342 -32.853588435722635 $343 32.853588435722635 $225 $344 forward 7 unknown #
coedge $-1 $138 $137 $345 $346 reversed $54 $-1 #
coedge $-1 $347 $348 $137 $229 forward $349 $-1 #
edge $-1 $350 -25.369841397121021 $234 -19.67464890962269 $228 $351 forward 7 unknown #
coedge $-1 $352 $336 $138 $231 forward $220 $-1 #
edge $-1 $233 19.67464890962269 $353 25.369841397121021 $230 $354 forward 7 unknown #
coedge $-1 $139 $225 $347 $355 reversed $134 $-1 #
vertex $-1 $231 $356 #
vertex $-1 $229 $357 #
straight-curve $-1 -42.196894062994545 0 -3.3141874984351443 0 1 0 I I #
face $-1 $-1 $248 $32 $-1 $358 reversed single #
loop $-1 $-1 $359 $141 #
plane-surface $-1 0 0 7.115152591792417 0 0 1 1 0 0 forward_v I I I I #
coedge $-1 $360 $361 $362 $363 reversed $142 $-1 #
coedge $-1 $364 $144 $146 $246 forward $89 $-1 #
coedge $-1 $144 $364 $360 $365 forward $89 $-1 #
coedge $-1 $362 $147 $144 $243 forward $248 $-1 #
edge $-1 $250 -1.6069402644350212 $366 24.582292342571243 $242 $367 forward 7 unknown #
coedge $-1 $368 $369 $145 $245 forward $237 $-1 #
edge $-1 $370 -21.588163525606305 $249 -13.712672792546265 $244 $371 forward 7 unknown #
edge $-1 $250 0 $370 10.13386311938622 $146 $372 forward 7 unknown #
coedge $-1 $147 $362 $368 $373 reversed $248 $-1 #
loop $-1 $-1 $362 $236 #
vertex $-1 $373 $374 #
vertex $-1 $148 $375 #
straight-curve $-1 9.8807357746330915 -32.853588435722635 37.587994251125693 0 0 -1 I I #
coedge $-1 $252 $252 $-1 $376 reversed $151 $-1 #
edge $-1 $377 0 $377 6.2831853071796004 $152 $378 forward 7 unknown #
vertex $-1 $155 $379 #
ellipse-curve $-1 15.11858229603434 -28.915843069192615 3.9264292016274105 0 -0.62932039886446345 0.77714595512881146 1.5 0 0 1 I I #
coedge $-1 $256 $256 $-1 $380 reversed $158 $-1 #
edge $-1 $381 0 $381 6.2831853071796004 $159 $382 forward 7 unknown #
vertex $-1 $162 $383 #
ellipse-curve $-1 22.975352078136225 -28.915843069192615 3.9264292016274105 0 -0.62932039886446345 0.77714595512881146 1.5 0 0 1 I I #
coedge $-1 $260 $260 $-1 $384 reversed $165 $-1 #
edge $-1 $385 0 $385 6.2831853071796004 $166 $386 forward 7 unknown #
vertex $-1 $169 $387 #
ellipse-curve $-1 30.832121860238104 -28.915843069192615 3.9264292016274105 0 -0.62932039886446345 0.77714595512881146 1.5 0 0 1 I I #
face $-1 $-1 $276 $36 $-1 $388 forward single #
loop $-1 $-1 $389 $170 #
plane-surface $-1 0 32.853588435722635 0 0 -1 0 0 0 -1 forward_v I I I I #
coedge $-1 $390 $391 $392 $393 reversed $171 $-1 #
coedge $-1 $394 $173 $175 $274 forward $108 $-1 #
coedge $-1 $173 $394 $390 $395 forward $108 $-1 #
coedge $-1 $392 $176 $173 $271 forward $276 $-1 #
edge $-1 $278 -9.3900344669102047 $396 5.0284089848028408 $270 $397 forward 7 unknown #
coedge $-1 $398 $399 $174 $273 forward $265 $-1 #
edge $-1 $400 -57.058511698591296 $277 -51.223355298563398 $272 $401 forward 7 unknown #
edge $-1 $278 56.812921825452733 $400 65.70717687144527 $175 $402 forward 7 unknown #
coedge $-1 $176 $392 $398 $403 forward $276 $-1 #
loop $-1 $-1 $392 $264 #
vertex $-1 $273 $404 #
vertex $-1 $177 $405 #
straight-curve $-1 -11.570847207963887 23.051912689314346 7.1151525917924161 0 -1 0 I I #
coedge $-1 $280 $280 $-1 $406 reversed $180 $-1 #
edge $-1 $407 0 $407 6.2831853071796004 $181 $408 forward 7 unknown #
vertex $-1 $184 $409 #
ellipse-curve $-1 -4.3616254821073639 29.497298720487322 4.1975743917784705 0 0.6560590369687036 0.75470957328743171 1 0 0 1 I I #
face $-1 $-1 $410 $38 $-1 $411 reversed single #
loop $-1 $-1 $296 $185 #
plane-surface $-1 2.8475962437491589 46.103825378628692 116.67701578071163 -1 0 0 0 0.6560590369687036 0.75470957328743171 forward_v I I I I #
coedge $-1 $290 $412 $190 $295 forward $186 $-1 #
coedge $-1 $289 $188 $292 $413 reversed $117 $-1 #
coedge $-1 $188 $288 $414 $415 reversed $117 $-1 #
coedge $-1 $416 $287 $188 $291 forward $186 $-1 #
edge $-1 $417 3.0890963159376774 $418 9.8016757464082893 $290 $419 forward 7 unknown #
coedge $-1 $190 $189 $288 $413 forward $75 $-1 #
coedge $-1 $420 $414 $189 $294 forward $410 $-1 #
edge $-1 $421 -19.446852436515886 $298 -5.0284089848028408 $293 $422 forward 7 unknown #
edge $-1 $299 5.0284089848028408 $417 19.446852436515886 $287 $423 forward 7 unknown #
coedge $-1 $297 $191 $412 $424 reversed $285 $-1 #
coedge $-1 $191 $296 $420 $425 reversed $285 $-1 #
vertex $-1 $294 $426 #
vertex $-1 $295 $427 #
straight-curve $-1 2.8475962437491589 -16.736246982847625 44.387783371977179 0 -0.75470957328743171 0.6560590369687036 I I #
coedge $-1 $301 $301 $-1 $428 reversed $195 $-1 #
edge $-1 $429 0 $429 6.2831853071796004 $196 $430 forward 7 unknown #
vertex $-1 $199 $431 #
ellipse-curve $-1 10.056817969605682 29.497298720487322 4.1975743917784705 0 0.6560590369687036 0.75470957328743171 1 0 0 1 I I #
face $-1 $-1 $215 $30 $-1 $432 reversed single #
loop $-1 $-1 $321 $200 #
plane-surface $-1 0 32.853588435722635 0 0 -1 0 0 0 -1 forward_v I I I I #
coedge $-1 $433 $319 $322 $434 forward $201 $-1 #
coedge $-1 $325 $203 $204 $313 reversed $126 $-1 #
coedge $-1 $319 $433 $203 $311 reversed $201 $-1 #
edge $-1 $326 -7.115152591792417 $435 7.115152591792417 $310 $436 forward 7 unknown #
coedge $-1 $205 $204 $433 $437 forward $81 $-1 #
edge $-1 $317 -47.892086550492877 $435 47.892086550492877 $309 $438 forward 7 unknown #
coedge $-1 $322 $321 $205 $315 reversed $306 $-1 #
edge $-1 $439 -47.892086550492877 $316 47.892086550492877 $314 $440 forward 7 unknown #
vertex $-1 $207 $441 #
vertex $-1 $328 $442 #
straight-curve $-1 47.892086550492877 0 -7.115152591792417 0 -1 0 I I #
coedge $-1 $308 $310 $208 $320 reversed $201 $-1 #
edge $-1 $323 -32.853588435722635 $326 32.853588435722635 $319 $443 forward 7 unknown #
coedge $-1 $314 $209 $214 $329 forward $306 $-1 #
coedge $-1 $209 $314 $308 $434 reversed $306 $-1 #
vertex $-1 $210 $444 #
straight-curve $-1 0 32.853588435722635 7.115152591792417 -1 0 0 I I #
coedge $-1 $211 $309 $213 $328 reversed $126 $-1 #
vertex $-1 $320 $445 #
straight-curve $-1 0 -32.853588435722635 7.115152591792417 1 0 0 I I #
edge $-1 $216 -7.115152591792417 $317 7.115152591792417 $213 $446 forward 7 unknown #
edge $-1 $217 -7.115152591792417 $316 7.115152591792417 $214 $447 forward 7 unknown #
point $-1 47.892086550492877 -32.853588435722635 7.115152591792417 #
point $-1 47.892086550492877 32.853588435722635 7.115152591792417 #
face $-1 $-1 $349 $31 $-1 $448 reversed single #
loop $-1 $-1 $449 $219 #
plane-surface $-1 -47.892086550492877 0 0 1 0 0 0 0 -1 forward_v I I I I #
coedge $-1 $336 $352 $223 $339 forward $220 $-1 #
coedge $-1 $230 $335 $222 $337 forward $220 $-1 #
edge $-1 $343 -3.9070937492175721 $233 -0.90709374921757213 $336 $450 forward 7 unknown #
coedge $-1 $224 $223 $449 $451 reversed $85 $-1 #
edge $-1 $452 -25.369841397121021 $343 -19.67464890962269 $335 $453 forward 7 unknown #
coedge $-1 $348 $347 $224 $341 forward $349 $-1 #
edge $-1 $342 19.67464890962269 $454 25.369841397121021 $340 $455 forward 7 unknown #
vertex $-1 $341 $456 #
vertex $-1 $339 $457 #
straight-curve $-1 -42.196894062994545 0 -6.3141874984351443 0 -1 0 I I #
coedge $-1 $458 $459 $227 $346 forward $333 $-1 #
edge $-1 $353 -32.853588435722635 $350 32.853588435722635 $345 $460 forward 7 unknown #
coedge $-1 $340 $228 $232 $355 forward $349 $-1 #
coedge $-1 $228 $340 $458 $461 reversed $349 $-1 #
loop $-1 $-1 $340 $332 #
vertex $-1 $461 $462 #
straight-curve $-1 -22.522245153371856 32.853588435722635 -3.3141874984351443 1 0 0 I I #
coedge $-1 $335 $230 $459 $463 forward $220 $-1 #
vertex $-1 $463 $464 #
straight-curve $-1 -22.522245153371856 -32.853588435722635 -3.3141874984351443 -1 0 0 I I #
edge $-1 $234 0.90709374921757213 $342 3.9070937492175721 $347 $465 forward 7 unknown #
point $-1 -42.196894062994545 -32.853588435722635 -3.3141874984351443 #
point $-1 -42.196894062994545 32.853588435722635 -3.3141874984351443 #
plane-surface $-1 0 -32.853588435722635 0 0 1 0 0 0 1 forward_v I I I I #
coedge $-1 $369 $368 $361 $466 forward $237 $-1 #
coedge $-1 $361 $239 $241 $365 reversed $142 $-1 #
coedge $-1 $239 $360 $359 $466 reversed $142 $-1 #
coedge $-1 $247 $242 $239 $363 forward $248 $-1 #
edge $-1 $366 -36.850288439663288 $467 -30.472841659333277 $362 $468 forward 7 unknown #
coedge $-1 $241 $240 $369 $469 reversed $89 $-1 #
edge $-1 $470 -10.13386311938622 $366 0 $360 $471 forward 7 unknown #
vertex $-1 $243 $472 #
straight-curve $-1 11.487676039068113 -32.853588435722635 0.73770581146240766 1 0 0 I I #
coedge $-1 $359 $244 $247 $373 forward $237 $-1 #
coedge $-1 $244 $359 $364 $469 forward $237 $-1 #
vertex $-1 $245 $473 #
straight-curve $-1 9.8807357746330915 -46.5662612282689 7.1151525917924161 0 -1 0 I I #
straight-curve $-1 9.8807357746330915 -32.853588435722635 0.73770581146240488 0 0.77714595512881146 0.62932039886446345 I I #
edge $-1 $249 9.8807357746330915 $467 36.069968381639356 $247 $474 forward 7 unknown #
point $-1 9.8807357746330915 -32.853588435722635 7.115152591792417 #
point $-1 9.8807357746330915 -32.853588435722635 0.73770581146240488 #
edge $-1 $475 1 $475 0 $252 $-1 forward 7 unknown #
vertex $-1 $253 $476 #
ellipse-curve $-1 15.11858229603434 -27.912141660926469 2.686961212033256 0 -0.62932039886446345 0.77714595512881146 1.5 0 0 1 I I #
point $-1 16.61858229603434 -28.915843069192615 3.9264292016274118 #
edge $-1 $477 1 $477 0 $256 $-1 forward 7 unknown #
vertex $-1 $257 $478 #
ellipse-curve $-1 22.975352078136225 -27.912141660926469 2.686961212033256 0 -0.62932039886446345 0.77714595512881146 1.5 0 0 1 I I #
point $-1 24.475352078136225 -28.915843069192615 3.9264292016274118 #
edge $-1 $479 1 $479 0 $260 $-1 forward 7 unknown #
vertex $-1 $261 $480 #
ellipse-curve $-1 30.832121860238104 -27.912141660926469 2.686961212033256 0 -0.62932039886446345 0.77714595512881146 1.5 0 0 1 I I #
point $-1 32.332121860238104 -28.915843069192615 3.9264292016274118 #
plane-surface $-1 0 0 7.115152591792417 0 0 1 1 0 0 forward_v I I I I #
coedge $-1 $399 $398 $391 $481 forward $265 $-1 #
coedge $-1 $391 $267 $269 $395 reversed $171 $-1 #
coedge $-1 $267 $390 $389 $481 reversed $171 $-1 #
coedge $-1 $275 $270 $267 $393 forward $276 $-1 #
edge $-1 $396 3.0890963159376774 $482 9.8016757464082893 $392 $483 forward 7 unknown #
coedge $-1 $269 $268 $399 $484 reversed $108 $-1 #
edge $-1 $485 -65.70717687144527 $396 -56.812921825452733 $390 $486 forward 7 unknown #
vertex $-1 $271 $487 #
straight-curve $-1 -2.1808127410536819 26.141009005252016 7.1151525917924197 1 0 0 I I #
coedge $-1 $389 $272 $275 $403 reversed $265 $-1 #
coedge $-1 $272 $389 $394 $484 forward $265 $-1 #
vertex $-1 $273 $488 #
straight-curve $-1 -11.570847207963887 32.853588435722635 58.338507890355814 0 0 1 I I #
straight-curve $-1 -11.570847207963887 -16.736246982847625 44.387783371977179 0 0.75470957328743171 -0.6560590369687036 I I #
edge $-1 $482 -2.8475962437491589 $277 11.570847207963887 $398 $489 forward 7 unknown #
point $-1 -11.570847207963887 32.853588435722635 7.115152591792417 #
point $-1 -11.570847207963887 26.141009005252023 7.1151525917924161 #
edge $-1 $490 1 $490 0 $280 $-1 forward 7 unknown #
vertex $-1 $281 $491 #
ellipse-curve $-1 -4.3616254821073639 27.560035491019246 1.9690080237078016 0 0.6560590369687036 0.75470957328743171 1 0 0 1 I I #
point $-1 -3.3616254821073639 29.497298720487333 4.1975743917784829 #
loop $-1 $-1 $293 $284 #
plane-surface $-1 0 32.853588435722635 0 0 -1 0 0 0 -1 forward_v I I I I #
coedge $-1 $287 $416 $296 $424 forward $186 $-1 #
edge $-1 $421 -65.70717687144527 $417 -56.812921825452733 $288 $492 forward 7 unknown #
coedge $-1 $293 $493 $289 $415 forward $410 $-1 #
edge $-1 $418 51.223355298563398 $421 57.058511698591296 $414 $494 forward 7 unknown #
coedge $-1 $412 $290 $493 $495 forward $186 $-1 #
vertex $-1 $291 $496 #
vertex $-1 $495 $497 #
straight-curve $-1 17.266039695462204 23.051912689314346 7.1151525917924161 0 1 0 I I #
coedge $-1 $493 $293 $297 $425 forward $410 $-1 #
vertex $-1 $415 $498 #
straight-curve $-1 -2.1808127410536819 32.853588435722635 1.2799961917645213 -1 0 0 I I #
straight-curve $-1 -2.1808127410536819 26.141009005252016 7.1151525917924197 1 0 0 I I #
edge $-1 $499 -9.8016757464082893 $299 -3.0890963159376774 $412 $500 forward 7 unknown #
edge $-1 $298 -57.058511698591296 $499 -51.223355298563398 $420 $501 forward 7 unknown #
point $-1 2.8475962437491589 32.853588435722635 1.2799961917645177 #
point $-1 2.8475962437491589 26.141009005252023 7.1151525917924161 #
edge $-1 $502 1 $502 0 $301 $-1 forward 7 unknown #
vertex $-1 $302 $503 #
ellipse-curve $-1 10.056817969605682 27.560035491019246 1.9690080237078016 0 0.6560590369687036 0.75470957328743171 1 0 0 1 I I #
point $-1 11.056817969605682 29.497298720487333 4.1975743917784829 #
plane-surface $-1 47.892086550492877 0 0 -1 0 0 0 0 1 forward_v I I I I #
coedge $-1 $310 $308 $312 $437 reversed $201 $-1 #
edge $-1 $323 -7.115152591792417 $439 7.115152591792417 $322 $504 forward 7 unknown #
vertex $-1 $437 $505 #
straight-curve $-1 -47.892086550492877 -32.853588435722635 0 0 0 -1 I I #
edge $-1 $435 -32.853588435722635 $439 32.853588435722635 $433 $506 forward 7 unknown #
straight-curve $-1 0 -32.853588435722635 -7.115152591792417 -1 0 0 I I #
vertex $-1 $315 $507 #
straight-curve $-1 0 32.853588435722635 -7.115152591792417 1 0 0 I I #
point $-1 47.892086550492877 32.853588435722635 -7.115152591792417 #
point $-1 47.892086550492877 -32.853588435722635 -7.115152591792417 #
straight-curve $-1 -47.892086550492877 0 7.115152591792417 0 -1 0 I I #
point $-1 -47.892086550492877 32.853588435722635 7.115152591792417 #
point $-1 -47.892086550492877 -32.853588435722635 7.115152591792417 #
straight-curve $-1 47.892086550492877 -32.853588435722635 0 0 0 -1 I I #
straight-curve $-1 47.892086550492877 32.853588435722635 0 0 0 -1 I I #
plane-surface $-1 0 32.853588435722635 0 0 -1 0 0 0 -1 forward_v I I I I #
coedge $-1 $459 $458 $338 $451 forward $333 $-1 #
straight-curve $-1 -42.196894062994545 -32.853588435722635 -2.4070937492175721 0 0 1 I I #
edge $-1 $454 -32.853588435722635 $452 32.853588435722635 $449 $508 forward 7 unknown #
vertex $-1 $339 $509 #
straight-curve $-1 -22.522245153371856 -32.853588435722635 -6.3141874984351443 1 0 0 I I #
vertex $-1 $341 $510 #
straight-curve $-1 -22.522245153371856 32.853588435722635 -6.3141874984351443 -1 0 0 I I #
point $-1 -42.196894062994545 32.853588435722635 -6.3141874984351443 #
point $-1 -42.196894062994545 -32.853588435722635 -6.3141874984351443 #
coedge $-1 $449 $345 $348 $461 forward $333 $-1 #
coedge $-1 $345 $449 $352 $463 reversed $333 $-1 #
straight-curve $-1 -47.892086550492877 0 -3.3141874984351443 0 1 0 I I #
edge $-1 $350 3.3141874984351443 $454 6.3141874984351443 $348 $511 forward 7 unknown #
point $-1 -47.892086550492877 32.853588435722635 -3.3141874984351443 #
edge $-1 $353 3.3141874984351443 $452 6.3141874984351443 $459 $512 forward 7 unknown #
point $-1 -47.892086550492877 -32.853588435722635 -3.3141874984351443 #
straight-curve $-1 -42.196894062994545 32.853588435722635 -2.4070937492175721 0 0 -1 I I #
edge $-1 $467 13.712672792546265 $470 21.588163525606305 $359 $513 forward 7 unknown #
vertex $-1 $466 $514 #
straight-curve $-1 36.069968381639356 -32.853588435722635 37.587994251125693 0 0 1 I I #
edge $-1 $470 -24.582292342571243 $370 1.6069402644350212 $369 $515 forward 7 unknown #
vertex $-1 $469 $516 #
straight-curve $-1 36.069968381639356 -32.853588435722635 0.73770581146240488 0 -0.77714595512881146 -0.62932039886446345 I I #
point $-1 36.069968381639356 -32.853588435722635 0.73770581146240488 #
point $-1 9.8807357746330915 -24.978097702662595 7.1151525917924161 #
straight-curve $-1 0 -32.853588435722635 7.115152591792417 1 0 0 I I #
vertex $-1 $376 $517 #
point $-1 16.61858229603434 -27.912141660926469 2.686961212033256 #
vertex $-1 $380 $518 #
point $-1 24.475352078136225 -27.912141660926469 2.686961212033256 #
vertex $-1 $384 $519 #
point $-1 32.332121860238104 -27.912141660926469 2.686961212033256 #
edge $-1 $482 51.223355298563398 $485 57.058511698591296 $389 $520 forward 7 unknown #
vertex $-1 $403 $521 #
straight-curve $-1 2.8475962437491589 23.051912689314346 7.1151525917924161 0 1 0 I I #
edge $-1 $485 -5.0284089848028408 $400 9.3900344669102047 $399 $522 forward 7 unknown #
vertex $-1 $484 $523 #
straight-curve $-1 2.8475962437491589 -16.736246982847625 44.387783371977179 0 -0.75470957328743171 0.6560590369687036 I I #
point $-1 2.8475962437491589 26.141009005252023 7.1151525917924161 #
point $-1 -11.570847207963887 32.853588435722635 1.2799961917645177 #
straight-curve $-1 0 32.853588435722635 7.115152591792417 -1 0 0 I I #
vertex $-1 $406 $524 #
point $-1 -3.3616254821073639 27.560035491019246 1.9690080237078016 #
straight-curve $-1 17.266039695462204 -16.736246982847625 44.387783371977179 0 -0.75470957328743171 0.6560590369687036 I I #
coedge $-1 $414 $420 $416 $495 reversed $410 $-1 #
straight-curve $-1 17.266039695462204 32.853588435722635 58.338507890355814 0 0 -1 I I #
edge $-1 $418 -17.266039695462204 $499 -2.8475962437491589 $493 $525 forward 7 unknown #
point $-1 17.266039695462204 26.141009005252023 7.1151525917924161 #
point $-1 17.266039695462204 32.853588435722635 7.115152591792417 #
point $-1 17.266039695462204 32.853588435722635 1.2799961917645177 #
vertex $-1 $425 $526 #
straight-curve $-1 2.8475962437491589 23.051912689314346 7.1151525917924161 0 -1 0 I I #
straight-curve $-1 2.8475962437491589 32.853588435722635 58.338507890355814 0 0 1 I I #
vertex $-1 $428 $527 #
point $-1 11.056817969605682 27.560035491019246 1.9690080237078016 #
straight-curve $-1 -47.892086550492877 32.853588435722635 0 0 0 -1 I I #
point $-1 -47.892086550492877 -32.853588435722635 -7.115152591792417 #
straight-curve $-1 -47.892086550492877 0 -7.115152591792417 0 1 0 I I #
point $-1 -47.892086550492877 32.853588435722635 -7.115152591792417 #
straight-curve $-1 -47.892086550492877 0 -6.3141874984351443 0 -1 0 I I #
point $-1 -47.892086550492877 -32.853588435722635 -6.3141874984351443 #
point $-1 -47.892086550492877 32.853588435722635 -6.3141874984351443 #
straight-curve $-1 -47.892086550492877 32.853588435722635 0 0 0 -1 I I #
straight-curve $-1 -47.892086550492877 -32.853588435722635 0 0 0 -1 I I #
straight-curve $-1 36.069968381639356 -46.5662612282689 7.1151525917924161 0 1 0 I I #
point $-1 36.069968381639356 -32.853588435722635 7.115152591792417 #
straight-curve $-1 11.487676039068113 -24.978097702662595 7.115152591792417 -1 0 0 I I #
point $-1 36.069968381639356 -24.978097702662595 7.1151525917924161 #
point $-1 15.11858229603434 -26.968161062629772 1.5212422793400391 #
point $-1 22.975352078136225 -26.968161062629772 1.5212422793400391 #
point $-1 30.832121860238104 -26.968161062629772 1.5212422793400391 #
straight-curve $-1 2.8475962437491589 32.853588435722635 58.338507890355814 0 0 -1 I I #
point $-1 2.8475962437491589 32.853588435722635 7.115152591792417 #
straight-curve $-1 -2.1808127410536819 32.853588435722635 1.2799961917645213 -1 0 0 I I #
point $-1 2.8475962437491589 32.853588435722635 1.2799961917645177 #
point $-1 -4.3616254821073639 26.90397645405054 1.2142984504203698 #
straight-curve $-1 0 32.853588435722635 7.115152591792417 -1 0 0 I I #
point $-1 2.8475962437491589 32.853588435722635 7.115152591792417 #
point $-1 10.056817969605682 26.90397645405054 1.2142984504203698 #
End-of-ACIS-data 