500 0 6 0           
7 Unknown 11 ACIS 5.0 NT 24 Fri Mar 26 15:13:40 1999 
-1 9.9999999999999995e-007 1e-010 
body $-1 $6 $-1 $7 #
body $-1 $8 $-1 $9 #
body $-1 $10 $-1 $11 #
body $-1 $12 $-1 $13 #
body $-1 $14 $-1 $15 #
body $-1 $16 $-1 $17 #
lump $-1 $-1 $18 $0 #
transform $-1 1 0 0 0 1 0 0 0 1 66.249580370494698 44.504101328813078 13.130658907332565 1 rotate no_reflect no_shear #
lump $-1 $-1 $19 $1 #
transform $-1 1 0 0 0 1 0 0 0 1 66.249580370494698 44.504101328813078 13.130658907332565 1 rotate no_reflect no_shear #
lump $-1 $-1 $20 $2 #
transform $-1 1 0 0 0 1 0 0 0 1 66.249580370494698 44.504101328813078 13.130658907332565 1 rotate no_reflect no_shear #
lump $-1 $-1 $21 $3 #
transform $-1 1 0 0 0 1 0 0 0 1 66.249580370494698 44.504101328813078 13.130658907332565 1 rotate no_reflect no_shear #
lump $-1 $-1 $22 $4 #
transform $-1 1 0 0 0 1 0 0 0 1 66.249580370494698 44.504101328813078 13.130658907332565 1 rotate no_reflect no_shear #
lump $-1 $-1 $23 $5 #
transform $-1 1 0 0 0 1 0 0 0 1 66.249580370494698 44.504101328813078 13.130658907332565 1 rotate no_reflect no_shear #
shell $-1 $-1 $-1 $24 $-1 $6 #
shell $-1 $-1 $-1 $25 $-1 $8 #
shell $-1 $-1 $-1 $26 $-1 $10 #
shell $-1 $-1 $-1 $27 $-1 $12 #
shell $-1 $-1 $-1 $28 $-1 $14 #
shell $-1 $-1 $-1 $29 $-1 $16 #
face $-1 $30 $31 $18 $-1 $32 forward single #
face $-1 $33 $34 $19 $-1 $35 forward single #
face $-1 $36 $37 $20 $-1 $38 forward single #
face $-1 $39 $40 $21 $-1 $41 reversed single #
face $-1 $42 $43 $22 $-1 $44 forward single #
face $-1 $45 $46 $23 $-1 $47 forward single #
face $-1 $48 $49 $18 $-1 $50 reversed single #
loop $-1 $-1 $51 $24 #
plane-surface $-1 0 0 13.130658907332565 0 0 1 1 0 0 forward_v I I I I #
face $-1 $52 $53 $19 $-1 $54 reversed single #
loop $-1 $-1 $55 $25 #
plane-surface $-1 0 -39.785900177622636 -5.1387814021754714 0 0 1 1 0 0 forward_v I I I I #
face $-1 $56 $57 $20 $-1 $58 reversed single #
loop $-1 $-1 $59 $26 #
plane-surface $-1 0 44.504101328813078 0 0 -1 0 0 0 -1 forward_v I I I I #
face $-1 $60 $61 $21 $-1 $62 reversed single #
loop $-1 $-1 $63 $27 #
plane-surface $-1 59.710041112368728 -10.244012190797374 190.8395240659917 0 1 0 0.68199836817093118 0 0.7313536940579346 forward_v I I I I #
face $-1 $64 $65 $22 $-1 $66 forward single #
loop $-1 $67 $68 $28 #
cone-surface $-1 58.321074235949133 -4.8756969973715698 5.3451880645095278 -0.68199836817093118 0 -0.7313536940579346 1.8283842351448365 0 -1.7049959204273279 1 I I 0 1 2.5 forward I I I I #
face $-1 $69 $70 $23 $-1 $71 forward single #
loop $-1 $72 $73 $29 #
cone-surface $-1 58.321074235949133 3.1767757927671312 5.3451880645095278 -0.68199836817093118 0 -0.7313536940579346 1.8283842351448365 0 -1.7049959204273279 1 I I 0 1 2.5 forward I I I I #
face $-1 $74 $75 $18 $-1 $76 reversed single #
loop $-1 $-1 $77 $30 #
plane-surface $-1 0 0 -13.130658907332565 0 0 1 1 0 0 forward_v I I I I #
coedge $-1 $78 $79 $80 $81 forward $31 $-1 #
face $-1 $82 $83 $19 $-1 $84 reversed single #
loop $-1 $-1 $85 $33 #
plane-surface $-1 0 -39.785900177622636 -9.3216618552690953 0 0 1 1 0 0 forward_v I I I I #
coedge $-1 $86 $87 $88 $89 reversed $34 $-1 #
face $-1 $90 $91 $20 $-1 $92 forward single #
loop $-1 $-1 $93 $36 #
plane-surface $-1 -66.249580370494698 0 0 1 0 0 0 0 -1 forward_v I I I I #
coedge $-1 $94 $95 $96 $97 forward $37 $-1 #
face $-1 $98 $99 $21 $-1 $100 reversed single #
loop $-1 $-1 $101 $39 #
plane-surface $-1 -30.654170297003944 -0.84946060230221576 93.935773398493041 0.68199836817093118 0 0.7313536940579346 0.7313536940579346 0 -0.68199836817093118 forward_v I I I I #
coedge $-1 $102 $103 $104 $105 reversed $40 $-1 #
face $-1 $-1 $106 $22 $-1 $107 forward single #
loop $-1 $108 $109 $42 #
cone-surface $-1 54.665508242854216 -4.8756969973715698 1.4250735632201899 -0.68199836817093118 0 -0.7313536940579346 0.91419211757241825 0 -0.85249796021366397 1 I I -0.70710678118654746 0.70710678118654746 1.25 forward I I I I #
loop $-1 $-1 $110 $28 #
coedge $-1 $68 $68 $111 $112 reversed $43 $-1 #
face $-1 $-1 $113 $23 $-1 $114 forward single #
loop $-1 $115 $116 $45 #
cone-surface $-1 54.665508242854216 3.1767757927671312 1.4250735632201899 -0.68199836817093118 0 -0.7313536940579346 0.91419211757241825 0 -0.85249796021366397 1 I I -0.70710678118654746 0.70710678118654746 1.25 forward I I I I #
loop $-1 $-1 $117 $29 #
coedge $-1 $73 $73 $118 $119 reversed $46 $-1 #
face $-1 $120 $121 $18 $-1 $122 reversed single #
loop $-1 $-1 $123 $48 #
plane-surface $-1 0 -44.504101328813078 0 0 1 0 0 0 1 forward_v I I I I #
coedge $-1 $124 $125 $126 $127 forward $49 $-1 #
coedge $-1 $128 $51 $129 $130 forward $31 $-1 #
coedge $-1 $51 $128 $131 $132 forward $31 $-1 #
coedge $-1 $133 $134 $51 $81 reversed $135 $-1 #
edge $-1 $136 -44.504101328813078 $137 44.504101328813078 $80 $138 forward 7 unknown #
face $-1 $139 $140 $19 $-1 $141 reversed single #
loop $-1 $-1 $142 $52 #
plane-surface $-1 0 -35.067699026432194 -7.2302216287222834 0 -1 0 0 0 -1 forward_v I I I I #
coedge $-1 $143 $144 $145 $146 reversed $53 $-1 #
coedge $-1 $147 $55 $148 $149 forward $34 $-1 #
coedge $-1 $55 $147 $150 $151 reversed $34 $-1 #
coedge $-1 $152 $153 $55 $89 forward $154 $-1 #
edge $-1 $155 15.174748937620876 $156 24.61115124000176 $88 $157 forward 7 unknown #
face $-1 $158 $159 $20 $-1 $160 reversed single #
loop $-1 $-1 $161 $56 #
plane-surface $-1 0 48.883899589062167 -9.6176356102036955 0 0 1 1 0 0 forward_v I I I I #
coedge $-1 $162 $163 $94 $164 forward $57 $-1 #
coedge $-1 $165 $59 $93 $164 reversed $37 $-1 #
coedge $-1 $59 $165 $166 $167 reversed $37 $-1 #
coedge $-1 $161 $168 $59 $97 reversed $91 $-1 #
edge $-1 $169 -66.249580370494698 $170 66.249580370494698 $96 $171 forward 7 unknown #
face $-1 $172 $173 $21 $-1 $174 forward single #
loop $-1 $-1 $175 $60 #
plane-surface $-1 59.710041112368728 8.5450909861929425 190.8395240659917 0 -1 0 -0.68199836817093118 0 -0.7313536940579346 forward_v I I I I #
coedge $-1 $176 $177 $178 $179 reversed $61 $-1 #
coedge $-1 $103 $63 $180 $181 reversed $40 $-1 #
coedge $-1 $63 $102 $176 $182 reversed $40 $-1 #
coedge $-1 $178 $183 $63 $105 forward $184 $-1 #
edge $-1 $185 82.289103125663289 $186 91.848200043875465 $104 $187 forward 7 unknown #
loop $-1 $-1 $111 $64 #
plane-surface $-1 -30.654170297003944 -0.84946060230221576 93.935773398493041 0.68199836817093118 0 0.7313536940579346 0.7313536940579346 0 -0.68199836817093118 forward_v I I I I #
loop $-1 $-1 $188 $42 #
coedge $-1 $109 $109 $110 $189 reversed $65 $-1 #
coedge $-1 $110 $110 $109 $189 forward $67 $-1 #
coedge $-1 $111 $111 $68 $112 forward $106 $-1 #
edge $-1 $190 0 $190 6.2831853071796004 $111 $191 forward 7 unknown #
loop $-1 $-1 $118 $69 #
plane-surface $-1 -30.654170297003944 -0.84946060230221576 93.935773398493041 0.68199836817093118 0 0.7313536940579346 0.7313536940579346 0 -0.68199836817093118 forward_v I I I I #
loop $-1 $-1 $192 $45 #
coedge $-1 $116 $116 $117 $193 reversed $70 $-1 #
coedge $-1 $117 $117 $116 $193 forward $72 $-1 #
coedge $-1 $118 $118 $73 $119 forward $113 $-1 #
edge $-1 $194 0 $194 6.2831853071796004 $118 $195 forward 7 unknown #
face $-1 $196 $197 $18 $-1 $198 reversed single #
loop $-1 $-1 $199 $74 #
plane-surface $-1 -66.249580370494698 0 0 1 0 0 0 0 -1 forward_v I I I I #
coedge $-1 $200 $131 $201 $202 forward $75 $-1 #
coedge $-1 $203 $77 $200 $204 forward $49 $-1 #
coedge $-1 $77 $203 $205 $206 forward $49 $-1 #
coedge $-1 $134 $133 $77 $127 reversed $135 $-1 #
edge $-1 $207 -44.504101328813078 $208 44.504101328813078 $126 $209 forward 7 unknown #
coedge $-1 $79 $78 $210 $211 forward $31 $-1 #
coedge $-1 $212 $213 $78 $130 reversed $197 $-1 #
edge $-1 $137 -66.249580370494698 $214 66.249580370494698 $129 $215 forward 7 unknown #
coedge $-1 $123 $216 $79 $132 reversed $75 $-1 #
edge $-1 $217 -66.249580370494698 $136 66.249580370494698 $131 $218 forward 7 unknown #
coedge $-1 $126 $80 $216 $219 forward $135 $-1 #
coedge $-1 $80 $126 $212 $220 reversed $135 $-1 #
loop $-1 $-1 $133 $196 #
vertex $-1 $81 $221 #
vertex $-1 $81 $222 #
straight-curve $-1 66.249580370494698 0 13.130658907332565 0 1 0 I I #
face $-1 $223 $224 $19 $-1 $225 reversed single #
loop $-1 $-1 $226 $82 #
plane-surface $-1 -66.249580370494698 0 0 1 0 0 0 0 -1 forward_v I I I I #
coedge $-1 $227 $148 $153 $228 reversed $83 $-1 #
coedge $-1 $229 $85 $230 $231 reversed $53 $-1 #
coedge $-1 $85 $229 $227 $232 forward $53 $-1 #
coedge $-1 $153 $152 $85 $146 forward $154 $-1 #
edge $-1 $233 -24.61115124000176 $234 -15.174748937620876 $145 $235 forward 7 unknown #
coedge $-1 $87 $86 $226 $236 reversed $34 $-1 #
coedge $-1 $142 $237 $86 $149 reversed $83 $-1 #
edge $-1 $155 -66.249580370494698 $238 66.249580370494698 $148 $239 forward 7 unknown #
coedge $-1 $240 $241 $87 $151 forward $224 $-1 #
edge $-1 $156 -66.249580370494698 $242 66.249580370494698 $150 $243 forward 7 unknown #
coedge $-1 $145 $88 $241 $244 forward $154 $-1 #
coedge $-1 $88 $145 $142 $228 forward $154 $-1 #
loop $-1 $-1 $88 $223 #
vertex $-1 $89 $245 #
vertex $-1 $244 $246 #
straight-curve $-1 66.249580370494698 -19.892950088811318 -5.1387814021754714 0 -1 0 I I #
face $-1 $247 $248 $20 $-1 $249 reversed single #
loop $-1 $-1 $250 $90 #
plane-surface $-1 0 53.263697849311257 -11.374147258768129 0 -1 0 0 0 -1 forward_v I I I I #
coedge $-1 $251 $96 $252 $253 forward $91 $-1 #
coedge $-1 $254 $93 $168 $255 reversed $57 $-1 #
coedge $-1 $93 $254 $256 $257 reversed $57 $-1 #
edge $-1 $258 -13.130658907332565 $170 -9.6176356102036955 $93 $259 forward 7 unknown #
coedge $-1 $95 $94 $260 $261 reversed $37 $-1 #
coedge $-1 $262 $252 $95 $167 forward $248 $-1 #
edge $-1 $169 9.6176356102036955 $263 13.130658907332565 $166 $264 forward 7 unknown #
coedge $-1 $96 $251 $162 $255 forward $91 $-1 #
vertex $-1 $167 $265 #
vertex $-1 $255 $266 #
straight-curve $-1 0 44.504101328813078 -9.6176356102036955 -1 0 0 I I #
face $-1 $-1 $184 $21 $-1 $267 reversed single #
loop $-1 $-1 $268 $98 #
plane-surface $-1 0 0 13.130658907332565 0 0 1 1 0 0 forward_v I I I I #
coedge $-1 $269 $270 $271 $272 reversed $99 $-1 #
coedge $-1 $273 $101 $103 $182 forward $61 $-1 #
coedge $-1 $101 $273 $269 $274 forward $61 $-1 #
coedge $-1 $271 $104 $101 $179 forward $184 $-1 #
edge $-1 $186 -9.8192818896462661 $275 8.9698212873440504 $178 $276 forward 7 unknown #
coedge $-1 $277 $278 $102 $181 forward $173 $-1 #
edge $-1 $279 26.143683610981789 $185 36.394559814310334 $180 $280 forward 7 unknown #
edge $-1 $186 -132.49916074098937 $279 -118.48285606294598 $103 $281 forward 7 unknown #
coedge $-1 $104 $271 $277 $282 reversed $184 $-1 #
loop $-1 $-1 $271 $172 #
vertex $-1 $282 $283 #
vertex $-1 $105 $284 #
straight-curve $-1 66.249580370494698 -10.244012190797374 95.419762032995848 0 0 -1 I I #
coedge $-1 $188 $188 $-1 $285 reversed $108 $-1 #
edge $-1 $286 0 $286 6.2831853071796004 $109 $287 forward 7 unknown #
vertex $-1 $112 $288 #
ellipse-curve $-1 61.124142268830418 -4.8756969973715698 8.3511104482264784 0.68199836817093118 0 0.7313536940579346 1.8283842351448365 0 -1.7049959204273279 1 I I #
coedge $-1 $192 $192 $-1 $289 reversed $115 $-1 #
edge $-1 $290 0 $290 6.2831853071796004 $116 $291 forward 7 unknown #
vertex $-1 $119 $292 #
ellipse-curve $-1 61.124142268830418 3.1767757927671312 8.3511104482264784 0.68199836817093118 0 0.7313536940579346 1.8283842351448365 0 -1.7049959204273279 1 I I #
face $-1 $-1 $135 $18 $-1 $293 reversed single #
loop $-1 $-1 $212 $120 #
plane-surface $-1 0 44.504101328813078 0 0 -1 0 0 0 -1 forward_v I I I I #
coedge $-1 $294 $210 $213 $295 forward $121 $-1 #
coedge $-1 $216 $123 $124 $204 reversed $75 $-1 #
coedge $-1 $210 $294 $123 $202 reversed $121 $-1 #
edge $-1 $217 -13.130658907332565 $296 13.130658907332565 $201 $297 forward 7 unknown #
coedge $-1 $125 $124 $294 $298 forward $49 $-1 #
edge $-1 $208 -66.249580370494698 $296 66.249580370494698 $200 $299 forward 7 unknown #
coedge $-1 $213 $212 $125 $206 reversed $197 $-1 #
edge $-1 $300 -66.249580370494698 $207 66.249580370494698 $205 $301 forward 7 unknown #
vertex $-1 $127 $302 #
vertex $-1 $219 $303 #
straight-curve $-1 66.249580370494698 0 -13.130658907332565 0 -1 0 I I #
coedge $-1 $199 $201 $128 $211 reversed $121 $-1 #
edge $-1 $214 -44.504101328813078 $217 44.504101328813078 $210 $304 forward 7 unknown #
coedge $-1 $205 $129 $134 $220 forward $197 $-1 #
coedge $-1 $129 $205 $199 $295 reversed $197 $-1 #
vertex $-1 $130 $305 #
straight-curve $-1 0 44.504101328813078 13.130658907332565 -1 0 0 I I #
coedge $-1 $131 $200 $133 $219 reversed $75 $-1 #
vertex $-1 $211 $306 #
straight-curve $-1 0 -44.504101328813078 13.130658907332565 1 0 0 I I #
edge $-1 $136 -13.130658907332565 $208 13.130658907332565 $133 $307 forward 7 unknown #
edge $-1 $137 -13.130658907332565 $207 13.130658907332565 $134 $308 forward 7 unknown #
point $-1 66.249580370494698 -44.504101328813078 13.130658907332565 #
point $-1 66.249580370494698 44.504101328813078 13.130658907332565 #
face $-1 $-1 $154 $19 $-1 $309 reversed single #
loop $-1 $-1 $150 $139 #
plane-surface $-1 0 -44.504101328813078 0 0 1 0 0 0 1 forward_v I I I I #
coedge $-1 $310 $311 $147 $236 forward $140 $-1 #
coedge $-1 $237 $142 $144 $232 reversed $83 $-1 #
edge $-1 $234 -5.7065510409079536 $155 -1.5236705878143297 $153 $312 forward 7 unknown #
coedge $-1 $144 $143 $313 $314 reversed $53 $-1 #
coedge $-1 $241 $240 $143 $231 forward $224 $-1 #
edge $-1 $315 -66.249580370494698 $233 66.249580370494698 $230 $316 forward 7 unknown #
edge $-1 $317 -66.249580370494698 $234 66.249580370494698 $227 $318 forward 7 unknown #
vertex $-1 $231 $319 #
vertex $-1 $146 $320 #
straight-curve $-1 66.249580370494698 -19.892950088811318 -9.3216618552690953 0 1 0 I I #
edge $-1 $242 -24.61115124000176 $238 -15.174748937620876 $226 $321 forward 7 unknown #
coedge $-1 $148 $227 $310 $322 reversed $83 $-1 #
vertex $-1 $236 $323 #
straight-curve $-1 0 -35.067699026432194 -5.1387814021754714 -1 0 0 I I #
coedge $-1 $230 $150 $311 $324 forward $224 $-1 #
coedge $-1 $150 $230 $152 $244 reversed $224 $-1 #
vertex $-1 $324 $325 #
straight-curve $-1 0 -44.504101328813078 -5.1387814021754714 -1 0 0 I I #
edge $-1 $156 5.1387814021754714 $233 9.3216618552690953 $152 $326 forward 7 unknown #
point $-1 66.249580370494698 -35.067699026432194 -5.1387814021754714 #
point $-1 66.249580370494698 -44.504101328813078 -5.1387814021754714 #
face $-1 $-1 $327 $20 $-1 $328 reversed single #
loop $-1 $-1 $166 $158 #
plane-surface $-1 66.249580370494698 0 0 -1 0 0 0 0 1 forward_v I I I I #
coedge $-1 $329 $330 $331 $332 forward $159 $-1 #
coedge $-1 $168 $161 $330 $333 forward $91 $-1 #
coedge $-1 $166 $331 $161 $253 reversed $248 $-1 #
edge $-1 $169 -4.379798260249089 $334 4.379798260249089 $252 $335 forward 7 unknown #
coedge $-1 $163 $162 $336 $337 forward $57 $-1 #
edge $-1 $338 -4.379798260249089 $170 4.379798260249089 $162 $339 forward 7 unknown #
coedge $-1 $340 $260 $163 $257 forward $327 $-1 #
edge $-1 $258 -4.379798260249089 $341 4.379798260249089 $163 $342 forward 7 unknown #
vertex $-1 $257 $343 #
straight-curve $-1 -66.249580370494698 44.504101328813078 0 0 0 1 I I #
coedge $-1 $256 $344 $165 $261 forward $327 $-1 #
edge $-1 $263 -66.249580370494698 $258 66.249580370494698 $260 $345 forward 7 unknown #
coedge $-1 $331 $166 $344 $346 reversed $248 $-1 #
vertex $-1 $167 $347 #
straight-curve $-1 66.249580370494698 44.504101328813078 0 0 0 -1 I I #
point $-1 66.249580370494698 44.504101328813078 -9.6176356102036955 #
point $-1 -66.249580370494698 44.504101328813078 -9.6176356102036955 #
plane-surface $-1 66.249580370494698 0 0 -1 0 0 0 0 1 forward_v I I I I #
coedge $-1 $278 $277 $270 $348 forward $173 $-1 #
coedge $-1 $270 $175 $177 $274 reversed $99 $-1 #
coedge $-1 $175 $269 $268 $348 reversed $99 $-1 #
coedge $-1 $183 $178 $175 $272 forward $184 $-1 #
edge $-1 $275 -91.848200043875465 $349 -82.289103125663289 $271 $350 forward 7 unknown #
coedge $-1 $177 $176 $278 $351 reversed $61 $-1 #
edge $-1 $352 118.48285606294598 $275 132.49916074098937 $269 $353 forward 7 unknown #
vertex $-1 $179 $354 #
straight-curve $-1 66.249580370494698 -0.42473030115110788 3.5715619891203829 0 1 0 I I #
coedge $-1 $268 $180 $183 $282 forward $173 $-1 #
coedge $-1 $180 $268 $273 $351 forward $173 $-1 #
vertex $-1 $181 $355 #
straight-curve $-1 29.855020556184364 -10.244012190797374 13.13065890733256 1 0 0 I I #
straight-curve $-1 -30.654170297003944 -10.244012190797374 93.935773398493041 -0.7313536940579346 0 0.68199836817093118 I I #
edge $-1 $185 -10.244012190797374 $349 8.5450909861929425 $183 $356 forward 7 unknown #
point $-1 66.249580370494698 -10.244012190797374 13.130658907332565 #
point $-1 66.249580370494698 -10.244012190797374 3.5715619891203829 #
edge $-1 $357 1 $357 0 $188 $-1 forward 7 unknown #
vertex $-1 $189 $358 #
ellipse-curve $-1 55.518006203067877 -4.8756969973715698 2.3392656807926082 0.68199836817093118 0 0.7313536940579346 1.8283842351448365 0 -1.7049959204273279 1 I I #
point $-1 62.952526503975228 -4.8756969973715698 6.6461145277991189 #
edge $-1 $359 1 $359 0 $192 $-1 forward 7 unknown #
vertex $-1 $193 $360 #
ellipse-curve $-1 55.518006203067877 3.1767757927671312 2.3392656807926082 0.68199836817093118 0 0.7313536940579346 1.8283842351448365 0 -1.7049959204273279 1 I I #
point $-1 62.952526503975228 3.1767757927671312 6.6461145277991189 #
plane-surface $-1 66.249580370494698 0 0 -1 0 0 0 0 1 forward_v I I I I #
coedge $-1 $201 $199 $203 $298 reversed $121 $-1 #
edge $-1 $214 -13.130658907332565 $300 13.130658907332565 $213 $361 forward 7 unknown #
vertex $-1 $298 $362 #
straight-curve $-1 -66.249580370494698 -44.504101328813078 0 0 0 -1 I I #
edge $-1 $296 -44.504101328813078 $300 44.504101328813078 $294 $363 forward 7 unknown #
straight-curve $-1 0 -44.504101328813078 -13.130658907332565 -1 0 0 I I #
vertex $-1 $206 $364 #
straight-curve $-1 0 44.504101328813078 -13.130658907332565 1 0 0 I I #
point $-1 66.249580370494698 44.504101328813078 -13.130658907332565 #
point $-1 66.249580370494698 -44.504101328813078 -13.130658907332565 #
straight-curve $-1 -66.249580370494698 0 13.130658907332565 0 -1 0 I I #
point $-1 -66.249580370494698 44.504101328813078 13.130658907332565 #
point $-1 -66.249580370494698 -44.504101328813078 13.130658907332565 #
straight-curve $-1 66.249580370494698 -44.504101328813078 0 0 0 -1 I I #
straight-curve $-1 66.249580370494698 44.504101328813078 0 0 0 -1 I I #
plane-surface $-1 66.249580370494698 0 0 -1 0 0 0 0 1 forward_v I I I I #
coedge $-1 $313 $226 $237 $322 forward $140 $-1 #
coedge $-1 $226 $313 $240 $324 reversed $140 $-1 #
straight-curve $-1 66.249580370494698 -35.067699026432194 -3.6151108143611417 0 0 1 I I #
coedge $-1 $311 $310 $229 $314 forward $140 $-1 #
edge $-1 $317 15.174748937620876 $315 24.61115124000176 $313 $365 forward 7 unknown #
vertex $-1 $231 $366 #
straight-curve $-1 0 -44.504101328813078 -9.3216618552690953 1 0 0 I I #
vertex $-1 $314 $367 #
straight-curve $-1 0 -35.067699026432194 -9.3216618552690953 1 0 0 I I #
point $-1 66.249580370494698 -44.504101328813078 -9.3216618552690953 #
point $-1 66.249580370494698 -35.067699026432194 -9.3216618552690953 #
straight-curve $-1 -66.249580370494698 -19.892950088811318 -5.1387814021754714 0 1 0 I I #
edge $-1 $238 1.5236705878143297 $317 5.7065510409079536 $310 $368 forward 7 unknown #
point $-1 -66.249580370494698 -35.067699026432194 -5.1387814021754714 #
edge $-1 $242 5.1387814021754714 $315 9.3216618552690953 $311 $369 forward 7 unknown #
point $-1 -66.249580370494698 -44.504101328813078 -5.1387814021754714 #
straight-curve $-1 66.249580370494698 -44.504101328813078 0 0 0 -1 I I #
loop $-1 $-1 $260 $247 #
plane-surface $-1 0 0 -13.130658907332565 0 0 1 1 0 0 forward_v I I I I #
coedge $-1 $336 $250 $340 $370 reversed $159 $-1 #
coedge $-1 $250 $336 $251 $333 reversed $159 $-1 #
coedge $-1 $252 $262 $250 $332 reversed $248 $-1 #
edge $-1 $334 -1.7565116485644339 $371 1.7565116485644339 $331 $372 forward 7 unknown #
edge $-1 $334 -66.249580370494698 $338 66.249580370494698 $330 $373 forward 7 unknown #
vertex $-1 $253 $374 #
straight-curve $-1 66.249580370494698 48.883899589062167 -9.6176356102036955 0 1 0 I I #
coedge $-1 $330 $329 $254 $337 reversed $159 $-1 #
edge $-1 $338 -1.7565116485644339 $341 1.7565116485644339 $336 $375 forward 7 unknown #
vertex $-1 $333 $376 #
straight-curve $-1 -66.249580370494698 48.883899589062167 -9.6176356102036955 0 -1 0 I I #
coedge $-1 $344 $256 $329 $370 forward $327 $-1 #
vertex $-1 $370 $377 #
straight-curve $-1 -66.249580370494698 48.883899589062167 -13.130658907332563 0 1 0 I I #
point $-1 -66.249580370494698 44.504101328813078 -13.130658907332565 #
coedge $-1 $260 $340 $262 $346 forward $327 $-1 #
straight-curve $-1 0 44.504101328813078 -13.130658907332565 -1 0 0 I I #
edge $-1 $371 -53.263697849311257 $263 -44.504101328813078 $262 $378 forward 7 unknown #
point $-1 66.249580370494698 44.504101328813078 -13.130658907332565 #
edge $-1 $349 -36.394559814310334 $352 -26.143683610981789 $268 $379 forward 7 unknown #
vertex $-1 $272 $380 #
straight-curve $-1 66.249580370494698 8.5450909861929425 95.419762032995848 0 0 1 I I #
edge $-1 $352 -8.9698212873440504 $279 9.8192818896462661 $278 $381 forward 7 unknown #
vertex $-1 $351 $382 #
straight-curve $-1 -30.654170297003944 8.5450909861929425 93.935773398493041 0.7313536940579346 0 -0.68199836817093118 I I #
point $-1 66.249580370494698 8.5450909861929425 3.5715619891203829 #
point $-1 55.998704167166153 -10.244012190797374 13.13065890733256 #
straight-curve $-1 66.249580370494698 0 13.130658907332565 0 1 0 I I #
vertex $-1 $285 $383 #
point $-1 57.346390438212715 -4.8756969973715698 0.63426976036528016 #
vertex $-1 $289 $384 #
point $-1 57.346390438212715 3.1767757927671312 0.63426976036528016 #
straight-curve $-1 -66.249580370494698 44.504101328813078 0 0 0 -1 I I #
point $-1 -66.249580370494698 -44.504101328813078 -13.130658907332565 #
straight-curve $-1 -66.249580370494698 0 -13.130658907332565 0 1 0 I I #
point $-1 -66.249580370494698 44.504101328813078 -13.130658907332565 #
straight-curve $-1 -66.249580370494698 -19.892950088811318 -9.3216618552690953 0 -1 0 I I #
point $-1 -66.249580370494698 -44.504101328813078 -9.3216618552690953 #
point $-1 -66.249580370494698 -35.067699026432194 -9.3216618552690953 #
straight-curve $-1 -66.249580370494698 -35.067699026432194 -3.6151108143611417 0 0 -1 I I #
straight-curve $-1 -66.249580370494698 -44.504101328813078 0 0 0 -1 I I #
edge $-1 $341 -66.249580370494698 $371 66.249580370494698 $329 $385 forward 7 unknown #
vertex $-1 $346 $386 #
straight-curve $-1 66.249580370494698 53.263697849311257 -11.374147258768129 0 0 -1 I I #
straight-curve $-1 0 53.263697849311257 -9.6176356102036955 -1 0 0 I I #
point $-1 66.249580370494698 53.263697849311257 -9.6176356102036955 #
straight-curve $-1 -66.249580370494698 53.263697849311257 -11.374147258768129 0 0 -1 I I #
point $-1 -66.249580370494698 53.263697849311257 -9.6176356102036955 #
point $-1 -66.249580370494698 53.263697849311257 -13.130658907332563 #
straight-curve $-1 66.249580370494698 0 -13.130658907332565 0 -1 0 I I #
straight-curve $-1 29.855020556184364 8.5450909861929425 13.13065890733256 -1 0 0 I I #
point $-1 66.249580370494698 8.5450909861929425 13.130658907332565 #
straight-curve $-1 55.998704167166146 -0.42473030115110788 13.130658907332574 0 -1 0 I I #
point $-1 55.998704167166153 8.5450909861929425 13.13065890733256 #
point $-1 53.813010282640555 -4.8756969973715698 0.5108814456477716 #
point $-1 53.813010282640555 3.1767757927671312 0.5108814456477716 #
straight-curve $-1 0 53.263697849311257 -13.130658907332563 1 0 0 I I #
point $-1 66.249580370494698 53.263697849311257 -13.130658907332563 #
End-of-ACIS-data 