500 0 9 0           
7 Unknown 11 ACIS 5.0 NT 24 Thu Mar 25 16:19:36 1999 
-1 9.9999999999999995e-007 1e-010 
body $-1 $9 $-1 $10 #
body $-1 $11 $-1 $12 #
body $-1 $13 $-1 $14 #
body $-1 $15 $-1 $16 #
body $-1 $17 $-1 $18 #
body $-1 $19 $-1 $20 #
body $-1 $21 $-1 $22 #
body $-1 $23 $-1 $24 #
body $-1 $25 $-1 $26 #
lump $-1 $-1 $27 $0 #
transform $-1 1 0 0 0 1 0 0 0 1 63.505355998413037 44.193851489627143 19.340660145149212 1 rotate no_reflect no_shear #
lump $-1 $-1 $28 $1 #
transform $-1 1 0 0 0 1 0 0 0 1 63.505355998413037 44.193851489627143 19.340660145149212 1 rotate no_reflect no_shear #
lump $-1 $-1 $29 $2 #
transform $-1 1 0 0 0 1 0 0 0 1 63.505355998413037 44.193851489627143 19.340660145149212 1 rotate no_reflect no_shear #
lump $-1 $-1 $30 $3 #
transform $-1 1 0 0 0 1 0 0 0 1 63.505355998413037 44.193851489627143 19.340660145149212 1 rotate no_reflect no_shear #
lump $-1 $-1 $31 $4 #
transform $-1 1 0 0 0 1 0 0 0 1 63.505355998413037 44.193851489627143 19.340660145149212 1 rotate no_reflect no_shear #
lump $-1 $-1 $32 $5 #
transform $-1 1 0 0 0 1 0 0 0 1 63.505355998413037 44.193851489627143 19.340660145149212 1 rotate no_reflect no_shear #
lump $-1 $-1 $33 $6 #
transform $-1 1 0 0 0 1 0 0 0 1 63.505355998413037 44.193851489627143 19.340660145149212 1 rotate no_reflect no_shear #
lump $-1 $-1 $34 $7 #
transform $-1 1 0 0 0 1 0 0 0 1 63.505355998413037 44.193851489627143 19.340660145149212 1 rotate no_reflect no_shear #
lump $-1 $-1 $35 $8 #
transform $-1 1 0 0 0 1 0 0 0 1 63.505355998413037 44.193851489627143 19.340660145149212 1 rotate no_reflect no_shear #
shell $-1 $-1 $-1 $36 $-1 $9 #
shell $-1 $-1 $-1 $37 $-1 $11 #
shell $-1 $-1 $-1 $38 $-1 $13 #
shell $-1 $-1 $-1 $39 $-1 $15 #
shell $-1 $-1 $-1 $40 $-1 $17 #
shell $-1 $-1 $-1 $41 $-1 $19 #
shell $-1 $-1 $-1 $42 $-1 $21 #
shell $-1 $-1 $-1 $43 $-1 $23 #
shell $-1 $-1 $-1 $44 $-1 $25 #
face $-1 $45 $46 $27 $-1 $47 forward single #
face $-1 $48 $49 $28 $-1 $50 forward single #
face $-1 $51 $52 $29 $-1 $53 reversed single #
face $-1 $54 $55 $30 $-1 $56 forward single #
face $-1 $57 $58 $31 $-1 $59 forward single #
face $-1 $60 $61 $32 $-1 $62 reversed single #
face $-1 $63 $64 $33 $-1 $65 forward single #
face $-1 $66 $67 $34 $-1 $68 forward single #
face $-1 $69 $70 $35 $-1 $71 forward single #
face $-1 $72 $73 $27 $-1 $74 reversed single #
loop $-1 $-1 $75 $36 #
plane-surface $-1 0 0 19.340660145149212 0 0 1 1 0 0 forward_v I I I I #
face $-1 $76 $77 $28 $-1 $78 reversed single #
loop $-1 $-1 $79 $37 #
plane-surface $-1 -63.505355998413037 0 0 1 0 0 0 0 -1 forward_v I I I I #
face $-1 $80 $81 $29 $-1 $82 reversed single #
loop $-1 $-1 $83 $38 #
plane-surface $-1 57.945323519941795 -149.49050487745237 83.184106136374069 -1 0 0 0 -0.82903758062907751 0.55919289150049634 forward_v I I I I #
face $-1 $84 $85 $30 $-1 $86 forward single #
loop $-1 $87 $88 $39 #
cone-surface $-1 39.578639825251472 -39.184111256412578 14.00484908270718 0 0.82903758062907751 -0.55919289150049634 2 0 0 1 I I 0 1 2 forward I I I I #
face $-1 $89 $90 $31 $-1 $91 forward single #
loop $-1 $92 $93 $40 #
cone-surface $-1 50.598650042065671 -39.184111256412578 14.00484908270718 0 0.82903758062907751 -0.55919289150049634 2 0 0 1 I I 0 1 2 forward I I I I #
face $-1 $94 $95 $32 $-1 $96 reversed single #
loop $-1 $-1 $97 $41 #
plane-surface $-1 36.143562887130699 82.062503928783798 161.0870914081685 1 0 0 0 -0.75470958851134928 -0.65605901945558964 forward_v I I I I #
face $-1 $98 $99 $33 $-1 $100 forward single #
loop $-1 $101 $102 $42 #
cone-surface $-1 39.075615513711867 39.191380642257137 13.979636427187467 0 -0.75470958851134928 -0.65605901945558964 1 0 0 1 I I 0 1 1 forward I I I I #
face $-1 $103 $104 $34 $-1 $105 forward single #
loop $-1 $106 $107 $43 #
cone-surface $-1 43.473694453583605 39.191380642257137 13.979636427187467 0 -0.75470958851134928 -0.65605901945558964 1 0 0 1 I I 0 1 1 forward I I I I #
face $-1 $108 $109 $35 $-1 $110 forward single #
loop $-1 $111 $112 $44 #
cone-surface $-1 47.871773393455342 39.191380642257137 13.979636427187467 0 -0.75470958851134928 -0.65605901945558964 1 0 0 1 I I 0 1 1 forward I I I I #
face $-1 $113 $114 $27 $-1 $115 reversed single #
loop $-1 $-1 $116 $45 #
plane-surface $-1 0 0 -19.340660145149212 0 0 1 1 0 0 forward_v I I I I #
coedge $-1 $117 $118 $119 $120 forward $46 $-1 #
face $-1 $121 $122 $28 $-1 $123 reversed single #
loop $-1 $-1 $124 $48 #
plane-surface $-1 0 0 -19.340660145149212 0 0 1 1 0 0 forward_v I I I I #
coedge $-1 $125 $126 $127 $128 forward $49 $-1 #
face $-1 $129 $130 $29 $-1 $131 reversed single #
loop $-1 $-1 $132 $51 #
plane-surface $-1 45.088644933658571 -44.193851489627122 12.160618843332117 0 -0.82903758062907751 0.55919289150049634 1 0 0 forward_v I I I I #
coedge $-1 $133 $134 $135 $136 reversed $52 $-1 #
face $-1 $-1 $137 $30 $-1 $138 forward single #
loop $-1 $139 $140 $54 #
cone-surface $-1 39.578639825251472 -35.766832871828505 11.699865779673196 0 0.82903758062907751 -0.55919289150049634 1 0 0 1 I I -0.70710678118654746 0.70710678118654746 1 forward I I I I #
loop $-1 $-1 $141 $39 #
coedge $-1 $88 $88 $142 $143 reversed $55 $-1 #
face $-1 $-1 $144 $31 $-1 $145 forward single #
loop $-1 $146 $147 $57 #
cone-surface $-1 50.598650042065671 -35.766832871828505 11.699865779673196 0 0.82903758062907751 -0.55919289150049634 1 0 0 1 I I -0.70710678118654746 0.70710678118654746 1 forward I I I I #
loop $-1 $-1 $148 $40 #
coedge $-1 $93 $93 $149 $150 reversed $58 $-1 #
face $-1 $151 $152 $32 $-1 $153 reversed single #
loop $-1 $-1 $154 $60 #
plane-surface $-1 43.473694453583605 -13.793698258874301 77.760568235174489 0 0.75470958851134928 0.65605901945558964 1 0 0 forward_v I I I I #
coedge $-1 $155 $156 $157 $158 reversed $61 $-1 #
face $-1 $-1 $159 $33 $-1 $160 forward single #
loop $-1 $161 $162 $63 #
cone-surface $-1 39.075615513711867 37.413504859231629 12.434152626953473 0 -0.75470958851134928 -0.65605901945558964 0.5 0 0 1 I I -0.70710678118654746 0.70710678118654746 0.5 forward I I I I #
loop $-1 $-1 $163 $42 #
coedge $-1 $102 $102 $164 $165 reversed $64 $-1 #
face $-1 $-1 $166 $34 $-1 $167 forward single #
loop $-1 $168 $169 $66 #
cone-surface $-1 43.473694453583605 37.413504859231629 12.434152626953473 0 -0.75470958851134928 -0.65605901945558964 0.5 0 0 1 I I -0.70710678118654746 0.70710678118654746 0.5 forward I I I I #
loop $-1 $-1 $170 $43 #
coedge $-1 $107 $107 $171 $172 reversed $67 $-1 #
face $-1 $-1 $173 $35 $-1 $174 forward single #
loop $-1 $175 $176 $69 #
cone-surface $-1 47.871773393455342 37.413504859231629 12.434152626953473 0 -0.75470958851134928 -0.65605901945558964 0.5 0 0 1 I I -0.70710678118654746 0.70710678118654746 0.5 forward I I I I #
loop $-1 $-1 $177 $44 #
coedge $-1 $112 $112 $178 $179 reversed $70 $-1 #
face $-1 $180 $181 $27 $-1 $182 reversed single #
loop $-1 $-1 $183 $72 #
plane-surface $-1 0 -44.193851489627143 0 0 1 0 0 0 1 forward_v I I I I #
coedge $-1 $184 $185 $186 $187 forward $73 $-1 #
coedge $-1 $188 $75 $189 $190 forward $46 $-1 #
coedge $-1 $75 $188 $191 $192 forward $46 $-1 #
coedge $-1 $193 $194 $75 $120 reversed $195 $-1 #
edge $-1 $196 -44.193851489627143 $197 44.193851489627143 $119 $198 forward 7 unknown #
face $-1 $199 $200 $28 $-1 $201 reversed single #
loop $-1 $-1 $202 $76 #
plane-surface $-1 -73.192248433232365 -13.271522949756813 0 0 1 0 0 0 1 forward_v I I I I #
coedge $-1 $203 $204 $126 $205 forward $77 $-1 #
coedge $-1 $206 $79 $207 $208 reversed $49 $-1 #
coedge $-1 $79 $206 $124 $205 reversed $49 $-1 #
coedge $-1 $209 $210 $79 $128 reversed $211 $-1 #
edge $-1 $212 -19.340660145149212 $213 19.340660145149212 $127 $214 forward 7 unknown #
face $-1 $215 $216 $29 $-1 $217 forward single #
loop $-1 $-1 $218 $80 #
plane-surface $-1 32.231966347375348 -149.49050487745237 83.184106136374069 1 0 0 0 0.82903758062907751 -0.55919289150049634 forward_v I I I I #
coedge $-1 $219 $220 $221 $222 reversed $81 $-1 #
coedge $-1 $134 $83 $223 $224 reversed $52 $-1 #
coedge $-1 $83 $133 $219 $225 reversed $52 $-1 #
coedge $-1 $221 $226 $83 $136 forward $216 $-1 #
edge $-1 $227 30.55140094909904 $228 35.3943998076182 $135 $229 forward 7 unknown #
loop $-1 $-1 $142 $84 #
plane-surface $-1 45.088644933658571 -44.193851489627122 12.160618843332117 0 -0.82903758062907751 0.55919289150049634 1 0 0 forward_v I I I I #
loop $-1 $-1 $230 $54 #
coedge $-1 $140 $140 $141 $231 reversed $85 $-1 #
coedge $-1 $141 $141 $140 $231 forward $87 $-1 #
coedge $-1 $142 $142 $88 $143 forward $137 $-1 #
edge $-1 $232 -2.9163802826788924e-016 $232 6.2831853071796004 $142 $233 forward 7 unknown #
loop $-1 $-1 $149 $89 #
plane-surface $-1 45.088644933658571 -44.193851489627122 12.160618843332117 0 -0.82903758062907751 0.55919289150049634 1 0 0 forward_v I I I I #
loop $-1 $-1 $234 $57 #
coedge $-1 $147 $147 $148 $235 reversed $90 $-1 #
coedge $-1 $148 $148 $147 $235 forward $92 $-1 #
coedge $-1 $149 $149 $93 $150 forward $144 $-1 #
edge $-1 $236 -2.9163802826788924e-016 $236 6.2831853071796004 $149 $237 forward 7 unknown #
face $-1 $238 $239 $32 $-1 $240 reversed single #
loop $-1 $-1 $241 $94 #
plane-surface $-1 50.80382602003651 82.062503928783798 161.0870914081685 -1 0 0 0 0.75470958851134928 0.65605901945558964 forward_v I I I I #
coedge $-1 $242 $243 $244 $245 reversed $95 $-1 #
coedge $-1 $156 $97 $246 $247 reversed $61 $-1 #
coedge $-1 $97 $155 $242 $248 reversed $61 $-1 #
coedge $-1 $244 $249 $97 $158 forward $250 $-1 #
edge $-1 $251 -3.1625995252352439 $252 4.041300191965064 $157 $253 forward 7 unknown #
loop $-1 $-1 $164 $98 #
plane-surface $-1 43.473694453583605 -13.793698258874301 77.760568235174489 0 0.75470958851134928 0.65605901945558964 1 0 0 forward_v I I I I #
loop $-1 $-1 $254 $63 #
coedge $-1 $162 $162 $163 $255 reversed $99 $-1 #
coedge $-1 $163 $163 $162 $255 forward $101 $-1 #
coedge $-1 $164 $164 $102 $165 forward $159 $-1 #
edge $-1 $256 4.0831759830495707e-015 $256 6.2831853071796049 $164 $257 forward 7 unknown #
loop $-1 $-1 $171 $103 #
plane-surface $-1 43.473694453583605 -13.793698258874301 77.760568235174489 0 0.75470958851134928 0.65605901945558964 1 0 0 forward_v I I I I #
loop $-1 $-1 $258 $66 #
coedge $-1 $169 $169 $170 $259 reversed $104 $-1 #
coedge $-1 $170 $170 $169 $259 forward $106 $-1 #
coedge $-1 $171 $171 $107 $172 forward $166 $-1 #
edge $-1 $260 4.0831759830495707e-015 $260 6.2831853071796049 $171 $261 forward 7 unknown #
loop $-1 $-1 $178 $108 #
plane-surface $-1 43.473694453583605 -13.793698258874301 77.760568235174489 0 0.75470958851134928 0.65605901945558964 1 0 0 forward_v I I I I #
loop $-1 $-1 $262 $69 #
coedge $-1 $176 $176 $177 $263 reversed $109 $-1 #
coedge $-1 $177 $177 $176 $263 forward $111 $-1 #
coedge $-1 $178 $178 $112 $179 forward $173 $-1 #
edge $-1 $264 4.0831759830495707e-015 $264 6.2831853071796049 $178 $265 forward 7 unknown #
face $-1 $266 $267 $27 $-1 $268 reversed single #
loop $-1 $-1 $269 $113 #
plane-surface $-1 -63.505355998413037 0 0 1 0 0 0 0 -1 forward_v I I I I #
coedge $-1 $270 $191 $271 $272 forward $114 $-1 #
coedge $-1 $273 $116 $270 $274 forward $73 $-1 #
coedge $-1 $116 $273 $275 $276 forward $73 $-1 #
coedge $-1 $194 $193 $116 $187 reversed $195 $-1 #
edge $-1 $277 -44.193851489627143 $278 44.193851489627143 $186 $279 forward 7 unknown #
coedge $-1 $118 $117 $280 $281 forward $46 $-1 #
coedge $-1 $282 $283 $117 $190 reversed $267 $-1 #
edge $-1 $197 -63.505355998413037 $284 63.505355998413037 $189 $285 forward 7 unknown #
coedge $-1 $183 $286 $118 $192 reversed $114 $-1 #
edge $-1 $287 -63.505355998413037 $196 63.505355998413037 $191 $288 forward 7 unknown #
coedge $-1 $186 $119 $286 $289 forward $195 $-1 #
coedge $-1 $119 $186 $282 $290 reversed $195 $-1 #
loop $-1 $-1 $193 $266 #
vertex $-1 $120 $291 #
vertex $-1 $120 $292 #
straight-curve $-1 63.505355998413037 0 19.340660145149212 0 1 0 I I #
face $-1 $293 $211 $28 $-1 $294 reversed single #
loop $-1 $-1 $295 $121 #
plane-surface $-1 -82.879140868051692 -10.44323103357555 0 1 0 0 0 0 -1 forward_v I I I I #
coedge $-1 $296 $297 $298 $299 forward $122 $-1 #
coedge $-1 $300 $124 $296 $301 forward $77 $-1 #
coedge $-1 $124 $300 $209 $302 forward $77 $-1 #
edge $-1 $212 7.6149391173942877 $303 13.271522949756813 $124 $304 forward 7 unknown #
coedge $-1 $126 $125 $305 $306 forward $49 $-1 #
coedge $-1 $307 $308 $125 $208 forward $309 $-1 #
edge $-1 $310 -13.271522949756813 $213 -7.6149391173942877 $207 $311 forward 7 unknown #
coedge $-1 $312 $127 $204 $302 reversed $211 $-1 #
coedge $-1 $127 $312 $307 $313 reversed $211 $-1 #
loop $-1 $-1 $127 $199 #
vertex $-1 $205 $314 #
vertex $-1 $313 $315 #
straight-curve $-1 -63.505355998413037 -7.6149391173942877 0 0 0 1 I I #
face $-1 $-1 $316 $29 $-1 $317 reversed single #
loop $-1 $-1 $135 $129 #
plane-surface $-1 0 0 19.340660145149212 0 0 1 1 0 0 forward_v I I I I #
coedge $-1 $318 $319 $320 $321 reversed $130 $-1 #
coedge $-1 $322 $132 $134 $225 forward $81 $-1 #
coedge $-1 $132 $322 $318 $323 forward $81 $-1 #
coedge $-1 $320 $135 $132 $222 forward $216 $-1 #
edge $-1 $228 -35.401001053112509 $324 -9.6876438805460623 $221 $325 forward 7 unknown #
coedge $-1 $326 $327 $133 $224 forward $316 $-1 #
edge $-1 $328 -29.43143422485495 $227 -22.251392923037823 $223 $329 forward 7 unknown #
edge $-1 $228 -8.6606946049042151 $328 3.8427911784796275e-014 $134 $330 forward 7 unknown #
coedge $-1 $135 $320 $326 $331 forward $216 $-1 #
vertex $-1 $136 $332 #
vertex $-1 $136 $333 #
straight-curve $-1 57.945323519941795 -74.745252438726183 19.340660145149212 0 1 0 I I #
coedge $-1 $230 $230 $-1 $334 reversed $139 $-1 #
edge $-1 $335 0 $335 6.2831853071796004 $140 $336 forward 7 unknown #
vertex $-1 $143 $337 #
ellipse-curve $-1 39.578639825251472 -41.77235206036756 15.750639494240657 0 -0.82903758062907751 0.55919289150049634 2 0 0 1 I I #
coedge $-1 $234 $234 $-1 $338 reversed $146 $-1 #
edge $-1 $339 0 $339 6.2831853071796004 $147 $340 forward 7 unknown #
vertex $-1 $150 $341 #
ellipse-curve $-1 50.598650042065671 -41.77235206036756 15.750639494240657 0 -0.82903758062907751 0.55919289150049634 2 0 0 1 I I #
face $-1 $-1 $250 $32 $-1 $342 forward single #
loop $-1 $-1 $343 $151 #
plane-surface $-1 0 44.193851489627143 0 0 -1 0 0 0 -1 forward_v I I I I #
coedge $-1 $344 $345 $346 $347 reversed $152 $-1 #
coedge $-1 $348 $154 $156 $248 forward $95 $-1 #
coedge $-1 $154 $348 $344 $349 forward $95 $-1 #
coedge $-1 $346 $157 $154 $245 forward $250 $-1 #
edge $-1 $252 14.406715660338897 $350 29.066978793244708 $244 $351 forward 7 unknown #
coedge $-1 $352 $353 $155 $247 forward $239 $-1 #
edge $-1 $354 -69.490024413846101 $251 -61.202885558935037 $246 $355 forward 7 unknown #
edge $-1 $252 77.407136439405093 $354 88.387702979254286 $156 $356 forward 7 unknown #
coedge $-1 $157 $346 $352 $357 forward $250 $-1 #
loop $-1 $-1 $346 $238 #
vertex $-1 $247 $358 #
vertex $-1 $158 $359 #
straight-curve $-1 36.143562887130699 41.031251964391899 19.340660145149215 0 -1 0 I I #
coedge $-1 $254 $254 $-1 $360 reversed $161 $-1 #
edge $-1 $361 0 $361 6.2831853071796004 $162 $362 forward 7 unknown #
vertex $-1 $165 $363 #
ellipse-curve $-1 39.075615513711867 40.591901631026985 15.197090717693682 0 0.75470958851134928 0.65605901945558964 1 0 0 1 I I #
coedge $-1 $258 $258 $-1 $364 reversed $168 $-1 #
edge $-1 $365 0 $365 6.2831853071796004 $169 $366 forward 7 unknown #
vertex $-1 $172 $367 #
ellipse-curve $-1 43.473694453583605 40.591901631026985 15.197090717693682 0 0.75470958851134928 0.65605901945558964 1 0 0 1 I I #
coedge $-1 $262 $262 $-1 $368 reversed $175 $-1 #
edge $-1 $369 0 $369 6.2831853071796004 $176 $370 forward 7 unknown #
vertex $-1 $179 $371 #
ellipse-curve $-1 47.871773393455342 40.591901631026985 15.197090717693682 0 0.75470958851134928 0.65605901945558964 1 0 0 1 I I #
face $-1 $-1 $195 $27 $-1 $372 reversed single #
loop $-1 $-1 $282 $180 #
plane-surface $-1 0 44.193851489627143 0 0 -1 0 0 0 -1 forward_v I I I I #
coedge $-1 $373 $280 $283 $374 forward $181 $-1 #
coedge $-1 $286 $183 $184 $274 reversed $114 $-1 #
coedge $-1 $280 $373 $183 $272 reversed $181 $-1 #
edge $-1 $287 -19.340660145149212 $375 19.340660145149212 $271 $376 forward 7 unknown #
coedge $-1 $185 $184 $373 $377 forward $73 $-1 #
edge $-1 $278 -63.505355998413037 $375 63.505355998413037 $270 $378 forward 7 unknown #
coedge $-1 $283 $282 $185 $276 reversed $267 $-1 #
edge $-1 $379 -63.505355998413037 $277 63.505355998413037 $275 $380 forward 7 unknown #
vertex $-1 $187 $381 #
vertex $-1 $289 $382 #
straight-curve $-1 63.505355998413037 0 -19.340660145149212 0 -1 0 I I #
coedge $-1 $269 $271 $188 $281 reversed $181 $-1 #
edge $-1 $284 -44.193851489627143 $287 44.193851489627143 $280 $383 forward 7 unknown #
coedge $-1 $275 $189 $194 $290 forward $267 $-1 #
coedge $-1 $189 $275 $269 $374 reversed $267 $-1 #
vertex $-1 $190 $384 #
straight-curve $-1 0 44.193851489627143 19.340660145149212 -1 0 0 I I #
coedge $-1 $191 $270 $193 $289 reversed $114 $-1 #
vertex $-1 $281 $385 #
straight-curve $-1 0 -44.193851489627143 19.340660145149212 1 0 0 I I #
edge $-1 $196 -19.340660145149212 $278 19.340660145149212 $193 $386 forward 7 unknown #
edge $-1 $197 -19.340660145149212 $277 19.340660145149212 $194 $387 forward 7 unknown #
point $-1 63.505355998413037 -44.193851489627143 19.340660145149212 #
point $-1 63.505355998413037 44.193851489627143 19.340660145149212 #
face $-1 $-1 $309 $28 $-1 $388 forward single #
plane-surface $-1 -73.192248433232365 -7.6149391173942877 0 0 -1 0 0 0 -1 forward_v I I I I #
coedge $-1 $389 $390 $312 $391 forward $200 $-1 #
coedge $-1 $305 $202 $203 $301 reversed $122 $-1 #
coedge $-1 $202 $305 $308 $392 reversed $122 $-1 #
coedge $-1 $390 $389 $202 $299 reversed $200 $-1 #
edge $-1 $393 -19.340660145149212 $394 19.340660145149212 $298 $395 forward 7 unknown #
coedge $-1 $204 $203 $389 $396 forward $77 $-1 #
edge $-1 $303 -9.6868924348193275 $394 9.6868924348193275 $296 $397 forward 7 unknown #
edge $-1 $398 -9.6868924348193275 $212 9.6868924348193275 $209 $399 forward 7 unknown #
vertex $-1 $301 $400 #
straight-curve $-1 -63.505355998413037 0 -19.340660145149212 0 -1 0 I I #
coedge $-1 $297 $296 $206 $306 reversed $122 $-1 #
edge $-1 $310 -19.340660145149212 $303 19.340660145149212 $305 $401 forward 7 unknown #
coedge $-1 $402 $207 $210 $313 forward $309 $-1 #
coedge $-1 $207 $402 $297 $392 forward $309 $-1 #
loop $-1 $-1 $207 $293 #
vertex $-1 $208 $403 #
straight-curve $-1 -63.505355998413037 0 19.340660145149212 0 1 0 I I #
coedge $-1 $210 $209 $295 $391 reversed $211 $-1 #
edge $-1 $213 -9.6868924348193275 $404 9.6868924348193275 $210 $405 forward 7 unknown #
point $-1 -63.505355998413037 -7.6149391173942877 -19.340660145149212 #
point $-1 -63.505355998413037 -7.6149391173942877 19.340660145149212 #
loop $-1 $-1 $223 $215 #
plane-surface $-1 0 -44.193851489627143 0 0 1 0 0 0 1 forward_v I I I I #
coedge $-1 $319 $218 $220 $323 reversed $130 $-1 #
coedge $-1 $218 $318 $406 $407 reversed $130 $-1 #
coedge $-1 $226 $221 $218 $321 forward $216 $-1 #
edge $-1 $324 -35.3943998076182 $408 -30.55140094909904 $320 $409 forward 7 unknown #
coedge $-1 $220 $219 $327 $410 reversed $81 $-1 #
edge $-1 $411 -3.8427911784796275e-014 $324 8.6606946049042151 $318 $412 forward 7 unknown #
vertex $-1 $222 $413 #
straight-curve $-1 22.544322466829286 -39.350852631107983 19.340660145149212 -1 0 0 I I #
coedge $-1 $406 $223 $226 $331 reversed $316 $-1 #
coedge $-1 $223 $406 $322 $410 forward $316 $-1 #
vertex $-1 $224 $414 #
straight-curve $-1 57.945323519941795 -44.193851489627143 41.592053068187035 0 0 1 I I #
straight-curve $-1 57.945323519941795 -44.193851489627122 12.160618843332117 0 -0.55919289150049634 -0.82903758062907751 I I #
edge $-1 $408 32.231966347375348 $227 57.945323519941795 $326 $415 forward 7 unknown #
point $-1 57.945323519941795 -44.193851489627143 19.340660145149212 #
point $-1 57.945323519941795 -39.350852631107983 19.340660145149212 #
edge $-1 $416 1 $416 0 $230 $-1 forward 7 unknown #
vertex $-1 $231 $417 #
ellipse-curve $-1 39.578639825251472 -36.595870452457582 12.259058671173692 0 -0.82903758062907751 0.55919289150049634 2 0 0 1 I I #
point $-1 41.578639825251472 -41.772352060367574 15.750639494240666 #
edge $-1 $418 1 $418 0 $234 $-1 forward 7 unknown #
vertex $-1 $235 $419 #
ellipse-curve $-1 50.598650042065671 -36.595870452457582 12.259058671173692 0 -0.82903758062907751 0.55919289150049634 2 0 0 1 I I #
point $-1 52.598650042065671 -41.772352060367574 15.750639494240666 #
plane-surface $-1 0 0 19.340660145149212 0 0 1 1 0 0 forward_v I I I I #
coedge $-1 $353 $352 $345 $420 forward $239 $-1 #
coedge $-1 $345 $241 $243 $349 reversed $152 $-1 #
coedge $-1 $241 $344 $343 $420 reversed $152 $-1 #
coedge $-1 $249 $244 $241 $347 forward $250 $-1 #
edge $-1 $350 -4.041300191965064 $421 3.1625995252352439 $346 $422 forward 7 unknown #
coedge $-1 $243 $242 $353 $423 reversed $95 $-1 #
edge $-1 $424 -88.387702979254286 $350 -77.407136439405093 $344 $425 forward 7 unknown #
vertex $-1 $245 $426 #
straight-curve $-1 21.736847226791802 36.989951772426835 19.340660145149215 1 0 0 I I #
coedge $-1 $343 $246 $249 $357 reversed $239 $-1 #
coedge $-1 $246 $343 $348 $423 forward $239 $-1 #
vertex $-1 $247 $427 #
straight-curve $-1 36.143562887130699 44.193851489627143 80.543545704084252 0 0 1 I I #
straight-curve $-1 36.143562887130699 -13.793698258874301 77.760568235174489 0 0.65605901945558964 -0.75470958851134928 I I #
edge $-1 $421 -50.80382602003651 $251 -36.143562887130699 $352 $428 forward 7 unknown #
point $-1 36.143562887130699 44.193851489627143 19.340660145149212 #
point $-1 36.143562887130699 36.989951772426835 19.340660145149215 #
edge $-1 $429 1 $429 0 $254 $-1 forward 7 unknown #
vertex $-1 $255 $430 #
ellipse-curve $-1 39.075615513711867 37.790859653487303 12.762182136681268 0 0.75470958851134928 0.65605901945558964 1 0 0 1 I I #
point $-1 40.075615513711867 40.591901631026971 15.197090717693664 #
edge $-1 $431 1 $431 0 $258 $-1 forward 7 unknown #
vertex $-1 $259 $432 #
ellipse-curve $-1 43.473694453583605 37.790859653487303 12.762182136681268 0 0.75470958851134928 0.65605901945558964 1 0 0 1 I I #
point $-1 44.473694453583605 40.591901631026971 15.197090717693664 #
edge $-1 $433 1 $433 0 $262 $-1 forward 7 unknown #
vertex $-1 $263 $434 #
ellipse-curve $-1 47.871773393455342 37.790859653487303 12.762182136681268 0 0.75470958851134928 0.65605901945558964 1 0 0 1 I I #
point $-1 48.871773393455342 40.591901631026971 15.197090717693664 #
plane-surface $-1 63.505355998413037 0 0 -1 0 0 0 0 1 forward_v I I I I #
coedge $-1 $271 $269 $273 $377 reversed $181 $-1 #
edge $-1 $284 -19.340660145149212 $379 19.340660145149212 $283 $435 forward 7 unknown #
vertex $-1 $377 $436 #
straight-curve $-1 -63.505355998413037 -44.193851489627143 0 0 0 -1 I I #
edge $-1 $375 -44.193851489627143 $379 44.193851489627143 $373 $437 forward 7 unknown #
straight-curve $-1 0 -44.193851489627143 -19.340660145149212 -1 0 0 I I #
vertex $-1 $276 $438 #
straight-curve $-1 0 44.193851489627143 -19.340660145149212 1 0 0 I I #
point $-1 63.505355998413037 44.193851489627143 -19.340660145149212 #
point $-1 63.505355998413037 -44.193851489627143 -19.340660145149212 #
straight-curve $-1 -63.505355998413037 0 19.340660145149212 0 -1 0 I I #
point $-1 -63.505355998413037 44.193851489627143 19.340660145149212 #
point $-1 -63.505355998413037 -44.193851489627143 19.340660145149212 #
straight-curve $-1 63.505355998413037 -44.193851489627143 0 0 0 -1 I I #
straight-curve $-1 63.505355998413037 44.193851489627143 0 0 0 -1 I I #
plane-surface $-1 0 0 19.340660145149212 0 0 1 1 0 0 forward_v I I I I #
coedge $-1 $298 $295 $300 $396 reversed $200 $-1 #
coedge $-1 $295 $298 $402 $439 reversed $200 $-1 #
edge $-1 $404 -19.340660145149212 $398 19.340660145149212 $312 $440 forward 7 unknown #
edge $-1 $393 -9.6868924348193275 $310 9.6868924348193275 $297 $441 forward 7 unknown #
vertex $-1 $439 $442 #
vertex $-1 $396 $443 #
straight-curve $-1 -82.879140868051692 -13.271522949756813 0 0 0 -1 I I #
edge $-1 $394 -2.8282919161812625 $398 2.8282919161812625 $389 $444 forward 7 unknown #
straight-curve $-1 -73.192248433232365 -13.271522949756813 -19.340660145149212 -1 0 0 I I #
vertex $-1 $302 $445 #
straight-curve $-1 -73.192248433232365 -7.6149391173942877 -19.340660145149212 1 0 0 I I #
point $-1 -63.505355998413037 -13.271522949756813 -19.340660145149212 #
straight-curve $-1 -63.505355998413037 -13.271522949756813 0 0 0 -1 I I #
coedge $-1 $308 $307 $390 $439 forward $309 $-1 #
point $-1 -63.505355998413037 -13.271522949756813 19.340660145149212 #
vertex $-1 $313 $446 #
straight-curve $-1 -73.192248433232365 -7.6149391173942877 19.340660145149212 -1 0 0 I I #
coedge $-1 $327 $326 $319 $407 forward $316 $-1 #
edge $-1 $408 22.251392923037823 $411 29.43143422485495 $406 $447 forward 7 unknown #
vertex $-1 $331 $448 #
straight-curve $-1 32.231966347375348 -74.745252438726183 19.340660145149212 0 -1 0 I I #
edge $-1 $411 9.6876438805460623 $328 35.401001053112509 $327 $449 forward 7 unknown #
vertex $-1 $410 $450 #
straight-curve $-1 32.231966347375348 -44.193851489627122 12.160618843332117 0 0.55919289150049634 0.82903758062907751 I I #
point $-1 32.231966347375348 -39.350852631107983 19.340660145149212 #
point $-1 57.945323519941795 -44.193851489627143 12.160618843332085 #
straight-curve $-1 0 -44.193851489627143 19.340660145149212 1 0 0 I I #
vertex $-1 $334 $451 #
point $-1 41.578639825251472 -36.595870452457582 12.259058671173692 #
vertex $-1 $338 $452 #
point $-1 52.598650042065671 -36.595870452457582 12.259058671173692 #
edge $-1 $421 61.202885558935037 $424 69.490024413846101 $343 $453 forward 7 unknown #
vertex $-1 $357 $454 #
straight-curve $-1 50.80382602003651 41.031251964391899 19.340660145149215 0 1 0 I I #
edge $-1 $424 -29.066978793244708 $354 -14.406715660338897 $353 $455 forward 7 unknown #
vertex $-1 $423 $456 #
straight-curve $-1 50.80382602003651 -13.793698258874301 77.760568235174489 0 -0.65605901945558964 0.75470958851134928 I I #
point $-1 50.80382602003651 36.989951772426835 19.340660145149215 #
point $-1 36.143562887130699 44.19385148962715 11.053521290238152 #
straight-curve $-1 0 44.193851489627143 19.340660145149212 -1 0 0 I I #
vertex $-1 $360 $457 #
point $-1 40.075615513711867 37.790859653487303 12.762182136681268 #
vertex $-1 $364 $458 #
point $-1 44.473694453583605 37.790859653487303 12.762182136681268 #
vertex $-1 $368 $459 #
point $-1 48.871773393455342 37.790859653487303 12.762182136681268 #
straight-curve $-1 -63.505355998413037 44.193851489627143 0 0 0 -1 I I #
point $-1 -63.505355998413037 -44.193851489627143 -19.340660145149212 #
straight-curve $-1 -63.505355998413037 0 -19.340660145149212 0 1 0 I I #
point $-1 -63.505355998413037 44.193851489627143 -19.340660145149212 #
edge $-1 $404 -2.8282919161812625 $393 2.8282919161812625 $390 $460 forward 7 unknown #
straight-curve $-1 -82.879140868051692 -7.6149391173942877 0 0 0 -1 I I #
straight-curve $-1 -73.192248433232365 -13.271522949756813 19.340660145149212 1 0 0 I I #
point $-1 -82.879140868051692 -13.271522949756813 19.340660145149212 #
point $-1 -82.879140868051692 -13.271522949756813 -19.340660145149212 #
straight-curve $-1 -82.879140868051692 -10.44323103357555 -19.340660145149212 0 1 0 I I #
point $-1 -82.879140868051692 -7.6149391173942877 -19.340660145149212 #
point $-1 -82.879140868051692 -7.6149391173942877 19.340660145149212 #
straight-curve $-1 32.231966347375348 -44.193851489627143 41.592053068187035 0 0 -1 I I #
point $-1 32.231966347375348 -44.193851489627143 19.340660145149212 #
straight-curve $-1 22.544322466829286 -44.193851489627143 12.160618843332092 1 0 0 I I #
point $-1 32.231966347375348 -44.193851489627143 12.160618843332085 #
point $-1 39.578639825251472 -34.937795291199429 11.1406728881727 #
point $-1 50.598650042065671 -34.937795291199429 11.1406728881727 #
straight-curve $-1 50.80382602003651 44.193851489627143 80.543545704084252 0 0 -1 I I #
point $-1 50.80382602003651 44.193851489627143 19.340660145149212 #
straight-curve $-1 21.736847226791802 44.19385148962715 11.053521290238145 -1 0 0 I I #
point $-1 50.80382602003651 44.19385148962715 11.053521290238152 #
point $-1 39.075615513711867 37.036150064975956 12.106123117225678 #
point $-1 43.473694453583605 37.036150064975956 12.106123117225678 #
point $-1 47.871773393455342 37.036150064975956 12.106123117225678 #
straight-curve $-1 -82.879140868051692 -10.44323103357555 19.340660145149212 0 -1 0 I I #
End-of-ACIS-data 