500 0 2 0           
7 Unknown 11 ACIS 5.0 NT 24 Fri Mar 26 19:54:17 1999 
-1 9.9999999999999995e-007 1e-010 
body $-1 $2 $-1 $3 #
body $-1 $4 $-1 $5 #
lump $-1 $-1 $6 $0 #
transform $-1 1 0 0 0 1 0 0 0 1 63.767815179906613 38.718606125425943 7.7766888178126097 1 rotate no_reflect no_shear #
lump $-1 $-1 $7 $1 #
transform $-1 1 0 0 0 1 0 0 0 1 63.767815179906613 38.718606125425943 7.7766888178126097 1 rotate no_reflect no_shear #
shell $-1 $-1 $-1 $8 $-1 $2 #
shell $-1 $-1 $-1 $9 $-1 $4 #
face $-1 $10 $11 $6 $-1 $12 forward single #
face $-1 $13 $14 $7 $-1 $15 forward single #
face $-1 $16 $17 $6 $-1 $18 reversed single #
loop $-1 $-1 $19 $8 #
plane-surface $-1 0 0 7.7766888178126097 0 0 1 1 0 0 forward_v I I I I #
face $-1 $20 $21 $7 $-1 $22 forward single #
loop $-1 $-1 $23 $9 #
plane-surface $-1 -63.767815179906613 0 0 1 0 0 0 0 -1 forward_v I I I I #
face $-1 $24 $25 $6 $-1 $26 reversed single #
loop $-1 $-1 $27 $10 #
plane-surface $-1 0 0 -7.7766888178126097 0 0 1 1 0 0 forward_v I I I I #
coedge $-1 $28 $29 $30 $31 forward $11 $-1 #
face $-1 $32 $33 $7 $-1 $34 reversed single #
loop $-1 $-1 $35 $13 #
plane-surface $-1 0 0 7.7766888178126097 0 0 1 1 0 0 forward_v I I I I #
coedge $-1 $36 $37 $38 $39 forward $14 $-1 #
face $-1 $40 $41 $6 $-1 $42 reversed single #
loop $-1 $-1 $43 $16 #
plane-surface $-1 0 -38.718606125425943 0 0 1 0 0 0 1 forward_v I I I I #
coedge $-1 $44 $45 $46 $47 forward $17 $-1 #
coedge $-1 $48 $19 $49 $50 forward $11 $-1 #
coedge $-1 $19 $48 $51 $52 forward $11 $-1 #
coedge $-1 $53 $54 $19 $31 reversed $55 $-1 #
edge $-1 $56 -38.718606125425943 $57 38.718606125425943 $30 $58 forward 7 unknown #
face $-1 $59 $60 $7 $-1 $61 reversed single #
loop $-1 $-1 $62 $20 #
plane-surface $-1 -72.02272989474649 -37.218606125425943 0 1 0 0 0 0 -1 forward_v I I I I #
coedge $-1 $63 $64 $36 $65 forward $21 $-1 #
coedge $-1 $66 $23 $35 $65 reversed $14 $-1 #
coedge $-1 $23 $66 $67 $68 reversed $14 $-1 #
coedge $-1 $69 $70 $23 $39 reversed $60 $-1 #
edge $-1 $71 -7.7766888178126097 $72 7.7766888178126097 $38 $73 forward 7 unknown #
face $-1 $74 $75 $6 $-1 $76 reversed single #
loop $-1 $-1 $77 $24 #
plane-surface $-1 -63.767815179906613 0 0 1 0 0 0 0 -1 forward_v I I I I #
coedge $-1 $78 $51 $79 $80 forward $25 $-1 #
coedge $-1 $81 $27 $78 $82 forward $17 $-1 #
coedge $-1 $27 $81 $83 $84 forward $17 $-1 #
coedge $-1 $54 $53 $27 $47 reversed $55 $-1 #
edge $-1 $85 -38.718606125425943 $86 38.718606125425943 $46 $87 forward 7 unknown #
coedge $-1 $29 $28 $88 $89 forward $11 $-1 #
coedge $-1 $90 $91 $28 $50 reversed $75 $-1 #
edge $-1 $57 -63.767815179906613 $92 63.767815179906613 $49 $93 forward 7 unknown #
coedge $-1 $43 $94 $29 $52 reversed $25 $-1 #
edge $-1 $95 -63.767815179906613 $56 63.767815179906613 $51 $96 forward 7 unknown #
coedge $-1 $46 $30 $94 $97 forward $55 $-1 #
coedge $-1 $30 $46 $90 $98 reversed $55 $-1 #
loop $-1 $-1 $53 $74 #
vertex $-1 $31 $99 #
vertex $-1 $31 $100 #
straight-curve $-1 63.767815179906613 0 7.7766888178126097 0 1 0 I I #
face $-1 $101 $102 $7 $-1 $103 reversed single #
loop $-1 $-1 $38 $32 #
plane-surface $-1 -67.895272537326548 -35.718606125425943 0 0 -1 0 0 0 -1 forward_v I I I I #
coedge $-1 $104 $105 $106 $107 forward $33 $-1 #
coedge $-1 $108 $35 $70 $109 forward $21 $-1 #
coedge $-1 $35 $108 $110 $111 forward $21 $-1 #
edge $-1 $112 -38.718606125425943 $72 -35.718606125425943 $35 $113 forward 7 unknown #
coedge $-1 $37 $36 $114 $115 reversed $14 $-1 #
coedge $-1 $116 $117 $37 $68 forward $102 $-1 #
edge $-1 $71 35.718606125425943 $118 38.718606125425943 $67 $119 forward 7 unknown #
coedge $-1 $106 $38 $117 $120 reversed $60 $-1 #
coedge $-1 $38 $106 $63 $109 reversed $60 $-1 #
vertex $-1 $68 $121 #
vertex $-1 $109 $122 #
straight-curve $-1 -63.767815179906613 -35.718606125425943 0 0 0 1 I I #
face $-1 $-1 $55 $6 $-1 $123 reversed single #
loop $-1 $-1 $90 $40 #
plane-surface $-1 0 38.718606125425943 0 0 -1 0 0 0 -1 forward_v I I I I #
coedge $-1 $124 $88 $91 $125 forward $41 $-1 #
coedge $-1 $94 $43 $44 $82 reversed $25 $-1 #
coedge $-1 $88 $124 $43 $80 reversed $41 $-1 #
edge $-1 $95 -7.7766888178126097 $126 7.7766888178126097 $79 $127 forward 7 unknown #
coedge $-1 $45 $44 $124 $128 forward $17 $-1 #
edge $-1 $86 -63.767815179906613 $126 63.767815179906613 $78 $129 forward 7 unknown #
coedge $-1 $91 $90 $45 $84 reversed $75 $-1 #
edge $-1 $130 -63.767815179906613 $85 63.767815179906613 $83 $131 forward 7 unknown #
vertex $-1 $47 $132 #
vertex $-1 $97 $133 #
straight-curve $-1 63.767815179906613 0 -7.7766888178126097 0 -1 0 I I #
coedge $-1 $77 $79 $48 $89 reversed $41 $-1 #
edge $-1 $92 -38.718606125425943 $95 38.718606125425943 $88 $134 forward 7 unknown #
coedge $-1 $83 $49 $54 $98 forward $75 $-1 #
coedge $-1 $49 $83 $77 $125 reversed $75 $-1 #
vertex $-1 $50 $135 #
straight-curve $-1 0 38.718606125425943 7.7766888178126097 -1 0 0 I I #
coedge $-1 $51 $78 $53 $97 reversed $25 $-1 #
vertex $-1 $89 $136 #
straight-curve $-1 0 -38.718606125425943 7.7766888178126097 1 0 0 I I #
edge $-1 $56 -7.7766888178126097 $86 7.7766888178126097 $53 $137 forward 7 unknown #
edge $-1 $57 -7.7766888178126097 $85 7.7766888178126097 $54 $138 forward 7 unknown #
point $-1 63.767815179906613 -38.718606125425943 7.7766888178126097 #
point $-1 63.767815179906613 38.718606125425943 7.7766888178126097 #
face $-1 $-1 $139 $7 $-1 $140 reversed single #
loop $-1 $-1 $67 $59 #
plane-surface $-1 0 0 -7.7766888178126097 0 0 1 1 0 0 forward_v I I I I #
coedge $-1 $141 $62 $142 $143 reversed $33 $-1 #
coedge $-1 $62 $141 $108 $144 reversed $33 $-1 #
coedge $-1 $70 $69 $62 $107 reversed $60 $-1 #
edge $-1 $145 -7.7766888178126097 $146 7.7766888178126097 $106 $147 forward 7 unknown #
coedge $-1 $64 $63 $105 $144 forward $21 $-1 #
edge $-1 $72 -4.1274573574199351 $145 4.1274573574199422 $70 $148 forward 7 unknown #
coedge $-1 $149 $114 $64 $111 reversed $139 $-1 #
edge $-1 $150 -72.02272989474649 $112 -63.767815179906613 $110 $151 forward 7 unknown #
vertex $-1 $115 $152 #
straight-curve $-1 -63.767815179906613 0 7.7766888178126097 0 1 0 I I #
coedge $-1 $110 $153 $66 $115 forward $139 $-1 #
edge $-1 $118 -7.7766888178126097 $112 7.7766888178126097 $114 $154 forward 7 unknown #
coedge $-1 $142 $67 $153 $155 forward $102 $-1 #
coedge $-1 $67 $142 $69 $120 forward $102 $-1 #
vertex $-1 $155 $156 #
straight-curve $-1 -63.767815179906613 0 -7.7766888178126097 0 -1 0 I I #
edge $-1 $146 -4.1274573574199422 $71 4.1274573574199351 $69 $157 forward 7 unknown #
point $-1 -63.767815179906613 -35.718606125425943 -7.7766888178126097 #
point $-1 -63.767815179906613 -35.718606125425943 7.7766888178126097 #
plane-surface $-1 63.767815179906613 0 0 -1 0 0 0 0 1 forward_v I I I I #
coedge $-1 $79 $77 $81 $128 reversed $41 $-1 #
edge $-1 $92 -7.7766888178126097 $130 7.7766888178126097 $91 $158 forward 7 unknown #
vertex $-1 $128 $159 #
straight-curve $-1 -63.767815179906613 -38.718606125425943 0 0 0 -1 I I #
edge $-1 $126 -38.718606125425943 $130 38.718606125425943 $124 $160 forward 7 unknown #
straight-curve $-1 0 -38.718606125425943 -7.7766888178126097 -1 0 0 I I #
vertex $-1 $84 $161 #
straight-curve $-1 0 38.718606125425943 -7.7766888178126097 1 0 0 I I #
point $-1 63.767815179906613 38.718606125425943 -7.7766888178126097 #
point $-1 63.767815179906613 -38.718606125425943 -7.7766888178126097 #
straight-curve $-1 -63.767815179906613 0 7.7766888178126097 0 -1 0 I I #
point $-1 -63.767815179906613 38.718606125425943 7.7766888178126097 #
point $-1 -63.767815179906613 -38.718606125425943 7.7766888178126097 #
straight-curve $-1 63.767815179906613 -38.718606125425943 0 0 0 -1 I I #
straight-curve $-1 63.767815179906613 38.718606125425943 0 0 0 -1 I I #
loop $-1 $-1 $114 $101 #
plane-surface $-1 0 -38.718606125425943 0 0 1 0 0 0 1 forward_v I I I I #
coedge $-1 $105 $104 $149 $162 reversed $33 $-1 #
coedge $-1 $117 $116 $104 $143 forward $102 $-1 #
edge $-1 $163 -1.5 $146 1.5 $104 $164 forward 7 unknown #
edge $-1 $145 -1.5 $150 1.5 $105 $165 forward 7 unknown #
vertex $-1 $109 $166 #
vertex $-1 $120 $167 #
straight-curve $-1 -72.02272989474649 -35.718606125425943 0 0 0 -1 I I #
straight-curve $-1 -67.895272537326548 -35.718606125425943 7.7766888178126097 -1 0 0 I I #
coedge $-1 $153 $110 $141 $162 forward $139 $-1 #
vertex $-1 $144 $168 #
straight-curve $-1 0 -38.718606125425943 7.7766888178126097 1 0 0 I I #
point $-1 -63.767815179906613 -38.718606125425943 7.7766888178126097 #
coedge $-1 $114 $149 $116 $155 reversed $139 $-1 #
straight-curve $-1 -63.767815179906613 -38.718606125425943 0 0 0 1 I I #
edge $-1 $118 -4.1274573574199351 $163 4.1274573574199422 $153 $169 forward 7 unknown #
point $-1 -63.767815179906613 -38.718606125425943 -7.7766888178126097 #
straight-curve $-1 -67.895272537326548 -35.718606125425943 -7.7766888178126097 1 0 0 I I #
straight-curve $-1 -63.767815179906613 38.718606125425943 0 0 0 -1 I I #
point $-1 -63.767815179906613 -38.718606125425943 -7.7766888178126097 #
straight-curve $-1 -63.767815179906613 0 -7.7766888178126097 0 1 0 I I #
point $-1 -63.767815179906613 38.718606125425943 -7.7766888178126097 #
edge $-1 $150 -7.7766888178126097 $163 7.7766888178126097 $141 $170 forward 7 unknown #
vertex $-1 $143 $171 #
straight-curve $-1 -72.02272989474649 -37.218606125425943 -7.7766888178126097 0 1 0 I I #
straight-curve $-1 -72.02272989474649 -37.218606125425943 7.7766888178126097 0 -1 0 I I #
point $-1 -72.02272989474649 -35.718606125425943 7.7766888178126097 #
point $-1 -72.02272989474649 -35.718606125425943 -7.7766888178126097 #
point $-1 -72.02272989474649 -38.718606125425943 7.7766888178126097 #
straight-curve $-1 -67.895272537326548 -38.718606125425943 -7.7766888178126097 -1 0 0 I I #
straight-curve $-1 -72.02272989474649 -38.718606125425943 0 0 0 -1 I I #
point $-1 -72.02272989474649 -38.718606125425943 -7.7766888178126097 #
End-of-ACIS-data 