500 0 6 0           
7 Unknown 11 ACIS 5.0 NT 24 Thu Mar 25 16:39:06 1999 
-1 9.9999999999999995e-007 1e-010 
body $-1 $6 $-1 $7 #
body $-1 $8 $-1 $9 #
body $-1 $10 $-1 $11 #
body $-1 $12 $-1 $13 #
body $-1 $14 $-1 $15 #
body $-1 $16 $-1 $17 #
lump $-1 $-1 $18 $0 #
transform $-1 1 0 0 0 1 0 0 0 1 59.304788354136782 35.764948323265052 7.7256959967925773 1 rotate no_reflect no_shear #
lump $-1 $-1 $19 $1 #
transform $-1 1 0 0 0 1 0 0 0 1 59.304788354136782 35.764948323265052 7.7256959967925773 1 rotate no_reflect no_shear #
lump $-1 $-1 $20 $2 #
transform $-1 1 0 0 0 1 0 0 0 1 59.304788354136782 35.764948323265052 7.7256959967925773 1 rotate no_reflect no_shear #
lump $-1 $-1 $21 $3 #
transform $-1 1 0 0 0 1 0 0 0 1 59.304788354136782 35.764948323265052 7.7256959967925773 1 rotate no_reflect no_shear #
lump $-1 $-1 $22 $4 #
transform $-1 1 0 0 0 1 0 0 0 1 59.304788354136782 35.764948323265052 7.7256959967925773 1 rotate no_reflect no_shear #
lump $-1 $-1 $23 $5 #
transform $-1 1 0 0 0 1 0 0 0 1 59.304788354136782 35.764948323265052 7.7256959967925773 1 rotate no_reflect no_shear #
shell $-1 $-1 $-1 $24 $-1 $6 #
shell $-1 $-1 $-1 $25 $-1 $8 #
shell $-1 $-1 $-1 $26 $-1 $10 #
shell $-1 $-1 $-1 $27 $-1 $12 #
shell $-1 $-1 $-1 $28 $-1 $14 #
shell $-1 $-1 $-1 $29 $-1 $16 #
face $-1 $30 $31 $18 $-1 $32 forward single #
face $-1 $33 $34 $19 $-1 $35 forward single #
face $-1 $36 $37 $20 $-1 $38 forward single #
face $-1 $39 $40 $21 $-1 $41 reversed single #
face $-1 $42 $43 $22 $-1 $44 forward single #
face $-1 $45 $46 $23 $-1 $47 forward single #
face $-1 $48 $49 $18 $-1 $50 reversed single #
loop $-1 $-1 $51 $24 #
plane-surface $-1 0 0 7.7256959967925773 0 0 1 1 0 0 forward_v I I I I #
face $-1 $52 $53 $19 $-1 $54 reversed single #
loop $-1 $-1 $55 $25 #
plane-surface $-1 0 -32.727700825869427 3.0836413505437221 0 0 1 1 0 0 forward_v I I I I #
face $-1 $56 $57 $20 $-1 $58 reversed single #
loop $-1 $-1 $59 $26 #
plane-surface $-1 0 32.727700825869427 3.0836413505437221 0 0 1 1 0 0 forward_v I I I I #
face $-1 $60 $61 $21 $-1 $62 reversed single #
loop $-1 $-1 $63 $27 #
plane-surface $-1 33.064586609094626 5.0105334835456183 167.67951922495848 0 1 0 0.5877852598018023 0 0.80901698891910034 forward_v I I I I #
face $-1 $64 $65 $22 $-1 $66 forward single #
loop $-1 $67 $68 $28 #
cone-surface $-1 54.829324867821853 8.7051876423198919 4.1239449138915045 -0.5877852598018023 0 -0.80901698891910034 0.80901698891910034 0 -0.5877852598018023 1 I I 0 1 1 forward I I I I #
face $-1 $69 $70 $23 $-1 $71 forward single #
loop $-1 $72 $73 $29 #
cone-surface $-1 54.829324867821853 14.247168880481304 4.1239449138915045 -0.5877852598018023 0 -0.80901698891910034 0.80901698891910034 0 -0.5877852598018023 1 I I 0 1 1 forward I I I I #
face $-1 $74 $75 $18 $-1 $76 reversed single #
loop $-1 $-1 $77 $30 #
plane-surface $-1 0 0 -7.7256959967925773 0 0 1 1 0 0 forward_v I I I I #
coedge $-1 $78 $79 $80 $81 forward $31 $-1 #
face $-1 $82 $83 $19 $-1 $84 reversed single #
loop $-1 $-1 $85 $33 #
plane-surface $-1 0 -32.727700825869427 0.083641350543722126 0 0 1 1 0 0 forward_v I I I I #
coedge $-1 $86 $87 $88 $89 reversed $34 $-1 #
face $-1 $90 $91 $20 $-1 $92 reversed single #
loop $-1 $-1 $93 $36 #
plane-surface $-1 0 32.727700825869427 0.083641350543722126 0 0 1 1 0 0 forward_v I I I I #
coedge $-1 $94 $95 $96 $97 reversed $37 $-1 #
face $-1 $98 $99 $21 $-1 $100 reversed single #
loop $-1 $-1 $101 $39 #
plane-surface $-1 -36.652374251359753 11.476178261400598 71.722356619461948 0.5877852598018023 0 0.80901698891910034 0.80901698891910034 0 -0.5877852598018023 forward_v I I I I #
coedge $-1 $102 $103 $104 $105 reversed $40 $-1 #
face $-1 $-1 $106 $22 $-1 $107 forward single #
loop $-1 $108 $109 $42 #
cone-surface $-1 53.9966275882418 8.7051876423198919 2.9778354554233921 -0.5877852598018023 0 -0.80901698891910034 0.40450849445955017 0 -0.29389262990090115 1 I I -0.70710678118654746 0.70710678118654746 0.5 forward I I I I #
loop $-1 $-1 $110 $28 #
coedge $-1 $68 $68 $111 $112 reversed $43 $-1 #
face $-1 $-1 $113 $23 $-1 $114 forward single #
loop $-1 $115 $116 $45 #
cone-surface $-1 53.9966275882418 14.247168880481304 2.9778354554233921 -0.5877852598018023 0 -0.80901698891910034 0.40450849445955017 0 -0.29389262990090115 1 I I -0.70710678118654746 0.70710678118654746 0.5 forward I I I I #
loop $-1 $-1 $117 $29 #
coedge $-1 $73 $73 $118 $119 reversed $46 $-1 #
face $-1 $120 $121 $18 $-1 $122 reversed single #
loop $-1 $-1 $123 $48 #
plane-surface $-1 0 -35.764948323265052 0 0 1 0 0 0 1 forward_v I I I I #
coedge $-1 $124 $125 $126 $127 forward $49 $-1 #
coedge $-1 $128 $51 $129 $130 forward $31 $-1 #
coedge $-1 $51 $128 $131 $132 forward $31 $-1 #
coedge $-1 $133 $134 $51 $81 reversed $135 $-1 #
edge $-1 $136 -35.764948323265052 $137 35.764948323265052 $80 $138 forward 7 unknown #
face $-1 $139 $140 $19 $-1 $141 reversed single #
loop $-1 $-1 $142 $52 #
plane-surface $-1 0 -29.690453328473804 1.5836413505437221 0 -1 0 0 0 -1 forward_v I I I I #
coedge $-1 $143 $144 $145 $146 reversed $53 $-1 #
coedge $-1 $147 $55 $148 $149 forward $34 $-1 #
coedge $-1 $55 $147 $150 $151 reversed $34 $-1 #
coedge $-1 $152 $153 $55 $89 forward $154 $-1 #
edge $-1 $155 13.326602915539091 $156 19.401097910330339 $88 $157 forward 7 unknown #
face $-1 $158 $159 $20 $-1 $160 reversed single #
loop $-1 $-1 $161 $56 #
plane-surface $-1 0 29.690453328473801 1.5836413505437221 0 1 0 0 0 1 forward_v I I I I #
coedge $-1 $162 $163 $164 $165 reversed $57 $-1 #
coedge $-1 $166 $59 $167 $168 reversed $37 $-1 #
coedge $-1 $59 $166 $169 $170 forward $37 $-1 #
coedge $-1 $171 $172 $59 $97 forward $159 $-1 #
edge $-1 $173 -19.401097910330339 $174 -13.326602915539087 $96 $175 forward 7 unknown #
face $-1 $176 $177 $21 $-1 $178 forward single #
loop $-1 $-1 $179 $60 #
plane-surface $-1 33.064586609094626 17.941823039255578 167.67951922495848 0 -1 0 -0.5877852598018023 0 -0.80901698891910034 forward_v I I I I #
coedge $-1 $180 $181 $182 $183 reversed $61 $-1 #
coedge $-1 $103 $63 $184 $185 reversed $40 $-1 #
coedge $-1 $63 $102 $180 $186 reversed $40 $-1 #
coedge $-1 $182 $187 $63 $105 forward $188 $-1 #
edge $-1 $189 76.114063615686661 $190 81.834363853471672 $104 $191 forward 7 unknown #
loop $-1 $-1 $111 $64 #
plane-surface $-1 -36.652374251359753 11.476178261400598 71.722356619461948 0.5877852598018023 0 0.80901698891910034 0.80901698891910034 0 -0.5877852598018023 forward_v I I I I #
loop $-1 $-1 $192 $42 #
coedge $-1 $109 $109 $110 $193 reversed $65 $-1 #
coedge $-1 $110 $110 $109 $193 forward $67 $-1 #
coedge $-1 $111 $111 $68 $112 forward $106 $-1 #
edge $-1 $194 0 $194 6.2831853071796004 $111 $195 forward 7 unknown #
loop $-1 $-1 $118 $69 #
plane-surface $-1 -36.652374251359753 11.476178261400598 71.722356619461948 0.5877852598018023 0 0.80901698891910034 0.80901698891910034 0 -0.5877852598018023 forward_v I I I I #
loop $-1 $-1 $196 $45 #
coedge $-1 $116 $116 $117 $197 reversed $70 $-1 #
coedge $-1 $117 $117 $116 $197 forward $72 $-1 #
coedge $-1 $118 $118 $73 $119 forward $113 $-1 #
edge $-1 $198 0 $198 6.2831853071796004 $118 $199 forward 7 unknown #
face $-1 $200 $201 $18 $-1 $202 reversed single #
loop $-1 $-1 $203 $74 #
plane-surface $-1 -59.304788354136782 0 0 1 0 0 0 0 -1 forward_v I I I I #
coedge $-1 $204 $131 $205 $206 forward $75 $-1 #
coedge $-1 $207 $77 $204 $208 forward $49 $-1 #
coedge $-1 $77 $207 $209 $210 forward $49 $-1 #
coedge $-1 $134 $133 $77 $127 reversed $135 $-1 #
edge $-1 $211 -35.764948323265052 $212 35.764948323265052 $126 $213 forward 7 unknown #
coedge $-1 $79 $78 $214 $215 forward $31 $-1 #
coedge $-1 $216 $217 $78 $130 reversed $201 $-1 #
edge $-1 $137 -59.304788354136782 $218 59.304788354136782 $129 $219 forward 7 unknown #
coedge $-1 $123 $220 $79 $132 reversed $75 $-1 #
edge $-1 $221 -59.304788354136782 $136 59.304788354136782 $131 $222 forward 7 unknown #
coedge $-1 $126 $80 $220 $223 forward $135 $-1 #
coedge $-1 $80 $126 $216 $224 reversed $135 $-1 #
loop $-1 $-1 $133 $200 #
vertex $-1 $81 $225 #
vertex $-1 $81 $226 #
straight-curve $-1 59.304788354136782 0 7.7256959967925773 0 1 0 I I #
face $-1 $227 $228 $19 $-1 $229 reversed single #
loop $-1 $-1 $230 $82 #
plane-surface $-1 -59.304788354136782 0 0 1 0 0 0 0 -1 forward_v I I I I #
coedge $-1 $231 $148 $153 $232 reversed $83 $-1 #
coedge $-1 $233 $85 $234 $235 reversed $53 $-1 #
coedge $-1 $85 $233 $231 $236 forward $53 $-1 #
coedge $-1 $153 $152 $85 $146 forward $154 $-1 #
edge $-1 $237 -19.401097910330339 $238 -13.326602915539091 $145 $239 forward 7 unknown #
coedge $-1 $87 $86 $230 $240 reversed $34 $-1 #
coedge $-1 $142 $241 $86 $149 reversed $83 $-1 #
edge $-1 $155 -59.304788354136782 $242 59.304788354136782 $148 $243 forward 7 unknown #
coedge $-1 $244 $245 $87 $151 forward $228 $-1 #
edge $-1 $156 -59.304788354136782 $246 59.304788354136782 $150 $247 forward 7 unknown #
coedge $-1 $145 $88 $245 $248 forward $154 $-1 #
coedge $-1 $88 $145 $142 $232 forward $154 $-1 #
loop $-1 $-1 $88 $227 #
vertex $-1 $89 $249 #
vertex $-1 $248 $250 #
straight-curve $-1 59.304788354136782 -16.363850412934713 3.0836413505437221 0 -1 0 I I #
face $-1 $251 $252 $20 $-1 $253 reversed single #
loop $-1 $-1 $96 $90 #
plane-surface $-1 59.304788354136782 0 0 -1 0 0 0 0 1 forward_v I I I I #
coedge $-1 $254 $169 $255 $256 reversed $91 $-1 #
coedge $-1 $257 $93 $254 $258 forward $57 $-1 #
coedge $-1 $93 $257 $259 $260 reversed $57 $-1 #
coedge $-1 $172 $171 $93 $165 forward $159 $-1 #
edge $-1 $261 13.326602915539087 $262 19.401097910330339 $164 $263 forward 7 unknown #
coedge $-1 $95 $94 $264 $265 reversed $37 $-1 #
coedge $-1 $266 $267 $94 $168 forward $268 $-1 #
edge $-1 $269 -59.304788354136782 $173 59.304788354136782 $167 $270 forward 7 unknown #
coedge $-1 $161 $271 $95 $170 reversed $91 $-1 #
edge $-1 $272 -59.304788354136782 $174 59.304788354136782 $169 $273 forward 7 unknown #
coedge $-1 $164 $96 $271 $274 forward $159 $-1 #
coedge $-1 $96 $164 $266 $275 reversed $159 $-1 #
vertex $-1 $275 $276 #
vertex $-1 $97 $277 #
straight-curve $-1 59.304788354136782 16.363850412934713 3.0836413505437221 0 -1 0 I I #
face $-1 $-1 $188 $21 $-1 $278 reversed single #
loop $-1 $-1 $279 $98 #
plane-surface $-1 0 0 7.7256959967925773 0 0 1 1 0 0 forward_v I I I I #
coedge $-1 $280 $281 $282 $283 reversed $99 $-1 #
coedge $-1 $284 $101 $103 $186 forward $61 $-1 #
coedge $-1 $101 $284 $280 $285 forward $61 $-1 #
coedge $-1 $282 $104 $101 $183 forward $188 $-1 #
edge $-1 $190 -0.72755564715468068 $286 12.203733908555279 $182 $287 forward 7 unknown #
coedge $-1 $288 $289 $102 $185 forward $177 $-1 #
edge $-1 $290 34.899177376317908 $189 42.772495049589466 $184 $291 forward 7 unknown #
edge $-1 $190 -118.60957670827356 $290 -108.87762079002908 $103 $292 forward 7 unknown #
coedge $-1 $104 $282 $288 $293 reversed $188 $-1 #
loop $-1 $-1 $282 $176 #
vertex $-1 $293 $294 #
vertex $-1 $105 $295 #
straight-curve $-1 59.304788354136782 5.0105334835456183 83.839759612479241 0 0 -1 I I #
coedge $-1 $192 $192 $-1 $296 reversed $108 $-1 #
edge $-1 $297 0 $297 6.2831853071796004 $109 $298 forward 7 unknown #
vertex $-1 $112 $299 #
ellipse-curve $-1 55.368129517501011 8.7051876423198919 4.8655458779000744 0.5877852598018023 0 0.80901698891910034 0.80901698891910034 0 -0.5877852598018023 1 I I #
coedge $-1 $196 $196 $-1 $300 reversed $115 $-1 #
edge $-1 $301 0 $301 6.2831853071796004 $116 $302 forward 7 unknown #
vertex $-1 $119 $303 #
ellipse-curve $-1 55.368129517501011 14.247168880481304 4.8655458779000744 0.5877852598018023 0 0.80901698891910034 0.80901698891910034 0 -0.5877852598018023 1 I I #
face $-1 $-1 $135 $18 $-1 $304 reversed single #
loop $-1 $-1 $216 $120 #
plane-surface $-1 0 35.764948323265052 0 0 -1 0 0 0 -1 forward_v I I I I #
coedge $-1 $305 $214 $217 $306 forward $121 $-1 #
coedge $-1 $220 $123 $124 $208 reversed $75 $-1 #
coedge $-1 $214 $305 $123 $206 reversed $121 $-1 #
edge $-1 $221 -7.7256959967925773 $307 7.7256959967925773 $205 $308 forward 7 unknown #
coedge $-1 $125 $124 $305 $309 forward $49 $-1 #
edge $-1 $212 -59.304788354136782 $307 59.304788354136782 $204 $310 forward 7 unknown #
coedge $-1 $217 $216 $125 $210 reversed $201 $-1 #
edge $-1 $311 -59.304788354136782 $211 59.304788354136782 $209 $312 forward 7 unknown #
vertex $-1 $127 $313 #
vertex $-1 $223 $314 #
straight-curve $-1 59.304788354136782 0 -7.7256959967925773 0 -1 0 I I #
coedge $-1 $203 $205 $128 $215 reversed $121 $-1 #
edge $-1 $218 -35.764948323265052 $221 35.764948323265052 $214 $315 forward 7 unknown #
coedge $-1 $209 $129 $134 $224 forward $201 $-1 #
coedge $-1 $129 $209 $203 $306 reversed $201 $-1 #
vertex $-1 $130 $316 #
straight-curve $-1 0 35.764948323265052 7.7256959967925773 -1 0 0 I I #
coedge $-1 $131 $204 $133 $223 reversed $75 $-1 #
vertex $-1 $215 $317 #
straight-curve $-1 0 -35.764948323265052 7.7256959967925773 1 0 0 I I #
edge $-1 $136 -7.7256959967925773 $212 7.7256959967925773 $133 $318 forward 7 unknown #
edge $-1 $137 -7.7256959967925773 $211 7.7256959967925773 $134 $319 forward 7 unknown #
point $-1 59.304788354136782 -35.764948323265052 7.7256959967925773 #
point $-1 59.304788354136782 35.764948323265052 7.7256959967925773 #
face $-1 $-1 $154 $19 $-1 $320 reversed single #
loop $-1 $-1 $150 $139 #
plane-surface $-1 0 -35.764948323265052 0 0 1 0 0 0 1 forward_v I I I I #
coedge $-1 $321 $322 $147 $240 forward $140 $-1 #
coedge $-1 $241 $142 $144 $236 reversed $83 $-1 #
edge $-1 $238 -0.70817932472813894 $155 2.2918206752718611 $153 $323 forward 7 unknown #
coedge $-1 $144 $143 $324 $325 reversed $53 $-1 #
coedge $-1 $245 $244 $143 $235 forward $228 $-1 #
edge $-1 $326 -59.304788354136782 $237 59.304788354136782 $234 $327 forward 7 unknown #
edge $-1 $328 -59.304788354136782 $238 59.304788354136782 $231 $329 forward 7 unknown #
vertex $-1 $235 $330 #
vertex $-1 $146 $331 #
straight-curve $-1 59.304788354136782 -16.363850412934713 0.083641350543722126 0 1 0 I I #
edge $-1 $246 -19.401097910330339 $242 -13.326602915539091 $230 $332 forward 7 unknown #
coedge $-1 $148 $231 $321 $333 reversed $83 $-1 #
vertex $-1 $240 $334 #
straight-curve $-1 0 -29.690453328473804 3.0836413505437221 -1 0 0 I I #
coedge $-1 $234 $150 $322 $335 forward $228 $-1 #
coedge $-1 $150 $234 $152 $248 reversed $228 $-1 #
vertex $-1 $335 $336 #
straight-curve $-1 0 -35.764948323265052 3.0836413505437221 -1 0 0 I I #
edge $-1 $156 -3.0836413505437221 $237 -0.083641350543722126 $152 $337 forward 7 unknown #
point $-1 59.304788354136782 -29.690453328473804 3.0836413505437221 #
point $-1 59.304788354136782 -35.764948323265052 3.0836413505437221 #
face $-1 $-1 $268 $20 $-1 $338 reversed single #
loop $-1 $-1 $264 $158 #
plane-surface $-1 -59.304788354136782 0 0 1 0 0 0 0 -1 forward_v I I I I #
coedge $-1 $271 $161 $162 $258 reversed $91 $-1 #
coedge $-1 $264 $339 $161 $256 forward $252 $-1 #
edge $-1 $340 -0.70817932472813894 $272 2.2918206752718611 $255 $341 forward 7 unknown #
coedge $-1 $163 $162 $339 $342 reversed $57 $-1 #
edge $-1 $261 -59.304788354136782 $340 59.304788354136782 $254 $343 forward 7 unknown #
coedge $-1 $267 $266 $163 $260 forward $268 $-1 #
edge $-1 $262 -59.304788354136782 $344 59.304788354136782 $259 $345 forward 7 unknown #
vertex $-1 $165 $346 #
vertex $-1 $260 $347 #
straight-curve $-1 59.304788354136782 16.363850412934713 0.083641350543722126 0 1 0 I I #
coedge $-1 $348 $255 $166 $265 forward $252 $-1 #
edge $-1 $272 13.326602915539087 $269 19.401097910330339 $264 $349 forward 7 unknown #
coedge $-1 $259 $167 $172 $275 forward $268 $-1 #
coedge $-1 $167 $259 $348 $350 reversed $268 $-1 #
loop $-1 $-1 $167 $251 #
vertex $-1 $350 $351 #
straight-curve $-1 0 35.764948323265052 3.0836413505437221 1 0 0 I I #
coedge $-1 $169 $254 $171 $274 reversed $91 $-1 #
vertex $-1 $265 $352 #
straight-curve $-1 0 29.690453328473801 3.0836413505437221 1 0 0 I I #
edge $-1 $174 -2.2918206752718611 $261 0.70817932472813894 $171 $353 forward 7 unknown #
edge $-1 $173 -3.0836413505437221 $262 -0.083641350543722126 $172 $354 forward 7 unknown #
point $-1 59.304788354136782 35.764948323265052 3.0836413505437221 #
point $-1 59.304788354136782 29.690453328473801 3.0836413505437221 #
plane-surface $-1 59.304788354136782 0 0 -1 0 0 0 0 1 forward_v I I I I #
coedge $-1 $289 $288 $281 $355 forward $177 $-1 #
coedge $-1 $281 $179 $181 $285 reversed $99 $-1 #
coedge $-1 $179 $280 $279 $355 reversed $99 $-1 #
coedge $-1 $187 $182 $179 $283 forward $188 $-1 #
edge $-1 $286 -81.834363853471672 $356 -76.114063615686661 $282 $357 forward 7 unknown #
coedge $-1 $181 $180 $289 $358 reversed $61 $-1 #
edge $-1 $359 108.87762079002908 $286 118.60957670827356 $280 $360 forward 7 unknown #
vertex $-1 $183 $361 #
straight-curve $-1 59.304788354136782 5.738089130700299 2.0053957590075768 0 1 0 I I #
coedge $-1 $279 $184 $187 $293 forward $177 $-1 #
coedge $-1 $184 $279 $284 $358 forward $177 $-1 #
vertex $-1 $185 $362 #
straight-curve $-1 16.532293304547313 5.0105334835456183 7.7256959967925809 1 0 0 I I #
straight-curve $-1 -36.652374251359753 5.0105334835456183 71.722356619461948 -0.80901698891910034 0 0.5877852598018023 I I #
edge $-1 $189 5.0105334835456183 $356 17.941823039255578 $187 $363 forward 7 unknown #
point $-1 59.304788354136782 5.0105334835456183 7.7256959967925773 #
point $-1 59.304788354136782 5.0105334835456183 2.0053957590075697 #
edge $-1 $364 1 $364 0 $192 $-1 forward 7 unknown #
vertex $-1 $193 $365 #
ellipse-curve $-1 54.290520218142703 8.7051876423198919 3.3823439498829422 0.5877852598018023 0 0.80901698891910034 0.80901698891910034 0 -0.5877852598018023 1 I I #
point $-1 56.177146506420108 8.7051876423198919 4.2777606180982648 #
edge $-1 $366 1 $366 0 $196 $-1 forward 7 unknown #
vertex $-1 $197 $367 #
ellipse-curve $-1 54.290520218142703 14.247168880481304 3.3823439498829422 0.5877852598018023 0 0.80901698891910034 0.80901698891910034 0 -0.5877852598018023 1 I I #
point $-1 56.177146506420108 14.247168880481304 4.2777606180982648 #
plane-surface $-1 59.304788354136782 0 0 -1 0 0 0 0 1 forward_v I I I I #
coedge $-1 $205 $203 $207 $309 reversed $121 $-1 #
edge $-1 $218 -7.7256959967925773 $311 7.7256959967925773 $217 $368 forward 7 unknown #
vertex $-1 $309 $369 #
straight-curve $-1 -59.304788354136782 -35.764948323265052 0 0 0 -1 I I #
edge $-1 $307 -35.764948323265052 $311 35.764948323265052 $305 $370 forward 7 unknown #
straight-curve $-1 0 -35.764948323265052 -7.7256959967925773 -1 0 0 I I #
vertex $-1 $210 $371 #
straight-curve $-1 0 35.764948323265052 -7.7256959967925773 1 0 0 I I #
point $-1 59.304788354136782 35.764948323265052 -7.7256959967925773 #
point $-1 59.304788354136782 -35.764948323265052 -7.7256959967925773 #
straight-curve $-1 -59.304788354136782 0 7.7256959967925773 0 -1 0 I I #
point $-1 -59.304788354136782 35.764948323265052 7.7256959967925773 #
point $-1 -59.304788354136782 -35.764948323265052 7.7256959967925773 #
straight-curve $-1 59.304788354136782 -35.764948323265052 0 0 0 -1 I I #
straight-curve $-1 59.304788354136782 35.764948323265052 0 0 0 -1 I I #
plane-surface $-1 59.304788354136782 0 0 -1 0 0 0 0 1 forward_v I I I I #
coedge $-1 $324 $230 $241 $333 forward $140 $-1 #
coedge $-1 $230 $324 $244 $335 reversed $140 $-1 #
straight-curve $-1 59.304788354136782 -29.690453328473804 0.79182067527186106 0 0 1 I I #
coedge $-1 $322 $321 $233 $325 forward $140 $-1 #
edge $-1 $328 13.326602915539091 $326 19.401097910330339 $324 $372 forward 7 unknown #
vertex $-1 $235 $373 #
straight-curve $-1 0 -35.764948323265052 0.083641350543722126 1 0 0 I I #
vertex $-1 $325 $374 #
straight-curve $-1 0 -29.690453328473804 0.083641350543722126 1 0 0 I I #
point $-1 59.304788354136782 -35.764948323265052 0.083641350543722126 #
point $-1 59.304788354136782 -29.690453328473804 0.083641350543722126 #
straight-curve $-1 -59.304788354136782 -16.363850412934713 3.0836413505437221 0 1 0 I I #
edge $-1 $242 -2.2918206752718611 $328 0.70817932472813894 $321 $375 forward 7 unknown #
point $-1 -59.304788354136782 -29.690453328473804 3.0836413505437221 #
edge $-1 $246 -3.0836413505437221 $326 -0.083641350543722126 $322 $376 forward 7 unknown #
point $-1 -59.304788354136782 -35.764948323265052 3.0836413505437221 #
straight-curve $-1 59.304788354136782 -35.764948323265052 0 0 0 -1 I I #
plane-surface $-1 0 35.764948323265052 0 0 -1 0 0 0 -1 forward_v I I I I #
coedge $-1 $255 $348 $257 $342 forward $252 $-1 #
vertex $-1 $342 $377 #
straight-curve $-1 -59.304788354136782 29.690453328473801 0.79182067527186106 0 0 1 I I #
edge $-1 $344 -19.401097910330339 $340 -13.326602915539087 $339 $378 forward 7 unknown #
straight-curve $-1 0 29.690453328473801 0.083641350543722126 -1 0 0 I I #
vertex $-1 $260 $379 #
straight-curve $-1 0 35.764948323265052 0.083641350543722126 -1 0 0 I I #
point $-1 59.304788354136782 29.690453328473801 0.083641350543722126 #
point $-1 59.304788354136782 35.764948323265052 0.083641350543722126 #
coedge $-1 $339 $264 $267 $350 forward $252 $-1 #
straight-curve $-1 -59.304788354136782 16.363850412934713 3.0836413505437221 0 1 0 I I #
edge $-1 $269 -3.0836413505437221 $344 -0.083641350543722126 $267 $380 forward 7 unknown #
point $-1 -59.304788354136782 35.764948323265052 3.0836413505437221 #
point $-1 -59.304788354136782 29.690453328473801 3.0836413505437221 #
straight-curve $-1 59.304788354136782 29.690453328473801 0.79182067527186106 0 0 -1 I I #
straight-curve $-1 59.304788354136782 35.764948323265052 0 0 0 -1 I I #
edge $-1 $356 -42.772495049589466 $359 -34.899177376317908 $279 $381 forward 7 unknown #
vertex $-1 $355 $382 #
straight-curve $-1 59.304788354136782 17.941823039255578 83.839759612479241 0 0 1 I I #
edge $-1 $359 -12.203733908555279 $290 0.72755564715468068 $289 $383 forward 7 unknown #
vertex $-1 $358 $384 #
straight-curve $-1 -36.652374251359753 17.941823039255578 71.722356619461948 0.80901698891910034 0 -0.5877852598018023 I I #
point $-1 59.304788354136782 17.941823039255578 2.0053957590075697 #
point $-1 51.431470680865225 5.0105334835456183 7.7256959967925809 #
straight-curve $-1 59.304788354136782 0 7.7256959967925773 0 1 0 I I #
vertex $-1 $296 $385 #
point $-1 55.0995372070618 8.7051876423198919 2.7945586900811401 #
vertex $-1 $300 $386 #
point $-1 55.0995372070618 14.247168880481304 2.7945586900811401 #
straight-curve $-1 -59.304788354136782 35.764948323265052 0 0 0 -1 I I #
point $-1 -59.304788354136782 -35.764948323265052 -7.7256959967925773 #
straight-curve $-1 -59.304788354136782 0 -7.7256959967925773 0 1 0 I I #
point $-1 -59.304788354136782 35.764948323265052 -7.7256959967925773 #
straight-curve $-1 -59.304788354136782 -16.363850412934713 0.083641350543722126 0 -1 0 I I #
point $-1 -59.304788354136782 -35.764948323265052 0.083641350543722126 #
point $-1 -59.304788354136782 -29.690453328473804 0.083641350543722126 #
straight-curve $-1 -59.304788354136782 -29.690453328473804 0.79182067527186106 0 0 -1 I I #
straight-curve $-1 -59.304788354136782 -35.764948323265052 0 0 0 -1 I I #
point $-1 -59.304788354136782 29.690453328473801 0.083641350543722126 #
straight-curve $-1 -59.304788354136782 16.363850412934713 0.083641350543722126 0 -1 0 I I #
point $-1 -59.304788354136782 35.764948323265052 0.083641350543722126 #
straight-curve $-1 -59.304788354136782 35.764948323265052 0 0 0 -1 I I #
straight-curve $-1 16.532293304547313 17.941823039255578 7.7256959967925809 -1 0 0 I I #
point $-1 59.304788354136782 17.941823039255578 7.7256959967925773 #
straight-curve $-1 51.431470680865232 5.738089130700299 7.7256959967925738 0 -1 0 I I #
point $-1 51.431470680865225 17.941823039255578 7.7256959967925809 #
point $-1 53.702734958340898 8.7051876423198919 2.5733269609638421 #
point $-1 53.702734958340898 14.247168880481304 2.5733269609638421 #
End-of-ACIS-data 