500 0 10 0           
7 Unknown 11 ACIS 5.0 NT 24 Fri Mar 26 17:33:04 1999 
-1 9.9999999999999995e-007 1e-010 
body $-1 $10 $-1 $11 #
body $-1 $12 $-1 $13 #
body $-1 $14 $-1 $15 #
body $-1 $16 $-1 $17 #
body $-1 $18 $-1 $19 #
body $-1 $20 $-1 $21 #
body $-1 $22 $-1 $23 #
body $-1 $24 $-1 $25 #
body $-1 $26 $-1 $27 #
body $-1 $28 $-1 $29 #
lump $-1 $-1 $30 $0 #
transform $-1 1 0 0 0 1 0 0 0 1 54.211859492782374 36.737233156873785 13.901892835128528 1 rotate no_reflect no_shear #
lump $-1 $-1 $31 $1 #
transform $-1 1 0 0 0 1 0 0 0 1 54.211859492782374 36.737233156873785 13.901892835128528 1 rotate no_reflect no_shear #
lump $-1 $-1 $32 $2 #
transform $-1 1 0 0 0 1 0 0 0 1 54.211859492782374 36.737233156873785 13.901892835128528 1 rotate no_reflect no_shear #
lump $-1 $-1 $33 $3 #
transform $-1 1 0 0 0 1 0 0 0 1 54.211859492782374 36.737233156873785 13.901892835128528 1 rotate no_reflect no_shear #
lump $-1 $-1 $34 $4 #
transform $-1 1 0 0 0 1 0 0 0 1 54.211859492782374 36.737233156873785 13.901892835128528 1 rotate no_reflect no_shear #
lump $-1 $-1 $35 $5 #
transform $-1 1 0 0 0 1 0 0 0 1 54.211859492782374 36.737233156873785 13.901892835128528 1 rotate no_reflect no_shear #
lump $-1 $-1 $36 $6 #
transform $-1 1 0 0 0 1 0 0 0 1 54.211859492782374 36.737233156873785 13.901892835128528 1 rotate no_reflect no_shear #
lump $-1 $-1 $37 $7 #
transform $-1 1 0 0 0 1 0 0 0 1 54.211859492782374 36.737233156873785 13.901892835128528 1 rotate no_reflect no_shear #
lump $-1 $-1 $38 $8 #
transform $-1 1 0 0 0 1 0 0 0 1 54.211859492782374 36.737233156873785 13.901892835128528 1 rotate no_reflect no_shear #
lump $-1 $-1 $39 $9 #
transform $-1 1 0 0 0 1 0 0 0 1 54.211859492782374 36.737233156873785 13.901892835128528 1 rotate no_reflect no_shear #
shell $-1 $-1 $-1 $40 $-1 $10 #
shell $-1 $-1 $-1 $41 $-1 $12 #
shell $-1 $-1 $-1 $42 $-1 $14 #
shell $-1 $-1 $-1 $43 $-1 $16 #
shell $-1 $-1 $-1 $44 $-1 $18 #
shell $-1 $-1 $-1 $45 $-1 $20 #
shell $-1 $-1 $-1 $46 $-1 $22 #
shell $-1 $-1 $-1 $47 $-1 $24 #
shell $-1 $-1 $-1 $48 $-1 $26 #
shell $-1 $-1 $-1 $49 $-1 $28 #
face $-1 $50 $51 $30 $-1 $52 forward single #
face $-1 $53 $54 $31 $-1 $55 forward single #
face $-1 $56 $57 $32 $-1 $58 reversed single #
face $-1 $59 $60 $33 $-1 $61 forward single #
face $-1 $62 $63 $34 $-1 $64 forward single #
face $-1 $65 $66 $35 $-1 $67 reversed single #
face $-1 $68 $69 $36 $-1 $70 forward single #
face $-1 $71 $72 $37 $-1 $73 forward single #
face $-1 $74 $75 $38 $-1 $76 reversed single #
face $-1 $77 $78 $39 $-1 $79 forward single #
face $-1 $80 $81 $30 $-1 $82 reversed single #
loop $-1 $-1 $83 $40 #
plane-surface $-1 0 0 13.901892835128528 0 0 1 1 0 0 forward_v I I I I #
face $-1 $84 $85 $31 $-1 $86 reversed single #
loop $-1 $-1 $87 $41 #
plane-surface $-1 0 -36.737233156873785 0 0 1 0 0 0 1 forward_v I I I I #
face $-1 $88 $89 $32 $-1 $90 reversed single #
loop $-1 $-1 $91 $42 #
plane-surface $-1 -148.10955534572776 -22.149293757694196 62.706930209108769 0 1 0 -0.86602541151947299 0 0.49999998660252726 forward_v I I I I #
face $-1 $92 $93 $33 $-1 $94 forward single #
loop $-1 $95 $96 $43 #
cone-surface $-1 -52.218032159240416 -20.245467919582261 10.948482508728112 0.86602541151947299 0 -0.49999998660252726 0.24999999330126363 0 0.43301270575973649 1 I I 0 1 0.5 forward I I I I #
face $-1 $97 $98 $34 $-1 $99 forward single #
loop $-1 $100 $101 $44 #
cone-surface $-1 -52.218032159240416 -17.389729162414362 10.948482508728112 0.86602541151947299 0 -0.49999998660252726 0.24999999330126363 0 0.43301270575973649 1 I I 0 1 0.5 forward I I I I #
face $-1 $102 $103 $35 $-1 $104 reversed single #
loop $-1 $-1 $105 $45 #
plane-surface $-1 -148.10955534572776 27.882164356296578 62.706930209108769 0 1 0 -0.86602541151947299 0 0.49999998660252726 forward_v I I I I #
face $-1 $106 $107 $36 $-1 $108 forward single #
loop $-1 $109 $110 $46 #
cone-surface $-1 -52.218032159240416 29.785990194408512 10.948482508728112 0.86602541151947299 0 -0.49999998660252726 0.24999999330126363 0 0.43301270575973649 1 I I 0 1 0.5 forward I I I I #
face $-1 $111 $112 $37 $-1 $113 forward single #
loop $-1 $114 $115 $47 #
cone-surface $-1 -52.218032159240416 32.641728951576411 10.948482508728112 0.86602541151947299 0 -0.49999998660252726 0.24999999330126363 0 0.43301270575973649 1 I I 0 1 0.5 forward I I I I #
face $-1 $116 $117 $38 $-1 $118 reversed single #
loop $-1 $-1 $119 $48 #
plane-surface $-1 48.860571508368956 14.651729729143668 162.57837949582256 0 -1 0 -0.68199836817093118 0 -0.7313536940579346 forward_v I I I I #
face $-1 $120 $121 $39 $-1 $122 forward single #
loop $-1 $123 $124 $49 #
cone-surface $-1 50.69709627859713 9.6732231653211898 10.475042867128566 -0.68199836817093118 0 -0.7313536940579346 0.7313536940579346 0 -0.68199836817093118 1 I I 0 1 1 forward I I I I #
face $-1 $125 $126 $30 $-1 $127 reversed single #
loop $-1 $-1 $128 $50 #
plane-surface $-1 0 0 -13.901892835128528 0 0 1 1 0 0 forward_v I I I I #
coedge $-1 $129 $130 $131 $132 forward $51 $-1 #
face $-1 $133 $134 $31 $-1 $135 reversed single #
loop $-1 $-1 $136 $53 #
plane-surface $-1 0 0 -13.901892835128528 0 0 1 1 0 0 forward_v I I I I #
coedge $-1 $137 $138 $139 $140 forward $54 $-1 #
face $-1 $141 $142 $32 $-1 $143 reversed single #
loop $-1 $-1 $144 $56 #
plane-surface $-1 -54.211859492782352 -18.817598540998311 8.4950721689302142 -0.86602541151947299 0 0.49999998660252726 0.49999998660252726 0 0.86602541151947299 forward_v I I I I #
coedge $-1 $145 $146 $147 $148 reversed $57 $-1 #
face $-1 $-1 $149 $33 $-1 $150 forward single #
loop $-1 $151 $152 $59 #
cone-surface $-1 -51.568513100600811 -20.245467919582261 10.573482518776217 0.86602541151947299 0 -0.49999998660252726 0.12499999665063181 0 0.21650635287986825 1 I I -0.70710678118654746 0.70710678118654746 0.25 forward I I I I #
loop $-1 $-1 $153 $43 #
coedge $-1 $96 $96 $154 $155 reversed $60 $-1 #
face $-1 $-1 $156 $34 $-1 $157 forward single #
loop $-1 $158 $159 $62 #
cone-surface $-1 -51.568513100600811 -17.389729162414362 10.573482518776217 0.86602541151947299 0 -0.49999998660252726 0.12499999665063181 0 0.21650635287986825 1 I I -0.70710678118654746 0.70710678118654746 0.25 forward I I I I #
loop $-1 $-1 $160 $44 #
coedge $-1 $101 $101 $161 $162 reversed $63 $-1 #
face $-1 $163 $164 $35 $-1 $165 reversed single #
loop $-1 $-1 $166 $65 #
plane-surface $-1 -54.211859492782352 31.213859572992462 8.4950721689302142 -0.86602541151947299 0 0.49999998660252726 0.49999998660252726 0 0.86602541151947299 forward_v I I I I #
coedge $-1 $167 $168 $169 $170 reversed $66 $-1 #
face $-1 $-1 $171 $36 $-1 $172 forward single #
loop $-1 $173 $174 $68 #
cone-surface $-1 -51.568513100600811 29.785990194408512 10.573482518776217 0.86602541151947299 0 -0.49999998660252726 0.12499999665063181 0 0.21650635287986825 1 I I -0.70710678118654746 0.70710678118654746 0.25 forward I I I I #
loop $-1 $-1 $175 $46 #
coedge $-1 $110 $110 $176 $177 reversed $69 $-1 #
face $-1 $-1 $178 $37 $-1 $179 forward single #
loop $-1 $180 $181 $71 #
cone-surface $-1 -51.568513100600811 32.641728951576411 10.573482518776217 0.86602541151947299 0 -0.49999998660252726 0.12499999665063181 0 0.21650635287986825 1 I I -0.70710678118654746 0.70710678118654746 0.25 forward I I I I #
loop $-1 $-1 $182 $47 #
coedge $-1 $115 $115 $183 $184 reversed $72 $-1 #
face $-1 $185 $186 $38 $-1 $187 reversed single #
loop $-1 $-1 $188 $74 #
plane-surface $-1 -25.084227910809808 9.6732231653211898 83.282292092230364 0.68199836817093118 0 0.7313536940579346 0.7313536940579346 0 -0.68199836817093118 forward_v I I I I #
coedge $-1 $189 $190 $191 $192 reversed $75 $-1 #
face $-1 $-1 $193 $39 $-1 $194 forward single #
loop $-1 $195 $196 $77 #
cone-surface $-1 49.288693782848163 9.6732231653211898 8.9647161331381113 -0.68199836817093118 0 -0.7313536940579346 0.3656768470289673 0 -0.34099918408546559 1 I I -0.70710678118654746 0.70710678118654746 0.5 forward I I I I #
loop $-1 $-1 $197 $49 #
coedge $-1 $124 $124 $198 $199 reversed $78 $-1 #
face $-1 $200 $201 $30 $-1 $202 reversed single #
loop $-1 $-1 $203 $80 #
plane-surface $-1 0 -36.737233156873785 0 0 1 0 0 0 1 forward_v I I I I #
coedge $-1 $204 $205 $206 $207 forward $81 $-1 #
coedge $-1 $208 $83 $209 $210 forward $51 $-1 #
coedge $-1 $83 $208 $211 $212 forward $51 $-1 #
coedge $-1 $213 $214 $83 $132 reversed $215 $-1 #
edge $-1 $216 -36.737233156873785 $217 36.737233156873785 $131 $218 forward 7 unknown #
face $-1 $219 $220 $31 $-1 $221 reversed single #
loop $-1 $-1 $222 $84 #
plane-surface $-1 -28.356256497461281 -49.133494188867942 0 0 1 0 0 0 1 forward_v I I I I #
coedge $-1 $223 $224 $138 $225 forward $85 $-1 #
coedge $-1 $226 $87 $227 $228 reversed $54 $-1 #
coedge $-1 $87 $226 $136 $225 reversed $54 $-1 #
coedge $-1 $229 $230 $87 $140 reversed $220 $-1 #
edge $-1 $231 -13.901892835128528 $232 13.901892835128528 $139 $233 forward 7 unknown #
face $-1 $234 $235 $32 $-1 $236 reversed single #
loop $-1 $-1 $237 $88 #
plane-surface $-1 -148.10955534572776 -15.485903324302427 62.706930209108769 0 -1 0 0.86602541151947299 0 -0.49999998660252726 forward_v I I I I #
coedge $-1 $238 $239 $240 $241 reversed $89 $-1 #
coedge $-1 $146 $91 $242 $243 reversed $57 $-1 #
coedge $-1 $91 $145 $238 $244 reversed $57 $-1 #
coedge $-1 $240 $245 $91 $148 forward $246 $-1 #
edge $-1 $247 19.842918180081504 $248 22.964547435645969 $147 $249 forward 7 unknown #
loop $-1 $-1 $154 $92 #
plane-surface $-1 -54.211859492782352 -18.817598540998311 8.4950721689302142 -0.86602541151947299 0 0.49999998660252726 0.49999998660252726 0 0.86602541151947299 forward_v I I I I #
loop $-1 $-1 $250 $59 #
coedge $-1 $152 $152 $153 $251 reversed $93 $-1 #
coedge $-1 $153 $153 $152 $251 forward $95 $-1 #
coedge $-1 $154 $154 $96 $155 forward $149 $-1 #
edge $-1 $252 0 $252 6.2831853071796004 $154 $253 forward 7 unknown #
loop $-1 $-1 $161 $97 #
plane-surface $-1 -54.211859492782352 -18.817598540998311 8.4950721689302142 -0.86602541151947299 0 0.49999998660252726 0.49999998660252726 0 0.86602541151947299 forward_v I I I I #
loop $-1 $-1 $254 $62 #
coedge $-1 $159 $159 $160 $255 reversed $98 $-1 #
coedge $-1 $160 $160 $159 $255 forward $100 $-1 #
coedge $-1 $161 $161 $101 $162 forward $156 $-1 #
edge $-1 $256 0 $256 6.2831853071796004 $161 $257 forward 7 unknown #
face $-1 $258 $259 $35 $-1 $260 forward single #
loop $-1 $-1 $261 $102 #
plane-surface $-1 -148.10955534572776 34.545554789688346 62.706930209108769 0 -1 0 0.86602541151947299 0 -0.49999998660252726 forward_v I I I I #
coedge $-1 $262 $263 $264 $265 reversed $103 $-1 #
coedge $-1 $168 $105 $266 $267 reversed $66 $-1 #
coedge $-1 $105 $167 $262 $268 reversed $66 $-1 #
coedge $-1 $264 $269 $105 $170 forward $259 $-1 #
edge $-1 $270 19.842918180081504 $271 22.964547435645969 $169 $272 forward 7 unknown #
loop $-1 $-1 $176 $106 #
plane-surface $-1 -54.211859492782352 31.213859572992462 8.4950721689302142 -0.86602541151947299 0 0.49999998660252726 0.49999998660252726 0 0.86602541151947299 forward_v I I I I #
loop $-1 $-1 $273 $68 #
coedge $-1 $174 $174 $175 $274 reversed $107 $-1 #
coedge $-1 $175 $175 $174 $274 forward $109 $-1 #
coedge $-1 $176 $176 $110 $177 forward $171 $-1 #
edge $-1 $275 0 $275 6.2831853071796004 $176 $276 forward 7 unknown #
loop $-1 $-1 $183 $111 #
plane-surface $-1 -54.211859492782352 31.213859572992462 8.4950721689302142 -0.86602541151947299 0 0.49999998660252726 0.49999998660252726 0 0.86602541151947299 forward_v I I I I #
loop $-1 $-1 $277 $71 #
coedge $-1 $181 $181 $182 $278 reversed $112 $-1 #
coedge $-1 $182 $182 $181 $278 forward $114 $-1 #
coedge $-1 $183 $183 $115 $184 forward $178 $-1 #
edge $-1 $279 0 $279 6.2831853071796004 $183 $280 forward 7 unknown #
face $-1 $281 $282 $38 $-1 $283 forward single #
loop $-1 $-1 $284 $116 #
plane-surface $-1 48.860571508368956 4.6947166014987118 162.57837949582256 0 1 0 0.68199836817093118 0 0.7313536940579346 forward_v I I I I #
coedge $-1 $285 $286 $287 $288 reversed $117 $-1 #
coedge $-1 $190 $119 $289 $290 reversed $75 $-1 #
coedge $-1 $119 $189 $285 $291 reversed $75 $-1 #
coedge $-1 $287 $292 $119 $192 forward $282 $-1 #
edge $-1 $293 -29.781573738597896 $294 -24.886853933554402 $191 $295 forward 7 unknown #
loop $-1 $-1 $198 $120 #
plane-surface $-1 -25.084227910809808 9.6732231653211898 83.282292092230364 0.68199836817093118 0 0.7313536940579346 0.7313536940579346 0 -0.68199836817093118 forward_v I I I I #
loop $-1 $-1 $296 $77 #
coedge $-1 $196 $196 $197 $297 reversed $121 $-1 #
coedge $-1 $197 $197 $196 $297 forward $123 $-1 #
coedge $-1 $198 $198 $124 $199 forward $193 $-1 #
edge $-1 $298 0 $298 6.2831853071796004 $198 $299 forward 7 unknown #
face $-1 $300 $301 $30 $-1 $302 reversed single #
loop $-1 $-1 $303 $125 #
plane-surface $-1 -54.211859492782374 0 0 1 0 0 0 0 -1 forward_v I I I I #
coedge $-1 $304 $211 $305 $306 forward $126 $-1 #
coedge $-1 $307 $128 $304 $308 forward $81 $-1 #
coedge $-1 $128 $307 $309 $310 forward $81 $-1 #
coedge $-1 $214 $213 $128 $207 reversed $215 $-1 #
edge $-1 $311 -36.737233156873785 $312 36.737233156873785 $206 $313 forward 7 unknown #
coedge $-1 $130 $129 $314 $315 forward $51 $-1 #
coedge $-1 $316 $317 $129 $210 reversed $301 $-1 #
edge $-1 $217 -54.211859492782374 $318 54.211859492782374 $209 $319 forward 7 unknown #
coedge $-1 $203 $320 $130 $212 reversed $126 $-1 #
edge $-1 $321 -54.211859492782374 $216 54.211859492782374 $211 $322 forward 7 unknown #
coedge $-1 $206 $131 $320 $323 forward $215 $-1 #
coedge $-1 $131 $206 $316 $324 reversed $215 $-1 #
loop $-1 $-1 $213 $300 #
vertex $-1 $132 $325 #
vertex $-1 $132 $326 #
straight-curve $-1 54.211859492782374 0 13.901892835128528 0 1 0 I I #
face $-1 $327 $328 $31 $-1 $329 reversed single #
loop $-1 $-1 $139 $133 #
plane-surface $-1 -30.304439172397245 -42.935363672870864 0 1 0 0 0 0 -1 forward_v I I I I #
coedge $-1 $330 $331 $332 $333 forward $134 $-1 #
coedge $-1 $334 $136 $335 $336 forward $85 $-1 #
coedge $-1 $136 $334 $229 $337 forward $85 $-1 #
edge $-1 $231 -30.304439172397245 $338 -26.408073822525317 $136 $339 forward 7 unknown #
coedge $-1 $138 $137 $340 $341 forward $54 $-1 #
coedge $-1 $342 $343 $137 $228 forward $344 $-1 #
edge $-1 $345 26.408073822525317 $232 30.304439172397245 $227 $346 forward 7 unknown #
coedge $-1 $332 $139 $224 $337 reversed $220 $-1 #
coedge $-1 $139 $332 $342 $347 reversed $220 $-1 #
vertex $-1 $225 $348 #
vertex $-1 $347 $349 #
straight-curve $-1 -30.304439172397245 -36.737233156873785 0 0 0 1 I I #
face $-1 $-1 $246 $32 $-1 $350 forward single #
loop $-1 $-1 $351 $141 #
plane-surface $-1 -54.211859492782374 0 0 1 0 0 0 0 -1 forward_v I I I I #
coedge $-1 $352 $353 $354 $355 reversed $142 $-1 #
coedge $-1 $356 $144 $146 $244 forward $89 $-1 #
coedge $-1 $144 $356 $352 $357 forward $89 $-1 #
coedge $-1 $354 $147 $144 $241 forward $246 $-1 #
edge $-1 $248 -12.74049448719504 $358 -6.0771040538032715 $240 $359 forward 7 unknown #
coedge $-1 $360 $361 $145 $243 forward $235 $-1 #
edge $-1 $362 -22.858392935624209 $247 -17.451572269425856 $242 $363 forward 7 unknown #
edge $-1 $248 -6.2432586784166642 $362 4.2963914170604875e-014 $146 $364 forward 7 unknown #
coedge $-1 $147 $354 $360 $365 forward $246 $-1 #
loop $-1 $-1 $354 $234 #
vertex $-1 $243 $366 #
vertex $-1 $148 $367 #
straight-curve $-1 -74.054777672863878 -22.149293757694196 13.901892835128528 1 0 0 I I #
coedge $-1 $250 $250 $-1 $368 reversed $151 $-1 #
edge $-1 $369 0 $369 6.2831853071796004 $152 $370 forward 7 unknown #
vertex $-1 $155 $371 #
ellipse-curve $-1 -52.651044865000131 -20.245467919582261 11.198482502029366 -0.86602541151947299 0 0.49999998660252726 0.24999999330126363 0 0.43301270575973649 1 I I #
coedge $-1 $254 $254 $-1 $372 reversed $158 $-1 #
edge $-1 $373 0 $373 6.2831853071796004 $159 $374 forward 7 unknown #
vertex $-1 $162 $375 #
ellipse-curve $-1 -52.651044865000131 -17.389729162414362 11.198482502029366 -0.86602541151947299 0 0.49999998660252726 0.24999999330126363 0 0.43301270575973649 1 I I #
face $-1 $-1 $376 $35 $-1 $377 reversed single #
loop $-1 $-1 $169 $163 #
plane-surface $-1 0 0 13.901892835128528 0 0 1 1 0 0 forward_v I I I I #
coedge $-1 $378 $379 $380 $381 reversed $164 $-1 #
coedge $-1 $382 $166 $168 $268 forward $103 $-1 #
coedge $-1 $166 $382 $378 $383 forward $103 $-1 #
coedge $-1 $380 $169 $166 $265 forward $259 $-1 #
edge $-1 $271 12.275234569800347 $384 18.938625003192115 $264 $385 forward 7 unknown #
coedge $-1 $386 $387 $167 $267 forward $376 $-1 #
edge $-1 $388 -22.858392935624209 $270 -17.451572269425856 $266 $389 forward 7 unknown #
edge $-1 $271 -6.2432586784166642 $388 4.2963914170604875e-014 $168 $390 forward 7 unknown #
coedge $-1 $169 $380 $386 $391 forward $259 $-1 #
vertex $-1 $170 $392 #
vertex $-1 $170 $393 #
straight-curve $-1 -74.054777672863878 27.882164356296578 13.901892835128528 1 0 0 I I #
coedge $-1 $273 $273 $-1 $394 reversed $173 $-1 #
edge $-1 $395 0 $395 6.2831853071796004 $174 $396 forward 7 unknown #
vertex $-1 $177 $397 #
ellipse-curve $-1 -52.651044865000131 29.785990194408512 11.198482502029366 -0.86602541151947299 0 0.49999998660252726 0.24999999330126363 0 0.43301270575973649 1 I I #
coedge $-1 $277 $277 $-1 $398 reversed $180 $-1 #
edge $-1 $399 0 $399 6.2831853071796004 $181 $400 forward 7 unknown #
vertex $-1 $184 $401 #
ellipse-curve $-1 -52.651044865000131 32.641728951576411 11.198482502029366 -0.86602541151947299 0 0.49999998660252726 0.24999999330126363 0 0.43301270575973649 1 I I #
face $-1 $-1 $402 $38 $-1 $403 reversed single #
loop $-1 $-1 $191 $185 #
plane-surface $-1 0 0 13.901892835128528 0 0 1 1 0 0 forward_v I I I I #
coedge $-1 $404 $405 $406 $407 reversed $186 $-1 #
coedge $-1 $408 $188 $190 $291 forward $117 $-1 #
coedge $-1 $188 $408 $404 $409 forward $117 $-1 #
coedge $-1 $406 $191 $188 $288 forward $282 $-1 #
edge $-1 $294 -9.8151181464830728 $410 0.14189498116188304 $287 $411 forward 7 unknown #
coedge $-1 $412 $413 $189 $290 forward $402 $-1 #
edge $-1 $414 -71.95169707485968 $293 -67.387296912782745 $289 $415 forward 7 unknown #
edge $-1 $294 101.73103411255204 $414 108.42371898556473 $190 $416 forward 7 unknown #
coedge $-1 $191 $406 $412 $417 forward $282 $-1 #
vertex $-1 $192 $418 #
vertex $-1 $192 $419 #
straight-curve $-1 24.430285754184478 14.651729729143668 13.901892835128535 -1 0 0 I I #
coedge $-1 $296 $296 $-1 $420 reversed $195 $-1 #
edge $-1 $421 0 $421 6.2831853071796004 $196 $422 forward 7 unknown #
vertex $-1 $199 $423 #
ellipse-curve $-1 51.764499590260634 9.6732231653211898 11.61969275409006 0.68199836817093118 0 0.7313536940579346 0.7313536940579346 0 -0.68199836817093118 1 I I #
face $-1 $-1 $215 $30 $-1 $424 reversed single #
loop $-1 $-1 $316 $200 #
plane-surface $-1 0 36.737233156873785 0 0 -1 0 0 0 -1 forward_v I I I I #
coedge $-1 $425 $314 $317 $426 forward $201 $-1 #
coedge $-1 $320 $203 $204 $308 reversed $126 $-1 #
coedge $-1 $314 $425 $203 $306 reversed $201 $-1 #
edge $-1 $321 -13.901892835128528 $427 13.901892835128528 $305 $428 forward 7 unknown #
coedge $-1 $205 $204 $425 $429 forward $81 $-1 #
edge $-1 $312 -54.211859492782374 $427 54.211859492782374 $304 $430 forward 7 unknown #
coedge $-1 $317 $316 $205 $310 reversed $301 $-1 #
edge $-1 $431 -54.211859492782374 $311 54.211859492782374 $309 $432 forward 7 unknown #
vertex $-1 $207 $433 #
vertex $-1 $323 $434 #
straight-curve $-1 54.211859492782374 0 -13.901892835128528 0 -1 0 I I #
coedge $-1 $303 $305 $208 $315 reversed $201 $-1 #
edge $-1 $318 -36.737233156873785 $321 36.737233156873785 $314 $435 forward 7 unknown #
coedge $-1 $309 $209 $214 $324 forward $301 $-1 #
coedge $-1 $209 $309 $303 $426 reversed $301 $-1 #
vertex $-1 $210 $436 #
straight-curve $-1 0 36.737233156873785 13.901892835128528 -1 0 0 I I #
coedge $-1 $211 $304 $213 $323 reversed $126 $-1 #
vertex $-1 $315 $437 #
straight-curve $-1 0 -36.737233156873785 13.901892835128528 1 0 0 I I #
edge $-1 $216 -13.901892835128528 $312 13.901892835128528 $213 $438 forward 7 unknown #
edge $-1 $217 -13.901892835128528 $311 13.901892835128528 $214 $439 forward 7 unknown #
point $-1 54.211859492782374 -36.737233156873785 13.901892835128528 #
point $-1 54.211859492782374 36.737233156873785 13.901892835128528 #
face $-1 $-1 $344 $31 $-1 $440 forward single #
loop $-1 $-1 $441 $219 #
plane-surface $-1 -26.408073822525317 -42.935363672870864 0 -1 0 0 0 0 1 forward_v I I I I #
coedge $-1 $442 $222 $334 $443 reversed $134 $-1 #
coedge $-1 $222 $442 $444 $445 reversed $134 $-1 #
coedge $-1 $230 $229 $222 $333 reversed $220 $-1 #
edge $-1 $446 -13.901892835128528 $447 13.901892835128528 $332 $448 forward 7 unknown #
coedge $-1 $224 $223 $330 $443 forward $85 $-1 #
coedge $-1 $340 $441 $223 $336 reversed $328 $-1 #
edge $-1 $338 -6.1981305159970788 $449 6.1981305159970788 $335 $450 forward 7 unknown #
edge $-1 $447 -6.1981305159970788 $231 6.1981305159970788 $229 $451 forward 7 unknown #
vertex $-1 $336 $452 #
straight-curve $-1 0 -36.737233156873785 -13.901892835128528 1 0 0 I I #
coedge $-1 $453 $335 $226 $341 reversed $328 $-1 #
edge $-1 $345 -13.901892835128528 $338 13.901892835128528 $340 $454 forward 7 unknown #
coedge $-1 $444 $227 $230 $347 forward $344 $-1 #
coedge $-1 $227 $444 $453 $455 forward $344 $-1 #
loop $-1 $-1 $227 $327 #
vertex $-1 $228 $456 #
straight-curve $-1 0 -36.737233156873785 13.901892835128528 -1 0 0 I I #
edge $-1 $232 -6.1981305159970788 $446 6.1981305159970788 $230 $457 forward 7 unknown #
point $-1 -30.304439172397245 -36.737233156873785 -13.901892835128528 #
point $-1 -30.304439172397245 -36.737233156873785 13.901892835128528 #
plane-surface $-1 0 0 13.901892835128528 0 0 1 1 0 0 forward_v I I I I #
coedge $-1 $361 $360 $353 $458 forward $235 $-1 #
coedge $-1 $353 $237 $239 $357 reversed $142 $-1 #
coedge $-1 $237 $352 $351 $458 reversed $142 $-1 #
coedge $-1 $245 $240 $237 $355 forward $246 $-1 #
edge $-1 $358 -22.964547435645969 $459 -19.842918180081504 $354 $460 forward 7 unknown #
coedge $-1 $239 $238 $361 $461 reversed $89 $-1 #
edge $-1 $462 -4.2963914170604875e-014 $358 6.2432586784166642 $352 $463 forward 7 unknown #
vertex $-1 $241 $464 #
straight-curve $-1 -51.090230237217909 -9.4087992704991557 13.901892835128528 0 1 0 I I #
coedge $-1 $351 $242 $245 $365 reversed $235 $-1 #
coedge $-1 $242 $351 $356 $461 forward $235 $-1 #
vertex $-1 $243 $465 #
straight-curve $-1 -54.211859492782374 -22.149293757694196 31.353465104554385 0 0 1 I I #
straight-curve $-1 -54.211859492782352 -22.149293757694196 8.4950721689302142 -0.49999998660252726 0 -0.86602541151947299 I I #
edge $-1 $459 15.485903324302427 $247 22.149293757694196 $360 $466 forward 7 unknown #
point $-1 -54.211859492782374 -22.149293757694196 13.901892835128528 #
point $-1 -51.090230237217909 -22.149293757694196 13.901892835128528 #
edge $-1 $467 1 $467 0 $250 $-1 forward 7 unknown #
vertex $-1 $251 $468 #
ellipse-curve $-1 -51.785019453480679 -20.245467919582261 10.698482515426848 -0.86602541151947299 0 0.49999998660252726 0.24999999330126363 0 0.43301270575973649 1 I I #
point $-1 -52.401044871698886 -20.245467919582261 11.631495207789113 #
edge $-1 $469 1 $469 0 $254 $-1 forward 7 unknown #
vertex $-1 $255 $470 #
ellipse-curve $-1 -51.785019453480679 -17.389729162414362 10.698482515426848 -0.86602541151947299 0 0.49999998660252726 0.24999999330126363 0 0.43301270575973649 1 I I #
point $-1 -52.401044871698886 -17.389729162414362 11.631495207789113 #
loop $-1 $-1 $266 $258 #
plane-surface $-1 -54.211859492782374 0 0 1 0 0 0 0 -1 forward_v I I I I #
coedge $-1 $379 $261 $263 $383 reversed $164 $-1 #
coedge $-1 $261 $378 $471 $472 reversed $164 $-1 #
coedge $-1 $269 $264 $261 $381 forward $259 $-1 #
edge $-1 $384 -22.964547435645969 $473 -19.842918180081504 $380 $474 forward 7 unknown #
coedge $-1 $263 $262 $387 $475 reversed $103 $-1 #
edge $-1 $476 -4.2963914170604875e-014 $384 6.2432586784166642 $378 $477 forward 7 unknown #
vertex $-1 $265 $478 #
straight-curve $-1 -51.090230237217909 15.606929786496231 13.901892835128528 0 1 0 I I #
coedge $-1 $471 $266 $269 $391 reversed $376 $-1 #
coedge $-1 $266 $471 $382 $475 forward $376 $-1 #
vertex $-1 $267 $479 #
straight-curve $-1 -54.211859492782374 27.882164356296578 31.353465104554385 0 0 1 I I #
straight-curve $-1 -54.211859492782352 27.882164356296578 8.4950721689302142 -0.49999998660252726 0 -0.86602541151947299 I I #
edge $-1 $473 -34.545554789688346 $270 -27.882164356296578 $386 $480 forward 7 unknown #
point $-1 -54.211859492782374 27.882164356296578 13.901892835128528 #
point $-1 -51.090230237217909 27.882164356296578 13.901892835128528 #
edge $-1 $481 1 $481 0 $273 $-1 forward 7 unknown #
vertex $-1 $274 $482 #
ellipse-curve $-1 -51.785019453480679 29.785990194408512 10.698482515426848 -0.86602541151947299 0 0.49999998660252726 0.24999999330126363 0 0.43301270575973649 1 I I #
point $-1 -52.401044871698886 29.785990194408512 11.631495207789113 #
edge $-1 $483 1 $483 0 $277 $-1 forward 7 unknown #
vertex $-1 $278 $484 #
ellipse-curve $-1 -51.785019453480679 32.641728951576411 10.698482515426848 -0.86602541151947299 0 0.49999998660252726 0.24999999330126363 0 0.43301270575973649 1 I I #
point $-1 -52.401044871698886 32.641728951576411 11.631495207789113 #
loop $-1 $-1 $289 $281 #
plane-surface $-1 54.211859492782374 0 0 -1 0 0 0 0 1 forward_v I I I I #
coedge $-1 $405 $284 $286 $409 reversed $186 $-1 #
coedge $-1 $284 $404 $485 $486 reversed $186 $-1 #
coedge $-1 $292 $287 $284 $407 forward $282 $-1 #
edge $-1 $410 24.886853933554402 $487 29.781573738597896 $406 $488 forward 7 unknown #
coedge $-1 $286 $285 $413 $489 reversed $117 $-1 #
edge $-1 $490 -108.42371898556473 $410 -101.73103411255204 $404 $491 forward 7 unknown #
vertex $-1 $288 $492 #
straight-curve $-1 49.31713968773888 4.8366115826605949 13.901892835128535 0 -1 0 I I #
coedge $-1 $485 $289 $292 $417 reversed $402 $-1 #
coedge $-1 $289 $485 $408 $489 forward $402 $-1 #
vertex $-1 $290 $493 #
straight-curve $-1 54.211859492782374 14.651729729143668 81.28918974791128 0 0 1 I I #
straight-curve $-1 -25.084227910809808 14.651729729143668 83.282292092230364 0.7313536940579346 0 -0.68199836817093118 I I #
edge $-1 $487 4.6947166014987118 $293 14.651729729143668 $412 $494 forward 7 unknown #
point $-1 54.211859492782374 14.651729729143668 13.901892835128528 #
point $-1 49.31713968773888 14.651729729143668 13.901892835128535 #
edge $-1 $495 1 $495 0 $296 $-1 forward 7 unknown #
vertex $-1 $297 $496 #
ellipse-curve $-1 49.629692966933632 9.6732231653211898 9.330392980167078 0.68199836817093118 0 0.7313536940579346 0.7313536940579346 0 -0.68199836817093118 1 I I #
point $-1 52.495853284318571 9.6732231653211898 10.937694385919125 #
plane-surface $-1 54.211859492782374 0 0 -1 0 0 0 0 1 forward_v I I I I #
coedge $-1 $305 $303 $307 $429 reversed $201 $-1 #
edge $-1 $318 -13.901892835128528 $431 13.901892835128528 $317 $497 forward 7 unknown #
vertex $-1 $429 $498 #
straight-curve $-1 -54.211859492782374 -36.737233156873785 0 0 0 -1 I I #
edge $-1 $427 -36.737233156873785 $431 36.737233156873785 $425 $499 forward 7 unknown #
straight-curve $-1 0 -36.737233156873785 -13.901892835128528 -1 0 0 I I #
vertex $-1 $310 $500 #
straight-curve $-1 0 36.737233156873785 -13.901892835128528 1 0 0 I I #
point $-1 54.211859492782374 36.737233156873785 -13.901892835128528 #
point $-1 54.211859492782374 -36.737233156873785 -13.901892835128528 #
straight-curve $-1 -54.211859492782374 0 13.901892835128528 0 -1 0 I I #
point $-1 -54.211859492782374 36.737233156873785 13.901892835128528 #
point $-1 -54.211859492782374 -36.737233156873785 13.901892835128528 #
straight-curve $-1 54.211859492782374 -36.737233156873785 0 0 0 -1 I I #
straight-curve $-1 54.211859492782374 36.737233156873785 0 0 0 -1 I I #
plane-surface $-1 0 0 13.901892835128528 0 0 1 1 0 0 forward_v I I I I #
coedge $-1 $335 $453 $442 $501 forward $328 $-1 #
coedge $-1 $331 $330 $441 $501 reversed $134 $-1 #
edge $-1 $449 -1.9481826749359641 $447 1.9481826749359641 $330 $502 forward 7 unknown #
coedge $-1 $343 $342 $331 $445 forward $344 $-1 #
edge $-1 $446 -1.9481826749359641 $503 1.9481826749359641 $331 $504 forward 7 unknown #
vertex $-1 $347 $505 #
vertex $-1 $337 $506 #
straight-curve $-1 -30.304439172397245 -49.133494188867942 0 0 0 -1 I I #
vertex $-1 $501 $507 #
straight-curve $-1 -26.408073822525317 -42.935363672870864 -13.901892835128528 0 -1 0 I I #
straight-curve $-1 -30.304439172397245 -42.935363672870864 -13.901892835128528 0 1 0 I I #
point $-1 -26.408073822525317 -36.737233156873785 -13.901892835128528 #
coedge $-1 $441 $340 $343 $455 reversed $328 $-1 #
straight-curve $-1 -26.408073822525317 -36.737233156873785 0 0 0 -1 I I #
edge $-1 $503 -6.1981305159970788 $345 6.1981305159970788 $453 $508 forward 7 unknown #
point $-1 -26.408073822525317 -36.737233156873785 13.901892835128528 #
straight-curve $-1 -30.304439172397245 -42.935363672870864 13.901892835128528 0 -1 0 I I #
edge $-1 $459 17.451572269425856 $462 22.858392935624209 $351 $509 forward 7 unknown #
vertex $-1 $365 $510 #
straight-curve $-1 -74.054777672863878 -15.485903324302427 13.901892835128528 -1 0 0 I I #
edge $-1 $462 6.0771040538032715 $362 12.74049448719504 $361 $511 forward 7 unknown #
vertex $-1 $461 $512 #
straight-curve $-1 -54.211859492782352 -15.485903324302427 8.4950721689302142 0.49999998660252726 0 0.86602541151947299 I I #
point $-1 -51.090230237217909 -15.485903324302427 13.901892835128528 #
point $-1 -54.211859492782374 -22.149293757694196 8.4950721689301769 #
straight-curve $-1 -54.211859492782374 0 13.901892835128528 0 -1 0 I I #
vertex $-1 $368 $513 #
point $-1 -51.535019460179413 -20.245467919582261 11.131495221186585 #
vertex $-1 $372 $514 #
point $-1 -51.535019460179413 -17.389729162414362 11.131495221186585 #
coedge $-1 $387 $386 $379 $472 forward $376 $-1 #
edge $-1 $473 17.451572269425856 $476 22.858392935624209 $471 $515 forward 7 unknown #
vertex $-1 $391 $516 #
straight-curve $-1 -74.054777672863878 34.545554789688346 13.901892835128528 -1 0 0 I I #
edge $-1 $476 -18.938625003192115 $388 -12.275234569800347 $387 $517 forward 7 unknown #
vertex $-1 $475 $518 #
straight-curve $-1 -54.211859492782352 34.545554789688346 8.4950721689302142 0.49999998660252726 0 0.86602541151947299 I I #
point $-1 -51.090230237217909 34.545554789688346 13.901892835128528 #
point $-1 -54.211859492782374 27.882164356296578 8.4950721689301769 #
straight-curve $-1 -54.211859492782374 0 13.901892835128528 0 -1 0 I I #
vertex $-1 $394 $519 #
point $-1 -51.535019460179413 29.785990194408512 11.131495221186585 #
vertex $-1 $398 $520 #
point $-1 -51.535019460179413 32.641728951576411 11.131495221186585 #
coedge $-1 $413 $412 $405 $486 forward $402 $-1 #
edge $-1 $487 67.387296912782745 $490 71.95169707485968 $485 $521 forward 7 unknown #
vertex $-1 $417 $522 #
straight-curve $-1 24.430285754184478 4.6947166014987118 13.901892835128535 1 0 0 I I #
edge $-1 $490 -0.14189498116188304 $414 9.8151181464830728 $413 $523 forward 7 unknown #
vertex $-1 $489 $524 #
straight-curve $-1 -25.084227910809808 4.6947166014987118 83.282292092230364 -0.7313536940579346 0 0.68199836817093118 I I #
point $-1 49.31713968773888 4.6947166014987118 13.901892835128535 #
point $-1 54.211859492782374 14.651729729143668 9.3374926730515995 #
straight-curve $-1 54.211859492782374 0 13.901892835128528 0 1 0 I I #
vertex $-1 $420 $525 #
point $-1 50.361046660991562 9.6732231653211898 8.6483946119961477 #
straight-curve $-1 -54.211859492782374 36.737233156873785 0 0 0 -1 I I #
point $-1 -54.211859492782374 -36.737233156873785 -13.901892835128528 #
straight-curve $-1 -54.211859492782374 0 -13.901892835128528 0 1 0 I I #
point $-1 -54.211859492782374 36.737233156873785 -13.901892835128528 #
edge $-1 $503 -13.901892835128528 $449 13.901892835128528 $441 $526 forward 7 unknown #
straight-curve $-1 -28.356256497461281 -49.133494188867942 -13.901892835128528 -1 0 0 I I #
vertex $-1 $455 $527 #
straight-curve $-1 -28.356256497461281 -49.133494188867942 13.901892835128528 1 0 0 I I #
point $-1 -30.304439172397245 -49.133494188867942 13.901892835128528 #
point $-1 -30.304439172397245 -49.133494188867942 -13.901892835128528 #
point $-1 -26.408073822525317 -49.133494188867942 -13.901892835128528 #
straight-curve $-1 -26.408073822525317 -42.935363672870864 13.901892835128528 0 1 0 I I #
straight-curve $-1 -54.211859492782374 -15.485903324302427 31.353465104554385 0 0 -1 I I #
point $-1 -54.211859492782374 -15.485903324302427 13.901892835128528 #
straight-curve $-1 -54.211859492782374 -9.4087992704991557 8.4950721689301858 0 -1 0 I I #
point $-1 -54.211859492782374 -15.485903324302427 8.4950721689301769 #
point $-1 -51.352006747720942 -20.245467919582261 10.448482522125586 #
point $-1 -51.352006747720942 -17.389729162414362 10.448482522125586 #
straight-curve $-1 -54.211859492782374 34.545554789688346 31.353465104554385 0 0 -1 I I #
point $-1 -54.211859492782374 34.545554789688346 13.901892835128528 #
straight-curve $-1 -54.211859492782374 15.606929786496231 8.4950721689301858 0 -1 0 I I #
point $-1 -54.211859492782374 34.545554789688346 8.4950721689301769 #
point $-1 -51.352006747720942 29.785990194408512 10.448482522125586 #
point $-1 -51.352006747720942 32.641728951576411 10.448482522125586 #
straight-curve $-1 54.211859492782374 4.6947166014987118 81.28918974791128 0 0 -1 I I #
point $-1 54.211859492782374 4.6947166014987118 13.901892835128528 #
straight-curve $-1 54.211859492782366 4.8366115826605949 9.3374926730516208 0 1 0 I I #
point $-1 54.211859492782374 4.6947166014987118 9.3374926730515995 #
point $-1 48.947694598762695 9.6732231653211898 8.5990392861091447 #
straight-curve $-1 -26.408073822525317 -49.133494188867942 0 0 0 -1 I I #
point $-1 -26.408073822525317 -49.133494188867942 13.901892835128528 #
End-of-ACIS-data 