500 0 7 0           
7 Unknown 11 ACIS 5.0 NT 24 Fri Mar 26 03:00:37 1999 
-1 9.9999999999999995e-007 1e-010 
body $-1 $7 $-1 $8 #
body $-1 $9 $-1 $10 #
body $-1 $11 $-1 $12 #
body $-1 $13 $-1 $14 #
body $-1 $15 $-1 $16 #
body $-1 $17 $-1 $18 #
body $-1 $19 $-1 $20 #
lump $-1 $-1 $21 $0 #
transform $-1 1 0 0 0 1 0 0 0 1 71.888180181279949 31.120098557005576 7.7728541096299644 1 rotate no_reflect no_shear #
lump $-1 $-1 $22 $1 #
transform $-1 1 0 0 0 1 0 0 0 1 71.888180181279949 31.120098557005576 7.7728541096299644 1 rotate no_reflect no_shear #
lump $-1 $-1 $23 $2 #
transform $-1 1 0 0 0 1 0 0 0 1 71.888180181279949 31.120098557005576 7.7728541096299644 1 rotate no_reflect no_shear #
lump $-1 $-1 $24 $3 #
transform $-1 1 0 0 0 1 0 0 0 1 71.888180181279949 31.120098557005576 7.7728541096299644 1 rotate no_reflect no_shear #
lump $-1 $-1 $25 $4 #
transform $-1 1 0 0 0 1 0 0 0 1 71.888180181279949 31.120098557005576 7.7728541096299644 1 rotate no_reflect no_shear #
lump $-1 $-1 $26 $5 #
transform $-1 1 0 0 0 1 0 0 0 1 71.888180181279949 31.120098557005576 7.7728541096299644 1 rotate no_reflect no_shear #
lump $-1 $-1 $27 $6 #
transform $-1 1 0 0 0 1 0 0 0 1 71.888180181279949 31.120098557005576 7.7728541096299644 1 rotate no_reflect no_shear #
shell $-1 $-1 $-1 $28 $-1 $7 #
shell $-1 $-1 $-1 $29 $-1 $9 #
shell $-1 $-1 $-1 $30 $-1 $11 #
shell $-1 $-1 $-1 $31 $-1 $13 #
shell $-1 $-1 $-1 $32 $-1 $15 #
shell $-1 $-1 $-1 $33 $-1 $17 #
shell $-1 $-1 $-1 $34 $-1 $19 #
face $-1 $35 $36 $21 $-1 $37 forward single #
face $-1 $38 $39 $22 $-1 $40 reversed single #
face $-1 $41 $42 $23 $-1 $43 forward single #
face $-1 $44 $45 $24 $-1 $46 reversed single #
face $-1 $47 $48 $25 $-1 $49 forward single #
face $-1 $50 $51 $26 $-1 $52 forward single #
face $-1 $53 $54 $27 $-1 $55 forward single #
face $-1 $56 $57 $21 $-1 $58 reversed single #
loop $-1 $-1 $59 $28 #
plane-surface $-1 0 0 7.7728541096299644 0 0 1 1 0 0 forward_v I I I I #
face $-1 $60 $61 $22 $-1 $62 reversed single #
loop $-1 $-1 $63 $29 #
plane-surface $-1 -65.336783552361936 -27.671026497213781 0 1 0 0 0 0 -1 forward_v I I I I #
face $-1 $64 $65 $23 $-1 $66 forward single #
loop $-1 $-1 $67 $30 #
plane-surface $-1 0 31.120098557005576 0 0 -1 0 0 0 -1 forward_v I I I I #
face $-1 $68 $69 $24 $-1 $70 reversed single #
loop $-1 $-1 $71 $31 #
plane-surface $-1 29.613398236962738 -13.948440670342803 202.13005766557541 0 -1 0 -0.54463904215088732 0 -0.83867056331134215 forward_v I I I I #
face $-1 $72 $73 $25 $-1 $74 forward single #
loop $-1 $75 $76 $32 #
cone-surface $-1 67.926055862525203 -22.16725168400615 4.7774611030663579 -0.54463904215088732 0 -0.83867056331134215 0.41933528165567108 0 -0.27231952107544366 1 I I 0 1 0.5 forward I I I I #
face $-1 $77 $78 $26 $-1 $79 forward single #
loop $-1 $80 $81 $33 #
cone-surface $-1 67.926055862525203 -19.085197553882395 4.7774611030663579 -0.54463904215088732 0 -0.83867056331134215 0.41933528165567108 0 -0.27231952107544366 1 I I 0 1 0.5 forward I I I I #
face $-1 $82 $83 $27 $-1 $84 forward single #
loop $-1 $85 $86 $34 #
cone-surface $-1 67.926055862525203 -16.00314342375864 4.7774611030663579 -0.54463904215088732 0 -0.83867056331134215 0.41933528165567108 0 -0.27231952107544366 1 I I 0 1 0.5 forward I I I I #
face $-1 $87 $88 $21 $-1 $89 reversed single #
loop $-1 $-1 $90 $35 #
plane-surface $-1 0 0 -7.7728541096299644 0 0 1 1 0 0 forward_v I I I I #
coedge $-1 $91 $92 $93 $94 forward $36 $-1 #
face $-1 $95 $96 $22 $-1 $97 reversed single #
loop $-1 $-1 $98 $38 #
plane-surface $-1 -63.836783552361936 -24.221954437421985 0 0 -1 0 0 0 -1 forward_v I I I I #
coedge $-1 $99 $100 $101 $102 forward $39 $-1 #
face $-1 $103 $104 $23 $-1 $105 reversed single #
loop $-1 $-1 $106 $41 #
plane-surface $-1 0 0 7.7728541096299644 0 0 1 1 0 0 forward_v I I I I #
coedge $-1 $107 $108 $109 $110 forward $42 $-1 #
face $-1 $111 $112 $24 $-1 $113 reversed single #
loop $-1 $-1 $114 $44 #
plane-surface $-1 -48.692820954842688 -19.085197553882395 81.54905652945277 0.54463904215088732 0 0.83867056331134215 0.83867056331134215 0 -0.54463904215088732 forward_v I I I I #
coedge $-1 $115 $116 $117 $118 reversed $45 $-1 #
face $-1 $-1 $119 $25 $-1 $120 forward single #
loop $-1 $121 $122 $47 #
cone-surface $-1 67.315578774597782 -22.16725168400615 3.8374088416661998 -0.54463904215088732 0 -0.83867056331134215 0.20966764082783554 0 -0.13615976053772183 1 I I -0.70710678118654746 0.70710678118654746 0.25 forward I I I I #
loop $-1 $-1 $123 $32 #
coedge $-1 $76 $76 $124 $125 reversed $48 $-1 #
face $-1 $-1 $126 $26 $-1 $127 forward single #
loop $-1 $128 $129 $50 #
cone-surface $-1 67.315578774597782 -19.085197553882395 3.8374088416661998 -0.54463904215088732 0 -0.83867056331134215 0.20966764082783554 0 -0.13615976053772183 1 I I -0.70710678118654746 0.70710678118654746 0.25 forward I I I I #
loop $-1 $-1 $130 $33 #
coedge $-1 $81 $81 $131 $132 reversed $51 $-1 #
face $-1 $-1 $133 $27 $-1 $134 forward single #
loop $-1 $135 $136 $53 #
cone-surface $-1 67.315578774597782 -16.00314342375864 3.8374088416661998 -0.54463904215088732 0 -0.83867056331134215 0.20966764082783554 0 -0.13615976053772183 1 I I -0.70710678118654746 0.70710678118654746 0.25 forward I I I I #
loop $-1 $-1 $137 $34 #
coedge $-1 $86 $86 $138 $139 reversed $54 $-1 #
face $-1 $140 $141 $21 $-1 $142 reversed single #
loop $-1 $-1 $143 $56 #
plane-surface $-1 0 -31.120098557005576 0 0 1 0 0 0 1 forward_v I I I I #
coedge $-1 $144 $145 $146 $147 forward $57 $-1 #
coedge $-1 $148 $59 $149 $150 forward $36 $-1 #
coedge $-1 $59 $148 $151 $152 forward $36 $-1 #
coedge $-1 $153 $154 $59 $94 reversed $155 $-1 #
edge $-1 $156 -31.120098557005576 $157 31.120098557005576 $93 $158 forward 7 unknown #
face $-1 $159 $160 $22 $-1 $161 forward single #
loop $-1 $-1 $162 $60 #
plane-surface $-1 -62.336783552361936 -27.671026497213781 0 -1 0 0 0 0 1 forward_v I I I I #
coedge $-1 $163 $164 $165 $166 forward $61 $-1 #
coedge $-1 $167 $63 $168 $169 reversed $39 $-1 #
coedge $-1 $63 $167 $170 $171 reversed $39 $-1 #
coedge $-1 $164 $163 $63 $102 reversed $61 $-1 #
edge $-1 $172 -7.7728541096299644 $173 7.7728541096299644 $101 $174 forward 7 unknown #
face $-1 $175 $176 $23 $-1 $177 reversed single #
loop $-1 $-1 $178 $64 #
plane-surface $-1 -70.388180181279949 40.011909658404363 0 0 -1 0 0 0 -1 forward_v I I I I #
coedge $-1 $179 $180 $107 $181 forward $65 $-1 #
coedge $-1 $182 $67 $106 $181 reversed $42 $-1 #
coedge $-1 $67 $182 $183 $184 reversed $42 $-1 #
coedge $-1 $185 $186 $67 $110 reversed $176 $-1 #
edge $-1 $187 -7.7728541096299644 $188 7.7728541096299644 $109 $189 forward 7 unknown #
face $-1 $190 $191 $24 $-1 $192 forward single #
loop $-1 $-1 $193 $68 #
plane-surface $-1 29.613398236962738 -24.221954437421985 202.13005766557541 0 1 0 0.54463904215088732 0 0.83867056331134215 forward_v I I I I #
coedge $-1 $194 $195 $196 $197 reversed $69 $-1 #
coedge $-1 $116 $71 $198 $199 reversed $45 $-1 #
coedge $-1 $71 $115 $194 $200 reversed $45 $-1 #
coedge $-1 $196 $201 $71 $118 forward $191 $-1 #
edge $-1 $202 -57.081481062798581 $203 -50.105867080068414 $117 $204 forward 7 unknown #
loop $-1 $-1 $124 $72 #
plane-surface $-1 -48.692820954842688 -19.085197553882395 81.54905652945277 0.54463904215088732 0 0.83867056331134215 0.83867056331134215 0 -0.54463904215088732 forward_v I I I I #
loop $-1 $-1 $205 $47 #
coedge $-1 $122 $122 $123 $206 reversed $73 $-1 #
coedge $-1 $123 $123 $122 $206 forward $75 $-1 #
coedge $-1 $124 $124 $76 $125 forward $119 $-1 #
edge $-1 $207 0 $207 6.2831853071796004 $124 $208 forward 7 unknown #
loop $-1 $-1 $131 $77 #
plane-surface $-1 -48.692820954842688 -19.085197553882395 81.54905652945277 0.54463904215088732 0 0.83867056331134215 0.83867056331134215 0 -0.54463904215088732 forward_v I I I I #
loop $-1 $-1 $209 $50 #
coedge $-1 $129 $129 $130 $210 reversed $78 $-1 #
coedge $-1 $130 $130 $129 $210 forward $80 $-1 #
coedge $-1 $131 $131 $81 $132 forward $126 $-1 #
edge $-1 $211 0 $211 6.2831853071796004 $131 $212 forward 7 unknown #
loop $-1 $-1 $138 $82 #
plane-surface $-1 -48.692820954842688 -19.085197553882395 81.54905652945277 0.54463904215088732 0 0.83867056331134215 0.83867056331134215 0 -0.54463904215088732 forward_v I I I I #
loop $-1 $-1 $213 $53 #
coedge $-1 $136 $136 $137 $214 reversed $83 $-1 #
coedge $-1 $137 $137 $136 $214 forward $85 $-1 #
coedge $-1 $138 $138 $86 $139 forward $133 $-1 #
edge $-1 $215 0 $215 6.2831853071796004 $138 $216 forward 7 unknown #
face $-1 $217 $218 $21 $-1 $219 reversed single #
loop $-1 $-1 $220 $87 #
plane-surface $-1 -71.888180181279949 0 0 1 0 0 0 0 -1 forward_v I I I I #
coedge $-1 $221 $151 $222 $223 forward $88 $-1 #
coedge $-1 $224 $90 $221 $225 forward $57 $-1 #
coedge $-1 $90 $224 $226 $227 forward $57 $-1 #
coedge $-1 $154 $153 $90 $147 reversed $155 $-1 #
edge $-1 $228 -31.120098557005576 $229 31.120098557005576 $146 $230 forward 7 unknown #
coedge $-1 $92 $91 $231 $232 forward $36 $-1 #
coedge $-1 $233 $234 $91 $150 reversed $218 $-1 #
edge $-1 $157 -71.888180181279949 $235 71.888180181279949 $149 $236 forward 7 unknown #
coedge $-1 $143 $237 $92 $152 reversed $88 $-1 #
edge $-1 $238 -71.888180181279949 $156 71.888180181279949 $151 $239 forward 7 unknown #
coedge $-1 $146 $93 $237 $240 forward $155 $-1 #
coedge $-1 $93 $146 $233 $241 reversed $155 $-1 #
loop $-1 $-1 $153 $217 #
vertex $-1 $94 $242 #
vertex $-1 $94 $243 #
straight-curve $-1 71.888180181279949 0 7.7728541096299644 0 1 0 I I #
face $-1 $244 $245 $22 $-1 $246 reversed single #
loop $-1 $-1 $247 $95 #
plane-surface $-1 0 0 7.7728541096299644 0 0 1 1 0 0 forward_v I I I I #
coedge $-1 $248 $249 $250 $251 reversed $96 $-1 #
coedge $-1 $101 $98 $252 $253 reversed $61 $-1 #
coedge $-1 $98 $101 $254 $255 reversed $61 $-1 #
coedge $-1 $249 $248 $98 $166 reversed $96 $-1 #
edge $-1 $256 -7.7728541096299644 $257 7.7728541096299644 $165 $258 forward 7 unknown #
coedge $-1 $100 $99 $259 $260 reversed $39 $-1 #
coedge $-1 $252 $261 $99 $169 forward $245 $-1 #
edge $-1 $262 -17.284585308398686 $173 -10.386441188815095 $168 $263 forward 7 unknown #
coedge $-1 $264 $254 $100 $171 forward $160 $-1 #
edge $-1 $172 10.386441188815095 $265 17.284585308398686 $170 $266 forward 7 unknown #
vertex $-1 $171 $267 #
vertex $-1 $169 $268 #
straight-curve $-1 -65.336783552361936 -24.221954437421985 0 0 0 -1 I I #
face $-1 $269 $270 $23 $-1 $271 reversed single #
loop $-1 $-1 $109 $103 #
plane-surface $-1 -68.888180181279949 35.56600410770497 0 -1 0 0 0 0 1 forward_v I I I I #
coedge $-1 $272 $273 $274 $275 forward $104 $-1 #
coedge $-1 $276 $106 $186 $277 forward $65 $-1 #
coedge $-1 $106 $276 $278 $279 forward $65 $-1 #
edge $-1 $280 -71.888180181279949 $188 -68.888180181279949 $106 $281 forward 7 unknown #
coedge $-1 $108 $107 $282 $283 reversed $42 $-1 #
coedge $-1 $284 $285 $108 $184 forward $270 $-1 #
edge $-1 $187 68.888180181279949 $286 71.888180181279949 $183 $287 forward 7 unknown #
coedge $-1 $274 $109 $285 $288 reversed $176 $-1 #
coedge $-1 $109 $274 $179 $277 reversed $176 $-1 #
vertex $-1 $184 $289 #
vertex $-1 $277 $290 #
straight-curve $-1 -68.888180181279949 31.120098557005576 0 0 0 1 I I #
face $-1 $-1 $291 $24 $-1 $292 reversed single #
loop $-1 $-1 $117 $111 #
plane-surface $-1 0 0 7.7728541096299644 0 0 1 1 0 0 forward_v I I I I #
coedge $-1 $293 $294 $295 $296 reversed $112 $-1 #
coedge $-1 $297 $114 $116 $200 forward $69 $-1 #
coedge $-1 $114 $297 $293 $298 forward $69 $-1 #
coedge $-1 $295 $117 $114 $197 forward $191 $-1 #
edge $-1 $203 4.4058418934016057 $299 14.679355660480788 $196 $300 forward 7 unknown #
coedge $-1 $301 $302 $115 $199 forward $291 $-1 #
edge $-1 $303 -97.822191495140359 $202 -93.292174723157743 $198 $304 forward 7 unknown #
edge $-1 $203 135.45889425860105 $303 143.7763603625599 $116 $305 forward 7 unknown #
coedge $-1 $117 $295 $301 $306 forward $191 $-1 #
vertex $-1 $199 $307 #
vertex $-1 $118 $308 #
straight-curve $-1 14.806699118481369 -13.948440670342803 7.7728541096299608 -1 0 0 I I #
coedge $-1 $205 $205 $-1 $309 reversed $121 $-1 #
edge $-1 $310 0 $310 6.2831853071796004 $122 $311 forward 7 unknown #
vertex $-1 $125 $312 #
ellipse-curve $-1 68.400373189914887 -22.16725168400615 5.5078457236386473 0.54463904215088732 0 0.83867056331134215 0.41933528165567108 0 -0.27231952107544366 1 I I #
coedge $-1 $209 $209 $-1 $313 reversed $128 $-1 #
edge $-1 $314 0 $314 6.2831853071796004 $129 $315 forward 7 unknown #
vertex $-1 $132 $316 #
ellipse-curve $-1 68.400373189914887 -19.085197553882395 5.5078457236386473 0.54463904215088732 0 0.83867056331134215 0.41933528165567108 0 -0.27231952107544366 1 I I #
coedge $-1 $213 $213 $-1 $317 reversed $135 $-1 #
edge $-1 $318 0 $318 6.2831853071796004 $136 $319 forward 7 unknown #
vertex $-1 $139 $320 #
ellipse-curve $-1 68.400373189914887 -16.00314342375864 5.5078457236386473 0.54463904215088732 0 0.83867056331134215 0.41933528165567108 0 -0.27231952107544366 1 I I #
face $-1 $-1 $155 $21 $-1 $321 reversed single #
loop $-1 $-1 $233 $140 #
plane-surface $-1 0 31.120098557005576 0 0 -1 0 0 0 -1 forward_v I I I I #
coedge $-1 $322 $231 $234 $323 forward $141 $-1 #
coedge $-1 $237 $143 $144 $225 reversed $88 $-1 #
coedge $-1 $231 $322 $143 $223 reversed $141 $-1 #
edge $-1 $238 -7.7728541096299644 $324 7.7728541096299644 $222 $325 forward 7 unknown #
coedge $-1 $145 $144 $322 $326 forward $57 $-1 #
edge $-1 $229 -71.888180181279949 $324 71.888180181279949 $221 $327 forward 7 unknown #
coedge $-1 $234 $233 $145 $227 reversed $218 $-1 #
edge $-1 $328 -71.888180181279949 $228 71.888180181279949 $226 $329 forward 7 unknown #
vertex $-1 $147 $330 #
vertex $-1 $240 $331 #
straight-curve $-1 71.888180181279949 0 -7.7728541096299644 0 -1 0 I I #
coedge $-1 $220 $222 $148 $232 reversed $141 $-1 #
edge $-1 $235 -31.120098557005576 $238 31.120098557005576 $231 $332 forward 7 unknown #
coedge $-1 $226 $149 $154 $241 forward $218 $-1 #
coedge $-1 $149 $226 $220 $323 reversed $218 $-1 #
vertex $-1 $150 $333 #
straight-curve $-1 0 31.120098557005576 7.7728541096299644 -1 0 0 I I #
coedge $-1 $151 $221 $153 $240 reversed $88 $-1 #
vertex $-1 $232 $334 #
straight-curve $-1 0 -31.120098557005576 7.7728541096299644 1 0 0 I I #
edge $-1 $156 -7.7728541096299644 $229 7.7728541096299644 $153 $335 forward 7 unknown #
edge $-1 $157 -7.7728541096299644 $228 7.7728541096299644 $154 $336 forward 7 unknown #
point $-1 71.888180181279949 -31.120098557005576 7.7728541096299644 #
point $-1 71.888180181279949 31.120098557005576 7.7728541096299644 #
face $-1 $-1 $337 $22 $-1 $338 reversed single #
loop $-1 $-1 $339 $159 #
plane-surface $-1 0 0 -7.7728541096299644 0 0 1 1 0 0 forward_v I I I I #
coedge $-1 $254 $264 $249 $340 forward $160 $-1 #
coedge $-1 $165 $162 $339 $341 reversed $96 $-1 #
coedge $-1 $162 $165 $247 $340 reversed $96 $-1 #
coedge $-1 $342 $343 $162 $251 forward $337 $-1 #
edge $-1 $344 -7.7728541096299644 $345 7.7728541096299644 $250 $346 forward 7 unknown #
coedge $-1 $339 $168 $163 $253 forward $245 $-1 #
edge $-1 $173 -33.418391776180968 $257 -30.418391776180968 $252 $347 forward 7 unknown #
coedge $-1 $170 $247 $164 $255 forward $160 $-1 #
edge $-1 $256 30.418391776180968 $172 33.418391776180968 $254 $348 forward 7 unknown #
vertex $-1 $255 $349 #
vertex $-1 $253 $350 #
straight-curve $-1 -62.336783552361936 -24.221954437421985 0 0 0 -1 I I #
coedge $-1 $343 $342 $167 $260 forward $337 $-1 #
edge $-1 $265 -7.7728541096299644 $262 7.7728541096299644 $259 $351 forward 7 unknown #
coedge $-1 $168 $339 $343 $352 forward $245 $-1 #
vertex $-1 $169 $353 #
straight-curve $-1 -65.336783552361936 -13.83551324860689 -7.7728541096299644 0 1 0 I I #
coedge $-1 $247 $170 $342 $354 forward $160 $-1 #
vertex $-1 $354 $355 #
straight-curve $-1 -65.336783552361936 -13.83551324860689 7.7728541096299644 0 -1 0 I I #
point $-1 -65.336783552361936 -24.221954437421985 7.7728541096299644 #
point $-1 -65.336783552361936 -24.221954437421985 -7.7728541096299644 #
face $-1 $-1 $356 $23 $-1 $357 reversed single #
loop $-1 $-1 $183 $175 #
plane-surface $-1 0 0 -7.7728541096299644 0 0 1 1 0 0 forward_v I I I I #
coedge $-1 $358 $178 $359 $360 reversed $104 $-1 #
coedge $-1 $178 $358 $276 $361 reversed $104 $-1 #
coedge $-1 $186 $185 $178 $275 reversed $176 $-1 #
edge $-1 $362 -7.7728541096299644 $363 7.7728541096299644 $274 $364 forward 7 unknown #
coedge $-1 $180 $179 $273 $361 forward $65 $-1 #
edge $-1 $188 -4.4459055506993934 $362 4.4459055506993934 $186 $365 forward 7 unknown #
coedge $-1 $366 $282 $180 $279 reversed $356 $-1 #
edge $-1 $367 -40.011909658404363 $280 -31.120098557005576 $278 $368 forward 7 unknown #
vertex $-1 $283 $369 #
straight-curve $-1 0 31.120098557005576 7.7728541096299644 1 0 0 I I #
coedge $-1 $278 $370 $182 $283 forward $356 $-1 #
edge $-1 $286 -7.7728541096299644 $280 7.7728541096299644 $282 $371 forward 7 unknown #
coedge $-1 $359 $183 $370 $372 forward $270 $-1 #
coedge $-1 $183 $359 $185 $288 forward $270 $-1 #
vertex $-1 $372 $373 #
straight-curve $-1 0 31.120098557005576 -7.7728541096299644 -1 0 0 I I #
edge $-1 $363 -4.4459055506993934 $187 4.4459055506993934 $185 $374 forward 7 unknown #
point $-1 -68.888180181279949 31.120098557005576 -7.7728541096299644 #
point $-1 -68.888180181279949 31.120098557005576 7.7728541096299644 #
loop $-1 $-1 $198 $190 #
plane-surface $-1 71.888180181279949 0 0 -1 0 0 0 0 1 forward_v I I I I #
coedge $-1 $294 $193 $195 $298 reversed $112 $-1 #
coedge $-1 $193 $293 $375 $376 reversed $112 $-1 #
coedge $-1 $201 $196 $193 $296 forward $191 $-1 #
edge $-1 $299 50.105867080068414 $377 57.081481062798581 $295 $378 forward 7 unknown #
coedge $-1 $195 $194 $302 $379 reversed $69 $-1 #
edge $-1 $380 -143.7763603625599 $299 -135.45889425860105 $293 $381 forward 7 unknown #
vertex $-1 $197 $382 #
straight-curve $-1 64.912566198549783 -9.5425987769411975 7.7728541096299608 0 -1 0 I I #
coedge $-1 $375 $198 $201 $306 reversed $291 $-1 #
coedge $-1 $198 $375 $297 $379 forward $291 $-1 #
vertex $-1 $199 $383 #
straight-curve $-1 71.888180181279949 -13.948440670342803 101.0650288327877 0 0 1 I I #
straight-curve $-1 -48.692820954842688 -13.948440670342803 81.54905652945277 0.83867056331134215 0 -0.54463904215088732 I I #
edge $-1 $377 -24.221954437421985 $202 -13.948440670342803 $301 $384 forward 7 unknown #
point $-1 71.888180181279949 -13.948440670342803 7.7728541096299644 #
point $-1 64.912566198549783 -13.948440670342803 7.7728541096299608 #
edge $-1 $385 1 $385 0 $205 $-1 forward 7 unknown #
vertex $-1 $206 $386 #
ellipse-curve $-1 67.451738535135505 -22.16725168400615 4.0470764824940355 0.54463904215088732 0 0.83867056331134215 0.41933528165567108 0 -0.27231952107544366 1 I I #
point $-1 68.819708471570578 -22.16725168400615 5.2355262025632365 #
edge $-1 $387 1 $387 0 $209 $-1 forward 7 unknown #
vertex $-1 $210 $388 #
ellipse-curve $-1 67.451738535135505 -19.085197553882395 4.0470764824940355 0.54463904215088732 0 0.83867056331134215 0.41933528165567108 0 -0.27231952107544366 1 I I #
point $-1 68.819708471570578 -19.085197553882395 5.2355262025632365 #
edge $-1 $389 1 $389 0 $213 $-1 forward 7 unknown #
vertex $-1 $214 $390 #
ellipse-curve $-1 67.451738535135505 -16.00314342375864 4.0470764824940355 0.54463904215088732 0 0.83867056331134215 0.41933528165567108 0 -0.27231952107544366 1 I I #
point $-1 68.819708471570578 -16.00314342375864 5.2355262025632365 #
plane-surface $-1 71.888180181279949 0 0 -1 0 0 0 0 1 forward_v I I I I #
coedge $-1 $222 $220 $224 $326 reversed $141 $-1 #
edge $-1 $235 -7.7728541096299644 $328 7.7728541096299644 $234 $391 forward 7 unknown #
vertex $-1 $326 $392 #
straight-curve $-1 -71.888180181279949 -31.120098557005576 0 0 0 -1 I I #
edge $-1 $324 -31.120098557005576 $328 31.120098557005576 $322 $393 forward 7 unknown #
straight-curve $-1 0 -31.120098557005576 -7.7728541096299644 -1 0 0 I I #
vertex $-1 $227 $394 #
straight-curve $-1 0 31.120098557005576 -7.7728541096299644 1 0 0 I I #
point $-1 71.888180181279949 31.120098557005576 -7.7728541096299644 #
point $-1 71.888180181279949 -31.120098557005576 -7.7728541096299644 #
straight-curve $-1 -71.888180181279949 0 7.7728541096299644 0 -1 0 I I #
point $-1 -71.888180181279949 31.120098557005576 7.7728541096299644 #
point $-1 -71.888180181279949 -31.120098557005576 7.7728541096299644 #
straight-curve $-1 71.888180181279949 -31.120098557005576 0 0 0 -1 I I #
straight-curve $-1 71.888180181279949 31.120098557005576 0 0 0 -1 I I #
loop $-1 $-1 $250 $244 #
plane-surface $-1 0 -31.120098557005576 0 0 1 0 0 0 1 forward_v I I I I #
coedge $-1 $261 $252 $248 $341 forward $245 $-1 #
edge $-1 $345 -17.284585308398686 $256 -10.386441188815095 $247 $395 forward 7 unknown #
edge $-1 $257 10.386441188815095 $344 17.284585308398686 $339 $396 forward 7 unknown #
coedge $-1 $259 $250 $264 $354 reversed $337 $-1 #
coedge $-1 $250 $259 $261 $352 reversed $337 $-1 #
vertex $-1 $352 $397 #
vertex $-1 $251 $398 #
straight-curve $-1 -62.336783552361936 -31.120098557005576 0 0 0 1 I I #
straight-curve $-1 -31.918391776180968 -24.221954437421985 -7.7728541096299644 1 0 0 I I #
straight-curve $-1 -31.918391776180968 -24.221954437421985 7.7728541096299644 -1 0 0 I I #
point $-1 -62.336783552361936 -24.221954437421985 7.7728541096299644 #
point $-1 -62.336783552361936 -24.221954437421985 -7.7728541096299644 #
straight-curve $-1 -65.336783552361936 -31.120098557005576 0 0 0 -1 I I #
edge $-1 $344 62.336783552361936 $262 65.336783552361936 $343 $399 forward 7 unknown #
point $-1 -65.336783552361936 -31.120098557005576 -7.7728541096299644 #
edge $-1 $265 -65.336783552361936 $345 -62.336783552361936 $342 $400 forward 7 unknown #
point $-1 -65.336783552361936 -31.120098557005576 7.7728541096299644 #
loop $-1 $-1 $282 $269 #
plane-surface $-1 -71.888180181279949 0 0 1 0 0 0 0 -1 forward_v I I I I #
coedge $-1 $273 $272 $366 $401 reversed $104 $-1 #
coedge $-1 $285 $284 $272 $360 forward $270 $-1 #
edge $-1 $402 -1.5 $363 1.5 $272 $403 forward 7 unknown #
edge $-1 $362 -1.5 $367 1.5 $273 $404 forward 7 unknown #
vertex $-1 $277 $405 #
vertex $-1 $288 $406 #
straight-curve $-1 -68.888180181279949 40.011909658404363 0 0 0 -1 I I #
straight-curve $-1 -68.888180181279949 35.56600410770497 7.7728541096299644 0 1 0 I I #
coedge $-1 $370 $278 $358 $401 forward $356 $-1 #
vertex $-1 $361 $407 #
straight-curve $-1 -71.888180181279949 0 7.7728541096299644 0 -1 0 I I #
point $-1 -71.888180181279949 31.120098557005576 7.7728541096299644 #
coedge $-1 $282 $366 $284 $372 reversed $356 $-1 #
straight-curve $-1 -71.888180181279949 31.120098557005576 0 0 0 1 I I #
edge $-1 $286 -4.4459055506993934 $402 4.4459055506993934 $370 $408 forward 7 unknown #
point $-1 -71.888180181279949 31.120098557005576 -7.7728541096299644 #
straight-curve $-1 -68.888180181279949 35.56600410770497 -7.7728541096299644 0 -1 0 I I #
coedge $-1 $302 $301 $294 $376 forward $291 $-1 #
edge $-1 $377 93.292174723157743 $380 97.822191495140359 $375 $409 forward 7 unknown #
vertex $-1 $306 $410 #
straight-curve $-1 14.806699118481369 -24.221954437421985 7.7728541096299608 1 0 0 I I #
edge $-1 $380 -14.679355660480788 $303 -4.4058418934016057 $302 $411 forward 7 unknown #
vertex $-1 $379 $412 #
straight-curve $-1 -48.692820954842688 -24.221954437421985 81.54905652945277 -0.83867056331134215 0 0.54463904215088732 I I #
point $-1 64.912566198549783 -24.221954437421985 7.7728541096299608 #
point $-1 71.888180181279949 -13.948440670342803 3.2428373376473445 #
straight-curve $-1 71.888180181279949 0 7.7728541096299644 0 1 0 I I #
vertex $-1 $309 $413 #
point $-1 67.871073816791181 -22.16725168400615 3.7747569614185918 #
vertex $-1 $313 $414 #
point $-1 67.871073816791181 -19.085197553882395 3.7747569614185918 #
vertex $-1 $317 $415 #
point $-1 67.871073816791181 -16.00314342375864 3.7747569614185918 #
straight-curve $-1 -71.888180181279949 31.120098557005576 0 0 0 -1 I I #
point $-1 -71.888180181279949 -31.120098557005576 -7.7728541096299644 #
straight-curve $-1 -71.888180181279949 0 -7.7728541096299644 0 1 0 I I #
point $-1 -71.888180181279949 31.120098557005576 -7.7728541096299644 #
straight-curve $-1 -62.336783552361936 -13.83551324860689 7.7728541096299644 0 1 0 I I #
straight-curve $-1 -62.336783552361936 -13.83551324860689 -7.7728541096299644 0 -1 0 I I #
point $-1 -62.336783552361936 -31.120098557005576 -7.7728541096299644 #
point $-1 -62.336783552361936 -31.120098557005576 7.7728541096299644 #
straight-curve $-1 0 -31.120098557005576 -7.7728541096299644 -1 0 0 I I #
straight-curve $-1 0 -31.120098557005576 7.7728541096299644 1 0 0 I I #
edge $-1 $367 -7.7728541096299644 $402 7.7728541096299644 $358 $416 forward 7 unknown #
vertex $-1 $360 $417 #
straight-curve $-1 -70.388180181279949 40.011909658404363 -7.7728541096299644 1 0 0 I I #
straight-curve $-1 -70.388180181279949 40.011909658404363 7.7728541096299644 -1 0 0 I I #
point $-1 -68.888180181279949 40.011909658404363 7.7728541096299644 #
point $-1 -68.888180181279949 40.011909658404363 -7.7728541096299644 #
point $-1 -71.888180181279949 40.011909658404363 7.7728541096299644 #
straight-curve $-1 -71.888180181279949 35.56600410770497 -7.7728541096299644 0 1 0 I I #
straight-curve $-1 71.888180181279949 -24.221954437421985 101.0650288327877 0 0 -1 I I #
point $-1 71.888180181279949 -24.221954437421985 7.7728541096299644 #
straight-curve $-1 71.888180181279935 -9.5425987769411975 3.2428373376473445 0 1 0 I I #
point $-1 71.888180181279949 -24.221954437421985 3.2428373376473445 #
point $-1 67.179419014060059 -22.16725168400615 3.627741200838364 #
point $-1 67.179419014060059 -19.085197553882395 3.627741200838364 #
point $-1 67.179419014060059 -16.00314342375864 3.627741200838364 #
straight-curve $-1 -71.888180181279949 40.011909658404363 0 0 0 -1 I I #
point $-1 -71.888180181279949 40.011909658404363 -7.7728541096299644 #
End-of-ACIS-data 