500 0 10 0           
7 Unknown 11 ACIS 5.0 NT 24 Fri Mar 26 02:17:31 1999 
-1 9.9999999999999995e-007 1e-010 
body $-1 $10 $-1 $11 #
body $-1 $12 $-1 $13 #
body $-1 $14 $-1 $15 #
body $-1 $16 $-1 $17 #
body $-1 $18 $-1 $19 #
body $-1 $20 $-1 $21 #
body $-1 $22 $-1 $23 #
body $-1 $24 $-1 $25 #
body $-1 $26 $-1 $27 #
body $-1 $28 $-1 $29 #
lump $-1 $-1 $30 $0 #
transform $-1 1 0 0 0 1 0 0 0 1 70.24994659260841 37.501941459005245 14.624578330555588 1 rotate no_reflect no_shear #
lump $-1 $-1 $31 $1 #
transform $-1 1 0 0 0 1 0 0 0 1 70.24994659260841 37.501941459005245 14.624578330555588 1 rotate no_reflect no_shear #
lump $-1 $-1 $32 $2 #
transform $-1 1 0 0 0 1 0 0 0 1 70.24994659260841 37.501941459005245 14.624578330555588 1 rotate no_reflect no_shear #
lump $-1 $-1 $33 $3 #
transform $-1 1 0 0 0 1 0 0 0 1 70.24994659260841 37.501941459005245 14.624578330555588 1 rotate no_reflect no_shear #
lump $-1 $-1 $34 $4 #
transform $-1 1 0 0 0 1 0 0 0 1 70.24994659260841 37.501941459005245 14.624578330555588 1 rotate no_reflect no_shear #
lump $-1 $-1 $35 $5 #
transform $-1 1 0 0 0 1 0 0 0 1 70.24994659260841 37.501941459005245 14.624578330555588 1 rotate no_reflect no_shear #
lump $-1 $-1 $36 $6 #
transform $-1 1 0 0 0 1 0 0 0 1 70.24994659260841 37.501941459005245 14.624578330555588 1 rotate no_reflect no_shear #
lump $-1 $-1 $37 $7 #
transform $-1 1 0 0 0 1 0 0 0 1 70.24994659260841 37.501941459005245 14.624578330555588 1 rotate no_reflect no_shear #
lump $-1 $-1 $38 $8 #
transform $-1 1 0 0 0 1 0 0 0 1 70.24994659260841 37.501941459005245 14.624578330555588 1 rotate no_reflect no_shear #
lump $-1 $-1 $39 $9 #
transform $-1 1 0 0 0 1 0 0 0 1 70.24994659260841 37.501941459005245 14.624578330555588 1 rotate no_reflect no_shear #
shell $-1 $-1 $-1 $40 $-1 $10 #
shell $-1 $-1 $-1 $41 $-1 $12 #
shell $-1 $-1 $-1 $42 $-1 $14 #
shell $-1 $-1 $-1 $43 $-1 $16 #
shell $-1 $-1 $-1 $44 $-1 $18 #
shell $-1 $-1 $-1 $45 $-1 $20 #
shell $-1 $-1 $-1 $46 $-1 $22 #
shell $-1 $-1 $-1 $47 $-1 $24 #
shell $-1 $-1 $-1 $48 $-1 $26 #
shell $-1 $-1 $-1 $49 $-1 $28 #
face $-1 $50 $51 $30 $-1 $52 forward single #
face $-1 $53 $54 $31 $-1 $55 forward single #
face $-1 $56 $57 $32 $-1 $58 reversed single #
face $-1 $59 $60 $33 $-1 $61 forward single #
face $-1 $62 $63 $34 $-1 $64 reversed single #
face $-1 $65 $66 $35 $-1 $67 forward single #
face $-1 $68 $69 $36 $-1 $70 forward single #
face $-1 $71 $72 $37 $-1 $73 reversed single #
face $-1 $74 $75 $38 $-1 $76 forward single #
face $-1 $77 $78 $39 $-1 $79 forward single #
face $-1 $80 $81 $30 $-1 $82 reversed single #
loop $-1 $-1 $83 $40 #
plane-surface $-1 0 0 14.624578330555588 0 0 1 1 0 0 forward_v I I I I #
face $-1 $84 $85 $31 $-1 $86 reversed single #
loop $-1 $-1 $87 $41 #
plane-surface $-1 0 -32.243694337720889 2.8573450316066831 0 0 1 1 0 0 forward_v I I I I #
face $-1 $88 $89 $32 $-1 $90 reversed single #
loop $-1 $-1 $91 $42 #
plane-surface $-1 -156.75031919887408 -26.985447216436533 119.60157467201829 0 1 0 -0.61566148304635926 0 0.78801074757464917 forward_v I I I I #
face $-1 $92 $93 $33 $-1 $94 forward single #
loop $-1 $95 $96 $43 #
cone-surface $-1 -65.375319336391257 -23.049427654638084 10.216617890491026 0.61566148304635926 0 -0.78801074757464917 1.1820161213619738 0 0.92349222456953894 1 I I 0 1 1.5 forward I I I I #
face $-1 $97 $98 $34 $-1 $99 reversed single #
loop $-1 $-1 $100 $44 #
plane-surface $-1 77.184369215826251 -17.761449974897964 205.63208556562537 0 -1 0 -0.73135370988377701 0 -0.68199835119979291 forward_v I I I I #
face $-1 $101 $102 $35 $-1 $103 forward single #
loop $-1 $104 $105 $45 #
cone-surface $-1 65.296124025413349 -24.350019433139799 9.5115513426970733 -0.73135370988377701 0 -0.68199835119979291 0.68199835119979291 0 -0.73135370988377701 1 I I 0 1 1 forward I I I I #
face $-1 $106 $107 $36 $-1 $108 forward single #
loop $-1 $109 $110 $46 #
cone-surface $-1 65.296124025413349 -20.396877758194698 9.5115513426970733 -0.73135370988377701 0 -0.68199835119979291 0.68199835119979291 0 -0.73135370988377701 1 I I 0 1 1 forward I I I I #
face $-1 $111 $112 $37 $-1 $113 reversed single #
loop $-1 $-1 $114 $47 #
plane-surface $-1 -25.570748903456476 32.88994283823596 109.81139006956049 0.73135370988377701 0 0.68199835119979291 0.68199835119979291 0 -0.73135370988377701 forward_v I I I I #
face $-1 $115 $116 $38 $-1 $117 forward single #
loop $-1 $118 $119 $48 #
cone-surface $-1 65.296124025413349 30.91337200076341 9.5115513426970733 -0.73135370988377701 0 -0.68199835119979291 0.68199835119979291 0 -0.73135370988377701 1 I I 0 1 1 forward I I I I #
face $-1 $120 $121 $39 $-1 $122 forward single #
loop $-1 $123 $124 $49 #
cone-surface $-1 65.296124025413349 34.866513675708511 9.5115513426970733 -0.73135370988377701 0 -0.68199835119979291 0.68199835119979291 0 -0.73135370988377701 1 I I 0 1 1 forward I I I I #
face $-1 $125 $126 $30 $-1 $127 reversed single #
loop $-1 $-1 $128 $50 #
plane-surface $-1 0 0 -14.624578330555588 0 0 1 1 0 0 forward_v I I I I #
coedge $-1 $129 $130 $131 $132 forward $51 $-1 #
face $-1 $133 $134 $31 $-1 $135 reversed single #
loop $-1 $-1 $136 $53 #
plane-surface $-1 0 -32.243694337720889 -4.8944357649494732 0 0 1 1 0 0 forward_v I I I I #
coedge $-1 $137 $138 $139 $140 reversed $54 $-1 #
face $-1 $141 $142 $32 $-1 $143 reversed single #
loop $-1 $-1 $144 $56 #
plane-surface $-1 -70.249946592608424 -23.049427654638084 8.8861488089772251 -0.61566148304635926 0 0.78801074757464917 0.78801074757464917 0 0.61566148304635926 forward_v I I I I #
coedge $-1 $145 $146 $147 $148 reversed $57 $-1 #
face $-1 $-1 $149 $33 $-1 $150 forward single #
loop $-1 $151 $152 $59 #
cone-surface $-1 -63.711373317760525 -23.049427654638084 8.0868641505346606 0.61566148304635926 0 -0.78801074757464917 0.59100806068098688 0 0.46174611228476947 1 I I -0.70710678118654757 0.70710678118654757 0.75 forward I I I I #
loop $-1 $-1 $153 $43 #
coedge $-1 $96 $96 $154 $155 reversed $60 $-1 #
face $-1 $156 $157 $34 $-1 $158 reversed single #
loop $-1 $-1 $159 $62 #
plane-surface $-1 -25.570748903456476 -22.373448595667249 109.81139006956049 0.73135370988377701 0 0.68199835119979291 0.68199835119979291 0 -0.73135370988377701 forward_v I I I I #
coedge $-1 $160 $161 $162 $163 reversed $63 $-1 #
face $-1 $-1 $164 $35 $-1 $165 forward single #
loop $-1 $166 $167 $65 #
cone-surface $-1 63.505404455603014 -24.350019433139799 7.8416783693775951 -0.73135370988377701 0 -0.68199835119979291 0.34099917559989645 0 -0.36567685494188851 1 I I -0.70710678118654746 0.70710678118654746 0.5 forward I I I I #
loop $-1 $-1 $168 $45 #
coedge $-1 $105 $105 $169 $170 reversed $66 $-1 #
face $-1 $-1 $171 $36 $-1 $172 forward single #
loop $-1 $173 $174 $68 #
cone-surface $-1 63.505404455603014 -20.396877758194698 7.8416783693775951 -0.73135370988377701 0 -0.68199835119979291 0.34099917559989645 0 -0.36567685494188851 1 I I -0.70710678118654746 0.70710678118654746 0.5 forward I I I I #
loop $-1 $-1 $175 $46 #
coedge $-1 $110 $110 $176 $177 reversed $69 $-1 #
face $-1 $178 $179 $37 $-1 $180 reversed single #
loop $-1 $-1 $181 $71 #
plane-surface $-1 77.184369215826251 28.277944217466676 205.63208556562537 0 1 0 0.73135370988377701 0 0.68199835119979291 forward_v I I I I #
coedge $-1 $182 $183 $184 $185 reversed $72 $-1 #
face $-1 $-1 $186 $38 $-1 $187 forward single #
loop $-1 $188 $189 $74 #
cone-surface $-1 63.505404455603014 30.91337200076341 7.8416783693775951 -0.73135370988377701 0 -0.68199835119979291 0.34099917559989645 0 -0.36567685494188851 1 I I -0.70710678118654746 0.70710678118654746 0.5 forward I I I I #
loop $-1 $-1 $190 $48 #
coedge $-1 $119 $119 $191 $192 reversed $75 $-1 #
face $-1 $-1 $193 $39 $-1 $194 forward single #
loop $-1 $195 $196 $77 #
cone-surface $-1 63.505404455603014 34.866513675708511 7.8416783693775951 -0.73135370988377701 0 -0.68199835119979291 0.34099917559989645 0 -0.36567685494188851 1 I I -0.70710678118654746 0.70710678118654746 0.5 forward I I I I #
loop $-1 $-1 $197 $49 #
coedge $-1 $124 $124 $198 $199 reversed $78 $-1 #
face $-1 $200 $201 $30 $-1 $202 reversed single #
loop $-1 $-1 $203 $80 #
plane-surface $-1 0 -37.501941459005245 0 0 1 0 0 0 1 forward_v I I I I #
coedge $-1 $204 $205 $206 $207 forward $81 $-1 #
coedge $-1 $208 $83 $209 $210 forward $51 $-1 #
coedge $-1 $83 $208 $211 $212 forward $51 $-1 #
coedge $-1 $213 $214 $83 $132 reversed $215 $-1 #
edge $-1 $216 -37.501941459005245 $217 37.501941459005245 $131 $218 forward 7 unknown #
face $-1 $219 $220 $31 $-1 $221 reversed single #
loop $-1 $-1 $222 $84 #
plane-surface $-1 0 -26.985447216436533 -1.0185453666713951 0 -1 0 0 0 -1 forward_v I I I I #
coedge $-1 $223 $224 $225 $226 reversed $85 $-1 #
coedge $-1 $227 $87 $228 $229 forward $54 $-1 #
coedge $-1 $87 $227 $230 $231 reversed $54 $-1 #
coedge $-1 $232 $233 $87 $140 forward $234 $-1 #
edge $-1 $235 10.863600047576089 $236 21.3800942901448 $139 $237 forward 7 unknown #
face $-1 $238 $239 $32 $-1 $240 reversed single #
loop $-1 $-1 $241 $88 #
plane-surface $-1 -156.75031919887408 -19.113408092839634 119.60157467201829 0 -1 0 0.61566148304635926 0 -0.78801074757464917 forward_v I I I I #
coedge $-1 $242 $243 $244 $245 reversed $89 $-1 #
coedge $-1 $146 $91 $246 $247 reversed $57 $-1 #
coedge $-1 $91 $145 $242 $248 reversed $57 $-1 #
coedge $-1 $244 $249 $91 $148 forward $250 $-1 #
edge $-1 $251 8.1252130068286306 $252 15.470067706570973 $147 $253 forward 7 unknown #
loop $-1 $-1 $154 $92 #
plane-surface $-1 -70.249946592608424 -23.049427654638084 8.8861488089772251 -0.61566148304635926 0 0.78801074757464917 0.78801074757464917 0 0.61566148304635926 forward_v I I I I #
loop $-1 $-1 $254 $59 #
coedge $-1 $152 $152 $153 $255 reversed $93 $-1 #
coedge $-1 $153 $153 $152 $255 forward $95 $-1 #
coedge $-1 $154 $154 $96 $155 forward $149 $-1 #
edge $-1 $256 0 $256 6.2831853071796004 $154 $257 forward 7 unknown #
face $-1 $258 $259 $34 $-1 $260 forward single #
loop $-1 $-1 $261 $97 #
plane-surface $-1 77.184369215826251 -26.985447216436533 205.63208556562537 0 1 0 0.73135370988377701 0 0.68199835119979291 forward_v I I I I #
coedge $-1 $262 $263 $264 $265 reversed $98 $-1 #
coedge $-1 $161 $100 $266 $267 reversed $63 $-1 #
coedge $-1 $100 $160 $262 $268 reversed $63 $-1 #
coedge $-1 $264 $269 $100 $163 forward $259 $-1 #
edge $-1 $270 -31.657761984695284 $271 -24.600202280042112 $162 $272 forward 7 unknown #
loop $-1 $-1 $169 $101 #
plane-surface $-1 -25.570748903456476 -22.373448595667249 109.81139006956049 0.73135370988377701 0 0.68199835119979291 0.68199835119979291 0 -0.73135370988377701 forward_v I I I I #
loop $-1 $-1 $273 $65 #
coedge $-1 $167 $167 $168 $274 reversed $102 $-1 #
coedge $-1 $168 $168 $167 $274 forward $104 $-1 #
coedge $-1 $169 $169 $105 $170 forward $164 $-1 #
edge $-1 $275 0 $275 6.2831853071796004 $169 $276 forward 7 unknown #
loop $-1 $-1 $176 $106 #
plane-surface $-1 -25.570748903456476 -22.373448595667249 109.81139006956049 0.73135370988377701 0 0.68199835119979291 0.68199835119979291 0 -0.73135370988377701 forward_v I I I I #
loop $-1 $-1 $277 $68 #
coedge $-1 $174 $174 $175 $278 reversed $107 $-1 #
coedge $-1 $175 $175 $174 $278 forward $109 $-1 #
coedge $-1 $176 $176 $110 $177 forward $171 $-1 #
edge $-1 $279 0 $279 6.2831853071796004 $176 $280 forward 7 unknown #
face $-1 $281 $282 $37 $-1 $283 forward single #
loop $-1 $-1 $284 $111 #
plane-surface $-1 70.24994659260841 0 0 -1 0 0 0 0 1 forward_v I I I I #
coedge $-1 $285 $286 $287 $288 reversed $112 $-1 #
coedge $-1 $289 $114 $290 $291 reversed $72 $-1 #
coedge $-1 $114 $289 $285 $292 forward $72 $-1 #
coedge $-1 $287 $293 $114 $185 forward $282 $-1 #
edge $-1 $294 -21.056970039887265 $295 -11.832972798348695 $184 $296 forward 7 unknown #
loop $-1 $-1 $191 $115 #
plane-surface $-1 -25.570748903456476 32.88994283823596 109.81139006956049 0.73135370988377701 0 0.68199835119979291 0.68199835119979291 0 -0.73135370988377701 forward_v I I I I #
loop $-1 $-1 $297 $74 #
coedge $-1 $189 $189 $190 $298 reversed $116 $-1 #
coedge $-1 $190 $190 $189 $298 forward $118 $-1 #
coedge $-1 $191 $191 $119 $192 forward $186 $-1 #
edge $-1 $299 0 $299 6.2831853071796004 $191 $300 forward 7 unknown #
loop $-1 $-1 $198 $120 #
plane-surface $-1 -25.570748903456476 32.88994283823596 109.81139006956049 0.73135370988377701 0 0.68199835119979291 0.68199835119979291 0 -0.73135370988377701 forward_v I I I I #
loop $-1 $-1 $301 $77 #
coedge $-1 $196 $196 $197 $302 reversed $121 $-1 #
coedge $-1 $197 $197 $196 $302 forward $123 $-1 #
coedge $-1 $198 $198 $124 $199 forward $193 $-1 #
edge $-1 $303 0 $303 6.2831853071796004 $198 $304 forward 7 unknown #
face $-1 $305 $306 $30 $-1 $307 reversed single #
loop $-1 $-1 $308 $125 #
plane-surface $-1 -70.24994659260841 0 0 1 0 0 0 0 -1 forward_v I I I I #
coedge $-1 $309 $211 $310 $311 forward $126 $-1 #
coedge $-1 $312 $128 $309 $313 forward $81 $-1 #
coedge $-1 $128 $312 $314 $315 forward $81 $-1 #
coedge $-1 $214 $213 $128 $207 reversed $215 $-1 #
edge $-1 $316 -37.501941459005245 $317 37.501941459005245 $206 $318 forward 7 unknown #
coedge $-1 $130 $129 $319 $320 forward $51 $-1 #
coedge $-1 $321 $322 $129 $210 reversed $306 $-1 #
edge $-1 $217 -70.24994659260841 $323 70.24994659260841 $209 $324 forward 7 unknown #
coedge $-1 $203 $325 $130 $212 reversed $126 $-1 #
edge $-1 $326 -70.24994659260841 $216 70.24994659260841 $211 $327 forward 7 unknown #
coedge $-1 $206 $131 $325 $328 forward $215 $-1 #
coedge $-1 $131 $206 $321 $329 reversed $215 $-1 #
loop $-1 $-1 $213 $305 #
vertex $-1 $132 $330 #
vertex $-1 $132 $331 #
straight-curve $-1 70.24994659260841 0 14.624578330555588 0 1 0 I I #
face $-1 $332 $333 $31 $-1 $334 reversed single #
loop $-1 $-1 $335 $133 #
plane-surface $-1 -70.24994659260841 0 0 1 0 0 0 0 -1 forward_v I I I I #
coedge $-1 $336 $228 $233 $337 reversed $134 $-1 #
coedge $-1 $338 $136 $339 $340 reversed $85 $-1 #
coedge $-1 $136 $338 $336 $341 forward $85 $-1 #
coedge $-1 $233 $232 $136 $226 forward $234 $-1 #
edge $-1 $342 -21.3800942901448 $343 -10.863600047576089 $225 $344 forward 7 unknown #
coedge $-1 $138 $137 $335 $345 reversed $54 $-1 #
coedge $-1 $222 $346 $137 $229 reversed $134 $-1 #
edge $-1 $235 -70.24994659260841 $347 70.24994659260841 $228 $348 forward 7 unknown #
coedge $-1 $349 $350 $138 $231 forward $333 $-1 #
edge $-1 $236 -70.24994659260841 $351 70.24994659260841 $230 $352 forward 7 unknown #
coedge $-1 $225 $139 $350 $353 forward $234 $-1 #
coedge $-1 $139 $225 $222 $337 forward $234 $-1 #
loop $-1 $-1 $139 $332 #
vertex $-1 $140 $354 #
vertex $-1 $353 $355 #
straight-curve $-1 70.24994659260841 -16.121847168860445 2.8573450316066831 0 -1 0 I I #
face $-1 $-1 $250 $32 $-1 $356 forward single #
loop $-1 $-1 $357 $141 #
plane-surface $-1 -70.24994659260841 0 0 1 0 0 0 0 -1 forward_v I I I I #
coedge $-1 $358 $359 $360 $361 reversed $142 $-1 #
coedge $-1 $362 $144 $146 $248 forward $89 $-1 #
coedge $-1 $144 $362 $358 $363 forward $89 $-1 #
coedge $-1 $360 $147 $144 $245 forward $250 $-1 #
edge $-1 $252 -15.460733389117491 $364 -7.5886942655205925 $244 $365 forward 7 unknown #
coedge $-1 $366 $367 $145 $247 forward $239 $-1 #
edge $-1 $368 -50.914638527031912 $251 -45.176209005453558 $246 $369 forward 7 unknown #
edge $-1 $252 -9.3207544723830935 $368 -1.7760113164789269e-014 $146 $370 forward 7 unknown #
coedge $-1 $147 $360 $366 $371 forward $250 $-1 #
loop $-1 $-1 $360 $238 #
vertex $-1 $247 $372 #
vertex $-1 $148 $373 #
straight-curve $-1 -78.37515959943704 -26.985447216436533 14.624578330555586 1 0 0 I I #
coedge $-1 $254 $254 $-1 $374 reversed $151 $-1 #
edge $-1 $375 0 $375 6.2831853071796004 $152 $376 forward 7 unknown #
vertex $-1 $155 $377 #
ellipse-curve $-1 -66.577519242737225 -23.049427654638084 11.755363569766416 -0.61566148304635926 0 0.78801074757464917 1.1820161213619738 0 0.92349222456953894 1 I I #
face $-1 $-1 $378 $34 $-1 $379 reversed single #
loop $-1 $-1 $162 $156 #
plane-surface $-1 0 0 14.624578330555588 0 0 1 1 0 0 forward_v I I I I #
coedge $-1 $380 $381 $382 $383 reversed $157 $-1 #
coedge $-1 $384 $159 $161 $268 forward $98 $-1 #
coedge $-1 $159 $384 $380 $385 forward $98 $-1 #
coedge $-1 $382 $162 $159 $265 forward $259 $-1 #
edge $-1 $271 6.5747256770643396 $386 15.798722918602909 $264 $387 forward 7 unknown #
coedge $-1 $388 $389 $160 $267 forward $378 $-1 #
edge $-1 $390 -95.759770832534926 $270 -88.191464452257094 $266 $391 forward 7 unknown #
edge $-1 $271 130.151540154396 $390 140.49989318521682 $161 $392 forward 7 unknown #
coedge $-1 $162 $382 $388 $393 forward $259 $-1 #
vertex $-1 $267 $394 #
vertex $-1 $163 $395 #
straight-curve $-1 38.592184607913126 -17.761449974897964 14.624578330555593 -1 0 0 I I #
coedge $-1 $273 $273 $-1 $396 reversed $166 $-1 #
edge $-1 $397 0 $397 6.2831853071796004 $167 $398 forward 7 unknown #
vertex $-1 $170 $399 #
ellipse-curve $-1 66.721166740281831 -24.350019433139799 10.840425140416686 0.73135370988377701 0 0.68199835119979291 0.68199835119979291 0 -0.73135370988377701 1 I I #
coedge $-1 $277 $277 $-1 $400 reversed $173 $-1 #
edge $-1 $401 0 $401 6.2831853071796004 $174 $402 forward 7 unknown #
vertex $-1 $177 $403 #
ellipse-curve $-1 66.721166740281831 -20.396877758194698 10.840425140416686 0.73135370988377701 0 0.68199835119979291 0.68199835119979291 0 -0.73135370988377701 1 I I #
face $-1 $-1 $404 $37 $-1 $405 reversed single #
loop $-1 $-1 $287 $178 #
plane-surface $-1 0 0 14.624578330555588 0 0 1 1 0 0 forward_v I I I I #
coedge $-1 $406 $407 $286 $408 forward $179 $-1 #
coedge $-1 $286 $181 $183 $292 reversed $112 $-1 #
coedge $-1 $181 $285 $284 $408 reversed $112 $-1 #
coedge $-1 $409 $184 $181 $288 forward $282 $-1 #
edge $-1 $295 24.600202280042112 $410 31.657761984695284 $287 $411 forward 7 unknown #
coedge $-1 $183 $182 $406 $412 reversed $72 $-1 #
coedge $-1 $413 $414 $182 $291 forward $404 $-1 #
edge $-1 $415 -91.624805132232396 $294 -81.276452101411579 $290 $416 forward 7 unknown #
edge $-1 $417 -140.49989318521682 $295 -130.151540154396 $285 $418 forward 7 unknown #
coedge $-1 $184 $409 $413 $419 forward $282 $-1 #
vertex $-1 $291 $420 #
vertex $-1 $185 $421 #
straight-curve $-1 63.192386887955266 16.44497141911798 14.624578330555586 0 -1 0 I I #
coedge $-1 $297 $297 $-1 $422 reversed $188 $-1 #
edge $-1 $423 0 $423 6.2831853071796004 $189 $424 forward 7 unknown #
vertex $-1 $192 $425 #
ellipse-curve $-1 66.721166740281831 30.91337200076341 10.840425140416686 0.73135370988377701 0 0.68199835119979291 0.68199835119979291 0 -0.73135370988377701 1 I I #
coedge $-1 $301 $301 $-1 $426 reversed $195 $-1 #
edge $-1 $427 0 $427 6.2831853071796004 $196 $428 forward 7 unknown #
vertex $-1 $199 $429 #
ellipse-curve $-1 66.721166740281831 34.866513675708511 10.840425140416686 0.73135370988377701 0 0.68199835119979291 0.68199835119979291 0 -0.73135370988377701 1 I I #
face $-1 $-1 $215 $30 $-1 $430 reversed single #
loop $-1 $-1 $321 $200 #
plane-surface $-1 0 37.501941459005245 0 0 -1 0 0 0 -1 forward_v I I I I #
coedge $-1 $431 $319 $322 $432 forward $201 $-1 #
coedge $-1 $325 $203 $204 $313 reversed $126 $-1 #
coedge $-1 $319 $431 $203 $311 reversed $201 $-1 #
edge $-1 $326 -14.624578330555588 $433 14.624578330555588 $310 $434 forward 7 unknown #
coedge $-1 $205 $204 $431 $435 forward $81 $-1 #
edge $-1 $317 -70.24994659260841 $433 70.24994659260841 $309 $436 forward 7 unknown #
coedge $-1 $322 $321 $205 $315 reversed $306 $-1 #
edge $-1 $437 -70.24994659260841 $316 70.24994659260841 $314 $438 forward 7 unknown #
vertex $-1 $207 $439 #
vertex $-1 $328 $440 #
straight-curve $-1 70.24994659260841 0 -14.624578330555588 0 -1 0 I I #
coedge $-1 $308 $310 $208 $320 reversed $201 $-1 #
edge $-1 $323 -37.501941459005245 $326 37.501941459005245 $319 $441 forward 7 unknown #
coedge $-1 $314 $209 $214 $329 forward $306 $-1 #
coedge $-1 $209 $314 $308 $432 reversed $306 $-1 #
vertex $-1 $210 $442 #
straight-curve $-1 0 37.501941459005245 14.624578330555588 -1 0 0 I I #
coedge $-1 $211 $309 $213 $328 reversed $126 $-1 #
vertex $-1 $320 $443 #
straight-curve $-1 0 -37.501941459005245 14.624578330555588 1 0 0 I I #
edge $-1 $216 -14.624578330555588 $317 14.624578330555588 $213 $444 forward 7 unknown #
edge $-1 $217 -14.624578330555588 $316 14.624578330555588 $214 $445 forward 7 unknown #
point $-1 70.24994659260841 -37.501941459005245 14.624578330555588 #
point $-1 70.24994659260841 37.501941459005245 14.624578330555588 #
face $-1 $-1 $234 $31 $-1 $446 reversed single #
loop $-1 $-1 $230 $219 #
plane-surface $-1 0 -37.501941459005245 0 0 1 0 0 0 1 forward_v I I I I #
coedge $-1 $447 $448 $227 $345 forward $220 $-1 #
coedge $-1 $346 $222 $224 $341 reversed $134 $-1 #
edge $-1 $343 -4.3851630816137757 $235 3.3666177149423806 $233 $449 forward 7 unknown #
coedge $-1 $224 $223 $450 $451 reversed $85 $-1 #
coedge $-1 $350 $349 $223 $340 forward $333 $-1 #
edge $-1 $452 -70.24994659260841 $342 70.24994659260841 $339 $453 forward 7 unknown #
edge $-1 $454 -70.24994659260841 $343 70.24994659260841 $336 $455 forward 7 unknown #
vertex $-1 $340 $456 #
vertex $-1 $226 $457 #
straight-curve $-1 70.24994659260841 -16.121847168860445 -4.8944357649494732 0 1 0 I I #
edge $-1 $351 -21.3800942901448 $347 -10.863600047576089 $335 $458 forward 7 unknown #
coedge $-1 $228 $336 $447 $459 reversed $134 $-1 #
vertex $-1 $345 $460 #
straight-curve $-1 0 -26.985447216436533 2.8573450316066831 -1 0 0 I I #
coedge $-1 $339 $230 $448 $461 forward $333 $-1 #
coedge $-1 $230 $339 $232 $353 reversed $333 $-1 #
vertex $-1 $461 $462 #
straight-curve $-1 0 -37.501941459005245 2.8573450316066831 -1 0 0 I I #
edge $-1 $236 -2.8573450316066831 $342 4.8944357649494732 $232 $463 forward 7 unknown #
point $-1 70.24994659260841 -26.985447216436533 2.8573450316066831 #
point $-1 70.24994659260841 -37.501941459005245 2.8573450316066831 #
plane-surface $-1 0 0 14.624578330555588 0 0 1 1 0 0 forward_v I I I I #
coedge $-1 $367 $366 $359 $464 forward $239 $-1 #
coedge $-1 $359 $241 $243 $363 reversed $142 $-1 #
coedge $-1 $241 $358 $357 $464 reversed $142 $-1 #
coedge $-1 $249 $244 $241 $361 forward $250 $-1 #
edge $-1 $364 -15.470067706570973 $465 -8.1252130068286306 $360 $466 forward 7 unknown #
coedge $-1 $243 $242 $367 $467 reversed $89 $-1 #
edge $-1 $468 1.7760113164789269e-014 $364 9.3207544723830935 $358 $469 forward 7 unknown #
vertex $-1 $245 $470 #
straight-curve $-1 -62.905091892866061 -11.524713827319042 14.624578330555586 0 1 0 I I #
coedge $-1 $357 $246 $249 $371 reversed $239 $-1 #
coedge $-1 $246 $357 $362 $467 forward $239 $-1 #
vertex $-1 $247 $471 #
straight-curve $-1 -70.24994659260841 -26.985447216436533 59.800787336009144 0 0 1 I I #
straight-curve $-1 -70.249946592608424 -26.985447216436533 8.8861488089772251 -0.78801074757464917 0 -0.61566148304635926 I I #
edge $-1 $465 19.113408092839634 $251 26.985447216436533 $366 $472 forward 7 unknown #
point $-1 -70.24994659260841 -26.985447216436533 14.624578330555588 #
point $-1 -62.905091892866068 -26.985447216436533 14.624578330555586 #
edge $-1 $473 1 $473 0 $254 $-1 forward 7 unknown #
vertex $-1 $255 $474 #
ellipse-curve $-1 -64.17311943004529 -23.049427654638084 8.6778722112156466 -0.61566148304635926 0 0.78801074757464917 1.1820161213619738 0 0.92349222456953894 1 I I #
point $-1 -65.395503121375256 -23.049427654638084 12.678855794335943 #
loop $-1 $-1 $266 $258 #
plane-surface $-1 70.24994659260841 0 0 -1 0 0 0 0 1 forward_v I I I I #
coedge $-1 $381 $261 $263 $385 reversed $157 $-1 #
coedge $-1 $261 $380 $475 $476 reversed $157 $-1 #
coedge $-1 $269 $264 $261 $383 forward $259 $-1 #
edge $-1 $386 24.600202280042112 $477 31.657761984695284 $382 $478 forward 7 unknown #
coedge $-1 $263 $262 $389 $479 reversed $98 $-1 #
edge $-1 $480 -140.49989318521682 $386 -130.151540154396 $380 $481 forward 7 unknown #
vertex $-1 $265 $482 #
straight-curve $-1 63.192386887955266 -11.186724297833624 14.624578330555586 0 -1 0 I I #
coedge $-1 $475 $266 $269 $393 reversed $378 $-1 #
coedge $-1 $266 $475 $384 $479 forward $378 $-1 #
vertex $-1 $267 $483 #
straight-curve $-1 70.24994659260841 -17.761449974897964 102.81604278281269 0 0 1 I I #
straight-curve $-1 -25.570748903456476 -17.761449974897964 109.81139006956049 0.68199835119979291 0 -0.73135370988377701 I I #
edge $-1 $477 -26.985447216436533 $270 -17.761449974897964 $388 $484 forward 7 unknown #
point $-1 70.24994659260841 -17.761449974897964 14.624578330555588 #
point $-1 63.192386887955237 -17.761449974897964 14.624578330555593 #
edge $-1 $485 1 $485 0 $273 $-1 forward 7 unknown #
vertex $-1 $274 $486 #
ellipse-curve $-1 63.871081310544902 -24.350019433139799 8.1826775449774907 0.73135370988377701 0 0.68199835119979291 0.68199835119979291 0 -0.73135370988377701 1 I I #
point $-1 67.403165091481597 -24.350019433139799 10.109071430532879 #
edge $-1 $487 1 $487 0 $277 $-1 forward 7 unknown #
vertex $-1 $278 $488 #
ellipse-curve $-1 63.871081310544902 -20.396877758194698 8.1826775449774907 0.73135370988377701 0 0.68199835119979291 0.68199835119979291 0 -0.73135370988377701 1 I I #
point $-1 67.403165091481597 -20.396877758194698 10.109071430532879 #
loop $-1 $-1 $290 $281 #
plane-surface $-1 0 37.501941459005245 0 0 -1 0 0 0 -1 forward_v I I I I #
coedge $-1 $489 $284 $289 $412 forward $179 $-1 #
coedge $-1 $284 $489 $409 $490 reversed $179 $-1 #
edge $-1 $410 88.191464452257094 $417 95.759770832534926 $284 $491 forward 7 unknown #
coedge $-1 $293 $287 $407 $490 forward $282 $-1 #
vertex $-1 $490 $492 #
straight-curve $-1 38.592184607913126 28.277944217466676 14.624578330555593 1 0 0 I I #
edge $-1 $417 11.832972798348695 $415 21.056970039887265 $406 $493 forward 7 unknown #
coedge $-1 $414 $290 $293 $419 reversed $404 $-1 #
coedge $-1 $290 $413 $489 $494 forward $404 $-1 #
vertex $-1 $291 $495 #
straight-curve $-1 7.7619805634235988 37.501941459005245 74.066413101114065 -0.68199835119979291 0 0.73135370988377701 I I #
vertex $-1 $412 $496 #
straight-curve $-1 -25.570748903456476 28.277944217466676 109.81139006956049 -0.68199835119979291 0 0.73135370988377701 I I #
edge $-1 $497 -70.24994659260841 $294 -63.192386887955237 $413 $498 forward 7 unknown #
point $-1 63.192386887955237 37.501941459005245 14.624578330555593 #
point $-1 63.192386887955237 28.277944217466676 14.624578330555593 #
edge $-1 $499 1 $499 0 $297 $-1 forward 7 unknown #
vertex $-1 $298 $500 #
ellipse-curve $-1 63.871081310544902 30.91337200076341 8.1826775449774907 0.73135370988377701 0 0.68199835119979291 0.68199835119979291 0 -0.73135370988377701 1 I I #
point $-1 67.403165091481597 30.91337200076341 10.109071430532879 #
edge $-1 $501 1 $501 0 $301 $-1 forward 7 unknown #
vertex $-1 $302 $502 #
ellipse-curve $-1 63.871081310544902 34.866513675708511 8.1826775449774907 0.73135370988377701 0 0.68199835119979291 0.68199835119979291 0 -0.73135370988377701 1 I I #
point $-1 67.403165091481597 34.866513675708511 10.109071430532879 #
plane-surface $-1 70.24994659260841 0 0 -1 0 0 0 0 1 forward_v I I I I #
coedge $-1 $310 $308 $312 $435 reversed $201 $-1 #
edge $-1 $323 -14.624578330555588 $437 14.624578330555588 $322 $503 forward 7 unknown #
vertex $-1 $435 $504 #
straight-curve $-1 -70.24994659260841 -37.501941459005245 0 0 0 -1 I I #
edge $-1 $433 -37.501941459005245 $437 37.501941459005245 $431 $505 forward 7 unknown #
straight-curve $-1 0 -37.501941459005245 -14.624578330555588 -1 0 0 I I #
vertex $-1 $315 $506 #
straight-curve $-1 0 37.501941459005245 -14.624578330555588 1 0 0 I I #
point $-1 70.24994659260841 37.501941459005245 -14.624578330555588 #
point $-1 70.24994659260841 -37.501941459005245 -14.624578330555588 #
straight-curve $-1 -70.24994659260841 0 14.624578330555588 0 -1 0 I I #
point $-1 -70.24994659260841 37.501941459005245 14.624578330555588 #
point $-1 -70.24994659260841 -37.501941459005245 14.624578330555588 #
straight-curve $-1 70.24994659260841 -37.501941459005245 0 0 0 -1 I I #
straight-curve $-1 70.24994659260841 37.501941459005245 0 0 0 -1 I I #
plane-surface $-1 70.24994659260841 0 0 -1 0 0 0 0 1 forward_v I I I I #
coedge $-1 $450 $335 $346 $459 forward $220 $-1 #
coedge $-1 $335 $450 $349 $461 reversed $220 $-1 #
straight-curve $-1 70.24994659260841 -26.985447216436533 -0.50927268333569753 0 0 1 I I #
coedge $-1 $448 $447 $338 $451 forward $220 $-1 #
edge $-1 $454 10.863600047576089 $452 21.3800942901448 $450 $507 forward 7 unknown #
vertex $-1 $340 $508 #
straight-curve $-1 0 -37.501941459005245 -4.8944357649494732 1 0 0 I I #
vertex $-1 $451 $509 #
straight-curve $-1 0 -26.985447216436533 -4.8944357649494732 1 0 0 I I #
point $-1 70.24994659260841 -37.501941459005245 -4.8944357649494732 #
point $-1 70.24994659260841 -26.985447216436533 -4.8944357649494732 #
straight-curve $-1 -70.24994659260841 -16.121847168860445 2.8573450316066831 0 1 0 I I #
edge $-1 $347 -3.3666177149423806 $454 4.3851630816137757 $447 $510 forward 7 unknown #
point $-1 -70.24994659260841 -26.985447216436533 2.8573450316066831 #
edge $-1 $351 -2.8573450316066831 $452 4.8944357649494732 $448 $511 forward 7 unknown #
point $-1 -70.24994659260841 -37.501941459005245 2.8573450316066831 #
straight-curve $-1 70.24994659260841 -37.501941459005245 0 0 0 -1 I I #
edge $-1 $465 45.176209005453558 $468 50.914638527031912 $357 $512 forward 7 unknown #
vertex $-1 $371 $513 #
straight-curve $-1 -78.37515959943704 -19.113408092839634 14.624578330555586 -1 0 0 I I #
edge $-1 $468 7.5886942655205925 $368 15.460733389117491 $367 $514 forward 7 unknown #
vertex $-1 $467 $515 #
straight-curve $-1 -70.249946592608424 -19.113408092839634 8.8861488089772251 0.78801074757464917 0 0.61566148304635926 I I #
point $-1 -62.905091892866068 -19.113408092839634 14.624578330555586 #
point $-1 -70.24994659260841 -26.985447216436533 8.8861488089772358 #
straight-curve $-1 -70.24994659260841 0 14.624578330555588 0 -1 0 I I #
vertex $-1 $374 $516 #
point $-1 -62.991103308683321 -23.049427654638084 9.6013644357851859 #
coedge $-1 $389 $388 $381 $476 forward $378 $-1 #
edge $-1 $477 88.191464452257094 $480 95.759770832534926 $475 $517 forward 7 unknown #
vertex $-1 $393 $518 #
straight-curve $-1 38.592184607913126 -26.985447216436533 14.624578330555593 1 0 0 I I #
edge $-1 $480 -15.798722918602909 $390 -6.5747256770643396 $389 $519 forward 7 unknown #
vertex $-1 $479 $520 #
straight-curve $-1 -25.570748903456476 -26.985447216436533 109.81139006956049 -0.68199835119979291 0 0.73135370988377701 I I #
point $-1 63.192386887955237 -26.985447216436533 14.624578330555593 #
point $-1 70.24994659260841 -17.761449974897964 7.0562719502777611 #
straight-curve $-1 70.24994659260841 0 14.624578330555588 0 1 0 I I #
vertex $-1 $396 $521 #
point $-1 64.55307966174469 -24.350019433139799 7.4513238350937145 #
vertex $-1 $400 $522 #
point $-1 64.55307966174469 -20.396877758194698 7.4513238350937145 #
coedge $-1 $407 $406 $414 $494 reversed $179 $-1 #
edge $-1 $410 28.277944217466676 $497 37.501941459005245 $407 $523 forward 7 unknown #
straight-curve $-1 70.24994659260841 28.277944217466676 102.81604278281269 0 0 -1 I I #
point $-1 70.24994659260841 28.277944217466676 14.624578330555588 #
straight-curve $-1 70.24994659260841 16.44497141911798 7.0562719502777753 0 1 0 I I #
edge $-1 $497 -14.624578330555588 $415 -7.0562719502777611 $489 $524 forward 7 unknown #
point $-1 70.24994659260841 37.501941459005245 7.0562719502777611 #
point $-1 70.24994659260841 28.277944217466676 7.0562719502777611 #
vertex $-1 $490 $525 #
straight-curve $-1 0 37.501941459005245 14.624578330555588 -1 0 0 I I #
vertex $-1 $422 $526 #
point $-1 64.55307966174469 30.91337200076341 7.4513238350937145 #
vertex $-1 $426 $527 #
point $-1 64.55307966174469 34.866513675708511 7.4513238350937145 #
straight-curve $-1 -70.24994659260841 37.501941459005245 0 0 0 -1 I I #
point $-1 -70.24994659260841 -37.501941459005245 -14.624578330555588 #
straight-curve $-1 -70.24994659260841 0 -14.624578330555588 0 1 0 I I #
point $-1 -70.24994659260841 37.501941459005245 -14.624578330555588 #
straight-curve $-1 -70.24994659260841 -16.121847168860445 -4.8944357649494732 0 -1 0 I I #
point $-1 -70.24994659260841 -37.501941459005245 -4.8944357649494732 #
point $-1 -70.24994659260841 -26.985447216436533 -4.8944357649494732 #
straight-curve $-1 -70.24994659260841 -26.985447216436533 -0.50927268333569753 0 0 -1 I I #
straight-curve $-1 -70.24994659260841 -37.501941459005245 0 0 0 -1 I I #
straight-curve $-1 -70.24994659260841 -19.113408092839634 59.800787336009144 0 0 -1 I I #
point $-1 -70.24994659260841 -19.113408092839634 14.624578330555588 #
straight-curve $-1 -70.24994659260841 -11.524713827319042 8.886148808977234 0 -1 0 I I #
point $-1 -70.24994659260841 -19.113408092839634 8.8861488089772358 #
point $-1 -63.249627205475754 -23.049427654638084 7.4958560898536737 #
straight-curve $-1 70.24994659260841 -26.985447216436533 102.81604278281269 0 0 -1 I I #
point $-1 70.24994659260841 -26.985447216436533 14.624578330555588 #
straight-curve $-1 70.24994659260841 -11.186724297833624 7.0562719502777753 0 1 0 I I #
point $-1 70.24994659260841 -26.985447216436533 7.0562719502777611 #
point $-1 63.139727600661125 -24.350019433139799 7.5006791937776987 #
point $-1 63.139727600661125 -20.396877758194698 7.5006791937776987 #
straight-curve $-1 70.24994659260841 0 14.624578330555588 0 1 0 I I #
straight-curve $-1 70.24994659260841 37.501941459005245 0 0 0 -1 I I #
point $-1 70.24994659260841 37.501941459005245 14.624578330555588 #
point $-1 63.139727600661125 30.91337200076341 7.5006791937776987 #
point $-1 63.139727600661125 34.866513675708511 7.5006791937776987 #
End-of-ACIS-data 