500 0 9 0           
7 Unknown 11 ACIS 5.0 NT 24 Fri Mar 26 14:22:05 1999 
-1 9.9999999999999995e-007 1e-010 
body $-1 $9 $-1 $10 #
body $-1 $11 $-1 $12 #
body $-1 $13 $-1 $14 #
body $-1 $15 $-1 $16 #
body $-1 $17 $-1 $18 #
body $-1 $19 $-1 $20 #
body $-1 $21 $-1 $22 #
body $-1 $23 $-1 $24 #
body $-1 $25 $-1 $26 #
lump $-1 $-1 $27 $0 #
transform $-1 1 0 0 0 1 0 0 0 1 41.043733024079103 25.869063139942355 10.355993799611801 1 rotate no_reflect no_shear #
lump $-1 $-1 $28 $1 #
transform $-1 1 0 0 0 1 0 0 0 1 41.043733024079103 25.869063139942355 10.355993799611801 1 rotate no_reflect no_shear #
lump $-1 $-1 $29 $2 #
transform $-1 1 0 0 0 1 0 0 0 1 41.043733024079103 25.869063139942355 10.355993799611801 1 rotate no_reflect no_shear #
lump $-1 $-1 $30 $3 #
transform $-1 1 0 0 0 1 0 0 0 1 41.043733024079103 25.869063139942355 10.355993799611801 1 rotate no_reflect no_shear #
lump $-1 $-1 $31 $4 #
transform $-1 1 0 0 0 1 0 0 0 1 41.043733024079103 25.869063139942355 10.355993799611801 1 rotate no_reflect no_shear #
lump $-1 $-1 $32 $5 #
transform $-1 1 0 0 0 1 0 0 0 1 41.043733024079103 25.869063139942355 10.355993799611801 1 rotate no_reflect no_shear #
lump $-1 $-1 $33 $6 #
transform $-1 1 0 0 0 1 0 0 0 1 41.043733024079103 25.869063139942355 10.355993799611801 1 rotate no_reflect no_shear #
lump $-1 $-1 $34 $7 #
transform $-1 1 0 0 0 1 0 0 0 1 41.043733024079103 25.869063139942355 10.355993799611801 1 rotate no_reflect no_shear #
lump $-1 $-1 $35 $8 #
transform $-1 1 0 0 0 1 0 0 0 1 41.043733024079103 25.869063139942355 10.355993799611801 1 rotate no_reflect no_shear #
shell $-1 $-1 $-1 $36 $-1 $9 #
shell $-1 $-1 $-1 $37 $-1 $11 #
shell $-1 $-1 $-1 $38 $-1 $13 #
shell $-1 $-1 $-1 $39 $-1 $15 #
shell $-1 $-1 $-1 $40 $-1 $17 #
shell $-1 $-1 $-1 $41 $-1 $19 #
shell $-1 $-1 $-1 $42 $-1 $21 #
shell $-1 $-1 $-1 $43 $-1 $23 #
shell $-1 $-1 $-1 $44 $-1 $25 #
face $-1 $45 $46 $27 $-1 $47 forward single #
face $-1 $48 $49 $28 $-1 $50 reversed single #
face $-1 $51 $52 $29 $-1 $53 reversed single #
face $-1 $54 $55 $30 $-1 $56 forward single #
face $-1 $57 $58 $31 $-1 $59 forward single #
face $-1 $60 $61 $32 $-1 $62 forward single #
face $-1 $63 $64 $33 $-1 $65 reversed single #
face $-1 $66 $67 $34 $-1 $68 forward single #
face $-1 $69 $70 $35 $-1 $71 forward single #
face $-1 $72 $73 $27 $-1 $74 reversed single #
loop $-1 $-1 $75 $36 #
plane-surface $-1 0 0 10.355993799611801 0 0 1 1 0 0 forward_v I I I I #
face $-1 $76 $77 $28 $-1 $78 reversed single #
loop $-1 $-1 $79 $37 #
plane-surface $-1 0 -21.129003383249042 5.6993837515536843 0 0 1 1 0 0 forward_v I I I I #
face $-1 $80 $81 $29 $-1 $82 reversed single #
loop $-1 $-1 $83 $38 #
plane-surface $-1 34.968094580518112 20.951087251284203 117.26270781231807 0 -1 0 -0.66913061440640931 0 -0.74314481823134659 forward_v I I I I #
face $-1 $84 $85 $30 $-1 $86 forward single #
loop $-1 $87 $88 $39 #
cone-surface $-1 35.698418667473277 15.131024273254027 5.4727225831993964 -0.66913061440640931 0 -0.74314481823134659 0.3715724091156733 0 -0.33456530720320465 1 I I 0 1 0.5 forward I I I I #
face $-1 $89 $90 $31 $-1 $91 forward single #
loop $-1 $92 $93 $40 #
cone-surface $-1 35.698418667473277 17.313547890015343 5.4727225831993964 -0.66913061440640931 0 -0.74314481823134659 0.3715724091156733 0 -0.33456530720320465 1 I I 0 1 0.5 forward I I I I #
face $-1 $94 $95 $32 $-1 $96 forward single #
loop $-1 $97 $98 $41 #
cone-surface $-1 35.698418667473277 19.496071506776659 5.4727225831993964 -0.66913061440640931 0 -0.74314481823134659 0.3715724091156733 0 -0.33456530720320465 1 I I 0 1 0.5 forward I I I I #
face $-1 $99 $100 $33 $-1 $101 reversed single #
loop $-1 $-1 $102 $42 #
plane-surface $-1 -104.83767642893866 -12.945822030136641 55.246055497287252 0 1 0 -0.77714596973225614 0 0.62932038083071107 forward_v I I I I #
face $-1 $103 $104 $34 $-1 $105 forward single #
loop $-1 $106 $107 $43 #
cone-surface $-1 -37.67645251674476 -11.052089633375925 6.4640665814682956 0.77714596973225614 0 -0.62932038083071107 0.31466019041535553 0 0.38857298486612807 1 I I 0 1 0.5 forward I I I I #
face $-1 $108 $109 $35 $-1 $110 forward single #
loop $-1 $111 $112 $44 #
cone-surface $-1 -37.67645251674476 -8.211491038234854 6.4640665814682956 0.77714596973225614 0 -0.62932038083071107 0.31466019041535553 0 0.38857298486612807 1 I I 0 1 0.5 forward I I I I #
face $-1 $113 $114 $27 $-1 $115 reversed single #
loop $-1 $-1 $116 $45 #
plane-surface $-1 0 0 -10.355993799611801 0 0 1 1 0 0 forward_v I I I I #
coedge $-1 $117 $118 $119 $120 forward $46 $-1 #
face $-1 $121 $122 $28 $-1 $123 reversed single #
loop $-1 $-1 $124 $48 #
plane-surface $-1 0 -16.388943626555729 8.0276887755827442 0 -1 0 0 0 -1 forward_v I I I I #
coedge $-1 $125 $126 $127 $128 reversed $49 $-1 #
face $-1 $129 $130 $29 $-1 $131 reversed single #
loop $-1 $-1 $132 $51 #
plane-surface $-1 -19.959142011351254 17.313547890015343 56.259832776887706 0.66913061440640931 0 0.74314481823134659 0.74314481823134659 0 -0.66913061440640931 forward_v I I I I #
coedge $-1 $133 $134 $135 $136 reversed $52 $-1 #
face $-1 $-1 $137 $30 $-1 $138 forward single #
loop $-1 $139 $140 $54 #
cone-surface $-1 35.196570706668467 15.131024273254027 4.9153639695258864 -0.66913061440640931 0 -0.74314481823134659 0.18578620455783665 0 -0.16728265360160233 1 I I -0.70710678118654746 0.70710678118654746 0.25 forward I I I I #
loop $-1 $-1 $141 $39 #
coedge $-1 $88 $88 $142 $143 reversed $55 $-1 #
face $-1 $-1 $144 $31 $-1 $145 forward single #
loop $-1 $146 $147 $57 #
cone-surface $-1 35.196570706668467 17.313547890015343 4.9153639695258864 -0.66913061440640931 0 -0.74314481823134659 0.18578620455783665 0 -0.16728265360160233 1 I I -0.70710678118654746 0.70710678118654746 0.25 forward I I I I #
loop $-1 $-1 $148 $40 #
coedge $-1 $93 $93 $149 $150 reversed $58 $-1 #
face $-1 $-1 $151 $32 $-1 $152 forward single #
loop $-1 $153 $154 $60 #
cone-surface $-1 35.196570706668467 19.496071506776659 4.9153639695258864 -0.66913061440640931 0 -0.74314481823134659 0.18578620455783665 0 -0.16728265360160233 1 I I -0.70710678118654746 0.70710678118654746 0.25 forward I I I I #
loop $-1 $-1 $155 $41 #
coedge $-1 $98 $98 $156 $157 reversed $61 $-1 #
face $-1 $158 $159 $33 $-1 $160 reversed single #
loop $-1 $-1 $161 $63 #
plane-surface $-1 -41.043733024079103 -9.6317903358053911 3.586740102432266 -0.77714596973225614 0 0.62932038083071107 0.62932038083071107 0 0.77714596973225614 forward_v I I I I #
coedge $-1 $162 $163 $164 $165 reversed $64 $-1 #
face $-1 $-1 $166 $34 $-1 $167 forward single #
loop $-1 $168 $169 $66 #
cone-surface $-1 -36.855702223597092 -11.052089633375925 5.7994361167068842 0.77714596973225614 0 -0.62932038083071107 0.15733009520767777 0 0.19428649243306403 1 I I -0.70710678118654746 0.70710678118654746 0.25 forward I I I I #
loop $-1 $-1 $170 $43 #
coedge $-1 $107 $107 $171 $172 reversed $67 $-1 #
face $-1 $-1 $173 $35 $-1 $174 forward single #
loop $-1 $175 $176 $69 #
cone-surface $-1 -36.855702223597092 -8.211491038234854 5.7994361167068842 0.77714596973225614 0 -0.62932038083071107 0.15733009520767777 0 0.19428649243306403 1 I I -0.70710678118654746 0.70710678118654746 0.25 forward I I I I #
loop $-1 $-1 $177 $44 #
coedge $-1 $112 $112 $178 $179 reversed $70 $-1 #
face $-1 $180 $181 $27 $-1 $182 reversed single #
loop $-1 $-1 $183 $72 #
plane-surface $-1 0 -25.869063139942355 0 0 1 0 0 0 1 forward_v I I I I #
coedge $-1 $184 $185 $186 $187 forward $73 $-1 #
coedge $-1 $188 $75 $189 $190 forward $46 $-1 #
coedge $-1 $75 $188 $191 $192 forward $46 $-1 #
coedge $-1 $193 $194 $75 $120 reversed $195 $-1 #
edge $-1 $196 -25.869063139942355 $197 25.869063139942355 $119 $198 forward 7 unknown #
face $-1 $199 $200 $28 $-1 $201 reversed single #
loop $-1 $-1 $202 $76 #
plane-surface $-1 -41.043733024079103 0 0 1 0 0 0 0 -1 forward_v I I I I #
coedge $-1 $203 $204 $205 $206 reversed $77 $-1 #
coedge $-1 $207 $79 $208 $209 reversed $49 $-1 #
coedge $-1 $79 $207 $203 $210 forward $49 $-1 #
coedge $-1 $205 $211 $79 $128 forward $212 $-1 #
edge $-1 $213 -15.304561448317834 $214 -5.8244419349312082 $127 $215 forward 7 unknown #
face $-1 $216 $217 $29 $-1 $218 reversed single #
loop $-1 $-1 $219 $80 #
plane-surface $-1 34.968094580518112 13.676008528746483 117.26270781231807 0 1 0 0.66913061440640931 0 0.74314481823134659 forward_v I I I I #
coedge $-1 $220 $221 $222 $223 reversed $81 $-1 #
coedge $-1 $134 $83 $224 $225 reversed $52 $-1 #
coedge $-1 $83 $133 $220 $226 reversed $52 $-1 #
coedge $-1 $222 $227 $83 $136 forward $228 $-1 #
edge $-1 $229 -23.559685733820046 $230 -13.5381876350148 $135 $231 forward 7 unknown #
loop $-1 $-1 $142 $84 #
plane-surface $-1 -19.959142011351254 17.313547890015343 56.259832776887706 0.66913061440640931 0 0.74314481823134659 0.74314481823134659 0 -0.66913061440640931 forward_v I I I I #
loop $-1 $-1 $232 $54 #
coedge $-1 $140 $140 $141 $233 reversed $85 $-1 #
coedge $-1 $141 $141 $140 $233 forward $87 $-1 #
coedge $-1 $142 $142 $88 $143 forward $137 $-1 #
edge $-1 $234 0 $234 6.2831853071796004 $142 $235 forward 7 unknown #
loop $-1 $-1 $149 $89 #
plane-surface $-1 -19.959142011351254 17.313547890015343 56.259832776887706 0.66913061440640931 0 0.74314481823134659 0.74314481823134659 0 -0.66913061440640931 forward_v I I I I #
loop $-1 $-1 $236 $57 #
coedge $-1 $147 $147 $148 $237 reversed $90 $-1 #
coedge $-1 $148 $148 $147 $237 forward $92 $-1 #
coedge $-1 $149 $149 $93 $150 forward $144 $-1 #
edge $-1 $238 0 $238 6.2831853071796004 $149 $239 forward 7 unknown #
loop $-1 $-1 $156 $94 #
plane-surface $-1 -19.959142011351254 17.313547890015343 56.259832776887706 0.66913061440640931 0 0.74314481823134659 0.74314481823134659 0 -0.66913061440640931 forward_v I I I I #
loop $-1 $-1 $240 $60 #
coedge $-1 $154 $154 $155 $241 reversed $95 $-1 #
coedge $-1 $155 $155 $154 $241 forward $97 $-1 #
coedge $-1 $156 $156 $98 $157 forward $151 $-1 #
edge $-1 $242 0 $242 6.2831853071796004 $156 $243 forward 7 unknown #
face $-1 $244 $245 $33 $-1 $246 forward single #
loop $-1 $-1 $247 $99 #
plane-surface $-1 -104.83767642893866 -6.3177586414741409 55.246055497287252 0 -1 0 0.77714596973225614 0 -0.62932038083071107 forward_v I I I I #
coedge $-1 $248 $249 $250 $251 reversed $100 $-1 #
coedge $-1 $163 $102 $252 $253 reversed $64 $-1 #
coedge $-1 $102 $162 $248 $254 reversed $64 $-1 #
coedge $-1 $250 $255 $102 $165 forward $245 $-1 #
edge $-1 $256 11.375105190390229 $257 16.856738603629694 $164 $258 forward 7 unknown #
loop $-1 $-1 $171 $103 #
plane-surface $-1 -41.043733024079103 -9.6317903358053911 3.586740102432266 -0.77714596973225614 0 0.62932038083071107 0.62932038083071107 0 0.77714596973225614 forward_v I I I I #
loop $-1 $-1 $259 $66 #
coedge $-1 $169 $169 $170 $260 reversed $104 $-1 #
coedge $-1 $170 $170 $169 $260 forward $106 $-1 #
coedge $-1 $171 $171 $107 $172 forward $166 $-1 #
edge $-1 $261 0 $261 6.2831853071796004 $171 $262 forward 7 unknown #
loop $-1 $-1 $178 $108 #
plane-surface $-1 -41.043733024079103 -9.6317903358053911 3.586740102432266 -0.77714596973225614 0 0.62932038083071107 0.62932038083071107 0 0.77714596973225614 forward_v I I I I #
loop $-1 $-1 $263 $69 #
coedge $-1 $176 $176 $177 $264 reversed $109 $-1 #
coedge $-1 $177 $177 $176 $264 forward $111 $-1 #
coedge $-1 $178 $178 $112 $179 forward $173 $-1 #
edge $-1 $265 0 $265 6.2831853071796004 $178 $266 forward 7 unknown #
face $-1 $267 $268 $27 $-1 $269 reversed single #
loop $-1 $-1 $270 $113 #
plane-surface $-1 -41.043733024079103 0 0 1 0 0 0 0 -1 forward_v I I I I #
coedge $-1 $271 $191 $272 $273 forward $114 $-1 #
coedge $-1 $274 $116 $271 $275 forward $73 $-1 #
coedge $-1 $116 $274 $276 $277 forward $73 $-1 #
coedge $-1 $194 $193 $116 $187 reversed $195 $-1 #
edge $-1 $278 -25.869063139942355 $279 25.869063139942355 $186 $280 forward 7 unknown #
coedge $-1 $118 $117 $281 $282 forward $46 $-1 #
coedge $-1 $283 $284 $117 $190 reversed $268 $-1 #
edge $-1 $197 -41.043733024079103 $285 41.043733024079103 $189 $286 forward 7 unknown #
coedge $-1 $183 $287 $118 $192 reversed $114 $-1 #
edge $-1 $288 -41.043733024079103 $196 41.043733024079103 $191 $289 forward 7 unknown #
coedge $-1 $186 $119 $287 $290 forward $195 $-1 #
coedge $-1 $119 $186 $283 $291 reversed $195 $-1 #
loop $-1 $-1 $193 $267 #
vertex $-1 $120 $292 #
vertex $-1 $120 $293 #
straight-curve $-1 41.043733024079103 0 10.355993799611801 0 1 0 I I #
face $-1 $294 $295 $28 $-1 $296 forward single #
loop $-1 $-1 $208 $121 #
plane-surface $-1 0 -25.869063139942355 0 0 1 0 0 0 1 forward_v I I I I #
coedge $-1 $297 $298 $299 $300 forward $122 $-1 #
coedge $-1 $299 $124 $126 $210 reversed $77 $-1 #
coedge $-1 $124 $299 $301 $302 reversed $77 $-1 #
coedge $-1 $303 $127 $124 $206 forward $212 $-1 #
edge $-1 $214 1.6855393637623122 $304 6.342149411820432 $205 $305 forward 7 unknown #
coedge $-1 $126 $125 $297 $306 reversed $49 $-1 #
coedge $-1 $307 $308 $125 $209 forward $200 $-1 #
edge $-1 $309 -41.043733024079103 $213 41.043733024079103 $208 $310 forward 7 unknown #
edge $-1 $311 -41.043733024079103 $214 41.043733024079103 $203 $312 forward 7 unknown #
coedge $-1 $127 $303 $307 $313 forward $212 $-1 #
loop $-1 $-1 $205 $294 #
vertex $-1 $209 $314 #
vertex $-1 $128 $315 #
straight-curve $-1 41.043733024079103 -10.564501691624521 5.6993837515536843 0 1 0 I I #
face $-1 $-1 $228 $29 $-1 $316 forward single #
loop $-1 $-1 $317 $129 #
plane-surface $-1 41.043733024079103 0 0 -1 0 0 0 0 1 forward_v I I I I #
coedge $-1 $318 $319 $320 $321 reversed $130 $-1 #
coedge $-1 $322 $132 $134 $226 forward $81 $-1 #
coedge $-1 $132 $322 $318 $323 forward $81 $-1 #
coedge $-1 $320 $135 $132 $223 forward $228 $-1 #
edge $-1 $230 -12.294313306276532 $324 -5.019234583738811 $222 $325 forward 7 unknown #
coedge $-1 $326 $327 $133 $225 forward $217 $-1 #
edge $-1 $328 -57.298757721140682 $229 -48.275360106547232 $224 $329 forward 7 unknown #
edge $-1 $230 68.602210075229536 $328 82.087466048158191 $134 $330 forward 7 unknown #
coedge $-1 $135 $320 $326 $331 forward $228 $-1 #
loop $-1 $-1 $320 $216 #
vertex $-1 $225 $332 #
vertex $-1 $136 $333 #
straight-curve $-1 17.484047290259056 20.951087251284203 10.355993799611802 -1 0 0 I I #
coedge $-1 $232 $232 $-1 $334 reversed $139 $-1 #
edge $-1 $335 0 $335 6.2831853071796004 $140 $336 forward 7 unknown #
vertex $-1 $143 $337 #
ellipse-curve $-1 36.032983974676483 15.131024273254027 5.8442949923150698 0.66913061440640931 0 0.74314481823134659 0.3715724091156733 0 -0.33456530720320465 1 I I #
coedge $-1 $236 $236 $-1 $338 reversed $146 $-1 #
edge $-1 $339 0 $339 6.2831853071796004 $147 $340 forward 7 unknown #
vertex $-1 $150 $341 #
ellipse-curve $-1 36.032983974676483 17.313547890015343 5.8442949923150698 0.66913061440640931 0 0.74314481823134659 0.3715724091156733 0 -0.33456530720320465 1 I I #
coedge $-1 $240 $240 $-1 $342 reversed $153 $-1 #
edge $-1 $343 0 $343 6.2831853071796004 $154 $344 forward 7 unknown #
vertex $-1 $157 $345 #
ellipse-curve $-1 36.032983974676483 19.496071506776659 5.8442949923150698 0.66913061440640931 0 0.74314481823134659 0.3715724091156733 0 -0.33456530720320465 1 I I #
face $-1 $-1 $346 $33 $-1 $347 reversed single #
loop $-1 $-1 $164 $158 #
plane-surface $-1 0 0 10.355993799611801 0 0 1 1 0 0 forward_v I I I I #
coedge $-1 $348 $349 $350 $351 reversed $159 $-1 #
coedge $-1 $352 $161 $163 $254 forward $100 $-1 #
coedge $-1 $161 $352 $348 $353 forward $100 $-1 #
coedge $-1 $350 $164 $161 $251 forward $245 $-1 #
edge $-1 $257 -8.1299268622339458 $354 -1.5018634735714453 $250 $355 forward 7 unknown #
coedge $-1 $356 $357 $162 $253 forward $346 $-1 #
edge $-1 $358 -24.03628764621136 $256 -17.267033949031827 $252 $359 forward 7 unknown #
edge $-1 $257 -8.7104018560524601 $358 0 $163 $360 forward 7 unknown #
coedge $-1 $164 $350 $356 $361 forward $245 $-1 #
vertex $-1 $253 $362 #
vertex $-1 $165 $363 #
straight-curve $-1 -52.418838214469332 -12.945822030136641 10.355993799611802 1 0 0 I I #
coedge $-1 $259 $259 $-1 $364 reversed $168 $-1 #
edge $-1 $365 0 $365 6.2831853071796004 $169 $366 forward 7 unknown #
vertex $-1 $172 $367 #
ellipse-curve $-1 -38.302916317459371 -11.052089633375925 6.9713669510220342 -0.77714596973225614 0 0.62932038083071107 0.31466019041535553 0 0.38857298486612807 1 I I #
coedge $-1 $263 $263 $-1 $368 reversed $175 $-1 #
edge $-1 $369 0 $369 6.2831853071796004 $176 $370 forward 7 unknown #
vertex $-1 $179 $371 #
ellipse-curve $-1 -38.302916317459371 -8.211491038234854 6.9713669510220342 -0.77714596973225614 0 0.62932038083071107 0.31466019041535553 0 0.38857298486612807 1 I I #
face $-1 $-1 $195 $27 $-1 $372 reversed single #
loop $-1 $-1 $283 $180 #
plane-surface $-1 0 25.869063139942355 0 0 -1 0 0 0 -1 forward_v I I I I #
coedge $-1 $373 $281 $284 $374 forward $181 $-1 #
coedge $-1 $287 $183 $184 $275 reversed $114 $-1 #
coedge $-1 $281 $373 $183 $273 reversed $181 $-1 #
edge $-1 $288 -10.355993799611801 $375 10.355993799611801 $272 $376 forward 7 unknown #
coedge $-1 $185 $184 $373 $377 forward $73 $-1 #
edge $-1 $279 -41.043733024079103 $375 41.043733024079103 $271 $378 forward 7 unknown #
coedge $-1 $284 $283 $185 $277 reversed $268 $-1 #
edge $-1 $379 -41.043733024079103 $278 41.043733024079103 $276 $380 forward 7 unknown #
vertex $-1 $187 $381 #
vertex $-1 $290 $382 #
straight-curve $-1 41.043733024079103 0 -10.355993799611801 0 -1 0 I I #
coedge $-1 $270 $272 $188 $282 reversed $181 $-1 #
edge $-1 $285 -25.869063139942355 $288 25.869063139942355 $281 $383 forward 7 unknown #
coedge $-1 $276 $189 $194 $291 forward $268 $-1 #
coedge $-1 $189 $276 $270 $374 reversed $268 $-1 #
vertex $-1 $190 $384 #
straight-curve $-1 0 25.869063139942355 10.355993799611801 -1 0 0 I I #
coedge $-1 $191 $271 $193 $290 reversed $114 $-1 #
vertex $-1 $282 $385 #
straight-curve $-1 0 -25.869063139942355 10.355993799611801 1 0 0 I I #
edge $-1 $196 -10.355993799611801 $279 10.355993799611801 $193 $386 forward 7 unknown #
edge $-1 $197 -10.355993799611801 $278 10.355993799611801 $194 $387 forward 7 unknown #
point $-1 41.043733024079103 -25.869063139942355 10.355993799611801 #
point $-1 41.043733024079103 25.869063139942355 10.355993799611801 #
face $-1 $-1 $212 $28 $-1 $388 reversed single #
loop $-1 $-1 $301 $199 #
plane-surface $-1 0 0 10.355993799611801 0 0 1 1 0 0 forward_v I I I I #
coedge $-1 $389 $202 $207 $306 forward $122 $-1 #
coedge $-1 $202 $389 $390 $391 reversed $122 $-1 #
coedge $-1 $204 $203 $202 $300 reversed $77 $-1 #
edge $-1 $392 -6.342149411820432 $311 -1.6855393637623122 $202 $393 forward 7 unknown #
coedge $-1 $390 $394 $204 $302 forward $295 $-1 #
edge $-1 $304 -41.043733024079103 $392 41.043733024079103 $301 $395 forward 7 unknown #
coedge $-1 $211 $205 $394 $396 reversed $212 $-1 #
vertex $-1 $206 $397 #
straight-curve $-1 41.043733024079103 -16.388943626555729 4.0138443877913721 0 0 1 I I #
edge $-1 $311 5.8244419349312082 $309 15.304561448317834 $297 $398 forward 7 unknown #
coedge $-1 $399 $208 $211 $313 reversed $200 $-1 #
coedge $-1 $208 $399 $389 $400 forward $200 $-1 #
vertex $-1 $209 $401 #
straight-curve $-1 0 -25.869063139942355 5.6993837515536843 1 0 0 I I #
vertex $-1 $306 $402 #
straight-curve $-1 0 -16.388943626555729 5.6993837515536843 1 0 0 I I #
edge $-1 $403 -10.355993799611801 $213 -5.6993837515536843 $211 $404 forward 7 unknown #
point $-1 41.043733024079103 -25.869063139942355 5.6993837515536843 #
point $-1 41.043733024079103 -16.388943626555729 5.6993837515536843 #
plane-surface $-1 0 0 10.355993799611801 0 0 1 1 0 0 forward_v I I I I #
coedge $-1 $327 $326 $319 $405 forward $217 $-1 #
coedge $-1 $319 $219 $221 $323 reversed $130 $-1 #
coedge $-1 $219 $318 $317 $405 reversed $130 $-1 #
coedge $-1 $227 $222 $219 $321 forward $228 $-1 #
edge $-1 $324 13.5381876350148 $406 23.559685733820046 $320 $407 forward 7 unknown #
coedge $-1 $221 $220 $327 $408 reversed $81 $-1 #
edge $-1 $409 -82.087466048158191 $324 -68.602210075229536 $318 $410 forward 7 unknown #
vertex $-1 $223 $411 #
straight-curve $-1 31.022234925273857 8.6567739450076715 10.355993799611795 0 -1 0 I I #
coedge $-1 $317 $224 $227 $331 reversed $217 $-1 #
coedge $-1 $224 $317 $322 $408 forward $217 $-1 #
vertex $-1 $225 $412 #
straight-curve $-1 41.043733024079103 20.951087251284203 58.631353906159035 0 0 1 I I #
straight-curve $-1 -19.959142011351254 20.951087251284203 56.259832776887706 0.74314481823134659 0 -0.66913061440640931 I I #
edge $-1 $406 13.676008528746483 $229 20.951087251284203 $326 $413 forward 7 unknown #
point $-1 41.043733024079103 20.951087251284203 10.355993799611801 #
point $-1 31.022234925273857 20.951087251284203 10.355993799611802 #
edge $-1 $414 1 $414 0 $232 $-1 forward 7 unknown #
vertex $-1 $233 $415 #
ellipse-curve $-1 35.36385336027007 15.131024273254027 5.1011501740837231 0.66913061440640931 0 0.74314481823134659 0.3715724091156733 0 -0.33456530720320465 1 I I #
point $-1 36.404556383792155 15.131024273254027 5.5097296851118651 #
edge $-1 $416 1 $416 0 $236 $-1 forward 7 unknown #
vertex $-1 $237 $417 #
ellipse-curve $-1 35.36385336027007 17.313547890015343 5.1011501740837231 0.66913061440640931 0 0.74314481823134659 0.3715724091156733 0 -0.33456530720320465 1 I I #
point $-1 36.404556383792155 17.313547890015343 5.5097296851118651 #
edge $-1 $418 1 $418 0 $240 $-1 forward 7 unknown #
vertex $-1 $241 $419 #
ellipse-curve $-1 35.36385336027007 19.496071506776659 5.1011501740837231 0.66913061440640931 0 0.74314481823134659 0.3715724091156733 0 -0.33456530720320465 1 I I #
point $-1 36.404556383792155 19.496071506776659 5.5097296851118651 #
loop $-1 $-1 $252 $244 #
plane-surface $-1 -41.043733024079103 0 0 1 0 0 0 0 -1 forward_v I I I I #
coedge $-1 $349 $247 $249 $353 reversed $159 $-1 #
coedge $-1 $247 $348 $420 $421 reversed $159 $-1 #
coedge $-1 $255 $250 $247 $351 forward $245 $-1 #
edge $-1 $354 -16.856738603629694 $422 -11.375105190390229 $350 $423 forward 7 unknown #
coedge $-1 $249 $248 $357 $424 reversed $100 $-1 #
edge $-1 $425 0 $354 8.7104018560524601 $348 $426 forward 7 unknown #
vertex $-1 $251 $427 #
straight-curve $-1 -35.562099610839638 -4.8158951679026956 10.355993799611801 0 1 0 I I #
coedge $-1 $420 $252 $255 $361 reversed $346 $-1 #
coedge $-1 $252 $420 $352 $424 forward $346 $-1 #
vertex $-1 $253 $428 #
straight-curve $-1 -41.043733024079103 -12.945822030136641 27.623027748643626 0 0 1 I I #
straight-curve $-1 -41.043733024079103 -12.945822030136641 3.586740102432266 -0.62932038083071107 0 -0.77714596973225614 I I #
edge $-1 $422 6.3177586414741409 $256 12.945822030136641 $356 $429 forward 7 unknown #
point $-1 -41.043733024079103 -12.945822030136641 10.355993799611801 #
point $-1 -35.562099610839638 -12.945822030136641 10.355993799611801 #
edge $-1 $430 1 $430 0 $259 $-1 forward 7 unknown #
vertex $-1 $260 $431 #
ellipse-curve $-1 -37.049988716030157 -11.052089633375925 5.9567662119145623 -0.77714596973225614 0 0.62932038083071107 0.31466019041535553 0 0.38857298486612807 1 I I #
point $-1 -37.988256127044004 -11.052089633375925 7.3599399358881579 #
edge $-1 $432 1 $432 0 $263 $-1 forward 7 unknown #
vertex $-1 $264 $433 #
ellipse-curve $-1 -37.049988716030157 -8.211491038234854 5.9567662119145623 -0.77714596973225614 0 0.62932038083071107 0.31466019041535553 0 0.38857298486612807 1 I I #
point $-1 -37.988256127044004 -8.211491038234854 7.3599399358881579 #
plane-surface $-1 41.043733024079103 0 0 -1 0 0 0 0 1 forward_v I I I I #
coedge $-1 $272 $270 $274 $377 reversed $181 $-1 #
edge $-1 $285 -10.355993799611801 $379 10.355993799611801 $284 $434 forward 7 unknown #
vertex $-1 $377 $435 #
straight-curve $-1 -41.043733024079103 -25.869063139942355 0 0 0 -1 I I #
edge $-1 $375 -25.869063139942355 $379 25.869063139942355 $373 $436 forward 7 unknown #
straight-curve $-1 0 -25.869063139942355 -10.355993799611801 -1 0 0 I I #
vertex $-1 $277 $437 #
straight-curve $-1 0 25.869063139942355 -10.355993799611801 1 0 0 I I #
point $-1 41.043733024079103 25.869063139942355 -10.355993799611801 #
point $-1 41.043733024079103 -25.869063139942355 -10.355993799611801 #
straight-curve $-1 -41.043733024079103 0 10.355993799611801 0 -1 0 I I #
point $-1 -41.043733024079103 25.869063139942355 10.355993799611801 #
point $-1 -41.043733024079103 -25.869063139942355 10.355993799611801 #
straight-curve $-1 41.043733024079103 -25.869063139942355 0 0 0 -1 I I #
straight-curve $-1 41.043733024079103 25.869063139942355 0 0 0 -1 I I #
plane-surface $-1 41.043733024079103 0 0 -1 0 0 0 0 1 forward_v I I I I #
coedge $-1 $298 $297 $308 $400 reversed $122 $-1 #
coedge $-1 $438 $301 $298 $391 forward $295 $-1 #
edge $-1 $392 16.388943626555729 $439 25.869063139942355 $298 $440 forward 7 unknown #
vertex $-1 $391 $441 #
straight-curve $-1 -41.043733024079103 -16.388943626555729 4.0138443877913721 0 0 -1 I I #
coedge $-1 $301 $438 $303 $396 forward $295 $-1 #
straight-curve $-1 0 -16.388943626555729 10.355993799611801 -1 0 0 I I #
edge $-1 $403 -25.869063139942355 $304 -16.388943626555729 $303 $442 forward 7 unknown #
point $-1 41.043733024079103 -16.388943626555729 10.355993799611804 #
straight-curve $-1 -41.043733024079103 -10.564501691624521 5.6993837515536843 0 -1 0 I I #
coedge $-1 $308 $307 $438 $443 reversed $200 $-1 #
edge $-1 $439 -10.355993799611801 $309 -5.6993837515536843 $389 $444 forward 7 unknown #
point $-1 -41.043733024079103 -25.869063139942355 5.6993837515536843 #
point $-1 -41.043733024079103 -16.388943626555729 5.6993837515536843 #
vertex $-1 $396 $445 #
straight-curve $-1 41.043733024079103 -25.869063139942355 0 0 0 -1 I I #
edge $-1 $406 48.275360106547232 $409 57.298757721140682 $317 $446 forward 7 unknown #
vertex $-1 $331 $447 #
straight-curve $-1 17.484047290259056 13.676008528746483 10.355993799611802 1 0 0 I I #
edge $-1 $409 5.019234583738811 $328 12.294313306276532 $327 $448 forward 7 unknown #
vertex $-1 $408 $449 #
straight-curve $-1 -19.959142011351254 13.676008528746483 56.259832776887706 -0.74314481823134659 0 0.66913061440640931 I I #
point $-1 31.022234925273857 13.676008528746483 10.355993799611802 #
point $-1 41.043733024079103 20.951087251284203 1.3325961850183532 #
straight-curve $-1 41.043733024079103 0 10.355993799611801 0 1 0 I I #
vertex $-1 $334 $450 #
point $-1 35.735425769385742 15.131024273254027 4.7665848668805184 #
vertex $-1 $338 $451 #
point $-1 35.735425769385742 17.313547890015343 4.7665848668805184 #
vertex $-1 $342 $452 #
point $-1 35.735425769385742 19.496071506776659 4.7665848668805184 #
coedge $-1 $357 $356 $349 $421 forward $346 $-1 #
edge $-1 $422 17.267033949031827 $425 24.03628764621136 $420 $453 forward 7 unknown #
vertex $-1 $361 $454 #
straight-curve $-1 -52.418838214469332 -6.3177586414741409 10.355993799611802 -1 0 0 I I #
edge $-1 $425 1.5018634735714453 $358 8.1299268622339458 $357 $455 forward 7 unknown #
vertex $-1 $424 $456 #
straight-curve $-1 -41.043733024079103 -6.3177586414741409 3.586740102432266 0.62932038083071107 0 0.77714596973225614 I I #
point $-1 -35.562099610839638 -6.3177586414741409 10.355993799611801 #
point $-1 -41.043733024079103 -12.945822030136641 3.586740102432266 #
straight-curve $-1 -41.043733024079103 0 10.355993799611801 0 -1 0 I I #
vertex $-1 $364 $457 #
point $-1 -36.735328525614797 -11.052089633375925 6.3453391967806905 #
vertex $-1 $368 $458 #
point $-1 -36.735328525614797 -8.211491038234854 6.3453391967806905 #
straight-curve $-1 -41.043733024079103 25.869063139942355 0 0 0 -1 I I #
point $-1 -41.043733024079103 -25.869063139942355 -10.355993799611801 #
straight-curve $-1 -41.043733024079103 0 -10.355993799611801 0 1 0 I I #
point $-1 -41.043733024079103 25.869063139942355 -10.355993799611801 #
coedge $-1 $394 $390 $399 $443 forward $295 $-1 #
vertex $-1 $391 $459 #
straight-curve $-1 -41.043733024079103 0 10.355993799611801 0 -1 0 I I #
point $-1 -41.043733024079103 -16.388943626555729 10.355993799611804 #
straight-curve $-1 41.043733024079103 0 10.355993799611801 0 1 0 I I #
edge $-1 $439 -41.043733024079103 $403 41.043733024079103 $399 $460 forward 7 unknown #
straight-curve $-1 -41.043733024079103 -25.869063139942355 0 0 0 -1 I I #
point $-1 41.043733024079103 -25.869063139942355 10.355993799611801 #
straight-curve $-1 41.043733024079103 13.676008528746483 58.631353906159035 0 0 -1 I I #
point $-1 41.043733024079103 13.676008528746483 10.355993799611801 #
straight-curve $-1 41.043733024079103 8.6567739450076715 1.3325961850183532 0 1 0 I I #
point $-1 41.043733024079103 13.676008528746483 1.3325961850183532 #
point $-1 35.029288053066864 15.131024273254027 4.7295777649680497 #
point $-1 35.029288053066864 17.313547890015343 4.7295777649680497 #
point $-1 35.029288053066864 19.496071506776659 4.7295777649680497 #
straight-curve $-1 -41.043733024079103 -6.3177586414741409 27.623027748643626 0 0 -1 I I #
point $-1 -41.043733024079103 -6.3177586414741409 10.355993799611801 #
straight-curve $-1 -41.043733024079103 -4.8158951679026956 3.5867401024322669 0 -1 0 I I #
point $-1 -41.043733024079103 -6.3177586414741409 3.586740102432266 #
point $-1 -36.661415731164027 -11.052089633375925 5.642106021499206 #
point $-1 -36.661415731164027 -8.211491038234854 5.642106021499206 #
point $-1 -41.043733024079103 -25.869063139942355 10.355993799611801 #
straight-curve $-1 0 -25.869063139942355 10.355993799611801 1 0 0 I I #
End-of-ACIS-data 