500 0 10 0           
7 Unknown 11 ACIS 5.0 NT 24 Fri Mar 26 01:45:50 1999 
-1 9.9999999999999995e-007 1e-010 
body $-1 $10 $-1 $11 #
body $-1 $12 $-1 $13 #
body $-1 $14 $-1 $15 #
body $-1 $16 $-1 $17 #
body $-1 $18 $-1 $19 #
body $-1 $20 $-1 $21 #
body $-1 $22 $-1 $23 #
body $-1 $24 $-1 $25 #
body $-1 $26 $-1 $27 #
body $-1 $28 $-1 $29 #
lump $-1 $-1 $30 $0 #
transform $-1 1 0 0 0 1 0 0 0 1 49.637745292519909 26.119843002326 8.6986960899252974 1 rotate no_reflect no_shear #
lump $-1 $-1 $31 $1 #
transform $-1 1 0 0 0 1 0 0 0 1 49.637745292519909 26.119843002326 8.6986960899252974 1 rotate no_reflect no_shear #
lump $-1 $-1 $32 $2 #
transform $-1 1 0 0 0 1 0 0 0 1 49.637745292519909 26.119843002326 8.6986960899252974 1 rotate no_reflect no_shear #
lump $-1 $-1 $33 $3 #
transform $-1 1 0 0 0 1 0 0 0 1 49.637745292519909 26.119843002326 8.6986960899252974 1 rotate no_reflect no_shear #
lump $-1 $-1 $34 $4 #
transform $-1 1 0 0 0 1 0 0 0 1 49.637745292519909 26.119843002326 8.6986960899252974 1 rotate no_reflect no_shear #
lump $-1 $-1 $35 $5 #
transform $-1 1 0 0 0 1 0 0 0 1 49.637745292519909 26.119843002326 8.6986960899252974 1 rotate no_reflect no_shear #
lump $-1 $-1 $36 $6 #
transform $-1 1 0 0 0 1 0 0 0 1 49.637745292519909 26.119843002326 8.6986960899252974 1 rotate no_reflect no_shear #
lump $-1 $-1 $37 $7 #
transform $-1 1 0 0 0 1 0 0 0 1 49.637745292519909 26.119843002326 8.6986960899252974 1 rotate no_reflect no_shear #
lump $-1 $-1 $38 $8 #
transform $-1 1 0 0 0 1 0 0 0 1 49.637745292519909 26.119843002326 8.6986960899252974 1 rotate no_reflect no_shear #
lump $-1 $-1 $39 $9 #
transform $-1 1 0 0 0 1 0 0 0 1 49.637745292519909 26.119843002326 8.6986960899252974 1 rotate no_reflect no_shear #
shell $-1 $-1 $-1 $40 $-1 $10 #
shell $-1 $-1 $-1 $41 $-1 $12 #
shell $-1 $-1 $-1 $42 $-1 $14 #
shell $-1 $-1 $-1 $43 $-1 $16 #
shell $-1 $-1 $-1 $44 $-1 $18 #
shell $-1 $-1 $-1 $45 $-1 $20 #
shell $-1 $-1 $-1 $46 $-1 $22 #
shell $-1 $-1 $-1 $47 $-1 $24 #
shell $-1 $-1 $-1 $48 $-1 $26 #
shell $-1 $-1 $-1 $49 $-1 $28 #
face $-1 $50 $51 $30 $-1 $52 forward single #
face $-1 $53 $54 $31 $-1 $55 reversed single #
face $-1 $56 $57 $32 $-1 $58 forward single #
face $-1 $59 $60 $33 $-1 $61 forward single #
face $-1 $62 $63 $34 $-1 $64 reversed single #
face $-1 $65 $66 $35 $-1 $67 forward single #
face $-1 $68 $69 $36 $-1 $70 forward single #
face $-1 $71 $72 $37 $-1 $73 reversed single #
face $-1 $74 $75 $38 $-1 $76 forward single #
face $-1 $77 $78 $39 $-1 $79 forward single #
face $-1 $80 $81 $30 $-1 $82 reversed single #
loop $-1 $-1 $83 $40 #
plane-surface $-1 0 0 8.6986960899252974 0 0 1 1 0 0 forward_v I I I I #
face $-1 $84 $85 $31 $-1 $86 reversed single #
loop $-1 $-1 $87 $41 #
plane-surface $-1 35.768958954815858 -26.119843002326007 4.5244172118108636 0 -0.87461971476443456 0.48480960649040278 1 0 0 forward_v I I I I #
face $-1 $88 $89 $32 $-1 $90 forward single #
loop $-1 $91 $92 $42 #
cone-surface $-1 29.825193381514111 -24.525612905142808 6.3691518476228799 0 0.87461971476443456 -0.48480960649040278 0.5 0 0 1 I I 0 1 0.5 forward I I I I #
face $-1 $93 $94 $33 $-1 $95 forward single #
loop $-1 $96 $97 $43 #
cone-surface $-1 41.71272452811759 -24.525612905142808 6.3691518476228799 0 0.87461971476443456 -0.48480960649040278 0.5 0 0 1 I I 0 1 0.5 forward I I I I #
face $-1 $98 $99 $34 $-1 $100 reversed single #
loop $-1 $-1 $101 $44 #
plane-surface $-1 -12.498434935634492 57.504309440150671 108.70330086637571 1 0 0 0 -0.69465837861970381 -0.71933979245794832 forward_v I I I I #
face $-1 $102 $103 $35 $-1 $104 forward single #
loop $-1 $105 $106 $45 #
cone-surface $-1 -8.9274535254532097 21.147014593217317 3.8275145285448664 0 -0.69465837861970381 -0.71933979245794832 1 0 0 1 I I 0 1 1 forward I I I I #
face $-1 $107 $108 $36 $-1 $109 forward single #
loop $-1 $110 $111 $46 #
cone-surface $-1 -3.5709814101812825 21.147014593217317 3.8275145285448664 0 -0.69465837861970381 -0.71933979245794832 1 0 0 1 I I 0 1 1 forward I I I I #
face $-1 $112 $113 $37 $-1 $114 reversed single #
loop $-1 $-1 $115 $47 #
plane-surface $-1 -6.2492174678172461 -11.458241886328757 37.290490072772172 0 0.69465837861970381 0.71933979245794832 1 0 0 forward_v I I I I #
face $-1 $116 $117 $38 $-1 $118 forward single #
loop $-1 $119 $120 $48 #
cone-surface $-1 3.5709814101812825 21.147014593217317 3.8275145285448664 0 -0.69465837861970381 -0.71933979245794832 1 0 0 1 I I 0 1 1 forward I I I I #
face $-1 $121 $122 $39 $-1 $123 forward single #
loop $-1 $124 $125 $49 #
cone-surface $-1 8.9274535254532097 21.147014593217317 3.8275145285448664 0 -0.69465837861970381 -0.71933979245794832 1 0 0 1 I I 0 1 1 forward I I I I #
face $-1 $126 $127 $30 $-1 $128 reversed single #
loop $-1 $-1 $129 $50 #
plane-surface $-1 0 0 -8.6986960899252974 0 0 1 1 0 0 forward_v I I I I #
coedge $-1 $130 $131 $132 $133 forward $51 $-1 #
face $-1 $134 $135 $31 $-1 $136 reversed single #
loop $-1 $-1 $137 $53 #
plane-surface $-1 21.900172617111799 -112.94814426091284 52.654128736485703 1 0 0 0 0.87461971476443456 -0.48480960649040278 forward_v I I I I #
coedge $-1 $138 $139 $140 $141 reversed $54 $-1 #
face $-1 $-1 $142 $32 $-1 $143 forward single #
loop $-1 $144 $145 $56 #
cone-surface $-1 29.825193381514111 -23.869648119069481 6.005544642755078 0 0.87461971476443456 -0.48480960649040278 0.25 0 0 1 I I -0.70710678118654746 0.70710678118654746 0.25 forward I I I I #
loop $-1 $-1 $146 $42 #
coedge $-1 $92 $92 $147 $148 reversed $57 $-1 #
face $-1 $-1 $149 $33 $-1 $150 forward single #
loop $-1 $151 $152 $59 #
cone-surface $-1 41.71272452811759 -23.869648119069481 6.005544642755078 0 0.87461971476443456 -0.48480960649040278 0.25 0 0 1 I I -0.70710678118654746 0.70710678118654746 0.25 forward I I I I #
loop $-1 $-1 $153 $43 #
coedge $-1 $97 $97 $154 $155 reversed $60 $-1 #
face $-1 $156 $157 $34 $-1 $158 reversed single #
loop $-1 $-1 $159 $62 #
plane-surface $-1 -6.2492174678172461 -11.458241886328757 37.290490072772172 0 0.69465837861970381 0.71933979245794832 1 0 0 forward_v I I I I #
coedge $-1 $160 $161 $162 $163 reversed $63 $-1 #
face $-1 $-1 $164 $35 $-1 $165 forward single #
loop $-1 $166 $167 $65 #
cone-surface $-1 -8.9274535254532097 19.812065077775152 2.4451338693090268 0 -0.69465837861970381 -0.71933979245794832 0.5 0 0 1 I I -0.70710678118654746 0.70710678118654746 0.5 forward I I I I #
loop $-1 $-1 $168 $45 #
coedge $-1 $106 $106 $169 $170 reversed $66 $-1 #
face $-1 $-1 $171 $36 $-1 $172 forward single #
loop $-1 $173 $174 $68 #
cone-surface $-1 -3.5709814101812825 19.812065077775152 2.4451338693090268 0 -0.69465837861970381 -0.71933979245794832 0.5 0 0 1 I I -0.70710678118654746 0.70710678118654746 0.5 forward I I I I #
loop $-1 $-1 $175 $46 #
coedge $-1 $111 $111 $176 $177 reversed $69 $-1 #
face $-1 $178 $179 $37 $-1 $180 forward single #
loop $-1 $-1 $181 $71 #
plane-surface $-1 12.498434935634492 57.504309440150671 108.70330086637571 -1 0 0 0 0.69465837861970381 0.71933979245794832 forward_v I I I I #
coedge $-1 $182 $183 $184 $185 reversed $72 $-1 #
face $-1 $-1 $186 $38 $-1 $187 forward single #
loop $-1 $188 $189 $74 #
cone-surface $-1 3.5709814101812825 19.812065077775152 2.4451338693090268 0 -0.69465837861970381 -0.71933979245794832 0.5 0 0 1 I I -0.70710678118654746 0.70710678118654746 0.5 forward I I I I #
loop $-1 $-1 $190 $48 #
coedge $-1 $120 $120 $191 $192 reversed $75 $-1 #
face $-1 $-1 $193 $39 $-1 $194 forward single #
loop $-1 $195 $196 $77 #
cone-surface $-1 8.9274535254532097 19.812065077775152 2.4451338693090268 0 -0.69465837861970381 -0.71933979245794832 0.5 0 0 1 I I -0.70710678118654746 0.70710678118654746 0.5 forward I I I I #
loop $-1 $-1 $197 $49 #
coedge $-1 $125 $125 $198 $199 reversed $78 $-1 #
face $-1 $200 $201 $30 $-1 $202 reversed single #
loop $-1 $-1 $203 $80 #
plane-surface $-1 0 -26.119843002326 0 0 1 0 0 0 1 forward_v I I I I #
coedge $-1 $204 $205 $206 $207 forward $81 $-1 #
coedge $-1 $208 $83 $209 $210 forward $51 $-1 #
coedge $-1 $83 $208 $211 $212 forward $51 $-1 #
coedge $-1 $213 $214 $83 $133 reversed $215 $-1 #
edge $-1 $216 -26.119843002326 $217 26.119843002326 $132 $218 forward 7 unknown #
face $-1 $219 $220 $31 $-1 $221 forward single #
loop $-1 $-1 $222 $84 #
plane-surface $-1 0 -26.119843002326 0 0 1 0 0 0 1 forward_v I I I I #
coedge $-1 $223 $224 $225 $226 reversed $85 $-1 #
coedge $-1 $227 $87 $228 $229 reversed $54 $-1 #
coedge $-1 $87 $227 $223 $230 forward $54 $-1 #
coedge $-1 $225 $231 $87 $141 forward $220 $-1 #
edge $-1 $232 -31.753265815111988 $233 -4.0156931397038704 $140 $234 forward 7 unknown #
loop $-1 $-1 $147 $88 #
plane-surface $-1 35.768958954815858 -26.119843002326007 4.5244172118108636 0 -0.87461971476443456 0.48480960649040278 1 0 0 forward_v I I I I #
loop $-1 $-1 $235 $56 #
coedge $-1 $145 $145 $146 $236 reversed $89 $-1 #
coedge $-1 $146 $146 $145 $236 forward $91 $-1 #
coedge $-1 $147 $147 $92 $148 forward $142 $-1 #
edge $-1 $237 6.7501203358497052e-016 $237 6.2831853071796013 $147 $238 forward 7 unknown #
loop $-1 $-1 $154 $93 #
plane-surface $-1 35.768958954815858 -26.119843002326007 4.5244172118108636 0 -0.87461971476443456 0.48480960649040278 1 0 0 forward_v I I I I #
loop $-1 $-1 $239 $59 #
coedge $-1 $152 $152 $153 $240 reversed $94 $-1 #
coedge $-1 $153 $153 $152 $240 forward $96 $-1 #
coedge $-1 $154 $154 $97 $155 forward $149 $-1 #
edge $-1 $241 6.7501203358497052e-016 $241 6.2831853071796013 $154 $242 forward 7 unknown #
face $-1 $243 $244 $34 $-1 $245 forward single #
loop $-1 $-1 $246 $98 #
plane-surface $-1 0 57.504309440150671 108.70330086637571 -1 0 0 0 0.69465837861970381 0.71933979245794832 forward_v I I I I #
coedge $-1 $247 $248 $249 $250 reversed $99 $-1 #
coedge $-1 $161 $101 $251 $252 reversed $63 $-1 #
coedge $-1 $101 $160 $247 $253 reversed $63 $-1 #
coedge $-1 $249 $254 $101 $163 forward $244 $-1 #
edge $-1 $255 2.6323117177493351 $256 10.602727883702098 $162 $257 forward 7 unknown #
loop $-1 $-1 $169 $102 #
plane-surface $-1 -6.2492174678172461 -11.458241886328757 37.290490072772172 0 0.69465837861970381 0.71933979245794832 1 0 0 forward_v I I I I #
loop $-1 $-1 $258 $65 #
coedge $-1 $167 $167 $168 $259 reversed $103 $-1 #
coedge $-1 $168 $168 $167 $259 forward $105 $-1 #
coedge $-1 $169 $169 $106 $170 forward $164 $-1 #
edge $-1 $260 -6.1698058095389979e-016 $260 6.2831853071795996 $169 $261 forward 7 unknown #
loop $-1 $-1 $176 $107 #
plane-surface $-1 -6.2492174678172461 -11.458241886328757 37.290490072772172 0 0.69465837861970381 0.71933979245794832 1 0 0 forward_v I I I I #
loop $-1 $-1 $262 $68 #
coedge $-1 $174 $174 $175 $263 reversed $108 $-1 #
coedge $-1 $175 $175 $174 $263 forward $110 $-1 #
coedge $-1 $176 $176 $111 $177 forward $171 $-1 #
edge $-1 $264 -6.1698058095389979e-016 $264 6.2831853071795996 $176 $265 forward 7 unknown #
face $-1 $266 $267 $37 $-1 $268 forward single #
loop $-1 $-1 $269 $112 #
plane-surface $-1 0 0 8.6986960899252974 0 0 1 1 0 0 forward_v I I I I #
coedge $-1 $270 $271 $272 $273 reversed $113 $-1 #
coedge $-1 $274 $115 $275 $276 reversed $72 $-1 #
coedge $-1 $115 $274 $269 $277 reversed $72 $-1 #
coedge $-1 $278 $279 $115 $185 forward $267 $-1 #
edge $-1 $280 -52.239686004652 $281 -41.159503524105148 $184 $282 forward 7 unknown #
loop $-1 $-1 $191 $116 #
plane-surface $-1 -6.2492174678172461 -11.458241886328757 37.290490072772172 0 0.69465837861970381 0.71933979245794832 1 0 0 forward_v I I I I #
loop $-1 $-1 $283 $74 #
coedge $-1 $189 $189 $190 $284 reversed $117 $-1 #
coedge $-1 $190 $190 $189 $284 forward $119 $-1 #
coedge $-1 $191 $191 $120 $192 forward $186 $-1 #
edge $-1 $285 -6.1698058095389979e-016 $285 6.2831853071795996 $191 $286 forward 7 unknown #
loop $-1 $-1 $198 $121 #
plane-surface $-1 -6.2492174678172461 -11.458241886328757 37.290490072772172 0 0.69465837861970381 0.71933979245794832 1 0 0 forward_v I I I I #
loop $-1 $-1 $287 $77 #
coedge $-1 $196 $196 $197 $288 reversed $122 $-1 #
coedge $-1 $197 $197 $196 $288 forward $124 $-1 #
coedge $-1 $198 $198 $125 $199 forward $193 $-1 #
edge $-1 $289 -6.1698058095389979e-016 $289 6.2831853071795996 $198 $290 forward 7 unknown #
face $-1 $291 $292 $30 $-1 $293 reversed single #
loop $-1 $-1 $294 $126 #
plane-surface $-1 -49.637745292519909 0 0 1 0 0 0 0 -1 forward_v I I I I #
coedge $-1 $295 $211 $296 $297 forward $127 $-1 #
coedge $-1 $298 $129 $295 $299 forward $81 $-1 #
coedge $-1 $129 $298 $300 $301 forward $81 $-1 #
coedge $-1 $214 $213 $129 $207 reversed $215 $-1 #
edge $-1 $302 -26.119843002326 $303 26.119843002326 $206 $304 forward 7 unknown #
coedge $-1 $131 $130 $305 $306 forward $51 $-1 #
coedge $-1 $307 $308 $130 $210 reversed $292 $-1 #
edge $-1 $217 -49.637745292519909 $309 49.637745292519909 $209 $310 forward 7 unknown #
coedge $-1 $203 $311 $131 $212 reversed $127 $-1 #
edge $-1 $312 -49.637745292519909 $216 49.637745292519909 $211 $313 forward 7 unknown #
coedge $-1 $206 $132 $311 $314 forward $215 $-1 #
coedge $-1 $132 $206 $307 $315 reversed $215 $-1 #
loop $-1 $-1 $213 $291 #
vertex $-1 $133 $316 #
vertex $-1 $133 $317 #
straight-curve $-1 49.637745292519909 0 8.6986960899252974 0 1 0 I I #
face $-1 $-1 $318 $31 $-1 $319 reversed single #
loop $-1 $-1 $225 $134 #
plane-surface $-1 0 0 8.6986960899252974 0 0 1 1 0 0 forward_v I I I I #
coedge $-1 $320 $321 $224 $322 forward $135 $-1 #
coedge $-1 $224 $137 $139 $230 reversed $85 $-1 #
coedge $-1 $137 $223 $222 $322 reversed $85 $-1 #
coedge $-1 $323 $140 $137 $226 forward $220 $-1 #
edge $-1 $233 -32.668069607732363 $324 -30.35422912813042 $225 $325 forward 7 unknown #
coedge $-1 $139 $138 $320 $326 reversed $54 $-1 #
coedge $-1 $327 $328 $138 $229 forward $318 $-1 #
edge $-1 $329 -4.3530031581397131 $232 0.41967553598130858 $228 $330 forward 7 unknown #
edge $-1 $331 1.4320236426557382e-014 $233 4.7726786941210362 $223 $332 forward 7 unknown #
coedge $-1 $140 $323 $327 $333 forward $220 $-1 #
vertex $-1 $229 $334 #
vertex $-1 $141 $335 #
straight-curve $-1 17.884479477407929 -23.806002522724061 8.6986960899252974 -1 0 0 I I #
coedge $-1 $235 $235 $-1 $336 reversed $144 $-1 #
edge $-1 $337 0 $337 6.2831853071796004 $145 $338 forward 7 unknown #
vertex $-1 $148 $339 #
ellipse-curve $-1 29.825193381514111 -24.962922762525032 6.611556650868085 0 -0.87461971476443456 0.48480960649040278 0.5 0 0 1 I I #
coedge $-1 $239 $239 $-1 $340 reversed $151 $-1 #
edge $-1 $341 0 $341 6.2831853071796004 $152 $342 forward 7 unknown #
vertex $-1 $155 $343 #
ellipse-curve $-1 41.71272452811759 -24.962922762525032 6.611556650868085 0 -0.87461971476443456 0.48480960649040278 0.5 0 0 1 I I #
face $-1 $-1 $344 $34 $-1 $345 reversed single #
loop $-1 $-1 $162 $156 #
plane-surface $-1 0 0 8.6986960899252974 0 0 1 1 0 0 forward_v I I I I #
coedge $-1 $346 $347 $348 $349 reversed $157 $-1 #
coedge $-1 $350 $159 $161 $253 forward $99 $-1 #
coedge $-1 $159 $350 $346 $351 forward $99 $-1 #
coedge $-1 $348 $162 $159 $250 forward $244 $-1 #
edge $-1 $256 -9.3738262017258691 $352 3.124608733908623 $249 $353 forward 7 unknown #
coedge $-1 $354 $355 $160 $252 forward $344 $-1 #
edge $-1 $356 -53.349895940009674 $255 -45.652954343262557 $251 $357 forward 7 unknown #
edge $-1 $256 41.159503524105148 $356 52.239686004652 $161 $358 forward 7 unknown #
coedge $-1 $162 $348 $354 $359 forward $244 $-1 #
vertex $-1 $252 $360 #
vertex $-1 $163 $361 #
straight-curve $-1 -12.498434935634492 28.752154720075335 8.6986960899252992 0 -1 0 I I #
coedge $-1 $258 $258 $-1 $362 reversed $166 $-1 #
edge $-1 $363 0 $363 6.2831853071796004 $167 $364 forward 7 unknown #
vertex $-1 $170 $365 #
ellipse-curve $-1 -8.9274535254532097 22.134634919349629 4.8502252915517312 0 0.69465837861970381 0.71933979245794832 1 0 0 1 I I #
coedge $-1 $262 $262 $-1 $366 reversed $173 $-1 #
edge $-1 $367 0 $367 6.2831853071796004 $174 $368 forward 7 unknown #
vertex $-1 $177 $369 #
ellipse-curve $-1 -3.5709814101812825 22.134634919349629 4.8502252915517312 0 0.69465837861970381 0.71933979245794832 1 0 0 1 I I #
face $-1 $-1 $370 $37 $-1 $371 reversed single #
loop $-1 $-1 $278 $178 #
plane-surface $-1 0 57.504309440150671 108.70330086637571 -1 0 0 0 0.69465837861970381 0.71933979245794832 forward_v I I I I #
coedge $-1 $272 $372 $183 $277 forward $179 $-1 #
coedge $-1 $271 $181 $274 $373 reversed $113 $-1 #
coedge $-1 $181 $270 $374 $375 reversed $113 $-1 #
coedge $-1 $376 $269 $181 $273 forward $179 $-1 #
edge $-1 $377 -10.602727883702098 $378 -2.6323117177493351 $272 $379 forward 7 unknown #
coedge $-1 $183 $182 $270 $373 forward $72 $-1 #
coedge $-1 $380 $374 $182 $276 forward $370 $-1 #
edge $-1 $381 -15.623043669543115 $280 -3.124608733908623 $275 $382 forward 7 unknown #
edge $-1 $281 3.124608733908623 $377 15.623043669543115 $269 $383 forward 7 unknown #
coedge $-1 $279 $184 $372 $384 reversed $267 $-1 #
coedge $-1 $184 $278 $380 $385 reversed $267 $-1 #
vertex $-1 $276 $386 #
vertex $-1 $277 $387 #
straight-curve $-1 0 -11.458241886328757 37.290490072772172 0 -0.71933979245794832 0.69465837861970381 I I #
coedge $-1 $283 $283 $-1 $388 reversed $188 $-1 #
edge $-1 $389 0 $389 6.2831853071796004 $189 $390 forward 7 unknown #
vertex $-1 $192 $391 #
ellipse-curve $-1 3.5709814101812825 22.134634919349629 4.8502252915517312 0 0.69465837861970381 0.71933979245794832 1 0 0 1 I I #
coedge $-1 $287 $287 $-1 $392 reversed $195 $-1 #
edge $-1 $393 0 $393 6.2831853071796004 $196 $394 forward 7 unknown #
vertex $-1 $199 $395 #
ellipse-curve $-1 8.9274535254532097 22.134634919349629 4.8502252915517312 0 0.69465837861970381 0.71933979245794832 1 0 0 1 I I #
face $-1 $-1 $215 $30 $-1 $396 reversed single #
loop $-1 $-1 $307 $200 #
plane-surface $-1 0 26.119843002326 0 0 -1 0 0 0 -1 forward_v I I I I #
coedge $-1 $397 $305 $308 $398 forward $201 $-1 #
coedge $-1 $311 $203 $204 $299 reversed $127 $-1 #
coedge $-1 $305 $397 $203 $297 reversed $201 $-1 #
edge $-1 $312 -8.6986960899252974 $399 8.6986960899252974 $296 $400 forward 7 unknown #
coedge $-1 $205 $204 $397 $401 forward $81 $-1 #
edge $-1 $303 -49.637745292519909 $399 49.637745292519909 $295 $402 forward 7 unknown #
coedge $-1 $308 $307 $205 $301 reversed $292 $-1 #
edge $-1 $403 -49.637745292519909 $302 49.637745292519909 $300 $404 forward 7 unknown #
vertex $-1 $207 $405 #
vertex $-1 $314 $406 #
straight-curve $-1 49.637745292519909 0 -8.6986960899252974 0 -1 0 I I #
coedge $-1 $294 $296 $208 $306 reversed $201 $-1 #
edge $-1 $309 -26.119843002326 $312 26.119843002326 $305 $407 forward 7 unknown #
coedge $-1 $300 $209 $214 $315 forward $292 $-1 #
coedge $-1 $209 $300 $294 $398 reversed $292 $-1 #
vertex $-1 $210 $408 #
straight-curve $-1 0 26.119843002326 8.6986960899252974 -1 0 0 I I #
coedge $-1 $211 $295 $213 $314 reversed $127 $-1 #
vertex $-1 $306 $409 #
straight-curve $-1 0 -26.119843002326 8.6986960899252974 1 0 0 I I #
edge $-1 $216 -8.6986960899252974 $303 8.6986960899252974 $213 $410 forward 7 unknown #
edge $-1 $217 -8.6986960899252974 $302 8.6986960899252974 $214 $411 forward 7 unknown #
point $-1 49.637745292519909 -26.119843002326 8.6986960899252974 #
point $-1 49.637745292519909 26.119843002326 8.6986960899252974 #
loop $-1 $-1 $228 $219 #
plane-surface $-1 49.637745292519909 0 0 -1 0 0 0 0 1 forward_v I I I I #
coedge $-1 $412 $222 $227 $326 forward $135 $-1 #
coedge $-1 $222 $412 $323 $413 reversed $135 $-1 #
edge $-1 $324 17.628368278317552 $331 21.802647156431973 $222 $414 forward 7 unknown #
coedge $-1 $231 $225 $321 $413 forward $220 $-1 #
vertex $-1 $413 $415 #
straight-curve $-1 21.900172617111799 -56.47407213045642 8.6986960899252956 0 -1 0 I I #
edge $-1 $331 4.0156931397038704 $329 31.753265815111988 $320 $416 forward 7 unknown #
coedge $-1 $328 $228 $231 $333 reversed $318 $-1 #
coedge $-1 $228 $327 $412 $417 forward $318 $-1 #
vertex $-1 $326 $418 #
straight-curve $-1 49.637745292519909 -24.009465254176806 8.3316395923517153 0 0.48480960649040278 0.87461971476443456 I I #
vertex $-1 $326 $419 #
straight-curve $-1 21.900172617111799 -26.119843002326007 4.5244172118108636 0 0.48480960649040278 0.87461971476443456 I I #
edge $-1 $420 -26.119843002326 $232 -23.806002522724057 $327 $421 forward 7 unknown #
point $-1 49.637745292519917 -23.806002522724057 8.6986960899252974 #
point $-1 21.900172617111799 -23.806002522724057 8.6986960899252974 #
edge $-1 $422 1 $422 0 $235 $-1 forward 7 unknown #
vertex $-1 $236 $423 #
ellipse-curve $-1 29.825193381514111 -24.08830304776059 6.1267470443776784 0 -0.87461971476443456 0.48480960649040278 0.5 0 0 1 I I #
point $-1 30.325193381514111 -24.962922762525025 6.6115566508680814 #
edge $-1 $424 1 $424 0 $239 $-1 forward 7 unknown #
vertex $-1 $240 $425 #
ellipse-curve $-1 41.71272452811759 -24.08830304776059 6.1267470443776784 0 -0.87461971476443456 0.48480960649040278 0.5 0 0 1 I I #
point $-1 42.21272452811759 -24.962922762525025 6.6115566508680814 #
loop $-1 $-1 $251 $243 #
plane-surface $-1 0 26.119843002326 0 0 -1 0 0 0 -1 forward_v I I I I #
coedge $-1 $347 $246 $248 $351 reversed $157 $-1 #
coedge $-1 $246 $346 $426 $427 reversed $157 $-1 #
coedge $-1 $254 $249 $246 $349 forward $244 $-1 #
edge $-1 $352 -10.602727883702098 $428 -2.6323117177493351 $348 $429 forward 7 unknown #
coedge $-1 $248 $247 $355 $430 reversed $99 $-1 #
edge $-1 $431 -52.239686004652 $352 -41.159503524105148 $346 $432 forward 7 unknown #
vertex $-1 $250 $433 #
straight-curve $-1 -3.124608733908623 18.149426836373244 8.6986960899252921 1 0 0 I I #
coedge $-1 $426 $251 $254 $359 reversed $344 $-1 #
coedge $-1 $251 $426 $350 $430 forward $344 $-1 #
vertex $-1 $252 $434 #
straight-curve $-1 -12.498434935634492 26.119843002326 54.351650433187856 0 0 1 I I #
straight-curve $-1 -12.498434935634492 -11.458241886328757 37.290490072772172 0 0.71933979245794832 -0.69465837861970381 I I #
edge $-1 $428 0 $255 12.498434935634492 $354 $435 forward 7 unknown #
point $-1 -12.498434935634492 26.119843002326 8.6986960899252974 #
point $-1 -12.498434935634492 18.149426836373237 8.6986960899252992 #
edge $-1 $436 1 $436 0 $258 $-1 forward 7 unknown #
vertex $-1 $259 $437 #
ellipse-curve $-1 -8.9274535254532097 20.159394267085005 2.8048037655380007 0 0.69465837861970381 0.71933979245794832 1 0 0 1 I I #
point $-1 -7.9274535254532097 22.134634919349629 4.8502252915517321 #
edge $-1 $438 1 $438 0 $262 $-1 forward 7 unknown #
vertex $-1 $263 $439 #
ellipse-curve $-1 -3.5709814101812825 20.159394267085005 2.8048037655380007 0 0.69465837861970381 0.71933979245794832 1 0 0 1 I I #
point $-1 -2.5709814101812825 22.134634919349629 4.8502252915517321 #
loop $-1 $-1 $275 $266 #
plane-surface $-1 0 26.119843002326 0 0 -1 0 0 0 -1 forward_v I I I I #
coedge $-1 $269 $376 $278 $384 forward $179 $-1 #
edge $-1 $381 -52.239686004652 $377 -41.159503524105148 $270 $440 forward 7 unknown #
coedge $-1 $275 $441 $271 $375 forward $370 $-1 #
edge $-1 $378 45.652954343262557 $381 53.349895940009674 $374 $442 forward 7 unknown #
coedge $-1 $372 $272 $441 $443 forward $179 $-1 #
vertex $-1 $273 $444 #
vertex $-1 $443 $445 #
straight-curve $-1 12.498434935634492 28.752154720075335 8.6986960899252992 0 1 0 I I #
coedge $-1 $441 $275 $279 $385 forward $370 $-1 #
vertex $-1 $375 $446 #
straight-curve $-1 -3.124608733908623 26.119843002326 1.0017544931781828 -1 0 0 I I #
straight-curve $-1 -3.124608733908623 18.149426836373244 8.6986960899252921 1 0 0 I I #
edge $-1 $447 2.6323117177493351 $281 10.602727883702098 $372 $448 forward 7 unknown #
edge $-1 $280 -53.349895940009674 $447 -45.652954343262557 $380 $449 forward 7 unknown #
point $-1 0 26.119843002326 1.0017544931781828 #
point $-1 0 18.149426836373237 8.6986960899252992 #
edge $-1 $450 1 $450 0 $283 $-1 forward 7 unknown #
vertex $-1 $284 $451 #
ellipse-curve $-1 3.5709814101812825 20.159394267085005 2.8048037655380007 0 0.69465837861970381 0.71933979245794832 1 0 0 1 I I #
point $-1 4.5709814101812825 22.134634919349629 4.8502252915517321 #
edge $-1 $452 1 $452 0 $287 $-1 forward 7 unknown #
vertex $-1 $288 $453 #
ellipse-curve $-1 8.9274535254532097 20.159394267085005 2.8048037655380007 0 0.69465837861970381 0.71933979245794832 1 0 0 1 I I #
point $-1 9.9274535254532097 22.134634919349629 4.8502252915517321 #
plane-surface $-1 49.637745292519909 0 0 -1 0 0 0 0 1 forward_v I I I I #
coedge $-1 $296 $294 $298 $401 reversed $201 $-1 #
edge $-1 $309 -8.6986960899252974 $403 8.6986960899252974 $308 $454 forward 7 unknown #
vertex $-1 $401 $455 #
straight-curve $-1 -49.637745292519909 -26.119843002326 0 0 0 -1 I I #
edge $-1 $399 -26.119843002326 $403 26.119843002326 $397 $456 forward 7 unknown #
straight-curve $-1 0 -26.119843002326 -8.6986960899252974 -1 0 0 I I #
vertex $-1 $301 $457 #
straight-curve $-1 0 26.119843002326 -8.6986960899252974 1 0 0 I I #
point $-1 49.637745292519909 26.119843002326 -8.6986960899252974 #
point $-1 49.637745292519909 -26.119843002326 -8.6986960899252974 #
straight-curve $-1 -49.637745292519909 0 8.6986960899252974 0 -1 0 I I #
point $-1 -49.637745292519909 26.119843002326 8.6986960899252974 #
point $-1 -49.637745292519909 -26.119843002326 8.6986960899252974 #
straight-curve $-1 49.637745292519909 -26.119843002326 0 0 0 -1 I I #
straight-curve $-1 49.637745292519909 26.119843002326 0 0 0 -1 I I #
coedge $-1 $321 $320 $328 $417 reversed $135 $-1 #
edge $-1 $324 21.900172617111799 $420 49.637745292519909 $321 $458 forward 7 unknown #
straight-curve $-1 21.900172617111799 -26.119843002326 26.327064368242851 0 0 -1 I I #
point $-1 21.900172617111799 -26.119843002326 8.6986960899252974 #
straight-curve $-1 17.884479477407929 -26.119843002326 4.5244172118108779 1 0 0 I I #
edge $-1 $420 -8.6986960899252974 $329 -4.5244172118108761 $328 $459 forward 7 unknown #
point $-1 49.637745292519917 -26.119843002326 4.5244172118108761 #
point $-1 21.900172617111799 -26.119843002326 4.5244172118108761 #
vertex $-1 $333 $460 #
straight-curve $-1 49.637745292519909 0 8.6986960899252974 0 1 0 I I #
vertex $-1 $336 $461 #
point $-1 30.325193381514111 -24.08830304776059 6.1267470443776784 #
vertex $-1 $340 $462 #
point $-1 42.21272452811759 -24.08830304776059 6.1267470443776784 #
coedge $-1 $355 $354 $347 $427 forward $344 $-1 #
edge $-1 $428 45.652954343262557 $431 53.349895940009674 $426 $463 forward 7 unknown #
vertex $-1 $359 $464 #
straight-curve $-1 0 28.752154720075335 8.6986960899252992 0 1 0 I I #
edge $-1 $431 -3.124608733908623 $356 9.3738262017258691 $355 $465 forward 7 unknown #
vertex $-1 $430 $466 #
straight-curve $-1 0 -11.458241886328757 37.290490072772172 0 -0.71933979245794832 0.69465837861970381 I I #
point $-1 0 18.149426836373237 8.6986960899252992 #
point $-1 -12.498434935634492 26.119843002326 1.0017544931781828 #
straight-curve $-1 0 26.119843002326 8.6986960899252974 -1 0 0 I I #
vertex $-1 $362 $467 #
point $-1 -7.9274535254532097 20.159394267085005 2.8048037655380007 #
vertex $-1 $366 $468 #
point $-1 -2.5709814101812825 20.159394267085005 2.8048037655380007 #
straight-curve $-1 12.498434935634492 -11.458241886328757 37.290490072772172 0 -0.71933979245794832 0.69465837861970381 I I #
coedge $-1 $374 $380 $376 $443 reversed $370 $-1 #
straight-curve $-1 12.498434935634492 26.119843002326 54.351650433187856 0 0 -1 I I #
edge $-1 $378 -12.498434935634492 $447 0 $441 $469 forward 7 unknown #
point $-1 12.498434935634492 18.149426836373237 8.6986960899252992 #
point $-1 12.498434935634492 26.119843002326 8.6986960899252974 #
point $-1 12.498434935634492 26.119843002326 1.0017544931781828 #
vertex $-1 $385 $470 #
straight-curve $-1 0 28.752154720075335 8.6986960899252992 0 -1 0 I I #
straight-curve $-1 0 26.119843002326 54.351650433187856 0 0 1 I I #
vertex $-1 $388 $471 #
point $-1 4.5709814101812825 20.159394267085005 2.8048037655380007 #
vertex $-1 $392 $472 #
point $-1 9.9274535254532097 20.159394267085005 2.8048037655380007 #
straight-curve $-1 -49.637745292519909 26.119843002326 0 0 0 -1 I I #
point $-1 -49.637745292519909 -26.119843002326 -8.6986960899252974 #
straight-curve $-1 -49.637745292519909 0 -8.6986960899252974 0 1 0 I I #
point $-1 -49.637745292519909 26.119843002326 -8.6986960899252974 #
straight-curve $-1 0 -26.119843002326 8.6986960899252974 1 0 0 I I #
straight-curve $-1 49.637745292519909 -26.119843002326 0 0 0 -1 I I #
point $-1 49.637745292519909 -26.119843002326 8.6986960899252974 #
point $-1 29.825193381514111 -23.650993190378372 5.8843422411324777 #
point $-1 41.71272452811759 -23.650993190378372 5.8843422411324777 #
straight-curve $-1 0 26.119843002326 54.351650433187856 0 0 -1 I I #
point $-1 0 26.119843002326 8.6986960899252974 #
straight-curve $-1 -3.124608733908623 26.119843002326 1.0017544931781828 -1 0 0 I I #
point $-1 0 26.119843002326 1.0017544931781828 #
point $-1 -8.9274535254532097 19.464735888465299 2.0854639730800528 #
point $-1 -3.5709814101812825 19.464735888465299 2.0854639730800528 #
straight-curve $-1 0 26.119843002326 8.6986960899252974 -1 0 0 I I #
point $-1 0 26.119843002326 8.6986960899252974 #
point $-1 3.5709814101812825 19.464735888465299 2.0854639730800528 #
point $-1 8.9274535254532097 19.464735888465299 2.0854639730800528 #
End-of-ACIS-data 