500 0 7 0           
7 Unknown 11 ACIS 5.0 NT 24 Thu Mar 25 22:13:14 1999 
-1 9.9999999999999995e-007 1e-010 
body $-1 $7 $-1 $8 #
body $-1 $9 $-1 $10 #
body $-1 $11 $-1 $12 #
body $-1 $13 $-1 $14 #
body $-1 $15 $-1 $16 #
body $-1 $17 $-1 $18 #
body $-1 $19 $-1 $20 #
lump $-1 $-1 $21 $0 #
transform $-1 1 0 0 0 1 0 0 0 1 61.057771538438061 34.156164985403713 7.1727216792676458 1 rotate no_reflect no_shear #
lump $-1 $-1 $22 $1 #
transform $-1 1 0 0 0 1 0 0 0 1 61.057771538438061 34.156164985403713 7.1727216792676458 1 rotate no_reflect no_shear #
lump $-1 $-1 $23 $2 #
transform $-1 1 0 0 0 1 0 0 0 1 61.057771538438061 34.156164985403713 7.1727216792676458 1 rotate no_reflect no_shear #
lump $-1 $-1 $24 $3 #
transform $-1 1 0 0 0 1 0 0 0 1 61.057771538438061 34.156164985403713 7.1727216792676458 1 rotate no_reflect no_shear #
lump $-1 $-1 $25 $4 #
transform $-1 1 0 0 0 1 0 0 0 1 61.057771538438061 34.156164985403713 7.1727216792676458 1 rotate no_reflect no_shear #
lump $-1 $-1 $26 $5 #
transform $-1 1 0 0 0 1 0 0 0 1 61.057771538438061 34.156164985403713 7.1727216792676458 1 rotate no_reflect no_shear #
lump $-1 $-1 $27 $6 #
transform $-1 1 0 0 0 1 0 0 0 1 61.057771538438061 34.156164985403713 7.1727216792676458 1 rotate no_reflect no_shear #
shell $-1 $-1 $-1 $28 $-1 $7 #
shell $-1 $-1 $-1 $29 $-1 $9 #
shell $-1 $-1 $-1 $30 $-1 $11 #
shell $-1 $-1 $-1 $31 $-1 $13 #
shell $-1 $-1 $-1 $32 $-1 $15 #
shell $-1 $-1 $-1 $33 $-1 $17 #
shell $-1 $-1 $-1 $34 $-1 $19 #
face $-1 $35 $36 $21 $-1 $37 forward single #
face $-1 $38 $39 $22 $-1 $40 reversed single #
face $-1 $41 $42 $23 $-1 $43 forward single #
face $-1 $44 $45 $24 $-1 $46 forward single #
face $-1 $47 $48 $25 $-1 $49 reversed single #
face $-1 $50 $51 $26 $-1 $52 forward single #
face $-1 $53 $54 $27 $-1 $55 forward single #
face $-1 $56 $57 $21 $-1 $58 reversed single #
loop $-1 $-1 $59 $28 #
plane-surface $-1 0 0 7.1727216792676458 0 0 1 1 0 0 forward_v I I I I #
face $-1 $60 $61 $22 $-1 $62 reversed single #
loop $-1 $-1 $63 $29 #
plane-surface $-1 41.041585427057896 99.36531719716379 125.99509912911739 1 0 0 0 -0.83867057594974714 -0.54463902268945019 forward_v I I I I #
face $-1 $64 $65 $23 $-1 $66 forward single #
loop $-1 $67 $68 $30 #
cone-surface $-1 46.76049574459509 31.417278834890322 3.9547391999103372 0 -0.83867057594974714 -0.54463902268945019 1 0 0 1 I I 0 1 1 forward I I I I #
face $-1 $69 $70 $24 $-1 $71 forward single #
loop $-1 $72 $73 $31 #
cone-surface $-1 55.338861220900881 31.417278834890322 3.9547391999103372 0 -0.83867057594974714 -0.54463902268945019 1 0 0 1 I I 0 1 1 forward I I I I #
face $-1 $74 $75 $25 $-1 $76 reversed single #
loop $-1 $-1 $77 $32 #
plane-surface $-1 42.024600961975665 -115.86741335300619 90.766087945081495 -1 0 0 0 -0.66913061440640931 0.74314481823134659 forward_v I I I I #
face $-1 $78 $79 $26 $-1 $80 forward single #
loop $-1 $81 $82 $33 #
cone-surface $-1 23.989360456498829 -27.988772806193829 1.1584786140414298 0 0.66913061440640931 -0.74314481823134659 2 0 0 1 I I 0 1 2 forward I I I I #
face $-1 $83 $84 $27 $-1 $85 forward single #
loop $-1 $86 $87 $34 #
cone-surface $-1 34.810504759784934 -27.988772806193829 1.1584786140414298 0 0.66913061440640931 -0.74314481823134659 2 0 0 1 I I 0 1 2 forward I I I I #
face $-1 $88 $89 $21 $-1 $90 reversed single #
loop $-1 $-1 $91 $35 #
plane-surface $-1 0 0 -7.1727216792676458 0 0 1 1 0 0 forward_v I I I I #
coedge $-1 $92 $93 $94 $95 forward $36 $-1 #
face $-1 $96 $97 $22 $-1 $98 forward single #
loop $-1 $-1 $99 $38 #
plane-surface $-1 51.049678482747979 -3.0493956475360591 59.486209092536129 0 0.83867057594974714 0.54463902268945019 1 0 0 forward_v I I I I #
coedge $-1 $100 $101 $102 $103 reversed $39 $-1 #
face $-1 $-1 $104 $23 $-1 $105 forward single #
loop $-1 $106 $107 $41 #
cone-surface $-1 46.76049574459509 29.875450282995892 2.9534640631171882 0 -0.83867057594974714 -0.54463902268945019 0.5 0 0 1 I I -0.70710678118654746 0.70710678118654746 0.5 forward I I I I #
loop $-1 $-1 $108 $30 #
coedge $-1 $68 $68 $109 $110 reversed $42 $-1 #
face $-1 $-1 $111 $24 $-1 $112 forward single #
loop $-1 $113 $114 $44 #
cone-surface $-1 55.338861220900881 29.875450282995892 2.9534640631171882 0 -0.83867057594974714 -0.54463902268945019 0.5 0 0 1 I I -0.70710678118654746 0.70710678118654746 0.5 forward I I I I #
loop $-1 $-1 $115 $31 #
coedge $-1 $73 $73 $116 $117 reversed $45 $-1 #
face $-1 $118 $119 $25 $-1 $120 reversed single #
loop $-1 $-1 $121 $47 #
plane-surface $-1 29.399932608141881 -34.15616498540372 0.016554881994210291 0 -0.66913061440640931 0.74314481823134659 1 0 0 forward_v I I I I #
coedge $-1 $122 $123 $124 $125 reversed $48 $-1 #
face $-1 $-1 $126 $26 $-1 $127 forward single #
loop $-1 $128 $129 $50 #
cone-surface $-1 23.989360456498829 -25.126114127665623 -2.0208258707794222 0 0.66913061440640931 -0.74314481823134659 1 0 0 1 I I -0.70710678118654746 0.70710678118654746 1 forward I I I I #
loop $-1 $-1 $130 $33 #
coedge $-1 $82 $82 $131 $132 reversed $51 $-1 #
face $-1 $-1 $133 $27 $-1 $134 forward single #
loop $-1 $135 $136 $53 #
cone-surface $-1 34.810504759784934 -25.126114127665623 -2.0208258707794222 0 0.66913061440640931 -0.74314481823134659 1 0 0 1 I I -0.70710678118654746 0.70710678118654746 1 forward I I I I #
loop $-1 $-1 $137 $34 #
coedge $-1 $87 $87 $138 $139 reversed $54 $-1 #
face $-1 $140 $141 $21 $-1 $142 reversed single #
loop $-1 $-1 $143 $56 #
plane-surface $-1 0 -34.156164985403713 0 0 1 0 0 0 1 forward_v I I I I #
coedge $-1 $144 $145 $146 $147 forward $57 $-1 #
coedge $-1 $148 $59 $149 $150 forward $36 $-1 #
coedge $-1 $59 $148 $151 $152 forward $36 $-1 #
coedge $-1 $153 $154 $59 $95 reversed $155 $-1 #
edge $-1 $156 -34.156164985403713 $157 34.156164985403713 $94 $158 forward 7 unknown #
face $-1 $159 $160 $22 $-1 $161 reversed single #
loop $-1 $-1 $102 $60 #
plane-surface $-1 0 0 7.1727216792676458 0 0 1 1 0 0 forward_v I I I I #
coedge $-1 $162 $163 $164 $165 reversed $61 $-1 #
coedge $-1 $101 $63 $166 $167 reversed $39 $-1 #
coedge $-1 $63 $100 $162 $168 reversed $39 $-1 #
coedge $-1 $164 $169 $63 $103 forward $97 $-1 #
edge $-1 $170 15.526493613178182 $171 18.759279386365833 $102 $172 forward 7 unknown #
loop $-1 $-1 $109 $64 #
plane-surface $-1 51.049678482747979 -3.0493956475360591 59.486209092536129 0 0.83867057594974714 0.54463902268945019 1 0 0 forward_v I I I I #
loop $-1 $-1 $173 $41 #
coedge $-1 $107 $107 $108 $174 reversed $65 $-1 #
coedge $-1 $108 $108 $107 $174 forward $67 $-1 #
coedge $-1 $109 $109 $68 $110 forward $104 $-1 #
edge $-1 $175 -1.0357840625050222e-015 $175 6.2831853071795996 $109 $176 forward 7 unknown #
loop $-1 $-1 $116 $69 #
plane-surface $-1 51.049678482747979 -3.0493956475360591 59.486209092536129 0 0.83867057594974714 0.54463902268945019 1 0 0 forward_v I I I I #
loop $-1 $-1 $177 $44 #
coedge $-1 $114 $114 $115 $178 reversed $70 $-1 #
coedge $-1 $115 $115 $114 $178 forward $72 $-1 #
coedge $-1 $116 $116 $73 $117 forward $111 $-1 #
edge $-1 $179 -1.0357840625050222e-015 $179 6.2831853071795996 $116 $180 forward 7 unknown #
face $-1 $181 $182 $25 $-1 $183 reversed single #
loop $-1 $-1 $184 $74 #
plane-surface $-1 16.775264254308098 -115.86741335300619 90.766087945081495 1 0 0 0 0.66913061440640931 -0.74314481823134659 forward_v I I I I #
coedge $-1 $185 $186 $187 $188 reversed $75 $-1 #
coedge $-1 $123 $77 $189 $190 reversed $48 $-1 #
coedge $-1 $77 $122 $185 $191 reversed $48 $-1 #
coedge $-1 $187 $192 $77 $125 forward $193 $-1 #
edge $-1 $194 23.77754169109938 $195 31.725269921275572 $124 $196 forward 7 unknown #
loop $-1 $-1 $131 $78 #
plane-surface $-1 29.399932608141881 -34.15616498540372 0.016554881994210291 0 -0.66913061440640931 0.74314481823134659 1 0 0 forward_v I I I I #
loop $-1 $-1 $197 $50 #
coedge $-1 $129 $129 $130 $198 reversed $79 $-1 #
coedge $-1 $130 $130 $129 $198 forward $81 $-1 #
coedge $-1 $131 $131 $82 $132 forward $126 $-1 #
edge $-1 $199 7.5998542033749618e-016 $199 6.2831853071796013 $131 $200 forward 7 unknown #
loop $-1 $-1 $138 $83 #
plane-surface $-1 29.399932608141881 -34.15616498540372 0.016554881994210291 0 -0.66913061440640931 0.74314481823134659 1 0 0 forward_v I I I I #
loop $-1 $-1 $201 $53 #
coedge $-1 $136 $136 $137 $202 reversed $84 $-1 #
coedge $-1 $137 $137 $136 $202 forward $86 $-1 #
coedge $-1 $138 $138 $87 $139 forward $133 $-1 #
edge $-1 $203 7.5998542033749618e-016 $203 6.2831853071796013 $138 $204 forward 7 unknown #
face $-1 $205 $206 $21 $-1 $207 reversed single #
loop $-1 $-1 $208 $88 #
plane-surface $-1 -61.057771538438061 0 0 1 0 0 0 0 -1 forward_v I I I I #
coedge $-1 $209 $151 $210 $211 forward $89 $-1 #
coedge $-1 $212 $91 $209 $213 forward $57 $-1 #
coedge $-1 $91 $212 $214 $215 forward $57 $-1 #
coedge $-1 $154 $153 $91 $147 reversed $155 $-1 #
edge $-1 $216 -34.156164985403713 $217 34.156164985403713 $146 $218 forward 7 unknown #
coedge $-1 $93 $92 $219 $220 forward $36 $-1 #
coedge $-1 $221 $222 $92 $150 reversed $206 $-1 #
edge $-1 $157 -61.057771538438061 $223 61.057771538438061 $149 $224 forward 7 unknown #
coedge $-1 $143 $225 $93 $152 reversed $89 $-1 #
edge $-1 $226 -61.057771538438061 $156 61.057771538438061 $151 $227 forward 7 unknown #
coedge $-1 $146 $94 $225 $228 forward $155 $-1 #
coedge $-1 $94 $146 $221 $229 reversed $155 $-1 #
loop $-1 $-1 $153 $205 #
vertex $-1 $95 $230 #
vertex $-1 $95 $231 #
straight-curve $-1 61.057771538438061 0 7.1727216792676458 0 1 0 I I #
face $-1 $-1 $232 $22 $-1 $233 reversed single #
loop $-1 $-1 $166 $96 #
plane-surface $-1 0 34.156164985403713 0 0 -1 0 0 0 -1 forward_v I I I I #
coedge $-1 $234 $99 $101 $168 forward $61 $-1 #
coedge $-1 $99 $234 $235 $236 reversed $61 $-1 #
coedge $-1 $237 $102 $99 $165 forward $97 $-1 #
edge $-1 $171 15.516746185683907 $238 35.532932297064072 $164 $239 forward 7 unknown #
coedge $-1 $240 $241 $100 $167 forward $160 $-1 #
edge $-1 $242 -60.802881593108772 $170 -55.82482788529105 $166 $243 forward 7 unknown #
edge $-1 $171 62.376681516489846 $242 68.312329970807383 $101 $244 forward 7 unknown #
coedge $-1 $102 $237 $240 $245 forward $97 $-1 #
vertex $-1 $167 $246 #
vertex $-1 $103 $247 #
straight-curve $-1 41.041585427057896 49.682658598581895 7.1727216792676458 0 -1 0 I I #
coedge $-1 $173 $173 $-1 $248 reversed $106 $-1 #
edge $-1 $249 0 $249 6.2831853071796004 $107 $250 forward 7 unknown #
vertex $-1 $110 $251 #
ellipse-curve $-1 46.76049574459509 32.539772098809891 4.6836948253587698 0 0.83867057594974714 0.54463902268945019 1 0 0 1 I I #
coedge $-1 $177 $177 $-1 $252 reversed $113 $-1 #
edge $-1 $253 0 $253 6.2831853071796004 $114 $254 forward 7 unknown #
vertex $-1 $117 $255 #
ellipse-curve $-1 55.338861220900881 32.539772098809891 4.6836948253587698 0 0.83867057594974714 0.54463902268945019 1 0 0 1 I I #
face $-1 $-1 $193 $25 $-1 $256 forward single #
loop $-1 $-1 $257 $118 #
plane-surface $-1 0 -34.156164985403713 0 0 1 0 0 0 1 forward_v I I I I #
coedge $-1 $258 $259 $260 $261 reversed $119 $-1 #
coedge $-1 $262 $121 $123 $191 forward $75 $-1 #
coedge $-1 $121 $262 $258 $263 forward $75 $-1 #
coedge $-1 $260 $124 $121 $188 forward $193 $-1 #
edge $-1 $195 -27.324634657904724 $264 -2.0752979502371574 $187 $265 forward 7 unknown #
coedge $-1 $266 $267 $122 $190 forward $182 $-1 #
edge $-1 $268 -45.36648909054653 $194 -38.210322293273101 $189 $269 forward 7 unknown #
edge $-1 $195 -10.694723336820754 $268 -9.5612318087274236e-015 $123 $270 forward 7 unknown #
coedge $-1 $124 $260 $266 $271 forward $193 $-1 #
loop $-1 $-1 $260 $181 #
vertex $-1 $190 $272 #
vertex $-1 $125 $273 #
straight-curve $-1 42.024600961975665 -57.933706676503093 7.1727216792676458 0 1 0 I I #
coedge $-1 $197 $197 $-1 $274 reversed $128 $-1 #
edge $-1 $275 0 $275 6.2831853071796004 $129 $276 forward 7 unknown #
vertex $-1 $132 $277 #
ellipse-curve $-1 23.989360456498829 -30.182300870315618 3.5946382806309289 0 -0.66913061440640931 0.74314481823134659 2 0 0 1 I I #
coedge $-1 $201 $201 $-1 $278 reversed $135 $-1 #
edge $-1 $279 0 $279 6.2831853071796004 $136 $280 forward 7 unknown #
vertex $-1 $139 $281 #
ellipse-curve $-1 34.810504759784934 -30.182300870315618 3.5946382806309289 0 -0.66913061440640931 0.74314481823134659 2 0 0 1 I I #
face $-1 $-1 $155 $21 $-1 $282 reversed single #
loop $-1 $-1 $221 $140 #
plane-surface $-1 0 34.156164985403713 0 0 -1 0 0 0 -1 forward_v I I I I #
coedge $-1 $283 $219 $222 $284 forward $141 $-1 #
coedge $-1 $225 $143 $144 $213 reversed $89 $-1 #
coedge $-1 $219 $283 $143 $211 reversed $141 $-1 #
edge $-1 $226 -7.1727216792676458 $285 7.1727216792676458 $210 $286 forward 7 unknown #
coedge $-1 $145 $144 $283 $287 forward $57 $-1 #
edge $-1 $217 -61.057771538438061 $285 61.057771538438061 $209 $288 forward 7 unknown #
coedge $-1 $222 $221 $145 $215 reversed $206 $-1 #
edge $-1 $289 -61.057771538438061 $216 61.057771538438061 $214 $290 forward 7 unknown #
vertex $-1 $147 $291 #
vertex $-1 $228 $292 #
straight-curve $-1 61.057771538438061 0 -7.1727216792676458 0 -1 0 I I #
coedge $-1 $208 $210 $148 $220 reversed $141 $-1 #
edge $-1 $223 -34.156164985403713 $226 34.156164985403713 $219 $293 forward 7 unknown #
coedge $-1 $214 $149 $154 $229 forward $206 $-1 #
coedge $-1 $149 $214 $208 $284 reversed $206 $-1 #
vertex $-1 $150 $294 #
straight-curve $-1 0 34.156164985403713 7.1727216792676458 -1 0 0 I I #
coedge $-1 $151 $209 $153 $228 reversed $89 $-1 #
vertex $-1 $220 $295 #
straight-curve $-1 0 -34.156164985403713 7.1727216792676458 1 0 0 I I #
edge $-1 $156 -7.1727216792676458 $217 7.1727216792676458 $153 $296 forward 7 unknown #
edge $-1 $157 -7.1727216792676458 $216 7.1727216792676458 $154 $297 forward 7 unknown #
point $-1 61.057771538438061 -34.156164985403713 7.1727216792676458 #
point $-1 61.057771538438061 34.156164985403713 7.1727216792676458 #
loop $-1 $-1 $235 $159 #
plane-surface $-1 61.057771538438061 0 0 -1 0 0 0 0 1 forward_v I I I I #
coedge $-1 $163 $162 $241 $298 reversed $61 $-1 #
coedge $-1 $299 $300 $163 $236 forward $232 $-1 #
edge $-1 $238 36.601604963503917 $301 42.537253417821454 $235 $302 forward 7 unknown #
coedge $-1 $169 $164 $300 $303 forward $97 $-1 #
vertex $-1 $303 $304 #
straight-curve $-1 25.524839241373989 30.923379212216055 7.1727216792676458 1 0 0 I I #
coedge $-1 $305 $166 $169 $245 reversed $160 $-1 #
coedge $-1 $166 $305 $234 $298 forward $160 $-1 #
vertex $-1 $167 $306 #
straight-curve $-1 41.041585427057896 34.156164985403713 62.997549564558696 0 0 1 I I #
straight-curve $-1 41.041585427057896 -3.0493956475360591 59.486209092536129 0 0.54463902268945019 -0.83867057594974714 I I #
edge $-1 $307 -61.057771538438061 $170 -41.041585427057896 $240 $308 forward 7 unknown #
point $-1 41.041585427057896 34.156164985403713 7.1727216792676458 #
point $-1 41.041585427057896 30.923379212216062 7.1727216792676458 #
edge $-1 $309 1 $309 0 $173 $-1 forward 7 unknown #
vertex $-1 $174 $310 #
ellipse-curve $-1 46.76049574459509 30.294785570970767 3.2257835744619134 0 0.83867057594974714 0.54463902268945019 1 0 0 1 I I #
point $-1 47.76049574459509 32.539772098809877 4.6836948253587618 #
edge $-1 $311 1 $311 0 $177 $-1 forward 7 unknown #
vertex $-1 $178 $312 #
ellipse-curve $-1 55.338861220900881 30.294785570970767 3.2257835744619134 0 0.83867057594974714 0.54463902268945019 1 0 0 1 I I #
point $-1 56.338861220900881 32.539772098809877 4.6836948253587618 #
plane-surface $-1 0 0 7.1727216792676458 0 0 1 1 0 0 forward_v I I I I #
coedge $-1 $267 $266 $259 $313 forward $182 $-1 #
coedge $-1 $259 $184 $186 $263 reversed $119 $-1 #
coedge $-1 $184 $258 $257 $313 reversed $119 $-1 #
coedge $-1 $192 $187 $184 $261 forward $193 $-1 #
edge $-1 $264 -31.725269921275572 $314 -23.77754169109938 $260 $315 forward 7 unknown #
coedge $-1 $186 $185 $267 $316 reversed $75 $-1 #
edge $-1 $317 9.5612318087274236e-015 $264 10.694723336820754 $258 $318 forward 7 unknown #
vertex $-1 $188 $319 #
straight-curve $-1 14.699966304070941 -26.208436755227524 7.1727216792676458 -1 0 0 I I #
coedge $-1 $257 $189 $192 $271 reversed $182 $-1 #
coedge $-1 $189 $257 $262 $316 forward $182 $-1 #
vertex $-1 $190 $320 #
straight-curve $-1 42.024600961975665 -34.156164985403713 45.383043972540747 0 0 1 I I #
straight-curve $-1 42.024600961975665 -34.15616498540372 0.016554881994210291 0 -0.74314481823134659 -0.66913061440640931 I I #
edge $-1 $314 16.775264254308098 $194 42.024600961975665 $266 $321 forward 7 unknown #
point $-1 42.024600961975665 -34.156164985403713 7.1727216792676458 #
point $-1 42.024600961975665 -26.20843675522752 7.1727216792676458 #
edge $-1 $322 1 $322 0 $197 $-1 forward 7 unknown #
vertex $-1 $198 $323 #
ellipse-curve $-1 23.989360456498829 -25.795244742072033 -1.2776810525480755 0 -0.66913061440640931 0.74314481823134659 2 0 0 1 I I #
point $-1 25.989360456498829 -30.182300870315622 3.5946382806309352 #
edge $-1 $324 1 $324 0 $201 $-1 forward 7 unknown #
vertex $-1 $202 $325 #
ellipse-curve $-1 34.810504759784934 -25.795244742072033 -1.2776810525480755 0 -0.66913061440640931 0.74314481823134659 2 0 0 1 I I #
point $-1 36.810504759784934 -30.182300870315622 3.5946382806309352 #
plane-surface $-1 61.057771538438061 0 0 -1 0 0 0 0 1 forward_v I I I I #
coedge $-1 $210 $208 $212 $287 reversed $141 $-1 #
edge $-1 $223 -7.1727216792676458 $289 7.1727216792676458 $222 $326 forward 7 unknown #
vertex $-1 $287 $327 #
straight-curve $-1 -61.057771538438061 -34.156164985403713 0 0 0 -1 I I #
edge $-1 $285 -34.156164985403713 $289 34.156164985403713 $283 $328 forward 7 unknown #
straight-curve $-1 0 -34.156164985403713 -7.1727216792676458 -1 0 0 I I #
vertex $-1 $215 $329 #
straight-curve $-1 0 34.156164985403713 -7.1727216792676458 1 0 0 I I #
point $-1 61.057771538438061 34.156164985403713 -7.1727216792676458 #
point $-1 61.057771538438061 -34.156164985403713 -7.1727216792676458 #
straight-curve $-1 -61.057771538438061 0 7.1727216792676458 0 -1 0 I I #
point $-1 -61.057771538438061 34.156164985403713 7.1727216792676458 #
point $-1 -61.057771538438061 -34.156164985403713 7.1727216792676458 #
straight-curve $-1 61.057771538438061 -34.156164985403713 0 0 0 -1 I I #
straight-curve $-1 61.057771538438061 34.156164985403713 0 0 0 -1 I I #
edge $-1 $301 -35.532932297064072 $242 -15.516746185683907 $241 $330 forward 7 unknown #
coedge $-1 $300 $235 $305 $331 reversed $232 $-1 #
coedge $-1 $235 $299 $237 $303 reversed $232 $-1 #
vertex $-1 $236 $332 #
straight-curve $-1 61.057771538438061 10.98871685602796 37.869410794694595 0 0.54463902268945019 -0.83867057594974714 I I #
edge $-1 $238 30.923379212216062 $307 34.156164985403713 $300 $333 forward 7 unknown #
point $-1 61.057771538438061 30.923379212216062 7.1727216792676458 #
coedge $-1 $241 $240 $299 $331 forward $160 $-1 #
point $-1 41.041585427057896 34.156164985403713 2.194667971449924 #
vertex $-1 $303 $334 #
straight-curve $-1 0 34.156164985403713 7.1727216792676458 -1 0 0 I I #
vertex $-1 $248 $335 #
point $-1 47.76049574459509 30.294785570970767 3.2257835744619134 #
vertex $-1 $252 $336 #
point $-1 56.338861220900881 30.294785570970767 3.2257835744619134 #
edge $-1 $314 38.210322293273101 $317 45.36648909054653 $257 $337 forward 7 unknown #
vertex $-1 $271 $338 #
straight-curve $-1 16.775264254308098 -57.933706676503093 7.1727216792676458 0 -1 0 I I #
edge $-1 $317 2.0752979502371574 $268 27.324634657904724 $267 $339 forward 7 unknown #
vertex $-1 $316 $340 #
straight-curve $-1 16.775264254308098 -34.15616498540372 0.016554881994210291 0 0.74314481823134659 0.66913061440640931 I I #
point $-1 16.775264254308098 -26.20843675522752 7.1727216792676458 #
point $-1 42.024600961975665 -34.156164985403713 0.016554881994216689 #
straight-curve $-1 0 -34.156164985403713 7.1727216792676458 1 0 0 I I #
vertex $-1 $274 $341 #
point $-1 25.989360456498829 -25.795244742072033 -1.2776810525480755 #
vertex $-1 $278 $342 #
point $-1 36.810504759784934 -25.795244742072033 -1.2776810525480755 #
straight-curve $-1 -61.057771538438061 34.156164985403713 0 0 0 -1 I I #
point $-1 -61.057771538438061 -34.156164985403713 -7.1727216792676458 #
straight-curve $-1 -61.057771538438061 0 -7.1727216792676458 0 1 0 I I #
point $-1 -61.057771538438061 34.156164985403713 -7.1727216792676458 #
straight-curve $-1 25.524839241373989 34.156164985403713 2.1946679714499275 -1 0 0 I I #
edge $-1 $307 -7.1727216792676458 $301 -2.194667971449924 $299 $343 forward 7 unknown #
point $-1 61.057771538438061 34.156164985403713 2.194667971449924 #
straight-curve $-1 61.057771538438061 0 7.1727216792676458 0 1 0 I I #
point $-1 61.057771538438061 34.156164985403713 7.1727216792676458 #
point $-1 46.76049574459509 29.456114995021018 2.681144551772463 #
point $-1 55.338861220900881 29.456114995021018 2.681144551772463 #
straight-curve $-1 16.775264254308098 -34.156164985403713 45.383043972540747 0 0 -1 I I #
point $-1 16.775264254308098 -34.156164985403713 7.1727216792676458 #
straight-curve $-1 14.699966304070941 -34.156164985403713 0.016554881994221914 1 0 0 I I #
point $-1 16.775264254308098 -34.156164985403713 0.016554881994216689 #
point $-1 23.989360456498829 -24.456983513259214 -2.7639706890107689 #
point $-1 34.810504759784934 -24.456983513259214 -2.7639706890107689 #
straight-curve $-1 61.057771538438061 34.156164985403713 0 0 0 -1 I I #
End-of-ACIS-data 