500 0 14 0           
7 Unknown 11 ACIS 5.0 NT 24 Thu Mar 25 18:39:59 1999 
-1 9.9999999999999995e-007 1e-010 
body $-1 $14 $-1 $15 #
body $-1 $16 $-1 $17 #
body $-1 $18 $-1 $19 #
body $-1 $20 $-1 $21 #
body $-1 $22 $-1 $23 #
body $-1 $24 $-1 $25 #
body $-1 $26 $-1 $27 #
body $-1 $28 $-1 $29 #
body $-1 $30 $-1 $31 #
body $-1 $32 $-1 $33 #
body $-1 $34 $-1 $35 #
body $-1 $36 $-1 $37 #
body $-1 $38 $-1 $39 #
body $-1 $40 $-1 $41 #
lump $-1 $-1 $42 $0 #
transform $-1 1 0 0 0 1 0 0 0 1 50.007629627368999 25.042579234978334 10.704714814070483 1 rotate no_reflect no_shear #
lump $-1 $-1 $43 $1 #
transform $-1 1 0 0 0 1 0 0 0 1 50.007629627368999 25.042579234978334 10.704714814070483 1 rotate no_reflect no_shear #
lump $-1 $-1 $44 $2 #
transform $-1 1 0 0 0 1 0 0 0 1 50.007629627368999 25.042579234978334 10.704714814070483 1 rotate no_reflect no_shear #
lump $-1 $-1 $45 $3 #
transform $-1 1 0 0 0 1 0 0 0 1 50.007629627368999 25.042579234978334 10.704714814070483 1 rotate no_reflect no_shear #
lump $-1 $-1 $46 $4 #
transform $-1 1 0 0 0 1 0 0 0 1 50.007629627368999 25.042579234978334 10.704714814070483 1 rotate no_reflect no_shear #
lump $-1 $-1 $47 $5 #
transform $-1 1 0 0 0 1 0 0 0 1 50.007629627368999 25.042579234978334 10.704714814070483 1 rotate no_reflect no_shear #
lump $-1 $-1 $48 $6 #
transform $-1 1 0 0 0 1 0 0 0 1 50.007629627368999 25.042579234978334 10.704714814070483 1 rotate no_reflect no_shear #
lump $-1 $-1 $49 $7 #
transform $-1 1 0 0 0 1 0 0 0 1 50.007629627368999 25.042579234978334 10.704714814070483 1 rotate no_reflect no_shear #
lump $-1 $-1 $50 $8 #
transform $-1 1 0 0 0 1 0 0 0 1 50.007629627368999 25.042579234978334 10.704714814070483 1 rotate no_reflect no_shear #
lump $-1 $-1 $51 $9 #
transform $-1 1 0 0 0 1 0 0 0 1 50.007629627368999 25.042579234978334 10.704714814070483 1 rotate no_reflect no_shear #
lump $-1 $-1 $52 $10 #
transform $-1 1 0 0 0 1 0 0 0 1 50.007629627368999 25.042579234978334 10.704714814070483 1 rotate no_reflect no_shear #
lump $-1 $-1 $53 $11 #
transform $-1 1 0 0 0 1 0 0 0 1 50.007629627368999 25.042579234978334 10.704714814070483 1 rotate no_reflect no_shear #
lump $-1 $-1 $54 $12 #
transform $-1 1 0 0 0 1 0 0 0 1 50.007629627368999 25.042579234978334 10.704714814070483 1 rotate no_reflect no_shear #
lump $-1 $-1 $55 $13 #
transform $-1 1 0 0 0 1 0 0 0 1 50.007629627368999 25.042579234978334 10.704714814070483 1 rotate no_reflect no_shear #
shell $-1 $-1 $-1 $56 $-1 $14 #
shell $-1 $-1 $-1 $57 $-1 $16 #
shell $-1 $-1 $-1 $58 $-1 $18 #
shell $-1 $-1 $-1 $59 $-1 $20 #
shell $-1 $-1 $-1 $60 $-1 $22 #
shell $-1 $-1 $-1 $61 $-1 $24 #
shell $-1 $-1 $-1 $62 $-1 $26 #
shell $-1 $-1 $-1 $63 $-1 $28 #
shell $-1 $-1 $-1 $64 $-1 $30 #
shell $-1 $-1 $-1 $65 $-1 $32 #
shell $-1 $-1 $-1 $66 $-1 $34 #
shell $-1 $-1 $-1 $67 $-1 $36 #
shell $-1 $-1 $-1 $68 $-1 $38 #
shell $-1 $-1 $-1 $69 $-1 $40 #
face $-1 $70 $71 $42 $-1 $72 forward single #
face $-1 $73 $74 $43 $-1 $75 reversed single #
face $-1 $76 $77 $44 $-1 $78 reversed single #
face $-1 $79 $80 $45 $-1 $81 forward single #
face $-1 $82 $83 $46 $-1 $84 forward single #
face $-1 $85 $86 $47 $-1 $87 reversed single #
face $-1 $88 $89 $48 $-1 $90 forward single #
face $-1 $91 $92 $49 $-1 $93 forward single #
face $-1 $94 $95 $50 $-1 $96 reversed single #
face $-1 $97 $98 $51 $-1 $99 forward single #
face $-1 $100 $101 $52 $-1 $102 forward single #
face $-1 $103 $104 $53 $-1 $105 reversed single #
face $-1 $106 $107 $54 $-1 $108 forward single #
face $-1 $109 $110 $55 $-1 $111 forward single #
face $-1 $112 $113 $42 $-1 $114 reversed single #
loop $-1 $-1 $115 $56 #
plane-surface $-1 0 0 10.704714814070483 0 0 1 1 0 0 forward_v I I I I #
face $-1 $116 $117 $43 $-1 $118 reversed single #
loop $-1 $-1 $119 $57 #
plane-surface $-1 0 -19.014044650272915 5.3015568102888793 0 0 1 1 0 0 forward_v I I I I #
face $-1 $120 $121 $44 $-1 $122 reversed single #
loop $-1 $-1 $123 $58 #
plane-surface $-1 67.245189259262276 13.932028718721371 148.04303727612623 0 -1 0 -0.78801076186113728 0 -0.61566146476048833 forward_v I I I I #
face $-1 $124 $125 $45 $-1 $126 forward single #
loop $-1 $127 $128 $59 #
cone-surface $-1 48.422039008814203 6.5858016556513626 8.8717244855994952 -0.78801076186113728 0 -0.61566146476048833 0.30783073238024417 0 -0.39400538093056864 1 I I 0 1 0.5 forward I I I I #
face $-1 $129 $130 $46 $-1 $131 forward single #
loop $-1 $132 $133 $60 #
cone-surface $-1 48.422039008814203 10.993537893493368 8.8717244855994952 -0.78801076186113728 0 -0.61566146476048833 0.30783073238024417 0 -0.39400538093056864 1 I I 0 1 0.5 forward I I I I #
face $-1 $134 $135 $47 $-1 $136 reversed single #
loop $-1 $-1 $137 $61 #
plane-surface $-1 -118.21787323129293 -5.7260193870086056 80.165351218197188 0 -1 0 0.68199836817093118 0 -0.7313536940579346 forward_v I I I I #
face $-1 $138 $139 $48 $-1 $140 forward single #
loop $-1 $141 $142 $62 #
cone-surface $-1 -47.034466259616686 -10.91136987169353 7.7927826756527905 0.68199836817093118 0 -0.7313536940579346 0.7313536940579346 0 0.68199836817093118 1 I I 0 1 1 forward I I I I #
face $-1 $143 $144 $49 $-1 $145 forward single #
loop $-1 $146 $147 $63 #
cone-surface $-1 -47.034466259616686 -7.8001595808825748 7.7927826756527905 0.68199836817093118 0 -0.7313536940579346 0.7313536940579346 0 0.68199836817093118 1 I I 0 1 1 forward I I I I #
face $-1 $148 $149 $50 $-1 $150 reversed single #
loop $-1 $-1 $151 $64 #
plane-surface $-1 -118.21787323129293 6.9500103798400037 80.165351218197188 0 -1 0 0.68199836817093118 0 -0.7313536940579346 forward_v I I I I #
face $-1 $152 $153 $51 $-1 $154 forward single #
loop $-1 $155 $156 $65 #
cone-surface $-1 -47.034466259616686 1.7646598951550772 7.7927826756527905 0.68199836817093118 0 -0.7313536940579346 0.7313536940579346 0 0.68199836817093118 1 I I 0 1 1 forward I I I I #
face $-1 $157 $158 $52 $-1 $159 forward single #
loop $-1 $160 $161 $66 #
cone-surface $-1 -47.034466259616686 4.8758701859660363 7.7927826756527905 0.68199836817093118 0 -0.7313536940579346 0.7313536940579346 0 0.68199836817093118 1 I I 0 1 1 forward I I I I #
face $-1 $162 $163 $53 $-1 $164 reversed single #
loop $-1 $-1 $165 $67 #
plane-surface $-1 -118.21787323129293 19.626040146688609 80.165351218197188 0 -1 0 0.68199836817093118 0 -0.7313536940579346 forward_v I I I I #
face $-1 $166 $167 $54 $-1 $168 forward single #
loop $-1 $169 $170 $68 #
cone-surface $-1 -47.034466259616686 14.440689662003685 7.7927826756527905 0.68199836817093118 0 -0.7313536940579346 0.7313536940579346 0 0.68199836817093118 1 I I 0 1 1 forward I I I I #
face $-1 $171 $172 $55 $-1 $173 forward single #
loop $-1 $174 $175 $69 #
cone-surface $-1 -47.034466259616686 17.551899952814644 7.7927826756527905 0.68199836817093118 0 -0.7313536940579346 0.7313536940579346 0 0.68199836817093118 1 I I 0 1 1 forward I I I I #
face $-1 $176 $177 $42 $-1 $178 reversed single #
loop $-1 $-1 $179 $70 #
plane-surface $-1 0 0 -10.704714814070483 0 0 1 1 0 0 forward_v I I I I #
coedge $-1 $180 $181 $182 $183 forward $71 $-1 #
face $-1 $184 $185 $43 $-1 $186 reversed single #
loop $-1 $-1 $187 $73 #
plane-surface $-1 0 -12.985510065567498 8.0031358121796803 0 -1 0 0 0 -1 forward_v I I I I #
coedge $-1 $188 $189 $190 $191 reversed $74 $-1 #
face $-1 $192 $193 $44 $-1 $194 reversed single #
loop $-1 $-1 $195 $76 #
plane-surface $-1 -11.567911383802979 8.7896697745723671 86.467496264954235 0.78801076186113728 0 0.61566146476048833 0.61566146476048833 0 -0.78801076186113728 forward_v I I I I #
coedge $-1 $196 $197 $198 $199 reversed $77 $-1 #
face $-1 $-1 $200 $45 $-1 $201 forward single #
loop $-1 $202 $203 $79 #
cone-surface $-1 47.831030937418348 6.5858016556513626 8.4099783870291294 -0.78801076186113728 0 -0.61566146476048833 0.15391536619012208 0 -0.19700269046528432 1 I I -0.70710678118654746 0.70710678118654746 0.25 forward I I I I #
loop $-1 $-1 $204 $59 #
coedge $-1 $128 $128 $205 $206 reversed $80 $-1 #
face $-1 $-1 $207 $46 $-1 $208 forward single #
loop $-1 $209 $210 $82 #
cone-surface $-1 47.831030937418348 10.993537893493368 8.4099783870291294 -0.78801076186113728 0 -0.61566146476048833 0.15391536619012208 0 -0.19700269046528432 1 I I -0.70710678118654746 0.70710678118654746 0.25 forward I I I I #
loop $-1 $-1 $211 $60 #
coedge $-1 $133 $133 $212 $213 reversed $83 $-1 #
face $-1 $214 $215 $47 $-1 $216 forward single #
loop $-1 $-1 $217 $85 #
plane-surface $-1 -50.007629627368985 -9.3557647262880526 7.0188219000825285 -0.68199836817093118 0 0.7313536940579346 0.7313536940579346 0 0.68199836817093118 forward_v I I I I #
coedge $-1 $218 $219 $220 $221 reversed $86 $-1 #
face $-1 $-1 $222 $48 $-1 $223 forward single #
loop $-1 $224 $225 $88 #
cone-surface $-1 -45.696621778580671 -10.91136987169353 6.358120147200113 0.68199836817093118 0 -0.7313536940579346 0.3656768470289673 0 0.34099918408546559 1 I I -0.70710678118654746 0.70710678118654746 0.5 forward I I I I #
loop $-1 $-1 $226 $62 #
coedge $-1 $142 $142 $227 $228 reversed $89 $-1 #
face $-1 $-1 $229 $49 $-1 $230 forward single #
loop $-1 $231 $232 $91 #
cone-surface $-1 -45.696621778580671 -7.8001595808825748 6.358120147200113 0.68199836817093118 0 -0.7313536940579346 0.3656768470289673 0 0.34099918408546559 1 I I -0.70710678118654746 0.70710678118654746 0.5 forward I I I I #
loop $-1 $-1 $233 $63 #
coedge $-1 $147 $147 $234 $235 reversed $92 $-1 #
face $-1 $236 $237 $50 $-1 $238 reversed single #
loop $-1 $-1 $239 $94 #
plane-surface $-1 -50.007629627368985 3.3202650405605567 7.0188219000825285 -0.68199836817093118 0 0.7313536940579346 0.7313536940579346 0 0.68199836817093118 forward_v I I I I #
coedge $-1 $240 $241 $242 $243 reversed $95 $-1 #
face $-1 $-1 $244 $51 $-1 $245 forward single #
loop $-1 $246 $247 $97 #
cone-surface $-1 -45.696621778580671 1.7646598951550772 6.358120147200113 0.68199836817093118 0 -0.7313536940579346 0.3656768470289673 0 0.34099918408546559 1 I I -0.70710678118654746 0.70710678118654746 0.5 forward I I I I #
loop $-1 $-1 $248 $65 #
coedge $-1 $156 $156 $249 $250 reversed $98 $-1 #
face $-1 $-1 $251 $52 $-1 $252 forward single #
loop $-1 $253 $254 $100 #
cone-surface $-1 -45.696621778580671 4.8758701859660363 6.358120147200113 0.68199836817093118 0 -0.7313536940579346 0.3656768470289673 0 0.34099918408546559 1 I I -0.70710678118654746 0.70710678118654746 0.5 forward I I I I #
loop $-1 $-1 $255 $66 #
coedge $-1 $161 $161 $256 $257 reversed $101 $-1 #
face $-1 $258 $259 $53 $-1 $260 reversed single #
loop $-1 $-1 $261 $103 #
plane-surface $-1 -50.007629627368985 15.996294807409164 7.0188219000825285 -0.68199836817093118 0 0.7313536940579346 0.7313536940579346 0 0.68199836817093118 forward_v I I I I #
coedge $-1 $262 $263 $264 $265 reversed $104 $-1 #
face $-1 $-1 $266 $54 $-1 $267 forward single #
loop $-1 $268 $269 $106 #
cone-surface $-1 -45.696621778580671 14.440689662003685 6.358120147200113 0.68199836817093118 0 -0.7313536940579346 0.3656768470289673 0 0.34099918408546559 1 I I -0.70710678118654746 0.70710678118654746 0.5 forward I I I I #
loop $-1 $-1 $270 $68 #
coedge $-1 $170 $170 $271 $272 reversed $107 $-1 #
face $-1 $-1 $273 $55 $-1 $274 forward single #
loop $-1 $275 $276 $109 #
cone-surface $-1 -45.696621778580671 17.551899952814644 6.358120147200113 0.68199836817093118 0 -0.7313536940579346 0.3656768470289673 0 0.34099918408546559 1 I I -0.70710678118654746 0.70710678118654746 0.5 forward I I I I #
loop $-1 $-1 $277 $69 #
coedge $-1 $175 $175 $278 $279 reversed $110 $-1 #
face $-1 $280 $281 $42 $-1 $282 reversed single #
loop $-1 $-1 $283 $112 #
plane-surface $-1 0 -25.042579234978334 0 0 1 0 0 0 1 forward_v I I I I #
coedge $-1 $284 $285 $286 $287 forward $113 $-1 #
coedge $-1 $288 $115 $289 $290 forward $71 $-1 #
coedge $-1 $115 $288 $291 $292 forward $71 $-1 #
coedge $-1 $293 $294 $115 $183 reversed $295 $-1 #
edge $-1 $296 -25.042579234978334 $297 25.042579234978334 $182 $298 forward 7 unknown #
face $-1 $299 $300 $43 $-1 $301 reversed single #
loop $-1 $-1 $302 $116 #
plane-surface $-1 -50.007629627368999 0 0 1 0 0 0 0 -1 forward_v I I I I #
coedge $-1 $303 $304 $305 $306 reversed $117 $-1 #
coedge $-1 $307 $119 $308 $309 reversed $74 $-1 #
coedge $-1 $119 $307 $303 $310 forward $74 $-1 #
coedge $-1 $305 $311 $119 $191 forward $312 $-1 #
edge $-1 $313 -15.535556909841876 $314 -3.4784877404310404 $190 $315 forward 7 unknown #
face $-1 $316 $317 $44 $-1 $318 reversed single #
loop $-1 $-1 $319 $120 #
plane-surface $-1 67.245189259262276 3.647310830423363 148.04303727612623 0 1 0 0.78801076186113728 0 0.61566146476048833 forward_v I I I I #
coedge $-1 $320 $321 $322 $323 reversed $121 $-1 #
coedge $-1 $197 $123 $324 $325 reversed $77 $-1 #
coedge $-1 $123 $196 $320 $326 reversed $77 $-1 #
coedge $-1 $322 $327 $123 $199 forward $328 $-1 #
edge $-1 $329 -16.385034997737861 $330 -14.00186452248942 $198 $331 forward 7 unknown #
loop $-1 $-1 $205 $124 #
plane-surface $-1 -11.567911383802979 8.7896697745723671 86.467496264954235 0.78801076186113728 0 0.61566146476048833 0.61566146476048833 0 -0.78801076186113728 forward_v I I I I #
loop $-1 $-1 $332 $79 #
coedge $-1 $203 $203 $204 $333 reversed $125 $-1 #
coedge $-1 $204 $204 $203 $333 forward $127 $-1 #
coedge $-1 $205 $205 $128 $206 forward $200 $-1 #
edge $-1 $334 0 $334 6.2831853071796004 $205 $335 forward 7 unknown #
loop $-1 $-1 $212 $129 #
plane-surface $-1 -11.567911383802979 8.7896697745723671 86.467496264954235 0.78801076186113728 0 0.61566146476048833 0.61566146476048833 0 -0.78801076186113728 forward_v I I I I #
loop $-1 $-1 $336 $82 #
coedge $-1 $210 $210 $211 $337 reversed $130 $-1 #
coedge $-1 $211 $211 $210 $337 forward $132 $-1 #
coedge $-1 $212 $212 $133 $213 forward $207 $-1 #
edge $-1 $338 0 $338 6.2831853071796004 $212 $339 forward 7 unknown #
face $-1 $340 $341 $47 $-1 $342 forward single #
loop $-1 $-1 $343 $134 #
plane-surface $-1 0 -12.985510065567498 8.0031358121796803 0 -1 0 0 0 -1 forward_v I I I I #
coedge $-1 $344 $345 $346 $347 reversed $135 $-1 #
coedge $-1 $219 $137 $348 $349 reversed $86 $-1 #
coedge $-1 $137 $218 $344 $350 reversed $86 $-1 #
coedge $-1 $346 $351 $137 $221 forward $352 $-1 #
edge $-1 $353 29.377960795028109 $354 33.06385370901608 $220 $355 forward 7 unknown #
loop $-1 $-1 $227 $138 #
plane-surface $-1 -50.007629627368985 -9.3557647262880526 7.0188219000825285 -0.68199836817093118 0 0.7313536940579346 0.7313536940579346 0 0.68199836817093118 forward_v I I I I #
loop $-1 $-1 $356 $88 #
coedge $-1 $225 $225 $226 $357 reversed $139 $-1 #
coedge $-1 $226 $226 $225 $357 forward $141 $-1 #
coedge $-1 $227 $227 $142 $228 forward $222 $-1 #
edge $-1 $358 0 $358 6.2831853071796004 $227 $359 forward 7 unknown #
loop $-1 $-1 $234 $143 #
plane-surface $-1 -50.007629627368985 -9.3557647262880526 7.0188219000825285 -0.68199836817093118 0 0.7313536940579346 0.7313536940579346 0 0.68199836817093118 forward_v I I I I #
loop $-1 $-1 $360 $91 #
coedge $-1 $232 $232 $233 $361 reversed $144 $-1 #
coedge $-1 $233 $233 $232 $361 forward $146 $-1 #
coedge $-1 $234 $234 $147 $235 forward $229 $-1 #
edge $-1 $362 0 $362 6.2831853071796004 $234 $363 forward 7 unknown #
face $-1 $364 $365 $50 $-1 $366 forward single #
loop $-1 $-1 $367 $148 #
plane-surface $-1 -118.21787323129293 -0.30948029871889027 80.165351218197188 0 1 0 -0.68199836817093118 0 0.7313536940579346 forward_v I I I I #
coedge $-1 $368 $369 $370 $371 reversed $149 $-1 #
coedge $-1 $241 $151 $372 $373 reversed $95 $-1 #
coedge $-1 $151 $240 $368 $374 reversed $95 $-1 #
coedge $-1 $370 $375 $151 $243 forward $376 $-1 #
edge $-1 $377 29.377960795028109 $378 33.06385370901608 $242 $379 forward 7 unknown #
loop $-1 $-1 $249 $152 #
plane-surface $-1 -50.007629627368985 3.3202650405605567 7.0188219000825285 -0.68199836817093118 0 0.7313536940579346 0.7313536940579346 0 0.68199836817093118 forward_v I I I I #
loop $-1 $-1 $380 $97 #
coedge $-1 $247 $247 $248 $381 reversed $153 $-1 #
coedge $-1 $248 $248 $247 $381 forward $155 $-1 #
coedge $-1 $249 $249 $156 $250 forward $244 $-1 #
edge $-1 $382 0 $382 6.2831853071796004 $249 $383 forward 7 unknown #
loop $-1 $-1 $256 $157 #
plane-surface $-1 -50.007629627368985 3.3202650405605567 7.0188219000825285 -0.68199836817093118 0 0.7313536940579346 0.7313536940579346 0 0.68199836817093118 forward_v I I I I #
loop $-1 $-1 $384 $100 #
coedge $-1 $254 $254 $255 $385 reversed $158 $-1 #
coedge $-1 $255 $255 $254 $385 forward $160 $-1 #
coedge $-1 $256 $256 $161 $257 forward $251 $-1 #
edge $-1 $386 0 $386 6.2831853071796004 $256 $387 forward 7 unknown #
face $-1 $388 $389 $53 $-1 $390 forward single #
loop $-1 $-1 $391 $162 #
plane-surface $-1 -118.21787323129293 12.366549468129717 80.165351218197188 0 1 0 -0.68199836817093118 0 0.7313536940579346 forward_v I I I I #
coedge $-1 $392 $393 $394 $395 reversed $163 $-1 #
coedge $-1 $263 $165 $396 $397 reversed $104 $-1 #
coedge $-1 $165 $262 $392 $398 reversed $104 $-1 #
coedge $-1 $394 $399 $165 $265 forward $400 $-1 #
edge $-1 $401 29.377960795028109 $402 33.06385370901608 $264 $403 forward 7 unknown #
loop $-1 $-1 $271 $166 #
plane-surface $-1 -50.007629627368985 15.996294807409164 7.0188219000825285 -0.68199836817093118 0 0.7313536940579346 0.7313536940579346 0 0.68199836817093118 forward_v I I I I #
loop $-1 $-1 $404 $106 #
coedge $-1 $269 $269 $270 $405 reversed $167 $-1 #
coedge $-1 $270 $270 $269 $405 forward $169 $-1 #
coedge $-1 $271 $271 $170 $272 forward $266 $-1 #
edge $-1 $406 0 $406 6.2831853071796004 $271 $407 forward 7 unknown #
loop $-1 $-1 $278 $171 #
plane-surface $-1 -50.007629627368985 15.996294807409164 7.0188219000825285 -0.68199836817093118 0 0.7313536940579346 0.7313536940579346 0 0.68199836817093118 forward_v I I I I #
loop $-1 $-1 $408 $109 #
coedge $-1 $276 $276 $277 $409 reversed $172 $-1 #
coedge $-1 $277 $277 $276 $409 forward $174 $-1 #
coedge $-1 $278 $278 $175 $279 forward $273 $-1 #
edge $-1 $410 0 $410 6.2831853071796004 $278 $411 forward 7 unknown #
face $-1 $412 $413 $42 $-1 $414 reversed single #
loop $-1 $-1 $415 $176 #
plane-surface $-1 -50.007629627368999 0 0 1 0 0 0 0 -1 forward_v I I I I #
coedge $-1 $416 $291 $417 $418 forward $177 $-1 #
coedge $-1 $419 $179 $416 $420 forward $113 $-1 #
coedge $-1 $179 $419 $421 $422 forward $113 $-1 #
coedge $-1 $294 $293 $179 $287 reversed $295 $-1 #
edge $-1 $423 -25.042579234978334 $424 25.042579234978334 $286 $425 forward 7 unknown #
coedge $-1 $181 $180 $426 $427 forward $71 $-1 #
coedge $-1 $428 $429 $180 $290 reversed $413 $-1 #
edge $-1 $297 -50.007629627368999 $430 50.007629627368999 $289 $431 forward 7 unknown #
coedge $-1 $283 $432 $181 $292 reversed $177 $-1 #
edge $-1 $433 -50.007629627368999 $296 50.007629627368999 $291 $434 forward 7 unknown #
coedge $-1 $286 $182 $432 $435 forward $295 $-1 #
coedge $-1 $182 $286 $428 $436 reversed $295 $-1 #
loop $-1 $-1 $293 $412 #
vertex $-1 $183 $437 #
vertex $-1 $183 $438 #
straight-curve $-1 50.007629627368999 0 10.704714814070483 0 1 0 I I #
face $-1 $439 $440 $43 $-1 $441 forward single #
loop $-1 $-1 $308 $184 #
plane-surface $-1 0 -25.042579234978334 0 0 1 0 0 0 1 forward_v I I I I #
coedge $-1 $442 $443 $444 $445 forward $185 $-1 #
coedge $-1 $444 $187 $189 $310 reversed $117 $-1 #
coedge $-1 $187 $444 $446 $447 reversed $117 $-1 #
coedge $-1 $448 $190 $187 $306 forward $312 $-1 #
edge $-1 $314 1.2999889041990391 $449 6.7031469079806412 $305 $450 forward 7 unknown #
coedge $-1 $189 $188 $442 $451 reversed $74 $-1 #
coedge $-1 $452 $453 $188 $309 forward $300 $-1 #
edge $-1 $454 -50.007629627368999 $313 50.007629627368999 $308 $455 forward 7 unknown #
edge $-1 $456 -50.007629627368999 $314 50.007629627368999 $303 $457 forward 7 unknown #
coedge $-1 $190 $448 $452 $458 forward $312 $-1 #
loop $-1 $-1 $305 $439 #
vertex $-1 $309 $459 #
vertex $-1 $191 $460 #
straight-curve $-1 50.007629627368999 -9.5070223251364574 5.3015568102888793 0 1 0 I I #
face $-1 $-1 $328 $44 $-1 $461 forward single #
loop $-1 $-1 $462 $192 #
plane-surface $-1 50.007629627368999 0 0 -1 0 0 0 0 1 forward_v I I I I #
coedge $-1 $463 $464 $465 $466 reversed $193 $-1 #
coedge $-1 $467 $195 $197 $326 forward $121 $-1 #
coedge $-1 $195 $467 $463 $468 forward $121 $-1 #
coedge $-1 $465 $198 $195 $323 forward $328 $-1 #
edge $-1 $330 -9.5371938314351876 $469 0.74752405686282053 $322 $470 forward 7 unknown #
coedge $-1 $471 $472 $196 $325 forward $317 $-1 #
edge $-1 $473 -66.367123016174133 $329 -63.316803823992629 $324 $474 forward 7 unknown #
edge $-1 $330 96.144348678622009 $473 100.015259254738 $197 $475 forward 7 unknown #
coedge $-1 $198 $465 $471 $476 forward $328 $-1 #
loop $-1 $-1 $465 $316 #
vertex $-1 $325 $477 #
vertex $-1 $199 $478 #
straight-curve $-1 33.622594629631138 13.932028718721371 10.704714814070485 -1 0 0 I I #
coedge $-1 $332 $332 $-1 $479 reversed $202 $-1 #
edge $-1 $480 0 $480 6.2831853071796004 $203 $481 forward 7 unknown #
vertex $-1 $206 $482 #
ellipse-curve $-1 48.816044389744775 6.5858016556513626 9.1795552179797433 0.78801076186113728 0 0.61566146476048833 0.30783073238024417 0 -0.39400538093056864 1 I I #
coedge $-1 $336 $336 $-1 $483 reversed $209 $-1 #
edge $-1 $484 0 $484 6.2831853071796004 $210 $485 forward 7 unknown #
vertex $-1 $213 $486 #
ellipse-curve $-1 48.816044389744775 10.993537893493368 9.1795552179797433 0.78801076186113728 0 0.61566146476048833 0.30783073238024417 0 -0.39400538093056864 1 I I #
face $-1 $-1 $352 $47 $-1 $487 reversed single #
loop $-1 $-1 $488 $214 #
plane-surface $-1 0 0 10.704714814070483 0 0 1 1 0 0 forward_v I I I I #
coedge $-1 $489 $490 $345 $491 forward $215 $-1 #
coedge $-1 $492 $217 $219 $350 forward $135 $-1 #
coedge $-1 $217 $492 $343 $491 reversed $135 $-1 #
coedge $-1 $493 $220 $217 $347 forward $352 $-1 #
edge $-1 $354 1.0481370238645793 $494 8.3076277024234706 $346 $495 forward 7 unknown #
coedge $-1 $496 $488 $218 $349 forward $341 $-1 #
edge $-1 $497 -13.053943129881013 $353 -9.1013069882774644 $348 $498 forward 7 unknown #
edge $-1 $354 -1.9479204584885432e-014 $497 5.404547996021229 $219 $499 forward 7 unknown #
coedge $-1 $220 $493 $496 $500 reversed $352 $-1 #
loop $-1 $-1 $346 $340 #
vertex $-1 $500 $501 #
vertex $-1 $221 $502 #
straight-curve $-1 -50.007629627368999 -5.7260193870086056 40.082675609098594 0 0 -1 I I #
coedge $-1 $356 $356 $-1 $503 reversed $224 $-1 #
edge $-1 $504 0 $504 6.2831853071796004 $225 $505 forward 7 unknown #
vertex $-1 $228 $506 #
ellipse-curve $-1 -48.031311556567225 -10.91136987169353 8.861768357076496 -0.68199836817093118 0 0.7313536940579346 0.7313536940579346 0 0.68199836817093118 1 I I #
coedge $-1 $360 $360 $-1 $507 reversed $231 $-1 #
edge $-1 $508 0 $508 6.2831853071796004 $232 $509 forward 7 unknown #
vertex $-1 $235 $510 #
ellipse-curve $-1 -48.031311556567225 -7.8001595808825748 8.861768357076496 -0.68199836817093118 0 0.7313536940579346 0.7313536940579346 0 0.68199836817093118 1 I I #
face $-1 $-1 $376 $50 $-1 $511 reversed single #
loop $-1 $-1 $512 $236 #
plane-surface $-1 0 0 10.704714814070483 0 0 1 1 0 0 forward_v I I I I #
coedge $-1 $513 $514 $515 $516 reversed $237 $-1 #
coedge $-1 $517 $239 $241 $374 forward $149 $-1 #
coedge $-1 $239 $517 $513 $518 forward $149 $-1 #
coedge $-1 $515 $242 $239 $371 forward $376 $-1 #
edge $-1 $378 -5.2898778595597253 $519 1.9696128189991686 $370 $520 forward 7 unknown #
coedge $-1 $521 $522 $240 $373 forward $365 $-1 #
edge $-1 $523 -13.053943129881013 $377 -9.1013069882774644 $372 $524 forward 7 unknown #
edge $-1 $378 -1.9479204584885432e-014 $523 5.404547996021229 $241 $525 forward 7 unknown #
coedge $-1 $242 $515 $521 $526 reversed $376 $-1 #
loop $-1 $-1 $515 $364 #
vertex $-1 $526 $527 #
vertex $-1 $243 $528 #
straight-curve $-1 -50.007629627368999 6.9500103798400037 40.082675609098594 0 0 -1 I I #
coedge $-1 $380 $380 $-1 $529 reversed $246 $-1 #
edge $-1 $530 0 $530 6.2831853071796004 $247 $531 forward 7 unknown #
vertex $-1 $250 $532 #
ellipse-curve $-1 -48.031311556567225 1.7646598951550772 8.861768357076496 -0.68199836817093118 0 0.7313536940579346 0.7313536940579346 0 0.68199836817093118 1 I I #
coedge $-1 $384 $384 $-1 $533 reversed $253 $-1 #
edge $-1 $534 0 $534 6.2831853071796004 $254 $535 forward 7 unknown #
vertex $-1 $257 $536 #
ellipse-curve $-1 -48.031311556567225 4.8758701859660363 8.861768357076496 -0.68199836817093118 0 0.7313536940579346 0.7313536940579346 0 0.68199836817093118 1 I I #
face $-1 $-1 $400 $53 $-1 $537 reversed single #
loop $-1 $-1 $538 $258 #
plane-surface $-1 0 0 10.704714814070483 0 0 1 1 0 0 forward_v I I I I #
coedge $-1 $539 $540 $541 $542 reversed $259 $-1 #
coedge $-1 $543 $261 $263 $398 forward $163 $-1 #
coedge $-1 $261 $543 $539 $544 forward $163 $-1 #
coedge $-1 $541 $264 $261 $395 forward $400 $-1 #
edge $-1 $402 -11.627892742984027 $545 -4.3684020644251351 $394 $546 forward 7 unknown #
coedge $-1 $547 $548 $262 $397 forward $389 $-1 #
edge $-1 $549 -13.053943129881013 $401 -9.1013069882774644 $396 $550 forward 7 unknown #
edge $-1 $402 -1.9479204584885432e-014 $549 5.404547996021229 $263 $551 forward 7 unknown #
coedge $-1 $264 $541 $547 $552 reversed $400 $-1 #
loop $-1 $-1 $541 $388 #
vertex $-1 $552 $553 #
vertex $-1 $265 $554 #
straight-curve $-1 -50.007629627368999 19.626040146688609 40.082675609098594 0 0 -1 I I #
coedge $-1 $404 $404 $-1 $555 reversed $268 $-1 #
edge $-1 $556 0 $556 6.2831853071796004 $269 $557 forward 7 unknown #
vertex $-1 $272 $558 #
ellipse-curve $-1 -48.031311556567225 14.440689662003685 8.861768357076496 -0.68199836817093118 0 0.7313536940579346 0.7313536940579346 0 0.68199836817093118 1 I I #
coedge $-1 $408 $408 $-1 $559 reversed $275 $-1 #
edge $-1 $560 0 $560 6.2831853071796004 $276 $561 forward 7 unknown #
vertex $-1 $279 $562 #
ellipse-curve $-1 -48.031311556567225 17.551899952814644 8.861768357076496 -0.68199836817093118 0 0.7313536940579346 0.7313536940579346 0 0.68199836817093118 1 I I #
face $-1 $-1 $295 $42 $-1 $563 reversed single #
loop $-1 $-1 $428 $280 #
plane-surface $-1 0 25.042579234978334 0 0 -1 0 0 0 -1 forward_v I I I I #
coedge $-1 $564 $426 $429 $565 forward $281 $-1 #
coedge $-1 $432 $283 $284 $420 reversed $177 $-1 #
coedge $-1 $426 $564 $283 $418 reversed $281 $-1 #
edge $-1 $433 -10.704714814070483 $566 10.704714814070483 $417 $567 forward 7 unknown #
coedge $-1 $285 $284 $564 $568 forward $113 $-1 #
edge $-1 $424 -50.007629627368999 $566 50.007629627368999 $416 $569 forward 7 unknown #
coedge $-1 $429 $428 $285 $422 reversed $413 $-1 #
edge $-1 $570 -50.007629627368999 $423 50.007629627368999 $421 $571 forward 7 unknown #
vertex $-1 $287 $572 #
vertex $-1 $435 $573 #
straight-curve $-1 50.007629627368999 0 -10.704714814070483 0 -1 0 I I #
coedge $-1 $415 $417 $288 $427 reversed $281 $-1 #
edge $-1 $430 -25.042579234978334 $433 25.042579234978334 $426 $574 forward 7 unknown #
coedge $-1 $421 $289 $294 $436 forward $413 $-1 #
coedge $-1 $289 $421 $415 $565 reversed $413 $-1 #
vertex $-1 $290 $575 #
straight-curve $-1 0 25.042579234978334 10.704714814070483 -1 0 0 I I #
coedge $-1 $291 $416 $293 $435 reversed $177 $-1 #
vertex $-1 $427 $576 #
straight-curve $-1 0 -25.042579234978334 10.704714814070483 1 0 0 I I #
edge $-1 $296 -10.704714814070483 $424 10.704714814070483 $293 $577 forward 7 unknown #
edge $-1 $297 -10.704714814070483 $423 10.704714814070483 $294 $578 forward 7 unknown #
point $-1 50.007629627368999 -25.042579234978334 10.704714814070483 #
point $-1 50.007629627368999 25.042579234978334 10.704714814070483 #
face $-1 $-1 $312 $43 $-1 $579 reversed single #
loop $-1 $-1 $446 $299 #
plane-surface $-1 0 0 10.704714814070483 0 0 1 1 0 0 forward_v I I I I #
coedge $-1 $580 $302 $307 $451 forward $185 $-1 #
coedge $-1 $302 $580 $581 $582 reversed $185 $-1 #
coedge $-1 $304 $303 $302 $445 reversed $117 $-1 #
edge $-1 $583 -6.7031469079806412 $456 -1.2999889041990391 $302 $584 forward 7 unknown #
coedge $-1 $581 $585 $304 $447 forward $440 $-1 #
edge $-1 $449 -50.007629627368999 $583 50.007629627368999 $446 $586 forward 7 unknown #
coedge $-1 $311 $305 $585 $587 reversed $312 $-1 #
vertex $-1 $306 $588 #
straight-curve $-1 50.007629627368999 -12.985510065567498 4.0015679060898401 0 0 1 I I #
edge $-1 $456 3.4784877404310404 $454 15.535556909841876 $442 $589 forward 7 unknown #
coedge $-1 $590 $308 $311 $458 reversed $300 $-1 #
coedge $-1 $308 $590 $580 $591 forward $300 $-1 #
vertex $-1 $309 $592 #
straight-curve $-1 0 -25.042579234978334 5.3015568102888793 1 0 0 I I #
vertex $-1 $451 $593 #
straight-curve $-1 0 -12.985510065567498 5.3015568102888793 1 0 0 I I #
edge $-1 $594 -10.704714814070483 $313 -5.3015568102888793 $311 $595 forward 7 unknown #
point $-1 50.007629627368999 -25.042579234978334 5.3015568102888793 #
point $-1 50.007629627368999 -12.985510065567498 5.3015568102888793 #
plane-surface $-1 0 0 10.704714814070483 0 0 1 1 0 0 forward_v I I I I #
coedge $-1 $472 $471 $464 $596 forward $317 $-1 #
coedge $-1 $464 $319 $321 $468 reversed $193 $-1 #
coedge $-1 $319 $463 $462 $596 reversed $193 $-1 #
coedge $-1 $327 $322 $319 $466 forward $328 $-1 #
edge $-1 $469 14.00186452248942 $597 16.385034997737861 $465 $598 forward 7 unknown #
coedge $-1 $321 $320 $472 $599 reversed $121 $-1 #
edge $-1 $600 -100.015259254738 $469 -96.144348678622009 $463 $601 forward 7 unknown #
vertex $-1 $323 $602 #
straight-curve $-1 47.624459152120565 4.3948348872861835 10.704714814070485 0 -1 0 I I #
coedge $-1 $462 $324 $327 $476 reversed $317 $-1 #
coedge $-1 $324 $462 $467 $599 forward $317 $-1 #
vertex $-1 $325 $603 #
straight-curve $-1 50.007629627368999 13.932028718721371 74.021518638063114 0 0 1 I I #
straight-curve $-1 -11.567911383802979 13.932028718721371 86.467496264954235 0.61566146476048833 0 -0.78801076186113728 I I #
edge $-1 $597 3.647310830423363 $329 13.932028718721371 $471 $604 forward 7 unknown #
point $-1 50.007629627368999 13.932028718721371 10.704714814070483 #
point $-1 47.624459152120558 13.932028718721371 10.704714814070485 #
edge $-1 $605 1 $605 0 $332 $-1 forward 7 unknown #
vertex $-1 $333 $606 #
ellipse-curve $-1 48.02803362788363 6.5858016556513626 8.5638937532192507 0.78801076186113728 0 0.61566146476048833 0.30783073238024417 0 -0.39400538093056864 1 I I #
point $-1 49.123875122125014 6.5858016556513626 8.7855498370491709 #
edge $-1 $607 1 $607 0 $336 $-1 forward 7 unknown #
vertex $-1 $337 $608 #
ellipse-curve $-1 48.02803362788363 10.993537893493368 8.5638937532192507 0.78801076186113728 0 0.61566146476048833 0.30783073238024417 0 -0.39400538093056864 1 I I #
point $-1 49.123875122125014 10.993537893493368 8.7855498370491709 #
plane-surface $-1 -50.007629627368999 0 0 1 0 0 0 0 -1 forward_v I I I I #
coedge $-1 $348 $609 $492 $610 forward $341 $-1 #
coedge $-1 $490 $343 $609 $611 reversed $215 $-1 #
coedge $-1 $343 $489 $493 $612 reversed $215 $-1 #
edge $-1 $494 -18.622282570437783 $613 -13.217734574416534 $343 $614 forward 7 unknown #
coedge $-1 $345 $344 $488 $610 reversed $135 $-1 #
coedge $-1 $351 $346 $490 $612 forward $352 $-1 #
vertex $-1 $612 $615 #
straight-curve $-1 -50.007629627368999 -4.6778823631440263 7.0188219000825178 0 -1 0 I I #
coedge $-1 $609 $348 $351 $500 forward $341 $-1 #
vertex $-1 $349 $616 #
straight-curve $-1 -59.108936615646464 -5.7260193870086056 10.704714814070485 -1 0 0 I I #
straight-curve $-1 -50.007629627368985 -5.7260193870086056 7.0188219000825285 0.7313536940579346 0 0.68199836817093118 I I #
edge $-1 $353 5.7260193870086056 $617 12.985510065567498 $351 $618 forward 7 unknown #
point $-1 -50.007629627368999 -5.7260193870086056 10.704714814070483 #
point $-1 -50.007629627368999 -5.7260193870086056 7.0188219000825152 #
edge $-1 $619 1 $619 0 $356 $-1 forward 7 unknown #
vertex $-1 $357 $620 #
ellipse-curve $-1 -46.037620962666139 -10.91136987169353 6.7237969942290805 -0.68199836817093118 0 0.7313536940579346 0.7313536940579346 0 0.68199836817093118 1 I I #
point $-1 -47.299957862509295 -10.91136987169353 9.5437667252474316 #
edge $-1 $621 1 $621 0 $360 $-1 forward 7 unknown #
vertex $-1 $361 $622 #
ellipse-curve $-1 -46.037620962666139 -7.8001595808825748 6.7237969942290805 -0.68199836817093118 0 0.7313536940579346 0.7313536940579346 0 0.68199836817093118 1 I I #
point $-1 -47.299957862509295 -7.8001595808825748 9.5437667252474316 #
plane-surface $-1 -50.007629627368999 0 0 1 0 0 0 0 -1 forward_v I I I I #
coedge $-1 $522 $521 $514 $623 forward $365 $-1 #
coedge $-1 $514 $367 $369 $518 reversed $237 $-1 #
coedge $-1 $367 $513 $512 $623 reversed $237 $-1 #
coedge $-1 $375 $370 $367 $516 forward $376 $-1 #
edge $-1 $519 -33.06385370901608 $624 -29.377960795028109 $515 $625 forward 7 unknown #
coedge $-1 $369 $368 $522 $626 reversed $149 $-1 #
edge $-1 $627 -5.404547996021229 $519 1.9479204584885432e-014 $513 $628 forward 7 unknown #
vertex $-1 $371 $629 #
straight-curve $-1 -50.007629627368999 1.6601325202802784 7.0188219000825178 0 -1 0 I I #
coedge $-1 $512 $372 $375 $526 forward $365 $-1 #
coedge $-1 $372 $512 $517 $626 forward $365 $-1 #
vertex $-1 $373 $630 #
straight-curve $-1 -59.108936615646464 6.9500103798400037 10.704714814070485 -1 0 0 I I #
straight-curve $-1 -50.007629627368985 6.9500103798400037 7.0188219000825285 0.7313536940579346 0 0.68199836817093118 I I #
edge $-1 $377 -6.9500103798400037 $624 0.30948029871889027 $375 $631 forward 7 unknown #
point $-1 -50.007629627368999 6.9500103798400037 10.704714814070483 #
point $-1 -50.007629627368999 6.9500103798400037 7.0188219000825152 #
edge $-1 $632 1 $632 0 $380 $-1 forward 7 unknown #
vertex $-1 $381 $633 #
ellipse-curve $-1 -46.037620962666139 1.7646598951550772 6.7237969942290805 -0.68199836817093118 0 0.7313536940579346 0.7313536940579346 0 0.68199836817093118 1 I I #
point $-1 -47.299957862509295 1.7646598951550772 9.5437667252474316 #
edge $-1 $634 1 $634 0 $384 $-1 forward 7 unknown #
vertex $-1 $385 $635 #
ellipse-curve $-1 -46.037620962666139 4.8758701859660363 6.7237969942290805 -0.68199836817093118 0 0.7313536940579346 0.7313536940579346 0 0.68199836817093118 1 I I #
point $-1 -47.299957862509295 4.8758701859660363 9.5437667252474316 #
plane-surface $-1 -50.007629627368999 0 0 1 0 0 0 0 -1 forward_v I I I I #
coedge $-1 $548 $547 $540 $636 forward $389 $-1 #
coedge $-1 $540 $391 $393 $544 reversed $259 $-1 #
coedge $-1 $391 $539 $538 $636 reversed $259 $-1 #
coedge $-1 $399 $394 $391 $542 forward $400 $-1 #
edge $-1 $545 -33.06385370901608 $637 -29.377960795028109 $541 $638 forward 7 unknown #
coedge $-1 $393 $392 $548 $639 reversed $163 $-1 #
edge $-1 $640 -5.404547996021229 $545 1.9479204584885432e-014 $539 $641 forward 7 unknown #
vertex $-1 $395 $642 #
straight-curve $-1 -50.007629627368999 7.9981474037045821 7.0188219000825178 0 -1 0 I I #
coedge $-1 $538 $396 $399 $552 forward $389 $-1 #
coedge $-1 $396 $538 $543 $639 forward $389 $-1 #
vertex $-1 $397 $643 #
straight-curve $-1 -59.108936615646464 19.626040146688609 10.704714814070485 -1 0 0 I I #
straight-curve $-1 -50.007629627368985 19.626040146688609 7.0188219000825285 0.7313536940579346 0 0.68199836817093118 I I #
edge $-1 $401 -19.626040146688609 $637 -12.366549468129717 $399 $644 forward 7 unknown #
point $-1 -50.007629627368999 19.626040146688609 10.704714814070483 #
point $-1 -50.007629627368999 19.626040146688609 7.0188219000825152 #
edge $-1 $645 1 $645 0 $404 $-1 forward 7 unknown #
vertex $-1 $405 $646 #
ellipse-curve $-1 -46.037620962666139 14.440689662003685 6.7237969942290805 -0.68199836817093118 0 0.7313536940579346 0.7313536940579346 0 0.68199836817093118 1 I I #
point $-1 -47.299957862509295 14.440689662003685 9.5437667252474316 #
edge $-1 $647 1 $647 0 $408 $-1 forward 7 unknown #
vertex $-1 $409 $648 #
ellipse-curve $-1 -46.037620962666139 17.551899952814644 6.7237969942290805 -0.68199836817093118 0 0.7313536940579346 0.7313536940579346 0 0.68199836817093118 1 I I #
point $-1 -47.299957862509295 17.551899952814644 9.5437667252474316 #
plane-surface $-1 50.007629627368999 0 0 -1 0 0 0 0 1 forward_v I I I I #
coedge $-1 $417 $415 $419 $568 reversed $281 $-1 #
edge $-1 $430 -10.704714814070483 $570 10.704714814070483 $429 $649 forward 7 unknown #
vertex $-1 $568 $650 #
straight-curve $-1 -50.007629627368999 -25.042579234978334 0 0 0 -1 I I #
edge $-1 $566 -25.042579234978334 $570 25.042579234978334 $564 $651 forward 7 unknown #
straight-curve $-1 0 -25.042579234978334 -10.704714814070483 -1 0 0 I I #
vertex $-1 $422 $652 #
straight-curve $-1 0 25.042579234978334 -10.704714814070483 1 0 0 I I #
point $-1 50.007629627368999 25.042579234978334 -10.704714814070483 #
point $-1 50.007629627368999 -25.042579234978334 -10.704714814070483 #
straight-curve $-1 -50.007629627368999 0 10.704714814070483 0 -1 0 I I #
point $-1 -50.007629627368999 25.042579234978334 10.704714814070483 #
point $-1 -50.007629627368999 -25.042579234978334 10.704714814070483 #
straight-curve $-1 50.007629627368999 -25.042579234978334 0 0 0 -1 I I #
straight-curve $-1 50.007629627368999 25.042579234978334 0 0 0 -1 I I #
plane-surface $-1 50.007629627368999 0 0 -1 0 0 0 0 1 forward_v I I I I #
coedge $-1 $443 $442 $453 $591 reversed $185 $-1 #
coedge $-1 $653 $446 $443 $582 forward $440 $-1 #
edge $-1 $583 12.985510065567498 $654 25.042579234978334 $443 $655 forward 7 unknown #
vertex $-1 $582 $656 #
straight-curve $-1 -50.007629627368999 -12.985510065567498 4.0015679060898401 0 0 -1 I I #
coedge $-1 $446 $653 $448 $587 forward $440 $-1 #
straight-curve $-1 0 -12.985510065567498 10.704714814070483 -1 0 0 I I #
edge $-1 $594 -25.042579234978334 $449 -12.985510065567498 $448 $657 forward 7 unknown #
point $-1 50.007629627368999 -12.985510065567498 10.704714814070481 #
straight-curve $-1 -50.007629627368999 -9.5070223251364574 5.3015568102888793 0 -1 0 I I #
coedge $-1 $453 $452 $653 $658 reversed $300 $-1 #
edge $-1 $654 -10.704714814070483 $454 -5.3015568102888793 $580 $659 forward 7 unknown #
point $-1 -50.007629627368999 -25.042579234978334 5.3015568102888793 #
point $-1 -50.007629627368999 -12.985510065567498 5.3015568102888793 #
vertex $-1 $587 $660 #
straight-curve $-1 50.007629627368999 -25.042579234978334 0 0 0 -1 I I #
edge $-1 $597 63.316803823992629 $600 66.367123016174133 $462 $661 forward 7 unknown #
vertex $-1 $476 $662 #
straight-curve $-1 33.622594629631138 3.647310830423363 10.704714814070485 1 0 0 I I #
edge $-1 $600 -0.74752405686282053 $473 9.5371938314351876 $472 $663 forward 7 unknown #
vertex $-1 $599 $664 #
straight-curve $-1 -11.567911383802979 3.647310830423363 86.467496264954235 -0.61566146476048833 0 0.78801076186113728 I I #
point $-1 47.624459152120558 3.647310830423363 10.704714814070485 #
point $-1 50.007629627369006 13.932028718721371 7.6543956218889804 #
straight-curve $-1 50.007629627368999 0 10.704714814070483 0 1 0 I I #
vertex $-1 $479 $665 #
point $-1 48.335864360263876 6.5858016556513626 8.1698883722886819 #
vertex $-1 $483 $666 #
point $-1 48.335864360263876 10.993537893493368 8.1698883722886819 #
coedge $-1 $488 $496 $489 $611 forward $341 $-1 #
edge $-1 $613 -8.3076277024234741 $497 -1.0481370238645793 $488 $667 forward 7 unknown #
edge $-1 $617 -50.007629627368999 $613 -46.054993485765451 $609 $668 forward 7 unknown #
edge $-1 $494 3.017253993992675 $617 6.7031469079806412 $493 $669 forward 7 unknown #
vertex $-1 $610 $670 #
straight-curve $-1 -36.388154477688637 -12.985510065567498 19.719188224739057 0.7313536940579346 0 0.68199836817093118 I I #
point $-1 -50.007629627368999 -12.985510065567498 7.0188219000825152 #
point $-1 -46.054993485765451 -5.7260193870086056 10.704714814070483 #
vertex $-1 $612 $671 #
straight-curve $-1 -50.007629627368999 0 10.704714814070483 0 -1 0 I I #
vertex $-1 $503 $672 #
point $-1 -45.306267268608202 -10.91136987169353 7.4057953624000117 #
vertex $-1 $507 $673 #
point $-1 -45.306267268608202 -7.8001595808825748 7.4057953624000117 #
edge $-1 $624 9.1013069882774644 $627 13.053943129881013 $512 $674 forward 7 unknown #
vertex $-1 $516 $675 #
straight-curve $-1 -50.007629627368999 -0.30948029871889027 40.082675609098594 0 0 1 I I #
edge $-1 $627 -1.9696128189991686 $523 5.2898778595597253 $522 $676 forward 7 unknown #
vertex $-1 $626 $677 #
straight-curve $-1 -50.007629627368985 -0.30948029871889027 7.0188219000825285 -0.7313536940579346 0 -0.68199836817093118 I I #
point $-1 -50.007629627368999 -0.30948029871889027 7.0188219000825152 #
point $-1 -46.054993485765451 6.9500103798400037 10.704714814070483 #
straight-curve $-1 -50.007629627368999 0 10.704714814070483 0 -1 0 I I #
vertex $-1 $529 $678 #
point $-1 -45.306267268608202 1.7646598951550772 7.4057953624000117 #
vertex $-1 $533 $679 #
point $-1 -45.306267268608202 4.8758701859660363 7.4057953624000117 #
edge $-1 $637 9.1013069882774644 $640 13.053943129881013 $538 $680 forward 7 unknown #
vertex $-1 $542 $681 #
straight-curve $-1 -50.007629627368999 12.366549468129717 40.082675609098594 0 0 1 I I #
edge $-1 $640 4.3684020644251351 $549 11.627892742984027 $548 $682 forward 7 unknown #
vertex $-1 $639 $683 #
straight-curve $-1 -50.007629627368985 12.366549468129717 7.0188219000825285 -0.7313536940579346 0 -0.68199836817093118 I I #
point $-1 -50.007629627368999 12.366549468129717 7.0188219000825152 #
point $-1 -46.054993485765451 19.626040146688609 10.704714814070483 #
straight-curve $-1 -50.007629627368999 0 10.704714814070483 0 -1 0 I I #
vertex $-1 $555 $684 #
point $-1 -45.306267268608202 14.440689662003685 7.4057953624000117 #
vertex $-1 $559 $685 #
point $-1 -45.306267268608202 17.551899952814644 7.4057953624000117 #
straight-curve $-1 -50.007629627368999 25.042579234978334 0 0 0 -1 I I #
point $-1 -50.007629627368999 -25.042579234978334 -10.704714814070483 #
straight-curve $-1 -50.007629627368999 0 -10.704714814070483 0 1 0 I I #
point $-1 -50.007629627368999 25.042579234978334 -10.704714814070483 #
coedge $-1 $585 $581 $590 $658 forward $440 $-1 #
vertex $-1 $582 $686 #
straight-curve $-1 -50.007629627368999 0 10.704714814070483 0 -1 0 I I #
point $-1 -50.007629627368999 -12.985510065567498 10.704714814070481 #
straight-curve $-1 50.007629627368999 0 10.704714814070483 0 1 0 I I #
edge $-1 $654 -50.007629627368999 $594 50.007629627368999 $590 $687 forward 7 unknown #
straight-curve $-1 -50.007629627368999 -25.042579234978334 0 0 0 -1 I I #
point $-1 50.007629627368999 -25.042579234978334 10.704714814070483 #
straight-curve $-1 50.007629627368999 3.647310830423363 74.021518638063114 0 0 -1 I I #
point $-1 50.007629627368999 3.647310830423363 10.704714814070483 #
straight-curve $-1 50.007629627368999 4.3948348872861835 7.6543956218889946 0 1 0 I I #
point $-1 50.007629627369006 3.647310830423363 7.6543956218889804 #
point $-1 47.634028246953065 6.5858016556513626 8.256063020839008 #
point $-1 47.634028246953065 10.993537893493368 8.256063020839008 #
straight-curve $-1 -46.054993485765451 -4.6778823631440263 10.704714814070483 0 1 0 I I #
straight-curve $-1 0 -12.985510065567498 10.704714814070483 1 0 0 I I #
straight-curve $-1 -50.007629627368999 -12.985510065567498 4.0015679060898401 0 0 1 I I #
point $-1 -46.054993485765451 -12.9855100655675 10.704714814070483 #
point $-1 -50.007629627368999 -12.985510065567498 10.704714814070481 #
point $-1 -45.355622594495202 -10.91136987169353 5.9924433001711455 #
point $-1 -45.355622594495202 -7.8001595808825748 5.9924433001711455 #
straight-curve $-1 -59.108936615646464 -0.30948029871889027 10.704714814070485 1 0 0 I I #
point $-1 -50.007629627368999 -0.30948029871889027 10.704714814070483 #
straight-curve $-1 -46.054993485765451 1.6601325202802784 10.704714814070483 0 1 0 I I #
point $-1 -46.054993485765451 -0.30948029871889027 10.704714814070483 #
point $-1 -45.355622594495202 1.7646598951550772 5.9924433001711455 #
point $-1 -45.355622594495202 4.8758701859660363 5.9924433001711455 #
straight-curve $-1 -59.108936615646464 12.366549468129717 10.704714814070485 1 0 0 I I #
point $-1 -50.007629627368999 12.366549468129717 10.704714814070483 #
straight-curve $-1 -46.054993485765451 7.9981474037045821 10.704714814070483 0 1 0 I I #
point $-1 -46.054993485765451 12.366549468129717 10.704714814070483 #
point $-1 -45.355622594495202 14.440689662003685 5.9924433001711455 #
point $-1 -45.355622594495202 17.551899952814644 5.9924433001711455 #
point $-1 -50.007629627368999 -25.042579234978334 10.704714814070483 #
straight-curve $-1 0 -25.042579234978334 10.704714814070483 1 0 0 I I #
End-of-ACIS-data 