500 0 7 0           
7 Unknown 11 ACIS 5.0 NT 24 Thu Mar 25 20:08:41 1999 
-1 9.9999999999999995e-007 1e-010 
body $-1 $7 $-1 $8 #
body $-1 $9 $-1 $10 #
body $-1 $11 $-1 $12 #
body $-1 $13 $-1 $14 #
body $-1 $15 $-1 $16 #
body $-1 $17 $-1 $18 #
body $-1 $19 $-1 $20 #
lump $-1 $-1 $21 $0 #
transform $-1 1 0 0 0 1 0 0 0 1 40.177007354960786 17.313743472265504 8.1928927895402559 1 rotate no_reflect no_shear #
lump $-1 $-1 $22 $1 #
transform $-1 1 0 0 0 1 0 0 0 1 40.177007354960786 17.313743472265504 8.1928927895402559 1 rotate no_reflect no_shear #
lump $-1 $-1 $23 $2 #
transform $-1 1 0 0 0 1 0 0 0 1 40.177007354960786 17.313743472265504 8.1928927895402559 1 rotate no_reflect no_shear #
lump $-1 $-1 $24 $3 #
transform $-1 1 0 0 0 1 0 0 0 1 40.177007354960786 17.313743472265504 8.1928927895402559 1 rotate no_reflect no_shear #
lump $-1 $-1 $25 $4 #
transform $-1 1 0 0 0 1 0 0 0 1 40.177007354960786 17.313743472265504 8.1928927895402559 1 rotate no_reflect no_shear #
lump $-1 $-1 $26 $5 #
transform $-1 1 0 0 0 1 0 0 0 1 40.177007354960786 17.313743472265504 8.1928927895402559 1 rotate no_reflect no_shear #
lump $-1 $-1 $27 $6 #
transform $-1 1 0 0 0 1 0 0 0 1 40.177007354960786 17.313743472265504 8.1928927895402559 1 rotate no_reflect no_shear #
shell $-1 $-1 $-1 $28 $-1 $7 #
shell $-1 $-1 $-1 $29 $-1 $9 #
shell $-1 $-1 $-1 $30 $-1 $11 #
shell $-1 $-1 $-1 $31 $-1 $13 #
shell $-1 $-1 $-1 $32 $-1 $15 #
shell $-1 $-1 $-1 $33 $-1 $17 #
shell $-1 $-1 $-1 $34 $-1 $19 #
face $-1 $35 $36 $21 $-1 $37 forward single #
face $-1 $38 $39 $22 $-1 $40 reversed single #
face $-1 $41 $42 $23 $-1 $43 reversed single #
face $-1 $44 $45 $24 $-1 $46 forward single #
face $-1 $47 $48 $25 $-1 $49 reversed single #
face $-1 $50 $51 $26 $-1 $52 forward single #
face $-1 $53 $54 $27 $-1 $55 forward single #
face $-1 $56 $57 $21 $-1 $58 reversed single #
loop $-1 $-1 $59 $28 #
plane-surface $-1 0 0 8.1928927895402559 0 0 1 1 0 0 forward_v I I I I #
face $-1 $60 $61 $22 $-1 $62 reversed single #
loop $-1 $-1 $63 $29 #
plane-surface $-1 -36.952870134649977 0 4.6231448615558124 0 0 1 1 0 0 forward_v I I I I #
face $-1 $64 $65 $23 $-1 $66 reversed single #
loop $-1 $-1 $67 $30 #
plane-surface $-1 32.360596243072031 60.647972175986084 76.273057938189581 1 0 0 0 -0.79863551827123203 -0.60181501223851219 forward_v I I I I #
face $-1 $68 $69 $24 $-1 $70 forward single #
loop $-1 $71 $72 $31 #
cone-surface $-1 36.268801799016408 13.041022308782159 3.259055603438167 0 -0.79863551827123203 -0.60181501223851219 1.5 0 0 1 I I 0 1 1.5 forward I I I I #
face $-1 $73 $74 $25 $-1 $75 reversed single #
loop $-1 $-1 $76 $32 #
plane-surface $-1 -12.540856895302431 -71.081074705136984 63.079978606411757 -1 0 0 0 -0.66913061440640931 0.74314481823134659 forward_v I I I I #
face $-1 $77 $78 $26 $-1 $79 forward single #
loop $-1 $80 $81 $33 #
cone-surface $-1 -27.675054051757247 -13.755267067248628 4.8043285599167795 0 0.66913061440640931 -0.74314481823134659 1 0 0 1 I I 0 1 1 forward I I I I #
face $-1 $82 $83 $27 $-1 $84 forward single #
loop $-1 $85 $86 $34 #
cone-surface $-1 -18.594535757884358 -13.755267067248628 4.8043285599167795 0 0.66913061440640931 -0.74314481823134659 1 0 0 1 I I 0 1 1 forward I I I I #
face $-1 $87 $88 $21 $-1 $89 reversed single #
loop $-1 $-1 $90 $35 #
plane-surface $-1 0 0 -8.1928927895402559 0 0 1 1 0 0 forward_v I I I I #
coedge $-1 $91 $92 $93 $94 forward $36 $-1 #
face $-1 $95 $96 $22 $-1 $97 reversed single #
loop $-1 $-1 $98 $38 #
plane-surface $-1 -33.728732914339169 0 6.4080188255480337 -1 0 0 0 0 1 forward_v I I I I #
coedge $-1 $99 $100 $98 $101 forward $39 $-1 #
face $-1 $102 $103 $23 $-1 $104 forward single #
loop $-1 $-1 $105 $41 #
plane-surface $-1 36.268801799016408 -3.5255980070463266 27.914805592124544 0 0.79863551827123203 0.60181501223851219 1 0 0 forward_v I I I I #
coedge $-1 $106 $107 $108 $109 reversed $42 $-1 #
face $-1 $-1 $110 $24 $-1 $111 forward single #
loop $-1 $112 $113 $44 #
cone-surface $-1 36.268801799016408 11.158231823440953 1.8402712480529715 0 -0.79863551827123203 -0.60181501223851219 0.75 0 0 1 I I -0.70710678118654757 0.70710678118654757 0.75 forward I I I I #
loop $-1 $-1 $114 $31 #
coedge $-1 $72 $72 $115 $116 reversed $45 $-1 #
face $-1 $117 $118 $25 $-1 $119 forward single #
loop $-1 $-1 $120 $47 #
plane-surface $-1 -23.134794904820801 -17.313743472265514 3.3653089506481422 0 -0.66913061440640931 0.74314481823134659 1 0 0 forward_v I I I I #
coedge $-1 $121 $122 $123 $124 reversed $48 $-1 #
face $-1 $-1 $125 $26 $-1 $126 forward single #
loop $-1 $127 $128 $50 #
cone-surface $-1 -27.675054051757247 -12.543012810578354 3.4579838406236938 0 0.66913061440640931 -0.74314481823134659 0.5 0 0 1 I I -0.70710678118654746 0.70710678118654746 0.5 forward I I I I #
loop $-1 $-1 $129 $33 #
coedge $-1 $81 $81 $130 $131 reversed $51 $-1 #
face $-1 $-1 $132 $27 $-1 $133 forward single #
loop $-1 $134 $135 $53 #
cone-surface $-1 -18.594535757884358 -12.543012810578354 3.4579838406236938 0 0.66913061440640931 -0.74314481823134659 0.5 0 0 1 I I -0.70710678118654746 0.70710678118654746 0.5 forward I I I I #
loop $-1 $-1 $136 $34 #
coedge $-1 $86 $86 $137 $138 reversed $54 $-1 #
face $-1 $139 $140 $21 $-1 $141 reversed single #
loop $-1 $-1 $142 $56 #
plane-surface $-1 0 -17.313743472265504 0 0 1 0 0 0 1 forward_v I I I I #
coedge $-1 $143 $144 $145 $146 forward $57 $-1 #
coedge $-1 $147 $59 $148 $149 forward $36 $-1 #
coedge $-1 $59 $147 $150 $151 forward $36 $-1 #
coedge $-1 $152 $153 $59 $94 reversed $154 $-1 #
edge $-1 $155 -17.313743472265504 $156 17.313743472265504 $93 $157 forward 7 unknown #
face $-1 $158 $159 $22 $-1 $160 reversed single #
loop $-1 $-1 $161 $60 #
plane-surface $-1 0 17.313743472265504 0 0 -1 0 0 0 -1 forward_v I I I I #
coedge $-1 $162 $163 $63 $101 reversed $61 $-1 #
coedge $-1 $164 $63 $165 $166 reversed $39 $-1 #
coedge $-1 $63 $164 $167 $168 reversed $39 $-1 #
edge $-1 $169 -17.313743472265504 $170 17.313743472265504 $98 $171 forward 7 unknown #
face $-1 $172 $173 $23 $-1 $174 reversed single #
loop $-1 $-1 $108 $64 #
plane-surface $-1 0 0 8.1928927895402559 0 0 1 1 0 0 forward_v I I I I #
coedge $-1 $175 $176 $177 $178 reversed $65 $-1 #
coedge $-1 $107 $67 $179 $180 reversed $42 $-1 #
coedge $-1 $67 $106 $175 $181 reversed $42 $-1 #
coedge $-1 $177 $182 $67 $109 forward $103 $-1 #
edge $-1 $183 13.010242615727538 $184 18.988057249418645 $108 $185 forward 7 unknown #
loop $-1 $-1 $115 $68 #
plane-surface $-1 36.268801799016408 -3.5255980070463266 27.914805592124544 0 0.79863551827123203 0.60181501223851219 1 0 0 forward_v I I I I #
loop $-1 $-1 $186 $44 #
coedge $-1 $113 $113 $114 $187 reversed $69 $-1 #
coedge $-1 $114 $114 $113 $187 forward $71 $-1 #
coedge $-1 $115 $115 $72 $116 forward $110 $-1 #
edge $-1 $188 -2.5997277730670132e-016 $188 6.2831853071796004 $115 $189 forward 7 unknown #
face $-1 $190 $191 $25 $-1 $192 forward single #
loop $-1 $-1 $193 $73 #
plane-surface $-1 -33.728732914339169 0 6.4080188255480337 -1 0 0 0 0 1 forward_v I I I I #
coedge $-1 $194 $195 $196 $197 reversed $74 $-1 #
coedge $-1 $122 $76 $198 $199 reversed $48 $-1 #
coedge $-1 $76 $121 $194 $200 reversed $48 $-1 #
coedge $-1 $196 $201 $76 $124 forward $191 $-1 #
edge $-1 $202 18.226793880302989 $203 23.58836879140258 $123 $204 forward 7 unknown #
loop $-1 $-1 $130 $77 #
plane-surface $-1 -23.134794904820801 -17.313743472265514 3.3653089506481422 0 -0.66913061440640931 0.74314481823134659 1 0 0 forward_v I I I I #
loop $-1 $-1 $205 $50 #
coedge $-1 $128 $128 $129 $206 reversed $78 $-1 #
coedge $-1 $129 $129 $128 $206 forward $80 $-1 #
coedge $-1 $130 $130 $81 $131 forward $125 $-1 #
edge $-1 $207 1.9454645138669056e-016 $207 6.2831853071796004 $130 $208 forward 7 unknown #
loop $-1 $-1 $137 $82 #
plane-surface $-1 -23.134794904820801 -17.313743472265514 3.3653089506481422 0 -0.66913061440640931 0.74314481823134659 1 0 0 forward_v I I I I #
loop $-1 $-1 $209 $53 #
coedge $-1 $135 $135 $136 $210 reversed $83 $-1 #
coedge $-1 $136 $136 $135 $210 forward $85 $-1 #
coedge $-1 $137 $137 $86 $138 forward $132 $-1 #
edge $-1 $211 1.9454645138669056e-016 $211 6.2831853071796004 $137 $212 forward 7 unknown #
face $-1 $213 $214 $21 $-1 $215 reversed single #
loop $-1 $-1 $216 $87 #
plane-surface $-1 -40.177007354960786 0 0 1 0 0 0 0 -1 forward_v I I I I #
coedge $-1 $217 $150 $218 $219 forward $88 $-1 #
coedge $-1 $220 $90 $217 $221 forward $57 $-1 #
coedge $-1 $90 $220 $222 $223 forward $57 $-1 #
coedge $-1 $153 $152 $90 $146 reversed $154 $-1 #
edge $-1 $224 -17.313743472265504 $225 17.313743472265504 $145 $226 forward 7 unknown #
coedge $-1 $92 $91 $227 $228 forward $36 $-1 #
coedge $-1 $229 $230 $91 $149 reversed $214 $-1 #
edge $-1 $156 -40.177007354960786 $231 40.177007354960786 $148 $232 forward 7 unknown #
coedge $-1 $142 $233 $92 $151 reversed $88 $-1 #
edge $-1 $234 -40.177007354960786 $155 40.177007354960786 $150 $235 forward 7 unknown #
coedge $-1 $145 $93 $233 $236 forward $154 $-1 #
coedge $-1 $93 $145 $229 $237 reversed $154 $-1 #
loop $-1 $-1 $152 $213 #
vertex $-1 $94 $238 #
vertex $-1 $94 $239 #
straight-curve $-1 40.177007354960786 0 8.1928927895402559 0 1 0 I I #
face $-1 $240 $241 $22 $-1 $242 forward single #
loop $-1 $-1 $243 $95 #
plane-surface $-1 -40.177007354960786 0 0 1 0 0 0 0 -1 forward_v I I I I #
coedge $-1 $167 $244 $162 $245 forward $96 $-1 #
coedge $-1 $246 $98 $161 $245 reversed $61 $-1 #
coedge $-1 $98 $246 $247 $248 reversed $61 $-1 #
coedge $-1 $100 $99 $243 $249 reversed $39 $-1 #
coedge $-1 $247 $250 $99 $166 forward $251 $-1 #
edge $-1 $252 -21.700572287635797 $170 -15.25229784701418 $165 $253 forward 7 unknown #
coedge $-1 $254 $161 $100 $168 forward $96 $-1 #
edge $-1 $169 15.25229784701418 $255 21.700572287635797 $167 $256 forward 7 unknown #
vertex $-1 $168 $257 #
vertex $-1 $166 $258 #
straight-curve $-1 -33.728732914339169 0 4.6231448615558124 0 -1 0 I I #
face $-1 $-1 $259 $23 $-1 $260 reversed single #
loop $-1 $-1 $261 $102 #
plane-surface $-1 40.177007354960786 0 0 -1 0 0 0 0 1 forward_v I I I I #
coedge $-1 $262 $105 $107 $181 forward $65 $-1 #
coedge $-1 $105 $262 $261 $263 reversed $65 $-1 #
coedge $-1 $264 $108 $105 $178 forward $103 $-1 #
edge $-1 $184 14.226195343563827 $265 22.042606455452582 $177 $266 forward 7 unknown #
coedge $-1 $267 $268 $106 $180 forward $259 $-1 #
edge $-1 $269 -37.876464359346066 $183 -29.943636179554534 $179 $270 forward 7 unknown #
edge $-1 $184 24.694510012872161 $269 34.627486944530979 $107 $271 forward 7 unknown #
coedge $-1 $108 $264 $267 $272 forward $103 $-1 #
vertex $-1 $180 $273 #
vertex $-1 $109 $274 #
straight-curve $-1 32.360596243072031 30.323986087993042 8.1928927895402595 0 -1 0 I I #
coedge $-1 $186 $186 $-1 $275 reversed $112 $-1 #
edge $-1 $276 0 $276 6.2831853071796004 $113 $277 forward 7 unknown #
vertex $-1 $116 $278 #
ellipse-curve $-1 36.268801799016408 14.324836155419952 4.2264786996444874 0 0.79863551827123203 0.60181501223851219 1.5 0 0 1 I I #
face $-1 $-1 $279 $25 $-1 $280 reversed single #
loop $-1 $-1 $196 $117 #
plane-surface $-1 0 0 8.1928927895402559 0 0 1 1 0 0 forward_v I I I I #
coedge $-1 $281 $282 $195 $283 reversed $118 $-1 #
coedge $-1 $284 $120 $122 $200 forward $74 $-1 #
coedge $-1 $120 $284 $193 $283 forward $74 $-1 #
coedge $-1 $285 $123 $120 $197 forward $191 $-1 #
edge $-1 $203 0.97345944289203068 $286 22.161335461928768 $196 $287 forward 7 unknown #
coedge $-1 $288 $289 $121 $199 forward $279 $-1 #
edge $-1 $290 -28.174680352557726 $202 -23.347096513665623 $198 $291 forward 7 unknown #
edge $-1 $203 -7.2147107529591938 $290 -1.4457923371621692e-014 $122 $292 forward 7 unknown #
coedge $-1 $123 $285 $288 $293 forward $191 $-1 #
vertex $-1 $199 $294 #
vertex $-1 $124 $295 #
straight-curve $-1 -12.540856895302431 -35.540537352568492 8.1928927895402559 0 1 0 I I #
coedge $-1 $205 $205 $-1 $296 reversed $127 $-1 #
edge $-1 $297 0 $297 6.2831853071796004 $128 $298 forward 7 unknown #
vertex $-1 $131 $299 #
ellipse-curve $-1 -27.675054051757247 -14.632956016715708 5.7791008700942035 0 -0.66913061440640931 0.74314481823134659 1 0 0 1 I I #
coedge $-1 $209 $209 $-1 $300 reversed $134 $-1 #
edge $-1 $301 0 $301 6.2831853071796004 $135 $302 forward 7 unknown #
vertex $-1 $138 $303 #
ellipse-curve $-1 -18.594535757884358 -14.632956016715708 5.7791008700942035 0 -0.66913061440640931 0.74314481823134659 1 0 0 1 I I #
face $-1 $-1 $154 $21 $-1 $304 reversed single #
loop $-1 $-1 $229 $139 #
plane-surface $-1 0 17.313743472265504 0 0 -1 0 0 0 -1 forward_v I I I I #
coedge $-1 $305 $227 $230 $306 forward $140 $-1 #
coedge $-1 $233 $142 $143 $221 reversed $88 $-1 #
coedge $-1 $227 $305 $142 $219 reversed $140 $-1 #
edge $-1 $234 -8.1928927895402559 $307 8.1928927895402559 $218 $308 forward 7 unknown #
coedge $-1 $144 $143 $305 $309 forward $57 $-1 #
edge $-1 $225 -40.177007354960786 $307 40.177007354960786 $217 $310 forward 7 unknown #
coedge $-1 $230 $229 $144 $223 reversed $214 $-1 #
edge $-1 $311 -40.177007354960786 $224 40.177007354960786 $222 $312 forward 7 unknown #
vertex $-1 $146 $313 #
vertex $-1 $236 $314 #
straight-curve $-1 40.177007354960786 0 -8.1928927895402559 0 -1 0 I I #
coedge $-1 $216 $218 $147 $228 reversed $140 $-1 #
edge $-1 $231 -17.313743472265504 $234 17.313743472265504 $227 $315 forward 7 unknown #
coedge $-1 $222 $148 $153 $237 forward $214 $-1 #
coedge $-1 $148 $222 $216 $306 reversed $214 $-1 #
vertex $-1 $149 $316 #
straight-curve $-1 0 17.313743472265504 8.1928927895402559 -1 0 0 I I #
coedge $-1 $150 $217 $152 $236 reversed $88 $-1 #
vertex $-1 $228 $317 #
straight-curve $-1 0 -17.313743472265504 8.1928927895402559 1 0 0 I I #
edge $-1 $155 -8.1928927895402559 $225 8.1928927895402559 $152 $318 forward 7 unknown #
edge $-1 $156 -8.1928927895402559 $224 8.1928927895402559 $153 $319 forward 7 unknown #
point $-1 40.177007354960786 -17.313743472265504 8.1928927895402559 #
point $-1 40.177007354960786 17.313743472265504 8.1928927895402559 #
face $-1 $-1 $251 $22 $-1 $320 reversed single #
loop $-1 $-1 $321 $158 #
plane-surface $-1 0 0 8.1928927895402559 0 0 1 1 0 0 forward_v I I I I #
coedge $-1 $322 $323 $164 $249 forward $159 $-1 #
coedge $-1 $161 $254 $324 $325 reversed $96 $-1 #
edge $-1 $326 -4.9888833767662391 $169 -1.4191354487817955 $161 $327 forward 7 unknown #
coedge $-1 $163 $162 $321 $328 reversed $61 $-1 #
coedge $-1 $329 $165 $163 $248 forward $251 $-1 #
edge $-1 $170 1.4191354487817955 $330 4.9888833767662391 $247 $331 forward 7 unknown #
edge $-1 $255 -17.313743472265504 $252 17.313743472265504 $243 $332 forward 7 unknown #
coedge $-1 $165 $329 $322 $333 forward $251 $-1 #
loop $-1 $-1 $247 $240 #
vertex $-1 $249 $334 #
straight-curve $-1 -18.476435067324989 -17.313743472265504 4.6231448615558124 1 0 0 I I #
coedge $-1 $244 $167 $323 $335 reversed $96 $-1 #
vertex $-1 $249 $336 #
straight-curve $-1 -18.476435067324989 17.313743472265504 4.6231448615558124 -1 0 0 I I #
point $-1 -33.728732914339169 17.313743472265504 4.6231448615558124 #
point $-1 -33.728732914339169 -17.313743472265504 4.6231448615558124 #
loop $-1 $-1 $179 $172 #
plane-surface $-1 0 17.313743472265504 0 0 -1 0 0 0 -1 forward_v I I I I #
coedge $-1 $337 $338 $176 $263 forward $173 $-1 #
coedge $-1 $176 $175 $268 $339 reversed $65 $-1 #
edge $-1 $265 12.486753493239295 $340 22.419730424898113 $261 $341 forward 7 unknown #
coedge $-1 $182 $177 $338 $342 forward $103 $-1 #
vertex $-1 $342 $343 #
straight-curve $-1 18.134400899508204 11.335928838574397 8.1928927895402559 1 0 0 I I #
coedge $-1 $344 $179 $182 $272 reversed $259 $-1 #
coedge $-1 $179 $344 $262 $339 forward $259 $-1 #
vertex $-1 $180 $345 #
straight-curve $-1 32.360596243072031 17.313743472265504 38.13652896909479 0 0 1 I I #
straight-curve $-1 32.360596243072031 -3.5255980070463266 27.914805592124544 0 0.60181501223851219 -0.79863551827123203 I I #
edge $-1 $346 -40.177007354960786 $183 -32.360596243072031 $267 $347 forward 7 unknown #
point $-1 32.360596243072031 17.313743472265504 8.1928927895402559 #
point $-1 32.360596243072031 11.335928838574395 8.1928927895402559 #
edge $-1 $348 1 $348 0 $186 $-1 forward 7 unknown #
vertex $-1 $187 $349 #
ellipse-curve $-1 36.268801799016408 11.757208462144378 2.2916325072318555 0 0.79863551827123203 0.60181501223851219 1.5 0 0 1 I I #
point $-1 37.768801799016408 14.324836155419939 4.2264786996444785 #
loop $-1 $-1 $198 $190 #
plane-surface $-1 0 -17.313743472265504 0 0 1 0 0 0 1 forward_v I I I I #
coedge $-1 $282 $193 $350 $351 reversed $118 $-1 #
coedge $-1 $193 $281 $285 $352 reversed $118 $-1 #
edge $-1 $353 1.4457923371621692e-014 $286 7.2147107529591938 $193 $354 forward 7 unknown #
coedge $-1 $195 $194 $289 $355 reversed $74 $-1 #
coedge $-1 $201 $196 $282 $352 forward $191 $-1 #
vertex $-1 $352 $356 #
straight-curve $-1 -11.5673974524104 -11.952168561165912 8.1928927895402559 -1 0 0 I I #
coedge $-1 $350 $198 $201 $293 reversed $279 $-1 #
coedge $-1 $198 $350 $284 $355 forward $279 $-1 #
vertex $-1 $199 $357 #
straight-curve $-1 -12.540856895302431 -17.313743472265504 31.539989303205878 0 0 1 I I #
straight-curve $-1 -12.540856895302431 -17.313743472265514 3.3653089506481422 0 -0.74314481823134659 -0.66913061440640931 I I #
edge $-1 $358 -33.728732914339169 $202 -12.540856895302431 $288 $359 forward 7 unknown #
point $-1 -12.540856895302431 -17.313743472265504 8.1928927895402559 #
point $-1 -12.540856895302431 -11.952168561165912 8.1928927895402559 #
edge $-1 $360 1 $360 0 $205 $-1 forward 7 unknown #
vertex $-1 $206 $361 #
ellipse-curve $-1 -27.675054051757247 -12.877578117781558 3.8295562497393671 0 -0.66913061440640931 0.74314481823134659 1 0 0 1 I I #
point $-1 -26.675054051757247 -14.632956016715697 5.7791008700941919 #
edge $-1 $362 1 $362 0 $209 $-1 forward 7 unknown #
vertex $-1 $210 $363 #
ellipse-curve $-1 -18.594535757884358 -12.877578117781558 3.8295562497393671 0 -0.66913061440640931 0.74314481823134659 1 0 0 1 I I #
point $-1 -17.594535757884358 -14.632956016715697 5.7791008700941919 #
plane-surface $-1 40.177007354960786 0 0 -1 0 0 0 0 1 forward_v I I I I #
coedge $-1 $218 $216 $220 $309 reversed $140 $-1 #
edge $-1 $231 -8.1928927895402559 $311 8.1928927895402559 $230 $364 forward 7 unknown #
vertex $-1 $309 $365 #
straight-curve $-1 -40.177007354960786 -17.313743472265504 0 0 0 -1 I I #
edge $-1 $307 -17.313743472265504 $311 17.313743472265504 $305 $366 forward 7 unknown #
straight-curve $-1 0 -17.313743472265504 -8.1928927895402559 -1 0 0 I I #
vertex $-1 $223 $367 #
straight-curve $-1 0 17.313743472265504 -8.1928927895402559 1 0 0 I I #
point $-1 40.177007354960786 17.313743472265504 -8.1928927895402559 #
point $-1 40.177007354960786 -17.313743472265504 -8.1928927895402559 #
straight-curve $-1 -40.177007354960786 0 8.1928927895402559 0 -1 0 I I #
point $-1 -40.177007354960786 17.313743472265504 8.1928927895402559 #
point $-1 -40.177007354960786 -17.313743472265504 8.1928927895402559 #
straight-curve $-1 40.177007354960786 -17.313743472265504 0 0 0 -1 I I #
straight-curve $-1 40.177007354960786 17.313743472265504 0 0 0 -1 I I #
plane-surface $-1 0 -17.313743472265504 0 0 1 0 0 0 1 forward_v I I I I #
coedge $-1 $324 $368 $246 $328 forward $241 $-1 #
coedge $-1 $369 $243 $250 $333 reversed $159 $-1 #
coedge $-1 $243 $369 $254 $335 forward $159 $-1 #
coedge $-1 $370 $321 $244 $325 forward $241 $-1 #
edge $-1 $326 33.728732914339169 $371 40.177007354960786 $244 $372 forward 7 unknown #
vertex $-1 $325 $373 #
straight-curve $-1 -33.728732914339169 17.313743472265504 3.2040094127740169 0 0 -1 I I #
edge $-1 $330 -17.313743472265504 $326 17.313743472265504 $321 $374 forward 7 unknown #
coedge $-1 $250 $247 $368 $375 reversed $251 $-1 #
vertex $-1 $248 $376 #
straight-curve $-1 -33.728732914339169 -17.313743472265504 3.2040094127740169 0 0 1 I I #
straight-curve $-1 -40.177007354960786 0 4.6231448615558124 0 -1 0 I I #
edge $-1 $377 -8.1928927895402559 $252 -4.6231448615558124 $322 $378 forward 7 unknown #
point $-1 -40.177007354960786 -17.313743472265504 4.6231448615558124 #
edge $-1 $371 -8.1928927895402559 $255 -4.6231448615558124 $254 $379 forward 7 unknown #
point $-1 -40.177007354960786 17.313743472265504 4.6231448615558124 #
coedge $-1 $338 $261 $344 $380 reversed $173 $-1 #
coedge $-1 $261 $337 $264 $342 reversed $173 $-1 #
edge $-1 $340 -22.042606455452582 $269 -14.226195343563827 $268 $381 forward 7 unknown #
vertex $-1 $263 $382 #
straight-curve $-1 40.177007354960786 3.8212131322213025 18.165257637138538 0 0.60181501223851219 -0.79863551827123203 I I #
edge $-1 $265 11.335928838574395 $346 17.313743472265504 $338 $383 forward 7 unknown #
point $-1 40.177007354960786 11.335928838574395 8.1928927895402559 #
coedge $-1 $268 $267 $337 $380 forward $259 $-1 #
point $-1 32.360596243072031 17.313743472265507 0.26006460974872425 #
vertex $-1 $342 $384 #
straight-curve $-1 0 17.313743472265504 8.1928927895402559 -1 0 0 I I #
vertex $-1 $275 $385 #
point $-1 37.768801799016408 11.757208462144378 2.2916325072318555 #
coedge $-1 $289 $288 $281 $351 forward $279 $-1 #
edge $-1 $358 23.347096513665623 $353 28.174680352557726 $350 $386 forward 7 unknown #
edge $-1 $286 11.952168561165912 $358 17.313743472265504 $285 $387 forward 7 unknown #
vertex $-1 $351 $388 #
straight-curve $-1 -33.728732914339169 -17.313743472265514 3.3653089506481422 0 0.74314481823134659 0.66913061440640931 I I #
edge $-1 $353 -22.161335461928768 $290 -0.97345944289203068 $289 $389 forward 7 unknown #
point $-1 -33.728732914339169 -11.952168561165912 8.1928927895402559 #
point $-1 -12.540856895302431 -17.313743472265504 3.3653089506481519 #
vertex $-1 $293 $390 #
straight-curve $-1 0 -17.313743472265504 8.1928927895402559 1 0 0 I I #
vertex $-1 $296 $391 #
point $-1 -26.675054051757247 -12.877578117781558 3.8295562497393671 #
vertex $-1 $300 $392 #
point $-1 -17.594535757884358 -12.877578117781558 3.8295562497393671 #
straight-curve $-1 -40.177007354960786 17.313743472265504 0 0 0 -1 I I #
point $-1 -40.177007354960786 -17.313743472265504 -8.1928927895402559 #
straight-curve $-1 -40.177007354960786 0 -8.1928927895402559 0 1 0 I I #
point $-1 -40.177007354960786 17.313743472265504 -8.1928927895402559 #
coedge $-1 $321 $370 $329 $375 forward $241 $-1 #
coedge $-1 $323 $322 $370 $393 reversed $159 $-1 #
coedge $-1 $368 $324 $369 $393 forward $241 $-1 #
vertex $-1 $325 $394 #
straight-curve $-1 0 17.313743472265504 8.1928927895402559 -1 0 0 I I #
point $-1 -33.728732914339169 17.313743472265504 8.1928927895402559 #
straight-curve $-1 -33.728732914339169 0 8.1928927895402559 0 1 0 I I #
edge $-1 $377 -40.177007354960786 $330 -33.728732914339169 $329 $395 forward 7 unknown #
point $-1 -33.728732914339169 -17.313743472265504 8.1928927895402559 #
vertex $-1 $393 $396 #
straight-curve $-1 -40.177007354960786 -17.313743472265504 0 0 0 -1 I I #
straight-curve $-1 -40.177007354960786 17.313743472265504 0 0 0 -1 I I #
edge $-1 $346 -8.1928927895402559 $340 -0.26006460974872425 $337 $397 forward 7 unknown #
straight-curve $-1 18.134400899508204 17.313743472265504 0.2600646097487278 -1 0 0 I I #
point $-1 40.177007354960786 17.313743472265507 0.26006460974872425 #
straight-curve $-1 40.177007354960786 0 8.1928927895402559 0 1 0 I I #
point $-1 40.177007354960786 17.313743472265504 8.1928927895402559 #
point $-1 36.268801799016408 10.559255184737529 1.3889099888740875 #
straight-curve $-1 -33.728732914339169 -17.313743472265504 31.539989303205878 0 0 -1 I I #
straight-curve $-1 -33.728732914339169 0 8.1928927895402559 0 -1 0 I I #
point $-1 -33.728732914339169 -17.313743472265504 3.3653089506481519 #
straight-curve $-1 -11.5673974524104 -17.313743472265504 3.3653089506481511 1 0 0 I I #
point $-1 -33.728732914339169 -17.313743472265504 8.1928927895402559 #
point $-1 -27.675054051757247 -12.208447503375149 3.0864114315080204 #
point $-1 -18.594535757884358 -12.208447503375149 3.0864114315080204 #
edge $-1 $371 -17.313743472265504 $377 17.313743472265504 $369 $398 forward 7 unknown #
point $-1 -40.177007354960786 17.313743472265504 8.1928927895402559 #
straight-curve $-1 0 -17.313743472265504 8.1928927895402559 1 0 0 I I #
point $-1 -40.177007354960786 -17.313743472265504 8.1928927895402559 #
straight-curve $-1 40.177007354960786 17.313743472265504 0 0 0 -1 I I #
straight-curve $-1 -40.177007354960786 0 8.1928927895402559 0 -1 0 I I #
End-of-ACIS-data 