500 0 5 0           
7 Unknown 11 ACIS 5.0 NT 24 Fri Mar 26 17:58:29 1999 
-1 9.9999999999999995e-007 1e-010 
body $-1 $5 $-1 $6 #
body $-1 $7 $-1 $8 #
body $-1 $9 $-1 $10 #
body $-1 $11 $-1 $12 #
body $-1 $13 $-1 $14 #
lump $-1 $-1 $15 $0 #
transform $-1 1 0 0 0 1 0 0 0 1 76.655171361430718 53.643179902615884 22.937219305385621 1 rotate no_reflect no_shear #
lump $-1 $-1 $16 $1 #
transform $-1 1 0 0 0 1 0 0 0 1 76.655171361430718 53.643179902615884 22.937219305385621 1 rotate no_reflect no_shear #
lump $-1 $-1 $17 $2 #
transform $-1 1 0 0 0 1 0 0 0 1 76.655171361430718 53.643179902615884 22.937219305385621 1 rotate no_reflect no_shear #
lump $-1 $-1 $18 $3 #
transform $-1 1 0 0 0 1 0 0 0 1 76.655171361430718 53.643179902615884 22.937219305385621 1 rotate no_reflect no_shear #
lump $-1 $-1 $19 $4 #
transform $-1 1 0 0 0 1 0 0 0 1 76.655171361430718 53.643179902615884 22.937219305385621 1 rotate no_reflect no_shear #
shell $-1 $-1 $-1 $20 $-1 $5 #
shell $-1 $-1 $-1 $21 $-1 $7 #
shell $-1 $-1 $-1 $22 $-1 $9 #
shell $-1 $-1 $-1 $23 $-1 $11 #
shell $-1 $-1 $-1 $24 $-1 $13 #
face $-1 $25 $26 $15 $-1 $27 forward single #
face $-1 $28 $29 $16 $-1 $30 forward single #
face $-1 $31 $32 $17 $-1 $33 reversed single #
face $-1 $34 $35 $18 $-1 $36 forward single #
face $-1 $37 $38 $19 $-1 $39 forward single #
face $-1 $40 $41 $15 $-1 $42 reversed single #
loop $-1 $-1 $43 $20 #
plane-surface $-1 0 0 22.937219305385621 0 0 1 1 0 0 forward_v I I I I #
face $-1 $44 $45 $16 $-1 $46 forward single #
loop $-1 $-1 $47 $21 #
plane-surface $-1 0 -53.643179902615884 0 0 1 0 0 0 1 forward_v I I I I #
face $-1 $48 $49 $17 $-1 $50 reversed single #
loop $-1 $-1 $51 $22 #
plane-surface $-1 -6.8882858068120214 114.61251497632864 177.5081564692 1 0 0 0 -0.80901700255871778 -0.5877852410284794 forward_v I I I I #
face $-1 $52 $53 $18 $-1 $54 forward single #
loop $-1 $55 $56 $23 #
cone-surface $-1 3.8666784674206554 42.753559945833317 9.7518989432517547 0 -0.80901700255871778 -0.5877852410284794 2 0 0 1 I I 0 1 2 forward I I I I #
face $-1 $57 $58 $19 $-1 $59 forward single #
loop $-1 $60 $61 $24 #
cone-surface $-1 19.999124878769663 42.753559945833317 9.7518989432517547 0 -0.80901700255871778 -0.5877852410284794 2 0 0 1 I I 0 1 2 forward I I I I #
face $-1 $62 $63 $15 $-1 $64 reversed single #
loop $-1 $-1 $65 $25 #
plane-surface $-1 0 0 -22.937219305385621 0 0 1 1 0 0 forward_v I I I I #
coedge $-1 $66 $67 $68 $69 forward $26 $-1 #
face $-1 $70 $71 $16 $-1 $72 reversed single #
loop $-1 $-1 $73 $28 #
plane-surface $-1 0 0 22.937219305385621 0 0 1 1 0 0 forward_v I I I I #
coedge $-1 $74 $75 $76 $77 forward $29 $-1 #
face $-1 $78 $79 $17 $-1 $80 reversed single #
loop $-1 $-1 $81 $31 #
plane-surface $-1 11.932901673095159 -9.4181589545704441 87.394599719684109 0 0.80901700255871778 0.5877852410284794 1 0 0 forward_v I I I I #
coedge $-1 $82 $83 $84 $85 reversed $32 $-1 #
face $-1 $-1 $86 $18 $-1 $87 forward single #
loop $-1 $88 $89 $34 #
cone-surface $-1 3.8666784674206554 39.170079043267634 7.1483477454725097 0 -0.80901700255871778 -0.5877852410284794 1 0 0 1 I I -0.70710678118654746 0.70710678118654746 1 forward I I I I #
loop $-1 $-1 $90 $23 #
coedge $-1 $56 $56 $91 $92 reversed $35 $-1 #
face $-1 $-1 $93 $19 $-1 $94 forward single #
loop $-1 $95 $96 $37 #
cone-surface $-1 19.999124878769663 39.170079043267634 7.1483477454725097 0 -0.80901700255871778 -0.5877852410284794 1 0 0 1 I I -0.70710678118654746 0.70710678118654746 1 forward I I I I #
loop $-1 $-1 $97 $24 #
coedge $-1 $61 $61 $98 $99 reversed $38 $-1 #
face $-1 $100 $101 $15 $-1 $102 reversed single #
loop $-1 $-1 $103 $40 #
plane-surface $-1 0 -53.643179902615884 0 0 1 0 0 0 1 forward_v I I I I #
coedge $-1 $104 $105 $106 $107 forward $41 $-1 #
coedge $-1 $108 $43 $109 $110 forward $26 $-1 #
coedge $-1 $43 $108 $111 $112 forward $26 $-1 #
coedge $-1 $113 $114 $43 $69 reversed $115 $-1 #
edge $-1 $116 -53.643179902615884 $117 53.643179902615884 $68 $118 forward 7 unknown #
face $-1 $119 $120 $16 $-1 $121 reversed single #
loop $-1 $-1 $122 $44 #
plane-surface $-1 -76.655171361430718 0 0 1 0 0 0 0 -1 forward_v I I I I #
coedge $-1 $123 $124 $125 $126 forward $45 $-1 #
coedge $-1 $125 $47 $122 $127 reversed $29 $-1 #
coedge $-1 $47 $125 $128 $129 reversed $29 $-1 #
coedge $-1 $130 $131 $47 $77 reversed $120 $-1 #
edge $-1 $132 -76.655171361430718 $133 76.655171361430718 $76 $134 forward 7 unknown #
face $-1 $135 $136 $17 $-1 $137 reversed single #
loop $-1 $-1 $138 $48 #
plane-surface $-1 30.75408915300234 114.61251497632864 177.5081564692 -1 0 0 0 0.80901700255871778 0.5877852410284794 forward_v I I I I #
coedge $-1 $139 $140 $141 $142 reversed $49 $-1 #
coedge $-1 $83 $51 $143 $144 reversed $32 $-1 #
coedge $-1 $51 $82 $139 $145 reversed $32 $-1 #
coedge $-1 $141 $146 $51 $85 forward $147 $-1 #
edge $-1 $148 3.6630775855484359 $149 19.893389699099657 $84 $150 forward 7 unknown #
loop $-1 $-1 $91 $52 #
plane-surface $-1 11.932901673095159 -9.4181589545704441 87.394599719684109 0 0.80901700255871778 0.5877852410284794 1 0 0 forward_v I I I I #
loop $-1 $-1 $151 $34 #
coedge $-1 $89 $89 $90 $152 reversed $53 $-1 #
coedge $-1 $90 $90 $89 $152 forward $55 $-1 #
coedge $-1 $91 $91 $56 $92 forward $86 $-1 #
edge $-1 $153 -1.3484332506094829e-016 $153 6.2831853071796004 $91 $154 forward 7 unknown #
loop $-1 $-1 $98 $57 #
plane-surface $-1 11.932901673095159 -9.4181589545704441 87.394599719684109 0 0.80901700255871778 0.5877852410284794 1 0 0 forward_v I I I I #
loop $-1 $-1 $155 $37 #
coedge $-1 $96 $96 $97 $156 reversed $58 $-1 #
coedge $-1 $97 $97 $96 $156 forward $60 $-1 #
coedge $-1 $98 $98 $61 $99 forward $93 $-1 #
edge $-1 $157 -1.3484332506094829e-016 $157 6.2831853071796004 $98 $158 forward 7 unknown #
face $-1 $159 $160 $15 $-1 $161 reversed single #
loop $-1 $-1 $162 $62 #
plane-surface $-1 -76.655171361430718 0 0 1 0 0 0 0 -1 forward_v I I I I #
coedge $-1 $163 $111 $164 $165 forward $63 $-1 #
coedge $-1 $166 $65 $163 $167 forward $41 $-1 #
coedge $-1 $65 $166 $168 $169 forward $41 $-1 #
coedge $-1 $114 $113 $65 $107 reversed $115 $-1 #
edge $-1 $170 -53.643179902615884 $171 53.643179902615884 $106 $172 forward 7 unknown #
coedge $-1 $67 $66 $173 $174 forward $26 $-1 #
coedge $-1 $175 $176 $66 $110 reversed $160 $-1 #
edge $-1 $117 -76.655171361430718 $177 76.655171361430718 $109 $178 forward 7 unknown #
coedge $-1 $103 $179 $67 $112 reversed $63 $-1 #
edge $-1 $180 -76.655171361430718 $116 76.655171361430718 $111 $181 forward 7 unknown #
coedge $-1 $106 $68 $179 $182 forward $115 $-1 #
coedge $-1 $68 $106 $175 $183 reversed $115 $-1 #
loop $-1 $-1 $113 $159 #
vertex $-1 $69 $184 #
vertex $-1 $69 $185 #
straight-curve $-1 76.655171361430718 0 22.937219305385621 0 1 0 I I #
face $-1 $186 $187 $16 $-1 $188 reversed single #
loop $-1 $-1 $130 $70 #
plane-surface $-1 0 -64.02769846384885 14.239878231082383 0 0 1 1 0 0 forward_v I I I I #
coedge $-1 $189 $190 $74 $127 forward $71 $-1 #
coedge $-1 $191 $73 $190 $192 forward $45 $-1 #
coedge $-1 $73 $191 $193 $194 forward $45 $-1 #
coedge $-1 $75 $74 $73 $126 reversed $29 $-1 #
edge $-1 $195 -76.655171361430718 $196 76.655171361430718 $73 $197 forward 7 unknown #
edge $-1 $196 -22.937219305385621 $133 -14.239878231082383 $122 $198 forward 7 unknown #
coedge $-1 $193 $199 $75 $129 forward $200 $-1 #
edge $-1 $132 14.239878231082383 $195 22.937219305385621 $128 $201 forward 7 unknown #
coedge $-1 $202 $76 $199 $203 forward $120 $-1 #
coedge $-1 $76 $202 $189 $204 forward $120 $-1 #
vertex $-1 $129 $205 #
vertex $-1 $127 $206 #
straight-curve $-1 0 -53.643179902615884 14.239878231082383 -1 0 0 I I #
face $-1 $-1 $147 $17 $-1 $207 forward single #
loop $-1 $-1 $208 $78 #
plane-surface $-1 0 53.643179902615884 0 0 -1 0 0 0 -1 forward_v I I I I #
coedge $-1 $209 $210 $211 $212 reversed $79 $-1 #
coedge $-1 $213 $81 $83 $145 forward $49 $-1 #
coedge $-1 $81 $213 $209 $214 forward $49 $-1 #
coedge $-1 $211 $84 $81 $142 forward $147 $-1 #
edge $-1 $149 -12.854736643359601 $215 24.78763831645476 $141 $216 forward 7 unknown #
coedge $-1 $217 $218 $82 $144 forward $136 $-1 #
edge $-1 $219 -88.155967739980611 $148 -65.816858929214376 $143 $220 forward 7 unknown #
edge $-1 $149 79.673703037681491 $219 107.28635980523177 $83 $221 forward 7 unknown #
coedge $-1 $84 $211 $217 $222 forward $147 $-1 #
loop $-1 $-1 $211 $135 #
vertex $-1 $144 $223 #
vertex $-1 $85 $224 #
straight-curve $-1 -6.8882858068120214 57.30625748816432 22.937219305385625 0 -1 0 I I #
coedge $-1 $151 $151 $-1 $225 reversed $88 $-1 #
edge $-1 $226 0 $226 6.2831853071796004 $89 $227 forward 7 unknown #
vertex $-1 $92 $228 #
ellipse-curve $-1 3.8666784674206554 45.528023845840266 11.767664900002508 0 0.80901700255871778 0.5877852410284794 2 0 0 1 I I #
coedge $-1 $155 $155 $-1 $229 reversed $95 $-1 #
edge $-1 $230 0 $230 6.2831853071796004 $96 $231 forward 7 unknown #
vertex $-1 $99 $232 #
ellipse-curve $-1 19.999124878769663 45.528023845840266 11.767664900002508 0 0.80901700255871778 0.5877852410284794 2 0 0 1 I I #
face $-1 $-1 $115 $15 $-1 $233 reversed single #
loop $-1 $-1 $175 $100 #
plane-surface $-1 0 53.643179902615884 0 0 -1 0 0 0 -1 forward_v I I I I #
coedge $-1 $234 $173 $176 $235 forward $101 $-1 #
coedge $-1 $179 $103 $104 $167 reversed $63 $-1 #
coedge $-1 $173 $234 $103 $165 reversed $101 $-1 #
edge $-1 $180 -22.937219305385621 $236 22.937219305385621 $164 $237 forward 7 unknown #
coedge $-1 $105 $104 $234 $238 forward $41 $-1 #
edge $-1 $171 -76.655171361430718 $236 76.655171361430718 $163 $239 forward 7 unknown #
coedge $-1 $176 $175 $105 $169 reversed $160 $-1 #
edge $-1 $240 -76.655171361430718 $170 76.655171361430718 $168 $241 forward 7 unknown #
vertex $-1 $107 $242 #
vertex $-1 $182 $243 #
straight-curve $-1 76.655171361430718 0 -22.937219305385621 0 -1 0 I I #
coedge $-1 $162 $164 $108 $174 reversed $101 $-1 #
edge $-1 $177 -53.643179902615884 $180 53.643179902615884 $173 $244 forward 7 unknown #
coedge $-1 $168 $109 $114 $183 forward $160 $-1 #
coedge $-1 $109 $168 $162 $235 reversed $160 $-1 #
vertex $-1 $110 $245 #
straight-curve $-1 0 53.643179902615884 22.937219305385621 -1 0 0 I I #
coedge $-1 $111 $163 $113 $182 reversed $63 $-1 #
vertex $-1 $174 $246 #
straight-curve $-1 0 -53.643179902615884 22.937219305385621 1 0 0 I I #
edge $-1 $116 -22.937219305385621 $171 22.937219305385621 $113 $247 forward 7 unknown #
edge $-1 $117 -22.937219305385621 $170 22.937219305385621 $114 $248 forward 7 unknown #
point $-1 76.655171361430718 -53.643179902615884 22.937219305385621 #
point $-1 76.655171361430718 53.643179902615884 22.937219305385621 #
face $-1 $-1 $200 $16 $-1 $249 reversed single #
loop $-1 $-1 $250 $119 #
plane-surface $-1 0 -74.412217025081816 18.588548768234002 0 1 0 0 0 1 forward_v I I I I #
coedge $-1 $251 $122 $131 $204 reversed $71 $-1 #
coedge $-1 $122 $251 $123 $192 reversed $71 $-1 #
coedge $-1 $124 $123 $252 $253 forward $45 $-1 #
edge $-1 $196 53.643179902615884 $254 74.412217025081816 $190 $255 forward 7 unknown #
coedge $-1 $256 $128 $124 $194 reversed $200 $-1 #
edge $-1 $257 -74.412217025081816 $195 -53.643179902615884 $193 $258 forward 7 unknown #
vertex $-1 $129 $259 #
vertex $-1 $192 $260 #
straight-curve $-1 0 -53.643179902615884 22.937219305385621 -1 0 0 I I #
straight-curve $-1 -76.655171361430718 -53.643179902615884 0 0 0 -1 I I #
coedge $-1 $128 $256 $130 $203 reversed $200 $-1 #
loop $-1 $-1 $128 $186 #
straight-curve $-1 76.655171361430718 -53.643179902615884 0 0 0 1 I I #
coedge $-1 $131 $130 $261 $262 forward $120 $-1 #
edge $-1 $132 -10.384518561232966 $263 10.384518561232966 $199 $264 forward 7 unknown #
edge $-1 $265 -10.384518561232966 $133 10.384518561232966 $189 $266 forward 7 unknown #
point $-1 76.655171361430718 -53.643179902615884 14.239878231082383 #
point $-1 -76.655171361430718 -53.643179902615884 14.239878231082383 #
plane-surface $-1 0 0 22.937219305385621 0 0 1 1 0 0 forward_v I I I I #
coedge $-1 $218 $217 $210 $267 forward $136 $-1 #
coedge $-1 $210 $138 $140 $214 reversed $79 $-1 #
coedge $-1 $138 $209 $208 $267 reversed $79 $-1 #
coedge $-1 $146 $141 $138 $212 forward $147 $-1 #
edge $-1 $215 -19.893389699099657 $268 -3.6630775855484359 $211 $269 forward 7 unknown #
coedge $-1 $140 $139 $218 $270 reversed $49 $-1 #
edge $-1 $271 -107.28635980523177 $215 -79.673703037681491 $209 $272 forward 7 unknown #
vertex $-1 $142 $273 #
straight-curve $-1 5.9664508365475797 37.412867789064649 22.937219305385625 1 0 0 I I #
coedge $-1 $208 $143 $146 $222 reversed $136 $-1 #
coedge $-1 $143 $208 $213 $270 forward $136 $-1 #
vertex $-1 $144 $274 #
straight-curve $-1 -6.8882858068120214 53.643179902615884 88.754078234600001 0 0 1 I I #
straight-curve $-1 -6.8882858068120214 -9.4181589545704441 87.394599719684109 0 0.5877852410284794 -0.80901700255871778 I I #
edge $-1 $268 -30.75408915300234 $148 6.8882858068120214 $217 $275 forward 7 unknown #
point $-1 -6.8882858068120214 53.643179902615884 22.937219305385621 #
point $-1 -6.8882858068120214 37.412867789064663 22.937219305385625 #
edge $-1 $276 1 $276 0 $151 $-1 forward 7 unknown #
vertex $-1 $152 $277 #
ellipse-curve $-1 3.8666784674206554 39.979096045826353 7.7361329865009889 0 0.80901700255871778 0.5877852410284794 2 0 0 1 I I #
point $-1 5.8666784674206554 45.528023845840281 11.767664900002519 #
edge $-1 $278 1 $278 0 $155 $-1 forward 7 unknown #
vertex $-1 $156 $279 #
ellipse-curve $-1 19.999124878769663 39.979096045826353 7.7361329865009889 0 0.80901700255871778 0.5877852410284794 2 0 0 1 I I #
point $-1 21.999124878769663 45.528023845840281 11.767664900002519 #
plane-surface $-1 76.655171361430718 0 0 -1 0 0 0 0 1 forward_v I I I I #
coedge $-1 $164 $162 $166 $238 reversed $101 $-1 #
edge $-1 $177 -22.937219305385621 $240 22.937219305385621 $176 $280 forward 7 unknown #
vertex $-1 $238 $281 #
straight-curve $-1 -76.655171361430718 -53.643179902615884 0 0 0 -1 I I #
edge $-1 $236 -53.643179902615884 $240 53.643179902615884 $234 $282 forward 7 unknown #
straight-curve $-1 0 -53.643179902615884 -22.937219305385621 -1 0 0 I I #
vertex $-1 $169 $283 #
straight-curve $-1 0 53.643179902615884 -22.937219305385621 1 0 0 I I #
point $-1 76.655171361430718 53.643179902615884 -22.937219305385621 #
point $-1 76.655171361430718 -53.643179902615884 -22.937219305385621 #
straight-curve $-1 -76.655171361430718 0 22.937219305385621 0 -1 0 I I #
point $-1 -76.655171361430718 53.643179902615884 22.937219305385621 #
point $-1 -76.655171361430718 -53.643179902615884 22.937219305385621 #
straight-curve $-1 76.655171361430718 -53.643179902615884 0 0 0 -1 I I #
straight-curve $-1 76.655171361430718 53.643179902615884 0 0 0 -1 I I #
plane-surface $-1 76.655171361430718 0 0 -1 0 0 0 0 1 forward_v I I I I #
coedge $-1 $261 $252 $251 $284 forward $187 $-1 #
coedge $-1 $190 $189 $250 $284 reversed $71 $-1 #
coedge $-1 $250 $285 $191 $253 reversed $187 $-1 #
edge $-1 $254 -76.655171361430718 $257 76.655171361430718 $252 $286 forward 7 unknown #
vertex $-1 $192 $287 #
straight-curve $-1 -76.655171361430718 0 22.937219305385621 0 -1 0 I I #
coedge $-1 $199 $193 $285 $288 forward $200 $-1 #
vertex $-1 $194 $289 #
straight-curve $-1 76.655171361430718 0 22.937219305385621 0 1 0 I I #
point $-1 76.655171361430718 -53.643179902615884 22.937219305385621 #
point $-1 -76.655171361430718 -53.643179902615884 22.937219305385621 #
coedge $-1 $285 $250 $202 $262 reversed $187 $-1 #
edge $-1 $263 -76.655171361430718 $265 76.655171361430718 $261 $290 forward 7 unknown #
vertex $-1 $288 $291 #
straight-curve $-1 76.655171361430718 -64.02769846384885 14.239878231082383 0 -1 0 I I #
vertex $-1 $204 $292 #
straight-curve $-1 -76.655171361430718 -64.02769846384885 14.239878231082383 0 1 0 I I #
edge $-1 $268 65.816858929214376 $271 88.155967739980611 $208 $293 forward 7 unknown #
vertex $-1 $222 $294 #
straight-curve $-1 30.75408915300234 57.30625748816432 22.937219305385625 0 1 0 I I #
edge $-1 $271 -24.78763831645476 $219 12.854736643359601 $218 $295 forward 7 unknown #
vertex $-1 $270 $296 #
straight-curve $-1 30.75408915300234 -9.4181589545704441 87.394599719684109 0 -0.5877852410284794 0.80901700255871778 I I #
point $-1 30.75408915300234 37.412867789064663 22.937219305385625 #
point $-1 -6.8882858068120214 53.643179902615884 0.59811049461939092 #
straight-curve $-1 0 53.643179902615884 22.937219305385621 -1 0 0 I I #
vertex $-1 $225 $297 #
point $-1 5.8666784674206554 39.979096045826353 7.7361329865009889 #
vertex $-1 $229 $298 #
point $-1 21.999124878769663 39.979096045826353 7.7361329865009889 #
straight-curve $-1 -76.655171361430718 53.643179902615884 0 0 0 -1 I I #
point $-1 -76.655171361430718 -53.643179902615884 -22.937219305385621 #
straight-curve $-1 -76.655171361430718 0 -22.937219305385621 0 1 0 I I #
point $-1 -76.655171361430718 53.643179902615884 -22.937219305385621 #
edge $-1 $254 -4.3486705371516194 $265 4.3486705371516194 $251 $299 forward 7 unknown #
coedge $-1 $252 $261 $256 $288 reversed $187 $-1 #
straight-curve $-1 0 -74.412217025081816 22.937219305385621 1 0 0 I I #
point $-1 -76.655171361430718 -74.412217025081816 22.937219305385621 #
edge $-1 $257 -4.3486705371516194 $263 4.3486705371516194 $256 $300 forward 7 unknown #
point $-1 76.655171361430718 -74.412217025081816 22.937219305385621 #
straight-curve $-1 0 -74.412217025081816 14.239878231082383 -1 0 0 I I #
point $-1 76.655171361430718 -74.412217025081816 14.239878231082383 #
point $-1 -76.655171361430718 -74.412217025081816 14.239878231082383 #
straight-curve $-1 30.75408915300234 53.643179902615884 88.754078234600001 0 0 -1 I I #
point $-1 30.75408915300234 53.643179902615884 22.937219305385621 #
straight-curve $-1 5.9664508365475797 53.643179902615884 0.59811049461939092 -1 0 0 I I #
point $-1 30.75408915300234 53.643179902615884 0.59811049461939092 #
point $-1 3.8666784674206554 38.361062040708916 6.5605625044440306 #
point $-1 19.999124878769663 38.361062040708916 6.5605625044440306 #
straight-curve $-1 -76.655171361430718 -74.412217025081816 18.588548768234002 0 0 -1 I I #
straight-curve $-1 76.655171361430718 -74.412217025081816 18.588548768234002 0 0 -1 I I #
End-of-ACIS-data 