500 0 6 0           
7 Unknown 11 ACIS 5.0 NT 24 Thu Mar 25 20:43:28 1999 
-1 9.9999999999999995e-007 1e-010 
body $-1 $6 $-1 $7 #
body $-1 $8 $-1 $9 #
body $-1 $10 $-1 $11 #
body $-1 $12 $-1 $13 #
body $-1 $14 $-1 $15 #
body $-1 $16 $-1 $17 #
lump $-1 $-1 $18 $0 #
transform $-1 1 0 0 0 1 0 0 0 1 66.925870540482805 30.521562969898092 14.906169862809692 1 rotate no_reflect no_shear #
lump $-1 $-1 $19 $1 #
transform $-1 1 0 0 0 1 0 0 0 1 66.925870540482805 30.521562969898092 14.906169862809692 1 rotate no_reflect no_shear #
lump $-1 $-1 $20 $2 #
transform $-1 1 0 0 0 1 0 0 0 1 66.925870540482805 30.521562969898092 14.906169862809692 1 rotate no_reflect no_shear #
lump $-1 $-1 $21 $3 #
transform $-1 1 0 0 0 1 0 0 0 1 66.925870540482805 30.521562969898092 14.906169862809692 1 rotate no_reflect no_shear #
lump $-1 $-1 $22 $4 #
transform $-1 1 0 0 0 1 0 0 0 1 66.925870540482805 30.521562969898092 14.906169862809692 1 rotate no_reflect no_shear #
lump $-1 $-1 $23 $5 #
transform $-1 1 0 0 0 1 0 0 0 1 66.925870540482805 30.521562969898092 14.906169862809692 1 rotate no_reflect no_shear #
shell $-1 $-1 $-1 $24 $-1 $6 #
shell $-1 $-1 $-1 $25 $-1 $8 #
shell $-1 $-1 $-1 $26 $-1 $10 #
shell $-1 $-1 $-1 $27 $-1 $12 #
shell $-1 $-1 $-1 $28 $-1 $14 #
shell $-1 $-1 $-1 $29 $-1 $16 #
face $-1 $30 $31 $18 $-1 $32 forward single #
face $-1 $33 $34 $19 $-1 $35 reversed single #
face $-1 $36 $37 $20 $-1 $38 reversed single #
face $-1 $39 $40 $21 $-1 $41 forward single #
face $-1 $42 $43 $22 $-1 $44 reversed single #
face $-1 $45 $46 $23 $-1 $47 forward single #
face $-1 $48 $49 $18 $-1 $50 reversed single #
loop $-1 $-1 $51 $24 #
plane-surface $-1 0 0 14.906169862809692 0 0 1 1 0 0 forward_v I I I I #
face $-1 $52 $53 $19 $-1 $54 reversed single #
loop $-1 $-1 $55 $25 #
plane-surface $-1 -57.628386487093124 0 10.070706074859949 0 0 1 1 0 0 forward_v I I I I #
face $-1 $56 $57 $20 $-1 $58 reversed single #
loop $-1 $-1 $59 $26 #
plane-surface $-1 112.7204658814953 -14.240881265661253 194.45546986897719 0 -1 0 -0.85716730853699208 0 -0.51503806187062418 forward_v I I I I #
face $-1 $60 $61 $21 $-1 $62 forward single #
loop $-1 $63 $64 $27 #
cone-surface $-1 65.076400297858171 -20.411887298425157 12.47773748450796 -0.85716730853699208 0 -0.51503806187062418 0.25751903093531209 0 -0.42858365426849604 1 I I 0 1 0.5 forward I I I I #
face $-1 $65 $66 $22 $-1 $67 reversed single #
loop $-1 $-1 $68 $28 #
plane-surface $-1 112.7204658814953 16.280681704236841 194.45546986897719 0 -1 0 -0.85716730853699208 0 -0.51503806187062418 forward_v I I I I #
face $-1 $69 $70 $23 $-1 $71 forward single #
loop $-1 $72 $73 $29 #
cone-surface $-1 65.076400297858171 10.109675671472935 12.47773748450796 -0.85716730853699208 0 -0.51503806187062418 0.25751903093531209 0 -0.42858365426849604 1 I I 0 1 0.5 forward I I I I #
face $-1 $74 $75 $18 $-1 $76 reversed single #
loop $-1 $-1 $77 $30 #
plane-surface $-1 0 0 -14.906169862809692 0 0 1 1 0 0 forward_v I I I I #
coedge $-1 $78 $79 $80 $81 forward $31 $-1 #
face $-1 $82 $83 $19 $-1 $84 reversed single #
loop $-1 $-1 $85 $33 #
plane-surface $-1 -48.330902433703443 0 12.488437968834821 -1 0 0 0 0 1 forward_v I I I I #
coedge $-1 $86 $87 $88 $89 forward $34 $-1 #
face $-1 $90 $91 $20 $-1 $92 reversed single #
loop $-1 $-1 $93 $36 #
plane-surface $-1 -2.0128707638663315 -20.411887298425157 125.51672856462805 0.85716730853699208 0 0.51503806187062418 0.51503806187062418 0 -0.85716730853699208 forward_v I I I I #
coedge $-1 $94 $95 $96 $97 reversed $37 $-1 #
face $-1 $-1 $98 $21 $-1 $99 forward single #
loop $-1 $100 $101 $39 #
cone-surface $-1 64.251245639054815 -20.411887298425157 11.981934562510203 -0.85716730853699208 0 -0.51503806187062418 0.12875951546765604 0 -0.21429182713424802 1 I I -0.70710678118654746 0.70710678118654746 0.25 forward I I I I #
loop $-1 $-1 $102 $27 #
coedge $-1 $64 $64 $103 $104 reversed $40 $-1 #
face $-1 $105 $106 $22 $-1 $107 reversed single #
loop $-1 $-1 $108 $42 #
plane-surface $-1 -2.0128707638663315 10.109675671472935 125.51672856462805 0.85716730853699208 0 0.51503806187062418 0.51503806187062418 0 -0.85716730853699208 forward_v I I I I #
coedge $-1 $109 $110 $111 $112 reversed $43 $-1 #
face $-1 $-1 $113 $23 $-1 $114 forward single #
loop $-1 $115 $116 $45 #
cone-surface $-1 64.251245639054815 10.109675671472935 11.981934562510203 -0.85716730853699208 0 -0.51503806187062418 0.12875951546765604 0 -0.21429182713424802 1 I I -0.70710678118654746 0.70710678118654746 0.25 forward I I I I #
loop $-1 $-1 $117 $29 #
coedge $-1 $73 $73 $118 $119 reversed $46 $-1 #
face $-1 $120 $121 $18 $-1 $122 reversed single #
loop $-1 $-1 $123 $48 #
plane-surface $-1 0 -30.521562969898092 0 0 1 0 0 0 1 forward_v I I I I #
coedge $-1 $124 $125 $126 $127 forward $49 $-1 #
coedge $-1 $128 $51 $129 $130 forward $31 $-1 #
coedge $-1 $51 $128 $131 $132 forward $31 $-1 #
coedge $-1 $133 $134 $51 $81 reversed $135 $-1 #
edge $-1 $136 -30.521562969898092 $137 30.521562969898092 $80 $138 forward 7 unknown #
face $-1 $139 $140 $19 $-1 $141 reversed single #
loop $-1 $-1 $142 $52 #
plane-surface $-1 0 30.521562969898092 0 0 -1 0 0 0 -1 forward_v I I I I #
coedge $-1 $88 $143 $144 $145 reversed $53 $-1 #
coedge $-1 $146 $55 $147 $148 reversed $34 $-1 #
coedge $-1 $55 $146 $149 $150 reversed $34 $-1 #
coedge $-1 $151 $85 $55 $89 reversed $53 $-1 #
edge $-1 $152 -30.521562969898092 $153 30.521562969898092 $88 $154 forward 7 unknown #
face $-1 $155 $156 $20 $-1 $157 forward single #
loop $-1 $-1 $158 $56 #
plane-surface $-1 112.7204658814953 -26.582893331189062 194.45546986897719 0 1 0 0.85716730853699208 0 0.51503806187062418 forward_v I I I I #
coedge $-1 $159 $160 $161 $162 reversed $57 $-1 #
coedge $-1 $95 $59 $163 $164 reversed $37 $-1 #
coedge $-1 $59 $94 $159 $165 reversed $37 $-1 #
coedge $-1 $161 $166 $59 $97 forward $156 $-1 #
edge $-1 $167 -10.565637599735155 $168 -8.0884227778240643 $96 $169 forward 7 unknown #
loop $-1 $-1 $103 $60 #
plane-surface $-1 -2.0128707638663315 -20.411887298425157 125.51672856462805 0.85716730853699208 0 0.51503806187062418 0.51503806187062418 0 -0.85716730853699208 forward_v I I I I #
loop $-1 $-1 $170 $39 #
coedge $-1 $101 $101 $102 $171 reversed $61 $-1 #
coedge $-1 $102 $102 $101 $171 forward $63 $-1 #
coedge $-1 $103 $103 $64 $104 forward $98 $-1 #
edge $-1 $172 0 $172 6.2831853071796004 $103 $173 forward 7 unknown #
face $-1 $174 $175 $22 $-1 $176 reversed single #
loop $-1 $-1 $177 $65 #
plane-surface $-1 112.7204658814953 3.9386696387090314 194.45546986897719 0 1 0 0.85716730853699208 0 0.51503806187062418 forward_v I I I I #
coedge $-1 $178 $179 $180 $181 reversed $66 $-1 #
coedge $-1 $110 $68 $182 $183 reversed $43 $-1 #
coedge $-1 $68 $109 $178 $184 reversed $43 $-1 #
coedge $-1 $180 $185 $68 $112 forward $186 $-1 #
edge $-1 $187 -10.565637599735155 $188 -8.0884227778240643 $111 $189 forward 7 unknown #
loop $-1 $-1 $118 $69 #
plane-surface $-1 -2.0128707638663315 10.109675671472935 125.51672856462805 0.85716730853699208 0 0.51503806187062418 0.51503806187062418 0 -0.85716730853699208 forward_v I I I I #
loop $-1 $-1 $190 $45 #
coedge $-1 $116 $116 $117 $191 reversed $70 $-1 #
coedge $-1 $117 $117 $116 $191 forward $72 $-1 #
coedge $-1 $118 $118 $73 $119 forward $113 $-1 #
edge $-1 $192 0 $192 6.2831853071796004 $118 $193 forward 7 unknown #
face $-1 $194 $195 $18 $-1 $196 reversed single #
loop $-1 $-1 $197 $74 #
plane-surface $-1 -66.925870540482805 0 0 1 0 0 0 0 -1 forward_v I I I I #
coedge $-1 $198 $131 $199 $200 forward $75 $-1 #
coedge $-1 $201 $77 $198 $202 forward $49 $-1 #
coedge $-1 $77 $201 $203 $204 forward $49 $-1 #
coedge $-1 $134 $133 $77 $127 reversed $135 $-1 #
edge $-1 $205 -30.521562969898092 $206 30.521562969898092 $126 $207 forward 7 unknown #
coedge $-1 $79 $78 $208 $209 forward $31 $-1 #
coedge $-1 $210 $211 $78 $130 reversed $195 $-1 #
edge $-1 $137 -66.925870540482805 $212 66.925870540482805 $129 $213 forward 7 unknown #
coedge $-1 $123 $214 $79 $132 reversed $75 $-1 #
edge $-1 $215 -66.925870540482805 $136 66.925870540482805 $131 $216 forward 7 unknown #
coedge $-1 $126 $80 $214 $217 forward $135 $-1 #
coedge $-1 $80 $126 $210 $218 reversed $135 $-1 #
loop $-1 $-1 $133 $194 #
vertex $-1 $81 $219 #
vertex $-1 $81 $220 #
straight-curve $-1 66.925870540482805 0 14.906169862809692 0 1 0 I I #
face $-1 $221 $222 $19 $-1 $223 forward single #
loop $-1 $-1 $224 $82 #
plane-surface $-1 -66.925870540482805 0 0 1 0 0 0 0 -1 forward_v I I I I #
coedge $-1 $149 $225 $151 $226 forward $83 $-1 #
coedge $-1 $85 $151 $227 $228 reversed $53 $-1 #
coedge $-1 $229 $147 $85 $145 forward $230 $-1 #
edge $-1 $153 3.8264870904425381 $231 8.6619508783922825 $144 $232 forward 7 unknown #
coedge $-1 $87 $86 $224 $233 reversed $34 $-1 #
coedge $-1 $144 $234 $86 $148 forward $230 $-1 #
edge $-1 $235 -38.111677296936243 $153 -19.516709190156881 $147 $236 forward 7 unknown #
coedge $-1 $237 $142 $87 $150 forward $83 $-1 #
edge $-1 $152 19.516709190156881 $238 38.111677296936243 $149 $239 forward 7 unknown #
coedge $-1 $143 $88 $142 $226 reversed $53 $-1 #
vertex $-1 $150 $240 #
vertex $-1 $148 $241 #
straight-curve $-1 -48.330902433703443 0 10.070706074859949 0 -1 0 I I #
face $-1 $-1 $242 $20 $-1 $243 reversed single #
loop $-1 $-1 $96 $90 #
plane-surface $-1 0 0 14.906169862809692 0 0 1 1 0 0 forward_v I I I I #
coedge $-1 $244 $245 $246 $247 reversed $91 $-1 #
coedge $-1 $248 $93 $95 $165 forward $57 $-1 #
coedge $-1 $93 $248 $244 $249 forward $57 $-1 #
coedge $-1 $246 $96 $93 $162 forward $156 $-1 #
edge $-1 $168 4.0349376164486745 $250 16.376949681976484 $161 $251 forward 7 unknown #
coedge $-1 $252 $253 $94 $164 forward $242 $-1 #
edge $-1 $254 -86.444343015222159 $167 -82.321565071678904 $163 $255 forward 7 unknown #
edge $-1 $168 129.04197068668873 $254 133.85174108096564 $95 $256 forward 7 unknown #
coedge $-1 $96 $246 $252 $257 forward $156 $-1 #
vertex $-1 $164 $258 #
vertex $-1 $97 $259 #
straight-curve $-1 56.36023294074765 -14.240881265661253 14.906169862809691 -1 0 0 I I #
coedge $-1 $170 $170 $-1 $260 reversed $100 $-1 #
edge $-1 $261 0 $261 6.2831853071796004 $101 $262 forward 7 unknown #
vertex $-1 $104 $263 #
ellipse-curve $-1 65.687263129527253 -20.411887298425157 12.844780891038052 0.85716730853699208 0 0.51503806187062418 0.25751903093531209 0 -0.42858365426849604 1 I I #
face $-1 $-1 $186 $22 $-1 $264 forward single #
loop $-1 $-1 $265 $105 #
plane-surface $-1 66.925870540482805 0 0 -1 0 0 0 0 1 forward_v I I I I #
coedge $-1 $266 $267 $268 $269 reversed $106 $-1 #
coedge $-1 $270 $108 $110 $184 forward $66 $-1 #
coedge $-1 $108 $270 $266 $271 forward $66 $-1 #
coedge $-1 $268 $111 $108 $181 forward $186 $-1 #
edge $-1 $188 -11.225843868500373 $272 1.1161681970274362 $180 $273 forward 7 unknown #
coedge $-1 $274 $275 $109 $183 forward $175 $-1 #
edge $-1 $276 -86.444343015222159 $187 -82.321565071678904 $182 $277 forward 7 unknown #
edge $-1 $188 129.04197068668873 $276 133.85174108096564 $110 $278 forward 7 unknown #
coedge $-1 $111 $268 $274 $279 forward $186 $-1 #
loop $-1 $-1 $268 $174 #
vertex $-1 $183 $280 #
vertex $-1 $112 $281 #
straight-curve $-1 56.36023294074765 16.280681704236841 14.906169862809691 -1 0 0 I I #
coedge $-1 $190 $190 $-1 $282 reversed $115 $-1 #
edge $-1 $283 0 $283 6.2831853071796004 $116 $284 forward 7 unknown #
vertex $-1 $119 $285 #
ellipse-curve $-1 65.687263129527253 10.109675671472935 12.844780891038052 0.85716730853699208 0 0.51503806187062418 0.25751903093531209 0 -0.42858365426849604 1 I I #
face $-1 $-1 $135 $18 $-1 $286 reversed single #
loop $-1 $-1 $210 $120 #
plane-surface $-1 0 30.521562969898092 0 0 -1 0 0 0 -1 forward_v I I I I #
coedge $-1 $287 $208 $211 $288 forward $121 $-1 #
coedge $-1 $214 $123 $124 $202 reversed $75 $-1 #
coedge $-1 $208 $287 $123 $200 reversed $121 $-1 #
edge $-1 $215 -14.906169862809692 $289 14.906169862809692 $199 $290 forward 7 unknown #
coedge $-1 $125 $124 $287 $291 forward $49 $-1 #
edge $-1 $206 -66.925870540482805 $289 66.925870540482805 $198 $292 forward 7 unknown #
coedge $-1 $211 $210 $125 $204 reversed $195 $-1 #
edge $-1 $293 -66.925870540482805 $205 66.925870540482805 $203 $294 forward 7 unknown #
vertex $-1 $127 $295 #
vertex $-1 $217 $296 #
straight-curve $-1 66.925870540482805 0 -14.906169862809692 0 -1 0 I I #
coedge $-1 $197 $199 $128 $209 reversed $121 $-1 #
edge $-1 $212 -30.521562969898092 $215 30.521562969898092 $208 $297 forward 7 unknown #
coedge $-1 $203 $129 $134 $218 forward $195 $-1 #
coedge $-1 $129 $203 $197 $288 reversed $195 $-1 #
vertex $-1 $130 $298 #
straight-curve $-1 0 30.521562969898092 14.906169862809692 -1 0 0 I I #
coedge $-1 $131 $198 $133 $217 reversed $75 $-1 #
vertex $-1 $209 $299 #
straight-curve $-1 0 -30.521562969898092 14.906169862809692 1 0 0 I I #
edge $-1 $136 -14.906169862809692 $206 14.906169862809692 $133 $300 forward 7 unknown #
edge $-1 $137 -14.906169862809692 $205 14.906169862809692 $134 $301 forward 7 unknown #
point $-1 66.925870540482805 -30.521562969898092 14.906169862809692 #
point $-1 66.925870540482805 30.521562969898092 14.906169862809692 #
face $-1 $-1 $230 $19 $-1 $302 reversed single #
loop $-1 $-1 $227 $139 #
plane-surface $-1 0 0 14.906169862809692 0 0 1 1 0 0 forward_v I I I I #
coedge $-1 $303 $304 $146 $233 forward $140 $-1 #
coedge $-1 $142 $237 $305 $306 reversed $83 $-1 #
edge $-1 $307 -8.6619508783922825 $152 -3.8264870904425381 $142 $308 forward 7 unknown #
coedge $-1 $305 $309 $143 $228 forward $222 $-1 #
edge $-1 $231 -30.521562969898092 $307 30.521562969898092 $227 $310 forward 7 unknown #
coedge $-1 $234 $144 $309 $311 reversed $230 $-1 #
loop $-1 $-1 $144 $221 #
vertex $-1 $145 $312 #
straight-curve $-1 -48.330902433703443 -30.521562969898092 6.2442189844174107 0 0 1 I I #
edge $-1 $238 -30.521562969898092 $235 30.521562969898092 $224 $313 forward 7 unknown #
coedge $-1 $147 $229 $303 $314 forward $230 $-1 #
vertex $-1 $233 $315 #
straight-curve $-1 -28.814193243546562 -30.521562969898092 10.070706074859949 1 0 0 I I #
coedge $-1 $225 $149 $304 $316 reversed $83 $-1 #
vertex $-1 $233 $317 #
straight-curve $-1 -28.814193243546562 30.521562969898092 10.070706074859949 -1 0 0 I I #
point $-1 -48.330902433703443 30.521562969898092 10.070706074859949 #
point $-1 -48.330902433703443 -30.521562969898092 10.070706074859949 #
loop $-1 $-1 $163 $155 #
plane-surface $-1 66.925870540482805 0 0 -1 0 0 0 0 1 forward_v I I I I #
coedge $-1 $245 $158 $160 $249 reversed $91 $-1 #
coedge $-1 $158 $244 $318 $319 reversed $91 $-1 #
coedge $-1 $166 $161 $158 $247 forward $156 $-1 #
edge $-1 $250 8.0884227778240643 $320 10.565637599735155 $246 $321 forward 7 unknown #
coedge $-1 $160 $159 $253 $322 reversed $57 $-1 #
edge $-1 $323 -133.85174108096564 $250 -129.04197068668873 $244 $324 forward 7 unknown #
vertex $-1 $162 $325 #
straight-curve $-1 64.4486557185717 -10.205943649212578 14.906169862809691 0 -1 0 I I #
coedge $-1 $318 $163 $166 $257 reversed $242 $-1 #
coedge $-1 $163 $318 $248 $322 forward $242 $-1 #
vertex $-1 $164 $326 #
straight-curve $-1 66.925870540482805 -14.240881265661253 97.227734934488595 0 0 1 I I #
straight-curve $-1 -2.0128707638663315 -14.240881265661253 125.51672856462805 0.51503806187062418 0 -0.85716730853699208 I I #
edge $-1 $320 -26.582893331189062 $167 -14.240881265661253 $252 $327 forward 7 unknown #
point $-1 66.925870540482805 -14.240881265661253 14.906169862809692 #
point $-1 64.448655718571715 -14.240881265661253 14.906169862809676 #
edge $-1 $328 1 $328 0 $170 $-1 forward 7 unknown #
vertex $-1 $171 $329 #
ellipse-curve $-1 64.465537466189062 -20.411887298425157 12.110694077977859 0.85716730853699208 0 0.51503806187062418 0.25751903093531209 0 -0.42858365426849604 1 I I #
point $-1 65.94478216046258 -20.411887298425157 12.416197236769566 #
plane-surface $-1 0 0 14.906169862809692 0 0 1 1 0 0 forward_v I I I I #
coedge $-1 $275 $274 $267 $330 forward $175 $-1 #
coedge $-1 $267 $177 $179 $271 reversed $106 $-1 #
coedge $-1 $177 $266 $265 $330 reversed $106 $-1 #
coedge $-1 $185 $180 $177 $269 forward $186 $-1 #
edge $-1 $272 8.0884227778240643 $331 10.565637599735155 $268 $332 forward 7 unknown #
coedge $-1 $179 $178 $275 $333 reversed $66 $-1 #
edge $-1 $334 -133.85174108096564 $272 -129.04197068668873 $266 $335 forward 7 unknown #
vertex $-1 $181 $336 #
straight-curve $-1 64.4486557185717 5.0548378357364676 14.906169862809691 0 -1 0 I I #
coedge $-1 $265 $182 $185 $279 reversed $175 $-1 #
coedge $-1 $182 $265 $270 $333 forward $175 $-1 #
vertex $-1 $183 $337 #
straight-curve $-1 66.925870540482805 16.280681704236841 97.227734934488595 0 0 1 I I #
straight-curve $-1 -2.0128707638663315 16.280681704236841 125.51672856462805 0.51503806187062418 0 -0.85716730853699208 I I #
edge $-1 $331 3.9386696387090314 $187 16.280681704236841 $274 $338 forward 7 unknown #
point $-1 66.925870540482805 16.280681704236841 14.906169862809692 #
point $-1 64.448655718571715 16.280681704236841 14.906169862809676 #
edge $-1 $339 1 $339 0 $190 $-1 forward 7 unknown #
vertex $-1 $191 $340 #
ellipse-curve $-1 64.465537466189062 10.109675671472935 12.110694077977859 0.85716730853699208 0 0.51503806187062418 0.25751903093531209 0 -0.42858365426849604 1 I I #
point $-1 65.94478216046258 10.109675671472935 12.416197236769566 #
plane-surface $-1 66.925870540482805 0 0 -1 0 0 0 0 1 forward_v I I I I #
coedge $-1 $199 $197 $201 $291 reversed $121 $-1 #
edge $-1 $212 -14.906169862809692 $293 14.906169862809692 $211 $341 forward 7 unknown #
vertex $-1 $291 $342 #
straight-curve $-1 -66.925870540482805 -30.521562969898092 0 0 0 -1 I I #
edge $-1 $289 -30.521562969898092 $293 30.521562969898092 $287 $343 forward 7 unknown #
straight-curve $-1 0 -30.521562969898092 -14.906169862809692 -1 0 0 I I #
vertex $-1 $204 $344 #
straight-curve $-1 0 30.521562969898092 -14.906169862809692 1 0 0 I I #
point $-1 66.925870540482805 30.521562969898092 -14.906169862809692 #
point $-1 66.925870540482805 -30.521562969898092 -14.906169862809692 #
straight-curve $-1 -66.925870540482805 0 14.906169862809692 0 -1 0 I I #
point $-1 -66.925870540482805 30.521562969898092 14.906169862809692 #
point $-1 -66.925870540482805 -30.521562969898092 14.906169862809692 #
straight-curve $-1 66.925870540482805 -30.521562969898092 0 0 0 -1 I I #
straight-curve $-1 66.925870540482805 30.521562969898092 0 0 0 -1 I I #
plane-surface $-1 0 -30.521562969898092 0 0 1 0 0 0 1 forward_v I I I I #
coedge $-1 $345 $224 $234 $314 reversed $140 $-1 #
coedge $-1 $224 $345 $237 $316 forward $140 $-1 #
coedge $-1 $346 $227 $225 $306 forward $222 $-1 #
edge $-1 $307 48.330902433703443 $347 66.925870540482805 $225 $348 forward 7 unknown #
vertex $-1 $306 $349 #
straight-curve $-1 -48.330902433703443 30.521562969898092 6.2442189844174107 0 0 -1 I I #
coedge $-1 $227 $346 $229 $311 forward $222 $-1 #
straight-curve $-1 -48.330902433703443 0 14.906169862809692 0 1 0 I I #
edge $-1 $350 -66.925870540482805 $231 -48.330902433703443 $229 $351 forward 7 unknown #
point $-1 -48.330902433703443 -30.521562969898092 14.906169862809694 #
straight-curve $-1 -66.925870540482805 0 10.070706074859949 0 -1 0 I I #
edge $-1 $350 -14.906169862809692 $235 -10.070706074859949 $303 $352 forward 7 unknown #
point $-1 -66.925870540482805 -30.521562969898092 10.070706074859949 #
edge $-1 $347 -14.906169862809692 $238 -10.070706074859949 $237 $353 forward 7 unknown #
point $-1 -66.925870540482805 30.521562969898092 10.070706074859949 #
coedge $-1 $253 $252 $245 $319 forward $242 $-1 #
edge $-1 $320 82.321565071678904 $323 86.444343015222159 $318 $354 forward 7 unknown #
vertex $-1 $257 $355 #
straight-curve $-1 56.36023294074765 -26.582893331189062 14.906169862809691 1 0 0 I I #
edge $-1 $323 -16.376949681976484 $254 -4.0349376164486745 $253 $356 forward 7 unknown #
vertex $-1 $322 $357 #
straight-curve $-1 -2.0128707638663315 -26.582893331189062 125.51672856462805 -0.51503806187062418 0 0.85716730853699208 I I #
point $-1 64.448655718571715 -26.582893331189062 14.906169862809676 #
point $-1 66.925870540482805 -14.240881265661253 10.783391919266435 #
straight-curve $-1 66.925870540482805 0 14.906169862809692 0 1 0 I I #
vertex $-1 $260 $358 #
point $-1 64.723056497124375 -20.411887298425157 11.682110423709362 #
edge $-1 $331 82.321565071678904 $334 86.444343015222159 $265 $359 forward 7 unknown #
vertex $-1 $279 $360 #
straight-curve $-1 56.36023294074765 3.9386696387090314 14.906169862809691 1 0 0 I I #
edge $-1 $334 -1.1161681970274362 $276 11.225843868500373 $275 $361 forward 7 unknown #
vertex $-1 $333 $362 #
straight-curve $-1 -2.0128707638663315 3.9386696387090314 125.51672856462805 -0.51503806187062418 0 0.85716730853699208 I I #
point $-1 64.448655718571715 3.9386696387090314 14.906169862809676 #
point $-1 66.925870540482805 16.280681704236841 10.783391919266435 #
straight-curve $-1 66.925870540482805 0 14.906169862809692 0 1 0 I I #
vertex $-1 $282 $363 #
point $-1 64.723056497124375 10.109675671472935 11.682110423709362 #
straight-curve $-1 -66.925870540482805 30.521562969898092 0 0 0 -1 I I #
point $-1 -66.925870540482805 -30.521562969898092 -14.906169862809692 #
straight-curve $-1 -66.925870540482805 0 -14.906169862809692 0 1 0 I I #
point $-1 -66.925870540482805 30.521562969898092 -14.906169862809692 #
coedge $-1 $304 $303 $346 $364 reversed $140 $-1 #
coedge $-1 $309 $305 $345 $364 forward $222 $-1 #
vertex $-1 $306 $365 #
straight-curve $-1 0 30.521562969898092 14.906169862809692 -1 0 0 I I #
point $-1 -48.330902433703443 30.521562969898092 14.906169862809694 #
vertex $-1 $364 $366 #
straight-curve $-1 0 -30.521562969898092 14.906169862809692 1 0 0 I I #
straight-curve $-1 -66.925870540482805 -30.521562969898092 0 0 0 -1 I I #
straight-curve $-1 -66.925870540482805 30.521562969898092 0 0 0 -1 I I #
straight-curve $-1 66.925870540482805 -26.582893331189062 97.227734934488595 0 0 -1 I I #
point $-1 66.925870540482805 -26.582893331189062 14.906169862809692 #
straight-curve $-1 66.925870540482805 -10.205943649212578 10.783391919266421 0 1 0 I I #
point $-1 66.925870540482805 -26.582893331189062 10.783391919266435 #
point $-1 64.036953811920569 -20.411887298425157 11.853175047042546 #
straight-curve $-1 66.925870540482805 3.9386696387090314 97.227734934488595 0 0 -1 I I #
point $-1 66.925870540482805 3.9386696387090314 14.906169862809692 #
straight-curve $-1 66.925870540482805 5.0548378357364676 10.783391919266421 0 1 0 I I #
point $-1 66.925870540482805 3.9386696387090314 10.783391919266435 #
point $-1 64.036953811920569 10.109675671472935 11.853175047042546 #
edge $-1 $347 -30.521562969898092 $350 30.521562969898092 $345 $367 forward 7 unknown #
point $-1 -66.925870540482805 30.521562969898092 14.906169862809692 #
point $-1 -66.925870540482805 -30.521562969898092 14.906169862809692 #
straight-curve $-1 -66.925870540482805 0 14.906169862809692 0 -1 0 I I #
End-of-ACIS-data 