500 0 12 0           
7 Unknown 11 ACIS 5.0 NT 24 Fri Mar 26 18:37:54 1999 
-1 9.9999999999999995e-007 1e-010 
body $-1 $12 $-1 $13 #
body $-1 $14 $-1 $15 #
body $-1 $16 $-1 $17 #
body $-1 $18 $-1 $19 #
body $-1 $20 $-1 $21 #
body $-1 $22 $-1 $23 #
body $-1 $24 $-1 $25 #
body $-1 $26 $-1 $27 #
body $-1 $28 $-1 $29 #
body $-1 $30 $-1 $31 #
body $-1 $32 $-1 $33 #
body $-1 $34 $-1 $35 #
lump $-1 $-1 $36 $0 #
transform $-1 1 0 0 0 1 0 0 0 1 42.021546067690053 16.957509124987297 6.8554044046134592 1 rotate no_reflect no_shear #
lump $-1 $-1 $37 $1 #
transform $-1 1 0 0 0 1 0 0 0 1 42.021546067690053 16.957509124987297 6.8554044046134592 1 rotate no_reflect no_shear #
lump $-1 $-1 $38 $2 #
transform $-1 1 0 0 0 1 0 0 0 1 42.021546067690053 16.957509124987297 6.8554044046134592 1 rotate no_reflect no_shear #
lump $-1 $-1 $39 $3 #
transform $-1 1 0 0 0 1 0 0 0 1 42.021546067690053 16.957509124987297 6.8554044046134592 1 rotate no_reflect no_shear #
lump $-1 $-1 $40 $4 #
transform $-1 1 0 0 0 1 0 0 0 1 42.021546067690053 16.957509124987297 6.8554044046134592 1 rotate no_reflect no_shear #
lump $-1 $-1 $41 $5 #
transform $-1 1 0 0 0 1 0 0 0 1 42.021546067690053 16.957509124987297 6.8554044046134592 1 rotate no_reflect no_shear #
lump $-1 $-1 $42 $6 #
transform $-1 1 0 0 0 1 0 0 0 1 42.021546067690053 16.957509124987297 6.8554044046134592 1 rotate no_reflect no_shear #
lump $-1 $-1 $43 $7 #
transform $-1 1 0 0 0 1 0 0 0 1 42.021546067690053 16.957509124987297 6.8554044046134592 1 rotate no_reflect no_shear #
lump $-1 $-1 $44 $8 #
transform $-1 1 0 0 0 1 0 0 0 1 42.021546067690053 16.957509124987297 6.8554044046134592 1 rotate no_reflect no_shear #
lump $-1 $-1 $45 $9 #
transform $-1 1 0 0 0 1 0 0 0 1 42.021546067690053 16.957509124987297 6.8554044046134592 1 rotate no_reflect no_shear #
lump $-1 $-1 $46 $10 #
transform $-1 1 0 0 0 1 0 0 0 1 42.021546067690053 16.957509124987297 6.8554044046134592 1 rotate no_reflect no_shear #
lump $-1 $-1 $47 $11 #
transform $-1 1 0 0 0 1 0 0 0 1 42.021546067690053 16.957509124987297 6.8554044046134592 1 rotate no_reflect no_shear #
shell $-1 $-1 $-1 $48 $-1 $12 #
shell $-1 $-1 $-1 $49 $-1 $14 #
shell $-1 $-1 $-1 $50 $-1 $16 #
shell $-1 $-1 $-1 $51 $-1 $18 #
shell $-1 $-1 $-1 $52 $-1 $20 #
shell $-1 $-1 $-1 $53 $-1 $22 #
shell $-1 $-1 $-1 $54 $-1 $24 #
shell $-1 $-1 $-1 $55 $-1 $26 #
shell $-1 $-1 $-1 $56 $-1 $28 #
shell $-1 $-1 $-1 $57 $-1 $30 #
shell $-1 $-1 $-1 $58 $-1 $32 #
shell $-1 $-1 $-1 $59 $-1 $34 #
face $-1 $60 $61 $36 $-1 $62 forward single #
face $-1 $63 $64 $37 $-1 $65 reversed single #
face $-1 $66 $67 $38 $-1 $68 reversed single #
face $-1 $69 $70 $39 $-1 $71 forward single #
face $-1 $72 $73 $40 $-1 $74 reversed single #
face $-1 $75 $76 $41 $-1 $77 forward single #
face $-1 $78 $79 $42 $-1 $80 reversed single #
face $-1 $81 $82 $43 $-1 $83 forward single #
face $-1 $84 $85 $44 $-1 $86 forward single #
face $-1 $87 $88 $45 $-1 $89 reversed single #
face $-1 $90 $91 $46 $-1 $92 forward single #
face $-1 $93 $94 $47 $-1 $95 forward single #
face $-1 $96 $97 $36 $-1 $98 reversed single #
loop $-1 $-1 $99 $48 #
plane-surface $-1 0 0 6.8554044046134592 0 0 1 1 0 0 forward_v I I I I #
face $-1 $100 $101 $37 $-1 $102 reversed single #
loop $-1 $-1 $103 $49 #
plane-surface $-1 -38.478404353425148 0 3.8554044046134592 0 0 1 1 0 0 forward_v I I I I #
face $-1 $104 $105 $38 $-1 $106 reversed single #
loop $-1 $-1 $107 $50 #
plane-surface $-1 -26.18129941112462 -66.356799870328501 68.151720259200602 -1 0 0 0 -0.5877852598018023 0.80901698891910034 forward_v I I I I #
face $-1 $108 $109 $39 $-1 $110 forward single #
loop $-1 $111 $112 $51 #
cone-surface $-1 -30.558281025142431 -10.228372651415281 0.58807293244165759 0 0.5877852598018023 -0.80901698891910034 2 0 0 1 I I 0 1 2 forward I I I I #
face $-1 $113 $114 $40 $-1 $115 reversed single #
loop $-1 $-1 $116 $52 #
plane-surface $-1 12.29710494230053 -66.356799870328501 68.151720259200602 -1 0 0 0 -0.5877852598018023 0.80901698891910034 forward_v I I I I #
face $-1 $117 $118 $41 $-1 $119 forward single #
loop $-1 $120 $121 $53 #
cone-surface $-1 7.9201233282827133 -10.228372651415281 0.58807293244165759 0 0.5877852598018023 -0.80901698891910034 2 0 0 1 I I 0 1 2 forward I I I I #
face $-1 $122 $123 $42 $-1 $124 reversed single #
loop $-1 $-1 $125 $54 #
plane-surface $-1 -23.378864469961087 71.528974944023759 75.680047321070219 1 0 0 0 -0.85716730853699208 -0.51503806187062418 forward_v I I I I #
face $-1 $126 $127 $43 $-1 $128 forward single #
loop $-1 $129 $130 $55 #
cone-surface $-1 -20.202541130591989 15.439400943687906 4.8149480417133157 0 -0.85716730853699208 -0.51503806187062418 1 0 0 1 I I 0 1 1 forward I I I I #
face $-1 $131 $132 $44 $-1 $133 forward single #
loop $-1 $134 $135 $56 #
cone-surface $-1 -15.438056121538335 15.439400943687906 4.8149480417133157 0 -0.85716730853699208 -0.51503806187062418 1 0 0 1 I I 0 1 1 forward I I I I #
face $-1 $136 $137 $45 $-1 $138 reversed single #
loop $-1 $-1 $139 $57 #
plane-surface $-1 15.099539883464059 71.528974944023759 75.680047321070219 1 0 0 0 -0.85716730853699208 -0.51503806187062418 forward_v I I I I #
face $-1 $140 $141 $46 $-1 $142 forward single #
loop $-1 $143 $144 $58 #
cone-surface $-1 18.275863222833159 15.439400943687906 4.8149480417133157 0 -0.85716730853699208 -0.51503806187062418 1 0 0 1 I I 0 1 1 forward I I I I #
face $-1 $145 $146 $47 $-1 $147 forward single #
loop $-1 $148 $149 $59 #
cone-surface $-1 23.04034823188681 15.439400943687906 4.8149480417133157 0 -0.85716730853699208 -0.51503806187062418 1 0 0 1 I I 0 1 1 forward I I I I #
face $-1 $150 $151 $36 $-1 $152 reversed single #
loop $-1 $-1 $153 $60 #
plane-surface $-1 0 0 -6.8554044046134592 0 0 1 1 0 0 forward_v I I I I #
coedge $-1 $154 $155 $156 $157 forward $61 $-1 #
face $-1 $158 $159 $37 $-1 $160 reversed single #
loop $-1 $-1 $161 $63 #
plane-surface $-1 -34.935262639160243 0 5.3554044046134592 -1 0 0 0 0 1 forward_v I I I I #
coedge $-1 $162 $163 $164 $165 forward $64 $-1 #
face $-1 $166 $167 $38 $-1 $168 forward single #
loop $-1 $-1 $169 $66 #
plane-surface $-1 -30.558281025142428 -16.957509124987297 0.15943092038486384 0 -0.5877852598018023 0.80901698891910034 1 0 0 forward_v I I I I #
coedge $-1 $170 $171 $172 $173 reversed $67 $-1 #
face $-1 $-1 $174 $39 $-1 $175 forward single #
loop $-1 $176 $177 $69 #
cone-surface $-1 -30.558281025142431 -7.5195592499171049 -3.1402887865349531 0 0.5877852598018023 -0.80901698891910034 1 0 0 1 I I -0.70710678118654735 0.70710678118654768 1 forward I I I I #
loop $-1 $-1 $178 $51 #
coedge $-1 $112 $112 $179 $180 reversed $70 $-1 #
face $-1 $181 $182 $40 $-1 $183 reversed single #
loop $-1 $-1 $184 $72 #
plane-surface $-1 7.9201233282827204 -16.957509124987297 0.15943092038486384 0 -0.5877852598018023 0.80901698891910034 1 0 0 forward_v I I I I #
coedge $-1 $185 $186 $187 $188 reversed $73 $-1 #
face $-1 $-1 $189 $41 $-1 $190 forward single #
loop $-1 $191 $192 $75 #
cone-surface $-1 7.9201233282827133 -7.5195592499171049 -3.1402887865349531 0 0.5877852598018023 -0.80901698891910034 1 0 0 1 I I -0.70710678118654735 0.70710678118654768 1 forward I I I I #
loop $-1 $-1 $193 $53 #
coedge $-1 $121 $121 $194 $195 reversed $76 $-1 #
face $-1 $196 $197 $42 $-1 $198 reversed single #
loop $-1 $-1 $199 $78 #
plane-surface $-1 -17.82029862606516 -0.51001614278645491 32.394656034049753 0 0.85716730853699208 0.51503806187062418 1 0 0 forward_v I I I I #
coedge $-1 $200 $201 $202 $203 reversed $79 $-1 #
face $-1 $-1 $204 $43 $-1 $205 forward single #
loop $-1 $206 $207 $81 #
cone-surface $-1 -20.202541130591989 14.553706734611968 4.2827692893165548 0 -0.85716730853699208 -0.51503806187062418 0.5 0 0 1 I I -0.70710678118654746 0.70710678118654746 0.5 forward I I I I #
loop $-1 $-1 $208 $55 #
coedge $-1 $130 $130 $209 $210 reversed $82 $-1 #
face $-1 $-1 $211 $44 $-1 $212 forward single #
loop $-1 $213 $214 $84 #
cone-surface $-1 -15.438056121538335 14.553706734611968 4.2827692893165548 0 -0.85716730853699208 -0.51503806187062418 0.5 0 0 1 I I -0.70710678118654746 0.70710678118654746 0.5 forward I I I I #
loop $-1 $-1 $215 $56 #
coedge $-1 $135 $135 $216 $217 reversed $85 $-1 #
face $-1 $218 $219 $45 $-1 $220 reversed single #
loop $-1 $-1 $221 $87 #
plane-surface $-1 20.658105727359988 -0.51001614278645491 32.394656034049753 0 0.85716730853699208 0.51503806187062418 1 0 0 forward_v I I I I #
coedge $-1 $222 $223 $224 $225 reversed $88 $-1 #
face $-1 $-1 $226 $46 $-1 $227 forward single #
loop $-1 $228 $229 $90 #
cone-surface $-1 18.275863222833159 14.553706734611968 4.2827692893165548 0 -0.85716730853699208 -0.51503806187062418 0.5 0 0 1 I I -0.70710678118654746 0.70710678118654746 0.5 forward I I I I #
loop $-1 $-1 $230 $58 #
coedge $-1 $144 $144 $231 $232 reversed $91 $-1 #
face $-1 $-1 $233 $47 $-1 $234 forward single #
loop $-1 $235 $236 $93 #
cone-surface $-1 23.04034823188681 14.553706734611968 4.2827692893165548 0 -0.85716730853699208 -0.51503806187062418 0.5 0 0 1 I I -0.70710678118654746 0.70710678118654746 0.5 forward I I I I #
loop $-1 $-1 $237 $59 #
coedge $-1 $149 $149 $238 $239 reversed $94 $-1 #
face $-1 $240 $241 $36 $-1 $242 reversed single #
loop $-1 $-1 $243 $96 #
plane-surface $-1 0 -16.957509124987297 0 0 1 0 0 0 1 forward_v I I I I #
coedge $-1 $244 $245 $246 $247 forward $97 $-1 #
coedge $-1 $248 $99 $249 $250 forward $61 $-1 #
coedge $-1 $99 $248 $251 $252 forward $61 $-1 #
coedge $-1 $253 $254 $99 $157 reversed $255 $-1 #
edge $-1 $256 -16.957509124987297 $257 16.957509124987297 $156 $258 forward 7 unknown #
face $-1 $259 $260 $37 $-1 $261 reversed single #
loop $-1 $-1 $262 $100 #
plane-surface $-1 0 16.957509124987297 0 0 -1 0 0 0 -1 forward_v I I I I #
coedge $-1 $164 $263 $264 $265 reversed $101 $-1 #
coedge $-1 $266 $103 $267 $268 reversed $64 $-1 #
coedge $-1 $103 $266 $269 $270 reversed $64 $-1 #
coedge $-1 $271 $161 $103 $165 reversed $101 $-1 #
edge $-1 $272 -16.957509124987297 $273 16.957509124987297 $164 $274 forward 7 unknown #
face $-1 $275 $276 $38 $-1 $277 forward single #
loop $-1 $-1 $278 $104 #
plane-surface $-1 -34.935262639160243 0 5.3554044046134592 -1 0 0 0 0 1 forward_v I I I I #
coedge $-1 $279 $280 $281 $282 reversed $105 $-1 #
coedge $-1 $171 $107 $283 $284 reversed $67 $-1 #
coedge $-1 $107 $170 $279 $285 reversed $67 $-1 #
coedge $-1 $281 $286 $107 $173 forward $276 $-1 #
edge $-1 $287 16.220890810176954 $288 25.437107473928251 $172 $289 forward 7 unknown #
loop $-1 $-1 $179 $108 #
plane-surface $-1 -30.558281025142428 -16.957509124987297 0.15943092038486384 0 -0.5877852598018023 0.80901698891910034 1 0 0 forward_v I I I I #
loop $-1 $-1 $290 $69 #
coedge $-1 $177 $177 $178 $291 reversed $109 $-1 #
coedge $-1 $178 $178 $177 $291 forward $111 $-1 #
coedge $-1 $179 $179 $112 $180 forward $174 $-1 #
edge $-1 $292 -6.7421559490991701e-017 $292 6.2831853071796004 $179 $293 forward 7 unknown #
face $-1 $294 $295 $40 $-1 $296 reversed single #
loop $-1 $-1 $297 $113 #
plane-surface $-1 3.5431417142649106 -66.356799870328501 68.151720259200602 1 0 0 0 0.5877852598018023 -0.80901698891910034 forward_v I I I I #
coedge $-1 $298 $299 $300 $301 reversed $114 $-1 #
coedge $-1 $186 $116 $302 $303 reversed $73 $-1 #
coedge $-1 $116 $185 $298 $304 reversed $73 $-1 #
coedge $-1 $300 $305 $116 $188 forward $306 $-1 #
edge $-1 $307 16.220890810176954 $308 25.437107473928251 $187 $309 forward 7 unknown #
loop $-1 $-1 $194 $117 #
plane-surface $-1 7.9201233282827204 -16.957509124987297 0.15943092038486384 0 -0.5877852598018023 0.80901698891910034 1 0 0 forward_v I I I I #
loop $-1 $-1 $310 $75 #
coedge $-1 $192 $192 $193 $311 reversed $118 $-1 #
coedge $-1 $193 $193 $192 $311 forward $120 $-1 #
coedge $-1 $194 $194 $121 $195 forward $189 $-1 #
edge $-1 $312 -6.7421559490991701e-017 $312 6.2831853071796004 $194 $313 forward 7 unknown #
face $-1 $314 $315 $42 $-1 $316 forward single #
loop $-1 $-1 $317 $122 #
plane-surface $-1 -12.261732782169231 71.528974944023759 75.680047321070219 -1 0 0 0 0.85716730853699208 0.51503806187062418 forward_v I I I I #
coedge $-1 $318 $319 $320 $321 reversed $123 $-1 #
coedge $-1 $201 $125 $322 $323 reversed $79 $-1 #
coedge $-1 $125 $200 $318 $324 reversed $79 $-1 #
coedge $-1 $320 $325 $125 $203 forward $315 $-1 #
edge $-1 $326 18.806978347024582 $327 20.928973600008476 $202 $328 forward 7 unknown #
loop $-1 $-1 $209 $126 #
plane-surface $-1 -17.82029862606516 -0.51001614278645491 32.394656034049753 0 0.85716730853699208 0.51503806187062418 1 0 0 forward_v I I I I #
loop $-1 $-1 $329 $81 #
coedge $-1 $207 $207 $208 $330 reversed $127 $-1 #
coedge $-1 $208 $208 $207 $330 forward $129 $-1 #
coedge $-1 $209 $209 $130 $210 forward $204 $-1 #
edge $-1 $331 -6.1429551296134909e-016 $331 6.2831853071795996 $209 $332 forward 7 unknown #
loop $-1 $-1 $216 $131 #
plane-surface $-1 -17.82029862606516 -0.51001614278645491 32.394656034049753 0 0.85716730853699208 0.51503806187062418 1 0 0 forward_v I I I I #
loop $-1 $-1 $333 $84 #
coedge $-1 $214 $214 $215 $334 reversed $132 $-1 #
coedge $-1 $215 $215 $214 $334 forward $134 $-1 #
coedge $-1 $216 $216 $135 $217 forward $211 $-1 #
edge $-1 $335 -6.1429551296134909e-016 $335 6.2831853071795996 $216 $336 forward 7 unknown #
face $-1 $337 $338 $45 $-1 $339 forward single #
loop $-1 $-1 $340 $136 #
plane-surface $-1 26.216671571255915 71.528974944023759 75.680047321070219 -1 0 0 0 0.85716730853699208 0.51503806187062418 forward_v I I I I #
coedge $-1 $341 $342 $343 $344 reversed $137 $-1 #
coedge $-1 $223 $139 $345 $346 reversed $88 $-1 #
coedge $-1 $139 $222 $341 $347 reversed $88 $-1 #
coedge $-1 $343 $348 $139 $225 forward $338 $-1 #
edge $-1 $349 18.806978347024582 $350 20.928973600008476 $224 $351 forward 7 unknown #
loop $-1 $-1 $231 $140 #
plane-surface $-1 20.658105727359988 -0.51001614278645491 32.394656034049753 0 0.85716730853699208 0.51503806187062418 1 0 0 forward_v I I I I #
loop $-1 $-1 $352 $90 #
coedge $-1 $229 $229 $230 $353 reversed $141 $-1 #
coedge $-1 $230 $230 $229 $353 forward $143 $-1 #
coedge $-1 $231 $231 $144 $232 forward $226 $-1 #
edge $-1 $354 -6.1429551296134909e-016 $354 6.2831853071795996 $231 $355 forward 7 unknown #
loop $-1 $-1 $238 $145 #
plane-surface $-1 20.658105727359988 -0.51001614278645491 32.394656034049753 0 0.85716730853699208 0.51503806187062418 1 0 0 forward_v I I I I #
loop $-1 $-1 $356 $93 #
coedge $-1 $236 $236 $237 $357 reversed $146 $-1 #
coedge $-1 $237 $237 $236 $357 forward $148 $-1 #
coedge $-1 $238 $238 $149 $239 forward $233 $-1 #
edge $-1 $358 -6.1429551296134909e-016 $358 6.2831853071795996 $238 $359 forward 7 unknown #
face $-1 $360 $361 $36 $-1 $362 reversed single #
loop $-1 $-1 $363 $150 #
plane-surface $-1 -42.021546067690053 0 0 1 0 0 0 0 -1 forward_v I I I I #
coedge $-1 $364 $251 $365 $366 forward $151 $-1 #
coedge $-1 $367 $153 $364 $368 forward $97 $-1 #
coedge $-1 $153 $367 $369 $370 forward $97 $-1 #
coedge $-1 $254 $253 $153 $247 reversed $255 $-1 #
edge $-1 $371 -16.957509124987297 $372 16.957509124987297 $246 $373 forward 7 unknown #
coedge $-1 $155 $154 $374 $375 forward $61 $-1 #
coedge $-1 $376 $377 $154 $250 reversed $361 $-1 #
edge $-1 $257 -42.021546067690053 $378 42.021546067690053 $249 $379 forward 7 unknown #
coedge $-1 $243 $380 $155 $252 reversed $151 $-1 #
edge $-1 $381 -42.021546067690053 $256 42.021546067690053 $251 $382 forward 7 unknown #
coedge $-1 $246 $156 $380 $383 forward $255 $-1 #
coedge $-1 $156 $246 $376 $384 reversed $255 $-1 #
loop $-1 $-1 $253 $360 #
vertex $-1 $157 $385 #
vertex $-1 $157 $386 #
straight-curve $-1 42.021546067690053 0 6.8554044046134592 0 1 0 I I #
face $-1 $387 $388 $37 $-1 $389 forward single #
loop $-1 $-1 $390 $158 #
plane-surface $-1 -42.021546067690053 0 0 1 0 0 0 0 -1 forward_v I I I I #
coedge $-1 $269 $391 $271 $392 forward $159 $-1 #
coedge $-1 $161 $271 $393 $394 reversed $101 $-1 #
coedge $-1 $395 $267 $161 $265 forward $396 $-1 #
edge $-1 $273 1.1777022023067296 $397 4.1777022023067296 $264 $398 forward 7 unknown #
coedge $-1 $163 $162 $390 $399 reversed $64 $-1 #
coedge $-1 $264 $400 $162 $268 forward $396 $-1 #
edge $-1 $401 -22.782343890977479 $273 -15.696060462447669 $267 $402 forward 7 unknown #
coedge $-1 $403 $262 $163 $270 forward $159 $-1 #
edge $-1 $272 15.696060462447669 $404 22.782343890977479 $269 $405 forward 7 unknown #
coedge $-1 $263 $164 $262 $392 reversed $101 $-1 #
vertex $-1 $270 $406 #
vertex $-1 $268 $407 #
straight-curve $-1 -34.935262639160243 0 3.8554044046134592 0 -1 0 I I #
face $-1 $-1 $408 $38 $-1 $409 reversed single #
loop $-1 $-1 $281 $166 #
plane-surface $-1 0 0 6.8554044046134592 0 0 1 1 0 0 forward_v I I I I #
coedge $-1 $410 $411 $280 $412 reversed $167 $-1 #
coedge $-1 $413 $169 $171 $285 forward $105 $-1 #
coedge $-1 $169 $413 $278 $412 forward $105 $-1 #
coedge $-1 $414 $172 $169 $282 forward $276 $-1 #
edge $-1 $288 10.902158898553406 $415 19.656122126589029 $281 $416 forward 7 unknown #
coedge $-1 $417 $418 $170 $284 forward $408 $-1 #
edge $-1 $419 -33.916429209215437 $287 -27.220455724986842 $283 $420 forward 7 unknown #
edge $-1 $288 -11.391870368587394 $419 0 $171 $421 forward 7 unknown #
coedge $-1 $172 $414 $417 $422 forward $276 $-1 #
vertex $-1 $284 $423 #
vertex $-1 $173 $424 #
straight-curve $-1 -26.18129941112462 -33.178399935164251 6.8554044046134592 0 1 0 I I #
coedge $-1 $290 $290 $-1 $425 reversed $176 $-1 #
edge $-1 $426 0 $426 6.2831853071796004 $177 $427 forward 7 unknown #
vertex $-1 $180 $428 #
ellipse-curve $-1 -30.558281025142431 -12.34940079311165 3.5074176624991602 0 -0.5877852598018023 0.80901698891910034 2 0 0 1 I I #
face $-1 $-1 $306 $40 $-1 $429 forward single #
loop $-1 $-1 $430 $181 #
plane-surface $-1 0 -16.957509124987297 0 0 1 0 0 0 1 forward_v I I I I #
coedge $-1 $431 $432 $433 $434 reversed $182 $-1 #
coedge $-1 $435 $184 $186 $304 forward $114 $-1 #
coedge $-1 $184 $435 $431 $436 forward $114 $-1 #
coedge $-1 $433 $187 $184 $301 forward $306 $-1 #
edge $-1 $308 -8.3370432781591699 $437 0.41691994987644954 $300 $438 forward 7 unknown #
coedge $-1 $439 $440 $185 $303 forward $295 $-1 #
edge $-1 $441 -33.916429209215437 $307 -27.220455724986842 $302 $442 forward 7 unknown #
edge $-1 $308 -11.391870368587394 $441 0 $186 $443 forward 7 unknown #
coedge $-1 $187 $433 $439 $444 forward $306 $-1 #
loop $-1 $-1 $433 $294 #
vertex $-1 $303 $445 #
vertex $-1 $188 $446 #
straight-curve $-1 12.29710494230053 -33.178399935164251 6.8554044046134592 0 1 0 I I #
coedge $-1 $310 $310 $-1 $447 reversed $191 $-1 #
edge $-1 $448 0 $448 6.2831853071796004 $192 $449 forward 7 unknown #
vertex $-1 $195 $450 #
ellipse-curve $-1 7.9201233282827133 -12.34940079311165 3.5074176624991602 0 -0.5877852598018023 0.80901698891910034 2 0 0 1 I I #
face $-1 $-1 $451 $42 $-1 $452 reversed single #
loop $-1 $-1 $202 $196 #
plane-surface $-1 0 0 6.8554044046134592 0 0 1 1 0 0 forward_v I I I I #
coedge $-1 $453 $454 $455 $456 reversed $197 $-1 #
coedge $-1 $457 $199 $201 $324 forward $123 $-1 #
coedge $-1 $199 $457 $453 $458 forward $123 $-1 #
coedge $-1 $455 $202 $199 $321 forward $315 $-1 #
edge $-1 $327 -14.468715156928507 $459 -3.3515834691366511 $320 $460 forward 7 unknown #
coedge $-1 $461 $462 $200 $323 forward $451 $-1 #
edge $-1 $463 -34.516212538799024 $326 -30.98461925592165 $322 $464 forward 7 unknown #
edge $-1 $327 29.794943618447764 $463 33.91501824997458 $201 $465 forward 7 unknown #
coedge $-1 $202 $455 $461 $466 forward $315 $-1 #
vertex $-1 $323 $467 #
vertex $-1 $203 $468 #
straight-curve $-1 -23.378864469961087 35.764487472011879 6.8554044046134592 0 -1 0 I I #
coedge $-1 $329 $329 $-1 $469 reversed $206 $-1 #
edge $-1 $470 0 $470 6.2831853071796004 $207 $471 forward 7 unknown #
vertex $-1 $210 $472 #
ellipse-curve $-1 -20.202541130591989 15.896511498495352 5.0896077631747678 0 0.85716730853699208 0.51503806187062418 1 0 0 1 I I #
coedge $-1 $333 $333 $-1 $473 reversed $213 $-1 #
edge $-1 $474 0 $474 6.2831853071796004 $214 $475 forward 7 unknown #
vertex $-1 $217 $476 #
ellipse-curve $-1 -15.438056121538335 15.896511498495352 5.0896077631747678 0 0.85716730853699208 0.51503806187062418 1 0 0 1 I I #
face $-1 $-1 $477 $45 $-1 $478 reversed single #
loop $-1 $-1 $224 $218 #
plane-surface $-1 0 0 6.8554044046134592 0 0 1 1 0 0 forward_v I I I I #
coedge $-1 $479 $480 $481 $482 reversed $219 $-1 #
coedge $-1 $483 $221 $223 $347 forward $137 $-1 #
coedge $-1 $221 $483 $479 $484 forward $137 $-1 #
coedge $-1 $481 $224 $221 $344 forward $338 $-1 #
edge $-1 $350 4.7704870197840652 $485 15.887618707575921 $343 $486 forward 7 unknown #
coedge $-1 $487 $488 $222 $346 forward $477 $-1 #
edge $-1 $489 -34.516212538799024 $349 -30.98461925592165 $345 $490 forward 7 unknown #
edge $-1 $350 29.794943618447764 $489 33.91501824997458 $223 $491 forward 7 unknown #
coedge $-1 $224 $481 $487 $492 forward $338 $-1 #
vertex $-1 $225 $493 #
vertex $-1 $225 $494 #
straight-curve $-1 15.099539883464059 35.764487472011879 6.8554044046134592 0 -1 0 I I #
coedge $-1 $352 $352 $-1 $495 reversed $228 $-1 #
edge $-1 $496 0 $496 6.2831853071796004 $229 $497 forward 7 unknown #
vertex $-1 $232 $498 #
ellipse-curve $-1 18.275863222833159 15.896511498495352 5.0896077631747678 0 0.85716730853699208 0.51503806187062418 1 0 0 1 I I #
coedge $-1 $356 $356 $-1 $499 reversed $235 $-1 #
edge $-1 $500 0 $500 6.2831853071796004 $236 $501 forward 7 unknown #
vertex $-1 $239 $502 #
ellipse-curve $-1 23.04034823188681 15.896511498495352 5.0896077631747678 0 0.85716730853699208 0.51503806187062418 1 0 0 1 I I #
face $-1 $-1 $255 $36 $-1 $503 reversed single #
loop $-1 $-1 $376 $240 #
plane-surface $-1 0 16.957509124987297 0 0 -1 0 0 0 -1 forward_v I I I I #
coedge $-1 $504 $374 $377 $505 forward $241 $-1 #
coedge $-1 $380 $243 $244 $368 reversed $151 $-1 #
coedge $-1 $374 $504 $243 $366 reversed $241 $-1 #
edge $-1 $381 -6.8554044046134592 $506 6.8554044046134592 $365 $507 forward 7 unknown #
coedge $-1 $245 $244 $504 $508 forward $97 $-1 #
edge $-1 $372 -42.021546067690053 $506 42.021546067690053 $364 $509 forward 7 unknown #
coedge $-1 $377 $376 $245 $370 reversed $361 $-1 #
edge $-1 $510 -42.021546067690053 $371 42.021546067690053 $369 $511 forward 7 unknown #
vertex $-1 $247 $512 #
vertex $-1 $383 $513 #
straight-curve $-1 42.021546067690053 0 -6.8554044046134592 0 -1 0 I I #
coedge $-1 $363 $365 $248 $375 reversed $241 $-1 #
edge $-1 $378 -16.957509124987297 $381 16.957509124987297 $374 $514 forward 7 unknown #
coedge $-1 $369 $249 $254 $384 forward $361 $-1 #
coedge $-1 $249 $369 $363 $505 reversed $361 $-1 #
vertex $-1 $250 $515 #
straight-curve $-1 0 16.957509124987297 6.8554044046134592 -1 0 0 I I #
coedge $-1 $251 $364 $253 $383 reversed $151 $-1 #
vertex $-1 $375 $516 #
straight-curve $-1 0 -16.957509124987297 6.8554044046134592 1 0 0 I I #
edge $-1 $256 -6.8554044046134592 $372 6.8554044046134592 $253 $517 forward 7 unknown #
edge $-1 $257 -6.8554044046134592 $371 6.8554044046134592 $254 $518 forward 7 unknown #
point $-1 42.021546067690053 -16.957509124987297 6.8554044046134592 #
point $-1 42.021546067690053 16.957509124987297 6.8554044046134592 #
face $-1 $-1 $396 $37 $-1 $519 reversed single #
loop $-1 $-1 $393 $259 #
plane-surface $-1 0 0 6.8554044046134592 0 0 1 1 0 0 forward_v I I I I #
coedge $-1 $520 $521 $266 $399 forward $260 $-1 #
coedge $-1 $262 $403 $522 $523 reversed $159 $-1 #
edge $-1 $524 -4.1777022023067296 $272 -1.1777022023067296 $262 $525 forward 7 unknown #
coedge $-1 $522 $526 $263 $394 forward $388 $-1 #
edge $-1 $397 -16.957509124987297 $524 16.957509124987297 $393 $527 forward 7 unknown #
coedge $-1 $400 $264 $526 $528 reversed $396 $-1 #
loop $-1 $-1 $264 $387 #
vertex $-1 $265 $529 #
straight-curve $-1 -34.935262639160243 -16.957509124987297 2.6777022023067296 0 0 1 I I #
edge $-1 $404 -16.957509124987297 $401 16.957509124987297 $390 $530 forward 7 unknown #
coedge $-1 $267 $395 $520 $531 forward $396 $-1 #
vertex $-1 $399 $532 #
straight-curve $-1 -19.239202176712574 -16.957509124987297 3.8554044046134592 1 0 0 I I #
coedge $-1 $391 $269 $521 $533 reversed $159 $-1 #
vertex $-1 $399 $534 #
straight-curve $-1 -19.239202176712574 16.957509124987297 3.8554044046134592 -1 0 0 I I #
point $-1 -34.935262639160243 16.957509124987297 3.8554044046134592 #
point $-1 -34.935262639160243 -16.957509124987297 3.8554044046134592 #
loop $-1 $-1 $283 $275 #
plane-surface $-1 0 -16.957509124987297 0 0 1 0 0 0 1 forward_v I I I I #
coedge $-1 $411 $278 $535 $536 reversed $167 $-1 #
coedge $-1 $278 $410 $414 $537 reversed $167 $-1 #
edge $-1 $538 0 $415 11.391870368587394 $278 $539 forward 7 unknown #
coedge $-1 $280 $279 $418 $540 reversed $105 $-1 #
coedge $-1 $286 $281 $411 $537 forward $276 $-1 #
vertex $-1 $537 $541 #
straight-curve $-1 -15.279140512571214 -7.7412924612360001 6.8554044046134592 -1 0 0 I I #
coedge $-1 $535 $283 $286 $422 reversed $408 $-1 #
coedge $-1 $283 $535 $413 $540 forward $408 $-1 #
vertex $-1 $284 $542 #
straight-curve $-1 -26.18129941112462 -16.957509124987297 34.075860129600301 0 0 1 I I #
straight-curve $-1 -26.18129941112462 -16.957509124987297 0.15943092038486384 0 -0.80901698891910034 -0.5877852598018023 I I #
edge $-1 $543 -34.935262639160243 $287 -26.18129941112462 $417 $544 forward 7 unknown #
point $-1 -26.18129941112462 -16.957509124987297 6.8554044046134592 #
point $-1 -26.18129941112462 -7.7412924612360001 6.8554044046134601 #
edge $-1 $545 1 $545 0 $290 $-1 forward 7 unknown #
vertex $-1 $291 $546 #
ellipse-curve $-1 -30.558281025142431 -8.1073445097189065 -2.3312717976158526 0 -0.5877852598018023 0.80901698891910034 2 0 0 1 I I #
point $-1 -28.558281025142431 -12.349400793111656 3.5074176624991673 #
plane-surface $-1 0 0 6.8554044046134592 0 0 1 1 0 0 forward_v I I I I #
coedge $-1 $440 $439 $432 $547 forward $295 $-1 #
coedge $-1 $432 $297 $299 $436 reversed $182 $-1 #
coedge $-1 $297 $431 $430 $547 reversed $182 $-1 #
coedge $-1 $305 $300 $297 $434 forward $306 $-1 #
edge $-1 $437 -25.437107473928251 $548 -16.220890810176954 $433 $549 forward 7 unknown #
coedge $-1 $299 $298 $440 $550 reversed $114 $-1 #
edge $-1 $551 0 $437 11.391870368587394 $431 $552 forward 7 unknown #
vertex $-1 $301 $553 #
straight-curve $-1 3.9600616641413602 -7.7412924612360001 6.8554044046134592 -1 0 0 I I #
coedge $-1 $430 $302 $305 $444 reversed $295 $-1 #
coedge $-1 $302 $430 $435 $550 forward $295 $-1 #
vertex $-1 $303 $554 #
straight-curve $-1 12.29710494230053 -16.957509124987297 34.075860129600301 0 0 1 I I #
straight-curve $-1 12.29710494230053 -16.957509124987297 0.15943092038486384 0 -0.80901698891910034 -0.5877852598018023 I I #
edge $-1 $548 3.5431417142649106 $307 12.29710494230053 $439 $555 forward 7 unknown #
point $-1 12.29710494230053 -16.957509124987297 6.8554044046134592 #
point $-1 12.29710494230053 -7.7412924612360001 6.8554044046134601 #
edge $-1 $556 1 $556 0 $310 $-1 forward 7 unknown #
vertex $-1 $311 $557 #
ellipse-curve $-1 7.9201233282827133 -8.1073445097189065 -2.3312717976158526 0 -0.5877852598018023 0.80901698891910034 2 0 0 1 I I #
point $-1 9.9201233282827133 -12.349400793111656 3.5074176624991673 #
loop $-1 $-1 $322 $314 #
plane-surface $-1 0 16.957509124987297 0 0 -1 0 0 0 -1 forward_v I I I I #
coedge $-1 $454 $317 $319 $458 reversed $197 $-1 #
coedge $-1 $317 $453 $558 $559 reversed $197 $-1 #
coedge $-1 $325 $320 $317 $456 forward $315 $-1 #
edge $-1 $459 -20.928973600008476 $560 -18.806978347024582 $455 $561 forward 7 unknown #
coedge $-1 $319 $318 $462 $562 reversed $123 $-1 #
edge $-1 $563 -33.91501824997458 $459 -29.794943618447764 $453 $564 forward 7 unknown #
vertex $-1 $321 $565 #
straight-curve $-1 -8.91014931303258 14.8355138720034 6.8554044046134592 1 0 0 I I #
coedge $-1 $558 $322 $325 $466 reversed $451 $-1 #
coedge $-1 $322 $558 $457 $562 forward $451 $-1 #
vertex $-1 $323 $566 #
straight-curve $-1 -23.378864469961087 16.957509124987297 37.84002366053511 0 0 1 I I #
straight-curve $-1 -23.378864469961087 -0.51001614278645491 32.394656034049753 0 0.51503806187062418 -0.85716730853699208 I I #
edge $-1 $560 12.261732782169231 $326 23.378864469961087 $461 $567 forward 7 unknown #
point $-1 -23.378864469961087 16.957509124987297 6.8554044046134592 #
point $-1 -23.378864469961087 14.835513872003402 6.8554044046134592 #
edge $-1 $568 1 $568 0 $329 $-1 forward 7 unknown #
vertex $-1 $330 $569 #
ellipse-curve $-1 -20.202541130591989 14.982290388880465 4.5402883202518671 0 0.85716730853699208 0.51503806187062418 1 0 0 1 I I #
point $-1 -19.202541130591989 15.896511498495345 5.0896077631747643 #
edge $-1 $570 1 $570 0 $333 $-1 forward 7 unknown #
vertex $-1 $334 $571 #
ellipse-curve $-1 -15.438056121538335 14.982290388880465 4.5402883202518671 0 0.85716730853699208 0.51503806187062418 1 0 0 1 I I #
point $-1 -14.438056121538335 15.896511498495345 5.0896077631747643 #
loop $-1 $-1 $345 $337 #
plane-surface $-1 0 16.957509124987297 0 0 -1 0 0 0 -1 forward_v I I I I #
coedge $-1 $480 $340 $342 $484 reversed $219 $-1 #
coedge $-1 $340 $479 $572 $573 reversed $219 $-1 #
coedge $-1 $348 $343 $340 $482 forward $338 $-1 #
edge $-1 $485 -20.928973600008476 $574 -18.806978347024582 $481 $575 forward 7 unknown #
coedge $-1 $342 $341 $488 $576 reversed $137 $-1 #
edge $-1 $577 -33.91501824997458 $485 -29.794943618447764 $479 $578 forward 7 unknown #
vertex $-1 $344 $579 #
straight-curve $-1 10.329052863679994 14.8355138720034 6.8554044046134592 1 0 0 I I #
coedge $-1 $572 $345 $348 $492 reversed $477 $-1 #
coedge $-1 $345 $572 $483 $576 forward $477 $-1 #
vertex $-1 $346 $580 #
straight-curve $-1 15.099539883464059 16.957509124987297 37.84002366053511 0 0 1 I I #
straight-curve $-1 15.099539883464059 -0.51001614278645491 32.394656034049753 0 0.51503806187062418 -0.85716730853699208 I I #
edge $-1 $574 -26.216671571255915 $349 -15.099539883464059 $487 $581 forward 7 unknown #
point $-1 15.099539883464059 16.957509124987297 6.8554044046134592 #
point $-1 15.099539883464059 14.835513872003402 6.8554044046134592 #
edge $-1 $582 1 $582 0 $352 $-1 forward 7 unknown #
vertex $-1 $353 $583 #
ellipse-curve $-1 18.275863222833159 14.982290388880465 4.5402883202518671 0 0.85716730853699208 0.51503806187062418 1 0 0 1 I I #
point $-1 19.275863222833159 15.896511498495345 5.0896077631747643 #
edge $-1 $584 1 $584 0 $356 $-1 forward 7 unknown #
vertex $-1 $357 $585 #
ellipse-curve $-1 23.04034823188681 14.982290388880465 4.5402883202518671 0 0.85716730853699208 0.51503806187062418 1 0 0 1 I I #
point $-1 24.04034823188681 15.896511498495345 5.0896077631747643 #
plane-surface $-1 42.021546067690053 0 0 -1 0 0 0 0 1 forward_v I I I I #
coedge $-1 $365 $363 $367 $508 reversed $241 $-1 #
edge $-1 $378 -6.8554044046134592 $510 6.8554044046134592 $377 $586 forward 7 unknown #
vertex $-1 $508 $587 #
straight-curve $-1 -42.021546067690053 -16.957509124987297 0 0 0 -1 I I #
edge $-1 $506 -16.957509124987297 $510 16.957509124987297 $504 $588 forward 7 unknown #
straight-curve $-1 0 -16.957509124987297 -6.8554044046134592 -1 0 0 I I #
vertex $-1 $370 $589 #
straight-curve $-1 0 16.957509124987297 -6.8554044046134592 1 0 0 I I #
point $-1 42.021546067690053 16.957509124987297 -6.8554044046134592 #
point $-1 42.021546067690053 -16.957509124987297 -6.8554044046134592 #
straight-curve $-1 -42.021546067690053 0 6.8554044046134592 0 -1 0 I I #
point $-1 -42.021546067690053 16.957509124987297 6.8554044046134592 #
point $-1 -42.021546067690053 -16.957509124987297 6.8554044046134592 #
straight-curve $-1 42.021546067690053 -16.957509124987297 0 0 0 -1 I I #
straight-curve $-1 42.021546067690053 16.957509124987297 0 0 0 -1 I I #
plane-surface $-1 0 -16.957509124987297 0 0 1 0 0 0 1 forward_v I I I I #
coedge $-1 $590 $390 $400 $531 reversed $260 $-1 #
coedge $-1 $390 $590 $403 $533 forward $260 $-1 #
coedge $-1 $591 $393 $391 $523 forward $388 $-1 #
edge $-1 $524 34.935262639160243 $592 42.021546067690053 $391 $593 forward 7 unknown #
vertex $-1 $523 $594 #
straight-curve $-1 -34.935262639160243 16.957509124987297 2.6777022023067296 0 0 -1 I I #
coedge $-1 $393 $591 $395 $528 forward $388 $-1 #
straight-curve $-1 -34.935262639160243 0 6.8554044046134592 0 1 0 I I #
edge $-1 $595 -42.021546067690053 $397 -34.935262639160243 $395 $596 forward 7 unknown #
point $-1 -34.935262639160243 -16.957509124987297 6.8554044046134592 #
straight-curve $-1 -42.021546067690053 0 3.8554044046134592 0 -1 0 I I #
edge $-1 $595 -6.8554044046134592 $401 -3.8554044046134592 $520 $597 forward 7 unknown #
point $-1 -42.021546067690053 -16.957509124987297 3.8554044046134592 #
edge $-1 $592 -6.8554044046134592 $404 -3.8554044046134592 $403 $598 forward 7 unknown #
point $-1 -42.021546067690053 16.957509124987297 3.8554044046134592 #
coedge $-1 $418 $417 $410 $536 forward $408 $-1 #
edge $-1 $543 27.220455724986842 $538 33.916429209215437 $535 $599 forward 7 unknown #
edge $-1 $415 7.741292461236001 $543 16.957509124987297 $414 $600 forward 7 unknown #
vertex $-1 $536 $601 #
straight-curve $-1 -34.935262639160236 -16.957509124987297 0.15943092038486384 0 0.80901698891910034 0.5877852598018023 I I #
edge $-1 $538 -19.656122126589022 $419 -10.902158898553406 $418 $602 forward 7 unknown #
point $-1 -34.935262639160243 -7.741292461236001 6.8554044046134592 #
point $-1 -26.18129941112462 -16.957509124987297 0.15943092038486384 #
vertex $-1 $422 $603 #
straight-curve $-1 0 -16.957509124987297 6.8554044046134592 1 0 0 I I #
vertex $-1 $425 $604 #
point $-1 -28.558281025142431 -8.1073445097189065 -2.3312717976158526 #
edge $-1 $548 27.220455724986842 $551 33.916429209215437 $430 $605 forward 7 unknown #
vertex $-1 $444 $606 #
straight-curve $-1 3.5431417142649106 -33.178399935164251 6.8554044046134592 0 -1 0 I I #
edge $-1 $551 -0.41691994987644954 $441 8.3370432781591699 $440 $607 forward 7 unknown #
vertex $-1 $550 $608 #
straight-curve $-1 3.5431417142649106 -16.957509124987297 0.15943092038486384 0 0.80901698891910034 0.5877852598018023 I I #
point $-1 3.5431417142649106 -7.7412924612360001 6.8554044046134601 #
point $-1 12.29710494230053 -16.957509124987297 0.15943092038486384 #
straight-curve $-1 0 -16.957509124987297 6.8554044046134592 1 0 0 I I #
vertex $-1 $447 $609 #
point $-1 9.9201233282827133 -8.1073445097189065 -2.3312717976158526 #
coedge $-1 $462 $461 $454 $559 forward $451 $-1 #
edge $-1 $560 30.98461925592165 $563 34.516212538799024 $558 $610 forward 7 unknown #
vertex $-1 $466 $611 #
straight-curve $-1 -12.261732782169231 35.764487472011879 6.8554044046134592 0 1 0 I I #
edge $-1 $563 3.3515834691366511 $463 14.468715156928507 $462 $612 forward 7 unknown #
vertex $-1 $562 $613 #
straight-curve $-1 -12.261732782169231 -0.51001614278645491 32.394656034049753 0 -0.51503806187062418 0.85716730853699208 I I #
point $-1 -12.261732782169231 14.835513872003402 6.8554044046134592 #
point $-1 -23.378864469961087 16.957509124987297 3.3238111217360817 #
straight-curve $-1 0 16.957509124987297 6.8554044046134592 -1 0 0 I I #
vertex $-1 $469 $614 #
point $-1 -19.202541130591989 14.982290388880465 4.5402883202518671 #
vertex $-1 $473 $615 #
point $-1 -14.438056121538335 14.982290388880465 4.5402883202518671 #
coedge $-1 $488 $487 $480 $573 forward $477 $-1 #
edge $-1 $574 30.98461925592165 $577 34.516212538799024 $572 $616 forward 7 unknown #
vertex $-1 $492 $617 #
straight-curve $-1 26.216671571255915 35.764487472011879 6.8554044046134592 0 1 0 I I #
edge $-1 $577 -15.887618707575921 $489 -4.7704870197840652 $488 $618 forward 7 unknown #
vertex $-1 $576 $619 #
straight-curve $-1 26.216671571255915 -0.51001614278645491 32.394656034049753 0 -0.51503806187062418 0.85716730853699208 I I #
point $-1 26.216671571255915 14.835513872003402 6.8554044046134592 #
point $-1 15.099539883464059 16.957509124987297 3.3238111217360817 #
straight-curve $-1 0 16.957509124987297 6.8554044046134592 -1 0 0 I I #
vertex $-1 $495 $620 #
point $-1 19.275863222833159 14.982290388880465 4.5402883202518671 #
vertex $-1 $499 $621 #
point $-1 24.04034823188681 14.982290388880465 4.5402883202518671 #
straight-curve $-1 -42.021546067690053 16.957509124987297 0 0 0 -1 I I #
point $-1 -42.021546067690053 -16.957509124987297 -6.8554044046134592 #
straight-curve $-1 -42.021546067690053 0 -6.8554044046134592 0 1 0 I I #
point $-1 -42.021546067690053 16.957509124987297 -6.8554044046134592 #
coedge $-1 $521 $520 $591 $622 reversed $260 $-1 #
coedge $-1 $526 $522 $590 $622 forward $388 $-1 #
vertex $-1 $523 $623 #
straight-curve $-1 0 16.957509124987297 6.8554044046134592 -1 0 0 I I #
point $-1 -34.935262639160243 16.957509124987297 6.8554044046134592 #
vertex $-1 $622 $624 #
straight-curve $-1 0 -16.957509124987297 6.8554044046134592 1 0 0 I I #
straight-curve $-1 -42.021546067690053 -16.957509124987297 0 0 0 -1 I I #
straight-curve $-1 -42.021546067690053 16.957509124987297 0 0 0 -1 I I #
straight-curve $-1 -34.935262639160236 -16.957509124987297 34.075860129600301 0 0 -1 I I #
straight-curve $-1 -34.935262639160243 0 6.8554044046134592 0 -1 0 I I #
point $-1 -34.935262639160236 -16.957509124987297 0.15943092038486384 #
straight-curve $-1 -15.279140512571214 -16.957509124987297 0.15943092038486478 1 0 0 I I #
point $-1 -34.935262639160243 -16.957509124987297 6.8554044046134592 #
point $-1 -30.558281025142431 -6.9317739901153024 -3.9493057754540537 #
straight-curve $-1 3.5431417142649106 -16.957509124987297 34.075860129600301 0 0 -1 I I #
point $-1 3.5431417142649106 -16.957509124987297 6.8554044046134592 #
straight-curve $-1 3.9600616641413602 -16.957509124987297 0.15943092038486478 1 0 0 I I #
point $-1 3.5431417142649106 -16.957509124987297 0.15943092038486384 #
point $-1 7.9201233282827133 -6.9317739901153024 -3.9493057754540537 #
straight-curve $-1 -12.261732782169231 16.957509124987297 37.84002366053511 0 0 -1 I I #
point $-1 -12.261732782169231 16.957509124987297 6.8554044046134592 #
straight-curve $-1 -8.91014931303258 16.957509124987297 3.3238111217360835 -1 0 0 I I #
point $-1 -12.261732782169231 16.957509124987297 3.3238111217360817 #
point $-1 -20.202541130591989 14.125123080343471 4.0252502583812424 #
point $-1 -15.438056121538335 14.125123080343471 4.0252502583812424 #
straight-curve $-1 26.216671571255915 16.957509124987297 37.84002366053511 0 0 -1 I I #
point $-1 26.216671571255915 16.957509124987297 6.8554044046134592 #
straight-curve $-1 10.329052863679994 16.957509124987297 3.3238111217360835 -1 0 0 I I #
point $-1 26.216671571255915 16.957509124987297 3.3238111217360817 #
point $-1 18.275863222833159 14.125123080343471 4.0252502583812424 #
point $-1 23.04034823188681 14.125123080343471 4.0252502583812424 #
edge $-1 $592 -16.957509124987297 $595 16.957509124987297 $590 $625 forward 7 unknown #
point $-1 -42.021546067690053 16.957509124987297 6.8554044046134592 #
point $-1 -42.021546067690053 -16.957509124987297 6.8554044046134592 #
straight-curve $-1 -42.021546067690053 0 6.8554044046134592 0 -1 0 I I #
End-of-ACIS-data 