500 0 10 0           
7 Unknown 11 ACIS 5.0 NT 24 Thu Mar 25 23:26:27 1999 
-1 9.9999999999999995e-007 1e-010 
body $-1 $10 $-1 $11 #
body $-1 $12 $-1 $13 #
body $-1 $14 $-1 $15 #
body $-1 $16 $-1 $17 #
body $-1 $18 $-1 $19 #
body $-1 $20 $-1 $21 #
body $-1 $22 $-1 $23 #
body $-1 $24 $-1 $25 #
body $-1 $26 $-1 $27 #
body $-1 $28 $-1 $29 #
lump $-1 $-1 $30 $0 #
transform $-1 1 0 0 0 1 0 0 0 1 76.478164006469925 43.026115127331458 16.690592570940197 1 rotate no_reflect no_shear #
lump $-1 $-1 $31 $1 #
transform $-1 1 0 0 0 1 0 0 0 1 76.478164006469925 43.026115127331458 16.690592570940197 1 rotate no_reflect no_shear #
lump $-1 $-1 $32 $2 #
transform $-1 1 0 0 0 1 0 0 0 1 76.478164006469925 43.026115127331458 16.690592570940197 1 rotate no_reflect no_shear #
lump $-1 $-1 $33 $3 #
transform $-1 1 0 0 0 1 0 0 0 1 76.478164006469925 43.026115127331458 16.690592570940197 1 rotate no_reflect no_shear #
lump $-1 $-1 $34 $4 #
transform $-1 1 0 0 0 1 0 0 0 1 76.478164006469925 43.026115127331458 16.690592570940197 1 rotate no_reflect no_shear #
lump $-1 $-1 $35 $5 #
transform $-1 1 0 0 0 1 0 0 0 1 76.478164006469925 43.026115127331458 16.690592570940197 1 rotate no_reflect no_shear #
lump $-1 $-1 $36 $6 #
transform $-1 1 0 0 0 1 0 0 0 1 76.478164006469925 43.026115127331458 16.690592570940197 1 rotate no_reflect no_shear #
lump $-1 $-1 $37 $7 #
transform $-1 1 0 0 0 1 0 0 0 1 76.478164006469925 43.026115127331458 16.690592570940197 1 rotate no_reflect no_shear #
lump $-1 $-1 $38 $8 #
transform $-1 1 0 0 0 1 0 0 0 1 76.478164006469925 43.026115127331458 16.690592570940197 1 rotate no_reflect no_shear #
lump $-1 $-1 $39 $9 #
transform $-1 1 0 0 0 1 0 0 0 1 76.478164006469925 43.026115127331458 16.690592570940197 1 rotate no_reflect no_shear #
shell $-1 $-1 $-1 $40 $-1 $10 #
shell $-1 $-1 $-1 $41 $-1 $12 #
shell $-1 $-1 $-1 $42 $-1 $14 #
shell $-1 $-1 $-1 $43 $-1 $16 #
shell $-1 $-1 $-1 $44 $-1 $18 #
shell $-1 $-1 $-1 $45 $-1 $20 #
shell $-1 $-1 $-1 $46 $-1 $22 #
shell $-1 $-1 $-1 $47 $-1 $24 #
shell $-1 $-1 $-1 $48 $-1 $26 #
shell $-1 $-1 $-1 $49 $-1 $28 #
face $-1 $50 $51 $30 $-1 $52 forward single #
face $-1 $53 $54 $31 $-1 $55 forward single #
face $-1 $56 $57 $32 $-1 $58 forward single #
face $-1 $59 $60 $33 $-1 $61 reversed single #
face $-1 $62 $63 $34 $-1 $64 forward single #
face $-1 $65 $66 $35 $-1 $67 forward single #
face $-1 $68 $69 $36 $-1 $70 forward single #
face $-1 $71 $72 $37 $-1 $73 reversed single #
face $-1 $74 $75 $38 $-1 $76 forward single #
face $-1 $77 $78 $39 $-1 $79 forward single #
face $-1 $80 $81 $30 $-1 $82 reversed single #
loop $-1 $-1 $83 $40 #
plane-surface $-1 0 0 16.690592570940197 0 0 1 1 0 0 forward_v I I I I #
face $-1 $84 $85 $31 $-1 $86 reversed single #
loop $-1 $-1 $87 $41 #
plane-surface $-1 0 -43.026115127331458 0 0 1 0 0 0 1 forward_v I I I I #
face $-1 $88 $89 $32 $-1 $90 reversed single #
loop $-1 $-1 $91 $42 #
plane-surface $-1 0 33.226138981579119 -9.2345069990261237 0 0 1 1 0 0 forward_v I I I I #
face $-1 $92 $93 $33 $-1 $94 reversed single #
loop $-1 $-1 $95 $43 #
plane-surface $-1 24.147335601009971 5.4229266057941814 218.86010484037715 0 -1 0 -0.51503808176128008 0 -0.85716729658548041 forward_v I I I I #
face $-1 $96 $97 $34 $-1 $98 forward single #
loop $-1 $99 $100 $44 #
cone-surface $-1 69.798204138257745 -3.1138912476031564 12.403017081602266 -0.51503808176128008 0 -0.85716729658548041 0.4285836482927402 0 -0.25751904088064004 1 I I 0 1 0.5 forward I I I I #
face $-1 $101 $102 $35 $-1 $103 forward single #
loop $-1 $104 $105 $45 #
cone-surface $-1 69.798204138257745 0.087415447420845283 12.403017081602266 -0.51503808176128008 0 -0.85716729658548041 0.4285836482927402 0 -0.25751904088064004 1 I I 0 1 0.5 forward I I I I #
face $-1 $106 $107 $36 $-1 $108 forward single #
loop $-1 $109 $110 $46 #
cone-surface $-1 69.798204138257745 3.288722142444847 12.403017081602266 -0.51503808176128008 0 -0.85716729658548041 0.4285836482927402 0 -0.25751904088064004 1 I I 0 1 0.5 forward I I I I #
face $-1 $111 $112 $37 $-1 $113 reversed single #
loop $-1 $-1 $114 $47 #
plane-surface $-1 -200.22243401788654 -0.17331549682722169 101.88301713451335 0 1 0 -0.80901700255871778 0 0.5877852410284794 forward_v I I I I #
face $-1 $115 $116 $38 $-1 $117 forward single #
loop $-1 $118 $119 $48 #
cone-surface $-1 -73.160459061979452 2.3282309490103188 13.167539224753199 0.80901700255871778 0 -0.5877852410284794 0.5877852410284794 0 0.80901700255871778 1 I I 0 1 1 forward I I I I #
face $-1 $120 $121 $39 $-1 $122 forward single #
loop $-1 $123 $124 $49 #
cone-surface $-1 -73.160459061979452 6.0805506177666331 13.167539224753199 0.80901700255871778 0 -0.5877852410284794 0.5877852410284794 0 0.80901700255871778 1 I I 0 1 1 forward I I I I #
face $-1 $125 $126 $30 $-1 $127 reversed single #
loop $-1 $-1 $128 $50 #
plane-surface $-1 0 0 -16.690592570940197 0 0 1 1 0 0 forward_v I I I I #
coedge $-1 $129 $130 $131 $132 forward $51 $-1 #
face $-1 $133 $134 $31 $-1 $135 reversed single #
loop $-1 $-1 $136 $53 #
plane-surface $-1 0 0 -16.690592570940197 0 0 1 1 0 0 forward_v I I I I #
coedge $-1 $137 $138 $139 $140 forward $54 $-1 #
face $-1 $141 $142 $32 $-1 $143 reversed single #
loop $-1 $-1 $144 $56 #
plane-surface $-1 0 23.42616283582678 -12.96254978498316 0 1 0 0 0 1 forward_v I I I I #
coedge $-1 $145 $146 $147 $148 reversed $57 $-1 #
face $-1 $149 $150 $33 $-1 $151 reversed single #
loop $-1 $-1 $152 $59 #
plane-surface $-1 -54.630998172023723 0.087415447420845283 87.750942661883499 0.51503808176128008 0 0.85716729658548041 0.85716729658548041 0 -0.51503808176128008 forward_v I I I I #
coedge $-1 $153 $154 $155 $156 reversed $60 $-1 #
face $-1 $-1 $157 $34 $-1 $158 forward single #
loop $-1 $159 $160 $62 #
cone-surface $-1 69.411925576936781 -3.1138912476031564 11.760141609163156 -0.51503808176128008 0 -0.85716729658548041 0.2142918241463701 0 -0.12875952044032002 1 I I -0.70710678118654746 0.70710678118654746 0.25 forward I I I I #
loop $-1 $-1 $161 $44 #
coedge $-1 $100 $100 $162 $163 reversed $63 $-1 #
face $-1 $-1 $164 $35 $-1 $165 forward single #
loop $-1 $166 $167 $65 #
cone-surface $-1 69.411925576936781 0.087415447420845283 11.760141609163156 -0.51503808176128008 0 -0.85716729658548041 0.2142918241463701 0 -0.12875952044032002 1 I I -0.70710678118654746 0.70710678118654746 0.25 forward I I I I #
loop $-1 $-1 $168 $45 #
coedge $-1 $105 $105 $169 $170 reversed $66 $-1 #
face $-1 $-1 $171 $36 $-1 $172 forward single #
loop $-1 $173 $174 $68 #
cone-surface $-1 69.411925576936781 3.288722142444847 11.760141609163156 -0.51503808176128008 0 -0.85716729658548041 0.2142918241463701 0 -0.12875952044032002 1 I I -0.70710678118654746 0.70710678118654746 0.25 forward I I I I #
loop $-1 $-1 $175 $46 #
coedge $-1 $110 $110 $176 $177 reversed $69 $-1 #
face $-1 $178 $179 $37 $-1 $180 reversed single #
loop $-1 $-1 $181 $71 #
plane-surface $-1 -76.47816400646991 4.2043907833884759 11.977545006596344 -0.80901700255871778 0 0.5877852410284794 0.5877852410284794 0 0.80901700255871778 forward_v I I I I #
coedge $-1 $182 $183 $184 $185 reversed $72 $-1 #
face $-1 $-1 $186 $38 $-1 $187 forward single #
loop $-1 $188 $189 $74 #
cone-surface $-1 -71.150360312084302 2.3282309490103188 11.707117040223881 0.80901700255871778 0 -0.5877852410284794 0.2938926205142397 0 0.40450850127935889 1 I I -0.70710678118654746 0.70710678118654746 0.5 forward I I I I #
loop $-1 $-1 $190 $48 #
coedge $-1 $119 $119 $191 $192 reversed $75 $-1 #
face $-1 $-1 $193 $39 $-1 $194 forward single #
loop $-1 $195 $196 $77 #
cone-surface $-1 -71.150360312084302 6.0805506177666331 11.707117040223881 0.80901700255871778 0 -0.5877852410284794 0.2938926205142397 0 0.40450850127935889 1 I I -0.70710678118654746 0.70710678118654746 0.5 forward I I I I #
loop $-1 $-1 $197 $49 #
coedge $-1 $124 $124 $198 $199 reversed $78 $-1 #
face $-1 $200 $201 $30 $-1 $202 reversed single #
loop $-1 $-1 $203 $80 #
plane-surface $-1 0 -43.026115127331458 0 0 1 0 0 0 1 forward_v I I I I #
coedge $-1 $204 $205 $206 $207 forward $81 $-1 #
coedge $-1 $208 $83 $209 $210 forward $51 $-1 #
coedge $-1 $83 $208 $211 $212 forward $51 $-1 #
coedge $-1 $213 $214 $83 $132 reversed $215 $-1 #
edge $-1 $216 -43.026115127331458 $217 43.026115127331458 $131 $218 forward 7 unknown #
face $-1 $219 $220 $31 $-1 $221 forward single #
loop $-1 $-1 $222 $84 #
plane-surface $-1 76.478164006469925 0 0 -1 0 0 0 0 1 forward_v I I I I #
coedge $-1 $223 $224 $225 $226 forward $85 $-1 #
coedge $-1 $225 $87 $222 $227 reversed $54 $-1 #
coedge $-1 $87 $225 $228 $229 reversed $54 $-1 #
coedge $-1 $230 $231 $87 $140 reversed $220 $-1 #
edge $-1 $232 -76.478164006469925 $233 76.478164006469925 $139 $234 forward 7 unknown #
face $-1 $235 $236 $32 $-1 $237 reversed single #
loop $-1 $-1 $147 $88 #
plane-surface $-1 76.478164006469925 0 0 -1 0 0 0 0 1 forward_v I I I I #
coedge $-1 $238 $239 $240 $241 reversed $89 $-1 #
coedge $-1 $242 $91 $243 $244 reversed $57 $-1 #
coedge $-1 $91 $242 $239 $245 forward $57 $-1 #
coedge $-1 $246 $247 $91 $148 forward $142 $-1 #
edge $-1 $248 -26.413045636541899 $249 -6.8130933450372204 $147 $250 forward 7 unknown #
face $-1 $251 $252 $33 $-1 $253 forward single #
loop $-1 $-1 $254 $92 #
plane-surface $-1 24.147335601009971 -5.2480957109524908 218.86010484037715 0 1 0 0.51503808176128008 0 0.85716729658548041 forward_v I I I I #
coedge $-1 $255 $256 $257 $258 reversed $93 $-1 #
coedge $-1 $154 $95 $259 $260 reversed $60 $-1 #
coedge $-1 $95 $153 $255 $261 reversed $60 $-1 #
coedge $-1 $257 $262 $95 $156 forward $252 $-1 #
edge $-1 $263 -64.404496205964932 $264 -51.559614551301969 $155 $265 forward 7 unknown #
loop $-1 $-1 $162 $96 #
plane-surface $-1 -54.630998172023723 0.087415447420845283 87.750942661883499 0.51503808176128008 0 0.85716729658548041 0.85716729658548041 0 -0.51503808176128008 forward_v I I I I #
loop $-1 $-1 $266 $62 #
coedge $-1 $160 $160 $161 $267 reversed $97 $-1 #
coedge $-1 $161 $161 $160 $267 forward $99 $-1 #
coedge $-1 $162 $162 $100 $163 forward $157 $-1 #
edge $-1 $268 0 $268 6.2831853071796004 $162 $269 forward 7 unknown #
loop $-1 $-1 $169 $101 #
plane-surface $-1 -54.630998172023723 0.087415447420845283 87.750942661883499 0.51503808176128008 0 0.85716729658548041 0.85716729658548041 0 -0.51503808176128008 forward_v I I I I #
loop $-1 $-1 $270 $65 #
coedge $-1 $167 $167 $168 $271 reversed $102 $-1 #
coedge $-1 $168 $168 $167 $271 forward $104 $-1 #
coedge $-1 $169 $169 $105 $170 forward $164 $-1 #
edge $-1 $272 0 $272 6.2831853071796004 $169 $273 forward 7 unknown #
loop $-1 $-1 $176 $106 #
plane-surface $-1 -54.630998172023723 0.087415447420845283 87.750942661883499 0.51503808176128008 0 0.85716729658548041 0.85716729658548041 0 -0.51503808176128008 forward_v I I I I #
loop $-1 $-1 $274 $68 #
coedge $-1 $174 $174 $175 $275 reversed $107 $-1 #
coedge $-1 $175 $175 $174 $275 forward $109 $-1 #
coedge $-1 $176 $176 $110 $177 forward $171 $-1 #
edge $-1 $276 0 $276 6.2831853071796004 $176 $277 forward 7 unknown #
face $-1 $278 $279 $37 $-1 $280 reversed single #
loop $-1 $-1 $281 $111 #
plane-surface $-1 -200.22243401788654 8.5820970636041736 101.88301713451335 0 -1 0 0.80901700255871778 0 -0.5877852410284794 forward_v I I I I #
coedge $-1 $282 $283 $284 $285 reversed $112 $-1 #
coedge $-1 $183 $114 $286 $287 reversed $72 $-1 #
coedge $-1 $114 $182 $282 $288 reversed $72 $-1 #
coedge $-1 $284 $289 $114 $185 forward $290 $-1 #
edge $-1 $291 23.633053002473346 $292 27.057282394222739 $184 $293 forward 7 unknown #
loop $-1 $-1 $191 $115 #
plane-surface $-1 -76.47816400646991 4.2043907833884759 11.977545006596344 -0.80901700255871778 0 0.5877852410284794 0.5877852410284794 0 0.80901700255871778 forward_v I I I I #
loop $-1 $-1 $294 $74 #
coedge $-1 $189 $189 $190 $295 reversed $116 $-1 #
coedge $-1 $190 $190 $189 $295 forward $118 $-1 #
coedge $-1 $191 $191 $119 $192 forward $186 $-1 #
edge $-1 $296 0 $296 6.2831853071796004 $191 $297 forward 7 unknown #
loop $-1 $-1 $198 $120 #
plane-surface $-1 -76.47816400646991 4.2043907833884759 11.977545006596344 -0.80901700255871778 0 0.5877852410284794 0.5877852410284794 0 0.80901700255871778 forward_v I I I I #
loop $-1 $-1 $298 $77 #
coedge $-1 $196 $196 $197 $299 reversed $121 $-1 #
coedge $-1 $197 $197 $196 $299 forward $123 $-1 #
coedge $-1 $198 $198 $124 $199 forward $193 $-1 #
edge $-1 $300 0 $300 6.2831853071796004 $198 $301 forward 7 unknown #
face $-1 $302 $303 $30 $-1 $304 reversed single #
loop $-1 $-1 $305 $125 #
plane-surface $-1 -76.478164006469925 0 0 1 0 0 0 0 -1 forward_v I I I I #
coedge $-1 $306 $211 $307 $308 forward $126 $-1 #
coedge $-1 $309 $128 $306 $310 forward $81 $-1 #
coedge $-1 $128 $309 $311 $312 forward $81 $-1 #
coedge $-1 $214 $213 $128 $207 reversed $215 $-1 #
edge $-1 $313 -43.026115127331458 $314 43.026115127331458 $206 $315 forward 7 unknown #
coedge $-1 $130 $129 $316 $317 forward $51 $-1 #
coedge $-1 $318 $319 $129 $210 reversed $303 $-1 #
edge $-1 $217 -76.478164006469925 $320 76.478164006469925 $209 $321 forward 7 unknown #
coedge $-1 $203 $322 $130 $212 reversed $126 $-1 #
edge $-1 $323 -76.478164006469925 $216 76.478164006469925 $211 $324 forward 7 unknown #
coedge $-1 $206 $131 $322 $325 forward $215 $-1 #
coedge $-1 $131 $206 $318 $326 reversed $215 $-1 #
loop $-1 $-1 $213 $302 #
vertex $-1 $132 $327 #
vertex $-1 $132 $328 #
straight-curve $-1 76.478164006469925 0 16.690592570940197 0 1 0 I I #
face $-1 $329 $330 $31 $-1 $331 reversed single #
loop $-1 $-1 $231 $133 #
plane-surface $-1 0 -48.740596680838195 -11.983282100494726 0 0 1 1 0 0 forward_v I I I I #
coedge $-1 $332 $333 $137 $227 forward $134 $-1 #
coedge $-1 $334 $136 $333 $335 forward $85 $-1 #
coedge $-1 $136 $334 $336 $337 forward $85 $-1 #
coedge $-1 $138 $137 $136 $226 reversed $54 $-1 #
edge $-1 $338 -76.478164006469925 $339 76.478164006469925 $136 $340 forward 7 unknown #
edge $-1 $339 -16.690592570940197 $233 -11.983282100494726 $222 $341 forward 7 unknown #
coedge $-1 $336 $342 $138 $229 forward $343 $-1 #
edge $-1 $232 11.983282100494726 $338 16.690592570940197 $228 $344 forward 7 unknown #
coedge $-1 $345 $139 $342 $346 forward $220 $-1 #
coedge $-1 $139 $345 $332 $347 forward $220 $-1 #
vertex $-1 $229 $348 #
vertex $-1 $347 $349 #
straight-curve $-1 0 -43.026115127331458 -11.983282100494726 1 0 0 I I #
face $-1 $350 $351 $32 $-1 $352 reversed single #
loop $-1 $-1 $353 $141 #
plane-surface $-1 0 0 -16.690592570940197 0 0 1 1 0 0 forward_v I I I I #
coedge $-1 $354 $144 $353 $355 reversed $89 $-1 #
coedge $-1 $144 $354 $146 $245 reversed $89 $-1 #
coedge $-1 $356 $357 $144 $241 forward $351 $-1 #
edge $-1 $358 -10.209317678448617 $359 -2.7532321065345435 $240 $360 forward 7 unknown #
coedge $-1 $146 $145 $356 $361 reversed $57 $-1 #
coedge $-1 $362 $363 $145 $244 forward $364 $-1 #
edge $-1 $365 -76.478164006469925 $248 76.478164006469925 $243 $366 forward 7 unknown #
edge $-1 $359 -76.478164006469925 $249 76.478164006469925 $239 $367 forward 7 unknown #
coedge $-1 $368 $147 $354 $369 forward $142 $-1 #
coedge $-1 $147 $368 $362 $370 reversed $142 $-1 #
vertex $-1 $370 $371 #
vertex $-1 $148 $372 #
straight-curve $-1 76.478164006469925 16.61306949078956 -9.2345069990261237 0 -1 0 I I #
face $-1 $-1 $373 $33 $-1 $374 reversed single #
loop $-1 $-1 $155 $149 #
plane-surface $-1 0 0 16.690592570940197 0 0 1 1 0 0 forward_v I I I I #
coedge $-1 $375 $376 $377 $378 reversed $150 $-1 #
coedge $-1 $379 $152 $154 $261 forward $93 $-1 #
coedge $-1 $152 $379 $375 $380 forward $93 $-1 #
coedge $-1 $377 $155 $152 $258 forward $252 $-1 #
edge $-1 $264 -5.3792188820837588 $381 5.2918034346629135 $257 $382 forward 7 unknown #
coedge $-1 $383 $384 $153 $260 forward $373 $-1 #
edge $-1 $385 -100.45744353133877 $263 -92.739459849248377 $259 $386 forward 7 unknown #
edge $-1 $264 137.97106001936328 $385 152.95632801293985 $154 $387 forward 7 unknown #
coedge $-1 $155 $377 $383 $388 forward $252 $-1 #
vertex $-1 $260 $389 #
vertex $-1 $156 $390 #
straight-curve $-1 12.073667800504985 5.4229266057941814 16.690592570940197 -1 0 0 I I #
coedge $-1 $266 $266 $-1 $391 reversed $159 $-1 #
edge $-1 $392 0 $392 6.2831853071796004 $160 $393 forward 7 unknown #
vertex $-1 $163 $394 #
ellipse-curve $-1 70.055723179138397 -3.1138912476031564 12.831600729895019 0.51503808176128008 0 0.85716729658548041 0.4285836482927402 0 -0.25751904088064004 1 I I #
coedge $-1 $270 $270 $-1 $395 reversed $166 $-1 #
edge $-1 $396 0 $396 6.2831853071796004 $167 $397 forward 7 unknown #
vertex $-1 $170 $398 #
ellipse-curve $-1 70.055723179138397 0.087415447420845283 12.831600729895019 0.51503808176128008 0 0.85716729658548041 0.4285836482927402 0 -0.25751904088064004 1 I I #
coedge $-1 $274 $274 $-1 $399 reversed $173 $-1 #
edge $-1 $400 0 $400 6.2831853071796004 $174 $401 forward 7 unknown #
vertex $-1 $177 $402 #
ellipse-curve $-1 70.055723179138397 3.288722142444847 12.831600729895019 0.51503808176128008 0 0.85716729658548041 0.4285836482927402 0 -0.25751904088064004 1 I I #
face $-1 $-1 $290 $37 $-1 $403 forward single #
loop $-1 $-1 $404 $178 #
plane-surface $-1 -76.478164006469925 0 0 1 0 0 0 0 -1 forward_v I I I I #
coedge $-1 $405 $406 $407 $408 reversed $179 $-1 #
coedge $-1 $409 $181 $183 $288 forward $112 $-1 #
coedge $-1 $181 $409 $405 $410 forward $112 $-1 #
coedge $-1 $407 $184 $181 $285 forward $290 $-1 #
edge $-1 $292 -2.2755108885214597 $411 6.4799016719099356 $284 $412 forward 7 unknown #
coedge $-1 $413 $414 $182 $287 forward $279 $-1 #
edge $-1 $415 -38.963963560660353 $291 -34.250915996316479 $286 $416 forward 7 unknown #
edge $-1 $292 -5.8256471117883413 $415 2.4161062406544664e-014 $183 $417 forward 7 unknown #
coedge $-1 $184 $407 $413 $418 forward $290 $-1 #
loop $-1 $-1 $407 $278 #
vertex $-1 $287 $419 #
vertex $-1 $185 $420 #
straight-curve $-1 -100.11121700894327 -0.17331549682722169 16.690592570940197 1 0 0 I I #
coedge $-1 $294 $294 $-1 $421 reversed $188 $-1 #
edge $-1 $422 0 $422 6.2831853071796004 $189 $423 forward 7 unknown #
vertex $-1 $192 $424 #
ellipse-curve $-1 -74.766049310595221 2.3282309490103188 14.334068788768267 -0.80901700255871778 0 0.5877852410284794 0.5877852410284794 0 0.80901700255871778 1 I I #
coedge $-1 $298 $298 $-1 $425 reversed $195 $-1 #
edge $-1 $426 0 $426 6.2831853071796004 $196 $427 forward 7 unknown #
vertex $-1 $199 $428 #
ellipse-curve $-1 -74.766049310595221 6.0805506177666331 14.334068788768267 -0.80901700255871778 0 0.5877852410284794 0.5877852410284794 0 0.80901700255871778 1 I I #
face $-1 $-1 $215 $30 $-1 $429 reversed single #
loop $-1 $-1 $318 $200 #
plane-surface $-1 0 43.026115127331458 0 0 -1 0 0 0 -1 forward_v I I I I #
coedge $-1 $430 $316 $319 $431 forward $201 $-1 #
coedge $-1 $322 $203 $204 $310 reversed $126 $-1 #
coedge $-1 $316 $430 $203 $308 reversed $201 $-1 #
edge $-1 $323 -16.690592570940197 $432 16.690592570940197 $307 $433 forward 7 unknown #
coedge $-1 $205 $204 $430 $434 forward $81 $-1 #
edge $-1 $314 -76.478164006469925 $432 76.478164006469925 $306 $435 forward 7 unknown #
coedge $-1 $319 $318 $205 $312 reversed $303 $-1 #
edge $-1 $436 -76.478164006469925 $313 76.478164006469925 $311 $437 forward 7 unknown #
vertex $-1 $207 $438 #
vertex $-1 $325 $439 #
straight-curve $-1 76.478164006469925 0 -16.690592570940197 0 -1 0 I I #
coedge $-1 $305 $307 $208 $317 reversed $201 $-1 #
edge $-1 $320 -43.026115127331458 $323 43.026115127331458 $316 $440 forward 7 unknown #
coedge $-1 $311 $209 $214 $326 forward $303 $-1 #
coedge $-1 $209 $311 $305 $431 reversed $303 $-1 #
vertex $-1 $210 $441 #
straight-curve $-1 0 43.026115127331458 16.690592570940197 -1 0 0 I I #
coedge $-1 $211 $306 $213 $325 reversed $126 $-1 #
vertex $-1 $317 $442 #
straight-curve $-1 0 -43.026115127331458 16.690592570940197 1 0 0 I I #
edge $-1 $216 -16.690592570940197 $314 16.690592570940197 $213 $443 forward 7 unknown #
edge $-1 $217 -16.690592570940197 $313 16.690592570940197 $214 $444 forward 7 unknown #
point $-1 76.478164006469925 -43.026115127331458 16.690592570940197 #
point $-1 76.478164006469925 43.026115127331458 16.690592570940197 #
face $-1 $-1 $343 $31 $-1 $445 reversed single #
loop $-1 $-1 $446 $219 #
plane-surface $-1 0 -54.455078234344938 -14.336937335717462 0 1 0 0 0 1 forward_v I I I I #
coedge $-1 $447 $222 $231 $347 reversed $134 $-1 #
coedge $-1 $222 $447 $223 $335 reversed $134 $-1 #
coedge $-1 $224 $223 $448 $449 forward $85 $-1 #
edge $-1 $339 43.026115127331458 $450 54.455078234344938 $333 $451 forward 7 unknown #
coedge $-1 $452 $228 $224 $337 reversed $343 $-1 #
edge $-1 $453 -54.455078234344938 $338 -43.026115127331458 $336 $454 forward 7 unknown #
vertex $-1 $229 $455 #
vertex $-1 $335 $456 #
straight-curve $-1 0 -43.026115127331458 -16.690592570940197 1 0 0 I I #
straight-curve $-1 76.478164006469925 -43.026115127331458 0 0 0 1 I I #
coedge $-1 $228 $452 $230 $346 reversed $343 $-1 #
loop $-1 $-1 $228 $329 #
straight-curve $-1 -76.478164006469925 -43.026115127331458 0 0 0 -1 I I #
coedge $-1 $231 $230 $457 $458 forward $220 $-1 #
edge $-1 $232 -5.7144815535067437 $459 5.7144815535067437 $342 $460 forward 7 unknown #
edge $-1 $461 -5.7144815535067437 $233 5.7144815535067437 $332 $462 forward 7 unknown #
point $-1 -76.478164006469925 -43.026115127331451 -11.983282100494726 #
point $-1 76.478164006469925 -43.026115127331451 -11.983282100494726 #
face $-1 $-1 $364 $32 $-1 $463 reversed single #
loop $-1 $-1 $356 $235 #
plane-surface $-1 -76.478164006469925 0 0 1 0 0 0 0 -1 forward_v I I I I #
coedge $-1 $464 $465 $238 $355 forward $236 $-1 #
coedge $-1 $239 $238 $246 $369 reversed $89 $-1 #
edge $-1 $466 -76.478164006469925 $358 76.478164006469925 $353 $467 forward 7 unknown #
coedge $-1 $468 $240 $242 $361 forward $351 $-1 #
coedge $-1 $240 $468 $464 $469 reversed $351 $-1 #
vertex $-1 $469 $470 #
vertex $-1 $361 $471 #
straight-curve $-1 -76.478164006469925 23.42616283582678 -6.4812748924915802 0 0 1 I I #
edge $-1 $359 6.8130933450372204 $365 26.413045636541899 $356 $472 forward 7 unknown #
coedge $-1 $473 $243 $247 $370 forward $364 $-1 #
coedge $-1 $243 $473 $468 $474 reversed $364 $-1 #
loop $-1 $-1 $243 $350 #
vertex $-1 $474 $475 #
straight-curve $-1 0 43.026115127331458 -9.2345069990261237 1 0 0 I I #
straight-curve $-1 0 23.42616283582678 -9.2345069990261237 1 0 0 I I #
coedge $-1 $247 $246 $465 $476 reversed $142 $-1 #
edge $-1 $249 2.7532321065345435 $466 10.209317678448617 $246 $477 forward 7 unknown #
edge $-1 $248 9.2345069990261237 $478 16.690592570940197 $247 $479 forward 7 unknown #
point $-1 76.478164006469925 43.026115127331458 -9.2345069990261237 #
point $-1 76.478164006469925 23.42616283582678 -9.2345069990261237 #
loop $-1 $-1 $259 $251 #
plane-surface $-1 76.478164006469925 0 0 -1 0 0 0 0 1 forward_v I I I I #
coedge $-1 $376 $254 $256 $380 reversed $150 $-1 #
coedge $-1 $254 $375 $480 $481 reversed $150 $-1 #
coedge $-1 $262 $257 $254 $378 forward $252 $-1 #
edge $-1 $381 51.559614551301969 $482 64.404496205964932 $377 $483 forward 7 unknown #
coedge $-1 $256 $255 $384 $484 reversed $93 $-1 #
edge $-1 $485 -152.95632801293985 $381 -137.97106001936328 $375 $486 forward 7 unknown #
vertex $-1 $258 $487 #
straight-curve $-1 63.633282351806969 0.043707723710422641 16.690592570940197 0 -1 0 I I #
coedge $-1 $480 $259 $262 $388 reversed $373 $-1 #
coedge $-1 $259 $480 $379 $484 forward $373 $-1 #
vertex $-1 $260 $488 #
straight-curve $-1 76.478164006469925 5.4229266057941814 109.43005242018857 0 0 1 I I #
straight-curve $-1 -54.630998172023723 5.4229266057941814 87.750942661883499 0.85716729658548041 0 -0.51503808176128008 I I #
edge $-1 $482 -5.2480957109524908 $263 5.4229266057941814 $383 $489 forward 7 unknown #
point $-1 76.478164006469925 5.4229266057941814 16.690592570940197 #
point $-1 63.633282351806955 5.4229266057941814 16.690592570940197 #
edge $-1 $490 1 $490 0 $266 $-1 forward 7 unknown #
vertex $-1 $267 $491 #
ellipse-curve $-1 69.540685097377107 -3.1138912476031564 11.974433433309526 0.51503808176128008 0 0.85716729658548041 0.4285836482927402 0 -0.25751904088064004 1 I I #
point $-1 70.484306827431126 -3.1138912476031564 12.574081689014367 #
edge $-1 $492 1 $492 0 $270 $-1 forward 7 unknown #
vertex $-1 $271 $493 #
ellipse-curve $-1 69.540685097377107 0.087415447420845283 11.974433433309526 0.51503808176128008 0 0.85716729658548041 0.4285836482927402 0 -0.25751904088064004 1 I I #
point $-1 70.484306827431126 0.087415447420845283 12.574081689014367 #
edge $-1 $494 1 $494 0 $274 $-1 forward 7 unknown #
vertex $-1 $275 $495 #
ellipse-curve $-1 69.540685097377107 3.288722142444847 11.974433433309526 0.51503808176128008 0 0.85716729658548041 0.4285836482927402 0 -0.25751904088064004 1 I I #
point $-1 70.484306827431126 3.288722142444847 12.574081689014367 #
plane-surface $-1 0 0 16.690592570940197 0 0 1 1 0 0 forward_v I I I I #
coedge $-1 $414 $413 $406 $496 forward $279 $-1 #
coedge $-1 $406 $281 $283 $410 reversed $179 $-1 #
coedge $-1 $281 $405 $404 $496 reversed $179 $-1 #
coedge $-1 $289 $284 $281 $408 forward $290 $-1 #
edge $-1 $411 -27.057282394222739 $497 -23.633053002473346 $407 $498 forward 7 unknown #
coedge $-1 $283 $282 $414 $499 reversed $112 $-1 #
edge $-1 $500 -2.4161062406544664e-014 $411 5.8256471117883413 $405 $501 forward 7 unknown #
vertex $-1 $285 $502 #
straight-curve $-1 -73.053934614720532 2.102195391694238 16.690592570940197 0 1 0 I I #
coedge $-1 $404 $286 $289 $418 reversed $279 $-1 #
coedge $-1 $286 $404 $409 $499 forward $279 $-1 #
vertex $-1 $287 $503 #
straight-curve $-1 -76.478164006469925 -0.17331549682722169 50.941508567256676 0 0 1 I I #
straight-curve $-1 -76.47816400646991 -0.17331549682722169 11.977545006596344 -0.5877852410284794 0 -0.80901700255871778 I I #
edge $-1 $497 -8.5820970636041736 $291 0.17331549682722169 $413 $504 forward 7 unknown #
point $-1 -76.478164006469925 -0.17331549682722169 16.690592570940197 #
point $-1 -73.053934614720532 -0.17331549682722169 16.690592570940197 #
edge $-1 $505 1 $505 0 $294 $-1 forward 7 unknown #
vertex $-1 $295 $506 #
ellipse-curve $-1 -71.554868813363655 2.3282309490103188 12.001009660738122 -0.80901700255871778 0 0.5877852410284794 0.5877852410284794 0 0.80901700255871778 1 I I #
point $-1 -74.178264069566751 2.3282309490103188 15.143085791326993 #
edge $-1 $507 1 $507 0 $298 $-1 forward 7 unknown #
vertex $-1 $299 $508 #
ellipse-curve $-1 -71.554868813363655 6.0805506177666331 12.001009660738122 -0.80901700255871778 0 0.5877852410284794 0.5877852410284794 0 0.80901700255871778 1 I I #
point $-1 -74.178264069566751 6.0805506177666331 15.143085791326993 #
plane-surface $-1 76.478164006469925 0 0 -1 0 0 0 0 1 forward_v I I I I #
coedge $-1 $307 $305 $309 $434 reversed $201 $-1 #
edge $-1 $320 -16.690592570940197 $436 16.690592570940197 $319 $509 forward 7 unknown #
vertex $-1 $434 $510 #
straight-curve $-1 -76.478164006469925 -43.026115127331458 0 0 0 -1 I I #
edge $-1 $432 -43.026115127331458 $436 43.026115127331458 $430 $511 forward 7 unknown #
straight-curve $-1 0 -43.026115127331458 -16.690592570940197 -1 0 0 I I #
vertex $-1 $312 $512 #
straight-curve $-1 0 43.026115127331458 -16.690592570940197 1 0 0 I I #
point $-1 76.478164006469925 43.026115127331458 -16.690592570940197 #
point $-1 76.478164006469925 -43.026115127331458 -16.690592570940197 #
straight-curve $-1 -76.478164006469925 0 16.690592570940197 0 -1 0 I I #
point $-1 -76.478164006469925 43.026115127331458 16.690592570940197 #
point $-1 -76.478164006469925 -43.026115127331458 16.690592570940197 #
straight-curve $-1 76.478164006469925 -43.026115127331458 0 0 0 -1 I I #
straight-curve $-1 76.478164006469925 43.026115127331458 0 0 0 -1 I I #
plane-surface $-1 -76.478164006469925 0 0 1 0 0 0 0 -1 forward_v I I I I #
coedge $-1 $448 $457 $452 $513 forward $330 $-1 #
coedge $-1 $333 $332 $514 $515 forward $134 $-1 #
coedge $-1 $514 $446 $334 $449 reversed $330 $-1 #
edge $-1 $450 -76.478164006469925 $453 76.478164006469925 $448 $516 forward 7 unknown #
vertex $-1 $515 $517 #
straight-curve $-1 76.478164006469925 0 -16.690592570940197 0 -1 0 I I #
coedge $-1 $342 $336 $446 $513 reversed $343 $-1 #
vertex $-1 $337 $518 #
straight-curve $-1 -76.478164006469925 0 -16.690592570940197 0 1 0 I I #
point $-1 -76.478164006469925 -43.026115127331458 -16.690592570940197 #
point $-1 76.478164006469925 -43.026115127331458 -16.690592570940197 #
coedge $-1 $446 $514 $345 $458 reversed $330 $-1 #
edge $-1 $459 -76.478164006469925 $461 76.478164006469925 $457 $519 forward 7 unknown #
vertex $-1 $346 $520 #
straight-curve $-1 -76.478164006469925 -48.740596680838195 -11.983282100494726 0 -1 0 I I #
vertex $-1 $347 $521 #
straight-curve $-1 76.478164006469925 -48.740596680838195 -11.983282100494726 0 1 0 I I #
plane-surface $-1 0 43.026115127331458 0 0 -1 0 0 0 -1 forward_v I I I I #
coedge $-1 $522 $353 $357 $469 forward $236 $-1 #
coedge $-1 $353 $522 $368 $476 forward $236 $-1 #
vertex $-1 $355 $523 #
straight-curve $-1 0 23.42616283582678 -16.690592570940197 -1 0 0 I I #
coedge $-1 $357 $356 $363 $474 forward $351 $-1 #
edge $-1 $358 23.42616283582678 $524 43.026115127331458 $357 $525 forward 7 unknown #
point $-1 -76.478164006469925 23.42616283582678 -16.690592570940197 #
point $-1 -76.478164006469925 23.42616283582678 -9.2345069990261237 #
straight-curve $-1 -76.478164006469925 16.61306949078956 -9.2345069990261237 0 1 0 I I #
coedge $-1 $363 $362 $522 $526 reversed $364 $-1 #
edge $-1 $365 9.2345069990261237 $524 16.690592570940197 $363 $527 forward 7 unknown #
point $-1 -76.478164006469925 43.026115127331458 -9.2345069990261237 #
edge $-1 $478 -43.026115127331458 $466 -23.42616283582678 $368 $528 forward 7 unknown #
straight-curve $-1 76.478164006469925 23.42616283582678 -6.4812748924915802 0 0 -1 I I #
vertex $-1 $476 $529 #
straight-curve $-1 76.478164006469925 43.026115127331458 0 0 0 -1 I I #
coedge $-1 $384 $383 $376 $481 forward $373 $-1 #
edge $-1 $482 92.739459849248377 $485 100.45744353133877 $480 $530 forward 7 unknown #
vertex $-1 $388 $531 #
straight-curve $-1 12.073667800504985 -5.2480957109524908 16.690592570940197 1 0 0 I I #
edge $-1 $485 -5.2918034346629135 $385 5.3792188820837588 $384 $532 forward 7 unknown #
vertex $-1 $484 $533 #
straight-curve $-1 -54.630998172023723 -5.2480957109524908 87.750942661883499 -0.85716729658548041 0 0.51503808176128008 I I #
point $-1 63.633282351806955 -5.2480957109524908 16.690592570940197 #
point $-1 76.478164006469925 5.4229266057941814 8.9726088888498055 #
straight-curve $-1 76.478164006469925 0 16.690592570940197 0 1 0 I I #
vertex $-1 $391 $534 #
point $-1 69.969268745669837 -3.1138912476031564 11.716914392428887 #
vertex $-1 $395 $535 #
point $-1 69.969268745669837 0.087415447420845283 11.716914392428887 #
vertex $-1 $399 $536 #
point $-1 69.969268745669837 3.288722142444847 11.716914392428887 #
edge $-1 $497 34.250915996316479 $500 38.963963560660353 $404 $537 forward 7 unknown #
vertex $-1 $418 $538 #
straight-curve $-1 -100.11121700894327 8.5820970636041736 16.690592570940197 -1 0 0 I I #
edge $-1 $500 -6.4799016719099356 $415 2.2755108885214597 $414 $539 forward 7 unknown #
vertex $-1 $499 $540 #
straight-curve $-1 -76.47816400646991 8.5820970636041736 11.977545006596344 0.5877852410284794 0 0.80901700255871778 I I #
point $-1 -73.053934614720532 8.5820970636041736 16.690592570940197 #
point $-1 -76.478164006469925 -0.17331549682722169 11.977545006596324 #
straight-curve $-1 -76.478164006469925 0 16.690592570940197 0 -1 0 I I #
vertex $-1 $421 $541 #
point $-1 -70.967083572335184 2.3282309490103188 12.810026663296838 #
vertex $-1 $425 $542 #
point $-1 -70.967083572335184 6.0805506177666331 12.810026663296838 #
straight-curve $-1 -76.478164006469925 43.026115127331458 0 0 0 -1 I I #
point $-1 -76.478164006469925 -43.026115127331458 -16.690592570940197 #
straight-curve $-1 -76.478164006469925 0 -16.690592570940197 0 1 0 I I #
point $-1 -76.478164006469925 43.026115127331458 -16.690592570940197 #
edge $-1 $459 -2.3536552352227353 $453 2.3536552352227353 $452 $543 forward 7 unknown #
coedge $-1 $457 $448 $447 $515 reversed $330 $-1 #
edge $-1 $461 -2.3536552352227353 $450 2.3536552352227353 $447 $544 forward 7 unknown #
straight-curve $-1 0 -54.455078234344938 -16.690592570940197 -1 0 0 I I #
point $-1 76.478164006469925 -54.455078234344938 -16.690592570940197 #
point $-1 -76.478164006469925 -54.455078234344938 -16.690592570940197 #
straight-curve $-1 0 -54.455078234344938 -11.983282100494726 1 0 0 I I #
point $-1 -76.478164006469925 -54.455078234344938 -11.983282100494726 #
point $-1 76.478164006469925 -54.455078234344938 -11.983282100494726 #
coedge $-1 $465 $464 $473 $526 forward $236 $-1 #
point $-1 76.478164006469925 23.42616283582678 -16.690592570940197 #
vertex $-1 $526 $545 #
straight-curve $-1 -76.478164006469925 0 -16.690592570940197 0 1 0 I I #
edge $-1 $524 -76.478164006469925 $478 76.478164006469925 $473 $546 forward 7 unknown #
straight-curve $-1 -76.478164006469925 43.026115127331458 0 0 0 -1 I I #
straight-curve $-1 76.478164006469925 0 -16.690592570940197 0 -1 0 I I #
point $-1 76.478164006469925 43.026115127331458 -16.690592570940197 #
straight-curve $-1 76.478164006469925 -5.2480957109524908 109.43005242018857 0 0 -1 I I #
point $-1 76.478164006469925 -5.2480957109524908 16.690592570940197 #
straight-curve $-1 76.47816400646991 0.043707723710422641 8.9726088888498055 0 1 0 I I #
point $-1 76.478164006469925 -5.2480957109524908 8.9726088888498055 #
point $-1 69.283166056496455 -3.1138912476031564 11.545849785016786 #
point $-1 69.283166056496455 0.087415447420845283 11.545849785016786 #
point $-1 69.283166056496455 3.288722142444847 11.545849785016786 #
straight-curve $-1 -76.478164006469925 8.5820970636041736 50.941508567256676 0 0 -1 I I #
point $-1 -76.478164006469925 8.5820970636041736 16.690592570940197 #
straight-curve $-1 -76.478164006469925 2.102195391694238 11.977545006596319 0 -1 0 I I #
point $-1 -76.478164006469925 8.5820970636041736 11.977545006596324 #
point $-1 -70.74585181080495 2.3282309490103188 11.413224419709641 #
point $-1 -70.74585181080495 6.0805506177666331 11.413224419709641 #
straight-curve $-1 -76.478164006469925 -54.455078234344938 -14.336937335717462 0 0 -1 I I #
straight-curve $-1 76.478164006469925 -54.455078234344938 -14.336937335717462 0 0 -1 I I #
point $-1 -76.478164006469925 43.026115127331458 -16.690592570940197 #
straight-curve $-1 0 43.026115127331458 -16.690592570940197 1 0 0 I I #
End-of-ACIS-data 