500 0 2 0           
7 Unknown 11 ACIS 5.0 NT 24 Fri Mar 26 00:53:06 1999 
-1 9.9999999999999995e-007 1e-010 
body $-1 $2 $-1 $3 #
body $-1 $4 $-1 $5 #
lump $-1 $-1 $6 $0 #
transform $-1 1 0 0 0 1 0 0 0 1 47.181615649891661 30.558832802910114 15.052512381528057 1 rotate no_reflect no_shear #
lump $-1 $-1 $7 $1 #
transform $-1 1 0 0 0 1 0 0 0 1 47.181615649891661 30.558832802910114 15.052512381528057 1 rotate no_reflect no_shear #
shell $-1 $-1 $-1 $8 $-1 $2 #
shell $-1 $-1 $-1 $9 $-1 $4 #
face $-1 $10 $11 $6 $-1 $12 forward single #
face $-1 $13 $14 $7 $-1 $15 forward single #
face $-1 $16 $17 $6 $-1 $18 reversed single #
loop $-1 $-1 $19 $8 #
plane-surface $-1 0 0 15.052512381528057 0 0 1 1 0 0 forward_v I I I I #
face $-1 $20 $21 $7 $-1 $22 reversed single #
loop $-1 $-1 $23 $9 #
plane-surface $-1 -55.065944957695081 0 -7.4605188781691423 0 0 1 1 0 0 forward_v I I I I #
face $-1 $24 $25 $6 $-1 $26 reversed single #
loop $-1 $-1 $27 $10 #
plane-surface $-1 0 0 -15.052512381528057 0 0 1 1 0 0 forward_v I I I I #
coedge $-1 $28 $29 $30 $31 forward $11 $-1 #
face $-1 $32 $33 $7 $-1 $34 forward single #
loop $-1 $-1 $35 $13 #
plane-surface $-1 -62.9502742654985 0 -11.2565156298486 1 0 0 0 0 -1 forward_v I I I I #
coedge $-1 $36 $37 $38 $39 reversed $14 $-1 #
face $-1 $40 $41 $6 $-1 $42 reversed single #
loop $-1 $-1 $43 $16 #
plane-surface $-1 0 -30.558832802910114 0 0 1 0 0 0 1 forward_v I I I I #
coedge $-1 $44 $45 $46 $47 forward $17 $-1 #
coedge $-1 $48 $19 $49 $50 forward $11 $-1 #
coedge $-1 $19 $48 $51 $52 forward $11 $-1 #
coedge $-1 $53 $54 $19 $31 reversed $55 $-1 #
edge $-1 $56 -30.558832802910114 $57 30.558832802910114 $30 $58 forward 7 unknown #
face $-1 $59 $60 $7 $-1 $61 reversed single #
loop $-1 $-1 $62 $20 #
plane-surface $-1 0 0 15.052512381528057 0 0 1 1 0 0 forward_v I I I I #
coedge $-1 $63 $64 $65 $66 forward $21 $-1 #
coedge $-1 $67 $23 $68 $69 forward $14 $-1 #
coedge $-1 $23 $67 $70 $71 forward $14 $-1 #
coedge $-1 $72 $73 $23 $39 forward $74 $-1 #
edge $-1 $75 -30.558832802910114 $76 30.558832802910114 $38 $77 forward 7 unknown #
face $-1 $78 $79 $6 $-1 $80 reversed single #
loop $-1 $-1 $81 $24 #
plane-surface $-1 -47.181615649891661 0 0 1 0 0 0 0 -1 forward_v I I I I #
coedge $-1 $82 $51 $83 $84 forward $25 $-1 #
coedge $-1 $85 $27 $82 $86 forward $17 $-1 #
coedge $-1 $27 $85 $87 $88 forward $17 $-1 #
coedge $-1 $54 $53 $27 $47 reversed $55 $-1 #
edge $-1 $89 -30.558832802910114 $90 30.558832802910114 $46 $91 forward 7 unknown #
coedge $-1 $29 $28 $92 $93 forward $11 $-1 #
coedge $-1 $94 $95 $28 $50 reversed $79 $-1 #
edge $-1 $57 -47.181615649891661 $96 47.181615649891661 $49 $97 forward 7 unknown #
coedge $-1 $43 $98 $29 $52 reversed $25 $-1 #
edge $-1 $99 -47.181615649891661 $56 47.181615649891661 $51 $100 forward 7 unknown #
coedge $-1 $46 $30 $98 $101 forward $55 $-1 #
coedge $-1 $30 $46 $94 $102 reversed $55 $-1 #
loop $-1 $-1 $53 $78 #
vertex $-1 $31 $103 #
vertex $-1 $31 $104 #
straight-curve $-1 47.181615649891661 0 15.052512381528057 0 1 0 I I #
face $-1 $105 $106 $7 $-1 $107 reversed single #
loop $-1 $-1 $108 $32 #
plane-surface $-1 0 0 -15.052512381528057 0 0 1 1 0 0 forward_v I I I I #
coedge $-1 $109 $110 $111 $112 forward $33 $-1 #
coedge $-1 $113 $35 $114 $115 reversed $21 $-1 #
coedge $-1 $35 $113 $67 $116 reversed $21 $-1 #
coedge $-1 $68 $117 $35 $66 reversed $118 $-1 #
edge $-1 $119 -3.7959967516794579 $120 3.795996751679457 $65 $121 forward 7 unknown #
coedge $-1 $37 $36 $64 $116 forward $14 $-1 #
coedge $-1 $122 $65 $36 $69 reversed $118 $-1 #
edge $-1 $75 -7.8843293078034193 $119 7.8843293078034193 $68 $123 forward 7 unknown #
coedge $-1 $124 $125 $37 $71 reversed $106 $-1 #
edge $-1 $126 -7.8843293078034193 $76 7.8843293078034193 $70 $127 forward 7 unknown #
coedge $-1 $128 $38 $125 $129 reversed $74 $-1 #
coedge $-1 $38 $128 $122 $130 forward $74 $-1 #
loop $-1 $-1 $38 $105 #
vertex $-1 $130 $131 #
vertex $-1 $71 $132 #
straight-curve $-1 -47.181615649891661 0 -7.4605188781691423 0 -1 0 I I #
face $-1 $-1 $55 $6 $-1 $133 reversed single #
loop $-1 $-1 $94 $40 #
plane-surface $-1 0 30.558832802910114 0 0 -1 0 0 0 -1 forward_v I I I I #
coedge $-1 $134 $92 $95 $135 forward $41 $-1 #
coedge $-1 $98 $43 $44 $86 reversed $25 $-1 #
coedge $-1 $92 $134 $43 $84 reversed $41 $-1 #
edge $-1 $99 -15.052512381528057 $136 15.052512381528057 $83 $137 forward 7 unknown #
coedge $-1 $45 $44 $134 $138 forward $17 $-1 #
edge $-1 $90 -47.181615649891661 $136 47.181615649891661 $82 $139 forward 7 unknown #
coedge $-1 $95 $94 $45 $88 reversed $79 $-1 #
edge $-1 $140 -47.181615649891661 $89 47.181615649891661 $87 $141 forward 7 unknown #
vertex $-1 $47 $142 #
vertex $-1 $101 $143 #
straight-curve $-1 47.181615649891661 0 -15.052512381528057 0 -1 0 I I #
coedge $-1 $81 $83 $48 $93 reversed $41 $-1 #
edge $-1 $96 -30.558832802910114 $99 30.558832802910114 $92 $144 forward 7 unknown #
coedge $-1 $87 $49 $54 $102 forward $79 $-1 #
coedge $-1 $49 $87 $81 $135 reversed $79 $-1 #
vertex $-1 $50 $145 #
straight-curve $-1 0 30.558832802910114 15.052512381528057 -1 0 0 I I #
coedge $-1 $51 $82 $53 $101 reversed $25 $-1 #
vertex $-1 $93 $146 #
straight-curve $-1 0 -30.558832802910114 15.052512381528057 1 0 0 I I #
edge $-1 $56 -15.052512381528057 $90 15.052512381528057 $53 $147 forward 7 unknown #
edge $-1 $57 -15.052512381528057 $89 15.052512381528057 $54 $148 forward 7 unknown #
point $-1 47.181615649891661 -30.558832802910114 15.052512381528057 #
point $-1 47.181615649891661 30.558832802910114 15.052512381528057 #
face $-1 $149 $74 $7 $-1 $150 reversed single #
loop $-1 $-1 $125 $59 #
plane-surface $-1 0 -30.558832802910114 0 0 1 0 0 0 1 forward_v I I I I #
coedge $-1 $151 $152 $153 $154 forward $60 $-1 #
coedge $-1 $155 $62 $156 $157 forward $33 $-1 #
coedge $-1 $62 $155 $158 $159 forward $33 $-1 #
coedge $-1 $160 $161 $62 $112 reversed $162 $-1 #
edge $-1 $163 -30.558832802910114 $164 30.558832802910114 $111 $165 forward 7 unknown #
coedge $-1 $64 $63 $124 $166 reversed $21 $-1 #
coedge $-1 $152 $151 $63 $115 forward $60 $-1 #
edge $-1 $167 -30.558832802910114 $120 30.558832802910114 $63 $168 forward 7 unknown #
edge $-1 $119 -30.558832802910114 $126 30.558832802910114 $64 $169 forward 7 unknown #
coedge $-1 $65 $170 $152 $171 reversed $118 $-1 #
loop $-1 $-1 $170 $149 #
vertex $-1 $69 $172 #
vertex $-1 $171 $173 #
straight-curve $-1 -62.9502742654985 30.558832802910114 -11.2565156298486 0 0 -1 I I #
coedge $-1 $156 $68 $73 $130 reversed $118 $-1 #
straight-curve $-1 -55.065944957695081 30.558832802910114 -7.4605188781691423 -1 0 0 I I #
coedge $-1 $174 $70 $113 $166 forward $106 $-1 #
coedge $-1 $70 $158 $72 $129 forward $106 $-1 #
vertex $-1 $116 $175 #
straight-curve $-1 -55.065944957695081 -30.558832802910114 -7.4605188781691423 1 0 0 I I #
coedge $-1 $73 $72 $155 $176 reversed $74 $-1 #
edge $-1 $177 -15.052512381528057 $76 7.4605188781691423 $72 $178 forward 7 unknown #
edge $-1 $179 -15.052512381528057 $75 7.4605188781691423 $122 $180 forward 7 unknown #
point $-1 -47.181615649891661 30.558832802910114 -7.4605188781691423 #
point $-1 -47.181615649891661 -30.558832802910114 -7.4605188781691423 #
plane-surface $-1 47.181615649891661 0 0 -1 0 0 0 0 1 forward_v I I I I #
coedge $-1 $83 $81 $85 $138 reversed $41 $-1 #
edge $-1 $96 -15.052512381528057 $140 15.052512381528057 $95 $181 forward 7 unknown #
vertex $-1 $138 $182 #
straight-curve $-1 -47.181615649891661 -30.558832802910114 0 0 0 -1 I I #
edge $-1 $136 -30.558832802910114 $140 30.558832802910114 $134 $183 forward 7 unknown #
straight-curve $-1 0 -30.558832802910114 -15.052512381528057 -1 0 0 I I #
vertex $-1 $88 $184 #
straight-curve $-1 0 30.558832802910114 -15.052512381528057 1 0 0 I I #
point $-1 47.181615649891661 30.558832802910114 -15.052512381528057 #
point $-1 47.181615649891661 -30.558832802910114 -15.052512381528057 #
straight-curve $-1 -47.181615649891661 0 15.052512381528057 0 -1 0 I I #
point $-1 -47.181615649891661 30.558832802910114 15.052512381528057 #
point $-1 -47.181615649891661 -30.558832802910114 15.052512381528057 #
straight-curve $-1 47.181615649891661 -30.558832802910114 0 0 0 -1 I I #
straight-curve $-1 47.181615649891661 30.558832802910114 0 0 0 -1 I I #
face $-1 $185 $118 $7 $-1 $186 reversed single #
plane-surface $-1 -47.181615649891661 0 0 1 0 0 0 0 -1 forward_v I I I I #
coedge $-1 $114 $108 $174 $187 forward $60 $-1 #
coedge $-1 $108 $114 $117 $171 forward $60 $-1 #
coedge $-1 $161 $160 $108 $154 reversed $162 $-1 #
edge $-1 $188 -30.558832802910114 $189 30.558832802910114 $153 $190 forward 7 unknown #
coedge $-1 $110 $109 $128 $176 forward $33 $-1 #
coedge $-1 $170 $122 $109 $157 reversed $118 $-1 #
edge $-1 $164 -47.181615649891661 $179 47.181615649891661 $156 $191 forward 7 unknown #
coedge $-1 $125 $192 $110 $159 reversed $106 $-1 #
edge $-1 $177 -47.181615649891661 $163 47.181615649891661 $158 $193 forward 7 unknown #
coedge $-1 $153 $111 $192 $194 forward $162 $-1 #
coedge $-1 $111 $153 $170 $195 reversed $162 $-1 #
loop $-1 $-1 $160 $185 #
vertex $-1 $112 $196 #
vertex $-1 $112 $197 #
straight-curve $-1 47.181615649891661 0 15.052512381528057 0 1 0 I I #
edge $-1 $126 -3.7959967516794579 $167 3.795996751679457 $113 $198 forward 7 unknown #
vertex $-1 $115 $199 #
straight-curve $-1 -62.9502742654985 0 -15.052512381528057 0 1 0 I I #
straight-curve $-1 -62.9502742654985 0 -7.4605188781691423 0 -1 0 I I #
coedge $-1 $117 $156 $161 $195 forward $118 $-1 #
edge $-1 $120 -62.9502742654985 $188 47.181615649891661 $117 $200 forward 7 unknown #
point $-1 -62.9502742654985 30.558832802910114 -7.4605188781691423 #
point $-1 -62.9502742654985 30.558832802910114 -15.052512381528057 #
coedge $-1 $192 $124 $151 $187 reversed $106 $-1 #
point $-1 -62.9502742654985 -30.558832802910114 -7.4605188781691423 #
edge $-1 $179 -30.558832802910114 $177 30.558832802910114 $128 $201 forward 7 unknown #
vertex $-1 $176 $202 #
straight-curve $-1 -47.181615649891661 -30.558832802910114 0 0 0 -1 I I #
vertex $-1 $157 $203 #
straight-curve $-1 -47.181615649891661 30.558832802910114 0 0 0 -1 I I #
straight-curve $-1 -47.181615649891661 30.558832802910114 0 0 0 -1 I I #
point $-1 -47.181615649891661 -30.558832802910114 -15.052512381528057 #
straight-curve $-1 -47.181615649891661 0 -15.052512381528057 0 1 0 I I #
point $-1 -47.181615649891661 30.558832802910114 -15.052512381528057 #
face $-1 $-1 $162 $7 $-1 $204 reversed single #
plane-surface $-1 0 30.558832802910114 0 0 -1 0 0 0 -1 forward_v I I I I #
edge $-1 $189 -102.24756060758673 $167 7.8843293078034193 $174 $205 forward 7 unknown #
vertex $-1 $154 $206 #
vertex $-1 $194 $207 #
straight-curve $-1 47.181615649891661 0 -15.052512381528057 0 -1 0 I I #
straight-curve $-1 0 30.558832802910114 15.052512381528057 -1 0 0 I I #
coedge $-1 $158 $174 $160 $194 reversed $106 $-1 #
straight-curve $-1 0 -30.558832802910114 15.052512381528057 1 0 0 I I #
edge $-1 $163 -15.052512381528057 $189 15.052512381528057 $160 $208 forward 7 unknown #
edge $-1 $164 -15.052512381528057 $188 15.052512381528057 $161 $209 forward 7 unknown #
point $-1 47.181615649891661 -30.558832802910114 15.052512381528057 #
point $-1 47.181615649891661 30.558832802910114 15.052512381528057 #
straight-curve $-1 -62.9502742654985 -30.558832802910114 -11.2565156298486 0 0 -1 I I #
point $-1 -62.9502742654985 -30.558832802910114 -15.052512381528057 #
straight-curve $-1 0 30.558832802910114 -15.052512381528057 1 0 0 I I #
straight-curve $-1 -47.181615649891661 0 15.052512381528057 0 -1 0 I I #
point $-1 -47.181615649891661 -30.558832802910114 15.052512381528057 #
point $-1 -47.181615649891661 30.558832802910114 15.052512381528057 #
plane-surface $-1 47.181615649891661 0 0 -1 0 0 0 0 1 forward_v I I I I #
straight-curve $-1 -55.065944957695081 -30.558832802910114 -15.052512381528057 -1 0 0 I I #
point $-1 47.181615649891661 30.558832802910114 -15.052512381528057 #
point $-1 47.181615649891661 -30.558832802910114 -15.052512381528057 #
straight-curve $-1 47.181615649891661 -30.558832802910114 0 0 0 -1 I I #
straight-curve $-1 47.181615649891661 30.558832802910114 0 0 0 -1 I I #
End-of-ACIS-data 