500 0 8 0           
7 Unknown 11 ACIS 5.0 NT 24 Thu Mar 25 22:00:15 1999 
-1 9.9999999999999995e-007 1e-010 
body $-1 $8 $-1 $9 #
body $-1 $10 $-1 $11 #
body $-1 $12 $-1 $13 #
body $-1 $14 $-1 $15 #
body $-1 $16 $-1 $17 #
body $-1 $18 $-1 $19 #
body $-1 $20 $-1 $21 #
body $-1 $22 $-1 $23 #
lump $-1 $-1 $24 $0 #
transform $-1 1 0 0 0 1 0 0 0 1 47.964110232856228 26.489386407600922 11.799729390666947 1 rotate no_reflect no_shear #
lump $-1 $-1 $25 $1 #
transform $-1 1 0 0 0 1 0 0 0 1 47.964110232856228 26.489386407600922 11.799729390666947 1 rotate no_reflect no_shear #
lump $-1 $-1 $26 $2 #
transform $-1 1 0 0 0 1 0 0 0 1 47.964110232856228 26.489386407600922 11.799729390666947 1 rotate no_reflect no_shear #
lump $-1 $-1 $27 $3 #
transform $-1 1 0 0 0 1 0 0 0 1 47.964110232856228 26.489386407600922 11.799729390666947 1 rotate no_reflect no_shear #
lump $-1 $-1 $28 $4 #
transform $-1 1 0 0 0 1 0 0 0 1 47.964110232856228 26.489386407600922 11.799729390666947 1 rotate no_reflect no_shear #
lump $-1 $-1 $29 $5 #
transform $-1 1 0 0 0 1 0 0 0 1 47.964110232856228 26.489386407600922 11.799729390666947 1 rotate no_reflect no_shear #
lump $-1 $-1 $30 $6 #
transform $-1 1 0 0 0 1 0 0 0 1 47.964110232856228 26.489386407600922 11.799729390666947 1 rotate no_reflect no_shear #
lump $-1 $-1 $31 $7 #
transform $-1 1 0 0 0 1 0 0 0 1 47.964110232856228 26.489386407600922 11.799729390666947 1 rotate no_reflect no_shear #
shell $-1 $-1 $-1 $32 $-1 $8 #
shell $-1 $-1 $-1 $33 $-1 $10 #
shell $-1 $-1 $-1 $34 $-1 $12 #
shell $-1 $-1 $-1 $35 $-1 $14 #
shell $-1 $-1 $-1 $36 $-1 $16 #
shell $-1 $-1 $-1 $37 $-1 $18 #
shell $-1 $-1 $-1 $38 $-1 $20 #
shell $-1 $-1 $-1 $39 $-1 $22 #
face $-1 $40 $41 $24 $-1 $42 forward single #
face $-1 $43 $44 $25 $-1 $45 reversed single #
face $-1 $46 $47 $26 $-1 $48 reversed single #
face $-1 $49 $50 $27 $-1 $51 forward single #
face $-1 $52 $53 $28 $-1 $54 forward single #
face $-1 $55 $56 $29 $-1 $57 reversed single #
face $-1 $58 $59 $30 $-1 $60 forward single #
face $-1 $61 $62 $31 $-1 $63 forward single #
face $-1 $64 $65 $24 $-1 $66 reversed single #
loop $-1 $-1 $67 $32 #
plane-surface $-1 0 0 11.799729390666947 0 0 1 1 0 0 forward_v I I I I #
face $-1 $68 $69 $25 $-1 $70 reversed single #
loop $-1 $-1 $71 $33 #
plane-surface $-1 0 -21.572888912080366 8.7997293906669469 0 0 1 1 0 0 forward_v I I I I #
face $-1 $72 $73 $26 $-1 $74 reversed single #
loop $-1 $-1 $75 $34 #
plane-surface $-1 -129.31585572667271 7.0354930760246468 50.845490086065894 0 1 0 -0.84804810408105047 0 0.52991925155115449 forward_v I I I I #
face $-1 $76 $77 $27 $-1 $78 forward single #
loop $-1 $79 $80 $35 #
cone-surface $-1 -43.856965717492955 8.801606506743223 5.6405447166785976 0.84804810408105047 0 -0.52991925155115449 0.26495962577557725 0 0.42402405204052523 1 I I 0 1 0.5 forward I I I I #
face $-1 $81 $82 $28 $-1 $83 forward single #
loop $-1 $84 $85 $36 #
cone-surface $-1 -43.856965717492955 11.450776652821087 5.6405447166785976 0.84804810408105047 0 -0.52991925155115449 0.26495962577557725 0 0.42402405204052523 1 I I 0 1 0.5 forward I I I I #
face $-1 $86 $87 $29 $-1 $88 reversed single #
loop $-1 $-1 $89 $37 #
plane-surface $-1 -23.324449728392182 23.473916802988075 71.916705536869429 0.66913061440640931 0 0.74314481823134659 0.74314481823134659 0 -0.66913061440640931 forward_v I I I I #
face $-1 $90 $91 $30 $-1 $92 forward single #
loop $-1 $93 $94 $38 #
cone-surface $-1 45.368597248857071 22.181572686725428 9.3923905050846859 -0.66913061440640931 0 -0.74314481823134659 0.3715724091156733 0 -0.33456530720320465 1 I I 0 1 0.5 forward I I I I #
face $-1 $95 $96 $31 $-1 $97 forward single #
loop $-1 $98 $99 $39 #
cone-surface $-1 45.368597248857071 24.766260919250723 9.3923905050846859 -0.66913061440640931 0 -0.74314481823134659 0.3715724091156733 0 -0.33456530720320465 1 I I 0 1 0.5 forward I I I I #
face $-1 $100 $101 $24 $-1 $102 reversed single #
loop $-1 $-1 $103 $40 #
plane-surface $-1 0 0 -11.799729390666947 0 0 1 1 0 0 forward_v I I I I #
coedge $-1 $104 $105 $106 $107 forward $41 $-1 #
face $-1 $108 $109 $25 $-1 $110 reversed single #
loop $-1 $-1 $111 $43 #
plane-surface $-1 0 -16.65639141655981 10.299729390666947 0 -1 0 0 0 -1 forward_v I I I I #
coedge $-1 $112 $113 $114 $115 reversed $44 $-1 #
face $-1 $116 $117 $26 $-1 $118 reversed single #
loop $-1 $-1 $119 $46 #
plane-surface $-1 -47.964110232856243 10.126191579782155 0.011279294241404614 -0.84804810408105047 0 0.52991925155115449 0.52991925155115449 0 0.84804810408105047 forward_v I I I I #
coedge $-1 $120 $121 $122 $123 reversed $47 $-1 #
face $-1 $-1 $124 $27 $-1 $125 forward single #
loop $-1 $126 $127 $49 #
cone-surface $-1 -43.220929639432164 8.801606506743223 5.2431052780152321 0.84804810408105047 0 -0.52991925155115449 0.13247981288778862 0 0.21201202602026262 1 I I -0.70710678118654746 0.70710678118654746 0.25 forward I I I I #
loop $-1 $-1 $128 $35 #
coedge $-1 $80 $80 $129 $130 reversed $50 $-1 #
face $-1 $-1 $131 $28 $-1 $132 forward single #
loop $-1 $133 $134 $52 #
cone-surface $-1 -43.220929639432164 11.450776652821087 5.2431052780152321 0.84804810408105047 0 -0.52991925155115449 0.13247981288778862 0 0.21201202602026262 1 I I -0.70710678118654746 0.70710678118654746 0.25 forward I I I I #
loop $-1 $-1 $135 $36 #
coedge $-1 $85 $85 $136 $137 reversed $53 $-1 #
face $-1 $138 $139 $29 $-1 $140 reversed single #
loop $-1 $-1 $141 $55 #
plane-surface $-1 40.864059370743476 20.458447198375229 143.20526549811785 0 1 0 0.66913061440640931 0 0.74314481823134659 forward_v I I I I #
coedge $-1 $142 $143 $144 $145 reversed $56 $-1 #
face $-1 $-1 $146 $30 $-1 $147 forward single #
loop $-1 $148 $149 $58 #
cone-surface $-1 44.866749288052262 22.181572686725428 8.8350318914111767 -0.66913061440640931 0 -0.74314481823134659 0.18578620455783665 0 -0.16728265360160233 1 I I -0.70710678118654746 0.70710678118654746 0.25 forward I I I I #
loop $-1 $-1 $150 $38 #
coedge $-1 $94 $94 $151 $152 reversed $59 $-1 #
face $-1 $-1 $153 $31 $-1 $154 forward single #
loop $-1 $155 $156 $61 #
cone-surface $-1 44.866749288052262 24.766260919250723 8.8350318914111767 -0.66913061440640931 0 -0.74314481823134659 0.18578620455783665 0 -0.16728265360160233 1 I I -0.70710678118654746 0.70710678118654746 0.25 forward I I I I #
loop $-1 $-1 $157 $39 #
coedge $-1 $99 $99 $158 $159 reversed $62 $-1 #
face $-1 $160 $161 $24 $-1 $162 reversed single #
loop $-1 $-1 $163 $64 #
plane-surface $-1 0 -26.489386407600922 0 0 1 0 0 0 1 forward_v I I I I #
coedge $-1 $164 $165 $166 $167 forward $65 $-1 #
coedge $-1 $168 $67 $169 $170 forward $41 $-1 #
coedge $-1 $67 $168 $171 $172 forward $41 $-1 #
coedge $-1 $173 $174 $67 $107 reversed $175 $-1 #
edge $-1 $176 -26.489386407600922 $177 26.489386407600922 $106 $178 forward 7 unknown #
face $-1 $179 $180 $25 $-1 $181 reversed single #
loop $-1 $-1 $182 $68 #
plane-surface $-1 -47.964110232856228 0 0 1 0 0 0 0 -1 forward_v I I I I #
coedge $-1 $183 $184 $185 $186 reversed $69 $-1 #
coedge $-1 $187 $71 $188 $189 reversed $44 $-1 #
coedge $-1 $71 $187 $183 $190 forward $44 $-1 #
coedge $-1 $185 $191 $71 $115 forward $192 $-1 #
edge $-1 $193 -15.702941951560739 $194 -5.8699469605196271 $114 $195 forward 7 unknown #
face $-1 $196 $197 $26 $-1 $198 forward single #
loop $-1 $-1 $199 $72 #
plane-surface $-1 -129.31585572667271 13.216890083539663 50.845490086065894 0 -1 0 0.84804810408105047 0 -0.52991925155115449 forward_v I I I I #
coedge $-1 $200 $201 $202 $203 reversed $73 $-1 #
coedge $-1 $121 $75 $204 $205 reversed $47 $-1 #
coedge $-1 $75 $120 $200 $206 reversed $47 $-1 #
coedge $-1 $202 $207 $75 $123 forward $197 $-1 #
edge $-1 $208 16.693817630480126 $209 24.060058557125615 $122 $210 forward 7 unknown #
loop $-1 $-1 $129 $76 #
plane-surface $-1 -47.964110232856243 10.126191579782155 0.011279294241404614 -0.84804810408105047 0 0.52991925155115449 0.52991925155115449 0 0.84804810408105047 forward_v I I I I #
loop $-1 $-1 $211 $49 #
coedge $-1 $127 $127 $128 $212 reversed $77 $-1 #
coedge $-1 $128 $128 $127 $212 forward $79 $-1 #
coedge $-1 $129 $129 $80 $130 forward $124 $-1 #
edge $-1 $213 0 $213 6.2831853071796004 $129 $214 forward 7 unknown #
loop $-1 $-1 $136 $81 #
plane-surface $-1 -47.964110232856243 10.126191579782155 0.011279294241404614 -0.84804810408105047 0 0.52991925155115449 0.52991925155115449 0 0.84804810408105047 forward_v I I I I #
loop $-1 $-1 $215 $52 #
coedge $-1 $134 $134 $135 $216 reversed $82 $-1 #
coedge $-1 $135 $135 $134 $216 forward $84 $-1 #
coedge $-1 $136 $136 $85 $137 forward $131 $-1 #
edge $-1 $217 0 $217 6.2831853071796004 $136 $218 forward 7 unknown #
face $-1 $219 $220 $29 $-1 $221 forward single #
loop $-1 $-1 $222 $86 #
plane-surface $-1 0 26.489386407600922 0 0 -1 0 0 0 -1 forward_v I I I I #
coedge $-1 $223 $224 $225 $226 reversed $87 $-1 #
coedge $-1 $227 $89 $222 $228 reversed $56 $-1 #
coedge $-1 $89 $227 $223 $229 forward $56 $-1 #
coedge $-1 $225 $230 $89 $145 forward $220 $-1 #
edge $-1 $231 -14.752428006106884 $232 -8.7214887968811912 $144 $233 forward 7 unknown #
loop $-1 $-1 $151 $90 #
plane-surface $-1 -23.324449728392182 23.473916802988075 71.916705536869429 0.66913061440640931 0 0.74314481823134659 0.74314481823134659 0 -0.66913061440640931 forward_v I I I I #
loop $-1 $-1 $234 $58 #
coedge $-1 $149 $149 $150 $235 reversed $91 $-1 #
coedge $-1 $150 $150 $149 $235 forward $93 $-1 #
coedge $-1 $151 $151 $94 $152 forward $146 $-1 #
edge $-1 $236 0 $236 6.2831853071796004 $151 $237 forward 7 unknown #
loop $-1 $-1 $158 $95 #
plane-surface $-1 -23.324449728392182 23.473916802988075 71.916705536869429 0.66913061440640931 0 0.74314481823134659 0.74314481823134659 0 -0.66913061440640931 forward_v I I I I #
loop $-1 $-1 $238 $61 #
coedge $-1 $156 $156 $157 $239 reversed $96 $-1 #
coedge $-1 $157 $157 $156 $239 forward $98 $-1 #
coedge $-1 $158 $158 $99 $159 forward $153 $-1 #
edge $-1 $240 0 $240 6.2831853071796004 $158 $241 forward 7 unknown #
face $-1 $242 $243 $24 $-1 $244 reversed single #
loop $-1 $-1 $245 $100 #
plane-surface $-1 -47.964110232856228 0 0 1 0 0 0 0 -1 forward_v I I I I #
coedge $-1 $246 $171 $247 $248 forward $101 $-1 #
coedge $-1 $249 $103 $246 $250 forward $65 $-1 #
coedge $-1 $103 $249 $251 $252 forward $65 $-1 #
coedge $-1 $174 $173 $103 $167 reversed $175 $-1 #
edge $-1 $253 -26.489386407600922 $254 26.489386407600922 $166 $255 forward 7 unknown #
coedge $-1 $105 $104 $256 $257 forward $41 $-1 #
coedge $-1 $258 $259 $104 $170 reversed $243 $-1 #
edge $-1 $177 -47.964110232856228 $260 47.964110232856228 $169 $261 forward 7 unknown #
coedge $-1 $163 $262 $105 $172 reversed $101 $-1 #
edge $-1 $263 -47.964110232856228 $176 47.964110232856228 $171 $264 forward 7 unknown #
coedge $-1 $166 $106 $262 $265 forward $175 $-1 #
coedge $-1 $106 $166 $258 $266 reversed $175 $-1 #
loop $-1 $-1 $173 $242 #
vertex $-1 $107 $267 #
vertex $-1 $107 $268 #
straight-curve $-1 47.964110232856228 0 11.799729390666947 0 1 0 I I #
face $-1 $269 $270 $25 $-1 $271 forward single #
loop $-1 $-1 $188 $108 #
plane-surface $-1 0 -26.489386407600922 0 0 1 0 0 0 1 forward_v I I I I #
coedge $-1 $272 $273 $274 $275 forward $109 $-1 #
coedge $-1 $274 $111 $113 $190 reversed $69 $-1 #
coedge $-1 $111 $274 $276 $277 reversed $69 $-1 #
coedge $-1 $278 $114 $111 $186 forward $192 $-1 #
edge $-1 $194 3.6498646953334735 $279 6.6498646953334735 $185 $280 forward 7 unknown #
coedge $-1 $113 $112 $272 $281 reversed $44 $-1 #
coedge $-1 $282 $283 $112 $189 forward $180 $-1 #
edge $-1 $284 -47.964110232856228 $193 47.964110232856228 $188 $285 forward 7 unknown #
edge $-1 $286 -47.964110232856228 $194 47.964110232856228 $183 $287 forward 7 unknown #
coedge $-1 $114 $278 $282 $288 forward $192 $-1 #
loop $-1 $-1 $185 $269 #
vertex $-1 $189 $289 #
vertex $-1 $115 $290 #
straight-curve $-1 47.964110232856228 -10.786444456040183 8.7997293906669469 0 1 0 I I #
face $-1 $-1 $291 $26 $-1 $292 reversed single #
loop $-1 $-1 $122 $116 #
plane-surface $-1 0 0 11.799729390666947 0 0 1 1 0 0 forward_v I I I I #
coedge $-1 $293 $294 $295 $296 reversed $117 $-1 #
coedge $-1 $297 $119 $121 $206 forward $73 $-1 #
coedge $-1 $119 $297 $293 $298 forward $73 $-1 #
coedge $-1 $295 $122 $119 $203 forward $197 $-1 #
edge $-1 $209 1.9723972861335692 $299 8.1537942936485859 $202 $300 forward 7 unknown #
coedge $-1 $301 $302 $120 $205 forward $291 $-1 #
edge $-1 $303 -25.411465748791521 $208 -13.623015652366 $204 $304 forward 7 unknown #
edge $-1 $209 -13.900685632921226 $303 -2.6817106093413087e-014 $121 $305 forward 7 unknown #
coedge $-1 $122 $295 $301 $306 forward $197 $-1 #
vertex $-1 $205 $307 #
vertex $-1 $123 $308 #
straight-curve $-1 -64.657927863336354 7.0354930760246468 11.799729390666947 1 0 0 I I #
coedge $-1 $211 $211 $-1 $309 reversed $126 $-1 #
edge $-1 $310 0 $310 6.2831853071796004 $127 $311 forward 7 unknown #
vertex $-1 $130 $312 #
ellipse-curve $-1 -44.280989769533491 8.801606506743223 5.9055043424541802 -0.84804810408105047 0 0.52991925155115449 0.26495962577557725 0 0.42402405204052523 1 I I #
coedge $-1 $215 $215 $-1 $313 reversed $133 $-1 #
edge $-1 $314 0 $314 6.2831853071796004 $134 $315 forward 7 unknown #
vertex $-1 $137 $316 #
ellipse-curve $-1 -44.280989769533491 11.450776652821087 5.9055043424541802 -0.84804810408105047 0 0.52991925155115449 0.26495962577557725 0 0.42402405204052523 1 I I #
face $-1 $-1 $317 $29 $-1 $318 reversed single #
loop $-1 $-1 $144 $138 #
plane-surface $-1 0 0 11.799729390666947 0 0 1 1 0 0 forward_v I I I I #
coedge $-1 $319 $320 $142 $228 forward $139 $-1 #
coedge $-1 $224 $141 $143 $229 reversed $87 $-1 #
coedge $-1 $141 $223 $321 $322 reversed $87 $-1 #
coedge $-1 $323 $144 $141 $226 forward $220 $-1 #
edge $-1 $232 23.010185193892561 $324 27.53208054748449 $225 $325 forward 7 unknown #
coedge $-1 $143 $142 $326 $327 reversed $56 $-1 #
edge $-1 $328 -63.2006638078512 $231 -57.115853360872848 $222 $329 forward 7 unknown #
edge $-1 $330 -95.928220465712428 $232 -89.843410018734076 $223 $331 forward 7 unknown #
coedge $-1 $144 $323 $319 $332 forward $220 $-1 #
vertex $-1 $145 $333 #
vertex $-1 $145 $334 #
straight-curve $-1 43.442214879264299 11.736958401494038 11.799729390666947 0 -1 0 I I #
coedge $-1 $234 $234 $-1 $335 reversed $148 $-1 #
edge $-1 $336 0 $336 6.2831853071796004 $149 $337 forward 7 unknown #
vertex $-1 $152 $338 #
ellipse-curve $-1 45.703162556060271 22.181572686725428 9.7639629142003539 0.66913061440640931 0 0.74314481823134659 0.3715724091156733 0 -0.33456530720320465 1 I I #
coedge $-1 $238 $238 $-1 $339 reversed $155 $-1 #
edge $-1 $340 0 $340 6.2831853071796004 $156 $341 forward 7 unknown #
vertex $-1 $159 $342 #
ellipse-curve $-1 45.703162556060271 24.766260919250723 9.7639629142003539 0.66913061440640931 0 0.74314481823134659 0.3715724091156733 0 -0.33456530720320465 1 I I #
face $-1 $-1 $175 $24 $-1 $343 reversed single #
loop $-1 $-1 $258 $160 #
plane-surface $-1 0 26.489386407600922 0 0 -1 0 0 0 -1 forward_v I I I I #
coedge $-1 $344 $256 $259 $345 forward $161 $-1 #
coedge $-1 $262 $163 $164 $250 reversed $101 $-1 #
coedge $-1 $256 $344 $163 $248 reversed $161 $-1 #
edge $-1 $263 -11.799729390666947 $346 11.799729390666947 $247 $347 forward 7 unknown #
coedge $-1 $165 $164 $344 $348 forward $65 $-1 #
edge $-1 $254 -47.964110232856228 $346 47.964110232856228 $246 $349 forward 7 unknown #
coedge $-1 $259 $258 $165 $252 reversed $243 $-1 #
edge $-1 $350 -47.964110232856228 $253 47.964110232856228 $251 $351 forward 7 unknown #
vertex $-1 $167 $352 #
vertex $-1 $265 $353 #
straight-curve $-1 47.964110232856228 0 -11.799729390666947 0 -1 0 I I #
coedge $-1 $245 $247 $168 $257 reversed $161 $-1 #
edge $-1 $260 -26.489386407600922 $263 26.489386407600922 $256 $354 forward 7 unknown #
coedge $-1 $251 $169 $174 $266 forward $243 $-1 #
coedge $-1 $169 $251 $245 $345 reversed $243 $-1 #
vertex $-1 $170 $355 #
straight-curve $-1 0 26.489386407600922 11.799729390666947 -1 0 0 I I #
coedge $-1 $171 $246 $173 $265 reversed $101 $-1 #
vertex $-1 $257 $356 #
straight-curve $-1 0 -26.489386407600922 11.799729390666947 1 0 0 I I #
edge $-1 $176 -11.799729390666947 $254 11.799729390666947 $173 $357 forward 7 unknown #
edge $-1 $177 -11.799729390666947 $253 11.799729390666947 $174 $358 forward 7 unknown #
point $-1 47.964110232856228 -26.489386407600922 11.799729390666947 #
point $-1 47.964110232856228 26.489386407600922 11.799729390666947 #
face $-1 $-1 $192 $25 $-1 $359 reversed single #
loop $-1 $-1 $276 $179 #
plane-surface $-1 0 0 11.799729390666947 0 0 1 1 0 0 forward_v I I I I #
coedge $-1 $360 $182 $187 $281 forward $109 $-1 #
coedge $-1 $182 $360 $361 $362 reversed $109 $-1 #
coedge $-1 $184 $183 $182 $275 reversed $69 $-1 #
edge $-1 $363 -6.6498646953334735 $286 -3.6498646953334735 $182 $364 forward 7 unknown #
coedge $-1 $361 $365 $184 $277 forward $270 $-1 #
edge $-1 $279 -47.964110232856228 $363 47.964110232856228 $276 $366 forward 7 unknown #
coedge $-1 $191 $185 $365 $367 reversed $192 $-1 #
vertex $-1 $186 $368 #
straight-curve $-1 47.964110232856228 -16.65639141655981 5.1498646953334735 0 0 1 I I #
edge $-1 $286 5.8699469605196271 $284 15.702941951560739 $272 $369 forward 7 unknown #
coedge $-1 $370 $188 $191 $288 reversed $180 $-1 #
coedge $-1 $188 $370 $360 $371 forward $180 $-1 #
vertex $-1 $189 $372 #
straight-curve $-1 0 -26.489386407600922 8.7997293906669469 1 0 0 I I #
vertex $-1 $281 $373 #
straight-curve $-1 0 -16.65639141655981 8.7997293906669469 1 0 0 I I #
edge $-1 $374 -11.799729390666947 $193 -8.7997293906669469 $191 $375 forward 7 unknown #
point $-1 47.964110232856228 -26.489386407600922 8.7997293906669469 #
point $-1 47.964110232856228 -16.65639141655981 8.7997293906669469 #
loop $-1 $-1 $204 $196 #
plane-surface $-1 -47.964110232856228 0 0 1 0 0 0 0 -1 forward_v I I I I #
coedge $-1 $294 $199 $201 $298 reversed $117 $-1 #
coedge $-1 $199 $293 $376 $377 reversed $117 $-1 #
coedge $-1 $207 $202 $199 $296 forward $197 $-1 #
edge $-1 $299 -24.060058557125615 $378 -16.693817630480126 $295 $379 forward 7 unknown #
coedge $-1 $201 $200 $302 $380 reversed $73 $-1 #
edge $-1 $381 2.6817106093413087e-014 $299 13.900685632921226 $293 $382 forward 7 unknown #
vertex $-1 $203 $383 #
straight-curve $-1 -40.59786930621074 5.0630957898910776 11.799729390666947 0 1 0 I I #
coedge $-1 $376 $204 $207 $306 reversed $291 $-1 #
coedge $-1 $204 $376 $297 $380 forward $291 $-1 #
vertex $-1 $205 $384 #
straight-curve $-1 -47.964110232856228 7.0354930760246468 25.422745043032947 0 0 1 I I #
straight-curve $-1 -47.964110232856243 7.0354930760246468 0.011279294241404614 -0.52991925155115449 0 -0.84804810408105047 I I #
edge $-1 $378 -13.216890083539663 $208 -7.0354930760246468 $301 $385 forward 7 unknown #
point $-1 -47.964110232856228 7.0354930760246468 11.799729390666947 #
point $-1 -40.59786930621074 7.0354930760246468 11.799729390666947 #
edge $-1 $386 1 $386 0 $211 $-1 forward 7 unknown #
vertex $-1 $212 $387 #
ellipse-curve $-1 -43.432941665452425 8.801606506743223 5.3755850909030203 -0.84804810408105047 0 0.52991925155115449 0.26495962577557725 0 0.42402405204052523 1 I I #
point $-1 -44.016030143757902 8.801606506743223 6.3295283944947007 #
edge $-1 $388 1 $388 0 $215 $-1 forward 7 unknown #
vertex $-1 $216 $389 #
ellipse-curve $-1 -43.432941665452425 11.450776652821087 5.3755850909030203 -0.84804810408105047 0 0.52991925155115449 0.26495962577557725 0 0.42402405204052523 1 I I #
point $-1 -44.016030143757902 11.450776652821087 6.3295283944947007 #
loop $-1 $-1 $326 $219 #
plane-surface $-1 47.964110232856228 0 0 -1 0 0 0 0 1 forward_v I I I I #
coedge $-1 $320 $222 $230 $332 reversed $139 $-1 #
coedge $-1 $222 $319 $390 $391 forward $139 $-1 #
coedge $-1 $326 $392 $224 $322 forward $317 $-1 #
edge $-1 $324 59.80290335839198 $330 63.874436311325141 $321 $393 forward 7 unknown #
coedge $-1 $230 $225 $392 $394 forward $220 $-1 #
vertex $-1 $394 $395 #
straight-curve $-1 20.432029685371738 20.458447198375229 11.79972939066694 1 0 0 I I #
coedge $-1 $390 $321 $227 $327 forward $317 $-1 #
edge $-1 $330 8.7214887968811912 $328 14.752428006106884 $326 $396 forward 7 unknown #
vertex $-1 $327 $397 #
straight-curve $-1 0.99686441527019554 26.489386407600922 50.017695442374176 -0.74314481823134659 0 0.66913061440640931 I I #
vertex $-1 $327 $398 #
straight-curve $-1 -23.324449728392182 20.458447198375229 71.916705536869429 -0.74314481823134659 0 0.66913061440640931 I I #
edge $-1 $399 -47.964110232856228 $231 -43.442214879264299 $319 $400 forward 7 unknown #
point $-1 43.442214879264299 26.489386407600922 11.799729390666947 #
point $-1 43.442214879264299 20.458447198375229 11.799729390666947 #
edge $-1 $401 1 $401 0 $234 $-1 forward 7 unknown #
vertex $-1 $235 $402 #
ellipse-curve $-1 45.034031941653865 22.181572686725428 9.0208180959690125 0.66913061440640931 0 0.74314481823134659 0.3715724091156733 0 -0.33456530720320465 1 I I #
point $-1 46.074734965175949 22.181572686725428 9.4293976069971546 #
edge $-1 $403 1 $403 0 $238 $-1 forward 7 unknown #
vertex $-1 $239 $404 #
ellipse-curve $-1 45.034031941653865 24.766260919250723 9.0208180959690125 0.66913061440640931 0 0.74314481823134659 0.3715724091156733 0 -0.33456530720320465 1 I I #
point $-1 46.074734965175949 24.766260919250723 9.4293976069971546 #
plane-surface $-1 47.964110232856228 0 0 -1 0 0 0 0 1 forward_v I I I I #
coedge $-1 $247 $245 $249 $348 reversed $161 $-1 #
edge $-1 $260 -11.799729390666947 $350 11.799729390666947 $259 $405 forward 7 unknown #
vertex $-1 $348 $406 #
straight-curve $-1 -47.964110232856228 -26.489386407600922 0 0 0 -1 I I #
edge $-1 $346 -26.489386407600922 $350 26.489386407600922 $344 $407 forward 7 unknown #
straight-curve $-1 0 -26.489386407600922 -11.799729390666947 -1 0 0 I I #
vertex $-1 $252 $408 #
straight-curve $-1 0 26.489386407600922 -11.799729390666947 1 0 0 I I #
point $-1 47.964110232856228 26.489386407600922 -11.799729390666947 #
point $-1 47.964110232856228 -26.489386407600922 -11.799729390666947 #
straight-curve $-1 -47.964110232856228 0 11.799729390666947 0 -1 0 I I #
point $-1 -47.964110232856228 26.489386407600922 11.799729390666947 #
point $-1 -47.964110232856228 -26.489386407600922 11.799729390666947 #
straight-curve $-1 47.964110232856228 -26.489386407600922 0 0 0 -1 I I #
straight-curve $-1 47.964110232856228 26.489386407600922 0 0 0 -1 I I #
plane-surface $-1 47.964110232856228 0 0 -1 0 0 0 0 1 forward_v I I I I #
coedge $-1 $273 $272 $283 $371 reversed $109 $-1 #
coedge $-1 $409 $276 $273 $362 forward $270 $-1 #
edge $-1 $363 16.65639141655981 $410 26.489386407600922 $273 $411 forward 7 unknown #
vertex $-1 $362 $412 #
straight-curve $-1 -47.964110232856228 -16.65639141655981 5.1498646953334735 0 0 -1 I I #
coedge $-1 $276 $409 $278 $367 forward $270 $-1 #
straight-curve $-1 0 -16.65639141655981 11.799729390666947 -1 0 0 I I #
edge $-1 $374 -26.489386407600922 $279 -16.65639141655981 $278 $413 forward 7 unknown #
point $-1 47.964110232856228 -16.65639141655981 11.799729390666947 #
straight-curve $-1 -47.964110232856228 -10.786444456040183 8.7997293906669469 0 -1 0 I I #
coedge $-1 $283 $282 $409 $414 reversed $180 $-1 #
edge $-1 $410 -11.799729390666947 $284 -8.7997293906669469 $360 $415 forward 7 unknown #
point $-1 -47.964110232856228 -26.489386407600922 8.7997293906669469 #
point $-1 -47.964110232856228 -16.65639141655981 8.7997293906669469 #
vertex $-1 $367 $416 #
straight-curve $-1 47.964110232856228 -26.489386407600922 0 0 0 -1 I I #
coedge $-1 $302 $301 $294 $377 forward $291 $-1 #
edge $-1 $378 13.623015652366 $381 25.411465748791521 $376 $417 forward 7 unknown #
vertex $-1 $306 $418 #
straight-curve $-1 -64.657927863336354 13.216890083539663 11.799729390666947 -1 0 0 I I #
edge $-1 $381 -8.1537942936485859 $303 -1.9723972861335692 $302 $419 forward 7 unknown #
vertex $-1 $380 $420 #
straight-curve $-1 -47.964110232856243 13.216890083539663 0.011279294241404614 0.52991925155115449 0 0.84804810408105047 I I #
point $-1 -40.59786930621074 13.216890083539663 11.799729390666947 #
point $-1 -47.964110232856228 7.0354930760246468 0.011279294241427356 #
straight-curve $-1 -47.964110232856228 0 11.799729390666947 0 -1 0 I I #
vertex $-1 $309 $421 #
point $-1 -43.167982039676851 8.801606506743223 5.7996091429435461 #
vertex $-1 $313 $422 #
point $-1 -43.167982039676851 11.450776652821087 5.7996091429435461 #
coedge $-1 $392 $326 $320 $391 reversed $317 $-1 #
edge $-1 $399 -11.799729390666947 $328 -7.7281964377337857 $390 $423 forward 7 unknown #
coedge $-1 $321 $390 $323 $394 reversed $317 $-1 #
straight-curve $-1 47.964110232856228 20.458447198375229 71.602632749058927 0 0 -1 I I #
edge $-1 $324 20.458447198375229 $399 26.489386407600922 $392 $424 forward 7 unknown #
point $-1 47.964110232856228 20.458447198375229 11.799729390666947 #
straight-curve $-1 47.964110232856228 11.736958401494038 7.7281964377337822 0 1 0 I I #
point $-1 47.964110232856228 26.489386407600922 7.7281964377337857 #
point $-1 47.964110232856228 20.458447198375229 7.7281964377337857 #
vertex $-1 $394 $425 #
straight-curve $-1 0 26.489386407600922 11.799729390666947 -1 0 0 I I #
vertex $-1 $335 $426 #
point $-1 45.405604350769536 22.181572686725428 8.6862527887658079 #
vertex $-1 $339 $427 #
point $-1 45.405604350769536 24.766260919250723 8.6862527887658079 #
straight-curve $-1 -47.964110232856228 26.489386407600922 0 0 0 -1 I I #
point $-1 -47.964110232856228 -26.489386407600922 -11.799729390666947 #
straight-curve $-1 -47.964110232856228 0 -11.799729390666947 0 1 0 I I #
point $-1 -47.964110232856228 26.489386407600922 -11.799729390666947 #
coedge $-1 $365 $361 $370 $414 forward $270 $-1 #
vertex $-1 $362 $428 #
straight-curve $-1 -47.964110232856228 0 11.799729390666947 0 -1 0 I I #
point $-1 -47.964110232856228 -16.65639141655981 11.799729390666947 #
straight-curve $-1 47.964110232856228 0 11.799729390666947 0 1 0 I I #
edge $-1 $410 -47.964110232856228 $374 47.964110232856228 $370 $429 forward 7 unknown #
straight-curve $-1 -47.964110232856228 -26.489386407600922 0 0 0 -1 I I #
point $-1 47.964110232856228 -26.489386407600922 11.799729390666947 #
straight-curve $-1 -47.964110232856228 13.216890083539663 25.422745043032947 0 0 -1 I I #
point $-1 -47.964110232856228 13.216890083539663 11.799729390666947 #
straight-curve $-1 -47.964110232856228 5.0630957898910776 0.011279294241430265 0 -1 0 I I #
point $-1 -47.964110232856228 13.216890083539663 0.011279294241427356 #
point $-1 -43.008917613411903 8.801606506743223 5.1106254651274439 #
point $-1 -43.008917613411903 11.450776652821087 5.1106254651274439 #
straight-curve $-1 47.964110232856228 26.489386407600922 0 0 0 -1 I I #
straight-curve $-1 47.964110232856228 0 11.799729390666947 0 1 0 I I #
point $-1 47.964110232856228 26.489386407600922 11.799729390666947 #
point $-1 44.699466634450658 22.181572686725428 8.6492456868533409 #
point $-1 44.699466634450658 24.766260919250723 8.6492456868533409 #
point $-1 -47.964110232856228 -26.489386407600922 11.799729390666947 #
straight-curve $-1 0 -26.489386407600922 11.799729390666947 1 0 0 I I #
End-of-ACIS-data 