500 0 2 0           
7 Unknown 11 ACIS 5.0 NT 24 Fri Mar 26 00:59:59 1999 
-1 9.9999999999999995e-007 1e-010 
body $-1 $2 $-1 $3 #
body $-1 $4 $-1 $5 #
lump $-1 $-1 $6 $0 #
transform $-1 1 0 0 0 1 0 0 0 1 75.98620563371685 34.080278183362211 14.883430670372475 1 rotate no_reflect no_shear #
lump $-1 $-1 $7 $1 #
transform $-1 1 0 0 0 1 0 0 0 1 75.98620563371685 34.080278183362211 14.883430670372475 1 rotate no_reflect no_shear #
shell $-1 $-1 $-1 $8 $-1 $2 #
shell $-1 $-1 $-1 $9 $-1 $4 #
face $-1 $10 $11 $6 $-1 $12 forward single #
face $-1 $13 $14 $7 $-1 $15 forward single #
face $-1 $16 $17 $6 $-1 $18 reversed single #
loop $-1 $-1 $19 $8 #
plane-surface $-1 0 0 14.883430670372475 0 0 1 1 0 0 forward_v I I I I #
face $-1 $20 $21 $7 $-1 $22 reversed single #
loop $-1 $-1 $23 $9 #
plane-surface $-1 0 -34.080278183362211 0 0 1 0 0 0 1 forward_v I I I I #
face $-1 $24 $25 $6 $-1 $26 reversed single #
loop $-1 $-1 $27 $10 #
plane-surface $-1 0 0 -14.883430670372475 0 0 1 1 0 0 forward_v I I I I #
coedge $-1 $28 $29 $30 $31 forward $11 $-1 #
face $-1 $32 $33 $7 $-1 $34 reversed single #
loop $-1 $-1 $35 $13 #
plane-surface $-1 0 0 -14.883430670372475 0 0 1 1 0 0 forward_v I I I I #
coedge $-1 $36 $37 $38 $39 forward $14 $-1 #
face $-1 $40 $41 $6 $-1 $42 reversed single #
loop $-1 $-1 $43 $16 #
plane-surface $-1 0 -34.080278183362211 0 0 1 0 0 0 1 forward_v I I I I #
coedge $-1 $44 $45 $46 $47 forward $17 $-1 #
coedge $-1 $48 $19 $49 $50 forward $11 $-1 #
coedge $-1 $19 $48 $51 $52 forward $11 $-1 #
coedge $-1 $53 $54 $19 $31 reversed $55 $-1 #
edge $-1 $56 -34.080278183362211 $57 34.080278183362211 $30 $58 forward 7 unknown #
face $-1 $59 $60 $7 $-1 $61 forward single #
loop $-1 $-1 $62 $20 #
plane-surface $-1 75.98620563371685 0 0 -1 0 0 0 0 1 forward_v I I I I #
coedge $-1 $63 $64 $65 $66 forward $21 $-1 #
coedge $-1 $65 $23 $62 $67 reversed $14 $-1 #
coedge $-1 $23 $65 $68 $69 reversed $14 $-1 #
coedge $-1 $70 $71 $23 $39 reversed $60 $-1 #
edge $-1 $72 -75.98620563371685 $73 75.98620563371685 $38 $74 forward 7 unknown #
face $-1 $75 $76 $6 $-1 $77 reversed single #
loop $-1 $-1 $78 $24 #
plane-surface $-1 -75.98620563371685 0 0 1 0 0 0 0 -1 forward_v I I I I #
coedge $-1 $79 $51 $80 $81 forward $25 $-1 #
coedge $-1 $82 $27 $79 $83 forward $17 $-1 #
coedge $-1 $27 $82 $84 $85 forward $17 $-1 #
coedge $-1 $54 $53 $27 $47 reversed $55 $-1 #
edge $-1 $86 -34.080278183362211 $87 34.080278183362211 $46 $88 forward 7 unknown #
coedge $-1 $29 $28 $89 $90 forward $11 $-1 #
coedge $-1 $91 $92 $28 $50 reversed $76 $-1 #
edge $-1 $57 -75.98620563371685 $93 75.98620563371685 $49 $94 forward 7 unknown #
coedge $-1 $43 $95 $29 $52 reversed $25 $-1 #
edge $-1 $96 -75.98620563371685 $56 75.98620563371685 $51 $97 forward 7 unknown #
coedge $-1 $46 $30 $95 $98 forward $55 $-1 #
coedge $-1 $30 $46 $91 $99 reversed $55 $-1 #
loop $-1 $-1 $53 $75 #
vertex $-1 $31 $100 #
vertex $-1 $31 $101 #
straight-curve $-1 75.98620563371685 0 14.883430670372475 0 1 0 I I #
face $-1 $102 $103 $7 $-1 $104 reversed single #
loop $-1 $-1 $71 $32 #
plane-surface $-1 0 -43.005335622065054 -10.046985677178347 0 0 1 1 0 0 forward_v I I I I #
coedge $-1 $105 $106 $36 $67 forward $33 $-1 #
coedge $-1 $107 $35 $106 $108 forward $21 $-1 #
coedge $-1 $35 $107 $109 $110 forward $21 $-1 #
coedge $-1 $37 $36 $35 $66 reversed $14 $-1 #
edge $-1 $111 -75.98620563371685 $112 75.98620563371685 $35 $113 forward 7 unknown #
edge $-1 $112 -14.883430670372475 $73 -10.046985677178347 $62 $114 forward 7 unknown #
coedge $-1 $109 $115 $37 $69 forward $116 $-1 #
edge $-1 $72 10.046985677178347 $111 14.883430670372475 $68 $117 forward 7 unknown #
coedge $-1 $118 $38 $115 $119 forward $60 $-1 #
coedge $-1 $38 $118 $105 $120 forward $60 $-1 #
vertex $-1 $69 $121 #
vertex $-1 $120 $122 #
straight-curve $-1 0 -34.080278183362211 -10.046985677178347 1 0 0 I I #
face $-1 $-1 $55 $6 $-1 $123 reversed single #
loop $-1 $-1 $91 $40 #
plane-surface $-1 0 34.080278183362211 0 0 -1 0 0 0 -1 forward_v I I I I #
coedge $-1 $124 $89 $92 $125 forward $41 $-1 #
coedge $-1 $95 $43 $44 $83 reversed $25 $-1 #
coedge $-1 $89 $124 $43 $81 reversed $41 $-1 #
edge $-1 $96 -14.883430670372475 $126 14.883430670372475 $80 $127 forward 7 unknown #
coedge $-1 $45 $44 $124 $128 forward $17 $-1 #
edge $-1 $87 -75.98620563371685 $126 75.98620563371685 $79 $129 forward 7 unknown #
coedge $-1 $92 $91 $45 $85 reversed $76 $-1 #
edge $-1 $130 -75.98620563371685 $86 75.98620563371685 $84 $131 forward 7 unknown #
vertex $-1 $47 $132 #
vertex $-1 $98 $133 #
straight-curve $-1 75.98620563371685 0 -14.883430670372475 0 -1 0 I I #
coedge $-1 $78 $80 $48 $90 reversed $41 $-1 #
edge $-1 $93 -34.080278183362211 $96 34.080278183362211 $89 $134 forward 7 unknown #
coedge $-1 $84 $49 $54 $99 forward $76 $-1 #
coedge $-1 $49 $84 $78 $125 reversed $76 $-1 #
vertex $-1 $50 $135 #
straight-curve $-1 0 34.080278183362211 14.883430670372475 -1 0 0 I I #
coedge $-1 $51 $79 $53 $98 reversed $25 $-1 #
vertex $-1 $90 $136 #
straight-curve $-1 0 -34.080278183362211 14.883430670372475 1 0 0 I I #
edge $-1 $56 -14.883430670372475 $87 14.883430670372475 $53 $137 forward 7 unknown #
edge $-1 $57 -14.883430670372475 $86 14.883430670372475 $54 $138 forward 7 unknown #
point $-1 75.98620563371685 -34.080278183362211 14.883430670372475 #
point $-1 75.98620563371685 34.080278183362211 14.883430670372475 #
face $-1 $-1 $116 $7 $-1 $139 reversed single #
loop $-1 $-1 $140 $59 #
plane-surface $-1 0 -51.930393060767898 -12.465208173775411 0 1 0 0 0 1 forward_v I I I I #
coedge $-1 $141 $62 $71 $120 reversed $33 $-1 #
coedge $-1 $62 $141 $63 $108 reversed $33 $-1 #
coedge $-1 $64 $63 $142 $143 forward $21 $-1 #
edge $-1 $112 34.080278183362211 $144 51.930393060767898 $106 $145 forward 7 unknown #
coedge $-1 $146 $68 $64 $110 reversed $116 $-1 #
edge $-1 $147 -51.930393060767898 $111 -34.080278183362211 $109 $148 forward 7 unknown #
vertex $-1 $69 $149 #
vertex $-1 $108 $150 #
straight-curve $-1 0 -34.080278183362211 -14.883430670372475 1 0 0 I I #
straight-curve $-1 75.98620563371685 -34.080278183362211 0 0 0 1 I I #
coedge $-1 $68 $146 $70 $119 reversed $116 $-1 #
loop $-1 $-1 $68 $102 #
straight-curve $-1 -75.98620563371685 -34.080278183362211 0 0 0 -1 I I #
coedge $-1 $71 $70 $151 $152 forward $60 $-1 #
edge $-1 $72 -8.9250574387028436 $153 8.9250574387028436 $115 $154 forward 7 unknown #
edge $-1 $155 -8.9250574387028436 $73 8.9250574387028436 $105 $156 forward 7 unknown #
point $-1 -75.98620563371685 -34.080278183362211 -10.046985677178347 #
point $-1 75.98620563371685 -34.080278183362211 -10.046985677178347 #
plane-surface $-1 75.98620563371685 0 0 -1 0 0 0 0 1 forward_v I I I I #
coedge $-1 $80 $78 $82 $128 reversed $41 $-1 #
edge $-1 $93 -14.883430670372475 $130 14.883430670372475 $92 $157 forward 7 unknown #
vertex $-1 $128 $158 #
straight-curve $-1 -75.98620563371685 -34.080278183362211 0 0 0 -1 I I #
edge $-1 $126 -34.080278183362211 $130 34.080278183362211 $124 $159 forward 7 unknown #
straight-curve $-1 0 -34.080278183362211 -14.883430670372475 -1 0 0 I I #
vertex $-1 $85 $160 #
straight-curve $-1 0 34.080278183362211 -14.883430670372475 1 0 0 I I #
point $-1 75.98620563371685 34.080278183362211 -14.883430670372475 #
point $-1 75.98620563371685 -34.080278183362211 -14.883430670372475 #
straight-curve $-1 -75.98620563371685 0 14.883430670372475 0 -1 0 I I #
point $-1 -75.98620563371685 34.080278183362211 14.883430670372475 #
point $-1 -75.98620563371685 -34.080278183362211 14.883430670372475 #
straight-curve $-1 75.98620563371685 -34.080278183362211 0 0 0 -1 I I #
straight-curve $-1 75.98620563371685 34.080278183362211 0 0 0 -1 I I #
plane-surface $-1 -75.98620563371685 0 0 1 0 0 0 0 -1 forward_v I I I I #
coedge $-1 $142 $151 $146 $161 forward $103 $-1 #
coedge $-1 $106 $105 $162 $163 forward $33 $-1 #
coedge $-1 $162 $140 $107 $143 reversed $103 $-1 #
edge $-1 $144 -75.98620563371685 $147 75.98620563371685 $142 $164 forward 7 unknown #
vertex $-1 $163 $165 #
straight-curve $-1 75.98620563371685 0 -14.883430670372475 0 -1 0 I I #
coedge $-1 $115 $109 $140 $161 reversed $116 $-1 #
vertex $-1 $110 $166 #
straight-curve $-1 -75.98620563371685 0 -14.883430670372475 0 1 0 I I #
point $-1 -75.98620563371685 -34.080278183362211 -14.883430670372475 #
point $-1 75.98620563371685 -34.080278183362211 -14.883430670372475 #
coedge $-1 $140 $162 $118 $152 reversed $103 $-1 #
edge $-1 $153 -75.98620563371685 $155 75.98620563371685 $151 $167 forward 7 unknown #
vertex $-1 $119 $168 #
straight-curve $-1 -75.98620563371685 -43.005335622065054 -10.046985677178347 0 -1 0 I I #
vertex $-1 $120 $169 #
straight-curve $-1 75.98620563371685 -43.005335622065054 -10.046985677178347 0 1 0 I I #
straight-curve $-1 -75.98620563371685 34.080278183362211 0 0 0 -1 I I #
point $-1 -75.98620563371685 -34.080278183362211 -14.883430670372475 #
straight-curve $-1 -75.98620563371685 0 -14.883430670372475 0 1 0 I I #
point $-1 -75.98620563371685 34.080278183362211 -14.883430670372475 #
edge $-1 $153 -2.418222496597064 $147 2.418222496597064 $146 $170 forward 7 unknown #
coedge $-1 $151 $142 $141 $163 reversed $103 $-1 #
edge $-1 $155 -2.418222496597064 $144 2.418222496597064 $141 $171 forward 7 unknown #
straight-curve $-1 0 -51.930393060767898 -14.883430670372475 -1 0 0 I I #
point $-1 75.98620563371685 -51.930393060767898 -14.883430670372475 #
point $-1 -75.98620563371685 -51.930393060767898 -14.883430670372475 #
straight-curve $-1 0 -51.930393060767898 -10.046985677178347 1 0 0 I I #
point $-1 -75.98620563371685 -51.930393060767898 -10.046985677178347 #
point $-1 75.98620563371685 -51.930393060767898 -10.046985677178347 #
straight-curve $-1 -75.98620563371685 -51.930393060767898 -12.465208173775411 0 0 -1 I I #
straight-curve $-1 75.98620563371685 -51.930393060767898 -12.465208173775411 0 0 -1 I I #
End-of-ACIS-data 