500 0 15 0           
7 Unknown 11 ACIS 5.0 NT 24 Thu Mar 25 20:44:08 1999 
-1 9.9999999999999995e-007 1e-010 
body $-1 $15 $-1 $16 #
body $-1 $17 $-1 $18 #
body $-1 $19 $-1 $20 #
body $-1 $21 $-1 $22 #
body $-1 $23 $-1 $24 #
body $-1 $25 $-1 $26 #
body $-1 $27 $-1 $28 #
body $-1 $29 $-1 $30 #
body $-1 $31 $-1 $32 #
body $-1 $33 $-1 $34 #
body $-1 $35 $-1 $36 #
body $-1 $37 $-1 $38 #
body $-1 $39 $-1 $40 #
body $-1 $41 $-1 $42 #
body $-1 $43 $-1 $44 #
lump $-1 $-1 $45 $0 #
transform $-1 1 0 0 0 1 0 0 0 1 57.889950254829557 33.475892404661273 11.650513681578301 1 rotate no_reflect no_shear #
lump $-1 $-1 $46 $1 #
transform $-1 1 0 0 0 1 0 0 0 1 57.889950254829557 33.475892404661273 11.650513681578301 1 rotate no_reflect no_shear #
lump $-1 $-1 $47 $2 #
transform $-1 1 0 0 0 1 0 0 0 1 57.889950254829557 33.475892404661273 11.650513681578301 1 rotate no_reflect no_shear #
lump $-1 $-1 $48 $3 #
transform $-1 1 0 0 0 1 0 0 0 1 57.889950254829557 33.475892404661273 11.650513681578301 1 rotate no_reflect no_shear #
lump $-1 $-1 $49 $4 #
transform $-1 1 0 0 0 1 0 0 0 1 57.889950254829557 33.475892404661273 11.650513681578301 1 rotate no_reflect no_shear #
lump $-1 $-1 $50 $5 #
transform $-1 1 0 0 0 1 0 0 0 1 57.889950254829557 33.475892404661273 11.650513681578301 1 rotate no_reflect no_shear #
lump $-1 $-1 $51 $6 #
transform $-1 1 0 0 0 1 0 0 0 1 57.889950254829557 33.475892404661273 11.650513681578301 1 rotate no_reflect no_shear #
lump $-1 $-1 $52 $7 #
transform $-1 1 0 0 0 1 0 0 0 1 57.889950254829557 33.475892404661273 11.650513681578301 1 rotate no_reflect no_shear #
lump $-1 $-1 $53 $8 #
transform $-1 1 0 0 0 1 0 0 0 1 57.889950254829557 33.475892404661273 11.650513681578301 1 rotate no_reflect no_shear #
lump $-1 $-1 $54 $9 #
transform $-1 1 0 0 0 1 0 0 0 1 57.889950254829557 33.475892404661273 11.650513681578301 1 rotate no_reflect no_shear #
lump $-1 $-1 $55 $10 #
transform $-1 1 0 0 0 1 0 0 0 1 57.889950254829557 33.475892404661273 11.650513681578301 1 rotate no_reflect no_shear #
lump $-1 $-1 $56 $11 #
transform $-1 1 0 0 0 1 0 0 0 1 57.889950254829557 33.475892404661273 11.650513681578301 1 rotate no_reflect no_shear #
lump $-1 $-1 $57 $12 #
transform $-1 1 0 0 0 1 0 0 0 1 57.889950254829557 33.475892404661273 11.650513681578301 1 rotate no_reflect no_shear #
lump $-1 $-1 $58 $13 #
transform $-1 1 0 0 0 1 0 0 0 1 57.889950254829557 33.475892404661273 11.650513681578301 1 rotate no_reflect no_shear #
lump $-1 $-1 $59 $14 #
transform $-1 1 0 0 0 1 0 0 0 1 57.889950254829557 33.475892404661273 11.650513681578301 1 rotate no_reflect no_shear #
shell $-1 $-1 $-1 $60 $-1 $15 #
shell $-1 $-1 $-1 $61 $-1 $17 #
shell $-1 $-1 $-1 $62 $-1 $19 #
shell $-1 $-1 $-1 $63 $-1 $21 #
shell $-1 $-1 $-1 $64 $-1 $23 #
shell $-1 $-1 $-1 $65 $-1 $25 #
shell $-1 $-1 $-1 $66 $-1 $27 #
shell $-1 $-1 $-1 $67 $-1 $29 #
shell $-1 $-1 $-1 $68 $-1 $31 #
shell $-1 $-1 $-1 $69 $-1 $33 #
shell $-1 $-1 $-1 $70 $-1 $35 #
shell $-1 $-1 $-1 $71 $-1 $37 #
shell $-1 $-1 $-1 $72 $-1 $39 #
shell $-1 $-1 $-1 $73 $-1 $41 #
shell $-1 $-1 $-1 $74 $-1 $43 #
face $-1 $75 $76 $45 $-1 $77 forward single #
face $-1 $78 $79 $46 $-1 $80 forward single #
face $-1 $81 $82 $47 $-1 $83 forward single #
face $-1 $84 $85 $48 $-1 $86 reversed single #
face $-1 $87 $88 $49 $-1 $89 forward single #
face $-1 $90 $91 $50 $-1 $92 forward single #
face $-1 $93 $94 $51 $-1 $95 reversed single #
face $-1 $96 $97 $52 $-1 $98 forward single #
face $-1 $99 $100 $53 $-1 $101 forward single #
face $-1 $102 $103 $54 $-1 $104 reversed single #
face $-1 $105 $106 $55 $-1 $107 forward single #
face $-1 $108 $109 $56 $-1 $110 forward single #
face $-1 $111 $112 $57 $-1 $113 reversed single #
face $-1 $114 $115 $58 $-1 $116 forward single #
face $-1 $117 $118 $59 $-1 $119 forward single #
face $-1 $120 $121 $45 $-1 $122 reversed single #
loop $-1 $-1 $123 $60 #
plane-surface $-1 0 0 11.650513681578301 0 0 1 1 0 0 forward_v I I I I #
face $-1 $124 $125 $46 $-1 $126 reversed single #
loop $-1 $-1 $127 $61 #
plane-surface $-1 -57.889950254829557 0 0 1 0 0 0 0 -1 forward_v I I I I #
face $-1 $128 $129 $47 $-1 $130 forward single #
loop $-1 $-1 $131 $62 #
plane-surface $-1 57.889950254829557 0 0 -1 0 0 0 0 1 forward_v I I I I #
face $-1 $132 $133 $48 $-1 $134 reversed single #
loop $-1 $-1 $135 $63 #
plane-surface $-1 -29.089850409257359 -118.15195217237508 87.433486400633996 -1 0 0 0 -0.73135370988377701 0.68199835119979291 forward_v I I I I #
face $-1 $136 $137 $49 $-1 $138 forward single #
loop $-1 $139 $140 $64 #
cone-surface $-1 -37.973708003011062 -31.393154211825312 9.5010509595839636 0 0.73135370988377701 -0.68199835119979291 0.5 0 0 1 I I 0 1 0.5 forward I I I I #
face $-1 $141 $142 $50 $-1 $143 forward single #
loop $-1 $144 $145 $65 #
cone-surface $-1 -32.643393446758836 -31.393154211825312 9.5010509595839636 0 0.73135370988377701 -0.68199835119979291 0.5 0 0 1 I I 0 1 0.5 forward I I I I #
face $-1 $146 $147 $51 $-1 $148 reversed single #
loop $-1 $-1 $149 $66 #
plane-surface $-1 -6.4814754330099102 -118.15195217237508 87.433486400633996 -1 0 0 0 -0.73135370988377701 0.68199835119979291 forward_v I I I I #
face $-1 $150 $151 $52 $-1 $152 forward single #
loop $-1 $153 $154 $67 #
cone-surface $-1 -15.365333026763615 -31.393154211825312 9.5010509595839636 0 0.73135370988377701 -0.68199835119979291 0.5 0 0 1 I I 0 1 0.5 forward I I I I #
face $-1 $155 $156 $53 $-1 $157 forward single #
loop $-1 $158 $159 $68 #
cone-surface $-1 -10.035018470511389 -31.393154211825312 9.5010509595839636 0 0.73135370988377701 -0.68199835119979291 0.5 0 0 1 I I 0 1 0.5 forward I I I I #
face $-1 $160 $161 $54 $-1 $162 reversed single #
loop $-1 $-1 $163 $69 #
plane-surface $-1 16.126899543237535 -118.15195217237508 87.433486400633996 -1 0 0 0 -0.73135370988377701 0.68199835119979291 forward_v I I I I #
face $-1 $164 $165 $55 $-1 $166 forward single #
loop $-1 $167 $168 $70 #
cone-surface $-1 7.2430419494838247 -31.393154211825312 9.5010509595839636 0 0.73135370988377701 -0.68199835119979291 0.5 0 0 1 I I 0 1 0.5 forward I I I I #
face $-1 $169 $170 $56 $-1 $171 forward single #
loop $-1 $172 $173 $71 #
cone-surface $-1 12.573356505736058 -31.393154211825312 9.5010509595839636 0 0.73135370988377701 -0.68199835119979291 0.5 0 0 1 I I 0 1 0.5 forward I I I I #
face $-1 $174 $175 $57 $-1 $176 reversed single #
loop $-1 $-1 $177 $72 #
plane-surface $-1 38.735274519484982 -118.15195217237508 87.433486400633996 -1 0 0 0 -0.73135370988377701 0.68199835119979291 forward_v I I I I #
face $-1 $178 $179 $58 $-1 $180 forward single #
loop $-1 $181 $182 $73 #
cone-surface $-1 29.851416925731272 -31.393154211825312 9.5010509595839636 0 0.73135370988377701 -0.68199835119979291 0.5 0 0 1 I I 0 1 0.5 forward I I I I #
face $-1 $183 $184 $59 $-1 $185 forward single #
loop $-1 $186 $187 $74 #
cone-surface $-1 35.181731481983505 -31.393154211825312 9.5010509595839636 0 0.73135370988377701 -0.68199835119979291 0.5 0 0 1 I I 0 1 0.5 forward I I I I #
face $-1 $188 $189 $45 $-1 $190 reversed single #
loop $-1 $-1 $191 $75 #
plane-surface $-1 0 0 -11.650513681578301 0 0 1 1 0 0 forward_v I I I I #
coedge $-1 $192 $193 $194 $195 forward $76 $-1 #
face $-1 $196 $197 $46 $-1 $198 reversed single #
loop $-1 $-1 $199 $78 #
plane-surface $-1 0 33.475892404661273 0 0 -1 0 0 0 -1 forward_v I I I I #
coedge $-1 $200 $201 $202 $203 forward $79 $-1 #
face $-1 $204 $205 $47 $-1 $206 reversed single #
loop $-1 $-1 $207 $81 #
plane-surface $-1 0 0 11.650513681578301 0 0 1 1 0 0 forward_v I I I I #
coedge $-1 $208 $209 $210 $211 forward $82 $-1 #
face $-1 $212 $213 $48 $-1 $214 reversed single #
loop $-1 $-1 $215 $84 #
plane-surface $-1 -35.308550724884952 -33.47589240466128 8.471785150970419 0 -0.73135370988377701 0.68199835119979291 1 0 0 forward_v I I I I #
coedge $-1 $216 $217 $218 $219 reversed $85 $-1 #
face $-1 $-1 $220 $49 $-1 $221 forward single #
loop $-1 $222 $223 $87 #
cone-surface $-1 -37.973708003011062 -30.609683710273742 8.7704529150936192 0 0.73135370988377701 -0.68199835119979291 0.25 0 0 1 I I -0.70710678118654746 0.70710678118654746 0.25 forward I I I I #
loop $-1 $-1 $224 $64 #
coedge $-1 $140 $140 $225 $226 reversed $88 $-1 #
face $-1 $-1 $227 $50 $-1 $228 forward single #
loop $-1 $229 $230 $90 #
cone-surface $-1 -32.643393446758836 -30.609683710273742 8.7704529150936192 0 0.73135370988377701 -0.68199835119979291 0.25 0 0 1 I I -0.70710678118654746 0.70710678118654746 0.25 forward I I I I #
loop $-1 $-1 $231 $65 #
coedge $-1 $145 $145 $232 $233 reversed $91 $-1 #
face $-1 $234 $235 $51 $-1 $236 reversed single #
loop $-1 $-1 $237 $93 #
plane-surface $-1 -12.700175748637506 -33.47589240466128 8.471785150970419 0 -0.73135370988377701 0.68199835119979291 1 0 0 forward_v I I I I #
coedge $-1 $238 $239 $240 $241 reversed $94 $-1 #
face $-1 $-1 $242 $52 $-1 $243 forward single #
loop $-1 $244 $245 $96 #
cone-surface $-1 -15.365333026763615 -30.609683710273742 8.7704529150936192 0 0.73135370988377701 -0.68199835119979291 0.25 0 0 1 I I -0.70710678118654746 0.70710678118654746 0.25 forward I I I I #
loop $-1 $-1 $246 $67 #
coedge $-1 $154 $154 $247 $248 reversed $97 $-1 #
face $-1 $-1 $249 $53 $-1 $250 forward single #
loop $-1 $251 $252 $99 #
cone-surface $-1 -10.035018470511389 -30.609683710273742 8.7704529150936192 0 0.73135370988377701 -0.68199835119979291 0.25 0 0 1 I I -0.70710678118654746 0.70710678118654746 0.25 forward I I I I #
loop $-1 $-1 $253 $68 #
coedge $-1 $159 $159 $254 $255 reversed $100 $-1 #
face $-1 $256 $257 $54 $-1 $258 reversed single #
loop $-1 $-1 $259 $102 #
plane-surface $-1 9.9081992276099413 -33.47589240466128 8.471785150970419 0 -0.73135370988377701 0.68199835119979291 1 0 0 forward_v I I I I #
coedge $-1 $260 $261 $262 $263 reversed $103 $-1 #
face $-1 $-1 $264 $55 $-1 $265 forward single #
loop $-1 $266 $267 $105 #
cone-surface $-1 7.2430419494838247 -30.609683710273742 8.7704529150936192 0 0.73135370988377701 -0.68199835119979291 0.25 0 0 1 I I -0.70710678118654746 0.70710678118654746 0.25 forward I I I I #
loop $-1 $-1 $268 $70 #
coedge $-1 $168 $168 $269 $270 reversed $106 $-1 #
face $-1 $-1 $271 $56 $-1 $272 forward single #
loop $-1 $273 $274 $108 #
cone-surface $-1 12.573356505736058 -30.609683710273742 8.7704529150936192 0 0.73135370988377701 -0.68199835119979291 0.25 0 0 1 I I -0.70710678118654746 0.70710678118654746 0.25 forward I I I I #
loop $-1 $-1 $275 $71 #
coedge $-1 $173 $173 $276 $277 reversed $109 $-1 #
face $-1 $278 $279 $57 $-1 $280 reversed single #
loop $-1 $-1 $281 $111 #
plane-surface $-1 32.516574203857388 -33.47589240466128 8.471785150970419 0 -0.73135370988377701 0.68199835119979291 1 0 0 forward_v I I I I #
coedge $-1 $282 $283 $284 $285 reversed $112 $-1 #
face $-1 $-1 $286 $58 $-1 $287 forward single #
loop $-1 $288 $289 $114 #
cone-surface $-1 29.851416925731272 -30.609683710273742 8.7704529150936192 0 0.73135370988377701 -0.68199835119979291 0.25 0 0 1 I I -0.70710678118654746 0.70710678118654746 0.25 forward I I I I #
loop $-1 $-1 $290 $73 #
coedge $-1 $182 $182 $291 $292 reversed $115 $-1 #
face $-1 $-1 $293 $59 $-1 $294 forward single #
loop $-1 $295 $296 $117 #
cone-surface $-1 35.181731481983505 -30.609683710273742 8.7704529150936192 0 0.73135370988377701 -0.68199835119979291 0.25 0 0 1 I I -0.70710678118654746 0.70710678118654746 0.25 forward I I I I #
loop $-1 $-1 $297 $74 #
coedge $-1 $187 $187 $298 $299 reversed $118 $-1 #
face $-1 $300 $301 $45 $-1 $302 reversed single #
loop $-1 $-1 $303 $120 #
plane-surface $-1 0 -33.475892404661273 0 0 1 0 0 0 1 forward_v I I I I #
coedge $-1 $304 $305 $306 $307 forward $121 $-1 #
coedge $-1 $308 $123 $309 $310 forward $76 $-1 #
coedge $-1 $123 $308 $311 $312 forward $76 $-1 #
coedge $-1 $313 $314 $123 $195 reversed $315 $-1 #
edge $-1 $316 -33.475892404661273 $317 33.475892404661273 $194 $318 forward 7 unknown #
face $-1 $319 $320 $46 $-1 $321 reversed single #
loop $-1 $-1 $202 $124 #
plane-surface $-1 -64.226550405996889 0 8.6505136815783015 0 0 1 1 0 0 forward_v I I I I #
coedge $-1 $322 $323 $200 $324 forward $125 $-1 #
coedge $-1 $325 $127 $199 $324 reversed $79 $-1 #
coedge $-1 $127 $325 $326 $327 reversed $79 $-1 #
coedge $-1 $328 $329 $127 $203 reversed $197 $-1 #
edge $-1 $330 -33.475892404661273 $331 33.475892404661273 $202 $332 forward 7 unknown #
face $-1 $333 $334 $47 $-1 $335 reversed single #
loop $-1 $-1 $336 $128 #
plane-surface $-1 0 -33.475892404661273 0 0 1 0 0 0 1 forward_v I I I I #
coedge $-1 $337 $338 $339 $340 forward $129 $-1 #
coedge $-1 $339 $131 $336 $341 reversed $82 $-1 #
coedge $-1 $131 $339 $342 $343 reversed $82 $-1 #
coedge $-1 $344 $345 $131 $211 reversed $334 $-1 #
edge $-1 $346 -33.475892404661273 $347 33.475892404661273 $210 $348 forward 7 unknown #
face $-1 $349 $350 $48 $-1 $351 reversed single #
loop $-1 $-1 $352 $132 #
plane-surface $-1 -41.527251040512546 -118.15195217237508 87.433486400633996 1 0 0 0 0.73135370988377701 -0.68199835119979291 forward_v I I I I #
coedge $-1 $353 $354 $355 $356 reversed $133 $-1 #
coedge $-1 $217 $135 $357 $358 reversed $85 $-1 #
coedge $-1 $135 $216 $353 $359 reversed $85 $-1 #
coedge $-1 $355 $360 $135 $219 forward $361 $-1 #
edge $-1 $362 25.600083681526264 $363 28.564295919036923 $218 $364 forward 7 unknown #
loop $-1 $-1 $225 $136 #
plane-surface $-1 -35.308550724884952 -33.47589240466128 8.471785150970419 0 -0.73135370988377701 0.68199835119979291 1 0 0 forward_v I I I I #
loop $-1 $-1 $365 $87 #
coedge $-1 $223 $223 $224 $366 reversed $137 $-1 #
coedge $-1 $224 $224 $223 $366 forward $139 $-1 #
coedge $-1 $225 $225 $140 $226 forward $220 $-1 #
edge $-1 $367 -2.9489812449829778e-015 $367 6.2831853071795978 $225 $368 forward 7 unknown #
loop $-1 $-1 $232 $141 #
plane-surface $-1 -35.308550724884952 -33.47589240466128 8.471785150970419 0 -0.73135370988377701 0.68199835119979291 1 0 0 forward_v I I I I #
loop $-1 $-1 $369 $90 #
coedge $-1 $230 $230 $231 $370 reversed $142 $-1 #
coedge $-1 $231 $231 $230 $370 forward $144 $-1 #
coedge $-1 $232 $232 $145 $233 forward $227 $-1 #
edge $-1 $371 -2.9489812449829778e-015 $371 6.2831853071795978 $232 $372 forward 7 unknown #
face $-1 $373 $374 $51 $-1 $375 reversed single #
loop $-1 $-1 $376 $146 #
plane-surface $-1 -18.918876064265099 -118.15195217237508 87.433486400633996 1 0 0 0 0.73135370988377701 -0.68199835119979291 forward_v I I I I #
coedge $-1 $377 $378 $379 $380 reversed $147 $-1 #
coedge $-1 $239 $149 $381 $382 reversed $94 $-1 #
coedge $-1 $149 $238 $377 $383 reversed $94 $-1 #
coedge $-1 $379 $384 $149 $241 forward $385 $-1 #
edge $-1 $386 25.600083681526264 $387 28.564295919036923 $240 $388 forward 7 unknown #
loop $-1 $-1 $247 $150 #
plane-surface $-1 -12.700175748637506 -33.47589240466128 8.471785150970419 0 -0.73135370988377701 0.68199835119979291 1 0 0 forward_v I I I I #
loop $-1 $-1 $389 $96 #
coedge $-1 $245 $245 $246 $390 reversed $151 $-1 #
coedge $-1 $246 $246 $245 $390 forward $153 $-1 #
coedge $-1 $247 $247 $154 $248 forward $242 $-1 #
edge $-1 $391 -2.9489812449829778e-015 $391 6.2831853071795978 $247 $392 forward 7 unknown #
loop $-1 $-1 $254 $155 #
plane-surface $-1 -12.700175748637506 -33.47589240466128 8.471785150970419 0 -0.73135370988377701 0.68199835119979291 1 0 0 forward_v I I I I #
loop $-1 $-1 $393 $99 #
coedge $-1 $252 $252 $253 $394 reversed $156 $-1 #
coedge $-1 $253 $253 $252 $394 forward $158 $-1 #
coedge $-1 $254 $254 $159 $255 forward $249 $-1 #
edge $-1 $395 -2.9489812449829778e-015 $395 6.2831853071795978 $254 $396 forward 7 unknown #
face $-1 $397 $398 $54 $-1 $399 reversed single #
loop $-1 $-1 $400 $160 #
plane-surface $-1 3.689498911982346 -118.15195217237508 87.433486400633996 1 0 0 0 0.73135370988377701 -0.68199835119979291 forward_v I I I I #
coedge $-1 $401 $402 $403 $404 reversed $161 $-1 #
coedge $-1 $261 $163 $405 $406 reversed $103 $-1 #
coedge $-1 $163 $260 $401 $407 reversed $103 $-1 #
coedge $-1 $403 $408 $163 $263 forward $409 $-1 #
edge $-1 $410 25.600083681526264 $411 28.564295919036923 $262 $412 forward 7 unknown #
loop $-1 $-1 $269 $164 #
plane-surface $-1 9.9081992276099413 -33.47589240466128 8.471785150970419 0 -0.73135370988377701 0.68199835119979291 1 0 0 forward_v I I I I #
loop $-1 $-1 $413 $105 #
coedge $-1 $267 $267 $268 $414 reversed $165 $-1 #
coedge $-1 $268 $268 $267 $414 forward $167 $-1 #
coedge $-1 $269 $269 $168 $270 forward $264 $-1 #
edge $-1 $415 -2.9489812449829778e-015 $415 6.2831853071795978 $269 $416 forward 7 unknown #
loop $-1 $-1 $276 $169 #
plane-surface $-1 9.9081992276099413 -33.47589240466128 8.471785150970419 0 -0.73135370988377701 0.68199835119979291 1 0 0 forward_v I I I I #
loop $-1 $-1 $417 $108 #
coedge $-1 $274 $274 $275 $418 reversed $170 $-1 #
coedge $-1 $275 $275 $274 $418 forward $172 $-1 #
coedge $-1 $276 $276 $173 $277 forward $271 $-1 #
edge $-1 $419 -2.9489812449829778e-015 $419 6.2831853071795978 $276 $420 forward 7 unknown #
face $-1 $421 $422 $57 $-1 $423 reversed single #
loop $-1 $-1 $424 $174 #
plane-surface $-1 26.297873888229795 -118.15195217237508 87.433486400633996 1 0 0 0 0.73135370988377701 -0.68199835119979291 forward_v I I I I #
coedge $-1 $425 $426 $427 $428 reversed $175 $-1 #
coedge $-1 $283 $177 $429 $430 reversed $112 $-1 #
coedge $-1 $177 $282 $425 $431 reversed $112 $-1 #
coedge $-1 $427 $432 $177 $285 forward $433 $-1 #
edge $-1 $434 25.600083681526264 $435 28.564295919036923 $284 $436 forward 7 unknown #
loop $-1 $-1 $291 $178 #
plane-surface $-1 32.516574203857388 -33.47589240466128 8.471785150970419 0 -0.73135370988377701 0.68199835119979291 1 0 0 forward_v I I I I #
loop $-1 $-1 $437 $114 #
coedge $-1 $289 $289 $290 $438 reversed $179 $-1 #
coedge $-1 $290 $290 $289 $438 forward $181 $-1 #
coedge $-1 $291 $291 $182 $292 forward $286 $-1 #
edge $-1 $439 -2.9489812449829778e-015 $439 6.2831853071795978 $291 $440 forward 7 unknown #
loop $-1 $-1 $298 $183 #
plane-surface $-1 32.516574203857388 -33.47589240466128 8.471785150970419 0 -0.73135370988377701 0.68199835119979291 1 0 0 forward_v I I I I #
loop $-1 $-1 $441 $117 #
coedge $-1 $296 $296 $297 $442 reversed $184 $-1 #
coedge $-1 $297 $297 $296 $442 forward $186 $-1 #
coedge $-1 $298 $298 $187 $299 forward $293 $-1 #
edge $-1 $443 -2.9489812449829778e-015 $443 6.2831853071795978 $298 $444 forward 7 unknown #
face $-1 $445 $446 $45 $-1 $447 reversed single #
loop $-1 $-1 $448 $188 #
plane-surface $-1 -57.889950254829557 0 0 1 0 0 0 0 -1 forward_v I I I I #
coedge $-1 $449 $311 $450 $451 forward $189 $-1 #
coedge $-1 $452 $191 $449 $453 forward $121 $-1 #
coedge $-1 $191 $452 $454 $455 forward $121 $-1 #
coedge $-1 $314 $313 $191 $307 reversed $315 $-1 #
edge $-1 $456 -33.475892404661273 $457 33.475892404661273 $306 $458 forward 7 unknown #
coedge $-1 $193 $192 $459 $460 forward $76 $-1 #
coedge $-1 $461 $462 $192 $310 reversed $446 $-1 #
edge $-1 $317 -57.889950254829557 $463 57.889950254829557 $309 $464 forward 7 unknown #
coedge $-1 $303 $465 $193 $312 reversed $189 $-1 #
edge $-1 $466 -57.889950254829557 $316 57.889950254829557 $311 $467 forward 7 unknown #
coedge $-1 $306 $194 $465 $468 forward $315 $-1 #
coedge $-1 $194 $306 $461 $469 reversed $315 $-1 #
loop $-1 $-1 $313 $445 #
vertex $-1 $195 $470 #
vertex $-1 $195 $471 #
straight-curve $-1 57.889950254829557 0 11.650513681578301 0 1 0 I I #
face $-1 $472 $473 $46 $-1 $474 forward single #
loop $-1 $-1 $475 $196 #
plane-surface $-1 -70.563150557164221 0 10.150513681578301 1 0 0 0 0 -1 forward_v I I I I #
coedge $-1 $476 $199 $329 $477 reversed $125 $-1 #
coedge $-1 $199 $476 $478 $479 reversed $125 $-1 #
edge $-1 $480 -11.650513681578301 $331 -8.6505136815783015 $199 $481 forward 7 unknown #
coedge $-1 $201 $200 $482 $483 reversed $79 $-1 #
coedge $-1 $484 $485 $201 $327 forward $486 $-1 #
edge $-1 $330 8.6505136815783015 $487 11.650513681578301 $326 $488 forward 7 unknown #
coedge $-1 $489 $202 $485 $490 forward $197 $-1 #
coedge $-1 $202 $489 $322 $477 forward $197 $-1 #
vertex $-1 $327 $491 #
vertex $-1 $324 $492 #
straight-curve $-1 -57.889950254829557 0 8.6505136815783015 0 1 0 I I #
face $-1 $493 $494 $47 $-1 $495 reversed single #
loop $-1 $-1 $496 $204 #
plane-surface $-1 64.226550405996889 0 8.6505136815783015 0 0 1 1 0 0 forward_v I I I I #
coedge $-1 $497 $498 $208 $341 forward $205 $-1 #
coedge $-1 $499 $207 $498 $500 forward $129 $-1 #
coedge $-1 $207 $499 $501 $502 forward $129 $-1 #
coedge $-1 $209 $208 $207 $340 reversed $82 $-1 #
edge $-1 $503 -33.475892404661273 $504 33.475892404661273 $207 $505 forward 7 unknown #
edge $-1 $504 -11.650513681578301 $347 -8.6505136815783015 $336 $506 forward 7 unknown #
coedge $-1 $501 $507 $209 $343 forward $508 $-1 #
edge $-1 $346 8.6505136815783015 $503 11.650513681578301 $342 $509 forward 7 unknown #
coedge $-1 $496 $210 $507 $510 forward $334 $-1 #
coedge $-1 $210 $496 $497 $511 forward $334 $-1 #
vertex $-1 $343 $512 #
vertex $-1 $341 $513 #
straight-curve $-1 57.889950254829557 0 8.6505136815783015 0 -1 0 I I #
face $-1 $-1 $361 $48 $-1 $514 forward single #
loop $-1 $-1 $515 $212 #
plane-surface $-1 0 -33.475892404661273 0 0 1 0 0 0 1 forward_v I I I I #
coedge $-1 $516 $517 $518 $519 reversed $213 $-1 #
coedge $-1 $520 $215 $217 $359 forward $133 $-1 #
coedge $-1 $215 $520 $516 $521 forward $133 $-1 #
coedge $-1 $518 $218 $215 $356 forward $361 $-1 #
edge $-1 $363 11.435575046814883 $522 23.87297567807007 $355 $523 forward 7 unknown #
coedge $-1 $524 $525 $216 $358 forward $350 $-1 #
edge $-1 $526 -35.244958049346572 $362 -32.066229518738695 $357 $527 forward 7 unknown #
edge $-1 $363 -4.3463627621620047 $526 -1.004247040074496e-014 $217 $528 forward 7 unknown #
coedge $-1 $218 $518 $524 $529 forward $361 $-1 #
loop $-1 $-1 $518 $349 #
vertex $-1 $358 $530 #
vertex $-1 $219 $531 #
straight-curve $-1 -29.089850409257359 -59.075976086187538 11.650513681578303 0 1 0 I I #
coedge $-1 $365 $365 $-1 $532 reversed $222 $-1 #
edge $-1 $533 0 $533 6.2831853071796004 $223 $534 forward 7 unknown #
vertex $-1 $226 $535 #
ellipse-curve $-1 -37.973708003011062 -31.993786285905944 10.061149416274365 0 -0.73135370988377701 0.68199835119979291 0.5 0 0 1 I I #
coedge $-1 $369 $369 $-1 $536 reversed $229 $-1 #
edge $-1 $537 0 $537 6.2831853071796004 $230 $538 forward 7 unknown #
vertex $-1 $233 $539 #
ellipse-curve $-1 -32.643393446758836 -31.993786285905944 10.061149416274365 0 -0.73135370988377701 0.68199835119979291 0.5 0 0 1 I I #
face $-1 $-1 $385 $51 $-1 $540 forward single #
loop $-1 $-1 $541 $234 #
plane-surface $-1 0 -33.475892404661273 0 0 1 0 0 0 1 forward_v I I I I #
coedge $-1 $542 $543 $544 $545 reversed $235 $-1 #
coedge $-1 $546 $237 $239 $383 forward $147 $-1 #
coedge $-1 $237 $546 $542 $547 forward $147 $-1 #
coedge $-1 $544 $240 $237 $380 forward $385 $-1 #
edge $-1 $387 0.13138755869115748 $548 12.568788189946346 $379 $549 forward 7 unknown #
coedge $-1 $550 $551 $238 $382 forward $374 $-1 #
edge $-1 $552 -35.244958049346572 $386 -32.066229518738695 $381 $553 forward 7 unknown #
edge $-1 $387 -4.3463627621620047 $552 -1.004247040074496e-014 $239 $554 forward 7 unknown #
coedge $-1 $240 $544 $550 $555 forward $385 $-1 #
loop $-1 $-1 $544 $373 #
vertex $-1 $382 $556 #
vertex $-1 $241 $557 #
straight-curve $-1 -6.4814754330099102 -59.075976086187538 11.650513681578303 0 1 0 I I #
coedge $-1 $389 $389 $-1 $558 reversed $244 $-1 #
edge $-1 $559 0 $559 6.2831853071796004 $245 $560 forward 7 unknown #
vertex $-1 $248 $561 #
ellipse-curve $-1 -15.365333026763615 -31.993786285905944 10.061149416274365 0 -0.73135370988377701 0.68199835119979291 0.5 0 0 1 I I #
coedge $-1 $393 $393 $-1 $562 reversed $251 $-1 #
edge $-1 $563 0 $563 6.2831853071796004 $252 $564 forward 7 unknown #
vertex $-1 $255 $565 #
ellipse-curve $-1 -10.035018470511389 -31.993786285905944 10.061149416274365 0 -0.73135370988377701 0.68199835119979291 0.5 0 0 1 I I #
face $-1 $-1 $409 $54 $-1 $566 forward single #
loop $-1 $-1 $567 $256 #
plane-surface $-1 0 -33.475892404661273 0 0 1 0 0 0 1 forward_v I I I I #
coedge $-1 $568 $569 $570 $571 reversed $257 $-1 #
coedge $-1 $572 $259 $261 $407 forward $161 $-1 #
coedge $-1 $259 $572 $568 $573 forward $161 $-1 #
coedge $-1 $570 $262 $259 $404 forward $409 $-1 #
edge $-1 $411 -11.172799929432564 $574 1.2646007018226246 $403 $575 forward 7 unknown #
coedge $-1 $576 $577 $260 $406 forward $398 $-1 #
edge $-1 $578 -35.244958049346572 $410 -32.066229518738695 $405 $579 forward 7 unknown #
edge $-1 $411 -4.3463627621620047 $578 -1.004247040074496e-014 $261 $580 forward 7 unknown #
coedge $-1 $262 $570 $576 $581 forward $409 $-1 #
loop $-1 $-1 $570 $397 #
vertex $-1 $406 $582 #
vertex $-1 $263 $583 #
straight-curve $-1 16.126899543237535 -59.075976086187538 11.650513681578303 0 1 0 I I #
coedge $-1 $413 $413 $-1 $584 reversed $266 $-1 #
edge $-1 $585 0 $585 6.2831853071796004 $267 $586 forward 7 unknown #
vertex $-1 $270 $587 #
ellipse-curve $-1 7.2430419494838247 -31.993786285905944 10.061149416274365 0 -0.73135370988377701 0.68199835119979291 0.5 0 0 1 I I #
coedge $-1 $417 $417 $-1 $588 reversed $273 $-1 #
edge $-1 $589 0 $589 6.2831853071796004 $274 $590 forward 7 unknown #
vertex $-1 $277 $591 #
ellipse-curve $-1 12.573356505736058 -31.993786285905944 10.061149416274365 0 -0.73135370988377701 0.68199835119979291 0.5 0 0 1 I I #
face $-1 $-1 $433 $57 $-1 $592 forward single #
loop $-1 $-1 $593 $278 #
plane-surface $-1 0 -33.475892404661273 0 0 1 0 0 0 1 forward_v I I I I #
coedge $-1 $594 $595 $596 $597 reversed $279 $-1 #
coedge $-1 $598 $281 $283 $431 forward $175 $-1 #
coedge $-1 $281 $598 $594 $599 forward $175 $-1 #
coedge $-1 $596 $284 $281 $428 forward $433 $-1 #
edge $-1 $435 -22.476987417556288 $600 -10.039586786301101 $427 $601 forward 7 unknown #
coedge $-1 $602 $603 $282 $430 forward $422 $-1 #
edge $-1 $604 -35.244958049346572 $434 -32.066229518738695 $429 $605 forward 7 unknown #
edge $-1 $435 -4.3463627621620047 $604 -1.004247040074496e-014 $283 $606 forward 7 unknown #
coedge $-1 $284 $596 $602 $607 forward $433 $-1 #
loop $-1 $-1 $596 $421 #
vertex $-1 $430 $608 #
vertex $-1 $285 $609 #
straight-curve $-1 38.735274519484982 -59.075976086187538 11.650513681578303 0 1 0 I I #
coedge $-1 $437 $437 $-1 $610 reversed $288 $-1 #
edge $-1 $611 0 $611 6.2831853071796004 $289 $612 forward 7 unknown #
vertex $-1 $292 $613 #
ellipse-curve $-1 29.851416925731272 -31.993786285905944 10.061149416274365 0 -0.73135370988377701 0.68199835119979291 0.5 0 0 1 I I #
coedge $-1 $441 $441 $-1 $614 reversed $295 $-1 #
edge $-1 $615 0 $615 6.2831853071796004 $296 $616 forward 7 unknown #
vertex $-1 $299 $617 #
ellipse-curve $-1 35.181731481983505 -31.993786285905944 10.061149416274365 0 -0.73135370988377701 0.68199835119979291 0.5 0 0 1 I I #
face $-1 $-1 $315 $45 $-1 $618 reversed single #
loop $-1 $-1 $461 $300 #
plane-surface $-1 0 33.475892404661273 0 0 -1 0 0 0 -1 forward_v I I I I #
coedge $-1 $619 $459 $462 $620 forward $301 $-1 #
coedge $-1 $465 $303 $304 $453 reversed $189 $-1 #
coedge $-1 $459 $619 $303 $451 reversed $301 $-1 #
edge $-1 $466 -11.650513681578301 $621 11.650513681578301 $450 $622 forward 7 unknown #
coedge $-1 $305 $304 $619 $623 forward $121 $-1 #
edge $-1 $457 -57.889950254829557 $621 57.889950254829557 $449 $624 forward 7 unknown #
coedge $-1 $462 $461 $305 $455 reversed $446 $-1 #
edge $-1 $625 -57.889950254829557 $456 57.889950254829557 $454 $626 forward 7 unknown #
vertex $-1 $307 $627 #
vertex $-1 $468 $628 #
straight-curve $-1 57.889950254829557 0 -11.650513681578301 0 -1 0 I I #
coedge $-1 $448 $450 $308 $460 reversed $301 $-1 #
edge $-1 $463 -33.475892404661273 $466 33.475892404661273 $459 $629 forward 7 unknown #
coedge $-1 $454 $309 $314 $469 forward $446 $-1 #
coedge $-1 $309 $454 $448 $620 reversed $446 $-1 #
vertex $-1 $310 $630 #
straight-curve $-1 0 33.475892404661273 11.650513681578301 -1 0 0 I I #
coedge $-1 $311 $449 $313 $468 reversed $189 $-1 #
vertex $-1 $460 $631 #
straight-curve $-1 0 -33.475892404661273 11.650513681578301 1 0 0 I I #
edge $-1 $316 -11.650513681578301 $457 11.650513681578301 $313 $632 forward 7 unknown #
edge $-1 $317 -11.650513681578301 $456 11.650513681578301 $314 $633 forward 7 unknown #
point $-1 57.889950254829557 -33.475892404661273 11.650513681578301 #
point $-1 57.889950254829557 33.475892404661273 11.650513681578301 #
face $-1 $-1 $486 $46 $-1 $634 reversed single #
loop $-1 $-1 $482 $319 #
plane-surface $-1 0 0 11.650513681578301 0 0 1 1 0 0 forward_v I I I I #
coedge $-1 $635 $636 $476 $637 forward $320 $-1 #
coedge $-1 $323 $322 $475 $637 reversed $125 $-1 #
edge $-1 $638 -6.3366001511673318 $331 6.3366001511673318 $322 $639 forward 7 unknown #
coedge $-1 $640 $482 $323 $479 forward $473 $-1 #
edge $-1 $480 57.889950254829557 $641 70.563150557164221 $323 $642 forward 7 unknown #
vertex $-1 $479 $643 #
straight-curve $-1 -57.889950254829557 33.475892404661273 0 0 0 -1 I I #
coedge $-1 $478 $644 $325 $483 forward $473 $-1 #
edge $-1 $487 -33.475892404661273 $480 33.475892404661273 $482 $645 forward 7 unknown #
coedge $-1 $646 $326 $644 $647 reversed $486 $-1 #
coedge $-1 $326 $646 $328 $490 reversed $486 $-1 #
loop $-1 $-1 $326 $472 #
vertex $-1 $327 $648 #
straight-curve $-1 -57.889950254829557 -33.475892404661273 0 0 0 1 I I #
coedge $-1 $329 $328 $635 $649 forward $197 $-1 #
edge $-1 $330 -6.3366001511673318 $650 6.3366001511673318 $485 $651 forward 7 unknown #
point $-1 -57.889950254829557 -33.475892404661273 8.6505136815783015 #
point $-1 -57.889950254829557 33.475892404661273 8.6505136815783015 #
face $-1 $-1 $508 $47 $-1 $652 reversed single #
loop $-1 $-1 $653 $333 #
plane-surface $-1 70.563150557164221 0 10.150513681578301 -1 0 0 0 0 1 forward_v I I I I #
coedge $-1 $345 $344 $654 $655 forward $334 $-1 #
coedge $-1 $656 $336 $345 $511 reversed $205 $-1 #
coedge $-1 $336 $656 $337 $500 reversed $205 $-1 #
coedge $-1 $338 $337 $657 $658 forward $129 $-1 #
edge $-1 $504 -6.3366001511673318 $659 6.3366001511673318 $498 $660 forward 7 unknown #
coedge $-1 $661 $342 $338 $502 reversed $508 $-1 #
edge $-1 $662 -70.563150557164221 $503 -57.889950254829557 $501 $663 forward 7 unknown #
vertex $-1 $343 $664 #
vertex $-1 $500 $665 #
straight-curve $-1 57.889950254829557 0 11.650513681578301 0 -1 0 I I #
straight-curve $-1 57.889950254829557 -33.475892404661273 0 0 0 -1 I I #
coedge $-1 $342 $661 $344 $510 reversed $508 $-1 #
loop $-1 $-1 $342 $493 #
straight-curve $-1 57.889950254829557 33.475892404661273 0 0 0 1 I I #
edge $-1 $346 -6.3366001511673318 $666 6.3366001511673318 $507 $667 forward 7 unknown #
edge $-1 $668 -6.3366001511673318 $347 6.3366001511673318 $497 $669 forward 7 unknown #
point $-1 57.889950254829557 33.475892404661273 8.6505136815783015 #
point $-1 57.889950254829557 -33.475892404661273 8.6505136815783015 #
plane-surface $-1 0 0 11.650513681578301 0 0 1 1 0 0 forward_v I I I I #
coedge $-1 $525 $524 $517 $670 forward $350 $-1 #
coedge $-1 $517 $352 $354 $521 reversed $213 $-1 #
coedge $-1 $352 $516 $515 $670 reversed $213 $-1 #
coedge $-1 $360 $355 $352 $519 forward $361 $-1 #
edge $-1 $522 -28.564295919036923 $671 -25.600083681526264 $518 $672 forward 7 unknown #
coedge $-1 $354 $353 $525 $673 reversed $133 $-1 #
edge $-1 $674 1.004247040074496e-014 $522 4.3463627621620047 $516 $675 forward 7 unknown #
vertex $-1 $356 $676 #
straight-curve $-1 -17.654275362442476 -30.511680167150615 11.650513681578301 -1 0 0 I I #
coedge $-1 $515 $357 $360 $529 reversed $350 $-1 #
coedge $-1 $357 $515 $520 $673 forward $350 $-1 #
vertex $-1 $358 $677 #
straight-curve $-1 -29.089850409257359 -33.475892404661273 43.716743200316998 0 0 1 I I #
straight-curve $-1 -29.089850409257359 -33.47589240466128 8.471785150970419 0 -0.68199835119979291 -0.73135370988377701 I I #
edge $-1 $671 -105.75380144650944 $362 -93.316400815254241 $524 $678 forward 7 unknown #
point $-1 -29.089850409257352 -33.475892404661273 11.650513681578301 #
point $-1 -29.089850409257359 -30.511680167150615 11.650513681578301 #
edge $-1 $679 1 $679 0 $365 $-1 forward 7 unknown #
vertex $-1 $366 $680 #
ellipse-curve $-1 -37.973708003011062 -30.792522137744687 8.9409525028935679 0 -0.73135370988377701 0.68199835119979291 0.5 0 0 1 I I #
point $-1 -37.473708003011062 -31.993786285905941 10.061149416274359 #
edge $-1 $681 1 $681 0 $369 $-1 forward 7 unknown #
vertex $-1 $370 $682 #
ellipse-curve $-1 -32.643393446758836 -30.792522137744687 8.9409525028935679 0 -0.73135370988377701 0.68199835119979291 0.5 0 0 1 I I #
point $-1 -32.143393446758836 -31.993786285905941 10.061149416274359 #
plane-surface $-1 0 0 11.650513681578301 0 0 1 1 0 0 forward_v I I I I #
coedge $-1 $551 $550 $543 $683 forward $374 $-1 #
coedge $-1 $543 $376 $378 $547 reversed $235 $-1 #
coedge $-1 $376 $542 $541 $683 reversed $235 $-1 #
coedge $-1 $384 $379 $376 $545 forward $385 $-1 #
edge $-1 $548 -28.564295919036923 $684 -25.600083681526264 $544 $685 forward 7 unknown #
coedge $-1 $378 $377 $551 $686 reversed $147 $-1 #
edge $-1 $687 1.004247040074496e-014 $548 4.3463627621620047 $542 $688 forward 7 unknown #
vertex $-1 $380 $689 #
straight-curve $-1 -6.3500878743187528 -30.511680167150615 11.650513681578301 -1 0 0 I I #
coedge $-1 $541 $381 $384 $555 reversed $374 $-1 #
coedge $-1 $381 $541 $546 $686 forward $374 $-1 #
vertex $-1 $382 $690 #
straight-curve $-1 -6.4814754330099102 -33.475892404661273 43.716743200316998 0 0 1 I I #
straight-curve $-1 -6.4814754330099102 -33.47589240466128 8.471785150970419 0 -0.68199835119979291 -0.73135370988377701 I I #
edge $-1 $684 -83.145426470261981 $386 -70.708025839006794 $550 $691 forward 7 unknown #
point $-1 -6.4814754330099049 -33.475892404661273 11.650513681578301 #
point $-1 -6.4814754330099102 -30.511680167150615 11.650513681578301 #
edge $-1 $692 1 $692 0 $389 $-1 forward 7 unknown #
vertex $-1 $390 $693 #
ellipse-curve $-1 -15.365333026763615 -30.792522137744687 8.9409525028935679 0 -0.73135370988377701 0.68199835119979291 0.5 0 0 1 I I #
point $-1 -14.865333026763615 -31.993786285905941 10.061149416274359 #
edge $-1 $694 1 $694 0 $393 $-1 forward 7 unknown #
vertex $-1 $394 $695 #
ellipse-curve $-1 -10.035018470511389 -30.792522137744687 8.9409525028935679 0 -0.73135370988377701 0.68199835119979291 0.5 0 0 1 I I #
point $-1 -9.535018470511389 -31.993786285905941 10.061149416274359 #
plane-surface $-1 0 0 11.650513681578301 0 0 1 1 0 0 forward_v I I I I #
coedge $-1 $577 $576 $569 $696 forward $398 $-1 #
coedge $-1 $569 $400 $402 $573 reversed $257 $-1 #
coedge $-1 $400 $568 $567 $696 reversed $257 $-1 #
coedge $-1 $408 $403 $400 $571 forward $409 $-1 #
edge $-1 $574 -28.564295919036923 $697 -25.600083681526264 $570 $698 forward 7 unknown #
coedge $-1 $402 $401 $577 $699 reversed $161 $-1 #
edge $-1 $700 1.004247040074496e-014 $574 4.3463627621620047 $568 $701 forward 7 unknown #
vertex $-1 $404 $702 #
straight-curve $-1 4.9540996138049707 -30.511680167150615 11.650513681578301 -1 0 0 I I #
coedge $-1 $567 $405 $408 $581 reversed $398 $-1 #
coedge $-1 $405 $567 $572 $699 forward $398 $-1 #
vertex $-1 $406 $703 #
straight-curve $-1 16.126899543237535 -33.475892404661273 43.716743200316998 0 0 1 I I #
straight-curve $-1 16.126899543237535 -33.47589240466128 8.471785150970419 0 -0.68199835119979291 -0.73135370988377701 I I #
edge $-1 $697 -60.537051494014541 $410 -48.099650862759354 $576 $704 forward 7 unknown #
point $-1 16.126899543237535 -33.475892404661273 11.650513681578301 #
point $-1 16.126899543237535 -30.511680167150615 11.650513681578301 #
edge $-1 $705 1 $705 0 $413 $-1 forward 7 unknown #
vertex $-1 $414 $706 #
ellipse-curve $-1 7.2430419494838247 -30.792522137744687 8.9409525028935679 0 -0.73135370988377701 0.68199835119979291 0.5 0 0 1 I I #
point $-1 7.7430419494838247 -31.993786285905941 10.061149416274359 #
edge $-1 $707 1 $707 0 $417 $-1 forward 7 unknown #
vertex $-1 $418 $708 #
ellipse-curve $-1 12.573356505736058 -30.792522137744687 8.9409525028935679 0 -0.73135370988377701 0.68199835119979291 0.5 0 0 1 I I #
point $-1 13.073356505736058 -31.993786285905941 10.061149416274359 #
plane-surface $-1 0 0 11.650513681578301 0 0 1 1 0 0 forward_v I I I I #
coedge $-1 $603 $602 $595 $709 forward $422 $-1 #
coedge $-1 $595 $424 $426 $599 reversed $279 $-1 #
coedge $-1 $424 $594 $593 $709 reversed $279 $-1 #
coedge $-1 $432 $427 $424 $597 forward $433 $-1 #
edge $-1 $600 -28.564295919036923 $710 -25.600083681526264 $596 $711 forward 7 unknown #
coedge $-1 $426 $425 $603 $712 reversed $175 $-1 #
edge $-1 $713 1.004247040074496e-014 $600 4.3463627621620047 $594 $714 forward 7 unknown #
vertex $-1 $428 $715 #
straight-curve $-1 16.258287101928694 -30.511680167150615 11.650513681578301 -1 0 0 I I #
coedge $-1 $593 $429 $432 $607 reversed $422 $-1 #
coedge $-1 $429 $593 $598 $712 forward $422 $-1 #
vertex $-1 $430 $716 #
straight-curve $-1 38.735274519484982 -33.475892404661273 43.716743200316998 0 0 1 I I #
straight-curve $-1 38.735274519484982 -33.47589240466128 8.471785150970419 0 -0.68199835119979291 -0.73135370988377701 I I #
edge $-1 $710 -37.928676517767094 $434 -25.491275886511907 $602 $717 forward 7 unknown #
point $-1 38.735274519484982 -33.475892404661273 11.650513681578301 #
point $-1 38.735274519484982 -30.511680167150615 11.650513681578301 #
edge $-1 $718 1 $718 0 $437 $-1 forward 7 unknown #
vertex $-1 $438 $719 #
ellipse-curve $-1 29.851416925731272 -30.792522137744687 8.9409525028935679 0 -0.73135370988377701 0.68199835119979291 0.5 0 0 1 I I #
point $-1 30.351416925731272 -31.993786285905941 10.061149416274359 #
edge $-1 $720 1 $720 0 $441 $-1 forward 7 unknown #
vertex $-1 $442 $721 #
ellipse-curve $-1 35.181731481983505 -30.792522137744687 8.9409525028935679 0 -0.73135370988377701 0.68199835119979291 0.5 0 0 1 I I #
point $-1 35.681731481983505 -31.993786285905941 10.061149416274359 #
plane-surface $-1 57.889950254829557 0 0 -1 0 0 0 0 1 forward_v I I I I #
coedge $-1 $450 $448 $452 $623 reversed $301 $-1 #
edge $-1 $463 -11.650513681578301 $625 11.650513681578301 $462 $722 forward 7 unknown #
vertex $-1 $623 $723 #
straight-curve $-1 -57.889950254829557 -33.475892404661273 0 0 0 -1 I I #
edge $-1 $621 -33.475892404661273 $625 33.475892404661273 $619 $724 forward 7 unknown #
straight-curve $-1 0 -33.475892404661273 -11.650513681578301 -1 0 0 I I #
vertex $-1 $455 $725 #
straight-curve $-1 0 33.475892404661273 -11.650513681578301 1 0 0 I I #
point $-1 57.889950254829557 33.475892404661273 -11.650513681578301 #
point $-1 57.889950254829557 -33.475892404661273 -11.650513681578301 #
straight-curve $-1 -57.889950254829557 0 11.650513681578301 0 -1 0 I I #
point $-1 -57.889950254829557 33.475892404661273 11.650513681578301 #
point $-1 -57.889950254829557 -33.475892404661273 11.650513681578301 #
straight-curve $-1 57.889950254829557 -33.475892404661273 0 0 0 -1 I I #
straight-curve $-1 57.889950254829557 33.475892404661273 0 0 0 -1 I I #
plane-surface $-1 0 -33.475892404661273 0 0 1 0 0 0 1 forward_v I I I I #
coedge $-1 $726 $475 $489 $649 reversed $320 $-1 #
coedge $-1 $475 $726 $640 $727 reversed $320 $-1 #
edge $-1 $641 -1.5 $638 1.5 $476 $728 forward 7 unknown #
vertex $-1 $477 $729 #
straight-curve $-1 -64.226550405996889 33.475892404661273 8.6505136815783015 1 0 0 I I #
coedge $-1 $644 $478 $636 $727 forward $473 $-1 #
vertex $-1 $479 $730 #
straight-curve $-1 0 33.475892404661273 11.650513681578301 -1 0 0 I I #
point $-1 -57.889950254829557 33.475892404661273 11.650513681578301 #
coedge $-1 $482 $640 $484 $647 forward $473 $-1 #
straight-curve $-1 -57.889950254829557 0 11.650513681578301 0 1 0 I I #
coedge $-1 $485 $484 $726 $731 forward $486 $-1 #
edge $-1 $732 -70.563150557164221 $487 -57.889950254829557 $484 $733 forward 7 unknown #
point $-1 -57.889950254829557 -33.475892404661273 11.650513681578301 #
edge $-1 $650 -33.475892404661273 $638 33.475892404661273 $635 $734 forward 7 unknown #
vertex $-1 $649 $735 #
straight-curve $-1 -64.226550405996889 -33.475892404661273 8.6505136815783015 -1 0 0 I I #
plane-surface $-1 0 33.475892404661273 0 0 -1 0 0 0 -1 forward_v I I I I #
coedge $-1 $654 $657 $656 $736 forward $494 $-1 #
coedge $-1 $737 $653 $496 $655 reversed $494 $-1 #
edge $-1 $666 -33.475892404661273 $668 33.475892404661273 $654 $738 forward 7 unknown #
coedge $-1 $498 $497 $653 $736 reversed $205 $-1 #
coedge $-1 $653 $737 $499 $658 reversed $494 $-1 #
edge $-1 $659 -33.475892404661273 $662 33.475892404661273 $657 $739 forward 7 unknown #
vertex $-1 $658 $740 #
straight-curve $-1 64.226550405996889 -33.475892404661273 11.650513681578301 1 0 0 I I #
coedge $-1 $507 $501 $737 $741 forward $508 $-1 #
vertex $-1 $658 $742 #
straight-curve $-1 0 33.475892404661273 11.650513681578301 -1 0 0 I I #
point $-1 57.889950254829557 33.475892404661273 11.650513681578301 #
point $-1 57.889950254829557 -33.475892404661273 11.650513681578301 #
vertex $-1 $655 $743 #
straight-curve $-1 64.226550405996889 33.475892404661273 8.6505136815783015 1 0 0 I I #
vertex $-1 $736 $744 #
straight-curve $-1 64.226550405996889 -33.475892404661273 8.6505136815783015 -1 0 0 I I #
edge $-1 $671 32.066229518738695 $674 35.244958049346572 $515 $745 forward 7 unknown #
vertex $-1 $529 $746 #
straight-curve $-1 -41.527251040512546 -59.075976086187538 11.650513681578303 0 -1 0 I I #
edge $-1 $674 -23.87297567807007 $526 -11.435575046814883 $525 $747 forward 7 unknown #
vertex $-1 $673 $748 #
straight-curve $-1 -41.527251040512546 -33.47589240466128 8.471785150970419 0 0.68199835119979291 0.73135370988377701 I I #
point $-1 -41.527251040512546 -30.511680167150615 11.650513681578301 #
point $-1 -29.089850409257359 -33.475892404661273 8.4717851509704261 #
straight-curve $-1 64.226550405996889 -33.475892404661273 11.650513681578301 1 0 0 I I #
vertex $-1 $532 $749 #
point $-1 -37.473708003011062 -30.792522137744687 8.9409525028935679 #
vertex $-1 $536 $750 #
point $-1 -32.143393446758836 -30.792522137744687 8.9409525028935679 #
edge $-1 $684 32.066229518738695 $687 35.244958049346572 $541 $751 forward 7 unknown #
vertex $-1 $555 $752 #
straight-curve $-1 -18.918876064265099 -59.075976086187538 11.650513681578303 0 -1 0 I I #
edge $-1 $687 -12.568788189946346 $552 -0.13138755869115748 $551 $753 forward 7 unknown #
vertex $-1 $686 $754 #
straight-curve $-1 -18.918876064265099 -33.47589240466128 8.471785150970419 0 0.68199835119979291 0.73135370988377701 I I #
point $-1 -18.918876064265099 -30.511680167150615 11.650513681578301 #
point $-1 -6.4814754330099102 -33.475892404661273 8.4717851509704261 #
straight-curve $-1 64.226550405996889 -33.475892404661273 11.650513681578301 1 0 0 I I #
vertex $-1 $558 $755 #
point $-1 -14.865333026763615 -30.792522137744687 8.9409525028935679 #
vertex $-1 $562 $756 #
point $-1 -9.535018470511389 -30.792522137744687 8.9409525028935679 #
edge $-1 $697 32.066229518738695 $700 35.244958049346572 $567 $757 forward 7 unknown #
vertex $-1 $581 $758 #
straight-curve $-1 3.689498911982346 -59.075976086187538 11.650513681578303 0 -1 0 I I #
edge $-1 $700 -1.2646007018226246 $578 11.172799929432564 $577 $759 forward 7 unknown #
vertex $-1 $699 $760 #
straight-curve $-1 3.689498911982346 -33.47589240466128 8.471785150970419 0 0.68199835119979291 0.73135370988377701 I I #
point $-1 3.689498911982346 -30.511680167150615 11.650513681578301 #
point $-1 16.126899543237535 -33.475892404661273 8.4717851509704261 #
straight-curve $-1 64.226550405996889 -33.475892404661273 11.650513681578301 1 0 0 I I #
vertex $-1 $584 $761 #
point $-1 7.7430419494838247 -30.792522137744687 8.9409525028935679 #
vertex $-1 $588 $762 #
point $-1 13.073356505736058 -30.792522137744687 8.9409525028935679 #
edge $-1 $710 32.066229518738695 $713 35.244958049346572 $593 $763 forward 7 unknown #
vertex $-1 $607 $764 #
straight-curve $-1 26.297873888229795 -59.075976086187538 11.650513681578303 0 -1 0 I I #
edge $-1 $713 10.039586786301101 $604 22.476987417556288 $603 $765 forward 7 unknown #
vertex $-1 $712 $766 #
straight-curve $-1 26.297873888229795 -33.47589240466128 8.471785150970419 0 0.68199835119979291 0.73135370988377701 I I #
point $-1 26.297873888229795 -30.511680167150615 11.650513681578301 #
point $-1 38.735274519484982 -33.475892404661273 8.4717851509704261 #
straight-curve $-1 64.226550405996889 -33.475892404661273 11.650513681578301 1 0 0 I I #
vertex $-1 $610 $767 #
point $-1 30.351416925731272 -30.792522137744687 8.9409525028935679 #
vertex $-1 $614 $768 #
point $-1 35.681731481983505 -30.792522137744687 8.9409525028935679 #
straight-curve $-1 -57.889950254829557 33.475892404661273 0 0 0 -1 I I #
point $-1 -57.889950254829557 -33.475892404661273 -11.650513681578301 #
straight-curve $-1 -57.889950254829557 0 -11.650513681578301 0 1 0 I I #
point $-1 -57.889950254829557 33.475892404661273 -11.650513681578301 #
coedge $-1 $636 $635 $646 $731 reversed $320 $-1 #
edge $-1 $641 -33.475892404661273 $732 33.475892404661273 $636 $769 forward 7 unknown #
straight-curve $-1 -70.563150557164221 33.475892404661273 10.150513681578301 0 0 -1 I I #
point $-1 -70.563150557164221 33.475892404661273 8.6505136815783015 #
point $-1 -70.563150557164221 33.475892404661273 11.650513681578301 #
edge $-1 $732 -1.5 $650 1.5 $726 $770 forward 7 unknown #
vertex $-1 $727 $771 #
straight-curve $-1 0 -33.475892404661273 11.650513681578301 1 0 0 I I #
straight-curve $-1 -70.563150557164221 0 8.6505136815783015 0 1 0 I I #
point $-1 -70.563150557164221 -33.475892404661273 8.6505136815783015 #
edge $-1 $659 -1.5 $668 1.5 $653 $772 forward 7 unknown #
coedge $-1 $657 $654 $661 $741 reversed $494 $-1 #
straight-curve $-1 70.563150557164221 0 8.6505136815783015 0 -1 0 I I #
straight-curve $-1 70.563150557164221 0 11.650513681578301 0 1 0 I I #
point $-1 70.563150557164221 -33.475892404661273 11.650513681578301 #
edge $-1 $662 -1.5 $666 1.5 $737 $773 forward 7 unknown #
point $-1 70.563150557164221 33.475892404661273 11.650513681578301 #
point $-1 70.563150557164221 33.475892404661273 8.6505136815783015 #
point $-1 70.563150557164221 -33.475892404661273 8.6505136815783015 #
straight-curve $-1 -41.527251040512546 -33.475892404661273 43.716743200316998 0 0 -1 I I #
point $-1 -41.527251040512553 -33.475892404661273 11.650513681578301 #
straight-curve $-1 -17.654275362442476 -33.475892404661273 8.4717851509704332 1 0 0 I I #
point $-1 -41.527251040512546 -33.475892404661273 8.4717851509704261 #
point $-1 -37.973708003011062 -30.426845282802798 8.5999533272936706 #
point $-1 -32.643393446758836 -30.426845282802798 8.5999533272936706 #
straight-curve $-1 -18.918876064265099 -33.475892404661273 43.716743200316998 0 0 -1 I I #
point $-1 -18.918876064265092 -33.475892404661273 11.650513681578301 #
straight-curve $-1 -6.3500878743187528 -33.475892404661273 8.4717851509704332 1 0 0 I I #
point $-1 -18.918876064265099 -33.475892404661273 8.4717851509704261 #
point $-1 -15.365333026763615 -30.426845282802798 8.5999533272936706 #
point $-1 -10.035018470511389 -30.426845282802798 8.5999533272936706 #
straight-curve $-1 3.689498911982346 -33.475892404661273 43.716743200316998 0 0 -1 I I #
point $-1 3.6894989119823478 -33.475892404661273 11.650513681578301 #
straight-curve $-1 4.9540996138049707 -33.475892404661273 8.4717851509704332 1 0 0 I I #
point $-1 3.689498911982346 -33.475892404661273 8.4717851509704261 #
point $-1 7.2430419494838247 -30.426845282802798 8.5999533272936706 #
point $-1 12.573356505736058 -30.426845282802798 8.5999533272936706 #
straight-curve $-1 26.297873888229795 -33.475892404661273 43.716743200316998 0 0 -1 I I #
point $-1 26.297873888229795 -33.475892404661273 11.650513681578301 #
straight-curve $-1 16.258287101928694 -33.475892404661273 8.4717851509704332 1 0 0 I I #
point $-1 26.297873888229795 -33.475892404661273 8.4717851509704261 #
point $-1 29.851416925731272 -30.426845282802798 8.5999533272936706 #
point $-1 35.181731481983505 -30.426845282802798 8.5999533272936706 #
straight-curve $-1 -70.563150557164221 0 11.650513681578301 0 -1 0 I I #
straight-curve $-1 -70.563150557164221 -33.475892404661273 10.150513681578301 0 0 -1 I I #
point $-1 -70.563150557164221 -33.475892404661273 11.650513681578301 #
straight-curve $-1 70.563150557164221 -33.475892404661273 10.150513681578301 0 0 -1 I I #
straight-curve $-1 70.563150557164221 33.475892404661273 10.150513681578301 0 0 -1 I I #
End-of-ACIS-data 