500 0 5 0           
7 Unknown 11 ACIS 5.0 NT 24 Thu Mar 25 15:12:43 1999 
-1 9.9999999999999995e-007 1e-010 
body $-1 $5 $-1 $6 #
body $-1 $7 $-1 $8 #
body $-1 $9 $-1 $10 #
body $-1 $11 $-1 $12 #
body $-1 $13 $-1 $14 #
lump $-1 $-1 $15 $0 #
transform $-1 1 0 0 0 1 0 0 0 1 71.960203863643301 30.523407130955093 14.458539356721499 1 rotate no_reflect no_shear #
lump $-1 $-1 $16 $1 #
transform $-1 1 0 0 0 1 0 0 0 1 71.960203863643301 30.523407130955093 14.458539356721499 1 rotate no_reflect no_shear #
lump $-1 $-1 $17 $2 #
transform $-1 1 0 0 0 1 0 0 0 1 71.960203863643301 30.523407130955093 14.458539356721499 1 rotate no_reflect no_shear #
lump $-1 $-1 $18 $3 #
transform $-1 1 0 0 0 1 0 0 0 1 71.960203863643301 30.523407130955093 14.458539356721499 1 rotate no_reflect no_shear #
lump $-1 $-1 $19 $4 #
transform $-1 1 0 0 0 1 0 0 0 1 71.960203863643301 30.523407130955093 14.458539356721499 1 rotate no_reflect no_shear #
shell $-1 $-1 $-1 $20 $-1 $5 #
shell $-1 $-1 $-1 $21 $-1 $7 #
shell $-1 $-1 $-1 $22 $-1 $9 #
shell $-1 $-1 $-1 $23 $-1 $11 #
shell $-1 $-1 $-1 $24 $-1 $13 #
face $-1 $25 $26 $15 $-1 $27 forward single #
face $-1 $28 $29 $16 $-1 $30 forward single #
face $-1 $31 $32 $17 $-1 $33 reversed single #
face $-1 $34 $35 $18 $-1 $36 forward single #
face $-1 $37 $38 $19 $-1 $39 forward single #
face $-1 $40 $41 $15 $-1 $42 reversed single #
loop $-1 $-1 $43 $20 #
plane-surface $-1 0 0 14.458539356721499 0 0 1 1 0 0 forward_v I I I I #
face $-1 $44 $45 $16 $-1 $46 reversed single #
loop $-1 $-1 $47 $21 #
plane-surface $-1 -71.960203863643301 0 0 1 0 0 0 0 -1 forward_v I I I I #
face $-1 $48 $49 $17 $-1 $50 reversed single #
loop $-1 $-1 $51 $22 #
plane-surface $-1 117.74543802955975 12.319258397031007 201.14527798159818 0 -1 0 -0.84804810408105047 0 -0.52991925155115449 forward_v I I I I #
face $-1 $52 $53 $18 $-1 $54 forward single #
loop $-1 $55 $56 $23 #
cone-surface $-1 67.901925800002189 4.9951790390254587 8.3779108018055464 -0.84804810408105047 0 -0.52991925155115449 0.26495962577557725 0 -0.42402405204052523 1 I I 0 1 0.5 forward I I I I #
face $-1 $57 $58 $19 $-1 $59 forward single #
loop $-1 $60 $61 $24 #
cone-surface $-1 67.901925800002189 9.3896266538287918 8.3779108018055464 -0.84804810408105047 0 -0.52991925155115449 0.26495962577557725 0 -0.42402405204052523 1 I I 0 1 0.5 forward I I I I #
face $-1 $62 $63 $15 $-1 $64 reversed single #
loop $-1 $-1 $65 $25 #
plane-surface $-1 0 0 -14.458539356721499 0 0 1 1 0 0 forward_v I I I I #
coedge $-1 $66 $67 $68 $69 forward $26 $-1 #
face $-1 $70 $71 $16 $-1 $72 forward single #
loop $-1 $-1 $73 $28 #
plane-surface $-1 0 30.523407130955093 0 0 -1 0 0 0 -1 forward_v I I I I #
coedge $-1 $74 $75 $76 $77 forward $29 $-1 #
face $-1 $78 $79 $17 $-1 $80 reversed single #
loop $-1 $-1 $81 $31 #
plane-surface $-1 -4.3059908821374222 7.1924028464271217 124.87908323581748 0.84804810408105047 0 0.52991925155115449 0.52991925155115449 0 -0.84804810408105047 forward_v I I I I #
coedge $-1 $82 $83 $84 $85 reversed $32 $-1 #
face $-1 $-1 $86 $18 $-1 $87 forward single #
loop $-1 $88 $89 $34 #
cone-surface $-1 67.265527385643992 4.9951790390254587 7.9802449503023816 -0.84804810408105047 0 -0.52991925155115449 0.13247981288778862 0 -0.21201202602026262 1 I I -0.70710678118654746 0.70710678118654746 0.25 forward I I I I #
loop $-1 $-1 $90 $23 #
coedge $-1 $56 $56 $91 $92 reversed $35 $-1 #
face $-1 $-1 $93 $19 $-1 $94 forward single #
loop $-1 $95 $96 $37 #
cone-surface $-1 67.265527385643992 9.3896266538287918 7.9802449503023816 -0.84804810408105047 0 -0.52991925155115449 0.13247981288778862 0 -0.21201202602026262 1 I I -0.70710678118654746 0.70710678118654746 0.25 forward I I I I #
loop $-1 $-1 $97 $24 #
coedge $-1 $61 $61 $98 $99 reversed $38 $-1 #
face $-1 $100 $101 $15 $-1 $102 reversed single #
loop $-1 $-1 $103 $40 #
plane-surface $-1 0 -30.523407130955093 0 0 1 0 0 0 1 forward_v I I I I #
coedge $-1 $104 $105 $106 $107 forward $41 $-1 #
coedge $-1 $108 $43 $109 $110 forward $26 $-1 #
coedge $-1 $43 $108 $111 $112 forward $26 $-1 #
coedge $-1 $113 $114 $43 $69 reversed $115 $-1 #
edge $-1 $116 -30.523407130955093 $117 30.523407130955093 $68 $118 forward 7 unknown #
face $-1 $119 $120 $16 $-1 $121 reversed single #
loop $-1 $-1 $76 $44 #
plane-surface $-1 -81.102402677721273 0 10.012762575328706 0 0 1 1 0 0 forward_v I I I I #
coedge $-1 $122 $123 $75 $124 forward $45 $-1 #
coedge $-1 $125 $47 $126 $127 reversed $29 $-1 #
coedge $-1 $47 $125 $73 $124 reversed $29 $-1 #
coedge $-1 $128 $129 $47 $77 reversed $71 $-1 #
edge $-1 $130 -30.523407130955093 $131 30.523407130955093 $76 $132 forward 7 unknown #
face $-1 $133 $134 $17 $-1 $135 forward single #
loop $-1 $-1 $136 $48 #
plane-surface $-1 117.74543802955975 2.0655472958232366 201.14527798159818 0 1 0 0.84804810408105047 0 0.52991925155115449 forward_v I I I I #
coedge $-1 $137 $138 $139 $140 reversed $49 $-1 #
coedge $-1 $83 $51 $141 $142 reversed $32 $-1 #
coedge $-1 $51 $82 $137 $143 reversed $32 $-1 #
coedge $-1 $139 $144 $51 $85 forward $134 $-1 #
edge $-1 $145 -13.087484848863426 $146 -5.8197014982570465 $84 $147 forward 7 unknown #
loop $-1 $-1 $91 $52 #
plane-surface $-1 -4.3059908821374222 7.1924028464271217 124.87908323581748 0.84804810408105047 0 0.52991925155115449 0.52991925155115449 0 -0.84804810408105047 forward_v I I I I #
loop $-1 $-1 $148 $34 #
coedge $-1 $89 $89 $90 $149 reversed $53 $-1 #
coedge $-1 $90 $90 $89 $149 forward $55 $-1 #
coedge $-1 $91 $91 $56 $92 forward $86 $-1 #
edge $-1 $150 0 $150 6.2831853071796004 $91 $151 forward 7 unknown #
loop $-1 $-1 $98 $57 #
plane-surface $-1 -4.3059908821374222 7.1924028464271217 124.87908323581748 0.84804810408105047 0 0.52991925155115449 0.52991925155115449 0 -0.84804810408105047 forward_v I I I I #
loop $-1 $-1 $152 $37 #
coedge $-1 $96 $96 $97 $153 reversed $58 $-1 #
coedge $-1 $97 $97 $96 $153 forward $60 $-1 #
coedge $-1 $98 $98 $61 $99 forward $93 $-1 #
edge $-1 $154 0 $154 6.2831853071796004 $98 $155 forward 7 unknown #
face $-1 $156 $157 $15 $-1 $158 reversed single #
loop $-1 $-1 $159 $62 #
plane-surface $-1 -71.960203863643301 0 0 1 0 0 0 0 -1 forward_v I I I I #
coedge $-1 $160 $111 $161 $162 forward $63 $-1 #
coedge $-1 $163 $65 $160 $164 forward $41 $-1 #
coedge $-1 $65 $163 $165 $166 forward $41 $-1 #
coedge $-1 $114 $113 $65 $107 reversed $115 $-1 #
edge $-1 $167 -30.523407130955093 $168 30.523407130955093 $106 $169 forward 7 unknown #
coedge $-1 $67 $66 $170 $171 forward $26 $-1 #
coedge $-1 $172 $173 $66 $110 reversed $157 $-1 #
edge $-1 $117 -71.960203863643301 $174 71.960203863643301 $109 $175 forward 7 unknown #
coedge $-1 $103 $176 $67 $112 reversed $63 $-1 #
edge $-1 $177 -71.960203863643301 $116 71.960203863643301 $111 $178 forward 7 unknown #
coedge $-1 $106 $68 $176 $179 forward $115 $-1 #
coedge $-1 $68 $106 $172 $180 reversed $115 $-1 #
loop $-1 $-1 $113 $156 #
vertex $-1 $69 $181 #
vertex $-1 $69 $182 #
straight-curve $-1 71.960203863643301 0 14.458539356721499 0 1 0 I I #
face $-1 $183 $184 $16 $-1 $185 reversed single #
loop $-1 $-1 $186 $70 #
plane-surface $-1 -81.102402677721273 0 6.0143920035035112 0 0 1 1 0 0 forward_v I I I I #
coedge $-1 $187 $73 $188 $189 reversed $45 $-1 #
coedge $-1 $73 $187 $128 $190 reversed $45 $-1 #
edge $-1 $130 -10.012762575328706 $191 -6.0143920035035112 $73 $192 forward 7 unknown #
coedge $-1 $75 $74 $186 $193 forward $29 $-1 #
coedge $-1 $194 $195 $74 $127 forward $196 $-1 #
edge $-1 $197 6.0143920035035112 $131 10.012762575328706 $126 $198 forward 7 unknown #
coedge $-1 $199 $76 $123 $190 forward $71 $-1 #
coedge $-1 $76 $199 $194 $200 forward $71 $-1 #
vertex $-1 $124 $201 #
vertex $-1 $200 $202 #
straight-curve $-1 -71.960203863643301 0 10.012762575328706 0 -1 0 I I #
face $-1 $-1 $203 $17 $-1 $204 reversed single #
loop $-1 $-1 $84 $78 #
plane-surface $-1 0 0 14.458539356721499 0 0 1 1 0 0 forward_v I I I I #
coedge $-1 $205 $206 $207 $208 reversed $79 $-1 #
coedge $-1 $209 $81 $83 $143 forward $49 $-1 #
coedge $-1 $81 $209 $205 $210 forward $49 $-1 #
coedge $-1 $207 $84 $81 $140 forward $134 $-1 #
edge $-1 $146 -8.7230569738174459 $211 1.5306541273903242 $139 $212 forward 7 unknown #
coedge $-1 $213 $214 $82 $142 forward $203 $-1 #
edge $-1 $215 -97.744984666678803 $145 -86.11409963407759 $141 $216 forward 7 unknown #
edge $-1 $146 130.20551941301522 $215 143.92040772728663 $83 $217 forward 7 unknown #
coedge $-1 $84 $207 $213 $218 forward $134 $-1 #
vertex $-1 $142 $219 #
vertex $-1 $85 $220 #
straight-curve $-1 58.872719014779875 12.319258397031007 14.458539356721502 -1 0 0 I I #
coedge $-1 $148 $148 $-1 $221 reversed $88 $-1 #
edge $-1 $222 0 $222 6.2831853071796004 $89 $223 forward 7 unknown #
vertex $-1 $92 $224 #
ellipse-curve $-1 68.326312188340097 4.9951790390254587 8.6430968404209114 0.84804810408105047 0 0.52991925155115449 0.26495962577557725 0 -0.42402405204052523 1 I I #
coedge $-1 $152 $152 $-1 $225 reversed $95 $-1 #
edge $-1 $226 0 $226 6.2831853071796004 $96 $227 forward 7 unknown #
vertex $-1 $99 $228 #
ellipse-curve $-1 68.326312188340097 9.3896266538287918 8.6430968404209114 0.84804810408105047 0 0.52991925155115449 0.26495962577557725 0 -0.42402405204052523 1 I I #
face $-1 $-1 $115 $15 $-1 $229 reversed single #
loop $-1 $-1 $172 $100 #
plane-surface $-1 0 30.523407130955093 0 0 -1 0 0 0 -1 forward_v I I I I #
coedge $-1 $230 $170 $173 $231 forward $101 $-1 #
coedge $-1 $176 $103 $104 $164 reversed $63 $-1 #
coedge $-1 $170 $230 $103 $162 reversed $101 $-1 #
edge $-1 $177 -14.458539356721499 $232 14.458539356721499 $161 $233 forward 7 unknown #
coedge $-1 $105 $104 $230 $234 forward $41 $-1 #
edge $-1 $168 -71.960203863643301 $232 71.960203863643301 $160 $235 forward 7 unknown #
coedge $-1 $173 $172 $105 $166 reversed $157 $-1 #
edge $-1 $236 -71.960203863643301 $167 71.960203863643301 $165 $237 forward 7 unknown #
vertex $-1 $107 $238 #
vertex $-1 $179 $239 #
straight-curve $-1 71.960203863643301 0 -14.458539356721499 0 -1 0 I I #
coedge $-1 $159 $161 $108 $171 reversed $101 $-1 #
edge $-1 $174 -30.523407130955093 $177 30.523407130955093 $170 $240 forward 7 unknown #
coedge $-1 $165 $109 $114 $180 forward $157 $-1 #
coedge $-1 $109 $165 $159 $231 reversed $157 $-1 #
vertex $-1 $110 $241 #
straight-curve $-1 0 30.523407130955093 14.458539356721499 -1 0 0 I I #
coedge $-1 $111 $160 $113 $179 reversed $63 $-1 #
vertex $-1 $171 $242 #
straight-curve $-1 0 -30.523407130955093 14.458539356721499 1 0 0 I I #
edge $-1 $116 -14.458539356721499 $168 14.458539356721499 $113 $243 forward 7 unknown #
edge $-1 $117 -14.458539356721499 $167 14.458539356721499 $114 $244 forward 7 unknown #
point $-1 71.960203863643301 -30.523407130955093 14.458539356721499 #
point $-1 71.960203863643301 30.523407130955093 14.458539356721499 #
face $-1 $-1 $196 $16 $-1 $245 reversed single #
loop $-1 $-1 $246 $119 #
plane-surface $-1 -90.244601491799244 0 8.0135772894161086 1 0 0 0 0 -1 forward_v I I I I #
coedge $-1 $247 $188 $125 $193 reversed $120 $-1 #
coedge $-1 $123 $122 $246 $248 reversed $45 $-1 #
coedge $-1 $186 $249 $122 $189 forward $120 $-1 #
edge $-1 $250 -9.1421988140779717 $191 9.1421988140779717 $122 $251 forward 7 unknown #
edge $-1 $130 -9.1421988140779717 $252 9.1421988140779717 $123 $253 forward 7 unknown #
vertex $-1 $124 $254 #
straight-curve $-1 -71.960203863643301 30.523407130955093 0 0 0 -1 I I #
edge $-1 $197 -30.523407130955093 $191 30.523407130955093 $186 $255 forward 7 unknown #
coedge $-1 $256 $126 $129 $200 reversed $196 $-1 #
coedge $-1 $126 $256 $247 $257 reversed $196 $-1 #
loop $-1 $-1 $126 $183 #
vertex $-1 $127 $258 #
straight-curve $-1 -71.960203863643301 -30.523407130955093 0 0 0 1 I I #
coedge $-1 $129 $128 $259 $260 forward $71 $-1 #
edge $-1 $261 -9.1421988140779717 $131 9.1421988140779717 $194 $262 forward 7 unknown #
point $-1 -71.960203863643301 30.523407130955093 10.012762575328706 #
point $-1 -71.960203863643301 -30.523407130955093 10.012762575328706 #
loop $-1 $-1 $141 $133 #
plane-surface $-1 71.960203863643301 0 0 -1 0 0 0 0 1 forward_v I I I I #
coedge $-1 $206 $136 $138 $210 reversed $79 $-1 #
coedge $-1 $136 $205 $263 $264 reversed $79 $-1 #
coedge $-1 $144 $139 $136 $208 forward $134 $-1 #
edge $-1 $211 5.8197014982570465 $265 13.087484848863426 $207 $266 forward 7 unknown #
coedge $-1 $138 $137 $214 $267 reversed $49 $-1 #
edge $-1 $268 -143.92040772728663 $211 -130.20551941301522 $205 $269 forward 7 unknown #
vertex $-1 $140 $270 #
straight-curve $-1 64.692420513036922 3.5962014232135608 14.458539356721502 0 -1 0 I I #
coedge $-1 $263 $141 $144 $218 reversed $203 $-1 #
coedge $-1 $141 $263 $209 $267 forward $203 $-1 #
vertex $-1 $142 $271 #
straight-curve $-1 71.960203863643301 12.319258397031007 100.57263899079909 0 0 1 I I #
straight-curve $-1 -4.3059908821374222 12.319258397031007 124.87908323581748 0.52991925155115449 0 -0.84804810408105047 I I #
edge $-1 $265 2.0655472958232366 $145 12.319258397031007 $213 $272 forward 7 unknown #
point $-1 71.960203863643301 12.319258397031007 14.458539356721499 #
point $-1 64.692420513036922 12.319258397031007 14.458539356721502 #
edge $-1 $273 1 $273 0 $148 $-1 forward 7 unknown #
vertex $-1 $149 $274 #
ellipse-curve $-1 67.477539411664253 4.9951790390254587 8.1127247631901707 0.84804810408105047 0 0.52991925155115449 0.26495962577557725 0 -0.42402405204052523 1 I I #
point $-1 68.5912718141157 4.9951790390254587 8.219072788380398 #
edge $-1 $275 1 $275 0 $152 $-1 forward 7 unknown #
vertex $-1 $153 $276 #
ellipse-curve $-1 67.477539411664253 9.3896266538287918 8.1127247631901707 0.84804810408105047 0 0.52991925155115449 0.26495962577557725 0 -0.42402405204052523 1 I I #
point $-1 68.5912718141157 9.3896266538287918 8.219072788380398 #
plane-surface $-1 71.960203863643301 0 0 -1 0 0 0 0 1 forward_v I I I I #
coedge $-1 $161 $159 $163 $234 reversed $101 $-1 #
edge $-1 $174 -14.458539356721499 $236 14.458539356721499 $173 $277 forward 7 unknown #
vertex $-1 $234 $278 #
straight-curve $-1 -71.960203863643301 -30.523407130955093 0 0 0 -1 I I #
edge $-1 $232 -30.523407130955093 $236 30.523407130955093 $230 $279 forward 7 unknown #
straight-curve $-1 0 -30.523407130955093 -14.458539356721499 -1 0 0 I I #
vertex $-1 $166 $280 #
straight-curve $-1 0 30.523407130955093 -14.458539356721499 1 0 0 I I #
point $-1 71.960203863643301 30.523407130955093 -14.458539356721499 #
point $-1 71.960203863643301 -30.523407130955093 -14.458539356721499 #
straight-curve $-1 -71.960203863643301 0 14.458539356721499 0 -1 0 I I #
point $-1 -71.960203863643301 30.523407130955093 14.458539356721499 #
point $-1 -71.960203863643301 -30.523407130955093 14.458539356721499 #
straight-curve $-1 71.960203863643301 -30.523407130955093 0 0 0 -1 I I #
straight-curve $-1 71.960203863643301 30.523407130955093 0 0 0 -1 I I #
plane-surface $-1 0 -30.523407130955093 0 0 1 0 0 0 1 forward_v I I I I #
coedge $-1 $281 $259 $187 $248 forward $184 $-1 #
coedge $-1 $249 $186 $195 $257 forward $120 $-1 #
edge $-1 $252 -1.9991852859125974 $250 1.9991852859125974 $187 $282 forward 7 unknown #
coedge $-1 $188 $247 $281 $283 forward $120 $-1 #
vertex $-1 $189 $284 #
straight-curve $-1 -81.102402677721273 30.523407130955093 6.0143920035035112 1 0 0 I I #
vertex $-1 $190 $285 #
straight-curve $-1 -81.102402677721273 30.523407130955093 10.012762575328706 -1 0 0 I I #
point $-1 -71.960203863643301 30.523407130955093 6.0143920035035112 #
straight-curve $-1 -71.960203863643301 0 6.0143920035035112 0 1 0 I I #
coedge $-1 $195 $194 $286 $287 forward $196 $-1 #
edge $-1 $197 -9.1421988140779717 $288 9.1421988140779717 $195 $289 forward 7 unknown #
point $-1 -71.960203863643301 -30.523407130955093 6.0143920035035112 #
coedge $-1 $246 $286 $199 $260 reversed $184 $-1 #
edge $-1 $252 -30.523407130955093 $261 30.523407130955093 $259 $290 forward 7 unknown #
vertex $-1 $260 $291 #
straight-curve $-1 -81.102402677721273 -30.523407130955093 10.012762575328706 1 0 0 I I #
coedge $-1 $214 $213 $206 $264 forward $203 $-1 #
edge $-1 $265 86.11409963407759 $268 97.744984666678803 $263 $292 forward 7 unknown #
vertex $-1 $218 $293 #
straight-curve $-1 58.872719014779875 2.0655472958232366 14.458539356721502 1 0 0 I I #
edge $-1 $268 -1.5306541273903242 $215 8.7230569738174459 $214 $294 forward 7 unknown #
vertex $-1 $267 $295 #
straight-curve $-1 -4.3059908821374222 2.0655472958232366 124.87908323581748 -0.52991925155115449 0 0.84804810408105047 I I #
point $-1 64.692420513036922 2.0655472958232366 14.458539356721502 #
point $-1 71.960203863643301 12.319258397031007 2.8276543241202887 #
straight-curve $-1 71.960203863643301 0 14.458539356721499 0 1 0 I I #
vertex $-1 $221 $296 #
point $-1 67.742499037439828 4.9951790390254587 7.6887007111496448 #
vertex $-1 $225 $297 #
point $-1 67.742499037439828 9.3896266538287918 7.6887007111496448 #
straight-curve $-1 -71.960203863643301 30.523407130955093 0 0 0 -1 I I #
point $-1 -71.960203863643301 -30.523407130955093 -14.458539356721499 #
straight-curve $-1 -71.960203863643301 0 -14.458539356721499 0 1 0 I I #
point $-1 -71.960203863643301 30.523407130955093 -14.458539356721499 #
coedge $-1 $286 $246 $249 $283 reversed $184 $-1 #
straight-curve $-1 -90.244601491799244 30.523407130955093 8.0135772894161086 0 0 -1 I I #
edge $-1 $288 -30.523407130955093 $250 30.523407130955093 $281 $298 forward 7 unknown #
point $-1 -90.244601491799244 30.523407130955093 6.0143920035035112 #
point $-1 -90.244601491799244 30.523407130955093 10.012762575328706 #
coedge $-1 $259 $281 $256 $287 reversed $184 $-1 #
edge $-1 $261 -1.9991852859125974 $288 1.9991852859125974 $286 $299 forward 7 unknown #
vertex $-1 $283 $300 #
straight-curve $-1 -81.102402677721273 -30.523407130955093 6.0143920035035112 -1 0 0 I I #
straight-curve $-1 -90.244601491799244 0 10.012762575328706 0 -1 0 I I #
point $-1 -90.244601491799244 -30.523407130955093 10.012762575328706 #
straight-curve $-1 71.960203863643301 2.0655472958232366 100.57263899079909 0 0 -1 I I #
point $-1 71.960203863643301 2.0655472958232366 14.458539356721499 #
straight-curve $-1 71.960203863643301 3.5962014232135608 2.8276543241203029 0 1 0 I I #
point $-1 71.960203863643301 2.0655472958232366 2.8276543241202887 #
point $-1 67.053515359623731 4.9951790390254587 7.8477651374145934 #
point $-1 67.053515359623731 9.3896266538287918 7.8477651374145934 #
straight-curve $-1 -90.244601491799244 0 6.0143920035035112 0 1 0 I I #
straight-curve $-1 -90.244601491799244 -30.523407130955093 8.0135772894161086 0 0 -1 I I #
point $-1 -90.244601491799244 -30.523407130955093 6.0143920035035112 #
End-of-ACIS-data 