500 0 8 0           
7 Unknown 11 ACIS 5.0 NT 24 Fri Mar 26 03:00:33 1999 
-1 9.9999999999999995e-007 1e-010 
body $-1 $8 $-1 $9 #
body $-1 $10 $-1 $11 #
body $-1 $12 $-1 $13 #
body $-1 $14 $-1 $15 #
body $-1 $16 $-1 $17 #
body $-1 $18 $-1 $19 #
body $-1 $20 $-1 $21 #
body $-1 $22 $-1 $23 #
lump $-1 $-1 $24 $0 #
transform $-1 1 0 0 0 1 0 0 0 1 44.91348002563555 19.938366745472575 9.4509330917487393 1 rotate no_reflect no_shear #
lump $-1 $-1 $25 $1 #
transform $-1 1 0 0 0 1 0 0 0 1 44.91348002563555 19.938366745472575 9.4509330917487393 1 rotate no_reflect no_shear #
lump $-1 $-1 $26 $2 #
transform $-1 1 0 0 0 1 0 0 0 1 44.91348002563555 19.938366745472575 9.4509330917487393 1 rotate no_reflect no_shear #
lump $-1 $-1 $27 $3 #
transform $-1 1 0 0 0 1 0 0 0 1 44.91348002563555 19.938366745472575 9.4509330917487393 1 rotate no_reflect no_shear #
lump $-1 $-1 $28 $4 #
transform $-1 1 0 0 0 1 0 0 0 1 44.91348002563555 19.938366745472575 9.4509330917487393 1 rotate no_reflect no_shear #
lump $-1 $-1 $29 $5 #
transform $-1 1 0 0 0 1 0 0 0 1 44.91348002563555 19.938366745472575 9.4509330917487393 1 rotate no_reflect no_shear #
lump $-1 $-1 $30 $6 #
transform $-1 1 0 0 0 1 0 0 0 1 44.91348002563555 19.938366745472575 9.4509330917487393 1 rotate no_reflect no_shear #
lump $-1 $-1 $31 $7 #
transform $-1 1 0 0 0 1 0 0 0 1 44.91348002563555 19.938366745472575 9.4509330917487393 1 rotate no_reflect no_shear #
shell $-1 $-1 $-1 $32 $-1 $8 #
shell $-1 $-1 $-1 $33 $-1 $10 #
shell $-1 $-1 $-1 $34 $-1 $12 #
shell $-1 $-1 $-1 $35 $-1 $14 #
shell $-1 $-1 $-1 $36 $-1 $16 #
shell $-1 $-1 $-1 $37 $-1 $18 #
shell $-1 $-1 $-1 $38 $-1 $20 #
shell $-1 $-1 $-1 $39 $-1 $22 #
face $-1 $40 $41 $24 $-1 $42 forward single #
face $-1 $43 $44 $25 $-1 $45 forward single #
face $-1 $46 $47 $26 $-1 $48 reversed single #
face $-1 $49 $50 $27 $-1 $51 forward single #
face $-1 $52 $53 $28 $-1 $54 forward single #
face $-1 $55 $56 $29 $-1 $57 forward single #
face $-1 $58 $59 $30 $-1 $60 reversed single #
face $-1 $61 $62 $31 $-1 $63 forward single #
face $-1 $64 $65 $24 $-1 $66 reversed single #
loop $-1 $-1 $67 $32 #
plane-surface $-1 0 0 9.4509330917487393 0 0 1 1 0 0 forward_v I I I I #
face $-1 $68 $69 $25 $-1 $70 reversed single #
loop $-1 $-1 $71 $33 #
plane-surface $-1 -40.433388164936616 0 8.7427547354029542 0 0 1 1 0 0 forward_v I I I I #
face $-1 $72 $73 $26 $-1 $74 reversed single #
loop $-1 $-1 $75 $34 #
plane-surface $-1 32.791237566615678 74.984501146490786 86.492624836387066 1 0 0 0 -0.84804810408105047 -0.52991925155115449 forward_v I I I I #
face $-1 $76 $77 $27 $-1 $78 forward single #
loop $-1 $79 $80 $35 #
cone-surface $-1 35.215686058419649 17.758682455517068 6.7550223160794607 0 -0.84804810408105047 -0.52991925155115449 1 0 0 1 I I 0 1 1 forward I I I I #
face $-1 $81 $82 $28 $-1 $83 forward single #
loop $-1 $84 $85 $36 #
cone-surface $-1 38.852358796125614 17.758682455517068 6.7550223160794607 0 -0.84804810408105047 -0.52991925155115449 1 0 0 1 I I 0 1 1 forward I I I I #
face $-1 $86 $87 $29 $-1 $88 forward single #
loop $-1 $89 $90 $37 #
cone-surface $-1 42.489031533831579 17.758682455517068 6.7550223160794607 0 -0.84804810408105047 -0.52991925155115449 1 0 0 1 I I 0 1 1 forward I I I I #
face $-1 $91 $92 $30 $-1 $93 reversed single #
loop $-1 $-1 $94 $38 #
plane-surface $-1 22.94256470059835 -86.692808039814082 62.458007510875476 -1 0 0 0 -0.74314483375859142 0.66913059716165679 forward_v I I I I #
face $-1 $95 $96 $31 $-1 $97 forward single #
loop $-1 $98 $99 $39 #
cone-surface $-1 18.538660802718105 -15.973544578639361 5.209178308275157 0 0.74314483375859142 -0.66913059716165679 1 0 0 1 I I 0 1 1 forward I I I I #
face $-1 $100 $101 $24 $-1 $102 reversed single #
loop $-1 $-1 $103 $40 #
plane-surface $-1 0 0 -9.4509330917487393 0 0 1 1 0 0 forward_v I I I I #
coedge $-1 $104 $105 $106 $107 forward $41 $-1 #
face $-1 $108 $109 $25 $-1 $110 reversed single #
loop $-1 $-1 $111 $43 #
plane-surface $-1 -40.433388164936616 0 4.094500469830753 0 0 1 1 0 0 forward_v I I I I #
coedge $-1 $112 $113 $114 $115 forward $44 $-1 #
face $-1 $116 $117 $26 $-1 $118 forward single #
loop $-1 $-1 $119 $46 #
plane-surface $-1 38.852358796125614 -1.193082020353927 38.891589396902027 0 0.84804810408105047 0.52991925155115449 1 0 0 forward_v I I I I #
coedge $-1 $120 $121 $122 $123 reversed $47 $-1 #
face $-1 $-1 $124 $27 $-1 $125 forward single #
loop $-1 $126 $127 $49 #
cone-surface $-1 35.215686058419649 16.522416889928532 5.9825178790286468 0 -0.84804810408105047 -0.52991925155115449 0.5 0 0 1 I I -0.70710678118654746 0.70710678118654746 0.5 forward I I I I #
loop $-1 $-1 $128 $35 #
coedge $-1 $80 $80 $129 $130 reversed $50 $-1 #
face $-1 $-1 $131 $28 $-1 $132 forward single #
loop $-1 $133 $134 $52 #
cone-surface $-1 38.852358796125614 16.522416889928532 5.9825178790286468 0 -0.84804810408105047 -0.52991925155115449 0.5 0 0 1 I I -0.70710678118654746 0.70710678118654746 0.5 forward I I I I #
loop $-1 $-1 $135 $36 #
coedge $-1 $85 $85 $136 $137 reversed $53 $-1 #
face $-1 $-1 $138 $29 $-1 $139 forward single #
loop $-1 $140 $141 $55 #
cone-surface $-1 42.489031533831579 16.522416889928532 5.9825178790286468 0 -0.84804810408105047 -0.52991925155115449 0.5 0 0 1 I I -0.70710678118654746 0.70710678118654746 0.5 forward I I I I #
loop $-1 $-1 $142 $37 #
coedge $-1 $90 $90 $143 $144 reversed $56 $-1 #
face $-1 $145 $146 $30 $-1 $147 reversed single #
loop $-1 $-1 $148 $58 #
plane-surface $-1 18.538660802718098 -19.938366745472592 2.3520400905521583 0 -0.74314483375859142 0.66913059716165679 1 0 0 forward_v I I I I #
coedge $-1 $149 $150 $151 $152 reversed $59 $-1 #
face $-1 $-1 $153 $31 $-1 $154 forward single #
loop $-1 $155 $156 $61 #
cone-surface $-1 18.538660802718105 -14.833085899542475 4.1823047268190425 0 0.74314483375859142 -0.66913059716165679 0.5 0 0 1 I I -0.70710678118654746 0.70710678118654746 0.5 forward I I I I #
loop $-1 $-1 $157 $39 #
coedge $-1 $99 $99 $158 $159 reversed $62 $-1 #
face $-1 $160 $161 $24 $-1 $162 reversed single #
loop $-1 $-1 $163 $64 #
plane-surface $-1 0 -19.938366745472575 0 0 1 0 0 0 1 forward_v I I I I #
coedge $-1 $164 $165 $166 $167 forward $65 $-1 #
coedge $-1 $168 $67 $169 $170 forward $41 $-1 #
coedge $-1 $67 $168 $171 $172 forward $41 $-1 #
coedge $-1 $173 $174 $67 $107 reversed $175 $-1 #
edge $-1 $176 -19.938366745472575 $177 19.938366745472575 $106 $178 forward 7 unknown #
face $-1 $179 $180 $25 $-1 $181 reversed single #
loop $-1 $-1 $182 $68 #
plane-surface $-1 -35.953296304237682 0 6.4186276026168532 -1 0 0 0 0 1 forward_v I I I I #
coedge $-1 $183 $184 $185 $186 forward $69 $-1 #
coedge $-1 $187 $71 $188 $189 reversed $44 $-1 #
coedge $-1 $71 $187 $190 $191 reversed $44 $-1 #
coedge $-1 $182 $192 $71 $115 reversed $109 $-1 #
edge $-1 $193 -19.938366745472575 $194 19.938366745472575 $114 $195 forward 7 unknown #
face $-1 $196 $197 $26 $-1 $198 reversed single #
loop $-1 $-1 $122 $72 #
plane-surface $-1 0 0 9.4509330917487393 0 0 1 1 0 0 forward_v I I I I #
coedge $-1 $199 $200 $201 $202 reversed $73 $-1 #
coedge $-1 $121 $75 $203 $204 reversed $47 $-1 #
coedge $-1 $75 $120 $199 $205 reversed $47 $-1 #
coedge $-1 $201 $206 $75 $123 forward $117 $-1 #
edge $-1 $207 17.553883827772818 $208 20.288769380587809 $122 $209 forward 7 unknown #
loop $-1 $-1 $129 $76 #
plane-surface $-1 38.852358796125614 -1.193082020353927 38.891589396902027 0 0.84804810408105047 0.52991925155115449 1 0 0 forward_v I I I I #
loop $-1 $-1 $210 $49 #
coedge $-1 $127 $127 $128 $211 reversed $77 $-1 #
coedge $-1 $128 $128 $127 $211 forward $79 $-1 #
coedge $-1 $129 $129 $80 $130 forward $124 $-1 #
edge $-1 $212 3.7700270109167406e-016 $212 6.2831853071796004 $129 $213 forward 7 unknown #
loop $-1 $-1 $136 $81 #
plane-surface $-1 38.852358796125614 -1.193082020353927 38.891589396902027 0 0.84804810408105047 0.52991925155115449 1 0 0 forward_v I I I I #
loop $-1 $-1 $214 $52 #
coedge $-1 $134 $134 $135 $215 reversed $82 $-1 #
coedge $-1 $135 $135 $134 $215 forward $84 $-1 #
coedge $-1 $136 $136 $85 $137 forward $131 $-1 #
edge $-1 $216 3.7700270109167406e-016 $216 6.2831853071796004 $136 $217 forward 7 unknown #
loop $-1 $-1 $143 $86 #
plane-surface $-1 38.852358796125614 -1.193082020353927 38.891589396902027 0 0.84804810408105047 0.52991925155115449 1 0 0 forward_v I I I I #
loop $-1 $-1 $218 $55 #
coedge $-1 $141 $141 $142 $219 reversed $87 $-1 #
coedge $-1 $142 $142 $141 $219 forward $89 $-1 #
coedge $-1 $143 $143 $90 $144 forward $138 $-1 #
edge $-1 $220 3.7700270109167406e-016 $220 6.2831853071796004 $143 $221 forward 7 unknown #
face $-1 $222 $223 $30 $-1 $224 reversed single #
loop $-1 $-1 $225 $91 #
plane-surface $-1 14.134756904837847 -86.692808039814082 62.458007510875476 1 0 0 0 0.74314483375859142 -0.66913059716165679 forward_v I I I I #
coedge $-1 $226 $227 $228 $229 reversed $92 $-1 #
coedge $-1 $150 $94 $230 $231 reversed $59 $-1 #
coedge $-1 $94 $149 $226 $232 reversed $59 $-1 #
coedge $-1 $228 $233 $94 $152 forward $234 $-1 #
edge $-1 $235 23.408037274434466 $236 29.799909083665685 $151 $237 forward 7 unknown #
loop $-1 $-1 $158 $95 #
plane-surface $-1 18.538660802718098 -19.938366745472592 2.3520400905521583 0 -0.74314483375859142 0.66913059716165679 1 0 0 forward_v I I I I #
loop $-1 $-1 $238 $61 #
coedge $-1 $156 $156 $157 $239 reversed $96 $-1 #
coedge $-1 $157 $157 $156 $239 forward $98 $-1 #
coedge $-1 $158 $158 $99 $159 forward $153 $-1 #
edge $-1 $240 -1.0518055631356247e-015 $240 6.2831853071795996 $158 $241 forward 7 unknown #
face $-1 $242 $243 $24 $-1 $244 reversed single #
loop $-1 $-1 $245 $100 #
plane-surface $-1 -44.91348002563555 0 0 1 0 0 0 0 -1 forward_v I I I I #
coedge $-1 $246 $171 $247 $248 forward $101 $-1 #
coedge $-1 $249 $103 $246 $250 forward $65 $-1 #
coedge $-1 $103 $249 $251 $252 forward $65 $-1 #
coedge $-1 $174 $173 $103 $167 reversed $175 $-1 #
edge $-1 $253 -19.938366745472575 $254 19.938366745472575 $166 $255 forward 7 unknown #
coedge $-1 $105 $104 $256 $257 forward $41 $-1 #
coedge $-1 $258 $259 $104 $170 reversed $243 $-1 #
edge $-1 $177 -44.91348002563555 $260 44.91348002563555 $169 $261 forward 7 unknown #
coedge $-1 $163 $262 $105 $172 reversed $101 $-1 #
edge $-1 $263 -44.91348002563555 $176 44.91348002563555 $171 $264 forward 7 unknown #
coedge $-1 $166 $106 $262 $265 forward $175 $-1 #
coedge $-1 $106 $166 $258 $266 reversed $175 $-1 #
loop $-1 $-1 $173 $242 #
vertex $-1 $107 $267 #
vertex $-1 $107 $268 #
straight-curve $-1 44.91348002563555 0 9.4509330917487393 0 1 0 I I #
face $-1 $269 $270 $25 $-1 $271 reversed single #
loop $-1 $-1 $272 $108 #
plane-surface $-1 0 -19.938366745472575 0 0 1 0 0 0 1 forward_v I I I I #
coedge $-1 $185 $114 $273 $274 reversed $109 $-1 #
coedge $-1 $275 $111 $272 $276 reversed $69 $-1 #
coedge $-1 $111 $275 $277 $278 reversed $69 $-1 #
coedge $-1 $192 $182 $111 $186 reversed $109 $-1 #
edge $-1 $279 -19.938366745472575 $280 19.938366745472575 $185 $281 forward 7 unknown #
coedge $-1 $113 $112 $282 $283 reversed $44 $-1 #
coedge $-1 $284 $285 $112 $189 forward $286 $-1 #
edge $-1 $287 -24.696785943167242 $194 -15.736602221769374 $188 $288 forward 7 unknown #
coedge $-1 $289 $273 $113 $191 forward $180 $-1 #
edge $-1 $193 15.736602221769374 $290 24.696785943167242 $190 $291 forward 7 unknown #
coedge $-1 $114 $185 $284 $292 reversed $109 $-1 #
vertex $-1 $191 $293 #
vertex $-1 $189 $294 #
straight-curve $-1 -35.953296304237682 0 8.7427547354029542 0 1 0 I I #
face $-1 $-1 $295 $26 $-1 $296 reversed single #
loop $-1 $-1 $297 $116 #
plane-surface $-1 44.91348002563555 0 0 -1 0 0 0 0 1 forward_v I I I I #
coedge $-1 $298 $119 $121 $205 forward $73 $-1 #
coedge $-1 $119 $298 $297 $299 reversed $73 $-1 #
coedge $-1 $300 $122 $119 $202 forward $117 $-1 #
edge $-1 $208 13.365058168552871 $301 25.487300627572743 $201 $302 forward 7 unknown #
coedge $-1 $303 $304 $120 $204 forward $295 $-1 #
edge $-1 $305 -38.172111255232856 $207 -33.795379326444795 $203 $306 forward 7 unknown #
edge $-1 $208 34.715785771439634 $305 39.876733490945135 $121 $307 forward 7 unknown #
coedge $-1 $122 $300 $303 $308 forward $117 $-1 #
vertex $-1 $204 $309 #
vertex $-1 $123 $310 #
straight-curve $-1 32.791237566615678 37.492250573245393 9.4509330917487375 0 -1 0 I I #
coedge $-1 $210 $210 $-1 $311 reversed $126 $-1 #
edge $-1 $312 0 $312 6.2831853071796004 $127 $313 forward 7 unknown #
vertex $-1 $130 $314 #
ellipse-curve $-1 35.215686058419649 18.570923969065081 7.262567127354699 0 0.84804810408105047 0.52991925155115449 1 0 0 1 I I #
coedge $-1 $214 $214 $-1 $315 reversed $133 $-1 #
edge $-1 $316 0 $316 6.2831853071796004 $134 $317 forward 7 unknown #
vertex $-1 $137 $318 #
ellipse-curve $-1 38.852358796125614 18.570923969065081 7.262567127354699 0 0.84804810408105047 0.52991925155115449 1 0 0 1 I I #
coedge $-1 $218 $218 $-1 $319 reversed $140 $-1 #
edge $-1 $320 0 $320 6.2831853071796004 $141 $321 forward 7 unknown #
vertex $-1 $144 $322 #
ellipse-curve $-1 42.489031533831579 18.570923969065081 7.262567127354699 0 0.84804810408105047 0.52991925155115449 1 0 0 1 I I #
face $-1 $-1 $234 $30 $-1 $323 forward single #
loop $-1 $-1 $324 $145 #
plane-surface $-1 0 -19.938366745472575 0 0 1 0 0 0 1 forward_v I I I I #
coedge $-1 $325 $326 $327 $328 reversed $146 $-1 #
coedge $-1 $329 $148 $150 $232 forward $92 $-1 #
coedge $-1 $148 $329 $325 $330 forward $92 $-1 #
coedge $-1 $327 $151 $148 $229 forward $234 $-1 #
edge $-1 $236 -13.673234299239301 $331 -4.8654265034787976 $228 $332 forward 7 unknown #
coedge $-1 $333 $334 $149 $231 forward $223 $-1 #
edge $-1 $335 -28.876963664885558 $235 -21.778070663689 $230 $336 forward 7 unknown #
edge $-1 $236 -9.552502659935918 $335 -2.6407141616433227e-014 $150 $337 forward 7 unknown #
coedge $-1 $151 $327 $333 $338 forward $234 $-1 #
loop $-1 $-1 $327 $222 #
vertex $-1 $231 $339 #
vertex $-1 $152 $340 #
straight-curve $-1 22.94256470059835 -43.346404019907041 9.4509330917487375 0 1 0 I I #
coedge $-1 $238 $238 $-1 $341 reversed $155 $-1 #
edge $-1 $342 0 $342 6.2831853071796004 $156 $343 forward 7 unknown #
vertex $-1 $159 $344 #
ellipse-curve $-1 18.538660802718105 -16.742430840856965 5.9014865911504568 0 -0.74314483375859142 0.66913059716165679 1 0 0 1 I I #
face $-1 $-1 $175 $24 $-1 $345 reversed single #
loop $-1 $-1 $258 $160 #
plane-surface $-1 0 19.938366745472575 0 0 -1 0 0 0 -1 forward_v I I I I #
coedge $-1 $346 $256 $259 $347 forward $161 $-1 #
coedge $-1 $262 $163 $164 $250 reversed $101 $-1 #
coedge $-1 $256 $346 $163 $248 reversed $161 $-1 #
edge $-1 $263 -9.4509330917487393 $348 9.4509330917487393 $247 $349 forward 7 unknown #
coedge $-1 $165 $164 $346 $350 forward $65 $-1 #
edge $-1 $254 -44.91348002563555 $348 44.91348002563555 $246 $351 forward 7 unknown #
coedge $-1 $259 $258 $165 $252 reversed $243 $-1 #
edge $-1 $352 -44.91348002563555 $253 44.91348002563555 $251 $353 forward 7 unknown #
vertex $-1 $167 $354 #
vertex $-1 $265 $355 #
straight-curve $-1 44.91348002563555 0 -9.4509330917487393 0 -1 0 I I #
coedge $-1 $245 $247 $168 $257 reversed $161 $-1 #
edge $-1 $260 -19.938366745472575 $263 19.938366745472575 $256 $356 forward 7 unknown #
coedge $-1 $251 $169 $174 $266 forward $243 $-1 #
coedge $-1 $169 $251 $245 $347 reversed $243 $-1 #
vertex $-1 $170 $357 #
straight-curve $-1 0 19.938366745472575 9.4509330917487393 -1 0 0 I I #
coedge $-1 $171 $246 $173 $265 reversed $101 $-1 #
vertex $-1 $257 $358 #
straight-curve $-1 0 -19.938366745472575 9.4509330917487393 1 0 0 I I #
edge $-1 $176 -9.4509330917487393 $254 9.4509330917487393 $173 $359 forward 7 unknown #
edge $-1 $177 -9.4509330917487393 $253 9.4509330917487393 $174 $360 forward 7 unknown #
point $-1 44.91348002563555 -19.938366745472575 9.4509330917487393 #
point $-1 44.91348002563555 19.938366745472575 9.4509330917487393 #
face $-1 $-1 $286 $25 $-1 $361 reversed single #
loop $-1 $-1 $362 $179 #
plane-surface $-1 -44.91348002563555 0 0 1 0 0 0 0 -1 forward_v I I I I #
coedge $-1 $273 $289 $183 $276 forward $180 $-1 #
coedge $-1 $190 $272 $182 $274 forward $180 $-1 #
edge $-1 $280 0.88518666852232641 $193 5.5334409340945276 $273 $363 forward 7 unknown #
coedge $-1 $184 $183 $362 $364 reversed $69 $-1 #
edge $-1 $365 -24.696785943167242 $280 -15.736602221769374 $272 $366 forward 7 unknown #
coedge $-1 $285 $284 $184 $278 forward $286 $-1 #
edge $-1 $279 15.736602221769374 $367 24.696785943167242 $277 $368 forward 7 unknown #
vertex $-1 $278 $369 #
vertex $-1 $276 $370 #
straight-curve $-1 -35.953296304237682 0 4.094500469830753 0 -1 0 I I #
coedge $-1 $371 $372 $187 $283 forward $270 $-1 #
edge $-1 $290 -19.938366745472575 $287 19.938366745472575 $282 $373 forward 7 unknown #
coedge $-1 $277 $188 $192 $292 forward $286 $-1 #
coedge $-1 $188 $277 $371 $374 reversed $286 $-1 #
loop $-1 $-1 $277 $269 #
vertex $-1 $374 $375 #
straight-curve $-1 -20.216694082468308 19.938366745472575 8.7427547354029542 1 0 0 I I #
coedge $-1 $272 $190 $372 $376 forward $180 $-1 #
vertex $-1 $376 $377 #
straight-curve $-1 -20.216694082468308 -19.938366745472575 8.7427547354029542 -1 0 0 I I #
edge $-1 $194 -5.5334409340945276 $279 -0.88518666852232641 $284 $378 forward 7 unknown #
point $-1 -35.953296304237682 -19.938366745472575 8.7427547354029542 #
point $-1 -35.953296304237682 19.938366745472575 8.7427547354029542 #
loop $-1 $-1 $203 $196 #
plane-surface $-1 0 19.938366745472575 0 0 -1 0 0 0 -1 forward_v I I I I #
coedge $-1 $379 $380 $200 $299 forward $197 $-1 #
coedge $-1 $200 $199 $304 $381 reversed $73 $-1 #
edge $-1 $301 17.908697879436364 $382 23.069645598941861 $297 $383 forward 7 unknown #
coedge $-1 $206 $201 $380 $384 forward $117 $-1 #
vertex $-1 $384 $385 #
straight-curve $-1 19.426179398062807 17.203481192657577 9.4509330917487411 1 0 0 I I #
coedge $-1 $386 $203 $206 $308 reversed $295 $-1 #
coedge $-1 $203 $386 $298 $381 forward $295 $-1 #
vertex $-1 $204 $387 #
straight-curve $-1 32.791237566615678 19.938366745472575 43.246312418193533 0 0 1 I I #
straight-curve $-1 32.791237566615678 -1.193082020353927 38.891589396902027 0 0.52991925155115449 -0.84804810408105047 I I #
edge $-1 $388 -44.91348002563555 $207 -32.791237566615678 $303 $389 forward 7 unknown #
point $-1 32.791237566615678 19.938366745472575 9.4509330917487393 #
point $-1 32.791237566615678 17.203481192657584 9.4509330917487375 #
edge $-1 $390 1 $390 0 $210 $-1 forward 7 unknown #
vertex $-1 $211 $391 #
ellipse-curve $-1 35.215686058419649 16.946440941969058 6.2474775048042241 0 0.84804810408105047 0.52991925155115449 1 0 0 1 I I #
point $-1 36.215686058419649 18.570923969065078 7.2625671273546963 #
edge $-1 $392 1 $392 0 $214 $-1 forward 7 unknown #
vertex $-1 $215 $393 #
ellipse-curve $-1 38.852358796125614 16.946440941969058 6.2474775048042241 0 0.84804810408105047 0.52991925155115449 1 0 0 1 I I #
point $-1 39.852358796125614 18.570923969065078 7.2625671273546963 #
edge $-1 $394 1 $394 0 $218 $-1 forward 7 unknown #
vertex $-1 $219 $395 #
ellipse-curve $-1 42.489031533831579 16.946440941969058 6.2474775048042241 0 0.84804810408105047 0.52991925155115449 1 0 0 1 I I #
point $-1 43.489031533831579 18.570923969065078 7.2625671273546963 #
plane-surface $-1 0 0 9.4509330917487393 0 0 1 1 0 0 forward_v I I I I #
coedge $-1 $334 $333 $326 $396 forward $223 $-1 #
coedge $-1 $326 $225 $227 $330 reversed $146 $-1 #
coedge $-1 $225 $325 $324 $396 reversed $146 $-1 #
coedge $-1 $233 $228 $225 $328 forward $234 $-1 #
edge $-1 $331 -29.799909083665685 $397 -23.408037274434466 $327 $398 forward 7 unknown #
coedge $-1 $227 $226 $334 $399 reversed $92 $-1 #
edge $-1 $400 2.6407141616433227e-014 $331 9.552502659935918 $325 $401 forward 7 unknown #
vertex $-1 $229 $402 #
straight-curve $-1 9.2693304013590492 -13.546494936241354 9.4509330917487393 -1 0 0 I I #
coedge $-1 $324 $230 $233 $338 reversed $223 $-1 #
coedge $-1 $230 $324 $329 $399 forward $223 $-1 #
vertex $-1 $231 $403 #
straight-curve $-1 22.94256470059835 -19.938366745472571 31.229003755437738 0 0 1 I I #
straight-curve $-1 22.94256470059835 -19.938366745472592 2.3520400905521583 0 -0.66913059716165679 -0.74314483375859142 I I #
edge $-1 $397 14.134756904837847 $235 22.94256470059835 $333 $404 forward 7 unknown #
point $-1 22.94256470059835 -19.938366745472575 9.4509330917487393 #
point $-1 22.94256470059835 -13.546494936241356 9.4509330917487393 #
edge $-1 $405 1 $405 0 $238 $-1 forward 7 unknown #
vertex $-1 $239 $406 #
ellipse-curve $-1 18.538660802718105 -15.204658316421771 4.5168700253998706 0 -0.74314483375859142 0.66913059716165679 1 0 0 1 I I #
point $-1 19.538660802718105 -16.742430840856951 5.9014865911504426 #
plane-surface $-1 44.91348002563555 0 0 -1 0 0 0 0 1 forward_v I I I I #
coedge $-1 $247 $245 $249 $350 reversed $161 $-1 #
edge $-1 $260 -9.4509330917487393 $352 9.4509330917487393 $259 $407 forward 7 unknown #
vertex $-1 $350 $408 #
straight-curve $-1 -44.91348002563555 -19.938366745472575 0 0 0 -1 I I #
edge $-1 $348 -19.938366745472575 $352 19.938366745472575 $346 $409 forward 7 unknown #
straight-curve $-1 0 -19.938366745472575 -9.4509330917487393 -1 0 0 I I #
vertex $-1 $252 $410 #
straight-curve $-1 0 19.938366745472575 -9.4509330917487393 1 0 0 I I #
point $-1 44.91348002563555 19.938366745472575 -9.4509330917487393 #
point $-1 44.91348002563555 -19.938366745472575 -9.4509330917487393 #
straight-curve $-1 -44.91348002563555 0 9.4509330917487393 0 -1 0 I I #
point $-1 -44.91348002563555 19.938366745472575 9.4509330917487393 #
point $-1 -44.91348002563555 -19.938366745472575 9.4509330917487393 #
straight-curve $-1 44.91348002563555 -19.938366745472575 0 0 0 -1 I I #
straight-curve $-1 44.91348002563555 19.938366745472575 0 0 0 -1 I I #
plane-surface $-1 0 19.938366745472575 0 0 -1 0 0 0 -1 forward_v I I I I #
coedge $-1 $372 $371 $275 $364 forward $270 $-1 #
straight-curve $-1 -35.953296304237682 -19.938366745472575 3.2093138013084266 0 0 1 I I #
edge $-1 $367 -19.938366745472575 $365 19.938366745472575 $362 $411 forward 7 unknown #
vertex $-1 $276 $412 #
straight-curve $-1 -20.216694082468308 -19.938366745472575 4.094500469830753 1 0 0 I I #
vertex $-1 $278 $413 #
straight-curve $-1 -20.216694082468308 19.938366745472575 4.094500469830753 -1 0 0 I I #
point $-1 -35.953296304237682 19.938366745472575 4.094500469830753 #
point $-1 -35.953296304237682 -19.938366745472575 4.094500469830753 #
coedge $-1 $362 $282 $285 $374 forward $270 $-1 #
coedge $-1 $282 $362 $289 $376 reversed $270 $-1 #
straight-curve $-1 -44.91348002563555 0 8.7427547354029542 0 1 0 I I #
edge $-1 $287 -8.7427547354029542 $367 -4.094500469830753 $285 $414 forward 7 unknown #
point $-1 -44.91348002563555 19.938366745472575 8.7427547354029542 #
edge $-1 $290 -8.7427547354029542 $365 -4.094500469830753 $372 $415 forward 7 unknown #
point $-1 -44.91348002563555 -19.938366745472575 8.7427547354029542 #
straight-curve $-1 -35.953296304237682 19.938366745472575 3.2093138013084266 0 0 -1 I I #
coedge $-1 $380 $297 $386 $416 reversed $197 $-1 #
coedge $-1 $297 $379 $300 $384 reversed $197 $-1 #
edge $-1 $382 -25.487300627572743 $305 -13.365058168552871 $304 $417 forward 7 unknown #
vertex $-1 $299 $418 #
straight-curve $-1 44.91348002563555 7.7133174161309181 24.638370374965074 0 0.52991925155115449 -0.84804810408105047 I I #
edge $-1 $301 17.203481192657584 $388 19.938366745472575 $380 $419 forward 7 unknown #
point $-1 44.91348002563555 17.203481192657584 9.4509330917487375 #
coedge $-1 $304 $303 $379 $416 forward $295 $-1 #
point $-1 32.791237566615678 19.938366745472575 5.0742011629606765 #
vertex $-1 $384 $420 #
straight-curve $-1 0 19.938366745472575 9.4509330917487393 -1 0 0 I I #
vertex $-1 $311 $421 #
point $-1 36.215686058419649 16.946440941969058 6.2474775048042241 #
vertex $-1 $315 $422 #
point $-1 39.852358796125614 16.946440941969058 6.2474775048042241 #
vertex $-1 $319 $423 #
point $-1 43.489031533831579 16.946440941969058 6.2474775048042241 #
edge $-1 $397 21.778070663689 $400 28.876963664885558 $324 $424 forward 7 unknown #
vertex $-1 $338 $425 #
straight-curve $-1 14.134756904837847 -43.346404019907041 9.4509330917487375 0 -1 0 I I #
edge $-1 $400 4.8654265034787976 $335 13.673234299239301 $334 $426 forward 7 unknown #
vertex $-1 $399 $427 #
straight-curve $-1 14.134756904837847 -19.938366745472592 2.3520400905521583 0 0.66913059716165679 0.74314483375859142 I I #
point $-1 14.134756904837847 -13.546494936241356 9.4509330917487393 #
point $-1 22.94256470059835 -19.938366745472575 2.3520400905521779 #
straight-curve $-1 0 -19.938366745472575 9.4509330917487393 1 0 0 I I #
vertex $-1 $341 $428 #
point $-1 19.538660802718105 -15.204658316421771 4.5168700253998706 #
straight-curve $-1 -44.91348002563555 19.938366745472575 0 0 0 -1 I I #
point $-1 -44.91348002563555 -19.938366745472575 -9.4509330917487393 #
straight-curve $-1 -44.91348002563555 0 -9.4509330917487393 0 1 0 I I #
point $-1 -44.91348002563555 19.938366745472575 -9.4509330917487393 #
straight-curve $-1 -44.91348002563555 0 4.094500469830753 0 -1 0 I I #
point $-1 -44.91348002563555 -19.938366745472575 4.094500469830753 #
point $-1 -44.91348002563555 19.938366745472575 4.094500469830753 #
straight-curve $-1 -44.91348002563555 19.938366745472575 0 0 0 -1 I I #
straight-curve $-1 -44.91348002563555 -19.938366745472575 0 0 0 -1 I I #
edge $-1 $388 -9.4509330917487393 $382 -5.0742011629606765 $379 $429 forward 7 unknown #
straight-curve $-1 19.426179398062807 19.938366745472575 5.07420116296068 -1 0 0 I I #
point $-1 44.91348002563555 19.938366745472575 5.0742011629606765 #
straight-curve $-1 44.91348002563555 0 9.4509330917487393 0 1 0 I I #
point $-1 44.91348002563555 19.938366745472575 9.4509330917487393 #
point $-1 35.215686058419649 16.098392837888007 5.7175582532530695 #
point $-1 38.852358796125614 16.098392837888007 5.7175582532530695 #
point $-1 42.489031533831579 16.098392837888007 5.7175582532530695 #
straight-curve $-1 14.134756904837847 -19.938366745472571 31.229003755437738 0 0 -1 I I #
point $-1 14.134756904837847 -19.938366745472575 9.4509330917487393 #
straight-curve $-1 9.2693304013590492 -19.938366745472575 2.3520400905521783 1 0 0 I I #
point $-1 14.134756904837847 -19.938366745472575 2.3520400905521779 #
point $-1 18.538660802718105 -14.461513482663179 3.847739428238214 #
straight-curve $-1 44.91348002563555 19.938366745472575 0 0 0 -1 I I #
End-of-ACIS-data 