500 0 5 0           
7 Unknown 11 ACIS 5.0 NT 24 Fri Mar 26 17:46:06 1999 
-1 9.9999999999999995e-007 1e-010 
body $-1 $5 $-1 $6 #
body $-1 $7 $-1 $8 #
body $-1 $9 $-1 $10 #
body $-1 $11 $-1 $12 #
body $-1 $13 $-1 $14 #
lump $-1 $-1 $15 $0 #
transform $-1 1 0 0 0 1 0 0 0 1 70.625934629352699 34.652553289271715 7.7141509663156107 1 rotate no_reflect no_shear #
lump $-1 $-1 $16 $1 #
transform $-1 1 0 0 0 1 0 0 0 1 70.625934629352699 34.652553289271715 7.7141509663156107 1 rotate no_reflect no_shear #
lump $-1 $-1 $17 $2 #
transform $-1 1 0 0 0 1 0 0 0 1 70.625934629352699 34.652553289271715 7.7141509663156107 1 rotate no_reflect no_shear #
lump $-1 $-1 $18 $3 #
transform $-1 1 0 0 0 1 0 0 0 1 70.625934629352699 34.652553289271715 7.7141509663156107 1 rotate no_reflect no_shear #
lump $-1 $-1 $19 $4 #
transform $-1 1 0 0 0 1 0 0 0 1 70.625934629352699 34.652553289271715 7.7141509663156107 1 rotate no_reflect no_shear #
shell $-1 $-1 $-1 $20 $-1 $5 #
shell $-1 $-1 $-1 $21 $-1 $7 #
shell $-1 $-1 $-1 $22 $-1 $9 #
shell $-1 $-1 $-1 $23 $-1 $11 #
shell $-1 $-1 $-1 $24 $-1 $13 #
face $-1 $25 $26 $15 $-1 $27 forward single #
face $-1 $28 $29 $16 $-1 $30 reversed single #
face $-1 $31 $32 $17 $-1 $33 reversed single #
face $-1 $34 $35 $18 $-1 $36 forward single #
face $-1 $37 $38 $19 $-1 $39 forward single #
face $-1 $40 $41 $15 $-1 $42 reversed single #
loop $-1 $-1 $43 $20 #
plane-surface $-1 0 0 7.7141509663156107 0 0 1 1 0 0 forward_v I I I I #
face $-1 $44 $45 $16 $-1 $46 reversed single #
loop $-1 $-1 $47 $21 #
plane-surface $-1 -67.029096736743 -31.582786403271488 0 1 0 0 0 0 -1 forward_v I I I I #
face $-1 $48 $49 $17 $-1 $50 reversed single #
loop $-1 $-1 $51 $22 #
plane-surface $-1 5.8461703149475284 93.248982836369578 149.52346177346539 1 0 0 0 -0.74314483375859142 -0.66913059716165679 forward_v I I I I #
face $-1 $52 $53 $18 $-1 $54 forward single #
loop $-1 $55 $56 $23 #
cone-surface $-1 12.016398108811003 32.246755526719255 5.1495072726407161 0 -0.74314483375859142 -0.66913059716165679 0.5 0 0 1 I I 0 1 0.5 forward I I I I #
face $-1 $57 $58 $19 $-1 $59 forward single #
loop $-1 $60 $61 $24 #
cone-surface $-1 21.271739799606223 32.246755526719255 5.1495072726407161 0 -0.74314483375859142 -0.66913059716165679 0.5 0 0 1 I I 0 1 0.5 forward I I I I #
face $-1 $62 $63 $15 $-1 $64 reversed single #
loop $-1 $-1 $65 $25 #
plane-surface $-1 0 0 -7.7141509663156107 0 0 1 1 0 0 forward_v I I I I #
coedge $-1 $66 $67 $68 $69 forward $26 $-1 #
face $-1 $70 $71 $16 $-1 $72 reversed single #
loop $-1 $-1 $73 $28 #
plane-surface $-1 -65.529096736743 -28.51301951727126 0 0 -1 0 0 0 -1 forward_v I I I I #
coedge $-1 $74 $75 $76 $77 forward $29 $-1 #
face $-1 $78 $79 $17 $-1 $80 reversed single #
loop $-1 $-1 $81 $31 #
plane-surface $-1 16.64406895420862 -11.721614061981327 55.007514146187575 0 0.74314483375859142 0.66913059716165679 1 0 0 forward_v I I I I #
coedge $-1 $82 $83 $84 $85 reversed $32 $-1 #
face $-1 $-1 $86 $18 $-1 $87 forward single #
loop $-1 $88 $89 $34 #
cone-surface $-1 12.016398108811003 31.550688023466186 4.522765293205989 0 -0.74314483375859142 -0.66913059716165679 0.25 0 0 1 I I -0.70710678118654746 0.70710678118654746 0.25 forward I I I I #
loop $-1 $-1 $90 $23 #
coedge $-1 $56 $56 $91 $92 reversed $35 $-1 #
face $-1 $-1 $93 $19 $-1 $94 forward single #
loop $-1 $95 $96 $37 #
cone-surface $-1 21.271739799606223 31.550688023466186 4.522765293205989 0 -0.74314483375859142 -0.66913059716165679 0.25 0 0 1 I I -0.70710678118654746 0.70710678118654746 0.25 forward I I I I #
loop $-1 $-1 $97 $24 #
coedge $-1 $61 $61 $98 $99 reversed $38 $-1 #
face $-1 $100 $101 $15 $-1 $102 reversed single #
loop $-1 $-1 $103 $40 #
plane-surface $-1 0 -34.652553289271715 0 0 1 0 0 0 1 forward_v I I I I #
coedge $-1 $104 $105 $106 $107 forward $41 $-1 #
coedge $-1 $108 $43 $109 $110 forward $26 $-1 #
coedge $-1 $43 $108 $111 $112 forward $26 $-1 #
coedge $-1 $113 $114 $43 $69 reversed $115 $-1 #
edge $-1 $116 -34.652553289271715 $117 34.652553289271715 $68 $118 forward 7 unknown #
face $-1 $119 $120 $16 $-1 $121 forward single #
loop $-1 $-1 $122 $44 #
plane-surface $-1 -64.029096736743 -31.582786403271488 0 -1 0 0 0 0 1 forward_v I I I I #
coedge $-1 $123 $124 $125 $126 forward $45 $-1 #
coedge $-1 $127 $47 $128 $129 reversed $29 $-1 #
coedge $-1 $47 $127 $130 $131 reversed $29 $-1 #
coedge $-1 $124 $123 $47 $77 reversed $45 $-1 #
edge $-1 $132 -7.7141509663156107 $133 7.7141509663156107 $76 $134 forward 7 unknown #
face $-1 $135 $136 $17 $-1 $137 reversed single #
loop $-1 $-1 $138 $48 #
plane-surface $-1 27.441967593469712 93.248982836369578 149.52346177346539 -1 0 0 0 0.74314483375859142 0.66913059716165679 forward_v I I I I #
coedge $-1 $139 $140 $141 $142 reversed $49 $-1 #
coedge $-1 $83 $51 $143 $144 reversed $32 $-1 #
coedge $-1 $51 $82 $139 $145 reversed $32 $-1 #
coedge $-1 $141 $146 $51 $85 forward $147 $-1 #
edge $-1 $148 11.971938128913074 $149 15.762971064391159 $84 $150 forward 7 unknown #
loop $-1 $-1 $91 $52 #
plane-surface $-1 16.64406895420862 -11.721614061981327 55.007514146187575 0 0.74314483375859142 0.66913059716165679 1 0 0 forward_v I I I I #
loop $-1 $-1 $151 $34 #
coedge $-1 $89 $89 $90 $152 reversed $53 $-1 #
coedge $-1 $90 $90 $89 $152 forward $55 $-1 #
coedge $-1 $91 $91 $56 $92 forward $86 $-1 #
edge $-1 $153 4.2285560693125181e-015 $153 6.2831853071796049 $91 $154 forward 7 unknown #
loop $-1 $-1 $98 $57 #
plane-surface $-1 16.64406895420862 -11.721614061981327 55.007514146187575 0 0.74314483375859142 0.66913059716165679 1 0 0 forward_v I I I I #
loop $-1 $-1 $155 $37 #
coedge $-1 $96 $96 $97 $156 reversed $58 $-1 #
coedge $-1 $97 $97 $96 $156 forward $60 $-1 #
coedge $-1 $98 $98 $61 $99 forward $93 $-1 #
edge $-1 $157 4.2285560693125181e-015 $157 6.2831853071796049 $98 $158 forward 7 unknown #
face $-1 $159 $160 $15 $-1 $161 reversed single #
loop $-1 $-1 $162 $62 #
plane-surface $-1 -70.625934629352699 0 0 1 0 0 0 0 -1 forward_v I I I I #
coedge $-1 $163 $111 $164 $165 forward $63 $-1 #
coedge $-1 $166 $65 $163 $167 forward $41 $-1 #
coedge $-1 $65 $166 $168 $169 forward $41 $-1 #
coedge $-1 $114 $113 $65 $107 reversed $115 $-1 #
edge $-1 $170 -34.652553289271715 $171 34.652553289271715 $106 $172 forward 7 unknown #
coedge $-1 $67 $66 $173 $174 forward $26 $-1 #
coedge $-1 $175 $176 $66 $110 reversed $160 $-1 #
edge $-1 $117 -70.625934629352699 $177 70.625934629352699 $109 $178 forward 7 unknown #
coedge $-1 $103 $179 $67 $112 reversed $63 $-1 #
edge $-1 $180 -70.625934629352699 $116 70.625934629352699 $111 $181 forward 7 unknown #
coedge $-1 $106 $68 $179 $182 forward $115 $-1 #
coedge $-1 $68 $106 $175 $183 reversed $115 $-1 #
loop $-1 $-1 $113 $159 #
vertex $-1 $69 $184 #
vertex $-1 $69 $185 #
straight-curve $-1 70.625934629352699 0 7.7141509663156107 0 1 0 I I #
face $-1 $186 $187 $16 $-1 $188 reversed single #
loop $-1 $-1 $189 $70 #
plane-surface $-1 0 0 7.7141509663156107 0 0 1 1 0 0 forward_v I I I I #
coedge $-1 $190 $191 $192 $193 reversed $71 $-1 #
coedge $-1 $76 $73 $194 $195 reversed $45 $-1 #
coedge $-1 $73 $76 $196 $197 reversed $45 $-1 #
coedge $-1 $191 $190 $73 $126 reversed $71 $-1 #
edge $-1 $198 -7.7141509663156107 $199 7.7141509663156107 $125 $200 forward 7 unknown #
coedge $-1 $75 $74 $201 $202 reversed $29 $-1 #
coedge $-1 $194 $203 $74 $129 forward $187 $-1 #
edge $-1 $204 -18.861160087635973 $133 -12.721626315635516 $128 $205 forward 7 unknown #
coedge $-1 $206 $196 $75 $131 forward $120 $-1 #
edge $-1 $132 12.721626315635516 $207 18.861160087635973 $130 $208 forward 7 unknown #
vertex $-1 $131 $209 #
vertex $-1 $129 $210 #
straight-curve $-1 -67.029096736743 -28.51301951727126 0 0 0 -1 I I #
face $-1 $-1 $147 $17 $-1 $211 forward single #
loop $-1 $-1 $212 $78 #
plane-surface $-1 0 34.652553289271715 0 0 -1 0 0 0 -1 forward_v I I I I #
coedge $-1 $213 $214 $215 $216 reversed $79 $-1 #
coedge $-1 $217 $81 $83 $145 forward $49 $-1 #
coedge $-1 $81 $217 $213 $218 forward $49 $-1 #
coedge $-1 $215 $84 $81 $142 forward $147 $-1 #
edge $-1 $149 -2.4758641621567818 $219 19.119933116365402 $141 $220 forward 7 unknown #
coedge $-1 $221 $222 $82 $144 forward $136 $-1 #
edge $-1 $223 -71.257948647478244 $148 -67.047579920417078 $143 $224 forward 7 unknown #
edge $-1 $149 63.639496678833233 $223 69.30510657854343 $83 $225 forward 7 unknown #
coedge $-1 $84 $215 $221 $226 forward $147 $-1 #
loop $-1 $-1 $215 $135 #
vertex $-1 $144 $227 #
vertex $-1 $85 $228 #
straight-curve $-1 5.8461703149475284 46.624491418184789 7.7141509663156143 0 -1 0 I I #
coedge $-1 $151 $151 $-1 $229 reversed $88 $-1 #
edge $-1 $230 0 $230 6.2831853071796004 $89 $231 forward 7 unknown #
vertex $-1 $92 $232 #
ellipse-curve $-1 12.016398108811003 32.757036821532672 5.6089666027850251 0 0.74314483375859142 0.66913059716165679 0.5 0 0 1 I I #
coedge $-1 $155 $155 $-1 $233 reversed $95 $-1 #
edge $-1 $234 0 $234 6.2831853071796004 $96 $235 forward 7 unknown #
vertex $-1 $99 $236 #
ellipse-curve $-1 21.271739799606223 32.757036821532672 5.6089666027850251 0 0.74314483375859142 0.66913059716165679 0.5 0 0 1 I I #
face $-1 $-1 $115 $15 $-1 $237 reversed single #
loop $-1 $-1 $175 $100 #
plane-surface $-1 0 34.652553289271715 0 0 -1 0 0 0 -1 forward_v I I I I #
coedge $-1 $238 $173 $176 $239 forward $101 $-1 #
coedge $-1 $179 $103 $104 $167 reversed $63 $-1 #
coedge $-1 $173 $238 $103 $165 reversed $101 $-1 #
edge $-1 $180 -7.7141509663156107 $240 7.7141509663156107 $164 $241 forward 7 unknown #
coedge $-1 $105 $104 $238 $242 forward $41 $-1 #
edge $-1 $171 -70.625934629352699 $240 70.625934629352699 $163 $243 forward 7 unknown #
coedge $-1 $176 $175 $105 $169 reversed $160 $-1 #
edge $-1 $244 -70.625934629352699 $170 70.625934629352699 $168 $245 forward 7 unknown #
vertex $-1 $107 $246 #
vertex $-1 $182 $247 #
straight-curve $-1 70.625934629352699 0 -7.7141509663156107 0 -1 0 I I #
coedge $-1 $162 $164 $108 $174 reversed $101 $-1 #
edge $-1 $177 -34.652553289271715 $180 34.652553289271715 $173 $248 forward 7 unknown #
coedge $-1 $168 $109 $114 $183 forward $160 $-1 #
coedge $-1 $109 $168 $162 $239 reversed $160 $-1 #
vertex $-1 $110 $249 #
straight-curve $-1 0 34.652553289271715 7.7141509663156107 -1 0 0 I I #
coedge $-1 $111 $163 $113 $182 reversed $63 $-1 #
vertex $-1 $174 $250 #
straight-curve $-1 0 -34.652553289271715 7.7141509663156107 1 0 0 I I #
edge $-1 $116 -7.7141509663156107 $171 7.7141509663156107 $113 $251 forward 7 unknown #
edge $-1 $117 -7.7141509663156107 $170 7.7141509663156107 $114 $252 forward 7 unknown #
point $-1 70.625934629352699 -34.652553289271715 7.7141509663156107 #
point $-1 70.625934629352699 34.652553289271715 7.7141509663156107 #
face $-1 $-1 $253 $16 $-1 $254 reversed single #
loop $-1 $-1 $255 $119 #
plane-surface $-1 0 0 -7.7141509663156107 0 0 1 1 0 0 forward_v I I I I #
coedge $-1 $196 $206 $191 $256 forward $120 $-1 #
coedge $-1 $125 $122 $255 $257 reversed $71 $-1 #
coedge $-1 $122 $125 $189 $256 reversed $71 $-1 #
coedge $-1 $258 $259 $122 $193 forward $253 $-1 #
edge $-1 $260 -7.7141509663156107 $261 7.7141509663156107 $192 $262 forward 7 unknown #
coedge $-1 $255 $128 $123 $195 forward $187 $-1 #
edge $-1 $133 -34.2645483683715 $199 -31.2645483683715 $194 $263 forward 7 unknown #
coedge $-1 $130 $189 $124 $197 forward $120 $-1 #
edge $-1 $198 31.2645483683715 $132 34.2645483683715 $196 $264 forward 7 unknown #
vertex $-1 $197 $265 #
vertex $-1 $195 $266 #
straight-curve $-1 -64.029096736743 -28.51301951727126 0 0 0 -1 I I #
coedge $-1 $259 $258 $127 $202 forward $253 $-1 #
edge $-1 $207 -7.7141509663156107 $204 7.7141509663156107 $201 $267 forward 7 unknown #
coedge $-1 $128 $255 $259 $268 forward $187 $-1 #
vertex $-1 $129 $269 #
straight-curve $-1 -67.029096736743 -15.791393201635744 -7.7141509663156107 0 1 0 I I #
coedge $-1 $189 $130 $258 $270 forward $120 $-1 #
vertex $-1 $270 $271 #
straight-curve $-1 -67.029096736743 -15.791393201635744 7.7141509663156107 0 -1 0 I I #
point $-1 -67.029096736743 -28.51301951727126 7.7141509663156107 #
point $-1 -67.029096736743 -28.51301951727126 -7.7141509663156107 #
plane-surface $-1 0 0 7.7141509663156107 0 0 1 1 0 0 forward_v I I I I #
coedge $-1 $222 $221 $214 $272 forward $136 $-1 #
coedge $-1 $214 $138 $140 $218 reversed $79 $-1 #
coedge $-1 $138 $213 $212 $272 reversed $79 $-1 #
coedge $-1 $146 $141 $138 $216 forward $147 $-1 #
edge $-1 $219 -15.762971064391159 $273 -11.971938128913074 $215 $274 forward 7 unknown #
coedge $-1 $140 $139 $222 $275 reversed $49 $-1 #
edge $-1 $276 -69.30510657854343 $219 -63.639496678833233 $213 $277 forward 7 unknown #
vertex $-1 $142 $278 #
straight-curve $-1 8.3220344771043102 30.861520353793637 7.7141509663156071 1 0 0 I I #
coedge $-1 $212 $143 $146 $226 reversed $136 $-1 #
coedge $-1 $143 $212 $217 $275 forward $136 $-1 #
vertex $-1 $144 $279 #
straight-curve $-1 5.8461703149475284 34.652553289271715 74.761730886732693 0 0 1 I I #
straight-curve $-1 5.8461703149475284 -11.721614061981327 55.007514146187575 0 0.66913059716165679 -0.74314483375859142 I I #
edge $-1 $273 -27.441967593469712 $148 -5.8461703149475284 $221 $280 forward 7 unknown #
point $-1 5.8461703149475284 34.652553289271715 7.7141509663156107 #
point $-1 5.8461703149475284 30.86152035379363 7.7141509663156143 #
edge $-1 $281 1 $281 0 $151 $-1 forward 7 unknown #
vertex $-1 $152 $282 #
ellipse-curve $-1 12.016398108811003 31.736474231905834 4.6900479424964034 0 0.74314483375859142 0.66913059716165679 0.5 0 0 1 I I #
point $-1 12.516398108811003 32.757036821532679 5.6089666027850287 #
edge $-1 $283 1 $283 0 $155 $-1 forward 7 unknown #
vertex $-1 $156 $284 #
ellipse-curve $-1 21.271739799606223 31.736474231905834 4.6900479424964034 0 0.74314483375859142 0.66913059716165679 0.5 0 0 1 I I #
point $-1 21.771739799606223 32.757036821532679 5.6089666027850287 #
plane-surface $-1 70.625934629352699 0 0 -1 0 0 0 0 1 forward_v I I I I #
coedge $-1 $164 $162 $166 $242 reversed $101 $-1 #
edge $-1 $177 -7.7141509663156107 $244 7.7141509663156107 $176 $285 forward 7 unknown #
vertex $-1 $242 $286 #
straight-curve $-1 -70.625934629352699 -34.652553289271715 0 0 0 -1 I I #
edge $-1 $240 -34.652553289271715 $244 34.652553289271715 $238 $287 forward 7 unknown #
straight-curve $-1 0 -34.652553289271715 -7.7141509663156107 -1 0 0 I I #
vertex $-1 $169 $288 #
straight-curve $-1 0 34.652553289271715 -7.7141509663156107 1 0 0 I I #
point $-1 70.625934629352699 34.652553289271715 -7.7141509663156107 #
point $-1 70.625934629352699 -34.652553289271715 -7.7141509663156107 #
straight-curve $-1 -70.625934629352699 0 7.7141509663156107 0 -1 0 I I #
point $-1 -70.625934629352699 34.652553289271715 7.7141509663156107 #
point $-1 -70.625934629352699 -34.652553289271715 7.7141509663156107 #
straight-curve $-1 70.625934629352699 -34.652553289271715 0 0 0 -1 I I #
straight-curve $-1 70.625934629352699 34.652553289271715 0 0 0 -1 I I #
loop $-1 $-1 $192 $186 #
plane-surface $-1 0 -34.652553289271715 0 0 1 0 0 0 1 forward_v I I I I #
coedge $-1 $203 $194 $190 $257 forward $187 $-1 #
edge $-1 $261 -18.861160087635973 $198 -12.721626315635516 $189 $289 forward 7 unknown #
edge $-1 $199 12.721626315635516 $260 18.861160087635973 $255 $290 forward 7 unknown #
coedge $-1 $201 $192 $206 $270 reversed $253 $-1 #
coedge $-1 $192 $201 $203 $268 reversed $253 $-1 #
vertex $-1 $268 $291 #
vertex $-1 $193 $292 #
straight-curve $-1 -64.029096736743 -34.652553289271715 0 0 0 1 I I #
straight-curve $-1 -32.7645483683715 -28.51301951727126 -7.7141509663156107 1 0 0 I I #
straight-curve $-1 -32.7645483683715 -28.51301951727126 7.7141509663156107 -1 0 0 I I #
point $-1 -64.029096736743 -28.51301951727126 7.7141509663156107 #
point $-1 -64.029096736743 -28.51301951727126 -7.7141509663156107 #
straight-curve $-1 -67.029096736743 -34.652553289271715 0 0 0 -1 I I #
edge $-1 $260 64.029096736743 $204 67.029096736743 $259 $293 forward 7 unknown #
point $-1 -67.029096736743 -34.652553289271715 -7.7141509663156107 #
edge $-1 $207 -67.029096736743 $261 -64.029096736743 $258 $294 forward 7 unknown #
point $-1 -67.029096736743 -34.652553289271715 7.7141509663156107 #
edge $-1 $273 67.047579920417078 $276 71.257948647478244 $212 $295 forward 7 unknown #
vertex $-1 $226 $296 #
straight-curve $-1 27.441967593469712 46.624491418184789 7.7141509663156143 0 1 0 I I #
edge $-1 $276 -19.119933116365402 $223 2.4758641621567818 $222 $297 forward 7 unknown #
vertex $-1 $275 $298 #
straight-curve $-1 27.441967593469712 -11.721614061981327 55.007514146187575 0 -0.66913059716165679 0.74314483375859142 I I #
point $-1 27.441967593469712 30.86152035379363 7.7141509663156143 #
point $-1 5.8461703149475284 34.652553289271715 3.5037822392544484 #
straight-curve $-1 0 34.652553289271715 7.7141509663156107 -1 0 0 I I #
vertex $-1 $229 $299 #
point $-1 12.516398108811003 31.736474231905834 4.6900479424964034 #
vertex $-1 $233 $300 #
point $-1 21.771739799606223 31.736474231905834 4.6900479424964034 #
straight-curve $-1 -70.625934629352699 34.652553289271715 0 0 0 -1 I I #
point $-1 -70.625934629352699 -34.652553289271715 -7.7141509663156107 #
straight-curve $-1 -70.625934629352699 0 -7.7141509663156107 0 1 0 I I #
point $-1 -70.625934629352699 34.652553289271715 -7.7141509663156107 #
straight-curve $-1 -64.029096736743 -15.791393201635744 7.7141509663156107 0 1 0 I I #
straight-curve $-1 -64.029096736743 -15.791393201635744 -7.7141509663156107 0 -1 0 I I #
point $-1 -64.029096736743 -34.652553289271715 -7.7141509663156107 #
point $-1 -64.029096736743 -34.652553289271715 7.7141509663156107 #
straight-curve $-1 0 -34.652553289271715 -7.7141509663156107 -1 0 0 I I #
straight-curve $-1 0 -34.652553289271715 7.7141509663156107 1 0 0 I I #
straight-curve $-1 27.441967593469712 34.652553289271715 74.761730886732693 0 0 -1 I I #
point $-1 27.441967593469712 34.652553289271715 7.7141509663156107 #
straight-curve $-1 8.3220344771043102 34.652553289271715 3.5037822392544484 -1 0 0 I I #
point $-1 27.441967593469712 34.652553289271715 3.5037822392544484 #
point $-1 12.016398108811003 31.364901815026538 4.3554826439155745 #
point $-1 21.271739799606223 31.364901815026538 4.3554826439155745 #
End-of-ACIS-data 