500 0 3 0           
7 Unknown 11 ACIS 5.0 NT 24 Thu Mar 25 17:55:58 1999 
-1 9.9999999999999995e-007 1e-010 
body $-1 $3 $-1 $4 #
body $-1 $5 $-1 $6 #
body $-1 $7 $-1 $8 #
lump $-1 $-1 $9 $0 #
transform $-1 1 0 0 0 1 0 0 0 1 41.28910184026612 20.556345190929331 10.231121419302072 1 rotate no_reflect no_shear #
lump $-1 $-1 $10 $1 #
transform $-1 1 0 0 0 1 0 0 0 1 41.28910184026612 20.556345190929331 10.231121419302072 1 rotate no_reflect no_shear #
lump $-1 $-1 $11 $2 #
transform $-1 1 0 0 0 1 0 0 0 1 41.28910184026612 20.556345190929331 10.231121419302072 1 rotate no_reflect no_shear #
shell $-1 $-1 $-1 $12 $-1 $3 #
shell $-1 $-1 $-1 $13 $-1 $5 #
shell $-1 $-1 $-1 $14 $-1 $7 #
face $-1 $15 $16 $9 $-1 $17 forward single #
face $-1 $18 $19 $10 $-1 $20 forward single #
face $-1 $21 $22 $11 $-1 $23 reversed single #
face $-1 $24 $25 $9 $-1 $26 reversed single #
loop $-1 $-1 $27 $12 #
plane-surface $-1 0 0 10.231121419302072 0 0 1 1 0 0 forward_v I I I I #
face $-1 $28 $29 $10 $-1 $30 reversed single #
loop $-1 $-1 $31 $13 #
plane-surface $-1 -41.28910184026612 0 0 1 0 0 0 0 -1 forward_v I I I I #
face $-1 $32 $33 $11 $-1 $34 reversed single #
loop $-1 $-1 $35 $14 #
plane-surface $-1 36.80238337787744 -15.087943536545037 0 0 1 0 0 0 1 forward_v I I I I #
face $-1 $36 $37 $9 $-1 $38 reversed single #
loop $-1 $-1 $39 $15 #
plane-surface $-1 0 0 -10.231121419302072 0 0 1 1 0 0 forward_v I I I I #
coedge $-1 $40 $41 $42 $43 forward $16 $-1 #
face $-1 $44 $45 $10 $-1 $46 reversed single #
loop $-1 $-1 $47 $18 #
plane-surface $-1 0 20.556345190929331 0 0 -1 0 0 0 -1 forward_v I I I I #
coedge $-1 $48 $49 $50 $51 forward $19 $-1 #
face $-1 $52 $53 $11 $-1 $54 reversed single #
loop $-1 $-1 $55 $21 #
plane-surface $-1 32.315664915488767 -13.365042298117141 0 1 0 0 0 0 -1 forward_v I I I I #
coedge $-1 $56 $57 $58 $59 forward $22 $-1 #
face $-1 $60 $61 $9 $-1 $62 reversed single #
loop $-1 $-1 $63 $24 #
plane-surface $-1 0 -20.556345190929331 0 0 1 0 0 0 1 forward_v I I I I #
coedge $-1 $64 $65 $66 $67 forward $25 $-1 #
coedge $-1 $68 $27 $69 $70 forward $16 $-1 #
coedge $-1 $27 $68 $71 $72 forward $16 $-1 #
coedge $-1 $73 $74 $27 $43 reversed $75 $-1 #
edge $-1 $76 -20.556345190929331 $77 20.556345190929331 $42 $78 forward 7 unknown #
face $-1 $79 $80 $10 $-1 $81 reversed single #
loop $-1 $-1 $50 $28 #
plane-surface $-1 -47.448138891773112 0 4.1155542223437251 0 0 1 1 0 0 forward_v I I I I #
coedge $-1 $82 $83 $48 $84 forward $29 $-1 #
coedge $-1 $85 $31 $47 $84 reversed $19 $-1 #
coedge $-1 $31 $85 $86 $87 reversed $19 $-1 #
coedge $-1 $88 $89 $31 $51 reversed $45 $-1 #
edge $-1 $90 -20.556345190929331 $91 20.556345190929331 $50 $92 forward 7 unknown #
face $-1 $93 $94 $11 $-1 $95 forward single #
loop $-1 $-1 $96 $32 #
plane-surface $-1 36.80238337787744 -11.642141059689244 0 0 -1 0 0 0 -1 forward_v I I I I #
coedge $-1 $97 $98 $99 $100 forward $33 $-1 #
coedge $-1 $101 $35 $102 $103 reversed $22 $-1 #
coedge $-1 $35 $101 $104 $105 reversed $22 $-1 #
coedge $-1 $98 $97 $35 $59 reversed $33 $-1 #
edge $-1 $106 -10.231121419302072 $107 10.231121419302072 $58 $108 forward 7 unknown #
face $-1 $109 $110 $9 $-1 $111 reversed single #
loop $-1 $-1 $112 $36 #
plane-surface $-1 -41.28910184026612 0 0 1 0 0 0 0 -1 forward_v I I I I #
coedge $-1 $113 $71 $114 $115 forward $37 $-1 #
coedge $-1 $116 $39 $113 $117 forward $25 $-1 #
coedge $-1 $39 $116 $118 $119 forward $25 $-1 #
coedge $-1 $74 $73 $39 $67 reversed $75 $-1 #
edge $-1 $120 -20.556345190929331 $121 20.556345190929331 $66 $122 forward 7 unknown #
coedge $-1 $41 $40 $123 $124 forward $16 $-1 #
coedge $-1 $125 $126 $40 $70 reversed $110 $-1 #
edge $-1 $77 -41.28910184026612 $127 41.28910184026612 $69 $128 forward 7 unknown #
coedge $-1 $63 $129 $41 $72 reversed $37 $-1 #
edge $-1 $130 -41.28910184026612 $76 41.28910184026612 $71 $131 forward 7 unknown #
coedge $-1 $66 $42 $129 $132 forward $75 $-1 #
coedge $-1 $42 $66 $125 $133 reversed $75 $-1 #
loop $-1 $-1 $73 $109 #
vertex $-1 $43 $134 #
vertex $-1 $43 $135 #
straight-curve $-1 41.28910184026612 0 10.231121419302072 0 1 0 I I #
face $-1 $136 $137 $10 $-1 $138 forward single #
loop $-1 $-1 $139 $44 #
plane-surface $-1 -53.607175943280097 0 7.1733378208228995 1 0 0 0 0 -1 forward_v I I I I #
coedge $-1 $140 $47 $89 $141 reversed $29 $-1 #
coedge $-1 $47 $140 $142 $143 reversed $29 $-1 #
edge $-1 $144 -10.231121419302072 $91 -4.1155542223437251 $47 $145 forward 7 unknown #
coedge $-1 $49 $48 $146 $147 reversed $19 $-1 #
coedge $-1 $148 $149 $49 $87 forward $150 $-1 #
edge $-1 $90 4.1155542223437251 $151 10.231121419302072 $86 $152 forward 7 unknown #
coedge $-1 $153 $50 $149 $154 forward $45 $-1 #
coedge $-1 $50 $153 $82 $141 forward $45 $-1 #
vertex $-1 $87 $155 #
vertex $-1 $84 $156 #
straight-curve $-1 -41.28910184026612 0 4.1155542223437251 0 1 0 I I #
face $-1 $157 $158 $11 $-1 $159 reversed single #
loop $-1 $-1 $160 $52 #
plane-surface $-1 0 0 10.231121419302072 0 0 1 1 0 0 forward_v I I I I #
coedge $-1 $161 $162 $163 $164 reversed $53 $-1 #
coedge $-1 $58 $55 $165 $166 reversed $33 $-1 #
coedge $-1 $55 $58 $167 $168 reversed $33 $-1 #
coedge $-1 $162 $161 $55 $100 reversed $53 $-1 #
edge $-1 $169 -10.231121419302072 $170 10.231121419302072 $99 $171 forward 7 unknown #
coedge $-1 $57 $56 $172 $173 reversed $22 $-1 #
coedge $-1 $165 $174 $56 $103 forward $158 $-1 #
edge $-1 $175 -22.887910151327393 $107 -13.914473226550047 $102 $176 forward 7 unknown #
coedge $-1 $177 $167 $57 $105 forward $94 $-1 #
edge $-1 $106 13.914473226550047 $178 22.887910151327393 $104 $179 forward 7 unknown #
vertex $-1 $105 $180 #
vertex $-1 $103 $181 #
straight-curve $-1 32.315664915488767 -15.087943536545037 0 0 0 -1 I I #
face $-1 $-1 $75 $9 $-1 $182 reversed single #
loop $-1 $-1 $125 $60 #
plane-surface $-1 0 20.556345190929331 0 0 -1 0 0 0 -1 forward_v I I I I #
coedge $-1 $183 $123 $126 $184 forward $61 $-1 #
coedge $-1 $129 $63 $64 $117 reversed $37 $-1 #
coedge $-1 $123 $183 $63 $115 reversed $61 $-1 #
edge $-1 $130 -10.231121419302072 $185 10.231121419302072 $114 $186 forward 7 unknown #
coedge $-1 $65 $64 $183 $187 forward $25 $-1 #
edge $-1 $121 -41.28910184026612 $185 41.28910184026612 $113 $188 forward 7 unknown #
coedge $-1 $126 $125 $65 $119 reversed $110 $-1 #
edge $-1 $189 -41.28910184026612 $120 41.28910184026612 $118 $190 forward 7 unknown #
vertex $-1 $67 $191 #
vertex $-1 $132 $192 #
straight-curve $-1 41.28910184026612 0 -10.231121419302072 0 -1 0 I I #
coedge $-1 $112 $114 $68 $124 reversed $61 $-1 #
edge $-1 $127 -20.556345190929331 $130 20.556345190929331 $123 $193 forward 7 unknown #
coedge $-1 $118 $69 $74 $133 forward $110 $-1 #
coedge $-1 $69 $118 $112 $184 reversed $110 $-1 #
vertex $-1 $70 $194 #
straight-curve $-1 0 20.556345190929331 10.231121419302072 -1 0 0 I I #
coedge $-1 $71 $113 $73 $132 reversed $37 $-1 #
vertex $-1 $124 $195 #
straight-curve $-1 0 -20.556345190929331 10.231121419302072 1 0 0 I I #
edge $-1 $76 -10.231121419302072 $121 10.231121419302072 $73 $196 forward 7 unknown #
edge $-1 $77 -10.231121419302072 $120 10.231121419302072 $74 $197 forward 7 unknown #
point $-1 41.28910184026612 -20.556345190929331 10.231121419302072 #
point $-1 41.28910184026612 20.556345190929331 10.231121419302072 #
face $-1 $-1 $150 $10 $-1 $198 reversed single #
loop $-1 $-1 $146 $79 #
plane-surface $-1 0 0 10.231121419302072 0 0 1 1 0 0 forward_v I I I I #
coedge $-1 $199 $200 $140 $201 forward $80 $-1 #
coedge $-1 $83 $82 $139 $201 reversed $29 $-1 #
edge $-1 $202 -6.159037051506985 $91 6.159037051506985 $82 $203 forward 7 unknown #
coedge $-1 $204 $146 $83 $143 forward $137 $-1 #
edge $-1 $144 41.28910184026612 $205 53.607175943280097 $83 $206 forward 7 unknown #
vertex $-1 $143 $207 #
straight-curve $-1 -41.28910184026612 20.556345190929331 0 0 0 -1 I I #
coedge $-1 $142 $208 $85 $147 forward $137 $-1 #
edge $-1 $151 -20.556345190929331 $144 20.556345190929331 $146 $209 forward 7 unknown #
coedge $-1 $210 $86 $208 $211 reversed $150 $-1 #
coedge $-1 $86 $210 $88 $154 reversed $150 $-1 #
loop $-1 $-1 $86 $136 #
vertex $-1 $87 $212 #
straight-curve $-1 -41.28910184026612 -20.556345190929331 0 0 0 1 I I #
coedge $-1 $89 $88 $199 $213 forward $45 $-1 #
edge $-1 $90 -6.159037051506985 $214 6.159037051506985 $149 $215 forward 7 unknown #
point $-1 -41.289101840266127 -20.556345190929331 4.1155542223437251 #
point $-1 -41.289101840266127 20.556345190929331 4.1155542223437251 #
face $-1 $-1 $216 $11 $-1 $217 reversed single #
loop $-1 $-1 $218 $93 #
plane-surface $-1 0 0 -10.231121419302072 0 0 1 1 0 0 forward_v I I I I #
coedge $-1 $167 $177 $162 $219 forward $94 $-1 #
coedge $-1 $99 $96 $218 $220 reversed $53 $-1 #
coedge $-1 $96 $99 $160 $219 reversed $53 $-1 #
coedge $-1 $221 $222 $96 $164 forward $216 $-1 #
edge $-1 $223 -10.231121419302072 $224 10.231121419302072 $163 $225 forward 7 unknown #
coedge $-1 $218 $102 $97 $166 forward $158 $-1 #
edge $-1 $107 -8.4054223874864675 $170 -4.959619910630674 $165 $226 forward 7 unknown #
coedge $-1 $104 $160 $98 $168 forward $94 $-1 #
edge $-1 $169 4.959619910630674 $106 8.4054223874864675 $167 $227 forward 7 unknown #
vertex $-1 $168 $228 #
vertex $-1 $166 $229 #
straight-curve $-1 32.315664915488767 -11.642141059689244 0 0 0 -1 I I #
coedge $-1 $222 $221 $101 $173 forward $216 $-1 #
edge $-1 $178 -10.231121419302072 $175 10.231121419302072 $172 $230 forward 7 unknown #
coedge $-1 $102 $218 $222 $231 forward $158 $-1 #
vertex $-1 $173 $232 #
straight-curve $-1 18.40119168893872 -15.087943536545037 -10.231121419302072 -1 0 0 I I #
coedge $-1 $160 $104 $221 $233 forward $94 $-1 #
vertex $-1 $233 $234 #
straight-curve $-1 18.40119168893872 -15.087943536545037 10.231121419302072 1 0 0 I I #
point $-1 32.315664915488767 -15.087943536545037 10.231121419302072 #
point $-1 32.315664915488767 -15.087943536545037 -10.231121419302072 #
plane-surface $-1 41.28910184026612 0 0 -1 0 0 0 0 1 forward_v I I I I #
coedge $-1 $114 $112 $116 $187 reversed $61 $-1 #
edge $-1 $127 -10.231121419302072 $189 10.231121419302072 $126 $235 forward 7 unknown #
vertex $-1 $187 $236 #
straight-curve $-1 -41.28910184026612 -20.556345190929331 0 0 0 -1 I I #
edge $-1 $185 -20.556345190929331 $189 20.556345190929331 $183 $237 forward 7 unknown #
straight-curve $-1 0 -20.556345190929331 -10.231121419302072 -1 0 0 I I #
vertex $-1 $119 $238 #
straight-curve $-1 0 20.556345190929331 -10.231121419302072 1 0 0 I I #
point $-1 41.28910184026612 20.556345190929331 -10.231121419302072 #
point $-1 41.28910184026612 -20.556345190929331 -10.231121419302072 #
straight-curve $-1 -41.28910184026612 0 10.231121419302072 0 -1 0 I I #
point $-1 -41.28910184026612 20.556345190929331 10.231121419302072 #
point $-1 -41.28910184026612 -20.556345190929331 10.231121419302072 #
straight-curve $-1 41.28910184026612 -20.556345190929331 0 0 0 -1 I I #
straight-curve $-1 41.28910184026612 20.556345190929331 0 0 0 -1 I I #
plane-surface $-1 0 -20.556345190929331 0 0 1 0 0 0 1 forward_v I I I I #
coedge $-1 $239 $139 $153 $213 reversed $80 $-1 #
coedge $-1 $139 $239 $204 $240 reversed $80 $-1 #
edge $-1 $205 -3.0577835984791744 $202 3.0577835984791744 $140 $241 forward 7 unknown #
vertex $-1 $141 $242 #
straight-curve $-1 -47.448138891773112 20.556345190929331 4.1155542223437251 1 0 0 I I #
coedge $-1 $208 $142 $200 $240 forward $137 $-1 #
vertex $-1 $143 $243 #
straight-curve $-1 0 20.556345190929331 10.231121419302072 -1 0 0 I I #
point $-1 -41.28910184026612 20.556345190929331 10.231121419302072 #
coedge $-1 $146 $204 $148 $211 forward $137 $-1 #
straight-curve $-1 -41.28910184026612 0 10.231121419302072 0 1 0 I I #
coedge $-1 $149 $148 $239 $244 forward $150 $-1 #
edge $-1 $245 -53.607175943280097 $151 -41.28910184026612 $148 $246 forward 7 unknown #
point $-1 -41.28910184026612 -20.556345190929331 10.231121419302072 #
edge $-1 $214 -20.556345190929331 $202 20.556345190929331 $199 $247 forward 7 unknown #
vertex $-1 $213 $248 #
straight-curve $-1 -47.448138891773112 -20.556345190929331 4.1155542223437251 -1 0 0 I I #
loop $-1 $-1 $163 $157 #
plane-surface $-1 41.28910184026612 0 0 -1 0 0 0 0 1 forward_v I I I I #
coedge $-1 $174 $165 $161 $220 forward $158 $-1 #
edge $-1 $224 -22.887910151327393 $169 -13.914473226550047 $160 $249 forward 7 unknown #
edge $-1 $170 13.914473226550047 $223 22.887910151327393 $218 $250 forward 7 unknown #
coedge $-1 $172 $163 $177 $233 reversed $216 $-1 #
coedge $-1 $163 $172 $174 $231 reversed $216 $-1 #
vertex $-1 $231 $251 #
vertex $-1 $164 $252 #
straight-curve $-1 41.28910184026612 -11.642141059689244 0 0 0 1 I I #
straight-curve $-1 32.315664915488767 -6.6825211490585703 -10.231121419302072 0 1 0 I I #
straight-curve $-1 32.315664915488767 -6.6825211490585703 10.231121419302072 0 -1 0 I I #
point $-1 32.315664915488767 -11.642141059689244 10.231121419302072 #
point $-1 32.315664915488767 -11.642141059689244 -10.231121419302072 #
straight-curve $-1 41.28910184026612 -15.087943536545037 0 0 0 -1 I I #
edge $-1 $223 11.642141059689244 $175 15.087943536545037 $222 $253 forward 7 unknown #
point $-1 41.289101840266113 -15.087943536545037 -10.231121419302072 #
edge $-1 $178 -15.087943536545037 $224 -11.642141059689244 $221 $254 forward 7 unknown #
point $-1 41.289101840266113 -15.087943536545037 10.231121419302072 #
straight-curve $-1 -41.28910184026612 20.556345190929331 0 0 0 -1 I I #
point $-1 -41.28910184026612 -20.556345190929331 -10.231121419302072 #
straight-curve $-1 -41.28910184026612 0 -10.231121419302072 0 1 0 I I #
point $-1 -41.28910184026612 20.556345190929331 -10.231121419302072 #
coedge $-1 $200 $199 $210 $244 reversed $80 $-1 #
edge $-1 $205 -20.556345190929331 $245 20.556345190929331 $200 $255 forward 7 unknown #
straight-curve $-1 -53.607175943280097 20.556345190929331 7.1733378208228995 0 0 -1 I I #
point $-1 -53.607175943280097 20.556345190929331 4.1155542223437251 #
point $-1 -53.607175943280097 20.556345190929331 10.231121419302074 #
edge $-1 $245 -3.0577835984791744 $214 3.0577835984791744 $239 $256 forward 7 unknown #
vertex $-1 $240 $257 #
straight-curve $-1 0 -20.556345190929331 10.231121419302072 1 0 0 I I #
straight-curve $-1 -53.607175943280097 0 4.1155542223437251 0 1 0 I I #
point $-1 -53.607175943280097 -20.556345190929331 4.1155542223437251 #
straight-curve $-1 18.40119168893872 -11.642141059689244 10.231121419302072 -1 0 0 I I #
straight-curve $-1 18.40119168893872 -11.642141059689244 -10.231121419302072 1 0 0 I I #
point $-1 41.289101840266113 -11.642141059689244 -10.231121419302072 #
point $-1 41.289101840266113 -11.642141059689244 10.231121419302072 #
straight-curve $-1 41.28910184026612 0 -10.231121419302072 0 -1 0 I I #
straight-curve $-1 41.28910184026612 0 10.231121419302072 0 1 0 I I #
straight-curve $-1 -53.607175943280097 0 10.231121419302074 0 -1 0 I I #
straight-curve $-1 -53.607175943280097 -20.556345190929331 7.1733378208228995 0 0 -1 I I #
point $-1 -53.607175943280097 -20.556345190929331 10.231121419302074 #
End-of-ACIS-data 