500 0 11 0           
7 Unknown 11 ACIS 5.0 NT 24 Fri Mar 26 20:19:21 1999 
-1 9.9999999999999995e-007 1e-010 
body $-1 $11 $-1 $12 #
body $-1 $13 $-1 $14 #
body $-1 $15 $-1 $16 #
body $-1 $17 $-1 $18 #
body $-1 $19 $-1 $20 #
body $-1 $21 $-1 $22 #
body $-1 $23 $-1 $24 #
body $-1 $25 $-1 $26 #
body $-1 $27 $-1 $28 #
body $-1 $29 $-1 $30 #
body $-1 $31 $-1 $32 #
lump $-1 $-1 $33 $0 #
transform $-1 1 0 0 0 1 0 0 0 1 64.033936582537308 36.344002880369096 9.9923547333889928 1 rotate no_reflect no_shear #
lump $-1 $-1 $34 $1 #
transform $-1 1 0 0 0 1 0 0 0 1 64.033936582537308 -6.0407622181394869 1.5 1 rotate no_reflect no_shear #
lump $-1 $-1 $35 $2 #
transform $-1 1 0 0 0 1 0 0 0 1 64.033936582537308 78.72876797887767 1.5 1 rotate no_reflect no_shear #
lump $-1 $-1 $36 $3 #
transform $-1 0.57357642473473569 0 -0.81915205242281985 0 1 0 0.81915205242281985 0 0.57357642473473569 159.5182215042658 26.223590970816119 195.2934272017782 1 rotate no_reflect no_shear #
lump $-1 $-1 $37 $4 #
transform $-1 0.57357642473473569 0 -0.81915205242281985 0 -1 0 -0.81915205242281985 0 -0.57357642473473569 125.70444149159562 26.223590970816119 17.551221353222914 1 rotate no_reflect no_shear #
lump $-1 $-1 $38 $5 #
transform $-1 0.76604443648966558 0 0.64278761758704617 0 1 0 -0.64278761758704617 0 0.76604443648966558 -82.320443081218301 31.817976040091118 112.58917381979107 1 rotate no_reflect no_shear #
lump $-1 $-1 $39 $6 #
transform $-1 0.76604443648966558 0 0.64278761758704617 0 -1 0 0.64278761758704617 0 -0.76604443648966558 4.7579972053493274 29.878250251400555 15.470365696677039 1 rotate no_reflect no_shear #
lump $-1 $-1 $40 $7 #
transform $-1 0.76604443648966558 0 0.64278761758704617 0 -1 0 0.64278761758704617 0 -0.76604443648966558 4.7579972053493274 33.757701828781677 15.470365696677039 1 rotate no_reflect no_shear #
lump $-1 $-1 $41 $8 #
transform $-1 0.76604443648966558 0 0.64278761758704617 0 1 0 -0.64278761758704617 0 0.76604443648966558 -82.320443081218301 56.080454484181239 112.58917381979107 1 rotate no_reflect no_shear #
lump $-1 $-1 $42 $9 #
transform $-1 0.76604443648966558 0 0.64278761758704617 0 -1 0 0.64278761758704617 0 -0.76604443648966558 4.7579972053493274 54.140728695490679 15.470365696677039 1 rotate no_reflect no_shear #
lump $-1 $-1 $43 $10 #
transform $-1 0.76604443648966558 0 0.64278761758704617 0 -1 0 0.64278761758704617 0 -0.76604443648966558 4.7579972053493274 58.020180272871798 15.470365696677039 1 rotate no_reflect no_shear #
shell $-1 $-1 $-1 $44 $-1 $11 #
shell $-1 $-1 $-1 $45 $-1 $13 #
shell $-1 $-1 $-1 $46 $-1 $15 #
shell $-1 $-1 $-1 $47 $-1 $17 #
shell $-1 $-1 $-1 $48 $-1 $19 #
shell $-1 $-1 $-1 $49 $-1 $21 #
shell $-1 $-1 $-1 $50 $-1 $23 #
shell $-1 $-1 $-1 $51 $-1 $25 #
shell $-1 $-1 $-1 $52 $-1 $27 #
shell $-1 $-1 $-1 $53 $-1 $29 #
shell $-1 $-1 $-1 $54 $-1 $31 #
face $-1 $55 $56 $33 $-1 $57 forward single #
face $-1 $58 $59 $34 $-1 $60 forward single #
face $-1 $61 $62 $35 $-1 $63 forward single #
face $-1 $64 $65 $36 $-1 $66 forward single #
face $-1 $67 $68 $37 $-1 $69 forward single #
face $-1 $70 $71 $38 $-1 $72 forward single #
face $-1 $73 $74 $39 $-1 $75 forward single #
face $-1 $76 $77 $40 $-1 $78 forward single #
face $-1 $79 $80 $41 $-1 $81 forward single #
face $-1 $82 $83 $42 $-1 $84 forward single #
face $-1 $85 $86 $43 $-1 $87 forward single #
face $-1 $88 $89 $33 $-1 $90 reversed single #
loop $-1 $-1 $91 $44 #
plane-surface $-1 0 0 9.9923547333889928 0 0 1 1 0 0 forward_v I I I I #
face $-1 $92 $93 $34 $-1 $94 reversed single #
loop $-1 $-1 $95 $45 #
plane-surface $-1 0 0 1.5 0 0 1 1 0 0 forward_v I I I I #
face $-1 $96 $97 $35 $-1 $98 reversed single #
loop $-1 $-1 $99 $46 #
plane-surface $-1 0 0 1.5 0 0 1 1 0 0 forward_v I I I I #
face $-1 $100 $101 $36 $-1 $102 reversed single #
loop $-1 $-1 $103 $47 #
plane-surface $-1 0 0 128.06787316507462 0 0 1 1 0 0 forward_v I I I I #
face $-1 $104 $105 $37 $-1 $106 forward single #
loop $-1 $107 $108 $48 #
cone-surface $-1 0 0 -0.91474654377880249 0 0 1 0.5 0 0 1 I I 0 1 0.5 forward I I I I #
face $-1 $109 $110 $38 $-1 $111 reversed single #
loop $-1 $-1 $112 $49 #
plane-surface $-1 0 0 128.06787316507462 0 0 1 1 0 0 forward_v I I I I #
face $-1 $113 $114 $39 $-1 $115 forward single #
loop $-1 $116 $117 $50 #
cone-surface $-1 0 0 -1.4011963255714583 0 0 1 1 0 0 1 I I 0 1 1 forward I I I I #
face $-1 $118 $119 $40 $-1 $120 forward single #
loop $-1 $121 $122 $51 #
cone-surface $-1 0 0 -1.4011963255714583 0 0 1 1 0 0 1 I I 0 1 1 forward I I I I #
face $-1 $123 $124 $41 $-1 $125 reversed single #
loop $-1 $-1 $126 $52 #
plane-surface $-1 0 0 128.06787316507462 0 0 1 1 0 0 forward_v I I I I #
face $-1 $127 $128 $42 $-1 $129 forward single #
loop $-1 $130 $131 $53 #
cone-surface $-1 0 0 -1.4011963255714583 0 0 1 1 0 0 1 I I 0 1 1 forward I I I I #
face $-1 $132 $133 $43 $-1 $134 forward single #
loop $-1 $135 $136 $54 #
cone-surface $-1 0 0 -1.4011963255714583 0 0 1 1 0 0 1 I I 0 1 1 forward I I I I #
face $-1 $137 $138 $33 $-1 $139 reversed single #
loop $-1 $-1 $140 $55 #
plane-surface $-1 0 0 -9.9923547333889928 0 0 1 1 0 0 forward_v I I I I #
coedge $-1 $141 $142 $143 $144 forward $56 $-1 #
face $-1 $145 $146 $34 $-1 $147 reversed single #
loop $-1 $-1 $148 $58 #
plane-surface $-1 0 0 -1.5 0 0 1 1 0 0 forward_v I I I I #
coedge $-1 $149 $150 $151 $152 forward $59 $-1 #
face $-1 $153 $154 $35 $-1 $155 reversed single #
loop $-1 $-1 $156 $61 #
plane-surface $-1 0 0 -1.5 0 0 1 1 0 0 forward_v I I I I #
coedge $-1 $157 $158 $159 $160 forward $62 $-1 #
face $-1 $161 $162 $36 $-1 $163 reversed single #
loop $-1 $-1 $164 $64 #
plane-surface $-1 0 0 -128.06787316507462 0 0 1 1 0 0 forward_v I I I I #
coedge $-1 $165 $166 $167 $168 forward $65 $-1 #
face $-1 $-1 $169 $37 $-1 $170 forward single #
loop $-1 $-1 $171 $67 #
plane-surface $-1 0 0 -1.5794930875576041 0 0 -1 -1 0 0 forward_v I I I I #
loop $-1 $-1 $172 $48 #
coedge $-1 $108 $108 $171 $173 reversed $68 $-1 #
face $-1 $174 $175 $38 $-1 $176 reversed single #
loop $-1 $-1 $177 $70 #
plane-surface $-1 0 0 -128.06787316507462 0 0 1 1 0 0 forward_v I I I I #
coedge $-1 $178 $179 $180 $181 forward $71 $-1 #
face $-1 $-1 $182 $39 $-1 $183 forward single #
loop $-1 $-1 $184 $73 #
plane-surface $-1 0 0 -2.3023926511429176 0 0 -1 -1 0 0 forward_v I I I I #
loop $-1 $-1 $185 $50 #
coedge $-1 $117 $117 $184 $186 reversed $74 $-1 #
face $-1 $-1 $187 $40 $-1 $188 forward single #
loop $-1 $-1 $189 $76 #
plane-surface $-1 0 0 -2.3023926511429176 0 0 -1 -1 0 0 forward_v I I I I #
loop $-1 $-1 $190 $51 #
coedge $-1 $122 $122 $189 $191 reversed $77 $-1 #
face $-1 $192 $193 $41 $-1 $194 reversed single #
loop $-1 $-1 $195 $79 #
plane-surface $-1 0 0 -128.06787316507462 0 0 1 1 0 0 forward_v I I I I #
coedge $-1 $196 $197 $198 $199 forward $80 $-1 #
face $-1 $-1 $200 $42 $-1 $201 forward single #
loop $-1 $-1 $202 $82 #
plane-surface $-1 0 0 -2.3023926511429176 0 0 -1 -1 0 0 forward_v I I I I #
loop $-1 $-1 $203 $53 #
coedge $-1 $131 $131 $202 $204 reversed $83 $-1 #
face $-1 $-1 $205 $43 $-1 $206 forward single #
loop $-1 $-1 $207 $85 #
plane-surface $-1 0 0 -2.3023926511429176 0 0 -1 -1 0 0 forward_v I I I I #
loop $-1 $-1 $208 $54 #
coedge $-1 $136 $136 $207 $209 reversed $86 $-1 #
face $-1 $210 $211 $33 $-1 $212 reversed single #
loop $-1 $-1 $213 $88 #
plane-surface $-1 0 -36.344002880369096 0 0 1 0 0 0 1 forward_v I I I I #
coedge $-1 $214 $215 $216 $217 forward $89 $-1 #
coedge $-1 $218 $91 $219 $220 forward $56 $-1 #
coedge $-1 $91 $218 $221 $222 forward $56 $-1 #
coedge $-1 $223 $224 $91 $144 reversed $225 $-1 #
edge $-1 $226 -36.344002880369096 $227 36.344002880369096 $143 $228 forward 7 unknown #
face $-1 $229 $230 $34 $-1 $231 reversed single #
loop $-1 $-1 $232 $92 #
plane-surface $-1 0 -6.0407622181394869 0 0 1 0 0 0 1 forward_v I I I I #
coedge $-1 $233 $234 $235 $236 forward $93 $-1 #
coedge $-1 $237 $95 $238 $239 forward $59 $-1 #
coedge $-1 $95 $237 $240 $241 forward $59 $-1 #
coedge $-1 $242 $243 $95 $152 reversed $244 $-1 #
edge $-1 $245 -6.0407622181394869 $246 6.0407622181394869 $151 $247 forward 7 unknown #
face $-1 $248 $249 $35 $-1 $250 reversed single #
loop $-1 $-1 $251 $96 #
plane-surface $-1 0 -6.0407622181394842 0 0 1 0 0 0 1 forward_v I I I I #
coedge $-1 $252 $253 $254 $255 forward $97 $-1 #
coedge $-1 $256 $99 $257 $258 forward $62 $-1 #
coedge $-1 $99 $256 $259 $260 forward $62 $-1 #
coedge $-1 $261 $262 $99 $160 reversed $263 $-1 #
edge $-1 $264 -6.0407622181394842 $265 6.0407622181394842 $159 $266 forward 7 unknown #
face $-1 $267 $268 $36 $-1 $269 reversed single #
loop $-1 $-1 $270 $100 #
plane-surface $-1 0 -3.1898645923432767 0 0 1 0 0 0 1 forward_v I I I I #
coedge $-1 $271 $272 $273 $274 forward $101 $-1 #
coedge $-1 $275 $103 $276 $277 forward $65 $-1 #
coedge $-1 $103 $275 $278 $279 forward $65 $-1 #
coedge $-1 $280 $281 $103 $168 reversed $282 $-1 #
edge $-1 $283 -3.1898645923432767 $284 3.1898645923432767 $167 $285 forward 7 unknown #
loop $-1 $286 $287 $104 #
cone-surface $-1 0 0 0 0 0 1 0.25 0 0 1 I I -0.70710678118654746 0.70710678118654746 0.25 forward I I I I #
coedge $-1 $171 $171 $108 $173 forward $105 $-1 #
coedge $-1 $172 $172 $287 $288 forward $107 $-1 #
edge $-1 $289 0 $289 6.2831853071796004 $171 $290 forward 7 unknown #
face $-1 $291 $292 $38 $-1 $293 reversed single #
loop $-1 $-1 $294 $109 #
plane-surface $-1 0 -4.5260268402779786 0 0 1 0 0 0 1 forward_v I I I I #
coedge $-1 $295 $296 $297 $298 forward $110 $-1 #
coedge $-1 $299 $112 $300 $301 forward $71 $-1 #
coedge $-1 $112 $299 $302 $303 forward $71 $-1 #
coedge $-1 $304 $305 $112 $181 reversed $306 $-1 #
edge $-1 $307 -4.5260268402779786 $308 4.5260268402779786 $180 $309 forward 7 unknown #
loop $-1 $310 $311 $113 #
cone-surface $-1 0 0 0 0 0 1 0.5 0 0 1 I I -0.70710678118654746 0.70710678118654746 0.5 forward I I I I #
coedge $-1 $184 $184 $117 $186 forward $114 $-1 #
coedge $-1 $185 $185 $311 $312 forward $116 $-1 #
edge $-1 $313 0 $313 6.2831853071796004 $184 $314 forward 7 unknown #
loop $-1 $315 $316 $118 #
cone-surface $-1 0 0 0 0 0 1 0.5 0 0 1 I I -0.70710678118654746 0.70710678118654746 0.5 forward I I I I #
coedge $-1 $189 $189 $122 $191 forward $119 $-1 #
coedge $-1 $190 $190 $316 $317 forward $121 $-1 #
edge $-1 $318 0 $318 6.2831853071796004 $189 $319 forward 7 unknown #
face $-1 $320 $321 $41 $-1 $322 reversed single #
loop $-1 $-1 $323 $123 #
plane-surface $-1 0 -4.5260268402779786 0 0 1 0 0 0 1 forward_v I I I I #
coedge $-1 $324 $325 $326 $327 forward $124 $-1 #
coedge $-1 $328 $126 $329 $330 forward $80 $-1 #
coedge $-1 $126 $328 $331 $332 forward $80 $-1 #
coedge $-1 $333 $334 $126 $199 reversed $335 $-1 #
edge $-1 $336 -4.5260268402779786 $337 4.5260268402779786 $198 $338 forward 7 unknown #
loop $-1 $339 $340 $127 #
cone-surface $-1 0 0 0 0 0 1 0.5 0 0 1 I I -0.70710678118654746 0.70710678118654746 0.5 forward I I I I #
coedge $-1 $202 $202 $131 $204 forward $128 $-1 #
coedge $-1 $203 $203 $340 $341 forward $130 $-1 #
edge $-1 $342 0 $342 6.2831853071796004 $202 $343 forward 7 unknown #
loop $-1 $344 $345 $132 #
cone-surface $-1 0 0 0 0 0 1 0.5 0 0 1 I I -0.70710678118654746 0.70710678118654746 0.5 forward I I I I #
coedge $-1 $207 $207 $136 $209 forward $133 $-1 #
coedge $-1 $208 $208 $345 $346 forward $135 $-1 #
edge $-1 $347 0 $347 6.2831853071796004 $207 $348 forward 7 unknown #
face $-1 $349 $350 $33 $-1 $351 reversed single #
loop $-1 $-1 $352 $137 #
plane-surface $-1 -64.033936582537308 0 0 1 0 0 0 0 -1 forward_v I I I I #
coedge $-1 $353 $221 $354 $355 forward $138 $-1 #
coedge $-1 $356 $140 $353 $357 forward $89 $-1 #
coedge $-1 $140 $356 $358 $359 forward $89 $-1 #
coedge $-1 $224 $223 $140 $217 reversed $225 $-1 #
edge $-1 $360 -36.344002880369096 $361 36.344002880369096 $216 $362 forward 7 unknown #
coedge $-1 $142 $141 $363 $364 forward $56 $-1 #
coedge $-1 $365 $366 $141 $220 reversed $350 $-1 #
edge $-1 $227 -64.033936582537308 $367 64.033936582537308 $219 $368 forward 7 unknown #
coedge $-1 $213 $369 $142 $222 reversed $138 $-1 #
edge $-1 $370 -64.033936582537308 $226 64.033936582537308 $221 $371 forward 7 unknown #
coedge $-1 $216 $143 $369 $372 forward $225 $-1 #
coedge $-1 $143 $216 $365 $373 reversed $225 $-1 #
loop $-1 $-1 $223 $349 #
vertex $-1 $144 $374 #
vertex $-1 $144 $375 #
straight-curve $-1 64.033936582537308 0 9.9923547333889928 0 1 0 I I #
face $-1 $376 $377 $34 $-1 $378 reversed single #
loop $-1 $-1 $379 $145 #
plane-surface $-1 -64.033936582537308 0 0 1 0 0 0 0 -1 forward_v I I I I #
coedge $-1 $380 $240 $381 $382 forward $146 $-1 #
coedge $-1 $383 $148 $380 $384 forward $93 $-1 #
coedge $-1 $148 $383 $385 $386 forward $93 $-1 #
coedge $-1 $243 $242 $148 $236 reversed $244 $-1 #
edge $-1 $387 -6.0407622181394869 $388 6.0407622181394869 $235 $389 forward 7 unknown #
coedge $-1 $150 $149 $390 $391 forward $59 $-1 #
coedge $-1 $392 $393 $149 $239 reversed $377 $-1 #
edge $-1 $246 -64.033936582537308 $394 64.033936582537308 $238 $395 forward 7 unknown #
coedge $-1 $232 $396 $150 $241 reversed $146 $-1 #
edge $-1 $397 -64.033936582537308 $245 64.033936582537308 $240 $398 forward 7 unknown #
coedge $-1 $235 $151 $396 $399 forward $244 $-1 #
coedge $-1 $151 $235 $392 $400 reversed $244 $-1 #
loop $-1 $-1 $242 $376 #
vertex $-1 $152 $401 #
vertex $-1 $152 $402 #
straight-curve $-1 64.033936582537308 0 1.5 0 1 0 I I #
face $-1 $403 $404 $35 $-1 $405 reversed single #
loop $-1 $-1 $406 $153 #
plane-surface $-1 -64.033936582537308 0 0 1 0 0 0 0 -1 forward_v I I I I #
coedge $-1 $407 $259 $408 $409 forward $154 $-1 #
coedge $-1 $410 $156 $407 $411 forward $97 $-1 #
coedge $-1 $156 $410 $412 $413 forward $97 $-1 #
coedge $-1 $262 $261 $156 $255 reversed $263 $-1 #
edge $-1 $414 -6.0407622181394842 $415 6.0407622181394842 $254 $416 forward 7 unknown #
coedge $-1 $158 $157 $417 $418 forward $62 $-1 #
coedge $-1 $419 $420 $157 $258 reversed $404 $-1 #
edge $-1 $265 -64.033936582537308 $421 64.033936582537308 $257 $422 forward 7 unknown #
coedge $-1 $251 $423 $158 $260 reversed $154 $-1 #
edge $-1 $424 -64.033936582537308 $264 64.033936582537308 $259 $425 forward 7 unknown #
coedge $-1 $254 $159 $423 $426 forward $263 $-1 #
coedge $-1 $159 $254 $419 $427 reversed $263 $-1 #
loop $-1 $-1 $261 $403 #
vertex $-1 $160 $428 #
vertex $-1 $160 $429 #
straight-curve $-1 64.033936582537308 0 1.5 0 1 0 I I #
face $-1 $430 $431 $36 $-1 $432 reversed single #
loop $-1 $-1 $433 $161 #
plane-surface $-1 -256.13574633014923 0 0 1 0 0 0 0 -1 forward_v I I I I #
coedge $-1 $434 $278 $435 $436 forward $162 $-1 #
coedge $-1 $437 $164 $434 $438 forward $101 $-1 #
coedge $-1 $164 $437 $439 $440 forward $101 $-1 #
coedge $-1 $281 $280 $164 $274 reversed $282 $-1 #
edge $-1 $441 -3.1898645923432767 $442 3.1898645923432767 $273 $443 forward 7 unknown #
coedge $-1 $166 $165 $444 $445 forward $65 $-1 #
coedge $-1 $446 $447 $165 $277 reversed $431 $-1 #
edge $-1 $284 -256.13574633014923 $448 256.13574633014923 $276 $449 forward 7 unknown #
coedge $-1 $270 $450 $166 $279 reversed $162 $-1 #
edge $-1 $451 -256.13574633014923 $283 256.13574633014923 $278 $452 forward 7 unknown #
coedge $-1 $273 $167 $450 $453 forward $282 $-1 #
coedge $-1 $167 $273 $446 $454 reversed $282 $-1 #
loop $-1 $-1 $280 $430 #
vertex $-1 $168 $455 #
vertex $-1 $168 $456 #
straight-curve $-1 256.13574633014923 0 128.06787316507462 0 1 0 I I #
loop $-1 $-1 $457 $104 #
coedge $-1 $287 $287 $172 $288 reversed $169 $-1 #
edge $-1 $458 0 $458 6.2831853071796004 $287 $459 forward 7 unknown #
vertex $-1 $173 $460 #
ellipse-curve $-1 0 0 -1.5794930875576041 0 0 -1 0.5 0 0 1 I I #
face $-1 $461 $462 $38 $-1 $463 reversed single #
loop $-1 $-1 $464 $174 #
plane-surface $-1 -256.13574633014923 0 0 1 0 0 0 0 -1 forward_v I I I I #
coedge $-1 $465 $302 $466 $467 forward $175 $-1 #
coedge $-1 $468 $177 $465 $469 forward $110 $-1 #
coedge $-1 $177 $468 $470 $471 forward $110 $-1 #
coedge $-1 $305 $304 $177 $298 reversed $306 $-1 #
edge $-1 $472 -4.5260268402779786 $473 4.5260268402779786 $297 $474 forward 7 unknown #
coedge $-1 $179 $178 $475 $476 forward $71 $-1 #
coedge $-1 $477 $478 $178 $301 reversed $462 $-1 #
edge $-1 $308 -256.13574633014923 $479 256.13574633014923 $300 $480 forward 7 unknown #
coedge $-1 $294 $481 $179 $303 reversed $175 $-1 #
edge $-1 $482 -256.13574633014923 $307 256.13574633014923 $302 $483 forward 7 unknown #
coedge $-1 $297 $180 $481 $484 forward $306 $-1 #
coedge $-1 $180 $297 $477 $485 reversed $306 $-1 #
loop $-1 $-1 $304 $461 #
vertex $-1 $181 $486 #
vertex $-1 $181 $487 #
straight-curve $-1 256.13574633014923 0 128.06787316507462 0 1 0 I I #
loop $-1 $-1 $488 $113 #
coedge $-1 $311 $311 $185 $312 reversed $182 $-1 #
edge $-1 $489 0 $489 6.2831853071796004 $311 $490 forward 7 unknown #
vertex $-1 $186 $491 #
ellipse-curve $-1 0 0 -2.3023926511429176 0 0 -1 1 0 0 1 I I #
loop $-1 $-1 $492 $118 #
coedge $-1 $316 $316 $190 $317 reversed $187 $-1 #
edge $-1 $493 0 $493 6.2831853071796004 $316 $494 forward 7 unknown #
vertex $-1 $191 $495 #
ellipse-curve $-1 0 0 -2.3023926511429176 0 0 -1 1 0 0 1 I I #
face $-1 $496 $497 $41 $-1 $498 reversed single #
loop $-1 $-1 $499 $192 #
plane-surface $-1 -256.13574633014923 0 0 1 0 0 0 0 -1 forward_v I I I I #
coedge $-1 $500 $331 $501 $502 forward $193 $-1 #
coedge $-1 $503 $195 $500 $504 forward $124 $-1 #
coedge $-1 $195 $503 $505 $506 forward $124 $-1 #
coedge $-1 $334 $333 $195 $327 reversed $335 $-1 #
edge $-1 $507 -4.5260268402779786 $508 4.5260268402779786 $326 $509 forward 7 unknown #
coedge $-1 $197 $196 $510 $511 forward $80 $-1 #
coedge $-1 $512 $513 $196 $330 reversed $497 $-1 #
edge $-1 $337 -256.13574633014923 $514 256.13574633014923 $329 $515 forward 7 unknown #
coedge $-1 $323 $516 $197 $332 reversed $193 $-1 #
edge $-1 $517 -256.13574633014923 $336 256.13574633014923 $331 $518 forward 7 unknown #
coedge $-1 $326 $198 $516 $519 forward $335 $-1 #
coedge $-1 $198 $326 $512 $520 reversed $335 $-1 #
loop $-1 $-1 $333 $496 #
vertex $-1 $199 $521 #
vertex $-1 $199 $522 #
straight-curve $-1 256.13574633014923 0 128.06787316507462 0 1 0 I I #
loop $-1 $-1 $523 $127 #
coedge $-1 $340 $340 $203 $341 reversed $200 $-1 #
edge $-1 $524 0 $524 6.2831853071796004 $340 $525 forward 7 unknown #
vertex $-1 $204 $526 #
ellipse-curve $-1 0 0 -2.3023926511429176 0 0 -1 1 0 0 1 I I #
loop $-1 $-1 $527 $132 #
coedge $-1 $345 $345 $208 $346 reversed $205 $-1 #
edge $-1 $528 0 $528 6.2831853071796004 $345 $529 forward 7 unknown #
vertex $-1 $209 $530 #
ellipse-curve $-1 0 0 -2.3023926511429176 0 0 -1 1 0 0 1 I I #
face $-1 $-1 $225 $33 $-1 $531 reversed single #
loop $-1 $-1 $365 $210 #
plane-surface $-1 0 36.344002880369096 0 0 -1 0 0 0 -1 forward_v I I I I #
coedge $-1 $532 $363 $366 $533 forward $211 $-1 #
coedge $-1 $369 $213 $214 $357 reversed $138 $-1 #
coedge $-1 $363 $532 $213 $355 reversed $211 $-1 #
edge $-1 $370 -9.9923547333889928 $534 9.9923547333889928 $354 $535 forward 7 unknown #
coedge $-1 $215 $214 $532 $536 forward $89 $-1 #
edge $-1 $361 -64.033936582537308 $534 64.033936582537308 $353 $537 forward 7 unknown #
coedge $-1 $366 $365 $215 $359 reversed $350 $-1 #
edge $-1 $538 -64.033936582537308 $360 64.033936582537308 $358 $539 forward 7 unknown #
vertex $-1 $217 $540 #
vertex $-1 $372 $541 #
straight-curve $-1 64.033936582537308 0 -9.9923547333889928 0 -1 0 I I #
coedge $-1 $352 $354 $218 $364 reversed $211 $-1 #
edge $-1 $367 -36.344002880369096 $370 36.344002880369096 $363 $542 forward 7 unknown #
coedge $-1 $358 $219 $224 $373 forward $350 $-1 #
coedge $-1 $219 $358 $352 $533 reversed $350 $-1 #
vertex $-1 $220 $543 #
straight-curve $-1 0 36.344002880369096 9.9923547333889928 -1 0 0 I I #
coedge $-1 $221 $353 $223 $372 reversed $138 $-1 #
vertex $-1 $364 $544 #
straight-curve $-1 0 -36.344002880369096 9.9923547333889928 1 0 0 I I #
edge $-1 $226 -9.9923547333889928 $361 9.9923547333889928 $223 $545 forward 7 unknown #
edge $-1 $227 -9.9923547333889928 $360 9.9923547333889928 $224 $546 forward 7 unknown #
point $-1 64.033936582537308 -36.344002880369096 9.9923547333889928 #
point $-1 64.033936582537308 36.344002880369096 9.9923547333889928 #
face $-1 $-1 $244 $34 $-1 $547 reversed single #
loop $-1 $-1 $392 $229 #
plane-surface $-1 0 6.0407622181394869 0 0 -1 0 0 0 -1 forward_v I I I I #
coedge $-1 $548 $390 $393 $549 forward $230 $-1 #
coedge $-1 $396 $232 $233 $384 reversed $146 $-1 #
coedge $-1 $390 $548 $232 $382 reversed $230 $-1 #
edge $-1 $397 -1.5 $550 1.5 $381 $551 forward 7 unknown #
coedge $-1 $234 $233 $548 $552 forward $93 $-1 #
edge $-1 $388 -64.033936582537308 $550 64.033936582537308 $380 $553 forward 7 unknown #
coedge $-1 $393 $392 $234 $386 reversed $377 $-1 #
edge $-1 $554 -64.033936582537308 $387 64.033936582537308 $385 $555 forward 7 unknown #
vertex $-1 $236 $556 #
vertex $-1 $399 $557 #
straight-curve $-1 64.033936582537308 0 -1.5 0 -1 0 I I #
coedge $-1 $379 $381 $237 $391 reversed $230 $-1 #
edge $-1 $394 -6.0407622181394869 $397 6.0407622181394869 $390 $558 forward 7 unknown #
coedge $-1 $385 $238 $243 $400 forward $377 $-1 #
coedge $-1 $238 $385 $379 $549 reversed $377 $-1 #
vertex $-1 $239 $559 #
straight-curve $-1 0 6.0407622181394869 1.5 -1 0 0 I I #
coedge $-1 $240 $380 $242 $399 reversed $146 $-1 #
vertex $-1 $391 $560 #
straight-curve $-1 0 -6.0407622181394869 1.5 1 0 0 I I #
edge $-1 $245 -1.5 $388 1.5 $242 $561 forward 7 unknown #
edge $-1 $246 -1.5 $387 1.5 $243 $562 forward 7 unknown #
point $-1 64.033936582537308 -6.0407622181394869 1.5 #
point $-1 64.033936582537308 6.0407622181394869 1.5 #
face $-1 $-1 $263 $35 $-1 $563 reversed single #
loop $-1 $-1 $419 $248 #
plane-surface $-1 0 6.0407622181394842 0 0 -1 0 0 0 -1 forward_v I I I I #
coedge $-1 $564 $417 $420 $565 forward $249 $-1 #
coedge $-1 $423 $251 $252 $411 reversed $154 $-1 #
coedge $-1 $417 $564 $251 $409 reversed $249 $-1 #
edge $-1 $424 -1.5 $566 1.5 $408 $567 forward 7 unknown #
coedge $-1 $253 $252 $564 $568 forward $97 $-1 #
edge $-1 $415 -64.033936582537308 $566 64.033936582537308 $407 $569 forward 7 unknown #
coedge $-1 $420 $419 $253 $413 reversed $404 $-1 #
edge $-1 $570 -64.033936582537308 $414 64.033936582537308 $412 $571 forward 7 unknown #
vertex $-1 $255 $572 #
vertex $-1 $426 $573 #
straight-curve $-1 64.033936582537308 0 -1.5 0 -1 0 I I #
coedge $-1 $406 $408 $256 $418 reversed $249 $-1 #
edge $-1 $421 -6.0407622181394842 $424 6.0407622181394842 $417 $574 forward 7 unknown #
coedge $-1 $412 $257 $262 $427 forward $404 $-1 #
coedge $-1 $257 $412 $406 $565 reversed $404 $-1 #
vertex $-1 $258 $575 #
straight-curve $-1 0 6.0407622181394842 1.5 -1 0 0 I I #
coedge $-1 $259 $407 $261 $426 reversed $154 $-1 #
vertex $-1 $418 $576 #
straight-curve $-1 0 -6.0407622181394842 1.5 1 0 0 I I #
edge $-1 $264 -1.5 $415 1.5 $261 $577 forward 7 unknown #
edge $-1 $265 -1.5 $414 1.5 $262 $578 forward 7 unknown #
point $-1 64.033936582537308 -6.0407622181394842 1.5 #
point $-1 64.033936582537308 6.0407622181394842 1.5 #
face $-1 $-1 $282 $36 $-1 $579 reversed single #
loop $-1 $-1 $446 $267 #
plane-surface $-1 0 3.1898645923432767 0 0 -1 0 0 0 -1 forward_v I I I I #
coedge $-1 $580 $444 $447 $581 forward $268 $-1 #
coedge $-1 $450 $270 $271 $438 reversed $162 $-1 #
coedge $-1 $444 $580 $270 $436 reversed $268 $-1 #
edge $-1 $451 -128.06787316507462 $582 128.06787316507462 $435 $583 forward 7 unknown #
coedge $-1 $272 $271 $580 $584 forward $101 $-1 #
edge $-1 $442 -256.13574633014923 $582 256.13574633014923 $434 $585 forward 7 unknown #
coedge $-1 $447 $446 $272 $440 reversed $431 $-1 #
edge $-1 $586 -256.13574633014923 $441 256.13574633014923 $439 $587 forward 7 unknown #
vertex $-1 $274 $588 #
vertex $-1 $453 $589 #
straight-curve $-1 256.13574633014923 0 -128.06787316507462 0 -1 0 I I #
coedge $-1 $433 $435 $275 $445 reversed $268 $-1 #
edge $-1 $448 -3.1898645923432767 $451 3.1898645923432767 $444 $590 forward 7 unknown #
coedge $-1 $439 $276 $281 $454 forward $431 $-1 #
coedge $-1 $276 $439 $433 $581 reversed $431 $-1 #
vertex $-1 $277 $591 #
straight-curve $-1 0 3.1898645923432767 128.06787316507462 -1 0 0 I I #
coedge $-1 $278 $434 $280 $453 reversed $162 $-1 #
vertex $-1 $445 $592 #
straight-curve $-1 0 -3.1898645923432767 128.06787316507462 1 0 0 I I #
edge $-1 $283 -128.06787316507462 $442 128.06787316507462 $280 $593 forward 7 unknown #
edge $-1 $284 -128.06787316507462 $441 128.06787316507462 $281 $594 forward 7 unknown #
point $-1 256.13574633014923 -3.1898645923432767 128.06787316507462 #
point $-1 256.13574633014923 3.1898645923432767 128.06787316507462 #
coedge $-1 $457 $457 $-1 $595 reversed $286 $-1 #
vertex $-1 $288 $596 #
ellipse-curve $-1 0 0 -0.25 0 0 -1 0.5 0 0 1 I I #
point $-1 0.5 0 -1.5794930875576041 #
face $-1 $-1 $306 $38 $-1 $597 reversed single #
loop $-1 $-1 $477 $291 #
plane-surface $-1 0 4.5260268402779786 0 0 -1 0 0 0 -1 forward_v I I I I #
coedge $-1 $598 $475 $478 $599 forward $292 $-1 #
coedge $-1 $481 $294 $295 $469 reversed $175 $-1 #
coedge $-1 $475 $598 $294 $467 reversed $292 $-1 #
edge $-1 $482 -128.06787316507462 $600 128.06787316507462 $466 $601 forward 7 unknown #
coedge $-1 $296 $295 $598 $602 forward $110 $-1 #
edge $-1 $473 -256.13574633014923 $600 256.13574633014923 $465 $603 forward 7 unknown #
coedge $-1 $478 $477 $296 $471 reversed $462 $-1 #
edge $-1 $604 -256.13574633014923 $472 256.13574633014923 $470 $605 forward 7 unknown #
vertex $-1 $298 $606 #
vertex $-1 $484 $607 #
straight-curve $-1 256.13574633014923 0 -128.06787316507462 0 -1 0 I I #
coedge $-1 $464 $466 $299 $476 reversed $292 $-1 #
edge $-1 $479 -4.5260268402779786 $482 4.5260268402779786 $475 $608 forward 7 unknown #
coedge $-1 $470 $300 $305 $485 forward $462 $-1 #
coedge $-1 $300 $470 $464 $599 reversed $462 $-1 #
vertex $-1 $301 $609 #
straight-curve $-1 0 4.5260268402779786 128.06787316507462 -1 0 0 I I #
coedge $-1 $302 $465 $304 $484 reversed $175 $-1 #
vertex $-1 $476 $610 #
straight-curve $-1 0 -4.5260268402779786 128.06787316507462 1 0 0 I I #
edge $-1 $307 -128.06787316507462 $473 128.06787316507462 $304 $611 forward 7 unknown #
edge $-1 $308 -128.06787316507462 $472 128.06787316507462 $305 $612 forward 7 unknown #
point $-1 256.13574633014923 -4.5260268402779786 128.06787316507462 #
point $-1 256.13574633014923 4.5260268402779786 128.06787316507462 #
coedge $-1 $488 $488 $-1 $613 reversed $310 $-1 #
vertex $-1 $312 $614 #
ellipse-curve $-1 0 0 -0.5 0 0 -1 1 0 0 1 I I #
point $-1 1 0 -2.3023926511429176 #
coedge $-1 $492 $492 $-1 $615 reversed $315 $-1 #
vertex $-1 $317 $616 #
ellipse-curve $-1 0 0 -0.5 0 0 -1 1 0 0 1 I I #
point $-1 1 0 -2.3023926511429176 #
face $-1 $-1 $335 $41 $-1 $617 reversed single #
loop $-1 $-1 $512 $320 #
plane-surface $-1 0 4.5260268402779786 0 0 -1 0 0 0 -1 forward_v I I I I #
coedge $-1 $618 $510 $513 $619 forward $321 $-1 #
coedge $-1 $516 $323 $324 $504 reversed $193 $-1 #
coedge $-1 $510 $618 $323 $502 reversed $321 $-1 #
edge $-1 $517 -128.06787316507462 $620 128.06787316507462 $501 $621 forward 7 unknown #
coedge $-1 $325 $324 $618 $622 forward $124 $-1 #
edge $-1 $508 -256.13574633014923 $620 256.13574633014923 $500 $623 forward 7 unknown #
coedge $-1 $513 $512 $325 $506 reversed $497 $-1 #
edge $-1 $624 -256.13574633014923 $507 256.13574633014923 $505 $625 forward 7 unknown #
vertex $-1 $327 $626 #
vertex $-1 $519 $627 #
straight-curve $-1 256.13574633014923 0 -128.06787316507462 0 -1 0 I I #
coedge $-1 $499 $501 $328 $511 reversed $321 $-1 #
edge $-1 $514 -4.5260268402779786 $517 4.5260268402779786 $510 $628 forward 7 unknown #
coedge $-1 $505 $329 $334 $520 forward $497 $-1 #
coedge $-1 $329 $505 $499 $619 reversed $497 $-1 #
vertex $-1 $330 $629 #
straight-curve $-1 0 4.5260268402779786 128.06787316507462 -1 0 0 I I #
coedge $-1 $331 $500 $333 $519 reversed $193 $-1 #
vertex $-1 $511 $630 #
straight-curve $-1 0 -4.5260268402779786 128.06787316507462 1 0 0 I I #
edge $-1 $336 -128.06787316507462 $508 128.06787316507462 $333 $631 forward 7 unknown #
edge $-1 $337 -128.06787316507462 $507 128.06787316507462 $334 $632 forward 7 unknown #
point $-1 256.13574633014923 -4.5260268402779786 128.06787316507462 #
point $-1 256.13574633014923 4.5260268402779786 128.06787316507462 #
coedge $-1 $523 $523 $-1 $633 reversed $339 $-1 #
vertex $-1 $341 $634 #
ellipse-curve $-1 0 0 -0.5 0 0 -1 1 0 0 1 I I #
point $-1 1 0 -2.3023926511429176 #
coedge $-1 $527 $527 $-1 $635 reversed $344 $-1 #
vertex $-1 $346 $636 #
ellipse-curve $-1 0 0 -0.5 0 0 -1 1 0 0 1 I I #
point $-1 1 0 -2.3023926511429176 #
plane-surface $-1 64.033936582537308 0 0 -1 0 0 0 0 1 forward_v I I I I #
coedge $-1 $354 $352 $356 $536 reversed $211 $-1 #
edge $-1 $367 -9.9923547333889928 $538 9.9923547333889928 $366 $637 forward 7 unknown #
vertex $-1 $536 $638 #
straight-curve $-1 -64.033936582537308 -36.344002880369096 0 0 0 -1 I I #
edge $-1 $534 -36.344002880369096 $538 36.344002880369096 $532 $639 forward 7 unknown #
straight-curve $-1 0 -36.344002880369096 -9.9923547333889928 -1 0 0 I I #
vertex $-1 $359 $640 #
straight-curve $-1 0 36.344002880369096 -9.9923547333889928 1 0 0 I I #
point $-1 64.033936582537308 36.344002880369096 -9.9923547333889928 #
point $-1 64.033936582537308 -36.344002880369096 -9.9923547333889928 #
straight-curve $-1 -64.033936582537308 0 9.9923547333889928 0 -1 0 I I #
point $-1 -64.033936582537308 36.344002880369096 9.9923547333889928 #
point $-1 -64.033936582537308 -36.344002880369096 9.9923547333889928 #
straight-curve $-1 64.033936582537308 -36.344002880369096 0 0 0 -1 I I #
straight-curve $-1 64.033936582537308 36.344002880369096 0 0 0 -1 I I #
plane-surface $-1 64.033936582537308 0 0 -1 0 0 0 0 1 forward_v I I I I #
coedge $-1 $381 $379 $383 $552 reversed $230 $-1 #
edge $-1 $394 -1.5 $554 1.5 $393 $641 forward 7 unknown #
vertex $-1 $552 $642 #
straight-curve $-1 -64.033936582537308 -6.0407622181394869 0 0 0 -1 I I #
edge $-1 $550 -6.0407622181394869 $554 6.0407622181394869 $548 $643 forward 7 unknown #
straight-curve $-1 0 -6.0407622181394869 -1.5 -1 0 0 I I #
vertex $-1 $386 $644 #
straight-curve $-1 0 6.0407622181394869 -1.5 1 0 0 I I #
point $-1 64.033936582537308 6.0407622181394869 -1.5 #
point $-1 64.033936582537308 -6.0407622181394869 -1.5 #
straight-curve $-1 -64.033936582537308 0 1.5 0 -1 0 I I #
point $-1 -64.033936582537308 6.0407622181394869 1.5 #
point $-1 -64.033936582537308 -6.0407622181394869 1.5 #
straight-curve $-1 64.033936582537308 -6.0407622181394869 0 0 0 -1 I I #
straight-curve $-1 64.033936582537308 6.0407622181394869 0 0 0 -1 I I #
plane-surface $-1 64.033936582537308 0 0 -1 0 0 0 0 1 forward_v I I I I #
coedge $-1 $408 $406 $410 $568 reversed $249 $-1 #
edge $-1 $421 -1.5 $570 1.5 $420 $645 forward 7 unknown #
vertex $-1 $568 $646 #
straight-curve $-1 -64.033936582537308 -6.0407622181394842 0 0 0 -1 I I #
edge $-1 $566 -6.0407622181394842 $570 6.0407622181394842 $564 $647 forward 7 unknown #
straight-curve $-1 0 -6.0407622181394842 -1.5 -1 0 0 I I #
vertex $-1 $413 $648 #
straight-curve $-1 0 6.0407622181394842 -1.5 1 0 0 I I #
point $-1 64.033936582537308 6.0407622181394842 -1.5 #
point $-1 64.033936582537308 -6.0407622181394842 -1.5 #
straight-curve $-1 -64.033936582537308 0 1.5 0 -1 0 I I #
point $-1 -64.033936582537308 6.0407622181394842 1.5 #
point $-1 -64.033936582537308 -6.0407622181394842 1.5 #
straight-curve $-1 64.033936582537308 -6.0407622181394842 0 0 0 -1 I I #
straight-curve $-1 64.033936582537308 6.0407622181394842 0 0 0 -1 I I #
plane-surface $-1 256.13574633014923 0 0 -1 0 0 0 0 1 forward_v I I I I #
coedge $-1 $435 $433 $437 $584 reversed $268 $-1 #
edge $-1 $448 -128.06787316507462 $586 128.06787316507462 $447 $649 forward 7 unknown #
vertex $-1 $584 $650 #
straight-curve $-1 -256.13574633014923 -3.1898645923432767 0 0 0 -1 I I #
edge $-1 $582 -3.1898645923432767 $586 3.1898645923432767 $580 $651 forward 7 unknown #
straight-curve $-1 0 -3.1898645923432767 -128.06787316507462 -1 0 0 I I #
vertex $-1 $440 $652 #
straight-curve $-1 0 3.1898645923432767 -128.06787316507462 1 0 0 I I #
point $-1 256.13574633014923 3.1898645923432767 -128.06787316507462 #
point $-1 256.13574633014923 -3.1898645923432767 -128.06787316507462 #
straight-curve $-1 -256.13574633014923 0 128.06787316507462 0 -1 0 I I #
point $-1 -256.13574633014923 3.1898645923432767 128.06787316507462 #
point $-1 -256.13574633014923 -3.1898645923432767 128.06787316507462 #
straight-curve $-1 256.13574633014923 -3.1898645923432767 0 0 0 -1 I I #
straight-curve $-1 256.13574633014923 3.1898645923432767 0 0 0 -1 I I #
edge $-1 $653 1 $653 0 $457 $-1 forward 7 unknown #
point $-1 0.5 0 -0.25 #
plane-surface $-1 256.13574633014923 0 0 -1 0 0 0 0 1 forward_v I I I I #
coedge $-1 $466 $464 $468 $602 reversed $292 $-1 #
edge $-1 $479 -128.06787316507462 $604 128.06787316507462 $478 $654 forward 7 unknown #
vertex $-1 $602 $655 #
straight-curve $-1 -256.13574633014923 -4.5260268402779786 0 0 0 -1 I I #
edge $-1 $600 -4.5260268402779786 $604 4.5260268402779786 $598 $656 forward 7 unknown #
straight-curve $-1 0 -4.5260268402779786 -128.06787316507462 -1 0 0 I I #
vertex $-1 $471 $657 #
straight-curve $-1 0 4.5260268402779786 -128.06787316507462 1 0 0 I I #
point $-1 256.13574633014923 4.5260268402779786 -128.06787316507462 #
point $-1 256.13574633014923 -4.5260268402779786 -128.06787316507462 #
straight-curve $-1 -256.13574633014923 0 128.06787316507462 0 -1 0 I I #
point $-1 -256.13574633014923 4.5260268402779786 128.06787316507462 #
point $-1 -256.13574633014923 -4.5260268402779786 128.06787316507462 #
straight-curve $-1 256.13574633014923 -4.5260268402779786 0 0 0 -1 I I #
straight-curve $-1 256.13574633014923 4.5260268402779786 0 0 0 -1 I I #
edge $-1 $658 1 $658 0 $488 $-1 forward 7 unknown #
point $-1 1 0 -0.5 #
edge $-1 $659 1 $659 0 $492 $-1 forward 7 unknown #
point $-1 1 0 -0.5 #
plane-surface $-1 256.13574633014923 0 0 -1 0 0 0 0 1 forward_v I I I I #
coedge $-1 $501 $499 $503 $622 reversed $321 $-1 #
edge $-1 $514 -128.06787316507462 $624 128.06787316507462 $513 $660 forward 7 unknown #
vertex $-1 $622 $661 #
straight-curve $-1 -256.13574633014923 -4.5260268402779786 0 0 0 -1 I I #
edge $-1 $620 -4.5260268402779786 $624 4.5260268402779786 $618 $662 forward 7 unknown #
straight-curve $-1 0 -4.5260268402779786 -128.06787316507462 -1 0 0 I I #
vertex $-1 $506 $663 #
straight-curve $-1 0 4.5260268402779786 -128.06787316507462 1 0 0 I I #
point $-1 256.13574633014923 4.5260268402779786 -128.06787316507462 #
point $-1 256.13574633014923 -4.5260268402779786 -128.06787316507462 #
straight-curve $-1 -256.13574633014923 0 128.06787316507462 0 -1 0 I I #
point $-1 -256.13574633014923 4.5260268402779786 128.06787316507462 #
point $-1 -256.13574633014923 -4.5260268402779786 128.06787316507462 #
straight-curve $-1 256.13574633014923 -4.5260268402779786 0 0 0 -1 I I #
straight-curve $-1 256.13574633014923 4.5260268402779786 0 0 0 -1 I I #
edge $-1 $664 1 $664 0 $523 $-1 forward 7 unknown #
point $-1 1 0 -0.5 #
edge $-1 $665 1 $665 0 $527 $-1 forward 7 unknown #
point $-1 1 0 -0.5 #
straight-curve $-1 -64.033936582537308 36.344002880369096 0 0 0 -1 I I #
point $-1 -64.033936582537308 -36.344002880369096 -9.9923547333889928 #
straight-curve $-1 -64.033936582537308 0 -9.9923547333889928 0 1 0 I I #
point $-1 -64.033936582537308 36.344002880369096 -9.9923547333889928 #
straight-curve $-1 -64.033936582537308 6.0407622181394869 0 0 0 -1 I I #
point $-1 -64.033936582537308 -6.0407622181394869 -1.5 #
straight-curve $-1 -64.033936582537308 0 -1.5 0 1 0 I I #
point $-1 -64.033936582537308 6.0407622181394869 -1.5 #
straight-curve $-1 -64.033936582537308 6.0407622181394842 0 0 0 -1 I I #
point $-1 -64.033936582537308 -6.0407622181394842 -1.5 #
straight-curve $-1 -64.033936582537308 0 -1.5 0 1 0 I I #
point $-1 -64.033936582537308 6.0407622181394842 -1.5 #
straight-curve $-1 -256.13574633014923 3.1898645923432767 0 0 0 -1 I I #
point $-1 -256.13574633014923 -3.1898645923432767 -128.06787316507462 #
straight-curve $-1 -256.13574633014923 0 -128.06787316507462 0 1 0 I I #
point $-1 -256.13574633014923 3.1898645923432767 -128.06787316507462 #
vertex $-1 $595 $666 #
straight-curve $-1 -256.13574633014923 4.5260268402779786 0 0 0 -1 I I #
point $-1 -256.13574633014923 -4.5260268402779786 -128.06787316507462 #
straight-curve $-1 -256.13574633014923 0 -128.06787316507462 0 1 0 I I #
point $-1 -256.13574633014923 4.5260268402779786 -128.06787316507462 #
vertex $-1 $613 $667 #
vertex $-1 $615 $668 #
straight-curve $-1 -256.13574633014923 4.5260268402779786 0 0 0 -1 I I #
point $-1 -256.13574633014923 -4.5260268402779786 -128.06787316507462 #
straight-curve $-1 -256.13574633014923 0 -128.06787316507462 0 1 0 I I #
point $-1 -256.13574633014923 4.5260268402779786 -128.06787316507462 #
vertex $-1 $633 $669 #
vertex $-1 $635 $670 #
point $-1 0 0 0.25 #
point $-1 0 0 0.5 #
point $-1 0 0 0.5 #
point $-1 0 0 0.5 #
point $-1 0 0 0.5 #
End-of-ACIS-data 