500 0 5 0           
7 Unknown 11 ACIS 5.0 NT 24 Thu Mar 25 22:58:34 1999 
-1 9.9999999999999995e-007 1e-010 
body $-1 $5 $-1 $6 #
body $-1 $7 $-1 $8 #
body $-1 $9 $-1 $10 #
body $-1 $11 $-1 $12 #
body $-1 $13 $-1 $14 #
lump $-1 $-1 $15 $0 #
transform $-1 1 0 0 0 1 0 0 0 1 76.054567094943081 42.137437892139197 10.492243896663219 1 rotate no_reflect no_shear #
lump $-1 $-1 $16 $1 #
transform $-1 1 0 0 0 1 0 0 0 1 76.054567094943081 42.137437892139197 10.492243896663219 1 rotate no_reflect no_shear #
lump $-1 $-1 $17 $2 #
transform $-1 1 0 0 0 1 0 0 0 1 76.054567094943081 42.137437892139197 10.492243896663219 1 rotate no_reflect no_shear #
lump $-1 $-1 $18 $3 #
transform $-1 1 0 0 0 1 0 0 0 1 76.054567094943081 42.137437892139197 10.492243896663219 1 rotate no_reflect no_shear #
lump $-1 $-1 $19 $4 #
transform $-1 1 0 0 0 1 0 0 0 1 76.054567094943081 42.137437892139197 10.492243896663219 1 rotate no_reflect no_shear #
shell $-1 $-1 $-1 $20 $-1 $5 #
shell $-1 $-1 $-1 $21 $-1 $7 #
shell $-1 $-1 $-1 $22 $-1 $9 #
shell $-1 $-1 $-1 $23 $-1 $11 #
shell $-1 $-1 $-1 $24 $-1 $13 #
face $-1 $25 $26 $15 $-1 $27 forward single #
face $-1 $28 $29 $16 $-1 $30 forward single #
face $-1 $31 $32 $17 $-1 $33 forward single #
face $-1 $34 $35 $18 $-1 $36 reversed single #
face $-1 $37 $38 $19 $-1 $39 forward single #
face $-1 $40 $41 $15 $-1 $42 reversed single #
loop $-1 $-1 $43 $20 #
plane-surface $-1 0 0 10.492243896663219 0 0 1 1 0 0 forward_v I I I I #
face $-1 $44 $45 $16 $-1 $46 reversed single #
loop $-1 $-1 $47 $21 #
plane-surface $-1 -76.054567094943081 0 0 1 0 0 0 0 -1 forward_v I I I I #
face $-1 $48 $49 $17 $-1 $50 forward single #
loop $-1 $-1 $51 $22 #
plane-surface $-1 76.054567094943081 0 0 -1 0 0 0 0 1 forward_v I I I I #
face $-1 $52 $53 $18 $-1 $54 reversed single #
loop $-1 $-1 $55 $23 #
plane-surface $-1 -62.172746202896533 123.80750708596423 157.60326851156657 1 0 0 0 -0.83867057594974714 -0.54463902268945019 forward_v I I I I #
face $-1 $56 $57 $19 $-1 $58 forward single #
loop $-1 $59 $60 $24 #
cone-surface $-1 -48.237418155083759 38.964140961701304 6.5774309820785009 0 -0.83867057594974714 -0.54463902268945019 1 0 0 1 I I 0 1 1 forward I I I I #
face $-1 $61 $62 $15 $-1 $63 reversed single #
loop $-1 $-1 $64 $25 #
plane-surface $-1 0 0 -10.492243896663219 0 0 1 1 0 0 forward_v I I I I #
coedge $-1 $65 $66 $67 $68 forward $26 $-1 #
face $-1 $69 $70 $16 $-1 $71 reversed single #
loop $-1 $-1 $72 $28 #
plane-surface $-1 0 42.137437892139197 0 0 -1 0 0 0 -1 forward_v I I I I #
coedge $-1 $73 $74 $75 $76 forward $29 $-1 #
face $-1 $77 $78 $17 $-1 $79 reversed single #
loop $-1 $-1 $80 $31 #
plane-surface $-1 0 0 10.492243896663219 0 0 1 1 0 0 forward_v I I I I #
coedge $-1 $81 $82 $83 $84 forward $32 $-1 #
face $-1 $85 $86 $18 $-1 $87 reversed single #
loop $-1 $-1 $88 $34 #
plane-surface $-1 -48.237418155083766 -3.7619480922849675 74.758698324248542 0 0.83867057594974714 0.54463902268945019 1 0 0 forward_v I I I I #
coedge $-1 $89 $90 $91 $92 reversed $35 $-1 #
face $-1 $-1 $93 $19 $-1 $94 forward single #
loop $-1 $95 $96 $37 #
cone-surface $-1 -48.237418155083759 37.453640660332177 5.5965006484034845 0 -0.83867057594974714 -0.54463902268945019 0.5 0 0 1 I I -0.70710678118654746 0.70710678118654746 0.5 forward I I I I #
loop $-1 $-1 $97 $24 #
coedge $-1 $60 $60 $98 $99 reversed $38 $-1 #
face $-1 $100 $101 $15 $-1 $102 reversed single #
loop $-1 $-1 $103 $40 #
plane-surface $-1 0 -42.137437892139197 0 0 1 0 0 0 1 forward_v I I I I #
coedge $-1 $104 $105 $106 $107 forward $41 $-1 #
coedge $-1 $108 $43 $109 $110 forward $26 $-1 #
coedge $-1 $43 $108 $111 $112 forward $26 $-1 #
coedge $-1 $113 $114 $43 $68 reversed $115 $-1 #
edge $-1 $116 -42.137437892139197 $117 42.137437892139197 $67 $118 forward 7 unknown #
face $-1 $119 $120 $16 $-1 $121 reversed single #
loop $-1 $-1 $75 $44 #
plane-surface $-1 -79.87152547476542 0 7.204159675426121 0 0 1 1 0 0 forward_v I I I I #
coedge $-1 $122 $123 $73 $124 forward $45 $-1 #
coedge $-1 $125 $47 $72 $124 reversed $29 $-1 #
coedge $-1 $47 $125 $126 $127 reversed $29 $-1 #
coedge $-1 $128 $129 $47 $76 reversed $70 $-1 #
edge $-1 $130 -42.137437892139197 $131 42.137437892139197 $75 $132 forward 7 unknown #
face $-1 $133 $134 $17 $-1 $135 reversed single #
loop $-1 $-1 $136 $48 #
plane-surface $-1 0 -42.137437892139197 0 0 1 0 0 0 1 forward_v I I I I #
coedge $-1 $137 $138 $139 $140 forward $49 $-1 #
coedge $-1 $139 $51 $136 $141 reversed $32 $-1 #
coedge $-1 $51 $139 $142 $143 reversed $32 $-1 #
coedge $-1 $144 $145 $51 $84 reversed $134 $-1 #
edge $-1 $146 -42.137437892139197 $147 42.137437892139197 $83 $148 forward 7 unknown #
face $-1 $149 $150 $18 $-1 $151 reversed single #
loop $-1 $-1 $152 $52 #
plane-surface $-1 -34.302090107270999 123.80750708596423 157.60326851156657 -1 0 0 0 0.83867057594974714 0.54463902268945019 forward_v I I I I #
coedge $-1 $153 $154 $155 $156 reversed $53 $-1 #
coedge $-1 $90 $55 $157 $158 reversed $35 $-1 #
coedge $-1 $55 $89 $153 $159 reversed $35 $-1 #
coedge $-1 $155 $160 $55 $92 forward $161 $-1 #
edge $-1 $162 19.76631565084292 $163 23.930579484930107 $91 $164 forward 7 unknown #
loop $-1 $-1 $98 $56 #
plane-surface $-1 -48.237418155083766 -3.7619480922849675 74.758698324248542 0 0.83867057594974714 0.54463902268945019 1 0 0 forward_v I I I I #
loop $-1 $-1 $165 $37 #
coedge $-1 $96 $96 $97 $166 reversed $57 $-1 #
coedge $-1 $97 $97 $96 $166 forward $59 $-1 #
coedge $-1 $98 $98 $60 $99 forward $93 $-1 #
edge $-1 $167 2.8517606668532554e-015 $167 6.2831853071796031 $98 $168 forward 7 unknown #
face $-1 $169 $170 $15 $-1 $171 reversed single #
loop $-1 $-1 $172 $61 #
plane-surface $-1 -76.054567094943081 0 0 1 0 0 0 0 -1 forward_v I I I I #
coedge $-1 $173 $111 $174 $175 forward $62 $-1 #
coedge $-1 $176 $64 $173 $177 forward $41 $-1 #
coedge $-1 $64 $176 $178 $179 forward $41 $-1 #
coedge $-1 $114 $113 $64 $107 reversed $115 $-1 #
edge $-1 $180 -42.137437892139197 $181 42.137437892139197 $106 $182 forward 7 unknown #
coedge $-1 $66 $65 $183 $184 forward $26 $-1 #
coedge $-1 $185 $186 $65 $110 reversed $170 $-1 #
edge $-1 $117 -76.054567094943081 $187 76.054567094943081 $109 $188 forward 7 unknown #
coedge $-1 $103 $189 $66 $112 reversed $62 $-1 #
edge $-1 $190 -76.054567094943081 $116 76.054567094943081 $111 $191 forward 7 unknown #
coedge $-1 $106 $67 $189 $192 forward $115 $-1 #
coedge $-1 $67 $106 $185 $193 reversed $115 $-1 #
loop $-1 $-1 $113 $169 #
vertex $-1 $68 $194 #
vertex $-1 $68 $195 #
straight-curve $-1 76.054567094943081 0 10.492243896663219 0 1 0 I I #
face $-1 $196 $197 $16 $-1 $198 forward single #
loop $-1 $-1 $199 $69 #
plane-surface $-1 -83.688483854587759 0 8.8482017860446689 1 0 0 0 0 -1 forward_v I I I I #
coedge $-1 $200 $72 $129 $201 reversed $45 $-1 #
coedge $-1 $72 $200 $202 $203 reversed $45 $-1 #
edge $-1 $204 -10.492243896663219 $131 -7.204159675426121 $72 $205 forward 7 unknown #
coedge $-1 $74 $73 $206 $207 reversed $29 $-1 #
coedge $-1 $208 $209 $74 $127 forward $210 $-1 #
edge $-1 $130 7.204159675426121 $211 10.492243896663219 $126 $212 forward 7 unknown #
coedge $-1 $213 $75 $209 $214 forward $70 $-1 #
coedge $-1 $75 $213 $122 $201 forward $70 $-1 #
vertex $-1 $127 $215 #
vertex $-1 $124 $216 #
straight-curve $-1 -76.054567094943081 0 7.204159675426121 0 1 0 I I #
face $-1 $217 $218 $17 $-1 $219 reversed single #
loop $-1 $-1 $220 $77 #
plane-surface $-1 79.871525474765406 0 7.204159675426121 0 0 1 1 0 0 forward_v I I I I #
coedge $-1 $221 $222 $81 $141 forward $78 $-1 #
coedge $-1 $223 $80 $222 $224 forward $49 $-1 #
coedge $-1 $80 $223 $225 $226 forward $49 $-1 #
coedge $-1 $82 $81 $80 $140 reversed $32 $-1 #
edge $-1 $227 -42.137437892139197 $228 42.137437892139197 $80 $229 forward 7 unknown #
edge $-1 $228 -10.492243896663219 $147 -7.204159675426121 $136 $230 forward 7 unknown #
coedge $-1 $225 $231 $82 $143 forward $232 $-1 #
edge $-1 $146 7.204159675426121 $227 10.492243896663219 $142 $233 forward 7 unknown #
coedge $-1 $220 $83 $231 $234 forward $134 $-1 #
coedge $-1 $83 $220 $221 $235 forward $134 $-1 #
vertex $-1 $143 $236 #
vertex $-1 $141 $237 #
straight-curve $-1 76.054567094943081 0 7.204159675426121 0 -1 0 I I #
face $-1 $-1 $161 $18 $-1 $238 forward single #
loop $-1 $-1 $239 $85 #
plane-surface $-1 0 42.137437892139197 0 0 -1 0 0 0 -1 forward_v I I I I #
coedge $-1 $240 $241 $242 $243 reversed $86 $-1 #
coedge $-1 $244 $88 $90 $159 forward $53 $-1 #
coedge $-1 $88 $244 $240 $245 forward $53 $-1 #
coedge $-1 $242 $91 $88 $156 forward $161 $-1 #
edge $-1 $163 -38.054037125354654 $246 -10.183381029729116 $155 $247 forward 7 unknown #
coedge $-1 $248 $249 $89 $158 forward $150 $-1 #
edge $-1 $250 -74.72179454362886 $162 -68.309390359120073 $157 $251 forward 7 unknown #
edge $-1 $163 76.628960488815522 $250 84.27487578427835 $90 $252 forward 7 unknown #
coedge $-1 $91 $242 $248 $253 forward $161 $-1 #
loop $-1 $-1 $242 $149 #
vertex $-1 $158 $254 #
vertex $-1 $92 $255 #
straight-curve $-1 -62.172746202896533 61.903753542982116 10.492243896663226 0 -1 0 I I #
coedge $-1 $165 $165 $-1 $256 reversed $95 $-1 #
edge $-1 $257 0 $257 6.2831853071796004 $96 $258 forward 7 unknown #
vertex $-1 $99 $259 #
ellipse-curve $-1 -48.237418155083759 40.055305975095607 7.2860418044088222 0 0.83867057594974714 0.54463902268945019 1 0 0 1 I I #
face $-1 $-1 $115 $15 $-1 $260 reversed single #
loop $-1 $-1 $185 $100 #
plane-surface $-1 0 42.137437892139197 0 0 -1 0 0 0 -1 forward_v I I I I #
coedge $-1 $261 $183 $186 $262 forward $101 $-1 #
coedge $-1 $189 $103 $104 $177 reversed $62 $-1 #
coedge $-1 $183 $261 $103 $175 reversed $101 $-1 #
edge $-1 $190 -10.492243896663219 $263 10.492243896663219 $174 $264 forward 7 unknown #
coedge $-1 $105 $104 $261 $265 forward $41 $-1 #
edge $-1 $181 -76.054567094943081 $263 76.054567094943081 $173 $266 forward 7 unknown #
coedge $-1 $186 $185 $105 $179 reversed $170 $-1 #
edge $-1 $267 -76.054567094943081 $180 76.054567094943081 $178 $268 forward 7 unknown #
vertex $-1 $107 $269 #
vertex $-1 $192 $270 #
straight-curve $-1 76.054567094943081 0 -10.492243896663219 0 -1 0 I I #
coedge $-1 $172 $174 $108 $184 reversed $101 $-1 #
edge $-1 $187 -42.137437892139197 $190 42.137437892139197 $183 $271 forward 7 unknown #
coedge $-1 $178 $109 $114 $193 forward $170 $-1 #
coedge $-1 $109 $178 $172 $262 reversed $170 $-1 #
vertex $-1 $110 $272 #
straight-curve $-1 0 42.137437892139197 10.492243896663219 -1 0 0 I I #
coedge $-1 $111 $173 $113 $192 reversed $62 $-1 #
vertex $-1 $184 $273 #
straight-curve $-1 0 -42.137437892139197 10.492243896663219 1 0 0 I I #
edge $-1 $116 -10.492243896663219 $181 10.492243896663219 $113 $274 forward 7 unknown #
edge $-1 $117 -10.492243896663219 $180 10.492243896663219 $114 $275 forward 7 unknown #
point $-1 76.054567094943081 -42.137437892139197 10.492243896663219 #
point $-1 76.054567094943081 42.137437892139197 10.492243896663219 #
face $-1 $-1 $210 $16 $-1 $276 reversed single #
loop $-1 $-1 $206 $119 #
plane-surface $-1 0 0 10.492243896663219 0 0 1 1 0 0 forward_v I I I I #
coedge $-1 $277 $278 $200 $279 forward $120 $-1 #
coedge $-1 $123 $122 $199 $279 reversed $45 $-1 #
edge $-1 $280 -3.8169583798223385 $131 3.8169583798223385 $122 $281 forward 7 unknown #
coedge $-1 $282 $206 $123 $203 forward $197 $-1 #
edge $-1 $204 76.054567094943081 $283 83.688483854587759 $123 $284 forward 7 unknown #
vertex $-1 $203 $285 #
straight-curve $-1 -76.054567094943081 42.137437892139197 0 0 0 -1 I I #
coedge $-1 $202 $286 $125 $207 forward $197 $-1 #
edge $-1 $211 -42.137437892139197 $204 42.137437892139197 $206 $287 forward 7 unknown #
coedge $-1 $288 $126 $286 $289 reversed $210 $-1 #
coedge $-1 $126 $288 $128 $214 reversed $210 $-1 #
loop $-1 $-1 $126 $196 #
vertex $-1 $127 $290 #
straight-curve $-1 -76.054567094943081 -42.137437892139197 0 0 0 1 I I #
coedge $-1 $129 $128 $277 $291 forward $70 $-1 #
edge $-1 $130 -3.8169583798223385 $292 3.8169583798223385 $209 $293 forward 7 unknown #
point $-1 -76.054567094943081 -42.137437892139197 7.204159675426121 #
point $-1 -76.054567094943081 42.137437892139197 7.204159675426121 #
face $-1 $-1 $232 $17 $-1 $294 reversed single #
loop $-1 $-1 $295 $133 #
plane-surface $-1 83.688483854587744 0 8.8482017860446689 -1 0 0 0 0 1 forward_v I I I I #
coedge $-1 $145 $144 $296 $297 forward $134 $-1 #
coedge $-1 $298 $136 $145 $235 reversed $78 $-1 #
coedge $-1 $136 $298 $137 $224 reversed $78 $-1 #
coedge $-1 $138 $137 $299 $300 forward $49 $-1 #
edge $-1 $228 -3.8169583798223243 $301 3.8169583798223385 $222 $302 forward 7 unknown #
coedge $-1 $303 $142 $138 $226 reversed $232 $-1 #
edge $-1 $304 -83.688483854587744 $227 -76.054567094943081 $225 $305 forward 7 unknown #
vertex $-1 $143 $306 #
vertex $-1 $224 $307 #
straight-curve $-1 76.054567094943081 0 10.492243896663219 0 -1 0 I I #
straight-curve $-1 76.054567094943081 -42.137437892139197 0 0 0 -1 I I #
coedge $-1 $142 $303 $144 $234 reversed $232 $-1 #
loop $-1 $-1 $142 $217 #
straight-curve $-1 76.054567094943081 42.137437892139197 0 0 0 1 I I #
edge $-1 $146 -3.8169583798223385 $308 3.8169583798223385 $231 $309 forward 7 unknown #
edge $-1 $310 -3.8169583798223385 $147 3.8169583798223385 $221 $311 forward 7 unknown #
point $-1 76.054567094943067 42.137437892139197 7.204159675426121 #
point $-1 76.054567094943067 -42.137437892139197 7.204159675426121 #
plane-surface $-1 0 0 10.492243896663219 0 0 1 1 0 0 forward_v I I I I #
coedge $-1 $249 $248 $241 $312 forward $150 $-1 #
coedge $-1 $241 $152 $154 $245 reversed $86 $-1 #
coedge $-1 $152 $240 $239 $312 reversed $86 $-1 #
coedge $-1 $160 $155 $152 $243 forward $161 $-1 #
edge $-1 $246 -23.930579484930107 $313 -19.76631565084292 $242 $314 forward 7 unknown #
coedge $-1 $154 $153 $249 $315 reversed $53 $-1 #
edge $-1 $316 -84.27487578427835 $246 -76.628960488815522 $240 $317 forward 7 unknown #
vertex $-1 $156 $318 #
straight-curve $-1 -24.118709077541883 37.97317405805201 10.492243896663219 1 0 0 I I #
coedge $-1 $239 $157 $160 $253 reversed $150 $-1 #
coedge $-1 $157 $239 $244 $315 forward $150 $-1 #
vertex $-1 $158 $319 #
straight-curve $-1 -62.172746202896533 42.137437892139197 78.801634255783284 0 0 1 I I #
straight-curve $-1 -62.172746202896533 -3.7619480922849675 74.758698324248542 0 0.54463902268945019 -0.83867057594974714 I I #
edge $-1 $313 34.302090107270999 $162 62.172746202896533 $248 $320 forward 7 unknown #
point $-1 -62.172746202896533 42.137437892139197 10.492243896663219 #
point $-1 -62.172746202896533 37.97317405805201 10.492243896663211 #
edge $-1 $321 1 $321 0 $165 $-1 forward 7 unknown #
vertex $-1 $166 $322 #
ellipse-curve $-1 -48.237418155083759 37.872975948307051 5.8688201597482097 0 0.83867057594974714 0.54463902268945019 1 0 0 1 I I #
point $-1 -47.237418155083759 40.055305975095564 7.2860418044087911 #
plane-surface $-1 76.054567094943081 0 0 -1 0 0 0 0 1 forward_v I I I I #
coedge $-1 $174 $172 $176 $265 reversed $101 $-1 #
edge $-1 $187 -10.492243896663219 $267 10.492243896663219 $186 $323 forward 7 unknown #
vertex $-1 $265 $324 #
straight-curve $-1 -76.054567094943081 -42.137437892139197 0 0 0 -1 I I #
edge $-1 $263 -42.137437892139197 $267 42.137437892139197 $261 $325 forward 7 unknown #
straight-curve $-1 0 -42.137437892139197 -10.492243896663219 -1 0 0 I I #
vertex $-1 $179 $326 #
straight-curve $-1 0 42.137437892139197 -10.492243896663219 1 0 0 I I #
point $-1 76.054567094943081 42.137437892139197 -10.492243896663219 #
point $-1 76.054567094943081 -42.137437892139197 -10.492243896663219 #
straight-curve $-1 -76.054567094943081 0 10.492243896663219 0 -1 0 I I #
point $-1 -76.054567094943081 42.137437892139197 10.492243896663219 #
point $-1 -76.054567094943081 -42.137437892139197 10.492243896663219 #
straight-curve $-1 76.054567094943081 -42.137437892139197 0 0 0 -1 I I #
straight-curve $-1 76.054567094943081 42.137437892139197 0 0 0 -1 I I #
plane-surface $-1 0 -42.137437892139197 0 0 1 0 0 0 1 forward_v I I I I #
coedge $-1 $327 $199 $213 $291 reversed $120 $-1 #
coedge $-1 $199 $327 $282 $328 reversed $120 $-1 #
edge $-1 $283 -1.6440421106185479 $280 1.6440421106185479 $200 $329 forward 7 unknown #
vertex $-1 $201 $330 #
straight-curve $-1 -79.87152547476542 42.137437892139197 7.204159675426121 1 0 0 I I #
coedge $-1 $286 $202 $278 $328 forward $197 $-1 #
vertex $-1 $203 $331 #
straight-curve $-1 0 42.137437892139197 10.492243896663219 -1 0 0 I I #
point $-1 -76.054567094943081 42.137437892139197 10.492243896663219 #
coedge $-1 $206 $282 $208 $289 forward $197 $-1 #
straight-curve $-1 -76.054567094943081 0 10.492243896663219 0 1 0 I I #
coedge $-1 $209 $208 $327 $332 forward $210 $-1 #
edge $-1 $333 -83.688483854587759 $211 -76.054567094943081 $208 $334 forward 7 unknown #
point $-1 -76.054567094943081 -42.137437892139197 10.492243896663219 #
edge $-1 $292 -42.137437892139197 $280 42.137437892139197 $277 $335 forward 7 unknown #
vertex $-1 $291 $336 #
straight-curve $-1 -79.87152547476542 -42.137437892139197 7.204159675426121 -1 0 0 I I #
plane-surface $-1 0 42.137437892139197 0 0 -1 0 0 0 -1 forward_v I I I I #
coedge $-1 $296 $299 $298 $337 forward $218 $-1 #
coedge $-1 $338 $295 $220 $297 reversed $218 $-1 #
edge $-1 $308 -42.137437892139197 $310 42.137437892139197 $296 $339 forward 7 unknown #
coedge $-1 $222 $221 $295 $337 reversed $78 $-1 #
coedge $-1 $295 $338 $223 $300 reversed $218 $-1 #
edge $-1 $301 -42.137437892139197 $304 42.137437892139197 $299 $340 forward 7 unknown #
vertex $-1 $300 $341 #
straight-curve $-1 79.871525474765406 -42.137437892139197 10.492243896663217 1 0 0 I I #
coedge $-1 $231 $225 $338 $342 forward $232 $-1 #
vertex $-1 $300 $343 #
straight-curve $-1 0 42.137437892139197 10.492243896663219 -1 0 0 I I #
point $-1 76.054567094943081 42.137437892139197 10.492243896663219 #
point $-1 76.054567094943081 -42.137437892139197 10.492243896663219 #
vertex $-1 $297 $344 #
straight-curve $-1 79.871525474765406 42.137437892139197 7.204159675426121 1 0 0 I I #
vertex $-1 $337 $345 #
straight-curve $-1 79.871525474765406 -42.137437892139197 7.204159675426121 -1 0 0 I I #
edge $-1 $313 68.309390359120073 $316 74.72179454362886 $239 $346 forward 7 unknown #
vertex $-1 $253 $347 #
straight-curve $-1 -34.302090107270999 61.903753542982116 10.492243896663226 0 1 0 I I #
edge $-1 $316 10.183381029729116 $250 38.054037125354654 $249 $348 forward 7 unknown #
vertex $-1 $315 $349 #
straight-curve $-1 -34.302090107270999 -3.7619480922849675 74.758698324248542 0 -0.54463902268945019 0.83867057594974714 I I #
point $-1 -34.302090107270999 37.97317405805201 10.492243896663211 #
point $-1 -62.172746202896533 42.137437892139197 4.0798397121544241 #
straight-curve $-1 0 42.137437892139197 10.492243896663219 -1 0 0 I I #
vertex $-1 $256 $350 #
point $-1 -47.237418155083759 37.872975948307051 5.8688201597482097 #
straight-curve $-1 -76.054567094943081 42.137437892139197 0 0 0 -1 I I #
point $-1 -76.054567094943081 -42.137437892139197 -10.492243896663219 #
straight-curve $-1 -76.054567094943081 0 -10.492243896663219 0 1 0 I I #
point $-1 -76.054567094943081 42.137437892139197 -10.492243896663219 #
coedge $-1 $278 $277 $288 $332 reversed $120 $-1 #
edge $-1 $283 -42.137437892139197 $333 42.137437892139197 $278 $351 forward 7 unknown #
straight-curve $-1 -83.688483854587759 42.137437892139197 8.8482017860446689 0 0 -1 I I #
point $-1 -83.688483854587759 42.137437892139197 7.204159675426121 #
point $-1 -83.688483854587759 42.137437892139197 10.492243896663217 #
edge $-1 $333 -1.6440421106185479 $292 1.6440421106185479 $327 $352 forward 7 unknown #
vertex $-1 $328 $353 #
straight-curve $-1 0 -42.137437892139197 10.492243896663219 1 0 0 I I #
straight-curve $-1 -83.688483854587759 0 7.204159675426121 0 1 0 I I #
point $-1 -83.688483854587759 -42.137437892139197 7.204159675426121 #
edge $-1 $301 -1.6440421106185479 $310 1.6440421106185479 $295 $354 forward 7 unknown #
coedge $-1 $299 $296 $303 $342 reversed $218 $-1 #
straight-curve $-1 83.688483854587744 0 7.204159675426121 0 -1 0 I I #
straight-curve $-1 83.688483854587744 0 10.492243896663217 0 1 0 I I #
point $-1 83.688483854587744 -42.137437892139197 10.492243896663217 #
edge $-1 $304 -1.6440421106185479 $308 1.6440421106185479 $338 $355 forward 7 unknown #
point $-1 83.688483854587744 42.137437892139197 10.492243896663217 #
point $-1 83.688483854587744 42.137437892139197 7.204159675426121 #
point $-1 83.688483854587744 -42.137437892139197 7.204159675426121 #
straight-curve $-1 -34.302090107270999 42.137437892139197 78.801634255783284 0 0 -1 I I #
point $-1 -34.302090107270999 42.137437892139197 10.492243896663219 #
straight-curve $-1 -24.118709077541883 42.137437892139197 4.0798397121544312 -1 0 0 I I #
point $-1 -34.302090107270999 42.137437892139197 4.0798397121544241 #
point $-1 -48.237418155083759 37.034305372357302 5.3241811370587593 #
straight-curve $-1 -83.688483854587759 0 10.492243896663217 0 -1 0 I I #
straight-curve $-1 -83.688483854587759 -42.137437892139197 8.8482017860446689 0 0 -1 I I #
point $-1 -83.688483854587759 -42.137437892139197 10.492243896663217 #
straight-curve $-1 83.688483854587744 -42.137437892139197 8.8482017860446689 0 0 -1 I I #
straight-curve $-1 83.688483854587744 42.137437892139197 8.8482017860446689 0 0 -1 I I #
End-of-ACIS-data 