500 0 8 0           
7 Unknown 11 ACIS 5.0 NT 24 Fri Mar 26 01:56:45 1999 
-1 9.9999999999999995e-007 1e-010 
body $-1 $8 $-1 $9 #
body $-1 $10 $-1 $11 #
body $-1 $12 $-1 $13 #
body $-1 $14 $-1 $15 #
body $-1 $16 $-1 $17 #
body $-1 $18 $-1 $19 #
body $-1 $20 $-1 $21 #
body $-1 $22 $-1 $23 #
lump $-1 $-1 $24 $0 #
transform $-1 1 0 0 0 1 0 0 0 1 67.981810968352306 42.594286133108405 9.937973476858641 1 rotate no_reflect no_shear #
lump $-1 $-1 $25 $1 #
transform $-1 1 0 0 0 1 0 0 0 1 67.981810968352306 42.594286133108405 9.937973476858641 1 rotate no_reflect no_shear #
lump $-1 $-1 $26 $2 #
transform $-1 1 0 0 0 1 0 0 0 1 67.981810968352306 42.594286133108405 9.937973476858641 1 rotate no_reflect no_shear #
lump $-1 $-1 $27 $3 #
transform $-1 1 0 0 0 1 0 0 0 1 67.981810968352306 42.594286133108405 9.937973476858641 1 rotate no_reflect no_shear #
lump $-1 $-1 $28 $4 #
transform $-1 1 0 0 0 1 0 0 0 1 67.981810968352306 42.594286133108405 9.937973476858641 1 rotate no_reflect no_shear #
lump $-1 $-1 $29 $5 #
transform $-1 1 0 0 0 1 0 0 0 1 67.981810968352306 42.594286133108405 9.937973476858641 1 rotate no_reflect no_shear #
lump $-1 $-1 $30 $6 #
transform $-1 1 0 0 0 1 0 0 0 1 67.981810968352306 42.594286133108405 9.937973476858641 1 rotate no_reflect no_shear #
lump $-1 $-1 $31 $7 #
transform $-1 1 0 0 0 1 0 0 0 1 67.981810968352306 42.594286133108405 9.937973476858641 1 rotate no_reflect no_shear #
shell $-1 $-1 $-1 $32 $-1 $8 #
shell $-1 $-1 $-1 $33 $-1 $10 #
shell $-1 $-1 $-1 $34 $-1 $12 #
shell $-1 $-1 $-1 $35 $-1 $14 #
shell $-1 $-1 $-1 $36 $-1 $16 #
shell $-1 $-1 $-1 $37 $-1 $18 #
shell $-1 $-1 $-1 $38 $-1 $20 #
shell $-1 $-1 $-1 $39 $-1 $22 #
face $-1 $40 $41 $24 $-1 $42 forward single #
face $-1 $43 $44 $25 $-1 $45 forward single #
face $-1 $46 $47 $26 $-1 $48 reversed single #
face $-1 $49 $50 $27 $-1 $51 forward single #
face $-1 $52 $53 $28 $-1 $54 forward single #
face $-1 $55 $56 $29 $-1 $57 reversed single #
face $-1 $58 $59 $30 $-1 $60 forward single #
face $-1 $61 $62 $31 $-1 $63 forward single #
face $-1 $64 $65 $24 $-1 $66 reversed single #
loop $-1 $-1 $67 $32 #
plane-surface $-1 0 0 9.937973476858641 0 0 1 1 0 0 forward_v I I I I #
face $-1 $68 $69 $25 $-1 $70 reversed single #
loop $-1 $-1 $71 $33 #
plane-surface $-1 0 -39.157218883567559 2.9093761662296611 0 0 1 1 0 0 forward_v I I I I #
face $-1 $72 $73 $26 $-1 $74 reversed single #
loop $-1 $-1 $75 $34 #
plane-surface $-1 -158.95923285178023 -30.944133655840865 102.19420215768191 0 1 0 -0.66913061440640931 0 0.74314481823134659 forward_v I I I I #
face $-1 $76 $77 $27 $-1 $78 forward single #
loop $-1 $79 $80 $35 #
cone-surface $-1 -60.57353342656431 -25.655658201114395 2.7356551607086304 0.66913061440640931 0 -0.74314481823134659 1.4862896364626932 0 1.3382612288128186 1 I I 0 1 2 forward I I I I #
face $-1 $81 $82 $28 $-1 $83 forward single #
loop $-1 $84 $85 $36 #
cone-surface $-1 -60.57353342656431 -17.722945019024689 2.7356551607086304 0.66913061440640931 0 -0.74314481823134659 1.4862896364626932 0 1.3382612288128186 1 I I 0 1 2 forward I I I I #
face $-1 $86 $87 $29 $-1 $88 reversed single #
loop $-1 $-1 $89 $37 #
plane-surface $-1 57.918571741552356 -12.434469564298219 193.17162404110982 0 -1 0 -0.66913061440640931 0 -0.74314481823134659 forward_v I I I I #
face $-1 $90 $91 $30 $-1 $92 forward single #
loop $-1 $93 $94 $38 #
cone-surface $-1 60.573533426564325 -25.655658201114395 2.7356551607086126 -0.66913061440640931 0 -0.74314481823134659 1.4862896364626932 0 -1.3382612288128186 1 I I 0 1 2 forward I I I I #
face $-1 $95 $96 $31 $-1 $97 forward single #
loop $-1 $98 $99 $39 #
cone-surface $-1 60.573533426564325 -17.722945019024689 2.7356551607086126 -0.66913061440640931 0 -0.74314481823134659 1.4862896364626932 0 -1.3382612288128186 1 I I 0 1 2 forward I I I I #
face $-1 $100 $101 $24 $-1 $102 reversed single #
loop $-1 $-1 $103 $40 #
plane-surface $-1 0 0 -9.937973476858641 0 0 1 1 0 0 forward_v I I I I #
coedge $-1 $104 $105 $106 $107 forward $41 $-1 #
face $-1 $108 $109 $25 $-1 $110 reversed single #
loop $-1 $-1 $111 $43 #
plane-surface $-1 0 -39.157218883567559 -0.090623833770338891 0 0 1 1 0 0 forward_v I I I I #
coedge $-1 $112 $113 $114 $115 reversed $44 $-1 #
face $-1 $116 $117 $26 $-1 $118 reversed single #
loop $-1 $-1 $119 $46 #
plane-surface $-1 -67.98181096835232 -21.689301610069542 1.1535410474540413 -0.66913061440640931 0 0.74314481823134659 0.74314481823134659 0 0.66913061440640931 forward_v I I I I #
coedge $-1 $120 $121 $122 $123 reversed $47 $-1 #
face $-1 $-1 $124 $27 $-1 $125 forward single #
loop $-1 $126 $127 $49 #
cone-surface $-1 -57.374175460022776 -25.655658201114395 -0.81759175897041558 0.66913061440640931 0 -0.74314481823134659 0.74314481823134659 0 0.66913061440640931 1 I I -0.70710678118654746 0.70710678118654746 1 forward I I I I #
loop $-1 $-1 $128 $35 #
coedge $-1 $80 $80 $129 $130 reversed $50 $-1 #
face $-1 $-1 $131 $28 $-1 $132 forward single #
loop $-1 $133 $134 $52 #
cone-surface $-1 -57.374175460022776 -17.722945019024689 -0.81759175897041558 0.66913061440640931 0 -0.74314481823134659 0.74314481823134659 0 0.66913061440640931 1 I I -0.70710678118654746 0.70710678118654746 1 forward I I I I #
loop $-1 $-1 $135 $36 #
coedge $-1 $85 $85 $136 $137 reversed $53 $-1 #
face $-1 $138 $139 $29 $-1 $140 reversed single #
loop $-1 $-1 $141 $55 #
plane-surface $-1 -33.058850141875553 -21.689301610069542 92.13096293088195 0.66913061440640931 0 0.74314481823134659 0.74314481823134659 0 -0.66913061440640931 forward_v I I I I #
coedge $-1 $142 $143 $144 $145 reversed $56 $-1 #
face $-1 $-1 $146 $30 $-1 $147 forward single #
loop $-1 $148 $149 $58 #
cone-surface $-1 57.374175460022784 -25.655658201114395 -0.81759175897043335 -0.66913061440640931 0 -0.74314481823134659 0.74314481823134659 0 -0.66913061440640931 1 I I -0.70710678118654746 0.70710678118654746 1 forward I I I I #
loop $-1 $-1 $150 $38 #
coedge $-1 $94 $94 $151 $152 reversed $59 $-1 #
face $-1 $-1 $153 $31 $-1 $154 forward single #
loop $-1 $155 $156 $61 #
cone-surface $-1 57.374175460022784 -17.722945019024689 -0.81759175897043335 -0.66913061440640931 0 -0.74314481823134659 0.74314481823134659 0 -0.66913061440640931 1 I I -0.70710678118654746 0.70710678118654746 1 forward I I I I #
loop $-1 $-1 $157 $39 #
coedge $-1 $99 $99 $158 $159 reversed $62 $-1 #
face $-1 $160 $161 $24 $-1 $162 reversed single #
loop $-1 $-1 $163 $64 #
plane-surface $-1 0 -42.594286133108405 0 0 1 0 0 0 1 forward_v I I I I #
coedge $-1 $164 $165 $166 $167 forward $65 $-1 #
coedge $-1 $168 $67 $169 $170 forward $41 $-1 #
coedge $-1 $67 $168 $171 $172 forward $41 $-1 #
coedge $-1 $173 $174 $67 $107 reversed $175 $-1 #
edge $-1 $176 -42.594286133108405 $177 42.594286133108405 $106 $178 forward 7 unknown #
face $-1 $179 $180 $25 $-1 $181 reversed single #
loop $-1 $-1 $182 $68 #
plane-surface $-1 0 -35.720151634026713 1.4093761662296611 0 -1 0 0 0 -1 forward_v I I I I #
coedge $-1 $183 $184 $185 $186 reversed $69 $-1 #
coedge $-1 $187 $71 $188 $189 forward $44 $-1 #
coedge $-1 $71 $187 $190 $191 reversed $44 $-1 #
coedge $-1 $192 $193 $71 $115 forward $194 $-1 #
edge $-1 $195 16.141542192242934 $196 23.015676691324625 $114 $197 forward 7 unknown #
face $-1 $198 $199 $26 $-1 $200 reversed single #
loop $-1 $-1 $201 $72 #
plane-surface $-1 -158.95923285178023 -12.434469564298219 102.19420215768191 0 -1 0 0.66913061440640931 0 -0.74314481823134659 forward_v I I I I #
coedge $-1 $202 $203 $204 $205 reversed $73 $-1 #
coedge $-1 $121 $75 $206 $207 reversed $47 $-1 #
coedge $-1 $75 $120 $202 $208 reversed $47 $-1 #
coedge $-1 $204 $209 $75 $123 forward $210 $-1 #
edge $-1 $211 11.497805457537808 $212 21.253905836843494 $122 $213 forward 7 unknown #
loop $-1 $-1 $129 $76 #
plane-surface $-1 -67.98181096835232 -21.689301610069542 1.1535410474540413 -0.66913061440640931 0 0.74314481823134659 0.74314481823134659 0 0.66913061440640931 forward_v I I I I #
loop $-1 $-1 $214 $49 #
coedge $-1 $127 $127 $128 $215 reversed $77 $-1 #
coedge $-1 $128 $128 $127 $215 forward $79 $-1 #
coedge $-1 $129 $129 $80 $130 forward $124 $-1 #
edge $-1 $216 0 $216 6.2831853071796004 $129 $217 forward 7 unknown #
loop $-1 $-1 $136 $81 #
plane-surface $-1 -67.98181096835232 -21.689301610069542 1.1535410474540413 -0.66913061440640931 0 0.74314481823134659 0.74314481823134659 0 0.66913061440640931 forward_v I I I I #
loop $-1 $-1 $218 $52 #
coedge $-1 $134 $134 $135 $219 reversed $82 $-1 #
coedge $-1 $135 $135 $134 $219 forward $84 $-1 #
coedge $-1 $136 $136 $85 $137 forward $131 $-1 #
edge $-1 $220 0 $220 6.2831853071796004 $136 $221 forward 7 unknown #
face $-1 $222 $223 $29 $-1 $224 forward single #
loop $-1 $-1 $225 $86 #
plane-surface $-1 57.918571741552356 -30.944133655840865 193.17162404110982 0 1 0 0.66913061440640931 0 0.74314481823134659 forward_v I I I I #
coedge $-1 $226 $227 $228 $229 reversed $87 $-1 #
coedge $-1 $143 $89 $230 $231 reversed $56 $-1 #
coedge $-1 $89 $142 $226 $232 reversed $56 $-1 #
coedge $-1 $228 $233 $89 $145 forward $223 $-1 #
edge $-1 $234 -39.022525097576128 $235 -29.266424718270436 $144 $236 forward 7 unknown #
loop $-1 $-1 $151 $90 #
plane-surface $-1 -33.058850141875553 -21.689301610069542 92.13096293088195 0.66913061440640931 0 0.74314481823134659 0.74314481823134659 0 -0.66913061440640931 forward_v I I I I #
loop $-1 $-1 $237 $58 #
coedge $-1 $149 $149 $150 $238 reversed $91 $-1 #
coedge $-1 $150 $150 $149 $238 forward $93 $-1 #
coedge $-1 $151 $151 $94 $152 forward $146 $-1 #
edge $-1 $239 0 $239 6.2831853071796004 $151 $240 forward 7 unknown #
loop $-1 $-1 $158 $95 #
plane-surface $-1 -33.058850141875553 -21.689301610069542 92.13096293088195 0.66913061440640931 0 0.74314481823134659 0.74314481823134659 0 -0.66913061440640931 forward_v I I I I #
loop $-1 $-1 $241 $61 #
coedge $-1 $156 $156 $157 $242 reversed $96 $-1 #
coedge $-1 $157 $157 $156 $242 forward $98 $-1 #
coedge $-1 $158 $158 $99 $159 forward $153 $-1 #
edge $-1 $243 0 $243 6.2831853071796004 $158 $244 forward 7 unknown #
face $-1 $245 $246 $24 $-1 $247 reversed single #
loop $-1 $-1 $248 $100 #
plane-surface $-1 -67.981810968352306 0 0 1 0 0 0 0 -1 forward_v I I I I #
coedge $-1 $249 $171 $250 $251 forward $101 $-1 #
coedge $-1 $252 $103 $249 $253 forward $65 $-1 #
coedge $-1 $103 $252 $254 $255 forward $65 $-1 #
coedge $-1 $174 $173 $103 $167 reversed $175 $-1 #
edge $-1 $256 -42.594286133108405 $257 42.594286133108405 $166 $258 forward 7 unknown #
coedge $-1 $105 $104 $259 $260 forward $41 $-1 #
coedge $-1 $261 $262 $104 $170 reversed $246 $-1 #
edge $-1 $177 -67.981810968352306 $263 67.981810968352306 $169 $264 forward 7 unknown #
coedge $-1 $163 $265 $105 $172 reversed $101 $-1 #
edge $-1 $266 -67.981810968352306 $176 67.981810968352306 $171 $267 forward 7 unknown #
coedge $-1 $166 $106 $265 $268 forward $175 $-1 #
coedge $-1 $106 $166 $261 $269 reversed $175 $-1 #
loop $-1 $-1 $173 $245 #
vertex $-1 $107 $270 #
vertex $-1 $107 $271 #
straight-curve $-1 67.981810968352306 0 9.937973476858641 0 1 0 I I #
face $-1 $272 $273 $25 $-1 $274 reversed single #
loop $-1 $-1 $275 $108 #
plane-surface $-1 -67.981810968352306 0 0 1 0 0 0 0 -1 forward_v I I I I #
coedge $-1 $276 $188 $193 $277 reversed $109 $-1 #
coedge $-1 $278 $111 $279 $280 reversed $69 $-1 #
coedge $-1 $111 $278 $276 $281 forward $69 $-1 #
coedge $-1 $193 $192 $111 $186 forward $194 $-1 #
edge $-1 $282 -23.015676691324625 $283 -16.141542192242934 $185 $284 forward 7 unknown #
coedge $-1 $113 $112 $275 $285 reversed $44 $-1 #
coedge $-1 $182 $286 $112 $189 reversed $109 $-1 #
edge $-1 $195 -67.981810968352306 $287 67.981810968352306 $188 $288 forward 7 unknown #
coedge $-1 $289 $290 $113 $191 forward $273 $-1 #
edge $-1 $196 -67.981810968352306 $291 67.981810968352306 $190 $292 forward 7 unknown #
coedge $-1 $185 $114 $290 $293 forward $194 $-1 #
coedge $-1 $114 $185 $182 $277 forward $194 $-1 #
loop $-1 $-1 $114 $272 #
vertex $-1 $115 $294 #
vertex $-1 $293 $295 #
straight-curve $-1 67.981810968352306 -19.578609441783779 2.9093761662296611 0 -1 0 I I #
face $-1 $-1 $210 $26 $-1 $296 forward single #
loop $-1 $-1 $297 $116 #
plane-surface $-1 -67.981810968352306 0 0 1 0 0 0 0 -1 forward_v I I I I #
coedge $-1 $298 $299 $300 $301 reversed $117 $-1 #
coedge $-1 $302 $119 $121 $208 forward $73 $-1 #
coedge $-1 $119 $302 $298 $303 forward $73 $-1 #
coedge $-1 $300 $122 $119 $205 forward $210 $-1 #
edge $-1 $212 -20.099482850806094 $304 -1.5898187592634478 $204 $305 forward 7 unknown #
coedge $-1 $306 $307 $120 $207 forward $199 $-1 #
edge $-1 $308 -49.943560031386902 $211 -41.15912760198232 $206 $309 forward 7 unknown #
edge $-1 $212 -13.128128111724992 $308 -1.9178179933549516e-014 $121 $310 forward 7 unknown #
coedge $-1 $122 $300 $306 $311 forward $210 $-1 #
loop $-1 $-1 $300 $198 #
vertex $-1 $207 $312 #
vertex $-1 $123 $313 #
straight-curve $-1 -79.479616425890114 -30.944133655840865 9.9379734768586374 1 0 0 I I #
coedge $-1 $214 $214 $-1 $314 reversed $126 $-1 #
edge $-1 $315 0 $315 6.2831853071796004 $127 $316 forward 7 unknown #
vertex $-1 $130 $317 #
ellipse-curve $-1 -63.10376077869946 -25.655658201114395 5.5457572621563518 -0.66913061440640931 0 0.74314481823134659 1.4862896364626932 0 1.3382612288128186 1 I I #
coedge $-1 $218 $218 $-1 $318 reversed $133 $-1 #
edge $-1 $319 0 $319 6.2831853071796004 $134 $320 forward 7 unknown #
vertex $-1 $137 $321 #
ellipse-curve $-1 -63.10376077869946 -17.722945019024689 5.5457572621563518 -0.66913061440640931 0 0.74314481823134659 1.4862896364626932 0 1.3382612288128186 1 I I #
face $-1 $-1 $322 $29 $-1 $323 reversed single #
loop $-1 $-1 $144 $138 #
plane-surface $-1 0 0 9.937973476858641 0 0 1 1 0 0 forward_v I I I I #
coedge $-1 $324 $325 $326 $327 reversed $139 $-1 #
coedge $-1 $328 $141 $143 $232 forward $87 $-1 #
coedge $-1 $141 $328 $324 $329 forward $87 $-1 #
coedge $-1 $326 $144 $141 $229 forward $223 $-1 #
edge $-1 $235 1.5898187592634478 $330 20.099482850806094 $228 $331 forward 7 unknown #
coedge $-1 $332 $333 $142 $231 forward $322 $-1 #
edge $-1 $334 -95.432270973100856 $234 -86.647838543696267 $230 $335 forward 7 unknown #
edge $-1 $235 122.83549382497961 $334 135.96362193670458 $143 $336 forward 7 unknown #
coedge $-1 $144 $326 $332 $337 forward $223 $-1 #
vertex $-1 $231 $338 #
vertex $-1 $145 $339 #
straight-curve $-1 28.959285870776178 -12.434469564298219 9.9379734768586445 -1 0 0 I I #
coedge $-1 $237 $237 $-1 $340 reversed $148 $-1 #
edge $-1 $341 0 $341 6.2831853071796004 $149 $342 forward 7 unknown #
vertex $-1 $152 $343 #
ellipse-curve $-1 63.103760778699474 -25.655658201114395 5.5457572621563322 0.66913061440640931 0 0.74314481823134659 1.4862896364626932 0 -1.3382612288128186 1 I I #
coedge $-1 $241 $241 $-1 $344 reversed $155 $-1 #
edge $-1 $345 0 $345 6.2831853071796004 $156 $346 forward 7 unknown #
vertex $-1 $159 $347 #
ellipse-curve $-1 63.103760778699474 -17.722945019024689 5.5457572621563322 0.66913061440640931 0 0.74314481823134659 1.4862896364626932 0 -1.3382612288128186 1 I I #
face $-1 $-1 $175 $24 $-1 $348 reversed single #
loop $-1 $-1 $261 $160 #
plane-surface $-1 0 42.594286133108405 0 0 -1 0 0 0 -1 forward_v I I I I #
coedge $-1 $349 $259 $262 $350 forward $161 $-1 #
coedge $-1 $265 $163 $164 $253 reversed $101 $-1 #
coedge $-1 $259 $349 $163 $251 reversed $161 $-1 #
edge $-1 $266 -9.937973476858641 $351 9.937973476858641 $250 $352 forward 7 unknown #
coedge $-1 $165 $164 $349 $353 forward $65 $-1 #
edge $-1 $257 -67.981810968352306 $351 67.981810968352306 $249 $354 forward 7 unknown #
coedge $-1 $262 $261 $165 $255 reversed $246 $-1 #
edge $-1 $355 -67.981810968352306 $256 67.981810968352306 $254 $356 forward 7 unknown #
vertex $-1 $167 $357 #
vertex $-1 $268 $358 #
straight-curve $-1 67.981810968352306 0 -9.937973476858641 0 -1 0 I I #
coedge $-1 $248 $250 $168 $260 reversed $161 $-1 #
edge $-1 $263 -42.594286133108405 $266 42.594286133108405 $259 $359 forward 7 unknown #
coedge $-1 $254 $169 $174 $269 forward $246 $-1 #
coedge $-1 $169 $254 $248 $350 reversed $246 $-1 #
vertex $-1 $170 $360 #
straight-curve $-1 0 42.594286133108405 9.937973476858641 -1 0 0 I I #
coedge $-1 $171 $249 $173 $268 reversed $101 $-1 #
vertex $-1 $260 $361 #
straight-curve $-1 0 -42.594286133108405 9.937973476858641 1 0 0 I I #
edge $-1 $176 -9.937973476858641 $257 9.937973476858641 $173 $362 forward 7 unknown #
edge $-1 $177 -9.937973476858641 $256 9.937973476858641 $174 $363 forward 7 unknown #
point $-1 67.981810968352306 -42.594286133108405 9.937973476858641 #
point $-1 67.981810968352306 42.594286133108405 9.937973476858641 #
face $-1 $-1 $194 $25 $-1 $364 reversed single #
loop $-1 $-1 $190 $179 #
plane-surface $-1 0 -42.594286133108405 0 0 1 0 0 0 1 forward_v I I I I #
coedge $-1 $365 $366 $187 $285 forward $180 $-1 #
coedge $-1 $286 $182 $184 $281 reversed $109 $-1 #
edge $-1 $283 -0.79531191688516945 $195 2.2046880831148306 $193 $367 forward 7 unknown #
coedge $-1 $184 $183 $368 $369 reversed $69 $-1 #
coedge $-1 $290 $289 $183 $280 forward $273 $-1 #
edge $-1 $370 -67.981810968352306 $282 67.981810968352306 $279 $371 forward 7 unknown #
edge $-1 $372 -67.981810968352306 $283 67.981810968352306 $276 $373 forward 7 unknown #
vertex $-1 $280 $374 #
vertex $-1 $186 $375 #
straight-curve $-1 67.981810968352306 -19.578609441783779 -0.090623833770338891 0 1 0 I I #
edge $-1 $291 -23.015676691324625 $287 -16.141542192242934 $275 $376 forward 7 unknown #
coedge $-1 $188 $276 $365 $377 reversed $109 $-1 #
vertex $-1 $285 $378 #
straight-curve $-1 0 -35.720151634026713 2.9093761662296611 -1 0 0 I I #
coedge $-1 $279 $190 $366 $379 forward $273 $-1 #
coedge $-1 $190 $279 $192 $293 reversed $273 $-1 #
vertex $-1 $379 $380 #
straight-curve $-1 0 -42.594286133108405 2.9093761662296611 -1 0 0 I I #
edge $-1 $196 -2.9093761662296611 $282 0.090623833770338891 $192 $381 forward 7 unknown #
point $-1 67.981810968352306 -35.720151634026713 2.9093761662296611 #
point $-1 67.981810968352306 -42.594286133108405 2.9093761662296611 #
plane-surface $-1 0 0 9.937973476858641 0 0 1 1 0 0 forward_v I I I I #
coedge $-1 $307 $306 $299 $382 forward $199 $-1 #
coedge $-1 $299 $201 $203 $303 reversed $117 $-1 #
coedge $-1 $201 $298 $297 $382 reversed $117 $-1 #
coedge $-1 $209 $204 $201 $301 forward $210 $-1 #
edge $-1 $304 -21.253905836843494 $383 -11.497805457537808 $300 $384 forward 7 unknown #
coedge $-1 $203 $202 $307 $385 reversed $73 $-1 #
edge $-1 $386 1.9178179933549516e-014 $304 13.128128111724992 $298 $387 forward 7 unknown #
vertex $-1 $205 $388 #
straight-curve $-1 -58.225710589046621 -10.844650805034771 9.9379734768586392 0 1 0 I I #
coedge $-1 $297 $206 $209 $311 reversed $199 $-1 #
coedge $-1 $206 $297 $302 $385 forward $199 $-1 #
vertex $-1 $207 $389 #
straight-curve $-1 -67.981810968352306 -30.944133655840865 51.097101078840957 0 0 1 I I #
straight-curve $-1 -67.98181096835232 -30.944133655840865 1.1535410474540413 -0.74314481823134659 0 -0.66913061440640931 I I #
edge $-1 $383 12.434469564298219 $211 30.944133655840865 $306 $390 forward 7 unknown #
point $-1 -67.981810968352306 -30.944133655840865 9.937973476858641 #
point $-1 -58.225710589046621 -30.944133655840865 9.937973476858641 #
edge $-1 $391 1 $391 0 $214 $-1 forward 7 unknown #
vertex $-1 $215 $392 #
ellipse-curve $-1 -58.043306074429182 -25.655658201114395 -0.07444694073906899 -0.66913061440640931 0 0.74314481823134659 1.4862896364626932 0 1.3382612288128186 1 I I #
point $-1 -61.617471142236752 -25.655658201114395 6.8840184909691482 #
edge $-1 $393 1 $393 0 $218 $-1 forward 7 unknown #
vertex $-1 $219 $394 #
ellipse-curve $-1 -58.043306074429182 -17.722945019024689 -0.07444694073906899 -0.66913061440640931 0 0.74314481823134659 1.4862896364626932 0 1.3382612288128186 1 I I #
point $-1 -61.617471142236752 -17.722945019024689 6.8840184909691482 #
loop $-1 $-1 $230 $222 #
plane-surface $-1 67.981810968352306 0 0 -1 0 0 0 0 1 forward_v I I I I #
coedge $-1 $325 $225 $227 $329 reversed $139 $-1 #
coedge $-1 $225 $324 $395 $396 reversed $139 $-1 #
coedge $-1 $233 $228 $225 $327 forward $223 $-1 #
edge $-1 $330 29.266424718270436 $397 39.022525097576128 $326 $398 forward 7 unknown #
coedge $-1 $227 $226 $333 $399 reversed $87 $-1 #
edge $-1 $400 -135.96362193670458 $330 -122.83549382497961 $324 $401 forward 7 unknown #
vertex $-1 $229 $402 #
straight-curve $-1 58.225710589046614 -10.844650805034771 9.9379734768586445 0 -1 0 I I #
coedge $-1 $395 $230 $233 $337 reversed $322 $-1 #
coedge $-1 $230 $395 $328 $399 forward $322 $-1 #
vertex $-1 $231 $403 #
straight-curve $-1 67.981810968352306 -12.434469564298219 96.585812020554911 0 0 1 I I #
straight-curve $-1 -33.058850141875553 -12.434469564298219 92.13096293088195 0.74314481823134659 0 -0.66913061440640931 I I #
edge $-1 $397 -30.944133655840865 $234 -12.434469564298219 $332 $404 forward 7 unknown #
point $-1 67.981810968352306 -12.434469564298219 9.937973476858641 #
point $-1 58.225710589046614 -12.434469564298219 9.9379734768586445 #
edge $-1 $405 1 $405 0 $237 $-1 forward 7 unknown #
vertex $-1 $238 $406 #
ellipse-curve $-1 58.043306074429196 -25.655658201114395 -0.074446940739086753 0.66913061440640931 0 0.74314481823134659 1.4862896364626932 0 -1.3382612288128186 1 I I #
point $-1 64.590050415162139 -25.655658201114395 4.2074960333434932 #
edge $-1 $407 1 $407 0 $241 $-1 forward 7 unknown #
vertex $-1 $242 $408 #
ellipse-curve $-1 58.043306074429196 -17.722945019024689 -0.074446940739086753 0.66913061440640931 0 0.74314481823134659 1.4862896364626932 0 -1.3382612288128186 1 I I #
point $-1 64.590050415162139 -17.722945019024689 4.2074960333434932 #
plane-surface $-1 67.981810968352306 0 0 -1 0 0 0 0 1 forward_v I I I I #
coedge $-1 $250 $248 $252 $353 reversed $161 $-1 #
edge $-1 $263 -9.937973476858641 $355 9.937973476858641 $262 $409 forward 7 unknown #
vertex $-1 $353 $410 #
straight-curve $-1 -67.981810968352306 -42.594286133108405 0 0 0 -1 I I #
edge $-1 $351 -42.594286133108405 $355 42.594286133108405 $349 $411 forward 7 unknown #
straight-curve $-1 0 -42.594286133108405 -9.937973476858641 -1 0 0 I I #
vertex $-1 $255 $412 #
straight-curve $-1 0 42.594286133108405 -9.937973476858641 1 0 0 I I #
point $-1 67.981810968352306 42.594286133108405 -9.937973476858641 #
point $-1 67.981810968352306 -42.594286133108405 -9.937973476858641 #
straight-curve $-1 -67.981810968352306 0 9.937973476858641 0 -1 0 I I #
point $-1 -67.981810968352306 42.594286133108405 9.937973476858641 #
point $-1 -67.981810968352306 -42.594286133108405 9.937973476858641 #
straight-curve $-1 67.981810968352306 -42.594286133108405 0 0 0 -1 I I #
straight-curve $-1 67.981810968352306 42.594286133108405 0 0 0 -1 I I #
plane-surface $-1 67.981810968352306 0 0 -1 0 0 0 0 1 forward_v I I I I #
coedge $-1 $368 $275 $286 $377 forward $180 $-1 #
coedge $-1 $275 $368 $289 $379 reversed $180 $-1 #
straight-curve $-1 67.981810968352306 -35.720151634026713 0.70468808311483055 0 0 1 I I #
coedge $-1 $366 $365 $278 $369 forward $180 $-1 #
edge $-1 $372 16.141542192242934 $370 23.015676691324625 $368 $413 forward 7 unknown #
vertex $-1 $280 $414 #
straight-curve $-1 0 -42.594286133108405 -0.090623833770338891 1 0 0 I I #
vertex $-1 $369 $415 #
straight-curve $-1 0 -35.720151634026713 -0.090623833770338891 1 0 0 I I #
point $-1 67.981810968352306 -42.594286133108405 -0.090623833770338891 #
point $-1 67.981810968352306 -35.720151634026713 -0.090623833770338891 #
straight-curve $-1 -67.981810968352306 -19.578609441783779 2.9093761662296611 0 1 0 I I #
edge $-1 $287 -2.2046880831148306 $372 0.79531191688516945 $365 $416 forward 7 unknown #
point $-1 -67.981810968352306 -35.720151634026713 2.9093761662296611 #
edge $-1 $291 -2.9093761662296611 $370 0.090623833770338891 $366 $417 forward 7 unknown #
point $-1 -67.981810968352306 -42.594286133108405 2.9093761662296611 #
straight-curve $-1 67.981810968352306 -42.594286133108405 0 0 0 -1 I I #
edge $-1 $383 41.15912760198232 $386 49.943560031386902 $297 $418 forward 7 unknown #
vertex $-1 $311 $419 #
straight-curve $-1 -79.479616425890114 -12.434469564298219 9.9379734768586374 -1 0 0 I I #
edge $-1 $386 1.5898187592634478 $308 20.099482850806094 $307 $420 forward 7 unknown #
vertex $-1 $385 $421 #
straight-curve $-1 -67.98181096835232 -12.434469564298219 1.1535410474540413 0.74314481823134659 0 0.66913061440640931 I I #
point $-1 -58.225710589046621 -12.434469564298219 9.937973476858641 #
point $-1 -67.981810968352306 -30.944133655840865 1.1535410474540542 #
straight-curve $-1 -67.981810968352306 0 9.937973476858641 0 -1 0 I I #
vertex $-1 $314 $422 #
point $-1 -56.557016437966496 -25.655658201114395 1.2638142880737497 #
vertex $-1 $318 $423 #
point $-1 -56.557016437966496 -17.722945019024689 1.2638142880737497 #
coedge $-1 $333 $332 $325 $396 forward $322 $-1 #
edge $-1 $397 86.647838543696267 $400 95.432270973100856 $395 $424 forward 7 unknown #
vertex $-1 $337 $425 #
straight-curve $-1 28.959285870776178 -30.944133655840865 9.9379734768586445 1 0 0 I I #
edge $-1 $400 -20.099482850806094 $334 -1.5898187592634478 $333 $426 forward 7 unknown #
vertex $-1 $399 $427 #
straight-curve $-1 -33.058850141875553 -30.944133655840865 92.13096293088195 -0.74314481823134659 0 0.66913061440640931 I I #
point $-1 58.225710589046614 -30.944133655840865 9.9379734768586445 #
point $-1 67.981810968352306 -12.434469564298219 1.1535410474540555 #
straight-curve $-1 67.981810968352306 0 9.937973476858641 0 1 0 I I #
vertex $-1 $340 $428 #
point $-1 59.529595710891883 -25.655658201114395 -1.4127081695519053 #
vertex $-1 $344 $429 #
point $-1 59.529595710891883 -17.722945019024689 -1.4127081695519053 #
straight-curve $-1 -67.981810968352306 42.594286133108405 0 0 0 -1 I I #
point $-1 -67.981810968352306 -42.594286133108405 -9.937973476858641 #
straight-curve $-1 -67.981810968352306 0 -9.937973476858641 0 1 0 I I #
point $-1 -67.981810968352306 42.594286133108405 -9.937973476858641 #
straight-curve $-1 -67.981810968352306 -19.578609441783779 -0.090623833770338891 0 -1 0 I I #
point $-1 -67.981810968352306 -42.594286133108405 -0.090623833770338891 #
point $-1 -67.981810968352306 -35.720151634026713 -0.090623833770338891 #
straight-curve $-1 -67.981810968352306 -35.720151634026713 0.70468808311483055 0 0 -1 I I #
straight-curve $-1 -67.981810968352306 -42.594286133108405 0 0 0 -1 I I #
straight-curve $-1 -67.981810968352306 -12.434469564298219 51.097101078840957 0 0 -1 I I #
point $-1 -67.981810968352306 -12.434469564298219 9.937973476858641 #
straight-curve $-1 -67.981810968352306 -10.844650805034771 1.1535410474540466 0 -1 0 I I #
point $-1 -67.981810968352306 -12.434469564298219 1.1535410474540542 #
point $-1 -56.705044845616371 -25.655658201114395 -1.5607365772017623 #
point $-1 -56.705044845616371 -17.722945019024689 -1.5607365772017623 #
straight-curve $-1 67.981810968352306 -30.944133655840865 96.585812020554911 0 0 -1 I I #
point $-1 67.981810968352306 -30.944133655840865 9.937973476858641 #
straight-curve $-1 67.981810968352306 -10.844650805034771 1.1535410474540555 0 1 0 I I #
point $-1 67.981810968352306 -30.944133655840865 1.1535410474540555 #
point $-1 56.705044845616371 -25.655658201114395 -1.5607365772017801 #
point $-1 56.705044845616371 -17.722945019024689 -1.5607365772017801 #
End-of-ACIS-data 