500 0 9 0           
7 Unknown 11 ACIS 5.0 NT 24 Thu Mar 25 22:51:11 1999 
-1 9.9999999999999995e-007 1e-010 
body $-1 $9 $-1 $10 #
body $-1 $11 $-1 $12 #
body $-1 $13 $-1 $14 #
body $-1 $15 $-1 $16 #
body $-1 $17 $-1 $18 #
body $-1 $19 $-1 $20 #
body $-1 $21 $-1 $22 #
body $-1 $23 $-1 $24 #
body $-1 $25 $-1 $26 #
lump $-1 $-1 $27 $0 #
transform $-1 1 0 0 0 1 0 0 0 1 44.344615009002958 21.634222878884867 6.0847448539541329 1 rotate no_reflect no_shear #
lump $-1 $-1 $28 $1 #
transform $-1 1 0 0 0 1 0 0 0 1 44.344615009002958 21.634222878884867 6.0847448539541329 1 rotate no_reflect no_shear #
lump $-1 $-1 $29 $2 #
transform $-1 1 0 0 0 1 0 0 0 1 44.344615009002958 21.634222878884867 6.0847448539541329 1 rotate no_reflect no_shear #
lump $-1 $-1 $30 $3 #
transform $-1 1 0 0 0 1 0 0 0 1 44.344615009002958 21.634222878884867 6.0847448539541329 1 rotate no_reflect no_shear #
lump $-1 $-1 $31 $4 #
transform $-1 1 0 0 0 1 0 0 0 1 44.344615009002958 21.634222878884867 6.0847448539541329 1 rotate no_reflect no_shear #
lump $-1 $-1 $32 $5 #
transform $-1 1 0 0 0 1 0 0 0 1 44.344615009002958 21.634222878884867 6.0847448539541329 1 rotate no_reflect no_shear #
lump $-1 $-1 $33 $6 #
transform $-1 1 0 0 0 1 0 0 0 1 44.344615009002958 21.634222878884867 6.0847448539541329 1 rotate no_reflect no_shear #
lump $-1 $-1 $34 $7 #
transform $-1 1 0 0 0 1 0 0 0 1 44.344615009002958 21.634222878884867 6.0847448539541329 1 rotate no_reflect no_shear #
lump $-1 $-1 $35 $8 #
transform $-1 1 0 0 0 1 0 0 0 1 44.344615009002958 21.634222878884867 6.0847448539541329 1 rotate no_reflect no_shear #
shell $-1 $-1 $-1 $36 $-1 $9 #
shell $-1 $-1 $-1 $37 $-1 $11 #
shell $-1 $-1 $-1 $38 $-1 $13 #
shell $-1 $-1 $-1 $39 $-1 $15 #
shell $-1 $-1 $-1 $40 $-1 $17 #
shell $-1 $-1 $-1 $41 $-1 $19 #
shell $-1 $-1 $-1 $42 $-1 $21 #
shell $-1 $-1 $-1 $43 $-1 $23 #
shell $-1 $-1 $-1 $44 $-1 $25 #
face $-1 $45 $46 $27 $-1 $47 forward single #
face $-1 $48 $49 $28 $-1 $50 reversed single #
face $-1 $51 $52 $29 $-1 $53 reversed single #
face $-1 $54 $55 $30 $-1 $56 forward single #
face $-1 $57 $58 $31 $-1 $59 forward single #
face $-1 $60 $61 $32 $-1 $62 forward single #
face $-1 $63 $64 $33 $-1 $65 reversed single #
face $-1 $66 $67 $34 $-1 $68 forward single #
face $-1 $69 $70 $35 $-1 $71 forward single #
face $-1 $72 $73 $27 $-1 $74 reversed single #
loop $-1 $-1 $75 $36 #
plane-surface $-1 0 0 6.0847448539541329 0 0 1 1 0 0 forward_v I I I I #
face $-1 $76 $77 $28 $-1 $78 reversed single #
loop $-1 $-1 $79 $37 #
plane-surface $-1 0 -19.291177362602969 3.0847448539541329 0 0 1 1 0 0 forward_v I I I I #
face $-1 $80 $81 $29 $-1 $82 reversed single #
loop $-1 $-1 $83 $38 #
plane-surface $-1 -112.284507563733 2.2559769095519844 59.729035747482243 0 1 0 -0.7660444514056185 0 0.64278759981090561 forward_v I I I I #
face $-1 $84 $85 $30 $-1 $86 forward single #
loop $-1 $87 $88 $39 #
cone-surface $-1 -42.550207773993989 3.6294091957564731 4.0813278546370677 0.7660444514056185 0 -0.64278759981090561 0.1606968999527264 0 0.19151111285140462 1 I I 0 1 0.25 forward I I I I #
face $-1 $89 $90 $31 $-1 $91 forward single #
loop $-1 $92 $93 $40 #
cone-surface $-1 -42.550207773993989 5.6895576250632054 4.0813278546370677 0.7660444514056185 0 -0.64278759981090561 0.1606968999527264 0 0.19151111285140462 1 I I 0 1 0.25 forward I I I I #
face $-1 $94 $95 $32 $-1 $96 forward single #
loop $-1 $97 $98 $41 #
cone-surface $-1 -42.550207773993989 7.7497060543699376 4.0813278546370677 0.7660444514056185 0 -0.64278759981090561 0.1606968999527264 0 0.19151111285140462 1 I I 0 1 0.25 forward I I I I #
face $-1 $99 $100 $33 $-1 $101 reversed single #
loop $-1 $-1 $102 $42 #
plane-surface $-1 33.41306264606083 8.726388046244594 127.17863798306624 0 -1 0 -0.64278761758704617 0 -0.76604443648966558 forward_v I I I I #
face $-1 $103 $104 $34 $-1 $105 forward single #
loop $-1 $106 $107 $43 #
cone-surface $-1 41.190851664329436 0.67492942569420578 3.1361798897269573 -0.64278761758704617 0 -0.76604443648966558 0.76604443648966558 0 -0.64278761758704617 1 I I 0 1 1 forward I I I I #
face $-1 $108 $109 $35 $-1 $110 forward single #
loop $-1 $111 $112 $44 #
cone-surface $-1 41.190851664329436 5.5058045980244401 3.1361798897269573 -0.64278761758704617 0 -0.76604443648966558 0.76604443648966558 0 -0.64278761758704617 1 I I 0 1 1 forward I I I I #
face $-1 $113 $114 $27 $-1 $115 reversed single #
loop $-1 $-1 $116 $45 #
plane-surface $-1 0 0 -6.0847448539541329 0 0 1 1 0 0 forward_v I I I I #
coedge $-1 $117 $118 $119 $120 forward $46 $-1 #
face $-1 $121 $122 $28 $-1 $123 reversed single #
loop $-1 $-1 $124 $48 #
plane-surface $-1 0 -16.948131846321072 4.5847448539541329 0 -1 0 0 0 -1 forward_v I I I I #
coedge $-1 $125 $126 $127 $128 reversed $49 $-1 #
face $-1 $129 $130 $29 $-1 $131 reversed single #
loop $-1 $-1 $132 $51 #
plane-surface $-1 -44.344615009002951 5.6895576250632054 2.7206984551309006 -0.7660444514056185 0 0.64278759981090561 0.64278759981090561 0 0.7660444514056185 forward_v I I I I #
coedge $-1 $133 $134 $135 $136 reversed $52 $-1 #
face $-1 $-1 $137 $30 $-1 $138 forward single #
loop $-1 $139 $140 $54 #
cone-surface $-1 -42.071429991865479 3.6294091957564731 3.6795856047552515 0.7660444514056185 0 -0.64278759981090561 0.080348449976363201 0 0.095755556425702312 1 I I -0.70710678118654746 0.70710678118654746 0.125 forward I I I I #
loop $-1 $-1 $141 $39 #
coedge $-1 $88 $88 $142 $143 reversed $55 $-1 #
face $-1 $-1 $144 $31 $-1 $145 forward single #
loop $-1 $146 $147 $57 #
cone-surface $-1 -42.071429991865479 5.6895576250632054 3.6795856047552515 0.7660444514056185 0 -0.64278759981090561 0.080348449976363201 0 0.095755556425702312 1 I I -0.70710678118654746 0.70710678118654746 0.125 forward I I I I #
loop $-1 $-1 $148 $40 #
coedge $-1 $93 $93 $149 $150 reversed $58 $-1 #
face $-1 $-1 $151 $32 $-1 $152 forward single #
loop $-1 $153 $154 $60 #
cone-surface $-1 -42.071429991865479 7.7497060543699376 3.6795856047552515 0.7660444514056185 0 -0.64278759981090561 0.080348449976363201 0 0.095755556425702312 1 I I -0.70710678118654746 0.70710678118654746 0.125 forward I I I I #
loop $-1 $-1 $155 $41 #
coedge $-1 $98 $98 $156 $157 reversed $61 $-1 #
face $-1 $158 $159 $33 $-1 $160 reversed single #
loop $-1 $-1 $161 $63 #
plane-surface $-1 -23.595276222842735 3.0903670118593212 59.23874675122056 0.64278761758704617 0 0.76604443648966558 0.76604443648966558 0 -0.64278761758704617 forward_v I I I I #
coedge $-1 $162 $163 $164 $165 reversed $64 $-1 #
face $-1 $-1 $166 $34 $-1 $167 forward single #
loop $-1 $168 $169 $66 #
cone-surface $-1 40.012404429266518 0.67492942569420578 1.7317611930735044 -0.64278761758704617 0 -0.76604443648966558 0.38302221824483279 0 -0.32139380879352308 1 I I -0.70710678118654746 0.70710678118654746 0.5 forward I I I I #
loop $-1 $-1 $170 $43 #
coedge $-1 $107 $107 $171 $172 reversed $67 $-1 #
face $-1 $-1 $173 $35 $-1 $174 forward single #
loop $-1 $175 $176 $69 #
cone-surface $-1 40.012404429266518 5.5058045980244401 1.7317611930735044 -0.64278761758704617 0 -0.76604443648966558 0.38302221824483279 0 -0.32139380879352308 1 I I -0.70710678118654746 0.70710678118654746 0.5 forward I I I I #
loop $-1 $-1 $177 $44 #
coedge $-1 $112 $112 $178 $179 reversed $70 $-1 #
face $-1 $180 $181 $27 $-1 $182 reversed single #
loop $-1 $-1 $183 $72 #
plane-surface $-1 0 -21.634222878884867 0 0 1 0 0 0 1 forward_v I I I I #
coedge $-1 $184 $185 $186 $187 forward $73 $-1 #
coedge $-1 $188 $75 $189 $190 forward $46 $-1 #
coedge $-1 $75 $188 $191 $192 forward $46 $-1 #
coedge $-1 $193 $194 $75 $120 reversed $195 $-1 #
edge $-1 $196 -21.634222878884867 $197 21.634222878884867 $119 $198 forward 7 unknown #
face $-1 $199 $200 $28 $-1 $201 reversed single #
loop $-1 $-1 $202 $76 #
plane-surface $-1 -44.344615009002958 0 0 1 0 0 0 0 -1 forward_v I I I I #
coedge $-1 $203 $204 $205 $206 reversed $77 $-1 #
coedge $-1 $207 $79 $208 $209 reversed $49 $-1 #
coedge $-1 $79 $207 $203 $210 forward $49 $-1 #
coedge $-1 $205 $211 $79 $128 forward $212 $-1 #
edge $-1 $213 -11.988634197583382 $214 -7.3025431650195873 $127 $215 forward 7 unknown #
face $-1 $216 $217 $29 $-1 $218 forward single #
loop $-1 $-1 $219 $80 #
plane-surface $-1 -112.284507563733 9.1231383405744264 59.729035747482243 0 -1 0 0.7660444514056185 0 -0.64278759981090561 forward_v I I I I #
coedge $-1 $220 $221 $222 $223 reversed $81 $-1 #
coedge $-1 $134 $83 $224 $225 reversed $52 $-1 #
coedge $-1 $83 $133 $220 $226 reversed $52 $-1 #
coedge $-1 $222 $227 $83 $136 forward $217 $-1 #
edge $-1 $228 11.797638772863543 $229 14.620408791475874 $135 $230 forward 7 unknown #
loop $-1 $-1 $142 $84 #
plane-surface $-1 -44.344615009002951 5.6895576250632054 2.7206984551309006 -0.7660444514056185 0 0.64278759981090561 0.64278759981090561 0 0.7660444514056185 forward_v I I I I #
loop $-1 $-1 $231 $54 #
coedge $-1 $140 $140 $141 $232 reversed $85 $-1 #
coedge $-1 $141 $141 $140 $232 forward $87 $-1 #
coedge $-1 $142 $142 $88 $143 forward $137 $-1 #
edge $-1 $233 0 $233 6.2831853071796004 $142 $234 forward 7 unknown #
loop $-1 $-1 $149 $89 #
plane-surface $-1 -44.344615009002951 5.6895576250632054 2.7206984551309006 -0.7660444514056185 0 0.64278759981090561 0.64278759981090561 0 0.7660444514056185 forward_v I I I I #
loop $-1 $-1 $235 $57 #
coedge $-1 $147 $147 $148 $236 reversed $90 $-1 #
coedge $-1 $148 $148 $147 $236 forward $92 $-1 #
coedge $-1 $149 $149 $93 $150 forward $144 $-1 #
edge $-1 $237 0 $237 6.2831853071796004 $149 $238 forward 7 unknown #
loop $-1 $-1 $156 $94 #
plane-surface $-1 -44.344615009002951 5.6895576250632054 2.7206984551309006 -0.7660444514056185 0 0.64278759981090561 0.64278759981090561 0 0.7660444514056185 forward_v I I I I #
loop $-1 $-1 $239 $60 #
coedge $-1 $154 $154 $155 $240 reversed $95 $-1 #
coedge $-1 $155 $155 $154 $240 forward $97 $-1 #
coedge $-1 $156 $156 $98 $157 forward $151 $-1 #
edge $-1 $241 0 $241 6.2831853071796004 $156 $242 forward 7 unknown #
face $-1 $243 $244 $33 $-1 $245 reversed single #
loop $-1 $-1 $246 $99 #
plane-surface $-1 33.41306264606083 -2.5456540225259516 127.17863798306624 0 1 0 0.64278761758704617 0 0.76604443648966558 forward_v I I I I #
coedge $-1 $247 $248 $249 $250 reversed $100 $-1 #
coedge $-1 $163 $102 $251 $252 reversed $64 $-1 #
coedge $-1 $102 $162 $247 $253 reversed $64 $-1 #
coedge $-1 $249 $254 $102 $165 forward $255 $-1 #
edge $-1 $256 -27.638083685972543 $257 -23.044663849164277 $164 $258 forward 7 unknown #
loop $-1 $-1 $171 $103 #
plane-surface $-1 -23.595276222842735 3.0903670118593212 59.23874675122056 0.64278761758704617 0 0.76604443648966558 0.76604443648966558 0 -0.64278761758704617 forward_v I I I I #
loop $-1 $-1 $259 $66 #
coedge $-1 $169 $169 $170 $260 reversed $104 $-1 #
coedge $-1 $170 $170 $169 $260 forward $106 $-1 #
coedge $-1 $171 $171 $107 $172 forward $166 $-1 #
edge $-1 $261 0 $261 6.2831853071796004 $171 $262 forward 7 unknown #
loop $-1 $-1 $178 $108 #
plane-surface $-1 -23.595276222842735 3.0903670118593212 59.23874675122056 0.64278761758704617 0 0.76604443648966558 0.76604443648966558 0 -0.64278761758704617 forward_v I I I I #
loop $-1 $-1 $263 $69 #
coedge $-1 $176 $176 $177 $264 reversed $109 $-1 #
coedge $-1 $177 $177 $176 $264 forward $111 $-1 #
coedge $-1 $178 $178 $112 $179 forward $173 $-1 #
edge $-1 $265 0 $265 6.2831853071796004 $178 $266 forward 7 unknown #
face $-1 $267 $268 $27 $-1 $269 reversed single #
loop $-1 $-1 $270 $113 #
plane-surface $-1 -44.344615009002958 0 0 1 0 0 0 0 -1 forward_v I I I I #
coedge $-1 $271 $191 $272 $273 forward $114 $-1 #
coedge $-1 $274 $116 $271 $275 forward $73 $-1 #
coedge $-1 $116 $274 $276 $277 forward $73 $-1 #
coedge $-1 $194 $193 $116 $187 reversed $195 $-1 #
edge $-1 $278 -21.634222878884867 $279 21.634222878884867 $186 $280 forward 7 unknown #
coedge $-1 $118 $117 $281 $282 forward $46 $-1 #
coedge $-1 $283 $284 $117 $190 reversed $268 $-1 #
edge $-1 $197 -44.344615009002958 $285 44.344615009002958 $189 $286 forward 7 unknown #
coedge $-1 $183 $287 $118 $192 reversed $114 $-1 #
edge $-1 $288 -44.344615009002958 $196 44.344615009002958 $191 $289 forward 7 unknown #
coedge $-1 $186 $119 $287 $290 forward $195 $-1 #
coedge $-1 $119 $186 $283 $291 reversed $195 $-1 #
loop $-1 $-1 $193 $267 #
vertex $-1 $120 $292 #
vertex $-1 $120 $293 #
straight-curve $-1 44.344615009002958 0 6.0847448539541329 0 1 0 I I #
face $-1 $294 $295 $28 $-1 $296 forward single #
loop $-1 $-1 $208 $121 #
plane-surface $-1 0 -21.634222878884867 0 0 1 0 0 0 1 forward_v I I I I #
coedge $-1 $297 $298 $299 $300 forward $122 $-1 #
coedge $-1 $299 $124 $126 $210 reversed $77 $-1 #
coedge $-1 $124 $299 $301 $302 reversed $77 $-1 #
coedge $-1 $303 $127 $124 $206 forward $212 $-1 #
edge $-1 $214 0.79237242697706645 $304 3.7923724269770664 $205 $305 forward 7 unknown #
coedge $-1 $126 $125 $297 $306 reversed $49 $-1 #
coedge $-1 $307 $308 $125 $209 forward $200 $-1 #
edge $-1 $309 -44.344615009002958 $213 44.344615009002958 $208 $310 forward 7 unknown #
edge $-1 $311 -44.344615009002958 $214 44.344615009002958 $203 $312 forward 7 unknown #
coedge $-1 $127 $303 $307 $313 forward $212 $-1 #
loop $-1 $-1 $205 $294 #
vertex $-1 $209 $314 #
vertex $-1 $128 $315 #
straight-curve $-1 44.344615009002958 -9.6455886813014846 3.0847448539541329 0 1 0 I I #
face $-1 $-1 $316 $29 $-1 $317 reversed single #
loop $-1 $-1 $135 $129 #
plane-surface $-1 0 0 6.0847448539541329 0 0 1 1 0 0 forward_v I I I I #
coedge $-1 $318 $319 $320 $321 reversed $130 $-1 #
coedge $-1 $322 $132 $134 $226 forward $81 $-1 #
coedge $-1 $132 $322 $318 $323 forward $81 $-1 #
coedge $-1 $320 $135 $132 $223 forward $217 $-1 #
edge $-1 $229 -0.58880190297961832 $324 6.2783595280428237 $222 $325 forward 7 unknown #
coedge $-1 $326 $327 $133 $225 forward $316 $-1 #
edge $-1 $328 -27.143819418610228 $228 -23.779773019786987 $224 $329 forward 7 unknown #
edge $-1 $229 -4.3914506431715923 $328 1.1030930024383267e-014 $134 $330 forward 7 unknown #
coedge $-1 $135 $320 $326 $331 forward $217 $-1 #
vertex $-1 $225 $332 #
vertex $-1 $136 $333 #
straight-curve $-1 -56.142253781866501 2.2559769095519844 6.0847448539541347 1 0 0 I I #
coedge $-1 $231 $231 $-1 $334 reversed $139 $-1 #
edge $-1 $335 0 $335 6.2831853071796004 $140 $336 forward 7 unknown #
vertex $-1 $143 $337 #
ellipse-curve $-1 -42.933229999696792 3.6294091957564731 4.4027216545425141 -0.7660444514056185 0 0.64278759981090561 0.1606968999527264 0 0.19151111285140462 1 I I #
coedge $-1 $235 $235 $-1 $338 reversed $146 $-1 #
edge $-1 $339 0 $339 6.2831853071796004 $147 $340 forward 7 unknown #
vertex $-1 $150 $341 #
ellipse-curve $-1 -42.933229999696792 5.6895576250632054 4.4027216545425141 -0.7660444514056185 0 0.64278759981090561 0.1606968999527264 0 0.19151111285140462 1 I I #
coedge $-1 $239 $239 $-1 $342 reversed $153 $-1 #
edge $-1 $343 0 $343 6.2831853071796004 $154 $344 forward 7 unknown #
vertex $-1 $157 $345 #
ellipse-curve $-1 -42.933229999696792 7.7497060543699376 4.4027216545425141 -0.7660444514056185 0 0.64278759981090561 0.1606968999527264 0 0.19151111285140462 1 I I #
face $-1 $-1 $255 $33 $-1 $346 forward single #
loop $-1 $-1 $347 $158 #
plane-surface $-1 44.344615009002958 0 0 -1 0 0 0 0 1 forward_v I I I I #
coedge $-1 $348 $349 $350 $351 reversed $159 $-1 #
coedge $-1 $352 $161 $163 $253 forward $100 $-1 #
coedge $-1 $161 $352 $348 $353 forward $100 $-1 #
coedge $-1 $350 $164 $161 $250 forward $255 $-1 #
edge $-1 $257 -7.1812045403149334 $354 4.0908375284556122 $249 $355 forward 7 unknown #
coedge $-1 $356 $357 $162 $252 forward $244 $-1 #
edge $-1 $358 -61.358911109216137 $256 -57.504574137578985 $251 $359 forward 7 unknown #
edge $-1 $257 82.692946228181384 $358 88.689230018005929 $163 $360 forward 7 unknown #
coedge $-1 $164 $350 $356 $361 forward $255 $-1 #
loop $-1 $-1 $350 $243 #
vertex $-1 $252 $362 #
vertex $-1 $165 $363 #
straight-curve $-1 16.706531323030415 8.726388046244594 6.0847448539541347 -1 0 0 I I #
coedge $-1 $259 $259 $-1 $364 reversed $168 $-1 #
edge $-1 $365 0 $365 6.2831853071796004 $169 $366 forward 7 unknown #
vertex $-1 $172 $367 #
ellipse-curve $-1 42.047905090598817 0.67492942569420578 4.1575763681355644 0.64278761758704617 0 0.76604443648966558 0.76604443648966558 0 -0.64278761758704617 1 I I #
coedge $-1 $263 $263 $-1 $368 reversed $175 $-1 #
edge $-1 $369 0 $369 6.2831853071796004 $176 $370 forward 7 unknown #
vertex $-1 $179 $371 #
ellipse-curve $-1 42.047905090598817 5.5058045980244401 4.1575763681355644 0.64278761758704617 0 0.76604443648966558 0.76604443648966558 0 -0.64278761758704617 1 I I #
face $-1 $-1 $195 $27 $-1 $372 reversed single #
loop $-1 $-1 $283 $180 #
plane-surface $-1 0 21.634222878884867 0 0 -1 0 0 0 -1 forward_v I I I I #
coedge $-1 $373 $281 $284 $374 forward $181 $-1 #
coedge $-1 $287 $183 $184 $275 reversed $114 $-1 #
coedge $-1 $281 $373 $183 $273 reversed $181 $-1 #
edge $-1 $288 -6.0847448539541329 $375 6.0847448539541329 $272 $376 forward 7 unknown #
coedge $-1 $185 $184 $373 $377 forward $73 $-1 #
edge $-1 $279 -44.344615009002958 $375 44.344615009002958 $271 $378 forward 7 unknown #
coedge $-1 $284 $283 $185 $277 reversed $268 $-1 #
edge $-1 $379 -44.344615009002958 $278 44.344615009002958 $276 $380 forward 7 unknown #
vertex $-1 $187 $381 #
vertex $-1 $290 $382 #
straight-curve $-1 44.344615009002958 0 -6.0847448539541329 0 -1 0 I I #
coedge $-1 $270 $272 $188 $282 reversed $181 $-1 #
edge $-1 $285 -21.634222878884867 $288 21.634222878884867 $281 $383 forward 7 unknown #
coedge $-1 $276 $189 $194 $291 forward $268 $-1 #
coedge $-1 $189 $276 $270 $374 reversed $268 $-1 #
vertex $-1 $190 $384 #
straight-curve $-1 0 21.634222878884867 6.0847448539541329 -1 0 0 I I #
coedge $-1 $191 $271 $193 $290 reversed $114 $-1 #
vertex $-1 $282 $385 #
straight-curve $-1 0 -21.634222878884867 6.0847448539541329 1 0 0 I I #
edge $-1 $196 -6.0847448539541329 $279 6.0847448539541329 $193 $386 forward 7 unknown #
edge $-1 $197 -6.0847448539541329 $278 6.0847448539541329 $194 $387 forward 7 unknown #
point $-1 44.344615009002958 -21.634222878884867 6.0847448539541329 #
point $-1 44.344615009002958 21.634222878884867 6.0847448539541329 #
face $-1 $-1 $212 $28 $-1 $388 reversed single #
loop $-1 $-1 $301 $199 #
plane-surface $-1 0 0 6.0847448539541329 0 0 1 1 0 0 forward_v I I I I #
coedge $-1 $389 $202 $207 $306 forward $122 $-1 #
coedge $-1 $202 $389 $390 $391 reversed $122 $-1 #
coedge $-1 $204 $203 $202 $300 reversed $77 $-1 #
edge $-1 $392 -3.7923724269770664 $311 -0.79237242697706645 $202 $393 forward 7 unknown #
coedge $-1 $390 $394 $204 $302 forward $295 $-1 #
edge $-1 $304 -44.344615009002958 $392 44.344615009002958 $301 $395 forward 7 unknown #
coedge $-1 $211 $205 $394 $396 reversed $212 $-1 #
vertex $-1 $206 $397 #
straight-curve $-1 44.344615009002958 -16.948131846321072 2.2923724269770664 0 0 1 I I #
edge $-1 $311 7.3025431650195873 $309 11.988634197583382 $297 $398 forward 7 unknown #
coedge $-1 $399 $208 $211 $313 reversed $200 $-1 #
coedge $-1 $208 $399 $389 $400 forward $200 $-1 #
vertex $-1 $209 $401 #
straight-curve $-1 0 -21.634222878884867 3.0847448539541329 1 0 0 I I #
vertex $-1 $306 $402 #
straight-curve $-1 0 -16.948131846321072 3.0847448539541329 1 0 0 I I #
edge $-1 $403 -6.0847448539541329 $213 -3.0847448539541329 $211 $404 forward 7 unknown #
point $-1 44.344615009002958 -21.634222878884867 3.0847448539541329 #
point $-1 44.344615009002958 -16.948131846321072 3.0847448539541329 #
loop $-1 $-1 $224 $216 #
plane-surface $-1 -44.344615009002958 0 0 1 0 0 0 0 -1 forward_v I I I I #
coedge $-1 $319 $219 $221 $323 reversed $130 $-1 #
coedge $-1 $219 $318 $405 $406 reversed $130 $-1 #
coedge $-1 $227 $222 $219 $321 forward $217 $-1 #
edge $-1 $324 -14.620408791475874 $407 -11.797638772863543 $320 $408 forward 7 unknown #
coedge $-1 $221 $220 $327 $409 reversed $81 $-1 #
edge $-1 $410 -1.1030930024383267e-014 $324 4.3914506431715923 $318 $411 forward 7 unknown #
vertex $-1 $223 $412 #
straight-curve $-1 -41.521844990390619 2.8447788125316027 6.0847448539541329 0 1 0 I I #
coedge $-1 $405 $224 $227 $331 reversed $316 $-1 #
coedge $-1 $224 $405 $322 $409 forward $316 $-1 #
vertex $-1 $225 $413 #
straight-curve $-1 -44.344615009002958 2.2559769095519844 29.864517873741121 0 0 1 I I #
straight-curve $-1 -44.344615009002951 2.2559769095519844 2.7206984551309006 -0.64278759981090561 0 -0.7660444514056185 I I #
edge $-1 $407 -9.1231383405744264 $228 -2.2559769095519844 $326 $414 forward 7 unknown #
point $-1 -44.344615009002958 2.2559769095519844 6.0847448539541329 #
point $-1 -41.521844990390626 2.2559769095519844 6.0847448539541329 #
edge $-1 $415 1 $415 0 $231 $-1 forward 7 unknown #
vertex $-1 $232 $416 #
ellipse-curve $-1 -42.167185548291179 3.6294091957564731 3.7599340547316147 -0.7660444514056185 0 0.64278759981090561 0.1606968999527264 0 0.19151111285140462 1 I I #
point $-1 -42.772533099744074 3.6294091957564731 4.5942327673939252 #
edge $-1 $417 1 $417 0 $235 $-1 forward 7 unknown #
vertex $-1 $236 $418 #
ellipse-curve $-1 -42.167185548291179 5.6895576250632054 3.7599340547316147 -0.7660444514056185 0 0.64278759981090561 0.1606968999527264 0 0.19151111285140462 1 I I #
point $-1 -42.772533099744074 5.6895576250632054 4.5942327673939252 #
edge $-1 $419 1 $419 0 $239 $-1 forward 7 unknown #
vertex $-1 $240 $420 #
ellipse-curve $-1 -42.167185548291179 7.7497060543699376 3.7599340547316147 -0.7660444514056185 0 0.64278759981090561 0.1606968999527264 0 0.19151111285140462 1 I I #
point $-1 -42.772533099744074 7.7497060543699376 4.5942327673939252 #
plane-surface $-1 0 0 6.0847448539541329 0 0 1 1 0 0 forward_v I I I I #
coedge $-1 $357 $356 $349 $421 forward $244 $-1 #
coedge $-1 $349 $246 $248 $353 reversed $159 $-1 #
coedge $-1 $246 $348 $347 $421 reversed $159 $-1 #
coedge $-1 $254 $249 $246 $351 forward $255 $-1 #
edge $-1 $354 23.044663849164277 $422 27.638083685972543 $350 $423 forward 7 unknown #
coedge $-1 $248 $247 $357 $424 reversed $100 $-1 #
edge $-1 $425 -88.689230018005929 $354 -82.692946228181384 $348 $426 forward 7 unknown #
vertex $-1 $250 $427 #
straight-curve $-1 39.751195172194691 1.5451835059296606 6.0847448539541418 0 -1 0 I I #
coedge $-1 $347 $251 $254 $361 reversed $244 $-1 #
coedge $-1 $251 $347 $352 $424 forward $244 $-1 #
vertex $-1 $252 $428 #
straight-curve $-1 44.344615009002958 8.726388046244594 63.589318991533119 0 0 1 I I #
straight-curve $-1 -23.595276222842735 8.726388046244594 59.23874675122056 0.76604443648966558 0 -0.64278761758704617 I I #
edge $-1 $422 -2.5456540225259516 $256 8.726388046244594 $356 $429 forward 7 unknown #
point $-1 44.344615009002958 8.726388046244594 6.0847448539541329 #
point $-1 39.751195172194691 8.726388046244594 6.0847448539541347 #
edge $-1 $430 1 $430 0 $259 $-1 forward 7 unknown #
vertex $-1 $260 $431 #
ellipse-curve $-1 40.333798238060041 0.67492942569420578 2.1147834113183372 0.64278761758704617 0 0.76604443648966558 0.76604443648966558 0 -0.64278761758704617 1 I I #
point $-1 42.813949527088496 0.67492942569420578 3.5147887505485307 #
edge $-1 $432 1 $432 0 $263 $-1 forward 7 unknown #
vertex $-1 $264 $433 #
ellipse-curve $-1 40.333798238060041 5.5058045980244401 2.1147834113183372 0.64278761758704617 0 0.76604443648966558 0.76604443648966558 0 -0.64278761758704617 1 I I #
point $-1 42.813949527088496 5.5058045980244401 3.5147887505485307 #
plane-surface $-1 44.344615009002958 0 0 -1 0 0 0 0 1 forward_v I I I I #
coedge $-1 $272 $270 $274 $377 reversed $181 $-1 #
edge $-1 $285 -6.0847448539541329 $379 6.0847448539541329 $284 $434 forward 7 unknown #
vertex $-1 $377 $435 #
straight-curve $-1 -44.344615009002958 -21.634222878884867 0 0 0 -1 I I #
edge $-1 $375 -21.634222878884867 $379 21.634222878884867 $373 $436 forward 7 unknown #
straight-curve $-1 0 -21.634222878884867 -6.0847448539541329 -1 0 0 I I #
vertex $-1 $277 $437 #
straight-curve $-1 0 21.634222878884867 -6.0847448539541329 1 0 0 I I #
point $-1 44.344615009002958 21.634222878884867 -6.0847448539541329 #
point $-1 44.344615009002958 -21.634222878884867 -6.0847448539541329 #
straight-curve $-1 -44.344615009002958 0 6.0847448539541329 0 -1 0 I I #
point $-1 -44.344615009002958 21.634222878884867 6.0847448539541329 #
point $-1 -44.344615009002958 -21.634222878884867 6.0847448539541329 #
straight-curve $-1 44.344615009002958 -21.634222878884867 0 0 0 -1 I I #
straight-curve $-1 44.344615009002958 21.634222878884867 0 0 0 -1 I I #
plane-surface $-1 44.344615009002958 0 0 -1 0 0 0 0 1 forward_v I I I I #
coedge $-1 $298 $297 $308 $400 reversed $122 $-1 #
coedge $-1 $438 $301 $298 $391 forward $295 $-1 #
edge $-1 $392 16.948131846321072 $439 21.634222878884867 $298 $440 forward 7 unknown #
vertex $-1 $391 $441 #
straight-curve $-1 -44.344615009002958 -16.948131846321072 2.2923724269770664 0 0 -1 I I #
coedge $-1 $301 $438 $303 $396 forward $295 $-1 #
straight-curve $-1 0 -16.948131846321072 6.0847448539541329 -1 0 0 I I #
edge $-1 $403 -21.634222878884867 $304 -16.948131846321072 $303 $442 forward 7 unknown #
point $-1 44.344615009002958 -16.948131846321072 6.0847448539541329 #
straight-curve $-1 -44.344615009002958 -9.6455886813014846 3.0847448539541329 0 -1 0 I I #
coedge $-1 $308 $307 $438 $443 reversed $200 $-1 #
edge $-1 $439 -6.0847448539541329 $309 -3.0847448539541329 $389 $444 forward 7 unknown #
point $-1 -44.344615009002958 -21.634222878884867 3.0847448539541329 #
point $-1 -44.344615009002958 -16.948131846321072 3.0847448539541329 #
vertex $-1 $396 $445 #
straight-curve $-1 44.344615009002958 -21.634222878884867 0 0 0 -1 I I #
coedge $-1 $327 $326 $319 $406 forward $316 $-1 #
edge $-1 $407 23.779773019786987 $410 27.143819418610228 $405 $446 forward 7 unknown #
vertex $-1 $331 $447 #
straight-curve $-1 -56.142253781866501 9.1231383405744264 6.0847448539541347 -1 0 0 I I #
edge $-1 $410 -6.2783595280428237 $328 0.58880190297961832 $327 $448 forward 7 unknown #
vertex $-1 $409 $449 #
straight-curve $-1 -44.344615009002951 9.1231383405744264 2.7206984551309006 0.64278759981090561 0 0.7660444514056185 I I #
point $-1 -41.521844990390626 9.1231383405744264 6.0847448539541329 #
point $-1 -44.344615009002958 2.2559769095519844 2.7206984551308921 #
straight-curve $-1 -44.344615009002958 0 6.0847448539541329 0 -1 0 I I #
vertex $-1 $334 $450 #
point $-1 -42.006488648338454 3.6294091957564731 3.9514451675830191 #
vertex $-1 $338 $451 #
point $-1 -42.006488648338454 5.6895576250632054 3.9514451675830191 #
vertex $-1 $342 $452 #
point $-1 -42.006488648338454 7.7497060543699376 3.9514451675830191 #
edge $-1 $422 57.504574137578985 $425 61.358911109216137 $347 $453 forward 7 unknown #
vertex $-1 $361 $454 #
straight-curve $-1 16.706531323030415 -2.5456540225259516 6.0847448539541347 1 0 0 I I #
edge $-1 $425 -4.0908375284556122 $358 7.1812045403149334 $357 $455 forward 7 unknown #
vertex $-1 $424 $456 #
straight-curve $-1 -23.595276222842735 -2.5456540225259516 59.23874675122056 -0.76604443648966558 0 0.64278761758704617 I I #
point $-1 39.751195172194691 -2.5456540225259516 6.0847448539541347 #
point $-1 44.344615009002958 8.726388046244594 2.2304078823169817 #
straight-curve $-1 44.344615009002958 0 6.0847448539541329 0 1 0 I I #
vertex $-1 $364 $457 #
point $-1 41.099842674549706 0.67492942569420578 1.4719957937312911 #
vertex $-1 $368 $458 #
point $-1 41.099842674549706 5.5058045980244401 1.4719957937312911 #
straight-curve $-1 -44.344615009002958 21.634222878884867 0 0 0 -1 I I #
point $-1 -44.344615009002958 -21.634222878884867 -6.0847448539541329 #
straight-curve $-1 -44.344615009002958 0 -6.0847448539541329 0 1 0 I I #
point $-1 -44.344615009002958 21.634222878884867 -6.0847448539541329 #
coedge $-1 $394 $390 $399 $443 forward $295 $-1 #
vertex $-1 $391 $459 #
straight-curve $-1 -44.344615009002958 0 6.0847448539541329 0 -1 0 I I #
point $-1 -44.344615009002958 -16.948131846321072 6.0847448539541329 #
straight-curve $-1 44.344615009002958 0 6.0847448539541329 0 1 0 I I #
edge $-1 $439 -44.344615009002958 $403 44.344615009002958 $399 $460 forward 7 unknown #
straight-curve $-1 -44.344615009002958 -21.634222878884867 0 0 0 -1 I I #
point $-1 44.344615009002958 -21.634222878884867 6.0847448539541329 #
straight-curve $-1 -44.344615009002958 9.1231383405744264 29.864517873741121 0 0 -1 I I #
point $-1 -44.344615009002958 9.1231383405744264 6.0847448539541329 #
straight-curve $-1 -44.344615009002958 2.8447788125316027 2.7206984551308899 0 -1 0 I I #
point $-1 -44.344615009002958 9.1231383405744264 2.7206984551308921 #
point $-1 -41.975674435439778 3.6294091957564731 3.5992371547788884 #
point $-1 -41.975674435439778 5.6895576250632054 3.5992371547788884 #
point $-1 -41.975674435439778 7.7497060543699376 3.5992371547788884 #
straight-curve $-1 44.344615009002958 -2.5456540225259516 63.589318991533119 0 0 -1 I I #
point $-1 44.344615009002958 -2.5456540225259516 6.0847448539541329 #
straight-curve $-1 44.344615009002958 1.5451835059296606 2.2304078823169853 0 1 0 I I #
point $-1 44.344615009002958 -2.5456540225259516 2.2304078823169817 #
point $-1 39.691010620472994 0.67492942569420578 1.3487389748286716 #
point $-1 39.691010620472994 5.5058045980244401 1.3487389748286716 #
point $-1 -44.344615009002958 -21.634222878884867 6.0847448539541329 #
straight-curve $-1 0 -21.634222878884867 6.0847448539541329 1 0 0 I I #
End-of-ACIS-data 