500 0 8 0           
7 Unknown 11 ACIS 5.0 NT 24 Fri Mar 26 19:55:33 1999 
-1 9.9999999999999995e-007 1e-010 
body $-1 $8 $-1 $9 #
body $-1 $10 $-1 $11 #
body $-1 $12 $-1 $13 #
body $-1 $14 $-1 $15 #
body $-1 $16 $-1 $17 #
body $-1 $18 $-1 $19 #
body $-1 $20 $-1 $21 #
body $-1 $22 $-1 $23 #
lump $-1 $-1 $24 $0 #
transform $-1 1 0 0 0 1 0 0 0 1 75.151219214453562 35.092892397850093 15.548634941289327 1 rotate no_reflect no_shear #
lump $-1 $-1 $25 $1 #
transform $-1 1 0 0 0 1 0 0 0 1 75.151219214453562 35.092892397850093 15.548634941289327 1 rotate no_reflect no_shear #
lump $-1 $-1 $26 $2 #
transform $-1 1 0 0 0 1 0 0 0 1 75.151219214453562 35.092892397850093 15.548634941289327 1 rotate no_reflect no_shear #
lump $-1 $-1 $27 $3 #
transform $-1 1 0 0 0 1 0 0 0 1 75.151219214453562 35.092892397850093 15.548634941289327 1 rotate no_reflect no_shear #
lump $-1 $-1 $28 $4 #
transform $-1 1 0 0 0 1 0 0 0 1 75.151219214453562 35.092892397850093 15.548634941289327 1 rotate no_reflect no_shear #
lump $-1 $-1 $29 $5 #
transform $-1 1 0 0 0 1 0 0 0 1 75.151219214453562 35.092892397850093 15.548634941289327 1 rotate no_reflect no_shear #
lump $-1 $-1 $30 $6 #
transform $-1 1 0 0 0 1 0 0 0 1 75.151219214453562 35.092892397850093 15.548634941289327 1 rotate no_reflect no_shear #
lump $-1 $-1 $31 $7 #
transform $-1 1 0 0 0 1 0 0 0 1 75.151219214453562 35.092892397850093 15.548634941289327 1 rotate no_reflect no_shear #
shell $-1 $-1 $-1 $32 $-1 $8 #
shell $-1 $-1 $-1 $33 $-1 $10 #
shell $-1 $-1 $-1 $34 $-1 $12 #
shell $-1 $-1 $-1 $35 $-1 $14 #
shell $-1 $-1 $-1 $36 $-1 $16 #
shell $-1 $-1 $-1 $37 $-1 $18 #
shell $-1 $-1 $-1 $38 $-1 $20 #
shell $-1 $-1 $-1 $39 $-1 $22 #
face $-1 $40 $41 $24 $-1 $42 forward single #
face $-1 $43 $44 $25 $-1 $45 forward single #
face $-1 $46 $47 $26 $-1 $48 reversed single #
face $-1 $49 $50 $27 $-1 $51 forward single #
face $-1 $52 $53 $28 $-1 $54 reversed single #
face $-1 $55 $56 $29 $-1 $57 forward single #
face $-1 $58 $59 $30 $-1 $60 forward single #
face $-1 $61 $62 $31 $-1 $63 forward single #
face $-1 $64 $65 $24 $-1 $66 reversed single #
loop $-1 $-1 $67 $32 #
plane-surface $-1 0 0 15.548634941289327 0 0 1 1 0 0 forward_v I I I I #
face $-1 $68 $69 $25 $-1 $70 reversed single #
loop $-1 $-1 $71 $33 #
plane-surface $-1 -75.151219214453562 0 0 1 0 0 0 0 -1 forward_v I I I I #
face $-1 $72 $73 $26 $-1 $74 reversed single #
loop $-1 $-1 $75 $34 #
plane-surface $-1 -59.31945647617124 110.32214834111473 152.27999595430103 1 0 0 0 -0.78801076186113728 -0.61566146476048833 forward_v I I I I #
face $-1 $76 $77 $27 $-1 $78 forward single #
loop $-1 $79 $80 $35 #
cone-surface $-1 -49.410928905101891 29.331952299617093 8.8832712283199573 0 -0.78801076186113728 -0.61566146476048833 3 0 0 1 I I 0 1 3 forward I I I I #
face $-1 $81 $82 $28 $-1 $83 reversed single #
loop $-1 $-1 $84 $36 #
plane-surface $-1 21.888522027882367 -139.50174057946259 109.73310797986305 -1 0 0 0 -0.69465837861970381 0.71933979245794832 forward_v I I I I #
face $-1 $85 $86 $29 $-1 $87 forward single #
loop $-1 $88 $89 $37 #
cone-surface $-1 -2.1616488091591037 -26.417289882810454 7.0686618408773203 0 0.69465837861970381 -0.71933979245794832 2 0 0 1 I I 0 1 2 forward I I I I #
face $-1 $90 $91 $30 $-1 $92 forward single #
loop $-1 $93 $94 $38 #
cone-surface $-1 6.8571652547314415 -26.417289882810454 7.0686618408773203 0 0.69465837861970381 -0.71933979245794832 2 0 0 1 I I 0 1 2 forward I I I I #
face $-1 $95 $96 $31 $-1 $97 forward single #
loop $-1 $98 $99 $39 #
cone-surface $-1 15.875979318621987 -26.417289882810454 7.0686618408773203 0 0.69465837861970381 -0.71933979245794832 2 0 0 1 I I 0 1 2 forward I I I I #
face $-1 $100 $101 $24 $-1 $102 reversed single #
loop $-1 $-1 $103 $40 #
plane-surface $-1 0 0 -15.548634941289327 0 0 1 1 0 0 forward_v I I I I #
coedge $-1 $104 $105 $106 $107 forward $41 $-1 #
face $-1 $108 $109 $25 $-1 $110 reversed single #
loop $-1 $-1 $111 $43 #
plane-surface $-1 0 0 -15.548634941289327 0 0 1 1 0 0 forward_v I I I I #
coedge $-1 $112 $113 $114 $115 forward $44 $-1 #
face $-1 $116 $117 $26 $-1 $118 reversed single #
loop $-1 $-1 $119 $46 #
plane-surface $-1 -49.410928905101898 -8.1177906748350495 59.744576554086962 0 0.78801076186113728 0.61566146476048833 1 0 0 forward_v I I I I #
coedge $-1 $120 $121 $122 $123 reversed $47 $-1 #
face $-1 $-1 $124 $27 $-1 $125 forward single #
loop $-1 $126 $127 $49 #
cone-surface $-1 -49.410928905101891 26.729511106055824 6.8500213861518038 0 -0.78801076186113728 -0.61566146476048833 1.5 0 0 1 I I -0.70710678118654757 0.70710678118654757 1.5 forward I I I I #
loop $-1 $-1 $128 $35 #
coedge $-1 $80 $80 $129 $130 reversed $50 $-1 #
face $-1 $131 $132 $28 $-1 $133 reversed single #
loop $-1 $-1 $134 $52 #
plane-surface $-1 6.8571652547314557 -35.092892397850107 1.6145831144894487 0 -0.69465837861970381 0.71933979245794832 1 0 0 forward_v I I I I #
coedge $-1 $135 $136 $137 $138 reversed $53 $-1 #
face $-1 $-1 $139 $29 $-1 $140 forward single #
loop $-1 $141 $142 $55 #
cone-surface $-1 -2.1616488091591037 -24.261595355646968 4.8363748614073057 0 0.69465837861970381 -0.71933979245794832 1 0 0 1 I I -0.70710678118654746 0.70710678118654746 1 forward I I I I #
loop $-1 $-1 $143 $37 #
coedge $-1 $89 $89 $144 $145 reversed $56 $-1 #
face $-1 $-1 $146 $30 $-1 $147 forward single #
loop $-1 $148 $149 $58 #
cone-surface $-1 6.8571652547314415 -24.261595355646968 4.8363748614073057 0 0.69465837861970381 -0.71933979245794832 1 0 0 1 I I -0.70710678118654746 0.70710678118654746 1 forward I I I I #
loop $-1 $-1 $150 $38 #
coedge $-1 $94 $94 $151 $152 reversed $59 $-1 #
face $-1 $-1 $153 $31 $-1 $154 forward single #
loop $-1 $155 $156 $61 #
cone-surface $-1 15.875979318621987 -24.261595355646968 4.8363748614073057 0 0.69465837861970381 -0.71933979245794832 1 0 0 1 I I -0.70710678118654746 0.70710678118654746 1 forward I I I I #
loop $-1 $-1 $157 $39 #
coedge $-1 $99 $99 $158 $159 reversed $62 $-1 #
face $-1 $160 $161 $24 $-1 $162 reversed single #
loop $-1 $-1 $163 $64 #
plane-surface $-1 0 -35.092892397850093 0 0 1 0 0 0 1 forward_v I I I I #
coedge $-1 $164 $165 $166 $167 forward $65 $-1 #
coedge $-1 $168 $67 $169 $170 forward $41 $-1 #
coedge $-1 $67 $168 $171 $172 forward $41 $-1 #
coedge $-1 $173 $174 $67 $107 reversed $175 $-1 #
edge $-1 $176 -35.092892397850093 $177 35.092892397850093 $106 $178 forward 7 unknown #
face $-1 $179 $180 $25 $-1 $181 reversed single #
loop $-1 $-1 $182 $68 #
plane-surface $-1 -83.067100583594723 -13.950890788965879 0 0 1 0 0 0 1 forward_v I I I I #
coedge $-1 $183 $184 $113 $185 forward $69 $-1 #
coedge $-1 $186 $71 $187 $188 reversed $44 $-1 #
coedge $-1 $71 $186 $111 $185 reversed $44 $-1 #
coedge $-1 $189 $190 $71 $115 reversed $191 $-1 #
edge $-1 $192 -15.548634941289327 $193 15.548634941289327 $114 $194 forward 7 unknown #
face $-1 $195 $196 $26 $-1 $197 forward single #
loop $-1 $-1 $198 $72 #
plane-surface $-1 -39.502401334032555 110.32214834111473 152.27999595430103 -1 0 0 0 0.78801076186113728 0.61566146476048833 forward_v I I I I #
coedge $-1 $199 $200 $201 $202 reversed $73 $-1 #
coedge $-1 $121 $75 $203 $204 reversed $47 $-1 #
coedge $-1 $75 $120 $199 $205 reversed $47 $-1 #
coedge $-1 $201 $206 $75 $123 forward $196 $-1 #
edge $-1 $207 20.06818177270727 $208 28.749211867634109 $122 $209 forward 7 unknown #
loop $-1 $-1 $129 $76 #
plane-surface $-1 -49.410928905101898 -8.1177906748350495 59.744576554086962 0 0.78801076186113728 0.61566146476048833 1 0 0 forward_v I I I I #
loop $-1 $-1 $210 $49 #
coedge $-1 $127 $127 $128 $211 reversed $77 $-1 #
coedge $-1 $128 $128 $127 $211 forward $79 $-1 #
coedge $-1 $129 $129 $80 $130 forward $124 $-1 #
edge $-1 $212 -4.960573945650075e-016 $212 6.2831853071795996 $129 $213 forward 7 unknown #
face $-1 $214 $215 $28 $-1 $216 forward single #
loop $-1 $-1 $217 $81 #
plane-surface $-1 -8.1741915184194553 -139.50174057946259 109.73310797986305 1 0 0 0 0.69465837861970381 -0.71933979245794832 forward_v I I I I #
coedge $-1 $218 $219 $220 $221 reversed $82 $-1 #
coedge $-1 $136 $84 $222 $223 reversed $53 $-1 #
coedge $-1 $84 $135 $218 $224 reversed $53 $-1 #
coedge $-1 $220 $225 $84 $138 forward $215 $-1 #
edge $-1 $226 34.657977891881202 $227 49.087110624872906 $137 $228 forward 7 unknown #
loop $-1 $-1 $144 $85 #
plane-surface $-1 6.8571652547314557 -35.092892397850107 1.6145831144894487 0 -0.69465837861970381 0.71933979245794832 1 0 0 forward_v I I I I #
loop $-1 $-1 $229 $55 #
coedge $-1 $142 $142 $143 $230 reversed $86 $-1 #
coedge $-1 $143 $143 $142 $230 forward $88 $-1 #
coedge $-1 $144 $144 $89 $145 forward $139 $-1 #
edge $-1 $231 1.9824707376946005e-015 $231 6.2831853071796022 $144 $232 forward 7 unknown #
loop $-1 $-1 $151 $90 #
plane-surface $-1 6.8571652547314557 -35.092892397850107 1.6145831144894487 0 -0.69465837861970381 0.71933979245794832 1 0 0 forward_v I I I I #
loop $-1 $-1 $233 $58 #
coedge $-1 $149 $149 $150 $234 reversed $91 $-1 #
coedge $-1 $150 $150 $149 $234 forward $93 $-1 #
coedge $-1 $151 $151 $94 $152 forward $146 $-1 #
edge $-1 $235 1.9824707376946005e-015 $235 6.2831853071796022 $151 $236 forward 7 unknown #
loop $-1 $-1 $158 $95 #
plane-surface $-1 6.8571652547314557 -35.092892397850107 1.6145831144894487 0 -0.69465837861970381 0.71933979245794832 1 0 0 forward_v I I I I #
loop $-1 $-1 $237 $61 #
coedge $-1 $156 $156 $157 $238 reversed $96 $-1 #
coedge $-1 $157 $157 $156 $238 forward $98 $-1 #
coedge $-1 $158 $158 $99 $159 forward $153 $-1 #
edge $-1 $239 1.9824707376946005e-015 $239 6.2831853071796022 $158 $240 forward 7 unknown #
face $-1 $241 $242 $24 $-1 $243 reversed single #
loop $-1 $-1 $244 $100 #
plane-surface $-1 -75.151219214453562 0 0 1 0 0 0 0 -1 forward_v I I I I #
coedge $-1 $245 $171 $246 $247 forward $101 $-1 #
coedge $-1 $248 $103 $245 $249 forward $65 $-1 #
coedge $-1 $103 $248 $250 $251 forward $65 $-1 #
coedge $-1 $174 $173 $103 $167 reversed $175 $-1 #
edge $-1 $252 -35.092892397850093 $253 35.092892397850093 $166 $254 forward 7 unknown #
coedge $-1 $105 $104 $255 $256 forward $41 $-1 #
coedge $-1 $257 $258 $104 $170 reversed $242 $-1 #
edge $-1 $177 -75.151219214453562 $259 75.151219214453562 $169 $260 forward 7 unknown #
coedge $-1 $163 $261 $105 $172 reversed $101 $-1 #
edge $-1 $262 -75.151219214453562 $176 75.151219214453562 $171 $263 forward 7 unknown #
coedge $-1 $166 $106 $261 $264 forward $175 $-1 #
coedge $-1 $106 $166 $257 $265 reversed $175 $-1 #
loop $-1 $-1 $173 $241 #
vertex $-1 $107 $266 #
vertex $-1 $107 $267 #
straight-curve $-1 75.151219214453562 0 15.548634941289327 0 1 0 I I #
face $-1 $268 $191 $25 $-1 $269 reversed single #
loop $-1 $-1 $270 $108 #
plane-surface $-1 -90.982981952735884 -9.3556753005796445 0 1 0 0 0 0 -1 forward_v I I I I #
coedge $-1 $271 $272 $273 $274 forward $109 $-1 #
coedge $-1 $275 $111 $271 $276 forward $69 $-1 #
coedge $-1 $111 $275 $189 $277 forward $69 $-1 #
edge $-1 $192 4.7604598121934103 $278 13.950890788965879 $111 $279 forward 7 unknown #
coedge $-1 $113 $112 $280 $281 forward $44 $-1 #
coedge $-1 $282 $283 $112 $188 forward $284 $-1 #
edge $-1 $285 -13.950890788965879 $193 -4.7604598121934103 $187 $286 forward 7 unknown #
coedge $-1 $287 $114 $184 $277 reversed $191 $-1 #
coedge $-1 $114 $287 $282 $288 reversed $191 $-1 #
loop $-1 $-1 $114 $179 #
vertex $-1 $185 $289 #
vertex $-1 $288 $290 #
straight-curve $-1 -75.151219214453562 -4.7604598121934103 0 0 0 1 I I #
face $-1 $-1 $291 $26 $-1 $292 reversed single #
loop $-1 $-1 $122 $116 #
plane-surface $-1 0 0 15.548634941289327 0 0 1 1 0 0 forward_v I I I I #
coedge $-1 $293 $294 $295 $296 reversed $117 $-1 #
coedge $-1 $297 $119 $121 $205 forward $73 $-1 #
coedge $-1 $119 $297 $293 $298 forward $73 $-1 #
coedge $-1 $295 $122 $119 $202 forward $196 $-1 #
edge $-1 $208 -34.613992023620291 $299 -14.796936881481606 $201 $300 forward 7 unknown #
coedge $-1 $301 $302 $120 $204 forward $291 $-1 #
edge $-1 $303 -71.702575171745025 $207 -60.591363035861185 $203 $304 forward 7 unknown #
edge $-1 $208 56.085454351429036 $303 70.185784795700116 $121 $305 forward 7 unknown #
coedge $-1 $122 $295 $301 $306 forward $196 $-1 #
vertex $-1 $204 $307 #
vertex $-1 $123 $308 #
straight-curve $-1 -59.31945647617124 55.161074170557363 15.548634941289322 0 -1 0 I I #
coedge $-1 $210 $210 $-1 $309 reversed $126 $-1 #
edge $-1 $310 0 $310 6.2831853071796004 $127 $311 forward 7 unknown #
vertex $-1 $130 $312 #
ellipse-curve $-1 -49.410928905101891 30.752377350386684 9.9930288733474004 0 0.78801076186113728 0.61566146476048833 3 0 0 1 I I #
face $-1 $-1 $313 $28 $-1 $314 reversed single #
loop $-1 $-1 $137 $131 #
plane-surface $-1 0 0 15.548634941289327 0 0 1 1 0 0 forward_v I I I I #
coedge $-1 $315 $316 $317 $318 reversed $132 $-1 #
coedge $-1 $319 $134 $136 $224 forward $82 $-1 #
coedge $-1 $134 $319 $315 $320 forward $82 $-1 #
coedge $-1 $317 $137 $134 $221 forward $215 $-1 #
edge $-1 $227 -18.459939400516639 $321 11.602774145785183 $220 $322 forward 7 unknown #
coedge $-1 $323 $324 $135 $223 forward $313 $-1 #
edge $-1 $325 -53.251970875442062 $226 -39.317919048642196 $222 $326 forward 7 unknown #
edge $-1 $227 -20.058855195106176 $325 -1.9785632286268914e-014 $136 $327 forward 7 unknown #
coedge $-1 $137 $317 $323 $328 forward $215 $-1 #
vertex $-1 $138 $329 #
vertex $-1 $138 $330 #
straight-curve $-1 21.888522027882367 -69.750870289731296 15.548634941289329 0 1 0 I I #
coedge $-1 $229 $229 $-1 $331 reversed $141 $-1 #
edge $-1 $332 0 $332 6.2831853071796004 $142 $333 forward 7 unknown #
vertex $-1 $145 $334 #
ellipse-curve $-1 -2.1616488091591037 -27.878326031354245 8.5816090278893942 0 -0.69465837861970381 0.71933979245794832 2 0 0 1 I I #
coedge $-1 $233 $233 $-1 $335 reversed $148 $-1 #
edge $-1 $336 0 $336 6.2831853071796004 $149 $337 forward 7 unknown #
vertex $-1 $152 $338 #
ellipse-curve $-1 6.8571652547314415 -27.878326031354245 8.5816090278893942 0 -0.69465837861970381 0.71933979245794832 2 0 0 1 I I #
coedge $-1 $237 $237 $-1 $339 reversed $155 $-1 #
edge $-1 $340 0 $340 6.2831853071796004 $156 $341 forward 7 unknown #
vertex $-1 $159 $342 #
ellipse-curve $-1 15.875979318621987 -27.878326031354245 8.5816090278893942 0 -0.69465837861970381 0.71933979245794832 2 0 0 1 I I #
face $-1 $-1 $175 $24 $-1 $343 reversed single #
loop $-1 $-1 $257 $160 #
plane-surface $-1 0 35.092892397850093 0 0 -1 0 0 0 -1 forward_v I I I I #
coedge $-1 $344 $255 $258 $345 forward $161 $-1 #
coedge $-1 $261 $163 $164 $249 reversed $101 $-1 #
coedge $-1 $255 $344 $163 $247 reversed $161 $-1 #
edge $-1 $262 -15.548634941289327 $346 15.548634941289327 $246 $347 forward 7 unknown #
coedge $-1 $165 $164 $344 $348 forward $65 $-1 #
edge $-1 $253 -75.151219214453562 $346 75.151219214453562 $245 $349 forward 7 unknown #
coedge $-1 $258 $257 $165 $251 reversed $242 $-1 #
edge $-1 $350 -75.151219214453562 $252 75.151219214453562 $250 $351 forward 7 unknown #
vertex $-1 $167 $352 #
vertex $-1 $264 $353 #
straight-curve $-1 75.151219214453562 0 -15.548634941289327 0 -1 0 I I #
coedge $-1 $244 $246 $168 $256 reversed $161 $-1 #
edge $-1 $259 -35.092892397850093 $262 35.092892397850093 $255 $354 forward 7 unknown #
coedge $-1 $250 $169 $174 $265 forward $242 $-1 #
coedge $-1 $169 $250 $244 $345 reversed $242 $-1 #
vertex $-1 $170 $355 #
straight-curve $-1 0 35.092892397850093 15.548634941289327 -1 0 0 I I #
coedge $-1 $171 $245 $173 $264 reversed $101 $-1 #
vertex $-1 $256 $356 #
straight-curve $-1 0 -35.092892397850093 15.548634941289327 1 0 0 I I #
edge $-1 $176 -15.548634941289327 $253 15.548634941289327 $173 $357 forward 7 unknown #
edge $-1 $177 -15.548634941289327 $252 15.548634941289327 $174 $358 forward 7 unknown #
point $-1 75.151219214453562 -35.092892397850093 15.548634941289327 #
point $-1 75.151219214453562 35.092892397850093 15.548634941289327 #
face $-1 $-1 $284 $25 $-1 $359 forward single #
plane-surface $-1 -83.067100583594723 -4.7604598121934103 0 0 -1 0 0 0 -1 forward_v I I I I #
coedge $-1 $360 $361 $287 $362 forward $180 $-1 #
coedge $-1 $280 $182 $183 $276 reversed $109 $-1 #
coedge $-1 $182 $280 $283 $363 reversed $109 $-1 #
coedge $-1 $361 $360 $182 $274 reversed $180 $-1 #
edge $-1 $364 -15.548634941289327 $365 15.548634941289327 $273 $366 forward 7 unknown #
coedge $-1 $184 $183 $360 $367 forward $69 $-1 #
edge $-1 $278 -7.9158813691411609 $365 7.9158813691411609 $271 $368 forward 7 unknown #
edge $-1 $369 -7.9158813691411609 $192 7.9158813691411609 $189 $370 forward 7 unknown #
vertex $-1 $276 $371 #
straight-curve $-1 -75.151219214453562 0 -15.548634941289327 0 -1 0 I I #
coedge $-1 $272 $271 $186 $281 reversed $109 $-1 #
edge $-1 $285 -15.548634941289327 $278 15.548634941289327 $280 $372 forward 7 unknown #
coedge $-1 $373 $187 $190 $288 forward $284 $-1 #
coedge $-1 $187 $373 $272 $363 forward $284 $-1 #
loop $-1 $-1 $187 $268 #
vertex $-1 $188 $374 #
straight-curve $-1 -75.151219214453562 0 15.548634941289327 0 1 0 I I #
coedge $-1 $190 $189 $270 $362 reversed $191 $-1 #
edge $-1 $193 -7.9158813691411609 $375 7.9158813691411609 $190 $376 forward 7 unknown #
point $-1 -75.151219214453562 -4.7604598121934103 -15.548634941289327 #
point $-1 -75.151219214453562 -4.7604598121934103 15.548634941289327 #
loop $-1 $-1 $203 $195 #
plane-surface $-1 0 35.092892397850093 0 0 -1 0 0 0 -1 forward_v I I I I #
coedge $-1 $294 $198 $200 $298 reversed $117 $-1 #
coedge $-1 $198 $293 $377 $378 reversed $117 $-1 #
coedge $-1 $206 $201 $198 $296 forward $196 $-1 #
edge $-1 $299 -28.749211867634109 $379 -20.06818177270727 $295 $380 forward 7 unknown #
coedge $-1 $200 $199 $302 $381 reversed $73 $-1 #
edge $-1 $382 -70.185784795700116 $299 -56.085454351429036 $293 $383 forward 7 unknown #
vertex $-1 $202 $384 #
straight-curve $-1 -24.705464452550949 26.411862302923254 15.548634941289333 1 0 0 I I #
coedge $-1 $377 $203 $206 $306 reversed $291 $-1 #
coedge $-1 $203 $377 $297 $381 forward $291 $-1 #
vertex $-1 $204 $385 #
straight-curve $-1 -59.31945647617124 35.092892397850093 76.139997977150514 0 0 1 I I #
straight-curve $-1 -59.31945647617124 -8.1177906748350495 59.744576554086962 0 0.61566146476048833 -0.78801076186113728 I I #
edge $-1 $379 39.502401334032555 $207 59.31945647617124 $301 $386 forward 7 unknown #
point $-1 -59.31945647617124 35.092892397850093 15.548634941289327 #
point $-1 -59.31945647617124 26.411862302923254 15.548634941289329 #
edge $-1 $387 1 $387 0 $210 $-1 forward 7 unknown #
vertex $-1 $211 $388 #
ellipse-curve $-1 -49.410928905101891 27.911527248847531 7.7735135832925364 0 0.78801076186113728 0.61566146476048833 3 0 0 1 I I #
point $-1 -46.410928905101891 30.752377350386652 9.9930288733473773 #
loop $-1 $-1 $222 $214 #
plane-surface $-1 0 -35.092892397850093 0 0 1 0 0 0 1 forward_v I I I I #
coedge $-1 $316 $217 $219 $320 reversed $132 $-1 #
coedge $-1 $217 $315 $389 $390 reversed $132 $-1 #
coedge $-1 $225 $220 $217 $318 forward $215 $-1 #
edge $-1 $321 -49.087110624872906 $391 -34.657977891881202 $317 $392 forward 7 unknown #
coedge $-1 $219 $218 $324 $393 reversed $82 $-1 #
edge $-1 $394 1.9785632286268914e-014 $321 20.058855195106176 $315 $395 forward 7 unknown #
vertex $-1 $221 $396 #
straight-curve $-1 3.4285826273657278 -20.663759664858393 15.548634941289327 -1 0 0 I I #
coedge $-1 $389 $222 $225 $328 reversed $313 $-1 #
coedge $-1 $222 $389 $319 $393 forward $313 $-1 #
vertex $-1 $223 $397 #
straight-curve $-1 21.888522027882367 -35.092892397850093 54.866553989931525 0 0 1 I I #
straight-curve $-1 21.888522027882367 -35.092892397850107 1.6145831144894487 0 -0.71933979245794832 -0.69465837861970381 I I #
edge $-1 $391 -8.1741915184194553 $226 21.888522027882367 $323 $398 forward 7 unknown #
point $-1 21.888522027882367 -35.092892397850093 15.548634941289327 #
point $-1 21.888522027882367 -20.663759664858393 15.548634941289327 #
edge $-1 $399 1 $399 0 $229 $-1 forward 7 unknown #
vertex $-1 $230 $400 #
ellipse-curve $-1 -2.1616488091591037 -24.956253734266671 5.5557146538652535 0 -0.69465837861970381 0.71933979245794832 2 0 0 1 I I #
point $-1 -0.16164880915910373 -27.878326031354234 8.5816090278893888 #
edge $-1 $401 1 $401 0 $233 $-1 forward 7 unknown #
vertex $-1 $234 $402 #
ellipse-curve $-1 6.8571652547314415 -24.956253734266671 5.5557146538652535 0 -0.69465837861970381 0.71933979245794832 2 0 0 1 I I #
point $-1 8.8571652547314415 -27.878326031354234 8.5816090278893888 #
edge $-1 $403 1 $403 0 $237 $-1 forward 7 unknown #
vertex $-1 $238 $404 #
ellipse-curve $-1 15.875979318621987 -24.956253734266671 5.5557146538652535 0 -0.69465837861970381 0.71933979245794832 2 0 0 1 I I #
point $-1 17.875979318621987 -27.878326031354234 8.5816090278893888 #
plane-surface $-1 75.151219214453562 0 0 -1 0 0 0 0 1 forward_v I I I I #
coedge $-1 $246 $244 $248 $348 reversed $161 $-1 #
edge $-1 $259 -15.548634941289327 $350 15.548634941289327 $258 $405 forward 7 unknown #
vertex $-1 $348 $406 #
straight-curve $-1 -75.151219214453562 -35.092892397850093 0 0 0 -1 I I #
edge $-1 $346 -35.092892397850093 $350 35.092892397850093 $344 $407 forward 7 unknown #
straight-curve $-1 0 -35.092892397850093 -15.548634941289327 -1 0 0 I I #
vertex $-1 $251 $408 #
straight-curve $-1 0 35.092892397850093 -15.548634941289327 1 0 0 I I #
point $-1 75.151219214453562 35.092892397850093 -15.548634941289327 #
point $-1 75.151219214453562 -35.092892397850093 -15.548634941289327 #
straight-curve $-1 -75.151219214453562 0 15.548634941289327 0 -1 0 I I #
point $-1 -75.151219214453562 35.092892397850093 15.548634941289327 #
point $-1 -75.151219214453562 -35.092892397850093 15.548634941289327 #
straight-curve $-1 75.151219214453562 -35.092892397850093 0 0 0 -1 I I #
straight-curve $-1 75.151219214453562 35.092892397850093 0 0 0 -1 I I #
plane-surface $-1 0 0 15.548634941289327 0 0 1 1 0 0 forward_v I I I I #
coedge $-1 $273 $270 $275 $367 reversed $180 $-1 #
coedge $-1 $270 $273 $373 $409 reversed $180 $-1 #
edge $-1 $375 -15.548634941289327 $369 15.548634941289327 $287 $410 forward 7 unknown #
edge $-1 $364 -7.9158813691411609 $285 7.9158813691411609 $272 $411 forward 7 unknown #
vertex $-1 $409 $412 #
vertex $-1 $367 $413 #
straight-curve $-1 -90.982981952735884 -13.950890788965879 0 0 0 -1 I I #
edge $-1 $365 -4.5952154883862342 $369 4.5952154883862342 $360 $414 forward 7 unknown #
straight-curve $-1 -83.067100583594723 -13.950890788965879 -15.548634941289327 -1 0 0 I I #
vertex $-1 $277 $415 #
straight-curve $-1 -83.067100583594723 -4.7604598121934103 -15.548634941289327 1 0 0 I I #
point $-1 -75.151219214453562 -13.950890788965879 -15.548634941289327 #
straight-curve $-1 -75.151219214453562 -13.950890788965879 0 0 0 -1 I I #
coedge $-1 $283 $282 $361 $409 forward $284 $-1 #
point $-1 -75.151219214453562 -13.950890788965879 15.548634941289327 #
vertex $-1 $288 $416 #
straight-curve $-1 -83.067100583594723 -4.7604598121934103 15.548634941289327 -1 0 0 I I #
coedge $-1 $302 $301 $294 $378 forward $291 $-1 #
edge $-1 $379 60.591363035861185 $382 71.702575171745025 $377 $417 forward 7 unknown #
vertex $-1 $306 $418 #
straight-curve $-1 -39.502401334032555 55.161074170557363 15.548634941289322 0 1 0 I I #
edge $-1 $382 14.796936881481606 $303 34.613992023620291 $302 $419 forward 7 unknown #
vertex $-1 $381 $420 #
straight-curve $-1 -39.502401334032555 -8.1177906748350495 59.744576554086962 0 -0.61566146476048833 0.78801076186113728 I I #
point $-1 -39.502401334032555 26.411862302923254 15.548634941289329 #
point $-1 -59.31945647617124 35.092892397850093 4.4374228054054896 #
straight-curve $-1 0 35.092892397850093 15.548634941289327 -1 0 0 I I #
vertex $-1 $309 $421 #
point $-1 -46.410928905101891 27.911527248847531 7.7735135832925364 #
coedge $-1 $324 $323 $316 $390 forward $313 $-1 #
edge $-1 $391 39.317919048642196 $394 53.251970875442062 $389 $422 forward 7 unknown #
vertex $-1 $328 $423 #
straight-curve $-1 -8.1741915184194553 -69.750870289731296 15.548634941289329 0 -1 0 I I #
edge $-1 $394 -11.602774145785183 $325 18.459939400516639 $324 $424 forward 7 unknown #
vertex $-1 $393 $425 #
straight-curve $-1 -8.1741915184194553 -35.092892397850107 1.6145831144894487 0 0.71933979245794832 0.69465837861970381 I I #
point $-1 -8.1741915184194553 -20.663759664858393 15.548634941289327 #
point $-1 21.888522027882367 -35.092892397850093 1.6145831144894625 #
straight-curve $-1 0 -35.092892397850093 15.548634941289327 1 0 0 I I #
vertex $-1 $331 $426 #
point $-1 -0.16164880915910373 -24.956253734266671 5.5557146538652535 #
vertex $-1 $335 $427 #
point $-1 8.8571652547314415 -24.956253734266671 5.5557146538652535 #
vertex $-1 $339 $428 #
point $-1 17.875979318621987 -24.956253734266671 5.5557146538652535 #
straight-curve $-1 -75.151219214453562 35.092892397850093 0 0 0 -1 I I #
point $-1 -75.151219214453562 -35.092892397850093 -15.548634941289327 #
straight-curve $-1 -75.151219214453562 0 -15.548634941289327 0 1 0 I I #
point $-1 -75.151219214453562 35.092892397850093 -15.548634941289327 #
edge $-1 $375 -4.5952154883862342 $364 4.5952154883862342 $361 $429 forward 7 unknown #
straight-curve $-1 -90.982981952735884 -4.7604598121934103 0 0 0 -1 I I #
straight-curve $-1 -83.067100583594723 -13.950890788965879 15.548634941289327 1 0 0 I I #
point $-1 -90.982981952735884 -13.950890788965879 15.548634941289327 #
point $-1 -90.982981952735884 -13.950890788965879 -15.548634941289327 #
straight-curve $-1 -90.982981952735884 -9.3556753005796445 -15.548634941289327 0 1 0 I I #
point $-1 -90.982981952735884 -4.7604598121934103 -15.548634941289327 #
point $-1 -90.982981952735884 -4.7604598121934103 15.548634941289327 #
straight-curve $-1 -39.502401334032555 35.092892397850093 76.139997977150514 0 0 -1 I I #
point $-1 -39.502401334032555 35.092892397850093 15.548634941289327 #
straight-curve $-1 -24.705464452550949 35.092892397850093 4.4374228054054861 -1 0 0 I I #
point $-1 -39.502401334032555 35.092892397850093 4.4374228054054896 #
point $-1 -49.410928905101891 25.547494963264118 5.9265291890110712 #
straight-curve $-1 -8.1741915184194553 -35.092892397850093 54.866553989931525 0 0 -1 I I #
point $-1 -8.1741915184194553 -35.092892397850093 15.548634941289327 #
straight-curve $-1 3.4285826273657278 -35.092892397850093 1.6145831144894629 1 0 0 I I #
point $-1 -8.1741915184194553 -35.092892397850093 1.6145831144894625 #
point $-1 -2.1616488091591037 -23.566936977027265 4.1170350689493578 #
point $-1 6.8571652547314415 -23.566936977027265 4.1170350689493578 #
point $-1 15.875979318621987 -23.566936977027265 4.1170350689493578 #
straight-curve $-1 -90.982981952735884 -9.3556753005796445 15.548634941289327 0 -1 0 I I #
End-of-ACIS-data 