500 0 19 0           
7 Unknown 11 ACIS 5.0 NT 24 Thu Mar 25 23:42:29 1999 
-1 9.9999999999999995e-007 1e-010 
body $-1 $19 $-1 $20 #
body $-1 $21 $-1 $22 #
body $-1 $23 $-1 $24 #
body $-1 $25 $-1 $26 #
body $-1 $27 $-1 $28 #
body $-1 $29 $-1 $30 #
body $-1 $31 $-1 $32 #
body $-1 $33 $-1 $34 #
body $-1 $35 $-1 $36 #
body $-1 $37 $-1 $38 #
body $-1 $39 $-1 $40 #
body $-1 $41 $-1 $42 #
body $-1 $43 $-1 $44 #
body $-1 $45 $-1 $46 #
body $-1 $47 $-1 $48 #
body $-1 $49 $-1 $50 #
body $-1 $51 $-1 $52 #
body $-1 $53 $-1 $54 #
body $-1 $55 $-1 $56 #
lump $-1 $-1 $57 $0 #
transform $-1 1 0 0 0 1 0 0 0 1 46.336863307596055 30.104607710117733 10.648929611672157 1 rotate no_reflect no_shear #
lump $-1 $-1 $58 $1 #
transform $-1 1 0 0 0 1 0 0 0 1 46.336863307596055 30.104607710117733 10.648929611672157 1 rotate no_reflect no_shear #
lump $-1 $-1 $59 $2 #
transform $-1 1 0 0 0 1 0 0 0 1 46.336863307596055 30.104607710117733 10.648929611672157 1 rotate no_reflect no_shear #
lump $-1 $-1 $60 $3 #
transform $-1 1 0 0 0 1 0 0 0 1 46.336863307596055 30.104607710117733 10.648929611672157 1 rotate no_reflect no_shear #
lump $-1 $-1 $61 $4 #
transform $-1 1 0 0 0 1 0 0 0 1 46.336863307596055 30.104607710117733 10.648929611672157 1 rotate no_reflect no_shear #
lump $-1 $-1 $62 $5 #
transform $-1 1 0 0 0 1 0 0 0 1 46.336863307596055 30.104607710117733 10.648929611672157 1 rotate no_reflect no_shear #
lump $-1 $-1 $63 $6 #
transform $-1 1 0 0 0 1 0 0 0 1 46.336863307596055 30.104607710117733 10.648929611672157 1 rotate no_reflect no_shear #
lump $-1 $-1 $64 $7 #
transform $-1 1 0 0 0 1 0 0 0 1 46.336863307596055 30.104607710117733 10.648929611672157 1 rotate no_reflect no_shear #
lump $-1 $-1 $65 $8 #
transform $-1 1 0 0 0 1 0 0 0 1 46.336863307596055 30.104607710117733 10.648929611672157 1 rotate no_reflect no_shear #
lump $-1 $-1 $66 $9 #
transform $-1 1 0 0 0 1 0 0 0 1 46.336863307596055 30.104607710117733 10.648929611672157 1 rotate no_reflect no_shear #
lump $-1 $-1 $67 $10 #
transform $-1 1 0 0 0 1 0 0 0 1 46.336863307596055 30.104607710117733 10.648929611672157 1 rotate no_reflect no_shear #
lump $-1 $-1 $68 $11 #
transform $-1 1 0 0 0 1 0 0 0 1 46.336863307596055 30.104607710117733 10.648929611672157 1 rotate no_reflect no_shear #
lump $-1 $-1 $69 $12 #
transform $-1 1 0 0 0 1 0 0 0 1 46.336863307596055 30.104607710117733 10.648929611672157 1 rotate no_reflect no_shear #
lump $-1 $-1 $70 $13 #
transform $-1 1 0 0 0 1 0 0 0 1 46.336863307596055 30.104607710117733 10.648929611672157 1 rotate no_reflect no_shear #
lump $-1 $-1 $71 $14 #
transform $-1 1 0 0 0 1 0 0 0 1 46.336863307596055 30.104607710117733 10.648929611672157 1 rotate no_reflect no_shear #
lump $-1 $-1 $72 $15 #
transform $-1 1 0 0 0 1 0 0 0 1 46.336863307596055 30.104607710117733 10.648929611672157 1 rotate no_reflect no_shear #
lump $-1 $-1 $73 $16 #
transform $-1 1 0 0 0 1 0 0 0 1 46.336863307596055 30.104607710117733 10.648929611672157 1 rotate no_reflect no_shear #
lump $-1 $-1 $74 $17 #
transform $-1 1 0 0 0 1 0 0 0 1 46.336863307596055 30.104607710117733 10.648929611672157 1 rotate no_reflect no_shear #
lump $-1 $-1 $75 $18 #
transform $-1 1 0 0 0 1 0 0 0 1 46.336863307596055 30.104607710117733 10.648929611672157 1 rotate no_reflect no_shear #
shell $-1 $-1 $-1 $76 $-1 $19 #
shell $-1 $-1 $-1 $77 $-1 $21 #
shell $-1 $-1 $-1 $78 $-1 $23 #
shell $-1 $-1 $-1 $79 $-1 $25 #
shell $-1 $-1 $-1 $80 $-1 $27 #
shell $-1 $-1 $-1 $81 $-1 $29 #
shell $-1 $-1 $-1 $82 $-1 $31 #
shell $-1 $-1 $-1 $83 $-1 $33 #
shell $-1 $-1 $-1 $84 $-1 $35 #
shell $-1 $-1 $-1 $85 $-1 $37 #
shell $-1 $-1 $-1 $86 $-1 $39 #
shell $-1 $-1 $-1 $87 $-1 $41 #
shell $-1 $-1 $-1 $88 $-1 $43 #
shell $-1 $-1 $-1 $89 $-1 $45 #
shell $-1 $-1 $-1 $90 $-1 $47 #
shell $-1 $-1 $-1 $91 $-1 $49 #
shell $-1 $-1 $-1 $92 $-1 $51 #
shell $-1 $-1 $-1 $93 $-1 $53 #
shell $-1 $-1 $-1 $94 $-1 $55 #
face $-1 $95 $96 $57 $-1 $97 forward single #
face $-1 $98 $99 $58 $-1 $100 reversed single #
face $-1 $101 $102 $59 $-1 $103 reversed single #
face $-1 $104 $105 $60 $-1 $106 reversed single #
face $-1 $107 $108 $61 $-1 $109 forward single #
face $-1 $110 $111 $62 $-1 $112 forward single #
face $-1 $113 $114 $63 $-1 $115 forward single #
face $-1 $116 $117 $64 $-1 $118 reversed single #
face $-1 $119 $120 $65 $-1 $121 forward single #
face $-1 $122 $123 $66 $-1 $124 forward single #
face $-1 $125 $126 $67 $-1 $127 forward single #
face $-1 $128 $129 $68 $-1 $130 reversed single #
face $-1 $131 $132 $69 $-1 $133 forward single #
face $-1 $134 $135 $70 $-1 $136 forward single #
face $-1 $137 $138 $71 $-1 $139 forward single #
face $-1 $140 $141 $72 $-1 $142 reversed single #
face $-1 $143 $144 $73 $-1 $145 forward single #
face $-1 $146 $147 $74 $-1 $148 forward single #
face $-1 $149 $150 $75 $-1 $151 forward single #
face $-1 $152 $153 $57 $-1 $154 reversed single #
loop $-1 $-1 $155 $76 #
plane-surface $-1 0 0 10.648929611672157 0 0 1 1 0 0 forward_v I I I I #
face $-1 $156 $157 $58 $-1 $158 reversed single #
loop $-1 $-1 $159 $77 #
plane-surface $-1 -45.836863307596055 -25.999425357966373 0 1 0 0 0 0 -1 forward_v I I I I #
face $-1 $160 $161 $59 $-1 $162 reversed single #
loop $-1 $-1 $163 $78 #
plane-surface $-1 -43.992775618899763 21.894243005815014 0 0 1 0 0 0 1 forward_v I I I I #
face $-1 $164 $165 $60 $-1 $166 reversed single #
loop $-1 $-1 $167 $79 #
plane-surface $-1 -94.067361693153885 -16.267250229511376 87.003181707402661 0 1 0 -0.51503808176128008 0 0.85716729658548041 forward_v I I I I #
face $-1 $168 $169 $61 $-1 $170 forward single #
loop $-1 $171 $172 $80 #
cone-surface $-1 -43.514160713253744 -14.587198118221215 8.6790281576216124 0.51503808176128008 0 -0.85716729658548041 0.4285836482927402 0 0.25751904088064004 1 I I 0 1 0.5 forward I I I I #
face $-1 $173 $174 $62 $-1 $175 forward single #
loop $-1 $176 $177 $81 #
cone-surface $-1 -43.514160713253744 -12.067119951285974 8.6790281576216124 0.51503808176128008 0 -0.85716729658548041 0.4285836482927402 0 0.25751904088064004 1 I I 0 1 0.5 forward I I I I #
face $-1 $178 $179 $63 $-1 $180 forward single #
loop $-1 $181 $182 $82 #
cone-surface $-1 -43.514160713253744 -9.547041784350732 8.6790281576216124 0.51503808176128008 0 -0.85716729658548041 0.4285836482927402 0 0.25751904088064004 1 I I 0 1 0.5 forward I I I I #
face $-1 $183 $184 $64 $-1 $185 reversed single #
loop $-1 $-1 $186 $83 #
plane-surface $-1 -94.067361693153885 7.8669896730605799 87.003181707402661 0 1 0 -0.51503808176128008 0 0.85716729658548041 forward_v I I I I #
face $-1 $187 $188 $65 $-1 $189 forward single #
loop $-1 $190 $191 $84 #
cone-surface $-1 -43.514160713253744 9.5470417843507391 8.6790281576216124 0.51503808176128008 0 -0.85716729658548041 0.4285836482927402 0 0.25751904088064004 1 I I 0 1 0.5 forward I I I I #
face $-1 $192 $193 $66 $-1 $194 forward single #
loop $-1 $195 $196 $85 #
cone-surface $-1 -43.514160713253744 12.067119951285981 8.6790281576216124 0.51503808176128008 0 -0.85716729658548041 0.4285836482927402 0 0.25751904088064004 1 I I 0 1 0.5 forward I I I I #
face $-1 $197 $198 $67 $-1 $199 forward single #
loop $-1 $200 $201 $86 #
cone-surface $-1 -43.514160713253744 14.587198118221224 8.6790281576216124 0.51503808176128008 0 -0.85716729658548041 0.4285836482927402 0 0.25751904088064004 1 I I 0 1 0.5 forward I I I I #
face $-1 $202 $203 $68 $-1 $204 reversed single #
loop $-1 $-1 $205 $87 #
plane-surface $-1 28.096776550929654 3.5527136788005009e-015 135.1990031836813 0 -1 0 -0.6018150307709319 0 -0.79863550430605224 forward_v I I I I #
face $-1 $206 $207 $69 $-1 $208 forward single #
loop $-1 $209 $210 $88 #
cone-surface $-1 42.482581297449158 -5.167421945538976 7.5261281773828852 -0.6018150307709319 0 -0.79863550430605224 0.39931775215302612 0 -0.30090751538546595 1 I I 0 1 0.5 forward I I I I #
face $-1 $211 $212 $70 $-1 $213 forward single #
loop $-1 $214 $215 $89 #
cone-surface $-1 42.482581297449158 -3.2296387159618583 7.5261281773828852 -0.6018150307709319 0 -0.79863550430605224 0.39931775215302612 0 -0.30090751538546595 1 I I 0 1 0.5 forward I I I I #
face $-1 $216 $217 $71 $-1 $218 forward single #
loop $-1 $219 $220 $90 #
cone-surface $-1 42.482581297449158 -1.2918554863847405 7.5261281773828852 -0.6018150307709319 0 -0.79863550430605224 0.39931775215302612 0 -0.30090751538546595 1 I I 0 1 0.5 forward I I I I #
face $-1 $221 $222 $72 $-1 $223 reversed single #
loop $-1 $-1 $224 $91 #
plane-surface $-1 28.096776550929654 21.894243005815021 135.1990031836813 0 -1 0 -0.6018150307709319 0 -0.79863550430605224 forward_v I I I I #
face $-1 $225 $226 $73 $-1 $227 forward single #
loop $-1 $228 $229 $92 #
cone-surface $-1 42.482581297449158 16.726821060276038 7.5261281773828852 -0.6018150307709319 0 -0.79863550430605224 0.39931775215302612 0 -0.30090751538546595 1 I I 0 1 0.5 forward I I I I #
face $-1 $230 $231 $74 $-1 $232 forward single #
loop $-1 $233 $234 $93 #
cone-surface $-1 42.482581297449158 18.664604289853159 7.5261281773828852 -0.6018150307709319 0 -0.79863550430605224 0.39931775215302612 0 -0.30090751538546595 1 I I 0 1 0.5 forward I I I I #
face $-1 $235 $236 $75 $-1 $237 forward single #
loop $-1 $238 $239 $94 #
cone-surface $-1 42.482581297449158 20.602387519430273 7.5261281773828852 -0.6018150307709319 0 -0.79863550430605224 0.39931775215302612 0 -0.30090751538546595 1 I I 0 1 0.5 forward I I I I #
face $-1 $240 $241 $57 $-1 $242 reversed single #
loop $-1 $-1 $243 $95 #
plane-surface $-1 0 0 -10.648929611672157 0 0 1 1 0 0 forward_v I I I I #
coedge $-1 $244 $245 $246 $247 forward $96 $-1 #
face $-1 $248 $249 $58 $-1 $250 reversed single #
loop $-1 $-1 $251 $98 #
plane-surface $-1 -43.992775618899763 -21.894243005815014 0 0 -1 0 0 0 -1 forward_v I I I I #
coedge $-1 $252 $253 $254 $255 forward $99 $-1 #
face $-1 $256 $257 $59 $-1 $258 reversed single #
loop $-1 $-1 $259 $101 #
plane-surface $-1 -45.836863307596055 25.999425357966373 0 1 0 0 0 0 -1 forward_v I I I I #
coedge $-1 $260 $261 $262 $263 forward $102 $-1 #
face $-1 $264 $265 $60 $-1 $266 reversed single #
loop $-1 $-1 $267 $104 #
plane-surface $-1 -46.336863307596062 -12.067119951285974 7.5662940001565744 -0.51503808176128008 0 0.85716729658548041 0.85716729658548041 0 0.51503808176128008 forward_v I I I I #
coedge $-1 $268 $269 $270 $271 reversed $105 $-1 #
face $-1 $-1 $272 $61 $-1 $273 forward single #
loop $-1 $274 $275 $107 #
cone-surface $-1 -43.127882151932788 -14.587198118221215 8.0361526851825023 0.51503808176128008 0 -0.85716729658548041 0.2142918241463701 0 0.12875952044032002 1 I I -0.70710678118654746 0.70710678118654746 0.25 forward I I I I #
loop $-1 $-1 $276 $80 #
coedge $-1 $172 $172 $277 $278 reversed $108 $-1 #
face $-1 $-1 $279 $62 $-1 $280 forward single #
loop $-1 $281 $282 $110 #
cone-surface $-1 -43.127882151932788 -12.067119951285974 8.0361526851825023 0.51503808176128008 0 -0.85716729658548041 0.2142918241463701 0 0.12875952044032002 1 I I -0.70710678118654746 0.70710678118654746 0.25 forward I I I I #
loop $-1 $-1 $283 $81 #
coedge $-1 $177 $177 $284 $285 reversed $111 $-1 #
face $-1 $-1 $286 $63 $-1 $287 forward single #
loop $-1 $288 $289 $113 #
cone-surface $-1 -43.127882151932788 -9.547041784350732 8.0361526851825023 0.51503808176128008 0 -0.85716729658548041 0.2142918241463701 0 0.12875952044032002 1 I I -0.70710678118654746 0.70710678118654746 0.25 forward I I I I #
loop $-1 $-1 $290 $82 #
coedge $-1 $182 $182 $291 $292 reversed $114 $-1 #
face $-1 $293 $294 $64 $-1 $295 reversed single #
loop $-1 $-1 $296 $116 #
plane-surface $-1 -46.336863307596062 12.067119951285981 7.5662940001565744 -0.51503808176128008 0 0.85716729658548041 0.85716729658548041 0 0.51503808176128008 forward_v I I I I #
coedge $-1 $297 $298 $299 $300 reversed $117 $-1 #
face $-1 $-1 $301 $65 $-1 $302 forward single #
loop $-1 $303 $304 $119 #
cone-surface $-1 -43.127882151932788 9.5470417843507391 8.0361526851825023 0.51503808176128008 0 -0.85716729658548041 0.2142918241463701 0 0.12875952044032002 1 I I -0.70710678118654746 0.70710678118654746 0.25 forward I I I I #
loop $-1 $-1 $305 $84 #
coedge $-1 $191 $191 $306 $307 reversed $120 $-1 #
face $-1 $-1 $308 $66 $-1 $309 forward single #
loop $-1 $310 $311 $122 #
cone-surface $-1 -43.127882151932788 12.067119951285981 8.0361526851825023 0.51503808176128008 0 -0.85716729658548041 0.2142918241463701 0 0.12875952044032002 1 I I -0.70710678118654746 0.70710678118654746 0.25 forward I I I I #
loop $-1 $-1 $312 $85 #
coedge $-1 $196 $196 $313 $314 reversed $123 $-1 #
face $-1 $-1 $315 $67 $-1 $316 forward single #
loop $-1 $317 $318 $125 #
cone-surface $-1 -43.127882151932788 14.587198118221224 8.0361526851825023 0.51503808176128008 0 -0.85716729658548041 0.2142918241463701 0 0.12875952044032002 1 I I -0.70710678118654746 0.70710678118654746 0.25 forward I I I I #
loop $-1 $-1 $319 $86 #
coedge $-1 $201 $201 $320 $321 reversed $126 $-1 #
face $-1 $322 $323 $68 $-1 $324 reversed single #
loop $-1 $-1 $325 $128 #
plane-surface $-1 -27.675665083649115 -3.2296387159618583 61.18647479243613 0.6018150307709319 0 0.79863550430605224 0.79863550430605224 0 -0.6018150307709319 forward_v I I I I #
coedge $-1 $326 $327 $328 $329 reversed $129 $-1 #
face $-1 $-1 $330 $69 $-1 $331 forward single #
loop $-1 $332 $333 $131 #
cone-surface $-1 41.951316576042792 -5.167421945538976 6.8211160939245037 -0.6018150307709319 0 -0.79863550430605224 0.19965887607651306 0 -0.15045375769273298 1 I I -0.70710678118654746 0.70710678118654746 0.25 forward I I I I #
loop $-1 $-1 $334 $88 #
coedge $-1 $210 $210 $335 $336 reversed $132 $-1 #
face $-1 $-1 $337 $70 $-1 $338 forward single #
loop $-1 $339 $340 $134 #
cone-surface $-1 41.951316576042792 -3.2296387159618583 6.8211160939245037 -0.6018150307709319 0 -0.79863550430605224 0.19965887607651306 0 -0.15045375769273298 1 I I -0.70710678118654746 0.70710678118654746 0.25 forward I I I I #
loop $-1 $-1 $341 $89 #
coedge $-1 $215 $215 $342 $343 reversed $135 $-1 #
face $-1 $-1 $344 $71 $-1 $345 forward single #
loop $-1 $346 $347 $137 #
cone-surface $-1 41.951316576042792 -1.2918554863847405 6.8211160939245037 -0.6018150307709319 0 -0.79863550430605224 0.19965887607651306 0 -0.15045375769273298 1 I I -0.70710678118654746 0.70710678118654746 0.25 forward I I I I #
loop $-1 $-1 $348 $90 #
coedge $-1 $220 $220 $349 $350 reversed $138 $-1 #
face $-1 $351 $352 $72 $-1 $353 reversed single #
loop $-1 $-1 $354 $140 #
plane-surface $-1 -27.675665083649115 18.664604289853159 61.18647479243613 0.6018150307709319 0 0.79863550430605224 0.79863550430605224 0 -0.6018150307709319 forward_v I I I I #
coedge $-1 $355 $356 $357 $358 reversed $141 $-1 #
face $-1 $-1 $359 $73 $-1 $360 forward single #
loop $-1 $361 $362 $143 #
cone-surface $-1 41.951316576042792 16.726821060276038 6.8211160939245037 -0.6018150307709319 0 -0.79863550430605224 0.19965887607651306 0 -0.15045375769273298 1 I I -0.70710678118654746 0.70710678118654746 0.25 forward I I I I #
loop $-1 $-1 $363 $92 #
coedge $-1 $229 $229 $364 $365 reversed $144 $-1 #
face $-1 $-1 $366 $74 $-1 $367 forward single #
loop $-1 $368 $369 $146 #
cone-surface $-1 41.951316576042792 18.664604289853159 6.8211160939245037 -0.6018150307709319 0 -0.79863550430605224 0.19965887607651306 0 -0.15045375769273298 1 I I -0.70710678118654746 0.70710678118654746 0.25 forward I I I I #
loop $-1 $-1 $370 $93 #
coedge $-1 $234 $234 $371 $372 reversed $147 $-1 #
face $-1 $-1 $373 $75 $-1 $374 forward single #
loop $-1 $375 $376 $149 #
cone-surface $-1 41.951316576042792 20.602387519430273 6.8211160939245037 -0.6018150307709319 0 -0.79863550430605224 0.19965887607651306 0 -0.15045375769273298 1 I I -0.70710678118654746 0.70710678118654746 0.25 forward I I I I #
loop $-1 $-1 $377 $94 #
coedge $-1 $239 $239 $378 $379 reversed $150 $-1 #
face $-1 $380 $381 $57 $-1 $382 reversed single #
loop $-1 $-1 $383 $152 #
plane-surface $-1 0 -30.104607710117733 0 0 1 0 0 0 1 forward_v I I I I #
coedge $-1 $384 $385 $386 $387 forward $153 $-1 #
coedge $-1 $388 $155 $389 $390 forward $96 $-1 #
coedge $-1 $155 $388 $391 $392 forward $96 $-1 #
coedge $-1 $393 $394 $155 $247 reversed $395 $-1 #
edge $-1 $396 -30.104607710117733 $397 30.104607710117733 $246 $398 forward 7 unknown #
face $-1 $399 $400 $58 $-1 $401 forward single #
loop $-1 $-1 $402 $156 #
plane-surface $-1 -42.148687930203472 -25.999425357966373 0 -1 0 0 0 0 1 forward_v I I I I #
coedge $-1 $403 $404 $405 $406 forward $157 $-1 #
coedge $-1 $407 $159 $408 $409 reversed $99 $-1 #
coedge $-1 $159 $407 $410 $411 reversed $99 $-1 #
coedge $-1 $404 $403 $159 $255 reversed $157 $-1 #
edge $-1 $412 -10.648929611672157 $413 10.648929611672157 $254 $414 forward 7 unknown #
face $-1 $415 $416 $59 $-1 $417 reversed single #
loop $-1 $-1 $418 $160 #
plane-surface $-1 -42.148687930203472 25.999425357966373 0 -1 0 0 0 0 1 forward_v I I I I #
coedge $-1 $419 $420 $421 $422 reversed $161 $-1 #
coedge $-1 $423 $163 $424 $425 reversed $102 $-1 #
coedge $-1 $163 $423 $426 $427 reversed $102 $-1 #
coedge $-1 $420 $419 $163 $263 reversed $161 $-1 #
edge $-1 $428 -10.648929611672157 $429 10.648929611672157 $262 $430 forward 7 unknown #
face $-1 $431 $432 $60 $-1 $433 reversed single #
loop $-1 $-1 $434 $164 #
plane-surface $-1 -94.067361693153885 -7.8669896730605728 87.003181707402661 0 -1 0 0.51503808176128008 0 -0.85716729658548041 forward_v I I I I #
coedge $-1 $435 $436 $437 $438 reversed $165 $-1 #
coedge $-1 $269 $167 $439 $440 reversed $105 $-1 #
coedge $-1 $167 $268 $435 $441 reversed $105 $-1 #
coedge $-1 $437 $442 $167 $271 forward $443 $-1 #
edge $-1 $444 0.69681753898088772 $445 5.8271846459041754 $270 $446 forward 7 unknown #
loop $-1 $-1 $277 $168 #
plane-surface $-1 -46.336863307596062 -12.067119951285974 7.5662940001565744 -0.51503808176128008 0 0.85716729658548041 0.85716729658548041 0 0.51503808176128008 forward_v I I I I #
loop $-1 $-1 $447 $107 #
coedge $-1 $275 $275 $276 $448 reversed $169 $-1 #
coedge $-1 $276 $276 $275 $448 forward $171 $-1 #
coedge $-1 $277 $277 $172 $278 forward $272 $-1 #
edge $-1 $449 0 $449 6.2831853071796004 $277 $450 forward 7 unknown #
loop $-1 $-1 $284 $173 #
plane-surface $-1 -46.336863307596062 -12.067119951285974 7.5662940001565744 -0.51503808176128008 0 0.85716729658548041 0.85716729658548041 0 0.51503808176128008 forward_v I I I I #
loop $-1 $-1 $451 $110 #
coedge $-1 $282 $282 $283 $452 reversed $174 $-1 #
coedge $-1 $283 $283 $282 $452 forward $176 $-1 #
coedge $-1 $284 $284 $177 $285 forward $279 $-1 #
edge $-1 $453 0 $453 6.2831853071796004 $284 $454 forward 7 unknown #
loop $-1 $-1 $291 $178 #
plane-surface $-1 -46.336863307596062 -12.067119951285974 7.5662940001565744 -0.51503808176128008 0 0.85716729658548041 0.85716729658548041 0 0.51503808176128008 forward_v I I I I #
loop $-1 $-1 $455 $113 #
coedge $-1 $289 $289 $290 $456 reversed $179 $-1 #
coedge $-1 $290 $290 $289 $456 forward $181 $-1 #
coedge $-1 $291 $291 $182 $292 forward $286 $-1 #
edge $-1 $457 0 $457 6.2831853071796004 $291 $458 forward 7 unknown #
face $-1 $459 $460 $64 $-1 $461 forward single #
loop $-1 $-1 $462 $183 #
plane-surface $-1 -94.067361693153885 16.267250229511383 87.003181707402661 0 -1 0 0.51503808176128008 0 -0.85716729658548041 forward_v I I I I #
coedge $-1 $463 $464 $465 $466 reversed $184 $-1 #
coedge $-1 $298 $186 $467 $468 reversed $117 $-1 #
coedge $-1 $186 $297 $463 $469 reversed $117 $-1 #
coedge $-1 $465 $470 $186 $300 forward $460 $-1 #
edge $-1 $471 0.69681753898088772 $472 5.8271846459041754 $299 $473 forward 7 unknown #
loop $-1 $-1 $306 $187 #
plane-surface $-1 -46.336863307596062 12.067119951285981 7.5662940001565744 -0.51503808176128008 0 0.85716729658548041 0.85716729658548041 0 0.51503808176128008 forward_v I I I I #
loop $-1 $-1 $474 $119 #
coedge $-1 $304 $304 $305 $475 reversed $188 $-1 #
coedge $-1 $305 $305 $304 $475 forward $190 $-1 #
coedge $-1 $306 $306 $191 $307 forward $301 $-1 #
edge $-1 $476 0 $476 6.2831853071796004 $306 $477 forward 7 unknown #
loop $-1 $-1 $313 $192 #
plane-surface $-1 -46.336863307596062 12.067119951285981 7.5662940001565744 -0.51503808176128008 0 0.85716729658548041 0.85716729658548041 0 0.51503808176128008 forward_v I I I I #
loop $-1 $-1 $478 $122 #
coedge $-1 $311 $311 $312 $479 reversed $193 $-1 #
coedge $-1 $312 $312 $311 $479 forward $195 $-1 #
coedge $-1 $313 $313 $196 $314 forward $308 $-1 #
edge $-1 $480 0 $480 6.2831853071796004 $313 $481 forward 7 unknown #
loop $-1 $-1 $320 $197 #
plane-surface $-1 -46.336863307596062 12.067119951285981 7.5662940001565744 -0.51503808176128008 0 0.85716729658548041 0.85716729658548041 0 0.51503808176128008 forward_v I I I I #
loop $-1 $-1 $482 $125 #
coedge $-1 $318 $318 $319 $483 reversed $198 $-1 #
coedge $-1 $319 $319 $318 $483 forward $200 $-1 #
coedge $-1 $320 $320 $201 $321 forward $315 $-1 #
edge $-1 $484 0 $484 6.2831853071796004 $320 $485 forward 7 unknown #
face $-1 $486 $487 $68 $-1 $488 forward single #
loop $-1 $-1 $489 $202 #
plane-surface $-1 28.096776550929654 -6.4592774319237201 135.1990031836813 0 1 0 0.6018150307709319 0 0.79863550430605224 forward_v I I I I #
coedge $-1 $490 $491 $492 $493 reversed $203 $-1 #
coedge $-1 $327 $205 $494 $495 reversed $129 $-1 #
coedge $-1 $205 $326 $490 $496 reversed $129 $-1 #
coedge $-1 $492 $497 $205 $329 forward $487 $-1 #
edge $-1 $498 -32.288475032131231 $499 -25.341532939264706 $328 $500 forward 7 unknown #
loop $-1 $-1 $335 $206 #
plane-surface $-1 -27.675665083649115 -3.2296387159618583 61.18647479243613 0.6018150307709319 0 0.79863550430605224 0.79863550430605224 0 -0.6018150307709319 forward_v I I I I #
loop $-1 $-1 $501 $131 #
coedge $-1 $333 $333 $334 $502 reversed $207 $-1 #
coedge $-1 $334 $334 $333 $502 forward $209 $-1 #
coedge $-1 $335 $335 $210 $336 forward $330 $-1 #
edge $-1 $503 0 $503 6.2831853071796004 $335 $504 forward 7 unknown #
loop $-1 $-1 $342 $211 #
plane-surface $-1 -27.675665083649115 -3.2296387159618583 61.18647479243613 0.6018150307709319 0 0.79863550430605224 0.79863550430605224 0 -0.6018150307709319 forward_v I I I I #
loop $-1 $-1 $505 $134 #
coedge $-1 $340 $340 $341 $506 reversed $212 $-1 #
coedge $-1 $341 $341 $340 $506 forward $214 $-1 #
coedge $-1 $342 $342 $215 $343 forward $337 $-1 #
edge $-1 $507 0 $507 6.2831853071796004 $342 $508 forward 7 unknown #
loop $-1 $-1 $349 $216 #
plane-surface $-1 -27.675665083649115 -3.2296387159618583 61.18647479243613 0.6018150307709319 0 0.79863550430605224 0.79863550430605224 0 -0.6018150307709319 forward_v I I I I #
loop $-1 $-1 $509 $137 #
coedge $-1 $347 $347 $348 $510 reversed $217 $-1 #
coedge $-1 $348 $348 $347 $510 forward $219 $-1 #
coedge $-1 $349 $349 $220 $350 forward $344 $-1 #
edge $-1 $511 0 $511 6.2831853071796004 $349 $512 forward 7 unknown #
face $-1 $513 $514 $72 $-1 $515 reversed single #
loop $-1 $-1 $516 $221 #
plane-surface $-1 28.096776550929654 15.434965573891297 135.1990031836813 0 1 0 0.6018150307709319 0 0.79863550430605224 forward_v I I I I #
coedge $-1 $517 $518 $519 $520 reversed $222 $-1 #
coedge $-1 $356 $224 $521 $522 reversed $141 $-1 #
coedge $-1 $224 $355 $517 $523 reversed $141 $-1 #
coedge $-1 $519 $524 $224 $358 forward $525 $-1 #
edge $-1 $526 -32.288475032131231 $527 -25.341532939264706 $357 $528 forward 7 unknown #
loop $-1 $-1 $364 $225 #
plane-surface $-1 -27.675665083649115 18.664604289853159 61.18647479243613 0.6018150307709319 0 0.79863550430605224 0.79863550430605224 0 -0.6018150307709319 forward_v I I I I #
loop $-1 $-1 $529 $143 #
coedge $-1 $362 $362 $363 $530 reversed $226 $-1 #
coedge $-1 $363 $363 $362 $530 forward $228 $-1 #
coedge $-1 $364 $364 $229 $365 forward $359 $-1 #
edge $-1 $531 0 $531 6.2831853071796004 $364 $532 forward 7 unknown #
loop $-1 $-1 $371 $230 #
plane-surface $-1 -27.675665083649115 18.664604289853159 61.18647479243613 0.6018150307709319 0 0.79863550430605224 0.79863550430605224 0 -0.6018150307709319 forward_v I I I I #
loop $-1 $-1 $533 $146 #
coedge $-1 $369 $369 $370 $534 reversed $231 $-1 #
coedge $-1 $370 $370 $369 $534 forward $233 $-1 #
coedge $-1 $371 $371 $234 $372 forward $366 $-1 #
edge $-1 $535 0 $535 6.2831853071796004 $371 $536 forward 7 unknown #
loop $-1 $-1 $378 $235 #
plane-surface $-1 -27.675665083649115 18.664604289853159 61.18647479243613 0.6018150307709319 0 0.79863550430605224 0.79863550430605224 0 -0.6018150307709319 forward_v I I I I #
loop $-1 $-1 $537 $149 #
coedge $-1 $376 $376 $377 $538 reversed $236 $-1 #
coedge $-1 $377 $377 $376 $538 forward $238 $-1 #
coedge $-1 $378 $378 $239 $379 forward $373 $-1 #
edge $-1 $539 0 $539 6.2831853071796004 $378 $540 forward 7 unknown #
face $-1 $541 $542 $57 $-1 $543 reversed single #
loop $-1 $-1 $544 $240 #
plane-surface $-1 -46.336863307596055 0 0 1 0 0 0 0 -1 forward_v I I I I #
coedge $-1 $545 $391 $546 $547 forward $241 $-1 #
coedge $-1 $548 $243 $545 $549 forward $153 $-1 #
coedge $-1 $243 $548 $550 $551 forward $153 $-1 #
coedge $-1 $394 $393 $243 $387 reversed $395 $-1 #
edge $-1 $552 -30.104607710117733 $553 30.104607710117733 $386 $554 forward 7 unknown #
coedge $-1 $245 $244 $555 $556 forward $96 $-1 #
coedge $-1 $557 $558 $244 $390 reversed $542 $-1 #
edge $-1 $397 -46.336863307596055 $559 46.336863307596055 $389 $560 forward 7 unknown #
coedge $-1 $383 $561 $245 $392 reversed $241 $-1 #
edge $-1 $562 -46.336863307596055 $396 46.336863307596055 $391 $563 forward 7 unknown #
coedge $-1 $386 $246 $561 $564 forward $395 $-1 #
coedge $-1 $246 $386 $557 $565 reversed $395 $-1 #
loop $-1 $-1 $393 $541 #
vertex $-1 $247 $566 #
vertex $-1 $247 $567 #
straight-curve $-1 46.336863307596055 0 10.648929611672157 0 1 0 I I #
face $-1 $568 $569 $58 $-1 $570 reversed single #
loop $-1 $-1 $571 $248 #
plane-surface $-1 0 0 10.648929611672157 0 0 1 1 0 0 forward_v I I I I #
coedge $-1 $572 $573 $574 $575 reversed $249 $-1 #
coedge $-1 $254 $251 $576 $577 reversed $157 $-1 #
coedge $-1 $251 $254 $578 $579 reversed $157 $-1 #
coedge $-1 $573 $572 $251 $406 reversed $249 $-1 #
edge $-1 $580 -10.648929611672157 $581 10.648929611672157 $405 $582 forward 7 unknown #
coedge $-1 $253 $252 $583 $584 reversed $99 $-1 #
coedge $-1 $576 $585 $252 $409 forward $569 $-1 #
edge $-1 $586 -17.104895031134546 $413 -8.894530326831827 $408 $587 forward 7 unknown #
coedge $-1 $588 $578 $253 $411 forward $400 $-1 #
edge $-1 $412 8.894530326831827 $589 17.104895031134546 $410 $590 forward 7 unknown #
vertex $-1 $411 $591 #
vertex $-1 $409 $592 #
straight-curve $-1 -45.836863307596055 -21.894243005815014 0 0 0 -1 I I #
face $-1 $593 $594 $59 $-1 $595 forward single #
loop $-1 $-1 $596 $256 #
plane-surface $-1 0 0 -10.648929611672157 0 0 1 1 0 0 forward_v I I I I #
coedge $-1 $597 $598 $423 $599 forward $257 $-1 #
coedge $-1 $262 $259 $600 $601 reversed $161 $-1 #
coedge $-1 $259 $262 $602 $603 reversed $161 $-1 #
coedge $-1 $604 $605 $259 $422 forward $606 $-1 #
edge $-1 $607 -10.648929611672157 $608 10.648929611672157 $421 $609 forward 7 unknown #
coedge $-1 $261 $260 $418 $599 reversed $102 $-1 #
coedge $-1 $600 $596 $260 $425 forward $416 $-1 #
edge $-1 $610 20.152300120753591 $429 23.840475498146173 $424 $611 forward 7 unknown #
coedge $-1 $612 $602 $261 $427 forward $594 $-1 #
edge $-1 $428 -23.840475498146173 $613 -20.152300120753591 $426 $614 forward 7 unknown #
vertex $-1 $427 $615 #
vertex $-1 $425 $616 #
straight-curve $-1 -45.836863307596055 21.894243005815014 0 0 0 -1 I I #
face $-1 $-1 $443 $60 $-1 $617 forward single #
loop $-1 $-1 $618 $264 #
plane-surface $-1 -46.336863307596055 0 0 1 0 0 0 0 -1 forward_v I I I I #
coedge $-1 $619 $620 $621 $622 reversed $265 $-1 #
coedge $-1 $623 $267 $269 $441 forward $165 $-1 #
coedge $-1 $267 $623 $619 $624 forward $165 $-1 #
coedge $-1 $621 $270 $267 $438 forward $443 $-1 #
edge $-1 $445 -10.233690253868389 $625 -1.8334296974175857 $437 $626 forward 7 unknown #
coedge $-1 $627 $628 $268 $440 forward $432 $-1 #
edge $-1 $629 -35.935296853544749 $444 -32.852661242029171 $439 $630 forward 7 unknown #
edge $-1 $445 -5.9852576356565095 $629 -8.3777685069199533e-015 $269 $631 forward 7 unknown #
coedge $-1 $270 $621 $627 $632 forward $443 $-1 #
loop $-1 $-1 $621 $431 #
vertex $-1 $440 $633 #
vertex $-1 $271 $634 #
straight-curve $-1 -47.033680846576942 -16.267250229511376 10.648929611672159 1 0 0 I I #
coedge $-1 $447 $447 $-1 $635 reversed $274 $-1 #
edge $-1 $636 0 $636 6.2831853071796004 $275 $637 forward 7 unknown #
vertex $-1 $278 $638 #
ellipse-curve $-1 -43.771679754134396 -14.587198118221215 9.1076118059143756 -0.51503808176128008 0 0.85716729658548041 0.4285836482927402 0 0.25751904088064004 1 I I #
coedge $-1 $451 $451 $-1 $639 reversed $281 $-1 #
edge $-1 $640 0 $640 6.2831853071796004 $282 $641 forward 7 unknown #
vertex $-1 $285 $642 #
ellipse-curve $-1 -43.771679754134396 -12.067119951285974 9.1076118059143756 -0.51503808176128008 0 0.85716729658548041 0.4285836482927402 0 0.25751904088064004 1 I I #
coedge $-1 $455 $455 $-1 $643 reversed $288 $-1 #
edge $-1 $644 0 $644 6.2831853071796004 $289 $645 forward 7 unknown #
vertex $-1 $292 $646 #
ellipse-curve $-1 -43.771679754134396 -9.547041784350732 9.1076118059143756 -0.51503808176128008 0 0.85716729658548041 0.4285836482927402 0 0.25751904088064004 1 I I #
face $-1 $-1 $647 $64 $-1 $648 reversed single #
loop $-1 $-1 $299 $293 #
plane-surface $-1 0 0 10.648929611672157 0 0 1 1 0 0 forward_v I I I I #
coedge $-1 $649 $650 $651 $652 reversed $294 $-1 #
coedge $-1 $653 $296 $298 $469 forward $184 $-1 #
coedge $-1 $296 $653 $649 $654 forward $184 $-1 #
coedge $-1 $651 $299 $296 $466 forward $460 $-1 #
edge $-1 $472 1.8334296974175892 $655 10.233690253868392 $465 $656 forward 7 unknown #
coedge $-1 $657 $658 $297 $468 forward $647 $-1 #
edge $-1 $659 -35.935296853544749 $471 -32.852661242029171 $467 $660 forward 7 unknown #
edge $-1 $472 -5.9852576356565095 $659 -8.3777685069199533e-015 $298 $661 forward 7 unknown #
coedge $-1 $299 $651 $657 $662 forward $460 $-1 #
vertex $-1 $468 $663 #
vertex $-1 $300 $664 #
straight-curve $-1 -47.033680846576942 7.8669896730605799 10.648929611672159 1 0 0 I I #
coedge $-1 $474 $474 $-1 $665 reversed $303 $-1 #
edge $-1 $666 0 $666 6.2831853071796004 $304 $667 forward 7 unknown #
vertex $-1 $307 $668 #
ellipse-curve $-1 -43.771679754134396 9.5470417843507391 9.1076118059143756 -0.51503808176128008 0 0.85716729658548041 0.4285836482927402 0 0.25751904088064004 1 I I #
coedge $-1 $478 $478 $-1 $669 reversed $310 $-1 #
edge $-1 $670 0 $670 6.2831853071796004 $311 $671 forward 7 unknown #
vertex $-1 $314 $672 #
ellipse-curve $-1 -43.771679754134396 12.067119951285981 9.1076118059143756 -0.51503808176128008 0 0.85716729658548041 0.4285836482927402 0 0.25751904088064004 1 I I #
coedge $-1 $482 $482 $-1 $673 reversed $317 $-1 #
edge $-1 $674 0 $674 6.2831853071796004 $318 $675 forward 7 unknown #
vertex $-1 $321 $676 #
ellipse-curve $-1 -43.771679754134396 14.587198118221224 9.1076118059143756 -0.51503808176128008 0 0.85716729658548041 0.4285836482927402 0 0.25751904088064004 1 I I #
face $-1 $-1 $677 $68 $-1 $678 reversed single #
loop $-1 $-1 $328 $322 #
plane-surface $-1 0 0 10.648929611672157 0 0 1 1 0 0 forward_v I I I I #
coedge $-1 $679 $680 $681 $682 reversed $323 $-1 #
coedge $-1 $683 $325 $327 $496 forward $203 $-1 #
coedge $-1 $325 $683 $679 $684 forward $203 $-1 #
coedge $-1 $681 $328 $325 $493 forward $487 $-1 #
edge $-1 $499 -1.6148193579809327 $685 4.8444580739427909 $492 $686 forward 7 unknown #
coedge $-1 $687 $688 $326 $495 forward $677 $-1 #
edge $-1 $689 -62.185468433983289 $498 -56.95057198016849 $494 $690 forward 7 unknown #
edge $-1 $499 83.975212643035533 $689 92.673726615192123 $327 $691 forward 7 unknown #
coedge $-1 $328 $681 $687 $692 forward $487 $-1 #
vertex $-1 $329 $693 #
vertex $-1 $329 $694 #
straight-curve $-1 14.048388275464827 3.5527136788005009e-015 10.648929611672159 -1 0 0 I I #
coedge $-1 $501 $501 $-1 $695 reversed $332 $-1 #
edge $-1 $696 0 $696 6.2831853071796004 $333 $697 forward 7 unknown #
vertex $-1 $336 $698 #
ellipse-curve $-1 42.863392261162787 -5.167421945538976 8.0314813847647564 0.6018150307709319 0 0.79863550430605224 0.39931775215302612 0 -0.30090751538546595 1 I I #
coedge $-1 $505 $505 $-1 $699 reversed $339 $-1 #
edge $-1 $700 0 $700 6.2831853071796004 $340 $701 forward 7 unknown #
vertex $-1 $343 $702 #
ellipse-curve $-1 42.863392261162787 -3.2296387159618583 8.0314813847647564 0.6018150307709319 0 0.79863550430605224 0.39931775215302612 0 -0.30090751538546595 1 I I #
coedge $-1 $509 $509 $-1 $703 reversed $346 $-1 #
edge $-1 $704 0 $704 6.2831853071796004 $347 $705 forward 7 unknown #
vertex $-1 $350 $706 #
ellipse-curve $-1 42.863392261162787 -1.2918554863847405 8.0314813847647564 0.6018150307709319 0 0.79863550430605224 0.39931775215302612 0 -0.30090751538546595 1 I I #
face $-1 $-1 $525 $72 $-1 $707 forward single #
loop $-1 $-1 $708 $351 #
plane-surface $-1 46.336863307596055 0 0 -1 0 0 0 0 1 forward_v I I I I #
coedge $-1 $709 $710 $711 $712 reversed $352 $-1 #
coedge $-1 $713 $354 $356 $523 forward $222 $-1 #
coedge $-1 $354 $713 $709 $714 forward $222 $-1 #
coedge $-1 $711 $357 $354 $520 forward $525 $-1 #
edge $-1 $527 -12.561940860888441 $715 -6.1026634289647177 $519 $716 forward 7 unknown #
coedge $-1 $717 $718 $355 $522 forward $514 $-1 #
edge $-1 $719 -62.185468433983289 $526 -56.95057198016849 $521 $720 forward 7 unknown #
edge $-1 $527 83.975212643035533 $719 92.673726615192123 $356 $721 forward 7 unknown #
coedge $-1 $357 $711 $717 $722 forward $525 $-1 #
loop $-1 $-1 $711 $513 #
vertex $-1 $522 $723 #
vertex $-1 $358 $724 #
straight-curve $-1 14.048388275464827 21.894243005815021 10.648929611672159 -1 0 0 I I #
coedge $-1 $529 $529 $-1 $725 reversed $361 $-1 #
edge $-1 $726 0 $726 6.2831853071796004 $362 $727 forward 7 unknown #
vertex $-1 $365 $728 #
ellipse-curve $-1 42.863392261162787 16.726821060276038 8.0314813847647564 0.6018150307709319 0 0.79863550430605224 0.39931775215302612 0 -0.30090751538546595 1 I I #
coedge $-1 $533 $533 $-1 $729 reversed $368 $-1 #
edge $-1 $730 0 $730 6.2831853071796004 $369 $731 forward 7 unknown #
vertex $-1 $372 $732 #
ellipse-curve $-1 42.863392261162787 18.664604289853159 8.0314813847647564 0.6018150307709319 0 0.79863550430605224 0.39931775215302612 0 -0.30090751538546595 1 I I #
coedge $-1 $537 $537 $-1 $733 reversed $375 $-1 #
edge $-1 $734 0 $734 6.2831853071796004 $376 $735 forward 7 unknown #
vertex $-1 $379 $736 #
ellipse-curve $-1 42.863392261162787 20.602387519430273 8.0314813847647564 0.6018150307709319 0 0.79863550430605224 0.39931775215302612 0 -0.30090751538546595 1 I I #
face $-1 $-1 $395 $57 $-1 $737 reversed single #
loop $-1 $-1 $557 $380 #
plane-surface $-1 0 30.104607710117733 0 0 -1 0 0 0 -1 forward_v I I I I #
coedge $-1 $738 $555 $558 $739 forward $381 $-1 #
coedge $-1 $561 $383 $384 $549 reversed $241 $-1 #
coedge $-1 $555 $738 $383 $547 reversed $381 $-1 #
edge $-1 $562 -10.648929611672157 $740 10.648929611672157 $546 $741 forward 7 unknown #
coedge $-1 $385 $384 $738 $742 forward $153 $-1 #
edge $-1 $553 -46.336863307596055 $740 46.336863307596055 $545 $743 forward 7 unknown #
coedge $-1 $558 $557 $385 $551 reversed $542 $-1 #
edge $-1 $744 -46.336863307596055 $552 46.336863307596055 $550 $745 forward 7 unknown #
vertex $-1 $387 $746 #
vertex $-1 $564 $747 #
straight-curve $-1 46.336863307596055 0 -10.648929611672157 0 -1 0 I I #
coedge $-1 $544 $546 $388 $556 reversed $381 $-1 #
edge $-1 $559 -30.104607710117733 $562 30.104607710117733 $555 $748 forward 7 unknown #
coedge $-1 $550 $389 $394 $565 forward $542 $-1 #
coedge $-1 $389 $550 $544 $739 reversed $542 $-1 #
vertex $-1 $390 $749 #
straight-curve $-1 0 30.104607710117733 10.648929611672157 -1 0 0 I I #
coedge $-1 $391 $545 $393 $564 reversed $241 $-1 #
vertex $-1 $556 $750 #
straight-curve $-1 0 -30.104607710117733 10.648929611672157 1 0 0 I I #
edge $-1 $396 -10.648929611672157 $553 10.648929611672157 $393 $751 forward 7 unknown #
edge $-1 $397 -10.648929611672157 $552 10.648929611672157 $394 $752 forward 7 unknown #
point $-1 46.336863307596055 -30.104607710117733 10.648929611672157 #
point $-1 46.336863307596055 30.104607710117733 10.648929611672157 #
face $-1 $-1 $753 $58 $-1 $754 reversed single #
loop $-1 $-1 $755 $399 #
plane-surface $-1 0 0 -10.648929611672157 0 0 1 1 0 0 forward_v I I I I #
coedge $-1 $578 $588 $573 $756 forward $400 $-1 #
coedge $-1 $405 $402 $755 $757 reversed $249 $-1 #
coedge $-1 $402 $405 $571 $756 reversed $249 $-1 #
coedge $-1 $758 $759 $402 $575 forward $753 $-1 #
edge $-1 $760 -10.648929611672157 $761 10.648929611672157 $574 $762 forward 7 unknown #
coedge $-1 $755 $408 $403 $577 forward $569 $-1 #
edge $-1 $413 -23.840475498146173 $581 -20.152300120753591 $576 $763 forward 7 unknown #
coedge $-1 $410 $571 $404 $579 forward $400 $-1 #
edge $-1 $580 20.152300120753591 $412 23.840475498146173 $578 $764 forward 7 unknown #
vertex $-1 $579 $765 #
vertex $-1 $577 $766 #
straight-curve $-1 -42.148687930203472 -21.894243005815014 0 0 0 -1 I I #
coedge $-1 $759 $758 $407 $584 forward $753 $-1 #
edge $-1 $589 -10.648929611672157 $586 10.648929611672157 $583 $767 forward 7 unknown #
coedge $-1 $408 $755 $759 $768 forward $569 $-1 #
vertex $-1 $409 $769 #
straight-curve $-1 -45.836863307596055 -12.999712678983187 -10.648929611672157 0 1 0 I I #
coedge $-1 $571 $410 $758 $770 forward $400 $-1 #
vertex $-1 $770 $771 #
straight-curve $-1 -45.836863307596055 -12.999712678983187 10.648929611672157 0 -1 0 I I #
point $-1 -45.836863307596055 -21.894243005815014 10.648929611672157 #
point $-1 -45.836863307596055 -21.894243005815014 -10.648929611672157 #
face $-1 $-1 $606 $59 $-1 $772 reversed single #
loop $-1 $-1 $612 $415 #
plane-surface $-1 0 0 10.648929611672157 0 0 1 1 0 0 forward_v I I I I #
coedge $-1 $424 $773 $597 $774 forward $416 $-1 #
coedge $-1 $775 $418 $596 $774 reversed $257 $-1 #
coedge $-1 $418 $775 $612 $776 reversed $257 $-1 #
edge $-1 $613 -10.648929611672157 $610 10.648929611672157 $418 $777 forward 7 unknown #
coedge $-1 $773 $424 $419 $601 forward $416 $-1 #
edge $-1 $429 8.894530326831827 $607 17.104895031134546 $600 $778 forward 7 unknown #
coedge $-1 $426 $779 $420 $603 forward $594 $-1 #
edge $-1 $608 -17.104895031134546 $428 -8.894530326831827 $602 $780 forward 7 unknown #
coedge $-1 $781 $421 $779 $782 reversed $606 $-1 #
coedge $-1 $421 $781 $773 $783 reversed $606 $-1 #
loop $-1 $-1 $781 $593 #
vertex $-1 $783 $784 #
vertex $-1 $422 $785 #
straight-curve $-1 -45.836863307596055 30.104607710117733 0 0 0 1 I I #
vertex $-1 $425 $786 #
straight-curve $-1 -21.996387809449882 21.894243005815014 -10.648929611672157 -1 0 0 I I #
coedge $-1 $779 $426 $598 $776 forward $594 $-1 #
vertex $-1 $427 $787 #
straight-curve $-1 -21.996387809449882 21.894243005815014 10.648929611672157 1 0 0 I I #
point $-1 -45.836863307596055 21.894243005815014 10.648929611672157 #
point $-1 -45.836863307596055 21.894243005815014 -10.648929611672157 #
plane-surface $-1 0 0 10.648929611672157 0 0 1 1 0 0 forward_v I I I I #
coedge $-1 $628 $627 $620 $788 forward $432 $-1 #
coedge $-1 $620 $434 $436 $624 reversed $265 $-1 #
coedge $-1 $434 $619 $618 $788 reversed $265 $-1 #
coedge $-1 $442 $437 $434 $622 forward $443 $-1 #
edge $-1 $625 -5.8271846459041754 $789 -0.69681753898088772 $621 $790 forward 7 unknown #
coedge $-1 $436 $435 $628 $791 reversed $165 $-1 #
edge $-1 $792 8.3777685069199533e-015 $625 5.9852576356565095 $619 $793 forward 7 unknown #
vertex $-1 $438 $794 #
straight-curve $-1 -41.206496200672774 -6.0335599756429872 10.648929611672157 0 1 0 I I #
coedge $-1 $618 $439 $442 $632 reversed $432 $-1 #
coedge $-1 $439 $618 $623 $791 forward $432 $-1 #
vertex $-1 $440 $795 #
straight-curve $-1 -46.336863307596055 -16.267250229511376 43.50159085370133 0 0 1 I I #
straight-curve $-1 -46.336863307596062 -16.267250229511376 7.5662940001565744 -0.85716729658548041 0 -0.51503808176128008 I I #
edge $-1 $789 7.8669896730605728 $444 16.267250229511376 $627 $796 forward 7 unknown #
point $-1 -46.336863307596055 -16.267250229511376 10.648929611672157 #
point $-1 -41.206496200672767 -16.267250229511376 10.648929611672157 #
edge $-1 $797 1 $797 0 $447 $-1 forward 7 unknown #
vertex $-1 $448 $798 #
ellipse-curve $-1 -43.256641672373107 -14.587198118221215 8.2504445093288723 -0.51503808176128008 0 0.85716729658548041 0.4285836482927402 0 0.25751904088064004 1 I I #
point $-1 -43.343096105841646 -14.587198118221215 9.3651308467949921 #
edge $-1 $799 1 $799 0 $451 $-1 forward 7 unknown #
vertex $-1 $452 $800 #
ellipse-curve $-1 -43.256641672373107 -12.067119951285974 8.2504445093288723 -0.51503808176128008 0 0.85716729658548041 0.4285836482927402 0 0.25751904088064004 1 I I #
point $-1 -43.343096105841646 -12.067119951285974 9.3651308467949921 #
edge $-1 $801 1 $801 0 $455 $-1 forward 7 unknown #
vertex $-1 $456 $802 #
ellipse-curve $-1 -43.256641672373107 -9.547041784350732 8.2504445093288723 -0.51503808176128008 0 0.85716729658548041 0.4285836482927402 0 0.25751904088064004 1 I I #
point $-1 -43.343096105841646 -9.547041784350732 9.3651308467949921 #
loop $-1 $-1 $467 $459 #
plane-surface $-1 -46.336863307596055 0 0 1 0 0 0 0 -1 forward_v I I I I #
coedge $-1 $650 $462 $464 $654 reversed $294 $-1 #
coedge $-1 $462 $649 $803 $804 reversed $294 $-1 #
coedge $-1 $470 $465 $462 $652 forward $460 $-1 #
edge $-1 $655 -5.8271846459041754 $805 -0.69681753898088772 $651 $806 forward 7 unknown #
coedge $-1 $464 $463 $658 $807 reversed $184 $-1 #
edge $-1 $808 8.3777685069199533e-015 $655 5.9852576356565095 $649 $809 forward 7 unknown #
vertex $-1 $466 $810 #
straight-curve $-1 -41.206496200672774 6.0335599756429907 10.648929611672157 0 1 0 I I #
coedge $-1 $803 $467 $470 $662 reversed $647 $-1 #
coedge $-1 $467 $803 $653 $807 forward $647 $-1 #
vertex $-1 $468 $811 #
straight-curve $-1 -46.336863307596055 7.8669896730605799 43.50159085370133 0 0 1 I I #
straight-curve $-1 -46.336863307596062 7.8669896730605799 7.5662940001565744 -0.85716729658548041 0 -0.51503808176128008 I I #
edge $-1 $805 -16.267250229511383 $471 -7.8669896730605799 $657 $812 forward 7 unknown #
point $-1 -46.336863307596055 7.8669896730605799 10.648929611672157 #
point $-1 -41.206496200672767 7.8669896730605799 10.648929611672157 #
edge $-1 $813 1 $813 0 $474 $-1 forward 7 unknown #
vertex $-1 $475 $814 #
ellipse-curve $-1 -43.256641672373107 9.5470417843507391 8.2504445093288723 -0.51503808176128008 0 0.85716729658548041 0.4285836482927402 0 0.25751904088064004 1 I I #
point $-1 -43.343096105841646 9.5470417843507391 9.3651308467949921 #
edge $-1 $815 1 $815 0 $478 $-1 forward 7 unknown #
vertex $-1 $479 $816 #
ellipse-curve $-1 -43.256641672373107 12.067119951285981 8.2504445093288723 -0.51503808176128008 0 0.85716729658548041 0.4285836482927402 0 0.25751904088064004 1 I I #
point $-1 -43.343096105841646 12.067119951285981 9.3651308467949921 #
edge $-1 $817 1 $817 0 $482 $-1 forward 7 unknown #
vertex $-1 $483 $818 #
ellipse-curve $-1 -43.256641672373107 14.587198118221224 8.2504445093288723 -0.51503808176128008 0 0.85716729658548041 0.4285836482927402 0 0.25751904088064004 1 I I #
point $-1 -43.343096105841646 14.587198118221224 9.3651308467949921 #
loop $-1 $-1 $494 $486 #
plane-surface $-1 46.336863307596055 0 0 -1 0 0 0 0 1 forward_v I I I I #
coedge $-1 $680 $489 $491 $684 reversed $323 $-1 #
coedge $-1 $489 $679 $819 $820 reversed $323 $-1 #
coedge $-1 $497 $492 $489 $682 forward $487 $-1 #
edge $-1 $685 25.341532939264706 $821 32.288475032131231 $681 $822 forward 7 unknown #
coedge $-1 $491 $490 $688 $823 reversed $203 $-1 #
edge $-1 $824 -92.673726615192123 $685 -83.975212643035533 $679 $825 forward 7 unknown #
vertex $-1 $493 $826 #
straight-curve $-1 39.389921214729526 -1.6148193579809291 10.648929611672159 0 -1 0 I I #
coedge $-1 $819 $494 $497 $692 reversed $677 $-1 #
coedge $-1 $494 $819 $683 $823 forward $677 $-1 #
vertex $-1 $495 $827 #
straight-curve $-1 46.336863307596055 3.5527136788005009e-015 67.599501591840649 0 0 1 I I #
straight-curve $-1 -27.675665083649115 3.5527136788005009e-015 61.18647479243613 0.79863550430605224 0 -0.6018150307709319 I I #
edge $-1 $821 -6.4592774319237201 $498 3.5527136788005009e-015 $687 $828 forward 7 unknown #
point $-1 46.336863307596055 3.5527136788005009e-015 10.648929611672157 #
point $-1 39.389921214729533 3.5527136788005009e-015 10.648929611672159 #
edge $-1 $829 1 $829 0 $501 $-1 forward 7 unknown #
vertex $-1 $502 $830 #
ellipse-curve $-1 42.101770333735523 -5.167421945538976 7.0207749700010167 0.6018150307709319 0 0.79863550430605224 0.39931775215302612 0 -0.30090751538546595 1 I I #
point $-1 43.262710013315811 -5.167421945538976 7.7305738693792874 #
edge $-1 $831 1 $831 0 $505 $-1 forward 7 unknown #
vertex $-1 $506 $832 #
ellipse-curve $-1 42.101770333735523 -3.2296387159618583 7.0207749700010167 0.6018150307709319 0 0.79863550430605224 0.39931775215302612 0 -0.30090751538546595 1 I I #
point $-1 43.262710013315811 -3.2296387159618583 7.7305738693792874 #
edge $-1 $833 1 $833 0 $509 $-1 forward 7 unknown #
vertex $-1 $510 $834 #
ellipse-curve $-1 42.101770333735523 -1.2918554863847405 7.0207749700010167 0.6018150307709319 0 0.79863550430605224 0.39931775215302612 0 -0.30090751538546595 1 I I #
point $-1 43.262710013315811 -1.2918554863847405 7.7305738693792874 #
plane-surface $-1 0 0 10.648929611672157 0 0 1 1 0 0 forward_v I I I I #
coedge $-1 $718 $717 $710 $835 forward $514 $-1 #
coedge $-1 $710 $516 $518 $714 reversed $352 $-1 #
coedge $-1 $516 $709 $708 $835 reversed $352 $-1 #
coedge $-1 $524 $519 $516 $712 forward $525 $-1 #
edge $-1 $715 25.341532939264706 $836 32.288475032131231 $711 $837 forward 7 unknown #
coedge $-1 $518 $517 $718 $838 reversed $222 $-1 #
edge $-1 $839 -92.673726615192123 $715 -83.975212643035533 $709 $840 forward 7 unknown #
vertex $-1 $520 $841 #
straight-curve $-1 39.389921214729526 9.3323021449265795 10.648929611672159 0 -1 0 I I #
coedge $-1 $708 $521 $524 $722 reversed $514 $-1 #
coedge $-1 $521 $708 $713 $838 forward $514 $-1 #
vertex $-1 $522 $842 #
straight-curve $-1 46.336863307596055 21.894243005815021 67.599501591840649 0 0 1 I I #
straight-curve $-1 -27.675665083649115 21.894243005815021 61.18647479243613 0.79863550430605224 0 -0.6018150307709319 I I #
edge $-1 $836 15.434965573891297 $526 21.894243005815021 $717 $843 forward 7 unknown #
point $-1 46.336863307596055 21.894243005815021 10.648929611672157 #
point $-1 39.389921214729533 21.894243005815021 10.648929611672159 #
edge $-1 $844 1 $844 0 $529 $-1 forward 7 unknown #
vertex $-1 $530 $845 #
ellipse-curve $-1 42.101770333735523 16.726821060276038 7.0207749700010167 0.6018150307709319 0 0.79863550430605224 0.39931775215302612 0 -0.30090751538546595 1 I I #
point $-1 43.262710013315811 16.726821060276038 7.7305738693792874 #
edge $-1 $846 1 $846 0 $533 $-1 forward 7 unknown #
vertex $-1 $534 $847 #
ellipse-curve $-1 42.101770333735523 18.664604289853159 7.0207749700010167 0.6018150307709319 0 0.79863550430605224 0.39931775215302612 0 -0.30090751538546595 1 I I #
point $-1 43.262710013315811 18.664604289853159 7.7305738693792874 #
edge $-1 $848 1 $848 0 $537 $-1 forward 7 unknown #
vertex $-1 $538 $849 #
ellipse-curve $-1 42.101770333735523 20.602387519430273 7.0207749700010167 0.6018150307709319 0 0.79863550430605224 0.39931775215302612 0 -0.30090751538546595 1 I I #
point $-1 43.262710013315811 20.602387519430273 7.7305738693792874 #
plane-surface $-1 46.336863307596055 0 0 -1 0 0 0 0 1 forward_v I I I I #
coedge $-1 $546 $544 $548 $742 reversed $381 $-1 #
edge $-1 $559 -10.648929611672157 $744 10.648929611672157 $558 $850 forward 7 unknown #
vertex $-1 $742 $851 #
straight-curve $-1 -46.336863307596055 -30.104607710117733 0 0 0 -1 I I #
edge $-1 $740 -30.104607710117733 $744 30.104607710117733 $738 $852 forward 7 unknown #
straight-curve $-1 0 -30.104607710117733 -10.648929611672157 -1 0 0 I I #
vertex $-1 $551 $853 #
straight-curve $-1 0 30.104607710117733 -10.648929611672157 1 0 0 I I #
point $-1 46.336863307596055 30.104607710117733 -10.648929611672157 #
point $-1 46.336863307596055 -30.104607710117733 -10.648929611672157 #
straight-curve $-1 -46.336863307596055 0 10.648929611672157 0 -1 0 I I #
point $-1 -46.336863307596055 30.104607710117733 10.648929611672157 #
point $-1 -46.336863307596055 -30.104607710117733 10.648929611672157 #
straight-curve $-1 46.336863307596055 -30.104607710117733 0 0 0 -1 I I #
straight-curve $-1 46.336863307596055 30.104607710117733 0 0 0 -1 I I #
loop $-1 $-1 $574 $568 #
plane-surface $-1 0 -30.104607710117733 0 0 1 0 0 0 1 forward_v I I I I #
coedge $-1 $585 $576 $572 $757 forward $569 $-1 #
edge $-1 $761 -17.104895031134546 $580 -8.894530326831827 $571 $854 forward 7 unknown #
edge $-1 $581 8.894530326831827 $760 17.104895031134546 $755 $855 forward 7 unknown #
coedge $-1 $583 $574 $588 $770 reversed $753 $-1 #
coedge $-1 $574 $583 $585 $768 reversed $753 $-1 #
vertex $-1 $768 $856 #
vertex $-1 $575 $857 #
straight-curve $-1 -42.148687930203472 -30.104607710117733 0 0 0 1 I I #
straight-curve $-1 -21.996387809449882 -21.894243005815014 -10.648929611672157 1 0 0 I I #
straight-curve $-1 -21.996387809449882 -21.894243005815014 10.648929611672157 -1 0 0 I I #
point $-1 -42.148687930203472 -21.894243005815014 10.648929611672157 #
point $-1 -42.148687930203472 -21.894243005815014 -10.648929611672157 #
straight-curve $-1 -45.836863307596055 -30.104607710117733 0 0 0 -1 I I #
edge $-1 $760 42.148687930203472 $586 45.836863307596055 $759 $858 forward 7 unknown #
point $-1 -45.836863307596055 -30.104607710117733 -10.648929611672157 #
edge $-1 $589 -45.836863307596055 $761 -42.148687930203472 $758 $859 forward 7 unknown #
point $-1 -45.836863307596055 -30.104607710117733 10.648929611672157 #
plane-surface $-1 0 30.104607710117733 0 0 -1 0 0 0 -1 forward_v I I I I #
coedge $-1 $596 $600 $605 $783 forward $416 $-1 #
edge $-1 $860 -17.104895031134546 $610 -8.894530326831827 $596 $861 forward 7 unknown #
coedge $-1 $598 $597 $781 $862 reversed $257 $-1 #
edge $-1 $613 8.894530326831827 $863 17.104895031134546 $612 $864 forward 7 unknown #
straight-curve $-1 -42.148687930203472 21.894243005815014 0 0 0 -1 I I #
straight-curve $-1 -45.836863307596055 12.999712678983187 -10.648929611672157 0 1 0 I I #
coedge $-1 $602 $612 $604 $782 forward $594 $-1 #
straight-curve $-1 -45.836863307596055 12.999712678983187 10.648929611672157 0 -1 0 I I #
coedge $-1 $605 $604 $775 $862 forward $606 $-1 #
edge $-1 $863 42.148687930203472 $608 45.836863307596055 $604 $865 forward 7 unknown #
edge $-1 $607 -45.836863307596055 $860 -42.148687930203472 $605 $866 forward 7 unknown #
point $-1 -45.836863307596055 30.104607710117733 -10.648929611672157 #
point $-1 -45.836863307596055 30.104607710117733 10.648929611672157 #
point $-1 -42.148687930203472 21.894243005815014 -10.648929611672157 #
point $-1 -42.148687930203472 21.894243005815014 10.648929611672157 #
edge $-1 $789 32.852661242029171 $792 35.935296853544749 $618 $867 forward 7 unknown #
vertex $-1 $632 $868 #
straight-curve $-1 -47.033680846576942 -7.8669896730605728 10.648929611672159 -1 0 0 I I #
edge $-1 $792 1.8334296974175857 $629 10.233690253868389 $628 $869 forward 7 unknown #
vertex $-1 $791 $870 #
straight-curve $-1 -46.336863307596062 -7.8669896730605728 7.5662940001565744 0.85716729658548041 0 0.51503808176128008 I I #
point $-1 -41.206496200672767 -7.8669896730605728 10.648929611672157 #
point $-1 -46.336863307596055 -16.267250229511376 7.5662940001565788 #
straight-curve $-1 -46.336863307596055 0 10.648929611672157 0 -1 0 I I #
vertex $-1 $635 $871 #
point $-1 -42.82805802408037 -14.587198118221215 8.5079635502095119 #
vertex $-1 $639 $872 #
point $-1 -42.82805802408037 -12.067119951285974 8.5079635502095119 #
vertex $-1 $643 $873 #
point $-1 -42.82805802408037 -9.547041784350732 8.5079635502095119 #
coedge $-1 $658 $657 $650 $804 forward $647 $-1 #
edge $-1 $805 32.852661242029171 $808 35.935296853544749 $803 $874 forward 7 unknown #
vertex $-1 $662 $875 #
straight-curve $-1 -47.033680846576942 16.267250229511383 10.648929611672159 -1 0 0 I I #
edge $-1 $808 -10.233690253868392 $659 -1.8334296974175892 $658 $876 forward 7 unknown #
vertex $-1 $807 $877 #
straight-curve $-1 -46.336863307596062 16.267250229511383 7.5662940001565744 0.85716729658548041 0 0.51503808176128008 I I #
point $-1 -41.206496200672767 16.267250229511383 10.648929611672157 #
point $-1 -46.336863307596055 7.8669896730605799 7.5662940001565788 #
straight-curve $-1 -46.336863307596055 0 10.648929611672157 0 -1 0 I I #
vertex $-1 $665 $878 #
point $-1 -42.82805802408037 9.5470417843507391 8.5079635502095119 #
vertex $-1 $669 $879 #
point $-1 -42.82805802408037 12.067119951285981 8.5079635502095119 #
vertex $-1 $673 $880 #
point $-1 -42.82805802408037 14.587198118221224 8.5079635502095119 #
coedge $-1 $688 $687 $680 $820 forward $677 $-1 #
edge $-1 $821 56.95057198016849 $824 62.185468433983289 $819 $881 forward 7 unknown #
vertex $-1 $692 $882 #
straight-curve $-1 14.048388275464827 -6.4592774319237201 10.648929611672159 1 0 0 I I #
edge $-1 $824 -4.8444580739427909 $689 1.6148193579809327 $688 $883 forward 7 unknown #
vertex $-1 $823 $884 #
straight-curve $-1 -27.675665083649115 -6.4592774319237201 61.18647479243613 -0.79863550430605224 0 0.6018150307709319 I I #
point $-1 39.389921214729533 -6.4592774319237201 10.648929611672159 #
point $-1 46.336863307596055 3.5527136788005009e-015 5.4140331578573608 #
straight-curve $-1 46.336863307596055 0 10.648929611672157 0 1 0 I I #
vertex $-1 $695 $885 #
point $-1 42.501088085888554 -5.167421945538976 6.7198674546155512 #
vertex $-1 $699 $886 #
point $-1 42.501088085888554 -3.2296387159618583 6.7198674546155512 #
vertex $-1 $703 $887 #
point $-1 42.501088085888554 -1.2918554863847405 6.7198674546155512 #
edge $-1 $836 56.95057198016849 $839 62.185468433983289 $708 $888 forward 7 unknown #
vertex $-1 $722 $889 #
straight-curve $-1 14.048388275464827 15.434965573891297 10.648929611672159 1 0 0 I I #
edge $-1 $839 6.1026634289647177 $719 12.561940860888441 $718 $890 forward 7 unknown #
vertex $-1 $838 $891 #
straight-curve $-1 -27.675665083649115 15.434965573891297 61.18647479243613 -0.79863550430605224 0 0.6018150307709319 I I #
point $-1 39.389921214729533 15.434965573891297 10.648929611672159 #
point $-1 46.336863307596055 21.894243005815021 5.4140331578573608 #
straight-curve $-1 46.336863307596055 0 10.648929611672157 0 1 0 I I #
vertex $-1 $725 $892 #
point $-1 42.501088085888554 16.726821060276038 6.7198674546155512 #
vertex $-1 $729 $893 #
point $-1 42.501088085888554 18.664604289853159 6.7198674546155512 #
vertex $-1 $733 $894 #
point $-1 42.501088085888554 20.602387519430273 6.7198674546155512 #
straight-curve $-1 -46.336863307596055 30.104607710117733 0 0 0 -1 I I #
point $-1 -46.336863307596055 -30.104607710117733 -10.648929611672157 #
straight-curve $-1 -46.336863307596055 0 -10.648929611672157 0 1 0 I I #
point $-1 -46.336863307596055 30.104607710117733 -10.648929611672157 #
straight-curve $-1 -42.148687930203472 -12.999712678983187 10.648929611672157 0 1 0 I I #
straight-curve $-1 -42.148687930203472 -12.999712678983187 -10.648929611672157 0 -1 0 I I #
point $-1 -42.148687930203472 -30.104607710117733 -10.648929611672157 #
point $-1 -42.148687930203472 -30.104607710117733 10.648929611672157 #
straight-curve $-1 0 -30.104607710117733 -10.648929611672157 -1 0 0 I I #
straight-curve $-1 0 -30.104607710117733 10.648929611672157 1 0 0 I I #
vertex $-1 $862 $895 #
straight-curve $-1 -42.148687930203472 12.999712678983187 -10.648929611672157 0 -1 0 I I #
edge $-1 $863 -10.648929611672157 $860 10.648929611672157 $781 $896 forward 7 unknown #
vertex $-1 $782 $897 #
straight-curve $-1 -42.148687930203472 12.999712678983187 10.648929611672157 0 1 0 I I #
straight-curve $-1 0 30.104607710117733 10.648929611672157 -1 0 0 I I #
straight-curve $-1 0 30.104607710117733 -10.648929611672157 1 0 0 I I #
straight-curve $-1 -46.336863307596055 -7.8669896730605728 43.50159085370133 0 0 -1 I I #
point $-1 -46.336863307596055 -7.8669896730605728 10.648929611672157 #
straight-curve $-1 -46.336863307596055 -6.0335599756429872 7.5662940001565788 0 -1 0 I I #
point $-1 -46.336863307596055 -7.8669896730605728 7.5662940001565788 #
point $-1 -42.999122631492469 -14.587198118221215 7.8218608610361322 #
point $-1 -42.999122631492469 -12.067119951285974 7.8218608610361322 #
point $-1 -42.999122631492469 -9.547041784350732 7.8218608610361322 #
straight-curve $-1 -46.336863307596055 16.267250229511383 43.50159085370133 0 0 -1 I I #
point $-1 -46.336863307596055 16.267250229511383 10.648929611672157 #
straight-curve $-1 -46.336863307596055 6.0335599756429907 7.5662940001565788 0 -1 0 I I #
point $-1 -46.336863307596055 16.267250229511383 7.5662940001565788 #
point $-1 -42.999122631492469 9.5470417843507391 7.8218608610361322 #
point $-1 -42.999122631492469 12.067119951285981 7.8218608610361322 #
point $-1 -42.999122631492469 14.587198118221224 7.8218608610361322 #
straight-curve $-1 46.336863307596055 -6.4592774319237201 67.599501591840649 0 0 -1 I I #
point $-1 46.336863307596055 -6.4592774319237201 10.648929611672157 #
straight-curve $-1 46.336863307596055 -1.6148193579809291 5.4140331578573573 0 1 0 I I #
point $-1 46.336863307596055 -6.4592774319237201 5.4140331578573608 #
point $-1 41.800862818350062 -5.167421945538976 6.6214572178479907 #
point $-1 41.800862818350062 -3.2296387159618583 6.6214572178479907 #
point $-1 41.800862818350062 -1.2918554863847405 6.6214572178479907 #
straight-curve $-1 46.336863307596055 15.434965573891297 67.599501591840649 0 0 -1 I I #
point $-1 46.336863307596055 15.434965573891297 10.648929611672157 #
straight-curve $-1 46.336863307596055 9.3323021449265795 5.4140331578573573 0 1 0 I I #
point $-1 46.336863307596055 15.434965573891297 5.4140331578573608 #
point $-1 41.800862818350062 16.726821060276038 6.6214572178479907 #
point $-1 41.800862818350062 18.664604289853159 6.6214572178479907 #
point $-1 41.800862818350062 20.602387519430273 6.6214572178479907 #
point $-1 -42.148687930203472 30.104607710117733 -10.648929611672157 #
straight-curve $-1 -42.148687930203472 30.104607710117733 0 0 0 -1 I I #
point $-1 -42.148687930203472 30.104607710117733 10.648929611672157 #
End-of-ACIS-data 