500 0 8 0           
7 Unknown 11 ACIS 5.0 NT 24 Thu Mar 25 15:13:41 1999 
-1 9.9999999999999995e-007 1e-010 
body $-1 $8 $-1 $9 #
body $-1 $10 $-1 $11 #
body $-1 $12 $-1 $13 #
body $-1 $14 $-1 $15 #
body $-1 $16 $-1 $17 #
body $-1 $18 $-1 $19 #
body $-1 $20 $-1 $21 #
body $-1 $22 $-1 $23 #
lump $-1 $-1 $24 $0 #
transform $-1 1 0 0 0 1 0 0 0 1 54.769737846003601 31.941352744169613 6.5687064872153984 1 rotate no_reflect no_shear #
lump $-1 $-1 $25 $1 #
transform $-1 1 0 0 0 1 0 0 0 1 54.769737846003601 31.941352744169613 6.5687064872153984 1 rotate no_reflect no_shear #
lump $-1 $-1 $26 $2 #
transform $-1 1 0 0 0 1 0 0 0 1 54.769737846003601 31.941352744169613 6.5687064872153984 1 rotate no_reflect no_shear #
lump $-1 $-1 $27 $3 #
transform $-1 1 0 0 0 1 0 0 0 1 54.769737846003601 31.941352744169613 6.5687064872153984 1 rotate no_reflect no_shear #
lump $-1 $-1 $28 $4 #
transform $-1 1 0 0 0 1 0 0 0 1 54.769737846003601 31.941352744169613 6.5687064872153984 1 rotate no_reflect no_shear #
lump $-1 $-1 $29 $5 #
transform $-1 1 0 0 0 1 0 0 0 1 54.769737846003601 31.941352744169613 6.5687064872153984 1 rotate no_reflect no_shear #
lump $-1 $-1 $30 $6 #
transform $-1 1 0 0 0 1 0 0 0 1 54.769737846003601 31.941352744169613 6.5687064872153984 1 rotate no_reflect no_shear #
lump $-1 $-1 $31 $7 #
transform $-1 1 0 0 0 1 0 0 0 1 54.769737846003601 31.941352744169613 6.5687064872153984 1 rotate no_reflect no_shear #
shell $-1 $-1 $-1 $32 $-1 $8 #
shell $-1 $-1 $-1 $33 $-1 $10 #
shell $-1 $-1 $-1 $34 $-1 $12 #
shell $-1 $-1 $-1 $35 $-1 $14 #
shell $-1 $-1 $-1 $36 $-1 $16 #
shell $-1 $-1 $-1 $37 $-1 $18 #
shell $-1 $-1 $-1 $38 $-1 $20 #
shell $-1 $-1 $-1 $39 $-1 $22 #
face $-1 $40 $41 $24 $-1 $42 forward single #
face $-1 $43 $44 $25 $-1 $45 reversed single #
face $-1 $46 $47 $26 $-1 $48 reversed single #
face $-1 $49 $50 $27 $-1 $51 reversed single #
face $-1 $52 $53 $28 $-1 $54 forward single #
face $-1 $55 $56 $29 $-1 $57 forward single #
face $-1 $58 $59 $30 $-1 $60 reversed single #
face $-1 $61 $62 $31 $-1 $63 forward single #
face $-1 $64 $65 $24 $-1 $66 reversed single #
loop $-1 $-1 $67 $32 #
plane-surface $-1 0 0 6.5687064872153984 0 0 1 1 0 0 forward_v I I I I #
face $-1 $68 $69 $25 $-1 $70 reversed single #
loop $-1 $-1 $71 $33 #
plane-surface $-1 -51.551139826092651 0 3.0422891827137333 0 0 1 1 0 0 forward_v I I I I #
face $-1 $72 $73 $26 $-1 $74 reversed single #
loop $-1 $-1 $75 $34 #
plane-surface $-1 51.551139826092658 0 3.0422891827137333 0 0 1 1 0 0 forward_v I I I I #
face $-1 $76 $77 $27 $-1 $78 reversed single #
loop $-1 $-1 $79 $35 #
plane-surface $-1 -21.322075697823397 44.644847884167383 128.69731902701315 1 0 0 0 -0.5877852598018023 -0.80901698891910034 forward_v I I I I #
face $-1 $80 $81 $28 $-1 $82 forward single #
loop $-1 $83 $84 $36 #
cone-surface $-1 -13.983892382400668 28.523239224777722 3.670818316503655 0 -0.5877852598018023 -0.80901698891910034 1 0 0 1 I I 0 1 1 forward I I I I #
face $-1 $85 $86 $29 $-1 $87 forward single #
loop $-1 $88 $89 $37 #
cone-surface $-1 -2.9766174092665878 28.523239224777722 3.670818316503655 0 -0.5877852598018023 -0.80901698891910034 1 0 0 1 I I 0 1 1 forward I I I I #
face $-1 $90 $91 $30 $-1 $92 reversed single #
loop $-1 $-1 $93 $38 #
plane-surface $-1 31.211894489713963 -89.988431873816097 95.506879215937872 -1 0 0 0 -0.52991927123019833 0.84804809178421925 forward_v I I I I #
face $-1 $94 $95 $31 $-1 $96 forward single #
loop $-1 $97 $98 $39 #
cone-surface $-1 25.285342784551524 -28.303202010890185 3.8346912029749838 0 0.52991927123019833 -0.84804809178421925 0.5 0 0 1 I I 0 1 0.5 forward I I I I #
face $-1 $99 $100 $24 $-1 $101 reversed single #
loop $-1 $-1 $102 $40 #
plane-surface $-1 0 0 -6.5687064872153984 0 0 1 1 0 0 forward_v I I I I #
coedge $-1 $103 $104 $105 $106 forward $41 $-1 #
face $-1 $107 $108 $25 $-1 $109 reversed single #
loop $-1 $-1 $110 $43 #
plane-surface $-1 -48.332541806181709 0 4.8054978349645667 -1 0 0 0 0 1 forward_v I I I I #
coedge $-1 $111 $112 $113 $114 forward $44 $-1 #
face $-1 $115 $116 $26 $-1 $117 forward single #
loop $-1 $-1 $118 $46 #
plane-surface $-1 48.332541806181709 0 4.8054978349645667 1 0 0 0 0 -1 forward_v I I I I #
coedge $-1 $119 $120 $121 $122 reversed $47 $-1 #
face $-1 $123 $124 $27 $-1 $125 reversed single #
loop $-1 $-1 $126 $49 #
plane-surface $-1 -8.4802548958336317 -19.740841294012277 40.078022234888493 0 0.5877852598018023 0.80901698891910034 1 0 0 forward_v I I I I #
coedge $-1 $127 $128 $129 $130 reversed $50 $-1 #
face $-1 $-1 $131 $28 $-1 $132 forward single #
loop $-1 $133 $134 $52 #
cone-surface $-1 -13.983892382400668 27.591522363481126 2.3884200986485551 0 -0.5877852598018023 -0.80901698891910034 0.5 0 0 1 I I -0.70710678118654746 0.70710678118654746 0.5 forward I I I I #
loop $-1 $-1 $135 $36 #
coedge $-1 $84 $84 $136 $137 reversed $53 $-1 #
face $-1 $-1 $138 $29 $-1 $139 forward single #
loop $-1 $140 $141 $55 #
cone-surface $-1 -2.9766174092665878 27.591522363481126 2.3884200986485551 0 -0.5877852598018023 -0.80901698891910034 0.5 0 0 1 I I -0.70710678118654746 0.70710678118654746 0.5 forward I I I I #
loop $-1 $-1 $142 $37 #
coedge $-1 $89 $89 $143 $144 reversed $56 $-1 #
face $-1 $145 $146 $30 $-1 $147 reversed single #
loop $-1 $-1 $148 $58 #
plane-surface $-1 25.285342784551524 -31.941352744169613 2.6121358802872976 0 -0.52991927123019833 0.84804809178421925 1 0 0 forward_v I I I I #
coedge $-1 $149 $150 $151 $152 reversed $59 $-1 #
face $-1 $-1 $153 $31 $-1 $154 forward single #
loop $-1 $155 $156 $61 #
cone-surface $-1 25.285342784551524 -27.698489681106508 2.866949199252562 0 0.52991927123019833 -0.84804809178421925 0.25 0 0 1 I I -0.70710678118654746 0.70710678118654746 0.25 forward I I I I #
loop $-1 $-1 $157 $39 #
coedge $-1 $98 $98 $158 $159 reversed $62 $-1 #
face $-1 $160 $161 $24 $-1 $162 reversed single #
loop $-1 $-1 $163 $64 #
plane-surface $-1 0 -31.941352744169613 0 0 1 0 0 0 1 forward_v I I I I #
coedge $-1 $164 $165 $166 $167 forward $65 $-1 #
coedge $-1 $168 $67 $169 $170 forward $41 $-1 #
coedge $-1 $67 $168 $171 $172 forward $41 $-1 #
coedge $-1 $173 $174 $67 $106 reversed $175 $-1 #
edge $-1 $176 -31.941352744169613 $177 31.941352744169613 $105 $178 forward 7 unknown #
face $-1 $179 $180 $25 $-1 $181 reversed single #
loop $-1 $-1 $182 $68 #
plane-surface $-1 0 31.941352744169613 0 0 -1 0 0 0 -1 forward_v I I I I #
coedge $-1 $113 $183 $184 $185 reversed $69 $-1 #
coedge $-1 $186 $71 $187 $188 reversed $44 $-1 #
coedge $-1 $71 $186 $189 $190 reversed $44 $-1 #
coedge $-1 $191 $110 $71 $114 reversed $69 $-1 #
edge $-1 $192 -31.941352744169613 $193 31.941352744169613 $113 $194 forward 7 unknown #
face $-1 $195 $196 $26 $-1 $197 reversed single #
loop $-1 $-1 $198 $72 #
plane-surface $-1 0 0 6.5687064872153984 0 0 1 1 0 0 forward_v I I I I #
coedge $-1 $199 $200 $201 $202 reversed $73 $-1 #
coedge $-1 $203 $75 $204 $205 reversed $47 $-1 #
coedge $-1 $75 $203 $206 $207 reversed $47 $-1 #
coedge $-1 $208 $209 $75 $122 forward $210 $-1 #
edge $-1 $211 -31.941352744169613 $212 31.941352744169613 $121 $213 forward 7 unknown #
face $-1 $214 $215 $27 $-1 $216 reversed single #
loop $-1 $-1 $217 $76 #
plane-surface $-1 4.3615659061561338 44.644847884167383 128.69731902701315 -1 0 0 0 0.5877852598018023 0.80901698891910034 forward_v I I I I #
coedge $-1 $218 $219 $220 $221 reversed $77 $-1 #
coedge $-1 $128 $79 $222 $223 reversed $50 $-1 #
coedge $-1 $79 $127 $218 $224 reversed $50 $-1 #
coedge $-1 $220 $225 $79 $130 forward $226 $-1 #
edge $-1 $227 -9.6189288020859216 $228 -4.0583502260935269 $129 $229 forward 7 unknown #
loop $-1 $-1 $136 $80 #
plane-surface $-1 -8.4802548958336317 -19.740841294012277 40.078022234888493 0 0.5877852598018023 0.80901698891910034 1 0 0 forward_v I I I I #
loop $-1 $-1 $230 $52 #
coedge $-1 $134 $134 $135 $231 reversed $81 $-1 #
coedge $-1 $135 $135 $134 $231 forward $83 $-1 #
coedge $-1 $136 $136 $84 $137 forward $131 $-1 #
edge $-1 $232 -2.5814337612787292e-016 $232 6.2831853071796004 $136 $233 forward 7 unknown #
loop $-1 $-1 $143 $85 #
plane-surface $-1 -8.4802548958336317 -19.740841294012277 40.078022234888493 0 0.5877852598018023 0.80901698891910034 1 0 0 forward_v I I I I #
loop $-1 $-1 $234 $55 #
coedge $-1 $141 $141 $142 $235 reversed $86 $-1 #
coedge $-1 $142 $142 $141 $235 forward $88 $-1 #
coedge $-1 $143 $143 $89 $144 forward $138 $-1 #
edge $-1 $236 -2.5814337612787292e-016 $236 6.2831853071796004 $143 $237 forward 7 unknown #
face $-1 $238 $239 $30 $-1 $240 forward single #
loop $-1 $-1 $241 $90 #
plane-surface $-1 19.358791079389086 -89.988431873816097 95.506879215937872 1 0 0 0 0.52991927123019833 -0.84804809178421925 forward_v I I I I #
coedge $-1 $242 $243 $244 $245 reversed $91 $-1 #
coedge $-1 $150 $93 $246 $247 reversed $59 $-1 #
coedge $-1 $93 $149 $242 $248 reversed $59 $-1 #
coedge $-1 $244 $249 $93 $152 forward $239 $-1 #
edge $-1 $250 13.052863192738435 $251 19.384699635345044 $151 $252 forward 7 unknown #
loop $-1 $-1 $158 $94 #
plane-surface $-1 25.285342784551524 -31.941352744169613 2.6121358802872976 0 -0.52991927123019833 0.84804809178421925 1 0 0 forward_v I I I I #
loop $-1 $-1 $253 $61 #
coedge $-1 $156 $156 $157 $254 reversed $95 $-1 #
coedge $-1 $157 $157 $156 $254 forward $97 $-1 #
coedge $-1 $158 $158 $98 $159 forward $153 $-1 #
edge $-1 $255 -2.2604412248058798e-015 $255 6.2831853071795978 $158 $256 forward 7 unknown #
face $-1 $257 $258 $24 $-1 $259 reversed single #
loop $-1 $-1 $260 $99 #
plane-surface $-1 -54.769737846003601 0 0 1 0 0 0 0 -1 forward_v I I I I #
coedge $-1 $261 $171 $262 $263 forward $100 $-1 #
coedge $-1 $264 $102 $261 $265 forward $65 $-1 #
coedge $-1 $102 $264 $266 $267 forward $65 $-1 #
coedge $-1 $174 $173 $102 $167 reversed $175 $-1 #
edge $-1 $268 -31.941352744169613 $269 31.941352744169613 $166 $270 forward 7 unknown #
coedge $-1 $104 $103 $271 $272 forward $41 $-1 #
coedge $-1 $273 $274 $103 $170 reversed $258 $-1 #
edge $-1 $177 -54.769737846003601 $275 54.769737846003601 $169 $276 forward 7 unknown #
coedge $-1 $163 $277 $104 $172 reversed $100 $-1 #
edge $-1 $278 -54.769737846003601 $176 54.769737846003601 $171 $279 forward 7 unknown #
coedge $-1 $166 $105 $277 $280 forward $175 $-1 #
coedge $-1 $105 $166 $273 $281 reversed $175 $-1 #
loop $-1 $-1 $173 $257 #
vertex $-1 $106 $282 #
vertex $-1 $106 $283 #
straight-curve $-1 54.769737846003601 0 6.5687064872153984 0 1 0 I I #
face $-1 $284 $285 $25 $-1 $286 forward single #
loop $-1 $-1 $287 $107 #
plane-surface $-1 -54.769737846003601 0 0 1 0 0 0 0 -1 forward_v I I I I #
coedge $-1 $189 $288 $191 $289 forward $108 $-1 #
coedge $-1 $110 $191 $290 $291 reversed $69 $-1 #
coedge $-1 $292 $187 $110 $185 forward $293 $-1 #
edge $-1 $193 0.63954026523144991 $294 4.1659575697331164 $184 $295 forward 7 unknown #
coedge $-1 $112 $111 $287 $296 reversed $44 $-1 #
coedge $-1 $184 $297 $111 $188 forward $293 $-1 #
edge $-1 $298 -28.994167932957268 $193 -22.556971893135383 $187 $299 forward 7 unknown #
coedge $-1 $300 $182 $112 $190 forward $108 $-1 #
edge $-1 $192 22.556971893135383 $301 28.994167932957268 $189 $302 forward 7 unknown #
coedge $-1 $183 $113 $182 $289 reversed $69 $-1 #
vertex $-1 $190 $303 #
vertex $-1 $188 $304 #
straight-curve $-1 -48.332541806181709 0 3.0422891827137333 0 -1 0 I I #
face $-1 $305 $306 $26 $-1 $307 reversed single #
loop $-1 $-1 $308 $115 #
plane-surface $-1 0 -31.941352744169613 0 0 1 0 0 0 1 forward_v I I I I #
coedge $-1 $309 $310 $200 $311 forward $116 $-1 #
coedge $-1 $312 $118 $203 $313 reversed $73 $-1 #
coedge $-1 $118 $312 $198 $311 reversed $73 $-1 #
coedge $-1 $314 $206 $118 $202 forward $306 $-1 #
edge $-1 $315 0.63954026523144991 $316 4.1659575697331164 $201 $317 forward 7 unknown #
coedge $-1 $120 $119 $199 $313 forward $47 $-1 #
coedge $-1 $318 $308 $119 $205 forward $196 $-1 #
edge $-1 $319 22.55697189313538 $211 28.994167932957279 $204 $320 forward 7 unknown #
coedge $-1 $201 $321 $120 $207 forward $306 $-1 #
edge $-1 $212 -28.994167932957279 $315 -22.55697189313538 $206 $322 forward 7 unknown #
coedge $-1 $323 $121 $321 $324 reversed $210 $-1 #
coedge $-1 $121 $323 $318 $325 forward $210 $-1 #
loop $-1 $-1 $121 $305 #
vertex $-1 $205 $326 #
vertex $-1 $122 $327 #
straight-curve $-1 54.769737846003601 0 3.0422891827137333 0 1 0 I I #
face $-1 $-1 $226 $27 $-1 $328 forward single #
loop $-1 $-1 $329 $123 #
plane-surface $-1 0 31.941352744169613 0 0 -1 0 0 0 -1 forward_v I I I I #
coedge $-1 $330 $331 $332 $333 reversed $124 $-1 #
coedge $-1 $334 $126 $128 $224 forward $77 $-1 #
coedge $-1 $126 $334 $330 $335 forward $77 $-1 #
coedge $-1 $332 $129 $126 $221 forward $226 $-1 #
edge $-1 $228 -17.081948249906581 $336 8.6016933540729497 $220 $337 forward 7 unknown #
coedge $-1 $338 $339 $127 $223 forward $215 $-1 #
edge $-1 $340 -61.819949920923577 $227 -57.779953026291174 $222 $341 forward 7 unknown #
edge $-1 $228 57.009452327831823 $340 63.882705488339226 $128 $342 forward 7 unknown #
coedge $-1 $129 $332 $338 $343 forward $226 $-1 #
loop $-1 $-1 $332 $214 #
vertex $-1 $223 $344 #
vertex $-1 $130 $345 #
straight-curve $-1 -21.322075697823397 22.322423942083692 6.5687064872154011 0 -1 0 I I #
coedge $-1 $230 $230 $-1 $346 reversed $133 $-1 #
edge $-1 $347 0 $347 6.2831853071796004 $134 $348 forward 7 unknown #
vertex $-1 $137 $349 #
ellipse-curve $-1 -13.983892382400668 29.161063456173416 4.5487080398991999 0 0.5877852598018023 0.80901698891910034 1 0 0 1 I I #
coedge $-1 $234 $234 $-1 $350 reversed $140 $-1 #
edge $-1 $351 0 $351 6.2831853071796004 $141 $352 forward 7 unknown #
vertex $-1 $144 $353 #
ellipse-curve $-1 -2.9766174092665878 29.161063456173416 4.5487080398991999 0 0.5877852598018023 0.80901698891910034 1 0 0 1 I I #
face $-1 $-1 $354 $30 $-1 $355 reversed single #
loop $-1 $-1 $151 $145 #
plane-surface $-1 0 0 6.5687064872153984 0 0 1 1 0 0 forward_v I I I I #
coedge $-1 $356 $357 $358 $359 reversed $146 $-1 #
coedge $-1 $360 $148 $150 $248 forward $91 $-1 #
coedge $-1 $148 $360 $356 $361 forward $91 $-1 #
coedge $-1 $358 $151 $148 $245 forward $239 $-1 #
edge $-1 $251 -18.569223097438201 $362 -6.7161196871133235 $244 $363 forward 7 unknown #
coedge $-1 $364 $365 $149 $247 forward $354 $-1 #
edge $-1 $366 -45.141303727681638 $250 -41.184733120753535 $246 $367 forward 7 unknown #
edge $-1 $251 -7.466364825236476 $366 0 $150 $368 forward 7 unknown #
coedge $-1 $151 $358 $364 $369 forward $239 $-1 #
vertex $-1 $247 $370 #
vertex $-1 $152 $371 #
straight-curve $-1 31.211894489713963 -44.994215936908049 6.5687064872154011 0 1 0 I I #
coedge $-1 $253 $253 $-1 $372 reversed $155 $-1 #
edge $-1 $373 0 $373 6.2831853071796004 $156 $374 forward 7 unknown #
vertex $-1 $159 $375 #
ellipse-curve $-1 25.285342784551524 -28.775434522866313 4.5904211837513467 0 -0.52991927123019833 0.84804809178421925 0.5 0 0 1 I I #
face $-1 $-1 $175 $24 $-1 $376 reversed single #
loop $-1 $-1 $273 $160 #
plane-surface $-1 0 31.941352744169613 0 0 -1 0 0 0 -1 forward_v I I I I #
coedge $-1 $377 $271 $274 $378 forward $161 $-1 #
coedge $-1 $277 $163 $164 $265 reversed $100 $-1 #
coedge $-1 $271 $377 $163 $263 reversed $161 $-1 #
edge $-1 $278 -6.5687064872153984 $379 6.5687064872153984 $262 $380 forward 7 unknown #
coedge $-1 $165 $164 $377 $381 forward $65 $-1 #
edge $-1 $269 -54.769737846003601 $379 54.769737846003601 $261 $382 forward 7 unknown #
coedge $-1 $274 $273 $165 $267 reversed $258 $-1 #
edge $-1 $383 -54.769737846003601 $268 54.769737846003601 $266 $384 forward 7 unknown #
vertex $-1 $167 $385 #
vertex $-1 $280 $386 #
straight-curve $-1 54.769737846003601 0 -6.5687064872153984 0 -1 0 I I #
coedge $-1 $260 $262 $168 $272 reversed $161 $-1 #
edge $-1 $275 -31.941352744169613 $278 31.941352744169613 $271 $387 forward 7 unknown #
coedge $-1 $266 $169 $174 $281 forward $258 $-1 #
coedge $-1 $169 $266 $260 $378 reversed $258 $-1 #
vertex $-1 $170 $388 #
straight-curve $-1 0 31.941352744169613 6.5687064872153984 -1 0 0 I I #
coedge $-1 $171 $261 $173 $280 reversed $100 $-1 #
vertex $-1 $272 $389 #
straight-curve $-1 0 -31.941352744169613 6.5687064872153984 1 0 0 I I #
edge $-1 $176 -6.5687064872153984 $269 6.5687064872153984 $173 $390 forward 7 unknown #
edge $-1 $177 -6.5687064872153984 $268 6.5687064872153984 $174 $391 forward 7 unknown #
point $-1 54.769737846003601 -31.941352744169613 6.5687064872153984 #
point $-1 54.769737846003601 31.941352744169613 6.5687064872153984 #
face $-1 $-1 $293 $25 $-1 $392 reversed single #
loop $-1 $-1 $290 $179 #
plane-surface $-1 0 0 6.5687064872153984 0 0 1 1 0 0 forward_v I I I I #
coedge $-1 $393 $394 $186 $296 forward $180 $-1 #
coedge $-1 $182 $300 $395 $396 reversed $108 $-1 #
edge $-1 $397 -4.1659575697331164 $192 -0.63954026523144991 $182 $398 forward 7 unknown #
coedge $-1 $395 $399 $183 $291 forward $285 $-1 #
edge $-1 $294 -31.941352744169613 $397 31.941352744169613 $290 $400 forward 7 unknown #
coedge $-1 $297 $184 $399 $401 reversed $293 $-1 #
loop $-1 $-1 $184 $284 #
vertex $-1 $185 $402 #
straight-curve $-1 -48.332541806181709 -31.941352744169613 2.4027489174822834 0 0 1 I I #
edge $-1 $301 -31.941352744169613 $298 31.941352744169613 $287 $403 forward 7 unknown #
coedge $-1 $187 $292 $393 $404 forward $293 $-1 #
vertex $-1 $296 $405 #
straight-curve $-1 -25.775569913046326 -31.941352744169613 3.0422891827137333 1 0 0 I I #
coedge $-1 $288 $189 $394 $406 reversed $108 $-1 #
vertex $-1 $296 $407 #
straight-curve $-1 -25.775569913046326 31.941352744169613 3.0422891827137333 -1 0 0 I I #
point $-1 -48.332541806181709 31.941352744169613 3.0422891827137333 #
point $-1 -48.332541806181709 -31.941352744169613 3.0422891827137333 #
face $-1 $-1 $210 $26 $-1 $408 reversed single #
loop $-1 $-1 $201 $195 #
plane-surface $-1 0 31.941352744169613 0 0 -1 0 0 0 -1 forward_v I I I I #
coedge $-1 $204 $409 $312 $410 forward $196 $-1 #
coedge $-1 $411 $198 $409 $412 forward $116 $-1 #
coedge $-1 $198 $411 $314 $413 forward $116 $-1 #
edge $-1 $316 -31.941352744169613 $414 31.941352744169613 $198 $415 forward 7 unknown #
coedge $-1 $200 $199 $308 $410 reversed $73 $-1 #
edge $-1 $319 -31.941352744169613 $315 31.941352744169613 $199 $416 forward 7 unknown #
coedge $-1 $321 $201 $310 $413 reversed $306 $-1 #
vertex $-1 $207 $417 #
vertex $-1 $202 $418 #
straight-curve $-1 48.332541806181709 31.941352744169613 2.4027489174822834 0 0 1 I I #
coedge $-1 $409 $204 $209 $325 reversed $196 $-1 #
vertex $-1 $205 $419 #
straight-curve $-1 25.775569913046329 -31.941352744169613 3.0422891827137333 1 0 0 I I #
coedge $-1 $206 $314 $208 $324 forward $306 $-1 #
straight-curve $-1 25.775569913046329 31.941352744169613 3.0422891827137333 -1 0 0 I I #
coedge $-1 $209 $208 $411 $420 reversed $210 $-1 #
edge $-1 $421 -6.5687064872153984 $212 -3.0422891827137333 $208 $422 forward 7 unknown #
edge $-1 $423 -6.5687064872153984 $211 -3.0422891827137333 $209 $424 forward 7 unknown #
point $-1 54.769737846003608 -31.941352744169613 3.0422891827137333 #
point $-1 54.769737846003608 31.941352744169613 3.0422891827137333 #
plane-surface $-1 0 0 6.5687064872153984 0 0 1 1 0 0 forward_v I I I I #
coedge $-1 $339 $338 $331 $425 forward $215 $-1 #
coedge $-1 $331 $217 $219 $335 reversed $124 $-1 #
coedge $-1 $217 $330 $329 $425 reversed $124 $-1 #
coedge $-1 $225 $220 $217 $333 forward $226 $-1 #
edge $-1 $336 4.0583502260935269 $426 9.6189288020859216 $332 $427 forward 7 unknown #
coedge $-1 $219 $218 $339 $428 reversed $77 $-1 #
edge $-1 $429 -63.882705488339226 $336 -57.009452327831823 $330 $430 forward 7 unknown #
vertex $-1 $221 $431 #
straight-curve $-1 -4.2401274479168158 26.380774168177226 6.5687064872153975 1 0 0 I I #
coedge $-1 $329 $222 $225 $343 reversed $215 $-1 #
coedge $-1 $222 $329 $334 $428 forward $215 $-1 #
vertex $-1 $223 $432 #
straight-curve $-1 -21.322075697823397 31.941352744169613 64.348659513506576 0 0 1 I I #
straight-curve $-1 -21.322075697823397 -19.740841294012277 40.078022234888493 0 0.80901698891910034 -0.5877852598018023 I I #
edge $-1 $426 -4.3615659061561338 $227 21.322075697823397 $338 $433 forward 7 unknown #
point $-1 -21.322075697823397 31.941352744169613 6.5687064872153984 #
point $-1 -21.322075697823397 26.380774168177219 6.5687064872154011 #
edge $-1 $434 1 $434 0 $230 $-1 forward 7 unknown #
vertex $-1 $231 $435 #
ellipse-curve $-1 -13.983892382400668 27.885414993382028 2.7929285931081052 0 0.5877852598018023 0.80901698891910034 1 0 0 1 I I #
point $-1 -12.983892382400668 29.161063456173419 4.5487080398992052 #
edge $-1 $436 1 $436 0 $234 $-1 forward 7 unknown #
vertex $-1 $235 $437 #
ellipse-curve $-1 -2.9766174092665878 27.885414993382028 2.7929285931081052 0 0.5877852598018023 0.80901698891910034 1 0 0 1 I I #
point $-1 -1.9766174092665878 29.161063456173419 4.5487080398992052 #
loop $-1 $-1 $246 $238 #
plane-surface $-1 0 -31.941352744169613 0 0 1 0 0 0 1 forward_v I I I I #
coedge $-1 $357 $241 $243 $361 reversed $146 $-1 #
coedge $-1 $241 $356 $438 $439 reversed $146 $-1 #
coedge $-1 $249 $244 $241 $359 forward $239 $-1 #
edge $-1 $362 -19.384699635345044 $440 -13.052863192738435 $358 $441 forward 7 unknown #
coedge $-1 $243 $242 $365 $442 reversed $91 $-1 #
edge $-1 $443 0 $362 7.466364825236476 $356 $444 forward 7 unknown #
vertex $-1 $245 $445 #
straight-curve $-1 12.642671392275762 -25.609516301563005 6.5687064872153975 -1 0 0 I I #
coedge $-1 $438 $246 $249 $369 reversed $354 $-1 #
coedge $-1 $246 $438 $360 $442 forward $354 $-1 #
vertex $-1 $247 $446 #
straight-curve $-1 31.211894489713963 -31.941352744169613 47.753439607968936 0 0 1 I I #
straight-curve $-1 31.211894489713963 -31.941352744169613 2.6121358802872976 0 -0.84804809178421925 -0.52991927123019833 I I #
edge $-1 $440 19.358791079389086 $250 31.211894489713963 $364 $447 forward 7 unknown #
point $-1 31.211894489713963 -31.941352744169613 6.5687064872153984 #
point $-1 31.211894489713963 -25.609516301563005 6.5687064872153984 #
edge $-1 $448 1 $448 0 $253 $-1 forward 7 unknown #
vertex $-1 $254 $449 #
ellipse-curve $-1 25.285342784551524 -27.830969498914058 3.0789612221986169 0 -0.52991927123019833 0.84804809178421925 0.5 0 0 1 I I #
point $-1 25.785342784551524 -28.775434522866316 4.5904211837513502 #
plane-surface $-1 54.769737846003601 0 0 -1 0 0 0 0 1 forward_v I I I I #
coedge $-1 $262 $260 $264 $381 reversed $161 $-1 #
edge $-1 $275 -6.5687064872153984 $383 6.5687064872153984 $274 $450 forward 7 unknown #
vertex $-1 $381 $451 #
straight-curve $-1 -54.769737846003601 -31.941352744169613 0 0 0 -1 I I #
edge $-1 $379 -31.941352744169613 $383 31.941352744169613 $377 $452 forward 7 unknown #
straight-curve $-1 0 -31.941352744169613 -6.5687064872153984 -1 0 0 I I #
vertex $-1 $267 $453 #
straight-curve $-1 0 31.941352744169613 -6.5687064872153984 1 0 0 I I #
point $-1 54.769737846003601 31.941352744169613 -6.5687064872153984 #
point $-1 54.769737846003601 -31.941352744169613 -6.5687064872153984 #
straight-curve $-1 -54.769737846003601 0 6.5687064872153984 0 -1 0 I I #
point $-1 -54.769737846003601 31.941352744169613 6.5687064872153984 #
point $-1 -54.769737846003601 -31.941352744169613 6.5687064872153984 #
straight-curve $-1 54.769737846003601 -31.941352744169613 0 0 0 -1 I I #
straight-curve $-1 54.769737846003601 31.941352744169613 0 0 0 -1 I I #
plane-surface $-1 0 -31.941352744169613 0 0 1 0 0 0 1 forward_v I I I I #
coedge $-1 $454 $287 $297 $404 reversed $180 $-1 #
coedge $-1 $287 $454 $300 $406 forward $180 $-1 #
coedge $-1 $455 $290 $288 $396 forward $285 $-1 #
edge $-1 $397 48.332541806181709 $456 54.769737846003601 $288 $457 forward 7 unknown #
vertex $-1 $396 $458 #
straight-curve $-1 -48.332541806181709 31.941352744169613 2.4027489174822834 0 0 -1 I I #
coedge $-1 $290 $455 $292 $401 forward $285 $-1 #
straight-curve $-1 -48.332541806181709 0 6.5687064872153984 0 1 0 I I #
edge $-1 $459 -54.769737846003601 $294 -48.332541806181709 $292 $460 forward 7 unknown #
point $-1 -48.332541806181709 -31.941352744169613 6.5687064872154002 #
straight-curve $-1 -54.769737846003601 0 3.0422891827137333 0 -1 0 I I #
edge $-1 $459 -6.5687064872153984 $298 -3.0422891827137333 $393 $461 forward 7 unknown #
point $-1 -54.769737846003594 -31.941352744169613 3.0422891827137333 #
edge $-1 $456 -6.5687064872153984 $301 -3.0422891827137333 $300 $462 forward 7 unknown #
point $-1 -54.769737846003594 31.941352744169613 3.0422891827137333 #
plane-surface $-1 54.769737846003601 0 0 -1 0 0 0 0 1 forward_v I I I I #
coedge $-1 $308 $318 $309 $412 reversed $196 $-1 #
edge $-1 $414 -4.1659575697331164 $319 -0.63954026523144991 $308 $463 forward 7 unknown #
coedge $-1 $310 $309 $323 $420 forward $116 $-1 #
edge $-1 $414 48.332541806181709 $423 54.769737846003601 $409 $464 forward 7 unknown #
edge $-1 $421 -54.769737846003601 $316 -48.332541806181709 $314 $465 forward 7 unknown #
vertex $-1 $412 $466 #
straight-curve $-1 48.332541806181709 0 6.5687064872153984 0 -1 0 I I #
straight-curve $-1 48.332541806181709 0 3.0422891827137333 0 1 0 I I #
point $-1 48.332541806181709 31.941352744169613 3.0422891827137333 #
point $-1 48.332541806181709 31.941352744169613 6.5687064872154002 #
point $-1 48.332541806181709 -31.941352744169613 3.0422891827137333 #
edge $-1 $423 -31.941352744169613 $421 31.941352744169613 $323 $467 forward 7 unknown #
vertex $-1 $420 $468 #
straight-curve $-1 54.769737846003601 31.941352744169613 0 0 0 -1 I I #
vertex $-1 $420 $469 #
straight-curve $-1 54.769737846003601 -31.941352744169613 0 0 0 -1 I I #
edge $-1 $426 57.779953026291174 $429 61.819949920923577 $329 $470 forward 7 unknown #
vertex $-1 $343 $471 #
straight-curve $-1 4.3615659061561338 22.322423942083692 6.5687064872154011 0 1 0 I I #
edge $-1 $429 -8.6016933540729497 $340 17.081948249906581 $339 $472 forward 7 unknown #
vertex $-1 $428 $473 #
straight-curve $-1 4.3615659061561338 -19.740841294012277 40.078022234888493 0 -0.80901698891910034 0.5877852598018023 I I #
point $-1 4.3615659061561338 26.380774168177219 6.5687064872154011 #
point $-1 -21.322075697823397 31.941352744169613 2.5287095925829988 #
straight-curve $-1 0 31.941352744169613 6.5687064872153984 -1 0 0 I I #
vertex $-1 $346 $474 #
point $-1 -12.983892382400668 27.885414993382028 2.7929285931081052 #
vertex $-1 $350 $475 #
point $-1 -1.9766174092665878 27.885414993382028 2.7929285931081052 #
coedge $-1 $365 $364 $357 $439 forward $354 $-1 #
edge $-1 $440 41.184733120753535 $443 45.141303727681638 $438 $476 forward 7 unknown #
vertex $-1 $369 $477 #
straight-curve $-1 19.358791079389086 -44.994215936908049 6.5687064872154011 0 -1 0 I I #
edge $-1 $443 6.7161196871133235 $366 18.569223097438201 $365 $478 forward 7 unknown #
vertex $-1 $442 $479 #
straight-curve $-1 19.358791079389086 -31.941352744169613 2.6121358802872976 0 0.84804809178421925 0.52991927123019833 I I #
point $-1 19.358791079389086 -25.609516301563005 6.5687064872153984 #
point $-1 31.211894489713963 -31.941352744169613 2.6121358802872976 #
straight-curve $-1 0 -31.941352744169613 6.5687064872153984 1 0 0 I I #
vertex $-1 $372 $480 #
point $-1 25.785342784551524 -27.830969498914058 3.0789612221986169 #
straight-curve $-1 -54.769737846003601 31.941352744169613 0 0 0 -1 I I #
point $-1 -54.769737846003601 -31.941352744169613 -6.5687064872153984 #
straight-curve $-1 -54.769737846003601 0 -6.5687064872153984 0 1 0 I I #
point $-1 -54.769737846003601 31.941352744169613 -6.5687064872153984 #
coedge $-1 $394 $393 $455 $481 reversed $180 $-1 #
coedge $-1 $399 $395 $454 $481 forward $285 $-1 #
vertex $-1 $396 $482 #
straight-curve $-1 0 31.941352744169613 6.5687064872153984 -1 0 0 I I #
point $-1 -48.332541806181709 31.941352744169613 6.5687064872154002 #
vertex $-1 $481 $483 #
straight-curve $-1 0 -31.941352744169613 6.5687064872153984 1 0 0 I I #
straight-curve $-1 -54.769737846003601 -31.941352744169613 0 0 0 -1 I I #
straight-curve $-1 -54.769737846003601 31.941352744169613 0 0 0 -1 I I #
straight-curve $-1 48.332541806181709 -31.941352744169613 2.4027489174822834 0 0 -1 I I #
straight-curve $-1 0 -31.941352744169613 6.5687064872153984 1 0 0 I I #
straight-curve $-1 0 31.941352744169613 6.5687064872153984 -1 0 0 I I #
point $-1 48.332541806181709 -31.941352744169613 6.5687064872154002 #
straight-curve $-1 54.769737846003601 0 6.5687064872153984 0 1 0 I I #
point $-1 54.769737846003601 31.941352744169613 6.5687064872153984 #
point $-1 54.769737846003601 -31.941352744169613 6.5687064872153984 #
straight-curve $-1 4.3615659061561338 31.941352744169613 64.348659513506576 0 0 -1 I I #
point $-1 4.3615659061561338 31.941352744169613 6.5687064872153984 #
straight-curve $-1 -4.2401274479168158 31.941352744169617 2.5287095925829988 -1 0 0 I I #
point $-1 4.3615659061561338 31.941352744169613 2.5287095925829988 #
point $-1 -13.983892382400668 27.297629733580223 1.983911604189005 #
point $-1 -2.9766174092665878 27.297629733580223 1.983911604189005 #
straight-curve $-1 19.358791079389086 -31.941352744169613 47.753439607968936 0 0 -1 I I #
point $-1 19.358791079389086 -31.941352744169613 6.5687064872153984 #
straight-curve $-1 12.642671392275762 -31.941352744169613 2.6121358802872972 1 0 0 I I #
point $-1 19.358791079389086 -31.941352744169613 2.6121358802872976 #
point $-1 25.285342784551524 -27.566009863298959 2.6549371763065071 #
edge $-1 $456 -31.941352744169613 $459 31.941352744169613 $454 $484 forward 7 unknown #
point $-1 -54.769737846003601 31.941352744169613 6.5687064872153984 #
point $-1 -54.769737846003601 -31.941352744169613 6.5687064872153984 #
straight-curve $-1 -54.769737846003601 0 6.5687064872153984 0 -1 0 I I #
End-of-ACIS-data 