500 0 18 0           
7 Unknown 11 ACIS 5.0 NT 24 Fri Mar 26 20:04:46 1999 
-1 9.9999999999999995e-007 1e-010 
body $-1 $18 $-1 $19 #
body $-1 $20 $-1 $21 #
body $-1 $22 $-1 $23 #
body $-1 $24 $-1 $25 #
body $-1 $26 $-1 $27 #
body $-1 $28 $-1 $29 #
body $-1 $30 $-1 $31 #
body $-1 $32 $-1 $33 #
body $-1 $34 $-1 $35 #
body $-1 $36 $-1 $37 #
body $-1 $38 $-1 $39 #
body $-1 $40 $-1 $41 #
body $-1 $42 $-1 $43 #
body $-1 $44 $-1 $45 #
body $-1 $46 $-1 $47 #
body $-1 $48 $-1 $49 #
body $-1 $50 $-1 $51 #
body $-1 $52 $-1 $53 #
lump $-1 $-1 $54 $0 #
transform $-1 1 0 0 0 1 0 0 0 1 62.588579973754079 29.27644960221339 6.9858914197145312 1 rotate no_reflect no_shear #
lump $-1 $-1 $55 $1 #
transform $-1 1 0 0 0 1 0 0 0 1 62.588579973754079 29.27644960221339 6.9858914197145312 1 rotate no_reflect no_shear #
lump $-1 $-1 $56 $2 #
transform $-1 1 0 0 0 1 0 0 0 1 62.588579973754079 29.27644960221339 6.9858914197145312 1 rotate no_reflect no_shear #
lump $-1 $-1 $57 $3 #
transform $-1 1 0 0 0 1 0 0 0 1 62.588579973754079 29.27644960221339 6.9858914197145312 1 rotate no_reflect no_shear #
lump $-1 $-1 $58 $4 #
transform $-1 1 0 0 0 1 0 0 0 1 62.588579973754079 29.27644960221339 6.9858914197145312 1 rotate no_reflect no_shear #
lump $-1 $-1 $59 $5 #
transform $-1 1 0 0 0 1 0 0 0 1 62.588579973754079 29.27644960221339 6.9858914197145312 1 rotate no_reflect no_shear #
lump $-1 $-1 $60 $6 #
transform $-1 1 0 0 0 1 0 0 0 1 62.588579973754079 29.27644960221339 6.9858914197145312 1 rotate no_reflect no_shear #
lump $-1 $-1 $61 $7 #
transform $-1 1 0 0 0 1 0 0 0 1 62.588579973754079 29.27644960221339 6.9858914197145312 1 rotate no_reflect no_shear #
lump $-1 $-1 $62 $8 #
transform $-1 1 0 0 0 1 0 0 0 1 62.588579973754079 29.27644960221339 6.9858914197145312 1 rotate no_reflect no_shear #
lump $-1 $-1 $63 $9 #
transform $-1 1 0 0 0 1 0 0 0 1 62.588579973754079 29.27644960221339 6.9858914197145312 1 rotate no_reflect no_shear #
lump $-1 $-1 $64 $10 #
transform $-1 1 0 0 0 1 0 0 0 1 62.588579973754079 29.27644960221339 6.9858914197145312 1 rotate no_reflect no_shear #
lump $-1 $-1 $65 $11 #
transform $-1 1 0 0 0 1 0 0 0 1 62.588579973754079 29.27644960221339 6.9858914197145312 1 rotate no_reflect no_shear #
lump $-1 $-1 $66 $12 #
transform $-1 1 0 0 0 1 0 0 0 1 62.588579973754079 29.27644960221339 6.9858914197145312 1 rotate no_reflect no_shear #
lump $-1 $-1 $67 $13 #
transform $-1 1 0 0 0 1 0 0 0 1 62.588579973754079 29.27644960221339 6.9858914197145312 1 rotate no_reflect no_shear #
lump $-1 $-1 $68 $14 #
transform $-1 1 0 0 0 1 0 0 0 1 62.588579973754079 29.27644960221339 6.9858914197145312 1 rotate no_reflect no_shear #
lump $-1 $-1 $69 $15 #
transform $-1 1 0 0 0 1 0 0 0 1 62.588579973754079 29.27644960221339 6.9858914197145312 1 rotate no_reflect no_shear #
lump $-1 $-1 $70 $16 #
transform $-1 1 0 0 0 1 0 0 0 1 62.588579973754079 29.27644960221339 6.9858914197145312 1 rotate no_reflect no_shear #
lump $-1 $-1 $71 $17 #
transform $-1 1 0 0 0 1 0 0 0 1 62.588579973754079 29.27644960221339 6.9858914197145312 1 rotate no_reflect no_shear #
shell $-1 $-1 $-1 $72 $-1 $18 #
shell $-1 $-1 $-1 $73 $-1 $20 #
shell $-1 $-1 $-1 $74 $-1 $22 #
shell $-1 $-1 $-1 $75 $-1 $24 #
shell $-1 $-1 $-1 $76 $-1 $26 #
shell $-1 $-1 $-1 $77 $-1 $28 #
shell $-1 $-1 $-1 $78 $-1 $30 #
shell $-1 $-1 $-1 $79 $-1 $32 #
shell $-1 $-1 $-1 $80 $-1 $34 #
shell $-1 $-1 $-1 $81 $-1 $36 #
shell $-1 $-1 $-1 $82 $-1 $38 #
shell $-1 $-1 $-1 $83 $-1 $40 #
shell $-1 $-1 $-1 $84 $-1 $42 #
shell $-1 $-1 $-1 $85 $-1 $44 #
shell $-1 $-1 $-1 $86 $-1 $46 #
shell $-1 $-1 $-1 $87 $-1 $48 #
shell $-1 $-1 $-1 $88 $-1 $50 #
shell $-1 $-1 $-1 $89 $-1 $52 #
face $-1 $90 $91 $54 $-1 $92 forward single #
face $-1 $93 $94 $55 $-1 $95 reversed single #
face $-1 $96 $97 $56 $-1 $98 reversed single #
face $-1 $99 $100 $57 $-1 $101 reversed single #
face $-1 $102 $103 $58 $-1 $104 forward single #
face $-1 $105 $106 $59 $-1 $107 forward single #
face $-1 $108 $109 $60 $-1 $110 reversed single #
face $-1 $111 $112 $61 $-1 $113 forward single #
face $-1 $114 $115 $62 $-1 $116 forward single #
face $-1 $117 $118 $63 $-1 $119 reversed single #
face $-1 $120 $121 $64 $-1 $122 forward single #
face $-1 $123 $124 $65 $-1 $125 forward single #
face $-1 $126 $127 $66 $-1 $128 reversed single #
face $-1 $129 $130 $67 $-1 $131 forward single #
face $-1 $132 $133 $68 $-1 $134 forward single #
face $-1 $135 $136 $69 $-1 $137 reversed single #
face $-1 $138 $139 $70 $-1 $140 forward single #
face $-1 $141 $142 $71 $-1 $143 forward single #
face $-1 $144 $145 $54 $-1 $146 reversed single #
loop $-1 $-1 $147 $72 #
plane-surface $-1 0 0 6.9858914197145312 0 0 1 1 0 0 forward_v I I I I #
face $-1 $148 $149 $55 $-1 $150 reversed single #
loop $-1 $-1 $151 $73 #
plane-surface $-1 -61.088579973754079 -22.576479352669431 0 0 -1 0 0 0 -1 forward_v I I I I #
face $-1 $152 $153 $56 $-1 $154 reversed single #
loop $-1 $-1 $155 $74 #
plane-surface $-1 -61.088579973754079 22.576479352669434 0 0 1 0 0 0 1 forward_v I I I I #
face $-1 $156 $157 $57 $-1 $158 reversed single #
loop $-1 $-1 $159 $75 #
plane-surface $-1 -62.588579973754079 19.529500347183216 0.55420762682635427 -0.80901700255871778 0 0.5877852410284794 0.5877852410284794 0 0.80901700255871778 forward_v I I I I #
face $-1 $160 $161 $58 $-1 $162 forward single #
loop $-1 $163 $164 $76 #
cone-surface $-1 -59.77646907978027 18.223652201974836 3.424458637286556 0.80901700255871778 0 -0.5877852410284794 0.2938926205142397 0 0.40450850127935889 1 I I 0 1 0.5 forward I I I I #
face $-1 $165 $166 $59 $-1 $167 forward single #
loop $-1 $168 $169 $77 #
cone-surface $-1 -59.77646907978027 20.835348492391589 3.424458637286556 0.80901700255871778 0 -0.5877852410284794 0.2938926205142397 0 0.40450850127935889 1 I I 0 1 0.5 forward I I I I #
face $-1 $170 $171 $60 $-1 $172 reversed single #
loop $-1 $-1 $173 $78 #
plane-surface $-1 56.410420450935277 -13.432814195928678 178.27462700002852 0 -1 0 -0.68199836817093118 0 -0.7313536940579346 forward_v I I I I #
face $-1 $174 $175 $61 $-1 $176 forward single #
loop $-1 $177 $178 $79 #
cone-surface $-1 58.929765785492329 -18.470486981117929 3.4845217619122328 -0.68199836817093118 0 -0.7313536940579346 0.3656768470289673 0 -0.34099918408546559 1 I I 0 1 0.5 forward I I I I #
face $-1 $179 $180 $62 $-1 $181 forward single #
loop $-1 $182 $183 $80 #
cone-surface $-1 58.929765785492329 -15.447883310004379 3.4845217619122328 -0.68199836817093118 0 -0.7313536940579346 0.3656768470289673 0 -0.34099918408546559 1 I I 0 1 0.5 forward I I I I #
face $-1 $184 $185 $63 $-1 $186 reversed single #
loop $-1 $-1 $187 $81 #
plane-surface $-1 56.410420450935277 -2.1445745195939629 178.27462700002852 0 -1 0 -0.68199836817093118 0 -0.7313536940579346 forward_v I I I I #
face $-1 $188 $189 $64 $-1 $190 forward single #
loop $-1 $191 $192 $82 #
cone-surface $-1 58.929765785492329 -7.1822473047832176 3.4845217619122328 -0.68199836817093118 0 -0.7313536940579346 0.3656768470289673 0 -0.34099918408546559 1 I I 0 1 0.5 forward I I I I #
face $-1 $193 $194 $65 $-1 $195 forward single #
loop $-1 $196 $197 $83 #
cone-surface $-1 58.929765785492329 -4.1596436336696669 3.4845217619122328 -0.68199836817093118 0 -0.7313536940579346 0.3656768470289673 0 -0.34099918408546559 1 I I 0 1 0.5 forward I I I I #
face $-1 $198 $199 $66 $-1 $200 reversed single #
loop $-1 $-1 $201 $84 #
plane-surface $-1 56.410420450935277 9.1436651567407488 178.27462700002852 0 -1 0 -0.68199836817093118 0 -0.7313536940579346 forward_v I I I I #
face $-1 $202 $203 $67 $-1 $204 forward single #
loop $-1 $205 $206 $85 #
cone-surface $-1 58.929765785492329 4.1059923715514941 3.4845217619122328 -0.68199836817093118 0 -0.7313536940579346 0.3656768470289673 0 -0.34099918408546559 1 I I 0 1 0.5 forward I I I I #
face $-1 $207 $208 $68 $-1 $209 forward single #
loop $-1 $210 $211 $86 #
cone-surface $-1 58.929765785492329 7.1285960426650448 3.4845217619122328 -0.68199836817093118 0 -0.7313536940579346 0.3656768470289673 0 -0.34099918408546559 1 I I 0 1 0.5 forward I I I I #
face $-1 $212 $213 $69 $-1 $214 reversed single #
loop $-1 $-1 $215 $87 #
plane-surface $-1 56.410420450935277 20.43190483307546 178.27462700002852 0 -1 0 -0.68199836817093118 0 -0.7313536940579346 forward_v I I I I #
face $-1 $216 $217 $70 $-1 $218 forward single #
loop $-1 $219 $220 $88 #
cone-surface $-1 58.929765785492329 15.394232047886206 3.4845217619122328 -0.68199836817093118 0 -0.7313536940579346 0.3656768470289673 0 -0.34099918408546559 1 I I 0 1 0.5 forward I I I I #
face $-1 $221 $222 $71 $-1 $223 forward single #
loop $-1 $224 $225 $89 #
cone-surface $-1 58.929765785492329 18.416835718999756 3.4845217619122328 -0.68199836817093118 0 -0.7313536940579346 0.3656768470289673 0 -0.34099918408546559 1 I I 0 1 0.5 forward I I I I #
face $-1 $226 $227 $54 $-1 $228 reversed single #
loop $-1 $-1 $229 $90 #
plane-surface $-1 0 0 -6.9858914197145312 0 0 1 1 0 0 forward_v I I I I #
coedge $-1 $230 $231 $232 $233 forward $91 $-1 #
face $-1 $234 $235 $55 $-1 $236 forward single #
loop $-1 $-1 $237 $93 #
plane-surface $-1 -59.588579973754079 -25.92646447744141 0 -1 0 0 0 0 1 forward_v I I I I #
coedge $-1 $238 $239 $240 $241 forward $94 $-1 #
face $-1 $242 $243 $56 $-1 $244 reversed single #
loop $-1 $-1 $245 $96 #
plane-surface $-1 -59.588579973754079 25.926464477441414 0 -1 0 0 0 0 1 forward_v I I I I #
coedge $-1 $246 $247 $248 $249 reversed $97 $-1 #
face $-1 $250 $251 $57 $-1 $252 forward single #
loop $-1 $-1 $253 $99 #
plane-surface $-1 -163.85903070330031 16.482521341697002 74.131494757832954 0 1 0 -0.80901700255871778 0 0.5877852410284794 forward_v I I I I #
coedge $-1 $254 $255 $256 $257 reversed $100 $-1 #
face $-1 $-1 $258 $58 $-1 $259 forward single #
loop $-1 $260 $261 $102 #
cone-surface $-1 -59.098549767865684 18.223652201974836 2.931921441045545 0.80901700255871778 0 -0.5877852410284794 0.14694631025711985 0 0.20225425063967944 1 I I -0.70710678118654746 0.70710678118654746 0.25 forward I I I I #
loop $-1 $-1 $262 $76 #
coedge $-1 $164 $164 $263 $264 reversed $103 $-1 #
face $-1 $-1 $265 $59 $-1 $266 forward single #
loop $-1 $267 $268 $105 #
cone-surface $-1 -59.098549767865684 20.835348492391589 2.931921441045545 0.80901700255871778 0 -0.5877852410284794 0.14694631025711985 0 0.20225425063967944 1 I I -0.70710678118654746 0.70710678118654746 0.25 forward I I I I #
loop $-1 $-1 $269 $77 #
coedge $-1 $169 $169 $270 $271 reversed $106 $-1 #
face $-1 $272 $273 $60 $-1 $274 reversed single #
loop $-1 $-1 $275 $108 #
plane-surface $-1 -28.960198365536939 -16.959185145561154 86.725848660737483 0.68199836817093118 0 0.7313536940579346 0.7313536940579346 0 -0.68199836817093118 forward_v I I I I #
coedge $-1 $276 $277 $278 $279 reversed $109 $-1 #
face $-1 $-1 $280 $61 $-1 $281 forward single #
loop $-1 $282 $283 $111 #
cone-surface $-1 58.119524583205205 -18.470486981117929 2.615644468320073 -0.68199836817093118 0 -0.7313536940579346 0.18283842351448365 0 -0.17049959204273279 1 I I -0.70710678118654746 0.70710678118654746 0.25 forward I I I I #
loop $-1 $-1 $284 $79 #
coedge $-1 $178 $178 $285 $286 reversed $112 $-1 #
face $-1 $-1 $287 $62 $-1 $288 forward single #
loop $-1 $289 $290 $114 #
cone-surface $-1 58.119524583205205 -15.447883310004379 2.615644468320073 -0.68199836817093118 0 -0.7313536940579346 0.18283842351448365 0 -0.17049959204273279 1 I I -0.70710678118654746 0.70710678118654746 0.25 forward I I I I #
loop $-1 $-1 $291 $80 #
coedge $-1 $183 $183 $292 $293 reversed $115 $-1 #
face $-1 $294 $295 $63 $-1 $296 reversed single #
loop $-1 $-1 $297 $117 #
plane-surface $-1 -28.960198365536939 -5.6709454692264387 86.725848660737483 0.68199836817093118 0 0.7313536940579346 0.7313536940579346 0 -0.68199836817093118 forward_v I I I I #
coedge $-1 $298 $299 $300 $301 reversed $118 $-1 #
face $-1 $-1 $302 $64 $-1 $303 forward single #
loop $-1 $304 $305 $120 #
cone-surface $-1 58.119524583205205 -7.1822473047832176 2.615644468320073 -0.68199836817093118 0 -0.7313536940579346 0.18283842351448365 0 -0.17049959204273279 1 I I -0.70710678118654746 0.70710678118654746 0.25 forward I I I I #
loop $-1 $-1 $306 $82 #
coedge $-1 $192 $192 $307 $308 reversed $121 $-1 #
face $-1 $-1 $309 $65 $-1 $310 forward single #
loop $-1 $311 $312 $123 #
cone-surface $-1 58.119524583205205 -4.1596436336696669 2.615644468320073 -0.68199836817093118 0 -0.7313536940579346 0.18283842351448365 0 -0.17049959204273279 1 I I -0.70710678118654746 0.70710678118654746 0.25 forward I I I I #
loop $-1 $-1 $313 $83 #
coedge $-1 $197 $197 $314 $315 reversed $124 $-1 #
face $-1 $316 $317 $66 $-1 $318 reversed single #
loop $-1 $-1 $319 $126 #
plane-surface $-1 -28.960198365536939 5.617294207108273 86.725848660737483 0.68199836817093118 0 0.7313536940579346 0.7313536940579346 0 -0.68199836817093118 forward_v I I I I #
coedge $-1 $320 $321 $322 $323 reversed $127 $-1 #
face $-1 $-1 $324 $67 $-1 $325 forward single #
loop $-1 $326 $327 $129 #
cone-surface $-1 58.119524583205205 4.1059923715514941 2.615644468320073 -0.68199836817093118 0 -0.7313536940579346 0.18283842351448365 0 -0.17049959204273279 1 I I -0.70710678118654746 0.70710678118654746 0.25 forward I I I I #
loop $-1 $-1 $328 $85 #
coedge $-1 $206 $206 $329 $330 reversed $130 $-1 #
face $-1 $-1 $331 $68 $-1 $332 forward single #
loop $-1 $333 $334 $132 #
cone-surface $-1 58.119524583205205 7.1285960426650448 2.615644468320073 -0.68199836817093118 0 -0.7313536940579346 0.18283842351448365 0 -0.17049959204273279 1 I I -0.70710678118654746 0.70710678118654746 0.25 forward I I I I #
loop $-1 $-1 $335 $86 #
coedge $-1 $211 $211 $336 $337 reversed $133 $-1 #
face $-1 $338 $339 $69 $-1 $340 reversed single #
loop $-1 $-1 $341 $135 #
plane-surface $-1 -28.960198365536939 16.905533883442985 86.725848660737483 0.68199836817093118 0 0.7313536940579346 0.7313536940579346 0 -0.68199836817093118 forward_v I I I I #
coedge $-1 $342 $343 $344 $345 reversed $136 $-1 #
face $-1 $-1 $346 $70 $-1 $347 forward single #
loop $-1 $348 $349 $138 #
cone-surface $-1 58.119524583205205 15.394232047886206 2.615644468320073 -0.68199836817093118 0 -0.7313536940579346 0.18283842351448365 0 -0.17049959204273279 1 I I -0.70710678118654746 0.70710678118654746 0.25 forward I I I I #
loop $-1 $-1 $350 $88 #
coedge $-1 $220 $220 $351 $352 reversed $139 $-1 #
face $-1 $-1 $353 $71 $-1 $354 forward single #
loop $-1 $355 $356 $141 #
cone-surface $-1 58.119524583205205 18.416835718999756 2.615644468320073 -0.68199836817093118 0 -0.7313536940579346 0.18283842351448365 0 -0.17049959204273279 1 I I -0.70710678118654746 0.70710678118654746 0.25 forward I I I I #
loop $-1 $-1 $357 $89 #
coedge $-1 $225 $225 $358 $359 reversed $142 $-1 #
face $-1 $360 $361 $54 $-1 $362 reversed single #
loop $-1 $-1 $363 $144 #
plane-surface $-1 0 -29.27644960221339 0 0 1 0 0 0 1 forward_v I I I I #
coedge $-1 $364 $365 $366 $367 forward $145 $-1 #
coedge $-1 $368 $147 $369 $370 forward $91 $-1 #
coedge $-1 $147 $368 $371 $372 forward $91 $-1 #
coedge $-1 $373 $374 $147 $233 reversed $375 $-1 #
edge $-1 $376 -29.27644960221339 $377 29.27644960221339 $232 $378 forward 7 unknown #
face $-1 $379 $380 $55 $-1 $381 reversed single #
loop $-1 $-1 $382 $148 #
plane-surface $-1 0 0 6.9858914197145312 0 0 1 1 0 0 forward_v I I I I #
coedge $-1 $383 $384 $385 $386 reversed $149 $-1 #
coedge $-1 $387 $151 $388 $389 reversed $94 $-1 #
coedge $-1 $151 $387 $390 $391 reversed $94 $-1 #
coedge $-1 $384 $383 $151 $241 reversed $149 $-1 #
edge $-1 $392 -6.9858914197145312 $393 6.9858914197145312 $240 $394 forward 7 unknown #
face $-1 $395 $396 $56 $-1 $397 reversed single #
loop $-1 $-1 $398 $152 #
plane-surface $-1 0 0 -6.9858914197145312 0 0 1 1 0 0 forward_v I I I I #
coedge $-1 $399 $400 $401 $402 forward $153 $-1 #
coedge $-1 $401 $155 $403 $404 reversed $97 $-1 #
coedge $-1 $155 $401 $405 $406 reversed $97 $-1 #
coedge $-1 $407 $408 $155 $249 forward $396 $-1 #
edge $-1 $409 -6.9858914197145312 $410 6.9858914197145312 $248 $411 forward 7 unknown #
face $-1 $412 $413 $57 $-1 $414 forward single #
loop $-1 $-1 $415 $156 #
plane-surface $-1 0 0 6.9858914197145312 0 0 1 1 0 0 forward_v I I I I #
coedge $-1 $416 $417 $418 $419 reversed $157 $-1 #
coedge $-1 $420 $159 $421 $422 reversed $100 $-1 #
coedge $-1 $159 $420 $416 $423 forward $100 $-1 #
coedge $-1 $418 $424 $159 $257 forward $425 $-1 #
edge $-1 $426 -12.811729179077826 $427 -6.7177711681053935 $256 $428 forward 7 unknown #
loop $-1 $-1 $263 $160 #
plane-surface $-1 -62.588579973754079 19.529500347183216 0.55420762682635427 -0.80901700255871778 0 0.5877852410284794 0.5877852410284794 0 0.80901700255871778 forward_v I I I I #
loop $-1 $-1 $429 $102 #
coedge $-1 $261 $261 $262 $430 reversed $161 $-1 #
coedge $-1 $262 $262 $261 $430 forward $163 $-1 #
coedge $-1 $263 $263 $164 $264 forward $258 $-1 #
edge $-1 $431 0 $431 6.2831853071796004 $263 $432 forward 7 unknown #
loop $-1 $-1 $270 $165 #
plane-surface $-1 -62.588579973754079 19.529500347183216 0.55420762682635427 -0.80901700255871778 0 0.5877852410284794 0.5877852410284794 0 0.80901700255871778 forward_v I I I I #
loop $-1 $-1 $433 $105 #
coedge $-1 $268 $268 $269 $434 reversed $166 $-1 #
coedge $-1 $269 $269 $268 $434 forward $168 $-1 #
coedge $-1 $270 $270 $169 $271 forward $265 $-1 #
edge $-1 $435 0 $435 6.2831853071796004 $270 $436 forward 7 unknown #
face $-1 $437 $438 $60 $-1 $439 reversed single #
loop $-1 $-1 $440 $170 #
plane-surface $-1 56.410420450935277 -20.48555609519363 178.27462700002852 0 1 0 0.68199836817093118 0 0.7313536940579346 forward_v I I I I #
coedge $-1 $441 $442 $443 $444 reversed $171 $-1 #
coedge $-1 $277 $173 $445 $446 reversed $109 $-1 #
coedge $-1 $173 $276 $441 $447 reversed $109 $-1 #
coedge $-1 $443 $448 $173 $279 forward $449 $-1 #
edge $-1 $450 -34.383369748286441 $451 -28.345224592251739 $278 $452 forward 7 unknown #
loop $-1 $-1 $285 $174 #
plane-surface $-1 -28.960198365536939 -16.959185145561154 86.725848660737483 0.68199836817093118 0 0.7313536940579346 0.7313536940579346 0 -0.68199836817093118 forward_v I I I I #
loop $-1 $-1 $453 $111 #
coedge $-1 $283 $283 $284 $454 reversed $175 $-1 #
coedge $-1 $284 $284 $283 $454 forward $177 $-1 #
coedge $-1 $285 $285 $178 $286 forward $280 $-1 #
edge $-1 $455 0 $455 6.2831853071796004 $285 $456 forward 7 unknown #
loop $-1 $-1 $292 $179 #
plane-surface $-1 -28.960198365536939 -16.959185145561154 86.725848660737483 0.68199836817093118 0 0.7313536940579346 0.7313536940579346 0 -0.68199836817093118 forward_v I I I I #
loop $-1 $-1 $457 $114 #
coedge $-1 $290 $290 $291 $458 reversed $180 $-1 #
coedge $-1 $291 $291 $290 $458 forward $182 $-1 #
coedge $-1 $292 $292 $183 $293 forward $287 $-1 #
edge $-1 $459 0 $459 6.2831853071796004 $292 $460 forward 7 unknown #
face $-1 $461 $462 $63 $-1 $463 reversed single #
loop $-1 $-1 $464 $184 #
plane-surface $-1 56.410420450935277 -9.1973164188589145 178.27462700002852 0 1 0 0.68199836817093118 0 0.7313536940579346 forward_v I I I I #
coedge $-1 $465 $466 $467 $468 reversed $185 $-1 #
coedge $-1 $299 $187 $469 $470 reversed $118 $-1 #
coedge $-1 $187 $298 $465 $471 reversed $118 $-1 #
coedge $-1 $467 $472 $187 $301 forward $473 $-1 #
edge $-1 $474 -34.383369748286441 $475 -28.345224592251739 $300 $476 forward 7 unknown #
loop $-1 $-1 $307 $188 #
plane-surface $-1 -28.960198365536939 -5.6709454692264387 86.725848660737483 0.68199836817093118 0 0.7313536940579346 0.7313536940579346 0 -0.68199836817093118 forward_v I I I I #
loop $-1 $-1 $477 $120 #
coedge $-1 $305 $305 $306 $478 reversed $189 $-1 #
coedge $-1 $306 $306 $305 $478 forward $191 $-1 #
coedge $-1 $307 $307 $192 $308 forward $302 $-1 #
edge $-1 $479 0 $479 6.2831853071796004 $307 $480 forward 7 unknown #
loop $-1 $-1 $314 $193 #
plane-surface $-1 -28.960198365536939 -5.6709454692264387 86.725848660737483 0.68199836817093118 0 0.7313536940579346 0.7313536940579346 0 -0.68199836817093118 forward_v I I I I #
loop $-1 $-1 $481 $123 #
coedge $-1 $312 $312 $313 $482 reversed $194 $-1 #
coedge $-1 $313 $313 $312 $482 forward $196 $-1 #
coedge $-1 $314 $314 $197 $315 forward $309 $-1 #
edge $-1 $483 0 $483 6.2831853071796004 $314 $484 forward 7 unknown #
face $-1 $485 $486 $66 $-1 $487 reversed single #
loop $-1 $-1 $488 $198 #
plane-surface $-1 56.410420450935277 2.0909232574757972 178.27462700002852 0 1 0 0.68199836817093118 0 0.7313536940579346 forward_v I I I I #
coedge $-1 $489 $490 $491 $492 reversed $199 $-1 #
coedge $-1 $321 $201 $493 $494 reversed $127 $-1 #
coedge $-1 $201 $320 $489 $495 reversed $127 $-1 #
coedge $-1 $491 $496 $201 $323 forward $497 $-1 #
edge $-1 $498 -34.383369748286441 $499 -28.345224592251739 $322 $500 forward 7 unknown #
loop $-1 $-1 $329 $202 #
plane-surface $-1 -28.960198365536939 5.617294207108273 86.725848660737483 0.68199836817093118 0 0.7313536940579346 0.7313536940579346 0 -0.68199836817093118 forward_v I I I I #
loop $-1 $-1 $501 $129 #
coedge $-1 $327 $327 $328 $502 reversed $203 $-1 #
coedge $-1 $328 $328 $327 $502 forward $205 $-1 #
coedge $-1 $329 $329 $206 $330 forward $324 $-1 #
edge $-1 $503 0 $503 6.2831853071796004 $329 $504 forward 7 unknown #
loop $-1 $-1 $336 $207 #
plane-surface $-1 -28.960198365536939 5.617294207108273 86.725848660737483 0.68199836817093118 0 0.7313536940579346 0.7313536940579346 0 -0.68199836817093118 forward_v I I I I #
loop $-1 $-1 $505 $132 #
coedge $-1 $334 $334 $335 $506 reversed $208 $-1 #
coedge $-1 $335 $335 $334 $506 forward $210 $-1 #
coedge $-1 $336 $336 $211 $337 forward $331 $-1 #
edge $-1 $507 0 $507 6.2831853071796004 $336 $508 forward 7 unknown #
face $-1 $509 $510 $69 $-1 $511 reversed single #
loop $-1 $-1 $512 $212 #
plane-surface $-1 56.410420450935277 13.379162933810509 178.27462700002852 0 1 0 0.68199836817093118 0 0.7313536940579346 forward_v I I I I #
coedge $-1 $513 $514 $515 $516 reversed $213 $-1 #
coedge $-1 $343 $215 $517 $518 reversed $136 $-1 #
coedge $-1 $215 $342 $513 $519 reversed $136 $-1 #
coedge $-1 $515 $520 $215 $345 forward $521 $-1 #
edge $-1 $522 -34.383369748286441 $523 -28.345224592251739 $344 $524 forward 7 unknown #
loop $-1 $-1 $351 $216 #
plane-surface $-1 -28.960198365536939 16.905533883442985 86.725848660737483 0.68199836817093118 0 0.7313536940579346 0.7313536940579346 0 -0.68199836817093118 forward_v I I I I #
loop $-1 $-1 $525 $138 #
coedge $-1 $349 $349 $350 $526 reversed $217 $-1 #
coedge $-1 $350 $350 $349 $526 forward $219 $-1 #
coedge $-1 $351 $351 $220 $352 forward $346 $-1 #
edge $-1 $527 0 $527 6.2831853071796004 $351 $528 forward 7 unknown #
loop $-1 $-1 $358 $221 #
plane-surface $-1 -28.960198365536939 16.905533883442985 86.725848660737483 0.68199836817093118 0 0.7313536940579346 0.7313536940579346 0 -0.68199836817093118 forward_v I I I I #
loop $-1 $-1 $529 $141 #
coedge $-1 $356 $356 $357 $530 reversed $222 $-1 #
coedge $-1 $357 $357 $356 $530 forward $224 $-1 #
coedge $-1 $358 $358 $225 $359 forward $353 $-1 #
edge $-1 $531 0 $531 6.2831853071796004 $358 $532 forward 7 unknown #
face $-1 $533 $534 $54 $-1 $535 reversed single #
loop $-1 $-1 $536 $226 #
plane-surface $-1 -62.588579973754079 0 0 1 0 0 0 0 -1 forward_v I I I I #
coedge $-1 $537 $371 $538 $539 forward $227 $-1 #
coedge $-1 $540 $229 $537 $541 forward $145 $-1 #
coedge $-1 $229 $540 $542 $543 forward $145 $-1 #
coedge $-1 $374 $373 $229 $367 reversed $375 $-1 #
edge $-1 $544 -29.27644960221339 $545 29.27644960221339 $366 $546 forward 7 unknown #
coedge $-1 $231 $230 $547 $548 forward $91 $-1 #
coedge $-1 $549 $550 $230 $370 reversed $534 $-1 #
edge $-1 $377 -62.588579973754079 $551 62.588579973754079 $369 $552 forward 7 unknown #
coedge $-1 $363 $553 $231 $372 reversed $227 $-1 #
edge $-1 $554 -62.588579973754079 $376 62.588579973754079 $371 $555 forward 7 unknown #
coedge $-1 $366 $232 $553 $556 forward $375 $-1 #
coedge $-1 $232 $366 $549 $557 reversed $375 $-1 #
loop $-1 $-1 $373 $533 #
vertex $-1 $233 $558 #
vertex $-1 $233 $559 #
straight-curve $-1 62.588579973754079 0 6.9858914197145312 0 1 0 I I #
face $-1 $560 $561 $55 $-1 $562 reversed single #
loop $-1 $-1 $563 $234 #
plane-surface $-1 -62.588579973754079 0 0 1 0 0 0 0 -1 forward_v I I I I #
coedge $-1 $390 $564 $384 $565 forward $235 $-1 #
coedge $-1 $240 $237 $566 $567 reversed $149 $-1 #
coedge $-1 $237 $240 $382 $565 reversed $149 $-1 #
coedge $-1 $568 $569 $237 $386 forward $570 $-1 #
edge $-1 $571 -6.9858914197145312 $572 6.9858914197145312 $385 $573 forward 7 unknown #
coedge $-1 $239 $238 $563 $574 reversed $94 $-1 #
coedge $-1 $566 $575 $238 $389 forward $561 $-1 #
edge $-1 $576 -32.04428998687704 $393 -29.04428998687704 $388 $577 forward 7 unknown #
coedge $-1 $578 $382 $239 $391 forward $235 $-1 #
edge $-1 $392 29.04428998687704 $579 32.04428998687704 $390 $580 forward 7 unknown #
vertex $-1 $391 $581 #
vertex $-1 $389 $582 #
straight-curve $-1 -59.588579973754079 -22.576479352669431 0 0 0 -1 I I #
face $-1 $583 $584 $56 $-1 $585 forward single #
loop $-1 $-1 $248 $242 #
plane-surface $-1 -62.588579973754079 0 0 1 0 0 0 0 -1 forward_v I I I I #
coedge $-1 $403 $586 $399 $587 forward $243 $-1 #
coedge $-1 $588 $245 $398 $587 reversed $153 $-1 #
coedge $-1 $245 $588 $589 $590 reversed $153 $-1 #
coedge $-1 $247 $246 $245 $402 reversed $97 $-1 #
edge $-1 $591 -6.9858914197145312 $592 6.9858914197145312 $245 $593 forward 7 unknown #
coedge $-1 $594 $398 $246 $404 forward $243 $-1 #
edge $-1 $592 29.04428998687704 $409 32.04428998687704 $403 $595 forward 7 unknown #
coedge $-1 $589 $596 $247 $406 forward $584 $-1 #
edge $-1 $410 -32.04428998687704 $591 -29.04428998687704 $405 $597 forward 7 unknown #
coedge $-1 $598 $248 $596 $599 reversed $396 $-1 #
coedge $-1 $248 $598 $594 $600 reversed $396 $-1 #
vertex $-1 $600 $601 #
vertex $-1 $249 $602 #
straight-curve $-1 -62.588579973754079 22.576479352669434 0 0 0 1 I I #
face $-1 $-1 $425 $57 $-1 $603 reversed single #
loop $-1 $-1 $421 $250 #
plane-surface $-1 -61.088579973754079 22.576479352669434 0 0 1 0 0 0 1 forward_v I I I I #
coedge $-1 $604 $605 $417 $606 forward $251 $-1 #
coedge $-1 $417 $253 $255 $423 reversed $157 $-1 #
coedge $-1 $253 $416 $415 $606 reversed $157 $-1 #
coedge $-1 $607 $256 $253 $419 forward $425 $-1 #
edge $-1 $427 -36.511539752090123 $608 -30.079855959201947 $418 $609 forward 7 unknown #
coedge $-1 $255 $254 $604 $610 reversed $100 $-1 #
coedge $-1 $611 $612 $254 $422 forward $413 $-1 #
edge $-1 $613 -7.7333410631274528 $426 0.21665723424624209 $421 $614 forward 7 unknown #
edge $-1 $615 -7.9499982973736962 $427 0 $416 $616 forward 7 unknown #
coedge $-1 $256 $607 $611 $617 forward $425 $-1 #
loop $-1 $-1 $418 $412 #
vertex $-1 $422 $618 #
vertex $-1 $257 $619 #
straight-curve $-1 -62.588579973754079 9.764750173591608 0.55420762682635205 0 -1 0 I I #
coedge $-1 $429 $429 $-1 $620 reversed $260 $-1 #
edge $-1 $621 0 $621 6.2831853071796004 $261 $622 forward 7 unknown #
vertex $-1 $264 $623 #
ellipse-curve $-1 -60.25213414105518 18.223652201974836 3.7700495232704458 -0.80901700255871778 0 0.5877852410284794 0.2938926205142397 0 0.40450850127935889 1 I I #
coedge $-1 $433 $433 $-1 $624 reversed $267 $-1 #
edge $-1 $625 0 $625 6.2831853071796004 $268 $626 forward 7 unknown #
vertex $-1 $271 $627 #
ellipse-curve $-1 -60.25213414105518 20.835348492391589 3.7700495232704458 -0.80901700255871778 0 0.5877852410284794 0.2938926205142397 0 0.40450850127935889 1 I I #
face $-1 $-1 $449 $60 $-1 $628 forward single #
loop $-1 $-1 $629 $272 #
plane-surface $-1 62.588579973754079 0 0 -1 0 0 0 0 1 forward_v I I I I #
coedge $-1 $630 $631 $632 $633 reversed $273 $-1 #
coedge $-1 $634 $275 $277 $447 forward $171 $-1 #
coedge $-1 $275 $634 $630 $635 forward $171 $-1 #
coedge $-1 $632 $278 $275 $444 forward $449 $-1 #
edge $-1 $451 4.9532216231481012 $636 12.005963522413053 $443 $637 forward 7 unknown #
coedge $-1 $638 $639 $276 $446 forward $438 $-1 #
edge $-1 $640 -87.782083655748977 $450 -82.151422080299724 $445 $641 forward 7 unknown #
edge $-1 $451 116.92103817620499 $640 125.17715994750814 $277 $642 forward 7 unknown #
coedge $-1 $278 $632 $638 $643 forward $449 $-1 #
loop $-1 $-1 $632 $437 #
vertex $-1 $446 $644 #
vertex $-1 $279 $645 #
straight-curve $-1 28.205210225467638 -13.432814195928678 6.9858914197145339 -1 0 0 I I #
coedge $-1 $453 $453 $-1 $646 reversed $282 $-1 #
edge $-1 $647 0 $647 6.2831853071796004 $283 $648 forward 7 unknown #
vertex $-1 $286 $649 #
ellipse-curve $-1 59.569507395736721 -18.470486981117929 4.1705606319899156 0.68199836817093118 0 0.7313536940579346 0.3656768470289673 0 -0.34099918408546559 1 I I #
coedge $-1 $457 $457 $-1 $650 reversed $289 $-1 #
edge $-1 $651 0 $651 6.2831853071796004 $290 $652 forward 7 unknown #
vertex $-1 $293 $653 #
ellipse-curve $-1 59.569507395736721 -15.447883310004379 4.1705606319899156 0.68199836817093118 0 0.7313536940579346 0.3656768470289673 0 -0.34099918408546559 1 I I #
face $-1 $-1 $473 $63 $-1 $654 forward single #
loop $-1 $-1 $655 $294 #
plane-surface $-1 62.588579973754079 0 0 -1 0 0 0 0 1 forward_v I I I I #
coedge $-1 $656 $657 $658 $659 reversed $295 $-1 #
coedge $-1 $660 $297 $299 $471 forward $185 $-1 #
coedge $-1 $297 $660 $656 $661 forward $185 $-1 #
coedge $-1 $658 $300 $297 $468 forward $473 $-1 #
edge $-1 $475 -0.69089821501925641 $662 6.3618436842456951 $467 $663 forward 7 unknown #
coedge $-1 $664 $665 $298 $470 forward $462 $-1 #
edge $-1 $666 -87.782083655748977 $474 -82.151422080299724 $469 $667 forward 7 unknown #
edge $-1 $475 116.92103817620499 $666 125.17715994750814 $299 $668 forward 7 unknown #
coedge $-1 $300 $658 $664 $669 forward $473 $-1 #
loop $-1 $-1 $658 $461 #
vertex $-1 $470 $670 #
vertex $-1 $301 $671 #
straight-curve $-1 28.205210225467638 -2.1445745195939629 6.9858914197145339 -1 0 0 I I #
coedge $-1 $477 $477 $-1 $672 reversed $304 $-1 #
edge $-1 $673 0 $673 6.2831853071796004 $305 $674 forward 7 unknown #
vertex $-1 $308 $675 #
ellipse-curve $-1 59.569507395736721 -7.1822473047832176 4.1705606319899156 0.68199836817093118 0 0.7313536940579346 0.3656768470289673 0 -0.34099918408546559 1 I I #
coedge $-1 $481 $481 $-1 $676 reversed $311 $-1 #
edge $-1 $677 0 $677 6.2831853071796004 $312 $678 forward 7 unknown #
vertex $-1 $315 $679 #
ellipse-curve $-1 59.569507395736721 -4.1596436336696669 4.1705606319899156 0.68199836817093118 0 0.7313536940579346 0.3656768470289673 0 -0.34099918408546559 1 I I #
face $-1 $-1 $497 $66 $-1 $680 forward single #
loop $-1 $-1 $681 $316 #
plane-surface $-1 62.588579973754079 0 0 -1 0 0 0 0 1 forward_v I I I I #
coedge $-1 $682 $683 $684 $685 reversed $317 $-1 #
coedge $-1 $686 $319 $321 $495 forward $199 $-1 #
coedge $-1 $319 $686 $682 $687 forward $199 $-1 #
coedge $-1 $684 $322 $319 $492 forward $497 $-1 #
edge $-1 $499 -6.3350180531866123 $688 0.71772384607833928 $491 $689 forward 7 unknown #
coedge $-1 $690 $691 $320 $494 forward $486 $-1 #
edge $-1 $692 -87.782083655748977 $498 -82.151422080299724 $493 $693 forward 7 unknown #
edge $-1 $499 116.92103817620499 $692 125.17715994750814 $321 $694 forward 7 unknown #
coedge $-1 $322 $684 $690 $695 forward $497 $-1 #
loop $-1 $-1 $684 $485 #
vertex $-1 $494 $696 #
vertex $-1 $323 $697 #
straight-curve $-1 28.205210225467638 9.1436651567407488 6.9858914197145339 -1 0 0 I I #
coedge $-1 $501 $501 $-1 $698 reversed $326 $-1 #
edge $-1 $699 0 $699 6.2831853071796004 $327 $700 forward 7 unknown #
vertex $-1 $330 $701 #
ellipse-curve $-1 59.569507395736721 4.1059923715514941 4.1705606319899156 0.68199836817093118 0 0.7313536940579346 0.3656768470289673 0 -0.34099918408546559 1 I I #
coedge $-1 $505 $505 $-1 $702 reversed $333 $-1 #
edge $-1 $703 0 $703 6.2831853071796004 $334 $704 forward 7 unknown #
vertex $-1 $337 $705 #
ellipse-curve $-1 59.569507395736721 7.1285960426650448 4.1705606319899156 0.68199836817093118 0 0.7313536940579346 0.3656768470289673 0 -0.34099918408546559 1 I I #
face $-1 $-1 $521 $69 $-1 $706 forward single #
loop $-1 $-1 $707 $338 #
plane-surface $-1 62.588579973754079 0 0 -1 0 0 0 0 1 forward_v I I I I #
coedge $-1 $708 $709 $710 $711 reversed $339 $-1 #
coedge $-1 $712 $341 $343 $519 forward $213 $-1 #
coedge $-1 $341 $712 $708 $713 forward $213 $-1 #
coedge $-1 $710 $344 $341 $516 forward $521 $-1 #
edge $-1 $523 -11.979137891353968 $714 -4.9263959920890166 $515 $715 forward 7 unknown #
coedge $-1 $716 $717 $342 $518 forward $510 $-1 #
edge $-1 $718 -87.782083655748977 $522 -82.151422080299724 $517 $719 forward 7 unknown #
edge $-1 $523 116.92103817620499 $718 125.17715994750814 $343 $720 forward 7 unknown #
coedge $-1 $344 $710 $716 $721 forward $521 $-1 #
loop $-1 $-1 $710 $509 #
vertex $-1 $518 $722 #
vertex $-1 $345 $723 #
straight-curve $-1 28.205210225467638 20.43190483307546 6.9858914197145339 -1 0 0 I I #
coedge $-1 $525 $525 $-1 $724 reversed $348 $-1 #
edge $-1 $725 0 $725 6.2831853071796004 $349 $726 forward 7 unknown #
vertex $-1 $352 $727 #
ellipse-curve $-1 59.569507395736721 15.394232047886206 4.1705606319899156 0.68199836817093118 0 0.7313536940579346 0.3656768470289673 0 -0.34099918408546559 1 I I #
coedge $-1 $529 $529 $-1 $728 reversed $355 $-1 #
edge $-1 $729 0 $729 6.2831853071796004 $356 $730 forward 7 unknown #
vertex $-1 $359 $731 #
ellipse-curve $-1 59.569507395736721 18.416835718999756 4.1705606319899156 0.68199836817093118 0 0.7313536940579346 0.3656768470289673 0 -0.34099918408546559 1 I I #
face $-1 $-1 $375 $54 $-1 $732 reversed single #
loop $-1 $-1 $549 $360 #
plane-surface $-1 0 29.27644960221339 0 0 -1 0 0 0 -1 forward_v I I I I #
coedge $-1 $733 $547 $550 $734 forward $361 $-1 #
coedge $-1 $553 $363 $364 $541 reversed $227 $-1 #
coedge $-1 $547 $733 $363 $539 reversed $361 $-1 #
edge $-1 $554 -6.9858914197145312 $735 6.9858914197145312 $538 $736 forward 7 unknown #
coedge $-1 $365 $364 $733 $737 forward $145 $-1 #
edge $-1 $545 -62.588579973754079 $735 62.588579973754079 $537 $738 forward 7 unknown #
coedge $-1 $550 $549 $365 $543 reversed $534 $-1 #
edge $-1 $739 -62.588579973754079 $544 62.588579973754079 $542 $740 forward 7 unknown #
vertex $-1 $367 $741 #
vertex $-1 $556 $742 #
straight-curve $-1 62.588579973754079 0 -6.9858914197145312 0 -1 0 I I #
coedge $-1 $536 $538 $368 $548 reversed $361 $-1 #
edge $-1 $551 -29.27644960221339 $554 29.27644960221339 $547 $743 forward 7 unknown #
coedge $-1 $542 $369 $374 $557 forward $534 $-1 #
coedge $-1 $369 $542 $536 $734 reversed $534 $-1 #
vertex $-1 $370 $744 #
straight-curve $-1 0 29.27644960221339 6.9858914197145312 -1 0 0 I I #
coedge $-1 $371 $537 $373 $556 reversed $227 $-1 #
vertex $-1 $548 $745 #
straight-curve $-1 0 -29.27644960221339 6.9858914197145312 1 0 0 I I #
edge $-1 $376 -6.9858914197145312 $545 6.9858914197145312 $373 $746 forward 7 unknown #
edge $-1 $377 -6.9858914197145312 $544 6.9858914197145312 $374 $747 forward 7 unknown #
point $-1 62.588579973754079 -29.27644960221339 6.9858914197145312 #
point $-1 62.588579973754079 29.27644960221339 6.9858914197145312 #
face $-1 $-1 $570 $55 $-1 $748 reversed single #
loop $-1 $-1 $566 $379 #
plane-surface $-1 0 0 -6.9858914197145312 0 0 1 1 0 0 forward_v I I I I #
coedge $-1 $749 $750 $387 $574 forward $380 $-1 #
coedge $-1 $382 $578 $568 $751 forward $235 $-1 #
edge $-1 $572 -16.313217363492683 $392 -9.6132471139487254 $382 $752 forward 7 unknown #
coedge $-1 $753 $388 $383 $567 forward $561 $-1 #
edge $-1 $393 9.6132471139487254 $571 16.313217363492683 $566 $754 forward 7 unknown #
coedge $-1 $755 $385 $564 $751 reversed $570 $-1 #
coedge $-1 $385 $755 $753 $756 reversed $570 $-1 #
loop $-1 $-1 $385 $560 #
vertex $-1 $756 $757 #
vertex $-1 $386 $758 #
straight-curve $-1 -59.588579973754079 -29.27644960221339 0 0 0 1 I I #
edge $-1 $579 -6.9858914197145312 $576 6.9858914197145312 $563 $759 forward 7 unknown #
coedge $-1 $388 $753 $749 $760 forward $561 $-1 #
vertex $-1 $389 $761 #
straight-curve $-1 -30.54428998687704 -22.576479352669431 -6.9858914197145312 1 0 0 I I #
coedge $-1 $564 $390 $750 $762 forward $235 $-1 #
vertex $-1 $762 $763 #
straight-curve $-1 -30.54428998687704 -22.576479352669431 6.9858914197145312 -1 0 0 I I #
point $-1 -59.588579973754079 -22.576479352669431 6.9858914197145312 #
point $-1 -59.588579973754079 -22.576479352669431 -6.9858914197145312 #
face $-1 $-1 $764 $56 $-1 $765 reversed single #
loop $-1 $-1 $589 $395 #
plane-surface $-1 0 0 6.9858914197145312 0 0 1 1 0 0 forward_v I I I I #
coedge $-1 $398 $594 $766 $767 forward $243 $-1 #
edge $-1 $768 -16.313217363492686 $592 -9.6132471139487272 $398 $769 forward 7 unknown #
coedge $-1 $400 $399 $770 $771 reversed $153 $-1 #
coedge $-1 $772 $405 $400 $590 forward $584 $-1 #
edge $-1 $591 9.6132471139487272 $773 16.313217363492686 $589 $774 forward 7 unknown #
vertex $-1 $406 $775 #
vertex $-1 $404 $776 #
straight-curve $-1 -59.588579973754079 22.576479352669434 0 0 0 -1 I I #
coedge $-1 $586 $403 $408 $600 forward $243 $-1 #
straight-curve $-1 -30.54428998687704 22.576479352669434 -6.9858914197145312 -1 0 0 I I #
coedge $-1 $405 $772 $407 $599 forward $584 $-1 #
straight-curve $-1 -30.54428998687704 22.576479352669434 6.9858914197145312 1 0 0 I I #
coedge $-1 $408 $407 $777 $778 forward $396 $-1 #
edge $-1 $779 -29.27644960221339 $410 -22.576479352669434 $407 $780 forward 7 unknown #
edge $-1 $409 22.576479352669434 $781 29.27644960221339 $408 $782 forward 7 unknown #
point $-1 -62.588579973754079 22.576479352669434 -6.9858914197145312 #
point $-1 -62.588579973754079 22.576479352669434 6.9858914197145312 #
plane-surface $-1 -62.588579973754079 0 0 1 0 0 0 0 -1 forward_v I I I I #
coedge $-1 $783 $415 $420 $610 forward $251 $-1 #
coedge $-1 $415 $783 $607 $784 forward $251 $-1 #
edge $-1 $608 19.340935377896074 $615 24.013827043293873 $415 $785 forward 7 unknown #
coedge $-1 $424 $418 $605 $784 reversed $425 $-1 #
vertex $-1 $419 $786 #
straight-curve $-1 -62.588579973754079 16.482521341697002 37.065747378916477 0 0 1 I I #
edge $-1 $615 6.7177711681053935 $613 12.811729179077822 $604 $787 forward 7 unknown #
coedge $-1 $612 $421 $424 $617 reversed $413 $-1 #
coedge $-1 $421 $611 $783 $788 reversed $413 $-1 #
vertex $-1 $788 $789 #
straight-curve $-1 -62.461232049102087 22.576479352669434 0.72948701305890995 -0.5877852410284794 0 -0.80901700255871778 I I #
vertex $-1 $610 $790 #
straight-curve $-1 -62.588579973754079 16.482521341697002 0.55420762682635427 -0.5877852410284794 0 -0.80901700255871778 I I #
edge $-1 $791 -6.9858914197145312 $426 -0.55420762682635427 $424 $792 forward 7 unknown #
point $-1 -62.588579973754079 22.576479352669434 0.55420762682635427 #
point $-1 -62.588579973754079 16.482521341697002 0.55420762682635427 #
edge $-1 $793 1 $793 0 $429 $-1 forward 7 unknown #
vertex $-1 $430 $794 #
ellipse-curve $-1 -59.30080401850536 18.223652201974836 3.0788677513026648 -0.80901700255871778 0 0.5877852410284794 0.2938926205142397 0 0.40450850127935889 1 I I #
point $-1 -59.958241520540945 18.223652201974836 4.174558024549806 #
edge $-1 $795 1 $795 0 $433 $-1 forward 7 unknown #
vertex $-1 $434 $796 #
ellipse-curve $-1 -59.30080401850536 20.835348492391589 3.0788677513026648 -0.80901700255871778 0 0.5877852410284794 0.2938926205142397 0 0.40450850127935889 1 I I #
point $-1 -59.958241520540945 20.835348492391589 4.174558024549806 #
plane-surface $-1 0 0 6.9858914197145312 0 0 1 1 0 0 forward_v I I I I #
coedge $-1 $639 $638 $631 $797 forward $438 $-1 #
coedge $-1 $631 $440 $442 $635 reversed $273 $-1 #
coedge $-1 $440 $630 $629 $797 reversed $273 $-1 #
coedge $-1 $448 $443 $440 $633 forward $449 $-1 #
edge $-1 $636 28.345224592251739 $798 34.383369748286441 $632 $799 forward 7 unknown #
coedge $-1 $442 $441 $639 $800 reversed $171 $-1 #
edge $-1 $801 -125.17715994750814 $636 -116.92103817620499 $630 $802 forward 7 unknown #
vertex $-1 $444 $803 #
straight-curve $-1 56.550434817719363 -8.479592572780577 6.9858914197145339 0 -1 0 I I #
coedge $-1 $629 $445 $448 $643 reversed $438 $-1 #
coedge $-1 $445 $629 $634 $800 forward $438 $-1 #
vertex $-1 $446 $804 #
straight-curve $-1 62.588579973754079 -13.432814195928678 89.137313500014258 0 0 1 I I #
straight-curve $-1 -28.960198365536939 -13.432814195928678 86.725848660737483 0.7313536940579346 0 -0.68199836817093118 I I #
edge $-1 $798 -20.48555609519363 $450 -13.432814195928678 $638 $805 forward 7 unknown #
point $-1 62.588579973754079 -13.432814195928678 6.9858914197145312 #
point $-1 56.550434817719378 -13.432814195928678 6.9858914197145339 #
edge $-1 $806 1 $806 0 $453 $-1 forward 7 unknown #
vertex $-1 $454 $807 #
ellipse-curve $-1 58.290024175247936 -18.470486981117929 2.7984828918345568 0.68199836817093118 0 0.7313536940579346 0.3656768470289673 0 -0.34099918408546559 1 I I #
point $-1 59.935184242765679 -18.470486981117929 3.8295614479044437 #
edge $-1 $808 1 $808 0 $457 $-1 forward 7 unknown #
vertex $-1 $458 $809 #
ellipse-curve $-1 58.290024175247936 -15.447883310004379 2.7984828918345568 0.68199836817093118 0 0.7313536940579346 0.3656768470289673 0 -0.34099918408546559 1 I I #
point $-1 59.935184242765679 -15.447883310004379 3.8295614479044437 #
plane-surface $-1 0 0 6.9858914197145312 0 0 1 1 0 0 forward_v I I I I #
coedge $-1 $665 $664 $657 $810 forward $462 $-1 #
coedge $-1 $657 $464 $466 $661 reversed $295 $-1 #
coedge $-1 $464 $656 $655 $810 reversed $295 $-1 #
coedge $-1 $472 $467 $464 $659 forward $473 $-1 #
edge $-1 $662 28.345224592251739 $811 34.383369748286441 $658 $812 forward 7 unknown #
coedge $-1 $466 $465 $665 $813 reversed $185 $-1 #
edge $-1 $814 -125.17715994750814 $662 -116.92103817620499 $656 $815 forward 7 unknown #
vertex $-1 $468 $816 #
straight-curve $-1 56.550434817719363 -2.8354727346132194 6.9858914197145339 0 -1 0 I I #
coedge $-1 $655 $469 $472 $669 reversed $462 $-1 #
coedge $-1 $469 $655 $660 $813 forward $462 $-1 #
vertex $-1 $470 $817 #
straight-curve $-1 62.588579973754079 -2.1445745195939629 89.137313500014258 0 0 1 I I #
straight-curve $-1 -28.960198365536939 -2.1445745195939629 86.725848660737483 0.7313536940579346 0 -0.68199836817093118 I I #
edge $-1 $811 -9.1973164188589145 $474 -2.1445745195939629 $664 $818 forward 7 unknown #
point $-1 62.588579973754079 -2.1445745195939629 6.9858914197145312 #
point $-1 56.550434817719378 -2.1445745195939629 6.9858914197145339 #
edge $-1 $819 1 $819 0 $477 $-1 forward 7 unknown #
vertex $-1 $478 $820 #
ellipse-curve $-1 58.290024175247936 -7.1822473047832176 2.7984828918345568 0.68199836817093118 0 0.7313536940579346 0.3656768470289673 0 -0.34099918408546559 1 I I #
point $-1 59.935184242765679 -7.1822473047832176 3.8295614479044437 #
edge $-1 $821 1 $821 0 $481 $-1 forward 7 unknown #
vertex $-1 $482 $822 #
ellipse-curve $-1 58.290024175247936 -4.1596436336696669 2.7984828918345568 0.68199836817093118 0 0.7313536940579346 0.3656768470289673 0 -0.34099918408546559 1 I I #
point $-1 59.935184242765679 -4.1596436336696669 3.8295614479044437 #
plane-surface $-1 0 0 6.9858914197145312 0 0 1 1 0 0 forward_v I I I I #
coedge $-1 $691 $690 $683 $823 forward $486 $-1 #
coedge $-1 $683 $488 $490 $687 reversed $317 $-1 #
coedge $-1 $488 $682 $681 $823 reversed $317 $-1 #
coedge $-1 $496 $491 $488 $685 forward $497 $-1 #
edge $-1 $688 28.345224592251739 $824 34.383369748286441 $684 $825 forward 7 unknown #
coedge $-1 $490 $489 $691 $826 reversed $199 $-1 #
edge $-1 $827 -125.17715994750814 $688 -116.92103817620499 $682 $828 forward 7 unknown #
vertex $-1 $492 $829 #
straight-curve $-1 56.550434817719363 2.8086471035541365 6.9858914197145339 0 -1 0 I I #
coedge $-1 $681 $493 $496 $695 reversed $486 $-1 #
coedge $-1 $493 $681 $686 $826 forward $486 $-1 #
vertex $-1 $494 $830 #
straight-curve $-1 62.588579973754079 9.1436651567407488 89.137313500014258 0 0 1 I I #
straight-curve $-1 -28.960198365536939 9.1436651567407488 86.725848660737483 0.7313536940579346 0 -0.68199836817093118 I I #
edge $-1 $824 2.0909232574757972 $498 9.1436651567407488 $690 $831 forward 7 unknown #
point $-1 62.588579973754079 9.1436651567407488 6.9858914197145312 #
point $-1 56.550434817719378 9.1436651567407488 6.9858914197145339 #
edge $-1 $832 1 $832 0 $501 $-1 forward 7 unknown #
vertex $-1 $502 $833 #
ellipse-curve $-1 58.290024175247936 4.1059923715514941 2.7984828918345568 0.68199836817093118 0 0.7313536940579346 0.3656768470289673 0 -0.34099918408546559 1 I I #
point $-1 59.935184242765679 4.1059923715514941 3.8295614479044437 #
edge $-1 $834 1 $834 0 $505 $-1 forward 7 unknown #
vertex $-1 $506 $835 #
ellipse-curve $-1 58.290024175247936 7.1285960426650448 2.7984828918345568 0.68199836817093118 0 0.7313536940579346 0.3656768470289673 0 -0.34099918408546559 1 I I #
point $-1 59.935184242765679 7.1285960426650448 3.8295614479044437 #
plane-surface $-1 0 0 6.9858914197145312 0 0 1 1 0 0 forward_v I I I I #
coedge $-1 $717 $716 $709 $836 forward $510 $-1 #
coedge $-1 $709 $512 $514 $713 reversed $339 $-1 #
coedge $-1 $512 $708 $707 $836 reversed $339 $-1 #
coedge $-1 $520 $515 $512 $711 forward $521 $-1 #
edge $-1 $714 28.345224592251739 $837 34.383369748286441 $710 $838 forward 7 unknown #
coedge $-1 $514 $513 $717 $839 reversed $213 $-1 #
edge $-1 $840 -125.17715994750814 $714 -116.92103817620499 $708 $841 forward 7 unknown #
vertex $-1 $516 $842 #
straight-curve $-1 56.550434817719363 8.4527669417214923 6.9858914197145339 0 -1 0 I I #
coedge $-1 $707 $517 $520 $721 reversed $510 $-1 #
coedge $-1 $517 $707 $712 $839 forward $510 $-1 #
vertex $-1 $518 $843 #
straight-curve $-1 62.588579973754079 20.43190483307546 89.137313500014258 0 0 1 I I #
straight-curve $-1 -28.960198365536939 20.43190483307546 86.725848660737483 0.7313536940579346 0 -0.68199836817093118 I I #
edge $-1 $837 13.379162933810509 $522 20.43190483307546 $716 $844 forward 7 unknown #
point $-1 62.588579973754079 20.43190483307546 6.9858914197145312 #
point $-1 56.550434817719378 20.43190483307546 6.9858914197145339 #
edge $-1 $845 1 $845 0 $525 $-1 forward 7 unknown #
vertex $-1 $526 $846 #
ellipse-curve $-1 58.290024175247936 15.394232047886206 2.7984828918345568 0.68199836817093118 0 0.7313536940579346 0.3656768470289673 0 -0.34099918408546559 1 I I #
point $-1 59.935184242765679 15.394232047886206 3.8295614479044437 #
edge $-1 $847 1 $847 0 $529 $-1 forward 7 unknown #
vertex $-1 $530 $848 #
ellipse-curve $-1 58.290024175247936 18.416835718999756 2.7984828918345568 0.68199836817093118 0 0.7313536940579346 0.3656768470289673 0 -0.34099918408546559 1 I I #
point $-1 59.935184242765679 18.416835718999756 3.8295614479044437 #
plane-surface $-1 62.588579973754079 0 0 -1 0 0 0 0 1 forward_v I I I I #
coedge $-1 $538 $536 $540 $737 reversed $361 $-1 #
edge $-1 $551 -6.9858914197145312 $739 6.9858914197145312 $550 $849 forward 7 unknown #
vertex $-1 $737 $850 #
straight-curve $-1 -62.588579973754079 -29.27644960221339 0 0 0 -1 I I #
edge $-1 $735 -29.27644960221339 $739 29.27644960221339 $733 $851 forward 7 unknown #
straight-curve $-1 0 -29.27644960221339 -6.9858914197145312 -1 0 0 I I #
vertex $-1 $543 $852 #
straight-curve $-1 0 29.27644960221339 -6.9858914197145312 1 0 0 I I #
point $-1 62.588579973754079 29.27644960221339 -6.9858914197145312 #
point $-1 62.588579973754079 -29.27644960221339 -6.9858914197145312 #
straight-curve $-1 -62.588579973754079 0 6.9858914197145312 0 -1 0 I I #
point $-1 -62.588579973754079 29.27644960221339 6.9858914197145312 #
point $-1 -62.588579973754079 -29.27644960221339 6.9858914197145312 #
straight-curve $-1 62.588579973754079 -29.27644960221339 0 0 0 -1 I I #
straight-curve $-1 62.588579973754079 29.27644960221339 0 0 0 -1 I I #
plane-surface $-1 0 -29.27644960221339 0 0 1 0 0 0 1 forward_v I I I I #
coedge $-1 $853 $563 $575 $760 reversed $380 $-1 #
coedge $-1 $563 $853 $578 $762 reversed $380 $-1 #
edge $-1 $854 -62.588579973754079 $572 -59.588579973754079 $568 $855 forward 7 unknown #
straight-curve $-1 -59.588579973754079 -12.963232238720705 6.9858914197145312 0 1 0 I I #
coedge $-1 $575 $566 $569 $756 forward $561 $-1 #
straight-curve $-1 -59.588579973754079 -12.963232238720705 -6.9858914197145312 0 -1 0 I I #
coedge $-1 $569 $568 $853 $856 forward $570 $-1 #
edge $-1 $571 59.588579973754079 $857 62.588579973754079 $569 $858 forward 7 unknown #
point $-1 -59.588579973754079 -29.27644960221339 -6.9858914197145312 #
point $-1 -59.588579973754079 -29.27644960221339 6.9858914197145312 #
straight-curve $-1 -62.588579973754079 -22.576479352669431 0 0 0 -1 I I #
edge $-1 $857 -29.27644960221339 $576 -22.576479352669431 $749 $859 forward 7 unknown #
point $-1 -62.588579973754079 -22.576479352669431 -6.9858914197145312 #
edge $-1 $579 22.576479352669431 $854 29.27644960221339 $750 $860 forward 7 unknown #
point $-1 -62.588579973754079 -22.576479352669431 6.9858914197145312 #
loop $-1 $-1 $770 $583 #
plane-surface $-1 0 29.27644960221339 0 0 -1 0 0 0 -1 forward_v I I I I #
coedge $-1 $777 $770 $586 $767 reversed $764 $-1 #
edge $-1 $781 -62.588579973754079 $768 -59.588579973754079 $766 $861 forward 7 unknown #
vertex $-1 $587 $862 #
straight-curve $-1 -59.588579973754079 12.963232238720707 -6.9858914197145312 0 -1 0 I I #
coedge $-1 $766 $863 $588 $771 forward $764 $-1 #
edge $-1 $773 -6.9858914197145312 $768 6.9858914197145312 $770 $864 forward 7 unknown #
coedge $-1 $596 $589 $863 $865 forward $584 $-1 #
vertex $-1 $865 $866 #
straight-curve $-1 -59.588579973754079 12.963232238720707 6.9858914197145312 0 1 0 I I #
point $-1 -59.588579973754079 22.576479352669434 6.9858914197145312 #
point $-1 -59.588579973754079 22.576479352669434 -6.9858914197145312 #
coedge $-1 $863 $766 $598 $778 reversed $764 $-1 #
edge $-1 $779 -6.9858914197145312 $781 6.9858914197145312 $777 $867 forward 7 unknown #
vertex $-1 $865 $868 #
straight-curve $-1 -62.588579973754079 0 6.9858914197145312 0 -1 0 I I #
vertex $-1 $767 $869 #
straight-curve $-1 -62.588579973754079 0 -6.9858914197145312 0 1 0 I I #
coedge $-1 $605 $604 $612 $788 forward $251 $-1 #
edge $-1 $791 -22.576479352669434 $608 -16.482521341697002 $607 $870 forward 7 unknown #
straight-curve $-1 -81.929515351650153 16.482521341697002 6.9858914197145339 1 0 0 I I #
point $-1 -62.588579973754079 16.482521341697002 6.9858914197145312 #
straight-curve $-1 -57.915688308356273 9.764750173591608 6.9858914197145303 0 1 0 I I #
edge $-1 $613 27.371398321479241 $791 32.04428998687704 $783 $871 forward 7 unknown #
point $-1 -57.91568830835628 22.576479352669431 6.9858914197145312 #
point $-1 -57.91568830835628 16.482521341697002 6.9858914197145312 #
vertex $-1 $784 $872 #
straight-curve $-1 -62.588579973754079 22.576479352669434 0 0 0 -1 I I #
vertex $-1 $620 $873 #
point $-1 -59.006911397991125 18.223652201974836 3.4833762525820235 #
vertex $-1 $624 $874 #
point $-1 -59.006911397991125 20.835348492391589 3.4833762525820235 #
edge $-1 $798 82.151422080299724 $801 87.782083655748977 $629 $875 forward 7 unknown #
vertex $-1 $643 $876 #
straight-curve $-1 28.205210225467638 -20.48555609519363 6.9858914197145339 1 0 0 I I #
edge $-1 $801 -12.005963522413053 $640 -4.9532216231481012 $639 $877 forward 7 unknown #
vertex $-1 $800 $878 #
straight-curve $-1 -28.960198365536939 -20.48555609519363 86.725848660737483 -0.7313536940579346 0 0.68199836817093118 I I #
point $-1 56.550434817719378 -20.48555609519363 6.9858914197145339 #
point $-1 62.588579973754079 -13.432814195928678 1.3552298442652813 #
straight-curve $-1 62.588579973754079 0 6.9858914197145312 0 1 0 I I #
vertex $-1 $646 $879 #
point $-1 58.655701022276908 -18.470486981117929 2.4574837077490912 #
vertex $-1 $650 $880 #
point $-1 58.655701022276908 -15.447883310004379 2.4574837077490912 #
edge $-1 $811 82.151422080299724 $814 87.782083655748977 $655 $881 forward 7 unknown #
vertex $-1 $669 $882 #
straight-curve $-1 28.205210225467638 -9.1973164188589145 6.9858914197145339 1 0 0 I I #
edge $-1 $814 -6.3618436842456951 $666 0.69089821501925641 $665 $883 forward 7 unknown #
vertex $-1 $813 $884 #
straight-curve $-1 -28.960198365536939 -9.1973164188589145 86.725848660737483 -0.7313536940579346 0 0.68199836817093118 I I #
point $-1 56.550434817719378 -9.1973164188589145 6.9858914197145339 #
point $-1 62.588579973754079 -2.1445745195939629 1.3552298442652813 #
straight-curve $-1 62.588579973754079 0 6.9858914197145312 0 1 0 I I #
vertex $-1 $672 $885 #
point $-1 58.655701022276908 -7.1822473047832176 2.4574837077490912 #
vertex $-1 $676 $886 #
point $-1 58.655701022276908 -4.1596436336696669 2.4574837077490912 #
edge $-1 $824 82.151422080299724 $827 87.782083655748977 $681 $887 forward 7 unknown #
vertex $-1 $695 $888 #
straight-curve $-1 28.205210225467638 2.0909232574757972 6.9858914197145339 1 0 0 I I #
edge $-1 $827 -0.71772384607833928 $692 6.3350180531866123 $691 $889 forward 7 unknown #
vertex $-1 $826 $890 #
straight-curve $-1 -28.960198365536939 2.0909232574757972 86.725848660737483 -0.7313536940579346 0 0.68199836817093118 I I #
point $-1 56.550434817719378 2.0909232574757972 6.9858914197145339 #
point $-1 62.588579973754079 9.1436651567407488 1.3552298442652813 #
straight-curve $-1 62.588579973754079 0 6.9858914197145312 0 1 0 I I #
vertex $-1 $698 $891 #
point $-1 58.655701022276908 4.1059923715514941 2.4574837077490912 #
vertex $-1 $702 $892 #
point $-1 58.655701022276908 7.1285960426650448 2.4574837077490912 #
edge $-1 $837 82.151422080299724 $840 87.782083655748977 $707 $893 forward 7 unknown #
vertex $-1 $721 $894 #
straight-curve $-1 28.205210225467638 13.379162933810509 6.9858914197145339 1 0 0 I I #
edge $-1 $840 4.9263959920890166 $718 11.979137891353968 $717 $895 forward 7 unknown #
vertex $-1 $839 $896 #
straight-curve $-1 -28.960198365536939 13.379162933810509 86.725848660737483 -0.7313536940579346 0 0.68199836817093118 I I #
point $-1 56.550434817719378 13.379162933810509 6.9858914197145339 #
point $-1 62.588579973754079 20.43190483307546 1.3552298442652813 #
straight-curve $-1 62.588579973754079 0 6.9858914197145312 0 1 0 I I #
vertex $-1 $724 $897 #
point $-1 58.655701022276908 15.394232047886206 2.4574837077490912 #
vertex $-1 $728 $898 #
point $-1 58.655701022276908 18.416835718999756 2.4574837077490912 #
straight-curve $-1 -62.588579973754079 29.27644960221339 0 0 0 -1 I I #
point $-1 -62.588579973754079 -29.27644960221339 -6.9858914197145312 #
straight-curve $-1 -62.588579973754079 0 -6.9858914197145312 0 1 0 I I #
point $-1 -62.588579973754079 29.27644960221339 -6.9858914197145312 #
coedge $-1 $750 $749 $755 $856 reversed $380 $-1 #
vertex $-1 $762 $899 #
straight-curve $-1 0 -29.27644960221339 6.9858914197145312 1 0 0 I I #
edge $-1 $854 -6.9858914197145312 $857 6.9858914197145312 $853 $900 forward 7 unknown #
vertex $-1 $760 $901 #
straight-curve $-1 0 -29.27644960221339 -6.9858914197145312 -1 0 0 I I #
straight-curve $-1 -62.588579973754079 0 -6.9858914197145312 0 1 0 I I #
straight-curve $-1 -62.588579973754079 0 6.9858914197145312 0 -1 0 I I #
straight-curve $-1 0 29.27644960221339 -6.9858914197145312 1 0 0 I I #
point $-1 -59.588579973754079 29.276449602213393 -6.9858914197145312 #
coedge $-1 $770 $777 $772 $865 reversed $764 $-1 #
straight-curve $-1 -59.588579973754079 29.27644960221339 0 0 0 -1 I I #
edge $-1 $773 59.588579973754079 $779 62.588579973754079 $863 $902 forward 7 unknown #
point $-1 -59.588579973754079 29.276449602213393 6.9858914197145312 #
straight-curve $-1 -62.588579973754079 29.27644960221339 0 0 0 -1 I I #
point $-1 -62.588579973754079 29.27644960221339 6.9858914197145312 #
point $-1 -62.588579973754079 29.27644960221339 -6.9858914197145312 #
straight-curve $-1 -62.588579973754079 0 6.9858914197145312 0 -1 0 I I #
straight-curve $-1 -30.54428998687704 22.576479352669434 6.9858914197145312 -1 0 0 I I #
point $-1 -62.588579973754079 22.576479352669434 6.9858914197145312 #
point $-1 -58.896295517226008 18.223652201974836 2.7849751307884252 #
point $-1 -58.896295517226008 20.835348492391589 2.7849751307884252 #
straight-curve $-1 62.588579973754079 -20.48555609519363 89.137313500014258 0 0 -1 I I #
point $-1 62.588579973754079 -20.48555609519363 6.9858914197145312 #
straight-curve $-1 62.588579973754065 -8.479592572780577 1.3552298442652884 0 1 0 I I #
point $-1 62.588579973754079 -20.48555609519363 1.3552298442652813 #
point $-1 57.949024991162474 -18.470486981117929 2.4328060448055893 #
point $-1 57.949024991162474 -15.447883310004379 2.4328060448055893 #
straight-curve $-1 62.588579973754079 -9.1973164188589145 89.137313500014258 0 0 -1 I I #
point $-1 62.588579973754079 -9.1973164188589145 6.9858914197145312 #
straight-curve $-1 62.588579973754065 -2.8354727346132194 1.3552298442652884 0 1 0 I I #
point $-1 62.588579973754079 -9.1973164188589145 1.3552298442652813 #
point $-1 57.949024991162474 -7.1822473047832176 2.4328060448055893 #
point $-1 57.949024991162474 -4.1596436336696669 2.4328060448055893 #
straight-curve $-1 62.588579973754079 2.0909232574757972 89.137313500014258 0 0 -1 I I #
point $-1 62.588579973754079 2.0909232574757972 6.9858914197145312 #
straight-curve $-1 62.588579973754065 2.8086471035541365 1.3552298442652884 0 1 0 I I #
point $-1 62.588579973754079 2.0909232574757972 1.3552298442652813 #
point $-1 57.949024991162474 4.1059923715514941 2.4328060448055893 #
point $-1 57.949024991162474 7.1285960426650448 2.4328060448055893 #
straight-curve $-1 62.588579973754079 13.379162933810509 89.137313500014258 0 0 -1 I I #
point $-1 62.588579973754079 13.379162933810509 6.9858914197145312 #
straight-curve $-1 62.588579973754065 8.4527669417214923 1.3552298442652884 0 1 0 I I #
point $-1 62.588579973754079 13.379162933810509 1.3552298442652813 #
point $-1 57.949024991162474 15.394232047886206 2.4328060448055893 #
point $-1 57.949024991162474 18.416835718999756 2.4328060448055893 #
point $-1 -62.588579973754079 -29.27644960221339 6.9858914197145312 #
straight-curve $-1 -62.588579973754079 -29.27644960221339 0 0 0 -1 I I #
point $-1 -62.588579973754079 -29.27644960221339 -6.9858914197145312 #
straight-curve $-1 0 29.27644960221339 6.9858914197145312 -1 0 0 I I #
End-of-ACIS-data 