500 0 14 0           
7 Unknown 11 ACIS 5.0 NT 24 Fri Mar 26 03:31:23 1999 
-1 9.9999999999999995e-007 1e-010 
body $-1 $14 $-1 $15 #
body $-1 $16 $-1 $17 #
body $-1 $18 $-1 $19 #
body $-1 $20 $-1 $21 #
body $-1 $22 $-1 $23 #
body $-1 $24 $-1 $25 #
body $-1 $26 $-1 $27 #
body $-1 $28 $-1 $29 #
body $-1 $30 $-1 $31 #
body $-1 $32 $-1 $33 #
body $-1 $34 $-1 $35 #
body $-1 $36 $-1 $37 #
body $-1 $38 $-1 $39 #
body $-1 $40 $-1 $41 #
lump $-1 $-1 $42 $0 #
transform $-1 1 0 0 0 1 0 0 0 1 73.045442060609759 41.201222853865218 8.3439800633553336 1 rotate no_reflect no_shear #
lump $-1 $-1 $43 $1 #
transform $-1 1 0 0 0 1 0 0 0 1 73.045442060609759 41.201222853865218 8.3439800633553336 1 rotate no_reflect no_shear #
lump $-1 $-1 $44 $2 #
transform $-1 1 0 0 0 1 0 0 0 1 73.045442060609759 41.201222853865218 8.3439800633553336 1 rotate no_reflect no_shear #
lump $-1 $-1 $45 $3 #
transform $-1 1 0 0 0 1 0 0 0 1 73.045442060609759 41.201222853865218 8.3439800633553336 1 rotate no_reflect no_shear #
lump $-1 $-1 $46 $4 #
transform $-1 1 0 0 0 1 0 0 0 1 73.045442060609759 41.201222853865218 8.3439800633553336 1 rotate no_reflect no_shear #
lump $-1 $-1 $47 $5 #
transform $-1 1 0 0 0 1 0 0 0 1 73.045442060609759 41.201222853865218 8.3439800633553336 1 rotate no_reflect no_shear #
lump $-1 $-1 $48 $6 #
transform $-1 1 0 0 0 1 0 0 0 1 73.045442060609759 41.201222853865218 8.3439800633553336 1 rotate no_reflect no_shear #
lump $-1 $-1 $49 $7 #
transform $-1 1 0 0 0 1 0 0 0 1 73.045442060609759 41.201222853865218 8.3439800633553336 1 rotate no_reflect no_shear #
lump $-1 $-1 $50 $8 #
transform $-1 1 0 0 0 1 0 0 0 1 73.045442060609759 41.201222853865218 8.3439800633553336 1 rotate no_reflect no_shear #
lump $-1 $-1 $51 $9 #
transform $-1 1 0 0 0 1 0 0 0 1 73.045442060609759 41.201222853865218 8.3439800633553336 1 rotate no_reflect no_shear #
lump $-1 $-1 $52 $10 #
transform $-1 1 0 0 0 1 0 0 0 1 73.045442060609759 41.201222853865218 8.3439800633553336 1 rotate no_reflect no_shear #
lump $-1 $-1 $53 $11 #
transform $-1 1 0 0 0 1 0 0 0 1 73.045442060609759 41.201222853865218 8.3439800633553336 1 rotate no_reflect no_shear #
lump $-1 $-1 $54 $12 #
transform $-1 1 0 0 0 1 0 0 0 1 73.045442060609759 41.201222853865218 8.3439800633553336 1 rotate no_reflect no_shear #
lump $-1 $-1 $55 $13 #
transform $-1 1 0 0 0 1 0 0 0 1 73.045442060609759 41.201222853865218 8.3439800633553336 1 rotate no_reflect no_shear #
shell $-1 $-1 $-1 $56 $-1 $14 #
shell $-1 $-1 $-1 $57 $-1 $16 #
shell $-1 $-1 $-1 $58 $-1 $18 #
shell $-1 $-1 $-1 $59 $-1 $20 #
shell $-1 $-1 $-1 $60 $-1 $22 #
shell $-1 $-1 $-1 $61 $-1 $24 #
shell $-1 $-1 $-1 $62 $-1 $26 #
shell $-1 $-1 $-1 $63 $-1 $28 #
shell $-1 $-1 $-1 $64 $-1 $30 #
shell $-1 $-1 $-1 $65 $-1 $32 #
shell $-1 $-1 $-1 $66 $-1 $34 #
shell $-1 $-1 $-1 $67 $-1 $36 #
shell $-1 $-1 $-1 $68 $-1 $38 #
shell $-1 $-1 $-1 $69 $-1 $40 #
face $-1 $70 $71 $42 $-1 $72 forward single #
face $-1 $73 $74 $43 $-1 $75 forward single #
face $-1 $76 $77 $44 $-1 $78 reversed single #
face $-1 $79 $80 $45 $-1 $81 forward single #
face $-1 $82 $83 $46 $-1 $84 forward single #
face $-1 $85 $86 $47 $-1 $87 reversed single #
face $-1 $88 $89 $48 $-1 $90 forward single #
face $-1 $91 $92 $49 $-1 $93 forward single #
face $-1 $94 $95 $50 $-1 $96 reversed single #
face $-1 $97 $98 $51 $-1 $99 forward single #
face $-1 $100 $101 $52 $-1 $102 forward single #
face $-1 $103 $104 $53 $-1 $105 reversed single #
face $-1 $106 $107 $54 $-1 $108 forward single #
face $-1 $109 $110 $55 $-1 $111 forward single #
face $-1 $112 $113 $42 $-1 $114 reversed single #
loop $-1 $-1 $115 $56 #
plane-surface $-1 0 0 8.3439800633553336 0 0 1 1 0 0 forward_v I I I I #
face $-1 $116 $117 $43 $-1 $118 forward single #
loop $-1 $-1 $119 $57 #
plane-surface $-1 0 -41.201222853865218 0 0 1 0 0 0 1 forward_v I I I I #
face $-1 $120 $121 $44 $-1 $122 reversed single #
loop $-1 $-1 $123 $58 #
plane-surface $-1 30.090117174771848 -5.6139701522198759 203.59082190517631 0 -1 0 -0.54463904215088732 0 -0.83867056331134215 forward_v I I I I #
face $-1 $124 $125 $45 $-1 $126 forward single #
loop $-1 $127 $128 $59 #
cone-surface $-1 66.342207920000234 -18.886187693168598 2.7127812155388829 -0.54463904215088732 0 -0.83867056331134215 1.2580058449670133 0 -0.81695856322633098 1 I I 0 1 1.5 forward I I I I #
face $-1 $129 $130 $46 $-1 $131 forward single #
loop $-1 $132 $133 $60 #
cone-surface $-1 66.342207920000234 -10.922857168599364 2.7127812155388829 -0.54463904215088732 0 -0.83867056331134215 1.2580058449670133 0 -0.81695856322633098 1 I I 0 1 1.5 forward I I I I #
face $-1 $134 $135 $47 $-1 $136 reversed single #
loop $-1 $-1 $137 $61 #
plane-surface $-1 30.090117174771848 31.779904610701365 203.59082190517631 0 -1 0 -0.54463904215088732 0 -0.83867056331134215 forward_v I I I I #
face $-1 $138 $139 $48 $-1 $140 forward single #
loop $-1 $141 $142 $62 #
cone-surface $-1 66.342207920000234 18.507687069752649 2.7127812155388829 -0.54463904215088732 0 -0.83867056331134215 1.2580058449670133 0 -0.81695856322633098 1 I I 0 1 1.5 forward I I I I #
face $-1 $143 $144 $49 $-1 $145 forward single #
loop $-1 $146 $147 $63 #
cone-surface $-1 66.342207920000234 26.471017594321879 2.7127812155388829 -0.54463904215088732 0 -0.83867056331134215 1.2580058449670133 0 -0.81695856322633098 1 I I 0 1 1.5 forward I I I I #
face $-1 $148 $149 $50 $-1 $150 reversed single #
loop $-1 $-1 $151 $64 #
plane-surface $-1 -152.61224125536702 -24.195074709548081 124.02402271041908 0 1 0 -0.54463904215088732 0 0.83867056331134215 forward_v I I I I #
face $-1 $152 $153 $51 $-1 $154 forward single #
loop $-1 $155 $156 $65 #
cone-surface $-1 -66.34220792000022 -18.886187693168598 2.7127812155389024 0.54463904215088732 0 -0.83867056331134215 1.2580058449670133 0 0.81695856322633098 1 I I 0 1 1.5 forward I I I I #
face $-1 $157 $158 $52 $-1 $159 forward single #
loop $-1 $160 $161 $66 #
cone-surface $-1 -66.34220792000022 -10.922857168599364 2.7127812155389024 0.54463904215088732 0 -0.83867056331134215 1.2580058449670133 0 0.81695856322633098 1 I I 0 1 1.5 forward I I I I #
face $-1 $162 $163 $53 $-1 $164 reversed single #
loop $-1 $-1 $165 $67 #
plane-surface $-1 -152.61224125536702 13.19880005337316 124.02402271041908 0 1 0 -0.54463904215088732 0 0.83867056331134215 forward_v I I I I #
face $-1 $166 $167 $54 $-1 $168 forward single #
loop $-1 $169 $170 $68 #
cone-surface $-1 -66.34220792000022 18.507687069752649 2.7127812155389024 0.54463904215088732 0 -0.83867056331134215 1.2580058449670133 0 0.81695856322633098 1 I I 0 1 1.5 forward I I I I #
face $-1 $171 $172 $55 $-1 $173 forward single #
loop $-1 $174 $175 $69 #
cone-surface $-1 -66.34220792000022 26.471017594321879 2.7127812155389024 0.54463904215088732 0 -0.83867056331134215 1.2580058449670133 0 0.81695856322633098 1 I I 0 1 1.5 forward I I I I #
face $-1 $176 $177 $42 $-1 $178 reversed single #
loop $-1 $-1 $179 $70 #
plane-surface $-1 0 0 -8.3439800633553336 0 0 1 1 0 0 forward_v I I I I #
coedge $-1 $180 $181 $182 $183 forward $71 $-1 #
face $-1 $184 $185 $43 $-1 $186 reversed single #
loop $-1 $-1 $187 $73 #
plane-surface $-1 0 0 8.3439800633553336 0 0 1 1 0 0 forward_v I I I I #
coedge $-1 $188 $189 $190 $191 forward $74 $-1 #
face $-1 $192 $193 $44 $-1 $194 reversed single #
loop $-1 $-1 $195 $76 #
plane-surface $-1 -49.476682019985418 -14.904522430883979 81.068697824581136 0.54463904215088732 0 0.83867056331134215 0.83867056331134215 0 -0.54463904215088732 forward_v I I I I #
coedge $-1 $196 $197 $198 $199 reversed $77 $-1 #
face $-1 $-1 $200 $45 $-1 $201 forward single #
loop $-1 $202 $203 $79 #
cone-surface $-1 64.498435139179577 -18.886187693168598 -0.12637983799533181 -0.54463904215088732 0 -0.83867056331134215 0.62900292248350664 0 -0.40847928161316549 1 I I -0.70710678118654757 0.70710678118654757 0.75 forward I I I I #
loop $-1 $-1 $204 $59 #
coedge $-1 $128 $128 $205 $206 reversed $80 $-1 #
face $-1 $-1 $207 $46 $-1 $208 forward single #
loop $-1 $209 $210 $82 #
cone-surface $-1 64.498435139179577 -10.922857168599364 -0.12637983799533181 -0.54463904215088732 0 -0.83867056331134215 0.62900292248350664 0 -0.40847928161316549 1 I I -0.70710678118654757 0.70710678118654757 0.75 forward I I I I #
loop $-1 $-1 $211 $60 #
coedge $-1 $133 $133 $212 $213 reversed $83 $-1 #
face $-1 $214 $215 $47 $-1 $216 reversed single #
loop $-1 $-1 $217 $85 #
plane-surface $-1 -49.476682019985418 22.489352332037264 81.068697824581136 0.54463904215088732 0 0.83867056331134215 0.83867056331134215 0 -0.54463904215088732 forward_v I I I I #
coedge $-1 $218 $219 $220 $221 reversed $86 $-1 #
face $-1 $-1 $222 $48 $-1 $223 forward single #
loop $-1 $224 $225 $88 #
cone-surface $-1 64.498435139179577 18.507687069752649 -0.12637983799533181 -0.54463904215088732 0 -0.83867056331134215 0.62900292248350664 0 -0.40847928161316549 1 I I -0.70710678118654757 0.70710678118654757 0.75 forward I I I I #
loop $-1 $-1 $226 $62 #
coedge $-1 $142 $142 $227 $228 reversed $89 $-1 #
face $-1 $-1 $229 $49 $-1 $230 forward single #
loop $-1 $231 $232 $91 #
cone-surface $-1 64.498435139179577 26.471017594321879 -0.12637983799533181 -0.54463904215088732 0 -0.83867056331134215 0.62900292248350664 0 -0.40847928161316549 1 I I -0.70710678118654757 0.70710678118654757 0.75 forward I I I I #
loop $-1 $-1 $233 $63 #
coedge $-1 $147 $147 $234 $235 reversed $92 $-1 #
face $-1 $236 $237 $50 $-1 $238 reversed single #
loop $-1 $-1 $239 $94 #
plane-surface $-1 -73.045442060609759 -14.904522430883979 1.5018986298238985 -0.54463904215088732 0 0.83867056331134215 0.83867056331134215 0 0.54463904215088732 forward_v I I I I #
coedge $-1 $240 $241 $242 $243 reversed $95 $-1 #
face $-1 $-1 $244 $51 $-1 $245 forward single #
loop $-1 $246 $247 $97 #
cone-surface $-1 -64.498435139179563 -18.886187693168598 -0.12637983799531227 0.54463904215088732 0 -0.83867056331134215 0.62900292248350664 0 0.40847928161316549 1 I I -0.70710678118654757 0.70710678118654757 0.75 forward I I I I #
loop $-1 $-1 $248 $65 #
coedge $-1 $156 $156 $249 $250 reversed $98 $-1 #
face $-1 $-1 $251 $52 $-1 $252 forward single #
loop $-1 $253 $254 $100 #
cone-surface $-1 -64.498435139179563 -10.922857168599364 -0.12637983799531227 0.54463904215088732 0 -0.83867056331134215 0.62900292248350664 0 0.40847928161316549 1 I I -0.70710678118654757 0.70710678118654757 0.75 forward I I I I #
loop $-1 $-1 $255 $66 #
coedge $-1 $161 $161 $256 $257 reversed $101 $-1 #
face $-1 $258 $259 $53 $-1 $260 reversed single #
loop $-1 $-1 $261 $103 #
plane-surface $-1 -73.045442060609759 22.489352332037264 1.5018986298238985 -0.54463904215088732 0 0.83867056331134215 0.83867056331134215 0 0.54463904215088732 forward_v I I I I #
coedge $-1 $262 $263 $264 $265 reversed $104 $-1 #
face $-1 $-1 $266 $54 $-1 $267 forward single #
loop $-1 $268 $269 $106 #
cone-surface $-1 -64.498435139179563 18.507687069752649 -0.12637983799531227 0.54463904215088732 0 -0.83867056331134215 0.62900292248350664 0 0.40847928161316549 1 I I -0.70710678118654757 0.70710678118654757 0.75 forward I I I I #
loop $-1 $-1 $270 $68 #
coedge $-1 $170 $170 $271 $272 reversed $107 $-1 #
face $-1 $-1 $273 $55 $-1 $274 forward single #
loop $-1 $275 $276 $109 #
cone-surface $-1 -64.498435139179563 26.471017594321879 -0.12637983799531227 0.54463904215088732 0 -0.83867056331134215 0.62900292248350664 0 0.40847928161316549 1 I I -0.70710678118654757 0.70710678118654757 0.75 forward I I I I #
loop $-1 $-1 $277 $69 #
coedge $-1 $175 $175 $278 $279 reversed $110 $-1 #
face $-1 $280 $281 $42 $-1 $282 reversed single #
loop $-1 $-1 $283 $112 #
plane-surface $-1 0 -41.201222853865218 0 0 1 0 0 0 1 forward_v I I I I #
coedge $-1 $284 $285 $286 $287 forward $113 $-1 #
coedge $-1 $288 $115 $289 $290 forward $71 $-1 #
coedge $-1 $115 $288 $291 $292 forward $71 $-1 #
coedge $-1 $293 $294 $115 $183 reversed $295 $-1 #
edge $-1 $296 -41.201222853865218 $297 41.201222853865218 $182 $298 forward 7 unknown #
face $-1 $299 $300 $43 $-1 $301 reversed single #
loop $-1 $-1 $302 $116 #
plane-surface $-1 -73.045442060609759 0 0 1 0 0 0 0 -1 forward_v I I I I #
coedge $-1 $303 $304 $305 $306 forward $117 $-1 #
coedge $-1 $305 $119 $302 $307 reversed $74 $-1 #
coedge $-1 $119 $305 $308 $309 reversed $74 $-1 #
coedge $-1 $310 $311 $119 $191 reversed $300 $-1 #
edge $-1 $312 -73.045442060609759 $313 73.045442060609759 $190 $314 forward 7 unknown #
face $-1 $315 $316 $44 $-1 $317 reversed single #
loop $-1 $-1 $318 $120 #
plane-surface $-1 30.090117174771848 -24.195074709548081 203.59082190517631 0 1 0 0.54463904215088732 0 0.83867056331134215 forward_v I I I I #
coedge $-1 $319 $320 $321 $322 reversed $121 $-1 #
coedge $-1 $197 $123 $323 $324 reversed $77 $-1 #
coedge $-1 $123 $196 $319 $325 reversed $77 $-1 #
coedge $-1 $321 $326 $123 $199 forward $327 $-1 #
edge $-1 $328 -58.000383473223835 $329 -47.464502190419694 $198 $330 forward 7 unknown #
loop $-1 $-1 $205 $124 #
plane-surface $-1 -49.476682019985418 -14.904522430883979 81.068697824581136 0.54463904215088732 0 0.83867056331134215 0.83867056331134215 0 -0.54463904215088732 forward_v I I I I #
loop $-1 $-1 $331 $79 #
coedge $-1 $203 $203 $204 $332 reversed $125 $-1 #
coedge $-1 $204 $204 $203 $332 forward $127 $-1 #
coedge $-1 $205 $205 $128 $206 forward $200 $-1 #
edge $-1 $333 0 $333 6.2831853071796004 $205 $334 forward 7 unknown #
loop $-1 $-1 $212 $129 #
plane-surface $-1 -49.476682019985418 -14.904522430883979 81.068697824581136 0.54463904215088732 0 0.83867056331134215 0.83867056331134215 0 -0.54463904215088732 forward_v I I I I #
loop $-1 $-1 $335 $82 #
coedge $-1 $210 $210 $211 $336 reversed $130 $-1 #
coedge $-1 $211 $211 $210 $336 forward $132 $-1 #
coedge $-1 $212 $212 $133 $213 forward $207 $-1 #
edge $-1 $337 0 $337 6.2831853071796004 $212 $338 forward 7 unknown #
face $-1 $339 $340 $47 $-1 $341 reversed single #
loop $-1 $-1 $342 $134 #
plane-surface $-1 30.090117174771848 13.19880005337316 203.59082190517631 0 1 0 0.54463904215088732 0 0.83867056331134215 forward_v I I I I #
coedge $-1 $343 $344 $345 $346 reversed $135 $-1 #
coedge $-1 $219 $137 $347 $348 reversed $86 $-1 #
coedge $-1 $137 $218 $343 $349 reversed $86 $-1 #
coedge $-1 $345 $350 $137 $221 forward $351 $-1 #
edge $-1 $352 -58.000383473223835 $353 -47.464502190419694 $220 $354 forward 7 unknown #
loop $-1 $-1 $227 $138 #
plane-surface $-1 -49.476682019985418 22.489352332037264 81.068697824581136 0.54463904215088732 0 0.83867056331134215 0.83867056331134215 0 -0.54463904215088732 forward_v I I I I #
loop $-1 $-1 $355 $88 #
coedge $-1 $225 $225 $226 $356 reversed $139 $-1 #
coedge $-1 $226 $226 $225 $356 forward $141 $-1 #
coedge $-1 $227 $227 $142 $228 forward $222 $-1 #
edge $-1 $357 0 $357 6.2831853071796004 $227 $358 forward 7 unknown #
loop $-1 $-1 $234 $143 #
plane-surface $-1 -49.476682019985418 22.489352332037264 81.068697824581136 0.54463904215088732 0 0.83867056331134215 0.83867056331134215 0 -0.54463904215088732 forward_v I I I I #
loop $-1 $-1 $359 $91 #
coedge $-1 $232 $232 $233 $360 reversed $144 $-1 #
coedge $-1 $233 $233 $232 $360 forward $146 $-1 #
coedge $-1 $234 $234 $147 $235 forward $229 $-1 #
edge $-1 $361 0 $361 6.2831853071796004 $234 $362 forward 7 unknown #
face $-1 $363 $364 $50 $-1 $365 forward single #
loop $-1 $-1 $366 $148 #
plane-surface $-1 -152.61224125536702 -5.6139701522198759 124.02402271041908 0 -1 0 0.54463904215088732 0 -0.83867056331134215 forward_v I I I I #
coedge $-1 $367 $368 $369 $370 reversed $149 $-1 #
coedge $-1 $241 $151 $371 $372 reversed $95 $-1 #
coedge $-1 $151 $240 $367 $373 reversed $95 $-1 #
coedge $-1 $369 $374 $151 $243 forward $364 $-1 #
edge $-1 $375 3.2606785670737537 $376 13.796559849877852 $242 $377 forward 7 unknown #
loop $-1 $-1 $249 $152 #
plane-surface $-1 -73.045442060609759 -14.904522430883979 1.5018986298238985 -0.54463904215088732 0 0.83867056331134215 0.83867056331134215 0 0.54463904215088732 forward_v I I I I #
loop $-1 $-1 $378 $97 #
coedge $-1 $247 $247 $248 $379 reversed $153 $-1 #
coedge $-1 $248 $248 $247 $379 forward $155 $-1 #
coedge $-1 $249 $249 $156 $250 forward $244 $-1 #
edge $-1 $380 0 $380 6.2831853071796004 $249 $381 forward 7 unknown #
loop $-1 $-1 $256 $157 #
plane-surface $-1 -73.045442060609759 -14.904522430883979 1.5018986298238985 -0.54463904215088732 0 0.83867056331134215 0.83867056331134215 0 0.54463904215088732 forward_v I I I I #
loop $-1 $-1 $382 $100 #
coedge $-1 $254 $254 $255 $383 reversed $158 $-1 #
coedge $-1 $255 $255 $254 $383 forward $160 $-1 #
coedge $-1 $256 $256 $161 $257 forward $251 $-1 #
edge $-1 $384 0 $384 6.2831853071796004 $256 $385 forward 7 unknown #
face $-1 $386 $387 $53 $-1 $388 forward single #
loop $-1 $-1 $389 $162 #
plane-surface $-1 -152.61224125536702 31.779904610701365 124.02402271041908 0 -1 0 0.54463904215088732 0 -0.83867056331134215 forward_v I I I I #
coedge $-1 $390 $391 $392 $393 reversed $163 $-1 #
coedge $-1 $263 $165 $394 $395 reversed $104 $-1 #
coedge $-1 $165 $262 $390 $396 reversed $104 $-1 #
coedge $-1 $392 $397 $165 $265 forward $387 $-1 #
edge $-1 $398 3.2606785670737537 $399 13.796559849877852 $264 $400 forward 7 unknown #
loop $-1 $-1 $271 $166 #
plane-surface $-1 -73.045442060609759 22.489352332037264 1.5018986298238985 -0.54463904215088732 0 0.83867056331134215 0.83867056331134215 0 0.54463904215088732 forward_v I I I I #
loop $-1 $-1 $401 $106 #
coedge $-1 $269 $269 $270 $402 reversed $167 $-1 #
coedge $-1 $270 $270 $269 $402 forward $169 $-1 #
coedge $-1 $271 $271 $170 $272 forward $266 $-1 #
edge $-1 $403 0 $403 6.2831853071796004 $271 $404 forward 7 unknown #
loop $-1 $-1 $278 $171 #
plane-surface $-1 -73.045442060609759 22.489352332037264 1.5018986298238985 -0.54463904215088732 0 0.83867056331134215 0.83867056331134215 0 0.54463904215088732 forward_v I I I I #
loop $-1 $-1 $405 $109 #
coedge $-1 $276 $276 $277 $406 reversed $172 $-1 #
coedge $-1 $277 $277 $276 $406 forward $174 $-1 #
coedge $-1 $278 $278 $175 $279 forward $273 $-1 #
edge $-1 $407 0 $407 6.2831853071796004 $278 $408 forward 7 unknown #
face $-1 $409 $410 $42 $-1 $411 reversed single #
loop $-1 $-1 $412 $176 #
plane-surface $-1 -73.045442060609759 0 0 1 0 0 0 0 -1 forward_v I I I I #
coedge $-1 $413 $291 $414 $415 forward $177 $-1 #
coedge $-1 $416 $179 $413 $417 forward $113 $-1 #
coedge $-1 $179 $416 $418 $419 forward $113 $-1 #
coedge $-1 $294 $293 $179 $287 reversed $295 $-1 #
edge $-1 $420 -41.201222853865218 $421 41.201222853865218 $286 $422 forward 7 unknown #
coedge $-1 $181 $180 $423 $424 forward $71 $-1 #
coedge $-1 $425 $426 $180 $290 reversed $410 $-1 #
edge $-1 $297 -73.045442060609759 $427 73.045442060609759 $289 $428 forward 7 unknown #
coedge $-1 $283 $429 $181 $292 reversed $177 $-1 #
edge $-1 $430 -73.045442060609759 $296 73.045442060609759 $291 $431 forward 7 unknown #
coedge $-1 $286 $182 $429 $432 forward $295 $-1 #
coedge $-1 $182 $286 $425 $433 reversed $295 $-1 #
loop $-1 $-1 $293 $409 #
vertex $-1 $183 $434 #
vertex $-1 $183 $435 #
straight-curve $-1 73.045442060609759 0 8.3439800633553336 0 1 0 I I #
face $-1 $436 $437 $43 $-1 $438 reversed single #
loop $-1 $-1 $310 $184 #
plane-surface $-1 0 -44.993637804441853 3.8193819444640642 0 0 1 1 0 0 forward_v I I I I #
coedge $-1 $439 $440 $188 $307 forward $185 $-1 #
coedge $-1 $441 $187 $440 $442 forward $117 $-1 #
coedge $-1 $187 $441 $443 $444 forward $117 $-1 #
coedge $-1 $189 $188 $187 $306 reversed $74 $-1 #
edge $-1 $445 -73.045442060609759 $446 73.045442060609759 $187 $447 forward 7 unknown #
edge $-1 $446 -8.3439800633553336 $313 -3.8193819444640642 $302 $448 forward 7 unknown #
coedge $-1 $443 $449 $189 $309 forward $450 $-1 #
edge $-1 $312 3.8193819444640642 $445 8.3439800633553336 $308 $451 forward 7 unknown #
coedge $-1 $452 $190 $449 $453 forward $300 $-1 #
coedge $-1 $190 $452 $439 $454 forward $300 $-1 #
vertex $-1 $309 $455 #
vertex $-1 $307 $456 #
straight-curve $-1 0 -41.201222853865218 3.8193819444640642 -1 0 0 I I #
face $-1 $-1 $327 $44 $-1 $457 forward single #
loop $-1 $-1 $458 $192 #
plane-surface $-1 73.045442060609759 0 0 -1 0 0 0 0 1 forward_v I I I I #
coedge $-1 $459 $460 $461 $462 reversed $193 $-1 #
coedge $-1 $463 $195 $197 $325 forward $121 $-1 #
coedge $-1 $195 $463 $459 $464 forward $121 $-1 #
coedge $-1 $461 $198 $195 $322 forward $327 $-1 #
edge $-1 $329 -1.8382910632221137 $465 16.742813494106091 $321 $466 forward 7 unknown #
coedge $-1 $467 $468 $196 $324 forward $316 $-1 #
edge $-1 $469 -100.29351232276429 $328 -93.451430889232824 $323 $470 forward 7 unknown #
edge $-1 $329 133.52828595251179 $469 146.09088412121952 $197 $471 forward 7 unknown #
coedge $-1 $198 $461 $467 $472 forward $327 $-1 #
loop $-1 $-1 $461 $315 #
vertex $-1 $324 $473 #
vertex $-1 $199 $474 #
straight-curve $-1 15.045058587385924 -5.6139701522198759 8.3439800633553318 -1 0 0 I I #
coedge $-1 $331 $331 $-1 $475 reversed $202 $-1 #
edge $-1 $476 0 $476 6.2831853071796004 $203 $477 forward 7 unknown #
vertex $-1 $206 $478 #
ellipse-curve $-1 67.777501419207724 -18.886187693168598 4.9229393465895814 0.54463904215088732 0 0.83867056331134215 1.2580058449670133 0 -0.81695856322633098 1 I I #
coedge $-1 $335 $335 $-1 $479 reversed $209 $-1 #
edge $-1 $480 0 $480 6.2831853071796004 $210 $481 forward 7 unknown #
vertex $-1 $213 $482 #
ellipse-curve $-1 67.777501419207724 -10.922857168599364 4.9229393465895814 0.54463904215088732 0 0.83867056331134215 1.2580058449670133 0 -0.81695856322633098 1 I I #
face $-1 $-1 $351 $47 $-1 $483 forward single #
loop $-1 $-1 $484 $214 #
plane-surface $-1 73.045442060609759 0 0 -1 0 0 0 0 1 forward_v I I I I #
coedge $-1 $485 $486 $487 $488 reversed $215 $-1 #
coedge $-1 $489 $217 $219 $349 forward $135 $-1 #
coedge $-1 $217 $489 $485 $490 forward $135 $-1 #
coedge $-1 $487 $220 $217 $346 forward $351 $-1 #
edge $-1 $353 -20.535228444682733 $491 -1.9541238873545286 $345 $492 forward 7 unknown #
coedge $-1 $493 $494 $218 $348 forward $340 $-1 #
edge $-1 $495 -100.29351232276429 $352 -93.451430889232824 $347 $496 forward 7 unknown #
edge $-1 $353 133.52828595251179 $495 146.09088412121952 $219 $497 forward 7 unknown #
coedge $-1 $220 $487 $493 $498 forward $351 $-1 #
loop $-1 $-1 $487 $339 #
vertex $-1 $348 $499 #
vertex $-1 $221 $500 #
straight-curve $-1 15.045058587385924 31.779904610701365 8.3439800633553318 -1 0 0 I I #
coedge $-1 $355 $355 $-1 $501 reversed $224 $-1 #
edge $-1 $502 0 $502 6.2831853071796004 $225 $503 forward 7 unknown #
vertex $-1 $228 $504 #
ellipse-curve $-1 67.777501419207724 18.507687069752649 4.9229393465895814 0.54463904215088732 0 0.83867056331134215 1.2580058449670133 0 -0.81695856322633098 1 I I #
coedge $-1 $359 $359 $-1 $505 reversed $231 $-1 #
edge $-1 $506 0 $506 6.2831853071796004 $232 $507 forward 7 unknown #
vertex $-1 $235 $508 #
ellipse-curve $-1 67.777501419207724 26.471017594321879 4.9229393465895814 0.54463904215088732 0 0.83867056331134215 1.2580058449670133 0 -0.81695856322633098 1 I I #
face $-1 $-1 $509 $50 $-1 $510 reversed single #
loop $-1 $-1 $242 $236 #
plane-surface $-1 0 0 8.3439800633553336 0 0 1 1 0 0 forward_v I I I I #
coedge $-1 $511 $512 $513 $514 reversed $237 $-1 #
coedge $-1 $515 $239 $241 $373 forward $149 $-1 #
coedge $-1 $239 $515 $511 $516 forward $149 $-1 #
coedge $-1 $513 $242 $239 $370 forward $364 $-1 #
edge $-1 $376 -16.742813494106091 $517 1.8382910632221137 $369 $518 forward 7 unknown #
coedge $-1 $519 $520 $240 $372 forward $509 $-1 #
edge $-1 $521 -60.510112725385639 $375 -53.668031291854206 $371 $522 forward 7 unknown #
edge $-1 $376 -12.56259816870767 $521 0 $241 $523 forward 7 unknown #
coedge $-1 $242 $513 $519 $524 forward $364 $-1 #
vertex $-1 $372 $525 #
vertex $-1 $243 $526 #
straight-curve $-1 -76.306120627683512 -24.195074709548081 8.3439800633553318 1 0 0 I I #
coedge $-1 $378 $378 $-1 $527 reversed $246 $-1 #
edge $-1 $528 0 $528 6.2831853071796004 $247 $529 forward 7 unknown #
vertex $-1 $250 $530 #
ellipse-curve $-1 -67.777501419207709 -18.886187693168598 4.9229393465896152 -0.54463904215088732 0 0.83867056331134215 1.2580058449670133 0 0.81695856322633098 1 I I #
coedge $-1 $382 $382 $-1 $531 reversed $253 $-1 #
edge $-1 $532 0 $532 6.2831853071796004 $254 $533 forward 7 unknown #
vertex $-1 $257 $534 #
ellipse-curve $-1 -67.777501419207709 -10.922857168599364 4.9229393465896152 -0.54463904215088732 0 0.83867056331134215 1.2580058449670133 0 0.81695856322633098 1 I I #
face $-1 $-1 $535 $53 $-1 $536 reversed single #
loop $-1 $-1 $264 $258 #
plane-surface $-1 0 0 8.3439800633553336 0 0 1 1 0 0 forward_v I I I I #
coedge $-1 $537 $538 $539 $540 reversed $259 $-1 #
coedge $-1 $541 $261 $263 $396 forward $163 $-1 #
coedge $-1 $261 $541 $537 $542 forward $163 $-1 #
coedge $-1 $539 $264 $261 $393 forward $387 $-1 #
edge $-1 $399 1.9541238873545286 $543 20.535228444682733 $392 $544 forward 7 unknown #
coedge $-1 $545 $546 $262 $395 forward $535 $-1 #
edge $-1 $547 -60.510112725385639 $398 -53.668031291854206 $394 $548 forward 7 unknown #
edge $-1 $399 -12.56259816870767 $547 0 $263 $549 forward 7 unknown #
coedge $-1 $264 $539 $545 $550 forward $387 $-1 #
vertex $-1 $265 $551 #
vertex $-1 $265 $552 #
straight-curve $-1 -76.306120627683512 13.19880005337316 8.3439800633553318 1 0 0 I I #
coedge $-1 $401 $401 $-1 $553 reversed $268 $-1 #
edge $-1 $554 0 $554 6.2831853071796004 $269 $555 forward 7 unknown #
vertex $-1 $272 $556 #
ellipse-curve $-1 -67.777501419207709 18.507687069752649 4.9229393465896152 -0.54463904215088732 0 0.83867056331134215 1.2580058449670133 0 0.81695856322633098 1 I I #
coedge $-1 $405 $405 $-1 $557 reversed $275 $-1 #
edge $-1 $558 0 $558 6.2831853071796004 $276 $559 forward 7 unknown #
vertex $-1 $279 $560 #
ellipse-curve $-1 -67.777501419207709 26.471017594321879 4.9229393465896152 -0.54463904215088732 0 0.83867056331134215 1.2580058449670133 0 0.81695856322633098 1 I I #
face $-1 $-1 $295 $42 $-1 $561 reversed single #
loop $-1 $-1 $425 $280 #
plane-surface $-1 0 41.201222853865218 0 0 -1 0 0 0 -1 forward_v I I I I #
coedge $-1 $562 $423 $426 $563 forward $281 $-1 #
coedge $-1 $429 $283 $284 $417 reversed $177 $-1 #
coedge $-1 $423 $562 $283 $415 reversed $281 $-1 #
edge $-1 $430 -8.3439800633553336 $564 8.3439800633553336 $414 $565 forward 7 unknown #
coedge $-1 $285 $284 $562 $566 forward $113 $-1 #
edge $-1 $421 -73.045442060609759 $564 73.045442060609759 $413 $567 forward 7 unknown #
coedge $-1 $426 $425 $285 $419 reversed $410 $-1 #
edge $-1 $568 -73.045442060609759 $420 73.045442060609759 $418 $569 forward 7 unknown #
vertex $-1 $287 $570 #
vertex $-1 $432 $571 #
straight-curve $-1 73.045442060609759 0 -8.3439800633553336 0 -1 0 I I #
coedge $-1 $412 $414 $288 $424 reversed $281 $-1 #
edge $-1 $427 -41.201222853865218 $430 41.201222853865218 $423 $572 forward 7 unknown #
coedge $-1 $418 $289 $294 $433 forward $410 $-1 #
coedge $-1 $289 $418 $412 $563 reversed $410 $-1 #
vertex $-1 $290 $573 #
straight-curve $-1 0 41.201222853865218 8.3439800633553336 -1 0 0 I I #
coedge $-1 $291 $413 $293 $432 reversed $177 $-1 #
vertex $-1 $424 $574 #
straight-curve $-1 0 -41.201222853865218 8.3439800633553336 1 0 0 I I #
edge $-1 $296 -8.3439800633553336 $421 8.3439800633553336 $293 $575 forward 7 unknown #
edge $-1 $297 -8.3439800633553336 $420 8.3439800633553336 $294 $576 forward 7 unknown #
point $-1 73.045442060609759 -41.201222853865218 8.3439800633553336 #
point $-1 73.045442060609759 41.201222853865218 8.3439800633553336 #
face $-1 $-1 $450 $43 $-1 $577 reversed single #
loop $-1 $-1 $578 $299 #
plane-surface $-1 0 -48.786052755018488 6.0816810039096989 0 1 0 0 0 1 forward_v I I I I #
coedge $-1 $579 $302 $311 $454 reversed $185 $-1 #
coedge $-1 $302 $579 $303 $442 reversed $185 $-1 #
coedge $-1 $304 $303 $580 $581 forward $117 $-1 #
edge $-1 $446 41.201222853865218 $582 48.786052755018488 $440 $583 forward 7 unknown #
coedge $-1 $584 $308 $304 $444 reversed $450 $-1 #
edge $-1 $585 -48.786052755018488 $445 -41.201222853865218 $443 $586 forward 7 unknown #
vertex $-1 $309 $587 #
vertex $-1 $442 $588 #
straight-curve $-1 0 -41.201222853865218 8.3439800633553336 -1 0 0 I I #
straight-curve $-1 -73.045442060609759 -41.201222853865218 0 0 0 -1 I I #
coedge $-1 $308 $584 $310 $453 reversed $450 $-1 #
loop $-1 $-1 $308 $436 #
straight-curve $-1 73.045442060609759 -41.201222853865218 0 0 0 1 I I #
coedge $-1 $311 $310 $589 $590 forward $300 $-1 #
edge $-1 $312 -3.7924149505766351 $591 3.7924149505766351 $449 $592 forward 7 unknown #
edge $-1 $593 -3.7924149505766351 $313 3.7924149505766351 $439 $594 forward 7 unknown #
point $-1 73.045442060609759 -41.201222853865218 3.8193819444640642 #
point $-1 -73.045442060609759 -41.201222853865218 3.8193819444640642 #
plane-surface $-1 0 0 8.3439800633553336 0 0 1 1 0 0 forward_v I I I I #
coedge $-1 $468 $467 $460 $595 forward $316 $-1 #
coedge $-1 $460 $318 $320 $464 reversed $193 $-1 #
coedge $-1 $318 $459 $458 $595 reversed $193 $-1 #
coedge $-1 $326 $321 $318 $462 forward $327 $-1 #
edge $-1 $465 47.464502190419694 $596 58.000383473223835 $461 $597 forward 7 unknown #
coedge $-1 $320 $319 $468 $598 reversed $121 $-1 #
edge $-1 $599 -146.09088412121952 $465 -133.52828595251179 $459 $600 forward 7 unknown #
vertex $-1 $322 $601 #
straight-curve $-1 62.509560777805639 -7.4522612154419896 8.3439800633553247 0 -1 0 I I #
coedge $-1 $458 $323 $326 $472 reversed $316 $-1 #
coedge $-1 $323 $458 $463 $598 forward $316 $-1 #
vertex $-1 $324 $602 #
straight-curve $-1 73.045442060609759 -5.6139701522198759 101.79541095258816 0 0 1 I I #
straight-curve $-1 -49.476682019985418 -5.6139701522198759 81.068697824581136 0.83867056331134215 0 -0.54463904215088732 I I #
edge $-1 $596 -24.195074709548081 $328 -5.6139701522198759 $467 $603 forward 7 unknown #
point $-1 73.045442060609759 -5.6139701522198759 8.3439800633553336 #
point $-1 62.509560777805618 -5.6139701522198759 8.3439800633553318 #
edge $-1 $604 1 $604 0 $331 $-1 forward 7 unknown #
vertex $-1 $332 $605 #
ellipse-curve $-1 64.906914420792745 -18.886187693168598 0.50262308448817483 0.54463904215088732 0 0.83867056331134215 1.2580058449670133 0 -0.81695856322633098 1 I I #
point $-1 69.03550726417474 -18.886187693168598 4.1059807833632602 #
edge $-1 $606 1 $606 0 $335 $-1 forward 7 unknown #
vertex $-1 $336 $607 #
ellipse-curve $-1 64.906914420792745 -10.922857168599364 0.50262308448817483 0.54463904215088732 0 0.83867056331134215 1.2580058449670133 0 -0.81695856322633098 1 I I #
point $-1 69.03550726417474 -10.922857168599364 4.1059807833632602 #
plane-surface $-1 0 0 8.3439800633553336 0 0 1 1 0 0 forward_v I I I I #
coedge $-1 $494 $493 $486 $608 forward $340 $-1 #
coedge $-1 $486 $342 $344 $490 reversed $215 $-1 #
coedge $-1 $342 $485 $484 $608 reversed $215 $-1 #
coedge $-1 $350 $345 $342 $488 forward $351 $-1 #
edge $-1 $491 47.464502190419694 $609 58.000383473223835 $487 $610 forward 7 unknown #
coedge $-1 $344 $343 $494 $611 reversed $135 $-1 #
edge $-1 $612 -146.09088412121952 $491 -133.52828595251179 $485 $613 forward 7 unknown #
vertex $-1 $346 $614 #
straight-curve $-1 62.509560777805639 11.244676166018632 8.3439800633553247 0 -1 0 I I #
coedge $-1 $484 $347 $350 $498 reversed $340 $-1 #
coedge $-1 $347 $484 $489 $611 forward $340 $-1 #
vertex $-1 $348 $615 #
straight-curve $-1 73.045442060609759 31.779904610701365 101.79541095258816 0 0 1 I I #
straight-curve $-1 -49.476682019985418 31.779904610701365 81.068697824581136 0.83867056331134215 0 -0.54463904215088732 I I #
edge $-1 $609 13.19880005337316 $352 31.779904610701365 $493 $616 forward 7 unknown #
point $-1 73.045442060609759 31.779904610701365 8.3439800633553336 #
point $-1 62.509560777805618 31.779904610701365 8.3439800633553318 #
edge $-1 $617 1 $617 0 $355 $-1 forward 7 unknown #
vertex $-1 $356 $618 #
ellipse-curve $-1 64.906914420792745 18.507687069752649 0.50262308448817483 0.54463904215088732 0 0.83867056331134215 1.2580058449670133 0 -0.81695856322633098 1 I I #
point $-1 69.03550726417474 18.507687069752649 4.1059807833632602 #
edge $-1 $619 1 $619 0 $359 $-1 forward 7 unknown #
vertex $-1 $360 $620 #
ellipse-curve $-1 64.906914420792745 26.471017594321879 0.50262308448817483 0.54463904215088732 0 0.83867056331134215 1.2580058449670133 0 -0.81695856322633098 1 I I #
point $-1 69.03550726417474 26.471017594321879 4.1059807833632602 #
loop $-1 $-1 $371 $363 #
plane-surface $-1 -73.045442060609759 0 0 1 0 0 0 0 -1 forward_v I I I I #
coedge $-1 $512 $366 $368 $516 reversed $237 $-1 #
coedge $-1 $366 $511 $621 $622 reversed $237 $-1 #
coedge $-1 $374 $369 $366 $514 forward $364 $-1 #
edge $-1 $517 -13.796559849877852 $623 -3.2606785670737537 $513 $624 forward 7 unknown #
coedge $-1 $368 $367 $520 $625 reversed $149 $-1 #
edge $-1 $626 0 $517 12.56259816870767 $511 $627 forward 7 unknown #
vertex $-1 $370 $628 #
straight-curve $-1 -62.50956077780566 -7.4522612154419896 8.3439800633553318 0 1 0 I I #
coedge $-1 $621 $371 $374 $524 reversed $509 $-1 #
coedge $-1 $371 $621 $515 $625 forward $509 $-1 #
vertex $-1 $372 $629 #
straight-curve $-1 -73.045442060609759 -24.195074709548081 62.012011355209538 0 0 1 I I #
straight-curve $-1 -73.045442060609759 -24.195074709548081 1.5018986298238985 -0.83867056331134215 0 -0.54463904215088732 I I #
edge $-1 $623 5.6139701522198759 $375 24.195074709548081 $519 $630 forward 7 unknown #
point $-1 -73.045442060609759 -24.195074709548081 8.3439800633553336 #
point $-1 -62.50956077780566 -24.195074709548081 8.3439800633553336 #
edge $-1 $631 1 $631 0 $378 $-1 forward 7 unknown #
vertex $-1 $379 $632 #
ellipse-curve $-1 -64.906914420792731 -18.886187693168598 0.50262308448819437 -0.54463904215088732 0 0.83867056331134215 1.2580058449670133 0 0.81695856322633098 1 I I #
point $-1 -66.519495574240693 -18.886187693168598 5.7398979098159417 #
edge $-1 $633 1 $633 0 $382 $-1 forward 7 unknown #
vertex $-1 $383 $634 #
ellipse-curve $-1 -64.906914420792731 -10.922857168599364 0.50262308448819437 -0.54463904215088732 0 0.83867056331134215 1.2580058449670133 0 0.81695856322633098 1 I I #
point $-1 -66.519495574240693 -10.922857168599364 5.7398979098159417 #
loop $-1 $-1 $394 $386 #
plane-surface $-1 -73.045442060609759 0 0 1 0 0 0 0 -1 forward_v I I I I #
coedge $-1 $538 $389 $391 $542 reversed $259 $-1 #
coedge $-1 $389 $537 $635 $636 reversed $259 $-1 #
coedge $-1 $397 $392 $389 $540 forward $387 $-1 #
edge $-1 $543 -13.796559849877852 $637 -3.2606785670737537 $539 $638 forward 7 unknown #
coedge $-1 $391 $390 $546 $639 reversed $163 $-1 #
edge $-1 $640 0 $543 12.56259816870767 $537 $641 forward 7 unknown #
vertex $-1 $393 $642 #
straight-curve $-1 -62.50956077780566 11.244676166018632 8.3439800633553318 0 1 0 I I #
coedge $-1 $635 $394 $397 $550 reversed $535 $-1 #
coedge $-1 $394 $635 $541 $639 forward $535 $-1 #
vertex $-1 $395 $643 #
straight-curve $-1 -73.045442060609759 13.19880005337316 62.012011355209538 0 0 1 I I #
straight-curve $-1 -73.045442060609759 13.19880005337316 1.5018986298238985 -0.83867056331134215 0 -0.54463904215088732 I I #
edge $-1 $637 -31.779904610701365 $398 -13.19880005337316 $545 $644 forward 7 unknown #
point $-1 -73.045442060609759 13.19880005337316 8.3439800633553336 #
point $-1 -62.50956077780566 13.19880005337316 8.3439800633553336 #
edge $-1 $645 1 $645 0 $401 $-1 forward 7 unknown #
vertex $-1 $402 $646 #
ellipse-curve $-1 -64.906914420792731 18.507687069752649 0.50262308448819437 -0.54463904215088732 0 0.83867056331134215 1.2580058449670133 0 0.81695856322633098 1 I I #
point $-1 -66.519495574240693 18.507687069752649 5.7398979098159417 #
edge $-1 $647 1 $647 0 $405 $-1 forward 7 unknown #
vertex $-1 $406 $648 #
ellipse-curve $-1 -64.906914420792731 26.471017594321879 0.50262308448819437 -0.54463904215088732 0 0.83867056331134215 1.2580058449670133 0 0.81695856322633098 1 I I #
point $-1 -66.519495574240693 26.471017594321879 5.7398979098159417 #
plane-surface $-1 73.045442060609759 0 0 -1 0 0 0 0 1 forward_v I I I I #
coedge $-1 $414 $412 $416 $566 reversed $281 $-1 #
edge $-1 $427 -8.3439800633553336 $568 8.3439800633553336 $426 $649 forward 7 unknown #
vertex $-1 $566 $650 #
straight-curve $-1 -73.045442060609759 -41.201222853865218 0 0 0 -1 I I #
edge $-1 $564 -41.201222853865218 $568 41.201222853865218 $562 $651 forward 7 unknown #
straight-curve $-1 0 -41.201222853865218 -8.3439800633553336 -1 0 0 I I #
vertex $-1 $419 $652 #
straight-curve $-1 0 41.201222853865218 -8.3439800633553336 1 0 0 I I #
point $-1 73.045442060609759 41.201222853865218 -8.3439800633553336 #
point $-1 73.045442060609759 -41.201222853865218 -8.3439800633553336 #
straight-curve $-1 -73.045442060609759 0 8.3439800633553336 0 -1 0 I I #
point $-1 -73.045442060609759 41.201222853865218 8.3439800633553336 #
point $-1 -73.045442060609759 -41.201222853865218 8.3439800633553336 #
straight-curve $-1 73.045442060609759 -41.201222853865218 0 0 0 -1 I I #
straight-curve $-1 73.045442060609759 41.201222853865218 0 0 0 -1 I I #
plane-surface $-1 73.045442060609759 0 0 -1 0 0 0 0 1 forward_v I I I I #
coedge $-1 $589 $580 $579 $653 forward $437 $-1 #
coedge $-1 $440 $439 $578 $653 reversed $185 $-1 #
coedge $-1 $578 $654 $441 $581 reversed $437 $-1 #
edge $-1 $582 -73.045442060609759 $585 73.045442060609759 $580 $655 forward 7 unknown #
vertex $-1 $442 $656 #
straight-curve $-1 -73.045442060609759 0 8.3439800633553336 0 -1 0 I I #
coedge $-1 $449 $443 $654 $657 forward $450 $-1 #
vertex $-1 $444 $658 #
straight-curve $-1 73.045442060609759 0 8.3439800633553336 0 1 0 I I #
point $-1 73.045442060609759 -41.201222853865218 8.3439800633553336 #
point $-1 -73.045442060609759 -41.201222853865218 8.3439800633553336 #
coedge $-1 $654 $578 $452 $590 reversed $437 $-1 #
edge $-1 $591 -73.045442060609759 $593 73.045442060609759 $589 $659 forward 7 unknown #
vertex $-1 $657 $660 #
straight-curve $-1 73.045442060609759 -44.993637804441853 3.8193819444640642 0 -1 0 I I #
vertex $-1 $454 $661 #
straight-curve $-1 -73.045442060609759 -44.993637804441853 3.8193819444640642 0 1 0 I I #
edge $-1 $596 93.451430889232824 $599 100.29351232276429 $458 $662 forward 7 unknown #
vertex $-1 $472 $663 #
straight-curve $-1 15.045058587385924 -24.195074709548081 8.3439800633553318 1 0 0 I I #
edge $-1 $599 -16.742813494106091 $469 1.8382910632221137 $468 $664 forward 7 unknown #
vertex $-1 $598 $665 #
straight-curve $-1 -49.476682019985418 -24.195074709548081 81.068697824581136 -0.83867056331134215 0 0.54463904215088732 I I #
point $-1 62.509560777805618 -24.195074709548081 8.3439800633553318 #
point $-1 73.045442060609759 -5.6139701522198759 1.5018986298238701 #
straight-curve $-1 73.045442060609759 0 8.3439800633553336 0 1 0 I I #
vertex $-1 $475 $666 #
point $-1 66.164920265759761 -18.886187693168598 -0.31433547873815615 #
vertex $-1 $479 $667 #
point $-1 66.164920265759761 -10.922857168599364 -0.31433547873815615 #
edge $-1 $609 93.451430889232824 $612 100.29351232276429 $484 $668 forward 7 unknown #
vertex $-1 $498 $669 #
straight-curve $-1 15.045058587385924 13.19880005337316 8.3439800633553318 1 0 0 I I #
edge $-1 $612 1.9541238873545286 $495 20.535228444682733 $494 $670 forward 7 unknown #
vertex $-1 $611 $671 #
straight-curve $-1 -49.476682019985418 13.19880005337316 81.068697824581136 -0.83867056331134215 0 0.54463904215088732 I I #
point $-1 62.509560777805618 13.19880005337316 8.3439800633553318 #
point $-1 73.045442060609759 31.779904610701365 1.5018986298238701 #
straight-curve $-1 73.045442060609759 0 8.3439800633553336 0 1 0 I I #
vertex $-1 $501 $672 #
point $-1 66.164920265759761 18.507687069752649 -0.31433547873815615 #
vertex $-1 $505 $673 #
point $-1 66.164920265759761 26.471017594321879 -0.31433547873815615 #
coedge $-1 $520 $519 $512 $622 forward $509 $-1 #
edge $-1 $623 53.668031291854206 $626 60.510112725385639 $621 $674 forward 7 unknown #
vertex $-1 $524 $675 #
straight-curve $-1 -76.306120627683512 -5.6139701522198759 8.3439800633553318 -1 0 0 I I #
edge $-1 $626 -1.8382910632221137 $521 16.742813494106091 $520 $676 forward 7 unknown #
vertex $-1 $625 $677 #
straight-curve $-1 -73.045442060609759 -5.6139701522198759 1.5018986298238985 0.83867056331134215 0 0.54463904215088732 I I #
point $-1 -62.50956077780566 -5.6139701522198759 8.3439800633553336 #
point $-1 -73.045442060609759 -24.195074709548081 1.5018986298238985 #
straight-curve $-1 -73.045442060609759 0 8.3439800633553336 0 -1 0 I I #
vertex $-1 $527 $678 #
point $-1 -63.648908575825715 -18.886187693168598 1.3195816477145255 #
vertex $-1 $531 $679 #
point $-1 -63.648908575825715 -10.922857168599364 1.3195816477145255 #
coedge $-1 $546 $545 $538 $636 forward $535 $-1 #
edge $-1 $637 53.668031291854206 $640 60.510112725385639 $635 $680 forward 7 unknown #
vertex $-1 $550 $681 #
straight-curve $-1 -76.306120627683512 31.779904610701365 8.3439800633553318 -1 0 0 I I #
edge $-1 $640 -20.535228444682733 $547 -1.9541238873545286 $546 $682 forward 7 unknown #
vertex $-1 $639 $683 #
straight-curve $-1 -73.045442060609759 31.779904610701365 1.5018986298238985 0.83867056331134215 0 0.54463904215088732 I I #
point $-1 -62.50956077780566 31.779904610701365 8.3439800633553336 #
point $-1 -73.045442060609759 13.19880005337316 1.5018986298238985 #
straight-curve $-1 -73.045442060609759 0 8.3439800633553336 0 -1 0 I I #
vertex $-1 $553 $684 #
point $-1 -63.648908575825715 18.507687069752649 1.3195816477145255 #
vertex $-1 $557 $685 #
point $-1 -63.648908575825715 26.471017594321879 1.3195816477145255 #
straight-curve $-1 -73.045442060609759 41.201222853865218 0 0 0 -1 I I #
point $-1 -73.045442060609759 -41.201222853865218 -8.3439800633553336 #
straight-curve $-1 -73.045442060609759 0 -8.3439800633553336 0 1 0 I I #
point $-1 -73.045442060609759 41.201222853865218 -8.3439800633553336 #
edge $-1 $582 -2.2622990594456347 $593 2.2622990594456347 $579 $686 forward 7 unknown #
coedge $-1 $580 $589 $584 $657 reversed $437 $-1 #
straight-curve $-1 0 -48.786052755018488 8.3439800633553336 1 0 0 I I #
point $-1 -73.045442060609759 -48.786052755018488 8.3439800633553336 #
edge $-1 $585 -2.2622990594456347 $591 2.2622990594456347 $584 $687 forward 7 unknown #
point $-1 73.045442060609759 -48.786052755018488 8.3439800633553336 #
straight-curve $-1 0 -48.786052755018488 3.8193819444640642 -1 0 0 I I #
point $-1 73.045442060609759 -48.786052755018488 3.8193819444640642 #
point $-1 -73.045442060609759 -48.786052755018488 3.8193819444640642 #
straight-curve $-1 73.045442060609759 -24.195074709548081 101.79541095258816 0 0 -1 I I #
point $-1 73.045442060609759 -24.195074709548081 8.3439800633553336 #
straight-curve $-1 73.045442060609759 -7.4522612154419896 1.5018986298238701 0 1 0 I I #
point $-1 73.045442060609759 -24.195074709548081 1.5018986298238701 #
point $-1 64.089955857566409 -18.886187693168598 -0.75538276047883846 #
point $-1 64.089955857566409 -10.922857168599364 -0.75538276047883846 #
straight-curve $-1 73.045442060609759 13.19880005337316 101.79541095258816 0 0 -1 I I #
point $-1 73.045442060609759 13.19880005337316 8.3439800633553336 #
straight-curve $-1 73.045442060609759 11.244676166018632 1.5018986298238701 0 1 0 I I #
point $-1 73.045442060609759 13.19880005337316 1.5018986298238701 #
point $-1 64.089955857566409 18.507687069752649 -0.75538276047883846 #
point $-1 64.089955857566409 26.471017594321879 -0.75538276047883846 #
straight-curve $-1 -73.045442060609759 -5.6139701522198759 62.012011355209538 0 0 -1 I I #
point $-1 -73.045442060609759 -5.6139701522198759 8.3439800633553336 #
straight-curve $-1 -73.045442060609759 -7.4522612154419896 1.501898629823903 0 -1 0 I I #
point $-1 -73.045442060609759 -5.6139701522198759 1.5018986298238985 #
point $-1 -64.089955857566395 -18.886187693168598 -0.75538276047881892 #
point $-1 -64.089955857566395 -10.922857168599364 -0.75538276047881892 #
straight-curve $-1 -73.045442060609759 31.779904610701365 62.012011355209538 0 0 -1 I I #
point $-1 -73.045442060609759 31.779904610701365 8.3439800633553336 #
straight-curve $-1 -73.045442060609759 11.244676166018632 1.501898629823903 0 -1 0 I I #
point $-1 -73.045442060609759 31.779904610701365 1.5018986298238985 #
point $-1 -64.089955857566395 18.507687069752649 -0.75538276047881892 #
point $-1 -64.089955857566395 26.471017594321879 -0.75538276047881892 #
straight-curve $-1 -73.045442060609759 -48.786052755018488 6.0816810039096989 0 0 -1 I I #
straight-curve $-1 73.045442060609759 -48.786052755018488 6.0816810039096989 0 0 -1 I I #
End-of-ACIS-data 