500 0 4 0           
7 Unknown 11 ACIS 5.0 NT 24 Fri Mar 26 14:50:50 1999 
-1 9.9999999999999995e-007 1e-010 
body $-1 $4 $-1 $5 #
body $-1 $6 $-1 $7 #
body $-1 $8 $-1 $9 #
body $-1 $10 $-1 $11 #
lump $-1 $-1 $12 $0 #
transform $-1 1 0 0 0 1 0 0 0 1 79.564195684682758 44.84024097508965 16.383992098707793 1 rotate no_reflect no_shear #
lump $-1 $-1 $13 $1 #
transform $-1 1 0 0 0 1 0 0 0 1 79.564195684682758 44.84024097508965 16.383992098707793 1 rotate no_reflect no_shear #
lump $-1 $-1 $14 $2 #
transform $-1 1 0 0 0 1 0 0 0 1 79.564195684682758 44.84024097508965 16.383992098707793 1 rotate no_reflect no_shear #
lump $-1 $-1 $15 $3 #
transform $-1 1 0 0 0 1 0 0 0 1 79.564195684682758 44.84024097508965 16.383992098707793 1 rotate no_reflect no_shear #
shell $-1 $-1 $-1 $16 $-1 $4 #
shell $-1 $-1 $-1 $17 $-1 $6 #
shell $-1 $-1 $-1 $18 $-1 $8 #
shell $-1 $-1 $-1 $19 $-1 $10 #
face $-1 $20 $21 $12 $-1 $22 forward single #
face $-1 $23 $24 $13 $-1 $25 forward single #
face $-1 $26 $27 $14 $-1 $28 reversed single #
face $-1 $29 $30 $15 $-1 $31 reversed single #
face $-1 $32 $33 $12 $-1 $34 reversed single #
loop $-1 $-1 $35 $16 #
plane-surface $-1 0 0 16.383992098707793 0 0 1 1 0 0 forward_v I I I I #
face $-1 $36 $37 $13 $-1 $38 forward single #
loop $-1 $-1 $39 $17 #
plane-surface $-1 -203.23018370736227 -13.105816779021671 110.88318213897462 0 1 0 -0.77714596973225614 0 0.62932038083071107 forward_v I I I I #
face $-1 $40 $41 $14 $-1 $42 reversed single #
loop $-1 $43 $44 $18 #
cone-surface $-1 -75.111663801501592 -6.6398950450345353 11.807007366655537 0.77714596973225614 0 -0.62932038083071107 0.9439805712460666 0 1.1657189545983841 1 I I 0 1 1.5 forward I I I I #
face $-1 $45 $46 $15 $-1 $47 reversed single #
loop $-1 $48 $49 $19 #
cone-surface $-1 -75.111663801501592 3.0589875559461674 11.807007366655537 0.77714596973225614 0 -0.62932038083071107 0.9439805712460666 0 1.1657189545983841 1 I I 0 1 1.5 forward I I I I #
face $-1 $50 $51 $12 $-1 $52 reversed single #
loop $-1 $-1 $53 $20 #
plane-surface $-1 0 0 -16.383992098707793 0 0 1 1 0 0 forward_v I I I I #
coedge $-1 $54 $55 $56 $57 forward $21 $-1 #
face $-1 $58 $59 $13 $-1 $60 forward single #
loop $-1 $-1 $61 $23 #
plane-surface $-1 -79.56419568468273 -1.7904537445441875 10.740442281427079 -0.77714596973225614 0 0.62932038083071107 0.62932038083071107 0 0.77714596973225614 forward_v I I I I #
coedge $-1 $62 $63 $64 $65 reversed $24 $-1 #
face $-1 $66 $67 $14 $-1 $68 forward single #
loop $-1 $69 $70 $26 #
cone-surface $-1 -72.361300645871722 -6.6398950450345353 9.579807257620601 0.77714596973225614 0 -0.62932038083071107 0.4719902856230333 0 0.58285947729919207 1 I I -0.70710678118654757 0.70710678118654757 0.75 forward I I I I #
loop $-1 $-1 $71 $18 #
coedge $-1 $44 $44 $72 $73 reversed $27 $-1 #
face $-1 $74 $75 $15 $-1 $76 reversed single #
loop $-1 $77 $78 $29 #
cone-surface $-1 -72.361300645871722 3.0589875559461674 9.579807257620601 0.77714596973225614 0 -0.62932038083071107 0.4719902856230333 0 0.58285947729919207 1 I I -0.70710678118654757 0.70710678118654757 0.75 forward I I I I #
loop $-1 $-1 $79 $19 #
coedge $-1 $49 $49 $80 $81 reversed $30 $-1 #
face $-1 $82 $83 $12 $-1 $84 reversed single #
loop $-1 $-1 $85 $32 #
plane-surface $-1 0 -44.84024097508965 0 0 1 0 0 0 1 forward_v I I I I #
coedge $-1 $86 $87 $88 $89 forward $33 $-1 #
coedge $-1 $90 $35 $91 $92 forward $21 $-1 #
coedge $-1 $35 $90 $93 $94 forward $21 $-1 #
coedge $-1 $95 $96 $35 $57 reversed $97 $-1 #
edge $-1 $98 -44.84024097508965 $99 44.84024097508965 $56 $100 forward 7 unknown #
face $-1 $101 $102 $13 $-1 $103 forward single #
loop $-1 $-1 $104 $36 #
plane-surface $-1 -203.23018370736227 9.5249092899332961 110.88318213897462 0 -1 0 0.77714596973225614 0 -0.62932038083071107 forward_v I I I I #
coedge $-1 $105 $106 $107 $108 reversed $37 $-1 #
coedge $-1 $63 $39 $106 $109 forward $24 $-1 #
coedge $-1 $39 $62 $110 $111 reversed $24 $-1 #
coedge $-1 $112 $107 $39 $65 forward $102 $-1 #
edge $-1 $113 -26.620952578699402 $114 -22.050896168998378 $64 $115 forward 7 unknown #
face $-1 $116 $117 $14 $-1 $118 forward single #
loop $-1 $-1 $119 $40 #
plane-surface $-1 -203.23018370736227 -13.105816779021671 110.88318213897462 0 1 0 -0.77714596973225614 0 0.62932038083071107 forward_v I I I I #
loop $-1 $-1 $120 $26 #
coedge $-1 $70 $70 $71 $121 forward $41 $-1 #
coedge $-1 $71 $71 $70 $121 reversed $43 $-1 #
coedge $-1 $72 $72 $44 $73 forward $117 $-1 #
edge $-1 $122 0 $122 6.2831853071796004 $72 $123 forward 7 unknown #
face $-1 $124 $125 $15 $-1 $126 reversed single #
loop $-1 $127 $128 $45 #
cone-surface $-1 -75.111663801501592 -6.6398950450345353 11.807007366655537 0.77714596973225614 0 -0.62932038083071107 0.9439805712460666 0 1.1657189545983841 1 I I 0 1 1.5 forward I I I I #
loop $-1 $-1 $129 $29 #
coedge $-1 $78 $78 $79 $130 forward $46 $-1 #
coedge $-1 $79 $79 $78 $130 reversed $48 $-1 #
coedge $-1 $80 $80 $49 $81 forward $131 $-1 #
edge $-1 $132 0 $132 6.2831853071796004 $80 $133 forward 7 unknown #
face $-1 $134 $135 $12 $-1 $136 reversed single #
loop $-1 $-1 $137 $50 #
plane-surface $-1 -79.564195684682758 0 0 1 0 0 0 0 -1 forward_v I I I I #
coedge $-1 $138 $93 $139 $140 forward $51 $-1 #
coedge $-1 $141 $53 $138 $142 forward $33 $-1 #
coedge $-1 $53 $141 $143 $144 forward $33 $-1 #
coedge $-1 $96 $95 $53 $89 reversed $97 $-1 #
edge $-1 $145 -44.84024097508965 $146 44.84024097508965 $88 $147 forward 7 unknown #
coedge $-1 $55 $54 $148 $149 forward $21 $-1 #
coedge $-1 $150 $151 $54 $92 reversed $135 $-1 #
edge $-1 $99 -79.564195684682758 $152 79.564195684682758 $91 $153 forward 7 unknown #
coedge $-1 $85 $154 $55 $94 reversed $51 $-1 #
edge $-1 $155 -79.564195684682758 $98 79.564195684682758 $93 $156 forward 7 unknown #
coedge $-1 $88 $56 $154 $157 forward $97 $-1 #
coedge $-1 $56 $88 $150 $158 reversed $97 $-1 #
loop $-1 $-1 $95 $134 #
vertex $-1 $57 $159 #
vertex $-1 $57 $160 #
straight-curve $-1 79.564195684682758 0 16.383992098707793 0 1 0 I I #
face $-1 $161 $162 $13 $-1 $163 reversed single #
loop $-1 $-1 $164 $58 #
plane-surface $-1 0 0 16.383992098707793 0 0 1 1 0 0 forward_v I I I I #
coedge $-1 $165 $166 $164 $167 reversed $59 $-1 #
coedge $-1 $168 $61 $166 $169 reversed $37 $-1 #
coedge $-1 $61 $168 $62 $109 reversed $37 $-1 #
coedge $-1 $64 $164 $61 $108 forward $102 $-1 #
edge $-1 $170 -10.42013616220539 $113 12.210589906749577 $107 $171 forward 7 unknown #
edge $-1 $113 -7.2618916356537806 $172 4.5496132173526324e-014 $62 $173 forward 7 unknown #
coedge $-1 $174 $175 $63 $111 forward $176 $-1 #
edge $-1 $114 39.057598970779516 $172 44.701148788060266 $110 $177 forward 7 unknown #
coedge $-1 $178 $64 $175 $179 forward $102 $-1 #
vertex $-1 $108 $180 #
vertex $-1 $179 $181 #
straight-curve $-1 -101.61509185368114 -13.105816779021671 16.383992098707793 -1 0 0 I I #
face $-1 $182 $183 $14 $-1 $184 forward single #
loop $-1 $185 $72 $66 #
plane-surface $-1 -79.56419568468273 -1.7904537445441875 10.740442281427079 -0.77714596973225614 0 0.62932038083071107 0.62932038083071107 0 0.77714596973225614 forward_v I I I I #
coedge $-1 $186 $187 $188 $189 reversed $67 $-1 #
coedge $-1 $120 $120 $-1 $190 forward $69 $-1 #
edge $-1 $191 0 $191 6.2831853071796004 $70 $192 forward 7 unknown #
vertex $-1 $73 $193 #
ellipse-curve $-1 -77.279167479832239 -6.6398950450345353 13.562217190067424 0.77714596973225614 0 -0.62932038083071107 0.9439805712460666 0 1.1657189545983841 1 I I #
face $-1 $194 $195 $15 $-1 $196 forward single #
loop $-1 $197 $198 $74 #
cone-surface $-1 -72.361300645871722 -6.6398950450345353 9.579807257620601 0.77714596973225614 0 -0.62932038083071107 0.4719902856230333 0 0.58285947729919207 1 I I -0.70710678118654757 0.70710678118654757 0.75 forward I I I I #
loop $-1 $-1 $199 $45 #
coedge $-1 $128 $128 $200 $201 reversed $75 $-1 #
coedge $-1 $129 $129 $-1 $202 forward $77 $-1 #
edge $-1 $203 0 $203 6.2831853071796004 $78 $204 forward 7 unknown #
loop $-1 $205 $80 $194 #
vertex $-1 $81 $206 #
ellipse-curve $-1 -77.279167479832239 3.0589875559461674 13.562217190067424 0.77714596973225614 0 -0.62932038083071107 0.9439805712460666 0 1.1657189545983841 1 I I #
face $-1 $-1 $97 $12 $-1 $207 reversed single #
loop $-1 $-1 $150 $82 #
plane-surface $-1 0 44.84024097508965 0 0 -1 0 0 0 -1 forward_v I I I I #
coedge $-1 $208 $148 $151 $209 forward $83 $-1 #
coedge $-1 $154 $85 $86 $142 reversed $51 $-1 #
coedge $-1 $148 $208 $85 $140 reversed $83 $-1 #
edge $-1 $155 -16.383992098707793 $210 16.383992098707793 $139 $211 forward 7 unknown #
coedge $-1 $87 $86 $208 $212 forward $33 $-1 #
edge $-1 $146 -79.564195684682758 $210 79.564195684682758 $138 $213 forward 7 unknown #
coedge $-1 $151 $150 $87 $144 reversed $135 $-1 #
edge $-1 $214 -79.564195684682758 $145 79.564195684682758 $143 $215 forward 7 unknown #
vertex $-1 $89 $216 #
vertex $-1 $157 $217 #
straight-curve $-1 79.564195684682758 0 -16.383992098707793 0 -1 0 I I #
coedge $-1 $137 $139 $90 $149 reversed $83 $-1 #
edge $-1 $152 -44.84024097508965 $155 44.84024097508965 $148 $218 forward 7 unknown #
coedge $-1 $143 $91 $96 $158 forward $135 $-1 #
coedge $-1 $91 $143 $137 $209 reversed $135 $-1 #
vertex $-1 $92 $219 #
straight-curve $-1 0 44.84024097508965 16.383992098707793 -1 0 0 I I #
coedge $-1 $93 $138 $95 $157 reversed $51 $-1 #
vertex $-1 $149 $220 #
straight-curve $-1 0 -44.84024097508965 16.383992098707793 1 0 0 I I #
edge $-1 $98 -16.383992098707793 $146 16.383992098707793 $95 $221 forward 7 unknown #
edge $-1 $99 -16.383992098707793 $145 16.383992098707793 $96 $222 forward 7 unknown #
point $-1 79.564195684682758 -44.84024097508965 16.383992098707793 #
point $-1 79.564195684682758 44.84024097508965 16.383992098707793 #
face $-1 $223 $224 $13 $-1 $225 reversed single #
loop $-1 $-1 $226 $101 #
plane-surface $-1 0 0 -16.383992098707793 0 0 1 1 0 0 forward_v I I I I #
coedge $-1 $107 $227 $104 $167 forward $102 $-1 #
coedge $-1 $166 $104 $228 $229 reversed $59 $-1 #
coedge $-1 $104 $165 $105 $169 forward $59 $-1 #
edge $-1 $230 22.050896168998378 $170 26.620952578699402 $164 $231 forward 7 unknown #
coedge $-1 $106 $105 $174 $232 reversed $37 $-1 #
edge $-1 $233 -4.5496132173526324e-014 $170 7.2618916356537806 $166 $234 forward 7 unknown #
vertex $-1 $108 $235 #
straight-curve $-1 -74.994139274981734 -0.89522687227209374 16.383992098707793 0 -1 0 I I #
vertex $-1 $232 $236 #
straight-curve $-1 -79.56419568468273 -13.105816779021671 10.740442281427079 -0.62932038083071107 0 -0.77714596973225614 I I #
coedge $-1 $228 $110 $168 $232 forward $176 $-1 #
coedge $-1 $110 $237 $112 $179 reversed $176 $-1 #
loop $-1 $-1 $228 $223 #
straight-curve $-1 -79.564195684682758 -13.105816779021671 55.441591069487309 0 0 -1 I I #
coedge $-1 $238 $112 $239 $240 forward $102 $-1 #
edge $-1 $114 13.105816779021671 $241 44.84024097508965 $175 $242 forward 7 unknown #
point $-1 -74.994139274981734 -13.105816779021671 16.383992098707793 #
point $-1 -79.564195684682758 -13.105816779021671 16.383992098707793 #
face $-1 $243 $244 $14 $-1 $245 forward single #
loop $-1 $-1 $246 $116 #
plane-surface $-1 -203.23018370736227 9.5249092899332961 110.88318213897462 0 -1 0 0.77714596973225614 0 -0.62932038083071107 forward_v I I I I #
loop $-1 $-1 $247 $66 #
coedge $-1 $187 $119 $248 $249 forward $67 $-1 #
coedge $-1 $119 $186 $250 $251 reversed $67 $-1 #
coedge $-1 $252 $253 $119 $189 forward $244 $-1 #
edge $-1 $254 -26.620952578699402 $255 -22.050896168998378 $188 $256 forward 7 unknown #
edge $-1 $257 1 $257 0 $120 $-1 forward 7 unknown #
vertex $-1 $121 $258 #
ellipse-curve $-1 -72.944160123170917 -6.6398950450345353 10.051797543243634 -0.77714596973225614 0 0.62932038083071107 0.9439805712460666 0 1.1657189545983841 1 I I #
point $-1 -76.335186908586195 -6.6398950450345353 14.727936144665826 #
face $-1 $259 $131 $15 $-1 $260 forward single #
loop $-1 $-1 $261 $124 #
plane-surface $-1 -203.23018370736227 -13.105816779021671 110.88318213897462 0 1 0 -0.77714596973225614 0 0.62932038083071107 forward_v I I I I #
loop $-1 $-1 $262 $74 #
coedge $-1 $198 $198 $199 $263 forward $125 $-1 #
coedge $-1 $199 $199 $198 $263 reversed $127 $-1 #
coedge $-1 $200 $200 $128 $201 forward $205 $-1 #
edge $-1 $264 0 $264 6.2831853071796004 $200 $265 forward 7 unknown #
edge $-1 $266 1 $266 0 $129 $-1 forward 7 unknown #
vertex $-1 $130 $267 #
ellipse-curve $-1 -72.944160123170917 3.0589875559461674 10.051797543243634 -0.77714596973225614 0 0.62932038083071107 0.9439805712460666 0 1.1657189545983841 1 I I #
loop $-1 $268 $200 $194 #
point $-1 -76.335186908586195 3.0589875559461674 14.727936144665826 #
plane-surface $-1 79.564195684682758 0 0 -1 0 0 0 0 1 forward_v I I I I #
coedge $-1 $139 $137 $141 $212 reversed $83 $-1 #
edge $-1 $152 -16.383992098707793 $214 16.383992098707793 $151 $269 forward 7 unknown #
vertex $-1 $212 $270 #
straight-curve $-1 -79.564195684682758 -44.84024097508965 0 0 0 -1 I I #
edge $-1 $210 -44.84024097508965 $214 44.84024097508965 $208 $271 forward 7 unknown #
straight-curve $-1 0 -44.84024097508965 -16.383992098707793 -1 0 0 I I #
vertex $-1 $144 $272 #
straight-curve $-1 0 44.84024097508965 -16.383992098707793 1 0 0 I I #
point $-1 79.564195684682758 44.84024097508965 -16.383992098707793 #
point $-1 79.564195684682758 -44.84024097508965 -16.383992098707793 #
straight-curve $-1 -79.564195684682758 0 16.383992098707793 0 -1 0 I I #
point $-1 -79.564195684682758 44.84024097508965 16.383992098707793 #
point $-1 -79.564195684682758 -44.84024097508965 16.383992098707793 #
straight-curve $-1 79.564195684682758 -44.84024097508965 0 0 0 -1 I I #
straight-curve $-1 79.564195684682758 44.84024097508965 0 0 0 -1 I I #
face $-1 $273 $176 $13 $-1 $274 reversed single #
loop $-1 $-1 $275 $161 #
plane-surface $-1 0 -44.84024097508965 0 0 1 0 0 0 1 forward_v I I I I #
coedge $-1 $276 $277 $278 $279 forward $162 $-1 #
coedge $-1 $164 $280 $281 $282 forward $102 $-1 #
coedge $-1 $281 $174 $165 $229 forward $176 $-1 #
edge $-1 $233 -44.701148788060266 $230 -39.057598970779516 $228 $283 forward 7 unknown #
vertex $-1 $229 $284 #
straight-curve $-1 -101.61509185368114 9.5249092899332961 16.383992098707793 1 0 0 I I #
edge $-1 $172 -12.210589906749577 $233 10.42013616220539 $174 $285 forward 7 unknown #
vertex $-1 $232 $286 #
straight-curve $-1 -79.56419568468273 9.5249092899332961 10.740442281427079 0.62932038083071107 0 0.77714596973225614 I I #
point $-1 -74.994139274981734 9.5249092899332961 16.383992098707793 #
point $-1 -79.564195684682758 -13.105816779021671 10.740442281427043 #
coedge $-1 $175 $287 $275 $288 reversed $176 $-1 #
coedge $-1 $280 $178 $289 $290 forward $102 $-1 #
coedge $-1 $275 $291 $178 $240 reversed $224 $-1 #
edge $-1 $241 -79.564195684682758 $292 79.564195684682758 $239 $293 forward 7 unknown #
vertex $-1 $179 $294 #
straight-curve $-1 -79.564195684682758 0 16.383992098707793 0 -1 0 I I #
face $-1 $295 $296 $14 $-1 $297 reversed single #
loop $-1 $-1 $298 $182 #
plane-surface $-1 0 0 16.383992098707793 0 0 1 1 0 0 forward_v I I I I #
coedge $-1 $299 $300 $298 $301 reversed $183 $-1 #
coedge $-1 $302 $248 $253 $303 reversed $185 $-1 #
coedge $-1 $247 $304 $186 $249 reversed $185 $-1 #
edge $-1 $254 -7.2618916356537806 $305 4.5496132173526324e-014 $186 $306 forward 7 unknown #
coedge $-1 $307 $308 $187 $251 forward $309 $-1 #
edge $-1 $255 39.057598970779516 $305 44.701148788060266 $250 $310 forward 7 unknown #
coedge $-1 $311 $188 $308 $312 forward $244 $-1 #
coedge $-1 $188 $298 $247 $303 forward $244 $-1 #
vertex $-1 $303 $313 #
vertex $-1 $312 $314 #
straight-curve $-1 -101.61509185368114 -13.105816779021671 16.383992098707793 -1 0 0 I I #
vertex $-1 $190 $315 #
point $-1 -72.000179551924845 -6.6398950450345353 11.217516497842018 #
face $-1 $316 $317 $15 $-1 $318 forward single #
plane-surface $-1 -79.56419568468273 -1.7904537445441875 10.740442281427079 -0.77714596973225614 0 0.62932038083071107 0.62932038083071107 0 0.77714596973225614 forward_v I I I I #
coedge $-1 $319 $320 $321 $322 reversed $195 $-1 #
coedge $-1 $262 $262 $-1 $323 forward $197 $-1 #
edge $-1 $324 0 $324 6.2831853071796004 $198 $325 forward 7 unknown #
vertex $-1 $201 $326 #
ellipse-curve $-1 -77.279167479832239 -6.6398950450345353 13.562217190067424 0.77714596973225614 0 -0.62932038083071107 0.9439805712460666 0 1.1657189545983841 1 I I #
vertex $-1 $202 $327 #
point $-1 -72.000179551924845 3.0589875559461674 11.217516497842018 #
loop $-1 $-1 $328 $194 #
straight-curve $-1 -79.564195684682758 44.84024097508965 0 0 0 -1 I I #
point $-1 -79.564195684682758 -44.84024097508965 -16.383992098707793 #
straight-curve $-1 -79.564195684682758 0 -16.383992098707793 0 1 0 I I #
point $-1 -79.564195684682758 44.84024097508965 -16.383992098707793 #
face $-1 $329 $330 $13 $-1 $331 reversed single #
plane-surface $-1 -79.564195684682758 0 0 1 0 0 0 0 -1 forward_v I I I I #
coedge $-1 $332 $239 $237 $288 forward $224 $-1 #
coedge $-1 $333 $226 $332 $334 forward $162 $-1 #
coedge $-1 $226 $333 $335 $336 forward $162 $-1 #
coedge $-1 $337 $338 $226 $279 reversed $339 $-1 #
edge $-1 $340 -44.84024097508965 $341 44.84024097508965 $278 $342 forward 7 unknown #
coedge $-1 $227 $238 $343 $344 forward $102 $-1 #
coedge $-1 $345 $228 $227 $282 reversed $176 $-1 #
edge $-1 $346 -44.84024097508965 $230 -9.5249092899332961 $281 $242 forward 7 unknown #
straight-curve $-1 -79.564195684682758 9.5249092899332961 55.441591069487309 0 0 1 I I #
point $-1 -79.564195684682758 9.5249092899332961 16.383992098707793 #
straight-curve $-1 -79.564195684682758 -0.89522687227209374 10.74044228142705 0 1 0 I I #
point $-1 -79.564195684682758 9.5249092899332961 10.740442281427043 #
coedge $-1 $237 $345 $333 $347 reversed $176 $-1 #
edge $-1 $241 -16.383992098707793 $348 16.383992098707793 $237 $349 forward 7 unknown #
coedge $-1 $338 $337 $238 $290 reversed $339 $-1 #
edge $-1 $292 -44.84024097508965 $350 44.84024097508965 $289 $351 forward 7 unknown #
coedge $-1 $239 $332 $338 $352 reversed $224 $-1 #
vertex $-1 $290 $353 #
straight-curve $-1 0 -44.84024097508965 16.383992098707793 1 0 0 I I #
point $-1 -79.564195684682758 -44.84024097508965 16.383992098707793 #
face $-1 $354 $355 $14 $-1 $356 reversed single #
loop $-1 $-1 $357 $243 #
plane-surface $-1 0 0 -16.383992098707793 0 0 1 1 0 0 forward_v I I I I #
coedge $-1 $253 $358 $246 $301 forward $244 $-1 #
coedge $-1 $300 $246 $359 $360 reversed $183 $-1 #
coedge $-1 $246 $299 $302 $361 forward $183 $-1 #
edge $-1 $362 22.050896168998378 $363 26.620952578699402 $298 $364 forward 7 unknown #
coedge $-1 $304 $247 $300 $361 reversed $185 $-1 #
edge $-1 $363 -10.42013616220539 $254 12.210589906749577 $253 $365 forward 7 unknown #
coedge $-1 $248 $302 $307 $366 reversed $185 $-1 #
vertex $-1 $366 $367 #
straight-curve $-1 -79.56419568468273 -13.105816779021671 10.740442281427079 -0.62932038083071107 0 -0.77714596973225614 I I #
coedge $-1 $359 $250 $304 $366 forward $309 $-1 #
coedge $-1 $250 $368 $252 $312 reversed $309 $-1 #
loop $-1 $-1 $359 $354 #
straight-curve $-1 -79.564195684682758 -13.105816779021671 55.441591069487309 0 0 -1 I I #
coedge $-1 $369 $252 $370 $371 forward $244 $-1 #
edge $-1 $255 13.105816779021671 $372 44.84024097508965 $308 $373 forward 7 unknown #
point $-1 -74.994139274981734 -13.105816779021671 16.383992098707793 #
point $-1 -79.564195684682758 -13.105816779021671 16.383992098707793 #
point $-1 -71.778441168572527 -6.6398950450345353 9.1078169719975683 #
face $-1 $374 $375 $15 $-1 $376 forward single #
loop $-1 $-1 $377 $259 #
plane-surface $-1 -203.23018370736227 9.5249092899332961 110.88318213897462 0 -1 0 0.77714596973225614 0 -0.62932038083071107 forward_v I I I I #
coedge $-1 $320 $261 $378 $379 forward $195 $-1 #
coedge $-1 $261 $319 $380 $381 reversed $195 $-1 #
coedge $-1 $382 $383 $261 $322 forward $375 $-1 #
edge $-1 $384 -26.620952578699402 $385 -22.050896168998378 $321 $386 forward 7 unknown #
edge $-1 $387 1 $387 0 $262 $-1 forward 7 unknown #
vertex $-1 $263 $388 #
ellipse-curve $-1 -72.944160123170917 -6.6398950450345353 10.051797543243634 -0.77714596973225614 0 0.62932038083071107 0.9439805712460666 0 1.1657189545983841 1 I I #
point $-1 -76.335186908586195 -6.6398950450345353 14.727936144665826 #
point $-1 -71.778441168572527 3.0589875559461674 9.1078169719975683 #
coedge $-1 $389 $378 $383 $390 reversed $268 $-1 #
face $-1 $-1 $339 $13 $-1 $391 reversed single #
loop $-1 $-1 $392 $273 #
plane-surface $-1 0 44.84024097508965 0 0 -1 0 0 0 -1 forward_v I I I I #
coedge $-1 $291 $275 $276 $334 reversed $224 $-1 #
coedge $-1 $277 $276 $287 $347 forward $162 $-1 #
edge $-1 $341 -79.564195684682758 $348 79.564195684682758 $332 $393 forward 7 unknown #
coedge $-1 $394 $392 $277 $336 reversed $330 $-1 #
edge $-1 $395 -79.564195684682758 $340 79.564195684682758 $335 $396 forward 7 unknown #
coedge $-1 $289 $278 $392 $397 reversed $339 $-1 #
coedge $-1 $278 $289 $291 $352 forward $339 $-1 #
loop $-1 $-1 $338 $329 #
vertex $-1 $279 $398 #
vertex $-1 $352 $399 #
straight-curve $-1 79.564195684682758 0 -16.383992098707793 0 -1 0 I I #
coedge $-1 $392 $394 $280 $344 reversed $330 $-1 #
edge $-1 $350 -79.564195684682758 $346 79.564195684682758 $343 $400 forward 7 unknown #
coedge $-1 $287 $281 $394 $401 forward $176 $-1 #
vertex $-1 $344 $402 #
edge $-1 $348 -44.84024097508965 $395 44.84024097508965 $287 $403 forward 7 unknown #
vertex $-1 $347 $404 #
straight-curve $-1 -79.564195684682758 -44.84024097508965 0 0 0 -1 I I #
vertex $-1 $290 $405 #
straight-curve $-1 79.564195684682758 0 16.383992098707793 0 1 0 I I #
edge $-1 $292 -16.383992098707793 $341 16.383992098707793 $338 $406 forward 7 unknown #
point $-1 79.564195684682758 -44.84024097508965 16.383992098707793 #
face $-1 $407 $309 $14 $-1 $408 reversed single #
loop $-1 $-1 $409 $295 #
plane-surface $-1 0 -44.84024097508965 0 0 1 0 0 0 1 forward_v I I I I #
coedge $-1 $410 $411 $412 $413 forward $296 $-1 #
coedge $-1 $298 $414 $415 $416 forward $244 $-1 #
coedge $-1 $415 $307 $299 $360 forward $309 $-1 #
edge $-1 $417 -44.701148788060266 $362 -39.057598970779516 $359 $418 forward 7 unknown #
edge $-1 $417 -4.5496132173526324e-014 $363 7.2618916356537806 $300 $419 forward 7 unknown #
vertex $-1 $360 $420 #
vertex $-1 $303 $421 #
straight-curve $-1 -101.61509185368114 9.5249092899332961 16.383992098707793 1 0 0 I I #
straight-curve $-1 -74.994139274981734 -0.89522687227209374 16.383992098707793 0 -1 0 I I #
edge $-1 $305 -12.210589906749577 $417 10.42013616220539 $307 $422 forward 7 unknown #
point $-1 -79.564195684682758 -13.105816779021671 10.740442281427043 #
coedge $-1 $308 $423 $409 $424 reversed $309 $-1 #
coedge $-1 $414 $311 $425 $426 forward $244 $-1 #
coedge $-1 $409 $427 $311 $371 reversed $355 $-1 #
edge $-1 $372 -79.564195684682758 $428 79.564195684682758 $370 $429 forward 7 unknown #
vertex $-1 $312 $430 #
straight-curve $-1 -79.564195684682758 0 16.383992098707793 0 -1 0 I I #
face $-1 $431 $432 $15 $-1 $433 reversed single #
loop $-1 $-1 $434 $316 #
plane-surface $-1 0 0 16.383992098707793 0 0 1 1 0 0 forward_v I I I I #
coedge $-1 $435 $436 $434 $437 reversed $317 $-1 #
coedge $-1 $328 $438 $319 $379 reversed $268 $-1 #
edge $-1 $384 -7.2618916356537806 $439 4.5496132173526324e-014 $319 $440 forward 7 unknown #
coedge $-1 $441 $442 $320 $381 forward $443 $-1 #
edge $-1 $385 39.057598970779516 $439 44.701148788060266 $380 $444 forward 7 unknown #
coedge $-1 $445 $321 $442 $446 forward $375 $-1 #
coedge $-1 $321 $434 $328 $390 forward $375 $-1 #
vertex $-1 $390 $447 #
vertex $-1 $446 $448 #
straight-curve $-1 -101.61509185368114 -13.105816779021671 16.383992098707793 -1 0 0 I I #
vertex $-1 $323 $449 #
point $-1 -72.000179551924845 -6.6398950450345353 11.217516497842018 #
coedge $-1 $438 $328 $436 $450 reversed $268 $-1 #
edge $-1 $451 -10.42013616220539 $384 12.210589906749577 $383 $452 forward 7 unknown #
plane-surface $-1 79.564195684682758 0 0 -1 0 0 0 0 1 forward_v I I I I #
coedge $-1 $335 $343 $337 $397 forward $330 $-1 #
straight-curve $-1 0 -44.84024097508965 -16.383992098707793 -1 0 0 I I #
coedge $-1 $343 $335 $345 $401 reversed $330 $-1 #
vertex $-1 $336 $453 #
straight-curve $-1 0 44.84024097508965 -16.383992098707793 1 0 0 I I #
edge $-1 $350 -16.383992098707793 $340 16.383992098707793 $337 $454 forward 7 unknown #
point $-1 79.564195684682758 44.84024097508965 -16.383992098707793 #
point $-1 79.564195684682758 -44.84024097508965 -16.383992098707793 #
straight-curve $-1 0 44.84024097508965 16.383992098707793 -1 0 0 I I #
edge $-1 $346 -16.383992098707793 $395 16.383992098707793 $394 $455 forward 7 unknown #
point $-1 -79.564195684682758 44.84024097508965 16.383992098707793 #
straight-curve $-1 -79.564195684682758 0 -16.383992098707793 0 1 0 I I #
point $-1 -79.564195684682758 -44.84024097508965 -16.383992098707793 #
point $-1 79.564195684682758 44.84024097508965 16.383992098707793 #
straight-curve $-1 79.564195684682758 -44.84024097508965 0 0 0 -1 I I #
face $-1 $456 $457 $14 $-1 $458 reversed single #
plane-surface $-1 -79.564195684682758 0 0 1 0 0 0 0 -1 forward_v I I I I #
coedge $-1 $459 $370 $368 $424 forward $355 $-1 #
coedge $-1 $460 $357 $459 $461 forward $296 $-1 #
coedge $-1 $357 $460 $462 $463 forward $296 $-1 #
coedge $-1 $464 $465 $357 $413 reversed $466 $-1 #
edge $-1 $467 -44.84024097508965 $468 44.84024097508965 $412 $469 forward 7 unknown #
coedge $-1 $358 $369 $470 $471 forward $244 $-1 #
coedge $-1 $472 $359 $358 $416 reversed $309 $-1 #
edge $-1 $473 -44.84024097508965 $362 -9.5249092899332961 $415 $373 forward 7 unknown #
vertex $-1 $366 $474 #
straight-curve $-1 -79.564195684682758 9.5249092899332961 55.441591069487309 0 0 1 I I #
straight-curve $-1 -79.56419568468273 9.5249092899332961 10.740442281427079 0.62932038083071107 0 0.77714596973225614 I I #
point $-1 -79.564195684682758 9.5249092899332961 16.383992098707793 #
point $-1 -74.994139274981734 9.5249092899332961 16.383992098707793 #
straight-curve $-1 -79.564195684682758 -0.89522687227209374 10.74044228142705 0 1 0 I I #
coedge $-1 $368 $472 $460 $475 reversed $309 $-1 #
edge $-1 $372 -16.383992098707793 $476 16.383992098707793 $368 $477 forward 7 unknown #
coedge $-1 $465 $464 $369 $426 reversed $466 $-1 #
edge $-1 $428 -44.84024097508965 $478 44.84024097508965 $425 $479 forward 7 unknown #
coedge $-1 $370 $459 $465 $480 reversed $355 $-1 #
vertex $-1 $426 $481 #
straight-curve $-1 0 -44.84024097508965 16.383992098707793 1 0 0 I I #
point $-1 -79.564195684682758 -44.84024097508965 16.383992098707793 #
face $-1 $482 $483 $15 $-1 $484 reversed single #
loop $-1 $-1 $485 $374 #
plane-surface $-1 0 0 -16.383992098707793 0 0 1 1 0 0 forward_v I I I I #
coedge $-1 $383 $486 $377 $437 forward $375 $-1 #
coedge $-1 $436 $377 $487 $488 reversed $317 $-1 #
coedge $-1 $377 $435 $389 $450 forward $317 $-1 #
edge $-1 $489 22.050896168998378 $451 26.620952578699402 $434 $490 forward 7 unknown #
coedge $-1 $378 $389 $441 $491 reversed $268 $-1 #
vertex $-1 $491 $492 #
straight-curve $-1 -79.56419568468273 -13.105816779021671 10.740442281427079 -0.62932038083071107 0 -0.77714596973225614 I I #
coedge $-1 $487 $380 $438 $491 forward $443 $-1 #
coedge $-1 $380 $493 $382 $446 reversed $443 $-1 #
loop $-1 $-1 $487 $482 #
straight-curve $-1 -79.564195684682758 -13.105816779021671 55.441591069487309 0 0 -1 I I #
coedge $-1 $494 $382 $495 $496 forward $375 $-1 #
edge $-1 $385 13.105816779021671 $497 44.84024097508965 $442 $498 forward 7 unknown #
point $-1 -74.994139274981734 -13.105816779021671 16.383992098707793 #
point $-1 -79.564195684682758 -13.105816779021671 16.383992098707793 #
point $-1 -71.778441168572527 -6.6398950450345353 9.1078169719975683 #
edge $-1 $499 -4.5496132173526324e-014 $451 7.2618916356537806 $436 $500 forward 7 unknown #
vertex $-1 $390 $501 #
straight-curve $-1 -74.994139274981734 -0.89522687227209374 16.383992098707793 0 -1 0 I I #
point $-1 -79.564195684682758 44.84024097508965 -16.383992098707793 #
straight-curve $-1 79.564195684682758 44.84024097508965 0 0 0 -1 I I #
straight-curve $-1 -79.564195684682758 44.84024097508965 0 0 0 -1 I I #
face $-1 $-1 $466 $14 $-1 $502 reversed single #
loop $-1 $-1 $503 $407 #
plane-surface $-1 0 44.84024097508965 0 0 -1 0 0 0 -1 forward_v I I I I #
coedge $-1 $427 $409 $410 $461 reversed $355 $-1 #
coedge $-1 $411 $410 $423 $475 forward $296 $-1 #
edge $-1 $468 -79.564195684682758 $476 79.564195684682758 $459 $504 forward 7 unknown #
coedge $-1 $505 $503 $411 $463 reversed $457 $-1 #
edge $-1 $506 -79.564195684682758 $467 79.564195684682758 $462 $507 forward 7 unknown #
coedge $-1 $425 $412 $503 $508 reversed $466 $-1 #
coedge $-1 $412 $425 $427 $480 forward $466 $-1 #
loop $-1 $-1 $465 $456 #
vertex $-1 $413 $509 #
vertex $-1 $480 $510 #
straight-curve $-1 79.564195684682758 0 -16.383992098707793 0 -1 0 I I #
coedge $-1 $503 $505 $414 $471 reversed $457 $-1 #
edge $-1 $478 -79.564195684682758 $473 79.564195684682758 $470 $511 forward 7 unknown #
coedge $-1 $423 $415 $505 $512 forward $309 $-1 #
vertex $-1 $471 $513 #
point $-1 -79.564195684682758 9.5249092899332961 10.740442281427043 #
edge $-1 $476 -44.84024097508965 $506 44.84024097508965 $423 $514 forward 7 unknown #
vertex $-1 $475 $515 #
straight-curve $-1 -79.564195684682758 -44.84024097508965 0 0 0 -1 I I #
vertex $-1 $426 $516 #
straight-curve $-1 79.564195684682758 0 16.383992098707793 0 1 0 I I #
edge $-1 $428 -16.383992098707793 $468 16.383992098707793 $465 $517 forward 7 unknown #
point $-1 79.564195684682758 -44.84024097508965 16.383992098707793 #
face $-1 $518 $443 $15 $-1 $519 reversed single #
loop $-1 $-1 $520 $431 #
plane-surface $-1 0 -44.84024097508965 0 0 1 0 0 0 1 forward_v I I I I #
coedge $-1 $521 $522 $523 $524 forward $432 $-1 #
coedge $-1 $434 $525 $526 $527 forward $375 $-1 #
coedge $-1 $526 $441 $435 $488 forward $443 $-1 #
edge $-1 $499 -44.701148788060266 $489 -39.057598970779516 $487 $528 forward 7 unknown #
vertex $-1 $488 $529 #
straight-curve $-1 -101.61509185368114 9.5249092899332961 16.383992098707793 1 0 0 I I #
edge $-1 $439 -12.210589906749577 $499 10.42013616220539 $441 $530 forward 7 unknown #
point $-1 -79.564195684682758 -13.105816779021671 10.740442281427043 #
coedge $-1 $442 $531 $520 $532 reversed $443 $-1 #
coedge $-1 $525 $445 $533 $534 forward $375 $-1 #
coedge $-1 $520 $535 $445 $496 reversed $483 $-1 #
edge $-1 $497 -79.564195684682758 $536 79.564195684682758 $495 $537 forward 7 unknown #
vertex $-1 $446 $538 #
straight-curve $-1 -79.564195684682758 0 16.383992098707793 0 -1 0 I I #
vertex $-1 $491 $539 #
straight-curve $-1 -79.56419568468273 9.5249092899332961 10.740442281427079 0.62932038083071107 0 0.77714596973225614 I I #
point $-1 -74.994139274981734 9.5249092899332961 16.383992098707793 #
plane-surface $-1 79.564195684682758 0 0 -1 0 0 0 0 1 forward_v I I I I #
coedge $-1 $462 $470 $464 $508 forward $457 $-1 #
straight-curve $-1 0 -44.84024097508965 -16.383992098707793 -1 0 0 I I #
coedge $-1 $470 $462 $472 $512 reversed $457 $-1 #
vertex $-1 $463 $540 #
straight-curve $-1 0 44.84024097508965 -16.383992098707793 1 0 0 I I #
edge $-1 $478 -16.383992098707793 $467 16.383992098707793 $464 $541 forward 7 unknown #
point $-1 79.564195684682758 44.84024097508965 -16.383992098707793 #
point $-1 79.564195684682758 -44.84024097508965 -16.383992098707793 #
straight-curve $-1 0 44.84024097508965 16.383992098707793 -1 0 0 I I #
edge $-1 $473 -16.383992098707793 $506 16.383992098707793 $505 $542 forward 7 unknown #
point $-1 -79.564195684682758 44.84024097508965 16.383992098707793 #
straight-curve $-1 -79.564195684682758 0 -16.383992098707793 0 1 0 I I #
point $-1 -79.564195684682758 -44.84024097508965 -16.383992098707793 #
point $-1 79.564195684682758 44.84024097508965 16.383992098707793 #
straight-curve $-1 79.564195684682758 -44.84024097508965 0 0 0 -1 I I #
face $-1 $543 $544 $15 $-1 $545 reversed single #
plane-surface $-1 -79.564195684682758 0 0 1 0 0 0 0 -1 forward_v I I I I #
coedge $-1 $546 $495 $493 $532 forward $483 $-1 #
coedge $-1 $547 $485 $546 $548 forward $432 $-1 #
coedge $-1 $485 $547 $549 $550 forward $432 $-1 #
coedge $-1 $551 $552 $485 $524 reversed $553 $-1 #
edge $-1 $554 -44.84024097508965 $555 44.84024097508965 $523 $556 forward 7 unknown #
coedge $-1 $486 $494 $557 $558 forward $375 $-1 #
coedge $-1 $559 $487 $486 $527 reversed $443 $-1 #
edge $-1 $560 -44.84024097508965 $489 -9.5249092899332961 $526 $498 forward 7 unknown #
straight-curve $-1 -79.564195684682758 9.5249092899332961 55.441591069487309 0 0 1 I I #
point $-1 -79.564195684682758 9.5249092899332961 16.383992098707793 #
straight-curve $-1 -79.564195684682758 -0.89522687227209374 10.74044228142705 0 1 0 I I #
coedge $-1 $493 $559 $547 $561 reversed $443 $-1 #
edge $-1 $497 -16.383992098707793 $562 16.383992098707793 $493 $563 forward 7 unknown #
coedge $-1 $552 $551 $494 $534 reversed $553 $-1 #
edge $-1 $536 -44.84024097508965 $564 44.84024097508965 $533 $565 forward 7 unknown #
coedge $-1 $495 $546 $552 $566 reversed $483 $-1 #
vertex $-1 $534 $567 #
straight-curve $-1 0 -44.84024097508965 16.383992098707793 1 0 0 I I #
point $-1 -79.564195684682758 -44.84024097508965 16.383992098707793 #
point $-1 -79.564195684682758 9.5249092899332961 10.740442281427043 #
point $-1 -79.564195684682758 44.84024097508965 -16.383992098707793 #
straight-curve $-1 79.564195684682758 44.84024097508965 0 0 0 -1 I I #
straight-curve $-1 -79.564195684682758 44.84024097508965 0 0 0 -1 I I #
face $-1 $-1 $553 $15 $-1 $568 reversed single #
loop $-1 $-1 $569 $518 #
plane-surface $-1 0 44.84024097508965 0 0 -1 0 0 0 -1 forward_v I I I I #
coedge $-1 $535 $520 $521 $548 reversed $483 $-1 #
coedge $-1 $522 $521 $531 $561 forward $432 $-1 #
edge $-1 $555 -79.564195684682758 $562 79.564195684682758 $546 $570 forward 7 unknown #
coedge $-1 $571 $569 $522 $550 reversed $544 $-1 #
edge $-1 $572 -79.564195684682758 $554 79.564195684682758 $549 $573 forward 7 unknown #
coedge $-1 $533 $523 $569 $574 reversed $553 $-1 #
coedge $-1 $523 $533 $535 $566 forward $553 $-1 #
loop $-1 $-1 $552 $543 #
vertex $-1 $524 $575 #
vertex $-1 $566 $576 #
straight-curve $-1 79.564195684682758 0 -16.383992098707793 0 -1 0 I I #
coedge $-1 $569 $571 $525 $558 reversed $544 $-1 #
edge $-1 $564 -79.564195684682758 $560 79.564195684682758 $557 $577 forward 7 unknown #
coedge $-1 $531 $526 $571 $578 forward $443 $-1 #
vertex $-1 $558 $579 #
edge $-1 $562 -44.84024097508965 $572 44.84024097508965 $531 $580 forward 7 unknown #
vertex $-1 $561 $581 #
straight-curve $-1 -79.564195684682758 -44.84024097508965 0 0 0 -1 I I #
vertex $-1 $534 $582 #
straight-curve $-1 79.564195684682758 0 16.383992098707793 0 1 0 I I #
edge $-1 $536 -16.383992098707793 $555 16.383992098707793 $552 $583 forward 7 unknown #
point $-1 79.564195684682758 -44.84024097508965 16.383992098707793 #
plane-surface $-1 79.564195684682758 0 0 -1 0 0 0 0 1 forward_v I I I I #
coedge $-1 $549 $557 $551 $574 forward $544 $-1 #
straight-curve $-1 0 -44.84024097508965 -16.383992098707793 -1 0 0 I I #
coedge $-1 $557 $549 $559 $578 reversed $544 $-1 #
vertex $-1 $550 $584 #
straight-curve $-1 0 44.84024097508965 -16.383992098707793 1 0 0 I I #
edge $-1 $564 -16.383992098707793 $554 16.383992098707793 $551 $585 forward 7 unknown #
point $-1 79.564195684682758 44.84024097508965 -16.383992098707793 #
point $-1 79.564195684682758 -44.84024097508965 -16.383992098707793 #
straight-curve $-1 0 44.84024097508965 16.383992098707793 -1 0 0 I I #
edge $-1 $560 -16.383992098707793 $572 16.383992098707793 $571 $586 forward 7 unknown #
point $-1 -79.564195684682758 44.84024097508965 16.383992098707793 #
straight-curve $-1 -79.564195684682758 0 -16.383992098707793 0 1 0 I I #
point $-1 -79.564195684682758 -44.84024097508965 -16.383992098707793 #
point $-1 79.564195684682758 44.84024097508965 16.383992098707793 #
straight-curve $-1 79.564195684682758 -44.84024097508965 0 0 0 -1 I I #
point $-1 -79.564195684682758 44.84024097508965 -16.383992098707793 #
straight-curve $-1 79.564195684682758 44.84024097508965 0 0 0 -1 I I #
straight-curve $-1 -79.564195684682758 44.84024097508965 0 0 0 -1 I I #
End-of-ACIS-data 