500 0 10 0           
7 Unknown 11 ACIS 5.0 NT 24 Thu Mar 25 21:54:26 1999 
-1 9.9999999999999995e-007 1e-010 
body $-1 $10 $-1 $11 #
body $-1 $12 $-1 $13 #
body $-1 $14 $-1 $15 #
body $-1 $16 $-1 $17 #
body $-1 $18 $-1 $19 #
body $-1 $20 $-1 $21 #
body $-1 $22 $-1 $23 #
body $-1 $24 $-1 $25 #
body $-1 $26 $-1 $27 #
body $-1 $28 $-1 $29 #
lump $-1 $-1 $30 $0 #
transform $-1 1 0 0 0 1 0 0 0 1 65.845515305032507 39.783013541058097 19.764752822542157 1 rotate no_reflect no_shear #
lump $-1 $-1 $31 $1 #
transform $-1 1 0 0 0 1 0 0 0 1 65.845515305032507 39.783013541058097 19.764752822542157 1 rotate no_reflect no_shear #
lump $-1 $-1 $32 $2 #
transform $-1 1 0 0 0 1 0 0 0 1 65.845515305032507 39.783013541058097 19.764752822542157 1 rotate no_reflect no_shear #
lump $-1 $-1 $33 $3 #
transform $-1 1 0 0 0 1 0 0 0 1 65.845515305032507 39.783013541058097 19.764752822542157 1 rotate no_reflect no_shear #
lump $-1 $-1 $34 $4 #
transform $-1 1 0 0 0 1 0 0 0 1 65.845515305032507 39.783013541058097 19.764752822542157 1 rotate no_reflect no_shear #
lump $-1 $-1 $35 $5 #
transform $-1 1 0 0 0 1 0 0 0 1 65.845515305032507 39.783013541058097 19.764752822542157 1 rotate no_reflect no_shear #
lump $-1 $-1 $36 $6 #
transform $-1 1 0 0 0 1 0 0 0 1 65.845515305032507 39.783013541058097 19.764752822542157 1 rotate no_reflect no_shear #
lump $-1 $-1 $37 $7 #
transform $-1 1 0 0 0 1 0 0 0 1 65.845515305032507 39.783013541058097 19.764752822542157 1 rotate no_reflect no_shear #
lump $-1 $-1 $38 $8 #
transform $-1 1 0 0 0 1 0 0 0 1 65.845515305032507 39.783013541058097 19.764752822542157 1 rotate no_reflect no_shear #
lump $-1 $-1 $39 $9 #
transform $-1 1 0 0 0 1 0 0 0 1 65.845515305032507 39.783013541058097 19.764752822542157 1 rotate no_reflect no_shear #
shell $-1 $-1 $-1 $40 $-1 $10 #
shell $-1 $-1 $-1 $41 $-1 $12 #
shell $-1 $-1 $-1 $42 $-1 $14 #
shell $-1 $-1 $-1 $43 $-1 $16 #
shell $-1 $-1 $-1 $44 $-1 $18 #
shell $-1 $-1 $-1 $45 $-1 $20 #
shell $-1 $-1 $-1 $46 $-1 $22 #
shell $-1 $-1 $-1 $47 $-1 $24 #
shell $-1 $-1 $-1 $48 $-1 $26 #
shell $-1 $-1 $-1 $49 $-1 $28 #
face $-1 $50 $51 $30 $-1 $52 forward single #
face $-1 $53 $54 $31 $-1 $55 forward single #
face $-1 $56 $57 $32 $-1 $58 reversed single #
face $-1 $59 $60 $33 $-1 $61 forward single #
face $-1 $62 $63 $34 $-1 $64 forward single #
face $-1 $65 $66 $35 $-1 $67 forward single #
face $-1 $68 $69 $36 $-1 $70 reversed single #
face $-1 $71 $72 $37 $-1 $73 forward single #
face $-1 $74 $75 $38 $-1 $76 forward single #
face $-1 $77 $78 $39 $-1 $79 forward single #
face $-1 $80 $81 $30 $-1 $82 reversed single #
loop $-1 $-1 $83 $40 #
plane-surface $-1 0 0 19.764752822542157 0 0 1 1 0 0 forward_v I I I I #
face $-1 $84 $85 $31 $-1 $86 forward single #
loop $-1 $-1 $87 $41 #
plane-surface $-1 0 -39.783013541058097 0 0 1 0 0 0 1 forward_v I I I I #
face $-1 $88 $89 $32 $-1 $90 reversed single #
loop $-1 $-1 $91 $42 #
plane-surface $-1 85.312819458016747 -0.65829743623342019 197.66913583254529 0 -1 0 -0.77714596973225614 0 -0.62932038083071107 forward_v I I I I #
face $-1 $92 $93 $33 $-1 $94 forward single #
loop $-1 $95 $96 $43 #
cone-surface $-1 61.748493645197023 -13.120016407257431 15.188021714498035 -0.77714596973225614 0 -0.62932038083071107 0.9439805712460666 0 -1.1657189545983841 1 I I 0 1 1.5 forward I I I I #
face $-1 $97 $98 $34 $-1 $99 forward single #
loop $-1 $100 $101 $44 #
cone-surface $-1 61.748493645197023 -8.4468717931234245 15.188021714498035 -0.77714596973225614 0 -0.62932038083071107 0.9439805712460666 0 -1.1657189545983841 1 I I 0 1 1.5 forward I I I I #
face $-1 $102 $103 $35 $-1 $104 forward single #
loop $-1 $105 $106 $45 #
cone-surface $-1 61.748493645197023 -3.773727178989418 15.188021714498035 -0.77714596973225614 0 -0.62932038083071107 0.9439805712460666 0 -1.1657189545983841 1 I I 0 1 1.5 forward I I I I #
face $-1 $107 $108 $36 $-1 $109 reversed single #
loop $-1 $-1 $110 $46 #
plane-surface $-1 -168.18866899353168 -16.235446150013438 95.325982144046094 0 1 0 -0.77714596973225614 0 0.62932038083071107 forward_v I I I I #
face $-1 $111 $112 $37 $-1 $113 forward single #
loop $-1 $114 $115 $47 #
cone-surface $-1 -61.748493645197037 -13.120016407257431 15.188021714498035 0.77714596973225614 0 -0.62932038083071107 0.9439805712460666 0 1.1657189545983841 1 I I 0 1 1.5 forward I I I I #
face $-1 $116 $117 $38 $-1 $118 forward single #
loop $-1 $119 $120 $48 #
cone-surface $-1 -61.748493645197037 -8.4468717931234245 15.188021714498035 0.77714596973225614 0 -0.62932038083071107 0.9439805712460666 0 1.1657189545983841 1 I I 0 1 1.5 forward I I I I #
face $-1 $121 $122 $39 $-1 $123 forward single #
loop $-1 $124 $125 $49 #
cone-surface $-1 -61.748493645197037 -3.773727178989418 15.188021714498035 0.77714596973225614 0 -0.62932038083071107 0.9439805712460666 0 1.1657189545983841 1 I I 0 1 1.5 forward I I I I #
face $-1 $126 $127 $30 $-1 $128 reversed single #
loop $-1 $-1 $129 $50 #
plane-surface $-1 0 0 -19.764752822542157 0 0 1 1 0 0 forward_v I I I I #
coedge $-1 $130 $131 $132 $133 forward $51 $-1 #
face $-1 $134 $135 $31 $-1 $136 reversed single #
loop $-1 $-1 $137 $53 #
plane-surface $-1 0 0 19.764752822542157 0 0 1 1 0 0 forward_v I I I I #
coedge $-1 $138 $139 $140 $141 forward $54 $-1 #
face $-1 $142 $143 $32 $-1 $144 reversed single #
loop $-1 $-1 $145 $56 #
plane-surface $-1 -17.030334230482453 -8.4468717931234281 114.79328629703035 0.77714596973225614 0 0.62932038083071107 0.62932038083071107 0 -0.77714596973225614 forward_v I I I I #
coedge $-1 $146 $147 $148 $149 reversed $57 $-1 #
face $-1 $-1 $150 $33 $-1 $151 forward single #
loop $-1 $152 $153 $59 #
cone-surface $-1 60.030243757529774 -13.120016407257431 13.796610427836377 -0.77714596973225614 0 -0.62932038083071107 0.4719902856230333 0 -0.58285947729919207 1 I I -0.70710678118654757 0.70710678118654757 0.75 forward I I I I #
loop $-1 $-1 $154 $43 #
coedge $-1 $96 $96 $155 $156 reversed $60 $-1 #
face $-1 $-1 $157 $34 $-1 $158 forward single #
loop $-1 $159 $160 $62 #
cone-surface $-1 60.030243757529774 -8.4468717931234245 13.796610427836377 -0.77714596973225614 0 -0.62932038083071107 0.4719902856230333 0 -0.58285947729919207 1 I I -0.70710678118654757 0.70710678118654757 0.75 forward I I I I #
loop $-1 $-1 $161 $44 #
coedge $-1 $101 $101 $162 $163 reversed $63 $-1 #
face $-1 $-1 $164 $35 $-1 $165 forward single #
loop $-1 $166 $167 $65 #
cone-surface $-1 60.030243757529774 -3.773727178989418 13.796610427836377 -0.77714596973225614 0 -0.62932038083071107 0.4719902856230333 0 -0.58285947729919207 1 I I -0.70710678118654757 0.70710678118654757 0.75 forward I I I I #
loop $-1 $-1 $168 $45 #
coedge $-1 $106 $106 $169 $170 reversed $66 $-1 #
face $-1 $171 $172 $36 $-1 $173 reversed single #
loop $-1 $-1 $174 $68 #
plane-surface $-1 -65.845515305032478 -8.4468717931234281 12.450132608531149 -0.77714596973225614 0 0.62932038083071107 0.62932038083071107 0 0.77714596973225614 forward_v I I I I #
coedge $-1 $175 $176 $177 $178 reversed $69 $-1 #
face $-1 $-1 $179 $37 $-1 $180 forward single #
loop $-1 $181 $182 $71 #
cone-surface $-1 -60.030243757529789 -13.120016407257431 13.796610427836377 0.77714596973225614 0 -0.62932038083071107 0.4719902856230333 0 0.58285947729919207 1 I I -0.70710678118654757 0.70710678118654757 0.75 forward I I I I #
loop $-1 $-1 $183 $47 #
coedge $-1 $115 $115 $184 $185 reversed $72 $-1 #
face $-1 $-1 $186 $38 $-1 $187 forward single #
loop $-1 $188 $189 $74 #
cone-surface $-1 -60.030243757529789 -8.4468717931234245 13.796610427836377 0.77714596973225614 0 -0.62932038083071107 0.4719902856230333 0 0.58285947729919207 1 I I -0.70710678118654757 0.70710678118654757 0.75 forward I I I I #
loop $-1 $-1 $190 $48 #
coedge $-1 $120 $120 $191 $192 reversed $75 $-1 #
face $-1 $-1 $193 $39 $-1 $194 forward single #
loop $-1 $195 $196 $77 #
cone-surface $-1 -60.030243757529789 -3.773727178989418 13.796610427836377 0.77714596973225614 0 -0.62932038083071107 0.4719902856230333 0 0.58285947729919207 1 I I -0.70710678118654757 0.70710678118654757 0.75 forward I I I I #
loop $-1 $-1 $197 $49 #
coedge $-1 $125 $125 $198 $199 reversed $78 $-1 #
face $-1 $200 $201 $30 $-1 $202 reversed single #
loop $-1 $-1 $203 $80 #
plane-surface $-1 0 -39.783013541058097 0 0 1 0 0 0 1 forward_v I I I I #
coedge $-1 $204 $205 $206 $207 forward $81 $-1 #
coedge $-1 $208 $83 $209 $210 forward $51 $-1 #
coedge $-1 $83 $208 $211 $212 forward $51 $-1 #
coedge $-1 $213 $214 $83 $133 reversed $215 $-1 #
edge $-1 $216 -39.783013541058097 $217 39.783013541058097 $132 $218 forward 7 unknown #
face $-1 $219 $220 $31 $-1 $221 reversed single #
loop $-1 $-1 $222 $84 #
plane-surface $-1 -65.845515305032507 0 0 1 0 0 0 0 -1 forward_v I I I I #
coedge $-1 $223 $224 $139 $225 forward $85 $-1 #
coedge $-1 $226 $87 $227 $228 reversed $54 $-1 #
coedge $-1 $87 $226 $137 $225 reversed $54 $-1 #
coedge $-1 $229 $230 $87 $141 reversed $231 $-1 #
edge $-1 $232 -19.764752822542157 $233 19.764752822542157 $140 $234 forward 7 unknown #
face $-1 $235 $236 $32 $-1 $237 forward single #
loop $-1 $-1 $238 $88 #
plane-surface $-1 85.312819458016747 -16.235446150013438 197.66913583254529 0 1 0 0.77714596973225614 0 0.62932038083071107 forward_v I I I I #
coedge $-1 $239 $240 $241 $242 reversed $89 $-1 #
coedge $-1 $147 $91 $243 $244 reversed $57 $-1 #
coedge $-1 $91 $146 $239 $245 reversed $57 $-1 #
coedge $-1 $241 $246 $91 $149 forward $236 $-1 #
edge $-1 $247 -23.189105576024133 $248 -17.265843077089286 $148 $249 forward 7 unknown #
loop $-1 $-1 $155 $92 #
plane-surface $-1 -17.030334230482453 -8.4468717931234281 114.79328629703035 0.77714596973225614 0 0.62932038083071107 0.62932038083071107 0 -0.77714596973225614 forward_v I I I I #
loop $-1 $-1 $250 $59 #
coedge $-1 $153 $153 $154 $251 reversed $93 $-1 #
coedge $-1 $154 $154 $153 $251 forward $95 $-1 #
coedge $-1 $155 $155 $96 $156 forward $150 $-1 #
edge $-1 $252 0 $252 6.2831853071796004 $155 $253 forward 7 unknown #
loop $-1 $-1 $162 $97 #
plane-surface $-1 -17.030334230482453 -8.4468717931234281 114.79328629703035 0.77714596973225614 0 0.62932038083071107 0.62932038083071107 0 -0.77714596973225614 forward_v I I I I #
loop $-1 $-1 $254 $62 #
coedge $-1 $160 $160 $161 $255 reversed $98 $-1 #
coedge $-1 $161 $161 $160 $255 forward $100 $-1 #
coedge $-1 $162 $162 $101 $163 forward $157 $-1 #
edge $-1 $256 0 $256 6.2831853071796004 $162 $257 forward 7 unknown #
loop $-1 $-1 $169 $102 #
plane-surface $-1 -17.030334230482453 -8.4468717931234281 114.79328629703035 0.77714596973225614 0 0.62932038083071107 0.62932038083071107 0 -0.77714596973225614 forward_v I I I I #
loop $-1 $-1 $258 $65 #
coedge $-1 $167 $167 $168 $259 reversed $103 $-1 #
coedge $-1 $168 $168 $167 $259 forward $105 $-1 #
coedge $-1 $169 $169 $106 $170 forward $164 $-1 #
edge $-1 $260 0 $260 6.2831853071796004 $169 $261 forward 7 unknown #
face $-1 $262 $263 $36 $-1 $264 reversed single #
loop $-1 $-1 $265 $107 #
plane-surface $-1 -168.18866899353168 -0.65829743623342019 95.325982144046094 0 -1 0 0.77714596973225614 0 -0.62932038083071107 forward_v I I I I #
coedge $-1 $266 $267 $268 $269 reversed $108 $-1 #
coedge $-1 $176 $110 $270 $271 reversed $69 $-1 #
coedge $-1 $110 $175 $266 $272 reversed $69 $-1 #
coedge $-1 $268 $273 $110 $178 forward $274 $-1 #
edge $-1 $275 18.248819191733332 $276 24.172081690668207 $177 $277 forward 7 unknown #
loop $-1 $-1 $184 $111 #
plane-surface $-1 -65.845515305032478 -8.4468717931234281 12.450132608531149 -0.77714596973225614 0 0.62932038083071107 0.62932038083071107 0 0.77714596973225614 forward_v I I I I #
loop $-1 $-1 $278 $71 #
coedge $-1 $182 $182 $183 $279 reversed $112 $-1 #
coedge $-1 $183 $183 $182 $279 forward $114 $-1 #
coedge $-1 $184 $184 $115 $185 forward $179 $-1 #
edge $-1 $280 0 $280 6.2831853071796004 $184 $281 forward 7 unknown #
loop $-1 $-1 $191 $116 #
plane-surface $-1 -65.845515305032478 -8.4468717931234281 12.450132608531149 -0.77714596973225614 0 0.62932038083071107 0.62932038083071107 0 0.77714596973225614 forward_v I I I I #
loop $-1 $-1 $282 $74 #
coedge $-1 $189 $189 $190 $283 reversed $117 $-1 #
coedge $-1 $190 $190 $189 $283 forward $119 $-1 #
coedge $-1 $191 $191 $120 $192 forward $186 $-1 #
edge $-1 $284 0 $284 6.2831853071796004 $191 $285 forward 7 unknown #
loop $-1 $-1 $198 $121 #
plane-surface $-1 -65.845515305032478 -8.4468717931234281 12.450132608531149 -0.77714596973225614 0 0.62932038083071107 0.62932038083071107 0 0.77714596973225614 forward_v I I I I #
loop $-1 $-1 $286 $77 #
coedge $-1 $196 $196 $197 $287 reversed $122 $-1 #
coedge $-1 $197 $197 $196 $287 forward $124 $-1 #
coedge $-1 $198 $198 $125 $199 forward $193 $-1 #
edge $-1 $288 0 $288 6.2831853071796004 $198 $289 forward 7 unknown #
face $-1 $290 $291 $30 $-1 $292 reversed single #
loop $-1 $-1 $293 $126 #
plane-surface $-1 -65.845515305032507 0 0 1 0 0 0 0 -1 forward_v I I I I #
coedge $-1 $294 $211 $295 $296 forward $127 $-1 #
coedge $-1 $297 $129 $294 $298 forward $81 $-1 #
coedge $-1 $129 $297 $299 $300 forward $81 $-1 #
coedge $-1 $214 $213 $129 $207 reversed $215 $-1 #
edge $-1 $301 -39.783013541058097 $302 39.783013541058097 $206 $303 forward 7 unknown #
coedge $-1 $131 $130 $304 $305 forward $51 $-1 #
coedge $-1 $306 $307 $130 $210 reversed $291 $-1 #
edge $-1 $217 -65.845515305032507 $308 65.845515305032507 $209 $309 forward 7 unknown #
coedge $-1 $203 $310 $131 $212 reversed $127 $-1 #
edge $-1 $311 -65.845515305032507 $216 65.845515305032507 $211 $312 forward 7 unknown #
coedge $-1 $206 $132 $310 $313 forward $215 $-1 #
coedge $-1 $132 $206 $306 $314 reversed $215 $-1 #
loop $-1 $-1 $213 $290 #
vertex $-1 $133 $315 #
vertex $-1 $133 $316 #
straight-curve $-1 65.845515305032507 0 19.764752822542157 0 1 0 I I #
face $-1 $317 $231 $31 $-1 $318 reversed single #
loop $-1 $-1 $319 $134 #
plane-surface $-1 -62.968476163894188 -63.330580932102762 0 0 1 0 0 0 1 forward_v I I I I #
coedge $-1 $320 $321 $226 $322 forward $135 $-1 #
coedge $-1 $323 $137 $321 $324 forward $85 $-1 #
coedge $-1 $137 $323 $229 $325 forward $85 $-1 #
edge $-1 $232 60.091437022755869 $326 65.845515305032507 $137 $327 forward 7 unknown #
coedge $-1 $139 $138 $222 $322 reversed $54 $-1 #
coedge $-1 $328 $329 $138 $228 forward $330 $-1 #
edge $-1 $331 -65.845515305032507 $233 -60.091437022755869 $227 $332 forward 7 unknown #
coedge $-1 $333 $140 $224 $325 reversed $231 $-1 #
coedge $-1 $140 $333 $328 $334 reversed $231 $-1 #
loop $-1 $-1 $333 $219 #
vertex $-1 $225 $335 #
vertex $-1 $334 $336 #
straight-curve $-1 -60.091437022755869 -39.783013541058097 0 0 0 -1 I I #
face $-1 $-1 $337 $32 $-1 $338 reversed single #
loop $-1 $-1 $148 $142 #
plane-surface $-1 0 0 19.764752822542157 0 0 1 1 0 0 forward_v I I I I #
coedge $-1 $339 $340 $341 $342 reversed $143 $-1 #
coedge $-1 $343 $145 $147 $245 forward $89 $-1 #
coedge $-1 $145 $343 $339 $344 forward $89 $-1 #
coedge $-1 $341 $148 $145 $242 forward $236 $-1 #
edge $-1 $248 -3.5651384603282938 $345 12.012010253451724 $241 $346 forward 7 unknown #
coedge $-1 $347 $348 $146 $244 forward $337 $-1 #
edge $-1 $349 -86.384435307741526 $247 -79.069815093730483 $243 $350 forward 7 unknown #
edge $-1 $248 122.27887317903432 $349 131.69103061006504 $147 $351 forward 7 unknown #
coedge $-1 $148 $341 $347 $352 forward $236 $-1 #
vertex $-1 $244 $353 #
vertex $-1 $149 $354 #
straight-curve $-1 42.656409729008374 -0.65829743623342019 19.764752822542164 -1 0 0 I I #
coedge $-1 $250 $250 $-1 $355 reversed $152 $-1 #
edge $-1 $356 0 $356 6.2831853071796004 $153 $357 forward 7 unknown #
vertex $-1 $156 $358 #
ellipse-curve $-1 62.883884055565076 -13.120016407257431 16.107442715536656 0.77714596973225614 0 0.62932038083071107 0.9439805712460666 0 -1.1657189545983841 1 I I #
coedge $-1 $254 $254 $-1 $359 reversed $159 $-1 #
edge $-1 $360 0 $360 6.2831853071796004 $160 $361 forward 7 unknown #
vertex $-1 $163 $362 #
ellipse-curve $-1 62.883884055565076 -8.4468717931234245 16.107442715536656 0.77714596973225614 0 0.62932038083071107 0.9439805712460666 0 -1.1657189545983841 1 I I #
coedge $-1 $258 $258 $-1 $363 reversed $166 $-1 #
edge $-1 $364 0 $364 6.2831853071796004 $167 $365 forward 7 unknown #
vertex $-1 $170 $366 #
ellipse-curve $-1 62.883884055565076 -3.773727178989418 16.107442715536656 0.77714596973225614 0 0.62932038083071107 0.9439805712460666 0 -1.1657189545983841 1 I I #
face $-1 $-1 $274 $36 $-1 $367 forward single #
loop $-1 $-1 $368 $171 #
plane-surface $-1 -65.845515305032507 0 0 1 0 0 0 0 -1 forward_v I I I I #
coedge $-1 $369 $370 $371 $372 reversed $172 $-1 #
coedge $-1 $373 $174 $176 $272 forward $108 $-1 #
coedge $-1 $174 $373 $369 $374 forward $108 $-1 #
coedge $-1 $371 $177 $174 $269 forward $274 $-1 #
edge $-1 $276 -12.012010253451724 $375 3.5651384603282938 $268 $376 forward 7 unknown #
coedge $-1 $377 $378 $175 $271 forward $263 $-1 #
edge $-1 $379 -35.212858463491933 $275 -27.89823824948089 $270 $380 forward 7 unknown #
edge $-1 $276 -9.4121574310306944 $379 4.5496132173526324e-014 $176 $381 forward 7 unknown #
coedge $-1 $177 $371 $377 $382 forward $274 $-1 #
loop $-1 $-1 $371 $262 #
vertex $-1 $271 $383 #
vertex $-1 $178 $384 #
straight-curve $-1 -84.094334496765839 -16.235446150013438 19.764752822542157 1 0 0 I I #
coedge $-1 $278 $278 $-1 $385 reversed $181 $-1 #
edge $-1 $386 0 $386 6.2831853071796004 $182 $387 forward 7 unknown #
vertex $-1 $185 $388 #
ellipse-curve $-1 -62.883884055565069 -13.120016407257431 16.107442715536639 -0.77714596973225614 0 0.62932038083071107 0.9439805712460666 0 1.1657189545983841 1 I I #
coedge $-1 $282 $282 $-1 $389 reversed $188 $-1 #
edge $-1 $390 0 $390 6.2831853071796004 $189 $391 forward 7 unknown #
vertex $-1 $192 $392 #
ellipse-curve $-1 -62.883884055565069 -8.4468717931234245 16.107442715536639 -0.77714596973225614 0 0.62932038083071107 0.9439805712460666 0 1.1657189545983841 1 I I #
coedge $-1 $286 $286 $-1 $393 reversed $195 $-1 #
edge $-1 $394 0 $394 6.2831853071796004 $196 $395 forward 7 unknown #
vertex $-1 $199 $396 #
ellipse-curve $-1 -62.883884055565069 -3.773727178989418 16.107442715536639 -0.77714596973225614 0 0.62932038083071107 0.9439805712460666 0 1.1657189545983841 1 I I #
face $-1 $-1 $215 $30 $-1 $397 reversed single #
loop $-1 $-1 $306 $200 #
plane-surface $-1 0 39.783013541058097 0 0 -1 0 0 0 -1 forward_v I I I I #
coedge $-1 $398 $304 $307 $399 forward $201 $-1 #
coedge $-1 $310 $203 $204 $298 reversed $127 $-1 #
coedge $-1 $304 $398 $203 $296 reversed $201 $-1 #
edge $-1 $311 -19.764752822542157 $400 19.764752822542157 $295 $401 forward 7 unknown #
coedge $-1 $205 $204 $398 $402 forward $81 $-1 #
edge $-1 $302 -65.845515305032507 $400 65.845515305032507 $294 $403 forward 7 unknown #
coedge $-1 $307 $306 $205 $300 reversed $291 $-1 #
edge $-1 $404 -65.845515305032507 $301 65.845515305032507 $299 $405 forward 7 unknown #
vertex $-1 $207 $406 #
vertex $-1 $313 $407 #
straight-curve $-1 65.845515305032507 0 -19.764752822542157 0 -1 0 I I #
coedge $-1 $293 $295 $208 $305 reversed $201 $-1 #
edge $-1 $308 -39.783013541058097 $311 39.783013541058097 $304 $408 forward 7 unknown #
coedge $-1 $299 $209 $214 $314 forward $291 $-1 #
coedge $-1 $209 $299 $293 $399 reversed $291 $-1 #
vertex $-1 $210 $409 #
straight-curve $-1 0 39.783013541058097 19.764752822542157 -1 0 0 I I #
coedge $-1 $211 $294 $213 $313 reversed $127 $-1 #
vertex $-1 $305 $410 #
straight-curve $-1 0 -39.783013541058097 19.764752822542157 1 0 0 I I #
edge $-1 $216 -19.764752822542157 $302 19.764752822542157 $213 $411 forward 7 unknown #
edge $-1 $217 -19.764752822542157 $301 19.764752822542157 $214 $412 forward 7 unknown #
point $-1 65.845515305032507 -39.783013541058097 19.764752822542157 #
point $-1 65.845515305032507 39.783013541058097 19.764752822542157 #
face $-1 $-1 $330 $31 $-1 $413 reversed single #
plane-surface $-1 -60.091437022755869 -51.556797236580429 0 -1 0 0 0 0 1 forward_v I I I I #
coedge $-1 $414 $415 $416 $417 forward $220 $-1 #
coedge $-1 $416 $222 $329 $418 reversed $135 $-1 #
coedge $-1 $222 $416 $223 $324 reversed $135 $-1 #
edge $-1 $326 -19.764752822542157 $331 19.764752822542157 $222 $419 forward 7 unknown #
coedge $-1 $224 $223 $415 $420 forward $85 $-1 #
edge $-1 $326 39.783013541058097 $421 63.330580932102762 $321 $422 forward 7 unknown #
edge $-1 $423 -11.773783695522333 $232 11.773783695522333 $229 $424 forward 7 unknown #
vertex $-1 $324 $425 #
straight-curve $-1 0 -39.783013541058097 19.764752822542157 -1 0 0 I I #
coedge $-1 $426 $227 $230 $334 forward $330 $-1 #
coedge $-1 $227 $426 $320 $418 forward $330 $-1 #
loop $-1 $-1 $227 $317 #
vertex $-1 $322 $427 #
straight-curve $-1 0 -39.783013541058097 -19.764752822542157 1 0 0 I I #
coedge $-1 $230 $229 $428 $429 forward $231 $-1 #
edge $-1 $233 -11.773783695522333 $430 11.773783695522333 $230 $431 forward 7 unknown #
point $-1 -60.091437022755869 -39.783013541058097 19.764752822542157 #
point $-1 -60.091437022755869 -39.783013541058097 -19.764752822542157 #
loop $-1 $-1 $243 $235 #
plane-surface $-1 65.845515305032507 0 0 -1 0 0 0 0 1 forward_v I I I I #
coedge $-1 $340 $238 $240 $344 reversed $143 $-1 #
coedge $-1 $238 $339 $432 $433 reversed $143 $-1 #
coedge $-1 $246 $241 $238 $342 forward $236 $-1 #
edge $-1 $345 17.265843077089286 $434 23.189105576024133 $341 $435 forward 7 unknown #
coedge $-1 $240 $239 $348 $436 reversed $89 $-1 #
edge $-1 $437 -131.69103061006504 $345 -122.27887317903432 $339 $438 forward 7 unknown #
vertex $-1 $242 $439 #
straight-curve $-1 59.922252806097646 -4.223435896561714 19.764752822542157 0 -1 0 I I #
coedge $-1 $432 $243 $246 $352 reversed $337 $-1 #
coedge $-1 $243 $432 $343 $436 forward $337 $-1 #
vertex $-1 $244 $440 #
straight-curve $-1 65.845515305032507 -0.65829743623342019 98.834567916272647 0 0 1 I I #
straight-curve $-1 -17.030334230482453 -0.65829743623342019 114.79328629703035 0.62932038083071107 0 -0.77714596973225614 I I #
edge $-1 $434 -16.235446150013438 $247 -0.65829743623342019 $347 $441 forward 7 unknown #
point $-1 65.845515305032507 -0.65829743623342019 19.764752822542157 #
point $-1 59.92225280609766 -0.65829743623342019 19.76475282254215 #
edge $-1 $442 1 $442 0 $250 $-1 forward 7 unknown #
vertex $-1 $251 $443 #
ellipse-curve $-1 60.613103234828969 -13.120016407257431 14.26860071345941 0.77714596973225614 0 0.62932038083071107 0.9439805712460666 0 -1.1657189545983841 1 I I #
point $-1 63.827864626811149 -13.120016407257431 14.941723760938276 #
edge $-1 $444 1 $444 0 $254 $-1 forward 7 unknown #
vertex $-1 $255 $445 #
ellipse-curve $-1 60.613103234828969 -8.4468717931234245 14.26860071345941 0.77714596973225614 0 0.62932038083071107 0.9439805712460666 0 -1.1657189545983841 1 I I #
point $-1 63.827864626811149 -8.4468717931234245 14.941723760938276 #
edge $-1 $446 1 $446 0 $258 $-1 forward 7 unknown #
vertex $-1 $259 $447 #
ellipse-curve $-1 60.613103234828969 -3.773727178989418 14.26860071345941 0.77714596973225614 0 0.62932038083071107 0.9439805712460666 0 -1.1657189545983841 1 I I #
point $-1 63.827864626811149 -3.773727178989418 14.941723760938276 #
plane-surface $-1 0 0 19.764752822542157 0 0 1 1 0 0 forward_v I I I I #
coedge $-1 $378 $377 $370 $448 forward $263 $-1 #
coedge $-1 $370 $265 $267 $374 reversed $172 $-1 #
coedge $-1 $265 $369 $368 $448 reversed $172 $-1 #
coedge $-1 $273 $268 $265 $372 forward $274 $-1 #
edge $-1 $375 -24.172081690668207 $449 -18.248819191733332 $371 $450 forward 7 unknown #
coedge $-1 $267 $266 $378 $451 reversed $108 $-1 #
edge $-1 $452 -4.5496132173526324e-014 $375 9.4121574310306944 $369 $453 forward 7 unknown #
vertex $-1 $269 $454 #
straight-curve $-1 -59.922252806097632 -4.223435896561714 19.764752822542157 0 1 0 I I #
coedge $-1 $368 $270 $273 $382 reversed $263 $-1 #
coedge $-1 $270 $368 $373 $451 forward $263 $-1 #
vertex $-1 $271 $455 #
straight-curve $-1 -65.845515305032507 -16.235446150013438 47.662991072023047 0 0 1 I I #
straight-curve $-1 -65.845515305032478 -16.235446150013438 12.450132608531149 -0.62932038083071107 0 -0.77714596973225614 I I #
edge $-1 $449 0.65829743623342019 $275 16.235446150013438 $377 $456 forward 7 unknown #
point $-1 -65.845515305032507 -16.235446150013438 19.764752822542157 #
point $-1 -59.922252806097632 -16.235446150013438 19.764752822542157 #
edge $-1 $457 1 $457 0 $278 $-1 forward 7 unknown #
vertex $-1 $279 $458 #
ellipse-curve $-1 -60.613103234828984 -13.120016407257431 14.26860071345941 -0.77714596973225614 0 0.62932038083071107 0.9439805712460666 0 1.1657189545983841 1 I I #
point $-1 -61.939903484319032 -13.120016407257431 17.273161670135046 #
edge $-1 $459 1 $459 0 $282 $-1 forward 7 unknown #
vertex $-1 $283 $460 #
ellipse-curve $-1 -60.613103234828984 -8.4468717931234245 14.26860071345941 -0.77714596973225614 0 0.62932038083071107 0.9439805712460666 0 1.1657189545983841 1 I I #
point $-1 -61.939903484319032 -8.4468717931234245 17.273161670135046 #
edge $-1 $461 1 $461 0 $286 $-1 forward 7 unknown #
vertex $-1 $287 $462 #
ellipse-curve $-1 -60.613103234828984 -3.773727178989418 14.26860071345941 -0.77714596973225614 0 0.62932038083071107 0.9439805712460666 0 1.1657189545983841 1 I I #
point $-1 -61.939903484319032 -3.773727178989418 17.273161670135046 #
plane-surface $-1 65.845515305032507 0 0 -1 0 0 0 0 1 forward_v I I I I #
coedge $-1 $295 $293 $297 $402 reversed $201 $-1 #
edge $-1 $308 -19.764752822542157 $404 19.764752822542157 $307 $463 forward 7 unknown #
vertex $-1 $402 $464 #
straight-curve $-1 -65.845515305032507 -39.783013541058097 0 0 0 -1 I I #
edge $-1 $400 -39.783013541058097 $404 39.783013541058097 $398 $465 forward 7 unknown #
straight-curve $-1 0 -39.783013541058097 -19.764752822542157 -1 0 0 I I #
vertex $-1 $300 $466 #
straight-curve $-1 0 39.783013541058097 -19.764752822542157 1 0 0 I I #
point $-1 65.845515305032507 39.783013541058097 -19.764752822542157 #
point $-1 65.845515305032507 -39.783013541058097 -19.764752822542157 #
straight-curve $-1 -65.845515305032507 0 19.764752822542157 0 -1 0 I I #
point $-1 -65.845515305032507 39.783013541058097 19.764752822542157 #
point $-1 -65.845515305032507 -39.783013541058097 19.764752822542157 #
straight-curve $-1 65.845515305032507 -39.783013541058097 0 0 0 -1 I I #
straight-curve $-1 65.845515305032507 39.783013541058097 0 0 0 -1 I I #
plane-surface $-1 0 0 -19.764752822542157 0 0 1 1 0 0 forward_v I I I I #
coedge $-1 $428 $319 $426 $467 reversed $220 $-1 #
coedge $-1 $319 $428 $323 $420 reversed $220 $-1 #
coedge $-1 $321 $320 $319 $417 reversed $135 $-1 #
edge $-1 $421 -19.764752822542157 $468 19.764752822542157 $416 $469 forward 7 unknown #
edge $-1 $468 -63.330580932102762 $331 -39.783013541058097 $320 $470 forward 7 unknown #
straight-curve $-1 -65.845515305032507 -39.783013541058097 0 0 0 -1 I I #
edge $-1 $421 -2.8770391411383187 $423 2.8770391411383187 $415 $471 forward 7 unknown #
vertex $-1 $324 $472 #
straight-curve $-1 -65.845515305032507 0 19.764752822542157 0 -1 0 I I #
vertex $-1 $325 $473 #
straight-curve $-1 -60.091437022755869 -51.556797236580429 19.764752822542157 0 1 0 I I #
point $-1 -65.845515305032507 -39.783013541058097 19.764752822542157 #
coedge $-1 $329 $328 $414 $467 forward $330 $-1 #
point $-1 -65.845515305032507 -39.783013541058097 -19.764752822542157 #
coedge $-1 $415 $414 $333 $429 reversed $220 $-1 #
edge $-1 $423 -19.764752822542157 $430 19.764752822542157 $333 $474 forward 7 unknown #
vertex $-1 $429 $475 #
straight-curve $-1 -60.091437022755869 -51.556797236580429 -19.764752822542157 0 -1 0 I I #
coedge $-1 $348 $347 $340 $433 forward $337 $-1 #
edge $-1 $434 79.069815093730483 $437 86.384435307741526 $432 $476 forward 7 unknown #
vertex $-1 $352 $477 #
straight-curve $-1 42.656409729008374 -16.235446150013438 19.764752822542164 1 0 0 I I #
edge $-1 $437 -12.012010253451724 $349 3.5651384603282938 $348 $478 forward 7 unknown #
vertex $-1 $436 $479 #
straight-curve $-1 -17.030334230482453 -16.235446150013438 114.79328629703035 -0.62932038083071107 0 0.77714596973225614 I I #
point $-1 59.92225280609766 -16.235446150013438 19.76475282254215 #
point $-1 65.845515305032507 -0.65829743623342019 12.450132608531121 #
straight-curve $-1 65.845515305032507 0 19.764752822542157 0 1 0 I I #
vertex $-1 $355 $480 #
point $-1 61.557083806075035 -13.120016407257431 13.102881758861027 #
vertex $-1 $359 $481 #
point $-1 61.557083806075035 -8.4468717931234245 13.102881758861027 #
vertex $-1 $363 $482 #
point $-1 61.557083806075035 -3.773727178989418 13.102881758861027 #
edge $-1 $449 27.89823824948089 $452 35.212858463491933 $368 $483 forward 7 unknown #
vertex $-1 $382 $484 #
straight-curve $-1 -84.094334496765839 -0.65829743623342019 19.764752822542157 -1 0 0 I I #
edge $-1 $452 -3.5651384603282938 $379 12.012010253451724 $378 $485 forward 7 unknown #
vertex $-1 $451 $486 #
straight-curve $-1 -65.845515305032478 -0.65829743623342019 12.450132608531149 0.62932038083071107 0 0.77714596973225614 I I #
point $-1 -59.922252806097632 -0.65829743623342019 19.764752822542157 #
point $-1 -65.845515305032507 -16.235446150013438 12.450132608531113 #
straight-curve $-1 -65.845515305032507 0 19.764752822542157 0 -1 0 I I #
vertex $-1 $385 $487 #
point $-1 -59.669122663582911 -13.120016407257431 15.434319668057794 #
vertex $-1 $389 $488 #
point $-1 -59.669122663582911 -8.4468717931234245 15.434319668057794 #
vertex $-1 $393 $489 #
point $-1 -59.669122663582911 -3.773727178989418 15.434319668057794 #
straight-curve $-1 -65.845515305032507 39.783013541058097 0 0 0 -1 I I #
point $-1 -65.845515305032507 -39.783013541058097 -19.764752822542157 #
straight-curve $-1 -65.845515305032507 0 -19.764752822542157 0 1 0 I I #
point $-1 -65.845515305032507 39.783013541058097 -19.764752822542157 #
edge $-1 $430 -2.8770391411383187 $468 2.8770391411383187 $414 $490 forward 7 unknown #
vertex $-1 $418 $491 #
straight-curve $-1 -65.845515305032507 -63.330580932102762 0 0 0 -1 I I #
straight-curve $-1 -65.845515305032507 0 -19.764752822542157 0 1 0 I I #
straight-curve $-1 -62.968476163894188 -63.330580932102762 19.764752822542157 1 0 0 I I #
point $-1 -65.845515305032507 -63.330580932102762 19.764752822542157 #
point $-1 -60.091437022755869 -63.330580932102762 19.764752822542157 #
straight-curve $-1 -60.091437022755869 -63.330580932102762 0 0 0 -1 I I #
point $-1 -60.091437022755869 -63.330580932102762 -19.764752822542157 #
straight-curve $-1 65.845515305032507 -16.235446150013438 98.834567916272647 0 0 -1 I I #
point $-1 65.845515305032507 -16.235446150013438 19.764752822542157 #
straight-curve $-1 65.845515305032507 -4.223435896561714 12.450132608531121 0 1 0 I I #
point $-1 65.845515305032507 -16.235446150013438 12.450132608531121 #
point $-1 59.44738428023058 -13.120016407257431 13.324620142213345 #
point $-1 59.44738428023058 -8.4468717931234245 13.324620142213345 #
point $-1 59.44738428023058 -3.773727178989418 13.324620142213345 #
straight-curve $-1 -65.845515305032507 -0.65829743623342019 47.662991072023047 0 0 -1 I I #
point $-1 -65.845515305032507 -0.65829743623342019 19.764752822542157 #
straight-curve $-1 -65.845515305032507 -4.223435896561714 12.45013260853111 0 -1 0 I I #
point $-1 -65.845515305032507 -0.65829743623342019 12.450132608531113 #
point $-1 -59.447384280230594 -13.120016407257431 13.324620142213345 #
point $-1 -59.447384280230594 -8.4468717931234245 13.324620142213345 #
point $-1 -59.447384280230594 -3.773727178989418 13.324620142213345 #
straight-curve $-1 -62.968476163894188 -63.330580932102762 -19.764752822542157 -1 0 0 I I #
point $-1 -65.845515305032507 -63.330580932102762 -19.764752822542157 #
End-of-ACIS-data 