500 0 7 0           
7 Unknown 11 ACIS 5.0 NT 24 Fri Mar 26 03:25:56 1999 
-1 9.9999999999999995e-007 1e-010 
body $-1 $7 $-1 $8 #
body $-1 $9 $-1 $10 #
body $-1 $11 $-1 $12 #
body $-1 $13 $-1 $14 #
body $-1 $15 $-1 $16 #
body $-1 $17 $-1 $18 #
body $-1 $19 $-1 $20 #
lump $-1 $-1 $21 $0 #
transform $-1 1 0 0 0 1 0 0 0 1 65.631885738700518 33.550638620836672 14.344953520739148 1 rotate no_reflect no_shear #
lump $-1 $-1 $22 $1 #
transform $-1 1 0 0 0 1 0 0 0 1 65.631885738700518 33.550638620836672 14.344953520739148 1 rotate no_reflect no_shear #
lump $-1 $-1 $23 $2 #
transform $-1 1 0 0 0 1 0 0 0 1 65.631885738700518 33.550638620836672 14.344953520739148 1 rotate no_reflect no_shear #
lump $-1 $-1 $24 $3 #
transform $-1 1 0 0 0 1 0 0 0 1 65.631885738700518 33.550638620836672 14.344953520739148 1 rotate no_reflect no_shear #
lump $-1 $-1 $25 $4 #
transform $-1 1 0 0 0 1 0 0 0 1 65.631885738700518 33.550638620836672 14.344953520739148 1 rotate no_reflect no_shear #
lump $-1 $-1 $26 $5 #
transform $-1 1 0 0 0 1 0 0 0 1 65.631885738700518 33.550638620836672 14.344953520739148 1 rotate no_reflect no_shear #
lump $-1 $-1 $27 $6 #
transform $-1 1 0 0 0 1 0 0 0 1 65.631885738700518 33.550638620836672 14.344953520739148 1 rotate no_reflect no_shear #
shell $-1 $-1 $-1 $28 $-1 $7 #
shell $-1 $-1 $-1 $29 $-1 $9 #
shell $-1 $-1 $-1 $30 $-1 $11 #
shell $-1 $-1 $-1 $31 $-1 $13 #
shell $-1 $-1 $-1 $32 $-1 $15 #
shell $-1 $-1 $-1 $33 $-1 $17 #
shell $-1 $-1 $-1 $34 $-1 $19 #
face $-1 $35 $36 $21 $-1 $37 forward single #
face $-1 $38 $39 $22 $-1 $40 reversed single #
face $-1 $41 $42 $23 $-1 $43 reversed single #
face $-1 $44 $45 $24 $-1 $46 forward single #
face $-1 $47 $48 $25 $-1 $49 reversed single #
face $-1 $50 $51 $26 $-1 $52 forward single #
face $-1 $53 $54 $27 $-1 $55 forward single #
face $-1 $56 $57 $21 $-1 $58 reversed single #
loop $-1 $-1 $59 $28 #
plane-surface $-1 0 0 14.344953520739148 0 0 1 1 0 0 forward_v I I I I #
face $-1 $60 $61 $22 $-1 $62 reversed single #
loop $-1 $-1 $63 $29 #
plane-surface $-1 -57.690104097693286 -20.740952839058263 0 0 1 0 0 0 1 forward_v I I I I #
face $-1 $64 $65 $23 $-1 $66 reversed single #
loop $-1 $-1 $67 $30 #
plane-surface $-1 57.290967492818325 -33.550638620836679 8.1063080776716134 0 -0.81915205242281985 0.57357642473473569 1 0 0 forward_v I I I I #
face $-1 $68 $69 $24 $-1 $70 forward single #
loop $-1 $71 $72 $31 #
cone-surface $-1 57.290967492818311 -30.900490956756308 10.89935198915737 0 0.81915205242281985 -0.57357642473473569 1 0 0 1 I I 0 1 1 forward I I I I #
face $-1 $73 $74 $25 $-1 $75 reversed single #
loop $-1 $-1 $76 $32 #
plane-surface $-1 56.425800796031723 -13.897128992513899 55.369535630928453 0 0.70710678939079041 0.70710677298230451 1 0 0 forward_v I I I I #
face $-1 $77 $78 $26 $-1 $79 forward single #
loop $-1 $80 $81 $33 #
cone-surface $-1 52.480335820602235 28.988082340919881 9.7823971976462367 0 -0.70710678939079041 -0.70710677298230451 1 0 0 1 I I 0 1 1 forward I I I I #
face $-1 $82 $83 $27 $-1 $84 forward single #
loop $-1 $85 $86 $34 #
cone-surface $-1 60.371265771461211 28.988082340919881 9.7823971976462367 0 -0.70710678939079041 -0.70710677298230451 1 0 0 1 I I 0 1 1 forward I I I I #
face $-1 $87 $88 $21 $-1 $89 reversed single #
loop $-1 $-1 $90 $35 #
plane-surface $-1 0 0 -14.344953520739148 0 0 1 1 0 0 forward_v I I I I #
coedge $-1 $91 $92 $93 $94 forward $36 $-1 #
face $-1 $95 $96 $22 $-1 $97 reversed single #
loop $-1 $-1 $98 $38 #
plane-surface $-1 -57.690104097693286 -12.893978264137377 0 0 -1 0 0 0 -1 forward_v I I I I #
coedge $-1 $99 $100 $101 $102 reversed $39 $-1 #
face $-1 $103 $104 $23 $-1 $105 reversed single #
loop $-1 $-1 $106 $41 #
plane-surface $-1 48.950049246936125 -141.07562643530974 83.396112818876674 1 0 0 0 0.81915205242281985 -0.57357642473473569 forward_v I I I I #
coedge $-1 $107 $108 $109 $110 reversed $42 $-1 #
face $-1 $-1 $111 $24 $-1 $112 forward single #
loop $-1 $113 $114 $44 #
cone-surface $-1 57.290967492818311 -30.024940484268608 10.286284966741993 0 0.81915205242281985 -0.57357642473473569 0.5 0 0 1 I I -0.70710678118654746 0.70710678118654746 0.5 forward I I I I #
loop $-1 $-1 $115 $31 #
coedge $-1 $72 $72 $116 $117 reversed $45 $-1 #
face $-1 $118 $119 $25 $-1 $120 reversed single #
loop $-1 $-1 $121 $47 #
plane-surface $-1 47.219715853362928 78.920375020197554 148.18703748980016 1 0 0 0 -0.70710678939079041 -0.70710677298230451 forward_v I I I I #
coedge $-1 $122 $123 $124 $125 reversed $48 $-1 #
face $-1 $-1 $126 $26 $-1 $127 forward single #
loop $-1 $128 $129 $50 #
cone-surface $-1 52.480335820602235 27.283565893878176 8.0778807901580105 0 -0.70710678939079041 -0.70710677298230451 0.5 0 0 1 I I -0.70710678118654879 0.70710678118654635 0.5 forward I I I I #
loop $-1 $-1 $130 $33 #
coedge $-1 $81 $81 $131 $132 reversed $51 $-1 #
face $-1 $-1 $133 $27 $-1 $134 forward single #
loop $-1 $135 $136 $53 #
cone-surface $-1 60.371265771461211 27.283565893878176 8.0778807901580105 0 -0.70710678939079041 -0.70710677298230451 0.5 0 0 1 I I -0.70710678118654879 0.70710678118654635 0.5 forward I I I I #
loop $-1 $-1 $137 $34 #
coedge $-1 $86 $86 $138 $139 reversed $54 $-1 #
face $-1 $140 $141 $21 $-1 $142 reversed single #
loop $-1 $-1 $143 $56 #
plane-surface $-1 0 -33.550638620836672 0 0 1 0 0 0 1 forward_v I I I I #
coedge $-1 $144 $145 $146 $147 forward $57 $-1 #
coedge $-1 $148 $59 $149 $150 forward $36 $-1 #
coedge $-1 $59 $148 $151 $152 forward $36 $-1 #
coedge $-1 $153 $154 $59 $94 reversed $155 $-1 #
edge $-1 $156 -33.550638620836672 $157 33.550638620836672 $93 $158 forward 7 unknown #
face $-1 $159 $160 $22 $-1 $161 reversed single #
loop $-1 $-1 $162 $60 #
plane-surface $-1 -49.748322456686054 -16.81746555159782 0 -1 0 0 0 0 1 forward_v I I I I #
coedge $-1 $163 $164 $165 $166 forward $61 $-1 #
coedge $-1 $167 $63 $168 $169 reversed $39 $-1 #
coedge $-1 $63 $167 $170 $171 reversed $39 $-1 #
coedge $-1 $172 $173 $63 $102 forward $174 $-1 #
edge $-1 $175 -14.344953520739148 $176 14.344953520739148 $101 $177 forward 7 unknown #
face $-1 $178 $179 $23 $-1 $180 forward single #
loop $-1 $-1 $181 $64 #
plane-surface $-1 0 -33.550638620836672 0 0 1 0 0 0 1 forward_v I I I I #
coedge $-1 $182 $183 $184 $185 reversed $65 $-1 #
coedge $-1 $186 $67 $187 $188 reversed $42 $-1 #
coedge $-1 $67 $186 $182 $189 forward $42 $-1 #
coedge $-1 $184 $190 $67 $110 forward $179 $-1 #
edge $-1 $191 -36.98640199229137 $192 -20.304565500526962 $109 $193 forward 7 unknown #
loop $-1 $-1 $116 $68 #
plane-surface $-1 57.290967492818325 -33.550638620836679 8.1063080776716134 0 -0.81915205242281985 0.57357642473473569 1 0 0 forward_v I I I I #
loop $-1 $-1 $194 $44 #
coedge $-1 $114 $114 $115 $195 reversed $69 $-1 #
coedge $-1 $115 $115 $114 $195 forward $71 $-1 #
coedge $-1 $116 $116 $72 $117 forward $111 $-1 #
edge $-1 $196 1.165292918325106e-015 $196 6.2831853071796013 $116 $197 forward 7 unknown #
face $-1 $198 $199 $25 $-1 $200 reversed single #
loop $-1 $-1 $201 $73 #
plane-surface $-1 65.631885738700518 0 0 -1 0 0 0 0 1 forward_v I I I I #
coedge $-1 $202 $203 $204 $205 reversed $74 $-1 #
coedge $-1 $206 $76 $201 $207 reversed $48 $-1 #
coedge $-1 $76 $206 $202 $208 forward $48 $-1 #
coedge $-1 $204 $209 $76 $125 forward $199 $-1 #
edge $-1 $210 -37.418985340684657 $211 -19.006815455347066 $124 $212 forward 7 unknown #
loop $-1 $-1 $131 $77 #
plane-surface $-1 56.425800796031723 -13.897128992513899 55.369535630928453 0 0.70710678939079041 0.70710677298230451 1 0 0 forward_v I I I I #
loop $-1 $-1 $213 $50 #
coedge $-1 $129 $129 $130 $214 reversed $78 $-1 #
coedge $-1 $130 $130 $129 $214 forward $80 $-1 #
coedge $-1 $131 $131 $81 $132 forward $126 $-1 #
edge $-1 $215 1.2560743312885953e-015 $215 6.2831853071796013 $131 $216 forward 7 unknown #
loop $-1 $-1 $138 $82 #
plane-surface $-1 56.425800796031723 -13.897128992513899 55.369535630928453 0 0.70710678939079041 0.70710677298230451 1 0 0 forward_v I I I I #
loop $-1 $-1 $217 $53 #
coedge $-1 $136 $136 $137 $218 reversed $83 $-1 #
coedge $-1 $137 $137 $136 $218 forward $85 $-1 #
coedge $-1 $138 $138 $86 $139 forward $133 $-1 #
edge $-1 $219 1.2560743312885953e-015 $219 6.2831853071796013 $138 $220 forward 7 unknown #
face $-1 $221 $222 $21 $-1 $223 reversed single #
loop $-1 $-1 $224 $87 #
plane-surface $-1 -65.631885738700518 0 0 1 0 0 0 0 -1 forward_v I I I I #
coedge $-1 $225 $151 $226 $227 forward $88 $-1 #
coedge $-1 $228 $90 $225 $229 forward $57 $-1 #
coedge $-1 $90 $228 $230 $231 forward $57 $-1 #
coedge $-1 $154 $153 $90 $147 reversed $155 $-1 #
edge $-1 $232 -33.550638620836672 $233 33.550638620836672 $146 $234 forward 7 unknown #
coedge $-1 $92 $91 $235 $236 forward $36 $-1 #
coedge $-1 $237 $238 $91 $150 reversed $222 $-1 #
edge $-1 $157 -65.631885738700518 $239 65.631885738700518 $149 $240 forward 7 unknown #
coedge $-1 $143 $241 $92 $152 reversed $88 $-1 #
edge $-1 $242 -65.631885738700518 $156 65.631885738700518 $151 $243 forward 7 unknown #
coedge $-1 $146 $93 $241 $244 forward $155 $-1 #
coedge $-1 $93 $146 $237 $245 reversed $155 $-1 #
loop $-1 $-1 $153 $221 #
vertex $-1 $94 $246 #
vertex $-1 $94 $247 #
straight-curve $-1 65.631885738700518 0 14.344953520739148 0 1 0 I I #
face $-1 $248 $249 $22 $-1 $250 forward single #
loop $-1 $-1 $251 $95 #
plane-surface $-1 0 0 -14.344953520739148 0 0 1 1 0 0 forward_v I I I I #
coedge $-1 $252 $253 $167 $254 forward $96 $-1 #
coedge $-1 $255 $98 $251 $256 reversed $61 $-1 #
coedge $-1 $98 $255 $257 $258 reversed $61 $-1 #
coedge $-1 $253 $252 $98 $166 reversed $96 $-1 #
edge $-1 $259 -14.344953520739148 $260 14.344953520739148 $165 $261 forward 7 unknown #
coedge $-1 $100 $99 $162 $254 reversed $39 $-1 #
coedge $-1 $262 $263 $99 $169 forward $160 $-1 #
edge $-1 $264 20.903270407839411 $175 36.786833689853879 $168 $265 forward 7 unknown #
coedge $-1 $266 $267 $100 $171 forward $249 $-1 #
edge $-1 $176 -36.786833689853879 $268 -20.903270407839411 $170 $269 forward 7 unknown #
coedge $-1 $270 $101 $267 $271 reversed $174 $-1 #
coedge $-1 $101 $270 $262 $272 reversed $174 $-1 #
loop $-1 $-1 $270 $248 #
vertex $-1 $272 $273 #
vertex $-1 $102 $274 #
straight-curve $-1 -65.631885738700518 -20.740952839058263 0 0 0 1 I I #
face $-1 $-1 $275 $23 $-1 $276 reversed single #
loop $-1 $-1 $184 $103 #
plane-surface $-1 0 0 14.344953520739148 0 0 1 1 0 0 forward_v I I I I #
coedge $-1 $277 $278 $183 $279 forward $104 $-1 #
coedge $-1 $183 $106 $108 $189 reversed $65 $-1 #
coedge $-1 $106 $182 $181 $279 reversed $65 $-1 #
coedge $-1 $280 $109 $106 $185 forward $179 $-1 #
edge $-1 $192 -41.355521032426346 $281 -36.9871745968182 $184 $282 forward 7 unknown #
coedge $-1 $108 $107 $277 $283 reversed $42 $-1 #
coedge $-1 $284 $285 $107 $188 forward $275 $-1 #
edge $-1 $286 -6.3017782241551172 $191 1.3142015254107637 $187 $287 forward 7 unknown #
edge $-1 $288 1.2806143724965335e-014 $192 7.615979749565895 $182 $289 forward 7 unknown #
coedge $-1 $109 $280 $284 $290 forward $179 $-1 #
vertex $-1 $188 $291 #
vertex $-1 $110 $292 #
straight-curve $-1 28.645483746409163 -29.182292185228526 14.344953520739148 -1 0 0 I I #
coedge $-1 $194 $194 $-1 $293 reversed $113 $-1 #
edge $-1 $294 0 $294 6.2831853071796004 $114 $295 forward 7 unknown #
vertex $-1 $117 $296 #
ellipse-curve $-1 57.290967492818311 -31.366465403032603 11.225630799205383 0 -0.81915205242281985 0.57357642473473569 1 0 0 1 I I #
face $-1 $-1 $297 $25 $-1 $298 forward single #
loop $-1 $-1 $124 $118 #
plane-surface $-1 0 33.550638620836672 0 0 -1 0 0 0 -1 forward_v I I I I #
coedge $-1 $299 $300 $122 $207 forward $119 $-1 #
coedge $-1 $203 $121 $123 $208 reversed $74 $-1 #
coedge $-1 $121 $202 $301 $302 reversed $74 $-1 #
coedge $-1 $303 $124 $121 $205 forward $199 $-1 #
edge $-1 $211 -66.171751828352555 $304 -59.748565224160934 $204 $305 forward 7 unknown #
coedge $-1 $123 $122 $306 $307 reversed $48 $-1 #
edge $-1 $308 33.528055434937045 $210 42.611812938843272 $201 $309 forward 7 unknown #
edge $-1 $310 58.01751973776711 $211 67.10127724167333 $202 $311 forward 7 unknown #
coedge $-1 $124 $303 $299 $312 forward $199 $-1 #
vertex $-1 $125 $313 #
vertex $-1 $125 $314 #
straight-curve $-1 28.212900398015861 33.550638620836672 7.9217669165475186 -1 0 0 I I #
coedge $-1 $213 $213 $-1 $315 reversed $128 $-1 #
edge $-1 $316 0 $316 6.2831853071796004 $129 $317 forward 7 unknown #
vertex $-1 $132 $318 #
ellipse-curve $-1 52.480335820602235 30.339045393266218 11.133360218643336 0 0.70710678939079041 0.70710677298230451 1 0 0 1 I I #
coedge $-1 $217 $217 $-1 $319 reversed $135 $-1 #
edge $-1 $320 0 $320 6.2831853071796004 $136 $321 forward 7 unknown #
vertex $-1 $139 $322 #
ellipse-curve $-1 60.371265771461211 30.339045393266218 11.133360218643336 0 0.70710678939079041 0.70710677298230451 1 0 0 1 I I #
face $-1 $-1 $155 $21 $-1 $323 reversed single #
loop $-1 $-1 $237 $140 #
plane-surface $-1 0 33.550638620836672 0 0 -1 0 0 0 -1 forward_v I I I I #
coedge $-1 $324 $235 $238 $325 forward $141 $-1 #
coedge $-1 $241 $143 $144 $229 reversed $88 $-1 #
coedge $-1 $235 $324 $143 $227 reversed $141 $-1 #
edge $-1 $242 -14.344953520739148 $326 14.344953520739148 $226 $327 forward 7 unknown #
coedge $-1 $145 $144 $324 $328 forward $57 $-1 #
edge $-1 $233 -65.631885738700518 $326 65.631885738700518 $225 $329 forward 7 unknown #
coedge $-1 $238 $237 $145 $231 reversed $222 $-1 #
edge $-1 $330 -65.631885738700518 $232 65.631885738700518 $230 $331 forward 7 unknown #
vertex $-1 $147 $332 #
vertex $-1 $244 $333 #
straight-curve $-1 65.631885738700518 0 -14.344953520739148 0 -1 0 I I #
coedge $-1 $224 $226 $148 $236 reversed $141 $-1 #
edge $-1 $239 -33.550638620836672 $242 33.550638620836672 $235 $334 forward 7 unknown #
coedge $-1 $230 $149 $154 $245 forward $222 $-1 #
coedge $-1 $149 $230 $224 $325 reversed $222 $-1 #
vertex $-1 $150 $335 #
straight-curve $-1 0 33.550638620836672 14.344953520739148 -1 0 0 I I #
coedge $-1 $151 $225 $153 $244 reversed $88 $-1 #
vertex $-1 $236 $336 #
straight-curve $-1 0 -33.550638620836672 14.344953520739148 1 0 0 I I #
edge $-1 $156 -14.344953520739148 $233 14.344953520739148 $153 $337 forward 7 unknown #
edge $-1 $157 -14.344953520739148 $232 14.344953520739148 $154 $338 forward 7 unknown #
point $-1 65.631885738700518 -33.550638620836672 14.344953520739148 #
point $-1 65.631885738700518 33.550638620836672 14.344953520739148 #
face $-1 $-1 $174 $22 $-1 $339 reversed single #
loop $-1 $-1 $257 $159 #
plane-surface $-1 0 0 14.344953520739148 0 0 1 1 0 0 forward_v I I I I #
coedge $-1 $263 $262 $163 $256 forward $160 $-1 #
coedge $-1 $165 $162 $263 $340 reversed $96 $-1 #
coedge $-1 $162 $165 $266 $341 reversed $96 $-1 #
edge $-1 $268 -14.344953520739148 $264 14.344953520739148 $162 $342 forward 7 unknown #
coedge $-1 $164 $163 $270 $343 reversed $61 $-1 #
edge $-1 $344 -36.786833689853879 $260 -20.903270407839411 $251 $345 forward 7 unknown #
coedge $-1 $267 $266 $164 $258 forward $249 $-1 #
edge $-1 $259 20.903270407839411 $346 36.786833689853879 $257 $347 forward 7 unknown #
vertex $-1 $258 $348 #
vertex $-1 $256 $349 #
straight-curve $-1 -49.748322456686054 -12.893978264137377 0 0 0 -1 I I #
coedge $-1 $251 $168 $173 $272 forward $160 $-1 #
coedge $-1 $168 $251 $252 $340 forward $160 $-1 #
vertex $-1 $169 $350 #
straight-curve $-1 -28.845052048846643 -20.740952839058263 -14.344953520739148 -1 0 0 I I #
coedge $-1 $257 $170 $253 $341 forward $249 $-1 #
coedge $-1 $170 $257 $172 $271 forward $249 $-1 #
vertex $-1 $171 $351 #
straight-curve $-1 -28.845052048846643 -20.740952839058263 14.344953520739148 1 0 0 I I #
coedge $-1 $173 $172 $255 $343 forward $174 $-1 #
edge $-1 $346 12.893978264137377 $176 20.740952839058263 $172 $352 forward 7 unknown #
edge $-1 $175 -20.740952839058263 $344 -12.893978264137377 $173 $353 forward 7 unknown #
point $-1 -65.631885738700518 -20.740952839058263 -14.344953520739148 #
point $-1 -65.631885738700518 -20.740952839058263 14.344953520739148 #
loop $-1 $-1 $187 $178 #
plane-surface $-1 65.631885738700518 0 0 -1 0 0 0 0 1 forward_v I I I I #
coedge $-1 $354 $181 $186 $283 forward $104 $-1 #
coedge $-1 $181 $354 $280 $355 reversed $104 $-1 #
edge $-1 $281 27.35310288869919 $288 33.591748331766709 $181 $356 forward 7 unknown #
coedge $-1 $190 $184 $278 $355 forward $179 $-1 #
vertex $-1 $355 $357 #
straight-curve $-1 48.950049246936125 -70.537813217654872 14.344953520739146 0 -1 0 I I #
edge $-1 $288 20.304565500526962 $286 36.98640199229137 $277 $358 forward 7 unknown #
coedge $-1 $285 $187 $190 $290 reversed $275 $-1 #
coedge $-1 $187 $284 $354 $359 forward $275 $-1 #
vertex $-1 $283 $360 #
straight-curve $-1 65.631885738700518 -29.936087197554571 13.268422643901722 0 0.57357642473473569 0.81915205242281985 I I #
vertex $-1 $283 $361 #
straight-curve $-1 48.950049246936125 -33.550638620836679 8.1063080776716134 0 0.57357642473473569 0.81915205242281985 I I #
edge $-1 $362 -33.550638620836672 $191 -29.182292185228526 $284 $363 forward 7 unknown #
point $-1 65.631885738700532 -29.182292185228526 14.344953520739148 #
point $-1 48.950049246936125 -29.182292185228526 14.344953520739148 #
edge $-1 $364 1 $364 0 $194 $-1 forward 7 unknown #
vertex $-1 $195 $365 #
ellipse-curve $-1 57.290967492818311 -30.434516510480019 10.573073179109361 0 -0.81915205242281985 0.57357642473473569 1 0 0 1 I I #
point $-1 58.290967492818311 -31.366465403032596 11.22563079920538 #
loop $-1 $-1 $306 $198 #
plane-surface $-1 0 0 14.344953520739148 0 0 1 1 0 0 forward_v I I I I #
coedge $-1 $300 $201 $209 $312 reversed $119 $-1 #
coedge $-1 $201 $299 $366 $367 reversed $119 $-1 #
coedge $-1 $306 $368 $203 $302 forward $297 $-1 #
edge $-1 $304 5.9095488892621049 $310 12.332735344403027 $301 $369 forward 7 unknown #
coedge $-1 $209 $204 $368 $370 reversed $199 $-1 #
vertex $-1 $205 $371 #
straight-curve $-1 47.219715853362928 33.550638620836672 74.093518744900081 0 0 1 I I #
coedge $-1 $366 $301 $206 $307 forward $297 $-1 #
edge $-1 $310 19.006815455347066 $308 37.418985340684657 $306 $372 forward 7 unknown #
vertex $-1 $367 $373 #
straight-curve $-1 65.631885738700518 3.419537082725606 38.052869153853919 0 0.70710677298230462 -0.70710678939079052 I I #
vertex $-1 $307 $374 #
straight-curve $-1 47.219715853362928 -13.897128992513899 55.369535630928453 0 0.70710677298230451 -0.70710678939079041 I I #
edge $-1 $375 -14.344953520739148 $210 -7.921766916547516 $299 $376 forward 7 unknown #
point $-1 65.631885738700518 33.550638620836672 7.921766916547516 #
point $-1 47.219715853362928 33.550638620836665 7.9217669165475257 #
edge $-1 $377 1 $377 0 $213 $-1 forward 7 unknown #
vertex $-1 $214 $378 #
ellipse-curve $-1 52.480335820602235 27.637119288573569 8.4314341766491623 0 0.70710678939079041 0.70710677298230451 1 0 0 1 I I #
point $-1 53.480335820602235 30.339045393266197 11.133360218643313 #
edge $-1 $379 1 $379 0 $217 $-1 forward 7 unknown #
vertex $-1 $218 $380 #
ellipse-curve $-1 60.371265771461211 27.637119288573569 8.4314341766491623 0 0.70710678939079041 0.70710677298230451 1 0 0 1 I I #
point $-1 61.371265771461211 30.339045393266197 11.133360218643313 #
plane-surface $-1 65.631885738700518 0 0 -1 0 0 0 0 1 forward_v I I I I #
coedge $-1 $226 $224 $228 $328 reversed $141 $-1 #
edge $-1 $239 -14.344953520739148 $330 14.344953520739148 $238 $381 forward 7 unknown #
vertex $-1 $328 $382 #
straight-curve $-1 -65.631885738700518 -33.550638620836672 0 0 0 -1 I I #
edge $-1 $326 -33.550638620836672 $330 33.550638620836672 $324 $383 forward 7 unknown #
straight-curve $-1 0 -33.550638620836672 -14.344953520739148 -1 0 0 I I #
vertex $-1 $231 $384 #
straight-curve $-1 0 33.550638620836672 -14.344953520739148 1 0 0 I I #
point $-1 65.631885738700518 33.550638620836672 -14.344953520739148 #
point $-1 65.631885738700518 -33.550638620836672 -14.344953520739148 #
straight-curve $-1 -65.631885738700518 0 14.344953520739148 0 -1 0 I I #
point $-1 -65.631885738700518 33.550638620836672 14.344953520739148 #
point $-1 -65.631885738700518 -33.550638620836672 14.344953520739148 #
straight-curve $-1 65.631885738700518 -33.550638620836672 0 0 0 -1 I I #
straight-curve $-1 65.631885738700518 33.550638620836672 0 0 0 -1 I I #
plane-surface $-1 -65.631885738700518 0 0 1 0 0 0 0 -1 forward_v I I I I #
edge $-1 $260 4.4852454883384674 $264 12.332220063259353 $263 $385 forward 7 unknown #
edge $-1 $268 -12.332220063259353 $259 -4.4852454883384674 $266 $386 forward 7 unknown #
straight-curve $-1 -49.748322456686054 -20.740952839058263 0 0 0 -1 I I #
edge $-1 $346 -14.344953520739148 $344 14.344953520739148 $270 $387 forward 7 unknown #
vertex $-1 $343 $388 #
straight-curve $-1 -28.845052048846643 -12.893978264137377 -14.344953520739148 1 0 0 I I #
vertex $-1 $271 $389 #
straight-curve $-1 -28.845052048846643 -12.893978264137377 14.344953520739148 -1 0 0 I I #
point $-1 -49.748322456686054 -12.893978264137377 14.344953520739148 #
point $-1 -49.748322456686054 -12.893978264137377 -14.344953520739148 #
point $-1 -49.748322456686054 -20.740952839058263 -14.344953520739148 #
point $-1 -49.748322456686054 -20.740952839058263 14.344953520739148 #
straight-curve $-1 -65.631885738700518 0 14.344953520739148 0 -1 0 I I #
straight-curve $-1 -65.631885738700518 0 -14.344953520739148 0 1 0 I I #
coedge $-1 $278 $277 $285 $359 reversed $104 $-1 #
edge $-1 $281 48.950049246936125 $362 65.631885738700518 $278 $390 forward 7 unknown #
straight-curve $-1 48.950049246936125 -33.550638620836672 41.698056409438337 0 0 -1 I I #
point $-1 48.950049246936125 -33.550638620836672 14.344953520739148 #
straight-curve $-1 28.645483746409163 -33.550638620836672 8.1063080776716294 1 0 0 I I #
edge $-1 $362 -14.344953520739148 $286 -8.1063080776716241 $285 $391 forward 7 unknown #
point $-1 65.631885738700532 -33.550638620836672 8.1063080776716241 #
point $-1 48.950049246936125 -33.550638620836672 8.1063080776716241 #
vertex $-1 $290 $392 #
straight-curve $-1 65.631885738700518 0 14.344953520739148 0 1 0 I I #
vertex $-1 $293 $393 #
point $-1 58.290967492818311 -30.434516510480019 10.573073179109361 #
coedge $-1 $368 $306 $300 $367 forward $297 $-1 #
edge $-1 $308 27.12745216569575 $375 33.550638620836672 $300 $394 forward 7 unknown #
coedge $-1 $301 $366 $303 $370 forward $297 $-1 #
straight-curve $-1 47.219715853362928 39.460187510098777 14.344953520739153 0 -1 0 I I #
edge $-1 $375 -65.631885738700518 $304 -47.219715853362928 $303 $395 forward 7 unknown #
point $-1 47.219715853362928 33.550638620836672 14.344953520739148 #
straight-curve $-1 28.212900398015861 27.12745216569575 14.344953520739146 1 0 0 I I #
point $-1 65.631885738700518 27.12745216569575 14.344953520739146 #
point $-1 47.219715853362928 27.12745216569575 14.344953520739146 #
vertex $-1 $367 $396 #
straight-curve $-1 65.631885738700518 33.550638620836672 0 0 0 -1 I I #
vertex $-1 $315 $397 #
point $-1 53.480335820602235 27.637119288573569 8.4314341766491623 #
vertex $-1 $319 $398 #
point $-1 61.371265771461211 27.637119288573569 8.4314341766491623 #
straight-curve $-1 -65.631885738700518 33.550638620836672 0 0 0 -1 I I #
point $-1 -65.631885738700518 -33.550638620836672 -14.344953520739148 #
straight-curve $-1 -65.631885738700518 0 -14.344953520739148 0 1 0 I I #
point $-1 -65.631885738700518 33.550638620836672 -14.344953520739148 #
straight-curve $-1 -49.748322456686054 -8.4087327757989101 -14.344953520739148 0 -1 0 I I #
straight-curve $-1 -49.748322456686054 -8.4087327757989101 14.344953520739148 0 1 0 I I #
straight-curve $-1 -65.631885738700518 -12.893978264137377 0 0 0 -1 I I #
point $-1 -65.631885738700518 -12.893978264137377 -14.344953520739148 #
point $-1 -65.631885738700518 -12.893978264137377 14.344953520739148 #
straight-curve $-1 0 -33.550638620836672 14.344953520739148 1 0 0 I I #
straight-curve $-1 65.631885738700518 -33.550638620836672 0 0 0 -1 I I #
point $-1 65.631885738700518 -33.550638620836672 14.344953520739148 #
point $-1 57.290967492818311 -29.615364458057197 9.9994967543746256 #
straight-curve $-1 65.631885738700518 0 14.344953520739148 0 1 0 I I #
straight-curve $-1 0 33.550638620836672 14.344953520739148 -1 0 0 I I #
point $-1 65.631885738700518 33.550638620836672 14.344953520739148 #
point $-1 52.480335820602235 26.930012499182784 7.7243274036668597 #
point $-1 60.371265771461211 26.930012499182784 7.7243274036668597 #
End-of-ACIS-data 