500 0 8 0           
7 Unknown 11 ACIS 5.0 NT 24 Fri Mar 26 15:53:07 1999 
-1 9.9999999999999995e-007 1e-010 
body $-1 $8 $-1 $9 #
body $-1 $10 $-1 $11 #
body $-1 $12 $-1 $13 #
body $-1 $14 $-1 $15 #
body $-1 $16 $-1 $17 #
body $-1 $18 $-1 $19 #
body $-1 $20 $-1 $21 #
body $-1 $22 $-1 $23 #
lump $-1 $-1 $24 $0 #
transform $-1 1 0 0 0 1 0 0 0 1 51.092867824335457 27.473545803524772 11.122061375278669 1 rotate no_reflect no_shear #
lump $-1 $-1 $25 $1 #
transform $-1 1 0 0 0 1 0 0 0 1 51.092867824335457 27.473545803524772 11.122061375278669 1 rotate no_reflect no_shear #
lump $-1 $-1 $26 $2 #
transform $-1 1 0 0 0 1 0 0 0 1 51.092867824335457 27.473545803524772 11.122061375278669 1 rotate no_reflect no_shear #
lump $-1 $-1 $27 $3 #
transform $-1 1 0 0 0 1 0 0 0 1 51.092867824335457 27.473545803524772 11.122061375278669 1 rotate no_reflect no_shear #
lump $-1 $-1 $28 $4 #
transform $-1 1 0 0 0 1 0 0 0 1 51.092867824335457 27.473545803524772 11.122061375278669 1 rotate no_reflect no_shear #
lump $-1 $-1 $29 $5 #
transform $-1 1 0 0 0 1 0 0 0 1 51.092867824335457 27.473545803524772 11.122061375278669 1 rotate no_reflect no_shear #
lump $-1 $-1 $30 $6 #
transform $-1 1 0 0 0 1 0 0 0 1 51.092867824335457 27.473545803524772 11.122061375278669 1 rotate no_reflect no_shear #
lump $-1 $-1 $31 $7 #
transform $-1 1 0 0 0 1 0 0 0 1 51.092867824335457 27.473545803524772 11.122061375278669 1 rotate no_reflect no_shear #
shell $-1 $-1 $-1 $32 $-1 $8 #
shell $-1 $-1 $-1 $33 $-1 $10 #
shell $-1 $-1 $-1 $34 $-1 $12 #
shell $-1 $-1 $-1 $35 $-1 $14 #
shell $-1 $-1 $-1 $36 $-1 $16 #
shell $-1 $-1 $-1 $37 $-1 $18 #
shell $-1 $-1 $-1 $38 $-1 $20 #
shell $-1 $-1 $-1 $39 $-1 $22 #
face $-1 $40 $41 $24 $-1 $42 forward single #
face $-1 $43 $44 $25 $-1 $45 reversed single #
face $-1 $46 $47 $26 $-1 $48 reversed single #
face $-1 $49 $50 $27 $-1 $51 reversed single #
face $-1 $52 $53 $28 $-1 $54 forward single #
face $-1 $55 $56 $29 $-1 $57 reversed single #
face $-1 $58 $59 $30 $-1 $60 forward single #
face $-1 $61 $62 $31 $-1 $63 forward single #
face $-1 $64 $65 $24 $-1 $66 reversed single #
loop $-1 $-1 $67 $32 #
plane-surface $-1 0 0 11.122061375278669 0 0 1 1 0 0 forward_v I I I I #
face $-1 $68 $69 $25 $-1 $70 reversed single #
loop $-1 $-1 $71 $33 #
plane-surface $-1 -35.381865716941626 -21.245371330598516 0 1 0 0 0 0 -1 forward_v I I I I #
face $-1 $72 $73 $26 $-1 $74 reversed single #
loop $-1 $-1 $75 $34 #
plane-surface $-1 -32.115305395359869 15.017196857672261 0 0 1 0 0 0 1 forward_v I I I I #
face $-1 $76 $77 $27 $-1 $78 reversed single #
loop $-1 $-1 $79 $35 #
plane-surface $-1 78.667145893826415 -5.8726148778266722 143.59618259189045 0 -1 0 -0.82903758062907751 0 -0.55919289150049634 forward_v I I I I #
face $-1 $80 $81 $28 $-1 $82 forward single #
loop $-1 $83 $84 $36 #
cone-surface $-1 46.700678670517732 -8.9810219756760929 5.6023824376440068 -0.82903758062907751 0 -0.55919289150049634 0.83878933725074445 0 -1.2435563709436162 1 I I 0 1 1.5 forward I I I I #
face $-1 $85 $86 $29 $-1 $87 reversed single #
loop $-1 $-1 $88 $37 #
plane-surface $-1 -103.72241309619218 2.5590026287965948 94.410254194235449 0 1 0 -0.51503808176128008 0 0.85716729658548041 forward_v I I I I #
face $-1 $89 $90 $30 $-1 $91 forward single #
loop $-1 $92 $93 $38 #
cone-surface $-1 -47.230206826833303 4.6322654545081363 8.5004789615849905 0.51503808176128008 0 -0.85716729658548041 0.4285836482927402 0 0.25751904088064004 1 I I 0 1 0.5 forward I I I I #
face $-1 $94 $95 $31 $-1 $96 forward single #
loop $-1 $97 $98 $39 #
cone-surface $-1 -47.230206826833303 7.7421596930754504 8.5004789615849905 0.51503808176128008 0 -0.85716729658548041 0.4285836482927402 0 0.25751904088064004 1 I I 0 1 0.5 forward I I I I #
face $-1 $99 $100 $24 $-1 $101 reversed single #
loop $-1 $-1 $102 $40 #
plane-surface $-1 0 0 -11.122061375278669 0 0 1 1 0 0 forward_v I I I I #
coedge $-1 $103 $104 $105 $106 forward $41 $-1 #
face $-1 $107 $108 $25 $-1 $109 reversed single #
loop $-1 $-1 $110 $43 #
plane-surface $-1 -32.115305395359869 -15.017196857672261 0 0 -1 0 0 0 -1 forward_v I I I I #
coedge $-1 $111 $112 $113 $114 forward $44 $-1 #
face $-1 $115 $116 $26 $-1 $117 reversed single #
loop $-1 $-1 $118 $46 #
plane-surface $-1 -35.381865716941626 21.245371330598516 0 1 0 0 0 0 -1 forward_v I I I I #
coedge $-1 $119 $120 $121 $122 forward $47 $-1 #
face $-1 $123 $124 $27 $-1 $125 reversed single #
loop $-1 $-1 $126 $49 #
plane-surface $-1 -6.0486691631501941 -8.9810219756760929 86.454645604404817 0.82903758062907751 0 0.55919289150049634 0.55919289150049634 0 -0.82903758062907751 forward_v I I I I #
coedge $-1 $127 $128 $129 $130 reversed $50 $-1 #
face $-1 $-1 $131 $28 $-1 $132 forward single #
loop $-1 $133 $134 $52 #
cone-surface $-1 44.851245787109463 -8.9810219756760929 4.3549242453091992 -0.82903758062907751 0 -0.55919289150049634 0.41939466862537222 0 -0.62177818547180808 1 I I -0.70710678118654757 0.70710678118654757 0.75 forward I I I I #
loop $-1 $-1 $135 $36 #
coedge $-1 $84 $84 $136 $137 reversed $53 $-1 #
face $-1 $138 $139 $29 $-1 $140 reversed single #
loop $-1 $-1 $141 $55 #
plane-surface $-1 -51.092867824335464 6.1872125737917969 6.8199834186656432 -0.51503808176128008 0 0.85716729658548041 0.85716729658548041 0 0.51503808176128008 forward_v I I I I #
coedge $-1 $142 $143 $144 $145 reversed $56 $-1 #
face $-1 $-1 $146 $30 $-1 $147 forward single #
loop $-1 $148 $149 $58 #
cone-surface $-1 -46.818716281408058 4.6322654545081363 7.8156437020514531 0.51503808176128008 0 -0.85716729658548041 0.2142918241463701 0 0.12875952044032002 1 I I -0.70710678118654746 0.70710678118654746 0.25 forward I I I I #
loop $-1 $-1 $150 $38 #
coedge $-1 $93 $93 $151 $152 reversed $59 $-1 #
face $-1 $-1 $153 $31 $-1 $154 forward single #
loop $-1 $155 $156 $61 #
cone-surface $-1 -46.818716281408058 7.7421596930754504 7.8156437020514531 0.51503808176128008 0 -0.85716729658548041 0.2142918241463701 0 0.12875952044032002 1 I I -0.70710678118654746 0.70710678118654746 0.25 forward I I I I #
loop $-1 $-1 $157 $39 #
coedge $-1 $98 $98 $158 $159 reversed $62 $-1 #
face $-1 $160 $161 $24 $-1 $162 reversed single #
loop $-1 $-1 $163 $64 #
plane-surface $-1 0 -27.473545803524772 0 0 1 0 0 0 1 forward_v I I I I #
coedge $-1 $164 $165 $166 $167 forward $65 $-1 #
coedge $-1 $168 $67 $169 $170 forward $41 $-1 #
coedge $-1 $67 $168 $171 $172 forward $41 $-1 #
coedge $-1 $173 $174 $67 $106 reversed $175 $-1 #
edge $-1 $176 -27.473545803524772 $177 27.473545803524772 $105 $178 forward 7 unknown #
face $-1 $179 $180 $25 $-1 $181 forward single #
loop $-1 $-1 $182 $68 #
plane-surface $-1 -28.848745073778115 -21.245371330598516 0 -1 0 0 0 0 1 forward_v I I I I #
coedge $-1 $183 $184 $185 $186 forward $69 $-1 #
coedge $-1 $187 $71 $188 $189 reversed $44 $-1 #
coedge $-1 $71 $187 $190 $191 reversed $44 $-1 #
coedge $-1 $184 $183 $71 $114 reversed $69 $-1 #
edge $-1 $192 -11.122061375278669 $193 11.122061375278669 $113 $194 forward 7 unknown #
face $-1 $195 $196 $26 $-1 $197 reversed single #
loop $-1 $-1 $198 $72 #
plane-surface $-1 -28.848745073778115 21.245371330598516 0 -1 0 0 0 0 1 forward_v I I I I #
coedge $-1 $199 $200 $201 $202 reversed $73 $-1 #
coedge $-1 $203 $75 $204 $205 reversed $47 $-1 #
coedge $-1 $75 $203 $206 $207 reversed $47 $-1 #
coedge $-1 $200 $199 $75 $122 reversed $73 $-1 #
edge $-1 $208 -11.122061375278669 $209 11.122061375278669 $121 $210 forward 7 unknown #
face $-1 $211 $212 $27 $-1 $213 forward single #
loop $-1 $-1 $214 $76 #
plane-surface $-1 78.667145893826415 -12.089429073525514 143.59618259189045 0 1 0 0.82903758062907751 0 0.55919289150049634 forward_v I I I I #
coedge $-1 $215 $216 $217 $218 reversed $77 $-1 #
coedge $-1 $128 $79 $219 $220 reversed $50 $-1 #
coedge $-1 $79 $127 $215 $221 reversed $50 $-1 #
coedge $-1 $217 $222 $79 $130 forward $212 $-1 #
edge $-1 $223 -11.759294877422249 $224 -5.43022596565973 $129 $225 forward 7 unknown #
loop $-1 $-1 $136 $80 #
plane-surface $-1 -6.0486691631501941 -8.9810219756760929 86.454645604404817 0.82903758062907751 0 0.55919289150049634 0.55919289150049634 0 -0.82903758062907751 forward_v I I I I #
loop $-1 $-1 $226 $52 #
coedge $-1 $134 $134 $135 $227 reversed $81 $-1 #
coedge $-1 $135 $135 $134 $227 forward $83 $-1 #
coedge $-1 $136 $136 $84 $137 forward $131 $-1 #
edge $-1 $228 0 $228 6.2831853071796004 $136 $229 forward 7 unknown #
face $-1 $230 $231 $29 $-1 $232 reversed single #
loop $-1 $-1 $233 $85 #
plane-surface $-1 -103.72241309619218 9.815422518786999 94.410254194235449 0 -1 0 0.51503808176128008 0 -0.85716729658548041 forward_v I I I I #
coedge $-1 $234 $235 $236 $237 reversed $86 $-1 #
coedge $-1 $143 $88 $238 $239 reversed $56 $-1 #
coedge $-1 $88 $142 $234 $240 reversed $56 $-1 #
coedge $-1 $236 $241 $88 $145 forward $242 $-1 #
edge $-1 $243 0.76833872376063539 $244 7.9281986687950905 $144 $245 forward 7 unknown #
loop $-1 $-1 $151 $89 #
plane-surface $-1 -51.092867824335464 6.1872125737917969 6.8199834186656432 -0.51503808176128008 0 0.85716729658548041 0.85716729658548041 0 0.51503808176128008 forward_v I I I I #
loop $-1 $-1 $246 $58 #
coedge $-1 $149 $149 $150 $247 reversed $90 $-1 #
coedge $-1 $150 $150 $149 $247 forward $92 $-1 #
coedge $-1 $151 $151 $93 $152 forward $146 $-1 #
edge $-1 $248 0 $248 6.2831853071796004 $151 $249 forward 7 unknown #
loop $-1 $-1 $158 $94 #
plane-surface $-1 -51.092867824335464 6.1872125737917969 6.8199834186656432 -0.51503808176128008 0 0.85716729658548041 0.85716729658548041 0 0.51503808176128008 forward_v I I I I #
loop $-1 $-1 $250 $61 #
coedge $-1 $156 $156 $157 $251 reversed $95 $-1 #
coedge $-1 $157 $157 $156 $251 forward $97 $-1 #
coedge $-1 $158 $158 $98 $159 forward $153 $-1 #
edge $-1 $252 0 $252 6.2831853071796004 $158 $253 forward 7 unknown #
face $-1 $254 $255 $24 $-1 $256 reversed single #
loop $-1 $-1 $257 $99 #
plane-surface $-1 -51.092867824335457 0 0 1 0 0 0 0 -1 forward_v I I I I #
coedge $-1 $258 $171 $259 $260 forward $100 $-1 #
coedge $-1 $261 $102 $258 $262 forward $65 $-1 #
coedge $-1 $102 $261 $263 $264 forward $65 $-1 #
coedge $-1 $174 $173 $102 $167 reversed $175 $-1 #
edge $-1 $265 -27.473545803524772 $266 27.473545803524772 $166 $267 forward 7 unknown #
coedge $-1 $104 $103 $268 $269 forward $41 $-1 #
coedge $-1 $270 $271 $103 $170 reversed $255 $-1 #
edge $-1 $177 -51.092867824335457 $272 51.092867824335457 $169 $273 forward 7 unknown #
coedge $-1 $163 $274 $104 $172 reversed $100 $-1 #
edge $-1 $275 -51.092867824335457 $176 51.092867824335457 $171 $276 forward 7 unknown #
coedge $-1 $166 $105 $274 $277 forward $175 $-1 #
coedge $-1 $105 $166 $270 $278 reversed $175 $-1 #
loop $-1 $-1 $173 $254 #
vertex $-1 $106 $279 #
vertex $-1 $106 $280 #
straight-curve $-1 51.092867824335457 0 11.122061375278669 0 1 0 I I #
face $-1 $281 $282 $25 $-1 $283 reversed single #
loop $-1 $-1 $284 $107 #
plane-surface $-1 0 0 11.122061375278669 0 0 1 1 0 0 forward_v I I I I #
coedge $-1 $285 $286 $287 $288 reversed $108 $-1 #
coedge $-1 $113 $110 $289 $290 reversed $69 $-1 #
coedge $-1 $110 $113 $291 $292 reversed $69 $-1 #
coedge $-1 $286 $285 $110 $186 reversed $108 $-1 #
edge $-1 $293 -11.122061375278669 $294 11.122061375278669 $185 $295 forward 7 unknown #
coedge $-1 $112 $111 $296 $297 reversed $44 $-1 #
coedge $-1 $289 $298 $111 $189 forward $282 $-1 #
edge $-1 $299 -16.850860138225514 $193 -4.3945111923730025 $188 $300 forward 7 unknown #
coedge $-1 $301 $291 $112 $191 forward $180 $-1 #
edge $-1 $192 4.3945111923730025 $302 16.850860138225514 $190 $303 forward 7 unknown #
vertex $-1 $191 $304 #
vertex $-1 $189 $305 #
straight-curve $-1 -35.381865716941626 -15.017196857672261 0 0 0 -1 I I #
face $-1 $306 $307 $26 $-1 $308 forward single #
loop $-1 $-1 $309 $115 #
plane-surface $-1 0 0 -11.122061375278669 0 0 1 1 0 0 forward_v I I I I #
coedge $-1 $310 $311 $203 $312 forward $116 $-1 #
coedge $-1 $121 $118 $313 $314 reversed $73 $-1 #
coedge $-1 $118 $121 $315 $316 reversed $73 $-1 #
coedge $-1 $317 $318 $118 $202 forward $319 $-1 #
edge $-1 $320 -11.122061375278669 $321 11.122061375278669 $201 $322 forward 7 unknown #
coedge $-1 $120 $119 $198 $312 reversed $47 $-1 #
coedge $-1 $313 $309 $119 $205 forward $196 $-1 #
edge $-1 $323 12.791092376098181 $209 19.324213019261691 $204 $324 forward 7 unknown #
coedge $-1 $325 $315 $120 $207 forward $307 $-1 #
edge $-1 $208 -19.324213019261691 $326 -12.791092376098181 $206 $327 forward 7 unknown #
vertex $-1 $207 $328 #
vertex $-1 $205 $329 #
straight-curve $-1 -35.381865716941626 15.017196857672261 0 0 0 -1 I I #
face $-1 $-1 $330 $27 $-1 $331 reversed single #
loop $-1 $-1 $129 $123 #
plane-surface $-1 0 0 11.122061375278669 0 0 1 1 0 0 forward_v I I I I #
coedge $-1 $332 $333 $334 $335 reversed $124 $-1 #
coedge $-1 $336 $126 $128 $221 forward $77 $-1 #
coedge $-1 $126 $336 $332 $337 forward $77 $-1 #
coedge $-1 $334 $129 $126 $218 forward $212 $-1 #
edge $-1 $224 1.3821038899886258 $338 7.5989180856874672 $217 $339 forward 7 unknown #
coedge $-1 $340 $341 $127 $220 forward $330 $-1 #
edge $-1 $342 -70.059260748517048 $223 -60.676029920666558 $219 $343 forward 7 unknown #
edge $-1 $224 90.867514319391233 $342 102.18573564867096 $128 $344 forward 7 unknown #
coedge $-1 $129 $334 $340 $345 forward $212 $-1 #
vertex $-1 $130 $346 #
vertex $-1 $130 $347 #
straight-curve $-1 39.333572946913208 -5.8726148778266722 11.122061375278676 -1 0 0 I I #
coedge $-1 $226 $226 $-1 $348 reversed $133 $-1 #
edge $-1 $349 0 $349 6.2831853071796004 $134 $350 forward 7 unknown #
vertex $-1 $137 $351 #
ellipse-curve $-1 47.92833336845419 -8.9810219756760929 6.4304459613534393 0.82903758062907751 0 0.55919289150049634 0.83878933725074445 0 -1.2435563709436162 1 I I #
face $-1 $-1 $242 $29 $-1 $352 forward single #
loop $-1 $-1 $353 $138 #
plane-surface $-1 -51.092867824335457 0 0 1 0 0 0 0 -1 forward_v I I I I #
coedge $-1 $354 $355 $356 $357 reversed $139 $-1 #
coedge $-1 $358 $141 $143 $240 forward $86 $-1 #
coedge $-1 $141 $358 $354 $359 forward $86 $-1 #
coedge $-1 $356 $144 $141 $237 forward $242 $-1 #
edge $-1 $244 -0.53460365809930366 $360 6.7218162318911006 $236 $361 forward 7 unknown #
coedge $-1 $362 $363 $142 $239 forward $231 $-1 #
edge $-1 $364 -40.385143678452074 $243 -36.083065721839056 $238 $365 forward 7 unknown #
edge $-1 $244 -8.3529317713773175 $364 -8.3777685069199533e-015 $143 $366 forward 7 unknown #
coedge $-1 $144 $356 $362 $367 forward $242 $-1 #
loop $-1 $-1 $356 $230 #
vertex $-1 $239 $368 #
vertex $-1 $145 $369 #
straight-curve $-1 -51.861206548096092 2.5590026287965948 11.122061375278669 1 0 0 I I #
coedge $-1 $246 $246 $-1 $370 reversed $148 $-1 #
edge $-1 $371 0 $371 6.2831853071796004 $149 $372 forward 7 unknown #
vertex $-1 $152 $373 #
ellipse-curve $-1 -47.512937851818229 4.6322654545081363 8.9710223969721579 -0.51503808176128008 0 0.85716729658548041 0.4285836482927402 0 0.25751904088064004 1 I I #
coedge $-1 $250 $250 $-1 $374 reversed $155 $-1 #
edge $-1 $375 0 $375 6.2831853071796004 $156 $376 forward 7 unknown #
vertex $-1 $159 $377 #
ellipse-curve $-1 -47.512937851818229 7.7421596930754504 8.9710223969721579 -0.51503808176128008 0 0.85716729658548041 0.4285836482927402 0 0.25751904088064004 1 I I #
face $-1 $-1 $175 $24 $-1 $378 reversed single #
loop $-1 $-1 $270 $160 #
plane-surface $-1 0 27.473545803524772 0 0 -1 0 0 0 -1 forward_v I I I I #
coedge $-1 $379 $268 $271 $380 forward $161 $-1 #
coedge $-1 $274 $163 $164 $262 reversed $100 $-1 #
coedge $-1 $268 $379 $163 $260 reversed $161 $-1 #
edge $-1 $275 -11.122061375278669 $381 11.122061375278669 $259 $382 forward 7 unknown #
coedge $-1 $165 $164 $379 $383 forward $65 $-1 #
edge $-1 $266 -51.092867824335457 $381 51.092867824335457 $258 $384 forward 7 unknown #
coedge $-1 $271 $270 $165 $264 reversed $255 $-1 #
edge $-1 $385 -51.092867824335457 $265 51.092867824335457 $263 $386 forward 7 unknown #
vertex $-1 $167 $387 #
vertex $-1 $277 $388 #
straight-curve $-1 51.092867824335457 0 -11.122061375278669 0 -1 0 I I #
coedge $-1 $257 $259 $168 $269 reversed $161 $-1 #
edge $-1 $272 -27.473545803524772 $275 27.473545803524772 $268 $389 forward 7 unknown #
coedge $-1 $263 $169 $174 $278 forward $255 $-1 #
coedge $-1 $169 $263 $257 $380 reversed $255 $-1 #
vertex $-1 $170 $390 #
straight-curve $-1 0 27.473545803524772 11.122061375278669 -1 0 0 I I #
coedge $-1 $171 $258 $173 $277 reversed $100 $-1 #
vertex $-1 $269 $391 #
straight-curve $-1 0 -27.473545803524772 11.122061375278669 1 0 0 I I #
edge $-1 $176 -11.122061375278669 $266 11.122061375278669 $173 $392 forward 7 unknown #
edge $-1 $177 -11.122061375278669 $265 11.122061375278669 $174 $393 forward 7 unknown #
point $-1 51.092867824335457 -27.473545803524772 11.122061375278669 #
point $-1 51.092867824335457 27.473545803524772 11.122061375278669 #
face $-1 $-1 $394 $25 $-1 $395 reversed single #
loop $-1 $-1 $396 $179 #
plane-surface $-1 0 0 -11.122061375278669 0 0 1 1 0 0 forward_v I I I I #
coedge $-1 $291 $301 $286 $397 forward $180 $-1 #
coedge $-1 $185 $182 $396 $398 reversed $108 $-1 #
coedge $-1 $182 $185 $284 $397 reversed $108 $-1 #
coedge $-1 $399 $400 $182 $288 forward $394 $-1 #
edge $-1 $401 -11.122061375278669 $402 11.122061375278669 $287 $403 forward 7 unknown #
coedge $-1 $396 $188 $183 $290 forward $282 $-1 #
edge $-1 $193 -19.324213019261691 $294 -12.791092376098181 $289 $404 forward 7 unknown #
coedge $-1 $190 $284 $184 $292 forward $180 $-1 #
edge $-1 $293 12.791092376098181 $192 19.324213019261691 $291 $405 forward 7 unknown #
vertex $-1 $292 $406 #
vertex $-1 $290 $407 #
straight-curve $-1 -28.848745073778115 -15.017196857672261 0 0 0 -1 I I #
coedge $-1 $400 $399 $187 $297 forward $394 $-1 #
edge $-1 $302 -11.122061375278669 $299 11.122061375278669 $296 $408 forward 7 unknown #
coedge $-1 $188 $396 $400 $409 forward $282 $-1 #
vertex $-1 $189 $410 #
straight-curve $-1 -35.381865716941626 -10.622685665299258 -11.122061375278669 0 1 0 I I #
coedge $-1 $284 $190 $399 $411 forward $180 $-1 #
vertex $-1 $411 $412 #
straight-curve $-1 -35.381865716941626 -10.622685665299258 11.122061375278669 0 -1 0 I I #
point $-1 -35.381865716941626 -15.017196857672261 11.122061375278669 #
point $-1 -35.381865716941626 -15.017196857672261 -11.122061375278669 #
face $-1 $-1 $319 $26 $-1 $413 reversed single #
loop $-1 $-1 $325 $195 #
plane-surface $-1 0 0 11.122061375278669 0 0 1 1 0 0 forward_v I I I I #
coedge $-1 $204 $414 $310 $415 forward $196 $-1 #
coedge $-1 $416 $198 $309 $415 reversed $116 $-1 #
coedge $-1 $198 $416 $325 $417 reversed $116 $-1 #
edge $-1 $326 -11.122061375278669 $323 11.122061375278669 $198 $418 forward 7 unknown #
coedge $-1 $414 $204 $199 $314 forward $196 $-1 #
edge $-1 $209 4.3945111923730025 $320 16.850860138225514 $313 $419 forward 7 unknown #
coedge $-1 $206 $420 $200 $316 forward $307 $-1 #
edge $-1 $321 -16.850860138225514 $208 -4.3945111923730025 $315 $421 forward 7 unknown #
coedge $-1 $422 $201 $420 $423 reversed $319 $-1 #
coedge $-1 $201 $422 $414 $424 reversed $319 $-1 #
loop $-1 $-1 $422 $306 #
vertex $-1 $424 $425 #
vertex $-1 $202 $426 #
straight-curve $-1 -35.381865716941626 27.473545803524772 0 0 0 1 I I #
vertex $-1 $205 $427 #
straight-curve $-1 -16.057652697679934 15.017196857672261 -11.122061375278669 -1 0 0 I I #
coedge $-1 $420 $206 $311 $417 forward $307 $-1 #
vertex $-1 $207 $428 #
straight-curve $-1 -16.057652697679934 15.017196857672261 11.122061375278669 1 0 0 I I #
point $-1 -35.381865716941626 15.017196857672261 11.122061375278669 #
point $-1 -35.381865716941626 15.017196857672261 -11.122061375278669 #
loop $-1 $-1 $219 $211 #
plane-surface $-1 51.092867824335457 0 0 -1 0 0 0 0 1 forward_v I I I I #
coedge $-1 $333 $214 $216 $337 reversed $124 $-1 #
coedge $-1 $214 $332 $429 $430 reversed $124 $-1 #
coedge $-1 $222 $217 $214 $335 forward $212 $-1 #
edge $-1 $338 5.43022596565973 $431 11.759294877422249 $334 $432 forward 7 unknown #
coedge $-1 $216 $215 $341 $433 reversed $77 $-1 #
edge $-1 $434 -102.18573564867096 $338 -90.867514319391233 $332 $435 forward 7 unknown #
vertex $-1 $218 $436 #
straight-curve $-1 44.763798912572938 -4.4905109878380465 11.122061375278662 0 -1 0 I I #
coedge $-1 $429 $219 $222 $345 reversed $330 $-1 #
coedge $-1 $219 $429 $336 $433 forward $330 $-1 #
vertex $-1 $220 $437 #
straight-curve $-1 51.092867824335457 -5.8726148778266722 71.798091295945227 0 0 1 I I #
straight-curve $-1 -6.0486691631501941 -5.8726148778266722 86.454645604404817 0.55919289150049634 0 -0.82903758062907751 I I #
edge $-1 $431 -12.089429073525514 $223 -5.8726148778266722 $340 $438 forward 7 unknown #
point $-1 51.092867824335457 -5.8726148778266722 11.122061375278669 #
point $-1 44.763798912572938 -5.8726148778266722 11.122061375278662 #
edge $-1 $439 1 $439 0 $226 $-1 forward 7 unknown #
vertex $-1 $227 $440 #
ellipse-curve $-1 45.473023972581274 -8.9810219756760929 4.7743189139345716 0.82903758062907751 0 0.55919289150049634 0.83878933725074445 0 -1.2435563709436162 1 I I #
point $-1 48.767122705704942 -8.9810219756760929 5.1868895904098267 #
plane-surface $-1 0 0 11.122061375278669 0 0 1 1 0 0 forward_v I I I I #
coedge $-1 $363 $362 $355 $441 forward $231 $-1 #
coedge $-1 $355 $233 $235 $359 reversed $139 $-1 #
coedge $-1 $233 $354 $353 $441 reversed $139 $-1 #
coedge $-1 $241 $236 $233 $357 forward $242 $-1 #
edge $-1 $360 -7.9281986687950905 $442 -0.76833872376063539 $356 $443 forward 7 unknown #
coedge $-1 $235 $234 $363 $444 reversed $86 $-1 #
edge $-1 $445 8.3777685069199533e-015 $360 8.3529317713773175 $354 $446 forward 7 unknown #
vertex $-1 $237 $447 #
straight-curve $-1 -43.933007879301002 3.0936062868958984 11.122061375278669 0 1 0 I I #
coedge $-1 $353 $238 $241 $367 reversed $231 $-1 #
coedge $-1 $238 $353 $358 $444 forward $231 $-1 #
vertex $-1 $239 $448 #
straight-curve $-1 -51.092867824335457 2.5590026287965948 47.205127097117725 0 0 1 I I #
straight-curve $-1 -51.092867824335464 2.5590026287965948 6.8199834186656432 -0.85716729658548041 0 -0.51503808176128008 I I #
edge $-1 $442 -9.815422518786999 $243 -2.5590026287965948 $362 $449 forward 7 unknown #
point $-1 -51.092867824335457 2.5590026287965948 11.122061375278669 #
point $-1 -43.933007879301002 2.5590026287965948 11.122061375278669 #
edge $-1 $450 1 $450 0 $246 $-1 forward 7 unknown #
vertex $-1 $247 $451 #
ellipse-curve $-1 -46.947475801848377 4.6322654545081363 8.0299355261978231 -0.51503808176128008 0 0.85716729658548041 0.4285836482927402 0 0.25751904088064004 1 I I #
point $-1 -47.084354203525486 4.6322654545081363 9.2285414378527975 #
edge $-1 $452 1 $452 0 $250 $-1 forward 7 unknown #
vertex $-1 $251 $453 #
ellipse-curve $-1 -46.947475801848377 7.7421596930754504 8.0299355261978231 -0.51503808176128008 0 0.85716729658548041 0.4285836482927402 0 0.25751904088064004 1 I I #
point $-1 -47.084354203525486 7.7421596930754504 9.2285414378527975 #
plane-surface $-1 51.092867824335457 0 0 -1 0 0 0 0 1 forward_v I I I I #
coedge $-1 $259 $257 $261 $383 reversed $161 $-1 #
edge $-1 $272 -11.122061375278669 $385 11.122061375278669 $271 $454 forward 7 unknown #
vertex $-1 $383 $455 #
straight-curve $-1 -51.092867824335457 -27.473545803524772 0 0 0 -1 I I #
edge $-1 $381 -27.473545803524772 $385 27.473545803524772 $379 $456 forward 7 unknown #
straight-curve $-1 0 -27.473545803524772 -11.122061375278669 -1 0 0 I I #
vertex $-1 $264 $457 #
straight-curve $-1 0 27.473545803524772 -11.122061375278669 1 0 0 I I #
point $-1 51.092867824335457 27.473545803524772 -11.122061375278669 #
point $-1 51.092867824335457 -27.473545803524772 -11.122061375278669 #
straight-curve $-1 -51.092867824335457 0 11.122061375278669 0 -1 0 I I #
point $-1 -51.092867824335457 27.473545803524772 11.122061375278669 #
point $-1 -51.092867824335457 -27.473545803524772 11.122061375278669 #
straight-curve $-1 51.092867824335457 -27.473545803524772 0 0 0 -1 I I #
straight-curve $-1 51.092867824335457 27.473545803524772 0 0 0 -1 I I #
loop $-1 $-1 $287 $281 #
plane-surface $-1 0 -27.473545803524772 0 0 1 0 0 0 1 forward_v I I I I #
coedge $-1 $298 $289 $285 $398 forward $282 $-1 #
edge $-1 $402 -16.850860138225514 $293 -4.3945111923730025 $284 $458 forward 7 unknown #
edge $-1 $294 4.3945111923730025 $401 16.850860138225514 $396 $459 forward 7 unknown #
coedge $-1 $296 $287 $301 $411 reversed $394 $-1 #
coedge $-1 $287 $296 $298 $409 reversed $394 $-1 #
vertex $-1 $409 $460 #
vertex $-1 $288 $461 #
straight-curve $-1 -28.848745073778115 -27.473545803524772 0 0 0 1 I I #
straight-curve $-1 -16.057652697679934 -15.017196857672261 -11.122061375278669 1 0 0 I I #
straight-curve $-1 -16.057652697679934 -15.017196857672261 11.122061375278669 -1 0 0 I I #
point $-1 -28.848745073778115 -15.017196857672261 11.122061375278669 #
point $-1 -28.848745073778115 -15.017196857672261 -11.122061375278669 #
straight-curve $-1 -35.381865716941626 -27.473545803524772 0 0 0 -1 I I #
edge $-1 $401 28.848745073778115 $299 35.381865716941626 $400 $462 forward 7 unknown #
point $-1 -35.381865716941626 -27.473545803524772 -11.122061375278669 #
edge $-1 $302 -35.381865716941626 $402 -28.848745073778115 $399 $463 forward 7 unknown #
point $-1 -35.381865716941626 -27.473545803524772 11.122061375278669 #
plane-surface $-1 0 27.473545803524772 0 0 -1 0 0 0 -1 forward_v I I I I #
coedge $-1 $309 $313 $318 $424 forward $196 $-1 #
edge $-1 $464 -16.850860138225514 $323 -4.3945111923730025 $309 $465 forward 7 unknown #
coedge $-1 $311 $310 $422 $466 reversed $116 $-1 #
edge $-1 $326 4.3945111923730025 $467 16.850860138225514 $325 $468 forward 7 unknown #
straight-curve $-1 -28.848745073778115 15.017196857672261 0 0 0 -1 I I #
straight-curve $-1 -35.381865716941626 10.622685665299258 -11.122061375278669 0 1 0 I I #
coedge $-1 $315 $325 $317 $423 forward $307 $-1 #
straight-curve $-1 -35.381865716941626 10.622685665299258 11.122061375278669 0 -1 0 I I #
coedge $-1 $318 $317 $416 $466 forward $319 $-1 #
edge $-1 $467 28.848745073778115 $321 35.381865716941626 $317 $469 forward 7 unknown #
edge $-1 $320 -35.381865716941626 $464 -28.848745073778115 $318 $470 forward 7 unknown #
point $-1 -35.381865716941626 27.473545803524772 -11.122061375278669 #
point $-1 -35.381865716941626 27.473545803524772 11.122061375278669 #
point $-1 -28.848745073778115 15.017196857672261 -11.122061375278669 #
point $-1 -28.848745073778115 15.017196857672261 11.122061375278669 #
coedge $-1 $341 $340 $333 $430 forward $330 $-1 #
edge $-1 $431 60.676029920666558 $434 70.059260748517048 $429 $471 forward 7 unknown #
vertex $-1 $345 $472 #
straight-curve $-1 39.333572946913208 -12.089429073525514 11.122061375278676 1 0 0 I I #
edge $-1 $434 -7.5989180856874672 $342 -1.3821038899886258 $341 $473 forward 7 unknown #
vertex $-1 $433 $474 #
straight-curve $-1 -6.0486691631501941 -12.089429073525514 86.454645604404817 -0.55919289150049634 0 0.82903758062907751 I I #
point $-1 44.763798912572938 -12.089429073525514 11.122061375278662 #
point $-1 51.092867824335457 -5.8726148778266722 1.7388305474281793 #
straight-curve $-1 51.092867824335457 0 11.122061375278669 0 1 0 I I #
vertex $-1 $348 $475 #
point $-1 46.311813309832019 -8.9810219756760929 3.5307625429909555 #
edge $-1 $442 36.083065721839056 $445 40.385143678452074 $353 $476 forward 7 unknown #
vertex $-1 $367 $477 #
straight-curve $-1 -51.861206548096092 9.815422518786999 11.122061375278669 -1 0 0 I I #
edge $-1 $445 -6.7218162318911006 $364 0.53460365809930366 $363 $478 forward 7 unknown #
vertex $-1 $444 $479 #
straight-curve $-1 -51.092867824335464 9.815422518786999 6.8199834186656432 0.85716729658548041 0 0.51503808176128008 I I #
point $-1 -43.933007879301002 9.815422518786999 11.122061375278669 #
point $-1 -51.092867824335457 2.5590026287965948 6.8199834186656476 #
straight-curve $-1 -51.092867824335457 0 11.122061375278669 0 -1 0 I I #
vertex $-1 $370 $480 #
point $-1 -46.51889215355564 4.6322654545081363 8.2874545670784627 #
vertex $-1 $374 $481 #
point $-1 -46.51889215355564 7.7421596930754504 8.2874545670784627 #
straight-curve $-1 -51.092867824335457 27.473545803524772 0 0 0 -1 I I #
point $-1 -51.092867824335457 -27.473545803524772 -11.122061375278669 #
straight-curve $-1 -51.092867824335457 0 -11.122061375278669 0 1 0 I I #
point $-1 -51.092867824335457 27.473545803524772 -11.122061375278669 #
straight-curve $-1 -28.848745073778115 -10.622685665299258 11.122061375278669 0 1 0 I I #
straight-curve $-1 -28.848745073778115 -10.622685665299258 -11.122061375278669 0 -1 0 I I #
point $-1 -28.848745073778115 -27.473545803524772 -11.122061375278669 #
point $-1 -28.848745073778115 -27.473545803524772 11.122061375278669 #
straight-curve $-1 0 -27.473545803524772 -11.122061375278669 -1 0 0 I I #
straight-curve $-1 0 -27.473545803524772 11.122061375278669 1 0 0 I I #
vertex $-1 $466 $482 #
straight-curve $-1 -28.848745073778115 10.622685665299258 -11.122061375278669 0 -1 0 I I #
edge $-1 $467 -11.122061375278669 $464 11.122061375278669 $422 $483 forward 7 unknown #
vertex $-1 $423 $484 #
straight-curve $-1 -28.848745073778115 10.622685665299258 11.122061375278669 0 1 0 I I #
straight-curve $-1 0 27.473545803524772 11.122061375278669 -1 0 0 I I #
straight-curve $-1 0 27.473545803524772 -11.122061375278669 1 0 0 I I #
straight-curve $-1 51.092867824335457 -12.089429073525514 71.798091295945227 0 0 -1 I I #
point $-1 51.092867824335457 -12.089429073525514 11.122061375278669 #
straight-curve $-1 51.092867824335457 -4.4905109878380465 1.7388305474281793 0 1 0 I I #
point $-1 51.092867824335457 -12.089429073525514 1.7388305474281793 #
point $-1 44.229467601637651 -8.9810219756760929 3.9355295766838267 #
straight-curve $-1 -51.092867824335457 9.815422518786999 47.205127097117725 0 0 -1 I I #
point $-1 -51.092867824335457 9.815422518786999 11.122061375278669 #
straight-curve $-1 -51.092867824335457 3.0936062868958984 6.8199834186656441 0 -1 0 I I #
point $-1 -51.092867824335457 9.815422518786999 6.8199834186656476 #
point $-1 -46.689956760967739 4.6322654545081363 7.601351877905083 #
point $-1 -46.689956760967739 7.7421596930754504 7.601351877905083 #
point $-1 -28.848745073778115 27.473545803524772 -11.122061375278669 #
straight-curve $-1 -28.848745073778115 27.473545803524772 0 0 0 -1 I I #
point $-1 -28.848745073778115 27.473545803524772 11.122061375278669 #
End-of-ACIS-data 