500 0 7 0           
7 Unknown 11 ACIS 5.0 NT 24 Fri Mar 26 02:42:10 1999 
-1 9.9999999999999995e-007 1e-010 
body $-1 $7 $-1 $8 #
body $-1 $9 $-1 $10 #
body $-1 $11 $-1 $12 #
body $-1 $13 $-1 $14 #
body $-1 $15 $-1 $16 #
body $-1 $17 $-1 $18 #
body $-1 $19 $-1 $20 #
lump $-1 $-1 $21 $0 #
transform $-1 1 0 0 0 1 0 0 0 1 58.085268715475934 36.472805072814637 14.400229697790772 1 rotate no_reflect no_shear #
lump $-1 $-1 $22 $1 #
transform $-1 1 0 0 0 1 0 0 0 1 58.085268715475934 36.472805072814637 14.400229697790772 1 rotate no_reflect no_shear #
lump $-1 $-1 $23 $2 #
transform $-1 1 0 0 0 1 0 0 0 1 58.085268715475934 36.472805072814637 14.400229697790772 1 rotate no_reflect no_shear #
lump $-1 $-1 $24 $3 #
transform $-1 1 0 0 0 1 0 0 0 1 58.085268715475934 36.472805072814637 14.400229697790772 1 rotate no_reflect no_shear #
lump $-1 $-1 $25 $4 #
transform $-1 1 0 0 0 1 0 0 0 1 58.085268715475934 36.472805072814637 14.400229697790772 1 rotate no_reflect no_shear #
lump $-1 $-1 $26 $5 #
transform $-1 1 0 0 0 1 0 0 0 1 58.085268715475934 36.472805072814637 14.400229697790772 1 rotate no_reflect no_shear #
lump $-1 $-1 $27 $6 #
transform $-1 1 0 0 0 1 0 0 0 1 58.085268715475934 36.472805072814637 14.400229697790772 1 rotate no_reflect no_shear #
shell $-1 $-1 $-1 $28 $-1 $7 #
shell $-1 $-1 $-1 $29 $-1 $9 #
shell $-1 $-1 $-1 $30 $-1 $11 #
shell $-1 $-1 $-1 $31 $-1 $13 #
shell $-1 $-1 $-1 $32 $-1 $15 #
shell $-1 $-1 $-1 $33 $-1 $17 #
shell $-1 $-1 $-1 $34 $-1 $19 #
face $-1 $35 $36 $21 $-1 $37 forward single #
face $-1 $38 $39 $22 $-1 $40 reversed single #
face $-1 $41 $42 $23 $-1 $43 reversed single #
face $-1 $44 $45 $24 $-1 $46 forward single #
face $-1 $47 $48 $25 $-1 $49 reversed single #
face $-1 $50 $51 $26 $-1 $52 forward single #
face $-1 $53 $54 $27 $-1 $55 forward single #
face $-1 $56 $57 $21 $-1 $58 reversed single #
loop $-1 $-1 $59 $28 #
plane-surface $-1 0 0 14.400229697790772 0 0 1 1 0 0 forward_v I I I I #
face $-1 $60 $61 $22 $-1 $62 reversed single #
loop $-1 $-1 $63 $29 #
plane-surface $-1 -39.359112513556354 -29.543884954721879 0 1 0 0 0 0 -1 forward_v I I I I #
face $-1 $64 $65 $23 $-1 $66 reversed single #
loop $-1 $-1 $67 $30 #
plane-surface $-1 -123.04700968353401 -17.175436645033827 104.80450611365906 0 1 0 -0.55919291073839883 0 0.82903756765294845 forward_v I I I I #
face $-1 $68 $69 $24 $-1 $70 forward single #
loop $-1 $71 $72 $31 #
cone-surface $-1 -52.89961007354308 -13.983976118575324 10.249508746446173 0.55919291073839883 0 -0.82903756765294845 0.82903756765294845 0 0.55919291073839883 1 I I 0 1 1 forward I I I I #
face $-1 $73 $74 $25 $-1 $75 reversed single #
loop $-1 $-1 $76 $32 #
plane-surface $-1 75.258246824215377 -10.730148206566312 170.27594523690431 0 -1 0 -0.77714596973225614 0 -0.62932038083071107 forward_v I I I I #
face $-1 $77 $78 $26 $-1 $79 forward single #
loop $-1 $80 $81 $33 #
cone-surface $-1 54.172162945481048 -19.219302942325459 9.9380718351691595 -0.77714596973225614 0 -0.62932038083071107 0.9439805712460666 0 -1.1657189545983841 1 I I 0 1 1.5 forward I I I I #
face $-1 $82 $83 $27 $-1 $84 forward single #
loop $-1 $85 $86 $34 #
cone-surface $-1 54.172162945481048 -14.12581010086997 9.9380718351691595 -0.77714596973225614 0 -0.62932038083071107 0.9439805712460666 0 -1.1657189545983841 1 I I 0 1 1.5 forward I I I I #
face $-1 $87 $88 $21 $-1 $89 reversed single #
loop $-1 $-1 $90 $35 #
plane-surface $-1 0 0 -14.400229697790772 0 0 1 1 0 0 forward_v I I I I #
coedge $-1 $91 $92 $93 $94 forward $36 $-1 #
face $-1 $95 $96 $22 $-1 $97 reversed single #
loop $-1 $-1 $98 $38 #
plane-surface $-1 -36.557248917918514 -22.61496483662912 0 0 -1 0 0 0 -1 forward_v I I I I #
coedge $-1 $99 $100 $101 $102 forward $39 $-1 #
face $-1 $103 $104 $23 $-1 $105 reversed single #
loop $-1 $-1 $106 $41 #
plane-surface $-1 -58.085268715475934 -13.983976118575324 8.494766328966918 -0.55919291073839883 0 0.82903756765294845 0.82903756765294845 0 0.55919291073839883 forward_v I I I I #
coedge $-1 $107 $108 $109 $110 reversed $42 $-1 #
face $-1 $-1 $111 $24 $-1 $112 forward single #
loop $-1 $113 $114 $44 #
cone-surface $-1 -51.811959639261929 -13.983976118575324 8.6370006956870125 0.55919291073839883 0 -0.82903756765294845 0.41451878382647422 0 0.27959645536919941 1 I I -0.70710678118654746 0.70710678118654746 0.5 forward I I I I #
loop $-1 $-1 $115 $31 #
coedge $-1 $72 $72 $116 $117 reversed $45 $-1 #
face $-1 $118 $119 $25 $-1 $120 reversed single #
loop $-1 $-1 $121 $47 #
plane-surface $-1 -15.02321814187907 -16.672556521597716 97.167458379549302 0.77714596973225614 0 0.62932038083071107 0.62932038083071107 0 -0.77714596973225614 forward_v I I I I #
coedge $-1 $122 $123 $124 $125 reversed $48 $-1 #
face $-1 $-1 $126 $26 $-1 $127 forward single #
loop $-1 $128 $129 $50 #
cone-surface $-1 52.718651898740461 -19.219302942325459 8.7610418290924681 -0.77714596973225614 0 -0.62932038083071107 0.4719902856230333 0 -0.58285947729919207 1 I I -0.70710678118654757 0.70710678118654757 0.75 forward I I I I #
loop $-1 $-1 $130 $33 #
coedge $-1 $81 $81 $131 $132 reversed $51 $-1 #
face $-1 $-1 $133 $27 $-1 $134 forward single #
loop $-1 $135 $136 $53 #
cone-surface $-1 52.718651898740461 -14.12581010086997 8.7610418290924681 -0.77714596973225614 0 -0.62932038083071107 0.4719902856230333 0 -0.58285947729919207 1 I I -0.70710678118654757 0.70710678118654757 0.75 forward I I I I #
loop $-1 $-1 $137 $34 #
coedge $-1 $86 $86 $138 $139 reversed $54 $-1 #
face $-1 $140 $141 $21 $-1 $142 reversed single #
loop $-1 $-1 $143 $56 #
plane-surface $-1 0 -36.472805072814637 0 0 1 0 0 0 1 forward_v I I I I #
coedge $-1 $144 $145 $146 $147 forward $57 $-1 #
coedge $-1 $148 $59 $149 $150 forward $36 $-1 #
coedge $-1 $59 $148 $151 $152 forward $36 $-1 #
coedge $-1 $153 $154 $59 $94 reversed $155 $-1 #
edge $-1 $156 -36.472805072814637 $157 36.472805072814637 $93 $158 forward 7 unknown #
face $-1 $159 $160 $22 $-1 $161 forward single #
loop $-1 $-1 $162 $60 #
plane-surface $-1 -33.755385322280674 -29.543884954721879 0 -1 0 0 0 0 1 forward_v I I I I #
coedge $-1 $163 $164 $165 $166 forward $61 $-1 #
coedge $-1 $167 $63 $168 $169 reversed $39 $-1 #
coedge $-1 $63 $167 $170 $171 reversed $39 $-1 #
coedge $-1 $164 $163 $63 $102 reversed $61 $-1 #
edge $-1 $172 -14.400229697790772 $173 14.400229697790772 $101 $174 forward 7 unknown #
face $-1 $175 $176 $23 $-1 $177 reversed single #
loop $-1 $-1 $178 $64 #
plane-surface $-1 -123.04700968353401 -10.792515592116821 104.80450611365906 0 -1 0 0.55919291073839883 0 -0.82903756765294845 forward_v I I I I #
coedge $-1 $179 $180 $181 $182 reversed $65 $-1 #
coedge $-1 $108 $67 $183 $184 reversed $42 $-1 #
coedge $-1 $67 $107 $179 $185 reversed $42 $-1 #
coedge $-1 $181 $186 $67 $110 forward $187 $-1 #
edge $-1 $188 3.4382361262910734 $189 12.193445452332924 $109 $190 forward 7 unknown #
loop $-1 $-1 $116 $68 #
plane-surface $-1 -58.085268715475934 -13.983976118575324 8.494766328966918 -0.55919291073839883 0 0.82903756765294845 0.82903756765294845 0 0.55919291073839883 forward_v I I I I #
loop $-1 $-1 $191 $44 #
coedge $-1 $114 $114 $115 $192 reversed $69 $-1 #
coedge $-1 $115 $115 $114 $192 forward $71 $-1 #
coedge $-1 $116 $116 $72 $117 forward $111 $-1 #
edge $-1 $193 0 $193 6.2831853071796004 $116 $194 forward 7 unknown #
face $-1 $195 $196 $25 $-1 $197 forward single #
loop $-1 $-1 $198 $73 #
plane-surface $-1 75.258246824215377 -22.61496483662912 170.27594523690431 0 1 0 0.77714596973225614 0 0.62932038083071107 forward_v I I I I #
coedge $-1 $199 $200 $201 $202 reversed $74 $-1 #
coedge $-1 $123 $76 $203 $204 reversed $48 $-1 #
coedge $-1 $76 $122 $199 $205 reversed $48 $-1 #
coedge $-1 $201 $206 $76 $125 forward $196 $-1 #
edge $-1 $207 -20.456145303368245 $208 -14.371236902261273 $124 $209 forward 7 unknown #
loop $-1 $-1 $131 $77 #
plane-surface $-1 -15.02321814187907 -16.672556521597716 97.167458379549302 0.77714596973225614 0 0.62932038083071107 0.62932038083071107 0 -0.77714596973225614 forward_v I I I I #
loop $-1 $-1 $210 $50 #
coedge $-1 $129 $129 $130 $211 reversed $78 $-1 #
coedge $-1 $130 $130 $129 $211 forward $80 $-1 #
coedge $-1 $131 $131 $81 $132 forward $126 $-1 #
edge $-1 $212 0 $212 6.2831853071796004 $131 $213 forward 7 unknown #
loop $-1 $-1 $138 $82 #
plane-surface $-1 -15.02321814187907 -16.672556521597716 97.167458379549302 0.77714596973225614 0 0.62932038083071107 0.62932038083071107 0 -0.77714596973225614 forward_v I I I I #
loop $-1 $-1 $214 $53 #
coedge $-1 $136 $136 $137 $215 reversed $83 $-1 #
coedge $-1 $137 $137 $136 $215 forward $85 $-1 #
coedge $-1 $138 $138 $86 $139 forward $133 $-1 #
edge $-1 $216 0 $216 6.2831853071796004 $138 $217 forward 7 unknown #
face $-1 $218 $219 $21 $-1 $220 reversed single #
loop $-1 $-1 $221 $87 #
plane-surface $-1 -58.085268715475934 0 0 1 0 0 0 0 -1 forward_v I I I I #
coedge $-1 $222 $151 $223 $224 forward $88 $-1 #
coedge $-1 $225 $90 $222 $226 forward $57 $-1 #
coedge $-1 $90 $225 $227 $228 forward $57 $-1 #
coedge $-1 $154 $153 $90 $147 reversed $155 $-1 #
edge $-1 $229 -36.472805072814637 $230 36.472805072814637 $146 $231 forward 7 unknown #
coedge $-1 $92 $91 $232 $233 forward $36 $-1 #
coedge $-1 $234 $235 $91 $150 reversed $219 $-1 #
edge $-1 $157 -58.085268715475934 $236 58.085268715475934 $149 $237 forward 7 unknown #
coedge $-1 $143 $238 $92 $152 reversed $88 $-1 #
edge $-1 $239 -58.085268715475934 $156 58.085268715475934 $151 $240 forward 7 unknown #
coedge $-1 $146 $93 $238 $241 forward $155 $-1 #
coedge $-1 $93 $146 $234 $242 reversed $155 $-1 #
loop $-1 $-1 $153 $218 #
vertex $-1 $94 $243 #
vertex $-1 $94 $244 #
straight-curve $-1 58.085268715475934 0 14.400229697790772 0 1 0 I I #
face $-1 $245 $246 $22 $-1 $247 reversed single #
loop $-1 $-1 $248 $95 #
plane-surface $-1 0 0 14.400229697790772 0 0 1 1 0 0 forward_v I I I I #
coedge $-1 $249 $250 $251 $252 reversed $96 $-1 #
coedge $-1 $101 $98 $253 $254 reversed $61 $-1 #
coedge $-1 $98 $101 $255 $256 reversed $61 $-1 #
coedge $-1 $250 $249 $98 $166 reversed $96 $-1 #
edge $-1 $257 -14.400229697790772 $258 14.400229697790772 $165 $259 forward 7 unknown #
coedge $-1 $100 $99 $260 $261 reversed $39 $-1 #
coedge $-1 $253 $262 $99 $169 forward $246 $-1 #
edge $-1 $263 -21.7008625954537 $173 -7.8430223592681809 $168 $264 forward 7 unknown #
coedge $-1 $265 $255 $100 $171 forward $160 $-1 #
edge $-1 $172 7.8430223592681809 $266 21.7008625954537 $170 $267 forward 7 unknown #
vertex $-1 $171 $268 #
vertex $-1 $169 $269 #
straight-curve $-1 -39.359112513556354 -22.61496483662912 0 0 0 -1 I I #
face $-1 $-1 $187 $23 $-1 $270 forward single #
loop $-1 $-1 $271 $103 #
plane-surface $-1 -58.085268715475934 0 0 1 0 0 0 0 -1 forward_v I I I I #
coedge $-1 $272 $273 $274 $275 reversed $104 $-1 #
coedge $-1 $276 $106 $108 $185 forward $65 $-1 #
coedge $-1 $106 $276 $272 $277 forward $65 $-1 #
coedge $-1 $274 $109 $106 $182 forward $187 $-1 #
edge $-1 $189 -10.183448585746165 $278 -3.8005275328291592 $181 $279 forward 7 unknown #
coedge $-1 $280 $281 $107 $184 forward $176 $-1 #
edge $-1 $282 -43.907486727862612 $188 -38.002023359038759 $183 $283 forward 7 unknown #
edge $-1 $189 -10.560690694425748 $282 0 $108 $284 forward 7 unknown #
coedge $-1 $109 $274 $280 $285 forward $187 $-1 #
loop $-1 $-1 $274 $175 #
vertex $-1 $184 $286 #
vertex $-1 $110 $287 #
straight-curve $-1 -61.523504841767007 -17.175436645033827 14.40022969779077 1 0 0 I I #
coedge $-1 $191 $191 $-1 $288 reversed $113 $-1 #
edge $-1 $289 0 $289 6.2831853071796004 $114 $290 forward 7 unknown #
vertex $-1 $117 $291 #
ellipse-curve $-1 -53.707664052455016 -13.983976118575324 11.447498013378841 -0.55919291073839883 0 0.82903756765294845 0.82903756765294845 0 0.55919291073839883 1 I I #
face $-1 $-1 $292 $25 $-1 $293 reversed single #
loop $-1 $-1 $124 $118 #
plane-surface $-1 0 0 14.400229697790772 0 0 1 1 0 0 forward_v I I I I #
coedge $-1 $294 $295 $296 $297 reversed $119 $-1 #
coedge $-1 $298 $121 $123 $205 forward $74 $-1 #
coedge $-1 $121 $298 $294 $299 forward $74 $-1 #
coedge $-1 $296 $124 $121 $202 forward $196 $-1 #
edge $-1 $208 2.3938699457674542 $300 14.278686575830262 $201 $301 forward 7 unknown #
coedge $-1 $302 $303 $122 $204 forward $292 $-1 #
edge $-1 $304 -78.251979204997298 $207 -70.737742920661375 $203 $305 forward 7 unknown #
edge $-1 $208 106.50152211465968 $304 116.17053743095187 $123 $306 forward 7 unknown #
coedge $-1 $124 $296 $302 $307 forward $196 $-1 #
vertex $-1 $204 $308 #
vertex $-1 $125 $309 #
straight-curve $-1 37.629123412107688 -10.730148206566312 14.400229697790778 -1 0 0 I I #
coedge $-1 $210 $210 $-1 $310 reversed $128 $-1 #
edge $-1 $311 0 $311 6.2831853071796004 $129 $312 forward 7 unknown #
vertex $-1 $132 $313 #
ellipse-curve $-1 55.042814514922448 -19.219302942325459 10.64311155562282 0.77714596973225614 0 0.62932038083071107 0.9439805712460666 0 -1.1657189545983841 1 I I #
coedge $-1 $214 $214 $-1 $314 reversed $135 $-1 #
edge $-1 $315 0 $315 6.2831853071796004 $136 $316 forward 7 unknown #
vertex $-1 $139 $317 #
ellipse-curve $-1 55.042814514922448 -14.12581010086997 10.64311155562282 0.77714596973225614 0 0.62932038083071107 0.9439805712460666 0 -1.1657189545983841 1 I I #
face $-1 $-1 $155 $21 $-1 $318 reversed single #
loop $-1 $-1 $234 $140 #
plane-surface $-1 0 36.472805072814637 0 0 -1 0 0 0 -1 forward_v I I I I #
coedge $-1 $319 $232 $235 $320 forward $141 $-1 #
coedge $-1 $238 $143 $144 $226 reversed $88 $-1 #
coedge $-1 $232 $319 $143 $224 reversed $141 $-1 #
edge $-1 $239 -14.400229697790772 $321 14.400229697790772 $223 $322 forward 7 unknown #
coedge $-1 $145 $144 $319 $323 forward $57 $-1 #
edge $-1 $230 -58.085268715475934 $321 58.085268715475934 $222 $324 forward 7 unknown #
coedge $-1 $235 $234 $145 $228 reversed $219 $-1 #
edge $-1 $325 -58.085268715475934 $229 58.085268715475934 $227 $326 forward 7 unknown #
vertex $-1 $147 $327 #
vertex $-1 $241 $328 #
straight-curve $-1 58.085268715475934 0 -14.400229697790772 0 -1 0 I I #
coedge $-1 $221 $223 $148 $233 reversed $141 $-1 #
edge $-1 $236 -36.472805072814637 $239 36.472805072814637 $232 $329 forward 7 unknown #
coedge $-1 $227 $149 $154 $242 forward $219 $-1 #
coedge $-1 $149 $227 $221 $320 reversed $219 $-1 #
vertex $-1 $150 $330 #
straight-curve $-1 0 36.472805072814637 14.400229697790772 -1 0 0 I I #
coedge $-1 $151 $222 $153 $241 reversed $88 $-1 #
vertex $-1 $233 $331 #
straight-curve $-1 0 -36.472805072814637 14.400229697790772 1 0 0 I I #
edge $-1 $156 -14.400229697790772 $230 14.400229697790772 $153 $332 forward 7 unknown #
edge $-1 $157 -14.400229697790772 $229 14.400229697790772 $154 $333 forward 7 unknown #
point $-1 58.085268715475934 -36.472805072814637 14.400229697790772 #
point $-1 58.085268715475934 36.472805072814637 14.400229697790772 #
face $-1 $-1 $334 $22 $-1 $335 reversed single #
loop $-1 $-1 $336 $159 #
plane-surface $-1 0 0 -14.400229697790772 0 0 1 1 0 0 forward_v I I I I #
coedge $-1 $255 $265 $250 $337 forward $160 $-1 #
coedge $-1 $165 $162 $336 $338 reversed $96 $-1 #
coedge $-1 $162 $165 $248 $337 reversed $96 $-1 #
coedge $-1 $339 $340 $162 $252 forward $334 $-1 #
edge $-1 $341 -14.400229697790772 $342 14.400229697790772 $251 $343 forward 7 unknown #
coedge $-1 $336 $168 $163 $254 forward $246 $-1 #
edge $-1 $173 -21.080488054597097 $258 -15.476760863321417 $253 $344 forward 7 unknown #
coedge $-1 $170 $248 $164 $256 forward $160 $-1 #
edge $-1 $257 15.476760863321417 $172 21.080488054597097 $255 $345 forward 7 unknown #
vertex $-1 $256 $346 #
vertex $-1 $254 $347 #
straight-curve $-1 -33.755385322280674 -22.61496483662912 0 0 0 -1 I I #
coedge $-1 $340 $339 $167 $261 forward $334 $-1 #
edge $-1 $266 -14.400229697790772 $263 14.400229697790772 $260 $348 forward 7 unknown #
coedge $-1 $168 $336 $340 $349 forward $246 $-1 #
vertex $-1 $169 $350 #
straight-curve $-1 -39.359112513556354 -14.771942477360939 -14.400229697790772 0 1 0 I I #
coedge $-1 $248 $170 $339 $351 forward $160 $-1 #
vertex $-1 $351 $352 #
straight-curve $-1 -39.359112513556354 -14.771942477360939 14.400229697790772 0 -1 0 I I #
point $-1 -39.359112513556354 -22.61496483662912 14.400229697790772 #
point $-1 -39.359112513556354 -22.61496483662912 -14.400229697790772 #
plane-surface $-1 0 0 14.400229697790772 0 0 1 1 0 0 forward_v I I I I #
coedge $-1 $281 $280 $273 $353 forward $176 $-1 #
coedge $-1 $273 $178 $180 $277 reversed $104 $-1 #
coedge $-1 $178 $272 $271 $353 reversed $104 $-1 #
coedge $-1 $186 $181 $178 $275 forward $187 $-1 #
edge $-1 $278 -12.193445452332924 $354 -3.4382361262910734 $274 $355 forward 7 unknown #
coedge $-1 $180 $179 $281 $356 reversed $65 $-1 #
edge $-1 $357 0 $278 10.560690694425748 $272 $358 forward 7 unknown #
vertex $-1 $182 $359 #
straight-curve $-1 -49.330059389434084 -6.991988059287662 14.400229697790772 0 1 0 I I #
coedge $-1 $271 $183 $186 $285 reversed $176 $-1 #
coedge $-1 $183 $271 $276 $356 forward $176 $-1 #
vertex $-1 $184 $360 #
straight-curve $-1 -58.085268715475934 -17.175436645033827 52.402253056829529 0 0 1 I I #
straight-curve $-1 -58.085268715475934 -17.175436645033827 8.494766328966918 -0.82903756765294845 0 -0.55919291073839883 I I #
edge $-1 $354 10.792515592116821 $188 17.175436645033827 $280 $361 forward 7 unknown #
point $-1 -58.085268715475934 -17.175436645033827 14.400229697790772 #
point $-1 -49.330059389434084 -17.175436645033827 14.400229697790772 #
edge $-1 $362 1 $362 0 $191 $-1 forward 7 unknown #
vertex $-1 $192 $363 #
ellipse-curve $-1 -52.09155609463113 -13.983976118575324 9.0515194795134875 -0.55919291073839883 0 0.82903756765294845 0.82903756765294845 0 0.55919291073839883 1 I I #
point $-1 -52.878626484802076 -13.983976118575324 12.006690924117256 #
loop $-1 $-1 $203 $195 #
plane-surface $-1 58.085268715475934 0 0 -1 0 0 0 0 1 forward_v I I I I #
coedge $-1 $295 $198 $200 $299 reversed $119 $-1 #
coedge $-1 $198 $294 $364 $365 reversed $119 $-1 #
coedge $-1 $206 $201 $198 $297 forward $196 $-1 #
edge $-1 $300 14.371236902261273 $366 20.456145303368245 $296 $367 forward 7 unknown #
coedge $-1 $200 $199 $303 $368 reversed $74 $-1 #
edge $-1 $369 -116.17053743095187 $300 -106.50152211465968 $294 $370 forward 7 unknown #
vertex $-1 $202 $371 #
straight-curve $-1 52.000360314368969 -8.3362782607988581 14.40022969779077 0 -1 0 I I #
coedge $-1 $364 $203 $206 $307 reversed $292 $-1 #
coedge $-1 $203 $364 $298 $368 forward $292 $-1 #
vertex $-1 $204 $372 #
straight-curve $-1 58.085268715475934 -10.730148206566312 85.137972618452153 0 0 1 I I #
straight-curve $-1 -15.02321814187907 -10.730148206566312 97.167458379549302 0.62932038083071107 0 -0.77714596973225614 I I #
edge $-1 $366 -22.61496483662912 $207 -10.730148206566312 $302 $373 forward 7 unknown #
point $-1 58.085268715475934 -10.730148206566312 14.400229697790772 #
point $-1 52.000360314368962 -10.730148206566312 14.400229697790778 #
edge $-1 $374 1 $374 0 $210 $-1 forward 7 unknown #
vertex $-1 $211 $375 #
ellipse-curve $-1 53.301511376039656 -19.219302942325459 9.2330321147155008 0.77714596973225614 0 0.62932038083071107 0.9439805712460666 0 -1.1657189545983841 1 I I #
point $-1 55.986795086168513 -19.219302942325459 9.477392601024432 #
edge $-1 $376 1 $376 0 $214 $-1 forward 7 unknown #
vertex $-1 $215 $377 #
ellipse-curve $-1 53.301511376039656 -14.12581010086997 9.2330321147155008 0.77714596973225614 0 0.62932038083071107 0.9439805712460666 0 -1.1657189545983841 1 I I #
point $-1 55.986795086168513 -14.12581010086997 9.477392601024432 #
plane-surface $-1 58.085268715475934 0 0 -1 0 0 0 0 1 forward_v I I I I #
coedge $-1 $223 $221 $225 $323 reversed $141 $-1 #
edge $-1 $236 -14.400229697790772 $325 14.400229697790772 $235 $378 forward 7 unknown #
vertex $-1 $323 $379 #
straight-curve $-1 -58.085268715475934 -36.472805072814637 0 0 0 -1 I I #
edge $-1 $321 -36.472805072814637 $325 36.472805072814637 $319 $380 forward 7 unknown #
straight-curve $-1 0 -36.472805072814637 -14.400229697790772 -1 0 0 I I #
vertex $-1 $228 $381 #
straight-curve $-1 0 36.472805072814637 -14.400229697790772 1 0 0 I I #
point $-1 58.085268715475934 36.472805072814637 -14.400229697790772 #
point $-1 58.085268715475934 -36.472805072814637 -14.400229697790772 #
straight-curve $-1 -58.085268715475934 0 14.400229697790772 0 -1 0 I I #
point $-1 -58.085268715475934 36.472805072814637 14.400229697790772 #
point $-1 -58.085268715475934 -36.472805072814637 14.400229697790772 #
straight-curve $-1 58.085268715475934 -36.472805072814637 0 0 0 -1 I I #
straight-curve $-1 58.085268715475934 36.472805072814637 0 0 0 -1 I I #
loop $-1 $-1 $251 $245 #
plane-surface $-1 0 -36.472805072814637 0 0 1 0 0 0 1 forward_v I I I I #
coedge $-1 $262 $253 $249 $338 forward $246 $-1 #
edge $-1 $342 -21.7008625954537 $257 -7.8430223592681809 $248 $382 forward 7 unknown #
edge $-1 $258 7.8430223592681809 $341 21.7008625954537 $336 $383 forward 7 unknown #
coedge $-1 $260 $251 $265 $351 reversed $334 $-1 #
coedge $-1 $251 $260 $262 $349 reversed $334 $-1 #
vertex $-1 $349 $384 #
vertex $-1 $252 $385 #
straight-curve $-1 -33.755385322280674 -36.472805072814637 0 0 0 1 I I #
straight-curve $-1 -18.278624458959257 -22.61496483662912 -14.400229697790772 1 0 0 I I #
straight-curve $-1 -18.278624458959257 -22.61496483662912 14.400229697790772 -1 0 0 I I #
point $-1 -33.755385322280674 -22.61496483662912 14.400229697790772 #
point $-1 -33.755385322280674 -22.61496483662912 -14.400229697790772 #
straight-curve $-1 -39.359112513556354 -36.472805072814637 0 0 0 -1 I I #
edge $-1 $341 33.755385322280674 $263 39.359112513556354 $340 $386 forward 7 unknown #
point $-1 -39.359112513556354 -36.472805072814637 -14.400229697790772 #
edge $-1 $266 -39.359112513556354 $342 -33.755385322280674 $339 $387 forward 7 unknown #
point $-1 -39.359112513556354 -36.472805072814637 14.400229697790772 #
edge $-1 $354 38.002023359038759 $357 43.907486727862612 $271 $388 forward 7 unknown #
vertex $-1 $285 $389 #
straight-curve $-1 -61.523504841767007 -10.792515592116821 14.40022969779077 -1 0 0 I I #
edge $-1 $357 3.8005275328291592 $282 10.183448585746165 $281 $390 forward 7 unknown #
vertex $-1 $356 $391 #
straight-curve $-1 -58.085268715475934 -10.792515592116821 8.494766328966918 0.82903756765294845 0 0.55919291073839883 I I #
point $-1 -49.330059389434084 -10.792515592116821 14.400229697790772 #
point $-1 -58.085268715475934 -17.175436645033827 8.494766328966918 #
straight-curve $-1 -58.085268715475934 0 14.400229697790772 0 -1 0 I I #
vertex $-1 $288 $392 #
point $-1 -51.262518526978177 -13.983976118575324 9.6107123902518854 #
coedge $-1 $303 $302 $295 $365 forward $292 $-1 #
edge $-1 $366 70.737742920661375 $369 78.251979204997298 $364 $393 forward 7 unknown #
vertex $-1 $307 $394 #
straight-curve $-1 37.629123412107688 -22.61496483662912 14.400229697790778 1 0 0 I I #
edge $-1 $369 -14.278686575830262 $304 -2.3938699457674542 $303 $395 forward 7 unknown #
vertex $-1 $368 $396 #
straight-curve $-1 -15.02321814187907 -22.61496483662912 97.167458379549302 -0.62932038083071107 0 0.77714596973225614 I I #
point $-1 52.000360314368962 -22.61496483662912 14.400229697790778 #
point $-1 58.085268715475934 -10.730148206566312 6.8859934134548553 #
straight-curve $-1 58.085268715475934 0 14.400229697790772 0 1 0 I I #
vertex $-1 $310 $397 #
point $-1 54.245491947285721 -19.219302942325459 8.0673131601171164 #
vertex $-1 $314 $398 #
point $-1 54.245491947285721 -14.12581010086997 8.0673131601171164 #
straight-curve $-1 -58.085268715475934 36.472805072814637 0 0 0 -1 I I #
point $-1 -58.085268715475934 -36.472805072814637 -14.400229697790772 #
straight-curve $-1 -58.085268715475934 0 -14.400229697790772 0 1 0 I I #
point $-1 -58.085268715475934 36.472805072814637 -14.400229697790772 #
straight-curve $-1 -33.755385322280674 -14.771942477360939 14.400229697790772 0 1 0 I I #
straight-curve $-1 -33.755385322280674 -14.771942477360939 -14.400229697790772 0 -1 0 I I #
point $-1 -33.755385322280674 -36.472805072814637 -14.400229697790772 #
point $-1 -33.755385322280674 -36.472805072814637 14.400229697790772 #
straight-curve $-1 0 -36.472805072814637 -14.400229697790772 -1 0 0 I I #
straight-curve $-1 0 -36.472805072814637 14.400229697790772 1 0 0 I I #
straight-curve $-1 -58.085268715475934 -10.792515592116821 52.402253056829529 0 0 -1 I I #
point $-1 -58.085268715475934 -10.792515592116821 14.400229697790772 #
straight-curve $-1 -58.085268715475934 -6.991988059287662 8.494766328966918 0 -1 0 I I #
point $-1 -58.085268715475934 -10.792515592116821 8.494766328966918 #
point $-1 -51.532363183892727 -13.983976118575324 8.2224819118605375 #
straight-curve $-1 58.085268715475934 -22.61496483662912 85.137972618452153 0 0 -1 I I #
point $-1 58.085268715475934 -22.61496483662912 14.400229697790772 #
straight-curve $-1 58.085268715475934 -8.3362782607988581 6.8859934134548482 0 1 0 I I #
point $-1 58.085268715475934 -22.61496483662912 6.8859934134548553 #
point $-1 52.135792421441266 -19.219302942325459 8.2890515434694354 #
point $-1 52.135792421441266 -14.12581010086997 8.2890515434694354 #
End-of-ACIS-data 