500 0 18 0           
7 Unknown 11 ACIS 5.0 NT 24 Thu Mar 25 17:42:48 1999 
-1 9.9999999999999995e-007 1e-010 
body $-1 $18 $-1 $19 #
body $-1 $20 $-1 $21 #
body $-1 $22 $-1 $23 #
body $-1 $24 $-1 $25 #
body $-1 $26 $-1 $27 #
body $-1 $28 $-1 $29 #
body $-1 $30 $-1 $31 #
body $-1 $32 $-1 $33 #
body $-1 $34 $-1 $35 #
body $-1 $36 $-1 $37 #
body $-1 $38 $-1 $39 #
body $-1 $40 $-1 $41 #
body $-1 $42 $-1 $43 #
body $-1 $44 $-1 $45 #
body $-1 $46 $-1 $47 #
body $-1 $48 $-1 $49 #
body $-1 $50 $-1 $51 #
body $-1 $52 $-1 $53 #
lump $-1 $-1 $54 $0 #
transform $-1 1 0 0 0 1 0 0 0 1 67.708365123447365 45.908697458438503 13.599717814259012 1 rotate no_reflect no_shear #
lump $-1 $-1 $55 $1 #
transform $-1 1 0 0 0 1 0 0 0 1 67.708365123447365 45.908697458438503 13.599717814259012 1 rotate no_reflect no_shear #
lump $-1 $-1 $56 $2 #
transform $-1 1 0 0 0 1 0 0 0 1 67.708365123447365 45.908697458438503 13.599717814259012 1 rotate no_reflect no_shear #
lump $-1 $-1 $57 $3 #
transform $-1 1 0 0 0 1 0 0 0 1 67.708365123447365 45.908697458438503 13.599717814259012 1 rotate no_reflect no_shear #
lump $-1 $-1 $58 $4 #
transform $-1 1 0 0 0 1 0 0 0 1 67.708365123447365 45.908697458438503 13.599717814259012 1 rotate no_reflect no_shear #
lump $-1 $-1 $59 $5 #
transform $-1 1 0 0 0 1 0 0 0 1 67.708365123447365 45.908697458438503 13.599717814259012 1 rotate no_reflect no_shear #
lump $-1 $-1 $60 $6 #
transform $-1 1 0 0 0 1 0 0 0 1 67.708365123447365 45.908697458438503 13.599717814259012 1 rotate no_reflect no_shear #
lump $-1 $-1 $61 $7 #
transform $-1 1 0 0 0 1 0 0 0 1 67.708365123447365 45.908697458438503 13.599717814259012 1 rotate no_reflect no_shear #
lump $-1 $-1 $62 $8 #
transform $-1 1 0 0 0 1 0 0 0 1 67.708365123447365 45.908697458438503 13.599717814259012 1 rotate no_reflect no_shear #
lump $-1 $-1 $63 $9 #
transform $-1 1 0 0 0 1 0 0 0 1 67.708365123447365 45.908697458438503 13.599717814259012 1 rotate no_reflect no_shear #
lump $-1 $-1 $64 $10 #
transform $-1 1 0 0 0 1 0 0 0 1 67.708365123447365 45.908697458438503 13.599717814259012 1 rotate no_reflect no_shear #
lump $-1 $-1 $65 $11 #
transform $-1 1 0 0 0 1 0 0 0 1 67.708365123447365 45.908697458438503 13.599717814259012 1 rotate no_reflect no_shear #
lump $-1 $-1 $66 $12 #
transform $-1 1 0 0 0 1 0 0 0 1 67.708365123447365 45.908697458438503 13.599717814259012 1 rotate no_reflect no_shear #
lump $-1 $-1 $67 $13 #
transform $-1 1 0 0 0 1 0 0 0 1 67.708365123447365 45.908697458438503 13.599717814259012 1 rotate no_reflect no_shear #
lump $-1 $-1 $68 $14 #
transform $-1 1 0 0 0 1 0 0 0 1 67.708365123447365 45.908697458438503 13.599717814259012 1 rotate no_reflect no_shear #
lump $-1 $-1 $69 $15 #
transform $-1 1 0 0 0 1 0 0 0 1 67.708365123447365 45.908697458438503 13.599717814259012 1 rotate no_reflect no_shear #
lump $-1 $-1 $70 $16 #
transform $-1 1 0 0 0 1 0 0 0 1 67.708365123447365 45.908697458438503 13.599717814259012 1 rotate no_reflect no_shear #
lump $-1 $-1 $71 $17 #
transform $-1 1 0 0 0 1 0 0 0 1 67.708365123447365 45.908697458438503 13.599717814259012 1 rotate no_reflect no_shear #
shell $-1 $-1 $-1 $72 $-1 $18 #
shell $-1 $-1 $-1 $73 $-1 $20 #
shell $-1 $-1 $-1 $74 $-1 $22 #
shell $-1 $-1 $-1 $75 $-1 $24 #
shell $-1 $-1 $-1 $76 $-1 $26 #
shell $-1 $-1 $-1 $77 $-1 $28 #
shell $-1 $-1 $-1 $78 $-1 $30 #
shell $-1 $-1 $-1 $79 $-1 $32 #
shell $-1 $-1 $-1 $80 $-1 $34 #
shell $-1 $-1 $-1 $81 $-1 $36 #
shell $-1 $-1 $-1 $82 $-1 $38 #
shell $-1 $-1 $-1 $83 $-1 $40 #
shell $-1 $-1 $-1 $84 $-1 $42 #
shell $-1 $-1 $-1 $85 $-1 $44 #
shell $-1 $-1 $-1 $86 $-1 $46 #
shell $-1 $-1 $-1 $87 $-1 $48 #
shell $-1 $-1 $-1 $88 $-1 $50 #
shell $-1 $-1 $-1 $89 $-1 $52 #
face $-1 $90 $91 $54 $-1 $92 forward single #
face $-1 $93 $94 $55 $-1 $95 reversed single #
face $-1 $96 $97 $56 $-1 $98 reversed single #
face $-1 $99 $100 $57 $-1 $101 forward single #
face $-1 $102 $103 $58 $-1 $104 forward single #
face $-1 $105 $106 $59 $-1 $107 forward single #
face $-1 $108 $109 $60 $-1 $110 reversed single #
face $-1 $111 $112 $61 $-1 $113 forward single #
face $-1 $114 $115 $62 $-1 $116 forward single #
face $-1 $117 $118 $63 $-1 $119 forward single #
face $-1 $120 $121 $64 $-1 $122 reversed single #
face $-1 $123 $124 $65 $-1 $125 forward single #
face $-1 $126 $127 $66 $-1 $128 forward single #
face $-1 $129 $130 $67 $-1 $131 forward single #
face $-1 $132 $133 $68 $-1 $134 reversed single #
face $-1 $135 $136 $69 $-1 $137 forward single #
face $-1 $138 $139 $70 $-1 $140 forward single #
face $-1 $141 $142 $71 $-1 $143 forward single #
face $-1 $144 $145 $54 $-1 $146 reversed single #
loop $-1 $-1 $147 $72 #
plane-surface $-1 0 0 13.599717814259012 0 0 1 1 0 0 forward_v I I I I #
face $-1 $148 $149 $55 $-1 $150 reversed single #
loop $-1 $-1 $151 $73 #
plane-surface $-1 -58.756246177585112 -38.544919468261007 0 0 -1 0 0 0 -1 forward_v I I I I #
face $-1 $152 $153 $56 $-1 $154 reversed single #
loop $-1 $-1 $155 $74 #
plane-surface $-1 -39.611755605217446 -45.90869745843851 2.3556366198747014 0 -0.82903758062907751 0.55919289150049634 1 0 0 forward_v I I I I #
face $-1 $156 $157 $57 $-1 $158 forward single #
loop $-1 $159 $160 $75 #
cone-surface $-1 -45.727178581120697 -40.030352125843173 6.5704965579277603 0 0.82903758062907751 -0.55919289150049634 1.5 0 0 1 I I 0 1 1.5 forward I I I I #
face $-1 $161 $162 $58 $-1 $163 forward single #
loop $-1 $164 $165 $76 #
cone-surface $-1 -39.611755605217446 -40.030352125843173 6.5704965579277603 0 0.82903758062907751 -0.55919289150049634 1.5 0 0 1 I I 0 1 1.5 forward I I I I #
face $-1 $166 $167 $59 $-1 $168 forward single #
loop $-1 $169 $170 $77 #
cone-surface $-1 -33.496332629314203 -40.030352125843173 6.5704965579277603 0 0.82903758062907751 -0.55919289150049634 1.5 0 0 1 I I 0 1 1.5 forward I I I I #
face $-1 $171 $172 $60 $-1 $173 reversed single #
loop $-1 $-1 $174 $78 #
plane-surface $-1 57.51599349694196 -45.90869745843851 2.3556366198747014 0 -0.82903758062907751 0.55919289150049634 1 0 0 forward_v I I I I #
face $-1 $175 $176 $61 $-1 $177 forward single #
loop $-1 $178 $179 $79 #
cone-surface $-1 51.400570521038716 -40.030352125843173 6.5704965579277603 0 0.82903758062907751 -0.55919289150049634 1.5 0 0 1 I I 0 1 1.5 forward I I I I #
face $-1 $180 $181 $62 $-1 $182 forward single #
loop $-1 $183 $184 $80 #
cone-surface $-1 57.51599349694196 -40.030352125843173 6.5704965579277603 0 0.82903758062907751 -0.55919289150049634 1.5 0 0 1 I I 0 1 1.5 forward I I I I #
face $-1 $185 $186 $63 $-1 $187 forward single #
loop $-1 $188 $189 $81 #
cone-surface $-1 63.631416472845203 -40.030352125843173 6.5704965579277603 0 0.82903758062907751 -0.55919289150049634 1.5 0 0 1 I I 0 1 1.5 forward I I I I #
face $-1 $190 $191 $64 $-1 $192 reversed single #
loop $-1 $-1 $193 $82 #
plane-surface $-1 -49.804127231722852 106.83062132541312 154.19978050573076 1 0 0 0 -0.82903758062907751 -0.55919289150049634 forward_v I I I I #
face $-1 $194 $195 $65 $-1 $196 forward single #
loop $-1 $197 $198 $83 #
cone-surface $-1 -45.727178581120697 40.030352125843166 6.5704965579277568 0 -0.82903758062907751 -0.55919289150049634 1.5 0 0 1 I I 0 1 1.5 forward I I I I #
face $-1 $199 $200 $66 $-1 $201 forward single #
loop $-1 $202 $203 $84 #
cone-surface $-1 -39.611755605217446 40.030352125843166 6.5704965579277568 0 -0.82903758062907751 -0.55919289150049634 1.5 0 0 1 I I 0 1 1.5 forward I I I I #
face $-1 $204 $205 $67 $-1 $206 forward single #
loop $-1 $207 $208 $85 #
cone-surface $-1 -33.496332629314203 40.030352125843166 6.5704965579277568 0 -0.82903758062907751 -0.55919289150049634 1.5 0 0 1 I I 0 1 1.5 forward I I I I #
face $-1 $209 $210 $68 $-1 $211 reversed single #
loop $-1 $-1 $212 $86 #
plane-surface $-1 57.51599349694196 -5.4349370951729128 78.475707561426972 0 0.82903758062907751 0.55919289150049634 1 0 0 forward_v I I I I #
face $-1 $213 $214 $69 $-1 $215 forward single #
loop $-1 $216 $217 $87 #
cone-surface $-1 51.400570521038716 40.030352125843166 6.5704965579277568 0 -0.82903758062907751 -0.55919289150049634 1.5 0 0 1 I I 0 1 1.5 forward I I I I #
face $-1 $218 $219 $70 $-1 $220 forward single #
loop $-1 $221 $222 $88 #
cone-surface $-1 57.51599349694196 40.030352125843166 6.5704965579277568 0 -0.82903758062907751 -0.55919289150049634 1.5 0 0 1 I I 0 1 1.5 forward I I I I #
face $-1 $223 $224 $71 $-1 $225 forward single #
loop $-1 $226 $227 $89 #
cone-surface $-1 63.631416472845203 40.030352125843166 6.5704965579277568 0 -0.82903758062907751 -0.55919289150049634 1.5 0 0 1 I I 0 1 1.5 forward I I I I #
face $-1 $228 $229 $54 $-1 $230 reversed single #
loop $-1 $-1 $231 $90 #
plane-surface $-1 0 0 -13.599717814259012 0 0 1 1 0 0 forward_v I I I I #
coedge $-1 $232 $233 $234 $235 forward $91 $-1 #
face $-1 $236 $237 $55 $-1 $238 forward single #
loop $-1 $-1 $239 $93 #
plane-surface $-1 -49.804127231722859 -42.226808463349755 0 -1 0 0 0 0 1 forward_v I I I I #
coedge $-1 $240 $241 $242 $243 forward $94 $-1 #
face $-1 $244 $245 $56 $-1 $246 forward single #
loop $-1 $-1 $247 $96 #
plane-surface $-1 -29.419383978712041 -158.17425587902454 78.079709564178486 -1 0 0 0 -0.82903758062907751 0.55919289150049634 forward_v I I I I #
coedge $-1 $248 $249 $250 $251 reversed $97 $-1 #
face $-1 $-1 $252 $57 $-1 $253 forward single #
loop $-1 $254 $255 $99 #
cone-surface $-1 -45.727178581120697 -37.322342754509322 4.7439212301632949 0 0.82903758062907751 -0.55919289150049634 0.75 0 0 1 I I -0.70710678118654757 0.70710678118654757 0.75 forward I I I I #
loop $-1 $-1 $256 $75 #
coedge $-1 $160 $160 $257 $258 reversed $100 $-1 #
face $-1 $-1 $259 $58 $-1 $260 forward single #
loop $-1 $261 $262 $102 #
cone-surface $-1 -39.611755605217446 -37.322342754509322 4.7439212301632949 0 0.82903758062907751 -0.55919289150049634 0.75 0 0 1 I I -0.70710678118654757 0.70710678118654757 0.75 forward I I I I #
loop $-1 $-1 $263 $76 #
coedge $-1 $165 $165 $264 $265 reversed $103 $-1 #
face $-1 $-1 $266 $59 $-1 $267 forward single #
loop $-1 $268 $269 $105 #
cone-surface $-1 -33.496332629314203 -37.322342754509322 4.7439212301632949 0 0.82903758062907751 -0.55919289150049634 0.75 0 0 1 I I -0.70710678118654757 0.70710678118654757 0.75 forward I I I I #
loop $-1 $-1 $270 $77 #
coedge $-1 $170 $170 $271 $272 reversed $106 $-1 #
face $-1 $273 $274 $60 $-1 $275 reversed single #
loop $-1 $-1 $276 $108 #
plane-surface $-1 47.323621870436554 -158.17425587902454 78.079709564178486 1 0 0 0 0.82903758062907751 -0.55919289150049634 forward_v I I I I #
coedge $-1 $277 $278 $279 $280 reversed $109 $-1 #
face $-1 $-1 $281 $61 $-1 $282 forward single #
loop $-1 $283 $284 $111 #
cone-surface $-1 51.400570521038716 -37.322342754509322 4.7439212301632949 0 0.82903758062907751 -0.55919289150049634 0.75 0 0 1 I I -0.70710678118654757 0.70710678118654757 0.75 forward I I I I #
loop $-1 $-1 $285 $79 #
coedge $-1 $179 $179 $286 $287 reversed $112 $-1 #
face $-1 $-1 $288 $62 $-1 $289 forward single #
loop $-1 $290 $291 $114 #
cone-surface $-1 57.51599349694196 -37.322342754509322 4.7439212301632949 0 0.82903758062907751 -0.55919289150049634 0.75 0 0 1 I I -0.70710678118654757 0.70710678118654757 0.75 forward I I I I #
loop $-1 $-1 $292 $80 #
coedge $-1 $184 $184 $293 $294 reversed $115 $-1 #
face $-1 $-1 $295 $63 $-1 $296 forward single #
loop $-1 $297 $298 $117 #
cone-surface $-1 63.631416472845203 -37.322342754509322 4.7439212301632949 0 0.82903758062907751 -0.55919289150049634 0.75 0 0 1 I I -0.70710678118654757 0.70710678118654757 0.75 forward I I I I #
loop $-1 $-1 $299 $81 #
coedge $-1 $189 $189 $300 $301 reversed $118 $-1 #
face $-1 $302 $303 $64 $-1 $304 reversed single #
loop $-1 $-1 $305 $120 #
plane-surface $-1 -39.611755605217446 -5.4349370951729128 78.475707561426972 0 0.82903758062907751 0.55919289150049634 1 0 0 forward_v I I I I #
coedge $-1 $306 $307 $308 $309 reversed $121 $-1 #
face $-1 $-1 $310 $65 $-1 $311 forward single #
loop $-1 $312 $313 $123 #
cone-surface $-1 -45.727178581120697 37.322342754509314 4.7439212301632914 0 -0.82903758062907751 -0.55919289150049634 0.75 0 0 1 I I -0.70710678118654757 0.70710678118654757 0.75 forward I I I I #
loop $-1 $-1 $314 $83 #
coedge $-1 $198 $198 $315 $316 reversed $124 $-1 #
face $-1 $-1 $317 $66 $-1 $318 forward single #
loop $-1 $319 $320 $126 #
cone-surface $-1 -39.611755605217446 37.322342754509314 4.7439212301632914 0 -0.82903758062907751 -0.55919289150049634 0.75 0 0 1 I I -0.70710678118654757 0.70710678118654757 0.75 forward I I I I #
loop $-1 $-1 $321 $84 #
coedge $-1 $203 $203 $322 $323 reversed $127 $-1 #
face $-1 $-1 $324 $67 $-1 $325 forward single #
loop $-1 $326 $327 $129 #
cone-surface $-1 -33.496332629314203 37.322342754509314 4.7439212301632914 0 -0.82903758062907751 -0.55919289150049634 0.75 0 0 1 I I -0.70710678118654757 0.70710678118654757 0.75 forward I I I I #
loop $-1 $-1 $328 $85 #
coedge $-1 $208 $208 $329 $330 reversed $130 $-1 #
face $-1 $331 $332 $68 $-1 $333 forward single #
loop $-1 $-1 $334 $132 #
plane-surface $-1 47.323621870436554 106.83062132541312 154.19978050573076 1 0 0 0 -0.82903758062907751 -0.55919289150049634 forward_v I I I I #
coedge $-1 $335 $336 $337 $338 reversed $133 $-1 #
face $-1 $-1 $339 $69 $-1 $340 forward single #
loop $-1 $341 $342 $135 #
cone-surface $-1 51.400570521038716 37.322342754509314 4.7439212301632914 0 -0.82903758062907751 -0.55919289150049634 0.75 0 0 1 I I -0.70710678118654757 0.70710678118654757 0.75 forward I I I I #
loop $-1 $-1 $343 $87 #
coedge $-1 $217 $217 $344 $345 reversed $136 $-1 #
face $-1 $-1 $346 $70 $-1 $347 forward single #
loop $-1 $348 $349 $138 #
cone-surface $-1 57.51599349694196 37.322342754509314 4.7439212301632914 0 -0.82903758062907751 -0.55919289150049634 0.75 0 0 1 I I -0.70710678118654757 0.70710678118654757 0.75 forward I I I I #
loop $-1 $-1 $350 $88 #
coedge $-1 $222 $222 $351 $352 reversed $139 $-1 #
face $-1 $-1 $353 $71 $-1 $354 forward single #
loop $-1 $355 $356 $141 #
cone-surface $-1 63.631416472845203 37.322342754509314 4.7439212301632914 0 -0.82903758062907751 -0.55919289150049634 0.75 0 0 1 I I -0.70710678118654757 0.70710678118654757 0.75 forward I I I I #
loop $-1 $-1 $357 $89 #
coedge $-1 $227 $227 $358 $359 reversed $142 $-1 #
face $-1 $360 $361 $54 $-1 $362 reversed single #
loop $-1 $-1 $363 $144 #
plane-surface $-1 0 -45.908697458438503 0 0 1 0 0 0 1 forward_v I I I I #
coedge $-1 $364 $365 $366 $367 forward $145 $-1 #
coedge $-1 $368 $147 $369 $370 forward $91 $-1 #
coedge $-1 $147 $368 $371 $372 forward $91 $-1 #
coedge $-1 $373 $374 $147 $235 reversed $375 $-1 #
edge $-1 $376 -45.908697458438503 $377 45.908697458438503 $234 $378 forward 7 unknown #
face $-1 $379 $380 $55 $-1 $381 reversed single #
loop $-1 $-1 $382 $148 #
plane-surface $-1 0 0 13.599717814259012 0 0 1 1 0 0 forward_v I I I I #
coedge $-1 $383 $384 $385 $386 reversed $149 $-1 #
coedge $-1 $387 $151 $388 $389 reversed $94 $-1 #
coedge $-1 $151 $387 $390 $391 reversed $94 $-1 #
coedge $-1 $384 $383 $151 $243 reversed $149 $-1 #
edge $-1 $392 -13.599717814259012 $393 13.599717814259012 $242 $394 forward 7 unknown #
face $-1 $395 $396 $56 $-1 $397 forward single #
loop $-1 $-1 $398 $152 #
plane-surface $-1 0 0 13.599717814259012 0 0 1 1 0 0 forward_v I I I I #
coedge $-1 $399 $400 $401 $402 reversed $153 $-1 #
coedge $-1 $403 $155 $404 $405 reversed $97 $-1 #
coedge $-1 $155 $403 $399 $406 forward $97 $-1 #
coedge $-1 $401 $407 $155 $251 forward $408 $-1 #
edge $-1 $409 -29.998249429114136 $410 -9.6135061761033178 $250 $411 forward 7 unknown #
loop $-1 $-1 $257 $156 #
plane-surface $-1 -39.611755605217446 -45.90869745843851 2.3556366198747014 0 -0.82903758062907751 0.55919289150049634 1 0 0 forward_v I I I I #
loop $-1 $-1 $412 $99 #
coedge $-1 $255 $255 $256 $413 reversed $157 $-1 #
coedge $-1 $256 $256 $255 $413 forward $159 $-1 #
coedge $-1 $257 $257 $160 $258 forward $252 $-1 #
edge $-1 $414 1.3706284220040515e-015 $414 6.2831853071796022 $257 $415 forward 7 unknown #
loop $-1 $-1 $264 $161 #
plane-surface $-1 -39.611755605217446 -45.90869745843851 2.3556366198747014 0 -0.82903758062907751 0.55919289150049634 1 0 0 forward_v I I I I #
loop $-1 $-1 $416 $102 #
coedge $-1 $262 $262 $263 $417 reversed $162 $-1 #
coedge $-1 $263 $263 $262 $417 forward $164 $-1 #
coedge $-1 $264 $264 $165 $265 forward $259 $-1 #
edge $-1 $418 1.3706284220040515e-015 $418 6.2831853071796022 $264 $419 forward 7 unknown #
loop $-1 $-1 $271 $166 #
plane-surface $-1 -39.611755605217446 -45.90869745843851 2.3556366198747014 0 -0.82903758062907751 0.55919289150049634 1 0 0 forward_v I I I I #
loop $-1 $-1 $420 $105 #
coedge $-1 $269 $269 $270 $421 reversed $167 $-1 #
coedge $-1 $270 $270 $269 $421 forward $169 $-1 #
coedge $-1 $271 $271 $170 $272 forward $266 $-1 #
edge $-1 $422 1.3706284220040515e-015 $422 6.2831853071796022 $271 $423 forward 7 unknown #
face $-1 $424 $425 $60 $-1 $426 forward single #
loop $-1 $-1 $427 $171 #
plane-surface $-1 67.708365123447365 0 0 -1 0 0 0 0 1 forward_v I I I I #
coedge $-1 $428 $429 $430 $431 reversed $172 $-1 #
coedge $-1 $432 $174 $427 $433 reversed $109 $-1 #
coedge $-1 $174 $432 $428 $434 forward $109 $-1 #
coedge $-1 $430 $435 $174 $280 forward $425 $-1 #
edge $-1 $436 -38.950368374976385 $437 -18.565625121965574 $279 $438 forward 7 unknown #
loop $-1 $-1 $286 $175 #
plane-surface $-1 57.51599349694196 -45.90869745843851 2.3556366198747014 0 -0.82903758062907751 0.55919289150049634 1 0 0 forward_v I I I I #
loop $-1 $-1 $439 $111 #
coedge $-1 $284 $284 $285 $440 reversed $176 $-1 #
coedge $-1 $285 $285 $284 $440 forward $178 $-1 #
coedge $-1 $286 $286 $179 $287 forward $281 $-1 #
edge $-1 $441 1.3706284220040515e-015 $441 6.2831853071796022 $286 $442 forward 7 unknown #
loop $-1 $-1 $293 $180 #
plane-surface $-1 57.51599349694196 -45.90869745843851 2.3556366198747014 0 -0.82903758062907751 0.55919289150049634 1 0 0 forward_v I I I I #
loop $-1 $-1 $443 $114 #
coedge $-1 $291 $291 $292 $444 reversed $181 $-1 #
coedge $-1 $292 $292 $291 $444 forward $183 $-1 #
coedge $-1 $293 $293 $184 $294 forward $288 $-1 #
edge $-1 $445 1.3706284220040515e-015 $445 6.2831853071796022 $293 $446 forward 7 unknown #
loop $-1 $-1 $300 $185 #
plane-surface $-1 57.51599349694196 -45.90869745843851 2.3556366198747014 0 -0.82903758062907751 0.55919289150049634 1 0 0 forward_v I I I I #
loop $-1 $-1 $447 $117 #
coedge $-1 $298 $298 $299 $448 reversed $186 $-1 #
coedge $-1 $299 $299 $298 $448 forward $188 $-1 #
coedge $-1 $300 $300 $189 $301 forward $295 $-1 #
edge $-1 $449 1.3706284220040515e-015 $449 6.2831853071796022 $300 $450 forward 7 unknown #
face $-1 $451 $452 $64 $-1 $453 reversed single #
loop $-1 $-1 $454 $190 #
plane-surface $-1 -29.419383978712041 106.83062132541312 154.19978050573076 -1 0 0 0 0.82903758062907751 0.55919289150049634 forward_v I I I I #
coedge $-1 $455 $456 $457 $458 reversed $191 $-1 #
coedge $-1 $307 $193 $459 $460 reversed $121 $-1 #
coedge $-1 $193 $306 $455 $461 reversed $121 $-1 #
coedge $-1 $457 $462 $193 $309 forward $463 $-1 #
edge $-1 $464 7.5066132042680564 $465 15.090841497734608 $308 $466 forward 7 unknown #
loop $-1 $-1 $315 $194 #
plane-surface $-1 -39.611755605217446 -5.4349370951729128 78.475707561426972 0 0.82903758062907751 0.55919289150049634 1 0 0 forward_v I I I I #
loop $-1 $-1 $467 $123 #
coedge $-1 $313 $313 $314 $468 reversed $195 $-1 #
coedge $-1 $314 $314 $313 $468 forward $197 $-1 #
coedge $-1 $315 $315 $198 $316 forward $310 $-1 #
edge $-1 $469 3.9850166111108777e-016 $469 6.2831853071796004 $315 $470 forward 7 unknown #
loop $-1 $-1 $322 $199 #
plane-surface $-1 -39.611755605217446 -5.4349370951729128 78.475707561426972 0 0.82903758062907751 0.55919289150049634 1 0 0 forward_v I I I I #
loop $-1 $-1 $471 $126 #
coedge $-1 $320 $320 $321 $472 reversed $200 $-1 #
coedge $-1 $321 $321 $320 $472 forward $202 $-1 #
coedge $-1 $322 $322 $203 $323 forward $317 $-1 #
edge $-1 $473 3.9850166111108777e-016 $473 6.2831853071796004 $322 $474 forward 7 unknown #
loop $-1 $-1 $329 $204 #
plane-surface $-1 -39.611755605217446 -5.4349370951729128 78.475707561426972 0 0.82903758062907751 0.55919289150049634 1 0 0 forward_v I I I I #
loop $-1 $-1 $475 $129 #
coedge $-1 $327 $327 $328 $476 reversed $205 $-1 #
coedge $-1 $328 $328 $327 $476 forward $207 $-1 #
coedge $-1 $329 $329 $208 $330 forward $324 $-1 #
edge $-1 $477 3.9850166111108777e-016 $477 6.2831853071796004 $329 $478 forward 7 unknown #
face $-1 $479 $480 $68 $-1 $481 reversed single #
loop $-1 $-1 $482 $209 #
plane-surface $-1 0 0 13.599717814259012 0 0 1 1 0 0 forward_v I I I I #
coedge $-1 $483 $484 $485 $486 reversed $210 $-1 #
coedge $-1 $487 $212 $488 $489 reversed $133 $-1 #
coedge $-1 $212 $487 $483 $490 forward $133 $-1 #
coedge $-1 $485 $491 $212 $338 forward $492 $-1 #
edge $-1 $493 -38.950368374976385 $494 -18.565625121965574 $337 $495 forward 7 unknown #
loop $-1 $-1 $344 $213 #
plane-surface $-1 57.51599349694196 -5.4349370951729128 78.475707561426972 0 0.82903758062907751 0.55919289150049634 1 0 0 forward_v I I I I #
loop $-1 $-1 $496 $135 #
coedge $-1 $342 $342 $343 $497 reversed $214 $-1 #
coedge $-1 $343 $343 $342 $497 forward $216 $-1 #
coedge $-1 $344 $344 $217 $345 forward $339 $-1 #
edge $-1 $498 3.9850166111108777e-016 $498 6.2831853071796004 $344 $499 forward 7 unknown #
loop $-1 $-1 $351 $218 #
plane-surface $-1 57.51599349694196 -5.4349370951729128 78.475707561426972 0 0.82903758062907751 0.55919289150049634 1 0 0 forward_v I I I I #
loop $-1 $-1 $500 $138 #
coedge $-1 $349 $349 $350 $501 reversed $219 $-1 #
coedge $-1 $350 $350 $349 $501 forward $221 $-1 #
coedge $-1 $351 $351 $222 $352 forward $346 $-1 #
edge $-1 $502 3.9850166111108777e-016 $502 6.2831853071796004 $351 $503 forward 7 unknown #
loop $-1 $-1 $358 $223 #
plane-surface $-1 57.51599349694196 -5.4349370951729128 78.475707561426972 0 0.82903758062907751 0.55919289150049634 1 0 0 forward_v I I I I #
loop $-1 $-1 $504 $141 #
coedge $-1 $356 $356 $357 $505 reversed $224 $-1 #
coedge $-1 $357 $357 $356 $505 forward $226 $-1 #
coedge $-1 $358 $358 $227 $359 forward $353 $-1 #
edge $-1 $506 3.9850166111108777e-016 $506 6.2831853071796004 $358 $507 forward 7 unknown #
face $-1 $508 $509 $54 $-1 $510 reversed single #
loop $-1 $-1 $511 $228 #
plane-surface $-1 -67.708365123447365 0 0 1 0 0 0 0 -1 forward_v I I I I #
coedge $-1 $512 $371 $513 $514 forward $229 $-1 #
coedge $-1 $515 $231 $512 $516 forward $145 $-1 #
coedge $-1 $231 $515 $517 $518 forward $145 $-1 #
coedge $-1 $374 $373 $231 $367 reversed $375 $-1 #
edge $-1 $519 -45.908697458438503 $520 45.908697458438503 $366 $521 forward 7 unknown #
coedge $-1 $233 $232 $522 $523 forward $91 $-1 #
coedge $-1 $524 $525 $232 $370 reversed $509 $-1 #
edge $-1 $377 -67.708365123447365 $526 67.708365123447365 $369 $527 forward 7 unknown #
coedge $-1 $363 $528 $233 $372 reversed $229 $-1 #
edge $-1 $529 -67.708365123447365 $376 67.708365123447365 $371 $530 forward 7 unknown #
coedge $-1 $366 $234 $528 $531 forward $375 $-1 #
coedge $-1 $234 $366 $524 $532 reversed $375 $-1 #
loop $-1 $-1 $373 $508 #
vertex $-1 $235 $533 #
vertex $-1 $235 $534 #
straight-curve $-1 67.708365123447365 0 13.599717814259012 0 1 0 I I #
face $-1 $535 $536 $55 $-1 $537 reversed single #
loop $-1 $-1 $538 $236 #
plane-surface $-1 -67.708365123447365 0 0 1 0 0 0 0 -1 forward_v I I I I #
coedge $-1 $390 $539 $384 $540 forward $237 $-1 #
coedge $-1 $242 $239 $541 $542 reversed $149 $-1 #
coedge $-1 $239 $242 $382 $540 reversed $149 $-1 #
coedge $-1 $543 $544 $239 $386 forward $545 $-1 #
edge $-1 $546 -13.599717814259012 $547 13.599717814259012 $385 $548 forward 7 unknown #
coedge $-1 $241 $240 $538 $549 reversed $94 $-1 #
coedge $-1 $541 $550 $240 $389 forward $536 $-1 #
edge $-1 $551 -38.330242034654809 $393 -20.426004142930303 $388 $552 forward 7 unknown #
coedge $-1 $553 $382 $241 $391 forward $237 $-1 #
edge $-1 $392 20.426004142930303 $554 38.330242034654809 $390 $555 forward 7 unknown #
vertex $-1 $391 $556 #
vertex $-1 $389 $557 #
straight-curve $-1 -49.804127231722859 -38.544919468261007 0 0 0 -1 I I #
face $-1 $-1 $408 $56 $-1 $558 reversed single #
loop $-1 $-1 $404 $244 #
plane-surface $-1 -49.804127231722859 -42.226808463349755 0 -1 0 0 0 0 1 forward_v I I I I #
coedge $-1 $559 $560 $400 $561 forward $245 $-1 #
coedge $-1 $400 $247 $249 $406 reversed $153 $-1 #
coedge $-1 $247 $399 $398 $561 reversed $153 $-1 #
coedge $-1 $562 $250 $247 $402 forward $408 $-1 #
edge $-1 $410 -36.684218162214535 $563 -25.440136967830231 $401 $564 forward 7 unknown #
coedge $-1 $249 $248 $559 $565 reversed $97 $-1 #
coedge $-1 $566 $567 $248 $405 forward $396 $-1 #
edge $-1 $568 -13.509824984430043 $409 0.05298743458266534 $404 $569 forward 7 unknown #
edge $-1 $570 -13.562812419012722 $410 -1.2809303928265426e-014 $399 $571 forward 7 unknown #
coedge $-1 $250 $562 $566 $572 forward $408 $-1 #
loop $-1 $-1 $401 $395 #
vertex $-1 $405 $573 #
vertex $-1 $251 $574 #
straight-curve $-1 -19.805877802608723 -45.908697458438503 2.3556366198747156 1 0 0 I I #
coedge $-1 $412 $412 $-1 $575 reversed $254 $-1 #
edge $-1 $576 0 $576 6.2831853071796004 $255 $577 forward 7 unknown #
vertex $-1 $258 $578 #
ellipse-curve $-1 -45.727178581120697 -42.116583311705227 7.9776772170668613 0 -0.82903758062907751 0.55919289150049634 1.5 0 0 1 I I #
coedge $-1 $416 $416 $-1 $579 reversed $261 $-1 #
edge $-1 $580 0 $580 6.2831853071796004 $262 $581 forward 7 unknown #
vertex $-1 $265 $582 #
ellipse-curve $-1 -39.611755605217446 -42.116583311705227 7.9776772170668613 0 -0.82903758062907751 0.55919289150049634 1.5 0 0 1 I I #
coedge $-1 $420 $420 $-1 $583 reversed $268 $-1 #
edge $-1 $584 0 $584 6.2831853071796004 $269 $585 forward 7 unknown #
vertex $-1 $272 $586 #
ellipse-curve $-1 -33.496332629314203 -42.116583311705227 7.9776772170668613 0 -0.82903758062907751 0.55919289150049634 1.5 0 0 1 I I #
face $-1 $-1 $587 $60 $-1 $588 reversed single #
loop $-1 $-1 $279 $273 #
plane-surface $-1 0 0 13.599717814259012 0 0 1 1 0 0 forward_v I I I I #
coedge $-1 $589 $590 $277 $433 forward $274 $-1 #
coedge $-1 $429 $276 $278 $434 reversed $172 $-1 #
coedge $-1 $276 $428 $591 $592 reversed $172 $-1 #
coedge $-1 $593 $279 $276 $431 forward $425 $-1 #
edge $-1 $437 -40.762658774540327 $594 -33.178430481073768 $430 $595 forward 7 unknown #
coedge $-1 $278 $277 $596 $597 reversed $109 $-1 #
edge $-1 $598 -11.859452996311758 $436 1.7033594227009519 $427 $599 forward 7 unknown #
edge $-1 $600 1.2809303928265426e-014 $437 13.562812419012722 $428 $601 forward 7 unknown #
coedge $-1 $279 $593 $589 $602 forward $425 $-1 #
vertex $-1 $433 $603 #
vertex $-1 $280 $604 #
straight-curve $-1 28.75799674847098 -38.324469164971944 13.599717814259012 -1 0 0 I I #
coedge $-1 $439 $439 $-1 $605 reversed $283 $-1 #
edge $-1 $606 0 $606 6.2831853071796004 $284 $607 forward 7 unknown #
vertex $-1 $287 $608 #
ellipse-curve $-1 51.400570521038716 -42.116583311705227 7.9776772170668613 0 -0.82903758062907751 0.55919289150049634 1.5 0 0 1 I I #
coedge $-1 $443 $443 $-1 $609 reversed $290 $-1 #
edge $-1 $610 0 $610 6.2831853071796004 $291 $611 forward 7 unknown #
vertex $-1 $294 $612 #
ellipse-curve $-1 57.51599349694196 -42.116583311705227 7.9776772170668613 0 -0.82903758062907751 0.55919289150049634 1.5 0 0 1 I I #
coedge $-1 $447 $447 $-1 $613 reversed $297 $-1 #
edge $-1 $614 0 $614 6.2831853071796004 $298 $615 forward 7 unknown #
vertex $-1 $301 $616 #
ellipse-curve $-1 63.631416472845203 -42.116583311705227 7.9776772170668613 0 -0.82903758062907751 0.55919289150049634 1.5 0 0 1 I I #
face $-1 $-1 $463 $64 $-1 $617 forward single #
loop $-1 $-1 $618 $302 #
plane-surface $-1 0 45.908697458438503 0 0 -1 0 0 0 -1 forward_v I I I I #
coedge $-1 $619 $620 $621 $622 reversed $303 $-1 #
coedge $-1 $623 $305 $307 $461 forward $191 $-1 #
coedge $-1 $305 $623 $619 $624 forward $191 $-1 #
coedge $-1 $621 $308 $305 $458 forward $463 $-1 #
edge $-1 $465 -29.998249429114129 $625 -9.6135061761033178 $457 $626 forward 7 unknown #
coedge $-1 $627 $628 $306 $460 forward $452 $-1 #
edge $-1 $629 -74.744253632990663 $464 -63.50017243860637 $459 $630 forward 7 unknown #
edge $-1 $465 78.254582497864291 $629 91.817394916876992 $307 $631 forward 7 unknown #
coedge $-1 $308 $621 $627 $632 forward $463 $-1 #
loop $-1 $-1 $621 $451 #
vertex $-1 $460 $633 #
vertex $-1 $309 $634 #
straight-curve $-1 -49.804127231722852 53.41531066270656 13.599717814259009 0 -1 0 I I #
coedge $-1 $467 $467 $-1 $635 reversed $312 $-1 #
edge $-1 $636 0 $636 6.2831853071796004 $313 $637 forward 7 unknown #
vertex $-1 $316 $638 #
ellipse-curve $-1 -45.727178581120697 42.116583311705227 7.9776772170668657 0 0.82903758062907751 0.55919289150049634 1.5 0 0 1 I I #
coedge $-1 $471 $471 $-1 $639 reversed $319 $-1 #
edge $-1 $640 0 $640 6.2831853071796004 $320 $641 forward 7 unknown #
vertex $-1 $323 $642 #
ellipse-curve $-1 -39.611755605217446 42.116583311705227 7.9776772170668657 0 0.82903758062907751 0.55919289150049634 1.5 0 0 1 I I #
coedge $-1 $475 $475 $-1 $643 reversed $326 $-1 #
edge $-1 $644 0 $644 6.2831853071796004 $327 $645 forward 7 unknown #
vertex $-1 $330 $646 #
ellipse-curve $-1 -33.496332629314203 42.116583311705227 7.9776772170668657 0 0.82903758062907751 0.55919289150049634 1.5 0 0 1 I I #
face $-1 $-1 $492 $68 $-1 $647 reversed single #
loop $-1 $-1 $488 $331 #
plane-surface $-1 67.708365123447365 0 0 -1 0 0 0 0 1 forward_v I I I I #
coedge $-1 $648 $649 $484 $650 forward $332 $-1 #
coedge $-1 $484 $334 $336 $490 reversed $210 $-1 #
coedge $-1 $334 $483 $482 $650 reversed $210 $-1 #
coedge $-1 $651 $337 $334 $486 forward $492 $-1 #
edge $-1 $494 -74.744253632990663 $652 -63.50017243860637 $485 $653 forward 7 unknown #
coedge $-1 $336 $335 $648 $654 reversed $133 $-1 #
coedge $-1 $655 $656 $335 $489 forward $480 $-1 #
edge $-1 $657 44.205338035737562 $493 57.768150454750256 $488 $658 forward 7 unknown #
edge $-1 $659 78.254582497864291 $494 91.817394916876992 $483 $660 forward 7 unknown #
coedge $-1 $337 $651 $655 $661 forward $492 $-1 #
loop $-1 $-1 $485 $479 #
vertex $-1 $338 $662 #
vertex $-1 $338 $663 #
straight-curve $-1 28.75799674847098 45.908697458438503 2.3556366198747156 -1 0 0 I I #
coedge $-1 $496 $496 $-1 $664 reversed $341 $-1 #
edge $-1 $665 0 $665 6.2831853071796004 $342 $666 forward 7 unknown #
vertex $-1 $345 $667 #
ellipse-curve $-1 51.400570521038716 42.116583311705227 7.9776772170668657 0 0.82903758062907751 0.55919289150049634 1.5 0 0 1 I I #
coedge $-1 $500 $500 $-1 $668 reversed $348 $-1 #
edge $-1 $669 0 $669 6.2831853071796004 $349 $670 forward 7 unknown #
vertex $-1 $352 $671 #
ellipse-curve $-1 57.51599349694196 42.116583311705227 7.9776772170668657 0 0.82903758062907751 0.55919289150049634 1.5 0 0 1 I I #
coedge $-1 $504 $504 $-1 $672 reversed $355 $-1 #
edge $-1 $673 0 $673 6.2831853071796004 $356 $674 forward 7 unknown #
vertex $-1 $359 $675 #
ellipse-curve $-1 63.631416472845203 42.116583311705227 7.9776772170668657 0 0.82903758062907751 0.55919289150049634 1.5 0 0 1 I I #
face $-1 $-1 $375 $54 $-1 $676 reversed single #
loop $-1 $-1 $524 $360 #
plane-surface $-1 0 45.908697458438503 0 0 -1 0 0 0 -1 forward_v I I I I #
coedge $-1 $677 $522 $525 $678 forward $361 $-1 #
coedge $-1 $528 $363 $364 $516 reversed $229 $-1 #
coedge $-1 $522 $677 $363 $514 reversed $361 $-1 #
edge $-1 $529 -13.599717814259012 $679 13.599717814259012 $513 $680 forward 7 unknown #
coedge $-1 $365 $364 $677 $681 forward $145 $-1 #
edge $-1 $520 -67.708365123447365 $679 67.708365123447365 $512 $682 forward 7 unknown #
coedge $-1 $525 $524 $365 $518 reversed $509 $-1 #
edge $-1 $683 -67.708365123447365 $519 67.708365123447365 $517 $684 forward 7 unknown #
vertex $-1 $367 $685 #
vertex $-1 $531 $686 #
straight-curve $-1 67.708365123447365 0 -13.599717814259012 0 -1 0 I I #
coedge $-1 $511 $513 $368 $523 reversed $361 $-1 #
edge $-1 $526 -45.908697458438503 $529 45.908697458438503 $522 $687 forward 7 unknown #
coedge $-1 $517 $369 $374 $532 forward $509 $-1 #
coedge $-1 $369 $517 $511 $678 reversed $509 $-1 #
vertex $-1 $370 $688 #
straight-curve $-1 0 45.908697458438503 13.599717814259012 -1 0 0 I I #
coedge $-1 $371 $512 $373 $531 reversed $229 $-1 #
vertex $-1 $523 $689 #
straight-curve $-1 0 -45.908697458438503 13.599717814259012 1 0 0 I I #
edge $-1 $376 -13.599717814259012 $520 13.599717814259012 $373 $690 forward 7 unknown #
edge $-1 $377 -13.599717814259012 $519 13.599717814259012 $374 $691 forward 7 unknown #
point $-1 67.708365123447365 -45.908697458438503 13.599717814259012 #
point $-1 67.708365123447365 45.908697458438503 13.599717814259012 #
face $-1 $-1 $545 $55 $-1 $692 reversed single #
loop $-1 $-1 $541 $379 #
plane-surface $-1 0 0 -13.599717814259012 0 0 1 1 0 0 forward_v I I I I #
coedge $-1 $693 $694 $387 $549 forward $380 $-1 #
coedge $-1 $382 $553 $543 $695 forward $237 $-1 #
edge $-1 $547 -24.795293226763626 $392 -17.431515236586129 $382 $696 forward 7 unknown #
coedge $-1 $697 $388 $383 $542 forward $536 $-1 #
edge $-1 $393 17.431515236586129 $546 24.795293226763626 $541 $698 forward 7 unknown #
coedge $-1 $699 $385 $539 $695 reversed $545 $-1 #
coedge $-1 $385 $699 $697 $700 reversed $545 $-1 #
loop $-1 $-1 $385 $535 #
vertex $-1 $700 $701 #
vertex $-1 $386 $702 #
straight-curve $-1 -49.804127231722859 -45.908697458438503 0 0 0 1 I I #
edge $-1 $554 -13.599717814259012 $551 13.599717814259012 $538 $703 forward 7 unknown #
coedge $-1 $388 $697 $693 $704 forward $536 $-1 #
vertex $-1 $389 $705 #
straight-curve $-1 -29.378123088792556 -38.544919468261007 -13.599717814259012 1 0 0 I I #
coedge $-1 $539 $390 $694 $706 forward $237 $-1 #
vertex $-1 $706 $707 #
straight-curve $-1 -29.378123088792556 -38.544919468261007 13.599717814259012 -1 0 0 I I #
point $-1 -49.804127231722859 -38.544919468261007 13.599717814259012 #
point $-1 -49.804127231722859 -38.544919468261007 -13.599717814259012 #
plane-surface $-1 0 -45.908697458438503 0 0 1 0 0 0 1 forward_v I I I I #
coedge $-1 $708 $398 $403 $565 forward $245 $-1 #
coedge $-1 $398 $708 $562 $709 forward $245 $-1 #
edge $-1 $563 33.178430481073768 $570 40.762658774540327 $398 $710 forward 7 unknown #
coedge $-1 $407 $401 $560 $709 reversed $408 $-1 #
vertex $-1 $561 $711 #
straight-curve $-1 -29.419383978712041 -45.908697458438503 39.039854782089243 0 0 1 I I #
edge $-1 $570 9.6135061761033178 $568 29.998249429114129 $559 $712 forward 7 unknown #
coedge $-1 $567 $404 $407 $572 reversed $396 $-1 #
coedge $-1 $404 $566 $708 $713 reversed $396 $-1 #
vertex $-1 $713 $714 #
straight-curve $-1 -49.804127231722859 -45.87906726168103 2.3995651944448668 0 -0.55919289150049634 -0.82903758062907751 I I #
vertex $-1 $565 $715 #
straight-curve $-1 -29.419383978712041 -45.90869745843851 2.3556366198747014 0 -0.55919289150049634 -0.82903758062907751 I I #
edge $-1 $716 -13.599717814259012 $409 -2.3556366198747121 $407 $717 forward 7 unknown #
point $-1 -49.804127231722859 -45.908697458438503 2.3556366198747121 #
point $-1 -29.419383978712041 -45.908697458438503 2.3556366198747121 #
edge $-1 $718 1 $718 0 $412 $-1 forward 7 unknown #
vertex $-1 $413 $719 #
ellipse-curve $-1 -45.727178581120697 -37.944120939981133 5.1633158987886674 0 -0.82903758062907751 0.55919289150049634 1.5 0 0 1 I I #
point $-1 -44.227178581120697 -42.116583311705213 7.9776772170668542 #
edge $-1 $720 1 $720 0 $416 $-1 forward 7 unknown #
vertex $-1 $417 $721 #
ellipse-curve $-1 -39.611755605217446 -37.944120939981133 5.1633158987886674 0 -0.82903758062907751 0.55919289150049634 1.5 0 0 1 I I #
point $-1 -38.111755605217446 -42.116583311705213 7.9776772170668542 #
edge $-1 $722 1 $722 0 $420 $-1 forward 7 unknown #
vertex $-1 $421 $723 #
ellipse-curve $-1 -33.496332629314203 -37.944120939981133 5.1633158987886674 0 -0.82903758062907751 0.55919289150049634 1.5 0 0 1 I I #
point $-1 -31.996332629314203 -42.116583311705213 7.9776772170668542 #
loop $-1 $-1 $596 $424 #
plane-surface $-1 0 -45.908697458438503 0 0 1 0 0 0 1 forward_v I I I I #
coedge $-1 $590 $427 $435 $602 reversed $274 $-1 #
coedge $-1 $427 $589 $724 $725 forward $274 $-1 #
coedge $-1 $596 $726 $429 $592 forward $587 $-1 #
edge $-1 $594 25.440136967830231 $600 36.684218162214535 $591 $727 forward 7 unknown #
coedge $-1 $435 $430 $726 $728 forward $425 $-1 #
vertex $-1 $728 $729 #
straight-curve $-1 47.323621870436554 -79.087127939512271 13.599717814259016 0 -1 0 I I #
coedge $-1 $724 $591 $432 $597 forward $587 $-1 #
edge $-1 $600 18.565625121965574 $598 38.950368374976385 $596 $730 forward 7 unknown #
vertex $-1 $433 $731 #
straight-curve $-1 67.708365123447365 -39.276975645816705 12.187568839521273 0 0.55919289150049634 0.82903758062907751 I I #
vertex $-1 $597 $732 #
straight-curve $-1 47.323621870436554 -45.90869745843851 2.3556366198747014 0 0.55919289150049634 0.82903758062907751 I I #
edge $-1 $733 -45.908697458438503 $436 -38.324469164971944 $589 $734 forward 7 unknown #
point $-1 67.708365123447365 -38.324469164971944 13.599717814259012 #
point $-1 47.323621870436554 -38.324469164971944 13.599717814259012 #
edge $-1 $735 1 $735 0 $439 $-1 forward 7 unknown #
vertex $-1 $440 $736 #
ellipse-curve $-1 51.400570521038716 -37.944120939981133 5.1633158987886674 0 -0.82903758062907751 0.55919289150049634 1.5 0 0 1 I I #
point $-1 52.900570521038716 -42.116583311705213 7.9776772170668542 #
edge $-1 $737 1 $737 0 $443 $-1 forward 7 unknown #
vertex $-1 $444 $738 #
ellipse-curve $-1 57.51599349694196 -37.944120939981133 5.1633158987886674 0 -0.82903758062907751 0.55919289150049634 1.5 0 0 1 I I #
point $-1 59.01599349694196 -42.116583311705213 7.9776772170668542 #
edge $-1 $739 1 $739 0 $447 $-1 forward 7 unknown #
vertex $-1 $448 $740 #
ellipse-curve $-1 63.631416472845203 -37.944120939981133 5.1633158987886674 0 -0.82903758062907751 0.55919289150049634 1.5 0 0 1 I I #
point $-1 65.131416472845203 -42.116583311705213 7.9776772170668542 #
plane-surface $-1 0 0 13.599717814259012 0 0 1 1 0 0 forward_v I I I I #
coedge $-1 $628 $627 $620 $741 forward $452 $-1 #
coedge $-1 $620 $454 $456 $624 reversed $303 $-1 #
coedge $-1 $454 $619 $618 $741 reversed $303 $-1 #
coedge $-1 $462 $457 $454 $622 forward $463 $-1 #
edge $-1 $625 -15.090841497734608 $742 -7.5066132042680564 $621 $743 forward 7 unknown #
coedge $-1 $456 $455 $628 $744 reversed $191 $-1 #
edge $-1 $745 -91.817394916876992 $625 -78.254582497864291 $619 $746 forward 7 unknown #
vertex $-1 $458 $747 #
straight-curve $-1 -19.805877802608723 38.324469164971944 13.599717814259016 1 0 0 I I #
coedge $-1 $618 $459 $462 $632 reversed $452 $-1 #
coedge $-1 $459 $618 $623 $744 forward $452 $-1 #
vertex $-1 $460 $748 #
straight-curve $-1 -49.804127231722852 45.908697458438503 77.099890252865379 0 0 1 I I #
straight-curve $-1 -49.804127231722852 -5.4349370951729128 78.475707561426972 0 0.55919289150049634 -0.82903758062907751 I I #
edge $-1 $742 29.419383978712041 $464 49.804127231722852 $627 $749 forward 7 unknown #
point $-1 -49.804127231722852 45.908697458438503 13.599717814259012 #
point $-1 -49.804127231722852 38.324469164971951 13.599717814259009 #
edge $-1 $750 1 $750 0 $467 $-1 forward 7 unknown #
vertex $-1 $468 $751 #
ellipse-curve $-1 -45.727178581120697 37.944120939981126 5.1633158987886638 0 0.82903758062907751 0.55919289150049634 1.5 0 0 1 I I #
point $-1 -44.227178581120697 42.116583311705206 7.9776772170668506 #
edge $-1 $752 1 $752 0 $471 $-1 forward 7 unknown #
vertex $-1 $472 $753 #
ellipse-curve $-1 -39.611755605217446 37.944120939981126 5.1633158987886638 0 0.82903758062907751 0.55919289150049634 1.5 0 0 1 I I #
point $-1 -38.111755605217446 42.116583311705206 7.9776772170668506 #
edge $-1 $754 1 $754 0 $475 $-1 forward 7 unknown #
vertex $-1 $476 $755 #
ellipse-curve $-1 -33.496332629314203 37.944120939981126 5.1633158987886638 0 0.82903758062907751 0.55919289150049634 1.5 0 0 1 I I #
point $-1 -31.996332629314203 42.116583311705206 7.9776772170668506 #
plane-surface $-1 0 45.908697458438503 0 0 -1 0 0 0 -1 forward_v I I I I #
coedge $-1 $756 $482 $487 $654 forward $332 $-1 #
coedge $-1 $482 $756 $651 $757 forward $332 $-1 #
edge $-1 $652 7.5066132042680564 $659 15.090841497734608 $482 $758 forward 7 unknown #
coedge $-1 $491 $485 $649 $757 reversed $492 $-1 #
vertex $-1 $486 $759 #
straight-curve $-1 47.323621870436554 45.908697458438503 77.099890252865379 0 0 1 I I #
edge $-1 $659 18.565625121965574 $657 38.950368374976385 $648 $760 forward 7 unknown #
coedge $-1 $656 $488 $491 $661 reversed $480 $-1 #
coedge $-1 $488 $655 $756 $761 reversed $480 $-1 #
vertex $-1 $761 $762 #
straight-curve $-1 67.708365123447365 13.605158369010997 50.247604310297412 0 0.55919289150049634 -0.82903758062907751 I I #
vertex $-1 $654 $763 #
straight-curve $-1 47.323621870436554 -5.4349370951729128 78.475707561426972 0 0.55919289150049634 -0.82903758062907751 I I #
edge $-1 $764 -13.599717814259012 $493 -2.3556366198747209 $655 $765 forward 7 unknown #
point $-1 67.708365123447365 45.908697458438503 2.3556366198747209 #
point $-1 47.323621870436554 45.90869745843851 2.3556366198747156 #
edge $-1 $766 1 $766 0 $496 $-1 forward 7 unknown #
vertex $-1 $497 $767 #
ellipse-curve $-1 51.400570521038716 37.944120939981126 5.1633158987886638 0 0.82903758062907751 0.55919289150049634 1.5 0 0 1 I I #
point $-1 52.900570521038716 42.116583311705206 7.9776772170668506 #
edge $-1 $768 1 $768 0 $500 $-1 forward 7 unknown #
vertex $-1 $501 $769 #
ellipse-curve $-1 57.51599349694196 37.944120939981126 5.1633158987886638 0 0.82903758062907751 0.55919289150049634 1.5 0 0 1 I I #
point $-1 59.01599349694196 42.116583311705206 7.9776772170668506 #
edge $-1 $770 1 $770 0 $504 $-1 forward 7 unknown #
vertex $-1 $505 $771 #
ellipse-curve $-1 63.631416472845203 37.944120939981126 5.1633158987886638 0 0.82903758062907751 0.55919289150049634 1.5 0 0 1 I I #
point $-1 65.131416472845203 42.116583311705206 7.9776772170668506 #
plane-surface $-1 67.708365123447365 0 0 -1 0 0 0 0 1 forward_v I I I I #
coedge $-1 $513 $511 $515 $681 reversed $361 $-1 #
edge $-1 $526 -13.599717814259012 $683 13.599717814259012 $525 $772 forward 7 unknown #
vertex $-1 $681 $773 #
straight-curve $-1 -67.708365123447365 -45.908697458438503 0 0 0 -1 I I #
edge $-1 $679 -45.908697458438503 $683 45.908697458438503 $677 $774 forward 7 unknown #
straight-curve $-1 0 -45.908697458438503 -13.599717814259012 -1 0 0 I I #
vertex $-1 $518 $775 #
straight-curve $-1 0 45.908697458438503 -13.599717814259012 1 0 0 I I #
point $-1 67.708365123447365 45.908697458438503 -13.599717814259012 #
point $-1 67.708365123447365 -45.908697458438503 -13.599717814259012 #
straight-curve $-1 -67.708365123447365 0 13.599717814259012 0 -1 0 I I #
point $-1 -67.708365123447365 45.908697458438503 13.599717814259012 #
point $-1 -67.708365123447365 -45.908697458438503 13.599717814259012 #
straight-curve $-1 67.708365123447365 -45.908697458438503 0 0 0 -1 I I #
straight-curve $-1 67.708365123447365 45.908697458438503 0 0 0 -1 I I #
plane-surface $-1 0 -45.908697458438503 0 0 1 0 0 0 1 forward_v I I I I #
coedge $-1 $776 $538 $550 $704 reversed $380 $-1 #
coedge $-1 $538 $776 $553 $706 reversed $380 $-1 #
edge $-1 $777 -67.708365123447365 $547 -49.804127231722859 $543 $778 forward 7 unknown #
straight-curve $-1 -49.804127231722859 -21.113404231674878 13.599717814259012 0 1 0 I I #
coedge $-1 $550 $541 $544 $700 forward $536 $-1 #
straight-curve $-1 -49.804127231722859 -21.113404231674878 -13.599717814259012 0 -1 0 I I #
coedge $-1 $544 $543 $776 $779 forward $545 $-1 #
edge $-1 $546 49.804127231722859 $780 67.708365123447365 $544 $781 forward 7 unknown #
point $-1 -49.804127231722859 -45.908697458438503 -13.599717814259012 #
point $-1 -49.804127231722859 -45.908697458438503 13.599717814259012 #
straight-curve $-1 -67.708365123447365 -38.544919468261007 0 0 0 -1 I I #
edge $-1 $780 -45.908697458438503 $551 -38.544919468261007 $693 $782 forward 7 unknown #
point $-1 -67.708365123447365 -38.544919468261007 -13.599717814259012 #
edge $-1 $554 38.544919468261007 $777 45.908697458438503 $694 $783 forward 7 unknown #
point $-1 -67.708365123447365 -38.544919468261007 13.599717814259012 #
coedge $-1 $560 $559 $567 $713 forward $245 $-1 #
edge $-1 $716 -49.804127231722859 $563 -29.419383978712041 $562 $784 forward 7 unknown #
straight-curve $-1 -29.419383978712041 -79.087127939512271 13.599717814259016 0 1 0 I I #
point $-1 -29.419383978712041 -45.908697458438503 13.599717814259012 #
straight-curve $-1 -19.805877802608723 -38.324469164971944 13.599717814259012 -1 0 0 I I #
edge $-1 $568 -40.762658774540327 $716 -33.178430481073768 $708 $785 forward 7 unknown #
point $-1 -49.804127231722852 -38.324469164971944 13.599717814259012 #
point $-1 -29.419383978712041 -38.324469164971944 13.599717814259012 #
vertex $-1 $709 $786 #
straight-curve $-1 -49.804127231722859 -45.908697458438503 0 0 0 -1 I I #
vertex $-1 $575 $787 #
point $-1 -44.227178581120697 -37.944120939981133 5.1633158987886674 #
vertex $-1 $579 $788 #
point $-1 -38.111755605217446 -37.944120939981133 5.1633158987886674 #
vertex $-1 $583 $789 #
point $-1 -31.996332629314203 -37.944120939981133 5.1633158987886674 #
coedge $-1 $726 $596 $590 $725 reversed $587 $-1 #
edge $-1 $733 -13.599717814259012 $598 -2.3556366198747121 $590 $790 forward 7 unknown #
coedge $-1 $591 $724 $593 $728 reversed $587 $-1 #
straight-curve $-1 47.323621870436554 -45.908697458438503 39.039854782089243 0 0 -1 I I #
edge $-1 $594 47.323621870436554 $733 67.708365123447365 $726 $791 forward 7 unknown #
point $-1 47.323621870436554 -45.908697458438503 13.599717814259012 #
straight-curve $-1 28.75799674847098 -45.908697458438503 2.3556366198747156 1 0 0 I I #
point $-1 67.708365123447365 -45.908697458438503 2.3556366198747121 #
point $-1 47.323621870436554 -45.908697458438503 2.3556366198747121 #
vertex $-1 $602 $792 #
straight-curve $-1 67.708365123447365 0 13.599717814259012 0 1 0 I I #
vertex $-1 $605 $793 #
point $-1 52.900570521038716 -37.944120939981133 5.1633158987886674 #
vertex $-1 $609 $794 #
point $-1 59.01599349694196 -37.944120939981133 5.1633158987886674 #
vertex $-1 $613 $795 #
point $-1 65.131416472845203 -37.944120939981133 5.1633158987886674 #
edge $-1 $742 63.50017243860637 $745 74.744253632990663 $618 $796 forward 7 unknown #
vertex $-1 $632 $797 #
straight-curve $-1 -29.419383978712041 53.41531066270656 13.599717814259009 0 1 0 I I #
edge $-1 $745 9.6135061761033178 $629 29.998249429114129 $628 $798 forward 7 unknown #
vertex $-1 $744 $799 #
straight-curve $-1 -29.419383978712041 -5.4349370951729128 78.475707561426972 0 -0.55919289150049634 0.82903758062907751 I I #
point $-1 -29.419383978712041 38.324469164971951 13.599717814259009 #
point $-1 -49.804127231722852 45.90869745843851 2.3556366198747156 #
straight-curve $-1 0 45.908697458438503 13.599717814259012 -1 0 0 I I #
vertex $-1 $635 $800 #
point $-1 -44.227178581120697 37.944120939981126 5.1633158987886638 #
vertex $-1 $639 $801 #
point $-1 -38.111755605217446 37.944120939981126 5.1633158987886638 #
vertex $-1 $643 $802 #
point $-1 -31.996332629314203 37.944120939981126 5.1633158987886638 #
coedge $-1 $649 $648 $656 $761 forward $332 $-1 #
edge $-1 $764 -67.708365123447365 $652 -47.323621870436554 $651 $803 forward 7 unknown #
straight-curve $-1 47.323621870436554 53.41531066270656 13.599717814259009 0 -1 0 I I #
point $-1 47.323621870436554 45.908697458438503 13.599717814259012 #
straight-curve $-1 28.75799674847098 38.324469164971944 13.599717814259016 1 0 0 I I #
edge $-1 $657 38.324469164971951 $764 45.908697458438503 $656 $804 forward 7 unknown #
point $-1 67.708365123447365 38.324469164971951 13.599717814259009 #
point $-1 47.323621870436554 38.324469164971951 13.599717814259009 #
vertex $-1 $761 $805 #
straight-curve $-1 67.708365123447365 45.908697458438503 0 0 0 -1 I I #
vertex $-1 $664 $806 #
point $-1 52.900570521038716 37.944120939981126 5.1633158987886638 #
vertex $-1 $668 $807 #
point $-1 59.01599349694196 37.944120939981126 5.1633158987886638 #
vertex $-1 $672 $808 #
point $-1 65.131416472845203 37.944120939981126 5.1633158987886638 #
straight-curve $-1 -67.708365123447365 45.908697458438503 0 0 0 -1 I I #
point $-1 -67.708365123447365 -45.908697458438503 -13.599717814259012 #
straight-curve $-1 -67.708365123447365 0 -13.599717814259012 0 1 0 I I #
point $-1 -67.708365123447365 45.908697458438503 -13.599717814259012 #
coedge $-1 $694 $693 $699 $779 reversed $380 $-1 #
vertex $-1 $706 $809 #
straight-curve $-1 0 -45.908697458438503 13.599717814259012 1 0 0 I I #
edge $-1 $777 -13.599717814259012 $780 13.599717814259012 $776 $810 forward 7 unknown #
vertex $-1 $704 $811 #
straight-curve $-1 0 -45.908697458438503 -13.599717814259012 -1 0 0 I I #
straight-curve $-1 -67.708365123447365 0 -13.599717814259012 0 1 0 I I #
straight-curve $-1 -67.708365123447365 0 13.599717814259012 0 -1 0 I I #
straight-curve $-1 0 -45.908697458438503 13.599717814259012 1 0 0 I I #
straight-curve $-1 -49.804127231722852 -79.087127939512271 13.599717814259016 0 -1 0 I I #
point $-1 -49.804127231722859 -45.908697458438503 13.599717814259012 #
point $-1 -45.727178581120697 -36.70056456903751 4.3245265615379225 #
point $-1 -39.611755605217446 -36.70056456903751 4.3245265615379225 #
point $-1 -33.496332629314203 -36.70056456903751 4.3245265615379225 #
straight-curve $-1 67.708365123447365 -45.908697458438503 0 0 0 -1 I I #
straight-curve $-1 0 -45.908697458438503 13.599717814259012 1 0 0 I I #
point $-1 67.708365123447365 -45.908697458438503 13.599717814259012 #
point $-1 51.400570521038716 -36.70056456903751 4.3245265615379225 #
point $-1 57.51599349694196 -36.70056456903751 4.3245265615379225 #
point $-1 63.631416472845203 -36.70056456903751 4.3245265615379225 #
straight-curve $-1 -29.419383978712041 45.908697458438503 77.099890252865379 0 0 -1 I I #
point $-1 -29.419383978712041 45.908697458438503 13.599717814259012 #
straight-curve $-1 -19.805877802608723 45.908697458438503 2.3556366198747156 -1 0 0 I I #
point $-1 -29.419383978712041 45.90869745843851 2.3556366198747156 #
point $-1 -45.727178581120697 36.700564569037503 4.3245265615379189 #
point $-1 -39.611755605217446 36.700564569037503 4.3245265615379189 #
point $-1 -33.496332629314203 36.700564569037503 4.3245265615379189 #
straight-curve $-1 0 45.908697458438503 13.599717814259012 -1 0 0 I I #
straight-curve $-1 67.708365123447365 0 13.599717814259012 0 1 0 I I #
point $-1 67.708365123447365 45.908697458438503 13.599717814259012 #
point $-1 51.400570521038716 36.700564569037503 4.3245265615379189 #
point $-1 57.51599349694196 36.700564569037503 4.3245265615379189 #
point $-1 63.631416472845203 36.700564569037503 4.3245265615379189 #
point $-1 -67.708365123447365 -45.908697458438503 13.599717814259012 #
straight-curve $-1 -67.708365123447365 -45.908697458438503 0 0 0 -1 I I #
point $-1 -67.708365123447365 -45.908697458438503 -13.599717814259012 #
End-of-ACIS-data 