500 0 7 0           
7 Unknown 11 ACIS 5.0 NT 24 Thu Mar 25 21:54:43 1999 
-1 9.9999999999999995e-007 1e-010 
body $-1 $7 $-1 $8 #
body $-1 $9 $-1 $10 #
body $-1 $11 $-1 $12 #
body $-1 $13 $-1 $14 #
body $-1 $15 $-1 $16 #
body $-1 $17 $-1 $18 #
body $-1 $19 $-1 $20 #
lump $-1 $-1 $21 $0 #
transform $-1 1 0 0 0 1 0 0 0 1 61.88543351542711 40.218827073306073 9.0810569201286366 1 rotate no_reflect no_shear #
lump $-1 $-1 $22 $1 #
transform $-1 1 0 0 0 1 0 0 0 1 61.88543351542711 40.218827073306073 9.0810569201286366 1 rotate no_reflect no_shear #
lump $-1 $-1 $23 $2 #
transform $-1 1 0 0 0 1 0 0 0 1 61.88543351542711 40.218827073306073 9.0810569201286366 1 rotate no_reflect no_shear #
lump $-1 $-1 $24 $3 #
transform $-1 1 0 0 0 1 0 0 0 1 61.88543351542711 40.218827073306073 9.0810569201286366 1 rotate no_reflect no_shear #
lump $-1 $-1 $25 $4 #
transform $-1 1 0 0 0 1 0 0 0 1 61.88543351542711 40.218827073306073 9.0810569201286366 1 rotate no_reflect no_shear #
lump $-1 $-1 $26 $5 #
transform $-1 1 0 0 0 1 0 0 0 1 61.88543351542711 40.218827073306073 9.0810569201286366 1 rotate no_reflect no_shear #
lump $-1 $-1 $27 $6 #
transform $-1 1 0 0 0 1 0 0 0 1 61.88543351542711 40.218827073306073 9.0810569201286366 1 rotate no_reflect no_shear #
shell $-1 $-1 $-1 $28 $-1 $7 #
shell $-1 $-1 $-1 $29 $-1 $9 #
shell $-1 $-1 $-1 $30 $-1 $11 #
shell $-1 $-1 $-1 $31 $-1 $13 #
shell $-1 $-1 $-1 $32 $-1 $15 #
shell $-1 $-1 $-1 $33 $-1 $17 #
shell $-1 $-1 $-1 $34 $-1 $19 #
face $-1 $35 $36 $21 $-1 $37 forward single #
face $-1 $38 $39 $22 $-1 $40 forward single #
face $-1 $41 $42 $23 $-1 $43 reversed single #
face $-1 $44 $45 $24 $-1 $46 forward single #
face $-1 $47 $48 $25 $-1 $49 forward single #
face $-1 $50 $51 $26 $-1 $52 reversed single #
face $-1 $53 $54 $27 $-1 $55 forward single #
face $-1 $56 $57 $21 $-1 $58 reversed single #
loop $-1 $-1 $59 $28 #
plane-surface $-1 0 0 9.0810569201286366 0 0 1 1 0 0 forward_v I I I I #
face $-1 $60 $61 $22 $-1 $62 reversed single #
loop $-1 $-1 $63 $29 #
plane-surface $-1 -58.511244556300412 0 -2.4592427615909029 0 0 1 1 0 0 forward_v I I I I #
face $-1 $64 $65 $23 $-1 $66 reversed single #
loop $-1 $-1 $67 $30 #
plane-surface $-1 27.595812106179579 109.47432003814839 135.98199621019702 1 0 0 0 -0.87461971476443456 -0.48480960649040278 forward_v I I I I #
face $-1 $68 $69 $24 $-1 $70 forward single #
loop $-1 $71 $72 $31 #
cone-surface $-1 37.392846794536013 38.463814607451745 6.9109295185231527 0 -0.87461971476443456 -0.48480960649040278 0.5 0 0 1 I I 0 1 0.5 forward I I I I #
face $-1 $73 $74 $25 $-1 $75 forward single #
loop $-1 $76 $77 $32 #
cone-surface $-1 52.088398827070677 38.463814607451745 6.9109295185231527 0 -0.87461971476443456 -0.48480960649040278 0.5 0 0 1 I I 0 1 0.5 forward I I I I #
face $-1 $78 $79 $26 $-1 $80 reversed single #
loop $-1 $-1 $81 $33 #
plane-surface $-1 -29.873669088380503 -141.60598683178225 73.482228153583819 -1 0 0 0 -0.81915205242281985 0.57357642473473569 forward_v I I I I #
face $-1 $82 $83 $27 $-1 $84 forward single #
loop $-1 $85 $86 $34 #
cone-surface $-1 -42.505362342777104 -36.611346573313313 4.8753550604400635 0 0.81915205242281985 -0.57357642473473569 1 0 0 1 I I 0 1 1 forward I I I I #
face $-1 $87 $88 $21 $-1 $89 reversed single #
loop $-1 $-1 $90 $35 #
plane-surface $-1 0 0 -9.0810569201286366 0 0 1 1 0 0 forward_v I I I I #
coedge $-1 $91 $92 $93 $94 forward $36 $-1 #
face $-1 $95 $96 $22 $-1 $97 reversed single #
loop $-1 $-1 $98 $38 #
plane-surface $-1 -58.511244556300412 0 -6.5153022253456152 0 0 1 1 0 0 forward_v I I I I #
coedge $-1 $99 $100 $101 $102 forward $39 $-1 #
face $-1 $103 $104 $23 $-1 $105 forward single #
loop $-1 $-1 $106 $41 #
plane-surface $-1 44.740622810803345 1.2218796194759136 75.976690869992623 0 0.87461971476443456 0.48480960649040278 1 0 0 forward_v I I I I #
coedge $-1 $107 $108 $109 $110 reversed $42 $-1 #
face $-1 $-1 $111 $24 $-1 $112 forward single #
loop $-1 $113 $114 $44 #
cone-surface $-1 37.392846794536013 37.448193926982697 6.3479618033781424 0 -0.87461971476443456 -0.48480960649040278 0.25 0 0 1 I I -0.70710678118654746 0.70710678118654746 0.25 forward I I I I #
loop $-1 $-1 $115 $31 #
coedge $-1 $72 $72 $116 $117 reversed $45 $-1 #
face $-1 $-1 $118 $25 $-1 $119 forward single #
loop $-1 $120 $121 $47 #
cone-surface $-1 52.088398827070677 37.448193926982697 6.3479618033781424 0 -0.87461971476443456 -0.48480960649040278 0.25 0 0 1 I I -0.70710678118654746 0.70710678118654746 0.25 forward I I I I #
loop $-1 $-1 $122 $32 #
coedge $-1 $77 $77 $123 $124 reversed $48 $-1 #
face $-1 $125 $126 $26 $-1 $127 reversed single #
loop $-1 $-1 $128 $50 #
plane-surface $-1 -42.505362342777104 -40.218827073306088 2.4901767557080774 0 -0.81915205242281985 0.57357642473473569 1 0 0 forward_v I I I I #
coedge $-1 $129 $130 $131 $132 reversed $51 $-1 #
face $-1 $-1 $133 $27 $-1 $134 forward single #
loop $-1 $135 $136 $53 #
cone-surface $-1 -42.505362342777104 -34.901781964746512 3.6783050705944103 0 0.81915205242281985 -0.57357642473473569 0.5 0 0 1 I I -0.70710678118654746 0.70710678118654746 0.5 forward I I I I #
loop $-1 $-1 $137 $34 #
coedge $-1 $86 $86 $138 $139 reversed $54 $-1 #
face $-1 $140 $141 $21 $-1 $142 reversed single #
loop $-1 $-1 $143 $56 #
plane-surface $-1 0 -40.218827073306073 0 0 1 0 0 0 1 forward_v I I I I #
coedge $-1 $144 $145 $146 $147 forward $57 $-1 #
coedge $-1 $148 $59 $149 $150 forward $36 $-1 #
coedge $-1 $59 $148 $151 $152 forward $36 $-1 #
coedge $-1 $153 $154 $59 $94 reversed $155 $-1 #
edge $-1 $156 -40.218827073306073 $157 40.218827073306073 $93 $158 forward 7 unknown #
face $-1 $159 $160 $22 $-1 $161 reversed single #
loop $-1 $-1 $162 $60 #
plane-surface $-1 -55.137055597173713 0 -4.4872724934682591 -1 0 0 0 0 1 forward_v I I I I #
coedge $-1 $163 $164 $165 $166 forward $61 $-1 #
coedge $-1 $167 $63 $168 $169 reversed $39 $-1 #
coedge $-1 $63 $167 $170 $171 reversed $39 $-1 #
coedge $-1 $162 $172 $63 $102 reversed $96 $-1 #
edge $-1 $173 -40.218827073306073 $174 40.218827073306073 $101 $175 forward 7 unknown #
face $-1 $176 $177 $23 $-1 $178 reversed single #
loop $-1 $-1 $109 $64 #
plane-surface $-1 0 0 9.0810569201286366 0 0 1 1 0 0 forward_v I I I I #
coedge $-1 $179 $180 $181 $182 reversed $65 $-1 #
coedge $-1 $108 $67 $183 $184 reversed $42 $-1 #
coedge $-1 $67 $107 $179 $185 reversed $42 $-1 #
coedge $-1 $181 $186 $67 $110 forward $104 $-1 #
edge $-1 $187 14.518332945768122 $188 16.4344263739209 $109 $189 forward 7 unknown #
loop $-1 $-1 $116 $68 #
plane-surface $-1 44.740622810803345 1.2218796194759136 75.976690869992623 0 0.87461971476443456 0.48480960649040278 1 0 0 forward_v I I I I #
loop $-1 $-1 $190 $44 #
coedge $-1 $114 $114 $115 $191 reversed $69 $-1 #
coedge $-1 $115 $115 $114 $191 forward $71 $-1 #
coedge $-1 $116 $116 $72 $117 forward $111 $-1 #
edge $-1 $192 -4.6609101365882991e-015 $192 6.283185307179596 $116 $193 forward 7 unknown #
loop $-1 $-1 $123 $73 #
plane-surface $-1 44.740622810803345 1.2218796194759136 75.976690869992623 0 0.87461971476443456 0.48480960649040278 1 0 0 forward_v I I I I #
loop $-1 $-1 $194 $47 #
coedge $-1 $121 $121 $122 $195 reversed $74 $-1 #
coedge $-1 $122 $122 $121 $195 forward $76 $-1 #
coedge $-1 $123 $123 $77 $124 forward $118 $-1 #
edge $-1 $196 -4.6609101365882991e-015 $196 6.283185307179596 $123 $197 forward 7 unknown #
face $-1 $198 $199 $26 $-1 $200 reversed single #
loop $-1 $-1 $201 $78 #
plane-surface $-1 -55.137055597173706 -141.60598683178225 73.482228153583819 1 0 0 0 0.81915205242281985 -0.57357642473473569 forward_v I I I I #
coedge $-1 $202 $203 $204 $205 reversed $79 $-1 #
coedge $-1 $130 $81 $206 $207 reversed $51 $-1 #
coedge $-1 $81 $129 $202 $208 reversed $51 $-1 #
coedge $-1 $204 $209 $81 $132 forward $210 $-1 #
edge $-1 $211 30.58416634258505 $212 35.199150177859764 $131 $213 forward 7 unknown #
loop $-1 $-1 $138 $82 #
plane-surface $-1 -42.505362342777104 -40.218827073306088 2.4901767557080774 0 -0.81915205242281985 0.57357642473473569 1 0 0 forward_v I I I I #
loop $-1 $-1 $214 $53 #
coedge $-1 $136 $136 $137 $215 reversed $83 $-1 #
coedge $-1 $137 $137 $136 $215 forward $85 $-1 #
coedge $-1 $138 $138 $86 $139 forward $133 $-1 #
edge $-1 $216 -2.0347332158398754e-015 $216 6.2831853071795987 $138 $217 forward 7 unknown #
face $-1 $218 $219 $21 $-1 $220 reversed single #
loop $-1 $-1 $221 $87 #
plane-surface $-1 -61.88543351542711 0 0 1 0 0 0 0 -1 forward_v I I I I #
coedge $-1 $222 $151 $223 $224 forward $88 $-1 #
coedge $-1 $225 $90 $222 $226 forward $57 $-1 #
coedge $-1 $90 $225 $227 $228 forward $57 $-1 #
coedge $-1 $154 $153 $90 $147 reversed $155 $-1 #
edge $-1 $229 -40.218827073306073 $230 40.218827073306073 $146 $231 forward 7 unknown #
coedge $-1 $92 $91 $232 $233 forward $36 $-1 #
coedge $-1 $234 $235 $91 $150 reversed $219 $-1 #
edge $-1 $157 -61.88543351542711 $236 61.88543351542711 $149 $237 forward 7 unknown #
coedge $-1 $143 $238 $92 $152 reversed $88 $-1 #
edge $-1 $239 -61.88543351542711 $156 61.88543351542711 $151 $240 forward 7 unknown #
coedge $-1 $146 $93 $238 $241 forward $155 $-1 #
coedge $-1 $93 $146 $234 $242 reversed $155 $-1 #
loop $-1 $-1 $153 $218 #
vertex $-1 $94 $243 #
vertex $-1 $94 $244 #
straight-curve $-1 61.88543351542711 0 9.0810569201286366 0 1 0 I I #
face $-1 $245 $246 $22 $-1 $247 reversed single #
loop $-1 $-1 $248 $95 #
plane-surface $-1 0 -40.218827073306073 0 0 1 0 0 0 1 forward_v I I I I #
coedge $-1 $165 $101 $249 $250 reversed $96 $-1 #
coedge $-1 $251 $98 $248 $252 reversed $61 $-1 #
coedge $-1 $98 $251 $253 $254 reversed $61 $-1 #
coedge $-1 $172 $162 $98 $166 reversed $96 $-1 #
edge $-1 $255 -40.218827073306073 $256 40.218827073306073 $165 $257 forward 7 unknown #
coedge $-1 $100 $99 $258 $259 reversed $39 $-1 #
coedge $-1 $260 $261 $99 $169 forward $262 $-1 #
edge $-1 $263 -32.629811237276904 $174 -25.881433319023508 $168 $264 forward 7 unknown #
coedge $-1 $265 $249 $100 $171 forward $160 $-1 #
edge $-1 $173 25.881433319023508 $266 32.629811237276904 $170 $267 forward 7 unknown #
coedge $-1 $101 $165 $260 $268 reversed $96 $-1 #
vertex $-1 $171 $269 #
vertex $-1 $169 $270 #
straight-curve $-1 -55.137055597173713 0 -2.4592427615909029 0 1 0 I I #
face $-1 $-1 $271 $23 $-1 $272 reversed single #
loop $-1 $-1 $273 $103 #
plane-surface $-1 61.88543351542711 0 0 -1 0 0 0 0 1 forward_v I I I I #
coedge $-1 $274 $106 $108 $185 forward $65 $-1 #
coedge $-1 $106 $274 $273 $275 reversed $65 $-1 #
coedge $-1 $276 $109 $106 $182 forward $104 $-1 #
edge $-1 $188 5.2255007007779071 $277 39.515122110025438 $181 $278 forward 7 unknown #
coedge $-1 $279 $280 $107 $184 forward $271 $-1 #
edge $-1 $281 -62.366665361136057 $187 -58.909941184969874 $183 $282 forward 7 unknown #
edge $-1 $188 76.485394532732784 $281 80.437654146612175 $108 $283 forward 7 unknown #
coedge $-1 $109 $276 $279 $284 forward $104 $-1 #
vertex $-1 $184 $285 #
vertex $-1 $110 $286 #
straight-curve $-1 27.595812106179579 54.737160019074196 9.0810569201286384 0 -1 0 I I #
coedge $-1 $190 $190 $-1 $287 reversed $113 $-1 #
edge $-1 $288 0 $288 6.2831853071796004 $114 $289 forward 7 unknown #
vertex $-1 $117 $290 #
ellipse-curve $-1 37.392846794536013 39.260780359229685 7.352694832045561 0 0.87461971476443456 0.48480960649040278 0.5 0 0 1 I I #
coedge $-1 $194 $194 $-1 $291 reversed $120 $-1 #
edge $-1 $292 0 $292 6.2831853071796004 $121 $293 forward 7 unknown #
vertex $-1 $124 $294 #
ellipse-curve $-1 52.088398827070677 39.260780359229685 7.352694832045561 0 0.87461971476443456 0.48480960649040278 0.5 0 0 1 I I #
face $-1 $-1 $210 $26 $-1 $295 forward single #
loop $-1 $-1 $296 $125 #
plane-surface $-1 0 -40.218827073306073 0 0 1 0 0 0 1 forward_v I I I I #
coedge $-1 $297 $298 $299 $300 reversed $126 $-1 #
coedge $-1 $301 $128 $130 $208 forward $79 $-1 #
coedge $-1 $128 $301 $297 $302 forward $79 $-1 #
coedge $-1 $299 $131 $128 $205 forward $210 $-1 #
edge $-1 $212 8.6209879169919503 $303 33.884374425785154 $204 $304 forward 7 unknown #
coedge $-1 $305 $306 $129 $207 forward $199 $-1 #
edge $-1 $307 -34.250937321083811 $211 -27.660057156663271 $206 $308 forward 7 unknown #
edge $-1 $212 -8.0459789424034298 $307 -2.4884734274515653e-014 $130 $309 forward 7 unknown #
coedge $-1 $131 $299 $305 $310 forward $210 $-1 #
loop $-1 $-1 $299 $198 #
vertex $-1 $207 $311 #
vertex $-1 $132 $312 #
straight-curve $-1 -29.873669088380503 -70.802993415891123 9.0810569201286384 0 1 0 I I #
coedge $-1 $214 $214 $-1 $313 reversed $135 $-1 #
edge $-1 $314 0 $314 6.2831853071796004 $136 $315 forward 7 unknown #
vertex $-1 $139 $316 #
ellipse-curve $-1 -42.505362342777104 -37.911335155668716 5.7856168379183615 0 -0.81915205242281985 0.57357642473473569 1 0 0 1 I I #
face $-1 $-1 $155 $21 $-1 $317 reversed single #
loop $-1 $-1 $234 $140 #
plane-surface $-1 0 40.218827073306073 0 0 -1 0 0 0 -1 forward_v I I I I #
coedge $-1 $318 $232 $235 $319 forward $141 $-1 #
coedge $-1 $238 $143 $144 $226 reversed $88 $-1 #
coedge $-1 $232 $318 $143 $224 reversed $141 $-1 #
edge $-1 $239 -9.0810569201286366 $320 9.0810569201286366 $223 $321 forward 7 unknown #
coedge $-1 $145 $144 $318 $322 forward $57 $-1 #
edge $-1 $230 -61.88543351542711 $320 61.88543351542711 $222 $323 forward 7 unknown #
coedge $-1 $235 $234 $145 $228 reversed $219 $-1 #
edge $-1 $324 -61.88543351542711 $229 61.88543351542711 $227 $325 forward 7 unknown #
vertex $-1 $147 $326 #
vertex $-1 $241 $327 #
straight-curve $-1 61.88543351542711 0 -9.0810569201286366 0 -1 0 I I #
coedge $-1 $221 $223 $148 $233 reversed $141 $-1 #
edge $-1 $236 -40.218827073306073 $239 40.218827073306073 $232 $328 forward 7 unknown #
coedge $-1 $227 $149 $154 $242 forward $219 $-1 #
coedge $-1 $149 $227 $221 $319 reversed $219 $-1 #
vertex $-1 $150 $329 #
straight-curve $-1 0 40.218827073306073 9.0810569201286366 -1 0 0 I I #
coedge $-1 $151 $222 $153 $241 reversed $88 $-1 #
vertex $-1 $233 $330 #
straight-curve $-1 0 -40.218827073306073 9.0810569201286366 1 0 0 I I #
edge $-1 $156 -9.0810569201286366 $230 9.0810569201286366 $153 $331 forward 7 unknown #
edge $-1 $157 -9.0810569201286366 $229 9.0810569201286366 $154 $332 forward 7 unknown #
point $-1 61.88543351542711 -40.218827073306073 9.0810569201286366 #
point $-1 61.88543351542711 40.218827073306073 9.0810569201286366 #
face $-1 $-1 $262 $22 $-1 $333 reversed single #
loop $-1 $-1 $334 $159 #
plane-surface $-1 -61.88543351542711 0 0 1 0 0 0 0 -1 forward_v I I I I #
coedge $-1 $249 $265 $163 $252 forward $160 $-1 #
coedge $-1 $170 $248 $162 $250 forward $160 $-1 #
edge $-1 $256 -4.2716659786114857 $173 -0.2156065148567734 $249 $335 forward 7 unknown #
coedge $-1 $164 $163 $334 $336 reversed $61 $-1 #
edge $-1 $337 -32.629811237276904 $256 -25.881433319023508 $248 $338 forward 7 unknown #
coedge $-1 $261 $260 $164 $254 forward $262 $-1 #
edge $-1 $255 25.881433319023508 $339 32.629811237276904 $253 $340 forward 7 unknown #
vertex $-1 $254 $341 #
vertex $-1 $252 $342 #
straight-curve $-1 -55.137055597173713 0 -6.5153022253456152 0 -1 0 I I #
coedge $-1 $343 $344 $167 $259 forward $246 $-1 #
edge $-1 $266 -40.218827073306073 $263 40.218827073306073 $258 $345 forward 7 unknown #
coedge $-1 $253 $168 $172 $268 forward $262 $-1 #
coedge $-1 $168 $253 $343 $346 reversed $262 $-1 #
loop $-1 $-1 $253 $245 #
vertex $-1 $346 $347 #
straight-curve $-1 -29.255622278150206 40.218827073306073 -2.4592427615909029 1 0 0 I I #
coedge $-1 $248 $170 $344 $348 forward $160 $-1 #
vertex $-1 $348 $349 #
straight-curve $-1 -29.255622278150206 -40.218827073306073 -2.4592427615909029 -1 0 0 I I #
edge $-1 $174 0.2156065148567734 $255 4.2716659786114857 $260 $350 forward 7 unknown #
point $-1 -55.137055597173713 -40.218827073306073 -2.4592427615909029 #
point $-1 -55.137055597173713 40.218827073306073 -2.4592427615909029 #
loop $-1 $-1 $183 $176 #
plane-surface $-1 0 40.218827073306073 0 0 -1 0 0 0 -1 forward_v I I I I #
coedge $-1 $351 $352 $180 $275 forward $177 $-1 #
coedge $-1 $180 $179 $280 $353 reversed $65 $-1 #
edge $-1 $277 43.556228172751894 $354 47.508487786631271 $273 $355 forward 7 unknown #
coedge $-1 $186 $181 $352 $356 forward $104 $-1 #
vertex $-1 $356 $357 #
straight-curve $-1 22.370311405401672 38.302733645153289 9.0810569201286384 1 0 0 I I #
coedge $-1 $358 $183 $186 $284 reversed $271 $-1 #
coedge $-1 $183 $358 $274 $353 forward $271 $-1 #
vertex $-1 $184 $359 #
straight-curve $-1 27.595812106179579 40.218827073306073 67.990998105098512 0 0 1 I I #
straight-curve $-1 27.595812106179579 1.2218796194759136 75.976690869992623 0 0.48480960649040278 -0.87461971476443456 I I #
edge $-1 $360 -61.88543351542711 $187 -27.595812106179579 $279 $361 forward 7 unknown #
point $-1 27.595812106179579 40.218827073306073 9.0810569201286366 #
point $-1 27.595812106179579 38.302733645153296 9.0810569201286313 #
edge $-1 $362 1 $362 0 $190 $-1 forward 7 unknown #
vertex $-1 $191 $363 #
ellipse-curve $-1 37.392846794536013 37.666848855673805 6.4691642050007427 0 0.87461971476443456 0.48480960649040278 0.5 0 0 1 I I #
point $-1 37.892846794536013 39.260780359229685 7.3526948320455636 #
edge $-1 $364 1 $364 0 $194 $-1 forward 7 unknown #
vertex $-1 $195 $365 #
ellipse-curve $-1 52.088398827070677 37.666848855673805 6.4691642050007427 0 0.87461971476443456 0.48480960649040278 0.5 0 0 1 I I #
point $-1 52.588398827070677 39.260780359229685 7.3526948320455636 #
plane-surface $-1 0 0 9.0810569201286366 0 0 1 1 0 0 forward_v I I I I #
coedge $-1 $306 $305 $298 $366 forward $199 $-1 #
coedge $-1 $298 $201 $203 $302 reversed $126 $-1 #
coedge $-1 $201 $297 $296 $366 reversed $126 $-1 #
coedge $-1 $209 $204 $201 $300 forward $210 $-1 #
edge $-1 $303 -35.199150177859764 $367 -30.58416634258505 $299 $368 forward 7 unknown #
coedge $-1 $203 $202 $306 $369 reversed $79 $-1 #
edge $-1 $370 2.4884734274515653e-014 $303 8.0459789424034298 $297 $371 forward 7 unknown #
vertex $-1 $205 $372 #
straight-curve $-1 -21.252681171388552 -35.603843238031359 9.0810569201286366 -1 0 0 I I #
coedge $-1 $296 $206 $209 $310 reversed $199 $-1 #
coedge $-1 $206 $296 $301 $369 forward $199 $-1 #
vertex $-1 $207 $373 #
straight-curve $-1 -29.873669088380503 -40.218827073306073 36.741114076791909 0 0 1 I I #
straight-curve $-1 -29.873669088380503 -40.218827073306088 2.4901767557080774 0 -0.57357642473473569 -0.81915205242281985 I I #
edge $-1 $367 -55.137055597173706 $211 -29.873669088380503 $305 $374 forward 7 unknown #
point $-1 -29.873669088380503 -40.218827073306073 9.0810569201286366 #
point $-1 -29.873669088380503 -35.603843238031359 9.0810569201286366 #
edge $-1 $375 1 $375 0 $214 $-1 forward 7 unknown #
vertex $-1 $215 $376 #
ellipse-curve $-1 -42.505362342777104 -35.311357990957923 3.965093282961778 0 -0.81915205242281985 0.57357642473473569 1 0 0 1 I I #
point $-1 -41.505362342777104 -37.911335155668702 5.785616837918349 #
plane-surface $-1 61.88543351542711 0 0 -1 0 0 0 0 1 forward_v I I I I #
coedge $-1 $223 $221 $225 $322 reversed $141 $-1 #
edge $-1 $236 -9.0810569201286366 $324 9.0810569201286366 $235 $377 forward 7 unknown #
vertex $-1 $322 $378 #
straight-curve $-1 -61.88543351542711 -40.218827073306073 0 0 0 -1 I I #
edge $-1 $320 -40.218827073306073 $324 40.218827073306073 $318 $379 forward 7 unknown #
straight-curve $-1 0 -40.218827073306073 -9.0810569201286366 -1 0 0 I I #
vertex $-1 $228 $380 #
straight-curve $-1 0 40.218827073306073 -9.0810569201286366 1 0 0 I I #
point $-1 61.88543351542711 40.218827073306073 -9.0810569201286366 #
point $-1 61.88543351542711 -40.218827073306073 -9.0810569201286366 #
straight-curve $-1 -61.88543351542711 0 9.0810569201286366 0 -1 0 I I #
point $-1 -61.88543351542711 40.218827073306073 9.0810569201286366 #
point $-1 -61.88543351542711 -40.218827073306073 9.0810569201286366 #
straight-curve $-1 61.88543351542711 -40.218827073306073 0 0 0 -1 I I #
straight-curve $-1 61.88543351542711 40.218827073306073 0 0 0 -1 I I #
plane-surface $-1 0 40.218827073306073 0 0 -1 0 0 0 -1 forward_v I I I I #
coedge $-1 $344 $343 $251 $336 forward $246 $-1 #
straight-curve $-1 -55.137055597173713 -40.218827073306073 -2.2436362467341295 0 0 1 I I #
edge $-1 $339 -40.218827073306073 $337 40.218827073306073 $334 $381 forward 7 unknown #
vertex $-1 $252 $382 #
straight-curve $-1 -29.255622278150206 -40.218827073306073 -6.5153022253456152 1 0 0 I I #
vertex $-1 $254 $383 #
straight-curve $-1 -29.255622278150206 40.218827073306073 -6.5153022253456152 -1 0 0 I I #
point $-1 -55.137055597173713 40.218827073306073 -6.5153022253456152 #
point $-1 -55.137055597173713 -40.218827073306073 -6.5153022253456152 #
coedge $-1 $334 $258 $261 $346 forward $246 $-1 #
coedge $-1 $258 $334 $265 $348 reversed $246 $-1 #
straight-curve $-1 -61.88543351542711 0 -2.4592427615909029 0 1 0 I I #
edge $-1 $263 2.4592427615909029 $339 6.5153022253456152 $261 $384 forward 7 unknown #
point $-1 -61.88543351542711 40.218827073306073 -2.4592427615909029 #
edge $-1 $266 2.4592427615909029 $337 6.5153022253456152 $344 $385 forward 7 unknown #
point $-1 -61.88543351542711 -40.218827073306073 -2.4592427615909029 #
straight-curve $-1 -55.137055597173713 40.218827073306073 -2.2436362467341295 0 0 -1 I I #
coedge $-1 $352 $273 $358 $386 reversed $177 $-1 #
coedge $-1 $273 $351 $276 $356 reversed $177 $-1 #
edge $-1 $354 -39.515122110025438 $281 -5.2255007007779071 $280 $387 forward 7 unknown #
vertex $-1 $275 $388 #
straight-curve $-1 61.88543351542711 17.186255804515262 47.176192780795517 0 0.48480960649040278 -0.87461971476443456 I I #
edge $-1 $277 38.302733645153296 $360 40.218827073306073 $352 $389 forward 7 unknown #
point $-1 61.88543351542711 38.302733645153296 9.0810569201286313 #
coedge $-1 $280 $279 $351 $386 forward $271 $-1 #
point $-1 27.595812106179579 40.218827073306073 5.6243327439624551 #
vertex $-1 $356 $390 #
straight-curve $-1 0 40.218827073306073 9.0810569201286366 -1 0 0 I I #
vertex $-1 $287 $391 #
point $-1 37.892846794536013 37.666848855673805 6.4691642050007427 #
vertex $-1 $291 $392 #
point $-1 52.588398827070677 37.666848855673805 6.4691642050007427 #
edge $-1 $367 27.660057156663271 $370 34.250937321083811 $296 $393 forward 7 unknown #
vertex $-1 $310 $394 #
straight-curve $-1 -55.137055597173706 -70.802993415891123 9.0810569201286384 0 -1 0 I I #
edge $-1 $370 -33.884374425785154 $307 -8.6209879169919503 $306 $395 forward 7 unknown #
vertex $-1 $369 $396 #
straight-curve $-1 -55.137055597173706 -40.218827073306088 2.4901767557080774 0 0.57357642473473569 0.81915205242281985 I I #
point $-1 -55.137055597173706 -35.603843238031359 9.0810569201286366 #
point $-1 -29.873669088380503 -40.218827073306073 2.4901767557080978 #
straight-curve $-1 0 -40.218827073306073 9.0810569201286366 1 0 0 I I #
vertex $-1 $313 $397 #
point $-1 -41.505362342777104 -35.311357990957923 3.965093282961778 #
straight-curve $-1 -61.88543351542711 40.218827073306073 0 0 0 -1 I I #
point $-1 -61.88543351542711 -40.218827073306073 -9.0810569201286366 #
straight-curve $-1 -61.88543351542711 0 -9.0810569201286366 0 1 0 I I #
point $-1 -61.88543351542711 40.218827073306073 -9.0810569201286366 #
straight-curve $-1 -61.88543351542711 0 -6.5153022253456152 0 -1 0 I I #
point $-1 -61.88543351542711 -40.218827073306073 -6.5153022253456152 #
point $-1 -61.88543351542711 40.218827073306073 -6.5153022253456152 #
straight-curve $-1 -61.88543351542711 40.218827073306073 0 0 0 -1 I I #
straight-curve $-1 -61.88543351542711 -40.218827073306073 0 0 0 -1 I I #
edge $-1 $360 -9.0810569201286366 $354 -5.6243327439624551 $351 $398 forward 7 unknown #
straight-curve $-1 22.370311405401672 40.218827073306073 5.6243327439624551 -1 0 0 I I #
point $-1 61.88543351542711 40.218827073306073 5.6243327439624551 #
straight-curve $-1 61.88543351542711 0 9.0810569201286366 0 1 0 I I #
point $-1 61.88543351542711 40.218827073306073 9.0810569201286366 #
point $-1 37.392846794536013 37.229538998291588 6.2267594017555421 #
point $-1 52.088398827070677 37.229538998291588 6.2267594017555421 #
straight-curve $-1 -55.137055597173706 -40.218827073306073 36.741114076791909 0 0 -1 I I #
point $-1 -55.137055597173706 -40.218827073306073 9.0810569201286366 #
straight-curve $-1 -21.252681171388552 -40.218827073306073 2.490176755708096 1 0 0 I I #
point $-1 -55.137055597173706 -40.218827073306073 2.4901767557080978 #
point $-1 -42.505362342777104 -34.492205938535101 3.3915168582270425 #
straight-curve $-1 61.88543351542711 40.218827073306073 0 0 0 -1 I I #
End-of-ACIS-data 