500 0 10 0           
7 Unknown 11 ACIS 5.0 NT 24 Fri Mar 26 14:59:25 1999 
-1 9.9999999999999995e-007 1e-010 
body $-1 $10 $-1 $11 #
body $-1 $12 $-1 $13 #
body $-1 $14 $-1 $15 #
body $-1 $16 $-1 $17 #
body $-1 $18 $-1 $19 #
body $-1 $20 $-1 $21 #
body $-1 $22 $-1 $23 #
body $-1 $24 $-1 $25 #
body $-1 $26 $-1 $27 #
body $-1 $28 $-1 $29 #
lump $-1 $-1 $30 $0 #
transform $-1 1 0 0 0 1 0 0 0 1 67.422711874752039 29.587638268129808 12.068924697536223 1 rotate no_reflect no_shear #
lump $-1 $-1 $31 $1 #
transform $-1 1 0 0 0 1 0 0 0 1 67.422711874752039 -7.5284056859730688 21.355775695377623 1 rotate no_reflect no_shear #
lump $-1 $-1 $32 $2 #
transform $-1 0.52991925155115449 0 0.84804810408105047 0 1 0 -0.84804810408105047 0 0.52991925155115449 -114.35540595477279 25.235105502453131 85.086263578537142 1 rotate no_reflect no_shear #
lump $-1 $-1 $33 $3 #
transform $-1 0.52991925155115449 0 0.84804810408105047 0 -1 0 0.84804810408105047 0 -0.52991925155115449 6.4090375081352757 22.994698475902791 16.930288851536552 1 rotate no_reflect no_shear #
lump $-1 $-1 $34 $4 #
transform $-1 0.52991925155115449 0 0.84804810408105047 0 -1 0 0.84804810408105047 0 -0.52991925155115449 6.4090375081352757 27.475512529003467 16.930288851536552 1 rotate no_reflect no_shear #
lump $-1 $-1 $35 $5 #
transform $-1 0.52991925155115449 0 0.84804810408105047 0 1 0 -0.84804810408105047 0 0.52991925155115449 -114.35540595477279 47.294338084609869 85.086263578537142 1 rotate no_reflect no_shear #
lump $-1 $-1 $36 $6 #
transform $-1 0.52991925155115449 0 0.84804810408105047 0 -1 0 0.84804810408105047 0 -0.52991925155115449 6.4090375081352757 45.053931058059533 16.930288851536552 1 rotate no_reflect no_shear #
lump $-1 $-1 $37 $7 #
transform $-1 0.52991925155115449 0 0.84804810408105047 0 -1 0 0.84804810408105047 0 -0.52991925155115449 6.4090375081352757 49.534745111160206 16.930288851536552 1 rotate no_reflect no_shear #
lump $-1 $-1 $38 $8 #
transform $-1 0.80901698891910034 0 -0.5877852598018023 0 1 0 0.5877852598018023 0 0.80901698891910034 105.01333748984652 32.278021333001753 202.1563873537815 1 rotate no_reflect no_shear #
lump $-1 $-1 $39 $9 #
transform $-1 0.80901698891910034 0 -0.5877852598018023 0 -1 0 -0.5877852598018023 0 -0.80901698891910034 125.50830791090013 32.278021333001753 15.907851463183761 1 rotate no_reflect no_shear #
shell $-1 $-1 $-1 $40 $-1 $10 #
shell $-1 $-1 $-1 $41 $-1 $12 #
shell $-1 $-1 $-1 $42 $-1 $14 #
shell $-1 $-1 $-1 $43 $-1 $16 #
shell $-1 $-1 $-1 $44 $-1 $18 #
shell $-1 $-1 $-1 $45 $-1 $20 #
shell $-1 $-1 $-1 $46 $-1 $22 #
shell $-1 $-1 $-1 $47 $-1 $24 #
shell $-1 $-1 $-1 $48 $-1 $26 #
shell $-1 $-1 $-1 $49 $-1 $28 #
face $-1 $50 $51 $30 $-1 $52 forward single #
face $-1 $53 $54 $31 $-1 $55 forward single #
face $-1 $56 $57 $32 $-1 $58 forward single #
face $-1 $59 $60 $33 $-1 $61 forward single #
face $-1 $62 $63 $34 $-1 $64 forward single #
face $-1 $65 $66 $35 $-1 $67 forward single #
face $-1 $68 $69 $36 $-1 $70 forward single #
face $-1 $71 $72 $37 $-1 $73 forward single #
face $-1 $74 $75 $38 $-1 $76 forward single #
face $-1 $77 $78 $39 $-1 $79 forward single #
face $-1 $80 $81 $30 $-1 $82 reversed single #
loop $-1 $-1 $83 $40 #
plane-surface $-1 0 0 12.068924697536223 0 0 1 1 0 0 forward_v I I I I #
face $-1 $84 $85 $31 $-1 $86 reversed single #
loop $-1 $-1 $87 $41 #
plane-surface $-1 0 0 2.7820736996948252 0 0 1 1 0 0 forward_v I I I I #
face $-1 $88 $89 $32 $-1 $90 reversed single #
loop $-1 $-1 $91 $42 #
plane-surface $-1 0 0 134.84542374950408 0 0 1 1 0 0 forward_v I I I I #
face $-1 $92 $93 $33 $-1 $94 forward single #
loop $-1 $95 $96 $43 #
cone-surface $-1 0 0 -2.0928983428449364 0 0 1 1 0 0 1 I I 0 1 1 forward I I I I #
face $-1 $97 $98 $34 $-1 $99 forward single #
loop $-1 $100 $101 $44 #
cone-surface $-1 0 0 -2.0928983428449364 0 0 1 1 0 0 1 I I 0 1 1 forward I I I I #
face $-1 $102 $103 $35 $-1 $104 reversed single #
loop $-1 $-1 $105 $45 #
plane-surface $-1 0 0 134.84542374950408 0 0 1 1 0 0 forward_v I I I I #
face $-1 $106 $107 $36 $-1 $108 forward single #
loop $-1 $109 $110 $46 #
cone-surface $-1 0 0 -2.0928983428449364 0 0 1 1 0 0 1 I I 0 1 1 forward I I I I #
face $-1 $111 $112 $37 $-1 $113 forward single #
loop $-1 $114 $115 $47 #
cone-surface $-1 0 0 -2.0928983428449364 0 0 1 1 0 0 1 I I 0 1 1 forward I I I I #
face $-1 $116 $117 $38 $-1 $118 reversed single #
loop $-1 $-1 $119 $48 #
plane-surface $-1 0 0 134.84542374950408 0 0 1 1 0 0 forward_v I I I I #
face $-1 $120 $121 $39 $-1 $122 forward single #
loop $-1 $123 $124 $49 #
cone-surface $-1 0 0 -2.5180822168645278 0 0 1 2.5 0 0 1 I I 0 1 2.5 forward I I I I #
face $-1 $125 $126 $30 $-1 $127 reversed single #
loop $-1 $-1 $128 $50 #
plane-surface $-1 0 0 -12.068924697536223 0 0 1 1 0 0 forward_v I I I I #
coedge $-1 $129 $130 $131 $132 forward $51 $-1 #
face $-1 $133 $134 $31 $-1 $135 reversed single #
loop $-1 $-1 $136 $53 #
plane-surface $-1 0 0 -2.7820736996948252 0 0 1 1 0 0 forward_v I I I I #
coedge $-1 $137 $138 $139 $140 forward $54 $-1 #
face $-1 $141 $142 $32 $-1 $143 reversed single #
loop $-1 $-1 $144 $56 #
plane-surface $-1 0 0 -134.84542374950408 0 0 1 1 0 0 forward_v I I I I #
coedge $-1 $145 $146 $147 $148 forward $57 $-1 #
face $-1 $-1 $149 $33 $-1 $150 forward single #
loop $-1 $-1 $151 $59 #
plane-surface $-1 0 0 -3.6857966856898718 0 0 -1 -1 0 0 forward_v I I I I #
loop $-1 $-1 $152 $43 #
coedge $-1 $96 $96 $151 $153 reversed $60 $-1 #
face $-1 $-1 $154 $34 $-1 $155 forward single #
loop $-1 $-1 $156 $62 #
plane-surface $-1 0 0 -3.6857966856898718 0 0 -1 -1 0 0 forward_v I I I I #
loop $-1 $-1 $157 $44 #
coedge $-1 $101 $101 $156 $158 reversed $63 $-1 #
face $-1 $159 $160 $35 $-1 $161 reversed single #
loop $-1 $-1 $162 $65 #
plane-surface $-1 0 0 -134.84542374950408 0 0 1 1 0 0 forward_v I I I I #
coedge $-1 $163 $164 $165 $166 forward $66 $-1 #
face $-1 $-1 $167 $36 $-1 $168 forward single #
loop $-1 $-1 $169 $68 #
plane-surface $-1 0 0 -3.6857966856898718 0 0 -1 -1 0 0 forward_v I I I I #
loop $-1 $-1 $170 $46 #
coedge $-1 $110 $110 $169 $171 reversed $69 $-1 #
face $-1 $-1 $172 $37 $-1 $173 forward single #
loop $-1 $-1 $174 $71 #
plane-surface $-1 0 0 -3.6857966856898718 0 0 -1 -1 0 0 forward_v I I I I #
loop $-1 $-1 $175 $47 #
coedge $-1 $115 $115 $174 $176 reversed $72 $-1 #
face $-1 $177 $178 $38 $-1 $179 reversed single #
loop $-1 $-1 $180 $74 #
plane-surface $-1 0 0 -134.84542374950408 0 0 1 1 0 0 forward_v I I I I #
coedge $-1 $181 $182 $183 $184 forward $75 $-1 #
face $-1 $-1 $185 $39 $-1 $186 forward single #
loop $-1 $-1 $187 $77 #
plane-surface $-1 0 0 -3.7861644337290565 0 0 -1 -1 0 0 forward_v I I I I #
loop $-1 $-1 $188 $49 #
coedge $-1 $124 $124 $187 $189 reversed $78 $-1 #
face $-1 $190 $191 $30 $-1 $192 reversed single #
loop $-1 $-1 $193 $80 #
plane-surface $-1 0 -29.587638268129808 0 0 1 0 0 0 1 forward_v I I I I #
coedge $-1 $194 $195 $196 $197 forward $81 $-1 #
coedge $-1 $198 $83 $199 $200 forward $51 $-1 #
coedge $-1 $83 $198 $201 $202 forward $51 $-1 #
coedge $-1 $203 $204 $83 $132 reversed $205 $-1 #
edge $-1 $206 -29.587638268129808 $207 29.587638268129808 $131 $208 forward 7 unknown #
face $-1 $209 $210 $31 $-1 $211 reversed single #
loop $-1 $-1 $212 $84 #
plane-surface $-1 0 -7.5284056859730688 0 0 1 0 0 0 1 forward_v I I I I #
coedge $-1 $213 $214 $215 $216 forward $85 $-1 #
coedge $-1 $217 $87 $218 $219 forward $54 $-1 #
coedge $-1 $87 $217 $220 $221 forward $54 $-1 #
coedge $-1 $222 $223 $87 $140 reversed $224 $-1 #
edge $-1 $225 -7.5284056859730688 $226 7.5284056859730688 $139 $227 forward 7 unknown #
face $-1 $228 $229 $32 $-1 $230 reversed single #
loop $-1 $-1 $231 $88 #
plane-surface $-1 0 -5.227616395284123 0 0 1 0 0 0 1 forward_v I I I I #
coedge $-1 $232 $233 $234 $235 forward $89 $-1 #
coedge $-1 $236 $91 $237 $238 forward $57 $-1 #
coedge $-1 $91 $236 $239 $240 forward $57 $-1 #
coedge $-1 $241 $242 $91 $148 reversed $243 $-1 #
edge $-1 $244 -5.227616395284123 $245 5.227616395284123 $147 $246 forward 7 unknown #
loop $-1 $247 $248 $92 #
cone-surface $-1 0 0 0 0 0 1 0.5 0 0 1 I I -0.70710678118654746 0.70710678118654746 0.5 forward I I I I #
coedge $-1 $151 $151 $96 $153 forward $93 $-1 #
coedge $-1 $152 $152 $248 $249 forward $95 $-1 #
edge $-1 $250 0 $250 6.2831853071796004 $151 $251 forward 7 unknown #
loop $-1 $252 $253 $97 #
cone-surface $-1 0 0 0 0 0 1 0.5 0 0 1 I I -0.70710678118654746 0.70710678118654746 0.5 forward I I I I #
coedge $-1 $156 $156 $101 $158 forward $98 $-1 #
coedge $-1 $157 $157 $253 $254 forward $100 $-1 #
edge $-1 $255 0 $255 6.2831853071796004 $156 $256 forward 7 unknown #
face $-1 $257 $258 $35 $-1 $259 reversed single #
loop $-1 $-1 $260 $102 #
plane-surface $-1 0 -5.227616395284123 0 0 1 0 0 0 1 forward_v I I I I #
coedge $-1 $261 $262 $263 $264 forward $103 $-1 #
coedge $-1 $265 $105 $266 $267 forward $66 $-1 #
coedge $-1 $105 $265 $268 $269 forward $66 $-1 #
coedge $-1 $270 $271 $105 $166 reversed $272 $-1 #
edge $-1 $273 -5.227616395284123 $274 5.227616395284123 $165 $275 forward 7 unknown #
loop $-1 $276 $277 $106 #
cone-surface $-1 0 0 0 0 0 1 0.5 0 0 1 I I -0.70710678118654746 0.70710678118654746 0.5 forward I I I I #
coedge $-1 $169 $169 $110 $171 forward $107 $-1 #
coedge $-1 $170 $170 $277 $278 forward $109 $-1 #
edge $-1 $279 0 $279 6.2831853071796004 $169 $280 forward 7 unknown #
loop $-1 $281 $282 $111 #
cone-surface $-1 0 0 0 0 0 1 0.5 0 0 1 I I -0.70710678118654746 0.70710678118654746 0.5 forward I I I I #
coedge $-1 $174 $174 $115 $176 forward $112 $-1 #
coedge $-1 $175 $175 $282 $283 forward $114 $-1 #
edge $-1 $284 0 $284 6.2831853071796004 $174 $285 forward 7 unknown #
face $-1 $286 $287 $38 $-1 $288 reversed single #
loop $-1 $-1 $289 $116 #
plane-surface $-1 0 -5.7374792868617277 0 0 1 0 0 0 1 forward_v I I I I #
coedge $-1 $290 $291 $292 $293 forward $117 $-1 #
coedge $-1 $294 $119 $295 $296 forward $75 $-1 #
coedge $-1 $119 $294 $297 $298 forward $75 $-1 #
coedge $-1 $299 $300 $119 $184 reversed $301 $-1 #
edge $-1 $302 -5.7374792868617277 $303 5.7374792868617277 $183 $304 forward 7 unknown #
loop $-1 $305 $306 $120 #
cone-surface $-1 0 0 0 0 0 1 1.25 0 0 1 I I -0.70710678118654746 0.70710678118654746 1.25 forward I I I I #
coedge $-1 $187 $187 $124 $189 forward $121 $-1 #
coedge $-1 $188 $188 $306 $307 forward $123 $-1 #
edge $-1 $308 0 $308 6.2831853071796004 $187 $309 forward 7 unknown #
face $-1 $310 $311 $30 $-1 $312 reversed single #
loop $-1 $-1 $313 $125 #
plane-surface $-1 -67.422711874752039 0 0 1 0 0 0 0 -1 forward_v I I I I #
coedge $-1 $314 $201 $315 $316 forward $126 $-1 #
coedge $-1 $317 $128 $314 $318 forward $81 $-1 #
coedge $-1 $128 $317 $319 $320 forward $81 $-1 #
coedge $-1 $204 $203 $128 $197 reversed $205 $-1 #
edge $-1 $321 -29.587638268129808 $322 29.587638268129808 $196 $323 forward 7 unknown #
coedge $-1 $130 $129 $324 $325 forward $51 $-1 #
coedge $-1 $326 $327 $129 $200 reversed $311 $-1 #
edge $-1 $207 -67.422711874752039 $328 67.422711874752039 $199 $329 forward 7 unknown #
coedge $-1 $193 $330 $130 $202 reversed $126 $-1 #
edge $-1 $331 -67.422711874752039 $206 67.422711874752039 $201 $332 forward 7 unknown #
coedge $-1 $196 $131 $330 $333 forward $205 $-1 #
coedge $-1 $131 $196 $326 $334 reversed $205 $-1 #
loop $-1 $-1 $203 $310 #
vertex $-1 $132 $335 #
vertex $-1 $132 $336 #
straight-curve $-1 67.422711874752039 0 12.068924697536223 0 1 0 I I #
face $-1 $337 $338 $31 $-1 $339 reversed single #
loop $-1 $-1 $340 $133 #
plane-surface $-1 -67.422711874752039 0 0 1 0 0 0 0 -1 forward_v I I I I #
coedge $-1 $341 $220 $342 $343 forward $134 $-1 #
coedge $-1 $344 $136 $341 $345 forward $85 $-1 #
coedge $-1 $136 $344 $346 $347 forward $85 $-1 #
coedge $-1 $223 $222 $136 $216 reversed $224 $-1 #
edge $-1 $348 -7.5284056859730688 $349 7.5284056859730688 $215 $350 forward 7 unknown #
coedge $-1 $138 $137 $351 $352 forward $54 $-1 #
coedge $-1 $353 $354 $137 $219 reversed $338 $-1 #
edge $-1 $226 -67.422711874752039 $355 67.422711874752039 $218 $356 forward 7 unknown #
coedge $-1 $212 $357 $138 $221 reversed $134 $-1 #
edge $-1 $358 -67.422711874752039 $225 67.422711874752039 $220 $359 forward 7 unknown #
coedge $-1 $215 $139 $357 $360 forward $224 $-1 #
coedge $-1 $139 $215 $353 $361 reversed $224 $-1 #
loop $-1 $-1 $222 $337 #
vertex $-1 $140 $362 #
vertex $-1 $140 $363 #
straight-curve $-1 67.422711874752039 0 2.7820736996948252 0 1 0 I I #
face $-1 $364 $365 $32 $-1 $366 reversed single #
loop $-1 $-1 $367 $141 #
plane-surface $-1 -269.69084749900816 0 0 1 0 0 0 0 -1 forward_v I I I I #
coedge $-1 $368 $239 $369 $370 forward $142 $-1 #
coedge $-1 $371 $144 $368 $372 forward $89 $-1 #
coedge $-1 $144 $371 $373 $374 forward $89 $-1 #
coedge $-1 $242 $241 $144 $235 reversed $243 $-1 #
edge $-1 $375 -5.227616395284123 $376 5.227616395284123 $234 $377 forward 7 unknown #
coedge $-1 $146 $145 $378 $379 forward $57 $-1 #
coedge $-1 $380 $381 $145 $238 reversed $365 $-1 #
edge $-1 $245 -269.69084749900816 $382 269.69084749900816 $237 $383 forward 7 unknown #
coedge $-1 $231 $384 $146 $240 reversed $142 $-1 #
edge $-1 $385 -269.69084749900816 $244 269.69084749900816 $239 $386 forward 7 unknown #
coedge $-1 $234 $147 $384 $387 forward $243 $-1 #
coedge $-1 $147 $234 $380 $388 reversed $243 $-1 #
loop $-1 $-1 $241 $364 #
vertex $-1 $148 $389 #
vertex $-1 $148 $390 #
straight-curve $-1 269.69084749900816 0 134.84542374950408 0 1 0 I I #
loop $-1 $-1 $391 $92 #
coedge $-1 $248 $248 $152 $249 reversed $149 $-1 #
edge $-1 $392 0 $392 6.2831853071796004 $248 $393 forward 7 unknown #
vertex $-1 $153 $394 #
ellipse-curve $-1 0 0 -3.6857966856898718 0 0 -1 1 0 0 1 I I #
loop $-1 $-1 $395 $97 #
coedge $-1 $253 $253 $157 $254 reversed $154 $-1 #
edge $-1 $396 0 $396 6.2831853071796004 $253 $397 forward 7 unknown #
vertex $-1 $158 $398 #
ellipse-curve $-1 0 0 -3.6857966856898718 0 0 -1 1 0 0 1 I I #
face $-1 $399 $400 $35 $-1 $401 reversed single #
loop $-1 $-1 $402 $159 #
plane-surface $-1 -269.69084749900816 0 0 1 0 0 0 0 -1 forward_v I I I I #
coedge $-1 $403 $268 $404 $405 forward $160 $-1 #
coedge $-1 $406 $162 $403 $407 forward $103 $-1 #
coedge $-1 $162 $406 $408 $409 forward $103 $-1 #
coedge $-1 $271 $270 $162 $264 reversed $272 $-1 #
edge $-1 $410 -5.227616395284123 $411 5.227616395284123 $263 $412 forward 7 unknown #
coedge $-1 $164 $163 $413 $414 forward $66 $-1 #
coedge $-1 $415 $416 $163 $267 reversed $400 $-1 #
edge $-1 $274 -269.69084749900816 $417 269.69084749900816 $266 $418 forward 7 unknown #
coedge $-1 $260 $419 $164 $269 reversed $160 $-1 #
edge $-1 $420 -269.69084749900816 $273 269.69084749900816 $268 $421 forward 7 unknown #
coedge $-1 $263 $165 $419 $422 forward $272 $-1 #
coedge $-1 $165 $263 $415 $423 reversed $272 $-1 #
loop $-1 $-1 $270 $399 #
vertex $-1 $166 $424 #
vertex $-1 $166 $425 #
straight-curve $-1 269.69084749900816 0 134.84542374950408 0 1 0 I I #
loop $-1 $-1 $426 $106 #
coedge $-1 $277 $277 $170 $278 reversed $167 $-1 #
edge $-1 $427 0 $427 6.2831853071796004 $277 $428 forward 7 unknown #
vertex $-1 $171 $429 #
ellipse-curve $-1 0 0 -3.6857966856898718 0 0 -1 1 0 0 1 I I #
loop $-1 $-1 $430 $111 #
coedge $-1 $282 $282 $175 $283 reversed $172 $-1 #
edge $-1 $431 0 $431 6.2831853071796004 $282 $432 forward 7 unknown #
vertex $-1 $176 $433 #
ellipse-curve $-1 0 0 -3.6857966856898718 0 0 -1 1 0 0 1 I I #
face $-1 $434 $435 $38 $-1 $436 reversed single #
loop $-1 $-1 $437 $177 #
plane-surface $-1 -269.69084749900816 0 0 1 0 0 0 0 -1 forward_v I I I I #
coedge $-1 $438 $297 $439 $440 forward $178 $-1 #
coedge $-1 $441 $180 $438 $442 forward $117 $-1 #
coedge $-1 $180 $441 $443 $444 forward $117 $-1 #
coedge $-1 $300 $299 $180 $293 reversed $301 $-1 #
edge $-1 $445 -5.7374792868617277 $446 5.7374792868617277 $292 $447 forward 7 unknown #
coedge $-1 $182 $181 $448 $449 forward $75 $-1 #
coedge $-1 $450 $451 $181 $296 reversed $435 $-1 #
edge $-1 $303 -269.69084749900816 $452 269.69084749900816 $295 $453 forward 7 unknown #
coedge $-1 $289 $454 $182 $298 reversed $178 $-1 #
edge $-1 $455 -269.69084749900816 $302 269.69084749900816 $297 $456 forward 7 unknown #
coedge $-1 $292 $183 $454 $457 forward $301 $-1 #
coedge $-1 $183 $292 $450 $458 reversed $301 $-1 #
loop $-1 $-1 $299 $434 #
vertex $-1 $184 $459 #
vertex $-1 $184 $460 #
straight-curve $-1 269.69084749900816 0 134.84542374950408 0 1 0 I I #
loop $-1 $-1 $461 $120 #
coedge $-1 $306 $306 $188 $307 reversed $185 $-1 #
edge $-1 $462 0 $462 6.2831853071796004 $306 $463 forward 7 unknown #
vertex $-1 $189 $464 #
ellipse-curve $-1 0 0 -3.7861644337290565 0 0 -1 2.5 0 0 1 I I #
face $-1 $-1 $205 $30 $-1 $465 reversed single #
loop $-1 $-1 $326 $190 #
plane-surface $-1 0 29.587638268129808 0 0 -1 0 0 0 -1 forward_v I I I I #
coedge $-1 $466 $324 $327 $467 forward $191 $-1 #
coedge $-1 $330 $193 $194 $318 reversed $126 $-1 #
coedge $-1 $324 $466 $193 $316 reversed $191 $-1 #
edge $-1 $331 -12.068924697536223 $468 12.068924697536223 $315 $469 forward 7 unknown #
coedge $-1 $195 $194 $466 $470 forward $81 $-1 #
edge $-1 $322 -67.422711874752039 $468 67.422711874752039 $314 $471 forward 7 unknown #
coedge $-1 $327 $326 $195 $320 reversed $311 $-1 #
edge $-1 $472 -67.422711874752039 $321 67.422711874752039 $319 $473 forward 7 unknown #
vertex $-1 $197 $474 #
vertex $-1 $333 $475 #
straight-curve $-1 67.422711874752039 0 -12.068924697536223 0 -1 0 I I #
coedge $-1 $313 $315 $198 $325 reversed $191 $-1 #
edge $-1 $328 -29.587638268129808 $331 29.587638268129808 $324 $476 forward 7 unknown #
coedge $-1 $319 $199 $204 $334 forward $311 $-1 #
coedge $-1 $199 $319 $313 $467 reversed $311 $-1 #
vertex $-1 $200 $477 #
straight-curve $-1 0 29.587638268129808 12.068924697536223 -1 0 0 I I #
coedge $-1 $201 $314 $203 $333 reversed $126 $-1 #
vertex $-1 $325 $478 #
straight-curve $-1 0 -29.587638268129808 12.068924697536223 1 0 0 I I #
edge $-1 $206 -12.068924697536223 $322 12.068924697536223 $203 $479 forward 7 unknown #
edge $-1 $207 -12.068924697536223 $321 12.068924697536223 $204 $480 forward 7 unknown #
point $-1 67.422711874752039 -29.587638268129808 12.068924697536223 #
point $-1 67.422711874752039 29.587638268129808 12.068924697536223 #
face $-1 $-1 $224 $31 $-1 $481 reversed single #
loop $-1 $-1 $353 $209 #
plane-surface $-1 0 7.5284056859730688 0 0 -1 0 0 0 -1 forward_v I I I I #
coedge $-1 $482 $351 $354 $483 forward $210 $-1 #
coedge $-1 $357 $212 $213 $345 reversed $134 $-1 #
coedge $-1 $351 $482 $212 $343 reversed $210 $-1 #
edge $-1 $358 -2.7820736996948252 $484 2.7820736996948252 $342 $485 forward 7 unknown #
coedge $-1 $214 $213 $482 $486 forward $85 $-1 #
edge $-1 $349 -67.422711874752039 $484 67.422711874752039 $341 $487 forward 7 unknown #
coedge $-1 $354 $353 $214 $347 reversed $338 $-1 #
edge $-1 $488 -67.422711874752039 $348 67.422711874752039 $346 $489 forward 7 unknown #
vertex $-1 $216 $490 #
vertex $-1 $360 $491 #
straight-curve $-1 67.422711874752039 0 -2.7820736996948252 0 -1 0 I I #
coedge $-1 $340 $342 $217 $352 reversed $210 $-1 #
edge $-1 $355 -7.5284056859730688 $358 7.5284056859730688 $351 $492 forward 7 unknown #
coedge $-1 $346 $218 $223 $361 forward $338 $-1 #
coedge $-1 $218 $346 $340 $483 reversed $338 $-1 #
vertex $-1 $219 $493 #
straight-curve $-1 0 7.5284056859730688 2.7820736996948252 -1 0 0 I I #
coedge $-1 $220 $341 $222 $360 reversed $134 $-1 #
vertex $-1 $352 $494 #
straight-curve $-1 0 -7.5284056859730688 2.7820736996948252 1 0 0 I I #
edge $-1 $225 -2.7820736996948252 $349 2.7820736996948252 $222 $495 forward 7 unknown #
edge $-1 $226 -2.7820736996948252 $348 2.7820736996948252 $223 $496 forward 7 unknown #
point $-1 67.422711874752039 -7.5284056859730688 2.7820736996948252 #
point $-1 67.422711874752039 7.5284056859730688 2.7820736996948252 #
face $-1 $-1 $243 $32 $-1 $497 reversed single #
loop $-1 $-1 $380 $228 #
plane-surface $-1 0 5.227616395284123 0 0 -1 0 0 0 -1 forward_v I I I I #
coedge $-1 $498 $378 $381 $499 forward $229 $-1 #
coedge $-1 $384 $231 $232 $372 reversed $142 $-1 #
coedge $-1 $378 $498 $231 $370 reversed $229 $-1 #
edge $-1 $385 -134.84542374950408 $500 134.84542374950408 $369 $501 forward 7 unknown #
coedge $-1 $233 $232 $498 $502 forward $89 $-1 #
edge $-1 $376 -269.69084749900816 $500 269.69084749900816 $368 $503 forward 7 unknown #
coedge $-1 $381 $380 $233 $374 reversed $365 $-1 #
edge $-1 $504 -269.69084749900816 $375 269.69084749900816 $373 $505 forward 7 unknown #
vertex $-1 $235 $506 #
vertex $-1 $387 $507 #
straight-curve $-1 269.69084749900816 0 -134.84542374950408 0 -1 0 I I #
coedge $-1 $367 $369 $236 $379 reversed $229 $-1 #
edge $-1 $382 -5.227616395284123 $385 5.227616395284123 $378 $508 forward 7 unknown #
coedge $-1 $373 $237 $242 $388 forward $365 $-1 #
coedge $-1 $237 $373 $367 $499 reversed $365 $-1 #
vertex $-1 $238 $509 #
straight-curve $-1 0 5.227616395284123 134.84542374950408 -1 0 0 I I #
coedge $-1 $239 $368 $241 $387 reversed $142 $-1 #
vertex $-1 $379 $510 #
straight-curve $-1 0 -5.227616395284123 134.84542374950408 1 0 0 I I #
edge $-1 $244 -134.84542374950408 $376 134.84542374950408 $241 $511 forward 7 unknown #
edge $-1 $245 -134.84542374950408 $375 134.84542374950408 $242 $512 forward 7 unknown #
point $-1 269.69084749900816 -5.227616395284123 134.84542374950408 #
point $-1 269.69084749900816 5.227616395284123 134.84542374950408 #
coedge $-1 $391 $391 $-1 $513 reversed $247 $-1 #
vertex $-1 $249 $514 #
ellipse-curve $-1 0 0 -0.5 0 0 -1 1 0 0 1 I I #
point $-1 1 0 -3.6857966856898718 #
coedge $-1 $395 $395 $-1 $515 reversed $252 $-1 #
vertex $-1 $254 $516 #
ellipse-curve $-1 0 0 -0.5 0 0 -1 1 0 0 1 I I #
point $-1 1 0 -3.6857966856898718 #
face $-1 $-1 $272 $35 $-1 $517 reversed single #
loop $-1 $-1 $415 $257 #
plane-surface $-1 0 5.227616395284123 0 0 -1 0 0 0 -1 forward_v I I I I #
coedge $-1 $518 $413 $416 $519 forward $258 $-1 #
coedge $-1 $419 $260 $261 $407 reversed $160 $-1 #
coedge $-1 $413 $518 $260 $405 reversed $258 $-1 #
edge $-1 $420 -134.84542374950408 $520 134.84542374950408 $404 $521 forward 7 unknown #
coedge $-1 $262 $261 $518 $522 forward $103 $-1 #
edge $-1 $411 -269.69084749900816 $520 269.69084749900816 $403 $523 forward 7 unknown #
coedge $-1 $416 $415 $262 $409 reversed $400 $-1 #
edge $-1 $524 -269.69084749900816 $410 269.69084749900816 $408 $525 forward 7 unknown #
vertex $-1 $264 $526 #
vertex $-1 $422 $527 #
straight-curve $-1 269.69084749900816 0 -134.84542374950408 0 -1 0 I I #
coedge $-1 $402 $404 $265 $414 reversed $258 $-1 #
edge $-1 $417 -5.227616395284123 $420 5.227616395284123 $413 $528 forward 7 unknown #
coedge $-1 $408 $266 $271 $423 forward $400 $-1 #
coedge $-1 $266 $408 $402 $519 reversed $400 $-1 #
vertex $-1 $267 $529 #
straight-curve $-1 0 5.227616395284123 134.84542374950408 -1 0 0 I I #
coedge $-1 $268 $403 $270 $422 reversed $160 $-1 #
vertex $-1 $414 $530 #
straight-curve $-1 0 -5.227616395284123 134.84542374950408 1 0 0 I I #
edge $-1 $273 -134.84542374950408 $411 134.84542374950408 $270 $531 forward 7 unknown #
edge $-1 $274 -134.84542374950408 $410 134.84542374950408 $271 $532 forward 7 unknown #
point $-1 269.69084749900816 -5.227616395284123 134.84542374950408 #
point $-1 269.69084749900816 5.227616395284123 134.84542374950408 #
coedge $-1 $426 $426 $-1 $533 reversed $276 $-1 #
vertex $-1 $278 $534 #
ellipse-curve $-1 0 0 -0.5 0 0 -1 1 0 0 1 I I #
point $-1 1 0 -3.6857966856898718 #
coedge $-1 $430 $430 $-1 $535 reversed $281 $-1 #
vertex $-1 $283 $536 #
ellipse-curve $-1 0 0 -0.5 0 0 -1 1 0 0 1 I I #
point $-1 1 0 -3.6857966856898718 #
face $-1 $-1 $301 $38 $-1 $537 reversed single #
loop $-1 $-1 $450 $286 #
plane-surface $-1 0 5.7374792868617277 0 0 -1 0 0 0 -1 forward_v I I I I #
coedge $-1 $538 $448 $451 $539 forward $287 $-1 #
coedge $-1 $454 $289 $290 $442 reversed $178 $-1 #
coedge $-1 $448 $538 $289 $440 reversed $287 $-1 #
edge $-1 $455 -134.84542374950408 $540 134.84542374950408 $439 $541 forward 7 unknown #
coedge $-1 $291 $290 $538 $542 forward $117 $-1 #
edge $-1 $446 -269.69084749900816 $540 269.69084749900816 $438 $543 forward 7 unknown #
coedge $-1 $451 $450 $291 $444 reversed $435 $-1 #
edge $-1 $544 -269.69084749900816 $445 269.69084749900816 $443 $545 forward 7 unknown #
vertex $-1 $293 $546 #
vertex $-1 $457 $547 #
straight-curve $-1 269.69084749900816 0 -134.84542374950408 0 -1 0 I I #
coedge $-1 $437 $439 $294 $449 reversed $287 $-1 #
edge $-1 $452 -5.7374792868617277 $455 5.7374792868617277 $448 $548 forward 7 unknown #
coedge $-1 $443 $295 $300 $458 forward $435 $-1 #
coedge $-1 $295 $443 $437 $539 reversed $435 $-1 #
vertex $-1 $296 $549 #
straight-curve $-1 0 5.7374792868617277 134.84542374950408 -1 0 0 I I #
coedge $-1 $297 $438 $299 $457 reversed $178 $-1 #
vertex $-1 $449 $550 #
straight-curve $-1 0 -5.7374792868617277 134.84542374950408 1 0 0 I I #
edge $-1 $302 -134.84542374950408 $446 134.84542374950408 $299 $551 forward 7 unknown #
edge $-1 $303 -134.84542374950408 $445 134.84542374950408 $300 $552 forward 7 unknown #
point $-1 269.69084749900816 -5.7374792868617277 134.84542374950408 #
point $-1 269.69084749900816 5.7374792868617277 134.84542374950408 #
coedge $-1 $461 $461 $-1 $553 reversed $305 $-1 #
vertex $-1 $307 $554 #
ellipse-curve $-1 0 0 -1.25 0 0 -1 2.5 0 0 1 I I #
point $-1 2.5 0 -3.7861644337290565 #
plane-surface $-1 67.422711874752039 0 0 -1 0 0 0 0 1 forward_v I I I I #
coedge $-1 $315 $313 $317 $470 reversed $191 $-1 #
edge $-1 $328 -12.068924697536223 $472 12.068924697536223 $327 $555 forward 7 unknown #
vertex $-1 $470 $556 #
straight-curve $-1 -67.422711874752039 -29.587638268129808 0 0 0 -1 I I #
edge $-1 $468 -29.587638268129808 $472 29.587638268129808 $466 $557 forward 7 unknown #
straight-curve $-1 0 -29.587638268129808 -12.068924697536223 -1 0 0 I I #
vertex $-1 $320 $558 #
straight-curve $-1 0 29.587638268129808 -12.068924697536223 1 0 0 I I #
point $-1 67.422711874752039 29.587638268129808 -12.068924697536223 #
point $-1 67.422711874752039 -29.587638268129808 -12.068924697536223 #
straight-curve $-1 -67.422711874752039 0 12.068924697536223 0 -1 0 I I #
point $-1 -67.422711874752039 29.587638268129808 12.068924697536223 #
point $-1 -67.422711874752039 -29.587638268129808 12.068924697536223 #
straight-curve $-1 67.422711874752039 -29.587638268129808 0 0 0 -1 I I #
straight-curve $-1 67.422711874752039 29.587638268129808 0 0 0 -1 I I #
plane-surface $-1 67.422711874752039 0 0 -1 0 0 0 0 1 forward_v I I I I #
coedge $-1 $342 $340 $344 $486 reversed $210 $-1 #
edge $-1 $355 -2.7820736996948252 $488 2.7820736996948252 $354 $559 forward 7 unknown #
vertex $-1 $486 $560 #
straight-curve $-1 -67.422711874752039 -7.5284056859730688 0 0 0 -1 I I #
edge $-1 $484 -7.5284056859730688 $488 7.5284056859730688 $482 $561 forward 7 unknown #
straight-curve $-1 0 -7.5284056859730688 -2.7820736996948252 -1 0 0 I I #
vertex $-1 $347 $562 #
straight-curve $-1 0 7.5284056859730688 -2.7820736996948252 1 0 0 I I #
point $-1 67.422711874752039 7.5284056859730688 -2.7820736996948252 #
point $-1 67.422711874752039 -7.5284056859730688 -2.7820736996948252 #
straight-curve $-1 -67.422711874752039 0 2.7820736996948252 0 -1 0 I I #
point $-1 -67.422711874752039 7.5284056859730688 2.7820736996948252 #
point $-1 -67.422711874752039 -7.5284056859730688 2.7820736996948252 #
straight-curve $-1 67.422711874752039 -7.5284056859730688 0 0 0 -1 I I #
straight-curve $-1 67.422711874752039 7.5284056859730688 0 0 0 -1 I I #
plane-surface $-1 269.69084749900816 0 0 -1 0 0 0 0 1 forward_v I I I I #
coedge $-1 $369 $367 $371 $502 reversed $229 $-1 #
edge $-1 $382 -134.84542374950408 $504 134.84542374950408 $381 $563 forward 7 unknown #
vertex $-1 $502 $564 #
straight-curve $-1 -269.69084749900816 -5.227616395284123 0 0 0 -1 I I #
edge $-1 $500 -5.227616395284123 $504 5.227616395284123 $498 $565 forward 7 unknown #
straight-curve $-1 0 -5.227616395284123 -134.84542374950408 -1 0 0 I I #
vertex $-1 $374 $566 #
straight-curve $-1 0 5.227616395284123 -134.84542374950408 1 0 0 I I #
point $-1 269.69084749900816 5.227616395284123 -134.84542374950408 #
point $-1 269.69084749900816 -5.227616395284123 -134.84542374950408 #
straight-curve $-1 -269.69084749900816 0 134.84542374950408 0 -1 0 I I #
point $-1 -269.69084749900816 5.227616395284123 134.84542374950408 #
point $-1 -269.69084749900816 -5.227616395284123 134.84542374950408 #
straight-curve $-1 269.69084749900816 -5.227616395284123 0 0 0 -1 I I #
straight-curve $-1 269.69084749900816 5.227616395284123 0 0 0 -1 I I #
edge $-1 $567 1 $567 0 $391 $-1 forward 7 unknown #
point $-1 1 0 -0.5 #
edge $-1 $568 1 $568 0 $395 $-1 forward 7 unknown #
point $-1 1 0 -0.5 #
plane-surface $-1 269.69084749900816 0 0 -1 0 0 0 0 1 forward_v I I I I #
coedge $-1 $404 $402 $406 $522 reversed $258 $-1 #
edge $-1 $417 -134.84542374950408 $524 134.84542374950408 $416 $569 forward 7 unknown #
vertex $-1 $522 $570 #
straight-curve $-1 -269.69084749900816 -5.227616395284123 0 0 0 -1 I I #
edge $-1 $520 -5.227616395284123 $524 5.227616395284123 $518 $571 forward 7 unknown #
straight-curve $-1 0 -5.227616395284123 -134.84542374950408 -1 0 0 I I #
vertex $-1 $409 $572 #
straight-curve $-1 0 5.227616395284123 -134.84542374950408 1 0 0 I I #
point $-1 269.69084749900816 5.227616395284123 -134.84542374950408 #
point $-1 269.69084749900816 -5.227616395284123 -134.84542374950408 #
straight-curve $-1 -269.69084749900816 0 134.84542374950408 0 -1 0 I I #
point $-1 -269.69084749900816 5.227616395284123 134.84542374950408 #
point $-1 -269.69084749900816 -5.227616395284123 134.84542374950408 #
straight-curve $-1 269.69084749900816 -5.227616395284123 0 0 0 -1 I I #
straight-curve $-1 269.69084749900816 5.227616395284123 0 0 0 -1 I I #
edge $-1 $573 1 $573 0 $426 $-1 forward 7 unknown #
point $-1 1 0 -0.5 #
edge $-1 $574 1 $574 0 $430 $-1 forward 7 unknown #
point $-1 1 0 -0.5 #
plane-surface $-1 269.69084749900816 0 0 -1 0 0 0 0 1 forward_v I I I I #
coedge $-1 $439 $437 $441 $542 reversed $287 $-1 #
edge $-1 $452 -134.84542374950408 $544 134.84542374950408 $451 $575 forward 7 unknown #
vertex $-1 $542 $576 #
straight-curve $-1 -269.69084749900816 -5.7374792868617277 0 0 0 -1 I I #
edge $-1 $540 -5.7374792868617277 $544 5.7374792868617277 $538 $577 forward 7 unknown #
straight-curve $-1 0 -5.7374792868617277 -134.84542374950408 -1 0 0 I I #
vertex $-1 $444 $578 #
straight-curve $-1 0 5.7374792868617277 -134.84542374950408 1 0 0 I I #
point $-1 269.69084749900816 5.7374792868617277 -134.84542374950408 #
point $-1 269.69084749900816 -5.7374792868617277 -134.84542374950408 #
straight-curve $-1 -269.69084749900816 0 134.84542374950408 0 -1 0 I I #
point $-1 -269.69084749900816 5.7374792868617277 134.84542374950408 #
point $-1 -269.69084749900816 -5.7374792868617277 134.84542374950408 #
straight-curve $-1 269.69084749900816 -5.7374792868617277 0 0 0 -1 I I #
straight-curve $-1 269.69084749900816 5.7374792868617277 0 0 0 -1 I I #
edge $-1 $579 1 $579 0 $461 $-1 forward 7 unknown #
point $-1 2.5 0 -1.25 #
straight-curve $-1 -67.422711874752039 29.587638268129808 0 0 0 -1 I I #
point $-1 -67.422711874752039 -29.587638268129808 -12.068924697536223 #
straight-curve $-1 -67.422711874752039 0 -12.068924697536223 0 1 0 I I #
point $-1 -67.422711874752039 29.587638268129808 -12.068924697536223 #
straight-curve $-1 -67.422711874752039 7.5284056859730688 0 0 0 -1 I I #
point $-1 -67.422711874752039 -7.5284056859730688 -2.7820736996948252 #
straight-curve $-1 -67.422711874752039 0 -2.7820736996948252 0 1 0 I I #
point $-1 -67.422711874752039 7.5284056859730688 -2.7820736996948252 #
straight-curve $-1 -269.69084749900816 5.227616395284123 0 0 0 -1 I I #
point $-1 -269.69084749900816 -5.227616395284123 -134.84542374950408 #
straight-curve $-1 -269.69084749900816 0 -134.84542374950408 0 1 0 I I #
point $-1 -269.69084749900816 5.227616395284123 -134.84542374950408 #
vertex $-1 $513 $580 #
vertex $-1 $515 $581 #
straight-curve $-1 -269.69084749900816 5.227616395284123 0 0 0 -1 I I #
point $-1 -269.69084749900816 -5.227616395284123 -134.84542374950408 #
straight-curve $-1 -269.69084749900816 0 -134.84542374950408 0 1 0 I I #
point $-1 -269.69084749900816 5.227616395284123 -134.84542374950408 #
vertex $-1 $533 $582 #
vertex $-1 $535 $583 #
straight-curve $-1 -269.69084749900816 5.7374792868617277 0 0 0 -1 I I #
point $-1 -269.69084749900816 -5.7374792868617277 -134.84542374950408 #
straight-curve $-1 -269.69084749900816 0 -134.84542374950408 0 1 0 I I #
point $-1 -269.69084749900816 5.7374792868617277 -134.84542374950408 #
vertex $-1 $553 $584 #
point $-1 0 0 0.5 #
point $-1 0 0 0.5 #
point $-1 0 0 0.5 #
point $-1 0 0 0.5 #
point $-1 0 0 1.25 #
End-of-ACIS-data 