500 0 5 0           
7 Unknown 11 ACIS 5.0 NT 24 Thu Mar 25 16:11:20 1999 
-1 9.9999999999999995e-007 1e-010 
body $-1 $5 $-1 $6 #
body $-1 $7 $-1 $8 #
body $-1 $9 $-1 $10 #
body $-1 $11 $-1 $12 #
body $-1 $13 $-1 $14 #
lump $-1 $-1 $15 $0 #
transform $-1 1 0 0 0 1 0 0 0 1 50.200506607257303 29.792752821050705 13.336682566437386 1 rotate no_reflect no_shear #
lump $-1 $-1 $16 $1 #
transform $-1 1 0 0 0 1 0 0 0 1 50.200506607257303 29.792752821050705 13.336682566437386 1 rotate no_reflect no_shear #
lump $-1 $-1 $17 $2 #
transform $-1 1 0 0 0 1 0 0 0 1 50.200506607257303 29.792752821050705 13.336682566437386 1 rotate no_reflect no_shear #
lump $-1 $-1 $18 $3 #
transform $-1 1 0 0 0 1 0 0 0 1 50.200506607257303 29.792752821050705 13.336682566437386 1 rotate no_reflect no_shear #
lump $-1 $-1 $19 $4 #
transform $-1 1 0 0 0 1 0 0 0 1 50.200506607257303 29.792752821050705 13.336682566437386 1 rotate no_reflect no_shear #
shell $-1 $-1 $-1 $20 $-1 $5 #
shell $-1 $-1 $-1 $21 $-1 $7 #
shell $-1 $-1 $-1 $22 $-1 $9 #
shell $-1 $-1 $-1 $23 $-1 $11 #
shell $-1 $-1 $-1 $24 $-1 $13 #
face $-1 $25 $26 $15 $-1 $27 forward single #
face $-1 $28 $29 $16 $-1 $30 forward single #
face $-1 $31 $32 $17 $-1 $33 forward single #
face $-1 $34 $35 $18 $-1 $36 reversed single #
face $-1 $37 $38 $19 $-1 $39 reversed single #
face $-1 $40 $41 $15 $-1 $42 reversed single #
loop $-1 $-1 $43 $20 #
plane-surface $-1 0 0 13.336682566437386 0 0 1 1 0 0 forward_v I I I I #
face $-1 $44 $45 $16 $-1 $46 reversed single #
loop $-1 $-1 $47 $21 #
plane-surface $-1 -56.432730596554137 0 -6.8925662176298488 0 0 1 1 0 0 forward_v I I I I #
face $-1 $48 $49 $17 $-1 $50 forward single #
loop $-1 $-1 $51 $22 #
plane-surface $-1 40.295892806701737 11.877835791715579 148.5972322344042 0 -1 0 -0.6560590369687036 0 -0.75470957328743171 forward_v I I I I #
face $-1 $52 $53 $18 $-1 $54 reversed single #
loop $-1 $55 $56 $23 #
cone-surface $-1 45.242132251031627 6.8595008316698838 8.6645348763094372 -0.6560590369687036 0 -0.75470957328743171 0.75470957328743171 0 -0.6560590369687036 1 I I 0 1 1 forward I I I I #
face $-1 $57 $58 $19 $-1 $59 reversed single #
loop $-1 $60 $61 $24 #
cone-surface $-1 45.242132251031627 9.8705018076973019 8.6645348763094372 -0.6560590369687036 0 -0.75470957328743171 0.75470957328743171 0 -0.6560590369687036 1 I I 0 1 1 forward I I I I #
face $-1 $62 $63 $15 $-1 $64 reversed single #
loop $-1 $-1 $65 $25 #
plane-surface $-1 0 0 -13.336682566437386 0 0 1 1 0 0 forward_v I I I I #
coedge $-1 $66 $67 $68 $69 forward $26 $-1 #
face $-1 $70 $71 $16 $-1 $72 forward single #
loop $-1 $-1 $73 $28 #
plane-surface $-1 -62.664954585850971 0 -10.114624392033617 1 0 0 0 0 -1 forward_v I I I I #
coedge $-1 $74 $75 $76 $77 reversed $29 $-1 #
face $-1 $78 $79 $17 $-1 $80 forward single #
loop $-1 $-1 $81 $31 #
plane-surface $-1 -25.573099233494794 8.3650013196835928 72.823626393652091 0.6560590369687036 0 0.75470957328743171 0.75470957328743171 0 -0.6560590369687036 forward_v I I I I #
coedge $-1 $82 $83 $84 $85 reversed $32 $-1 #
face $-1 $86 $87 $18 $-1 $88 forward single #
loop $-1 $89 $90 $34 #
cone-surface $-1 43.626581616735912 6.8595008316698838 6.8060565060286784 -0.6560590369687036 0 -0.75470957328743171 0.37735478664371586 0 -0.3280295184843518 1 I I -0.70710678118654691 0.70710678118654813 0.5 forward I I I I #
loop $-1 $-1 $91 $23 #
coedge $-1 $56 $56 $92 $93 reversed $35 $-1 #
face $-1 $94 $95 $19 $-1 $96 reversed single #
loop $-1 $97 $98 $37 #
cone-surface $-1 43.626581616735912 9.8705018076973019 6.8060565060286784 -0.6560590369687036 0 -0.75470957328743171 0.37735478664371586 0 -0.3280295184843518 1 I I -0.70710678118654691 0.70710678118654813 0.5 forward I I I I #
loop $-1 $-1 $99 $24 #
coedge $-1 $61 $61 $100 $101 reversed $38 $-1 #
face $-1 $102 $103 $15 $-1 $104 reversed single #
loop $-1 $-1 $105 $40 #
plane-surface $-1 0 -29.792752821050705 0 0 1 0 0 0 1 forward_v I I I I #
coedge $-1 $106 $107 $108 $109 forward $41 $-1 #
coedge $-1 $110 $43 $111 $112 forward $26 $-1 #
coedge $-1 $43 $110 $113 $114 forward $26 $-1 #
coedge $-1 $115 $116 $43 $69 reversed $117 $-1 #
edge $-1 $118 -29.792752821050705 $119 29.792752821050705 $68 $120 forward 7 unknown #
face $-1 $121 $122 $16 $-1 $123 reversed single #
loop $-1 $-1 $124 $44 #
plane-surface $-1 0 0 13.336682566437386 0 0 1 1 0 0 forward_v I I I I #
coedge $-1 $125 $126 $127 $128 forward $45 $-1 #
coedge $-1 $129 $47 $130 $131 forward $29 $-1 #
coedge $-1 $47 $129 $132 $133 forward $29 $-1 #
coedge $-1 $134 $135 $47 $77 forward $136 $-1 #
edge $-1 $137 -29.792752821050705 $138 29.792752821050705 $76 $139 forward 7 unknown #
face $-1 $140 $141 $17 $-1 $142 forward single #
loop $-1 $-1 $143 $48 #
plane-surface $-1 40.295892806701737 4.8521668476516062 148.5972322344042 0 1 0 0.6560590369687036 0 0.75470957328743171 forward_v I I I I #
coedge $-1 $144 $145 $146 $147 reversed $49 $-1 #
coedge $-1 $83 $51 $145 $148 forward $32 $-1 #
coedge $-1 $51 $82 $149 $150 reversed $32 $-1 #
coedge $-1 $151 $146 $51 $85 forward $141 $-1 #
edge $-1 $152 22.7108537230778 $153 30.052560203906435 $84 $154 forward 7 unknown #
face $-1 $155 $156 $18 $-1 $157 forward single #
loop $-1 $-1 $158 $52 #
plane-surface $-1 40.295892806701737 11.877835791715579 148.5972322344042 0 -1 0 -0.6560590369687036 0 -0.75470957328743171 forward_v I I I I #
loop $-1 $-1 $159 $34 #
coedge $-1 $90 $90 $91 $160 forward $53 $-1 #
coedge $-1 $91 $91 $90 $160 reversed $55 $-1 #
coedge $-1 $92 $92 $56 $93 forward $156 $-1 #
edge $-1 $161 0 $161 6.2831853071796004 $92 $162 forward 7 unknown #
face $-1 $163 $164 $19 $-1 $165 reversed single #
loop $-1 $166 $167 $57 #
cone-surface $-1 45.242132251031627 6.8595008316698838 8.6645348763094372 -0.6560590369687036 0 -0.75470957328743171 0.75470957328743171 0 -0.6560590369687036 1 I I 0 1 1 forward I I I I #
loop $-1 $-1 $168 $37 #
coedge $-1 $98 $98 $99 $169 forward $58 $-1 #
coedge $-1 $99 $99 $98 $169 reversed $60 $-1 #
coedge $-1 $100 $100 $61 $101 forward $170 $-1 #
edge $-1 $171 0 $171 6.2831853071796004 $100 $172 forward 7 unknown #
face $-1 $173 $174 $15 $-1 $175 reversed single #
loop $-1 $-1 $176 $62 #
plane-surface $-1 -50.200506607257303 0 0 1 0 0 0 0 -1 forward_v I I I I #
coedge $-1 $177 $113 $178 $179 forward $63 $-1 #
coedge $-1 $180 $65 $177 $181 forward $41 $-1 #
coedge $-1 $65 $180 $182 $183 forward $41 $-1 #
coedge $-1 $116 $115 $65 $109 reversed $117 $-1 #
edge $-1 $184 -29.792752821050705 $185 29.792752821050705 $108 $186 forward 7 unknown #
coedge $-1 $67 $66 $187 $188 forward $26 $-1 #
coedge $-1 $189 $190 $66 $112 reversed $174 $-1 #
edge $-1 $119 -50.200506607257303 $191 50.200506607257303 $111 $192 forward 7 unknown #
coedge $-1 $105 $193 $67 $114 reversed $63 $-1 #
edge $-1 $194 -50.200506607257303 $118 50.200506607257303 $113 $195 forward 7 unknown #
coedge $-1 $108 $68 $193 $196 forward $117 $-1 #
coedge $-1 $68 $108 $189 $197 reversed $117 $-1 #
loop $-1 $-1 $115 $173 #
vertex $-1 $69 $198 #
vertex $-1 $69 $199 #
straight-curve $-1 50.200506607257303 0 13.336682566437386 0 1 0 I I #
face $-1 $200 $201 $16 $-1 $202 reversed single #
loop $-1 $-1 $203 $70 #
plane-surface $-1 0 0 -13.336682566437386 0 0 1 1 0 0 forward_v I I I I #
coedge $-1 $204 $205 $206 $207 forward $71 $-1 #
coedge $-1 $208 $73 $209 $210 reversed $45 $-1 #
coedge $-1 $73 $208 $129 $211 reversed $45 $-1 #
coedge $-1 $130 $212 $73 $128 reversed $213 $-1 #
edge $-1 $214 -3.2220581744037684 $215 3.2220581744037684 $127 $216 forward 7 unknown #
coedge $-1 $75 $74 $126 $211 forward $29 $-1 #
coedge $-1 $217 $127 $74 $131 reversed $213 $-1 #
edge $-1 $137 -6.2322239892968341 $214 6.2322239892968341 $130 $218 forward 7 unknown #
coedge $-1 $219 $220 $75 $133 reversed $201 $-1 #
edge $-1 $221 -6.2322239892968341 $138 6.2322239892968341 $132 $222 forward 7 unknown #
coedge $-1 $223 $76 $220 $224 reversed $136 $-1 #
coedge $-1 $76 $223 $217 $225 forward $136 $-1 #
loop $-1 $-1 $76 $200 #
vertex $-1 $225 $226 #
vertex $-1 $133 $227 #
straight-curve $-1 -50.200506607257303 0 -6.8925662176298488 0 -1 0 I I #
face $-1 $228 $229 $17 $-1 $230 forward single #
loop $-1 $-1 $231 $78 #
plane-surface $-1 0 0 13.336682566437386 0 0 1 1 0 0 forward_v I I I I #
coedge $-1 $232 $233 $231 $234 reversed $79 $-1 #
coedge $-1 $235 $81 $233 $236 reversed $49 $-1 #
coedge $-1 $81 $235 $82 $148 reversed $49 $-1 #
coedge $-1 $84 $231 $81 $147 forward $141 $-1 #
edge $-1 $237 0.6696661878098098 $152 7.695335131873783 $146 $238 forward 7 unknown #
edge $-1 $152 90.673156644670144 $239 100.40101321451459 $82 $240 forward 7 unknown #
coedge $-1 $241 $242 $83 $150 forward $243 $-1 #
edge $-1 $153 60.961933550764712 $239 67.343981763746541 $149 $244 forward 7 unknown #
coedge $-1 $245 $84 $242 $246 forward $141 $-1 #
vertex $-1 $147 $247 #
vertex $-1 $246 $248 #
straight-curve $-1 20.147946403350868 11.877835791715579 13.336682566437389 1 0 0 I I #
face $-1 $249 $250 $18 $-1 $251 forward single #
loop $-1 $252 $92 $86 #
plane-surface $-1 -25.573099233494794 8.3650013196835928 72.823626393652091 0.6560590369687036 0 0.75470957328743171 0.75470957328743171 0 -0.6560590369687036 forward_v I I I I #
coedge $-1 $253 $254 $255 $256 reversed $87 $-1 #
coedge $-1 $159 $159 $-1 $257 forward $89 $-1 #
edge $-1 $258 0 $258 6.2831853071796004 $90 $259 forward 7 unknown #
vertex $-1 $93 $260 #
ellipse-curve $-1 46.529653366842993 6.8595008316698838 10.14565845994648 -0.6560590369687036 0 -0.75470957328743171 0.75470957328743171 0 -0.6560590369687036 1 I I #
face $-1 $261 $262 $19 $-1 $263 forward single #
loop $-1 $264 $265 $94 #
cone-surface $-1 43.626581616735912 6.8595008316698838 6.8060565060286784 -0.6560590369687036 0 -0.75470957328743171 0.37735478664371586 0 -0.3280295184843518 1 I I -0.70710678118654691 0.70710678118654813 0.5 forward I I I I #
loop $-1 $-1 $266 $57 #
coedge $-1 $167 $167 $267 $268 reversed $95 $-1 #
coedge $-1 $168 $168 $-1 $269 forward $97 $-1 #
edge $-1 $270 0 $270 6.2831853071796004 $98 $271 forward 7 unknown #
loop $-1 $272 $100 $261 #
vertex $-1 $101 $273 #
ellipse-curve $-1 46.529653366842993 9.8705018076973019 10.14565845994648 -0.6560590369687036 0 -0.75470957328743171 0.75470957328743171 0 -0.6560590369687036 1 I I #
face $-1 $-1 $117 $15 $-1 $274 reversed single #
loop $-1 $-1 $189 $102 #
plane-surface $-1 0 29.792752821050705 0 0 -1 0 0 0 -1 forward_v I I I I #
coedge $-1 $275 $187 $190 $276 forward $103 $-1 #
coedge $-1 $193 $105 $106 $181 reversed $63 $-1 #
coedge $-1 $187 $275 $105 $179 reversed $103 $-1 #
edge $-1 $194 -13.336682566437386 $277 13.336682566437386 $178 $278 forward 7 unknown #
coedge $-1 $107 $106 $275 $279 forward $41 $-1 #
edge $-1 $185 -50.200506607257303 $277 50.200506607257303 $177 $280 forward 7 unknown #
coedge $-1 $190 $189 $107 $183 reversed $174 $-1 #
edge $-1 $281 -50.200506607257303 $184 50.200506607257303 $182 $282 forward 7 unknown #
vertex $-1 $109 $283 #
vertex $-1 $196 $284 #
straight-curve $-1 50.200506607257303 0 -13.336682566437386 0 -1 0 I I #
coedge $-1 $176 $178 $110 $188 reversed $103 $-1 #
edge $-1 $191 -29.792752821050705 $194 29.792752821050705 $187 $285 forward 7 unknown #
coedge $-1 $182 $111 $116 $197 forward $174 $-1 #
coedge $-1 $111 $182 $176 $276 reversed $174 $-1 #
vertex $-1 $112 $286 #
straight-curve $-1 0 29.792752821050705 13.336682566437386 -1 0 0 I I #
coedge $-1 $113 $177 $115 $196 reversed $63 $-1 #
vertex $-1 $188 $287 #
straight-curve $-1 0 -29.792752821050705 13.336682566437386 1 0 0 I I #
edge $-1 $118 -13.336682566437386 $185 13.336682566437386 $115 $288 forward 7 unknown #
edge $-1 $119 -13.336682566437386 $184 13.336682566437386 $116 $289 forward 7 unknown #
point $-1 50.200506607257303 -29.792752821050705 13.336682566437386 #
point $-1 50.200506607257303 29.792752821050705 13.336682566437386 #
face $-1 $290 $136 $16 $-1 $291 reversed single #
loop $-1 $-1 $220 $121 #
plane-surface $-1 0 -29.792752821050705 0 0 1 0 0 0 1 forward_v I I I I #
coedge $-1 $292 $293 $294 $295 forward $122 $-1 #
coedge $-1 $296 $124 $297 $298 forward $71 $-1 #
coedge $-1 $124 $296 $299 $300 forward $71 $-1 #
coedge $-1 $301 $302 $124 $207 reversed $303 $-1 #
edge $-1 $304 -29.792752821050705 $305 29.792752821050705 $206 $306 forward 7 unknown #
coedge $-1 $126 $125 $219 $307 reversed $45 $-1 #
coedge $-1 $293 $292 $125 $210 forward $122 $-1 #
edge $-1 $308 -29.792752821050705 $215 29.792752821050705 $125 $309 forward 7 unknown #
edge $-1 $214 -29.792752821050705 $221 29.792752821050705 $126 $310 forward 7 unknown #
coedge $-1 $127 $311 $293 $312 reversed $213 $-1 #
loop $-1 $-1 $311 $290 #
vertex $-1 $131 $313 #
vertex $-1 $312 $314 #
straight-curve $-1 -62.664954585850971 29.792752821050705 -10.114624392033617 0 0 -1 I I #
coedge $-1 $297 $130 $135 $225 reversed $213 $-1 #
straight-curve $-1 -56.432730596554137 29.792752821050705 -6.8925662176298488 -1 0 0 I I #
coedge $-1 $315 $132 $208 $307 forward $201 $-1 #
coedge $-1 $132 $299 $134 $224 forward $201 $-1 #
vertex $-1 $211 $316 #
straight-curve $-1 -56.432730596554137 -29.792752821050705 -6.8925662176298488 1 0 0 I I #
coedge $-1 $135 $134 $296 $317 reversed $136 $-1 #
edge $-1 $318 -13.336682566437386 $138 6.8925662176298488 $134 $319 forward 7 unknown #
edge $-1 $320 -13.336682566437386 $137 6.8925662176298488 $217 $321 forward 7 unknown #
point $-1 -50.200506607257303 29.792752821050705 -6.8925662176298488 #
point $-1 -50.200506607257303 -29.792752821050705 -6.8925662176298488 #
face $-1 $322 $323 $17 $-1 $324 reversed single #
loop $-1 $-1 $325 $140 #
plane-surface $-1 -56.432730596554137 0 -6.8925662176298488 0 0 1 1 0 0 forward_v I I I I #
coedge $-1 $146 $326 $143 $234 forward $141 $-1 #
coedge $-1 $233 $143 $327 $328 reversed $79 $-1 #
coedge $-1 $143 $232 $144 $236 forward $79 $-1 #
edge $-1 $329 -30.052560203906435 $237 -22.7108537230778 $231 $330 forward 7 unknown #
coedge $-1 $145 $144 $241 $331 reversed $49 $-1 #
edge $-1 $332 -100.40101321451459 $237 -90.673156644670144 $233 $333 forward 7 unknown #
vertex $-1 $147 $334 #
straight-curve $-1 42.858800126428662 4.1825006598417964 13.336682566437382 0 1 0 I I #
vertex $-1 $331 $335 #
straight-curve $-1 -25.573099233494794 11.877835791715579 72.823626393652091 0.75470957328743171 0 -0.6560590369687036 I I #
coedge $-1 $327 $149 $235 $331 forward $243 $-1 #
coedge $-1 $149 $336 $151 $246 reversed $243 $-1 #
loop $-1 $-1 $327 $337 #
straight-curve $-1 50.200506607257303 11.877835791715579 74.298616117202101 0 0 -1 I I #
coedge $-1 $338 $151 $339 $340 forward $141 $-1 #
edge $-1 $153 11.877835791715579 $341 29.792752821050705 $242 $342 forward 7 unknown #
point $-1 42.858800126428669 11.877835791715579 13.336682566437389 #
point $-1 50.200506607257303 11.877835791715579 13.336682566437386 #
face $-1 $343 $344 $18 $-1 $345 forward single #
loop $-1 $-1 $346 $155 #
plane-surface $-1 40.295892806701737 4.8521668476516062 148.5972322344042 0 1 0 0.6560590369687036 0 0.75470957328743171 forward_v I I I I #
loop $-1 $-1 $347 $86 #
coedge $-1 $254 $158 $348 $349 forward $87 $-1 #
coedge $-1 $158 $253 $350 $351 reversed $87 $-1 #
coedge $-1 $352 $353 $158 $256 forward $344 $-1 #
edge $-1 $354 22.7108537230778 $355 30.052560203906435 $255 $356 forward 7 unknown #
edge $-1 $357 1 $357 0 $159 $-1 forward 7 unknown #
vertex $-1 $160 $358 #
ellipse-curve $-1 43.954611135220262 6.8595008316698838 7.1834112926723952 0.6560590369687036 0 0.75470957328743171 0.75470957328743171 0 -0.6560590369687036 1 I I #
point $-1 47.284362940130421 6.8595008316698838 9.4895994229777738 #
face $-1 $359 $170 $19 $-1 $360 forward single #
loop $-1 $-1 $361 $163 #
plane-surface $-1 40.295892806701737 11.877835791715579 148.5972322344042 0 -1 0 -0.6560590369687036 0 -0.75470957328743171 forward_v I I I I #
loop $-1 $-1 $362 $94 #
coedge $-1 $265 $265 $266 $363 forward $164 $-1 #
coedge $-1 $266 $266 $265 $363 reversed $166 $-1 #
coedge $-1 $267 $267 $167 $268 forward $272 $-1 #
edge $-1 $364 0 $364 6.2831853071796004 $267 $365 forward 7 unknown #
edge $-1 $366 1 $366 0 $168 $-1 forward 7 unknown #
vertex $-1 $169 $367 #
ellipse-curve $-1 43.954611135220262 9.8705018076973019 7.1834112926723952 0.6560590369687036 0 0.75470957328743171 0.75470957328743171 0 -0.6560590369687036 1 I I #
loop $-1 $368 $267 $261 #
point $-1 47.284362940130421 9.8705018076973019 9.4895994229777738 #
plane-surface $-1 50.200506607257303 0 0 -1 0 0 0 0 1 forward_v I I I I #
coedge $-1 $178 $176 $180 $279 reversed $103 $-1 #
edge $-1 $191 -13.336682566437386 $281 13.336682566437386 $190 $369 forward 7 unknown #
vertex $-1 $279 $370 #
straight-curve $-1 -50.200506607257303 -29.792752821050705 0 0 0 -1 I I #
edge $-1 $277 -29.792752821050705 $281 29.792752821050705 $275 $371 forward 7 unknown #
straight-curve $-1 0 -29.792752821050705 -13.336682566437386 -1 0 0 I I #
vertex $-1 $183 $372 #
straight-curve $-1 0 29.792752821050705 -13.336682566437386 1 0 0 I I #
point $-1 50.200506607257303 29.792752821050705 -13.336682566437386 #
point $-1 50.200506607257303 -29.792752821050705 -13.336682566437386 #
straight-curve $-1 -50.200506607257303 0 13.336682566437386 0 -1 0 I I #
point $-1 -50.200506607257303 29.792752821050705 13.336682566437386 #
point $-1 -50.200506607257303 -29.792752821050705 13.336682566437386 #
straight-curve $-1 50.200506607257303 -29.792752821050705 0 0 0 -1 I I #
straight-curve $-1 50.200506607257303 29.792752821050705 0 0 0 -1 I I #
face $-1 $373 $213 $16 $-1 $374 reversed single #
plane-surface $-1 -50.200506607257303 0 0 1 0 0 0 0 -1 forward_v I I I I #
coedge $-1 $209 $203 $315 $375 forward $122 $-1 #
coedge $-1 $203 $209 $212 $312 forward $122 $-1 #
coedge $-1 $302 $301 $203 $295 reversed $303 $-1 #
edge $-1 $376 -29.792752821050705 $377 29.792752821050705 $294 $378 forward 7 unknown #
coedge $-1 $205 $204 $223 $317 forward $71 $-1 #
coedge $-1 $311 $217 $204 $298 reversed $213 $-1 #
edge $-1 $305 -50.200506607257303 $320 50.200506607257303 $297 $379 forward 7 unknown #
coedge $-1 $220 $380 $205 $300 reversed $201 $-1 #
edge $-1 $318 -50.200506607257303 $304 50.200506607257303 $299 $381 forward 7 unknown #
coedge $-1 $294 $206 $380 $382 forward $303 $-1 #
coedge $-1 $206 $294 $311 $383 reversed $303 $-1 #
loop $-1 $-1 $301 $373 #
vertex $-1 $207 $384 #
vertex $-1 $207 $385 #
straight-curve $-1 50.200506607257303 0 13.336682566437386 0 1 0 I I #
edge $-1 $221 -3.2220581744037684 $308 3.2220581744037684 $208 $386 forward 7 unknown #
vertex $-1 $210 $387 #
straight-curve $-1 -62.664954585850971 0 -13.336682566437386 0 1 0 I I #
straight-curve $-1 -62.664954585850971 0 -6.8925662176298488 0 -1 0 I I #
coedge $-1 $212 $297 $302 $383 forward $213 $-1 #
edge $-1 $215 -62.664954585850971 $376 50.200506607257303 $212 $388 forward 7 unknown #
point $-1 -62.664954585850971 29.792752821050705 -6.8925662176298488 #
point $-1 -62.664954585850971 29.792752821050705 -13.336682566437386 #
coedge $-1 $380 $219 $292 $375 reversed $201 $-1 #
point $-1 -62.664954585850971 -29.792752821050705 -6.8925662176298488 #
edge $-1 $320 -29.792752821050705 $318 29.792752821050705 $223 $389 forward 7 unknown #
vertex $-1 $317 $390 #
straight-curve $-1 -50.200506607257303 -29.792752821050705 0 0 0 -1 I I #
vertex $-1 $298 $391 #
straight-curve $-1 -50.200506607257303 29.792752821050705 0 0 0 -1 I I #
face $-1 $392 $393 $17 $-1 $394 reversed single #
loop $-1 $-1 $395 $228 #
plane-surface $-1 -62.664954585850971 0 -10.114624392033617 1 0 0 0 0 -1 forward_v I I I I #
coedge $-1 $396 $397 $398 $399 reversed $229 $-1 #
coedge $-1 $231 $400 $401 $402 forward $141 $-1 #
coedge $-1 $401 $241 $232 $328 forward $243 $-1 #
edge $-1 $332 -67.343981763746541 $329 -60.961933550764712 $327 $403 forward 7 unknown #
vertex $-1 $328 $404 #
straight-curve $-1 20.147946403350868 4.8521668476516062 13.336682566437389 -1 0 0 I I #
edge $-1 $239 -7.695335131873783 $332 -0.6696661878098098 $241 $405 forward 7 unknown #
vertex $-1 $331 $406 #
straight-curve $-1 -25.573099233494794 4.8521668476516062 72.823626393652091 -0.75470957328743171 0 0.6560590369687036 I I #
point $-1 42.858800126428669 4.8521668476516062 13.336682566437389 #
point $-1 50.200506607257303 11.877835791715579 6.9546343534555604 #
coedge $-1 $242 $407 $408 $409 reversed $243 $-1 #
face $-1 $-1 $243 $17 $-1 $410 reversed single #
coedge $-1 $400 $245 $411 $412 forward $141 $-1 #
coedge $-1 $408 $413 $245 $340 reversed $414 $-1 #
edge $-1 $341 -50.200506607257303 $415 50.200506607257303 $339 $416 forward 7 unknown #
vertex $-1 $246 $417 #
straight-curve $-1 50.200506607257303 0 13.336682566437386 0 1 0 I I #
face $-1 $418 $419 $18 $-1 $420 forward single #
loop $-1 $-1 $421 $249 #
plane-surface $-1 0 0 13.336682566437386 0 0 1 1 0 0 forward_v I I I I #
coedge $-1 $422 $423 $421 $424 reversed $250 $-1 #
coedge $-1 $425 $348 $353 $426 reversed $252 $-1 #
coedge $-1 $347 $427 $253 $349 reversed $252 $-1 #
edge $-1 $354 90.673156644670144 $428 100.40101321451459 $253 $429 forward 7 unknown #
coedge $-1 $430 $431 $254 $351 forward $432 $-1 #
edge $-1 $355 60.961933550764712 $428 67.343981763746541 $350 $433 forward 7 unknown #
coedge $-1 $434 $255 $431 $435 forward $344 $-1 #
coedge $-1 $255 $421 $347 $426 forward $344 $-1 #
vertex $-1 $426 $436 #
vertex $-1 $435 $437 #
straight-curve $-1 20.147946403350868 11.877835791715579 13.336682566437389 1 0 0 I I #
vertex $-1 $257 $438 #
point $-1 44.709320708507697 6.8595008316698838 6.5273522557036916 #
face $-1 $439 $440 $19 $-1 $441 forward single #
plane-surface $-1 -25.573099233494794 8.3650013196835928 72.823626393652091 0.6560590369687036 0 0.75470957328743171 0.75470957328743171 0 -0.6560590369687036 forward_v I I I I #
coedge $-1 $442 $443 $444 $445 reversed $262 $-1 #
coedge $-1 $362 $362 $-1 $446 forward $264 $-1 #
edge $-1 $447 0 $447 6.2831853071796004 $265 $448 forward 7 unknown #
vertex $-1 $268 $449 #
ellipse-curve $-1 46.529653366842993 6.8595008316698838 10.14565845994648 -0.6560590369687036 0 -0.75470957328743171 0.75470957328743171 0 -0.6560590369687036 1 I I #
vertex $-1 $269 $450 #
point $-1 44.709320708507697 9.8705018076973019 6.5273522557036916 #
loop $-1 $-1 $451 $261 #
straight-curve $-1 -50.200506607257303 29.792752821050705 0 0 0 -1 I I #
point $-1 -50.200506607257303 -29.792752821050705 -13.336682566437386 #
straight-curve $-1 -50.200506607257303 0 -13.336682566437386 0 1 0 I I #
point $-1 -50.200506607257303 29.792752821050705 -13.336682566437386 #
face $-1 $-1 $303 $16 $-1 $452 reversed single #
plane-surface $-1 0 29.792752821050705 0 0 -1 0 0 0 -1 forward_v I I I I #
edge $-1 $377 -106.63323720381143 $308 6.2322239892968341 $315 $453 forward 7 unknown #
vertex $-1 $295 $454 #
vertex $-1 $382 $455 #
straight-curve $-1 50.200506607257303 0 -13.336682566437386 0 -1 0 I I #
straight-curve $-1 0 29.792752821050705 13.336682566437386 -1 0 0 I I #
coedge $-1 $299 $315 $301 $382 reversed $201 $-1 #
straight-curve $-1 0 -29.792752821050705 13.336682566437386 1 0 0 I I #
edge $-1 $304 -13.336682566437386 $377 13.336682566437386 $301 $456 forward 7 unknown #
edge $-1 $305 -13.336682566437386 $376 13.336682566437386 $302 $457 forward 7 unknown #
point $-1 50.200506607257303 -29.792752821050705 13.336682566437386 #
point $-1 50.200506607257303 29.792752821050705 13.336682566437386 #
straight-curve $-1 -62.664954585850971 -29.792752821050705 -10.114624392033617 0 0 -1 I I #
point $-1 -62.664954585850971 -29.792752821050705 -13.336682566437386 #
straight-curve $-1 0 29.792752821050705 -13.336682566437386 1 0 0 I I #
straight-curve $-1 -50.200506607257303 0 13.336682566437386 0 -1 0 I I #
point $-1 -50.200506607257303 -29.792752821050705 13.336682566437386 #
point $-1 -50.200506607257303 29.792752821050705 13.336682566437386 #
face $-1 $458 $459 $17 $-1 $460 reversed single #
loop $-1 $-1 $461 $322 #
plane-surface $-1 0 0 -13.336682566437386 0 0 1 1 0 0 forward_v I I I I #
coedge $-1 $462 $463 $464 $465 forward $323 $-1 #
coedge $-1 $466 $325 $467 $468 forward $229 $-1 #
coedge $-1 $325 $466 $469 $470 forward $229 $-1 #
coedge $-1 $471 $472 $325 $399 forward $473 $-1 #
edge $-1 $474 -29.792752821050705 $475 29.792752821050705 $398 $476 forward 7 unknown #
coedge $-1 $326 $338 $477 $478 forward $141 $-1 #
coedge $-1 $479 $327 $326 $402 reversed $243 $-1 #
edge $-1 $480 -29.792752821050705 $329 4.8521668476516062 $401 $342 forward 7 unknown #
straight-curve $-1 50.200506607257303 4.8521668476516062 74.298616117202101 0 0 1 I I #
point $-1 50.200506607257303 4.8521668476516062 13.336682566437386 #
straight-curve $-1 50.200506607257303 4.1825006598417964 6.9546343534555639 0 -1 0 I I #
point $-1 50.200506607257303 4.8521668476516062 6.9546343534555604 #
coedge $-1 $336 $479 $461 $481 reversed $243 $-1 #
coedge $-1 $482 $339 $336 $409 forward $414 $-1 #
edge $-1 $341 -13.336682566437386 $483 13.336682566437386 $336 $484 forward 7 unknown #
plane-surface $-1 50.200506607257303 0 0 -1 0 0 0 0 1 forward_v I I I I #
coedge $-1 $472 $471 $338 $412 reversed $473 $-1 #
edge $-1 $415 -29.792752821050705 $485 29.792752821050705 $411 $486 forward 7 unknown #
coedge $-1 $339 $467 $472 $487 reversed $414 $-1 #
loop $-1 $-1 $408 $488 #
vertex $-1 $340 $489 #
straight-curve $-1 0 29.792752821050705 13.336682566437386 -1 0 0 I I #
point $-1 50.200506607257303 29.792752821050705 13.336682566437386 #
face $-1 $490 $491 $18 $-1 $492 reversed single #
loop $-1 $-1 $493 $343 #
plane-surface $-1 -56.432730596554137 0 -6.8925662176298488 0 0 1 1 0 0 forward_v I I I I #
coedge $-1 $353 $494 $346 $424 forward $344 $-1 #
coedge $-1 $423 $346 $495 $496 reversed $250 $-1 #
coedge $-1 $346 $422 $425 $497 forward $250 $-1 #
edge $-1 $498 -30.052560203906435 $499 -22.7108537230778 $421 $500 forward 7 unknown #
coedge $-1 $427 $347 $423 $497 reversed $252 $-1 #
edge $-1 $499 0.6696661878098098 $354 7.695335131873783 $353 $501 forward 7 unknown #
coedge $-1 $348 $425 $430 $502 reversed $252 $-1 #
vertex $-1 $502 $503 #
straight-curve $-1 -25.573099233494794 11.877835791715579 72.823626393652091 0.75470957328743171 0 -0.6560590369687036 I I #
coedge $-1 $495 $350 $427 $502 forward $432 $-1 #
coedge $-1 $350 $504 $352 $435 reversed $432 $-1 #
loop $-1 $-1 $495 $505 #
straight-curve $-1 50.200506607257303 11.877835791715579 74.298616117202101 0 0 -1 I I #
coedge $-1 $506 $352 $507 $508 forward $344 $-1 #
edge $-1 $355 11.877835791715579 $509 29.792752821050705 $431 $510 forward 7 unknown #
point $-1 42.858800126428669 11.877835791715579 13.336682566437389 #
point $-1 50.200506607257303 11.877835791715579 13.336682566437386 #
point $-1 43.298552098251562 6.8595008316698838 6.4287017193849616 #
face $-1 $511 $512 $19 $-1 $513 forward single #
loop $-1 $-1 $514 $359 #
plane-surface $-1 40.295892806701737 4.8521668476516062 148.5972322344042 0 1 0 0.6560590369687036 0 0.75470957328743171 forward_v I I I I #
coedge $-1 $443 $361 $515 $516 forward $262 $-1 #
coedge $-1 $361 $442 $517 $518 reversed $262 $-1 #
coedge $-1 $519 $520 $361 $445 forward $512 $-1 #
edge $-1 $521 22.7108537230778 $522 30.052560203906435 $444 $523 forward 7 unknown #
edge $-1 $524 1 $524 0 $362 $-1 forward 7 unknown #
vertex $-1 $363 $525 #
ellipse-curve $-1 43.954611135220262 6.8595008316698838 7.1834112926723952 0.6560590369687036 0 0.75470957328743171 0.75470957328743171 0 -0.6560590369687036 1 I I #
point $-1 47.284362940130421 6.8595008316698838 9.4895994229777738 #
point $-1 43.298552098251562 9.8705018076973019 6.4287017193849616 #
coedge $-1 $526 $515 $520 $527 reversed $368 $-1 #
plane-surface $-1 50.200506607257303 0 0 -1 0 0 0 0 1 forward_v I I I I #
straight-curve $-1 -56.432730596554137 -29.792752821050705 -13.336682566437386 -1 0 0 I I #
point $-1 50.200506607257303 29.792752821050705 -13.336682566437386 #
point $-1 50.200506607257303 -29.792752821050705 -13.336682566437386 #
straight-curve $-1 50.200506607257303 -29.792752821050705 0 0 0 -1 I I #
straight-curve $-1 50.200506607257303 29.792752821050705 0 0 0 -1 I I #
face $-1 $488 $473 $17 $-1 $528 reversed single #
loop $-1 $-1 $529 $392 #
plane-surface $-1 0 -29.792752821050705 0 0 1 0 0 0 1 forward_v I I I I #
coedge $-1 $530 $531 $407 $481 forward $393 $-1 #
coedge $-1 $532 $395 $533 $534 reversed $323 $-1 #
coedge $-1 $395 $532 $466 $535 reversed $323 $-1 #
coedge $-1 $467 $482 $395 $465 reversed $414 $-1 #
edge $-1 $536 -3.2220581744037684 $537 3.2220581744037684 $464 $538 forward 7 unknown #
coedge $-1 $397 $396 $463 $535 forward $229 $-1 #
coedge $-1 $413 $464 $396 $468 reversed $414 $-1 #
edge $-1 $474 -6.2322239892968341 $536 6.2322239892968341 $467 $539 forward 7 unknown #
coedge $-1 $540 $529 $397 $470 reversed $459 $-1 #
edge $-1 $541 -6.2322239892968341 $475 6.2322239892968341 $469 $542 forward 7 unknown #
coedge $-1 $411 $398 $529 $543 reversed $473 $-1 #
coedge $-1 $398 $411 $413 $487 forward $473 $-1 #
loop $-1 $-1 $398 $458 #
vertex $-1 $487 $544 #
vertex $-1 $470 $545 #
straight-curve $-1 -50.200506607257303 0 -6.8925662176298488 0 -1 0 I I #
coedge $-1 $529 $546 $400 $478 reversed $459 $-1 #
edge $-1 $485 -50.200506607257303 $480 50.200506607257303 $477 $547 forward 7 unknown #
coedge $-1 $407 $401 $546 $548 forward $243 $-1 #
vertex $-1 $402 $549 #
edge $-1 $483 -29.792752821050705 $550 29.792752821050705 $407 $551 forward 7 unknown #
coedge $-1 $464 $408 $531 $552 reversed $414 $-1 #
vertex $-1 $481 $553 #
straight-curve $-1 50.200506607257303 29.792752821050705 0 0 0 -1 I I #
vertex $-1 $412 $554 #
straight-curve $-1 -50.200506607257303 0 13.336682566437386 0 -1 0 I I #
edge $-1 $415 -13.336682566437386 $474 6.8925662176298488 $413 $555 forward 7 unknown #
face $-1 $337 $414 $17 $-1 $556 reversed single #
point $-1 -50.200506607257303 29.792752821050705 13.336682566437386 #
face $-1 $557 $558 $18 $-1 $559 reversed single #
loop $-1 $-1 $560 $418 #
plane-surface $-1 -62.664954585850971 0 -10.114624392033617 1 0 0 0 0 -1 forward_v I I I I #
coedge $-1 $561 $562 $563 $564 reversed $419 $-1 #
coedge $-1 $421 $565 $566 $567 forward $344 $-1 #
coedge $-1 $566 $430 $422 $496 forward $432 $-1 #
edge $-1 $568 -67.343981763746541 $498 -60.961933550764712 $495 $569 forward 7 unknown #
edge $-1 $568 -100.40101321451459 $499 -90.673156644670144 $423 $570 forward 7 unknown #
vertex $-1 $496 $571 #
vertex $-1 $426 $572 #
straight-curve $-1 20.147946403350868 4.8521668476516062 13.336682566437389 -1 0 0 I I #
straight-curve $-1 42.858800126428662 4.1825006598417964 13.336682566437382 0 1 0 I I #
edge $-1 $428 -7.695335131873783 $568 -0.6696661878098098 $430 $573 forward 7 unknown #
point $-1 50.200506607257303 11.877835791715579 6.9546343534555604 #
coedge $-1 $431 $574 $575 $576 reversed $432 $-1 #
face $-1 $-1 $432 $18 $-1 $577 reversed single #
coedge $-1 $565 $434 $578 $579 forward $344 $-1 #
coedge $-1 $575 $580 $434 $508 reversed $581 $-1 #
edge $-1 $509 -50.200506607257303 $582 50.200506607257303 $507 $583 forward 7 unknown #
vertex $-1 $435 $584 #
straight-curve $-1 50.200506607257303 0 13.336682566437386 0 1 0 I I #
face $-1 $585 $586 $19 $-1 $587 forward single #
loop $-1 $-1 $588 $439 #
plane-surface $-1 0 0 13.336682566437386 0 0 1 1 0 0 forward_v I I I I #
coedge $-1 $589 $590 $588 $591 reversed $440 $-1 #
coedge $-1 $451 $592 $442 $516 reversed $368 $-1 #
edge $-1 $521 90.673156644670144 $593 100.40101321451459 $442 $594 forward 7 unknown #
coedge $-1 $595 $596 $443 $518 forward $597 $-1 #
edge $-1 $522 60.961933550764712 $593 67.343981763746541 $517 $598 forward 7 unknown #
coedge $-1 $599 $444 $596 $600 forward $512 $-1 #
coedge $-1 $444 $588 $451 $527 forward $512 $-1 #
vertex $-1 $527 $601 #
vertex $-1 $600 $602 #
straight-curve $-1 20.147946403350868 11.877835791715579 13.336682566437389 1 0 0 I I #
vertex $-1 $446 $603 #
point $-1 44.709320708507697 6.8595008316698838 6.5273522557036916 #
coedge $-1 $592 $451 $590 $604 reversed $368 $-1 #
edge $-1 $605 0.6696661878098098 $521 7.695335131873783 $520 $606 forward 7 unknown #
plane-surface $-1 -50.200506607257303 0 0 1 0 0 0 0 -1 forward_v I I I I #
coedge $-1 $469 $477 $471 $543 forward $459 $-1 #
coedge $-1 $533 $461 $607 $608 forward $393 $-1 #
coedge $-1 $461 $533 $482 $552 forward $393 $-1 #
coedge $-1 $463 $462 $540 $609 reversed $323 $-1 #
coedge $-1 $531 $530 $462 $534 forward $393 $-1 #
edge $-1 $610 -29.792752821050705 $537 29.792752821050705 $462 $611 forward 7 unknown #
edge $-1 $536 -29.792752821050705 $541 29.792752821050705 $463 $612 forward 7 unknown #
vertex $-1 $468 $613 #
vertex $-1 $552 $614 #
straight-curve $-1 -62.664954585850971 29.792752821050705 -10.114624392033617 0 0 -1 I I #
straight-curve $-1 -56.432730596554137 29.792752821050705 -6.8925662176298488 -1 0 0 I I #
coedge $-1 $607 $469 $532 $609 forward $459 $-1 #
vertex $-1 $535 $615 #
straight-curve $-1 -56.432730596554137 -29.792752821050705 -6.8925662176298488 1 0 0 I I #
edge $-1 $485 -13.336682566437386 $475 6.8925662176298488 $471 $616 forward 7 unknown #
point $-1 -50.200506607257303 29.792752821050705 -6.8925662176298488 #
point $-1 -50.200506607257303 -29.792752821050705 -6.8925662176298488 #
coedge $-1 $477 $607 $479 $548 reversed $459 $-1 #
straight-curve $-1 0 -29.792752821050705 13.336682566437386 1 0 0 I I #
edge $-1 $480 -13.336682566437386 $550 13.336682566437386 $479 $617 forward 7 unknown #
point $-1 50.200506607257303 -29.792752821050705 13.336682566437386 #
vertex $-1 $548 $618 #
straight-curve $-1 50.200506607257303 0 -13.336682566437386 0 -1 0 I I #
edge $-1 $537 -62.664954585850971 $483 50.200506607257303 $482 $619 forward 7 unknown #
point $-1 50.200506607257303 29.792752821050705 -13.336682566437386 #
point $-1 -50.200506607257303 -29.792752821050705 13.336682566437386 #
straight-curve $-1 -50.200506607257303 29.792752821050705 0 0 0 -1 I I #
plane-surface $-1 0 29.792752821050705 0 0 -1 0 0 0 -1 forward_v I I I I #
face $-1 $620 $621 $18 $-1 $622 reversed single #
loop $-1 $-1 $623 $490 #
plane-surface $-1 0 0 -13.336682566437386 0 0 1 1 0 0 forward_v I I I I #
coedge $-1 $624 $625 $626 $627 forward $491 $-1 #
coedge $-1 $628 $493 $629 $630 forward $419 $-1 #
coedge $-1 $493 $628 $631 $632 forward $419 $-1 #
coedge $-1 $633 $634 $493 $564 forward $635 $-1 #
edge $-1 $636 -29.792752821050705 $637 29.792752821050705 $563 $638 forward 7 unknown #
coedge $-1 $494 $506 $639 $640 forward $344 $-1 #
coedge $-1 $641 $495 $494 $567 reversed $432 $-1 #
edge $-1 $642 -29.792752821050705 $498 4.8521668476516062 $566 $510 forward 7 unknown #
vertex $-1 $502 $643 #
straight-curve $-1 50.200506607257303 4.8521668476516062 74.298616117202101 0 0 1 I I #
straight-curve $-1 -25.573099233494794 4.8521668476516062 72.823626393652091 -0.75470957328743171 0 0.6560590369687036 I I #
point $-1 50.200506607257303 4.8521668476516062 13.336682566437386 #
point $-1 42.858800126428669 4.8521668476516062 13.336682566437389 #
straight-curve $-1 50.200506607257303 4.1825006598417964 6.9546343534555639 0 -1 0 I I #
coedge $-1 $504 $641 $623 $644 reversed $432 $-1 #
coedge $-1 $645 $507 $504 $576 forward $581 $-1 #
edge $-1 $509 -13.336682566437386 $646 13.336682566437386 $504 $647 forward 7 unknown #
plane-surface $-1 50.200506607257303 0 0 -1 0 0 0 0 1 forward_v I I I I #
coedge $-1 $634 $633 $506 $579 reversed $635 $-1 #
edge $-1 $582 -29.792752821050705 $648 29.792752821050705 $578 $649 forward 7 unknown #
coedge $-1 $507 $629 $634 $650 reversed $581 $-1 #
loop $-1 $-1 $575 $651 #
vertex $-1 $508 $652 #
straight-curve $-1 0 29.792752821050705 13.336682566437386 -1 0 0 I I #
point $-1 50.200506607257303 29.792752821050705 13.336682566437386 #
face $-1 $653 $654 $19 $-1 $655 reversed single #
loop $-1 $-1 $656 $511 #
plane-surface $-1 -56.432730596554137 0 -6.8925662176298488 0 0 1 1 0 0 forward_v I I I I #
coedge $-1 $520 $657 $514 $591 forward $512 $-1 #
coedge $-1 $590 $514 $658 $659 reversed $440 $-1 #
coedge $-1 $514 $589 $526 $604 forward $440 $-1 #
edge $-1 $660 -30.052560203906435 $605 -22.7108537230778 $588 $661 forward 7 unknown #
coedge $-1 $515 $526 $595 $662 reversed $368 $-1 #
vertex $-1 $662 $663 #
straight-curve $-1 -25.573099233494794 11.877835791715579 72.823626393652091 0.75470957328743171 0 -0.6560590369687036 I I #
coedge $-1 $658 $517 $592 $662 forward $597 $-1 #
coedge $-1 $517 $664 $519 $600 reversed $597 $-1 #
loop $-1 $-1 $658 $665 #
straight-curve $-1 50.200506607257303 11.877835791715579 74.298616117202101 0 0 -1 I I #
coedge $-1 $666 $519 $667 $668 forward $512 $-1 #
edge $-1 $522 11.877835791715579 $669 29.792752821050705 $596 $670 forward 7 unknown #
point $-1 42.858800126428669 11.877835791715579 13.336682566437389 #
point $-1 50.200506607257303 11.877835791715579 13.336682566437386 #
point $-1 43.298552098251562 6.8595008316698838 6.4287017193849616 #
edge $-1 $671 -100.40101321451459 $605 -90.673156644670144 $590 $672 forward 7 unknown #
vertex $-1 $527 $673 #
straight-curve $-1 42.858800126428662 4.1825006598417964 13.336682566437382 0 1 0 I I #
coedge $-1 $546 $540 $530 $608 reversed $459 $-1 #
edge $-1 $550 -106.63323720381143 $610 6.2322239892968341 $607 $674 forward 7 unknown #
edge $-1 $541 -3.2220581744037684 $610 3.2220581744037684 $532 $675 forward 7 unknown #
vertex $-1 $534 $676 #
straight-curve $-1 -62.664954585850971 0 -13.336682566437386 0 1 0 I I #
straight-curve $-1 -62.664954585850971 0 -6.8925662176298488 0 -1 0 I I #
point $-1 -62.664954585850971 29.792752821050705 -6.8925662176298488 #
point $-1 -62.664954585850971 29.792752821050705 -13.336682566437386 #
point $-1 -62.664954585850971 -29.792752821050705 -6.8925662176298488 #
straight-curve $-1 -50.200506607257303 -29.792752821050705 0 0 0 -1 I I #
straight-curve $-1 50.200506607257303 -29.792752821050705 0 0 0 -1 I I #
point $-1 50.200506607257303 -29.792752821050705 -13.336682566437386 #
straight-curve $-1 0 29.792752821050705 -13.336682566437386 1 0 0 I I #
face $-1 $651 $635 $18 $-1 $677 reversed single #
loop $-1 $-1 $678 $557 #
plane-surface $-1 0 -29.792752821050705 0 0 1 0 0 0 1 forward_v I I I I #
coedge $-1 $679 $680 $574 $644 forward $558 $-1 #
coedge $-1 $681 $560 $682 $683 reversed $491 $-1 #
coedge $-1 $560 $681 $628 $684 reversed $491 $-1 #
coedge $-1 $629 $645 $560 $627 reversed $581 $-1 #
edge $-1 $685 -3.2220581744037684 $686 3.2220581744037684 $626 $687 forward 7 unknown #
coedge $-1 $562 $561 $625 $684 forward $419 $-1 #
coedge $-1 $580 $626 $561 $630 reversed $581 $-1 #
edge $-1 $636 -6.2322239892968341 $685 6.2322239892968341 $629 $688 forward 7 unknown #
coedge $-1 $689 $678 $562 $632 reversed $621 $-1 #
edge $-1 $690 -6.2322239892968341 $637 6.2322239892968341 $631 $691 forward 7 unknown #
coedge $-1 $578 $563 $678 $692 reversed $635 $-1 #
coedge $-1 $563 $578 $580 $650 forward $635 $-1 #
loop $-1 $-1 $563 $620 #
vertex $-1 $650 $693 #
vertex $-1 $632 $694 #
straight-curve $-1 -50.200506607257303 0 -6.8925662176298488 0 -1 0 I I #
coedge $-1 $678 $695 $565 $640 reversed $621 $-1 #
edge $-1 $648 -50.200506607257303 $642 50.200506607257303 $639 $696 forward 7 unknown #
coedge $-1 $574 $566 $695 $697 forward $432 $-1 #
vertex $-1 $567 $698 #
point $-1 50.200506607257303 4.8521668476516062 6.9546343534555604 #
edge $-1 $646 -29.792752821050705 $699 29.792752821050705 $574 $700 forward 7 unknown #
coedge $-1 $626 $575 $680 $701 reversed $581 $-1 #
vertex $-1 $644 $702 #
straight-curve $-1 50.200506607257303 29.792752821050705 0 0 0 -1 I I #
vertex $-1 $579 $703 #
straight-curve $-1 -50.200506607257303 0 13.336682566437386 0 -1 0 I I #
edge $-1 $582 -13.336682566437386 $636 6.8925662176298488 $580 $704 forward 7 unknown #
face $-1 $505 $581 $18 $-1 $705 reversed single #
point $-1 -50.200506607257303 29.792752821050705 13.336682566437386 #
face $-1 $706 $707 $19 $-1 $708 reversed single #
loop $-1 $-1 $709 $585 #
plane-surface $-1 -62.664954585850971 0 -10.114624392033617 1 0 0 0 0 -1 forward_v I I I I #
coedge $-1 $710 $711 $712 $713 reversed $586 $-1 #
coedge $-1 $588 $714 $715 $716 forward $512 $-1 #
coedge $-1 $715 $595 $589 $659 forward $597 $-1 #
edge $-1 $671 -67.343981763746541 $660 -60.961933550764712 $658 $717 forward 7 unknown #
vertex $-1 $659 $718 #
straight-curve $-1 20.147946403350868 4.8521668476516062 13.336682566437389 -1 0 0 I I #
edge $-1 $593 -7.695335131873783 $671 -0.6696661878098098 $595 $719 forward 7 unknown #
point $-1 50.200506607257303 11.877835791715579 6.9546343534555604 #
coedge $-1 $596 $720 $721 $722 reversed $597 $-1 #
face $-1 $-1 $597 $19 $-1 $723 reversed single #
coedge $-1 $714 $599 $724 $725 forward $512 $-1 #
coedge $-1 $721 $726 $599 $668 reversed $727 $-1 #
edge $-1 $669 -50.200506607257303 $728 50.200506607257303 $667 $729 forward 7 unknown #
vertex $-1 $600 $730 #
straight-curve $-1 50.200506607257303 0 13.336682566437386 0 1 0 I I #
vertex $-1 $662 $731 #
straight-curve $-1 -25.573099233494794 4.8521668476516062 72.823626393652091 -0.75470957328743171 0 0.6560590369687036 I I #
point $-1 42.858800126428669 4.8521668476516062 13.336682566437389 #
straight-curve $-1 -56.432730596554137 -29.792752821050705 -13.336682566437386 -1 0 0 I I #
straight-curve $-1 -62.664954585850971 -29.792752821050705 -10.114624392033617 0 0 -1 I I #
point $-1 -62.664954585850971 -29.792752821050705 -13.336682566437386 #
plane-surface $-1 -50.200506607257303 0 0 1 0 0 0 0 -1 forward_v I I I I #
coedge $-1 $631 $639 $633 $692 forward $621 $-1 #
coedge $-1 $682 $623 $732 $733 forward $558 $-1 #
coedge $-1 $623 $682 $645 $701 forward $558 $-1 #
coedge $-1 $625 $624 $689 $734 reversed $491 $-1 #
coedge $-1 $680 $679 $624 $683 forward $558 $-1 #
edge $-1 $735 -29.792752821050705 $686 29.792752821050705 $624 $736 forward 7 unknown #
edge $-1 $685 -29.792752821050705 $690 29.792752821050705 $625 $737 forward 7 unknown #
vertex $-1 $630 $738 #
vertex $-1 $701 $739 #
straight-curve $-1 -62.664954585850971 29.792752821050705 -10.114624392033617 0 0 -1 I I #
straight-curve $-1 -56.432730596554137 29.792752821050705 -6.8925662176298488 -1 0 0 I I #
coedge $-1 $732 $631 $681 $734 forward $621 $-1 #
vertex $-1 $684 $740 #
straight-curve $-1 -56.432730596554137 -29.792752821050705 -6.8925662176298488 1 0 0 I I #
edge $-1 $648 -13.336682566437386 $637 6.8925662176298488 $633 $741 forward 7 unknown #
point $-1 -50.200506607257303 29.792752821050705 -6.8925662176298488 #
point $-1 -50.200506607257303 -29.792752821050705 -6.8925662176298488 #
coedge $-1 $639 $732 $641 $697 reversed $621 $-1 #
straight-curve $-1 0 -29.792752821050705 13.336682566437386 1 0 0 I I #
edge $-1 $642 -13.336682566437386 $699 13.336682566437386 $641 $742 forward 7 unknown #
point $-1 50.200506607257303 -29.792752821050705 13.336682566437386 #
vertex $-1 $697 $743 #
straight-curve $-1 50.200506607257303 0 -13.336682566437386 0 -1 0 I I #
edge $-1 $686 -62.664954585850971 $646 50.200506607257303 $645 $744 forward 7 unknown #
point $-1 50.200506607257303 29.792752821050705 -13.336682566437386 #
point $-1 -50.200506607257303 -29.792752821050705 13.336682566437386 #
straight-curve $-1 -50.200506607257303 29.792752821050705 0 0 0 -1 I I #
plane-surface $-1 0 29.792752821050705 0 0 -1 0 0 0 -1 forward_v I I I I #
face $-1 $745 $746 $19 $-1 $747 reversed single #
loop $-1 $-1 $748 $653 #
plane-surface $-1 0 0 -13.336682566437386 0 0 1 1 0 0 forward_v I I I I #
coedge $-1 $749 $750 $751 $752 forward $654 $-1 #
coedge $-1 $753 $656 $754 $755 forward $586 $-1 #
coedge $-1 $656 $753 $756 $757 forward $586 $-1 #
coedge $-1 $758 $759 $656 $713 forward $760 $-1 #
edge $-1 $761 -29.792752821050705 $762 29.792752821050705 $712 $763 forward 7 unknown #
coedge $-1 $657 $666 $764 $765 forward $512 $-1 #
coedge $-1 $766 $658 $657 $716 reversed $597 $-1 #
edge $-1 $767 -29.792752821050705 $660 4.8521668476516062 $715 $670 forward 7 unknown #
straight-curve $-1 50.200506607257303 4.8521668476516062 74.298616117202101 0 0 1 I I #
point $-1 50.200506607257303 4.8521668476516062 13.336682566437386 #
straight-curve $-1 50.200506607257303 4.1825006598417964 6.9546343534555639 0 -1 0 I I #
coedge $-1 $664 $766 $748 $768 reversed $597 $-1 #
coedge $-1 $769 $667 $664 $722 forward $727 $-1 #
edge $-1 $669 -13.336682566437386 $770 13.336682566437386 $664 $771 forward 7 unknown #
plane-surface $-1 50.200506607257303 0 0 -1 0 0 0 0 1 forward_v I I I I #
coedge $-1 $759 $758 $666 $725 reversed $760 $-1 #
edge $-1 $728 -29.792752821050705 $772 29.792752821050705 $724 $773 forward 7 unknown #
coedge $-1 $667 $754 $759 $774 reversed $727 $-1 #
loop $-1 $-1 $721 $775 #
vertex $-1 $668 $776 #
straight-curve $-1 0 29.792752821050705 13.336682566437386 -1 0 0 I I #
point $-1 50.200506607257303 29.792752821050705 13.336682566437386 #
point $-1 50.200506607257303 4.8521668476516062 6.9546343534555604 #
coedge $-1 $695 $689 $679 $733 reversed $621 $-1 #
edge $-1 $699 -106.63323720381143 $735 6.2322239892968341 $732 $777 forward 7 unknown #
edge $-1 $690 -3.2220581744037684 $735 3.2220581744037684 $681 $778 forward 7 unknown #
vertex $-1 $683 $779 #
straight-curve $-1 -62.664954585850971 0 -13.336682566437386 0 1 0 I I #
straight-curve $-1 -62.664954585850971 0 -6.8925662176298488 0 -1 0 I I #
point $-1 -62.664954585850971 29.792752821050705 -6.8925662176298488 #
point $-1 -62.664954585850971 29.792752821050705 -13.336682566437386 #
point $-1 -62.664954585850971 -29.792752821050705 -6.8925662176298488 #
straight-curve $-1 -50.200506607257303 -29.792752821050705 0 0 0 -1 I I #
straight-curve $-1 50.200506607257303 -29.792752821050705 0 0 0 -1 I I #
point $-1 50.200506607257303 -29.792752821050705 -13.336682566437386 #
straight-curve $-1 0 29.792752821050705 -13.336682566437386 1 0 0 I I #
face $-1 $775 $760 $19 $-1 $780 reversed single #
loop $-1 $-1 $781 $706 #
plane-surface $-1 0 -29.792752821050705 0 0 1 0 0 0 1 forward_v I I I I #
coedge $-1 $782 $783 $720 $768 forward $707 $-1 #
coedge $-1 $784 $709 $785 $786 reversed $654 $-1 #
coedge $-1 $709 $784 $753 $787 reversed $654 $-1 #
coedge $-1 $754 $769 $709 $752 reversed $727 $-1 #
edge $-1 $788 -3.2220581744037684 $789 3.2220581744037684 $751 $790 forward 7 unknown #
coedge $-1 $711 $710 $750 $787 forward $586 $-1 #
coedge $-1 $726 $751 $710 $755 reversed $727 $-1 #
edge $-1 $761 -6.2322239892968341 $788 6.2322239892968341 $754 $791 forward 7 unknown #
coedge $-1 $792 $781 $711 $757 reversed $746 $-1 #
edge $-1 $793 -6.2322239892968341 $762 6.2322239892968341 $756 $794 forward 7 unknown #
coedge $-1 $724 $712 $781 $795 reversed $760 $-1 #
coedge $-1 $712 $724 $726 $774 forward $760 $-1 #
loop $-1 $-1 $712 $745 #
vertex $-1 $774 $796 #
vertex $-1 $757 $797 #
straight-curve $-1 -50.200506607257303 0 -6.8925662176298488 0 -1 0 I I #
coedge $-1 $781 $798 $714 $765 reversed $746 $-1 #
edge $-1 $772 -50.200506607257303 $767 50.200506607257303 $764 $799 forward 7 unknown #
coedge $-1 $720 $715 $798 $800 forward $597 $-1 #
vertex $-1 $716 $801 #
edge $-1 $770 -29.792752821050705 $802 29.792752821050705 $720 $803 forward 7 unknown #
coedge $-1 $751 $721 $783 $804 reversed $727 $-1 #
vertex $-1 $768 $805 #
straight-curve $-1 50.200506607257303 29.792752821050705 0 0 0 -1 I I #
vertex $-1 $725 $806 #
straight-curve $-1 -50.200506607257303 0 13.336682566437386 0 -1 0 I I #
edge $-1 $728 -13.336682566437386 $761 6.8925662176298488 $726 $807 forward 7 unknown #
face $-1 $665 $727 $19 $-1 $808 reversed single #
point $-1 -50.200506607257303 29.792752821050705 13.336682566437386 #
straight-curve $-1 -56.432730596554137 -29.792752821050705 -13.336682566437386 -1 0 0 I I #
straight-curve $-1 -62.664954585850971 -29.792752821050705 -10.114624392033617 0 0 -1 I I #
point $-1 -62.664954585850971 -29.792752821050705 -13.336682566437386 #
plane-surface $-1 -50.200506607257303 0 0 1 0 0 0 0 -1 forward_v I I I I #
coedge $-1 $756 $764 $758 $795 forward $746 $-1 #
coedge $-1 $785 $748 $809 $810 forward $707 $-1 #
coedge $-1 $748 $785 $769 $804 forward $707 $-1 #
coedge $-1 $750 $749 $792 $811 reversed $654 $-1 #
coedge $-1 $783 $782 $749 $786 forward $707 $-1 #
edge $-1 $812 -29.792752821050705 $789 29.792752821050705 $749 $813 forward 7 unknown #
edge $-1 $788 -29.792752821050705 $793 29.792752821050705 $750 $814 forward 7 unknown #
vertex $-1 $755 $815 #
vertex $-1 $804 $816 #
straight-curve $-1 -62.664954585850971 29.792752821050705 -10.114624392033617 0 0 -1 I I #
straight-curve $-1 -56.432730596554137 29.792752821050705 -6.8925662176298488 -1 0 0 I I #
coedge $-1 $809 $756 $784 $811 forward $746 $-1 #
vertex $-1 $787 $817 #
straight-curve $-1 -56.432730596554137 -29.792752821050705 -6.8925662176298488 1 0 0 I I #
edge $-1 $772 -13.336682566437386 $762 6.8925662176298488 $758 $818 forward 7 unknown #
point $-1 -50.200506607257303 29.792752821050705 -6.8925662176298488 #
point $-1 -50.200506607257303 -29.792752821050705 -6.8925662176298488 #
coedge $-1 $764 $809 $766 $800 reversed $746 $-1 #
straight-curve $-1 0 -29.792752821050705 13.336682566437386 1 0 0 I I #
edge $-1 $767 -13.336682566437386 $802 13.336682566437386 $766 $819 forward 7 unknown #
point $-1 50.200506607257303 -29.792752821050705 13.336682566437386 #
vertex $-1 $800 $820 #
straight-curve $-1 50.200506607257303 0 -13.336682566437386 0 -1 0 I I #
edge $-1 $789 -62.664954585850971 $770 50.200506607257303 $769 $821 forward 7 unknown #
point $-1 50.200506607257303 29.792752821050705 -13.336682566437386 #
point $-1 -50.200506607257303 -29.792752821050705 13.336682566437386 #
straight-curve $-1 -50.200506607257303 29.792752821050705 0 0 0 -1 I I #
plane-surface $-1 0 29.792752821050705 0 0 -1 0 0 0 -1 forward_v I I I I #
coedge $-1 $798 $792 $782 $810 reversed $746 $-1 #
edge $-1 $802 -106.63323720381143 $812 6.2322239892968341 $809 $822 forward 7 unknown #
edge $-1 $793 -3.2220581744037684 $812 3.2220581744037684 $784 $823 forward 7 unknown #
vertex $-1 $786 $824 #
straight-curve $-1 -62.664954585850971 0 -13.336682566437386 0 1 0 I I #
straight-curve $-1 -62.664954585850971 0 -6.8925662176298488 0 -1 0 I I #
point $-1 -62.664954585850971 29.792752821050705 -6.8925662176298488 #
point $-1 -62.664954585850971 29.792752821050705 -13.336682566437386 #
point $-1 -62.664954585850971 -29.792752821050705 -6.8925662176298488 #
straight-curve $-1 -50.200506607257303 -29.792752821050705 0 0 0 -1 I I #
straight-curve $-1 50.200506607257303 -29.792752821050705 0 0 0 -1 I I #
point $-1 50.200506607257303 -29.792752821050705 -13.336682566437386 #
straight-curve $-1 0 29.792752821050705 -13.336682566437386 1 0 0 I I #
straight-curve $-1 -56.432730596554137 -29.792752821050705 -13.336682566437386 -1 0 0 I I #
straight-curve $-1 -62.664954585850971 -29.792752821050705 -10.114624392033617 0 0 -1 I I #
point $-1 -62.664954585850971 -29.792752821050705 -13.336682566437386 #
End-of-ACIS-data 