500 0 3 0           
7 Unknown 11 ACIS 5.0 NT 24 Fri Mar 26 20:46:13 1999 
-1 9.9999999999999995e-007 1e-010 
body $-1 $3 $-1 $4 #
body $-1 $5 $-1 $6 #
body $-1 $7 $-1 $8 #
lump $-1 $-1 $9 $0 #
transform $-1 1 0 0 0 1 0 0 0 1 69.687185277871038 37.898242262477687 17.16183044951007 1 rotate no_reflect no_shear #
lump $-1 $-1 $10 $1 #
transform $-1 1 0 0 0 1 0 0 0 1 69.687185277871038 37.898242262477687 17.16183044951007 1 rotate no_reflect no_shear #
lump $-1 $-1 $11 $2 #
transform $-1 1 0 0 0 1 0 0 0 1 69.687185277871038 37.898242262477687 17.16183044951007 1 rotate no_reflect no_shear #
shell $-1 $-1 $-1 $12 $-1 $3 #
shell $-1 $-1 $-1 $13 $-1 $5 #
shell $-1 $-1 $-1 $14 $-1 $7 #
face $-1 $15 $16 $9 $-1 $17 reversed single #
face $-1 $18 $19 $10 $-1 $20 forward single #
face $-1 $21 $22 $11 $-1 $23 reversed single #
face $-1 $24 $25 $9 $-1 $26 forward single #
loop $-1 $-1 $27 $12 #
plane-surface $-1 0 -37.898242262477687 0 0 1 0 0 0 1 forward_v I I I I #
face $-1 $28 $29 $10 $-1 $30 reversed single #
loop $-1 $-1 $31 $13 #
plane-surface $-1 0 -37.898242262477687 0 0 1 0 0 0 1 forward_v I I I I #
face $-1 $32 $33 $11 $-1 $34 reversed single #
loop $-1 $-1 $35 $14 #
plane-surface $-1 -38.776563965149073 19.567666385816132 0 0 1 0 0 0 1 forward_v I I I I #
face $-1 $36 $37 $9 $-1 $38 reversed single #
loop $-1 $-1 $39 $15 #
plane-surface $-1 0 0 17.16183044951007 0 0 1 1 0 0 forward_v I I I I #
coedge $-1 $40 $41 $42 $43 reversed $16 $-1 #
face $-1 $44 $45 $10 $-1 $46 reversed single #
loop $-1 $-1 $47 $18 #
plane-surface $-1 0 0 -17.16183044951007 0 0 1 1 0 0 forward_v I I I I #
coedge $-1 $48 $49 $50 $51 forward $19 $-1 #
face $-1 $52 $53 $11 $-1 $54 reversed single #
loop $-1 $-1 $55 $21 #
plane-surface $-1 -42.189603551447249 28.73295432414691 0 1 0 0 0 0 -1 forward_v I I I I #
coedge $-1 $56 $57 $58 $59 forward $22 $-1 #
face $-1 $60 $61 $9 $-1 $62 reversed single #
loop $-1 $-1 $63 $24 #
plane-surface $-1 0 0 -17.16183044951007 0 0 1 1 0 0 forward_v I I I I #
coedge $-1 $64 $65 $66 $67 forward $25 $-1 #
coedge $-1 $68 $27 $69 $70 reversed $16 $-1 #
coedge $-1 $27 $68 $71 $72 forward $16 $-1 #
coedge $-1 $73 $63 $27 $43 forward $37 $-1 #
edge $-1 $74 -69.687185277871038 $75 69.687185277871038 $27 $76 forward 7 unknown #
face $-1 $77 $78 $10 $-1 $79 reversed single #
loop $-1 $-1 $80 $28 #
plane-surface $-1 -60.642746796123404 -50.498525533206184 0 0 1 0 0 0 1 forward_v I I I I #
coedge $-1 $81 $82 $49 $83 forward $29 $-1 #
coedge $-1 $84 $31 $85 $86 reversed $19 $-1 #
coedge $-1 $31 $84 $47 $83 reversed $19 $-1 #
coedge $-1 $87 $88 $31 $51 reversed $78 $-1 #
edge $-1 $89 -17.16183044951007 $90 17.16183044951007 $50 $91 forward 7 unknown #
face $-1 $92 $93 $11 $-1 $94 reversed single #
loop $-1 $-1 $95 $32 #
plane-surface $-1 -35.363524378850897 28.73295432414691 0 -1 0 0 0 0 1 forward_v I I I I #
coedge $-1 $96 $97 $98 $99 reversed $33 $-1 #
coedge $-1 $100 $35 $101 $102 reversed $22 $-1 #
coedge $-1 $35 $100 $103 $104 reversed $22 $-1 #
coedge $-1 $97 $96 $35 $59 reversed $33 $-1 #
edge $-1 $105 -17.16183044951007 $106 17.16183044951007 $58 $107 forward 7 unknown #
face $-1 $108 $109 $9 $-1 $110 reversed single #
loop $-1 $-1 $111 $36 #
plane-surface $-1 -69.687185277871038 0 0 1 0 0 0 0 -1 forward_v I I I I #
coedge $-1 $42 $112 $113 $114 forward $37 $-1 #
coedge $-1 $115 $39 $116 $117 forward $25 $-1 #
coedge $-1 $39 $115 $68 $118 forward $25 $-1 #
coedge $-1 $69 $119 $39 $67 reversed $120 $-1 #
edge $-1 $121 -37.898242262477687 $122 37.898242262477687 $66 $123 forward 7 unknown #
coedge $-1 $41 $40 $65 $118 reversed $16 $-1 #
coedge $-1 $113 $66 $40 $70 forward $120 $-1 #
edge $-1 $121 -17.16183044951007 $74 17.16183044951007 $69 $124 forward 7 unknown #
coedge $-1 $125 $126 $41 $72 reversed $61 $-1 #
edge $-1 $127 -17.16183044951007 $75 17.16183044951007 $71 $128 forward 7 unknown #
coedge $-1 $112 $42 $126 $129 forward $37 $-1 #
vertex $-1 $70 $130 #
vertex $-1 $129 $131 #
straight-curve $-1 0 -37.898242262477687 -17.16183044951007 -1 0 0 I I #
face $-1 $132 $133 $10 $-1 $134 reversed single #
loop $-1 $-1 $50 $44 #
plane-surface $-1 -64.026665688644528 -44.198383897841936 0 1 0 0 0 0 -1 forward_v I I I I #
coedge $-1 $135 $136 $137 $138 forward $45 $-1 #
coedge $-1 $139 $47 $140 $141 forward $29 $-1 #
coedge $-1 $47 $139 $87 $142 forward $29 $-1 #
edge $-1 $89 -64.026665688644528 $143 -57.258827903602281 $47 $144 forward 7 unknown #
coedge $-1 $49 $48 $145 $146 forward $19 $-1 #
coedge $-1 $147 $148 $48 $86 forward $149 $-1 #
edge $-1 $150 57.258827903602281 $90 64.026665688644528 $85 $151 forward 7 unknown #
coedge $-1 $137 $50 $82 $142 reversed $78 $-1 #
coedge $-1 $50 $137 $147 $152 reversed $78 $-1 #
vertex $-1 $83 $153 #
vertex $-1 $152 $154 #
straight-curve $-1 -64.026665688644528 -37.898242262477687 0 0 0 1 I I #
face $-1 $155 $156 $11 $-1 $157 forward single #
loop $-1 $-1 $98 $52 #
plane-surface $-1 0 37.898242262477687 0 0 -1 0 0 0 -1 forward_v I I I I #
coedge $-1 $158 $159 $100 $160 forward $53 $-1 #
coedge $-1 $58 $55 $161 $162 reversed $33 $-1 #
coedge $-1 $55 $58 $163 $164 reversed $33 $-1 #
coedge $-1 $165 $166 $55 $99 forward $93 $-1 #
edge $-1 $167 -17.16183044951007 $168 17.16183044951007 $98 $169 forward 7 unknown #
coedge $-1 $57 $56 $95 $160 reversed $22 $-1 #
coedge $-1 $161 $170 $56 $102 forward $171 $-1 #
edge $-1 $172 15.975242396276361 $106 22.801321568872712 $101 $173 forward 7 unknown #
coedge $-1 $174 $163 $57 $104 forward $156 $-1 #
edge $-1 $105 -22.801321568872712 $175 -15.975242396276361 $103 $176 forward 7 unknown #
vertex $-1 $104 $177 #
vertex $-1 $102 $178 #
straight-curve $-1 -42.189603551447249 19.567666385816132 0 0 0 -1 I I #
face $-1 $-1 $120 $9 $-1 $179 reversed single #
loop $-1 $-1 $180 $60 #
plane-surface $-1 0 37.898242262477687 0 0 -1 0 0 0 -1 forward_v I I I I #
coedge $-1 $126 $125 $181 $182 forward $61 $-1 #
coedge $-1 $63 $73 $183 $184 forward $37 $-1 #
coedge $-1 $119 $69 $63 $114 reversed $120 $-1 #
edge $-1 $185 -37.898242262477687 $74 37.898242262477687 $113 $186 forward 7 unknown #
coedge $-1 $65 $64 $125 $187 forward $25 $-1 #
coedge $-1 $180 $181 $64 $117 reversed $109 $-1 #
edge $-1 $122 -69.687185277871038 $188 69.687185277871038 $116 $189 forward 7 unknown #
edge $-1 $127 -69.687185277871038 $121 69.687185277871038 $68 $190 forward 7 unknown #
coedge $-1 $66 $113 $180 $191 reversed $120 $-1 #
loop $-1 $-1 $69 $108 #
vertex $-1 $67 $192 #
vertex $-1 $67 $193 #
straight-curve $-1 69.687185277871038 0 17.16183044951007 0 1 0 I I #
straight-curve $-1 69.687185277871038 -37.898242262477687 0 0 0 -1 I I #
coedge $-1 $111 $71 $115 $187 reversed $61 $-1 #
coedge $-1 $71 $111 $73 $129 reversed $61 $-1 #
vertex $-1 $187 $194 #
straight-curve $-1 -69.687185277871038 -37.898242262477687 0 0 0 -1 I I #
edge $-1 $75 -37.898242262477687 $195 37.898242262477687 $126 $196 forward 7 unknown #
point $-1 69.687185277871038 -37.898242262477687 -17.16183044951007 #
point $-1 -69.687185277871038 -37.898242262477687 -17.16183044951007 #
face $-1 $-1 $149 $10 $-1 $197 forward single #
loop $-1 $-1 $198 $77 #
plane-surface $-1 -57.258827903602281 -44.198383897841936 0 -1 0 0 0 0 1 forward_v I I I I #
coedge $-1 $199 $80 $139 $200 reversed $45 $-1 #
coedge $-1 $80 $199 $201 $202 reversed $45 $-1 #
coedge $-1 $88 $87 $80 $138 reversed $78 $-1 #
edge $-1 $203 -17.16183044951007 $204 17.16183044951007 $137 $205 forward 7 unknown #
coedge $-1 $82 $81 $135 $200 forward $29 $-1 #
coedge $-1 $145 $198 $81 $141 reversed $133 $-1 #
edge $-1 $143 -6.3001416353642483 $206 6.3001416353642483 $140 $207 forward 7 unknown #
edge $-1 $204 -6.3001416353642483 $89 6.3001416353642483 $87 $208 forward 7 unknown #
vertex $-1 $141 $209 #
straight-curve $-1 0 -37.898242262477687 -17.16183044951007 1 0 0 I I #
coedge $-1 $210 $140 $84 $146 reversed $133 $-1 #
edge $-1 $150 -17.16183044951007 $143 17.16183044951007 $145 $211 forward 7 unknown #
coedge $-1 $201 $85 $88 $152 forward $149 $-1 #
coedge $-1 $85 $201 $210 $212 forward $149 $-1 #
loop $-1 $-1 $85 $132 #
vertex $-1 $86 $213 #
straight-curve $-1 0 -37.898242262477687 17.16183044951007 -1 0 0 I I #
edge $-1 $90 -6.3001416353642483 $203 6.3001416353642483 $88 $214 forward 7 unknown #
point $-1 -64.026665688644528 -37.898242262477687 -17.16183044951007 #
point $-1 -64.026665688644528 -37.898242262477687 17.16183044951007 #
face $-1 $-1 $171 $11 $-1 $215 reversed single #
loop $-1 $-1 $163 $92 #
plane-surface $-1 0 0 17.16183044951007 0 0 1 1 0 0 forward_v I I I I #
coedge $-1 $216 $95 $170 $217 reversed $53 $-1 #
coedge $-1 $95 $216 $174 $218 reversed $53 $-1 #
edge $-1 $175 -17.16183044951007 $172 17.16183044951007 $95 $219 forward 7 unknown #
coedge $-1 $220 $101 $96 $162 forward $171 $-1 #
edge $-1 $106 5.2011892237426771 $167 23.531765100404233 $161 $221 forward 7 unknown #
coedge $-1 $103 $222 $97 $164 forward $156 $-1 #
edge $-1 $168 -23.531765100404233 $105 -5.2011892237426771 $163 $223 forward 7 unknown #
coedge $-1 $224 $98 $222 $225 reversed $93 $-1 #
coedge $-1 $98 $224 $220 $226 reversed $93 $-1 #
vertex $-1 $226 $227 #
vertex $-1 $99 $228 #
straight-curve $-1 -42.189603551447249 37.898242262477687 0 0 0 1 I I #
coedge $-1 $101 $220 $158 $217 forward $171 $-1 #
loop $-1 $-1 $161 $155 #
vertex $-1 $102 $229 #
straight-curve $-1 -19.388281982574536 19.567666385816132 -17.16183044951007 -1 0 0 I I #
coedge $-1 $222 $103 $159 $218 forward $156 $-1 #
vertex $-1 $104 $230 #
straight-curve $-1 -19.388281982574536 19.567666385816132 17.16183044951007 1 0 0 I I #
point $-1 -42.189603551447249 19.567666385816132 17.16183044951007 #
point $-1 -42.189603551447249 19.567666385816132 -17.16183044951007 #
plane-surface $-1 69.687185277871038 0 0 -1 0 0 0 0 1 forward_v I I I I #
coedge $-1 $183 $116 $119 $191 forward $109 $-1 #
coedge $-1 $116 $183 $111 $182 reversed $109 $-1 #
edge $-1 $188 -17.16183044951007 $195 17.16183044951007 $181 $231 forward 7 unknown #
coedge $-1 $181 $180 $112 $184 reversed $109 $-1 #
edge $-1 $195 -69.687185277871038 $185 69.687185277871038 $183 $232 forward 7 unknown #
vertex $-1 $114 $233 #
straight-curve $-1 69.687185277871038 0 -17.16183044951007 0 -1 0 I I #
edge $-1 $188 -37.898242262477687 $127 37.898242262477687 $125 $234 forward 7 unknown #
vertex $-1 $117 $235 #
straight-curve $-1 0 37.898242262477687 17.16183044951007 -1 0 0 I I #
straight-curve $-1 0 -37.898242262477687 17.16183044951007 1 0 0 I I #
edge $-1 $122 -17.16183044951007 $185 17.16183044951007 $119 $236 forward 7 unknown #
point $-1 69.687185277871038 -37.898242262477687 17.16183044951007 #
point $-1 69.687185277871038 37.898242262477687 17.16183044951007 #
point $-1 -69.687185277871038 -37.898242262477687 17.16183044951007 #
vertex $-1 $184 $237 #
straight-curve $-1 -69.687185277871038 0 -17.16183044951007 0 1 0 I I #
plane-surface $-1 0 0 17.16183044951007 0 0 1 1 0 0 forward_v I I I I #
coedge $-1 $140 $210 $199 $238 forward $133 $-1 #
coedge $-1 $136 $135 $198 $238 reversed $45 $-1 #
edge $-1 $206 -3.3839188925211232 $204 3.3839188925211232 $135 $239 forward 7 unknown #
coedge $-1 $148 $147 $136 $202 forward $149 $-1 #
edge $-1 $203 -3.3839188925211232 $240 3.3839188925211232 $136 $241 forward 7 unknown #
vertex $-1 $152 $242 #
vertex $-1 $142 $243 #
straight-curve $-1 -64.026665688644528 -50.498525533206184 0 0 0 -1 I I #
vertex $-1 $238 $244 #
straight-curve $-1 -57.258827903602281 -44.198383897841936 -17.16183044951007 0 -1 0 I I #
straight-curve $-1 -64.026665688644528 -44.198383897841936 -17.16183044951007 0 1 0 I I #
point $-1 -57.258827903602281 -37.898242262477687 -17.16183044951007 #
coedge $-1 $198 $145 $148 $212 reversed $133 $-1 #
straight-curve $-1 -57.258827903602281 -37.898242262477687 0 0 0 -1 I I #
edge $-1 $240 -6.3001416353642483 $150 6.3001416353642483 $210 $245 forward 7 unknown #
point $-1 -57.258827903602281 -37.898242262477687 17.16183044951007 #
straight-curve $-1 -64.026665688644528 -44.198383897841936 17.16183044951007 0 -1 0 I I #
plane-surface $-1 0 0 -17.16183044951007 0 0 1 1 0 0 forward_v I I I I #
coedge $-1 $159 $158 $224 $246 reversed $53 $-1 #
edge $-1 $247 -23.531765100404233 $172 -5.2011892237426771 $170 $248 forward 7 unknown #
edge $-1 $175 5.2011892237426771 $249 23.531765100404233 $174 $250 forward 7 unknown #
straight-curve $-1 -35.363524378850897 19.567666385816132 0 0 0 -1 I I #
coedge $-1 $170 $161 $166 $226 forward $171 $-1 #
straight-curve $-1 -42.189603551447249 14.366477162073455 -17.16183044951007 0 1 0 I I #
coedge $-1 $163 $174 $165 $225 forward $156 $-1 #
straight-curve $-1 -42.189603551447249 14.366477162073455 17.16183044951007 0 -1 0 I I #
coedge $-1 $166 $165 $216 $246 forward $93 $-1 #
edge $-1 $249 35.363524378850897 $168 42.189603551447249 $165 $251 forward 7 unknown #
edge $-1 $167 -42.189603551447249 $247 -35.363524378850897 $166 $252 forward 7 unknown #
point $-1 -42.189603551447249 37.898242262477687 -17.16183044951007 #
point $-1 -42.189603551447249 37.898242262477687 17.16183044951007 #
point $-1 -35.363524378850897 19.567666385816132 -17.16183044951007 #
point $-1 -35.363524378850897 19.567666385816132 17.16183044951007 #
straight-curve $-1 -69.687185277871038 37.898242262477687 0 0 0 -1 I I #
straight-curve $-1 0 37.898242262477687 -17.16183044951007 1 0 0 I I #
point $-1 69.687185277871038 37.898242262477687 -17.16183044951007 #
straight-curve $-1 -69.687185277871038 0 17.16183044951007 0 -1 0 I I #
point $-1 -69.687185277871038 37.898242262477687 17.16183044951007 #
straight-curve $-1 69.687185277871038 37.898242262477687 0 0 0 -1 I I #
point $-1 -69.687185277871038 37.898242262477687 -17.16183044951007 #
edge $-1 $240 -17.16183044951007 $206 17.16183044951007 $198 $253 forward 7 unknown #
straight-curve $-1 -60.642746796123404 -50.498525533206184 -17.16183044951007 -1 0 0 I I #
vertex $-1 $212 $254 #
straight-curve $-1 -60.642746796123404 -50.498525533206184 17.16183044951007 1 0 0 I I #
point $-1 -64.026665688644528 -50.498525533206184 17.16183044951007 #
point $-1 -64.026665688644528 -50.498525533206184 -17.16183044951007 #
point $-1 -57.258827903602281 -50.498525533206184 -17.16183044951007 #
straight-curve $-1 -57.258827903602281 -44.198383897841936 17.16183044951007 0 1 0 I I #
edge $-1 $249 -17.16183044951007 $247 17.16183044951007 $224 $255 forward 7 unknown #
vertex $-1 $246 $256 #
straight-curve $-1 -35.363524378850897 14.366477162073455 -17.16183044951007 0 -1 0 I I #
vertex $-1 $225 $257 #
straight-curve $-1 -35.363524378850897 14.366477162073455 17.16183044951007 0 1 0 I I #
straight-curve $-1 0 37.898242262477687 17.16183044951007 -1 0 0 I I #
straight-curve $-1 0 37.898242262477687 -17.16183044951007 1 0 0 I I #
straight-curve $-1 -57.258827903602281 -50.498525533206184 0 0 0 -1 I I #
point $-1 -57.258827903602281 -50.498525533206184 17.16183044951007 #
straight-curve $-1 -35.363524378850897 37.898242262477687 0 0 0 -1 I I #
point $-1 -35.363524378850897 37.898242262477687 -17.16183044951007 #
point $-1 -35.363524378850897 37.898242262477687 17.16183044951007 #
End-of-ACIS-data 