500 0 7 0           
7 Unknown 11 ACIS 5.0 NT 24 Fri Mar 26 17:16:12 1999 
-1 9.9999999999999995e-007 1e-010 
body $-1 $7 $-1 $8 #
body $-1 $9 $-1 $10 #
body $-1 $11 $-1 $12 #
body $-1 $13 $-1 $14 #
body $-1 $15 $-1 $16 #
body $-1 $17 $-1 $18 #
body $-1 $19 $-1 $20 #
lump $-1 $-1 $21 $0 #
transform $-1 1 0 0 0 1 0 0 0 1 43.219092379528185 22.121443212759633 9.3802966574714635 1 rotate no_reflect no_shear #
lump $-1 $-1 $22 $1 #
transform $-1 1 0 0 0 1 0 0 0 1 43.219092379528185 22.121443212759633 9.3802966574714635 1 rotate no_reflect no_shear #
lump $-1 $-1 $23 $2 #
transform $-1 1 0 0 0 1 0 0 0 1 43.219092379528185 22.121443212759633 9.3802966574714635 1 rotate no_reflect no_shear #
lump $-1 $-1 $24 $3 #
transform $-1 1 0 0 0 1 0 0 0 1 43.219092379528185 22.121443212759633 9.3802966574714635 1 rotate no_reflect no_shear #
lump $-1 $-1 $25 $4 #
transform $-1 1 0 0 0 1 0 0 0 1 43.219092379528185 22.121443212759633 9.3802966574714635 1 rotate no_reflect no_shear #
lump $-1 $-1 $26 $5 #
transform $-1 1 0 0 0 1 0 0 0 1 43.219092379528185 22.121443212759633 9.3802966574714635 1 rotate no_reflect no_shear #
lump $-1 $-1 $27 $6 #
transform $-1 1 0 0 0 1 0 0 0 1 43.219092379528185 22.121443212759633 9.3802966574714635 1 rotate no_reflect no_shear #
shell $-1 $-1 $-1 $28 $-1 $7 #
shell $-1 $-1 $-1 $29 $-1 $9 #
shell $-1 $-1 $-1 $30 $-1 $11 #
shell $-1 $-1 $-1 $31 $-1 $13 #
shell $-1 $-1 $-1 $32 $-1 $15 #
shell $-1 $-1 $-1 $33 $-1 $17 #
shell $-1 $-1 $-1 $34 $-1 $19 #
face $-1 $35 $36 $21 $-1 $37 forward single #
face $-1 $38 $39 $22 $-1 $40 forward single #
face $-1 $41 $42 $23 $-1 $43 reversed single #
face $-1 $44 $45 $24 $-1 $46 forward single #
face $-1 $47 $48 $25 $-1 $49 reversed single #
face $-1 $50 $51 $26 $-1 $52 forward single #
face $-1 $53 $54 $27 $-1 $55 forward single #
face $-1 $56 $57 $21 $-1 $58 reversed single #
loop $-1 $-1 $59 $28 #
plane-surface $-1 0 0 9.3802966574714635 0 0 1 1 0 0 forward_v I I I I #
face $-1 $60 $61 $22 $-1 $62 reversed single #
loop $-1 $-1 $63 $29 #
plane-surface $-1 0 -16.785873104946312 4.5451599637551512 0 0 1 1 0 0 forward_v I I I I #
face $-1 $64 $65 $23 $-1 $66 reversed single #
loop $-1 $-1 $67 $30 #
plane-surface $-1 -112.25169686300165 0.10269754076833237 57.778946186755462 0 1 0 -0.79863551827123203 0 0.60181501223851219 forward_v I I I I #
face $-1 $68 $69 $24 $-1 $70 forward single #
loop $-1 $71 $72 $31 #
cone-surface $-1 -41.288044970409238 3.2856657370701008 7.1426971623402178 0.79863551827123203 0 -0.60181501223851219 0.3009075061192561 0 0.39931775913561601 1 I I 0 1 0.5 forward I I I I #
face $-1 $73 $74 $25 $-1 $75 reversed single #
loop $-1 $-1 $76 $32 #
plane-surface $-1 76.913570539466718 6.9778769431761525 123.55977469305449 0 -1 0 -0.87461971476443456 0 -0.48480960649040278 forward_v I I I I #
face $-1 $77 $78 $26 $-1 $79 forward single #
loop $-1 $80 $81 $33 #
cone-surface $-1 41.859654859840568 2.4039755444898319 7.4743294532656632 -0.87461971476443456 0 -0.48480960649040278 0.24240480324520139 0 -0.43730985738221728 1 I I 0 1 0.5 forward I I I I #
face $-1 $82 $83 $27 $-1 $84 forward single #
loop $-1 $85 $86 $34 #
cone-surface $-1 41.859654859840568 5.1483163837016228 7.4743294532656632 -0.87461971476443456 0 -0.48480960649040278 0.24240480324520139 0 -0.43730985738221728 1 I I 0 1 0.5 forward I I I I #
face $-1 $87 $88 $21 $-1 $89 reversed single #
loop $-1 $-1 $90 $35 #
plane-surface $-1 0 0 -9.3802966574714635 0 0 1 1 0 0 forward_v I I I I #
coedge $-1 $91 $92 $93 $94 forward $36 $-1 #
face $-1 $95 $96 $22 $-1 $97 reversed single #
loop $-1 $-1 $98 $38 #
plane-surface $-1 0 -16.785873104946312 -0.51253384911179811 0 0 1 1 0 0 forward_v I I I I #
coedge $-1 $99 $100 $101 $102 reversed $39 $-1 #
face $-1 $103 $104 $23 $-1 $105 reversed single #
loop $-1 $-1 $106 $41 #
plane-surface $-1 -43.219092379528163 3.2856657370701008 5.759148968109173 -0.79863551827123203 0 0.60181501223851219 0.60181501223851219 0 0.79863551827123203 forward_v I I I I #
coedge $-1 $107 $108 $109 $110 reversed $42 $-1 #
face $-1 $-1 $111 $24 $-1 $112 forward single #
loop $-1 $113 $114 $44 #
cone-surface $-1 -40.521703896600712 3.2856657370701008 6.5652177588304887 0.79863551827123203 0 -0.60181501223851219 0.15045375305962805 0 0.19965887956780801 1 I I -0.70710678118654746 0.70710678118654746 0.25 forward I I I I #
loop $-1 $-1 $115 $31 #
coedge $-1 $72 $72 $116 $117 reversed $45 $-1 #
face $-1 $118 $119 $25 $-1 $120 reversed single #
loop $-1 $-1 $121 $47 #
plane-surface $-1 1.3130300407453461 3.7761459640957291 81.653712354271647 0.87461971476443456 0 0.48480960649040278 0.48480960649040278 0 -0.87461971476443456 forward_v I I I I #
coedge $-1 $122 $123 $124 $125 reversed $48 $-1 #
face $-1 $-1 $126 $26 $-1 $127 forward single #
loop $-1 $128 $129 $50 #
cone-surface $-1 41.203690073767241 2.4039755444898319 7.1107222483978614 -0.87461971476443456 0 -0.48480960649040278 0.12120240162260069 0 -0.21865492869110864 1 I I -0.70710678118654746 0.70710678118654746 0.25 forward I I I I #
loop $-1 $-1 $130 $33 #
coedge $-1 $81 $81 $131 $132 reversed $51 $-1 #
face $-1 $-1 $133 $27 $-1 $134 forward single #
loop $-1 $135 $136 $53 #
cone-surface $-1 41.203690073767241 5.1483163837016228 7.1107222483978614 -0.87461971476443456 0 -0.48480960649040278 0.12120240162260069 0 -0.21865492869110864 1 I I -0.70710678118654746 0.70710678118654746 0.25 forward I I I I #
loop $-1 $-1 $137 $34 #
coedge $-1 $86 $86 $138 $139 reversed $54 $-1 #
face $-1 $140 $141 $21 $-1 $142 reversed single #
loop $-1 $-1 $143 $56 #
plane-surface $-1 0 -22.121443212759633 0 0 1 0 0 0 1 forward_v I I I I #
coedge $-1 $144 $145 $146 $147 forward $57 $-1 #
coedge $-1 $148 $59 $149 $150 forward $36 $-1 #
coedge $-1 $59 $148 $151 $152 forward $36 $-1 #
coedge $-1 $153 $154 $59 $94 reversed $155 $-1 #
edge $-1 $156 -22.121443212759633 $157 22.121443212759633 $93 $158 forward 7 unknown #
face $-1 $159 $160 $22 $-1 $161 reversed single #
loop $-1 $-1 $162 $60 #
plane-surface $-1 0 -11.450302997132988 2.0163130573216765 0 -1 0 0 0 -1 forward_v I I I I #
coedge $-1 $163 $164 $165 $166 reversed $61 $-1 #
coedge $-1 $167 $63 $168 $169 forward $39 $-1 #
coedge $-1 $63 $167 $170 $171 reversed $39 $-1 #
coedge $-1 $172 $173 $63 $102 forward $174 $-1 #
edge $-1 $175 3.0573664446598325 $176 13.728506660286481 $101 $177 forward 7 unknown #
face $-1 $178 $179 $23 $-1 $180 reversed single #
loop $-1 $-1 $181 $64 #
plane-surface $-1 -112.25169686300165 6.4686339333718692 57.778946186755462 0 -1 0 0.79863551827123203 0 -0.60181501223851219 forward_v I I I I #
coedge $-1 $182 $183 $184 $185 reversed $65 $-1 #
coedge $-1 $108 $67 $186 $187 reversed $42 $-1 #
coedge $-1 $67 $107 $182 $188 reversed $42 $-1 #
coedge $-1 $184 $189 $67 $110 forward $190 $-1 #
edge $-1 $191 12.906756051972643 $192 15.635486481729117 $109 $193 forward 7 unknown #
loop $-1 $-1 $116 $68 #
plane-surface $-1 -43.219092379528163 3.2856657370701008 5.759148968109173 -0.79863551827123203 0 0.60181501223851219 0.60181501223851219 0 0.79863551827123203 forward_v I I I I #
loop $-1 $-1 $194 $44 #
coedge $-1 $114 $114 $115 $195 reversed $69 $-1 #
coedge $-1 $115 $115 $114 $195 forward $71 $-1 #
coedge $-1 $116 $116 $72 $117 forward $111 $-1 #
edge $-1 $196 0 $196 6.2831853071796004 $116 $197 forward 7 unknown #
face $-1 $198 $199 $25 $-1 $200 forward single #
loop $-1 $-1 $201 $73 #
plane-surface $-1 76.913570539466718 0.57441498501530575 123.55977469305449 0 1 0 0.87461971476443456 0 0.48480960649040278 forward_v I I I I #
coedge $-1 $202 $203 $204 $205 reversed $74 $-1 #
coedge $-1 $123 $76 $206 $207 reversed $48 $-1 #
coedge $-1 $76 $122 $202 $208 reversed $48 $-1 #
coedge $-1 $204 $209 $76 $125 forward $199 $-1 #
edge $-1 $210 -4.7623071097948255 $211 -2.9180517851840548 $124 $212 forward 7 unknown #
loop $-1 $-1 $131 $77 #
plane-surface $-1 1.3130300407453461 3.7761459640957291 81.653712354271647 0.87461971476443456 0 0.48480960649040278 0.48480960649040278 0 -0.87461971476443456 forward_v I I I I #
loop $-1 $-1 $213 $50 #
coedge $-1 $129 $129 $130 $214 reversed $78 $-1 #
coedge $-1 $130 $130 $129 $214 forward $80 $-1 #
coedge $-1 $131 $131 $81 $132 forward $126 $-1 #
edge $-1 $215 0 $215 6.2831853071796004 $131 $216 forward 7 unknown #
loop $-1 $-1 $138 $82 #
plane-surface $-1 1.3130300407453461 3.7761459640957291 81.653712354271647 0.87461971476443456 0 0.48480960649040278 0.48480960649040278 0 -0.87461971476443456 forward_v I I I I #
loop $-1 $-1 $217 $53 #
coedge $-1 $136 $136 $137 $218 reversed $83 $-1 #
coedge $-1 $137 $137 $136 $218 forward $85 $-1 #
coedge $-1 $138 $138 $86 $139 forward $133 $-1 #
edge $-1 $219 0 $219 6.2831853071796004 $138 $220 forward 7 unknown #
face $-1 $221 $222 $21 $-1 $223 reversed single #
loop $-1 $-1 $224 $87 #
plane-surface $-1 -43.219092379528185 0 0 1 0 0 0 0 -1 forward_v I I I I #
coedge $-1 $225 $151 $226 $227 forward $88 $-1 #
coedge $-1 $228 $90 $225 $229 forward $57 $-1 #
coedge $-1 $90 $228 $230 $231 forward $57 $-1 #
coedge $-1 $154 $153 $90 $147 reversed $155 $-1 #
edge $-1 $232 -22.121443212759633 $233 22.121443212759633 $146 $234 forward 7 unknown #
coedge $-1 $92 $91 $235 $236 forward $36 $-1 #
coedge $-1 $237 $238 $91 $150 reversed $222 $-1 #
edge $-1 $157 -43.219092379528185 $239 43.219092379528185 $149 $240 forward 7 unknown #
coedge $-1 $143 $241 $92 $152 reversed $88 $-1 #
edge $-1 $242 -43.219092379528185 $156 43.219092379528185 $151 $243 forward 7 unknown #
coedge $-1 $146 $93 $241 $244 forward $155 $-1 #
coedge $-1 $93 $146 $237 $245 reversed $155 $-1 #
loop $-1 $-1 $153 $221 #
vertex $-1 $94 $246 #
vertex $-1 $94 $247 #
straight-curve $-1 43.219092379528185 0 9.3802966574714635 0 1 0 I I #
face $-1 $248 $249 $22 $-1 $250 reversed single #
loop $-1 $-1 $251 $95 #
plane-surface $-1 -43.219092379528185 0 0 1 0 0 0 0 -1 forward_v I I I I #
coedge $-1 $252 $168 $173 $253 reversed $96 $-1 #
coedge $-1 $254 $98 $255 $256 reversed $61 $-1 #
coedge $-1 $98 $254 $252 $257 forward $61 $-1 #
coedge $-1 $173 $172 $98 $166 forward $174 $-1 #
edge $-1 $258 -13.728506660286481 $259 -3.0573664446598325 $165 $260 forward 7 unknown #
coedge $-1 $100 $99 $251 $261 reversed $39 $-1 #
coedge $-1 $162 $262 $99 $169 reversed $96 $-1 #
edge $-1 $175 -43.219092379528185 $263 43.219092379528185 $168 $264 forward 7 unknown #
coedge $-1 $265 $266 $100 $171 forward $249 $-1 #
edge $-1 $176 -43.219092379528185 $267 43.219092379528185 $170 $268 forward 7 unknown #
coedge $-1 $165 $101 $266 $269 forward $174 $-1 #
coedge $-1 $101 $165 $162 $253 forward $174 $-1 #
loop $-1 $-1 $101 $248 #
vertex $-1 $102 $270 #
vertex $-1 $269 $271 #
straight-curve $-1 43.219092379528185 -8.3929365524731558 4.5451599637551512 0 -1 0 I I #
face $-1 $-1 $190 $23 $-1 $272 forward single #
loop $-1 $-1 $273 $103 #
plane-surface $-1 -43.219092379528185 0 0 1 0 0 0 0 -1 forward_v I I I I #
coedge $-1 $274 $275 $276 $277 reversed $104 $-1 #
coedge $-1 $278 $106 $108 $188 forward $65 $-1 #
coedge $-1 $106 $278 $274 $279 forward $65 $-1 #
coedge $-1 $276 $109 $106 $185 forward $190 $-1 #
edge $-1 $192 -1.540135327766718 $280 4.8258010648368188 $184 $281 forward 7 unknown #
coedge $-1 $282 $283 $107 $187 forward $179 $-1 #
edge $-1 $284 -23.130324125268586 $191 -19.509176435906269 $186 $285 forward 7 unknown #
edge $-1 $192 -4.5341680986100075 $284 3.5527045197628586e-014 $108 $286 forward 7 unknown #
coedge $-1 $109 $276 $282 $287 forward $190 $-1 #
loop $-1 $-1 $276 $178 #
vertex $-1 $187 $288 #
vertex $-1 $110 $289 #
straight-curve $-1 -56.125848431500827 0.10269754076833237 9.3802966574714617 1 0 0 I I #
coedge $-1 $194 $194 $-1 $290 reversed $113 $-1 #
edge $-1 $291 0 $291 6.2831853071796004 $114 $292 forward 7 unknown #
vertex $-1 $117 $293 #
ellipse-curve $-1 -41.854727164649944 3.2856657370701008 7.5697228127903076 -0.79863551827123203 0 0.60181501223851219 0.3009075061192561 0 0.39931775913561601 1 I I #
face $-1 $-1 $294 $25 $-1 $295 reversed single #
loop $-1 $-1 $124 $118 #
plane-surface $-1 0 0 9.3802966574714635 0 0 1 1 0 0 forward_v I I I I #
coedge $-1 $296 $297 $298 $299 reversed $119 $-1 #
coedge $-1 $300 $121 $123 $208 forward $74 $-1 #
coedge $-1 $121 $300 $296 $301 forward $74 $-1 #
coedge $-1 $298 $124 $121 $205 forward $199 $-1 #
edge $-1 $211 -5.0898039611282879 $302 1.3136579970325588 $204 $303 forward 7 unknown #
coedge $-1 $304 $305 $122 $207 forward $294 $-1 #
edge $-1 $306 -55.726715490976957 $210 -52.399590689055785 $206 $307 forward 7 unknown #
edge $-1 $211 82.634103115621997 $306 86.438184759056355 $123 $308 forward 7 unknown #
coedge $-1 $124 $298 $304 $309 forward $199 $-1 #
vertex $-1 $207 $310 #
vertex $-1 $125 $311 #
straight-curve $-1 38.456785269733359 6.9778769431761525 9.3802966574714617 -1 0 0 I I #
coedge $-1 $213 $213 $-1 $312 reversed $128 $-1 #
edge $-1 $313 0 $313 6.2831853071796004 $129 $314 forward 7 unknown #
vertex $-1 $132 $315 #
ellipse-curve $-1 42.296964717222799 2.4039755444898319 7.7167342565108719 0.87461971476443456 0 0.48480960649040278 0.24240480324520139 0 -0.43730985738221728 1 I I #
coedge $-1 $217 $217 $-1 $316 reversed $135 $-1 #
edge $-1 $317 0 $317 6.2831853071796004 $136 $318 forward 7 unknown #
vertex $-1 $139 $319 #
ellipse-curve $-1 42.296964717222799 5.1483163837016228 7.7167342565108719 0.87461971476443456 0 0.48480960649040278 0.24240480324520139 0 -0.43730985738221728 1 I I #
face $-1 $-1 $155 $21 $-1 $320 reversed single #
loop $-1 $-1 $237 $140 #
plane-surface $-1 0 22.121443212759633 0 0 -1 0 0 0 -1 forward_v I I I I #
coedge $-1 $321 $235 $238 $322 forward $141 $-1 #
coedge $-1 $241 $143 $144 $229 reversed $88 $-1 #
coedge $-1 $235 $321 $143 $227 reversed $141 $-1 #
edge $-1 $242 -9.3802966574714635 $323 9.3802966574714635 $226 $324 forward 7 unknown #
coedge $-1 $145 $144 $321 $325 forward $57 $-1 #
edge $-1 $233 -43.219092379528185 $323 43.219092379528185 $225 $326 forward 7 unknown #
coedge $-1 $238 $237 $145 $231 reversed $222 $-1 #
edge $-1 $327 -43.219092379528185 $232 43.219092379528185 $230 $328 forward 7 unknown #
vertex $-1 $147 $329 #
vertex $-1 $244 $330 #
straight-curve $-1 43.219092379528185 0 -9.3802966574714635 0 -1 0 I I #
coedge $-1 $224 $226 $148 $236 reversed $141 $-1 #
edge $-1 $239 -22.121443212759633 $242 22.121443212759633 $235 $331 forward 7 unknown #
coedge $-1 $230 $149 $154 $245 forward $222 $-1 #
coedge $-1 $149 $230 $224 $322 reversed $222 $-1 #
vertex $-1 $150 $332 #
straight-curve $-1 0 22.121443212759633 9.3802966574714635 -1 0 0 I I #
coedge $-1 $151 $225 $153 $244 reversed $88 $-1 #
vertex $-1 $236 $333 #
straight-curve $-1 0 -22.121443212759633 9.3802966574714635 1 0 0 I I #
edge $-1 $156 -9.3802966574714635 $233 9.3802966574714635 $153 $334 forward 7 unknown #
edge $-1 $157 -9.3802966574714635 $232 9.3802966574714635 $154 $335 forward 7 unknown #
point $-1 43.219092379528185 -22.121443212759633 9.3802966574714635 #
point $-1 43.219092379528185 22.121443212759633 9.3802966574714635 #
face $-1 $-1 $174 $22 $-1 $336 reversed single #
loop $-1 $-1 $170 $159 #
plane-surface $-1 0 -22.121443212759633 0 0 1 0 0 0 1 forward_v I I I I #
coedge $-1 $337 $338 $167 $261 forward $160 $-1 #
coedge $-1 $262 $162 $164 $257 reversed $96 $-1 #
edge $-1 $259 -1.5206903777726364 $175 3.5370034350943129 $173 $339 forward 7 unknown #
coedge $-1 $164 $163 $340 $341 reversed $61 $-1 #
coedge $-1 $266 $265 $163 $256 forward $249 $-1 #
edge $-1 $342 -43.219092379528185 $258 43.219092379528185 $255 $343 forward 7 unknown #
edge $-1 $344 -43.219092379528185 $259 43.219092379528185 $252 $345 forward 7 unknown #
vertex $-1 $256 $346 #
vertex $-1 $166 $347 #
straight-curve $-1 43.219092379528185 -8.3929365524731558 -0.51253384911179811 0 1 0 I I #
edge $-1 $267 -13.728506660286481 $263 -3.0573664446598325 $251 $348 forward 7 unknown #
coedge $-1 $168 $252 $337 $349 reversed $96 $-1 #
vertex $-1 $261 $350 #
straight-curve $-1 0 -11.450302997132988 4.5451599637551512 -1 0 0 I I #
coedge $-1 $255 $170 $338 $351 forward $249 $-1 #
coedge $-1 $170 $255 $172 $269 reversed $249 $-1 #
vertex $-1 $351 $352 #
straight-curve $-1 0 -22.121443212759633 4.5451599637551512 -1 0 0 I I #
edge $-1 $176 -4.5451599637551512 $258 0.51253384911179811 $172 $353 forward 7 unknown #
point $-1 43.219092379528185 -11.450302997132988 4.5451599637551512 #
point $-1 43.219092379528185 -22.121443212759637 4.5451599637551512 #
plane-surface $-1 0 0 9.3802966574714635 0 0 1 1 0 0 forward_v I I I I #
coedge $-1 $283 $282 $275 $354 forward $179 $-1 #
coedge $-1 $275 $181 $183 $279 reversed $104 $-1 #
coedge $-1 $181 $274 $273 $354 reversed $104 $-1 #
coedge $-1 $189 $184 $181 $277 forward $190 $-1 #
edge $-1 $280 -15.635486481729117 $355 -12.906756051972643 $276 $356 forward 7 unknown #
coedge $-1 $183 $182 $283 $357 reversed $65 $-1 #
edge $-1 $358 -3.5527045197628586e-014 $280 4.5341680986100075 $274 $359 forward 7 unknown #
vertex $-1 $185 $360 #
straight-curve $-1 -40.49036194977171 1.6428328685350504 9.3802966574714652 0 1 0 I I #
coedge $-1 $273 $186 $189 $287 reversed $179 $-1 #
coedge $-1 $186 $273 $278 $357 forward $179 $-1 #
vertex $-1 $187 $361 #
straight-curve $-1 -43.219092379528185 0.10269754076833237 28.889473093377731 0 0 1 I I #
straight-curve $-1 -43.219092379528163 0.10269754076833237 5.759148968109173 -0.60181501223851219 0 -0.79863551827123203 I I #
edge $-1 $355 -6.4686339333718692 $191 -0.10269754076833237 $282 $362 forward 7 unknown #
point $-1 -43.219092379528185 0.10269754076833237 9.3802966574714635 #
point $-1 -40.49036194977171 0.10269754076833237 9.3802966574714635 #
edge $-1 $363 1 $363 0 $194 $-1 forward 7 unknown #
vertex $-1 $195 $364 #
ellipse-curve $-1 -40.721362776168519 3.2856657370701008 6.7156715118901165 -0.79863551827123203 0 0.60181501223851219 0.3009075061192561 0 0.39931775913561601 1 I I #
point $-1 -41.553819658530706 3.2856657370701008 7.9690405719259356 #
loop $-1 $-1 $206 $198 #
plane-surface $-1 43.219092379528185 0 0 -1 0 0 0 0 1 forward_v I I I I #
coedge $-1 $297 $201 $203 $301 reversed $119 $-1 #
coedge $-1 $201 $296 $365 $366 reversed $119 $-1 #
coedge $-1 $209 $204 $201 $299 forward $199 $-1 #
edge $-1 $302 2.9180517851840548 $367 4.7623071097948255 $298 $368 forward 7 unknown #
coedge $-1 $203 $202 $305 $369 reversed $74 $-1 #
edge $-1 $370 -86.438184759056355 $302 -82.634103115621997 $296 $371 forward 7 unknown #
vertex $-1 $205 $372 #
straight-curve $-1 41.374837054917421 1.8880729820478646 9.3802966574714617 0 -1 0 I I #
coedge $-1 $365 $206 $209 $309 reversed $294 $-1 #
coedge $-1 $206 $365 $300 $369 forward $294 $-1 #
vertex $-1 $207 $373 #
straight-curve $-1 43.219092379528185 6.9778769431761525 61.779887346527246 0 0 1 I I #
straight-curve $-1 1.3130300407453461 6.9778769431761525 81.653712354271647 0.48480960649040278 0 -0.87461971476443456 I I #
edge $-1 $367 0.57441498501530575 $210 6.9778769431761525 $304 $374 forward 7 unknown #
point $-1 43.219092379528185 6.9778769431761525 9.3802966574714635 #
point $-1 41.374837054917414 6.9778769431761525 9.3802966574714617 #
edge $-1 $375 1 $375 0 $213 $-1 forward 7 unknown #
vertex $-1 $214 $376 #
ellipse-curve $-1 41.42234500245835 2.4039755444898319 7.2319246500204617 0.87461971476443456 0 0.48480960649040278 0.24240480324520139 0 -0.43730985738221728 1 I I #
point $-1 42.539369520467986 2.4039755444898319 7.2794243991286471 #
edge $-1 $377 1 $377 0 $217 $-1 forward 7 unknown #
vertex $-1 $218 $378 #
ellipse-curve $-1 41.42234500245835 5.1483163837016228 7.2319246500204617 0.87461971476443456 0 0.48480960649040278 0.24240480324520139 0 -0.43730985738221728 1 I I #
point $-1 42.539369520467986 5.1483163837016228 7.2794243991286471 #
plane-surface $-1 43.219092379528185 0 0 -1 0 0 0 0 1 forward_v I I I I #
coedge $-1 $226 $224 $228 $325 reversed $141 $-1 #
edge $-1 $239 -9.3802966574714635 $327 9.3802966574714635 $238 $379 forward 7 unknown #
vertex $-1 $325 $380 #
straight-curve $-1 -43.219092379528185 -22.121443212759633 0 0 0 -1 I I #
edge $-1 $323 -22.121443212759633 $327 22.121443212759633 $321 $381 forward 7 unknown #
straight-curve $-1 0 -22.121443212759633 -9.3802966574714635 -1 0 0 I I #
vertex $-1 $231 $382 #
straight-curve $-1 0 22.121443212759633 -9.3802966574714635 1 0 0 I I #
point $-1 43.219092379528185 22.121443212759633 -9.3802966574714635 #
point $-1 43.219092379528185 -22.121443212759633 -9.3802966574714635 #
straight-curve $-1 -43.219092379528185 0 9.3802966574714635 0 -1 0 I I #
point $-1 -43.219092379528185 22.121443212759633 9.3802966574714635 #
point $-1 -43.219092379528185 -22.121443212759633 9.3802966574714635 #
straight-curve $-1 43.219092379528185 -22.121443212759633 0 0 0 -1 I I #
straight-curve $-1 43.219092379528185 22.121443212759633 0 0 0 -1 I I #
plane-surface $-1 43.219092379528185 0 0 -1 0 0 0 0 1 forward_v I I I I #
coedge $-1 $340 $251 $262 $349 forward $160 $-1 #
coedge $-1 $251 $340 $265 $351 reversed $160 $-1 #
straight-curve $-1 43.219092379528185 -11.450302997132988 1.0081565286608383 0 0 1 I I #
coedge $-1 $338 $337 $254 $341 forward $160 $-1 #
edge $-1 $344 3.0573664446598325 $342 13.728506660286481 $340 $383 forward 7 unknown #
vertex $-1 $256 $384 #
straight-curve $-1 0 -22.121443212759633 -0.51253384911179811 1 0 0 I I #
vertex $-1 $341 $385 #
straight-curve $-1 0 -11.450302997132988 -0.51253384911179811 1 0 0 I I #
point $-1 43.219092379528185 -22.121443212759637 -0.51253384911179811 #
point $-1 43.219092379528185 -11.450302997132988 -0.51253384911179811 #
straight-curve $-1 -43.219092379528185 -8.3929365524731558 4.5451599637551512 0 1 0 I I #
edge $-1 $263 -3.5370034350943129 $344 1.5206903777726364 $337 $386 forward 7 unknown #
point $-1 -43.219092379528185 -11.450302997132988 4.5451599637551512 #
edge $-1 $267 -4.5451599637551512 $342 0.51253384911179811 $338 $387 forward 7 unknown #
point $-1 -43.219092379528185 -22.121443212759637 4.5451599637551512 #
straight-curve $-1 43.219092379528185 -22.121443212759633 0 0 0 -1 I I #
edge $-1 $355 19.509176435906269 $358 23.130324125268586 $273 $388 forward 7 unknown #
vertex $-1 $287 $389 #
straight-curve $-1 -56.125848431500827 6.4686339333718692 9.3802966574714617 -1 0 0 I I #
edge $-1 $358 -4.8258010648368188 $284 1.540135327766718 $283 $390 forward 7 unknown #
vertex $-1 $357 $391 #
straight-curve $-1 -43.219092379528163 6.4686339333718692 5.759148968109173 0.60181501223851219 0 0.79863551827123203 I I #
point $-1 -40.49036194977171 6.4686339333718692 9.3802966574714635 #
point $-1 -43.219092379528185 0.10269754076833237 5.7591489681091446 #
straight-curve $-1 -43.219092379528185 0 9.3802966574714635 0 -1 0 I I #
vertex $-1 $290 $392 #
point $-1 -40.420455270049267 3.2856657370701008 7.114989271025733 #
coedge $-1 $305 $304 $297 $366 forward $294 $-1 #
edge $-1 $367 52.399590689055785 $370 55.726715490976957 $365 $393 forward 7 unknown #
vertex $-1 $309 $394 #
straight-curve $-1 38.456785269733359 0.57441498501530575 9.3802966574714617 1 0 0 I I #
edge $-1 $370 -1.3136579970325588 $306 5.0898039611282879 $305 $395 forward 7 unknown #
vertex $-1 $369 $396 #
straight-curve $-1 1.3130300407453461 0.57441498501530575 81.653712354271647 -0.48480960649040278 0 0.87461971476443456 I I #
point $-1 41.374837054917414 0.57441498501530575 9.3802966574714617 #
point $-1 43.219092379528185 6.9778769431761525 6.0531718555502891 #
straight-curve $-1 43.219092379528185 0 9.3802966574714635 0 1 0 I I #
vertex $-1 $312 $397 #
point $-1 41.664749805703551 2.4039755444898319 6.794614792638245 #
vertex $-1 $316 $398 #
point $-1 41.664749805703551 5.1483163837016228 6.794614792638245 #
straight-curve $-1 -43.219092379528185 22.121443212759633 0 0 0 -1 I I #
point $-1 -43.219092379528185 -22.121443212759633 -9.3802966574714635 #
straight-curve $-1 -43.219092379528185 0 -9.3802966574714635 0 1 0 I I #
point $-1 -43.219092379528185 22.121443212759633 -9.3802966574714635 #
straight-curve $-1 -43.219092379528185 -8.3929365524731558 -0.51253384911179811 0 -1 0 I I #
point $-1 -43.219092379528185 -22.121443212759637 -0.51253384911179811 #
point $-1 -43.219092379528185 -11.450302997132988 -0.51253384911179811 #
straight-curve $-1 -43.219092379528185 -11.450302997132988 1.0081565286608383 0 0 -1 I I #
straight-curve $-1 -43.219092379528185 -22.121443212759633 0 0 0 -1 I I #
straight-curve $-1 -43.219092379528185 6.4686339333718692 28.889473093377731 0 0 -1 I I #
point $-1 -43.219092379528185 6.4686339333718692 9.3802966574714635 #
straight-curve $-1 -43.219092379528185 1.6428328685350504 5.7591489681091455 0 -1 0 I I #
point $-1 -43.219092379528185 6.4686339333718692 5.7591489681091446 #
point $-1 -40.322045017032906 3.2856657370701008 6.414764005770861 #
straight-curve $-1 43.219092379528185 0.57441498501530575 61.779887346527246 0 0 -1 I I #
point $-1 43.219092379528185 0.57441498501530575 9.3802966574714635 #
straight-curve $-1 43.219092379528185 1.8880729820478646 6.0531718555502891 0 1 0 I I #
point $-1 43.219092379528185 0.57441498501530575 6.0531718555502891 #
point $-1 40.985035145076132 2.4039755444898319 6.9895198467752611 #
point $-1 40.985035145076132 5.1483163837016228 6.9895198467752611 #
End-of-ACIS-data 