500 0 12 0           
7 Unknown 11 ACIS 5.0 NT 24 Fri Mar 26 02:23:23 1999 
-1 9.9999999999999995e-007 1e-010 
body $-1 $12 $-1 $13 #
body $-1 $14 $-1 $15 #
body $-1 $16 $-1 $17 #
body $-1 $18 $-1 $19 #
body $-1 $20 $-1 $21 #
body $-1 $22 $-1 $23 #
body $-1 $24 $-1 $25 #
body $-1 $26 $-1 $27 #
body $-1 $28 $-1 $29 #
body $-1 $30 $-1 $31 #
body $-1 $32 $-1 $33 #
body $-1 $34 $-1 $35 #
lump $-1 $-1 $36 $0 #
transform $-1 1 0 0 0 1 0 0 0 1 77.547532578508864 41.30677584517283 9.0615975258727168 1 rotate no_reflect no_shear #
lump $-1 $-1 $37 $1 #
transform $-1 1 0 0 0 1 0 0 0 1 77.547532578508864 41.30677584517283 9.0615975258727168 1 rotate no_reflect no_shear #
lump $-1 $-1 $38 $2 #
transform $-1 1 0 0 0 1 0 0 0 1 77.547532578508864 41.30677584517283 9.0615975258727168 1 rotate no_reflect no_shear #
lump $-1 $-1 $39 $3 #
transform $-1 1 0 0 0 1 0 0 0 1 77.547532578508864 41.30677584517283 9.0615975258727168 1 rotate no_reflect no_shear #
lump $-1 $-1 $40 $4 #
transform $-1 1 0 0 0 1 0 0 0 1 77.547532578508864 41.30677584517283 9.0615975258727168 1 rotate no_reflect no_shear #
lump $-1 $-1 $41 $5 #
transform $-1 1 0 0 0 1 0 0 0 1 77.547532578508864 41.30677584517283 9.0615975258727168 1 rotate no_reflect no_shear #
lump $-1 $-1 $42 $6 #
transform $-1 1 0 0 0 1 0 0 0 1 77.547532578508864 41.30677584517283 9.0615975258727168 1 rotate no_reflect no_shear #
lump $-1 $-1 $43 $7 #
transform $-1 1 0 0 0 1 0 0 0 1 77.547532578508864 41.30677584517283 9.0615975258727168 1 rotate no_reflect no_shear #
lump $-1 $-1 $44 $8 #
transform $-1 1 0 0 0 1 0 0 0 1 77.547532578508864 41.30677584517283 9.0615975258727168 1 rotate no_reflect no_shear #
lump $-1 $-1 $45 $9 #
transform $-1 1 0 0 0 1 0 0 0 1 77.547532578508864 41.30677584517283 9.0615975258727168 1 rotate no_reflect no_shear #
lump $-1 $-1 $46 $10 #
transform $-1 1 0 0 0 1 0 0 0 1 77.547532578508864 41.30677584517283 9.0615975258727168 1 rotate no_reflect no_shear #
lump $-1 $-1 $47 $11 #
transform $-1 1 0 0 0 1 0 0 0 1 77.547532578508864 41.30677584517283 9.0615975258727168 1 rotate no_reflect no_shear #
shell $-1 $-1 $-1 $48 $-1 $12 #
shell $-1 $-1 $-1 $49 $-1 $14 #
shell $-1 $-1 $-1 $50 $-1 $16 #
shell $-1 $-1 $-1 $51 $-1 $18 #
shell $-1 $-1 $-1 $52 $-1 $20 #
shell $-1 $-1 $-1 $53 $-1 $22 #
shell $-1 $-1 $-1 $54 $-1 $24 #
shell $-1 $-1 $-1 $55 $-1 $26 #
shell $-1 $-1 $-1 $56 $-1 $28 #
shell $-1 $-1 $-1 $57 $-1 $30 #
shell $-1 $-1 $-1 $58 $-1 $32 #
shell $-1 $-1 $-1 $59 $-1 $34 #
face $-1 $60 $61 $36 $-1 $62 forward single #
face $-1 $63 $64 $37 $-1 $65 reversed single #
face $-1 $66 $67 $38 $-1 $68 reversed single #
face $-1 $69 $70 $39 $-1 $71 forward single #
face $-1 $72 $73 $40 $-1 $74 forward single #
face $-1 $75 $76 $41 $-1 $77 reversed single #
face $-1 $78 $79 $42 $-1 $80 forward single #
face $-1 $81 $82 $43 $-1 $83 forward single #
face $-1 $84 $85 $44 $-1 $86 reversed single #
face $-1 $87 $88 $45 $-1 $89 forward single #
face $-1 $90 $91 $46 $-1 $92 forward single #
face $-1 $93 $94 $47 $-1 $95 forward single #
face $-1 $96 $97 $36 $-1 $98 reversed single #
loop $-1 $-1 $99 $48 #
plane-surface $-1 0 0 9.0615975258727168 0 0 1 1 0 0 forward_v I I I I #
face $-1 $100 $101 $37 $-1 $102 reversed single #
loop $-1 $-1 $103 $49 #
plane-surface $-1 -68.590015272552407 -35.595795748776325 0 1 0 0 0 0 -1 forward_v I I I I #
face $-1 $104 $105 $38 $-1 $106 reversed single #
loop $-1 $-1 $107 $50 #
plane-surface $-1 -168.71012574580396 -6.6329948507559742 126.68160837254516 0 1 0 -0.5877852598018023 0 0.80901698891910034 forward_v I I I I #
face $-1 $108 $109 $39 $-1 $110 forward single #
loop $-1 $111 $112 $51 #
cone-surface $-1 -71.639411167417663 -3.1061448658552706 4.4424192906224702 0.5877852598018023 0 -0.80901698891910034 0.40450849445955017 0 0.29389262990090115 1 I I 0 1 0.5 forward I I I I #
face $-1 $113 $114 $40 $-1 $115 forward single #
loop $-1 $116 $117 $52 #
cone-surface $-1 -71.639411167417663 2.1841301114957972 4.4424192906224702 0.5877852598018023 0 -0.80901698891910034 0.40450849445955017 0 0.29389262990090115 1 I I 0 1 0.5 forward I I I I #
face $-1 $118 $119 $41 $-1 $120 reversed single #
loop $-1 $-1 $121 $53 #
plane-surface $-1 -168.71012574580396 28.962800898020351 126.68160837254516 0 1 0 -0.5877852598018023 0 0.80901698891910034 forward_v I I I I #
face $-1 $122 $123 $42 $-1 $124 forward single #
loop $-1 $125 $126 $54 #
cone-surface $-1 -71.639411167417663 32.489650882921048 4.4424192906224702 0.5877852598018023 0 -0.80901698891910034 0.40450849445955017 0 0.29389262990090115 1 I I 0 1 0.5 forward I I I I #
face $-1 $127 $128 $43 $-1 $129 forward single #
loop $-1 $130 $131 $55 #
cone-surface $-1 -71.639411167417663 37.779925860272122 4.4424192906224702 0.5877852598018023 0 -0.80901698891910034 0.40450849445955017 0 0.29389262990090115 1 I I 0 1 0.5 forward I I I I #
face $-1 $132 $133 $44 $-1 $134 reversed single #
loop $-1 $-1 $135 $56 #
plane-surface $-1 92.847749013988775 6.2798521004142369 220.18827620362538 0 -1 0 -0.75470958851134928 0 -0.65605901945558964 forward_v I I I I #
face $-1 $136 $137 $45 $-1 $138 forward single #
loop $-1 $139 $140 $57 #
cone-surface $-1 72.538863687786915 -10.303810575748962 3.7697792525352707 -0.75470958851134928 0 -0.65605901945558964 0.98408852918338452 0 -1.132064382767024 1 I I 0 1 1.5 forward I I I I #
face $-1 $141 $142 $46 $-1 $143 forward single #
loop $-1 $144 $145 $58 #
cone-surface $-1 72.538863687786915 -4.0849370721877634 3.7697792525352707 -0.75470958851134928 0 -0.65605901945558964 0.98408852918338452 0 -1.132064382767024 1 I I 0 1 1.5 forward I I I I #
face $-1 $146 $147 $47 $-1 $148 forward single #
loop $-1 $149 $150 $59 #
cone-surface $-1 72.538863687786915 2.133936431373435 3.7697792525352707 -0.75470958851134928 0 -0.65605901945558964 0.98408852918338452 0 -1.132064382767024 1 I I 0 1 1.5 forward I I I I #
face $-1 $151 $152 $36 $-1 $153 reversed single #
loop $-1 $-1 $154 $60 #
plane-surface $-1 0 0 -9.0615975258727168 0 0 1 1 0 0 forward_v I I I I #
coedge $-1 $155 $156 $157 $158 forward $61 $-1 #
face $-1 $159 $160 $37 $-1 $161 reversed single #
loop $-1 $-1 $162 $63 #
plane-surface $-1 -67.090015272552407 -29.884815652379821 0 0 -1 0 0 0 -1 forward_v I I I I #
coedge $-1 $163 $164 $165 $166 forward $64 $-1 #
face $-1 $167 $168 $38 $-1 $169 reversed single #
loop $-1 $-1 $170 $66 #
plane-surface $-1 -77.54753257850885 -0.46100737717973317 1.2070657630030013 -0.5877852598018023 0 0.80901698891910034 0.80901698891910034 0 0.5877852598018023 forward_v I I I I #
coedge $-1 $171 $172 $173 $174 reversed $67 $-1 #
face $-1 $-1 $175 $39 $-1 $176 forward single #
loop $-1 $177 $178 $69 #
cone-surface $-1 -70.989761091955543 -3.1061448658552706 3.5482526895773052 0.5877852598018023 0 -0.80901698891910034 0.20225424722977509 0 0.14694631495045057 1 I I -0.70710678118654624 0.70710678118654879 0.25 forward I I I I #
loop $-1 $-1 $179 $51 #
coedge $-1 $112 $112 $180 $181 reversed $70 $-1 #
face $-1 $-1 $182 $40 $-1 $183 forward single #
loop $-1 $184 $185 $72 #
cone-surface $-1 -70.989761091955543 2.1841301114957972 3.5482526895773052 0.5877852598018023 0 -0.80901698891910034 0.20225424722977509 0 0.14694631495045057 1 I I -0.70710678118654624 0.70710678118654879 0.25 forward I I I I #
loop $-1 $-1 $186 $52 #
coedge $-1 $117 $117 $187 $188 reversed $73 $-1 #
face $-1 $189 $190 $41 $-1 $191 forward single #
loop $-1 $-1 $192 $75 #
plane-surface $-1 -77.54753257850885 35.134788371596592 1.2070657630030013 -0.5877852598018023 0 0.80901698891910034 0.80901698891910034 0 0.5877852598018023 forward_v I I I I #
coedge $-1 $193 $194 $195 $196 reversed $76 $-1 #
face $-1 $-1 $197 $42 $-1 $198 forward single #
loop $-1 $199 $200 $78 #
cone-surface $-1 -70.989761091955543 32.489650882921048 3.5482526895773052 0.5877852598018023 0 -0.80901698891910034 0.20225424722977509 0 0.14694631495045057 1 I I -0.70710678118654624 0.70710678118654879 0.25 forward I I I I #
loop $-1 $-1 $201 $54 #
coedge $-1 $126 $126 $202 $203 reversed $79 $-1 #
face $-1 $-1 $204 $43 $-1 $205 forward single #
loop $-1 $206 $207 $81 #
cone-surface $-1 -70.989761091955543 37.779925860272122 3.5482526895773052 0.5877852598018023 0 -0.80901698891910034 0.20225424722977509 0 0.14694631495045057 1 I I -0.70710678118654624 0.70710678118654879 0.25 forward I I I I #
loop $-1 $-1 $208 $55 #
coedge $-1 $131 $131 $209 $210 reversed $82 $-1 #
face $-1 $211 $212 $44 $-1 $213 reversed single #
loop $-1 $-1 $214 $84 #
plane-surface $-1 -24.203983790804983 -4.0849370721877634 118.43675983431154 0.75470958851134928 0 0.65605901945558964 0.65605901945558964 0 -0.75470958851134928 forward_v I I I I #
coedge $-1 $215 $216 $217 $218 reversed $85 $-1 #
face $-1 $-1 $219 $45 $-1 $220 forward single #
loop $-1 $221 $222 $87 #
cone-surface $-1 70.300732982741536 -10.303810575748962 1.8242019627835866 -0.75470958851134928 0 -0.65605901945558964 0.49204426459169226 0 -0.56603219138351202 1 I I -0.70710678118654757 0.70710678118654757 0.75 forward I I I I #
loop $-1 $-1 $223 $57 #
coedge $-1 $140 $140 $224 $225 reversed $88 $-1 #
face $-1 $-1 $226 $46 $-1 $227 forward single #
loop $-1 $228 $229 $90 #
cone-surface $-1 70.300732982741536 -4.0849370721877634 1.8242019627835866 -0.75470958851134928 0 -0.65605901945558964 0.49204426459169226 0 -0.56603219138351202 1 I I -0.70710678118654757 0.70710678118654757 0.75 forward I I I I #
loop $-1 $-1 $230 $58 #
coedge $-1 $145 $145 $231 $232 reversed $91 $-1 #
face $-1 $-1 $233 $47 $-1 $234 forward single #
loop $-1 $235 $236 $93 #
cone-surface $-1 70.300732982741536 2.133936431373435 1.8242019627835866 -0.75470958851134928 0 -0.65605901945558964 0.49204426459169226 0 -0.56603219138351202 1 I I -0.70710678118654757 0.70710678118654757 0.75 forward I I I I #
loop $-1 $-1 $237 $59 #
coedge $-1 $150 $150 $238 $239 reversed $94 $-1 #
face $-1 $240 $241 $36 $-1 $242 reversed single #
loop $-1 $-1 $243 $96 #
plane-surface $-1 0 -41.30677584517283 0 0 1 0 0 0 1 forward_v I I I I #
coedge $-1 $244 $245 $246 $247 forward $97 $-1 #
coedge $-1 $248 $99 $249 $250 forward $61 $-1 #
coedge $-1 $99 $248 $251 $252 forward $61 $-1 #
coedge $-1 $253 $254 $99 $158 reversed $255 $-1 #
edge $-1 $256 -41.30677584517283 $257 41.30677584517283 $157 $258 forward 7 unknown #
face $-1 $259 $260 $37 $-1 $261 forward single #
loop $-1 $-1 $262 $100 #
plane-surface $-1 -65.590015272552407 -35.595795748776325 0 -1 0 0 0 0 1 forward_v I I I I #
coedge $-1 $263 $264 $265 $266 forward $101 $-1 #
coedge $-1 $267 $103 $268 $269 reversed $64 $-1 #
coedge $-1 $103 $267 $270 $271 reversed $64 $-1 #
coedge $-1 $264 $263 $103 $166 reversed $101 $-1 #
edge $-1 $272 -9.0615975258727168 $273 9.0615975258727168 $165 $274 forward 7 unknown #
face $-1 $275 $276 $38 $-1 $277 reversed single #
loop $-1 $-1 $278 $104 #
plane-surface $-1 -168.71012574580396 5.7109800963965078 126.68160837254516 0 -1 0 0.5877852598018023 0 -0.80901698891910034 forward_v I I I I #
coedge $-1 $279 $280 $281 $282 reversed $105 $-1 #
coedge $-1 $172 $107 $283 $284 reversed $67 $-1 #
coedge $-1 $107 $171 $279 $285 reversed $67 $-1 #
coedge $-1 $281 $286 $107 $174 forward $287 $-1 #
edge $-1 $288 6.8075302943931177 $289 17.61836559555222 $173 $290 forward 7 unknown #
loop $-1 $-1 $180 $108 #
plane-surface $-1 -77.54753257850885 -0.46100737717973317 1.2070657630030013 -0.5877852598018023 0 0.80901698891910034 0.80901698891910034 0 0.5877852598018023 forward_v I I I I #
loop $-1 $-1 $291 $69 #
coedge $-1 $178 $178 $179 $292 reversed $109 $-1 #
coedge $-1 $179 $179 $178 $292 forward $111 $-1 #
coedge $-1 $180 $180 $112 $181 forward $175 $-1 #
edge $-1 $293 0 $293 6.2831853071796004 $180 $294 forward 7 unknown #
loop $-1 $-1 $187 $113 #
plane-surface $-1 -77.54753257850885 -0.46100737717973317 1.2070657630030013 -0.5877852598018023 0 0.80901698891910034 0.80901698891910034 0 0.5877852598018023 forward_v I I I I #
loop $-1 $-1 $295 $72 #
coedge $-1 $185 $185 $186 $296 reversed $114 $-1 #
coedge $-1 $186 $186 $185 $296 forward $116 $-1 #
coedge $-1 $187 $187 $117 $188 forward $182 $-1 #
edge $-1 $297 0 $297 6.2831853071796004 $187 $298 forward 7 unknown #
face $-1 $299 $300 $41 $-1 $301 reversed single #
loop $-1 $-1 $195 $118 #
plane-surface $-1 0 0 9.0615975258727168 0 0 1 1 0 0 forward_v I I I I #
coedge $-1 $302 $303 $304 $305 reversed $119 $-1 #
coedge $-1 $194 $121 $306 $307 reversed $76 $-1 #
coedge $-1 $121 $193 $302 $308 reversed $76 $-1 #
coedge $-1 $304 $309 $121 $196 forward $190 $-1 #
edge $-1 $310 6.8075302943931177 $311 17.61836559555222 $195 $312 forward 7 unknown #
loop $-1 $-1 $202 $122 #
plane-surface $-1 -77.54753257850885 35.134788371596592 1.2070657630030013 -0.5877852598018023 0 0.80901698891910034 0.80901698891910034 0 0.5877852598018023 forward_v I I I I #
loop $-1 $-1 $313 $78 #
coedge $-1 $200 $200 $201 $314 reversed $123 $-1 #
coedge $-1 $201 $201 $200 $314 forward $125 $-1 #
coedge $-1 $202 $202 $126 $203 forward $197 $-1 #
edge $-1 $315 0 $315 6.2831853071796004 $202 $316 forward 7 unknown #
loop $-1 $-1 $209 $127 #
plane-surface $-1 -77.54753257850885 35.134788371596592 1.2070657630030013 -0.5877852598018023 0 0.80901698891910034 0.80901698891910034 0 0.5877852598018023 forward_v I I I I #
loop $-1 $-1 $317 $81 #
coedge $-1 $207 $207 $208 $318 reversed $128 $-1 #
coedge $-1 $208 $208 $207 $318 forward $130 $-1 #
coedge $-1 $209 $209 $131 $210 forward $204 $-1 #
edge $-1 $319 0 $319 6.2831853071796004 $209 $320 forward 7 unknown #
face $-1 $321 $322 $44 $-1 $323 reversed single #
loop $-1 $-1 $324 $132 #
plane-surface $-1 92.847749013988775 -14.449726244789764 220.18827620362538 0 1 0 0.75470958851134928 0 0.65605901945558964 forward_v I I I I #
coedge $-1 $325 $326 $327 $328 reversed $133 $-1 #
coedge $-1 $216 $135 $329 $330 reversed $85 $-1 #
coedge $-1 $135 $215 $325 $331 reversed $85 $-1 #
coedge $-1 $327 $332 $135 $218 forward $333 $-1 #
edge $-1 $334 -31.123658071514477 $335 -24.45051731739435 $217 $336 forward 7 unknown #
loop $-1 $-1 $224 $136 #
plane-surface $-1 -24.203983790804983 -4.0849370721877634 118.43675983431154 0.75470958851134928 0 0.65605901945558964 0.65605901945558964 0 -0.75470958851134928 forward_v I I I I #
loop $-1 $-1 $337 $87 #
coedge $-1 $222 $222 $223 $338 reversed $137 $-1 #
coedge $-1 $223 $223 $222 $338 forward $139 $-1 #
coedge $-1 $224 $224 $140 $225 forward $219 $-1 #
edge $-1 $339 0 $339 6.2831853071796004 $224 $340 forward 7 unknown #
loop $-1 $-1 $231 $141 #
plane-surface $-1 -24.203983790804983 -4.0849370721877634 118.43675983431154 0.75470958851134928 0 0.65605901945558964 0.65605901945558964 0 -0.75470958851134928 forward_v I I I I #
loop $-1 $-1 $341 $90 #
coedge $-1 $229 $229 $230 $342 reversed $142 $-1 #
coedge $-1 $230 $230 $229 $342 forward $144 $-1 #
coedge $-1 $231 $231 $145 $232 forward $226 $-1 #
edge $-1 $343 0 $343 6.2831853071796004 $231 $344 forward 7 unknown #
loop $-1 $-1 $238 $146 #
plane-surface $-1 -24.203983790804983 -4.0849370721877634 118.43675983431154 0.75470958851134928 0 0.65605901945558964 0.65605901945558964 0 -0.75470958851134928 forward_v I I I I #
loop $-1 $-1 $345 $93 #
coedge $-1 $236 $236 $237 $346 reversed $147 $-1 #
coedge $-1 $237 $237 $236 $346 forward $149 $-1 #
coedge $-1 $238 $238 $150 $239 forward $233 $-1 #
edge $-1 $347 0 $347 6.2831853071796004 $238 $348 forward 7 unknown #
face $-1 $349 $350 $36 $-1 $351 reversed single #
loop $-1 $-1 $352 $151 #
plane-surface $-1 -77.547532578508864 0 0 1 0 0 0 0 -1 forward_v I I I I #
coedge $-1 $353 $251 $354 $355 forward $152 $-1 #
coedge $-1 $356 $154 $353 $357 forward $97 $-1 #
coedge $-1 $154 $356 $358 $359 forward $97 $-1 #
coedge $-1 $254 $253 $154 $247 reversed $255 $-1 #
edge $-1 $360 -41.30677584517283 $361 41.30677584517283 $246 $362 forward 7 unknown #
coedge $-1 $156 $155 $363 $364 forward $61 $-1 #
coedge $-1 $365 $366 $155 $250 reversed $350 $-1 #
edge $-1 $257 -77.547532578508864 $367 77.547532578508864 $249 $368 forward 7 unknown #
coedge $-1 $243 $369 $156 $252 reversed $152 $-1 #
edge $-1 $370 -77.547532578508864 $256 77.547532578508864 $251 $371 forward 7 unknown #
coedge $-1 $246 $157 $369 $372 forward $255 $-1 #
coedge $-1 $157 $246 $365 $373 reversed $255 $-1 #
loop $-1 $-1 $253 $349 #
vertex $-1 $158 $374 #
vertex $-1 $158 $375 #
straight-curve $-1 77.547532578508864 0 9.0615975258727168 0 1 0 I I #
face $-1 $376 $377 $37 $-1 $378 reversed single #
loop $-1 $-1 $379 $159 #
plane-surface $-1 0 0 9.0615975258727168 0 0 1 1 0 0 forward_v I I I I #
coedge $-1 $380 $381 $382 $383 reversed $160 $-1 #
coedge $-1 $165 $162 $384 $385 reversed $101 $-1 #
coedge $-1 $162 $165 $386 $387 reversed $101 $-1 #
coedge $-1 $381 $380 $162 $266 reversed $160 $-1 #
edge $-1 $388 -9.0615975258727168 $389 9.0615975258727168 $265 $390 forward 7 unknown #
coedge $-1 $164 $163 $391 $392 reversed $64 $-1 #
coedge $-1 $384 $393 $163 $269 forward $377 $-1 #
edge $-1 $394 -23.508877970784667 $273 -12.086917777991658 $268 $395 forward 7 unknown #
coedge $-1 $396 $386 $164 $271 forward $260 $-1 #
edge $-1 $272 12.086917777991658 $397 23.508877970784667 $270 $398 forward 7 unknown #
vertex $-1 $271 $399 #
vertex $-1 $269 $400 #
straight-curve $-1 -68.590015272552407 -29.884815652379821 0 0 0 -1 I I #
face $-1 $-1 $287 $38 $-1 $401 forward single #
loop $-1 $-1 $402 $167 #
plane-surface $-1 -77.547532578508864 0 0 1 0 0 0 0 -1 forward_v I I I I #
coedge $-1 $403 $404 $405 $406 reversed $168 $-1 #
coedge $-1 $407 $170 $172 $285 forward $105 $-1 #
coedge $-1 $170 $407 $403 $408 forward $105 $-1 #
coedge $-1 $405 $173 $170 $282 forward $287 $-1 #
edge $-1 $289 -6.4024911621661076 $409 5.9414837849863744 $281 $410 forward 7 unknown #
coedge $-1 $411 $412 $171 $284 forward $276 $-1 #
edge $-1 $413 -62.133738423269584 $288 -54.279206660399865 $283 $414 forward 7 unknown #
edge $-1 $289 -13.362927415903924 $413 1.7500491998158137e-014 $172 $415 forward 7 unknown #
coedge $-1 $173 $405 $411 $416 forward $287 $-1 #
loop $-1 $-1 $405 $275 #
vertex $-1 $284 $417 #
vertex $-1 $174 $418 #
straight-curve $-1 -84.355062872901982 -6.6329948507559742 9.0615975258727133 1 0 0 I I #
coedge $-1 $291 $291 $-1 $419 reversed $177 $-1 #
edge $-1 $420 0 $420 6.2831853071796004 $178 $421 forward 7 unknown #
vertex $-1 $181 $422 #
ellipse-curve $-1 -72.142114927929313 -3.1061448658552706 5.1343316444378493 -0.5877852598018023 0 0.80901698891910034 0.40450849445955017 0 0.29389262990090115 1 I I #
coedge $-1 $295 $295 $-1 $423 reversed $184 $-1 #
edge $-1 $424 0 $424 6.2831853071796004 $185 $425 forward 7 unknown #
vertex $-1 $188 $426 #
ellipse-curve $-1 -72.142114927929313 2.1841301114957972 5.1343316444378493 -0.5877852598018023 0 0.80901698891910034 0.40450849445955017 0 0.29389262990090115 1 I I #
face $-1 $-1 $427 $41 $-1 $428 reversed single #
loop $-1 $-1 $429 $189 #
plane-surface $-1 0 41.30677584517283 0 0 -1 0 0 0 -1 forward_v I I I I #
coedge $-1 $430 $192 $194 $308 forward $119 $-1 #
coedge $-1 $192 $430 $429 $431 reversed $119 $-1 #
coedge $-1 $432 $195 $192 $305 forward $190 $-1 #
edge $-1 $311 11.395406712222055 $433 23.739381659374541 $304 $434 forward 7 unknown #
coedge $-1 $435 $436 $193 $307 forward $427 $-1 #
edge $-1 $437 -62.133738423269584 $310 -54.279206660399865 $306 $438 forward 7 unknown #
edge $-1 $311 -13.362927415903924 $437 1.7500491998158137e-014 $194 $439 forward 7 unknown #
coedge $-1 $195 $432 $435 $440 forward $190 $-1 #
vertex $-1 $307 $441 #
vertex $-1 $196 $442 #
straight-curve $-1 -84.355062872901982 28.962800898020351 9.0615975258727133 1 0 0 I I #
coedge $-1 $313 $313 $-1 $443 reversed $199 $-1 #
edge $-1 $444 0 $444 6.2831853071796004 $200 $445 forward 7 unknown #
vertex $-1 $203 $446 #
ellipse-curve $-1 -72.142114927929313 32.489650882921048 5.1343316444378493 -0.5877852598018023 0 0.80901698891910034 0.40450849445955017 0 0.29389262990090115 1 I I #
coedge $-1 $317 $317 $-1 $447 reversed $206 $-1 #
edge $-1 $448 0 $448 6.2831853071796004 $207 $449 forward 7 unknown #
vertex $-1 $210 $450 #
ellipse-curve $-1 -72.142114927929313 37.779925860272122 5.1343316444378493 -0.5877852598018023 0 0.80901698891910034 0.40450849445955017 0 0.29389262990090115 1 I I #
face $-1 $-1 $333 $44 $-1 $451 forward single #
loop $-1 $-1 $452 $211 #
plane-surface $-1 77.547532578508864 0 0 -1 0 0 0 0 1 forward_v I I I I #
coedge $-1 $453 $454 $455 $456 reversed $212 $-1 #
coedge $-1 $457 $214 $216 $331 forward $133 $-1 #
coedge $-1 $214 $457 $453 $458 forward $133 $-1 #
coedge $-1 $455 $217 $214 $328 forward $333 $-1 #
edge $-1 $335 -8.3223206365081186 $459 12.407257708695882 $327 $460 forward 7 unknown #
coedge $-1 $461 $462 $215 $330 forward $322 $-1 #
edge $-1 $463 -108.70911107229492 $334 -101.03254057593998 $329 $464 forward 7 unknown #
edge $-1 $335 144.92350961669823 $463 155.09506515701779 $216 $465 forward 7 unknown #
coedge $-1 $217 $455 $461 $466 forward $333 $-1 #
loop $-1 $-1 $455 $321 #
vertex $-1 $330 $467 #
vertex $-1 $218 $468 #
straight-curve $-1 46.423874506994387 6.2798521004142369 9.0615975258727133 -1 0 0 I I #
coedge $-1 $337 $337 $-1 $469 reversed $221 $-1 #
edge $-1 $470 0 $470 6.2831853071796004 $222 $471 forward 7 unknown #
vertex $-1 $225 $472 #
ellipse-curve $-1 74.21096220144878 -10.303810575748962 5.2233122776952579 0.75470958851134928 0 0.65605901945558964 0.98408852918338452 0 -1.132064382767024 1 I I #
coedge $-1 $341 $341 $-1 $473 reversed $228 $-1 #
edge $-1 $474 0 $474 6.2831853071796004 $229 $475 forward 7 unknown #
vertex $-1 $232 $476 #
ellipse-curve $-1 74.21096220144878 -4.0849370721877634 5.2233122776952579 0.75470958851134928 0 0.65605901945558964 0.98408852918338452 0 -1.132064382767024 1 I I #
coedge $-1 $345 $345 $-1 $477 reversed $235 $-1 #
edge $-1 $478 0 $478 6.2831853071796004 $236 $479 forward 7 unknown #
vertex $-1 $239 $480 #
ellipse-curve $-1 74.21096220144878 2.133936431373435 5.2233122776952579 0.75470958851134928 0 0.65605901945558964 0.98408852918338452 0 -1.132064382767024 1 I I #
face $-1 $-1 $255 $36 $-1 $481 reversed single #
loop $-1 $-1 $365 $240 #
plane-surface $-1 0 41.30677584517283 0 0 -1 0 0 0 -1 forward_v I I I I #
coedge $-1 $482 $363 $366 $483 forward $241 $-1 #
coedge $-1 $369 $243 $244 $357 reversed $152 $-1 #
coedge $-1 $363 $482 $243 $355 reversed $241 $-1 #
edge $-1 $370 -9.0615975258727168 $484 9.0615975258727168 $354 $485 forward 7 unknown #
coedge $-1 $245 $244 $482 $486 forward $97 $-1 #
edge $-1 $361 -77.547532578508864 $484 77.547532578508864 $353 $487 forward 7 unknown #
coedge $-1 $366 $365 $245 $359 reversed $350 $-1 #
edge $-1 $488 -77.547532578508864 $360 77.547532578508864 $358 $489 forward 7 unknown #
vertex $-1 $247 $490 #
vertex $-1 $372 $491 #
straight-curve $-1 77.547532578508864 0 -9.0615975258727168 0 -1 0 I I #
coedge $-1 $352 $354 $248 $364 reversed $241 $-1 #
edge $-1 $367 -41.30677584517283 $370 41.30677584517283 $363 $492 forward 7 unknown #
coedge $-1 $358 $249 $254 $373 forward $350 $-1 #
coedge $-1 $249 $358 $352 $483 reversed $350 $-1 #
vertex $-1 $250 $493 #
straight-curve $-1 0 41.30677584517283 9.0615975258727168 -1 0 0 I I #
coedge $-1 $251 $353 $253 $372 reversed $152 $-1 #
vertex $-1 $364 $494 #
straight-curve $-1 0 -41.30677584517283 9.0615975258727168 1 0 0 I I #
edge $-1 $256 -9.0615975258727168 $361 9.0615975258727168 $253 $495 forward 7 unknown #
edge $-1 $257 -9.0615975258727168 $360 9.0615975258727168 $254 $496 forward 7 unknown #
point $-1 77.547532578508864 -41.30677584517283 9.0615975258727168 #
point $-1 77.547532578508864 41.30677584517283 9.0615975258727168 #
face $-1 $-1 $497 $37 $-1 $498 reversed single #
loop $-1 $-1 $499 $259 #
plane-surface $-1 0 0 -9.0615975258727168 0 0 1 1 0 0 forward_v I I I I #
coedge $-1 $386 $396 $381 $500 forward $260 $-1 #
coedge $-1 $265 $262 $499 $501 reversed $160 $-1 #
coedge $-1 $262 $265 $379 $500 reversed $160 $-1 #
coedge $-1 $502 $503 $262 $383 forward $497 $-1 #
edge $-1 $504 -9.0615975258727168 $505 9.0615975258727168 $382 $506 forward 7 unknown #
coedge $-1 $499 $268 $263 $385 forward $377 $-1 #
edge $-1 $273 -35.045007636276203 $389 -32.045007636276203 $384 $507 forward 7 unknown #
coedge $-1 $270 $379 $264 $387 forward $260 $-1 #
edge $-1 $388 32.045007636276203 $272 35.045007636276203 $386 $508 forward 7 unknown #
vertex $-1 $387 $509 #
vertex $-1 $385 $510 #
straight-curve $-1 -65.590015272552407 -29.884815652379821 0 0 0 -1 I I #
coedge $-1 $503 $502 $267 $392 forward $497 $-1 #
edge $-1 $397 -9.0615975258727168 $394 9.0615975258727168 $391 $511 forward 7 unknown #
coedge $-1 $268 $499 $503 $512 forward $377 $-1 #
vertex $-1 $269 $513 #
straight-curve $-1 -68.590015272552407 -17.797897874388163 -9.0615975258727168 0 1 0 I I #
coedge $-1 $379 $270 $502 $514 forward $260 $-1 #
vertex $-1 $514 $515 #
straight-curve $-1 -68.590015272552407 -17.797897874388163 9.0615975258727168 0 -1 0 I I #
point $-1 -68.590015272552407 -29.884815652379821 9.0615975258727168 #
point $-1 -68.590015272552407 -29.884815652379821 -9.0615975258727168 #
plane-surface $-1 0 0 9.0615975258727168 0 0 1 1 0 0 forward_v I I I I #
coedge $-1 $412 $411 $404 $516 forward $276 $-1 #
coedge $-1 $404 $278 $280 $408 reversed $168 $-1 #
coedge $-1 $278 $403 $402 $516 reversed $168 $-1 #
coedge $-1 $286 $281 $278 $406 forward $287 $-1 #
edge $-1 $409 -17.61836559555222 $517 -6.8075302943931177 $405 $518 forward 7 unknown #
coedge $-1 $280 $279 $412 $519 reversed $105 $-1 #
edge $-1 $520 -1.7500491998158137e-014 $409 13.362927415903924 $403 $521 forward 7 unknown #
vertex $-1 $282 $522 #
straight-curve $-1 -66.736697277349762 -0.23050368858986658 9.0615975258727168 0 1 0 I I #
coedge $-1 $402 $283 $286 $416 reversed $276 $-1 #
coedge $-1 $283 $402 $407 $519 forward $276 $-1 #
vertex $-1 $284 $523 #
straight-curve $-1 -77.547532578508864 -6.6329948507559742 63.340804186272578 0 0 1 I I #
straight-curve $-1 -77.54753257850885 -6.6329948507559742 1.2070657630030013 -0.80901698891910034 0 -0.5877852598018023 I I #
edge $-1 $517 -5.7109800963965078 $288 6.6329948507559742 $411 $524 forward 7 unknown #
point $-1 -77.547532578508864 -6.6329948507559742 9.0615975258727168 #
point $-1 -66.736697277349762 -6.6329948507559742 9.0615975258727168 #
edge $-1 $525 1 $525 0 $291 $-1 forward 7 unknown #
vertex $-1 $292 $526 #
ellipse-curve $-1 -71.136707406905998 -3.1061448658552706 3.7505069368070809 -0.5877852598018023 0 0.80901698891910034 0.40450849445955017 0 0.29389262990090115 1 I I #
point $-1 -71.737606433469779 -3.1061448658552706 5.4282242743387608 #
edge $-1 $527 1 $527 0 $295 $-1 forward 7 unknown #
vertex $-1 $296 $528 #
ellipse-curve $-1 -71.136707406905998 2.1841301114957972 3.7505069368070809 -0.5877852598018023 0 0.80901698891910034 0.40450849445955017 0 0.29389262990090115 1 I I #
point $-1 -71.737606433469779 2.1841301114957972 5.4282242743387608 #
loop $-1 $-1 $306 $299 #
plane-surface $-1 -77.547532578508864 0 0 1 0 0 0 0 -1 forward_v I I I I #
coedge $-1 $529 $530 $303 $431 forward $300 $-1 #
coedge $-1 $303 $302 $436 $531 reversed $119 $-1 #
edge $-1 $433 17.650960504929319 $532 31.013887920833263 $429 $533 forward 7 unknown #
coedge $-1 $309 $304 $530 $534 forward $190 $-1 #
vertex $-1 $534 $535 #
straight-curve $-1 -66.736697277349762 17.567394185798296 9.0615975258727168 0 1 0 I I #
coedge $-1 $536 $306 $309 $440 reversed $427 $-1 #
coedge $-1 $306 $536 $430 $531 forward $427 $-1 #
vertex $-1 $307 $537 #
straight-curve $-1 -77.547532578508864 28.962800898020351 63.340804186272578 0 0 1 I I #
straight-curve $-1 -77.54753257850885 28.962800898020351 1.2070657630030013 -0.80901698891910034 0 -0.5877852598018023 I I #
edge $-1 $538 -41.30677584517283 $310 -28.962800898020351 $435 $539 forward 7 unknown #
point $-1 -77.547532578508864 28.962800898020351 9.0615975258727168 #
point $-1 -66.736697277349762 28.962800898020351 9.0615975258727168 #
edge $-1 $540 1 $540 0 $313 $-1 forward 7 unknown #
vertex $-1 $314 $541 #
ellipse-curve $-1 -71.136707406905998 32.489650882921048 3.7505069368070809 -0.5877852598018023 0 0.80901698891910034 0.40450849445955017 0 0.29389262990090115 1 I I #
point $-1 -71.737606433469779 32.489650882921048 5.4282242743387608 #
edge $-1 $542 1 $542 0 $317 $-1 forward 7 unknown #
vertex $-1 $318 $543 #
ellipse-curve $-1 -71.136707406905998 37.779925860272122 3.7505069368070809 -0.5877852598018023 0 0.80901698891910034 0.40450849445955017 0 0.29389262990090115 1 I I #
point $-1 -71.737606433469779 37.779925860272122 5.4282242743387608 #
plane-surface $-1 0 0 9.0615975258727168 0 0 1 1 0 0 forward_v I I I I #
coedge $-1 $462 $461 $454 $544 forward $322 $-1 #
coedge $-1 $454 $324 $326 $458 reversed $212 $-1 #
coedge $-1 $324 $453 $452 $544 reversed $212 $-1 #
coedge $-1 $332 $327 $324 $456 forward $333 $-1 #
edge $-1 $459 24.45051731739435 $545 31.123658071514477 $455 $546 forward 7 unknown #
coedge $-1 $326 $325 $462 $547 reversed $133 $-1 #
edge $-1 $548 -155.09506515701779 $459 -144.92350961669823 $453 $549 forward 7 unknown #
vertex $-1 $328 $550 #
straight-curve $-1 70.874391824388738 -2.0424685360938817 9.0615975258727133 0 -1 0 I I #
coedge $-1 $452 $329 $332 $466 reversed $322 $-1 #
coedge $-1 $329 $452 $457 $547 forward $322 $-1 #
vertex $-1 $330 $551 #
straight-curve $-1 77.547532578508864 6.2798521004142369 110.09413810181269 0 0 1 I I #
straight-curve $-1 -24.203983790804983 6.2798521004142369 118.43675983431154 0.65605901945558964 0 -0.75470958851134928 I I #
edge $-1 $545 -14.449726244789764 $334 6.2798521004142369 $461 $552 forward 7 unknown #
point $-1 77.547532578508864 6.2798521004142369 9.0615975258727168 #
point $-1 70.874391824388738 6.2798521004142369 9.0615975258726991 #
edge $-1 $553 1 $553 0 $337 $-1 forward 7 unknown #
vertex $-1 $338 $554 #
ellipse-curve $-1 70.866765174125049 -10.303810575748962 2.3162462273752791 0.75470958851134928 0 0.65605901945558964 0.98408852918338452 0 -1.132064382767024 1 I I #
point $-1 75.195050730632175 -10.303810575748962 4.0912478949282383 #
edge $-1 $555 1 $555 0 $341 $-1 forward 7 unknown #
vertex $-1 $342 $556 #
ellipse-curve $-1 70.866765174125049 -4.0849370721877634 2.3162462273752791 0.75470958851134928 0 0.65605901945558964 0.98408852918338452 0 -1.132064382767024 1 I I #
point $-1 75.195050730632175 -4.0849370721877634 4.0912478949282383 #
edge $-1 $557 1 $557 0 $345 $-1 forward 7 unknown #
vertex $-1 $346 $558 #
ellipse-curve $-1 70.866765174125049 2.133936431373435 2.3162462273752791 0.75470958851134928 0 0.65605901945558964 0.98408852918338452 0 -1.132064382767024 1 I I #
point $-1 75.195050730632175 2.133936431373435 4.0912478949282383 #
plane-surface $-1 77.547532578508864 0 0 -1 0 0 0 0 1 forward_v I I I I #
coedge $-1 $354 $352 $356 $486 reversed $241 $-1 #
edge $-1 $367 -9.0615975258727168 $488 9.0615975258727168 $366 $559 forward 7 unknown #
vertex $-1 $486 $560 #
straight-curve $-1 -77.547532578508864 -41.30677584517283 0 0 0 -1 I I #
edge $-1 $484 -41.30677584517283 $488 41.30677584517283 $482 $561 forward 7 unknown #
straight-curve $-1 0 -41.30677584517283 -9.0615975258727168 -1 0 0 I I #
vertex $-1 $359 $562 #
straight-curve $-1 0 41.30677584517283 -9.0615975258727168 1 0 0 I I #
point $-1 77.547532578508864 41.30677584517283 -9.0615975258727168 #
point $-1 77.547532578508864 -41.30677584517283 -9.0615975258727168 #
straight-curve $-1 -77.547532578508864 0 9.0615975258727168 0 -1 0 I I #
point $-1 -77.547532578508864 41.30677584517283 9.0615975258727168 #
point $-1 -77.547532578508864 -41.30677584517283 9.0615975258727168 #
straight-curve $-1 77.547532578508864 -41.30677584517283 0 0 0 -1 I I #
straight-curve $-1 77.547532578508864 41.30677584517283 0 0 0 -1 I I #
loop $-1 $-1 $382 $376 #
plane-surface $-1 0 -41.30677584517283 0 0 1 0 0 0 1 forward_v I I I I #
coedge $-1 $393 $384 $380 $501 forward $377 $-1 #
edge $-1 $505 -23.508877970784667 $388 -12.086917777991658 $379 $563 forward 7 unknown #
edge $-1 $389 12.086917777991658 $504 23.508877970784667 $499 $564 forward 7 unknown #
coedge $-1 $391 $382 $396 $514 reversed $497 $-1 #
coedge $-1 $382 $391 $393 $512 reversed $497 $-1 #
vertex $-1 $512 $565 #
vertex $-1 $383 $566 #
straight-curve $-1 -65.590015272552407 -41.30677584517283 0 0 0 1 I I #
straight-curve $-1 -33.545007636276203 -29.884815652379821 -9.0615975258727168 1 0 0 I I #
straight-curve $-1 -33.545007636276203 -29.884815652379821 9.0615975258727168 -1 0 0 I I #
point $-1 -65.590015272552407 -29.884815652379821 9.0615975258727168 #
point $-1 -65.590015272552407 -29.884815652379821 -9.0615975258727168 #
straight-curve $-1 -68.590015272552407 -41.30677584517283 0 0 0 -1 I I #
edge $-1 $504 65.590015272552407 $394 68.590015272552407 $503 $567 forward 7 unknown #
point $-1 -68.590015272552407 -41.30677584517283 -9.0615975258727168 #
edge $-1 $397 -68.590015272552407 $505 -65.590015272552407 $502 $568 forward 7 unknown #
point $-1 -68.590015272552407 -41.30677584517283 9.0615975258727168 #
edge $-1 $517 54.279206660399865 $520 62.133738423269584 $402 $569 forward 7 unknown #
vertex $-1 $416 $570 #
straight-curve $-1 -84.355062872901982 5.7109800963965078 9.0615975258727133 -1 0 0 I I #
edge $-1 $520 -5.9414837849863744 $413 6.4024911621661076 $412 $571 forward 7 unknown #
vertex $-1 $519 $572 #
straight-curve $-1 -77.54753257850885 5.7109800963965078 1.2070657630030013 0.80901698891910034 0 0.5877852598018023 I I #
point $-1 -66.736697277349762 5.7109800963965078 9.0615975258727168 #
point $-1 -77.547532578508864 -6.6329948507559742 1.2070657630029911 #
straight-curve $-1 -77.547532578508864 0 9.0615975258727168 0 -1 0 I I #
vertex $-1 $419 $573 #
point $-1 -70.732198912446449 -3.1061448658552706 4.0443995667079822 #
vertex $-1 $423 $574 #
point $-1 -70.732198912446449 2.1841301114957972 4.0443995667079822 #
coedge $-1 $530 $429 $536 $575 reversed $300 $-1 #
coedge $-1 $429 $529 $432 $534 reversed $300 $-1 #
edge $-1 $532 -23.739381659374541 $437 -11.395406712222055 $436 $576 forward 7 unknown #
vertex $-1 $431 $577 #
straight-curve $-1 -52.456770358121879 41.30677584517283 19.436571932013948 -0.80901698891910034 0 -0.5877852598018023 I I #
edge $-1 $433 66.736697277349762 $538 77.547532578508864 $530 $578 forward 7 unknown #
point $-1 -66.736697277349762 41.306775845172837 9.0615975258727168 #
coedge $-1 $436 $435 $529 $575 forward $427 $-1 #
point $-1 -77.547532578508864 28.962800898020351 1.2070657630029911 #
vertex $-1 $534 $579 #
straight-curve $-1 -77.547532578508864 0 9.0615975258727168 0 -1 0 I I #
vertex $-1 $443 $580 #
point $-1 -70.732198912446449 32.489650882921048 4.0443995667079822 #
vertex $-1 $447 $581 #
point $-1 -70.732198912446449 37.779925860272122 4.0443995667079822 #
edge $-1 $545 101.03254057593998 $548 108.70911107229492 $452 $582 forward 7 unknown #
vertex $-1 $466 $583 #
straight-curve $-1 46.423874506994387 -14.449726244789764 9.0615975258727133 1 0 0 I I #
edge $-1 $548 -12.407257708695882 $463 8.3223206365081186 $462 $584 forward 7 unknown #
vertex $-1 $547 $585 #
straight-curve $-1 -24.203983790804983 -14.449726244789764 118.43675983431154 -0.65605901945558964 0 0.75470958851134928 I I #
point $-1 70.874391824388738 -14.449726244789764 9.0615975258726991 #
point $-1 77.547532578508864 6.2798521004142369 1.3850270295177722 #
straight-curve $-1 77.547532578508864 0 9.0615975258727168 0 1 0 I I #
vertex $-1 $469 $586 #
point $-1 71.850853703308431 -10.303810575748962 1.1841818446082548 #
vertex $-1 $473 $587 #
point $-1 71.850853703308431 -4.0849370721877634 1.1841818446082548 #
vertex $-1 $477 $588 #
point $-1 71.850853703308431 2.133936431373435 1.1841818446082548 #
straight-curve $-1 -77.547532578508864 41.30677584517283 0 0 0 -1 I I #
point $-1 -77.547532578508864 -41.30677584517283 -9.0615975258727168 #
straight-curve $-1 -77.547532578508864 0 -9.0615975258727168 0 1 0 I I #
point $-1 -77.547532578508864 41.30677584517283 -9.0615975258727168 #
straight-curve $-1 -65.590015272552407 -17.797897874388163 9.0615975258727168 0 1 0 I I #
straight-curve $-1 -65.590015272552407 -17.797897874388163 -9.0615975258727168 0 -1 0 I I #
point $-1 -65.590015272552407 -41.30677584517283 -9.0615975258727168 #
point $-1 -65.590015272552407 -41.30677584517283 9.0615975258727168 #
straight-curve $-1 0 -41.30677584517283 -9.0615975258727168 -1 0 0 I I #
straight-curve $-1 0 -41.30677584517283 9.0615975258727168 1 0 0 I I #
straight-curve $-1 -77.547532578508864 5.7109800963965078 63.340804186272578 0 0 -1 I I #
point $-1 -77.547532578508864 5.7109800963965078 9.0615975258727168 #
straight-curve $-1 -77.547532578508864 -0.23050368858986658 1.2070657630029902 0 -1 0 I I #
point $-1 -77.547532578508864 5.7109800963965078 1.2070657630029911 #
point $-1 -70.842814777005088 -3.1061448658552706 3.3459984423475295 #
point $-1 -70.842814777005088 2.1841301114957972 3.3459984423475295 #
edge $-1 $538 -9.0615975258727168 $532 -1.2070657630029911 $529 $589 forward 7 unknown #
straight-curve $-1 -77.547532578508864 17.567394185798296 1.2070657630029902 0 -1 0 I I #
point $-1 -77.547532578508864 41.306775845172837 1.2070657630029911 #
straight-curve $-1 0 41.30677584517283 9.0615975258727168 -1 0 0 I I #
point $-1 -77.547532578508864 41.30677584517283 9.0615975258727168 #
point $-1 -70.842814777005088 32.489650882921048 3.3459984423475295 #
point $-1 -70.842814777005088 37.779925860272122 3.3459984423475295 #
straight-curve $-1 77.547532578508864 -14.449726244789764 110.09413810181269 0 0 -1 I I #
point $-1 77.547532578508864 -14.449726244789764 9.0615975258727168 #
straight-curve $-1 77.547532578508878 -2.0424685360938817 1.3850270295177651 0 1 0 I I #
point $-1 77.547532578508864 -14.449726244789764 1.3850270295177722 #
point $-1 69.734700791358023 -10.303810575748962 1.3321576981918943 #
point $-1 69.734700791358023 -4.0849370721877634 1.3321576981918943 #
point $-1 69.734700791358023 2.133936431373435 1.3321576981918943 #
straight-curve $-1 -77.547532578508864 41.30677584517283 0 0 0 -1 I I #
End-of-ACIS-data 