500 0 6 0           
7 Unknown 11 ACIS 5.0 NT 24 Fri Mar 26 16:36:13 1999 
-1 9.9999999999999995e-007 1e-010 
body $-1 $6 $-1 $7 #
body $-1 $8 $-1 $9 #
body $-1 $10 $-1 $11 #
body $-1 $12 $-1 $13 #
body $-1 $14 $-1 $15 #
body $-1 $16 $-1 $17 #
lump $-1 $-1 $18 $0 #
transform $-1 1 0 0 0 1 0 0 0 1 74.232001709036524 33.440987787334848 14.906126142932726 1 rotate no_reflect no_shear #
lump $-1 $-1 $19 $1 #
transform $-1 1 0 0 0 1 0 0 0 1 74.232001709036524 33.440987787334848 14.906126142932726 1 rotate no_reflect no_shear #
lump $-1 $-1 $20 $2 #
transform $-1 1 0 0 0 1 0 0 0 1 74.232001709036524 33.440987787334848 14.906126142932726 1 rotate no_reflect no_shear #
lump $-1 $-1 $21 $3 #
transform $-1 1 0 0 0 1 0 0 0 1 74.232001709036524 33.440987787334848 14.906126142932726 1 rotate no_reflect no_shear #
lump $-1 $-1 $22 $4 #
transform $-1 1 0 0 0 1 0 0 0 1 74.232001709036524 33.440987787334848 14.906126142932726 1 rotate no_reflect no_shear #
lump $-1 $-1 $23 $5 #
transform $-1 1 0 0 0 1 0 0 0 1 74.232001709036524 33.440987787334848 14.906126142932726 1 rotate no_reflect no_shear #
shell $-1 $-1 $-1 $24 $-1 $6 #
shell $-1 $-1 $-1 $25 $-1 $8 #
shell $-1 $-1 $-1 $26 $-1 $10 #
shell $-1 $-1 $-1 $27 $-1 $12 #
shell $-1 $-1 $-1 $28 $-1 $14 #
shell $-1 $-1 $-1 $29 $-1 $16 #
face $-1 $30 $31 $18 $-1 $32 forward single #
face $-1 $33 $34 $19 $-1 $35 reversed single #
face $-1 $36 $37 $20 $-1 $38 reversed single #
face $-1 $39 $40 $21 $-1 $41 forward single #
face $-1 $42 $43 $22 $-1 $44 reversed single #
face $-1 $45 $46 $23 $-1 $47 forward single #
face $-1 $48 $49 $18 $-1 $50 reversed single #
loop $-1 $-1 $51 $24 #
plane-surface $-1 0 0 14.906126142932726 0 0 1 1 0 0 forward_v I I I I #
face $-1 $52 $53 $19 $-1 $54 reversed single #
loop $-1 $-1 $55 $25 #
plane-surface $-1 -65.511911091729601 -29.566313913931268 0 0 -1 0 0 0 -1 forward_v I I I I #
face $-1 $56 $57 $20 $-1 $58 reversed single #
loop $-1 $-1 $59 $26 #
plane-surface $-1 2.6168900529831305 -152.00961410174961 90.136351209054823 -1 0 0 0 -0.79863551827123203 0.60181501223851219 forward_v I I I I #
face $-1 $60 $61 $21 $-1 $62 forward single #
loop $-1 $63 $64 $27 #
cone-surface $-1 -4.2925802537861273 -25.464110820235209 5.8446044428333606 0 0.79863551827123203 -0.60181501223851219 3 0 0 1 I I 0 1 3 forward I I I I #
face $-1 $65 $66 $22 $-1 $67 reversed single #
loop $-1 $-1 $68 $28 #
plane-surface $-1 -11.202050560555385 111.75903715274387 143.55067243513503 1 0 0 0 -0.79863551827123203 -0.60181501223851219 forward_v I I I I #
face $-1 $69 $70 $23 $-1 $71 forward single #
loop $-1 $72 $73 $29 #
cone-surface $-1 -4.2925802537861273 25.464110820235206 5.8446044428333535 0 -0.79863551827123203 -0.60181501223851219 3 0 0 1 I I 0 1 3 forward I I I I #
face $-1 $74 $75 $18 $-1 $76 reversed single #
loop $-1 $-1 $77 $30 #
plane-surface $-1 0 0 -14.906126142932726 0 0 1 1 0 0 forward_v I I I I #
coedge $-1 $78 $79 $80 $81 forward $31 $-1 #
face $-1 $82 $83 $19 $-1 $84 forward single #
loop $-1 $-1 $85 $33 #
plane-surface $-1 -56.791820474422678 -31.503650850633058 0 -1 0 0 0 0 1 forward_v I I I I #
coedge $-1 $86 $87 $88 $89 forward $34 $-1 #
face $-1 $90 $91 $20 $-1 $92 reversed single #
loop $-1 $-1 $93 $36 #
plane-surface $-1 -4.2925802537861273 -33.440987787334876 0.78848517502866855 0 -0.79863551827123203 0.60181501223851219 1 0 0 forward_v I I I I #
coedge $-1 $94 $95 $96 $97 reversed $37 $-1 #
face $-1 $-1 $98 $21 $-1 $99 forward single #
loop $-1 $100 $101 $39 #
cone-surface $-1 -4.2925802537861273 -21.608483189124531 2.9391807083282604 0 0.79863551827123203 -0.60181501223851219 1.5 0 0 1 I I -0.70710678118654768 0.70710678118654735 1.5 forward I I I I #
loop $-1 $-1 $102 $27 #
coedge $-1 $64 $64 $103 $104 reversed $40 $-1 #
face $-1 $105 $106 $22 $-1 $107 reversed single #
loop $-1 $-1 $108 $42 #
plane-surface $-1 -4.2925802537861273 -6.809589161670857 54.202806401108873 0 0.79863551827123203 0.60181501223851219 1 0 0 forward_v I I I I #
coedge $-1 $109 $110 $111 $112 reversed $43 $-1 #
face $-1 $-1 $113 $23 $-1 $114 forward single #
loop $-1 $115 $116 $45 #
cone-surface $-1 -4.2925802537861273 21.608483189124527 2.9391807083282533 0 -0.79863551827123203 -0.60181501223851219 1.5 0 0 1 I I -0.70710678118654768 0.70710678118654735 1.5 forward I I I I #
loop $-1 $-1 $117 $29 #
coedge $-1 $73 $73 $118 $119 reversed $46 $-1 #
face $-1 $120 $121 $18 $-1 $122 reversed single #
loop $-1 $-1 $123 $48 #
plane-surface $-1 0 -33.440987787334848 0 0 1 0 0 0 1 forward_v I I I I #
coedge $-1 $124 $125 $126 $127 forward $49 $-1 #
coedge $-1 $128 $51 $129 $130 forward $31 $-1 #
coedge $-1 $51 $128 $131 $132 forward $31 $-1 #
coedge $-1 $133 $134 $51 $81 reversed $135 $-1 #
edge $-1 $136 -33.440987787334848 $137 33.440987787334848 $80 $138 forward 7 unknown #
face $-1 $139 $140 $19 $-1 $141 reversed single #
loop $-1 $-1 $142 $52 #
plane-surface $-1 0 0 14.906126142932726 0 0 1 1 0 0 forward_v I I I I #
coedge $-1 $143 $144 $145 $146 reversed $53 $-1 #
coedge $-1 $147 $55 $148 $149 reversed $34 $-1 #
coedge $-1 $55 $147 $150 $151 reversed $34 $-1 #
coedge $-1 $144 $143 $55 $89 reversed $53 $-1 #
edge $-1 $152 -14.906126142932726 $153 14.906126142932726 $88 $154 forward 7 unknown #
face $-1 $155 $156 $20 $-1 $157 forward single #
loop $-1 $-1 $158 $56 #
plane-surface $-1 -11.202050560555385 -152.00961410174961 90.136351209054823 1 0 0 0 0.79863551827123203 -0.60181501223851219 forward_v I I I I #
coedge $-1 $159 $160 $161 $162 reversed $57 $-1 #
coedge $-1 $95 $59 $163 $164 reversed $37 $-1 #
coedge $-1 $59 $94 $159 $165 reversed $37 $-1 #
coedge $-1 $161 $166 $59 $97 forward $156 $-1 #
edge $-1 $167 42.563819263539955 $168 53.202224490331531 $96 $169 forward 7 unknown #
loop $-1 $-1 $103 $60 #
plane-surface $-1 -4.2925802537861273 -33.440987787334876 0.78848517502866855 0 -0.79863551827123203 0.60181501223851219 1 0 0 forward_v I I I I #
loop $-1 $-1 $170 $39 #
coedge $-1 $101 $101 $102 $171 reversed $61 $-1 #
coedge $-1 $102 $102 $101 $171 forward $63 $-1 #
coedge $-1 $103 $103 $64 $104 forward $98 $-1 #
edge $-1 $172 4.964163881515461e-016 $172 6.2831853071796013 $103 $173 forward 7 unknown #
face $-1 $174 $175 $22 $-1 $176 reversed single #
loop $-1 $-1 $177 $65 #
plane-surface $-1 2.6168900529831305 111.75903715274387 143.55067243513503 -1 0 0 0 0.79863551827123203 0.60181501223851219 forward_v I I I I #
coedge $-1 $178 $179 $180 $181 reversed $66 $-1 #
coedge $-1 $110 $68 $182 $183 reversed $43 $-1 #
coedge $-1 $68 $109 $178 $184 reversed $43 $-1 #
coedge $-1 $180 $185 $68 $112 forward $186 $-1 #
edge $-1 $187 22.438530789037088 $188 33.076936015828693 $111 $189 forward 7 unknown #
loop $-1 $-1 $118 $69 #
plane-surface $-1 -4.2925802537861273 -6.809589161670857 54.202806401108873 0 0.79863551827123203 0.60181501223851219 1 0 0 forward_v I I I I #
loop $-1 $-1 $190 $45 #
coedge $-1 $116 $116 $117 $191 reversed $70 $-1 #
coedge $-1 $117 $117 $116 $191 forward $72 $-1 #
coedge $-1 $118 $118 $73 $119 forward $113 $-1 #
edge $-1 $192 2.2299837286663999e-016 $192 6.2831853071796004 $118 $193 forward 7 unknown #
face $-1 $194 $195 $18 $-1 $196 reversed single #
loop $-1 $-1 $197 $74 #
plane-surface $-1 -74.232001709036524 0 0 1 0 0 0 0 -1 forward_v I I I I #
coedge $-1 $198 $131 $199 $200 forward $75 $-1 #
coedge $-1 $201 $77 $198 $202 forward $49 $-1 #
coedge $-1 $77 $201 $203 $204 forward $49 $-1 #
coedge $-1 $134 $133 $77 $127 reversed $135 $-1 #
edge $-1 $205 -33.440987787334848 $206 33.440987787334848 $126 $207 forward 7 unknown #
coedge $-1 $79 $78 $208 $209 forward $31 $-1 #
coedge $-1 $210 $211 $78 $130 reversed $195 $-1 #
edge $-1 $137 -74.232001709036524 $212 74.232001709036524 $129 $213 forward 7 unknown #
coedge $-1 $123 $214 $79 $132 reversed $75 $-1 #
edge $-1 $215 -74.232001709036524 $136 74.232001709036524 $131 $216 forward 7 unknown #
coedge $-1 $126 $80 $214 $217 forward $135 $-1 #
coedge $-1 $80 $126 $210 $218 reversed $135 $-1 #
loop $-1 $-1 $133 $194 #
vertex $-1 $81 $219 #
vertex $-1 $81 $220 #
straight-curve $-1 74.232001709036524 0 14.906126142932726 0 1 0 I I #
face $-1 $221 $222 $19 $-1 $223 reversed single #
loop $-1 $-1 $224 $82 #
plane-surface $-1 -74.232001709036524 0 0 1 0 0 0 0 -1 forward_v I I I I #
coedge $-1 $150 $225 $144 $226 forward $83 $-1 #
coedge $-1 $88 $85 $227 $228 reversed $53 $-1 #
coedge $-1 $85 $88 $142 $226 reversed $53 $-1 #
coedge $-1 $229 $230 $85 $146 forward $231 $-1 #
edge $-1 $232 -14.906126142932726 $233 14.906126142932726 $145 $234 forward 7 unknown #
coedge $-1 $87 $86 $224 $235 reversed $34 $-1 #
coedge $-1 $227 $236 $86 $149 forward $222 $-1 #
edge $-1 $237 -41.476046163171723 $153 -24.035864928557878 $148 $238 forward 7 unknown #
coedge $-1 $239 $142 $87 $151 forward $83 $-1 #
edge $-1 $152 24.035864928557878 $240 41.476046163171723 $150 $241 forward 7 unknown #
vertex $-1 $151 $242 #
vertex $-1 $149 $243 #
straight-curve $-1 -56.791820474422678 -29.566313913931268 0 0 0 -1 I I #
face $-1 $-1 $244 $20 $-1 $245 reversed single #
loop $-1 $-1 $96 $90 #
plane-surface $-1 0 0 14.906126142932726 0 0 1 1 0 0 forward_v I I I I #
coedge $-1 $246 $247 $248 $249 reversed $91 $-1 #
coedge $-1 $250 $93 $95 $165 forward $57 $-1 #
coedge $-1 $93 $250 $246 $251 forward $57 $-1 #
coedge $-1 $248 $96 $93 $162 forward $156 $-1 #
edge $-1 $168 -4.7631801798761941 $252 9.0557604336623214 $161 $253 forward 7 unknown #
coedge $-1 $254 $255 $94 $164 forward $244 $-1 #
edge $-1 $256 -44.279690429498707 $167 -30.162049461594684 $163 $257 forward 7 unknown #
edge $-1 $168 -17.677201482929078 $256 -4.7251171791415696e-014 $95 $258 forward 7 unknown #
coedge $-1 $96 $248 $254 $259 forward $156 $-1 #
vertex $-1 $164 $260 #
vertex $-1 $97 $261 #
straight-curve $-1 2.6168900529831305 -76.004807050874803 14.906126142932727 0 1 0 I I #
coedge $-1 $170 $170 $-1 $262 reversed $100 $-1 #
edge $-1 $263 0 $263 6.2831853071796004 $101 $264 forward 7 unknown #
vertex $-1 $104 $265 #
ellipse-curve $-1 -4.2925802537861273 -28.121785173939063 7.8473056589807086 0 -0.79863551827123203 0.60181501223851219 3 0 0 1 I I #
face $-1 $-1 $186 $22 $-1 $266 forward single #
loop $-1 $-1 $267 $105 #
plane-surface $-1 0 33.440987787334848 0 0 -1 0 0 0 -1 forward_v I I I I #
coedge $-1 $268 $269 $270 $271 reversed $106 $-1 #
coedge $-1 $272 $108 $110 $184 forward $66 $-1 #
coedge $-1 $108 $272 $268 $273 forward $66 $-1 #
coedge $-1 $270 $111 $108 $181 forward $186 $-1 #
edge $-1 $188 -9.0557604336623214 $274 4.7631801798761941 $180 $275 forward 7 unknown #
coedge $-1 $276 $277 $109 $183 forward $175 $-1 #
edge $-1 $278 -70.986851042538845 $187 -56.869210074634786 $182 $279 forward 7 unknown #
edge $-1 $188 49.204774091740603 $278 66.881975574669681 $110 $280 forward 7 unknown #
coedge $-1 $111 $270 $276 $281 forward $186 $-1 #
loop $-1 $-1 $270 $174 #
vertex $-1 $183 $282 #
vertex $-1 $112 $283 #
straight-curve $-1 -11.202050560555385 55.879518576371936 14.90612614293272 0 -1 0 I I #
coedge $-1 $190 $190 $-1 $284 reversed $115 $-1 #
edge $-1 $285 0 $285 6.2831853071796004 $116 $286 forward 7 unknown #
vertex $-1 $119 $287 #
ellipse-curve $-1 -4.2925802537861273 28.121785173939053 7.8473056589806962 0 0.79863551827123203 0.60181501223851219 3 0 0 1 I I #
face $-1 $-1 $135 $18 $-1 $288 reversed single #
loop $-1 $-1 $210 $120 #
plane-surface $-1 0 33.440987787334848 0 0 -1 0 0 0 -1 forward_v I I I I #
coedge $-1 $289 $208 $211 $290 forward $121 $-1 #
coedge $-1 $214 $123 $124 $202 reversed $75 $-1 #
coedge $-1 $208 $289 $123 $200 reversed $121 $-1 #
edge $-1 $215 -14.906126142932726 $291 14.906126142932726 $199 $292 forward 7 unknown #
coedge $-1 $125 $124 $289 $293 forward $49 $-1 #
edge $-1 $206 -74.232001709036524 $291 74.232001709036524 $198 $294 forward 7 unknown #
coedge $-1 $211 $210 $125 $204 reversed $195 $-1 #
edge $-1 $295 -74.232001709036524 $205 74.232001709036524 $203 $296 forward 7 unknown #
vertex $-1 $127 $297 #
vertex $-1 $217 $298 #
straight-curve $-1 74.232001709036524 0 -14.906126142932726 0 -1 0 I I #
coedge $-1 $197 $199 $128 $209 reversed $121 $-1 #
edge $-1 $212 -33.440987787334848 $215 33.440987787334848 $208 $299 forward 7 unknown #
coedge $-1 $203 $129 $134 $218 forward $195 $-1 #
coedge $-1 $129 $203 $197 $290 reversed $195 $-1 #
vertex $-1 $130 $300 #
straight-curve $-1 0 33.440987787334848 14.906126142932726 -1 0 0 I I #
coedge $-1 $131 $198 $133 $217 reversed $75 $-1 #
vertex $-1 $209 $301 #
straight-curve $-1 0 -33.440987787334848 14.906126142932726 1 0 0 I I #
edge $-1 $136 -14.906126142932726 $206 14.906126142932726 $133 $302 forward 7 unknown #
edge $-1 $137 -14.906126142932726 $205 14.906126142932726 $134 $303 forward 7 unknown #
point $-1 74.232001709036524 -33.440987787334848 14.906126142932726 #
point $-1 74.232001709036524 33.440987787334848 14.906126142932726 #
face $-1 $-1 $231 $19 $-1 $304 reversed single #
loop $-1 $-1 $227 $139 #
plane-surface $-1 0 0 -14.906126142932726 0 0 1 1 0 0 forward_v I I I I #
coedge $-1 $305 $306 $147 $235 forward $140 $-1 #
coedge $-1 $142 $239 $229 $307 forward $83 $-1 #
edge $-1 $233 -17.689162362018319 $152 -13.814488488614739 $142 $308 forward 7 unknown #
coedge $-1 $309 $148 $143 $228 forward $222 $-1 #
edge $-1 $153 13.814488488614739 $232 17.689162362018319 $227 $310 forward 7 unknown #
coedge $-1 $311 $145 $225 $307 reversed $231 $-1 #
coedge $-1 $145 $311 $309 $312 reversed $231 $-1 #
loop $-1 $-1 $145 $221 #
vertex $-1 $312 $313 #
vertex $-1 $146 $314 #
straight-curve $-1 -56.791820474422678 -33.440987787334848 0 0 0 1 I I #
edge $-1 $240 -14.906126142932726 $237 14.906126142932726 $224 $315 forward 7 unknown #
coedge $-1 $148 $309 $305 $316 forward $222 $-1 #
vertex $-1 $149 $317 #
straight-curve $-1 -32.755955545864801 -29.566313913931268 -14.906126142932726 1 0 0 I I #
coedge $-1 $225 $150 $306 $318 forward $83 $-1 #
vertex $-1 $318 $319 #
straight-curve $-1 -32.755955545864801 -29.566313913931268 14.906126142932726 -1 0 0 I I #
point $-1 -56.791820474422678 -29.566313913931268 14.906126142932726 #
point $-1 -56.791820474422678 -29.566313913931268 -14.906126142932726 #
loop $-1 $-1 $163 $155 #
plane-surface $-1 0 -33.440987787334848 0 0 1 0 0 0 1 forward_v I I I I #
coedge $-1 $247 $158 $160 $251 reversed $91 $-1 #
coedge $-1 $158 $246 $320 $321 reversed $91 $-1 #
coedge $-1 $166 $161 $158 $249 forward $156 $-1 #
edge $-1 $252 -53.202224490331531 $322 -42.563819263539955 $248 $323 forward 7 unknown #
coedge $-1 $160 $159 $255 $324 reversed $57 $-1 #
edge $-1 $325 4.7251171791415696e-014 $252 17.677201482929078 $246 $326 forward 7 unknown #
vertex $-1 $162 $327 #
straight-curve $-1 -2.1462901268930636 -22.802582560543264 14.906126142932726 -1 0 0 I I #
coedge $-1 $320 $163 $166 $259 reversed $244 $-1 #
coedge $-1 $163 $320 $250 $324 forward $244 $-1 #
vertex $-1 $164 $328 #
straight-curve $-1 2.6168900529831305 -33.440987787334848 45.068175604527411 0 0 1 I I #
straight-curve $-1 2.6168900529831305 -33.440987787334876 0.78848517502866855 0 -0.60181501223851219 -0.79863551827123203 I I #
edge $-1 $322 -11.202050560555385 $167 2.6168900529831305 $254 $329 forward 7 unknown #
point $-1 2.6168900529831305 -33.440987787334848 14.906126142932726 #
point $-1 2.6168900529831305 -22.802582560543268 14.906126142932724 #
edge $-1 $330 1 $330 0 $170 $-1 forward 7 unknown #
vertex $-1 $171 $331 #
ellipse-curve $-1 -4.2925802537861273 -22.806436466531377 3.841903226686028 0 -0.79863551827123203 0.60181501223851219 3 0 0 1 I I #
point $-1 -1.2925802537861273 -28.121785173939038 7.8473056589806918 #
plane-surface $-1 0 0 14.906126142932726 0 0 1 1 0 0 forward_v I I I I #
coedge $-1 $277 $276 $269 $332 forward $175 $-1 #
coedge $-1 $269 $177 $179 $273 reversed $106 $-1 #
coedge $-1 $177 $268 $267 $332 reversed $106 $-1 #
coedge $-1 $185 $180 $177 $271 forward $186 $-1 #
edge $-1 $274 -33.076936015828693 $333 -22.438530789037088 $270 $334 forward 7 unknown #
coedge $-1 $179 $178 $277 $335 reversed $66 $-1 #
edge $-1 $336 -66.881975574669681 $274 -49.204774091740603 $268 $337 forward 7 unknown #
vertex $-1 $181 $338 #
straight-curve $-1 -2.1462901268930636 22.802582560543236 14.906126142932735 1 0 0 I I #
coedge $-1 $267 $182 $185 $281 reversed $175 $-1 #
coedge $-1 $182 $267 $272 $335 forward $175 $-1 #
vertex $-1 $183 $339 #
straight-curve $-1 -11.202050560555385 33.440987787334848 71.775336217567514 0 0 1 I I #
straight-curve $-1 -11.202050560555385 -6.809589161670857 54.202806401108873 0 0.60181501223851219 -0.79863551827123203 I I #
edge $-1 $333 -2.6168900529831305 $187 11.202050560555385 $276 $340 forward 7 unknown #
point $-1 -11.202050560555385 33.440987787334848 14.906126142932726 #
point $-1 -11.202050560555385 22.802582560543243 14.906126142932727 #
edge $-1 $341 1 $341 0 $190 $-1 forward 7 unknown #
vertex $-1 $191 $342 #
ellipse-curve $-1 -4.2925802537861273 22.806436466531373 3.8419032266860209 0 0.79863551827123203 0.60181501223851219 3 0 0 1 I I #
point $-1 -1.2925802537861273 28.121785173939038 7.8473056589806847 #
plane-surface $-1 74.232001709036524 0 0 -1 0 0 0 0 1 forward_v I I I I #
coedge $-1 $199 $197 $201 $293 reversed $121 $-1 #
edge $-1 $212 -14.906126142932726 $295 14.906126142932726 $211 $343 forward 7 unknown #
vertex $-1 $293 $344 #
straight-curve $-1 -74.232001709036524 -33.440987787334848 0 0 0 -1 I I #
edge $-1 $291 -33.440987787334848 $295 33.440987787334848 $289 $345 forward 7 unknown #
straight-curve $-1 0 -33.440987787334848 -14.906126142932726 -1 0 0 I I #
vertex $-1 $204 $346 #
straight-curve $-1 0 33.440987787334848 -14.906126142932726 1 0 0 I I #
point $-1 74.232001709036524 33.440987787334848 -14.906126142932726 #
point $-1 74.232001709036524 -33.440987787334848 -14.906126142932726 #
straight-curve $-1 -74.232001709036524 0 14.906126142932726 0 -1 0 I I #
point $-1 -74.232001709036524 33.440987787334848 14.906126142932726 #
point $-1 -74.232001709036524 -33.440987787334848 14.906126142932726 #
straight-curve $-1 74.232001709036524 -33.440987787334848 0 0 0 -1 I I #
straight-curve $-1 74.232001709036524 33.440987787334848 0 0 0 -1 I I #
plane-surface $-1 0 -33.440987787334848 0 0 1 0 0 0 1 forward_v I I I I #
coedge $-1 $347 $224 $236 $316 reversed $140 $-1 #
coedge $-1 $224 $347 $239 $318 reversed $140 $-1 #
edge $-1 $348 -74.232001709036524 $233 -56.791820474422678 $229 $349 forward 7 unknown #
straight-curve $-1 -56.791820474422678 -15.751825425316529 14.906126142932726 0 1 0 I I #
coedge $-1 $236 $227 $230 $312 forward $222 $-1 #
straight-curve $-1 -56.791820474422678 -15.751825425316529 -14.906126142932726 0 -1 0 I I #
coedge $-1 $230 $229 $347 $350 forward $231 $-1 #
edge $-1 $232 56.791820474422678 $351 74.232001709036524 $230 $352 forward 7 unknown #
point $-1 -56.791820474422678 -33.440987787334848 -14.906126142932726 #
point $-1 -56.791820474422678 -33.440987787334848 14.906126142932726 #
straight-curve $-1 -74.232001709036524 -29.566313913931268 0 0 0 -1 I I #
edge $-1 $351 -33.440987787334848 $237 -29.566313913931268 $305 $353 forward 7 unknown #
point $-1 -74.232001709036524 -29.566313913931268 -14.906126142932726 #
edge $-1 $240 29.566313913931268 $348 33.440987787334848 $306 $354 forward 7 unknown #
point $-1 -74.232001709036524 -29.566313913931268 14.906126142932726 #
coedge $-1 $255 $254 $247 $321 forward $244 $-1 #
edge $-1 $322 30.162049461594684 $325 44.279690429498707 $320 $355 forward 7 unknown #
vertex $-1 $259 $356 #
straight-curve $-1 -11.202050560555385 -76.004807050874803 14.906126142932727 0 -1 0 I I #
edge $-1 $325 -9.0557604336623214 $256 4.7631801798761941 $255 $357 forward 7 unknown #
vertex $-1 $324 $358 #
straight-curve $-1 -11.202050560555385 -33.440987787334876 0.78848517502866855 0 0.60181501223851219 0.79863551827123203 I I #
point $-1 -11.202050560555385 -22.802582560543268 14.906126142932724 #
point $-1 2.6168900529831305 -33.440987787334848 0.7884851750287063 #
straight-curve $-1 0 -33.440987787334848 14.906126142932726 1 0 0 I I #
vertex $-1 $262 $359 #
point $-1 -1.2925802537861273 -22.806436466531377 3.841903226686028 #
edge $-1 $333 56.869210074634786 $336 70.986851042538845 $267 $360 forward 7 unknown #
vertex $-1 $281 $361 #
straight-curve $-1 2.6168900529831305 55.879518576371936 14.90612614293272 0 1 0 I I #
edge $-1 $336 -4.7631801798761941 $278 9.0557604336623214 $277 $362 forward 7 unknown #
vertex $-1 $335 $363 #
straight-curve $-1 2.6168900529831305 -6.809589161670857 54.202806401108873 0 -0.60181501223851219 0.79863551827123203 I I #
point $-1 2.6168900529831305 22.802582560543243 14.906126142932727 #
point $-1 -11.202050560555385 33.440987787334848 0.78848517502866855 #
straight-curve $-1 0 33.440987787334848 14.906126142932726 -1 0 0 I I #
vertex $-1 $284 $364 #
point $-1 -1.2925802537861273 22.806436466531373 3.8419032266860209 #
straight-curve $-1 -74.232001709036524 33.440987787334848 0 0 0 -1 I I #
point $-1 -74.232001709036524 -33.440987787334848 -14.906126142932726 #
straight-curve $-1 -74.232001709036524 0 -14.906126142932726 0 1 0 I I #
point $-1 -74.232001709036524 33.440987787334848 -14.906126142932726 #
coedge $-1 $306 $305 $311 $350 reversed $140 $-1 #
vertex $-1 $318 $365 #
straight-curve $-1 0 -33.440987787334848 14.906126142932726 1 0 0 I I #
edge $-1 $348 -14.906126142932726 $351 14.906126142932726 $347 $366 forward 7 unknown #
vertex $-1 $316 $367 #
straight-curve $-1 0 -33.440987787334848 -14.906126142932726 -1 0 0 I I #
straight-curve $-1 -74.232001709036524 0 -14.906126142932726 0 1 0 I I #
straight-curve $-1 -74.232001709036524 0 14.906126142932726 0 -1 0 I I #
straight-curve $-1 -11.202050560555385 -33.440987787334848 45.068175604527411 0 0 -1 I I #
point $-1 -11.202050560555385 -33.440987787334848 14.906126142932726 #
straight-curve $-1 -2.1462901268930636 -33.440987787334848 0.78848517502870652 1 0 0 I I #
point $-1 -11.202050560555385 -33.440987787334848 0.7884851750287063 #
point $-1 -4.2925802537861273 -20.410529911717685 2.0364581899704928 #
straight-curve $-1 2.6168900529831305 33.440987787334848 71.775336217567514 0 0 -1 I I #
point $-1 2.6168900529831305 33.440987787334848 14.906126142932726 #
straight-curve $-1 -2.1462901268930636 33.440987787334848 0.78848517502867566 -1 0 0 I I #
point $-1 2.6168900529831305 33.440987787334848 0.78848517502866855 #
point $-1 -4.2925802537861273 20.410529911717681 2.0364581899704857 #
point $-1 -74.232001709036524 -33.440987787334848 14.906126142932726 #
straight-curve $-1 -74.232001709036524 -33.440987787334848 0 0 0 -1 I I #
point $-1 -74.232001709036524 -33.440987787334848 -14.906126142932726 #
End-of-ACIS-data 