500 0 9 0           
7 Unknown 11 ACIS 5.0 NT 24 Thu Mar 25 19:13:49 1999 
-1 9.9999999999999995e-007 1e-010 
body $-1 $9 $-1 $10 #
body $-1 $11 $-1 $12 #
body $-1 $13 $-1 $14 #
body $-1 $15 $-1 $16 #
body $-1 $17 $-1 $18 #
body $-1 $19 $-1 $20 #
body $-1 $21 $-1 $22 #
body $-1 $23 $-1 $24 #
body $-1 $25 $-1 $26 #
lump $-1 $-1 $27 $0 #
transform $-1 1 0 0 0 1 0 0 0 1 52.599261452070678 23.425428704796516 8.0909130168664856 1 rotate no_reflect no_shear #
lump $-1 $-1 $28 $1 #
transform $-1 1 0 0 0 1 0 0 0 1 52.599261452070678 23.425428704796516 8.0909130168664856 1 rotate no_reflect no_shear #
lump $-1 $-1 $29 $2 #
transform $-1 1 0 0 0 1 0 0 0 1 52.599261452070678 23.425428704796516 8.0909130168664856 1 rotate no_reflect no_shear #
lump $-1 $-1 $30 $3 #
transform $-1 1 0 0 0 1 0 0 0 1 52.599261452070678 23.425428704796516 8.0909130168664856 1 rotate no_reflect no_shear #
lump $-1 $-1 $31 $4 #
transform $-1 1 0 0 0 1 0 0 0 1 52.599261452070678 23.425428704796516 8.0909130168664856 1 rotate no_reflect no_shear #
lump $-1 $-1 $32 $5 #
transform $-1 1 0 0 0 1 0 0 0 1 52.599261452070678 23.425428704796516 8.0909130168664856 1 rotate no_reflect no_shear #
lump $-1 $-1 $33 $6 #
transform $-1 1 0 0 0 1 0 0 0 1 52.599261452070678 23.425428704796516 8.0909130168664856 1 rotate no_reflect no_shear #
lump $-1 $-1 $34 $7 #
transform $-1 1 0 0 0 1 0 0 0 1 52.599261452070678 23.425428704796516 8.0909130168664856 1 rotate no_reflect no_shear #
lump $-1 $-1 $35 $8 #
transform $-1 1 0 0 0 1 0 0 0 1 52.599261452070678 23.425428704796516 8.0909130168664856 1 rotate no_reflect no_shear #
shell $-1 $-1 $-1 $36 $-1 $9 #
shell $-1 $-1 $-1 $37 $-1 $11 #
shell $-1 $-1 $-1 $38 $-1 $13 #
shell $-1 $-1 $-1 $39 $-1 $15 #
shell $-1 $-1 $-1 $40 $-1 $17 #
shell $-1 $-1 $-1 $41 $-1 $19 #
shell $-1 $-1 $-1 $42 $-1 $21 #
shell $-1 $-1 $-1 $43 $-1 $23 #
shell $-1 $-1 $-1 $44 $-1 $25 #
face $-1 $45 $46 $27 $-1 $47 forward single #
face $-1 $48 $49 $28 $-1 $50 reversed single #
face $-1 $51 $52 $29 $-1 $53 reversed single #
face $-1 $54 $55 $30 $-1 $56 reversed single #
face $-1 $57 $58 $31 $-1 $59 forward single #
face $-1 $60 $61 $32 $-1 $62 forward single #
face $-1 $63 $64 $33 $-1 $65 forward single #
face $-1 $66 $67 $34 $-1 $68 reversed single #
face $-1 $69 $70 $35 $-1 $71 forward single #
face $-1 $72 $73 $27 $-1 $74 reversed single #
loop $-1 $-1 $75 $36 #
plane-surface $-1 0 0 8.0909130168664856 0 0 1 1 0 0 forward_v I I I I #
face $-1 $76 $77 $28 $-1 $78 reversed single #
loop $-1 $-1 $79 $37 #
plane-surface $-1 -41.700564545544225 -19.218793465574382 0 1 0 0 0 0 -1 forward_v I I I I #
face $-1 $80 $81 $29 $-1 $82 reversed single #
loop $-1 $-1 $83 $38 #
plane-surface $-1 -39.787729196938628 15.012158226352245 0 0 1 0 0 0 1 forward_v I I I I #
face $-1 $84 $85 $30 $-1 $86 reversed single #
loop $-1 $-1 $87 $39 #
plane-surface $-1 -117.36594007752075 8.4985676486124415 84.836081699000886 0 1 0 -0.61566148304635926 0 0.78801074757464917 forward_v I I I I #
face $-1 $88 $89 $31 $-1 $90 forward single #
loop $-1 $91 $92 $40 #
cone-surface $-1 -48.354075624056328 9.8012857641604043 4.6207086454257134 0.61566148304635926 0 -0.78801074757464917 0.19700268689366229 0 0.15391537076158981 1 I I 0 1 0.25 forward I I I I #
face $-1 $93 $94 $32 $-1 $95 forward single #
loop $-1 $96 $97 $41 #
cone-surface $-1 -48.354075624056328 11.755362937482346 4.6207086454257134 0.61566148304635926 0 -0.78801074757464917 0.19700268689366229 0 0.15391537076158981 1 I I 0 1 0.25 forward I I I I #
face $-1 $98 $99 $33 $-1 $100 forward single #
loop $-1 $101 $102 $42 #
cone-surface $-1 -48.354075624056328 13.709440110804287 4.6207086454257134 0.61566148304635926 0 -0.78801074757464917 0.19700268689366229 0 0.15391537076158981 1 I I 0 1 0.25 forward I I I I #
face $-1 $103 $104 $34 $-1 $105 reversed single #
loop $-1 $-1 $106 $43 #
plane-surface $-1 14.093930740110082 11.131142179090482 145.02494128247483 0 -1 0 -0.50000000669873634 0 -0.8660253999169214 forward_v I I I I #
face $-1 $107 $108 $35 $-1 $109 forward single #
loop $-1 $110 $111 $44 #
cone-surface $-1 46.39266673780201 7.8744845574590698 4.1106022188913238 -0.50000000669873634 0 -0.8660253999169214 0.8660253999169214 0 -0.50000000669873634 1 I I 0 1 1 forward I I I I #
face $-1 $112 $113 $27 $-1 $114 reversed single #
loop $-1 $-1 $115 $45 #
plane-surface $-1 0 0 -8.0909130168664856 0 0 1 1 0 0 forward_v I I I I #
coedge $-1 $116 $117 $118 $119 forward $46 $-1 #
face $-1 $120 $121 $28 $-1 $122 reversed single #
loop $-1 $-1 $123 $48 #
plane-surface $-1 -39.787729196938628 -15.012158226352248 0 0 -1 0 0 0 -1 forward_v I I I I #
coedge $-1 $124 $125 $126 $127 forward $49 $-1 #
face $-1 $128 $129 $29 $-1 $130 reversed single #
loop $-1 $-1 $131 $51 #
plane-surface $-1 -41.700564545544225 19.218793465574379 0 1 0 0 0 0 -1 forward_v I I I I #
coedge $-1 $132 $133 $134 $135 forward $52 $-1 #
face $-1 $136 $137 $30 $-1 $138 reversed single #
loop $-1 $-1 $139 $54 #
plane-surface $-1 -52.599261452070692 11.755362937482346 1.9385150215595957 -0.61566148304635926 0 0.78801074757464917 0.78801074757464917 0 0.61566148304635926 forward_v I I I I #
coedge $-1 $140 $141 $142 $143 reversed $55 $-1 #
face $-1 $-1 $144 $31 $-1 $145 forward single #
loop $-1 $146 $147 $57 #
cone-surface $-1 -47.969287197152354 9.8012857641604043 4.1282019281915581 0.61566148304635926 0 -0.78801074757464917 0.098501343446831147 0 0.076957685380794907 1 I I -0.70710678118654746 0.70710678118654746 0.125 forward I I I I #
loop $-1 $-1 $148 $40 #
coedge $-1 $92 $92 $149 $150 reversed $58 $-1 #
face $-1 $-1 $151 $32 $-1 $152 forward single #
loop $-1 $153 $154 $60 #
cone-surface $-1 -47.969287197152354 11.755362937482346 4.1282019281915581 0.61566148304635926 0 -0.78801074757464917 0.098501343446831147 0 0.076957685380794907 1 I I -0.70710678118654746 0.70710678118654746 0.125 forward I I I I #
loop $-1 $-1 $155 $41 #
coedge $-1 $97 $97 $156 $157 reversed $61 $-1 #
face $-1 $-1 $158 $33 $-1 $159 forward single #
loop $-1 $160 $161 $63 #
cone-surface $-1 -47.969287197152354 13.709440110804287 4.1282019281915581 0.61566148304635926 0 -0.78801074757464917 0.098501343446831147 0 0.076957685380794907 1 I I -0.70710678118654746 0.70710678118654746 0.125 forward I I I I #
loop $-1 $-1 $162 $42 #
coedge $-1 $102 $102 $163 $164 reversed $64 $-1 #
face $-1 $165 $166 $34 $-1 $167 reversed single #
loop $-1 $-1 $168 $66 #
plane-surface $-1 -38.505331416657768 7.8744845574590698 53.920348413746396 0.50000000669873634 0 0.8660253999169214 0.8660253999169214 0 -0.50000000669873634 forward_v I I I I #
coedge $-1 $169 $170 $171 $172 reversed $67 $-1 #
face $-1 $-1 $173 $35 $-1 $174 forward single #
loop $-1 $175 $176 $69 #
cone-surface $-1 45.79891386873696 7.8744845574590698 3.0821921009016595 -0.50000000669873634 0 -0.8660253999169214 0.4330126999584607 0 -0.25000000334936817 1 I I -0.70710678118654746 0.70710678118654746 0.5 forward I I I I #
loop $-1 $-1 $177 $44 #
coedge $-1 $111 $111 $178 $179 reversed $70 $-1 #
face $-1 $180 $181 $27 $-1 $182 reversed single #
loop $-1 $-1 $183 $72 #
plane-surface $-1 0 -23.425428704796516 0 0 1 0 0 0 1 forward_v I I I I #
coedge $-1 $184 $185 $186 $187 forward $73 $-1 #
coedge $-1 $188 $75 $189 $190 forward $46 $-1 #
coedge $-1 $75 $188 $191 $192 forward $46 $-1 #
coedge $-1 $193 $194 $75 $119 reversed $195 $-1 #
edge $-1 $196 -23.425428704796516 $197 23.425428704796516 $118 $198 forward 7 unknown #
face $-1 $199 $200 $28 $-1 $201 forward single #
loop $-1 $-1 $202 $76 #
plane-surface $-1 -37.874893848333031 -19.218793465574382 0 -1 0 0 0 0 1 forward_v I I I I #
coedge $-1 $203 $204 $205 $206 forward $77 $-1 #
coedge $-1 $207 $79 $208 $209 reversed $49 $-1 #
coedge $-1 $79 $207 $210 $211 reversed $49 $-1 #
coedge $-1 $204 $203 $79 $127 reversed $77 $-1 #
edge $-1 $212 -8.0909130168664856 $213 8.0909130168664856 $126 $214 forward 7 unknown #
face $-1 $215 $216 $29 $-1 $217 reversed single #
loop $-1 $-1 $218 $80 #
plane-surface $-1 -37.874893848333031 19.218793465574379 0 -1 0 0 0 0 1 forward_v I I I I #
coedge $-1 $219 $220 $221 $222 reversed $81 $-1 #
coedge $-1 $223 $83 $224 $225 reversed $52 $-1 #
coedge $-1 $83 $223 $226 $227 reversed $52 $-1 #
coedge $-1 $220 $219 $83 $135 reversed $81 $-1 #
edge $-1 $228 -8.0909130168664856 $229 8.0909130168664856 $134 $230 forward 7 unknown #
face $-1 $231 $232 $30 $-1 $233 reversed single #
loop $-1 $-1 $234 $84 #
plane-surface $-1 -117.36594007752075 15.01215822635225 84.836081699000886 0 -1 0 0.61566148304635926 0 -0.78801074757464917 forward_v I I I I #
coedge $-1 $235 $236 $237 $238 reversed $85 $-1 #
coedge $-1 $141 $87 $239 $240 reversed $55 $-1 #
coedge $-1 $87 $140 $235 $241 reversed $55 $-1 #
coedge $-1 $237 $242 $87 $143 forward $243 $-1 #
edge $-1 $244 6.0837085866896956 $245 13.958418759672014 $142 $246 forward 7 unknown #
loop $-1 $-1 $149 $88 #
plane-surface $-1 -52.599261452070692 11.755362937482346 1.9385150215595957 -0.61566148304635926 0 0.78801074757464917 0.78801074757464917 0 0.61566148304635926 forward_v I I I I #
loop $-1 $-1 $247 $57 #
coedge $-1 $147 $147 $148 $248 reversed $89 $-1 #
coedge $-1 $148 $148 $147 $248 forward $91 $-1 #
coedge $-1 $149 $149 $92 $150 forward $144 $-1 #
edge $-1 $249 0 $249 6.2831853071796004 $149 $250 forward 7 unknown #
loop $-1 $-1 $156 $93 #
plane-surface $-1 -52.599261452070692 11.755362937482346 1.9385150215595957 -0.61566148304635926 0 0.78801074757464917 0.78801074757464917 0 0.61566148304635926 forward_v I I I I #
loop $-1 $-1 $251 $60 #
coedge $-1 $154 $154 $155 $252 reversed $94 $-1 #
coedge $-1 $155 $155 $154 $252 forward $96 $-1 #
coedge $-1 $156 $156 $97 $157 forward $151 $-1 #
edge $-1 $253 0 $253 6.2831853071796004 $156 $254 forward 7 unknown #
loop $-1 $-1 $163 $98 #
plane-surface $-1 -52.599261452070692 11.755362937482346 1.9385150215595957 -0.61566148304635926 0 0.78801074757464917 0.78801074757464917 0 0.61566148304635926 forward_v I I I I #
loop $-1 $-1 $255 $63 #
coedge $-1 $161 $161 $162 $256 reversed $99 $-1 #
coedge $-1 $162 $162 $161 $256 forward $101 $-1 #
coedge $-1 $163 $163 $102 $164 forward $158 $-1 #
edge $-1 $257 0 $257 6.2831853071796004 $163 $258 forward 7 unknown #
face $-1 $259 $260 $34 $-1 $261 forward single #
loop $-1 $-1 $262 $103 #
plane-surface $-1 14.093930740110082 4.617826935827658 145.02494128247483 0 1 0 0.50000000669873634 0 0.8660253999169214 forward_v I I I I #
coedge $-1 $263 $264 $265 $266 reversed $104 $-1 #
coedge $-1 $170 $106 $267 $268 reversed $67 $-1 #
coedge $-1 $106 $169 $263 $269 reversed $67 $-1 #
coedge $-1 $265 $270 $106 $172 forward $260 $-1 #
edge $-1 $271 -45.552296082015637 $272 -33.826612384909701 $171 $273 forward 7 unknown #
loop $-1 $-1 $178 $107 #
plane-surface $-1 -38.505331416657768 7.8744845574590698 53.920348413746396 0.50000000669873634 0 0.8660253999169214 0.8660253999169214 0 -0.50000000669873634 forward_v I I I I #
loop $-1 $-1 $274 $69 #
coedge $-1 $176 $176 $177 $275 reversed $108 $-1 #
coedge $-1 $177 $177 $176 $275 forward $110 $-1 #
coedge $-1 $178 $178 $111 $179 forward $173 $-1 #
edge $-1 $276 0 $276 6.2831853071796004 $178 $277 forward 7 unknown #
face $-1 $278 $279 $27 $-1 $280 reversed single #
loop $-1 $-1 $281 $112 #
plane-surface $-1 -52.599261452070678 0 0 1 0 0 0 0 -1 forward_v I I I I #
coedge $-1 $282 $191 $283 $284 forward $113 $-1 #
coedge $-1 $285 $115 $282 $286 forward $73 $-1 #
coedge $-1 $115 $285 $287 $288 forward $73 $-1 #
coedge $-1 $194 $193 $115 $187 reversed $195 $-1 #
edge $-1 $289 -23.425428704796516 $290 23.425428704796516 $186 $291 forward 7 unknown #
coedge $-1 $117 $116 $292 $293 forward $46 $-1 #
coedge $-1 $294 $295 $116 $190 reversed $279 $-1 #
edge $-1 $197 -52.599261452070678 $296 52.599261452070678 $189 $297 forward 7 unknown #
coedge $-1 $183 $298 $117 $192 reversed $113 $-1 #
edge $-1 $299 -52.599261452070678 $196 52.599261452070678 $191 $300 forward 7 unknown #
coedge $-1 $186 $118 $298 $301 forward $195 $-1 #
coedge $-1 $118 $186 $294 $302 reversed $195 $-1 #
loop $-1 $-1 $193 $278 #
vertex $-1 $119 $303 #
vertex $-1 $119 $304 #
straight-curve $-1 52.599261452070678 0 8.0909130168664856 0 1 0 I I #
face $-1 $305 $306 $28 $-1 $307 reversed single #
loop $-1 $-1 $308 $120 #
plane-surface $-1 0 0 8.0909130168664856 0 0 1 1 0 0 forward_v I I I I #
coedge $-1 $309 $310 $311 $312 reversed $121 $-1 #
coedge $-1 $126 $123 $313 $314 reversed $77 $-1 #
coedge $-1 $123 $126 $315 $316 reversed $77 $-1 #
coedge $-1 $310 $309 $123 $206 reversed $121 $-1 #
edge $-1 $317 -8.0909130168664856 $318 8.0909130168664856 $205 $319 forward 7 unknown #
coedge $-1 $125 $124 $320 $321 reversed $49 $-1 #
coedge $-1 $313 $322 $124 $209 forward $306 $-1 #
edge $-1 $323 -13.816031972009325 $213 -5.4027614935650572 $208 $324 forward 7 unknown #
coedge $-1 $325 $315 $125 $211 forward $200 $-1 #
edge $-1 $212 5.4027614935650572 $326 13.816031972009325 $210 $327 forward 7 unknown #
vertex $-1 $211 $328 #
vertex $-1 $209 $329 #
straight-curve $-1 -41.700564545544225 -15.012158226352248 0 0 0 -1 I I #
face $-1 $330 $331 $29 $-1 $332 forward single #
loop $-1 $-1 $333 $128 #
plane-surface $-1 0 0 -8.0909130168664856 0 0 1 1 0 0 forward_v I I I I #
coedge $-1 $334 $335 $223 $336 forward $129 $-1 #
coedge $-1 $134 $131 $337 $338 reversed $81 $-1 #
coedge $-1 $131 $134 $339 $340 reversed $81 $-1 #
coedge $-1 $341 $342 $131 $222 forward $343 $-1 #
edge $-1 $344 -8.0909130168664856 $345 8.0909130168664856 $221 $346 forward 7 unknown #
coedge $-1 $133 $132 $218 $336 reversed $52 $-1 #
coedge $-1 $337 $333 $132 $225 forward $216 $-1 #
edge $-1 $347 17.981029249863717 $229 21.806699947074911 $224 $348 forward 7 unknown #
coedge $-1 $349 $339 $133 $227 forward $331 $-1 #
edge $-1 $228 -21.806699947074911 $350 -17.981029249863717 $226 $351 forward 7 unknown #
vertex $-1 $227 $352 #
vertex $-1 $225 $353 #
straight-curve $-1 -41.700564545544225 15.012158226352245 0 0 0 -1 I I #
face $-1 $-1 $243 $30 $-1 $354 forward single #
loop $-1 $-1 $355 $136 #
plane-surface $-1 -52.599261452070678 0 0 1 0 0 0 0 -1 forward_v I I I I #
coedge $-1 $356 $357 $358 $359 reversed $137 $-1 #
coedge $-1 $360 $139 $141 $241 forward $85 $-1 #
coedge $-1 $139 $360 $356 $361 forward $85 $-1 #
coedge $-1 $358 $142 $139 $238 forward $243 $-1 #
edge $-1 $245 2.6208861798712686 $362 9.1344767576110772 $237 $363 forward 7 unknown #
coedge $-1 $364 $365 $140 $240 forward $232 $-1 #
edge $-1 $366 -40.479525827940833 $244 -34.327127832633956 $239 $367 forward 7 unknown #
edge $-1 $245 -9.9931507244275899 $366 -1.8033521786330445e-014 $141 $368 forward 7 unknown #
coedge $-1 $142 $358 $364 $369 forward $243 $-1 #
loop $-1 $-1 $358 $231 #
vertex $-1 $240 $370 #
vertex $-1 $143 $371 #
straight-curve $-1 -58.682970038760374 8.4985676486124415 8.0909130168664873 1 0 0 I I #
coedge $-1 $247 $247 $-1 $372 reversed $146 $-1 #
edge $-1 $373 0 $373 6.2831853071796004 $147 $374 forward 7 unknown #
vertex $-1 $150 $375 #
ellipse-curve $-1 -48.661906365579519 9.8012857641604043 5.0147140192130477 -0.61566148304635926 0 0.78801074757464917 0.19700268689366229 0 0.15391537076158981 1 I I #
coedge $-1 $251 $251 $-1 $376 reversed $153 $-1 #
edge $-1 $377 0 $377 6.2831853071796004 $154 $378 forward 7 unknown #
vertex $-1 $157 $379 #
ellipse-curve $-1 -48.661906365579519 11.755362937482346 5.0147140192130477 -0.61566148304635926 0 0.78801074757464917 0.19700268689366229 0 0.15391537076158981 1 I I #
coedge $-1 $255 $255 $-1 $380 reversed $160 $-1 #
edge $-1 $381 0 $381 6.2831853071796004 $161 $382 forward 7 unknown #
vertex $-1 $164 $383 #
ellipse-curve $-1 -48.661906365579519 13.709440110804287 5.0147140192130477 -0.61566148304635926 0 0.78801074757464917 0.19700268689366229 0 0.15391537076158981 1 I I #
face $-1 $-1 $384 $34 $-1 $385 reversed single #
loop $-1 $-1 $171 $165 #
plane-surface $-1 0 0 8.0909130168664856 0 0 1 1 0 0 forward_v I I I I #
coedge $-1 $386 $387 $388 $389 reversed $166 $-1 #
coedge $-1 $390 $168 $170 $269 forward $104 $-1 #
coedge $-1 $168 $390 $386 $391 forward $104 $-1 #
coedge $-1 $388 $171 $168 $266 forward $260 $-1 #
edge $-1 $272 -7.1938999003609467 $392 -0.6805846570981231 $265 $393 forward 7 unknown #
coedge $-1 $394 $395 $169 $268 forward $384 $-1 #
edge $-1 $396 -71.191384384258868 $271 -64.421557624370934 $267 $397 forward 7 unknown #
edge $-1 $272 91.658869565762615 $396 105.19852290414137 $170 $398 forward 7 unknown #
coedge $-1 $171 $388 $394 $399 forward $260 $-1 #
vertex $-1 $172 $400 #
vertex $-1 $172 $401 #
straight-curve $-1 7.046965370055041 11.131142179090482 8.0909130168664802 -1 0 0 I I #
coedge $-1 $274 $274 $-1 $402 reversed $175 $-1 #
edge $-1 $403 0 $403 6.2831853071796004 $176 $404 forward 7 unknown #
vertex $-1 $179 $405 #
ellipse-curve $-1 46.736419603517696 7.8744845574590698 4.7059996369225292 0.50000000669873634 0 0.8660253999169214 0.8660253999169214 0 -0.50000000669873634 1 I I #
face $-1 $-1 $195 $27 $-1 $406 reversed single #
loop $-1 $-1 $294 $180 #
plane-surface $-1 0 23.425428704796516 0 0 -1 0 0 0 -1 forward_v I I I I #
coedge $-1 $407 $292 $295 $408 forward $181 $-1 #
coedge $-1 $298 $183 $184 $286 reversed $113 $-1 #
coedge $-1 $292 $407 $183 $284 reversed $181 $-1 #
edge $-1 $299 -8.0909130168664856 $409 8.0909130168664856 $283 $410 forward 7 unknown #
coedge $-1 $185 $184 $407 $411 forward $73 $-1 #
edge $-1 $290 -52.599261452070678 $409 52.599261452070678 $282 $412 forward 7 unknown #
coedge $-1 $295 $294 $185 $288 reversed $279 $-1 #
edge $-1 $413 -52.599261452070678 $289 52.599261452070678 $287 $414 forward 7 unknown #
vertex $-1 $187 $415 #
vertex $-1 $301 $416 #
straight-curve $-1 52.599261452070678 0 -8.0909130168664856 0 -1 0 I I #
coedge $-1 $281 $283 $188 $293 reversed $181 $-1 #
edge $-1 $296 -23.425428704796516 $299 23.425428704796516 $292 $417 forward 7 unknown #
coedge $-1 $287 $189 $194 $302 forward $279 $-1 #
coedge $-1 $189 $287 $281 $408 reversed $279 $-1 #
vertex $-1 $190 $418 #
straight-curve $-1 0 23.425428704796516 8.0909130168664856 -1 0 0 I I #
coedge $-1 $191 $282 $193 $301 reversed $113 $-1 #
vertex $-1 $293 $419 #
straight-curve $-1 0 -23.425428704796516 8.0909130168664856 1 0 0 I I #
edge $-1 $196 -8.0909130168664856 $290 8.0909130168664856 $193 $420 forward 7 unknown #
edge $-1 $197 -8.0909130168664856 $289 8.0909130168664856 $194 $421 forward 7 unknown #
point $-1 52.599261452070678 -23.425428704796516 8.0909130168664856 #
point $-1 52.599261452070678 23.425428704796516 8.0909130168664856 #
face $-1 $-1 $422 $28 $-1 $423 reversed single #
loop $-1 $-1 $424 $199 #
plane-surface $-1 0 0 -8.0909130168664856 0 0 1 1 0 0 forward_v I I I I #
coedge $-1 $315 $325 $310 $425 forward $200 $-1 #
coedge $-1 $205 $202 $424 $426 reversed $121 $-1 #
coedge $-1 $202 $205 $308 $425 reversed $121 $-1 #
coedge $-1 $427 $428 $202 $312 forward $422 $-1 #
edge $-1 $429 -8.0909130168664856 $430 8.0909130168664856 $311 $431 forward 7 unknown #
coedge $-1 $424 $208 $203 $314 forward $306 $-1 #
edge $-1 $213 -21.806699947074911 $318 -17.981029249863717 $313 $432 forward 7 unknown #
coedge $-1 $210 $308 $204 $316 forward $200 $-1 #
edge $-1 $317 17.981029249863717 $212 21.806699947074911 $315 $433 forward 7 unknown #
vertex $-1 $316 $434 #
vertex $-1 $314 $435 #
straight-curve $-1 -37.874893848333031 -15.012158226352248 0 0 0 -1 I I #
coedge $-1 $428 $427 $207 $321 forward $422 $-1 #
edge $-1 $326 -8.0909130168664856 $323 8.0909130168664856 $320 $436 forward 7 unknown #
coedge $-1 $208 $424 $428 $437 forward $306 $-1 #
vertex $-1 $209 $438 #
straight-curve $-1 -41.700564545544225 -9.6093967327871912 -8.0909130168664856 0 1 0 I I #
coedge $-1 $308 $210 $427 $439 forward $200 $-1 #
vertex $-1 $439 $440 #
straight-curve $-1 -41.700564545544225 -9.6093967327871912 8.0909130168664856 0 -1 0 I I #
point $-1 -41.700564545544225 -15.012158226352248 8.0909130168664856 #
point $-1 -41.700564545544225 -15.012158226352248 -8.0909130168664856 #
face $-1 $-1 $343 $29 $-1 $441 reversed single #
loop $-1 $-1 $349 $215 #
plane-surface $-1 0 0 8.0909130168664856 0 0 1 1 0 0 forward_v I I I I #
coedge $-1 $224 $442 $334 $443 forward $216 $-1 #
coedge $-1 $444 $218 $333 $443 reversed $129 $-1 #
coedge $-1 $218 $444 $349 $445 reversed $129 $-1 #
edge $-1 $350 -8.0909130168664856 $347 8.0909130168664856 $218 $446 forward 7 unknown #
coedge $-1 $442 $224 $219 $338 forward $216 $-1 #
edge $-1 $229 5.4027614935650554 $344 13.816031972009323 $337 $447 forward 7 unknown #
coedge $-1 $226 $448 $220 $340 forward $331 $-1 #
edge $-1 $345 -13.816031972009323 $228 -5.4027614935650554 $339 $449 forward 7 unknown #
coedge $-1 $450 $221 $448 $451 reversed $343 $-1 #
coedge $-1 $221 $450 $442 $452 reversed $343 $-1 #
loop $-1 $-1 $450 $330 #
vertex $-1 $452 $453 #
vertex $-1 $222 $454 #
straight-curve $-1 -41.700564545544225 23.425428704796516 0 0 0 1 I I #
vertex $-1 $225 $455 #
straight-curve $-1 -19.893864598469314 15.012158226352245 -8.0909130168664856 -1 0 0 I I #
coedge $-1 $448 $226 $335 $445 forward $331 $-1 #
vertex $-1 $227 $456 #
straight-curve $-1 -19.893864598469314 15.012158226352245 8.0909130168664856 1 0 0 I I #
point $-1 -41.700564545544225 15.012158226352245 8.0909130168664856 #
point $-1 -41.700564545544225 15.012158226352245 -8.0909130168664856 #
plane-surface $-1 0 0 8.0909130168664856 0 0 1 1 0 0 forward_v I I I I #
coedge $-1 $365 $364 $357 $457 forward $232 $-1 #
coedge $-1 $357 $234 $236 $361 reversed $137 $-1 #
coedge $-1 $234 $356 $355 $457 reversed $137 $-1 #
coedge $-1 $242 $237 $234 $359 forward $243 $-1 #
edge $-1 $362 -13.958418759672014 $458 -6.0837085866896956 $358 $459 forward 7 unknown #
coedge $-1 $236 $235 $365 $460 reversed $85 $-1 #
edge $-1 $461 1.8033521786330445e-014 $362 9.9931507244275899 $356 $462 forward 7 unknown #
vertex $-1 $238 $463 #
straight-curve $-1 -44.724551279088367 5.8776814687411729 8.0909130168664838 0 1 0 I I #
coedge $-1 $355 $239 $242 $369 reversed $232 $-1 #
coedge $-1 $239 $355 $360 $460 forward $232 $-1 #
vertex $-1 $240 $464 #
straight-curve $-1 -52.599261452070678 8.4985676486124415 42.418040849500443 0 0 1 I I #
straight-curve $-1 -52.599261452070692 8.4985676486124415 1.9385150215595957 -0.78801074757464917 0 -0.61566148304635926 I I #
edge $-1 $458 -15.01215822635225 $244 -8.4985676486124415 $364 $465 forward 7 unknown #
point $-1 -52.599261452070678 8.4985676486124415 8.0909130168664856 #
point $-1 -44.724551279088359 8.4985676486124415 8.0909130168664838 #
edge $-1 $466 1 $466 0 $247 $-1 forward 7 unknown #
vertex $-1 $248 $467 #
ellipse-curve $-1 -48.046244882533152 9.8012857641604043 4.2267032716383888 -0.61566148304635926 0 0.78801074757464917 0.19700268689366229 0 0.15391537076158981 1 I I #
point $-1 -48.464903678685843 9.8012857641604043 5.1686293899746278 #
edge $-1 $468 1 $468 0 $251 $-1 forward 7 unknown #
vertex $-1 $252 $469 #
ellipse-curve $-1 -48.046244882533152 11.755362937482346 4.2267032716383888 -0.61566148304635926 0 0.78801074757464917 0.19700268689366229 0 0.15391537076158981 1 I I #
point $-1 -48.464903678685843 11.755362937482346 5.1686293899746278 #
edge $-1 $470 1 $470 0 $255 $-1 forward 7 unknown #
vertex $-1 $256 $471 #
ellipse-curve $-1 -48.046244882533152 13.709440110804287 4.2267032716383888 -0.61566148304635926 0 0.78801074757464917 0.19700268689366229 0 0.15391537076158981 1 I I #
point $-1 -48.464903678685843 13.709440110804287 5.1686293899746278 #
loop $-1 $-1 $267 $259 #
plane-surface $-1 52.599261452070678 0 0 -1 0 0 0 0 1 forward_v I I I I #
coedge $-1 $387 $262 $264 $391 reversed $166 $-1 #
coedge $-1 $262 $386 $472 $473 reversed $166 $-1 #
coedge $-1 $270 $265 $262 $389 forward $260 $-1 #
edge $-1 $392 33.826612384909701 $474 45.552296082015637 $388 $475 forward 7 unknown #
coedge $-1 $264 $263 $395 $476 reversed $104 $-1 #
edge $-1 $477 -105.19852290414137 $392 -91.658869565762615 $386 $478 forward 7 unknown #
vertex $-1 $266 $479 #
straight-curve $-1 40.873577754964735 3.9372422787295349 8.0909130168664909 0 -1 0 I I #
coedge $-1 $472 $267 $270 $399 reversed $384 $-1 #
coedge $-1 $267 $472 $390 $476 forward $384 $-1 #
vertex $-1 $268 $480 #
straight-curve $-1 52.599261452070678 11.131142179090482 72.512470641237414 0 0 1 I I #
straight-curve $-1 -38.505331416657768 11.131142179090482 53.920348413746396 0.8660253999169214 0 -0.50000000669873634 I I #
edge $-1 $474 4.617826935827658 $271 11.131142179090482 $394 $481 forward 7 unknown #
point $-1 52.599261452070678 11.131142179090482 8.0909130168664856 #
point $-1 40.873577754964742 11.131142179090482 8.0909130168664873 #
edge $-1 $482 1 $482 0 $274 $-1 forward 7 unknown #
vertex $-1 $275 $483 #
ellipse-curve $-1 46.048913872086331 7.8744845574590698 3.5152048008601202 0.50000000669873634 0 0.8660253999169214 0.8660253999169214 0 -0.50000000669873634 1 I I #
point $-1 47.602445003434617 7.8744845574590698 4.2059996302237916 #
plane-surface $-1 52.599261452070678 0 0 -1 0 0 0 0 1 forward_v I I I I #
coedge $-1 $283 $281 $285 $411 reversed $181 $-1 #
edge $-1 $296 -8.0909130168664856 $413 8.0909130168664856 $295 $484 forward 7 unknown #
vertex $-1 $411 $485 #
straight-curve $-1 -52.599261452070678 -23.425428704796516 0 0 0 -1 I I #
edge $-1 $409 -23.425428704796516 $413 23.425428704796516 $407 $486 forward 7 unknown #
straight-curve $-1 0 -23.425428704796516 -8.0909130168664856 -1 0 0 I I #
vertex $-1 $288 $487 #
straight-curve $-1 0 23.425428704796516 -8.0909130168664856 1 0 0 I I #
point $-1 52.599261452070678 23.425428704796516 -8.0909130168664856 #
point $-1 52.599261452070678 -23.425428704796516 -8.0909130168664856 #
straight-curve $-1 -52.599261452070678 0 8.0909130168664856 0 -1 0 I I #
point $-1 -52.599261452070678 23.425428704796516 8.0909130168664856 #
point $-1 -52.599261452070678 -23.425428704796516 8.0909130168664856 #
straight-curve $-1 52.599261452070678 -23.425428704796516 0 0 0 -1 I I #
straight-curve $-1 52.599261452070678 23.425428704796516 0 0 0 -1 I I #
loop $-1 $-1 $311 $305 #
plane-surface $-1 0 -23.425428704796516 0 0 1 0 0 0 1 forward_v I I I I #
coedge $-1 $322 $313 $309 $426 forward $306 $-1 #
edge $-1 $430 -13.816031972009325 $317 -5.4027614935650572 $308 $488 forward 7 unknown #
edge $-1 $318 5.4027614935650572 $429 13.816031972009325 $424 $489 forward 7 unknown #
coedge $-1 $320 $311 $325 $439 reversed $422 $-1 #
coedge $-1 $311 $320 $322 $437 reversed $422 $-1 #
vertex $-1 $437 $490 #
vertex $-1 $312 $491 #
straight-curve $-1 -37.874893848333031 -23.425428704796516 0 0 0 1 I I #
straight-curve $-1 -19.893864598469314 -15.012158226352248 -8.0909130168664856 1 0 0 I I #
straight-curve $-1 -19.893864598469314 -15.012158226352248 8.0909130168664856 -1 0 0 I I #
point $-1 -37.874893848333031 -15.012158226352248 8.0909130168664856 #
point $-1 -37.874893848333031 -15.012158226352248 -8.0909130168664856 #
straight-curve $-1 -41.700564545544225 -23.425428704796516 0 0 0 -1 I I #
edge $-1 $429 37.874893848333031 $323 41.700564545544225 $428 $492 forward 7 unknown #
point $-1 -41.700564545544225 -23.425428704796516 -8.0909130168664856 #
edge $-1 $326 -41.700564545544225 $430 -37.874893848333031 $427 $493 forward 7 unknown #
point $-1 -41.700564545544225 -23.425428704796516 8.0909130168664856 #
plane-surface $-1 0 23.425428704796516 0 0 -1 0 0 0 -1 forward_v I I I I #
coedge $-1 $333 $337 $342 $452 forward $216 $-1 #
edge $-1 $494 -13.816031972009323 $347 -5.4027614935650554 $333 $495 forward 7 unknown #
coedge $-1 $335 $334 $450 $496 reversed $129 $-1 #
edge $-1 $350 5.4027614935650554 $497 13.816031972009323 $349 $498 forward 7 unknown #
straight-curve $-1 -37.874893848333031 15.012158226352245 0 0 0 -1 I I #
straight-curve $-1 -41.700564545544225 9.6093967327871894 -8.0909130168664856 0 1 0 I I #
coedge $-1 $339 $349 $341 $451 forward $331 $-1 #
straight-curve $-1 -41.700564545544225 9.6093967327871894 8.0909130168664856 0 -1 0 I I #
coedge $-1 $342 $341 $444 $496 forward $343 $-1 #
edge $-1 $497 37.874893848333031 $345 41.700564545544225 $341 $499 forward 7 unknown #
edge $-1 $344 -41.700564545544225 $494 -37.874893848333031 $342 $500 forward 7 unknown #
point $-1 -41.700564545544225 23.425428704796513 -8.0909130168664856 #
point $-1 -41.700564545544225 23.425428704796513 8.0909130168664856 #
point $-1 -37.874893848333031 15.012158226352245 -8.0909130168664856 #
point $-1 -37.874893848333031 15.012158226352245 8.0909130168664856 #
edge $-1 $458 34.327127832633956 $461 40.479525827940833 $355 $501 forward 7 unknown #
vertex $-1 $369 $502 #
straight-curve $-1 -58.682970038760374 15.01215822635225 8.0909130168664873 -1 0 0 I I #
edge $-1 $461 -9.1344767576110772 $366 -2.6208861798712686 $365 $503 forward 7 unknown #
vertex $-1 $460 $504 #
straight-curve $-1 -52.599261452070692 15.01215822635225 1.9385150215595957 0.78801074757464917 0 0.61566148304635926 I I #
point $-1 -44.724551279088359 15.01215822635225 8.0909130168664838 #
point $-1 -52.599261452070678 8.4985676486124415 1.9385150215596068 #
straight-curve $-1 -52.599261452070678 0 8.0909130168664856 0 -1 0 I I #
vertex $-1 $372 $505 #
point $-1 -47.849242195639484 9.8012857641604043 4.3806186423999787 #
vertex $-1 $376 $506 #
point $-1 -47.849242195639484 11.755362937482346 4.3806186423999787 #
vertex $-1 $380 $507 #
point $-1 -47.849242195639484 13.709440110804287 4.3806186423999787 #
coedge $-1 $395 $394 $387 $473 forward $384 $-1 #
edge $-1 $474 64.421557624370934 $477 71.191384384258868 $472 $508 forward 7 unknown #
vertex $-1 $399 $509 #
straight-curve $-1 7.046965370055041 4.617826935827658 8.0909130168664802 1 0 0 I I #
edge $-1 $477 0.6805846570981231 $396 7.1938999003609467 $395 $510 forward 7 unknown #
vertex $-1 $476 $511 #
straight-curve $-1 -38.505331416657768 4.617826935827658 53.920348413746396 -0.8660253999169214 0 0.50000000669873634 I I #
point $-1 40.873577754964742 4.617826935827658 8.0909130168664873 #
point $-1 52.599261452070678 11.131142179090482 1.3210862569785391 #
straight-curve $-1 52.599261452070678 0 8.0909130168664856 0 1 0 I I #
vertex $-1 $402 $512 #
point $-1 46.914939272003252 7.8744845574590698 3.015204794161384 #
straight-curve $-1 -52.599261452070678 23.425428704796516 0 0 0 -1 I I #
point $-1 -52.599261452070678 -23.425428704796516 -8.0909130168664856 #
straight-curve $-1 -52.599261452070678 0 -8.0909130168664856 0 1 0 I I #
point $-1 -52.599261452070678 23.425428704796516 -8.0909130168664856 #
straight-curve $-1 -37.874893848333031 -9.6093967327871912 8.0909130168664856 0 1 0 I I #
straight-curve $-1 -37.874893848333031 -9.6093967327871912 -8.0909130168664856 0 -1 0 I I #
point $-1 -37.874893848333031 -23.425428704796516 -8.0909130168664856 #
point $-1 -37.874893848333031 -23.425428704796516 8.0909130168664856 #
straight-curve $-1 0 -23.425428704796516 -8.0909130168664856 -1 0 0 I I #
straight-curve $-1 0 -23.425428704796516 8.0909130168664856 1 0 0 I I #
vertex $-1 $496 $513 #
straight-curve $-1 -37.874893848333031 9.6093967327871894 -8.0909130168664856 0 -1 0 I I #
edge $-1 $497 -8.0909130168664856 $494 8.0909130168664856 $450 $514 forward 7 unknown #
vertex $-1 $451 $515 #
straight-curve $-1 -37.874893848333031 9.6093967327871894 8.0909130168664856 0 1 0 I I #
straight-curve $-1 0 23.425428704796516 8.0909130168664856 -1 0 0 I I #
straight-curve $-1 0 23.425428704796516 -8.0909130168664856 1 0 0 I I #
straight-curve $-1 -52.599261452070678 15.01215822635225 42.418040849500443 0 0 -1 I I #
point $-1 -52.599261452070678 15.01215822635225 8.0909130168664856 #
straight-curve $-1 -52.599261452070678 5.8776814687411729 1.938515021559607 0 -1 0 I I #
point $-1 -52.599261452070678 15.01215822635225 1.9385150215596068 #
point $-1 -47.892329511771557 9.8012857641604043 4.0297005847447274 #
point $-1 -47.892329511771557 11.755362937482346 4.0297005847447274 #
point $-1 -47.892329511771557 13.709440110804287 4.0297005847447274 #
straight-curve $-1 52.599261452070678 4.617826935827658 72.512470641237414 0 0 -1 I I #
point $-1 52.599261452070678 4.617826935827658 8.0909130168664856 #
straight-curve $-1 52.599261452070678 3.9372422787295349 1.3210862569785427 0 1 0 I I #
point $-1 52.599261452070678 4.617826935827658 1.3210862569785391 #
point $-1 45.54891386538759 7.8744845574590698 2.6491794009431988 #
point $-1 -37.874893848333031 23.425428704796513 -8.0909130168664856 #
straight-curve $-1 -37.874893848333031 23.425428704796516 0 0 0 -1 I I #
point $-1 -37.874893848333031 23.425428704796513 8.0909130168664856 #
End-of-ACIS-data 