500 0 6 0           
7 Unknown 11 ACIS 5.0 NT 24 Fri Mar 26 18:32:07 1999 
-1 9.9999999999999995e-007 1e-010 
body $-1 $6 $-1 $7 #
body $-1 $8 $-1 $9 #
body $-1 $10 $-1 $11 #
body $-1 $12 $-1 $13 #
body $-1 $14 $-1 $15 #
body $-1 $16 $-1 $17 #
lump $-1 $-1 $18 $0 #
transform $-1 1 0 0 0 1 0 0 0 1 75.804315317239912 50.989951873660125 13.356637926023119 1 rotate no_reflect no_shear #
lump $-1 $-1 $19 $1 #
transform $-1 1 0 0 0 1 0 0 0 1 75.804315317239912 50.989951873660125 13.356637926023119 1 rotate no_reflect no_shear #
lump $-1 $-1 $20 $2 #
transform $-1 1 0 0 0 1 0 0 0 1 75.804315317239912 50.989951873660125 13.356637926023119 1 rotate no_reflect no_shear #
lump $-1 $-1 $21 $3 #
transform $-1 1 0 0 0 1 0 0 0 1 75.804315317239912 50.989951873660125 13.356637926023119 1 rotate no_reflect no_shear #
lump $-1 $-1 $22 $4 #
transform $-1 1 0 0 0 1 0 0 0 1 75.804315317239912 50.989951873660125 13.356637926023119 1 rotate no_reflect no_shear #
lump $-1 $-1 $23 $5 #
transform $-1 1 0 0 0 1 0 0 0 1 75.804315317239912 50.989951873660125 13.356637926023119 1 rotate no_reflect no_shear #
shell $-1 $-1 $-1 $24 $-1 $6 #
shell $-1 $-1 $-1 $25 $-1 $8 #
shell $-1 $-1 $-1 $26 $-1 $10 #
shell $-1 $-1 $-1 $27 $-1 $12 #
shell $-1 $-1 $-1 $28 $-1 $14 #
shell $-1 $-1 $-1 $29 $-1 $16 #
face $-1 $30 $31 $18 $-1 $32 forward single #
face $-1 $33 $34 $19 $-1 $35 forward single #
face $-1 $36 $37 $20 $-1 $38 reversed single #
face $-1 $39 $40 $21 $-1 $41 forward single #
face $-1 $42 $43 $22 $-1 $44 forward single #
face $-1 $45 $46 $23 $-1 $47 forward single #
face $-1 $48 $49 $18 $-1 $50 reversed single #
loop $-1 $-1 $51 $24 #
plane-surface $-1 0 0 13.356637926023119 0 0 1 1 0 0 forward_v I I I I #
face $-1 $52 $53 $19 $-1 $54 reversed single #
loop $-1 $-1 $55 $25 #
plane-surface $-1 0 -50.989951873660125 0 0 1 0 0 0 1 forward_v I I I I #
face $-1 $56 $57 $20 $-1 $58 reversed single #
loop $-1 $-1 $59 $26 #
plane-surface $-1 49.410338650032358 98.505603457935251 183.92468463539612 1 0 0 0 -0.75470958851134928 -0.65605901945558964 forward_v I I I I #
face $-1 $60 $61 $21 $-1 $62 forward single #
loop $-1 $63 $64 $27 #
cone-surface $-1 54.689133983473852 47.799199204361628 9.8668731752935042 0 -0.75470958851134928 -0.65605901945558964 1.5 0 0 1 I I 0 1 1.5 forward I I I I #
face $-1 $65 $66 $22 $-1 $67 forward single #
loop $-1 $68 $69 $28 #
cone-surface $-1 62.607326983636113 47.799199204361628 9.8668731752935042 0 -0.75470958851134928 -0.65605901945558964 1.5 0 0 1 I I 0 1 1.5 forward I I I I #
face $-1 $70 $71 $23 $-1 $72 forward single #
loop $-1 $73 $74 $29 #
cone-surface $-1 70.525519983798375 47.799199204361628 9.8668731752935042 0 -0.75470958851134928 -0.65605901945558964 1.5 0 0 1 I I 0 1 1.5 forward I I I I #
face $-1 $75 $76 $18 $-1 $77 reversed single #
loop $-1 $-1 $78 $30 #
plane-surface $-1 0 0 -13.356637926023119 0 0 1 1 0 0 forward_v I I I I #
coedge $-1 $79 $80 $81 $82 forward $31 $-1 #
face $-1 $83 $84 $19 $-1 $85 forward single #
loop $-1 $-1 $86 $33 #
plane-surface $-1 -75.804315317239912 0 0 1 0 0 0 0 -1 forward_v I I I I #
coedge $-1 $87 $88 $89 $90 forward $34 $-1 #
face $-1 $91 $92 $20 $-1 $93 forward single #
loop $-1 $-1 $94 $36 #
plane-surface $-1 62.607326983636142 -15.914883782982159 84.460475080334618 0 0.75470958851134928 0.65605901945558964 1 0 0 forward_v I I I I #
coedge $-1 $95 $96 $97 $98 reversed $37 $-1 #
face $-1 $-1 $99 $21 $-1 $100 forward single #
loop $-1 $101 $102 $39 #
cone-surface $-1 54.689133983473852 46.590021637527222 8.8157511795999923 0 -0.75470958851134928 -0.65605901945558964 0.75 0 0 1 I I -0.70710678118654757 0.70710678118654757 0.75 forward I I I I #
loop $-1 $-1 $103 $27 #
coedge $-1 $64 $64 $104 $105 reversed $40 $-1 #
face $-1 $-1 $106 $22 $-1 $107 forward single #
loop $-1 $108 $109 $42 #
cone-surface $-1 62.607326983636113 46.590021637527222 8.8157511795999923 0 -0.75470958851134928 -0.65605901945558964 0.75 0 0 1 I I -0.70710678118654757 0.70710678118654757 0.75 forward I I I I #
loop $-1 $-1 $110 $28 #
coedge $-1 $69 $69 $111 $112 reversed $43 $-1 #
face $-1 $-1 $113 $23 $-1 $114 forward single #
loop $-1 $115 $116 $45 #
cone-surface $-1 70.525519983798375 46.590021637527222 8.8157511795999923 0 -0.75470958851134928 -0.65605901945558964 0.75 0 0 1 I I -0.70710678118654757 0.70710678118654757 0.75 forward I I I I #
loop $-1 $-1 $117 $29 #
coedge $-1 $74 $74 $118 $119 reversed $46 $-1 #
face $-1 $120 $121 $18 $-1 $122 reversed single #
loop $-1 $-1 $123 $48 #
plane-surface $-1 0 -50.989951873660125 0 0 1 0 0 0 1 forward_v I I I I #
coedge $-1 $124 $125 $126 $127 forward $49 $-1 #
coedge $-1 $128 $51 $129 $130 forward $31 $-1 #
coedge $-1 $51 $128 $131 $132 forward $31 $-1 #
coedge $-1 $133 $134 $51 $82 reversed $135 $-1 #
edge $-1 $136 -50.989951873660125 $137 50.989951873660125 $81 $138 forward 7 unknown #
face $-1 $139 $140 $19 $-1 $141 reversed single #
loop $-1 $-1 $142 $52 #
plane-surface $-1 0 -57.333733260882411 0.98368602089363044 0 0 1 1 0 0 forward_v I I I I #
coedge $-1 $143 $144 $88 $145 forward $53 $-1 #
coedge $-1 $146 $55 $147 $148 reversed $34 $-1 #
coedge $-1 $55 $146 $86 $145 reversed $34 $-1 #
coedge $-1 $149 $142 $55 $90 reversed $84 $-1 #
edge $-1 $150 -75.804315317239912 $151 75.804315317239912 $89 $152 forward 7 unknown #
face $-1 $153 $154 $20 $-1 $155 reversed single #
loop $-1 $-1 $97 $56 #
plane-surface $-1 0 0 13.356637926023119 0 0 1 1 0 0 forward_v I I I I #
coedge $-1 $156 $157 $158 $159 reversed $57 $-1 #
coedge $-1 $96 $59 $160 $161 reversed $37 $-1 #
coedge $-1 $59 $95 $156 $162 reversed $37 $-1 #
coedge $-1 $158 $163 $59 $98 forward $92 $-1 #
edge $-1 $164 -1.7371501446924995 $165 3.3580644430026396 $97 $166 forward 7 unknown #
loop $-1 $-1 $104 $60 #
plane-surface $-1 62.607326983636142 -15.914883782982159 84.460475080334618 0 0.75470958851134928 0.65605901945558964 1 0 0 forward_v I I I I #
loop $-1 $-1 $167 $39 #
coedge $-1 $102 $102 $103 $168 reversed $61 $-1 #
coedge $-1 $103 $103 $102 $168 forward $63 $-1 #
coedge $-1 $104 $104 $64 $105 forward $99 $-1 #
edge $-1 $169 -3.4475223792049764e-016 $169 6.2831853071796004 $104 $170 forward 7 unknown #
loop $-1 $-1 $111 $65 #
plane-surface $-1 62.607326983636142 -15.914883782982159 84.460475080334618 0 0.75470958851134928 0.65605901945558964 1 0 0 forward_v I I I I #
loop $-1 $-1 $171 $42 #
coedge $-1 $109 $109 $110 $172 reversed $66 $-1 #
coedge $-1 $110 $110 $109 $172 forward $68 $-1 #
coedge $-1 $111 $111 $69 $112 forward $106 $-1 #
edge $-1 $173 -3.4475223792049764e-016 $173 6.2831853071796004 $111 $174 forward 7 unknown #
loop $-1 $-1 $118 $70 #
plane-surface $-1 62.607326983636142 -15.914883782982159 84.460475080334618 0 0.75470958851134928 0.65605901945558964 1 0 0 forward_v I I I I #
loop $-1 $-1 $175 $45 #
coedge $-1 $116 $116 $117 $176 reversed $71 $-1 #
coedge $-1 $117 $117 $116 $176 forward $73 $-1 #
coedge $-1 $118 $118 $74 $119 forward $113 $-1 #
edge $-1 $177 -3.4475223792049764e-016 $177 6.2831853071796004 $118 $178 forward 7 unknown #
face $-1 $179 $180 $18 $-1 $181 reversed single #
loop $-1 $-1 $182 $75 #
plane-surface $-1 -75.804315317239912 0 0 1 0 0 0 0 -1 forward_v I I I I #
coedge $-1 $183 $131 $184 $185 forward $76 $-1 #
coedge $-1 $186 $78 $183 $187 forward $49 $-1 #
coedge $-1 $78 $186 $188 $189 forward $49 $-1 #
coedge $-1 $134 $133 $78 $127 reversed $135 $-1 #
edge $-1 $190 -50.989951873660125 $191 50.989951873660125 $126 $192 forward 7 unknown #
coedge $-1 $80 $79 $193 $194 forward $31 $-1 #
coedge $-1 $195 $196 $79 $130 reversed $180 $-1 #
edge $-1 $137 -75.804315317239912 $197 75.804315317239912 $129 $198 forward 7 unknown #
coedge $-1 $123 $199 $80 $132 reversed $76 $-1 #
edge $-1 $200 -75.804315317239912 $136 75.804315317239912 $131 $201 forward 7 unknown #
coedge $-1 $126 $81 $199 $202 forward $135 $-1 #
coedge $-1 $81 $126 $195 $203 reversed $135 $-1 #
loop $-1 $-1 $133 $179 #
vertex $-1 $82 $204 #
vertex $-1 $82 $205 #
straight-curve $-1 75.804315317239912 0 13.356637926023119 0 1 0 I I #
face $-1 $206 $207 $19 $-1 $208 reversed single #
loop $-1 $-1 $209 $83 #
plane-surface $-1 0 -57.333733260882411 -5.2173452030029512 0 0 1 1 0 0 forward_v I I I I #
coedge $-1 $89 $210 $211 $212 forward $84 $-1 #
coedge $-1 $213 $86 $214 $215 reversed $53 $-1 #
coedge $-1 $86 $213 $149 $216 reversed $53 $-1 #
edge $-1 $150 -0.98368602089363044 $217 5.2173452030029512 $86 $218 forward 7 unknown #
coedge $-1 $88 $87 $219 $220 forward $34 $-1 #
coedge $-1 $211 $221 $87 $148 forward $222 $-1 #
edge $-1 $223 -5.2173452030029512 $151 0.98368602089363044 $147 $224 forward 7 unknown #
coedge $-1 $210 $89 $144 $216 forward $84 $-1 #
vertex $-1 $145 $225 #
vertex $-1 $212 $226 #
straight-curve $-1 0 -50.989951873660125 0.98368602089363044 1 0 0 I I #
face $-1 $-1 $227 $20 $-1 $228 reversed single #
loop $-1 $-1 $229 $91 #
plane-surface $-1 75.804315317239912 0 0 -1 0 0 0 0 1 forward_v I I I I #
coedge $-1 $230 $94 $96 $162 forward $57 $-1 #
coedge $-1 $94 $230 $229 $231 reversed $57 $-1 #
coedge $-1 $232 $97 $94 $159 forward $92 $-1 #
edge $-1 $165 18.106675158214287 $233 44.500651825421855 $158 $234 forward 7 unknown #
coedge $-1 $235 $236 $95 $161 forward $227 $-1 #
edge $-1 $237 -84.467078430930457 $164 -78.605704391674948 $160 $238 forward 7 unknown #
edge $-1 $165 94.21350707172347 $237 101.97990374732019 $96 $239 forward 7 unknown #
coedge $-1 $97 $232 $235 $240 forward $92 $-1 #
vertex $-1 $161 $241 #
vertex $-1 $98 $242 #
straight-curve $-1 49.410338650032358 49.252801728967626 13.356637926023126 0 -1 0 I I #
coedge $-1 $167 $167 $-1 $243 reversed $101 $-1 #
edge $-1 $244 0 $244 6.2831853071796004 $102 $245 forward 7 unknown #
vertex $-1 $105 $246 #
ellipse-curve $-1 54.689133983473852 48.442344579812563 10.425950906395354 0 0.75470958851134928 0.65605901945558964 1.5 0 0 1 I I #
coedge $-1 $171 $171 $-1 $247 reversed $108 $-1 #
edge $-1 $248 0 $248 6.2831853071796004 $109 $249 forward 7 unknown #
vertex $-1 $112 $250 #
ellipse-curve $-1 62.607326983636113 48.442344579812563 10.425950906395354 0 0.75470958851134928 0.65605901945558964 1.5 0 0 1 I I #
coedge $-1 $175 $175 $-1 $251 reversed $115 $-1 #
edge $-1 $252 0 $252 6.2831853071796004 $116 $253 forward 7 unknown #
vertex $-1 $119 $254 #
ellipse-curve $-1 70.525519983798375 48.442344579812563 10.425950906395354 0 0.75470958851134928 0.65605901945558964 1.5 0 0 1 I I #
face $-1 $-1 $135 $18 $-1 $255 reversed single #
loop $-1 $-1 $195 $120 #
plane-surface $-1 0 50.989951873660125 0 0 -1 0 0 0 -1 forward_v I I I I #
coedge $-1 $256 $193 $196 $257 forward $121 $-1 #
coedge $-1 $199 $123 $124 $187 reversed $76 $-1 #
coedge $-1 $193 $256 $123 $185 reversed $121 $-1 #
edge $-1 $200 -13.356637926023119 $258 13.356637926023119 $184 $259 forward 7 unknown #
coedge $-1 $125 $124 $256 $260 forward $49 $-1 #
edge $-1 $191 -75.804315317239912 $258 75.804315317239912 $183 $261 forward 7 unknown #
coedge $-1 $196 $195 $125 $189 reversed $180 $-1 #
edge $-1 $262 -75.804315317239912 $190 75.804315317239912 $188 $263 forward 7 unknown #
vertex $-1 $127 $264 #
vertex $-1 $202 $265 #
straight-curve $-1 75.804315317239912 0 -13.356637926023119 0 -1 0 I I #
coedge $-1 $182 $184 $128 $194 reversed $121 $-1 #
edge $-1 $197 -50.989951873660125 $200 50.989951873660125 $193 $266 forward 7 unknown #
coedge $-1 $188 $129 $134 $203 forward $180 $-1 #
coedge $-1 $129 $188 $182 $257 reversed $180 $-1 #
vertex $-1 $130 $267 #
straight-curve $-1 0 50.989951873660125 13.356637926023119 -1 0 0 I I #
coedge $-1 $131 $183 $133 $202 reversed $76 $-1 #
vertex $-1 $194 $268 #
straight-curve $-1 0 -50.989951873660125 13.356637926023119 1 0 0 I I #
edge $-1 $136 -13.356637926023119 $191 13.356637926023119 $133 $269 forward 7 unknown #
edge $-1 $137 -13.356637926023119 $190 13.356637926023119 $134 $270 forward 7 unknown #
point $-1 75.804315317239912 -50.989951873660125 13.356637926023119 #
point $-1 75.804315317239912 50.989951873660125 13.356637926023119 #
face $-1 $-1 $222 $19 $-1 $271 reversed single #
loop $-1 $-1 $272 $139 #
plane-surface $-1 0 -63.677514648104697 -2.1168295910546604 0 1 0 0 0 1 forward_v I I I I #
coedge $-1 $273 $219 $221 $274 forward $140 $-1 #
coedge $-1 $142 $149 $275 $276 forward $84 $-1 #
coedge $-1 $277 $147 $142 $212 reversed $222 $-1 #
edge $-1 $278 -6.3437813872222861 $151 6.3437813872222861 $211 $279 forward 7 unknown #
coedge $-1 $144 $143 $272 $280 reversed $53 $-1 #
coedge $-1 $219 $273 $143 $215 forward $140 $-1 #
edge $-1 $281 -6.3437813872222861 $217 6.3437813872222861 $143 $282 forward 7 unknown #
edge $-1 $150 -6.3437813872222861 $283 6.3437813872222861 $144 $284 forward 7 unknown #
vertex $-1 $145 $285 #
straight-curve $-1 -75.804315317239912 -50.989951873660125 0 0 0 -1 I I #
coedge $-1 $209 $214 $146 $220 reversed $140 $-1 #
edge $-1 $223 -75.804315317239912 $217 75.804315317239912 $219 $286 forward 7 unknown #
coedge $-1 $147 $277 $209 $274 reversed $222 $-1 #
loop $-1 $-1 $147 $206 #
vertex $-1 $148 $287 #
straight-curve $-1 75.804315317239912 -50.989951873660125 0 0 0 1 I I #
point $-1 -75.804315317239912 -50.989951873660125 0.98368602089363044 #
point $-1 75.804315317239912 -50.989951873660125 0.98368602089363044 #
loop $-1 $-1 $160 $153 #
plane-surface $-1 0 50.989951873660125 0 0 -1 0 0 0 -1 forward_v I I I I #
coedge $-1 $288 $289 $157 $231 forward $154 $-1 #
coedge $-1 $157 $156 $236 $290 reversed $57 $-1 #
edge $-1 $233 57.121390350340761 $291 64.887787025937513 $229 $292 forward 7 unknown #
coedge $-1 $163 $158 $289 $293 forward $92 $-1 #
vertex $-1 $293 $294 #
straight-curve $-1 31.303663491818071 45.894737285964993 13.356637926023119 1 0 0 I I #
coedge $-1 $295 $160 $163 $240 reversed $227 $-1 #
coedge $-1 $160 $295 $230 $290 forward $227 $-1 #
vertex $-1 $161 $296 #
straight-curve $-1 49.410338650032358 50.989951873660125 91.962342317698059 0 0 1 I I #
straight-curve $-1 49.410338650032358 -15.914883782982159 84.460475080334618 0 0.65605901945558964 -0.75470958851134928 I I #
edge $-1 $297 -75.804315317239912 $164 -49.410338650032358 $235 $298 forward 7 unknown #
point $-1 49.410338650032358 50.989951873660125 13.356637926023119 #
point $-1 49.410338650032358 45.894737285964986 13.356637926023126 #
edge $-1 $299 1 $299 0 $167 $-1 forward 7 unknown #
vertex $-1 $168 $300 #
ellipse-curve $-1 54.689133983473852 47.156053828910736 9.3077954441916848 0 0.75470958851134928 0.65605901945558964 1.5 0 0 1 I I #
point $-1 56.189133983473852 48.442344579812527 10.425950906395324 #
edge $-1 $301 1 $301 0 $171 $-1 forward 7 unknown #
vertex $-1 $172 $302 #
ellipse-curve $-1 62.607326983636113 47.156053828910736 9.3077954441916848 0 0.75470958851134928 0.65605901945558964 1.5 0 0 1 I I #
point $-1 64.107326983636113 48.442344579812527 10.425950906395324 #
edge $-1 $303 1 $303 0 $175 $-1 forward 7 unknown #
vertex $-1 $176 $304 #
ellipse-curve $-1 70.525519983798375 47.156053828910736 9.3077954441916848 0 0.75470958851134928 0.65605901945558964 1.5 0 0 1 I I #
point $-1 72.025519983798375 48.442344579812527 10.425950906395324 #
plane-surface $-1 75.804315317239912 0 0 -1 0 0 0 0 1 forward_v I I I I #
coedge $-1 $184 $182 $186 $260 reversed $121 $-1 #
edge $-1 $197 -13.356637926023119 $262 13.356637926023119 $196 $305 forward 7 unknown #
vertex $-1 $260 $306 #
straight-curve $-1 -75.804315317239912 -50.989951873660125 0 0 0 -1 I I #
edge $-1 $258 -50.989951873660125 $262 50.989951873660125 $256 $307 forward 7 unknown #
straight-curve $-1 0 -50.989951873660125 -13.356637926023119 -1 0 0 I I #
vertex $-1 $189 $308 #
straight-curve $-1 0 50.989951873660125 -13.356637926023119 1 0 0 I I #
point $-1 75.804315317239912 50.989951873660125 -13.356637926023119 #
point $-1 75.804315317239912 -50.989951873660125 -13.356637926023119 #
straight-curve $-1 -75.804315317239912 0 13.356637926023119 0 -1 0 I I #
point $-1 -75.804315317239912 50.989951873660125 13.356637926023119 #
point $-1 -75.804315317239912 -50.989951873660125 13.356637926023119 #
straight-curve $-1 75.804315317239912 -50.989951873660125 0 0 0 -1 I I #
straight-curve $-1 75.804315317239912 50.989951873660125 0 0 0 -1 I I #
plane-surface $-1 75.804315317239912 0 0 -1 0 0 0 0 1 forward_v I I I I #
coedge $-1 $309 $275 $213 $280 forward $207 $-1 #
coedge $-1 $214 $209 $309 $310 forward $140 $-1 #
edge $-1 $223 -6.3437813872222861 $311 6.3437813872222861 $221 $312 forward 7 unknown #
coedge $-1 $272 $313 $210 $276 reversed $207 $-1 #
edge $-1 $283 -75.804315317239912 $278 75.804315317239912 $275 $314 forward 7 unknown #
coedge $-1 $221 $211 $313 $315 forward $222 $-1 #
vertex $-1 $212 $316 #
straight-curve $-1 75.804315317239912 -57.333733260882411 0.98368602089363044 0 1 0 I I #
edge $-1 $283 -3.1005156119482908 $281 3.1005156119482908 $213 $317 forward 7 unknown #
vertex $-1 $215 $318 #
straight-curve $-1 -75.804315317239912 -57.333733260882411 -5.2173452030029512 0 1 0 I I #
vertex $-1 $216 $319 #
straight-curve $-1 -75.804315317239912 -57.333733260882411 0.98368602089363044 0 -1 0 I I #
point $-1 -75.804315317239912 -50.989951873660125 -5.2173452030029512 #
straight-curve $-1 0 -50.989951873660125 -5.2173452030029512 -1 0 0 I I #
point $-1 75.804315317239912 -50.989951873660125 -5.2173452030029512 #
coedge $-1 $289 $229 $295 $320 reversed $154 $-1 #
coedge $-1 $229 $288 $232 $293 reversed $154 $-1 #
edge $-1 $291 -44.500651825421855 $237 -18.106675158214287 $236 $321 forward 7 unknown #
vertex $-1 $231 $322 #
straight-curve $-1 75.804315317239912 8.4197339427804394 56.466698932524956 0 0.65605901945558975 -0.75470958851134939 I I #
edge $-1 $233 45.894737285964986 $297 50.989951873660125 $289 $323 forward 7 unknown #
point $-1 75.804315317239926 45.894737285964986 13.356637926023126 #
coedge $-1 $236 $235 $288 $320 forward $227 $-1 #
point $-1 49.410338650032358 50.989951873660132 7.4952638867676029 #
vertex $-1 $293 $324 #
straight-curve $-1 0 50.989951873660125 13.356637926023119 -1 0 0 I I #
vertex $-1 $243 $325 #
point $-1 56.189133983473852 47.156053828910736 9.3077954441916848 #
vertex $-1 $247 $326 #
point $-1 64.107326983636113 47.156053828910736 9.3077954441916848 #
vertex $-1 $251 $327 #
point $-1 72.025519983798375 47.156053828910736 9.3077954441916848 #
straight-curve $-1 -75.804315317239912 50.989951873660125 0 0 0 -1 I I #
point $-1 -75.804315317239912 -50.989951873660125 -13.356637926023119 #
straight-curve $-1 -75.804315317239912 0 -13.356637926023119 0 1 0 I I #
point $-1 -75.804315317239912 50.989951873660125 -13.356637926023119 #
coedge $-1 $313 $272 $273 $310 reversed $207 $-1 #
edge $-1 $311 -75.804315317239912 $281 75.804315317239912 $309 $328 forward 7 unknown #
vertex $-1 $315 $329 #
straight-curve $-1 75.804315317239912 -57.333733260882411 -5.2173452030029512 0 -1 0 I I #
coedge $-1 $275 $309 $277 $315 reversed $207 $-1 #
straight-curve $-1 0 -63.677514648104697 0.98368602089363044 1 0 0 I I #
edge $-1 $278 -3.1005156119482908 $311 3.1005156119482908 $277 $330 forward 7 unknown #
point $-1 75.804315317239912 -63.677514648104697 0.98368602089363044 #
straight-curve $-1 -75.804315317239912 -63.677514648104697 -2.1168295910546604 0 0 -1 I I #
point $-1 -75.804315317239912 -63.677514648104697 -5.2173452030029512 #
point $-1 -75.804315317239912 -63.677514648104697 0.98368602089363044 #
edge $-1 $297 -13.356637926023119 $291 -7.4952638867676029 $288 $331 forward 7 unknown #
straight-curve $-1 31.303663491818071 50.989951873660125 7.4952638867675958 -1 0 0 I I #
point $-1 75.804315317239926 50.989951873660132 7.4952638867676029 #
straight-curve $-1 75.804315317239912 0 13.356637926023119 0 1 0 I I #
point $-1 75.804315317239912 50.989951873660125 13.356637926023119 #
point $-1 54.689133983473852 46.023989446143709 8.3237069150082998 #
point $-1 62.607326983636113 46.023989446143709 8.3237069150082998 #
point $-1 70.525519983798375 46.023989446143709 8.3237069150082998 #
straight-curve $-1 0 -63.677514648104697 -5.2173452030029512 -1 0 0 I I #
point $-1 75.804315317239912 -63.677514648104697 -5.2173452030029512 #
straight-curve $-1 75.804315317239912 -63.677514648104697 -2.1168295910546604 0 0 -1 I I #
straight-curve $-1 75.804315317239912 50.989951873660125 0 0 0 -1 I I #
End-of-ACIS-data 