500 0 10 0           
7 Unknown 11 ACIS 5.0 NT 24 Fri Mar 26 00:26:35 1999 
-1 9.9999999999999995e-007 1e-010 
body $-1 $10 $-1 $11 #
body $-1 $12 $-1 $13 #
body $-1 $14 $-1 $15 #
body $-1 $16 $-1 $17 #
body $-1 $18 $-1 $19 #
body $-1 $20 $-1 $21 #
body $-1 $22 $-1 $23 #
body $-1 $24 $-1 $25 #
body $-1 $26 $-1 $27 #
body $-1 $28 $-1 $29 #
lump $-1 $-1 $30 $0 #
transform $-1 1 0 0 0 1 0 0 0 1 70.850550859096046 29.453996970962265 7.3505102521027181 1 rotate no_reflect no_shear #
lump $-1 $-1 $31 $1 #
transform $-1 1 0 0 0 1 0 0 0 1 70.850550859096046 29.453996970962265 7.3505102521027181 1 rotate no_reflect no_shear #
lump $-1 $-1 $32 $2 #
transform $-1 1 0 0 0 1 0 0 0 1 70.850550859096046 29.453996970962265 7.3505102521027181 1 rotate no_reflect no_shear #
lump $-1 $-1 $33 $3 #
transform $-1 1 0 0 0 1 0 0 0 1 70.850550859096046 29.453996970962265 7.3505102521027181 1 rotate no_reflect no_shear #
lump $-1 $-1 $34 $4 #
transform $-1 1 0 0 0 1 0 0 0 1 70.850550859096046 29.453996970962265 7.3505102521027181 1 rotate no_reflect no_shear #
lump $-1 $-1 $35 $5 #
transform $-1 1 0 0 0 1 0 0 0 1 70.850550859096046 29.453996970962265 7.3505102521027181 1 rotate no_reflect no_shear #
lump $-1 $-1 $36 $6 #
transform $-1 1 0 0 0 1 0 0 0 1 70.850550859096046 29.453996970962265 7.3505102521027181 1 rotate no_reflect no_shear #
lump $-1 $-1 $37 $7 #
transform $-1 1 0 0 0 1 0 0 0 1 70.850550859096046 29.453996970962265 7.3505102521027181 1 rotate no_reflect no_shear #
lump $-1 $-1 $38 $8 #
transform $-1 1 0 0 0 1 0 0 0 1 70.850550859096046 29.453996970962265 7.3505102521027181 1 rotate no_reflect no_shear #
lump $-1 $-1 $39 $9 #
transform $-1 1 0 0 0 1 0 0 0 1 70.850550859096046 29.453996970962265 7.3505102521027181 1 rotate no_reflect no_shear #
shell $-1 $-1 $-1 $40 $-1 $10 #
shell $-1 $-1 $-1 $41 $-1 $12 #
shell $-1 $-1 $-1 $42 $-1 $14 #
shell $-1 $-1 $-1 $43 $-1 $16 #
shell $-1 $-1 $-1 $44 $-1 $18 #
shell $-1 $-1 $-1 $45 $-1 $20 #
shell $-1 $-1 $-1 $46 $-1 $22 #
shell $-1 $-1 $-1 $47 $-1 $24 #
shell $-1 $-1 $-1 $48 $-1 $26 #
shell $-1 $-1 $-1 $49 $-1 $28 #
face $-1 $50 $51 $30 $-1 $52 forward single #
face $-1 $53 $54 $31 $-1 $55 reversed single #
face $-1 $56 $57 $32 $-1 $58 reversed single #
face $-1 $59 $60 $33 $-1 $61 forward single #
face $-1 $62 $63 $34 $-1 $64 forward single #
face $-1 $65 $66 $35 $-1 $67 forward single #
face $-1 $68 $69 $36 $-1 $70 reversed single #
face $-1 $71 $72 $37 $-1 $73 forward single #
face $-1 $74 $75 $38 $-1 $76 forward single #
face $-1 $77 $78 $39 $-1 $79 forward single #
face $-1 $80 $81 $30 $-1 $82 reversed single #
loop $-1 $-1 $83 $40 #
plane-surface $-1 0 0 7.3505102521027181 0 0 1 1 0 0 forward_v I I I I #
face $-1 $84 $85 $31 $-1 $86 reversed single #
loop $-1 $-1 $87 $41 #
plane-surface $-1 -68.361366637626432 0 4.3505102521027181 0 0 1 1 0 0 forward_v I I I I #
face $-1 $88 $89 $32 $-1 $90 reversed single #
loop $-1 $-1 $91 $42 #
plane-surface $-1 -51.856923503279631 -114.73184986177101 115.70186536593691 -1 0 0 0 -0.6018150307709319 0.79863550430605224 forward_v I I I I #
face $-1 $92 $93 $33 $-1 $94 forward single #
loop $-1 $95 $96 $43 #
cone-surface $-1 -63.069130633581381 -25.88834504831102 4.4514006070633112 0 0.6018150307709319 -0.79863550430605224 0.5 0 0 1 I I 0 1 0.5 forward I I I I #
face $-1 $97 $98 $34 $-1 $99 forward single #
loop $-1 $100 $101 $44 #
cone-surface $-1 -58.864552959718225 -25.88834504831102 4.4514006070633112 0 0.6018150307709319 -0.79863550430605224 0.5 0 0 1 I I 0 1 0.5 forward I I I I #
face $-1 $102 $103 $35 $-1 $104 forward single #
loop $-1 $105 $106 $45 #
cone-surface $-1 -54.659975285855069 -25.88834504831102 4.4514006070633112 0 0.6018150307709319 -0.79863550430605224 0.5 0 0 1 I I 0 1 0.5 forward I I I I #
face $-1 $107 $108 $36 $-1 $109 reversed single #
loop $-1 $-1 $110 $46 #
plane-surface $-1 -58.864552959718225 -17.592018478504485 37.986050721318549 0 0.6018150307709319 0.79863550430605224 1 0 0 forward_v I I I I #
face $-1 $111 $112 $37 $-1 $113 forward single #
loop $-1 $114 $115 $47 #
cone-surface $-1 -63.069130633581381 25.888345048311017 4.4514006070633041 0 -0.6018150307709319 -0.79863550430605224 0.5 0 0 1 I I 0 1 0.5 forward I I I I #
face $-1 $116 $117 $38 $-1 $118 forward single #
loop $-1 $119 $120 $48 #
cone-surface $-1 -58.864552959718225 25.888345048311017 4.4514006070633041 0 -0.6018150307709319 -0.79863550430605224 0.5 0 0 1 I I 0 1 0.5 forward I I I I #
face $-1 $121 $122 $39 $-1 $123 forward single #
loop $-1 $124 $125 $49 #
cone-surface $-1 -54.659975285855069 25.888345048311017 4.4514006070633041 0 -0.6018150307709319 -0.79863550430605224 0.5 0 0 1 I I 0 1 0.5 forward I I I I #
face $-1 $126 $127 $30 $-1 $128 reversed single #
loop $-1 $-1 $129 $50 #
plane-surface $-1 0 0 -7.3505102521027181 0 0 1 1 0 0 forward_v I I I I #
coedge $-1 $130 $131 $132 $133 forward $51 $-1 #
face $-1 $134 $135 $31 $-1 $136 reversed single #
loop $-1 $-1 $137 $53 #
plane-surface $-1 -65.872182416156818 0 5.8505102521027181 -1 0 0 0 0 1 forward_v I I I I #
coedge $-1 $138 $139 $140 $141 forward $54 $-1 #
face $-1 $142 $143 $32 $-1 $144 forward single #
loop $-1 $-1 $145 $56 #
plane-surface $-1 -58.864552959718225 -29.45399697096228 2.5343345345053621 0 -0.6018150307709319 0.79863550430605224 1 0 0 forward_v I I I I #
coedge $-1 $146 $147 $148 $149 reversed $57 $-1 #
face $-1 $-1 $150 $33 $-1 $151 forward single #
loop $-1 $152 $153 $59 #
cone-surface $-1 -63.069130633581381 -25.367879827563652 3.760719944746076 0 0.6018150307709319 -0.79863550430605224 0.25 0 0 1 I I -0.70710678118654746 0.70710678118654746 0.25 forward I I I I #
loop $-1 $-1 $154 $43 #
coedge $-1 $96 $96 $155 $156 reversed $60 $-1 #
face $-1 $-1 $157 $34 $-1 $158 forward single #
loop $-1 $159 $160 $62 #
cone-surface $-1 -58.864552959718225 -25.367879827563652 3.760719944746076 0 0.6018150307709319 -0.79863550430605224 0.25 0 0 1 I I -0.70710678118654746 0.70710678118654746 0.25 forward I I I I #
loop $-1 $-1 $161 $44 #
coedge $-1 $101 $101 $162 $163 reversed $63 $-1 #
face $-1 $-1 $164 $35 $-1 $165 forward single #
loop $-1 $166 $167 $65 #
cone-surface $-1 -54.659975285855069 -25.367879827563652 3.760719944746076 0 0.6018150307709319 -0.79863550430605224 0.25 0 0 1 I I -0.70710678118654746 0.70710678118654746 0.25 forward I I I I #
loop $-1 $-1 $168 $45 #
coedge $-1 $106 $106 $169 $170 reversed $66 $-1 #
face $-1 $171 $172 $36 $-1 $173 forward single #
loop $-1 $-1 $174 $68 #
plane-surface $-1 -51.856923503279631 67.685834412304246 151.1535815527501 -1 0 0 0 0.6018150307709319 0.79863550430605224 forward_v I I I I #
coedge $-1 $175 $176 $177 $178 reversed $69 $-1 #
face $-1 $-1 $179 $37 $-1 $180 forward single #
loop $-1 $181 $182 $71 #
cone-surface $-1 -63.069130633581381 25.367879827563648 3.7607199447460689 0 -0.6018150307709319 -0.79863550430605224 0.25 0 0 1 I I -0.70710678118654746 0.70710678118654746 0.25 forward I I I I #
loop $-1 $-1 $183 $47 #
coedge $-1 $115 $115 $184 $185 reversed $72 $-1 #
face $-1 $-1 $186 $38 $-1 $187 forward single #
loop $-1 $188 $189 $74 #
cone-surface $-1 -58.864552959718225 25.367879827563648 3.7607199447460689 0 -0.6018150307709319 -0.79863550430605224 0.25 0 0 1 I I -0.70710678118654746 0.70710678118654746 0.25 forward I I I I #
loop $-1 $-1 $190 $48 #
coedge $-1 $120 $120 $191 $192 reversed $75 $-1 #
face $-1 $-1 $193 $39 $-1 $194 forward single #
loop $-1 $195 $196 $77 #
cone-surface $-1 -54.659975285855069 25.367879827563648 3.7607199447460689 0 -0.6018150307709319 -0.79863550430605224 0.25 0 0 1 I I -0.70710678118654746 0.70710678118654746 0.25 forward I I I I #
loop $-1 $-1 $197 $49 #
coedge $-1 $125 $125 $198 $199 reversed $78 $-1 #
face $-1 $200 $201 $30 $-1 $202 reversed single #
loop $-1 $-1 $203 $80 #
plane-surface $-1 0 -29.453996970962265 0 0 1 0 0 0 1 forward_v I I I I #
coedge $-1 $204 $205 $206 $207 forward $81 $-1 #
coedge $-1 $208 $83 $209 $210 forward $51 $-1 #
coedge $-1 $83 $208 $211 $212 forward $51 $-1 #
coedge $-1 $213 $214 $83 $133 reversed $215 $-1 #
edge $-1 $216 -29.453996970962265 $217 29.453996970962265 $132 $218 forward 7 unknown #
face $-1 $219 $220 $31 $-1 $221 reversed single #
loop $-1 $-1 $222 $84 #
plane-surface $-1 0 29.453996970962265 0 0 -1 0 0 0 -1 forward_v I I I I #
coedge $-1 $223 $224 $225 $226 reversed $85 $-1 #
coedge $-1 $227 $87 $228 $229 reversed $54 $-1 #
coedge $-1 $87 $227 $230 $231 reversed $54 $-1 #
coedge $-1 $224 $223 $87 $141 reversed $85 $-1 #
edge $-1 $232 -29.453996970962265 $233 29.453996970962265 $140 $234 forward 7 unknown #
face $-1 $235 $236 $32 $-1 $237 forward single #
loop $-1 $-1 $238 $88 #
plane-surface $-1 -65.872182416156818 0 5.8505102521027181 -1 0 0 0 0 1 forward_v I I I I #
coedge $-1 $239 $240 $241 $242 reversed $89 $-1 #
coedge $-1 $147 $91 $243 $244 reversed $57 $-1 #
coedge $-1 $91 $146 $239 $245 reversed $57 $-1 #
coedge $-1 $241 $246 $91 $149 forward $236 $-1 #
edge $-1 $247 27.91192795992324 $248 34.303208879116426 $148 $249 forward 7 unknown #
loop $-1 $-1 $155 $92 #
plane-surface $-1 -58.864552959718225 -29.45399697096228 2.5343345345053621 0 -0.6018150307709319 0.79863550430605224 1 0 0 forward_v I I I I #
loop $-1 $-1 $250 $59 #
coedge $-1 $153 $153 $154 $251 reversed $93 $-1 #
coedge $-1 $154 $154 $153 $251 forward $95 $-1 #
coedge $-1 $155 $155 $96 $156 forward $150 $-1 #
edge $-1 $252 -1.149710498241802e-015 $252 6.2831853071795996 $155 $253 forward 7 unknown #
loop $-1 $-1 $162 $97 #
plane-surface $-1 -58.864552959718225 -29.45399697096228 2.5343345345053621 0 -0.6018150307709319 0.79863550430605224 1 0 0 forward_v I I I I #
loop $-1 $-1 $254 $62 #
coedge $-1 $160 $160 $161 $255 reversed $98 $-1 #
coedge $-1 $161 $161 $160 $255 forward $100 $-1 #
coedge $-1 $162 $162 $101 $163 forward $157 $-1 #
edge $-1 $256 -1.149710498241802e-015 $256 6.2831853071795996 $162 $257 forward 7 unknown #
loop $-1 $-1 $169 $102 #
plane-surface $-1 -58.864552959718225 -29.45399697096228 2.5343345345053621 0 -0.6018150307709319 0.79863550430605224 1 0 0 forward_v I I I I #
loop $-1 $-1 $258 $65 #
coedge $-1 $167 $167 $168 $259 reversed $103 $-1 #
coedge $-1 $168 $168 $167 $259 forward $105 $-1 #
coedge $-1 $169 $169 $106 $170 forward $164 $-1 #
edge $-1 $260 -1.149710498241802e-015 $260 6.2831853071795996 $169 $261 forward 7 unknown #
face $-1 $262 $263 $36 $-1 $264 reversed single #
loop $-1 $-1 $177 $107 #
plane-surface $-1 0 0 7.3505102521027181 0 0 1 1 0 0 forward_v I I I I #
coedge $-1 $265 $266 $267 $268 reversed $108 $-1 #
coedge $-1 $269 $110 $270 $271 reversed $69 $-1 #
coedge $-1 $110 $269 $265 $272 forward $69 $-1 #
coedge $-1 $267 $273 $110 $178 forward $172 $-1 #
edge $-1 $274 -36.439905936297706 $275 -22.424647023420519 $177 $276 forward 7 unknown #
loop $-1 $-1 $184 $111 #
plane-surface $-1 -58.864552959718225 -17.592018478504485 37.986050721318549 0 0.6018150307709319 0.79863550430605224 1 0 0 forward_v I I I I #
loop $-1 $-1 $277 $71 #
coedge $-1 $182 $182 $183 $278 reversed $112 $-1 #
coedge $-1 $183 $183 $182 $278 forward $114 $-1 #
coedge $-1 $184 $184 $115 $185 forward $179 $-1 #
edge $-1 $279 1.5598380817483975e-015 $279 6.2831853071796022 $184 $280 forward 7 unknown #
loop $-1 $-1 $191 $116 #
plane-surface $-1 -58.864552959718225 -17.592018478504485 37.986050721318549 0 0.6018150307709319 0.79863550430605224 1 0 0 forward_v I I I I #
loop $-1 $-1 $281 $74 #
coedge $-1 $189 $189 $190 $282 reversed $117 $-1 #
coedge $-1 $190 $190 $189 $282 forward $119 $-1 #
coedge $-1 $191 $191 $120 $192 forward $186 $-1 #
edge $-1 $283 1.5598380817483975e-015 $283 6.2831853071796022 $191 $284 forward 7 unknown #
loop $-1 $-1 $198 $121 #
plane-surface $-1 -58.864552959718225 -17.592018478504485 37.986050721318549 0 0.6018150307709319 0.79863550430605224 1 0 0 forward_v I I I I #
loop $-1 $-1 $285 $77 #
coedge $-1 $196 $196 $197 $286 reversed $122 $-1 #
coedge $-1 $197 $197 $196 $286 forward $124 $-1 #
coedge $-1 $198 $198 $125 $199 forward $193 $-1 #
edge $-1 $287 1.5598380817483975e-015 $287 6.2831853071796022 $198 $288 forward 7 unknown #
face $-1 $289 $290 $30 $-1 $291 reversed single #
loop $-1 $-1 $292 $126 #
plane-surface $-1 -70.850550859096046 0 0 1 0 0 0 0 -1 forward_v I I I I #
coedge $-1 $293 $211 $294 $295 forward $127 $-1 #
coedge $-1 $296 $129 $293 $297 forward $81 $-1 #
coedge $-1 $129 $296 $298 $299 forward $81 $-1 #
coedge $-1 $214 $213 $129 $207 reversed $215 $-1 #
edge $-1 $300 -29.453996970962265 $301 29.453996970962265 $206 $302 forward 7 unknown #
coedge $-1 $131 $130 $303 $304 forward $51 $-1 #
coedge $-1 $305 $306 $130 $210 reversed $290 $-1 #
edge $-1 $217 -70.850550859096046 $307 70.850550859096046 $209 $308 forward 7 unknown #
coedge $-1 $203 $309 $131 $212 reversed $127 $-1 #
edge $-1 $310 -70.850550859096046 $216 70.850550859096046 $211 $311 forward 7 unknown #
coedge $-1 $206 $132 $309 $312 forward $215 $-1 #
coedge $-1 $132 $206 $305 $313 reversed $215 $-1 #
loop $-1 $-1 $213 $289 #
vertex $-1 $133 $314 #
vertex $-1 $133 $315 #
straight-curve $-1 70.850550859096046 0 7.3505102521027181 0 1 0 I I #
face $-1 $316 $317 $31 $-1 $318 forward single #
loop $-1 $-1 $319 $134 #
plane-surface $-1 -70.850550859096046 0 0 1 0 0 0 0 -1 forward_v I I I I #
coedge $-1 $230 $320 $224 $321 forward $135 $-1 #
coedge $-1 $140 $137 $322 $323 reversed $85 $-1 #
coedge $-1 $137 $140 $222 $321 reversed $85 $-1 #
coedge $-1 $324 $325 $137 $226 forward $317 $-1 #
edge $-1 $326 -29.453996970962265 $327 29.453996970962265 $225 $328 forward 7 unknown #
coedge $-1 $139 $138 $319 $329 reversed $54 $-1 #
coedge $-1 $322 $330 $138 $229 forward $331 $-1 #
edge $-1 $332 -36.66986754028283 $233 -31.691499097343602 $228 $333 forward 7 unknown #
coedge $-1 $334 $222 $139 $231 forward $135 $-1 #
edge $-1 $232 31.691499097343602 $335 36.66986754028283 $230 $336 forward 7 unknown #
vertex $-1 $231 $337 #
vertex $-1 $229 $338 #
straight-curve $-1 -65.872182416156818 0 4.3505102521027181 0 -1 0 I I #
face $-1 $-1 $339 $32 $-1 $340 reversed single #
loop $-1 $-1 $241 $142 #
plane-surface $-1 0 0 7.3505102521027181 0 0 1 1 0 0 forward_v I I I I #
coedge $-1 $341 $342 $240 $343 reversed $143 $-1 #
coedge $-1 $344 $145 $147 $245 forward $89 $-1 #
coedge $-1 $145 $344 $238 $343 forward $89 $-1 #
coedge $-1 $345 $148 $145 $242 forward $236 $-1 #
edge $-1 $248 22.424647023420519 $346 36.439905936297706 $241 $347 forward 7 unknown #
coedge $-1 $348 $349 $146 $244 forward $339 $-1 #
edge $-1 $350 -55.316598148463086 $247 -50.50042243086574 $243 $351 forward 7 unknown #
edge $-1 $248 -8.0027507977455805 $350 -1.7763522597878294e-014 $147 $352 forward 7 unknown #
coedge $-1 $148 $345 $348 $353 forward $236 $-1 #
vertex $-1 $244 $354 #
vertex $-1 $149 $355 #
straight-curve $-1 -51.856923503279631 -57.365924930885505 7.3505102521027155 0 1 0 I I #
coedge $-1 $250 $250 $-1 $356 reversed $152 $-1 #
edge $-1 $357 0 $357 6.2831853071796004 $153 $358 forward 7 unknown #
vertex $-1 $156 $359 #
ellipse-curve $-1 -63.069130633581381 -26.258356511365665 4.9424223933040485 0 -0.6018150307709319 0.79863550430605224 0.5 0 0 1 I I #
coedge $-1 $254 $254 $-1 $360 reversed $159 $-1 #
edge $-1 $361 0 $361 6.2831853071796004 $160 $362 forward 7 unknown #
vertex $-1 $163 $363 #
ellipse-curve $-1 -58.864552959718225 -26.258356511365665 4.9424223933040485 0 -0.6018150307709319 0.79863550430605224 0.5 0 0 1 I I #
coedge $-1 $258 $258 $-1 $364 reversed $166 $-1 #
edge $-1 $365 0 $365 6.2831853071796004 $167 $366 forward 7 unknown #
vertex $-1 $170 $367 #
ellipse-curve $-1 -54.659975285855069 -26.258356511365665 4.9424223933040485 0 -0.6018150307709319 0.79863550430605224 0.5 0 0 1 I I #
face $-1 $-1 $368 $36 $-1 $369 forward single #
loop $-1 $-1 $370 $171 #
plane-surface $-1 0 29.453996970962265 0 0 -1 0 0 0 -1 forward_v I I I I #
coedge $-1 $266 $174 $176 $272 reversed $108 $-1 #
coedge $-1 $174 $265 $370 $371 reversed $108 $-1 #
coedge $-1 $372 $177 $174 $268 forward $172 $-1 #
edge $-1 $275 -10.780201154383036 $373 -4.3889202351898575 $267 $374 forward 7 unknown #
coedge $-1 $176 $175 $375 $376 reversed $69 $-1 #
coedge $-1 $377 $378 $175 $271 forward $368 $-1 #
edge $-1 $379 -42.213363029092775 $274 -34.210612231347234 $270 $380 forward 7 unknown #
edge $-1 $381 -58.907993941924516 $275 -50.905243144178968 $265 $382 forward 7 unknown #
coedge $-1 $177 $372 $377 $383 forward $172 $-1 #
vertex $-1 $271 $384 #
vertex $-1 $178 $385 #
straight-curve $-1 -29.432276479859112 23.062716051769083 7.350510252102719 1 0 0 I I #
coedge $-1 $277 $277 $-1 $386 reversed $181 $-1 #
edge $-1 $387 0 $387 6.2831853071796004 $182 $388 forward 7 unknown #
vertex $-1 $185 $389 #
ellipse-curve $-1 -63.069130633581381 26.258356511365669 4.9424223933040512 0 0.6018150307709319 0.79863550430605224 0.5 0 0 1 I I #
coedge $-1 $281 $281 $-1 $390 reversed $188 $-1 #
edge $-1 $391 0 $391 6.2831853071796004 $189 $392 forward 7 unknown #
vertex $-1 $192 $393 #
ellipse-curve $-1 -58.864552959718225 26.258356511365669 4.9424223933040512 0 0.6018150307709319 0.79863550430605224 0.5 0 0 1 I I #
coedge $-1 $285 $285 $-1 $394 reversed $195 $-1 #
edge $-1 $395 0 $395 6.2831853071796004 $196 $396 forward 7 unknown #
vertex $-1 $199 $397 #
ellipse-curve $-1 -54.659975285855069 26.258356511365669 4.9424223933040512 0 0.6018150307709319 0.79863550430605224 0.5 0 0 1 I I #
face $-1 $-1 $215 $30 $-1 $398 reversed single #
loop $-1 $-1 $305 $200 #
plane-surface $-1 0 29.453996970962265 0 0 -1 0 0 0 -1 forward_v I I I I #
coedge $-1 $399 $303 $306 $400 forward $201 $-1 #
coedge $-1 $309 $203 $204 $297 reversed $127 $-1 #
coedge $-1 $303 $399 $203 $295 reversed $201 $-1 #
edge $-1 $310 -7.3505102521027181 $401 7.3505102521027181 $294 $402 forward 7 unknown #
coedge $-1 $205 $204 $399 $403 forward $81 $-1 #
edge $-1 $301 -70.850550859096046 $401 70.850550859096046 $293 $404 forward 7 unknown #
coedge $-1 $306 $305 $205 $299 reversed $290 $-1 #
edge $-1 $405 -70.850550859096046 $300 70.850550859096046 $298 $406 forward 7 unknown #
vertex $-1 $207 $407 #
vertex $-1 $312 $408 #
straight-curve $-1 70.850550859096046 0 -7.3505102521027181 0 -1 0 I I #
coedge $-1 $292 $294 $208 $304 reversed $201 $-1 #
edge $-1 $307 -29.453996970962265 $310 29.453996970962265 $303 $409 forward 7 unknown #
coedge $-1 $298 $209 $214 $313 forward $290 $-1 #
coedge $-1 $209 $298 $292 $400 reversed $290 $-1 #
vertex $-1 $210 $410 #
straight-curve $-1 0 29.453996970962265 7.3505102521027181 -1 0 0 I I #
coedge $-1 $211 $293 $213 $312 reversed $127 $-1 #
vertex $-1 $304 $411 #
straight-curve $-1 0 -29.453996970962265 7.3505102521027181 1 0 0 I I #
edge $-1 $216 -7.3505102521027181 $301 7.3505102521027181 $213 $412 forward 7 unknown #
edge $-1 $217 -7.3505102521027181 $300 7.3505102521027181 $214 $413 forward 7 unknown #
point $-1 70.850550859096046 -29.453996970962265 7.3505102521027181 #
point $-1 70.850550859096046 29.453996970962265 7.3505102521027181 #
face $-1 $-1 $331 $31 $-1 $414 reversed single #
loop $-1 $-1 $225 $219 #
plane-surface $-1 0 0 7.3505102521027181 0 0 1 1 0 0 forward_v I I I I #
coedge $-1 $415 $416 $227 $329 forward $220 $-1 #
coedge $-1 $222 $334 $324 $417 reversed $135 $-1 #
edge $-1 $327 -4.4252551260513595 $232 -1.4252551260513591 $222 $418 forward 7 unknown #
coedge $-1 $419 $228 $223 $323 forward $331 $-1 #
edge $-1 $233 1.4252551260513591 $326 4.4252551260513595 $322 $420 forward 7 unknown #
coedge $-1 $421 $225 $320 $417 forward $317 $-1 #
coedge $-1 $225 $421 $419 $422 forward $317 $-1 #
vertex $-1 $323 $423 #
vertex $-1 $417 $424 #
straight-curve $-1 -65.872182416156818 0 7.3505102521027181 0 1 0 I I #
edge $-1 $335 -29.453996970962265 $332 29.453996970962265 $319 $425 forward 7 unknown #
coedge $-1 $228 $419 $415 $426 forward $331 $-1 #
loop $-1 $-1 $322 $316 #
vertex $-1 $329 $427 #
straight-curve $-1 -34.180683318813216 -29.453996970962265 4.3505102521027181 1 0 0 I I #
coedge $-1 $320 $230 $416 $428 reversed $135 $-1 #
vertex $-1 $329 $429 #
straight-curve $-1 -34.180683318813216 29.453996970962265 4.3505102521027181 -1 0 0 I I #
point $-1 -65.872182416156818 29.453996970962265 4.3505102521027181 #
point $-1 -65.872182416156818 -29.453996970962265 4.3505102521027181 #
loop $-1 $-1 $243 $235 #
plane-surface $-1 0 -29.453996970962265 0 0 1 0 0 0 1 forward_v I I I I #
coedge $-1 $342 $238 $430 $431 reversed $143 $-1 #
coedge $-1 $238 $341 $345 $432 reversed $143 $-1 #
edge $-1 $433 1.7763522597878294e-014 $346 8.0027507977455805 $238 $434 forward 7 unknown #
coedge $-1 $240 $239 $349 $435 reversed $89 $-1 #
coedge $-1 $246 $241 $342 $432 forward $236 $-1 #
vertex $-1 $432 $436 #
straight-curve $-1 -29.432276479859112 -23.062716051769076 7.3505102521027181 -1 0 0 I I #
coedge $-1 $430 $243 $246 $353 reversed $339 $-1 #
coedge $-1 $243 $430 $344 $435 forward $339 $-1 #
vertex $-1 $244 $437 #
straight-curve $-1 -51.856923503279631 -29.453996970962265 57.850932682968455 0 0 1 I I #
straight-curve $-1 -51.856923503279631 -29.45399697096228 2.5343345345053621 0 -0.79863550430605224 -0.6018150307709319 I I #
edge $-1 $438 -65.872182416156818 $247 -51.856923503279631 $348 $439 forward 7 unknown #
point $-1 -51.856923503279631 -29.453996970962265 7.3505102521027181 #
point $-1 -51.856923503279631 -23.062716051769076 7.3505102521027181 #
edge $-1 $440 1 $440 0 $250 $-1 forward 7 unknown #
vertex $-1 $251 $441 #
ellipse-curve $-1 -63.069130633581381 -25.518333585256386 3.960378820822589 0 -0.6018150307709319 0.79863550430605224 0.5 0 0 1 I I #
point $-1 -62.569130633581381 -26.258356511365655 4.9424223933040334 #
edge $-1 $442 1 $442 0 $254 $-1 forward 7 unknown #
vertex $-1 $255 $443 #
ellipse-curve $-1 -58.864552959718225 -25.518333585256386 3.960378820822589 0 -0.6018150307709319 0.79863550430605224 0.5 0 0 1 I I #
point $-1 -58.364552959718225 -26.258356511365655 4.9424223933040334 #
edge $-1 $444 1 $444 0 $258 $-1 forward 7 unknown #
vertex $-1 $259 $445 #
ellipse-curve $-1 -54.659975285855069 -25.518333585256386 3.960378820822589 0 -0.6018150307709319 0.79863550430605224 0.5 0 0 1 I I #
point $-1 -54.159975285855069 -26.258356511365655 4.9424223933040334 #
loop $-1 $-1 $270 $262 #
plane-surface $-1 -65.872182416156818 0 5.8505102521027181 -1 0 0 0 0 1 forward_v I I I I #
coedge $-1 $375 $446 $266 $371 forward $263 $-1 #
edge $-1 $373 68.226280524272326 $381 73.042456241869672 $370 $447 forward 7 unknown #
coedge $-1 $273 $267 $446 $448 forward $172 $-1 #
vertex $-1 $448 $449 #
straight-curve $-1 -51.856923503279631 33.842917206152123 7.3505102521027226 0 1 0 I I #
coedge $-1 $450 $370 $269 $376 forward $263 $-1 #
edge $-1 $381 22.424647023420519 $379 36.439905936297706 $375 $451 forward 7 unknown #
coedge $-1 $378 $270 $273 $383 reversed $368 $-1 #
coedge $-1 $270 $377 $450 $452 reversed $368 $-1 #
vertex $-1 $452 $453 #
straight-curve $-1 -65.872182416156818 -4.2590935002317032 27.938970904803369 0 -0.79863550430605224 0.6018150307709319 I I #
vertex $-1 $376 $454 #
straight-curve $-1 -51.856923503279631 -17.592018478504485 37.986050721318549 0 -0.79863550430605224 0.6018150307709319 I I #
edge $-1 $455 -29.453996970962265 $274 -23.062716051769087 $273 $456 forward 7 unknown #
point $-1 -65.872182416156818 23.062716051769087 7.3505102521027155 #
point $-1 -51.856923503279631 23.062716051769087 7.3505102521027155 #
edge $-1 $457 1 $457 0 $277 $-1 forward 7 unknown #
vertex $-1 $278 $458 #
ellipse-curve $-1 -63.069130633581381 25.518333585256382 3.9603788208225819 0 0.6018150307709319 0.79863550430605224 0.5 0 0 1 I I #
point $-1 -62.569130633581381 26.258356511365651 4.9424223933040263 #
edge $-1 $459 1 $459 0 $281 $-1 forward 7 unknown #
vertex $-1 $282 $460 #
ellipse-curve $-1 -58.864552959718225 25.518333585256382 3.9603788208225819 0 0.6018150307709319 0.79863550430605224 0.5 0 0 1 I I #
point $-1 -58.364552959718225 26.258356511365651 4.9424223933040263 #
edge $-1 $461 1 $461 0 $285 $-1 forward 7 unknown #
vertex $-1 $286 $462 #
ellipse-curve $-1 -54.659975285855069 25.518333585256382 3.9603788208225819 0 0.6018150307709319 0.79863550430605224 0.5 0 0 1 I I #
point $-1 -54.159975285855069 26.258356511365651 4.9424223933040263 #
plane-surface $-1 70.850550859096046 0 0 -1 0 0 0 0 1 forward_v I I I I #
coedge $-1 $294 $292 $296 $403 reversed $201 $-1 #
edge $-1 $307 -7.3505102521027181 $405 7.3505102521027181 $306 $463 forward 7 unknown #
vertex $-1 $403 $464 #
straight-curve $-1 -70.850550859096046 -29.453996970962265 0 0 0 -1 I I #
edge $-1 $401 -29.453996970962265 $405 29.453996970962265 $399 $465 forward 7 unknown #
straight-curve $-1 0 -29.453996970962265 -7.3505102521027181 -1 0 0 I I #
vertex $-1 $299 $466 #
straight-curve $-1 0 29.453996970962265 -7.3505102521027181 1 0 0 I I #
point $-1 70.850550859096046 29.453996970962265 -7.3505102521027181 #
point $-1 70.850550859096046 -29.453996970962265 -7.3505102521027181 #
straight-curve $-1 -70.850550859096046 0 7.3505102521027181 0 -1 0 I I #
point $-1 -70.850550859096046 29.453996970962265 7.3505102521027181 #
point $-1 -70.850550859096046 -29.453996970962265 7.3505102521027181 #
straight-curve $-1 70.850550859096046 -29.453996970962265 0 0 0 -1 I I #
straight-curve $-1 70.850550859096046 29.453996970962265 0 0 0 -1 I I #
plane-surface $-1 0 -29.453996970962265 0 0 1 0 0 0 1 forward_v I I I I #
coedge $-1 $467 $319 $330 $426 reversed $220 $-1 #
coedge $-1 $319 $467 $334 $428 forward $220 $-1 #
edge $-1 $327 65.872182416156818 $468 70.850550859096046 $320 $469 forward 7 unknown #
straight-curve $-1 -65.872182416156818 29.453996970962265 2.9252551260513591 0 0 -1 I I #
coedge $-1 $330 $322 $325 $422 reversed $331 $-1 #
straight-curve $-1 -65.872182416156818 -29.453996970962265 2.9252551260513591 0 0 1 I I #
coedge $-1 $325 $324 $467 $470 forward $317 $-1 #
edge $-1 $471 -70.850550859096046 $326 -65.872182416156818 $419 $472 forward 7 unknown #
point $-1 -65.872182416156818 -29.453996970962265 7.3505102521027181 #
point $-1 -65.872182416156818 29.453996970962265 7.3505102521027181 #
straight-curve $-1 -70.850550859096046 0 4.3505102521027181 0 -1 0 I I #
edge $-1 $471 -7.3505102521027181 $332 -4.3505102521027181 $415 $473 forward 7 unknown #
point $-1 -70.850550859096046 -29.453996970962265 4.3505102521027181 #
edge $-1 $468 -7.3505102521027181 $335 -4.3505102521027181 $334 $474 forward 7 unknown #
point $-1 -70.850550859096046 29.453996970962265 4.3505102521027181 #
coedge $-1 $349 $348 $341 $431 forward $339 $-1 #
edge $-1 $438 50.50042243086574 $433 55.316598148463086 $430 $475 forward 7 unknown #
edge $-1 $346 23.062716051769076 $438 29.453996970962265 $345 $476 forward 7 unknown #
vertex $-1 $431 $477 #
straight-curve $-1 -65.872182416156818 -29.45399697096228 2.5343345345053621 0 0.79863550430605224 0.6018150307709319 I I #
edge $-1 $433 -36.439905936297706 $350 -22.424647023420519 $349 $478 forward 7 unknown #
point $-1 -65.872182416156818 -23.062716051769076 7.3505102521027181 #
point $-1 -51.856923503279631 -29.453996970962265 2.5343345345053727 #
vertex $-1 $353 $479 #
straight-curve $-1 0 -29.453996970962265 7.3505102521027181 1 0 0 I I #
vertex $-1 $356 $480 #
point $-1 -62.569130633581381 -25.518333585256386 3.960378820822589 #
vertex $-1 $360 $481 #
point $-1 -58.364552959718225 -25.518333585256386 3.960378820822589 #
vertex $-1 $364 $482 #
point $-1 -54.159975285855069 -25.518333585256386 3.960378820822589 #
coedge $-1 $370 $450 $372 $448 reversed $263 $-1 #
straight-curve $-1 -51.856923503279631 29.453996970962265 75.576790776375049 0 0 -1 I I #
edge $-1 $373 51.856923503279631 $455 65.872182416156818 $446 $483 forward 7 unknown #
point $-1 -51.856923503279631 29.453996970962265 7.3505102521027181 #
coedge $-1 $446 $375 $378 $452 forward $263 $-1 #
straight-curve $-1 -29.432276479859112 29.453996970962262 2.5343345345053834 -1 0 0 I I #
edge $-1 $379 -73.042456241869672 $455 -68.226280524272326 $450 $484 forward 7 unknown #
point $-1 -65.872182416156818 29.453996970962265 2.5343345345053834 #
point $-1 -51.856923503279631 29.453996970962265 2.5343345345053834 #
vertex $-1 $383 $485 #
straight-curve $-1 -65.872182416156818 0 7.3505102521027181 0 -1 0 I I #
vertex $-1 $386 $486 #
point $-1 -62.569130633581381 25.518333585256382 3.9603788208225819 #
vertex $-1 $390 $487 #
point $-1 -58.364552959718225 25.518333585256382 3.9603788208225819 #
vertex $-1 $394 $488 #
point $-1 -54.159975285855069 25.518333585256382 3.9603788208225819 #
straight-curve $-1 -70.850550859096046 29.453996970962265 0 0 0 -1 I I #
point $-1 -70.850550859096046 -29.453996970962265 -7.3505102521027181 #
straight-curve $-1 -70.850550859096046 0 -7.3505102521027181 0 1 0 I I #
point $-1 -70.850550859096046 29.453996970962265 -7.3505102521027181 #
coedge $-1 $416 $415 $421 $470 reversed $220 $-1 #
vertex $-1 $417 $489 #
straight-curve $-1 0 29.453996970962265 7.3505102521027181 -1 0 0 I I #
edge $-1 $468 -29.453996970962265 $471 29.453996970962265 $467 $490 forward 7 unknown #
vertex $-1 $470 $491 #
straight-curve $-1 0 -29.453996970962265 7.3505102521027181 1 0 0 I I #
straight-curve $-1 -70.850550859096046 -29.453996970962265 0 0 0 -1 I I #
straight-curve $-1 -70.850550859096046 29.453996970962265 0 0 0 -1 I I #
straight-curve $-1 -65.872182416156818 -29.453996970962265 57.850932682968455 0 0 -1 I I #
straight-curve $-1 -65.872182416156818 0 7.3505102521027181 0 -1 0 I I #
point $-1 -65.872182416156818 -29.453996970962265 2.5343345345053727 #
straight-curve $-1 -29.432276479859112 -29.453996970962265 2.5343345345053723 1 0 0 I I #
point $-1 -65.872182416156818 -29.453996970962265 7.3505102521027181 #
point $-1 -63.069130633581381 -25.217426069870918 3.561061068669563 #
point $-1 -58.864552959718225 -25.217426069870918 3.561061068669563 #
point $-1 -54.659975285855069 -25.217426069870918 3.561061068669563 #
straight-curve $-1 0 29.453996970962265 7.3505102521027181 -1 0 0 I I #
straight-curve $-1 -65.872182416156818 29.453996970962265 75.576790776375049 0 0 1 I I #
point $-1 -65.872182416156818 29.453996970962265 7.3505102521027181 #
point $-1 -63.069130633581381 25.217426069870914 3.5610610686695559 #
point $-1 -58.864552959718225 25.217426069870914 3.5610610686695559 #
point $-1 -54.659975285855069 25.217426069870914 3.5610610686695559 #
point $-1 -70.850550859096046 29.453996970962265 7.3505102521027181 #
straight-curve $-1 -70.850550859096046 0 7.3505102521027181 0 -1 0 I I #
point $-1 -70.850550859096046 -29.453996970962265 7.3505102521027181 #
End-of-ACIS-data 