500 0 21 0           
7 Unknown 11 ACIS 5.0 NT 24 Fri Mar 26 17:16:29 1999 
-1 9.9999999999999995e-007 1e-010 
body $-1 $21 $-1 $22 #
body $-1 $23 $-1 $24 #
body $-1 $25 $-1 $26 #
body $-1 $27 $-1 $28 #
body $-1 $29 $-1 $30 #
body $-1 $31 $-1 $32 #
body $-1 $33 $-1 $34 #
body $-1 $35 $-1 $36 #
body $-1 $37 $-1 $38 #
body $-1 $39 $-1 $40 #
body $-1 $41 $-1 $42 #
body $-1 $43 $-1 $44 #
body $-1 $45 $-1 $46 #
body $-1 $47 $-1 $48 #
body $-1 $49 $-1 $50 #
body $-1 $51 $-1 $52 #
body $-1 $53 $-1 $54 #
body $-1 $55 $-1 $56 #
body $-1 $57 $-1 $58 #
body $-1 $59 $-1 $60 #
body $-1 $61 $-1 $62 #
lump $-1 $-1 $63 $0 #
transform $-1 1 0 0 0 1 0 0 0 1 59.509872737815485 40.307327908216479 19.108185332653935 1 rotate no_reflect no_shear #
lump $-1 $-1 $64 $1 #
transform $-1 1 0 0 0 0.77714595512881146 -0.62932039886446345 0 0.62932039886446345 0.77714595512881146 16.250942125554346 92.866855820061772 177.02184774223886 1 rotate no_reflect no_shear #
lump $-1 $-1 $65 $2 #
transform $-1 1 0 0 0 -0.77714595512881146 0.62932039886446345 0 -0.62932039886446345 -0.77714595512881146 12.427159925219287 76.274525382107612 34.01764631112863 1 rotate no_reflect no_shear #
lump $-1 $-1 $66 $3 #
transform $-1 1 0 0 0 -0.77714595512881146 0.62932039886446345 0 -0.62932039886446345 -0.77714595512881146 16.250942125554346 76.274525382107612 34.01764631112863 1 rotate no_reflect no_shear #
lump $-1 $-1 $67 $4 #
transform $-1 1 0 0 0 -0.77714595512881146 0.62932039886446345 0 -0.62932039886446345 -0.77714595512881146 20.074724325889406 76.274525382107612 34.01764631112863 1 rotate no_reflect no_shear #
lump $-1 $-1 $68 $5 #
transform $-1 1 0 0 0 0.77714595512881146 -0.62932039886446345 0 0.62932039886446345 0.77714595512881146 45.0902292003951 92.866855820061772 177.02184774223886 1 rotate no_reflect no_shear #
lump $-1 $-1 $69 $6 #
transform $-1 1 0 0 0 -0.77714595512881146 0.62932039886446345 0 -0.62932039886446345 -0.77714595512881146 41.266447000060047 76.274525382107612 34.01764631112863 1 rotate no_reflect no_shear #
lump $-1 $-1 $70 $7 #
transform $-1 1 0 0 0 -0.77714595512881146 0.62932039886446345 0 -0.62932039886446345 -0.77714595512881146 45.0902292003951 76.274525382107612 34.01764631112863 1 rotate no_reflect no_shear #
lump $-1 $-1 $71 $8 #
transform $-1 1 0 0 0 -0.77714595512881146 0.62932039886446345 0 -0.62932039886446345 -0.77714595512881146 48.914011400730161 76.274525382107612 34.01764631112863 1 rotate no_reflect no_shear #
lump $-1 $-1 $72 $9 #
transform $-1 1 0 0 0 0.77714595512881146 -0.62932039886446345 0 0.62932039886446345 0.77714595512881146 73.929516275235855 92.866855820061772 177.02184774223886 1 rotate no_reflect no_shear #
lump $-1 $-1 $73 $10 #
transform $-1 1 0 0 0 -0.77714595512881146 0.62932039886446345 0 -0.62932039886446345 -0.77714595512881146 70.105734074900809 76.274525382107612 34.01764631112863 1 rotate no_reflect no_shear #
lump $-1 $-1 $74 $11 #
transform $-1 1 0 0 0 -0.77714595512881146 0.62932039886446345 0 -0.62932039886446345 -0.77714595512881146 73.929516275235855 76.274525382107612 34.01764631112863 1 rotate no_reflect no_shear #
lump $-1 $-1 $75 $12 #
transform $-1 1 0 0 0 -0.77714595512881146 0.62932039886446345 0 -0.62932039886446345 -0.77714595512881146 77.753298475570915 76.274525382107612 34.01764631112863 1 rotate no_reflect no_shear #
lump $-1 $-1 $76 $13 #
transform $-1 1 0 0 0 0.77714595512881146 -0.62932039886446345 0 0.62932039886446345 0.77714595512881146 102.76880335007661 92.866855820061772 177.02184774223886 1 rotate no_reflect no_shear #
lump $-1 $-1 $77 $14 #
transform $-1 1 0 0 0 -0.77714595512881146 0.62932039886446345 0 -0.62932039886446345 -0.77714595512881146 98.945021149741564 76.274525382107612 34.01764631112863 1 rotate no_reflect no_shear #
lump $-1 $-1 $78 $15 #
transform $-1 1 0 0 0 -0.77714595512881146 0.62932039886446345 0 -0.62932039886446345 -0.77714595512881146 102.76880335007661 76.274525382107612 34.01764631112863 1 rotate no_reflect no_shear #
lump $-1 $-1 $79 $16 #
transform $-1 1 0 0 0 -0.77714595512881146 0.62932039886446345 0 -0.62932039886446345 -0.77714595512881146 106.59258555041167 76.274525382107612 34.01764631112863 1 rotate no_reflect no_shear #
lump $-1 $-1 $80 $17 #
transform $-1 1 0 0 0 0.51503806187062418 0.85716730853699208 0 -0.85716730853699208 0.51503806187062418 42.65389124718552 -102.01983489210446 90.865152911214665 1 rotate no_reflect no_shear #
lump $-1 $-1 $81 $18 #
transform $-1 1 0 0 0 -0.51503806187062418 -0.85716730853699208 0 0.85716730853699208 -0.51503806187062418 34.914138939774737 7.6248919687412879 30.871050324848333 1 rotate no_reflect no_shear #
lump $-1 $-1 $82 $19 #
transform $-1 1 0 0 0 -0.51503806187062418 -0.85716730853699208 0 0.85716730853699208 -0.51503806187062418 42.65389124718552 7.6248919687412879 30.871050324848333 1 rotate no_reflect no_shear #
lump $-1 $-1 $83 $20 #
transform $-1 1 0 0 0 -0.51503806187062418 -0.85716730853699208 0 0.85716730853699208 -0.51503806187062418 50.393643554596302 7.6248919687412879 30.871050324848333 1 rotate no_reflect no_shear #
shell $-1 $-1 $-1 $84 $-1 $21 #
shell $-1 $-1 $-1 $85 $-1 $23 #
shell $-1 $-1 $-1 $86 $-1 $25 #
shell $-1 $-1 $-1 $87 $-1 $27 #
shell $-1 $-1 $-1 $88 $-1 $29 #
shell $-1 $-1 $-1 $89 $-1 $31 #
shell $-1 $-1 $-1 $90 $-1 $33 #
shell $-1 $-1 $-1 $91 $-1 $35 #
shell $-1 $-1 $-1 $92 $-1 $37 #
shell $-1 $-1 $-1 $93 $-1 $39 #
shell $-1 $-1 $-1 $94 $-1 $41 #
shell $-1 $-1 $-1 $95 $-1 $43 #
shell $-1 $-1 $-1 $96 $-1 $45 #
shell $-1 $-1 $-1 $97 $-1 $47 #
shell $-1 $-1 $-1 $98 $-1 $49 #
shell $-1 $-1 $-1 $99 $-1 $51 #
shell $-1 $-1 $-1 $100 $-1 $53 #
shell $-1 $-1 $-1 $101 $-1 $55 #
shell $-1 $-1 $-1 $102 $-1 $57 #
shell $-1 $-1 $-1 $103 $-1 $59 #
shell $-1 $-1 $-1 $104 $-1 $61 #
face $-1 $105 $106 $63 $-1 $107 forward single #
face $-1 $108 $109 $64 $-1 $110 forward single #
face $-1 $111 $112 $65 $-1 $113 forward single #
face $-1 $114 $115 $66 $-1 $116 forward single #
face $-1 $117 $118 $67 $-1 $119 forward single #
face $-1 $120 $121 $68 $-1 $122 forward single #
face $-1 $123 $124 $69 $-1 $125 forward single #
face $-1 $126 $127 $70 $-1 $128 forward single #
face $-1 $129 $130 $71 $-1 $131 forward single #
face $-1 $132 $133 $72 $-1 $134 forward single #
face $-1 $135 $136 $73 $-1 $137 forward single #
face $-1 $138 $139 $74 $-1 $140 forward single #
face $-1 $141 $142 $75 $-1 $143 forward single #
face $-1 $144 $145 $76 $-1 $146 forward single #
face $-1 $147 $148 $77 $-1 $149 forward single #
face $-1 $150 $151 $78 $-1 $152 forward single #
face $-1 $153 $154 $79 $-1 $155 forward single #
face $-1 $156 $157 $80 $-1 $158 forward single #
face $-1 $159 $160 $81 $-1 $161 forward single #
face $-1 $162 $163 $82 $-1 $164 forward single #
face $-1 $165 $166 $83 $-1 $167 forward single #
face $-1 $168 $169 $63 $-1 $170 reversed single #
loop $-1 $-1 $171 $84 #
plane-surface $-1 0 0 19.108185332653935 0 0 1 1 0 0 forward_v I I I I #
face $-1 $172 $173 $64 $-1 $174 reversed single #
loop $-1 $-1 $175 $85 #
plane-surface $-1 0 0 119.01974547563096 0 0 1 1 0 0 forward_v I I I I #
face $-1 $176 $177 $65 $-1 $178 forward single #
loop $-1 $179 $180 $86 #
cone-surface $-1 0 0 -1.5286416211432226 0 0 1 1 0 0 1 I I 0 1 1 forward I I I I #
face $-1 $181 $182 $66 $-1 $183 forward single #
loop $-1 $184 $185 $87 #
cone-surface $-1 0 0 -1.5286416211432226 0 0 1 1 0 0 1 I I 0 1 1 forward I I I I #
face $-1 $186 $187 $67 $-1 $188 forward single #
loop $-1 $189 $190 $88 #
cone-surface $-1 0 0 -1.5286416211432226 0 0 1 1 0 0 1 I I 0 1 1 forward I I I I #
face $-1 $191 $192 $68 $-1 $193 reversed single #
loop $-1 $-1 $194 $89 #
plane-surface $-1 0 0 119.01974547563096 0 0 1 1 0 0 forward_v I I I I #
face $-1 $195 $196 $69 $-1 $197 forward single #
loop $-1 $198 $199 $90 #
cone-surface $-1 0 0 -1.5286416211432226 0 0 1 1 0 0 1 I I 0 1 1 forward I I I I #
face $-1 $200 $201 $70 $-1 $202 forward single #
loop $-1 $203 $204 $91 #
cone-surface $-1 0 0 -1.5286416211432226 0 0 1 1 0 0 1 I I 0 1 1 forward I I I I #
face $-1 $205 $206 $71 $-1 $207 forward single #
loop $-1 $208 $209 $92 #
cone-surface $-1 0 0 -1.5286416211432226 0 0 1 1 0 0 1 I I 0 1 1 forward I I I I #
face $-1 $210 $211 $72 $-1 $212 reversed single #
loop $-1 $-1 $213 $93 #
plane-surface $-1 0 0 119.01974547563096 0 0 1 1 0 0 forward_v I I I I #
face $-1 $214 $215 $73 $-1 $216 forward single #
loop $-1 $217 $218 $94 #
cone-surface $-1 0 0 -1.5286416211432226 0 0 1 1 0 0 1 I I 0 1 1 forward I I I I #
face $-1 $219 $220 $74 $-1 $221 forward single #
loop $-1 $222 $223 $95 #
cone-surface $-1 0 0 -1.5286416211432226 0 0 1 1 0 0 1 I I 0 1 1 forward I I I I #
face $-1 $224 $225 $75 $-1 $226 forward single #
loop $-1 $227 $228 $96 #
cone-surface $-1 0 0 -1.5286416211432226 0 0 1 1 0 0 1 I I 0 1 1 forward I I I I #
face $-1 $229 $230 $76 $-1 $231 reversed single #
loop $-1 $-1 $232 $97 #
plane-surface $-1 0 0 119.01974547563096 0 0 1 1 0 0 forward_v I I I I #
face $-1 $233 $234 $77 $-1 $235 forward single #
loop $-1 $236 $237 $98 #
cone-surface $-1 0 0 -1.5286416211432226 0 0 1 1 0 0 1 I I 0 1 1 forward I I I I #
face $-1 $238 $239 $78 $-1 $240 forward single #
loop $-1 $241 $242 $99 #
cone-surface $-1 0 0 -1.5286416211432226 0 0 1 1 0 0 1 I I 0 1 1 forward I I I I #
face $-1 $243 $244 $79 $-1 $245 forward single #
loop $-1 $246 $247 $100 #
cone-surface $-1 0 0 -1.5286416211432226 0 0 1 1 0 0 1 I I 0 1 1 forward I I I I #
face $-1 $248 $249 $80 $-1 $250 reversed single #
loop $-1 $-1 $251 $101 #
plane-surface $-1 0 0 119.01974547563098 0 0 1 1 0 0 forward_v I I I I #
face $-1 $252 $253 $81 $-1 $254 forward single #
loop $-1 $255 $256 $102 #
cone-surface $-1 0 0 -3.3066881313516667 0 0 1 1.5 0 0 1 I I 0 1 1.5 forward I I I I #
face $-1 $257 $258 $82 $-1 $259 forward single #
loop $-1 $260 $261 $103 #
cone-surface $-1 0 0 -3.3066881313516667 0 0 1 1.5 0 0 1 I I 0 1 1.5 forward I I I I #
face $-1 $262 $263 $83 $-1 $264 forward single #
loop $-1 $265 $266 $104 #
cone-surface $-1 0 0 -3.3066881313516667 0 0 1 1.5 0 0 1 I I 0 1 1.5 forward I I I I #
face $-1 $267 $268 $63 $-1 $269 reversed single #
loop $-1 $-1 $270 $105 #
plane-surface $-1 0 0 -19.108185332653935 0 0 1 1 0 0 forward_v I I I I #
coedge $-1 $271 $272 $273 $274 forward $106 $-1 #
face $-1 $275 $276 $64 $-1 $277 reversed single #
loop $-1 $-1 $278 $108 #
plane-surface $-1 0 0 -119.01974547563096 0 0 1 1 0 0 forward_v I I I I #
coedge $-1 $279 $280 $281 $282 forward $109 $-1 #
face $-1 $-1 $283 $65 $-1 $284 forward single #
loop $-1 $-1 $285 $111 #
plane-surface $-1 0 0 -2.5572832422864451 0 0 -1 -1 0 0 forward_v I I I I #
loop $-1 $-1 $286 $86 #
coedge $-1 $180 $180 $285 $287 reversed $112 $-1 #
face $-1 $-1 $288 $66 $-1 $289 forward single #
loop $-1 $-1 $290 $114 #
plane-surface $-1 0 0 -2.5572832422864451 0 0 -1 -1 0 0 forward_v I I I I #
loop $-1 $-1 $291 $87 #
coedge $-1 $185 $185 $290 $292 reversed $115 $-1 #
face $-1 $-1 $293 $67 $-1 $294 forward single #
loop $-1 $-1 $295 $117 #
plane-surface $-1 0 0 -2.5572832422864451 0 0 -1 -1 0 0 forward_v I I I I #
loop $-1 $-1 $296 $88 #
coedge $-1 $190 $190 $295 $297 reversed $118 $-1 #
face $-1 $298 $299 $68 $-1 $300 reversed single #
loop $-1 $-1 $301 $120 #
plane-surface $-1 0 0 -119.01974547563096 0 0 1 1 0 0 forward_v I I I I #
coedge $-1 $302 $303 $304 $305 forward $121 $-1 #
face $-1 $-1 $306 $69 $-1 $307 forward single #
loop $-1 $-1 $308 $123 #
plane-surface $-1 0 0 -2.5572832422864451 0 0 -1 -1 0 0 forward_v I I I I #
loop $-1 $-1 $309 $90 #
coedge $-1 $199 $199 $308 $310 reversed $124 $-1 #
face $-1 $-1 $311 $70 $-1 $312 forward single #
loop $-1 $-1 $313 $126 #
plane-surface $-1 0 0 -2.5572832422864451 0 0 -1 -1 0 0 forward_v I I I I #
loop $-1 $-1 $314 $91 #
coedge $-1 $204 $204 $313 $315 reversed $127 $-1 #
face $-1 $-1 $316 $71 $-1 $317 forward single #
loop $-1 $-1 $318 $129 #
plane-surface $-1 0 0 -2.5572832422864451 0 0 -1 -1 0 0 forward_v I I I I #
loop $-1 $-1 $319 $92 #
coedge $-1 $209 $209 $318 $320 reversed $130 $-1 #
face $-1 $321 $322 $72 $-1 $323 reversed single #
loop $-1 $-1 $324 $132 #
plane-surface $-1 0 0 -119.01974547563096 0 0 1 1 0 0 forward_v I I I I #
coedge $-1 $325 $326 $327 $328 forward $133 $-1 #
face $-1 $-1 $329 $73 $-1 $330 forward single #
loop $-1 $-1 $331 $135 #
plane-surface $-1 0 0 -2.5572832422864451 0 0 -1 -1 0 0 forward_v I I I I #
loop $-1 $-1 $332 $94 #
coedge $-1 $218 $218 $331 $333 reversed $136 $-1 #
face $-1 $-1 $334 $74 $-1 $335 forward single #
loop $-1 $-1 $336 $138 #
plane-surface $-1 0 0 -2.5572832422864451 0 0 -1 -1 0 0 forward_v I I I I #
loop $-1 $-1 $337 $95 #
coedge $-1 $223 $223 $336 $338 reversed $139 $-1 #
face $-1 $-1 $339 $75 $-1 $340 forward single #
loop $-1 $-1 $341 $141 #
plane-surface $-1 0 0 -2.5572832422864451 0 0 -1 -1 0 0 forward_v I I I I #
loop $-1 $-1 $342 $96 #
coedge $-1 $228 $228 $341 $343 reversed $142 $-1 #
face $-1 $344 $345 $76 $-1 $346 reversed single #
loop $-1 $-1 $347 $144 #
plane-surface $-1 0 0 -119.01974547563096 0 0 1 1 0 0 forward_v I I I I #
coedge $-1 $348 $349 $350 $351 forward $145 $-1 #
face $-1 $-1 $352 $77 $-1 $353 forward single #
loop $-1 $-1 $354 $147 #
plane-surface $-1 0 0 -2.5572832422864451 0 0 -1 -1 0 0 forward_v I I I I #
loop $-1 $-1 $355 $98 #
coedge $-1 $237 $237 $354 $356 reversed $148 $-1 #
face $-1 $-1 $357 $78 $-1 $358 forward single #
loop $-1 $-1 $359 $150 #
plane-surface $-1 0 0 -2.5572832422864451 0 0 -1 -1 0 0 forward_v I I I I #
loop $-1 $-1 $360 $99 #
coedge $-1 $242 $242 $359 $361 reversed $151 $-1 #
face $-1 $-1 $362 $79 $-1 $363 forward single #
loop $-1 $-1 $364 $153 #
plane-surface $-1 0 0 -2.5572832422864451 0 0 -1 -1 0 0 forward_v I I I I #
loop $-1 $-1 $365 $100 #
coedge $-1 $247 $247 $364 $366 reversed $154 $-1 #
face $-1 $367 $368 $80 $-1 $369 reversed single #
loop $-1 $-1 $370 $156 #
plane-surface $-1 0 0 -119.01974547563098 0 0 1 1 0 0 forward_v I I I I #
coedge $-1 $371 $372 $373 $374 forward $157 $-1 #
face $-1 $-1 $375 $81 $-1 $376 forward single #
loop $-1 $-1 $377 $159 #
plane-surface $-1 0 0 -5.8633762627033317 0 0 -1 -1 0 0 forward_v I I I I #
loop $-1 $-1 $378 $102 #
coedge $-1 $256 $256 $377 $379 reversed $160 $-1 #
face $-1 $-1 $380 $82 $-1 $381 forward single #
loop $-1 $-1 $382 $162 #
plane-surface $-1 0 0 -5.8633762627033317 0 0 -1 -1 0 0 forward_v I I I I #
loop $-1 $-1 $383 $103 #
coedge $-1 $261 $261 $382 $384 reversed $163 $-1 #
face $-1 $-1 $385 $83 $-1 $386 forward single #
loop $-1 $-1 $387 $165 #
plane-surface $-1 0 0 -5.8633762627033317 0 0 -1 -1 0 0 forward_v I I I I #
loop $-1 $-1 $388 $104 #
coedge $-1 $266 $266 $387 $389 reversed $166 $-1 #
face $-1 $390 $391 $63 $-1 $392 reversed single #
loop $-1 $-1 $393 $168 #
plane-surface $-1 0 -40.307327908216479 0 0 1 0 0 0 1 forward_v I I I I #
coedge $-1 $394 $395 $396 $397 forward $169 $-1 #
coedge $-1 $398 $171 $399 $400 forward $106 $-1 #
coedge $-1 $171 $398 $401 $402 forward $106 $-1 #
coedge $-1 $403 $404 $171 $274 reversed $405 $-1 #
edge $-1 $406 -40.307327908216479 $407 40.307327908216479 $273 $408 forward 7 unknown #
face $-1 $409 $410 $64 $-1 $411 reversed single #
loop $-1 $-1 $412 $172 #
plane-surface $-1 0 -238.03949095126194 0 0 1 0 0 0 1 forward_v I I I I #
coedge $-1 $413 $414 $415 $416 forward $173 $-1 #
coedge $-1 $417 $175 $418 $419 forward $109 $-1 #
coedge $-1 $175 $417 $420 $421 forward $109 $-1 #
coedge $-1 $422 $423 $175 $282 reversed $424 $-1 #
edge $-1 $425 -238.03949095126194 $426 238.03949095126194 $281 $427 forward 7 unknown #
loop $-1 $428 $429 $176 #
cone-surface $-1 0 0 0 0 0 1 0.5 0 0 1 I I -0.70710678118654746 0.70710678118654746 0.5 forward I I I I #
coedge $-1 $285 $285 $180 $287 forward $177 $-1 #
coedge $-1 $286 $286 $429 $430 forward $179 $-1 #
edge $-1 $431 0 $431 6.2831853071796004 $285 $432 forward 7 unknown #
loop $-1 $433 $434 $181 #
cone-surface $-1 0 0 0 0 0 1 0.5 0 0 1 I I -0.70710678118654746 0.70710678118654746 0.5 forward I I I I #
coedge $-1 $290 $290 $185 $292 forward $182 $-1 #
coedge $-1 $291 $291 $434 $435 forward $184 $-1 #
edge $-1 $436 0 $436 6.2831853071796004 $290 $437 forward 7 unknown #
loop $-1 $438 $439 $186 #
cone-surface $-1 0 0 0 0 0 1 0.5 0 0 1 I I -0.70710678118654746 0.70710678118654746 0.5 forward I I I I #
coedge $-1 $295 $295 $190 $297 forward $187 $-1 #
coedge $-1 $296 $296 $439 $440 forward $189 $-1 #
edge $-1 $441 0 $441 6.2831853071796004 $295 $442 forward 7 unknown #
face $-1 $443 $444 $68 $-1 $445 reversed single #
loop $-1 $-1 $446 $191 #
plane-surface $-1 0 -238.03949095126194 0 0 1 0 0 0 1 forward_v I I I I #
coedge $-1 $447 $448 $449 $450 forward $192 $-1 #
coedge $-1 $451 $194 $452 $453 forward $121 $-1 #
coedge $-1 $194 $451 $454 $455 forward $121 $-1 #
coedge $-1 $456 $457 $194 $305 reversed $458 $-1 #
edge $-1 $459 -238.03949095126194 $460 238.03949095126194 $304 $461 forward 7 unknown #
loop $-1 $462 $463 $195 #
cone-surface $-1 0 0 0 0 0 1 0.5 0 0 1 I I -0.70710678118654746 0.70710678118654746 0.5 forward I I I I #
coedge $-1 $308 $308 $199 $310 forward $196 $-1 #
coedge $-1 $309 $309 $463 $464 forward $198 $-1 #
edge $-1 $465 0 $465 6.2831853071796004 $308 $466 forward 7 unknown #
loop $-1 $467 $468 $200 #
cone-surface $-1 0 0 0 0 0 1 0.5 0 0 1 I I -0.70710678118654746 0.70710678118654746 0.5 forward I I I I #
coedge $-1 $313 $313 $204 $315 forward $201 $-1 #
coedge $-1 $314 $314 $468 $469 forward $203 $-1 #
edge $-1 $470 0 $470 6.2831853071796004 $313 $471 forward 7 unknown #
loop $-1 $472 $473 $205 #
cone-surface $-1 0 0 0 0 0 1 0.5 0 0 1 I I -0.70710678118654746 0.70710678118654746 0.5 forward I I I I #
coedge $-1 $318 $318 $209 $320 forward $206 $-1 #
coedge $-1 $319 $319 $473 $474 forward $208 $-1 #
edge $-1 $475 0 $475 6.2831853071796004 $318 $476 forward 7 unknown #
face $-1 $477 $478 $72 $-1 $479 reversed single #
loop $-1 $-1 $480 $210 #
plane-surface $-1 0 -238.03949095126194 0 0 1 0 0 0 1 forward_v I I I I #
coedge $-1 $481 $482 $483 $484 forward $211 $-1 #
coedge $-1 $485 $213 $486 $487 forward $133 $-1 #
coedge $-1 $213 $485 $488 $489 forward $133 $-1 #
coedge $-1 $490 $491 $213 $328 reversed $492 $-1 #
edge $-1 $493 -238.03949095126194 $494 238.03949095126194 $327 $495 forward 7 unknown #
loop $-1 $496 $497 $214 #
cone-surface $-1 0 0 0 0 0 1 0.5 0 0 1 I I -0.70710678118654746 0.70710678118654746 0.5 forward I I I I #
coedge $-1 $331 $331 $218 $333 forward $215 $-1 #
coedge $-1 $332 $332 $497 $498 forward $217 $-1 #
edge $-1 $499 0 $499 6.2831853071796004 $331 $500 forward 7 unknown #
loop $-1 $501 $502 $219 #
cone-surface $-1 0 0 0 0 0 1 0.5 0 0 1 I I -0.70710678118654746 0.70710678118654746 0.5 forward I I I I #
coedge $-1 $336 $336 $223 $338 forward $220 $-1 #
coedge $-1 $337 $337 $502 $503 forward $222 $-1 #
edge $-1 $504 0 $504 6.2831853071796004 $336 $505 forward 7 unknown #
loop $-1 $506 $507 $224 #
cone-surface $-1 0 0 0 0 0 1 0.5 0 0 1 I I -0.70710678118654746 0.70710678118654746 0.5 forward I I I I #
coedge $-1 $341 $341 $228 $343 forward $225 $-1 #
coedge $-1 $342 $342 $507 $508 forward $227 $-1 #
edge $-1 $509 0 $509 6.2831853071796004 $341 $510 forward 7 unknown #
face $-1 $511 $512 $76 $-1 $513 reversed single #
loop $-1 $-1 $514 $229 #
plane-surface $-1 0 -238.03949095126194 0 0 1 0 0 0 1 forward_v I I I I #
coedge $-1 $515 $516 $517 $518 forward $230 $-1 #
coedge $-1 $519 $232 $520 $521 forward $145 $-1 #
coedge $-1 $232 $519 $522 $523 forward $145 $-1 #
coedge $-1 $524 $525 $232 $351 reversed $526 $-1 #
edge $-1 $527 -238.03949095126194 $528 238.03949095126194 $350 $529 forward 7 unknown #
loop $-1 $530 $531 $233 #
cone-surface $-1 0 0 0 0 0 1 0.5 0 0 1 I I -0.70710678118654746 0.70710678118654746 0.5 forward I I I I #
coedge $-1 $354 $354 $237 $356 forward $234 $-1 #
coedge $-1 $355 $355 $531 $532 forward $236 $-1 #
edge $-1 $533 0 $533 6.2831853071796004 $354 $534 forward 7 unknown #
loop $-1 $535 $536 $238 #
cone-surface $-1 0 0 0 0 0 1 0.5 0 0 1 I I -0.70710678118654746 0.70710678118654746 0.5 forward I I I I #
coedge $-1 $359 $359 $242 $361 forward $239 $-1 #
coedge $-1 $360 $360 $536 $537 forward $241 $-1 #
edge $-1 $538 0 $538 6.2831853071796004 $359 $539 forward 7 unknown #
loop $-1 $540 $541 $243 #
cone-surface $-1 0 0 0 0 0 1 0.5 0 0 1 I I -0.70710678118654746 0.70710678118654746 0.5 forward I I I I #
coedge $-1 $364 $364 $247 $366 forward $244 $-1 #
coedge $-1 $365 $365 $541 $542 forward $246 $-1 #
edge $-1 $543 0 $543 6.2831853071796004 $364 $544 forward 7 unknown #
face $-1 $545 $546 $80 $-1 $547 reversed single #
loop $-1 $-1 $548 $248 #
plane-surface $-1 0 -238.03949095126194 0 0 1 0 0 0 1 forward_v I I I I #
coedge $-1 $549 $550 $551 $552 forward $249 $-1 #
coedge $-1 $553 $251 $554 $555 forward $157 $-1 #
coedge $-1 $251 $553 $556 $557 forward $157 $-1 #
coedge $-1 $558 $559 $251 $374 reversed $560 $-1 #
edge $-1 $561 -238.03949095126194 $562 238.03949095126194 $373 $563 forward 7 unknown #
loop $-1 $564 $565 $252 #
cone-surface $-1 0 0 0 0 0 1 0.75 0 0 1 I I -0.70710678118654757 0.70710678118654757 0.75 forward I I I I #
coedge $-1 $377 $377 $256 $379 forward $253 $-1 #
coedge $-1 $378 $378 $565 $566 forward $255 $-1 #
edge $-1 $567 0 $567 6.2831853071796004 $377 $568 forward 7 unknown #
loop $-1 $569 $570 $257 #
cone-surface $-1 0 0 0 0 0 1 0.75 0 0 1 I I -0.70710678118654757 0.70710678118654757 0.75 forward I I I I #
coedge $-1 $382 $382 $261 $384 forward $258 $-1 #
coedge $-1 $383 $383 $570 $571 forward $260 $-1 #
edge $-1 $572 0 $572 6.2831853071796004 $382 $573 forward 7 unknown #
loop $-1 $574 $575 $262 #
cone-surface $-1 0 0 0 0 0 1 0.75 0 0 1 I I -0.70710678118654757 0.70710678118654757 0.75 forward I I I I #
coedge $-1 $387 $387 $266 $389 forward $263 $-1 #
coedge $-1 $388 $388 $575 $576 forward $265 $-1 #
edge $-1 $577 0 $577 6.2831853071796004 $387 $578 forward 7 unknown #
face $-1 $579 $580 $63 $-1 $581 reversed single #
loop $-1 $-1 $582 $267 #
plane-surface $-1 -59.509872737815485 0 0 1 0 0 0 0 -1 forward_v I I I I #
coedge $-1 $583 $401 $584 $585 forward $268 $-1 #
coedge $-1 $586 $270 $583 $587 forward $169 $-1 #
coedge $-1 $270 $586 $588 $589 forward $169 $-1 #
coedge $-1 $404 $403 $270 $397 reversed $405 $-1 #
edge $-1 $590 -40.307327908216479 $591 40.307327908216479 $396 $592 forward 7 unknown #
coedge $-1 $272 $271 $593 $594 forward $106 $-1 #
coedge $-1 $595 $596 $271 $400 reversed $580 $-1 #
edge $-1 $407 -59.509872737815485 $597 59.509872737815485 $399 $598 forward 7 unknown #
coedge $-1 $393 $599 $272 $402 reversed $268 $-1 #
edge $-1 $600 -59.509872737815485 $406 59.509872737815485 $401 $601 forward 7 unknown #
coedge $-1 $396 $273 $599 $602 forward $405 $-1 #
coedge $-1 $273 $396 $595 $603 reversed $405 $-1 #
loop $-1 $-1 $403 $579 #
vertex $-1 $274 $604 #
vertex $-1 $274 $605 #
straight-curve $-1 59.509872737815485 0 19.108185332653935 0 1 0 I I #
face $-1 $606 $607 $64 $-1 $608 reversed single #
loop $-1 $-1 $609 $275 #
plane-surface $-1 -6.3729703338917645 0 0 1 0 0 0 0 -1 forward_v I I I I #
coedge $-1 $610 $420 $611 $612 forward $276 $-1 #
coedge $-1 $613 $278 $610 $614 forward $173 $-1 #
coedge $-1 $278 $613 $615 $616 forward $173 $-1 #
coedge $-1 $423 $422 $278 $416 reversed $424 $-1 #
edge $-1 $617 -238.03949095126194 $618 238.03949095126194 $415 $619 forward 7 unknown #
coedge $-1 $280 $279 $620 $621 forward $109 $-1 #
coedge $-1 $622 $623 $279 $419 reversed $607 $-1 #
edge $-1 $426 -6.3729703338917645 $624 6.3729703338917645 $418 $625 forward 7 unknown #
coedge $-1 $412 $626 $280 $421 reversed $276 $-1 #
edge $-1 $627 -6.3729703338917645 $425 6.3729703338917645 $420 $628 forward 7 unknown #
coedge $-1 $415 $281 $626 $629 forward $424 $-1 #
coedge $-1 $281 $415 $622 $630 reversed $424 $-1 #
loop $-1 $-1 $422 $606 #
vertex $-1 $282 $631 #
vertex $-1 $282 $632 #
straight-curve $-1 6.3729703338917645 0 119.01974547563096 0 1 0 I I #
loop $-1 $-1 $633 $176 #
coedge $-1 $429 $429 $286 $430 reversed $283 $-1 #
edge $-1 $634 0 $634 6.2831853071796004 $429 $635 forward 7 unknown #
vertex $-1 $287 $636 #
ellipse-curve $-1 0 0 -2.5572832422864451 0 0 -1 1 0 0 1 I I #
loop $-1 $-1 $637 $181 #
coedge $-1 $434 $434 $291 $435 reversed $288 $-1 #
edge $-1 $638 0 $638 6.2831853071796004 $434 $639 forward 7 unknown #
vertex $-1 $292 $640 #
ellipse-curve $-1 0 0 -2.5572832422864451 0 0 -1 1 0 0 1 I I #
loop $-1 $-1 $641 $186 #
coedge $-1 $439 $439 $296 $440 reversed $293 $-1 #
edge $-1 $642 0 $642 6.2831853071796004 $439 $643 forward 7 unknown #
vertex $-1 $297 $644 #
ellipse-curve $-1 0 0 -2.5572832422864451 0 0 -1 1 0 0 1 I I #
face $-1 $645 $646 $68 $-1 $647 reversed single #
loop $-1 $-1 $648 $298 #
plane-surface $-1 -6.3729703338917645 0 0 1 0 0 0 0 -1 forward_v I I I I #
coedge $-1 $649 $454 $650 $651 forward $299 $-1 #
coedge $-1 $652 $301 $649 $653 forward $192 $-1 #
coedge $-1 $301 $652 $654 $655 forward $192 $-1 #
coedge $-1 $457 $456 $301 $450 reversed $458 $-1 #
edge $-1 $656 -238.03949095126194 $657 238.03949095126194 $449 $658 forward 7 unknown #
coedge $-1 $303 $302 $659 $660 forward $121 $-1 #
coedge $-1 $661 $662 $302 $453 reversed $646 $-1 #
edge $-1 $460 -6.3729703338917645 $663 6.3729703338917645 $452 $664 forward 7 unknown #
coedge $-1 $446 $665 $303 $455 reversed $299 $-1 #
edge $-1 $666 -6.3729703338917645 $459 6.3729703338917645 $454 $667 forward 7 unknown #
coedge $-1 $449 $304 $665 $668 forward $458 $-1 #
coedge $-1 $304 $449 $661 $669 reversed $458 $-1 #
loop $-1 $-1 $456 $645 #
vertex $-1 $305 $670 #
vertex $-1 $305 $671 #
straight-curve $-1 6.3729703338917645 0 119.01974547563096 0 1 0 I I #
loop $-1 $-1 $672 $195 #
coedge $-1 $463 $463 $309 $464 reversed $306 $-1 #
edge $-1 $673 0 $673 6.2831853071796004 $463 $674 forward 7 unknown #
vertex $-1 $310 $675 #
ellipse-curve $-1 0 0 -2.5572832422864451 0 0 -1 1 0 0 1 I I #
loop $-1 $-1 $676 $200 #
coedge $-1 $468 $468 $314 $469 reversed $311 $-1 #
edge $-1 $677 0 $677 6.2831853071796004 $468 $678 forward 7 unknown #
vertex $-1 $315 $679 #
ellipse-curve $-1 0 0 -2.5572832422864451 0 0 -1 1 0 0 1 I I #
loop $-1 $-1 $680 $205 #
coedge $-1 $473 $473 $319 $474 reversed $316 $-1 #
edge $-1 $681 0 $681 6.2831853071796004 $473 $682 forward 7 unknown #
vertex $-1 $320 $683 #
ellipse-curve $-1 0 0 -2.5572832422864451 0 0 -1 1 0 0 1 I I #
face $-1 $684 $685 $72 $-1 $686 reversed single #
loop $-1 $-1 $687 $321 #
plane-surface $-1 -6.3729703338917645 0 0 1 0 0 0 0 -1 forward_v I I I I #
coedge $-1 $688 $488 $689 $690 forward $322 $-1 #
coedge $-1 $691 $324 $688 $692 forward $211 $-1 #
coedge $-1 $324 $691 $693 $694 forward $211 $-1 #
coedge $-1 $491 $490 $324 $484 reversed $492 $-1 #
edge $-1 $695 -238.03949095126194 $696 238.03949095126194 $483 $697 forward 7 unknown #
coedge $-1 $326 $325 $698 $699 forward $133 $-1 #
coedge $-1 $700 $701 $325 $487 reversed $685 $-1 #
edge $-1 $494 -6.3729703338917645 $702 6.3729703338917645 $486 $703 forward 7 unknown #
coedge $-1 $480 $704 $326 $489 reversed $322 $-1 #
edge $-1 $705 -6.3729703338917645 $493 6.3729703338917645 $488 $706 forward 7 unknown #
coedge $-1 $483 $327 $704 $707 forward $492 $-1 #
coedge $-1 $327 $483 $700 $708 reversed $492 $-1 #
loop $-1 $-1 $490 $684 #
vertex $-1 $328 $709 #
vertex $-1 $328 $710 #
straight-curve $-1 6.3729703338917645 0 119.01974547563096 0 1 0 I I #
loop $-1 $-1 $711 $214 #
coedge $-1 $497 $497 $332 $498 reversed $329 $-1 #
edge $-1 $712 0 $712 6.2831853071796004 $497 $713 forward 7 unknown #
vertex $-1 $333 $714 #
ellipse-curve $-1 0 0 -2.5572832422864451 0 0 -1 1 0 0 1 I I #
loop $-1 $-1 $715 $219 #
coedge $-1 $502 $502 $337 $503 reversed $334 $-1 #
edge $-1 $716 0 $716 6.2831853071796004 $502 $717 forward 7 unknown #
vertex $-1 $338 $718 #
ellipse-curve $-1 0 0 -2.5572832422864451 0 0 -1 1 0 0 1 I I #
loop $-1 $-1 $719 $224 #
coedge $-1 $507 $507 $342 $508 reversed $339 $-1 #
edge $-1 $720 0 $720 6.2831853071796004 $507 $721 forward 7 unknown #
vertex $-1 $343 $722 #
ellipse-curve $-1 0 0 -2.5572832422864451 0 0 -1 1 0 0 1 I I #
face $-1 $723 $724 $76 $-1 $725 reversed single #
loop $-1 $-1 $726 $344 #
plane-surface $-1 -6.3729703338917645 0 0 1 0 0 0 0 -1 forward_v I I I I #
coedge $-1 $727 $522 $728 $729 forward $345 $-1 #
coedge $-1 $730 $347 $727 $731 forward $230 $-1 #
coedge $-1 $347 $730 $732 $733 forward $230 $-1 #
coedge $-1 $525 $524 $347 $518 reversed $526 $-1 #
edge $-1 $734 -238.03949095126194 $735 238.03949095126194 $517 $736 forward 7 unknown #
coedge $-1 $349 $348 $737 $738 forward $145 $-1 #
coedge $-1 $739 $740 $348 $521 reversed $724 $-1 #
edge $-1 $528 -6.3729703338917645 $741 6.3729703338917645 $520 $742 forward 7 unknown #
coedge $-1 $514 $743 $349 $523 reversed $345 $-1 #
edge $-1 $744 -6.3729703338917645 $527 6.3729703338917645 $522 $745 forward 7 unknown #
coedge $-1 $517 $350 $743 $746 forward $526 $-1 #
coedge $-1 $350 $517 $739 $747 reversed $526 $-1 #
loop $-1 $-1 $524 $723 #
vertex $-1 $351 $748 #
vertex $-1 $351 $749 #
straight-curve $-1 6.3729703338917645 0 119.01974547563096 0 1 0 I I #
loop $-1 $-1 $750 $233 #
coedge $-1 $531 $531 $355 $532 reversed $352 $-1 #
edge $-1 $751 0 $751 6.2831853071796004 $531 $752 forward 7 unknown #
vertex $-1 $356 $753 #
ellipse-curve $-1 0 0 -2.5572832422864451 0 0 -1 1 0 0 1 I I #
loop $-1 $-1 $754 $238 #
coedge $-1 $536 $536 $360 $537 reversed $357 $-1 #
edge $-1 $755 0 $755 6.2831853071796004 $536 $756 forward 7 unknown #
vertex $-1 $361 $757 #
ellipse-curve $-1 0 0 -2.5572832422864451 0 0 -1 1 0 0 1 I I #
loop $-1 $-1 $758 $243 #
coedge $-1 $541 $541 $365 $542 reversed $362 $-1 #
edge $-1 $759 0 $759 6.2831853071796004 $541 $760 forward 7 unknown #
vertex $-1 $366 $761 #
ellipse-curve $-1 0 0 -2.5572832422864451 0 0 -1 1 0 0 1 I I #
face $-1 $762 $763 $80 $-1 $764 reversed single #
loop $-1 $-1 $765 $367 #
plane-surface $-1 -12.899587179017976 0 0 1 0 0 0 0 -1 forward_v I I I I #
coedge $-1 $766 $556 $767 $768 forward $368 $-1 #
coedge $-1 $769 $370 $766 $770 forward $249 $-1 #
coedge $-1 $370 $769 $771 $772 forward $249 $-1 #
coedge $-1 $559 $558 $370 $552 reversed $560 $-1 #
edge $-1 $773 -238.03949095126194 $774 238.03949095126194 $551 $775 forward 7 unknown #
coedge $-1 $372 $371 $776 $777 forward $157 $-1 #
coedge $-1 $778 $779 $371 $555 reversed $763 $-1 #
edge $-1 $562 -12.899587179017976 $780 12.899587179017976 $554 $781 forward 7 unknown #
coedge $-1 $548 $782 $372 $557 reversed $368 $-1 #
edge $-1 $783 -12.899587179017976 $561 12.899587179017976 $556 $784 forward 7 unknown #
coedge $-1 $551 $373 $782 $785 forward $560 $-1 #
coedge $-1 $373 $551 $778 $786 reversed $560 $-1 #
loop $-1 $-1 $558 $762 #
vertex $-1 $374 $787 #
vertex $-1 $374 $788 #
straight-curve $-1 12.899587179017976 0 119.01974547563098 0 1 0 I I #
loop $-1 $-1 $789 $252 #
coedge $-1 $565 $565 $378 $566 reversed $375 $-1 #
edge $-1 $790 0 $790 6.2831853071796004 $565 $791 forward 7 unknown #
vertex $-1 $379 $792 #
ellipse-curve $-1 0 0 -5.8633762627033317 0 0 -1 1.5 0 0 1 I I #
loop $-1 $-1 $793 $257 #
coedge $-1 $570 $570 $383 $571 reversed $380 $-1 #
edge $-1 $794 0 $794 6.2831853071796004 $570 $795 forward 7 unknown #
vertex $-1 $384 $796 #
ellipse-curve $-1 0 0 -5.8633762627033317 0 0 -1 1.5 0 0 1 I I #
loop $-1 $-1 $797 $262 #
coedge $-1 $575 $575 $388 $576 reversed $385 $-1 #
edge $-1 $798 0 $798 6.2831853071796004 $575 $799 forward 7 unknown #
vertex $-1 $389 $800 #
ellipse-curve $-1 0 0 -5.8633762627033317 0 0 -1 1.5 0 0 1 I I #
face $-1 $-1 $405 $63 $-1 $801 reversed single #
loop $-1 $-1 $595 $390 #
plane-surface $-1 0 40.307327908216479 0 0 -1 0 0 0 -1 forward_v I I I I #
coedge $-1 $802 $593 $596 $803 forward $391 $-1 #
coedge $-1 $599 $393 $394 $587 reversed $268 $-1 #
coedge $-1 $593 $802 $393 $585 reversed $391 $-1 #
edge $-1 $600 -19.108185332653935 $804 19.108185332653935 $584 $805 forward 7 unknown #
coedge $-1 $395 $394 $802 $806 forward $169 $-1 #
edge $-1 $591 -59.509872737815485 $804 59.509872737815485 $583 $807 forward 7 unknown #
coedge $-1 $596 $595 $395 $589 reversed $580 $-1 #
edge $-1 $808 -59.509872737815485 $590 59.509872737815485 $588 $809 forward 7 unknown #
vertex $-1 $397 $810 #
vertex $-1 $602 $811 #
straight-curve $-1 59.509872737815485 0 -19.108185332653935 0 -1 0 I I #
coedge $-1 $582 $584 $398 $594 reversed $391 $-1 #
edge $-1 $597 -40.307327908216479 $600 40.307327908216479 $593 $812 forward 7 unknown #
coedge $-1 $588 $399 $404 $603 forward $580 $-1 #
coedge $-1 $399 $588 $582 $803 reversed $580 $-1 #
vertex $-1 $400 $813 #
straight-curve $-1 0 40.307327908216479 19.108185332653935 -1 0 0 I I #
coedge $-1 $401 $583 $403 $602 reversed $268 $-1 #
vertex $-1 $594 $814 #
straight-curve $-1 0 -40.307327908216479 19.108185332653935 1 0 0 I I #
edge $-1 $406 -19.108185332653935 $591 19.108185332653935 $403 $815 forward 7 unknown #
edge $-1 $407 -19.108185332653935 $590 19.108185332653935 $404 $816 forward 7 unknown #
point $-1 59.509872737815485 -40.307327908216479 19.108185332653935 #
point $-1 59.509872737815485 40.307327908216479 19.108185332653935 #
face $-1 $-1 $424 $64 $-1 $817 reversed single #
loop $-1 $-1 $622 $409 #
plane-surface $-1 0 238.03949095126194 0 0 -1 0 0 0 -1 forward_v I I I I #
coedge $-1 $818 $620 $623 $819 forward $410 $-1 #
coedge $-1 $626 $412 $413 $614 reversed $276 $-1 #
coedge $-1 $620 $818 $412 $612 reversed $410 $-1 #
edge $-1 $627 -119.01974547563096 $820 119.01974547563096 $611 $821 forward 7 unknown #
coedge $-1 $414 $413 $818 $822 forward $173 $-1 #
edge $-1 $618 -6.3729703338917645 $820 6.3729703338917645 $610 $823 forward 7 unknown #
coedge $-1 $623 $622 $414 $616 reversed $607 $-1 #
edge $-1 $824 -6.3729703338917645 $617 6.3729703338917645 $615 $825 forward 7 unknown #
vertex $-1 $416 $826 #
vertex $-1 $629 $827 #
straight-curve $-1 6.3729703338917645 0 -119.01974547563096 0 -1 0 I I #
coedge $-1 $609 $611 $417 $621 reversed $410 $-1 #
edge $-1 $624 -238.03949095126194 $627 238.03949095126194 $620 $828 forward 7 unknown #
coedge $-1 $615 $418 $423 $630 forward $607 $-1 #
coedge $-1 $418 $615 $609 $819 reversed $607 $-1 #
vertex $-1 $419 $829 #
straight-curve $-1 0 238.03949095126194 119.01974547563096 -1 0 0 I I #
coedge $-1 $420 $610 $422 $629 reversed $276 $-1 #
vertex $-1 $621 $830 #
straight-curve $-1 0 -238.03949095126194 119.01974547563096 1 0 0 I I #
edge $-1 $425 -119.01974547563096 $618 119.01974547563096 $422 $831 forward 7 unknown #
edge $-1 $426 -119.01974547563096 $617 119.01974547563096 $423 $832 forward 7 unknown #
point $-1 6.3729703338917645 -238.03949095126194 119.01974547563096 #
point $-1 6.3729703338917645 238.03949095126194 119.01974547563096 #
coedge $-1 $633 $633 $-1 $833 reversed $428 $-1 #
vertex $-1 $430 $834 #
ellipse-curve $-1 0 0 -0.5 0 0 -1 1 0 0 1 I I #
point $-1 1 0 -2.5572832422864451 #
coedge $-1 $637 $637 $-1 $835 reversed $433 $-1 #
vertex $-1 $435 $836 #
ellipse-curve $-1 0 0 -0.5 0 0 -1 1 0 0 1 I I #
point $-1 1 0 -2.5572832422864451 #
coedge $-1 $641 $641 $-1 $837 reversed $438 $-1 #
vertex $-1 $440 $838 #
ellipse-curve $-1 0 0 -0.5 0 0 -1 1 0 0 1 I I #
point $-1 1 0 -2.5572832422864451 #
face $-1 $-1 $458 $68 $-1 $839 reversed single #
loop $-1 $-1 $661 $443 #
plane-surface $-1 0 238.03949095126194 0 0 -1 0 0 0 -1 forward_v I I I I #
coedge $-1 $840 $659 $662 $841 forward $444 $-1 #
coedge $-1 $665 $446 $447 $653 reversed $299 $-1 #
coedge $-1 $659 $840 $446 $651 reversed $444 $-1 #
edge $-1 $666 -119.01974547563096 $842 119.01974547563096 $650 $843 forward 7 unknown #
coedge $-1 $448 $447 $840 $844 forward $192 $-1 #
edge $-1 $657 -6.3729703338917645 $842 6.3729703338917645 $649 $845 forward 7 unknown #
coedge $-1 $662 $661 $448 $655 reversed $646 $-1 #
edge $-1 $846 -6.3729703338917645 $656 6.3729703338917645 $654 $847 forward 7 unknown #
vertex $-1 $450 $848 #
vertex $-1 $668 $849 #
straight-curve $-1 6.3729703338917645 0 -119.01974547563096 0 -1 0 I I #
coedge $-1 $648 $650 $451 $660 reversed $444 $-1 #
edge $-1 $663 -238.03949095126194 $666 238.03949095126194 $659 $850 forward 7 unknown #
coedge $-1 $654 $452 $457 $669 forward $646 $-1 #
coedge $-1 $452 $654 $648 $841 reversed $646 $-1 #
vertex $-1 $453 $851 #
straight-curve $-1 0 238.03949095126194 119.01974547563096 -1 0 0 I I #
coedge $-1 $454 $649 $456 $668 reversed $299 $-1 #
vertex $-1 $660 $852 #
straight-curve $-1 0 -238.03949095126194 119.01974547563096 1 0 0 I I #
edge $-1 $459 -119.01974547563096 $657 119.01974547563096 $456 $853 forward 7 unknown #
edge $-1 $460 -119.01974547563096 $656 119.01974547563096 $457 $854 forward 7 unknown #
point $-1 6.3729703338917645 -238.03949095126194 119.01974547563096 #
point $-1 6.3729703338917645 238.03949095126194 119.01974547563096 #
coedge $-1 $672 $672 $-1 $855 reversed $462 $-1 #
vertex $-1 $464 $856 #
ellipse-curve $-1 0 0 -0.5 0 0 -1 1 0 0 1 I I #
point $-1 1 0 -2.5572832422864451 #
coedge $-1 $676 $676 $-1 $857 reversed $467 $-1 #
vertex $-1 $469 $858 #
ellipse-curve $-1 0 0 -0.5 0 0 -1 1 0 0 1 I I #
point $-1 1 0 -2.5572832422864451 #
coedge $-1 $680 $680 $-1 $859 reversed $472 $-1 #
vertex $-1 $474 $860 #
ellipse-curve $-1 0 0 -0.5 0 0 -1 1 0 0 1 I I #
point $-1 1 0 -2.5572832422864451 #
face $-1 $-1 $492 $72 $-1 $861 reversed single #
loop $-1 $-1 $700 $477 #
plane-surface $-1 0 238.03949095126194 0 0 -1 0 0 0 -1 forward_v I I I I #
coedge $-1 $862 $698 $701 $863 forward $478 $-1 #
coedge $-1 $704 $480 $481 $692 reversed $322 $-1 #
coedge $-1 $698 $862 $480 $690 reversed $478 $-1 #
edge $-1 $705 -119.01974547563096 $864 119.01974547563096 $689 $865 forward 7 unknown #
coedge $-1 $482 $481 $862 $866 forward $211 $-1 #
edge $-1 $696 -6.3729703338917645 $864 6.3729703338917645 $688 $867 forward 7 unknown #
coedge $-1 $701 $700 $482 $694 reversed $685 $-1 #
edge $-1 $868 -6.3729703338917645 $695 6.3729703338917645 $693 $869 forward 7 unknown #
vertex $-1 $484 $870 #
vertex $-1 $707 $871 #
straight-curve $-1 6.3729703338917645 0 -119.01974547563096 0 -1 0 I I #
coedge $-1 $687 $689 $485 $699 reversed $478 $-1 #
edge $-1 $702 -238.03949095126194 $705 238.03949095126194 $698 $872 forward 7 unknown #
coedge $-1 $693 $486 $491 $708 forward $685 $-1 #
coedge $-1 $486 $693 $687 $863 reversed $685 $-1 #
vertex $-1 $487 $873 #
straight-curve $-1 0 238.03949095126194 119.01974547563096 -1 0 0 I I #
coedge $-1 $488 $688 $490 $707 reversed $322 $-1 #
vertex $-1 $699 $874 #
straight-curve $-1 0 -238.03949095126194 119.01974547563096 1 0 0 I I #
edge $-1 $493 -119.01974547563096 $696 119.01974547563096 $490 $875 forward 7 unknown #
edge $-1 $494 -119.01974547563096 $695 119.01974547563096 $491 $876 forward 7 unknown #
point $-1 6.3729703338917645 -238.03949095126194 119.01974547563096 #
point $-1 6.3729703338917645 238.03949095126194 119.01974547563096 #
coedge $-1 $711 $711 $-1 $877 reversed $496 $-1 #
vertex $-1 $498 $878 #
ellipse-curve $-1 0 0 -0.5 0 0 -1 1 0 0 1 I I #
point $-1 1 0 -2.5572832422864451 #
coedge $-1 $715 $715 $-1 $879 reversed $501 $-1 #
vertex $-1 $503 $880 #
ellipse-curve $-1 0 0 -0.5 0 0 -1 1 0 0 1 I I #
point $-1 1 0 -2.5572832422864451 #
coedge $-1 $719 $719 $-1 $881 reversed $506 $-1 #
vertex $-1 $508 $882 #
ellipse-curve $-1 0 0 -0.5 0 0 -1 1 0 0 1 I I #
point $-1 1 0 -2.5572832422864451 #
face $-1 $-1 $526 $76 $-1 $883 reversed single #
loop $-1 $-1 $739 $511 #
plane-surface $-1 0 238.03949095126194 0 0 -1 0 0 0 -1 forward_v I I I I #
coedge $-1 $884 $737 $740 $885 forward $512 $-1 #
coedge $-1 $743 $514 $515 $731 reversed $345 $-1 #
coedge $-1 $737 $884 $514 $729 reversed $512 $-1 #
edge $-1 $744 -119.01974547563096 $886 119.01974547563096 $728 $887 forward 7 unknown #
coedge $-1 $516 $515 $884 $888 forward $230 $-1 #
edge $-1 $735 -6.3729703338917645 $886 6.3729703338917645 $727 $889 forward 7 unknown #
coedge $-1 $740 $739 $516 $733 reversed $724 $-1 #
edge $-1 $890 -6.3729703338917645 $734 6.3729703338917645 $732 $891 forward 7 unknown #
vertex $-1 $518 $892 #
vertex $-1 $746 $893 #
straight-curve $-1 6.3729703338917645 0 -119.01974547563096 0 -1 0 I I #
coedge $-1 $726 $728 $519 $738 reversed $512 $-1 #
edge $-1 $741 -238.03949095126194 $744 238.03949095126194 $737 $894 forward 7 unknown #
coedge $-1 $732 $520 $525 $747 forward $724 $-1 #
coedge $-1 $520 $732 $726 $885 reversed $724 $-1 #
vertex $-1 $521 $895 #
straight-curve $-1 0 238.03949095126194 119.01974547563096 -1 0 0 I I #
coedge $-1 $522 $727 $524 $746 reversed $345 $-1 #
vertex $-1 $738 $896 #
straight-curve $-1 0 -238.03949095126194 119.01974547563096 1 0 0 I I #
edge $-1 $527 -119.01974547563096 $735 119.01974547563096 $524 $897 forward 7 unknown #
edge $-1 $528 -119.01974547563096 $734 119.01974547563096 $525 $898 forward 7 unknown #
point $-1 6.3729703338917645 -238.03949095126194 119.01974547563096 #
point $-1 6.3729703338917645 238.03949095126194 119.01974547563096 #
coedge $-1 $750 $750 $-1 $899 reversed $530 $-1 #
vertex $-1 $532 $900 #
ellipse-curve $-1 0 0 -0.5 0 0 -1 1 0 0 1 I I #
point $-1 1 0 -2.5572832422864451 #
coedge $-1 $754 $754 $-1 $901 reversed $535 $-1 #
vertex $-1 $537 $902 #
ellipse-curve $-1 0 0 -0.5 0 0 -1 1 0 0 1 I I #
point $-1 1 0 -2.5572832422864451 #
coedge $-1 $758 $758 $-1 $903 reversed $540 $-1 #
vertex $-1 $542 $904 #
ellipse-curve $-1 0 0 -0.5 0 0 -1 1 0 0 1 I I #
point $-1 1 0 -2.5572832422864451 #
face $-1 $-1 $560 $80 $-1 $905 reversed single #
loop $-1 $-1 $778 $545 #
plane-surface $-1 0 238.03949095126194 0 0 -1 0 0 0 -1 forward_v I I I I #
coedge $-1 $906 $776 $779 $907 forward $546 $-1 #
coedge $-1 $782 $548 $549 $770 reversed $368 $-1 #
coedge $-1 $776 $906 $548 $768 reversed $546 $-1 #
edge $-1 $783 -119.01974547563098 $908 119.01974547563098 $767 $909 forward 7 unknown #
coedge $-1 $550 $549 $906 $910 forward $249 $-1 #
edge $-1 $774 -12.899587179017976 $908 12.899587179017976 $766 $911 forward 7 unknown #
coedge $-1 $779 $778 $550 $772 reversed $763 $-1 #
edge $-1 $912 -12.899587179017976 $773 12.899587179017976 $771 $913 forward 7 unknown #
vertex $-1 $552 $914 #
vertex $-1 $785 $915 #
straight-curve $-1 12.899587179017976 0 -119.01974547563098 0 -1 0 I I #
coedge $-1 $765 $767 $553 $777 reversed $546 $-1 #
edge $-1 $780 -238.03949095126194 $783 238.03949095126194 $776 $916 forward 7 unknown #
coedge $-1 $771 $554 $559 $786 forward $763 $-1 #
coedge $-1 $554 $771 $765 $907 reversed $763 $-1 #
vertex $-1 $555 $917 #
straight-curve $-1 0 238.03949095126194 119.01974547563098 -1 0 0 I I #
coedge $-1 $556 $766 $558 $785 reversed $368 $-1 #
vertex $-1 $777 $918 #
straight-curve $-1 0 -238.03949095126194 119.01974547563098 1 0 0 I I #
edge $-1 $561 -119.01974547563098 $774 119.01974547563098 $558 $919 forward 7 unknown #
edge $-1 $562 -119.01974547563098 $773 119.01974547563098 $559 $920 forward 7 unknown #
point $-1 12.899587179017976 -238.03949095126194 119.01974547563098 #
point $-1 12.899587179017976 238.03949095126194 119.01974547563098 #
coedge $-1 $789 $789 $-1 $921 reversed $564 $-1 #
vertex $-1 $566 $922 #
ellipse-curve $-1 0 0 -0.75 0 0 -1 1.5 0 0 1 I I #
point $-1 1.5 0 -5.8633762627033317 #
coedge $-1 $793 $793 $-1 $923 reversed $569 $-1 #
vertex $-1 $571 $924 #
ellipse-curve $-1 0 0 -0.75 0 0 -1 1.5 0 0 1 I I #
point $-1 1.5 0 -5.8633762627033317 #
coedge $-1 $797 $797 $-1 $925 reversed $574 $-1 #
vertex $-1 $576 $926 #
ellipse-curve $-1 0 0 -0.75 0 0 -1 1.5 0 0 1 I I #
point $-1 1.5 0 -5.8633762627033317 #
plane-surface $-1 59.509872737815485 0 0 -1 0 0 0 0 1 forward_v I I I I #
coedge $-1 $584 $582 $586 $806 reversed $391 $-1 #
edge $-1 $597 -19.108185332653935 $808 19.108185332653935 $596 $927 forward 7 unknown #
vertex $-1 $806 $928 #
straight-curve $-1 -59.509872737815485 -40.307327908216479 0 0 0 -1 I I #
edge $-1 $804 -40.307327908216479 $808 40.307327908216479 $802 $929 forward 7 unknown #
straight-curve $-1 0 -40.307327908216479 -19.108185332653935 -1 0 0 I I #
vertex $-1 $589 $930 #
straight-curve $-1 0 40.307327908216479 -19.108185332653935 1 0 0 I I #
point $-1 59.509872737815485 40.307327908216479 -19.108185332653935 #
point $-1 59.509872737815485 -40.307327908216479 -19.108185332653935 #
straight-curve $-1 -59.509872737815485 0 19.108185332653935 0 -1 0 I I #
point $-1 -59.509872737815485 40.307327908216479 19.108185332653935 #
point $-1 -59.509872737815485 -40.307327908216479 19.108185332653935 #
straight-curve $-1 59.509872737815485 -40.307327908216479 0 0 0 -1 I I #
straight-curve $-1 59.509872737815485 40.307327908216479 0 0 0 -1 I I #
plane-surface $-1 6.3729703338917645 0 0 -1 0 0 0 0 1 forward_v I I I I #
coedge $-1 $611 $609 $613 $822 reversed $410 $-1 #
edge $-1 $624 -119.01974547563096 $824 119.01974547563096 $623 $931 forward 7 unknown #
vertex $-1 $822 $932 #
straight-curve $-1 -6.3729703338917645 -238.03949095126194 0 0 0 -1 I I #
edge $-1 $820 -238.03949095126194 $824 238.03949095126194 $818 $933 forward 7 unknown #
straight-curve $-1 0 -238.03949095126194 -119.01974547563096 -1 0 0 I I #
vertex $-1 $616 $934 #
straight-curve $-1 0 238.03949095126194 -119.01974547563096 1 0 0 I I #
point $-1 6.3729703338917645 238.03949095126194 -119.01974547563096 #
point $-1 6.3729703338917645 -238.03949095126194 -119.01974547563096 #
straight-curve $-1 -6.3729703338917645 0 119.01974547563096 0 -1 0 I I #
point $-1 -6.3729703338917645 238.03949095126194 119.01974547563096 #
point $-1 -6.3729703338917645 -238.03949095126194 119.01974547563096 #
straight-curve $-1 6.3729703338917645 -238.03949095126194 0 0 0 -1 I I #
straight-curve $-1 6.3729703338917645 238.03949095126194 0 0 0 -1 I I #
edge $-1 $935 1 $935 0 $633 $-1 forward 7 unknown #
point $-1 1 0 -0.5 #
edge $-1 $936 1 $936 0 $637 $-1 forward 7 unknown #
point $-1 1 0 -0.5 #
edge $-1 $937 1 $937 0 $641 $-1 forward 7 unknown #
point $-1 1 0 -0.5 #
plane-surface $-1 6.3729703338917645 0 0 -1 0 0 0 0 1 forward_v I I I I #
coedge $-1 $650 $648 $652 $844 reversed $444 $-1 #
edge $-1 $663 -119.01974547563096 $846 119.01974547563096 $662 $938 forward 7 unknown #
vertex $-1 $844 $939 #
straight-curve $-1 -6.3729703338917645 -238.03949095126194 0 0 0 -1 I I #
edge $-1 $842 -238.03949095126194 $846 238.03949095126194 $840 $940 forward 7 unknown #
straight-curve $-1 0 -238.03949095126194 -119.01974547563096 -1 0 0 I I #
vertex $-1 $655 $941 #
straight-curve $-1 0 238.03949095126194 -119.01974547563096 1 0 0 I I #
point $-1 6.3729703338917645 238.03949095126194 -119.01974547563096 #
point $-1 6.3729703338917645 -238.03949095126194 -119.01974547563096 #
straight-curve $-1 -6.3729703338917645 0 119.01974547563096 0 -1 0 I I #
point $-1 -6.3729703338917645 238.03949095126194 119.01974547563096 #
point $-1 -6.3729703338917645 -238.03949095126194 119.01974547563096 #
straight-curve $-1 6.3729703338917645 -238.03949095126194 0 0 0 -1 I I #
straight-curve $-1 6.3729703338917645 238.03949095126194 0 0 0 -1 I I #
edge $-1 $942 1 $942 0 $672 $-1 forward 7 unknown #
point $-1 1 0 -0.5 #
edge $-1 $943 1 $943 0 $676 $-1 forward 7 unknown #
point $-1 1 0 -0.5 #
edge $-1 $944 1 $944 0 $680 $-1 forward 7 unknown #
point $-1 1 0 -0.5 #
plane-surface $-1 6.3729703338917645 0 0 -1 0 0 0 0 1 forward_v I I I I #
coedge $-1 $689 $687 $691 $866 reversed $478 $-1 #
edge $-1 $702 -119.01974547563096 $868 119.01974547563096 $701 $945 forward 7 unknown #
vertex $-1 $866 $946 #
straight-curve $-1 -6.3729703338917645 -238.03949095126194 0 0 0 -1 I I #
edge $-1 $864 -238.03949095126194 $868 238.03949095126194 $862 $947 forward 7 unknown #
straight-curve $-1 0 -238.03949095126194 -119.01974547563096 -1 0 0 I I #
vertex $-1 $694 $948 #
straight-curve $-1 0 238.03949095126194 -119.01974547563096 1 0 0 I I #
point $-1 6.3729703338917645 238.03949095126194 -119.01974547563096 #
point $-1 6.3729703338917645 -238.03949095126194 -119.01974547563096 #
straight-curve $-1 -6.3729703338917645 0 119.01974547563096 0 -1 0 I I #
point $-1 -6.3729703338917645 238.03949095126194 119.01974547563096 #
point $-1 -6.3729703338917645 -238.03949095126194 119.01974547563096 #
straight-curve $-1 6.3729703338917645 -238.03949095126194 0 0 0 -1 I I #
straight-curve $-1 6.3729703338917645 238.03949095126194 0 0 0 -1 I I #
edge $-1 $949 1 $949 0 $711 $-1 forward 7 unknown #
point $-1 1 0 -0.5 #
edge $-1 $950 1 $950 0 $715 $-1 forward 7 unknown #
point $-1 1 0 -0.5 #
edge $-1 $951 1 $951 0 $719 $-1 forward 7 unknown #
point $-1 1 0 -0.5 #
plane-surface $-1 6.3729703338917645 0 0 -1 0 0 0 0 1 forward_v I I I I #
coedge $-1 $728 $726 $730 $888 reversed $512 $-1 #
edge $-1 $741 -119.01974547563096 $890 119.01974547563096 $740 $952 forward 7 unknown #
vertex $-1 $888 $953 #
straight-curve $-1 -6.3729703338917645 -238.03949095126194 0 0 0 -1 I I #
edge $-1 $886 -238.03949095126194 $890 238.03949095126194 $884 $954 forward 7 unknown #
straight-curve $-1 0 -238.03949095126194 -119.01974547563096 -1 0 0 I I #
vertex $-1 $733 $955 #
straight-curve $-1 0 238.03949095126194 -119.01974547563096 1 0 0 I I #
point $-1 6.3729703338917645 238.03949095126194 -119.01974547563096 #
point $-1 6.3729703338917645 -238.03949095126194 -119.01974547563096 #
straight-curve $-1 -6.3729703338917645 0 119.01974547563096 0 -1 0 I I #
point $-1 -6.3729703338917645 238.03949095126194 119.01974547563096 #
point $-1 -6.3729703338917645 -238.03949095126194 119.01974547563096 #
straight-curve $-1 6.3729703338917645 -238.03949095126194 0 0 0 -1 I I #
straight-curve $-1 6.3729703338917645 238.03949095126194 0 0 0 -1 I I #
edge $-1 $956 1 $956 0 $750 $-1 forward 7 unknown #
point $-1 1 0 -0.5 #
edge $-1 $957 1 $957 0 $754 $-1 forward 7 unknown #
point $-1 1 0 -0.5 #
edge $-1 $958 1 $958 0 $758 $-1 forward 7 unknown #
point $-1 1 0 -0.5 #
plane-surface $-1 12.899587179017976 0 0 -1 0 0 0 0 1 forward_v I I I I #
coedge $-1 $767 $765 $769 $910 reversed $546 $-1 #
edge $-1 $780 -119.01974547563098 $912 119.01974547563098 $779 $959 forward 7 unknown #
vertex $-1 $910 $960 #
straight-curve $-1 -12.899587179017976 -238.03949095126194 0 0 0 -1 I I #
edge $-1 $908 -238.03949095126194 $912 238.03949095126194 $906 $961 forward 7 unknown #
straight-curve $-1 0 -238.03949095126194 -119.01974547563098 -1 0 0 I I #
vertex $-1 $772 $962 #
straight-curve $-1 0 238.03949095126194 -119.01974547563098 1 0 0 I I #
point $-1 12.899587179017976 238.03949095126194 -119.01974547563098 #
point $-1 12.899587179017976 -238.03949095126194 -119.01974547563098 #
straight-curve $-1 -12.899587179017976 0 119.01974547563098 0 -1 0 I I #
point $-1 -12.899587179017976 238.03949095126194 119.01974547563098 #
point $-1 -12.899587179017976 -238.03949095126194 119.01974547563098 #
straight-curve $-1 12.899587179017976 -238.03949095126194 0 0 0 -1 I I #
straight-curve $-1 12.899587179017976 238.03949095126194 0 0 0 -1 I I #
edge $-1 $963 1 $963 0 $789 $-1 forward 7 unknown #
point $-1 1.5 0 -0.75 #
edge $-1 $964 1 $964 0 $793 $-1 forward 7 unknown #
point $-1 1.5 0 -0.75 #
edge $-1 $965 1 $965 0 $797 $-1 forward 7 unknown #
point $-1 1.5 0 -0.75 #
straight-curve $-1 -59.509872737815485 40.307327908216479 0 0 0 -1 I I #
point $-1 -59.509872737815485 -40.307327908216479 -19.108185332653935 #
straight-curve $-1 -59.509872737815485 0 -19.108185332653935 0 1 0 I I #
point $-1 -59.509872737815485 40.307327908216479 -19.108185332653935 #
straight-curve $-1 -6.3729703338917645 238.03949095126194 0 0 0 -1 I I #
point $-1 -6.3729703338917645 -238.03949095126194 -119.01974547563096 #
straight-curve $-1 -6.3729703338917645 0 -119.01974547563096 0 1 0 I I #
point $-1 -6.3729703338917645 238.03949095126194 -119.01974547563096 #
vertex $-1 $833 $966 #
vertex $-1 $835 $967 #
vertex $-1 $837 $968 #
straight-curve $-1 -6.3729703338917645 238.03949095126194 0 0 0 -1 I I #
point $-1 -6.3729703338917645 -238.03949095126194 -119.01974547563096 #
straight-curve $-1 -6.3729703338917645 0 -119.01974547563096 0 1 0 I I #
point $-1 -6.3729703338917645 238.03949095126194 -119.01974547563096 #
vertex $-1 $855 $969 #
vertex $-1 $857 $970 #
vertex $-1 $859 $971 #
straight-curve $-1 -6.3729703338917645 238.03949095126194 0 0 0 -1 I I #
point $-1 -6.3729703338917645 -238.03949095126194 -119.01974547563096 #
straight-curve $-1 -6.3729703338917645 0 -119.01974547563096 0 1 0 I I #
point $-1 -6.3729703338917645 238.03949095126194 -119.01974547563096 #
vertex $-1 $877 $972 #
vertex $-1 $879 $973 #
vertex $-1 $881 $974 #
straight-curve $-1 -6.3729703338917645 238.03949095126194 0 0 0 -1 I I #
point $-1 -6.3729703338917645 -238.03949095126194 -119.01974547563096 #
straight-curve $-1 -6.3729703338917645 0 -119.01974547563096 0 1 0 I I #
point $-1 -6.3729703338917645 238.03949095126194 -119.01974547563096 #
vertex $-1 $899 $975 #
vertex $-1 $901 $976 #
vertex $-1 $903 $977 #
straight-curve $-1 -12.899587179017976 238.03949095126194 0 0 0 -1 I I #
point $-1 -12.899587179017976 -238.03949095126194 -119.01974547563098 #
straight-curve $-1 -12.899587179017976 0 -119.01974547563098 0 1 0 I I #
point $-1 -12.899587179017976 238.03949095126194 -119.01974547563098 #
vertex $-1 $921 $978 #
vertex $-1 $923 $979 #
vertex $-1 $925 $980 #
point $-1 0 0 0.5 #
point $-1 0 0 0.5 #
point $-1 0 0 0.5 #
point $-1 0 0 0.5 #
point $-1 0 0 0.5 #
point $-1 0 0 0.5 #
point $-1 0 0 0.5 #
point $-1 0 0 0.5 #
point $-1 0 0 0.5 #
point $-1 0 0 0.5 #
point $-1 0 0 0.5 #
point $-1 0 0 0.5 #
point $-1 0 0 0.75 #
point $-1 0 0 0.75 #
point $-1 0 0 0.75 #
End-of-ACIS-data 