500 0 12 0           
7 Unknown 11 ACIS 5.0 NT 24 Fri Mar 26 14:57:10 1999 
-1 9.9999999999999995e-007 1e-010 
body $-1 $12 $-1 $13 #
body $-1 $14 $-1 $15 #
body $-1 $16 $-1 $17 #
body $-1 $18 $-1 $19 #
body $-1 $20 $-1 $21 #
body $-1 $22 $-1 $23 #
body $-1 $24 $-1 $25 #
body $-1 $26 $-1 $27 #
body $-1 $28 $-1 $29 #
body $-1 $30 $-1 $31 #
body $-1 $32 $-1 $33 #
body $-1 $34 $-1 $35 #
lump $-1 $-1 $36 $0 #
transform $-1 1 0 0 0 1 0 0 0 1 62.993865779595325 31.54172664792824 9.6299152618754871 1 rotate no_reflect no_shear #
lump $-1 $-1 $37 $1 #
transform $-1 1 0 0 0 1 0 0 0 1 62.993865779595325 31.54172664792824 9.6299152618754871 1 rotate no_reflect no_shear #
lump $-1 $-1 $38 $2 #
transform $-1 1 0 0 0 1 0 0 0 1 62.993865779595325 31.54172664792824 9.6299152618754871 1 rotate no_reflect no_shear #
lump $-1 $-1 $39 $3 #
transform $-1 1 0 0 0 1 0 0 0 1 62.993865779595325 31.54172664792824 9.6299152618754871 1 rotate no_reflect no_shear #
lump $-1 $-1 $40 $4 #
transform $-1 1 0 0 0 1 0 0 0 1 62.993865779595325 31.54172664792824 9.6299152618754871 1 rotate no_reflect no_shear #
lump $-1 $-1 $41 $5 #
transform $-1 1 0 0 0 1 0 0 0 1 62.993865779595325 31.54172664792824 9.6299152618754871 1 rotate no_reflect no_shear #
lump $-1 $-1 $42 $6 #
transform $-1 1 0 0 0 1 0 0 0 1 62.993865779595325 31.54172664792824 9.6299152618754871 1 rotate no_reflect no_shear #
lump $-1 $-1 $43 $7 #
transform $-1 1 0 0 0 1 0 0 0 1 62.993865779595325 31.54172664792824 9.6299152618754871 1 rotate no_reflect no_shear #
lump $-1 $-1 $44 $8 #
transform $-1 1 0 0 0 1 0 0 0 1 62.993865779595325 31.54172664792824 9.6299152618754871 1 rotate no_reflect no_shear #
lump $-1 $-1 $45 $9 #
transform $-1 1 0 0 0 1 0 0 0 1 62.993865779595325 31.54172664792824 9.6299152618754871 1 rotate no_reflect no_shear #
lump $-1 $-1 $46 $10 #
transform $-1 1 0 0 0 1 0 0 0 1 62.993865779595325 31.54172664792824 9.6299152618754871 1 rotate no_reflect no_shear #
lump $-1 $-1 $47 $11 #
transform $-1 1 0 0 0 1 0 0 0 1 62.993865779595325 31.54172664792824 9.6299152618754871 1 rotate no_reflect no_shear #
shell $-1 $-1 $-1 $48 $-1 $12 #
shell $-1 $-1 $-1 $49 $-1 $14 #
shell $-1 $-1 $-1 $50 $-1 $16 #
shell $-1 $-1 $-1 $51 $-1 $18 #
shell $-1 $-1 $-1 $52 $-1 $20 #
shell $-1 $-1 $-1 $53 $-1 $22 #
shell $-1 $-1 $-1 $54 $-1 $24 #
shell $-1 $-1 $-1 $55 $-1 $26 #
shell $-1 $-1 $-1 $56 $-1 $28 #
shell $-1 $-1 $-1 $57 $-1 $30 #
shell $-1 $-1 $-1 $58 $-1 $32 #
shell $-1 $-1 $-1 $59 $-1 $34 #
face $-1 $60 $61 $36 $-1 $62 forward single #
face $-1 $63 $64 $37 $-1 $65 reversed single #
face $-1 $66 $67 $38 $-1 $68 reversed single #
face $-1 $69 $70 $39 $-1 $71 forward single #
face $-1 $72 $73 $40 $-1 $74 reversed single #
face $-1 $75 $76 $41 $-1 $77 forward single #
face $-1 $78 $79 $42 $-1 $80 forward single #
face $-1 $81 $82 $43 $-1 $83 forward single #
face $-1 $84 $85 $44 $-1 $86 reversed single #
face $-1 $87 $88 $45 $-1 $89 forward single #
face $-1 $90 $91 $46 $-1 $92 forward single #
face $-1 $93 $94 $47 $-1 $95 forward single #
face $-1 $96 $97 $36 $-1 $98 reversed single #
loop $-1 $-1 $99 $48 #
plane-surface $-1 0 0 9.6299152618754871 0 0 1 1 0 0 forward_v I I I I #
face $-1 $100 $101 $37 $-1 $102 reversed single #
loop $-1 $-1 $103 $49 #
plane-surface $-1 0 -26.148644943738574 6.3173560748060762 0 0 1 1 0 0 forward_v I I I I #
face $-1 $104 $105 $38 $-1 $106 reversed single #
loop $-1 $-1 $107 $50 #
plane-surface $-1 -162.2735541107096 19.910424527345508 83.218427929131565 0 1 0 -0.78801076186113728 0 0.61566146476048833 forward_v I I I I #
face $-1 $108 $109 $39 $-1 $110 forward single #
loop $-1 $111 $112 $51 #
cone-surface $-1 -60.472129556074229 25.726075587636874 6.8849594740879825 0.78801076186113728 0 -0.61566146476048833 0.61566146476048833 0 0.78801076186113728 1 I I 0 1 1 forward I I I I #
face $-1 $113 $114 $40 $-1 $115 reversed single #
loop $-1 $-1 $116 $52 #
plane-surface $-1 87.790834858989683 -8.1963120702789674 181.51536461473296 0 -1 0 -0.79863551827123203 0 -0.60181501223851219 forward_v I I I I #
face $-1 $117 $118 $41 $-1 $119 forward single #
loop $-1 $120 $121 $53 #
cone-surface $-1 60.590733994512803 -16.643430044240379 6.8349762514132593 -0.79863551827123203 0 -0.60181501223851219 0.3009075061192561 0 -0.39931775913561601 1 I I 0 1 0.5 forward I I I I #
face $-1 $122 $123 $42 $-1 $124 forward single #
loop $-1 $125 $126 $54 #
cone-surface $-1 60.590733994512803 -13.47576080400485 6.8349762514132593 -0.79863551827123203 0 -0.60181501223851219 0.3009075061192561 0 -0.39931775913561601 1 I I 0 1 0.5 forward I I I I #
face $-1 $127 $128 $43 $-1 $129 forward single #
loop $-1 $130 $131 $55 #
cone-surface $-1 60.590733994512803 -10.30809156376932 6.8349762514132593 -0.79863551827123203 0 -0.60181501223851219 0.3009075061192561 0 -0.39931775913561601 1 I I 0 1 0.5 forward I I I I #
face $-1 $132 $133 $44 $-1 $134 reversed single #
loop $-1 $-1 $135 $56 #
plane-surface $-1 87.790834858989683 29.541372946110059 181.51536461473296 0 -1 0 -0.79863551827123203 0 -0.60181501223851219 forward_v I I I I #
face $-1 $136 $137 $45 $-1 $138 forward single #
loop $-1 $139 $140 $57 #
cone-surface $-1 60.590733994512803 21.094254972148651 6.8349762514132593 -0.79863551827123203 0 -0.60181501223851219 0.3009075061192561 0 -0.39931775913561601 1 I I 0 1 0.5 forward I I I I #
face $-1 $141 $142 $46 $-1 $143 forward single #
loop $-1 $144 $145 $58 #
cone-surface $-1 60.590733994512803 24.261924212384177 6.8349762514132593 -0.79863551827123203 0 -0.60181501223851219 0.3009075061192561 0 -0.39931775913561601 1 I I 0 1 0.5 forward I I I I #
face $-1 $146 $147 $47 $-1 $148 forward single #
loop $-1 $149 $150 $59 #
cone-surface $-1 60.590733994512803 27.429593452619709 6.8349762514132593 -0.79863551827123203 0 -0.60181501223851219 0.3009075061192561 0 -0.39931775913561601 1 I I 0 1 0.5 forward I I I I #
face $-1 $151 $152 $36 $-1 $153 reversed single #
loop $-1 $-1 $154 $60 #
plane-surface $-1 0 0 -9.6299152618754871 0 0 1 1 0 0 forward_v I I I I #
coedge $-1 $155 $156 $157 $158 forward $61 $-1 #
face $-1 $159 $160 $37 $-1 $161 reversed single #
loop $-1 $-1 $162 $63 #
plane-surface $-1 0 -20.755563239548909 7.9736356683407816 0 -1 0 0 0 -1 forward_v I I I I #
coedge $-1 $163 $164 $165 $166 reversed $64 $-1 #
face $-1 $167 $168 $38 $-1 $169 forward single #
loop $-1 $-1 $170 $66 #
plane-surface $-1 -62.993865779595325 25.726075587636874 5.6526365755490531 -0.78801076186113728 0 0.61566146476048833 0.61566146476048833 0 0.78801076186113728 forward_v I I I I #
coedge $-1 $171 $172 $173 $174 reversed $67 $-1 #
face $-1 $-1 $175 $39 $-1 $176 forward single #
loop $-1 $177 $178 $69 #
cone-surface $-1 -59.110083243804311 25.726075587636874 5.820812297083453 0.78801076186113728 0 -0.61566146476048833 0.30783073238024417 0 0.39400538093056864 1 I I -0.70710678118654746 0.70710678118654746 0.5 forward I I I I #
loop $-1 $-1 $179 $51 #
coedge $-1 $112 $112 $180 $181 reversed $70 $-1 #
face $-1 $182 $183 $40 $-1 $184 reversed single #
loop $-1 $-1 $185 $72 #
plane-surface $-1 -12.827442430601394 -13.47576080400485 105.69405640453625 0.79863551827123203 0 0.60181501223851219 0.60181501223851219 0 -0.79863551827123203 forward_v I I I I #
coedge $-1 $186 $187 $188 $189 reversed $73 $-1 #
face $-1 $-1 $190 $41 $-1 $191 forward single #
loop $-1 $192 $193 $75 #
cone-surface $-1 59.703837150195866 -16.643430044240379 6.166651561356554 -0.79863551827123203 0 -0.60181501223851219 0.15045375305962805 0 -0.19965887956780801 1 I I -0.70710678118654746 0.70710678118654746 0.25 forward I I I I #
loop $-1 $-1 $194 $53 #
coedge $-1 $121 $121 $195 $196 reversed $76 $-1 #
face $-1 $-1 $197 $42 $-1 $198 forward single #
loop $-1 $199 $200 $78 #
cone-surface $-1 59.703837150195866 -13.47576080400485 6.166651561356554 -0.79863551827123203 0 -0.60181501223851219 0.15045375305962805 0 -0.19965887956780801 1 I I -0.70710678118654746 0.70710678118654746 0.25 forward I I I I #
loop $-1 $-1 $201 $54 #
coedge $-1 $126 $126 $202 $203 reversed $79 $-1 #
face $-1 $-1 $204 $43 $-1 $205 forward single #
loop $-1 $206 $207 $81 #
cone-surface $-1 59.703837150195866 -10.30809156376932 6.166651561356554 -0.79863551827123203 0 -0.60181501223851219 0.15045375305962805 0 -0.19965887956780801 1 I I -0.70710678118654746 0.70710678118654746 0.25 forward I I I I #
loop $-1 $-1 $208 $55 #
coedge $-1 $131 $131 $209 $210 reversed $82 $-1 #
face $-1 $211 $212 $44 $-1 $213 reversed single #
loop $-1 $-1 $214 $84 #
plane-surface $-1 -12.827442430601394 24.261924212384177 105.69405640453625 0.79863551827123203 0 0.60181501223851219 0.60181501223851219 0 -0.79863551827123203 forward_v I I I I #
coedge $-1 $215 $216 $217 $218 reversed $85 $-1 #
face $-1 $-1 $219 $45 $-1 $220 forward single #
loop $-1 $221 $222 $87 #
cone-surface $-1 59.703837150195866 21.094254972148651 6.166651561356554 -0.79863551827123203 0 -0.60181501223851219 0.15045375305962805 0 -0.19965887956780801 1 I I -0.70710678118654746 0.70710678118654746 0.25 forward I I I I #
loop $-1 $-1 $223 $57 #
coedge $-1 $140 $140 $224 $225 reversed $88 $-1 #
face $-1 $-1 $226 $46 $-1 $227 forward single #
loop $-1 $228 $229 $90 #
cone-surface $-1 59.703837150195866 24.261924212384177 6.166651561356554 -0.79863551827123203 0 -0.60181501223851219 0.15045375305962805 0 -0.19965887956780801 1 I I -0.70710678118654746 0.70710678118654746 0.25 forward I I I I #
loop $-1 $-1 $230 $58 #
coedge $-1 $145 $145 $231 $232 reversed $91 $-1 #
face $-1 $-1 $233 $47 $-1 $234 forward single #
loop $-1 $235 $236 $93 #
cone-surface $-1 59.703837150195866 27.429593452619709 6.166651561356554 -0.79863551827123203 0 -0.60181501223851219 0.15045375305962805 0 -0.19965887956780801 1 I I -0.70710678118654746 0.70710678118654746 0.25 forward I I I I #
loop $-1 $-1 $237 $59 #
coedge $-1 $150 $150 $238 $239 reversed $94 $-1 #
face $-1 $240 $241 $36 $-1 $242 reversed single #
loop $-1 $-1 $243 $96 #
plane-surface $-1 0 -31.54172664792824 0 0 1 0 0 0 1 forward_v I I I I #
coedge $-1 $244 $245 $246 $247 forward $97 $-1 #
coedge $-1 $248 $99 $249 $250 forward $61 $-1 #
coedge $-1 $99 $248 $251 $252 forward $61 $-1 #
coedge $-1 $253 $254 $99 $158 reversed $255 $-1 #
edge $-1 $256 -31.54172664792824 $257 31.54172664792824 $157 $258 forward 7 unknown #
face $-1 $259 $260 $37 $-1 $261 reversed single #
loop $-1 $-1 $262 $100 #
plane-surface $-1 -62.993865779595325 0 0 1 0 0 0 0 -1 forward_v I I I I #
coedge $-1 $263 $264 $265 $266 reversed $101 $-1 #
coedge $-1 $267 $103 $268 $269 reversed $64 $-1 #
coedge $-1 $103 $267 $263 $270 forward $64 $-1 #
coedge $-1 $265 $271 $103 $166 forward $272 $-1 #
edge $-1 $273 -18.467404176058952 $274 -7.6812407676796219 $165 $275 forward 7 unknown #
face $-1 $276 $277 $38 $-1 $278 reversed single #
loop $-1 $-1 $173 $104 #
plane-surface $-1 0 0 9.6299152618754871 0 0 1 1 0 0 forward_v I I I I #
coedge $-1 $279 $280 $281 $282 reversed $105 $-1 #
coedge $-1 $172 $107 $283 $284 reversed $67 $-1 #
coedge $-1 $107 $171 $279 $285 reversed $67 $-1 #
coedge $-1 $281 $286 $107 $174 forward $168 $-1 #
edge $-1 $287 18.142911275759474 $288 21.250301860122967 $173 $289 forward 7 unknown #
loop $-1 $-1 $180 $108 #
plane-surface $-1 -62.993865779595325 25.726075587636874 5.6526365755490531 -0.78801076186113728 0 0.61566146476048833 0.61566146476048833 0 0.78801076186113728 forward_v I I I I #
loop $-1 $-1 $290 $69 #
coedge $-1 $178 $178 $179 $291 reversed $109 $-1 #
coedge $-1 $179 $179 $178 $291 forward $111 $-1 #
coedge $-1 $180 $180 $112 $181 forward $175 $-1 #
edge $-1 $292 0 $292 6.2831853071796004 $180 $293 forward 7 unknown #
face $-1 $294 $295 $40 $-1 $296 reversed single #
loop $-1 $-1 $297 $113 #
plane-surface $-1 87.790834858989683 -18.755209537730732 181.51536461473296 0 1 0 0.79863551827123203 0 0.60181501223851219 forward_v I I I I #
coedge $-1 $298 $299 $300 $301 reversed $114 $-1 #
coedge $-1 $187 $116 $302 $303 reversed $73 $-1 #
coedge $-1 $116 $186 $298 $304 reversed $73 $-1 #
coedge $-1 $300 $305 $116 $189 forward $306 $-1 #
edge $-1 $307 -19.098448350100483 $308 -15.6666607094337 $188 $309 forward 7 unknown #
loop $-1 $-1 $195 $117 #
plane-surface $-1 -12.827442430601394 -13.47576080400485 105.69405640453625 0.79863551827123203 0 0.60181501223851219 0.60181501223851219 0 -0.79863551827123203 forward_v I I I I #
loop $-1 $-1 $310 $75 #
coedge $-1 $193 $193 $194 $311 reversed $118 $-1 #
coedge $-1 $194 $194 $193 $311 forward $120 $-1 #
coedge $-1 $195 $195 $121 $196 forward $190 $-1 #
edge $-1 $312 0 $312 6.2831853071796004 $195 $313 forward 7 unknown #
loop $-1 $-1 $202 $122 #
plane-surface $-1 -12.827442430601394 -13.47576080400485 105.69405640453625 0.79863551827123203 0 0.60181501223851219 0.60181501223851219 0 -0.79863551827123203 forward_v I I I I #
loop $-1 $-1 $314 $78 #
coedge $-1 $200 $200 $201 $315 reversed $123 $-1 #
coedge $-1 $201 $201 $200 $315 forward $125 $-1 #
coedge $-1 $202 $202 $126 $203 forward $197 $-1 #
edge $-1 $316 0 $316 6.2831853071796004 $202 $317 forward 7 unknown #
loop $-1 $-1 $209 $127 #
plane-surface $-1 -12.827442430601394 -13.47576080400485 105.69405640453625 0.79863551827123203 0 0.60181501223851219 0.60181501223851219 0 -0.79863551827123203 forward_v I I I I #
loop $-1 $-1 $318 $81 #
coedge $-1 $207 $207 $208 $319 reversed $128 $-1 #
coedge $-1 $208 $208 $207 $319 forward $130 $-1 #
coedge $-1 $209 $209 $131 $210 forward $204 $-1 #
edge $-1 $320 0 $320 6.2831853071796004 $209 $321 forward 7 unknown #
face $-1 $322 $323 $44 $-1 $324 reversed single #
loop $-1 $-1 $325 $132 #
plane-surface $-1 87.790834858989683 18.982475478658294 181.51536461473296 0 1 0 0.79863551827123203 0 0.60181501223851219 forward_v I I I I #
coedge $-1 $326 $327 $328 $329 reversed $133 $-1 #
coedge $-1 $216 $135 $330 $331 reversed $85 $-1 #
coedge $-1 $135 $215 $326 $332 reversed $85 $-1 #
coedge $-1 $328 $333 $135 $218 forward $334 $-1 #
edge $-1 $335 -19.098448350100483 $336 -15.6666607094337 $217 $337 forward 7 unknown #
loop $-1 $-1 $224 $136 #
plane-surface $-1 -12.827442430601394 24.261924212384177 105.69405640453625 0.79863551827123203 0 0.60181501223851219 0.60181501223851219 0 -0.79863551827123203 forward_v I I I I #
loop $-1 $-1 $338 $87 #
coedge $-1 $222 $222 $223 $339 reversed $137 $-1 #
coedge $-1 $223 $223 $222 $339 forward $139 $-1 #
coedge $-1 $224 $224 $140 $225 forward $219 $-1 #
edge $-1 $340 0 $340 6.2831853071796004 $224 $341 forward 7 unknown #
loop $-1 $-1 $231 $141 #
plane-surface $-1 -12.827442430601394 24.261924212384177 105.69405640453625 0.79863551827123203 0 0.60181501223851219 0.60181501223851219 0 -0.79863551827123203 forward_v I I I I #
loop $-1 $-1 $342 $90 #
coedge $-1 $229 $229 $230 $343 reversed $142 $-1 #
coedge $-1 $230 $230 $229 $343 forward $144 $-1 #
coedge $-1 $231 $231 $145 $232 forward $226 $-1 #
edge $-1 $344 0 $344 6.2831853071796004 $231 $345 forward 7 unknown #
loop $-1 $-1 $238 $146 #
plane-surface $-1 -12.827442430601394 24.261924212384177 105.69405640453625 0.79863551827123203 0 0.60181501223851219 0.60181501223851219 0 -0.79863551827123203 forward_v I I I I #
loop $-1 $-1 $346 $93 #
coedge $-1 $236 $236 $237 $347 reversed $147 $-1 #
coedge $-1 $237 $237 $236 $347 forward $149 $-1 #
coedge $-1 $238 $238 $150 $239 forward $233 $-1 #
edge $-1 $348 0 $348 6.2831853071796004 $238 $349 forward 7 unknown #
face $-1 $350 $351 $36 $-1 $352 reversed single #
loop $-1 $-1 $353 $151 #
plane-surface $-1 -62.993865779595325 0 0 1 0 0 0 0 -1 forward_v I I I I #
coedge $-1 $354 $251 $355 $356 forward $152 $-1 #
coedge $-1 $357 $154 $354 $358 forward $97 $-1 #
coedge $-1 $154 $357 $359 $360 forward $97 $-1 #
coedge $-1 $254 $253 $154 $247 reversed $255 $-1 #
edge $-1 $361 -31.54172664792824 $362 31.54172664792824 $246 $363 forward 7 unknown #
coedge $-1 $156 $155 $364 $365 forward $61 $-1 #
coedge $-1 $366 $367 $155 $250 reversed $351 $-1 #
edge $-1 $257 -62.993865779595325 $368 62.993865779595325 $249 $369 forward 7 unknown #
coedge $-1 $243 $370 $156 $252 reversed $152 $-1 #
edge $-1 $371 -62.993865779595325 $256 62.993865779595325 $251 $372 forward 7 unknown #
coedge $-1 $246 $157 $370 $373 forward $255 $-1 #
coedge $-1 $157 $246 $366 $374 reversed $255 $-1 #
loop $-1 $-1 $253 $350 #
vertex $-1 $158 $375 #
vertex $-1 $158 $376 #
straight-curve $-1 62.993865779595325 0 9.6299152618754871 0 1 0 I I #
face $-1 $377 $378 $37 $-1 $379 forward single #
loop $-1 $-1 $268 $159 #
plane-surface $-1 0 -31.54172664792824 0 0 1 0 0 0 1 forward_v I I I I #
coedge $-1 $380 $381 $382 $383 forward $160 $-1 #
coedge $-1 $382 $162 $164 $270 reversed $101 $-1 #
coedge $-1 $162 $382 $384 $385 reversed $101 $-1 #
coedge $-1 $386 $165 $162 $266 forward $272 $-1 #
edge $-1 $274 2.3305382406356854 $387 5.6430974277050963 $265 $388 forward 7 unknown #
coedge $-1 $164 $163 $380 $389 reversed $64 $-1 #
coedge $-1 $390 $391 $163 $269 forward $260 $-1 #
edge $-1 $392 -62.993865779595325 $273 62.993865779595325 $268 $393 forward 7 unknown #
edge $-1 $394 -62.993865779595325 $274 62.993865779595325 $263 $395 forward 7 unknown #
coedge $-1 $165 $386 $390 $396 forward $272 $-1 #
loop $-1 $-1 $265 $377 #
vertex $-1 $269 $397 #
vertex $-1 $166 $398 #
straight-curve $-1 62.993865779595325 -13.074322471869287 6.3173560748060762 0 1 0 I I #
face $-1 $-1 $399 $38 $-1 $400 reversed single #
loop $-1 $-1 $401 $167 #
plane-surface $-1 0 31.54172664792824 0 0 -1 0 0 0 -1 forward_v I I I I #
coedge $-1 $402 $170 $172 $285 forward $105 $-1 #
coedge $-1 $170 $402 $401 $403 reversed $105 $-1 #
coedge $-1 $404 $173 $170 $282 forward $168 $-1 #
edge $-1 $288 7.0473867335270715 $405 18.678688854109801 $281 $406 forward 7 unknown #
coedge $-1 $407 $408 $171 $284 forward $399 $-1 #
edge $-1 $409 -35.956577389016729 $287 -31.979298702690294 $283 $410 forward 7 unknown #
edge $-1 $288 -5.0472390464983343 $409 0 $172 $411 forward 7 unknown #
coedge $-1 $173 $404 $407 $412 forward $168 $-1 #
vertex $-1 $284 $413 #
vertex $-1 $174 $414 #
straight-curve $-1 -81.136777055354798 19.910424527345508 9.6299152618754889 1 0 0 I I #
coedge $-1 $290 $290 $-1 $415 reversed $177 $-1 #
edge $-1 $416 0 $416 6.2831853071796004 $178 $417 forward 7 unknown #
vertex $-1 $181 $418 #
ellipse-curve $-1 -61.440170487413575 25.726075587636874 7.6412759187122692 -0.78801076186113728 0 0.61566146476048833 0.61566146476048833 0 0.78801076186113728 1 I I #
face $-1 $-1 $306 $40 $-1 $419 forward single #
loop $-1 $-1 $420 $182 #
plane-surface $-1 62.993865779595325 0 0 -1 0 0 0 0 1 forward_v I I I I #
coedge $-1 $421 $422 $423 $424 reversed $183 $-1 #
coedge $-1 $425 $185 $187 $304 forward $114 $-1 #
coedge $-1 $185 $425 $421 $426 forward $114 $-1 #
coedge $-1 $423 $188 $185 $301 forward $306 $-1 #
edge $-1 $308 1.4584316682765426 $427 12.017329135728307 $300 $428 forward 7 unknown #
coedge $-1 $429 $430 $186 $303 forward $295 $-1 #
edge $-1 $431 -85.681903192421316 $307 -81.127767045490998 $302 $432 forward 7 unknown #
edge $-1 $308 120.28533535624135 $431 125.98773155919066 $187 $433 forward 7 unknown #
coedge $-1 $188 $423 $429 $434 forward $306 $-1 #
loop $-1 $-1 $423 $294 #
vertex $-1 $303 $435 #
vertex $-1 $189 $436 #
straight-curve $-1 43.895417429494842 -8.1963120702789674 9.6299152618754817 -1 0 0 I I #
coedge $-1 $310 $310 $-1 $437 reversed $192 $-1 #
edge $-1 $438 0 $438 6.2831853071796004 $193 $439 forward 7 unknown #
vertex $-1 $196 $440 #
ellipse-curve $-1 61.277971959261926 -16.643430044240379 7.3528471884103297 0.79863551827123203 0 0.60181501223851219 0.3009075061192561 0 -0.39931775913561601 1 I I #
coedge $-1 $314 $314 $-1 $441 reversed $199 $-1 #
edge $-1 $442 0 $442 6.2831853071796004 $200 $443 forward 7 unknown #
vertex $-1 $203 $444 #
ellipse-curve $-1 61.277971959261926 -13.47576080400485 7.3528471884103297 0.79863551827123203 0 0.60181501223851219 0.3009075061192561 0 -0.39931775913561601 1 I I #
coedge $-1 $318 $318 $-1 $445 reversed $206 $-1 #
edge $-1 $446 0 $446 6.2831853071796004 $207 $447 forward 7 unknown #
vertex $-1 $210 $448 #
ellipse-curve $-1 61.277971959261926 -10.30809156376932 7.3528471884103297 0.79863551827123203 0 0.60181501223851219 0.3009075061192561 0 -0.39931775913561601 1 I I #
face $-1 $-1 $334 $44 $-1 $449 forward single #
loop $-1 $-1 $450 $211 #
plane-surface $-1 62.993865779595325 0 0 -1 0 0 0 0 1 forward_v I I I I #
coedge $-1 $451 $452 $453 $454 reversed $212 $-1 #
coedge $-1 $455 $214 $216 $332 forward $133 $-1 #
coedge $-1 $214 $455 $451 $456 forward $133 $-1 #
coedge $-1 $453 $217 $214 $329 forward $334 $-1 #
edge $-1 $336 -17.410410839917972 $457 -6.8515133724662061 $328 $458 forward 7 unknown #
coedge $-1 $459 $460 $215 $331 forward $323 $-1 #
edge $-1 $461 -85.681903192421316 $335 -81.127767045490998 $330 $462 forward 7 unknown #
edge $-1 $336 120.28533535624135 $461 125.98773155919066 $216 $463 forward 7 unknown #
coedge $-1 $217 $453 $459 $464 forward $334 $-1 #
loop $-1 $-1 $453 $322 #
vertex $-1 $331 $465 #
vertex $-1 $218 $466 #
straight-curve $-1 43.895417429494842 29.541372946110059 9.6299152618754817 -1 0 0 I I #
coedge $-1 $338 $338 $-1 $467 reversed $221 $-1 #
edge $-1 $468 0 $468 6.2831853071796004 $222 $469 forward 7 unknown #
vertex $-1 $225 $470 #
ellipse-curve $-1 61.277971959261926 21.094254972148651 7.3528471884103297 0.79863551827123203 0 0.60181501223851219 0.3009075061192561 0 -0.39931775913561601 1 I I #
coedge $-1 $342 $342 $-1 $471 reversed $228 $-1 #
edge $-1 $472 0 $472 6.2831853071796004 $229 $473 forward 7 unknown #
vertex $-1 $232 $474 #
ellipse-curve $-1 61.277971959261926 24.261924212384177 7.3528471884103297 0.79863551827123203 0 0.60181501223851219 0.3009075061192561 0 -0.39931775913561601 1 I I #
coedge $-1 $346 $346 $-1 $475 reversed $235 $-1 #
edge $-1 $476 0 $476 6.2831853071796004 $236 $477 forward 7 unknown #
vertex $-1 $239 $478 #
ellipse-curve $-1 61.277971959261926 27.429593452619709 7.3528471884103297 0.79863551827123203 0 0.60181501223851219 0.3009075061192561 0 -0.39931775913561601 1 I I #
face $-1 $-1 $255 $36 $-1 $479 reversed single #
loop $-1 $-1 $366 $240 #
plane-surface $-1 0 31.54172664792824 0 0 -1 0 0 0 -1 forward_v I I I I #
coedge $-1 $480 $364 $367 $481 forward $241 $-1 #
coedge $-1 $370 $243 $244 $358 reversed $152 $-1 #
coedge $-1 $364 $480 $243 $356 reversed $241 $-1 #
edge $-1 $371 -9.6299152618754871 $482 9.6299152618754871 $355 $483 forward 7 unknown #
coedge $-1 $245 $244 $480 $484 forward $97 $-1 #
edge $-1 $362 -62.993865779595325 $482 62.993865779595325 $354 $485 forward 7 unknown #
coedge $-1 $367 $366 $245 $360 reversed $351 $-1 #
edge $-1 $486 -62.993865779595325 $361 62.993865779595325 $359 $487 forward 7 unknown #
vertex $-1 $247 $488 #
vertex $-1 $373 $489 #
straight-curve $-1 62.993865779595325 0 -9.6299152618754871 0 -1 0 I I #
coedge $-1 $353 $355 $248 $365 reversed $241 $-1 #
edge $-1 $368 -31.54172664792824 $371 31.54172664792824 $364 $490 forward 7 unknown #
coedge $-1 $359 $249 $254 $374 forward $351 $-1 #
coedge $-1 $249 $359 $353 $481 reversed $351 $-1 #
vertex $-1 $250 $491 #
straight-curve $-1 0 31.54172664792824 9.6299152618754871 -1 0 0 I I #
coedge $-1 $251 $354 $253 $373 reversed $152 $-1 #
vertex $-1 $365 $492 #
straight-curve $-1 0 -31.54172664792824 9.6299152618754871 1 0 0 I I #
edge $-1 $256 -9.6299152618754871 $362 9.6299152618754871 $253 $493 forward 7 unknown #
edge $-1 $257 -9.6299152618754871 $361 9.6299152618754871 $254 $494 forward 7 unknown #
point $-1 62.993865779595325 -31.54172664792824 9.6299152618754871 #
point $-1 62.993865779595325 31.54172664792824 9.6299152618754871 #
face $-1 $-1 $272 $37 $-1 $495 reversed single #
loop $-1 $-1 $384 $259 #
plane-surface $-1 0 0 9.6299152618754871 0 0 1 1 0 0 forward_v I I I I #
coedge $-1 $496 $262 $267 $389 forward $160 $-1 #
coedge $-1 $262 $496 $497 $498 reversed $160 $-1 #
coedge $-1 $264 $263 $262 $383 reversed $101 $-1 #
edge $-1 $499 -5.6430974277050963 $394 -2.3305382406356854 $262 $500 forward 7 unknown #
coedge $-1 $497 $501 $264 $385 forward $378 $-1 #
edge $-1 $387 -62.993865779595325 $499 62.993865779595325 $384 $502 forward 7 unknown #
coedge $-1 $271 $265 $501 $503 reversed $272 $-1 #
vertex $-1 $266 $504 #
straight-curve $-1 62.993865779595325 -20.755563239548909 3.9868178341703908 0 0 1 I I #
edge $-1 $394 7.6812407676796219 $392 18.467404176058952 $380 $505 forward 7 unknown #
coedge $-1 $506 $268 $271 $396 reversed $260 $-1 #
coedge $-1 $268 $506 $496 $507 forward $260 $-1 #
vertex $-1 $269 $508 #
straight-curve $-1 0 -31.54172664792824 6.3173560748060762 1 0 0 I I #
vertex $-1 $389 $509 #
straight-curve $-1 0 -20.755563239548909 6.3173560748060762 1 0 0 I I #
edge $-1 $510 -9.6299152618754871 $273 -6.3173560748060762 $271 $511 forward 7 unknown #
point $-1 62.993865779595325 -31.54172664792824 6.3173560748060762 #
point $-1 62.993865779595325 -20.755563239548909 6.3173560748060762 #
loop $-1 $-1 $283 $276 #
plane-surface $-1 -62.993865779595325 0 0 1 0 0 0 0 -1 forward_v I I I I #
coedge $-1 $512 $513 $280 $403 forward $277 $-1 #
coedge $-1 $280 $279 $408 $514 reversed $105 $-1 #
edge $-1 $405 12.117039564686026 $515 17.164278611184361 $401 $516 forward 7 unknown #
coedge $-1 $286 $281 $513 $517 forward $168 $-1 #
vertex $-1 $517 $518 #
straight-curve $-1 -59.886475195231824 12.863037793818437 9.6299152618754871 0 1 0 I I #
coedge $-1 $519 $283 $286 $412 reversed $399 $-1 #
coedge $-1 $283 $519 $402 $514 forward $399 $-1 #
vertex $-1 $284 $520 #
straight-curve $-1 -62.993865779595325 19.910424527345508 41.609213964565782 0 0 1 I I #
straight-curve $-1 -62.993865779595325 19.910424527345508 5.6526365755490531 -0.61566146476048833 0 -0.78801076186113728 I I #
edge $-1 $521 -31.54172664792824 $287 -19.910424527345508 $407 $522 forward 7 unknown #
point $-1 -62.993865779595325 19.910424527345508 9.6299152618754871 #
point $-1 -59.886475195231831 19.910424527345508 9.6299152618754871 #
edge $-1 $523 1 $523 0 $290 $-1 forward 7 unknown #
vertex $-1 $291 $524 #
ellipse-curve $-1 -59.504088624734877 25.726075587636874 6.1286430294636975 -0.78801076186113728 0 0.61566146476048833 0.61566146476048833 0 0.78801076186113728 1 I I #
point $-1 -60.824509022653082 25.726075587636874 8.429286680573405 #
plane-surface $-1 0 0 9.6299152618754871 0 0 1 1 0 0 forward_v I I I I #
coedge $-1 $430 $429 $422 $525 forward $295 $-1 #
coedge $-1 $422 $297 $299 $426 reversed $183 $-1 #
coedge $-1 $297 $421 $420 $525 reversed $183 $-1 #
coedge $-1 $305 $300 $297 $424 forward $306 $-1 #
edge $-1 $427 15.6666607094337 $526 19.098448350100483 $423 $527 forward 7 unknown #
coedge $-1 $299 $298 $430 $528 reversed $114 $-1 #
edge $-1 $529 -125.98773155919066 $427 -120.28533535624135 $421 $530 forward 7 unknown #
vertex $-1 $301 $531 #
straight-curve $-1 59.562078138928534 -6.7378804020024248 9.629915261875496 0 -1 0 I I #
coedge $-1 $420 $302 $305 $434 reversed $295 $-1 #
coedge $-1 $302 $420 $425 $528 forward $295 $-1 #
vertex $-1 $303 $532 #
straight-curve $-1 62.993865779595325 -8.1963120702789674 90.75768230736648 0 0 1 I I #
straight-curve $-1 -12.827442430601394 -8.1963120702789674 105.69405640453625 0.60181501223851219 0 -0.79863551827123203 I I #
edge $-1 $526 -18.755209537730732 $307 -8.1963120702789674 $429 $533 forward 7 unknown #
point $-1 62.993865779595325 -8.1963120702789674 9.6299152618754871 #
point $-1 59.562078138928541 -8.1963120702789674 9.6299152618754817 #
edge $-1 $534 1 $534 0 $310 $-1 forward 7 unknown #
vertex $-1 $311 $535 #
ellipse-curve $-1 59.903496029763673 -16.643430044240379 6.3171053144161817 0.79863551827123203 0 0.60181501223851219 0.3009075061192561 0 -0.39931775913561601 1 I I #
point $-1 61.578879465381192 -16.643430044240379 6.9535294292747194 #
edge $-1 $536 1 $536 0 $314 $-1 forward 7 unknown #
vertex $-1 $315 $537 #
ellipse-curve $-1 59.903496029763673 -13.47576080400485 6.3171053144161817 0.79863551827123203 0 0.60181501223851219 0.3009075061192561 0 -0.39931775913561601 1 I I #
point $-1 61.578879465381192 -13.47576080400485 6.9535294292747194 #
edge $-1 $538 1 $538 0 $318 $-1 forward 7 unknown #
vertex $-1 $319 $539 #
ellipse-curve $-1 59.903496029763673 -10.30809156376932 6.3171053144161817 0.79863551827123203 0 0.60181501223851219 0.3009075061192561 0 -0.39931775913561601 1 I I #
point $-1 61.578879465381192 -10.30809156376932 6.9535294292747194 #
plane-surface $-1 0 0 9.6299152618754871 0 0 1 1 0 0 forward_v I I I I #
coedge $-1 $460 $459 $452 $540 forward $323 $-1 #
coedge $-1 $452 $325 $327 $456 reversed $212 $-1 #
coedge $-1 $325 $451 $450 $540 reversed $212 $-1 #
coedge $-1 $333 $328 $325 $454 forward $334 $-1 #
edge $-1 $457 15.6666607094337 $541 19.098448350100483 $453 $542 forward 7 unknown #
coedge $-1 $327 $326 $460 $543 reversed $133 $-1 #
edge $-1 $544 -125.98773155919066 $457 -120.28533535624135 $451 $545 forward 7 unknown #
vertex $-1 $329 $546 #
straight-curve $-1 59.562078138928534 12.130962106192088 9.629915261875496 0 -1 0 I I #
coedge $-1 $450 $330 $333 $464 reversed $323 $-1 #
coedge $-1 $330 $450 $455 $543 forward $323 $-1 #
vertex $-1 $331 $547 #
straight-curve $-1 62.993865779595325 29.541372946110059 90.75768230736648 0 0 1 I I #
straight-curve $-1 -12.827442430601394 29.541372946110059 105.69405640453625 0.60181501223851219 0 -0.79863551827123203 I I #
edge $-1 $541 18.982475478658294 $335 29.541372946110059 $459 $548 forward 7 unknown #
point $-1 62.993865779595325 29.541372946110059 9.6299152618754871 #
point $-1 59.562078138928541 29.541372946110059 9.6299152618754817 #
edge $-1 $549 1 $549 0 $338 $-1 forward 7 unknown #
vertex $-1 $339 $550 #
ellipse-curve $-1 59.903496029763673 21.094254972148651 6.3171053144161817 0.79863551827123203 0 0.60181501223851219 0.3009075061192561 0 -0.39931775913561601 1 I I #
point $-1 61.578879465381192 21.094254972148651 6.9535294292747194 #
edge $-1 $551 1 $551 0 $342 $-1 forward 7 unknown #
vertex $-1 $343 $552 #
ellipse-curve $-1 59.903496029763673 24.261924212384177 6.3171053144161817 0.79863551827123203 0 0.60181501223851219 0.3009075061192561 0 -0.39931775913561601 1 I I #
point $-1 61.578879465381192 24.261924212384177 6.9535294292747194 #
edge $-1 $553 1 $553 0 $346 $-1 forward 7 unknown #
vertex $-1 $347 $554 #
ellipse-curve $-1 59.903496029763673 27.429593452619709 6.3171053144161817 0.79863551827123203 0 0.60181501223851219 0.3009075061192561 0 -0.39931775913561601 1 I I #
point $-1 61.578879465381192 27.429593452619709 6.9535294292747194 #
plane-surface $-1 62.993865779595325 0 0 -1 0 0 0 0 1 forward_v I I I I #
coedge $-1 $355 $353 $357 $484 reversed $241 $-1 #
edge $-1 $368 -9.6299152618754871 $486 9.6299152618754871 $367 $555 forward 7 unknown #
vertex $-1 $484 $556 #
straight-curve $-1 -62.993865779595325 -31.54172664792824 0 0 0 -1 I I #
edge $-1 $482 -31.54172664792824 $486 31.54172664792824 $480 $557 forward 7 unknown #
straight-curve $-1 0 -31.54172664792824 -9.6299152618754871 -1 0 0 I I #
vertex $-1 $360 $558 #
straight-curve $-1 0 31.54172664792824 -9.6299152618754871 1 0 0 I I #
point $-1 62.993865779595325 31.54172664792824 -9.6299152618754871 #
point $-1 62.993865779595325 -31.54172664792824 -9.6299152618754871 #
straight-curve $-1 -62.993865779595325 0 9.6299152618754871 0 -1 0 I I #
point $-1 -62.993865779595325 31.54172664792824 9.6299152618754871 #
point $-1 -62.993865779595325 -31.54172664792824 9.6299152618754871 #
straight-curve $-1 62.993865779595325 -31.54172664792824 0 0 0 -1 I I #
straight-curve $-1 62.993865779595325 31.54172664792824 0 0 0 -1 I I #
plane-surface $-1 62.993865779595325 0 0 -1 0 0 0 0 1 forward_v I I I I #
coedge $-1 $381 $380 $391 $507 reversed $160 $-1 #
coedge $-1 $559 $384 $381 $498 forward $378 $-1 #
edge $-1 $499 20.755563239548909 $560 31.54172664792824 $381 $561 forward 7 unknown #
vertex $-1 $498 $562 #
straight-curve $-1 -62.993865779595325 -20.755563239548909 3.9868178341703908 0 0 -1 I I #
coedge $-1 $384 $559 $386 $503 forward $378 $-1 #
straight-curve $-1 0 -20.755563239548909 9.6299152618754871 -1 0 0 I I #
edge $-1 $510 -31.54172664792824 $387 -20.755563239548909 $386 $563 forward 7 unknown #
point $-1 62.993865779595325 -20.755563239548909 9.6299152618754871 #
straight-curve $-1 -62.993865779595325 -13.074322471869287 6.3173560748060762 0 -1 0 I I #
coedge $-1 $391 $390 $559 $564 reversed $260 $-1 #
edge $-1 $560 -9.6299152618754871 $392 -6.3173560748060762 $496 $565 forward 7 unknown #
point $-1 -62.993865779595325 -31.54172664792824 6.3173560748060762 #
point $-1 -62.993865779595325 -20.755563239548909 6.3173560748060762 #
vertex $-1 $503 $566 #
straight-curve $-1 62.993865779595325 -31.54172664792824 0 0 0 -1 I I #
coedge $-1 $513 $401 $519 $567 reversed $277 $-1 #
coedge $-1 $401 $512 $404 $517 reversed $277 $-1 #
edge $-1 $515 -18.678688854109801 $409 -7.0473867335270715 $408 $568 forward 7 unknown #
vertex $-1 $403 $569 #
straight-curve $-1 -52.426480868276442 31.54172664792824 19.178272840745265 -0.61566146476048833 0 -0.78801076186113728 I I #
edge $-1 $405 59.886475195231831 $521 62.993865779595325 $513 $570 forward 7 unknown #
point $-1 -59.886475195231831 31.54172664792824 9.6299152618754871 #
coedge $-1 $408 $407 $512 $567 forward $399 $-1 #
point $-1 -62.993865779595325 19.910424527345508 5.6526365755490531 #
vertex $-1 $517 $571 #
straight-curve $-1 -62.993865779595325 0 9.6299152618754871 0 -1 0 I I #
vertex $-1 $415 $572 #
point $-1 -58.888427159974391 25.726075587636874 6.9166537913248343 #
edge $-1 $526 81.127767045490998 $529 85.681903192421316 $420 $573 forward 7 unknown #
vertex $-1 $434 $574 #
straight-curve $-1 43.895417429494842 -18.755209537730732 9.6299152618754817 1 0 0 I I #
edge $-1 $529 -12.017329135728307 $431 -1.4584316682765426 $430 $575 forward 7 unknown #
vertex $-1 $528 $576 #
straight-curve $-1 -12.827442430601394 -18.755209537730732 105.69405640453625 -0.60181501223851219 0 0.79863551827123203 I I #
point $-1 59.562078138928541 -18.755209537730732 9.6299152618754817 #
point $-1 62.993865779595325 -8.1963120702789674 5.0757791149451634 #
straight-curve $-1 62.993865779595325 0 9.6299152618754871 0 1 0 I I #
vertex $-1 $437 $577 #
point $-1 60.204403535882932 -16.643430044240379 5.9177875552805661 #
vertex $-1 $441 $578 #
point $-1 60.204403535882932 -13.47576080400485 5.9177875552805661 #
vertex $-1 $445 $579 #
point $-1 60.204403535882932 -10.30809156376932 5.9177875552805661 #
edge $-1 $541 81.127767045490998 $544 85.681903192421316 $450 $580 forward 7 unknown #
vertex $-1 $464 $581 #
straight-curve $-1 43.895417429494842 18.982475478658294 9.6299152618754817 1 0 0 I I #
edge $-1 $544 6.8515133724662061 $461 17.410410839917972 $460 $582 forward 7 unknown #
vertex $-1 $543 $583 #
straight-curve $-1 -12.827442430601394 18.982475478658294 105.69405640453625 -0.60181501223851219 0 0.79863551827123203 I I #
point $-1 59.562078138928541 18.982475478658294 9.6299152618754817 #
point $-1 62.993865779595325 29.541372946110059 5.0757791149451634 #
straight-curve $-1 62.993865779595325 0 9.6299152618754871 0 1 0 I I #
vertex $-1 $467 $584 #
point $-1 60.204403535882932 21.094254972148651 5.9177875552805661 #
vertex $-1 $471 $585 #
point $-1 60.204403535882932 24.261924212384177 5.9177875552805661 #
vertex $-1 $475 $586 #
point $-1 60.204403535882932 27.429593452619709 5.9177875552805661 #
straight-curve $-1 -62.993865779595325 31.54172664792824 0 0 0 -1 I I #
point $-1 -62.993865779595325 -31.54172664792824 -9.6299152618754871 #
straight-curve $-1 -62.993865779595325 0 -9.6299152618754871 0 1 0 I I #
point $-1 -62.993865779595325 31.54172664792824 -9.6299152618754871 #
coedge $-1 $501 $497 $506 $564 forward $378 $-1 #
vertex $-1 $498 $587 #
straight-curve $-1 -62.993865779595325 0 9.6299152618754871 0 -1 0 I I #
point $-1 -62.993865779595325 -20.755563239548909 9.6299152618754871 #
straight-curve $-1 62.993865779595325 0 9.6299152618754871 0 1 0 I I #
edge $-1 $560 -62.993865779595325 $510 62.993865779595325 $506 $588 forward 7 unknown #
straight-curve $-1 -62.993865779595325 -31.54172664792824 0 0 0 -1 I I #
point $-1 62.993865779595325 -31.54172664792824 9.6299152618754871 #
edge $-1 $521 -9.6299152618754871 $515 -5.6526365755490531 $512 $589 forward 7 unknown #
straight-curve $-1 -62.993865779595325 12.863037793818437 5.6526365755490451 0 -1 0 I I #
point $-1 -62.993865779595325 31.54172664792824 5.6526365755490531 #
straight-curve $-1 0 31.54172664792824 9.6299152618754871 -1 0 0 I I #
point $-1 -62.993865779595325 31.54172664792824 9.6299152618754871 #
point $-1 -58.716077862873746 25.726075587636874 5.5129815647032085 #
straight-curve $-1 62.993865779595325 -18.755209537730732 90.75768230736648 0 0 -1 I I #
point $-1 62.993865779595325 -18.755209537730732 9.6299152618754871 #
straight-curve $-1 62.993865779595325 -6.7378804020024248 5.0757791149451634 0 1 0 I I #
point $-1 62.993865779595325 -18.755209537730732 5.0757791149451634 #
point $-1 59.50417827062806 -16.643430044240379 6.0161978082969263 #
point $-1 59.50417827062806 -13.47576080400485 6.0161978082969263 #
point $-1 59.50417827062806 -10.30809156376932 6.0161978082969263 #
straight-curve $-1 62.993865779595325 18.982475478658294 90.75768230736648 0 0 -1 I I #
point $-1 62.993865779595325 18.982475478658294 9.6299152618754871 #
straight-curve $-1 62.993865779595325 12.130962106192088 5.0757791149451634 0 1 0 I I #
point $-1 62.993865779595325 18.982475478658294 5.0757791149451634 #
point $-1 59.50417827062806 21.094254972148651 6.0161978082969263 #
point $-1 59.50417827062806 24.261924212384177 6.0161978082969263 #
point $-1 59.50417827062806 27.429593452619709 6.0161978082969263 #
point $-1 -62.993865779595325 -31.54172664792824 9.6299152618754871 #
straight-curve $-1 0 -31.54172664792824 9.6299152618754871 1 0 0 I I #
straight-curve $-1 -62.993865779595325 31.54172664792824 0 0 0 -1 I I #
End-of-ACIS-data 