500 0 18 0           
7 Unknown 11 ACIS 5.0 NT 24 Thu Mar 25 22:45:26 1999 
-1 9.9999999999999995e-007 1e-010 
body $-1 $18 $-1 $19 #
body $-1 $20 $-1 $21 #
body $-1 $22 $-1 $23 #
body $-1 $24 $-1 $25 #
body $-1 $26 $-1 $27 #
body $-1 $28 $-1 $29 #
body $-1 $30 $-1 $31 #
body $-1 $32 $-1 $33 #
body $-1 $34 $-1 $35 #
body $-1 $36 $-1 $37 #
body $-1 $38 $-1 $39 #
body $-1 $40 $-1 $41 #
body $-1 $42 $-1 $43 #
body $-1 $44 $-1 $45 #
body $-1 $46 $-1 $47 #
body $-1 $48 $-1 $49 #
body $-1 $50 $-1 $51 #
body $-1 $52 $-1 $53 #
lump $-1 $-1 $54 $0 #
transform $-1 1 0 0 0 1 0 0 0 1 60.123905148472545 32.893924839202626 14.889352208702945 1 rotate no_reflect no_shear #
lump $-1 $-1 $55 $1 #
transform $-1 1 0 0 0 1 0 0 0 1 60.123905148472545 32.893924839202626 14.889352208702945 1 rotate no_reflect no_shear #
lump $-1 $-1 $56 $2 #
transform $-1 1 0 0 0 1 0 0 0 1 60.123905148472545 32.893924839202626 14.889352208702945 1 rotate no_reflect no_shear #
lump $-1 $-1 $57 $3 #
transform $-1 1 0 0 0 1 0 0 0 1 60.123905148472545 32.893924839202626 14.889352208702945 1 rotate no_reflect no_shear #
lump $-1 $-1 $58 $4 #
transform $-1 1 0 0 0 1 0 0 0 1 60.123905148472545 32.893924839202626 14.889352208702945 1 rotate no_reflect no_shear #
lump $-1 $-1 $59 $5 #
transform $-1 1 0 0 0 1 0 0 0 1 60.123905148472545 32.893924839202626 14.889352208702945 1 rotate no_reflect no_shear #
lump $-1 $-1 $60 $6 #
transform $-1 1 0 0 0 1 0 0 0 1 60.123905148472545 32.893924839202626 14.889352208702945 1 rotate no_reflect no_shear #
lump $-1 $-1 $61 $7 #
transform $-1 1 0 0 0 1 0 0 0 1 60.123905148472545 32.893924839202626 14.889352208702945 1 rotate no_reflect no_shear #
lump $-1 $-1 $62 $8 #
transform $-1 1 0 0 0 1 0 0 0 1 60.123905148472545 32.893924839202626 14.889352208702945 1 rotate no_reflect no_shear #
lump $-1 $-1 $63 $9 #
transform $-1 1 0 0 0 1 0 0 0 1 60.123905148472545 32.893924839202626 14.889352208702945 1 rotate no_reflect no_shear #
lump $-1 $-1 $64 $10 #
transform $-1 1 0 0 0 1 0 0 0 1 60.123905148472545 32.893924839202626 14.889352208702945 1 rotate no_reflect no_shear #
lump $-1 $-1 $65 $11 #
transform $-1 1 0 0 0 1 0 0 0 1 60.123905148472545 32.893924839202626 14.889352208702945 1 rotate no_reflect no_shear #
lump $-1 $-1 $66 $12 #
transform $-1 1 0 0 0 1 0 0 0 1 60.123905148472545 32.893924839202626 14.889352208702945 1 rotate no_reflect no_shear #
lump $-1 $-1 $67 $13 #
transform $-1 1 0 0 0 1 0 0 0 1 60.123905148472545 32.893924839202626 14.889352208702945 1 rotate no_reflect no_shear #
lump $-1 $-1 $68 $14 #
transform $-1 1 0 0 0 1 0 0 0 1 60.123905148472545 32.893924839202626 14.889352208702945 1 rotate no_reflect no_shear #
lump $-1 $-1 $69 $15 #
transform $-1 1 0 0 0 1 0 0 0 1 60.123905148472545 32.893924839202626 14.889352208702945 1 rotate no_reflect no_shear #
lump $-1 $-1 $70 $16 #
transform $-1 1 0 0 0 1 0 0 0 1 60.123905148472545 32.893924839202626 14.889352208702945 1 rotate no_reflect no_shear #
lump $-1 $-1 $71 $17 #
transform $-1 1 0 0 0 1 0 0 0 1 60.123905148472545 32.893924839202626 14.889352208702945 1 rotate no_reflect no_shear #
shell $-1 $-1 $-1 $72 $-1 $18 #
shell $-1 $-1 $-1 $73 $-1 $20 #
shell $-1 $-1 $-1 $74 $-1 $22 #
shell $-1 $-1 $-1 $75 $-1 $24 #
shell $-1 $-1 $-1 $76 $-1 $26 #
shell $-1 $-1 $-1 $77 $-1 $28 #
shell $-1 $-1 $-1 $78 $-1 $30 #
shell $-1 $-1 $-1 $79 $-1 $32 #
shell $-1 $-1 $-1 $80 $-1 $34 #
shell $-1 $-1 $-1 $81 $-1 $36 #
shell $-1 $-1 $-1 $82 $-1 $38 #
shell $-1 $-1 $-1 $83 $-1 $40 #
shell $-1 $-1 $-1 $84 $-1 $42 #
shell $-1 $-1 $-1 $85 $-1 $44 #
shell $-1 $-1 $-1 $86 $-1 $46 #
shell $-1 $-1 $-1 $87 $-1 $48 #
shell $-1 $-1 $-1 $88 $-1 $50 #
shell $-1 $-1 $-1 $89 $-1 $52 #
face $-1 $90 $91 $54 $-1 $92 forward single #
face $-1 $93 $94 $55 $-1 $95 reversed single #
face $-1 $96 $97 $56 $-1 $98 reversed single #
face $-1 $99 $100 $57 $-1 $101 reversed single #
face $-1 $102 $103 $58 $-1 $104 forward single #
face $-1 $105 $106 $59 $-1 $107 forward single #
face $-1 $108 $109 $60 $-1 $110 reversed single #
face $-1 $111 $112 $61 $-1 $113 forward single #
face $-1 $114 $115 $62 $-1 $116 forward single #
face $-1 $117 $118 $63 $-1 $119 reversed single #
face $-1 $120 $121 $64 $-1 $122 forward single #
face $-1 $123 $124 $65 $-1 $125 forward single #
face $-1 $126 $127 $66 $-1 $128 reversed single #
face $-1 $129 $130 $67 $-1 $131 forward single #
face $-1 $132 $133 $68 $-1 $134 forward single #
face $-1 $135 $136 $69 $-1 $137 reversed single #
face $-1 $138 $139 $70 $-1 $140 forward single #
face $-1 $141 $142 $71 $-1 $143 forward single #
face $-1 $144 $145 $54 $-1 $146 reversed single #
loop $-1 $-1 $147 $72 #
plane-surface $-1 0 0 14.889352208702945 0 0 1 1 0 0 forward_v I I I I #
face $-1 $148 $149 $55 $-1 $150 reversed single #
loop $-1 $-1 $151 $73 #
plane-surface $-1 -54.311005167936578 0 9.2555997579463689 0 0 1 1 0 0 forward_v I I I I #
face $-1 $152 $153 $56 $-1 $154 reversed single #
loop $-1 $-1 $155 $74 #
plane-surface $-1 54.311005167936571 0 9.2555997579463689 0 0 1 1 0 0 forward_v I I I I #
face $-1 $156 $157 $57 $-1 $158 reversed single #
loop $-1 $-1 $159 $75 #
plane-surface $-1 -40.202402831878388 84.942391366954823 131.18070287315706 1 0 0 0 -0.77714596973225614 -0.62932038083071107 forward_v I I I I #
face $-1 $160 $161 $58 $-1 $162 forward single #
loop $-1 $163 $164 $76 #
cone-surface $-1 -36.353048497298815 28.008666453112465 9.1243479060070687 0 -0.77714596973225614 -0.62932038083071107 1 0 0 1 I I 0 1 1 forward I I I I #
face $-1 $165 $166 $59 $-1 $167 forward single #
loop $-1 $168 $169 $77 #
cone-surface $-1 -30.579016995429438 28.008666453112465 9.1243479060070687 0 -0.77714596973225614 -0.62932038083071107 1 0 0 1 I I 0 1 1 forward I I I I #
face $-1 $170 $171 $60 $-1 $172 reversed single #
loop $-1 $-1 $173 $78 #
plane-surface $-1 -15.953350238178093 84.942391366954823 131.18070287315706 1 0 0 0 -0.77714596973225614 -0.62932038083071107 forward_v I I I I #
face $-1 $174 $175 $61 $-1 $176 forward single #
loop $-1 $177 $178 $79 #
cone-surface $-1 -12.103995903598502 28.008666453112465 9.1243479060070687 0 -0.77714596973225614 -0.62932038083071107 1 0 0 1 I I 0 1 1 forward I I I I #
face $-1 $179 $180 $62 $-1 $181 forward single #
loop $-1 $182 $183 $80 #
cone-surface $-1 -6.3299644017291286 28.008666453112465 9.1243479060070687 0 -0.77714596973225614 -0.62932038083071107 1 0 0 1 I I 0 1 1 forward I I I I #
face $-1 $184 $185 $63 $-1 $186 reversed single #
loop $-1 $-1 $187 $81 #
plane-surface $-1 8.29570235552222 84.942391366954823 131.18070287315706 1 0 0 0 -0.77714596973225614 -0.62932038083071107 forward_v I I I I #
face $-1 $188 $189 $64 $-1 $190 forward single #
loop $-1 $191 $192 $82 #
cone-surface $-1 12.145056690101796 28.008666453112465 9.1243479060070687 0 -0.77714596973225614 -0.62932038083071107 1 0 0 1 I I 0 1 1 forward I I I I #
face $-1 $193 $194 $65 $-1 $195 forward single #
loop $-1 $196 $197 $83 #
cone-surface $-1 17.919088191971184 28.008666453112465 9.1243479060070687 0 -0.77714596973225614 -0.62932038083071107 1 0 0 1 I I 0 1 1 forward I I I I #
face $-1 $198 $199 $66 $-1 $200 reversed single #
loop $-1 $-1 $201 $84 #
plane-surface $-1 32.544754949222522 84.942391366954823 131.18070287315706 1 0 0 0 -0.77714596973225614 -0.62932038083071107 forward_v I I I I #
face $-1 $202 $203 $67 $-1 $204 forward single #
loop $-1 $205 $206 $85 #
cone-surface $-1 36.394109283802095 28.008666453112465 9.1243479060070687 0 -0.77714596973225614 -0.62932038083071107 1 0 0 1 I I 0 1 1 forward I I I I #
face $-1 $207 $208 $68 $-1 $209 forward single #
loop $-1 $210 $211 $86 #
cone-surface $-1 42.168140785671483 28.008666453112465 9.1243479060070687 0 -0.77714596973225614 -0.62932038083071107 1 0 0 1 I I 0 1 1 forward I I I I #
face $-1 $212 $213 $69 $-1 $214 reversed single #
loop $-1 $-1 $215 $87 #
plane-surface $-1 -24.343334319230181 -120.83760700527407 88.71491534118546 -1 0 0 0 -0.73135370988377701 0.68199835119979291 forward_v I I I I #
face $-1 $216 $217 $70 $-1 $218 forward single #
loop $-1 $219 $220 $88 #
cone-surface $-1 -41.596742082209062 -27.158669059952206 9.0075281529366542 0 0.73135370988377701 -0.68199835119979291 2.5 0 0 1 I I 0 1 2.5 forward I I I I #
face $-1 $221 $222 $71 $-1 $223 forward single #
loop $-1 $224 $225 $89 #
cone-surface $-1 -31.244697424421734 -27.158669059952206 9.0075281529366542 0 0.73135370988377701 -0.68199835119979291 2.5 0 0 1 I I 0 1 2.5 forward I I I I #
face $-1 $226 $227 $54 $-1 $228 reversed single #
loop $-1 $-1 $229 $90 #
plane-surface $-1 0 0 -14.889352208702945 0 0 1 1 0 0 forward_v I I I I #
coedge $-1 $230 $231 $232 $233 forward $91 $-1 #
face $-1 $234 $235 $55 $-1 $236 reversed single #
loop $-1 $-1 $237 $93 #
plane-surface $-1 -48.498105187400611 0 12.072475983324658 -1 0 0 0 0 1 forward_v I I I I #
coedge $-1 $238 $239 $237 $240 forward $94 $-1 #
face $-1 $241 $242 $56 $-1 $243 forward single #
loop $-1 $-1 $244 $96 #
plane-surface $-1 48.498105187400604 0 12.072475983324658 1 0 0 0 0 -1 forward_v I I I I #
coedge $-1 $245 $246 $247 $248 reversed $97 $-1 #
face $-1 $249 $250 $57 $-1 $251 reversed single #
loop $-1 $-1 $252 $99 #
plane-surface $-1 -33.466032746364121 -8.5077097744449475 55.506305103024474 0 0.77714596973225614 0.62932038083071107 1 0 0 forward_v I I I I #
coedge $-1 $253 $254 $255 $256 reversed $100 $-1 #
face $-1 $-1 $257 $58 $-1 $258 forward single #
loop $-1 $259 $260 $102 #
cone-surface $-1 -36.353048497298815 26.990172865716232 8.2995880831971292 0 -0.77714596973225614 -0.62932038083071107 0.5 0 0 1 I I -0.70710678118654746 0.70710678118654746 0.5 forward I I I I #
loop $-1 $-1 $261 $76 #
coedge $-1 $164 $164 $262 $263 reversed $103 $-1 #
face $-1 $-1 $264 $59 $-1 $265 forward single #
loop $-1 $266 $267 $105 #
cone-surface $-1 -30.579016995429438 26.990172865716232 8.2995880831971292 0 -0.77714596973225614 -0.62932038083071107 0.5 0 0 1 I I -0.70710678118654746 0.70710678118654746 0.5 forward I I I I #
loop $-1 $-1 $268 $77 #
coedge $-1 $169 $169 $269 $270 reversed $106 $-1 #
face $-1 $271 $272 $60 $-1 $273 reversed single #
loop $-1 $-1 $274 $108 #
plane-surface $-1 -9.2169801526638224 -8.5077097744449475 55.506305103024474 0 0.77714596973225614 0.62932038083071107 1 0 0 forward_v I I I I #
coedge $-1 $275 $276 $277 $278 reversed $109 $-1 #
face $-1 $-1 $279 $61 $-1 $280 forward single #
loop $-1 $281 $282 $111 #
cone-surface $-1 -12.103995903598502 26.990172865716232 8.2995880831971292 0 -0.77714596973225614 -0.62932038083071107 0.5 0 0 1 I I -0.70710678118654746 0.70710678118654746 0.5 forward I I I I #
loop $-1 $-1 $283 $79 #
coedge $-1 $178 $178 $284 $285 reversed $112 $-1 #
face $-1 $-1 $286 $62 $-1 $287 forward single #
loop $-1 $288 $289 $114 #
cone-surface $-1 -6.3299644017291286 26.990172865716232 8.2995880831971292 0 -0.77714596973225614 -0.62932038083071107 0.5 0 0 1 I I -0.70710678118654746 0.70710678118654746 0.5 forward I I I I #
loop $-1 $-1 $290 $80 #
coedge $-1 $183 $183 $291 $292 reversed $115 $-1 #
face $-1 $293 $294 $63 $-1 $295 reversed single #
loop $-1 $-1 $296 $117 #
plane-surface $-1 15.03207244103649 -8.5077097744449475 55.506305103024474 0 0.77714596973225614 0.62932038083071107 1 0 0 forward_v I I I I #
coedge $-1 $297 $298 $299 $300 reversed $118 $-1 #
face $-1 $-1 $301 $64 $-1 $302 forward single #
loop $-1 $303 $304 $120 #
cone-surface $-1 12.145056690101796 26.990172865716232 8.2995880831971292 0 -0.77714596973225614 -0.62932038083071107 0.5 0 0 1 I I -0.70710678118654746 0.70710678118654746 0.5 forward I I I I #
loop $-1 $-1 $305 $82 #
coedge $-1 $192 $192 $306 $307 reversed $121 $-1 #
face $-1 $-1 $308 $65 $-1 $309 forward single #
loop $-1 $310 $311 $123 #
cone-surface $-1 17.919088191971184 26.990172865716232 8.2995880831971292 0 -0.77714596973225614 -0.62932038083071107 0.5 0 0 1 I I -0.70710678118654746 0.70710678118654746 0.5 forward I I I I #
loop $-1 $-1 $312 $83 #
coedge $-1 $197 $197 $313 $314 reversed $124 $-1 #
face $-1 $315 $316 $66 $-1 $317 reversed single #
loop $-1 $-1 $318 $126 #
plane-surface $-1 39.281125034736789 -8.5077097744449475 55.506305103024474 0 0.77714596973225614 0.62932038083071107 1 0 0 forward_v I I I I #
coedge $-1 $319 $320 $321 $322 reversed $127 $-1 #
face $-1 $-1 $323 $67 $-1 $324 forward single #
loop $-1 $325 $326 $129 #
cone-surface $-1 36.394109283802095 26.990172865716232 8.2995880831971292 0 -0.77714596973225614 -0.62932038083071107 0.5 0 0 1 I I -0.70710678118654746 0.70710678118654746 0.5 forward I I I I #
loop $-1 $-1 $327 $85 #
coedge $-1 $206 $206 $328 $329 reversed $130 $-1 #
face $-1 $-1 $330 $68 $-1 $331 forward single #
loop $-1 $332 $333 $132 #
cone-surface $-1 42.168140785671483 26.990172865716232 8.2995880831971292 0 -0.77714596973225614 -0.62932038083071107 0.5 0 0 1 I I -0.70710678118654746 0.70710678118654746 0.5 forward I I I I #
loop $-1 $-1 $334 $86 #
coedge $-1 $211 $211 $335 $336 reversed $133 $-1 #
face $-1 $337 $338 $69 $-1 $339 forward single #
loop $-1 $-1 $340 $135 #
plane-surface $-1 -36.420719753315396 -32.893924839202626 6.7061069832834335 0 -0.73135370988377701 0.68199835119979291 1 0 0 forward_v I I I I #
coedge $-1 $341 $342 $343 $344 reversed $136 $-1 #
face $-1 $-1 $345 $70 $-1 $346 forward single #
loop $-1 $347 $348 $138 #
cone-surface $-1 -41.596742082209062 -24.324720863780961 6.3648287708803863 0 0.73135370988377701 -0.68199835119979291 1.25 0 0 1 I I -0.70710678118654746 0.70710678118654746 1.25 forward I I I I #
loop $-1 $-1 $349 $88 #
coedge $-1 $220 $220 $350 $351 reversed $139 $-1 #
face $-1 $-1 $352 $71 $-1 $353 forward single #
loop $-1 $354 $355 $141 #
cone-surface $-1 -31.244697424421734 -24.324720863780961 6.3648287708803863 0 0.73135370988377701 -0.68199835119979291 1.25 0 0 1 I I -0.70710678118654746 0.70710678118654746 1.25 forward I I I I #
loop $-1 $-1 $356 $89 #
coedge $-1 $225 $225 $357 $358 reversed $142 $-1 #
face $-1 $359 $360 $54 $-1 $361 reversed single #
loop $-1 $-1 $362 $144 #
plane-surface $-1 0 -32.893924839202626 0 0 1 0 0 0 1 forward_v I I I I #
coedge $-1 $363 $364 $365 $366 forward $145 $-1 #
coedge $-1 $367 $147 $368 $369 forward $91 $-1 #
coedge $-1 $147 $367 $370 $371 forward $91 $-1 #
coedge $-1 $372 $373 $147 $233 reversed $374 $-1 #
edge $-1 $375 -32.893924839202626 $376 32.893924839202626 $232 $377 forward 7 unknown #
face $-1 $378 $379 $55 $-1 $380 reversed single #
loop $-1 $-1 $381 $148 #
plane-surface $-1 0 32.893924839202626 0 0 -1 0 0 0 -1 forward_v I I I I #
coedge $-1 $382 $383 $151 $240 reversed $149 $-1 #
coedge $-1 $384 $151 $385 $386 reversed $94 $-1 #
coedge $-1 $151 $384 $387 $388 reversed $94 $-1 #
edge $-1 $389 -32.893924839202626 $390 32.893924839202626 $237 $391 forward 7 unknown #
face $-1 $392 $393 $56 $-1 $394 reversed single #
loop $-1 $-1 $395 $152 #
plane-surface $-1 0 0 14.889352208702945 0 0 1 1 0 0 forward_v I I I I #
coedge $-1 $396 $397 $398 $399 reversed $153 $-1 #
coedge $-1 $400 $155 $401 $402 reversed $97 $-1 #
coedge $-1 $155 $400 $403 $404 reversed $97 $-1 #
coedge $-1 $405 $406 $155 $248 forward $407 $-1 #
edge $-1 $408 -32.893924839202626 $409 32.893924839202626 $247 $410 forward 7 unknown #
face $-1 $411 $412 $57 $-1 $413 reversed single #
loop $-1 $-1 $414 $156 #
plane-surface $-1 -26.729662660849851 84.942391366954823 131.18070287315706 -1 0 0 0 0.77714596973225614 0.62932038083071107 forward_v I I I I #
coedge $-1 $415 $416 $417 $418 reversed $157 $-1 #
coedge $-1 $254 $159 $419 $420 reversed $100 $-1 #
coedge $-1 $159 $253 $415 $421 reversed $100 $-1 #
coedge $-1 $417 $422 $159 $256 forward $423 $-1 #
edge $-1 $424 9.5772708442747856 $425 18.087946411394938 $255 $426 forward 7 unknown #
loop $-1 $-1 $262 $160 #
plane-surface $-1 -33.466032746364121 -8.5077097744449475 55.506305103024474 0 0.77714596973225614 0.62932038083071107 1 0 0 forward_v I I I I #
loop $-1 $-1 $427 $102 #
coedge $-1 $260 $260 $261 $428 reversed $161 $-1 #
coedge $-1 $261 $261 $260 $428 forward $163 $-1 #
coedge $-1 $262 $262 $164 $263 forward $257 $-1 #
edge $-1 $429 9.9037372503514738e-016 $429 6.2831853071796013 $262 $430 forward 7 unknown #
loop $-1 $-1 $269 $165 #
plane-surface $-1 -33.466032746364121 -8.5077097744449475 55.506305103024474 0 0.77714596973225614 0.62932038083071107 1 0 0 forward_v I I I I #
loop $-1 $-1 $431 $105 #
coedge $-1 $267 $267 $268 $432 reversed $166 $-1 #
coedge $-1 $268 $268 $267 $432 forward $168 $-1 #
coedge $-1 $269 $269 $169 $270 forward $264 $-1 #
edge $-1 $433 9.9037372503514738e-016 $433 6.2831853071796013 $269 $434 forward 7 unknown #
face $-1 $435 $436 $60 $-1 $437 forward single #
loop $-1 $-1 $438 $170 #
plane-surface $-1 -2.4806100671495521 84.942391366954823 131.18070287315706 -1 0 0 0 0.77714596973225614 0.62932038083071107 forward_v I I I I #
coedge $-1 $439 $440 $441 $442 reversed $171 $-1 #
coedge $-1 $276 $173 $443 $444 reversed $109 $-1 #
coedge $-1 $173 $275 $439 $445 reversed $109 $-1 #
coedge $-1 $441 $446 $173 $278 forward $436 $-1 #
edge $-1 $447 9.5772708442747856 $448 18.087946411394938 $277 $449 forward 7 unknown #
loop $-1 $-1 $284 $174 #
plane-surface $-1 -9.2169801526638224 -8.5077097744449475 55.506305103024474 0 0.77714596973225614 0.62932038083071107 1 0 0 forward_v I I I I #
loop $-1 $-1 $450 $111 #
coedge $-1 $282 $282 $283 $451 reversed $175 $-1 #
coedge $-1 $283 $283 $282 $451 forward $177 $-1 #
coedge $-1 $284 $284 $178 $285 forward $279 $-1 #
edge $-1 $452 9.9037372503514738e-016 $452 6.2831853071796013 $284 $453 forward 7 unknown #
loop $-1 $-1 $291 $179 #
plane-surface $-1 -9.2169801526638224 -8.5077097744449475 55.506305103024474 0 0.77714596973225614 0.62932038083071107 1 0 0 forward_v I I I I #
loop $-1 $-1 $454 $114 #
coedge $-1 $289 $289 $290 $455 reversed $180 $-1 #
coedge $-1 $290 $290 $289 $455 forward $182 $-1 #
coedge $-1 $291 $291 $183 $292 forward $286 $-1 #
edge $-1 $456 9.9037372503514738e-016 $456 6.2831853071796013 $291 $457 forward 7 unknown #
face $-1 $458 $459 $63 $-1 $460 forward single #
loop $-1 $-1 $461 $184 #
plane-surface $-1 21.768442526550761 84.942391366954823 131.18070287315706 -1 0 0 0 0.77714596973225614 0.62932038083071107 forward_v I I I I #
coedge $-1 $462 $463 $464 $465 reversed $185 $-1 #
coedge $-1 $298 $187 $466 $467 reversed $118 $-1 #
coedge $-1 $187 $297 $462 $468 reversed $118 $-1 #
coedge $-1 $464 $469 $187 $300 forward $459 $-1 #
edge $-1 $470 9.5772708442747856 $471 18.087946411394938 $299 $472 forward 7 unknown #
loop $-1 $-1 $306 $188 #
plane-surface $-1 15.03207244103649 -8.5077097744449475 55.506305103024474 0 0.77714596973225614 0.62932038083071107 1 0 0 forward_v I I I I #
loop $-1 $-1 $473 $120 #
coedge $-1 $304 $304 $305 $474 reversed $189 $-1 #
coedge $-1 $305 $305 $304 $474 forward $191 $-1 #
coedge $-1 $306 $306 $192 $307 forward $301 $-1 #
edge $-1 $475 9.9037372503514738e-016 $475 6.2831853071796013 $306 $476 forward 7 unknown #
loop $-1 $-1 $313 $193 #
plane-surface $-1 15.03207244103649 -8.5077097744449475 55.506305103024474 0 0.77714596973225614 0.62932038083071107 1 0 0 forward_v I I I I #
loop $-1 $-1 $477 $123 #
coedge $-1 $311 $311 $312 $478 reversed $194 $-1 #
coedge $-1 $312 $312 $311 $478 forward $196 $-1 #
coedge $-1 $313 $313 $197 $314 forward $308 $-1 #
edge $-1 $479 9.9037372503514738e-016 $479 6.2831853071796013 $313 $480 forward 7 unknown #
face $-1 $481 $482 $66 $-1 $483 forward single #
loop $-1 $-1 $484 $198 #
plane-surface $-1 46.017495120251056 84.942391366954823 131.18070287315706 -1 0 0 0 0.77714596973225614 0.62932038083071107 forward_v I I I I #
coedge $-1 $485 $486 $487 $488 reversed $199 $-1 #
coedge $-1 $320 $201 $489 $490 reversed $127 $-1 #
coedge $-1 $201 $319 $485 $491 reversed $127 $-1 #
coedge $-1 $487 $492 $201 $322 forward $482 $-1 #
edge $-1 $493 9.5772708442747856 $494 18.087946411394938 $321 $495 forward 7 unknown #
loop $-1 $-1 $328 $202 #
plane-surface $-1 39.281125034736789 -8.5077097744449475 55.506305103024474 0 0.77714596973225614 0.62932038083071107 1 0 0 forward_v I I I I #
loop $-1 $-1 $496 $129 #
coedge $-1 $326 $326 $327 $497 reversed $203 $-1 #
coedge $-1 $327 $327 $326 $497 forward $205 $-1 #
coedge $-1 $328 $328 $206 $329 forward $323 $-1 #
edge $-1 $498 9.9037372503514738e-016 $498 6.2831853071796013 $328 $499 forward 7 unknown #
loop $-1 $-1 $335 $207 #
plane-surface $-1 39.281125034736789 -8.5077097744449475 55.506305103024474 0 0.77714596973225614 0.62932038083071107 1 0 0 forward_v I I I I #
loop $-1 $-1 $500 $132 #
coedge $-1 $333 $333 $334 $501 reversed $208 $-1 #
coedge $-1 $334 $334 $333 $501 forward $210 $-1 #
coedge $-1 $335 $335 $211 $336 forward $330 $-1 #
edge $-1 $502 9.9037372503514738e-016 $502 6.2831853071796013 $335 $503 forward 7 unknown #
face $-1 $504 $505 $69 $-1 $506 forward single #
loop $-1 $-1 $343 $212 #
plane-surface $-1 0 0 14.889352208702945 0 0 1 1 0 0 forward_v I I I I #
coedge $-1 $507 $508 $509 $510 reversed $213 $-1 #
coedge $-1 $342 $215 $511 $512 reversed $136 $-1 #
coedge $-1 $215 $341 $507 $513 reversed $136 $-1 #
coedge $-1 $509 $514 $215 $344 forward $338 $-1 #
edge $-1 $515 27.524878663434407 $516 35.15587810430219 $343 $517 forward 7 unknown #
loop $-1 $-1 $350 $216 #
plane-surface $-1 -36.420719753315396 -32.893924839202626 6.7061069832834335 0 -0.73135370988377701 0.68199835119979291 1 0 0 forward_v I I I I #
loop $-1 $-1 $518 $138 #
coedge $-1 $348 $348 $349 $519 reversed $217 $-1 #
coedge $-1 $349 $349 $348 $519 forward $219 $-1 #
coedge $-1 $350 $350 $220 $351 forward $345 $-1 #
edge $-1 $520 -1.4027636633495637e-016 $520 6.2831853071796004 $350 $521 forward 7 unknown #
loop $-1 $-1 $357 $221 #
plane-surface $-1 -36.420719753315396 -32.893924839202626 6.7061069832834335 0 -0.73135370988377701 0.68199835119979291 1 0 0 forward_v I I I I #
loop $-1 $-1 $522 $141 #
coedge $-1 $355 $355 $356 $523 reversed $222 $-1 #
coedge $-1 $356 $356 $355 $523 forward $224 $-1 #
coedge $-1 $357 $357 $225 $358 forward $352 $-1 #
edge $-1 $524 -1.4027636633495637e-016 $524 6.2831853071796004 $357 $525 forward 7 unknown #
face $-1 $526 $527 $54 $-1 $528 reversed single #
loop $-1 $-1 $529 $226 #
plane-surface $-1 -60.123905148472545 0 0 1 0 0 0 0 -1 forward_v I I I I #
coedge $-1 $530 $370 $531 $532 forward $227 $-1 #
coedge $-1 $533 $229 $530 $534 forward $145 $-1 #
coedge $-1 $229 $533 $535 $536 forward $145 $-1 #
coedge $-1 $373 $372 $229 $366 reversed $374 $-1 #
edge $-1 $537 -32.893924839202626 $538 32.893924839202626 $365 $539 forward 7 unknown #
coedge $-1 $231 $230 $540 $541 forward $91 $-1 #
coedge $-1 $542 $543 $230 $369 reversed $527 $-1 #
edge $-1 $376 -60.123905148472545 $544 60.123905148472545 $368 $545 forward 7 unknown #
coedge $-1 $362 $546 $231 $371 reversed $227 $-1 #
edge $-1 $547 -60.123905148472545 $375 60.123905148472545 $370 $548 forward 7 unknown #
coedge $-1 $365 $232 $546 $549 forward $374 $-1 #
coedge $-1 $232 $365 $542 $550 reversed $374 $-1 #
loop $-1 $-1 $372 $526 #
vertex $-1 $233 $551 #
vertex $-1 $233 $552 #
straight-curve $-1 60.123905148472545 0 14.889352208702945 0 1 0 I I #
face $-1 $553 $554 $55 $-1 $555 forward single #
loop $-1 $-1 $556 $234 #
plane-surface $-1 -60.123905148472545 0 0 1 0 0 0 0 -1 forward_v I I I I #
coedge $-1 $387 $557 $382 $558 forward $235 $-1 #
coedge $-1 $559 $237 $381 $558 reversed $149 $-1 #
coedge $-1 $237 $559 $560 $561 reversed $149 $-1 #
coedge $-1 $239 $238 $556 $562 reversed $94 $-1 #
coedge $-1 $560 $563 $238 $386 forward $564 $-1 #
edge $-1 $565 -32.96840256450426 $390 -21.342602603432322 $385 $566 forward 7 unknown #
coedge $-1 $567 $381 $239 $388 forward $235 $-1 #
edge $-1 $389 21.342602603432322 $568 32.96840256450426 $387 $569 forward 7 unknown #
vertex $-1 $388 $570 #
vertex $-1 $386 $571 #
straight-curve $-1 -48.498105187400611 0 9.2555997579463689 0 -1 0 I I #
face $-1 $572 $573 $56 $-1 $574 reversed single #
loop $-1 $-1 $575 $241 #
plane-surface $-1 0 -32.893924839202626 0 0 1 0 0 0 1 forward_v I I I I #
coedge $-1 $576 $577 $397 $578 forward $242 $-1 #
coedge $-1 $579 $244 $400 $580 reversed $153 $-1 #
coedge $-1 $244 $579 $395 $578 reversed $153 $-1 #
coedge $-1 $581 $403 $244 $399 forward $573 $-1 #
edge $-1 $582 3.2193617662840399 $583 8.8531142170406181 $398 $584 forward 7 unknown #
coedge $-1 $246 $245 $396 $580 forward $97 $-1 #
coedge $-1 $585 $575 $245 $402 forward $393 $-1 #
edge $-1 $586 21.342602603432319 $408 32.968402564504252 $401 $587 forward 7 unknown #
coedge $-1 $398 $588 $246 $404 forward $573 $-1 #
edge $-1 $409 -32.968402564504252 $582 -21.342602603432319 $403 $589 forward 7 unknown #
coedge $-1 $590 $247 $588 $591 reversed $407 $-1 #
coedge $-1 $247 $590 $585 $592 forward $407 $-1 #
loop $-1 $-1 $247 $572 #
vertex $-1 $402 $593 #
vertex $-1 $248 $594 #
straight-curve $-1 60.123905148472545 0 9.2555997579463689 0 1 0 I I #
face $-1 $-1 $423 $57 $-1 $595 forward single #
loop $-1 $-1 $596 $249 #
plane-surface $-1 0 32.893924839202626 0 0 -1 0 0 0 -1 forward_v I I I I #
coedge $-1 $597 $598 $599 $600 reversed $250 $-1 #
coedge $-1 $601 $252 $254 $421 forward $157 $-1 #
coedge $-1 $252 $601 $597 $602 forward $157 $-1 #
coedge $-1 $599 $255 $252 $418 forward $423 $-1 #
edge $-1 $425 -23.469386458696327 $603 -9.9966462876677902 $417 $604 forward 7 unknown #
coedge $-1 $605 $606 $253 $420 forward $412 $-1 #
edge $-1 $607 -61.210808568478214 $424 -50.700999227875585 $419 $608 forward 7 unknown #
edge $-1 $425 52.264252117674829 $607 65.787849678405266 $254 $609 forward 7 unknown #
coedge $-1 $255 $599 $605 $610 forward $423 $-1 #
loop $-1 $-1 $599 $411 #
vertex $-1 $420 $611 #
vertex $-1 $256 $612 #
straight-curve $-1 -40.202402831878388 42.471195683477411 14.889352208702945 0 -1 0 I I #
coedge $-1 $427 $427 $-1 $613 reversed $259 $-1 #
edge $-1 $614 0 $614 6.2831853071796004 $260 $615 forward 7 unknown #
vertex $-1 $263 $616 #
ellipse-curve $-1 -36.353048497298815 28.638587055642546 9.6344475384016341 0 0.77714596973225614 0.62932038083071107 1 0 0 1 I I #
coedge $-1 $431 $431 $-1 $617 reversed $266 $-1 #
edge $-1 $618 0 $618 6.2831853071796004 $267 $619 forward 7 unknown #
vertex $-1 $270 $620 #
ellipse-curve $-1 -30.579016995429438 28.638587055642546 9.6344475384016341 0 0.77714596973225614 0.62932038083071107 1 0 0 1 I I #
face $-1 $-1 $621 $60 $-1 $622 reversed single #
loop $-1 $-1 $277 $271 #
plane-surface $-1 0 0 14.889352208702945 0 0 1 1 0 0 forward_v I I I I #
coedge $-1 $623 $624 $625 $626 reversed $272 $-1 #
coedge $-1 $627 $274 $276 $445 forward $171 $-1 #
coedge $-1 $274 $627 $623 $628 forward $171 $-1 #
coedge $-1 $625 $277 $274 $442 forward $436 $-1 #
edge $-1 $448 -11.344860161846182 $629 2.1278800091823591 $441 $630 forward 7 unknown #
coedge $-1 $631 $632 $275 $444 forward $621 $-1 #
edge $-1 $633 -61.210808568478214 $447 -50.700999227875585 $443 $634 forward 7 unknown #
edge $-1 $448 52.264252117674829 $633 65.787849678405266 $276 $635 forward 7 unknown #
coedge $-1 $277 $625 $631 $636 forward $436 $-1 #
vertex $-1 $278 $637 #
vertex $-1 $278 $638 #
straight-curve $-1 -15.953350238178093 42.471195683477411 14.889352208702945 0 -1 0 I I #
coedge $-1 $450 $450 $-1 $639 reversed $281 $-1 #
edge $-1 $640 0 $640 6.2831853071796004 $282 $641 forward 7 unknown #
vertex $-1 $285 $642 #
ellipse-curve $-1 -12.103995903598502 28.638587055642546 9.6344475384016341 0 0.77714596973225614 0.62932038083071107 1 0 0 1 I I #
coedge $-1 $454 $454 $-1 $643 reversed $288 $-1 #
edge $-1 $644 0 $644 6.2831853071796004 $289 $645 forward 7 unknown #
vertex $-1 $292 $646 #
ellipse-curve $-1 -6.3299644017291286 28.638587055642546 9.6344475384016341 0 0.77714596973225614 0.62932038083071107 1 0 0 1 I I #
face $-1 $-1 $647 $63 $-1 $648 reversed single #
loop $-1 $-1 $299 $293 #
plane-surface $-1 0 0 14.889352208702945 0 0 1 1 0 0 forward_v I I I I #
coedge $-1 $649 $650 $651 $652 reversed $294 $-1 #
coedge $-1 $653 $296 $298 $468 forward $185 $-1 #
coedge $-1 $296 $653 $649 $654 forward $185 $-1 #
coedge $-1 $651 $299 $296 $465 forward $459 $-1 #
edge $-1 $471 0.77966613500397486 $655 14.252406306032515 $464 $656 forward 7 unknown #
coedge $-1 $657 $658 $297 $467 forward $647 $-1 #
edge $-1 $659 -61.210808568478214 $470 -50.700999227875585 $466 $660 forward 7 unknown #
edge $-1 $471 52.264252117674829 $659 65.787849678405266 $298 $661 forward 7 unknown #
coedge $-1 $299 $651 $657 $662 forward $459 $-1 #
vertex $-1 $300 $663 #
vertex $-1 $300 $664 #
straight-curve $-1 8.29570235552222 42.471195683477411 14.889352208702945 0 -1 0 I I #
coedge $-1 $473 $473 $-1 $665 reversed $303 $-1 #
edge $-1 $666 0 $666 6.2831853071796004 $304 $667 forward 7 unknown #
vertex $-1 $307 $668 #
ellipse-curve $-1 12.145056690101796 28.638587055642546 9.6344475384016341 0 0.77714596973225614 0.62932038083071107 1 0 0 1 I I #
coedge $-1 $477 $477 $-1 $669 reversed $310 $-1 #
edge $-1 $670 0 $670 6.2831853071796004 $311 $671 forward 7 unknown #
vertex $-1 $314 $672 #
ellipse-curve $-1 17.919088191971184 28.638587055642546 9.6344475384016341 0 0.77714596973225614 0.62932038083071107 1 0 0 1 I I #
face $-1 $-1 $673 $66 $-1 $674 reversed single #
loop $-1 $-1 $321 $315 #
plane-surface $-1 0 0 14.889352208702945 0 0 1 1 0 0 forward_v I I I I #
coedge $-1 $675 $676 $677 $678 reversed $316 $-1 #
coedge $-1 $679 $318 $320 $491 forward $199 $-1 #
coedge $-1 $318 $679 $675 $680 forward $199 $-1 #
coedge $-1 $677 $321 $318 $488 forward $482 $-1 #
edge $-1 $494 12.904192431854128 $681 26.376932602882661 $487 $682 forward 7 unknown #
coedge $-1 $683 $684 $319 $490 forward $673 $-1 #
edge $-1 $685 -61.210808568478214 $493 -50.700999227875585 $489 $686 forward 7 unknown #
edge $-1 $494 52.264252117674829 $685 65.787849678405266 $320 $687 forward 7 unknown #
coedge $-1 $321 $677 $683 $688 forward $482 $-1 #
vertex $-1 $322 $689 #
vertex $-1 $322 $690 #
straight-curve $-1 32.544754949222522 42.471195683477411 14.889352208702945 0 -1 0 I I #
coedge $-1 $496 $496 $-1 $691 reversed $325 $-1 #
edge $-1 $692 0 $692 6.2831853071796004 $326 $693 forward 7 unknown #
vertex $-1 $329 $694 #
ellipse-curve $-1 36.394109283802095 28.638587055642546 9.6344475384016341 0 0.77714596973225614 0.62932038083071107 1 0 0 1 I I #
coedge $-1 $500 $500 $-1 $695 reversed $332 $-1 #
edge $-1 $696 0 $696 6.2831853071796004 $333 $697 forward 7 unknown #
vertex $-1 $336 $698 #
ellipse-curve $-1 42.168140785671483 28.638587055642546 9.6344475384016341 0 0.77714596973225614 0.62932038083071107 1 0 0 1 I I #
face $-1 $-1 $699 $69 $-1 $700 reversed single #
loop $-1 $-1 $701 $337 #
plane-surface $-1 -48.498105187400611 0 12.072475983324658 -1 0 0 0 0 1 forward_v I I I I #
coedge $-1 $702 $340 $342 $513 forward $213 $-1 #
coedge $-1 $340 $702 $701 $703 forward $213 $-1 #
coedge $-1 $704 $343 $340 $510 forward $338 $-1 #
edge $-1 $516 6.1329744425724826 $705 30.287745310742913 $509 $706 forward 7 unknown #
coedge $-1 $707 $708 $341 $512 forward $699 $-1 #
edge $-1 $709 -37.651350687309296 $515 -29.468105461889785 $511 $710 forward 7 unknown #
edge $-1 $516 -11.189175791177636 $709 0 $342 $711 forward 7 unknown #
coedge $-1 $343 $704 $707 $712 forward $338 $-1 #
vertex $-1 $512 $713 #
vertex $-1 $344 $714 #
straight-curve $-1 -24.343334319230181 -60.418803502637033 14.889352208702945 0 1 0 I I #
coedge $-1 $518 $518 $-1 $715 reversed $347 $-1 #
edge $-1 $716 0 $716 6.2831853071796004 $348 $717 forward 7 unknown #
vertex $-1 $351 $718 #
ellipse-curve $-1 -41.596742082209062 -29.078425118768735 10.797729595993186 0 -0.73135370988377701 0.68199835119979291 2.5 0 0 1 I I #
coedge $-1 $522 $522 $-1 $719 reversed $354 $-1 #
edge $-1 $720 0 $720 6.2831853071796004 $355 $721 forward 7 unknown #
vertex $-1 $358 $722 #
ellipse-curve $-1 -31.244697424421734 -29.078425118768735 10.797729595993186 0 -0.73135370988377701 0.68199835119979291 2.5 0 0 1 I I #
face $-1 $-1 $374 $54 $-1 $723 reversed single #
loop $-1 $-1 $542 $359 #
plane-surface $-1 0 32.893924839202626 0 0 -1 0 0 0 -1 forward_v I I I I #
coedge $-1 $724 $540 $543 $725 forward $360 $-1 #
coedge $-1 $546 $362 $363 $534 reversed $227 $-1 #
coedge $-1 $540 $724 $362 $532 reversed $360 $-1 #
edge $-1 $547 -14.889352208702945 $726 14.889352208702945 $531 $727 forward 7 unknown #
coedge $-1 $364 $363 $724 $728 forward $145 $-1 #
edge $-1 $538 -60.123905148472545 $726 60.123905148472545 $530 $729 forward 7 unknown #
coedge $-1 $543 $542 $364 $536 reversed $527 $-1 #
edge $-1 $730 -60.123905148472545 $537 60.123905148472545 $535 $731 forward 7 unknown #
vertex $-1 $366 $732 #
vertex $-1 $549 $733 #
straight-curve $-1 60.123905148472545 0 -14.889352208702945 0 -1 0 I I #
coedge $-1 $529 $531 $367 $541 reversed $360 $-1 #
edge $-1 $544 -32.893924839202626 $547 32.893924839202626 $540 $734 forward 7 unknown #
coedge $-1 $535 $368 $373 $550 forward $527 $-1 #
coedge $-1 $368 $535 $529 $725 reversed $527 $-1 #
vertex $-1 $369 $735 #
straight-curve $-1 0 32.893924839202626 14.889352208702945 -1 0 0 I I #
coedge $-1 $370 $530 $372 $549 reversed $227 $-1 #
vertex $-1 $541 $736 #
straight-curve $-1 0 -32.893924839202626 14.889352208702945 1 0 0 I I #
edge $-1 $375 -14.889352208702945 $538 14.889352208702945 $372 $737 forward 7 unknown #
edge $-1 $376 -14.889352208702945 $537 14.889352208702945 $373 $738 forward 7 unknown #
point $-1 60.123905148472545 -32.893924839202626 14.889352208702945 #
point $-1 60.123905148472545 32.893924839202626 14.889352208702945 #
face $-1 $-1 $564 $55 $-1 $739 reversed single #
loop $-1 $-1 $740 $378 #
plane-surface $-1 0 0 14.889352208702945 0 0 1 1 0 0 forward_v I I I I #
coedge $-1 $741 $742 $384 $562 forward $379 $-1 #
coedge $-1 $381 $567 $743 $744 reversed $235 $-1 #
edge $-1 $745 -8.8531142170406181 $389 -3.2193617662840399 $381 $746 forward 7 unknown #
coedge $-1 $383 $382 $740 $747 reversed $149 $-1 #
coedge $-1 $748 $385 $383 $561 forward $564 $-1 #
edge $-1 $390 3.2193617662840399 $749 8.8531142170406181 $560 $750 forward 7 unknown #
edge $-1 $568 -32.893924839202626 $565 32.893924839202626 $556 $751 forward 7 unknown #
coedge $-1 $385 $748 $741 $752 forward $564 $-1 #
loop $-1 $-1 $560 $553 #
vertex $-1 $562 $753 #
straight-curve $-1 -27.155502583968289 -32.893924839202626 9.2555997579463689 1 0 0 I I #
coedge $-1 $557 $387 $742 $754 reversed $235 $-1 #
vertex $-1 $562 $755 #
straight-curve $-1 -27.155502583968289 32.893924839202626 9.2555997579463689 -1 0 0 I I #
point $-1 -48.498105187400611 32.893924839202626 9.2555997579463689 #
point $-1 -48.498105187400611 -32.893924839202626 9.2555997579463689 #
face $-1 $-1 $407 $56 $-1 $756 reversed single #
loop $-1 $-1 $398 $392 #
plane-surface $-1 0 32.893924839202626 0 0 -1 0 0 0 -1 forward_v I I I I #
coedge $-1 $401 $757 $579 $758 forward $393 $-1 #
coedge $-1 $759 $395 $757 $760 forward $242 $-1 #
coedge $-1 $395 $759 $581 $761 forward $242 $-1 #
edge $-1 $583 -32.893924839202626 $762 32.893924839202626 $395 $763 forward 7 unknown #
coedge $-1 $397 $396 $575 $758 reversed $153 $-1 #
edge $-1 $586 -32.893924839202626 $582 32.893924839202626 $396 $764 forward 7 unknown #
coedge $-1 $588 $398 $577 $761 reversed $573 $-1 #
vertex $-1 $404 $765 #
vertex $-1 $399 $766 #
straight-curve $-1 48.498105187400604 32.893924839202626 6.036237991662329 0 0 1 I I #
coedge $-1 $757 $401 $406 $592 reversed $393 $-1 #
vertex $-1 $402 $767 #
straight-curve $-1 27.155502583968286 -32.893924839202626 9.2555997579463689 1 0 0 I I #
coedge $-1 $403 $581 $405 $591 forward $573 $-1 #
straight-curve $-1 27.155502583968286 32.893924839202626 9.2555997579463689 -1 0 0 I I #
coedge $-1 $406 $405 $759 $768 reversed $407 $-1 #
edge $-1 $769 -14.889352208702945 $409 -9.2555997579463689 $405 $770 forward 7 unknown #
edge $-1 $771 -14.889352208702945 $408 -9.2555997579463689 $406 $772 forward 7 unknown #
point $-1 60.123905148472538 -32.893924839202626 9.2555997579463689 #
point $-1 60.123905148472538 32.893924839202626 9.2555997579463689 #
plane-surface $-1 0 0 14.889352208702945 0 0 1 1 0 0 forward_v I I I I #
coedge $-1 $606 $605 $598 $773 forward $412 $-1 #
coedge $-1 $598 $414 $416 $602 reversed $250 $-1 #
coedge $-1 $414 $597 $596 $773 reversed $250 $-1 #
coedge $-1 $422 $417 $414 $600 forward $423 $-1 #
edge $-1 $603 -18.087946411394938 $774 -9.5772708442747856 $599 $775 forward 7 unknown #
coedge $-1 $416 $415 $606 $776 reversed $157 $-1 #
edge $-1 $777 -65.787849678405266 $603 -52.264252117674829 $597 $778 forward 7 unknown #
vertex $-1 $418 $779 #
straight-curve $-1 -16.73301637318206 24.383249272082477 14.889352208702945 1 0 0 I I #
coedge $-1 $596 $419 $422 $610 reversed $412 $-1 #
coedge $-1 $419 $596 $601 $776 forward $412 $-1 #
vertex $-1 $420 $780 #
straight-curve $-1 -40.202402831878388 32.893924839202626 65.59035143657853 0 0 1 I I #
straight-curve $-1 -40.202402831878388 -8.5077097744449475 55.506305103024474 0 0.62932038083071107 -0.77714596973225614 I I #
edge $-1 $774 26.729662660849851 $424 40.202402831878388 $605 $781 forward 7 unknown #
point $-1 -40.202402831878388 32.893924839202626 14.889352208702945 #
point $-1 -40.202402831878388 24.383249272082473 14.889352208702945 #
edge $-1 $782 1 $782 0 $427 $-1 forward 7 unknown #
vertex $-1 $428 $783 #
ellipse-curve $-1 -36.353048497298815 27.378745850582359 8.6142482736124855 0 0.77714596973225614 0.62932038083071107 1 0 0 1 I I #
point $-1 -35.353048497298815 28.638587055642567 9.6344475384016501 #
edge $-1 $784 1 $784 0 $431 $-1 forward 7 unknown #
vertex $-1 $432 $785 #
ellipse-curve $-1 -30.579016995429438 27.378745850582359 8.6142482736124855 0 0.77714596973225614 0.62932038083071107 1 0 0 1 I I #
point $-1 -29.579016995429438 28.638587055642567 9.6344475384016501 #
loop $-1 $-1 $443 $435 #
plane-surface $-1 0 32.893924839202626 0 0 -1 0 0 0 -1 forward_v I I I I #
coedge $-1 $624 $438 $440 $628 reversed $272 $-1 #
coedge $-1 $438 $623 $786 $787 reversed $272 $-1 #
coedge $-1 $446 $441 $438 $626 forward $436 $-1 #
edge $-1 $629 -18.087946411394938 $788 -9.5772708442747856 $625 $789 forward 7 unknown #
coedge $-1 $440 $439 $632 $790 reversed $171 $-1 #
edge $-1 $791 -65.787849678405266 $629 -52.264252117674829 $623 $792 forward 7 unknown #
vertex $-1 $442 $793 #
straight-curve $-1 -4.6084900763319112 24.383249272082477 14.889352208702945 1 0 0 I I #
coedge $-1 $786 $443 $446 $636 reversed $621 $-1 #
coedge $-1 $443 $786 $627 $790 forward $621 $-1 #
vertex $-1 $444 $794 #
straight-curve $-1 -15.953350238178093 32.893924839202626 65.59035143657853 0 0 1 I I #
straight-curve $-1 -15.953350238178093 -8.5077097744449475 55.506305103024474 0 0.62932038083071107 -0.77714596973225614 I I #
edge $-1 $788 2.4806100671495521 $447 15.953350238178093 $631 $795 forward 7 unknown #
point $-1 -15.953350238178093 32.893924839202626 14.889352208702945 #
point $-1 -15.953350238178093 24.383249272082473 14.889352208702945 #
edge $-1 $796 1 $796 0 $450 $-1 forward 7 unknown #
vertex $-1 $451 $797 #
ellipse-curve $-1 -12.103995903598502 27.378745850582359 8.6142482736124855 0 0.77714596973225614 0.62932038083071107 1 0 0 1 I I #
point $-1 -11.103995903598502 28.638587055642567 9.6344475384016501 #
edge $-1 $798 1 $798 0 $454 $-1 forward 7 unknown #
vertex $-1 $455 $799 #
ellipse-curve $-1 -6.3299644017291286 27.378745850582359 8.6142482736124855 0 0.77714596973225614 0.62932038083071107 1 0 0 1 I I #
point $-1 -5.3299644017291286 28.638587055642567 9.6344475384016501 #
loop $-1 $-1 $466 $458 #
plane-surface $-1 0 32.893924839202626 0 0 -1 0 0 0 -1 forward_v I I I I #
coedge $-1 $650 $461 $463 $654 reversed $294 $-1 #
coedge $-1 $461 $649 $800 $801 reversed $294 $-1 #
coedge $-1 $469 $464 $461 $652 forward $459 $-1 #
edge $-1 $655 -18.087946411394938 $802 -9.5772708442747856 $651 $803 forward 7 unknown #
coedge $-1 $463 $462 $658 $804 reversed $185 $-1 #
edge $-1 $805 -65.787849678405266 $655 -52.264252117674829 $649 $806 forward 7 unknown #
vertex $-1 $465 $807 #
straight-curve $-1 7.5160362205182452 24.383249272082477 14.889352208702945 1 0 0 I I #
coedge $-1 $800 $466 $469 $662 reversed $647 $-1 #
coedge $-1 $466 $800 $653 $804 forward $647 $-1 #
vertex $-1 $467 $808 #
straight-curve $-1 8.29570235552222 32.893924839202626 65.59035143657853 0 0 1 I I #
straight-curve $-1 8.29570235552222 -8.5077097744449475 55.506305103024474 0 0.62932038083071107 -0.77714596973225614 I I #
edge $-1 $802 -21.768442526550761 $470 -8.29570235552222 $657 $809 forward 7 unknown #
point $-1 8.29570235552222 32.893924839202626 14.889352208702945 #
point $-1 8.29570235552222 24.383249272082473 14.889352208702945 #
edge $-1 $810 1 $810 0 $473 $-1 forward 7 unknown #
vertex $-1 $474 $811 #
ellipse-curve $-1 12.145056690101796 27.378745850582359 8.6142482736124855 0 0.77714596973225614 0.62932038083071107 1 0 0 1 I I #
point $-1 13.145056690101796 28.638587055642567 9.6344475384016501 #
edge $-1 $812 1 $812 0 $477 $-1 forward 7 unknown #
vertex $-1 $478 $813 #
ellipse-curve $-1 17.919088191971184 27.378745850582359 8.6142482736124855 0 0.77714596973225614 0.62932038083071107 1 0 0 1 I I #
point $-1 18.919088191971184 28.638587055642567 9.6344475384016501 #
loop $-1 $-1 $489 $481 #
plane-surface $-1 0 32.893924839202626 0 0 -1 0 0 0 -1 forward_v I I I I #
coedge $-1 $676 $484 $486 $680 reversed $316 $-1 #
coedge $-1 $484 $675 $814 $815 reversed $316 $-1 #
coedge $-1 $492 $487 $484 $678 forward $482 $-1 #
edge $-1 $681 -18.087946411394938 $816 -9.5772708442747856 $677 $817 forward 7 unknown #
coedge $-1 $486 $485 $684 $818 reversed $199 $-1 #
edge $-1 $819 -65.787849678405266 $681 -52.264252117674829 $675 $820 forward 7 unknown #
vertex $-1 $488 $821 #
straight-curve $-1 19.640562517368394 24.383249272082477 14.889352208702945 1 0 0 I I #
coedge $-1 $814 $489 $492 $688 reversed $673 $-1 #
coedge $-1 $489 $814 $679 $818 forward $673 $-1 #
vertex $-1 $490 $822 #
straight-curve $-1 32.544754949222522 32.893924839202626 65.59035143657853 0 0 1 I I #
straight-curve $-1 32.544754949222522 -8.5077097744449475 55.506305103024474 0 0.62932038083071107 -0.77714596973225614 I I #
edge $-1 $816 -46.017495120251056 $493 -32.544754949222522 $683 $823 forward 7 unknown #
point $-1 32.544754949222522 32.893924839202626 14.889352208702945 #
point $-1 32.544754949222522 24.383249272082473 14.889352208702945 #
edge $-1 $824 1 $824 0 $496 $-1 forward 7 unknown #
vertex $-1 $497 $825 #
ellipse-curve $-1 36.394109283802095 27.378745850582359 8.6142482736124855 0 0.77714596973225614 0.62932038083071107 1 0 0 1 I I #
point $-1 37.394109283802095 28.638587055642567 9.6344475384016501 #
edge $-1 $826 1 $826 0 $500 $-1 forward 7 unknown #
vertex $-1 $501 $827 #
ellipse-curve $-1 42.168140785671483 27.378745850582359 8.6142482736124855 0 0.77714596973225614 0.62932038083071107 1 0 0 1 I I #
point $-1 43.168140785671483 28.638587055642567 9.6344475384016501 #
loop $-1 $-1 $511 $504 #
plane-surface $-1 0 -32.893924839202626 0 0 1 0 0 0 1 forward_v I I I I #
coedge $-1 $828 $829 $508 $703 reversed $505 $-1 #
coedge $-1 $508 $507 $708 $830 reversed $213 $-1 #
edge $-1 $831 0 $705 11.189175791177636 $701 $832 forward 7 unknown #
coedge $-1 $514 $509 $829 $833 forward $338 $-1 #
vertex $-1 $833 $834 #
straight-curve $-1 -18.210359876657698 -25.26292539833484 14.889352208702945 -1 0 0 I I #
coedge $-1 $835 $511 $514 $712 reversed $699 $-1 #
coedge $-1 $511 $835 $702 $830 forward $699 $-1 #
vertex $-1 $512 $836 #
straight-curve $-1 -24.343334319230181 -32.893924839202626 44.35745767059273 0 0 1 I I #
straight-curve $-1 -24.343334319230181 -32.893924839202626 6.7061069832834335 0 -0.68199835119979291 -0.73135370988377701 I I #
edge $-1 $837 -48.498105187400611 $515 -24.343334319230181 $707 $838 forward 7 unknown #
point $-1 -24.343334319230181 -32.893924839202626 14.889352208702945 #
point $-1 -24.343334319230181 -25.26292539833484 14.889352208702945 #
edge $-1 $839 1 $839 0 $518 $-1 forward 7 unknown #
vertex $-1 $519 $840 #
ellipse-curve $-1 -41.596742082209062 -25.238913001135682 7.2173267098801279 0 -0.73135370988377701 0.68199835119979291 2.5 0 0 1 I I #
point $-1 -39.096742082209062 -29.078425118768727 10.797729595993179 #
edge $-1 $841 1 $841 0 $522 $-1 forward 7 unknown #
vertex $-1 $523 $842 #
ellipse-curve $-1 -31.244697424421734 -25.238913001135682 7.2173267098801279 0 -0.73135370988377701 0.68199835119979291 2.5 0 0 1 I I #
point $-1 -28.744697424421734 -29.078425118768727 10.797729595993179 #
plane-surface $-1 60.123905148472545 0 0 -1 0 0 0 0 1 forward_v I I I I #
coedge $-1 $531 $529 $533 $728 reversed $360 $-1 #
edge $-1 $544 -14.889352208702945 $730 14.889352208702945 $543 $843 forward 7 unknown #
vertex $-1 $728 $844 #
straight-curve $-1 -60.123905148472545 -32.893924839202626 0 0 0 -1 I I #
edge $-1 $726 -32.893924839202626 $730 32.893924839202626 $724 $845 forward 7 unknown #
straight-curve $-1 0 -32.893924839202626 -14.889352208702945 -1 0 0 I I #
vertex $-1 $536 $846 #
straight-curve $-1 0 32.893924839202626 -14.889352208702945 1 0 0 I I #
point $-1 60.123905148472545 32.893924839202626 -14.889352208702945 #
point $-1 60.123905148472545 -32.893924839202626 -14.889352208702945 #
straight-curve $-1 -60.123905148472545 0 14.889352208702945 0 -1 0 I I #
point $-1 -60.123905148472545 32.893924839202626 14.889352208702945 #
point $-1 -60.123905148472545 -32.893924839202626 14.889352208702945 #
straight-curve $-1 60.123905148472545 -32.893924839202626 0 0 0 -1 I I #
straight-curve $-1 60.123905148472545 32.893924839202626 0 0 0 -1 I I #
plane-surface $-1 0 -32.893924839202626 0 0 1 0 0 0 1 forward_v I I I I #
coedge $-1 $743 $847 $559 $747 forward $554 $-1 #
coedge $-1 $848 $556 $563 $752 reversed $379 $-1 #
coedge $-1 $556 $848 $567 $754 forward $379 $-1 #
coedge $-1 $849 $740 $557 $744 forward $554 $-1 #
edge $-1 $745 48.498105187400611 $850 60.123905148472545 $557 $851 forward 7 unknown #
vertex $-1 $744 $852 #
straight-curve $-1 -48.498105187400611 32.893924839202626 6.036237991662329 0 0 -1 I I #
edge $-1 $749 -32.893924839202626 $745 32.893924839202626 $740 $853 forward 7 unknown #
coedge $-1 $563 $560 $847 $854 reversed $564 $-1 #
vertex $-1 $561 $855 #
straight-curve $-1 -48.498105187400611 -32.893924839202626 6.036237991662329 0 0 1 I I #
straight-curve $-1 -60.123905148472545 0 9.2555997579463689 0 -1 0 I I #
edge $-1 $856 -14.889352208702945 $565 -9.2555997579463689 $741 $857 forward 7 unknown #
point $-1 -60.123905148472545 -32.893924839202626 9.2555997579463689 #
edge $-1 $850 -14.889352208702945 $568 -9.2555997579463689 $567 $858 forward 7 unknown #
point $-1 -60.123905148472545 32.893924839202626 9.2555997579463689 #
plane-surface $-1 60.123905148472545 0 0 -1 0 0 0 0 1 forward_v I I I I #
coedge $-1 $575 $585 $576 $760 reversed $393 $-1 #
edge $-1 $762 -8.8531142170406181 $586 -3.2193617662840399 $575 $859 forward 7 unknown #
coedge $-1 $577 $576 $590 $768 forward $242 $-1 #
edge $-1 $762 48.498105187400604 $771 60.123905148472545 $757 $860 forward 7 unknown #
edge $-1 $769 -60.123905148472545 $583 -48.498105187400604 $581 $861 forward 7 unknown #
vertex $-1 $760 $862 #
straight-curve $-1 48.498105187400604 0 14.889352208702945 0 -1 0 I I #
straight-curve $-1 48.498105187400604 0 9.2555997579463689 0 1 0 I I #
point $-1 48.498105187400604 32.893924839202626 9.2555997579463689 #
point $-1 48.498105187400604 32.893924839202626 14.889352208702947 #
point $-1 48.498105187400604 -32.893924839202626 9.2555997579463689 #
edge $-1 $771 -32.893924839202626 $769 32.893924839202626 $590 $863 forward 7 unknown #
vertex $-1 $768 $864 #
straight-curve $-1 60.123905148472545 32.893924839202626 0 0 0 -1 I I #
vertex $-1 $768 $865 #
straight-curve $-1 60.123905148472545 -32.893924839202626 0 0 0 -1 I I #
edge $-1 $774 50.700999227875585 $777 61.210808568478214 $596 $866 forward 7 unknown #
vertex $-1 $610 $867 #
straight-curve $-1 -26.729662660849851 42.471195683477411 14.889352208702945 0 1 0 I I #
edge $-1 $777 9.9966462876677902 $607 23.469386458696327 $606 $868 forward 7 unknown #
vertex $-1 $776 $869 #
straight-curve $-1 -26.729662660849851 -8.5077097744449475 55.506305103024474 0 -0.62932038083071107 0.77714596973225614 I I #
point $-1 -26.729662660849851 24.383249272082473 14.889352208702945 #
point $-1 -40.202402831878388 32.893924839202626 4.3795428681003159 #
straight-curve $-1 0 32.893924839202626 14.889352208702945 -1 0 0 I I #
vertex $-1 $613 $870 #
point $-1 -35.353048497298815 27.378745850582359 8.6142482736124855 #
vertex $-1 $617 $871 #
point $-1 -29.579016995429438 27.378745850582359 8.6142482736124855 #
coedge $-1 $632 $631 $624 $787 forward $621 $-1 #
edge $-1 $788 50.700999227875585 $791 61.210808568478214 $786 $872 forward 7 unknown #
vertex $-1 $636 $873 #
straight-curve $-1 -2.4806100671495521 42.471195683477411 14.889352208702945 0 1 0 I I #
edge $-1 $791 -2.1278800091823591 $633 11.344860161846182 $632 $874 forward 7 unknown #
vertex $-1 $790 $875 #
straight-curve $-1 -2.4806100671495521 -8.5077097744449475 55.506305103024474 0 -0.62932038083071107 0.77714596973225614 I I #
point $-1 -2.4806100671495521 24.383249272082473 14.889352208702945 #
point $-1 -15.953350238178093 32.893924839202626 4.3795428681003159 #
straight-curve $-1 0 32.893924839202626 14.889352208702945 -1 0 0 I I #
vertex $-1 $639 $876 #
point $-1 -11.103995903598502 27.378745850582359 8.6142482736124855 #
vertex $-1 $643 $877 #
point $-1 -5.3299644017291286 27.378745850582359 8.6142482736124855 #
coedge $-1 $658 $657 $650 $801 forward $647 $-1 #
edge $-1 $802 50.700999227875585 $805 61.210808568478214 $800 $878 forward 7 unknown #
vertex $-1 $662 $879 #
straight-curve $-1 21.768442526550761 42.471195683477411 14.889352208702945 0 1 0 I I #
edge $-1 $805 -14.252406306032515 $659 -0.77966613500397486 $658 $880 forward 7 unknown #
vertex $-1 $804 $881 #
straight-curve $-1 21.768442526550761 -8.5077097744449475 55.506305103024474 0 -0.62932038083071107 0.77714596973225614 I I #
point $-1 21.768442526550761 24.383249272082473 14.889352208702945 #
point $-1 8.29570235552222 32.893924839202626 4.3795428681003159 #
straight-curve $-1 0 32.893924839202626 14.889352208702945 -1 0 0 I I #
vertex $-1 $665 $882 #
point $-1 13.145056690101796 27.378745850582359 8.6142482736124855 #
vertex $-1 $669 $883 #
point $-1 18.919088191971184 27.378745850582359 8.6142482736124855 #
coedge $-1 $684 $683 $676 $815 forward $673 $-1 #
edge $-1 $816 50.700999227875585 $819 61.210808568478214 $814 $884 forward 7 unknown #
vertex $-1 $688 $885 #
straight-curve $-1 46.017495120251056 42.471195683477411 14.889352208702945 0 1 0 I I #
edge $-1 $819 -26.376932602882661 $685 -12.904192431854128 $684 $886 forward 7 unknown #
vertex $-1 $818 $887 #
straight-curve $-1 46.017495120251056 -8.5077097744449475 55.506305103024474 0 -0.62932038083071107 0.77714596973225614 I I #
point $-1 46.017495120251056 24.383249272082473 14.889352208702945 #
point $-1 32.544754949222522 32.893924839202626 4.3795428681003159 #
straight-curve $-1 0 32.893924839202626 14.889352208702945 -1 0 0 I I #
vertex $-1 $691 $888 #
point $-1 37.394109283802095 27.378745850582359 8.6142482736124855 #
vertex $-1 $695 $889 #
point $-1 43.168140785671483 27.378745850582359 8.6142482736124855 #
coedge $-1 $829 $701 $835 $890 reversed $505 $-1 #
coedge $-1 $701 $828 $704 $833 reversed $505 $-1 #
edge $-1 $831 -30.287745310742913 $709 -6.1329744425724826 $708 $891 forward 7 unknown #
vertex $-1 $890 $892 #
straight-curve $-1 -48.498105187400611 -32.893924839202626 6.7061069832834335 0 0.68199835119979291 0.73135370988377701 I I #
edge $-1 $705 25.26292539833484 $837 32.893924839202626 $704 $893 forward 7 unknown #
point $-1 -48.498105187400611 -25.26292539833484 14.889352208702945 #
coedge $-1 $708 $707 $828 $890 forward $699 $-1 #
point $-1 -24.343334319230181 -32.893924839202626 6.7061069832834335 #
vertex $-1 $712 $894 #
straight-curve $-1 0 -32.893924839202626 14.889352208702945 1 0 0 I I #
vertex $-1 $715 $895 #
point $-1 -39.096742082209062 -25.238913001135682 7.2173267098801279 #
vertex $-1 $719 $896 #
point $-1 -28.744697424421734 -25.238913001135682 7.2173267098801279 #
straight-curve $-1 -60.123905148472545 32.893924839202626 0 0 0 -1 I I #
point $-1 -60.123905148472545 -32.893924839202626 -14.889352208702945 #
straight-curve $-1 -60.123905148472545 0 -14.889352208702945 0 1 0 I I #
point $-1 -60.123905148472545 32.893924839202626 -14.889352208702945 #
coedge $-1 $740 $849 $748 $854 forward $554 $-1 #
coedge $-1 $742 $741 $849 $897 reversed $379 $-1 #
coedge $-1 $847 $743 $848 $897 forward $554 $-1 #
vertex $-1 $744 $898 #
straight-curve $-1 0 32.893924839202626 14.889352208702945 -1 0 0 I I #
point $-1 -48.498105187400611 32.893924839202626 14.889352208702947 #
straight-curve $-1 -48.498105187400611 0 14.889352208702945 0 1 0 I I #
edge $-1 $856 -60.123905148472545 $749 -48.498105187400611 $748 $899 forward 7 unknown #
point $-1 -48.498105187400611 -32.893924839202626 14.889352208702947 #
vertex $-1 $897 $900 #
straight-curve $-1 -60.123905148472545 -32.893924839202626 0 0 0 -1 I I #
straight-curve $-1 -60.123905148472545 32.893924839202626 0 0 0 -1 I I #
straight-curve $-1 48.498105187400604 -32.893924839202626 6.036237991662329 0 0 -1 I I #
straight-curve $-1 0 -32.893924839202626 14.889352208702945 1 0 0 I I #
straight-curve $-1 0 32.893924839202626 14.889352208702945 -1 0 0 I I #
point $-1 48.498105187400604 -32.893924839202626 14.889352208702947 #
straight-curve $-1 60.123905148472545 0 14.889352208702945 0 1 0 I I #
point $-1 60.123905148472545 32.893924839202626 14.889352208702945 #
point $-1 60.123905148472545 -32.893924839202626 14.889352208702945 #
straight-curve $-1 -26.729662660849851 32.893924839202626 65.59035143657853 0 0 -1 I I #
point $-1 -26.729662660849851 32.893924839202626 14.889352208702945 #
straight-curve $-1 -16.73301637318206 32.893924839202626 4.379542868100323 -1 0 0 I I #
point $-1 -26.729662660849851 32.893924839202626 4.3795428681003159 #
point $-1 -36.353048497298815 26.601599880850106 7.9849278927817737 #
point $-1 -30.579016995429438 26.601599880850106 7.9849278927817737 #
straight-curve $-1 -2.4806100671495521 32.893924839202626 65.59035143657853 0 0 -1 I I #
point $-1 -2.4806100671495521 32.893924839202626 14.889352208702945 #
straight-curve $-1 -4.6084900763319112 32.893924839202626 4.379542868100323 -1 0 0 I I #
point $-1 -2.4806100671495521 32.893924839202626 4.3795428681003159 #
point $-1 -12.103995903598502 26.601599880850106 7.9849278927817737 #
point $-1 -6.3299644017291286 26.601599880850106 7.9849278927817737 #
straight-curve $-1 21.768442526550761 32.893924839202626 65.59035143657853 0 0 -1 I I #
point $-1 21.768442526550761 32.893924839202626 14.889352208702945 #
straight-curve $-1 7.5160362205182452 32.893924839202626 4.379542868100323 -1 0 0 I I #
point $-1 21.768442526550761 32.893924839202626 4.3795428681003159 #
point $-1 12.145056690101796 26.601599880850106 7.9849278927817737 #
point $-1 17.919088191971184 26.601599880850106 7.9849278927817737 #
straight-curve $-1 46.017495120251056 32.893924839202626 65.59035143657853 0 0 -1 I I #
point $-1 46.017495120251056 32.893924839202626 14.889352208702945 #
straight-curve $-1 19.640562517368394 32.893924839202626 4.379542868100323 -1 0 0 I I #
point $-1 46.017495120251056 32.893924839202626 4.3795428681003159 #
point $-1 36.394109283802095 26.601599880850106 7.9849278927817737 #
point $-1 42.168140785671483 26.601599880850106 7.9849278927817737 #
edge $-1 $837 29.468105461889785 $831 37.651350687309296 $835 $901 forward 7 unknown #
straight-curve $-1 -18.210359876657698 -32.893924839202626 6.7061069832834344 1 0 0 I I #
point $-1 -48.498105187400611 -32.893924839202626 6.7061069832834335 #
straight-curve $-1 -48.498105187400611 0 14.889352208702945 0 -1 0 I I #
point $-1 -48.498105187400611 -32.893924839202626 14.889352208702947 #
point $-1 -41.596742082209062 -23.410528726426239 5.5123308318806448 #
point $-1 -31.244697424421734 -23.410528726426239 5.5123308318806448 #
edge $-1 $850 -32.893924839202626 $856 32.893924839202626 $848 $902 forward 7 unknown #
point $-1 -60.123905148472545 32.893924839202626 14.889352208702945 #
straight-curve $-1 0 -32.893924839202626 14.889352208702945 1 0 0 I I #
point $-1 -60.123905148472545 -32.893924839202626 14.889352208702945 #
straight-curve $-1 -48.498105187400611 -32.893924839202626 44.35745767059273 0 0 -1 I I #
straight-curve $-1 -60.123905148472545 0 14.889352208702945 0 -1 0 I I #
End-of-ACIS-data 