500 0 5 0           
7 Unknown 11 ACIS 5.0 NT 24 Thu Mar 25 22:17:24 1999 
-1 9.9999999999999995e-007 1e-010 
body $-1 $5 $-1 $6 #
body $-1 $7 $-1 $8 #
body $-1 $9 $-1 $10 #
body $-1 $11 $-1 $12 #
body $-1 $13 $-1 $14 #
lump $-1 $-1 $15 $0 #
transform $-1 1 0 0 0 1 0 0 0 1 71.274147770622875 47.027842940471224 19.747330967199854 1 rotate no_reflect no_shear #
lump $-1 $-1 $16 $1 #
transform $-1 1 0 0 0 1 0 0 0 1 71.274147770622875 47.027842940471224 19.747330967199854 1 rotate no_reflect no_shear #
lump $-1 $-1 $17 $2 #
transform $-1 1 0 0 0 1 0 0 0 1 71.274147770622875 47.027842940471224 19.747330967199854 1 rotate no_reflect no_shear #
lump $-1 $-1 $18 $3 #
transform $-1 1 0 0 0 1 0 0 0 1 71.274147770622875 47.027842940471224 19.747330967199854 1 rotate no_reflect no_shear #
lump $-1 $-1 $19 $4 #
transform $-1 1 0 0 0 1 0 0 0 1 71.274147770622875 47.027842940471224 19.747330967199854 1 rotate no_reflect no_shear #
shell $-1 $-1 $-1 $20 $-1 $5 #
shell $-1 $-1 $-1 $21 $-1 $7 #
shell $-1 $-1 $-1 $22 $-1 $9 #
shell $-1 $-1 $-1 $23 $-1 $11 #
shell $-1 $-1 $-1 $24 $-1 $13 #
face $-1 $25 $26 $15 $-1 $27 forward single #
face $-1 $28 $29 $16 $-1 $30 forward single #
face $-1 $31 $32 $17 $-1 $33 reversed single #
face $-1 $34 $35 $18 $-1 $36 forward single #
face $-1 $37 $38 $19 $-1 $39 forward single #
face $-1 $40 $41 $15 $-1 $42 reversed single #
loop $-1 $-1 $43 $20 #
plane-surface $-1 0 0 19.747330967199854 0 0 1 1 0 0 forward_v I I I I #
face $-1 $44 $45 $16 $-1 $46 reversed single #
loop $-1 $-1 $47 $21 #
plane-surface $-1 -71.274147770622875 0 0 1 0 0 0 0 -1 forward_v I I I I #
face $-1 $48 $49 $17 $-1 $50 reversed single #
loop $-1 $-1 $51 $22 #
plane-surface $-1 35.106939640794224 115.35250722612014 160.19546866120285 1 0 0 0 -0.83867057594974714 -0.54463902268945019 forward_v I I I I #
face $-1 $52 $53 $18 $-1 $54 forward single #
loop $-1 $55 $56 $23 #
cone-surface $-1 45.440427677888124 38.634931580987654 9.6502344780701215 0 -0.83867057594974714 -0.54463902268945019 2.5 0 0 1 I I 0 1 2.5 forward I I I I #
face $-1 $57 $58 $19 $-1 $59 forward single #
loop $-1 $60 $61 $24 #
cone-surface $-1 60.940659733528975 38.634931580987654 9.6502344780701215 0 -0.83867057594974714 -0.54463902268945019 2.5 0 0 1 I I 0 1 2.5 forward I I I I #
face $-1 $62 $63 $15 $-1 $64 reversed single #
loop $-1 $-1 $65 $25 #
plane-surface $-1 0 0 -19.747330967199854 0 0 1 1 0 0 forward_v I I I I #
coedge $-1 $66 $67 $68 $69 forward $26 $-1 #
face $-1 $70 $71 $16 $-1 $72 forward single #
loop $-1 $-1 $73 $28 #
plane-surface $-1 0 47.027842940471224 0 0 -1 0 0 0 -1 forward_v I I I I #
coedge $-1 $74 $75 $76 $77 forward $29 $-1 #
face $-1 $78 $79 $17 $-1 $80 forward single #
loop $-1 $-1 $81 $31 #
plane-surface $-1 53.190543705708549 -4.198553896111207 82.558104291571851 0 0.83867057594974714 0.54463902268945019 1 0 0 forward_v I I I I #
coedge $-1 $82 $83 $84 $85 reversed $32 $-1 #
face $-1 $-1 $86 $18 $-1 $87 forward single #
loop $-1 $88 $89 $34 #
cone-surface $-1 45.440427677888124 34.411984510332154 6.9078206729518392 0 -0.83867057594974714 -0.54463902268945019 1.25 0 0 1 I I -0.70710678118654746 0.70710678118654746 1.25 forward I I I I #
loop $-1 $-1 $90 $23 #
coedge $-1 $56 $56 $91 $92 reversed $35 $-1 #
face $-1 $-1 $93 $19 $-1 $94 forward single #
loop $-1 $95 $96 $37 #
cone-surface $-1 60.940659733528975 34.411984510332154 6.9078206729518392 0 -0.83867057594974714 -0.54463902268945019 1.25 0 0 1 I I -0.70710678118654746 0.70710678118654746 1.25 forward I I I I #
loop $-1 $-1 $97 $24 #
coedge $-1 $61 $61 $98 $99 reversed $38 $-1 #
face $-1 $100 $101 $15 $-1 $102 reversed single #
loop $-1 $-1 $103 $40 #
plane-surface $-1 0 -47.027842940471224 0 0 1 0 0 0 1 forward_v I I I I #
coedge $-1 $104 $105 $106 $107 forward $41 $-1 #
coedge $-1 $108 $43 $109 $110 forward $26 $-1 #
coedge $-1 $43 $108 $111 $112 forward $26 $-1 #
coedge $-1 $113 $114 $43 $69 reversed $115 $-1 #
edge $-1 $116 -47.027842940471224 $117 47.027842940471224 $68 $118 forward 7 unknown #
face $-1 $119 $120 $16 $-1 $121 reversed single #
loop $-1 $-1 $76 $44 #
plane-surface $-1 -79.412811923775052 0 14.261510577767968 0 0 1 1 0 0 forward_v I I I I #
coedge $-1 $122 $123 $75 $124 forward $45 $-1 #
coedge $-1 $125 $47 $126 $127 reversed $29 $-1 #
coedge $-1 $47 $125 $73 $124 reversed $29 $-1 #
coedge $-1 $128 $129 $47 $77 reversed $71 $-1 #
edge $-1 $130 -47.027842940471224 $131 47.027842940471224 $76 $132 forward 7 unknown #
face $-1 $133 $134 $17 $-1 $135 reversed single #
loop $-1 $-1 $84 $48 #
plane-surface $-1 0 0 19.747330967199854 0 0 1 1 0 0 forward_v I I I I #
coedge $-1 $136 $137 $138 $139 reversed $49 $-1 #
coedge $-1 $83 $51 $140 $141 reversed $32 $-1 #
coedge $-1 $51 $82 $136 $142 reversed $32 $-1 #
coedge $-1 $138 $143 $51 $85 forward $79 $-1 #
edge $-1 $144 10.648410672588845 $145 21.085015690119363 $84 $146 forward 7 unknown #
loop $-1 $-1 $91 $52 #
plane-surface $-1 53.190543705708549 -4.198553896111207 82.558104291571851 0 0.83867057594974714 0.54463902268945019 1 0 0 forward_v I I I I #
loop $-1 $-1 $147 $34 #
coedge $-1 $89 $89 $90 $148 reversed $53 $-1 #
coedge $-1 $90 $90 $89 $148 forward $55 $-1 #
coedge $-1 $91 $91 $56 $92 forward $86 $-1 #
edge $-1 $149 -5.9591128543683224e-016 $149 6.2831853071795996 $91 $150 forward 7 unknown #
loop $-1 $-1 $98 $57 #
plane-surface $-1 53.190543705708549 -4.198553896111207 82.558104291571851 0 0.83867057594974714 0.54463902268945019 1 0 0 forward_v I I I I #
loop $-1 $-1 $151 $37 #
coedge $-1 $96 $96 $97 $152 reversed $58 $-1 #
coedge $-1 $97 $97 $96 $152 forward $60 $-1 #
coedge $-1 $98 $98 $61 $99 forward $93 $-1 #
edge $-1 $153 -5.9591128543683224e-016 $153 6.2831853071795996 $98 $154 forward 7 unknown #
face $-1 $155 $156 $15 $-1 $157 reversed single #
loop $-1 $-1 $158 $62 #
plane-surface $-1 -71.274147770622875 0 0 1 0 0 0 0 -1 forward_v I I I I #
coedge $-1 $159 $111 $160 $161 forward $63 $-1 #
coedge $-1 $162 $65 $159 $163 forward $41 $-1 #
coedge $-1 $65 $162 $164 $165 forward $41 $-1 #
coedge $-1 $114 $113 $65 $107 reversed $115 $-1 #
edge $-1 $166 -47.027842940471224 $167 47.027842940471224 $106 $168 forward 7 unknown #
coedge $-1 $67 $66 $169 $170 forward $26 $-1 #
coedge $-1 $171 $172 $66 $110 reversed $156 $-1 #
edge $-1 $117 -71.274147770622875 $173 71.274147770622875 $109 $174 forward 7 unknown #
coedge $-1 $103 $175 $67 $112 reversed $63 $-1 #
edge $-1 $176 -71.274147770622875 $116 71.274147770622875 $111 $177 forward 7 unknown #
coedge $-1 $106 $68 $175 $178 forward $115 $-1 #
coedge $-1 $68 $106 $171 $179 reversed $115 $-1 #
loop $-1 $-1 $113 $155 #
vertex $-1 $69 $180 #
vertex $-1 $69 $181 #
straight-curve $-1 71.274147770622875 0 19.747330967199854 0 1 0 I I #
face $-1 $182 $183 $16 $-1 $184 reversed single #
loop $-1 $-1 $185 $70 #
plane-surface $-1 -79.412811923775052 0 5.5782776287152949 0 0 1 1 0 0 forward_v I I I I #
coedge $-1 $186 $73 $187 $188 reversed $45 $-1 #
coedge $-1 $73 $186 $128 $189 reversed $45 $-1 #
edge $-1 $130 -14.261510577767968 $190 -5.5782776287152949 $73 $191 forward 7 unknown #
coedge $-1 $75 $74 $185 $192 forward $29 $-1 #
coedge $-1 $193 $194 $74 $127 forward $195 $-1 #
edge $-1 $196 5.5782776287152949 $131 14.261510577767968 $126 $197 forward 7 unknown #
coedge $-1 $198 $76 $123 $189 forward $71 $-1 #
coedge $-1 $76 $198 $193 $199 forward $71 $-1 #
vertex $-1 $124 $200 #
vertex $-1 $199 $201 #
straight-curve $-1 -71.274147770622875 0 14.261510577767968 0 -1 0 I I #
face $-1 $-1 $202 $17 $-1 $203 reversed single #
loop $-1 $-1 $204 $78 #
plane-surface $-1 71.274147770622875 0 0 -1 0 0 0 0 1 forward_v I I I I #
coedge $-1 $205 $81 $83 $142 forward $49 $-1 #
coedge $-1 $81 $205 $204 $206 reversed $49 $-1 #
coedge $-1 $207 $84 $81 $139 forward $79 $-1 #
edge $-1 $145 8.5116677879399489 $208 44.6788759177686 $138 $209 forward 7 unknown #
coedge $-1 $210 $211 $82 $141 forward $202 $-1 #
edge $-1 $212 -76.421366288148107 $144 -60.350403363401568 $140 $213 forward 7 unknown #
edge $-1 $145 74.893259791834637 $212 94.055685880942477 $83 $214 forward 7 unknown #
coedge $-1 $84 $207 $210 $215 forward $79 $-1 #
vertex $-1 $141 $216 #
vertex $-1 $85 $217 #
straight-curve $-1 35.106939640794224 57.676253613060069 19.747330967199858 0 -1 0 I I #
coedge $-1 $147 $147 $-1 $218 reversed $88 $-1 #
edge $-1 $219 0 $219 6.2831853071796004 $89 $220 forward 7 unknown #
vertex $-1 $92 $221 #
ellipse-curve $-1 45.440427677888124 41.809540431705969 11.71184950482659 0 0.83867057594974714 0.54463902268945019 2.5 0 0 1 I I #
coedge $-1 $151 $151 $-1 $222 reversed $95 $-1 #
edge $-1 $223 0 $223 6.2831853071796004 $96 $224 forward 7 unknown #
vertex $-1 $99 $225 #
ellipse-curve $-1 60.940659733528975 41.809540431705969 11.71184950482659 0 0.83867057594974714 0.54463902268945019 2.5 0 0 1 I I #
face $-1 $-1 $115 $15 $-1 $226 reversed single #
loop $-1 $-1 $171 $100 #
plane-surface $-1 0 47.027842940471224 0 0 -1 0 0 0 -1 forward_v I I I I #
coedge $-1 $227 $169 $172 $228 forward $101 $-1 #
coedge $-1 $175 $103 $104 $163 reversed $63 $-1 #
coedge $-1 $169 $227 $103 $161 reversed $101 $-1 #
edge $-1 $176 -19.747330967199854 $229 19.747330967199854 $160 $230 forward 7 unknown #
coedge $-1 $105 $104 $227 $231 forward $41 $-1 #
edge $-1 $167 -71.274147770622875 $229 71.274147770622875 $159 $232 forward 7 unknown #
coedge $-1 $172 $171 $105 $165 reversed $156 $-1 #
edge $-1 $233 -71.274147770622875 $166 71.274147770622875 $164 $234 forward 7 unknown #
vertex $-1 $107 $235 #
vertex $-1 $178 $236 #
straight-curve $-1 71.274147770622875 0 -19.747330967199854 0 -1 0 I I #
coedge $-1 $158 $160 $108 $170 reversed $101 $-1 #
edge $-1 $173 -47.027842940471224 $176 47.027842940471224 $169 $237 forward 7 unknown #
coedge $-1 $164 $109 $114 $179 forward $156 $-1 #
coedge $-1 $109 $164 $158 $228 reversed $156 $-1 #
vertex $-1 $110 $238 #
straight-curve $-1 0 47.027842940471224 19.747330967199854 -1 0 0 I I #
coedge $-1 $111 $159 $113 $178 reversed $63 $-1 #
vertex $-1 $170 $239 #
straight-curve $-1 0 -47.027842940471224 19.747330967199854 1 0 0 I I #
edge $-1 $116 -19.747330967199854 $167 19.747330967199854 $113 $240 forward 7 unknown #
edge $-1 $117 -19.747330967199854 $166 19.747330967199854 $114 $241 forward 7 unknown #
point $-1 71.274147770622875 -47.027842940471224 19.747330967199854 #
point $-1 71.274147770622875 47.027842940471224 19.747330967199854 #
face $-1 $-1 $195 $16 $-1 $242 reversed single #
loop $-1 $-1 $243 $119 #
plane-surface $-1 -87.55147607692723 0 9.9198941032416315 1 0 0 0 0 -1 forward_v I I I I #
coedge $-1 $244 $187 $125 $192 reversed $120 $-1 #
coedge $-1 $123 $122 $243 $245 reversed $45 $-1 #
coedge $-1 $185 $246 $122 $188 forward $120 $-1 #
edge $-1 $247 -8.1386641531521775 $190 8.1386641531521775 $122 $248 forward 7 unknown #
edge $-1 $130 -8.1386641531521775 $249 8.1386641531521775 $123 $250 forward 7 unknown #
vertex $-1 $124 $251 #
straight-curve $-1 -71.274147770622875 47.027842940471224 0 0 0 -1 I I #
edge $-1 $196 -47.027842940471224 $190 47.027842940471224 $185 $252 forward 7 unknown #
coedge $-1 $253 $126 $129 $199 reversed $195 $-1 #
coedge $-1 $126 $253 $244 $254 reversed $195 $-1 #
loop $-1 $-1 $126 $182 #
vertex $-1 $127 $255 #
straight-curve $-1 -71.274147770622875 -47.027842940471224 0 0 0 1 I I #
coedge $-1 $129 $128 $256 $257 forward $71 $-1 #
edge $-1 $258 -8.1386641531521775 $131 8.1386641531521775 $193 $259 forward 7 unknown #
point $-1 -71.274147770622875 47.027842940471224 14.261510577767968 #
point $-1 -71.274147770622875 -47.027842940471224 14.261510577767968 #
loop $-1 $-1 $140 $133 #
plane-surface $-1 0 47.027842940471224 0 0 -1 0 0 0 -1 forward_v I I I I #
coedge $-1 $260 $261 $137 $206 forward $134 $-1 #
coedge $-1 $137 $136 $211 $262 reversed $49 $-1 #
edge $-1 $208 39.130385208725215 $263 58.292811297833055 $204 $264 forward 7 unknown #
coedge $-1 $143 $138 $261 $265 forward $79 $-1 #
vertex $-1 $265 $266 #
straight-curve $-1 26.595271852854275 36.591237922940707 19.747330967199858 1 0 0 I I #
coedge $-1 $267 $140 $143 $215 reversed $202 $-1 #
coedge $-1 $140 $267 $205 $262 forward $202 $-1 #
vertex $-1 $141 $268 #
straight-curve $-1 35.106939640794224 47.027842940471224 80.097734330601426 0 0 1 I I #
straight-curve $-1 35.106939640794224 -4.198553896111207 82.558104291571851 0 0.54463902268945019 -0.83867057594974714 I I #
edge $-1 $269 -71.274147770622875 $144 -35.106939640794224 $210 $270 forward 7 unknown #
point $-1 35.106939640794224 47.027842940471224 19.747330967199854 #
point $-1 35.106939640794224 36.591237922940707 19.747330967199858 #
edge $-1 $271 1 $271 0 $147 $-1 forward 7 unknown #
vertex $-1 $148 $272 #
ellipse-curve $-1 45.440427677888124 35.46032273026934 7.5886194513136518 0 0.83867057594974714 0.54463902268945019 2.5 0 0 1 I I #
point $-1 47.940427677888124 41.809540431705969 11.711849504826592 #
edge $-1 $273 1 $273 0 $151 $-1 forward 7 unknown #
vertex $-1 $152 $274 #
ellipse-curve $-1 60.940659733528975 35.46032273026934 7.5886194513136518 0 0.83867057594974714 0.54463902268945019 2.5 0 0 1 I I #
point $-1 63.440659733528975 41.809540431705969 11.711849504826592 #
plane-surface $-1 71.274147770622875 0 0 -1 0 0 0 0 1 forward_v I I I I #
coedge $-1 $160 $158 $162 $231 reversed $101 $-1 #
edge $-1 $173 -19.747330967199854 $233 19.747330967199854 $172 $275 forward 7 unknown #
vertex $-1 $231 $276 #
straight-curve $-1 -71.274147770622875 -47.027842940471224 0 0 0 -1 I I #
edge $-1 $229 -47.027842940471224 $233 47.027842940471224 $227 $277 forward 7 unknown #
straight-curve $-1 0 -47.027842940471224 -19.747330967199854 -1 0 0 I I #
vertex $-1 $165 $278 #
straight-curve $-1 0 47.027842940471224 -19.747330967199854 1 0 0 I I #
point $-1 71.274147770622875 47.027842940471224 -19.747330967199854 #
point $-1 71.274147770622875 -47.027842940471224 -19.747330967199854 #
straight-curve $-1 -71.274147770622875 0 19.747330967199854 0 -1 0 I I #
point $-1 -71.274147770622875 47.027842940471224 19.747330967199854 #
point $-1 -71.274147770622875 -47.027842940471224 19.747330967199854 #
straight-curve $-1 71.274147770622875 -47.027842940471224 0 0 0 -1 I I #
straight-curve $-1 71.274147770622875 47.027842940471224 0 0 0 -1 I I #
plane-surface $-1 0 -47.027842940471224 0 0 1 0 0 0 1 forward_v I I I I #
coedge $-1 $279 $256 $186 $245 forward $183 $-1 #
coedge $-1 $246 $185 $194 $254 forward $120 $-1 #
edge $-1 $249 -4.3416164745263366 $247 4.3416164745263366 $186 $280 forward 7 unknown #
coedge $-1 $187 $244 $279 $281 forward $120 $-1 #
vertex $-1 $188 $282 #
straight-curve $-1 -79.412811923775052 47.027842940471224 5.5782776287152949 1 0 0 I I #
vertex $-1 $189 $283 #
straight-curve $-1 -79.412811923775052 47.027842940471224 14.261510577767968 -1 0 0 I I #
point $-1 -71.274147770622875 47.027842940471224 5.5782776287152949 #
straight-curve $-1 -71.274147770622875 0 5.5782776287152949 0 1 0 I I #
coedge $-1 $194 $193 $284 $285 forward $195 $-1 #
edge $-1 $196 -8.1386641531521775 $286 8.1386641531521775 $194 $287 forward 7 unknown #
point $-1 -71.274147770622875 -47.027842940471224 5.5782776287152949 #
coedge $-1 $243 $284 $198 $257 reversed $183 $-1 #
edge $-1 $249 -47.027842940471224 $258 47.027842940471224 $256 $288 forward 7 unknown #
vertex $-1 $257 $289 #
straight-curve $-1 -79.412811923775052 -47.027842940471224 14.261510577767968 1 0 0 I I #
coedge $-1 $261 $204 $267 $290 reversed $134 $-1 #
coedge $-1 $204 $260 $207 $265 reversed $134 $-1 #
edge $-1 $263 -44.6788759177686 $212 -8.5116677879399489 $211 $291 forward 7 unknown #
vertex $-1 $206 $292 #
straight-curve $-1 71.274147770622875 15.27930316539889 52.564833667336899 0 0.54463902268945019 -0.83867057594974714 I I #
edge $-1 $208 36.591237922940707 $269 47.027842940471224 $261 $293 forward 7 unknown #
point $-1 71.274147770622875 36.591237922940707 19.747330967199858 #
coedge $-1 $211 $210 $260 $290 forward $202 $-1 #
point $-1 35.106939640794224 47.027842940471224 3.6763680424533192 #
vertex $-1 $265 $294 #
straight-curve $-1 0 47.027842940471224 19.747330967199854 -1 0 0 I I #
vertex $-1 $218 $295 #
point $-1 47.940427677888124 35.46032273026934 7.5886194513136518 #
vertex $-1 $222 $296 #
point $-1 63.440659733528975 35.46032273026934 7.5886194513136518 #
straight-curve $-1 -71.274147770622875 47.027842940471224 0 0 0 -1 I I #
point $-1 -71.274147770622875 -47.027842940471224 -19.747330967199854 #
straight-curve $-1 -71.274147770622875 0 -19.747330967199854 0 1 0 I I #
point $-1 -71.274147770622875 47.027842940471224 -19.747330967199854 #
coedge $-1 $284 $243 $246 $281 reversed $183 $-1 #
straight-curve $-1 -87.55147607692723 47.027842940471224 9.9198941032416315 0 0 -1 I I #
edge $-1 $286 -47.027842940471224 $247 47.027842940471224 $279 $297 forward 7 unknown #
point $-1 -87.55147607692723 47.027842940471224 5.5782776287152949 #
point $-1 -87.55147607692723 47.027842940471224 14.261510577767968 #
coedge $-1 $256 $279 $253 $285 reversed $183 $-1 #
edge $-1 $258 -4.3416164745263366 $286 4.3416164745263366 $284 $298 forward 7 unknown #
vertex $-1 $281 $299 #
straight-curve $-1 -79.412811923775052 -47.027842940471224 5.5782776287152949 -1 0 0 I I #
straight-curve $-1 -87.55147607692723 0 14.261510577767968 0 -1 0 I I #
point $-1 -87.55147607692723 -47.027842940471224 14.261510577767968 #
edge $-1 $269 -19.747330967199854 $263 -3.6763680424533192 $260 $300 forward 7 unknown #
straight-curve $-1 26.595271852854275 47.027842940471224 3.6763680424533263 -1 0 0 I I #
point $-1 71.274147770622875 47.027842940471224 3.6763680424533192 #
straight-curve $-1 71.274147770622875 0 19.747330967199854 0 1 0 I I #
point $-1 71.274147770622875 47.027842940471224 19.747330967199854 #
point $-1 45.440427677888124 33.363646290394968 6.2270218945900266 #
point $-1 60.940659733528975 33.363646290394968 6.2270218945900266 #
straight-curve $-1 -87.55147607692723 0 5.5782776287152949 0 1 0 I I #
straight-curve $-1 -87.55147607692723 -47.027842940471224 9.9198941032416315 0 0 -1 I I #
point $-1 -87.55147607692723 -47.027842940471224 5.5782776287152949 #
straight-curve $-1 71.274147770622875 47.027842940471224 0 0 0 -1 I I #
End-of-ACIS-data 