500 0 5 0           
7 Unknown 11 ACIS 5.0 NT 24 Fri Mar 26 16:50:54 1999 
-1 9.9999999999999995e-007 1e-010 
body $-1 $5 $-1 $6 #
body $-1 $7 $-1 $8 #
body $-1 $9 $-1 $10 #
body $-1 $11 $-1 $12 #
body $-1 $13 $-1 $14 #
lump $-1 $-1 $15 $0 #
transform $-1 1 0 0 0 1 0 0 0 1 57.95098727378155 29.971202912538192 6.6489659783264452 1 rotate no_reflect no_shear #
lump $-1 $-1 $16 $1 #
transform $-1 1 0 0 0 1 0 0 0 1 57.95098727378155 29.971202912538192 6.6489659783264452 1 rotate no_reflect no_shear #
lump $-1 $-1 $17 $2 #
transform $-1 1 0 0 0 1 0 0 0 1 57.95098727378155 29.971202912538192 6.6489659783264452 1 rotate no_reflect no_shear #
lump $-1 $-1 $18 $3 #
transform $-1 1 0 0 0 1 0 0 0 1 57.95098727378155 29.971202912538192 6.6489659783264452 1 rotate no_reflect no_shear #
lump $-1 $-1 $19 $4 #
transform $-1 1 0 0 0 1 0 0 0 1 57.95098727378155 29.971202912538192 6.6489659783264452 1 rotate no_reflect no_shear #
shell $-1 $-1 $-1 $20 $-1 $5 #
shell $-1 $-1 $-1 $21 $-1 $7 #
shell $-1 $-1 $-1 $22 $-1 $9 #
shell $-1 $-1 $-1 $23 $-1 $11 #
shell $-1 $-1 $-1 $24 $-1 $13 #
face $-1 $25 $26 $15 $-1 $27 forward single #
face $-1 $28 $29 $16 $-1 $30 forward single #
face $-1 $31 $32 $17 $-1 $33 forward single #
face $-1 $34 $35 $18 $-1 $36 reversed single #
face $-1 $37 $38 $19 $-1 $39 reversed single #
face $-1 $40 $41 $15 $-1 $42 reversed single #
loop $-1 $-1 $43 $20 #
plane-surface $-1 0 0 6.6489659783264452 0 0 1 1 0 0 forward_v I I I I #
face $-1 $44 $45 $16 $-1 $46 forward single #
loop $-1 $-1 $47 $21 #
plane-surface $-1 0 -27.675328170088253 3.0393649711528319 0 0 1 1 0 0 forward_v I I I I #
face $-1 $48 $49 $17 $-1 $50 forward single #
loop $-1 $-1 $51 $22 #
plane-surface $-1 -149.28299053821689 -25.379453427638314 73.313994486580796 0 1 0 -0.78801076186113728 0 0.61566146476048833 forward_v I I I I #
face $-1 $52 $53 $18 $-1 $54 reversed single #
loop $-1 $55 $56 $23 #
cone-surface $-1 -54.718000599196884 -23.066868693377952 3.2092217517890891 0.78801076186113728 0 -0.61566146476048833 0.61566146476048833 0 0.78801076186113728 1 I I 0 1 1 forward I I I I #
face $-1 $57 $58 $19 $-1 $59 reversed single #
loop $-1 $60 $61 $24 #
cone-surface $-1 -54.718000599196884 -19.597991591987409 3.2092217517890891 0.78801076186113728 0 -0.61566146476048833 0.61566146476048833 0 0.78801076186113728 1 I I 0 1 1 forward I I I I #
face $-1 $62 $63 $15 $-1 $64 reversed single #
loop $-1 $-1 $65 $25 #
plane-surface $-1 0 0 -6.6489659783264452 0 0 1 1 0 0 forward_v I I I I #
coedge $-1 $66 $67 $68 $69 forward $26 $-1 #
face $-1 $70 $71 $16 $-1 $72 forward single #
loop $-1 $-1 $73 $28 #
plane-surface $-1 0 -25.379453427638314 4.844165474739639 0 -1 0 0 0 -1 forward_v I I I I #
coedge $-1 $74 $75 $76 $77 reversed $29 $-1 #
face $-1 $78 $79 $17 $-1 $80 forward single #
loop $-1 $-1 $81 $31 #
plane-surface $-1 -57.95098727378155 -21.332430142682679 1.9576150679952633 -0.78801076186113728 0 0.61566146476048833 0.61566146476048833 0 0.78801076186113728 forward_v I I I I #
coedge $-1 $82 $83 $84 $85 forward $32 $-1 #
face $-1 $86 $87 $18 $-1 $88 forward single #
loop $-1 $89 $90 $34 #
cone-surface $-1 -52.923651010605795 -23.066868693377952 1.8073222480370843 0.78801076186113728 0 -0.61566146476048833 0.30783073238024417 0 0.39400538093056864 1 I I -0.70710678118654746 0.70710678118654746 0.5 forward I I I I #
loop $-1 $-1 $91 $23 #
coedge $-1 $56 $56 $92 $93 reversed $35 $-1 #
face $-1 $94 $95 $19 $-1 $96 reversed single #
loop $-1 $97 $98 $37 #
cone-surface $-1 -52.923651010605795 -19.597991591987409 1.8073222480370843 0.78801076186113728 0 -0.61566146476048833 0.30783073238024417 0 0.39400538093056864 1 I I -0.70710678118654746 0.70710678118654746 0.5 forward I I I I #
loop $-1 $-1 $99 $24 #
coedge $-1 $61 $61 $100 $101 reversed $38 $-1 #
face $-1 $102 $103 $15 $-1 $104 reversed single #
loop $-1 $-1 $105 $40 #
plane-surface $-1 0 -29.971202912538192 0 0 1 0 0 0 1 forward_v I I I I #
coedge $-1 $106 $107 $108 $109 forward $41 $-1 #
coedge $-1 $110 $43 $111 $112 forward $26 $-1 #
coedge $-1 $43 $110 $113 $114 forward $26 $-1 #
coedge $-1 $115 $116 $43 $69 reversed $117 $-1 #
edge $-1 $118 -29.971202912538192 $119 29.971202912538192 $68 $120 forward 7 unknown #
face $-1 $121 $122 $16 $-1 $123 reversed single #
loop $-1 $-1 $124 $44 #
plane-surface $-1 0 0 6.6489659783264452 0 0 1 1 0 0 forward_v I I I I #
coedge $-1 $125 $126 $127 $128 reversed $45 $-1 #
coedge $-1 $129 $47 $126 $130 reversed $29 $-1 #
coedge $-1 $47 $129 $131 $132 reversed $29 $-1 #
coedge $-1 $133 $127 $47 $77 forward $122 $-1 #
edge $-1 $134 11.541789342594187 $135 16.133538827494064 $76 $136 forward 7 unknown #
face $-1 $137 $138 $17 $-1 $139 forward single #
loop $-1 $-1 $140 $48 #
plane-surface $-1 -149.28299053821689 -17.285406857727043 73.313994486580796 0 -1 0 0.78801076186113728 0 -0.61566146476048833 forward_v I I I I #
coedge $-1 $141 $142 $143 $144 reversed $49 $-1 #
coedge $-1 $83 $51 $145 $146 forward $32 $-1 #
coedge $-1 $51 $82 $147 $148 reversed $32 $-1 #
coedge $-1 $149 $150 $51 $85 reversed $151 $-1 #
edge $-1 $152 -57.95098727378155 $153 -57.10583164632596 $84 $154 forward 7 unknown #
face $-1 $155 $156 $18 $-1 $157 forward single #
loop $-1 $-1 $158 $52 #
plane-surface $-1 -149.28299053821689 -25.379453427638314 73.313994486580796 0 1 0 -0.78801076186113728 0 0.61566146476048833 forward_v I I I I #
loop $-1 $-1 $159 $34 #
coedge $-1 $90 $90 $91 $160 forward $53 $-1 #
coedge $-1 $91 $91 $90 $160 reversed $55 $-1 #
coedge $-1 $92 $92 $56 $93 forward $156 $-1 #
edge $-1 $161 0 $161 6.2831853071796004 $92 $162 forward 7 unknown #
face $-1 $163 $164 $19 $-1 $165 reversed single #
loop $-1 $166 $167 $57 #
cone-surface $-1 -54.718000599196884 -23.066868693377952 3.2092217517890891 0.78801076186113728 0 -0.61566146476048833 0.61566146476048833 0 0.78801076186113728 1 I I 0 1 1 forward I I I I #
loop $-1 $-1 $168 $37 #
coedge $-1 $98 $98 $99 $169 forward $58 $-1 #
coedge $-1 $99 $99 $98 $169 reversed $60 $-1 #
coedge $-1 $100 $100 $61 $101 forward $170 $-1 #
edge $-1 $171 0 $171 6.2831853071796004 $100 $172 forward 7 unknown #
face $-1 $173 $174 $15 $-1 $175 reversed single #
loop $-1 $-1 $176 $62 #
plane-surface $-1 -57.95098727378155 0 0 1 0 0 0 0 -1 forward_v I I I I #
coedge $-1 $177 $113 $178 $179 forward $63 $-1 #
coedge $-1 $180 $65 $177 $181 forward $41 $-1 #
coedge $-1 $65 $180 $182 $183 forward $41 $-1 #
coedge $-1 $116 $115 $65 $109 reversed $117 $-1 #
edge $-1 $184 -29.971202912538192 $185 29.971202912538192 $108 $186 forward 7 unknown #
coedge $-1 $67 $66 $187 $188 forward $26 $-1 #
coedge $-1 $189 $190 $66 $112 reversed $174 $-1 #
edge $-1 $119 -57.95098727378155 $191 57.95098727378155 $111 $192 forward 7 unknown #
coedge $-1 $105 $193 $67 $114 reversed $63 $-1 #
edge $-1 $194 -57.95098727378155 $118 57.95098727378155 $113 $195 forward 7 unknown #
coedge $-1 $108 $68 $193 $196 forward $117 $-1 #
coedge $-1 $68 $108 $189 $197 reversed $117 $-1 #
loop $-1 $-1 $115 $173 #
vertex $-1 $69 $198 #
vertex $-1 $69 $199 #
straight-curve $-1 57.95098727378155 0 6.6489659783264452 0 1 0 I I #
face $-1 $200 $201 $16 $-1 $202 reversed single #
loop $-1 $-1 $127 $70 #
plane-surface $-1 57.95098727378155 0 0 -1 0 0 0 0 1 forward_v I I I I #
coedge $-1 $203 $204 $125 $205 forward $71 $-1 #
coedge $-1 $206 $73 $124 $205 reversed $45 $-1 #
coedge $-1 $73 $206 $74 $130 forward $45 $-1 #
coedge $-1 $76 $207 $73 $128 forward $122 $-1 #
edge $-1 $208 -4.2268832409566262 $134 -0.61728223378301239 $127 $209 forward 7 unknown #
coedge $-1 $75 $74 $210 $211 reversed $29 $-1 #
edge $-1 $212 -57.95098727378155 $134 57.95098727378155 $126 $213 forward 7 unknown #
coedge $-1 $214 $215 $75 $132 forward $216 $-1 #
edge $-1 $135 -57.95098727378155 $217 57.95098727378155 $131 $218 forward 7 unknown #
coedge $-1 $219 $76 $215 $220 forward $122 $-1 #
vertex $-1 $77 $221 #
vertex $-1 $220 $222 #
straight-curve $-1 57.95098727378155 -13.837664085044127 3.0393649711528319 0 -1 0 I I #
face $-1 $223 $151 $17 $-1 $224 forward single #
loop $-1 $-1 $225 $78 #
plane-surface $-1 0 -25.379453427638314 4.844165474739639 0 -1 0 0 0 -1 forward_v I I I I #
coedge $-1 $226 $227 $228 $229 reversed $79 $-1 #
coedge $-1 $230 $81 $227 $231 reversed $49 $-1 #
coedge $-1 $81 $145 $225 $232 reversed $49 $-1 #
coedge $-1 $233 $228 $81 $144 forward $234 $-1 #
edge $-1 $235 6.6191917863857039 $236 14.713238356296975 $143 $237 forward 7 unknown #
coedge $-1 $142 $230 $82 $146 reversed $49 $-1 #
edge $-1 $153 -1.3727603168802851 $238 0 $82 $239 forward 7 unknown #
coedge $-1 $240 $241 $83 $148 forward $242 $-1 #
edge $-1 $152 33.61763227213757 $238 34.699382175295135 $147 $243 forward 7 unknown #
coedge $-1 $244 $84 $241 $245 reversed $151 $-1 #
coedge $-1 $84 $246 $247 $248 reversed $151 $-1 #
loop $-1 $-1 $246 $137 #
vertex $-1 $245 $249 #
vertex $-1 $248 $250 #
straight-curve $-1 0 -25.379453427638314 3.0393649711528319 1 0 0 I I #
face $-1 $251 $252 $18 $-1 $253 forward single #
loop $-1 $254 $92 $86 #
plane-surface $-1 -57.95098727378155 -21.332430142682679 1.9576150679952633 -0.78801076186113728 0 0.61566146476048833 0.61566146476048833 0 0.78801076186113728 forward_v I I I I #
coedge $-1 $255 $256 $257 $258 forward $87 $-1 #
coedge $-1 $159 $159 $-1 $259 forward $89 $-1 #
edge $-1 $260 0 $260 6.2831853071796004 $90 $261 forward 7 unknown #
vertex $-1 $93 $262 #
ellipse-curve $-1 -56.118344806857401 -23.066868693377952 4.3032905231608511 0.78801076186113728 0 -0.61566146476048833 0.61566146476048833 0 0.78801076186113728 1 I I #
face $-1 $263 $264 $19 $-1 $265 forward single #
loop $-1 $266 $267 $94 #
cone-surface $-1 -52.923651010605795 -23.066868693377952 1.8073222480370843 0.78801076186113728 0 -0.61566146476048833 0.30783073238024417 0 0.39400538093056864 1 I I -0.70710678118654746 0.70710678118654746 0.5 forward I I I I #
loop $-1 $-1 $268 $57 #
coedge $-1 $167 $167 $269 $270 reversed $95 $-1 #
coedge $-1 $168 $168 $-1 $271 forward $97 $-1 #
edge $-1 $272 0 $272 6.2831853071796004 $98 $273 forward 7 unknown #
loop $-1 $274 $100 $263 #
vertex $-1 $101 $275 #
ellipse-curve $-1 -56.118344806857401 -19.597991591987409 4.3032905231608511 0.78801076186113728 0 -0.61566146476048833 0.61566146476048833 0 0.78801076186113728 1 I I #
face $-1 $-1 $117 $15 $-1 $276 reversed single #
loop $-1 $-1 $189 $102 #
plane-surface $-1 0 29.971202912538192 0 0 -1 0 0 0 -1 forward_v I I I I #
coedge $-1 $277 $187 $190 $278 forward $103 $-1 #
coedge $-1 $193 $105 $106 $181 reversed $63 $-1 #
coedge $-1 $187 $277 $105 $179 reversed $103 $-1 #
edge $-1 $194 -6.6489659783264452 $279 6.6489659783264452 $178 $280 forward 7 unknown #
coedge $-1 $107 $106 $277 $281 forward $41 $-1 #
edge $-1 $185 -57.95098727378155 $279 57.95098727378155 $177 $282 forward 7 unknown #
coedge $-1 $190 $189 $107 $183 reversed $174 $-1 #
edge $-1 $283 -57.95098727378155 $184 57.95098727378155 $182 $284 forward 7 unknown #
vertex $-1 $109 $285 #
vertex $-1 $196 $286 #
straight-curve $-1 57.95098727378155 0 -6.6489659783264452 0 -1 0 I I #
coedge $-1 $176 $178 $110 $188 reversed $103 $-1 #
edge $-1 $191 -29.971202912538192 $194 29.971202912538192 $187 $287 forward 7 unknown #
coedge $-1 $182 $111 $116 $197 forward $174 $-1 #
coedge $-1 $111 $182 $176 $278 reversed $174 $-1 #
vertex $-1 $112 $288 #
straight-curve $-1 0 29.971202912538192 6.6489659783264452 -1 0 0 I I #
coedge $-1 $113 $177 $115 $196 reversed $63 $-1 #
vertex $-1 $188 $289 #
straight-curve $-1 0 -29.971202912538192 6.6489659783264452 1 0 0 I I #
edge $-1 $118 -6.6489659783264452 $185 6.6489659783264452 $115 $290 forward 7 unknown #
edge $-1 $119 -6.6489659783264452 $184 6.6489659783264452 $116 $291 forward 7 unknown #
point $-1 57.95098727378155 -29.971202912538192 6.6489659783264452 #
point $-1 57.95098727378155 29.971202912538192 6.6489659783264452 #
face $-1 $292 $216 $16 $-1 $293 reversed single #
loop $-1 $-1 $294 $121 #
plane-surface $-1 0 0 -6.6489659783264452 0 0 1 1 0 0 forward_v I I I I #
coedge $-1 $295 $124 $207 $296 forward $71 $-1 #
coedge $-1 $124 $295 $297 $298 forward $71 $-1 #
edge $-1 $299 -57.95098727378155 $208 57.95098727378155 $124 $300 forward 7 unknown #
coedge $-1 $126 $125 $301 $302 reversed $45 $-1 #
coedge $-1 $127 $303 $203 $296 reversed $122 $-1 #
vertex $-1 $296 $304 #
straight-curve $-1 57.95098727378155 -25.379453427638314 2.4220827373698195 0 0 -1 I I #
coedge $-1 $301 $305 $129 $211 forward $306 $-1 #
edge $-1 $217 -16.133538827494064 $212 -11.541789342594187 $210 $307 forward 7 unknown #
vertex $-1 $211 $308 #
straight-curve $-1 0 -25.379453427638314 3.0393649711528319 1 0 0 I I #
coedge $-1 $309 $131 $305 $310 forward $216 $-1 #
coedge $-1 $131 $309 $133 $220 reversed $216 $-1 #
loop $-1 $-1 $131 $200 #
vertex $-1 $310 $311 #
straight-curve $-1 0 -29.971202912538192 3.0393649711528319 -1 0 0 I I #
coedge $-1 $303 $133 $294 $312 reversed $122 $-1 #
edge $-1 $135 -3.0393649711528319 $313 6.6489659783264452 $133 $314 forward 7 unknown #
point $-1 57.95098727378155 -25.379453427638314 3.0393649711528319 #
point $-1 57.95098727378155 -29.971202912538192 3.0393649711528319 #
face $-1 $315 $234 $17 $-1 $316 forward single #
plane-surface $-1 0 -27.675328170088253 3.0393649711528319 0 0 1 1 0 0 forward_v I I I I #
coedge $-1 $247 $317 $142 $232 forward $138 $-1 #
coedge $-1 $227 $140 $318 $319 reversed $79 $-1 #
coedge $-1 $140 $226 $141 $231 forward $79 $-1 #
coedge $-1 $143 $320 $140 $229 forward $234 $-1 #
edge $-1 $321 16.690507995326897 $235 20.355792929175195 $228 $322 forward 7 unknown #
coedge $-1 $145 $141 $240 $323 reversed $49 $-1 #
edge $-1 $324 0 $235 5.9534096961456076 $227 $325 forward 7 unknown #
edge $-1 $236 13.023001551085388 $153 17.603650930350707 $225 $326 forward 7 unknown #
coedge $-1 $327 $143 $317 $328 forward $234 $-1 #
loop $-1 $-1 $143 $223 #
vertex $-1 $144 $329 #
vertex $-1 $328 $330 #
straight-curve $-1 -54.285702339933252 -10.666215071341339 6.6489659783264443 0 -1 0 I I #
vertex $-1 $323 $331 #
straight-curve $-1 -57.95098727378155 -25.379453427638314 1.9576150679952633 -0.61566146476048833 0 -0.78801076186113728 I I #
coedge $-1 $318 $147 $230 $323 forward $242 $-1 #
coedge $-1 $147 $332 $149 $245 forward $242 $-1 #
loop $-1 $-1 $318 $333 #
straight-curve $-1 -57.95098727378155 -25.379453427638314 36.656997243290398 0 0 -1 I I #
coedge $-1 $246 $149 $334 $335 reversed $151 $-1 #
edge $-1 $336 -16.133538827494064 $152 -11.541789342594187 $241 $337 forward 7 unknown #
coedge $-1 $150 $244 $338 $339 reversed $151 $-1 #
coedge $-1 $340 $225 $150 $248 forward $138 $-1 #
edge $-1 $153 -57.10583164632596 $341 57.95098727378155 $247 $154 forward 7 unknown #
point $-1 -57.95098727378155 -25.379453427638314 3.0393649711528319 #
point $-1 -57.10583164632596 -25.379453427638314 3.0393649711528319 #
face $-1 $342 $343 $18 $-1 $344 forward single #
loop $-1 $-1 $345 $155 #
plane-surface $-1 -149.28299053821689 -17.285406857727043 73.313994486580796 0 -1 0 0.78801076186113728 0 -0.61566146476048833 forward_v I I I I #
loop $-1 $-1 $346 $86 #
coedge $-1 $256 $158 $347 $348 forward $87 $-1 #
coedge $-1 $158 $255 $349 $350 reversed $87 $-1 #
coedge $-1 $351 $352 $158 $258 reversed $353 $-1 #
edge $-1 $354 -57.95098727378155 $355 -57.10583164632596 $257 $356 forward 7 unknown #
edge $-1 $357 1 $357 0 $159 $-1 forward 7 unknown #
vertex $-1 $160 $358 #
ellipse-curve $-1 -53.31765639153636 -23.066868693377952 2.1151529804173284 -0.78801076186113728 0 0.61566146476048833 0.61566146476048833 0 0.78801076186113728 1 I I #
point $-1 -55.502683342096908 -23.066868693377952 5.0913012850219861 #
face $-1 $359 $170 $19 $-1 $360 forward single #
loop $-1 $-1 $361 $163 #
plane-surface $-1 -149.28299053821689 -25.379453427638314 73.313994486580796 0 1 0 -0.78801076186113728 0 0.61566146476048833 forward_v I I I I #
loop $-1 $-1 $362 $94 #
coedge $-1 $267 $267 $268 $363 forward $164 $-1 #
coedge $-1 $268 $268 $267 $363 reversed $166 $-1 #
coedge $-1 $269 $269 $167 $270 forward $274 $-1 #
edge $-1 $364 0 $364 6.2831853071796004 $269 $365 forward 7 unknown #
edge $-1 $366 1 $366 0 $168 $-1 forward 7 unknown #
vertex $-1 $169 $367 #
ellipse-curve $-1 -53.31765639153636 -19.597991591987409 2.1151529804173284 -0.78801076186113728 0 0.61566146476048833 0.61566146476048833 0 0.78801076186113728 1 I I #
loop $-1 $368 $269 $263 #
point $-1 -55.502683342096908 -19.597991591987409 5.0913012850219861 #
plane-surface $-1 57.95098727378155 0 0 -1 0 0 0 0 1 forward_v I I I I #
coedge $-1 $178 $176 $180 $281 reversed $103 $-1 #
edge $-1 $191 -6.6489659783264452 $283 6.6489659783264452 $190 $369 forward 7 unknown #
vertex $-1 $281 $370 #
straight-curve $-1 -57.95098727378155 -29.971202912538192 0 0 0 -1 I I #
edge $-1 $279 -29.971202912538192 $283 29.971202912538192 $277 $371 forward 7 unknown #
straight-curve $-1 0 -29.971202912538192 -6.6489659783264452 -1 0 0 I I #
vertex $-1 $183 $372 #
straight-curve $-1 0 29.971202912538192 -6.6489659783264452 1 0 0 I I #
point $-1 57.95098727378155 29.971202912538192 -6.6489659783264452 #
point $-1 57.95098727378155 -29.971202912538192 -6.6489659783264452 #
straight-curve $-1 -57.95098727378155 0 6.6489659783264452 0 -1 0 I I #
point $-1 -57.95098727378155 29.971202912538192 6.6489659783264452 #
point $-1 -57.95098727378155 -29.971202912538192 6.6489659783264452 #
straight-curve $-1 57.95098727378155 -29.971202912538192 0 0 0 -1 I I #
straight-curve $-1 57.95098727378155 29.971202912538192 0 0 0 -1 I I #
face $-1 $373 $306 $16 $-1 $374 reversed single #
plane-surface $-1 0 -29.971202912538192 0 0 1 0 0 0 1 forward_v I I I I #
coedge $-1 $375 $376 $219 $312 forward $201 $-1 #
coedge $-1 $204 $203 $377 $378 forward $71 $-1 #
edge $-1 $208 -25.379453427638314 $379 29.971202912538192 $207 $380 forward 7 unknown #
coedge $-1 $381 $301 $204 $298 reversed $306 $-1 #
edge $-1 $382 -29.971202912538192 $299 25.379453427638314 $297 $383 forward 7 unknown #
vertex $-1 $302 $384 #
straight-curve $-1 0 -25.379453427638314 6.6489659783264452 1 0 0 I I #
coedge $-1 $297 $210 $206 $302 forward $306 $-1 #
edge $-1 $212 0.61728223378301239 $299 4.2268832409566262 $301 $385 forward 7 unknown #
coedge $-1 $207 $219 $386 $387 reversed $122 $-1 #
point $-1 57.95098727378155 -25.379453427638314 6.6489659783264461 #
coedge $-1 $210 $388 $214 $310 reversed $306 $-1 #
loop $-1 $-1 $301 $292 #
straight-curve $-1 -57.95098727378155 -13.837664085044127 3.0393649711528319 0 1 0 I I #
point $-1 -57.95098727378155 -25.379453427638314 3.0393649711528319 #
coedge $-1 $215 $214 $375 $389 reversed $216 $-1 #
edge $-1 $217 -3.0393649711528319 $390 6.6489659783264452 $305 $391 forward 7 unknown #
point $-1 -57.95098727378155 -29.971202912538192 3.0393649711528319 #
edge $-1 $392 -29.971202912538192 $313 29.971202912538192 $219 $393 forward 7 unknown #
vertex $-1 $220 $394 #
straight-curve $-1 57.95098727378155 -29.971202912538192 0 0 0 -1 I I #
face $-1 $395 $396 $17 $-1 $397 reversed single #
plane-surface $-1 0 0 6.6489659783264452 0 0 1 1 0 0 forward_v I I I I #
coedge $-1 $225 $340 $233 $328 reversed $138 $-1 #
coedge $-1 $398 $240 $226 $319 forward $242 $-1 #
edge $-1 $324 -34.699382175295135 $321 -30.008031264963954 $318 $399 forward 7 unknown #
coedge $-1 $228 $400 $398 $401 forward $234 $-1 #
vertex $-1 $319 $402 #
straight-curve $-1 -74.641495269108447 -17.285406857727043 6.6489659783264443 1 0 0 I I #
edge $-1 $238 -14.713238356296975 $324 -6.6191917863857039 $240 $403 forward 7 unknown #
vertex $-1 $323 $404 #
straight-curve $-1 -57.95098727378155 -17.285406857727043 1.9576150679952633 0.61566146476048833 0 0.78801076186113728 I I #
straight-curve $-1 -46.26794212941391 -25.379453427638314 16.911231352316008 -0.61566146476048833 0 -0.78801076186113728 I I #
coedge $-1 $400 $233 $405 $406 forward $234 $-1 #
edge $-1 $236 -54.285702339933259 $407 57.95098727378155 $233 $408 forward 7 unknown #
point $-1 -54.285702339933252 -17.285406857727043 6.6489659783264452 #
point $-1 -54.285702339933259 -25.379453427638314 6.6489659783264452 #
point $-1 -57.95098727378155 -25.379453427638314 1.9576150679952633 #
coedge $-1 $241 $409 $410 $411 reversed $242 $-1 #
face $-1 $412 $242 $17 $-1 $413 reversed single #
coedge $-1 $410 $414 $244 $335 forward $415 $-1 #
edge $-1 $416 -57.95098727378155 $336 57.95098727378155 $334 $417 forward 7 unknown #
vertex $-1 $411 $418 #
straight-curve $-1 -57.95098727378155 -13.837664085044127 3.0393649711528319 0 1 0 I I #
coedge $-1 $419 $420 $246 $339 forward $396 $-1 #
edge $-1 $341 11.541789342594187 $416 16.133538827494064 $338 $421 forward 7 unknown #
coedge $-1 $317 $247 $420 $422 reversed $138 $-1 #
vertex $-1 $339 $423 #
face $-1 $424 $353 $18 $-1 $425 forward single #
loop $-1 $-1 $426 $251 #
plane-surface $-1 0 -25.379453427638314 4.844165474739639 0 -1 0 0 0 -1 forward_v I I I I #
coedge $-1 $427 $428 $429 $430 reversed $252 $-1 #
coedge $-1 $431 $432 $433 $434 reversed $254 $-1 #
coedge $-1 $432 $435 $255 $348 reversed $254 $-1 #
edge $-1 $355 -1.3727603168802851 $436 0 $255 $437 forward 7 unknown #
coedge $-1 $438 $439 $256 $350 forward $440 $-1 #
edge $-1 $354 33.61763227213757 $436 34.699382175295135 $349 $441 forward 7 unknown #
coedge $-1 $442 $257 $439 $443 reversed $353 $-1 #
coedge $-1 $257 $444 $445 $446 reversed $353 $-1 #
loop $-1 $-1 $444 $342 #
vertex $-1 $443 $447 #
vertex $-1 $446 $448 #
straight-curve $-1 0 -25.379453427638314 3.0393649711528319 1 0 0 I I #
vertex $-1 $259 $449 #
point $-1 -52.701994926775875 -23.066868693377952 2.9031637422784655 #
face $-1 $450 $451 $19 $-1 $452 forward single #
plane-surface $-1 -57.95098727378155 -21.332430142682679 1.9576150679952633 -0.78801076186113728 0 0.61566146476048833 0.61566146476048833 0 0.78801076186113728 forward_v I I I I #
coedge $-1 $453 $454 $455 $456 forward $264 $-1 #
coedge $-1 $362 $362 $-1 $457 forward $266 $-1 #
edge $-1 $458 0 $458 6.2831853071796004 $267 $459 forward 7 unknown #
vertex $-1 $270 $460 #
ellipse-curve $-1 -56.118344806857401 -23.066868693377952 4.3032905231608511 0.78801076186113728 0 -0.61566146476048833 0.61566146476048833 0 0.78801076186113728 1 I I #
vertex $-1 $271 $461 #
point $-1 -52.701994926775875 -19.597991591987409 2.9031637422784655 #
loop $-1 $-1 $462 $263 #
straight-curve $-1 -57.95098727378155 29.971202912538192 0 0 0 -1 I I #
point $-1 -57.95098727378155 -29.971202912538192 -6.6489659783264452 #
straight-curve $-1 -57.95098727378155 0 -6.6489659783264452 0 1 0 I I #
point $-1 -57.95098727378155 29.971202912538192 -6.6489659783264452 #
face $-1 $-1 $463 $16 $-1 $464 reversed single #
plane-surface $-1 -57.95098727378155 0 0 1 0 0 0 0 -1 forward_v I I I I #
coedge $-1 $465 $294 $309 $389 forward $201 $-1 #
coedge $-1 $294 $465 $466 $467 forward $201 $-1 #
coedge $-1 $386 $468 $295 $378 reversed $463 $-1 #
edge $-1 $379 -57.95098727378155 $382 57.95098727378155 $377 $469 forward 7 unknown #
vertex $-1 $296 $470 #
straight-curve $-1 57.95098727378155 0 6.6489659783264452 0 1 0 I I #
coedge $-1 $388 $297 $468 $471 forward $306 $-1 #
vertex $-1 $378 $472 #
straight-curve $-1 -57.95098727378155 0 6.6489659783264452 0 -1 0 I I #
point $-1 -57.95098727378155 -25.379453427638314 6.6489659783264461 #
straight-curve $-1 -57.95098727378155 -25.379453427638314 2.4220827373698195 0 0 1 I I #
coedge $-1 $466 $377 $303 $387 forward $463 $-1 #
edge $-1 $379 -6.6489659783264452 $392 6.6489659783264452 $303 $473 forward 7 unknown #
coedge $-1 $305 $381 $465 $474 reversed $306 $-1 #
edge $-1 $313 -57.95098727378155 $390 57.95098727378155 $309 $475 forward 7 unknown #
vertex $-1 $474 $476 #
straight-curve $-1 -57.95098727378155 -29.971202912538192 0 0 0 -1 I I #
vertex $-1 $312 $477 #
straight-curve $-1 57.95098727378155 0 -6.6489659783264452 0 -1 0 I I #
point $-1 57.95098727378155 -29.971202912538192 -6.6489659783264452 #
face $-1 $478 $479 $17 $-1 $480 reversed single #
loop $-1 $-1 $420 $315 #
plane-surface $-1 57.95098727378155 0 0 -1 0 0 0 0 1 forward_v I I I I #
coedge $-1 $481 $318 $320 $401 reversed $242 $-1 #
straight-curve $-1 -57.95098727378155 -17.285406857727043 36.656997243290398 0 0 1 I I #
coedge $-1 $320 $327 $482 $483 forward $234 $-1 #
edge $-1 $484 -29.971202912538192 $321 17.285406857727043 $398 $485 forward 7 unknown #
point $-1 -57.95098727378155 -17.285406857727043 6.6489659783264452 #
straight-curve $-1 -57.95098727378155 -10.666215071341339 1.9576150679952655 0 1 0 I I #
point $-1 -57.95098727378155 -17.285406857727043 1.9576150679952633 #
coedge $-1 $420 $486 $327 $406 reversed $396 $-1 #
edge $-1 $407 -25.379453427638314 $487 29.971202912538192 $405 $488 forward 7 unknown #
vertex $-1 $406 $489 #
straight-curve $-1 0 -25.379453427638314 6.6489659783264452 1 0 0 I I #
coedge $-1 $332 $481 $490 $491 reversed $242 $-1 #
coedge $-1 $492 $334 $332 $411 forward $415 $-1 #
edge $-1 $336 -3.0393649711528319 $493 6.6489659783264452 $332 $494 forward 7 unknown #
face $-1 $-1 $495 $17 $-1 $496 reversed single #
plane-surface $-1 -57.95098727378155 0 0 1 0 0 0 0 -1 forward_v I I I I #
coedge $-1 $334 $492 $419 $497 reversed $415 $-1 #
loop $-1 $-1 $334 $478 #
vertex $-1 $497 $498 #
straight-curve $-1 0 -29.971202912538192 3.0393649711528319 -1 0 0 I I #
point $-1 -57.95098727378155 -29.971202912538192 3.0393649711528319 #
coedge $-1 $499 $338 $414 $497 forward $396 $-1 #
coedge $-1 $338 $405 $340 $422 forward $396 $-1 #
straight-curve $-1 57.95098727378155 -13.837664085044127 3.0393649711528319 0 -1 0 I I #
edge $-1 $407 -4.2268832409566262 $341 -0.61728223378301239 $420 $500 forward 7 unknown #
point $-1 57.95098727378155 -25.379453427638314 3.0393649711528319 #
face $-1 $501 $502 $18 $-1 $503 forward single #
plane-surface $-1 0 -27.675328170088253 3.0393649711528319 0 0 1 1 0 0 forward_v I I I I #
coedge $-1 $445 $504 $432 $505 forward $343 $-1 #
coedge $-1 $428 $345 $506 $507 reversed $252 $-1 #
coedge $-1 $345 $427 $431 $508 forward $252 $-1 #
coedge $-1 $433 $509 $345 $430 forward $502 $-1 #
edge $-1 $510 16.690507995326897 $511 20.355792929175195 $429 $512 forward 7 unknown #
coedge $-1 $435 $346 $428 $508 reversed $254 $-1 #
coedge $-1 $346 $347 $426 $505 reversed $254 $-1 #
coedge $-1 $513 $429 $346 $434 forward $502 $-1 #
edge $-1 $511 6.6191917863857039 $514 14.713238356296975 $433 $515 forward 7 unknown #
coedge $-1 $347 $431 $438 $516 reversed $254 $-1 #
vertex $-1 $516 $517 #
straight-curve $-1 -57.95098727378155 -25.379453427638314 1.9576150679952633 -0.61566146476048833 0 -0.78801076186113728 I I #
coedge $-1 $506 $349 $435 $516 forward $440 $-1 #
coedge $-1 $349 $518 $351 $443 forward $440 $-1 #
loop $-1 $-1 $506 $519 #
straight-curve $-1 -57.95098727378155 -25.379453427638314 36.656997243290398 0 0 -1 I I #
coedge $-1 $444 $351 $520 $521 reversed $353 $-1 #
edge $-1 $522 -16.133538827494064 $354 -11.541789342594187 $439 $523 forward 7 unknown #
coedge $-1 $352 $442 $524 $525 reversed $353 $-1 #
coedge $-1 $526 $426 $352 $446 forward $343 $-1 #
edge $-1 $355 -57.10583164632596 $527 57.95098727378155 $445 $356 forward 7 unknown #
point $-1 -57.95098727378155 -25.379453427638314 3.0393649711528319 #
point $-1 -57.10583164632596 -25.379453427638314 3.0393649711528319 #
point $-1 -52.52964562967523 -23.066868693377952 1.4994915156568402 #
face $-1 $528 $529 $19 $-1 $530 forward single #
loop $-1 $-1 $531 $359 #
plane-surface $-1 -149.28299053821689 -17.285406857727043 73.313994486580796 0 -1 0 0.78801076186113728 0 -0.61566146476048833 forward_v I I I I #
coedge $-1 $454 $361 $532 $533 forward $264 $-1 #
coedge $-1 $361 $453 $534 $535 reversed $264 $-1 #
coedge $-1 $536 $537 $361 $456 reversed $538 $-1 #
edge $-1 $539 -57.95098727378155 $540 -57.10583164632596 $455 $541 forward 7 unknown #
edge $-1 $542 1 $542 0 $362 $-1 forward 7 unknown #
vertex $-1 $363 $543 #
ellipse-curve $-1 -53.31765639153636 -23.066868693377952 2.1151529804173284 -0.78801076186113728 0 0.61566146476048833 0.61566146476048833 0 0.78801076186113728 1 I I #
point $-1 -55.502683342096908 -23.066868693377952 5.0913012850219861 #
point $-1 -52.52964562967523 -19.597991591987409 1.4994915156568402 #
coedge $-1 $544 $545 $546 $547 reversed $368 $-1 #
loop $-1 $-1 $386 $373 #
plane-surface $-1 0 29.971202912538192 0 0 -1 0 0 0 -1 forward_v I I I I #
coedge $-1 $376 $375 $388 $474 forward $201 $-1 #
coedge $-1 $468 $386 $376 $467 reversed $463 $-1 #
edge $-1 $548 -57.95098727378155 $392 57.95098727378155 $466 $549 forward 7 unknown #
coedge $-1 $377 $466 $381 $471 reversed $463 $-1 #
straight-curve $-1 0 29.971202912538192 6.6489659783264452 -1 0 0 I I #
point $-1 57.95098727378155 29.971202912538192 6.6489659783264452 #
edge $-1 $382 -6.6489659783264452 $548 6.6489659783264452 $468 $550 forward 7 unknown #
point $-1 -57.95098727378155 29.971202912538192 6.6489659783264452 #
straight-curve $-1 57.95098727378155 29.971202912538192 0 0 0 -1 I I #
edge $-1 $390 -29.971202912538192 $548 29.971202912538192 $388 $551 forward 7 unknown #
straight-curve $-1 0 -29.971202912538192 -6.6489659783264452 -1 0 0 I I #
point $-1 -57.95098727378155 -29.971202912538192 -6.6489659783264452 #
point $-1 57.95098727378155 29.971202912538192 -6.6489659783264452 #
face $-1 $333 $415 $17 $-1 $552 reversed single #
loop $-1 $-1 $553 $395 #
plane-surface $-1 0 0 -6.6489659783264452 0 0 1 1 0 0 forward_v I I I I #
coedge $-1 $409 $398 $554 $555 forward $242 $-1 #
coedge $-1 $556 $554 $400 $483 reversed $495 $-1 #
edge $-1 $487 -57.95098727378155 $484 57.95098727378155 $482 $557 forward 7 unknown #
vertex $-1 $483 $558 #
straight-curve $-1 -57.95098727378155 0 6.6489659783264452 0 -1 0 I I #
coedge $-1 $405 $499 $556 $559 reversed $396 $-1 #
vertex $-1 $406 $560 #
straight-curve $-1 57.95098727378155 0 6.6489659783264452 0 1 0 I I #
point $-1 57.95098727378155 -25.379453427638314 6.6489659783264461 #
coedge $-1 $561 $562 $409 $491 forward $479 $-1 #
edge $-1 $493 -29.971202912538192 $563 29.971202912538192 $409 $564 forward 7 unknown #
coedge $-1 $414 $410 $562 $565 reversed $415 $-1 #
vertex $-1 $491 $566 #
straight-curve $-1 -57.95098727378155 -29.971202912538192 0 0 0 -1 I I #
loop $-1 $-1 $556 $412 #
plane-surface $-1 0 29.971202912538192 0 0 -1 0 0 0 -1 forward_v I I I I #
edge $-1 $416 -3.0393649711528319 $567 6.6489659783264452 $419 $568 forward 7 unknown #
point $-1 57.95098727378155 -29.971202912538192 3.0393649711528319 #
coedge $-1 $486 $419 $553 $569 reversed $396 $-1 #
straight-curve $-1 57.95098727378155 -25.379453427638314 2.4220827373698195 0 0 -1 I I #
face $-1 $570 $571 $18 $-1 $572 reversed single #
loop $-1 $-1 $433 $424 #
plane-surface $-1 0 0 6.6489659783264452 0 0 1 1 0 0 forward_v I I I I #
coedge $-1 $426 $526 $513 $573 reversed $343 $-1 #
edge $-1 $514 13.023001551085388 $355 17.603650930350707 $426 $574 forward 7 unknown #
coedge $-1 $575 $438 $427 $507 forward $440 $-1 #
edge $-1 $576 -34.699382175295135 $510 -30.008031264963954 $506 $577 forward 7 unknown #
edge $-1 $576 0 $511 5.9534096961456076 $428 $578 forward 7 unknown #
coedge $-1 $429 $579 $575 $580 forward $502 $-1 #
vertex $-1 $507 $581 #
vertex $-1 $434 $582 #
straight-curve $-1 -74.641495269108447 -17.285406857727043 6.6489659783264443 1 0 0 I I #
coedge $-1 $583 $433 $504 $573 forward $502 $-1 #
vertex $-1 $573 $584 #
straight-curve $-1 -54.285702339933252 -10.666215071341339 6.6489659783264443 0 -1 0 I I #
edge $-1 $436 -14.713238356296975 $576 -6.6191917863857039 $438 $585 forward 7 unknown #
point $-1 -57.95098727378155 -25.379453427638314 1.9576150679952633 #
coedge $-1 $439 $586 $587 $588 reversed $440 $-1 #
face $-1 $589 $440 $18 $-1 $590 reversed single #
coedge $-1 $587 $591 $442 $521 forward $592 $-1 #
edge $-1 $593 -57.95098727378155 $522 57.95098727378155 $520 $594 forward 7 unknown #
vertex $-1 $588 $595 #
straight-curve $-1 -57.95098727378155 -13.837664085044127 3.0393649711528319 0 1 0 I I #
coedge $-1 $596 $597 $444 $525 forward $571 $-1 #
edge $-1 $527 11.541789342594187 $593 16.133538827494064 $524 $598 forward 7 unknown #
coedge $-1 $504 $445 $597 $599 reversed $343 $-1 #
vertex $-1 $525 $600 #
face $-1 $601 $538 $19 $-1 $602 forward single #
loop $-1 $-1 $603 $450 #
plane-surface $-1 0 -25.379453427638314 4.844165474739639 0 -1 0 0 0 -1 forward_v I I I I #
coedge $-1 $604 $605 $606 $607 reversed $451 $-1 #
coedge $-1 $545 $608 $453 $533 reversed $368 $-1 #
edge $-1 $540 -1.3727603168802851 $609 0 $453 $610 forward 7 unknown #
coedge $-1 $611 $612 $454 $535 forward $613 $-1 #
edge $-1 $539 33.61763227213757 $609 34.699382175295135 $534 $614 forward 7 unknown #
coedge $-1 $615 $455 $612 $616 reversed $538 $-1 #
coedge $-1 $455 $617 $618 $619 reversed $538 $-1 #
loop $-1 $-1 $617 $528 #
vertex $-1 $616 $620 #
vertex $-1 $619 $621 #
straight-curve $-1 0 -25.379453427638314 3.0393649711528319 1 0 0 I I #
vertex $-1 $457 $622 #
point $-1 -52.701994926775875 -23.066868693377952 2.9031637422784655 #
coedge $-1 $608 $462 $605 $623 reversed $368 $-1 #
coedge $-1 $462 $532 $603 $624 reversed $368 $-1 #
coedge $-1 $625 $606 $462 $547 forward $626 $-1 #
edge $-1 $627 6.6191917863857039 $628 14.713238356296975 $546 $629 forward 7 unknown #
vertex $-1 $467 $630 #
straight-curve $-1 0 29.971202912538192 -6.6489659783264452 1 0 0 I I #
straight-curve $-1 -57.95098727378155 29.971202912538192 0 0 0 -1 I I #
straight-curve $-1 -57.95098727378155 0 -6.6489659783264452 0 1 0 I I #
plane-surface $-1 0 -29.971202912538192 0 0 1 0 0 0 1 forward_v I I I I #
coedge $-1 $562 $561 $499 $569 forward $479 $-1 #
coedge $-1 $482 $631 $481 $555 reversed $495 $-1 #
edge $-1 $484 -6.6489659783264452 $563 6.6489659783264452 $554 $632 forward 7 unknown #
coedge $-1 $631 $482 $486 $559 forward $495 $-1 #
straight-curve $-1 0 29.971202912538192 6.6489659783264452 -1 0 0 I I #
point $-1 -57.95098727378155 29.971202912538192 6.6489659783264452 #
edge $-1 $487 -6.6489659783264452 $633 6.6489659783264452 $486 $634 forward 7 unknown #
point $-1 57.95098727378155 29.971202912538192 6.6489659783264452 #
coedge $-1 $553 $490 $631 $635 forward $479 $-1 #
coedge $-1 $490 $553 $492 $565 forward $479 $-1 #
vertex $-1 $635 $636 #
straight-curve $-1 -57.95098727378155 0 -6.6489659783264452 0 1 0 I I #
edge $-1 $567 -57.95098727378155 $493 57.95098727378155 $492 $637 forward 7 unknown #
point $-1 -57.95098727378155 -29.971202912538192 -6.6489659783264452 #
vertex $-1 $497 $638 #
straight-curve $-1 57.95098727378155 -29.971202912538192 0 0 0 -1 I I #
edge $-1 $633 -29.971202912538192 $567 29.971202912538192 $499 $639 forward 7 unknown #
face $-1 $640 $641 $18 $-1 $642 reversed single #
loop $-1 $-1 $597 $501 #
plane-surface $-1 57.95098727378155 0 0 -1 0 0 0 0 1 forward_v I I I I #
edge $-1 $514 -54.285702339933259 $643 57.95098727378155 $513 $644 forward 7 unknown #
straight-curve $-1 -46.26794212941391 -25.379453427638314 16.911231352316008 -0.61566146476048833 0 -0.78801076186113728 I I #
coedge $-1 $645 $506 $509 $580 reversed $440 $-1 #
vertex $-1 $516 $646 #
straight-curve $-1 -57.95098727378155 -17.285406857727043 36.656997243290398 0 0 1 I I #
straight-curve $-1 -57.95098727378155 -17.285406857727043 1.9576150679952633 0.61566146476048833 0 0.78801076186113728 I I #
coedge $-1 $509 $583 $647 $648 forward $502 $-1 #
edge $-1 $649 -29.971202912538192 $510 17.285406857727043 $575 $650 forward 7 unknown #
point $-1 -57.95098727378155 -17.285406857727043 6.6489659783264452 #
point $-1 -54.285702339933252 -17.285406857727043 6.6489659783264452 #
coedge $-1 $579 $513 $651 $652 forward $502 $-1 #
point $-1 -54.285702339933259 -25.379453427638314 6.6489659783264452 #
straight-curve $-1 -57.95098727378155 -10.666215071341339 1.9576150679952655 0 1 0 I I #
coedge $-1 $518 $645 $653 $654 reversed $440 $-1 #
coedge $-1 $655 $520 $518 $588 forward $592 $-1 #
edge $-1 $522 -3.0393649711528319 $656 6.6489659783264452 $518 $657 forward 7 unknown #
face $-1 $-1 $658 $18 $-1 $659 reversed single #
plane-surface $-1 -57.95098727378155 0 0 1 0 0 0 0 -1 forward_v I I I I #
coedge $-1 $520 $655 $596 $660 reversed $592 $-1 #
loop $-1 $-1 $520 $640 #
vertex $-1 $660 $661 #
straight-curve $-1 0 -29.971202912538192 3.0393649711528319 -1 0 0 I I #
point $-1 -57.95098727378155 -29.971202912538192 3.0393649711528319 #
coedge $-1 $662 $524 $591 $660 forward $571 $-1 #
coedge $-1 $524 $651 $526 $599 forward $571 $-1 #
straight-curve $-1 57.95098727378155 -13.837664085044127 3.0393649711528319 0 -1 0 I I #
edge $-1 $643 -4.2268832409566262 $527 -0.61728223378301239 $597 $663 forward 7 unknown #
point $-1 57.95098727378155 -25.379453427638314 3.0393649711528319 #
face $-1 $664 $626 $19 $-1 $665 forward single #
plane-surface $-1 0 -27.675328170088253 3.0393649711528319 0 0 1 1 0 0 forward_v I I I I #
coedge $-1 $618 $666 $545 $624 forward $529 $-1 #
coedge $-1 $605 $531 $667 $668 reversed $451 $-1 #
coedge $-1 $531 $604 $544 $623 forward $451 $-1 #
coedge $-1 $546 $669 $531 $607 forward $626 $-1 #
edge $-1 $670 16.690507995326897 $627 20.355792929175195 $606 $671 forward 7 unknown #
coedge $-1 $532 $544 $611 $672 reversed $368 $-1 #
vertex $-1 $672 $673 #
straight-curve $-1 -57.95098727378155 -25.379453427638314 1.9576150679952633 -0.61566146476048833 0 -0.78801076186113728 I I #
coedge $-1 $667 $534 $608 $672 forward $613 $-1 #
coedge $-1 $534 $674 $536 $616 forward $613 $-1 #
loop $-1 $-1 $667 $675 #
straight-curve $-1 -57.95098727378155 -25.379453427638314 36.656997243290398 0 0 -1 I I #
coedge $-1 $617 $536 $676 $677 reversed $538 $-1 #
edge $-1 $678 -16.133538827494064 $539 -11.541789342594187 $612 $679 forward 7 unknown #
coedge $-1 $537 $615 $680 $681 reversed $538 $-1 #
coedge $-1 $682 $603 $537 $619 forward $529 $-1 #
edge $-1 $540 -57.10583164632596 $683 57.95098727378155 $618 $541 forward 7 unknown #
point $-1 -57.95098727378155 -25.379453427638314 3.0393649711528319 #
point $-1 -57.10583164632596 -25.379453427638314 3.0393649711528319 #
point $-1 -52.52964562967523 -23.066868693377952 1.4994915156568402 #
edge $-1 $684 0 $627 5.9534096961456076 $605 $685 forward 7 unknown #
edge $-1 $628 13.023001551085388 $540 17.603650930350707 $603 $686 forward 7 unknown #
coedge $-1 $687 $546 $666 $688 forward $626 $-1 #
loop $-1 $-1 $546 $601 #
vertex $-1 $547 $689 #
vertex $-1 $688 $690 #
straight-curve $-1 -54.285702339933252 -10.666215071341339 6.6489659783264443 0 -1 0 I I #
point $-1 -57.95098727378155 29.971202912538192 -6.6489659783264452 #
coedge $-1 $554 $556 $561 $635 reversed $495 $-1 #
straight-curve $-1 -57.95098727378155 29.971202912538192 0 0 0 -1 I I #
vertex $-1 $569 $691 #
straight-curve $-1 57.95098727378155 29.971202912538192 0 0 0 -1 I I #
edge $-1 $563 -57.95098727378155 $633 57.95098727378155 $631 $692 forward 7 unknown #
point $-1 -57.95098727378155 29.971202912538192 -6.6489659783264452 #
straight-curve $-1 0 -29.971202912538192 -6.6489659783264452 -1 0 0 I I #
point $-1 57.95098727378155 -29.971202912538192 -6.6489659783264452 #
straight-curve $-1 57.95098727378155 0 -6.6489659783264452 0 -1 0 I I #
face $-1 $519 $592 $18 $-1 $693 reversed single #
loop $-1 $-1 $694 $570 #
plane-surface $-1 0 0 -6.6489659783264452 0 0 1 1 0 0 forward_v I I I I #
vertex $-1 $652 $695 #
straight-curve $-1 0 -25.379453427638314 6.6489659783264452 1 0 0 I I #
coedge $-1 $586 $575 $696 $697 forward $440 $-1 #
point $-1 -57.95098727378155 -17.285406857727043 1.9576150679952633 #
coedge $-1 $698 $696 $579 $648 reversed $658 $-1 #
edge $-1 $699 -57.95098727378155 $649 57.95098727378155 $647 $700 forward 7 unknown #
vertex $-1 $648 $701 #
straight-curve $-1 -57.95098727378155 0 6.6489659783264452 0 -1 0 I I #
coedge $-1 $597 $702 $583 $652 reversed $571 $-1 #
edge $-1 $643 -25.379453427638314 $699 29.971202912538192 $651 $703 forward 7 unknown #
coedge $-1 $704 $705 $586 $654 forward $641 $-1 #
edge $-1 $656 -29.971202912538192 $706 29.971202912538192 $586 $707 forward 7 unknown #
coedge $-1 $591 $587 $705 $708 reversed $592 $-1 #
vertex $-1 $654 $709 #
straight-curve $-1 -57.95098727378155 -29.971202912538192 0 0 0 -1 I I #
loop $-1 $-1 $698 $589 #
plane-surface $-1 0 29.971202912538192 0 0 -1 0 0 0 -1 forward_v I I I I #
edge $-1 $593 -3.0393649711528319 $710 6.6489659783264452 $596 $711 forward 7 unknown #
point $-1 57.95098727378155 -29.971202912538192 3.0393649711528319 #
coedge $-1 $702 $596 $694 $712 reversed $571 $-1 #
straight-curve $-1 57.95098727378155 -25.379453427638314 2.4220827373698195 0 0 -1 I I #
face $-1 $713 $714 $19 $-1 $715 reversed single #
plane-surface $-1 0 0 6.6489659783264452 0 0 1 1 0 0 forward_v I I I I #
coedge $-1 $603 $682 $625 $688 reversed $529 $-1 #
coedge $-1 $716 $611 $604 $668 forward $613 $-1 #
edge $-1 $684 -34.699382175295135 $670 -30.008031264963954 $667 $717 forward 7 unknown #
coedge $-1 $606 $718 $716 $719 forward $626 $-1 #
vertex $-1 $668 $720 #
straight-curve $-1 -74.641495269108447 -17.285406857727043 6.6489659783264443 1 0 0 I I #
edge $-1 $609 -14.713238356296975 $684 -6.6191917863857039 $611 $721 forward 7 unknown #
point $-1 -57.95098727378155 -25.379453427638314 1.9576150679952633 #
coedge $-1 $612 $722 $723 $724 reversed $613 $-1 #
face $-1 $725 $613 $19 $-1 $726 reversed single #
coedge $-1 $723 $727 $615 $677 forward $728 $-1 #
edge $-1 $729 -57.95098727378155 $678 57.95098727378155 $676 $730 forward 7 unknown #
vertex $-1 $724 $731 #
straight-curve $-1 -57.95098727378155 -13.837664085044127 3.0393649711528319 0 1 0 I I #
coedge $-1 $732 $733 $617 $681 forward $714 $-1 #
edge $-1 $683 11.541789342594187 $729 16.133538827494064 $680 $734 forward 7 unknown #
coedge $-1 $666 $618 $733 $735 reversed $529 $-1 #
vertex $-1 $681 $736 #
vertex $-1 $672 $737 #
straight-curve $-1 -57.95098727378155 -17.285406857727043 1.9576150679952633 0.61566146476048833 0 0.78801076186113728 I I #
straight-curve $-1 -46.26794212941391 -25.379453427638314 16.911231352316008 -0.61566146476048833 0 -0.78801076186113728 I I #
coedge $-1 $718 $625 $738 $739 forward $626 $-1 #
edge $-1 $628 -54.285702339933259 $740 57.95098727378155 $625 $741 forward 7 unknown #
point $-1 -54.285702339933252 -17.285406857727043 6.6489659783264452 #
point $-1 -54.285702339933259 -25.379453427638314 6.6489659783264452 #
point $-1 57.95098727378155 29.971202912538192 -6.6489659783264452 #
straight-curve $-1 0 29.971202912538192 -6.6489659783264452 1 0 0 I I #
plane-surface $-1 0 -29.971202912538192 0 0 1 0 0 0 1 forward_v I I I I #
coedge $-1 $705 $704 $662 $712 forward $641 $-1 #
point $-1 57.95098727378155 -25.379453427638314 6.6489659783264461 #
coedge $-1 $647 $742 $645 $697 reversed $658 $-1 #
edge $-1 $649 -6.6489659783264452 $706 6.6489659783264452 $696 $743 forward 7 unknown #
coedge $-1 $742 $647 $702 $744 forward $658 $-1 #
vertex $-1 $652 $745 #
straight-curve $-1 0 29.971202912538192 6.6489659783264452 -1 0 0 I I #
point $-1 -57.95098727378155 29.971202912538192 6.6489659783264452 #
coedge $-1 $651 $662 $698 $744 reversed $571 $-1 #
straight-curve $-1 57.95098727378155 0 6.6489659783264452 0 1 0 I I #
coedge $-1 $694 $653 $742 $746 forward $641 $-1 #
coedge $-1 $653 $694 $655 $708 forward $641 $-1 #
vertex $-1 $746 $747 #
straight-curve $-1 -57.95098727378155 0 -6.6489659783264452 0 1 0 I I #
edge $-1 $710 -57.95098727378155 $656 57.95098727378155 $655 $748 forward 7 unknown #
point $-1 -57.95098727378155 -29.971202912538192 -6.6489659783264452 #
vertex $-1 $660 $749 #
straight-curve $-1 57.95098727378155 -29.971202912538192 0 0 0 -1 I I #
edge $-1 $750 -29.971202912538192 $710 29.971202912538192 $662 $751 forward 7 unknown #
face $-1 $752 $753 $19 $-1 $754 reversed single #
loop $-1 $-1 $733 $664 #
plane-surface $-1 57.95098727378155 0 0 -1 0 0 0 0 1 forward_v I I I I #
coedge $-1 $755 $667 $669 $719 reversed $613 $-1 #
straight-curve $-1 -57.95098727378155 -17.285406857727043 36.656997243290398 0 0 1 I I #
coedge $-1 $669 $687 $756 $757 forward $626 $-1 #
edge $-1 $758 -29.971202912538192 $670 17.285406857727043 $716 $759 forward 7 unknown #
point $-1 -57.95098727378155 -17.285406857727043 6.6489659783264452 #
straight-curve $-1 -57.95098727378155 -10.666215071341339 1.9576150679952655 0 1 0 I I #
coedge $-1 $674 $755 $760 $761 reversed $613 $-1 #
coedge $-1 $762 $676 $674 $724 forward $728 $-1 #
edge $-1 $678 -3.0393649711528319 $763 6.6489659783264452 $674 $764 forward 7 unknown #
face $-1 $-1 $765 $19 $-1 $766 reversed single #
plane-surface $-1 -57.95098727378155 0 0 1 0 0 0 0 -1 forward_v I I I I #
coedge $-1 $676 $762 $732 $767 reversed $728 $-1 #
loop $-1 $-1 $676 $752 #
vertex $-1 $767 $768 #
straight-curve $-1 0 -29.971202912538192 3.0393649711528319 -1 0 0 I I #
point $-1 -57.95098727378155 -29.971202912538192 3.0393649711528319 #
coedge $-1 $769 $680 $727 $767 forward $714 $-1 #
coedge $-1 $680 $738 $682 $735 forward $714 $-1 #
straight-curve $-1 57.95098727378155 -13.837664085044127 3.0393649711528319 0 -1 0 I I #
edge $-1 $740 -4.2268832409566262 $683 -0.61728223378301239 $733 $770 forward 7 unknown #
point $-1 57.95098727378155 -25.379453427638314 3.0393649711528319 #
point $-1 -57.95098727378155 -17.285406857727043 1.9576150679952633 #
coedge $-1 $733 $771 $687 $739 reversed $714 $-1 #
edge $-1 $740 -25.379453427638314 $772 29.971202912538192 $738 $773 forward 7 unknown #
vertex $-1 $739 $774 #
straight-curve $-1 0 -25.379453427638314 6.6489659783264452 1 0 0 I I #
coedge $-1 $696 $698 $704 $746 reversed $658 $-1 #
straight-curve $-1 -57.95098727378155 29.971202912538192 0 0 0 -1 I I #
edge $-1 $699 -6.6489659783264452 $750 6.6489659783264452 $702 $775 forward 7 unknown #
point $-1 57.95098727378155 29.971202912538192 6.6489659783264452 #
edge $-1 $706 -57.95098727378155 $750 57.95098727378155 $742 $776 forward 7 unknown #
point $-1 -57.95098727378155 29.971202912538192 -6.6489659783264452 #
straight-curve $-1 0 -29.971202912538192 -6.6489659783264452 -1 0 0 I I #
point $-1 57.95098727378155 -29.971202912538192 -6.6489659783264452 #
vertex $-1 $712 $777 #
straight-curve $-1 57.95098727378155 0 -6.6489659783264452 0 -1 0 I I #
face $-1 $675 $728 $19 $-1 $778 reversed single #
loop $-1 $-1 $779 $713 #
plane-surface $-1 0 0 -6.6489659783264452 0 0 1 1 0 0 forward_v I I I I #
coedge $-1 $722 $716 $780 $781 forward $613 $-1 #
coedge $-1 $782 $780 $718 $757 reversed $765 $-1 #
edge $-1 $772 -57.95098727378155 $758 57.95098727378155 $756 $783 forward 7 unknown #
vertex $-1 $757 $784 #
straight-curve $-1 -57.95098727378155 0 6.6489659783264452 0 -1 0 I I #
coedge $-1 $785 $786 $722 $761 forward $753 $-1 #
edge $-1 $763 -29.971202912538192 $787 29.971202912538192 $722 $788 forward 7 unknown #
coedge $-1 $727 $723 $786 $789 reversed $728 $-1 #
vertex $-1 $761 $790 #
straight-curve $-1 -57.95098727378155 -29.971202912538192 0 0 0 -1 I I #
loop $-1 $-1 $782 $725 #
plane-surface $-1 0 29.971202912538192 0 0 -1 0 0 0 -1 forward_v I I I I #
edge $-1 $729 -3.0393649711528319 $791 6.6489659783264452 $732 $792 forward 7 unknown #
point $-1 57.95098727378155 -29.971202912538192 3.0393649711528319 #
coedge $-1 $771 $732 $779 $793 reversed $714 $-1 #
straight-curve $-1 57.95098727378155 -25.379453427638314 2.4220827373698195 0 0 -1 I I #
coedge $-1 $738 $769 $782 $794 reversed $714 $-1 #
vertex $-1 $739 $795 #
straight-curve $-1 57.95098727378155 0 6.6489659783264452 0 1 0 I I #
point $-1 57.95098727378155 -25.379453427638314 6.6489659783264461 #
straight-curve $-1 57.95098727378155 29.971202912538192 0 0 0 -1 I I #
straight-curve $-1 0 29.971202912538192 -6.6489659783264452 1 0 0 I I #
point $-1 57.95098727378155 29.971202912538192 -6.6489659783264452 #
plane-surface $-1 0 -29.971202912538192 0 0 1 0 0 0 1 forward_v I I I I #
coedge $-1 $786 $785 $769 $793 forward $753 $-1 #
coedge $-1 $756 $796 $755 $781 reversed $765 $-1 #
edge $-1 $758 -6.6489659783264452 $787 6.6489659783264452 $780 $797 forward 7 unknown #
coedge $-1 $796 $756 $771 $794 forward $765 $-1 #
straight-curve $-1 0 29.971202912538192 6.6489659783264452 -1 0 0 I I #
point $-1 -57.95098727378155 29.971202912538192 6.6489659783264452 #
coedge $-1 $779 $760 $796 $798 forward $753 $-1 #
coedge $-1 $760 $779 $762 $789 forward $753 $-1 #
vertex $-1 $798 $799 #
straight-curve $-1 -57.95098727378155 0 -6.6489659783264452 0 1 0 I I #
edge $-1 $791 -57.95098727378155 $763 57.95098727378155 $762 $800 forward 7 unknown #
point $-1 -57.95098727378155 -29.971202912538192 -6.6489659783264452 #
vertex $-1 $767 $801 #
straight-curve $-1 57.95098727378155 -29.971202912538192 0 0 0 -1 I I #
edge $-1 $802 -29.971202912538192 $791 29.971202912538192 $769 $803 forward 7 unknown #
edge $-1 $772 -6.6489659783264452 $802 6.6489659783264452 $771 $804 forward 7 unknown #
point $-1 57.95098727378155 29.971202912538192 6.6489659783264452 #
coedge $-1 $780 $782 $785 $798 reversed $765 $-1 #
straight-curve $-1 -57.95098727378155 29.971202912538192 0 0 0 -1 I I #
edge $-1 $787 -57.95098727378155 $802 57.95098727378155 $796 $805 forward 7 unknown #
point $-1 -57.95098727378155 29.971202912538192 -6.6489659783264452 #
straight-curve $-1 0 -29.971202912538192 -6.6489659783264452 -1 0 0 I I #
point $-1 57.95098727378155 -29.971202912538192 -6.6489659783264452 #
vertex $-1 $793 $806 #
straight-curve $-1 57.95098727378155 0 -6.6489659783264452 0 -1 0 I I #
straight-curve $-1 57.95098727378155 29.971202912538192 0 0 0 -1 I I #
straight-curve $-1 0 29.971202912538192 -6.6489659783264452 1 0 0 I I #
point $-1 57.95098727378155 29.971202912538192 -6.6489659783264452 #
End-of-ACIS-data 