500 0 11 0           
7 Unknown 11 ACIS 5.0 NT 24 Thu Mar 25 23:57:47 1999 
-1 9.9999999999999995e-007 1e-010 
body $-1 $11 $-1 $12 #
body $-1 $13 $-1 $14 #
body $-1 $15 $-1 $16 #
body $-1 $17 $-1 $18 #
body $-1 $19 $-1 $20 #
body $-1 $21 $-1 $22 #
body $-1 $23 $-1 $24 #
body $-1 $25 $-1 $26 #
body $-1 $27 $-1 $28 #
body $-1 $29 $-1 $30 #
body $-1 $31 $-1 $32 #
lump $-1 $-1 $33 $0 #
transform $-1 1 0 0 0 1 0 0 0 1 53.861507003997922 29.986034213334477 11.834723662743171 1 rotate no_reflect no_shear #
lump $-1 $-1 $34 $1 #
transform $-1 1 0 0 0 1 0 0 0 1 53.861507003997922 29.986034213334477 11.834723662743171 1 rotate no_reflect no_shear #
lump $-1 $-1 $35 $2 #
transform $-1 1 0 0 0 1 0 0 0 1 53.861507003997922 29.986034213334477 11.834723662743171 1 rotate no_reflect no_shear #
lump $-1 $-1 $36 $3 #
transform $-1 1 0 0 0 1 0 0 0 1 53.861507003997922 29.986034213334477 11.834723662743171 1 rotate no_reflect no_shear #
lump $-1 $-1 $37 $4 #
transform $-1 1 0 0 0 1 0 0 0 1 53.861507003997922 29.986034213334477 11.834723662743171 1 rotate no_reflect no_shear #
lump $-1 $-1 $38 $5 #
transform $-1 1 0 0 0 1 0 0 0 1 53.861507003997922 29.986034213334477 11.834723662743171 1 rotate no_reflect no_shear #
lump $-1 $-1 $39 $6 #
transform $-1 1 0 0 0 1 0 0 0 1 53.861507003997922 29.986034213334477 11.834723662743171 1 rotate no_reflect no_shear #
lump $-1 $-1 $40 $7 #
transform $-1 1 0 0 0 1 0 0 0 1 53.861507003997922 29.986034213334477 11.834723662743171 1 rotate no_reflect no_shear #
lump $-1 $-1 $41 $8 #
transform $-1 1 0 0 0 1 0 0 0 1 53.861507003997922 29.986034213334477 11.834723662743171 1 rotate no_reflect no_shear #
lump $-1 $-1 $42 $9 #
transform $-1 1 0 0 0 1 0 0 0 1 53.861507003997922 29.986034213334477 11.834723662743171 1 rotate no_reflect no_shear #
lump $-1 $-1 $43 $10 #
transform $-1 1 0 0 0 1 0 0 0 1 53.861507003997922 29.986034213334477 11.834723662743171 1 rotate no_reflect no_shear #
shell $-1 $-1 $-1 $44 $-1 $11 #
shell $-1 $-1 $-1 $45 $-1 $13 #
shell $-1 $-1 $-1 $46 $-1 $15 #
shell $-1 $-1 $-1 $47 $-1 $17 #
shell $-1 $-1 $-1 $48 $-1 $19 #
shell $-1 $-1 $-1 $49 $-1 $21 #
shell $-1 $-1 $-1 $50 $-1 $23 #
shell $-1 $-1 $-1 $51 $-1 $25 #
shell $-1 $-1 $-1 $52 $-1 $27 #
shell $-1 $-1 $-1 $53 $-1 $29 #
shell $-1 $-1 $-1 $54 $-1 $31 #
face $-1 $55 $56 $33 $-1 $57 forward single #
face $-1 $58 $59 $34 $-1 $60 reversed single #
face $-1 $61 $62 $35 $-1 $63 forward single #
face $-1 $64 $65 $36 $-1 $66 forward single #
face $-1 $67 $68 $37 $-1 $69 reversed single #
face $-1 $70 $71 $38 $-1 $72 forward single #
face $-1 $73 $74 $39 $-1 $75 forward single #
face $-1 $76 $77 $40 $-1 $78 reversed single #
face $-1 $79 $80 $41 $-1 $81 forward single #
face $-1 $82 $83 $42 $-1 $84 reversed single #
face $-1 $85 $86 $43 $-1 $87 forward single #
face $-1 $88 $89 $33 $-1 $90 reversed single #
loop $-1 $-1 $91 $44 #
plane-surface $-1 0 0 11.834723662743171 0 0 1 1 0 0 forward_v I I I I #
face $-1 $92 $93 $34 $-1 $94 reversed single #
loop $-1 $-1 $95 $45 #
plane-surface $-1 -29.228479270788899 -121.34033200871178 58.463079300601478 -1 0 0 0 -0.84804810408105047 0.52991925155115449 forward_v I I I I #
face $-1 $96 $97 $35 $-1 $98 forward single #
loop $-1 $99 $100 $46 #
cone-surface $-1 -43.347431872792122 -24.905032374471119 5.4730514308565779 0 0.84804810408105047 -0.52991925155115449 1.5 0 0 1 I I 0 1 1.5 forward I I I I #
face $-1 $101 $102 $36 $-1 $103 forward single #
loop $-1 $104 $105 $47 #
cone-surface $-1 -34.876060311590187 -24.905032374471119 5.4730514308565779 0 0.84804810408105047 -0.52991925155115449 1.5 0 0 1 I I 0 1 1.5 forward I I I I #
face $-1 $106 $107 $37 $-1 $108 reversed single #
loop $-1 $-1 $109 $48 #
plane-surface $-1 24.633027733209023 -121.34033200871178 58.463079300601478 -1 0 0 0 -0.84804810408105047 0.52991925155115449 forward_v I I I I #
face $-1 $110 $111 $38 $-1 $112 forward single #
loop $-1 $113 $114 $49 #
cone-surface $-1 10.514075131205807 -24.905032374471119 5.4730514308565779 0 0.84804810408105047 -0.52991925155115449 1.5 0 0 1 I I 0 1 1.5 forward I I I I #
face $-1 $115 $116 $39 $-1 $117 forward single #
loop $-1 $118 $119 $50 #
cone-surface $-1 18.985446692407727 -24.905032374471119 5.4730514308565779 0 0.84804810408105047 -0.52991925155115449 1.5 0 0 1 I I 0 1 1.5 forward I I I I #
face $-1 $120 $121 $40 $-1 $122 reversed single #
loop $-1 $-1 $123 $51 #
plane-surface $-1 -40.964300359994262 73.95734946317549 121.14860936252354 -1 0 0 0 0.7660444514056185 0.64278759981090561 forward_v I I I I #
face $-1 $124 $125 $41 $-1 $126 forward single #
loop $-1 $127 $128 $52 #
cone-surface $-1 -47.412903681996092 26.649873093594451 8.1667913990352066 0 -0.7660444514056185 -0.64278759981090561 1 0 0 1 I I 0 1 1 forward I I I I #
face $-1 $129 $130 $42 $-1 $131 reversed single #
loop $-1 $-1 $132 $53 #
plane-surface $-1 47.412903681996092 -8.5632677063394596 51.905591743927317 0 0.7660444514056185 0.64278759981090561 1 0 0 forward_v I I I I #
face $-1 $133 $134 $43 $-1 $135 forward single #
loop $-1 $136 $137 $54 #
cone-surface $-1 47.412903681996092 26.649873093594451 8.1667913990352066 0 -0.7660444514056185 -0.64278759981090561 1 0 0 1 I I 0 1 1 forward I I I I #
face $-1 $138 $139 $33 $-1 $140 reversed single #
loop $-1 $-1 $141 $55 #
plane-surface $-1 0 0 -11.834723662743171 0 0 1 1 0 0 forward_v I I I I #
coedge $-1 $142 $143 $144 $145 forward $56 $-1 #
face $-1 $146 $147 $34 $-1 $148 reversed single #
loop $-1 $-1 $149 $58 #
plane-surface $-1 -39.111746092191154 -29.986034213334463 1.3785803426497907 0 -0.84804810408105047 0.52991925155115449 1 0 0 forward_v I I I I #
coedge $-1 $150 $151 $152 $153 reversed $59 $-1 #
face $-1 $-1 $154 $35 $-1 $155 forward single #
loop $-1 $156 $157 $61 #
cone-surface $-1 -43.347431872792122 -22.454856098785854 3.9420114203533068 0 0.84804810408105047 -0.52991925155115449 0.75 0 0 1 I I -0.70710678118654757 0.70710678118654757 0.75 forward I I I I #
loop $-1 $-1 $158 $46 #
coedge $-1 $100 $100 $159 $160 reversed $62 $-1 #
face $-1 $-1 $161 $36 $-1 $162 forward single #
loop $-1 $163 $164 $64 #
cone-surface $-1 -34.876060311590187 -22.454856098785854 3.9420114203533068 0 0.84804810408105047 -0.52991925155115449 0.75 0 0 1 I I -0.70710678118654757 0.70710678118654757 0.75 forward I I I I #
loop $-1 $-1 $165 $47 #
coedge $-1 $105 $105 $166 $167 reversed $65 $-1 #
face $-1 $168 $169 $37 $-1 $170 reversed single #
loop $-1 $-1 $171 $67 #
plane-surface $-1 14.749760911806767 -29.986034213334463 1.3785803426497907 0 -0.84804810408105047 0.52991925155115449 1 0 0 forward_v I I I I #
coedge $-1 $172 $173 $174 $175 reversed $68 $-1 #
face $-1 $-1 $176 $38 $-1 $177 forward single #
loop $-1 $178 $179 $70 #
cone-surface $-1 10.514075131205807 -22.454856098785854 3.9420114203533068 0 0.84804810408105047 -0.52991925155115449 0.75 0 0 1 I I -0.70710678118654757 0.70710678118654757 0.75 forward I I I I #
loop $-1 $-1 $180 $49 #
coedge $-1 $114 $114 $181 $182 reversed $71 $-1 #
face $-1 $-1 $183 $39 $-1 $184 forward single #
loop $-1 $185 $186 $73 #
cone-surface $-1 18.985446692407727 -22.454856098785854 3.9420114203533068 0 0.84804810408105047 -0.52991925155115449 0.75 0 0 1 I I -0.70710678118654757 0.70710678118654757 0.75 forward I I I I #
loop $-1 $-1 $187 $50 #
coedge $-1 $119 $119 $188 $189 reversed $74 $-1 #
face $-1 $190 $191 $40 $-1 $192 reversed single #
loop $-1 $-1 $193 $76 #
plane-surface $-1 -47.412903681996092 -8.5632677063394596 51.905591743927317 0 0.7660444514056185 0.64278759981090561 1 0 0 forward_v I I I I #
coedge $-1 $194 $195 $196 $197 reversed $77 $-1 #
face $-1 $-1 $198 $41 $-1 $199 forward single #
loop $-1 $200 $201 $79 #
cone-surface $-1 -47.412903681996092 25.39361583420218 7.1126664236136268 0 -0.7660444514056185 -0.64278759981090561 0.5 0 0 1 I I -0.70710678118654746 0.70710678118654746 0.5 forward I I I I #
loop $-1 $-1 $202 $52 #
coedge $-1 $128 $128 $203 $204 reversed $80 $-1 #
face $-1 $205 $206 $42 $-1 $207 forward single #
loop $-1 $-1 $208 $82 #
plane-surface $-1 40.964300359994262 73.95734946317549 121.14860936252354 1 0 0 0 -0.7660444514056185 -0.64278759981090561 forward_v I I I I #
coedge $-1 $209 $210 $211 $212 reversed $83 $-1 #
face $-1 $-1 $213 $43 $-1 $214 forward single #
loop $-1 $215 $216 $85 #
cone-surface $-1 47.412903681996092 25.39361583420218 7.1126664236136268 0 -0.7660444514056185 -0.64278759981090561 0.5 0 0 1 I I -0.70710678118654746 0.70710678118654746 0.5 forward I I I I #
loop $-1 $-1 $217 $54 #
coedge $-1 $137 $137 $218 $219 reversed $86 $-1 #
face $-1 $220 $221 $33 $-1 $222 reversed single #
loop $-1 $-1 $223 $88 #
plane-surface $-1 0 -29.986034213334477 0 0 1 0 0 0 1 forward_v I I I I #
coedge $-1 $224 $225 $226 $227 forward $89 $-1 #
coedge $-1 $228 $91 $229 $230 forward $56 $-1 #
coedge $-1 $91 $228 $231 $232 forward $56 $-1 #
coedge $-1 $233 $234 $91 $145 reversed $235 $-1 #
edge $-1 $236 -29.986034213334477 $237 29.986034213334477 $144 $238 forward 7 unknown #
face $-1 $239 $240 $34 $-1 $241 reversed single #
loop $-1 $-1 $242 $92 #
plane-surface $-1 -48.995012913593413 -121.34033200871178 58.463079300601478 1 0 0 0 0.84804810408105047 -0.52991925155115449 forward_v I I I I #
coedge $-1 $243 $244 $245 $246 reversed $93 $-1 #
coedge $-1 $151 $95 $247 $248 reversed $59 $-1 #
coedge $-1 $95 $150 $243 $249 reversed $59 $-1 #
coedge $-1 $245 $250 $95 $153 forward $251 $-1 #
edge $-1 $252 30.684131791021414 $253 37.217855073499194 $152 $254 forward 7 unknown #
loop $-1 $-1 $159 $96 #
plane-surface $-1 -39.111746092191154 -29.986034213334463 1.3785803426497907 0 -0.84804810408105047 0.52991925155115449 1 0 0 forward_v I I I I #
loop $-1 $-1 $255 $61 #
coedge $-1 $157 $157 $158 $256 reversed $97 $-1 #
coedge $-1 $158 $158 $157 $256 forward $99 $-1 #
coedge $-1 $159 $159 $100 $160 forward $154 $-1 #
edge $-1 $257 7.5400540218334792e-016 $257 6.2831853071796013 $159 $258 forward 7 unknown #
loop $-1 $-1 $166 $101 #
plane-surface $-1 -39.111746092191154 -29.986034213334463 1.3785803426497907 0 -0.84804810408105047 0.52991925155115449 1 0 0 forward_v I I I I #
loop $-1 $-1 $259 $64 #
coedge $-1 $164 $164 $165 $260 reversed $102 $-1 #
coedge $-1 $165 $165 $164 $260 forward $104 $-1 #
coedge $-1 $166 $166 $105 $167 forward $161 $-1 #
edge $-1 $261 7.5400540218334792e-016 $261 6.2831853071796013 $166 $262 forward 7 unknown #
face $-1 $263 $264 $37 $-1 $265 reversed single #
loop $-1 $-1 $266 $106 #
plane-surface $-1 4.8664940904045118 -121.34033200871178 58.463079300601478 1 0 0 0 0.84804810408105047 -0.52991925155115449 forward_v I I I I #
coedge $-1 $267 $268 $269 $270 reversed $107 $-1 #
coedge $-1 $173 $109 $271 $272 reversed $68 $-1 #
coedge $-1 $109 $172 $267 $273 reversed $68 $-1 #
coedge $-1 $269 $274 $109 $175 forward $275 $-1 #
edge $-1 $276 30.684131791021414 $277 37.217855073499194 $174 $278 forward 7 unknown #
loop $-1 $-1 $181 $110 #
plane-surface $-1 14.749760911806767 -29.986034213334463 1.3785803426497907 0 -0.84804810408105047 0.52991925155115449 1 0 0 forward_v I I I I #
loop $-1 $-1 $279 $70 #
coedge $-1 $179 $179 $180 $280 reversed $111 $-1 #
coedge $-1 $180 $180 $179 $280 forward $113 $-1 #
coedge $-1 $181 $181 $114 $182 forward $176 $-1 #
edge $-1 $281 7.5400540218334792e-016 $281 6.2831853071796013 $181 $282 forward 7 unknown #
loop $-1 $-1 $188 $115 #
plane-surface $-1 14.749760911806767 -29.986034213334463 1.3785803426497907 0 -0.84804810408105047 0.52991925155115449 1 0 0 forward_v I I I I #
loop $-1 $-1 $283 $73 #
coedge $-1 $186 $186 $187 $284 reversed $116 $-1 #
coedge $-1 $187 $187 $186 $284 forward $118 $-1 #
coedge $-1 $188 $188 $119 $189 forward $183 $-1 #
edge $-1 $285 7.5400540218334792e-016 $285 6.2831853071796013 $188 $286 forward 7 unknown #
face $-1 $287 $288 $40 $-1 $289 forward single #
loop $-1 $-1 $196 $120 #
plane-surface $-1 0 29.986034213334477 0 0 -1 0 0 0 -1 forward_v I I I I #
coedge $-1 $290 $291 $292 $293 reversed $121 $-1 #
coedge $-1 $195 $123 $294 $295 reversed $77 $-1 #
coedge $-1 $123 $194 $290 $296 reversed $77 $-1 #
coedge $-1 $292 $297 $123 $197 forward $191 $-1 #
edge $-1 $298 48.739581018518599 $299 54.609983194902291 $196 $300 forward 7 unknown #
loop $-1 $-1 $203 $124 #
plane-surface $-1 -47.412903681996092 -8.5632677063394596 51.905591743927317 0 0.7660444514056185 0.64278759981090561 1 0 0 forward_v I I I I #
loop $-1 $-1 $301 $79 #
coedge $-1 $201 $201 $202 $302 reversed $125 $-1 #
coedge $-1 $202 $202 $201 $302 forward $127 $-1 #
coedge $-1 $203 $203 $128 $204 forward $198 $-1 #
edge $-1 $303 1.407847693078707e-015 $303 6.2831853071796022 $203 $304 forward 7 unknown #
face $-1 $305 $306 $42 $-1 $307 reversed single #
loop $-1 $-1 $308 $129 #
plane-surface $-1 0 0 11.834723662743171 0 0 1 1 0 0 forward_v I I I I #
coedge $-1 $309 $310 $311 $312 reversed $130 $-1 #
coedge $-1 $313 $132 $314 $315 reversed $83 $-1 #
coedge $-1 $132 $313 $309 $316 forward $83 $-1 #
coedge $-1 $311 $317 $132 $212 forward $306 $-1 #
edge $-1 $318 -30.155055162999876 $319 -17.257848518996216 $211 $320 forward 7 unknown #
loop $-1 $-1 $218 $133 #
plane-surface $-1 47.412903681996092 -8.5632677063394596 51.905591743927317 0 0.7660444514056185 0.64278759981090561 1 0 0 forward_v I I I I #
loop $-1 $-1 $321 $85 #
coedge $-1 $216 $216 $217 $322 reversed $134 $-1 #
coedge $-1 $217 $217 $216 $322 forward $136 $-1 #
coedge $-1 $218 $218 $137 $219 forward $213 $-1 #
edge $-1 $323 1.407847693078707e-015 $323 6.2831853071796022 $218 $324 forward 7 unknown #
face $-1 $325 $326 $33 $-1 $327 reversed single #
loop $-1 $-1 $328 $138 #
plane-surface $-1 -53.861507003997922 0 0 1 0 0 0 0 -1 forward_v I I I I #
coedge $-1 $329 $231 $330 $331 forward $139 $-1 #
coedge $-1 $332 $141 $329 $333 forward $89 $-1 #
coedge $-1 $141 $332 $334 $335 forward $89 $-1 #
coedge $-1 $234 $233 $141 $227 reversed $235 $-1 #
edge $-1 $336 -29.986034213334477 $337 29.986034213334477 $226 $338 forward 7 unknown #
coedge $-1 $143 $142 $339 $340 forward $56 $-1 #
coedge $-1 $341 $342 $142 $230 reversed $326 $-1 #
edge $-1 $237 -53.861507003997922 $343 53.861507003997922 $229 $344 forward 7 unknown #
coedge $-1 $223 $345 $143 $232 reversed $139 $-1 #
edge $-1 $346 -53.861507003997922 $236 53.861507003997922 $231 $347 forward 7 unknown #
coedge $-1 $226 $144 $345 $348 forward $235 $-1 #
coedge $-1 $144 $226 $341 $349 reversed $235 $-1 #
loop $-1 $-1 $233 $325 #
vertex $-1 $145 $350 #
vertex $-1 $145 $351 #
straight-curve $-1 53.861507003997922 0 11.834723662743171 0 1 0 I I #
face $-1 $-1 $251 $34 $-1 $352 forward single #
loop $-1 $-1 $353 $146 #
plane-surface $-1 0 -29.986034213334477 0 0 1 0 0 0 1 forward_v I I I I #
coedge $-1 $354 $355 $356 $357 reversed $147 $-1 #
coedge $-1 $358 $149 $151 $249 forward $93 $-1 #
coedge $-1 $149 $358 $354 $359 forward $93 $-1 #
coedge $-1 $356 $152 $149 $246 forward $251 $-1 #
edge $-1 $253 9.6726062246933218 $360 29.439139867497836 $245 $361 forward 7 unknown #
coedge $-1 $362 $363 $150 $248 forward $240 $-1 #
edge $-1 $364 -27.85295930765097 $252 -17.396815987557567 $247 $365 forward 7 unknown #
edge $-1 $253 -12.329658270297902 $364 2.6737665129848107e-014 $151 $366 forward 7 unknown #
coedge $-1 $152 $356 $362 $367 forward $251 $-1 #
loop $-1 $-1 $356 $239 #
vertex $-1 $248 $368 #
vertex $-1 $153 $369 #
straight-curve $-1 -29.228479270788899 -60.670166004355892 11.834723662743173 0 1 0 I I #
coedge $-1 $255 $255 $-1 $370 reversed $156 $-1 #
edge $-1 $371 0 $371 6.2831853071796004 $157 $372 forward 7 unknown #
vertex $-1 $160 $373 #
ellipse-curve $-1 -43.347431872792122 -26.719172572095584 6.6066520026964746 0 -0.84804810408105047 0.52991925155115449 1.5 0 0 1 I I #
coedge $-1 $259 $259 $-1 $374 reversed $163 $-1 #
edge $-1 $375 0 $375 6.2831853071796004 $164 $376 forward 7 unknown #
vertex $-1 $167 $377 #
ellipse-curve $-1 -34.876060311590187 -26.719172572095584 6.6066520026964746 0 -0.84804810408105047 0.52991925155115449 1.5 0 0 1 I I #
face $-1 $-1 $275 $37 $-1 $378 forward single #
loop $-1 $-1 $379 $168 #
plane-surface $-1 0 -29.986034213334477 0 0 1 0 0 0 1 forward_v I I I I #
coedge $-1 $380 $381 $382 $383 reversed $169 $-1 #
coedge $-1 $384 $171 $173 $273 forward $107 $-1 #
coedge $-1 $171 $384 $380 $385 forward $107 $-1 #
coedge $-1 $382 $174 $171 $270 forward $275 $-1 #
edge $-1 $277 -17.258147277305639 $386 2.5083863654988718 $269 $387 forward 7 unknown #
coedge $-1 $388 $389 $172 $272 forward $264 $-1 #
edge $-1 $390 -27.85295930765097 $276 -17.396815987557567 $271 $391 forward 7 unknown #
edge $-1 $277 -12.329658270297902 $390 2.6737665129848107e-014 $173 $392 forward 7 unknown #
coedge $-1 $174 $382 $388 $393 forward $275 $-1 #
loop $-1 $-1 $382 $263 #
vertex $-1 $272 $394 #
vertex $-1 $175 $395 #
straight-curve $-1 24.633027733209023 -60.670166004355892 11.834723662743173 0 1 0 I I #
coedge $-1 $279 $279 $-1 $396 reversed $178 $-1 #
edge $-1 $397 0 $397 6.2831853071796004 $179 $398 forward 7 unknown #
vertex $-1 $182 $399 #
ellipse-curve $-1 10.514075131205807 -26.719172572095584 6.6066520026964746 0 -0.84804810408105047 0.52991925155115449 1.5 0 0 1 I I #
coedge $-1 $283 $283 $-1 $400 reversed $185 $-1 #
edge $-1 $401 0 $401 6.2831853071796004 $186 $402 forward 7 unknown #
vertex $-1 $189 $403 #
ellipse-curve $-1 18.985446692407727 -26.719172572095584 6.6066520026964746 0 -0.84804810408105047 0.52991925155115449 1.5 0 0 1 I I #
face $-1 $-1 $404 $40 $-1 $405 reversed single #
loop $-1 $-1 $294 $190 #
plane-surface $-1 0 0 11.834723662743171 0 0 1 1 0 0 forward_v I I I I #
coedge $-1 $406 $193 $195 $296 forward $121 $-1 #
coedge $-1 $193 $406 $407 $408 reversed $121 $-1 #
coedge $-1 $409 $196 $193 $293 forward $191 $-1 #
edge $-1 $299 17.257848518996216 $410 30.155055162999876 $292 $411 forward 7 unknown #
coedge $-1 $412 $413 $194 $295 forward $288 $-1 #
edge $-1 $414 -11.918492690354405 $298 -6.9926405182532676 $294 $415 forward 7 unknown #
edge $-1 $299 -59.972068426668976 $414 -52.308802717202546 $195 $416 forward 7 unknown #
coedge $-1 $196 $409 $412 $417 reversed $191 $-1 #
vertex $-1 $417 $418 #
vertex $-1 $197 $419 #
straight-curve $-1 -40.964300359994262 29.986034213334477 60.574304681261772 0 0 -1 I I #
coedge $-1 $301 $301 $-1 $420 reversed $200 $-1 #
edge $-1 $421 0 $421 6.2831853071796004 $201 $422 forward 7 unknown #
vertex $-1 $204 $423 #
ellipse-curve $-1 -47.412903681996092 27.523108127283905 8.8995225745513267 0 0.7660444514056185 0.64278759981090561 1 0 0 1 I I #
face $-1 $-1 $424 $42 $-1 $425 reversed single #
loop $-1 $-1 $311 $205 #
plane-surface $-1 0 29.986034213334477 0 0 -1 0 0 0 -1 forward_v I I I I #
coedge $-1 $426 $427 $310 $428 forward $206 $-1 #
coedge $-1 $310 $208 $210 $316 reversed $130 $-1 #
coedge $-1 $208 $309 $308 $428 reversed $130 $-1 #
coedge $-1 $429 $211 $208 $312 forward $306 $-1 #
edge $-1 $319 -54.609983194902291 $430 -48.739581018518599 $311 $431 forward 7 unknown #
coedge $-1 $210 $209 $426 $432 reversed $83 $-1 #
coedge $-1 $433 $434 $209 $315 forward $424 $-1 #
edge $-1 $435 29.675626293274053 $318 37.338892002740472 $314 $436 forward 7 unknown #
edge $-1 $437 52.308802717202546 $319 59.972068426668976 $309 $438 forward 7 unknown #
coedge $-1 $211 $429 $433 $439 forward $306 $-1 #
vertex $-1 $315 $440 #
vertex $-1 $212 $441 #
straight-curve $-1 23.706451840998046 29.986034213334477 5.9643214863594771 -1 0 0 I I #
coedge $-1 $321 $321 $-1 $442 reversed $215 $-1 #
edge $-1 $443 0 $443 6.2831853071796004 $216 $444 forward 7 unknown #
vertex $-1 $219 $445 #
ellipse-curve $-1 47.412903681996092 27.523108127283905 8.8995225745513267 0 0.7660444514056185 0.64278759981090561 1 0 0 1 I I #
face $-1 $-1 $235 $33 $-1 $446 reversed single #
loop $-1 $-1 $341 $220 #
plane-surface $-1 0 29.986034213334477 0 0 -1 0 0 0 -1 forward_v I I I I #
coedge $-1 $447 $339 $342 $448 forward $221 $-1 #
coedge $-1 $345 $223 $224 $333 reversed $139 $-1 #
coedge $-1 $339 $447 $223 $331 reversed $221 $-1 #
edge $-1 $346 -11.834723662743171 $449 11.834723662743171 $330 $450 forward 7 unknown #
coedge $-1 $225 $224 $447 $451 forward $89 $-1 #
edge $-1 $337 -53.861507003997922 $449 53.861507003997922 $329 $452 forward 7 unknown #
coedge $-1 $342 $341 $225 $335 reversed $326 $-1 #
edge $-1 $453 -53.861507003997922 $336 53.861507003997922 $334 $454 forward 7 unknown #
vertex $-1 $227 $455 #
vertex $-1 $348 $456 #
straight-curve $-1 53.861507003997922 0 -11.834723662743171 0 -1 0 I I #
coedge $-1 $328 $330 $228 $340 reversed $221 $-1 #
edge $-1 $343 -29.986034213334477 $346 29.986034213334477 $339 $457 forward 7 unknown #
coedge $-1 $334 $229 $234 $349 forward $326 $-1 #
coedge $-1 $229 $334 $328 $448 reversed $326 $-1 #
vertex $-1 $230 $458 #
straight-curve $-1 0 29.986034213334477 11.834723662743171 -1 0 0 I I #
coedge $-1 $231 $329 $233 $348 reversed $139 $-1 #
vertex $-1 $340 $459 #
straight-curve $-1 0 -29.986034213334477 11.834723662743171 1 0 0 I I #
edge $-1 $236 -11.834723662743171 $337 11.834723662743171 $233 $460 forward 7 unknown #
edge $-1 $237 -11.834723662743171 $336 11.834723662743171 $234 $461 forward 7 unknown #
point $-1 53.861507003997922 -29.986034213334477 11.834723662743171 #
point $-1 53.861507003997922 29.986034213334477 11.834723662743171 #
plane-surface $-1 0 0 11.834723662743171 0 0 1 1 0 0 forward_v I I I I #
coedge $-1 $363 $362 $355 $462 forward $240 $-1 #
coedge $-1 $355 $242 $244 $359 reversed $147 $-1 #
coedge $-1 $242 $354 $353 $462 reversed $147 $-1 #
coedge $-1 $250 $245 $242 $357 forward $251 $-1 #
edge $-1 $360 -37.217855073499194 $463 -30.684131791021414 $356 $464 forward 7 unknown #
coedge $-1 $244 $243 $363 $465 reversed $93 $-1 #
edge $-1 $466 -2.6737665129848107e-014 $360 12.329658270297902 $354 $467 forward 7 unknown #
vertex $-1 $246 $468 #
straight-curve $-1 -19.555873046095577 -23.452310930856697 11.834723662743171 -1 0 0 I I #
coedge $-1 $353 $247 $250 $367 reversed $240 $-1 #
coedge $-1 $247 $353 $358 $465 forward $240 $-1 #
vertex $-1 $248 $469 #
straight-curve $-1 -29.228479270788899 -29.986034213334477 29.231539650300739 0 0 1 I I #
straight-curve $-1 -29.228479270788899 -29.986034213334463 1.3785803426497907 0 -0.52991925155115449 -0.84804810408105047 I I #
edge $-1 $463 -48.995012913593413 $252 -29.228479270788899 $362 $470 forward 7 unknown #
point $-1 -29.228479270788899 -29.986034213334477 11.834723662743171 #
point $-1 -29.228479270788899 -23.452310930856697 11.834723662743171 #
edge $-1 $471 1 $471 0 $255 $-1 forward 7 unknown #
vertex $-1 $256 $472 #
ellipse-curve $-1 -43.347431872792122 -23.090892176846641 4.3394508590166723 0 -0.84804810408105047 0.52991925155115449 1.5 0 0 1 I I #
point $-1 -41.847431872792122 -26.719172572095594 6.6066520026964826 #
edge $-1 $473 1 $473 0 $259 $-1 forward 7 unknown #
vertex $-1 $260 $474 #
ellipse-curve $-1 -34.876060311590187 -23.090892176846641 4.3394508590166723 0 -0.84804810408105047 0.52991925155115449 1.5 0 0 1 I I #
point $-1 -33.376060311590187 -26.719172572095594 6.6066520026964826 #
plane-surface $-1 0 0 11.834723662743171 0 0 1 1 0 0 forward_v I I I I #
coedge $-1 $389 $388 $381 $475 forward $264 $-1 #
coedge $-1 $381 $266 $268 $385 reversed $169 $-1 #
coedge $-1 $266 $380 $379 $475 reversed $169 $-1 #
coedge $-1 $274 $269 $266 $383 forward $275 $-1 #
edge $-1 $386 -37.217855073499194 $476 -30.684131791021414 $382 $477 forward 7 unknown #
coedge $-1 $268 $267 $389 $478 reversed $107 $-1 #
edge $-1 $479 -2.6737665129848107e-014 $386 12.329658270297902 $380 $480 forward 7 unknown #
vertex $-1 $270 $481 #
straight-curve $-1 7.3748804559033836 -23.452310930856697 11.834723662743171 -1 0 0 I I #
coedge $-1 $379 $271 $274 $393 reversed $264 $-1 #
coedge $-1 $271 $379 $384 $478 forward $264 $-1 #
vertex $-1 $272 $482 #
straight-curve $-1 24.633027733209023 -29.986034213334477 29.231539650300739 0 0 1 I I #
straight-curve $-1 24.633027733209023 -29.986034213334463 1.3785803426497907 0 -0.52991925155115449 -0.84804810408105047 I I #
edge $-1 $476 4.8664940904045118 $276 24.633027733209023 $388 $483 forward 7 unknown #
point $-1 24.633027733209023 -29.986034213334477 11.834723662743171 #
point $-1 24.633027733209023 -23.452310930856697 11.834723662743171 #
edge $-1 $484 1 $484 0 $279 $-1 forward 7 unknown #
vertex $-1 $280 $485 #
ellipse-curve $-1 10.514075131205807 -23.090892176846641 4.3394508590166723 0 -0.84804810408105047 0.52991925155115449 1.5 0 0 1 I I #
point $-1 12.014075131205807 -26.719172572095594 6.6066520026964826 #
edge $-1 $486 1 $486 0 $283 $-1 forward 7 unknown #
vertex $-1 $284 $487 #
ellipse-curve $-1 18.985446692407727 -23.090892176846641 4.3394508590166723 0 -0.84804810408105047 0.52991925155115449 1.5 0 0 1 I I #
point $-1 20.485446692407727 -26.719172572095594 6.6066520026964826 #
loop $-1 $-1 $407 $287 #
plane-surface $-1 -53.861507003997922 0 0 1 0 0 0 0 -1 forward_v I I I I #
coedge $-1 $291 $290 $413 $488 reversed $121 $-1 #
coedge $-1 $489 $490 $291 $408 forward $404 $-1 #
edge $-1 $410 -37.338892002740479 $491 -29.675626293274053 $407 $492 forward 7 unknown #
coedge $-1 $297 $292 $490 $493 reversed $191 $-1 #
vertex $-1 $293 $494 #
straight-curve $-1 -23.706451840998046 29.986034213334477 5.9643214863594771 -1 0 0 I I #
coedge $-1 $495 $294 $297 $417 forward $288 $-1 #
coedge $-1 $294 $495 $406 $488 forward $288 $-1 #
vertex $-1 $295 $496 #
straight-curve $-1 -40.964300359994262 36.978674731587745 11.834723662743173 0 1 0 I I #
straight-curve $-1 -40.964300359994262 -8.5632677063394596 51.905591743927317 0 -0.64278759981090561 0.7660444514056185 I I #
edge $-1 $298 40.964300359994262 $497 53.861507003997922 $297 $498 forward 7 unknown #
point $-1 -40.964300359994262 29.986034213334477 11.834723662743171 #
point $-1 -40.964300359994262 29.986034213334477 5.9643214863594807 #
edge $-1 $499 1 $499 0 $301 $-1 forward 7 unknown #
vertex $-1 $302 $500 #
ellipse-curve $-1 -47.412903681996092 25.77663805990499 7.4340602235190794 0 0.7660444514056185 0.64278759981090561 1 0 0 1 I I #
point $-1 -46.412903681996092 27.523108127283916 8.8995225745513338 #
loop $-1 $-1 $314 $305 #
plane-surface $-1 53.861507003997922 0 0 -1 0 0 0 0 1 forward_v I I I I #
coedge $-1 $501 $308 $313 $432 forward $206 $-1 #
coedge $-1 $308 $501 $429 $502 forward $206 $-1 #
edge $-1 $430 6.9926405182532676 $437 11.918492690354405 $308 $503 forward 7 unknown #
coedge $-1 $317 $311 $427 $502 reversed $306 $-1 #
vertex $-1 $428 $504 #
straight-curve $-1 40.964300359994262 29.986034213334477 60.574304681261772 0 0 1 I I #
edge $-1 $437 17.257848518996216 $435 30.155055162999876 $426 $505 forward 7 unknown #
coedge $-1 $434 $314 $317 $439 reversed $424 $-1 #
coedge $-1 $314 $433 $501 $506 reversed $424 $-1 #
vertex $-1 $506 $507 #
straight-curve $-1 53.861507003997922 5.9850574432943109 34.567572526692437 0 0.64278759981090572 -0.76604445140561861 I I #
vertex $-1 $432 $508 #
straight-curve $-1 40.964300359994262 -8.5632677063394596 51.905591743927317 0 0.64278759981090561 -0.7660444514056185 I I #
edge $-1 $509 -11.834723662743171 $318 -5.9643214863594807 $433 $510 forward 7 unknown #
point $-1 53.861507003997922 29.986034213334477 5.9643214863594807 #
point $-1 40.964300359994262 29.986034213334477 5.9643214863594807 #
edge $-1 $511 1 $511 0 $321 $-1 forward 7 unknown #
vertex $-1 $322 $512 #
ellipse-curve $-1 47.412903681996092 25.77663805990499 7.4340602235190794 0 0.7660444514056185 0.64278759981090561 1 0 0 1 I I #
point $-1 48.412903681996092 27.523108127283916 8.8995225745513338 #
plane-surface $-1 53.861507003997922 0 0 -1 0 0 0 0 1 forward_v I I I I #
coedge $-1 $330 $328 $332 $451 reversed $221 $-1 #
edge $-1 $343 -11.834723662743171 $453 11.834723662743171 $342 $513 forward 7 unknown #
vertex $-1 $451 $514 #
straight-curve $-1 -53.861507003997922 -29.986034213334477 0 0 0 -1 I I #
edge $-1 $449 -29.986034213334477 $453 29.986034213334477 $447 $515 forward 7 unknown #
straight-curve $-1 0 -29.986034213334477 -11.834723662743171 -1 0 0 I I #
vertex $-1 $335 $516 #
straight-curve $-1 0 29.986034213334477 -11.834723662743171 1 0 0 I I #
point $-1 53.861507003997922 29.986034213334477 -11.834723662743171 #
point $-1 53.861507003997922 -29.986034213334477 -11.834723662743171 #
straight-curve $-1 -53.861507003997922 0 11.834723662743171 0 -1 0 I I #
point $-1 -53.861507003997922 29.986034213334477 11.834723662743171 #
point $-1 -53.861507003997922 -29.986034213334477 11.834723662743171 #
straight-curve $-1 53.861507003997922 -29.986034213334477 0 0 0 -1 I I #
straight-curve $-1 53.861507003997922 29.986034213334477 0 0 0 -1 I I #
edge $-1 $463 17.396815987557567 $466 27.85295930765097 $353 $517 forward 7 unknown #
vertex $-1 $367 $518 #
straight-curve $-1 -48.995012913593413 -60.670166004355892 11.834723662743173 0 -1 0 I I #
edge $-1 $466 -29.439139867497836 $364 -9.6726062246933218 $363 $519 forward 7 unknown #
vertex $-1 $465 $520 #
straight-curve $-1 -48.995012913593413 -29.986034213334463 1.3785803426497907 0 0.52991925155115449 0.84804810408105047 I I #
point $-1 -48.995012913593413 -23.452310930856697 11.834723662743171 #
point $-1 -29.228479270788899 -29.986034213334477 1.378580342649768 #
straight-curve $-1 0 -29.986034213334477 11.834723662743171 1 0 0 I I #
vertex $-1 $370 $521 #
point $-1 -41.847431872792122 -23.090892176846641 4.3394508590166723 #
vertex $-1 $374 $522 #
point $-1 -33.376060311590187 -23.090892176846641 4.3394508590166723 #
edge $-1 $476 17.396815987557567 $479 27.85295930765097 $379 $523 forward 7 unknown #
vertex $-1 $393 $524 #
straight-curve $-1 4.8664940904045118 -60.670166004355892 11.834723662743173 0 -1 0 I I #
edge $-1 $479 -2.5083863654988718 $390 17.258147277305639 $389 $525 forward 7 unknown #
vertex $-1 $478 $526 #
straight-curve $-1 4.8664940904045118 -29.986034213334463 1.3785803426497907 0 0.52991925155115449 0.84804810408105047 I I #
point $-1 4.8664940904045118 -23.452310930856697 11.834723662743171 #
point $-1 24.633027733209023 -29.986034213334477 1.378580342649768 #
straight-curve $-1 0 -29.986034213334477 11.834723662743171 1 0 0 I I #
vertex $-1 $396 $527 #
point $-1 12.014075131205807 -23.090892176846641 4.3394508590166723 #
vertex $-1 $400 $528 #
point $-1 20.485446692407727 -23.090892176846641 4.3394508590166723 #
edge $-1 $491 -30.155055162999876 $414 -17.257848518996216 $413 $529 forward 7 unknown #
coedge $-1 $490 $407 $495 $530 reversed $404 $-1 #
coedge $-1 $407 $489 $409 $493 forward $404 $-1 #
vertex $-1 $408 $531 #
straight-curve $-1 -53.861507003997922 5.9850574432943109 34.567572526692437 0 -0.64278759981090572 0.76604445140561861 I I #
edge $-1 $497 -11.834723662743171 $410 -5.9643214863594762 $409 $532 forward 7 unknown #
point $-1 -53.861507003997922 29.986034213334477 5.9643214863594762 #
coedge $-1 $413 $412 $489 $530 forward $288 $-1 #
point $-1 -40.964300359994262 25.06018204123334 11.834723662743173 #
vertex $-1 $417 $533 #
straight-curve $-1 0 29.986034213334477 11.834723662743171 -1 0 0 I I #
vertex $-1 $420 $534 #
point $-1 -46.412903681996092 25.77663805990499 7.4340602235190794 #
coedge $-1 $427 $426 $434 $506 forward $206 $-1 #
edge $-1 $509 -53.861507003997922 $430 -40.964300359994262 $429 $535 forward 7 unknown #
straight-curve $-1 40.964300359994262 36.978674731587745 11.834723662743173 0 -1 0 I I #
point $-1 40.964300359994262 29.986034213334477 11.834723662743171 #
straight-curve $-1 23.706451840998046 25.060182041233332 11.834723662743173 1 0 0 I I #
edge $-1 $435 25.06018204123334 $509 29.986034213334477 $434 $536 forward 7 unknown #
point $-1 53.861507003997922 25.06018204123334 11.834723662743173 #
point $-1 40.964300359994262 25.06018204123334 11.834723662743173 #
vertex $-1 $506 $537 #
straight-curve $-1 53.861507003997922 29.986034213334477 0 0 0 -1 I I #
vertex $-1 $442 $538 #
point $-1 48.412903681996092 25.77663805990499 7.4340602235190794 #
straight-curve $-1 -53.861507003997922 29.986034213334477 0 0 0 -1 I I #
point $-1 -53.861507003997922 -29.986034213334477 -11.834723662743171 #
straight-curve $-1 -53.861507003997922 0 -11.834723662743171 0 1 0 I I #
point $-1 -53.861507003997922 29.986034213334477 -11.834723662743171 #
straight-curve $-1 -48.995012913593413 -29.986034213334477 29.231539650300739 0 0 -1 I I #
point $-1 -48.995012913593413 -29.986034213334477 11.834723662743171 #
straight-curve $-1 -19.555873046095577 -29.986034213334477 1.3785803426497694 1 0 0 I I #
point $-1 -48.995012913593413 -29.986034213334477 1.378580342649768 #
point $-1 -43.347431872792122 -21.818820020725067 3.5445719816899408 #
point $-1 -34.876060311590187 -21.818820020725067 3.5445719816899408 #
straight-curve $-1 4.8664940904045118 -29.986034213334477 29.231539650300739 0 0 -1 I I #
point $-1 4.8664940904045118 -29.986034213334477 11.834723662743171 #
straight-curve $-1 7.3748804559033836 -29.986034213334477 1.3785803426497694 1 0 0 I I #
point $-1 4.8664940904045118 -29.986034213334477 1.378580342649768 #
point $-1 10.514075131205807 -21.818820020725067 3.5445719816899408 #
point $-1 18.985446692407727 -21.818820020725067 3.5445719816899408 #
straight-curve $-1 -23.706451840998046 25.060182041233332 11.834723662743173 1 0 0 I I #
edge $-1 $497 -29.986034213334477 $491 -25.06018204123334 $489 $539 forward 7 unknown #
point $-1 -53.861507003997922 25.06018204123334 11.834723662743173 #
straight-curve $-1 -53.861507003997922 29.986034213334477 0 0 0 -1 I I #
point $-1 -53.861507003997922 29.986034213334477 11.834723662743171 #
point $-1 -47.412903681996092 25.01059360849937 6.7912726237081742 #
straight-curve $-1 0 29.986034213334477 11.834723662743171 -1 0 0 I I #
straight-curve $-1 53.861507003997922 0 11.834723662743171 0 1 0 I I #
point $-1 53.861507003997922 29.986034213334477 11.834723662743171 #
point $-1 47.412903681996092 25.01059360849937 6.7912726237081742 #
straight-curve $-1 -53.861507003997922 0 11.834723662743171 0 -1 0 I I #
End-of-ACIS-data 