500 0 8 0           
7 Unknown 11 ACIS 5.0 NT 24 Thu Mar 25 22:46:18 1999 
-1 9.9999999999999995e-007 1e-010 
body $-1 $8 $-1 $9 #
body $-1 $10 $-1 $11 #
body $-1 $12 $-1 $13 #
body $-1 $14 $-1 $15 #
body $-1 $16 $-1 $17 #
body $-1 $18 $-1 $19 #
body $-1 $20 $-1 $21 #
body $-1 $22 $-1 $23 #
lump $-1 $-1 $24 $0 #
transform $-1 1 0 0 0 1 0 0 0 1 59.448835718863492 33.111334163029099 15.9305664829474 1 rotate no_reflect no_shear #
lump $-1 $-1 $25 $1 #
transform $-1 1 0 0 0 1 0 0 0 1 59.448835718863492 33.111334163029099 15.9305664829474 1 rotate no_reflect no_shear #
lump $-1 $-1 $26 $2 #
transform $-1 1 0 0 0 1 0 0 0 1 59.448835718863492 33.111334163029099 15.9305664829474 1 rotate no_reflect no_shear #
lump $-1 $-1 $27 $3 #
transform $-1 1 0 0 0 1 0 0 0 1 59.448835718863492 33.111334163029099 15.9305664829474 1 rotate no_reflect no_shear #
lump $-1 $-1 $28 $4 #
transform $-1 1 0 0 0 1 0 0 0 1 59.448835718863492 33.111334163029099 15.9305664829474 1 rotate no_reflect no_shear #
lump $-1 $-1 $29 $5 #
transform $-1 1 0 0 0 1 0 0 0 1 59.448835718863492 33.111334163029099 15.9305664829474 1 rotate no_reflect no_shear #
lump $-1 $-1 $30 $6 #
transform $-1 1 0 0 0 1 0 0 0 1 59.448835718863492 33.111334163029099 15.9305664829474 1 rotate no_reflect no_shear #
lump $-1 $-1 $31 $7 #
transform $-1 1 0 0 0 1 0 0 0 1 59.448835718863492 33.111334163029099 15.9305664829474 1 rotate no_reflect no_shear #
shell $-1 $-1 $-1 $32 $-1 $8 #
shell $-1 $-1 $-1 $33 $-1 $10 #
shell $-1 $-1 $-1 $34 $-1 $12 #
shell $-1 $-1 $-1 $35 $-1 $14 #
shell $-1 $-1 $-1 $36 $-1 $16 #
shell $-1 $-1 $-1 $37 $-1 $18 #
shell $-1 $-1 $-1 $38 $-1 $20 #
shell $-1 $-1 $-1 $39 $-1 $22 #
face $-1 $40 $41 $24 $-1 $42 forward single #
face $-1 $43 $44 $25 $-1 $45 reversed single #
face $-1 $46 $47 $26 $-1 $48 reversed single #
face $-1 $49 $50 $27 $-1 $51 forward single #
face $-1 $52 $53 $28 $-1 $54 reversed single #
face $-1 $55 $56 $29 $-1 $57 forward single #
face $-1 $58 $59 $30 $-1 $60 forward single #
face $-1 $61 $62 $31 $-1 $63 forward single #
face $-1 $64 $65 $24 $-1 $66 reversed single #
loop $-1 $-1 $67 $32 #
plane-surface $-1 0 0 15.9305664829474 0 0 1 1 0 0 forward_v I I I I #
face $-1 $68 $69 $25 $-1 $70 reversed single #
loop $-1 $-1 $71 $33 #
plane-surface $-1 -53.047180823148054 -10.256540032374959 0 0 1 0 0 0 1 forward_v I I I I #
face $-1 $72 $73 $26 $-1 $74 reversed single #
loop $-1 $-1 $75 $34 #
plane-surface $-1 -12.958099758262648 94.650726650066431 125.53844357012733 1 0 0 0 -0.82903758062907751 -0.55919289150049634 forward_v I I I I #
face $-1 $76 $77 $27 $-1 $78 forward single #
loop $-1 $79 $80 $35 #
cone-surface $-1 -4.7946911672801349 24.75734299787932 7.0854702971167907 0 -0.82903758062907751 -0.55919289150049634 3 0 0 1 I I 0 1 3 forward I I I I #
face $-1 $81 $82 $28 $-1 $83 reversed single #
loop $-1 $-1 $84 $36 #
plane-surface $-1 50.009393681889421 -33.111334163029085 6.3695874996567738 0 -0.68199836817093118 0.7313536940579346 1 0 0 forward_v I I I I #
face $-1 $85 $86 $29 $-1 $87 forward single #
loop $-1 $88 $89 $37 #
cone-surface $-1 44.345728459704972 -27.087738648425795 10.188003269915543 0 0.68199836817093118 -0.7313536940579346 1.5 0 0 1 I I 0 1 1.5 forward I I I I #
face $-1 $90 $91 $30 $-1 $92 forward single #
loop $-1 $93 $94 $38 #
cone-surface $-1 50.009393681889421 -27.087738648425795 10.188003269915543 0 0.68199836817093118 -0.7313536940579346 1.5 0 0 1 I I 0 1 1.5 forward I I I I #
face $-1 $95 $96 $31 $-1 $97 forward single #
loop $-1 $98 $99 $39 #
cone-surface $-1 55.673058904073869 -27.087738648425795 10.188003269915543 0 0.68199836817093118 -0.7313536940579346 1.5 0 0 1 I I 0 1 1.5 forward I I I I #
face $-1 $100 $101 $24 $-1 $102 reversed single #
loop $-1 $-1 $103 $40 #
plane-surface $-1 0 0 -15.9305664829474 0 0 1 1 0 0 forward_v I I I I #
coedge $-1 $104 $105 $106 $107 forward $41 $-1 #
face $-1 $108 $109 $25 $-1 $110 reversed single #
loop $-1 $-1 $111 $43 #
plane-surface $-1 -53.047180823148054 -3.0670496598498698 0 0 -1 0 0 0 -1 forward_v I I I I #
coedge $-1 $112 $113 $114 $115 reversed $44 $-1 #
face $-1 $116 $117 $26 $-1 $118 reversed single #
loop $-1 $-1 $119 $46 #
plane-surface $-1 -4.7946911672801349 -3.9199112210977205 59.0517108861888 0 0.82903758062907751 0.55919289150049634 1 0 0 forward_v I I I I #
coedge $-1 $120 $121 $122 $123 reversed $47 $-1 #
face $-1 $-1 $124 $27 $-1 $125 forward single #
loop $-1 $126 $127 $49 #
cone-surface $-1 -4.7946911672801349 19.132629028800324 3.2915529383333091 0 -0.82903758062907751 -0.55919289150049634 1.5 0 0 1 I I -0.70710678118654757 0.70710678118654757 1.5 forward I I I I #
loop $-1 $-1 $128 $35 #
coedge $-1 $80 $80 $129 $130 reversed $50 $-1 #
face $-1 $131 $132 $28 $-1 $133 reversed single #
loop $-1 $-1 $134 $52 #
plane-surface $-1 40.569951644915349 -114.19935206288243 93.325838720524985 1 0 0 0 0.68199836817093118 -0.7313536940579346 forward_v I I I I #
coedge $-1 $135 $136 $137 $138 reversed $53 $-1 #
face $-1 $-1 $139 $29 $-1 $140 forward single #
loop $-1 $141 $142 $55 #
cone-surface $-1 44.345728459704972 -25.6790915931863 8.6774142779855357 0 0.68199836817093118 -0.7313536940579346 0.75 0 0 1 I I -0.70710678118654757 0.70710678118654757 0.75 forward I I I I #
loop $-1 $-1 $143 $37 #
coedge $-1 $89 $89 $144 $145 reversed $56 $-1 #
face $-1 $-1 $146 $30 $-1 $147 forward single #
loop $-1 $148 $149 $58 #
cone-surface $-1 50.009393681889421 -25.6790915931863 8.6774142779855357 0 0.68199836817093118 -0.7313536940579346 0.75 0 0 1 I I -0.70710678118654757 0.70710678118654757 0.75 forward I I I I #
loop $-1 $-1 $150 $38 #
coedge $-1 $94 $94 $151 $152 reversed $59 $-1 #
face $-1 $-1 $153 $31 $-1 $154 forward single #
loop $-1 $155 $156 $61 #
cone-surface $-1 55.673058904073869 -25.6790915931863 8.6774142779855357 0 0.68199836817093118 -0.7313536940579346 0.75 0 0 1 I I -0.70710678118654757 0.70710678118654757 0.75 forward I I I I #
loop $-1 $-1 $157 $39 #
coedge $-1 $99 $99 $158 $159 reversed $62 $-1 #
face $-1 $160 $161 $24 $-1 $162 reversed single #
loop $-1 $-1 $163 $64 #
plane-surface $-1 0 -33.111334163029099 0 0 1 0 0 0 1 forward_v I I I I #
coedge $-1 $164 $165 $166 $167 forward $65 $-1 #
coedge $-1 $168 $67 $169 $170 forward $41 $-1 #
coedge $-1 $67 $168 $171 $172 forward $41 $-1 #
coedge $-1 $173 $174 $67 $107 reversed $175 $-1 #
edge $-1 $176 -33.111334163029099 $177 33.111334163029099 $106 $178 forward 7 unknown #
face $-1 $179 $180 $25 $-1 $181 reversed single #
loop $-1 $-1 $182 $68 #
plane-surface $-1 -46.645525927432615 -6.6617948461124143 0 -1 0 0 0 0 1 forward_v I I I I #
coedge $-1 $183 $184 $185 $186 forward $69 $-1 #
coedge $-1 $187 $71 $188 $189 reversed $44 $-1 #
coedge $-1 $71 $187 $190 $191 reversed $44 $-1 #
coedge $-1 $192 $193 $71 $115 forward $194 $-1 #
edge $-1 $195 -15.9305664829474 $196 15.9305664829474 $114 $197 forward 7 unknown #
face $-1 $198 $199 $26 $-1 $200 reversed single #
loop $-1 $-1 $201 $72 #
plane-surface $-1 3.3687174237023783 94.650726650066431 125.53844357012733 -1 0 0 0 0.82903758062907751 0.55919289150049634 forward_v I I I I #
coedge $-1 $202 $203 $204 $205 reversed $73 $-1 #
coedge $-1 $121 $75 $206 $207 reversed $47 $-1 #
coedge $-1 $75 $120 $202 $208 reversed $47 $-1 #
coedge $-1 $204 $209 $75 $123 forward $210 $-1 #
edge $-1 $211 14.214029162004117 $212 22.159696296032887 $122 $213 forward 7 unknown #
loop $-1 $-1 $129 $76 #
plane-surface $-1 -4.7946911672801349 -3.9199112210977205 59.0517108861888 0 0.82903758062907751 0.55919289150049634 1 0 0 forward_v I I I I #
loop $-1 $-1 $214 $49 #
coedge $-1 $127 $127 $128 $215 reversed $77 $-1 #
coedge $-1 $128 $128 $127 $215 forward $79 $-1 #
coedge $-1 $129 $129 $80 $130 forward $124 $-1 #
edge $-1 $216 -2.309679942808652e-017 $216 6.2831853071796004 $129 $217 forward 7 unknown #
face $-1 $218 $219 $28 $-1 $220 forward single #
loop $-1 $-1 $221 $81 #
plane-surface $-1 0 -33.111334163029099 0 0 1 0 0 0 1 forward_v I I I I #
coedge $-1 $222 $223 $224 $225 reversed $82 $-1 #
coedge $-1 $226 $84 $227 $228 reversed $53 $-1 #
coedge $-1 $84 $226 $222 $229 forward $53 $-1 #
coedge $-1 $224 $230 $84 $138 forward $219 $-1 #
edge $-1 $231 -34.444138877918782 $232 -15.565254803970639 $137 $233 forward 7 unknown #
loop $-1 $-1 $144 $85 #
plane-surface $-1 50.009393681889421 -33.111334163029085 6.3695874996567738 0 -0.68199836817093118 0.7313536940579346 1 0 0 forward_v I I I I #
loop $-1 $-1 $234 $55 #
coedge $-1 $142 $142 $143 $235 reversed $86 $-1 #
coedge $-1 $143 $143 $142 $235 forward $88 $-1 #
coedge $-1 $144 $144 $89 $145 forward $139 $-1 #
edge $-1 $236 1.1477090439458896e-015 $236 6.2831853071796013 $144 $237 forward 7 unknown #
loop $-1 $-1 $151 $90 #
plane-surface $-1 50.009393681889421 -33.111334163029085 6.3695874996567738 0 -0.68199836817093118 0.7313536940579346 1 0 0 forward_v I I I I #
loop $-1 $-1 $238 $58 #
coedge $-1 $149 $149 $150 $239 reversed $91 $-1 #
coedge $-1 $150 $150 $149 $239 forward $93 $-1 #
coedge $-1 $151 $151 $94 $152 forward $146 $-1 #
edge $-1 $240 1.1477090439458896e-015 $240 6.2831853071796013 $151 $241 forward 7 unknown #
loop $-1 $-1 $158 $95 #
plane-surface $-1 50.009393681889421 -33.111334163029085 6.3695874996567738 0 -0.68199836817093118 0.7313536940579346 1 0 0 forward_v I I I I #
loop $-1 $-1 $242 $61 #
coedge $-1 $156 $156 $157 $243 reversed $96 $-1 #
coedge $-1 $157 $157 $156 $243 forward $98 $-1 #
coedge $-1 $158 $158 $99 $159 forward $153 $-1 #
edge $-1 $244 1.1477090439458896e-015 $244 6.2831853071796013 $158 $245 forward 7 unknown #
face $-1 $246 $247 $24 $-1 $248 reversed single #
loop $-1 $-1 $249 $100 #
plane-surface $-1 -59.448835718863492 0 0 1 0 0 0 0 -1 forward_v I I I I #
coedge $-1 $250 $171 $251 $252 forward $101 $-1 #
coedge $-1 $253 $103 $250 $254 forward $65 $-1 #
coedge $-1 $103 $253 $255 $256 forward $65 $-1 #
coedge $-1 $174 $173 $103 $167 reversed $175 $-1 #
edge $-1 $257 -33.111334163029099 $258 33.111334163029099 $166 $259 forward 7 unknown #
coedge $-1 $105 $104 $260 $261 forward $41 $-1 #
coedge $-1 $262 $263 $104 $170 reversed $247 $-1 #
edge $-1 $177 -59.448835718863492 $264 59.448835718863492 $169 $265 forward 7 unknown #
coedge $-1 $163 $266 $105 $172 reversed $101 $-1 #
edge $-1 $267 -59.448835718863492 $176 59.448835718863492 $171 $268 forward 7 unknown #
coedge $-1 $166 $106 $266 $269 forward $175 $-1 #
coedge $-1 $106 $166 $262 $270 reversed $175 $-1 #
loop $-1 $-1 $173 $246 #
vertex $-1 $107 $271 #
vertex $-1 $107 $272 #
straight-curve $-1 59.448835718863492 0 15.9305664829474 0 1 0 I I #
face $-1 $273 $274 $25 $-1 $275 forward single #
loop $-1 $-1 $276 $108 #
plane-surface $-1 0 0 -15.9305664829474 0 0 1 1 0 0 forward_v I I I I #
coedge $-1 $277 $278 $187 $279 forward $109 $-1 #
coedge $-1 $280 $111 $276 $281 reversed $69 $-1 #
coedge $-1 $111 $280 $282 $283 reversed $69 $-1 #
coedge $-1 $278 $277 $111 $186 reversed $109 $-1 #
edge $-1 $284 -15.9305664829474 $285 15.9305664829474 $185 $286 forward 7 unknown #
coedge $-1 $113 $112 $182 $279 reversed $44 $-1 #
coedge $-1 $287 $288 $112 $189 forward $180 $-1 #
edge $-1 $289 20.121935515858588 $195 32.925245307289465 $188 $290 forward 7 unknown #
coedge $-1 $291 $292 $113 $191 forward $274 $-1 #
edge $-1 $196 -32.925245307289465 $293 -20.121935515858588 $190 $294 forward 7 unknown #
coedge $-1 $295 $114 $292 $296 reversed $194 $-1 #
coedge $-1 $114 $295 $287 $297 reversed $194 $-1 #
loop $-1 $-1 $295 $273 #
vertex $-1 $297 $298 #
vertex $-1 $115 $299 #
straight-curve $-1 -59.448835718863492 -10.256540032374959 0 0 0 1 I I #
face $-1 $-1 $210 $26 $-1 $300 forward single #
loop $-1 $-1 $301 $116 #
plane-surface $-1 0 33.111334163029099 0 0 -1 0 0 0 -1 forward_v I I I I #
coedge $-1 $302 $303 $304 $305 reversed $117 $-1 #
coedge $-1 $306 $119 $121 $208 forward $73 $-1 #
coedge $-1 $119 $306 $302 $307 forward $73 $-1 #
coedge $-1 $304 $122 $119 $205 forward $210 $-1 #
edge $-1 $212 -10.560754174622581 $308 5.7660630073424457 $204 $309 forward 7 unknown #
coedge $-1 $310 $311 $120 $207 forward $199 $-1 #
edge $-1 $312 -58.618591630711997 $211 -46.838655302116265 $206 $313 forward 7 unknown #
edge $-1 $212 52.013497832656611 $312 66.222668326058198 $121 $314 forward 7 unknown #
coedge $-1 $122 $304 $310 $315 forward $210 $-1 #
loop $-1 $-1 $304 $198 #
vertex $-1 $207 $316 #
vertex $-1 $123 $317 #
straight-curve $-1 -12.958099758262648 47.325363325033216 15.930566482947398 0 -1 0 I I #
coedge $-1 $214 $214 $-1 $318 reversed $126 $-1 #
edge $-1 $319 0 $319 6.2831853071796004 $127 $320 forward 7 unknown #
vertex $-1 $130 $321 #
ellipse-curve $-1 -4.7946911672801349 29.138500596014712 10.040598318649536 0 0.82903758062907751 0.55919289150049634 3 0 0 1 I I #
face $-1 $-1 $322 $28 $-1 $323 reversed single #
loop $-1 $-1 $224 $131 #
plane-surface $-1 0 0 15.9305664829474 0 0 1 1 0 0 forward_v I I I I #
coedge $-1 $324 $325 $223 $326 forward $132 $-1 #
coedge $-1 $223 $134 $136 $229 reversed $82 $-1 #
coedge $-1 $134 $222 $221 $326 reversed $82 $-1 #
coedge $-1 $327 $137 $134 $225 forward $219 $-1 #
edge $-1 $232 -34.241236339396167 $328 -23.988341868412114 $224 $329 forward 7 unknown #
coedge $-1 $136 $135 $324 $330 reversed $53 $-1 #
coedge $-1 $331 $332 $135 $228 forward $322 $-1 #
edge $-1 $333 -9.9360241373150835 $231 4.0830401735460606 $227 $334 forward 7 unknown #
edge $-1 $335 -1.9479204584885432e-014 $232 14.019064310861122 $222 $336 forward 7 unknown #
coedge $-1 $137 $327 $331 $337 forward $219 $-1 #
vertex $-1 $228 $338 #
vertex $-1 $138 $339 #
straight-curve $-1 25.00469684094471 -22.858439692045049 15.9305664829474 -1 0 0 I I #
coedge $-1 $234 $234 $-1 $340 reversed $141 $-1 #
edge $-1 $341 0 $341 6.2831853071796004 $142 $342 forward 7 unknown #
vertex $-1 $145 $343 #
ellipse-curve $-1 44.345728459704972 -27.984886927537076 11.150076991302079 0 -0.68199836817093118 0.7313536940579346 1.5 0 0 1 I I #
coedge $-1 $238 $238 $-1 $344 reversed $148 $-1 #
edge $-1 $345 0 $345 6.2831853071796004 $149 $346 forward 7 unknown #
vertex $-1 $152 $347 #
ellipse-curve $-1 50.009393681889421 -27.984886927537076 11.150076991302079 0 -0.68199836817093118 0.7313536940579346 1.5 0 0 1 I I #
coedge $-1 $242 $242 $-1 $348 reversed $155 $-1 #
edge $-1 $349 0 $349 6.2831853071796004 $156 $350 forward 7 unknown #
vertex $-1 $159 $351 #
ellipse-curve $-1 55.673058904073869 -27.984886927537076 11.150076991302079 0 -0.68199836817093118 0.7313536940579346 1.5 0 0 1 I I #
face $-1 $-1 $175 $24 $-1 $352 reversed single #
loop $-1 $-1 $262 $160 #
plane-surface $-1 0 33.111334163029099 0 0 -1 0 0 0 -1 forward_v I I I I #
coedge $-1 $353 $260 $263 $354 forward $161 $-1 #
coedge $-1 $266 $163 $164 $254 reversed $101 $-1 #
coedge $-1 $260 $353 $163 $252 reversed $161 $-1 #
edge $-1 $267 -15.9305664829474 $355 15.9305664829474 $251 $356 forward 7 unknown #
coedge $-1 $165 $164 $353 $357 forward $65 $-1 #
edge $-1 $258 -59.448835718863492 $355 59.448835718863492 $250 $358 forward 7 unknown #
coedge $-1 $263 $262 $165 $256 reversed $247 $-1 #
edge $-1 $359 -59.448835718863492 $257 59.448835718863492 $255 $360 forward 7 unknown #
vertex $-1 $167 $361 #
vertex $-1 $269 $362 #
straight-curve $-1 59.448835718863492 0 -15.9305664829474 0 -1 0 I I #
coedge $-1 $249 $251 $168 $261 reversed $161 $-1 #
edge $-1 $264 -33.111334163029099 $267 33.111334163029099 $260 $363 forward 7 unknown #
coedge $-1 $255 $169 $174 $270 forward $247 $-1 #
coedge $-1 $169 $255 $249 $354 reversed $247 $-1 #
vertex $-1 $170 $364 #
straight-curve $-1 0 33.111334163029099 15.9305664829474 -1 0 0 I I #
coedge $-1 $171 $250 $173 $269 reversed $101 $-1 #
vertex $-1 $261 $365 #
straight-curve $-1 0 -33.111334163029099 15.9305664829474 1 0 0 I I #
edge $-1 $176 -15.9305664829474 $258 15.9305664829474 $173 $366 forward 7 unknown #
edge $-1 $177 -15.9305664829474 $257 15.9305664829474 $174 $367 forward 7 unknown #
point $-1 59.448835718863492 -33.111334163029099 15.9305664829474 #
point $-1 59.448835718863492 33.111334163029099 15.9305664829474 #
face $-1 $-1 $194 $25 $-1 $368 reversed single #
loop $-1 $-1 $282 $179 #
plane-surface $-1 0 0 15.9305664829474 0 0 1 1 0 0 forward_v I I I I #
coedge $-1 $288 $287 $183 $281 forward $180 $-1 #
coedge $-1 $185 $182 $288 $369 reversed $109 $-1 #
coedge $-1 $182 $185 $291 $370 reversed $109 $-1 #
edge $-1 $293 -15.9305664829474 $289 15.9305664829474 $182 $371 forward 7 unknown #
coedge $-1 $184 $183 $295 $372 reversed $69 $-1 #
edge $-1 $373 -32.925245307289465 $285 -20.121935515858588 $276 $374 forward 7 unknown #
coedge $-1 $292 $291 $184 $283 forward $274 $-1 #
edge $-1 $284 20.121935515858588 $375 32.925245307289465 $282 $376 forward 7 unknown #
vertex $-1 $283 $377 #
vertex $-1 $281 $378 #
straight-curve $-1 -46.645525927432615 -3.0670496598498698 0 0 0 -1 I I #
coedge $-1 $276 $188 $193 $297 forward $180 $-1 #
coedge $-1 $188 $276 $277 $369 forward $180 $-1 #
vertex $-1 $189 $379 #
straight-curve $-1 -26.523590411574027 -10.256540032374959 -15.9305664829474 -1 0 0 I I #
coedge $-1 $282 $190 $278 $370 forward $274 $-1 #
coedge $-1 $190 $282 $192 $296 forward $274 $-1 #
vertex $-1 $191 $380 #
straight-curve $-1 -26.523590411574027 -10.256540032374959 15.9305664829474 1 0 0 I I #
coedge $-1 $193 $192 $280 $372 forward $194 $-1 #
edge $-1 $375 3.0670496598498698 $196 10.256540032374959 $192 $381 forward 7 unknown #
edge $-1 $195 -10.256540032374959 $373 -3.0670496598498698 $193 $382 forward 7 unknown #
point $-1 -59.448835718863492 -10.256540032374959 -15.9305664829474 #
point $-1 -59.448835718863492 -10.256540032374959 15.9305664829474 #
plane-surface $-1 0 0 15.9305664829474 0 0 1 1 0 0 forward_v I I I I #
coedge $-1 $311 $310 $303 $383 forward $199 $-1 #
coedge $-1 $303 $201 $203 $307 reversed $117 $-1 #
coedge $-1 $201 $302 $301 $383 reversed $117 $-1 #
coedge $-1 $209 $204 $201 $305 forward $210 $-1 #
edge $-1 $308 -22.159696296032887 $384 -14.214029162004117 $304 $385 forward 7 unknown #
coedge $-1 $203 $202 $311 $386 reversed $73 $-1 #
edge $-1 $387 -66.222668326058198 $308 -52.013497832656611 $302 $388 forward 7 unknown #
vertex $-1 $205 $389 #
straight-curve $-1 -2.3973455836400674 25.165667029000332 15.930566482947398 1 0 0 I I #
coedge $-1 $301 $206 $209 $315 reversed $199 $-1 #
coedge $-1 $206 $301 $306 $386 forward $199 $-1 #
vertex $-1 $207 $390 #
straight-curve $-1 -12.958099758262648 33.111334163029099 62.769221785063664 0 0 1 I I #
straight-curve $-1 -12.958099758262648 -3.9199112210977205 59.0517108861888 0 0.55919289150049634 -0.82903758062907751 I I #
edge $-1 $384 -3.3687174237023783 $211 12.958099758262648 $310 $391 forward 7 unknown #
point $-1 -12.958099758262648 33.111334163029099 15.9305664829474 #
point $-1 -12.958099758262648 25.165667029000328 15.930566482947398 #
edge $-1 $392 1 $392 0 $214 $-1 forward 7 unknown #
vertex $-1 $215 $393 #
ellipse-curve $-1 -4.7946911672801349 20.376185399743939 4.130342275584054 0 0.82903758062907751 0.55919289150049634 3 0 0 1 I I #
point $-1 -1.7946911672801349 29.138500596014701 10.040598318649529 #
loop $-1 $-1 $227 $218 #
plane-surface $-1 59.448835718863492 0 0 -1 0 0 0 0 1 forward_v I I I I #
coedge $-1 $394 $221 $226 $330 forward $132 $-1 #
coedge $-1 $221 $394 $327 $395 reversed $132 $-1 #
edge $-1 $328 30.732352877315094 $335 40.293331860605733 $221 $396 forward 7 unknown #
coedge $-1 $230 $224 $325 $395 forward $219 $-1 #
vertex $-1 $395 $397 #
straight-curve $-1 40.569951644915349 -57.099676031441213 15.930566482947398 0 -1 0 I I #
edge $-1 $335 15.565254803970639 $333 34.444138877918782 $324 $398 forward 7 unknown #
coedge $-1 $332 $227 $230 $337 reversed $322 $-1 #
coedge $-1 $227 $331 $394 $399 forward $322 $-1 #
vertex $-1 $330 $400 #
straight-curve $-1 59.448835718863492 -25.844586205954911 13.145939747412632 0 0.7313536940579346 0.68199836817093118 I I #
vertex $-1 $330 $401 #
straight-curve $-1 40.569951644915349 -33.111334163029085 6.3695874996567738 0 0.7313536940579346 0.68199836817093118 I I #
edge $-1 $402 -33.111334163029099 $231 -22.858439692045049 $331 $403 forward 7 unknown #
point $-1 59.448835718863492 -22.858439692045049 15.9305664829474 #
point $-1 40.569951644915349 -22.858439692045049 15.9305664829474 #
edge $-1 $404 1 $404 0 $234 $-1 forward 7 unknown #
vertex $-1 $235 $405 #
ellipse-curve $-1 44.345728459704972 -26.190590369314499 9.2259295485289865 0 -0.68199836817093118 0.7313536940579346 1.5 0 0 1 I I #
point $-1 45.845728459704972 -27.98488692753709 11.150076991302097 #
edge $-1 $406 1 $406 0 $238 $-1 forward 7 unknown #
vertex $-1 $239 $407 #
ellipse-curve $-1 50.009393681889421 -26.190590369314499 9.2259295485289865 0 -0.68199836817093118 0.7313536940579346 1.5 0 0 1 I I #
point $-1 51.509393681889421 -27.98488692753709 11.150076991302097 #
edge $-1 $408 1 $408 0 $242 $-1 forward 7 unknown #
vertex $-1 $243 $409 #
ellipse-curve $-1 55.673058904073869 -26.190590369314499 9.2259295485289865 0 -0.68199836817093118 0.7313536940579346 1.5 0 0 1 I I #
point $-1 57.173058904073869 -27.98488692753709 11.150076991302097 #
plane-surface $-1 59.448835718863492 0 0 -1 0 0 0 0 1 forward_v I I I I #
coedge $-1 $251 $249 $253 $357 reversed $161 $-1 #
edge $-1 $264 -15.9305664829474 $359 15.9305664829474 $263 $410 forward 7 unknown #
vertex $-1 $357 $411 #
straight-curve $-1 -59.448835718863492 -33.111334163029099 0 0 0 -1 I I #
edge $-1 $355 -33.111334163029099 $359 33.111334163029099 $353 $412 forward 7 unknown #
straight-curve $-1 0 -33.111334163029099 -15.9305664829474 -1 0 0 I I #
vertex $-1 $256 $413 #
straight-curve $-1 0 33.111334163029099 -15.9305664829474 1 0 0 I I #
point $-1 59.448835718863492 33.111334163029099 -15.9305664829474 #
point $-1 59.448835718863492 -33.111334163029099 -15.9305664829474 #
straight-curve $-1 -59.448835718863492 0 15.9305664829474 0 -1 0 I I #
point $-1 -59.448835718863492 33.111334163029099 15.9305664829474 #
point $-1 -59.448835718863492 -33.111334163029099 15.9305664829474 #
straight-curve $-1 59.448835718863492 -33.111334163029099 0 0 0 -1 I I #
straight-curve $-1 59.448835718863492 33.111334163029099 0 0 0 -1 I I #
plane-surface $-1 -59.448835718863492 0 0 1 0 0 0 0 -1 forward_v I I I I #
edge $-1 $285 -0.2638477632063374 $289 6.9256426093187518 $288 $414 forward 7 unknown #
edge $-1 $293 -6.9256426093187518 $284 0.2638477632063374 $291 $415 forward 7 unknown #
straight-curve $-1 -46.645525927432615 -10.256540032374959 0 0 0 -1 I I #
edge $-1 $375 -15.9305664829474 $373 15.9305664829474 $295 $416 forward 7 unknown #
vertex $-1 $372 $417 #
straight-curve $-1 -26.523590411574027 -3.0670496598498698 -15.9305664829474 1 0 0 I I #
vertex $-1 $296 $418 #
straight-curve $-1 -26.523590411574027 -3.0670496598498698 15.9305664829474 -1 0 0 I I #
point $-1 -46.645525927432615 -3.0670496598498698 15.9305664829474 #
point $-1 -46.645525927432615 -3.0670496598498698 -15.9305664829474 #
point $-1 -46.645525927432615 -10.256540032374959 -15.9305664829474 #
point $-1 -46.645525927432615 -10.256540032374959 15.9305664829474 #
straight-curve $-1 -59.448835718863492 0 15.9305664829474 0 -1 0 I I #
straight-curve $-1 -59.448835718863492 0 -15.9305664829474 0 1 0 I I #
edge $-1 $384 46.838655302116265 $387 58.618591630711997 $301 $419 forward 7 unknown #
vertex $-1 $315 $420 #
straight-curve $-1 3.3687174237023783 47.325363325033216 15.930566482947398 0 1 0 I I #
edge $-1 $387 -5.7660630073424457 $312 10.560754174622581 $311 $421 forward 7 unknown #
vertex $-1 $386 $422 #
straight-curve $-1 3.3687174237023783 -3.9199112210977205 59.0517108861888 0 -0.55919289150049634 0.82903758062907751 I I #
point $-1 3.3687174237023783 25.165667029000328 15.930566482947398 #
point $-1 -12.958099758262648 33.111334163029099 4.150630154351667 #
straight-curve $-1 0 33.111334163029099 15.9305664829474 -1 0 0 I I #
vertex $-1 $318 $423 #
point $-1 -1.7946911672801349 20.376185399743939 4.130342275584054 #
coedge $-1 $325 $324 $332 $399 reversed $132 $-1 #
edge $-1 $328 40.569951644915349 $402 59.448835718863492 $325 $424 forward 7 unknown #
straight-curve $-1 40.569951644915349 -33.111334163029099 46.662919360262492 0 0 -1 I I #
point $-1 40.569951644915349 -33.111334163029099 15.9305664829474 #
straight-curve $-1 25.00469684094471 -33.111334163029099 6.3695874996567614 1 0 0 I I #
edge $-1 $402 -15.9305664829474 $333 -6.3695874996567605 $332 $425 forward 7 unknown #
point $-1 59.448835718863492 -33.111334163029099 6.3695874996567605 #
point $-1 40.569951644915349 -33.111334163029099 6.3695874996567605 #
vertex $-1 $337 $426 #
straight-curve $-1 59.448835718863492 0 15.9305664829474 0 1 0 I I #
vertex $-1 $340 $427 #
point $-1 45.845728459704972 -26.190590369314499 9.2259295485289865 #
vertex $-1 $344 $428 #
point $-1 51.509393681889421 -26.190590369314499 9.2259295485289865 #
vertex $-1 $348 $429 #
point $-1 57.173058904073869 -26.190590369314499 9.2259295485289865 #
straight-curve $-1 -59.448835718863492 33.111334163029099 0 0 0 -1 I I #
point $-1 -59.448835718863492 -33.111334163029099 -15.9305664829474 #
straight-curve $-1 -59.448835718863492 0 -15.9305664829474 0 1 0 I I #
point $-1 -59.448835718863492 33.111334163029099 -15.9305664829474 #
straight-curve $-1 -46.645525927432615 -3.3308974230562072 -15.9305664829474 0 -1 0 I I #
straight-curve $-1 -46.645525927432615 -3.3308974230562072 15.9305664829474 0 1 0 I I #
straight-curve $-1 -59.448835718863492 -3.0670496598498698 0 0 0 -1 I I #
point $-1 -59.448835718863492 -3.0670496598498698 -15.9305664829474 #
point $-1 -59.448835718863492 -3.0670496598498698 15.9305664829474 #
straight-curve $-1 3.3687174237023783 33.111334163029099 62.769221785063664 0 0 -1 I I #
point $-1 3.3687174237023783 33.111334163029099 15.9305664829474 #
straight-curve $-1 -2.3973455836400674 33.111334163029099 4.150630154351667 -1 0 0 I I #
point $-1 3.3687174237023783 33.111334163029099 4.150630154351667 #
point $-1 -4.7946911672801349 17.889072657856708 2.4527636010825646 #
straight-curve $-1 0 -33.111334163029099 15.9305664829474 1 0 0 I I #
straight-curve $-1 59.448835718863492 -33.111334163029099 0 0 0 -1 I I #
point $-1 59.448835718863492 -33.111334163029099 15.9305664829474 #
point $-1 44.345728459704972 -25.1675928170581 8.1288990074420848 #
point $-1 50.009393681889421 -25.1675928170581 8.1288990074420848 #
point $-1 55.673058904073869 -25.1675928170581 8.1288990074420848 #
End-of-ACIS-data 