500 0 10 0           
7 Unknown 11 ACIS 5.0 NT 24 Fri Mar 26 00:27:26 1999 
-1 9.9999999999999995e-007 1e-010 
body $-1 $10 $-1 $11 #
body $-1 $12 $-1 $13 #
body $-1 $14 $-1 $15 #
body $-1 $16 $-1 $17 #
body $-1 $18 $-1 $19 #
body $-1 $20 $-1 $21 #
body $-1 $22 $-1 $23 #
body $-1 $24 $-1 $25 #
body $-1 $26 $-1 $27 #
body $-1 $28 $-1 $29 #
lump $-1 $-1 $30 $0 #
transform $-1 1 0 0 0 1 0 0 0 1 78.026062807092501 45.374988006277931 10.059989482381887 1 rotate no_reflect no_shear #
lump $-1 $-1 $31 $1 #
transform $-1 1 0 0 0 1 0 0 0 1 78.026062807092501 45.374988006277931 10.059989482381887 1 rotate no_reflect no_shear #
lump $-1 $-1 $32 $2 #
transform $-1 1 0 0 0 1 0 0 0 1 78.026062807092501 45.374988006277931 10.059989482381887 1 rotate no_reflect no_shear #
lump $-1 $-1 $33 $3 #
transform $-1 1 0 0 0 1 0 0 0 1 78.026062807092501 45.374988006277931 10.059989482381887 1 rotate no_reflect no_shear #
lump $-1 $-1 $34 $4 #
transform $-1 1 0 0 0 1 0 0 0 1 78.026062807092501 45.374988006277931 10.059989482381887 1 rotate no_reflect no_shear #
lump $-1 $-1 $35 $5 #
transform $-1 1 0 0 0 1 0 0 0 1 78.026062807092501 45.374988006277931 10.059989482381887 1 rotate no_reflect no_shear #
lump $-1 $-1 $36 $6 #
transform $-1 1 0 0 0 1 0 0 0 1 78.026062807092501 45.374988006277931 10.059989482381887 1 rotate no_reflect no_shear #
lump $-1 $-1 $37 $7 #
transform $-1 1 0 0 0 1 0 0 0 1 78.026062807092501 45.374988006277931 10.059989482381887 1 rotate no_reflect no_shear #
lump $-1 $-1 $38 $8 #
transform $-1 1 0 0 0 1 0 0 0 1 78.026062807092501 45.374988006277931 10.059989482381887 1 rotate no_reflect no_shear #
lump $-1 $-1 $39 $9 #
transform $-1 1 0 0 0 1 0 0 0 1 78.026062807092501 45.374988006277931 10.059989482381887 1 rotate no_reflect no_shear #
shell $-1 $-1 $-1 $40 $-1 $10 #
shell $-1 $-1 $-1 $41 $-1 $12 #
shell $-1 $-1 $-1 $42 $-1 $14 #
shell $-1 $-1 $-1 $43 $-1 $16 #
shell $-1 $-1 $-1 $44 $-1 $18 #
shell $-1 $-1 $-1 $45 $-1 $20 #
shell $-1 $-1 $-1 $46 $-1 $22 #
shell $-1 $-1 $-1 $47 $-1 $24 #
shell $-1 $-1 $-1 $48 $-1 $26 #
shell $-1 $-1 $-1 $49 $-1 $28 #
face $-1 $50 $51 $30 $-1 $52 forward single #
face $-1 $53 $54 $31 $-1 $55 forward single #
face $-1 $56 $57 $32 $-1 $58 reversed single #
face $-1 $59 $60 $33 $-1 $61 forward single #
face $-1 $62 $63 $34 $-1 $64 forward single #
face $-1 $65 $66 $35 $-1 $67 forward single #
face $-1 $68 $69 $36 $-1 $70 reversed single #
face $-1 $71 $72 $37 $-1 $73 forward single #
face $-1 $74 $75 $38 $-1 $76 forward single #
face $-1 $77 $78 $39 $-1 $79 forward single #
face $-1 $80 $81 $30 $-1 $82 reversed single #
loop $-1 $-1 $83 $40 #
plane-surface $-1 0 0 10.059989482381887 0 0 1 1 0 0 forward_v I I I I #
face $-1 $84 $85 $31 $-1 $86 reversed single #
loop $-1 $-1 $87 $41 #
plane-surface $-1 -72.465578389498077 0 8.9017228370121302 0 0 1 1 0 0 forward_v I I I I #
face $-1 $88 $89 $32 $-1 $90 reversed single #
loop $-1 $-1 $91 $42 #
plane-surface $-1 61.704444665969618 54.257734723456579 184.23122369564933 1 0 0 0 -0.54463904215088732 -0.83867056331134215 forward_v I I I I #
face $-1 $92 $93 $33 $-1 $94 forward single #
loop $-1 $95 $96 $43 #
cone-surface $-1 64.968768294194206 39.703400209525199 5.5299228337298842 0 -0.54463904215088732 -0.83867056331134215 1 0 0 1 I I 0 1 1 forward I I I I #
face $-1 $97 $98 $34 $-1 $99 forward single #
loop $-1 $100 $101 $44 #
cone-surface $-1 69.865253736531088 39.703400209525199 5.5299228337298842 0 -0.54463904215088732 -0.83867056331134215 1 0 0 1 I I 0 1 1 forward I I I I #
face $-1 $102 $103 $35 $-1 $104 forward single #
loop $-1 $105 $106 $45 #
cone-surface $-1 74.76173917886797 39.703400209525199 5.5299228337298842 0 -0.54463904215088732 -0.83867056331134215 1 0 0 1 I I 0 1 1 forward I I I I #
face $-1 $107 $108 $36 $-1 $109 reversed single #
loop $-1 $-1 $110 $46 #
plane-surface $-1 69.865253736531059 -45.374988006277903 3.928919590174047 0 -0.54463904215088732 0.83867056331134215 1 0 0 forward_v I I I I #
face $-1 $111 $112 $37 $-1 $113 forward single #
loop $-1 $114 $115 $47 #
cone-surface $-1 64.968768294194206 -39.703400209525213 5.529922833729886 0 0.54463904215088732 -0.83867056331134215 1 0 0 1 I I 0 1 1 forward I I I I #
face $-1 $116 $117 $38 $-1 $118 forward single #
loop $-1 $119 $120 $48 #
cone-surface $-1 69.865253736531088 -39.703400209525213 5.529922833729886 0 0.54463904215088732 -0.83867056331134215 1 0 0 1 I I 0 1 1 forward I I I I #
face $-1 $121 $122 $39 $-1 $123 forward single #
loop $-1 $124 $125 $49 #
cone-surface $-1 74.76173917886797 -39.703400209525213 5.529922833729886 0 0.54463904215088732 -0.83867056331134215 1 0 0 1 I I 0 1 1 forward I I I I #
face $-1 $126 $127 $30 $-1 $128 reversed single #
loop $-1 $-1 $129 $50 #
plane-surface $-1 0 0 -10.059989482381887 0 0 1 1 0 0 forward_v I I I I #
coedge $-1 $130 $131 $132 $133 forward $51 $-1 #
face $-1 $134 $135 $31 $-1 $136 reversed single #
loop $-1 $-1 $137 $53 #
plane-surface $-1 -72.465578389498077 0 4.8362798996725962 0 0 1 1 0 0 forward_v I I I I #
coedge $-1 $138 $139 $140 $141 forward $54 $-1 #
face $-1 $142 $143 $32 $-1 $144 forward single #
loop $-1 $-1 $145 $56 #
plane-surface $-1 69.865253736531059 -30.734345496663096 53.354899600868464 0 0.54463904215088732 0.83867056331134215 1 0 0 forward_v I I I I #
coedge $-1 $146 $147 $148 $149 reversed $57 $-1 #
face $-1 $-1 $150 $33 $-1 $151 forward single #
loop $-1 $152 $153 $59 #
cone-surface $-1 64.968768294194206 38.480002662620336 3.6460558495261211 0 -0.54463904215088732 -0.83867056331134215 0.5 0 0 1 I I -0.70710678118654746 0.70710678118654746 0.5 forward I I I I #
loop $-1 $-1 $154 $43 #
coedge $-1 $96 $96 $155 $156 reversed $60 $-1 #
face $-1 $-1 $157 $34 $-1 $158 forward single #
loop $-1 $159 $160 $62 #
cone-surface $-1 69.865253736531088 38.480002662620336 3.6460558495261211 0 -0.54463904215088732 -0.83867056331134215 0.5 0 0 1 I I -0.70710678118654746 0.70710678118654746 0.5 forward I I I I #
loop $-1 $-1 $161 $44 #
coedge $-1 $101 $101 $162 $163 reversed $63 $-1 #
face $-1 $-1 $164 $35 $-1 $165 forward single #
loop $-1 $166 $167 $65 #
cone-surface $-1 74.76173917886797 38.480002662620336 3.6460558495261211 0 -0.54463904215088732 -0.83867056331134215 0.5 0 0 1 I I -0.70710678118654746 0.70710678118654746 0.5 forward I I I I #
loop $-1 $-1 $168 $45 #
coedge $-1 $106 $106 $169 $170 reversed $66 $-1 #
face $-1 $171 $172 $36 $-1 $173 reversed single #
loop $-1 $-1 $174 $68 #
plane-surface $-1 61.704444665969618 -130.36706822639758 134.80524368495492 1 0 0 0 0.54463904215088732 -0.83867056331134215 forward_v I I I I #
coedge $-1 $175 $176 $177 $178 reversed $69 $-1 #
face $-1 $-1 $179 $37 $-1 $180 forward single #
loop $-1 $181 $182 $71 #
cone-surface $-1 64.968768294194206 -38.480002662620343 3.6460558495261228 0 0.54463904215088732 -0.83867056331134215 0.5 0 0 1 I I -0.70710678118654746 0.70710678118654746 0.5 forward I I I I #
loop $-1 $-1 $183 $47 #
coedge $-1 $115 $115 $184 $185 reversed $72 $-1 #
face $-1 $-1 $186 $38 $-1 $187 forward single #
loop $-1 $188 $189 $74 #
cone-surface $-1 69.865253736531088 -38.480002662620343 3.6460558495261228 0 0.54463904215088732 -0.83867056331134215 0.5 0 0 1 I I -0.70710678118654746 0.70710678118654746 0.5 forward I I I I #
loop $-1 $-1 $190 $48 #
coedge $-1 $120 $120 $191 $192 reversed $75 $-1 #
face $-1 $-1 $193 $39 $-1 $194 forward single #
loop $-1 $195 $196 $77 #
cone-surface $-1 74.76173917886797 -38.480002662620343 3.6460558495261228 0 0.54463904215088732 -0.83867056331134215 0.5 0 0 1 I I -0.70710678118654746 0.70710678118654746 0.5 forward I I I I #
loop $-1 $-1 $197 $49 #
coedge $-1 $125 $125 $198 $199 reversed $78 $-1 #
face $-1 $200 $201 $30 $-1 $202 reversed single #
loop $-1 $-1 $203 $80 #
plane-surface $-1 0 -45.374988006277931 0 0 1 0 0 0 1 forward_v I I I I #
coedge $-1 $204 $205 $206 $207 forward $81 $-1 #
coedge $-1 $208 $83 $209 $210 forward $51 $-1 #
coedge $-1 $83 $208 $211 $212 forward $51 $-1 #
coedge $-1 $213 $214 $83 $133 reversed $215 $-1 #
edge $-1 $216 -45.374988006277931 $217 45.374988006277931 $132 $218 forward 7 unknown #
face $-1 $219 $220 $31 $-1 $221 reversed single #
loop $-1 $-1 $222 $84 #
plane-surface $-1 -66.905093971903653 0 6.8690013683423636 -1 0 0 0 0 1 forward_v I I I I #
coedge $-1 $223 $224 $225 $226 forward $85 $-1 #
coedge $-1 $227 $87 $228 $229 reversed $54 $-1 #
coedge $-1 $87 $227 $230 $231 reversed $54 $-1 #
coedge $-1 $222 $232 $87 $141 reversed $135 $-1 #
edge $-1 $233 -45.374988006277931 $234 45.374988006277931 $140 $235 forward 7 unknown #
face $-1 $236 $237 $32 $-1 $238 reversed single #
loop $-1 $-1 $148 $88 #
plane-surface $-1 0 0 10.059989482381887 0 0 1 1 0 0 forward_v I I I I #
coedge $-1 $239 $240 $241 $242 reversed $89 $-1 #
coedge $-1 $147 $91 $243 $244 reversed $57 $-1 #
coedge $-1 $91 $146 $239 $245 reversed $57 $-1 #
coedge $-1 $241 $246 $91 $149 forward $143 $-1 #
edge $-1 $247 -18.246120644549642 $248 -8.8051011027029844 $148 $249 forward 7 unknown #
loop $-1 $-1 $155 $92 #
plane-surface $-1 69.865253736531059 -30.734345496663096 53.354899600868464 0 0.54463904215088732 0.83867056331134215 1 0 0 forward_v I I I I #
loop $-1 $-1 $250 $59 #
coedge $-1 $153 $153 $154 $251 reversed $93 $-1 #
coedge $-1 $154 $154 $153 $251 forward $95 $-1 #
coedge $-1 $155 $155 $96 $156 forward $150 $-1 #
edge $-1 $252 -1.1426638525091484e-015 $252 6.2831853071795996 $155 $253 forward 7 unknown #
loop $-1 $-1 $162 $97 #
plane-surface $-1 69.865253736531059 -30.734345496663096 53.354899600868464 0 0.54463904215088732 0.83867056331134215 1 0 0 forward_v I I I I #
loop $-1 $-1 $254 $62 #
coedge $-1 $160 $160 $161 $255 reversed $98 $-1 #
coedge $-1 $161 $161 $160 $255 forward $100 $-1 #
coedge $-1 $162 $162 $101 $163 forward $157 $-1 #
edge $-1 $256 -1.1426638525091484e-015 $256 6.2831853071795996 $162 $257 forward 7 unknown #
loop $-1 $-1 $169 $102 #
plane-surface $-1 69.865253736531059 -30.734345496663096 53.354899600868464 0 0.54463904215088732 0.83867056331134215 1 0 0 forward_v I I I I #
loop $-1 $-1 $258 $65 #
coedge $-1 $167 $167 $168 $259 reversed $103 $-1 #
coedge $-1 $168 $168 $167 $259 forward $105 $-1 #
coedge $-1 $169 $169 $106 $170 forward $164 $-1 #
edge $-1 $260 -1.1426638525091484e-015 $260 6.2831853071795996 $169 $261 forward 7 unknown #
face $-1 $262 $263 $36 $-1 $264 forward single #
loop $-1 $-1 $265 $107 #
plane-surface $-1 0 -45.374988006277931 0 0 1 0 0 0 1 forward_v I I I I #
coedge $-1 $266 $267 $268 $269 reversed $108 $-1 #
coedge $-1 $270 $110 $271 $272 reversed $69 $-1 #
coedge $-1 $110 $270 $266 $273 forward $69 $-1 #
coedge $-1 $268 $274 $110 $178 forward $263 $-1 #
edge $-1 $275 -43.093435938826971 $276 -26.771817797704088 $177 $277 forward 7 unknown #
loop $-1 $-1 $184 $111 #
plane-surface $-1 69.865253736531059 -45.374988006277903 3.928919590174047 0 -0.54463904215088732 0.83867056331134215 1 0 0 forward_v I I I I #
loop $-1 $-1 $278 $71 #
coedge $-1 $182 $182 $183 $279 reversed $112 $-1 #
coedge $-1 $183 $183 $182 $279 forward $114 $-1 #
coedge $-1 $184 $184 $115 $185 forward $179 $-1 #
edge $-1 $280 5.0125570026256668e-015 $280 6.2831853071796058 $184 $281 forward 7 unknown #
loop $-1 $-1 $191 $116 #
plane-surface $-1 69.865253736531059 -45.374988006277903 3.928919590174047 0 -0.54463904215088732 0.83867056331134215 1 0 0 forward_v I I I I #
loop $-1 $-1 $282 $74 #
coedge $-1 $189 $189 $190 $283 reversed $117 $-1 #
coedge $-1 $190 $190 $189 $283 forward $119 $-1 #
coedge $-1 $191 $191 $120 $192 forward $186 $-1 #
edge $-1 $284 5.0125570026256668e-015 $284 6.2831853071796058 $191 $285 forward 7 unknown #
loop $-1 $-1 $198 $121 #
plane-surface $-1 69.865253736531059 -45.374988006277903 3.928919590174047 0 -0.54463904215088732 0.83867056331134215 1 0 0 forward_v I I I I #
loop $-1 $-1 $286 $77 #
coedge $-1 $196 $196 $197 $287 reversed $122 $-1 #
coedge $-1 $197 $197 $196 $287 forward $124 $-1 #
coedge $-1 $198 $198 $125 $199 forward $193 $-1 #
edge $-1 $288 5.0125570026256668e-015 $288 6.2831853071796058 $198 $289 forward 7 unknown #
face $-1 $290 $291 $30 $-1 $292 reversed single #
loop $-1 $-1 $293 $126 #
plane-surface $-1 -78.026062807092501 0 0 1 0 0 0 0 -1 forward_v I I I I #
coedge $-1 $294 $211 $295 $296 forward $127 $-1 #
coedge $-1 $297 $129 $294 $298 forward $81 $-1 #
coedge $-1 $129 $297 $299 $300 forward $81 $-1 #
coedge $-1 $214 $213 $129 $207 reversed $215 $-1 #
edge $-1 $301 -45.374988006277931 $302 45.374988006277931 $206 $303 forward 7 unknown #
coedge $-1 $131 $130 $304 $305 forward $51 $-1 #
coedge $-1 $306 $307 $130 $210 reversed $291 $-1 #
edge $-1 $217 -78.026062807092501 $308 78.026062807092501 $209 $309 forward 7 unknown #
coedge $-1 $203 $310 $131 $212 reversed $127 $-1 #
edge $-1 $311 -78.026062807092501 $216 78.026062807092501 $211 $312 forward 7 unknown #
coedge $-1 $206 $132 $310 $313 forward $215 $-1 #
coedge $-1 $132 $206 $306 $314 reversed $215 $-1 #
loop $-1 $-1 $213 $290 #
vertex $-1 $133 $315 #
vertex $-1 $133 $316 #
straight-curve $-1 78.026062807092501 0 10.059989482381887 0 1 0 I I #
face $-1 $317 $318 $31 $-1 $319 reversed single #
loop $-1 $-1 $320 $134 #
plane-surface $-1 0 -45.374988006277931 0 0 1 0 0 0 1 forward_v I I I I #
coedge $-1 $225 $140 $321 $322 reversed $135 $-1 #
coedge $-1 $323 $137 $320 $324 reversed $85 $-1 #
coedge $-1 $137 $323 $325 $326 reversed $85 $-1 #
coedge $-1 $232 $222 $137 $226 reversed $135 $-1 #
edge $-1 $327 -45.374988006277931 $328 45.374988006277931 $225 $329 forward 7 unknown #
coedge $-1 $139 $138 $330 $331 reversed $54 $-1 #
coedge $-1 $332 $333 $138 $229 forward $334 $-1 #
edge $-1 $335 -41.793273612343462 $234 -30.672304777154615 $228 $336 forward 7 unknown #
coedge $-1 $337 $321 $139 $231 forward $220 $-1 #
edge $-1 $233 30.672304777154615 $338 41.793273612343462 $230 $339 forward 7 unknown #
coedge $-1 $140 $225 $332 $340 reversed $135 $-1 #
vertex $-1 $231 $341 #
vertex $-1 $229 $342 #
straight-curve $-1 -66.905093971903653 0 8.9017228370121302 0 1 0 I I #
face $-1 $-1 $343 $32 $-1 $344 reversed single #
loop $-1 $-1 $345 $142 #
plane-surface $-1 78.026062807092501 0 0 -1 0 0 0 0 1 forward_v I I I I #
coedge $-1 $346 $145 $147 $245 forward $89 $-1 #
coedge $-1 $145 $346 $345 $347 reversed $89 $-1 #
coedge $-1 $348 $148 $145 $242 forward $143 $-1 #
edge $-1 $248 26.771817797704088 $349 43.093435938826971 $241 $350 forward 7 unknown #
coedge $-1 $351 $352 $146 $244 forward $343 $-1 #
edge $-1 $353 -88.186692257650634 $247 -82.055622365442787 $243 $354 forward 7 unknown #
edge $-1 $248 79.492850801709722 $353 90.749976012555877 $147 $355 forward 7 unknown #
coedge $-1 $148 $348 $351 $356 forward $143 $-1 #
vertex $-1 $244 $357 #
vertex $-1 $149 $358 #
straight-curve $-1 61.704444665969618 27.12886736172829 10.059989482381894 0 -1 0 I I #
coedge $-1 $250 $250 $-1 $359 reversed $152 $-1 #
edge $-1 $360 0 $360 6.2831853071796004 $153 $361 forward 7 unknown #
vertex $-1 $156 $362 #
ellipse-curve $-1 64.968768294194206 40.65447823535461 6.9944545362779529 0 0.54463904215088732 0.83867056331134215 1 0 0 1 I I #
coedge $-1 $254 $254 $-1 $363 reversed $159 $-1 #
edge $-1 $364 0 $364 6.2831853071796004 $160 $365 forward 7 unknown #
vertex $-1 $163 $366 #
ellipse-curve $-1 69.865253736531088 40.65447823535461 6.9944545362779529 0 0.54463904215088732 0.83867056331134215 1 0 0 1 I I #
coedge $-1 $258 $258 $-1 $367 reversed $166 $-1 #
edge $-1 $368 0 $368 6.2831853071796004 $167 $369 forward 7 unknown #
vertex $-1 $170 $370 #
ellipse-curve $-1 74.76173917886797 40.65447823535461 6.9944545362779529 0 0.54463904215088732 0.83867056331134215 1 0 0 1 I I #
face $-1 $-1 $371 $36 $-1 $372 reversed single #
loop $-1 $-1 $268 $171 #
plane-surface $-1 0 0 10.059989482381887 0 0 1 1 0 0 forward_v I I I I #
coedge $-1 $373 $374 $267 $375 forward $172 $-1 #
coedge $-1 $267 $174 $176 $273 reversed $108 $-1 #
coedge $-1 $174 $266 $265 $375 reversed $108 $-1 #
coedge $-1 $376 $177 $174 $269 forward $263 $-1 #
edge $-1 $276 -29.249565648767515 $377 -19.808546106920858 $268 $378 forward 7 unknown #
coedge $-1 $176 $175 $373 $379 reversed $69 $-1 #
coedge $-1 $380 $381 $175 $272 forward $371 $-1 #
edge $-1 $382 -17.957411874595152 $275 -6.7002866637489928 $271 $383 forward 7 unknown #
edge $-1 $384 -3.3994920577324079e-014 $276 11.257125210846123 $266 $385 forward 7 unknown #
coedge $-1 $177 $376 $380 $386 forward $263 $-1 #
vertex $-1 $272 $387 #
vertex $-1 $178 $388 #
straight-curve $-1 34.93262686826553 -35.933968464431267 10.059989482381887 -1 0 0 I I #
coedge $-1 $278 $278 $-1 $389 reversed $181 $-1 #
edge $-1 $390 0 $390 6.2831853071796004 $182 $391 forward 7 unknown #
vertex $-1 $185 $392 #
ellipse-curve $-1 64.968768294194206 -40.654478235354617 6.9944545362779476 0 -0.54463904215088732 0.83867056331134215 1 0 0 1 I I #
coedge $-1 $282 $282 $-1 $393 reversed $188 $-1 #
edge $-1 $394 0 $394 6.2831853071796004 $189 $395 forward 7 unknown #
vertex $-1 $192 $396 #
ellipse-curve $-1 69.865253736531088 -40.654478235354617 6.9944545362779476 0 -0.54463904215088732 0.83867056331134215 1 0 0 1 I I #
coedge $-1 $286 $286 $-1 $397 reversed $195 $-1 #
edge $-1 $398 0 $398 6.2831853071796004 $196 $399 forward 7 unknown #
vertex $-1 $199 $400 #
ellipse-curve $-1 74.76173917886797 -40.654478235354617 6.9944545362779476 0 -0.54463904215088732 0.83867056331134215 1 0 0 1 I I #
face $-1 $-1 $215 $30 $-1 $401 reversed single #
loop $-1 $-1 $306 $200 #
plane-surface $-1 0 45.374988006277931 0 0 -1 0 0 0 -1 forward_v I I I I #
coedge $-1 $402 $304 $307 $403 forward $201 $-1 #
coedge $-1 $310 $203 $204 $298 reversed $127 $-1 #
coedge $-1 $304 $402 $203 $296 reversed $201 $-1 #
edge $-1 $311 -10.059989482381887 $404 10.059989482381887 $295 $405 forward 7 unknown #
coedge $-1 $205 $204 $402 $406 forward $81 $-1 #
edge $-1 $302 -78.026062807092501 $404 78.026062807092501 $294 $407 forward 7 unknown #
coedge $-1 $307 $306 $205 $300 reversed $291 $-1 #
edge $-1 $408 -78.026062807092501 $301 78.026062807092501 $299 $409 forward 7 unknown #
vertex $-1 $207 $410 #
vertex $-1 $313 $411 #
straight-curve $-1 78.026062807092501 0 -10.059989482381887 0 -1 0 I I #
coedge $-1 $293 $295 $208 $305 reversed $201 $-1 #
edge $-1 $308 -45.374988006277931 $311 45.374988006277931 $304 $412 forward 7 unknown #
coedge $-1 $299 $209 $214 $314 forward $291 $-1 #
coedge $-1 $209 $299 $293 $403 reversed $291 $-1 #
vertex $-1 $210 $413 #
straight-curve $-1 0 45.374988006277931 10.059989482381887 -1 0 0 I I #
coedge $-1 $211 $294 $213 $313 reversed $127 $-1 #
vertex $-1 $305 $414 #
straight-curve $-1 0 -45.374988006277931 10.059989482381887 1 0 0 I I #
edge $-1 $216 -10.059989482381887 $302 10.059989482381887 $213 $415 forward 7 unknown #
edge $-1 $217 -10.059989482381887 $301 10.059989482381887 $214 $416 forward 7 unknown #
point $-1 78.026062807092501 -45.374988006277931 10.059989482381887 #
point $-1 78.026062807092501 45.374988006277931 10.059989482381887 #
face $-1 $-1 $334 $31 $-1 $417 reversed single #
loop $-1 $-1 $418 $219 #
plane-surface $-1 -78.026062807092501 0 0 1 0 0 0 0 -1 forward_v I I I I #
coedge $-1 $321 $337 $223 $324 forward $220 $-1 #
coedge $-1 $230 $320 $222 $322 forward $220 $-1 #
edge $-1 $328 1.4017792155014144 $233 5.4672221528409484 $321 $419 forward 7 unknown #
coedge $-1 $224 $223 $418 $420 reversed $85 $-1 #
edge $-1 $421 -41.793273612343462 $328 -30.672304777154615 $320 $422 forward 7 unknown #
coedge $-1 $333 $332 $224 $326 forward $334 $-1 #
edge $-1 $327 30.672304777154615 $423 41.793273612343462 $325 $424 forward 7 unknown #
vertex $-1 $326 $425 #
vertex $-1 $324 $426 #
straight-curve $-1 -66.905093971903653 0 4.8362798996725962 0 -1 0 I I #
coedge $-1 $427 $428 $227 $331 forward $318 $-1 #
edge $-1 $338 -45.374988006277931 $335 45.374988006277931 $330 $429 forward 7 unknown #
coedge $-1 $325 $228 $232 $340 forward $334 $-1 #
coedge $-1 $228 $325 $427 $430 reversed $334 $-1 #
loop $-1 $-1 $325 $317 #
vertex $-1 $430 $431 #
straight-curve $-1 -36.232789194749039 45.374988006277931 8.9017228370121302 1 0 0 I I #
coedge $-1 $320 $230 $428 $432 forward $220 $-1 #
vertex $-1 $432 $433 #
straight-curve $-1 -36.232789194749039 -45.374988006277931 8.9017228370121302 -1 0 0 I I #
edge $-1 $234 -5.4672221528409484 $327 -1.4017792155014144 $332 $434 forward 7 unknown #
point $-1 -66.905093971903653 -45.374988006277931 8.9017228370121302 #
point $-1 -66.905093971903653 45.374988006277931 8.9017228370121302 #
loop $-1 $-1 $243 $236 #
plane-surface $-1 0 45.374988006277931 0 0 -1 0 0 0 -1 forward_v I I I I #
coedge $-1 $435 $436 $240 $347 forward $237 $-1 #
coedge $-1 $240 $239 $352 $437 reversed $89 $-1 #
edge $-1 $349 52.075274670026914 $438 63.332399880873069 $345 $439 forward 7 unknown #
coedge $-1 $246 $241 $436 $440 forward $143 $-1 #
vertex $-1 $440 $441 #
straight-curve $-1 34.93262686826553 35.933968464431274 10.059989482381891 1 0 0 I I #
coedge $-1 $442 $243 $246 $356 reversed $343 $-1 #
coedge $-1 $243 $442 $346 $437 forward $343 $-1 #
vertex $-1 $244 $443 #
straight-curve $-1 61.704444665969618 45.374988006277931 92.115611847824667 0 0 1 I I #
straight-curve $-1 61.704444665969618 -30.734345496663096 53.354899600868464 0 0.83867056331134215 -0.54463904215088732 I I #
edge $-1 $444 -78.026062807092501 $247 -61.704444665969618 $351 $445 forward 7 unknown #
point $-1 61.704444665969618 45.374988006277931 10.059989482381887 #
point $-1 61.704444665969618 35.933968464431274 10.059989482381887 #
edge $-1 $446 1 $446 0 $250 $-1 forward 7 unknown #
vertex $-1 $251 $447 #
ellipse-curve $-1 64.968768294194206 38.752322183695782 4.0653911311817925 0 0.54463904215088732 0.83867056331134215 1 0 0 1 I I #
point $-1 65.968768294194206 40.654478235354624 6.9944545362779769 #
edge $-1 $448 1 $448 0 $254 $-1 forward 7 unknown #
vertex $-1 $255 $449 #
ellipse-curve $-1 69.865253736531088 38.752322183695782 4.0653911311817925 0 0.54463904215088732 0.83867056331134215 1 0 0 1 I I #
point $-1 70.865253736531088 40.654478235354624 6.9944545362779769 #
edge $-1 $450 1 $450 0 $258 $-1 forward 7 unknown #
vertex $-1 $259 $451 #
ellipse-curve $-1 74.76173917886797 38.752322183695782 4.0653911311817925 0 0.54463904215088732 0.83867056331134215 1 0 0 1 I I #
point $-1 75.76173917886797 40.654478235354624 6.9944545362779769 #
loop $-1 $-1 $271 $262 #
plane-surface $-1 78.026062807092501 0 0 -1 0 0 0 0 1 forward_v I I I I #
coedge $-1 $452 $265 $270 $379 forward $172 $-1 #
coedge $-1 $265 $452 $376 $453 reversed $172 $-1 #
edge $-1 $377 57.342632360095571 $384 63.473702252303433 $265 $454 forward 7 unknown #
coedge $-1 $274 $268 $374 $453 forward $263 $-1 #
vertex $-1 $453 $455 #
straight-curve $-1 61.704444665969618 -65.183534113198789 10.059989482381887 0 -1 0 I I #
edge $-1 $384 26.771817797704088 $382 43.093435938826971 $373 $456 forward 7 unknown #
coedge $-1 $381 $271 $274 $386 reversed $371 $-1 #
coedge $-1 $271 $380 $452 $457 forward $371 $-1 #
vertex $-1 $379 $458 #
straight-curve $-1 78.026062807092501 -30.314635273797432 13.709227193062501 0 0.83867056331134215 0.54463904215088732 I I #
vertex $-1 $379 $459 #
straight-curve $-1 61.704444665969618 -45.374988006277903 3.928919590174047 0 0.83867056331134215 0.54463904215088732 I I #
edge $-1 $460 -45.374988006277931 $275 -35.933968464431274 $380 $461 forward 7 unknown #
point $-1 78.026062807092501 -35.933968464431274 10.059989482381887 #
point $-1 61.704444665969618 -35.933968464431274 10.059989482381887 #
edge $-1 $462 1 $462 0 $278 $-1 forward 7 unknown #
vertex $-1 $279 $463 #
ellipse-curve $-1 64.968768294194206 -38.752322183695789 4.0653911311817943 0 -0.54463904215088732 0.83867056331134215 1 0 0 1 I I #
point $-1 65.968768294194206 -40.654478235354631 6.9944545362779786 #
edge $-1 $464 1 $464 0 $282 $-1 forward 7 unknown #
vertex $-1 $283 $465 #
ellipse-curve $-1 69.865253736531088 -38.752322183695789 4.0653911311817943 0 -0.54463904215088732 0.83867056331134215 1 0 0 1 I I #
point $-1 70.865253736531088 -40.654478235354631 6.9944545362779786 #
edge $-1 $466 1 $466 0 $286 $-1 forward 7 unknown #
vertex $-1 $287 $467 #
ellipse-curve $-1 74.76173917886797 -38.752322183695789 4.0653911311817943 0 -0.54463904215088732 0.83867056331134215 1 0 0 1 I I #
point $-1 75.76173917886797 -40.654478235354631 6.9944545362779786 #
plane-surface $-1 78.026062807092501 0 0 -1 0 0 0 0 1 forward_v I I I I #
coedge $-1 $295 $293 $297 $406 reversed $201 $-1 #
edge $-1 $308 -10.059989482381887 $408 10.059989482381887 $307 $468 forward 7 unknown #
vertex $-1 $406 $469 #
straight-curve $-1 -78.026062807092501 -45.374988006277931 0 0 0 -1 I I #
edge $-1 $404 -45.374988006277931 $408 45.374988006277931 $402 $470 forward 7 unknown #
straight-curve $-1 0 -45.374988006277931 -10.059989482381887 -1 0 0 I I #
vertex $-1 $300 $471 #
straight-curve $-1 0 45.374988006277931 -10.059989482381887 1 0 0 I I #
point $-1 78.026062807092501 45.374988006277931 -10.059989482381887 #
point $-1 78.026062807092501 -45.374988006277931 -10.059989482381887 #
straight-curve $-1 -78.026062807092501 0 10.059989482381887 0 -1 0 I I #
point $-1 -78.026062807092501 45.374988006277931 10.059989482381887 #
point $-1 -78.026062807092501 -45.374988006277931 10.059989482381887 #
straight-curve $-1 78.026062807092501 -45.374988006277931 0 0 0 -1 I I #
straight-curve $-1 78.026062807092501 45.374988006277931 0 0 0 -1 I I #
plane-surface $-1 0 45.374988006277931 0 0 -1 0 0 0 -1 forward_v I I I I #
coedge $-1 $428 $427 $323 $420 forward $318 $-1 #
straight-curve $-1 -66.905093971903653 -45.374988006277931 3.4345006841711818 0 0 1 I I #
edge $-1 $423 -45.374988006277931 $421 45.374988006277931 $418 $472 forward 7 unknown #
vertex $-1 $324 $473 #
straight-curve $-1 -36.232789194749039 -45.374988006277931 4.8362798996725962 1 0 0 I I #
vertex $-1 $326 $474 #
straight-curve $-1 -36.232789194749039 45.374988006277931 4.8362798996725962 -1 0 0 I I #
point $-1 -66.905093971903653 45.374988006277931 4.8362798996725962 #
point $-1 -66.905093971903653 -45.374988006277931 4.8362798996725962 #
coedge $-1 $418 $330 $333 $430 forward $318 $-1 #
coedge $-1 $330 $418 $337 $432 reversed $318 $-1 #
straight-curve $-1 -78.026062807092501 0 8.9017228370121302 0 1 0 I I #
edge $-1 $335 -8.9017228370121302 $423 -4.8362798996725962 $333 $475 forward 7 unknown #
point $-1 -78.026062807092501 45.374988006277931 8.9017228370121302 #
edge $-1 $338 -8.9017228370121302 $421 -4.8362798996725962 $428 $476 forward 7 unknown #
point $-1 -78.026062807092501 -45.374988006277931 8.9017228370121302 #
straight-curve $-1 -66.905093971903653 45.374988006277931 3.4345006841711818 0 0 -1 I I #
coedge $-1 $436 $345 $442 $477 reversed $237 $-1 #
coedge $-1 $345 $435 $348 $440 reversed $237 $-1 #
edge $-1 $438 -43.093435938826971 $353 -26.771817797704088 $352 $478 forward 7 unknown #
vertex $-1 $347 $479 #
straight-curve $-1 78.026062807092501 -7.7400314776730683 38.422217198409712 0 0.83867056331134215 -0.54463904215088732 I I #
edge $-1 $349 35.933968464431274 $444 45.374988006277931 $436 $480 forward 7 unknown #
point $-1 78.026062807092501 35.933968464431274 10.059989482381887 #
coedge $-1 $352 $351 $435 $477 forward $343 $-1 #
point $-1 61.704444665969618 45.374988006277931 3.9289195901740328 #
vertex $-1 $440 $481 #
straight-curve $-1 0 45.374988006277931 10.059989482381887 -1 0 0 I I #
vertex $-1 $359 $482 #
point $-1 65.968768294194206 38.752322183695782 4.0653911311817925 #
vertex $-1 $363 $483 #
point $-1 70.865253736531088 38.752322183695782 4.0653911311817925 #
vertex $-1 $367 $484 #
point $-1 75.76173917886797 38.752322183695782 4.0653911311817925 #
coedge $-1 $374 $373 $381 $457 reversed $172 $-1 #
edge $-1 $377 61.704444665969618 $460 78.026062807092501 $374 $485 forward 7 unknown #
straight-curve $-1 61.704444665969618 -45.374988006277931 67.402621842477458 0 0 -1 I I #
point $-1 61.704444665969618 -45.374988006277931 10.059989482381887 #
straight-curve $-1 34.93262686826553 -45.374988006277931 3.9289195901740261 1 0 0 I I #
edge $-1 $460 -10.059989482381887 $382 -3.9289195901740284 $381 $486 forward 7 unknown #
point $-1 78.026062807092501 -45.374988006277931 3.9289195901740284 #
point $-1 61.704444665969618 -45.374988006277931 3.9289195901740284 #
vertex $-1 $386 $487 #
straight-curve $-1 78.026062807092501 0 10.059989482381887 0 1 0 I I #
vertex $-1 $389 $488 #
point $-1 65.968768294194206 -38.752322183695789 4.0653911311817943 #
vertex $-1 $393 $489 #
point $-1 70.865253736531088 -38.752322183695789 4.0653911311817943 #
vertex $-1 $397 $490 #
point $-1 75.76173917886797 -38.752322183695789 4.0653911311817943 #
straight-curve $-1 -78.026062807092501 45.374988006277931 0 0 0 -1 I I #
point $-1 -78.026062807092501 -45.374988006277931 -10.059989482381887 #
straight-curve $-1 -78.026062807092501 0 -10.059989482381887 0 1 0 I I #
point $-1 -78.026062807092501 45.374988006277931 -10.059989482381887 #
straight-curve $-1 -78.026062807092501 0 4.8362798996725962 0 -1 0 I I #
point $-1 -78.026062807092501 -45.374988006277931 4.8362798996725962 #
point $-1 -78.026062807092501 45.374988006277931 4.8362798996725962 #
straight-curve $-1 -78.026062807092501 45.374988006277931 0 0 0 -1 I I #
straight-curve $-1 -78.026062807092501 -45.374988006277931 0 0 0 -1 I I #
edge $-1 $444 -10.059989482381887 $438 -3.9289195901740328 $435 $491 forward 7 unknown #
straight-curve $-1 34.93262686826553 45.374988006277931 3.9289195901740328 -1 0 0 I I #
point $-1 78.026062807092501 45.374988006277931 3.9289195901740328 #
straight-curve $-1 78.026062807092501 0 10.059989482381887 0 1 0 I I #
point $-1 78.026062807092501 45.374988006277931 10.059989482381887 #
point $-1 64.968768294194206 38.207683141544891 3.22672056787045 #
point $-1 69.865253736531088 38.207683141544891 3.22672056787045 #
point $-1 74.76173917886797 38.207683141544891 3.22672056787045 #
straight-curve $-1 0 -45.374988006277931 10.059989482381887 1 0 0 I I #
straight-curve $-1 78.026062807092501 -45.374988006277931 0 0 0 -1 I I #
point $-1 78.026062807092501 -45.374988006277931 10.059989482381887 #
point $-1 64.968768294194206 -38.207683141544898 3.2267205678704518 #
point $-1 69.865253736531088 -38.207683141544898 3.2267205678704518 #
point $-1 74.76173917886797 -38.207683141544898 3.2267205678704518 #
straight-curve $-1 78.026062807092501 45.374988006277931 0 0 0 -1 I I #
End-of-ACIS-data 