500 0 12 0           
7 Unknown 11 ACIS 5.0 NT 24 Fri Mar 26 20:08:57 1999 
-1 9.9999999999999995e-007 1e-010 
body $-1 $12 $-1 $13 #
body $-1 $14 $-1 $15 #
body $-1 $16 $-1 $17 #
body $-1 $18 $-1 $19 #
body $-1 $20 $-1 $21 #
body $-1 $22 $-1 $23 #
body $-1 $24 $-1 $25 #
body $-1 $26 $-1 $27 #
body $-1 $28 $-1 $29 #
body $-1 $30 $-1 $31 #
body $-1 $32 $-1 $33 #
body $-1 $34 $-1 $35 #
lump $-1 $-1 $36 $0 #
transform $-1 1 0 0 0 1 0 0 0 1 60.505996887112033 41.243496288106996 17.286345427483329 1 rotate no_reflect no_shear #
lump $-1 $-1 $37 $1 #
transform $-1 1 0 0 0 1 0 0 0 1 60.505996887112033 41.243496288106996 17.286345427483329 1 rotate no_reflect no_shear #
lump $-1 $-1 $38 $2 #
transform $-1 1 0 0 0 1 0 0 0 1 60.505996887112033 41.243496288106996 17.286345427483329 1 rotate no_reflect no_shear #
lump $-1 $-1 $39 $3 #
transform $-1 1 0 0 0 1 0 0 0 1 60.505996887112033 41.243496288106996 17.286345427483329 1 rotate no_reflect no_shear #
lump $-1 $-1 $40 $4 #
transform $-1 1 0 0 0 1 0 0 0 1 60.505996887112033 41.243496288106996 17.286345427483329 1 rotate no_reflect no_shear #
lump $-1 $-1 $41 $5 #
transform $-1 1 0 0 0 1 0 0 0 1 60.505996887112033 41.243496288106996 17.286345427483329 1 rotate no_reflect no_shear #
lump $-1 $-1 $42 $6 #
transform $-1 1 0 0 0 1 0 0 0 1 60.505996887112033 41.243496288106996 17.286345427483329 1 rotate no_reflect no_shear #
lump $-1 $-1 $43 $7 #
transform $-1 1 0 0 0 1 0 0 0 1 60.505996887112033 41.243496288106996 17.286345427483329 1 rotate no_reflect no_shear #
lump $-1 $-1 $44 $8 #
transform $-1 1 0 0 0 1 0 0 0 1 60.505996887112033 41.243496288106996 17.286345427483329 1 rotate no_reflect no_shear #
lump $-1 $-1 $45 $9 #
transform $-1 1 0 0 0 1 0 0 0 1 60.505996887112033 41.243496288106996 17.286345427483329 1 rotate no_reflect no_shear #
lump $-1 $-1 $46 $10 #
transform $-1 1 0 0 0 1 0 0 0 1 60.505996887112033 41.243496288106996 17.286345427483329 1 rotate no_reflect no_shear #
lump $-1 $-1 $47 $11 #
transform $-1 1 0 0 0 1 0 0 0 1 60.505996887112033 41.243496288106996 17.286345427483329 1 rotate no_reflect no_shear #
shell $-1 $-1 $-1 $48 $-1 $12 #
shell $-1 $-1 $-1 $49 $-1 $14 #
shell $-1 $-1 $-1 $50 $-1 $16 #
shell $-1 $-1 $-1 $51 $-1 $18 #
shell $-1 $-1 $-1 $52 $-1 $20 #
shell $-1 $-1 $-1 $53 $-1 $22 #
shell $-1 $-1 $-1 $54 $-1 $24 #
shell $-1 $-1 $-1 $55 $-1 $26 #
shell $-1 $-1 $-1 $56 $-1 $28 #
shell $-1 $-1 $-1 $57 $-1 $30 #
shell $-1 $-1 $-1 $58 $-1 $32 #
shell $-1 $-1 $-1 $59 $-1 $34 #
face $-1 $60 $61 $36 $-1 $62 reversed single #
face $-1 $63 $64 $37 $-1 $65 forward single #
face $-1 $66 $67 $38 $-1 $68 reversed single #
face $-1 $69 $70 $39 $-1 $71 forward single #
face $-1 $72 $73 $40 $-1 $74 forward single #
face $-1 $75 $76 $41 $-1 $77 forward single #
face $-1 $78 $79 $42 $-1 $80 reversed single #
face $-1 $81 $82 $43 $-1 $83 forward single #
face $-1 $84 $85 $44 $-1 $86 forward single #
face $-1 $87 $88 $45 $-1 $89 forward single #
face $-1 $90 $91 $46 $-1 $92 reversed single #
face $-1 $93 $94 $47 $-1 $95 forward single #
face $-1 $96 $97 $36 $-1 $98 forward single #
loop $-1 $-1 $99 $48 #
plane-surface $-1 -60.505996887112033 0 0 1 0 0 0 0 -1 forward_v I I I I #
face $-1 $100 $101 $37 $-1 $102 reversed single #
loop $-1 $-1 $103 $49 #
plane-surface $-1 -60.505996887112033 0 0 1 0 0 0 0 -1 forward_v I I I I #
face $-1 $104 $105 $38 $-1 $106 reversed single #
loop $-1 $-1 $107 $50 #
plane-surface $-1 -20.903976311070075 -144.97102129225388 75.918455396484859 -1 0 0 0 -0.85716730853699208 0.51503806187062418 forward_v I I I I #
face $-1 $108 $109 $39 $-1 $110 forward single #
loop $-1 $111 $112 $51 #
cone-surface $-1 -31.415956541556273 -39.705221419270927 15.181990012760581 0 0.85716730853699208 -0.51503806187062418 0.5 0 0 1 I I 0 1 0.5 forward I I I I #
face $-1 $113 $114 $40 $-1 $115 forward single #
loop $-1 $116 $117 $52 #
cone-surface $-1 -27.473963955123949 -39.705221419270927 15.181990012760581 0 0.85716730853699208 -0.51503806187062418 0.5 0 0 1 I I 0 1 0.5 forward I I I I #
face $-1 $118 $119 $41 $-1 $120 forward single #
loop $-1 $121 $122 $53 #
cone-surface $-1 -23.531971368691622 -39.705221419270927 15.181990012760581 0 0.85716730853699208 -0.51503806187062418 0.5 0 0 1 I I 0 1 0.5 forward I I I I #
face $-1 $123 $124 $42 $-1 $125 reversed single #
loop $-1 $-1 $126 $54 #
plane-surface $-1 31.619698301054079 -144.97102129225388 75.918455396484859 -1 0 0 0 -0.85716730853699208 0.51503806187062418 forward_v I I I I #
face $-1 $127 $128 $43 $-1 $129 forward single #
loop $-1 $130 $131 $55 #
cone-surface $-1 21.107718070567884 -39.705221419270927 15.181990012760581 0 0.85716730853699208 -0.51503806187062418 0.5 0 0 1 I I 0 1 0.5 forward I I I I #
face $-1 $132 $133 $44 $-1 $134 forward single #
loop $-1 $135 $136 $56 #
cone-surface $-1 25.049710657000205 -39.705221419270927 15.181990012760581 0 0.85716730853699208 -0.51503806187062418 0.5 0 0 1 I I 0 1 0.5 forward I I I I #
face $-1 $137 $138 $45 $-1 $139 forward single #
loop $-1 $140 $141 $57 #
cone-surface $-1 28.991703243432539 -39.705221419270927 15.181990012760581 0 0.85716730853699208 -0.51503806187062418 0.5 0 0 1 I I 0 1 0.5 forward I I I I #
face $-1 $142 $143 $46 $-1 $144 reversed single #
loop $-1 $-1 $145 $58 #
plane-surface $-1 -13.392246229245174 78.45607284699814 148.28716324975875 1 0 0 0 -0.75470958851134928 -0.65605901945558964 forward_v I I I I #
face $-1 $146 $147 $47 $-1 $148 forward single #
loop $-1 $149 $150 $59 #
cone-surface $-1 -8.05396095562363 34.60130545590151 10.212006684933501 0 -0.75470958851134928 -0.65605901945558964 2 0 0 1 I I 0 1 2 forward I I I I #
face $-1 $151 $152 $36 $-1 $153 reversed single #
loop $-1 $-1 $154 $60 #
plane-surface $-1 0 0 17.286345427483329 0 0 1 1 0 0 forward_v I I I I #
coedge $-1 $155 $156 $157 $158 reversed $61 $-1 #
face $-1 $159 $160 $37 $-1 $161 reversed single #
loop $-1 $-1 $162 $63 #
plane-surface $-1 0 0 -17.286345427483329 0 0 1 1 0 0 forward_v I I I I #
coedge $-1 $163 $164 $165 $166 forward $64 $-1 #
face $-1 $167 $168 $38 $-1 $169 reversed single #
loop $-1 $-1 $170 $66 #
plane-surface $-1 -27.473963955123949 -41.243496288106996 13.592672659908459 0 -0.85716730853699208 0.51503806187062418 1 0 0 forward_v I I I I #
coedge $-1 $171 $172 $173 $174 reversed $67 $-1 #
face $-1 $-1 $175 $39 $-1 $176 forward single #
loop $-1 $177 $178 $69 #
cone-surface $-1 -31.415956541556273 -39.06234593786818 14.795711466357613 0 0.85716730853699208 -0.51503806187062418 0.25 0 0 1 I I -0.70710678118654746 0.70710678118654746 0.25 forward I I I I #
loop $-1 $-1 $179 $51 #
coedge $-1 $112 $112 $180 $181 reversed $70 $-1 #
face $-1 $-1 $182 $40 $-1 $183 forward single #
loop $-1 $184 $185 $72 #
cone-surface $-1 -27.473963955123949 -39.06234593786818 14.795711466357613 0 0.85716730853699208 -0.51503806187062418 0.25 0 0 1 I I -0.70710678118654746 0.70710678118654746 0.25 forward I I I I #
loop $-1 $-1 $186 $52 #
coedge $-1 $117 $117 $187 $188 reversed $73 $-1 #
face $-1 $-1 $189 $41 $-1 $190 forward single #
loop $-1 $191 $192 $75 #
cone-surface $-1 -23.531971368691622 -39.06234593786818 14.795711466357613 0 0.85716730853699208 -0.51503806187062418 0.25 0 0 1 I I -0.70710678118654746 0.70710678118654746 0.25 forward I I I I #
loop $-1 $-1 $193 $53 #
coedge $-1 $122 $122 $194 $195 reversed $76 $-1 #
face $-1 $196 $197 $42 $-1 $198 reversed single #
loop $-1 $-1 $199 $78 #
plane-surface $-1 25.049710657000205 -41.243496288106996 13.592672659908459 0 -0.85716730853699208 0.51503806187062418 1 0 0 forward_v I I I I #
coedge $-1 $200 $201 $202 $203 reversed $79 $-1 #
face $-1 $-1 $204 $43 $-1 $205 forward single #
loop $-1 $206 $207 $81 #
cone-surface $-1 21.107718070567884 -39.06234593786818 14.795711466357613 0 0.85716730853699208 -0.51503806187062418 0.25 0 0 1 I I -0.70710678118654746 0.70710678118654746 0.25 forward I I I I #
loop $-1 $-1 $208 $55 #
coedge $-1 $131 $131 $209 $210 reversed $82 $-1 #
face $-1 $-1 $211 $44 $-1 $212 forward single #
loop $-1 $213 $214 $84 #
cone-surface $-1 25.049710657000205 -39.06234593786818 14.795711466357613 0 0.85716730853699208 -0.51503806187062418 0.25 0 0 1 I I -0.70710678118654746 0.70710678118654746 0.25 forward I I I I #
loop $-1 $-1 $215 $56 #
coedge $-1 $136 $136 $216 $217 reversed $85 $-1 #
face $-1 $-1 $218 $45 $-1 $219 forward single #
loop $-1 $220 $221 $87 #
cone-surface $-1 28.991703243432539 -39.06234593786818 14.795711466357613 0 0.85716730853699208 -0.51503806187062418 0.25 0 0 1 I I -0.70710678118654746 0.70710678118654746 0.25 forward I I I I #
loop $-1 $-1 $222 $57 #
coedge $-1 $141 $141 $223 $224 reversed $88 $-1 #
face $-1 $225 $226 $46 $-1 $227 reversed single #
loop $-1 $-1 $228 $90 #
plane-surface $-1 -8.05396095562363 -12.872839179284469 68.896153271875392 0 0.75470958851134928 0.65605901945558964 1 0 0 forward_v I I I I #
coedge $-1 $229 $230 $231 $232 reversed $91 $-1 #
face $-1 $-1 $233 $47 $-1 $234 forward single #
loop $-1 $235 $236 $93 #
cone-surface $-1 -8.05396095562363 31.830712591067069 7.8035671130986408 0 -0.75470958851134928 -0.65605901945558964 1 0 0 1 I I -0.70710678118654746 0.70710678118654746 1 forward I I I I #
loop $-1 $-1 $237 $59 #
coedge $-1 $150 $150 $238 $239 reversed $94 $-1 #
face $-1 $240 $241 $36 $-1 $242 reversed single #
loop $-1 $-1 $243 $96 #
plane-surface $-1 0 0 -17.286345427483329 0 0 1 1 0 0 forward_v I I I I #
coedge $-1 $244 $245 $246 $247 forward $97 $-1 #
coedge $-1 $248 $99 $249 $250 reversed $61 $-1 #
coedge $-1 $99 $248 $251 $252 forward $61 $-1 #
coedge $-1 $253 $254 $99 $158 forward $152 $-1 #
edge $-1 $255 -41.243496288106996 $256 41.243496288106996 $99 $257 forward 7 unknown #
face $-1 $258 $259 $37 $-1 $260 reversed single #
loop $-1 $-1 $261 $100 #
plane-surface $-1 -68.488319162099899 -24.3321105026114 0 0 1 0 0 0 1 forward_v I I I I #
coedge $-1 $262 $263 $164 $264 forward $101 $-1 #
coedge $-1 $265 $103 $266 $267 reversed $64 $-1 #
coedge $-1 $103 $265 $162 $264 reversed $64 $-1 #
coedge $-1 $268 $269 $103 $166 reversed $270 $-1 #
edge $-1 $271 -17.286345427483329 $272 17.286345427483329 $165 $273 forward 7 unknown #
face $-1 $274 $275 $38 $-1 $276 forward single #
loop $-1 $-1 $277 $104 #
plane-surface $-1 -34.043951599177824 -144.97102129225388 75.918455396484859 1 0 0 0 0.85716730853699208 -0.51503806187062418 forward_v I I I I #
coedge $-1 $278 $279 $280 $281 reversed $105 $-1 #
coedge $-1 $172 $107 $282 $283 reversed $67 $-1 #
coedge $-1 $107 $171 $278 $284 reversed $67 $-1 #
coedge $-1 $280 $285 $107 $174 forward $275 $-1 #
edge $-1 $286 31.242014358019944 $287 33.461396787155088 $173 $288 forward 7 unknown #
loop $-1 $-1 $180 $108 #
plane-surface $-1 -27.473963955123949 -41.243496288106996 13.592672659908459 0 -0.85716730853699208 0.51503806187062418 1 0 0 forward_v I I I I #
loop $-1 $-1 $289 $69 #
coedge $-1 $178 $178 $179 $290 reversed $109 $-1 #
coedge $-1 $179 $179 $178 $290 forward $111 $-1 #
coedge $-1 $180 $180 $112 $181 forward $175 $-1 #
edge $-1 $291 0 $291 6.2831853071796004 $180 $292 forward 7 unknown #
loop $-1 $-1 $187 $113 #
plane-surface $-1 -27.473963955123949 -41.243496288106996 13.592672659908459 0 -0.85716730853699208 0.51503806187062418 1 0 0 forward_v I I I I #
loop $-1 $-1 $293 $72 #
coedge $-1 $185 $185 $186 $294 reversed $114 $-1 #
coedge $-1 $186 $186 $185 $294 forward $116 $-1 #
coedge $-1 $187 $187 $117 $188 forward $182 $-1 #
edge $-1 $295 0 $295 6.2831853071796004 $187 $296 forward 7 unknown #
loop $-1 $-1 $194 $118 #
plane-surface $-1 -27.473963955123949 -41.243496288106996 13.592672659908459 0 -0.85716730853699208 0.51503806187062418 1 0 0 forward_v I I I I #
loop $-1 $-1 $297 $75 #
coedge $-1 $192 $192 $193 $298 reversed $119 $-1 #
coedge $-1 $193 $193 $192 $298 forward $121 $-1 #
coedge $-1 $194 $194 $122 $195 forward $189 $-1 #
edge $-1 $299 0 $299 6.2831853071796004 $194 $300 forward 7 unknown #
face $-1 $301 $302 $42 $-1 $303 reversed single #
loop $-1 $-1 $304 $123 #
plane-surface $-1 18.47972301294633 -144.97102129225388 75.918455396484859 1 0 0 0 0.85716730853699208 -0.51503806187062418 forward_v I I I I #
coedge $-1 $305 $306 $307 $308 reversed $124 $-1 #
coedge $-1 $201 $126 $309 $310 reversed $79 $-1 #
coedge $-1 $126 $200 $305 $311 reversed $79 $-1 #
coedge $-1 $307 $312 $126 $203 forward $313 $-1 #
edge $-1 $314 31.242014358019944 $315 33.461396787155088 $202 $316 forward 7 unknown #
loop $-1 $-1 $209 $127 #
plane-surface $-1 25.049710657000205 -41.243496288106996 13.592672659908459 0 -0.85716730853699208 0.51503806187062418 1 0 0 forward_v I I I I #
loop $-1 $-1 $317 $81 #
coedge $-1 $207 $207 $208 $318 reversed $128 $-1 #
coedge $-1 $208 $208 $207 $318 forward $130 $-1 #
coedge $-1 $209 $209 $131 $210 forward $204 $-1 #
edge $-1 $319 0 $319 6.2831853071796004 $209 $320 forward 7 unknown #
loop $-1 $-1 $216 $132 #
plane-surface $-1 25.049710657000205 -41.243496288106996 13.592672659908459 0 -0.85716730853699208 0.51503806187062418 1 0 0 forward_v I I I I #
loop $-1 $-1 $321 $84 #
coedge $-1 $214 $214 $215 $322 reversed $133 $-1 #
coedge $-1 $215 $215 $214 $322 forward $135 $-1 #
coedge $-1 $216 $216 $136 $217 forward $211 $-1 #
edge $-1 $323 0 $323 6.2831853071796004 $216 $324 forward 7 unknown #
loop $-1 $-1 $223 $137 #
plane-surface $-1 25.049710657000205 -41.243496288106996 13.592672659908459 0 -0.85716730853699208 0.51503806187062418 1 0 0 forward_v I I I I #
loop $-1 $-1 $325 $87 #
coedge $-1 $221 $221 $222 $326 reversed $138 $-1 #
coedge $-1 $222 $222 $221 $326 forward $140 $-1 #
coedge $-1 $223 $223 $141 $224 forward $218 $-1 #
edge $-1 $327 0 $327 6.2831853071796004 $223 $328 forward 7 unknown #
face $-1 $329 $330 $46 $-1 $331 reversed single #
loop $-1 $-1 $332 $142 #
plane-surface $-1 -2.715675682002086 78.45607284699814 148.28716324975875 -1 0 0 0 0.75470958851134928 0.65605901945558964 forward_v I I I I #
coedge $-1 $333 $334 $335 $336 reversed $143 $-1 #
coedge $-1 $230 $145 $337 $338 reversed $91 $-1 #
coedge $-1 $145 $229 $333 $339 reversed $91 $-1 #
coedge $-1 $335 $340 $145 $232 forward $341 $-1 #
edge $-1 $342 -2.0154598646079265 $343 7.2371552471568492 $231 $344 forward 7 unknown #
loop $-1 $-1 $238 $146 #
plane-surface $-1 -8.05396095562363 -12.872839179284469 68.896153271875392 0 0.75470958851134928 0.65605901945558964 1 0 0 forward_v I I I I #
loop $-1 $-1 $345 $93 #
coedge $-1 $236 $236 $237 $346 reversed $147 $-1 #
coedge $-1 $237 $237 $236 $346 forward $149 $-1 #
coedge $-1 $238 $238 $150 $239 forward $233 $-1 #
edge $-1 $347 1.6604730828637751e-015 $347 6.2831853071796022 $238 $348 forward 7 unknown #
face $-1 $349 $350 $36 $-1 $351 reversed single #
loop $-1 $-1 $249 $151 #
plane-surface $-1 0 -41.243496288106996 0 0 1 0 0 0 1 forward_v I I I I #
coedge $-1 $254 $253 $352 $353 forward $152 $-1 #
coedge $-1 $354 $154 $355 $356 forward $97 $-1 #
coedge $-1 $154 $354 $357 $358 forward $97 $-1 #
coedge $-1 $359 $360 $154 $247 reversed $361 $-1 #
edge $-1 $362 -41.243496288106996 $363 41.243496288106996 $246 $364 forward 7 unknown #
coedge $-1 $156 $155 $354 $365 reversed $61 $-1 #
coedge $-1 $366 $357 $155 $250 forward $241 $-1 #
edge $-1 $367 -17.286345427483329 $255 17.286345427483329 $155 $368 forward 7 unknown #
coedge $-1 $355 $369 $156 $252 reversed $350 $-1 #
edge $-1 $370 -17.286345427483329 $256 17.286345427483329 $251 $371 forward 7 unknown #
coedge $-1 $243 $157 $369 $372 forward $152 $-1 #
coedge $-1 $157 $243 $366 $373 forward $152 $-1 #
vertex $-1 $158 $374 #
vertex $-1 $372 $375 #
straight-curve $-1 -60.505996887112033 0 -17.286345427483329 0 1 0 I I #
face $-1 $376 $270 $37 $-1 $377 reversed single #
loop $-1 $-1 $378 $159 #
plane-surface $-1 -76.470641437087764 -19.160661840176914 0 1 0 0 0 0 -1 forward_v I I I I #
coedge $-1 $379 $380 $381 $382 forward $160 $-1 #
coedge $-1 $383 $162 $379 $384 forward $101 $-1 #
coedge $-1 $162 $383 $268 $385 forward $101 $-1 #
edge $-1 $271 13.989213177742426 $386 24.3321105026114 $162 $387 forward 7 unknown #
coedge $-1 $164 $163 $388 $389 forward $64 $-1 #
coedge $-1 $390 $391 $163 $267 forward $392 $-1 #
edge $-1 $393 -24.3321105026114 $272 -13.989213177742426 $266 $394 forward 7 unknown #
coedge $-1 $395 $165 $263 $385 reversed $270 $-1 #
coedge $-1 $165 $395 $390 $396 reversed $270 $-1 #
loop $-1 $-1 $165 $258 #
vertex $-1 $264 $397 #
vertex $-1 $396 $398 #
straight-curve $-1 -60.505996887112033 -13.989213177742426 0 0 0 1 I I #
face $-1 $-1 $399 $38 $-1 $400 reversed single #
loop $-1 $-1 $173 $167 #
plane-surface $-1 0 0 17.286345427483329 0 0 1 1 0 0 forward_v I I I I #
coedge $-1 $401 $402 $403 $404 reversed $168 $-1 #
coedge $-1 $405 $170 $172 $284 forward $105 $-1 #
coedge $-1 $170 $405 $401 $406 forward $105 $-1 #
coedge $-1 $403 $173 $170 $281 forward $275 $-1 #
edge $-1 $287 7.1669943335081001 $407 20.306969621615849 $280 $408 forward 7 unknown #
coedge $-1 $409 $410 $171 $283 forward $399 $-1 #
edge $-1 $411 -24.366555038333971 $286 -20.6728822707591 $282 $412 forward 7 unknown #
edge $-1 $287 -4.3091619696500194 $411 0 $172 $413 forward 7 unknown #
coedge $-1 $173 $403 $409 $414 forward $275 $-1 #
vertex $-1 $174 $415 #
vertex $-1 $174 $416 #
straight-curve $-1 -20.903976311070075 -72.48551064612694 17.286345427483329 0 1 0 I I #
coedge $-1 $289 $289 $-1 $417 reversed $177 $-1 #
edge $-1 $418 0 $418 6.2831853071796004 $178 $419 forward 7 unknown #
vertex $-1 $181 $420 #
ellipse-curve $-1 -31.415956541556273 -40.133805073539421 15.439509043695892 0 -0.85716730853699208 0.51503806187062418 0.5 0 0 1 I I #
coedge $-1 $293 $293 $-1 $421 reversed $184 $-1 #
edge $-1 $422 0 $422 6.2831853071796004 $185 $423 forward 7 unknown #
vertex $-1 $188 $424 #
ellipse-curve $-1 -27.473963955123949 -40.133805073539421 15.439509043695892 0 -0.85716730853699208 0.51503806187062418 0.5 0 0 1 I I #
coedge $-1 $297 $297 $-1 $425 reversed $191 $-1 #
edge $-1 $426 0 $426 6.2831853071796004 $192 $427 forward 7 unknown #
vertex $-1 $195 $428 #
ellipse-curve $-1 -23.531971368691622 -40.133805073539421 15.439509043695892 0 -0.85716730853699208 0.51503806187062418 0.5 0 0 1 I I #
face $-1 $-1 $313 $42 $-1 $429 forward single #
loop $-1 $-1 $430 $196 #
plane-surface $-1 0 -41.243496288106996 0 0 1 0 0 0 1 forward_v I I I I #
coedge $-1 $431 $432 $433 $434 reversed $197 $-1 #
coedge $-1 $435 $199 $201 $311 forward $124 $-1 #
coedge $-1 $199 $435 $431 $436 forward $124 $-1 #
coedge $-1 $433 $202 $199 $308 forward $313 $-1 #
edge $-1 $315 -19.094842972553977 $437 -5.9548676844462278 $307 $438 forward 7 unknown #
coedge $-1 $439 $440 $200 $310 forward $302 $-1 #
edge $-1 $441 -24.366555038333971 $314 -20.6728822707591 $309 $442 forward 7 unknown #
edge $-1 $315 -4.3091619696500194 $441 0 $201 $443 forward 7 unknown #
coedge $-1 $202 $433 $439 $444 forward $313 $-1 #
loop $-1 $-1 $433 $301 #
vertex $-1 $310 $445 #
vertex $-1 $203 $446 #
straight-curve $-1 31.619698301054079 -72.48551064612694 17.286345427483329 0 1 0 I I #
coedge $-1 $317 $317 $-1 $447 reversed $206 $-1 #
edge $-1 $448 0 $448 6.2831853071796004 $207 $449 forward 7 unknown #
vertex $-1 $210 $450 #
ellipse-curve $-1 21.107718070567884 -40.133805073539421 15.439509043695892 0 -0.85716730853699208 0.51503806187062418 0.5 0 0 1 I I #
coedge $-1 $321 $321 $-1 $451 reversed $213 $-1 #
edge $-1 $452 0 $452 6.2831853071796004 $214 $453 forward 7 unknown #
vertex $-1 $217 $454 #
ellipse-curve $-1 25.049710657000205 -40.133805073539421 15.439509043695892 0 -0.85716730853699208 0.51503806187062418 0.5 0 0 1 I I #
coedge $-1 $325 $325 $-1 $455 reversed $220 $-1 #
edge $-1 $456 0 $456 6.2831853071796004 $221 $457 forward 7 unknown #
vertex $-1 $224 $458 #
ellipse-curve $-1 28.991703243432539 -40.133805073539421 15.439509043695892 0 -0.85716730853699208 0.51503806187062418 0.5 0 0 1 I I #
face $-1 $-1 $341 $46 $-1 $459 forward single #
loop $-1 $-1 $460 $225 #
plane-surface $-1 0 41.243496288106996 0 0 -1 0 0 0 -1 forward_v I I I I #
coedge $-1 $461 $462 $463 $464 reversed $226 $-1 #
coedge $-1 $465 $228 $230 $339 forward $143 $-1 #
coedge $-1 $228 $465 $461 $466 forward $143 $-1 #
coedge $-1 $463 $231 $228 $336 forward $341 $-1 #
edge $-1 $343 -9.365265751433359 $467 1.311304795809729 $335 $468 forward 7 unknown #
coedge $-1 $469 $470 $229 $338 forward $330 $-1 #
edge $-1 $471 -67.501152577737173 $342 -56.857236197396048 $337 $472 forward 7 unknown #
edge $-1 $343 68.383665227033205 $471 82.486992576214035 $230 $473 forward 7 unknown #
coedge $-1 $231 $463 $469 $474 forward $341 $-1 #
loop $-1 $-1 $463 $329 #
vertex $-1 $338 $475 #
vertex $-1 $232 $476 #
straight-curve $-1 -13.392246229245174 39.22803642349907 17.286345427483326 0 -1 0 I I #
coedge $-1 $345 $345 $-1 $477 reversed $235 $-1 #
edge $-1 $478 0 $478 6.2831853071796004 $236 $479 forward 7 unknown #
vertex $-1 $239 $480 #
ellipse-curve $-1 -8.05396095562363 36.617188732224598 11.964387237312769 0 0.75470958851134928 0.65605901945558964 2 0 0 1 I I #
face $-1 $-1 $361 $36 $-1 $481 reversed single #
loop $-1 $-1 $482 $240 #
plane-surface $-1 0 41.243496288106996 0 0 -1 0 0 0 -1 forward_v I I I I #
coedge $-1 $360 $359 $243 $353 reversed $361 $-1 #
edge $-1 $483 -41.243496288106996 $484 41.243496288106996 $352 $485 forward 7 unknown #
coedge $-1 $245 $244 $248 $365 forward $97 $-1 #
coedge $-1 $482 $251 $244 $356 reversed $350 $-1 #
edge $-1 $363 -60.505996887112033 $370 60.505996887112033 $355 $486 forward 7 unknown #
coedge $-1 $249 $487 $245 $358 reversed $241 $-1 #
edge $-1 $367 -60.505996887112033 $362 60.505996887112033 $357 $488 forward 7 unknown #
coedge $-1 $352 $246 $487 $489 forward $361 $-1 #
coedge $-1 $246 $352 $482 $490 reversed $361 $-1 #
loop $-1 $-1 $359 $349 #
vertex $-1 $247 $491 #
vertex $-1 $247 $492 #
straight-curve $-1 60.505996887112033 0 17.286345427483329 0 1 0 I I #
edge $-1 $370 -41.243496288106996 $367 41.243496288106996 $248 $493 forward 7 unknown #
coedge $-1 $487 $249 $254 $373 reversed $241 $-1 #
vertex $-1 $365 $494 #
straight-curve $-1 -60.505996887112033 -41.243496288106996 0 0 0 -1 I I #
coedge $-1 $251 $482 $253 $372 reversed $350 $-1 #
vertex $-1 $356 $495 #
straight-curve $-1 -60.505996887112033 41.243496288106996 0 0 0 -1 I I #
edge $-1 $256 -60.505996887112033 $483 60.505996887112033 $369 $496 forward 7 unknown #
edge $-1 $484 -60.505996887112033 $255 60.505996887112033 $366 $497 forward 7 unknown #
point $-1 -60.505996887112033 -41.243496288106996 -17.286345427483329 #
point $-1 -60.505996887112033 41.243496288106996 -17.286345427483329 #
face $-1 $-1 $392 $37 $-1 $498 forward single #
plane-surface $-1 -68.488319162099899 -13.989213177742426 0 0 -1 0 0 0 -1 forward_v I I I I #
coedge $-1 $499 $500 $395 $501 forward $259 $-1 #
coedge $-1 $388 $261 $262 $384 reversed $160 $-1 #
coedge $-1 $261 $388 $391 $502 reversed $160 $-1 #
coedge $-1 $500 $499 $261 $382 reversed $259 $-1 #
edge $-1 $503 -17.286345427483329 $504 17.286345427483329 $381 $505 forward 7 unknown #
coedge $-1 $263 $262 $499 $506 forward $101 $-1 #
edge $-1 $386 -7.9823222749878724 $504 7.9823222749878653 $379 $507 forward 7 unknown #
edge $-1 $508 -7.9823222749878653 $271 7.9823222749878724 $268 $509 forward 7 unknown #
vertex $-1 $384 $510 #
straight-curve $-1 -60.505996887112033 0 -17.286345427483329 0 -1 0 I I #
coedge $-1 $380 $379 $265 $389 reversed $160 $-1 #
edge $-1 $393 -17.286345427483329 $386 17.286345427483329 $388 $511 forward 7 unknown #
coedge $-1 $512 $266 $269 $396 forward $392 $-1 #
coedge $-1 $266 $512 $380 $502 forward $392 $-1 #
loop $-1 $-1 $266 $376 #
vertex $-1 $267 $513 #
straight-curve $-1 -60.505996887112033 0 17.286345427483329 0 1 0 I I #
coedge $-1 $269 $268 $378 $501 reversed $270 $-1 #
edge $-1 $272 -7.9823222749878724 $514 7.9823222749878653 $269 $515 forward 7 unknown #
point $-1 -60.505996887112026 -13.989213177742426 -17.286345427483329 #
point $-1 -60.505996887112026 -13.989213177742426 17.286345427483329 #
loop $-1 $-1 $282 $274 #
plane-surface $-1 0 -41.243496288106996 0 0 1 0 0 0 1 forward_v I I I I #
coedge $-1 $402 $277 $279 $406 reversed $168 $-1 #
coedge $-1 $277 $401 $516 $517 reversed $168 $-1 #
coedge $-1 $285 $280 $277 $404 forward $275 $-1 #
edge $-1 $407 -33.461396787155088 $518 -31.242014358019944 $403 $519 forward 7 unknown #
coedge $-1 $279 $278 $410 $520 reversed $105 $-1 #
edge $-1 $521 0 $407 4.3091619696500194 $401 $522 forward 7 unknown #
vertex $-1 $281 $523 #
straight-curve $-1 -13.736981977561975 -39.024113858971845 17.286345427483329 -1 0 0 I I #
coedge $-1 $516 $282 $285 $414 reversed $399 $-1 #
coedge $-1 $282 $516 $405 $520 forward $399 $-1 #
vertex $-1 $283 $524 #
straight-curve $-1 -20.903976311070075 -41.243496288106996 37.959227698242429 0 0 1 I I #
straight-curve $-1 -20.903976311070075 -41.243496288106996 13.592672659908459 0 -0.51503806187062418 -0.85716730853699208 I I #
edge $-1 $518 -34.043951599177824 $286 -20.903976311070075 $409 $525 forward 7 unknown #
point $-1 -20.903976311070075 -41.243496288106996 17.286345427483329 #
point $-1 -20.903976311070075 -39.024113858971852 17.286345427483329 #
edge $-1 $526 1 $526 0 $289 $-1 forward 7 unknown #
vertex $-1 $290 $527 #
ellipse-curve $-1 -31.415956541556273 -39.276637765002427 14.924470981825269 0 -0.85716730853699208 0.51503806187062418 0.5 0 0 1 I I #
point $-1 -30.915956541556273 -40.133805073539421 15.439509043695892 #
edge $-1 $528 1 $528 0 $293 $-1 forward 7 unknown #
vertex $-1 $294 $529 #
ellipse-curve $-1 -27.473963955123949 -39.276637765002427 14.924470981825269 0 -0.85716730853699208 0.51503806187062418 0.5 0 0 1 I I #
point $-1 -26.973963955123949 -40.133805073539421 15.439509043695892 #
edge $-1 $530 1 $530 0 $297 $-1 forward 7 unknown #
vertex $-1 $298 $531 #
ellipse-curve $-1 -23.531971368691622 -39.276637765002427 14.924470981825269 0 -0.85716730853699208 0.51503806187062418 0.5 0 0 1 I I #
point $-1 -23.031971368691622 -40.133805073539421 15.439509043695892 #
plane-surface $-1 0 0 17.286345427483329 0 0 1 1 0 0 forward_v I I I I #
coedge $-1 $440 $439 $432 $532 forward $302 $-1 #
coedge $-1 $432 $304 $306 $436 reversed $197 $-1 #
coedge $-1 $304 $431 $430 $532 reversed $197 $-1 #
coedge $-1 $312 $307 $304 $434 forward $313 $-1 #
edge $-1 $437 -33.461396787155088 $533 -31.242014358019944 $433 $534 forward 7 unknown #
coedge $-1 $306 $305 $440 $535 reversed $124 $-1 #
edge $-1 $536 0 $437 4.3091619696500194 $431 $537 forward 7 unknown #
vertex $-1 $308 $538 #
straight-curve $-1 12.524855328500102 -39.024113858971845 17.286345427483329 -1 0 0 I I #
coedge $-1 $430 $309 $312 $444 reversed $302 $-1 #
coedge $-1 $309 $430 $435 $535 forward $302 $-1 #
vertex $-1 $310 $539 #
straight-curve $-1 31.619698301054079 -41.243496288106996 37.959227698242429 0 0 1 I I #
straight-curve $-1 31.619698301054079 -41.243496288106996 13.592672659908459 0 -0.51503806187062418 -0.85716730853699208 I I #
edge $-1 $533 18.47972301294633 $314 31.619698301054079 $439 $540 forward 7 unknown #
point $-1 31.619698301054079 -41.243496288106996 17.286345427483329 #
point $-1 31.619698301054079 -39.024113858971852 17.286345427483329 #
edge $-1 $541 1 $541 0 $317 $-1 forward 7 unknown #
vertex $-1 $318 $542 #
ellipse-curve $-1 21.107718070567884 -39.276637765002427 14.924470981825269 0 -0.85716730853699208 0.51503806187062418 0.5 0 0 1 I I #
point $-1 21.607718070567884 -40.133805073539421 15.439509043695892 #
edge $-1 $543 1 $543 0 $321 $-1 forward 7 unknown #
vertex $-1 $322 $544 #
ellipse-curve $-1 25.049710657000205 -39.276637765002427 14.924470981825269 0 -0.85716730853699208 0.51503806187062418 0.5 0 0 1 I I #
point $-1 25.549710657000205 -40.133805073539421 15.439509043695892 #
edge $-1 $545 1 $545 0 $325 $-1 forward 7 unknown #
vertex $-1 $326 $546 #
ellipse-curve $-1 28.991703243432539 -39.276637765002427 14.924470981825269 0 -0.85716730853699208 0.51503806187062418 0.5 0 0 1 I I #
point $-1 29.491703243432539 -40.133805073539421 15.439509043695892 #
plane-surface $-1 0 0 17.286345427483329 0 0 1 1 0 0 forward_v I I I I #
coedge $-1 $470 $469 $462 $547 forward $330 $-1 #
coedge $-1 $462 $332 $334 $466 reversed $226 $-1 #
coedge $-1 $332 $461 $460 $547 reversed $226 $-1 #
coedge $-1 $340 $335 $332 $464 forward $341 $-1 #
edge $-1 $467 -7.2371552471568492 $548 2.0154598646079265 $463 $549 forward 7 unknown #
coedge $-1 $334 $333 $470 $550 reversed $143 $-1 #
edge $-1 $551 -82.486992576214035 $467 -68.383665227033205 $461 $552 forward 7 unknown #
vertex $-1 $336 $553 #
straight-curve $-1 -4.026980477811815 31.990881176342207 17.286345427483326 1 0 0 I I #
coedge $-1 $460 $337 $340 $474 reversed $330 $-1 #
coedge $-1 $337 $460 $465 $550 forward $330 $-1 #
vertex $-1 $338 $554 #
straight-curve $-1 -13.392246229245174 41.243496288106996 74.143581624879374 0 0 1 I I #
straight-curve $-1 -13.392246229245174 -12.872839179284469 68.896153271875392 0 0.65605901945558964 -0.75470958851134928 I I #
edge $-1 $548 2.715675682002086 $342 13.392246229245174 $469 $555 forward 7 unknown #
point $-1 -13.392246229245174 41.243496288106996 17.286345427483329 #
point $-1 -13.392246229245174 31.990881176342221 17.286345427483319 #
edge $-1 $556 1 $556 0 $345 $-1 forward 7 unknown #
vertex $-1 $346 $557 #
ellipse-curve $-1 -8.05396095562363 32.585422179578416 8.4596261325542308 0 0.75470958851134928 0.65605901945558964 2 0 0 1 I I #
point $-1 -6.05396095562363 36.617188732224605 11.964387237312771 #
plane-surface $-1 60.505996887112033 0 0 -1 0 0 0 0 1 forward_v I I I I #
coedge $-1 $369 $355 $360 $490 forward $350 $-1 #
vertex $-1 $353 $558 #
vertex $-1 $489 $559 #
straight-curve $-1 60.505996887112033 0 -17.286345427483329 0 -1 0 I I #
straight-curve $-1 0 41.243496288106996 17.286345427483329 -1 0 0 I I #
coedge $-1 $357 $366 $359 $489 reversed $241 $-1 #
straight-curve $-1 0 -41.243496288106996 17.286345427483329 1 0 0 I I #
edge $-1 $362 -17.286345427483329 $484 17.286345427483329 $359 $560 forward 7 unknown #
edge $-1 $363 -17.286345427483329 $483 17.286345427483329 $360 $561 forward 7 unknown #
point $-1 60.505996887112033 -41.243496288106996 17.286345427483329 #
point $-1 60.505996887112033 41.243496288106996 17.286345427483329 #
straight-curve $-1 -60.505996887112033 0 17.286345427483329 0 -1 0 I I #
point $-1 -60.505996887112033 -41.243496288106996 17.286345427483329 #
point $-1 -60.505996887112033 41.243496288106996 17.286345427483329 #
straight-curve $-1 0 41.243496288106996 -17.286345427483329 1 0 0 I I #
straight-curve $-1 0 -41.243496288106996 -17.286345427483329 -1 0 0 I I #
plane-surface $-1 0 0 17.286345427483329 0 0 1 1 0 0 forward_v I I I I #
coedge $-1 $381 $378 $383 $506 reversed $259 $-1 #
coedge $-1 $378 $381 $512 $562 reversed $259 $-1 #
edge $-1 $514 -17.286345427483329 $508 17.286345427483329 $395 $563 forward 7 unknown #
edge $-1 $503 -7.9823222749878653 $393 7.9823222749878724 $380 $564 forward 7 unknown #
vertex $-1 $562 $565 #
vertex $-1 $506 $566 #
straight-curve $-1 -76.470641437087764 -24.3321105026114 0 0 0 -1 I I #
edge $-1 $504 -5.1714486624344858 $508 5.1714486624344875 $499 $567 forward 7 unknown #
straight-curve $-1 -68.488319162099899 -24.3321105026114 -17.286345427483329 -1 0 0 I I #
vertex $-1 $385 $568 #
straight-curve $-1 -68.488319162099899 -13.989213177742426 -17.286345427483329 1 0 0 I I #
point $-1 -60.505996887112026 -24.3321105026114 -17.286345427483329 #
straight-curve $-1 -60.505996887112033 -24.3321105026114 0 0 0 -1 I I #
coedge $-1 $391 $390 $500 $562 forward $392 $-1 #
point $-1 -60.505996887112026 -24.3321105026114 17.286345427483329 #
vertex $-1 $396 $569 #
straight-curve $-1 -68.488319162099899 -13.989213177742426 17.286345427483329 -1 0 0 I I #
coedge $-1 $410 $409 $402 $517 forward $399 $-1 #
edge $-1 $518 20.6728822707591 $521 24.366555038333971 $516 $570 forward 7 unknown #
vertex $-1 $414 $571 #
straight-curve $-1 -34.043951599177824 -72.48551064612694 17.286345427483329 0 -1 0 I I #
edge $-1 $521 -20.306969621615849 $411 -7.1669943335081001 $410 $572 forward 7 unknown #
vertex $-1 $520 $573 #
straight-curve $-1 -34.043951599177824 -41.243496288106996 13.592672659908459 0 0.51503806187062418 0.85716730853699208 I I #
point $-1 -34.043951599177824 -39.024113858971852 17.286345427483329 #
point $-1 -20.903976311070075 -41.243496288106996 13.592672659908459 #
straight-curve $-1 0 -41.243496288106996 17.286345427483329 1 0 0 I I #
vertex $-1 $417 $574 #
point $-1 -30.915956541556273 -39.276637765002427 14.924470981825269 #
vertex $-1 $421 $575 #
point $-1 -26.973963955123949 -39.276637765002427 14.924470981825269 #
vertex $-1 $425 $576 #
point $-1 -23.031971368691622 -39.276637765002427 14.924470981825269 #
edge $-1 $533 20.6728822707591 $536 24.366555038333971 $430 $577 forward 7 unknown #
vertex $-1 $444 $578 #
straight-curve $-1 18.47972301294633 -72.48551064612694 17.286345427483329 0 -1 0 I I #
edge $-1 $536 5.9548676844462278 $441 19.094842972553977 $440 $579 forward 7 unknown #
vertex $-1 $535 $580 #
straight-curve $-1 18.47972301294633 -41.243496288106996 13.592672659908459 0 0.51503806187062418 0.85716730853699208 I I #
point $-1 18.47972301294633 -39.024113858971852 17.286345427483329 #
point $-1 31.619698301054079 -41.243496288106996 13.592672659908459 #
straight-curve $-1 0 -41.243496288106996 17.286345427483329 1 0 0 I I #
vertex $-1 $447 $581 #
point $-1 21.607718070567884 -39.276637765002427 14.924470981825269 #
vertex $-1 $451 $582 #
point $-1 25.549710657000205 -39.276637765002427 14.924470981825269 #
vertex $-1 $455 $583 #
point $-1 29.491703243432539 -39.276637765002427 14.924470981825269 #
edge $-1 $548 56.857236197396048 $551 67.501152577737173 $460 $584 forward 7 unknown #
vertex $-1 $474 $585 #
straight-curve $-1 -2.715675682002086 39.22803642349907 17.286345427483326 0 1 0 I I #
edge $-1 $551 -1.311304795809729 $471 9.365265751433359 $470 $586 forward 7 unknown #
vertex $-1 $550 $587 #
straight-curve $-1 -2.715675682002086 -12.872839179284469 68.896153271875392 0 -0.65605901945558964 0.75470958851134928 I I #
point $-1 -2.715675682002086 31.990881176342221 17.286345427483319 #
point $-1 -13.392246229245174 41.243496288106996 6.6424290471421941 #
straight-curve $-1 0 41.243496288106996 17.286345427483329 -1 0 0 I I #
vertex $-1 $477 $588 #
point $-1 -6.05396095562363 32.585422179578416 8.4596261325542308 #
point $-1 60.505996887112033 41.243496288106996 -17.286345427483329 #
point $-1 60.505996887112033 -41.243496288106996 -17.286345427483329 #
straight-curve $-1 60.505996887112033 -41.243496288106996 0 0 0 -1 I I #
straight-curve $-1 60.505996887112033 41.243496288106996 0 0 0 -1 I I #
edge $-1 $514 -5.1714486624344875 $503 5.1714486624344858 $500 $589 forward 7 unknown #
straight-curve $-1 -76.470641437087764 -13.989213177742426 0 0 0 -1 I I #
straight-curve $-1 -68.488319162099899 -24.3321105026114 17.286345427483329 1 0 0 I I #
point $-1 -76.470641437087764 -24.3321105026114 17.286345427483329 #
point $-1 -76.470641437087764 -24.3321105026114 -17.286345427483329 #
straight-curve $-1 -76.470641437087764 -19.160661840176914 -17.286345427483329 0 1 0 I I #
point $-1 -76.470641437087764 -13.989213177742426 -17.286345427483329 #
point $-1 -76.470641437087764 -13.989213177742426 17.286345427483329 #
straight-curve $-1 -34.043951599177824 -41.243496288106996 37.959227698242429 0 0 -1 I I #
point $-1 -34.043951599177824 -41.243496288106996 17.286345427483329 #
straight-curve $-1 -13.736981977561975 -41.243496288106996 13.592672659908462 1 0 0 I I #
point $-1 -34.043951599177824 -41.243496288106996 13.592672659908459 #
point $-1 -31.415956541556273 -38.848054110733933 14.666951950889956 #
point $-1 -27.473963955123949 -38.848054110733933 14.666951950889956 #
point $-1 -23.531971368691622 -38.848054110733933 14.666951950889956 #
straight-curve $-1 18.47972301294633 -41.243496288106996 37.959227698242429 0 0 -1 I I #
point $-1 18.47972301294633 -41.243496288106996 17.286345427483329 #
straight-curve $-1 12.524855328500102 -41.243496288106996 13.592672659908462 1 0 0 I I #
point $-1 18.47972301294633 -41.243496288106996 13.592672659908459 #
point $-1 21.107718070567884 -38.848054110733933 14.666951950889956 #
point $-1 25.049710657000205 -38.848054110733933 14.666951950889956 #
point $-1 28.991703243432539 -38.848054110733933 14.666951950889956 #
straight-curve $-1 -2.715675682002086 41.243496288106996 74.143581624879374 0 0 -1 I I #
point $-1 -2.715675682002086 41.243496288106996 17.286345427483329 #
straight-curve $-1 -4.026980477811815 41.243496288106996 6.6424290471422012 -1 0 0 I I #
point $-1 -2.715675682002086 41.243496288106996 6.6424290471421941 #
point $-1 -8.05396095562363 31.076003002555719 7.1475080936430508 #
straight-curve $-1 -76.470641437087764 -19.160661840176914 17.286345427483329 0 -1 0 I I #
End-of-ACIS-data 