500 0 9 0           
7 Unknown 11 ACIS 5.0 NT 24 Thu Mar 25 18:24:09 1999 
-1 9.9999999999999995e-007 1e-010 
body $-1 $9 $-1 $10 #
body $-1 $11 $-1 $12 #
body $-1 $13 $-1 $14 #
body $-1 $15 $-1 $16 #
body $-1 $17 $-1 $18 #
body $-1 $19 $-1 $20 #
body $-1 $21 $-1 $22 #
body $-1 $23 $-1 $24 #
body $-1 $25 $-1 $26 #
lump $-1 $-1 $27 $0 #
transform $-1 1 0 0 0 1 0 0 0 1 56.401867732779934 38.959236839400852 12.553703611716971 1 rotate no_reflect no_shear #
lump $-1 $-1 $28 $1 #
transform $-1 1 0 0 0 1 0 0 0 1 56.401867732779934 38.959236839400852 12.553703611716971 1 rotate no_reflect no_shear #
lump $-1 $-1 $29 $2 #
transform $-1 1 0 0 0 1 0 0 0 1 56.401867732779934 38.959236839400852 12.553703611716971 1 rotate no_reflect no_shear #
lump $-1 $-1 $30 $3 #
transform $-1 1 0 0 0 1 0 0 0 1 56.401867732779934 38.959236839400852 12.553703611716971 1 rotate no_reflect no_shear #
lump $-1 $-1 $31 $4 #
transform $-1 1 0 0 0 1 0 0 0 1 56.401867732779934 38.959236839400852 12.553703611716971 1 rotate no_reflect no_shear #
lump $-1 $-1 $32 $5 #
transform $-1 1 0 0 0 1 0 0 0 1 56.401867732779934 38.959236839400852 12.553703611716971 1 rotate no_reflect no_shear #
lump $-1 $-1 $33 $6 #
transform $-1 1 0 0 0 1 0 0 0 1 56.401867732779934 38.959236839400852 12.553703611716971 1 rotate no_reflect no_shear #
lump $-1 $-1 $34 $7 #
transform $-1 1 0 0 0 1 0 0 0 1 56.401867732779934 38.959236839400852 12.553703611716971 1 rotate no_reflect no_shear #
lump $-1 $-1 $35 $8 #
transform $-1 1 0 0 0 1 0 0 0 1 56.401867732779934 38.959236839400852 12.553703611716971 1 rotate no_reflect no_shear #
shell $-1 $-1 $-1 $36 $-1 $9 #
shell $-1 $-1 $-1 $37 $-1 $11 #
shell $-1 $-1 $-1 $38 $-1 $13 #
shell $-1 $-1 $-1 $39 $-1 $15 #
shell $-1 $-1 $-1 $40 $-1 $17 #
shell $-1 $-1 $-1 $41 $-1 $19 #
shell $-1 $-1 $-1 $42 $-1 $21 #
shell $-1 $-1 $-1 $43 $-1 $23 #
shell $-1 $-1 $-1 $44 $-1 $25 #
face $-1 $45 $46 $27 $-1 $47 forward single #
face $-1 $48 $49 $28 $-1 $50 forward single #
face $-1 $51 $52 $29 $-1 $53 reversed single #
face $-1 $54 $55 $30 $-1 $56 forward single #
face $-1 $57 $58 $31 $-1 $59 forward single #
face $-1 $60 $61 $32 $-1 $62 forward single #
face $-1 $63 $64 $33 $-1 $65 reversed single #
face $-1 $66 $67 $34 $-1 $68 forward single #
face $-1 $69 $70 $35 $-1 $71 forward single #
face $-1 $72 $73 $27 $-1 $74 reversed single #
loop $-1 $-1 $75 $36 #
plane-surface $-1 0 0 12.553703611716971 0 0 1 1 0 0 forward_v I I I I #
face $-1 $76 $77 $28 $-1 $78 reversed single #
loop $-1 $-1 $79 $37 #
plane-surface $-1 0 -32.126469782995365 -8.8874719963123141 0 0 1 1 0 0 forward_v I I I I #
face $-1 $80 $81 $29 $-1 $82 reversed single #
loop $-1 $-1 $83 $38 #
plane-surface $-1 -117.83918616778453 5.4126849156142001 96.557781793315968 0 1 0 -0.54463904215088732 0 0.83867056331134215 forward_v I I I I #
face $-1 $84 $85 $30 $-1 $86 forward single #
loop $-1 $87 $88 $39 #
cone-surface $-1 -47.467851956712181 9.1922488334542365 6.0645514504466052 0.54463904215088732 0 -0.83867056331134215 0.83867056331134215 0 0.54463904215088732 1 I I 0 1 1 forward I I I I #
face $-1 $89 $90 $31 $-1 $91 forward single #
loop $-1 $92 $93 $40 #
cone-surface $-1 -47.467851956712181 14.861594710214291 6.0645514504466052 0.54463904215088732 0 -0.83867056331134215 0.83867056331134215 0 0.54463904215088732 1 I I 0 1 1 forward I I I I #
face $-1 $94 $95 $32 $-1 $96 forward single #
loop $-1 $97 $98 $41 #
cone-surface $-1 -47.467851956712181 20.530940586974346 6.0645514504466052 0.54463904215088732 0 -0.83867056331134215 0.83867056331134215 0 0.54463904215088732 1 I I 0 1 1 forward I I I I #
face $-1 $99 $100 $33 $-1 $101 reversed single #
loop $-1 $-1 $102 $42 #
plane-surface $-1 42.498038138962428 35.474032282789565 160.45194194825305 0 -1 0 -0.64278761758704617 0 -0.76604443648966558 forward_v I I I I #
face $-1 $103 $104 $34 $-1 $105 forward single #
loop $-1 $106 $107 $43 #
cone-surface $-1 48.118949988800331 23.198353393353493 4.9989199734164913 -0.64278761758704617 0 -0.76604443648966558 1.5320888729793312 0 -1.2855752351740923 1 I I 0 1 2 forward I I I I #
face $-1 $108 $109 $35 $-1 $110 forward single #
loop $-1 $111 $112 $44 #
cone-surface $-1 48.118949988800331 30.563760727015143 4.9989199734164913 -0.64278761758704617 0 -0.76604443648966558 1.5320888729793312 0 -1.2855752351740923 1 I I 0 1 2 forward I I I I #
face $-1 $113 $114 $27 $-1 $115 reversed single #
loop $-1 $-1 $116 $45 #
plane-surface $-1 0 0 -12.553703611716971 0 0 1 1 0 0 forward_v I I I I #
coedge $-1 $117 $118 $119 $120 forward $46 $-1 #
face $-1 $121 $122 $28 $-1 $123 reversed single #
loop $-1 $-1 $124 $48 #
plane-surface $-1 0 -25.293702726589878 -10.720587804014642 0 -1 0 0 0 -1 forward_v I I I I #
coedge $-1 $125 $126 $127 $128 reversed $49 $-1 #
face $-1 $129 $130 $29 $-1 $131 reversed single #
loop $-1 $-1 $132 $51 #
plane-surface $-1 -56.401867732779927 14.861594710214291 1.9526094267912555 -0.54463904215088732 0 0.83867056331134215 0.83867056331134215 0 0.54463904215088732 forward_v I I I I #
coedge $-1 $133 $134 $135 $136 reversed $52 $-1 #
face $-1 $-1 $137 $30 $-1 $138 forward single #
loop $-1 $139 $140 $54 #
cone-surface $-1 -46.42364326426172 9.1922488334542365 4.4566110999834319 0.54463904215088732 0 -0.83867056331134215 0.41933528165567108 0 0.27231952107544366 1 I I -0.70710678118654746 0.70710678118654746 0.5 forward I I I I #
loop $-1 $-1 $141 $39 #
coedge $-1 $88 $88 $142 $143 reversed $55 $-1 #
face $-1 $-1 $144 $31 $-1 $145 forward single #
loop $-1 $146 $147 $57 #
cone-surface $-1 -46.42364326426172 14.861594710214291 4.4566110999834319 0.54463904215088732 0 -0.83867056331134215 0.41933528165567108 0 0.27231952107544366 1 I I -0.70710678118654746 0.70710678118654746 0.5 forward I I I I #
loop $-1 $-1 $148 $40 #
coedge $-1 $93 $93 $149 $150 reversed $58 $-1 #
face $-1 $-1 $151 $32 $-1 $152 forward single #
loop $-1 $153 $154 $60 #
cone-surface $-1 -46.42364326426172 20.530940586974346 4.4566110999834319 0.54463904215088732 0 -0.83867056331134215 0.41933528165567108 0 0.27231952107544366 1 I I -0.70710678118654746 0.70710678118654746 0.5 forward I I I I #
loop $-1 $-1 $155 $41 #
coedge $-1 $98 $98 $156 $157 reversed $61 $-1 #
face $-1 $158 $159 $33 $-1 $160 reversed single #
loop $-1 $-1 $161 $63 #
plane-surface $-1 -30.01080623586418 26.881057060184311 74.039267979608937 0.64278761758704617 0 0.76604443648966558 0.76604443648966558 0 -0.64278761758704617 forward_v I I I I #
coedge $-1 $162 $163 $164 $165 reversed $64 $-1 #
face $-1 $-1 $166 $34 $-1 $167 forward single #
loop $-1 $168 $169 $66 #
cone-surface $-1 45.761761264874522 23.198353393353493 2.1897319020936745 -0.64278761758704617 0 -0.76604443648966558 0.76604443648966558 0 -0.64278761758704617 1 I I -0.70710678118654746 0.70710678118654746 1 forward I I I I #
loop $-1 $-1 $170 $43 #
coedge $-1 $107 $107 $171 $172 reversed $67 $-1 #
face $-1 $-1 $173 $35 $-1 $174 forward single #
loop $-1 $175 $176 $69 #
cone-surface $-1 45.761761264874522 30.563760727015143 2.1897319020936745 -0.64278761758704617 0 -0.76604443648966558 0.76604443648966558 0 -0.64278761758704617 1 I I -0.70710678118654746 0.70710678118654746 1 forward I I I I #
loop $-1 $-1 $177 $44 #
coedge $-1 $112 $112 $178 $179 reversed $70 $-1 #
face $-1 $180 $181 $27 $-1 $182 reversed single #
loop $-1 $-1 $183 $72 #
plane-surface $-1 0 -38.959236839400852 0 0 1 0 0 0 1 forward_v I I I I #
coedge $-1 $184 $185 $186 $187 forward $73 $-1 #
coedge $-1 $188 $75 $189 $190 forward $46 $-1 #
coedge $-1 $75 $188 $191 $192 forward $46 $-1 #
coedge $-1 $193 $194 $75 $120 reversed $195 $-1 #
edge $-1 $196 -38.959236839400852 $197 38.959236839400852 $119 $198 forward 7 unknown #
face $-1 $199 $200 $28 $-1 $201 reversed single #
loop $-1 $-1 $202 $76 #
plane-surface $-1 0 0 -12.553703611716971 0 0 1 1 0 0 forward_v I I I I #
coedge $-1 $203 $204 $205 $206 reversed $77 $-1 #
coedge $-1 $207 $79 $204 $208 forward $49 $-1 #
coedge $-1 $79 $207 $209 $210 reversed $49 $-1 #
coedge $-1 $211 $205 $79 $128 forward $200 $-1 #
edge $-1 $212 9.2304678350921954 $213 22.896001947903169 $127 $214 forward 7 unknown #
face $-1 $215 $216 $29 $-1 $217 forward single #
loop $-1 $-1 $218 $80 #
plane-surface $-1 -117.83918616778453 24.310504504814382 96.557781793315968 0 -1 0 0.54463904215088732 0 -0.83867056331134215 forward_v I I I I #
coedge $-1 $219 $220 $221 $222 reversed $81 $-1 #
coedge $-1 $134 $83 $223 $224 reversed $52 $-1 #
coedge $-1 $83 $133 $219 $225 reversed $52 $-1 #
coedge $-1 $221 $226 $83 $136 forward $216 $-1 #
edge $-1 $227 2.5177253511123325 $228 18.841978560497793 $135 $229 forward 7 unknown #
loop $-1 $-1 $142 $84 #
plane-surface $-1 -56.401867732779927 14.861594710214291 1.9526094267912555 -0.54463904215088732 0 0.83867056331134215 0.83867056331134215 0 0.54463904215088732 forward_v I I I I #
loop $-1 $-1 $230 $54 #
coedge $-1 $140 $140 $141 $231 reversed $85 $-1 #
coedge $-1 $141 $141 $140 $231 forward $87 $-1 #
coedge $-1 $142 $142 $88 $143 forward $137 $-1 #
edge $-1 $232 0 $232 6.2831853071796004 $142 $233 forward 7 unknown #
loop $-1 $-1 $149 $89 #
plane-surface $-1 -56.401867732779927 14.861594710214291 1.9526094267912555 -0.54463904215088732 0 0.83867056331134215 0.83867056331134215 0 0.54463904215088732 forward_v I I I I #
loop $-1 $-1 $234 $57 #
coedge $-1 $147 $147 $148 $235 reversed $90 $-1 #
coedge $-1 $148 $148 $147 $235 forward $92 $-1 #
coedge $-1 $149 $149 $93 $150 forward $144 $-1 #
edge $-1 $236 0 $236 6.2831853071796004 $149 $237 forward 7 unknown #
loop $-1 $-1 $156 $94 #
plane-surface $-1 -56.401867732779927 14.861594710214291 1.9526094267912555 -0.54463904215088732 0 0.83867056331134215 0.83867056331134215 0 0.54463904215088732 forward_v I I I I #
loop $-1 $-1 $238 $60 #
coedge $-1 $154 $154 $155 $239 reversed $95 $-1 #
coedge $-1 $155 $155 $154 $239 forward $97 $-1 #
coedge $-1 $156 $156 $98 $157 forward $151 $-1 #
edge $-1 $240 0 $240 6.2831853071796004 $156 $241 forward 7 unknown #
face $-1 $242 $243 $33 $-1 $244 reversed single #
loop $-1 $-1 $245 $99 #
plane-surface $-1 42.498038138962428 18.288081837579057 160.45194194825305 0 1 0 0.64278761758704617 0 0.76604443648966558 forward_v I I I I #
coedge $-1 $246 $247 $248 $249 reversed $100 $-1 #
coedge $-1 $163 $102 $250 $251 reversed $64 $-1 #
coedge $-1 $102 $162 $246 $252 reversed $64 $-1 #
coedge $-1 $248 $253 $102 $165 forward $254 $-1 #
edge $-1 $255 -35.15284866329872 $256 -22.015815388017067 $164 $257 forward 7 unknown #
loop $-1 $-1 $171 $103 #
plane-surface $-1 -30.01080623586418 26.881057060184311 74.039267979608937 0.64278761758704617 0 0.76604443648966558 0.76604443648966558 0 -0.64278761758704617 forward_v I I I I #
loop $-1 $-1 $258 $66 #
coedge $-1 $169 $169 $170 $259 reversed $104 $-1 #
coedge $-1 $170 $170 $169 $259 forward $106 $-1 #
coedge $-1 $171 $171 $107 $172 forward $166 $-1 #
edge $-1 $260 0 $260 6.2831853071796004 $171 $261 forward 7 unknown #
loop $-1 $-1 $178 $108 #
plane-surface $-1 -30.01080623586418 26.881057060184311 74.039267979608937 0.64278761758704617 0 0.76604443648966558 0.76604443648966558 0 -0.64278761758704617 forward_v I I I I #
loop $-1 $-1 $262 $69 #
coedge $-1 $176 $176 $177 $263 reversed $109 $-1 #
coedge $-1 $177 $177 $176 $263 forward $111 $-1 #
coedge $-1 $178 $178 $112 $179 forward $173 $-1 #
edge $-1 $264 0 $264 6.2831853071796004 $178 $265 forward 7 unknown #
face $-1 $266 $267 $27 $-1 $268 reversed single #
loop $-1 $-1 $269 $113 #
plane-surface $-1 -56.401867732779934 0 0 1 0 0 0 0 -1 forward_v I I I I #
coedge $-1 $270 $191 $271 $272 forward $114 $-1 #
coedge $-1 $273 $116 $270 $274 forward $73 $-1 #
coedge $-1 $116 $273 $275 $276 forward $73 $-1 #
coedge $-1 $194 $193 $116 $187 reversed $195 $-1 #
edge $-1 $277 -38.959236839400852 $278 38.959236839400852 $186 $279 forward 7 unknown #
coedge $-1 $118 $117 $280 $281 forward $46 $-1 #
coedge $-1 $282 $283 $117 $190 reversed $267 $-1 #
edge $-1 $197 -56.401867732779934 $284 56.401867732779934 $189 $285 forward 7 unknown #
coedge $-1 $183 $286 $118 $192 reversed $114 $-1 #
edge $-1 $287 -56.401867732779934 $196 56.401867732779934 $191 $288 forward 7 unknown #
coedge $-1 $186 $119 $286 $289 forward $195 $-1 #
coedge $-1 $119 $186 $282 $290 reversed $195 $-1 #
loop $-1 $-1 $193 $266 #
vertex $-1 $120 $291 #
vertex $-1 $120 $292 #
straight-curve $-1 56.401867732779934 0 12.553703611716971 0 1 0 I I #
face $-1 $293 $294 $28 $-1 $295 reversed single #
loop $-1 $-1 $205 $121 #
plane-surface $-1 56.401867732779934 0 0 -1 0 0 0 0 1 forward_v I I I I #
coedge $-1 $296 $297 $203 $298 forward $122 $-1 #
coedge $-1 $299 $124 $202 $298 reversed $77 $-1 #
coedge $-1 $124 $299 $125 $208 reversed $77 $-1 #
coedge $-1 $127 $300 $124 $206 forward $200 $-1 #
edge $-1 $301 -7.1934097097096483 $212 -3.5271780943049933 $205 $302 forward 7 unknown #
coedge $-1 $126 $125 $303 $304 reversed $49 $-1 #
edge $-1 $212 -56.401867732779934 $305 56.401867732779934 $204 $306 forward 7 unknown #
coedge $-1 $307 $308 $126 $210 forward $294 $-1 #
edge $-1 $213 -56.401867732779934 $309 56.401867732779934 $209 $310 forward 7 unknown #
coedge $-1 $300 $127 $308 $311 forward $200 $-1 #
vertex $-1 $128 $312 #
vertex $-1 $311 $313 #
straight-curve $-1 56.401867732779934 -16.063234891497682 -8.8874719963123141 0 -1 0 I I #
face $-1 $-1 $314 $29 $-1 $315 reversed single #
loop $-1 $-1 $135 $129 #
plane-surface $-1 0 0 12.553703611716971 0 0 1 1 0 0 forward_v I I I I #
coedge $-1 $316 $317 $318 $319 reversed $130 $-1 #
coedge $-1 $320 $132 $134 $225 forward $81 $-1 #
coedge $-1 $132 $320 $316 $321 forward $81 $-1 #
coedge $-1 $318 $135 $132 $222 forward $216 $-1 #
edge $-1 $228 -2.0181124394929455 $322 16.879707149707237 $221 $323 forward 7 unknown #
coedge $-1 $324 $325 $133 $224 forward $314 $-1 #
edge $-1 $326 -46.326281469866736 $227 -35.725187284941015 $223 $327 forward 7 unknown #
edge $-1 $228 -19.464440417381567 $326 8.4987301443310198e-015 $134 $328 forward 7 unknown #
coedge $-1 $135 $318 $324 $329 forward $216 $-1 #
vertex $-1 $224 $330 #
vertex $-1 $136 $331 #
straight-curve $-1 -58.919593083892266 5.4126849156142001 12.553703611716969 1 0 0 I I #
coedge $-1 $230 $230 $-1 $332 reversed $139 $-1 #
edge $-1 $333 0 $333 6.2831853071796004 $140 $334 forward 7 unknown #
vertex $-1 $143 $335 #
ellipse-curve $-1 -48.239741128087196 9.1922488334542365 7.2531565192541132 -0.54463904215088732 0 0.83867056331134215 0.83867056331134215 0 0.54463904215088732 1 I I #
coedge $-1 $234 $234 $-1 $336 reversed $146 $-1 #
edge $-1 $337 0 $337 6.2831853071796004 $147 $338 forward 7 unknown #
vertex $-1 $150 $339 #
ellipse-curve $-1 -48.239741128087196 14.861594710214291 7.2531565192541132 -0.54463904215088732 0 0.83867056331134215 0.83867056331134215 0 0.54463904215088732 1 I I #
coedge $-1 $238 $238 $-1 $340 reversed $153 $-1 #
edge $-1 $341 0 $341 6.2831853071796004 $154 $342 forward 7 unknown #
vertex $-1 $157 $343 #
ellipse-curve $-1 -48.239741128087196 20.530940586974346 7.2531565192541132 -0.54463904215088732 0 0.83867056331134215 0.83867056331134215 0 0.54463904215088732 1 I I #
face $-1 $-1 $254 $33 $-1 $344 forward single #
loop $-1 $-1 $345 $158 #
plane-surface $-1 56.401867732779934 0 0 -1 0 0 0 0 1 forward_v I I I I #
coedge $-1 $346 $347 $348 $349 reversed $159 $-1 #
coedge $-1 $350 $161 $163 $252 forward $100 $-1 #
coedge $-1 $161 $350 $346 $351 forward $100 $-1 #
coedge $-1 $348 $164 $161 $249 forward $254 $-1 #
edge $-1 $256 -22.03350375269741 $352 -4.8475533074869013 $248 $353 forward 7 unknown #
coedge $-1 $354 $355 $162 $251 forward $243 $-1 #
edge $-1 $356 -78.695547369344197 $255 -67.672267362409556 $250 $357 forward 7 unknown #
edge $-1 $256 95.65455631939831 $356 112.80373546555987 $163 $358 forward 7 unknown #
coedge $-1 $164 $348 $354 $359 forward $254 $-1 #
loop $-1 $-1 $348 $242 #
vertex $-1 $251 $360 #
vertex $-1 $165 $361 #
straight-curve $-1 21.249019069481214 35.474032282789565 12.553703611716969 -1 0 0 I I #
coedge $-1 $258 $258 $-1 $362 reversed $168 $-1 #
edge $-1 $363 0 $363 6.2831853071796004 $169 $364 forward 7 unknown #
vertex $-1 $172 $365 #
ellipse-curve $-1 49.833351095139108 23.198353393353493 7.0420636082496539 0.64278761758704617 0 0.76604443648966558 1.5320888729793312 0 -1.2855752351740923 1 I I #
coedge $-1 $262 $262 $-1 $366 reversed $175 $-1 #
edge $-1 $367 0 $367 6.2831853071796004 $176 $368 forward 7 unknown #
vertex $-1 $179 $369 #
ellipse-curve $-1 49.833351095139108 30.563760727015143 7.0420636082496539 0.64278761758704617 0 0.76604443648966558 1.5320888729793312 0 -1.2855752351740923 1 I I #
face $-1 $-1 $195 $27 $-1 $370 reversed single #
loop $-1 $-1 $282 $180 #
plane-surface $-1 0 38.959236839400852 0 0 -1 0 0 0 -1 forward_v I I I I #
coedge $-1 $371 $280 $283 $372 forward $181 $-1 #
coedge $-1 $286 $183 $184 $274 reversed $114 $-1 #
coedge $-1 $280 $371 $183 $272 reversed $181 $-1 #
edge $-1 $287 -12.553703611716971 $373 12.553703611716971 $271 $374 forward 7 unknown #
coedge $-1 $185 $184 $371 $375 forward $73 $-1 #
edge $-1 $278 -56.401867732779934 $373 56.401867732779934 $270 $376 forward 7 unknown #
coedge $-1 $283 $282 $185 $276 reversed $267 $-1 #
edge $-1 $377 -56.401867732779934 $277 56.401867732779934 $275 $378 forward 7 unknown #
vertex $-1 $187 $379 #
vertex $-1 $289 $380 #
straight-curve $-1 56.401867732779934 0 -12.553703611716971 0 -1 0 I I #
coedge $-1 $269 $271 $188 $281 reversed $181 $-1 #
edge $-1 $284 -38.959236839400852 $287 38.959236839400852 $280 $381 forward 7 unknown #
coedge $-1 $275 $189 $194 $290 forward $267 $-1 #
coedge $-1 $189 $275 $269 $372 reversed $267 $-1 #
vertex $-1 $190 $382 #
straight-curve $-1 0 38.959236839400852 12.553703611716971 -1 0 0 I I #
coedge $-1 $191 $270 $193 $289 reversed $114 $-1 #
vertex $-1 $281 $383 #
straight-curve $-1 0 -38.959236839400852 12.553703611716971 1 0 0 I I #
edge $-1 $196 -12.553703611716971 $278 12.553703611716971 $193 $384 forward 7 unknown #
edge $-1 $197 -12.553703611716971 $277 12.553703611716971 $194 $385 forward 7 unknown #
point $-1 56.401867732779934 -38.959236839400852 12.553703611716971 #
point $-1 56.401867732779934 38.959236839400852 12.553703611716971 #
face $-1 $-1 $386 $28 $-1 $387 reversed single #
loop $-1 $-1 $209 $199 #
plane-surface $-1 0 -38.959236839400852 0 0 1 0 0 0 1 forward_v I I I I #
coedge $-1 $388 $202 $300 $389 forward $122 $-1 #
coedge $-1 $202 $388 $390 $391 forward $122 $-1 #
edge $-1 $392 -56.401867732779934 $301 56.401867732779934 $202 $393 forward 7 unknown #
coedge $-1 $204 $203 $394 $395 reversed $77 $-1 #
coedge $-1 $205 $211 $296 $389 reversed $200 $-1 #
vertex $-1 $389 $396 #
straight-curve $-1 56.401867732779934 -25.293702726589878 -5.3602939020073208 0 0 1 I I #
coedge $-1 $394 $397 $207 $304 forward $386 $-1 #
edge $-1 $309 -22.896001947903169 $305 -9.2304678350921954 $303 $398 forward 7 unknown #
vertex $-1 $304 $399 #
straight-curve $-1 0 -25.293702726589878 -8.8874719963123141 -1 0 0 I I #
coedge $-1 $400 $209 $397 $401 forward $294 $-1 #
coedge $-1 $209 $400 $211 $311 reversed $294 $-1 #
vertex $-1 $401 $402 #
straight-curve $-1 0 -38.959236839400852 -8.8874719963123141 -1 0 0 I I #
edge $-1 $213 8.8874719963123141 $403 12.553703611716971 $211 $404 forward 7 unknown #
point $-1 56.401867732779934 -25.293702726589878 -8.8874719963123141 #
point $-1 56.401867732779934 -38.959236839400852 -8.8874719963123141 #
loop $-1 $-1 $223 $215 #
plane-surface $-1 -56.401867732779934 0 0 1 0 0 0 0 -1 forward_v I I I I #
coedge $-1 $317 $218 $220 $321 reversed $130 $-1 #
coedge $-1 $218 $316 $405 $406 reversed $130 $-1 #
coedge $-1 $226 $221 $218 $319 forward $216 $-1 #
edge $-1 $322 -18.841978560497793 $407 -2.5177253511123325 $318 $408 forward 7 unknown #
coedge $-1 $220 $219 $325 $409 reversed $81 $-1 #
edge $-1 $410 -8.4987301443310198e-015 $322 19.464440417381567 $316 $411 forward 7 unknown #
vertex $-1 $222 $412 #
straight-curve $-1 -40.077614523394473 7.4307973551071456 12.553703611716971 0 1 0 I I #
coedge $-1 $405 $223 $226 $329 reversed $314 $-1 #
coedge $-1 $223 $405 $320 $409 forward $314 $-1 #
vertex $-1 $224 $413 #
straight-curve $-1 -56.401867732779934 5.4126849156142001 48.278890896657984 0 0 1 I I #
straight-curve $-1 -56.401867732779927 5.4126849156142001 1.9526094267912555 -0.83867056331134215 0 -0.54463904215088732 I I #
edge $-1 $407 -24.310504504814382 $227 -5.4126849156142001 $324 $414 forward 7 unknown #
point $-1 -56.401867732779934 5.4126849156142001 12.553703611716971 #
point $-1 -40.077614523394473 5.4126849156142001 12.553703611716971 #
edge $-1 $415 1 $415 0 $230 $-1 forward 7 unknown #
vertex $-1 $231 $416 #
ellipse-curve $-1 -46.695962785337166 9.1922488334542365 4.8759463816391033 -0.54463904215088732 0 0.83867056331134215 0.83867056331134215 0 0.54463904215088732 1 I I #
point $-1 -47.40107056477585 9.1922488334542365 7.7977955614049952 #
edge $-1 $417 1 $417 0 $234 $-1 forward 7 unknown #
vertex $-1 $235 $418 #
ellipse-curve $-1 -46.695962785337166 14.861594710214291 4.8759463816391033 -0.54463904215088732 0 0.83867056331134215 0.83867056331134215 0 0.54463904215088732 1 I I #
point $-1 -47.40107056477585 14.861594710214291 7.7977955614049952 #
edge $-1 $419 1 $419 0 $238 $-1 forward 7 unknown #
vertex $-1 $239 $420 #
ellipse-curve $-1 -46.695962785337166 20.530940586974346 4.8759463816391033 -0.54463904215088732 0 0.83867056331134215 0.83867056331134215 0 0.54463904215088732 1 I I #
point $-1 -47.40107056477585 20.530940586974346 7.7977955614049952 #
plane-surface $-1 0 0 12.553703611716971 0 0 1 1 0 0 forward_v I I I I #
coedge $-1 $355 $354 $347 $421 forward $243 $-1 #
coedge $-1 $347 $245 $247 $351 reversed $159 $-1 #
coedge $-1 $245 $346 $345 $421 reversed $159 $-1 #
coedge $-1 $253 $248 $245 $349 forward $254 $-1 #
edge $-1 $352 22.015815388017067 $422 35.15284866329872 $348 $423 forward 7 unknown #
coedge $-1 $247 $246 $355 $424 reversed $100 $-1 #
edge $-1 $425 -112.80373546555987 $352 -95.65455631939831 $346 $426 forward 7 unknown #
vertex $-1 $249 $427 #
straight-curve $-1 43.264834457498267 13.440528530092156 12.553703611716969 0 -1 0 I I #
coedge $-1 $345 $250 $253 $359 reversed $243 $-1 #
coedge $-1 $250 $345 $350 $424 forward $243 $-1 #
vertex $-1 $251 $428 #
straight-curve $-1 56.401867732779934 35.474032282789565 80.225970974126525 0 0 1 I I #
straight-curve $-1 -30.01080623586418 35.474032282789565 74.039267979608937 0.76604443648966558 0 -0.64278761758704617 I I #
edge $-1 $422 18.288081837579057 $255 35.474032282789565 $354 $429 forward 7 unknown #
point $-1 56.401867732779934 35.474032282789565 12.553703611716971 #
point $-1 43.264834457498281 35.474032282789565 12.553703611716969 #
edge $-1 $430 1 $430 0 $258 $-1 forward 7 unknown #
vertex $-1 $259 $431 #
ellipse-curve $-1 46.404548882461569 23.198353393353493 2.9557763385833402 0.64278761758704617 0 0.76604443648966558 1.5320888729793312 0 -1.2855752351740923 1 I I #
point $-1 51.36543996811843 23.198353393353493 5.7564883730755483 #
edge $-1 $432 1 $432 0 $262 $-1 forward 7 unknown #
vertex $-1 $263 $433 #
ellipse-curve $-1 46.404548882461569 30.563760727015143 2.9557763385833402 0.64278761758704617 0 0.76604443648966558 1.5320888729793312 0 -1.2855752351740923 1 I I #
point $-1 51.36543996811843 30.563760727015143 5.7564883730755483 #
plane-surface $-1 56.401867732779934 0 0 -1 0 0 0 0 1 forward_v I I I I #
coedge $-1 $271 $269 $273 $375 reversed $181 $-1 #
edge $-1 $284 -12.553703611716971 $377 12.553703611716971 $283 $434 forward 7 unknown #
vertex $-1 $375 $435 #
straight-curve $-1 -56.401867732779934 -38.959236839400852 0 0 0 -1 I I #
edge $-1 $373 -38.959236839400852 $377 38.959236839400852 $371 $436 forward 7 unknown #
straight-curve $-1 0 -38.959236839400852 -12.553703611716971 -1 0 0 I I #
vertex $-1 $276 $437 #
straight-curve $-1 0 38.959236839400852 -12.553703611716971 1 0 0 I I #
point $-1 56.401867732779934 38.959236839400852 -12.553703611716971 #
point $-1 56.401867732779934 -38.959236839400852 -12.553703611716971 #
straight-curve $-1 -56.401867732779934 0 12.553703611716971 0 -1 0 I I #
point $-1 -56.401867732779934 38.959236839400852 12.553703611716971 #
point $-1 -56.401867732779934 -38.959236839400852 12.553703611716971 #
straight-curve $-1 56.401867732779934 -38.959236839400852 0 0 0 -1 I I #
straight-curve $-1 56.401867732779934 38.959236839400852 0 0 0 -1 I I #
loop $-1 $-1 $394 $293 #
plane-surface $-1 -56.401867732779934 0 0 1 0 0 0 0 -1 forward_v I I I I #
coedge $-1 $297 $296 $400 $438 forward $122 $-1 #
edge $-1 $301 25.293702726589878 $403 38.959236839400852 $300 $439 forward 7 unknown #
coedge $-1 $397 $394 $297 $391 reversed $386 $-1 #
edge $-1 $440 -38.959236839400852 $392 -25.293702726589878 $390 $441 forward 7 unknown #
vertex $-1 $395 $442 #
straight-curve $-1 0 -25.293702726589878 -12.553703611716971 1 0 0 I I #
coedge $-1 $390 $303 $299 $395 forward $386 $-1 #
edge $-1 $305 3.5271780943049933 $392 7.1934097097096483 $394 $443 forward 7 unknown #
point $-1 56.401867732779934 -25.293702726589878 -12.553703611716969 #
coedge $-1 $303 $390 $307 $401 reversed $386 $-1 #
straight-curve $-1 -56.401867732779934 -16.063234891497682 -8.8874719963123141 0 1 0 I I #
point $-1 -56.401867732779934 -25.293702726589878 -8.8874719963123141 #
coedge $-1 $308 $307 $388 $438 reversed $294 $-1 #
edge $-1 $309 8.8874719963123141 $440 12.553703611716971 $397 $444 forward 7 unknown #
point $-1 -56.401867732779934 -38.959236839400852 -8.8874719963123141 #
vertex $-1 $311 $445 #
straight-curve $-1 56.401867732779934 -38.959236839400852 0 0 0 -1 I I #
coedge $-1 $325 $324 $317 $406 forward $314 $-1 #
edge $-1 $407 35.725187284941015 $410 46.326281469866736 $405 $446 forward 7 unknown #
vertex $-1 $329 $447 #
straight-curve $-1 -58.919593083892266 24.310504504814382 12.553703611716969 -1 0 0 I I #
edge $-1 $410 -16.879707149707237 $326 2.0181124394929455 $325 $448 forward 7 unknown #
vertex $-1 $409 $449 #
straight-curve $-1 -56.401867732779927 24.310504504814382 1.9526094267912555 0.83867056331134215 0 0.54463904215088732 I I #
point $-1 -40.077614523394473 24.310504504814382 12.553703611716971 #
point $-1 -56.401867732779934 5.4126849156142001 1.9526094267912508 #
straight-curve $-1 -56.401867732779934 0 12.553703611716971 0 -1 0 I I #
vertex $-1 $332 $450 #
point $-1 -45.857292222025819 9.1922488334542365 5.4205854237899906 #
vertex $-1 $336 $451 #
point $-1 -45.857292222025819 14.861594710214291 5.4205854237899906 #
vertex $-1 $340 $452 #
point $-1 -45.857292222025819 20.530940586974346 5.4205854237899906 #
edge $-1 $422 67.672267362409556 $425 78.695547369344197 $345 $453 forward 7 unknown #
vertex $-1 $359 $454 #
straight-curve $-1 21.249019069481214 18.288081837579057 12.553703611716969 1 0 0 I I #
edge $-1 $425 4.8475533074869013 $356 22.03350375269741 $355 $455 forward 7 unknown #
vertex $-1 $424 $456 #
straight-curve $-1 -30.01080623586418 18.288081837579057 74.039267979608937 -0.76604443648966558 0 0.64278761758704617 I I #
point $-1 43.264834457498281 18.288081837579057 12.553703611716969 #
point $-1 56.401867732779934 35.474032282789565 1.5304236047823281 #
straight-curve $-1 56.401867732779934 0 12.553703611716971 0 1 0 I I #
vertex $-1 $362 $457 #
point $-1 47.936637755440898 23.198353393353493 1.6702011034092479 #
vertex $-1 $366 $458 #
point $-1 47.936637755440898 30.563760727015143 1.6702011034092479 #
straight-curve $-1 -56.401867732779934 38.959236839400852 0 0 0 -1 I I #
point $-1 -56.401867732779934 -38.959236839400852 -12.553703611716971 #
straight-curve $-1 -56.401867732779934 0 -12.553703611716971 0 1 0 I I #
point $-1 -56.401867732779934 38.959236839400852 -12.553703611716971 #
edge $-1 $403 -56.401867732779934 $440 56.401867732779934 $400 $459 forward 7 unknown #
straight-curve $-1 56.401867732779934 0 -12.553703611716971 0 -1 0 I I #
vertex $-1 $391 $460 #
straight-curve $-1 -56.401867732779934 0 -12.553703611716971 0 1 0 I I #
point $-1 -56.401867732779934 -25.293702726589878 -12.553703611716969 #
straight-curve $-1 -56.401867732779934 -25.293702726589878 -5.3602939020073208 0 0 -1 I I #
straight-curve $-1 -56.401867732779934 -38.959236839400852 0 0 0 -1 I I #
point $-1 56.401867732779934 -38.959236839400852 -12.553703611716971 #
straight-curve $-1 -56.401867732779934 24.310504504814382 48.278890896657984 0 0 -1 I I #
point $-1 -56.401867732779934 24.310504504814382 12.553703611716971 #
straight-curve $-1 -56.401867732779934 7.4307973551071456 1.9526094267912519 0 -1 0 I I #
point $-1 -56.401867732779934 24.310504504814382 1.9526094267912508 #
point $-1 -46.151323743186275 9.1922488334542365 4.0372758183277604 #
point $-1 -46.151323743186275 14.861594710214291 4.0372758183277604 #
point $-1 -46.151323743186275 20.530940586974346 4.0372758183277604 #
straight-curve $-1 56.401867732779934 18.288081837579057 80.225970974126525 0 0 -1 I I #
point $-1 56.401867732779934 18.288081837579057 12.553703611716971 #
straight-curve $-1 56.401867732779927 13.440528530092156 1.5304236047823352 0 1 0 I I #
point $-1 56.401867732779934 18.288081837579057 1.5304236047823281 #
point $-1 45.118973647287476 23.198353393353493 1.4236874656040088 #
point $-1 45.118973647287476 30.563760727015143 1.4236874656040088 #
straight-curve $-1 0 -38.959236839400852 -12.553703611716971 -1 0 0 I I #
point $-1 -56.401867732779934 -38.959236839400852 -12.553703611716971 #
End-of-ACIS-data 