500 0 8 0           
7 Unknown 11 ACIS 5.0 NT 24 Fri Mar 26 01:37:21 1999 
-1 9.9999999999999995e-007 1e-010 
body $-1 $8 $-1 $9 #
body $-1 $10 $-1 $11 #
body $-1 $12 $-1 $13 #
body $-1 $14 $-1 $15 #
body $-1 $16 $-1 $17 #
body $-1 $18 $-1 $19 #
body $-1 $20 $-1 $21 #
body $-1 $22 $-1 $23 #
lump $-1 $-1 $24 $0 #
transform $-1 1 0 0 0 1 0 0 0 1 46.331980346079895 28.162440435526836 8.9027071981968948 1 rotate no_reflect no_shear #
lump $-1 $-1 $25 $1 #
transform $-1 1 0 0 0 1 0 0 0 1 46.331980346079895 28.162440435526836 8.9027071981968948 1 rotate no_reflect no_shear #
lump $-1 $-1 $26 $2 #
transform $-1 1 0 0 0 1 0 0 0 1 46.331980346079895 28.162440435526836 8.9027071981968948 1 rotate no_reflect no_shear #
lump $-1 $-1 $27 $3 #
transform $-1 1 0 0 0 1 0 0 0 1 46.331980346079895 28.162440435526836 8.9027071981968948 1 rotate no_reflect no_shear #
lump $-1 $-1 $28 $4 #
transform $-1 1 0 0 0 1 0 0 0 1 46.331980346079895 28.162440435526836 8.9027071981968948 1 rotate no_reflect no_shear #
lump $-1 $-1 $29 $5 #
transform $-1 1 0 0 0 1 0 0 0 1 46.331980346079895 28.162440435526836 8.9027071981968948 1 rotate no_reflect no_shear #
lump $-1 $-1 $30 $6 #
transform $-1 1 0 0 0 1 0 0 0 1 46.331980346079895 28.162440435526836 8.9027071981968948 1 rotate no_reflect no_shear #
lump $-1 $-1 $31 $7 #
transform $-1 1 0 0 0 1 0 0 0 1 46.331980346079895 28.162440435526836 8.9027071981968948 1 rotate no_reflect no_shear #
shell $-1 $-1 $-1 $32 $-1 $8 #
shell $-1 $-1 $-1 $33 $-1 $10 #
shell $-1 $-1 $-1 $34 $-1 $12 #
shell $-1 $-1 $-1 $35 $-1 $14 #
shell $-1 $-1 $-1 $36 $-1 $16 #
shell $-1 $-1 $-1 $37 $-1 $18 #
shell $-1 $-1 $-1 $38 $-1 $20 #
shell $-1 $-1 $-1 $39 $-1 $22 #
face $-1 $40 $41 $24 $-1 $42 forward single #
face $-1 $43 $44 $25 $-1 $45 forward single #
face $-1 $46 $47 $26 $-1 $48 reversed single #
face $-1 $49 $50 $27 $-1 $51 forward single #
face $-1 $52 $53 $28 $-1 $54 reversed single #
face $-1 $55 $56 $29 $-1 $57 forward single #
face $-1 $58 $59 $30 $-1 $60 reversed single #
face $-1 $61 $62 $31 $-1 $63 forward single #
face $-1 $64 $65 $24 $-1 $66 reversed single #
loop $-1 $-1 $67 $32 #
plane-surface $-1 0 0 8.9027071981968948 0 0 1 1 0 0 forward_v I I I I #
face $-1 $68 $69 $25 $-1 $70 reversed single #
loop $-1 $-1 $71 $33 #
plane-surface $-1 0 -28.162440435526836 0 0 1 0 0 0 1 forward_v I I I I #
face $-1 $72 $73 $26 $-1 $74 reversed single #
loop $-1 $-1 $75 $34 #
plane-surface $-1 21.32710566476073 -10.26710761031968 129.37607483151453 0 -1 0 -0.55919291073839883 0 -0.82903756765294845 forward_v I I I I #
face $-1 $76 $77 $27 $-1 $78 forward single #
loop $-1 $79 $80 $35 #
cone-surface $-1 39.186729864994668 -13.63168844050853 3.2005591549153269 -0.55919291073839883 0 -0.82903756765294845 0.82903756765294845 0 -0.55919291073839883 1 I I 0 1 1 forward I I I I #
face $-1 $81 $82 $28 $-1 $83 reversed single #
loop $-1 $-1 $84 $36 #
plane-surface $-1 21.32710566476073 25.266340048022254 129.37607483151453 0 -1 0 -0.55919291073839883 0 -0.82903756765294845 forward_v I I I I #
face $-1 $85 $86 $29 $-1 $87 forward single #
loop $-1 $88 $89 $37 #
cone-surface $-1 39.186729864994668 21.901759217833405 3.2005591549153269 -0.55919291073839883 0 -0.82903756765294845 0.82903756765294845 0 -0.55919291073839883 1 I I 0 1 1 forward I I I I #
face $-1 $90 $91 $30 $-1 $92 reversed single #
loop $-1 $-1 $93 $38 #
plane-surface $-1 -108.33627329735614 -14.50463077610967 72.481971642542064 0 1 0 -0.66913061440640931 0 0.74314481823134659 forward_v I I I I #
face $-1 $94 $95 $31 $-1 $96 forward single #
loop $-1 $97 $98 $39 #
cone-surface $-1 -42.226772775209753 -11.452617173607337 4.9601530303863219 0.66913061440640931 0 -0.74314481823134659 0.74314481823134659 0 0.66913061440640931 1 I I 0 1 1 forward I I I I #
face $-1 $99 $100 $24 $-1 $101 reversed single #
loop $-1 $-1 $102 $40 #
plane-surface $-1 0 0 -8.9027071981968948 0 0 1 1 0 0 forward_v I I I I #
coedge $-1 $103 $104 $105 $106 forward $41 $-1 #
face $-1 $107 $108 $25 $-1 $109 reversed single #
loop $-1 $-1 $110 $43 #
plane-surface $-1 0 0 -8.9027071981968948 0 0 1 1 0 0 forward_v I I I I #
coedge $-1 $111 $112 $113 $114 forward $44 $-1 #
face $-1 $115 $116 $26 $-1 $117 reversed single #
loop $-1 $-1 $118 $46 #
plane-surface $-1 -30.489924235236678 -13.63168844050853 52.554170250197956 0.55919291073839883 0 0.82903756765294845 0.82903756765294845 0 -0.55919291073839883 forward_v I I I I #
coedge $-1 $119 $120 $121 $122 reversed $47 $-1 #
face $-1 $-1 $123 $27 $-1 $124 forward single #
loop $-1 $125 $126 $49 #
cone-surface $-1 37.814858161390951 -13.63168844050853 1.1666757518054478 -0.55919291073839883 0 -0.82903756765294845 0.41451878382647422 0 -0.27959645536919941 1 I I -0.70710678118654746 0.70710678118654746 0.5 forward I I I I #
loop $-1 $-1 $127 $35 #
coedge $-1 $80 $80 $128 $129 reversed $50 $-1 #
face $-1 $130 $131 $28 $-1 $132 reversed single #
loop $-1 $-1 $133 $52 #
plane-surface $-1 -30.489924235236678 21.901759217833405 52.554170250197956 0.55919291073839883 0 0.82903756765294845 0.82903756765294845 0 -0.55919291073839883 forward_v I I I I #
coedge $-1 $134 $135 $136 $137 reversed $53 $-1 #
face $-1 $-1 $138 $29 $-1 $139 forward single #
loop $-1 $140 $141 $55 #
cone-surface $-1 37.814858161390951 21.901759217833405 1.1666757518054478 -0.55919291073839883 0 -0.82903756765294845 0.41451878382647422 0 -0.27959645536919941 1 I I -0.70710678118654746 0.70710678118654746 0.5 forward I I I I #
loop $-1 $-1 $142 $37 #
coedge $-1 $89 $89 $143 $144 reversed $56 $-1 #
face $-1 $145 $146 $30 $-1 $147 reversed single #
loop $-1 $-1 $148 $58 #
plane-surface $-1 -46.331980346079902 -11.452617173607333 3.6192294173703345 -0.66913061440640931 0 0.74314481823134659 0.74314481823134659 0 0.66913061440640931 forward_v I I I I #
coedge $-1 $149 $150 $151 $152 reversed $59 $-1 #
face $-1 $-1 $153 $31 $-1 $154 forward single #
loop $-1 $155 $156 $61 #
cone-surface $-1 -40.720948105846631 -11.452617173607337 3.287765343873355 0.66913061440640931 0 -0.74314481823134659 0.3715724091156733 0 0.33456530720320465 1 I I -0.70710678118654746 0.70710678118654746 0.5 forward I I I I #
loop $-1 $-1 $157 $39 #
coedge $-1 $98 $98 $158 $159 reversed $62 $-1 #
face $-1 $160 $161 $24 $-1 $162 reversed single #
loop $-1 $-1 $163 $64 #
plane-surface $-1 0 -28.162440435526836 0 0 1 0 0 0 1 forward_v I I I I #
coedge $-1 $164 $165 $166 $167 forward $65 $-1 #
coedge $-1 $168 $67 $169 $170 forward $41 $-1 #
coedge $-1 $67 $168 $171 $172 forward $41 $-1 #
coedge $-1 $173 $174 $67 $106 reversed $175 $-1 #
edge $-1 $176 -28.162440435526836 $177 28.162440435526836 $105 $178 forward 7 unknown #
face $-1 $179 $180 $25 $-1 $181 forward single #
loop $-1 $-1 $182 $68 #
plane-surface $-1 46.331980346079895 0 0 -1 0 0 0 0 1 forward_v I I I I #
coedge $-1 $183 $184 $185 $186 forward $69 $-1 #
coedge $-1 $185 $71 $182 $187 reversed $44 $-1 #
coedge $-1 $71 $185 $188 $189 reversed $44 $-1 #
coedge $-1 $190 $191 $71 $114 reversed $180 $-1 #
edge $-1 $192 -46.331980346079895 $193 46.331980346079895 $113 $194 forward 7 unknown #
face $-1 $195 $196 $26 $-1 $197 reversed single #
loop $-1 $-1 $198 $72 #
plane-surface $-1 21.32710566476073 -16.996269270697379 129.37607483151453 0 1 0 0.55919291073839883 0 0.82903756765294845 forward_v I I I I #
coedge $-1 $199 $200 $201 $202 reversed $73 $-1 #
coedge $-1 $120 $75 $203 $204 reversed $47 $-1 #
coedge $-1 $75 $119 $199 $205 reversed $47 $-1 #
coedge $-1 $201 $206 $75 $122 forward $207 $-1 #
edge $-1 $208 -35.668427513699527 $209 -23.562477047998133 $121 $210 forward 7 unknown #
loop $-1 $-1 $128 $76 #
plane-surface $-1 -30.489924235236678 -13.63168844050853 52.554170250197956 0.55919291073839883 0 0.82903756765294845 0.82903756765294845 0 -0.55919291073839883 forward_v I I I I #
loop $-1 $-1 $211 $49 #
coedge $-1 $126 $126 $127 $212 reversed $77 $-1 #
coedge $-1 $127 $127 $126 $212 forward $79 $-1 #
coedge $-1 $128 $128 $80 $129 forward $123 $-1 #
edge $-1 $213 0 $213 6.2831853071796004 $128 $214 forward 7 unknown #
face $-1 $215 $216 $28 $-1 $217 reversed single #
loop $-1 $-1 $218 $81 #
plane-surface $-1 21.32710566476073 18.537178387644555 129.37607483151453 0 1 0 0.55919291073839883 0 0.82903756765294845 forward_v I I I I #
coedge $-1 $219 $220 $221 $222 reversed $82 $-1 #
coedge $-1 $135 $84 $223 $224 reversed $53 $-1 #
coedge $-1 $84 $134 $219 $225 reversed $53 $-1 #
coedge $-1 $221 $226 $84 $137 forward $227 $-1 #
edge $-1 $228 -35.668427513699527 $229 -23.562477047998133 $136 $230 forward 7 unknown #
loop $-1 $-1 $143 $85 #
plane-surface $-1 -30.489924235236678 21.901759217833405 52.554170250197956 0.55919291073839883 0 0.82903756765294845 0.82903756765294845 0 -0.55919291073839883 forward_v I I I I #
loop $-1 $-1 $231 $55 #
coedge $-1 $141 $141 $142 $232 reversed $86 $-1 #
coedge $-1 $142 $142 $141 $232 forward $88 $-1 #
coedge $-1 $143 $143 $89 $144 forward $138 $-1 #
edge $-1 $233 0 $233 6.2831853071796004 $143 $234 forward 7 unknown #
face $-1 $235 $236 $30 $-1 $237 forward single #
loop $-1 $-1 $238 $90 #
plane-surface $-1 -108.33627329735614 -8.4006035711049964 72.481971642542064 0 -1 0 0.66913061440640931 0 -0.74314481823134659 forward_v I I I I #
coedge $-1 $239 $240 $241 $242 reversed $91 $-1 #
coedge $-1 $150 $93 $243 $244 reversed $59 $-1 #
coedge $-1 $93 $149 $239 $245 reversed $59 $-1 #
coedge $-1 $241 $246 $93 $152 forward $236 $-1 #
edge $-1 $247 7.8361563025981766 $248 13.704052720018616 $151 $249 forward 7 unknown #
loop $-1 $-1 $158 $94 #
plane-surface $-1 -46.331980346079902 -11.452617173607333 3.6192294173703345 -0.66913061440640931 0 0.74314481823134659 0.74314481823134659 0 0.66913061440640931 forward_v I I I I #
loop $-1 $-1 $250 $61 #
coedge $-1 $156 $156 $157 $251 reversed $95 $-1 #
coedge $-1 $157 $157 $156 $251 forward $97 $-1 #
coedge $-1 $158 $158 $98 $159 forward $153 $-1 #
edge $-1 $252 0 $252 6.2831853071796004 $158 $253 forward 7 unknown #
face $-1 $254 $255 $24 $-1 $256 reversed single #
loop $-1 $-1 $257 $99 #
plane-surface $-1 -46.331980346079895 0 0 1 0 0 0 0 -1 forward_v I I I I #
coedge $-1 $258 $171 $259 $260 forward $100 $-1 #
coedge $-1 $261 $102 $258 $262 forward $65 $-1 #
coedge $-1 $102 $261 $263 $264 forward $65 $-1 #
coedge $-1 $174 $173 $102 $167 reversed $175 $-1 #
edge $-1 $265 -28.162440435526836 $266 28.162440435526836 $166 $267 forward 7 unknown #
coedge $-1 $104 $103 $268 $269 forward $41 $-1 #
coedge $-1 $270 $271 $103 $170 reversed $255 $-1 #
edge $-1 $177 -46.331980346079895 $272 46.331980346079895 $169 $273 forward 7 unknown #
coedge $-1 $163 $274 $104 $172 reversed $100 $-1 #
edge $-1 $275 -46.331980346079895 $176 46.331980346079895 $171 $276 forward 7 unknown #
coedge $-1 $166 $105 $274 $277 forward $175 $-1 #
coedge $-1 $105 $166 $270 $278 reversed $175 $-1 #
loop $-1 $-1 $173 $254 #
vertex $-1 $106 $279 #
vertex $-1 $106 $280 #
straight-curve $-1 46.331980346079895 0 8.9027071981968948 0 1 0 I I #
face $-1 $281 $282 $25 $-1 $283 reversed single #
loop $-1 $-1 $191 $107 #
plane-surface $-1 0 -32.29747582418927 -4.0039495662827846 0 0 1 1 0 0 forward_v I I I I #
coedge $-1 $284 $285 $111 $187 forward $108 $-1 #
coedge $-1 $286 $110 $285 $287 forward $69 $-1 #
coedge $-1 $110 $286 $288 $289 forward $69 $-1 #
coedge $-1 $112 $111 $110 $186 reversed $44 $-1 #
edge $-1 $290 -46.331980346079895 $291 46.331980346079895 $110 $292 forward 7 unknown #
edge $-1 $291 -8.9027071981968948 $193 -4.0039495662827846 $182 $293 forward 7 unknown #
coedge $-1 $288 $294 $112 $189 forward $295 $-1 #
edge $-1 $192 4.0039495662827846 $290 8.9027071981968948 $188 $296 forward 7 unknown #
coedge $-1 $297 $113 $294 $298 forward $180 $-1 #
coedge $-1 $113 $297 $284 $299 forward $180 $-1 #
vertex $-1 $189 $300 #
vertex $-1 $299 $301 #
straight-curve $-1 0 -28.162440435526836 -4.0039495662827846 1 0 0 I I #
face $-1 $-1 $207 $26 $-1 $302 forward single #
loop $-1 $-1 $303 $115 #
plane-surface $-1 46.331980346079895 0 0 -1 0 0 0 0 1 forward_v I I I I #
coedge $-1 $304 $305 $306 $307 reversed $116 $-1 #
coedge $-1 $308 $118 $120 $205 forward $73 $-1 #
coedge $-1 $118 $308 $304 $309 forward $73 $-1 #
coedge $-1 $306 $121 $118 $202 forward $207 $-1 #
edge $-1 $209 3.4512633900654155 $310 10.180425050443114 $201 $311 forward 7 unknown #
coedge $-1 $312 $313 $119 $204 forward $196 $-1 #
edge $-1 $314 -63.950897065556717 $208 -55.785330217560372 $203 $315 forward 7 unknown #
edge $-1 $209 78.061545870387562 $314 92.663960692159776 $120 $316 forward 7 unknown #
coedge $-1 $121 $306 $312 $317 forward $207 $-1 #
loop $-1 $-1 $306 $195 #
vertex $-1 $204 $318 #
vertex $-1 $122 $319 #
straight-curve $-1 10.663552832380365 -10.26710761031968 8.902707198196893 -1 0 0 I I #
coedge $-1 $211 $211 $-1 $320 reversed $125 $-1 #
edge $-1 $321 0 $321 6.2831853071796004 $126 $322 forward 7 unknown #
vertex $-1 $129 $323 #
ellipse-curve $-1 40.279005113229189 -13.63168844050853 4.8199237741987329 0.55919291073839883 0 0.82903756765294845 0.82903756765294845 0 -0.55919291073839883 1 I I #
face $-1 $-1 $227 $28 $-1 $324 forward single #
loop $-1 $-1 $325 $130 #
plane-surface $-1 46.331980346079895 0 0 -1 0 0 0 0 1 forward_v I I I I #
coedge $-1 $326 $327 $328 $329 reversed $131 $-1 #
coedge $-1 $330 $133 $135 $225 forward $82 $-1 #
coedge $-1 $133 $330 $326 $331 forward $82 $-1 #
coedge $-1 $328 $136 $133 $222 forward $227 $-1 #
edge $-1 $229 -14.315460439105552 $332 -7.5862987787278531 $221 $333 forward 7 unknown #
coedge $-1 $334 $335 $134 $224 forward $216 $-1 #
edge $-1 $336 -63.950897065556717 $228 -55.785330217560372 $223 $337 forward 7 unknown #
edge $-1 $229 78.061545870387562 $336 92.663960692159776 $135 $338 forward 7 unknown #
coedge $-1 $136 $328 $334 $339 forward $227 $-1 #
loop $-1 $-1 $328 $215 #
vertex $-1 $224 $340 #
vertex $-1 $137 $341 #
straight-curve $-1 10.663552832380365 25.266340048022254 8.902707198196893 -1 0 0 I I #
coedge $-1 $231 $231 $-1 $342 reversed $140 $-1 #
edge $-1 $343 0 $343 6.2831853071796004 $141 $344 forward 7 unknown #
vertex $-1 $144 $345 #
ellipse-curve $-1 40.279005113229189 21.901759217833405 4.8199237741987329 0.55919291073839883 0 0.82903756765294845 0.82903756765294845 0 -0.55919291073839883 1 I I #
face $-1 $-1 $346 $30 $-1 $347 reversed single #
loop $-1 $-1 $151 $145 #
plane-surface $-1 0 0 8.9027071981968948 0 0 1 1 0 0 forward_v I I I I #
coedge $-1 $348 $349 $350 $351 reversed $146 $-1 #
coedge $-1 $352 $148 $150 $245 forward $91 $-1 #
coedge $-1 $148 $352 $348 $353 forward $91 $-1 #
coedge $-1 $350 $151 $148 $242 forward $236 $-1 #
edge $-1 $248 -8.7783221893060031 $354 -2.6742949843013299 $241 $355 forward 7 unknown #
coedge $-1 $356 $357 $149 $244 forward $346 $-1 #
edge $-1 $358 -32.62175640390069 $247 -27.338278623074139 $243 $359 forward 7 unknown #
edge $-1 $248 -7.8960335502113761 $358 -9.4405131238556439e-015 $150 $360 forward 7 unknown #
coedge $-1 $151 $350 $356 $361 forward $236 $-1 #
vertex $-1 $244 $362 #
vertex $-1 $152 $363 #
straight-curve $-1 -54.168136648678072 -14.50463077610967 8.902707198196893 1 0 0 I I #
coedge $-1 $250 $250 $-1 $364 reversed $155 $-1 #
edge $-1 $365 0 $365 6.2831853071796004 $156 $366 forward 7 unknown #
vertex $-1 $159 $367 #
ellipse-curve $-1 -43.398032137369675 -11.452617173607337 6.2609683077836191 -0.66913061440640931 0 0.74314481823134659 0.74314481823134659 0 0.66913061440640931 1 I I #
face $-1 $-1 $175 $24 $-1 $368 reversed single #
loop $-1 $-1 $270 $160 #
plane-surface $-1 0 28.162440435526836 0 0 -1 0 0 0 -1 forward_v I I I I #
coedge $-1 $369 $268 $271 $370 forward $161 $-1 #
coedge $-1 $274 $163 $164 $262 reversed $100 $-1 #
coedge $-1 $268 $369 $163 $260 reversed $161 $-1 #
edge $-1 $275 -8.9027071981968948 $371 8.9027071981968948 $259 $372 forward 7 unknown #
coedge $-1 $165 $164 $369 $373 forward $65 $-1 #
edge $-1 $266 -46.331980346079895 $371 46.331980346079895 $258 $374 forward 7 unknown #
coedge $-1 $271 $270 $165 $264 reversed $255 $-1 #
edge $-1 $375 -46.331980346079895 $265 46.331980346079895 $263 $376 forward 7 unknown #
vertex $-1 $167 $377 #
vertex $-1 $277 $378 #
straight-curve $-1 46.331980346079895 0 -8.9027071981968948 0 -1 0 I I #
coedge $-1 $257 $259 $168 $269 reversed $161 $-1 #
edge $-1 $272 -28.162440435526836 $275 28.162440435526836 $268 $379 forward 7 unknown #
coedge $-1 $263 $169 $174 $278 forward $255 $-1 #
coedge $-1 $169 $263 $257 $370 reversed $255 $-1 #
vertex $-1 $170 $380 #
straight-curve $-1 0 28.162440435526836 8.9027071981968948 -1 0 0 I I #
coedge $-1 $171 $258 $173 $277 reversed $100 $-1 #
vertex $-1 $269 $381 #
straight-curve $-1 0 -28.162440435526836 8.9027071981968948 1 0 0 I I #
edge $-1 $176 -8.9027071981968948 $266 8.9027071981968948 $173 $382 forward 7 unknown #
edge $-1 $177 -8.9027071981968948 $265 8.9027071981968948 $174 $383 forward 7 unknown #
point $-1 46.331980346079895 -28.162440435526836 8.9027071981968948 #
point $-1 46.331980346079895 28.162440435526836 8.9027071981968948 #
face $-1 $-1 $295 $25 $-1 $384 reversed single #
loop $-1 $-1 $385 $179 #
plane-surface $-1 0 -36.432511212851708 -6.4533283822398397 0 1 0 0 0 1 forward_v I I I I #
coedge $-1 $386 $182 $191 $299 reversed $108 $-1 #
coedge $-1 $182 $386 $183 $287 reversed $108 $-1 #
coedge $-1 $184 $183 $387 $388 forward $69 $-1 #
edge $-1 $291 28.162440435526836 $389 36.432511212851708 $285 $390 forward 7 unknown #
coedge $-1 $391 $188 $184 $289 reversed $295 $-1 #
edge $-1 $392 -36.432511212851708 $290 -28.162440435526836 $288 $393 forward 7 unknown #
vertex $-1 $189 $394 #
vertex $-1 $287 $395 #
straight-curve $-1 0 -28.162440435526836 -8.9027071981968948 1 0 0 I I #
straight-curve $-1 46.331980346079895 -28.162440435526836 0 0 0 1 I I #
coedge $-1 $188 $391 $190 $298 reversed $295 $-1 #
loop $-1 $-1 $188 $281 #
straight-curve $-1 -46.331980346079895 -28.162440435526836 0 0 0 -1 I I #
coedge $-1 $191 $190 $396 $397 forward $180 $-1 #
edge $-1 $192 -4.1350353886624376 $398 4.1350353886624376 $294 $399 forward 7 unknown #
edge $-1 $400 -4.1350353886624376 $193 4.1350353886624376 $284 $401 forward 7 unknown #
point $-1 -46.331980346079895 -28.162440435526833 -4.0039495662827846 #
point $-1 46.331980346079895 -28.162440435526833 -4.0039495662827846 #
plane-surface $-1 0 0 8.9027071981968948 0 0 1 1 0 0 forward_v I I I I #
coedge $-1 $313 $312 $305 $402 forward $196 $-1 #
coedge $-1 $305 $198 $200 $309 reversed $116 $-1 #
coedge $-1 $198 $304 $303 $402 reversed $116 $-1 #
coedge $-1 $206 $201 $198 $307 forward $207 $-1 #
edge $-1 $310 23.562477047998133 $403 35.668427513699527 $306 $404 forward 7 unknown #
coedge $-1 $200 $199 $313 $405 reversed $73 $-1 #
edge $-1 $406 -92.663960692159776 $310 -78.061545870387562 $304 $407 forward 7 unknown #
vertex $-1 $202 $408 #
straight-curve $-1 34.226029880378491 -6.8158442202542648 8.9027071981968895 0 -1 0 I I #
coedge $-1 $303 $203 $206 $317 reversed $196 $-1 #
coedge $-1 $203 $303 $308 $405 forward $196 $-1 #
vertex $-1 $204 $409 #
straight-curve $-1 46.331980346079895 -10.26710761031968 64.688037415757265 0 0 1 I I #
straight-curve $-1 -30.489924235236678 -10.26710761031968 52.554170250197956 0.82903756765294845 0 -0.55919291073839883 I I #
edge $-1 $403 -16.996269270697379 $208 -10.26710761031968 $312 $410 forward 7 unknown #
point $-1 46.331980346079895 -10.26710761031968 8.9027071981968948 #
point $-1 34.226029880378498 -10.26710761031968 8.902707198196893 #
edge $-1 $411 1 $411 0 $211 $-1 forward 7 unknown #
vertex $-1 $212 $412 #
ellipse-curve $-1 38.094454616760153 -13.63168844050853 1.5811945356319219 0.55919291073839883 0 0.82903756765294845 0.82903756765294845 0 -0.55919291073839883 1 I I #
point $-1 41.108042680882136 -13.63168844050853 4.2607308634603331 #
plane-surface $-1 0 0 8.9027071981968948 0 0 1 1 0 0 forward_v I I I I #
coedge $-1 $335 $334 $327 $413 forward $216 $-1 #
coedge $-1 $327 $218 $220 $331 reversed $131 $-1 #
coedge $-1 $218 $326 $325 $413 reversed $131 $-1 #
coedge $-1 $226 $221 $218 $329 forward $227 $-1 #
edge $-1 $332 23.562477047998133 $414 35.668427513699527 $328 $415 forward 7 unknown #
coedge $-1 $220 $219 $335 $416 reversed $82 $-1 #
edge $-1 $417 -92.663960692159776 $332 -78.061545870387562 $326 $418 forward 7 unknown #
vertex $-1 $222 $419 #
straight-curve $-1 34.226029880378491 10.950879608916702 8.9027071981968895 0 -1 0 I I #
coedge $-1 $325 $223 $226 $339 reversed $216 $-1 #
coedge $-1 $223 $325 $330 $416 forward $216 $-1 #
vertex $-1 $224 $420 #
straight-curve $-1 46.331980346079895 25.266340048022254 64.688037415757265 0 0 1 I I #
straight-curve $-1 -30.489924235236678 25.266340048022254 52.554170250197956 0.82903756765294845 0 -0.55919291073839883 I I #
edge $-1 $414 18.537178387644555 $228 25.266340048022254 $334 $421 forward 7 unknown #
point $-1 46.331980346079895 25.266340048022254 8.9027071981968948 #
point $-1 34.226029880378498 25.266340048022254 8.902707198196893 #
edge $-1 $422 1 $422 0 $231 $-1 forward 7 unknown #
vertex $-1 $232 $423 #
ellipse-curve $-1 38.094454616760153 21.901759217833405 1.5811945356319219 0.55919291073839883 0 0.82903756765294845 0.82903756765294845 0 -0.55919291073839883 1 I I #
point $-1 41.108042680882136 21.901759217833405 4.2607308634603331 #
loop $-1 $-1 $243 $235 #
plane-surface $-1 -46.331980346079895 0 0 1 0 0 0 0 -1 forward_v I I I I #
coedge $-1 $349 $238 $240 $353 reversed $146 $-1 #
coedge $-1 $238 $348 $424 $425 reversed $146 $-1 #
coedge $-1 $246 $241 $238 $351 forward $236 $-1 #
edge $-1 $354 -13.704052720018616 $426 -7.8361563025981766 $350 $427 forward 7 unknown #
coedge $-1 $240 $239 $357 $428 reversed $91 $-1 #
edge $-1 $429 9.4405131238556439e-015 $354 7.8960335502113761 $348 $430 forward 7 unknown #
vertex $-1 $242 $431 #
straight-curve $-1 -40.464083928659463 -5.7263085868036665 8.902707198196893 0 1 0 I I #
coedge $-1 $424 $243 $246 $361 reversed $346 $-1 #
coedge $-1 $243 $424 $352 $428 forward $346 $-1 #
vertex $-1 $244 $432 #
straight-curve $-1 -46.331980346079895 -14.50463077610967 36.240985821271032 0 0 1 I I #
straight-curve $-1 -46.331980346079902 -14.50463077610967 3.6192294173703345 -0.74314481823134659 0 -0.66913061440640931 I I #
edge $-1 $426 8.4006035711049964 $247 14.50463077610967 $356 $433 forward 7 unknown #
point $-1 -46.331980346079895 -14.50463077610967 8.9027071981968948 #
point $-1 -40.464083928659456 -14.50463077610967 8.9027071981968948 #
edge $-1 $434 1 $434 0 $250 $-1 forward 7 unknown #
vertex $-1 $251 $435 #
ellipse-curve $-1 -41.055513413049837 -11.452617173607337 3.6593377529890283 -0.66913061440640931 0 0.74314481823134659 0.74314481823134659 0 0.66913061440640931 1 I I #
point $-1 -42.654887319138325 -11.452617173607337 6.9300989221900249 #
plane-surface $-1 46.331980346079895 0 0 -1 0 0 0 0 1 forward_v I I I I #
coedge $-1 $259 $257 $261 $373 reversed $161 $-1 #
edge $-1 $272 -8.9027071981968948 $375 8.9027071981968948 $271 $436 forward 7 unknown #
vertex $-1 $373 $437 #
straight-curve $-1 -46.331980346079895 -28.162440435526836 0 0 0 -1 I I #
edge $-1 $371 -28.162440435526836 $375 28.162440435526836 $369 $438 forward 7 unknown #
straight-curve $-1 0 -28.162440435526836 -8.9027071981968948 -1 0 0 I I #
vertex $-1 $264 $439 #
straight-curve $-1 0 28.162440435526836 -8.9027071981968948 1 0 0 I I #
point $-1 46.331980346079895 28.162440435526836 -8.9027071981968948 #
point $-1 46.331980346079895 -28.162440435526836 -8.9027071981968948 #
straight-curve $-1 -46.331980346079895 0 8.9027071981968948 0 -1 0 I I #
point $-1 -46.331980346079895 28.162440435526836 8.9027071981968948 #
point $-1 -46.331980346079895 -28.162440435526836 8.9027071981968948 #
straight-curve $-1 46.331980346079895 -28.162440435526836 0 0 0 -1 I I #
straight-curve $-1 46.331980346079895 28.162440435526836 0 0 0 -1 I I #
plane-surface $-1 -46.331980346079895 0 0 1 0 0 0 0 -1 forward_v I I I I #
coedge $-1 $387 $396 $391 $440 forward $282 $-1 #
coedge $-1 $285 $284 $441 $442 forward $108 $-1 #
coedge $-1 $441 $385 $286 $388 reversed $282 $-1 #
edge $-1 $389 -46.331980346079895 $392 46.331980346079895 $387 $443 forward 7 unknown #
vertex $-1 $442 $444 #
straight-curve $-1 46.331980346079895 0 -8.9027071981968948 0 -1 0 I I #
coedge $-1 $294 $288 $385 $440 reversed $295 $-1 #
vertex $-1 $289 $445 #
straight-curve $-1 -46.331980346079895 0 -8.9027071981968948 0 1 0 I I #
point $-1 -46.331980346079895 -28.162440435526836 -8.9027071981968948 #
point $-1 46.331980346079895 -28.162440435526836 -8.9027071981968948 #
coedge $-1 $385 $441 $297 $397 reversed $282 $-1 #
edge $-1 $398 -46.331980346079895 $400 46.331980346079895 $396 $446 forward 7 unknown #
vertex $-1 $298 $447 #
straight-curve $-1 -46.331980346079895 -32.29747582418927 -4.0039495662827846 0 -1 0 I I #
vertex $-1 $299 $448 #
straight-curve $-1 46.331980346079895 -32.29747582418927 -4.0039495662827846 0 1 0 I I #
edge $-1 $403 55.785330217560372 $406 63.950897065556717 $303 $449 forward 7 unknown #
vertex $-1 $317 $450 #
straight-curve $-1 10.663552832380365 -16.996269270697379 8.902707198196893 1 0 0 I I #
edge $-1 $406 -10.180425050443114 $314 -3.4512633900654155 $313 $451 forward 7 unknown #
vertex $-1 $405 $452 #
straight-curve $-1 -30.489924235236678 -16.996269270697379 52.554170250197956 -0.82903756765294845 0 0.55919291073839883 I I #
point $-1 34.226029880378498 -16.996269270697379 8.902707198196893 #
point $-1 46.331980346079895 -10.26710761031968 0.7371403502005478 #
straight-curve $-1 46.331980346079895 0 8.9027071981968948 0 1 0 I I #
vertex $-1 $320 $453 #
point $-1 38.923492184413099 -13.63168844050853 1.0220016248935231 #
edge $-1 $414 55.785330217560372 $417 63.950897065556717 $325 $454 forward 7 unknown #
vertex $-1 $339 $455 #
straight-curve $-1 10.663552832380365 18.537178387644555 8.902707198196893 1 0 0 I I #
edge $-1 $417 7.5862987787278531 $336 14.315460439105552 $335 $456 forward 7 unknown #
vertex $-1 $416 $457 #
straight-curve $-1 -30.489924235236678 18.537178387644555 52.554170250197956 -0.82903756765294845 0 0.55919291073839883 I I #
point $-1 34.226029880378498 18.537178387644555 8.902707198196893 #
point $-1 46.331980346079895 25.266340048022254 0.7371403502005478 #
straight-curve $-1 46.331980346079895 0 8.9027071981968948 0 1 0 I I #
vertex $-1 $342 $458 #
point $-1 38.923492184413099 21.901759217833405 1.0220016248935231 #
coedge $-1 $357 $356 $349 $425 forward $346 $-1 #
edge $-1 $426 27.338278623074139 $429 32.62175640390069 $424 $459 forward 7 unknown #
vertex $-1 $361 $460 #
straight-curve $-1 -54.168136648678072 -8.4006035711049964 8.902707198196893 -1 0 0 I I #
edge $-1 $429 2.6742949843013299 $358 8.7783221893060031 $357 $461 forward 7 unknown #
vertex $-1 $428 $462 #
straight-curve $-1 -46.331980346079902 -8.4006035711049964 3.6192294173703345 0.74314481823134659 0 0.66913061440640931 I I #
point $-1 -40.464083928659456 -8.4006035711049964 8.9027071981968948 #
point $-1 -46.331980346079895 -14.50463077610967 3.6192294173703408 #
straight-curve $-1 -46.331980346079895 0 8.9027071981968948 0 -1 0 I I #
vertex $-1 $364 $463 #
point $-1 -40.312368594818487 -11.452617173607337 4.3284683673954376 #
straight-curve $-1 -46.331980346079895 28.162440435526836 0 0 0 -1 I I #
point $-1 -46.331980346079895 -28.162440435526836 -8.9027071981968948 #
straight-curve $-1 -46.331980346079895 0 -8.9027071981968948 0 1 0 I I #
point $-1 -46.331980346079895 28.162440435526836 -8.9027071981968948 #
edge $-1 $398 -2.4493788159570551 $392 2.4493788159570551 $391 $464 forward 7 unknown #
coedge $-1 $396 $387 $386 $442 reversed $282 $-1 #
edge $-1 $400 -2.4493788159570551 $389 2.4493788159570551 $386 $465 forward 7 unknown #
straight-curve $-1 0 -36.432511212851708 -8.9027071981968948 -1 0 0 I I #
point $-1 46.331980346079895 -36.432511212851708 -8.9027071981968948 #
point $-1 -46.331980346079895 -36.432511212851708 -8.9027071981968948 #
straight-curve $-1 0 -36.432511212851708 -4.0039495662827846 1 0 0 I I #
point $-1 -46.331980346079895 -36.432511212851708 -4.0039495662827846 #
point $-1 46.331980346079895 -36.432511212851708 -4.0039495662827846 #
straight-curve $-1 46.331980346079895 -16.996269270697379 64.688037415757265 0 0 -1 I I #
point $-1 46.331980346079895 -16.996269270697379 8.9027071981968948 #
straight-curve $-1 46.331980346079902 -6.8158442202542648 0.73714035020055135 0 1 0 I I #
point $-1 46.331980346079895 -16.996269270697379 0.7371403502005478 #
point $-1 37.53526170602175 -13.63168844050853 0.75215696797897358 #
straight-curve $-1 46.331980346079895 18.537178387644555 64.688037415757265 0 0 -1 I I #
point $-1 46.331980346079895 18.537178387644555 8.9027071981968948 #
straight-curve $-1 46.331980346079902 10.950879608916702 0.73714035020055135 0 1 0 I I #
point $-1 46.331980346079895 18.537178387644555 0.7371403502005478 #
point $-1 37.53526170602175 21.901759217833405 0.75215696797897358 #
straight-curve $-1 -46.331980346079895 -8.4006035711049964 36.240985821271032 0 0 -1 I I #
point $-1 -46.331980346079895 -8.4006035711049964 8.9027071981968948 #
straight-curve $-1 -46.331980346079895 -5.7263085868036665 3.6192294173703443 0 -1 0 I I #
point $-1 -46.331980346079895 -8.4006035711049964 3.6192294173703408 #
point $-1 -40.386382798643425 -11.452617173607337 2.9161929347576816 #
straight-curve $-1 -46.331980346079895 -36.432511212851708 -6.4533283822398397 0 0 -1 I I #
straight-curve $-1 46.331980346079895 -36.432511212851708 -6.4533283822398397 0 0 -1 I I #
End-of-ACIS-data 