500 0 4 0           
7 Unknown 11 ACIS 5.0 NT 24 Thu Mar 25 19:02:11 1999 
-1 9.9999999999999995e-007 1e-010 
body $-1 $4 $-1 $5 #
body $-1 $6 $-1 $7 #
body $-1 $8 $-1 $9 #
body $-1 $10 $-1 $11 #
lump $-1 $-1 $12 $0 #
transform $-1 1 0 0 0 1 0 0 0 1 53.009430219428083 35.811739007305199 10.43488084109158 1 rotate no_reflect no_shear #
lump $-1 $-1 $13 $1 #
transform $-1 1 0 0 0 1 0 0 0 1 53.009430219428083 35.811739007305199 10.43488084109158 1 rotate no_reflect no_shear #
lump $-1 $-1 $14 $2 #
transform $-1 1 0 0 0 1 0 0 0 1 53.009430219428083 35.811739007305199 10.43488084109158 1 rotate no_reflect no_shear #
lump $-1 $-1 $15 $3 #
transform $-1 1 0 0 0 1 0 0 0 1 53.009430219428083 35.811739007305199 10.43488084109158 1 rotate no_reflect no_shear #
shell $-1 $-1 $-1 $16 $-1 $4 #
shell $-1 $-1 $-1 $17 $-1 $6 #
shell $-1 $-1 $-1 $18 $-1 $8 #
shell $-1 $-1 $-1 $19 $-1 $10 #
face $-1 $20 $21 $12 $-1 $22 forward single #
face $-1 $23 $24 $13 $-1 $25 reversed single #
face $-1 $26 $27 $14 $-1 $28 forward single #
face $-1 $29 $30 $15 $-1 $31 forward single #
face $-1 $32 $33 $12 $-1 $34 reversed single #
loop $-1 $-1 $35 $16 #
plane-surface $-1 0 0 10.43488084109158 0 0 1 1 0 0 forward_v I I I I #
face $-1 $36 $37 $13 $-1 $38 reversed single #
loop $-1 $-1 $39 $17 #
plane-surface $-1 -3.1720049546368898 -29.55968502032777 95.099691880552214 0.84804810408105047 0 0.52991925155115449 0.52991925155115449 0 -0.84804810408105047 forward_v I I I I #
face $-1 $40 $41 $14 $-1 $42 forward single #
loop $-1 $43 $44 $18 #
cone-surface $-1 49.886145110168997 -32.239136729032381 6.884940178184328 -0.84804810408105047 0 -0.52991925155115449 0.52991925155115449 0 -0.84804810408105047 1 I I 0 1 1 forward I I I I #
face $-1 $45 $46 $15 $-1 $47 forward single #
loop $-1 $48 $49 $19 #
cone-surface $-1 49.886145110168997 -26.880233311623158 6.884940178184328 -0.84804810408105047 0 -0.52991925155115449 0.52991925155115449 0 -0.84804810408105047 1 I I 0 1 1 forward I I I I #
face $-1 $50 $51 $12 $-1 $52 reversed single #
loop $-1 $-1 $53 $20 #
plane-surface $-1 0 0 -10.43488084109158 0 0 1 1 0 0 forward_v I I I I #
coedge $-1 $54 $55 $56 $57 forward $21 $-1 #
face $-1 $58 $59 $13 $-1 $60 forward single #
loop $-1 $-1 $61 $23 #
plane-surface $-1 86.737088637368572 -23.30763103335034 151.28112705461717 0 -1 0 -0.84804810408105047 0 -0.52991925155115449 forward_v I I I I #
coedge $-1 $62 $63 $64 $65 reversed $24 $-1 #
face $-1 $-1 $66 $14 $-1 $67 forward single #
loop $-1 $68 $69 $26 #
cone-surface $-1 47.977331614264898 -32.239136729032381 5.6921811657739063 -0.84804810408105047 0 -0.52991925155115449 0.26495962577557725 0 -0.42402405204052523 1 I I -0.70710678118654746 0.70710678118654746 0.5 forward I I I I #
loop $-1 $-1 $70 $18 #
coedge $-1 $44 $44 $71 $72 reversed $27 $-1 #
face $-1 $-1 $73 $15 $-1 $74 forward single #
loop $-1 $75 $76 $29 #
cone-surface $-1 47.977331614264898 -26.880233311623158 5.6921811657739063 -0.84804810408105047 0 -0.52991925155115449 0.26495962577557725 0 -0.42402405204052523 1 I I -0.70710678118654746 0.70710678118654746 0.5 forward I I I I #
loop $-1 $-1 $77 $19 #
coedge $-1 $49 $49 $78 $79 reversed $30 $-1 #
face $-1 $80 $81 $12 $-1 $82 reversed single #
loop $-1 $-1 $83 $32 #
plane-surface $-1 0 -35.811739007305199 0 0 1 0 0 0 1 forward_v I I I I #
coedge $-1 $84 $85 $86 $87 forward $33 $-1 #
coedge $-1 $88 $35 $89 $90 forward $21 $-1 #
coedge $-1 $35 $88 $91 $92 forward $21 $-1 #
coedge $-1 $93 $94 $35 $57 reversed $95 $-1 #
edge $-1 $96 -35.811739007305199 $97 35.811739007305199 $56 $98 forward 7 unknown #
face $-1 $99 $100 $13 $-1 $101 reversed single #
loop $-1 $-1 $102 $36 #
plane-surface $-1 0 0 10.43488084109158 0 0 1 1 0 0 forward_v I I I I #
coedge $-1 $103 $104 $105 $106 reversed $37 $-1 #
coedge $-1 $107 $39 $108 $109 reversed $24 $-1 #
coedge $-1 $39 $107 $103 $110 forward $24 $-1 #
coedge $-1 $105 $111 $39 $65 forward $112 $-1 #
edge $-1 $113 -21.031896497141314 $114 -8.5277885231864552 $64 $115 forward 7 unknown #
loop $-1 $-1 $71 $40 #
plane-surface $-1 -3.1720049546368898 -29.55968502032777 95.099691880552214 0.84804810408105047 0 0.52991925155115449 0.52991925155115449 0 -0.84804810408105047 forward_v I I I I #
loop $-1 $-1 $116 $26 #
coedge $-1 $69 $69 $70 $117 reversed $41 $-1 #
coedge $-1 $70 $70 $69 $117 forward $43 $-1 #
coedge $-1 $71 $71 $44 $72 forward $66 $-1 #
edge $-1 $118 0 $118 6.2831853071796004 $71 $119 forward 7 unknown #
loop $-1 $-1 $78 $45 #
plane-surface $-1 -3.1720049546368898 -29.55968502032777 95.099691880552214 0.84804810408105047 0 0.52991925155115449 0.52991925155115449 0 -0.84804810408105047 forward_v I I I I #
loop $-1 $-1 $120 $29 #
coedge $-1 $76 $76 $77 $121 reversed $46 $-1 #
coedge $-1 $77 $77 $76 $121 forward $48 $-1 #
coedge $-1 $78 $78 $49 $79 forward $73 $-1 #
edge $-1 $122 0 $122 6.2831853071796004 $78 $123 forward 7 unknown #
face $-1 $124 $125 $12 $-1 $126 reversed single #
loop $-1 $-1 $127 $50 #
plane-surface $-1 -53.009430219428083 0 0 1 0 0 0 0 -1 forward_v I I I I #
coedge $-1 $128 $91 $129 $130 forward $51 $-1 #
coedge $-1 $131 $53 $128 $132 forward $33 $-1 #
coedge $-1 $53 $131 $133 $134 forward $33 $-1 #
coedge $-1 $94 $93 $53 $87 reversed $95 $-1 #
edge $-1 $135 -35.811739007305199 $136 35.811739007305199 $86 $137 forward 7 unknown #
coedge $-1 $55 $54 $138 $139 forward $21 $-1 #
coedge $-1 $140 $141 $54 $90 reversed $125 $-1 #
edge $-1 $97 -53.009430219428083 $142 53.009430219428083 $89 $143 forward 7 unknown #
coedge $-1 $83 $144 $55 $92 reversed $51 $-1 #
edge $-1 $145 -53.009430219428083 $96 53.009430219428083 $91 $146 forward 7 unknown #
coedge $-1 $86 $56 $144 $147 forward $95 $-1 #
coedge $-1 $56 $86 $140 $148 reversed $95 $-1 #
loop $-1 $-1 $93 $124 #
vertex $-1 $57 $149 #
vertex $-1 $57 $150 #
straight-curve $-1 53.009430219428083 0 10.43488084109158 0 1 0 I I #
face $-1 $-1 $112 $13 $-1 $151 reversed single #
loop $-1 $-1 $108 $58 #
plane-surface $-1 0 -35.811739007305199 0 0 1 0 0 0 1 forward_v I I I I #
coedge $-1 $152 $153 $104 $154 forward $59 $-1 #
coedge $-1 $104 $61 $63 $110 reversed $37 $-1 #
coedge $-1 $61 $103 $102 $154 reversed $37 $-1 #
coedge $-1 $155 $64 $61 $106 forward $112 $-1 #
edge $-1 $114 -70.449965238761848 $156 -65.205682686217003 $105 $157 forward 7 unknown #
coedge $-1 $63 $62 $152 $158 reversed $24 $-1 #
coedge $-1 $159 $160 $62 $109 forward $100 $-1 #
edge $-1 $161 58.669905824816752 $113 64.853850494120138 $108 $162 forward 7 unknown #
edge $-1 $163 99.834915769552808 $114 106.01886043885618 $103 $164 forward 7 unknown #
coedge $-1 $64 $155 $159 $165 forward $112 $-1 #
loop $-1 $-1 $105 $99 #
vertex $-1 $109 $166 #
vertex $-1 $65 $167 #
straight-curve $-1 53.009430219428083 -14.779842510163885 5.1905982885467381 0 1 0 I I #
coedge $-1 $116 $116 $-1 $168 reversed $68 $-1 #
edge $-1 $169 0 $169 6.2831853071796004 $69 $170 forward 7 unknown #
vertex $-1 $72 $171 #
ellipse-curve $-1 51.370934554032573 -32.239136729032381 7.8127395648191724 0.84804810408105047 0 0.52991925155115449 0.52991925155115449 0 -0.84804810408105047 1 I I #
coedge $-1 $120 $120 $-1 $172 reversed $75 $-1 #
edge $-1 $173 0 $173 6.2831853071796004 $76 $174 forward 7 unknown #
vertex $-1 $79 $175 #
ellipse-curve $-1 51.370934554032573 -26.880233311623158 7.8127395648191724 0.84804810408105047 0 0.52991925155115449 0.52991925155115449 0 -0.84804810408105047 1 I I #
face $-1 $-1 $95 $12 $-1 $176 reversed single #
loop $-1 $-1 $140 $80 #
plane-surface $-1 0 35.811739007305199 0 0 -1 0 0 0 -1 forward_v I I I I #
coedge $-1 $177 $138 $141 $178 forward $81 $-1 #
coedge $-1 $144 $83 $84 $132 reversed $51 $-1 #
coedge $-1 $138 $177 $83 $130 reversed $81 $-1 #
edge $-1 $145 -10.43488084109158 $179 10.43488084109158 $129 $180 forward 7 unknown #
coedge $-1 $85 $84 $177 $181 forward $33 $-1 #
edge $-1 $136 -53.009430219428083 $179 53.009430219428083 $128 $182 forward 7 unknown #
coedge $-1 $141 $140 $85 $134 reversed $125 $-1 #
edge $-1 $183 -53.009430219428083 $135 53.009430219428083 $133 $184 forward 7 unknown #
vertex $-1 $87 $185 #
vertex $-1 $147 $186 #
straight-curve $-1 53.009430219428083 0 -10.43488084109158 0 -1 0 I I #
coedge $-1 $127 $129 $88 $139 reversed $81 $-1 #
edge $-1 $142 -35.811739007305199 $145 35.811739007305199 $138 $187 forward 7 unknown #
coedge $-1 $133 $89 $94 $148 forward $125 $-1 #
coedge $-1 $89 $133 $127 $178 reversed $125 $-1 #
vertex $-1 $90 $188 #
straight-curve $-1 0 35.811739007305199 10.43488084109158 -1 0 0 I I #
coedge $-1 $91 $128 $93 $147 reversed $51 $-1 #
vertex $-1 $139 $189 #
straight-curve $-1 0 -35.811739007305199 10.43488084109158 1 0 0 I I #
edge $-1 $96 -10.43488084109158 $136 10.43488084109158 $93 $190 forward 7 unknown #
edge $-1 $97 -10.43488084109158 $135 10.43488084109158 $94 $191 forward 7 unknown #
point $-1 53.009430219428083 -35.811739007305199 10.43488084109158 #
point $-1 53.009430219428083 35.811739007305199 10.43488084109158 #
plane-surface $-1 53.009430219428083 0 0 -1 0 0 0 0 1 forward_v I I I I #
coedge $-1 $192 $102 $107 $158 forward $59 $-1 #
coedge $-1 $102 $192 $155 $193 forward $59 $-1 #
edge $-1 $156 -9.6408859007437968 $163 -6.363894569952798 $102 $194 forward 7 unknown #
coedge $-1 $111 $105 $153 $193 reversed $112 $-1 #
vertex $-1 $106 $195 #
straight-curve $-1 53.009430219428083 -23.30763103335034 75.640563527308586 0 0 1 I I #
edge $-1 $163 8.5277885231864552 $161 21.031896497141314 $152 $196 forward 7 unknown #
coedge $-1 $160 $108 $111 $165 reversed $100 $-1 #
coedge $-1 $108 $159 $192 $197 reversed $100 $-1 #
vertex $-1 $197 $198 #
straight-curve $-1 18.64212630537347 -35.811739007305199 60.189783242441209 0.52991925155115449 0 -0.84804810408105047 I I #
vertex $-1 $158 $199 #
straight-curve $-1 -3.1720049546368898 -23.30763103335034 95.099691880552214 0.52991925155115449 0 -0.84804810408105047 I I #
edge $-1 $200 -10.43488084109158 $113 -5.1905982885467301 $111 $201 forward 7 unknown #
point $-1 53.009430219428083 -35.811739007305199 5.1905982885467301 #
point $-1 53.009430219428083 -23.30763103335034 5.1905982885467381 #
edge $-1 $202 1 $202 0 $116 $-1 forward 7 unknown #
vertex $-1 $117 $203 #
ellipse-curve $-1 48.40135566630542 -32.239136729032381 5.9571407915494836 0.84804810408105047 0 0.52991925155115449 0.52991925155115449 0 -0.84804810408105047 1 I I #
point $-1 51.900853805583729 -32.239136729032381 6.9646914607381225 #
edge $-1 $204 1 $204 0 $120 $-1 forward 7 unknown #
vertex $-1 $121 $205 #
ellipse-curve $-1 48.40135566630542 -26.880233311623158 5.9571407915494836 0.84804810408105047 0 0.52991925155115449 0.52991925155115449 0 -0.84804810408105047 1 I I #
point $-1 51.900853805583729 -26.880233311623158 6.9646914607381225 #
plane-surface $-1 53.009430219428083 0 0 -1 0 0 0 0 1 forward_v I I I I #
coedge $-1 $129 $127 $131 $181 reversed $81 $-1 #
edge $-1 $142 -10.43488084109158 $183 10.43488084109158 $141 $206 forward 7 unknown #
vertex $-1 $181 $207 #
straight-curve $-1 -53.009430219428083 -35.811739007305199 0 0 0 -1 I I #
edge $-1 $179 -35.811739007305199 $183 35.811739007305199 $177 $208 forward 7 unknown #
straight-curve $-1 0 -35.811739007305199 -10.43488084109158 -1 0 0 I I #
vertex $-1 $134 $209 #
straight-curve $-1 0 35.811739007305199 -10.43488084109158 1 0 0 I I #
point $-1 53.009430219428083 35.811739007305199 -10.43488084109158 #
point $-1 53.009430219428083 -35.811739007305199 -10.43488084109158 #
straight-curve $-1 -53.009430219428083 0 10.43488084109158 0 -1 0 I I #
point $-1 -53.009430219428083 35.811739007305199 10.43488084109158 #
point $-1 -53.009430219428083 -35.811739007305199 10.43488084109158 #
straight-curve $-1 53.009430219428083 -35.811739007305199 0 0 0 -1 I I #
straight-curve $-1 53.009430219428083 35.811739007305199 0 0 0 -1 I I #
coedge $-1 $153 $152 $160 $197 forward $59 $-1 #
edge $-1 $200 -35.811739007305199 $156 -23.30763103335034 $155 $210 forward 7 unknown #
straight-curve $-1 43.368544318684286 -23.30763103335034 10.434880841091584 -1 0 0 I I #
point $-1 53.009430219428083 -23.30763103335034 10.43488084109158 #
straight-curve $-1 49.732438888637091 -14.779842510163885 10.434880841091584 0 -1 0 I I #
edge $-1 $161 49.732438888637084 $200 53.009430219428083 $160 $211 forward 7 unknown #
point $-1 49.732438888637084 -35.811739007305199 10.434880841091584 #
point $-1 49.732438888637084 -23.30763103335034 10.434880841091584 #
vertex $-1 $193 $212 #
straight-curve $-1 53.009430219428083 -35.811739007305199 0 0 0 -1 I I #
vertex $-1 $168 $213 #
point $-1 48.931274917856577 -32.239136729032381 5.1090926874684328 #
vertex $-1 $172 $214 #
point $-1 48.931274917856577 -26.880233311623158 5.1090926874684328 #
straight-curve $-1 -53.009430219428083 35.811739007305199 0 0 0 -1 I I #
point $-1 -53.009430219428083 -35.811739007305199 -10.43488084109158 #
straight-curve $-1 -53.009430219428083 0 -10.43488084109158 0 1 0 I I #
point $-1 -53.009430219428083 35.811739007305199 -10.43488084109158 #
straight-curve $-1 53.009430219428083 0 10.43488084109158 0 1 0 I I #
straight-curve $-1 0 -35.811739007305199 10.43488084109158 1 0 0 I I #
point $-1 53.009430219428083 -35.811739007305199 10.43488084109158 #
point $-1 47.553307562224376 -32.239136729032381 5.427221539998329 #
point $-1 47.553307562224376 -26.880233311623158 5.427221539998329 #
End-of-ACIS-data 