500 0 10 0           
7 Unknown 11 ACIS 5.0 NT 24 Fri Mar 26 20:31:34 1999 
-1 9.9999999999999995e-007 1e-010 
body $-1 $10 $-1 $11 #
body $-1 $12 $-1 $13 #
body $-1 $14 $-1 $15 #
body $-1 $16 $-1 $17 #
body $-1 $18 $-1 $19 #
body $-1 $20 $-1 $21 #
body $-1 $22 $-1 $23 #
body $-1 $24 $-1 $25 #
body $-1 $26 $-1 $27 #
body $-1 $28 $-1 $29 #
lump $-1 $-1 $30 $0 #
transform $-1 1 0 0 0 1 0 0 0 1 43.377788628803373 19.164491557473522 7.4210862965131703 1 rotate no_reflect no_shear #
lump $-1 $-1 $31 $1 #
transform $-1 1 0 0 0 1 0 0 0 1 43.377788628803373 19.164491557473522 7.4210862965131703 1 rotate no_reflect no_shear #
lump $-1 $-1 $32 $2 #
transform $-1 1 0 0 0 1 0 0 0 1 43.377788628803373 19.164491557473522 7.4210862965131703 1 rotate no_reflect no_shear #
lump $-1 $-1 $33 $3 #
transform $-1 1 0 0 0 1 0 0 0 1 43.377788628803373 19.164491557473522 7.4210862965131703 1 rotate no_reflect no_shear #
lump $-1 $-1 $34 $4 #
transform $-1 1 0 0 0 1 0 0 0 1 43.377788628803373 19.164491557473522 7.4210862965131703 1 rotate no_reflect no_shear #
lump $-1 $-1 $35 $5 #
transform $-1 1 0 0 0 1 0 0 0 1 43.377788628803373 19.164491557473522 7.4210862965131703 1 rotate no_reflect no_shear #
lump $-1 $-1 $36 $6 #
transform $-1 1 0 0 0 1 0 0 0 1 43.377788628803373 19.164491557473522 7.4210862965131703 1 rotate no_reflect no_shear #
lump $-1 $-1 $37 $7 #
transform $-1 1 0 0 0 1 0 0 0 1 43.377788628803373 19.164491557473522 7.4210862965131703 1 rotate no_reflect no_shear #
lump $-1 $-1 $38 $8 #
transform $-1 1 0 0 0 1 0 0 0 1 43.377788628803373 19.164491557473522 7.4210862965131703 1 rotate no_reflect no_shear #
lump $-1 $-1 $39 $9 #
transform $-1 1 0 0 0 1 0 0 0 1 43.377788628803373 19.164491557473522 7.4210862965131703 1 rotate no_reflect no_shear #
shell $-1 $-1 $-1 $40 $-1 $10 #
shell $-1 $-1 $-1 $41 $-1 $12 #
shell $-1 $-1 $-1 $42 $-1 $14 #
shell $-1 $-1 $-1 $43 $-1 $16 #
shell $-1 $-1 $-1 $44 $-1 $18 #
shell $-1 $-1 $-1 $45 $-1 $20 #
shell $-1 $-1 $-1 $46 $-1 $22 #
shell $-1 $-1 $-1 $47 $-1 $24 #
shell $-1 $-1 $-1 $48 $-1 $26 #
shell $-1 $-1 $-1 $49 $-1 $28 #
face $-1 $50 $51 $30 $-1 $52 forward single #
face $-1 $53 $54 $31 $-1 $55 reversed single #
face $-1 $56 $57 $32 $-1 $58 reversed single #
face $-1 $59 $60 $33 $-1 $61 reversed single #
face $-1 $62 $63 $34 $-1 $64 forward single #
face $-1 $65 $66 $35 $-1 $67 forward single #
face $-1 $68 $69 $36 $-1 $70 forward single #
face $-1 $71 $72 $37 $-1 $73 reversed single #
face $-1 $74 $75 $38 $-1 $76 forward single #
face $-1 $77 $78 $39 $-1 $79 forward single #
face $-1 $80 $81 $30 $-1 $82 reversed single #
loop $-1 $-1 $83 $40 #
plane-surface $-1 0 0 7.4210862965131703 0 0 1 1 0 0 forward_v I I I I #
face $-1 $84 $85 $31 $-1 $86 reversed single #
loop $-1 $-1 $87 $41 #
plane-surface $-1 -32.418714671240664 -16.628163700046983 0 1 0 0 0 0 -1 forward_v I I I I #
face $-1 $88 $89 $32 $-1 $90 reversed single #
loop $-1 $-1 $91 $42 #
plane-surface $-1 -30.477165353508848 14.091835842620448 0 0 1 0 0 0 1 forward_v I I I I #
face $-1 $92 $93 $33 $-1 $94 reversed single #
loop $-1 $-1 $95 $43 #
plane-surface $-1 -103.64327726278891 -5.8267508426511831 65.005123896429623 0 1 0 -0.69465837861970381 0 0.71933979245794832 forward_v I I I I #
face $-1 $96 $97 $34 $-1 $98 forward single #
loop $-1 $99 $100 $44 #
cone-surface $-1 -40.415317324368445 -4.1710506761150175 4.5277535979685233 0.69465837861970381 0 -0.71933979245794832 0.35966989622897416 0 0.3473291893098519 1 I I 0 1 0.5 forward I I I I #
face $-1 $101 $102 $35 $-1 $103 forward single #
loop $-1 $104 $105 $45 #
cone-surface $-1 -40.415317324368445 -1.6875004263107698 4.5277535979685233 0.69465837861970381 0 -0.71933979245794832 0.35966989622897416 0 0.3473291893098519 1 I I 0 1 0.5 forward I I I I #
face $-1 $106 $107 $36 $-1 $108 forward single #
loop $-1 $109 $110 $46 #
cone-surface $-1 -40.415317324368445 0.79604982349347964 4.5277535979685233 0.69465837861970381 0 -0.71933979245794832 0.35966989622897416 0 0.3473291893098519 1 I I 0 1 0.5 forward I I I I #
face $-1 $111 $112 $37 $-1 $113 reversed single #
loop $-1 $-1 $114 $47 #
plane-surface $-1 22.072736092126704 14.091835842620442 122.488024725524 0 -1 0 -0.57357644374324357 0 -0.81915203911291934 forward_v I I I I #
face $-1 $115 $116 $38 $-1 $117 forward single #
loop $-1 $118 $119 $48 #
cone-surface $-1 38.929515838418602 8.0985036194714084 4.0623746823376115 -0.57357644374324357 0 -0.81915203911291934 0.40957601955645967 0 -0.28678822187162178 1 I I 0 1 0.5 forward I I I I #
face $-1 $120 $121 $39 $-1 $122 forward single #
loop $-1 $123 $124 $49 #
cone-surface $-1 38.929515838418602 11.694502953360832 4.0623746823376115 -0.57357644374324357 0 -0.81915203911291934 0.40957601955645967 0 -0.28678822187162178 1 I I 0 1 0.5 forward I I I I #
face $-1 $125 $126 $30 $-1 $127 reversed single #
loop $-1 $-1 $128 $50 #
plane-surface $-1 0 0 -7.4210862965131703 0 0 1 1 0 0 forward_v I I I I #
coedge $-1 $129 $130 $131 $132 forward $51 $-1 #
face $-1 $133 $134 $31 $-1 $135 reversed single #
loop $-1 $-1 $136 $53 #
plane-surface $-1 -30.477165353508848 -14.091835842620444 0 0 -1 0 0 0 -1 forward_v I I I I #
coedge $-1 $137 $138 $139 $140 forward $54 $-1 #
face $-1 $141 $142 $32 $-1 $143 reversed single #
loop $-1 $-1 $144 $56 #
plane-surface $-1 -32.418714671240664 16.628163700046986 0 1 0 0 0 0 -1 forward_v I I I I #
coedge $-1 $145 $146 $147 $148 forward $57 $-1 #
face $-1 $149 $150 $33 $-1 $151 reversed single #
loop $-1 $-1 $152 $59 #
plane-surface $-1 -43.377788628803359 -1.6875004263107698 2.598384957373284 -0.69465837861970381 0 0.71933979245794832 0.71933979245794832 0 0.69465837861970381 forward_v I I I I #
coedge $-1 $153 $154 $155 $156 reversed $60 $-1 #
face $-1 $-1 $157 $34 $-1 $158 forward single #
loop $-1 $159 $160 $62 #
cone-surface $-1 -39.776208084106791 -4.1710506761150175 3.865936620879328 0.69465837861970381 0 -0.71933979245794832 0.17983494811448708 0 0.17366459465492595 1 I I -0.70710678118654746 0.70710678118654746 0.25 forward I I I I #
loop $-1 $-1 $161 $44 #
coedge $-1 $100 $100 $162 $163 reversed $63 $-1 #
face $-1 $-1 $164 $35 $-1 $165 forward single #
loop $-1 $166 $167 $65 #
cone-surface $-1 -39.776208084106791 -1.6875004263107698 3.865936620879328 0.69465837861970381 0 -0.71933979245794832 0.17983494811448708 0 0.17366459465492595 1 I I -0.70710678118654746 0.70710678118654746 0.25 forward I I I I #
loop $-1 $-1 $168 $45 #
coedge $-1 $105 $105 $169 $170 reversed $66 $-1 #
face $-1 $-1 $171 $36 $-1 $172 forward single #
loop $-1 $173 $174 $68 #
cone-surface $-1 -39.776208084106791 0.79604982349347964 3.865936620879328 0.69465837861970381 0 -0.71933979245794832 0.17983494811448708 0 0.17366459465492595 1 I I -0.70710678118654746 0.70710678118654746 0.25 forward I I I I #
loop $-1 $-1 $175 $46 #
coedge $-1 $110 $110 $176 $177 reversed $69 $-1 #
face $-1 $178 $179 $37 $-1 $180 reversed single #
loop $-1 $-1 $181 $71 #
plane-surface $-1 -27.68821938618359 9.8965032864161167 51.422016710537022 0.57357644374324357 0 0.81915203911291934 0.81915203911291934 0 -0.57357644374324357 forward_v I I I I #
coedge $-1 $182 $183 $184 $185 reversed $72 $-1 #
face $-1 $-1 $186 $38 $-1 $187 forward single #
loop $-1 $188 $189 $74 #
cone-surface $-1 38.450933015271801 8.0985036194714084 3.3788875905270395 -0.57357644374324357 0 -0.81915203911291934 0.20478800977822983 0 -0.14339411093581089 1 I I -0.70710678118654746 0.70710678118654746 0.25 forward I I I I #
loop $-1 $-1 $190 $48 #
coedge $-1 $119 $119 $191 $192 reversed $75 $-1 #
face $-1 $-1 $193 $39 $-1 $194 forward single #
loop $-1 $195 $196 $77 #
cone-surface $-1 38.450933015271801 11.694502953360832 3.3788875905270395 -0.57357644374324357 0 -0.81915203911291934 0.20478800977822983 0 -0.14339411093581089 1 I I -0.70710678118654746 0.70710678118654746 0.25 forward I I I I #
loop $-1 $-1 $197 $49 #
coedge $-1 $124 $124 $198 $199 reversed $78 $-1 #
face $-1 $200 $201 $30 $-1 $202 reversed single #
loop $-1 $-1 $203 $80 #
plane-surface $-1 0 -19.164491557473522 0 0 1 0 0 0 1 forward_v I I I I #
coedge $-1 $204 $205 $206 $207 forward $81 $-1 #
coedge $-1 $208 $83 $209 $210 forward $51 $-1 #
coedge $-1 $83 $208 $211 $212 forward $51 $-1 #
coedge $-1 $213 $214 $83 $132 reversed $215 $-1 #
edge $-1 $216 -19.164491557473522 $217 19.164491557473522 $131 $218 forward 7 unknown #
face $-1 $219 $220 $31 $-1 $221 forward single #
loop $-1 $-1 $222 $84 #
plane-surface $-1 -28.535616035777032 -16.628163700046983 0 -1 0 0 0 0 1 forward_v I I I I #
coedge $-1 $223 $224 $225 $226 forward $85 $-1 #
coedge $-1 $227 $87 $228 $229 reversed $54 $-1 #
coedge $-1 $87 $227 $230 $231 reversed $54 $-1 #
coedge $-1 $224 $223 $87 $140 reversed $85 $-1 #
edge $-1 $232 -7.4210862965131703 $233 7.4210862965131703 $139 $234 forward 7 unknown #
face $-1 $235 $236 $32 $-1 $237 reversed single #
loop $-1 $-1 $238 $88 #
plane-surface $-1 -28.535616035777032 16.628163700046986 0 -1 0 0 0 0 1 forward_v I I I I #
coedge $-1 $239 $240 $241 $242 reversed $89 $-1 #
coedge $-1 $243 $91 $244 $245 reversed $57 $-1 #
coedge $-1 $91 $243 $246 $247 reversed $57 $-1 #
coedge $-1 $240 $239 $91 $148 reversed $89 $-1 #
edge $-1 $248 -7.4210862965131703 $249 7.4210862965131703 $147 $250 forward 7 unknown #
face $-1 $251 $252 $33 $-1 $253 reversed single #
loop $-1 $-1 $254 $92 #
plane-surface $-1 -103.64327726278891 2.4517499900296436 65.005123896429623 0 -1 0 0.69465837861970381 0 -0.71933979245794832 forward_v I I I I #
coedge $-1 $255 $256 $257 $258 reversed $93 $-1 #
coedge $-1 $154 $95 $259 $260 reversed $60 $-1 #
coedge $-1 $95 $153 $255 $261 reversed $60 $-1 #
coedge $-1 $257 $262 $95 $156 forward $263 $-1 #
edge $-1 $264 8.4438500025910841 $265 13.437903320247507 $155 $266 forward 7 unknown #
loop $-1 $-1 $162 $96 #
plane-surface $-1 -43.377788628803359 -1.6875004263107698 2.598384957373284 -0.69465837861970381 0 0.71933979245794832 0.71933979245794832 0 0.69465837861970381 forward_v I I I I #
loop $-1 $-1 $267 $62 #
coedge $-1 $160 $160 $161 $268 reversed $97 $-1 #
coedge $-1 $161 $161 $160 $268 forward $99 $-1 #
coedge $-1 $162 $162 $100 $163 forward $157 $-1 #
edge $-1 $269 0 $269 6.2831853071796004 $162 $270 forward 7 unknown #
loop $-1 $-1 $169 $101 #
plane-surface $-1 -43.377788628803359 -1.6875004263107698 2.598384957373284 -0.69465837861970381 0 0.71933979245794832 0.71933979245794832 0 0.69465837861970381 forward_v I I I I #
loop $-1 $-1 $271 $65 #
coedge $-1 $167 $167 $168 $272 reversed $102 $-1 #
coedge $-1 $168 $168 $167 $272 forward $104 $-1 #
coedge $-1 $169 $169 $105 $170 forward $164 $-1 #
edge $-1 $273 0 $273 6.2831853071796004 $169 $274 forward 7 unknown #
loop $-1 $-1 $176 $106 #
plane-surface $-1 -43.377788628803359 -1.6875004263107698 2.598384957373284 -0.69465837861970381 0 0.71933979245794832 0.71933979245794832 0 0.69465837861970381 forward_v I I I I #
loop $-1 $-1 $275 $68 #
coedge $-1 $174 $174 $175 $276 reversed $107 $-1 #
coedge $-1 $175 $175 $174 $276 forward $109 $-1 #
coedge $-1 $176 $176 $110 $177 forward $171 $-1 #
edge $-1 $277 0 $277 6.2831853071796004 $176 $278 forward 7 unknown #
face $-1 $279 $280 $37 $-1 $281 forward single #
loop $-1 $-1 $282 $111 #
plane-surface $-1 22.072736092126704 5.7011707302117909 122.488024725524 0 1 0 0.57357644374324357 0 0.81915203911291934 forward_v I I I I #
coedge $-1 $283 $284 $285 $286 reversed $112 $-1 #
coedge $-1 $183 $114 $287 $288 reversed $72 $-1 #
coedge $-1 $114 $182 $283 $289 reversed $72 $-1 #
coedge $-1 $285 $290 $114 $185 forward $280 $-1 #
edge $-1 $291 -32.341420582740021 $292 -24.115252426392452 $184 $293 forward 7 unknown #
loop $-1 $-1 $191 $115 #
plane-surface $-1 -27.68821938618359 9.8965032864161167 51.422016710537022 0.57357644374324357 0 0.81915203911291934 0.81915203911291934 0 -0.57357644374324357 forward_v I I I I #
loop $-1 $-1 $294 $74 #
coedge $-1 $189 $189 $190 $295 reversed $116 $-1 #
coedge $-1 $190 $190 $189 $295 forward $118 $-1 #
coedge $-1 $191 $191 $119 $192 forward $186 $-1 #
edge $-1 $296 0 $296 6.2831853071796004 $191 $297 forward 7 unknown #
loop $-1 $-1 $198 $120 #
plane-surface $-1 -27.68821938618359 9.8965032864161167 51.422016710537022 0.57357644374324357 0 0.81915203911291934 0.81915203911291934 0 -0.57357644374324357 forward_v I I I I #
loop $-1 $-1 $298 $77 #
coedge $-1 $196 $196 $197 $299 reversed $121 $-1 #
coedge $-1 $197 $197 $196 $299 forward $123 $-1 #
coedge $-1 $198 $198 $124 $199 forward $193 $-1 #
edge $-1 $300 0 $300 6.2831853071796004 $198 $301 forward 7 unknown #
face $-1 $302 $303 $30 $-1 $304 reversed single #
loop $-1 $-1 $305 $125 #
plane-surface $-1 -43.377788628803373 0 0 1 0 0 0 0 -1 forward_v I I I I #
coedge $-1 $306 $211 $307 $308 forward $126 $-1 #
coedge $-1 $309 $128 $306 $310 forward $81 $-1 #
coedge $-1 $128 $309 $311 $312 forward $81 $-1 #
coedge $-1 $214 $213 $128 $207 reversed $215 $-1 #
edge $-1 $313 -19.164491557473522 $314 19.164491557473522 $206 $315 forward 7 unknown #
coedge $-1 $130 $129 $316 $317 forward $51 $-1 #
coedge $-1 $318 $319 $129 $210 reversed $303 $-1 #
edge $-1 $217 -43.377788628803373 $320 43.377788628803373 $209 $321 forward 7 unknown #
coedge $-1 $203 $322 $130 $212 reversed $126 $-1 #
edge $-1 $323 -43.377788628803373 $216 43.377788628803373 $211 $324 forward 7 unknown #
coedge $-1 $206 $131 $322 $325 forward $215 $-1 #
coedge $-1 $131 $206 $318 $326 reversed $215 $-1 #
loop $-1 $-1 $213 $302 #
vertex $-1 $132 $327 #
vertex $-1 $132 $328 #
straight-curve $-1 43.377788628803373 0 7.4210862965131703 0 1 0 I I #
face $-1 $329 $330 $31 $-1 $331 reversed single #
loop $-1 $-1 $332 $133 #
plane-surface $-1 0 0 7.4210862965131703 0 0 1 1 0 0 forward_v I I I I #
coedge $-1 $333 $334 $335 $336 reversed $134 $-1 #
coedge $-1 $139 $136 $337 $338 reversed $85 $-1 #
coedge $-1 $136 $139 $339 $340 reversed $85 $-1 #
coedge $-1 $334 $333 $136 $226 reversed $134 $-1 #
edge $-1 $341 -7.4210862965131703 $342 7.4210862965131703 $225 $343 forward 7 unknown #
coedge $-1 $138 $137 $344 $345 reversed $54 $-1 #
coedge $-1 $337 $346 $137 $229 forward $330 $-1 #
edge $-1 $347 -10.85040970745003 $233 -5.7777539925969528 $228 $348 forward 7 unknown #
coedge $-1 $349 $339 $138 $231 forward $220 $-1 #
edge $-1 $232 5.7777539925969528 $350 10.85040970745003 $230 $351 forward 7 unknown #
vertex $-1 $231 $352 #
vertex $-1 $229 $353 #
straight-curve $-1 -32.418714671240664 -14.091835842620444 0 0 0 -1 I I #
face $-1 $354 $355 $32 $-1 $356 forward single #
loop $-1 $-1 $357 $141 #
plane-surface $-1 0 0 -7.4210862965131703 0 0 1 1 0 0 forward_v I I I I #
coedge $-1 $358 $359 $243 $360 forward $142 $-1 #
coedge $-1 $147 $144 $361 $362 reversed $89 $-1 #
coedge $-1 $144 $147 $363 $364 reversed $89 $-1 #
coedge $-1 $365 $366 $144 $242 forward $367 $-1 #
edge $-1 $368 -7.4210862965131703 $369 7.4210862965131703 $241 $370 forward 7 unknown #
coedge $-1 $146 $145 $238 $360 reversed $57 $-1 #
coedge $-1 $361 $357 $145 $245 forward $236 $-1 #
edge $-1 $371 13.297033359022608 $249 17.180131994486239 $244 $372 forward 7 unknown #
coedge $-1 $373 $363 $146 $247 forward $355 $-1 #
edge $-1 $248 -17.180131994486239 $374 -13.297033359022608 $246 $375 forward 7 unknown #
vertex $-1 $247 $376 #
vertex $-1 $245 $377 #
straight-curve $-1 -32.418714671240664 14.091835842620448 0 0 0 -1 I I #
face $-1 $-1 $263 $33 $-1 $378 forward single #
loop $-1 $-1 $379 $149 #
plane-surface $-1 -43.377788628803373 0 0 1 0 0 0 0 -1 forward_v I I I I #
coedge $-1 $380 $381 $382 $383 reversed $150 $-1 #
coedge $-1 $384 $152 $154 $261 forward $93 $-1 #
coedge $-1 $152 $384 $380 $385 forward $93 $-1 #
coedge $-1 $382 $155 $152 $258 forward $263 $-1 #
edge $-1 $265 -4.9830006294957983 $386 3.2955002031850285 $257 $387 forward 7 unknown #
coedge $-1 $388 $389 $153 $260 forward $252 $-1 #
edge $-1 $390 -29.904176990841542 $264 -25.081475651701641 $259 $391 forward 7 unknown #
edge $-1 $265 -6.9425511698608773 $390 1.9785632286268914e-014 $154 $392 forward 7 unknown #
coedge $-1 $155 $382 $388 $393 forward $263 $-1 #
loop $-1 $-1 $382 $251 #
vertex $-1 $260 $394 #
vertex $-1 $156 $395 #
straight-curve $-1 -51.821638631394457 -5.8267508426511831 7.4210862965131703 1 0 0 I I #
coedge $-1 $267 $267 $-1 $396 reversed $159 $-1 #
edge $-1 $397 0 $397 6.2831853071796004 $160 $398 forward 7 unknown #
vertex $-1 $163 $399 #
ellipse-curve $-1 -40.880761969975161 -4.1710506761150175 5.0097356269432201 -0.69465837861970381 0 0.71933979245794832 0.35966989622897416 0 0.3473291893098519 1 I I #
coedge $-1 $271 $271 $-1 $400 reversed $166 $-1 #
edge $-1 $401 0 $401 6.2831853071796004 $167 $402 forward 7 unknown #
vertex $-1 $170 $403 #
ellipse-curve $-1 -40.880761969975161 -1.6875004263107698 5.0097356269432201 -0.69465837861970381 0 0.71933979245794832 0.35966989622897416 0 0.3473291893098519 1 I I #
coedge $-1 $275 $275 $-1 $404 reversed $173 $-1 #
edge $-1 $405 0 $405 6.2831853071796004 $174 $406 forward 7 unknown #
vertex $-1 $177 $407 #
ellipse-curve $-1 -40.880761969975161 0.79604982349347964 5.0097356269432201 -0.69465837861970381 0 0.71933979245794832 0.35966989622897416 0 0.3473291893098519 1 I I #
face $-1 $-1 $408 $37 $-1 $409 reversed single #
loop $-1 $-1 $184 $178 #
plane-surface $-1 0 0 7.4210862965131703 0 0 1 1 0 0 forward_v I I I I #
coedge $-1 $410 $411 $412 $413 reversed $179 $-1 #
coedge $-1 $414 $181 $183 $289 forward $112 $-1 #
coedge $-1 $181 $414 $410 $415 forward $112 $-1 #
coedge $-1 $412 $184 $181 $286 forward $280 $-1 #
edge $-1 $292 -9.1435841994123841 $416 -0.75291908700373256 $285 $417 forward 7 unknown #
coedge $-1 $418 $419 $182 $288 forward $408 $-1 #
edge $-1 $420 -59.582951130535264 $291 -53.822926066248826 $287 $421 forward 7 unknown #
edge $-1 $292 76.713280146003498 $420 86.755577257606717 $183 $422 forward 7 unknown #
coedge $-1 $184 $412 $418 $423 forward $280 $-1 #
vertex $-1 $185 $424 #
vertex $-1 $185 $425 #
straight-curve $-1 11.036368046063352 14.091835842620442 7.4210862965131668 -1 0 0 I I #
coedge $-1 $294 $294 $-1 $426 reversed $188 $-1 #
edge $-1 $427 0 $427 6.2831853071796004 $189 $428 forward 7 unknown #
vertex $-1 $192 $429 #
ellipse-curve $-1 39.264704550629588 8.0985036194714084 4.541073764369945 0.57357644374324357 0 0.81915203911291934 0.40957601955645967 0 -0.28678822187162178 1 I I #
coedge $-1 $298 $298 $-1 $430 reversed $195 $-1 #
edge $-1 $431 0 $431 6.2831853071796004 $196 $432 forward 7 unknown #
vertex $-1 $199 $433 #
ellipse-curve $-1 39.264704550629588 11.694502953360832 4.541073764369945 0.57357644374324357 0 0.81915203911291934 0.40957601955645967 0 -0.28678822187162178 1 I I #
face $-1 $-1 $215 $30 $-1 $434 reversed single #
loop $-1 $-1 $318 $200 #
plane-surface $-1 0 19.164491557473522 0 0 -1 0 0 0 -1 forward_v I I I I #
coedge $-1 $435 $316 $319 $436 forward $201 $-1 #
coedge $-1 $322 $203 $204 $310 reversed $126 $-1 #
coedge $-1 $316 $435 $203 $308 reversed $201 $-1 #
edge $-1 $323 -7.4210862965131703 $437 7.4210862965131703 $307 $438 forward 7 unknown #
coedge $-1 $205 $204 $435 $439 forward $81 $-1 #
edge $-1 $314 -43.377788628803373 $437 43.377788628803373 $306 $440 forward 7 unknown #
coedge $-1 $319 $318 $205 $312 reversed $303 $-1 #
edge $-1 $441 -43.377788628803373 $313 43.377788628803373 $311 $442 forward 7 unknown #
vertex $-1 $207 $443 #
vertex $-1 $325 $444 #
straight-curve $-1 43.377788628803373 0 -7.4210862965131703 0 -1 0 I I #
coedge $-1 $305 $307 $208 $317 reversed $201 $-1 #
edge $-1 $320 -19.164491557473522 $323 19.164491557473522 $316 $445 forward 7 unknown #
coedge $-1 $311 $209 $214 $326 forward $303 $-1 #
coedge $-1 $209 $311 $305 $436 reversed $303 $-1 #
vertex $-1 $210 $446 #
straight-curve $-1 0 19.164491557473522 7.4210862965131703 -1 0 0 I I #
coedge $-1 $211 $306 $213 $325 reversed $126 $-1 #
vertex $-1 $317 $447 #
straight-curve $-1 0 -19.164491557473522 7.4210862965131703 1 0 0 I I #
edge $-1 $216 -7.4210862965131703 $314 7.4210862965131703 $213 $448 forward 7 unknown #
edge $-1 $217 -7.4210862965131703 $313 7.4210862965131703 $214 $449 forward 7 unknown #
point $-1 43.377788628803373 -19.164491557473522 7.4210862965131703 #
point $-1 43.377788628803373 19.164491557473522 7.4210862965131703 #
face $-1 $-1 $450 $31 $-1 $451 reversed single #
loop $-1 $-1 $452 $219 #
plane-surface $-1 0 0 -7.4210862965131703 0 0 1 1 0 0 forward_v I I I I #
coedge $-1 $339 $349 $334 $453 forward $220 $-1 #
coedge $-1 $225 $222 $452 $454 reversed $134 $-1 #
coedge $-1 $222 $225 $332 $453 reversed $134 $-1 #
coedge $-1 $455 $456 $222 $336 forward $450 $-1 #
edge $-1 $457 -7.4210862965131703 $458 7.4210862965131703 $335 $459 forward 7 unknown #
coedge $-1 $452 $228 $223 $338 forward $330 $-1 #
edge $-1 $233 -17.180131994486239 $342 -13.297033359022608 $337 $460 forward 7 unknown #
coedge $-1 $230 $332 $224 $340 forward $220 $-1 #
edge $-1 $341 13.297033359022608 $232 17.180131994486239 $339 $461 forward 7 unknown #
vertex $-1 $340 $462 #
vertex $-1 $338 $463 #
straight-curve $-1 -28.535616035777032 -14.091835842620444 0 0 0 -1 I I #
coedge $-1 $456 $455 $227 $345 forward $450 $-1 #
edge $-1 $350 -7.4210862965131703 $347 7.4210862965131703 $344 $464 forward 7 unknown #
coedge $-1 $228 $452 $456 $465 forward $330 $-1 #
vertex $-1 $229 $466 #
straight-curve $-1 -32.418714671240664 -8.3140818500234914 -7.4210862965131703 0 1 0 I I #
coedge $-1 $332 $230 $455 $467 forward $220 $-1 #
vertex $-1 $467 $468 #
straight-curve $-1 -32.418714671240664 -8.3140818500234914 7.4210862965131703 0 -1 0 I I #
point $-1 -32.418714671240664 -14.091835842620444 7.4210862965131703 #
point $-1 -32.418714671240664 -14.091835842620444 -7.4210862965131703 #
face $-1 $-1 $367 $32 $-1 $469 reversed single #
loop $-1 $-1 $373 $235 #
plane-surface $-1 0 0 7.4210862965131703 0 0 1 1 0 0 forward_v I I I I #
coedge $-1 $244 $470 $358 $471 forward $236 $-1 #
coedge $-1 $472 $238 $357 $471 reversed $142 $-1 #
coedge $-1 $238 $472 $373 $473 reversed $142 $-1 #
edge $-1 $374 -7.4210862965131703 $371 7.4210862965131703 $238 $474 forward 7 unknown #
coedge $-1 $470 $244 $239 $362 forward $236 $-1 #
edge $-1 $249 5.7777539925969545 $368 10.850409707450032 $361 $475 forward 7 unknown #
coedge $-1 $246 $476 $240 $364 forward $355 $-1 #
edge $-1 $369 -10.850409707450032 $248 -5.7777539925969545 $363 $477 forward 7 unknown #
coedge $-1 $478 $241 $476 $479 reversed $367 $-1 #
coedge $-1 $241 $478 $470 $480 reversed $367 $-1 #
loop $-1 $-1 $478 $354 #
vertex $-1 $480 $481 #
vertex $-1 $242 $482 #
straight-curve $-1 -32.418714671240664 19.164491557473522 0 0 0 1 I I #
vertex $-1 $245 $483 #
straight-curve $-1 -15.238582676754424 14.091835842620448 -7.4210862965131703 -1 0 0 I I #
coedge $-1 $476 $246 $359 $473 forward $355 $-1 #
vertex $-1 $247 $484 #
straight-curve $-1 -15.238582676754424 14.091835842620448 7.4210862965131703 1 0 0 I I #
point $-1 -32.418714671240664 14.091835842620448 7.4210862965131703 #
point $-1 -32.418714671240664 14.091835842620448 -7.4210862965131703 #
plane-surface $-1 0 0 7.4210862965131703 0 0 1 1 0 0 forward_v I I I I #
coedge $-1 $389 $388 $381 $485 forward $252 $-1 #
coedge $-1 $381 $254 $256 $385 reversed $150 $-1 #
coedge $-1 $254 $380 $379 $485 reversed $150 $-1 #
coedge $-1 $262 $257 $254 $383 forward $263 $-1 #
edge $-1 $386 -13.437903320247507 $486 -8.4438500025910841 $382 $487 forward 7 unknown #
coedge $-1 $256 $255 $389 $488 reversed $93 $-1 #
edge $-1 $489 -1.9785632286268914e-014 $386 6.9425511698608773 $380 $490 forward 7 unknown #
vertex $-1 $258 $491 #
straight-curve $-1 -38.383735311146943 -0.8437502131553849 7.4210862965131694 0 1 0 I I #
coedge $-1 $379 $259 $262 $393 reversed $252 $-1 #
coedge $-1 $259 $379 $384 $488 forward $252 $-1 #
vertex $-1 $260 $492 #
straight-curve $-1 -43.377788628803373 -5.8267508426511831 32.502561948214812 0 0 1 I I #
straight-curve $-1 -43.377788628803359 -5.8267508426511831 2.598384957373284 -0.71933979245794832 0 -0.69465837861970381 I I #
edge $-1 $486 -2.4517499900296436 $264 5.8267508426511831 $388 $493 forward 7 unknown #
point $-1 -43.377788628803373 -5.8267508426511831 7.4210862965131703 #
point $-1 -38.38373531114695 -5.8267508426511831 7.4210862965131703 #
edge $-1 $494 1 $494 0 $267 $-1 forward 7 unknown #
vertex $-1 $268 $495 #
ellipse-curve $-1 -39.949872678761714 -4.1710506761150175 4.045771568993815 -0.69465837861970381 0 0.71933979245794832 0.35966989622897416 0 0.3473291893098519 1 I I #
point $-1 -40.521092073746196 -4.1710506761150175 5.3570648162530832 #
edge $-1 $496 1 $496 0 $271 $-1 forward 7 unknown #
vertex $-1 $272 $497 #
ellipse-curve $-1 -39.949872678761714 -1.6875004263107698 4.045771568993815 -0.69465837861970381 0 0.71933979245794832 0.35966989622897416 0 0.3473291893098519 1 I I #
point $-1 -40.521092073746196 -1.6875004263107698 5.3570648162530832 #
edge $-1 $498 1 $498 0 $275 $-1 forward 7 unknown #
vertex $-1 $276 $499 #
ellipse-curve $-1 -39.949872678761714 0.79604982349347964 4.045771568993815 -0.69465837861970381 0 0.71933979245794832 0.35966989622897416 0 0.3473291893098519 1 I I #
point $-1 -40.521092073746196 0.79604982349347964 5.3570648162530832 #
loop $-1 $-1 $287 $279 #
plane-surface $-1 43.377788628803373 0 0 -1 0 0 0 0 1 forward_v I I I I #
coedge $-1 $411 $282 $284 $415 reversed $179 $-1 #
coedge $-1 $282 $410 $500 $501 reversed $179 $-1 #
coedge $-1 $290 $285 $282 $413 forward $280 $-1 #
edge $-1 $416 24.115252426392452 $502 32.341420582740021 $412 $503 forward 7 unknown #
coedge $-1 $284 $283 $419 $504 reversed $112 $-1 #
edge $-1 $505 -86.755577257606717 $416 -76.713280146003498 $410 $506 forward 7 unknown #
vertex $-1 $286 $507 #
straight-curve $-1 35.151620472455782 4.9482516432080583 7.4210862965131739 0 -1 0 I I #
coedge $-1 $500 $287 $290 $423 reversed $408 $-1 #
coedge $-1 $287 $500 $414 $504 forward $408 $-1 #
vertex $-1 $288 $508 #
straight-curve $-1 43.377788628803373 14.091835842620442 61.244012362762 0 0 1 I I #
straight-curve $-1 -27.68821938618359 14.091835842620442 51.422016710537022 0.81915203911291934 0 -0.57357644374324357 I I #
edge $-1 $502 5.7011707302117909 $291 14.091835842620442 $418 $509 forward 7 unknown #
point $-1 43.377788628803373 14.091835842620442 7.4210862965131703 #
point $-1 35.151620472455804 14.091835842620442 7.4210862965131597 #
edge $-1 $510 1 $510 0 $294 $-1 forward 7 unknown #
vertex $-1 $295 $511 #
ellipse-curve $-1 38.59432712620761 8.0985036194714084 3.5836756003052694 0.57357644374324357 0 0.81915203911291934 0.40957601955645967 0 -0.28678822187162178 1 I I #
point $-1 39.674280570186049 8.0985036194714084 4.2542855424983319 #
edge $-1 $512 1 $512 0 $298 $-1 forward 7 unknown #
vertex $-1 $299 $513 #
ellipse-curve $-1 38.59432712620761 11.694502953360832 3.5836756003052694 0.57357644374324357 0 0.81915203911291934 0.40957601955645967 0 -0.28678822187162178 1 I I #
point $-1 39.674280570186049 11.694502953360832 4.2542855424983319 #
plane-surface $-1 43.377788628803373 0 0 -1 0 0 0 0 1 forward_v I I I I #
coedge $-1 $307 $305 $309 $439 reversed $201 $-1 #
edge $-1 $320 -7.4210862965131703 $441 7.4210862965131703 $319 $514 forward 7 unknown #
vertex $-1 $439 $515 #
straight-curve $-1 -43.377788628803373 -19.164491557473522 0 0 0 -1 I I #
edge $-1 $437 -19.164491557473522 $441 19.164491557473522 $435 $516 forward 7 unknown #
straight-curve $-1 0 -19.164491557473522 -7.4210862965131703 -1 0 0 I I #
vertex $-1 $312 $517 #
straight-curve $-1 0 19.164491557473522 -7.4210862965131703 1 0 0 I I #
point $-1 43.377788628803373 19.164491557473522 -7.4210862965131703 #
point $-1 43.377788628803373 -19.164491557473522 -7.4210862965131703 #
straight-curve $-1 -43.377788628803373 0 7.4210862965131703 0 -1 0 I I #
point $-1 -43.377788628803373 19.164491557473522 7.4210862965131703 #
point $-1 -43.377788628803373 -19.164491557473522 7.4210862965131703 #
straight-curve $-1 43.377788628803373 -19.164491557473522 0 0 0 -1 I I #
straight-curve $-1 43.377788628803373 19.164491557473522 0 0 0 -1 I I #
loop $-1 $-1 $335 $329 #
plane-surface $-1 0 -19.164491557473522 0 0 1 0 0 0 1 forward_v I I I I #
coedge $-1 $346 $337 $333 $454 forward $330 $-1 #
edge $-1 $458 -10.85040970745003 $341 -5.7777539925969528 $332 $518 forward 7 unknown #
edge $-1 $342 5.7777539925969528 $457 10.85040970745003 $452 $519 forward 7 unknown #
coedge $-1 $344 $335 $349 $467 reversed $450 $-1 #
coedge $-1 $335 $344 $346 $465 reversed $450 $-1 #
vertex $-1 $465 $520 #
vertex $-1 $336 $521 #
straight-curve $-1 -28.535616035777032 -19.164491557473522 0 0 0 1 I I #
straight-curve $-1 -15.238582676754424 -14.091835842620444 -7.4210862965131703 1 0 0 I I #
straight-curve $-1 -15.238582676754424 -14.091835842620444 7.4210862965131703 -1 0 0 I I #
point $-1 -28.535616035777032 -14.091835842620444 7.4210862965131703 #
point $-1 -28.535616035777032 -14.091835842620444 -7.4210862965131703 #
straight-curve $-1 -32.418714671240664 -19.164491557473522 0 0 0 -1 I I #
edge $-1 $457 28.535616035777032 $347 32.418714671240664 $456 $522 forward 7 unknown #
point $-1 -32.418714671240664 -19.164491557473522 -7.4210862965131703 #
edge $-1 $350 -32.418714671240664 $458 -28.535616035777032 $455 $523 forward 7 unknown #
point $-1 -32.418714671240664 -19.164491557473522 7.4210862965131703 #
plane-surface $-1 0 19.164491557473522 0 0 -1 0 0 0 -1 forward_v I I I I #
coedge $-1 $357 $361 $366 $480 forward $236 $-1 #
edge $-1 $524 -10.850409707450032 $371 -5.7777539925969545 $357 $525 forward 7 unknown #
coedge $-1 $359 $358 $478 $526 reversed $142 $-1 #
edge $-1 $374 5.7777539925969545 $527 10.850409707450032 $373 $528 forward 7 unknown #
straight-curve $-1 -28.535616035777032 14.091835842620448 0 0 0 -1 I I #
straight-curve $-1 -32.418714671240664 8.3140818500234932 -7.4210862965131703 0 1 0 I I #
coedge $-1 $363 $373 $365 $479 forward $355 $-1 #
straight-curve $-1 -32.418714671240664 8.3140818500234932 7.4210862965131703 0 -1 0 I I #
coedge $-1 $366 $365 $472 $526 forward $367 $-1 #
edge $-1 $527 28.535616035777032 $369 32.418714671240664 $365 $529 forward 7 unknown #
edge $-1 $368 -32.418714671240664 $524 -28.535616035777032 $366 $530 forward 7 unknown #
point $-1 -32.418714671240664 19.164491557473525 -7.4210862965131703 #
point $-1 -32.418714671240664 19.164491557473525 7.4210862965131703 #
point $-1 -28.535616035777032 14.091835842620448 -7.4210862965131703 #
point $-1 -28.535616035777032 14.091835842620448 7.4210862965131703 #
edge $-1 $486 25.081475651701641 $489 29.904176990841542 $379 $531 forward 7 unknown #
vertex $-1 $393 $532 #
straight-curve $-1 -51.821638631394457 2.4517499900296436 7.4210862965131703 -1 0 0 I I #
edge $-1 $489 -3.2955002031850285 $390 4.9830006294957983 $389 $533 forward 7 unknown #
vertex $-1 $488 $534 #
straight-curve $-1 -43.377788628803359 2.4517499900296436 2.598384957373284 0.71933979245794832 0 0.69465837861970381 I I #
point $-1 -38.38373531114695 2.4517499900296436 7.4210862965131703 #
point $-1 -43.377788628803373 -5.8267508426511831 2.5983849573732702 #
straight-curve $-1 -43.377788628803373 0 7.4210862965131703 0 -1 0 I I #
vertex $-1 $396 $535 #
point $-1 -39.590202782532742 -4.1710506761150175 4.3931007583036674 #
vertex $-1 $400 $536 #
point $-1 -39.590202782532742 -1.6875004263107698 4.3931007583036674 #
vertex $-1 $404 $537 #
point $-1 -39.590202782532742 0.79604982349347964 4.3931007583036674 #
coedge $-1 $419 $418 $411 $501 forward $408 $-1 #
edge $-1 $502 53.822926066248826 $505 59.582951130535264 $500 $538 forward 7 unknown #
vertex $-1 $423 $539 #
straight-curve $-1 11.036368046063352 5.7011707302117909 7.4210862965131668 1 0 0 I I #
edge $-1 $505 0.75291908700373256 $420 9.1435841994123841 $419 $540 forward 7 unknown #
vertex $-1 $504 $541 #
straight-curve $-1 -27.68821938618359 5.7011707302117909 51.422016710537022 -0.81915203911291934 0 0.57357644374324357 I I #
point $-1 35.151620472455804 5.7011707302117909 7.4210862965131597 #
point $-1 43.377788628803373 14.091835842620442 1.6610612322267357 #
straight-curve $-1 43.377788628803373 0 7.4210862965131703 0 1 0 I I #
vertex $-1 $426 $542 #
point $-1 39.00390314576407 8.0985036194714084 3.2968873784336474 #
vertex $-1 $430 $543 #
point $-1 39.00390314576407 11.694502953360832 3.2968873784336474 #
straight-curve $-1 -43.377788628803373 19.164491557473522 0 0 0 -1 I I #
point $-1 -43.377788628803373 -19.164491557473522 -7.4210862965131703 #
straight-curve $-1 -43.377788628803373 0 -7.4210862965131703 0 1 0 I I #
point $-1 -43.377788628803373 19.164491557473522 -7.4210862965131703 #
straight-curve $-1 -28.535616035777032 -8.3140818500234914 7.4210862965131703 0 1 0 I I #
straight-curve $-1 -28.535616035777032 -8.3140818500234914 -7.4210862965131703 0 -1 0 I I #
point $-1 -28.535616035777032 -19.164491557473522 -7.4210862965131703 #
point $-1 -28.535616035777032 -19.164491557473522 7.4210862965131703 #
straight-curve $-1 0 -19.164491557473522 -7.4210862965131703 -1 0 0 I I #
straight-curve $-1 0 -19.164491557473522 7.4210862965131703 1 0 0 I I #
vertex $-1 $526 $544 #
straight-curve $-1 -28.535616035777032 8.3140818500234932 -7.4210862965131703 0 -1 0 I I #
edge $-1 $527 -7.4210862965131703 $524 7.4210862965131703 $478 $545 forward 7 unknown #
vertex $-1 $479 $546 #
straight-curve $-1 -28.535616035777032 8.3140818500234932 7.4210862965131703 0 1 0 I I #
straight-curve $-1 0 19.164491557473522 7.4210862965131703 -1 0 0 I I #
straight-curve $-1 0 19.164491557473522 -7.4210862965131703 1 0 0 I I #
straight-curve $-1 -43.377788628803373 2.4517499900296436 32.502561948214812 0 0 -1 I I #
point $-1 -43.377788628803373 2.4517499900296436 7.4210862965131703 #
straight-curve $-1 -43.377788628803373 -0.8437502131553849 2.5983849573732698 0 -1 0 I I #
point $-1 -43.377788628803373 2.4517499900296436 2.5983849573732702 #
point $-1 -39.602543489451868 -4.1710506761150175 3.686101672764841 #
point $-1 -39.602543489451868 -1.6875004263107698 3.686101672764841 #
point $-1 -39.602543489451868 0.79604982349347964 3.686101672764841 #
straight-curve $-1 43.377788628803373 5.7011707302117909 61.244012362762 0 0 -1 I I #
point $-1 43.377788628803373 5.7011707302117909 7.4210862965131703 #
straight-curve $-1 43.377788628803373 4.9482516432080583 1.6610612322267322 0 1 0 I I #
point $-1 43.377788628803373 5.7011707302117909 1.6610612322267357 #
point $-1 38.307538904335992 8.0985036194714084 3.1740995807488095 #
point $-1 38.307538904335992 11.694502953360832 3.1740995807488095 #
point $-1 -28.535616035777032 19.164491557473525 -7.4210862965131703 #
straight-curve $-1 -28.535616035777032 19.164491557473522 0 0 0 -1 I I #
point $-1 -28.535616035777032 19.164491557473525 7.4210862965131703 #
End-of-ACIS-data 