500 0 9 0           
7 Unknown 11 ACIS 5.0 NT 24 Fri Mar 26 01:32:24 1999 
-1 9.9999999999999995e-007 1e-010 
body $-1 $9 $-1 $10 #
body $-1 $11 $-1 $12 #
body $-1 $13 $-1 $14 #
body $-1 $15 $-1 $16 #
body $-1 $17 $-1 $18 #
body $-1 $19 $-1 $20 #
body $-1 $21 $-1 $22 #
body $-1 $23 $-1 $24 #
body $-1 $25 $-1 $26 #
lump $-1 $-1 $27 $0 #
transform $-1 1 0 0 0 1 0 0 0 1 64.771263771477408 29.199748349849241 11.494989284622037 1 rotate no_reflect no_shear #
lump $-1 $-1 $28 $1 #
transform $-1 1 0 0 0 1 0 0 0 1 64.771263771477408 29.199748349849241 11.494989284622037 1 rotate no_reflect no_shear #
lump $-1 $-1 $29 $2 #
transform $-1 1 0 0 0 1 0 0 0 1 64.771263771477408 29.199748349849241 11.494989284622037 1 rotate no_reflect no_shear #
lump $-1 $-1 $30 $3 #
transform $-1 1 0 0 0 1 0 0 0 1 64.771263771477408 29.199748349849241 11.494989284622037 1 rotate no_reflect no_shear #
lump $-1 $-1 $31 $4 #
transform $-1 1 0 0 0 1 0 0 0 1 64.771263771477408 29.199748349849241 11.494989284622037 1 rotate no_reflect no_shear #
lump $-1 $-1 $32 $5 #
transform $-1 1 0 0 0 1 0 0 0 1 64.771263771477408 29.199748349849241 11.494989284622037 1 rotate no_reflect no_shear #
lump $-1 $-1 $33 $6 #
transform $-1 1 0 0 0 1 0 0 0 1 64.771263771477408 29.199748349849241 11.494989284622037 1 rotate no_reflect no_shear #
lump $-1 $-1 $34 $7 #
transform $-1 1 0 0 0 1 0 0 0 1 64.771263771477408 29.199748349849241 11.494989284622037 1 rotate no_reflect no_shear #
lump $-1 $-1 $35 $8 #
transform $-1 1 0 0 0 1 0 0 0 1 64.771263771477408 29.199748349849241 11.494989284622037 1 rotate no_reflect no_shear #
shell $-1 $-1 $-1 $36 $-1 $9 #
shell $-1 $-1 $-1 $37 $-1 $11 #
shell $-1 $-1 $-1 $38 $-1 $13 #
shell $-1 $-1 $-1 $39 $-1 $15 #
shell $-1 $-1 $-1 $40 $-1 $17 #
shell $-1 $-1 $-1 $41 $-1 $19 #
shell $-1 $-1 $-1 $42 $-1 $21 #
shell $-1 $-1 $-1 $43 $-1 $23 #
shell $-1 $-1 $-1 $44 $-1 $25 #
face $-1 $45 $46 $27 $-1 $47 forward single #
face $-1 $48 $49 $28 $-1 $50 reversed single #
face $-1 $51 $52 $29 $-1 $53 reversed single #
face $-1 $54 $55 $30 $-1 $56 forward single #
face $-1 $57 $58 $31 $-1 $59 forward single #
face $-1 $60 $61 $32 $-1 $62 forward single #
face $-1 $63 $64 $33 $-1 $65 reversed single #
face $-1 $66 $67 $34 $-1 $68 forward single #
face $-1 $69 $70 $35 $-1 $71 forward single #
face $-1 $72 $73 $27 $-1 $74 reversed single #
loop $-1 $-1 $75 $36 #
plane-surface $-1 0 0 11.494989284622037 0 0 1 1 0 0 forward_v I I I I #
face $-1 $76 $77 $28 $-1 $78 reversed single #
loop $-1 $-1 $79 $37 #
plane-surface $-1 -62.9203554501604 -17.384539752534462 0 0 -1 0 0 0 -1 forward_v I I I I #
face $-1 $80 $81 $29 $-1 $82 reversed single #
loop $-1 $-1 $83 $38 #
plane-surface $-1 39.274642157536661 6.1933343374071974 187.1909792364861 0 -1 0 -0.6018150307709319 0 -0.79863550430605224 forward_v I I I I #
face $-1 $84 $85 $30 $-1 $86 forward single #
loop $-1 $87 $88 $39 #
cone-surface $-1 59.984913132646156 -3.0687565185458645 7.3206121275534164 -0.6018150307709319 0 -0.79863550430605224 0.79863550430605224 0 -0.6018150307709319 1 I I 0 1 1 forward I I I I #
face $-1 $89 $90 $31 $-1 $91 forward single #
loop $-1 $92 $93 $40 #
cone-surface $-1 59.984913132646156 0.40452755243653371 7.3206121275534164 -0.6018150307709319 0 -0.79863550430605224 0.79863550430605224 0 -0.6018150307709319 1 I I 0 1 1 forward I I I I #
face $-1 $94 $95 $32 $-1 $96 forward single #
loop $-1 $97 $98 $41 #
cone-surface $-1 59.984913132646156 3.8778116234189319 7.3206121275534164 -0.6018150307709319 0 -0.79863550430605224 0.79863550430605224 0 -0.6018150307709319 1 I I 0 1 1 forward I I I I #
face $-1 $99 $100 $33 $-1 $101 reversed single #
loop $-1 $-1 $102 $42 #
plane-surface $-1 -64.771263771477393 -13.676507029766121 6.2081061253565792 -0.73135370988377701 0 0.68199835119979291 0.68199835119979291 0 0.73135370988377701 forward_v I I I I #
face $-1 $103 $104 $34 $-1 $105 forward single #
loop $-1 $106 $107 $43 #
cone-surface $-1 -61.57606623970922 -15.265663910952554 8.1706732867392784 0.73135370988377701 0 -0.68199835119979291 0.34099917559989645 0 0.36567685494188851 1 I I 0 1 0.5 forward I I I I #
face $-1 $108 $109 $35 $-1 $110 forward single #
loop $-1 $111 $112 $44 #
cone-surface $-1 -61.57606623970922 -12.087350148579691 8.1706732867392784 0.73135370988377701 0 -0.68199835119979291 0.34099917559989645 0 0.36567685494188851 1 I I 0 1 0.5 forward I I I I #
face $-1 $113 $114 $27 $-1 $115 reversed single #
loop $-1 $-1 $116 $45 #
plane-surface $-1 0 0 -11.494989284622037 0 0 1 1 0 0 forward_v I I I I #
coedge $-1 $117 $118 $119 $120 forward $46 $-1 #
face $-1 $121 $122 $28 $-1 $123 forward single #
loop $-1 $-1 $124 $48 #
plane-surface $-1 -61.069447128843393 -23.292144051191851 0 -1 0 0 0 0 1 forward_v I I I I #
coedge $-1 $125 $126 $127 $128 forward $49 $-1 #
face $-1 $129 $130 $29 $-1 $131 reversed single #
loop $-1 $-1 $132 $51 #
plane-surface $-1 -38.685998041870988 0.40452755243653371 83.733717423137719 0.6018150307709319 0 0.79863550430605224 0.79863550430605224 0 -0.6018150307709319 forward_v I I I I #
coedge $-1 $133 $134 $135 $136 reversed $52 $-1 #
face $-1 $-1 $137 $30 $-1 $138 forward single #
loop $-1 $139 $140 $54 #
cone-surface $-1 58.69427178815873 -3.0687565185458645 5.6078732487777359 -0.6018150307709319 0 -0.79863550430605224 0.39931775215302612 0 -0.30090751538546595 1 I I -0.70710678118654746 0.70710678118654746 0.5 forward I I I I #
loop $-1 $-1 $141 $39 #
coedge $-1 $88 $88 $142 $143 reversed $55 $-1 #
face $-1 $-1 $144 $31 $-1 $145 forward single #
loop $-1 $146 $147 $57 #
cone-surface $-1 58.69427178815873 0.40452755243653371 5.6078732487777359 -0.6018150307709319 0 -0.79863550430605224 0.39931775215302612 0 -0.30090751538546595 1 I I -0.70710678118654746 0.70710678118654746 0.5 forward I I I I #
loop $-1 $-1 $148 $40 #
coedge $-1 $93 $93 $149 $150 reversed $58 $-1 #
face $-1 $-1 $151 $32 $-1 $152 forward single #
loop $-1 $153 $154 $60 #
cone-surface $-1 58.69427178815873 3.8778116234189319 5.6078732487777359 -0.6018150307709319 0 -0.79863550430605224 0.39931775215302612 0 -0.30090751538546595 1 I I -0.70710678118654746 0.70710678118654746 0.5 forward I I I I #
loop $-1 $-1 $155 $41 #
coedge $-1 $98 $98 $156 $157 reversed $61 $-1 #
face $-1 $158 $159 $33 $-1 $160 forward single #
loop $-1 $-1 $161 $63 #
plane-surface $-1 -159.51267187773877 -9.9684743069977806 94.555896319905528 0 -1 0 0.73135370988377701 0 -0.68199835119979291 forward_v I I I I #
coedge $-1 $162 $163 $164 $165 reversed $64 $-1 #
face $-1 $-1 $166 $34 $-1 $167 forward single #
loop $-1 $168 $169 $66 #
cone-surface $-1 -60.66307937291127 -15.265663910952554 7.3192992806892967 0.73135370988377701 0 -0.68199835119979291 0.17049958779994823 0 0.18283842747094425 1 I I -0.70710678118654746 0.70710678118654746 0.25 forward I I I I #
loop $-1 $-1 $170 $43 #
coedge $-1 $107 $107 $171 $172 reversed $67 $-1 #
face $-1 $-1 $173 $35 $-1 $174 forward single #
loop $-1 $175 $176 $69 #
cone-surface $-1 -60.66307937291127 -12.087350148579691 7.3192992806892967 0.73135370988377701 0 -0.68199835119979291 0.17049958779994823 0 0.18283842747094425 1 I I -0.70710678118654746 0.70710678118654746 0.25 forward I I I I #
loop $-1 $-1 $177 $44 #
coedge $-1 $112 $112 $178 $179 reversed $70 $-1 #
face $-1 $180 $181 $27 $-1 $182 reversed single #
loop $-1 $-1 $183 $72 #
plane-surface $-1 0 -29.199748349849241 0 0 1 0 0 0 1 forward_v I I I I #
coedge $-1 $184 $185 $186 $187 forward $73 $-1 #
coedge $-1 $188 $75 $189 $190 forward $46 $-1 #
coedge $-1 $75 $188 $191 $192 forward $46 $-1 #
coedge $-1 $193 $194 $75 $120 reversed $195 $-1 #
edge $-1 $196 -29.199748349849241 $197 29.199748349849241 $119 $198 forward 7 unknown #
face $-1 $199 $200 $28 $-1 $201 reversed single #
loop $-1 $-1 $202 $76 #
plane-surface $-1 0 0 11.494989284622037 0 0 1 1 0 0 forward_v I I I I #
coedge $-1 $203 $204 $205 $206 reversed $77 $-1 #
coedge $-1 $207 $79 $208 $209 reversed $49 $-1 #
coedge $-1 $79 $207 $210 $211 reversed $49 $-1 #
coedge $-1 $204 $203 $79 $128 reversed $77 $-1 #
edge $-1 $212 -11.494989284622037 $213 11.494989284622037 $127 $214 forward 7 unknown #
face $-1 $215 $216 $29 $-1 $217 reversed single #
loop $-1 $-1 $218 $80 #
plane-surface $-1 39.274642157536661 -5.38427923253413 187.1909792364861 0 1 0 0.6018150307709319 0 0.79863550430605224 forward_v I I I I #
coedge $-1 $219 $220 $221 $222 reversed $81 $-1 #
coedge $-1 $134 $83 $223 $224 reversed $52 $-1 #
coedge $-1 $83 $133 $219 $225 reversed $52 $-1 #
coedge $-1 $221 $226 $83 $136 forward $227 $-1 #
edge $-1 $228 -45.133942692709077 $229 -37.54070907325049 $135 $230 forward 7 unknown #
loop $-1 $-1 $142 $84 #
plane-surface $-1 -38.685998041870988 0.40452755243653371 83.733717423137719 0.6018150307709319 0 0.79863550430605224 0.79863550430605224 0 -0.6018150307709319 forward_v I I I I #
loop $-1 $-1 $231 $54 #
coedge $-1 $140 $140 $141 $232 reversed $85 $-1 #
coedge $-1 $141 $141 $140 $232 forward $87 $-1 #
coedge $-1 $142 $142 $88 $143 forward $137 $-1 #
edge $-1 $233 0 $233 6.2831853071796004 $142 $234 forward 7 unknown #
loop $-1 $-1 $149 $89 #
plane-surface $-1 -38.685998041870988 0.40452755243653371 83.733717423137719 0.6018150307709319 0 0.79863550430605224 0.79863550430605224 0 -0.6018150307709319 forward_v I I I I #
loop $-1 $-1 $235 $57 #
coedge $-1 $147 $147 $148 $236 reversed $90 $-1 #
coedge $-1 $148 $148 $147 $236 forward $92 $-1 #
coedge $-1 $149 $149 $93 $150 forward $144 $-1 #
edge $-1 $237 0 $237 6.2831853071796004 $149 $238 forward 7 unknown #
loop $-1 $-1 $156 $94 #
plane-surface $-1 -38.685998041870988 0.40452755243653371 83.733717423137719 0.6018150307709319 0 0.79863550430605224 0.79863550430605224 0 -0.6018150307709319 forward_v I I I I #
loop $-1 $-1 $239 $60 #
coedge $-1 $154 $154 $155 $240 reversed $95 $-1 #
coedge $-1 $155 $155 $154 $240 forward $97 $-1 #
coedge $-1 $156 $156 $98 $157 forward $151 $-1 #
edge $-1 $241 0 $241 6.2831853071796004 $156 $242 forward 7 unknown #
face $-1 $243 $244 $33 $-1 $245 forward single #
loop $-1 $-1 $246 $99 #
plane-surface $-1 0 0 11.494989284622037 0 0 1 1 0 0 forward_v I I I I #
coedge $-1 $247 $248 $249 $250 reversed $100 $-1 #
coedge $-1 $251 $102 $252 $253 reversed $64 $-1 #
coedge $-1 $102 $251 $247 $254 forward $64 $-1 #
coedge $-1 $249 $246 $102 $165 forward $159 $-1 #
edge $-1 $255 -10.546286237651401 $256 -3.13022079211472 $164 $257 forward 7 unknown #
loop $-1 $-1 $171 $103 #
plane-surface $-1 -64.771263771477393 -13.676507029766121 6.2081061253565792 -0.73135370988377701 0 0.68199835119979291 0.68199835119979291 0 0.73135370988377701 forward_v I I I I #
loop $-1 $-1 $258 $66 #
coedge $-1 $169 $169 $170 $259 reversed $104 $-1 #
coedge $-1 $170 $170 $169 $259 forward $106 $-1 #
coedge $-1 $171 $171 $107 $172 forward $166 $-1 #
edge $-1 $260 0 $260 6.2831853071796004 $171 $261 forward 7 unknown #
loop $-1 $-1 $178 $108 #
plane-surface $-1 -64.771263771477393 -13.676507029766121 6.2081061253565792 -0.73135370988377701 0 0.68199835119979291 0.68199835119979291 0 0.73135370988377701 forward_v I I I I #
loop $-1 $-1 $262 $69 #
coedge $-1 $176 $176 $177 $263 reversed $109 $-1 #
coedge $-1 $177 $177 $176 $263 forward $111 $-1 #
coedge $-1 $178 $178 $112 $179 forward $173 $-1 #
edge $-1 $264 0 $264 6.2831853071796004 $178 $265 forward 7 unknown #
face $-1 $266 $267 $27 $-1 $268 reversed single #
loop $-1 $-1 $269 $113 #
plane-surface $-1 -64.771263771477408 0 0 1 0 0 0 0 -1 forward_v I I I I #
coedge $-1 $270 $191 $271 $272 forward $114 $-1 #
coedge $-1 $273 $116 $270 $274 forward $73 $-1 #
coedge $-1 $116 $273 $275 $276 forward $73 $-1 #
coedge $-1 $194 $193 $116 $187 reversed $195 $-1 #
edge $-1 $277 -29.199748349849241 $278 29.199748349849241 $186 $279 forward 7 unknown #
coedge $-1 $118 $117 $280 $281 forward $46 $-1 #
coedge $-1 $282 $283 $117 $190 reversed $267 $-1 #
edge $-1 $197 -64.771263771477408 $284 64.771263771477408 $189 $285 forward 7 unknown #
coedge $-1 $183 $286 $118 $192 reversed $114 $-1 #
edge $-1 $287 -64.771263771477408 $196 64.771263771477408 $191 $288 forward 7 unknown #
coedge $-1 $186 $119 $286 $289 forward $195 $-1 #
coedge $-1 $119 $186 $282 $290 reversed $195 $-1 #
loop $-1 $-1 $193 $266 #
vertex $-1 $120 $291 #
vertex $-1 $120 $292 #
straight-curve $-1 64.771263771477408 0 11.494989284622037 0 1 0 I I #
face $-1 $293 $294 $28 $-1 $295 reversed single #
loop $-1 $-1 $296 $121 #
plane-surface $-1 -64.771263771477408 0 0 1 0 0 0 0 -1 forward_v I I I I #
coedge $-1 $210 $297 $204 $298 forward $122 $-1 #
coedge $-1 $127 $124 $299 $300 reversed $77 $-1 #
coedge $-1 $124 $127 $202 $298 reversed $77 $-1 #
coedge $-1 $301 $302 $124 $206 forward $303 $-1 #
edge $-1 $304 -11.494989284622037 $305 11.494989284622037 $205 $306 forward 7 unknown #
coedge $-1 $126 $125 $296 $307 reversed $49 $-1 #
coedge $-1 $299 $308 $125 $209 forward $294 $-1 #
edge $-1 $309 -33.311086046397207 $213 -29.609269403763193 $208 $310 forward 7 unknown #
coedge $-1 $311 $202 $126 $211 forward $122 $-1 #
edge $-1 $212 29.609269403763193 $312 33.311086046397207 $210 $313 forward 7 unknown #
vertex $-1 $211 $314 #
vertex $-1 $209 $315 #
straight-curve $-1 -61.069447128843393 -17.384539752534462 0 0 0 -1 I I #
face $-1 $-1 $227 $29 $-1 $316 forward single #
loop $-1 $-1 $317 $129 #
plane-surface $-1 64.771263771477408 0 0 -1 0 0 0 0 1 forward_v I I I I #
coedge $-1 $318 $319 $320 $321 reversed $130 $-1 #
coedge $-1 $322 $132 $134 $225 forward $81 $-1 #
coedge $-1 $132 $322 $318 $323 forward $81 $-1 #
coedge $-1 $320 $135 $132 $222 forward $227 $-1 #
edge $-1 $229 -5.9910705611889306 $324 5.5865430087523968 $221 $325 forward 7 unknown #
coedge $-1 $326 $327 $133 $224 forward $216 $-1 #
edge $-1 $328 -87.822412394512995 $228 -82.100500333621014 $223 $329 forward 7 unknown #
edge $-1 $229 120.03476889897058 $328 129.54252754295487 $134 $330 forward 7 unknown #
coedge $-1 $135 $320 $326 $331 forward $227 $-1 #
loop $-1 $-1 $320 $215 #
vertex $-1 $224 $332 #
vertex $-1 $136 $333 #
straight-curve $-1 19.637321078768331 6.1933343374071974 11.494989284622037 -1 0 0 I I #
coedge $-1 $231 $231 $-1 $334 reversed $139 $-1 #
edge $-1 $335 0 $335 6.2831853071796004 $140 $336 forward 7 unknown #
vertex $-1 $143 $337 #
ellipse-curve $-1 60.9746469617481 -3.0687565185458645 8.6340332541760514 0.6018150307709319 0 0.79863550430605224 0.79863550430605224 0 -0.6018150307709319 1 I I #
coedge $-1 $235 $235 $-1 $338 reversed $146 $-1 #
edge $-1 $339 0 $339 6.2831853071796004 $147 $340 forward 7 unknown #
vertex $-1 $150 $341 #
ellipse-curve $-1 60.9746469617481 0.40452755243653371 8.6340332541760514 0.6018150307709319 0 0.79863550430605224 0.79863550430605224 0 -0.6018150307709319 1 I I #
coedge $-1 $239 $239 $-1 $342 reversed $153 $-1 #
edge $-1 $343 0 $343 6.2831853071796004 $154 $344 forward 7 unknown #
vertex $-1 $157 $345 #
ellipse-curve $-1 60.9746469617481 3.8778116234189319 8.6340332541760514 0.6018150307709319 0 0.79863550430605224 0.79863550430605224 0 -0.6018150307709319 1 I I #
face $-1 $-1 $346 $33 $-1 $347 reversed single #
loop $-1 $-1 $252 $158 #
plane-surface $-1 -62.9203554501604 -17.384539752534462 0 0 -1 0 0 0 -1 forward_v I I I I #
coedge $-1 $164 $348 $349 $350 forward $159 $-1 #
coedge $-1 $248 $161 $163 $254 reversed $100 $-1 #
coedge $-1 $161 $247 $351 $352 reversed $100 $-1 #
coedge $-1 $348 $164 $161 $250 forward $159 $-1 #
edge $-1 $256 -19.915170352274359 $353 -14.985072167391976 $249 $354 forward 7 unknown #
coedge $-1 $163 $162 $355 $356 reversed $64 $-1 #
coedge $-1 $349 $357 $162 $253 forward $244 $-1 #
edge $-1 $358 1.6390025113857676 $255 8.8679029569795098 $252 $359 forward 7 unknown #
edge $-1 $360 -2.0734513383776317e-014 $256 7.2289004455937231 $247 $361 forward 7 unknown #
vertex $-1 $165 $362 #
vertex $-1 $165 $363 #
straight-curve $-1 -59.841165586595025 -6.8382535148830605 11.494989284622037 0 1 0 I I #
coedge $-1 $258 $258 $-1 $364 reversed $168 $-1 #
edge $-1 $365 0 $365 6.2831853071796004 $169 $366 forward 7 unknown #
vertex $-1 $172 $367 #
ellipse-curve $-1 -62.306214679036216 -15.265663910952554 8.8515477049893008 -0.73135370988377701 0 0.68199835119979291 0.34099917559989645 0 0.36567685494188851 1 I I #
coedge $-1 $262 $262 $-1 $368 reversed $175 $-1 #
edge $-1 $369 0 $369 6.2831853071796004 $176 $370 forward 7 unknown #
vertex $-1 $179 $371 #
ellipse-curve $-1 -62.306214679036216 -12.087350148579691 8.8515477049893008 -0.73135370988377701 0 0.68199835119979291 0.34099917559989645 0 0.36567685494188851 1 I I #
face $-1 $-1 $195 $27 $-1 $372 reversed single #
loop $-1 $-1 $282 $180 #
plane-surface $-1 0 29.199748349849241 0 0 -1 0 0 0 -1 forward_v I I I I #
coedge $-1 $373 $280 $283 $374 forward $181 $-1 #
coedge $-1 $286 $183 $184 $274 reversed $114 $-1 #
coedge $-1 $280 $373 $183 $272 reversed $181 $-1 #
edge $-1 $287 -11.494989284622037 $375 11.494989284622037 $271 $376 forward 7 unknown #
coedge $-1 $185 $184 $373 $377 forward $73 $-1 #
edge $-1 $278 -64.771263771477408 $375 64.771263771477408 $270 $378 forward 7 unknown #
coedge $-1 $283 $282 $185 $276 reversed $267 $-1 #
edge $-1 $379 -64.771263771477408 $277 64.771263771477408 $275 $380 forward 7 unknown #
vertex $-1 $187 $381 #
vertex $-1 $289 $382 #
straight-curve $-1 64.771263771477408 0 -11.494989284622037 0 -1 0 I I #
coedge $-1 $269 $271 $188 $281 reversed $181 $-1 #
edge $-1 $284 -29.199748349849241 $287 29.199748349849241 $280 $383 forward 7 unknown #
coedge $-1 $275 $189 $194 $290 forward $267 $-1 #
coedge $-1 $189 $275 $269 $374 reversed $267 $-1 #
vertex $-1 $190 $384 #
straight-curve $-1 0 29.199748349849241 11.494989284622037 -1 0 0 I I #
coedge $-1 $191 $270 $193 $289 reversed $114 $-1 #
vertex $-1 $281 $385 #
straight-curve $-1 0 -29.199748349849241 11.494989284622037 1 0 0 I I #
edge $-1 $196 -11.494989284622037 $278 11.494989284622037 $193 $386 forward 7 unknown #
edge $-1 $197 -11.494989284622037 $277 11.494989284622037 $194 $387 forward 7 unknown #
point $-1 64.771263771477408 -29.199748349849241 11.494989284622037 #
point $-1 64.771263771477408 29.199748349849241 11.494989284622037 #
face $-1 $-1 $303 $28 $-1 $388 reversed single #
loop $-1 $-1 $299 $199 #
plane-surface $-1 0 0 -11.494989284622037 0 0 1 1 0 0 forward_v I I I I #
coedge $-1 $389 $390 $207 $307 forward $200 $-1 #
coedge $-1 $202 $311 $301 $391 forward $122 $-1 #
edge $-1 $305 -17.553676324253317 $212 -5.738467726938536 $202 $392 forward 7 unknown #
coedge $-1 $393 $208 $203 $300 forward $294 $-1 #
edge $-1 $213 5.738467726938536 $304 17.553676324253317 $299 $394 forward 7 unknown #
coedge $-1 $395 $205 $297 $391 reversed $303 $-1 #
coedge $-1 $205 $395 $393 $396 reversed $303 $-1 #
loop $-1 $-1 $205 $293 #
vertex $-1 $396 $397 #
vertex $-1 $206 $398 #
straight-curve $-1 -61.069447128843393 -29.199748349849241 0 0 0 1 I I #
edge $-1 $312 -11.494989284622037 $309 11.494989284622037 $296 $399 forward 7 unknown #
coedge $-1 $208 $393 $389 $400 forward $294 $-1 #
vertex $-1 $209 $401 #
straight-curve $-1 -31.4601777250802 -17.384539752534462 -11.494989284622037 1 0 0 I I #
coedge $-1 $297 $210 $390 $402 forward $122 $-1 #
vertex $-1 $402 $403 #
straight-curve $-1 -31.4601777250802 -17.384539752534462 11.494989284622037 -1 0 0 I I #
point $-1 -61.069447128843393 -17.384539752534462 11.494989284622037 #
point $-1 -61.069447128843393 -17.384539752534462 -11.494989284622037 #
plane-surface $-1 0 0 11.494989284622037 0 0 1 1 0 0 forward_v I I I I #
coedge $-1 $327 $326 $319 $404 forward $216 $-1 #
coedge $-1 $319 $218 $220 $323 reversed $130 $-1 #
coedge $-1 $218 $318 $317 $404 reversed $130 $-1 #
coedge $-1 $226 $221 $218 $321 forward $227 $-1 #
edge $-1 $324 37.54070907325049 $405 45.133942692709077 $320 $406 forward 7 unknown #
coedge $-1 $220 $219 $327 $407 reversed $81 $-1 #
edge $-1 $408 -129.54252754295487 $324 -120.03476889897058 $318 $409 forward 7 unknown #
vertex $-1 $222 $410 #
straight-curve $-1 57.178030152018835 0.20226377621826686 11.494989284622029 0 -1 0 I I #
coedge $-1 $317 $223 $226 $331 reversed $216 $-1 #
coedge $-1 $223 $317 $322 $407 forward $216 $-1 #
vertex $-1 $224 $411 #
straight-curve $-1 64.771263771477408 6.1933343374071974 93.59548961824305 0 0 1 I I #
straight-curve $-1 -38.685998041870988 6.1933343374071974 83.733717423137719 0.79863550430605224 0 -0.6018150307709319 I I #
edge $-1 $405 -5.38427923253413 $228 6.1933343374071974 $326 $412 forward 7 unknown #
point $-1 64.771263771477408 6.1933343374071974 11.494989284622037 #
point $-1 57.17803015201882 6.1933343374071974 11.494989284622037 #
edge $-1 $413 1 $413 0 $231 $-1 forward 7 unknown #
vertex $-1 $232 $414 #
ellipse-curve $-1 58.995179303544198 -3.0687565185458645 6.0071910009307619 0.6018150307709319 0 0.79863550430605224 0.79863550430605224 0 -0.6018150307709319 1 I I #
point $-1 61.77328246605417 -3.0687565185458645 8.03221822340514 #
edge $-1 $415 1 $415 0 $235 $-1 forward 7 unknown #
vertex $-1 $236 $416 #
ellipse-curve $-1 58.995179303544198 0.40452755243653371 6.0071910009307619 0.6018150307709319 0 0.79863550430605224 0.79863550430605224 0 -0.6018150307709319 1 I I #
point $-1 61.77328246605417 0.40452755243653371 8.03221822340514 #
edge $-1 $417 1 $417 0 $239 $-1 forward 7 unknown #
vertex $-1 $240 $418 #
ellipse-curve $-1 58.995179303544198 3.8778116234189319 6.0071910009307619 0.6018150307709319 0 0.79863550430605224 0.79863550430605224 0 -0.6018150307709319 1 I I #
point $-1 61.77328246605417 3.8778116234189319 8.03221822340514 #
loop $-1 $-1 $355 $243 #
plane-surface $-1 -64.771263771477408 0 0 1 0 0 0 0 -1 forward_v I I I I #
coedge $-1 $246 $249 $419 $420 forward $159 $-1 #
coedge $-1 $357 $252 $246 $350 reversed $244 $-1 #
edge $-1 $421 -33.311086046397207 $255 -28.380987861514825 $246 $422 forward 7 unknown #
coedge $-1 $355 $419 $248 $352 forward $346 $-1 #
edge $-1 $353 35.782958875330728 $360 41.069842034596199 $351 $423 forward 7 unknown #
vertex $-1 $420 $424 #
straight-curve $-1 -79.756335938869384 -9.9684743069977806 11.494989284622037 -1 0 0 I I #
coedge $-1 $425 $351 $251 $356 forward $346 $-1 #
edge $-1 $360 3.13022079211472 $358 10.546286237651401 $355 $426 forward 7 unknown #
coedge $-1 $252 $349 $425 $427 reversed $244 $-1 #
vertex $-1 $427 $428 #
straight-curve $-1 -65.889060781854823 -17.384539752534462 5.0094155581457578 0.68199835119979291 0 0.73135370988377701 I I #
vertex $-1 $356 $429 #
straight-curve $-1 -64.771263771477393 -9.9684743069977806 6.2081061253565792 0.68199835119979291 0 0.73135370988377701 I I #
point $-1 -59.841165586595025 -17.384539752534462 11.494989284622037 #
point $-1 -59.841165586595025 -9.9684743069977806 11.494989284622037 #
edge $-1 $430 1 $430 0 $258 $-1 forward 7 unknown #
vertex $-1 $259 $431 #
ellipse-curve $-1 -60.84591780038221 -15.265663910952554 7.4897988684892454 -0.73135370988377701 0 0.68199835119979291 0.34099917559989645 0 0.36567685494188851 1 I I #
point $-1 -61.965215503436326 -15.265663910952554 9.2172245599311999 #
edge $-1 $432 1 $432 0 $262 $-1 forward 7 unknown #
vertex $-1 $263 $433 #
ellipse-curve $-1 -60.84591780038221 -12.087350148579691 7.4897988684892454 -0.73135370988377701 0 0.68199835119979291 0.34099917559989645 0 0.36567685494188851 1 I I #
point $-1 -61.965215503436326 -12.087350148579691 9.2172245599311999 #
plane-surface $-1 64.771263771477408 0 0 -1 0 0 0 0 1 forward_v I I I I #
coedge $-1 $271 $269 $273 $377 reversed $181 $-1 #
edge $-1 $284 -11.494989284622037 $379 11.494989284622037 $283 $434 forward 7 unknown #
vertex $-1 $377 $435 #
straight-curve $-1 -64.771263771477408 -29.199748349849241 0 0 0 -1 I I #
edge $-1 $375 -29.199748349849241 $379 29.199748349849241 $373 $436 forward 7 unknown #
straight-curve $-1 0 -29.199748349849241 -11.494989284622037 -1 0 0 I I #
vertex $-1 $276 $437 #
straight-curve $-1 0 29.199748349849241 -11.494989284622037 1 0 0 I I #
point $-1 64.771263771477408 29.199748349849241 -11.494989284622037 #
point $-1 64.771263771477408 -29.199748349849241 -11.494989284622037 #
straight-curve $-1 -64.771263771477408 0 11.494989284622037 0 -1 0 I I #
point $-1 -64.771263771477408 29.199748349849241 11.494989284622037 #
point $-1 -64.771263771477408 -29.199748349849241 11.494989284622037 #
straight-curve $-1 64.771263771477408 -29.199748349849241 0 0 0 -1 I I #
straight-curve $-1 64.771263771477408 29.199748349849241 0 0 0 -1 I I #
plane-surface $-1 0 -29.199748349849241 0 0 1 0 0 0 1 forward_v I I I I #
coedge $-1 $438 $296 $308 $400 reversed $200 $-1 #
coedge $-1 $296 $438 $311 $402 reversed $200 $-1 #
edge $-1 $439 -64.771263771477408 $305 -61.069447128843393 $301 $440 forward 7 unknown #
straight-curve $-1 -61.069447128843393 -11.646072025595926 11.494989284622037 0 1 0 I I #
coedge $-1 $308 $299 $302 $396 forward $294 $-1 #
straight-curve $-1 -61.069447128843393 -11.646072025595926 -11.494989284622037 0 -1 0 I I #
coedge $-1 $302 $301 $438 $441 forward $303 $-1 #
edge $-1 $304 61.069447128843393 $442 64.771263771477408 $302 $443 forward 7 unknown #
point $-1 -61.069447128843393 -29.199748349849241 -11.494989284622037 #
point $-1 -61.069447128843393 -29.199748349849241 11.494989284622037 #
straight-curve $-1 -64.771263771477408 -17.384539752534462 0 0 0 -1 I I #
edge $-1 $442 -29.199748349849241 $309 -17.384539752534462 $389 $444 forward 7 unknown #
point $-1 -64.771263771477408 -17.384539752534462 -11.494989284622037 #
edge $-1 $312 17.384539752534462 $439 29.199748349849241 $390 $445 forward 7 unknown #
point $-1 -64.771263771477408 -17.384539752534462 11.494989284622037 #
edge $-1 $405 82.100500333621014 $408 87.822412394512995 $317 $446 forward 7 unknown #
vertex $-1 $331 $447 #
straight-curve $-1 19.637321078768331 -5.38427923253413 11.494989284622037 1 0 0 I I #
edge $-1 $408 -5.5865430087523968 $328 5.9910705611889306 $327 $448 forward 7 unknown #
vertex $-1 $407 $449 #
straight-curve $-1 -38.685998041870988 -5.38427923253413 83.733717423137719 -0.79863550430605224 0 0.6018150307709319 I I #
point $-1 57.17803015201882 -5.38427923253413 11.494989284622037 #
point $-1 64.771263771477422 6.1933343374071974 5.7730772237300556 #
straight-curve $-1 64.771263771477408 0 11.494989284622037 0 1 0 I I #
vertex $-1 $334 $450 #
point $-1 59.793814807850246 -3.0687565185458645 5.4053759701598301 #
vertex $-1 $338 $451 #
point $-1 59.793814807850246 0.40452755243653371 5.4053759701598301 #
vertex $-1 $342 $452 #
point $-1 59.793814807850246 3.8778116234189319 5.4053759701598301 #
coedge $-1 $351 $425 $348 $420 reversed $346 $-1 #
edge $-1 $353 9.9684743069977806 $421 17.384539752534462 $419 $453 forward 7 unknown #
vertex $-1 $427 $454 #
straight-curve $-1 -31.4601777250802 -17.384539752534462 11.494989284622037 1 0 0 I I #
straight-curve $-1 -64.771263771477408 -9.9684743069977806 47.277948159952764 0 0 -1 I I #
point $-1 -64.771263771477408 -9.9684743069977806 11.494989284622037 #
coedge $-1 $419 $355 $357 $427 forward $346 $-1 #
straight-curve $-1 -64.771263771477408 -6.8382535148830605 6.2081061253565695 0 -1 0 I I #
edge $-1 $358 6.2081061253565641 $421 11.494989284622037 $425 $455 forward 7 unknown #
point $-1 -64.771263771477408 -17.384539752534462 6.2081061253565641 #
point $-1 -64.771263771477408 -9.9684743069977806 6.2081061253565641 #
vertex $-1 $364 $456 #
point $-1 -60.50491862478232 -15.265663910952554 7.8554757234311339 #
vertex $-1 $368 $457 #
point $-1 -60.50491862478232 -12.087350148579691 7.8554757234311339 #
straight-curve $-1 -64.771263771477408 29.199748349849241 0 0 0 -1 I I #
point $-1 -64.771263771477408 -29.199748349849241 -11.494989284622037 #
straight-curve $-1 -64.771263771477408 0 -11.494989284622037 0 1 0 I I #
point $-1 -64.771263771477408 29.199748349849241 -11.494989284622037 #
coedge $-1 $390 $389 $395 $441 reversed $200 $-1 #
vertex $-1 $402 $458 #
straight-curve $-1 0 -29.199748349849241 11.494989284622037 1 0 0 I I #
edge $-1 $439 -11.494989284622037 $442 11.494989284622037 $438 $459 forward 7 unknown #
vertex $-1 $400 $460 #
straight-curve $-1 0 -29.199748349849241 -11.494989284622037 -1 0 0 I I #
straight-curve $-1 -64.771263771477408 0 -11.494989284622037 0 1 0 I I #
straight-curve $-1 -64.771263771477408 0 11.494989284622037 0 -1 0 I I #
straight-curve $-1 64.771263771477408 -5.38427923253413 93.59548961824305 0 0 -1 I I #
point $-1 64.771263771477408 -5.38427923253413 11.494989284622037 #
straight-curve $-1 64.771263771477408 0.20226377621826686 5.7730772237300556 0 1 0 I I #
point $-1 64.771263771477422 -5.38427923253413 5.7730772237300556 #
point $-1 58.393364272773262 -3.0687565185458645 5.2085554966247098 #
point $-1 58.393364272773262 0.40452755243653371 5.2085554966247098 #
point $-1 58.393364272773262 3.8778116234189319 5.2085554966247098 #
straight-curve $-1 -64.771263771477408 0 11.494989284622037 0 -1 0 I I #
point $-1 -64.771263771477408 -17.384539752534462 11.494989284622037 #
straight-curve $-1 -64.771263771477408 -17.384539752534462 0 0 0 1 I I #
point $-1 -60.480240945440329 -15.265663910952554 7.148799692889348 #
point $-1 -60.480240945440329 -12.087350148579691 7.148799692889348 #
point $-1 -64.771263771477408 -29.199748349849241 11.494989284622037 #
straight-curve $-1 -64.771263771477408 -29.199748349849241 0 0 0 -1 I I #
point $-1 -64.771263771477408 -29.199748349849241 -11.494989284622037 #
End-of-ACIS-data 