500 0 19 0           
7 Unknown 11 ACIS 5.0 NT 24 Thu Mar 25 21:48:53 1999 
-1 9.9999999999999995e-007 1e-010 
body $-1 $19 $-1 $20 #
body $-1 $21 $-1 $22 #
body $-1 $23 $-1 $24 #
body $-1 $25 $-1 $26 #
body $-1 $27 $-1 $28 #
body $-1 $29 $-1 $30 #
body $-1 $31 $-1 $32 #
body $-1 $33 $-1 $34 #
body $-1 $35 $-1 $36 #
body $-1 $37 $-1 $38 #
body $-1 $39 $-1 $40 #
body $-1 $41 $-1 $42 #
body $-1 $43 $-1 $44 #
body $-1 $45 $-1 $46 #
body $-1 $47 $-1 $48 #
body $-1 $49 $-1 $50 #
body $-1 $51 $-1 $52 #
body $-1 $53 $-1 $54 #
body $-1 $55 $-1 $56 #
lump $-1 $-1 $57 $0 #
transform $-1 1 0 0 0 1 0 0 0 1 66.667073580126356 28.414940324718305 11.163402502156551 1 rotate no_reflect no_shear #
lump $-1 $-1 $58 $1 #
transform $-1 1 0 0 0 1 0 0 0 1 66.667073580126356 28.414940324718305 11.163402502156551 1 rotate no_reflect no_shear #
lump $-1 $-1 $59 $2 #
transform $-1 1 0 0 0 1 0 0 0 1 66.667073580126356 28.414940324718305 11.163402502156551 1 rotate no_reflect no_shear #
lump $-1 $-1 $60 $3 #
transform $-1 1 0 0 0 1 0 0 0 1 66.667073580126356 28.414940324718305 11.163402502156551 1 rotate no_reflect no_shear #
lump $-1 $-1 $61 $4 #
transform $-1 1 0 0 0 1 0 0 0 1 66.667073580126356 28.414940324718305 11.163402502156551 1 rotate no_reflect no_shear #
lump $-1 $-1 $62 $5 #
transform $-1 1 0 0 0 1 0 0 0 1 66.667073580126356 28.414940324718305 11.163402502156551 1 rotate no_reflect no_shear #
lump $-1 $-1 $63 $6 #
transform $-1 1 0 0 0 1 0 0 0 1 66.667073580126356 28.414940324718305 11.163402502156551 1 rotate no_reflect no_shear #
lump $-1 $-1 $64 $7 #
transform $-1 1 0 0 0 1 0 0 0 1 66.667073580126356 28.414940324718305 11.163402502156551 1 rotate no_reflect no_shear #
lump $-1 $-1 $65 $8 #
transform $-1 1 0 0 0 1 0 0 0 1 66.667073580126356 28.414940324718305 11.163402502156551 1 rotate no_reflect no_shear #
lump $-1 $-1 $66 $9 #
transform $-1 1 0 0 0 1 0 0 0 1 66.667073580126356 28.414940324718305 11.163402502156551 1 rotate no_reflect no_shear #
lump $-1 $-1 $67 $10 #
transform $-1 1 0 0 0 1 0 0 0 1 66.667073580126356 28.414940324718305 11.163402502156551 1 rotate no_reflect no_shear #
lump $-1 $-1 $68 $11 #
transform $-1 1 0 0 0 1 0 0 0 1 66.667073580126356 28.414940324718305 11.163402502156551 1 rotate no_reflect no_shear #
lump $-1 $-1 $69 $12 #
transform $-1 1 0 0 0 1 0 0 0 1 66.667073580126356 28.414940324718305 11.163402502156551 1 rotate no_reflect no_shear #
lump $-1 $-1 $70 $13 #
transform $-1 1 0 0 0 1 0 0 0 1 66.667073580126356 28.414940324718305 11.163402502156551 1 rotate no_reflect no_shear #
lump $-1 $-1 $71 $14 #
transform $-1 1 0 0 0 1 0 0 0 1 66.667073580126356 28.414940324718305 11.163402502156551 1 rotate no_reflect no_shear #
lump $-1 $-1 $72 $15 #
transform $-1 1 0 0 0 1 0 0 0 1 66.667073580126356 28.414940324718305 11.163402502156551 1 rotate no_reflect no_shear #
lump $-1 $-1 $73 $16 #
transform $-1 1 0 0 0 1 0 0 0 1 66.667073580126356 28.414940324718305 11.163402502156551 1 rotate no_reflect no_shear #
lump $-1 $-1 $74 $17 #
transform $-1 1 0 0 0 1 0 0 0 1 66.667073580126356 28.414940324718305 11.163402502156551 1 rotate no_reflect no_shear #
lump $-1 $-1 $75 $18 #
transform $-1 1 0 0 0 1 0 0 0 1 66.667073580126356 28.414940324718305 11.163402502156551 1 rotate no_reflect no_shear #
shell $-1 $-1 $-1 $76 $-1 $19 #
shell $-1 $-1 $-1 $77 $-1 $21 #
shell $-1 $-1 $-1 $78 $-1 $23 #
shell $-1 $-1 $-1 $79 $-1 $25 #
shell $-1 $-1 $-1 $80 $-1 $27 #
shell $-1 $-1 $-1 $81 $-1 $29 #
shell $-1 $-1 $-1 $82 $-1 $31 #
shell $-1 $-1 $-1 $83 $-1 $33 #
shell $-1 $-1 $-1 $84 $-1 $35 #
shell $-1 $-1 $-1 $85 $-1 $37 #
shell $-1 $-1 $-1 $86 $-1 $39 #
shell $-1 $-1 $-1 $87 $-1 $41 #
shell $-1 $-1 $-1 $88 $-1 $43 #
shell $-1 $-1 $-1 $89 $-1 $45 #
shell $-1 $-1 $-1 $90 $-1 $47 #
shell $-1 $-1 $-1 $91 $-1 $49 #
shell $-1 $-1 $-1 $92 $-1 $51 #
shell $-1 $-1 $-1 $93 $-1 $53 #
shell $-1 $-1 $-1 $94 $-1 $55 #
face $-1 $95 $96 $57 $-1 $97 forward single #
face $-1 $98 $99 $58 $-1 $100 reversed single #
face $-1 $101 $102 $59 $-1 $103 reversed single #
face $-1 $104 $105 $60 $-1 $106 reversed single #
face $-1 $107 $108 $61 $-1 $109 forward single #
face $-1 $110 $111 $62 $-1 $112 forward single #
face $-1 $113 $114 $63 $-1 $115 forward single #
face $-1 $116 $117 $64 $-1 $118 reversed single #
face $-1 $119 $120 $65 $-1 $121 forward single #
face $-1 $122 $123 $66 $-1 $124 forward single #
face $-1 $125 $126 $67 $-1 $127 forward single #
face $-1 $128 $129 $68 $-1 $130 reversed single #
face $-1 $131 $132 $69 $-1 $133 forward single #
face $-1 $134 $135 $70 $-1 $136 forward single #
face $-1 $137 $138 $71 $-1 $139 forward single #
face $-1 $140 $141 $72 $-1 $142 reversed single #
face $-1 $143 $144 $73 $-1 $145 forward single #
face $-1 $146 $147 $74 $-1 $148 forward single #
face $-1 $149 $150 $75 $-1 $151 forward single #
face $-1 $152 $153 $57 $-1 $154 reversed single #
loop $-1 $-1 $155 $76 #
plane-surface $-1 0 0 11.163402502156551 0 0 1 1 0 0 forward_v I I I I #
face $-1 $156 $157 $58 $-1 $158 reversed single #
loop $-1 $-1 $159 $77 #
plane-surface $-1 -62.649914655430678 0 8.1634025021565506 0 0 1 1 0 0 forward_v I I I I #
face $-1 $160 $161 $59 $-1 $162 reversed single #
loop $-1 $-1 $163 $78 #
plane-surface $-1 62.649914655430678 0 8.1634025021565506 0 0 1 1 0 0 forward_v I I I I #
face $-1 $164 $165 $60 $-1 $166 reversed single #
loop $-1 $-1 $167 $79 #
plane-surface $-1 -47.110283865300005 107.17509381770903 121.97606378755734 1 0 0 0 -0.82903758062907751 -0.55919289150049634 forward_v I I I I #
face $-1 $168 $169 $61 $-1 $170 forward single #
loop $-1 $171 $172 $80 #
cone-surface $-1 -43.551502665313507 23.962140922174914 5.2001339194996561 0 -0.82903758062907751 -0.55919289150049634 1 0 0 1 I I 0 1 1 forward I I I I #
face $-1 $173 $174 $62 $-1 $175 forward single #
loop $-1 $176 $177 $81 #
cone-surface $-1 -38.213330865333752 23.962140922174914 5.2001339194996561 0 -0.82903758062907751 -0.55919289150049634 1 0 0 1 I I 0 1 1 forward I I I I #
face $-1 $178 $179 $63 $-1 $180 forward single #
loop $-1 $181 $182 $82 #
cone-surface $-1 -32.875159065353998 23.962140922174914 5.2001339194996561 0 -0.82903758062907751 -0.55919289150049634 1 0 0 1 I I 0 1 1 forward I I I I #
face $-1 $183 $184 $64 $-1 $185 reversed single #
loop $-1 $-1 $186 $83 #
plane-surface $-1 -17.793905999932505 107.17509381770903 121.97606378755734 1 0 0 0 -0.82903758062907751 -0.55919289150049634 forward_v I I I I #
face $-1 $187 $188 $65 $-1 $189 forward single #
loop $-1 $190 $191 $84 #
cone-surface $-1 -14.235124799946007 23.962140922174914 5.2001339194996561 0 -0.82903758062907751 -0.55919289150049634 1 0 0 1 I I 0 1 1 forward I I I I #
face $-1 $192 $193 $66 $-1 $194 forward single #
loop $-1 $195 $196 $85 #
cone-surface $-1 -8.8969529999662527 23.962140922174914 5.2001339194996561 0 -0.82903758062907751 -0.55919289150049634 1 0 0 1 I I 0 1 1 forward I I I I #
face $-1 $197 $198 $67 $-1 $199 forward single #
loop $-1 $200 $201 $86 #
cone-surface $-1 -3.5587811999864982 23.962140922174914 5.2001339194996561 0 -0.82903758062907751 -0.55919289150049634 1 0 0 1 I I 0 1 1 forward I I I I #
face $-1 $202 $203 $68 $-1 $204 reversed single #
loop $-1 $-1 $205 $87 #
plane-surface $-1 11.522471865435001 107.17509381770903 121.97606378755734 1 0 0 0 -0.82903758062907751 -0.55919289150049634 forward_v I I I I #
face $-1 $206 $207 $69 $-1 $208 forward single #
loop $-1 $209 $210 $88 #
cone-surface $-1 15.081253065421492 23.962140922174914 5.2001339194996561 0 -0.82903758062907751 -0.55919289150049634 1 0 0 1 I I 0 1 1 forward I I I I #
face $-1 $211 $212 $70 $-1 $213 forward single #
loop $-1 $214 $215 $89 #
cone-surface $-1 20.419424865401254 23.962140922174914 5.2001339194996561 0 -0.82903758062907751 -0.55919289150049634 1 0 0 1 I I 0 1 1 forward I I I I #
face $-1 $216 $217 $71 $-1 $218 forward single #
loop $-1 $219 $220 $90 #
cone-surface $-1 25.757596665381001 23.962140922174914 5.2001339194996561 0 -0.82903758062907751 -0.55919289150049634 1 0 0 1 I I 0 1 1 forward I I I I #
face $-1 $221 $222 $72 $-1 $223 reversed single #
loop $-1 $-1 $224 $91 #
plane-surface $-1 40.838849730802501 107.17509381770903 121.97606378755734 1 0 0 0 -0.82903758062907751 -0.55919289150049634 forward_v I I I I #
face $-1 $225 $226 $73 $-1 $227 forward single #
loop $-1 $228 $229 $92 #
cone-surface $-1 44.397630930788992 23.962140922174914 5.2001339194996561 0 -0.82903758062907751 -0.55919289150049634 1 0 0 1 I I 0 1 1 forward I I I I #
face $-1 $230 $231 $74 $-1 $232 forward single #
loop $-1 $233 $234 $93 #
cone-surface $-1 49.735802730768754 23.962140922174914 5.2001339194996561 0 -0.82903758062907751 -0.55919289150049634 1 0 0 1 I I 0 1 1 forward I I I I #
face $-1 $235 $236 $75 $-1 $237 forward single #
loop $-1 $238 $239 $94 #
cone-surface $-1 55.073974530748501 23.962140922174914 5.2001339194996561 0 -0.82903758062907751 -0.55919289150049634 1 0 0 1 I I 0 1 1 forward I I I I #
face $-1 $240 $241 $57 $-1 $242 reversed single #
loop $-1 $-1 $243 $95 #
plane-surface $-1 0 0 -11.163402502156551 0 0 1 1 0 0 forward_v I I I I #
coedge $-1 $244 $245 $246 $247 forward $96 $-1 #
face $-1 $248 $249 $58 $-1 $250 reversed single #
loop $-1 $-1 $251 $98 #
plane-surface $-1 -58.632755730734999 0 9.6634025021565506 -1 0 0 0 0 1 forward_v I I I I #
coedge $-1 $252 $253 $254 $255 forward $99 $-1 #
face $-1 $256 $257 $59 $-1 $258 forward single #
loop $-1 $-1 $259 $101 #
plane-surface $-1 58.632755730734999 0 9.6634025021565506 1 0 0 0 0 -1 forward_v I I I I #
coedge $-1 $260 $261 $262 $263 reversed $102 $-1 #
face $-1 $264 $265 $60 $-1 $266 reversed single #
loop $-1 $-1 $267 $104 #
plane-surface $-1 -38.213330865333752 -3.3639249592682745 47.416556501262932 0 0.82903758062907751 0.55919289150049634 1 0 0 forward_v I I I I #
coedge $-1 $268 $269 $270 $271 reversed $105 $-1 #
face $-1 $-1 $272 $61 $-1 $273 forward single #
loop $-1 $274 $275 $107 #
cone-surface $-1 -43.551502665313507 22.757725184711116 4.3877452720633983 0 -0.82903758062907751 -0.55919289150049634 0.5 0 0 1 I I -0.70710678118654746 0.70710678118654746 0.5 forward I I I I #
loop $-1 $-1 $276 $80 #
coedge $-1 $172 $172 $277 $278 reversed $108 $-1 #
face $-1 $-1 $279 $62 $-1 $280 forward single #
loop $-1 $281 $282 $110 #
cone-surface $-1 -38.213330865333752 22.757725184711116 4.3877452720633983 0 -0.82903758062907751 -0.55919289150049634 0.5 0 0 1 I I -0.70710678118654746 0.70710678118654746 0.5 forward I I I I #
loop $-1 $-1 $283 $81 #
coedge $-1 $177 $177 $284 $285 reversed $111 $-1 #
face $-1 $-1 $286 $63 $-1 $287 forward single #
loop $-1 $288 $289 $113 #
cone-surface $-1 -32.875159065353998 22.757725184711116 4.3877452720633983 0 -0.82903758062907751 -0.55919289150049634 0.5 0 0 1 I I -0.70710678118654746 0.70710678118654746 0.5 forward I I I I #
loop $-1 $-1 $290 $82 #
coedge $-1 $182 $182 $291 $292 reversed $114 $-1 #
face $-1 $293 $294 $64 $-1 $295 reversed single #
loop $-1 $-1 $296 $116 #
plane-surface $-1 -8.8969529999662527 -3.3639249592682745 47.416556501262932 0 0.82903758062907751 0.55919289150049634 1 0 0 forward_v I I I I #
coedge $-1 $297 $298 $299 $300 reversed $117 $-1 #
face $-1 $-1 $301 $65 $-1 $302 forward single #
loop $-1 $303 $304 $119 #
cone-surface $-1 -14.235124799946007 22.757725184711116 4.3877452720633983 0 -0.82903758062907751 -0.55919289150049634 0.5 0 0 1 I I -0.70710678118654746 0.70710678118654746 0.5 forward I I I I #
loop $-1 $-1 $305 $84 #
coedge $-1 $191 $191 $306 $307 reversed $120 $-1 #
face $-1 $-1 $308 $66 $-1 $309 forward single #
loop $-1 $310 $311 $122 #
cone-surface $-1 -8.8969529999662527 22.757725184711116 4.3877452720633983 0 -0.82903758062907751 -0.55919289150049634 0.5 0 0 1 I I -0.70710678118654746 0.70710678118654746 0.5 forward I I I I #
loop $-1 $-1 $312 $85 #
coedge $-1 $196 $196 $313 $314 reversed $123 $-1 #
face $-1 $-1 $315 $67 $-1 $316 forward single #
loop $-1 $317 $318 $125 #
cone-surface $-1 -3.5587811999864982 22.757725184711116 4.3877452720633983 0 -0.82903758062907751 -0.55919289150049634 0.5 0 0 1 I I -0.70710678118654746 0.70710678118654746 0.5 forward I I I I #
loop $-1 $-1 $319 $86 #
coedge $-1 $201 $201 $320 $321 reversed $126 $-1 #
face $-1 $322 $323 $68 $-1 $324 reversed single #
loop $-1 $-1 $325 $128 #
plane-surface $-1 20.419424865401254 -3.3639249592682745 47.416556501262932 0 0.82903758062907751 0.55919289150049634 1 0 0 forward_v I I I I #
coedge $-1 $326 $327 $328 $329 reversed $129 $-1 #
face $-1 $-1 $330 $69 $-1 $331 forward single #
loop $-1 $332 $333 $131 #
cone-surface $-1 15.081253065421492 22.757725184711116 4.3877452720633983 0 -0.82903758062907751 -0.55919289150049634 0.5 0 0 1 I I -0.70710678118654746 0.70710678118654746 0.5 forward I I I I #
loop $-1 $-1 $334 $88 #
coedge $-1 $210 $210 $335 $336 reversed $132 $-1 #
face $-1 $-1 $337 $70 $-1 $338 forward single #
loop $-1 $339 $340 $134 #
cone-surface $-1 20.419424865401254 22.757725184711116 4.3877452720633983 0 -0.82903758062907751 -0.55919289150049634 0.5 0 0 1 I I -0.70710678118654746 0.70710678118654746 0.5 forward I I I I #
loop $-1 $-1 $341 $89 #
coedge $-1 $215 $215 $342 $343 reversed $135 $-1 #
face $-1 $-1 $344 $71 $-1 $345 forward single #
loop $-1 $346 $347 $137 #
cone-surface $-1 25.757596665381001 22.757725184711116 4.3877452720633983 0 -0.82903758062907751 -0.55919289150049634 0.5 0 0 1 I I -0.70710678118654746 0.70710678118654746 0.5 forward I I I I #
loop $-1 $-1 $348 $90 #
coedge $-1 $220 $220 $349 $350 reversed $138 $-1 #
face $-1 $351 $352 $72 $-1 $353 forward single #
loop $-1 $-1 $354 $140 #
plane-surface $-1 49.735802730768754 -3.3639249592682745 47.416556501262932 0 0.82903758062907751 0.55919289150049634 1 0 0 forward_v I I I I #
coedge $-1 $355 $356 $357 $358 reversed $141 $-1 #
face $-1 $-1 $359 $73 $-1 $360 forward single #
loop $-1 $361 $362 $143 #
cone-surface $-1 44.397630930788992 22.757725184711116 4.3877452720633983 0 -0.82903758062907751 -0.55919289150049634 0.5 0 0 1 I I -0.70710678118654746 0.70710678118654746 0.5 forward I I I I #
loop $-1 $-1 $363 $92 #
coedge $-1 $229 $229 $364 $365 reversed $144 $-1 #
face $-1 $-1 $366 $74 $-1 $367 forward single #
loop $-1 $368 $369 $146 #
cone-surface $-1 49.735802730768754 22.757725184711116 4.3877452720633983 0 -0.82903758062907751 -0.55919289150049634 0.5 0 0 1 I I -0.70710678118654746 0.70710678118654746 0.5 forward I I I I #
loop $-1 $-1 $370 $93 #
coedge $-1 $234 $234 $371 $372 reversed $147 $-1 #
face $-1 $-1 $373 $75 $-1 $374 forward single #
loop $-1 $375 $376 $149 #
cone-surface $-1 55.073974530748501 22.757725184711116 4.3877452720633983 0 -0.82903758062907751 -0.55919289150049634 0.5 0 0 1 I I -0.70710678118654746 0.70710678118654746 0.5 forward I I I I #
loop $-1 $-1 $377 $94 #
coedge $-1 $239 $239 $378 $379 reversed $150 $-1 #
face $-1 $380 $381 $57 $-1 $382 reversed single #
loop $-1 $-1 $383 $152 #
plane-surface $-1 0 -28.414940324718305 0 0 1 0 0 0 1 forward_v I I I I #
coedge $-1 $384 $385 $386 $387 forward $153 $-1 #
coedge $-1 $388 $155 $389 $390 forward $96 $-1 #
coedge $-1 $155 $388 $391 $392 forward $96 $-1 #
coedge $-1 $393 $394 $155 $247 reversed $395 $-1 #
edge $-1 $396 -28.414940324718305 $397 28.414940324718305 $246 $398 forward 7 unknown #
face $-1 $399 $400 $58 $-1 $401 reversed single #
loop $-1 $-1 $402 $156 #
plane-surface $-1 0 28.414940324718305 0 0 -1 0 0 0 -1 forward_v I I I I #
coedge $-1 $254 $403 $404 $405 reversed $157 $-1 #
coedge $-1 $406 $159 $407 $408 reversed $99 $-1 #
coedge $-1 $159 $406 $409 $410 reversed $99 $-1 #
coedge $-1 $411 $251 $159 $255 reversed $157 $-1 #
edge $-1 $412 -28.414940324718305 $413 28.414940324718305 $254 $414 forward 7 unknown #
face $-1 $415 $416 $59 $-1 $417 reversed single #
loop $-1 $-1 $418 $160 #
plane-surface $-1 0 0 11.163402502156551 0 0 1 1 0 0 forward_v I I I I #
coedge $-1 $419 $420 $421 $422 reversed $161 $-1 #
coedge $-1 $423 $163 $424 $425 reversed $102 $-1 #
coedge $-1 $163 $423 $426 $427 reversed $102 $-1 #
coedge $-1 $428 $429 $163 $263 forward $430 $-1 #
edge $-1 $431 -28.414940324718305 $432 28.414940324718305 $262 $433 forward 7 unknown #
face $-1 $434 $435 $60 $-1 $436 reversed single #
loop $-1 $-1 $437 $164 #
plane-surface $-1 -29.3163778653675 107.17509381770903 121.97606378755734 -1 0 0 0 0.82903758062907751 0.55919289150049634 forward_v I I I I #
coedge $-1 $438 $439 $440 $441 reversed $165 $-1 #
coedge $-1 $269 $167 $442 $443 reversed $105 $-1 #
coedge $-1 $167 $268 $438 $444 reversed $105 $-1 #
coedge $-1 $440 $445 $167 $271 forward $446 $-1 #
edge $-1 $447 25.172606584136208 $448 32.498411494924497 $270 $449 forward 7 unknown #
loop $-1 $-1 $277 $168 #
plane-surface $-1 -38.213330865333752 -3.3639249592682745 47.416556501262932 0 0.82903758062907751 0.55919289150049634 1 0 0 forward_v I I I I #
loop $-1 $-1 $450 $107 #
coedge $-1 $275 $275 $276 $451 reversed $169 $-1 #
coedge $-1 $276 $276 $275 $451 forward $171 $-1 #
coedge $-1 $277 $277 $172 $278 forward $272 $-1 #
edge $-1 $452 -1.6257238081696686e-015 $452 6.2831853071795987 $277 $453 forward 7 unknown #
loop $-1 $-1 $284 $173 #
plane-surface $-1 -38.213330865333752 -3.3639249592682745 47.416556501262932 0 0.82903758062907751 0.55919289150049634 1 0 0 forward_v I I I I #
loop $-1 $-1 $454 $110 #
coedge $-1 $282 $282 $283 $455 reversed $174 $-1 #
coedge $-1 $283 $283 $282 $455 forward $176 $-1 #
coedge $-1 $284 $284 $177 $285 forward $279 $-1 #
edge $-1 $456 -1.6257238081696686e-015 $456 6.2831853071795987 $284 $457 forward 7 unknown #
loop $-1 $-1 $291 $178 #
plane-surface $-1 -38.213330865333752 -3.3639249592682745 47.416556501262932 0 0.82903758062907751 0.55919289150049634 1 0 0 forward_v I I I I #
loop $-1 $-1 $458 $113 #
coedge $-1 $289 $289 $290 $459 reversed $179 $-1 #
coedge $-1 $290 $290 $289 $459 forward $181 $-1 #
coedge $-1 $291 $291 $182 $292 forward $286 $-1 #
edge $-1 $460 -1.6257238081696686e-015 $460 6.2831853071795987 $291 $461 forward 7 unknown #
face $-1 $462 $463 $64 $-1 $464 forward single #
loop $-1 $-1 $465 $183 #
plane-surface $-1 0 107.17509381770903 121.97606378755734 -1 0 0 0 0.82903758062907751 0.55919289150049634 forward_v I I I I #
coedge $-1 $466 $467 $468 $469 reversed $184 $-1 #
coedge $-1 $298 $186 $470 $471 reversed $117 $-1 #
coedge $-1 $186 $297 $466 $472 reversed $117 $-1 #
coedge $-1 $468 $473 $186 $300 forward $463 $-1 #
edge $-1 $474 25.172606584136208 $475 32.498411494924497 $299 $476 forward 7 unknown #
loop $-1 $-1 $306 $187 #
plane-surface $-1 -8.8969529999662527 -3.3639249592682745 47.416556501262932 0 0.82903758062907751 0.55919289150049634 1 0 0 forward_v I I I I #
loop $-1 $-1 $477 $119 #
coedge $-1 $304 $304 $305 $478 reversed $188 $-1 #
coedge $-1 $305 $305 $304 $478 forward $190 $-1 #
coedge $-1 $306 $306 $191 $307 forward $301 $-1 #
edge $-1 $479 -1.6257238081696686e-015 $479 6.2831853071795987 $306 $480 forward 7 unknown #
loop $-1 $-1 $313 $192 #
plane-surface $-1 -8.8969529999662527 -3.3639249592682745 47.416556501262932 0 0.82903758062907751 0.55919289150049634 1 0 0 forward_v I I I I #
loop $-1 $-1 $481 $122 #
coedge $-1 $311 $311 $312 $482 reversed $193 $-1 #
coedge $-1 $312 $312 $311 $482 forward $195 $-1 #
coedge $-1 $313 $313 $196 $314 forward $308 $-1 #
edge $-1 $483 -1.6257238081696686e-015 $483 6.2831853071795987 $313 $484 forward 7 unknown #
loop $-1 $-1 $320 $197 #
plane-surface $-1 -8.8969529999662527 -3.3639249592682745 47.416556501262932 0 0.82903758062907751 0.55919289150049634 1 0 0 forward_v I I I I #
loop $-1 $-1 $485 $125 #
coedge $-1 $318 $318 $319 $486 reversed $198 $-1 #
coedge $-1 $319 $319 $318 $486 forward $200 $-1 #
coedge $-1 $320 $320 $201 $321 forward $315 $-1 #
edge $-1 $487 -1.6257238081696686e-015 $487 6.2831853071795987 $320 $488 forward 7 unknown #
face $-1 $489 $490 $68 $-1 $491 forward single #
loop $-1 $-1 $492 $202 #
plane-surface $-1 29.316377865367507 107.17509381770903 121.97606378755734 -1 0 0 0 0.82903758062907751 0.55919289150049634 forward_v I I I I #
coedge $-1 $493 $494 $495 $496 reversed $203 $-1 #
coedge $-1 $327 $205 $497 $498 reversed $129 $-1 #
coedge $-1 $205 $326 $493 $499 reversed $129 $-1 #
coedge $-1 $495 $500 $205 $329 forward $490 $-1 #
edge $-1 $501 25.172606584136208 $502 32.498411494924497 $328 $503 forward 7 unknown #
loop $-1 $-1 $335 $206 #
plane-surface $-1 20.419424865401254 -3.3639249592682745 47.416556501262932 0 0.82903758062907751 0.55919289150049634 1 0 0 forward_v I I I I #
loop $-1 $-1 $504 $131 #
coedge $-1 $333 $333 $334 $505 reversed $207 $-1 #
coedge $-1 $334 $334 $333 $505 forward $209 $-1 #
coedge $-1 $335 $335 $210 $336 forward $330 $-1 #
edge $-1 $506 -1.6257238081696686e-015 $506 6.2831853071795987 $335 $507 forward 7 unknown #
loop $-1 $-1 $342 $211 #
plane-surface $-1 20.419424865401254 -3.3639249592682745 47.416556501262932 0 0.82903758062907751 0.55919289150049634 1 0 0 forward_v I I I I #
loop $-1 $-1 $508 $134 #
coedge $-1 $340 $340 $341 $509 reversed $212 $-1 #
coedge $-1 $341 $341 $340 $509 forward $214 $-1 #
coedge $-1 $342 $342 $215 $343 forward $337 $-1 #
edge $-1 $510 -1.6257238081696686e-015 $510 6.2831853071795987 $342 $511 forward 7 unknown #
loop $-1 $-1 $349 $216 #
plane-surface $-1 20.419424865401254 -3.3639249592682745 47.416556501262932 0 0.82903758062907751 0.55919289150049634 1 0 0 forward_v I I I I #
loop $-1 $-1 $512 $137 #
coedge $-1 $347 $347 $348 $513 reversed $217 $-1 #
coedge $-1 $348 $348 $347 $513 forward $219 $-1 #
coedge $-1 $349 $349 $220 $350 forward $344 $-1 #
edge $-1 $514 -1.6257238081696686e-015 $514 6.2831853071795987 $349 $515 forward 7 unknown #
face $-1 $516 $517 $72 $-1 $518 forward single #
loop $-1 $-1 $357 $221 #
plane-surface $-1 0 0 11.163402502156551 0 0 1 1 0 0 forward_v I I I I #
coedge $-1 $519 $520 $521 $522 reversed $222 $-1 #
coedge $-1 $356 $224 $523 $524 reversed $141 $-1 #
coedge $-1 $224 $355 $519 $525 reversed $141 $-1 #
coedge $-1 $521 $526 $224 $358 forward $352 $-1 #
edge $-1 $527 25.172606584136208 $528 32.498411494924497 $357 $529 forward 7 unknown #
loop $-1 $-1 $364 $225 #
plane-surface $-1 49.735802730768754 -3.3639249592682745 47.416556501262932 0 0.82903758062907751 0.55919289150049634 1 0 0 forward_v I I I I #
loop $-1 $-1 $530 $143 #
coedge $-1 $362 $362 $363 $531 reversed $226 $-1 #
coedge $-1 $363 $363 $362 $531 forward $228 $-1 #
coedge $-1 $364 $364 $229 $365 forward $359 $-1 #
edge $-1 $532 -1.6257238081696686e-015 $532 6.2831853071795987 $364 $533 forward 7 unknown #
loop $-1 $-1 $371 $230 #
plane-surface $-1 49.735802730768754 -3.3639249592682745 47.416556501262932 0 0.82903758062907751 0.55919289150049634 1 0 0 forward_v I I I I #
loop $-1 $-1 $534 $146 #
coedge $-1 $369 $369 $370 $535 reversed $231 $-1 #
coedge $-1 $370 $370 $369 $535 forward $233 $-1 #
coedge $-1 $371 $371 $234 $372 forward $366 $-1 #
edge $-1 $536 -1.6257238081696686e-015 $536 6.2831853071795987 $371 $537 forward 7 unknown #
loop $-1 $-1 $378 $235 #
plane-surface $-1 49.735802730768754 -3.3639249592682745 47.416556501262932 0 0.82903758062907751 0.55919289150049634 1 0 0 forward_v I I I I #
loop $-1 $-1 $538 $149 #
coedge $-1 $376 $376 $377 $539 reversed $236 $-1 #
coedge $-1 $377 $377 $376 $539 forward $238 $-1 #
coedge $-1 $378 $378 $239 $379 forward $373 $-1 #
edge $-1 $540 -1.6257238081696686e-015 $540 6.2831853071795987 $378 $541 forward 7 unknown #
face $-1 $542 $543 $57 $-1 $544 reversed single #
loop $-1 $-1 $545 $240 #
plane-surface $-1 -66.667073580126356 0 0 1 0 0 0 0 -1 forward_v I I I I #
coedge $-1 $546 $391 $547 $548 forward $241 $-1 #
coedge $-1 $549 $243 $546 $550 forward $153 $-1 #
coedge $-1 $243 $549 $551 $552 forward $153 $-1 #
coedge $-1 $394 $393 $243 $387 reversed $395 $-1 #
edge $-1 $553 -28.414940324718305 $554 28.414940324718305 $386 $555 forward 7 unknown #
coedge $-1 $245 $244 $556 $557 forward $96 $-1 #
coedge $-1 $558 $559 $244 $390 reversed $543 $-1 #
edge $-1 $397 -66.667073580126356 $560 66.667073580126356 $389 $561 forward 7 unknown #
coedge $-1 $383 $562 $245 $392 reversed $241 $-1 #
edge $-1 $563 -66.667073580126356 $396 66.667073580126356 $391 $564 forward 7 unknown #
coedge $-1 $386 $246 $562 $565 forward $395 $-1 #
coedge $-1 $246 $386 $558 $566 reversed $395 $-1 #
loop $-1 $-1 $393 $542 #
vertex $-1 $247 $567 #
vertex $-1 $247 $568 #
straight-curve $-1 66.667073580126356 0 11.163402502156551 0 1 0 I I #
face $-1 $569 $570 $58 $-1 $571 forward single #
loop $-1 $-1 $572 $248 #
plane-surface $-1 -66.667073580126356 0 0 1 0 0 0 0 -1 forward_v I I I I #
coedge $-1 $409 $573 $411 $574 forward $249 $-1 #
coedge $-1 $251 $411 $575 $576 reversed $157 $-1 #
coedge $-1 $577 $407 $251 $405 forward $578 $-1 #
edge $-1 $413 3.3317012510782753 $579 6.3317012510782753 $404 $580 forward 7 unknown #
coedge $-1 $253 $252 $572 $581 reversed $99 $-1 #
coedge $-1 $404 $582 $252 $408 forward $578 $-1 #
edge $-1 $583 -35.342116252411017 $413 -27.30779840301966 $407 $584 forward 7 unknown #
coedge $-1 $585 $402 $253 $410 forward $249 $-1 #
edge $-1 $412 27.30779840301966 $586 35.342116252411017 $409 $587 forward 7 unknown #
coedge $-1 $403 $254 $402 $574 reversed $157 $-1 #
vertex $-1 $410 $588 #
vertex $-1 $408 $589 #
straight-curve $-1 -58.632755730734999 0 8.1634025021565506 0 -1 0 I I #
face $-1 $590 $591 $59 $-1 $592 reversed single #
loop $-1 $-1 $593 $256 #
plane-surface $-1 0 -28.414940324718305 0 0 1 0 0 0 1 forward_v I I I I #
coedge $-1 $594 $595 $420 $596 forward $257 $-1 #
coedge $-1 $597 $259 $423 $598 reversed $161 $-1 #
coedge $-1 $259 $597 $418 $596 reversed $161 $-1 #
coedge $-1 $599 $426 $259 $422 forward $591 $-1 #
edge $-1 $600 3.3317012510782753 $601 6.3317012510782753 $421 $602 forward 7 unknown #
coedge $-1 $261 $260 $419 $598 forward $102 $-1 #
coedge $-1 $603 $593 $260 $425 forward $416 $-1 #
edge $-1 $604 27.30779840301966 $431 35.342116252411017 $424 $605 forward 7 unknown #
coedge $-1 $421 $606 $261 $427 forward $591 $-1 #
edge $-1 $432 -35.342116252411017 $600 -27.30779840301966 $426 $607 forward 7 unknown #
coedge $-1 $608 $262 $606 $609 reversed $430 $-1 #
coedge $-1 $262 $608 $603 $610 forward $430 $-1 #
loop $-1 $-1 $262 $590 #
vertex $-1 $425 $611 #
vertex $-1 $263 $612 #
straight-curve $-1 66.667073580126356 0 8.1634025021565506 0 1 0 I I #
face $-1 $-1 $446 $60 $-1 $613 forward single #
loop $-1 $-1 $614 $264 #
plane-surface $-1 0 28.414940324718305 0 0 -1 0 0 0 -1 forward_v I I I I #
coedge $-1 $615 $616 $617 $618 reversed $265 $-1 #
coedge $-1 $619 $267 $269 $444 forward $165 $-1 #
coedge $-1 $267 $619 $615 $620 forward $165 $-1 #
coedge $-1 $617 $270 $267 $441 forward $446 $-1 #
edge $-1 $448 -28.003618432633129 $621 -10.209712432700623 $440 $622 forward 7 unknown #
coedge $-1 $623 $624 $268 $443 forward $435 $-1 #
edge $-1 $625 -60.685582153563914 $447 -49.824629391622118 $442 $626 forward 7 unknown #
edge $-1 $448 43.729204617717478 $625 56.829880649436639 $269 $627 forward 7 unknown #
coedge $-1 $270 $617 $623 $628 forward $446 $-1 #
loop $-1 $-1 $617 $434 #
vertex $-1 $443 $629 #
vertex $-1 $271 $630 #
straight-curve $-1 -47.110283865300005 53.587546908854513 11.163402502156551 0 -1 0 I I #
coedge $-1 $450 $450 $-1 $631 reversed $274 $-1 #
edge $-1 $632 0 $632 6.2831853071796004 $275 $633 forward 7 unknown #
vertex $-1 $278 $634 #
ellipse-curve $-1 -43.551502665313507 24.752037869324159 5.7329261211856553 0 0.82903758062907751 0.55919289150049634 1 0 0 1 I I #
coedge $-1 $454 $454 $-1 $635 reversed $281 $-1 #
edge $-1 $636 0 $636 6.2831853071796004 $282 $637 forward 7 unknown #
vertex $-1 $285 $638 #
ellipse-curve $-1 -38.213330865333752 24.752037869324159 5.7329261211856553 0 0.82903758062907751 0.55919289150049634 1 0 0 1 I I #
coedge $-1 $458 $458 $-1 $639 reversed $288 $-1 #
edge $-1 $640 0 $640 6.2831853071796004 $289 $641 forward 7 unknown #
vertex $-1 $292 $642 #
ellipse-curve $-1 -32.875159065353998 24.752037869324159 5.7329261211856553 0 0.82903758062907751 0.55919289150049634 1 0 0 1 I I #
face $-1 $-1 $643 $64 $-1 $644 reversed single #
loop $-1 $-1 $299 $293 #
plane-surface $-1 0 0 11.163402502156551 0 0 1 1 0 0 forward_v I I I I #
coedge $-1 $645 $646 $647 $648 reversed $294 $-1 #
coedge $-1 $649 $296 $298 $472 forward $184 $-1 #
coedge $-1 $296 $649 $645 $650 forward $184 $-1 #
coedge $-1 $647 $299 $296 $469 forward $463 $-1 #
edge $-1 $475 -13.345429499949379 $651 4.4484764999831263 $468 $652 forward 7 unknown #
coedge $-1 $653 $654 $297 $471 forward $643 $-1 #
edge $-1 $655 -60.685582153563914 $474 -49.824629391622118 $470 $656 forward 7 unknown #
edge $-1 $475 43.729204617717478 $655 56.829880649436639 $298 $657 forward 7 unknown #
coedge $-1 $299 $647 $653 $658 forward $463 $-1 #
vertex $-1 $300 $659 #
vertex $-1 $300 $660 #
straight-curve $-1 -17.793905999932505 53.587546908854513 11.163402502156551 0 -1 0 I I #
coedge $-1 $477 $477 $-1 $661 reversed $303 $-1 #
edge $-1 $662 0 $662 6.2831853071796004 $304 $663 forward 7 unknown #
vertex $-1 $307 $664 #
ellipse-curve $-1 -14.235124799946007 24.752037869324159 5.7329261211856553 0 0.82903758062907751 0.55919289150049634 1 0 0 1 I I #
coedge $-1 $481 $481 $-1 $665 reversed $310 $-1 #
edge $-1 $666 0 $666 6.2831853071796004 $311 $667 forward 7 unknown #
vertex $-1 $314 $668 #
ellipse-curve $-1 -8.8969529999662527 24.752037869324159 5.7329261211856553 0 0.82903758062907751 0.55919289150049634 1 0 0 1 I I #
coedge $-1 $485 $485 $-1 $669 reversed $317 $-1 #
edge $-1 $670 0 $670 6.2831853071796004 $318 $671 forward 7 unknown #
vertex $-1 $321 $672 #
ellipse-curve $-1 -3.5587811999864982 24.752037869324159 5.7329261211856553 0 0.82903758062907751 0.55919289150049634 1 0 0 1 I I #
face $-1 $-1 $673 $68 $-1 $674 reversed single #
loop $-1 $-1 $328 $322 #
plane-surface $-1 0 0 11.163402502156551 0 0 1 1 0 0 forward_v I I I I #
coedge $-1 $675 $676 $677 $678 reversed $323 $-1 #
coedge $-1 $679 $325 $327 $499 forward $203 $-1 #
coedge $-1 $325 $679 $675 $680 forward $203 $-1 #
coedge $-1 $677 $328 $325 $496 forward $490 $-1 #
edge $-1 $502 1.3127594327343743 $681 19.10666543266688 $495 $682 forward 7 unknown #
coedge $-1 $683 $684 $326 $498 forward $673 $-1 #
edge $-1 $685 -60.685582153563914 $501 -49.824629391622118 $497 $686 forward 7 unknown #
edge $-1 $502 43.729204617717478 $685 56.829880649436639 $327 $687 forward 7 unknown #
coedge $-1 $328 $677 $683 $688 forward $490 $-1 #
vertex $-1 $329 $689 #
vertex $-1 $329 $690 #
straight-curve $-1 11.522471865435001 53.587546908854513 11.163402502156551 0 -1 0 I I #
coedge $-1 $504 $504 $-1 $691 reversed $332 $-1 #
edge $-1 $692 0 $692 6.2831853071796004 $333 $693 forward 7 unknown #
vertex $-1 $336 $694 #
ellipse-curve $-1 15.081253065421492 24.752037869324159 5.7329261211856553 0 0.82903758062907751 0.55919289150049634 1 0 0 1 I I #
coedge $-1 $508 $508 $-1 $695 reversed $339 $-1 #
edge $-1 $696 0 $696 6.2831853071796004 $340 $697 forward 7 unknown #
vertex $-1 $343 $698 #
ellipse-curve $-1 20.419424865401254 24.752037869324159 5.7329261211856553 0 0.82903758062907751 0.55919289150049634 1 0 0 1 I I #
coedge $-1 $512 $512 $-1 $699 reversed $346 $-1 #
edge $-1 $700 0 $700 6.2831853071796004 $347 $701 forward 7 unknown #
vertex $-1 $350 $702 #
ellipse-curve $-1 25.757596665381001 24.752037869324159 5.7329261211856553 0 0.82903758062907751 0.55919289150049634 1 0 0 1 I I #
face $-1 $-1 $703 $72 $-1 $704 reversed single #
loop $-1 $-1 $705 $351 #
plane-surface $-1 58.632755730734999 0 9.6634025021565506 1 0 0 0 0 -1 forward_v I I I I #
coedge $-1 $706 $354 $356 $525 forward $222 $-1 #
coedge $-1 $354 $706 $705 $707 forward $222 $-1 #
coedge $-1 $708 $357 $354 $522 forward $352 $-1 #
edge $-1 $528 15.970948365418124 $709 33.764854365350629 $521 $710 forward 7 unknown #
coedge $-1 $711 $712 $355 $524 forward $703 $-1 #
edge $-1 $713 -60.685582153563914 $527 -49.824629391622118 $523 $714 forward 7 unknown #
edge $-1 $528 43.729204617717478 $713 56.829880649436639 $356 $715 forward 7 unknown #
coedge $-1 $357 $708 $711 $716 forward $352 $-1 #
vertex $-1 $524 $717 #
vertex $-1 $358 $718 #
straight-curve $-1 40.838849730802501 53.587546908854513 11.163402502156551 0 -1 0 I I #
coedge $-1 $530 $530 $-1 $719 reversed $361 $-1 #
edge $-1 $720 0 $720 6.2831853071796004 $362 $721 forward 7 unknown #
vertex $-1 $365 $722 #
ellipse-curve $-1 44.397630930788992 24.752037869324159 5.7329261211856553 0 0.82903758062907751 0.55919289150049634 1 0 0 1 I I #
coedge $-1 $534 $534 $-1 $723 reversed $368 $-1 #
edge $-1 $724 0 $724 6.2831853071796004 $369 $725 forward 7 unknown #
vertex $-1 $372 $726 #
ellipse-curve $-1 49.735802730768754 24.752037869324159 5.7329261211856553 0 0.82903758062907751 0.55919289150049634 1 0 0 1 I I #
coedge $-1 $538 $538 $-1 $727 reversed $375 $-1 #
edge $-1 $728 0 $728 6.2831853071796004 $376 $729 forward 7 unknown #
vertex $-1 $379 $730 #
ellipse-curve $-1 55.073974530748501 24.752037869324159 5.7329261211856553 0 0.82903758062907751 0.55919289150049634 1 0 0 1 I I #
face $-1 $-1 $395 $57 $-1 $731 reversed single #
loop $-1 $-1 $558 $380 #
plane-surface $-1 0 28.414940324718305 0 0 -1 0 0 0 -1 forward_v I I I I #
coedge $-1 $732 $556 $559 $733 forward $381 $-1 #
coedge $-1 $562 $383 $384 $550 reversed $241 $-1 #
coedge $-1 $556 $732 $383 $548 reversed $381 $-1 #
edge $-1 $563 -11.163402502156551 $734 11.163402502156551 $547 $735 forward 7 unknown #
coedge $-1 $385 $384 $732 $736 forward $153 $-1 #
edge $-1 $554 -66.667073580126356 $734 66.667073580126356 $546 $737 forward 7 unknown #
coedge $-1 $559 $558 $385 $552 reversed $543 $-1 #
edge $-1 $738 -66.667073580126356 $553 66.667073580126356 $551 $739 forward 7 unknown #
vertex $-1 $387 $740 #
vertex $-1 $565 $741 #
straight-curve $-1 66.667073580126356 0 -11.163402502156551 0 -1 0 I I #
coedge $-1 $545 $547 $388 $557 reversed $381 $-1 #
edge $-1 $560 -28.414940324718305 $563 28.414940324718305 $556 $742 forward 7 unknown #
coedge $-1 $551 $389 $394 $566 forward $543 $-1 #
coedge $-1 $389 $551 $545 $733 reversed $543 $-1 #
vertex $-1 $390 $743 #
straight-curve $-1 0 28.414940324718305 11.163402502156551 -1 0 0 I I #
coedge $-1 $391 $546 $393 $565 reversed $241 $-1 #
vertex $-1 $557 $744 #
straight-curve $-1 0 -28.414940324718305 11.163402502156551 1 0 0 I I #
edge $-1 $396 -11.163402502156551 $554 11.163402502156551 $393 $745 forward 7 unknown #
edge $-1 $397 -11.163402502156551 $553 11.163402502156551 $394 $746 forward 7 unknown #
point $-1 66.667073580126356 -28.414940324718305 11.163402502156551 #
point $-1 66.667073580126356 28.414940324718305 11.163402502156551 #
face $-1 $-1 $578 $58 $-1 $747 reversed single #
loop $-1 $-1 $575 $399 #
plane-surface $-1 0 0 11.163402502156551 0 0 1 1 0 0 forward_v I I I I #
coedge $-1 $748 $749 $406 $581 forward $400 $-1 #
coedge $-1 $402 $585 $750 $751 reversed $249 $-1 #
edge $-1 $752 -6.3317012510782753 $412 -3.3317012510782753 $402 $753 forward 7 unknown #
coedge $-1 $750 $754 $403 $576 forward $570 $-1 #
edge $-1 $579 -28.414940324718305 $752 28.414940324718305 $575 $755 forward 7 unknown #
coedge $-1 $582 $404 $754 $756 reversed $578 $-1 #
loop $-1 $-1 $404 $569 #
vertex $-1 $405 $757 #
straight-curve $-1 -58.632755730734999 -28.414940324718305 4.8317012510782753 0 0 1 I I #
edge $-1 $586 -28.414940324718305 $583 28.414940324718305 $572 $758 forward 7 unknown #
coedge $-1 $407 $577 $748 $759 forward $578 $-1 #
vertex $-1 $581 $760 #
straight-curve $-1 -31.324957327715339 -28.414940324718305 8.1634025021565506 1 0 0 I I #
coedge $-1 $573 $409 $749 $761 reversed $249 $-1 #
vertex $-1 $581 $762 #
straight-curve $-1 -31.324957327715339 28.414940324718305 8.1634025021565506 -1 0 0 I I #
point $-1 -58.632755730734999 28.414940324718305 8.1634025021565506 #
point $-1 -58.632755730734999 -28.414940324718305 8.1634025021565506 #
face $-1 $-1 $430 $59 $-1 $763 reversed single #
loop $-1 $-1 $421 $415 #
plane-surface $-1 0 28.414940324718305 0 0 -1 0 0 0 -1 forward_v I I I I #
coedge $-1 $424 $764 $597 $765 forward $416 $-1 #
coedge $-1 $766 $418 $764 $767 forward $257 $-1 #
coedge $-1 $418 $766 $599 $768 forward $257 $-1 #
edge $-1 $601 -28.414940324718305 $769 28.414940324718305 $418 $770 forward 7 unknown #
coedge $-1 $420 $419 $593 $765 reversed $161 $-1 #
edge $-1 $604 -28.414940324718305 $600 28.414940324718305 $419 $771 forward 7 unknown #
coedge $-1 $606 $421 $595 $768 reversed $591 $-1 #
vertex $-1 $427 $772 #
vertex $-1 $422 $773 #
straight-curve $-1 58.632755730734999 28.414940324718305 4.8317012510782753 0 0 1 I I #
coedge $-1 $764 $424 $429 $610 reversed $416 $-1 #
vertex $-1 $425 $774 #
straight-curve $-1 31.324957327715339 -28.414940324718305 8.1634025021565506 1 0 0 I I #
coedge $-1 $426 $599 $428 $609 forward $591 $-1 #
straight-curve $-1 31.324957327715339 28.414940324718305 8.1634025021565506 -1 0 0 I I #
coedge $-1 $429 $428 $766 $775 reversed $430 $-1 #
edge $-1 $776 -11.163402502156551 $432 -8.1634025021565506 $428 $777 forward 7 unknown #
edge $-1 $778 -11.163402502156551 $431 -8.1634025021565506 $429 $779 forward 7 unknown #
point $-1 66.667073580126356 -28.414940324718305 8.1634025021565506 #
point $-1 66.667073580126356 28.414940324718305 8.1634025021565506 #
plane-surface $-1 0 0 11.163402502156551 0 0 1 1 0 0 forward_v I I I I #
coedge $-1 $624 $623 $616 $780 forward $435 $-1 #
coedge $-1 $616 $437 $439 $620 reversed $265 $-1 #
coedge $-1 $437 $615 $614 $780 reversed $265 $-1 #
coedge $-1 $445 $440 $437 $618 forward $446 $-1 #
edge $-1 $621 -32.498411494924497 $781 -25.172606584136208 $617 $782 forward 7 unknown #
coedge $-1 $439 $438 $624 $783 reversed $165 $-1 #
edge $-1 $784 -56.829880649436639 $621 -43.729204617717478 $615 $785 forward 7 unknown #
vertex $-1 $441 $786 #
straight-curve $-1 -19.106665432666876 21.089135413930016 11.163402502156551 1 0 0 I I #
coedge $-1 $614 $442 $445 $628 reversed $435 $-1 #
coedge $-1 $442 $614 $619 $783 forward $435 $-1 #
vertex $-1 $443 $787 #
straight-curve $-1 -47.110283865300005 28.414940324718302 60.988031893778668 0 0 1 I I #
straight-curve $-1 -47.110283865300005 -3.3639249592682745 47.416556501262932 0 0.55919289150049634 -0.82903758062907751 I I #
edge $-1 $781 29.3163778653675 $447 47.110283865300005 $623 $788 forward 7 unknown #
point $-1 -47.110283865300005 28.414940324718305 11.163402502156551 #
point $-1 -47.110283865300005 21.08913541393002 11.163402502156551 #
edge $-1 $789 1 $789 0 $450 $-1 forward 7 unknown #
vertex $-1 $451 $790 #
ellipse-curve $-1 -43.551502665313507 23.172243975025655 4.6673417178136463 0 0.82903758062907751 0.55919289150049634 1 0 0 1 I I #
point $-1 -42.551502665313507 24.752037869324173 5.7329261211856668 #
edge $-1 $791 1 $791 0 $454 $-1 forward 7 unknown #
vertex $-1 $455 $792 #
ellipse-curve $-1 -38.213330865333752 23.172243975025655 4.6673417178136463 0 0.82903758062907751 0.55919289150049634 1 0 0 1 I I #
point $-1 -37.213330865333752 24.752037869324173 5.7329261211856668 #
edge $-1 $793 1 $793 0 $458 $-1 forward 7 unknown #
vertex $-1 $459 $794 #
ellipse-curve $-1 -32.875159065353998 23.172243975025655 4.6673417178136463 0 0.82903758062907751 0.55919289150049634 1 0 0 1 I I #
point $-1 -31.875159065353998 24.752037869324173 5.7329261211856668 #
loop $-1 $-1 $470 $462 #
plane-surface $-1 0 28.414940324718305 0 0 -1 0 0 0 -1 forward_v I I I I #
coedge $-1 $646 $465 $467 $650 reversed $294 $-1 #
coedge $-1 $465 $645 $795 $796 reversed $294 $-1 #
coedge $-1 $473 $468 $465 $648 forward $463 $-1 #
edge $-1 $651 -32.498411494924497 $797 -25.172606584136208 $647 $798 forward 7 unknown #
coedge $-1 $467 $466 $654 $799 reversed $184 $-1 #
edge $-1 $800 -56.829880649436639 $651 -43.729204617717478 $645 $801 forward 7 unknown #
vertex $-1 $469 $802 #
straight-curve $-1 -4.4484764999831263 21.089135413930016 11.163402502156551 1 0 0 I I #
coedge $-1 $795 $470 $473 $658 reversed $643 $-1 #
coedge $-1 $470 $795 $649 $799 forward $643 $-1 #
vertex $-1 $471 $803 #
straight-curve $-1 -17.793905999932505 28.414940324718302 60.988031893778668 0 0 1 I I #
straight-curve $-1 -17.793905999932505 -3.3639249592682745 47.416556501262932 0 0.55919289150049634 -0.82903758062907751 I I #
edge $-1 $797 0 $474 17.793905999932505 $653 $804 forward 7 unknown #
point $-1 -17.793905999932505 28.414940324718305 11.163402502156551 #
point $-1 -17.793905999932505 21.08913541393002 11.163402502156551 #
edge $-1 $805 1 $805 0 $477 $-1 forward 7 unknown #
vertex $-1 $478 $806 #
ellipse-curve $-1 -14.235124799946007 23.172243975025655 4.6673417178136463 0 0.82903758062907751 0.55919289150049634 1 0 0 1 I I #
point $-1 -13.235124799946007 24.752037869324173 5.7329261211856668 #
edge $-1 $807 1 $807 0 $481 $-1 forward 7 unknown #
vertex $-1 $482 $808 #
ellipse-curve $-1 -8.8969529999662527 23.172243975025655 4.6673417178136463 0 0.82903758062907751 0.55919289150049634 1 0 0 1 I I #
point $-1 -7.8969529999662527 24.752037869324173 5.7329261211856668 #
edge $-1 $809 1 $809 0 $485 $-1 forward 7 unknown #
vertex $-1 $486 $810 #
ellipse-curve $-1 -3.5587811999864982 23.172243975025655 4.6673417178136463 0 0.82903758062907751 0.55919289150049634 1 0 0 1 I I #
point $-1 -2.5587811999864982 24.752037869324173 5.7329261211856668 #
loop $-1 $-1 $497 $489 #
plane-surface $-1 0 28.414940324718305 0 0 -1 0 0 0 -1 forward_v I I I I #
coedge $-1 $676 $492 $494 $680 reversed $323 $-1 #
coedge $-1 $492 $675 $811 $812 reversed $323 $-1 #
coedge $-1 $500 $495 $492 $678 forward $490 $-1 #
edge $-1 $681 -32.498411494924497 $813 -25.172606584136208 $677 $814 forward 7 unknown #
coedge $-1 $494 $493 $684 $815 reversed $203 $-1 #
edge $-1 $816 -56.829880649436639 $681 -43.729204617717478 $675 $817 forward 7 unknown #
vertex $-1 $496 $818 #
straight-curve $-1 10.209712432700627 21.089135413930016 11.163402502156551 1 0 0 I I #
coedge $-1 $811 $497 $500 $688 reversed $673 $-1 #
coedge $-1 $497 $811 $679 $815 forward $673 $-1 #
vertex $-1 $498 $819 #
straight-curve $-1 11.522471865435001 28.414940324718302 60.988031893778668 0 0 1 I I #
straight-curve $-1 11.522471865435001 -3.3639249592682745 47.416556501262932 0 0.55919289150049634 -0.82903758062907751 I I #
edge $-1 $813 -29.316377865367507 $501 -11.522471865435001 $683 $820 forward 7 unknown #
point $-1 11.522471865435001 28.414940324718305 11.163402502156551 #
point $-1 11.522471865435001 21.08913541393002 11.163402502156551 #
edge $-1 $821 1 $821 0 $504 $-1 forward 7 unknown #
vertex $-1 $505 $822 #
ellipse-curve $-1 15.081253065421492 23.172243975025655 4.6673417178136463 0 0.82903758062907751 0.55919289150049634 1 0 0 1 I I #
point $-1 16.081253065421492 24.752037869324173 5.7329261211856668 #
edge $-1 $823 1 $823 0 $508 $-1 forward 7 unknown #
vertex $-1 $509 $824 #
ellipse-curve $-1 20.419424865401254 23.172243975025655 4.6673417178136463 0 0.82903758062907751 0.55919289150049634 1 0 0 1 I I #
point $-1 21.419424865401254 24.752037869324173 5.7329261211856668 #
edge $-1 $825 1 $825 0 $512 $-1 forward 7 unknown #
vertex $-1 $513 $826 #
ellipse-curve $-1 25.757596665381001 23.172243975025655 4.6673417178136463 0 0.82903758062907751 0.55919289150049634 1 0 0 1 I I #
point $-1 26.757596665381001 24.752037869324173 5.7329261211856668 #
loop $-1 $-1 $523 $516 #
plane-surface $-1 0 28.414940324718305 0 0 -1 0 0 0 -1 forward_v I I I I #
coedge $-1 $827 $828 $520 $707 reversed $517 $-1 #
coedge $-1 $520 $519 $712 $829 reversed $222 $-1 #
edge $-1 $830 -56.829880649436639 $709 -43.729204617717478 $705 $831 forward 7 unknown #
coedge $-1 $526 $521 $828 $832 forward $352 $-1 #
vertex $-1 $832 $833 #
straight-curve $-1 24.867901365384377 21.089135413930016 11.163402502156551 1 0 0 I I #
coedge $-1 $834 $523 $526 $716 reversed $703 $-1 #
coedge $-1 $523 $834 $706 $829 forward $703 $-1 #
vertex $-1 $524 $835 #
straight-curve $-1 40.838849730802501 28.414940324718302 60.988031893778668 0 0 1 I I #
straight-curve $-1 40.838849730802501 -3.3639249592682745 47.416556501262932 0 0.55919289150049634 -0.82903758062907751 I I #
edge $-1 $836 -58.632755730734999 $527 -40.838849730802501 $711 $837 forward 7 unknown #
point $-1 40.838849730802501 28.414940324718305 11.163402502156551 #
point $-1 40.838849730802501 21.08913541393002 11.163402502156551 #
edge $-1 $838 1 $838 0 $530 $-1 forward 7 unknown #
vertex $-1 $531 $839 #
ellipse-curve $-1 44.397630930788992 23.172243975025655 4.6673417178136463 0 0.82903758062907751 0.55919289150049634 1 0 0 1 I I #
point $-1 45.397630930788992 24.752037869324173 5.7329261211856668 #
edge $-1 $840 1 $840 0 $534 $-1 forward 7 unknown #
vertex $-1 $535 $841 #
ellipse-curve $-1 49.735802730768754 23.172243975025655 4.6673417178136463 0 0.82903758062907751 0.55919289150049634 1 0 0 1 I I #
point $-1 50.735802730768754 24.752037869324173 5.7329261211856668 #
edge $-1 $842 1 $842 0 $538 $-1 forward 7 unknown #
vertex $-1 $539 $843 #
ellipse-curve $-1 55.073974530748501 23.172243975025655 4.6673417178136463 0 0.82903758062907751 0.55919289150049634 1 0 0 1 I I #
point $-1 56.073974530748501 24.752037869324173 5.7329261211856668 #
plane-surface $-1 66.667073580126356 0 0 -1 0 0 0 0 1 forward_v I I I I #
coedge $-1 $547 $545 $549 $736 reversed $381 $-1 #
edge $-1 $560 -11.163402502156551 $738 11.163402502156551 $559 $844 forward 7 unknown #
vertex $-1 $736 $845 #
straight-curve $-1 -66.667073580126356 -28.414940324718305 0 0 0 -1 I I #
edge $-1 $734 -28.414940324718305 $738 28.414940324718305 $732 $846 forward 7 unknown #
straight-curve $-1 0 -28.414940324718305 -11.163402502156551 -1 0 0 I I #
vertex $-1 $552 $847 #
straight-curve $-1 0 28.414940324718305 -11.163402502156551 1 0 0 I I #
point $-1 66.667073580126356 28.414940324718305 -11.163402502156551 #
point $-1 66.667073580126356 -28.414940324718305 -11.163402502156551 #
straight-curve $-1 -66.667073580126356 0 11.163402502156551 0 -1 0 I I #
point $-1 -66.667073580126356 28.414940324718305 11.163402502156551 #
point $-1 -66.667073580126356 -28.414940324718305 11.163402502156551 #
straight-curve $-1 66.667073580126356 -28.414940324718305 0 0 0 -1 I I #
straight-curve $-1 66.667073580126356 28.414940324718305 0 0 0 -1 I I #
plane-surface $-1 0 -28.414940324718305 0 0 1 0 0 0 1 forward_v I I I I #
coedge $-1 $848 $572 $582 $759 reversed $400 $-1 #
coedge $-1 $572 $848 $585 $761 forward $400 $-1 #
coedge $-1 $849 $575 $573 $751 forward $570 $-1 #
edge $-1 $752 58.632755730734999 $850 66.667073580126356 $573 $851 forward 7 unknown #
vertex $-1 $751 $852 #
straight-curve $-1 -58.632755730734999 28.414940324718305 4.8317012510782753 0 0 -1 I I #
coedge $-1 $575 $849 $577 $756 forward $570 $-1 #
straight-curve $-1 -58.632755730734999 0 11.163402502156551 0 1 0 I I #
edge $-1 $853 -66.667073580126356 $579 -58.632755730734999 $577 $854 forward 7 unknown #
point $-1 -58.632755730734999 -28.414940324718305 11.163402502156551 #
straight-curve $-1 -66.667073580126356 0 8.1634025021565506 0 -1 0 I I #
edge $-1 $853 -11.163402502156551 $583 -8.1634025021565506 $748 $855 forward 7 unknown #
point $-1 -66.667073580126356 -28.414940324718305 8.1634025021565506 #
edge $-1 $850 -11.163402502156551 $586 -8.1634025021565506 $585 $856 forward 7 unknown #
point $-1 -66.667073580126356 28.414940324718305 8.1634025021565506 #
plane-surface $-1 66.667073580126356 0 0 -1 0 0 0 0 1 forward_v I I I I #
coedge $-1 $593 $603 $594 $767 reversed $416 $-1 #
edge $-1 $769 -6.3317012510782753 $604 -3.3317012510782753 $593 $857 forward 7 unknown #
coedge $-1 $595 $594 $608 $775 forward $257 $-1 #
edge $-1 $769 58.632755730734999 $778 66.667073580126356 $764 $858 forward 7 unknown #
edge $-1 $776 -66.667073580126356 $601 -58.632755730734999 $599 $859 forward 7 unknown #
vertex $-1 $767 $860 #
straight-curve $-1 58.632755730734999 0 11.163402502156551 0 -1 0 I I #
straight-curve $-1 58.632755730734999 0 8.1634025021565506 0 1 0 I I #
point $-1 58.632755730734999 28.414940324718305 8.1634025021565506 #
point $-1 58.632755730734999 28.414940324718305 11.163402502156551 #
point $-1 58.632755730734999 -28.414940324718305 8.1634025021565506 #
edge $-1 $778 -28.414940324718305 $776 28.414940324718305 $608 $861 forward 7 unknown #
vertex $-1 $775 $862 #
straight-curve $-1 66.667073580126356 28.414940324718305 0 0 0 -1 I I #
vertex $-1 $775 $863 #
straight-curve $-1 66.667073580126356 -28.414940324718305 0 0 0 -1 I I #
edge $-1 $781 49.824629391622118 $784 60.685582153563914 $614 $864 forward 7 unknown #
vertex $-1 $628 $865 #
straight-curve $-1 -29.3163778653675 53.587546908854513 11.163402502156551 0 1 0 I I #
edge $-1 $784 10.209712432700623 $625 28.003618432633129 $624 $866 forward 7 unknown #
vertex $-1 $783 $867 #
straight-curve $-1 -29.3163778653675 -3.3639249592682745 47.416556501262932 0 -0.55919289150049634 0.82903758062907751 I I #
point $-1 -29.3163778653675 21.08913541393002 11.163402502156551 #
point $-1 -47.110283865300005 28.414940324718305 0.30244974021475457 #
straight-curve $-1 0 28.414940324718305 11.163402502156551 -1 0 0 I I #
vertex $-1 $631 $868 #
point $-1 -42.551502665313507 23.172243975025655 4.6673417178136463 #
vertex $-1 $635 $869 #
point $-1 -37.213330865333752 23.172243975025655 4.6673417178136463 #
vertex $-1 $639 $870 #
point $-1 -31.875159065353998 23.172243975025655 4.6673417178136463 #
coedge $-1 $654 $653 $646 $796 forward $643 $-1 #
edge $-1 $797 49.824629391622118 $800 60.685582153563914 $795 $871 forward 7 unknown #
vertex $-1 $658 $872 #
straight-curve $-1 0 53.587546908854513 11.163402502156551 0 1 0 I I #
edge $-1 $800 -4.4484764999831263 $655 13.345429499949379 $654 $873 forward 7 unknown #
vertex $-1 $799 $874 #
straight-curve $-1 0 -3.3639249592682745 47.416556501262932 0 -0.55919289150049634 0.82903758062907751 I I #
point $-1 0 21.08913541393002 11.163402502156551 #
point $-1 -17.793905999932505 28.414940324718305 0.30244974021475457 #
straight-curve $-1 0 28.414940324718305 11.163402502156551 -1 0 0 I I #
vertex $-1 $661 $875 #
point $-1 -13.235124799946007 23.172243975025655 4.6673417178136463 #
vertex $-1 $665 $876 #
point $-1 -7.8969529999662527 23.172243975025655 4.6673417178136463 #
vertex $-1 $669 $877 #
point $-1 -2.5587811999864982 23.172243975025655 4.6673417178136463 #
coedge $-1 $684 $683 $676 $812 forward $673 $-1 #
edge $-1 $813 49.824629391622118 $816 60.685582153563914 $811 $878 forward 7 unknown #
vertex $-1 $688 $879 #
straight-curve $-1 29.316377865367507 53.587546908854513 11.163402502156551 0 1 0 I I #
edge $-1 $816 -19.10666543266688 $685 -1.3127594327343743 $684 $880 forward 7 unknown #
vertex $-1 $815 $881 #
straight-curve $-1 29.316377865367507 -3.3639249592682745 47.416556501262932 0 -0.55919289150049634 0.82903758062907751 I I #
point $-1 29.316377865367507 21.08913541393002 11.163402502156551 #
point $-1 11.522471865435001 28.414940324718305 0.30244974021475457 #
straight-curve $-1 0 28.414940324718305 11.163402502156551 -1 0 0 I I #
vertex $-1 $691 $882 #
point $-1 16.081253065421492 23.172243975025655 4.6673417178136463 #
vertex $-1 $695 $883 #
point $-1 21.419424865401254 23.172243975025655 4.6673417178136463 #
vertex $-1 $699 $884 #
point $-1 26.757596665381001 23.172243975025655 4.6673417178136463 #
coedge $-1 $828 $705 $834 $885 reversed $517 $-1 #
coedge $-1 $705 $827 $708 $832 reversed $517 $-1 #
edge $-1 $830 -33.764854365350629 $713 -15.970948365418124 $712 $886 forward 7 unknown #
vertex $-1 $885 $887 #
straight-curve $-1 58.632755730735006 -3.3639249592682745 47.416556501262932 0 -0.55919289150049634 0.82903758062907751 I I #
edge $-1 $709 21.08913541393002 $836 28.414940324718305 $708 $888 forward 7 unknown #
point $-1 58.632755730735006 21.08913541393002 11.163402502156551 #
coedge $-1 $712 $711 $827 $885 forward $703 $-1 #
point $-1 40.838849730802501 28.414940324718305 0.30244974021475457 #
vertex $-1 $716 $889 #
straight-curve $-1 0 28.414940324718305 11.163402502156551 -1 0 0 I I #
vertex $-1 $719 $890 #
point $-1 45.397630930788992 23.172243975025655 4.6673417178136463 #
vertex $-1 $723 $891 #
point $-1 50.735802730768754 23.172243975025655 4.6673417178136463 #
vertex $-1 $727 $892 #
point $-1 56.073974530748501 23.172243975025655 4.6673417178136463 #
straight-curve $-1 -66.667073580126356 28.414940324718305 0 0 0 -1 I I #
point $-1 -66.667073580126356 -28.414940324718305 -11.163402502156551 #
straight-curve $-1 -66.667073580126356 0 -11.163402502156551 0 1 0 I I #
point $-1 -66.667073580126356 28.414940324718305 -11.163402502156551 #
coedge $-1 $749 $748 $849 $893 reversed $400 $-1 #
coedge $-1 $754 $750 $848 $893 forward $570 $-1 #
vertex $-1 $751 $894 #
straight-curve $-1 0 28.414940324718305 11.163402502156551 -1 0 0 I I #
point $-1 -58.632755730734999 28.414940324718305 11.163402502156551 #
vertex $-1 $893 $895 #
straight-curve $-1 0 -28.414940324718305 11.163402502156551 1 0 0 I I #
straight-curve $-1 -66.667073580126356 -28.414940324718305 0 0 0 -1 I I #
straight-curve $-1 -66.667073580126356 28.414940324718305 0 0 0 -1 I I #
straight-curve $-1 58.632755730734999 -28.414940324718305 4.8317012510782753 0 0 -1 I I #
straight-curve $-1 0 -28.414940324718305 11.163402502156551 1 0 0 I I #
straight-curve $-1 0 28.414940324718305 11.163402502156551 -1 0 0 I I #
point $-1 58.632755730734999 -28.414940324718305 11.163402502156551 #
straight-curve $-1 66.667073580126356 0 11.163402502156551 0 1 0 I I #
point $-1 66.667073580126356 28.414940324718305 11.163402502156551 #
point $-1 66.667073580126356 -28.414940324718305 11.163402502156551 #
straight-curve $-1 -29.3163778653675 28.414940324718302 60.988031893778668 0 0 -1 I I #
point $-1 -29.3163778653675 28.414940324718305 11.163402502156551 #
straight-curve $-1 -19.106665432666876 28.414940324718309 0.30244974021474746 -1 0 0 I I #
point $-1 -29.3163778653675 28.414940324718305 0.30244974021475457 #
point $-1 -43.551502665313507 22.343206394396578 4.1081488263131503 #
point $-1 -38.213330865333752 22.343206394396578 4.1081488263131503 #
point $-1 -32.875159065353998 22.343206394396578 4.1081488263131503 #
straight-curve $-1 0 28.414940324718302 60.988031893778668 0 0 -1 I I #
point $-1 0 28.414940324718305 11.163402502156551 #
straight-curve $-1 -4.4484764999831263 28.414940324718309 0.30244974021474746 -1 0 0 I I #
point $-1 0 28.414940324718305 0.30244974021475457 #
point $-1 -14.235124799946007 22.343206394396578 4.1081488263131503 #
point $-1 -8.8969529999662527 22.343206394396578 4.1081488263131503 #
point $-1 -3.5587811999864982 22.343206394396578 4.1081488263131503 #
straight-curve $-1 29.316377865367507 28.414940324718302 60.988031893778668 0 0 -1 I I #
point $-1 29.316377865367507 28.414940324718305 11.163402502156551 #
straight-curve $-1 10.209712432700627 28.414940324718309 0.30244974021474746 -1 0 0 I I #
point $-1 29.316377865367507 28.414940324718305 0.30244974021475457 #
point $-1 15.081253065421492 22.343206394396578 4.1081488263131503 #
point $-1 20.419424865401254 22.343206394396578 4.1081488263131503 #
point $-1 25.757596665381001 22.343206394396578 4.1081488263131503 #
edge $-1 $836 49.824629391622118 $830 60.685582153563914 $834 $896 forward 7 unknown #
straight-curve $-1 24.867901365384377 28.414940324718309 0.30244974021474746 -1 0 0 I I #
point $-1 58.632755730735006 28.414940324718305 0.30244974021475457 #
straight-curve $-1 58.632755730734999 0 11.163402502156551 0 1 0 I I #
point $-1 58.632755730734999 28.414940324718305 11.163402502156551 #
point $-1 44.397630930788992 22.343206394396578 4.1081488263131503 #
point $-1 49.735802730768754 22.343206394396578 4.1081488263131503 #
point $-1 55.073974530748501 22.343206394396578 4.1081488263131503 #
edge $-1 $850 -28.414940324718305 $853 28.414940324718305 $848 $897 forward 7 unknown #
point $-1 -66.667073580126356 28.414940324718305 11.163402502156551 #
point $-1 -66.667073580126356 -28.414940324718305 11.163402502156551 #
straight-curve $-1 58.632755730735006 28.414940324718302 60.988031893778668 0 0 -1 I I #
straight-curve $-1 -66.667073580126356 0 11.163402502156551 0 -1 0 I I #
End-of-ACIS-data 