500 0 5 0           
7 Unknown 11 ACIS 5.0 NT 24 Thu Mar 25 17:53:41 1999 
-1 9.9999999999999995e-007 1e-010 
body $-1 $5 $-1 $6 #
body $-1 $7 $-1 $8 #
body $-1 $9 $-1 $10 #
body $-1 $11 $-1 $12 #
body $-1 $13 $-1 $14 #
lump $-1 $-1 $15 $0 #
transform $-1 1 0 0 0 1 0 0 0 1 64.199957274086728 31.228095920072978 11.538679944245722 1 rotate no_reflect no_shear #
lump $-1 $-1 $16 $1 #
transform $-1 1 0 0 0 1 0 0 0 1 64.199957274086728 31.228095920072978 11.538679944245722 1 rotate no_reflect no_shear #
lump $-1 $-1 $17 $2 #
transform $-1 1 0 0 0 1 0 0 0 1 64.199957274086728 31.228095920072978 11.538679944245722 1 rotate no_reflect no_shear #
lump $-1 $-1 $18 $3 #
transform $-1 1 0 0 0 1 0 0 0 1 64.199957274086728 31.228095920072978 11.538679944245722 1 rotate no_reflect no_shear #
lump $-1 $-1 $19 $4 #
transform $-1 1 0 0 0 1 0 0 0 1 64.199957274086728 31.228095920072978 11.538679944245722 1 rotate no_reflect no_shear #
shell $-1 $-1 $-1 $20 $-1 $5 #
shell $-1 $-1 $-1 $21 $-1 $7 #
shell $-1 $-1 $-1 $22 $-1 $9 #
shell $-1 $-1 $-1 $23 $-1 $11 #
shell $-1 $-1 $-1 $24 $-1 $13 #
face $-1 $25 $26 $15 $-1 $27 forward single #
face $-1 $28 $29 $16 $-1 $30 reversed single #
face $-1 $31 $32 $17 $-1 $33 forward single #
face $-1 $34 $35 $18 $-1 $36 reversed single #
face $-1 $37 $38 $19 $-1 $39 reversed single #
face $-1 $40 $41 $15 $-1 $42 reversed single #
loop $-1 $-1 $43 $20 #
plane-surface $-1 0 0 11.538679944245722 0 0 1 1 0 0 forward_v I I I I #
face $-1 $44 $45 $16 $-1 $46 forward single #
loop $-1 $-1 $47 $21 #
plane-surface $-1 -59.348070361625759 0 -5.6396455898643163 0 0 1 1 0 0 forward_v I I I I #
face $-1 $48 $49 $17 $-1 $50 forward single #
loop $-1 $-1 $51 $22 #
plane-surface $-1 -54.496183449164789 61.062827311208139 143.36426201135092 1 0 0 0 -0.61566148304635926 -0.78801074757464917 forward_v I I I I #
face $-1 $52 $53 $18 $-1 $54 reversed single #
loop $-1 $55 $56 $23 #
cone-surface $-1 -45.228456841764867 24.50600635176437 5.4261456140358888 0 -0.61566148304635926 -0.78801074757464917 3 0 0 1 I I 0 1 3 forward I I I I #
face $-1 $57 $58 $19 $-1 $59 reversed single #
loop $-1 $60 $61 $24 #
cone-surface $-1 -31.326866930664991 24.50600635176437 5.4261456140358888 0 -0.61566148304635926 -0.78801074757464917 3 0 0 1 I I 0 1 3 forward I I I I #
face $-1 $62 $63 $15 $-1 $64 reversed single #
loop $-1 $-1 $65 $25 #
plane-surface $-1 0 0 -11.538679944245722 0 0 1 1 0 0 forward_v I I I I #
coedge $-1 $66 $67 $68 $69 forward $26 $-1 #
face $-1 $70 $71 $16 $-1 $72 reversed single #
loop $-1 $-1 $73 $28 #
plane-surface $-1 -54.496183449164789 0 -8.5891627670550186 -1 0 0 0 0 1 forward_v I I I I #
coedge $-1 $74 $75 $76 $77 reversed $29 $-1 #
face $-1 $78 $79 $17 $-1 $80 forward single #
loop $-1 $-1 $81 $31 #
plane-surface $-1 -38.277661886214936 -17.988054502546134 42.183749359723677 0 0.61566148304635926 0.78801074757464917 1 0 0 forward_v I I I I #
coedge $-1 $82 $83 $84 $85 reversed $32 $-1 #
face $-1 $86 $87 $18 $-1 $88 forward single #
loop $-1 $89 $90 $34 #
cone-surface $-1 -45.228456841764867 21.856550083106615 2.0349963015912031 0 -0.61566148304635926 -0.78801074757464917 1.5 0 0 1 I I -0.70710678118654724 0.70710678118654768 1.5 forward I I I I #
loop $-1 $-1 $91 $23 #
coedge $-1 $56 $56 $92 $93 reversed $35 $-1 #
face $-1 $94 $95 $19 $-1 $96 reversed single #
loop $-1 $97 $98 $37 #
cone-surface $-1 -31.326866930664991 21.856550083106615 2.0349963015912031 0 -0.61566148304635926 -0.78801074757464917 1.5 0 0 1 I I -0.70710678118654724 0.70710678118654768 1.5 forward I I I I #
loop $-1 $-1 $99 $24 #
coedge $-1 $61 $61 $100 $101 reversed $38 $-1 #
face $-1 $102 $103 $15 $-1 $104 reversed single #
loop $-1 $-1 $105 $40 #
plane-surface $-1 0 -31.228095920072978 0 0 1 0 0 0 1 forward_v I I I I #
coedge $-1 $106 $107 $108 $109 forward $41 $-1 #
coedge $-1 $110 $43 $111 $112 forward $26 $-1 #
coedge $-1 $43 $110 $113 $114 forward $26 $-1 #
coedge $-1 $115 $116 $43 $69 reversed $117 $-1 #
edge $-1 $118 -31.228095920072978 $119 31.228095920072978 $68 $120 forward 7 unknown #
face $-1 $121 $122 $16 $-1 $123 reversed single #
loop $-1 $-1 $124 $44 #
plane-surface $-1 -64.199957274086728 0 0 1 0 0 0 0 -1 forward_v I I I I #
coedge $-1 $76 $125 $126 $127 reversed $45 $-1 #
coedge $-1 $128 $47 $129 $130 reversed $29 $-1 #
coedge $-1 $47 $128 $131 $132 reversed $29 $-1 #
coedge $-1 $133 $73 $47 $77 forward $45 $-1 #
edge $-1 $134 -31.228095920072978 $135 31.228095920072978 $76 $136 forward 7 unknown #
face $-1 $137 $138 $17 $-1 $139 forward single #
loop $-1 $-1 $140 $48 #
plane-surface $-1 -22.059140323265083 61.062827311208139 143.36426201135092 -1 0 0 0 0.61566148304635926 0.78801074757464917 forward_v I I I I #
coedge $-1 $141 $142 $143 $144 reversed $49 $-1 #
coedge $-1 $83 $51 $142 $145 forward $32 $-1 #
coedge $-1 $51 $82 $146 $147 reversed $32 $-1 #
coedge $-1 $148 $143 $51 $85 forward $138 $-1 #
edge $-1 $149 -9.2955687839718593 $150 0.69668226446890813 $84 $151 forward 7 unknown #
face $-1 $152 $153 $18 $-1 $154 forward single #
loop $-1 $-1 $155 $52 #
plane-surface $-1 -54.496183449164789 61.062827311208139 143.36426201135092 1 0 0 0 -0.61566148304635926 -0.78801074757464917 forward_v I I I I #
loop $-1 $-1 $156 $34 #
coedge $-1 $90 $90 $91 $157 forward $53 $-1 #
coedge $-1 $91 $91 $90 $157 reversed $55 $-1 #
coedge $-1 $92 $92 $56 $93 forward $153 $-1 #
edge $-1 $158 -1.3861218333510985e-016 $158 6.2831853071796004 $92 $159 forward 7 unknown #
face $-1 $160 $161 $19 $-1 $162 reversed single #
loop $-1 $163 $164 $57 #
cone-surface $-1 -45.228456841764867 24.50600635176437 5.4261456140358888 0 -0.61566148304635926 -0.78801074757464917 3 0 0 1 I I 0 1 3 forward I I I I #
loop $-1 $-1 $165 $37 #
coedge $-1 $98 $98 $99 $166 forward $58 $-1 #
coedge $-1 $99 $99 $98 $166 reversed $60 $-1 #
coedge $-1 $100 $100 $61 $101 forward $167 $-1 #
edge $-1 $168 -1.3861218333510985e-016 $168 6.2831853071796004 $100 $169 forward 7 unknown #
face $-1 $170 $171 $15 $-1 $172 reversed single #
loop $-1 $-1 $173 $62 #
plane-surface $-1 -64.199957274086728 0 0 1 0 0 0 0 -1 forward_v I I I I #
coedge $-1 $174 $113 $175 $176 forward $63 $-1 #
coedge $-1 $177 $65 $174 $178 forward $41 $-1 #
coedge $-1 $65 $177 $179 $180 forward $41 $-1 #
coedge $-1 $116 $115 $65 $109 reversed $117 $-1 #
edge $-1 $181 -31.228095920072978 $182 31.228095920072978 $108 $183 forward 7 unknown #
coedge $-1 $67 $66 $184 $185 forward $26 $-1 #
coedge $-1 $186 $187 $66 $112 reversed $171 $-1 #
edge $-1 $119 -64.199957274086728 $188 64.199957274086728 $111 $189 forward 7 unknown #
coedge $-1 $105 $190 $67 $114 reversed $63 $-1 #
edge $-1 $191 -64.199957274086728 $118 64.199957274086728 $113 $192 forward 7 unknown #
coedge $-1 $108 $68 $190 $193 forward $117 $-1 #
coedge $-1 $68 $108 $186 $194 reversed $117 $-1 #
loop $-1 $-1 $115 $170 #
vertex $-1 $69 $195 #
vertex $-1 $69 $196 #
straight-curve $-1 64.199957274086728 0 11.538679944245722 0 1 0 I I #
face $-1 $197 $198 $16 $-1 $199 forward single #
loop $-1 $-1 $129 $70 #
plane-surface $-1 0 -31.228095920072978 0 0 1 0 0 0 1 forward_v I I I I #
coedge $-1 $200 $201 $128 $202 forward $71 $-1 #
coedge $-1 $73 $133 $203 $204 reversed $45 $-1 #
coedge $-1 $205 $129 $73 $127 forward $122 $-1 #
edge $-1 $134 1.345064206336807 $206 7.2440985607182125 $126 $207 forward 7 unknown #
coedge $-1 $75 $74 $124 $202 reversed $29 $-1 #
coedge $-1 $126 $208 $74 $130 forward $122 $-1 #
edge $-1 $209 -34.525922093273849 $134 -24.82214826835191 $129 $210 forward 7 unknown #
coedge $-1 $211 $212 $75 $132 forward $213 $-1 #
edge $-1 $135 24.82214826835191 $214 34.525922093273849 $131 $215 forward 7 unknown #
coedge $-1 $125 $76 $212 $216 reversed $45 $-1 #
vertex $-1 $130 $217 #
vertex $-1 $132 $218 #
straight-curve $-1 -54.496183449164789 0 -5.6396455898643163 0 1 0 I I #
face $-1 $219 $220 $17 $-1 $221 reversed single #
loop $-1 $-1 $222 $78 #
plane-surface $-1 0 0 11.538679944245722 0 0 1 1 0 0 forward_v I I I I #
coedge $-1 $223 $224 $222 $225 reversed $79 $-1 #
coedge $-1 $226 $81 $224 $227 reversed $49 $-1 #
coedge $-1 $81 $226 $82 $145 reversed $49 $-1 #
coedge $-1 $84 $222 $81 $144 forward $138 $-1 #
edge $-1 $228 2.9203093801576152 $149 35.357352506057325 $143 $229 forward 7 unknown #
edge $-1 $149 49.775843153030877 $230 62.456191840145941 $82 $231 forward 7 unknown #
coedge $-1 $232 $233 $83 $147 forward $234 $-1 #
edge $-1 $150 60.143451061429737 $230 67.950253339683954 $146 $235 forward 7 unknown #
coedge $-1 $236 $84 $233 $237 forward $138 $-1 #
vertex $-1 $144 $238 #
vertex $-1 $237 $239 #
straight-curve $-1 -54.496183449164789 30.531413655604069 11.538679944245729 0 1 0 I I #
face $-1 $240 $241 $18 $-1 $242 forward single #
loop $-1 $243 $92 $86 #
plane-surface $-1 -38.277661886214936 -17.988054502546134 42.183749359723677 0 0.61566148304635926 0.78801074757464917 1 0 0 forward_v I I I I #
coedge $-1 $244 $245 $246 $247 reversed $87 $-1 #
coedge $-1 $156 $156 $-1 $248 forward $89 $-1 #
edge $-1 $249 0 $249 6.2831853071796004 $90 $250 forward 7 unknown #
vertex $-1 $93 $251 #
ellipse-curve $-1 -45.228456841764867 26.231970395852592 7.6352788051186122 0 -0.61566148304635926 -0.78801074757464917 3 0 0 1 I I #
face $-1 $252 $253 $19 $-1 $254 forward single #
loop $-1 $255 $256 $94 #
cone-surface $-1 -45.228456841764867 21.856550083106615 2.0349963015912031 0 -0.61566148304635926 -0.78801074757464917 1.5 0 0 1 I I -0.70710678118654724 0.70710678118654768 1.5 forward I I I I #
loop $-1 $-1 $257 $57 #
coedge $-1 $164 $164 $258 $259 reversed $95 $-1 #
coedge $-1 $165 $165 $-1 $260 forward $97 $-1 #
edge $-1 $261 0 $261 6.2831853071796004 $98 $262 forward 7 unknown #
loop $-1 $263 $100 $252 #
vertex $-1 $101 $264 #
ellipse-curve $-1 -31.326866930664991 26.231970395852592 7.6352788051186122 0 -0.61566148304635926 -0.78801074757464917 3 0 0 1 I I #
face $-1 $-1 $117 $15 $-1 $265 reversed single #
loop $-1 $-1 $186 $102 #
plane-surface $-1 0 31.228095920072978 0 0 -1 0 0 0 -1 forward_v I I I I #
coedge $-1 $266 $184 $187 $267 forward $103 $-1 #
coedge $-1 $190 $105 $106 $178 reversed $63 $-1 #
coedge $-1 $184 $266 $105 $176 reversed $103 $-1 #
edge $-1 $191 -11.538679944245722 $268 11.538679944245722 $175 $269 forward 7 unknown #
coedge $-1 $107 $106 $266 $270 forward $41 $-1 #
edge $-1 $182 -64.199957274086728 $268 64.199957274086728 $174 $271 forward 7 unknown #
coedge $-1 $187 $186 $107 $180 reversed $171 $-1 #
edge $-1 $272 -64.199957274086728 $181 64.199957274086728 $179 $273 forward 7 unknown #
vertex $-1 $109 $274 #
vertex $-1 $193 $275 #
straight-curve $-1 64.199957274086728 0 -11.538679944245722 0 -1 0 I I #
coedge $-1 $173 $175 $110 $185 reversed $103 $-1 #
edge $-1 $188 -31.228095920072978 $191 31.228095920072978 $184 $276 forward 7 unknown #
coedge $-1 $179 $111 $116 $194 forward $171 $-1 #
coedge $-1 $111 $179 $173 $267 reversed $171 $-1 #
vertex $-1 $112 $277 #
straight-curve $-1 0 31.228095920072978 11.538679944245722 -1 0 0 I I #
coedge $-1 $113 $174 $115 $193 reversed $63 $-1 #
vertex $-1 $185 $278 #
straight-curve $-1 0 -31.228095920072978 11.538679944245722 1 0 0 I I #
edge $-1 $118 -11.538679944245722 $182 11.538679944245722 $115 $279 forward 7 unknown #
edge $-1 $119 -11.538679944245722 $181 11.538679944245722 $116 $280 forward 7 unknown #
point $-1 64.199957274086728 -31.228095920072978 11.538679944245722 #
point $-1 64.199957274086728 31.228095920072978 11.538679944245722 #
face $-1 $281 $282 $16 $-1 $283 reversed single #
loop $-1 $-1 $284 $121 #
plane-surface $-1 0 0 11.538679944245722 0 0 1 1 0 0 forward_v I I I I #
coedge $-1 $285 $124 $208 $286 reversed $71 $-1 #
coedge $-1 $124 $285 $211 $287 forward $71 $-1 #
edge $-1 $214 -31.228095920072978 $209 31.228095920072978 $124 $288 forward 7 unknown #
coedge $-1 $289 $290 $125 $204 forward $282 $-1 #
edge $-1 $206 -31.228095920072978 $291 31.228095920072978 $203 $292 forward 7 unknown #
coedge $-1 $293 $126 $290 $294 reversed $122 $-1 #
vertex $-1 $127 $295 #
straight-curve $-1 -54.496183449164789 -31.228095920072978 -4.2945813835275093 0 0 -1 I I #
coedge $-1 $129 $296 $200 $286 forward $122 $-1 #
vertex $-1 $130 $297 #
straight-curve $-1 -29.674035180812879 -31.228095920072978 -5.6396455898643163 1 0 0 I I #
coedge $-1 $298 $131 $201 $287 reversed $213 $-1 #
coedge $-1 $131 $299 $133 $216 forward $213 $-1 #
loop $-1 $-1 $131 $281 #
vertex $-1 $202 $300 #
straight-curve $-1 -29.674035180812879 31.228095920072978 -5.6396455898643163 -1 0 0 I I #
edge $-1 $291 -7.2440985607182125 $135 -1.345064206336807 $212 $301 forward 7 unknown #
point $-1 -54.496183449164789 -31.228095920072978 -5.6396455898643163 #
point $-1 -54.496183449164789 31.228095920072978 -5.6396455898643163 #
face $-1 $302 $303 $17 $-1 $304 forward single #
loop $-1 $-1 $305 $137 #
plane-surface $-1 -59.348070361625759 0 -5.6396455898643163 0 0 1 1 0 0 forward_v I I I I #
coedge $-1 $143 $306 $140 $225 forward $138 $-1 #
coedge $-1 $224 $140 $307 $308 reversed $79 $-1 #
coedge $-1 $140 $223 $141 $227 forward $79 $-1 #
edge $-1 $309 -0.69668226446890813 $228 9.2955687839718593 $222 $310 forward 7 unknown #
coedge $-1 $142 $141 $232 $311 reversed $49 $-1 #
edge $-1 $312 -62.456191840145941 $228 -49.775843153030877 $224 $313 forward 7 unknown #
vertex $-1 $144 $314 #
straight-curve $-1 -19.138830943107468 21.23584487163221 11.538679944245718 -1 0 0 I I #
vertex $-1 $311 $315 #
straight-curve $-1 -54.496183449164789 -17.988054502546134 42.183749359723677 0 0.78801074757464917 -0.61566148304635926 I I #
coedge $-1 $307 $146 $226 $311 forward $234 $-1 #
coedge $-1 $146 $316 $148 $237 reversed $234 $-1 #
loop $-1 $-1 $307 $317 #
straight-curve $-1 -54.496183449164789 31.228095920072978 71.682131005675458 0 0 -1 I I #
coedge $-1 $318 $148 $319 $320 forward $138 $-1 #
edge $-1 $150 54.496183449164789 $321 64.199957274086728 $233 $322 forward 7 unknown #
point $-1 -54.496183449164789 21.23584487163221 11.538679944245722 #
point $-1 -54.496183449164789 31.228095920072978 11.538679944245722 #
face $-1 $323 $324 $18 $-1 $325 forward single #
loop $-1 $-1 $326 $152 #
plane-surface $-1 -22.059140323265083 61.062827311208139 143.36426201135092 -1 0 0 0 0.61566148304635926 0.78801074757464917 forward_v I I I I #
loop $-1 $-1 $327 $86 #
coedge $-1 $245 $155 $328 $329 forward $87 $-1 #
coedge $-1 $155 $244 $330 $331 reversed $87 $-1 #
coedge $-1 $332 $333 $155 $247 forward $324 $-1 #
edge $-1 $334 -9.2955687839718593 $335 0.69668226446890813 $246 $336 forward 7 unknown #
edge $-1 $337 1 $337 0 $156 $-1 forward 7 unknown #
vertex $-1 $157 $338 #
ellipse-curve $-1 -45.228456841764867 22.780042307676155 3.2170124229531778 0 0.61566148304635926 0.78801074757464917 3 0 0 1 I I #
point $-1 -42.228456841764867 26.231970395852585 7.6352788051186025 #
face $-1 $339 $167 $19 $-1 $340 forward single #
loop $-1 $-1 $341 $160 #
plane-surface $-1 -54.496183449164789 61.062827311208139 143.36426201135092 1 0 0 0 -0.61566148304635926 -0.78801074757464917 forward_v I I I I #
loop $-1 $-1 $342 $94 #
coedge $-1 $256 $256 $257 $343 forward $161 $-1 #
coedge $-1 $257 $257 $256 $343 reversed $163 $-1 #
coedge $-1 $258 $258 $164 $259 forward $263 $-1 #
edge $-1 $344 -1.3861218333510985e-016 $344 6.2831853071796004 $258 $345 forward 7 unknown #
edge $-1 $346 1 $346 0 $165 $-1 forward 7 unknown #
vertex $-1 $166 $347 #
ellipse-curve $-1 -31.326866930664991 22.780042307676155 3.2170124229531778 0 0.61566148304635926 0.78801074757464917 3 0 0 1 I I #
loop $-1 $348 $258 $252 #
point $-1 -28.326866930664991 26.231970395852585 7.6352788051186025 #
plane-surface $-1 64.199957274086728 0 0 -1 0 0 0 0 1 forward_v I I I I #
coedge $-1 $175 $173 $177 $270 reversed $103 $-1 #
edge $-1 $188 -11.538679944245722 $272 11.538679944245722 $187 $349 forward 7 unknown #
vertex $-1 $270 $350 #
straight-curve $-1 -64.199957274086728 -31.228095920072978 0 0 0 -1 I I #
edge $-1 $268 -31.228095920072978 $272 31.228095920072978 $266 $351 forward 7 unknown #
straight-curve $-1 0 -31.228095920072978 -11.538679944245722 -1 0 0 I I #
vertex $-1 $180 $352 #
straight-curve $-1 0 31.228095920072978 -11.538679944245722 1 0 0 I I #
point $-1 64.199957274086728 31.228095920072978 -11.538679944245722 #
point $-1 64.199957274086728 -31.228095920072978 -11.538679944245722 #
straight-curve $-1 -64.199957274086728 0 11.538679944245722 0 -1 0 I I #
point $-1 -64.199957274086728 31.228095920072978 11.538679944245722 #
point $-1 -64.199957274086728 -31.228095920072978 11.538679944245722 #
straight-curve $-1 64.199957274086728 -31.228095920072978 0 0 0 -1 I I #
straight-curve $-1 64.199957274086728 31.228095920072978 0 0 0 -1 I I #
face $-1 $353 $213 $16 $-1 $354 reversed single #
loop $-1 $-1 $203 $197 #
plane-surface $-1 0 0 -11.538679944245722 0 0 1 1 0 0 forward_v I I I I #
coedge $-1 $355 $356 $357 $358 forward $198 $-1 #
coedge $-1 $201 $200 $359 $360 reversed $71 $-1 #
edge $-1 $361 -11.538679944245722 $209 5.6396455898643163 $200 $362 forward 7 unknown #
edge $-1 $363 -11.538679944245722 $214 5.6396455898643163 $211 $364 forward 7 unknown #
straight-curve $-1 -64.199957274086728 0 -5.6396455898643163 0 -1 0 I I #
coedge $-1 $365 $203 $299 $366 forward $282 $-1 #
coedge $-1 $203 $365 $205 $294 forward $282 $-1 #
vertex $-1 $366 $367 #
straight-curve $-1 -54.496183449164789 0 -11.538679944245722 0 1 0 I I #
coedge $-1 $296 $205 $368 $369 reversed $122 $-1 #
edge $-1 $370 -64.199957274086728 $206 54.496183449164789 $205 $371 forward 7 unknown #
point $-1 -54.496183449164789 -31.228095920072978 -11.538679944245722 #
coedge $-1 $208 $293 $356 $372 reversed $122 $-1 #
point $-1 -64.199957274086728 -31.228095920072978 -5.6396455898643163 #
coedge $-1 $373 $211 $355 $374 reversed $213 $-1 #
coedge $-1 $212 $373 $289 $366 reversed $213 $-1 #
point $-1 -64.199957274086728 31.228095920072978 -5.6396455898643163 #
straight-curve $-1 -54.496183449164789 31.228095920072978 -4.2945813835275093 0 0 1 I I #
face $-1 $375 $376 $17 $-1 $377 reversed single #
loop $-1 $-1 $378 $219 #
plane-surface $-1 -54.496183449164789 0 -8.5891627670550186 -1 0 0 0 0 1 forward_v I I I I #
coedge $-1 $379 $380 $381 $382 reversed $220 $-1 #
coedge $-1 $222 $383 $384 $385 forward $138 $-1 #
coedge $-1 $384 $232 $223 $308 forward $234 $-1 #
edge $-1 $312 -67.950253339683954 $309 -60.143451061429737 $307 $386 forward 7 unknown #
vertex $-1 $308 $387 #
straight-curve $-1 -22.059140323265083 30.531413655604069 11.538679944245729 0 -1 0 I I #
edge $-1 $230 -35.357352506057325 $312 -2.9203093801576152 $232 $388 forward 7 unknown #
vertex $-1 $311 $389 #
straight-curve $-1 -22.059140323265083 -17.988054502546134 42.183749359723677 0 -0.78801074757464917 0.61566148304635926 I I #
point $-1 -22.059140323265083 21.23584487163221 11.538679944245722 #
point $-1 -54.496183449164789 31.228095920072974 3.7318776659915045 #
coedge $-1 $233 $390 $391 $392 reversed $234 $-1 #
face $-1 $393 $234 $17 $-1 $394 reversed single #
coedge $-1 $383 $236 $395 $396 forward $138 $-1 #
coedge $-1 $391 $397 $236 $320 reversed $376 $-1 #
edge $-1 $321 -31.228095920072978 $398 31.228095920072978 $319 $399 forward 7 unknown #
vertex $-1 $237 $400 #
straight-curve $-1 0 31.228095920072978 11.538679944245722 -1 0 0 I I #
face $-1 $401 $402 $18 $-1 $403 reversed single #
loop $-1 $-1 $404 $240 #
plane-surface $-1 0 0 11.538679944245722 0 0 1 1 0 0 forward_v I I I I #
coedge $-1 $405 $406 $404 $407 reversed $241 $-1 #
coedge $-1 $408 $328 $333 $409 reversed $243 $-1 #
coedge $-1 $327 $410 $244 $329 reversed $243 $-1 #
edge $-1 $334 49.775843153030877 $411 62.456191840145941 $244 $412 forward 7 unknown #
coedge $-1 $413 $414 $245 $331 forward $415 $-1 #
edge $-1 $335 60.143451061429737 $411 67.950253339683954 $330 $416 forward 7 unknown #
coedge $-1 $417 $246 $414 $418 forward $324 $-1 #
coedge $-1 $246 $404 $327 $409 forward $324 $-1 #
vertex $-1 $409 $419 #
vertex $-1 $418 $420 #
straight-curve $-1 -54.496183449164789 30.531413655604069 11.538679944245729 0 1 0 I I #
vertex $-1 $248 $421 #
point $-1 -42.228456841764867 22.780042307676155 3.2170124229531778 #
face $-1 $422 $423 $19 $-1 $424 forward single #
plane-surface $-1 -38.277661886214936 -17.988054502546134 42.183749359723677 0 0.61566148304635926 0.78801074757464917 1 0 0 forward_v I I I I #
coedge $-1 $425 $426 $427 $428 reversed $253 $-1 #
coedge $-1 $342 $342 $-1 $429 forward $255 $-1 #
edge $-1 $430 0 $430 6.2831853071796004 $256 $431 forward 7 unknown #
vertex $-1 $259 $432 #
ellipse-curve $-1 -45.228456841764867 26.231970395852592 7.6352788051186122 0 -0.61566148304635926 -0.78801074757464917 3 0 0 1 I I #
vertex $-1 $260 $433 #
point $-1 -28.326866930664991 22.780042307676155 3.2170124229531778 #
loop $-1 $-1 $434 $252 #
straight-curve $-1 -64.199957274086728 31.228095920072978 0 0 0 -1 I I #
point $-1 -64.199957274086728 -31.228095920072978 -11.538679944245722 #
straight-curve $-1 -64.199957274086728 0 -11.538679944245722 0 1 0 I I #
point $-1 -64.199957274086728 31.228095920072978 -11.538679944245722 #
face $-1 $-1 $435 $16 $-1 $436 reversed single #
plane-surface $-1 0 31.228095920072978 0 0 -1 0 0 0 -1 forward_v I I I I #
coedge $-1 $359 $284 $298 $374 forward $198 $-1 #
coedge $-1 $284 $359 $296 $372 forward $198 $-1 #
coedge $-1 $368 $437 $284 $358 reversed $435 $-1 #
edge $-1 $438 -31.228095920072978 $439 31.228095920072978 $357 $440 forward 7 unknown #
coedge $-1 $356 $355 $285 $360 forward $198 $-1 #
edge $-1 $363 -31.228095920072978 $361 31.228095920072978 $285 $441 forward 7 unknown #
vertex $-1 $360 $442 #
straight-curve $-1 -64.199957274086728 -31.228095920072978 0 0 0 -1 I I #
vertex $-1 $374 $443 #
straight-curve $-1 -64.199957274086728 31.228095920072978 0 0 0 -1 I I #
coedge $-1 $290 $289 $444 $445 forward $282 $-1 #
edge $-1 $291 -54.496183449164789 $446 64.199957274086728 $299 $447 forward 7 unknown #
point $-1 -54.496183449164789 31.228095920072978 -11.538679944245722 #
coedge $-1 $444 $357 $293 $369 forward $435 $-1 #
edge $-1 $438 -11.538679944245722 $370 11.538679944245722 $368 $448 forward 7 unknown #
vertex $-1 $369 $449 #
straight-curve $-1 0 -31.228095920072978 -11.538679944245722 -1 0 0 I I #
edge $-1 $361 -64.199957274086728 $438 64.199957274086728 $296 $450 forward 7 unknown #
coedge $-1 $299 $298 $437 $451 forward $213 $-1 #
edge $-1 $439 -64.199957274086728 $363 64.199957274086728 $298 $452 forward 7 unknown #
face $-1 $453 $454 $17 $-1 $455 reversed single #
loop $-1 $-1 $456 $302 #
plane-surface $-1 -64.199957274086728 0 0 1 0 0 0 0 -1 forward_v I I I I #
coedge $-1 $381 $457 $458 $459 reversed $303 $-1 #
coedge $-1 $460 $305 $461 $462 reversed $220 $-1 #
coedge $-1 $305 $460 $390 $463 reversed $220 $-1 #
coedge $-1 $464 $378 $305 $382 forward $303 $-1 #
edge $-1 $465 -31.228095920072978 $466 31.228095920072978 $381 $467 forward 7 unknown #
coedge $-1 $306 $318 $468 $469 forward $138 $-1 #
coedge $-1 $470 $307 $306 $385 reversed $234 $-1 #
edge $-1 $471 -64.199957274086728 $309 22.059140323265083 $384 $322 forward 7 unknown #
straight-curve $-1 -22.059140323265083 31.228095920072978 71.682131005675458 0 0 1 I I #
point $-1 -22.059140323265083 31.228095920072978 11.538679944245722 #
straight-curve $-1 -19.138830943107468 31.228095920072978 3.7318776659915009 1 0 0 I I #
point $-1 -22.059140323265083 31.228095920072974 3.7318776659915045 #
coedge $-1 $316 $472 $380 $463 forward $234 $-1 #
coedge $-1 $456 $319 $316 $392 forward $376 $-1 #
edge $-1 $321 -11.538679944245722 $473 5.6396455898643163 $316 $474 forward 7 unknown #
face $-1 $-1 $475 $17 $-1 $476 reversed single #
plane-surface $-1 0 31.228095920072978 0 0 -1 0 0 0 -1 forward_v I I I I #
coedge $-1 $477 $478 $318 $396 reversed $454 $-1 #
edge $-1 $398 -64.199957274086728 $479 64.199957274086728 $395 $480 forward 7 unknown #
coedge $-1 $319 $456 $477 $481 reversed $376 $-1 #
vertex $-1 $320 $482 #
straight-curve $-1 -64.199957274086728 0 11.538679944245722 0 -1 0 I I #
point $-1 -64.199957274086728 31.228095920072978 11.538679944245722 #
face $-1 $483 $484 $18 $-1 $485 forward single #
loop $-1 $-1 $486 $323 #
plane-surface $-1 -59.348070361625759 0 -5.6396455898643163 0 0 1 1 0 0 forward_v I I I I #
coedge $-1 $333 $487 $326 $407 forward $324 $-1 #
coedge $-1 $406 $326 $488 $489 reversed $241 $-1 #
coedge $-1 $326 $405 $408 $490 forward $241 $-1 #
edge $-1 $491 -0.69668226446890813 $492 9.2955687839718593 $404 $493 forward 7 unknown #
coedge $-1 $410 $327 $406 $490 reversed $243 $-1 #
edge $-1 $492 2.9203093801576152 $334 35.357352506057325 $333 $494 forward 7 unknown #
coedge $-1 $328 $408 $413 $495 reversed $243 $-1 #
vertex $-1 $495 $496 #
straight-curve $-1 -54.496183449164789 -17.988054502546134 42.183749359723677 0 0.78801074757464917 -0.61566148304635926 I I #
coedge $-1 $488 $330 $410 $495 forward $415 $-1 #
coedge $-1 $330 $497 $332 $418 reversed $415 $-1 #
loop $-1 $-1 $488 $498 #
straight-curve $-1 -54.496183449164789 31.228095920072978 71.682131005675458 0 0 -1 I I #
coedge $-1 $499 $332 $500 $501 forward $324 $-1 #
edge $-1 $335 54.496183449164789 $502 64.199957274086728 $414 $503 forward 7 unknown #
point $-1 -54.496183449164789 21.23584487163221 11.538679944245722 #
point $-1 -54.496183449164789 31.228095920072978 11.538679944245722 #
point $-1 -45.228456841764867 20.933057858537076 0.85298018022922872 #
face $-1 $504 $505 $19 $-1 $506 forward single #
loop $-1 $-1 $507 $339 #
plane-surface $-1 -22.059140323265083 61.062827311208139 143.36426201135092 -1 0 0 0 0.61566148304635926 0.78801074757464917 forward_v I I I I #
coedge $-1 $426 $341 $508 $509 forward $253 $-1 #
coedge $-1 $341 $425 $510 $511 reversed $253 $-1 #
coedge $-1 $512 $513 $341 $428 forward $505 $-1 #
edge $-1 $514 -9.2955687839718593 $515 0.69668226446890813 $427 $516 forward 7 unknown #
edge $-1 $517 1 $517 0 $342 $-1 forward 7 unknown #
vertex $-1 $343 $518 #
ellipse-curve $-1 -45.228456841764867 22.780042307676155 3.2170124229531778 0 0.61566148304635926 0.78801074757464917 3 0 0 1 I I #
point $-1 -42.228456841764867 26.231970395852585 7.6352788051186025 #
point $-1 -31.326866930664991 20.933057858537076 0.85298018022922872 #
coedge $-1 $519 $508 $513 $520 reversed $348 $-1 #
loop $-1 $-1 $368 $353 #
plane-surface $-1 64.199957274086728 0 0 -1 0 0 0 0 1 forward_v I I I I #
coedge $-1 $357 $444 $373 $451 reversed $435 $-1 #
vertex $-1 $358 $521 #
vertex $-1 $358 $522 #
straight-curve $-1 64.199957274086728 0 11.538679944245722 0 1 0 I I #
straight-curve $-1 -64.199957274086728 0 11.538679944245722 0 -1 0 I I #
point $-1 -64.199957274086728 -31.228095920072978 11.538679944245722 #
point $-1 -64.199957274086728 31.228095920072978 11.538679944245722 #
coedge $-1 $437 $368 $365 $445 reversed $435 $-1 #
edge $-1 $446 -31.228095920072978 $370 31.228095920072978 $444 $523 forward 7 unknown #
vertex $-1 $445 $524 #
straight-curve $-1 0 31.228095920072978 -11.538679944245722 1 0 0 I I #
straight-curve $-1 64.199957274086728 -31.228095920072978 0 0 0 -1 I I #
point $-1 64.199957274086728 -31.228095920072978 -11.538679944245722 #
straight-curve $-1 0 -31.228095920072978 11.538679944245722 1 0 0 I I #
edge $-1 $439 -11.538679944245722 $446 11.538679944245722 $437 $525 forward 7 unknown #
straight-curve $-1 0 31.228095920072978 11.538679944245722 -1 0 0 I I #
face $-1 $317 $526 $17 $-1 $527 reversed single #
loop $-1 $-1 $461 $375 #
plane-surface $-1 0 -31.228095920072978 0 0 1 0 0 0 1 forward_v I I I I #
coedge $-1 $397 $391 $460 $528 forward $376 $-1 #
coedge $-1 $378 $464 $529 $530 reversed $303 $-1 #
coedge $-1 $531 $461 $378 $459 forward $454 $-1 #
edge $-1 $465 1.345064206336807 $532 7.2440985607182125 $458 $533 forward 7 unknown #
coedge $-1 $380 $379 $456 $528 reversed $220 $-1 #
coedge $-1 $458 $477 $379 $462 forward $454 $-1 #
edge $-1 $534 -34.525922093273849 $465 -24.82214826835191 $461 $535 forward 7 unknown #
edge $-1 $466 24.82214826835191 $473 34.525922093273849 $390 $536 forward 7 unknown #
coedge $-1 $457 $381 $472 $537 reversed $303 $-1 #
vertex $-1 $462 $538 #
vertex $-1 $463 $539 #
straight-curve $-1 -54.496183449164789 0 -5.6396455898643163 0 1 0 I I #
coedge $-1 $540 $541 $383 $469 reversed $475 $-1 #
edge $-1 $479 -31.228095920072978 $471 31.228095920072978 $468 $542 forward 7 unknown #
coedge $-1 $543 $384 $541 $544 forward $234 $-1 #
vertex $-1 $469 $545 #
coedge $-1 $390 $543 $464 $537 forward $234 $-1 #
vertex $-1 $528 $546 #
straight-curve $-1 -64.199957274086728 31.228095920072978 0 0 0 -1 I I #
loop $-1 $-1 $540 $393 #
plane-surface $-1 64.199957274086728 0 0 -1 0 0 0 0 1 forward_v I I I I #
coedge $-1 $461 $395 $397 $481 forward $454 $-1 #
coedge $-1 $395 $531 $540 $547 reversed $454 $-1 #
vertex $-1 $469 $548 #
straight-curve $-1 0 -31.228095920072978 11.538679944245722 1 0 0 I I #
edge $-1 $398 -11.538679944245722 $534 5.6396455898643163 $397 $549 forward 7 unknown #
point $-1 -64.199957274086728 -31.228095920072978 11.538679944245722 #
face $-1 $550 $551 $18 $-1 $552 reversed single #
loop $-1 $-1 $553 $401 #
plane-surface $-1 -54.496183449164789 0 -8.5891627670550186 -1 0 0 0 0 1 forward_v I I I I #
coedge $-1 $554 $555 $556 $557 reversed $402 $-1 #
coedge $-1 $404 $558 $559 $560 forward $324 $-1 #
coedge $-1 $559 $413 $405 $489 forward $415 $-1 #
edge $-1 $561 -67.950253339683954 $491 -60.143451061429737 $488 $562 forward 7 unknown #
edge $-1 $561 -62.456191840145941 $492 -49.775843153030877 $406 $563 forward 7 unknown #
vertex $-1 $489 $564 #
vertex $-1 $409 $565 #
straight-curve $-1 -22.059140323265083 30.531413655604069 11.538679944245729 0 -1 0 I I #
straight-curve $-1 -19.138830943107468 21.23584487163221 11.538679944245718 -1 0 0 I I #
edge $-1 $411 -35.357352506057325 $561 -2.9203093801576152 $413 $566 forward 7 unknown #
point $-1 -54.496183449164789 31.228095920072974 3.7318776659915045 #
coedge $-1 $414 $567 $568 $569 reversed $415 $-1 #
face $-1 $570 $415 $18 $-1 $571 reversed single #
coedge $-1 $558 $417 $572 $573 forward $324 $-1 #
coedge $-1 $568 $574 $417 $501 reversed $551 $-1 #
edge $-1 $502 -31.228095920072978 $575 31.228095920072978 $500 $576 forward 7 unknown #
vertex $-1 $418 $577 #
straight-curve $-1 0 31.228095920072978 11.538679944245722 -1 0 0 I I #
face $-1 $578 $579 $19 $-1 $580 reversed single #
loop $-1 $-1 $581 $422 #
plane-surface $-1 0 0 11.538679944245722 0 0 1 1 0 0 forward_v I I I I #
coedge $-1 $582 $583 $581 $584 reversed $423 $-1 #
coedge $-1 $434 $585 $425 $509 reversed $348 $-1 #
edge $-1 $514 49.775843153030877 $586 62.456191840145941 $425 $587 forward 7 unknown #
coedge $-1 $588 $589 $426 $511 forward $590 $-1 #
edge $-1 $515 60.143451061429737 $586 67.950253339683954 $510 $591 forward 7 unknown #
coedge $-1 $592 $427 $589 $593 forward $505 $-1 #
coedge $-1 $427 $581 $434 $520 forward $505 $-1 #
vertex $-1 $520 $594 #
vertex $-1 $593 $595 #
straight-curve $-1 -54.496183449164789 30.531413655604069 11.538679944245729 0 1 0 I I #
vertex $-1 $429 $596 #
point $-1 -42.228456841764867 22.780042307676155 3.2170124229531778 #
coedge $-1 $585 $434 $583 $597 reversed $348 $-1 #
edge $-1 $598 2.9203093801576152 $514 35.357352506057325 $513 $599 forward 7 unknown #
point $-1 64.199957274086728 -31.228095920072978 11.538679944245722 #
point $-1 64.199957274086728 31.228095920072978 11.538679944245722 #
straight-curve $-1 64.199957274086728 0 -11.538679944245722 0 -1 0 I I #
point $-1 64.199957274086728 31.228095920072978 -11.538679944245722 #
straight-curve $-1 64.199957274086728 31.228095920072978 0 0 0 -1 I I #
loop $-1 $-1 $529 $453 #
plane-surface $-1 0 0 -11.538679944245722 0 0 1 1 0 0 forward_v I I I I #
edge $-1 $473 -31.228095920072978 $534 31.228095920072978 $456 $600 forward 7 unknown #
coedge $-1 $601 $602 $457 $530 forward $526 $-1 #
edge $-1 $532 -31.228095920072978 $603 31.228095920072978 $529 $604 forward 7 unknown #
coedge $-1 $478 $458 $602 $605 reversed $454 $-1 #
vertex $-1 $459 $606 #
straight-curve $-1 -54.496183449164789 -31.228095920072978 -4.2945813835275093 0 0 -1 I I #
vertex $-1 $462 $607 #
straight-curve $-1 -29.674035180812879 -31.228095920072978 -5.6396455898643163 1 0 0 I I #
straight-curve $-1 -29.674035180812879 31.228095920072978 -5.6396455898643163 -1 0 0 I I #
edge $-1 $603 -7.2440985607182125 $466 -1.345064206336807 $472 $608 forward 7 unknown #
point $-1 -54.496183449164789 -31.228095920072978 -5.6396455898643163 #
point $-1 -54.496183449164789 31.228095920072978 -5.6396455898643163 #
coedge $-1 $609 $468 $478 $547 forward $475 $-1 #
coedge $-1 $468 $609 $470 $544 reversed $475 $-1 #
straight-curve $-1 64.199957274086728 0 11.538679944245722 0 1 0 I I #
coedge $-1 $472 $470 $601 $610 reversed $234 $-1 #
edge $-1 $471 -11.538679944245722 $611 11.538679944245722 $541 $612 forward 7 unknown #
point $-1 64.199957274086728 31.228095920072978 11.538679944245722 #
point $-1 -64.199957274086728 31.228095920072978 -5.6396455898643163 #
edge $-1 $479 -11.538679944245722 $613 11.538679944245722 $540 $614 forward 7 unknown #
point $-1 64.199957274086728 -31.228095920072978 11.538679944245722 #
straight-curve $-1 -64.199957274086728 -31.228095920072978 0 0 0 -1 I I #
face $-1 $615 $616 $18 $-1 $617 reversed single #
loop $-1 $-1 $618 $483 #
plane-surface $-1 -64.199957274086728 0 0 1 0 0 0 0 -1 forward_v I I I I #
coedge $-1 $556 $619 $620 $621 reversed $484 $-1 #
coedge $-1 $622 $486 $623 $624 reversed $402 $-1 #
coedge $-1 $486 $622 $567 $625 reversed $402 $-1 #
coedge $-1 $626 $553 $486 $557 forward $484 $-1 #
edge $-1 $627 -31.228095920072978 $628 31.228095920072978 $556 $629 forward 7 unknown #
coedge $-1 $487 $499 $630 $631 forward $324 $-1 #
coedge $-1 $632 $488 $487 $560 reversed $415 $-1 #
edge $-1 $633 -64.199957274086728 $491 22.059140323265083 $559 $503 forward 7 unknown #
vertex $-1 $495 $634 #
straight-curve $-1 -22.059140323265083 31.228095920072978 71.682131005675458 0 0 1 I I #
straight-curve $-1 -22.059140323265083 -17.988054502546134 42.183749359723677 0 -0.78801074757464917 0.61566148304635926 I I #
point $-1 -22.059140323265083 31.228095920072978 11.538679944245722 #
point $-1 -22.059140323265083 21.23584487163221 11.538679944245722 #
straight-curve $-1 -19.138830943107468 31.228095920072978 3.7318776659915009 1 0 0 I I #
coedge $-1 $497 $635 $555 $625 forward $415 $-1 #
coedge $-1 $618 $500 $497 $569 forward $551 $-1 #
edge $-1 $502 -11.538679944245722 $636 5.6396455898643163 $497 $637 forward 7 unknown #
face $-1 $-1 $638 $18 $-1 $639 reversed single #
plane-surface $-1 0 31.228095920072978 0 0 -1 0 0 0 -1 forward_v I I I I #
coedge $-1 $640 $641 $499 $573 reversed $616 $-1 #
edge $-1 $575 -64.199957274086728 $642 64.199957274086728 $572 $643 forward 7 unknown #
coedge $-1 $500 $618 $640 $644 reversed $551 $-1 #
vertex $-1 $501 $645 #
straight-curve $-1 -64.199957274086728 0 11.538679944245722 0 -1 0 I I #
point $-1 -64.199957274086728 31.228095920072978 11.538679944245722 #
face $-1 $646 $647 $19 $-1 $648 forward single #
loop $-1 $-1 $649 $504 #
plane-surface $-1 -59.348070361625759 0 -5.6396455898643163 0 0 1 1 0 0 forward_v I I I I #
coedge $-1 $513 $650 $507 $584 forward $505 $-1 #
coedge $-1 $583 $507 $651 $652 reversed $423 $-1 #
coedge $-1 $507 $582 $519 $597 forward $423 $-1 #
edge $-1 $653 -0.69668226446890813 $598 9.2955687839718593 $581 $654 forward 7 unknown #
coedge $-1 $508 $519 $588 $655 reversed $348 $-1 #
vertex $-1 $655 $656 #
straight-curve $-1 -54.496183449164789 -17.988054502546134 42.183749359723677 0 0.78801074757464917 -0.61566148304635926 I I #
coedge $-1 $651 $510 $585 $655 forward $590 $-1 #
coedge $-1 $510 $657 $512 $593 reversed $590 $-1 #
loop $-1 $-1 $651 $658 #
straight-curve $-1 -54.496183449164789 31.228095920072978 71.682131005675458 0 0 -1 I I #
coedge $-1 $659 $512 $660 $661 forward $505 $-1 #
edge $-1 $515 54.496183449164789 $662 64.199957274086728 $589 $663 forward 7 unknown #
point $-1 -54.496183449164789 21.23584487163221 11.538679944245722 #
point $-1 -54.496183449164789 31.228095920072978 11.538679944245722 #
point $-1 -45.228456841764867 20.933057858537076 0.85298018022922872 #
edge $-1 $664 -62.456191840145941 $598 -49.775843153030877 $583 $665 forward 7 unknown #
vertex $-1 $520 $666 #
straight-curve $-1 -19.138830943107468 21.23584487163221 11.538679944245718 -1 0 0 I I #
straight-curve $-1 -64.199957274086728 0 -5.6396455898643163 0 -1 0 I I #
coedge $-1 $667 $529 $543 $610 forward $526 $-1 #
coedge $-1 $529 $667 $531 $605 forward $526 $-1 #
vertex $-1 $610 $668 #
straight-curve $-1 -54.496183449164789 0 -11.538679944245722 0 1 0 I I #
edge $-1 $613 -64.199957274086728 $532 54.496183449164789 $531 $669 forward 7 unknown #
point $-1 -54.496183449164789 -31.228095920072978 -11.538679944245722 #
point $-1 -64.199957274086728 -31.228095920072978 -5.6396455898643163 #
straight-curve $-1 -54.496183449164789 31.228095920072978 -4.2945813835275093 0 0 1 I I #
coedge $-1 $541 $540 $667 $670 reversed $475 $-1 #
edge $-1 $603 -54.496183449164789 $611 64.199957274086728 $543 $671 forward 7 unknown #
vertex $-1 $670 $672 #
straight-curve $-1 64.199957274086728 31.228095920072978 0 0 0 -1 I I #
vertex $-1 $547 $673 #
straight-curve $-1 64.199957274086728 -31.228095920072978 0 0 0 -1 I I #
face $-1 $498 $674 $18 $-1 $675 reversed single #
loop $-1 $-1 $623 $550 #
plane-surface $-1 0 -31.228095920072978 0 0 1 0 0 0 1 forward_v I I I I #
coedge $-1 $574 $568 $622 $676 forward $551 $-1 #
coedge $-1 $553 $626 $677 $678 reversed $484 $-1 #
coedge $-1 $679 $623 $553 $621 forward $616 $-1 #
edge $-1 $627 1.345064206336807 $680 7.2440985607182125 $620 $681 forward 7 unknown #
coedge $-1 $555 $554 $618 $676 reversed $402 $-1 #
coedge $-1 $620 $640 $554 $624 forward $616 $-1 #
edge $-1 $682 -34.525922093273849 $627 -24.82214826835191 $623 $683 forward 7 unknown #
edge $-1 $628 24.82214826835191 $636 34.525922093273849 $567 $684 forward 7 unknown #
coedge $-1 $619 $556 $635 $685 reversed $484 $-1 #
vertex $-1 $624 $686 #
vertex $-1 $625 $687 #
straight-curve $-1 -54.496183449164789 0 -5.6396455898643163 0 1 0 I I #
coedge $-1 $688 $689 $558 $631 reversed $638 $-1 #
edge $-1 $642 -31.228095920072978 $633 31.228095920072978 $630 $690 forward 7 unknown #
coedge $-1 $691 $559 $689 $692 forward $415 $-1 #
vertex $-1 $631 $693 #
point $-1 -22.059140323265083 31.228095920072974 3.7318776659915045 #
coedge $-1 $567 $691 $626 $685 forward $415 $-1 #
vertex $-1 $676 $694 #
straight-curve $-1 -64.199957274086728 31.228095920072978 0 0 0 -1 I I #
loop $-1 $-1 $688 $570 #
plane-surface $-1 64.199957274086728 0 0 -1 0 0 0 0 1 forward_v I I I I #
coedge $-1 $623 $572 $574 $644 forward $616 $-1 #
coedge $-1 $572 $679 $688 $695 reversed $616 $-1 #
vertex $-1 $631 $696 #
straight-curve $-1 0 -31.228095920072978 11.538679944245722 1 0 0 I I #
edge $-1 $575 -11.538679944245722 $682 5.6396455898643163 $574 $697 forward 7 unknown #
point $-1 -64.199957274086728 -31.228095920072978 11.538679944245722 #
face $-1 $698 $699 $19 $-1 $700 reversed single #
loop $-1 $-1 $701 $578 #
plane-surface $-1 -54.496183449164789 0 -8.5891627670550186 -1 0 0 0 0 1 forward_v I I I I #
coedge $-1 $702 $703 $704 $705 reversed $579 $-1 #
coedge $-1 $581 $706 $707 $708 forward $505 $-1 #
coedge $-1 $707 $588 $582 $652 forward $590 $-1 #
edge $-1 $664 -67.950253339683954 $653 -60.143451061429737 $651 $709 forward 7 unknown #
vertex $-1 $652 $710 #
straight-curve $-1 -22.059140323265083 30.531413655604069 11.538679944245729 0 -1 0 I I #
edge $-1 $586 -35.357352506057325 $664 -2.9203093801576152 $588 $711 forward 7 unknown #
point $-1 -54.496183449164789 31.228095920072974 3.7318776659915045 #
coedge $-1 $589 $712 $713 $714 reversed $590 $-1 #
face $-1 $715 $590 $19 $-1 $716 reversed single #
coedge $-1 $706 $592 $717 $718 forward $505 $-1 #
coedge $-1 $713 $719 $592 $661 reversed $699 $-1 #
edge $-1 $662 -31.228095920072978 $720 31.228095920072978 $660 $721 forward 7 unknown #
vertex $-1 $593 $722 #
straight-curve $-1 0 31.228095920072978 11.538679944245722 -1 0 0 I I #
vertex $-1 $655 $723 #
straight-curve $-1 -22.059140323265083 -17.988054502546134 42.183749359723677 0 -0.78801074757464917 0.61566148304635926 I I #
point $-1 -22.059140323265083 21.23584487163221 11.538679944245722 #
coedge $-1 $602 $601 $609 $670 forward $526 $-1 #
point $-1 -54.496183449164789 31.228095920072978 -11.538679944245722 #
straight-curve $-1 0 -31.228095920072978 -11.538679944245722 -1 0 0 I I #
edge $-1 $611 -31.228095920072978 $613 31.228095920072978 $609 $724 forward 7 unknown #
straight-curve $-1 0 31.228095920072978 -11.538679944245722 1 0 0 I I #
point $-1 64.199957274086728 31.228095920072978 -11.538679944245722 #
point $-1 64.199957274086728 -31.228095920072978 -11.538679944245722 #
loop $-1 $-1 $677 $615 #
plane-surface $-1 0 0 -11.538679944245722 0 0 1 1 0 0 forward_v I I I I #
edge $-1 $636 -31.228095920072978 $682 31.228095920072978 $618 $725 forward 7 unknown #
coedge $-1 $726 $727 $619 $678 forward $674 $-1 #
edge $-1 $680 -31.228095920072978 $728 31.228095920072978 $677 $729 forward 7 unknown #
coedge $-1 $641 $620 $727 $730 reversed $616 $-1 #
vertex $-1 $621 $731 #
straight-curve $-1 -54.496183449164789 -31.228095920072978 -4.2945813835275093 0 0 -1 I I #
vertex $-1 $624 $732 #
straight-curve $-1 -29.674035180812879 -31.228095920072978 -5.6396455898643163 1 0 0 I I #
straight-curve $-1 -29.674035180812879 31.228095920072978 -5.6396455898643163 -1 0 0 I I #
edge $-1 $728 -7.2440985607182125 $628 -1.345064206336807 $635 $733 forward 7 unknown #
point $-1 -54.496183449164789 -31.228095920072978 -5.6396455898643163 #
point $-1 -54.496183449164789 31.228095920072978 -5.6396455898643163 #
coedge $-1 $734 $630 $641 $695 forward $638 $-1 #
coedge $-1 $630 $734 $632 $692 reversed $638 $-1 #
straight-curve $-1 64.199957274086728 0 11.538679944245722 0 1 0 I I #
coedge $-1 $635 $632 $726 $735 reversed $415 $-1 #
edge $-1 $633 -11.538679944245722 $736 11.538679944245722 $689 $737 forward 7 unknown #
point $-1 64.199957274086728 31.228095920072978 11.538679944245722 #
point $-1 -64.199957274086728 31.228095920072978 -5.6396455898643163 #
edge $-1 $642 -11.538679944245722 $738 11.538679944245722 $688 $739 forward 7 unknown #
point $-1 64.199957274086728 -31.228095920072978 11.538679944245722 #
straight-curve $-1 -64.199957274086728 -31.228095920072978 0 0 0 -1 I I #
face $-1 $740 $741 $19 $-1 $742 reversed single #
loop $-1 $-1 $743 $646 #
plane-surface $-1 -64.199957274086728 0 0 1 0 0 0 0 -1 forward_v I I I I #
coedge $-1 $704 $744 $745 $746 reversed $647 $-1 #
coedge $-1 $747 $649 $748 $749 reversed $579 $-1 #
coedge $-1 $649 $747 $712 $750 reversed $579 $-1 #
coedge $-1 $751 $701 $649 $705 forward $647 $-1 #
edge $-1 $752 -31.228095920072978 $753 31.228095920072978 $704 $754 forward 7 unknown #
coedge $-1 $650 $659 $755 $756 forward $505 $-1 #
coedge $-1 $757 $651 $650 $708 reversed $590 $-1 #
edge $-1 $758 -64.199957274086728 $653 22.059140323265083 $707 $663 forward 7 unknown #
straight-curve $-1 -22.059140323265083 31.228095920072978 71.682131005675458 0 0 1 I I #
point $-1 -22.059140323265083 31.228095920072978 11.538679944245722 #
straight-curve $-1 -19.138830943107468 31.228095920072978 3.7318776659915009 1 0 0 I I #
coedge $-1 $657 $759 $703 $750 forward $590 $-1 #
coedge $-1 $743 $660 $657 $714 forward $699 $-1 #
edge $-1 $662 -11.538679944245722 $760 5.6396455898643163 $657 $761 forward 7 unknown #
face $-1 $-1 $762 $19 $-1 $763 reversed single #
plane-surface $-1 0 31.228095920072978 0 0 -1 0 0 0 -1 forward_v I I I I #
coedge $-1 $764 $765 $659 $718 reversed $741 $-1 #
edge $-1 $720 -64.199957274086728 $766 64.199957274086728 $717 $767 forward 7 unknown #
coedge $-1 $660 $743 $764 $768 reversed $699 $-1 #
vertex $-1 $661 $769 #
straight-curve $-1 -64.199957274086728 0 11.538679944245722 0 -1 0 I I #
point $-1 -64.199957274086728 31.228095920072978 11.538679944245722 #
point $-1 -22.059140323265083 31.228095920072974 3.7318776659915045 #
straight-curve $-1 64.199957274086728 0 -11.538679944245722 0 -1 0 I I #
straight-curve $-1 -64.199957274086728 0 -5.6396455898643163 0 -1 0 I I #
coedge $-1 $770 $677 $691 $735 forward $674 $-1 #
coedge $-1 $677 $770 $679 $730 forward $674 $-1 #
vertex $-1 $735 $771 #
straight-curve $-1 -54.496183449164789 0 -11.538679944245722 0 1 0 I I #
edge $-1 $738 -64.199957274086728 $680 54.496183449164789 $679 $772 forward 7 unknown #
point $-1 -54.496183449164789 -31.228095920072978 -11.538679944245722 #
point $-1 -64.199957274086728 -31.228095920072978 -5.6396455898643163 #
straight-curve $-1 -54.496183449164789 31.228095920072978 -4.2945813835275093 0 0 1 I I #
coedge $-1 $689 $688 $770 $773 reversed $638 $-1 #
edge $-1 $728 -54.496183449164789 $736 64.199957274086728 $691 $774 forward 7 unknown #
vertex $-1 $773 $775 #
straight-curve $-1 64.199957274086728 31.228095920072978 0 0 0 -1 I I #
vertex $-1 $695 $776 #
straight-curve $-1 64.199957274086728 -31.228095920072978 0 0 0 -1 I I #
face $-1 $658 $777 $19 $-1 $778 reversed single #
loop $-1 $-1 $748 $698 #
plane-surface $-1 0 -31.228095920072978 0 0 1 0 0 0 1 forward_v I I I I #
coedge $-1 $719 $713 $747 $779 forward $699 $-1 #
coedge $-1 $701 $751 $780 $781 reversed $647 $-1 #
coedge $-1 $782 $748 $701 $746 forward $741 $-1 #
edge $-1 $752 1.345064206336807 $783 7.2440985607182125 $745 $784 forward 7 unknown #
coedge $-1 $703 $702 $743 $779 reversed $579 $-1 #
coedge $-1 $745 $764 $702 $749 forward $741 $-1 #
edge $-1 $785 -34.525922093273849 $752 -24.82214826835191 $748 $786 forward 7 unknown #
edge $-1 $753 24.82214826835191 $760 34.525922093273849 $712 $787 forward 7 unknown #
coedge $-1 $744 $704 $759 $788 reversed $647 $-1 #
vertex $-1 $749 $789 #
vertex $-1 $750 $790 #
straight-curve $-1 -54.496183449164789 0 -5.6396455898643163 0 1 0 I I #
coedge $-1 $791 $792 $706 $756 reversed $762 $-1 #
edge $-1 $766 -31.228095920072978 $758 31.228095920072978 $755 $793 forward 7 unknown #
coedge $-1 $794 $707 $792 $795 forward $590 $-1 #
vertex $-1 $756 $796 #
coedge $-1 $712 $794 $751 $788 forward $590 $-1 #
vertex $-1 $779 $797 #
straight-curve $-1 -64.199957274086728 31.228095920072978 0 0 0 -1 I I #
loop $-1 $-1 $791 $715 #
plane-surface $-1 64.199957274086728 0 0 -1 0 0 0 0 1 forward_v I I I I #
coedge $-1 $748 $717 $719 $768 forward $741 $-1 #
coedge $-1 $717 $782 $791 $798 reversed $741 $-1 #
vertex $-1 $756 $799 #
straight-curve $-1 0 -31.228095920072978 11.538679944245722 1 0 0 I I #
edge $-1 $720 -11.538679944245722 $785 5.6396455898643163 $719 $800 forward 7 unknown #
point $-1 -64.199957274086728 -31.228095920072978 11.538679944245722 #
coedge $-1 $727 $726 $734 $773 forward $674 $-1 #
point $-1 -54.496183449164789 31.228095920072978 -11.538679944245722 #
straight-curve $-1 0 -31.228095920072978 -11.538679944245722 -1 0 0 I I #
edge $-1 $736 -31.228095920072978 $738 31.228095920072978 $734 $801 forward 7 unknown #
straight-curve $-1 0 31.228095920072978 -11.538679944245722 1 0 0 I I #
point $-1 64.199957274086728 31.228095920072978 -11.538679944245722 #
point $-1 64.199957274086728 -31.228095920072978 -11.538679944245722 #
loop $-1 $-1 $780 $740 #
plane-surface $-1 0 0 -11.538679944245722 0 0 1 1 0 0 forward_v I I I I #
edge $-1 $760 -31.228095920072978 $785 31.228095920072978 $743 $802 forward 7 unknown #
coedge $-1 $803 $804 $744 $781 forward $777 $-1 #
edge $-1 $783 -31.228095920072978 $805 31.228095920072978 $780 $806 forward 7 unknown #
coedge $-1 $765 $745 $804 $807 reversed $741 $-1 #
vertex $-1 $746 $808 #
straight-curve $-1 -54.496183449164789 -31.228095920072978 -4.2945813835275093 0 0 -1 I I #
vertex $-1 $749 $809 #
straight-curve $-1 -29.674035180812879 -31.228095920072978 -5.6396455898643163 1 0 0 I I #
straight-curve $-1 -29.674035180812879 31.228095920072978 -5.6396455898643163 -1 0 0 I I #
edge $-1 $805 -7.2440985607182125 $753 -1.345064206336807 $759 $810 forward 7 unknown #
point $-1 -54.496183449164789 -31.228095920072978 -5.6396455898643163 #
point $-1 -54.496183449164789 31.228095920072978 -5.6396455898643163 #
coedge $-1 $811 $755 $765 $798 forward $762 $-1 #
coedge $-1 $755 $811 $757 $795 reversed $762 $-1 #
straight-curve $-1 64.199957274086728 0 11.538679944245722 0 1 0 I I #
coedge $-1 $759 $757 $803 $812 reversed $590 $-1 #
edge $-1 $758 -11.538679944245722 $813 11.538679944245722 $792 $814 forward 7 unknown #
point $-1 64.199957274086728 31.228095920072978 11.538679944245722 #
point $-1 -64.199957274086728 31.228095920072978 -5.6396455898643163 #
edge $-1 $766 -11.538679944245722 $815 11.538679944245722 $791 $816 forward 7 unknown #
point $-1 64.199957274086728 -31.228095920072978 11.538679944245722 #
straight-curve $-1 -64.199957274086728 -31.228095920072978 0 0 0 -1 I I #
straight-curve $-1 64.199957274086728 0 -11.538679944245722 0 -1 0 I I #
straight-curve $-1 -64.199957274086728 0 -5.6396455898643163 0 -1 0 I I #
coedge $-1 $817 $780 $794 $812 forward $777 $-1 #
coedge $-1 $780 $817 $782 $807 forward $777 $-1 #
vertex $-1 $812 $818 #
straight-curve $-1 -54.496183449164789 0 -11.538679944245722 0 1 0 I I #
edge $-1 $815 -64.199957274086728 $783 54.496183449164789 $782 $819 forward 7 unknown #
point $-1 -54.496183449164789 -31.228095920072978 -11.538679944245722 #
point $-1 -64.199957274086728 -31.228095920072978 -5.6396455898643163 #
straight-curve $-1 -54.496183449164789 31.228095920072978 -4.2945813835275093 0 0 1 I I #
coedge $-1 $792 $791 $817 $820 reversed $762 $-1 #
edge $-1 $805 -54.496183449164789 $813 64.199957274086728 $794 $821 forward 7 unknown #
vertex $-1 $820 $822 #
straight-curve $-1 64.199957274086728 31.228095920072978 0 0 0 -1 I I #
vertex $-1 $798 $823 #
straight-curve $-1 64.199957274086728 -31.228095920072978 0 0 0 -1 I I #
coedge $-1 $804 $803 $811 $820 forward $777 $-1 #
point $-1 -54.496183449164789 31.228095920072978 -11.538679944245722 #
straight-curve $-1 0 -31.228095920072978 -11.538679944245722 -1 0 0 I I #
edge $-1 $813 -31.228095920072978 $815 31.228095920072978 $811 $824 forward 7 unknown #
straight-curve $-1 0 31.228095920072978 -11.538679944245722 1 0 0 I I #
point $-1 64.199957274086728 31.228095920072978 -11.538679944245722 #
point $-1 64.199957274086728 -31.228095920072978 -11.538679944245722 #
straight-curve $-1 64.199957274086728 0 -11.538679944245722 0 -1 0 I I #
End-of-ACIS-data 