500 0 9 0           
7 Unknown 11 ACIS 5.0 NT 24 Fri Mar 26 17:34:50 1999 
-1 9.9999999999999995e-007 1e-010 
body $-1 $9 $-1 $10 #
body $-1 $11 $-1 $12 #
body $-1 $13 $-1 $14 #
body $-1 $15 $-1 $16 #
body $-1 $17 $-1 $18 #
body $-1 $19 $-1 $20 #
body $-1 $21 $-1 $22 #
body $-1 $23 $-1 $24 #
body $-1 $25 $-1 $26 #
lump $-1 $-1 $27 $0 #
transform $-1 1 0 0 0 1 0 0 0 1 46.812952055421611 25.108726229866473 5.8897882487868802 1 rotate no_reflect no_shear #
lump $-1 $-1 $28 $1 #
transform $-1 1 0 0 0 1 0 0 0 1 46.812952055421611 25.108726229866473 5.8897882487868802 1 rotate no_reflect no_shear #
lump $-1 $-1 $29 $2 #
transform $-1 1 0 0 0 1 0 0 0 1 46.812952055421611 25.108726229866473 5.8897882487868802 1 rotate no_reflect no_shear #
lump $-1 $-1 $30 $3 #
transform $-1 1 0 0 0 1 0 0 0 1 46.812952055421611 25.108726229866473 5.8897882487868802 1 rotate no_reflect no_shear #
lump $-1 $-1 $31 $4 #
transform $-1 1 0 0 0 1 0 0 0 1 46.812952055421611 25.108726229866473 5.8897882487868802 1 rotate no_reflect no_shear #
lump $-1 $-1 $32 $5 #
transform $-1 1 0 0 0 1 0 0 0 1 46.812952055421611 25.108726229866473 5.8897882487868802 1 rotate no_reflect no_shear #
lump $-1 $-1 $33 $6 #
transform $-1 1 0 0 0 1 0 0 0 1 46.812952055421611 25.108726229866473 5.8897882487868802 1 rotate no_reflect no_shear #
lump $-1 $-1 $34 $7 #
transform $-1 1 0 0 0 1 0 0 0 1 46.812952055421611 25.108726229866473 5.8897882487868802 1 rotate no_reflect no_shear #
lump $-1 $-1 $35 $8 #
transform $-1 1 0 0 0 1 0 0 0 1 46.812952055421611 25.108726229866473 5.8897882487868802 1 rotate no_reflect no_shear #
shell $-1 $-1 $-1 $36 $-1 $9 #
shell $-1 $-1 $-1 $37 $-1 $11 #
shell $-1 $-1 $-1 $38 $-1 $13 #
shell $-1 $-1 $-1 $39 $-1 $15 #
shell $-1 $-1 $-1 $40 $-1 $17 #
shell $-1 $-1 $-1 $41 $-1 $19 #
shell $-1 $-1 $-1 $42 $-1 $21 #
shell $-1 $-1 $-1 $43 $-1 $23 #
shell $-1 $-1 $-1 $44 $-1 $25 #
face $-1 $45 $46 $27 $-1 $47 forward single #
face $-1 $48 $49 $28 $-1 $50 reversed single #
face $-1 $51 $52 $29 $-1 $53 reversed single #
face $-1 $54 $55 $30 $-1 $56 forward single #
face $-1 $57 $58 $31 $-1 $59 reversed single #
face $-1 $60 $61 $32 $-1 $62 forward single #
face $-1 $63 $64 $33 $-1 $65 reversed single #
face $-1 $66 $67 $34 $-1 $68 forward single #
face $-1 $69 $70 $35 $-1 $71 forward single #
face $-1 $72 $73 $27 $-1 $74 reversed single #
loop $-1 $-1 $75 $36 #
plane-surface $-1 0 0 5.8897882487868802 0 0 1 1 0 0 forward_v I I I I #
face $-1 $76 $77 $28 $-1 $78 reversed single #
loop $-1 $-1 $79 $37 #
plane-surface $-1 -44.617166665856331 -17.777095268743672 0 0 1 0 0 0 1 forward_v I I I I #
face $-1 $80 $81 $29 $-1 $82 reversed single #
loop $-1 $-1 $83 $38 #
plane-surface $-1 -27.947836441862648 -85.290298077708627 74.559093330391079 -1 0 0 0 -0.64278761758704617 0.76604443648966558 forward_v I I I I #
face $-1 $84 $85 $30 $-1 $86 forward single #
loop $-1 $87 $88 $39 #
cone-surface $-1 -33.104402809354269 -22.656737845855577 3.609026978704823 0 0.64278761758704617 -0.76604443648966558 0.5 0 0 1 I I 0 1 0.5 forward I I I I #
face $-1 $89 $90 $31 $-1 $91 reversed single #
loop $-1 $-1 $92 $40 #
plane-surface $-1 16.669330223993683 -85.290298077708627 74.559093330391079 -1 0 0 0 -0.64278761758704617 0.76604443648966558 forward_v I I I I #
face $-1 $93 $94 $32 $-1 $95 forward single #
loop $-1 $96 $97 $41 #
cone-surface $-1 11.512763856502062 -22.656737845855577 3.609026978704823 0 0.64278761758704617 -0.76604443648966558 0.5 0 0 1 I I 0 1 0.5 forward I I I I #
face $-1 $98 $99 $33 $-1 $100 reversed single #
loop $-1 $-1 $101 $42 #
plane-surface $-1 28.424965908107026 62.823481175073908 99.732569979907566 1 0 0 0 -0.75470958851134928 -0.65605901945558964 forward_v I I I I #
face $-1 $102 $103 $34 $-1 $104 forward single #
loop $-1 $105 $106 $43 #
cone-surface $-1 33.67867623591119 22.077682288331271 2.5853351373379705 0 -0.75470958851134928 -0.65605901945558964 1.5 0 0 1 I I 0 1 1.5 forward I I I I #
face $-1 $107 $108 $35 $-1 $109 forward single #
loop $-1 $110 $111 $44 #
cone-surface $-1 41.55924172761744 22.077682288331271 2.5853351373379705 0 -0.75470958851134928 -0.65605901945558964 1.5 0 0 1 I I 0 1 1.5 forward I I I I #
face $-1 $112 $113 $27 $-1 $114 reversed single #
loop $-1 $-1 $115 $45 #
plane-surface $-1 0 0 -5.8897882487868802 0 0 1 1 0 0 forward_v I I I I #
coedge $-1 $116 $117 $118 $119 forward $46 $-1 #
face $-1 $120 $121 $28 $-1 $122 reversed single #
loop $-1 $-1 $123 $48 #
plane-surface $-1 -44.617166665856331 -14.777095268743672 0 0 -1 0 0 0 -1 forward_v I I I I #
coedge $-1 $124 $125 $126 $127 reversed $49 $-1 #
face $-1 $128 $129 $29 $-1 $130 reversed single #
loop $-1 $-1 $131 $51 #
plane-surface $-1 -33.104402809354269 -25.108726229866477 2.837490374964716 0 -0.64278761758704617 0.76604443648966558 1 0 0 forward_v I I I I #
coedge $-1 $132 $133 $134 $135 reversed $52 $-1 #
face $-1 $-1 $136 $30 $-1 $137 forward single #
loop $-1 $138 $139 $54 #
cone-surface $-1 -33.104402809354269 -21.862845997750981 2.6629035364114291 0 0.64278761758704617 -0.76604443648966558 0.25 0 0 1 I I -0.70710678118654746 0.70710678118654746 0.25 forward I I I I #
loop $-1 $-1 $140 $39 #
coedge $-1 $88 $88 $141 $142 reversed $55 $-1 #
face $-1 $143 $144 $31 $-1 $145 reversed single #
loop $-1 $-1 $146 $57 #
plane-surface $-1 11.512763856502062 -25.108726229866477 2.837490374964716 0 -0.64278761758704617 0.76604443648966558 1 0 0 forward_v I I I I #
coedge $-1 $147 $148 $149 $150 reversed $58 $-1 #
face $-1 $-1 $151 $32 $-1 $152 forward single #
loop $-1 $153 $154 $60 #
cone-surface $-1 11.512763856502062 -21.862845997750981 2.6629035364114291 0 0.64278761758704617 -0.76604443648966558 0.25 0 0 1 I I -0.70710678118654746 0.70710678118654746 0.25 forward I I I I #
loop $-1 $-1 $155 $41 #
coedge $-1 $97 $97 $156 $157 reversed $61 $-1 #
face $-1 $158 $159 $33 $-1 $160 forward single #
loop $-1 $-1 $161 $63 #
plane-surface $-1 37.618958981764315 -7.8368863904236292 38.3084511333047 0 0.75470958851134928 0.65605901945558964 1 0 0 forward_v I I I I #
coedge $-1 $162 $163 $164 $165 reversed $64 $-1 #
face $-1 $-1 $166 $34 $-1 $167 forward single #
loop $-1 $168 $169 $66 #
cone-surface $-1 33.67867623591119 20.86285597347042 1.5293027600251019 0 -0.75470958851134928 -0.65605901945558964 0.75 0 0 1 I I -0.70710678118654757 0.70710678118654757 0.75 forward I I I I #
loop $-1 $-1 $170 $43 #
coedge $-1 $106 $106 $171 $172 reversed $67 $-1 #
face $-1 $-1 $173 $35 $-1 $174 forward single #
loop $-1 $175 $176 $69 #
cone-surface $-1 41.55924172761744 20.86285597347042 1.5293027600251019 0 -0.75470958851134928 -0.65605901945558964 0.75 0 0 1 I I -0.70710678118654757 0.70710678118654757 0.75 forward I I I I #
loop $-1 $-1 $177 $44 #
coedge $-1 $111 $111 $178 $179 reversed $70 $-1 #
face $-1 $180 $181 $27 $-1 $182 reversed single #
loop $-1 $-1 $183 $72 #
plane-surface $-1 0 -25.108726229866473 0 0 1 0 0 0 1 forward_v I I I I #
coedge $-1 $184 $185 $186 $187 forward $73 $-1 #
coedge $-1 $188 $75 $189 $190 forward $46 $-1 #
coedge $-1 $75 $188 $191 $192 forward $46 $-1 #
coedge $-1 $193 $194 $75 $119 reversed $195 $-1 #
edge $-1 $196 -25.108726229866473 $197 25.108726229866473 $118 $198 forward 7 unknown #
face $-1 $199 $200 $28 $-1 $201 reversed single #
loop $-1 $-1 $202 $76 #
plane-surface $-1 -42.421381276291051 -16.277095268743672 0 -1 0 0 0 0 1 forward_v I I I I #
coedge $-1 $203 $204 $205 $206 forward $77 $-1 #
coedge $-1 $207 $79 $208 $209 reversed $49 $-1 #
coedge $-1 $79 $207 $210 $211 reversed $49 $-1 #
coedge $-1 $212 $213 $79 $127 forward $214 $-1 #
edge $-1 $215 -5.8897882487868802 $216 5.8897882487868802 $126 $217 forward 7 unknown #
face $-1 $218 $219 $29 $-1 $220 reversed single #
loop $-1 $-1 $221 $80 #
plane-surface $-1 -38.26096917684589 -85.290298077708627 74.559093330391079 1 0 0 0 0.64278761758704617 -0.76604443648966558 forward_v I I I I #
coedge $-1 $222 $223 $224 $225 reversed $81 $-1 #
coedge $-1 $133 $83 $226 $227 reversed $52 $-1 #
coedge $-1 $83 $132 $222 $228 reversed $52 $-1 #
coedge $-1 $224 $229 $83 $135 forward $230 $-1 #
edge $-1 $231 17.53642280898784 $232 21.174009689593959 $134 $233 forward 7 unknown #
loop $-1 $-1 $141 $84 #
plane-surface $-1 -33.104402809354269 -25.108726229866477 2.837490374964716 0 -0.64278761758704617 0.76604443648966558 1 0 0 forward_v I I I I #
loop $-1 $-1 $234 $54 #
coedge $-1 $139 $139 $140 $235 reversed $85 $-1 #
coedge $-1 $140 $140 $139 $235 forward $87 $-1 #
coedge $-1 $141 $141 $88 $142 forward $136 $-1 #
edge $-1 $236 -4.3012529153891708e-015 $236 6.283185307179596 $141 $237 forward 7 unknown #
face $-1 $238 $239 $31 $-1 $240 reversed single #
loop $-1 $-1 $241 $89 #
plane-surface $-1 6.3561974890104418 -85.290298077708627 74.559093330391079 1 0 0 0 0.64278761758704617 -0.76604443648966558 forward_v I I I I #
coedge $-1 $242 $243 $244 $245 reversed $90 $-1 #
coedge $-1 $148 $92 $246 $247 reversed $58 $-1 #
coedge $-1 $92 $147 $242 $248 reversed $58 $-1 #
coedge $-1 $244 $249 $92 $150 forward $250 $-1 #
edge $-1 $251 17.53642280898784 $252 21.174009689593959 $149 $253 forward 7 unknown #
loop $-1 $-1 $156 $93 #
plane-surface $-1 11.512763856502062 -25.108726229866477 2.837490374964716 0 -0.64278761758704617 0.76604443648966558 1 0 0 forward_v I I I I #
loop $-1 $-1 $254 $60 #
coedge $-1 $154 $154 $155 $255 reversed $94 $-1 #
coedge $-1 $155 $155 $154 $255 forward $96 $-1 #
coedge $-1 $156 $156 $97 $157 forward $151 $-1 #
edge $-1 $256 -4.3012529153891708e-015 $256 6.283185307179596 $156 $257 forward 7 unknown #
face $-1 $258 $259 $33 $-1 $260 reversed single #
loop $-1 $-1 $164 $98 #
plane-surface $-1 0 0 5.8897882487868802 0 0 1 1 0 0 forward_v I I I I #
coedge $-1 $261 $262 $263 $264 reversed $99 $-1 #
coedge $-1 $163 $101 $265 $266 reversed $64 $-1 #
coedge $-1 $101 $162 $261 $267 reversed $64 $-1 #
coedge $-1 $263 $268 $101 $165 forward $159 $-1 #
edge $-1 $269 6.3030143576704809 $270 11.067513993786214 $164 $271 forward 7 unknown #
loop $-1 $-1 $171 $102 #
plane-surface $-1 37.618958981764315 -7.8368863904236292 38.3084511333047 0 0.75470958851134928 0.65605901945558964 1 0 0 forward_v I I I I #
loop $-1 $-1 $272 $66 #
coedge $-1 $169 $169 $170 $273 reversed $103 $-1 #
coedge $-1 $170 $170 $169 $273 forward $105 $-1 #
coedge $-1 $171 $171 $106 $172 forward $166 $-1 #
edge $-1 $274 1.9280124066368788e-016 $274 6.2831853071796004 $171 $275 forward 7 unknown #
loop $-1 $-1 $178 $107 #
plane-surface $-1 37.618958981764315 -7.8368863904236292 38.3084511333047 0 0.75470958851134928 0.65605901945558964 1 0 0 forward_v I I I I #
loop $-1 $-1 $276 $69 #
coedge $-1 $176 $176 $177 $277 reversed $108 $-1 #
coedge $-1 $177 $177 $176 $277 forward $110 $-1 #
coedge $-1 $178 $178 $111 $179 forward $173 $-1 #
edge $-1 $278 1.9280124066368788e-016 $278 6.2831853071796004 $178 $279 forward 7 unknown #
face $-1 $280 $281 $27 $-1 $282 reversed single #
loop $-1 $-1 $283 $112 #
plane-surface $-1 -46.812952055421611 0 0 1 0 0 0 0 -1 forward_v I I I I #
coedge $-1 $284 $191 $285 $286 forward $113 $-1 #
coedge $-1 $287 $115 $284 $288 forward $73 $-1 #
coedge $-1 $115 $287 $289 $290 forward $73 $-1 #
coedge $-1 $194 $193 $115 $187 reversed $195 $-1 #
edge $-1 $291 -25.108726229866473 $292 25.108726229866473 $186 $293 forward 7 unknown #
coedge $-1 $117 $116 $294 $295 forward $46 $-1 #
coedge $-1 $296 $297 $116 $190 reversed $281 $-1 #
edge $-1 $197 -46.812952055421611 $298 46.812952055421611 $189 $299 forward 7 unknown #
coedge $-1 $183 $300 $117 $192 reversed $113 $-1 #
edge $-1 $301 -46.812952055421611 $196 46.812952055421611 $191 $302 forward 7 unknown #
coedge $-1 $186 $118 $300 $303 forward $195 $-1 #
coedge $-1 $118 $186 $296 $304 reversed $195 $-1 #
loop $-1 $-1 $193 $280 #
vertex $-1 $119 $305 #
vertex $-1 $119 $306 #
straight-curve $-1 46.812952055421611 0 5.8897882487868802 0 1 0 I I #
face $-1 $307 $308 $28 $-1 $309 forward single #
loop $-1 $-1 $310 $120 #
plane-surface $-1 0 0 -5.8897882487868802 0 0 1 1 0 0 forward_v I I I I #
coedge $-1 $311 $312 $207 $313 forward $121 $-1 #
coedge $-1 $314 $123 $310 $315 reversed $77 $-1 #
coedge $-1 $123 $314 $316 $317 reversed $77 $-1 #
coedge $-1 $312 $311 $123 $206 reversed $121 $-1 #
edge $-1 $318 -5.8897882487868802 $319 5.8897882487868802 $205 $320 forward 7 unknown #
coedge $-1 $125 $124 $202 $313 reversed $49 $-1 #
coedge $-1 $321 $322 $124 $209 forward $200 $-1 #
edge $-1 $323 20.112797943362885 $215 24.504368722493446 $208 $324 forward 7 unknown #
coedge $-1 $325 $326 $125 $211 forward $308 $-1 #
edge $-1 $216 -24.504368722493446 $327 -20.112797943362885 $210 $328 forward 7 unknown #
coedge $-1 $329 $126 $326 $330 reversed $214 $-1 #
coedge $-1 $126 $329 $321 $331 reversed $214 $-1 #
loop $-1 $-1 $329 $307 #
vertex $-1 $331 $332 #
vertex $-1 $127 $333 #
straight-curve $-1 -46.812952055421611 -17.777095268743672 0 0 0 1 I I #
face $-1 $-1 $230 $29 $-1 $334 forward single #
loop $-1 $-1 $335 $128 #
plane-surface $-1 0 -25.108726229866473 0 0 1 0 0 0 1 forward_v I I I I #
coedge $-1 $336 $337 $338 $339 reversed $129 $-1 #
coedge $-1 $340 $131 $133 $228 forward $81 $-1 #
coedge $-1 $131 $340 $336 $341 forward $81 $-1 #
coedge $-1 $338 $134 $131 $225 forward $230 $-1 #
edge $-1 $232 11.395635037185514 $342 21.708767772168756 $224 $343 forward 7 unknown #
coedge $-1 $344 $345 $132 $227 forward $219 $-1 #
edge $-1 $346 -34.442056290230823 $231 -31.389758416408661 $226 $347 forward 7 unknown #
edge $-1 $232 -4.7485324706162721 $346 -4.7197218644553055e-015 $133 $348 forward 7 unknown #
coedge $-1 $134 $338 $344 $349 forward $230 $-1 #
loop $-1 $-1 $338 $218 #
vertex $-1 $227 $350 #
vertex $-1 $135 $351 #
straight-curve $-1 -27.947836441862648 -42.645149038854314 5.8897882487868785 0 1 0 I I #
coedge $-1 $234 $234 $-1 $352 reversed $138 $-1 #
edge $-1 $353 0 $353 6.2831853071796004 $139 $354 forward 7 unknown #
vertex $-1 $142 $355 #
ellipse-curve $-1 -33.104402809354269 -23.289932789563412 4.3636393118757999 0 -0.64278761758704617 0.76604443648966558 0.5 0 0 1 I I #
face $-1 $-1 $250 $31 $-1 $356 forward single #
loop $-1 $-1 $357 $143 #
plane-surface $-1 0 -25.108726229866473 0 0 1 0 0 0 1 forward_v I I I I #
coedge $-1 $358 $359 $360 $361 reversed $144 $-1 #
coedge $-1 $362 $146 $148 $248 forward $90 $-1 #
coedge $-1 $146 $362 $358 $363 forward $90 $-1 #
coedge $-1 $360 $149 $146 $245 forward $250 $-1 #
edge $-1 $252 -10.912948295742652 $364 -0.59981556075941089 $244 $365 forward 7 unknown #
coedge $-1 $366 $367 $147 $247 forward $239 $-1 #
edge $-1 $368 -34.442056290230823 $251 -31.389758416408661 $246 $369 forward 7 unknown #
edge $-1 $252 -4.7485324706162721 $368 -4.7197218644553055e-015 $148 $370 forward 7 unknown #
coedge $-1 $149 $360 $366 $371 forward $250 $-1 #
loop $-1 $-1 $360 $238 #
vertex $-1 $247 $372 #
vertex $-1 $150 $373 #
straight-curve $-1 16.669330223993683 -42.645149038854314 5.8897882487868785 0 1 0 I I #
coedge $-1 $254 $254 $-1 $374 reversed $153 $-1 #
edge $-1 $375 0 $375 6.2831853071796004 $154 $376 forward 7 unknown #
vertex $-1 $157 $377 #
ellipse-curve $-1 11.512763856502062 -23.289932789563412 4.3636393118757999 0 -0.64278761758704617 0.76604443648966558 0.5 0 0 1 I I #
face $-1 $-1 $378 $33 $-1 $379 reversed single #
loop $-1 $-1 $380 $158 #
plane-surface $-1 46.812952055421611 0 0 -1 0 0 0 0 1 forward_v I I I I #
coedge $-1 $381 $161 $163 $267 forward $99 $-1 #
coedge $-1 $161 $381 $380 $382 reversed $99 $-1 #
coedge $-1 $383 $164 $161 $264 forward $159 $-1 #
edge $-1 $270 9.6154864172248686 $384 28.003472564539447 $263 $385 forward 7 unknown #
coedge $-1 $386 $387 $162 $266 forward $378 $-1 #
edge $-1 $388 -49.457426738622402 $269 -43.976496741166905 $265 $389 forward 7 unknown #
edge $-1 $270 42.955149077227233 $388 50.217452459732989 $163 $390 forward 7 unknown #
coedge $-1 $164 $383 $386 $391 forward $159 $-1 #
vertex $-1 $266 $392 #
vertex $-1 $165 $393 #
straight-curve $-1 28.424965908107026 31.411740587536954 5.8897882487868785 0 -1 0 I I #
coedge $-1 $272 $272 $-1 $394 reversed $168 $-1 #
edge $-1 $395 0 $395 6.2831853071796004 $169 $396 forward 7 unknown #
vertex $-1 $172 $397 #
ellipse-curve $-1 33.67867623591119 22.726476411808598 3.1493232500591377 0 0.75470958851134928 0.65605901945558964 1.5 0 0 1 I I #
coedge $-1 $276 $276 $-1 $398 reversed $175 $-1 #
edge $-1 $399 0 $399 6.2831853071796004 $176 $400 forward 7 unknown #
vertex $-1 $179 $401 #
ellipse-curve $-1 41.55924172761744 22.726476411808598 3.1493232500591377 0 0.75470958851134928 0.65605901945558964 1.5 0 0 1 I I #
face $-1 $-1 $195 $27 $-1 $402 reversed single #
loop $-1 $-1 $296 $180 #
plane-surface $-1 0 25.108726229866473 0 0 -1 0 0 0 -1 forward_v I I I I #
coedge $-1 $403 $294 $297 $404 forward $181 $-1 #
coedge $-1 $300 $183 $184 $288 reversed $113 $-1 #
coedge $-1 $294 $403 $183 $286 reversed $181 $-1 #
edge $-1 $301 -5.8897882487868802 $405 5.8897882487868802 $285 $406 forward 7 unknown #
coedge $-1 $185 $184 $403 $407 forward $73 $-1 #
edge $-1 $292 -46.812952055421611 $405 46.812952055421611 $284 $408 forward 7 unknown #
coedge $-1 $297 $296 $185 $290 reversed $281 $-1 #
edge $-1 $409 -46.812952055421611 $291 46.812952055421611 $289 $410 forward 7 unknown #
vertex $-1 $187 $411 #
vertex $-1 $303 $412 #
straight-curve $-1 46.812952055421611 0 -5.8897882487868802 0 -1 0 I I #
coedge $-1 $283 $285 $188 $295 reversed $181 $-1 #
edge $-1 $298 -25.108726229866473 $301 25.108726229866473 $294 $413 forward 7 unknown #
coedge $-1 $289 $189 $194 $304 forward $281 $-1 #
coedge $-1 $189 $289 $283 $404 reversed $281 $-1 #
vertex $-1 $190 $414 #
straight-curve $-1 0 25.108726229866473 5.8897882487868802 -1 0 0 I I #
coedge $-1 $191 $284 $193 $303 reversed $113 $-1 #
vertex $-1 $295 $415 #
straight-curve $-1 0 -25.108726229866473 5.8897882487868802 1 0 0 I I #
edge $-1 $196 -5.8897882487868802 $292 5.8897882487868802 $193 $416 forward 7 unknown #
edge $-1 $197 -5.8897882487868802 $291 5.8897882487868802 $194 $417 forward 7 unknown #
point $-1 46.812952055421611 -25.108726229866473 5.8897882487868802 #
point $-1 46.812952055421611 25.108726229866473 5.8897882487868802 #
face $-1 $-1 $214 $28 $-1 $418 reversed single #
loop $-1 $-1 $316 $199 #
plane-surface $-1 0 0 5.8897882487868802 0 0 1 1 0 0 forward_v I I I I #
coedge $-1 $322 $321 $203 $315 forward $200 $-1 #
coedge $-1 $205 $202 $322 $419 reversed $121 $-1 #
coedge $-1 $202 $205 $325 $420 reversed $121 $-1 #
edge $-1 $327 -5.8897882487868802 $323 5.8897882487868802 $202 $421 forward 7 unknown #
coedge $-1 $204 $203 $329 $422 reversed $77 $-1 #
edge $-1 $423 -24.504368722493446 $319 -20.112797943362885 $310 $424 forward 7 unknown #
coedge $-1 $326 $325 $204 $317 forward $308 $-1 #
edge $-1 $318 20.112797943362885 $425 24.504368722493446 $316 $426 forward 7 unknown #
vertex $-1 $317 $427 #
vertex $-1 $315 $428 #
straight-curve $-1 -42.421381276291051 -14.777095268743672 0 0 0 -1 I I #
coedge $-1 $310 $208 $213 $331 forward $200 $-1 #
coedge $-1 $208 $310 $311 $419 forward $200 $-1 #
vertex $-1 $209 $429 #
straight-curve $-1 -22.308583332928166 -17.777095268743672 -5.8897882487868802 -1 0 0 I I #
coedge $-1 $316 $210 $312 $420 forward $308 $-1 #
coedge $-1 $210 $316 $212 $330 forward $308 $-1 #
vertex $-1 $211 $430 #
straight-curve $-1 -22.308583332928166 -17.777095268743672 5.8897882487868802 1 0 0 I I #
coedge $-1 $213 $212 $314 $422 forward $214 $-1 #
edge $-1 $425 14.777095268743672 $216 17.777095268743672 $212 $431 forward 7 unknown #
edge $-1 $215 -17.777095268743672 $423 -14.777095268743672 $213 $432 forward 7 unknown #
point $-1 -46.812952055421611 -17.777095268743672 -5.8897882487868802 #
point $-1 -46.812952055421611 -17.777095268743672 5.8897882487868802 #
plane-surface $-1 0 0 5.8897882487868802 0 0 1 1 0 0 forward_v I I I I #
coedge $-1 $345 $344 $337 $433 forward $219 $-1 #
coedge $-1 $337 $221 $223 $341 reversed $129 $-1 #
coedge $-1 $221 $336 $335 $433 reversed $129 $-1 #
coedge $-1 $229 $224 $221 $339 forward $230 $-1 #
edge $-1 $342 -21.174009689593959 $434 -17.53642280898784 $338 $435 forward 7 unknown #
coedge $-1 $223 $222 $345 $436 reversed $81 $-1 #
edge $-1 $437 4.7197218644553055e-015 $342 4.7485324706162721 $336 $438 forward 7 unknown #
vertex $-1 $225 $439 #
straight-curve $-1 -16.552201404677135 -21.471139349260355 5.8897882487868802 -1 0 0 I I #
coedge $-1 $335 $226 $229 $349 reversed $219 $-1 #
coedge $-1 $226 $335 $340 $436 forward $219 $-1 #
vertex $-1 $227 $440 #
straight-curve $-1 -27.947836441862648 -25.108726229866473 37.279546665195539 0 0 1 I I #
straight-curve $-1 -27.947836441862648 -25.108726229866477 2.837490374964716 0 -0.76604443648966558 -0.64278761758704617 I I #
edge $-1 $434 -38.26096917684589 $231 -27.947836441862648 $344 $441 forward 7 unknown #
point $-1 -27.947836441862648 -25.108726229866473 5.8897882487868802 #
point $-1 -27.947836441862648 -21.471139349260355 5.8897882487868802 #
edge $-1 $442 1 $442 0 $234 $-1 forward 7 unknown #
vertex $-1 $235 $443 #
ellipse-curve $-1 -33.104402809354269 -22.023542902147742 2.8544146455338453 0 -0.64278761758704617 0.76604443648966558 0.5 0 0 1 I I #
point $-1 -32.604402809354269 -23.289932789563416 4.3636393118758008 #
plane-surface $-1 0 0 5.8897882487868802 0 0 1 1 0 0 forward_v I I I I #
coedge $-1 $367 $366 $359 $444 forward $239 $-1 #
coedge $-1 $359 $241 $243 $363 reversed $144 $-1 #
coedge $-1 $241 $358 $357 $444 reversed $144 $-1 #
coedge $-1 $249 $244 $241 $361 forward $250 $-1 #
edge $-1 $364 -21.174009689593959 $445 -17.53642280898784 $360 $446 forward 7 unknown #
coedge $-1 $243 $242 $367 $447 reversed $90 $-1 #
edge $-1 $448 4.7197218644553055e-015 $364 4.7485324706162721 $358 $449 forward 7 unknown #
vertex $-1 $245 $450 #
straight-curve $-1 5.7563819282510309 -21.471139349260355 5.8897882487868802 -1 0 0 I I #
coedge $-1 $357 $246 $249 $371 reversed $239 $-1 #
coedge $-1 $246 $357 $362 $447 forward $239 $-1 #
vertex $-1 $247 $451 #
straight-curve $-1 16.669330223993683 -25.108726229866473 37.279546665195539 0 0 1 I I #
straight-curve $-1 16.669330223993683 -25.108726229866477 2.837490374964716 0 -0.76604443648966558 -0.64278761758704617 I I #
edge $-1 $445 6.3561974890104418 $251 16.669330223993683 $366 $452 forward 7 unknown #
point $-1 16.669330223993683 -25.108726229866473 5.8897882487868802 #
point $-1 16.669330223993683 -21.471139349260355 5.8897882487868802 #
edge $-1 $453 1 $453 0 $254 $-1 forward 7 unknown #
vertex $-1 $255 $454 #
ellipse-curve $-1 11.512763856502062 -22.023542902147742 2.8544146455338453 0 -0.64278761758704617 0.76604443648966558 0.5 0 0 1 I I #
point $-1 12.012763856502062 -23.289932789563416 4.3636393118758008 #
loop $-1 $-1 $265 $258 #
plane-surface $-1 0 25.108726229866473 0 0 -1 0 0 0 -1 forward_v I I I I #
coedge $-1 $455 $456 $262 $382 forward $259 $-1 #
coedge $-1 $262 $261 $387 $457 reversed $99 $-1 #
edge $-1 $384 25.928541381122372 $458 33.190844763628121 $380 $459 forward 7 unknown #
coedge $-1 $268 $263 $456 $460 forward $159 $-1 #
vertex $-1 $460 $461 #
straight-curve $-1 18.809479490882158 20.344226593750736 5.8897882487868749 1 0 0 I I #
coedge $-1 $462 $265 $268 $391 reversed $378 $-1 #
coedge $-1 $265 $462 $381 $457 forward $378 $-1 #
vertex $-1 $266 $463 #
straight-curve $-1 28.424965908107026 25.108726229866473 49.866284989953783 0 0 1 I I #
straight-curve $-1 28.424965908107026 -7.8368863904236292 38.3084511333047 0 0.65605901945558964 -0.75470958851134928 I I #
edge $-1 $464 -46.812952055421611 $269 -28.424965908107026 $386 $465 forward 7 unknown #
point $-1 28.424965908107026 25.108726229866473 5.8897882487868802 #
point $-1 28.424965908107026 20.34422659375074 5.8897882487868785 #
edge $-1 $466 1 $466 0 $272 $-1 forward 7 unknown #
vertex $-1 $273 $467 #
ellipse-curve $-1 33.67867623591119 21.428888164853934 2.0213470246167944 0 0.75470958851134928 0.65605901945558964 1.5 0 0 1 I I #
point $-1 35.17867623591119 22.726476411808608 3.1493232500591466 #
edge $-1 $468 1 $468 0 $276 $-1 forward 7 unknown #
vertex $-1 $277 $469 #
ellipse-curve $-1 41.55924172761744 21.428888164853934 2.0213470246167944 0 0.75470958851134928 0.65605901945558964 1.5 0 0 1 I I #
point $-1 43.05924172761744 22.726476411808608 3.1493232500591466 #
plane-surface $-1 46.812952055421611 0 0 -1 0 0 0 0 1 forward_v I I I I #
coedge $-1 $285 $283 $287 $407 reversed $181 $-1 #
edge $-1 $298 -5.8897882487868802 $409 5.8897882487868802 $297 $470 forward 7 unknown #
vertex $-1 $407 $471 #
straight-curve $-1 -46.812952055421611 -25.108726229866473 0 0 0 -1 I I #
edge $-1 $405 -25.108726229866473 $409 25.108726229866473 $403 $472 forward 7 unknown #
straight-curve $-1 0 -25.108726229866473 -5.8897882487868802 -1 0 0 I I #
vertex $-1 $290 $473 #
straight-curve $-1 0 25.108726229866473 -5.8897882487868802 1 0 0 I I #
point $-1 46.812952055421611 25.108726229866473 -5.8897882487868802 #
point $-1 46.812952055421611 -25.108726229866473 -5.8897882487868802 #
straight-curve $-1 -46.812952055421611 0 5.8897882487868802 0 -1 0 I I #
point $-1 -46.812952055421611 25.108726229866473 5.8897882487868802 #
point $-1 -46.812952055421611 -25.108726229866473 5.8897882487868802 #
straight-curve $-1 46.812952055421611 -25.108726229866473 0 0 0 -1 I I #
straight-curve $-1 46.812952055421611 25.108726229866473 0 0 0 -1 I I #
plane-surface $-1 -46.812952055421611 0 0 1 0 0 0 0 -1 forward_v I I I I #
edge $-1 $319 6.6385476343718359 $323 9.6385476343718359 $322 $474 forward 7 unknown #
edge $-1 $327 -9.6385476343718359 $318 -6.6385476343718359 $325 $475 forward 7 unknown #
straight-curve $-1 -42.421381276291051 -17.777095268743672 0 0 0 -1 I I #
edge $-1 $425 -5.8897882487868802 $423 5.8897882487868802 $329 $476 forward 7 unknown #
vertex $-1 $422 $477 #
straight-curve $-1 -22.308583332928166 -14.777095268743672 -5.8897882487868802 1 0 0 I I #
vertex $-1 $330 $478 #
straight-curve $-1 -22.308583332928166 -14.777095268743672 5.8897882487868802 -1 0 0 I I #
point $-1 -42.421381276291051 -14.777095268743672 5.8897882487868802 #
point $-1 -42.421381276291051 -14.777095268743672 -5.8897882487868802 #
point $-1 -42.421381276291051 -17.777095268743672 -5.8897882487868802 #
point $-1 -42.421381276291051 -17.777095268743672 5.8897882487868802 #
straight-curve $-1 -46.812952055421611 0 5.8897882487868802 0 -1 0 I I #
straight-curve $-1 -46.812952055421611 0 -5.8897882487868802 0 1 0 I I #
edge $-1 $434 31.389758416408661 $437 34.442056290230823 $335 $479 forward 7 unknown #
vertex $-1 $349 $480 #
straight-curve $-1 -38.26096917684589 -42.645149038854314 5.8897882487868785 0 -1 0 I I #
edge $-1 $437 -21.708767772168756 $346 -11.395635037185514 $345 $481 forward 7 unknown #
vertex $-1 $436 $482 #
straight-curve $-1 -38.26096917684589 -25.108726229866477 2.837490374964716 0 0.76604443648966558 0.64278761758704617 I I #
point $-1 -38.26096917684589 -21.471139349260355 5.8897882487868802 #
point $-1 -27.947836441862648 -25.108726229866473 2.8374903749647191 #
straight-curve $-1 0 -25.108726229866473 5.8897882487868802 1 0 0 I I #
vertex $-1 $352 $483 #
point $-1 -32.604402809354269 -22.023542902147742 2.8544146455338453 #
edge $-1 $445 31.389758416408661 $448 34.442056290230823 $357 $484 forward 7 unknown #
vertex $-1 $371 $485 #
straight-curve $-1 6.3561974890104418 -42.645149038854314 5.8897882487868785 0 -1 0 I I #
edge $-1 $448 0.59981556075941089 $368 10.912948295742652 $367 $486 forward 7 unknown #
vertex $-1 $447 $487 #
straight-curve $-1 6.3561974890104418 -25.108726229866477 2.837490374964716 0 0.76604443648966558 0.64278761758704617 I I #
point $-1 6.3561974890104418 -21.471139349260355 5.8897882487868802 #
point $-1 16.669330223993683 -25.108726229866473 2.8374903749647191 #
straight-curve $-1 0 -25.108726229866473 5.8897882487868802 1 0 0 I I #
vertex $-1 $374 $488 #
point $-1 12.012763856502062 -22.023542902147742 2.8544146455338453 #
coedge $-1 $456 $380 $462 $489 reversed $259 $-1 #
coedge $-1 $380 $455 $383 $460 reversed $259 $-1 #
edge $-1 $458 -28.003472564539447 $388 -9.6154864172248686 $387 $490 forward 7 unknown #
vertex $-1 $382 $491 #
straight-curve $-1 46.812952055421611 3.3335731593379165 25.458307045233234 0 0.65605901945558975 -0.75470958851134939 I I #
edge $-1 $384 20.34422659375074 $464 25.108726229866473 $456 $492 forward 7 unknown #
point $-1 46.812952055421604 20.34422659375074 5.8897882487868785 #
coedge $-1 $387 $386 $455 $489 forward $378 $-1 #
point $-1 28.424965908107026 25.108726229866477 0.40885825133138098 #
vertex $-1 $460 $493 #
straight-curve $-1 0 25.108726229866473 5.8897882487868802 -1 0 0 I I #
vertex $-1 $394 $494 #
point $-1 35.17867623591119 21.428888164853934 2.0213470246167944 #
vertex $-1 $398 $495 #
point $-1 43.05924172761744 21.428888164853934 2.0213470246167944 #
straight-curve $-1 -46.812952055421611 25.108726229866473 0 0 0 -1 I I #
point $-1 -46.812952055421611 -25.108726229866473 -5.8897882487868802 #
straight-curve $-1 -46.812952055421611 0 -5.8897882487868802 0 1 0 I I #
point $-1 -46.812952055421611 25.108726229866473 -5.8897882487868802 #
straight-curve $-1 -42.421381276291051 -8.1385476343718359 -5.8897882487868802 0 -1 0 I I #
straight-curve $-1 -42.421381276291051 -8.1385476343718359 5.8897882487868802 0 1 0 I I #
straight-curve $-1 -46.812952055421611 -14.777095268743672 0 0 0 -1 I I #
point $-1 -46.812952055421611 -14.777095268743672 -5.8897882487868802 #
point $-1 -46.812952055421611 -14.777095268743672 5.8897882487868802 #
straight-curve $-1 -38.26096917684589 -25.108726229866473 37.279546665195539 0 0 -1 I I #
point $-1 -38.26096917684589 -25.108726229866473 5.8897882487868802 #
straight-curve $-1 -16.552201404677135 -25.108726229866473 2.8374903749647205 1 0 0 I I #
point $-1 -38.26096917684589 -25.108726229866473 2.8374903749647191 #
point $-1 -33.104402809354269 -21.702149093354219 2.4713924272890129 #
straight-curve $-1 6.3561974890104418 -25.108726229866473 37.279546665195539 0 0 -1 I I #
point $-1 6.3561974890104418 -25.108726229866473 5.8897882487868802 #
straight-curve $-1 5.7563819282510309 -25.108726229866473 2.8374903749647205 1 0 0 I I #
point $-1 6.3561974890104418 -25.108726229866473 2.8374903749647191 #
point $-1 11.512763856502062 -21.702149093354219 2.4713924272890129 #
edge $-1 $464 -5.8897882487868802 $458 -0.40885825133138098 $455 $496 forward 7 unknown #
straight-curve $-1 18.809479490882158 25.108726229866473 0.40885825133137743 -1 0 0 I I #
point $-1 46.812952055421604 25.108726229866477 0.40885825133138098 #
straight-curve $-1 46.812952055421611 0 5.8897882487868802 0 1 0 I I #
point $-1 46.812952055421611 25.108726229866473 5.8897882487868802 #
point $-1 33.67867623591119 20.296823782086907 1.0372584954334096 #
point $-1 41.55924172761744 20.296823782086907 1.0372584954334096 #
straight-curve $-1 46.812952055421611 25.108726229866473 0 0 0 -1 I I #
End-of-ACIS-data 