500 0 9 0           
7 Unknown 11 ACIS 5.0 NT 24 Thu Mar 25 17:42:00 1999 
-1 9.9999999999999995e-007 1e-010 
body $-1 $9 $-1 $10 #
body $-1 $11 $-1 $12 #
body $-1 $13 $-1 $14 #
body $-1 $15 $-1 $16 #
body $-1 $17 $-1 $18 #
body $-1 $19 $-1 $20 #
body $-1 $21 $-1 $22 #
body $-1 $23 $-1 $24 #
body $-1 $25 $-1 $26 #
lump $-1 $-1 $27 $0 #
transform $-1 1 0 0 0 1 0 0 0 1 41.098666341135896 17.126179382359442 5.4827607568880445 1 rotate no_reflect no_shear #
lump $-1 $-1 $28 $1 #
transform $-1 1 0 0 0 1 0 0 0 1 41.098666341135896 17.126179382359442 5.4827607568880445 1 rotate no_reflect no_shear #
lump $-1 $-1 $29 $2 #
transform $-1 1 0 0 0 1 0 0 0 1 41.098666341135896 17.126179382359442 5.4827607568880445 1 rotate no_reflect no_shear #
lump $-1 $-1 $30 $3 #
transform $-1 1 0 0 0 1 0 0 0 1 41.098666341135896 17.126179382359442 5.4827607568880445 1 rotate no_reflect no_shear #
lump $-1 $-1 $31 $4 #
transform $-1 1 0 0 0 1 0 0 0 1 41.098666341135896 17.126179382359442 5.4827607568880445 1 rotate no_reflect no_shear #
lump $-1 $-1 $32 $5 #
transform $-1 1 0 0 0 1 0 0 0 1 41.098666341135896 17.126179382359442 5.4827607568880445 1 rotate no_reflect no_shear #
lump $-1 $-1 $33 $6 #
transform $-1 1 0 0 0 1 0 0 0 1 41.098666341135896 17.126179382359442 5.4827607568880445 1 rotate no_reflect no_shear #
lump $-1 $-1 $34 $7 #
transform $-1 1 0 0 0 1 0 0 0 1 41.098666341135896 17.126179382359442 5.4827607568880445 1 rotate no_reflect no_shear #
lump $-1 $-1 $35 $8 #
transform $-1 1 0 0 0 1 0 0 0 1 41.098666341135896 17.126179382359442 5.4827607568880445 1 rotate no_reflect no_shear #
shell $-1 $-1 $-1 $36 $-1 $9 #
shell $-1 $-1 $-1 $37 $-1 $11 #
shell $-1 $-1 $-1 $38 $-1 $13 #
shell $-1 $-1 $-1 $39 $-1 $15 #
shell $-1 $-1 $-1 $40 $-1 $17 #
shell $-1 $-1 $-1 $41 $-1 $19 #
shell $-1 $-1 $-1 $42 $-1 $21 #
shell $-1 $-1 $-1 $43 $-1 $23 #
shell $-1 $-1 $-1 $44 $-1 $25 #
face $-1 $45 $46 $27 $-1 $47 forward single #
face $-1 $48 $49 $28 $-1 $50 reversed single #
face $-1 $51 $52 $29 $-1 $53 forward single #
face $-1 $54 $55 $30 $-1 $56 reversed single #
face $-1 $57 $58 $31 $-1 $59 forward single #
face $-1 $60 $61 $32 $-1 $62 reversed single #
face $-1 $63 $64 $33 $-1 $65 forward single #
face $-1 $66 $67 $34 $-1 $68 reversed single #
face $-1 $69 $70 $35 $-1 $71 forward single #
face $-1 $72 $73 $27 $-1 $74 reversed single #
loop $-1 $-1 $75 $36 #
plane-surface $-1 0 0 5.4827607568880445 0 0 1 1 0 0 forward_v I I I I #
face $-1 $76 $77 $28 $-1 $78 reversed single #
loop $-1 $-1 $79 $37 #
plane-surface $-1 -26.88998388633059 33.167610901840803 89.15259619083929 1 0 0 0 -0.54463904215088732 -0.83867056331134215 forward_v I I I I #
face $-1 $80 $81 $29 $-1 $82 forward single #
loop $-1 $83 $84 $38 #
cone-surface $-1 -21.340842383402233 12.914776608563805 1.6865375720693874 0 -0.54463904215088732 -0.83867056331134215 1.5 0 0 1 I I 0 1 1.5 forward I I I I #
face $-1 $85 $86 $30 $-1 $87 reversed single #
loop $-1 $-1 $88 $39 #
plane-surface $-1 14.208682454805306 33.167610901840803 89.15259619083929 1 0 0 0 -0.54463904215088732 -0.83867056331134215 forward_v I I I I #
face $-1 $89 $90 $31 $-1 $91 forward single #
loop $-1 $92 $93 $40 #
cone-surface $-1 19.757823957733663 12.914776608563805 1.6865375720693874 0 -0.54463904215088732 -0.83867056331134215 1.5 0 0 1 I I 0 1 1.5 forward I I I I #
face $-1 $94 $95 $32 $-1 $96 reversed single #
loop $-1 $-1 $97 $41 #
plane-surface $-1 -15.791700880473876 -61.894055921789786 70.497424321814236 -1 0 0 0 -0.54463904215088732 0.83867056331134215 forward_v I I I I #
face $-1 $98 $99 $33 $-1 $100 forward single #
loop $-1 $101 $102 $42 #
cone-surface $-1 -21.340842383402233 -12.914776608563807 1.6865375720693838 0 0.54463904215088732 -0.83867056331134215 1.5 0 0 1 I I 0 1 1.5 forward I I I I #
face $-1 $103 $104 $34 $-1 $105 reversed single #
loop $-1 $-1 $106 $43 #
plane-surface $-1 25.30696546066202 -61.894055921789786 70.497424321814236 -1 0 0 0 -0.54463904215088732 0.83867056331134215 forward_v I I I I #
face $-1 $107 $108 $35 $-1 $109 forward single #
loop $-1 $110 $111 $44 #
cone-surface $-1 19.757823957733663 -12.914776608563807 1.6865375720693838 0 0.54463904215088732 -0.83867056331134215 1.5 0 0 1 I I 0 1 1.5 forward I I I I #
face $-1 $112 $113 $27 $-1 $114 reversed single #
loop $-1 $-1 $115 $45 #
plane-surface $-1 0 0 -5.4827607568880445 0 0 1 1 0 0 forward_v I I I I #
coedge $-1 $116 $117 $118 $119 forward $46 $-1 #
face $-1 $120 $121 $28 $-1 $122 reversed single #
loop $-1 $-1 $123 $48 #
plane-surface $-1 -21.340842383402233 -11.60026563758953 20.216112887508615 0 0.54463904215088732 0.83867056331134215 1 0 0 forward_v I I I I #
coedge $-1 $124 $125 $126 $127 reversed $49 $-1 #
face $-1 $-1 $128 $29 $-1 $129 forward single #
loop $-1 $130 $131 $51 #
cone-surface $-1 -21.340842383402233 11.314430901691338 -0.77777866603053525 0 -0.54463904215088732 -0.83867056331134215 0.75 0 0 1 I I -0.70710678118654757 0.70710678118654757 0.75 forward I I I I #
loop $-1 $-1 $132 $38 #
coedge $-1 $84 $84 $133 $134 reversed $52 $-1 #
face $-1 $135 $136 $30 $-1 $137 reversed single #
loop $-1 $-1 $138 $54 #
plane-surface $-1 19.757823957733663 -11.60026563758953 20.216112887508615 0 0.54463904215088732 0.83867056331134215 1 0 0 forward_v I I I I #
coedge $-1 $139 $140 $141 $142 reversed $55 $-1 #
face $-1 $-1 $143 $31 $-1 $144 forward single #
loop $-1 $145 $146 $57 #
cone-surface $-1 19.757823957733663 11.314430901691338 -0.77777866603053525 0 -0.54463904215088732 -0.83867056331134215 0.75 0 0 1 I I -0.70710678118654757 0.70710678118654757 0.75 forward I I I I #
loop $-1 $-1 $147 $40 #
coedge $-1 $93 $93 $148 $149 reversed $58 $-1 #
face $-1 $150 $151 $32 $-1 $152 reversed single #
loop $-1 $-1 $153 $60 #
plane-surface $-1 -21.340842383402233 -17.126179382359453 1.560941018483561 0 -0.54463904215088732 0.83867056331134215 1 0 0 forward_v I I I I #
coedge $-1 $154 $155 $156 $157 reversed $61 $-1 #
face $-1 $-1 $158 $33 $-1 $159 forward single #
loop $-1 $160 $161 $63 #
cone-surface $-1 -21.340842383402233 -11.31443090169134 -0.7777786660305388 0 0.54463904215088732 -0.83867056331134215 0.75 0 0 1 I I -0.70710678118654757 0.70710678118654757 0.75 forward I I I I #
loop $-1 $-1 $162 $42 #
coedge $-1 $102 $102 $163 $164 reversed $64 $-1 #
face $-1 $165 $166 $34 $-1 $167 reversed single #
loop $-1 $-1 $168 $66 #
plane-surface $-1 19.757823957733663 -17.126179382359453 1.560941018483561 0 -0.54463904215088732 0.83867056331134215 1 0 0 forward_v I I I I #
coedge $-1 $169 $170 $171 $172 reversed $67 $-1 #
face $-1 $-1 $173 $35 $-1 $174 forward single #
loop $-1 $175 $176 $69 #
cone-surface $-1 19.757823957733663 -11.31443090169134 -0.7777786660305388 0 0.54463904215088732 -0.83867056331134215 0.75 0 0 1 I I -0.70710678118654757 0.70710678118654757 0.75 forward I I I I #
loop $-1 $-1 $177 $44 #
coedge $-1 $111 $111 $178 $179 reversed $70 $-1 #
face $-1 $180 $181 $27 $-1 $182 reversed single #
loop $-1 $-1 $183 $72 #
plane-surface $-1 0 -17.126179382359442 0 0 1 0 0 0 1 forward_v I I I I #
coedge $-1 $184 $185 $186 $187 forward $73 $-1 #
coedge $-1 $188 $75 $189 $190 forward $46 $-1 #
coedge $-1 $75 $188 $191 $192 forward $46 $-1 #
coedge $-1 $193 $194 $75 $119 reversed $195 $-1 #
edge $-1 $196 -17.126179382359442 $197 17.126179382359442 $118 $198 forward 7 unknown #
face $-1 $199 $200 $28 $-1 $201 reversed single #
loop $-1 $-1 $202 $76 #
plane-surface $-1 -15.791700880473876 33.167610901840803 89.15259619083929 -1 0 0 0 0.54463904215088732 0.83867056331134215 forward_v I I I I #
coedge $-1 $203 $204 $205 $206 reversed $77 $-1 #
coedge $-1 $125 $79 $207 $208 reversed $49 $-1 #
coedge $-1 $79 $124 $203 $209 reversed $49 $-1 #
coedge $-1 $205 $210 $79 $127 forward $211 $-1 #
edge $-1 $212 -0.542373931439041 $213 5.4966987656335995 $126 $214 forward 7 unknown #
loop $-1 $-1 $133 $80 #
plane-surface $-1 -21.340842383402233 -11.60026563758953 20.216112887508615 0 0.54463904215088732 0.83867056331134215 1 0 0 forward_v I I I I #
loop $-1 $-1 $215 $51 #
coedge $-1 $131 $131 $132 $216 reversed $81 $-1 #
coedge $-1 $132 $132 $131 $216 forward $83 $-1 #
coedge $-1 $133 $133 $84 $134 forward $128 $-1 #
edge $-1 $217 -4.5105196200327149e-016 $217 6.2831853071795996 $133 $218 forward 7 unknown #
face $-1 $219 $220 $30 $-1 $221 forward single #
loop $-1 $-1 $222 $85 #
plane-surface $-1 25.30696546066202 33.167610901840803 89.15259619083929 -1 0 0 0 0.54463904215088732 0.83867056331134215 forward_v I I I I #
coedge $-1 $223 $224 $225 $226 reversed $86 $-1 #
coedge $-1 $140 $88 $227 $228 reversed $55 $-1 #
coedge $-1 $88 $139 $223 $229 reversed $55 $-1 #
coedge $-1 $225 $230 $88 $142 forward $220 $-1 #
edge $-1 $231 -0.542373931439041 $232 5.4966987656335995 $141 $233 forward 7 unknown #
loop $-1 $-1 $148 $89 #
plane-surface $-1 19.757823957733663 -11.60026563758953 20.216112887508615 0 0.54463904215088732 0.83867056331134215 1 0 0 forward_v I I I I #
loop $-1 $-1 $234 $57 #
coedge $-1 $146 $146 $147 $235 reversed $90 $-1 #
coedge $-1 $147 $147 $146 $235 forward $92 $-1 #
coedge $-1 $148 $148 $93 $149 forward $143 $-1 #
edge $-1 $236 -4.5105196200327149e-016 $236 6.2831853071795996 $148 $237 forward 7 unknown #
face $-1 $238 $239 $32 $-1 $240 reversed single #
loop $-1 $-1 $241 $94 #
plane-surface $-1 -26.88998388633059 -61.894055921789786 70.497424321814236 1 0 0 0 0.54463904215088732 -0.83867056331134215 forward_v I I I I #
coedge $-1 $242 $243 $244 $245 reversed $95 $-1 #
coedge $-1 $155 $97 $246 $247 reversed $61 $-1 #
coedge $-1 $97 $154 $242 $248 reversed $61 $-1 #
coedge $-1 $244 $249 $97 $157 forward $250 $-1 #
edge $-1 $251 13.82084857853545 $252 19.859921275608098 $156 $253 forward 7 unknown #
loop $-1 $-1 $163 $98 #
plane-surface $-1 -21.340842383402233 -17.126179382359453 1.560941018483561 0 -0.54463904215088732 0.83867056331134215 1 0 0 forward_v I I I I #
loop $-1 $-1 $254 $63 #
coedge $-1 $161 $161 $162 $255 reversed $99 $-1 #
coedge $-1 $162 $162 $161 $255 forward $101 $-1 #
coedge $-1 $163 $163 $102 $164 forward $158 $-1 #
edge $-1 $256 5.8658533669274728e-016 $256 6.2831853071796013 $163 $257 forward 7 unknown #
face $-1 $258 $259 $34 $-1 $260 reversed single #
loop $-1 $-1 $261 $103 #
plane-surface $-1 14.208682454805306 -61.894055921789786 70.497424321814236 1 0 0 0 0.54463904215088732 -0.83867056331134215 forward_v I I I I #
coedge $-1 $262 $263 $264 $265 reversed $104 $-1 #
coedge $-1 $170 $106 $266 $267 reversed $67 $-1 #
coedge $-1 $106 $169 $262 $268 reversed $67 $-1 #
coedge $-1 $264 $269 $106 $172 forward $270 $-1 #
edge $-1 $271 13.82084857853545 $272 19.859921275608098 $171 $273 forward 7 unknown #
loop $-1 $-1 $178 $107 #
plane-surface $-1 19.757823957733663 -17.126179382359453 1.560941018483561 0 -0.54463904215088732 0.83867056331134215 1 0 0 forward_v I I I I #
loop $-1 $-1 $274 $69 #
coedge $-1 $176 $176 $177 $275 reversed $108 $-1 #
coedge $-1 $177 $177 $176 $275 forward $110 $-1 #
coedge $-1 $178 $178 $111 $179 forward $173 $-1 #
edge $-1 $276 5.8658533669274728e-016 $276 6.2831853071796013 $178 $277 forward 7 unknown #
face $-1 $278 $279 $27 $-1 $280 reversed single #
loop $-1 $-1 $281 $112 #
plane-surface $-1 -41.098666341135896 0 0 1 0 0 0 0 -1 forward_v I I I I #
coedge $-1 $282 $191 $283 $284 forward $113 $-1 #
coedge $-1 $285 $115 $282 $286 forward $73 $-1 #
coedge $-1 $115 $285 $287 $288 forward $73 $-1 #
coedge $-1 $194 $193 $115 $187 reversed $195 $-1 #
edge $-1 $289 -17.126179382359442 $290 17.126179382359442 $186 $291 forward 7 unknown #
coedge $-1 $117 $116 $292 $293 forward $46 $-1 #
coedge $-1 $294 $295 $116 $190 reversed $279 $-1 #
edge $-1 $197 -41.098666341135896 $296 41.098666341135896 $189 $297 forward 7 unknown #
coedge $-1 $183 $298 $117 $192 reversed $113 $-1 #
edge $-1 $299 -41.098666341135896 $196 41.098666341135896 $191 $300 forward 7 unknown #
coedge $-1 $186 $118 $298 $301 forward $195 $-1 #
coedge $-1 $118 $186 $294 $302 reversed $195 $-1 #
loop $-1 $-1 $193 $278 #
vertex $-1 $119 $303 #
vertex $-1 $119 $304 #
straight-curve $-1 41.098666341135896 0 5.4827607568880445 0 1 0 I I #
face $-1 $-1 $211 $28 $-1 $305 forward single #
loop $-1 $-1 $306 $120 #
plane-surface $-1 0 17.126179382359442 0 0 -1 0 0 0 -1 forward_v I I I I #
coedge $-1 $307 $308 $309 $310 reversed $121 $-1 #
coedge $-1 $311 $123 $125 $209 forward $77 $-1 #
coedge $-1 $123 $311 $307 $312 forward $77 $-1 #
coedge $-1 $309 $126 $123 $206 forward $211 $-1 #
edge $-1 $213 -16.219562694629474 $313 -5.1212796887727592 $205 $314 forward 7 unknown #
coedge $-1 $315 $316 $124 $208 forward $200 $-1 #
edge $-1 $317 -43.01535707693607 $212 -39.093537338531604 $207 $318 forward 7 unknown #
edge $-1 $213 27.051590118173767 $317 34.252358764718885 $125 $319 forward 7 unknown #
coedge $-1 $126 $309 $315 $320 forward $211 $-1 #
loop $-1 $-1 $309 $199 #
vertex $-1 $208 $321 #
vertex $-1 $127 $322 #
straight-curve $-1 -26.88998388633059 16.583805450920401 5.482760756888041 0 -1 0 I I #
coedge $-1 $215 $215 $-1 $323 reversed $130 $-1 #
edge $-1 $324 0 $324 6.2831853071796004 $131 $325 forward 7 unknown #
vertex $-1 $134 $326 #
ellipse-curve $-1 -21.340842383402233 14.106643033823115 3.5218508876858152 0 0.54463904215088732 0.83867056331134215 1.5 0 0 1 I I #
face $-1 $-1 $327 $30 $-1 $328 reversed single #
loop $-1 $-1 $141 $135 #
plane-surface $-1 0 0 5.4827607568880445 0 0 1 1 0 0 forward_v I I I I #
coedge $-1 $329 $330 $331 $332 reversed $136 $-1 #
coedge $-1 $333 $138 $140 $229 forward $86 $-1 #
coedge $-1 $138 $333 $329 $334 forward $86 $-1 #
coedge $-1 $331 $141 $138 $226 forward $220 $-1 #
edge $-1 $232 4.3297704759384743 $335 15.428053481795189 $225 $336 forward 7 unknown #
coedge $-1 $337 $338 $139 $228 forward $327 $-1 #
edge $-1 $339 -43.01535707693607 $231 -39.093537338531604 $227 $340 forward 7 unknown #
edge $-1 $232 27.051590118173767 $339 34.252358764718885 $140 $341 forward 7 unknown #
coedge $-1 $141 $331 $337 $342 forward $220 $-1 #
vertex $-1 $142 $343 #
vertex $-1 $142 $344 #
straight-curve $-1 14.208682454805306 16.583805450920401 5.482760756888041 0 -1 0 I I #
coedge $-1 $234 $234 $-1 $345 reversed $145 $-1 #
edge $-1 $346 0 $346 6.2831853071796004 $146 $347 forward 7 unknown #
vertex $-1 $149 $348 #
ellipse-curve $-1 19.757823957733663 14.106643033823115 3.5218508876858152 0 0.54463904215088732 0.83867056331134215 1.5 0 0 1 I I #
face $-1 $-1 $250 $32 $-1 $349 forward single #
loop $-1 $-1 $350 $150 #
plane-surface $-1 0 -17.126179382359442 0 0 1 0 0 0 1 forward_v I I I I #
coedge $-1 $351 $352 $353 $354 reversed $151 $-1 #
coedge $-1 $355 $153 $155 $248 forward $95 $-1 #
coedge $-1 $153 $355 $351 $356 forward $95 $-1 #
coedge $-1 $353 $156 $153 $245 forward $250 $-1 #
edge $-1 $252 5.1212796887727592 $357 16.219562694629474 $244 $358 forward 7 unknown #
coedge $-1 $359 $360 $154 $247 forward $239 $-1 #
edge $-1 $361 -33.68777114242355 $251 -29.765951404019074 $246 $362 forward 7 unknown #
edge $-1 $252 -7.2007686465451339 $361 -1.268762813602596e-014 $155 $363 forward 7 unknown #
coedge $-1 $156 $353 $359 $364 forward $250 $-1 #
loop $-1 $-1 $353 $238 #
vertex $-1 $247 $365 #
vertex $-1 $157 $366 #
straight-curve $-1 -15.791700880473876 -30.947027960894893 5.482760756888041 0 1 0 I I #
coedge $-1 $254 $254 $-1 $367 reversed $160 $-1 #
edge $-1 $368 0 $368 6.2831853071796004 $161 $369 forward 7 unknown #
vertex $-1 $164 $370 #
ellipse-curve $-1 -21.340842383402233 -14.106643033823115 3.5218508876858086 0 -0.54463904215088732 0.83867056331134215 1.5 0 0 1 I I #
face $-1 $-1 $270 $34 $-1 $371 forward single #
loop $-1 $-1 $372 $165 #
plane-surface $-1 0 -17.126179382359442 0 0 1 0 0 0 1 forward_v I I I I #
coedge $-1 $373 $374 $375 $376 reversed $166 $-1 #
coedge $-1 $377 $168 $170 $268 forward $104 $-1 #
coedge $-1 $168 $377 $373 $378 forward $104 $-1 #
coedge $-1 $375 $171 $168 $265 forward $270 $-1 #
edge $-1 $272 -15.428053481795189 $379 -4.3297704759384743 $264 $380 forward 7 unknown #
coedge $-1 $381 $382 $169 $267 forward $259 $-1 #
edge $-1 $383 -33.68777114242355 $271 -29.765951404019074 $266 $384 forward 7 unknown #
edge $-1 $272 -7.2007686465451339 $383 -1.268762813602596e-014 $170 $385 forward 7 unknown #
coedge $-1 $171 $375 $381 $386 forward $270 $-1 #
loop $-1 $-1 $375 $258 #
vertex $-1 $267 $387 #
vertex $-1 $172 $388 #
straight-curve $-1 25.30696546066202 -30.947027960894893 5.482760756888041 0 1 0 I I #
coedge $-1 $274 $274 $-1 $389 reversed $175 $-1 #
edge $-1 $390 0 $390 6.2831853071796004 $176 $391 forward 7 unknown #
vertex $-1 $179 $392 #
ellipse-curve $-1 19.757823957733663 -14.106643033823115 3.5218508876858086 0 -0.54463904215088732 0.83867056331134215 1.5 0 0 1 I I #
face $-1 $-1 $195 $27 $-1 $393 reversed single #
loop $-1 $-1 $294 $180 #
plane-surface $-1 0 17.126179382359442 0 0 -1 0 0 0 -1 forward_v I I I I #
coedge $-1 $394 $292 $295 $395 forward $181 $-1 #
coedge $-1 $298 $183 $184 $286 reversed $113 $-1 #
coedge $-1 $292 $394 $183 $284 reversed $181 $-1 #
edge $-1 $299 -5.4827607568880445 $396 5.4827607568880445 $283 $397 forward 7 unknown #
coedge $-1 $185 $184 $394 $398 forward $73 $-1 #
edge $-1 $290 -41.098666341135896 $396 41.098666341135896 $282 $399 forward 7 unknown #
coedge $-1 $295 $294 $185 $288 reversed $279 $-1 #
edge $-1 $400 -41.098666341135896 $289 41.098666341135896 $287 $401 forward 7 unknown #
vertex $-1 $187 $402 #
vertex $-1 $301 $403 #
straight-curve $-1 41.098666341135896 0 -5.4827607568880445 0 -1 0 I I #
coedge $-1 $281 $283 $188 $293 reversed $181 $-1 #
edge $-1 $296 -17.126179382359442 $299 17.126179382359442 $292 $404 forward 7 unknown #
coedge $-1 $287 $189 $194 $302 forward $279 $-1 #
coedge $-1 $189 $287 $281 $395 reversed $279 $-1 #
vertex $-1 $190 $405 #
straight-curve $-1 0 17.126179382359442 5.4827607568880445 -1 0 0 I I #
coedge $-1 $191 $282 $193 $301 reversed $113 $-1 #
vertex $-1 $293 $406 #
straight-curve $-1 0 -17.126179382359442 5.4827607568880445 1 0 0 I I #
edge $-1 $196 -5.4827607568880445 $290 5.4827607568880445 $193 $407 forward 7 unknown #
edge $-1 $197 -5.4827607568880445 $289 5.4827607568880445 $194 $408 forward 7 unknown #
point $-1 41.098666341135896 -17.126179382359442 5.4827607568880445 #
point $-1 41.098666341135896 17.126179382359442 5.4827607568880445 #
plane-surface $-1 0 0 5.4827607568880445 0 0 1 1 0 0 forward_v I I I I #
coedge $-1 $316 $315 $308 $409 forward $200 $-1 #
coedge $-1 $308 $202 $204 $312 reversed $121 $-1 #
coedge $-1 $202 $307 $306 $409 reversed $121 $-1 #
coedge $-1 $210 $205 $202 $310 forward $211 $-1 #
edge $-1 $313 -5.4966987656335995 $410 0.542373931439041 $309 $411 forward 7 unknown #
coedge $-1 $204 $203 $316 $412 reversed $77 $-1 #
edge $-1 $413 -34.252358764718885 $313 -27.051590118173767 $307 $414 forward 7 unknown #
vertex $-1 $206 $415 #
straight-curve $-1 -10.670421191701116 11.087106685286805 5.4827607568880428 1 0 0 I I #
coedge $-1 $306 $207 $210 $320 reversed $200 $-1 #
coedge $-1 $207 $306 $311 $412 forward $200 $-1 #
vertex $-1 $208 $416 #
straight-curve $-1 -26.88998388633059 17.126179382359442 44.576298095419645 0 0 1 I I #
straight-curve $-1 -26.88998388633059 -11.60026563758953 20.216112887508615 0 0.83867056331134215 -0.54463904215088732 I I #
edge $-1 $410 15.791700880473876 $212 26.88998388633059 $315 $417 forward 7 unknown #
point $-1 -26.88998388633059 17.126179382359442 5.4827607568880445 #
point $-1 -26.88998388633059 11.087106685286802 5.4827607568880445 #
edge $-1 $418 1 $418 0 $215 $-1 forward 7 unknown #
vertex $-1 $216 $419 #
ellipse-curve $-1 -21.340842383402233 11.722910183304503 -0.1487757435470286 0 0.54463904215088732 0.83867056331134215 1.5 0 0 1 I I #
point $-1 -19.840842383402233 14.106643033823106 3.5218508876858028 #
loop $-1 $-1 $227 $219 #
plane-surface $-1 0 17.126179382359442 0 0 -1 0 0 0 -1 forward_v I I I I #
coedge $-1 $330 $222 $224 $334 reversed $136 $-1 #
coedge $-1 $222 $329 $420 $421 reversed $136 $-1 #
coedge $-1 $230 $225 $222 $332 forward $220 $-1 #
edge $-1 $335 -5.4966987656335995 $422 0.542373931439041 $331 $423 forward 7 unknown #
coedge $-1 $224 $223 $338 $424 reversed $86 $-1 #
edge $-1 $425 -34.252358764718885 $335 -27.051590118173767 $329 $426 forward 7 unknown #
vertex $-1 $226 $427 #
straight-curve $-1 9.8789119788668316 11.087106685286805 5.4827607568880428 1 0 0 I I #
coedge $-1 $420 $227 $230 $342 reversed $327 $-1 #
coedge $-1 $227 $420 $333 $424 forward $327 $-1 #
vertex $-1 $228 $428 #
straight-curve $-1 14.208682454805306 17.126179382359442 44.576298095419645 0 0 1 I I #
straight-curve $-1 14.208682454805306 -11.60026563758953 20.216112887508615 0 0.83867056331134215 -0.54463904215088732 I I #
edge $-1 $422 -25.30696546066202 $231 -14.208682454805306 $337 $429 forward 7 unknown #
point $-1 14.208682454805306 17.126179382359442 5.4827607568880445 #
point $-1 14.208682454805306 11.087106685286802 5.4827607568880445 #
edge $-1 $430 1 $430 0 $234 $-1 forward 7 unknown #
vertex $-1 $235 $431 #
ellipse-curve $-1 19.757823957733663 11.722910183304503 -0.1487757435470286 0 0.54463904215088732 0.83867056331134215 1.5 0 0 1 I I #
point $-1 21.257823957733663 14.106643033823106 3.5218508876858028 #
plane-surface $-1 0 0 5.4827607568880445 0 0 1 1 0 0 forward_v I I I I #
coedge $-1 $360 $359 $352 $432 forward $239 $-1 #
coedge $-1 $352 $241 $243 $356 reversed $151 $-1 #
coedge $-1 $241 $351 $350 $432 reversed $151 $-1 #
coedge $-1 $249 $244 $241 $354 forward $250 $-1 #
edge $-1 $357 -19.859921275608098 $433 -13.82084857853545 $353 $434 forward 7 unknown #
coedge $-1 $243 $242 $360 $435 reversed $95 $-1 #
edge $-1 $436 1.268762813602596e-014 $357 7.2007686465451339 $351 $437 forward 7 unknown #
vertex $-1 $245 $438 #
straight-curve $-1 -10.670421191701116 -11.087106685286793 5.4827607568880445 -1 0 0 I I #
coedge $-1 $350 $246 $249 $364 reversed $239 $-1 #
coedge $-1 $246 $350 $355 $435 forward $239 $-1 #
vertex $-1 $247 $439 #
straight-curve $-1 -15.791700880473876 -17.126179382359442 35.248712160907118 0 0 1 I I #
straight-curve $-1 -15.791700880473876 -17.126179382359453 1.560941018483561 0 -0.83867056331134215 -0.54463904215088732 I I #
edge $-1 $433 -26.88998388633059 $251 -15.791700880473876 $359 $440 forward 7 unknown #
point $-1 -15.791700880473876 -17.126179382359442 5.4827607568880445 #
point $-1 -15.791700880473876 -11.087106685286795 5.4827607568880445 #
edge $-1 $441 1 $441 0 $254 $-1 forward 7 unknown #
vertex $-1 $255 $442 #
ellipse-curve $-1 -21.340842383402233 -11.722910183304506 -0.14877574354703216 0 -0.54463904215088732 0.83867056331134215 1.5 0 0 1 I I #
point $-1 -19.840842383402233 -14.106643033823108 3.5218508876857992 #
plane-surface $-1 0 0 5.4827607568880445 0 0 1 1 0 0 forward_v I I I I #
coedge $-1 $382 $381 $374 $443 forward $259 $-1 #
coedge $-1 $374 $261 $263 $378 reversed $166 $-1 #
coedge $-1 $261 $373 $372 $443 reversed $166 $-1 #
coedge $-1 $269 $264 $261 $376 forward $270 $-1 #
edge $-1 $379 -19.859921275608098 $444 -13.82084857853545 $375 $445 forward 7 unknown #
coedge $-1 $263 $262 $382 $446 reversed $104 $-1 #
edge $-1 $447 1.268762813602596e-014 $379 7.2007686465451339 $373 $448 forward 7 unknown #
vertex $-1 $265 $449 #
straight-curve $-1 9.8789119788668316 -11.087106685286793 5.4827607568880445 -1 0 0 I I #
coedge $-1 $372 $266 $269 $386 reversed $259 $-1 #
coedge $-1 $266 $372 $377 $446 forward $259 $-1 #
vertex $-1 $267 $450 #
straight-curve $-1 25.30696546066202 -17.126179382359442 35.248712160907118 0 0 1 I I #
straight-curve $-1 25.30696546066202 -17.126179382359453 1.560941018483561 0 -0.83867056331134215 -0.54463904215088732 I I #
edge $-1 $444 14.208682454805306 $271 25.30696546066202 $381 $451 forward 7 unknown #
point $-1 25.30696546066202 -17.126179382359442 5.4827607568880445 #
point $-1 25.30696546066202 -11.087106685286795 5.4827607568880445 #
edge $-1 $452 1 $452 0 $274 $-1 forward 7 unknown #
vertex $-1 $275 $453 #
ellipse-curve $-1 19.757823957733663 -11.722910183304506 -0.14877574354703216 0 -0.54463904215088732 0.83867056331134215 1.5 0 0 1 I I #
point $-1 21.257823957733663 -14.106643033823108 3.5218508876857992 #
plane-surface $-1 41.098666341135896 0 0 -1 0 0 0 0 1 forward_v I I I I #
coedge $-1 $283 $281 $285 $398 reversed $181 $-1 #
edge $-1 $296 -5.4827607568880445 $400 5.4827607568880445 $295 $454 forward 7 unknown #
vertex $-1 $398 $455 #
straight-curve $-1 -41.098666341135896 -17.126179382359442 0 0 0 -1 I I #
edge $-1 $396 -17.126179382359442 $400 17.126179382359442 $394 $456 forward 7 unknown #
straight-curve $-1 0 -17.126179382359442 -5.4827607568880445 -1 0 0 I I #
vertex $-1 $288 $457 #
straight-curve $-1 0 17.126179382359442 -5.4827607568880445 1 0 0 I I #
point $-1 41.098666341135896 17.126179382359442 -5.4827607568880445 #
point $-1 41.098666341135896 -17.126179382359442 -5.4827607568880445 #
straight-curve $-1 -41.098666341135896 0 5.4827607568880445 0 -1 0 I I #
point $-1 -41.098666341135896 17.126179382359442 5.4827607568880445 #
point $-1 -41.098666341135896 -17.126179382359442 5.4827607568880445 #
straight-curve $-1 41.098666341135896 -17.126179382359442 0 0 0 -1 I I #
straight-curve $-1 41.098666341135896 17.126179382359442 0 0 0 -1 I I #
edge $-1 $410 39.093537338531604 $413 43.01535707693607 $306 $458 forward 7 unknown #
vertex $-1 $320 $459 #
straight-curve $-1 -15.791700880473876 16.583805450920401 5.482760756888041 0 1 0 I I #
edge $-1 $413 5.1212796887727592 $317 16.219562694629474 $316 $460 forward 7 unknown #
vertex $-1 $412 $461 #
straight-curve $-1 -15.791700880473876 -11.60026563758953 20.216112887508615 0 -0.83867056331134215 0.54463904215088732 I I #
point $-1 -15.791700880473876 11.087106685286802 5.4827607568880445 #
point $-1 -26.88998388633059 17.126179382359446 1.5609410184835717 #
straight-curve $-1 0 17.126179382359442 5.4827607568880445 -1 0 0 I I #
vertex $-1 $323 $462 #
point $-1 -19.840842383402233 11.722910183304503 -0.1487757435470286 #
coedge $-1 $338 $337 $330 $421 forward $327 $-1 #
edge $-1 $422 39.093537338531604 $425 43.01535707693607 $420 $463 forward 7 unknown #
vertex $-1 $342 $464 #
straight-curve $-1 25.30696546066202 16.583805450920401 5.482760756888041 0 1 0 I I #
edge $-1 $425 -15.428053481795189 $339 -4.3297704759384743 $338 $465 forward 7 unknown #
vertex $-1 $424 $466 #
straight-curve $-1 25.30696546066202 -11.60026563758953 20.216112887508615 0 -0.83867056331134215 0.54463904215088732 I I #
point $-1 25.30696546066202 11.087106685286802 5.4827607568880445 #
point $-1 14.208682454805306 17.126179382359446 1.5609410184835717 #
straight-curve $-1 0 17.126179382359442 5.4827607568880445 -1 0 0 I I #
vertex $-1 $345 $467 #
point $-1 21.257823957733663 11.722910183304503 -0.1487757435470286 #
edge $-1 $433 29.765951404019074 $436 33.68777114242355 $350 $468 forward 7 unknown #
vertex $-1 $364 $469 #
straight-curve $-1 -26.88998388633059 -30.947027960894893 5.482760756888041 0 -1 0 I I #
edge $-1 $436 -16.219562694629474 $361 -5.1212796887727592 $360 $470 forward 7 unknown #
vertex $-1 $435 $471 #
straight-curve $-1 -26.88998388633059 -17.126179382359453 1.560941018483561 0 0.83867056331134215 0.54463904215088732 I I #
point $-1 -26.88998388633059 -11.087106685286795 5.4827607568880445 #
point $-1 -15.791700880473876 -17.126179382359442 1.5609410184835679 #
straight-curve $-1 0 -17.126179382359442 5.4827607568880445 1 0 0 I I #
vertex $-1 $367 $472 #
point $-1 -19.840842383402233 -11.722910183304506 -0.14877574354703216 #
edge $-1 $444 29.765951404019074 $447 33.68777114242355 $372 $473 forward 7 unknown #
vertex $-1 $386 $474 #
straight-curve $-1 14.208682454805306 -30.947027960894893 5.482760756888041 0 -1 0 I I #
edge $-1 $447 4.3297704759384743 $383 15.428053481795189 $382 $475 forward 7 unknown #
vertex $-1 $446 $476 #
straight-curve $-1 14.208682454805306 -17.126179382359453 1.560941018483561 0 0.83867056331134215 0.54463904215088732 I I #
point $-1 14.208682454805306 -11.087106685286795 5.4827607568880445 #
point $-1 25.30696546066202 -17.126179382359442 1.5609410184835679 #
straight-curve $-1 0 -17.126179382359442 5.4827607568880445 1 0 0 I I #
vertex $-1 $389 $477 #
point $-1 21.257823957733663 -11.722910183304506 -0.14877574354703216 #
straight-curve $-1 -41.098666341135896 17.126179382359442 0 0 0 -1 I I #
point $-1 -41.098666341135896 -17.126179382359442 -5.4827607568880445 #
straight-curve $-1 -41.098666341135896 0 -5.4827607568880445 0 1 0 I I #
point $-1 -41.098666341135896 17.126179382359442 -5.4827607568880445 #
straight-curve $-1 -15.791700880473876 17.126179382359442 44.576298095419645 0 0 -1 I I #
point $-1 -15.791700880473876 17.126179382359442 5.4827607568880445 #
straight-curve $-1 -10.670421191701116 17.126179382359442 1.5609410184835735 -1 0 0 I I #
point $-1 -15.791700880473876 17.126179382359446 1.5609410184835717 #
point $-1 -21.340842383402233 10.905951620078174 -1.406781588514042 #
straight-curve $-1 25.30696546066202 17.126179382359442 44.576298095419645 0 0 -1 I I #
point $-1 25.30696546066202 17.126179382359442 5.4827607568880445 #
straight-curve $-1 9.8789119788668316 17.126179382359442 1.5609410184835735 -1 0 0 I I #
point $-1 25.30696546066202 17.126179382359446 1.5609410184835717 #
point $-1 19.757823957733663 10.905951620078174 -1.406781588514042 #
straight-curve $-1 -26.88998388633059 -17.126179382359442 35.248712160907118 0 0 -1 I I #
point $-1 -26.88998388633059 -17.126179382359442 5.4827607568880445 #
straight-curve $-1 -10.670421191701116 -17.126179382359442 1.5609410184835668 1 0 0 I I #
point $-1 -26.88998388633059 -17.126179382359442 1.5609410184835679 #
point $-1 -21.340842383402233 -10.905951620078174 -1.4067815885140456 #
straight-curve $-1 14.208682454805306 -17.126179382359442 35.248712160907118 0 0 -1 I I #
point $-1 14.208682454805306 -17.126179382359442 5.4827607568880445 #
straight-curve $-1 9.8789119788668316 -17.126179382359442 1.5609410184835668 1 0 0 I I #
point $-1 14.208682454805306 -17.126179382359442 1.5609410184835679 #
point $-1 19.757823957733663 -10.905951620078174 -1.4067815885140456 #
End-of-ACIS-data 