500 0 7 0           
7 Unknown 11 ACIS 5.0 NT 24 Fri Mar 26 20:24:49 1999 
-1 9.9999999999999995e-007 1e-010 
body $-1 $7 $-1 $8 #
body $-1 $9 $-1 $10 #
body $-1 $11 $-1 $12 #
body $-1 $13 $-1 $14 #
body $-1 $15 $-1 $16 #
body $-1 $17 $-1 $18 #
body $-1 $19 $-1 $20 #
lump $-1 $-1 $21 $0 #
transform $-1 1 0 0 0 1 0 0 0 1 53.531907101657154 30.804821336610516 7.7953580749241844 1 rotate no_reflect no_shear #
lump $-1 $-1 $22 $1 #
transform $-1 1 0 0 0 1 0 0 0 1 53.531907101657154 30.804821336610516 7.7953580749241844 1 rotate no_reflect no_shear #
lump $-1 $-1 $23 $2 #
transform $-1 1 0 0 0 1 0 0 0 1 53.531907101657154 30.804821336610516 7.7953580749241844 1 rotate no_reflect no_shear #
lump $-1 $-1 $24 $3 #
transform $-1 1 0 0 0 1 0 0 0 1 53.531907101657154 30.804821336610516 7.7953580749241844 1 rotate no_reflect no_shear #
lump $-1 $-1 $25 $4 #
transform $-1 1 0 0 0 1 0 0 0 1 53.531907101657154 30.804821336610516 7.7953580749241844 1 rotate no_reflect no_shear #
lump $-1 $-1 $26 $5 #
transform $-1 1 0 0 0 1 0 0 0 1 53.531907101657154 30.804821336610516 7.7953580749241844 1 rotate no_reflect no_shear #
lump $-1 $-1 $27 $6 #
transform $-1 1 0 0 0 1 0 0 0 1 53.531907101657154 30.804821336610516 7.7953580749241844 1 rotate no_reflect no_shear #
shell $-1 $-1 $-1 $28 $-1 $7 #
shell $-1 $-1 $-1 $29 $-1 $9 #
shell $-1 $-1 $-1 $30 $-1 $11 #
shell $-1 $-1 $-1 $31 $-1 $13 #
shell $-1 $-1 $-1 $32 $-1 $15 #
shell $-1 $-1 $-1 $33 $-1 $17 #
shell $-1 $-1 $-1 $34 $-1 $19 #
face $-1 $35 $36 $21 $-1 $37 forward single #
face $-1 $38 $39 $22 $-1 $40 reversed single #
face $-1 $41 $42 $23 $-1 $43 reversed single #
face $-1 $44 $45 $24 $-1 $46 forward single #
face $-1 $47 $48 $25 $-1 $49 reversed single #
face $-1 $50 $51 $26 $-1 $52 forward single #
face $-1 $53 $54 $27 $-1 $55 forward single #
face $-1 $56 $57 $21 $-1 $58 reversed single #
loop $-1 $-1 $59 $28 #
plane-surface $-1 0 0 7.7953580749241844 0 0 1 1 0 0 forward_v I I I I #
face $-1 $60 $61 $22 $-1 $62 reversed single #
loop $-1 $-1 $63 $29 #
plane-surface $-1 -45.844219549851488 -28.181009009169077 0 1 0 0 0 0 -1 forward_v I I I I #
face $-1 $64 $65 $23 $-1 $66 reversed single #
loop $-1 $-1 $67 $30 #
plane-surface $-1 -53.531907101657133 -20.77310853303895 1.7609956271725338 -0.5877852598018023 0 0.80901698891910034 0.80901698891910034 0 0.5877852598018023 forward_v I I I I #
face $-1 $68 $69 $24 $-1 $70 forward single #
loop $-1 $71 $72 $31 #
cone-surface $-1 -47.792257429644387 -20.77310853303895 2.5940568943994728 0.5877852598018023 0 -0.80901698891910034 1.2135254833786506 0 0.88167788970270344 1 I I 0 1 1.5 forward I I I I #
face $-1 $73 $74 $25 $-1 $75 reversed single #
loop $-1 $-1 $76 $32 #
plane-surface $-1 92.719985188654178 13.820402281339316 147.26241670531411 0 -1 0 -0.86602541151947299 0 -0.49999998660252726 forward_v I I I I #
face $-1 $77 $78 $26 $-1 $79 forward single #
loop $-1 $80 $81 $33 #
cone-surface $-1 50.856591607534789 9.4923603104936589 3.9891536648914721 -0.86602541151947299 0 -0.49999998660252726 0.24999999330126363 0 -0.43301270575973649 1 I I 0 1 0.5 forward I I I I #
face $-1 $82 $83 $27 $-1 $84 forward single #
loop $-1 $85 $86 $34 #
cone-surface $-1 50.856591607534789 12.089185493001054 3.9891536648914721 -0.86602541151947299 0 -0.49999998660252726 0.24999999330126363 0 -0.43301270575973649 1 I I 0 1 0.5 forward I I I I #
face $-1 $87 $88 $21 $-1 $89 reversed single #
loop $-1 $-1 $90 $35 #
plane-surface $-1 0 0 -7.7953580749241844 0 0 1 1 0 0 forward_v I I I I #
coedge $-1 $91 $92 $93 $94 forward $36 $-1 #
face $-1 $95 $96 $22 $-1 $97 reversed single #
loop $-1 $-1 $98 $38 #
plane-surface $-1 -44.344219549851488 -25.557196681727639 0 0 -1 0 0 0 -1 forward_v I I I I #
coedge $-1 $99 $100 $101 $102 forward $39 $-1 #
face $-1 $103 $104 $23 $-1 $105 forward single #
loop $-1 $-1 $106 $41 #
plane-surface $-1 -116.46243894852412 -15.989020384350262 88.377440216131887 0 -1 0 0.5877852598018023 0 -0.80901698891910034 forward_v I I I I #
coedge $-1 $107 $108 $109 $110 reversed $42 $-1 #
face $-1 $-1 $111 $24 $-1 $112 forward single #
loop $-1 $113 $114 $44 #
cone-surface $-1 -45.764562419047863 -20.77310853303895 -0.1968258039387436 0.5877852598018023 0 -0.80901698891910034 0.60676274168932531 0 0.44083894485135172 1 I I -0.70710678118654757 0.70710678118654757 0.75 forward I I I I #
loop $-1 $-1 $115 $31 #
coedge $-1 $72 $72 $116 $117 reversed $45 $-1 #
face $-1 $118 $119 $25 $-1 $120 reversed single #
loop $-1 $-1 $121 $47 #
plane-surface $-1 1.4343845009534562e-006 10.79077290174736 93.730511038041485 0.86602541151947299 0 0.49999998660252726 0.49999998660252726 0 -0.86602541151947299 forward_v I I I I #
coedge $-1 $122 $123 $124 $125 reversed $48 $-1 #
face $-1 $-1 $126 $26 $-1 $127 forward single #
loop $-1 $128 $129 $50 #
cone-surface $-1 49.923381632396968 9.4923603104936589 3.4503646537843018 -0.86602541151947299 0 -0.49999998660252726 0.12499999665063181 0 -0.21650635287986825 1 I I -0.70710678118654746 0.70710678118654746 0.25 forward I I I I #
loop $-1 $-1 $130 $33 #
coedge $-1 $81 $81 $131 $132 reversed $51 $-1 #
face $-1 $-1 $133 $27 $-1 $134 forward single #
loop $-1 $135 $136 $53 #
cone-surface $-1 49.923381632396968 12.089185493001054 3.4503646537843018 -0.86602541151947299 0 -0.49999998660252726 0.12499999665063181 0 -0.21650635287986825 1 I I -0.70710678118654746 0.70710678118654746 0.25 forward I I I I #
loop $-1 $-1 $137 $34 #
coedge $-1 $86 $86 $138 $139 reversed $54 $-1 #
face $-1 $140 $141 $21 $-1 $142 reversed single #
loop $-1 $-1 $143 $56 #
plane-surface $-1 0 -30.804821336610516 0 0 1 0 0 0 1 forward_v I I I I #
coedge $-1 $144 $145 $146 $147 forward $57 $-1 #
coedge $-1 $148 $59 $149 $150 forward $36 $-1 #
coedge $-1 $59 $148 $151 $152 forward $36 $-1 #
coedge $-1 $153 $154 $59 $94 reversed $155 $-1 #
edge $-1 $156 -30.804821336610516 $157 30.804821336610516 $93 $158 forward 7 unknown #
face $-1 $159 $160 $22 $-1 $161 forward single #
loop $-1 $-1 $162 $60 #
plane-surface $-1 -42.844219549851488 -28.181009009169077 0 -1 0 0 0 0 1 forward_v I I I I #
coedge $-1 $163 $164 $165 $166 forward $61 $-1 #
coedge $-1 $167 $63 $168 $169 reversed $39 $-1 #
coedge $-1 $63 $167 $170 $171 reversed $39 $-1 #
coedge $-1 $164 $163 $63 $102 reversed $61 $-1 #
edge $-1 $172 -7.7953580749241844 $173 7.7953580749241844 $101 $174 forward 7 unknown #
face $-1 $175 $176 $23 $-1 $177 forward single #
loop $-1 $-1 $178 $64 #
plane-surface $-1 0 0 7.7953580749241844 0 0 1 1 0 0 forward_v I I I I #
coedge $-1 $179 $180 $181 $182 reversed $65 $-1 #
coedge $-1 $183 $67 $184 $185 reversed $42 $-1 #
coedge $-1 $67 $183 $179 $186 forward $42 $-1 #
coedge $-1 $181 $178 $67 $110 forward $104 $-1 #
edge $-1 $187 -15.170642415208164 $188 -5.6024661178307866 $109 $189 forward 7 unknown #
loop $-1 $-1 $116 $68 #
plane-surface $-1 -53.531907101657133 -20.77310853303895 1.7609956271725338 -0.5877852598018023 0 0.80901698891910034 0.80901698891910034 0 0.5877852598018023 forward_v I I I I #
loop $-1 $-1 $190 $44 #
coedge $-1 $114 $114 $115 $191 reversed $69 $-1 #
coedge $-1 $115 $115 $114 $191 forward $71 $-1 #
coedge $-1 $116 $116 $72 $117 forward $111 $-1 #
edge $-1 $192 0 $192 6.2831853071796004 $116 $193 forward 7 unknown #
face $-1 $194 $195 $25 $-1 $196 forward single #
loop $-1 $-1 $197 $73 #
plane-surface $-1 92.719985188654178 7.7611435221554039 147.26241670531411 0 1 0 0.86602541151947299 0 0.49999998660252726 forward_v I I I I #
coedge $-1 $198 $199 $200 $201 reversed $74 $-1 #
coedge $-1 $123 $76 $202 $203 reversed $48 $-1 #
coedge $-1 $76 $122 $198 $204 reversed $48 $-1 #
coedge $-1 $200 $205 $76 $125 forward $195 $-1 #
edge $-1 $206 -7.1719145073300652 $207 -3.2546907636012179 $124 $208 forward 7 unknown #
loop $-1 $-1 $131 $77 #
plane-surface $-1 1.4343845009534562e-006 10.79077290174736 93.730511038041485 0.86602541151947299 0 0.49999998660252726 0.49999998660252726 0 -0.86602541151947299 forward_v I I I I #
loop $-1 $-1 $209 $50 #
coedge $-1 $129 $129 $130 $210 reversed $78 $-1 #
coedge $-1 $130 $130 $129 $210 forward $80 $-1 #
coedge $-1 $131 $131 $81 $132 forward $126 $-1 #
edge $-1 $211 0 $211 6.2831853071796004 $131 $212 forward 7 unknown #
loop $-1 $-1 $138 $82 #
plane-surface $-1 1.4343845009534562e-006 10.79077290174736 93.730511038041485 0.86602541151947299 0 0.49999998660252726 0.49999998660252726 0 -0.86602541151947299 forward_v I I I I #
loop $-1 $-1 $213 $53 #
coedge $-1 $136 $136 $137 $214 reversed $83 $-1 #
coedge $-1 $137 $137 $136 $214 forward $85 $-1 #
coedge $-1 $138 $138 $86 $139 forward $133 $-1 #
edge $-1 $215 0 $215 6.2831853071796004 $138 $216 forward 7 unknown #
face $-1 $217 $218 $21 $-1 $219 reversed single #
loop $-1 $-1 $220 $87 #
plane-surface $-1 -53.531907101657154 0 0 1 0 0 0 0 -1 forward_v I I I I #
coedge $-1 $221 $151 $222 $223 forward $88 $-1 #
coedge $-1 $224 $90 $221 $225 forward $57 $-1 #
coedge $-1 $90 $224 $226 $227 forward $57 $-1 #
coedge $-1 $154 $153 $90 $147 reversed $155 $-1 #
edge $-1 $228 -30.804821336610516 $229 30.804821336610516 $146 $230 forward 7 unknown #
coedge $-1 $92 $91 $231 $232 forward $36 $-1 #
coedge $-1 $233 $234 $91 $150 reversed $218 $-1 #
edge $-1 $157 -53.531907101657154 $235 53.531907101657154 $149 $236 forward 7 unknown #
coedge $-1 $143 $237 $92 $152 reversed $88 $-1 #
edge $-1 $238 -53.531907101657154 $156 53.531907101657154 $151 $239 forward 7 unknown #
coedge $-1 $146 $93 $237 $240 forward $155 $-1 #
coedge $-1 $93 $146 $233 $241 reversed $155 $-1 #
loop $-1 $-1 $153 $217 #
vertex $-1 $94 $242 #
vertex $-1 $94 $243 #
straight-curve $-1 53.531907101657154 0 7.7953580749241844 0 1 0 I I #
face $-1 $244 $245 $22 $-1 $246 reversed single #
loop $-1 $-1 $247 $95 #
plane-surface $-1 0 0 7.7953580749241844 0 0 1 1 0 0 forward_v I I I I #
coedge $-1 $248 $249 $250 $251 reversed $96 $-1 #
coedge $-1 $101 $98 $252 $253 reversed $61 $-1 #
coedge $-1 $98 $101 $254 $255 reversed $61 $-1 #
coedge $-1 $249 $248 $98 $166 reversed $96 $-1 #
edge $-1 $256 -7.7953580749241844 $257 7.7953580749241844 $165 $258 forward 7 unknown #
coedge $-1 $100 $99 $259 $260 reversed $39 $-1 #
coedge $-1 $252 $261 $99 $169 forward $245 $-1 #
edge $-1 $262 -16.714316832025979 $173 -11.4666921771431 $168 $263 forward 7 unknown #
coedge $-1 $264 $254 $100 $171 forward $160 $-1 #
edge $-1 $172 11.4666921771431 $265 16.714316832025979 $170 $266 forward 7 unknown #
vertex $-1 $171 $267 #
vertex $-1 $169 $268 #
straight-curve $-1 -45.844219549851488 -25.557196681727639 0 0 0 -1 I I #
face $-1 $-1 $269 $23 $-1 $270 reversed single #
loop $-1 $-1 $184 $103 #
plane-surface $-1 -44.344219549851488 -25.557196681727639 0 0 -1 0 0 0 -1 forward_v I I I I #
coedge $-1 $109 $271 $272 $273 forward $104 $-1 #
coedge $-1 $180 $106 $108 $186 reversed $65 $-1 #
coedge $-1 $106 $179 $274 $275 reversed $65 $-1 #
coedge $-1 $271 $109 $106 $182 forward $104 $-1 #
edge $-1 $188 -13.004899585140137 $276 -4.6993123726049078 $181 $277 forward 7 unknown #
coedge $-1 $108 $107 $278 $279 reversed $42 $-1 #
coedge $-1 $272 $280 $107 $185 forward $176 $-1 #
edge $-1 $281 -3.1989540230319546 $187 7.0673164339482337 $184 $282 forward 7 unknown #
edge $-1 $283 -2.6381252543030654e-014 $188 10.266270456980163 $179 $284 forward 7 unknown #
vertex $-1 $185 $285 #
vertex $-1 $110 $286 #
straight-curve $-1 -45.226319889121925 -10.386554266519475 7.7953580749241844 0 1 0 I I #
coedge $-1 $190 $190 $-1 $287 reversed $113 $-1 #
edge $-1 $288 0 $288 6.2831853071796004 $114 $289 forward 7 unknown #
vertex $-1 $117 $290 #
ellipse-curve $-1 -49.379113495389547 -20.77310853303895 4.7781768510483467 -0.5877852598018023 0 0.80901698891910034 1.2135254833786506 0 0.88167788970270344 1 I I #
face $-1 $-1 $291 $25 $-1 $292 reversed single #
loop $-1 $-1 $124 $118 #
plane-surface $-1 0 0 7.7953580749241844 0 0 1 1 0 0 forward_v I I I I #
coedge $-1 $293 $294 $295 $296 reversed $119 $-1 #
coedge $-1 $297 $121 $123 $204 forward $74 $-1 #
coedge $-1 $121 $297 $293 $298 forward $74 $-1 #
coedge $-1 $295 $124 $121 $201 forward $195 $-1 #
edge $-1 $207 -8.425015830465636 $299 -2.365757071281724 $200 $300 forward 7 unknown #
coedge $-1 $301 $302 $122 $203 forward $291 $-1 #
edge $-1 $303 -72.62068106888529 $206 -65.835850277732874 $202 $304 forward 7 unknown #
edge $-1 $207 99.229366505933086 $303 107.06381420331437 $123 $305 forward 7 unknown #
coedge $-1 $124 $295 $301 $306 forward $195 $-1 #
vertex $-1 $203 $307 #
vertex $-1 $125 $308 #
straight-curve $-1 46.359992594327089 13.820402281339316 7.7953580749241809 -1 0 0 I I #
coedge $-1 $209 $209 $-1 $309 reversed $128 $-1 #
edge $-1 $310 0 $310 6.2831853071796004 $129 $311 forward 7 unknown #
vertex $-1 $132 $312 #
ellipse-curve $-1 51.57329522979272 9.4923603104936589 4.4029426793479951 0.86602541151947299 0 0.49999998660252726 0.24999999330126363 0 -0.43301270575973649 1 I I #
coedge $-1 $213 $213 $-1 $313 reversed $135 $-1 #
edge $-1 $314 0 $314 6.2831853071796004 $136 $315 forward 7 unknown #
vertex $-1 $139 $316 #
ellipse-curve $-1 51.57329522979272 12.089185493001054 4.4029426793479951 0.86602541151947299 0 0.49999998660252726 0.24999999330126363 0 -0.43301270575973649 1 I I #
face $-1 $-1 $155 $21 $-1 $317 reversed single #
loop $-1 $-1 $233 $140 #
plane-surface $-1 0 30.804821336610516 0 0 -1 0 0 0 -1 forward_v I I I I #
coedge $-1 $318 $231 $234 $319 forward $141 $-1 #
coedge $-1 $237 $143 $144 $225 reversed $88 $-1 #
coedge $-1 $231 $318 $143 $223 reversed $141 $-1 #
edge $-1 $238 -7.7953580749241844 $320 7.7953580749241844 $222 $321 forward 7 unknown #
coedge $-1 $145 $144 $318 $322 forward $57 $-1 #
edge $-1 $229 -53.531907101657154 $320 53.531907101657154 $221 $323 forward 7 unknown #
coedge $-1 $234 $233 $145 $227 reversed $218 $-1 #
edge $-1 $324 -53.531907101657154 $228 53.531907101657154 $226 $325 forward 7 unknown #
vertex $-1 $147 $326 #
vertex $-1 $240 $327 #
straight-curve $-1 53.531907101657154 0 -7.7953580749241844 0 -1 0 I I #
coedge $-1 $220 $222 $148 $232 reversed $141 $-1 #
edge $-1 $235 -30.804821336610516 $238 30.804821336610516 $231 $328 forward 7 unknown #
coedge $-1 $226 $149 $154 $241 forward $218 $-1 #
coedge $-1 $149 $226 $220 $319 reversed $218 $-1 #
vertex $-1 $150 $329 #
straight-curve $-1 0 30.804821336610516 7.7953580749241844 -1 0 0 I I #
coedge $-1 $151 $221 $153 $240 reversed $88 $-1 #
vertex $-1 $232 $330 #
straight-curve $-1 0 -30.804821336610516 7.7953580749241844 1 0 0 I I #
edge $-1 $156 -7.7953580749241844 $229 7.7953580749241844 $153 $331 forward 7 unknown #
edge $-1 $157 -7.7953580749241844 $228 7.7953580749241844 $154 $332 forward 7 unknown #
point $-1 53.531907101657154 -30.804821336610516 7.7953580749241844 #
point $-1 53.531907101657154 30.804821336610516 7.7953580749241844 #
face $-1 $-1 $333 $22 $-1 $334 reversed single #
loop $-1 $-1 $335 $159 #
plane-surface $-1 0 0 -7.7953580749241844 0 0 1 1 0 0 forward_v I I I I #
coedge $-1 $254 $264 $249 $336 forward $160 $-1 #
coedge $-1 $165 $162 $335 $337 reversed $96 $-1 #
coedge $-1 $162 $165 $247 $336 reversed $96 $-1 #
coedge $-1 $338 $339 $162 $251 forward $333 $-1 #
edge $-1 $340 -7.7953580749241844 $341 7.7953580749241844 $250 $342 forward 7 unknown #
coedge $-1 $335 $168 $163 $253 forward $245 $-1 #
edge $-1 $173 -23.672109774925744 $257 -20.672109774925744 $252 $343 forward 7 unknown #
coedge $-1 $170 $247 $164 $255 forward $160 $-1 #
edge $-1 $256 20.672109774925744 $172 23.672109774925744 $254 $344 forward 7 unknown #
vertex $-1 $255 $345 #
vertex $-1 $253 $346 #
straight-curve $-1 -42.844219549851488 -25.557196681727639 0 0 0 -1 I I #
coedge $-1 $339 $338 $167 $260 forward $333 $-1 #
edge $-1 $265 -7.7953580749241844 $262 7.7953580749241844 $259 $347 forward 7 unknown #
coedge $-1 $168 $335 $339 $348 forward $245 $-1 #
vertex $-1 $169 $349 #
straight-curve $-1 -45.844219549851488 -14.090504504584539 -7.7953580749241844 0 1 0 I I #
coedge $-1 $247 $170 $338 $350 forward $160 $-1 #
vertex $-1 $350 $351 #
straight-curve $-1 -45.844219549851488 -14.090504504584539 7.7953580749241844 0 -1 0 I I #
point $-1 -45.844219549851488 -25.557196681727639 7.7953580749241844 #
point $-1 -45.844219549851488 -25.557196681727639 -7.7953580749241844 #
loop $-1 $-1 $352 $175 #
plane-surface $-1 -53.531907101657154 0 0 1 0 0 0 0 -1 forward_v I I I I #
coedge $-1 $178 $181 $353 $354 forward $104 $-1 #
coedge $-1 $280 $184 $178 $273 reversed $176 $-1 #
edge $-1 $355 4.6993123726049078 $187 13.004899585140137 $178 $356 forward 7 unknown #
coedge $-1 $278 $353 $180 $275 forward $269 $-1 #
edge $-1 $276 36.393362033141756 $283 42.427724480893424 $274 $357 forward 7 unknown #
vertex $-1 $354 $358 #
straight-curve $-1 -58.231219474262062 -15.989020384350262 7.7953580749241809 -1 0 0 I I #
coedge $-1 $352 $274 $183 $279 forward $269 $-1 #
edge $-1 $283 5.6024661178307866 $281 15.170642415208164 $278 $359 forward 7 unknown #
coedge $-1 $184 $272 $352 $360 reversed $176 $-1 #
vertex $-1 $360 $361 #
straight-curve $-1 -50.9438989502532 -25.557196681727639 3.6412936486943766 0.80901698891910034 0 0.5877852598018023 I I #
vertex $-1 $279 $362 #
straight-curve $-1 -53.531907101657133 -15.989020384350262 1.7609956271725338 0.80901698891910034 0 0.5877852598018023 I I #
point $-1 -45.226319889121925 -25.557196681727639 7.7953580749241844 #
point $-1 -45.226319889121925 -15.989020384350262 7.7953580749241844 #
edge $-1 $363 1 $363 0 $190 $-1 forward 7 unknown #
vertex $-1 $191 $364 #
ellipse-curve $-1 -46.205401363899213 -20.77310853303895 0.40993693775058171 -0.5877852598018023 0 0.80901698891910034 1.2135254833786506 0 0.88167788970270344 1 I I #
point $-1 -48.165588012010907 -20.77310853303895 5.6598547407510669 #
loop $-1 $-1 $202 $194 #
plane-surface $-1 53.531907101657154 0 0 -1 0 0 0 0 1 forward_v I I I I #
coedge $-1 $294 $197 $199 $298 reversed $119 $-1 #
coedge $-1 $197 $293 $365 $366 reversed $119 $-1 #
coedge $-1 $205 $200 $197 $296 forward $195 $-1 #
edge $-1 $299 3.2546907636012179 $367 7.1719145073300652 $295 $368 forward 7 unknown #
coedge $-1 $199 $198 $302 $369 reversed $74 $-1 #
edge $-1 $370 -107.06381420331437 $299 -99.229366505933086 $293 $371 forward 7 unknown #
vertex $-1 $201 $372 #
straight-curve $-1 49.6146833579283 5.39538645087368 7.795358074924188 0 -1 0 I I #
coedge $-1 $365 $202 $205 $306 reversed $291 $-1 #
coedge $-1 $202 $365 $297 $369 forward $291 $-1 #
vertex $-1 $203 $373 #
straight-curve $-1 53.531907101657154 13.820402281339316 73.631208352657055 0 0 1 I I #
straight-curve $-1 1.4343845009534562e-006 13.820402281339316 93.730511038041485 0.49999998660252726 0 -0.86602541151947299 I I #
edge $-1 $367 7.7611435221554039 $206 13.820402281339316 $301 $374 forward 7 unknown #
point $-1 53.531907101657154 13.820402281339316 7.7953580749241844 #
point $-1 49.614683357928307 13.820402281339316 7.7953580749241809 #
edge $-1 $375 1 $375 0 $209 $-1 forward 7 unknown #
vertex $-1 $210 $376 #
ellipse-curve $-1 50.139887985276836 9.4923603104936589 3.5753646504349335 0.86602541151947299 0 0.49999998660252726 0.24999999330126363 0 -0.43301270575973649 1 I I #
point $-1 51.823295223094014 9.4923603104936589 3.9699299735882736 #
edge $-1 $377 1 $377 0 $213 $-1 forward 7 unknown #
vertex $-1 $214 $378 #
ellipse-curve $-1 50.139887985276836 12.089185493001054 3.5753646504349335 0.86602541151947299 0 0.49999998660252726 0.24999999330126363 0 -0.43301270575973649 1 I I #
point $-1 51.823295223094014 12.089185493001054 3.9699299735882736 #
plane-surface $-1 53.531907101657154 0 0 -1 0 0 0 0 1 forward_v I I I I #
coedge $-1 $222 $220 $224 $322 reversed $141 $-1 #
edge $-1 $235 -7.7953580749241844 $324 7.7953580749241844 $234 $379 forward 7 unknown #
vertex $-1 $322 $380 #
straight-curve $-1 -53.531907101657154 -30.804821336610516 0 0 0 -1 I I #
edge $-1 $320 -30.804821336610516 $324 30.804821336610516 $318 $381 forward 7 unknown #
straight-curve $-1 0 -30.804821336610516 -7.7953580749241844 -1 0 0 I I #
vertex $-1 $227 $382 #
straight-curve $-1 0 30.804821336610516 -7.7953580749241844 1 0 0 I I #
point $-1 53.531907101657154 30.804821336610516 -7.7953580749241844 #
point $-1 53.531907101657154 -30.804821336610516 -7.7953580749241844 #
straight-curve $-1 -53.531907101657154 0 7.7953580749241844 0 -1 0 I I #
point $-1 -53.531907101657154 30.804821336610516 7.7953580749241844 #
point $-1 -53.531907101657154 -30.804821336610516 7.7953580749241844 #
straight-curve $-1 53.531907101657154 -30.804821336610516 0 0 0 -1 I I #
straight-curve $-1 53.531907101657154 30.804821336610516 0 0 0 -1 I I #
loop $-1 $-1 $250 $244 #
plane-surface $-1 0 -30.804821336610516 0 0 1 0 0 0 1 forward_v I I I I #
coedge $-1 $261 $252 $248 $337 forward $245 $-1 #
edge $-1 $341 -16.714316832025979 $256 -11.4666921771431 $247 $383 forward 7 unknown #
edge $-1 $257 11.4666921771431 $340 16.714316832025979 $335 $384 forward 7 unknown #
coedge $-1 $259 $250 $264 $350 reversed $333 $-1 #
coedge $-1 $250 $259 $261 $348 reversed $333 $-1 #
vertex $-1 $348 $385 #
vertex $-1 $251 $386 #
straight-curve $-1 -42.844219549851488 -30.804821336610516 0 0 0 1 I I #
straight-curve $-1 -22.172109774925744 -25.557196681727639 -7.7953580749241844 1 0 0 I I #
straight-curve $-1 -22.172109774925744 -25.557196681727639 7.7953580749241844 -1 0 0 I I #
point $-1 -42.844219549851488 -25.557196681727639 7.7953580749241844 #
point $-1 -42.844219549851488 -25.557196681727639 -7.7953580749241844 #
straight-curve $-1 -45.844219549851488 -30.804821336610516 0 0 0 -1 I I #
edge $-1 $340 42.844219549851488 $262 45.844219549851488 $339 $387 forward 7 unknown #
point $-1 -45.844219549851488 -30.804821336610516 -7.7953580749241844 #
edge $-1 $265 -45.844219549851488 $341 -42.844219549851488 $338 $388 forward 7 unknown #
point $-1 -45.844219549851488 -30.804821336610516 7.7953580749241844 #
coedge $-1 $353 $278 $280 $360 forward $269 $-1 #
coedge $-1 $274 $352 $271 $354 reversed $269 $-1 #
edge $-1 $276 15.989020384350262 $355 25.557196681727639 $353 $389 forward 7 unknown #
vertex $-1 $273 $390 #
straight-curve $-1 -58.231219474262062 -25.557196681727639 7.7953580749241809 1 0 0 I I #
straight-curve $-1 -53.531907101657154 -15.989020384350262 44.188720108065944 0 0 -1 I I #
point $-1 -53.531907101657154 -15.989020384350262 7.7953580749241844 #
straight-curve $-1 -53.531907101657154 -10.386554266519475 1.7609956271725169 0 -1 0 I I #
edge $-1 $281 -42.427724480893424 $355 -36.393362033141756 $352 $391 forward 7 unknown #
point $-1 -53.531907101657154 -25.557196681727639 1.7609956271725182 #
point $-1 -53.531907101657154 -15.989020384350262 1.7609956271725182 #
vertex $-1 $287 $392 #
point $-1 -44.991875880520567 -20.77310853303895 1.291614827453285 #
coedge $-1 $302 $301 $294 $366 forward $291 $-1 #
edge $-1 $367 65.835850277732874 $370 72.62068106888529 $365 $393 forward 7 unknown #
vertex $-1 $306 $394 #
straight-curve $-1 46.359992594327089 7.7611435221554039 7.7953580749241809 1 0 0 I I #
edge $-1 $370 2.365757071281724 $303 8.425015830465636 $302 $395 forward 7 unknown #
vertex $-1 $369 $396 #
straight-curve $-1 1.4343845009534562e-006 7.7611435221554039 93.730511038041485 -0.49999998660252726 0 0.86602541151947299 I I #
point $-1 49.614683357928307 7.7611435221554039 7.7953580749241809 #
point $-1 53.531907101657154 13.820402281339316 1.0105272837717649 #
straight-curve $-1 53.531907101657154 0 7.7953580749241844 0 1 0 I I #
vertex $-1 $309 $397 #
point $-1 50.389887978578102 9.4923603104936589 3.1423519446751973 #
vertex $-1 $313 $398 #
point $-1 50.389887978578102 12.089185493001054 3.1423519446751973 #
straight-curve $-1 -53.531907101657154 30.804821336610516 0 0 0 -1 I I #
point $-1 -53.531907101657154 -30.804821336610516 -7.7953580749241844 #
straight-curve $-1 -53.531907101657154 0 -7.7953580749241844 0 1 0 I I #
point $-1 -53.531907101657154 30.804821336610516 -7.7953580749241844 #
straight-curve $-1 -42.844219549851488 -14.090504504584539 7.7953580749241844 0 1 0 I I #
straight-curve $-1 -42.844219549851488 -14.090504504584539 -7.7953580749241844 0 -1 0 I I #
point $-1 -42.844219549851488 -30.804821336610516 -7.7953580749241844 #
point $-1 -42.844219549851488 -30.804821336610516 7.7953580749241844 #
straight-curve $-1 0 -30.804821336610516 -7.7953580749241844 -1 0 0 I I #
straight-curve $-1 0 -30.804821336610516 7.7953580749241844 1 0 0 I I #
straight-curve $-1 -53.531907101657154 0 7.7953580749241844 0 -1 0 I I #
point $-1 -53.531907101657154 -25.557196681727639 7.7953580749241844 #
straight-curve $-1 -53.531907101657154 -25.557196681727639 44.188720108065944 0 0 1 I I #
point $-1 -45.323723474196512 -20.77310853303895 -0.80358854562806892 #
straight-curve $-1 53.531907101657154 7.7611435221554039 73.631208352657055 0 0 -1 I I #
point $-1 53.531907101657154 7.7611435221554039 7.7953580749241844 #
straight-curve $-1 53.531907101657154 5.39538645087368 1.0105272837717578 0 1 0 I I #
point $-1 53.531907101657154 7.7611435221554039 1.0105272837717649 #
point $-1 49.706875279517099 9.4923603104936589 3.3253646571336701 #
point $-1 49.706875279517099 12.089185493001054 3.3253646571336701 #
End-of-ACIS-data 