500 0 10 0           
7 Unknown 11 ACIS 5.0 NT 24 Fri Mar 26 19:38:08 1999 
-1 9.9999999999999995e-007 1e-010 
body $-1 $10 $-1 $11 #
body $-1 $12 $-1 $13 #
body $-1 $14 $-1 $15 #
body $-1 $16 $-1 $17 #
body $-1 $18 $-1 $19 #
body $-1 $20 $-1 $21 #
body $-1 $22 $-1 $23 #
body $-1 $24 $-1 $25 #
body $-1 $26 $-1 $27 #
body $-1 $28 $-1 $29 #
lump $-1 $-1 $30 $0 #
transform $-1 1 0 0 0 1 0 0 0 1 71.166722617267368 40.095922714374105 9.5551323620551667 1 rotate no_reflect no_shear #
lump $-1 $-1 $31 $1 #
transform $-1 1 0 0 0 1 0 0 0 1 71.166722617267368 40.095922714374105 9.5551323620551667 1 rotate no_reflect no_shear #
lump $-1 $-1 $32 $2 #
transform $-1 1 0 0 0 1 0 0 0 1 71.166722617267368 40.095922714374105 9.5551323620551667 1 rotate no_reflect no_shear #
lump $-1 $-1 $33 $3 #
transform $-1 1 0 0 0 1 0 0 0 1 71.166722617267368 40.095922714374105 9.5551323620551667 1 rotate no_reflect no_shear #
lump $-1 $-1 $34 $4 #
transform $-1 1 0 0 0 1 0 0 0 1 71.166722617267368 40.095922714374105 9.5551323620551667 1 rotate no_reflect no_shear #
lump $-1 $-1 $35 $5 #
transform $-1 1 0 0 0 1 0 0 0 1 71.166722617267368 40.095922714374105 9.5551323620551667 1 rotate no_reflect no_shear #
lump $-1 $-1 $36 $6 #
transform $-1 1 0 0 0 1 0 0 0 1 71.166722617267368 40.095922714374105 9.5551323620551667 1 rotate no_reflect no_shear #
lump $-1 $-1 $37 $7 #
transform $-1 1 0 0 0 1 0 0 0 1 71.166722617267368 40.095922714374105 9.5551323620551667 1 rotate no_reflect no_shear #
lump $-1 $-1 $38 $8 #
transform $-1 1 0 0 0 1 0 0 0 1 71.166722617267368 40.095922714374105 9.5551323620551667 1 rotate no_reflect no_shear #
lump $-1 $-1 $39 $9 #
transform $-1 1 0 0 0 1 0 0 0 1 71.166722617267368 40.095922714374105 9.5551323620551667 1 rotate no_reflect no_shear #
shell $-1 $-1 $-1 $40 $-1 $10 #
shell $-1 $-1 $-1 $41 $-1 $12 #
shell $-1 $-1 $-1 $42 $-1 $14 #
shell $-1 $-1 $-1 $43 $-1 $16 #
shell $-1 $-1 $-1 $44 $-1 $18 #
shell $-1 $-1 $-1 $45 $-1 $20 #
shell $-1 $-1 $-1 $46 $-1 $22 #
shell $-1 $-1 $-1 $47 $-1 $24 #
shell $-1 $-1 $-1 $48 $-1 $26 #
shell $-1 $-1 $-1 $49 $-1 $28 #
face $-1 $50 $51 $30 $-1 $52 forward single #
face $-1 $53 $54 $31 $-1 $55 forward single #
face $-1 $56 $57 $32 $-1 $58 reversed single #
face $-1 $59 $60 $33 $-1 $61 forward single #
face $-1 $62 $63 $34 $-1 $64 forward single #
face $-1 $65 $66 $35 $-1 $67 reversed single #
face $-1 $68 $69 $36 $-1 $70 forward single #
face $-1 $71 $72 $37 $-1 $73 forward single #
face $-1 $74 $75 $38 $-1 $76 reversed single #
face $-1 $77 $78 $39 $-1 $79 forward single #
face $-1 $80 $81 $30 $-1 $82 reversed single #
loop $-1 $-1 $83 $40 #
plane-surface $-1 0 0 9.5551323620551667 0 0 1 1 0 0 forward_v I I I I #
face $-1 $84 $85 $31 $-1 $86 reversed single #
loop $-1 $-1 $87 $41 #
plane-surface $-1 -71.166722617267368 0 0 1 0 0 0 0 -1 forward_v I I I I #
face $-1 $88 $89 $32 $-1 $90 reversed single #
loop $-1 $-1 $91 $42 #
plane-surface $-1 -40.811919888006102 56.045720354535128 164.21331471322077 1 0 0 0 -0.57357644374324357 -0.81915203911291934 forward_v I I I I #
face $-1 $92 $93 $33 $-1 $94 forward single #
loop $-1 $95 $96 $43 #
cone-surface $-1 -36.820077048381791 33.332608648951485 4.01852487201604 0 -0.57357644374324357 -0.81915203911291934 1 0 0 1 I I 0 1 1 forward I I I I #
face $-1 $97 $98 $34 $-1 $99 forward single #
loop $-1 $100 $101 $44 #
cone-surface $-1 -30.83231278894533 33.332608648951485 4.01852487201604 0 -0.57357644374324357 -0.81915203911291934 1 0 0 1 I I 0 1 1 forward I I I I #
face $-1 $102 $103 $35 $-1 $104 reversed single #
loop $-1 $-1 $105 $45 #
plane-surface $-1 37.135815235513078 56.045720354535128 164.21331471322077 1 0 0 0 -0.57357644374324357 -0.81915203911291934 forward_v I I I I #
face $-1 $106 $107 $36 $-1 $108 forward single #
loop $-1 $109 $110 $46 #
cone-surface $-1 41.12765807513739 33.332608648951485 4.01852487201604 0 -0.57357644374324357 -0.81915203911291934 1 0 0 1 I I 0 1 1 forward I I I I #
face $-1 $111 $112 $37 $-1 $113 forward single #
loop $-1 $114 $115 $47 #
cone-surface $-1 47.11542233457385 33.332608648951485 4.01852487201604 0 -0.57357644374324357 -0.81915203911291934 1 0 0 1 I I 0 1 1 forward I I I I #
face $-1 $116 $117 $38 $-1 $118 reversed single #
loop $-1 $-1 $119 $48 #
plane-surface $-1 38.953580879906504 -155.24609994187281 85.992514444438925 -1 0 0 0 -0.80901700255871778 0.5877852410284794 forward_v I I I I #
face $-1 $120 $121 $39 $-1 $122 forward single #
loop $-1 $123 $124 $49 #
cone-surface $-1 24.197768132452097 -35.023423278535795 4.1643632633565275 0 0.80901700255871778 -0.5877852410284794 2 0 0 1 I I 0 1 2 forward I I I I #
face $-1 $125 $126 $30 $-1 $127 reversed single #
loop $-1 $-1 $128 $50 #
plane-surface $-1 0 0 -9.5551323620551667 0 0 1 1 0 0 forward_v I I I I #
coedge $-1 $129 $130 $131 $132 forward $51 $-1 #
face $-1 $133 $134 $31 $-1 $135 forward single #
loop $-1 $-1 $136 $53 #
plane-surface $-1 0 40.095922714374105 0 0 -1 0 0 0 -1 forward_v I I I I #
coedge $-1 $137 $138 $139 $140 forward $54 $-1 #
face $-1 $141 $142 $32 $-1 $143 reversed single #
loop $-1 $-1 $144 $56 #
plane-surface $-1 -33.82619491866356 -25.59339098881302 47.620582815384608 0 0.57357644374324357 0.81915203911291934 1 0 0 forward_v I I I I #
coedge $-1 $145 $146 $147 $148 reversed $57 $-1 #
face $-1 $-1 $149 $33 $-1 $150 forward single #
loop $-1 $151 $152 $59 #
cone-surface $-1 -36.820077048381791 31.945615139987659 2.0376928948703839 0 -0.57357644374324357 -0.81915203911291934 0.5 0 0 1 I I -0.70710678118654746 0.70710678118654746 0.5 forward I I I I #
loop $-1 $-1 $153 $43 #
coedge $-1 $96 $96 $154 $155 reversed $60 $-1 #
face $-1 $-1 $156 $34 $-1 $157 forward single #
loop $-1 $158 $159 $62 #
cone-surface $-1 -30.83231278894533 31.945615139987659 2.0376928948703839 0 -0.57357644374324357 -0.81915203911291934 0.5 0 0 1 I I -0.70710678118654746 0.70710678118654746 0.5 forward I I I I #
loop $-1 $-1 $160 $44 #
coedge $-1 $101 $101 $161 $162 reversed $63 $-1 #
face $-1 $163 $164 $35 $-1 $165 reversed single #
loop $-1 $-1 $166 $65 #
plane-surface $-1 44.12154020485562 -25.59339098881302 47.620582815384608 0 0.57357644374324357 0.81915203911291934 1 0 0 forward_v I I I I #
coedge $-1 $167 $168 $169 $170 reversed $66 $-1 #
face $-1 $-1 $171 $36 $-1 $172 forward single #
loop $-1 $173 $174 $68 #
cone-surface $-1 41.12765807513739 31.945615139987659 2.0376928948703839 0 -0.57357644374324357 -0.81915203911291934 0.5 0 0 1 I I -0.70710678118654746 0.70710678118654746 0.5 forward I I I I #
loop $-1 $-1 $175 $46 #
coedge $-1 $110 $110 $176 $177 reversed $69 $-1 #
face $-1 $-1 $178 $37 $-1 $179 forward single #
loop $-1 $180 $181 $71 #
cone-surface $-1 47.11542233457385 31.945615139987659 2.0376928948703839 0 -0.57357644374324357 -0.81915203911291934 0.5 0 0 1 I I -0.70710678118654746 0.70710678118654746 0.5 forward I I I I #
loop $-1 $-1 $182 $47 #
coedge $-1 $115 $115 $183 $184 reversed $72 $-1 #
face $-1 $185 $186 $38 $-1 $187 reversed single #
loop $-1 $-1 $188 $74 #
plane-surface $-1 24.197768132452097 -40.095922714374112 2.3310160308440544 0 -0.80901700255871778 0.5877852410284794 1 0 0 forward_v I I I I #
coedge $-1 $189 $190 $191 $192 reversed $75 $-1 #
face $-1 $-1 $193 $39 $-1 $194 forward single #
loop $-1 $195 $196 $77 #
cone-surface $-1 24.197768132452097 -31.766220634242561 1.797867089234968 0 0.80901700255871778 -0.5877852410284794 1 0 0 1 I I -0.70710678118654746 0.70710678118654746 1 forward I I I I #
loop $-1 $-1 $197 $49 #
coedge $-1 $124 $124 $198 $199 reversed $78 $-1 #
face $-1 $200 $201 $30 $-1 $202 reversed single #
loop $-1 $-1 $203 $80 #
plane-surface $-1 0 -40.095922714374105 0 0 1 0 0 0 1 forward_v I I I I #
coedge $-1 $204 $205 $206 $207 forward $81 $-1 #
coedge $-1 $208 $83 $209 $210 forward $51 $-1 #
coedge $-1 $83 $208 $211 $212 forward $51 $-1 #
coedge $-1 $213 $214 $83 $132 reversed $215 $-1 #
edge $-1 $216 -40.095922714374105 $217 40.095922714374105 $131 $218 forward 7 unknown #
face $-1 $219 $220 $31 $-1 $221 reversed single #
loop $-1 $-1 $139 $84 #
plane-surface $-1 -76.314395260363398 0 -6.2550001271426527 0 0 1 1 0 0 forward_v I I I I #
coedge $-1 $222 $223 $138 $224 forward $85 $-1 #
coedge $-1 $225 $87 $226 $227 reversed $54 $-1 #
coedge $-1 $87 $225 $136 $224 reversed $54 $-1 #
coedge $-1 $228 $229 $87 $140 reversed $134 $-1 #
edge $-1 $230 -40.095922714374105 $231 40.095922714374105 $139 $232 forward 7 unknown #
face $-1 $233 $234 $32 $-1 $235 forward single #
loop $-1 $-1 $236 $88 #
plane-surface $-1 -26.840469949321022 56.045720354535128 164.21331471322077 -1 0 0 0 0.57357644374324357 0.81915203911291934 forward_v I I I I #
coedge $-1 $237 $238 $239 $240 reversed $89 $-1 #
coedge $-1 $146 $91 $241 $242 reversed $57 $-1 #
coedge $-1 $91 $145 $237 $243 reversed $57 $-1 #
coedge $-1 $239 $244 $91 $148 forward $234 $-1 #
edge $-1 $245 -12.073062537106541 $246 -0.74684498044576131 $147 $247 forward 7 unknown #
loop $-1 $-1 $154 $92 #
plane-surface $-1 -33.82619491866356 -25.59339098881302 47.620582815384608 0 0.57357644374324357 0.81915203911291934 1 0 0 forward_v I I I I #
loop $-1 $-1 $248 $59 #
coedge $-1 $152 $152 $153 $249 reversed $93 $-1 #
coedge $-1 $153 $153 $152 $249 forward $95 $-1 #
coedge $-1 $154 $154 $96 $155 forward $149 $-1 #
edge $-1 $250 -4.3320979111114552e-016 $250 6.2831853071796004 $154 $251 forward 7 unknown #
loop $-1 $-1 $161 $97 #
plane-surface $-1 -33.82619491866356 -25.59339098881302 47.620582815384608 0 0.57357644374324357 0.81915203911291934 1 0 0 forward_v I I I I #
loop $-1 $-1 $252 $62 #
coedge $-1 $159 $159 $160 $253 reversed $98 $-1 #
coedge $-1 $160 $160 $159 $253 forward $100 $-1 #
coedge $-1 $161 $161 $101 $162 forward $156 $-1 #
edge $-1 $254 -4.3320979111114552e-016 $254 6.2831853071796004 $161 $255 forward 7 unknown #
face $-1 $256 $257 $35 $-1 $258 forward single #
loop $-1 $-1 $259 $102 #
plane-surface $-1 51.107265174198162 56.045720354535128 164.21331471322077 -1 0 0 0 0.57357644374324357 0.81915203911291934 forward_v I I I I #
coedge $-1 $260 $261 $262 $263 reversed $103 $-1 #
coedge $-1 $168 $105 $264 $265 reversed $66 $-1 #
coedge $-1 $105 $167 $260 $266 reversed $66 $-1 #
coedge $-1 $262 $267 $105 $170 forward $257 $-1 #
edge $-1 $268 -12.073062537106541 $269 -0.74684498044576131 $169 $270 forward 7 unknown #
loop $-1 $-1 $176 $106 #
plane-surface $-1 44.12154020485562 -25.59339098881302 47.620582815384608 0 0.57357644374324357 0.81915203911291934 1 0 0 forward_v I I I I #
loop $-1 $-1 $271 $68 #
coedge $-1 $174 $174 $175 $272 reversed $107 $-1 #
coedge $-1 $175 $175 $174 $272 forward $109 $-1 #
coedge $-1 $176 $176 $110 $177 forward $171 $-1 #
edge $-1 $273 -4.3320979111114552e-016 $273 6.2831853071796004 $176 $274 forward 7 unknown #
loop $-1 $-1 $183 $111 #
plane-surface $-1 44.12154020485562 -25.59339098881302 47.620582815384608 0 0.57357644374324357 0.81915203911291934 1 0 0 forward_v I I I I #
loop $-1 $-1 $275 $71 #
coedge $-1 $181 $181 $182 $276 reversed $112 $-1 #
coedge $-1 $182 $182 $181 $276 forward $114 $-1 #
coedge $-1 $183 $183 $115 $184 forward $178 $-1 #
edge $-1 $277 -4.3320979111114552e-016 $277 6.2831853071796004 $183 $278 forward 7 unknown #
face $-1 $279 $280 $38 $-1 $281 reversed single #
loop $-1 $-1 $282 $116 #
plane-surface $-1 9.4419553849976907 -155.24609994187281 85.992514444438925 1 0 0 0 0.80901700255871778 -0.5877852410284794 forward_v I I I I #
coedge $-1 $283 $284 $285 $286 reversed $117 $-1 #
coedge $-1 $190 $119 $287 $288 reversed $75 $-1 #
coedge $-1 $119 $189 $283 $289 reversed $75 $-1 #
coedge $-1 $285 $290 $119 $192 forward $291 $-1 #
edge $-1 $292 37.527127256562302 $293 42.775754844769885 $191 $294 forward 7 unknown #
loop $-1 $-1 $198 $120 #
plane-surface $-1 24.197768132452097 -40.095922714374112 2.3310160308440544 0 -0.80901700255871778 0.5877852410284794 1 0 0 forward_v I I I I #
loop $-1 $-1 $295 $77 #
coedge $-1 $196 $196 $197 $296 reversed $121 $-1 #
coedge $-1 $197 $197 $196 $296 forward $123 $-1 #
coedge $-1 $198 $198 $124 $199 forward $193 $-1 #
edge $-1 $297 -6.7421662530474143e-017 $297 6.2831853071796004 $198 $298 forward 7 unknown #
face $-1 $299 $300 $30 $-1 $301 reversed single #
loop $-1 $-1 $302 $125 #
plane-surface $-1 -71.166722617267368 0 0 1 0 0 0 0 -1 forward_v I I I I #
coedge $-1 $303 $211 $304 $305 forward $126 $-1 #
coedge $-1 $306 $128 $303 $307 forward $81 $-1 #
coedge $-1 $128 $306 $308 $309 forward $81 $-1 #
coedge $-1 $214 $213 $128 $207 reversed $215 $-1 #
edge $-1 $310 -40.095922714374105 $311 40.095922714374105 $206 $312 forward 7 unknown #
coedge $-1 $130 $129 $313 $314 forward $51 $-1 #
coedge $-1 $315 $316 $129 $210 reversed $300 $-1 #
edge $-1 $217 -71.166722617267368 $317 71.166722617267368 $209 $318 forward 7 unknown #
coedge $-1 $203 $319 $130 $212 reversed $126 $-1 #
edge $-1 $320 -71.166722617267368 $216 71.166722617267368 $211 $321 forward 7 unknown #
coedge $-1 $206 $131 $319 $322 forward $215 $-1 #
coedge $-1 $131 $206 $315 $323 reversed $215 $-1 #
loop $-1 $-1 $213 $299 #
vertex $-1 $132 $324 #
vertex $-1 $132 $325 #
straight-curve $-1 71.166722617267368 0 9.5551323620551667 0 1 0 I I #
face $-1 $326 $327 $31 $-1 $328 reversed single #
loop $-1 $-1 $329 $133 #
plane-surface $-1 -81.462067903459427 0 -7.9050662445989097 1 0 0 0 0 -1 forward_v I I I I #
coedge $-1 $330 $136 $331 $332 reversed $85 $-1 #
coedge $-1 $136 $330 $228 $333 reversed $85 $-1 #
edge $-1 $230 6.2550001271426527 $334 9.5551323620551667 $136 $335 forward 7 unknown #
coedge $-1 $138 $137 $336 $337 reversed $54 $-1 #
coedge $-1 $338 $339 $137 $227 forward $340 $-1 #
edge $-1 $341 -9.5551323620551667 $231 -6.2550001271426527 $226 $342 forward 7 unknown #
coedge $-1 $343 $139 $223 $333 forward $134 $-1 #
coedge $-1 $139 $343 $338 $344 forward $134 $-1 #
vertex $-1 $224 $345 #
vertex $-1 $344 $346 #
straight-curve $-1 -71.166722617267368 0 -6.2550001271426527 0 -1 0 I I #
face $-1 $-1 $347 $32 $-1 $348 reversed single #
loop $-1 $-1 $147 $141 #
plane-surface $-1 0 0 9.5551323620551667 0 0 1 1 0 0 forward_v I I I I #
coedge $-1 $349 $350 $351 $352 reversed $142 $-1 #
coedge $-1 $353 $144 $146 $243 forward $89 $-1 #
coedge $-1 $144 $353 $349 $354 forward $89 $-1 #
coedge $-1 $351 $147 $144 $240 forward $234 $-1 #
edge $-1 $246 -23.898822428674322 $355 -9.9273724899892422 $239 $356 forward 7 unknown #
coedge $-1 $357 $358 $145 $242 forward $347 $-1 #
edge $-1 $359 -80.482228059455053 $245 -72.551524994555223 $241 $360 forward 7 unknown #
edge $-1 $246 66.365086761424081 $359 80.191845428748195 $146 $361 forward 7 unknown #
coedge $-1 $147 $351 $357 $362 forward $234 $-1 #
vertex $-1 $242 $363 #
vertex $-1 $148 $364 #
straight-curve $-1 -40.811919888006102 28.022860177267564 9.5551323620551614 0 -1 0 I I #
coedge $-1 $248 $248 $-1 $365 reversed $151 $-1 #
edge $-1 $366 0 $366 6.2831853071796004 $152 $367 forward 7 unknown #
vertex $-1 $155 $368 #
ellipse-curve $-1 -36.820077048381791 34.432813936043708 5.5897808296052558 0 0.57357644374324357 0.81915203911291934 1 0 0 1 I I #
coedge $-1 $252 $252 $-1 $369 reversed $158 $-1 #
edge $-1 $370 0 $370 6.2831853071796004 $159 $371 forward 7 unknown #
vertex $-1 $162 $372 #
ellipse-curve $-1 -30.83231278894533 34.432813936043708 5.5897808296052558 0 0.57357644374324357 0.81915203911291934 1 0 0 1 I I #
face $-1 $-1 $373 $35 $-1 $374 reversed single #
loop $-1 $-1 $169 $163 #
plane-surface $-1 0 0 9.5551323620551667 0 0 1 1 0 0 forward_v I I I I #
coedge $-1 $375 $376 $377 $378 reversed $164 $-1 #
coedge $-1 $379 $166 $168 $266 forward $103 $-1 #
coedge $-1 $166 $379 $375 $380 forward $103 $-1 #
coedge $-1 $377 $169 $166 $263 forward $257 $-1 #
edge $-1 $269 15.075045133085268 $381 29.046495071770352 $262 $382 forward 7 unknown #
coedge $-1 $383 $384 $167 $265 forward $373 $-1 #
edge $-1 $385 -80.482228059455053 $268 -72.551524994555223 $264 $386 forward 7 unknown #
edge $-1 $269 66.365086761424081 $385 80.191845428748195 $168 $387 forward 7 unknown #
coedge $-1 $169 $377 $383 $388 forward $257 $-1 #
vertex $-1 $170 $389 #
vertex $-1 $170 $390 #
straight-curve $-1 37.135815235513078 28.022860177267564 9.5551323620551614 0 -1 0 I I #
coedge $-1 $271 $271 $-1 $391 reversed $173 $-1 #
edge $-1 $392 0 $392 6.2831853071796004 $174 $393 forward 7 unknown #
vertex $-1 $177 $394 #
ellipse-curve $-1 41.12765807513739 34.432813936043708 5.5897808296052558 0 0.57357644374324357 0.81915203911291934 1 0 0 1 I I #
coedge $-1 $275 $275 $-1 $395 reversed $180 $-1 #
edge $-1 $396 0 $396 6.2831853071796004 $181 $397 forward 7 unknown #
vertex $-1 $184 $398 #
ellipse-curve $-1 47.11542233457385 34.432813936043708 5.5897808296052558 0 0.57357644374324357 0.81915203911291934 1 0 0 1 I I #
face $-1 $-1 $291 $38 $-1 $399 forward single #
loop $-1 $-1 $400 $185 #
plane-surface $-1 0 -40.095922714374105 0 0 1 0 0 0 1 forward_v I I I I #
coedge $-1 $401 $402 $403 $404 reversed $186 $-1 #
coedge $-1 $405 $188 $190 $289 forward $117 $-1 #
coedge $-1 $188 $405 $401 $406 forward $117 $-1 #
coedge $-1 $403 $191 $188 $286 forward $291 $-1 #
edge $-1 $293 -26.854696813680455 $407 2.6569286812283579 $285 $408 forward 7 unknown #
coedge $-1 $409 $410 $189 $288 forward $280 $-1 #
edge $-1 $411 -40.665241191375401 $292 -33.441124860164294 $287 $412 forward 7 unknown #
edge $-1 $293 -8.9294987724152186 $411 -1.2080531203272332e-014 $190 $413 forward 7 unknown #
coedge $-1 $191 $403 $409 $414 forward $291 $-1 #
loop $-1 $-1 $403 $279 #
vertex $-1 $288 $415 #
vertex $-1 $192 $416 #
straight-curve $-1 38.953580879906504 -77.623049970936407 9.5551323620551685 0 1 0 I I #
coedge $-1 $295 $295 $-1 $417 reversed $195 $-1 #
edge $-1 $418 0 $418 6.2831853071796004 $196 $419 forward 7 unknown #
vertex $-1 $199 $420 #
ellipse-curve $-1 24.197768132452097 -37.471608920270313 5.9430741964496123 0 -0.80901700255871778 0.5877852410284794 2 0 0 1 I I #
face $-1 $-1 $215 $30 $-1 $421 reversed single #
loop $-1 $-1 $315 $200 #
plane-surface $-1 0 40.095922714374105 0 0 -1 0 0 0 -1 forward_v I I I I #
coedge $-1 $422 $313 $316 $423 forward $201 $-1 #
coedge $-1 $319 $203 $204 $307 reversed $126 $-1 #
coedge $-1 $313 $422 $203 $305 reversed $201 $-1 #
edge $-1 $320 -9.5551323620551667 $424 9.5551323620551667 $304 $425 forward 7 unknown #
coedge $-1 $205 $204 $422 $426 forward $81 $-1 #
edge $-1 $311 -71.166722617267368 $424 71.166722617267368 $303 $427 forward 7 unknown #
coedge $-1 $316 $315 $205 $309 reversed $300 $-1 #
edge $-1 $428 -71.166722617267368 $310 71.166722617267368 $308 $429 forward 7 unknown #
vertex $-1 $207 $430 #
vertex $-1 $322 $431 #
straight-curve $-1 71.166722617267368 0 -9.5551323620551667 0 -1 0 I I #
coedge $-1 $302 $304 $208 $314 reversed $201 $-1 #
edge $-1 $317 -40.095922714374105 $320 40.095922714374105 $313 $432 forward 7 unknown #
coedge $-1 $308 $209 $214 $323 forward $300 $-1 #
coedge $-1 $209 $308 $302 $423 reversed $300 $-1 #
vertex $-1 $210 $433 #
straight-curve $-1 0 40.095922714374105 9.5551323620551667 -1 0 0 I I #
coedge $-1 $211 $303 $213 $322 reversed $126 $-1 #
vertex $-1 $314 $434 #
straight-curve $-1 0 -40.095922714374105 9.5551323620551667 1 0 0 I I #
edge $-1 $216 -9.5551323620551667 $311 9.5551323620551667 $213 $435 forward 7 unknown #
edge $-1 $217 -9.5551323620551667 $310 9.5551323620551667 $214 $436 forward 7 unknown #
point $-1 71.166722617267368 -40.095922714374105 9.5551323620551667 #
point $-1 71.166722617267368 40.095922714374105 9.5551323620551667 #
face $-1 $-1 $340 $31 $-1 $437 reversed single #
loop $-1 $-1 $336 $219 #
plane-surface $-1 0 0 -9.5551323620551667 0 0 1 1 0 0 forward_v I I I I #
coedge $-1 $438 $439 $330 $440 forward $220 $-1 #
coedge $-1 $223 $222 $329 $440 reversed $85 $-1 #
coedge $-1 $336 $441 $222 $332 forward $327 $-1 #
edge $-1 $442 -81.462067903459427 $334 -71.166722617267368 $222 $443 forward 7 unknown #
edge $-1 $230 -5.1476726430960298 $444 5.1476726430960298 $223 $445 forward 7 unknown #
vertex $-1 $224 $446 #
straight-curve $-1 -71.166722617267368 40.095922714374105 0 0 0 -1 I I #
coedge $-1 $447 $331 $225 $337 forward $327 $-1 #
edge $-1 $334 -40.095922714374105 $341 40.095922714374105 $336 $448 forward 7 unknown #
coedge $-1 $449 $226 $229 $344 reversed $340 $-1 #
coedge $-1 $226 $449 $447 $450 reversed $340 $-1 #
loop $-1 $-1 $226 $326 #
vertex $-1 $450 $451 #
straight-curve $-1 -71.166722617267368 -40.095922714374105 0 0 0 1 I I #
coedge $-1 $229 $228 $439 $452 forward $134 $-1 #
edge $-1 $453 -5.1476726430960298 $231 5.1476726430960298 $338 $454 forward 7 unknown #
point $-1 -71.166722617267368 40.095922714374105 -6.2550001271426527 #
point $-1 -71.166722617267368 -40.095922714374105 -6.2550001271426527 #
loop $-1 $-1 $241 $233 #
plane-surface $-1 0 40.095922714374105 0 0 -1 0 0 0 -1 forward_v I I I I #
coedge $-1 $350 $236 $238 $354 reversed $142 $-1 #
coedge $-1 $236 $349 $455 $456 reversed $142 $-1 #
coedge $-1 $244 $239 $236 $352 forward $234 $-1 #
edge $-1 $355 0.74684498044576131 $457 12.073062537106541 $351 $458 forward 7 unknown #
coedge $-1 $238 $237 $358 $459 reversed $89 $-1 #
edge $-1 $460 -80.191845428748195 $355 -66.365086761424081 $349 $461 forward 7 unknown #
vertex $-1 $240 $462 #
straight-curve $-1 -16.91309745933178 28.769705157713318 9.555132362055172 1 0 0 I I #
coedge $-1 $455 $241 $244 $362 reversed $347 $-1 #
coedge $-1 $241 $455 $353 $459 forward $347 $-1 #
vertex $-1 $242 $463 #
straight-curve $-1 -40.811919888006102 40.095922714374105 82.106657356610384 0 0 1 I I #
straight-curve $-1 -40.811919888006102 -25.59339098881302 47.620582815384608 0 0.81915203911291934 -0.57357644374324357 I I #
edge $-1 $457 26.840469949321022 $245 40.811919888006102 $357 $464 forward 7 unknown #
point $-1 -40.811919888006102 40.095922714374105 9.5551323620551667 #
point $-1 -40.811919888006102 28.769705157713325 9.5551323620551685 #
edge $-1 $465 1 $465 0 $248 $-1 forward 7 unknown #
vertex $-1 $249 $466 #
ellipse-curve $-1 -36.820077048381791 32.232403361859284 2.4472689144268434 0 0.57357644374324357 0.81915203911291934 1 0 0 1 I I #
point $-1 -35.820077048381791 34.432813936043694 5.5897808296052363 #
edge $-1 $467 1 $467 0 $252 $-1 forward 7 unknown #
vertex $-1 $253 $468 #
ellipse-curve $-1 -30.83231278894533 32.232403361859284 2.4472689144268434 0 0.57357644374324357 0.81915203911291934 1 0 0 1 I I #
point $-1 -29.83231278894533 34.432813936043694 5.5897808296052363 #
loop $-1 $-1 $264 $256 #
plane-surface $-1 0 40.095922714374105 0 0 -1 0 0 0 -1 forward_v I I I I #
coedge $-1 $376 $259 $261 $380 reversed $164 $-1 #
coedge $-1 $259 $375 $469 $470 reversed $164 $-1 #
coedge $-1 $267 $262 $259 $378 forward $257 $-1 #
edge $-1 $381 0.74684498044576131 $471 12.073062537106541 $377 $472 forward 7 unknown #
coedge $-1 $261 $260 $384 $473 reversed $103 $-1 #
edge $-1 $474 -80.191845428748195 $381 -66.365086761424081 $375 $475 forward 7 unknown #
vertex $-1 $263 $476 #
straight-curve $-1 22.06077010242781 28.769705157713318 9.555132362055172 1 0 0 I I #
coedge $-1 $469 $264 $267 $388 reversed $373 $-1 #
coedge $-1 $264 $469 $379 $473 forward $373 $-1 #
vertex $-1 $265 $477 #
straight-curve $-1 37.135815235513078 40.095922714374105 82.106657356610384 0 0 1 I I #
straight-curve $-1 37.135815235513078 -25.59339098881302 47.620582815384608 0 0.81915203911291934 -0.57357644374324357 I I #
edge $-1 $471 -51.107265174198162 $268 -37.135815235513078 $383 $478 forward 7 unknown #
point $-1 37.135815235513078 40.095922714374105 9.5551323620551667 #
point $-1 37.135815235513078 28.769705157713325 9.5551323620551685 #
edge $-1 $479 1 $479 0 $271 $-1 forward 7 unknown #
vertex $-1 $272 $480 #
ellipse-curve $-1 41.12765807513739 32.232403361859284 2.4472689144268434 0 0.57357644374324357 0.81915203911291934 1 0 0 1 I I #
point $-1 42.12765807513739 34.432813936043694 5.5897808296052363 #
edge $-1 $481 1 $481 0 $275 $-1 forward 7 unknown #
vertex $-1 $276 $482 #
ellipse-curve $-1 47.11542233457385 32.232403361859284 2.4472689144268434 0 0.57357644374324357 0.81915203911291934 1 0 0 1 I I #
point $-1 48.11542233457385 34.432813936043694 5.5897808296052363 #
plane-surface $-1 0 0 9.5551323620551667 0 0 1 1 0 0 forward_v I I I I #
coedge $-1 $410 $409 $402 $483 forward $280 $-1 #
coedge $-1 $402 $282 $284 $406 reversed $186 $-1 #
coedge $-1 $282 $401 $400 $483 reversed $186 $-1 #
coedge $-1 $290 $285 $282 $404 forward $291 $-1 #
edge $-1 $407 -42.775754844769885 $484 -37.527127256562302 $403 $485 forward 7 unknown #
coedge $-1 $284 $283 $410 $486 reversed $117 $-1 #
edge $-1 $487 1.2080531203272332e-014 $407 8.9294987724152186 $401 $488 forward 7 unknown #
vertex $-1 $286 $489 #
straight-curve $-1 12.098884066226049 -34.847295126166522 9.5551323620551667 -1 0 0 I I #
coedge $-1 $400 $287 $290 $414 reversed $280 $-1 #
coedge $-1 $287 $400 $405 $486 forward $280 $-1 #
vertex $-1 $288 $490 #
straight-curve $-1 38.953580879906504 -40.095922714374105 42.996257222219462 0 0 1 I I #
straight-curve $-1 38.953580879906504 -40.095922714374112 2.3310160308440544 0 -0.5877852410284794 -0.80901700255871778 I I #
edge $-1 $484 9.4419553849976907 $292 38.953580879906504 $409 $491 forward 7 unknown #
point $-1 38.953580879906504 -40.095922714374105 9.5551323620551667 #
point $-1 38.953580879906504 -34.847295126166522 9.5551323620551649 #
edge $-1 $492 1 $492 0 $295 $-1 forward 7 unknown #
vertex $-1 $296 $493 #
ellipse-curve $-1 24.197768132452097 -32.575237636801276 2.3856523302634471 0 -0.80901700255871778 0.5877852410284794 2 0 0 1 I I #
point $-1 26.197768132452097 -37.471608920270306 5.943074196449607 #
plane-surface $-1 71.166722617267368 0 0 -1 0 0 0 0 1 forward_v I I I I #
coedge $-1 $304 $302 $306 $426 reversed $201 $-1 #
edge $-1 $317 -9.5551323620551667 $428 9.5551323620551667 $316 $494 forward 7 unknown #
vertex $-1 $426 $495 #
straight-curve $-1 -71.166722617267368 -40.095922714374105 0 0 0 -1 I I #
edge $-1 $424 -40.095922714374105 $428 40.095922714374105 $422 $496 forward 7 unknown #
straight-curve $-1 0 -40.095922714374105 -9.5551323620551667 -1 0 0 I I #
vertex $-1 $309 $497 #
straight-curve $-1 0 40.095922714374105 -9.5551323620551667 1 0 0 I I #
point $-1 71.166722617267368 40.095922714374105 -9.5551323620551667 #
point $-1 71.166722617267368 -40.095922714374105 -9.5551323620551667 #
straight-curve $-1 -71.166722617267368 0 9.5551323620551667 0 -1 0 I I #
point $-1 -71.166722617267368 40.095922714374105 9.5551323620551667 #
point $-1 -71.166722617267368 -40.095922714374105 9.5551323620551667 #
straight-curve $-1 71.166722617267368 -40.095922714374105 0 0 0 -1 I I #
straight-curve $-1 71.166722617267368 40.095922714374105 0 0 0 -1 I I #
plane-surface $-1 0 -40.095922714374105 0 0 1 0 0 0 1 forward_v I I I I #
coedge $-1 $498 $329 $441 $499 reversed $220 $-1 #
coedge $-1 $329 $498 $343 $452 reversed $220 $-1 #
edge $-1 $444 -1.650066117456257 $442 1.650066117456257 $330 $500 forward 7 unknown #
coedge $-1 $331 $447 $438 $499 forward $327 $-1 #
vertex $-1 $332 $501 #
straight-curve $-1 0 40.095922714374105 -9.5551323620551667 1 0 0 I I #
vertex $-1 $333 $502 #
straight-curve $-1 -76.314395260363398 40.095922714374105 -6.2550001271426527 -1 0 0 I I #
point $-1 -71.166722617267368 40.095922714374105 -9.5551323620551667 #
coedge $-1 $441 $336 $339 $450 forward $327 $-1 #
straight-curve $-1 -71.166722617267368 0 -9.5551323620551667 0 -1 0 I I #
coedge $-1 $339 $338 $498 $503 forward $340 $-1 #
edge $-1 $341 -5.1476726430960298 $504 5.1476726430960298 $339 $505 forward 7 unknown #
point $-1 -71.166722617267368 -40.095922714374105 -9.5551323620551667 #
edge $-1 $444 -40.095922714374105 $453 40.095922714374105 $439 $506 forward 7 unknown #
vertex $-1 $452 $507 #
straight-curve $-1 -76.314395260363398 -40.095922714374105 -6.2550001271426527 1 0 0 I I #
coedge $-1 $358 $357 $350 $456 forward $347 $-1 #
edge $-1 $457 72.551524994555223 $460 80.482228059455053 $455 $508 forward 7 unknown #
vertex $-1 $362 $509 #
straight-curve $-1 -26.840469949321022 28.022860177267564 9.5551323620551614 0 1 0 I I #
edge $-1 $460 9.9273724899892422 $359 23.898822428674322 $358 $510 forward 7 unknown #
vertex $-1 $459 $511 #
straight-curve $-1 -26.840469949321022 -25.59339098881302 47.620582815384608 0 -0.81915203911291934 0.57357644374324357 I I #
point $-1 -26.840469949321022 28.769705157713325 9.5551323620551685 #
point $-1 -40.811919888006102 40.095922714374105 1.6244292971553378 #
straight-curve $-1 0 40.095922714374105 9.5551323620551667 -1 0 0 I I #
vertex $-1 $365 $512 #
point $-1 -35.820077048381791 32.232403361859284 2.4472689144268434 #
vertex $-1 $369 $513 #
point $-1 -29.83231278894533 32.232403361859284 2.4472689144268434 #
coedge $-1 $384 $383 $376 $470 forward $373 $-1 #
edge $-1 $471 72.551524994555223 $474 80.482228059455053 $469 $514 forward 7 unknown #
vertex $-1 $388 $515 #
straight-curve $-1 51.107265174198162 28.022860177267564 9.5551323620551614 0 1 0 I I #
edge $-1 $474 -29.046495071770352 $385 -15.075045133085268 $384 $516 forward 7 unknown #
vertex $-1 $473 $517 #
straight-curve $-1 51.107265174198162 -25.59339098881302 47.620582815384608 0 -0.81915203911291934 0.57357644374324357 I I #
point $-1 51.107265174198162 28.769705157713325 9.5551323620551685 #
point $-1 37.135815235513078 40.095922714374105 1.6244292971553378 #
straight-curve $-1 0 40.095922714374105 9.5551323620551667 -1 0 0 I I #
vertex $-1 $391 $518 #
point $-1 42.12765807513739 32.232403361859284 2.4472689144268434 #
vertex $-1 $395 $519 #
point $-1 48.11542233457385 32.232403361859284 2.4472689144268434 #
edge $-1 $484 33.441124860164294 $487 40.665241191375401 $400 $520 forward 7 unknown #
vertex $-1 $414 $521 #
straight-curve $-1 9.4419553849976907 -77.623049970936407 9.5551323620551685 0 -1 0 I I #
edge $-1 $487 -2.6569286812283579 $411 26.854696813680455 $410 $522 forward 7 unknown #
vertex $-1 $486 $523 #
straight-curve $-1 9.4419553849976907 -40.095922714374112 2.3310160308440544 0 0.5877852410284794 0.80901700255871778 I I #
point $-1 9.4419553849976907 -34.847295126166522 9.5551323620551649 #
point $-1 38.953580879906504 -40.095922714374105 2.3310160308440642 #
straight-curve $-1 0 -40.095922714374105 9.5551323620551667 1 0 0 I I #
vertex $-1 $417 $524 #
point $-1 26.197768132452097 -32.575237636801276 2.3856523302634471 #
straight-curve $-1 -71.166722617267368 40.095922714374105 0 0 0 -1 I I #
point $-1 -71.166722617267368 -40.095922714374105 -9.5551323620551667 #
straight-curve $-1 -71.166722617267368 0 -9.5551323620551667 0 1 0 I I #
point $-1 -71.166722617267368 40.095922714374105 -9.5551323620551667 #
coedge $-1 $439 $438 $449 $503 reversed $220 $-1 #
edge $-1 $504 -40.095922714374105 $442 40.095922714374105 $438 $525 forward 7 unknown #
straight-curve $-1 -81.462067903459427 40.095922714374105 -7.9050662445989097 0 0 -1 I I #
point $-1 -81.462067903459427 40.095922714374105 -9.5551323620551667 #
point $-1 -81.462067903459427 40.095922714374105 -6.2550001271426527 #
edge $-1 $453 -1.650066117456257 $504 1.650066117456257 $498 $526 forward 7 unknown #
vertex $-1 $499 $527 #
straight-curve $-1 -76.314395260363398 -40.095922714374105 -9.5551323620551667 -1 0 0 I I #
straight-curve $-1 -81.462067903459427 0 -6.2550001271426527 0 -1 0 I I #
point $-1 -81.462067903459427 -40.095922714374105 -6.2550001271426527 #
straight-curve $-1 -26.840469949321022 40.095922714374105 82.106657356610384 0 0 -1 I I #
point $-1 -26.840469949321022 40.095922714374105 9.5551323620551667 #
straight-curve $-1 -16.91309745933178 40.095922714374105 1.6244292971553342 -1 0 0 I I #
point $-1 -26.840469949321022 40.095922714374105 1.6244292971553378 #
point $-1 -36.820077048381791 31.658826918116038 1.6281168753139241 #
point $-1 -30.83231278894533 31.658826918116038 1.6281168753139241 #
straight-curve $-1 51.107265174198162 40.095922714374105 82.106657356610384 0 0 -1 I I #
point $-1 51.107265174198162 40.095922714374105 9.5551323620551667 #
straight-curve $-1 22.06077010242781 40.095922714374105 1.6244292971553342 -1 0 0 I I #
point $-1 51.107265174198162 40.095922714374105 1.6244292971553378 #
point $-1 41.12765807513739 31.658826918116038 1.6281168753139241 #
point $-1 47.11542233457385 31.658826918116038 1.6281168753139241 #
straight-curve $-1 9.4419553849976907 -40.095922714374105 42.996257222219462 0 0 -1 I I #
point $-1 9.4419553849976907 -40.095922714374105 9.5551323620551667 #
straight-curve $-1 12.098884066226049 -40.095922714374105 2.3310160308440704 1 0 0 I I #
point $-1 9.4419553849976907 -40.095922714374105 2.3310160308440642 #
point $-1 24.197768132452097 -30.957203631683843 1.2100818482064886 #
straight-curve $-1 -81.462067903459427 0 -9.5551323620551667 0 1 0 I I #
straight-curve $-1 -81.462067903459427 -40.095922714374105 -7.9050662445989097 0 0 -1 I I #
point $-1 -81.462067903459427 -40.095922714374105 -9.5551323620551667 #
End-of-ACIS-data 