500 0 9 0           
7 Unknown 11 ACIS 5.0 NT 24 Fri Mar 26 16:14:27 1999 
-1 9.9999999999999995e-007 1e-010 
body $-1 $9 $-1 $10 #
body $-1 $11 $-1 $12 #
body $-1 $13 $-1 $14 #
body $-1 $15 $-1 $16 #
body $-1 $17 $-1 $18 #
body $-1 $19 $-1 $20 #
body $-1 $21 $-1 $22 #
body $-1 $23 $-1 $24 #
body $-1 $25 $-1 $26 #
lump $-1 $-1 $27 $0 #
transform $-1 1 0 0 0 1 0 0 0 1 68.023316141239661 30.698202005278709 12.290897907884531 1 rotate no_reflect no_shear #
lump $-1 $-1 $28 $1 #
transform $-1 1 0 0 0 1 0 0 0 1 68.023316141239661 30.698202005278709 12.290897907884531 1 rotate no_reflect no_shear #
lump $-1 $-1 $29 $2 #
transform $-1 1 0 0 0 1 0 0 0 1 68.023316141239661 30.698202005278709 12.290897907884531 1 rotate no_reflect no_shear #
lump $-1 $-1 $30 $3 #
transform $-1 1 0 0 0 1 0 0 0 1 68.023316141239661 30.698202005278709 12.290897907884531 1 rotate no_reflect no_shear #
lump $-1 $-1 $31 $4 #
transform $-1 1 0 0 0 1 0 0 0 1 68.023316141239661 30.698202005278709 12.290897907884531 1 rotate no_reflect no_shear #
lump $-1 $-1 $32 $5 #
transform $-1 1 0 0 0 1 0 0 0 1 68.023316141239661 30.698202005278709 12.290897907884531 1 rotate no_reflect no_shear #
lump $-1 $-1 $33 $6 #
transform $-1 1 0 0 0 1 0 0 0 1 68.023316141239661 30.698202005278709 12.290897907884531 1 rotate no_reflect no_shear #
lump $-1 $-1 $34 $7 #
transform $-1 1 0 0 0 1 0 0 0 1 68.023316141239661 30.698202005278709 12.290897907884531 1 rotate no_reflect no_shear #
lump $-1 $-1 $35 $8 #
transform $-1 1 0 0 0 1 0 0 0 1 68.023316141239661 30.698202005278709 12.290897907884531 1 rotate no_reflect no_shear #
shell $-1 $-1 $-1 $36 $-1 $9 #
shell $-1 $-1 $-1 $37 $-1 $11 #
shell $-1 $-1 $-1 $38 $-1 $13 #
shell $-1 $-1 $-1 $39 $-1 $15 #
shell $-1 $-1 $-1 $40 $-1 $17 #
shell $-1 $-1 $-1 $41 $-1 $19 #
shell $-1 $-1 $-1 $42 $-1 $21 #
shell $-1 $-1 $-1 $43 $-1 $23 #
shell $-1 $-1 $-1 $44 $-1 $25 #
face $-1 $45 $46 $27 $-1 $47 forward single #
face $-1 $48 $49 $28 $-1 $50 reversed single #
face $-1 $51 $52 $29 $-1 $53 reversed single #
face $-1 $54 $55 $30 $-1 $56 forward single #
face $-1 $57 $58 $31 $-1 $59 forward single #
face $-1 $60 $61 $32 $-1 $62 reversed single #
face $-1 $63 $64 $33 $-1 $65 forward single #
face $-1 $66 $67 $34 $-1 $68 forward single #
face $-1 $69 $70 $35 $-1 $71 forward single #
face $-1 $72 $73 $27 $-1 $74 reversed single #
loop $-1 $-1 $75 $36 #
plane-surface $-1 0 0 12.290897907884531 0 0 1 1 0 0 forward_v I I I I #
face $-1 $76 $77 $28 $-1 $78 reversed single #
loop $-1 $-1 $79 $37 #
plane-surface $-1 0 -24.111091692602393 9.0735161605445604 0 0 1 1 0 0 forward_v I I I I #
face $-1 $80 $81 $29 $-1 $82 reversed single #
loop $-1 $-1 $83 $38 #
plane-surface $-1 21.477788658958303 19.526554274398489 194.09123327600628 0 -1 0 -0.51503808176128008 0 -0.85716729658548041 forward_v I I I I #
face $-1 $84 $85 $30 $-1 $86 forward single #
loop $-1 $87 $88 $39 #
cone-surface $-1 63.701971886329467 15.17033651576623 9.4205216816616097 -0.51503808176128008 0 -0.85716729658548041 0.4285836482927402 0 -0.25751904088064004 1 I I 0 1 0.5 forward I I I I #
face $-1 $89 $90 $31 $-1 $91 forward single #
loop $-1 $92 $93 $40 #
cone-surface $-1 63.701971886329467 17.784067170945583 9.4205216816616097 -0.51503808176128008 0 -0.85716729658548041 0.4285836482927402 0 -0.25751904088064004 1 I I 0 1 0.5 forward I I I I #
face $-1 $94 $95 $32 $-1 $96 reversed single #
loop $-1 $-1 $97 $41 #
plane-surface $-1 -153.64023703341655 13.86335824316189 110.96288588478609 0 1 0 -0.62932039886446345 0 0.77714595512881146 forward_v I I I I #
face $-1 $98 $99 $33 $-1 $100 forward single #
loop $-1 $101 $102 $42 #
cone-surface $-1 -62.820063936798562 15.953200662138009 7.7175408858955237 0.62932039886446345 0 -0.77714595512881146 0.77714595512881146 0 0.62932039886446345 1 I I 0 1 1 forward I I I I #
face $-1 $103 $104 $34 $-1 $105 forward single #
loop $-1 $106 $107 $43 #
cone-surface $-1 -62.820063936798562 19.087964290602187 7.7175408858955237 0.62932039886446345 0 -0.77714595512881146 0.77714595512881146 0 0.62932039886446345 1 I I 0 1 1 forward I I I I #
face $-1 $108 $109 $35 $-1 $110 forward single #
loop $-1 $111 $112 $44 #
cone-surface $-1 -62.820063936798562 22.222727919066365 7.7175408858955237 0.62932039886446345 0 -0.77714595512881146 0.77714595512881146 0 0.62932039886446345 1 I I 0 1 1 forward I I I I #
face $-1 $113 $114 $27 $-1 $115 reversed single #
loop $-1 $-1 $116 $45 #
plane-surface $-1 0 0 -12.290897907884531 0 0 1 1 0 0 forward_v I I I I #
coedge $-1 $117 $118 $119 $120 forward $46 $-1 #
face $-1 $121 $122 $28 $-1 $123 reversed single #
loop $-1 $-1 $124 $48 #
plane-surface $-1 0 -17.523981379926077 10.682207034214546 0 -1 0 0 0 -1 forward_v I I I I #
coedge $-1 $125 $126 $127 $128 reversed $49 $-1 #
face $-1 $129 $130 $29 $-1 $131 reversed single #
loop $-1 $-1 $132 $51 #
plane-surface $-1 -48.591407861892094 16.477201843355907 77.476509272874537 0.51503808176128008 0 0.85716729658548041 0.85716729658548041 0 -0.51503808176128008 forward_v I I I I #
coedge $-1 $133 $134 $135 $136 reversed $52 $-1 #
face $-1 $-1 $137 $30 $-1 $138 forward single #
loop $-1 $139 $140 $54 #
cone-surface $-1 63.31569332500851 15.17033651576623 8.7776462092224996 -0.51503808176128008 0 -0.85716729658548041 0.2142918241463701 0 -0.12875952044032002 1 I I -0.70710678118654746 0.70710678118654746 0.25 forward I I I I #
loop $-1 $-1 $141 $39 #
coedge $-1 $88 $88 $142 $143 reversed $55 $-1 #
face $-1 $-1 $144 $31 $-1 $145 forward single #
loop $-1 $146 $147 $57 #
cone-surface $-1 63.31569332500851 17.784067170945583 8.7776462092224996 -0.51503808176128008 0 -0.85716729658548041 0.2142918241463701 0 -0.12875952044032002 1 I I -0.70710678118654746 0.70710678118654746 0.25 forward I I I I #
loop $-1 $-1 $148 $40 #
coedge $-1 $93 $93 $149 $150 reversed $58 $-1 #
face $-1 $151 $152 $32 $-1 $153 reversed single #
loop $-1 $-1 $154 $60 #
plane-surface $-1 -68.023316141239675 19.087964290602187 5.2347958975605025 -0.62932039886446345 0 0.77714595512881146 0.77714595512881146 0 0.62932039886446345 forward_v I I I I #
coedge $-1 $155 $156 $157 $158 reversed $61 $-1 #
face $-1 $-1 $159 $33 $-1 $160 forward single #
loop $-1 $161 $162 $63 #
cone-surface $-1 -61.658931597733378 15.953200662138009 6.2836618915041385 0.62932039886446345 0 -0.77714595512881146 0.38857297756440573 0 0.31466019943223172 1 I I -0.70710678118654746 0.70710678118654746 0.5 forward I I I I #
loop $-1 $-1 $163 $42 #
coedge $-1 $102 $102 $164 $165 reversed $64 $-1 #
face $-1 $-1 $166 $34 $-1 $167 forward single #
loop $-1 $168 $169 $66 #
cone-surface $-1 -61.658931597733378 19.087964290602187 6.2836618915041385 0.62932039886446345 0 -0.77714595512881146 0.38857297756440573 0 0.31466019943223172 1 I I -0.70710678118654746 0.70710678118654746 0.5 forward I I I I #
loop $-1 $-1 $170 $43 #
coedge $-1 $107 $107 $171 $172 reversed $67 $-1 #
face $-1 $-1 $173 $35 $-1 $174 forward single #
loop $-1 $175 $176 $69 #
cone-surface $-1 -61.658931597733378 22.222727919066365 6.2836618915041385 0.62932039886446345 0 -0.77714595512881146 0.38857297756440573 0 0.31466019943223172 1 I I -0.70710678118654746 0.70710678118654746 0.5 forward I I I I #
loop $-1 $-1 $177 $44 #
coedge $-1 $112 $112 $178 $179 reversed $70 $-1 #
face $-1 $180 $181 $27 $-1 $182 reversed single #
loop $-1 $-1 $183 $72 #
plane-surface $-1 0 -30.698202005278709 0 0 1 0 0 0 1 forward_v I I I I #
coedge $-1 $184 $185 $186 $187 forward $73 $-1 #
coedge $-1 $188 $75 $189 $190 forward $46 $-1 #
coedge $-1 $75 $188 $191 $192 forward $46 $-1 #
coedge $-1 $193 $194 $75 $120 reversed $195 $-1 #
edge $-1 $196 -30.698202005278709 $197 30.698202005278709 $119 $198 forward 7 unknown #
face $-1 $199 $200 $28 $-1 $201 reversed single #
loop $-1 $-1 $202 $76 #
plane-surface $-1 -68.023316141239661 0 0 1 0 0 0 0 -1 forward_v I I I I #
coedge $-1 $203 $204 $205 $206 reversed $77 $-1 #
coedge $-1 $207 $79 $208 $209 reversed $49 $-1 #
coedge $-1 $79 $207 $203 $210 forward $49 $-1 #
coedge $-1 $205 $211 $79 $128 forward $212 $-1 #
edge $-1 $213 -18.642656158977513 $214 -5.4684355336248807 $127 $215 forward 7 unknown #
face $-1 $216 $217 $29 $-1 $218 reversed single #
loop $-1 $-1 $219 $80 #
plane-surface $-1 21.477788658958303 13.427849412313325 194.09123327600628 0 1 0 0.51503808176128008 0 0.85716729658548041 forward_v I I I I #
coedge $-1 $220 $221 $222 $223 reversed $81 $-1 #
coedge $-1 $134 $83 $224 $225 reversed $52 $-1 #
coedge $-1 $83 $133 $220 $226 reversed $52 $-1 #
coedge $-1 $222 $227 $83 $136 forward $228 $-1 #
edge $-1 $229 -57.28442181176051 $230 -49.156771383701368 $135 $231 forward 7 unknown #
loop $-1 $-1 $142 $84 #
plane-surface $-1 -48.591407861892094 16.477201843355907 77.476509272874537 0.51503808176128008 0 0.85716729658548041 0.85716729658548041 0 -0.51503808176128008 forward_v I I I I #
loop $-1 $-1 $232 $54 #
coedge $-1 $140 $140 $141 $233 reversed $85 $-1 #
coedge $-1 $141 $141 $140 $233 forward $87 $-1 #
coedge $-1 $142 $142 $88 $143 forward $137 $-1 #
edge $-1 $234 0 $234 6.2831853071796004 $142 $235 forward 7 unknown #
loop $-1 $-1 $149 $89 #
plane-surface $-1 -48.591407861892094 16.477201843355907 77.476509272874537 0.51503808176128008 0 0.85716729658548041 0.85716729658548041 0 -0.51503808176128008 forward_v I I I I #
loop $-1 $-1 $236 $57 #
coedge $-1 $147 $147 $148 $237 reversed $90 $-1 #
coedge $-1 $148 $148 $147 $237 forward $92 $-1 #
coedge $-1 $149 $149 $93 $150 forward $144 $-1 #
edge $-1 $238 0 $238 6.2831853071796004 $149 $239 forward 7 unknown #
face $-1 $240 $241 $32 $-1 $242 forward single #
loop $-1 $-1 $243 $94 #
plane-surface $-1 -153.64023703341655 24.312570338042484 110.96288588478609 0 -1 0 0.62932039886446345 0 -0.77714595512881146 forward_v I I I I #
coedge $-1 $244 $245 $246 $247 reversed $95 $-1 #
coedge $-1 $156 $97 $248 $249 reversed $61 $-1 #
coedge $-1 $97 $155 $244 $250 reversed $61 $-1 #
coedge $-1 $246 $251 $97 $158 forward $241 $-1 #
edge $-1 $252 8.7968023754686158 $253 17.510362505084871 $157 $254 forward 7 unknown #
loop $-1 $-1 $164 $98 #
plane-surface $-1 -68.023316141239675 19.087964290602187 5.2347958975605025 -0.62932039886446345 0 0.77714595512881146 0.77714595512881146 0 0.62932039886446345 forward_v I I I I #
loop $-1 $-1 $255 $63 #
coedge $-1 $162 $162 $163 $256 reversed $99 $-1 #
coedge $-1 $163 $163 $162 $256 forward $101 $-1 #
coedge $-1 $164 $164 $102 $165 forward $159 $-1 #
edge $-1 $257 0 $257 6.2831853071796004 $164 $258 forward 7 unknown #
loop $-1 $-1 $171 $103 #
plane-surface $-1 -68.023316141239675 19.087964290602187 5.2347958975605025 -0.62932039886446345 0 0.77714595512881146 0.77714595512881146 0 0.62932039886446345 forward_v I I I I #
loop $-1 $-1 $259 $66 #
coedge $-1 $169 $169 $170 $260 reversed $104 $-1 #
coedge $-1 $170 $170 $169 $260 forward $106 $-1 #
coedge $-1 $171 $171 $107 $172 forward $166 $-1 #
edge $-1 $261 0 $261 6.2831853071796004 $171 $262 forward 7 unknown #
loop $-1 $-1 $178 $108 #
plane-surface $-1 -68.023316141239675 19.087964290602187 5.2347958975605025 -0.62932039886446345 0 0.77714595512881146 0.77714595512881146 0 0.62932039886446345 forward_v I I I I #
loop $-1 $-1 $263 $69 #
coedge $-1 $176 $176 $177 $264 reversed $109 $-1 #
coedge $-1 $177 $177 $176 $264 forward $111 $-1 #
coedge $-1 $178 $178 $112 $179 forward $173 $-1 #
edge $-1 $265 0 $265 6.2831853071796004 $178 $266 forward 7 unknown #
face $-1 $267 $268 $27 $-1 $269 reversed single #
loop $-1 $-1 $270 $113 #
plane-surface $-1 -68.023316141239661 0 0 1 0 0 0 0 -1 forward_v I I I I #
coedge $-1 $271 $191 $272 $273 forward $114 $-1 #
coedge $-1 $274 $116 $271 $275 forward $73 $-1 #
coedge $-1 $116 $274 $276 $277 forward $73 $-1 #
coedge $-1 $194 $193 $116 $187 reversed $195 $-1 #
edge $-1 $278 -30.698202005278709 $279 30.698202005278709 $186 $280 forward 7 unknown #
coedge $-1 $118 $117 $281 $282 forward $46 $-1 #
coedge $-1 $283 $284 $117 $190 reversed $268 $-1 #
edge $-1 $197 -68.023316141239661 $285 68.023316141239661 $189 $286 forward 7 unknown #
coedge $-1 $183 $287 $118 $192 reversed $114 $-1 #
edge $-1 $288 -68.023316141239661 $196 68.023316141239661 $191 $289 forward 7 unknown #
coedge $-1 $186 $119 $287 $290 forward $195 $-1 #
coedge $-1 $119 $186 $283 $291 reversed $195 $-1 #
loop $-1 $-1 $193 $267 #
vertex $-1 $120 $292 #
vertex $-1 $120 $293 #
straight-curve $-1 68.023316141239661 0 12.290897907884531 0 1 0 I I #
face $-1 $294 $295 $28 $-1 $296 forward single #
loop $-1 $-1 $208 $121 #
plane-surface $-1 0 -30.698202005278709 0 0 1 0 0 0 1 forward_v I I I I #
coedge $-1 $297 $298 $299 $300 forward $122 $-1 #
coedge $-1 $299 $124 $126 $210 reversed $77 $-1 #
coedge $-1 $124 $299 $301 $302 reversed $77 $-1 #
coedge $-1 $303 $127 $124 $206 forward $212 $-1 #
edge $-1 $214 3.7324126434372875 $304 6.9497943907772584 $205 $305 forward 7 unknown #
coedge $-1 $126 $125 $297 $306 reversed $49 $-1 #
coedge $-1 $307 $308 $125 $209 forward $200 $-1 #
edge $-1 $309 -68.023316141239661 $213 68.023316141239661 $208 $310 forward 7 unknown #
edge $-1 $311 -68.023316141239661 $214 68.023316141239661 $203 $312 forward 7 unknown #
coedge $-1 $127 $303 $307 $313 forward $212 $-1 #
loop $-1 $-1 $205 $294 #
vertex $-1 $209 $314 #
vertex $-1 $128 $315 #
straight-curve $-1 68.023316141239661 -12.055545846301197 9.0735161605445604 0 1 0 I I #
face $-1 $-1 $228 $29 $-1 $316 forward single #
loop $-1 $-1 $317 $129 #
plane-surface $-1 68.023316141239661 0 0 -1 0 0 0 0 1 forward_v I I I I #
coedge $-1 $318 $319 $320 $321 reversed $130 $-1 #
coedge $-1 $322 $132 $134 $226 forward $81 $-1 #
coedge $-1 $132 $322 $318 $323 forward $81 $-1 #
coedge $-1 $320 $135 $132 $223 forward $228 $-1 #
edge $-1 $230 -11.287953352720535 $324 -5.1892484906353715 $222 $325 forward 7 unknown #
coedge $-1 $326 $327 $133 $225 forward $217 $-1 #
edge $-1 $328 -89.638303885978999 $229 -84.754718730118611 $224 $329 forward 7 unknown #
edge $-1 $230 126.56464380667585 $328 136.04663228247932 $134 $330 forward 7 unknown #
coedge $-1 $135 $320 $326 $331 forward $228 $-1 #
loop $-1 $-1 $320 $216 #
vertex $-1 $225 $332 #
vertex $-1 $136 $333 #
straight-curve $-1 10.738894329479152 19.526554274398489 12.290897907884528 -1 0 0 I I #
coedge $-1 $232 $232 $-1 $334 reversed $139 $-1 #
edge $-1 $335 0 $335 6.2831853071796004 $140 $336 forward 7 unknown #
vertex $-1 $143 $337 #
ellipse-curve $-1 63.959490927210098 15.17033651576623 9.8491053299543321 0.51503808176128008 0 0.85716729658548041 0.4285836482927402 0 -0.25751904088064004 1 I I #
coedge $-1 $236 $236 $-1 $338 reversed $146 $-1 #
edge $-1 $339 0 $339 6.2831853071796004 $147 $340 forward 7 unknown #
vertex $-1 $150 $341 #
ellipse-curve $-1 63.959490927210098 17.784067170945583 9.8491053299543321 0.51503808176128008 0 0.85716729658548041 0.4285836482927402 0 -0.25751904088064004 1 I I #
face $-1 $-1 $342 $32 $-1 $343 reversed single #
loop $-1 $-1 $157 $151 #
plane-surface $-1 0 0 12.290897907884531 0 0 1 1 0 0 forward_v I I I I #
coedge $-1 $344 $345 $346 $347 reversed $152 $-1 #
coedge $-1 $348 $154 $156 $250 forward $95 $-1 #
coedge $-1 $154 $348 $344 $349 forward $95 $-1 #
coedge $-1 $346 $157 $154 $247 forward $241 $-1 #
edge $-1 $253 4.3193760978607969 $350 14.76858819274139 $246 $351 forward 7 unknown #
coedge $-1 $352 $353 $155 $249 forward $342 $-1 #
edge $-1 $354 -50.246647044832528 $252 -43.190545034508517 $248 $355 forward 7 unknown #
edge $-1 $253 -11.212256941068425 $354 -1.8310242626372826e-014 $156 $356 forward 7 unknown #
coedge $-1 $157 $346 $352 $357 forward $241 $-1 #
vertex $-1 $249 $358 #
vertex $-1 $158 $359 #
straight-curve $-1 -76.820118516708277 13.86335824316189 12.290897907884528 1 0 0 I I #
coedge $-1 $255 $255 $-1 $360 reversed $161 $-1 #
edge $-1 $361 0 $361 6.2831853071796004 $162 $362 forward 7 unknown #
vertex $-1 $165 $363 #
ellipse-curve $-1 -63.666536076431534 15.953200662138009 8.7628469027225258 -0.62932039886446345 0 0.77714595512881146 0.77714595512881146 0 0.62932039886446345 1 I I #
coedge $-1 $259 $259 $-1 $364 reversed $168 $-1 #
edge $-1 $365 0 $365 6.2831853071796004 $169 $366 forward 7 unknown #
vertex $-1 $172 $367 #
ellipse-curve $-1 -63.666536076431534 19.087964290602187 8.7628469027225258 -0.62932039886446345 0 0.77714595512881146 0.77714595512881146 0 0.62932039886446345 1 I I #
coedge $-1 $263 $263 $-1 $368 reversed $175 $-1 #
edge $-1 $369 0 $369 6.2831853071796004 $176 $370 forward 7 unknown #
vertex $-1 $179 $371 #
ellipse-curve $-1 -63.666536076431534 22.222727919066365 8.7628469027225258 -0.62932039886446345 0 0.77714595512881146 0.77714595512881146 0 0.62932039886446345 1 I I #
face $-1 $-1 $195 $27 $-1 $372 reversed single #
loop $-1 $-1 $283 $180 #
plane-surface $-1 0 30.698202005278709 0 0 -1 0 0 0 -1 forward_v I I I I #
coedge $-1 $373 $281 $284 $374 forward $181 $-1 #
coedge $-1 $287 $183 $184 $275 reversed $114 $-1 #
coedge $-1 $281 $373 $183 $273 reversed $181 $-1 #
edge $-1 $288 -12.290897907884531 $375 12.290897907884531 $272 $376 forward 7 unknown #
coedge $-1 $185 $184 $373 $377 forward $73 $-1 #
edge $-1 $279 -68.023316141239661 $375 68.023316141239661 $271 $378 forward 7 unknown #
coedge $-1 $284 $283 $185 $277 reversed $268 $-1 #
edge $-1 $379 -68.023316141239661 $278 68.023316141239661 $276 $380 forward 7 unknown #
vertex $-1 $187 $381 #
vertex $-1 $290 $382 #
straight-curve $-1 68.023316141239661 0 -12.290897907884531 0 -1 0 I I #
coedge $-1 $270 $272 $188 $282 reversed $181 $-1 #
edge $-1 $285 -30.698202005278709 $288 30.698202005278709 $281 $383 forward 7 unknown #
coedge $-1 $276 $189 $194 $291 forward $268 $-1 #
coedge $-1 $189 $276 $270 $374 reversed $268 $-1 #
vertex $-1 $190 $384 #
straight-curve $-1 0 30.698202005278709 12.290897907884531 -1 0 0 I I #
coedge $-1 $191 $271 $193 $290 reversed $114 $-1 #
vertex $-1 $282 $385 #
straight-curve $-1 0 -30.698202005278709 12.290897907884531 1 0 0 I I #
edge $-1 $196 -12.290897907884531 $279 12.290897907884531 $193 $386 forward 7 unknown #
edge $-1 $197 -12.290897907884531 $278 12.290897907884531 $194 $387 forward 7 unknown #
point $-1 68.023316141239661 -30.698202005278709 12.290897907884531 #
point $-1 68.023316141239661 30.698202005278709 12.290897907884531 #
face $-1 $-1 $212 $28 $-1 $388 reversed single #
loop $-1 $-1 $301 $199 #
plane-surface $-1 0 0 12.290897907884531 0 0 1 1 0 0 forward_v I I I I #
coedge $-1 $389 $202 $207 $306 forward $122 $-1 #
coedge $-1 $202 $389 $390 $391 reversed $122 $-1 #
coedge $-1 $204 $203 $202 $300 reversed $77 $-1 #
edge $-1 $392 -6.9497943907772584 $311 -3.7324126434372875 $202 $393 forward 7 unknown #
coedge $-1 $390 $394 $204 $302 forward $295 $-1 #
edge $-1 $304 -68.023316141239661 $392 68.023316141239661 $301 $395 forward 7 unknown #
coedge $-1 $211 $205 $394 $396 reversed $212 $-1 #
vertex $-1 $206 $397 #
straight-curve $-1 68.023316141239661 -17.523981379926077 5.3411035171072729 0 0 1 I I #
edge $-1 $311 5.4684355336248807 $309 18.642656158977513 $297 $398 forward 7 unknown #
coedge $-1 $399 $208 $211 $313 reversed $200 $-1 #
coedge $-1 $208 $399 $389 $400 forward $200 $-1 #
vertex $-1 $209 $401 #
straight-curve $-1 0 -30.698202005278709 9.0735161605445604 1 0 0 I I #
vertex $-1 $306 $402 #
straight-curve $-1 0 -17.523981379926077 9.0735161605445604 1 0 0 I I #
edge $-1 $403 -12.290897907884531 $213 -9.0735161605445604 $211 $404 forward 7 unknown #
point $-1 68.023316141239661 -30.698202005278709 9.0735161605445604 #
point $-1 68.023316141239661 -17.523981379926077 9.0735161605445604 #
plane-surface $-1 0 0 12.290897907884531 0 0 1 1 0 0 forward_v I I I I #
coedge $-1 $327 $326 $319 $405 forward $217 $-1 #
coedge $-1 $319 $219 $221 $323 reversed $130 $-1 #
coedge $-1 $219 $318 $317 $405 reversed $130 $-1 #
coedge $-1 $227 $222 $219 $321 forward $228 $-1 #
edge $-1 $324 49.156771383701368 $406 57.28442181176051 $320 $407 forward 7 unknown #
coedge $-1 $221 $220 $327 $408 reversed $81 $-1 #
edge $-1 $409 -136.04663228247932 $324 -126.56464380667585 $318 $410 forward 7 unknown #
vertex $-1 $223 $411 #
straight-curve $-1 59.895665713180506 8.2386009216779534 12.290897907884528 0 -1 0 I I #
coedge $-1 $317 $224 $227 $331 reversed $217 $-1 #
coedge $-1 $224 $317 $322 $408 forward $217 $-1 #
vertex $-1 $225 $412 #
straight-curve $-1 68.023316141239661 19.526554274398489 97.045616638003139 0 0 1 I I #
straight-curve $-1 -48.591407861892094 19.526554274398489 77.476509272874537 0.85716729658548041 0 -0.51503808176128008 I I #
edge $-1 $406 13.427849412313325 $229 19.526554274398489 $326 $413 forward 7 unknown #
point $-1 68.023316141239661 19.526554274398489 12.290897907884531 #
point $-1 59.89566571318052 19.526554274398489 12.290897907884528 #
edge $-1 $414 1 $414 0 $232 $-1 forward 7 unknown #
vertex $-1 $233 $415 #
ellipse-curve $-1 63.444452845448829 15.17033651576623 8.9919380333688697 0.51503808176128008 0 0.85716729658548041 0.4285836482927402 0 -0.25751904088064004 1 I I #
point $-1 64.388074575502856 15.17033651576623 9.5915862890737102 #
edge $-1 $416 1 $416 0 $236 $-1 forward 7 unknown #
vertex $-1 $237 $417 #
ellipse-curve $-1 63.444452845448829 17.784067170945583 8.9919380333688697 0.51503808176128008 0 0.85716729658548041 0.4285836482927402 0 -0.25751904088064004 1 I I #
point $-1 64.388074575502856 17.784067170945583 9.5915862890737102 #
loop $-1 $-1 $248 $240 #
plane-surface $-1 -68.023316141239661 0 0 1 0 0 0 0 -1 forward_v I I I I #
coedge $-1 $345 $243 $245 $349 reversed $152 $-1 #
coedge $-1 $243 $344 $418 $419 reversed $152 $-1 #
coedge $-1 $251 $246 $243 $347 forward $241 $-1 #
edge $-1 $350 -17.510362505084871 $420 -8.7968023754686158 $346 $421 forward 7 unknown #
coedge $-1 $245 $244 $353 $422 reversed $95 $-1 #
edge $-1 $423 1.8310242626372826e-014 $350 11.212256941068425 $344 $424 forward 7 unknown #
vertex $-1 $247 $425 #
straight-curve $-1 -59.309756011623413 9.5439821453010936 12.290897907884531 0 1 0 I I #
coedge $-1 $418 $248 $251 $357 reversed $342 $-1 #
coedge $-1 $248 $418 $348 $422 forward $342 $-1 #
vertex $-1 $249 $426 #
straight-curve $-1 -68.023316141239661 13.86335824316189 55.481442942393045 0 0 1 I I #
straight-curve $-1 -68.023316141239675 13.86335824316189 5.2347958975605025 -0.77714595512881146 0 -0.62932039886446345 I I #
edge $-1 $420 -24.312570338042484 $252 -13.86335824316189 $352 $427 forward 7 unknown #
point $-1 -68.023316141239661 13.86335824316189 12.290897907884531 #
point $-1 -59.309756011623406 13.86335824316189 12.290897907884531 #
edge $-1 $428 1 $428 0 $255 $-1 forward 7 unknown #
vertex $-1 $256 $429 #
ellipse-curve $-1 -61.973591797165611 15.953200662138009 6.6722348690685438 -0.62932039886446345 0 0.77714595512881146 0.77714595512881146 0 0.62932039886446345 1 I I #
point $-1 -62.889390121302704 15.953200662138009 9.3921673015869676 #
edge $-1 $430 1 $430 0 $259 $-1 forward 7 unknown #
vertex $-1 $260 $431 #
ellipse-curve $-1 -61.973591797165611 19.087964290602187 6.6722348690685438 -0.62932039886446345 0 0.77714595512881146 0.77714595512881146 0 0.62932039886446345 1 I I #
point $-1 -62.889390121302704 19.087964290602187 9.3921673015869676 #
edge $-1 $432 1 $432 0 $263 $-1 forward 7 unknown #
vertex $-1 $264 $433 #
ellipse-curve $-1 -61.973591797165611 22.222727919066365 6.6722348690685438 -0.62932039886446345 0 0.77714595512881146 0.77714595512881146 0 0.62932039886446345 1 I I #
point $-1 -62.889390121302704 22.222727919066365 9.3921673015869676 #
plane-surface $-1 68.023316141239661 0 0 -1 0 0 0 0 1 forward_v I I I I #
coedge $-1 $272 $270 $274 $377 reversed $181 $-1 #
edge $-1 $285 -12.290897907884531 $379 12.290897907884531 $284 $434 forward 7 unknown #
vertex $-1 $377 $435 #
straight-curve $-1 -68.023316141239661 -30.698202005278709 0 0 0 -1 I I #
edge $-1 $375 -30.698202005278709 $379 30.698202005278709 $373 $436 forward 7 unknown #
straight-curve $-1 0 -30.698202005278709 -12.290897907884531 -1 0 0 I I #
vertex $-1 $277 $437 #
straight-curve $-1 0 30.698202005278709 -12.290897907884531 1 0 0 I I #
point $-1 68.023316141239661 30.698202005278709 -12.290897907884531 #
point $-1 68.023316141239661 -30.698202005278709 -12.290897907884531 #
straight-curve $-1 -68.023316141239661 0 12.290897907884531 0 -1 0 I I #
point $-1 -68.023316141239661 30.698202005278709 12.290897907884531 #
point $-1 -68.023316141239661 -30.698202005278709 12.290897907884531 #
straight-curve $-1 68.023316141239661 -30.698202005278709 0 0 0 -1 I I #
straight-curve $-1 68.023316141239661 30.698202005278709 0 0 0 -1 I I #
plane-surface $-1 68.023316141239661 0 0 -1 0 0 0 0 1 forward_v I I I I #
coedge $-1 $298 $297 $308 $400 reversed $122 $-1 #
coedge $-1 $438 $301 $298 $391 forward $295 $-1 #
edge $-1 $392 17.523981379926077 $439 30.698202005278709 $298 $440 forward 7 unknown #
vertex $-1 $391 $441 #
straight-curve $-1 -68.023316141239661 -17.523981379926077 5.3411035171072729 0 0 -1 I I #
coedge $-1 $301 $438 $303 $396 forward $295 $-1 #
straight-curve $-1 0 -17.523981379926077 12.290897907884531 -1 0 0 I I #
edge $-1 $403 -30.698202005278709 $304 -17.523981379926077 $303 $442 forward 7 unknown #
point $-1 68.023316141239661 -17.523981379926077 12.290897907884531 #
straight-curve $-1 -68.023316141239661 -12.055545846301197 9.0735161605445604 0 -1 0 I I #
coedge $-1 $308 $307 $438 $443 reversed $200 $-1 #
edge $-1 $439 -12.290897907884531 $309 -9.0735161605445604 $389 $444 forward 7 unknown #
point $-1 -68.023316141239661 -30.698202005278709 9.0735161605445604 #
point $-1 -68.023316141239661 -17.523981379926077 9.0735161605445604 #
vertex $-1 $396 $445 #
straight-curve $-1 68.023316141239661 -30.698202005278709 0 0 0 -1 I I #
edge $-1 $406 84.754718730118611 $409 89.638303885978999 $317 $446 forward 7 unknown #
vertex $-1 $331 $447 #
straight-curve $-1 10.738894329479152 13.427849412313325 12.290897907884528 1 0 0 I I #
edge $-1 $409 5.1892484906353715 $328 11.287953352720535 $327 $448 forward 7 unknown #
vertex $-1 $408 $449 #
straight-curve $-1 -48.591407861892094 13.427849412313325 77.476509272874537 -0.85716729658548041 0 0.51503808176128008 I I #
point $-1 59.89566571318052 13.427849412313325 12.290897907884528 #
point $-1 68.023316141239647 19.526554274398489 7.40731275202414 #
straight-curve $-1 68.023316141239661 0 12.290897907884531 0 1 0 I I #
vertex $-1 $334 $450 #
point $-1 63.873036493741573 15.17033651576623 8.7344189924882301 #
vertex $-1 $338 $451 #
point $-1 63.873036493741573 17.784067170945583 8.7344189924882301 #
coedge $-1 $353 $352 $345 $419 forward $342 $-1 #
edge $-1 $420 43.190545034508517 $423 50.246647044832528 $418 $452 forward 7 unknown #
vertex $-1 $357 $453 #
straight-curve $-1 -76.820118516708277 24.312570338042484 12.290897907884528 -1 0 0 I I #
edge $-1 $423 -14.76858819274139 $354 -4.3193760978607969 $353 $454 forward 7 unknown #
vertex $-1 $422 $455 #
straight-curve $-1 -68.023316141239675 24.312570338042484 5.2347958975605025 0.77714595512881146 0 0.62932039886446345 I I #
point $-1 -59.309756011623406 24.312570338042484 12.290897907884531 #
point $-1 -68.023316141239661 13.86335824316189 5.234795897560514 #
straight-curve $-1 -68.023316141239661 0 12.290897907884531 0 -1 0 I I #
vertex $-1 $360 $456 #
point $-1 -61.196445842036802 15.953200662138009 7.3015552679330078 #
vertex $-1 $364 $457 #
point $-1 -61.196445842036802 19.087964290602187 7.3015552679330078 #
vertex $-1 $368 $458 #
point $-1 -61.196445842036802 22.222727919066365 7.3015552679330078 #
straight-curve $-1 -68.023316141239661 30.698202005278709 0 0 0 -1 I I #
point $-1 -68.023316141239661 -30.698202005278709 -12.290897907884531 #
straight-curve $-1 -68.023316141239661 0 -12.290897907884531 0 1 0 I I #
point $-1 -68.023316141239661 30.698202005278709 -12.290897907884531 #
coedge $-1 $394 $390 $399 $443 forward $295 $-1 #
vertex $-1 $391 $459 #
straight-curve $-1 -68.023316141239661 0 12.290897907884531 0 -1 0 I I #
point $-1 -68.023316141239661 -17.523981379926077 12.290897907884531 #
straight-curve $-1 68.023316141239661 0 12.290897907884531 0 1 0 I I #
edge $-1 $439 -68.023316141239661 $403 68.023316141239661 $399 $460 forward 7 unknown #
straight-curve $-1 -68.023316141239661 -30.698202005278709 0 0 0 -1 I I #
point $-1 68.023316141239661 -30.698202005278709 12.290897907884531 #
straight-curve $-1 68.023316141239661 13.427849412313325 97.045616638003139 0 0 -1 I I #
point $-1 68.023316141239661 13.427849412313325 12.290897907884531 #
straight-curve $-1 68.023316141239647 8.2386009216779534 7.4073127520241471 0 1 0 I I #
point $-1 68.023316141239647 13.427849412313325 7.40731275202414 #
point $-1 63.186933804568191 15.17033651576623 8.5633543850761296 #
point $-1 63.186933804568191 17.784067170945583 8.5633543850761296 #
straight-curve $-1 -68.023316141239661 24.312570338042484 55.481442942393045 0 0 -1 I I #
point $-1 -68.023316141239661 24.312570338042484 12.290897907884531 #
straight-curve $-1 -68.023316141239661 9.5439821453010936 5.234795897560506 0 -1 0 I I #
point $-1 -68.023316141239661 24.312570338042484 5.234795897560514 #
point $-1 -61.344271398301146 15.953200662138009 5.8950889139397331 #
point $-1 -61.344271398301146 19.087964290602187 5.8950889139397331 #
point $-1 -61.344271398301146 22.222727919066365 5.8950889139397331 #
point $-1 -68.023316141239661 -30.698202005278709 12.290897907884531 #
straight-curve $-1 0 -30.698202005278709 12.290897907884531 1 0 0 I I #
End-of-ACIS-data 