500 0 5 0           
7 Unknown 11 ACIS 5.0 NT 24 Thu Mar 25 21:30:44 1999 
-1 9.9999999999999995e-007 1e-010 
body $-1 $5 $-1 $6 #
body $-1 $7 $-1 $8 #
body $-1 $9 $-1 $10 #
body $-1 $11 $-1 $12 #
body $-1 $13 $-1 $14 #
lump $-1 $-1 $15 $0 #
transform $-1 1 0 0 0 1 0 0 0 1 47.081514938810386 21.723707272816565 10.051963173305992 1 rotate no_reflect no_shear #
lump $-1 $-1 $16 $1 #
transform $-1 1 0 0 0 1 0 0 0 1 47.081514938810386 21.723707272816565 10.051963173305992 1 rotate no_reflect no_shear #
lump $-1 $-1 $17 $2 #
transform $-1 1 0 0 0 1 0 0 0 1 47.081514938810386 21.723707272816565 10.051963173305992 1 rotate no_reflect no_shear #
lump $-1 $-1 $18 $3 #
transform $-1 1 0 0 0 1 0 0 0 1 47.081514938810386 21.723707272816565 10.051963173305992 1 rotate no_reflect no_shear #
lump $-1 $-1 $19 $4 #
transform $-1 1 0 0 0 1 0 0 0 1 47.081514938810386 21.723707272816565 10.051963173305992 1 rotate no_reflect no_shear #
shell $-1 $-1 $-1 $20 $-1 $5 #
shell $-1 $-1 $-1 $21 $-1 $7 #
shell $-1 $-1 $-1 $22 $-1 $9 #
shell $-1 $-1 $-1 $23 $-1 $11 #
shell $-1 $-1 $-1 $24 $-1 $13 #
face $-1 $25 $26 $15 $-1 $27 forward single #
face $-1 $28 $29 $16 $-1 $30 forward single #
face $-1 $31 $32 $17 $-1 $33 forward single #
face $-1 $34 $35 $18 $-1 $36 reversed single #
face $-1 $37 $38 $19 $-1 $39 reversed single #
face $-1 $40 $41 $15 $-1 $42 reversed single #
loop $-1 $-1 $43 $20 #
plane-surface $-1 0 0 10.051963173305992 0 0 1 1 0 0 forward_v I I I I #
face $-1 $44 $45 $16 $-1 $46 reversed single #
loop $-1 $-1 $47 $21 #
plane-surface $-1 -52.616911134267873 0 7.4798826532815079 0 0 1 1 0 0 forward_v I I I I #
face $-1 $48 $49 $17 $-1 $50 forward single #
loop $-1 $-1 $51 $22 #
plane-surface $-1 -19.501801252190361 -16.815684379525262 68.495076178057147 0.70710678939079041 0 0.70710677298230451 0.70710677298230451 0 -0.70710678939079041 forward_v I I I I #
face $-1 $52 $53 $18 $-1 $54 reversed single #
loop $-1 $55 $56 $23 #
cone-surface $-1 41.976216700908189 -18.919122762364392 4.9466648649784775 -0.70710678939079041 0 -0.70710677298230451 0.70710677298230451 0 -0.70710678939079041 1 I I 0 1 1 forward I I I I #
face $-1 $57 $58 $19 $-1 $59 reversed single #
loop $-1 $60 $61 $24 #
cone-surface $-1 41.976216700908189 -14.71224599668613 4.9466648649784775 -0.70710678939079041 0 -0.70710677298230451 0.70710677298230451 0 -0.70710678939079041 1 I I 0 1 1 forward I I I I #
face $-1 $62 $63 $15 $-1 $64 reversed single #
loop $-1 $-1 $65 $25 #
plane-surface $-1 0 0 -10.051963173305992 0 0 1 1 0 0 forward_v I I I I #
coedge $-1 $66 $67 $68 $69 forward $26 $-1 #
face $-1 $70 $71 $16 $-1 $72 reversed single #
loop $-1 $-1 $73 $28 #
plane-surface $-1 -52.616911134267873 0 4.0550305990982514 0 0 1 1 0 0 forward_v I I I I #
coedge $-1 $74 $75 $76 $77 reversed $29 $-1 #
face $-1 $78 $79 $17 $-1 $80 reversed single #
loop $-1 $-1 $81 $31 #
plane-surface $-1 47.081516483883135 -11.907661486233959 135.07839236905789 0 -1 0 -0.70710678939079041 0 -0.70710677298230451 forward_v I I I I #
coedge $-1 $82 $83 $84 $85 reversed $32 $-1 #
face $-1 $86 $87 $18 $-1 $88 forward single #
loop $-1 $89 $90 $34 #
cone-surface $-1 40.587467339524636 -18.919122762364392 3.557915535820996 -0.70710678939079041 0 -0.70710677298230451 0.35355338649115226 0 -0.35355339469539521 1 I I -0.70710678118654746 0.70710678118654746 0.5 forward I I I I #
loop $-1 $-1 $91 $23 #
coedge $-1 $56 $56 $92 $93 reversed $35 $-1 #
face $-1 $94 $95 $19 $-1 $96 reversed single #
loop $-1 $97 $98 $37 #
cone-surface $-1 40.587467339524636 -14.71224599668613 3.557915535820996 -0.70710678939079041 0 -0.70710677298230451 0.35355338649115226 0 -0.35355339469539521 1 I I -0.70710678118654746 0.70710678118654746 0.5 forward I I I I #
loop $-1 $-1 $99 $24 #
coedge $-1 $61 $61 $100 $101 reversed $38 $-1 #
face $-1 $102 $103 $15 $-1 $104 reversed single #
loop $-1 $-1 $105 $40 #
plane-surface $-1 0 -21.723707272816565 0 0 1 0 0 0 1 forward_v I I I I #
coedge $-1 $106 $107 $108 $109 forward $41 $-1 #
coedge $-1 $110 $43 $111 $112 forward $26 $-1 #
coedge $-1 $43 $110 $113 $114 forward $26 $-1 #
coedge $-1 $115 $116 $43 $69 reversed $117 $-1 #
edge $-1 $118 -21.723707272816565 $119 21.723707272816565 $68 $120 forward 7 unknown #
face $-1 $121 $122 $16 $-1 $123 reversed single #
loop $-1 $-1 $124 $44 #
plane-surface $-1 -58.15230732972536 0 5.7674566261898796 1 0 0 0 0 -1 forward_v I I I I #
coedge $-1 $125 $126 $127 $128 reversed $45 $-1 #
coedge $-1 $129 $47 $130 $131 forward $29 $-1 #
coedge $-1 $47 $129 $132 $133 forward $29 $-1 #
coedge $-1 $134 $135 $47 $77 forward $136 $-1 #
edge $-1 $137 -21.723707272816565 $138 21.723707272816565 $76 $139 forward 7 unknown #
face $-1 $140 $141 $17 $-1 $142 reversed single #
loop $-1 $-1 $143 $48 #
plane-surface $-1 47.081514938810386 0 0 -1 0 0 0 0 1 forward_v I I I I #
coedge $-1 $144 $145 $143 $146 reversed $49 $-1 #
coedge $-1 $147 $51 $145 $148 reversed $32 $-1 #
coedge $-1 $51 $147 $149 $150 reversed $32 $-1 #
coedge $-1 $151 $143 $51 $85 forward $79 $-1 #
edge $-1 $152 3.4998192964713279 $153 13.315865083053934 $84 $154 forward 7 unknown #
face $-1 $155 $156 $18 $-1 $157 forward single #
loop $-1 $158 $92 $52 #
plane-surface $-1 -19.501801252190361 -16.815684379525262 68.495076178057147 0.70710678939079041 0 0.70710677298230451 0.70710677298230451 0 -0.70710678939079041 forward_v I I I I #
loop $-1 $-1 $159 $34 #
coedge $-1 $90 $90 $91 $160 forward $53 $-1 #
coedge $-1 $91 $91 $90 $160 reversed $55 $-1 #
coedge $-1 $92 $92 $56 $93 forward $87 $-1 #
edge $-1 $161 0 $161 6.2831853071796004 $92 $162 forward 7 unknown #
face $-1 $163 $164 $19 $-1 $165 reversed single #
loop $-1 $166 $167 $57 #
cone-surface $-1 41.976216700908189 -18.919122762364392 4.9466648649784775 -0.70710678939079041 0 -0.70710677298230451 0.70710677298230451 0 -0.70710678939079041 1 I I 0 1 1 forward I I I I #
loop $-1 $-1 $168 $37 #
coedge $-1 $98 $98 $99 $169 forward $58 $-1 #
coedge $-1 $99 $99 $98 $169 reversed $60 $-1 #
coedge $-1 $100 $100 $61 $101 forward $170 $-1 #
edge $-1 $171 0 $171 6.2831853071796004 $100 $172 forward 7 unknown #
face $-1 $173 $174 $15 $-1 $175 reversed single #
loop $-1 $-1 $176 $62 #
plane-surface $-1 -47.081514938810386 0 0 1 0 0 0 0 -1 forward_v I I I I #
coedge $-1 $177 $113 $178 $179 forward $63 $-1 #
coedge $-1 $180 $65 $177 $181 forward $41 $-1 #
coedge $-1 $65 $180 $182 $183 forward $41 $-1 #
coedge $-1 $116 $115 $65 $109 reversed $117 $-1 #
edge $-1 $184 -21.723707272816565 $185 21.723707272816565 $108 $186 forward 7 unknown #
coedge $-1 $67 $66 $187 $188 forward $26 $-1 #
coedge $-1 $189 $190 $66 $112 reversed $174 $-1 #
edge $-1 $119 -47.081514938810386 $191 47.081514938810386 $111 $192 forward 7 unknown #
coedge $-1 $105 $193 $67 $114 reversed $63 $-1 #
edge $-1 $194 -47.081514938810386 $118 47.081514938810386 $113 $195 forward 7 unknown #
coedge $-1 $108 $68 $193 $196 forward $117 $-1 #
coedge $-1 $68 $108 $189 $197 reversed $117 $-1 #
loop $-1 $-1 $115 $173 #
vertex $-1 $69 $198 #
vertex $-1 $69 $199 #
straight-curve $-1 47.081514938810386 0 10.051963173305992 0 1 0 I I #
face $-1 $200 $136 $16 $-1 $123 reversed single #
loop $-1 $-1 $127 $70 #
plane-surface $-1 -47.081514938810386 0 0 1 0 0 0 0 -1 forward_v I I I I #
coedge $-1 $201 $202 $203 $204 forward $71 $-1 #
coedge $-1 $205 $73 $206 $207 forward $45 $-1 #
coedge $-1 $73 $205 $208 $209 forward $45 $-1 #
coedge $-1 $210 $211 $73 $128 forward $122 $-1 #
edge $-1 $212 -21.723707272816565 $213 21.723707272816565 $127 $214 forward 7 unknown #
coedge $-1 $75 $74 $202 $215 forward $29 $-1 #
coedge $-1 $216 $203 $74 $131 reversed $217 $-1 #
edge $-1 $137 -5.5353961954574871 $218 5.5353961954574871 $130 $219 forward 7 unknown #
coedge $-1 $220 $221 $75 $133 reversed $222 $-1 #
edge $-1 $223 -5.5353961954574871 $138 5.5353961954574871 $132 $224 forward 7 unknown #
coedge $-1 $225 $76 $221 $226 reversed $136 $-1 #
coedge $-1 $76 $225 $216 $227 forward $136 $-1 #
loop $-1 $-1 $76 $121 #
vertex $-1 $227 $228 #
vertex $-1 $133 $229 #
straight-curve $-1 -47.081514938810386 0 7.4798826532815079 0 -1 0 I I #
face $-1 $230 $231 $17 $-1 $232 forward single #
loop $-1 $-1 $149 $78 #
plane-surface $-1 0 -21.723707272816565 0 0 1 0 0 0 1 forward_v I I I I #
coedge $-1 $84 $233 $81 $146 forward $79 $-1 #
coedge $-1 $145 $81 $234 $235 reversed $49 $-1 #
coedge $-1 $81 $144 $82 $148 forward $49 $-1 #
edge $-1 $236 57.487233011222955 $152 65.627437742545297 $143 $237 forward 7 unknown #
coedge $-1 $83 $82 $238 $239 reversed $32 $-1 #
edge $-1 $240 82.651042079659547 $152 94.163029877620787 $145 $241 forward 7 unknown #
coedge $-1 $242 $243 $83 $150 forward $141 $-1 #
edge $-1 $153 -63.051435299559685 $244 -51.539447501598431 $149 $245 forward 7 unknown #
coedge $-1 $246 $84 $243 $247 forward $79 $-1 #
vertex $-1 $85 $248 #
vertex $-1 $247 $249 #
straight-curve $-1 47.081514938810386 -8.407842189762631 1.9117584419836504 0 -1 0 I I #
face $-1 $250 $251 $18 $-1 $252 reversed single #
loop $-1 $-1 $253 $86 #
plane-surface $-1 47.081516483883135 -11.907661486233959 135.07839236905789 0 -1 0 -0.70710678939079041 0 -0.70710677298230451 forward_v I I I I #
loop $-1 $-1 $254 $52 #
coedge $-1 $159 $159 $-1 $255 forward $89 $-1 #
edge $-1 $256 0 $256 6.2831853071796004 $90 $257 forward 7 unknown #
vertex $-1 $93 $258 #
ellipse-curve $-1 43.011412667596367 -18.919122762364392 5.9818608076448232 -0.70710678939079041 0 -0.70710677298230451 0.70710677298230451 0 -0.70710678939079041 1 I I #
face $-1 $259 $170 $19 $-1 $260 forward single #
loop $-1 $261 $262 $94 #
cone-surface $-1 40.587467339524636 -18.919122762364392 3.557915535820996 -0.70710678939079041 0 -0.70710677298230451 0.35355338649115226 0 -0.35355339469539521 1 I I -0.70710678118654746 0.70710678118654746 0.5 forward I I I I #
loop $-1 $-1 $263 $57 #
coedge $-1 $167 $167 $264 $265 reversed $95 $-1 #
coedge $-1 $168 $168 $-1 $266 forward $97 $-1 #
edge $-1 $267 0 $267 6.2831853071796004 $98 $268 forward 7 unknown #
loop $-1 $269 $100 $163 #
vertex $-1 $101 $270 #
ellipse-curve $-1 43.011412667596367 -14.71224599668613 5.9818608076448232 -0.70710678939079041 0 -0.70710677298230451 0.70710677298230451 0 -0.70710678939079041 1 I I #
face $-1 $-1 $117 $15 $-1 $271 reversed single #
loop $-1 $-1 $189 $102 #
plane-surface $-1 0 21.723707272816565 0 0 -1 0 0 0 -1 forward_v I I I I #
coedge $-1 $272 $187 $190 $273 forward $103 $-1 #
coedge $-1 $193 $105 $106 $181 reversed $63 $-1 #
coedge $-1 $187 $272 $105 $179 reversed $103 $-1 #
edge $-1 $194 -10.051963173305992 $274 10.051963173305992 $178 $275 forward 7 unknown #
coedge $-1 $107 $106 $272 $276 forward $41 $-1 #
edge $-1 $185 -47.081514938810386 $274 47.081514938810386 $177 $277 forward 7 unknown #
coedge $-1 $190 $189 $107 $183 reversed $174 $-1 #
edge $-1 $278 -47.081514938810386 $184 47.081514938810386 $182 $279 forward 7 unknown #
vertex $-1 $109 $280 #
vertex $-1 $196 $281 #
straight-curve $-1 47.081514938810386 0 -10.051963173305992 0 -1 0 I I #
coedge $-1 $176 $178 $110 $188 reversed $103 $-1 #
edge $-1 $191 -21.723707272816565 $194 21.723707272816565 $187 $282 forward 7 unknown #
coedge $-1 $182 $111 $116 $197 forward $174 $-1 #
coedge $-1 $111 $182 $176 $273 reversed $174 $-1 #
vertex $-1 $112 $283 #
straight-curve $-1 0 21.723707272816565 10.051963173305992 -1 0 0 I I #
coedge $-1 $113 $177 $115 $196 reversed $63 $-1 #
vertex $-1 $188 $284 #
straight-curve $-1 0 -21.723707272816565 10.051963173305992 1 0 0 I I #
edge $-1 $118 -10.051963173305992 $185 10.051963173305992 $115 $285 forward 7 unknown #
edge $-1 $119 -10.051963173305992 $184 10.051963173305992 $116 $286 forward 7 unknown #
point $-1 47.081514938810386 -21.723707272816565 10.051963173305992 #
point $-1 47.081514938810386 21.723707272816565 10.051963173305992 #
face $-1 $287 $288 $16 $-1 $289 forward single #
coedge $-1 $290 $124 $205 $291 reversed $71 $-1 #
coedge $-1 $124 $290 $129 $215 reversed $71 $-1 #
coedge $-1 $130 $208 $124 $204 reversed $217 $-1 #
edge $-1 $218 -1.7124260270916283 $292 1.7124260270916283 $203 $293 forward 7 unknown #
coedge $-1 $126 $125 $201 $291 forward $45 $-1 #
coedge $-1 $294 $220 $125 $207 reversed $222 $-1 #
edge $-1 $212 -5.5353961954574871 $295 5.5353961954574871 $206 $296 forward 7 unknown #
coedge $-1 $203 $297 $126 $209 reversed $217 $-1 #
edge $-1 $292 -5.5353961954574871 $213 5.5353961954574871 $208 $298 forward 7 unknown #
coedge $-1 $299 $127 $297 $300 forward $122 $-1 #
coedge $-1 $127 $299 $294 $301 reversed $122 $-1 #
vertex $-1 $301 $302 #
vertex $-1 $300 $303 #
straight-curve $-1 -47.081514938810386 0 4.0550305990982514 0 1 0 I I #
edge $-1 $218 -21.723707272816565 $223 21.723707272816565 $202 $304 forward 7 unknown #
coedge $-1 $305 $130 $135 $227 reversed $217 $-1 #
loop $-1 $-1 $306 $307 #
vertex $-1 $131 $308 #
straight-curve $-1 -52.616911134267873 21.723707272816565 7.4798826532815079 -1 0 0 I I #
coedge $-1 $206 $132 $290 $309 forward $222 $-1 #
coedge $-1 $132 $310 $134 $226 forward $222 $-1 #
loop $-1 $-1 $221 $311 #
vertex $-1 $215 $312 #
straight-curve $-1 -52.616911134267873 -21.723707272816565 7.4798826532815079 1 0 0 I I #
coedge $-1 $135 $134 $313 $314 reversed $136 $-1 #
edge $-1 $315 -10.051963173305992 $138 -7.4798826532815079 $134 $316 forward 7 unknown #
edge $-1 $317 -10.051963173305992 $137 -7.4798826532815079 $216 $318 forward 7 unknown #
point $-1 -47.081514938810386 21.723707272816565 7.4798826532815079 #
point $-1 -47.081514938810386 -21.723707272816565 7.4798826532815079 #
face $-1 $319 $320 $17 $-1 $321 reversed single #
loop $-1 $-1 $322 $140 #
plane-surface $-1 -52.616911134267873 0 7.4798826532815079 0 0 1 1 0 0 forward_v I I I I #
coedge $-1 $143 $323 $324 $325 reversed $79 $-1 #
coedge $-1 $324 $238 $144 $235 forward $326 $-1 #
edge $-1 $240 15.400552154440767 $236 23.540756696868819 $234 $327 forward 7 unknown #
vertex $-1 $325 $328 #
straight-curve $-1 47.081514938810386 -11.907661486233959 67.539196184528947 0 0 -1 I I #
coedge $-1 $234 $329 $147 $239 forward $326 $-1 #
edge $-1 $244 -13.315865083053934 $240 -3.4998192964713279 $238 $330 forward 7 unknown #
vertex $-1 $239 $331 #
straight-curve $-1 -19.501801252190361 -11.907661486233959 68.495076178057147 0.70710677298230451 0 -0.70710678939079041 I I #
coedge $-1 $332 $149 $329 $333 reversed $141 $-1 #
coedge $-1 $149 $334 $151 $247 reversed $141 $-1 #
vertex $-1 $239 $335 #
straight-curve $-1 2.4974179922361817 -21.723707272816565 46.495856423136438 -0.70710677298230462 0 0.70710678939079052 I I #
coedge $-1 $323 $151 $336 $337 reversed $79 $-1 #
edge $-1 $153 -1.9117584419836473 $338 10.051963173305992 $151 $339 forward 7 unknown #
point $-1 47.081514938810386 -11.907661486233959 1.9117584419836504 #
point $-1 47.081514938810386 -21.723707272816565 1.9117584419836473 #
face $-1 $340 $341 $18 $-1 $342 reversed single #
loop $-1 $-1 $343 $155 #
plane-surface $-1 47.081514938810386 0 0 -1 0 0 0 0 1 forward_v I I I I #
coedge $-1 $344 $345 $343 $346 reversed $156 $-1 #
coedge $-1 $347 $348 $349 $350 reversed $158 $-1 #
edge $-1 $351 1 $351 0 $159 $-1 forward 7 unknown #
vertex $-1 $160 $352 #
ellipse-curve $-1 40.941020734220032 -18.919122762364392 3.9114689223121482 0.70710678939079041 0 0.70710677298230451 0.70710677298230451 0 -0.70710678939079041 1 I I #
point $-1 43.718519440578653 -18.919122762364392 5.2747540182540176 #
face $-1 $353 $354 $19 $-1 $355 forward single #
plane-surface $-1 -19.501801252190361 -16.815684379525262 68.495076178057147 0.70710678939079041 0 0.70710677298230451 0.70710677298230451 0 -0.70710678939079041 forward_v I I I I #
loop $-1 $-1 $356 $94 #
coedge $-1 $262 $262 $263 $357 forward $164 $-1 #
coedge $-1 $263 $263 $262 $357 reversed $166 $-1 #
coedge $-1 $264 $264 $167 $265 forward $269 $-1 #
edge $-1 $358 0 $358 6.2831853071796004 $264 $359 forward 7 unknown #
edge $-1 $360 1 $360 0 $168 $-1 forward 7 unknown #
vertex $-1 $169 $361 #
ellipse-curve $-1 40.941020734220032 -14.71224599668613 3.9114689223121482 0.70710678939079041 0 0.70710677298230451 0.70710677298230451 0 -0.70710678939079041 1 I I #
loop $-1 $362 $264 $163 #
point $-1 43.718519440578653 -14.71224599668613 5.2747540182540176 #
plane-surface $-1 47.081514938810386 0 0 -1 0 0 0 0 1 forward_v I I I I #
coedge $-1 $178 $176 $180 $276 reversed $103 $-1 #
edge $-1 $191 -10.051963173305992 $278 10.051963173305992 $190 $363 forward 7 unknown #
vertex $-1 $276 $364 #
straight-curve $-1 -47.081514938810386 -21.723707272816565 0 0 0 -1 I I #
edge $-1 $274 -21.723707272816565 $278 21.723707272816565 $272 $365 forward 7 unknown #
straight-curve $-1 0 -21.723707272816565 -10.051963173305992 -1 0 0 I I #
vertex $-1 $183 $366 #
straight-curve $-1 0 21.723707272816565 -10.051963173305992 1 0 0 I I #
point $-1 47.081514938810386 21.723707272816565 -10.051963173305992 #
point $-1 47.081514938810386 -21.723707272816565 -10.051963173305992 #
straight-curve $-1 -47.081514938810386 0 10.051963173305992 0 -1 0 I I #
point $-1 -47.081514938810386 21.723707272816565 10.051963173305992 #
point $-1 -47.081514938810386 -21.723707272816565 10.051963173305992 #
straight-curve $-1 47.081514938810386 -21.723707272816565 0 0 0 -1 I I #
straight-curve $-1 47.081514938810386 21.723707272816565 0 0 0 -1 I I #
face $-1 $311 $367 $16 $-1 $368 reversed single #
loop $-1 $-1 $369 $200 #
plane-surface $-1 0 0 10.051963173305992 0 0 1 1 0 0 forward_v I I I I #
coedge $-1 $202 $201 $220 $309 reversed $71 $-1 #
edge $-1 $295 -21.723707272816565 $292 21.723707272816565 $201 $370 forward 7 unknown #
vertex $-1 $209 $371 #
straight-curve $-1 -58.15230732972536 21.723707272816565 5.7674566261898796 0 0 -1 I I #
coedge $-1 $372 $206 $211 $301 forward $222 $-1 #
vertex $-1 $291 $373 #
straight-curve $-1 -52.616911134267873 -21.723707272816565 4.0550305990982514 -1 0 0 I I #
coedge $-1 $208 $374 $210 $300 reversed $217 $-1 #
straight-curve $-1 -52.616911134267873 21.723707272816565 4.0550305990982514 1 0 0 I I #
coedge $-1 $211 $210 $375 $376 reversed $122 $-1 #
edge $-1 $213 -4.0550305990982514 $377 10.051963173305992 $297 $318 forward 7 unknown #
edge $-1 $212 -4.0550305990982514 $378 10.051963173305992 $211 $316 forward 7 unknown #
point $-1 -47.081514938810386 -21.723707272816565 4.0550305990982514 #
point $-1 -47.081514938810386 21.723707272816565 4.0550305990982514 #
straight-curve $-1 -58.15230732972536 0 7.4798826532815079 0 -1 0 I I #
coedge $-1 $306 $216 $379 $380 reversed $217 $-1 #
coedge $-1 $374 $305 $381 $382 forward $217 $-1 #
face $-1 $383 $217 $16 $-1 $384 reversed single #
point $-1 -58.15230732972536 21.723707272816565 7.4798826532815079 #
edge $-1 $223 -1.7124260270916283 $295 1.7124260270916283 $290 $385 forward 7 unknown #
coedge $-1 $221 $386 $387 $388 reversed $222 $-1 #
face $-1 $307 $222 $16 $-1 $389 reversed single #
point $-1 -58.15230732972536 -21.723707272816565 7.4798826532815079 #
coedge $-1 $387 $379 $225 $314 forward $288 $-1 #
edge $-1 $317 -21.723707272816565 $315 21.723707272816565 $225 $390 forward 7 unknown #
vertex $-1 $314 $391 #
straight-curve $-1 -47.081514938810386 -21.723707272816565 0 0 0 -1 I I #
vertex $-1 $380 $392 #
straight-curve $-1 -47.081514938810386 21.723707272816565 0 0 0 -1 I I #
face $-1 $393 $394 $17 $-1 $395 reversed single #
loop $-1 $-1 $396 $230 #
plane-surface $-1 -52.616911134267873 0 4.0550305990982514 0 0 1 1 0 0 forward_v I I I I #
coedge $-1 $397 $398 $399 $400 reversed $231 $-1 #
coedge $-1 $233 $246 $401 $402 reversed $79 $-1 #
coedge $-1 $403 $234 $233 $325 forward $326 $-1 #
edge $-1 $236 -11.907661486233959 $404 21.723707272816565 $233 $405 forward 7 unknown #
loop $-1 $-1 $234 $406 #
straight-curve $-1 23.540758241941568 -11.907661486233959 10.051963173305992 1 0 0 I I #
point $-1 47.081514938810386 -11.907661486233959 10.051963173305992 #
coedge $-1 $238 $407 $242 $333 forward $326 $-1 #
straight-curve $-1 38.941310396382349 -8.407842189762631 10.051963173305985 0 1 0 I I #
point $-1 38.941310396382335 -11.907661486233959 10.051963173305985 #
coedge $-1 $408 $242 $409 $410 forward $141 $-1 #
edge $-1 $411 -47.081514938810386 $244 38.941310396382335 $242 $412 forward 7 unknown #
coedge $-1 $243 $413 $414 $415 reversed $141 $-1 #
point $-1 38.941310396382335 -21.723707272816565 10.051963173305985 #
coedge $-1 $414 $416 $246 $337 forward $417 $-1 #
edge $-1 $418 -21.723707272816565 $338 21.723707272816565 $246 $419 forward 7 unknown #
vertex $-1 $247 $420 #
straight-curve $-1 47.081514938810386 -21.723707272816565 0 0 0 -1 I I #
face $-1 $421 $422 $18 $-1 $423 forward single #
loop $-1 $-1 $424 $250 #
plane-surface $-1 0 -21.723707272816565 0 0 1 0 0 0 1 forward_v I I I I #
coedge $-1 $349 $425 $253 $346 forward $251 $-1 #
coedge $-1 $345 $253 $426 $427 reversed $156 $-1 #
coedge $-1 $253 $344 $347 $428 forward $156 $-1 #
edge $-1 $429 57.487233011222955 $430 65.627437742545297 $343 $431 forward 7 unknown #
coedge $-1 $432 $254 $345 $428 reversed $158 $-1 #
coedge $-1 $254 $432 $424 $433 reversed $158 $-1 #
coedge $-1 $434 $343 $254 $350 forward $251 $-1 #
edge $-1 $430 3.4998192964713279 $435 13.315865083053934 $349 $436 forward 7 unknown #
vertex $-1 $255 $437 #
point $-1 41.648127507202332 -18.919122762364392 3.2043621329213576 #
face $-1 $438 $439 $19 $-1 $440 reversed single #
loop $-1 $-1 $441 $259 #
plane-surface $-1 47.081516483883135 -11.907661486233959 135.07839236905789 0 -1 0 -0.70710678939079041 0 -0.70710677298230451 forward_v I I I I #
coedge $-1 $356 $356 $-1 $442 forward $261 $-1 #
edge $-1 $443 0 $443 6.2831853071796004 $262 $444 forward 7 unknown #
vertex $-1 $265 $445 #
ellipse-curve $-1 43.011412667596367 -18.919122762364392 5.9818608076448232 -0.70710678939079041 0 -0.70710677298230451 0.70710677298230451 0 -0.70710678939079041 1 I I #
vertex $-1 $266 $446 #
point $-1 41.648127507202332 -14.71224599668613 3.2043621329213576 #
loop $-1 $-1 $447 $163 #
straight-curve $-1 -47.081514938810386 21.723707272816565 0 0 0 -1 I I #
point $-1 -47.081514938810386 -21.723707272816565 -10.051963173305992 #
straight-curve $-1 -47.081514938810386 0 -10.051963173305992 0 1 0 I I #
point $-1 -47.081514938810386 21.723707272816565 -10.051963173305992 #
loop $-1 $-1 $448 $287 #
plane-surface $-1 0 0 -10.051963173305992 0 0 1 1 0 0 forward_v I I I I #
coedge $-1 $379 $387 $449 $450 forward $288 $-1 #
straight-curve $-1 -58.15230732972536 0 4.0550305990982514 0 1 0 I I #
point $-1 -58.15230732972536 21.723707272816565 4.0550305990982514 #
coedge $-1 $386 $294 $451 $452 reversed $222 $-1 #
point $-1 -58.15230732972536 -21.723707272816565 4.0550305990982514 #
coedge $-1 $297 $306 $453 $454 reversed $217 $-1 #
coedge $-1 $453 $451 $299 $376 forward $367 $-1 #
edge $-1 $378 -21.723707272816565 $377 21.723707272816565 $299 $455 forward 7 unknown #
vertex $-1 $454 $456 #
vertex $-1 $376 $457 #
coedge $-1 $313 $369 $305 $380 forward $288 $-1 #
edge $-1 $458 -47.081514938810386 $317 47.081514938810386 $305 $459 forward 7 unknown #
coedge $-1 $449 $460 $306 $382 reversed $461 $-1 #
edge $-1 $458 -10.051963173305992 $462 10.051963173305992 $381 $463 forward 7 unknown #
face $-1 $-1 $461 $16 $-1 $464 reversed single #
plane-surface $-1 0 21.723707272816565 0 0 -1 0 0 0 -1 forward_v I I I I #
straight-curve $-1 -58.15230732972536 -21.723707272816565 5.7674566261898796 0 0 -1 I I #
coedge $-1 $310 $372 $465 $466 reversed $222 $-1 #
coedge $-1 $369 $313 $310 $388 forward $288 $-1 #
edge $-1 $315 -47.081514938810386 $467 47.081514938810386 $310 $468 forward 7 unknown #
plane-surface $-1 0 -21.723707272816565 0 0 1 0 0 0 1 forward_v I I I I #
straight-curve $-1 -47.081514938810386 0 10.051963173305992 0 -1 0 I I #
point $-1 -47.081514938810386 -21.723707272816565 10.051963173305992 #
point $-1 -47.081514938810386 21.723707272816565 10.051963173305992 #
face $-1 $469 $470 $17 $-1 $471 reversed single #
loop $-1 $-1 $472 $319 #
plane-surface $-1 -58.15230732972536 0 5.7674566261898796 1 0 0 0 0 -1 forward_v I I I I #
coedge $-1 $473 $474 $475 $476 reversed $320 $-1 #
coedge $-1 $477 $322 $478 $479 forward $231 $-1 #
coedge $-1 $322 $477 $408 $480 forward $231 $-1 #
coedge $-1 $409 $481 $322 $400 forward $482 $-1 #
edge $-1 $483 -21.723707272816565 $484 21.723707272816565 $399 $485 forward 7 unknown #
coedge $-1 $486 $487 $323 $402 forward $488 $-1 #
edge $-1 $404 -10.051963173305992 $418 10.051963173305992 $323 $489 forward 7 unknown #
coedge $-1 $407 $324 $487 $490 forward $326 $-1 #
vertex $-1 $325 $491 #
straight-curve $-1 47.081514938810386 0 10.051963173305992 0 1 0 I I #
face $-1 $492 $326 $17 $-1 $493 forward single #
coedge $-1 $329 $403 $494 $495 forward $326 $-1 #
coedge $-1 $496 $332 $398 $480 reversed $141 $-1 #
coedge $-1 $494 $399 $332 $410 reversed $482 $-1 #
edge $-1 $411 -10.051963173305992 $484 -7.4798826532815079 $409 $497 forward 7 unknown #
vertex $-1 $495 $498 #
straight-curve $-1 0 -21.723707272816565 10.051963173305992 1 0 0 I I #
coedge $-1 $334 $499 $500 $501 forward $141 $-1 #
coedge $-1 $502 $336 $334 $415 forward $417 $-1 #
edge $-1 $338 -47.081514938810386 $503 47.081514938810386 $334 $504 forward 7 unknown #
coedge $-1 $336 $502 $486 $505 forward $417 $-1 #
loop $-1 $-1 $336 $492 #
vertex $-1 $337 $506 #
straight-curve $-1 47.081514938810386 0 -10.051963173305992 0 -1 0 I I #
point $-1 47.081514938810386 -21.723707272816565 -10.051963173305992 #
face $-1 $507 $508 $18 $-1 $509 reversed single #
loop $-1 $-1 $510 $340 #
plane-surface $-1 -52.616911134267873 0 7.4798826532815079 0 0 1 1 0 0 forward_v I I I I #
coedge $-1 $511 $512 $348 $433 forward $341 $-1 #
coedge $-1 $343 $513 $514 $515 reversed $251 $-1 #
coedge $-1 $514 $516 $344 $427 forward $517 $-1 #
edge $-1 $518 15.400552154440767 $429 23.540756696868819 $426 $519 forward 7 unknown #
edge $-1 $518 82.651042079659547 $430 94.163029877620787 $345 $520 forward 7 unknown #
vertex $-1 $515 $521 #
vertex $-1 $350 $522 #
straight-curve $-1 47.081514938810386 -11.907661486233959 67.539196184528947 0 0 -1 I I #
coedge $-1 $348 $347 $516 $523 reversed $158 $-1 #
edge $-1 $435 -63.051435299559685 $524 -51.539447501598431 $424 $525 forward 7 unknown #
coedge $-1 $526 $349 $512 $527 forward $251 $-1 #
vertex $-1 $527 $528 #
straight-curve $-1 47.081514938810386 -8.407842189762631 1.9117584419836504 0 -1 0 I I #
point $-1 40.23391394482924 -18.919122762364392 3.2043621493298438 #
face $-1 $529 $530 $19 $-1 $531 reversed single #
loop $-1 $-1 $532 $353 #
plane-surface $-1 47.081514938810386 0 0 -1 0 0 0 0 1 forward_v I I I I #
coedge $-1 $533 $534 $532 $535 reversed $354 $-1 #
edge $-1 $536 1 $536 0 $356 $-1 forward 7 unknown #
vertex $-1 $357 $537 #
ellipse-curve $-1 40.941020734220032 -18.919122762364392 3.9114689223121482 0.70710678939079041 0 0.70710677298230451 0.70710677298230451 0 -0.70710678939079041 1 I I #
point $-1 43.718519440578653 -18.919122762364392 5.2747540182540176 #
point $-1 40.23391394482924 -14.71224599668613 3.2043621493298438 #
coedge $-1 $538 $539 $540 $541 reversed $362 $-1 #
coedge $-1 $451 $453 $460 $542 forward $367 $-1 #
coedge $-1 $465 $381 $369 $450 reversed $461 $-1 #
edge $-1 $467 -21.723707272816565 $458 21.723707272816565 $449 $543 forward 7 unknown #
coedge $-1 $375 $448 $372 $452 forward $367 $-1 #
edge $-1 $544 -47.081514938810386 $378 47.081514938810386 $372 $545 forward 7 unknown #
coedge $-1 $448 $375 $374 $454 forward $367 $-1 #
edge $-1 $377 -47.081514938810386 $462 47.081514938810386 $374 $546 forward 7 unknown #
straight-curve $-1 -47.081514938810386 0 -10.051963173305992 0 1 0 I I #
point $-1 -47.081514938810386 21.723707272816565 -10.051963173305992 #
point $-1 -47.081514938810386 -21.723707272816565 -10.051963173305992 #
vertex $-1 $450 $547 #
straight-curve $-1 0 21.723707272816565 10.051963173305992 -1 0 0 I I #
coedge $-1 $381 $465 $448 $542 reversed $461 $-1 #
loop $-1 $-1 $465 $383 #
vertex $-1 $542 $548 #
straight-curve $-1 47.081514938810386 21.723707272816565 0 0 0 -1 I I #
plane-surface $-1 47.081514938810386 0 0 -1 0 0 0 0 1 forward_v I I I I #
coedge $-1 $460 $449 $386 $466 forward $461 $-1 #
edge $-1 $467 -10.051963173305992 $544 10.051963173305992 $465 $549 forward 7 unknown #
vertex $-1 $450 $550 #
straight-curve $-1 0 -21.723707272816565 10.051963173305992 1 0 0 I I #
face $-1 $406 $482 $17 $-1 $471 reversed single #
loop $-1 $-1 $475 $393 #
plane-surface $-1 -47.081514938810386 0 0 1 0 0 0 0 -1 forward_v I I I I #
coedge $-1 $551 $552 $553 $554 forward $394 $-1 #
coedge $-1 $555 $396 $499 $556 forward $320 $-1 #
coedge $-1 $396 $555 $557 $558 forward $320 $-1 #
coedge $-1 $559 $500 $396 $476 forward $470 $-1 #
edge $-1 $560 -21.723707272816565 $561 21.723707272816565 $475 $562 forward 7 unknown #
coedge $-1 $398 $397 $552 $563 forward $231 $-1 #
coedge $-1 $564 $553 $397 $479 reversed $488 $-1 #
edge $-1 $483 -5.5353961954574871 $565 5.5353961954574871 $478 $566 forward 7 unknown #
edge $-1 $567 -5.5353961954574871 $484 5.5353961954574871 $408 $568 forward 7 unknown #
coedge $-1 $399 $494 $564 $569 forward $482 $-1 #
loop $-1 $-1 $399 $469 #
vertex $-1 $569 $570 #
vertex $-1 $480 $571 #
straight-curve $-1 -47.081514938810386 0 7.4798826532815079 0 -1 0 I I #
coedge $-1 $572 $401 $416 $505 reversed $488 $-1 #
coedge $-1 $401 $564 $403 $490 reversed $488 $-1 #
loop $-1 $-1 $401 $573 #
straight-curve $-1 47.081514938810386 21.723707272816565 0 0 0 -1 I I #
edge $-1 $404 -47.081514938810386 $574 47.081514938810386 $487 $575 forward 7 unknown #
point $-1 47.081514938810386 21.723707272816565 10.051963173305992 #
face $-1 $573 $417 $17 $-1 $576 reversed single #
plane-surface $-1 0 0 10.051963173305992 0 0 1 1 0 0 forward_v I I I I #
coedge $-1 $481 $409 $407 $495 reversed $482 $-1 #
edge $-1 $574 -21.723707272816565 $411 21.723707272816565 $494 $577 forward 7 unknown #
coedge $-1 $499 $408 $578 $579 forward $141 $-1 #
straight-curve $-1 -47.081514938810386 -21.723707272816565 0 0 0 -1 I I #
point $-1 -47.081514938810386 -21.723707272816565 10.051963173305992 #
coedge $-1 $413 $496 $473 $556 reversed $141 $-1 #
coedge $-1 $475 $580 $413 $501 reversed $470 $-1 #
edge $-1 $560 -4.0550305990982514 $503 10.051963173305992 $500 $497 forward 7 unknown #
coedge $-1 $416 $414 $580 $581 forward $417 $-1 #
vertex $-1 $581 $582 #
straight-curve $-1 0 -21.723707272816565 -10.051963173305992 -1 0 0 I I #
edge $-1 $583 -47.081514938810386 $418 47.081514938810386 $486 $584 forward 7 unknown #
point $-1 47.081514938810386 21.723707272816565 -10.051963173305992 #
face $-1 $585 $586 $18 $-1 $587 reversed single #
loop $-1 $-1 $588 $421 #
plane-surface $-1 -52.616911134267873 0 4.0550305990982514 0 0 1 1 0 0 forward_v I I I I #
coedge $-1 $589 $590 $591 $592 reversed $422 $-1 #
coedge $-1 $593 $424 $594 $595 reversed $341 $-1 #
coedge $-1 $424 $596 $434 $527 reversed $341 $-1 #
coedge $-1 $425 $526 $597 $598 reversed $251 $-1 #
coedge $-1 $599 $426 $425 $515 forward $517 $-1 #
edge $-1 $429 -11.907661486233959 $600 21.723707272816565 $425 $601 forward 7 unknown #
coedge $-1 $426 $594 $432 $523 forward $517 $-1 #
loop $-1 $-1 $426 $602 #
vertex $-1 $523 $603 #
straight-curve $-1 23.540758241941568 -11.907661486233959 10.051963173305992 1 0 0 I I #
straight-curve $-1 -19.501801252190361 -11.907661486233959 68.495076178057147 0.70710677298230451 0 -0.70710678939079041 I I #
point $-1 47.081514938810386 -11.907661486233959 10.051963173305992 #
point $-1 47.081514938810386 -11.907661486233959 1.9117584419836504 #
edge $-1 $524 -13.315865083053934 $518 -3.4998192964713279 $516 $604 forward 7 unknown #
vertex $-1 $523 $605 #
straight-curve $-1 2.4974179922361817 -21.723707272816565 46.495856423136438 -0.70710677298230462 0 0.70710678939079052 I I #
coedge $-1 $513 $434 $606 $607 reversed $251 $-1 #
edge $-1 $435 -1.9117584419836473 $608 10.051963173305992 $434 $609 forward 7 unknown #
point $-1 47.081514938810386 -21.723707272816565 1.9117584419836473 #
face $-1 $610 $611 $19 $-1 $612 forward single #
loop $-1 $-1 $613 $438 #
plane-surface $-1 0 -21.723707272816565 0 0 1 0 0 0 1 forward_v I I I I #
coedge $-1 $540 $614 $441 $535 forward $439 $-1 #
coedge $-1 $534 $441 $615 $616 reversed $354 $-1 #
coedge $-1 $441 $533 $538 $617 forward $354 $-1 #
edge $-1 $618 57.487233011222955 $619 65.627437742545297 $532 $620 forward 7 unknown #
vertex $-1 $442 $621 #
point $-1 41.648127507202332 -18.919122762364392 3.2043621329213576 #
coedge $-1 $622 $447 $534 $617 reversed $362 $-1 #
coedge $-1 $447 $622 $613 $623 reversed $362 $-1 #
coedge $-1 $624 $532 $447 $541 forward $439 $-1 #
edge $-1 $619 3.4998192964713279 $625 13.315865083053934 $540 $626 forward 7 unknown #
edge $-1 $462 -21.723707272816565 $544 21.723707272816565 $460 $627 forward 7 unknown #
straight-curve $-1 47.081514938810386 0 10.051963173305992 0 1 0 I I #
vertex $-1 $466 $628 #
straight-curve $-1 0 -21.723707272816565 -10.051963173305992 -1 0 0 I I #
straight-curve $-1 0 21.723707272816565 -10.051963173305992 1 0 0 I I #
point $-1 47.081514938810386 21.723707272816565 10.051963173305992 #
point $-1 47.081514938810386 21.723707272816565 -10.051963173305992 #
straight-curve $-1 47.081514938810386 -21.723707272816565 0 0 0 -1 I I #
point $-1 47.081514938810386 -21.723707272816565 10.051963173305992 #
coedge $-1 $578 $472 $555 $629 reversed $394 $-1 #
coedge $-1 $472 $578 $477 $563 reversed $394 $-1 #
coedge $-1 $478 $557 $472 $554 reversed $488 $-1 #
edge $-1 $565 -1.7124260270916283 $630 1.7124260270916283 $553 $631 forward 7 unknown #
coedge $-1 $474 $473 $551 $629 forward $320 $-1 #
edge $-1 $560 -5.5353961954574871 $632 5.5353961954574871 $499 $633 forward 7 unknown #
coedge $-1 $553 $572 $474 $558 reversed $488 $-1 #
edge $-1 $630 -5.5353961954574871 $561 5.5353961954574871 $557 $634 forward 7 unknown #
coedge $-1 $580 $475 $572 $635 forward $470 $-1 #
vertex $-1 $501 $636 #
vertex $-1 $635 $637 #
straight-curve $-1 -47.081514938810386 0 4.0550305990982514 0 1 0 I I #
edge $-1 $565 -21.723707272816565 $567 21.723707272816565 $552 $638 forward 7 unknown #
coedge $-1 $487 $478 $481 $569 reversed $488 $-1 #
vertex $-1 $479 $639 #
straight-curve $-1 -52.616911134267873 21.723707272816565 7.4798826532815079 -1 0 0 I I #
vertex $-1 $563 $640 #
straight-curve $-1 -52.616911134267873 -21.723707272816565 7.4798826532815079 1 0 0 I I #
edge $-1 $574 -10.051963173305992 $483 -7.4798826532815079 $564 $641 forward 7 unknown #
point $-1 -47.081514938810386 21.723707272816565 7.4798826532815079 #
point $-1 -47.081514938810386 -21.723707272816565 7.4798826532815079 #
coedge $-1 $557 $486 $559 $635 reversed $488 $-1 #
face $-1 $-1 $488 $17 $-1 $642 reversed single #
vertex $-1 $490 $643 #
straight-curve $-1 0 21.723707272816565 10.051963173305992 -1 0 0 I I #
plane-surface $-1 0 0 -10.051963173305992 0 0 1 1 0 0 forward_v I I I I #
straight-curve $-1 -47.081514938810386 0 10.051963173305992 0 -1 0 I I #
coedge $-1 $552 $551 $496 $579 reversed $394 $-1 #
edge $-1 $567 -1.7124260270916283 $632 1.7124260270916283 $578 $644 forward 7 unknown #
coedge $-1 $500 $559 $502 $581 reversed $470 $-1 #
edge $-1 $503 -21.723707272816565 $583 21.723707272816565 $580 $645 forward 7 unknown #
point $-1 -47.081514938810386 -21.723707272816565 -10.051963173305992 #
vertex $-1 $505 $646 #
straight-curve $-1 0 21.723707272816565 -10.051963173305992 1 0 0 I I #
face $-1 $647 $648 $18 $-1 $649 reversed single #
loop $-1 $-1 $650 $507 #
plane-surface $-1 -58.15230732972536 0 5.7674566261898796 1 0 0 0 0 -1 forward_v I I I I #
coedge $-1 $651 $652 $653 $654 reversed $508 $-1 #
coedge $-1 $655 $510 $656 $657 forward $422 $-1 #
coedge $-1 $510 $655 $658 $659 forward $422 $-1 #
coedge $-1 $660 $661 $510 $592 forward $662 $-1 #
edge $-1 $663 -21.723707272816565 $664 21.723707272816565 $591 $665 forward 7 unknown #
coedge $-1 $658 $511 $660 $666 forward $341 $-1 #
coedge $-1 $516 $667 $511 $595 forward $517 $-1 #
edge $-1 $668 -47.081514938810386 $524 38.941310396382335 $511 $669 forward 7 unknown #
coedge $-1 $512 $670 $671 $672 reversed $341 $-1 #
coedge $-1 $673 $674 $513 $598 forward $675 $-1 #
edge $-1 $600 -10.051963173305992 $676 10.051963173305992 $513 $677 forward 7 unknown #
coedge $-1 $667 $514 $674 $678 forward $517 $-1 #
vertex $-1 $515 $679 #
straight-curve $-1 47.081514938810386 0 10.051963173305992 0 1 0 I I #
face $-1 $680 $517 $18 $-1 $681 forward single #
point $-1 38.941310396382335 -11.907661486233959 10.051963173305985 #
straight-curve $-1 38.941310396382349 -8.407842189762631 10.051963173305985 0 1 0 I I #
point $-1 38.941310396382335 -21.723707272816565 10.051963173305985 #
coedge $-1 $671 $682 $526 $607 forward $683 $-1 #
edge $-1 $676 -21.723707272816565 $608 21.723707272816565 $526 $684 forward 7 unknown #
vertex $-1 $527 $685 #
straight-curve $-1 47.081514938810386 -21.723707272816565 0 0 0 -1 I I #
face $-1 $686 $687 $19 $-1 $688 reversed single #
loop $-1 $-1 $689 $529 #
plane-surface $-1 -52.616911134267873 0 7.4798826532815079 0 0 1 1 0 0 forward_v I I I I #
coedge $-1 $690 $691 $539 $623 forward $530 $-1 #
coedge $-1 $532 $692 $693 $694 reversed $439 $-1 #
coedge $-1 $693 $695 $533 $616 forward $696 $-1 #
edge $-1 $697 15.400552154440767 $618 23.540756696868819 $615 $698 forward 7 unknown #
edge $-1 $697 82.651042079659547 $619 94.163029877620787 $534 $699 forward 7 unknown #
vertex $-1 $694 $700 #
vertex $-1 $541 $701 #
straight-curve $-1 47.081514938810386 -11.907661486233959 67.539196184528947 0 0 -1 I I #
point $-1 40.23391394482924 -18.919122762364392 3.2043621493298438 #
coedge $-1 $539 $538 $695 $702 reversed $362 $-1 #
edge $-1 $625 -63.051435299559685 $703 -51.539447501598431 $613 $704 forward 7 unknown #
coedge $-1 $705 $540 $691 $706 forward $439 $-1 #
vertex $-1 $706 $707 #
straight-curve $-1 47.081514938810386 -8.407842189762631 1.9117584419836504 0 -1 0 I I #
straight-curve $-1 47.081514938810386 0 -10.051963173305992 0 -1 0 I I #
point $-1 47.081514938810386 -21.723707272816565 -10.051963173305992 #
edge $-1 $632 -21.723707272816565 $630 21.723707272816565 $551 $708 forward 7 unknown #
vertex $-1 $558 $709 #
straight-curve $-1 -58.15230732972536 21.723707272816565 5.7674566261898796 0 0 -1 I I #
vertex $-1 $629 $710 #
straight-curve $-1 -52.616911134267873 -21.723707272816565 4.0550305990982514 -1 0 0 I I #
straight-curve $-1 -52.616911134267873 21.723707272816565 4.0550305990982514 1 0 0 I I #
edge $-1 $561 -4.0550305990982514 $583 10.051963173305992 $572 $641 forward 7 unknown #
point $-1 -47.081514938810386 -21.723707272816565 4.0550305990982514 #
point $-1 -47.081514938810386 21.723707272816565 4.0550305990982514 #
straight-curve $-1 -58.15230732972536 0 7.4798826532815079 0 -1 0 I I #
point $-1 -58.15230732972536 21.723707272816565 7.4798826532815079 #
point $-1 -58.15230732972536 -21.723707272816565 7.4798826532815079 #
straight-curve $-1 -47.081514938810386 21.723707272816565 0 0 0 -1 I I #
plane-surface $-1 0 21.723707272816565 0 0 -1 0 0 0 -1 forward_v I I I I #
point $-1 -47.081514938810386 21.723707272816565 10.051963173305992 #
straight-curve $-1 -58.15230732972536 -21.723707272816565 5.7674566261898796 0 0 -1 I I #
straight-curve $-1 -47.081514938810386 0 -10.051963173305992 0 1 0 I I #
point $-1 -47.081514938810386 21.723707272816565 -10.051963173305992 #
face $-1 $602 $662 $18 $-1 $649 reversed single #
loop $-1 $-1 $653 $585 #
plane-surface $-1 -47.081514938810386 0 0 1 0 0 0 0 -1 forward_v I I I I #
coedge $-1 $711 $712 $713 $714 forward $586 $-1 #
coedge $-1 $715 $588 $716 $717 forward $508 $-1 #
coedge $-1 $588 $715 $718 $719 forward $508 $-1 #
coedge $-1 $720 $721 $588 $654 forward $648 $-1 #
edge $-1 $722 -21.723707272816565 $723 21.723707272816565 $653 $724 forward 7 unknown #
coedge $-1 $590 $589 $712 $725 forward $422 $-1 #
coedge $-1 $726 $713 $589 $657 reversed $675 $-1 #
edge $-1 $663 -5.5353961954574871 $727 5.5353961954574871 $656 $728 forward 7 unknown #
coedge $-1 $729 $593 $590 $659 reversed $341 $-1 #
edge $-1 $730 -5.5353961954574871 $664 5.5353961954574871 $658 $731 forward 7 unknown #
coedge $-1 $732 $591 $593 $666 reversed $662 $-1 #
coedge $-1 $591 $732 $726 $733 forward $662 $-1 #
loop $-1 $-1 $591 $647 #
vertex $-1 $733 $734 #
vertex $-1 $659 $735 #
straight-curve $-1 -47.081514938810386 0 7.4798826532815079 0 -1 0 I I #
edge $-1 $668 -10.051963173305992 $664 -7.4798826532815079 $660 $736 forward 7 unknown #
coedge $-1 $594 $599 $732 $737 forward $517 $-1 #
vertex $-1 $737 $738 #
straight-curve $-1 0 -21.723707272816565 10.051963173305992 1 0 0 I I #
coedge $-1 $596 $716 $721 $739 forward $341 $-1 #
coedge $-1 $740 $606 $596 $672 forward $683 $-1 #
edge $-1 $608 -47.081514938810386 $741 47.081514938810386 $596 $742 forward 7 unknown #
coedge $-1 $743 $597 $682 $744 reversed $675 $-1 #
coedge $-1 $597 $726 $599 $678 reversed $675 $-1 #
loop $-1 $-1 $597 $745 #
vertex $-1 $607 $746 #
straight-curve $-1 47.081514938810386 21.723707272816565 0 0 0 -1 I I #
edge $-1 $600 -47.081514938810386 $747 47.081514938810386 $674 $748 forward 7 unknown #
point $-1 47.081514938810386 21.723707272816565 10.051963173305992 #
face $-1 $745 $683 $18 $-1 $749 reversed single #
plane-surface $-1 0 0 10.051963173305992 0 0 1 1 0 0 forward_v I I I I #
coedge $-1 $606 $740 $673 $744 forward $683 $-1 #
loop $-1 $-1 $606 $680 #
straight-curve $-1 47.081514938810386 0 -10.051963173305992 0 -1 0 I I #
point $-1 47.081514938810386 -21.723707272816565 -10.051963173305992 #
face $-1 $750 $751 $19 $-1 $752 reversed single #
loop $-1 $-1 $753 $610 #
plane-surface $-1 -52.616911134267873 0 4.0550305990982514 0 0 1 1 0 0 forward_v I I I I #
coedge $-1 $754 $755 $756 $757 reversed $611 $-1 #
coedge $-1 $758 $613 $759 $760 reversed $530 $-1 #
coedge $-1 $613 $761 $624 $706 reversed $530 $-1 #
coedge $-1 $614 $705 $762 $763 reversed $439 $-1 #
coedge $-1 $764 $615 $614 $694 forward $696 $-1 #
edge $-1 $618 -11.907661486233959 $765 21.723707272816565 $614 $766 forward 7 unknown #
coedge $-1 $615 $759 $622 $702 forward $696 $-1 #
loop $-1 $-1 $615 $767 #
vertex $-1 $702 $768 #
straight-curve $-1 23.540758241941568 -11.907661486233959 10.051963173305992 1 0 0 I I #
straight-curve $-1 -19.501801252190361 -11.907661486233959 68.495076178057147 0.70710677298230451 0 -0.70710678939079041 I I #
point $-1 47.081514938810386 -11.907661486233959 10.051963173305992 #
point $-1 47.081514938810386 -11.907661486233959 1.9117584419836504 #
edge $-1 $703 -13.315865083053934 $697 -3.4998192964713279 $695 $769 forward 7 unknown #
vertex $-1 $702 $770 #
straight-curve $-1 2.4974179922361817 -21.723707272816565 46.495856423136438 -0.70710677298230462 0 0.70710678939079052 I I #
coedge $-1 $692 $624 $771 $772 reversed $439 $-1 #
edge $-1 $625 -1.9117584419836473 $773 10.051963173305992 $624 $774 forward 7 unknown #
point $-1 47.081514938810386 -21.723707272816565 1.9117584419836473 #
straight-curve $-1 -58.15230732972536 0 4.0550305990982514 0 1 0 I I #
point $-1 -58.15230732972536 21.723707272816565 4.0550305990982514 #
point $-1 -58.15230732972536 -21.723707272816565 4.0550305990982514 #
coedge $-1 $775 $650 $715 $776 reversed $586 $-1 #
coedge $-1 $650 $775 $655 $725 reversed $586 $-1 #
coedge $-1 $656 $718 $650 $714 reversed $675 $-1 #
edge $-1 $727 -1.7124260270916283 $777 1.7124260270916283 $713 $778 forward 7 unknown #
coedge $-1 $652 $651 $711 $776 forward $508 $-1 #
coedge $-1 $670 $729 $651 $717 reversed $341 $-1 #
edge $-1 $722 -5.5353961954574871 $779 5.5353961954574871 $716 $780 forward 7 unknown #
coedge $-1 $713 $743 $652 $719 reversed $675 $-1 #
edge $-1 $777 -5.5353961954574871 $723 5.5353961954574871 $718 $781 forward 7 unknown #
coedge $-1 $782 $653 $743 $783 forward $648 $-1 #
coedge $-1 $653 $782 $670 $739 reversed $648 $-1 #
vertex $-1 $739 $784 #
vertex $-1 $783 $785 #
straight-curve $-1 -47.081514938810386 0 4.0550305990982514 0 1 0 I I #
edge $-1 $727 -21.723707272816565 $730 21.723707272816565 $712 $786 forward 7 unknown #
coedge $-1 $674 $656 $661 $733 reversed $675 $-1 #
vertex $-1 $657 $787 #
straight-curve $-1 -52.616911134267873 21.723707272816565 7.4798826532815079 -1 0 0 I I #
coedge $-1 $716 $658 $775 $788 forward $341 $-1 #
vertex $-1 $725 $789 #
straight-curve $-1 -52.616911134267873 -21.723707272816565 7.4798826532815079 1 0 0 I I #
coedge $-1 $661 $660 $667 $737 reversed $662 $-1 #
edge $-1 $747 -10.051963173305992 $663 -7.4798826532815079 $726 $790 forward 7 unknown #
point $-1 -47.081514938810386 21.723707272816565 7.4798826532815079 #
point $-1 -47.081514938810386 -21.723707272816565 7.4798826532815079 #
straight-curve $-1 -47.081514938810386 -21.723707272816565 0 0 0 -1 I I #
edge $-1 $747 -21.723707272816565 $668 21.723707272816565 $732 $791 forward 7 unknown #
point $-1 -47.081514938810386 -21.723707272816565 10.051963173305992 #
edge $-1 $722 -4.0550305990982514 $741 10.051963173305992 $721 $736 forward 7 unknown #
coedge $-1 $682 $671 $782 $792 forward $683 $-1 #
vertex $-1 $792 $793 #
straight-curve $-1 0 -21.723707272816565 -10.051963173305992 -1 0 0 I I #
coedge $-1 $718 $673 $720 $783 reversed $675 $-1 #
edge $-1 $794 -47.081514938810386 $676 47.081514938810386 $673 $795 forward 7 unknown #
face $-1 $-1 $675 $18 $-1 $796 reversed single #
point $-1 47.081514938810386 21.723707272816565 -10.051963173305992 #
vertex $-1 $678 $797 #
straight-curve $-1 0 21.723707272816565 10.051963173305992 -1 0 0 I I #
plane-surface $-1 0 0 -10.051963173305992 0 0 1 1 0 0 forward_v I I I I #
face $-1 $798 $799 $19 $-1 $800 reversed single #
loop $-1 $-1 $801 $686 #
plane-surface $-1 -58.15230732972536 0 5.7674566261898796 1 0 0 0 0 -1 forward_v I I I I #
coedge $-1 $802 $803 $804 $805 reversed $687 $-1 #
coedge $-1 $806 $689 $807 $808 forward $611 $-1 #
coedge $-1 $689 $806 $809 $810 forward $611 $-1 #
coedge $-1 $811 $812 $689 $757 forward $813 $-1 #
edge $-1 $814 -21.723707272816565 $815 21.723707272816565 $756 $816 forward 7 unknown #
coedge $-1 $809 $690 $811 $817 forward $530 $-1 #
coedge $-1 $695 $818 $690 $760 forward $696 $-1 #
edge $-1 $819 -47.081514938810386 $703 38.941310396382335 $690 $820 forward 7 unknown #
coedge $-1 $691 $821 $822 $823 reversed $530 $-1 #
coedge $-1 $824 $825 $692 $763 forward $826 $-1 #
edge $-1 $765 -10.051963173305992 $827 10.051963173305992 $692 $828 forward 7 unknown #
coedge $-1 $818 $693 $825 $829 forward $696 $-1 #
vertex $-1 $694 $830 #
straight-curve $-1 47.081514938810386 0 10.051963173305992 0 1 0 I I #
face $-1 $831 $696 $19 $-1 $832 forward single #
point $-1 38.941310396382335 -11.907661486233959 10.051963173305985 #
straight-curve $-1 38.941310396382349 -8.407842189762631 10.051963173305985 0 1 0 I I #
point $-1 38.941310396382335 -21.723707272816565 10.051963173305985 #
coedge $-1 $822 $833 $705 $772 forward $834 $-1 #
edge $-1 $827 -21.723707272816565 $773 21.723707272816565 $705 $835 forward 7 unknown #
vertex $-1 $706 $836 #
straight-curve $-1 47.081514938810386 -21.723707272816565 0 0 0 -1 I I #
coedge $-1 $712 $711 $729 $788 reversed $586 $-1 #
edge $-1 $779 -21.723707272816565 $777 21.723707272816565 $711 $837 forward 7 unknown #
vertex $-1 $719 $838 #
straight-curve $-1 -58.15230732972536 21.723707272816565 5.7674566261898796 0 0 -1 I I #
vertex $-1 $776 $839 #
straight-curve $-1 -52.616911134267873 -21.723707272816565 4.0550305990982514 -1 0 0 I I #
straight-curve $-1 -52.616911134267873 21.723707272816565 4.0550305990982514 1 0 0 I I #
coedge $-1 $721 $720 $740 $792 reversed $648 $-1 #
edge $-1 $723 -4.0550305990982514 $794 10.051963173305992 $743 $790 forward 7 unknown #
point $-1 -47.081514938810386 -21.723707272816565 4.0550305990982514 #
point $-1 -47.081514938810386 21.723707272816565 4.0550305990982514 #
straight-curve $-1 -58.15230732972536 0 7.4798826532815079 0 -1 0 I I #
point $-1 -58.15230732972536 21.723707272816565 7.4798826532815079 #
edge $-1 $730 -1.7124260270916283 $779 1.7124260270916283 $775 $840 forward 7 unknown #
point $-1 -58.15230732972536 -21.723707272816565 7.4798826532815079 #
straight-curve $-1 -47.081514938810386 21.723707272816565 0 0 0 -1 I I #
straight-curve $-1 -47.081514938810386 0 10.051963173305992 0 -1 0 I I #
edge $-1 $741 -21.723707272816565 $794 21.723707272816565 $782 $841 forward 7 unknown #
point $-1 -47.081514938810386 -21.723707272816565 -10.051963173305992 #
vertex $-1 $744 $842 #
straight-curve $-1 0 21.723707272816565 -10.051963173305992 1 0 0 I I #
plane-surface $-1 0 21.723707272816565 0 0 -1 0 0 0 -1 forward_v I I I I #
point $-1 -47.081514938810386 21.723707272816565 10.051963173305992 #
face $-1 $767 $813 $19 $-1 $800 reversed single #
loop $-1 $-1 $804 $750 #
plane-surface $-1 -47.081514938810386 0 0 1 0 0 0 0 -1 forward_v I I I I #
coedge $-1 $843 $844 $845 $846 forward $751 $-1 #
coedge $-1 $847 $753 $848 $849 forward $687 $-1 #
coedge $-1 $753 $847 $850 $851 forward $687 $-1 #
coedge $-1 $852 $853 $753 $805 forward $799 $-1 #
edge $-1 $854 -21.723707272816565 $855 21.723707272816565 $804 $856 forward 7 unknown #
coedge $-1 $755 $754 $844 $857 forward $611 $-1 #
coedge $-1 $858 $845 $754 $808 reversed $826 $-1 #
edge $-1 $814 -5.5353961954574871 $859 5.5353961954574871 $807 $860 forward 7 unknown #
coedge $-1 $861 $758 $755 $810 reversed $530 $-1 #
edge $-1 $862 -5.5353961954574871 $815 5.5353961954574871 $809 $863 forward 7 unknown #
coedge $-1 $864 $756 $758 $817 reversed $813 $-1 #
coedge $-1 $756 $864 $858 $865 forward $813 $-1 #
loop $-1 $-1 $756 $798 #
vertex $-1 $865 $866 #
vertex $-1 $810 $867 #
straight-curve $-1 -47.081514938810386 0 7.4798826532815079 0 -1 0 I I #
edge $-1 $819 -10.051963173305992 $815 -7.4798826532815079 $811 $868 forward 7 unknown #
coedge $-1 $759 $764 $864 $869 forward $696 $-1 #
vertex $-1 $869 $870 #
straight-curve $-1 0 -21.723707272816565 10.051963173305992 1 0 0 I I #
coedge $-1 $761 $848 $853 $871 forward $530 $-1 #
coedge $-1 $872 $771 $761 $823 forward $834 $-1 #
edge $-1 $773 -47.081514938810386 $873 47.081514938810386 $761 $874 forward 7 unknown #
coedge $-1 $875 $762 $833 $876 reversed $826 $-1 #
coedge $-1 $762 $858 $764 $829 reversed $826 $-1 #
loop $-1 $-1 $762 $877 #
vertex $-1 $772 $878 #
straight-curve $-1 47.081514938810386 21.723707272816565 0 0 0 -1 I I #
edge $-1 $765 -47.081514938810386 $879 47.081514938810386 $825 $880 forward 7 unknown #
point $-1 47.081514938810386 21.723707272816565 10.051963173305992 #
face $-1 $877 $834 $19 $-1 $881 reversed single #
plane-surface $-1 0 0 10.051963173305992 0 0 1 1 0 0 forward_v I I I I #
coedge $-1 $771 $872 $824 $876 forward $834 $-1 #
loop $-1 $-1 $771 $831 #
straight-curve $-1 47.081514938810386 0 -10.051963173305992 0 -1 0 I I #
point $-1 47.081514938810386 -21.723707272816565 -10.051963173305992 #
straight-curve $-1 -58.15230732972536 0 4.0550305990982514 0 1 0 I I #
point $-1 -58.15230732972536 21.723707272816565 4.0550305990982514 #
point $-1 -58.15230732972536 -21.723707272816565 4.0550305990982514 #
straight-curve $-1 -58.15230732972536 -21.723707272816565 5.7674566261898796 0 0 -1 I I #
straight-curve $-1 -47.081514938810386 0 -10.051963173305992 0 1 0 I I #
point $-1 -47.081514938810386 21.723707272816565 -10.051963173305992 #
coedge $-1 $882 $801 $847 $883 reversed $751 $-1 #
coedge $-1 $801 $882 $806 $857 reversed $751 $-1 #
coedge $-1 $807 $850 $801 $846 reversed $826 $-1 #
edge $-1 $859 -1.7124260270916283 $884 1.7124260270916283 $845 $885 forward 7 unknown #
coedge $-1 $803 $802 $843 $883 forward $687 $-1 #
coedge $-1 $821 $861 $802 $849 reversed $530 $-1 #
edge $-1 $854 -5.5353961954574871 $886 5.5353961954574871 $848 $887 forward 7 unknown #
coedge $-1 $845 $875 $803 $851 reversed $826 $-1 #
edge $-1 $884 -5.5353961954574871 $855 5.5353961954574871 $850 $888 forward 7 unknown #
coedge $-1 $889 $804 $875 $890 forward $799 $-1 #
coedge $-1 $804 $889 $821 $871 reversed $799 $-1 #
vertex $-1 $871 $891 #
vertex $-1 $890 $892 #
straight-curve $-1 -47.081514938810386 0 4.0550305990982514 0 1 0 I I #
edge $-1 $859 -21.723707272816565 $862 21.723707272816565 $844 $893 forward 7 unknown #
coedge $-1 $825 $807 $812 $865 reversed $826 $-1 #
vertex $-1 $808 $894 #
straight-curve $-1 -52.616911134267873 21.723707272816565 7.4798826532815079 -1 0 0 I I #
coedge $-1 $848 $809 $882 $895 forward $530 $-1 #
vertex $-1 $857 $896 #
straight-curve $-1 -52.616911134267873 -21.723707272816565 7.4798826532815079 1 0 0 I I #
coedge $-1 $812 $811 $818 $869 reversed $813 $-1 #
edge $-1 $879 -10.051963173305992 $814 -7.4798826532815079 $858 $897 forward 7 unknown #
point $-1 -47.081514938810386 21.723707272816565 7.4798826532815079 #
point $-1 -47.081514938810386 -21.723707272816565 7.4798826532815079 #
straight-curve $-1 -47.081514938810386 -21.723707272816565 0 0 0 -1 I I #
edge $-1 $879 -21.723707272816565 $819 21.723707272816565 $864 $898 forward 7 unknown #
point $-1 -47.081514938810386 -21.723707272816565 10.051963173305992 #
edge $-1 $854 -4.0550305990982514 $873 10.051963173305992 $853 $868 forward 7 unknown #
coedge $-1 $833 $822 $889 $899 forward $834 $-1 #
vertex $-1 $899 $900 #
straight-curve $-1 0 -21.723707272816565 -10.051963173305992 -1 0 0 I I #
coedge $-1 $850 $824 $852 $890 reversed $826 $-1 #
edge $-1 $901 -47.081514938810386 $827 47.081514938810386 $824 $902 forward 7 unknown #
face $-1 $-1 $826 $19 $-1 $903 reversed single #
point $-1 47.081514938810386 21.723707272816565 -10.051963173305992 #
vertex $-1 $829 $904 #
straight-curve $-1 0 21.723707272816565 10.051963173305992 -1 0 0 I I #
plane-surface $-1 0 0 -10.051963173305992 0 0 1 1 0 0 forward_v I I I I #
coedge $-1 $844 $843 $861 $895 reversed $751 $-1 #
edge $-1 $886 -21.723707272816565 $884 21.723707272816565 $843 $905 forward 7 unknown #
vertex $-1 $851 $906 #
straight-curve $-1 -58.15230732972536 21.723707272816565 5.7674566261898796 0 0 -1 I I #
vertex $-1 $883 $907 #
straight-curve $-1 -52.616911134267873 -21.723707272816565 4.0550305990982514 -1 0 0 I I #
straight-curve $-1 -52.616911134267873 21.723707272816565 4.0550305990982514 1 0 0 I I #
coedge $-1 $853 $852 $872 $899 reversed $799 $-1 #
edge $-1 $855 -4.0550305990982514 $901 10.051963173305992 $875 $897 forward 7 unknown #
point $-1 -47.081514938810386 -21.723707272816565 4.0550305990982514 #
point $-1 -47.081514938810386 21.723707272816565 4.0550305990982514 #
straight-curve $-1 -58.15230732972536 0 7.4798826532815079 0 -1 0 I I #
point $-1 -58.15230732972536 21.723707272816565 7.4798826532815079 #
edge $-1 $862 -1.7124260270916283 $886 1.7124260270916283 $882 $908 forward 7 unknown #
point $-1 -58.15230732972536 -21.723707272816565 7.4798826532815079 #
straight-curve $-1 -47.081514938810386 21.723707272816565 0 0 0 -1 I I #
straight-curve $-1 -47.081514938810386 0 10.051963173305992 0 -1 0 I I #
edge $-1 $873 -21.723707272816565 $901 21.723707272816565 $889 $909 forward 7 unknown #
point $-1 -47.081514938810386 -21.723707272816565 -10.051963173305992 #
vertex $-1 $876 $910 #
straight-curve $-1 0 21.723707272816565 -10.051963173305992 1 0 0 I I #
plane-surface $-1 0 21.723707272816565 0 0 -1 0 0 0 -1 forward_v I I I I #
point $-1 -47.081514938810386 21.723707272816565 10.051963173305992 #
straight-curve $-1 -58.15230732972536 0 4.0550305990982514 0 1 0 I I #
point $-1 -58.15230732972536 21.723707272816565 4.0550305990982514 #
point $-1 -58.15230732972536 -21.723707272816565 4.0550305990982514 #
straight-curve $-1 -58.15230732972536 -21.723707272816565 5.7674566261898796 0 0 -1 I I #
straight-curve $-1 -47.081514938810386 0 -10.051963173305992 0 1 0 I I #
point $-1 -47.081514938810386 21.723707272816565 -10.051963173305992 #
End-of-ACIS-data 