500 0 19 0           
7 Unknown 11 ACIS 5.0 NT 24 Fri Mar 26 03:11:24 1999 
-1 9.9999999999999995e-007 1e-010 
body $-1 $19 $-1 $20 #
body $-1 $21 $-1 $22 #
body $-1 $23 $-1 $24 #
body $-1 $25 $-1 $26 #
body $-1 $27 $-1 $28 #
body $-1 $29 $-1 $30 #
body $-1 $31 $-1 $32 #
body $-1 $33 $-1 $34 #
body $-1 $35 $-1 $36 #
body $-1 $37 $-1 $38 #
body $-1 $39 $-1 $40 #
body $-1 $41 $-1 $42 #
body $-1 $43 $-1 $44 #
body $-1 $45 $-1 $46 #
body $-1 $47 $-1 $48 #
body $-1 $49 $-1 $50 #
body $-1 $51 $-1 $52 #
body $-1 $53 $-1 $54 #
body $-1 $55 $-1 $56 #
lump $-1 $-1 $57 $0 #
transform $-1 1 0 0 0 1 0 0 0 1 48.922391430402541 30.678954408762209 7.2893764931003204 1 rotate no_reflect no_shear #
lump $-1 $-1 $58 $1 #
transform $-1 1 0 0 0 1 0 0 0 1 48.922391430402541 30.678954408762209 7.2893764931003204 1 rotate no_reflect no_shear #
lump $-1 $-1 $59 $2 #
transform $-1 1 0 0 0 1 0 0 0 1 48.922391430402541 30.678954408762209 7.2893764931003204 1 rotate no_reflect no_shear #
lump $-1 $-1 $60 $3 #
transform $-1 1 0 0 0 1 0 0 0 1 48.922391430402541 30.678954408762209 7.2893764931003204 1 rotate no_reflect no_shear #
lump $-1 $-1 $61 $4 #
transform $-1 1 0 0 0 1 0 0 0 1 48.922391430402541 30.678954408762209 7.2893764931003204 1 rotate no_reflect no_shear #
lump $-1 $-1 $62 $5 #
transform $-1 1 0 0 0 1 0 0 0 1 48.922391430402541 30.678954408762209 7.2893764931003204 1 rotate no_reflect no_shear #
lump $-1 $-1 $63 $6 #
transform $-1 1 0 0 0 1 0 0 0 1 48.922391430402541 30.678954408762209 7.2893764931003204 1 rotate no_reflect no_shear #
lump $-1 $-1 $64 $7 #
transform $-1 1 0 0 0 1 0 0 0 1 48.922391430402541 30.678954408762209 7.2893764931003204 1 rotate no_reflect no_shear #
lump $-1 $-1 $65 $8 #
transform $-1 1 0 0 0 1 0 0 0 1 48.922391430402541 30.678954408762209 7.2893764931003204 1 rotate no_reflect no_shear #
lump $-1 $-1 $66 $9 #
transform $-1 1 0 0 0 1 0 0 0 1 48.922391430402541 30.678954408762209 7.2893764931003204 1 rotate no_reflect no_shear #
lump $-1 $-1 $67 $10 #
transform $-1 1 0 0 0 1 0 0 0 1 48.922391430402541 30.678954408762209 7.2893764931003204 1 rotate no_reflect no_shear #
lump $-1 $-1 $68 $11 #
transform $-1 1 0 0 0 1 0 0 0 1 48.922391430402541 30.678954408762209 7.2893764931003204 1 rotate no_reflect no_shear #
lump $-1 $-1 $69 $12 #
transform $-1 1 0 0 0 1 0 0 0 1 48.922391430402541 30.678954408762209 7.2893764931003204 1 rotate no_reflect no_shear #
lump $-1 $-1 $70 $13 #
transform $-1 1 0 0 0 1 0 0 0 1 48.922391430402541 30.678954408762209 7.2893764931003204 1 rotate no_reflect no_shear #
lump $-1 $-1 $71 $14 #
transform $-1 1 0 0 0 1 0 0 0 1 48.922391430402541 30.678954408762209 7.2893764931003204 1 rotate no_reflect no_shear #
lump $-1 $-1 $72 $15 #
transform $-1 1 0 0 0 1 0 0 0 1 48.922391430402541 30.678954408762209 7.2893764931003204 1 rotate no_reflect no_shear #
lump $-1 $-1 $73 $16 #
transform $-1 1 0 0 0 1 0 0 0 1 48.922391430402541 30.678954408762209 7.2893764931003204 1 rotate no_reflect no_shear #
lump $-1 $-1 $74 $17 #
transform $-1 1 0 0 0 1 0 0 0 1 48.922391430402541 30.678954408762209 7.2893764931003204 1 rotate no_reflect no_shear #
lump $-1 $-1 $75 $18 #
transform $-1 1 0 0 0 1 0 0 0 1 48.922391430402541 30.678954408762209 7.2893764931003204 1 rotate no_reflect no_shear #
shell $-1 $-1 $-1 $76 $-1 $19 #
shell $-1 $-1 $-1 $77 $-1 $21 #
shell $-1 $-1 $-1 $78 $-1 $23 #
shell $-1 $-1 $-1 $79 $-1 $25 #
shell $-1 $-1 $-1 $80 $-1 $27 #
shell $-1 $-1 $-1 $81 $-1 $29 #
shell $-1 $-1 $-1 $82 $-1 $31 #
shell $-1 $-1 $-1 $83 $-1 $33 #
shell $-1 $-1 $-1 $84 $-1 $35 #
shell $-1 $-1 $-1 $85 $-1 $37 #
shell $-1 $-1 $-1 $86 $-1 $39 #
shell $-1 $-1 $-1 $87 $-1 $41 #
shell $-1 $-1 $-1 $88 $-1 $43 #
shell $-1 $-1 $-1 $89 $-1 $45 #
shell $-1 $-1 $-1 $90 $-1 $47 #
shell $-1 $-1 $-1 $91 $-1 $49 #
shell $-1 $-1 $-1 $92 $-1 $51 #
shell $-1 $-1 $-1 $93 $-1 $53 #
shell $-1 $-1 $-1 $94 $-1 $55 #
face $-1 $95 $96 $57 $-1 $97 forward single #
face $-1 $98 $99 $58 $-1 $100 forward single #
face $-1 $101 $102 $59 $-1 $103 forward single #
face $-1 $104 $105 $60 $-1 $106 reversed single #
face $-1 $107 $108 $61 $-1 $109 forward single #
face $-1 $110 $111 $62 $-1 $112 forward single #
face $-1 $113 $114 $63 $-1 $115 forward single #
face $-1 $116 $117 $64 $-1 $118 reversed single #
face $-1 $119 $120 $65 $-1 $121 forward single #
face $-1 $122 $123 $66 $-1 $124 forward single #
face $-1 $125 $126 $67 $-1 $127 forward single #
face $-1 $128 $129 $68 $-1 $130 reversed single #
face $-1 $131 $132 $69 $-1 $133 forward single #
face $-1 $134 $135 $70 $-1 $136 forward single #
face $-1 $137 $138 $71 $-1 $139 forward single #
face $-1 $140 $141 $72 $-1 $142 reversed single #
face $-1 $143 $144 $73 $-1 $145 forward single #
face $-1 $146 $147 $74 $-1 $148 forward single #
face $-1 $149 $150 $75 $-1 $151 forward single #
face $-1 $152 $153 $57 $-1 $154 reversed single #
loop $-1 $-1 $155 $76 #
plane-surface $-1 0 0 7.2893764931003204 0 0 1 1 0 0 forward_v I I I I #
face $-1 $156 $157 $58 $-1 $158 reversed single #
loop $-1 $-1 $159 $77 #
plane-surface $-1 0 -27.247893145230307 -1.3574506098667471 0 0 1 1 0 0 forward_v I I I I #
face $-1 $160 $161 $59 $-1 $162 reversed single #
loop $-1 $-1 $163 $78 #
plane-surface $-1 0 27.247893145230307 -1.3574506098667471 0 0 1 1 0 0 forward_v I I I I #
face $-1 $164 $165 $60 $-1 $166 reversed single #
loop $-1 $-1 $167 $79 #
plane-surface $-1 -114.39333110251475 -2.7976902877115553 74.629167190089149 0 -1 0 0.66913061440640931 0 -0.74314481823134659 forward_v I I I I #
face $-1 $168 $169 $61 $-1 $170 forward single #
loop $-1 $171 $172 $80 #
cone-surface $-1 -45.449392175187896 -11.524252546323336 4.0594168596487652 0.66913061440640931 0 -0.74314481823134659 0.3715724091156733 0 0.33456530720320465 1 I I 0 1 0.5 forward I I I I #
face $-1 $173 $174 $62 $-1 $175 forward single #
loop $-1 $176 $177 $81 #
cone-surface $-1 -45.449392175187896 -8.2517916993439187 4.0594168596487652 0.66913061440640931 0 -0.74314481823134659 0.3715724091156733 0 0.33456530720320465 1 I I 0 1 0.5 forward I I I I #
face $-1 $178 $179 $63 $-1 $180 forward single #
loop $-1 $181 $182 $82 #
cone-surface $-1 -45.449392175187896 -4.9793308523645017 4.0594168596487652 0.66913061440640931 0 -0.74314481823134659 0.3715724091156733 0 0.33456530720320465 1 I I 0 1 0.5 forward I I I I #
face $-1 $183 $184 $64 $-1 $185 reversed single #
loop $-1 $-1 $186 $83 #
plane-surface $-1 -114.39333110251475 13.705893110976275 74.629167190089149 0 -1 0 0.66913061440640931 0 -0.74314481823134659 forward_v I I I I #
face $-1 $187 $188 $65 $-1 $189 forward single #
loop $-1 $190 $191 $84 #
cone-surface $-1 -45.449392175187896 4.979330852364491 4.0594168596487652 0.66913061440640931 0 -0.74314481823134659 0.3715724091156733 0 0.33456530720320465 1 I I 0 1 0.5 forward I I I I #
face $-1 $192 $193 $66 $-1 $194 forward single #
loop $-1 $195 $196 $85 #
cone-surface $-1 -45.449392175187896 8.2517916993439115 4.0594168596487652 0.66913061440640931 0 -0.74314481823134659 0.3715724091156733 0 0.33456530720320465 1 I I 0 1 0.5 forward I I I I #
face $-1 $197 $198 $67 $-1 $199 forward single #
loop $-1 $200 $201 $86 #
cone-surface $-1 -45.449392175187896 11.524252546323325 4.0594168596487652 0.66913061440640931 0 -0.74314481823134659 0.3715724091156733 0 0.33456530720320465 1 I I 0 1 0.5 forward I I I I #
face $-1 $202 $203 $68 $-1 $204 reversed single #
loop $-1 $-1 $205 $87 #
plane-surface $-1 41.680487728536178 -13.705893110976282 140.10010686220136 0 1 0 0.66913061440640931 0 0.74314481823134659 forward_v I I I I #
face $-1 $206 $207 $69 $-1 $208 forward single #
loop $-1 $209 $210 $88 #
cone-surface $-1 45.449392175187896 -11.524252546323336 4.0594168596487687 -0.66913061440640931 0 -0.74314481823134659 0.3715724091156733 0 -0.33456530720320465 1 I I 0 1 0.5 forward I I I I #
face $-1 $211 $212 $70 $-1 $213 forward single #
loop $-1 $214 $215 $89 #
cone-surface $-1 45.449392175187896 -8.2517916993439187 4.0594168596487687 -0.66913061440640931 0 -0.74314481823134659 0.3715724091156733 0 -0.33456530720320465 1 I I 0 1 0.5 forward I I I I #
face $-1 $216 $217 $71 $-1 $218 forward single #
loop $-1 $219 $220 $90 #
cone-surface $-1 45.449392175187896 -4.9793308523645017 4.0594168596487687 -0.66913061440640931 0 -0.74314481823134659 0.3715724091156733 0 -0.33456530720320465 1 I I 0 1 0.5 forward I I I I #
face $-1 $221 $222 $72 $-1 $223 reversed single #
loop $-1 $-1 $224 $91 #
plane-surface $-1 41.680487728536178 2.7976902877115482 140.10010686220136 0 1 0 0.66913061440640931 0 0.74314481823134659 forward_v I I I I #
face $-1 $225 $226 $73 $-1 $227 forward single #
loop $-1 $228 $229 $92 #
cone-surface $-1 45.449392175187896 4.979330852364491 4.0594168596487687 -0.66913061440640931 0 -0.74314481823134659 0.3715724091156733 0 -0.33456530720320465 1 I I 0 1 0.5 forward I I I I #
face $-1 $230 $231 $74 $-1 $232 forward single #
loop $-1 $233 $234 $93 #
cone-surface $-1 45.449392175187896 8.2517916993439115 4.0594168596487687 -0.66913061440640931 0 -0.74314481823134659 0.3715724091156733 0 -0.33456530720320465 1 I I 0 1 0.5 forward I I I I #
face $-1 $235 $236 $75 $-1 $237 forward single #
loop $-1 $238 $239 $94 #
cone-surface $-1 45.449392175187896 11.524252546323325 4.0594168596487687 -0.66913061440640931 0 -0.74314481823134659 0.3715724091156733 0 -0.33456530720320465 1 I I 0 1 0.5 forward I I I I #
face $-1 $240 $241 $57 $-1 $242 reversed single #
loop $-1 $-1 $243 $95 #
plane-surface $-1 0 0 -7.2893764931003204 0 0 1 1 0 0 forward_v I I I I #
coedge $-1 $244 $245 $246 $247 forward $96 $-1 #
face $-1 $248 $249 $58 $-1 $250 reversed single #
loop $-1 $-1 $251 $98 #
plane-surface $-1 0 -27.247893145230307 -4.8733562381773439 0 0 1 1 0 0 forward_v I I I I #
coedge $-1 $252 $253 $254 $255 reversed $99 $-1 #
face $-1 $256 $257 $59 $-1 $258 reversed single #
loop $-1 $-1 $259 $101 #
plane-surface $-1 0 27.247893145230307 -4.8733562381773439 0 0 1 1 0 0 forward_v I I I I #
coedge $-1 $260 $261 $262 $263 reversed $102 $-1 #
face $-1 $264 $265 $60 $-1 $266 reversed single #
loop $-1 $-1 $267 $104 #
plane-surface $-1 -48.922391430402541 -8.2517916993439187 1.9163238161105767 -0.66913061440640931 0 0.74314481823134659 0.74314481823134659 0 0.66913061440640931 forward_v I I I I #
coedge $-1 $268 $269 $270 $271 reversed $105 $-1 #
face $-1 $-1 $272 $61 $-1 $273 forward single #
loop $-1 $274 $275 $107 #
cone-surface $-1 -44.7927999743453 -11.524252546323336 3.3301973601342389 0.66913061440640931 0 -0.74314481823134659 0.18578620455783665 0 0.16728265360160233 1 I I -0.70710678118654746 0.70710678118654746 0.25 forward I I I I #
loop $-1 $-1 $276 $80 #
coedge $-1 $172 $172 $277 $278 reversed $108 $-1 #
face $-1 $-1 $279 $62 $-1 $280 forward single #
loop $-1 $281 $282 $110 #
cone-surface $-1 -44.7927999743453 -8.2517916993439187 3.3301973601342389 0.66913061440640931 0 -0.74314481823134659 0.18578620455783665 0 0.16728265360160233 1 I I -0.70710678118654746 0.70710678118654746 0.25 forward I I I I #
loop $-1 $-1 $283 $81 #
coedge $-1 $177 $177 $284 $285 reversed $111 $-1 #
face $-1 $-1 $286 $63 $-1 $287 forward single #
loop $-1 $288 $289 $113 #
cone-surface $-1 -44.7927999743453 -4.9793308523645017 3.3301973601342389 0.66913061440640931 0 -0.74314481823134659 0.18578620455783665 0 0.16728265360160233 1 I I -0.70710678118654746 0.70710678118654746 0.25 forward I I I I #
loop $-1 $-1 $290 $82 #
coedge $-1 $182 $182 $291 $292 reversed $114 $-1 #
face $-1 $293 $294 $64 $-1 $295 reversed single #
loop $-1 $-1 $296 $116 #
plane-surface $-1 -48.922391430402541 8.2517916993439115 1.9163238161105767 -0.66913061440640931 0 0.74314481823134659 0.74314481823134659 0 0.66913061440640931 forward_v I I I I #
coedge $-1 $297 $298 $299 $300 reversed $117 $-1 #
face $-1 $-1 $301 $65 $-1 $302 forward single #
loop $-1 $303 $304 $119 #
cone-surface $-1 -44.7927999743453 4.979330852364491 3.3301973601342389 0.66913061440640931 0 -0.74314481823134659 0.18578620455783665 0 0.16728265360160233 1 I I -0.70710678118654746 0.70710678118654746 0.25 forward I I I I #
loop $-1 $-1 $305 $84 #
coedge $-1 $191 $191 $306 $307 reversed $120 $-1 #
face $-1 $-1 $308 $66 $-1 $309 forward single #
loop $-1 $310 $311 $122 #
cone-surface $-1 -44.7927999743453 8.2517916993439115 3.3301973601342389 0.66913061440640931 0 -0.74314481823134659 0.18578620455783665 0 0.16728265360160233 1 I I -0.70710678118654746 0.70710678118654746 0.25 forward I I I I #
loop $-1 $-1 $312 $85 #
coedge $-1 $196 $196 $313 $314 reversed $123 $-1 #
face $-1 $-1 $315 $67 $-1 $316 forward single #
loop $-1 $317 $318 $125 #
cone-surface $-1 -44.7927999743453 11.524252546323325 3.3301973601342389 0.66913061440640931 0 -0.74314481823134659 0.18578620455783665 0 0.16728265360160233 1 I I -0.70710678118654746 0.70710678118654746 0.25 forward I I I I #
loop $-1 $-1 $319 $86 #
coedge $-1 $201 $201 $320 $321 reversed $126 $-1 #
face $-1 $322 $323 $68 $-1 $324 reversed single #
loop $-1 $-1 $325 $128 #
plane-surface $-1 -23.790451943576031 -8.2517916993439187 67.387263488222786 0.66913061440640931 0 0.74314481823134659 0.74314481823134659 0 -0.66913061440640931 forward_v I I I I #
coedge $-1 $326 $327 $328 $329 reversed $129 $-1 #
face $-1 $-1 $330 $69 $-1 $331 forward single #
loop $-1 $332 $333 $131 #
cone-surface $-1 44.7927999743453 -11.524252546323336 3.3301973601342425 -0.66913061440640931 0 -0.74314481823134659 0.18578620455783665 0 -0.16728265360160233 1 I I -0.70710678118654746 0.70710678118654746 0.25 forward I I I I #
loop $-1 $-1 $334 $88 #
coedge $-1 $210 $210 $335 $336 reversed $132 $-1 #
face $-1 $-1 $337 $70 $-1 $338 forward single #
loop $-1 $339 $340 $134 #
cone-surface $-1 44.7927999743453 -8.2517916993439187 3.3301973601342425 -0.66913061440640931 0 -0.74314481823134659 0.18578620455783665 0 -0.16728265360160233 1 I I -0.70710678118654746 0.70710678118654746 0.25 forward I I I I #
loop $-1 $-1 $341 $89 #
coedge $-1 $215 $215 $342 $343 reversed $135 $-1 #
face $-1 $-1 $344 $71 $-1 $345 forward single #
loop $-1 $346 $347 $137 #
cone-surface $-1 44.7927999743453 -4.9793308523645017 3.3301973601342425 -0.66913061440640931 0 -0.74314481823134659 0.18578620455783665 0 -0.16728265360160233 1 I I -0.70710678118654746 0.70710678118654746 0.25 forward I I I I #
loop $-1 $-1 $348 $90 #
coedge $-1 $220 $220 $349 $350 reversed $138 $-1 #
face $-1 $351 $352 $72 $-1 $353 reversed single #
loop $-1 $-1 $354 $140 #
plane-surface $-1 -23.790451943576031 8.2517916993439115 67.387263488222786 0.66913061440640931 0 0.74314481823134659 0.74314481823134659 0 -0.66913061440640931 forward_v I I I I #
coedge $-1 $355 $356 $357 $358 reversed $141 $-1 #
face $-1 $-1 $359 $73 $-1 $360 forward single #
loop $-1 $361 $362 $143 #
cone-surface $-1 44.7927999743453 4.979330852364491 3.3301973601342425 -0.66913061440640931 0 -0.74314481823134659 0.18578620455783665 0 -0.16728265360160233 1 I I -0.70710678118654746 0.70710678118654746 0.25 forward I I I I #
loop $-1 $-1 $363 $92 #
coedge $-1 $229 $229 $364 $365 reversed $144 $-1 #
face $-1 $-1 $366 $74 $-1 $367 forward single #
loop $-1 $368 $369 $146 #
cone-surface $-1 44.7927999743453 8.2517916993439115 3.3301973601342425 -0.66913061440640931 0 -0.74314481823134659 0.18578620455783665 0 -0.16728265360160233 1 I I -0.70710678118654746 0.70710678118654746 0.25 forward I I I I #
loop $-1 $-1 $370 $93 #
coedge $-1 $234 $234 $371 $372 reversed $147 $-1 #
face $-1 $-1 $373 $75 $-1 $374 forward single #
loop $-1 $375 $376 $149 #
cone-surface $-1 44.7927999743453 11.524252546323325 3.3301973601342425 -0.66913061440640931 0 -0.74314481823134659 0.18578620455783665 0 -0.16728265360160233 1 I I -0.70710678118654746 0.70710678118654746 0.25 forward I I I I #
loop $-1 $-1 $377 $94 #
coedge $-1 $239 $239 $378 $379 reversed $150 $-1 #
face $-1 $380 $381 $57 $-1 $382 reversed single #
loop $-1 $-1 $383 $152 #
plane-surface $-1 0 -30.678954408762209 0 0 1 0 0 0 1 forward_v I I I I #
coedge $-1 $384 $385 $386 $387 forward $153 $-1 #
coedge $-1 $388 $155 $389 $390 forward $96 $-1 #
coedge $-1 $155 $388 $391 $392 forward $96 $-1 #
coedge $-1 $393 $394 $155 $247 reversed $395 $-1 #
edge $-1 $396 -30.678954408762209 $397 30.678954408762209 $246 $398 forward 7 unknown #
face $-1 $399 $400 $58 $-1 $401 reversed single #
loop $-1 $-1 $402 $156 #
plane-surface $-1 0 -23.816831881698405 -3.1154034240220456 0 -1 0 0 0 -1 forward_v I I I I #
coedge $-1 $403 $404 $405 $406 reversed $157 $-1 #
coedge $-1 $407 $159 $408 $409 forward $99 $-1 #
coedge $-1 $159 $407 $410 $411 reversed $99 $-1 #
coedge $-1 $412 $413 $159 $255 forward $414 $-1 #
edge $-1 $415 10.192885309083252 $416 17.055007836147055 $254 $417 forward 7 unknown #
face $-1 $418 $419 $59 $-1 $420 reversed single #
loop $-1 $-1 $421 $160 #
plane-surface $-1 0 23.816831881698405 -3.1154034240220456 0 1 0 0 0 1 forward_v I I I I #
coedge $-1 $422 $423 $424 $425 reversed $161 $-1 #
coedge $-1 $426 $163 $427 $428 reversed $102 $-1 #
coedge $-1 $163 $426 $429 $430 forward $102 $-1 #
coedge $-1 $431 $432 $163 $263 forward $419 $-1 #
edge $-1 $433 -17.055007836147055 $434 -10.192885309083252 $262 $435 forward 7 unknown #
face $-1 $436 $437 $60 $-1 $438 reversed single #
loop $-1 $-1 $439 $164 #
plane-surface $-1 -114.39333110251475 -13.705893110976282 74.629167190089149 0 1 0 -0.66913061440640931 0 0.74314481823134659 forward_v I I I I #
coedge $-1 $440 $441 $442 $443 reversed $165 $-1 #
coedge $-1 $269 $167 $444 $445 reversed $105 $-1 #
coedge $-1 $167 $268 $440 $446 reversed $105 $-1 #
coedge $-1 $442 $447 $167 $271 forward $437 $-1 #
edge $-1 $448 30.025207101944254 $449 35.398259778933998 $270 $450 forward 7 unknown #
loop $-1 $-1 $277 $168 #
plane-surface $-1 -48.922391430402541 -8.2517916993439187 1.9163238161105767 -0.66913061440640931 0 0.74314481823134659 0.74314481823134659 0 0.66913061440640931 forward_v I I I I #
loop $-1 $-1 $451 $107 #
coedge $-1 $275 $275 $276 $452 reversed $169 $-1 #
coedge $-1 $276 $276 $275 $452 forward $171 $-1 #
coedge $-1 $277 $277 $172 $278 forward $272 $-1 #
edge $-1 $453 0 $453 6.2831853071796004 $277 $454 forward 7 unknown #
loop $-1 $-1 $284 $173 #
plane-surface $-1 -48.922391430402541 -8.2517916993439187 1.9163238161105767 -0.66913061440640931 0 0.74314481823134659 0.74314481823134659 0 0.66913061440640931 forward_v I I I I #
loop $-1 $-1 $455 $110 #
coedge $-1 $282 $282 $283 $456 reversed $174 $-1 #
coedge $-1 $283 $283 $282 $456 forward $176 $-1 #
coedge $-1 $284 $284 $177 $285 forward $279 $-1 #
edge $-1 $457 0 $457 6.2831853071796004 $284 $458 forward 7 unknown #
loop $-1 $-1 $291 $178 #
plane-surface $-1 -48.922391430402541 -8.2517916993439187 1.9163238161105767 -0.66913061440640931 0 0.74314481823134659 0.74314481823134659 0 0.66913061440640931 forward_v I I I I #
loop $-1 $-1 $459 $113 #
coedge $-1 $289 $289 $290 $460 reversed $179 $-1 #
coedge $-1 $290 $290 $289 $460 forward $181 $-1 #
coedge $-1 $291 $291 $182 $292 forward $286 $-1 #
edge $-1 $461 0 $461 6.2831853071796004 $291 $462 forward 7 unknown #
face $-1 $463 $464 $64 $-1 $465 forward single #
loop $-1 $-1 $466 $183 #
plane-surface $-1 -114.39333110251475 2.7976902877115482 74.629167190089149 0 1 0 -0.66913061440640931 0 0.74314481823134659 forward_v I I I I #
coedge $-1 $467 $468 $469 $470 reversed $184 $-1 #
coedge $-1 $298 $186 $471 $472 reversed $117 $-1 #
coedge $-1 $186 $297 $467 $473 reversed $117 $-1 #
coedge $-1 $469 $474 $186 $300 forward $475 $-1 #
edge $-1 $476 30.025207101944254 $477 35.398259778933998 $299 $478 forward 7 unknown #
loop $-1 $-1 $306 $187 #
plane-surface $-1 -48.922391430402541 8.2517916993439115 1.9163238161105767 -0.66913061440640931 0 0.74314481823134659 0.74314481823134659 0 0.66913061440640931 forward_v I I I I #
loop $-1 $-1 $479 $119 #
coedge $-1 $304 $304 $305 $480 reversed $188 $-1 #
coedge $-1 $305 $305 $304 $480 forward $190 $-1 #
coedge $-1 $306 $306 $191 $307 forward $301 $-1 #
edge $-1 $481 0 $481 6.2831853071796004 $306 $482 forward 7 unknown #
loop $-1 $-1 $313 $192 #
plane-surface $-1 -48.922391430402541 8.2517916993439115 1.9163238161105767 -0.66913061440640931 0 0.74314481823134659 0.74314481823134659 0 0.66913061440640931 forward_v I I I I #
loop $-1 $-1 $483 $122 #
coedge $-1 $311 $311 $312 $484 reversed $193 $-1 #
coedge $-1 $312 $312 $311 $484 forward $195 $-1 #
coedge $-1 $313 $313 $196 $314 forward $308 $-1 #
edge $-1 $485 0 $485 6.2831853071796004 $313 $486 forward 7 unknown #
loop $-1 $-1 $320 $197 #
plane-surface $-1 -48.922391430402541 8.2517916993439115 1.9163238161105767 -0.66913061440640931 0 0.74314481823134659 0.74314481823134659 0 0.66913061440640931 forward_v I I I I #
loop $-1 $-1 $487 $125 #
coedge $-1 $318 $318 $319 $488 reversed $198 $-1 #
coedge $-1 $319 $319 $318 $488 forward $200 $-1 #
coedge $-1 $320 $320 $201 $321 forward $315 $-1 #
edge $-1 $489 0 $489 6.2831853071796004 $320 $490 forward 7 unknown #
face $-1 $491 $492 $68 $-1 $493 forward single #
loop $-1 $-1 $494 $202 #
plane-surface $-1 41.680487728536178 -2.7976902877115553 140.10010686220136 0 -1 0 -0.66913061440640931 0 -0.74314481823134659 forward_v I I I I #
coedge $-1 $495 $496 $497 $498 reversed $203 $-1 #
coedge $-1 $327 $205 $499 $500 reversed $129 $-1 #
coedge $-1 $205 $326 $495 $501 reversed $129 $-1 #
coedge $-1 $497 $502 $205 $329 forward $503 $-1 #
edge $-1 $504 62.760676938000358 $505 68.133729614990102 $328 $506 forward 7 unknown #
loop $-1 $-1 $335 $206 #
plane-surface $-1 -23.790451943576031 -8.2517916993439187 67.387263488222786 0.66913061440640931 0 0.74314481823134659 0.74314481823134659 0 -0.66913061440640931 forward_v I I I I #
loop $-1 $-1 $507 $131 #
coedge $-1 $333 $333 $334 $508 reversed $207 $-1 #
coedge $-1 $334 $334 $333 $508 forward $209 $-1 #
coedge $-1 $335 $335 $210 $336 forward $330 $-1 #
edge $-1 $509 0 $509 6.2831853071796004 $335 $510 forward 7 unknown #
loop $-1 $-1 $342 $211 #
plane-surface $-1 -23.790451943576031 -8.2517916993439187 67.387263488222786 0.66913061440640931 0 0.74314481823134659 0.74314481823134659 0 -0.66913061440640931 forward_v I I I I #
loop $-1 $-1 $511 $134 #
coedge $-1 $340 $340 $341 $512 reversed $212 $-1 #
coedge $-1 $341 $341 $340 $512 forward $214 $-1 #
coedge $-1 $342 $342 $215 $343 forward $337 $-1 #
edge $-1 $513 0 $513 6.2831853071796004 $342 $514 forward 7 unknown #
loop $-1 $-1 $349 $216 #
plane-surface $-1 -23.790451943576031 -8.2517916993439187 67.387263488222786 0.66913061440640931 0 0.74314481823134659 0.74314481823134659 0 -0.66913061440640931 forward_v I I I I #
loop $-1 $-1 $515 $137 #
coedge $-1 $347 $347 $348 $516 reversed $217 $-1 #
coedge $-1 $348 $348 $347 $516 forward $219 $-1 #
coedge $-1 $349 $349 $220 $350 forward $344 $-1 #
edge $-1 $517 0 $517 6.2831853071796004 $349 $518 forward 7 unknown #
face $-1 $519 $520 $72 $-1 $521 reversed single #
loop $-1 $-1 $522 $221 #
plane-surface $-1 41.680487728536178 13.705893110976275 140.10010686220136 0 -1 0 -0.66913061440640931 0 -0.74314481823134659 forward_v I I I I #
coedge $-1 $523 $524 $525 $526 reversed $222 $-1 #
coedge $-1 $356 $224 $527 $528 reversed $141 $-1 #
coedge $-1 $224 $355 $523 $529 reversed $141 $-1 #
coedge $-1 $525 $530 $224 $358 forward $520 $-1 #
edge $-1 $531 62.760676938000358 $532 68.133729614990102 $357 $533 forward 7 unknown #
loop $-1 $-1 $364 $225 #
plane-surface $-1 -23.790451943576031 8.2517916993439115 67.387263488222786 0.66913061440640931 0 0.74314481823134659 0.74314481823134659 0 -0.66913061440640931 forward_v I I I I #
loop $-1 $-1 $534 $143 #
coedge $-1 $362 $362 $363 $535 reversed $226 $-1 #
coedge $-1 $363 $363 $362 $535 forward $228 $-1 #
coedge $-1 $364 $364 $229 $365 forward $359 $-1 #
edge $-1 $536 0 $536 6.2831853071796004 $364 $537 forward 7 unknown #
loop $-1 $-1 $371 $230 #
plane-surface $-1 -23.790451943576031 8.2517916993439115 67.387263488222786 0.66913061440640931 0 0.74314481823134659 0.74314481823134659 0 -0.66913061440640931 forward_v I I I I #
loop $-1 $-1 $538 $146 #
coedge $-1 $369 $369 $370 $539 reversed $231 $-1 #
coedge $-1 $370 $370 $369 $539 forward $233 $-1 #
coedge $-1 $371 $371 $234 $372 forward $366 $-1 #
edge $-1 $540 0 $540 6.2831853071796004 $371 $541 forward 7 unknown #
loop $-1 $-1 $378 $235 #
plane-surface $-1 -23.790451943576031 8.2517916993439115 67.387263488222786 0.66913061440640931 0 0.74314481823134659 0.74314481823134659 0 -0.66913061440640931 forward_v I I I I #
loop $-1 $-1 $542 $149 #
coedge $-1 $376 $376 $377 $543 reversed $236 $-1 #
coedge $-1 $377 $377 $376 $543 forward $238 $-1 #
coedge $-1 $378 $378 $239 $379 forward $373 $-1 #
edge $-1 $544 0 $544 6.2831853071796004 $378 $545 forward 7 unknown #
face $-1 $546 $547 $57 $-1 $548 reversed single #
loop $-1 $-1 $549 $240 #
plane-surface $-1 -48.922391430402541 0 0 1 0 0 0 0 -1 forward_v I I I I #
coedge $-1 $550 $391 $551 $552 forward $241 $-1 #
coedge $-1 $553 $243 $550 $554 forward $153 $-1 #
coedge $-1 $243 $553 $555 $556 forward $153 $-1 #
coedge $-1 $394 $393 $243 $387 reversed $395 $-1 #
edge $-1 $557 -30.678954408762209 $558 30.678954408762209 $386 $559 forward 7 unknown #
coedge $-1 $245 $244 $560 $561 forward $96 $-1 #
coedge $-1 $562 $563 $244 $390 reversed $547 $-1 #
edge $-1 $397 -48.922391430402541 $564 48.922391430402541 $389 $565 forward 7 unknown #
coedge $-1 $383 $566 $245 $392 reversed $241 $-1 #
edge $-1 $567 -48.922391430402541 $396 48.922391430402541 $391 $568 forward 7 unknown #
coedge $-1 $386 $246 $566 $569 forward $395 $-1 #
coedge $-1 $246 $386 $562 $570 reversed $395 $-1 #
loop $-1 $-1 $393 $546 #
vertex $-1 $247 $571 #
vertex $-1 $247 $572 #
straight-curve $-1 48.922391430402541 0 7.2893764931003204 0 1 0 I I #
face $-1 $573 $574 $58 $-1 $575 reversed single #
loop $-1 $-1 $576 $248 #
plane-surface $-1 -48.922391430402541 0 0 1 0 0 0 0 -1 forward_v I I I I #
coedge $-1 $577 $408 $413 $578 reversed $249 $-1 #
coedge $-1 $579 $251 $580 $581 reversed $157 $-1 #
coedge $-1 $251 $579 $577 $582 forward $157 $-1 #
coedge $-1 $413 $412 $251 $406 forward $414 $-1 #
edge $-1 $583 -17.055007836147055 $584 -10.192885309083252 $405 $585 forward 7 unknown #
coedge $-1 $253 $252 $576 $586 reversed $99 $-1 #
coedge $-1 $402 $587 $252 $409 reversed $249 $-1 #
edge $-1 $415 -48.922391430402541 $588 48.922391430402541 $408 $589 forward 7 unknown #
coedge $-1 $590 $591 $253 $411 forward $574 $-1 #
edge $-1 $416 -48.922391430402541 $592 48.922391430402541 $410 $593 forward 7 unknown #
coedge $-1 $405 $254 $591 $594 forward $414 $-1 #
coedge $-1 $254 $405 $402 $578 forward $414 $-1 #
loop $-1 $-1 $254 $573 #
vertex $-1 $255 $595 #
vertex $-1 $594 $596 #
straight-curve $-1 48.922391430402541 -13.623946572615154 -1.3574506098667471 0 -1 0 I I #
face $-1 $597 $598 $59 $-1 $599 reversed single #
loop $-1 $-1 $262 $256 #
plane-surface $-1 48.922391430402541 0 0 -1 0 0 0 0 1 forward_v I I I I #
coedge $-1 $600 $429 $601 $602 reversed $257 $-1 #
coedge $-1 $603 $259 $600 $604 forward $161 $-1 #
coedge $-1 $259 $603 $605 $606 reversed $161 $-1 #
coedge $-1 $432 $431 $259 $425 forward $419 $-1 #
edge $-1 $607 10.192885309083252 $608 17.055007836147055 $424 $609 forward 7 unknown #
coedge $-1 $261 $260 $610 $611 reversed $102 $-1 #
coedge $-1 $612 $613 $260 $428 forward $614 $-1 #
edge $-1 $615 -48.922391430402541 $433 48.922391430402541 $427 $616 forward 7 unknown #
coedge $-1 $421 $617 $261 $430 reversed $257 $-1 #
edge $-1 $618 -48.922391430402541 $434 48.922391430402541 $429 $619 forward 7 unknown #
coedge $-1 $424 $262 $617 $620 forward $419 $-1 #
coedge $-1 $262 $424 $612 $621 reversed $419 $-1 #
vertex $-1 $621 $622 #
vertex $-1 $263 $623 #
straight-curve $-1 48.922391430402541 13.623946572615154 -1.3574506098667471 0 -1 0 I I #
face $-1 $-1 $624 $60 $-1 $625 forward single #
loop $-1 $-1 $270 $264 #
plane-surface $-1 -48.922391430402541 0 0 1 0 0 0 0 -1 forward_v I I I I #
coedge $-1 $626 $627 $628 $629 reversed $265 $-1 #
coedge $-1 $630 $267 $269 $446 forward $165 $-1 #
coedge $-1 $267 $630 $626 $631 forward $165 $-1 #
coedge $-1 $628 $270 $267 $443 forward $437 $-1 #
edge $-1 $449 -1.3282055619604041 $632 9.5799972613043227 $442 $633 forward 7 unknown #
coedge $-1 $634 $635 $268 $445 forward $624 $-1 #
edge $-1 $636 -14.241653536802161 $448 -8.2742741208548338 $444 $637 forward 7 unknown #
edge $-1 $449 0 $636 8.0299011303738048 $269 $638 forward 7 unknown #
coedge $-1 $270 $628 $634 $639 reversed $437 $-1 #
vertex $-1 $639 $640 #
vertex $-1 $271 $641 #
straight-curve $-1 -48.922391430402541 -2.7976902877115553 37.314583595044574 0 0 -1 I I #
coedge $-1 $451 $451 $-1 $642 reversed $274 $-1 #
edge $-1 $643 0 $643 6.2831853071796004 $275 $644 forward 7 unknown #
vertex $-1 $278 $645 #
ellipse-curve $-1 -45.938701722428881 -11.524252546323336 4.6028501546054468 -0.66913061440640931 0 0.74314481823134659 0.3715724091156733 0 0.33456530720320465 1 I I #
coedge $-1 $455 $455 $-1 $646 reversed $281 $-1 #
edge $-1 $647 0 $647 6.2831853071796004 $282 $648 forward 7 unknown #
vertex $-1 $285 $649 #
ellipse-curve $-1 -45.938701722428881 -8.2517916993439187 4.6028501546054468 -0.66913061440640931 0 0.74314481823134659 0.3715724091156733 0 0.33456530720320465 1 I I #
coedge $-1 $459 $459 $-1 $650 reversed $288 $-1 #
edge $-1 $651 0 $651 6.2831853071796004 $289 $652 forward 7 unknown #
vertex $-1 $292 $653 #
ellipse-curve $-1 -45.938701722428881 -4.9793308523645017 4.6028501546054468 -0.66913061440640931 0 0.74314481823134659 0.3715724091156733 0 0.33456530720320465 1 I I #
face $-1 $-1 $475 $64 $-1 $654 reversed single #
loop $-1 $-1 $655 $293 #
plane-surface $-1 0 0 7.2893764931003204 0 0 1 1 0 0 forward_v I I I I #
coedge $-1 $656 $657 $658 $659 reversed $294 $-1 #
coedge $-1 $660 $296 $298 $473 forward $184 $-1 #
coedge $-1 $296 $660 $656 $661 forward $184 $-1 #
coedge $-1 $658 $299 $296 $470 forward $475 $-1 #
edge $-1 $477 -9.5799972613043192 $662 1.3282055619604076 $469 $663 forward 7 unknown #
coedge $-1 $664 $665 $297 $472 forward $464 $-1 #
edge $-1 $666 -14.241653536802161 $476 -8.2742741208548338 $471 $667 forward 7 unknown #
edge $-1 $477 0 $666 8.0299011303738048 $298 $668 forward 7 unknown #
coedge $-1 $299 $658 $664 $669 reversed $475 $-1 #
loop $-1 $-1 $658 $463 #
vertex $-1 $669 $670 #
vertex $-1 $300 $671 #
straight-curve $-1 -48.922391430402541 13.705893110976275 37.314583595044574 0 0 -1 I I #
coedge $-1 $479 $479 $-1 $672 reversed $303 $-1 #
edge $-1 $673 0 $673 6.2831853071796004 $304 $674 forward 7 unknown #
vertex $-1 $307 $675 #
ellipse-curve $-1 -45.938701722428881 4.979330852364491 4.6028501546054468 -0.66913061440640931 0 0.74314481823134659 0.3715724091156733 0 0.33456530720320465 1 I I #
coedge $-1 $483 $483 $-1 $676 reversed $310 $-1 #
edge $-1 $677 0 $677 6.2831853071796004 $311 $678 forward 7 unknown #
vertex $-1 $314 $679 #
ellipse-curve $-1 -45.938701722428881 8.2517916993439115 4.6028501546054468 -0.66913061440640931 0 0.74314481823134659 0.3715724091156733 0 0.33456530720320465 1 I I #
coedge $-1 $487 $487 $-1 $680 reversed $317 $-1 #
edge $-1 $681 0 $681 6.2831853071796004 $318 $682 forward 7 unknown #
vertex $-1 $321 $683 #
ellipse-curve $-1 -45.938701722428881 11.524252546323325 4.6028501546054468 -0.66913061440640931 0 0.74314481823134659 0.3715724091156733 0 0.33456530720320465 1 I I #
face $-1 $-1 $503 $68 $-1 $684 reversed single #
loop $-1 $-1 $685 $322 #
plane-surface $-1 0 0 7.2893764931003204 0 0 1 1 0 0 forward_v I I I I #
coedge $-1 $686 $687 $688 $689 reversed $323 $-1 #
coedge $-1 $690 $325 $327 $501 forward $203 $-1 #
coedge $-1 $325 $690 $686 $691 forward $203 $-1 #
coedge $-1 $688 $328 $325 $498 forward $503 $-1 #
edge $-1 $505 -9.5799972613043227 $692 1.3282055619604041 $497 $693 forward 7 unknown #
coedge $-1 $694 $695 $326 $500 forward $492 $-1 #
edge $-1 $696 22.114768150187132 $504 28.082147566134452 $499 $697 forward 7 unknown #
edge $-1 $505 -97.844782860805083 $696 -89.814881730431296 $327 $698 forward 7 unknown #
coedge $-1 $328 $688 $694 $699 reversed $503 $-1 #
loop $-1 $-1 $688 $491 #
vertex $-1 $699 $700 #
vertex $-1 $329 $701 #
straight-curve $-1 48.922391430402541 -13.705893110976282 70.050053431100679 0 0 -1 I I #
coedge $-1 $507 $507 $-1 $702 reversed $332 $-1 #
edge $-1 $703 0 $703 6.2831853071796004 $333 $704 forward 7 unknown #
vertex $-1 $336 $705 #
ellipse-curve $-1 45.938701722428881 -11.524252546323336 4.6028501546054486 0.66913061440640931 0 0.74314481823134659 0.3715724091156733 0 -0.33456530720320465 1 I I #
coedge $-1 $511 $511 $-1 $706 reversed $339 $-1 #
edge $-1 $707 0 $707 6.2831853071796004 $340 $708 forward 7 unknown #
vertex $-1 $343 $709 #
ellipse-curve $-1 45.938701722428881 -8.2517916993439187 4.6028501546054486 0.66913061440640931 0 0.74314481823134659 0.3715724091156733 0 -0.33456530720320465 1 I I #
coedge $-1 $515 $515 $-1 $710 reversed $346 $-1 #
edge $-1 $711 0 $711 6.2831853071796004 $347 $712 forward 7 unknown #
vertex $-1 $350 $713 #
ellipse-curve $-1 45.938701722428881 -4.9793308523645017 4.6028501546054486 0.66913061440640931 0 0.74314481823134659 0.3715724091156733 0 -0.33456530720320465 1 I I #
face $-1 $-1 $714 $72 $-1 $715 forward single #
loop $-1 $-1 $357 $351 #
plane-surface $-1 48.922391430402541 0 0 -1 0 0 0 0 1 forward_v I I I I #
coedge $-1 $716 $717 $718 $719 reversed $352 $-1 #
coedge $-1 $720 $354 $356 $529 forward $222 $-1 #
coedge $-1 $354 $720 $716 $721 forward $222 $-1 #
coedge $-1 $718 $357 $354 $526 forward $520 $-1 #
edge $-1 $532 -1.3282055619604076 $722 9.5799972613043192 $525 $723 forward 7 unknown #
coedge $-1 $724 $725 $355 $528 forward $714 $-1 #
edge $-1 $726 22.114768150187132 $531 28.082147566134452 $527 $727 forward 7 unknown #
edge $-1 $532 -97.844782860805083 $726 -89.814881730431296 $356 $728 forward 7 unknown #
coedge $-1 $357 $718 $724 $729 reversed $520 $-1 #
vertex $-1 $729 $730 #
vertex $-1 $358 $731 #
straight-curve $-1 48.922391430402541 2.7976902877115482 70.050053431100679 0 0 -1 I I #
coedge $-1 $534 $534 $-1 $732 reversed $361 $-1 #
edge $-1 $733 0 $733 6.2831853071796004 $362 $734 forward 7 unknown #
vertex $-1 $365 $735 #
ellipse-curve $-1 45.938701722428881 4.979330852364491 4.6028501546054486 0.66913061440640931 0 0.74314481823134659 0.3715724091156733 0 -0.33456530720320465 1 I I #
coedge $-1 $538 $538 $-1 $736 reversed $368 $-1 #
edge $-1 $737 0 $737 6.2831853071796004 $369 $738 forward 7 unknown #
vertex $-1 $372 $739 #
ellipse-curve $-1 45.938701722428881 8.2517916993439115 4.6028501546054486 0.66913061440640931 0 0.74314481823134659 0.3715724091156733 0 -0.33456530720320465 1 I I #
coedge $-1 $542 $542 $-1 $740 reversed $375 $-1 #
edge $-1 $741 0 $741 6.2831853071796004 $376 $742 forward 7 unknown #
vertex $-1 $379 $743 #
ellipse-curve $-1 45.938701722428881 11.524252546323325 4.6028501546054486 0.66913061440640931 0 0.74314481823134659 0.3715724091156733 0 -0.33456530720320465 1 I I #
face $-1 $-1 $395 $57 $-1 $744 reversed single #
loop $-1 $-1 $562 $380 #
plane-surface $-1 0 30.678954408762209 0 0 -1 0 0 0 -1 forward_v I I I I #
coedge $-1 $745 $560 $563 $746 forward $381 $-1 #
coedge $-1 $566 $383 $384 $554 reversed $241 $-1 #
coedge $-1 $560 $745 $383 $552 reversed $381 $-1 #
edge $-1 $567 -7.2893764931003204 $747 7.2893764931003204 $551 $748 forward 7 unknown #
coedge $-1 $385 $384 $745 $749 forward $153 $-1 #
edge $-1 $558 -48.922391430402541 $747 48.922391430402541 $550 $750 forward 7 unknown #
coedge $-1 $563 $562 $385 $556 reversed $547 $-1 #
edge $-1 $751 -48.922391430402541 $557 48.922391430402541 $555 $752 forward 7 unknown #
vertex $-1 $387 $753 #
vertex $-1 $569 $754 #
straight-curve $-1 48.922391430402541 0 -7.2893764931003204 0 -1 0 I I #
coedge $-1 $549 $551 $388 $561 reversed $381 $-1 #
edge $-1 $564 -30.678954408762209 $567 30.678954408762209 $560 $755 forward 7 unknown #
coedge $-1 $555 $389 $394 $570 forward $547 $-1 #
coedge $-1 $389 $555 $549 $746 reversed $547 $-1 #
vertex $-1 $390 $756 #
straight-curve $-1 0 30.678954408762209 7.2893764931003204 -1 0 0 I I #
coedge $-1 $391 $550 $393 $569 reversed $241 $-1 #
vertex $-1 $561 $757 #
straight-curve $-1 0 -30.678954408762209 7.2893764931003204 1 0 0 I I #
edge $-1 $396 -7.2893764931003204 $558 7.2893764931003204 $393 $758 forward 7 unknown #
edge $-1 $397 -7.2893764931003204 $557 7.2893764931003204 $394 $759 forward 7 unknown #
point $-1 48.922391430402541 -30.678954408762209 7.2893764931003204 #
point $-1 48.922391430402541 30.678954408762209 7.2893764931003204 #
face $-1 $-1 $414 $58 $-1 $760 reversed single #
loop $-1 $-1 $410 $399 #
plane-surface $-1 0 -30.678954408762209 0 0 1 0 0 0 1 forward_v I I I I #
coedge $-1 $761 $762 $407 $586 forward $400 $-1 #
coedge $-1 $587 $402 $404 $582 reversed $249 $-1 #
edge $-1 $584 -3.3156545261663211 $415 0.20025110214427566 $413 $763 forward 7 unknown #
coedge $-1 $404 $403 $764 $765 reversed $157 $-1 #
coedge $-1 $591 $590 $403 $581 forward $574 $-1 #
edge $-1 $766 -48.922391430402541 $583 48.922391430402541 $580 $767 forward 7 unknown #
edge $-1 $768 -48.922391430402541 $584 48.922391430402541 $577 $769 forward 7 unknown #
vertex $-1 $581 $770 #
vertex $-1 $406 $771 #
straight-curve $-1 48.922391430402541 -13.623946572615154 -4.8733562381773439 0 1 0 I I #
edge $-1 $592 -17.055007836147055 $588 -10.192885309083252 $576 $772 forward 7 unknown #
coedge $-1 $408 $577 $761 $773 reversed $249 $-1 #
vertex $-1 $586 $774 #
straight-curve $-1 0 -23.816831881698405 -1.3574506098667471 -1 0 0 I I #
coedge $-1 $580 $410 $762 $775 forward $574 $-1 #
coedge $-1 $410 $580 $412 $594 reversed $574 $-1 #
vertex $-1 $775 $776 #
straight-curve $-1 0 -30.678954408762209 -1.3574506098667471 -1 0 0 I I #
edge $-1 $416 1.3574506098667471 $583 4.8733562381773439 $412 $777 forward 7 unknown #
point $-1 48.922391430402541 -23.816831881698405 -1.3574506098667471 #
point $-1 48.922391430402541 -30.678954408762209 -1.3574506098667471 #
face $-1 $-1 $614 $59 $-1 $778 reversed single #
loop $-1 $-1 $610 $418 #
plane-surface $-1 -48.922391430402541 0 0 1 0 0 0 0 -1 forward_v I I I I #
coedge $-1 $617 $421 $422 $604 reversed $257 $-1 #
coedge $-1 $610 $779 $421 $602 forward $598 $-1 #
edge $-1 $780 -3.3156545261663211 $618 0.20025110214427566 $601 $781 forward 7 unknown #
coedge $-1 $423 $422 $779 $782 reversed $161 $-1 #
edge $-1 $607 -48.922391430402541 $780 48.922391430402541 $600 $783 forward 7 unknown #
coedge $-1 $613 $612 $423 $606 forward $614 $-1 #
edge $-1 $608 -48.922391430402541 $784 48.922391430402541 $605 $785 forward 7 unknown #
vertex $-1 $425 $786 #
vertex $-1 $606 $787 #
straight-curve $-1 48.922391430402541 13.623946572615154 -4.8733562381773439 0 1 0 I I #
coedge $-1 $788 $601 $426 $611 forward $598 $-1 #
edge $-1 $618 10.192885309083252 $615 17.055007836147055 $610 $789 forward 7 unknown #
coedge $-1 $605 $427 $432 $621 forward $614 $-1 #
coedge $-1 $427 $605 $788 $790 reversed $614 $-1 #
loop $-1 $-1 $427 $597 #
vertex $-1 $790 $791 #
straight-curve $-1 0 30.678954408762209 -1.3574506098667471 1 0 0 I I #
coedge $-1 $429 $600 $431 $620 reversed $257 $-1 #
vertex $-1 $611 $792 #
straight-curve $-1 0 23.816831881698405 -1.3574506098667471 1 0 0 I I #
edge $-1 $434 -0.20025110214427566 $607 3.3156545261663211 $431 $793 forward 7 unknown #
edge $-1 $433 1.3574506098667471 $608 4.8733562381773439 $432 $794 forward 7 unknown #
point $-1 48.922391430402541 30.678954408762209 -1.3574506098667471 #
point $-1 48.922391430402541 23.816831881698405 -1.3574506098667471 #
loop $-1 $-1 $444 $436 #
plane-surface $-1 0 0 7.2893764931003204 0 0 1 1 0 0 forward_v I I I I #
coedge $-1 $627 $439 $441 $631 reversed $265 $-1 #
coedge $-1 $439 $626 $795 $796 reversed $265 $-1 #
coedge $-1 $447 $442 $439 $629 forward $437 $-1 #
edge $-1 $632 -35.398259778933998 $797 -30.025207101944254 $628 $798 forward 7 unknown #
coedge $-1 $441 $440 $635 $799 reversed $165 $-1 #
edge $-1 $800 -8.0299011303738048 $632 0 $626 $801 forward 7 unknown #
vertex $-1 $443 $802 #
straight-curve $-1 -48.922391430402541 -4.1258958496719593 1.916323816110574 0 -1 0 I I #
coedge $-1 $795 $444 $447 $639 forward $624 $-1 #
coedge $-1 $444 $795 $630 $799 forward $624 $-1 #
vertex $-1 $445 $803 #
straight-curve $-1 -57.196665551257375 -2.7976902877115553 7.2893764931003204 -1 0 0 I I #
straight-curve $-1 -48.922391430402541 -2.7976902877115553 1.9163238161105767 0.74314481823134659 0 0.66913061440640931 I I #
edge $-1 $448 2.7976902877115553 $797 13.705893110976282 $447 $804 forward 7 unknown #
point $-1 -48.922391430402541 -2.7976902877115553 7.2893764931003204 #
point $-1 -48.922391430402541 -2.7976902877115553 1.9163238161105767 #
edge $-1 $805 1 $805 0 $451 $-1 forward 7 unknown #
vertex $-1 $452 $806 #
ellipse-curve $-1 -44.960082627946903 -11.524252546323336 3.5159835646920756 -0.66913061440640931 0 0.74314481823134659 0.3715724091156733 0 0.33456530720320465 1 I I #
point $-1 -45.56712931331321 -11.524252546323336 4.9374154618086594 #
edge $-1 $807 1 $807 0 $455 $-1 forward 7 unknown #
vertex $-1 $456 $808 #
ellipse-curve $-1 -44.960082627946903 -8.2517916993439187 3.5159835646920756 -0.66913061440640931 0 0.74314481823134659 0.3715724091156733 0 0.33456530720320465 1 I I #
point $-1 -45.56712931331321 -8.2517916993439187 4.9374154618086594 #
edge $-1 $809 1 $809 0 $459 $-1 forward 7 unknown #
vertex $-1 $460 $810 #
ellipse-curve $-1 -44.960082627946903 -4.9793308523645017 3.5159835646920756 -0.66913061440640931 0 0.74314481823134659 0.3715724091156733 0 0.33456530720320465 1 I I #
point $-1 -45.56712931331321 -4.9793308523645017 4.9374154618086594 #
plane-surface $-1 -48.922391430402541 0 0 1 0 0 0 0 -1 forward_v I I I I #
coedge $-1 $665 $664 $657 $811 forward $464 $-1 #
coedge $-1 $657 $466 $468 $661 reversed $294 $-1 #
coedge $-1 $466 $656 $655 $811 reversed $294 $-1 #
coedge $-1 $474 $469 $466 $659 forward $475 $-1 #
edge $-1 $662 -35.398259778933998 $812 -30.025207101944254 $658 $813 forward 7 unknown #
coedge $-1 $468 $467 $665 $814 reversed $184 $-1 #
edge $-1 $815 -8.0299011303738048 $662 0 $656 $816 forward 7 unknown #
vertex $-1 $470 $817 #
straight-curve $-1 -48.922391430402541 4.1258958496719558 1.916323816110574 0 -1 0 I I #
coedge $-1 $655 $471 $474 $669 forward $464 $-1 #
coedge $-1 $471 $655 $660 $814 forward $464 $-1 #
vertex $-1 $472 $818 #
straight-curve $-1 -57.196665551257375 13.705893110976275 7.2893764931003204 -1 0 0 I I #
straight-curve $-1 -48.922391430402541 13.705893110976275 1.9163238161105767 0.74314481823134659 0 0.66913061440640931 I I #
edge $-1 $476 -13.705893110976275 $812 -2.7976902877115482 $474 $819 forward 7 unknown #
point $-1 -48.922391430402541 13.705893110976275 7.2893764931003204 #
point $-1 -48.922391430402541 13.705893110976275 1.9163238161105767 #
edge $-1 $820 1 $820 0 $479 $-1 forward 7 unknown #
vertex $-1 $480 $821 #
ellipse-curve $-1 -44.960082627946903 4.979330852364491 3.5159835646920756 -0.66913061440640931 0 0.74314481823134659 0.3715724091156733 0 0.33456530720320465 1 I I #
point $-1 -45.56712931331321 4.979330852364491 4.9374154618086594 #
edge $-1 $822 1 $822 0 $483 $-1 forward 7 unknown #
vertex $-1 $484 $823 #
ellipse-curve $-1 -44.960082627946903 8.2517916993439115 3.5159835646920756 -0.66913061440640931 0 0.74314481823134659 0.3715724091156733 0 0.33456530720320465 1 I I #
point $-1 -45.56712931331321 8.2517916993439115 4.9374154618086594 #
edge $-1 $824 1 $824 0 $487 $-1 forward 7 unknown #
vertex $-1 $488 $825 #
ellipse-curve $-1 -44.960082627946903 11.524252546323325 3.5159835646920756 -0.66913061440640931 0 0.74314481823134659 0.3715724091156733 0 0.33456530720320465 1 I I #
point $-1 -45.56712931331321 11.524252546323325 4.9374154618086594 #
plane-surface $-1 48.922391430402541 0 0 -1 0 0 0 0 1 forward_v I I I I #
coedge $-1 $695 $694 $687 $826 forward $492 $-1 #
coedge $-1 $687 $494 $496 $691 reversed $323 $-1 #
coedge $-1 $494 $686 $685 $826 reversed $323 $-1 #
coedge $-1 $502 $497 $494 $689 forward $503 $-1 #
edge $-1 $692 -68.133729614990102 $827 -62.760676938000358 $688 $828 forward 7 unknown #
coedge $-1 $496 $495 $695 $829 reversed $203 $-1 #
edge $-1 $830 89.814881730431296 $692 97.844782860805083 $686 $831 forward 7 unknown #
vertex $-1 $498 $832 #
straight-curve $-1 48.922391430402541 -4.1258958496719593 1.9163238161105767 0 1 0 I I #
coedge $-1 $685 $499 $502 $699 forward $492 $-1 #
coedge $-1 $499 $685 $690 $829 forward $492 $-1 #
vertex $-1 $500 $833 #
straight-curve $-1 20.840243864268089 -13.705893110976282 7.2893764931003204 1 0 0 I I #
straight-curve $-1 -23.790451943576031 -13.705893110976282 67.387263488222786 -0.74314481823134659 0 0.66913061440640931 I I #
edge $-1 $504 -13.705893110976282 $827 -2.7976902877115553 $502 $834 forward 7 unknown #
point $-1 48.922391430402541 -13.705893110976282 7.2893764931003204 #
point $-1 48.922391430402541 -13.705893110976282 1.9163238161105767 #
edge $-1 $835 1 $835 0 $507 $-1 forward 7 unknown #
vertex $-1 $508 $836 #
ellipse-curve $-1 44.960082627946903 -11.524252546323336 3.5159835646920792 0.66913061440640931 0 0.74314481823134659 0.3715724091156733 0 -0.33456530720320465 1 I I #
point $-1 46.31027413154456 -11.524252546323336 4.2682848474022537 #
edge $-1 $837 1 $837 0 $511 $-1 forward 7 unknown #
vertex $-1 $512 $838 #
ellipse-curve $-1 44.960082627946903 -8.2517916993439187 3.5159835646920792 0.66913061440640931 0 0.74314481823134659 0.3715724091156733 0 -0.33456530720320465 1 I I #
point $-1 46.31027413154456 -8.2517916993439187 4.2682848474022537 #
edge $-1 $839 1 $839 0 $515 $-1 forward 7 unknown #
vertex $-1 $516 $840 #
ellipse-curve $-1 44.960082627946903 -4.9793308523645017 3.5159835646920792 0.66913061440640931 0 0.74314481823134659 0.3715724091156733 0 -0.33456530720320465 1 I I #
point $-1 46.31027413154456 -4.9793308523645017 4.2682848474022537 #
loop $-1 $-1 $527 $519 #
plane-surface $-1 0 0 7.2893764931003204 0 0 1 1 0 0 forward_v I I I I #
coedge $-1 $717 $522 $524 $721 reversed $352 $-1 #
coedge $-1 $522 $716 $841 $842 reversed $352 $-1 #
coedge $-1 $530 $525 $522 $719 forward $520 $-1 #
edge $-1 $722 -68.133729614990102 $843 -62.760676938000358 $718 $844 forward 7 unknown #
coedge $-1 $524 $523 $725 $845 reversed $222 $-1 #
edge $-1 $846 89.814881730431296 $722 97.844782860805083 $716 $847 forward 7 unknown #
vertex $-1 $526 $848 #
straight-curve $-1 48.922391430402541 4.1258958496719558 1.9163238161105767 0 1 0 I I #
coedge $-1 $841 $527 $530 $729 forward $714 $-1 #
coedge $-1 $527 $841 $720 $845 forward $714 $-1 #
vertex $-1 $528 $849 #
straight-curve $-1 20.840243864268089 2.7976902877115482 7.2893764931003204 1 0 0 I I #
straight-curve $-1 -23.790451943576031 2.7976902877115482 67.387263488222786 -0.74314481823134659 0 0.66913061440640931 I I #
edge $-1 $531 2.7976902877115482 $843 13.705893110976275 $530 $850 forward 7 unknown #
point $-1 48.922391430402541 2.7976902877115482 7.2893764931003204 #
point $-1 48.922391430402541 2.7976902877115482 1.9163238161105767 #
edge $-1 $851 1 $851 0 $534 $-1 forward 7 unknown #
vertex $-1 $535 $852 #
ellipse-curve $-1 44.960082627946903 4.979330852364491 3.5159835646920792 0.66913061440640931 0 0.74314481823134659 0.3715724091156733 0 -0.33456530720320465 1 I I #
point $-1 46.31027413154456 4.979330852364491 4.2682848474022537 #
edge $-1 $853 1 $853 0 $538 $-1 forward 7 unknown #
vertex $-1 $539 $854 #
ellipse-curve $-1 44.960082627946903 8.2517916993439115 3.5159835646920792 0.66913061440640931 0 0.74314481823134659 0.3715724091156733 0 -0.33456530720320465 1 I I #
point $-1 46.31027413154456 8.2517916993439115 4.2682848474022537 #
edge $-1 $855 1 $855 0 $542 $-1 forward 7 unknown #
vertex $-1 $543 $856 #
ellipse-curve $-1 44.960082627946903 11.524252546323325 3.5159835646920792 0.66913061440640931 0 0.74314481823134659 0.3715724091156733 0 -0.33456530720320465 1 I I #
point $-1 46.31027413154456 11.524252546323325 4.2682848474022537 #
plane-surface $-1 48.922391430402541 0 0 -1 0 0 0 0 1 forward_v I I I I #
coedge $-1 $551 $549 $553 $749 reversed $381 $-1 #
edge $-1 $564 -7.2893764931003204 $751 7.2893764931003204 $563 $857 forward 7 unknown #
vertex $-1 $749 $858 #
straight-curve $-1 -48.922391430402541 -30.678954408762209 0 0 0 -1 I I #
edge $-1 $747 -30.678954408762209 $751 30.678954408762209 $745 $859 forward 7 unknown #
straight-curve $-1 0 -30.678954408762209 -7.2893764931003204 -1 0 0 I I #
vertex $-1 $556 $860 #
straight-curve $-1 0 30.678954408762209 -7.2893764931003204 1 0 0 I I #
point $-1 48.922391430402541 30.678954408762209 -7.2893764931003204 #
point $-1 48.922391430402541 -30.678954408762209 -7.2893764931003204 #
straight-curve $-1 -48.922391430402541 0 7.2893764931003204 0 -1 0 I I #
point $-1 -48.922391430402541 30.678954408762209 7.2893764931003204 #
point $-1 -48.922391430402541 -30.678954408762209 7.2893764931003204 #
straight-curve $-1 48.922391430402541 -30.678954408762209 0 0 0 -1 I I #
straight-curve $-1 48.922391430402541 30.678954408762209 0 0 0 -1 I I #
plane-surface $-1 48.922391430402541 0 0 -1 0 0 0 0 1 forward_v I I I I #
coedge $-1 $764 $576 $587 $773 forward $400 $-1 #
coedge $-1 $576 $764 $590 $775 reversed $400 $-1 #
straight-curve $-1 48.922391430402541 -23.816831881698405 -1.5577017120110228 0 0 1 I I #
coedge $-1 $762 $761 $579 $765 forward $400 $-1 #
edge $-1 $768 10.192885309083252 $766 17.055007836147055 $764 $861 forward 7 unknown #
vertex $-1 $581 $862 #
straight-curve $-1 0 -30.678954408762209 -4.8733562381773439 1 0 0 I I #
vertex $-1 $765 $863 #
straight-curve $-1 0 -23.816831881698405 -4.8733562381773439 1 0 0 I I #
point $-1 48.922391430402541 -30.678954408762209 -4.8733562381773439 #
point $-1 48.922391430402541 -23.816831881698405 -4.8733562381773439 #
straight-curve $-1 -48.922391430402541 -13.623946572615154 -1.3574506098667471 0 1 0 I I #
edge $-1 $588 -0.20025110214427566 $768 3.3156545261663211 $761 $864 forward 7 unknown #
point $-1 -48.922391430402541 -23.816831881698405 -1.3574506098667471 #
edge $-1 $592 1.3574506098667471 $766 4.8733562381773439 $762 $865 forward 7 unknown #
point $-1 -48.922391430402541 -30.678954408762209 -1.3574506098667471 #
straight-curve $-1 48.922391430402541 -30.678954408762209 0 0 0 -1 I I #
plane-surface $-1 0 30.678954408762209 0 0 -1 0 0 0 -1 forward_v I I I I #
coedge $-1 $601 $788 $603 $782 forward $598 $-1 #
vertex $-1 $782 $866 #
straight-curve $-1 -48.922391430402541 23.816831881698405 -1.5577017120110228 0 0 1 I I #
edge $-1 $784 -17.055007836147055 $780 -10.192885309083252 $779 $867 forward 7 unknown #
straight-curve $-1 0 23.816831881698405 -4.8733562381773439 -1 0 0 I I #
vertex $-1 $606 $868 #
straight-curve $-1 0 30.678954408762209 -4.8733562381773439 -1 0 0 I I #
point $-1 48.922391430402541 23.816831881698405 -4.8733562381773439 #
point $-1 48.922391430402541 30.678954408762209 -4.8733562381773439 #
coedge $-1 $779 $610 $613 $790 forward $598 $-1 #
straight-curve $-1 -48.922391430402541 13.623946572615154 -1.3574506098667471 0 1 0 I I #
edge $-1 $615 1.3574506098667471 $784 4.8733562381773439 $613 $869 forward 7 unknown #
point $-1 -48.922391430402541 30.678954408762209 -1.3574506098667471 #
point $-1 -48.922391430402541 23.816831881698405 -1.3574506098667471 #
straight-curve $-1 48.922391430402541 23.816831881698405 -1.5577017120110228 0 0 -1 I I #
straight-curve $-1 48.922391430402541 30.678954408762209 0 0 0 -1 I I #
coedge $-1 $635 $634 $627 $796 forward $624 $-1 #
edge $-1 $797 8.2742741208548338 $800 14.241653536802161 $795 $870 forward 7 unknown #
vertex $-1 $796 $871 #
straight-curve $-1 -48.922391430402541 -13.705893110976282 37.314583595044574 0 0 1 I I #
edge $-1 $800 -9.5799972613043227 $636 1.3282055619604041 $635 $872 forward 7 unknown #
vertex $-1 $799 $873 #
straight-curve $-1 -48.922391430402541 -13.705893110976282 1.9163238161105767 -0.74314481823134659 0 -0.66913061440640931 I I #
point $-1 -48.922391430402541 -13.705893110976282 1.9163238161105767 #
point $-1 -42.955012014455214 -2.7976902877115553 7.2893764931003204 #
straight-curve $-1 -48.922391430402541 0 7.2893764931003204 0 -1 0 I I #
vertex $-1 $642 $874 #
point $-1 -44.588510218831232 -11.524252546323336 3.8505488718952803 #
vertex $-1 $646 $875 #
point $-1 -44.588510218831232 -8.2517916993439187 3.8505488718952803 #
vertex $-1 $650 $876 #
point $-1 -44.588510218831232 -4.9793308523645017 3.8505488718952803 #
edge $-1 $812 8.2742741208548338 $815 14.241653536802161 $655 $877 forward 7 unknown #
vertex $-1 $811 $878 #
straight-curve $-1 -48.922391430402541 2.7976902877115482 37.314583595044574 0 0 1 I I #
edge $-1 $815 -1.3282055619604076 $666 9.5799972613043192 $665 $879 forward 7 unknown #
vertex $-1 $814 $880 #
straight-curve $-1 -48.922391430402541 2.7976902877115482 1.9163238161105767 -0.74314481823134659 0 -0.66913061440640931 I I #
point $-1 -48.922391430402541 2.7976902877115482 1.9163238161105767 #
point $-1 -42.955012014455214 13.705893110976275 7.2893764931003204 #
straight-curve $-1 -48.922391430402541 0 7.2893764931003204 0 -1 0 I I #
vertex $-1 $672 $881 #
point $-1 -44.588510218831232 4.979330852364491 3.8505488718952803 #
vertex $-1 $676 $882 #
point $-1 -44.588510218831232 8.2517916993439115 3.8505488718952803 #
vertex $-1 $680 $883 #
point $-1 -44.588510218831232 11.524252546323325 3.8505488718952803 #
edge $-1 $827 -28.082147566134452 $830 -22.114768150187132 $685 $884 forward 7 unknown #
vertex $-1 $689 $885 #
straight-curve $-1 48.922391430402541 -2.7976902877115553 70.050053431100679 0 0 1 I I #
edge $-1 $830 -1.3282055619604041 $696 9.5799972613043227 $695 $886 forward 7 unknown #
vertex $-1 $829 $887 #
straight-curve $-1 -23.790451943576031 -2.7976902877115553 67.387263488222786 0.74314481823134659 0 -0.66913061440640931 I I #
point $-1 48.922391430402541 -2.7976902877115553 1.9163238161105767 #
point $-1 42.955012014455221 -13.705893110976282 7.2893764931003133 #
straight-curve $-1 48.922391430402541 0 7.2893764931003204 0 1 0 I I #
vertex $-1 $702 $888 #
point $-1 45.331655037062575 -11.524252546323336 3.1814182574888745 #
vertex $-1 $706 $889 #
point $-1 45.331655037062575 -8.2517916993439187 3.1814182574888745 #
vertex $-1 $710 $890 #
point $-1 45.331655037062575 -4.9793308523645017 3.1814182574888745 #
coedge $-1 $725 $724 $717 $842 forward $714 $-1 #
edge $-1 $843 -28.082147566134452 $846 -22.114768150187132 $841 $891 forward 7 unknown #
vertex $-1 $842 $892 #
straight-curve $-1 48.922391430402541 13.705893110976275 70.050053431100679 0 0 1 I I #
edge $-1 $846 -9.5799972613043192 $726 1.3282055619604076 $725 $893 forward 7 unknown #
vertex $-1 $845 $894 #
straight-curve $-1 -23.790451943576031 13.705893110976275 67.387263488222786 0.74314481823134659 0 -0.66913061440640931 I I #
point $-1 48.922391430402541 13.705893110976275 1.9163238161105767 #
point $-1 42.955012014455221 2.7976902877115482 7.2893764931003133 #
straight-curve $-1 48.922391430402541 0 7.2893764931003204 0 1 0 I I #
vertex $-1 $732 $895 #
point $-1 45.331655037062575 4.979330852364491 3.1814182574888745 #
vertex $-1 $736 $896 #
point $-1 45.331655037062575 8.2517916993439115 3.1814182574888745 #
vertex $-1 $740 $897 #
point $-1 45.331655037062575 11.524252546323325 3.1814182574888745 #
straight-curve $-1 -48.922391430402541 30.678954408762209 0 0 0 -1 I I #
point $-1 -48.922391430402541 -30.678954408762209 -7.2893764931003204 #
straight-curve $-1 -48.922391430402541 0 -7.2893764931003204 0 1 0 I I #
point $-1 -48.922391430402541 30.678954408762209 -7.2893764931003204 #
straight-curve $-1 -48.922391430402541 -13.623946572615154 -4.8733562381773439 0 -1 0 I I #
point $-1 -48.922391430402541 -30.678954408762209 -4.8733562381773439 #
point $-1 -48.922391430402541 -23.816831881698405 -4.8733562381773439 #
straight-curve $-1 -48.922391430402541 -23.816831881698405 -1.5577017120110228 0 0 -1 I I #
straight-curve $-1 -48.922391430402541 -30.678954408762209 0 0 0 -1 I I #
point $-1 -48.922391430402541 23.816831881698405 -4.8733562381773439 #
straight-curve $-1 -48.922391430402541 13.623946572615154 -4.8733562381773439 0 -1 0 I I #
point $-1 -48.922391430402541 30.678954408762209 -4.8733562381773439 #
straight-curve $-1 -48.922391430402541 30.678954408762209 0 0 0 -1 I I #
straight-curve $-1 -57.196665551257375 -13.705893110976282 7.2893764931003204 1 0 0 I I #
point $-1 -48.922391430402541 -13.705893110976282 7.2893764931003204 #
straight-curve $-1 -42.955012014455221 -4.1258958496719593 7.2893764931003195 0 1 0 I I #
point $-1 -42.955012014455214 -13.705893110976282 7.2893764931003204 #
point $-1 -44.625517320743697 -11.524252546323336 3.1444111555764023 #
point $-1 -44.625517320743697 -8.2517916993439187 3.1444111555764023 #
point $-1 -44.625517320743697 -4.9793308523645017 3.1444111555764023 #
straight-curve $-1 -57.196665551257375 2.7976902877115482 7.2893764931003204 1 0 0 I I #
point $-1 -48.922391430402541 2.7976902877115482 7.2893764931003204 #
straight-curve $-1 -42.955012014455221 4.1258958496719558 7.2893764931003195 0 1 0 I I #
point $-1 -42.955012014455214 2.7976902877115482 7.2893764931003204 #
point $-1 -44.625517320743697 4.979330852364491 3.1444111555764023 #
point $-1 -44.625517320743697 8.2517916993439115 3.1444111555764023 #
point $-1 -44.625517320743697 11.524252546323325 3.1444111555764023 #
straight-curve $-1 20.840243864268089 -2.7976902877115553 7.2893764931003204 -1 0 0 I I #
point $-1 48.922391430402541 -2.7976902877115553 7.2893764931003204 #
straight-curve $-1 42.955012014455214 -4.1258958496719593 7.2893764931003133 0 -1 0 I I #
point $-1 42.955012014455221 -2.7976902877115553 7.2893764931003133 #
point $-1 44.625517320743697 -11.524252546323336 3.1444111555764058 #
point $-1 44.625517320743697 -8.2517916993439187 3.1444111555764058 #
point $-1 44.625517320743697 -4.9793308523645017 3.1444111555764058 #
straight-curve $-1 20.840243864268089 13.705893110976275 7.2893764931003204 -1 0 0 I I #
point $-1 48.922391430402541 13.705893110976275 7.2893764931003204 #
straight-curve $-1 42.955012014455214 4.1258958496719558 7.2893764931003133 0 -1 0 I I #
point $-1 42.955012014455221 13.705893110976275 7.2893764931003133 #
point $-1 44.625517320743697 4.979330852364491 3.1444111555764058 #
point $-1 44.625517320743697 8.2517916993439115 3.1444111555764058 #
point $-1 44.625517320743697 11.524252546323325 3.1444111555764058 #
End-of-ACIS-data 