500 0 12 0           
7 Unknown 11 ACIS 5.0 NT 24 Thu Mar 25 23:37:31 1999 
-1 9.9999999999999995e-007 1e-010 
body $-1 $12 $-1 $13 #
body $-1 $14 $-1 $15 #
body $-1 $16 $-1 $17 #
body $-1 $18 $-1 $19 #
body $-1 $20 $-1 $21 #
body $-1 $22 $-1 $23 #
body $-1 $24 $-1 $25 #
body $-1 $26 $-1 $27 #
body $-1 $28 $-1 $29 #
body $-1 $30 $-1 $31 #
body $-1 $32 $-1 $33 #
body $-1 $34 $-1 $35 #
lump $-1 $-1 $36 $0 #
transform $-1 1 0 0 0 1 0 0 0 1 62.520218512527848 40.347454594855073 15.465682842841264 1 rotate no_reflect no_shear #
lump $-1 $-1 $37 $1 #
transform $-1 1 0 0 0 1 0 0 0 1 62.520218512527848 40.347454594855073 15.465682842841264 1 rotate no_reflect no_shear #
lump $-1 $-1 $38 $2 #
transform $-1 1 0 0 0 1 0 0 0 1 62.520218512527848 40.347454594855073 15.465682842841264 1 rotate no_reflect no_shear #
lump $-1 $-1 $39 $3 #
transform $-1 1 0 0 0 1 0 0 0 1 62.520218512527848 40.347454594855073 15.465682842841264 1 rotate no_reflect no_shear #
lump $-1 $-1 $40 $4 #
transform $-1 1 0 0 0 1 0 0 0 1 62.520218512527848 40.347454594855073 15.465682842841264 1 rotate no_reflect no_shear #
lump $-1 $-1 $41 $5 #
transform $-1 1 0 0 0 1 0 0 0 1 62.520218512527848 40.347454594855073 15.465682842841264 1 rotate no_reflect no_shear #
lump $-1 $-1 $42 $6 #
transform $-1 1 0 0 0 1 0 0 0 1 62.520218512527848 40.347454594855073 15.465682842841264 1 rotate no_reflect no_shear #
lump $-1 $-1 $43 $7 #
transform $-1 1 0 0 0 1 0 0 0 1 62.520218512527848 40.347454594855073 15.465682842841264 1 rotate no_reflect no_shear #
lump $-1 $-1 $44 $8 #
transform $-1 1 0 0 0 1 0 0 0 1 62.520218512527848 40.347454594855073 15.465682842841264 1 rotate no_reflect no_shear #
lump $-1 $-1 $45 $9 #
transform $-1 1 0 0 0 1 0 0 0 1 62.520218512527848 40.347454594855073 15.465682842841264 1 rotate no_reflect no_shear #
lump $-1 $-1 $46 $10 #
transform $-1 1 0 0 0 1 0 0 0 1 62.520218512527848 40.347454594855073 15.465682842841264 1 rotate no_reflect no_shear #
lump $-1 $-1 $47 $11 #
transform $-1 1 0 0 0 1 0 0 0 1 62.520218512527848 40.347454594855073 15.465682842841264 1 rotate no_reflect no_shear #
shell $-1 $-1 $-1 $48 $-1 $12 #
shell $-1 $-1 $-1 $49 $-1 $14 #
shell $-1 $-1 $-1 $50 $-1 $16 #
shell $-1 $-1 $-1 $51 $-1 $18 #
shell $-1 $-1 $-1 $52 $-1 $20 #
shell $-1 $-1 $-1 $53 $-1 $22 #
shell $-1 $-1 $-1 $54 $-1 $24 #
shell $-1 $-1 $-1 $55 $-1 $26 #
shell $-1 $-1 $-1 $56 $-1 $28 #
shell $-1 $-1 $-1 $57 $-1 $30 #
shell $-1 $-1 $-1 $58 $-1 $32 #
shell $-1 $-1 $-1 $59 $-1 $34 #
face $-1 $60 $61 $36 $-1 $62 forward single #
face $-1 $63 $64 $37 $-1 $65 reversed single #
face $-1 $66 $67 $38 $-1 $68 reversed single #
face $-1 $69 $70 $39 $-1 $71 forward single #
face $-1 $72 $73 $40 $-1 $74 forward single #
face $-1 $75 $76 $41 $-1 $77 reversed single #
face $-1 $78 $79 $42 $-1 $80 forward single #
face $-1 $81 $82 $43 $-1 $83 forward single #
face $-1 $84 $85 $44 $-1 $86 reversed single #
face $-1 $87 $88 $45 $-1 $89 forward single #
face $-1 $90 $91 $46 $-1 $92 forward single #
face $-1 $93 $94 $47 $-1 $95 forward single #
face $-1 $96 $97 $36 $-1 $98 reversed single #
loop $-1 $-1 $99 $48 #
plane-surface $-1 0 0 15.465682842841264 0 0 1 1 0 0 forward_v I I I I #
face $-1 $100 $101 $37 $-1 $102 reversed single #
loop $-1 $-1 $103 $49 #
plane-surface $-1 0 -34.925724352683609 6.6939451384109585 0 0 1 1 0 0 forward_v I I I I #
face $-1 $104 $105 $38 $-1 $106 reversed single #
loop $-1 $-1 $107 $50 #
plane-surface $-1 -161.05342855609155 -23.421398181366659 85.529029770229258 0 1 0 -0.78801076186113728 0 0.61566146476048833 forward_v I I I I #
face $-1 $108 $109 $39 $-1 $110 forward single #
loop $-1 $111 $112 $51 #
cone-surface $-1 -59.077904634688991 -21.210760884468382 11.428411127046779 0.78801076186113728 0 -0.61566146476048833 0.30783073238024417 0 0.39400538093056864 1 I I 0 1 0.5 forward I I I I #
face $-1 $113 $114 $40 $-1 $115 forward single #
loop $-1 $116 $117 $52 #
cone-surface $-1 -59.077904634688991 -17.894804939120966 11.428411127046779 0.78801076186113728 0 -0.61566146476048833 0.30783073238024417 0 0.39400538093056864 1 I I 0 1 0.5 forward I I I I #
face $-1 $118 $119 $41 $-1 $120 reversed single #
loop $-1 $-1 $121 $53 #
plane-surface $-1 -161.05342855609155 26.527628126565617 85.529029770229258 0 1 0 -0.78801076186113728 0 0.61566146476048833 forward_v I I I I #
face $-1 $122 $123 $42 $-1 $124 forward single #
loop $-1 $125 $126 $54 #
cone-surface $-1 -59.077904634688991 28.738265423463893 11.428411127046779 0.78801076186113728 0 -0.61566146476048833 0.30783073238024417 0 0.39400538093056864 1 I I 0 1 0.5 forward I I I I #
face $-1 $127 $128 $43 $-1 $129 forward single #
loop $-1 $130 $131 $55 #
cone-surface $-1 -59.077904634688991 32.054221368811305 11.428411127046779 0.78801076186113728 0 -0.61566146476048833 0.30783073238024417 0 0.39400538093056864 1 I I 0 1 0.5 forward I I I I #
face $-1 $132 $133 $44 $-1 $134 reversed single #
loop $-1 $-1 $135 $56 #
plane-surface $-1 37.909700486217986 1.7300899738378188 183.34972477028032 0 -1 0 -0.6018150307709319 0 -0.79863550430605224 forward_v I I I I #
face $-1 $136 $137 $45 $-1 $138 forward single #
loop $-1 $139 $140 $57 #
cone-surface $-1 56.253582325528832 -14.556401923287616 9.9003473548486873 -0.6018150307709319 0 -0.79863550430605224 1.1979532564590785 0 -0.90272254615639791 1 I I 0 1 1.5 forward I I I I #
face $-1 $141 $142 $46 $-1 $143 forward single #
loop $-1 $144 $145 $58 #
cone-surface $-1 56.253582325528832 -8.4489674618655783 9.9003473548486873 -0.6018150307709319 0 -0.79863550430605224 1.1979532564590785 0 -0.90272254615639791 1 I I 0 1 1.5 forward I I I I #
face $-1 $146 $147 $47 $-1 $148 forward single #
loop $-1 $149 $150 $59 #
cone-surface $-1 56.253582325528832 -2.3415330004435404 9.9003473548486873 -0.6018150307709319 0 -0.79863550430605224 1.1979532564590785 0 -0.90272254615639791 1 I I 0 1 1.5 forward I I I I #
face $-1 $151 $152 $36 $-1 $153 reversed single #
loop $-1 $-1 $154 $60 #
plane-surface $-1 0 0 -15.465682842841264 0 0 1 1 0 0 forward_v I I I I #
coedge $-1 $155 $156 $157 $158 forward $61 $-1 #
face $-1 $159 $160 $37 $-1 $161 reversed single #
loop $-1 $-1 $162 $63 #
plane-surface $-1 0 -29.503994110512146 11.079813990626111 0 -1 0 0 0 -1 forward_v I I I I #
coedge $-1 $163 $164 $165 $166 reversed $64 $-1 #
face $-1 $167 $168 $38 $-1 $169 reversed single #
loop $-1 $-1 $170 $66 #
plane-surface $-1 -62.520218512527833 -19.552782911794676 8.546451157091866 -0.78801076186113728 0 0.61566146476048833 0.61566146476048833 0 0.78801076186113728 forward_v I I I I #
coedge $-1 $171 $172 $173 $174 reversed $67 $-1 #
face $-1 $-1 $175 $39 $-1 $176 forward single #
loop $-1 $177 $178 $69 #
cone-surface $-1 -58.141536122959963 -21.210760884468382 10.696839887936871 0.78801076186113728 0 -0.61566146476048833 0.15391536619012208 0 0.19700269046528432 1 I I -0.70710678118654746 0.70710678118654746 0.25 forward I I I I #
loop $-1 $-1 $179 $51 #
coedge $-1 $112 $112 $180 $181 reversed $70 $-1 #
face $-1 $-1 $182 $40 $-1 $183 forward single #
loop $-1 $184 $185 $72 #
cone-surface $-1 -58.141536122959963 -17.894804939120966 10.696839887936871 0.78801076186113728 0 -0.61566146476048833 0.15391536619012208 0 0.19700269046528432 1 I I -0.70710678118654746 0.70710678118654746 0.25 forward I I I I #
loop $-1 $-1 $186 $52 #
coedge $-1 $117 $117 $187 $188 reversed $73 $-1 #
face $-1 $189 $190 $41 $-1 $191 reversed single #
loop $-1 $-1 $192 $75 #
plane-surface $-1 -62.520218512527833 30.396243396137599 8.546451157091866 -0.78801076186113728 0 0.61566146476048833 0.61566146476048833 0 0.78801076186113728 forward_v I I I I #
coedge $-1 $193 $194 $195 $196 reversed $76 $-1 #
face $-1 $-1 $197 $42 $-1 $198 forward single #
loop $-1 $199 $200 $78 #
cone-surface $-1 -58.141536122959963 28.738265423463893 10.696839887936871 0.78801076186113728 0 -0.61566146476048833 0.15391536619012208 0 0.19700269046528432 1 I I -0.70710678118654746 0.70710678118654746 0.25 forward I I I I #
loop $-1 $-1 $201 $54 #
coedge $-1 $126 $126 $202 $203 reversed $79 $-1 #
face $-1 $-1 $204 $43 $-1 $205 forward single #
loop $-1 $206 $207 $81 #
cone-surface $-1 -58.141536122959963 32.054221368811305 10.696839887936871 0.78801076186113728 0 -0.61566146476048833 0.15391536619012208 0 0.19700269046528432 1 I I -0.70710678118654746 0.70710678118654746 0.25 forward I I I I #
loop $-1 $-1 $208 $55 #
coedge $-1 $131 $131 $209 $210 reversed $82 $-1 #
face $-1 $211 $212 $44 $-1 $213 reversed single #
loop $-1 $-1 $214 $84 #
plane-surface $-1 -37.341513969626675 -8.4489674618655783 83.48799228812581 0.6018150307709319 0 0.79863550430605224 0.79863550430605224 0 -0.6018150307709319 forward_v I I I I #
coedge $-1 $215 $216 $217 $218 reversed $85 $-1 #
face $-1 $-1 $219 $45 $-1 $220 forward single #
loop $-1 $221 $222 $87 #
cone-surface $-1 54.332125250371575 -14.556401923287616 7.3504877439066298 -0.6018150307709319 0 -0.79863550430605224 0.59897662822953923 0 -0.45136127307819895 1 I I -0.70710678118654757 0.70710678118654757 0.75 forward I I I I #
loop $-1 $-1 $223 $57 #
coedge $-1 $140 $140 $224 $225 reversed $88 $-1 #
face $-1 $-1 $226 $46 $-1 $227 forward single #
loop $-1 $228 $229 $90 #
cone-surface $-1 54.332125250371575 -8.4489674618655783 7.3504877439066298 -0.6018150307709319 0 -0.79863550430605224 0.59897662822953923 0 -0.45136127307819895 1 I I -0.70710678118654757 0.70710678118654757 0.75 forward I I I I #
loop $-1 $-1 $230 $58 #
coedge $-1 $145 $145 $231 $232 reversed $91 $-1 #
face $-1 $-1 $233 $47 $-1 $234 forward single #
loop $-1 $235 $236 $93 #
cone-surface $-1 54.332125250371575 -2.3415330004435404 7.3504877439066298 -0.6018150307709319 0 -0.79863550430605224 0.59897662822953923 0 -0.45136127307819895 1 I I -0.70710678118654757 0.70710678118654757 0.75 forward I I I I #
loop $-1 $-1 $237 $59 #
coedge $-1 $150 $150 $238 $239 reversed $94 $-1 #
face $-1 $240 $241 $36 $-1 $242 reversed single #
loop $-1 $-1 $243 $96 #
plane-surface $-1 0 -40.347454594855073 0 0 1 0 0 0 1 forward_v I I I I #
coedge $-1 $244 $245 $246 $247 forward $97 $-1 #
coedge $-1 $248 $99 $249 $250 forward $61 $-1 #
coedge $-1 $99 $248 $251 $252 forward $61 $-1 #
coedge $-1 $253 $254 $99 $158 reversed $255 $-1 #
edge $-1 $256 -40.347454594855073 $257 40.347454594855073 $157 $258 forward 7 unknown #
face $-1 $259 $260 $37 $-1 $261 reversed single #
loop $-1 $-1 $262 $100 #
plane-surface $-1 -62.520218512527848 0 0 1 0 0 0 0 -1 forward_v I I I I #
coedge $-1 $263 $264 $265 $266 reversed $101 $-1 #
coedge $-1 $267 $103 $268 $269 reversed $64 $-1 #
coedge $-1 $103 $267 $263 $270 forward $64 $-1 #
coedge $-1 $265 $271 $103 $166 forward $272 $-1 #
edge $-1 $273 -22.884592418513268 $274 -12.041131934170341 $165 $275 forward 7 unknown #
face $-1 $276 $277 $38 $-1 $278 forward single #
loop $-1 $-1 $279 $104 #
plane-surface $-1 -161.05342855609155 -15.684167642222693 85.529029770229258 0 -1 0 0.78801076186113728 0 -0.61566146476048833 forward_v I I I I #
coedge $-1 $280 $281 $282 $283 reversed $105 $-1 #
coedge $-1 $172 $107 $284 $285 reversed $67 $-1 #
coedge $-1 $107 $171 $280 $286 reversed $67 $-1 #
coedge $-1 $282 $287 $107 $174 forward $277 $-1 #
edge $-1 $288 18.006495765517926 $289 23.412391878668146 $173 $290 forward 7 unknown #
loop $-1 $-1 $180 $108 #
plane-surface $-1 -62.520218512527833 -19.552782911794676 8.546451157091866 -0.78801076186113728 0 0.61566146476048833 0.61566146476048833 0 0.78801076186113728 forward_v I I I I #
loop $-1 $-1 $291 $69 #
coedge $-1 $178 $178 $179 $292 reversed $109 $-1 #
coedge $-1 $179 $179 $178 $292 forward $111 $-1 #
coedge $-1 $180 $180 $112 $181 forward $175 $-1 #
edge $-1 $293 0 $293 6.2831853071796004 $180 $294 forward 7 unknown #
loop $-1 $-1 $187 $113 #
plane-surface $-1 -62.520218512527833 -19.552782911794676 8.546451157091866 -0.78801076186113728 0 0.61566146476048833 0.61566146476048833 0 0.78801076186113728 forward_v I I I I #
loop $-1 $-1 $295 $72 #
coedge $-1 $185 $185 $186 $296 reversed $114 $-1 #
coedge $-1 $186 $186 $185 $296 forward $116 $-1 #
coedge $-1 $187 $187 $117 $188 forward $182 $-1 #
edge $-1 $297 0 $297 6.2831853071796004 $187 $298 forward 7 unknown #
face $-1 $299 $300 $41 $-1 $301 forward single #
loop $-1 $-1 $302 $118 #
plane-surface $-1 -161.05342855609155 34.264858665709582 85.529029770229258 0 -1 0 0.78801076186113728 0 -0.61566146476048833 forward_v I I I I #
coedge $-1 $303 $304 $305 $306 reversed $119 $-1 #
coedge $-1 $194 $121 $307 $308 reversed $76 $-1 #
coedge $-1 $121 $193 $303 $309 reversed $76 $-1 #
coedge $-1 $305 $310 $121 $196 forward $300 $-1 #
edge $-1 $311 18.006495765517926 $312 23.412391878668146 $195 $313 forward 7 unknown #
loop $-1 $-1 $202 $122 #
plane-surface $-1 -62.520218512527833 30.396243396137599 8.546451157091866 -0.78801076186113728 0 0.61566146476048833 0.61566146476048833 0 0.78801076186113728 forward_v I I I I #
loop $-1 $-1 $314 $78 #
coedge $-1 $200 $200 $201 $315 reversed $123 $-1 #
coedge $-1 $201 $201 $200 $315 forward $125 $-1 #
coedge $-1 $202 $202 $126 $203 forward $197 $-1 #
edge $-1 $316 0 $316 6.2831853071796004 $202 $317 forward 7 unknown #
loop $-1 $-1 $209 $127 #
plane-surface $-1 -62.520218512527833 30.396243396137599 8.546451157091866 -0.78801076186113728 0 0.61566146476048833 0.61566146476048833 0 0.78801076186113728 forward_v I I I I #
loop $-1 $-1 $318 $81 #
coedge $-1 $207 $207 $208 $319 reversed $128 $-1 #
coedge $-1 $208 $208 $207 $319 forward $130 $-1 #
coedge $-1 $209 $209 $131 $210 forward $204 $-1 #
edge $-1 $320 0 $320 6.2831853071796004 $209 $321 forward 7 unknown #
face $-1 $322 $323 $44 $-1 $324 reversed single #
loop $-1 $-1 $325 $132 #
plane-surface $-1 37.909700486217986 -18.628024897568977 183.34972477028032 0 1 0 0.6018150307709319 0 0.79863550430605224 forward_v I I I I #
coedge $-1 $326 $327 $328 $329 reversed $133 $-1 #
coedge $-1 $216 $135 $330 $331 reversed $85 $-1 #
coedge $-1 $135 $215 $326 $332 reversed $85 $-1 #
coedge $-1 $328 $333 $135 $218 forward $334 $-1 #
edge $-1 $335 -43.565368269418855 $336 -33.972287499578968 $217 $337 forward 7 unknown #
loop $-1 $-1 $224 $136 #
plane-surface $-1 -37.341513969626675 -8.4489674618655783 83.48799228812581 0.6018150307709319 0 0.79863550430605224 0.79863550430605224 0 -0.6018150307709319 forward_v I I I I #
loop $-1 $-1 $338 $87 #
coedge $-1 $222 $222 $223 $339 reversed $137 $-1 #
coedge $-1 $223 $223 $222 $339 forward $139 $-1 #
coedge $-1 $224 $224 $140 $225 forward $219 $-1 #
edge $-1 $340 0 $340 6.2831853071796004 $224 $341 forward 7 unknown #
loop $-1 $-1 $231 $141 #
plane-surface $-1 -37.341513969626675 -8.4489674618655783 83.48799228812581 0.6018150307709319 0 0.79863550430605224 0.79863550430605224 0 -0.6018150307709319 forward_v I I I I #
loop $-1 $-1 $342 $90 #
coedge $-1 $229 $229 $230 $343 reversed $142 $-1 #
coedge $-1 $230 $230 $229 $343 forward $144 $-1 #
coedge $-1 $231 $231 $145 $232 forward $226 $-1 #
edge $-1 $344 0 $344 6.2831853071796004 $231 $345 forward 7 unknown #
loop $-1 $-1 $238 $146 #
plane-surface $-1 -37.341513969626675 -8.4489674618655783 83.48799228812581 0.6018150307709319 0 0.79863550430605224 0.79863550430605224 0 -0.6018150307709319 forward_v I I I I #
loop $-1 $-1 $346 $93 #
coedge $-1 $236 $236 $237 $347 reversed $147 $-1 #
coedge $-1 $237 $237 $236 $347 forward $149 $-1 #
coedge $-1 $238 $238 $150 $239 forward $233 $-1 #
edge $-1 $348 0 $348 6.2831853071796004 $238 $349 forward 7 unknown #
face $-1 $350 $351 $36 $-1 $352 reversed single #
loop $-1 $-1 $353 $151 #
plane-surface $-1 -62.520218512527848 0 0 1 0 0 0 0 -1 forward_v I I I I #
coedge $-1 $354 $251 $355 $356 forward $152 $-1 #
coedge $-1 $357 $154 $354 $358 forward $97 $-1 #
coedge $-1 $154 $357 $359 $360 forward $97 $-1 #
coedge $-1 $254 $253 $154 $247 reversed $255 $-1 #
edge $-1 $361 -40.347454594855073 $362 40.347454594855073 $246 $363 forward 7 unknown #
coedge $-1 $156 $155 $364 $365 forward $61 $-1 #
coedge $-1 $366 $367 $155 $250 reversed $351 $-1 #
edge $-1 $257 -62.520218512527848 $368 62.520218512527848 $249 $369 forward 7 unknown #
coedge $-1 $243 $370 $156 $252 reversed $152 $-1 #
edge $-1 $371 -62.520218512527848 $256 62.520218512527848 $251 $372 forward 7 unknown #
coedge $-1 $246 $157 $370 $373 forward $255 $-1 #
coedge $-1 $157 $246 $366 $374 reversed $255 $-1 #
loop $-1 $-1 $253 $350 #
vertex $-1 $158 $375 #
vertex $-1 $158 $376 #
straight-curve $-1 62.520218512527848 0 15.465682842841264 0 1 0 I I #
face $-1 $377 $378 $37 $-1 $379 forward single #
loop $-1 $-1 $268 $159 #
plane-surface $-1 0 -40.347454594855073 0 0 1 0 0 0 1 forward_v I I I I #
coedge $-1 $380 $381 $382 $383 forward $160 $-1 #
coedge $-1 $382 $162 $164 $270 reversed $101 $-1 #
coedge $-1 $162 $382 $384 $385 reversed $101 $-1 #
coedge $-1 $386 $165 $162 $266 forward $272 $-1 #
edge $-1 $274 1.1540381430979032 $387 9.9257758475282074 $265 $388 forward 7 unknown #
coedge $-1 $164 $163 $380 $389 reversed $64 $-1 #
coedge $-1 $390 $391 $163 $269 forward $260 $-1 #
edge $-1 $392 -62.520218512527848 $273 62.520218512527848 $268 $393 forward 7 unknown #
edge $-1 $394 -62.520218512527848 $274 62.520218512527848 $263 $395 forward 7 unknown #
coedge $-1 $165 $386 $390 $396 forward $272 $-1 #
loop $-1 $-1 $265 $377 #
vertex $-1 $269 $397 #
vertex $-1 $166 $398 #
straight-curve $-1 62.520218512527848 -17.462862176341805 6.6939451384109585 0 1 0 I I #
face $-1 $-1 $399 $38 $-1 $400 reversed single #
loop $-1 $-1 $173 $167 #
plane-surface $-1 0 0 15.465682842841264 0 0 1 1 0 0 forward_v I I I I #
coedge $-1 $401 $402 $403 $404 reversed $168 $-1 #
coedge $-1 $405 $170 $172 $286 forward $105 $-1 #
coedge $-1 $170 $405 $401 $406 forward $105 $-1 #
coedge $-1 $403 $173 $170 $283 forward $277 $-1 #
edge $-1 $289 -13.645006725469321 $407 -5.9077761863253553 $282 $408 forward 7 unknown #
coedge $-1 $409 $410 $171 $285 forward $399 $-1 #
edge $-1 $411 -34.218063728022784 $288 -27.298832042273364 $284 $412 forward 7 unknown #
edge $-1 $289 -8.7806309515461898 $411 2.274695869299009e-014 $172 $413 forward 7 unknown #
coedge $-1 $173 $403 $409 $414 forward $277 $-1 #
vertex $-1 $285 $415 #
vertex $-1 $174 $416 #
straight-curve $-1 -80.526714278045773 -23.421398181366659 15.465682842841268 1 0 0 I I #
coedge $-1 $291 $291 $-1 $417 reversed $177 $-1 #
edge $-1 $418 0 $418 6.2831853071796004 $178 $419 forward 7 unknown #
vertex $-1 $181 $420 #
ellipse-curve $-1 -59.81727045595273 -21.210760884468382 12.00606699996656 -0.78801076186113728 0 0.61566146476048833 0.30783073238024417 0 0.39400538093056864 1 I I #
coedge $-1 $295 $295 $-1 $421 reversed $184 $-1 #
edge $-1 $422 0 $422 6.2831853071796004 $185 $423 forward 7 unknown #
vertex $-1 $188 $424 #
ellipse-curve $-1 -59.81727045595273 -17.894804939120966 12.00606699996656 -0.78801076186113728 0 0.61566146476048833 0.30783073238024417 0 0.39400538093056864 1 I I #
face $-1 $-1 $425 $41 $-1 $426 reversed single #
loop $-1 $-1 $195 $189 #
plane-surface $-1 0 0 15.465682842841264 0 0 1 1 0 0 forward_v I I I I #
coedge $-1 $427 $428 $429 $430 reversed $190 $-1 #
coedge $-1 $431 $192 $194 $309 forward $119 $-1 #
coedge $-1 $192 $431 $427 $432 forward $119 $-1 #
coedge $-1 $429 $195 $192 $306 forward $300 $-1 #
edge $-1 $312 11.329506428496817 $433 19.066736967640782 $305 $434 forward 7 unknown #
coedge $-1 $435 $436 $193 $308 forward $425 $-1 #
edge $-1 $437 -34.218063728022784 $311 -27.298832042273364 $307 $438 forward 7 unknown #
edge $-1 $312 -8.7806309515461898 $437 2.274695869299009e-014 $194 $439 forward 7 unknown #
coedge $-1 $195 $429 $435 $440 forward $300 $-1 #
vertex $-1 $196 $441 #
vertex $-1 $196 $442 #
straight-curve $-1 -80.526714278045773 26.527628126565617 15.465682842841268 1 0 0 I I #
coedge $-1 $314 $314 $-1 $443 reversed $199 $-1 #
edge $-1 $444 0 $444 6.2831853071796004 $200 $445 forward 7 unknown #
vertex $-1 $203 $446 #
ellipse-curve $-1 -59.81727045595273 28.738265423463893 12.00606699996656 -0.78801076186113728 0 0.61566146476048833 0.30783073238024417 0 0.39400538093056864 1 I I #
coedge $-1 $318 $318 $-1 $447 reversed $206 $-1 #
edge $-1 $448 0 $448 6.2831853071796004 $207 $449 forward 7 unknown #
vertex $-1 $210 $450 #
ellipse-curve $-1 -59.81727045595273 32.054221368811305 12.00606699996656 -0.78801076186113728 0 0.61566146476048833 0.30783073238024417 0 0.39400538093056864 1 I I #
face $-1 $-1 $334 $44 $-1 $451 forward single #
loop $-1 $-1 $452 $211 #
plane-surface $-1 62.520218512527848 0 0 -1 0 0 0 0 1 forward_v I I I I #
coedge $-1 $453 $454 $455 $456 reversed $212 $-1 #
coedge $-1 $457 $214 $216 $332 forward $133 $-1 #
coedge $-1 $214 $457 $453 $458 forward $133 $-1 #
coedge $-1 $455 $217 $214 $329 forward $334 $-1 #
edge $-1 $336 -5.954573704770608 $459 14.403541166636188 $328 $460 forward 7 unknown #
coedge $-1 $461 $462 $215 $331 forward $323 $-1 #
edge $-1 $463 -83.43808455285901 $335 -76.209179542298898 $330 $464 forward 7 unknown #
edge $-1 $336 113.02859843521554 $463 125.0404370250557 $216 $465 forward 7 unknown #
coedge $-1 $217 $455 $461 $466 forward $334 $-1 #
loop $-1 $-1 $455 $322 #
vertex $-1 $331 $467 #
vertex $-1 $218 $468 #
straight-curve $-1 18.954850243108993 1.7300899738378188 15.465682842841261 -1 0 0 I I #
coedge $-1 $338 $338 $-1 $469 reversed $221 $-1 #
edge $-1 $470 0 $470 6.2831853071796004 $222 $471 forward 7 unknown #
vertex $-1 $225 $472 #
ellipse-curve $-1 57.72367812760789 -14.556401923287616 11.851230337561201 0.6018150307709319 0 0.79863550430605224 1.1979532564590785 0 -0.90272254615639791 1 I I #
coedge $-1 $342 $342 $-1 $473 reversed $228 $-1 #
edge $-1 $474 0 $474 6.2831853071796004 $229 $475 forward 7 unknown #
vertex $-1 $232 $476 #
ellipse-curve $-1 57.72367812760789 -8.4489674618655783 11.851230337561201 0.6018150307709319 0 0.79863550430605224 1.1979532564590785 0 -0.90272254615639791 1 I I #
coedge $-1 $346 $346 $-1 $477 reversed $235 $-1 #
edge $-1 $478 0 $478 6.2831853071796004 $236 $479 forward 7 unknown #
vertex $-1 $239 $480 #
ellipse-curve $-1 57.72367812760789 -2.3415330004435404 11.851230337561201 0.6018150307709319 0 0.79863550430605224 1.1979532564590785 0 -0.90272254615639791 1 I I #
face $-1 $-1 $255 $36 $-1 $481 reversed single #
loop $-1 $-1 $366 $240 #
plane-surface $-1 0 40.347454594855073 0 0 -1 0 0 0 -1 forward_v I I I I #
coedge $-1 $482 $364 $367 $483 forward $241 $-1 #
coedge $-1 $370 $243 $244 $358 reversed $152 $-1 #
coedge $-1 $364 $482 $243 $356 reversed $241 $-1 #
edge $-1 $371 -15.465682842841264 $484 15.465682842841264 $355 $485 forward 7 unknown #
coedge $-1 $245 $244 $482 $486 forward $97 $-1 #
edge $-1 $362 -62.520218512527848 $484 62.520218512527848 $354 $487 forward 7 unknown #
coedge $-1 $367 $366 $245 $360 reversed $351 $-1 #
edge $-1 $488 -62.520218512527848 $361 62.520218512527848 $359 $489 forward 7 unknown #
vertex $-1 $247 $490 #
vertex $-1 $373 $491 #
straight-curve $-1 62.520218512527848 0 -15.465682842841264 0 -1 0 I I #
coedge $-1 $353 $355 $248 $365 reversed $241 $-1 #
edge $-1 $368 -40.347454594855073 $371 40.347454594855073 $364 $492 forward 7 unknown #
coedge $-1 $359 $249 $254 $374 forward $351 $-1 #
coedge $-1 $249 $359 $353 $483 reversed $351 $-1 #
vertex $-1 $250 $493 #
straight-curve $-1 0 40.347454594855073 15.465682842841264 -1 0 0 I I #
coedge $-1 $251 $354 $253 $373 reversed $152 $-1 #
vertex $-1 $365 $494 #
straight-curve $-1 0 -40.347454594855073 15.465682842841264 1 0 0 I I #
edge $-1 $256 -15.465682842841264 $362 15.465682842841264 $253 $495 forward 7 unknown #
edge $-1 $257 -15.465682842841264 $361 15.465682842841264 $254 $496 forward 7 unknown #
point $-1 62.520218512527848 -40.347454594855073 15.465682842841264 #
point $-1 62.520218512527848 40.347454594855073 15.465682842841264 #
face $-1 $-1 $272 $37 $-1 $497 reversed single #
loop $-1 $-1 $384 $259 #
plane-surface $-1 0 0 15.465682842841264 0 0 1 1 0 0 forward_v I I I I #
coedge $-1 $498 $262 $267 $389 forward $160 $-1 #
coedge $-1 $262 $498 $499 $500 reversed $160 $-1 #
coedge $-1 $264 $263 $262 $383 reversed $101 $-1 #
edge $-1 $501 -9.9257758475282074 $394 -1.1540381430979032 $262 $502 forward 7 unknown #
coedge $-1 $499 $503 $264 $385 forward $378 $-1 #
edge $-1 $387 -62.520218512527848 $501 62.520218512527848 $384 $504 forward 7 unknown #
coedge $-1 $271 $265 $503 $505 reversed $272 $-1 #
vertex $-1 $266 $506 #
straight-curve $-1 62.520218512527848 -29.503994110512146 5.5399069953130553 0 0 1 I I #
edge $-1 $394 12.041131934170341 $392 22.884592418513268 $380 $507 forward 7 unknown #
coedge $-1 $508 $268 $271 $396 reversed $260 $-1 #
coedge $-1 $268 $508 $498 $509 forward $260 $-1 #
vertex $-1 $269 $510 #
straight-curve $-1 0 -40.347454594855073 6.6939451384109585 1 0 0 I I #
vertex $-1 $389 $511 #
straight-curve $-1 0 -29.503994110512146 6.6939451384109585 1 0 0 I I #
edge $-1 $512 -15.465682842841264 $273 -6.6939451384109585 $271 $513 forward 7 unknown #
point $-1 62.520218512527848 -40.347454594855073 6.6939451384109585 #
point $-1 62.520218512527848 -29.503994110512146 6.6939451384109585 #
loop $-1 $-1 $284 $276 #
plane-surface $-1 -62.520218512527848 0 0 1 0 0 0 0 -1 forward_v I I I I #
coedge $-1 $402 $279 $281 $406 reversed $168 $-1 #
coedge $-1 $279 $401 $514 $515 reversed $168 $-1 #
coedge $-1 $287 $282 $279 $404 forward $277 $-1 #
edge $-1 $407 -23.412391878668146 $516 -18.006495765517926 $403 $517 forward 7 unknown #
coedge $-1 $281 $280 $410 $518 reversed $105 $-1 #
edge $-1 $519 -2.274695869299009e-014 $407 8.7806309515461898 $401 $520 forward 7 unknown #
vertex $-1 $283 $521 #
straight-curve $-1 -57.114322399377627 -9.7763914558973379 15.465682842841264 0 1 0 I I #
coedge $-1 $514 $284 $287 $414 reversed $399 $-1 #
coedge $-1 $284 $514 $405 $518 forward $399 $-1 #
vertex $-1 $285 $522 #
straight-curve $-1 -62.520218512527848 -23.421398181366659 42.764514885114629 0 0 1 I I #
straight-curve $-1 -62.520218512527833 -23.421398181366659 8.546451157091866 -0.61566146476048833 0 -0.78801076186113728 I I #
edge $-1 $516 15.684167642222693 $288 23.421398181366659 $409 $523 forward 7 unknown #
point $-1 -62.520218512527848 -23.421398181366659 15.465682842841264 #
point $-1 -57.114322399377627 -23.421398181366659 15.465682842841264 #
edge $-1 $524 1 $524 0 $291 $-1 forward 7 unknown #
vertex $-1 $292 $525 #
ellipse-curve $-1 -58.338538813425245 -21.210760884468382 10.850755254126993 -0.78801076186113728 0 0.61566146476048833 0.30783073238024417 0 0.39400538093056864 1 I I #
point $-1 -59.509439723572498 -21.210760884468382 12.400072380897134 #
edge $-1 $526 1 $526 0 $295 $-1 forward 7 unknown #
vertex $-1 $296 $527 #
ellipse-curve $-1 -58.338538813425245 -17.894804939120966 10.850755254126993 -0.78801076186113728 0 0.61566146476048833 0.30783073238024417 0 0.39400538093056864 1 I I #
point $-1 -59.509439723572498 -17.894804939120966 12.400072380897134 #
loop $-1 $-1 $307 $299 #
plane-surface $-1 -62.520218512527848 0 0 1 0 0 0 0 -1 forward_v I I I I #
coedge $-1 $428 $302 $304 $432 reversed $190 $-1 #
coedge $-1 $302 $427 $528 $529 reversed $190 $-1 #
coedge $-1 $310 $305 $302 $430 forward $300 $-1 #
edge $-1 $433 -23.412391878668146 $530 -18.006495765517926 $429 $531 forward 7 unknown #
coedge $-1 $304 $303 $436 $532 reversed $119 $-1 #
edge $-1 $533 -2.274695869299009e-014 $433 8.7806309515461898 $427 $534 forward 7 unknown #
vertex $-1 $306 $535 #
straight-curve $-1 -57.114322399377627 15.1981216980688 15.465682842841264 0 1 0 I I #
coedge $-1 $528 $307 $310 $440 reversed $425 $-1 #
coedge $-1 $307 $528 $431 $532 forward $425 $-1 #
vertex $-1 $308 $536 #
straight-curve $-1 -62.520218512527848 26.527628126565617 42.764514885114629 0 0 1 I I #
straight-curve $-1 -62.520218512527833 26.527628126565617 8.546451157091866 -0.61566146476048833 0 -0.78801076186113728 I I #
edge $-1 $530 -34.264858665709582 $311 -26.527628126565617 $435 $537 forward 7 unknown #
point $-1 -62.520218512527848 26.527628126565617 15.465682842841264 #
point $-1 -57.114322399377627 26.527628126565617 15.465682842841264 #
edge $-1 $538 1 $538 0 $314 $-1 forward 7 unknown #
vertex $-1 $315 $539 #
ellipse-curve $-1 -58.338538813425245 28.738265423463893 10.850755254126993 -0.78801076186113728 0 0.61566146476048833 0.30783073238024417 0 0.39400538093056864 1 I I #
point $-1 -59.509439723572498 28.738265423463893 12.400072380897134 #
edge $-1 $540 1 $540 0 $318 $-1 forward 7 unknown #
vertex $-1 $319 $541 #
ellipse-curve $-1 -58.338538813425245 32.054221368811305 10.850755254126993 -0.78801076186113728 0 0.61566146476048833 0.30783073238024417 0 0.39400538093056864 1 I I #
point $-1 -59.509439723572498 32.054221368811305 12.400072380897134 #
plane-surface $-1 0 0 15.465682842841264 0 0 1 1 0 0 forward_v I I I I #
coedge $-1 $462 $461 $454 $542 forward $323 $-1 #
coedge $-1 $454 $325 $327 $458 reversed $212 $-1 #
coedge $-1 $325 $453 $452 $542 reversed $212 $-1 #
coedge $-1 $333 $328 $325 $456 forward $334 $-1 #
edge $-1 $459 33.972287499578968 $543 43.565368269418855 $455 $544 forward 7 unknown #
coedge $-1 $327 $326 $462 $545 reversed $133 $-1 #
edge $-1 $546 -125.0404370250557 $459 -113.02859843521554 $453 $547 forward 7 unknown #
vertex $-1 $329 $548 #
straight-curve $-1 52.927137742687961 -4.2244837309327892 15.465682842841261 0 -1 0 I I #
coedge $-1 $452 $330 $333 $466 reversed $323 $-1 #
coedge $-1 $330 $452 $457 $545 forward $323 $-1 #
vertex $-1 $331 $549 #
straight-curve $-1 62.520218512527848 1.7300899738378188 91.674862385140159 0 0 1 I I #
straight-curve $-1 -37.341513969626675 1.7300899738378188 83.48799228812581 0.79863550430605224 0 -0.6018150307709319 I I #
edge $-1 $543 -18.628024897568977 $335 1.7300899738378188 $461 $550 forward 7 unknown #
point $-1 62.520218512527848 1.7300899738378188 15.465682842841264 #
point $-1 52.927137742687961 1.7300899738378188 15.465682842841261 #
edge $-1 $551 1 $551 0 $338 $-1 forward 7 unknown #
vertex $-1 $339 $552 #
ellipse-curve $-1 54.783486523449774 -14.556401923287616 7.9494643721361689 0.6018150307709319 0 0.79863550430605224 1.1979532564590785 0 -0.90272254615639791 1 I I #
point $-1 58.921631384066977 -14.556401923287616 10.948507791404808 #
edge $-1 $553 1 $553 0 $342 $-1 forward 7 unknown #
vertex $-1 $343 $554 #
ellipse-curve $-1 54.783486523449774 -8.4489674618655783 7.9494643721361689 0.6018150307709319 0 0.79863550430605224 1.1979532564590785 0 -0.90272254615639791 1 I I #
point $-1 58.921631384066977 -8.4489674618655783 10.948507791404808 #
edge $-1 $555 1 $555 0 $346 $-1 forward 7 unknown #
vertex $-1 $347 $556 #
ellipse-curve $-1 54.783486523449774 -2.3415330004435404 7.9494643721361689 0.6018150307709319 0 0.79863550430605224 1.1979532564590785 0 -0.90272254615639791 1 I I #
point $-1 58.921631384066977 -2.3415330004435404 10.948507791404808 #
plane-surface $-1 62.520218512527848 0 0 -1 0 0 0 0 1 forward_v I I I I #
coedge $-1 $355 $353 $357 $486 reversed $241 $-1 #
edge $-1 $368 -15.465682842841264 $488 15.465682842841264 $367 $557 forward 7 unknown #
vertex $-1 $486 $558 #
straight-curve $-1 -62.520218512527848 -40.347454594855073 0 0 0 -1 I I #
edge $-1 $484 -40.347454594855073 $488 40.347454594855073 $482 $559 forward 7 unknown #
straight-curve $-1 0 -40.347454594855073 -15.465682842841264 -1 0 0 I I #
vertex $-1 $360 $560 #
straight-curve $-1 0 40.347454594855073 -15.465682842841264 1 0 0 I I #
point $-1 62.520218512527848 40.347454594855073 -15.465682842841264 #
point $-1 62.520218512527848 -40.347454594855073 -15.465682842841264 #
straight-curve $-1 -62.520218512527848 0 15.465682842841264 0 -1 0 I I #
point $-1 -62.520218512527848 40.347454594855073 15.465682842841264 #
point $-1 -62.520218512527848 -40.347454594855073 15.465682842841264 #
straight-curve $-1 62.520218512527848 -40.347454594855073 0 0 0 -1 I I #
straight-curve $-1 62.520218512527848 40.347454594855073 0 0 0 -1 I I #
plane-surface $-1 62.520218512527848 0 0 -1 0 0 0 0 1 forward_v I I I I #
coedge $-1 $381 $380 $391 $509 reversed $160 $-1 #
coedge $-1 $561 $384 $381 $500 forward $378 $-1 #
edge $-1 $501 29.503994110512146 $562 40.347454594855073 $381 $563 forward 7 unknown #
vertex $-1 $500 $564 #
straight-curve $-1 -62.520218512527848 -29.503994110512146 5.5399069953130553 0 0 -1 I I #
coedge $-1 $384 $561 $386 $505 forward $378 $-1 #
straight-curve $-1 0 -29.503994110512146 15.465682842841264 -1 0 0 I I #
edge $-1 $512 -40.347454594855073 $387 -29.503994110512146 $386 $565 forward 7 unknown #
point $-1 62.520218512527848 -29.503994110512146 15.465682842841263 #
straight-curve $-1 -62.520218512527848 -17.462862176341805 6.6939451384109585 0 -1 0 I I #
coedge $-1 $391 $390 $561 $566 reversed $260 $-1 #
edge $-1 $562 -15.465682842841264 $392 -6.6939451384109585 $498 $567 forward 7 unknown #
point $-1 -62.520218512527848 -40.347454594855073 6.6939451384109585 #
point $-1 -62.520218512527848 -29.503994110512146 6.6939451384109585 #
vertex $-1 $505 $568 #
straight-curve $-1 62.520218512527848 -40.347454594855073 0 0 0 -1 I I #
coedge $-1 $410 $409 $402 $515 forward $399 $-1 #
edge $-1 $516 27.298832042273364 $519 34.218063728022784 $514 $569 forward 7 unknown #
vertex $-1 $414 $570 #
straight-curve $-1 -80.526714278045773 -15.684167642222693 15.465682842841268 -1 0 0 I I #
edge $-1 $519 5.9077761863253553 $411 13.645006725469321 $410 $571 forward 7 unknown #
vertex $-1 $518 $572 #
straight-curve $-1 -62.520218512527833 -15.684167642222693 8.546451157091866 0.61566146476048833 0 0.78801076186113728 I I #
point $-1 -57.114322399377627 -15.684167642222693 15.465682842841264 #
point $-1 -62.520218512527848 -23.421398181366659 8.5464511570918482 #
straight-curve $-1 -62.520218512527848 0 15.465682842841264 0 -1 0 I I #
vertex $-1 $417 $573 #
point $-1 -58.030708081045006 -21.210760884468382 11.244760635057562 #
vertex $-1 $421 $574 #
point $-1 -58.030708081045006 -17.894804939120966 11.244760635057562 #
coedge $-1 $436 $435 $428 $529 forward $425 $-1 #
edge $-1 $530 27.298832042273364 $533 34.218063728022784 $528 $575 forward 7 unknown #
vertex $-1 $440 $576 #
straight-curve $-1 -80.526714278045773 34.264858665709582 15.465682842841268 -1 0 0 I I #
edge $-1 $533 -19.066736967640782 $437 -11.329506428496817 $436 $577 forward 7 unknown #
vertex $-1 $532 $578 #
straight-curve $-1 -62.520218512527833 34.264858665709582 8.546451157091866 0.61566146476048833 0 0.78801076186113728 I I #
point $-1 -57.114322399377627 34.264858665709582 15.465682842841264 #
point $-1 -62.520218512527848 26.527628126565617 8.5464511570918482 #
straight-curve $-1 -62.520218512527848 0 15.465682842841264 0 -1 0 I I #
vertex $-1 $443 $579 #
point $-1 -58.030708081045006 28.738265423463893 11.244760635057562 #
vertex $-1 $447 $580 #
point $-1 -58.030708081045006 32.054221368811305 11.244760635057562 #
edge $-1 $543 76.209179542298898 $546 83.43808455285901 $452 $581 forward 7 unknown #
vertex $-1 $466 $582 #
straight-curve $-1 18.954850243108993 -18.628024897568977 15.465682842841261 1 0 0 I I #
edge $-1 $546 -14.403541166636188 $463 5.954573704770608 $462 $583 forward 7 unknown #
vertex $-1 $545 $584 #
straight-curve $-1 -37.341513969626675 -18.628024897568977 83.48799228812581 -0.79863550430605224 0 0.6018150307709319 I I #
point $-1 52.927137742687961 -18.628024897568977 15.465682842841261 #
point $-1 62.520218512527848 1.7300899738378188 8.2367778322811489 #
straight-curve $-1 62.520218512527848 0 15.465682842841264 0 1 0 I I #
vertex $-1 $469 $585 #
point $-1 55.981439779908854 -14.556401923287616 7.0467418259797707 #
vertex $-1 $473 $586 #
point $-1 55.981439779908854 -8.4489674618655783 7.0467418259797707 #
vertex $-1 $477 $587 #
point $-1 55.981439779908854 -2.3415330004435404 7.0467418259797707 #
straight-curve $-1 -62.520218512527848 40.347454594855073 0 0 0 -1 I I #
point $-1 -62.520218512527848 -40.347454594855073 -15.465682842841264 #
straight-curve $-1 -62.520218512527848 0 -15.465682842841264 0 1 0 I I #
point $-1 -62.520218512527848 40.347454594855073 -15.465682842841264 #
coedge $-1 $503 $499 $508 $566 forward $378 $-1 #
vertex $-1 $500 $588 #
straight-curve $-1 -62.520218512527848 0 15.465682842841264 0 -1 0 I I #
point $-1 -62.520218512527848 -29.503994110512146 15.465682842841263 #
straight-curve $-1 62.520218512527848 0 15.465682842841264 0 1 0 I I #
edge $-1 $562 -62.520218512527848 $512 62.520218512527848 $508 $589 forward 7 unknown #
straight-curve $-1 -62.520218512527848 -40.347454594855073 0 0 0 -1 I I #
point $-1 62.520218512527848 -40.347454594855073 15.465682842841264 #
straight-curve $-1 -62.520218512527848 -15.684167642222693 42.764514885114629 0 0 -1 I I #
point $-1 -62.520218512527848 -15.684167642222693 15.465682842841264 #
straight-curve $-1 -62.520218512527848 -9.7763914558973379 8.5464511570918447 0 -1 0 I I #
point $-1 -62.520218512527848 -15.684167642222693 8.5464511570918482 #
point $-1 -57.94453343249468 -21.210760884468382 10.54292452174675 #
point $-1 -57.94453343249468 -17.894804939120966 10.54292452174675 #
straight-curve $-1 -62.520218512527848 34.264858665709582 42.764514885114629 0 0 -1 I I #
point $-1 -62.520218512527848 34.264858665709582 15.465682842841264 #
straight-curve $-1 -62.520218512527848 15.1981216980688 8.5464511570918447 0 -1 0 I I #
point $-1 -62.520218512527848 34.264858665709582 8.5464511570918482 #
point $-1 -57.94453343249468 28.738265423463893 10.54292452174675 #
point $-1 -57.94453343249468 32.054221368811305 10.54292452174675 #
straight-curve $-1 62.520218512527848 -18.628024897568977 91.674862385140159 0 0 -1 I I #
point $-1 62.520218512527848 -18.628024897568977 15.465682842841264 #
straight-curve $-1 62.52021851252784 -4.2244837309327892 8.2367778322811489 0 1 0 I I #
point $-1 62.520218512527848 -18.628024897568977 8.2367778322811489 #
point $-1 53.880763977293377 -14.556401923287616 6.7515111156770908 #
point $-1 53.880763977293377 -8.4489674618655783 6.7515111156770908 #
point $-1 53.880763977293377 -2.3415330004435404 6.7515111156770908 #
point $-1 -62.520218512527848 -40.347454594855073 15.465682842841264 #
straight-curve $-1 0 -40.347454594855073 15.465682842841264 1 0 0 I I #
End-of-ACIS-data 