500 0 18 0           
7 Unknown 11 ACIS 5.0 NT 24 Thu Mar 25 20:35:47 1999 
-1 9.9999999999999995e-007 1e-010 
body $-1 $18 $-1 $19 #
body $-1 $20 $-1 $21 #
body $-1 $22 $-1 $23 #
body $-1 $24 $-1 $25 #
body $-1 $26 $-1 $27 #
body $-1 $28 $-1 $29 #
body $-1 $30 $-1 $31 #
body $-1 $32 $-1 $33 #
body $-1 $34 $-1 $35 #
body $-1 $36 $-1 $37 #
body $-1 $38 $-1 $39 #
body $-1 $40 $-1 $41 #
body $-1 $42 $-1 $43 #
body $-1 $44 $-1 $45 #
body $-1 $46 $-1 $47 #
body $-1 $48 $-1 $49 #
body $-1 $50 $-1 $51 #
body $-1 $52 $-1 $53 #
lump $-1 $-1 $54 $0 #
transform $-1 1 0 0 0 1 0 0 0 1 59.519638660847804 29.009806854363717 11.168425931184206 1 rotate no_reflect no_shear #
lump $-1 $-1 $55 $1 #
transform $-1 1 0 0 0 1 0 0 0 1 59.519638660847804 29.009806854363717 11.168425931184206 1 rotate no_reflect no_shear #
lump $-1 $-1 $56 $2 #
transform $-1 1 0 0 0 1 0 0 0 1 59.519638660847804 29.009806854363717 11.168425931184206 1 rotate no_reflect no_shear #
lump $-1 $-1 $57 $3 #
transform $-1 1 0 0 0 1 0 0 0 1 59.519638660847804 29.009806854363717 11.168425931184206 1 rotate no_reflect no_shear #
lump $-1 $-1 $58 $4 #
transform $-1 1 0 0 0 1 0 0 0 1 59.519638660847804 29.009806854363717 11.168425931184206 1 rotate no_reflect no_shear #
lump $-1 $-1 $59 $5 #
transform $-1 1 0 0 0 1 0 0 0 1 59.519638660847804 29.009806854363717 11.168425931184206 1 rotate no_reflect no_shear #
lump $-1 $-1 $60 $6 #
transform $-1 1 0 0 0 1 0 0 0 1 59.519638660847804 29.009806854363717 11.168425931184206 1 rotate no_reflect no_shear #
lump $-1 $-1 $61 $7 #
transform $-1 1 0 0 0 1 0 0 0 1 59.519638660847804 29.009806854363717 11.168425931184206 1 rotate no_reflect no_shear #
lump $-1 $-1 $62 $8 #
transform $-1 1 0 0 0 1 0 0 0 1 59.519638660847804 29.009806854363717 11.168425931184206 1 rotate no_reflect no_shear #
lump $-1 $-1 $63 $9 #
transform $-1 1 0 0 0 1 0 0 0 1 59.519638660847804 29.009806854363717 11.168425931184206 1 rotate no_reflect no_shear #
lump $-1 $-1 $64 $10 #
transform $-1 1 0 0 0 1 0 0 0 1 59.519638660847804 29.009806854363717 11.168425931184206 1 rotate no_reflect no_shear #
lump $-1 $-1 $65 $11 #
transform $-1 1 0 0 0 1 0 0 0 1 59.519638660847804 29.009806854363717 11.168425931184206 1 rotate no_reflect no_shear #
lump $-1 $-1 $66 $12 #
transform $-1 1 0 0 0 1 0 0 0 1 59.519638660847804 29.009806854363717 11.168425931184206 1 rotate no_reflect no_shear #
lump $-1 $-1 $67 $13 #
transform $-1 1 0 0 0 1 0 0 0 1 59.519638660847804 29.009806854363717 11.168425931184206 1 rotate no_reflect no_shear #
lump $-1 $-1 $68 $14 #
transform $-1 1 0 0 0 1 0 0 0 1 59.519638660847804 29.009806854363717 11.168425931184206 1 rotate no_reflect no_shear #
lump $-1 $-1 $69 $15 #
transform $-1 1 0 0 0 1 0 0 0 1 59.519638660847804 29.009806854363717 11.168425931184206 1 rotate no_reflect no_shear #
lump $-1 $-1 $70 $16 #
transform $-1 1 0 0 0 1 0 0 0 1 59.519638660847804 29.009806854363717 11.168425931184206 1 rotate no_reflect no_shear #
lump $-1 $-1 $71 $17 #
transform $-1 1 0 0 0 1 0 0 0 1 59.519638660847804 29.009806854363717 11.168425931184206 1 rotate no_reflect no_shear #
shell $-1 $-1 $-1 $72 $-1 $18 #
shell $-1 $-1 $-1 $73 $-1 $20 #
shell $-1 $-1 $-1 $74 $-1 $22 #
shell $-1 $-1 $-1 $75 $-1 $24 #
shell $-1 $-1 $-1 $76 $-1 $26 #
shell $-1 $-1 $-1 $77 $-1 $28 #
shell $-1 $-1 $-1 $78 $-1 $30 #
shell $-1 $-1 $-1 $79 $-1 $32 #
shell $-1 $-1 $-1 $80 $-1 $34 #
shell $-1 $-1 $-1 $81 $-1 $36 #
shell $-1 $-1 $-1 $82 $-1 $38 #
shell $-1 $-1 $-1 $83 $-1 $40 #
shell $-1 $-1 $-1 $84 $-1 $42 #
shell $-1 $-1 $-1 $85 $-1 $44 #
shell $-1 $-1 $-1 $86 $-1 $46 #
shell $-1 $-1 $-1 $87 $-1 $48 #
shell $-1 $-1 $-1 $88 $-1 $50 #
shell $-1 $-1 $-1 $89 $-1 $52 #
face $-1 $90 $91 $54 $-1 $92 forward single #
face $-1 $93 $94 $55 $-1 $95 reversed single #
face $-1 $96 $97 $56 $-1 $98 reversed single #
face $-1 $99 $100 $57 $-1 $101 forward single #
face $-1 $102 $103 $58 $-1 $104 forward single #
face $-1 $105 $106 $59 $-1 $107 forward single #
face $-1 $108 $109 $60 $-1 $110 reversed single #
face $-1 $111 $112 $61 $-1 $113 forward single #
face $-1 $114 $115 $62 $-1 $116 forward single #
face $-1 $117 $118 $63 $-1 $119 forward single #
face $-1 $120 $121 $64 $-1 $122 reversed single #
face $-1 $123 $124 $65 $-1 $125 forward single #
face $-1 $126 $127 $66 $-1 $128 forward single #
face $-1 $129 $130 $67 $-1 $131 forward single #
face $-1 $132 $133 $68 $-1 $134 reversed single #
face $-1 $135 $136 $69 $-1 $137 forward single #
face $-1 $138 $139 $70 $-1 $140 forward single #
face $-1 $141 $142 $71 $-1 $143 forward single #
face $-1 $144 $145 $54 $-1 $146 reversed single #
loop $-1 $-1 $147 $72 #
plane-surface $-1 0 0 11.168425931184206 0 0 1 1 0 0 forward_v I I I I #
face $-1 $148 $149 $55 $-1 $150 reversed single #
loop $-1 $-1 $151 $73 #
plane-surface $-1 -52.834933375031319 -24.892482974743402 0 0 -1 0 0 0 -1 forward_v I I I I #
face $-1 $152 $153 $56 $-1 $154 reversed single #
loop $-1 $-1 $155 $74 #
plane-surface $-1 -43.484191128563253 76.500343058868566 124.78312214256101 1 0 0 0 -0.73135370988377701 -0.68199835119979291 forward_v I I I I #
face $-1 $156 $157 $57 $-1 $158 forward single #
loop $-1 $159 $160 $75 #
cone-surface $-1 -40.44647673042217 23.840263747635454 5.6954912236791504 0 -0.73135370988377701 -0.68199835119979291 0.5 0 0 1 I I 0 1 0.5 forward I I I I #
face $-1 $161 $162 $58 $-1 $163 forward single #
loop $-1 $164 $165 $76 #
cone-surface $-1 -35.88990513321054 23.840263747635454 5.6954912236791504 0 -0.73135370988377701 -0.68199835119979291 0.5 0 0 1 I I 0 1 0.5 forward I I I I #
face $-1 $166 $167 $59 $-1 $168 forward single #
loop $-1 $169 $170 $77 #
cone-surface $-1 -31.333333535998911 23.840263747635454 5.6954912236791504 0 -0.73135370988377701 -0.68199835119979291 0.5 0 0 1 I I 0 1 0.5 forward I I I I #
face $-1 $171 $172 $60 $-1 $173 reversed single #
loop $-1 $-1 $174 $78 #
plane-surface $-1 -15.101117515878567 76.500343058868566 124.78312214256101 1 0 0 0 -0.73135370988377701 -0.68199835119979291 forward_v I I I I #
face $-1 $175 $176 $61 $-1 $177 forward single #
loop $-1 $178 $179 $79 #
cone-surface $-1 -12.063403117737479 23.840263747635454 5.6954912236791504 0 -0.73135370988377701 -0.68199835119979291 0.5 0 0 1 I I 0 1 0.5 forward I I I I #
face $-1 $180 $181 $62 $-1 $182 forward single #
loop $-1 $183 $184 $80 #
cone-surface $-1 -7.50683152052585 23.840263747635454 5.6954912236791504 0 -0.73135370988377701 -0.68199835119979291 0.5 0 0 1 I I 0 1 0.5 forward I I I I #
face $-1 $185 $186 $63 $-1 $187 forward single #
loop $-1 $188 $189 $81 #
cone-surface $-1 -2.9502599233142206 23.840263747635454 5.6954912236791504 0 -0.73135370988377701 -0.68199835119979291 0.5 0 0 1 I I 0 1 0.5 forward I I I I #
face $-1 $190 $191 $64 $-1 $192 reversed single #
loop $-1 $-1 $193 $82 #
plane-surface $-1 13.281956096806116 76.500343058868566 124.78312214256101 1 0 0 0 -0.73135370988377701 -0.68199835119979291 forward_v I I I I #
face $-1 $194 $195 $65 $-1 $196 forward single #
loop $-1 $197 $198 $83 #
cone-surface $-1 16.319670494947204 23.840263747635454 5.6954912236791504 0 -0.73135370988377701 -0.68199835119979291 0.5 0 0 1 I I 0 1 0.5 forward I I I I #
face $-1 $199 $200 $66 $-1 $201 forward single #
loop $-1 $202 $203 $84 #
cone-surface $-1 20.876242092158833 23.840263747635454 5.6954912236791504 0 -0.73135370988377701 -0.68199835119979291 0.5 0 0 1 I I 0 1 0.5 forward I I I I #
face $-1 $204 $205 $67 $-1 $206 forward single #
loop $-1 $207 $208 $85 #
cone-surface $-1 25.432813689370462 23.840263747635454 5.6954912236791504 0 -0.73135370988377701 -0.68199835119979291 0.5 0 0 1 I I 0 1 0.5 forward I I I I #
face $-1 $209 $210 $68 $-1 $211 reversed single #
loop $-1 $-1 $212 $86 #
plane-surface $-1 41.665029709490796 76.500343058868566 124.78312214256101 1 0 0 0 -0.73135370988377701 -0.68199835119979291 forward_v I I I I #
face $-1 $213 $214 $69 $-1 $215 forward single #
loop $-1 $216 $217 $87 #
cone-surface $-1 44.702744107631887 23.840263747635454 5.6954912236791504 0 -0.73135370988377701 -0.68199835119979291 0.5 0 0 1 I I 0 1 0.5 forward I I I I #
face $-1 $218 $219 $70 $-1 $220 forward single #
loop $-1 $221 $222 $88 #
cone-surface $-1 49.259315704843516 23.840263747635454 5.6954912236791504 0 -0.73135370988377701 -0.68199835119979291 0.5 0 0 1 I I 0 1 0.5 forward I I I I #
face $-1 $223 $224 $71 $-1 $225 forward single #
loop $-1 $226 $227 $89 #
cone-surface $-1 53.815887302055145 23.840263747635454 5.6954912236791504 0 -0.73135370988377701 -0.68199835119979291 0.5 0 0 1 I I 0 1 0.5 forward I I I I #
face $-1 $228 $229 $54 $-1 $230 reversed single #
loop $-1 $-1 $231 $90 #
plane-surface $-1 0 0 -11.168425931184206 0 0 1 1 0 0 forward_v I I I I #
coedge $-1 $232 $233 $234 $235 forward $91 $-1 #
face $-1 $236 $237 $55 $-1 $238 forward single #
loop $-1 $-1 $239 $93 #
plane-surface $-1 -46.150228089214835 -26.951144914553559 0 -1 0 0 0 0 1 forward_v I I I I #
coedge $-1 $240 $241 $242 $243 forward $94 $-1 #
face $-1 $244 $245 $56 $-1 $246 reversed single #
loop $-1 $-1 $247 $96 #
plane-surface $-1 -35.88990513321054 -10.559474032237276 43.598531281149704 0 0.73135370988377701 0.68199835119979291 1 0 0 forward_v I I I I #
coedge $-1 $248 $249 $250 $251 reversed $97 $-1 #
face $-1 $-1 $252 $57 $-1 $253 forward single #
loop $-1 $254 $255 $99 #
cone-surface $-1 -40.44647673042217 23.151741782167306 5.0534341193421284 0 -0.73135370988377701 -0.68199835119979291 0.25 0 0 1 I I -0.70710678118654746 0.70710678118654746 0.25 forward I I I I #
loop $-1 $-1 $256 $75 #
coedge $-1 $160 $160 $257 $258 reversed $100 $-1 #
face $-1 $-1 $259 $58 $-1 $260 forward single #
loop $-1 $261 $262 $102 #
cone-surface $-1 -35.88990513321054 23.151741782167306 5.0534341193421284 0 -0.73135370988377701 -0.68199835119979291 0.25 0 0 1 I I -0.70710678118654746 0.70710678118654746 0.25 forward I I I I #
loop $-1 $-1 $263 $76 #
coedge $-1 $165 $165 $264 $265 reversed $103 $-1 #
face $-1 $-1 $266 $59 $-1 $267 forward single #
loop $-1 $268 $269 $105 #
cone-surface $-1 -31.333333535998911 23.151741782167306 5.0534341193421284 0 -0.73135370988377701 -0.68199835119979291 0.25 0 0 1 I I -0.70710678118654746 0.70710678118654746 0.25 forward I I I I #
loop $-1 $-1 $270 $77 #
coedge $-1 $170 $170 $271 $272 reversed $106 $-1 #
face $-1 $273 $274 $60 $-1 $275 reversed single #
loop $-1 $-1 $276 $108 #
plane-surface $-1 -7.50683152052585 -10.559474032237276 43.598531281149704 0 0.73135370988377701 0.68199835119979291 1 0 0 forward_v I I I I #
coedge $-1 $277 $278 $279 $280 reversed $109 $-1 #
face $-1 $-1 $281 $61 $-1 $282 forward single #
loop $-1 $283 $284 $111 #
cone-surface $-1 -12.063403117737479 23.151741782167306 5.0534341193421284 0 -0.73135370988377701 -0.68199835119979291 0.25 0 0 1 I I -0.70710678118654746 0.70710678118654746 0.25 forward I I I I #
loop $-1 $-1 $285 $79 #
coedge $-1 $179 $179 $286 $287 reversed $112 $-1 #
face $-1 $-1 $288 $62 $-1 $289 forward single #
loop $-1 $290 $291 $114 #
cone-surface $-1 -7.50683152052585 23.151741782167306 5.0534341193421284 0 -0.73135370988377701 -0.68199835119979291 0.25 0 0 1 I I -0.70710678118654746 0.70710678118654746 0.25 forward I I I I #
loop $-1 $-1 $292 $80 #
coedge $-1 $184 $184 $293 $294 reversed $115 $-1 #
face $-1 $-1 $295 $63 $-1 $296 forward single #
loop $-1 $297 $298 $117 #
cone-surface $-1 -2.9502599233142206 23.151741782167306 5.0534341193421284 0 -0.73135370988377701 -0.68199835119979291 0.25 0 0 1 I I -0.70710678118654746 0.70710678118654746 0.25 forward I I I I #
loop $-1 $-1 $299 $81 #
coedge $-1 $189 $189 $300 $301 reversed $118 $-1 #
face $-1 $302 $303 $64 $-1 $304 reversed single #
loop $-1 $-1 $305 $120 #
plane-surface $-1 20.876242092158833 -10.559474032237276 43.598531281149704 0 0.73135370988377701 0.68199835119979291 1 0 0 forward_v I I I I #
coedge $-1 $306 $307 $308 $309 reversed $121 $-1 #
face $-1 $-1 $310 $65 $-1 $311 forward single #
loop $-1 $312 $313 $123 #
cone-surface $-1 16.319670494947204 23.151741782167306 5.0534341193421284 0 -0.73135370988377701 -0.68199835119979291 0.25 0 0 1 I I -0.70710678118654746 0.70710678118654746 0.25 forward I I I I #
loop $-1 $-1 $314 $83 #
coedge $-1 $198 $198 $315 $316 reversed $124 $-1 #
face $-1 $-1 $317 $66 $-1 $318 forward single #
loop $-1 $319 $320 $126 #
cone-surface $-1 20.876242092158833 23.151741782167306 5.0534341193421284 0 -0.73135370988377701 -0.68199835119979291 0.25 0 0 1 I I -0.70710678118654746 0.70710678118654746 0.25 forward I I I I #
loop $-1 $-1 $321 $84 #
coedge $-1 $203 $203 $322 $323 reversed $127 $-1 #
face $-1 $-1 $324 $67 $-1 $325 forward single #
loop $-1 $326 $327 $129 #
cone-surface $-1 25.432813689370462 23.151741782167306 5.0534341193421284 0 -0.73135370988377701 -0.68199835119979291 0.25 0 0 1 I I -0.70710678118654746 0.70710678118654746 0.25 forward I I I I #
loop $-1 $-1 $328 $85 #
coedge $-1 $208 $208 $329 $330 reversed $130 $-1 #
face $-1 $331 $332 $68 $-1 $333 reversed single #
loop $-1 $-1 $334 $132 #
plane-surface $-1 49.259315704843516 -10.559474032237276 43.598531281149704 0 0.73135370988377701 0.68199835119979291 1 0 0 forward_v I I I I #
coedge $-1 $335 $336 $337 $338 reversed $133 $-1 #
face $-1 $-1 $339 $69 $-1 $340 forward single #
loop $-1 $341 $342 $135 #
cone-surface $-1 44.702744107631887 23.151741782167306 5.0534341193421284 0 -0.73135370988377701 -0.68199835119979291 0.25 0 0 1 I I -0.70710678118654746 0.70710678118654746 0.25 forward I I I I #
loop $-1 $-1 $343 $87 #
coedge $-1 $217 $217 $344 $345 reversed $136 $-1 #
face $-1 $-1 $346 $70 $-1 $347 forward single #
loop $-1 $348 $349 $138 #
cone-surface $-1 49.259315704843516 23.151741782167306 5.0534341193421284 0 -0.73135370988377701 -0.68199835119979291 0.25 0 0 1 I I -0.70710678118654746 0.70710678118654746 0.25 forward I I I I #
loop $-1 $-1 $350 $88 #
coedge $-1 $222 $222 $351 $352 reversed $139 $-1 #
face $-1 $-1 $353 $71 $-1 $354 forward single #
loop $-1 $355 $356 $141 #
cone-surface $-1 53.815887302055145 23.151741782167306 5.0534341193421284 0 -0.73135370988377701 -0.68199835119979291 0.25 0 0 1 I I -0.70710678118654746 0.70710678118654746 0.25 forward I I I I #
loop $-1 $-1 $357 $89 #
coedge $-1 $227 $227 $358 $359 reversed $142 $-1 #
face $-1 $360 $361 $54 $-1 $362 reversed single #
loop $-1 $-1 $363 $144 #
plane-surface $-1 0 -29.009806854363717 0 0 1 0 0 0 1 forward_v I I I I #
coedge $-1 $364 $365 $366 $367 forward $145 $-1 #
coedge $-1 $368 $147 $369 $370 forward $91 $-1 #
coedge $-1 $147 $368 $371 $372 forward $91 $-1 #
coedge $-1 $373 $374 $147 $235 reversed $375 $-1 #
edge $-1 $376 -29.009806854363717 $377 29.009806854363717 $234 $378 forward 7 unknown #
face $-1 $379 $380 $55 $-1 $381 reversed single #
loop $-1 $-1 $382 $148 #
plane-surface $-1 0 0 11.168425931184206 0 0 1 1 0 0 forward_v I I I I #
coedge $-1 $383 $384 $385 $386 reversed $149 $-1 #
coedge $-1 $387 $151 $388 $389 reversed $94 $-1 #
coedge $-1 $151 $387 $390 $391 reversed $94 $-1 #
coedge $-1 $384 $383 $151 $243 reversed $149 $-1 #
edge $-1 $392 -11.168425931184206 $393 11.168425931184206 $242 $394 forward 7 unknown #
face $-1 $395 $396 $56 $-1 $397 reversed single #
loop $-1 $-1 $398 $152 #
plane-surface $-1 -28.295619137857823 76.500343058868566 124.78312214256101 -1 0 0 0 0.73135370988377701 0.68199835119979291 forward_v I I I I #
coedge $-1 $399 $400 $401 $402 reversed $153 $-1 #
coedge $-1 $249 $155 $403 $404 reversed $97 $-1 #
coedge $-1 $155 $248 $399 $405 reversed $97 $-1 #
coedge $-1 $401 $406 $155 $251 forward $407 $-1 #
edge $-1 $408 9.2403646750705661 $409 18.568083812532663 $250 $410 forward 7 unknown #
loop $-1 $-1 $257 $156 #
plane-surface $-1 -35.88990513321054 -10.559474032237276 43.598531281149704 0 0.73135370988377701 0.68199835119979291 1 0 0 forward_v I I I I #
loop $-1 $-1 $411 $99 #
coedge $-1 $255 $255 $256 $412 reversed $157 $-1 #
coedge $-1 $256 $256 $255 $412 forward $159 $-1 #
coedge $-1 $257 $257 $160 $258 forward $252 $-1 #
edge $-1 $413 -3.7938169949416112e-015 $413 6.2831853071795969 $257 $414 forward 7 unknown #
loop $-1 $-1 $264 $161 #
plane-surface $-1 -35.88990513321054 -10.559474032237276 43.598531281149704 0 0.73135370988377701 0.68199835119979291 1 0 0 forward_v I I I I #
loop $-1 $-1 $415 $102 #
coedge $-1 $262 $262 $263 $416 reversed $162 $-1 #
coedge $-1 $263 $263 $262 $416 forward $164 $-1 #
coedge $-1 $264 $264 $165 $265 forward $259 $-1 #
edge $-1 $417 -3.7938169949416112e-015 $417 6.2831853071795969 $264 $418 forward 7 unknown #
loop $-1 $-1 $271 $166 #
plane-surface $-1 -35.88990513321054 -10.559474032237276 43.598531281149704 0 0.73135370988377701 0.68199835119979291 1 0 0 forward_v I I I I #
loop $-1 $-1 $419 $105 #
coedge $-1 $269 $269 $270 $420 reversed $167 $-1 #
coedge $-1 $270 $270 $269 $420 forward $169 $-1 #
coedge $-1 $271 $271 $170 $272 forward $266 $-1 #
edge $-1 $421 -3.7938169949416112e-015 $421 6.2831853071795969 $271 $422 forward 7 unknown #
face $-1 $423 $424 $60 $-1 $425 forward single #
loop $-1 $-1 $426 $171 #
plane-surface $-1 0.087454474826866857 76.500343058868566 124.78312214256101 -1 0 0 0 0.73135370988377701 0.68199835119979291 forward_v I I I I #
coedge $-1 $427 $428 $429 $430 reversed $172 $-1 #
coedge $-1 $278 $174 $431 $432 reversed $109 $-1 #
coedge $-1 $174 $277 $427 $433 reversed $109 $-1 #
coedge $-1 $429 $434 $174 $280 forward $424 $-1 #
edge $-1 $435 9.2403646750705661 $436 18.568083812532663 $279 $437 forward 7 unknown #
loop $-1 $-1 $286 $175 #
plane-surface $-1 -7.50683152052585 -10.559474032237276 43.598531281149704 0 0.73135370988377701 0.68199835119979291 1 0 0 forward_v I I I I #
loop $-1 $-1 $438 $111 #
coedge $-1 $284 $284 $285 $439 reversed $176 $-1 #
coedge $-1 $285 $285 $284 $439 forward $178 $-1 #
coedge $-1 $286 $286 $179 $287 forward $281 $-1 #
edge $-1 $440 -3.7938169949416112e-015 $440 6.2831853071795969 $286 $441 forward 7 unknown #
loop $-1 $-1 $293 $180 #
plane-surface $-1 -7.50683152052585 -10.559474032237276 43.598531281149704 0 0.73135370988377701 0.68199835119979291 1 0 0 forward_v I I I I #
loop $-1 $-1 $442 $114 #
coedge $-1 $291 $291 $292 $443 reversed $181 $-1 #
coedge $-1 $292 $292 $291 $443 forward $183 $-1 #
coedge $-1 $293 $293 $184 $294 forward $288 $-1 #
edge $-1 $444 -3.7938169949416112e-015 $444 6.2831853071795969 $293 $445 forward 7 unknown #
loop $-1 $-1 $300 $185 #
plane-surface $-1 -7.50683152052585 -10.559474032237276 43.598531281149704 0 0.73135370988377701 0.68199835119979291 1 0 0 forward_v I I I I #
loop $-1 $-1 $446 $117 #
coedge $-1 $298 $298 $299 $447 reversed $186 $-1 #
coedge $-1 $299 $299 $298 $447 forward $188 $-1 #
coedge $-1 $300 $300 $189 $301 forward $295 $-1 #
edge $-1 $448 -3.7938169949416112e-015 $448 6.2831853071795969 $300 $449 forward 7 unknown #
face $-1 $450 $451 $64 $-1 $452 forward single #
loop $-1 $-1 $453 $190 #
plane-surface $-1 28.47052808751155 76.500343058868566 124.78312214256101 -1 0 0 0 0.73135370988377701 0.68199835119979291 forward_v I I I I #
coedge $-1 $454 $455 $456 $457 reversed $191 $-1 #
coedge $-1 $307 $193 $458 $459 reversed $121 $-1 #
coedge $-1 $193 $306 $454 $460 reversed $121 $-1 #
coedge $-1 $456 $461 $193 $309 forward $451 $-1 #
edge $-1 $462 9.2403646750705661 $463 18.568083812532663 $308 $464 forward 7 unknown #
loop $-1 $-1 $315 $194 #
plane-surface $-1 20.876242092158833 -10.559474032237276 43.598531281149704 0 0.73135370988377701 0.68199835119979291 1 0 0 forward_v I I I I #
loop $-1 $-1 $465 $123 #
coedge $-1 $313 $313 $314 $466 reversed $195 $-1 #
coedge $-1 $314 $314 $313 $466 forward $197 $-1 #
coedge $-1 $315 $315 $198 $316 forward $310 $-1 #
edge $-1 $467 -3.7938169949416112e-015 $467 6.2831853071795969 $315 $468 forward 7 unknown #
loop $-1 $-1 $322 $199 #
plane-surface $-1 20.876242092158833 -10.559474032237276 43.598531281149704 0 0.73135370988377701 0.68199835119979291 1 0 0 forward_v I I I I #
loop $-1 $-1 $469 $126 #
coedge $-1 $320 $320 $321 $470 reversed $200 $-1 #
coedge $-1 $321 $321 $320 $470 forward $202 $-1 #
coedge $-1 $322 $322 $203 $323 forward $317 $-1 #
edge $-1 $471 -3.7938169949416112e-015 $471 6.2831853071795969 $322 $472 forward 7 unknown #
loop $-1 $-1 $329 $204 #
plane-surface $-1 20.876242092158833 -10.559474032237276 43.598531281149704 0 0.73135370988377701 0.68199835119979291 1 0 0 forward_v I I I I #
loop $-1 $-1 $473 $129 #
coedge $-1 $327 $327 $328 $474 reversed $205 $-1 #
coedge $-1 $328 $328 $327 $474 forward $207 $-1 #
coedge $-1 $329 $329 $208 $330 forward $324 $-1 #
edge $-1 $475 -3.7938169949416112e-015 $475 6.2831853071795969 $329 $476 forward 7 unknown #
face $-1 $477 $478 $68 $-1 $479 forward single #
loop $-1 $-1 $480 $209 #
plane-surface $-1 56.853601700196236 76.500343058868566 124.78312214256101 -1 0 0 0 0.73135370988377701 0.68199835119979291 forward_v I I I I #
coedge $-1 $481 $482 $483 $484 reversed $210 $-1 #
coedge $-1 $336 $212 $485 $486 reversed $133 $-1 #
coedge $-1 $212 $335 $481 $487 reversed $133 $-1 #
coedge $-1 $483 $488 $212 $338 forward $478 $-1 #
edge $-1 $489 9.2403646750705661 $490 18.568083812532663 $337 $491 forward 7 unknown #
loop $-1 $-1 $344 $213 #
plane-surface $-1 49.259315704843516 -10.559474032237276 43.598531281149704 0 0.73135370988377701 0.68199835119979291 1 0 0 forward_v I I I I #
loop $-1 $-1 $492 $135 #
coedge $-1 $342 $342 $343 $493 reversed $214 $-1 #
coedge $-1 $343 $343 $342 $493 forward $216 $-1 #
coedge $-1 $344 $344 $217 $345 forward $339 $-1 #
edge $-1 $494 -3.7938169949416112e-015 $494 6.2831853071795969 $344 $495 forward 7 unknown #
loop $-1 $-1 $351 $218 #
plane-surface $-1 49.259315704843516 -10.559474032237276 43.598531281149704 0 0.73135370988377701 0.68199835119979291 1 0 0 forward_v I I I I #
loop $-1 $-1 $496 $138 #
coedge $-1 $349 $349 $350 $497 reversed $219 $-1 #
coedge $-1 $350 $350 $349 $497 forward $221 $-1 #
coedge $-1 $351 $351 $222 $352 forward $346 $-1 #
edge $-1 $498 -3.7938169949416112e-015 $498 6.2831853071795969 $351 $499 forward 7 unknown #
loop $-1 $-1 $358 $223 #
plane-surface $-1 49.259315704843516 -10.559474032237276 43.598531281149704 0 0.73135370988377701 0.68199835119979291 1 0 0 forward_v I I I I #
loop $-1 $-1 $500 $141 #
coedge $-1 $356 $356 $357 $501 reversed $224 $-1 #
coedge $-1 $357 $357 $356 $501 forward $226 $-1 #
coedge $-1 $358 $358 $227 $359 forward $353 $-1 #
edge $-1 $502 -3.7938169949416112e-015 $502 6.2831853071795969 $358 $503 forward 7 unknown #
face $-1 $504 $505 $54 $-1 $506 reversed single #
loop $-1 $-1 $507 $228 #
plane-surface $-1 -59.519638660847804 0 0 1 0 0 0 0 -1 forward_v I I I I #
coedge $-1 $508 $371 $509 $510 forward $229 $-1 #
coedge $-1 $511 $231 $508 $512 forward $145 $-1 #
coedge $-1 $231 $511 $513 $514 forward $145 $-1 #
coedge $-1 $374 $373 $231 $367 reversed $375 $-1 #
edge $-1 $515 -29.009806854363717 $516 29.009806854363717 $366 $517 forward 7 unknown #
coedge $-1 $233 $232 $518 $519 forward $91 $-1 #
coedge $-1 $520 $521 $232 $370 reversed $505 $-1 #
edge $-1 $377 -59.519638660847804 $522 59.519638660847804 $369 $523 forward 7 unknown #
coedge $-1 $363 $524 $233 $372 reversed $229 $-1 #
edge $-1 $525 -59.519638660847804 $376 59.519638660847804 $371 $526 forward 7 unknown #
coedge $-1 $366 $234 $524 $527 forward $375 $-1 #
coedge $-1 $234 $366 $520 $528 reversed $375 $-1 #
loop $-1 $-1 $373 $504 #
vertex $-1 $235 $529 #
vertex $-1 $235 $530 #
straight-curve $-1 59.519638660847804 0 11.168425931184206 0 1 0 I I #
face $-1 $531 $532 $55 $-1 $533 reversed single #
loop $-1 $-1 $534 $236 #
plane-surface $-1 -59.519638660847804 0 0 1 0 0 0 0 -1 forward_v I I I I #
coedge $-1 $390 $535 $384 $536 forward $237 $-1 #
coedge $-1 $242 $239 $537 $538 reversed $149 $-1 #
coedge $-1 $239 $242 $382 $536 reversed $149 $-1 #
coedge $-1 $539 $540 $239 $386 forward $541 $-1 #
edge $-1 $542 -11.168425931184206 $543 11.168425931184206 $385 $544 forward 7 unknown #
coedge $-1 $241 $240 $534 $545 reversed $94 $-1 #
coedge $-1 $537 $546 $240 $389 forward $532 $-1 #
edge $-1 $547 -33.102171973332148 $393 -19.732761401699175 $388 $548 forward 7 unknown #
coedge $-1 $549 $382 $241 $391 forward $237 $-1 #
edge $-1 $392 19.732761401699175 $550 33.102171973332148 $390 $551 forward 7 unknown #
vertex $-1 $391 $552 #
vertex $-1 $389 $553 #
straight-curve $-1 -46.150228089214835 -24.892482974743402 0 0 0 -1 I I #
face $-1 $-1 $407 $56 $-1 $554 forward single #
loop $-1 $-1 $555 $244 #
plane-surface $-1 0 29.009806854363717 0 0 -1 0 0 0 -1 forward_v I I I I #
coedge $-1 $556 $557 $558 $559 reversed $245 $-1 #
coedge $-1 $560 $247 $249 $405 forward $153 $-1 #
coedge $-1 $247 $560 $556 $561 forward $153 $-1 #
coedge $-1 $558 $250 $247 $402 forward $407 $-1 #
edge $-1 $409 -25.539238561957983 $562 -10.350666571252553 $401 $563 forward 7 unknown #
coedge $-1 $564 $565 $248 $404 forward $396 $-1 #
edge $-1 $566 -61.22588952203224 $408 -51.223135140096304 $403 $567 forward 7 unknown #
edge $-1 $409 44.342573110238447 $566 58.019613708727405 $249 $568 forward 7 unknown #
coedge $-1 $250 $558 $564 $569 forward $407 $-1 #
loop $-1 $-1 $558 $395 #
vertex $-1 $404 $570 #
vertex $-1 $251 $571 #
straight-curve $-1 -43.484191128563253 38.250171529434283 11.168425931184203 0 -1 0 I I #
coedge $-1 $411 $411 $-1 $572 reversed $254 $-1 #
edge $-1 $573 0 $573 6.2831853071796004 $255 $574 forward 7 unknown #
vertex $-1 $258 $575 #
ellipse-curve $-1 -40.44647673042217 24.345947285632668 6.1670487402162353 0 0.73135370988377701 0.68199835119979291 0.5 0 0 1 I I #
coedge $-1 $415 $415 $-1 $576 reversed $261 $-1 #
edge $-1 $577 0 $577 6.2831853071796004 $262 $578 forward 7 unknown #
vertex $-1 $265 $579 #
ellipse-curve $-1 -35.88990513321054 24.345947285632668 6.1670487402162353 0 0.73135370988377701 0.68199835119979291 0.5 0 0 1 I I #
coedge $-1 $419 $419 $-1 $580 reversed $268 $-1 #
edge $-1 $581 0 $581 6.2831853071796004 $269 $582 forward 7 unknown #
vertex $-1 $272 $583 #
ellipse-curve $-1 -31.333333535998911 24.345947285632668 6.1670487402162353 0 0.73135370988377701 0.68199835119979291 0.5 0 0 1 I I #
face $-1 $-1 $584 $60 $-1 $585 reversed single #
loop $-1 $-1 $279 $273 #
plane-surface $-1 0 0 11.168425931184206 0 0 1 1 0 0 forward_v I I I I #
coedge $-1 $586 $587 $588 $589 reversed $274 $-1 #
coedge $-1 $590 $276 $278 $433 forward $172 $-1 #
coedge $-1 $276 $590 $586 $591 forward $172 $-1 #
coedge $-1 $588 $279 $276 $430 forward $424 $-1 #
edge $-1 $436 -11.347701755615642 $592 3.8408702350897919 $429 $593 forward 7 unknown #
coedge $-1 $594 $595 $277 $432 forward $584 $-1 #
edge $-1 $596 -61.22588952203224 $435 -51.223135140096304 $431 $597 forward 7 unknown #
edge $-1 $436 44.342573110238447 $596 58.019613708727405 $278 $598 forward 7 unknown #
coedge $-1 $279 $588 $594 $599 forward $424 $-1 #
vertex $-1 $432 $600 #
vertex $-1 $280 $601 #
straight-curve $-1 -15.101117515878567 38.250171529434283 11.168425931184203 0 -1 0 I I #
coedge $-1 $438 $438 $-1 $602 reversed $283 $-1 #
edge $-1 $603 0 $603 6.2831853071796004 $284 $604 forward 7 unknown #
vertex $-1 $287 $605 #
ellipse-curve $-1 -12.063403117737479 24.345947285632668 6.1670487402162353 0 0.73135370988377701 0.68199835119979291 0.5 0 0 1 I I #
coedge $-1 $442 $442 $-1 $606 reversed $290 $-1 #
edge $-1 $607 0 $607 6.2831853071796004 $291 $608 forward 7 unknown #
vertex $-1 $294 $609 #
ellipse-curve $-1 -7.50683152052585 24.345947285632668 6.1670487402162353 0 0.73135370988377701 0.68199835119979291 0.5 0 0 1 I I #
coedge $-1 $446 $446 $-1 $610 reversed $297 $-1 #
edge $-1 $611 0 $611 6.2831853071796004 $298 $612 forward 7 unknown #
vertex $-1 $301 $613 #
ellipse-curve $-1 -2.9502599233142206 24.345947285632668 6.1670487402162353 0 0.73135370988377701 0.68199835119979291 0.5 0 0 1 I I #
face $-1 $-1 $614 $64 $-1 $615 reversed single #
loop $-1 $-1 $308 $302 #
plane-surface $-1 0 0 11.168425931184206 0 0 1 1 0 0 forward_v I I I I #
coedge $-1 $616 $617 $618 $619 reversed $303 $-1 #
coedge $-1 $620 $305 $307 $460 forward $191 $-1 #
coedge $-1 $305 $620 $616 $621 forward $191 $-1 #
coedge $-1 $618 $308 $305 $457 forward $451 $-1 #
edge $-1 $463 2.8438350507266996 $622 18.032407041432133 $456 $623 forward 7 unknown #
coedge $-1 $624 $625 $306 $459 forward $614 $-1 #
edge $-1 $626 -61.22588952203224 $462 -51.223135140096304 $458 $627 forward 7 unknown #
edge $-1 $463 44.342573110238447 $626 58.019613708727405 $307 $628 forward 7 unknown #
coedge $-1 $308 $618 $624 $629 forward $451 $-1 #
vertex $-1 $309 $630 #
vertex $-1 $309 $631 #
straight-curve $-1 13.281956096806116 38.250171529434283 11.168425931184203 0 -1 0 I I #
coedge $-1 $465 $465 $-1 $632 reversed $312 $-1 #
edge $-1 $633 0 $633 6.2831853071796004 $313 $634 forward 7 unknown #
vertex $-1 $316 $635 #
ellipse-curve $-1 16.319670494947204 24.345947285632668 6.1670487402162353 0 0.73135370988377701 0.68199835119979291 0.5 0 0 1 I I #
coedge $-1 $469 $469 $-1 $636 reversed $319 $-1 #
edge $-1 $637 0 $637 6.2831853071796004 $320 $638 forward 7 unknown #
vertex $-1 $323 $639 #
ellipse-curve $-1 20.876242092158833 24.345947285632668 6.1670487402162353 0 0.73135370988377701 0.68199835119979291 0.5 0 0 1 I I #
coedge $-1 $473 $473 $-1 $640 reversed $326 $-1 #
edge $-1 $641 0 $641 6.2831853071796004 $327 $642 forward 7 unknown #
vertex $-1 $330 $643 #
ellipse-curve $-1 25.432813689370462 24.345947285632668 6.1670487402162353 0 0.73135370988377701 0.68199835119979291 0.5 0 0 1 I I #
face $-1 $-1 $644 $68 $-1 $645 reversed single #
loop $-1 $-1 $337 $331 #
plane-surface $-1 0 0 11.168425931184206 0 0 1 1 0 0 forward_v I I I I #
coedge $-1 $646 $647 $648 $649 reversed $332 $-1 #
coedge $-1 $650 $334 $336 $487 forward $210 $-1 #
coedge $-1 $334 $650 $646 $651 forward $210 $-1 #
coedge $-1 $648 $337 $334 $484 forward $478 $-1 #
edge $-1 $490 17.035371857069038 $652 32.223943847774478 $483 $653 forward 7 unknown #
coedge $-1 $654 $655 $335 $486 forward $644 $-1 #
edge $-1 $656 -61.22588952203224 $489 -51.223135140096304 $485 $657 forward 7 unknown #
edge $-1 $490 44.342573110238447 $656 58.019613708727405 $336 $658 forward 7 unknown #
coedge $-1 $337 $648 $654 $659 forward $478 $-1 #
vertex $-1 $338 $660 #
vertex $-1 $338 $661 #
straight-curve $-1 41.665029709490796 38.250171529434283 11.168425931184203 0 -1 0 I I #
coedge $-1 $492 $492 $-1 $662 reversed $341 $-1 #
edge $-1 $663 0 $663 6.2831853071796004 $342 $664 forward 7 unknown #
vertex $-1 $345 $665 #
ellipse-curve $-1 44.702744107631887 24.345947285632668 6.1670487402162353 0 0.73135370988377701 0.68199835119979291 0.5 0 0 1 I I #
coedge $-1 $496 $496 $-1 $666 reversed $348 $-1 #
edge $-1 $667 0 $667 6.2831853071796004 $349 $668 forward 7 unknown #
vertex $-1 $352 $669 #
ellipse-curve $-1 49.259315704843516 24.345947285632668 6.1670487402162353 0 0.73135370988377701 0.68199835119979291 0.5 0 0 1 I I #
coedge $-1 $500 $500 $-1 $670 reversed $355 $-1 #
edge $-1 $671 0 $671 6.2831853071796004 $356 $672 forward 7 unknown #
vertex $-1 $359 $673 #
ellipse-curve $-1 53.815887302055145 24.345947285632668 6.1670487402162353 0 0.73135370988377701 0.68199835119979291 0.5 0 0 1 I I #
face $-1 $-1 $375 $54 $-1 $674 reversed single #
loop $-1 $-1 $520 $360 #
plane-surface $-1 0 29.009806854363717 0 0 -1 0 0 0 -1 forward_v I I I I #
coedge $-1 $675 $518 $521 $676 forward $361 $-1 #
coedge $-1 $524 $363 $364 $512 reversed $229 $-1 #
coedge $-1 $518 $675 $363 $510 reversed $361 $-1 #
edge $-1 $525 -11.168425931184206 $677 11.168425931184206 $509 $678 forward 7 unknown #
coedge $-1 $365 $364 $675 $679 forward $145 $-1 #
edge $-1 $516 -59.519638660847804 $677 59.519638660847804 $508 $680 forward 7 unknown #
coedge $-1 $521 $520 $365 $514 reversed $505 $-1 #
edge $-1 $681 -59.519638660847804 $515 59.519638660847804 $513 $682 forward 7 unknown #
vertex $-1 $367 $683 #
vertex $-1 $527 $684 #
straight-curve $-1 59.519638660847804 0 -11.168425931184206 0 -1 0 I I #
coedge $-1 $507 $509 $368 $519 reversed $361 $-1 #
edge $-1 $522 -29.009806854363717 $525 29.009806854363717 $518 $685 forward 7 unknown #
coedge $-1 $513 $369 $374 $528 forward $505 $-1 #
coedge $-1 $369 $513 $507 $676 reversed $505 $-1 #
vertex $-1 $370 $686 #
straight-curve $-1 0 29.009806854363717 11.168425931184206 -1 0 0 I I #
coedge $-1 $371 $508 $373 $527 reversed $229 $-1 #
vertex $-1 $519 $687 #
straight-curve $-1 0 -29.009806854363717 11.168425931184206 1 0 0 I I #
edge $-1 $376 -11.168425931184206 $516 11.168425931184206 $373 $688 forward 7 unknown #
edge $-1 $377 -11.168425931184206 $515 11.168425931184206 $374 $689 forward 7 unknown #
point $-1 59.519638660847804 -29.009806854363717 11.168425931184206 #
point $-1 59.519638660847804 29.009806854363717 11.168425931184206 #
face $-1 $-1 $541 $55 $-1 $690 reversed single #
loop $-1 $-1 $537 $379 #
plane-surface $-1 0 0 -11.168425931184206 0 0 1 1 0 0 forward_v I I I I #
coedge $-1 $691 $692 $387 $545 forward $380 $-1 #
coedge $-1 $382 $549 $539 $693 forward $237 $-1 #
edge $-1 $543 -15.534234397086937 $392 -11.416910517466622 $382 $694 forward 7 unknown #
coedge $-1 $695 $388 $383 $538 forward $532 $-1 #
edge $-1 $393 11.416910517466622 $542 15.534234397086937 $537 $696 forward 7 unknown #
coedge $-1 $697 $385 $535 $693 reversed $541 $-1 #
coedge $-1 $385 $697 $695 $698 reversed $541 $-1 #
loop $-1 $-1 $385 $531 #
vertex $-1 $698 $699 #
vertex $-1 $386 $700 #
straight-curve $-1 -46.150228089214835 -29.009806854363717 0 0 0 1 I I #
edge $-1 $550 -11.168425931184206 $547 11.168425931184206 $534 $701 forward 7 unknown #
coedge $-1 $388 $695 $691 $702 forward $532 $-1 #
vertex $-1 $389 $703 #
straight-curve $-1 -26.41746668751566 -24.892482974743402 -11.168425931184206 1 0 0 I I #
coedge $-1 $535 $390 $692 $704 forward $237 $-1 #
vertex $-1 $704 $705 #
straight-curve $-1 -26.41746668751566 -24.892482974743402 11.168425931184206 -1 0 0 I I #
point $-1 -46.150228089214835 -24.892482974743402 11.168425931184206 #
point $-1 -46.150228089214835 -24.892482974743402 -11.168425931184206 #
plane-surface $-1 0 0 11.168425931184206 0 0 1 1 0 0 forward_v I I I I #
coedge $-1 $565 $564 $557 $706 forward $396 $-1 #
coedge $-1 $557 $398 $400 $561 reversed $245 $-1 #
coedge $-1 $398 $556 $555 $706 reversed $245 $-1 #
coedge $-1 $406 $401 $398 $559 forward $407 $-1 #
edge $-1 $562 -18.568083812532663 $707 -9.2403646750705661 $558 $708 forward 7 unknown #
coedge $-1 $400 $399 $565 $709 reversed $153 $-1 #
edge $-1 $710 -58.019613708727405 $562 -44.342573110238447 $556 $711 forward 7 unknown #
vertex $-1 $402 $712 #
straight-curve $-1 -17.94495256660527 19.682087716901613 11.168425931184206 1 0 0 I I #
coedge $-1 $555 $403 $406 $569 reversed $396 $-1 #
coedge $-1 $403 $555 $560 $709 forward $396 $-1 #
vertex $-1 $404 $713 #
straight-curve $-1 -43.484191128563253 29.009806854363717 62.391561071280506 0 0 1 I I #
straight-curve $-1 -43.484191128563253 -10.559474032237276 43.598531281149704 0 0.68199835119979291 -0.73135370988377701 I I #
edge $-1 $707 28.295619137857823 $408 43.484191128563253 $564 $714 forward 7 unknown #
point $-1 -43.484191128563253 29.009806854363717 11.168425931184206 #
point $-1 -43.484191128563253 19.68208771690162 11.168425931184203 #
edge $-1 $715 1 $715 0 $411 $-1 forward 7 unknown #
vertex $-1 $412 $716 #
ellipse-curve $-1 -40.44647673042217 23.334580209638251 5.2239337071420771 0 0.73135370988377701 0.68199835119979291 0.5 0 0 1 I I #
point $-1 -39.94647673042217 24.345947285632654 6.1670487402162246 #
edge $-1 $717 1 $717 0 $415 $-1 forward 7 unknown #
vertex $-1 $416 $718 #
ellipse-curve $-1 -35.88990513321054 23.334580209638251 5.2239337071420771 0 0.73135370988377701 0.68199835119979291 0.5 0 0 1 I I #
point $-1 -35.38990513321054 24.345947285632654 6.1670487402162246 #
edge $-1 $719 1 $719 0 $419 $-1 forward 7 unknown #
vertex $-1 $420 $720 #
ellipse-curve $-1 -31.333333535998911 23.334580209638251 5.2239337071420771 0 0.73135370988377701 0.68199835119979291 0.5 0 0 1 I I #
point $-1 -30.833333535998911 24.345947285632654 6.1670487402162246 #
loop $-1 $-1 $431 $423 #
plane-surface $-1 0 29.009806854363717 0 0 -1 0 0 0 -1 forward_v I I I I #
coedge $-1 $587 $426 $428 $591 reversed $274 $-1 #
coedge $-1 $426 $586 $721 $722 reversed $274 $-1 #
coedge $-1 $434 $429 $426 $589 forward $424 $-1 #
edge $-1 $592 -18.568083812532663 $723 -9.2403646750705661 $588 $724 forward 7 unknown #
coedge $-1 $428 $427 $595 $725 reversed $172 $-1 #
edge $-1 $726 -58.019613708727405 $592 -44.342573110238447 $586 $727 forward 7 unknown #
vertex $-1 $430 $728 #
straight-curve $-1 -3.753415760262925 19.682087716901613 11.168425931184206 1 0 0 I I #
coedge $-1 $721 $431 $434 $599 reversed $584 $-1 #
coedge $-1 $431 $721 $590 $725 forward $584 $-1 #
vertex $-1 $432 $729 #
straight-curve $-1 -15.101117515878567 29.009806854363717 62.391561071280506 0 0 1 I I #
straight-curve $-1 -15.101117515878567 -10.559474032237276 43.598531281149704 0 0.68199835119979291 -0.73135370988377701 I I #
edge $-1 $723 -0.087454474826866857 $435 15.101117515878567 $594 $730 forward 7 unknown #
point $-1 -15.101117515878567 29.009806854363717 11.168425931184206 #
point $-1 -15.101117515878567 19.68208771690162 11.168425931184203 #
edge $-1 $731 1 $731 0 $438 $-1 forward 7 unknown #
vertex $-1 $439 $732 #
ellipse-curve $-1 -12.063403117737479 23.334580209638251 5.2239337071420771 0 0.73135370988377701 0.68199835119979291 0.5 0 0 1 I I #
point $-1 -11.563403117737479 24.345947285632654 6.1670487402162246 #
edge $-1 $733 1 $733 0 $442 $-1 forward 7 unknown #
vertex $-1 $443 $734 #
ellipse-curve $-1 -7.50683152052585 23.334580209638251 5.2239337071420771 0 0.73135370988377701 0.68199835119979291 0.5 0 0 1 I I #
point $-1 -7.00683152052585 24.345947285632654 6.1670487402162246 #
edge $-1 $735 1 $735 0 $446 $-1 forward 7 unknown #
vertex $-1 $447 $736 #
ellipse-curve $-1 -2.9502599233142206 23.334580209638251 5.2239337071420771 0 0.73135370988377701 0.68199835119979291 0.5 0 0 1 I I #
point $-1 -2.4502599233142206 24.345947285632654 6.1670487402162246 #
loop $-1 $-1 $458 $450 #
plane-surface $-1 0 29.009806854363717 0 0 -1 0 0 0 -1 forward_v I I I I #
coedge $-1 $617 $453 $455 $621 reversed $303 $-1 #
coedge $-1 $453 $616 $737 $738 reversed $303 $-1 #
coedge $-1 $461 $456 $453 $619 forward $451 $-1 #
edge $-1 $622 -18.568083812532663 $739 -9.2403646750705661 $618 $740 forward 7 unknown #
coedge $-1 $455 $454 $625 $741 reversed $191 $-1 #
edge $-1 $742 -58.019613708727405 $622 -44.342573110238447 $616 $743 forward 7 unknown #
vertex $-1 $457 $744 #
straight-curve $-1 10.438121046079416 19.682087716901613 11.168425931184206 1 0 0 I I #
coedge $-1 $737 $458 $461 $629 reversed $614 $-1 #
coedge $-1 $458 $737 $620 $741 forward $614 $-1 #
vertex $-1 $459 $745 #
straight-curve $-1 13.281956096806116 29.009806854363717 62.391561071280506 0 0 1 I I #
straight-curve $-1 13.281956096806116 -10.559474032237276 43.598531281149704 0 0.68199835119979291 -0.73135370988377701 I I #
edge $-1 $739 -28.47052808751155 $462 -13.281956096806116 $624 $746 forward 7 unknown #
point $-1 13.281956096806116 29.009806854363717 11.168425931184206 #
point $-1 13.281956096806116 19.68208771690162 11.168425931184203 #
edge $-1 $747 1 $747 0 $465 $-1 forward 7 unknown #
vertex $-1 $466 $748 #
ellipse-curve $-1 16.319670494947204 23.334580209638251 5.2239337071420771 0 0.73135370988377701 0.68199835119979291 0.5 0 0 1 I I #
point $-1 16.819670494947204 24.345947285632654 6.1670487402162246 #
edge $-1 $749 1 $749 0 $469 $-1 forward 7 unknown #
vertex $-1 $470 $750 #
ellipse-curve $-1 20.876242092158833 23.334580209638251 5.2239337071420771 0 0.73135370988377701 0.68199835119979291 0.5 0 0 1 I I #
point $-1 21.376242092158833 24.345947285632654 6.1670487402162246 #
edge $-1 $751 1 $751 0 $473 $-1 forward 7 unknown #
vertex $-1 $474 $752 #
ellipse-curve $-1 25.432813689370462 23.334580209638251 5.2239337071420771 0 0.73135370988377701 0.68199835119979291 0.5 0 0 1 I I #
point $-1 25.932813689370462 24.345947285632654 6.1670487402162246 #
loop $-1 $-1 $485 $477 #
plane-surface $-1 0 29.009806854363717 0 0 -1 0 0 0 -1 forward_v I I I I #
coedge $-1 $647 $480 $482 $651 reversed $332 $-1 #
coedge $-1 $480 $646 $753 $754 reversed $332 $-1 #
coedge $-1 $488 $483 $480 $649 forward $478 $-1 #
edge $-1 $652 -18.568083812532663 $755 -9.2403646750705661 $648 $756 forward 7 unknown #
coedge $-1 $482 $481 $655 $757 reversed $210 $-1 #
edge $-1 $758 -58.019613708727405 $652 -44.342573110238447 $646 $759 forward 7 unknown #
vertex $-1 $484 $760 #
straight-curve $-1 24.629657852421758 19.682087716901613 11.168425931184206 1 0 0 I I #
coedge $-1 $753 $485 $488 $659 reversed $644 $-1 #
coedge $-1 $485 $753 $650 $757 forward $644 $-1 #
vertex $-1 $486 $761 #
straight-curve $-1 41.665029709490796 29.009806854363717 62.391561071280506 0 0 1 I I #
straight-curve $-1 41.665029709490796 -10.559474032237276 43.598531281149704 0 0.68199835119979291 -0.73135370988377701 I I #
edge $-1 $755 -56.853601700196236 $489 -41.665029709490796 $654 $762 forward 7 unknown #
point $-1 41.665029709490796 29.009806854363717 11.168425931184206 #
point $-1 41.665029709490796 19.68208771690162 11.168425931184203 #
edge $-1 $763 1 $763 0 $492 $-1 forward 7 unknown #
vertex $-1 $493 $764 #
ellipse-curve $-1 44.702744107631887 23.334580209638251 5.2239337071420771 0 0.73135370988377701 0.68199835119979291 0.5 0 0 1 I I #
point $-1 45.202744107631887 24.345947285632654 6.1670487402162246 #
edge $-1 $765 1 $765 0 $496 $-1 forward 7 unknown #
vertex $-1 $497 $766 #
ellipse-curve $-1 49.259315704843516 23.334580209638251 5.2239337071420771 0 0.73135370988377701 0.68199835119979291 0.5 0 0 1 I I #
point $-1 49.759315704843516 24.345947285632654 6.1670487402162246 #
edge $-1 $767 1 $767 0 $500 $-1 forward 7 unknown #
vertex $-1 $501 $768 #
ellipse-curve $-1 53.815887302055145 23.334580209638251 5.2239337071420771 0 0.73135370988377701 0.68199835119979291 0.5 0 0 1 I I #
point $-1 54.315887302055145 24.345947285632654 6.1670487402162246 #
plane-surface $-1 59.519638660847804 0 0 -1 0 0 0 0 1 forward_v I I I I #
coedge $-1 $509 $507 $511 $679 reversed $361 $-1 #
edge $-1 $522 -11.168425931184206 $681 11.168425931184206 $521 $769 forward 7 unknown #
vertex $-1 $679 $770 #
straight-curve $-1 -59.519638660847804 -29.009806854363717 0 0 0 -1 I I #
edge $-1 $677 -29.009806854363717 $681 29.009806854363717 $675 $771 forward 7 unknown #
straight-curve $-1 0 -29.009806854363717 -11.168425931184206 -1 0 0 I I #
vertex $-1 $514 $772 #
straight-curve $-1 0 29.009806854363717 -11.168425931184206 1 0 0 I I #
point $-1 59.519638660847804 29.009806854363717 -11.168425931184206 #
point $-1 59.519638660847804 -29.009806854363717 -11.168425931184206 #
straight-curve $-1 -59.519638660847804 0 11.168425931184206 0 -1 0 I I #
point $-1 -59.519638660847804 29.009806854363717 11.168425931184206 #
point $-1 -59.519638660847804 -29.009806854363717 11.168425931184206 #
straight-curve $-1 59.519638660847804 -29.009806854363717 0 0 0 -1 I I #
straight-curve $-1 59.519638660847804 29.009806854363717 0 0 0 -1 I I #
plane-surface $-1 0 -29.009806854363717 0 0 1 0 0 0 1 forward_v I I I I #
coedge $-1 $773 $534 $546 $702 reversed $380 $-1 #
coedge $-1 $534 $773 $549 $704 reversed $380 $-1 #
edge $-1 $774 -59.519638660847804 $543 -46.150228089214835 $539 $775 forward 7 unknown #
straight-curve $-1 -46.150228089214835 -13.47557245727678 11.168425931184206 0 1 0 I I #
coedge $-1 $546 $537 $540 $698 forward $532 $-1 #
straight-curve $-1 -46.150228089214835 -13.47557245727678 -11.168425931184206 0 -1 0 I I #
coedge $-1 $540 $539 $773 $776 forward $541 $-1 #
edge $-1 $542 46.150228089214835 $777 59.519638660847804 $540 $778 forward 7 unknown #
point $-1 -46.150228089214835 -29.009806854363717 -11.168425931184206 #
point $-1 -46.150228089214835 -29.009806854363717 11.168425931184206 #
straight-curve $-1 -59.519638660847804 -24.892482974743402 0 0 0 -1 I I #
edge $-1 $777 -29.009806854363717 $547 -24.892482974743402 $691 $779 forward 7 unknown #
point $-1 -59.519638660847804 -24.892482974743402 -11.168425931184206 #
edge $-1 $550 24.892482974743402 $774 29.009806854363717 $692 $780 forward 7 unknown #
point $-1 -59.519638660847804 -24.892482974743402 11.168425931184206 #
edge $-1 $707 51.223135140096304 $710 61.22588952203224 $555 $781 forward 7 unknown #
vertex $-1 $569 $782 #
straight-curve $-1 -28.295619137857823 38.250171529434283 11.168425931184203 0 1 0 I I #
edge $-1 $710 10.350666571252553 $566 25.539238561957983 $565 $783 forward 7 unknown #
vertex $-1 $709 $784 #
straight-curve $-1 -28.295619137857823 -10.559474032237276 43.598531281149704 0 -0.68199835119979291 0.73135370988377701 I I #
point $-1 -28.295619137857823 19.68208771690162 11.168425931184203 #
point $-1 -43.484191128563253 29.009806854363717 1.1656715492482661 #
straight-curve $-1 0 29.009806854363717 11.168425931184206 -1 0 0 I I #
vertex $-1 $572 $785 #
point $-1 -39.94647673042217 23.334580209638251 5.2239337071420771 #
vertex $-1 $576 $786 #
point $-1 -35.38990513321054 23.334580209638251 5.2239337071420771 #
vertex $-1 $580 $787 #
point $-1 -30.833333535998911 23.334580209638251 5.2239337071420771 #
coedge $-1 $595 $594 $587 $722 forward $584 $-1 #
edge $-1 $723 51.223135140096304 $726 61.22588952203224 $721 $788 forward 7 unknown #
vertex $-1 $599 $789 #
straight-curve $-1 0.087454474826866857 38.250171529434283 11.168425931184203 0 1 0 I I #
edge $-1 $726 -3.8408702350897919 $596 11.347701755615642 $595 $790 forward 7 unknown #
vertex $-1 $725 $791 #
straight-curve $-1 0.087454474826866857 -10.559474032237276 43.598531281149704 0 -0.68199835119979291 0.73135370988377701 I I #
point $-1 0.087454474826866857 19.68208771690162 11.168425931184203 #
point $-1 -15.101117515878567 29.009806854363717 1.1656715492482661 #
straight-curve $-1 0 29.009806854363717 11.168425931184206 -1 0 0 I I #
vertex $-1 $602 $792 #
point $-1 -11.563403117737479 23.334580209638251 5.2239337071420771 #
vertex $-1 $606 $793 #
point $-1 -7.00683152052585 23.334580209638251 5.2239337071420771 #
vertex $-1 $610 $794 #
point $-1 -2.4502599233142206 23.334580209638251 5.2239337071420771 #
coedge $-1 $625 $624 $617 $738 forward $614 $-1 #
edge $-1 $739 51.223135140096304 $742 61.22588952203224 $737 $795 forward 7 unknown #
vertex $-1 $629 $796 #
straight-curve $-1 28.47052808751155 38.250171529434283 11.168425931184203 0 1 0 I I #
edge $-1 $742 -18.032407041432133 $626 -2.8438350507266996 $625 $797 forward 7 unknown #
vertex $-1 $741 $798 #
straight-curve $-1 28.47052808751155 -10.559474032237276 43.598531281149704 0 -0.68199835119979291 0.73135370988377701 I I #
point $-1 28.47052808751155 19.68208771690162 11.168425931184203 #
point $-1 13.281956096806116 29.009806854363717 1.1656715492482661 #
straight-curve $-1 0 29.009806854363717 11.168425931184206 -1 0 0 I I #
vertex $-1 $632 $799 #
point $-1 16.819670494947204 23.334580209638251 5.2239337071420771 #
vertex $-1 $636 $800 #
point $-1 21.376242092158833 23.334580209638251 5.2239337071420771 #
vertex $-1 $640 $801 #
point $-1 25.932813689370462 23.334580209638251 5.2239337071420771 #
coedge $-1 $655 $654 $647 $754 forward $644 $-1 #
edge $-1 $755 51.223135140096304 $758 61.22588952203224 $753 $802 forward 7 unknown #
vertex $-1 $659 $803 #
straight-curve $-1 56.853601700196236 38.250171529434283 11.168425931184203 0 1 0 I I #
edge $-1 $758 -32.223943847774478 $656 -17.035371857069038 $655 $804 forward 7 unknown #
vertex $-1 $757 $805 #
straight-curve $-1 56.853601700196236 -10.559474032237276 43.598531281149704 0 -0.68199835119979291 0.73135370988377701 I I #
point $-1 56.853601700196236 19.68208771690162 11.168425931184203 #
point $-1 41.665029709490796 29.009806854363717 1.1656715492482661 #
straight-curve $-1 0 29.009806854363717 11.168425931184206 -1 0 0 I I #
vertex $-1 $662 $806 #
point $-1 45.202744107631887 23.334580209638251 5.2239337071420771 #
vertex $-1 $666 $807 #
point $-1 49.759315704843516 23.334580209638251 5.2239337071420771 #
vertex $-1 $670 $808 #
point $-1 54.315887302055145 23.334580209638251 5.2239337071420771 #
straight-curve $-1 -59.519638660847804 29.009806854363717 0 0 0 -1 I I #
point $-1 -59.519638660847804 -29.009806854363717 -11.168425931184206 #
straight-curve $-1 -59.519638660847804 0 -11.168425931184206 0 1 0 I I #
point $-1 -59.519638660847804 29.009806854363717 -11.168425931184206 #
coedge $-1 $692 $691 $697 $776 reversed $380 $-1 #
vertex $-1 $704 $809 #
straight-curve $-1 0 -29.009806854363717 11.168425931184206 1 0 0 I I #
edge $-1 $774 -11.168425931184206 $777 11.168425931184206 $773 $810 forward 7 unknown #
vertex $-1 $702 $811 #
straight-curve $-1 0 -29.009806854363717 -11.168425931184206 -1 0 0 I I #
straight-curve $-1 -59.519638660847804 0 -11.168425931184206 0 1 0 I I #
straight-curve $-1 -59.519638660847804 0 11.168425931184206 0 -1 0 I I #
straight-curve $-1 -28.295619137857823 29.009806854363717 62.391561071280506 0 0 -1 I I #
point $-1 -28.295619137857823 29.009806854363717 11.168425931184206 #
straight-curve $-1 -17.94495256660527 29.009806854363717 1.1656715492482697 -1 0 0 I I #
point $-1 -28.295619137857823 29.009806854363717 1.1656715492482661 #
point $-1 -40.44647673042217 22.968903354696362 4.8829345315421797 #
point $-1 -35.88990513321054 22.968903354696362 4.8829345315421797 #
point $-1 -31.333333535998911 22.968903354696362 4.8829345315421797 #
straight-curve $-1 0.087454474826866857 29.009806854363717 62.391561071280506 0 0 -1 I I #
point $-1 0.087454474826866857 29.009806854363717 11.168425931184206 #
straight-curve $-1 -3.753415760262925 29.009806854363717 1.1656715492482697 -1 0 0 I I #
point $-1 0.087454474826866857 29.009806854363717 1.1656715492482661 #
point $-1 -12.063403117737479 22.968903354696362 4.8829345315421797 #
point $-1 -7.50683152052585 22.968903354696362 4.8829345315421797 #
point $-1 -2.9502599233142206 22.968903354696362 4.8829345315421797 #
straight-curve $-1 28.47052808751155 29.009806854363717 62.391561071280506 0 0 -1 I I #
point $-1 28.47052808751155 29.009806854363717 11.168425931184206 #
straight-curve $-1 10.438121046079416 29.009806854363717 1.1656715492482697 -1 0 0 I I #
point $-1 28.47052808751155 29.009806854363717 1.1656715492482661 #
point $-1 16.319670494947204 22.968903354696362 4.8829345315421797 #
point $-1 20.876242092158833 22.968903354696362 4.8829345315421797 #
point $-1 25.432813689370462 22.968903354696362 4.8829345315421797 #
straight-curve $-1 56.853601700196236 29.009806854363717 62.391561071280506 0 0 -1 I I #
point $-1 56.853601700196236 29.009806854363717 11.168425931184206 #
straight-curve $-1 24.629657852421758 29.009806854363717 1.1656715492482697 -1 0 0 I I #
point $-1 56.853601700196236 29.009806854363717 1.1656715492482661 #
point $-1 44.702744107631887 22.968903354696362 4.8829345315421797 #
point $-1 49.259315704843516 22.968903354696362 4.8829345315421797 #
point $-1 53.815887302055145 22.968903354696362 4.8829345315421797 #
point $-1 -59.519638660847804 -29.009806854363717 11.168425931184206 #
straight-curve $-1 -59.519638660847804 -29.009806854363717 0 0 0 -1 I I #
point $-1 -59.519638660847804 -29.009806854363717 -11.168425931184206 #
End-of-ACIS-data 