500 0 20 0           
7 Unknown 11 ACIS 5.0 NT 24 Fri Mar 26 17:24:47 1999 
-1 9.9999999999999995e-007 1e-010 
body $-1 $20 $-1 $21 #
body $-1 $22 $-1 $23 #
body $-1 $24 $-1 $25 #
body $-1 $26 $-1 $27 #
body $-1 $28 $-1 $29 #
body $-1 $30 $-1 $31 #
body $-1 $32 $-1 $33 #
body $-1 $34 $-1 $35 #
body $-1 $36 $-1 $37 #
body $-1 $38 $-1 $39 #
body $-1 $40 $-1 $41 #
body $-1 $42 $-1 $43 #
body $-1 $44 $-1 $45 #
body $-1 $46 $-1 $47 #
body $-1 $48 $-1 $49 #
body $-1 $50 $-1 $51 #
body $-1 $52 $-1 $53 #
body $-1 $54 $-1 $55 #
body $-1 $56 $-1 $57 #
body $-1 $58 $-1 $59 #
lump $-1 $-1 $60 $0 #
transform $-1 1 0 0 0 1 0 0 0 1 71.662343211157577 39.235499235282084 17.986519397961953 1 rotate no_reflect no_shear #
lump $-1 $-1 $61 $1 #
transform $-1 1 0 0 0 1 0 0 0 1 71.662343211157577 39.235499235282084 17.986519397961953 1 rotate no_reflect no_shear #
lump $-1 $-1 $62 $2 #
transform $-1 1 0 0 0 1 0 0 0 1 71.662343211157577 39.235499235282084 17.986519397961953 1 rotate no_reflect no_shear #
lump $-1 $-1 $63 $3 #
transform $-1 1 0 0 0 1 0 0 0 1 71.662343211157577 39.235499235282084 17.986519397961953 1 rotate no_reflect no_shear #
lump $-1 $-1 $64 $4 #
transform $-1 1 0 0 0 1 0 0 0 1 71.662343211157577 39.235499235282084 17.986519397961953 1 rotate no_reflect no_shear #
lump $-1 $-1 $65 $5 #
transform $-1 1 0 0 0 1 0 0 0 1 71.662343211157577 39.235499235282084 17.986519397961953 1 rotate no_reflect no_shear #
lump $-1 $-1 $66 $6 #
transform $-1 1 0 0 0 1 0 0 0 1 71.662343211157577 39.235499235282084 17.986519397961953 1 rotate no_reflect no_shear #
lump $-1 $-1 $67 $7 #
transform $-1 1 0 0 0 1 0 0 0 1 71.662343211157577 39.235499235282084 17.986519397961953 1 rotate no_reflect no_shear #
lump $-1 $-1 $68 $8 #
transform $-1 1 0 0 0 1 0 0 0 1 71.662343211157577 39.235499235282084 17.986519397961953 1 rotate no_reflect no_shear #
lump $-1 $-1 $69 $9 #
transform $-1 1 0 0 0 1 0 0 0 1 71.662343211157577 39.235499235282084 17.986519397961953 1 rotate no_reflect no_shear #
lump $-1 $-1 $70 $10 #
transform $-1 1 0 0 0 1 0 0 0 1 71.662343211157577 39.235499235282084 17.986519397961953 1 rotate no_reflect no_shear #
lump $-1 $-1 $71 $11 #
transform $-1 1 0 0 0 1 0 0 0 1 71.662343211157577 39.235499235282084 17.986519397961953 1 rotate no_reflect no_shear #
lump $-1 $-1 $72 $12 #
transform $-1 1 0 0 0 1 0 0 0 1 71.662343211157577 39.235499235282084 17.986519397961953 1 rotate no_reflect no_shear #
lump $-1 $-1 $73 $13 #
transform $-1 1 0 0 0 1 0 0 0 1 71.662343211157577 39.235499235282084 17.986519397961953 1 rotate no_reflect no_shear #
lump $-1 $-1 $74 $14 #
transform $-1 1 0 0 0 1 0 0 0 1 71.662343211157577 39.235499235282084 17.986519397961953 1 rotate no_reflect no_shear #
lump $-1 $-1 $75 $15 #
transform $-1 1 0 0 0 1 0 0 0 1 71.662343211157577 39.235499235282084 17.986519397961953 1 rotate no_reflect no_shear #
lump $-1 $-1 $76 $16 #
transform $-1 1 0 0 0 1 0 0 0 1 71.662343211157577 39.235499235282084 17.986519397961953 1 rotate no_reflect no_shear #
lump $-1 $-1 $77 $17 #
transform $-1 1 0 0 0 1 0 0 0 1 71.662343211157577 39.235499235282084 17.986519397961953 1 rotate no_reflect no_shear #
lump $-1 $-1 $78 $18 #
transform $-1 1 0 0 0 1 0 0 0 1 71.662343211157577 39.235499235282084 17.986519397961953 1 rotate no_reflect no_shear #
lump $-1 $-1 $79 $19 #
transform $-1 1 0 0 0 1 0 0 0 1 71.662343211157577 39.235499235282084 17.986519397961953 1 rotate no_reflect no_shear #
shell $-1 $-1 $-1 $80 $-1 $20 #
shell $-1 $-1 $-1 $81 $-1 $22 #
shell $-1 $-1 $-1 $82 $-1 $24 #
shell $-1 $-1 $-1 $83 $-1 $26 #
shell $-1 $-1 $-1 $84 $-1 $28 #
shell $-1 $-1 $-1 $85 $-1 $30 #
shell $-1 $-1 $-1 $86 $-1 $32 #
shell $-1 $-1 $-1 $87 $-1 $34 #
shell $-1 $-1 $-1 $88 $-1 $36 #
shell $-1 $-1 $-1 $89 $-1 $38 #
shell $-1 $-1 $-1 $90 $-1 $40 #
shell $-1 $-1 $-1 $91 $-1 $42 #
shell $-1 $-1 $-1 $92 $-1 $44 #
shell $-1 $-1 $-1 $93 $-1 $46 #
shell $-1 $-1 $-1 $94 $-1 $48 #
shell $-1 $-1 $-1 $95 $-1 $50 #
shell $-1 $-1 $-1 $96 $-1 $52 #
shell $-1 $-1 $-1 $97 $-1 $54 #
shell $-1 $-1 $-1 $98 $-1 $56 #
shell $-1 $-1 $-1 $99 $-1 $58 #
face $-1 $100 $101 $60 $-1 $102 forward single #
face $-1 $103 $104 $61 $-1 $105 reversed single #
face $-1 $106 $107 $62 $-1 $108 forward single #
face $-1 $109 $110 $63 $-1 $111 forward single #
face $-1 $112 $113 $64 $-1 $114 forward single #
face $-1 $115 $116 $65 $-1 $117 reversed single #
face $-1 $118 $119 $66 $-1 $120 forward single #
face $-1 $121 $122 $67 $-1 $123 forward single #
face $-1 $124 $125 $68 $-1 $126 forward single #
face $-1 $127 $128 $69 $-1 $129 reversed single #
face $-1 $130 $131 $70 $-1 $132 forward single #
face $-1 $133 $134 $71 $-1 $135 forward single #
face $-1 $136 $137 $72 $-1 $138 forward single #
face $-1 $139 $140 $73 $-1 $141 reversed single #
face $-1 $142 $143 $74 $-1 $144 forward single #
face $-1 $145 $146 $75 $-1 $147 forward single #
face $-1 $148 $149 $76 $-1 $150 forward single #
face $-1 $151 $152 $77 $-1 $153 reversed single #
face $-1 $154 $155 $78 $-1 $156 forward single #
face $-1 $157 $158 $79 $-1 $159 forward single #
face $-1 $160 $161 $60 $-1 $162 reversed single #
loop $-1 $-1 $163 $80 #
plane-surface $-1 0 0 17.986519397961953 0 0 1 1 0 0 forward_v I I I I #
face $-1 $164 $165 $61 $-1 $166 reversed single #
loop $-1 $-1 $167 $81 #
plane-surface $-1 -49.928844272346076 -110.89784340653395 135.15083351730388 -1 0 0 0 -0.50000000669873634 0.8660253999169214 forward_v I I I I #
face $-1 $168 $169 $62 $-1 $170 forward single #
loop $-1 $171 $172 $82 #
cone-surface $-1 -62.203932028149168 -32.626613319104329 13.498097798800961 0 0.50000000669873634 -0.8660253999169214 1 0 0 1 I I 0 1 1 forward I I I I #
face $-1 $173 $174 $63 $-1 $175 forward single #
loop $-1 $176 $177 $83 #
cone-surface $-1 -57.600774119723006 -32.626613319104329 13.498097798800961 0 0.50000000669873634 -0.8660253999169214 1 0 0 1 I I 0 1 1 forward I I I I #
face $-1 $178 $179 $64 $-1 $180 forward single #
loop $-1 $181 $182 $84 #
cone-surface $-1 -52.997616211296844 -32.626613319104329 13.498097798800961 0 0.50000000669873634 -0.8660253999169214 1 0 0 1 I I 0 1 1 forward I I I I #
face $-1 $183 $184 $65 $-1 $185 reversed single #
loop $-1 $-1 $186 $85 #
plane-surface $-1 -14.097672666767286 -110.89784340653395 135.15083351730388 -1 0 0 0 -0.50000000669873634 0.8660253999169214 forward_v I I I I #
face $-1 $187 $188 $66 $-1 $189 forward single #
loop $-1 $190 $191 $86 #
cone-surface $-1 -26.37276042257038 -32.626613319104329 13.498097798800961 0 0.50000000669873634 -0.8660253999169214 1 0 0 1 I I 0 1 1 forward I I I I #
face $-1 $192 $193 $67 $-1 $194 forward single #
loop $-1 $195 $196 $87 #
cone-surface $-1 -21.769602514144218 -32.626613319104329 13.498097798800961 0 0.50000000669873634 -0.8660253999169214 1 0 0 1 I I 0 1 1 forward I I I I #
face $-1 $197 $198 $68 $-1 $199 forward single #
loop $-1 $200 $201 $88 #
cone-surface $-1 -17.166444605718056 -32.626613319104329 13.498097798800961 0 0.50000000669873634 -0.8660253999169214 1 0 0 1 I I 0 1 1 forward I I I I #
face $-1 $202 $203 $69 $-1 $204 reversed single #
loop $-1 $-1 $205 $89 #
plane-surface $-1 21.733498938811493 -110.89784340653395 135.15083351730388 -1 0 0 0 -0.50000000669873634 0.8660253999169214 forward_v I I I I #
face $-1 $206 $207 $70 $-1 $208 forward single #
loop $-1 $209 $210 $90 #
cone-surface $-1 9.4584111830084083 -32.626613319104329 13.498097798800961 0 0.50000000669873634 -0.8660253999169214 1 0 0 1 I I 0 1 1 forward I I I I #
face $-1 $211 $212 $71 $-1 $213 forward single #
loop $-1 $214 $215 $91 #
cone-surface $-1 14.061569091434563 -32.626613319104329 13.498097798800961 0 0.50000000669873634 -0.8660253999169214 1 0 0 1 I I 0 1 1 forward I I I I #
face $-1 $216 $217 $72 $-1 $218 forward single #
loop $-1 $219 $220 $92 #
cone-surface $-1 18.664726999860733 -32.626613319104329 13.498097798800961 0 0.50000000669873634 -0.8660253999169214 1 0 0 1 I I 0 1 1 forward I I I I #
face $-1 $221 $222 $73 $-1 $223 reversed single #
loop $-1 $-1 $224 $93 #
plane-surface $-1 57.564670544390282 -110.89784340653395 135.15083351730388 -1 0 0 0 -0.50000000669873634 0.8660253999169214 forward_v I I I I #
face $-1 $225 $226 $74 $-1 $227 forward single #
loop $-1 $228 $229 $94 #
cone-surface $-1 45.289582788587197 -32.626613319104329 13.498097798800961 0 0.50000000669873634 -0.8660253999169214 1 0 0 1 I I 0 1 1 forward I I I I #
face $-1 $230 $231 $75 $-1 $232 forward single #
loop $-1 $233 $234 $95 #
cone-surface $-1 49.892740697013352 -32.626613319104329 13.498097798800961 0 0.50000000669873634 -0.8660253999169214 1 0 0 1 I I 0 1 1 forward I I I I #
face $-1 $235 $236 $76 $-1 $237 forward single #
loop $-1 $238 $239 $96 #
cone-surface $-1 54.495898605439521 -32.626613319104329 13.498097798800961 0 0.50000000669873634 -0.8660253999169214 1 0 0 1 I I 0 1 1 forward I I I I #
face $-1 $240 $241 $77 $-1 $242 reversed single #
loop $-1 $-1 $243 $97 #
plane-surface $-1 -13.380067827117578 101.23630300986216 153.50947530884503 1 0 0 0 -0.77714596973225614 -0.62932038083071107 forward_v I I I I #
face $-1 $244 $245 $78 $-1 $246 forward single #
loop $-1 $247 $248 $98 #
cone-surface $-1 -5.7608375413254436 30.762080276255933 8.4298151262405554 0 -0.77714596973225614 -0.62932038083071107 1.5 0 0 1 I I 0 1 1.5 forward I I I I #
face $-1 $249 $250 $79 $-1 $251 forward single #
loop $-1 $252 $253 $99 #
cone-surface $-1 5.6680078873627622 30.762080276255933 8.4298151262405554 0 -0.77714596973225614 -0.62932038083071107 1.5 0 0 1 I I 0 1 1.5 forward I I I I #
face $-1 $254 $255 $60 $-1 $256 reversed single #
loop $-1 $-1 $257 $100 #
plane-surface $-1 0 0 -17.986519397961953 0 0 1 1 0 0 forward_v I I I I #
coedge $-1 $258 $259 $260 $261 forward $101 $-1 #
face $-1 $262 $263 $61 $-1 $264 reversed single #
loop $-1 $-1 $265 $103 #
plane-surface $-1 -57.600774119723006 -39.235499235282091 11.028014640451048 0 -0.50000000669873634 0.8660253999169214 1 0 0 forward_v I I I I #
coedge $-1 $266 $267 $268 $269 reversed $104 $-1 #
face $-1 $-1 $270 $62 $-1 $271 forward single #
loop $-1 $272 $273 $106 #
cone-surface $-1 -62.203932028149168 -31.793969184288002 12.055915878436977 0 0.50000000669873634 -0.8660253999169214 0.5 0 0 1 I I -0.70710678118654746 0.70710678118654746 0.5 forward I I I I #
loop $-1 $-1 $274 $82 #
coedge $-1 $172 $172 $275 $276 reversed $107 $-1 #
face $-1 $-1 $277 $63 $-1 $278 forward single #
loop $-1 $279 $280 $109 #
cone-surface $-1 -57.600774119723006 -31.793969184288002 12.055915878436977 0 0.50000000669873634 -0.8660253999169214 0.5 0 0 1 I I -0.70710678118654746 0.70710678118654746 0.5 forward I I I I #
loop $-1 $-1 $281 $83 #
coedge $-1 $177 $177 $282 $283 reversed $110 $-1 #
face $-1 $-1 $284 $64 $-1 $285 forward single #
loop $-1 $286 $287 $112 #
cone-surface $-1 -52.997616211296844 -31.793969184288002 12.055915878436977 0 0.50000000669873634 -0.8660253999169214 0.5 0 0 1 I I -0.70710678118654746 0.70710678118654746 0.5 forward I I I I #
loop $-1 $-1 $288 $84 #
coedge $-1 $182 $182 $289 $290 reversed $113 $-1 #
face $-1 $291 $292 $65 $-1 $293 reversed single #
loop $-1 $-1 $294 $115 #
plane-surface $-1 -21.769602514144218 -39.235499235282091 11.028014640451048 0 -0.50000000669873634 0.8660253999169214 1 0 0 forward_v I I I I #
coedge $-1 $295 $296 $297 $298 reversed $116 $-1 #
face $-1 $-1 $299 $66 $-1 $300 forward single #
loop $-1 $301 $302 $118 #
cone-surface $-1 -26.37276042257038 -31.793969184288002 12.055915878436977 0 0.50000000669873634 -0.8660253999169214 0.5 0 0 1 I I -0.70710678118654746 0.70710678118654746 0.5 forward I I I I #
loop $-1 $-1 $303 $86 #
coedge $-1 $191 $191 $304 $305 reversed $119 $-1 #
face $-1 $-1 $306 $67 $-1 $307 forward single #
loop $-1 $308 $309 $121 #
cone-surface $-1 -21.769602514144218 -31.793969184288002 12.055915878436977 0 0.50000000669873634 -0.8660253999169214 0.5 0 0 1 I I -0.70710678118654746 0.70710678118654746 0.5 forward I I I I #
loop $-1 $-1 $310 $87 #
coedge $-1 $196 $196 $311 $312 reversed $122 $-1 #
face $-1 $-1 $313 $68 $-1 $314 forward single #
loop $-1 $315 $316 $124 #
cone-surface $-1 -17.166444605718056 -31.793969184288002 12.055915878436977 0 0.50000000669873634 -0.8660253999169214 0.5 0 0 1 I I -0.70710678118654746 0.70710678118654746 0.5 forward I I I I #
loop $-1 $-1 $317 $88 #
coedge $-1 $201 $201 $318 $319 reversed $125 $-1 #
face $-1 $320 $321 $69 $-1 $322 reversed single #
loop $-1 $-1 $323 $127 #
plane-surface $-1 14.061569091434563 -39.235499235282091 11.028014640451048 0 -0.50000000669873634 0.8660253999169214 1 0 0 forward_v I I I I #
coedge $-1 $324 $325 $326 $327 reversed $128 $-1 #
face $-1 $-1 $328 $70 $-1 $329 forward single #
loop $-1 $330 $331 $130 #
cone-surface $-1 9.4584111830084083 -31.793969184288002 12.055915878436977 0 0.50000000669873634 -0.8660253999169214 0.5 0 0 1 I I -0.70710678118654746 0.70710678118654746 0.5 forward I I I I #
loop $-1 $-1 $332 $90 #
coedge $-1 $210 $210 $333 $334 reversed $131 $-1 #
face $-1 $-1 $335 $71 $-1 $336 forward single #
loop $-1 $337 $338 $133 #
cone-surface $-1 14.061569091434563 -31.793969184288002 12.055915878436977 0 0.50000000669873634 -0.8660253999169214 0.5 0 0 1 I I -0.70710678118654746 0.70710678118654746 0.5 forward I I I I #
loop $-1 $-1 $339 $91 #
coedge $-1 $215 $215 $340 $341 reversed $134 $-1 #
face $-1 $-1 $342 $72 $-1 $343 forward single #
loop $-1 $344 $345 $136 #
cone-surface $-1 18.664726999860733 -31.793969184288002 12.055915878436977 0 0.50000000669873634 -0.8660253999169214 0.5 0 0 1 I I -0.70710678118654746 0.70710678118654746 0.5 forward I I I I #
loop $-1 $-1 $346 $92 #
coedge $-1 $220 $220 $347 $348 reversed $137 $-1 #
face $-1 $349 $350 $73 $-1 $351 reversed single #
loop $-1 $-1 $352 $139 #
plane-surface $-1 49.892740697013352 -39.235499235282091 11.028014640451048 0 -0.50000000669873634 0.8660253999169214 1 0 0 forward_v I I I I #
coedge $-1 $353 $354 $355 $356 reversed $140 $-1 #
face $-1 $-1 $357 $74 $-1 $358 forward single #
loop $-1 $359 $360 $142 #
cone-surface $-1 45.289582788587197 -31.793969184288002 12.055915878436977 0 0.50000000669873634 -0.8660253999169214 0.5 0 0 1 I I -0.70710678118654746 0.70710678118654746 0.5 forward I I I I #
loop $-1 $-1 $361 $94 #
coedge $-1 $229 $229 $362 $363 reversed $143 $-1 #
face $-1 $-1 $364 $75 $-1 $365 forward single #
loop $-1 $366 $367 $145 #
cone-surface $-1 49.892740697013352 -31.793969184288002 12.055915878436977 0 0.50000000669873634 -0.8660253999169214 0.5 0 0 1 I I -0.70710678118654746 0.70710678118654746 0.5 forward I I I I #
loop $-1 $-1 $368 $95 #
coedge $-1 $234 $234 $369 $370 reversed $146 $-1 #
face $-1 $-1 $371 $76 $-1 $372 forward single #
loop $-1 $373 $374 $148 #
cone-surface $-1 54.495898605439521 -31.793969184288002 12.055915878436977 0 0.50000000669873634 -0.8660253999169214 0.5 0 0 1 I I -0.70710678118654746 0.70710678118654746 0.5 forward I I I I #
loop $-1 $-1 $375 $96 #
coedge $-1 $239 $239 $376 $377 reversed $149 $-1 #
face $-1 $378 $379 $77 $-1 $380 reversed single #
loop $-1 $-1 $381 $151 #
plane-surface $-1 -0.04641482698133359 -10.14789940637948 63.312329067111406 0 0.77714596973225614 0.62932038083071107 1 0 0 forward_v I I I I #
coedge $-1 $382 $383 $384 $385 reversed $152 $-1 #
face $-1 $-1 $386 $78 $-1 $387 forward single #
loop $-1 $388 $389 $154 #
cone-surface $-1 -5.7608375413254436 28.045443173330291 6.2299258354538942 0 -0.77714596973225614 -0.62932038083071107 0.75 0 0 1 I I -0.70710678118654757 0.70710678118654757 0.75 forward I I I I #
loop $-1 $-1 $390 $98 #
coedge $-1 $248 $248 $391 $392 reversed $155 $-1 #
face $-1 $-1 $393 $79 $-1 $394 forward single #
loop $-1 $395 $396 $157 #
cone-surface $-1 5.6680078873627622 28.045443173330291 6.2299258354538942 0 -0.77714596973225614 -0.62932038083071107 0.75 0 0 1 I I -0.70710678118654757 0.70710678118654757 0.75 forward I I I I #
loop $-1 $-1 $397 $99 #
coedge $-1 $253 $253 $398 $399 reversed $158 $-1 #
face $-1 $400 $401 $60 $-1 $402 reversed single #
loop $-1 $-1 $403 $160 #
plane-surface $-1 0 -39.235499235282084 0 0 1 0 0 0 1 forward_v I I I I #
coedge $-1 $404 $405 $406 $407 forward $161 $-1 #
coedge $-1 $408 $163 $409 $410 forward $101 $-1 #
coedge $-1 $163 $408 $411 $412 forward $101 $-1 #
coedge $-1 $413 $414 $163 $261 reversed $415 $-1 #
edge $-1 $416 -39.235499235282084 $417 39.235499235282084 $260 $418 forward 7 unknown #
face $-1 $419 $420 $61 $-1 $421 reversed single #
loop $-1 $-1 $422 $164 #
plane-surface $-1 -65.272703967099943 -110.89784340653395 135.15083351730388 1 0 0 0 0.50000000669873634 -0.8660253999169214 forward_v I I I I #
coedge $-1 $423 $424 $425 $426 reversed $165 $-1 #
coedge $-1 $267 $167 $427 $428 reversed $104 $-1 #
coedge $-1 $167 $266 $423 $429 reversed $104 $-1 #
coedge $-1 $425 $430 $167 $269 forward $431 $-1 #
edge $-1 $432 16.213422467984891 $433 28.265906037406431 $268 $434 forward 7 unknown #
loop $-1 $-1 $275 $168 #
plane-surface $-1 -57.600774119723006 -39.235499235282091 11.028014640451048 0 -0.50000000669873634 0.8660253999169214 1 0 0 forward_v I I I I #
loop $-1 $-1 $435 $106 #
coedge $-1 $273 $273 $274 $436 reversed $169 $-1 #
coedge $-1 $274 $274 $273 $436 forward $171 $-1 #
coedge $-1 $275 $275 $172 $276 forward $270 $-1 #
edge $-1 $437 7.6064152710095529e-016 $437 6.2831853071796013 $275 $438 forward 7 unknown #
loop $-1 $-1 $282 $173 #
plane-surface $-1 -57.600774119723006 -39.235499235282091 11.028014640451048 0 -0.50000000669873634 0.8660253999169214 1 0 0 forward_v I I I I #
loop $-1 $-1 $439 $109 #
coedge $-1 $280 $280 $281 $440 reversed $174 $-1 #
coedge $-1 $281 $281 $280 $440 forward $176 $-1 #
coedge $-1 $282 $282 $177 $283 forward $277 $-1 #
edge $-1 $441 7.6064152710095529e-016 $441 6.2831853071796013 $282 $442 forward 7 unknown #
loop $-1 $-1 $289 $178 #
plane-surface $-1 -57.600774119723006 -39.235499235282091 11.028014640451048 0 -0.50000000669873634 0.8660253999169214 1 0 0 forward_v I I I I #
loop $-1 $-1 $443 $112 #
coedge $-1 $287 $287 $288 $444 reversed $179 $-1 #
coedge $-1 $288 $288 $287 $444 forward $181 $-1 #
coedge $-1 $289 $289 $182 $290 forward $284 $-1 #
edge $-1 $445 7.6064152710095529e-016 $445 6.2831853071796013 $289 $446 forward 7 unknown #
face $-1 $447 $448 $65 $-1 $449 reversed single #
loop $-1 $-1 $450 $183 #
plane-surface $-1 -29.441532361521148 -110.89784340653395 135.15083351730388 1 0 0 0 0.50000000669873634 -0.8660253999169214 forward_v I I I I #
coedge $-1 $451 $452 $453 $454 reversed $184 $-1 #
coedge $-1 $296 $186 $455 $456 reversed $116 $-1 #
coedge $-1 $186 $295 $451 $457 reversed $116 $-1 #
coedge $-1 $453 $458 $186 $298 forward $459 $-1 #
edge $-1 $460 16.213422467984891 $461 28.265906037406431 $297 $462 forward 7 unknown #
loop $-1 $-1 $304 $187 #
plane-surface $-1 -21.769602514144218 -39.235499235282091 11.028014640451048 0 -0.50000000669873634 0.8660253999169214 1 0 0 forward_v I I I I #
loop $-1 $-1 $463 $118 #
coedge $-1 $302 $302 $303 $464 reversed $188 $-1 #
coedge $-1 $303 $303 $302 $464 forward $190 $-1 #
coedge $-1 $304 $304 $191 $305 forward $299 $-1 #
edge $-1 $465 7.6064152710095529e-016 $465 6.2831853071796013 $304 $466 forward 7 unknown #
loop $-1 $-1 $311 $192 #
plane-surface $-1 -21.769602514144218 -39.235499235282091 11.028014640451048 0 -0.50000000669873634 0.8660253999169214 1 0 0 forward_v I I I I #
loop $-1 $-1 $467 $121 #
coedge $-1 $309 $309 $310 $468 reversed $193 $-1 #
coedge $-1 $310 $310 $309 $468 forward $195 $-1 #
coedge $-1 $311 $311 $196 $312 forward $306 $-1 #
edge $-1 $469 7.6064152710095529e-016 $469 6.2831853071796013 $311 $470 forward 7 unknown #
loop $-1 $-1 $318 $197 #
plane-surface $-1 -21.769602514144218 -39.235499235282091 11.028014640451048 0 -0.50000000669873634 0.8660253999169214 1 0 0 forward_v I I I I #
loop $-1 $-1 $471 $124 #
coedge $-1 $316 $316 $317 $472 reversed $198 $-1 #
coedge $-1 $317 $317 $316 $472 forward $200 $-1 #
coedge $-1 $318 $318 $201 $319 forward $313 $-1 #
edge $-1 $473 7.6064152710095529e-016 $473 6.2831853071796013 $318 $474 forward 7 unknown #
face $-1 $475 $476 $69 $-1 $477 reversed single #
loop $-1 $-1 $478 $202 #
plane-surface $-1 6.3896392440576317 -110.89784340653395 135.15083351730388 1 0 0 0 0.50000000669873634 -0.8660253999169214 forward_v I I I I #
coedge $-1 $479 $480 $481 $482 reversed $203 $-1 #
coedge $-1 $325 $205 $483 $484 reversed $128 $-1 #
coedge $-1 $205 $324 $479 $485 reversed $128 $-1 #
coedge $-1 $481 $486 $205 $327 forward $487 $-1 #
edge $-1 $488 16.213422467984891 $489 28.265906037406431 $326 $490 forward 7 unknown #
loop $-1 $-1 $333 $206 #
plane-surface $-1 14.061569091434563 -39.235499235282091 11.028014640451048 0 -0.50000000669873634 0.8660253999169214 1 0 0 forward_v I I I I #
loop $-1 $-1 $491 $130 #
coedge $-1 $331 $331 $332 $492 reversed $207 $-1 #
coedge $-1 $332 $332 $331 $492 forward $209 $-1 #
coedge $-1 $333 $333 $210 $334 forward $328 $-1 #
edge $-1 $493 7.6064152710095529e-016 $493 6.2831853071796013 $333 $494 forward 7 unknown #
loop $-1 $-1 $340 $211 #
plane-surface $-1 14.061569091434563 -39.235499235282091 11.028014640451048 0 -0.50000000669873634 0.8660253999169214 1 0 0 forward_v I I I I #
loop $-1 $-1 $495 $133 #
coedge $-1 $338 $338 $339 $496 reversed $212 $-1 #
coedge $-1 $339 $339 $338 $496 forward $214 $-1 #
coedge $-1 $340 $340 $215 $341 forward $335 $-1 #
edge $-1 $497 7.6064152710095529e-016 $497 6.2831853071796013 $340 $498 forward 7 unknown #
loop $-1 $-1 $347 $216 #
plane-surface $-1 14.061569091434563 -39.235499235282091 11.028014640451048 0 -0.50000000669873634 0.8660253999169214 1 0 0 forward_v I I I I #
loop $-1 $-1 $499 $136 #
coedge $-1 $345 $345 $346 $500 reversed $217 $-1 #
coedge $-1 $346 $346 $345 $500 forward $219 $-1 #
coedge $-1 $347 $347 $220 $348 forward $342 $-1 #
edge $-1 $501 7.6064152710095529e-016 $501 6.2831853071796013 $347 $502 forward 7 unknown #
face $-1 $503 $504 $73 $-1 $505 reversed single #
loop $-1 $-1 $506 $221 #
plane-surface $-1 42.220810849636422 -110.89784340653395 135.15083351730388 1 0 0 0 0.50000000669873634 -0.8660253999169214 forward_v I I I I #
coedge $-1 $507 $508 $509 $510 reversed $222 $-1 #
coedge $-1 $354 $224 $511 $512 reversed $140 $-1 #
coedge $-1 $224 $353 $507 $513 reversed $140 $-1 #
coedge $-1 $509 $514 $224 $356 forward $515 $-1 #
edge $-1 $516 16.213422467984891 $517 28.265906037406431 $355 $518 forward 7 unknown #
loop $-1 $-1 $362 $225 #
plane-surface $-1 49.892740697013352 -39.235499235282091 11.028014640451048 0 -0.50000000669873634 0.8660253999169214 1 0 0 forward_v I I I I #
loop $-1 $-1 $519 $142 #
coedge $-1 $360 $360 $361 $520 reversed $226 $-1 #
coedge $-1 $361 $361 $360 $520 forward $228 $-1 #
coedge $-1 $362 $362 $229 $363 forward $357 $-1 #
edge $-1 $521 7.6064152710095529e-016 $521 6.2831853071796013 $362 $522 forward 7 unknown #
loop $-1 $-1 $369 $230 #
plane-surface $-1 49.892740697013352 -39.235499235282091 11.028014640451048 0 -0.50000000669873634 0.8660253999169214 1 0 0 forward_v I I I I #
loop $-1 $-1 $523 $145 #
coedge $-1 $367 $367 $368 $524 reversed $231 $-1 #
coedge $-1 $368 $368 $367 $524 forward $233 $-1 #
coedge $-1 $369 $369 $234 $370 forward $364 $-1 #
edge $-1 $525 7.6064152710095529e-016 $525 6.2831853071796013 $369 $526 forward 7 unknown #
loop $-1 $-1 $376 $235 #
plane-surface $-1 49.892740697013352 -39.235499235282091 11.028014640451048 0 -0.50000000669873634 0.8660253999169214 1 0 0 forward_v I I I I #
loop $-1 $-1 $527 $148 #
coedge $-1 $374 $374 $375 $528 reversed $236 $-1 #
coedge $-1 $375 $375 $374 $528 forward $238 $-1 #
coedge $-1 $376 $376 $239 $377 forward $371 $-1 #
edge $-1 $529 7.6064152710095529e-016 $529 6.2831853071796013 $376 $530 forward 7 unknown #
face $-1 $531 $532 $77 $-1 $533 reversed single #
loop $-1 $-1 $534 $240 #
plane-surface $-1 13.287238173154911 101.23630300986216 153.50947530884503 -1 0 0 0 0.77714596973225614 0.62932038083071107 forward_v I I I I #
coedge $-1 $535 $536 $537 $538 reversed $241 $-1 #
coedge $-1 $383 $243 $539 $540 reversed $152 $-1 #
coedge $-1 $243 $382 $535 $541 reversed $152 $-1 #
coedge $-1 $537 $542 $243 $385 forward $543 $-1 #
edge $-1 $544 11.382652269648993 $545 24.061934936448381 $384 $546 forward 7 unknown #
loop $-1 $-1 $391 $244 #
plane-surface $-1 -0.04641482698133359 -10.14789940637948 63.312329067111406 0 0.77714596973225614 0.62932038083071107 1 0 0 forward_v I I I I #
loop $-1 $-1 $547 $154 #
coedge $-1 $389 $389 $390 $548 reversed $245 $-1 #
coedge $-1 $390 $390 $389 $548 forward $247 $-1 #
coedge $-1 $391 $391 $248 $392 forward $386 $-1 #
edge $-1 $549 -1.5805748557209197e-015 $549 6.2831853071795987 $391 $550 forward 7 unknown #
loop $-1 $-1 $398 $249 #
plane-surface $-1 -0.04641482698133359 -10.14789940637948 63.312329067111406 0 0.77714596973225614 0.62932038083071107 1 0 0 forward_v I I I I #
loop $-1 $-1 $551 $157 #
coedge $-1 $396 $396 $397 $552 reversed $250 $-1 #
coedge $-1 $397 $397 $396 $552 forward $252 $-1 #
coedge $-1 $398 $398 $253 $399 forward $393 $-1 #
edge $-1 $553 -1.5805748557209197e-015 $553 6.2831853071795987 $398 $554 forward 7 unknown #
face $-1 $555 $556 $60 $-1 $557 reversed single #
loop $-1 $-1 $558 $254 #
plane-surface $-1 -71.662343211157577 0 0 1 0 0 0 0 -1 forward_v I I I I #
coedge $-1 $559 $411 $560 $561 forward $255 $-1 #
coedge $-1 $562 $257 $559 $563 forward $161 $-1 #
coedge $-1 $257 $562 $564 $565 forward $161 $-1 #
coedge $-1 $414 $413 $257 $407 reversed $415 $-1 #
edge $-1 $566 -39.235499235282084 $567 39.235499235282084 $406 $568 forward 7 unknown #
coedge $-1 $259 $258 $569 $570 forward $101 $-1 #
coedge $-1 $571 $572 $258 $410 reversed $556 $-1 #
edge $-1 $417 -71.662343211157577 $573 71.662343211157577 $409 $574 forward 7 unknown #
coedge $-1 $403 $575 $259 $412 reversed $255 $-1 #
edge $-1 $576 -71.662343211157577 $416 71.662343211157577 $411 $577 forward 7 unknown #
coedge $-1 $406 $260 $575 $578 forward $415 $-1 #
coedge $-1 $260 $406 $571 $579 reversed $415 $-1 #
loop $-1 $-1 $413 $555 #
vertex $-1 $261 $580 #
vertex $-1 $261 $581 #
straight-curve $-1 71.662343211157577 0 17.986519397961953 0 1 0 I I #
face $-1 $-1 $431 $61 $-1 $582 forward single #
loop $-1 $-1 $583 $262 #
plane-surface $-1 0 -39.235499235282084 0 0 1 0 0 0 1 forward_v I I I I #
coedge $-1 $584 $585 $586 $587 reversed $263 $-1 #
coedge $-1 $588 $265 $267 $429 forward $165 $-1 #
coedge $-1 $265 $588 $584 $589 forward $165 $-1 #
coedge $-1 $586 $268 $265 $426 forward $431 $-1 #
edge $-1 $433 21.128457212484573 $590 36.472316907238437 $425 $591 forward 7 unknown #
coedge $-1 $592 $593 $266 $428 forward $420 $-1 #
edge $-1 $594 -56.547402118200893 $432 -49.588897360689984 $427 $595 forward 7 unknown #
edge $-1 $433 -13.917009328569062 $594 -7.929837432145984e-015 $267 $596 forward 7 unknown #
coedge $-1 $268 $586 $592 $597 forward $431 $-1 #
loop $-1 $-1 $586 $419 #
vertex $-1 $428 $598 #
vertex $-1 $269 $599 #
straight-curve $-1 -49.928844272346076 -55.448921703266976 17.986519397961956 0 1 0 I I #
coedge $-1 $435 $435 $-1 $600 reversed $272 $-1 #
edge $-1 $601 0 $601 6.2831853071796004 $273 $602 forward 7 unknown #
vertex $-1 $276 $603 #
ellipse-curve $-1 -62.203932028149168 -33.2092574505713 14.507267019206509 0 -0.50000000669873634 0.8660253999169214 1 0 0 1 I I #
coedge $-1 $439 $439 $-1 $604 reversed $279 $-1 #
edge $-1 $605 0 $605 6.2831853071796004 $280 $606 forward 7 unknown #
vertex $-1 $283 $607 #
ellipse-curve $-1 -57.600774119723006 -33.2092574505713 14.507267019206509 0 -0.50000000669873634 0.8660253999169214 1 0 0 1 I I #
coedge $-1 $443 $443 $-1 $608 reversed $286 $-1 #
edge $-1 $609 0 $609 6.2831853071796004 $287 $610 forward 7 unknown #
vertex $-1 $290 $611 #
ellipse-curve $-1 -52.997616211296844 -33.2092574505713 14.507267019206509 0 -0.50000000669873634 0.8660253999169214 1 0 0 1 I I #
face $-1 $-1 $459 $65 $-1 $612 forward single #
loop $-1 $-1 $613 $291 #
plane-surface $-1 0 -39.235499235282084 0 0 1 0 0 0 1 forward_v I I I I #
coedge $-1 $614 $615 $616 $617 reversed $292 $-1 #
coedge $-1 $618 $294 $296 $457 forward $184 $-1 #
coedge $-1 $294 $618 $614 $619 forward $184 $-1 #
coedge $-1 $616 $297 $294 $454 forward $459 $-1 #
edge $-1 $461 3.2128714096951771 $620 18.556731104449039 $453 $621 forward 7 unknown #
coedge $-1 $622 $623 $295 $456 forward $448 $-1 #
edge $-1 $624 -56.547402118200893 $460 -49.588897360689984 $455 $625 forward 7 unknown #
edge $-1 $461 -13.917009328569062 $624 -7.929837432145984e-015 $296 $626 forward 7 unknown #
coedge $-1 $297 $616 $622 $627 forward $459 $-1 #
loop $-1 $-1 $616 $447 #
vertex $-1 $456 $628 #
vertex $-1 $298 $629 #
straight-curve $-1 -14.097672666767286 -55.448921703266976 17.986519397961956 0 1 0 I I #
coedge $-1 $463 $463 $-1 $630 reversed $301 $-1 #
edge $-1 $631 0 $631 6.2831853071796004 $302 $632 forward 7 unknown #
vertex $-1 $305 $633 #
ellipse-curve $-1 -26.37276042257038 -33.2092574505713 14.507267019206509 0 -0.50000000669873634 0.8660253999169214 1 0 0 1 I I #
coedge $-1 $467 $467 $-1 $634 reversed $308 $-1 #
edge $-1 $635 0 $635 6.2831853071796004 $309 $636 forward 7 unknown #
vertex $-1 $312 $637 #
ellipse-curve $-1 -21.769602514144218 -33.2092574505713 14.507267019206509 0 -0.50000000669873634 0.8660253999169214 1 0 0 1 I I #
coedge $-1 $471 $471 $-1 $638 reversed $315 $-1 #
edge $-1 $639 0 $639 6.2831853071796004 $316 $640 forward 7 unknown #
vertex $-1 $319 $641 #
ellipse-curve $-1 -17.166444605718056 -33.2092574505713 14.507267019206509 0 -0.50000000669873634 0.8660253999169214 1 0 0 1 I I #
face $-1 $-1 $487 $69 $-1 $642 forward single #
loop $-1 $-1 $643 $320 #
plane-surface $-1 0 -39.235499235282084 0 0 1 0 0 0 1 forward_v I I I I #
coedge $-1 $644 $645 $646 $647 reversed $321 $-1 #
coedge $-1 $648 $323 $325 $485 forward $203 $-1 #
coedge $-1 $323 $648 $644 $649 forward $203 $-1 #
coedge $-1 $646 $326 $323 $482 forward $487 $-1 #
edge $-1 $489 -14.702714393094212 $650 0.64114530165965 $481 $651 forward 7 unknown #
coedge $-1 $652 $653 $324 $484 forward $476 $-1 #
edge $-1 $654 -56.547402118200893 $488 -49.588897360689984 $483 $655 forward 7 unknown #
edge $-1 $489 -13.917009328569062 $654 -7.929837432145984e-015 $325 $656 forward 7 unknown #
coedge $-1 $326 $646 $652 $657 forward $487 $-1 #
loop $-1 $-1 $646 $475 #
vertex $-1 $484 $658 #
vertex $-1 $327 $659 #
straight-curve $-1 21.733498938811493 -55.448921703266976 17.986519397961956 0 1 0 I I #
coedge $-1 $491 $491 $-1 $660 reversed $330 $-1 #
edge $-1 $661 0 $661 6.2831853071796004 $331 $662 forward 7 unknown #
vertex $-1 $334 $663 #
ellipse-curve $-1 9.4584111830084083 -33.2092574505713 14.507267019206509 0 -0.50000000669873634 0.8660253999169214 1 0 0 1 I I #
coedge $-1 $495 $495 $-1 $664 reversed $337 $-1 #
edge $-1 $665 0 $665 6.2831853071796004 $338 $666 forward 7 unknown #
vertex $-1 $341 $667 #
ellipse-curve $-1 14.061569091434563 -33.2092574505713 14.507267019206509 0 -0.50000000669873634 0.8660253999169214 1 0 0 1 I I #
coedge $-1 $499 $499 $-1 $668 reversed $344 $-1 #
edge $-1 $669 0 $669 6.2831853071796004 $345 $670 forward 7 unknown #
vertex $-1 $348 $671 #
ellipse-curve $-1 18.664726999860733 -33.2092574505713 14.507267019206509 0 -0.50000000669873634 0.8660253999169214 1 0 0 1 I I #
face $-1 $-1 $515 $73 $-1 $672 forward single #
loop $-1 $-1 $673 $349 #
plane-surface $-1 0 -39.235499235282084 0 0 1 0 0 0 1 forward_v I I I I #
coedge $-1 $674 $675 $676 $677 reversed $350 $-1 #
coedge $-1 $678 $352 $354 $513 forward $222 $-1 #
coedge $-1 $352 $678 $674 $679 forward $222 $-1 #
coedge $-1 $676 $355 $352 $510 forward $515 $-1 #
edge $-1 $517 -32.618300195883606 $680 -17.274440501129746 $509 $681 forward 7 unknown #
coedge $-1 $682 $683 $353 $512 forward $504 $-1 #
edge $-1 $684 -56.547402118200893 $516 -49.588897360689984 $511 $685 forward 7 unknown #
edge $-1 $517 -13.917009328569062 $684 -7.929837432145984e-015 $354 $686 forward 7 unknown #
coedge $-1 $355 $676 $682 $687 forward $515 $-1 #
loop $-1 $-1 $676 $503 #
vertex $-1 $512 $688 #
vertex $-1 $356 $689 #
straight-curve $-1 57.564670544390282 -55.448921703266976 17.986519397961956 0 1 0 I I #
coedge $-1 $519 $519 $-1 $690 reversed $359 $-1 #
edge $-1 $691 0 $691 6.2831853071796004 $360 $692 forward 7 unknown #
vertex $-1 $363 $693 #
ellipse-curve $-1 45.289582788587197 -33.2092574505713 14.507267019206509 0 -0.50000000669873634 0.8660253999169214 1 0 0 1 I I #
coedge $-1 $523 $523 $-1 $694 reversed $366 $-1 #
edge $-1 $695 0 $695 6.2831853071796004 $367 $696 forward 7 unknown #
vertex $-1 $370 $697 #
ellipse-curve $-1 49.892740697013352 -33.2092574505713 14.507267019206509 0 -0.50000000669873634 0.8660253999169214 1 0 0 1 I I #
coedge $-1 $527 $527 $-1 $698 reversed $373 $-1 #
edge $-1 $699 0 $699 6.2831853071796004 $374 $700 forward 7 unknown #
vertex $-1 $377 $701 #
ellipse-curve $-1 54.495898605439521 -33.2092574505713 14.507267019206509 0 -0.50000000669873634 0.8660253999169214 1 0 0 1 I I #
face $-1 $-1 $543 $77 $-1 $702 forward single #
loop $-1 $-1 $703 $378 #
plane-surface $-1 0 39.235499235282084 0 0 -1 0 0 0 -1 forward_v I I I I #
coedge $-1 $704 $705 $706 $707 reversed $379 $-1 #
coedge $-1 $708 $381 $383 $541 forward $241 $-1 #
coedge $-1 $381 $708 $704 $709 forward $241 $-1 #
coedge $-1 $706 $384 $381 $538 forward $543 $-1 #
edge $-1 $545 -13.356860413626912 $710 13.310445586645578 $537 $711 forward 7 unknown #
coedge $-1 $712 $713 $382 $540 forward $532 $-1 #
edge $-1 $714 -74.425828789576059 $544 -58.768218256460557 $539 $715 forward 7 unknown #
edge $-1 $545 58.323418552585672 $714 78.470998470564126 $383 $716 forward 7 unknown #
coedge $-1 $384 $706 $712 $717 forward $543 $-1 #
loop $-1 $-1 $706 $531 #
vertex $-1 $540 $718 #
vertex $-1 $385 $719 #
straight-curve $-1 -13.380067827117578 50.618151504931078 17.986519397961956 0 -1 0 I I #
coedge $-1 $547 $547 $-1 $720 reversed $388 $-1 #
edge $-1 $721 0 $721 6.2831853071796004 $389 $722 forward 7 unknown #
vertex $-1 $392 $723 #
ellipse-curve $-1 -5.7608375413254436 32.895857901882401 10.157714131404196 0 0.77714596973225614 0.62932038083071107 1.5 0 0 1 I I #
coedge $-1 $551 $551 $-1 $724 reversed $395 $-1 #
edge $-1 $725 0 $725 6.2831853071796004 $396 $726 forward 7 unknown #
vertex $-1 $399 $727 #
ellipse-curve $-1 5.6680078873627622 32.895857901882401 10.157714131404196 0 0.77714596973225614 0.62932038083071107 1.5 0 0 1 I I #
face $-1 $-1 $415 $60 $-1 $728 reversed single #
loop $-1 $-1 $571 $400 #
plane-surface $-1 0 39.235499235282084 0 0 -1 0 0 0 -1 forward_v I I I I #
coedge $-1 $729 $569 $572 $730 forward $401 $-1 #
coedge $-1 $575 $403 $404 $563 reversed $255 $-1 #
coedge $-1 $569 $729 $403 $561 reversed $401 $-1 #
edge $-1 $576 -17.986519397961953 $731 17.986519397961953 $560 $732 forward 7 unknown #
coedge $-1 $405 $404 $729 $733 forward $161 $-1 #
edge $-1 $567 -71.662343211157577 $731 71.662343211157577 $559 $734 forward 7 unknown #
coedge $-1 $572 $571 $405 $565 reversed $556 $-1 #
edge $-1 $735 -71.662343211157577 $566 71.662343211157577 $564 $736 forward 7 unknown #
vertex $-1 $407 $737 #
vertex $-1 $578 $738 #
straight-curve $-1 71.662343211157577 0 -17.986519397961953 0 -1 0 I I #
coedge $-1 $558 $560 $408 $570 reversed $401 $-1 #
edge $-1 $573 -39.235499235282084 $576 39.235499235282084 $569 $739 forward 7 unknown #
coedge $-1 $564 $409 $414 $579 forward $556 $-1 #
coedge $-1 $409 $564 $558 $730 reversed $556 $-1 #
vertex $-1 $410 $740 #
straight-curve $-1 0 39.235499235282084 17.986519397961953 -1 0 0 I I #
coedge $-1 $411 $559 $413 $578 reversed $255 $-1 #
vertex $-1 $570 $741 #
straight-curve $-1 0 -39.235499235282084 17.986519397961953 1 0 0 I I #
edge $-1 $416 -17.986519397961953 $567 17.986519397961953 $413 $742 forward 7 unknown #
edge $-1 $417 -17.986519397961953 $566 17.986519397961953 $414 $743 forward 7 unknown #
point $-1 71.662343211157577 -39.235499235282084 17.986519397961953 #
point $-1 71.662343211157577 39.235499235282084 17.986519397961953 #
plane-surface $-1 0 0 17.986519397961953 0 0 1 1 0 0 forward_v I I I I #
coedge $-1 $593 $592 $585 $744 forward $420 $-1 #
coedge $-1 $585 $422 $424 $589 reversed $263 $-1 #
coedge $-1 $422 $584 $583 $744 reversed $263 $-1 #
coedge $-1 $430 $425 $422 $587 forward $431 $-1 #
edge $-1 $590 -28.265906037406431 $745 -16.213422467984891 $586 $746 forward 7 unknown #
coedge $-1 $424 $423 $593 $747 reversed $165 $-1 #
edge $-1 $748 7.929837432145984e-015 $590 13.917009328569062 $584 $749 forward 7 unknown #
vertex $-1 $426 $750 #
straight-curve $-1 -28.800387059861503 -27.183015665860548 17.986519397961953 -1 0 0 I I #
coedge $-1 $583 $427 $430 $597 reversed $420 $-1 #
coedge $-1 $427 $583 $588 $747 forward $420 $-1 #
vertex $-1 $428 $751 #
straight-curve $-1 -49.928844272346076 -39.235499235282084 67.57541675865194 0 0 1 I I #
straight-curve $-1 -49.928844272346076 -39.235499235282091 11.028014640451048 0 -0.8660253999169214 -0.50000000669873634 I I #
edge $-1 $745 -65.272703967099943 $432 -49.928844272346076 $592 $752 forward 7 unknown #
point $-1 -49.928844272346076 -39.235499235282084 17.986519397961953 #
point $-1 -49.928844272346076 -27.183015665860545 17.986519397961953 #
edge $-1 $753 1 $753 0 $435 $-1 forward 7 unknown #
vertex $-1 $436 $754 #
ellipse-curve $-1 -62.203932028149168 -32.043969187637373 12.488928578395438 0 -0.50000000669873634 0.8660253999169214 1 0 0 1 I I #
point $-1 -61.203932028149168 -33.209257450571286 14.507267019206486 #
edge $-1 $755 1 $755 0 $439 $-1 forward 7 unknown #
vertex $-1 $440 $756 #
ellipse-curve $-1 -57.600774119723006 -32.043969187637373 12.488928578395438 0 -0.50000000669873634 0.8660253999169214 1 0 0 1 I I #
point $-1 -56.600774119723006 -33.209257450571286 14.507267019206486 #
edge $-1 $757 1 $757 0 $443 $-1 forward 7 unknown #
vertex $-1 $444 $758 #
ellipse-curve $-1 -52.997616211296844 -32.043969187637373 12.488928578395438 0 -0.50000000669873634 0.8660253999169214 1 0 0 1 I I #
point $-1 -51.997616211296844 -33.209257450571286 14.507267019206486 #
plane-surface $-1 0 0 17.986519397961953 0 0 1 1 0 0 forward_v I I I I #
coedge $-1 $623 $622 $615 $759 forward $448 $-1 #
coedge $-1 $615 $450 $452 $619 reversed $292 $-1 #
coedge $-1 $450 $614 $613 $759 reversed $292 $-1 #
coedge $-1 $458 $453 $450 $617 forward $459 $-1 #
edge $-1 $620 -28.265906037406431 $760 -16.213422467984891 $616 $761 forward 7 unknown #
coedge $-1 $452 $451 $623 $762 reversed $184 $-1 #
edge $-1 $763 7.929837432145984e-015 $620 13.917009328569062 $614 $764 forward 7 unknown #
vertex $-1 $454 $765 #
straight-curve $-1 -10.884801257072109 -27.183015665860548 17.986519397961953 -1 0 0 I I #
coedge $-1 $613 $455 $458 $627 reversed $448 $-1 #
coedge $-1 $455 $613 $618 $762 forward $448 $-1 #
vertex $-1 $456 $766 #
straight-curve $-1 -14.097672666767286 -39.235499235282084 67.57541675865194 0 0 1 I I #
straight-curve $-1 -14.097672666767286 -39.235499235282091 11.028014640451048 0 -0.8660253999169214 -0.50000000669873634 I I #
edge $-1 $760 -29.441532361521148 $460 -14.097672666767286 $622 $767 forward 7 unknown #
point $-1 -14.097672666767286 -39.235499235282084 17.986519397961953 #
point $-1 -14.097672666767286 -27.183015665860545 17.986519397961953 #
edge $-1 $768 1 $768 0 $463 $-1 forward 7 unknown #
vertex $-1 $464 $769 #
ellipse-curve $-1 -26.37276042257038 -32.043969187637373 12.488928578395438 0 -0.50000000669873634 0.8660253999169214 1 0 0 1 I I #
point $-1 -25.37276042257038 -33.209257450571286 14.507267019206486 #
edge $-1 $770 1 $770 0 $467 $-1 forward 7 unknown #
vertex $-1 $468 $771 #
ellipse-curve $-1 -21.769602514144218 -32.043969187637373 12.488928578395438 0 -0.50000000669873634 0.8660253999169214 1 0 0 1 I I #
point $-1 -20.769602514144218 -33.209257450571286 14.507267019206486 #
edge $-1 $772 1 $772 0 $471 $-1 forward 7 unknown #
vertex $-1 $472 $773 #
ellipse-curve $-1 -17.166444605718056 -32.043969187637373 12.488928578395438 0 -0.50000000669873634 0.8660253999169214 1 0 0 1 I I #
point $-1 -16.166444605718056 -33.209257450571286 14.507267019206486 #
plane-surface $-1 0 0 17.986519397961953 0 0 1 1 0 0 forward_v I I I I #
coedge $-1 $653 $652 $645 $774 forward $476 $-1 #
coedge $-1 $645 $478 $480 $649 reversed $321 $-1 #
coedge $-1 $478 $644 $643 $774 reversed $321 $-1 #
coedge $-1 $486 $481 $478 $647 forward $487 $-1 #
edge $-1 $650 -28.265906037406431 $775 -16.213422467984891 $646 $776 forward 7 unknown #
coedge $-1 $480 $479 $653 $777 reversed $203 $-1 #
edge $-1 $778 7.929837432145984e-015 $650 13.917009328569062 $644 $779 forward 7 unknown #
vertex $-1 $482 $780 #
straight-curve $-1 7.0307845457172817 -27.183015665860548 17.986519397961953 -1 0 0 I I #
coedge $-1 $643 $483 $486 $657 reversed $476 $-1 #
coedge $-1 $483 $643 $648 $777 forward $476 $-1 #
vertex $-1 $484 $781 #
straight-curve $-1 21.733498938811493 -39.235499235282084 67.57541675865194 0 0 1 I I #
straight-curve $-1 21.733498938811493 -39.235499235282091 11.028014640451048 0 -0.8660253999169214 -0.50000000669873634 I I #
edge $-1 $775 6.3896392440576317 $488 21.733498938811493 $652 $782 forward 7 unknown #
point $-1 21.733498938811493 -39.235499235282084 17.986519397961953 #
point $-1 21.733498938811493 -27.183015665860545 17.986519397961953 #
edge $-1 $783 1 $783 0 $491 $-1 forward 7 unknown #
vertex $-1 $492 $784 #
ellipse-curve $-1 9.4584111830084083 -32.043969187637373 12.488928578395438 0 -0.50000000669873634 0.8660253999169214 1 0 0 1 I I #
point $-1 10.458411183008408 -33.209257450571286 14.507267019206486 #
edge $-1 $785 1 $785 0 $495 $-1 forward 7 unknown #
vertex $-1 $496 $786 #
ellipse-curve $-1 14.061569091434563 -32.043969187637373 12.488928578395438 0 -0.50000000669873634 0.8660253999169214 1 0 0 1 I I #
point $-1 15.061569091434563 -33.209257450571286 14.507267019206486 #
edge $-1 $787 1 $787 0 $499 $-1 forward 7 unknown #
vertex $-1 $500 $788 #
ellipse-curve $-1 18.664726999860733 -32.043969187637373 12.488928578395438 0 -0.50000000669873634 0.8660253999169214 1 0 0 1 I I #
point $-1 19.664726999860733 -33.209257450571286 14.507267019206486 #
plane-surface $-1 0 0 17.986519397961953 0 0 1 1 0 0 forward_v I I I I #
coedge $-1 $683 $682 $675 $789 forward $504 $-1 #
coedge $-1 $675 $506 $508 $679 reversed $350 $-1 #
coedge $-1 $506 $674 $673 $789 reversed $350 $-1 #
coedge $-1 $514 $509 $506 $677 forward $515 $-1 #
edge $-1 $680 -28.265906037406431 $790 -16.213422467984891 $676 $791 forward 7 unknown #
coedge $-1 $508 $507 $683 $792 reversed $222 $-1 #
edge $-1 $793 7.929837432145984e-015 $680 13.917009328569062 $674 $794 forward 7 unknown #
vertex $-1 $510 $795 #
straight-curve $-1 24.946370348506676 -27.183015665860548 17.986519397961953 -1 0 0 I I #
coedge $-1 $673 $511 $514 $687 reversed $504 $-1 #
coedge $-1 $511 $673 $678 $792 forward $504 $-1 #
vertex $-1 $512 $796 #
straight-curve $-1 57.564670544390282 -39.235499235282084 67.57541675865194 0 0 1 I I #
straight-curve $-1 57.564670544390282 -39.235499235282091 11.028014640451048 0 -0.8660253999169214 -0.50000000669873634 I I #
edge $-1 $790 42.220810849636422 $516 57.564670544390282 $682 $797 forward 7 unknown #
point $-1 57.564670544390282 -39.235499235282084 17.986519397961953 #
point $-1 57.564670544390282 -27.183015665860545 17.986519397961953 #
edge $-1 $798 1 $798 0 $519 $-1 forward 7 unknown #
vertex $-1 $520 $799 #
ellipse-curve $-1 45.289582788587197 -32.043969187637373 12.488928578395438 0 -0.50000000669873634 0.8660253999169214 1 0 0 1 I I #
point $-1 46.289582788587197 -33.209257450571286 14.507267019206486 #
edge $-1 $800 1 $800 0 $523 $-1 forward 7 unknown #
vertex $-1 $524 $801 #
ellipse-curve $-1 49.892740697013352 -32.043969187637373 12.488928578395438 0 -0.50000000669873634 0.8660253999169214 1 0 0 1 I I #
point $-1 50.892740697013352 -33.209257450571286 14.507267019206486 #
edge $-1 $802 1 $802 0 $527 $-1 forward 7 unknown #
vertex $-1 $528 $803 #
ellipse-curve $-1 54.495898605439521 -32.043969187637373 12.488928578395438 0 -0.50000000669873634 0.8660253999169214 1 0 0 1 I I #
point $-1 55.495898605439521 -33.209257450571286 14.507267019206486 #
plane-surface $-1 0 0 17.986519397961953 0 0 1 1 0 0 forward_v I I I I #
coedge $-1 $713 $712 $705 $804 forward $532 $-1 #
coedge $-1 $705 $534 $536 $709 reversed $379 $-1 #
coedge $-1 $534 $704 $703 $804 reversed $379 $-1 #
coedge $-1 $542 $537 $534 $707 forward $543 $-1 #
edge $-1 $710 -24.061934936448381 $805 -11.382652269648993 $706 $806 forward 7 unknown #
coedge $-1 $536 $535 $713 $807 reversed $241 $-1 #
edge $-1 $808 -78.470998470564126 $710 -58.323418552585672 $704 $809 forward 7 unknown #
vertex $-1 $538 $810 #
straight-curve $-1 -0.023207413490666795 26.556216568482697 17.986519397961953 1 0 0 I I #
coedge $-1 $703 $539 $542 $717 reversed $532 $-1 #
coedge $-1 $539 $703 $708 $807 forward $532 $-1 #
vertex $-1 $540 $811 #
straight-curve $-1 -13.380067827117578 39.235499235282084 76.754737654422513 0 0 1 I I #
straight-curve $-1 -13.380067827117578 -10.14789940637948 63.312329067111406 0 0.62932038083071107 -0.77714596973225614 I I #
edge $-1 $805 -13.287238173154911 $544 13.380067827117578 $712 $812 forward 7 unknown #
point $-1 -13.380067827117578 39.235499235282084 17.986519397961953 #
point $-1 -13.380067827117578 26.556216568482697 17.986519397961956 #
edge $-1 $813 1 $813 0 $547 $-1 forward 7 unknown #
vertex $-1 $548 $814 #
ellipse-curve $-1 -5.7608375413254436 28.628302650629482 6.7019161210769278 0 0.77714596973225614 0.62932038083071107 1.5 0 0 1 I I #
point $-1 -4.2608375413254436 32.89585790188238 10.157714131404182 #
edge $-1 $815 1 $815 0 $551 $-1 forward 7 unknown #
vertex $-1 $552 $816 #
ellipse-curve $-1 5.6680078873627622 28.628302650629482 6.7019161210769278 0 0.77714596973225614 0.62932038083071107 1.5 0 0 1 I I #
point $-1 7.1680078873627622 32.89585790188238 10.157714131404182 #
plane-surface $-1 71.662343211157577 0 0 -1 0 0 0 0 1 forward_v I I I I #
coedge $-1 $560 $558 $562 $733 reversed $401 $-1 #
edge $-1 $573 -17.986519397961953 $735 17.986519397961953 $572 $817 forward 7 unknown #
vertex $-1 $733 $818 #
straight-curve $-1 -71.662343211157577 -39.235499235282084 0 0 0 -1 I I #
edge $-1 $731 -39.235499235282084 $735 39.235499235282084 $729 $819 forward 7 unknown #
straight-curve $-1 0 -39.235499235282084 -17.986519397961953 -1 0 0 I I #
vertex $-1 $565 $820 #
straight-curve $-1 0 39.235499235282084 -17.986519397961953 1 0 0 I I #
point $-1 71.662343211157577 39.235499235282084 -17.986519397961953 #
point $-1 71.662343211157577 -39.235499235282084 -17.986519397961953 #
straight-curve $-1 -71.662343211157577 0 17.986519397961953 0 -1 0 I I #
point $-1 -71.662343211157577 39.235499235282084 17.986519397961953 #
point $-1 -71.662343211157577 -39.235499235282084 17.986519397961953 #
straight-curve $-1 71.662343211157577 -39.235499235282084 0 0 0 -1 I I #
straight-curve $-1 71.662343211157577 39.235499235282084 0 0 0 -1 I I #
edge $-1 $745 49.588897360689984 $748 56.547402118200893 $583 $821 forward 7 unknown #
vertex $-1 $597 $822 #
straight-curve $-1 -65.272703967099943 -55.448921703266976 17.986519397961956 0 -1 0 I I #
edge $-1 $748 -36.472316907238437 $594 -21.128457212484573 $593 $823 forward 7 unknown #
vertex $-1 $747 $824 #
straight-curve $-1 -65.272703967099943 -39.235499235282091 11.028014640451048 0 0.8660253999169214 0.50000000669873634 I I #
point $-1 -65.272703967099943 -27.183015665860545 17.986519397961953 #
point $-1 -49.928844272346076 -39.235499235282084 11.028014640451051 #
straight-curve $-1 0 -39.235499235282084 17.986519397961953 1 0 0 I I #
vertex $-1 $600 $825 #
point $-1 -61.203932028149168 -32.043969187637373 12.488928578395438 #
vertex $-1 $604 $826 #
point $-1 -56.600774119723006 -32.043969187637373 12.488928578395438 #
vertex $-1 $608 $827 #
point $-1 -51.997616211296844 -32.043969187637373 12.488928578395438 #
edge $-1 $760 49.588897360689984 $763 56.547402118200893 $613 $828 forward 7 unknown #
vertex $-1 $627 $829 #
straight-curve $-1 -29.441532361521148 -55.448921703266976 17.986519397961956 0 -1 0 I I #
edge $-1 $763 -18.556731104449039 $624 -3.2128714096951771 $623 $830 forward 7 unknown #
vertex $-1 $762 $831 #
straight-curve $-1 -29.441532361521148 -39.235499235282091 11.028014640451048 0 0.8660253999169214 0.50000000669873634 I I #
point $-1 -29.441532361521148 -27.183015665860545 17.986519397961953 #
point $-1 -14.097672666767286 -39.235499235282084 11.028014640451051 #
straight-curve $-1 0 -39.235499235282084 17.986519397961953 1 0 0 I I #
vertex $-1 $630 $832 #
point $-1 -25.37276042257038 -32.043969187637373 12.488928578395438 #
vertex $-1 $634 $833 #
point $-1 -20.769602514144218 -32.043969187637373 12.488928578395438 #
vertex $-1 $638 $834 #
point $-1 -16.166444605718056 -32.043969187637373 12.488928578395438 #
edge $-1 $775 49.588897360689984 $778 56.547402118200893 $643 $835 forward 7 unknown #
vertex $-1 $657 $836 #
straight-curve $-1 6.3896392440576317 -55.448921703266976 17.986519397961956 0 -1 0 I I #
edge $-1 $778 -0.64114530165965 $654 14.702714393094212 $653 $837 forward 7 unknown #
vertex $-1 $777 $838 #
straight-curve $-1 6.3896392440576317 -39.235499235282091 11.028014640451048 0 0.8660253999169214 0.50000000669873634 I I #
point $-1 6.3896392440576317 -27.183015665860545 17.986519397961953 #
point $-1 21.733498938811493 -39.235499235282084 11.028014640451051 #
straight-curve $-1 0 -39.235499235282084 17.986519397961953 1 0 0 I I #
vertex $-1 $660 $839 #
point $-1 10.458411183008408 -32.043969187637373 12.488928578395438 #
vertex $-1 $664 $840 #
point $-1 15.061569091434563 -32.043969187637373 12.488928578395438 #
vertex $-1 $668 $841 #
point $-1 19.664726999860733 -32.043969187637373 12.488928578395438 #
edge $-1 $790 49.588897360689984 $793 56.547402118200893 $673 $842 forward 7 unknown #
vertex $-1 $687 $843 #
straight-curve $-1 42.220810849636422 -55.448921703266976 17.986519397961956 0 -1 0 I I #
edge $-1 $793 17.274440501129746 $684 32.618300195883606 $683 $844 forward 7 unknown #
vertex $-1 $792 $845 #
straight-curve $-1 42.220810849636422 -39.235499235282091 11.028014640451048 0 0.8660253999169214 0.50000000669873634 I I #
point $-1 42.220810849636422 -27.183015665860545 17.986519397961953 #
point $-1 57.564670544390282 -39.235499235282084 11.028014640451051 #
straight-curve $-1 0 -39.235499235282084 17.986519397961953 1 0 0 I I #
vertex $-1 $690 $846 #
point $-1 46.289582788587197 -32.043969187637373 12.488928578395438 #
vertex $-1 $694 $847 #
point $-1 50.892740697013352 -32.043969187637373 12.488928578395438 #
vertex $-1 $698 $848 #
point $-1 55.495898605439521 -32.043969187637373 12.488928578395438 #
edge $-1 $805 58.768218256460557 $808 74.425828789576059 $703 $849 forward 7 unknown #
vertex $-1 $717 $850 #
straight-curve $-1 13.287238173154911 50.618151504931078 17.986519397961956 0 1 0 I I #
edge $-1 $808 -13.310445586645578 $714 13.356860413626912 $713 $851 forward 7 unknown #
vertex $-1 $807 $852 #
straight-curve $-1 13.287238173154911 -10.14789940637948 63.312329067111406 0 -0.62932038083071107 0.77714596973225614 I I #
point $-1 13.287238173154911 26.556216568482697 17.986519397961956 #
point $-1 -13.380067827117578 39.235499235282084 2.3289088648464613 #
straight-curve $-1 0 39.235499235282084 17.986519397961953 -1 0 0 I I #
vertex $-1 $720 $853 #
point $-1 -4.2608375413254436 28.628302650629482 6.7019161210769278 #
vertex $-1 $724 $854 #
point $-1 7.1680078873627622 28.628302650629482 6.7019161210769278 #
straight-curve $-1 -71.662343211157577 39.235499235282084 0 0 0 -1 I I #
point $-1 -71.662343211157577 -39.235499235282084 -17.986519397961953 #
straight-curve $-1 -71.662343211157577 0 -17.986519397961953 0 1 0 I I #
point $-1 -71.662343211157577 39.235499235282084 -17.986519397961953 #
straight-curve $-1 -65.272703967099943 -39.235499235282084 67.57541675865194 0 0 -1 I I #
point $-1 -65.272703967099943 -39.235499235282084 17.986519397961953 #
straight-curve $-1 -28.800387059861503 -39.235499235282084 11.028014640451055 1 0 0 I I #
point $-1 -65.272703967099943 -39.235499235282084 11.028014640451051 #
point $-1 -62.203932028149168 -31.543969180938635 11.622903178478516 #
point $-1 -57.600774119723006 -31.543969180938635 11.622903178478516 #
point $-1 -52.997616211296844 -31.543969180938635 11.622903178478516 #
straight-curve $-1 -29.441532361521148 -39.235499235282084 67.57541675865194 0 0 -1 I I #
point $-1 -29.441532361521148 -39.235499235282084 17.986519397961953 #
straight-curve $-1 -10.884801257072109 -39.235499235282084 11.028014640451055 1 0 0 I I #
point $-1 -29.441532361521148 -39.235499235282084 11.028014640451051 #
point $-1 -26.37276042257038 -31.543969180938635 11.622903178478516 #
point $-1 -21.769602514144218 -31.543969180938635 11.622903178478516 #
point $-1 -17.166444605718056 -31.543969180938635 11.622903178478516 #
straight-curve $-1 6.3896392440576317 -39.235499235282084 67.57541675865194 0 0 -1 I I #
point $-1 6.3896392440576317 -39.235499235282084 17.986519397961953 #
straight-curve $-1 7.0307845457172817 -39.235499235282084 11.028014640451055 1 0 0 I I #
point $-1 6.3896392440576317 -39.235499235282084 11.028014640451051 #
point $-1 9.4584111830084083 -31.543969180938635 11.622903178478516 #
point $-1 14.061569091434563 -31.543969180938635 11.622903178478516 #
point $-1 18.664726999860733 -31.543969180938635 11.622903178478516 #
straight-curve $-1 42.220810849636422 -39.235499235282084 67.57541675865194 0 0 -1 I I #
point $-1 42.220810849636422 -39.235499235282084 17.986519397961953 #
straight-curve $-1 24.946370348506676 -39.235499235282084 11.028014640451055 1 0 0 I I #
point $-1 42.220810849636422 -39.235499235282084 11.028014640451051 #
point $-1 45.289582788587197 -31.543969180938635 11.622903178478516 #
point $-1 49.892740697013352 -31.543969180938635 11.622903178478516 #
point $-1 54.495898605439521 -31.543969180938635 11.622903178478516 #
straight-curve $-1 13.287238173154911 39.235499235282084 76.754737654422513 0 0 -1 I I #
point $-1 13.287238173154911 39.235499235282084 17.986519397961953 #
straight-curve $-1 -0.023207413490666795 39.235499235282077 2.3289088648464542 -1 0 0 I I #
point $-1 13.287238173154911 39.235499235282084 2.3289088648464613 #
point $-1 -5.7608375413254436 27.4625836960311 5.7579355498308606 #
point $-1 5.6680078873627622 27.4625836960311 5.7579355498308606 #
End-of-ACIS-data 