500 0 7 0           
7 Unknown 11 ACIS 5.0 NT 24 Fri Mar 26 19:23:01 1999 
-1 9.9999999999999995e-007 1e-010 
body $-1 $7 $-1 $8 #
body $-1 $9 $-1 $10 #
body $-1 $11 $-1 $12 #
body $-1 $13 $-1 $14 #
body $-1 $15 $-1 $16 #
body $-1 $17 $-1 $18 #
body $-1 $19 $-1 $20 #
lump $-1 $-1 $21 $0 #
transform $-1 1 0 0 0 1 0 0 0 1 47.684560686056095 29.101596188830431 13.631842389694526 1 rotate no_reflect no_shear #
lump $-1 $-1 $22 $1 #
transform $-1 1 0 0 0 1 0 0 0 1 47.684560686056095 29.101596188830431 13.631842389694526 1 rotate no_reflect no_shear #
lump $-1 $-1 $23 $2 #
transform $-1 1 0 0 0 1 0 0 0 1 47.684560686056095 29.101596188830431 13.631842389694526 1 rotate no_reflect no_shear #
lump $-1 $-1 $24 $3 #
transform $-1 1 0 0 0 1 0 0 0 1 47.684560686056095 29.101596188830431 13.631842389694526 1 rotate no_reflect no_shear #
lump $-1 $-1 $25 $4 #
transform $-1 1 0 0 0 1 0 0 0 1 47.684560686056095 29.101596188830431 13.631842389694526 1 rotate no_reflect no_shear #
lump $-1 $-1 $26 $5 #
transform $-1 1 0 0 0 1 0 0 0 1 47.684560686056095 29.101596188830431 13.631842389694526 1 rotate no_reflect no_shear #
lump $-1 $-1 $27 $6 #
transform $-1 1 0 0 0 1 0 0 0 1 47.684560686056095 29.101596188830431 13.631842389694526 1 rotate no_reflect no_shear #
shell $-1 $-1 $-1 $28 $-1 $7 #
shell $-1 $-1 $-1 $29 $-1 $9 #
shell $-1 $-1 $-1 $30 $-1 $11 #
shell $-1 $-1 $-1 $31 $-1 $13 #
shell $-1 $-1 $-1 $32 $-1 $15 #
shell $-1 $-1 $-1 $33 $-1 $17 #
shell $-1 $-1 $-1 $34 $-1 $19 #
face $-1 $35 $36 $21 $-1 $37 forward single #
face $-1 $38 $39 $22 $-1 $40 reversed single #
face $-1 $41 $42 $23 $-1 $43 reversed single #
face $-1 $44 $45 $24 $-1 $46 forward single #
face $-1 $47 $48 $25 $-1 $49 reversed single #
face $-1 $50 $51 $26 $-1 $52 forward single #
face $-1 $53 $54 $27 $-1 $55 forward single #
face $-1 $56 $57 $21 $-1 $58 reversed single #
loop $-1 $-1 $59 $28 #
plane-surface $-1 0 0 13.631842389694526 0 0 1 1 0 0 forward_v I I I I #
face $-1 $60 $61 $22 $-1 $62 reversed single #
loop $-1 $-1 $63 $29 #
plane-surface $-1 -24.947461322033426 -23.788010776960466 0 1 0 0 0 0 -1 forward_v I I I I #
face $-1 $64 $65 $23 $-1 $66 reversed single #
loop $-1 $-1 $67 $30 #
plane-surface $-1 -108.98665100420592 -18.4744253650905 75.953834989713371 0 1 0 -0.64278761758704617 0 0.76604443648966558 forward_v I I I I #
face $-1 $68 $69 $24 $-1 $70 forward single #
loop $-1 $71 $72 $31 #
cone-surface $-1 -40.757538550166373 -15.341119239594082 7.6323718833234322 0.64278761758704617 0 -0.76604443648966558 1.1490666547344983 0 0.96418142638056925 1 I I 0 1 1.5 forward I I I I #
face $-1 $73 $74 $25 $-1 $75 reversed single #
loop $-1 $-1 $76 $32 #
plane-surface $-1 54.74323339933337 -5.6917188092927224 140.10478442173158 0 -1 0 -0.74314483375859142 0 -0.66913059716165679 forward_v I I I I #
face $-1 $77 $78 $26 $-1 $79 forward single #
loop $-1 $80 $81 $33 #
cone-surface $-1 42.59924223565374 -14.822223492005421 8.2756089676329019 -0.74314483375859142 0 -0.66913059716165679 0.66913059716165679 0 -0.74314483375859142 1 I I 0 1 1 forward I I I I #
face $-1 $82 $83 $27 $-1 $84 forward single #
loop $-1 $85 $86 $34 #
cone-surface $-1 42.59924223565374 -9.3439206823778029 8.2756089676329019 -0.74314483375859142 0 -0.66913059716165679 0.66913059716165679 0 -0.74314483375859142 1 I I 0 1 1 forward I I I I #
face $-1 $87 $88 $21 $-1 $89 reversed single #
loop $-1 $-1 $90 $35 #
plane-surface $-1 0 0 -13.631842389694526 0 0 1 1 0 0 forward_v I I I I #
coedge $-1 $91 $92 $93 $94 forward $36 $-1 #
face $-1 $95 $96 $22 $-1 $97 reversed single #
loop $-1 $-1 $98 $38 #
plane-surface $-1 -22.684168614350234 -18.4744253650905 0 0 -1 0 0 0 -1 forward_v I I I I #
coedge $-1 $99 $100 $101 $102 forward $39 $-1 #
face $-1 $103 $104 $23 $-1 $105 reversed single #
loop $-1 $-1 $106 $41 #
plane-surface $-1 -47.684560686056081 -15.341119239594082 2.8968501496991621 -0.64278761758704617 0 0.76604443648966558 0.76604443648966558 0 0.64278761758704617 forward_v I I I I #
coedge $-1 $107 $108 $109 $110 reversed $42 $-1 #
face $-1 $-1 $111 $24 $-1 $112 forward single #
loop $-1 $113 $114 $44 #
cone-surface $-1 -39.745158351349772 -15.341119239594082 6.4258641695827663 0.64278761758704617 0 -0.76604443648966558 0.57453332736724916 0 0.48209071319028463 1 I I -0.70710678118654757 0.70710678118654757 0.75 forward I I I I #
loop $-1 $-1 $115 $31 #
coedge $-1 $72 $72 $116 $117 reversed $45 $-1 #
face $-1 $118 $119 $25 $-1 $120 reversed single #
loop $-1 $-1 $121 $47 #
plane-surface $-1 -16.129836448447868 -12.08307208719161 76.290387287227617 0.74314483375859142 0 0.66913059716165679 0.66913059716165679 0 -0.74314483375859142 forward_v I I I I #
coedge $-1 $122 $123 $124 $125 reversed $48 $-1 #
face $-1 $-1 $126 $26 $-1 $127 forward single #
loop $-1 $128 $129 $50 #
cone-surface $-1 40.840547019924195 -14.822223492005421 6.6920727221145242 -0.74314483375859142 0 -0.66913059716165679 0.3345652985808284 0 -0.37157241687929571 1 I I -0.70710678118654746 0.70710678118654746 0.5 forward I I I I #
loop $-1 $-1 $130 $33 #
coedge $-1 $81 $81 $131 $132 reversed $51 $-1 #
face $-1 $-1 $133 $27 $-1 $134 forward single #
loop $-1 $135 $136 $53 #
cone-surface $-1 40.840547019924195 -9.3439206823778029 6.6920727221145242 -0.74314483375859142 0 -0.66913059716165679 0.3345652985808284 0 -0.37157241687929571 1 I I -0.70710678118654746 0.70710678118654746 0.5 forward I I I I #
loop $-1 $-1 $137 $34 #
coedge $-1 $86 $86 $138 $139 reversed $54 $-1 #
face $-1 $140 $141 $21 $-1 $142 reversed single #
loop $-1 $-1 $143 $56 #
plane-surface $-1 0 -29.101596188830431 0 0 1 0 0 0 1 forward_v I I I I #
coedge $-1 $144 $145 $146 $147 forward $57 $-1 #
coedge $-1 $148 $59 $149 $150 forward $36 $-1 #
coedge $-1 $59 $148 $151 $152 forward $36 $-1 #
coedge $-1 $153 $154 $59 $94 reversed $155 $-1 #
edge $-1 $156 -29.101596188830431 $157 29.101596188830431 $93 $158 forward 7 unknown #
face $-1 $159 $160 $22 $-1 $161 forward single #
loop $-1 $-1 $162 $60 #
plane-surface $-1 -20.420875906667042 -23.788010776960466 0 -1 0 0 0 0 1 forward_v I I I I #
coedge $-1 $163 $164 $165 $166 forward $61 $-1 #
coedge $-1 $167 $63 $168 $169 reversed $39 $-1 #
coedge $-1 $63 $167 $170 $171 reversed $39 $-1 #
coedge $-1 $164 $163 $63 $102 reversed $61 $-1 #
edge $-1 $172 -13.631842389694526 $173 13.631842389694526 $101 $174 forward 7 unknown #
face $-1 $175 $176 $23 $-1 $177 reversed single #
loop $-1 $-1 $178 $64 #
plane-surface $-1 -108.98665100420592 -12.207813114097664 75.953834989713371 0 -1 0 0.64278761758704617 0 -0.76604443648966558 forward_v I I I I #
coedge $-1 $179 $180 $181 $182 reversed $65 $-1 #
coedge $-1 $108 $67 $183 $184 reversed $42 $-1 #
coedge $-1 $67 $107 $179 $185 reversed $42 $-1 #
coedge $-1 $181 $186 $67 $110 forward $187 $-1 #
edge $-1 $188 6.8087648160468675 $189 19.602230116573708 $109 $190 forward 7 unknown #
loop $-1 $-1 $116 $68 #
plane-surface $-1 -47.684560686056081 -15.341119239594082 2.8968501496991621 -0.64278761758704617 0 0.76604443648966558 0.76604443648966558 0 0.64278761758704617 forward_v I I I I #
loop $-1 $-1 $191 $44 #
coedge $-1 $114 $114 $115 $192 reversed $69 $-1 #
coedge $-1 $115 $115 $114 $192 forward $71 $-1 #
coedge $-1 $116 $116 $72 $117 forward $111 $-1 #
edge $-1 $193 0 $193 6.2831853071796004 $116 $194 forward 7 unknown #
face $-1 $195 $196 $25 $-1 $197 forward single #
loop $-1 $-1 $198 $73 #
plane-surface $-1 54.74323339933337 -18.474425365090497 140.10478442173158 0 1 0 0.74314483375859142 0 0.66913059716165679 forward_v I I I I #
coedge $-1 $199 $200 $201 $202 reversed $74 $-1 #
coedge $-1 $123 $76 $203 $204 reversed $48 $-1 #
coedge $-1 $76 $122 $199 $205 reversed $48 $-1 #
coedge $-1 $201 $206 $76 $125 forward $196 $-1 #
edge $-1 $207 -20.31294398638941 $208 -12.916552683285186 $124 $209 forward 7 unknown #
loop $-1 $-1 $131 $77 #
plane-surface $-1 -16.129836448447868 -12.08307208719161 76.290387287227617 0.74314483375859142 0 0.66913059716165679 0.66913059716165679 0 -0.74314483375859142 forward_v I I I I #
loop $-1 $-1 $210 $50 #
coedge $-1 $129 $129 $130 $211 reversed $78 $-1 #
coedge $-1 $130 $130 $129 $211 forward $80 $-1 #
coedge $-1 $131 $131 $81 $132 forward $126 $-1 #
edge $-1 $212 0 $212 6.2831853071796004 $131 $213 forward 7 unknown #
loop $-1 $-1 $138 $82 #
plane-surface $-1 -16.129836448447868 -12.08307208719161 76.290387287227617 0.74314483375859142 0 0.66913059716165679 0.66913059716165679 0 -0.74314483375859142 forward_v I I I I #
loop $-1 $-1 $214 $53 #
coedge $-1 $136 $136 $137 $215 reversed $83 $-1 #
coedge $-1 $137 $137 $136 $215 forward $85 $-1 #
coedge $-1 $138 $138 $86 $139 forward $133 $-1 #
edge $-1 $216 0 $216 6.2831853071796004 $138 $217 forward 7 unknown #
face $-1 $218 $219 $21 $-1 $220 reversed single #
loop $-1 $-1 $221 $87 #
plane-surface $-1 -47.684560686056095 0 0 1 0 0 0 0 -1 forward_v I I I I #
coedge $-1 $222 $151 $223 $224 forward $88 $-1 #
coedge $-1 $225 $90 $222 $226 forward $57 $-1 #
coedge $-1 $90 $225 $227 $228 forward $57 $-1 #
coedge $-1 $154 $153 $90 $147 reversed $155 $-1 #
edge $-1 $229 -29.101596188830431 $230 29.101596188830431 $146 $231 forward 7 unknown #
coedge $-1 $92 $91 $232 $233 forward $36 $-1 #
coedge $-1 $234 $235 $91 $150 reversed $219 $-1 #
edge $-1 $157 -47.684560686056095 $236 47.684560686056095 $149 $237 forward 7 unknown #
coedge $-1 $143 $238 $92 $152 reversed $88 $-1 #
edge $-1 $239 -47.684560686056095 $156 47.684560686056095 $151 $240 forward 7 unknown #
coedge $-1 $146 $93 $238 $241 forward $155 $-1 #
coedge $-1 $93 $146 $234 $242 reversed $155 $-1 #
loop $-1 $-1 $153 $218 #
vertex $-1 $94 $243 #
vertex $-1 $94 $244 #
straight-curve $-1 47.684560686056095 0 13.631842389694526 0 1 0 I I #
face $-1 $245 $246 $22 $-1 $247 reversed single #
loop $-1 $-1 $248 $95 #
plane-surface $-1 0 0 13.631842389694526 0 0 1 1 0 0 forward_v I I I I #
coedge $-1 $249 $250 $251 $252 reversed $96 $-1 #
coedge $-1 $101 $98 $253 $254 reversed $61 $-1 #
coedge $-1 $98 $101 $255 $256 reversed $61 $-1 #
coedge $-1 $250 $249 $98 $166 reversed $96 $-1 #
edge $-1 $257 -13.631842389694526 $258 13.631842389694526 $165 $259 forward 7 unknown #
coedge $-1 $100 $99 $260 $261 reversed $39 $-1 #
coedge $-1 $253 $262 $99 $169 forward $246 $-1 #
edge $-1 $263 -17.207590800350197 $173 -6.5804199766102673 $168 $264 forward 7 unknown #
coedge $-1 $265 $255 $100 $171 forward $160 $-1 #
edge $-1 $172 6.5804199766102673 $266 17.207590800350197 $170 $267 forward 7 unknown #
vertex $-1 $171 $268 #
vertex $-1 $169 $269 #
straight-curve $-1 -24.947461322033426 -18.4744253650905 0 0 0 -1 I I #
face $-1 $-1 $187 $23 $-1 $270 forward single #
loop $-1 $-1 $271 $103 #
plane-surface $-1 -47.684560686056095 0 0 1 0 0 0 0 -1 forward_v I I I I #
coedge $-1 $272 $273 $274 $275 reversed $104 $-1 #
coedge $-1 $276 $106 $108 $185 forward $65 $-1 #
coedge $-1 $106 $276 $272 $277 forward $65 $-1 #
coedge $-1 $274 $109 $106 $182 forward $187 $-1 #
edge $-1 $189 -10.803865745293459 $278 -4.5372534943006233 $181 $279 forward 7 unknown #
coedge $-1 $280 $281 $107 $184 forward $176 $-1 #
edge $-1 $282 -35.080067345157538 $188 -24.345075105162159 $183 $283 forward 7 unknown #
edge $-1 $189 -16.700683003654209 $282 1.8593432412625586e-014 $108 $284 forward 7 unknown #
coedge $-1 $109 $274 $280 $285 forward $187 $-1 #
loop $-1 $-1 $274 $175 #
vertex $-1 $184 $286 #
vertex $-1 $110 $287 #
straight-curve $-1 -54.493325502102962 -18.4744253650905 13.631842389694526 1 0 0 I I #
coedge $-1 $191 $191 $-1 $288 reversed $113 $-1 #
edge $-1 $289 0 $289 6.2831853071796004 $114 $290 forward 7 unknown #
vertex $-1 $117 $291 #
ellipse-curve $-1 -41.287828035792678 -15.341119239594082 8.2643462696968371 -0.64278761758704617 0 0.76604443648966558 1.1490666547344983 0 0.96418142638056925 1 I I #
face $-1 $-1 $292 $25 $-1 $293 reversed single #
loop $-1 $-1 $124 $118 #
plane-surface $-1 0 0 13.631842389694526 0 0 1 1 0 0 forward_v I I I I #
coedge $-1 $294 $295 $296 $297 reversed $119 $-1 #
coedge $-1 $298 $121 $123 $205 forward $74 $-1 #
coedge $-1 $121 $298 $294 $299 forward $74 $-1 #
coedge $-1 $296 $124 $121 $202 forward $196 $-1 #
edge $-1 $208 -0.34981723430308254 $300 12.432889321494692 $201 $301 forward 7 unknown #
coedge $-1 $302 $303 $122 $204 forward $292 $-1 #
edge $-1 $304 -64.635074771419426 $207 -56.420549821171264 $203 $305 forward 7 unknown #
edge $-1 $208 84.315387864066807 $304 95.36912137211219 $123 $306 forward 7 unknown #
coedge $-1 $124 $296 $302 $307 forward $196 $-1 #
vertex $-1 $204 $308 #
vertex $-1 $125 $309 #
straight-curve $-1 27.371616699666685 -5.6917188092927224 13.631842389694526 -1 0 0 I I #
coedge $-1 $210 $210 $-1 $310 reversed $128 $-1 #
edge $-1 $311 0 $311 6.2831853071796004 $129 $312 forward 7 unknown #
vertex $-1 $132 $313 #
ellipse-curve $-1 43.986365034503983 -14.822223492005421 9.5245799145704435 0.74314483375859142 0 0.66913059716165679 0.66913059716165679 0 -0.74314483375859142 1 I I #
coedge $-1 $214 $214 $-1 $314 reversed $135 $-1 #
edge $-1 $315 0 $315 6.2831853071796004 $136 $316 forward 7 unknown #
vertex $-1 $139 $317 #
ellipse-curve $-1 43.986365034503983 -9.3439206823778029 9.5245799145704435 0.74314483375859142 0 0.66913059716165679 0.66913059716165679 0 -0.74314483375859142 1 I I #
face $-1 $-1 $155 $21 $-1 $318 reversed single #
loop $-1 $-1 $234 $140 #
plane-surface $-1 0 29.101596188830431 0 0 -1 0 0 0 -1 forward_v I I I I #
coedge $-1 $319 $232 $235 $320 forward $141 $-1 #
coedge $-1 $238 $143 $144 $226 reversed $88 $-1 #
coedge $-1 $232 $319 $143 $224 reversed $141 $-1 #
edge $-1 $239 -13.631842389694526 $321 13.631842389694526 $223 $322 forward 7 unknown #
coedge $-1 $145 $144 $319 $323 forward $57 $-1 #
edge $-1 $230 -47.684560686056095 $321 47.684560686056095 $222 $324 forward 7 unknown #
coedge $-1 $235 $234 $145 $228 reversed $219 $-1 #
edge $-1 $325 -47.684560686056095 $229 47.684560686056095 $227 $326 forward 7 unknown #
vertex $-1 $147 $327 #
vertex $-1 $241 $328 #
straight-curve $-1 47.684560686056095 0 -13.631842389694526 0 -1 0 I I #
coedge $-1 $221 $223 $148 $233 reversed $141 $-1 #
edge $-1 $236 -29.101596188830431 $239 29.101596188830431 $232 $329 forward 7 unknown #
coedge $-1 $227 $149 $154 $242 forward $219 $-1 #
coedge $-1 $149 $227 $221 $320 reversed $219 $-1 #
vertex $-1 $150 $330 #
straight-curve $-1 0 29.101596188830431 13.631842389694526 -1 0 0 I I #
coedge $-1 $151 $222 $153 $241 reversed $88 $-1 #
vertex $-1 $233 $331 #
straight-curve $-1 0 -29.101596188830431 13.631842389694526 1 0 0 I I #
edge $-1 $156 -13.631842389694526 $230 13.631842389694526 $153 $332 forward 7 unknown #
edge $-1 $157 -13.631842389694526 $229 13.631842389694526 $154 $333 forward 7 unknown #
point $-1 47.684560686056095 -29.101596188830431 13.631842389694526 #
point $-1 47.684560686056095 29.101596188830431 13.631842389694526 #
face $-1 $-1 $334 $22 $-1 $335 reversed single #
loop $-1 $-1 $336 $159 #
plane-surface $-1 0 0 -13.631842389694526 0 0 1 1 0 0 forward_v I I I I #
coedge $-1 $255 $265 $250 $337 forward $160 $-1 #
coedge $-1 $165 $162 $336 $338 reversed $96 $-1 #
coedge $-1 $162 $165 $248 $337 reversed $96 $-1 #
coedge $-1 $339 $340 $162 $252 forward $334 $-1 #
edge $-1 $341 -13.631842389694526 $342 13.631842389694526 $251 $343 forward 7 unknown #
coedge $-1 $336 $168 $163 $254 forward $246 $-1 #
edge $-1 $173 -13.605377014858309 $258 -9.0787915994919253 $253 $344 forward 7 unknown #
coedge $-1 $170 $248 $164 $256 forward $160 $-1 #
edge $-1 $257 9.0787915994919253 $172 13.605377014858309 $255 $345 forward 7 unknown #
vertex $-1 $256 $346 #
vertex $-1 $254 $347 #
straight-curve $-1 -20.420875906667042 -18.4744253650905 0 0 0 -1 I I #
coedge $-1 $340 $339 $167 $261 forward $334 $-1 #
edge $-1 $266 -13.631842389694526 $263 13.631842389694526 $260 $348 forward 7 unknown #
coedge $-1 $168 $336 $340 $349 forward $246 $-1 #
vertex $-1 $169 $350 #
straight-curve $-1 -24.947461322033426 -11.894005388480233 -13.631842389694526 0 1 0 I I #
coedge $-1 $248 $170 $339 $351 forward $160 $-1 #
vertex $-1 $351 $352 #
straight-curve $-1 -24.947461322033426 -11.894005388480233 13.631842389694526 0 -1 0 I I #
point $-1 -24.947461322033426 -18.4744253650905 13.631842389694526 #
point $-1 -24.947461322033426 -18.4744253650905 -13.631842389694526 #
plane-surface $-1 0 0 13.631842389694526 0 0 1 1 0 0 forward_v I I I I #
coedge $-1 $281 $280 $273 $353 forward $176 $-1 #
coedge $-1 $273 $178 $180 $277 reversed $104 $-1 #
coedge $-1 $178 $272 $271 $353 reversed $104 $-1 #
coedge $-1 $186 $181 $178 $275 forward $187 $-1 #
edge $-1 $278 -19.602230116573708 $354 -6.8087648160468675 $274 $355 forward 7 unknown #
coedge $-1 $180 $179 $281 $356 reversed $65 $-1 #
edge $-1 $357 -1.8593432412625586e-014 $278 16.700683003654209 $272 $358 forward 7 unknown #
vertex $-1 $182 $359 #
straight-curve $-1 -34.891095385529255 -7.6705596197970412 13.631842389694526 0 1 0 I I #
coedge $-1 $271 $183 $186 $285 reversed $176 $-1 #
coedge $-1 $183 $271 $276 $356 forward $176 $-1 #
vertex $-1 $184 $360 #
straight-curve $-1 -47.684560686056095 -18.4744253650905 37.976917494856686 0 0 1 I I #
straight-curve $-1 -47.684560686056081 -18.4744253650905 2.8968501496991621 -0.76604443648966558 0 -0.64278761758704617 I I #
edge $-1 $354 12.207813114097664 $188 18.4744253650905 $280 $361 forward 7 unknown #
point $-1 -47.684560686056095 -18.4744253650905 13.631842389694526 #
point $-1 -34.891095385529255 -18.4744253650905 13.631842389694526 #
edge $-1 $362 1 $362 0 $191 $-1 forward 7 unknown #
vertex $-1 $192 $363 #
ellipse-curve $-1 -40.227249064540054 -15.341119239594082 7.0003974969500158 -0.64278761758704617 0 0.76604443648966558 1.1490666547344983 0 0.96418142638056925 1 I I #
point $-1 -40.138761381058188 -15.341119239594082 9.2285276960774176 #
loop $-1 $-1 $203 $195 #
plane-surface $-1 47.684560686056095 0 0 -1 0 0 0 0 1 forward_v I I I I #
coedge $-1 $295 $198 $200 $299 reversed $119 $-1 #
coedge $-1 $198 $294 $364 $365 reversed $119 $-1 #
coedge $-1 $206 $201 $198 $297 forward $196 $-1 #
edge $-1 $300 12.916552683285186 $366 20.31294398638941 $296 $367 forward 7 unknown #
coedge $-1 $200 $199 $303 $368 reversed $74 $-1 #
edge $-1 $369 -95.36912137211219 $300 -84.315387864066807 $294 $370 forward 7 unknown #
vertex $-1 $202 $371 #
straight-curve $-1 40.288169382951864 -6.041536043595805 13.631842389694526 0 -1 0 I I #
coedge $-1 $364 $203 $206 $307 reversed $292 $-1 #
coedge $-1 $203 $364 $298 $368 forward $292 $-1 #
vertex $-1 $204 $372 #
straight-curve $-1 47.684560686056095 -5.6917188092927224 70.05239221086579 0 0 1 I I #
straight-curve $-1 -16.129836448447868 -5.6917188092927224 76.290387287227617 0.66913059716165679 0 -0.74314483375859142 I I #
edge $-1 $366 -18.474425365090497 $207 -5.6917188092927224 $302 $373 forward 7 unknown #
point $-1 47.684560686056095 -5.6917188092927224 13.631842389694526 #
point $-1 40.288169382951871 -5.6917188092927224 13.631842389694526 #
edge $-1 $374 1 $374 0 $210 $-1 forward 7 unknown #
vertex $-1 $211 $375 #
ellipse-curve $-1 41.212119436803491 -14.822223492005421 7.0266380206953523 0.74314483375859142 0 0.66913059716165679 0.66913059716165679 0 -0.74314483375859142 1 I I #
point $-1 44.655495631665644 -14.822223492005421 8.7814350808118604 #
edge $-1 $376 1 $376 0 $214 $-1 forward 7 unknown #
vertex $-1 $215 $377 #
ellipse-curve $-1 41.212119436803491 -9.3439206823778029 7.0266380206953523 0.74314483375859142 0 0.66913059716165679 0.66913059716165679 0 -0.74314483375859142 1 I I #
point $-1 44.655495631665644 -9.3439206823778029 8.7814350808118604 #
plane-surface $-1 47.684560686056095 0 0 -1 0 0 0 0 1 forward_v I I I I #
coedge $-1 $223 $221 $225 $323 reversed $141 $-1 #
edge $-1 $236 -13.631842389694526 $325 13.631842389694526 $235 $378 forward 7 unknown #
vertex $-1 $323 $379 #
straight-curve $-1 -47.684560686056095 -29.101596188830431 0 0 0 -1 I I #
edge $-1 $321 -29.101596188830431 $325 29.101596188830431 $319 $380 forward 7 unknown #
straight-curve $-1 0 -29.101596188830431 -13.631842389694526 -1 0 0 I I #
vertex $-1 $228 $381 #
straight-curve $-1 0 29.101596188830431 -13.631842389694526 1 0 0 I I #
point $-1 47.684560686056095 29.101596188830431 -13.631842389694526 #
point $-1 47.684560686056095 -29.101596188830431 -13.631842389694526 #
straight-curve $-1 -47.684560686056095 0 13.631842389694526 0 -1 0 I I #
point $-1 -47.684560686056095 29.101596188830431 13.631842389694526 #
point $-1 -47.684560686056095 -29.101596188830431 13.631842389694526 #
straight-curve $-1 47.684560686056095 -29.101596188830431 0 0 0 -1 I I #
straight-curve $-1 47.684560686056095 29.101596188830431 0 0 0 -1 I I #
loop $-1 $-1 $251 $245 #
plane-surface $-1 0 -29.101596188830431 0 0 1 0 0 0 1 forward_v I I I I #
coedge $-1 $262 $253 $249 $338 forward $246 $-1 #
edge $-1 $342 -17.207590800350197 $257 -6.5804199766102673 $248 $382 forward 7 unknown #
edge $-1 $258 6.5804199766102673 $341 17.207590800350197 $336 $383 forward 7 unknown #
coedge $-1 $260 $251 $265 $351 reversed $334 $-1 #
coedge $-1 $251 $260 $262 $349 reversed $334 $-1 #
vertex $-1 $349 $384 #
vertex $-1 $252 $385 #
straight-curve $-1 -20.420875906667042 -29.101596188830431 0 0 0 1 I I #
straight-curve $-1 -11.342084307175117 -18.4744253650905 -13.631842389694526 1 0 0 I I #
straight-curve $-1 -11.342084307175117 -18.4744253650905 13.631842389694526 -1 0 0 I I #
point $-1 -20.420875906667042 -18.4744253650905 13.631842389694526 #
point $-1 -20.420875906667042 -18.4744253650905 -13.631842389694526 #
straight-curve $-1 -24.947461322033426 -29.101596188830431 0 0 0 -1 I I #
edge $-1 $341 20.420875906667042 $263 24.947461322033426 $340 $386 forward 7 unknown #
point $-1 -24.947461322033426 -29.101596188830431 -13.631842389694526 #
edge $-1 $266 -24.947461322033426 $342 -20.420875906667042 $339 $387 forward 7 unknown #
point $-1 -24.947461322033426 -29.101596188830431 13.631842389694526 #
edge $-1 $354 24.345075105162159 $357 35.080067345157538 $271 $388 forward 7 unknown #
vertex $-1 $285 $389 #
straight-curve $-1 -54.493325502102962 -12.207813114097664 13.631842389694526 -1 0 0 I I #
edge $-1 $357 4.5372534943006233 $282 10.803865745293459 $281 $390 forward 7 unknown #
vertex $-1 $356 $391 #
straight-curve $-1 -47.684560686056081 -12.207813114097664 2.8968501496991621 0.76604443648966558 0 0.64278761758704617 I I #
point $-1 -34.891095385529255 -12.207813114097664 13.631842389694526 #
point $-1 -47.684560686056095 -18.4744253650905 2.8968501496991501 #
straight-curve $-1 -47.684560686056095 0 13.631842389694526 0 -1 0 I I #
vertex $-1 $288 $392 #
point $-1 -39.078182409805557 -15.341119239594082 7.9645789233305848 #
coedge $-1 $303 $302 $295 $365 forward $292 $-1 #
edge $-1 $366 56.420549821171264 $369 64.635074771419426 $364 $393 forward 7 unknown #
vertex $-1 $307 $394 #
straight-curve $-1 27.371616699666685 -18.474425365090497 13.631842389694526 1 0 0 I I #
edge $-1 $369 -12.432889321494692 $304 0.34981723430308254 $303 $395 forward 7 unknown #
vertex $-1 $368 $396 #
straight-curve $-1 -16.129836448447868 -18.474425365090497 76.290387287227617 -0.66913059716165679 0 0.74314483375859142 I I #
point $-1 40.288169382951871 -18.474425365090497 13.631842389694526 #
point $-1 47.684560686056095 -5.6917188092927224 5.4173174394463643 #
straight-curve $-1 47.684560686056095 0 13.631842389694526 0 1 0 I I #
vertex $-1 $310 $397 #
point $-1 41.881250033965145 -14.822223492005421 6.2834931869367612 #
vertex $-1 $314 $398 #
point $-1 41.881250033965145 -9.3439206823778029 6.2834931869367612 #
straight-curve $-1 -47.684560686056095 29.101596188830431 0 0 0 -1 I I #
point $-1 -47.684560686056095 -29.101596188830431 -13.631842389694526 #
straight-curve $-1 -47.684560686056095 0 -13.631842389694526 0 1 0 I I #
point $-1 -47.684560686056095 29.101596188830431 -13.631842389694526 #
straight-curve $-1 -20.420875906667042 -11.894005388480233 13.631842389694526 0 1 0 I I #
straight-curve $-1 -20.420875906667042 -11.894005388480233 -13.631842389694526 0 -1 0 I I #
point $-1 -20.420875906667042 -29.101596188830431 -13.631842389694526 #
point $-1 -20.420875906667042 -29.101596188830431 13.631842389694526 #
straight-curve $-1 0 -29.101596188830431 -13.631842389694526 -1 0 0 I I #
straight-curve $-1 0 -29.101596188830431 13.631842389694526 1 0 0 I I #
straight-curve $-1 -47.684560686056095 -12.207813114097664 37.976917494856686 0 0 -1 I I #
point $-1 -47.684560686056095 -12.207813114097664 13.631842389694526 #
straight-curve $-1 -47.684560686056095 -7.6705596197970412 2.8968501496991523 0 -1 0 I I #
point $-1 -47.684560686056095 -12.207813114097664 2.8968501496991501 #
point $-1 -39.263067638159491 -15.341119239594082 5.8513308422155168 #
straight-curve $-1 47.684560686056095 -18.474425365090497 70.05239221086579 0 0 -1 I I #
point $-1 47.684560686056095 -18.474425365090497 13.631842389694526 #
straight-curve $-1 47.684560686056095 -6.041536043595805 5.4173174394463643 0 1 0 I I #
point $-1 47.684560686056095 -18.474425365090497 5.4173174394463643 #
point $-1 40.468974603044899 -14.822223492005421 6.3575074235336961 #
point $-1 40.468974603044899 -9.3439206823778029 6.3575074235336961 #
End-of-ACIS-data 