500 0 9 0           
7 Unknown 11 ACIS 5.0 NT 24 Thu Mar 25 19:30:26 1999 
-1 9.9999999999999995e-007 1e-010 
body $-1 $9 $-1 $10 #
body $-1 $11 $-1 $12 #
body $-1 $13 $-1 $14 #
body $-1 $15 $-1 $16 #
body $-1 $17 $-1 $18 #
body $-1 $19 $-1 $20 #
body $-1 $21 $-1 $22 #
body $-1 $23 $-1 $24 #
body $-1 $25 $-1 $26 #
lump $-1 $-1 $27 $0 #
transform $-1 1 0 0 0 1 0 0 0 1 64.398937955870238 40.802241011396688 13.370961746030314 1 rotate no_reflect no_shear #
lump $-1 $-1 $28 $1 #
transform $-1 1 0 0 0 1 0 0 0 1 64.398937955870238 40.802241011396688 13.370961746030314 1 rotate no_reflect no_shear #
lump $-1 $-1 $29 $2 #
transform $-1 1 0 0 0 1 0 0 0 1 64.398937955870238 40.802241011396688 13.370961746030314 1 rotate no_reflect no_shear #
lump $-1 $-1 $30 $3 #
transform $-1 1 0 0 0 1 0 0 0 1 64.398937955870238 40.802241011396688 13.370961746030314 1 rotate no_reflect no_shear #
lump $-1 $-1 $31 $4 #
transform $-1 1 0 0 0 1 0 0 0 1 64.398937955870238 40.802241011396688 13.370961746030314 1 rotate no_reflect no_shear #
lump $-1 $-1 $32 $5 #
transform $-1 1 0 0 0 1 0 0 0 1 64.398937955870238 40.802241011396688 13.370961746030314 1 rotate no_reflect no_shear #
lump $-1 $-1 $33 $6 #
transform $-1 1 0 0 0 1 0 0 0 1 64.398937955870238 40.802241011396688 13.370961746030314 1 rotate no_reflect no_shear #
lump $-1 $-1 $34 $7 #
transform $-1 1 0 0 0 1 0 0 0 1 64.398937955870238 40.802241011396688 13.370961746030314 1 rotate no_reflect no_shear #
lump $-1 $-1 $35 $8 #
transform $-1 1 0 0 0 1 0 0 0 1 64.398937955870238 40.802241011396688 13.370961746030314 1 rotate no_reflect no_shear #
shell $-1 $-1 $-1 $36 $-1 $9 #
shell $-1 $-1 $-1 $37 $-1 $11 #
shell $-1 $-1 $-1 $38 $-1 $13 #
shell $-1 $-1 $-1 $39 $-1 $15 #
shell $-1 $-1 $-1 $40 $-1 $17 #
shell $-1 $-1 $-1 $41 $-1 $19 #
shell $-1 $-1 $-1 $42 $-1 $21 #
shell $-1 $-1 $-1 $43 $-1 $23 #
shell $-1 $-1 $-1 $44 $-1 $25 #
face $-1 $45 $46 $27 $-1 $47 forward single #
face $-1 $48 $49 $28 $-1 $50 reversed single #
face $-1 $51 $52 $29 $-1 $53 forward single #
face $-1 $54 $55 $30 $-1 $56 reversed single #
face $-1 $57 $58 $31 $-1 $59 forward single #
face $-1 $60 $61 $32 $-1 $62 reversed single #
face $-1 $63 $64 $33 $-1 $65 forward single #
face $-1 $66 $67 $34 $-1 $68 forward single #
face $-1 $69 $70 $35 $-1 $71 forward single #
face $-1 $72 $73 $27 $-1 $74 reversed single #
loop $-1 $-1 $75 $36 #
plane-surface $-1 0 0 13.370961746030314 0 0 1 1 0 0 forward_v I I I I #
face $-1 $76 $77 $28 $-1 $78 reversed single #
loop $-1 $-1 $79 $37 #
plane-surface $-1 -46.898092668312259 61.079261372794562 151.26262420905903 1 0 0 0 -0.64278761758704617 -0.76604443648966558 forward_v I I I I #
face $-1 $80 $81 $29 $-1 $82 forward single #
loop $-1 $83 $84 $38 #
cone-surface $-1 -35.322714242496986 31.711524230459624 5.3166894627226897 0 -0.64278761758704617 -0.76604443648966558 3 0 0 1 I I 0 1 3 forward I I I I #
face $-1 $85 $86 $30 $-1 $87 reversed single #
loop $-1 $-1 $88 $39 #
plane-surface $-1 23.747335816681716 61.079261372794562 151.26262420905903 1 0 0 0 -0.64278761758704617 -0.76604443648966558 forward_v I I I I #
face $-1 $89 $90 $31 $-1 $91 forward single #
loop $-1 $92 $93 $40 #
cone-surface $-1 35.322714242496986 31.711524230459624 5.3166894627226897 0 -0.64278761758704617 -0.76604443648966558 3 0 0 1 I I 0 1 3 forward I I I I #
face $-1 $94 $95 $32 $-1 $96 reversed single #
loop $-1 $-1 $97 $41 #
plane-surface $-1 31.418307005744353 -151.20356965194478 73.240709699552298 -1 0 0 0 -0.85716730853699208 0.51503806187062418 forward_v I I I I #
face $-1 $98 $99 $33 $-1 $100 forward single #
loop $-1 $101 $102 $42 #
cone-surface $-1 6.936215562259008 -36.575958170250701 8.7657567750350527 0 0.85716730853699208 -0.51503806187062418 1.5 0 0 1 I I 0 1 1.5 forward I I I I #
face $-1 $103 $104 $34 $-1 $105 forward single #
loop $-1 $106 $107 $43 #
cone-surface $-1 16.116999853566014 -36.575958170250701 8.7657567750350527 0 0.85716730853699208 -0.51503806187062418 1.5 0 0 1 I I 0 1 1.5 forward I I I I #
face $-1 $108 $109 $35 $-1 $110 forward single #
loop $-1 $111 $112 $44 #
cone-surface $-1 25.29778414487302 -36.575958170250701 8.7657567750350527 0 0.85716730853699208 -0.51503806187062418 1.5 0 0 1 I I 0 1 1.5 forward I I I I #
face $-1 $113 $114 $27 $-1 $115 reversed single #
loop $-1 $-1 $116 $45 #
plane-surface $-1 0 0 -13.370961746030314 0 0 1 1 0 0 forward_v I I I I #
coedge $-1 $117 $118 $119 $120 forward $46 $-1 #
face $-1 $121 $122 $28 $-1 $123 reversed single #
loop $-1 $-1 $124 $48 #
plane-surface $-1 -35.322714242496986 -21.710418434785097 52.597727935183926 0 0.64278761758704617 0.76604443648966558 1 0 0 forward_v I I I I #
coedge $-1 $125 $126 $127 $128 reversed $49 $-1 #
face $-1 $-1 $129 $29 $-1 $130 forward single #
loop $-1 $131 $132 $51 #
cone-surface $-1 -35.322714242496986 29.538636469918629 2.7271427220319246 0 -0.64278761758704617 -0.76604443648966558 1.5 0 0 1 I I -0.70710678118654757 0.70710678118654757 1.5 forward I I I I #
loop $-1 $-1 $133 $38 #
coedge $-1 $84 $84 $134 $135 reversed $52 $-1 #
face $-1 $136 $137 $30 $-1 $138 reversed single #
loop $-1 $-1 $139 $54 #
plane-surface $-1 35.322714242496986 -21.710418434785097 52.597727935183926 0 0.64278761758704617 0.76604443648966558 1 0 0 forward_v I I I I #
coedge $-1 $140 $141 $142 $143 reversed $55 $-1 #
face $-1 $-1 $144 $31 $-1 $145 forward single #
loop $-1 $146 $147 $57 #
cone-surface $-1 35.322714242496986 29.538636469918629 2.7271427220319246 0 -0.64278761758704617 -0.76604443648966558 1.5 0 0 1 I I -0.70710678118654757 0.70710678118654757 1.5 forward I I I I #
loop $-1 $-1 $148 $40 #
coedge $-1 $93 $93 $149 $150 reversed $58 $-1 #
face $-1 $151 $152 $32 $-1 $153 reversed single #
loop $-1 $-1 $154 $60 #
plane-surface $-1 16.116999853566014 -40.802241011396703 6.9049013169163374 0 -0.85716730853699208 0.51503806187062418 1 0 0 forward_v I I I I #
coedge $-1 $155 $156 $157 $158 reversed $61 $-1 #
face $-1 $-1 $159 $33 $-1 $160 forward single #
loop $-1 $161 $162 $63 #
cone-surface $-1 6.936215562259008 -33.649400316817662 7.0073034721938185 0 0.85716730853699208 -0.51503806187062418 0.75 0 0 1 I I -0.70710678118654757 0.70710678118654757 0.75 forward I I I I #
loop $-1 $-1 $163 $42 #
coedge $-1 $102 $102 $164 $165 reversed $64 $-1 #
face $-1 $-1 $166 $34 $-1 $167 forward single #
loop $-1 $168 $169 $66 #
cone-surface $-1 16.116999853566014 -33.649400316817662 7.0073034721938185 0 0.85716730853699208 -0.51503806187062418 0.75 0 0 1 I I -0.70710678118654757 0.70710678118654757 0.75 forward I I I I #
loop $-1 $-1 $170 $43 #
coedge $-1 $107 $107 $171 $172 reversed $67 $-1 #
face $-1 $-1 $173 $35 $-1 $174 forward single #
loop $-1 $175 $176 $69 #
cone-surface $-1 25.29778414487302 -33.649400316817662 7.0073034721938185 0 0.85716730853699208 -0.51503806187062418 0.75 0 0 1 I I -0.70710678118654757 0.70710678118654757 0.75 forward I I I I #
loop $-1 $-1 $177 $44 #
coedge $-1 $112 $112 $178 $179 reversed $70 $-1 #
face $-1 $180 $181 $27 $-1 $182 reversed single #
loop $-1 $-1 $183 $72 #
plane-surface $-1 0 -40.802241011396688 0 0 1 0 0 0 1 forward_v I I I I #
coedge $-1 $184 $185 $186 $187 forward $73 $-1 #
coedge $-1 $188 $75 $189 $190 forward $46 $-1 #
coedge $-1 $75 $188 $191 $192 forward $46 $-1 #
coedge $-1 $193 $194 $75 $120 reversed $195 $-1 #
edge $-1 $196 -40.802241011396688 $197 40.802241011396688 $119 $198 forward 7 unknown #
face $-1 $199 $200 $28 $-1 $201 reversed single #
loop $-1 $-1 $202 $76 #
plane-surface $-1 -23.747335816681716 61.079261372794562 151.26262420905903 -1 0 0 0 0.64278761758704617 0.76604443648966558 forward_v I I I I #
coedge $-1 $203 $204 $205 $206 reversed $77 $-1 #
coedge $-1 $126 $79 $207 $208 reversed $49 $-1 #
coedge $-1 $79 $125 $203 $209 reversed $49 $-1 #
coedge $-1 $205 $210 $79 $128 forward $211 $-1 #
edge $-1 $212 -10.262610324999407 $213 5.5014105685538297 $127 $214 forward 7 unknown #
loop $-1 $-1 $134 $80 #
plane-surface $-1 -35.322714242496986 -21.710418434785097 52.597727935183926 0 0.64278761758704617 0.76604443648966558 1 0 0 forward_v I I I I #
loop $-1 $-1 $215 $51 #
coedge $-1 $132 $132 $133 $216 reversed $81 $-1 #
coedge $-1 $133 $133 $132 $216 forward $83 $-1 #
coedge $-1 $134 $134 $84 $135 forward $129 $-1 #
edge $-1 $217 -1.1457891918651628e-016 $217 6.2831853071796004 $134 $218 forward 7 unknown #
face $-1 $219 $220 $30 $-1 $221 forward single #
loop $-1 $-1 $222 $85 #
plane-surface $-1 46.898092668312259 61.079261372794562 151.26262420905903 -1 0 0 0 0.64278761758704617 0.76604443648966558 forward_v I I I I #
coedge $-1 $223 $224 $225 $226 reversed $86 $-1 #
coedge $-1 $141 $88 $227 $228 reversed $55 $-1 #
coedge $-1 $88 $140 $223 $229 reversed $55 $-1 #
coedge $-1 $225 $230 $88 $143 forward $220 $-1 #
edge $-1 $231 -10.262610324999407 $232 5.5014105685538297 $142 $233 forward 7 unknown #
loop $-1 $-1 $149 $89 #
plane-surface $-1 35.322714242496986 -21.710418434785097 52.597727935183926 0 0.64278761758704617 0.76604443648966558 1 0 0 forward_v I I I I #
loop $-1 $-1 $234 $57 #
coedge $-1 $147 $147 $148 $235 reversed $90 $-1 #
coedge $-1 $148 $148 $147 $235 forward $92 $-1 #
coedge $-1 $149 $149 $93 $150 forward $144 $-1 #
edge $-1 $236 -1.1457891918651628e-016 $236 6.2831853071796004 $149 $237 forward 7 unknown #
face $-1 $238 $239 $32 $-1 $240 reversed single #
loop $-1 $-1 $241 $94 #
plane-surface $-1 0.81569270138767536 -151.20356965194478 73.240709699552298 1 0 0 0 0.85716730853699208 -0.51503806187062418 forward_v I I I I #
coedge $-1 $242 $243 $244 $245 reversed $95 $-1 #
coedge $-1 $156 $97 $246 $247 reversed $61 $-1 #
coedge $-1 $97 $155 $242 $248 reversed $61 $-1 #
coedge $-1 $244 $249 $97 $158 forward $250 $-1 #
edge $-1 $251 34.799543814575699 $252 38.684744752807077 $157 $253 forward 7 unknown #
loop $-1 $-1 $164 $98 #
plane-surface $-1 16.116999853566014 -40.802241011396703 6.9049013169163374 0 -0.85716730853699208 0.51503806187062418 1 0 0 forward_v I I I I #
loop $-1 $-1 $254 $63 #
coedge $-1 $162 $162 $163 $255 reversed $99 $-1 #
coedge $-1 $163 $163 $162 $255 forward $101 $-1 #
coedge $-1 $164 $164 $102 $165 forward $159 $-1 #
edge $-1 $256 1.834150691301792e-015 $256 6.2831853071796022 $164 $257 forward 7 unknown #
loop $-1 $-1 $171 $103 #
plane-surface $-1 16.116999853566014 -40.802241011396703 6.9049013169163374 0 -0.85716730853699208 0.51503806187062418 1 0 0 forward_v I I I I #
loop $-1 $-1 $258 $66 #
coedge $-1 $169 $169 $170 $259 reversed $104 $-1 #
coedge $-1 $170 $170 $169 $259 forward $106 $-1 #
coedge $-1 $171 $171 $107 $172 forward $166 $-1 #
edge $-1 $260 1.834150691301792e-015 $260 6.2831853071796022 $171 $261 forward 7 unknown #
loop $-1 $-1 $178 $108 #
plane-surface $-1 16.116999853566014 -40.802241011396703 6.9049013169163374 0 -0.85716730853699208 0.51503806187062418 1 0 0 forward_v I I I I #
loop $-1 $-1 $262 $69 #
coedge $-1 $176 $176 $177 $263 reversed $109 $-1 #
coedge $-1 $177 $177 $176 $263 forward $111 $-1 #
coedge $-1 $178 $178 $112 $179 forward $173 $-1 #
edge $-1 $264 1.834150691301792e-015 $264 6.2831853071796022 $178 $265 forward 7 unknown #
face $-1 $266 $267 $27 $-1 $268 reversed single #
loop $-1 $-1 $269 $113 #
plane-surface $-1 -64.398937955870238 0 0 1 0 0 0 0 -1 forward_v I I I I #
coedge $-1 $270 $191 $271 $272 forward $114 $-1 #
coedge $-1 $273 $116 $270 $274 forward $73 $-1 #
coedge $-1 $116 $273 $275 $276 forward $73 $-1 #
coedge $-1 $194 $193 $116 $187 reversed $195 $-1 #
edge $-1 $277 -40.802241011396688 $278 40.802241011396688 $186 $279 forward 7 unknown #
coedge $-1 $118 $117 $280 $281 forward $46 $-1 #
coedge $-1 $282 $283 $117 $190 reversed $267 $-1 #
edge $-1 $197 -64.398937955870238 $284 64.398937955870238 $189 $285 forward 7 unknown #
coedge $-1 $183 $286 $118 $192 reversed $114 $-1 #
edge $-1 $287 -64.398937955870238 $196 64.398937955870238 $191 $288 forward 7 unknown #
coedge $-1 $186 $119 $286 $289 forward $195 $-1 #
coedge $-1 $119 $186 $282 $290 reversed $195 $-1 #
loop $-1 $-1 $193 $266 #
vertex $-1 $120 $291 #
vertex $-1 $120 $292 #
straight-curve $-1 64.398937955870238 0 13.370961746030314 0 1 0 I I #
face $-1 $-1 $211 $28 $-1 $293 forward single #
loop $-1 $-1 $294 $121 #
plane-surface $-1 0 40.802241011396688 0 0 -1 0 0 0 -1 forward_v I I I I #
coedge $-1 $295 $296 $297 $298 reversed $122 $-1 #
coedge $-1 $299 $124 $126 $209 forward $77 $-1 #
coedge $-1 $124 $299 $295 $300 forward $77 $-1 #
coedge $-1 $297 $127 $124 $206 forward $211 $-1 #
edge $-1 $213 -29.236735547063766 $301 -6.0859786954332229 $205 $302 forward 7 unknown #
coedge $-1 $303 $304 $125 $208 forward $200 $-1 #
edge $-1 $305 -75.48793475320187 $212 -62.260350358499196 $207 $306 forward 7 unknown #
edge $-1 $213 61.026014061077532 $305 81.604482022793349 $126 $307 forward 7 unknown #
coedge $-1 $127 $297 $303 $308 forward $211 $-1 #
loop $-1 $-1 $297 $199 #
vertex $-1 $208 $309 #
vertex $-1 $128 $310 #
straight-curve $-1 -46.898092668312259 30.539630686397281 13.370961746030318 0 -1 0 I I #
coedge $-1 $215 $215 $-1 $311 reversed $131 $-1 #
edge $-1 $312 0 $312 6.2831853071796004 $132 $313 forward 7 unknown #
vertex $-1 $135 $314 #
ellipse-curve $-1 -35.322714242496986 32.92023056462007 6.7571695486789807 0 0.64278761758704617 0.76604443648966558 3 0 0 1 I I #
face $-1 $-1 $315 $30 $-1 $316 reversed single #
loop $-1 $-1 $142 $136 #
plane-surface $-1 0 0 13.370961746030314 0 0 1 1 0 0 forward_v I I I I #
coedge $-1 $317 $318 $319 $320 reversed $137 $-1 #
coedge $-1 $321 $139 $141 $229 forward $86 $-1 #
coedge $-1 $139 $321 $317 $322 forward $86 $-1 #
coedge $-1 $319 $142 $139 $226 forward $220 $-1 #
edge $-1 $232 6.0859786954332229 $323 29.236735547063766 $225 $324 forward 7 unknown #
coedge $-1 $325 $326 $140 $228 forward $315 $-1 #
edge $-1 $327 -75.48793475320187 $231 -62.260350358499196 $227 $328 forward 7 unknown #
edge $-1 $232 61.026014061077532 $327 81.604482022793349 $141 $329 forward 7 unknown #
coedge $-1 $142 $319 $325 $330 forward $220 $-1 #
vertex $-1 $143 $331 #
vertex $-1 $143 $332 #
straight-curve $-1 23.747335816681716 30.539630686397281 13.370961746030318 0 -1 0 I I #
coedge $-1 $234 $234 $-1 $333 reversed $146 $-1 #
edge $-1 $334 0 $334 6.2831853071796004 $147 $335 forward 7 unknown #
vertex $-1 $150 $336 #
ellipse-curve $-1 35.322714242496986 32.92023056462007 6.7571695486789807 0 0.64278761758704617 0.76604443648966558 3 0 0 1 I I #
face $-1 $-1 $250 $32 $-1 $337 forward single #
loop $-1 $-1 $338 $151 #
plane-surface $-1 0 -40.802241011396688 0 0 1 0 0 0 1 forward_v I I I I #
coedge $-1 $339 $340 $341 $342 reversed $152 $-1 #
coedge $-1 $343 $154 $156 $248 forward $95 $-1 #
coedge $-1 $154 $343 $339 $344 forward $95 $-1 #
coedge $-1 $341 $157 $154 $245 forward $250 $-1 #
edge $-1 $252 -23.359807078961346 $345 7.2428072253953317 $244 $346 forward 7 unknown #
coedge $-1 $347 $348 $155 $247 forward $239 $-1 #
edge $-1 $349 -29.715453532859787 $251 -23.249393103745835 $246 $350 forward 7 unknown #
edge $-1 $252 -7.5435219760658052 $349 -2.787470371894754e-014 $156 $351 forward 7 unknown #
coedge $-1 $157 $341 $347 $352 forward $250 $-1 #
loop $-1 $-1 $341 $238 #
vertex $-1 $247 $353 #
vertex $-1 $158 $354 #
straight-curve $-1 31.418307005744353 -75.601784825972388 13.370961746030314 0 1 0 I I #
coedge $-1 $254 $254 $-1 $355 reversed $161 $-1 #
edge $-1 $356 0 $356 6.2831853071796004 $162 $357 forward 7 unknown #
vertex $-1 $165 $358 #
ellipse-curve $-1 6.936215562259008 -38.859640542281007 10.137931531473326 0 -0.85716730853699208 0.51503806187062418 1.5 0 0 1 I I #
coedge $-1 $258 $258 $-1 $359 reversed $168 $-1 #
edge $-1 $360 0 $360 6.2831853071796004 $169 $361 forward 7 unknown #
vertex $-1 $172 $362 #
ellipse-curve $-1 16.116999853566014 -38.859640542281007 10.137931531473326 0 -0.85716730853699208 0.51503806187062418 1.5 0 0 1 I I #
coedge $-1 $262 $262 $-1 $363 reversed $175 $-1 #
edge $-1 $364 0 $364 6.2831853071796004 $176 $365 forward 7 unknown #
vertex $-1 $179 $366 #
ellipse-curve $-1 25.29778414487302 -38.859640542281007 10.137931531473326 0 -0.85716730853699208 0.51503806187062418 1.5 0 0 1 I I #
face $-1 $-1 $195 $27 $-1 $367 reversed single #
loop $-1 $-1 $282 $180 #
plane-surface $-1 0 40.802241011396688 0 0 -1 0 0 0 -1 forward_v I I I I #
coedge $-1 $368 $280 $283 $369 forward $181 $-1 #
coedge $-1 $286 $183 $184 $274 reversed $114 $-1 #
coedge $-1 $280 $368 $183 $272 reversed $181 $-1 #
edge $-1 $287 -13.370961746030314 $370 13.370961746030314 $271 $371 forward 7 unknown #
coedge $-1 $185 $184 $368 $372 forward $73 $-1 #
edge $-1 $278 -64.398937955870238 $370 64.398937955870238 $270 $373 forward 7 unknown #
coedge $-1 $283 $282 $185 $276 reversed $267 $-1 #
edge $-1 $374 -64.398937955870238 $277 64.398937955870238 $275 $375 forward 7 unknown #
vertex $-1 $187 $376 #
vertex $-1 $289 $377 #
straight-curve $-1 64.398937955870238 0 -13.370961746030314 0 -1 0 I I #
coedge $-1 $269 $271 $188 $281 reversed $181 $-1 #
edge $-1 $284 -40.802241011396688 $287 40.802241011396688 $280 $378 forward 7 unknown #
coedge $-1 $275 $189 $194 $290 forward $267 $-1 #
coedge $-1 $189 $275 $269 $369 reversed $267 $-1 #
vertex $-1 $190 $379 #
straight-curve $-1 0 40.802241011396688 13.370961746030314 -1 0 0 I I #
coedge $-1 $191 $270 $193 $289 reversed $114 $-1 #
vertex $-1 $281 $380 #
straight-curve $-1 0 -40.802241011396688 13.370961746030314 1 0 0 I I #
edge $-1 $196 -13.370961746030314 $278 13.370961746030314 $193 $381 forward 7 unknown #
edge $-1 $197 -13.370961746030314 $277 13.370961746030314 $194 $382 forward 7 unknown #
point $-1 64.398937955870238 -40.802241011396688 13.370961746030314 #
point $-1 64.398937955870238 40.802241011396688 13.370961746030314 #
plane-surface $-1 0 0 13.370961746030314 0 0 1 1 0 0 forward_v I I I I #
coedge $-1 $304 $303 $296 $383 forward $200 $-1 #
coedge $-1 $296 $202 $204 $300 reversed $122 $-1 #
coedge $-1 $202 $295 $294 $383 reversed $122 $-1 #
coedge $-1 $210 $205 $202 $298 forward $211 $-1 #
edge $-1 $301 -5.5014105685538297 $384 10.262610324999407 $297 $385 forward 7 unknown #
coedge $-1 $204 $203 $304 $386 reversed $77 $-1 #
edge $-1 $387 -81.604482022793349 $301 -61.026014061077532 $295 $388 forward 7 unknown #
vertex $-1 $206 $389 #
straight-curve $-1 -17.661357121248493 25.038220117843466 13.370961746030314 1 0 0 I I #
coedge $-1 $294 $207 $210 $308 reversed $200 $-1 #
coedge $-1 $207 $294 $299 $386 forward $200 $-1 #
vertex $-1 $208 $390 #
straight-curve $-1 -46.898092668312259 40.802241011396688 75.631312104529513 0 0 1 I I #
straight-curve $-1 -46.898092668312259 -21.710418434785097 52.597727935183926 0 0.76604443648966558 -0.64278761758704617 I I #
edge $-1 $384 23.747335816681716 $212 46.898092668312259 $303 $391 forward 7 unknown #
point $-1 -46.898092668312259 40.802241011396688 13.370961746030314 #
point $-1 -46.898092668312259 25.038220117843451 13.370961746030318 #
edge $-1 $392 1 $392 0 $215 $-1 forward 7 unknown #
vertex $-1 $216 $393 #
ellipse-curve $-1 -35.322714242496986 30.502817896299199 3.8762093767664227 0 0.64278761758704617 0.76604443648966558 3 0 0 1 I I #
point $-1 -32.322714242496986 32.920230564620049 6.7571695486789558 #
loop $-1 $-1 $227 $219 #
plane-surface $-1 0 40.802241011396688 0 0 -1 0 0 0 -1 forward_v I I I I #
coedge $-1 $318 $222 $224 $322 reversed $137 $-1 #
coedge $-1 $222 $317 $394 $395 reversed $137 $-1 #
coedge $-1 $230 $225 $222 $320 forward $220 $-1 #
edge $-1 $323 -5.5014105685538297 $396 10.262610324999407 $319 $397 forward 7 unknown #
coedge $-1 $224 $223 $326 $398 reversed $86 $-1 #
edge $-1 $399 -81.604482022793349 $323 -61.026014061077532 $317 $400 forward 7 unknown #
vertex $-1 $226 $401 #
straight-curve $-1 17.661357121248493 25.038220117843466 13.370961746030314 1 0 0 I I #
coedge $-1 $394 $227 $230 $330 reversed $315 $-1 #
coedge $-1 $227 $394 $321 $398 forward $315 $-1 #
vertex $-1 $228 $402 #
straight-curve $-1 23.747335816681716 40.802241011396688 75.631312104529513 0 0 1 I I #
straight-curve $-1 23.747335816681716 -21.710418434785097 52.597727935183926 0 0.76604443648966558 -0.64278761758704617 I I #
edge $-1 $396 -46.898092668312259 $231 -23.747335816681716 $325 $403 forward 7 unknown #
point $-1 23.747335816681716 40.802241011396688 13.370961746030314 #
point $-1 23.747335816681716 25.038220117843451 13.370961746030318 #
edge $-1 $404 1 $404 0 $234 $-1 forward 7 unknown #
vertex $-1 $235 $405 #
ellipse-curve $-1 35.322714242496986 30.502817896299199 3.8762093767664227 0 0.64278761758704617 0.76604443648966558 3 0 0 1 I I #
point $-1 38.322714242496986 32.920230564620049 6.7571695486789558 #
plane-surface $-1 0 0 13.370961746030314 0 0 1 1 0 0 forward_v I I I I #
coedge $-1 $348 $347 $340 $406 forward $239 $-1 #
coedge $-1 $340 $241 $243 $344 reversed $152 $-1 #
coedge $-1 $241 $339 $338 $406 reversed $152 $-1 #
coedge $-1 $249 $244 $241 $342 forward $250 $-1 #
edge $-1 $345 -38.684744752807077 $407 -34.799543814575699 $341 $408 forward 7 unknown #
coedge $-1 $243 $242 $348 $409 reversed $95 $-1 #
edge $-1 $410 2.787470371894754e-014 $345 7.5435219760658052 $339 $411 forward 7 unknown #
vertex $-1 $245 $412 #
straight-curve $-1 8.0584999267830071 -36.91704007316531 13.370961746030314 -1 0 0 I I #
coedge $-1 $338 $246 $249 $352 reversed $239 $-1 #
coedge $-1 $246 $338 $343 $409 forward $239 $-1 #
vertex $-1 $247 $413 #
straight-curve $-1 31.418307005744353 -40.802241011396688 36.620354849776149 0 0 1 I I #
straight-curve $-1 31.418307005744353 -40.802241011396703 6.9049013169163374 0 -0.51503806187062418 -0.85716730853699208 I I #
edge $-1 $407 0.81569270138767536 $251 31.418307005744353 $347 $414 forward 7 unknown #
point $-1 31.418307005744353 -40.802241011396688 13.370961746030314 #
point $-1 31.418307005744353 -36.91704007316531 13.370961746030314 #
edge $-1 $415 1 $415 0 $254 $-1 forward 7 unknown #
vertex $-1 $255 $416 #
ellipse-curve $-1 6.936215562259008 -34.292275798220409 7.3935820185967867 0 -0.85716730853699208 0.51503806187062418 1.5 0 0 1 I I #
point $-1 8.436215562259008 -38.859640542280992 10.13793153147332 #
edge $-1 $417 1 $417 0 $258 $-1 forward 7 unknown #
vertex $-1 $259 $418 #
ellipse-curve $-1 16.116999853566014 -34.292275798220409 7.3935820185967867 0 -0.85716730853699208 0.51503806187062418 1.5 0 0 1 I I #
point $-1 17.616999853566014 -38.859640542280992 10.13793153147332 #
edge $-1 $419 1 $419 0 $262 $-1 forward 7 unknown #
vertex $-1 $263 $420 #
ellipse-curve $-1 25.29778414487302 -34.292275798220409 7.3935820185967867 0 -0.85716730853699208 0.51503806187062418 1.5 0 0 1 I I #
point $-1 26.79778414487302 -38.859640542280992 10.13793153147332 #
plane-surface $-1 64.398937955870238 0 0 -1 0 0 0 0 1 forward_v I I I I #
coedge $-1 $271 $269 $273 $372 reversed $181 $-1 #
edge $-1 $284 -13.370961746030314 $374 13.370961746030314 $283 $421 forward 7 unknown #
vertex $-1 $372 $422 #
straight-curve $-1 -64.398937955870238 -40.802241011396688 0 0 0 -1 I I #
edge $-1 $370 -40.802241011396688 $374 40.802241011396688 $368 $423 forward 7 unknown #
straight-curve $-1 0 -40.802241011396688 -13.370961746030314 -1 0 0 I I #
vertex $-1 $276 $424 #
straight-curve $-1 0 40.802241011396688 -13.370961746030314 1 0 0 I I #
point $-1 64.398937955870238 40.802241011396688 -13.370961746030314 #
point $-1 64.398937955870238 -40.802241011396688 -13.370961746030314 #
straight-curve $-1 -64.398937955870238 0 13.370961746030314 0 -1 0 I I #
point $-1 -64.398937955870238 40.802241011396688 13.370961746030314 #
point $-1 -64.398937955870238 -40.802241011396688 13.370961746030314 #
straight-curve $-1 64.398937955870238 -40.802241011396688 0 0 0 -1 I I #
straight-curve $-1 64.398937955870238 40.802241011396688 0 0 0 -1 I I #
edge $-1 $384 62.260350358499196 $387 75.48793475320187 $294 $425 forward 7 unknown #
vertex $-1 $308 $426 #
straight-curve $-1 -23.747335816681716 30.539630686397281 13.370961746030318 0 1 0 I I #
edge $-1 $387 6.0859786954332229 $305 29.236735547063766 $304 $427 forward 7 unknown #
vertex $-1 $386 $428 #
straight-curve $-1 -23.747335816681716 -21.710418434785097 52.597727935183926 0 -0.76604443648966558 0.64278761758704617 I I #
point $-1 -23.747335816681716 25.038220117843451 13.370961746030318 #
point $-1 -46.898092668312259 40.802241011396688 0.14337735132764351 #
straight-curve $-1 0 40.802241011396688 13.370961746030314 -1 0 0 I I #
vertex $-1 $311 $429 #
point $-1 -32.322714242496986 30.502817896299199 3.8762093767664227 #
coedge $-1 $326 $325 $318 $395 forward $315 $-1 #
edge $-1 $396 62.260350358499196 $399 75.48793475320187 $394 $430 forward 7 unknown #
vertex $-1 $330 $431 #
straight-curve $-1 46.898092668312259 30.539630686397281 13.370961746030318 0 1 0 I I #
edge $-1 $399 -29.236735547063766 $327 -6.0859786954332229 $326 $432 forward 7 unknown #
vertex $-1 $398 $433 #
straight-curve $-1 46.898092668312259 -21.710418434785097 52.597727935183926 0 -0.76604443648966558 0.64278761758704617 I I #
point $-1 46.898092668312259 25.038220117843451 13.370961746030318 #
point $-1 23.747335816681716 40.802241011396688 0.14337735132764351 #
straight-curve $-1 0 40.802241011396688 13.370961746030314 -1 0 0 I I #
vertex $-1 $333 $434 #
point $-1 38.322714242496986 30.502817896299199 3.8762093767664227 #
edge $-1 $407 23.249393103745835 $410 29.715453532859787 $338 $435 forward 7 unknown #
vertex $-1 $352 $436 #
straight-curve $-1 0.81569270138767536 -75.601784825972388 13.370961746030314 0 -1 0 I I #
edge $-1 $410 -7.2428072253953317 $349 23.359807078961346 $348 $437 forward 7 unknown #
vertex $-1 $409 $438 #
straight-curve $-1 0.81569270138767536 -40.802241011396703 6.9049013169163374 0 0.51503806187062418 0.85716730853699208 I I #
point $-1 0.81569270138767536 -36.91704007316531 13.370961746030314 #
point $-1 31.418307005744353 -40.802241011396688 6.9049013169163613 #
straight-curve $-1 0 -40.802241011396688 13.370961746030314 1 0 0 I I #
vertex $-1 $355 $439 #
point $-1 8.436215562259008 -34.292275798220409 7.3935820185967867 #
vertex $-1 $359 $440 #
point $-1 17.616999853566014 -34.292275798220409 7.3935820185967867 #
vertex $-1 $363 $441 #
point $-1 26.79778414487302 -34.292275798220409 7.3935820185967867 #
straight-curve $-1 -64.398937955870238 40.802241011396688 0 0 0 -1 I I #
point $-1 -64.398937955870238 -40.802241011396688 -13.370961746030314 #
straight-curve $-1 -64.398937955870238 0 -13.370961746030314 0 1 0 I I #
point $-1 -64.398937955870238 40.802241011396688 -13.370961746030314 #
straight-curve $-1 -23.747335816681716 40.802241011396688 75.631312104529513 0 0 -1 I I #
point $-1 -23.747335816681716 40.802241011396688 13.370961746030314 #
straight-curve $-1 -17.661357121248493 40.802241011396688 0.14337735132764351 -1 0 0 I I #
point $-1 -23.747335816681716 40.802241011396688 0.14337735132764351 #
point $-1 -35.322714242496986 28.574455043538059 1.5780760672974263 #
straight-curve $-1 46.898092668312259 40.802241011396688 75.631312104529513 0 0 -1 I I #
point $-1 46.898092668312259 40.802241011396688 13.370961746030314 #
straight-curve $-1 17.661357121248493 40.802241011396688 0.14337735132764351 -1 0 0 I I #
point $-1 46.898092668312259 40.802241011396688 0.14337735132764351 #
point $-1 35.322714242496986 28.574455043538059 1.5780760672974263 #
straight-curve $-1 0.81569270138767536 -40.802241011396688 36.620354849776149 0 0 -1 I I #
point $-1 0.81569270138767536 -40.802241011396688 13.370961746030314 #
straight-curve $-1 8.0584999267830071 -40.802241011396688 6.9049013169163551 1 0 0 I I #
point $-1 0.81569270138767536 -40.802241011396688 6.9049013169163613 #
point $-1 6.936215562259008 -33.006524835414915 6.6210249257908504 #
point $-1 16.116999853566014 -33.006524835414915 6.6210249257908504 #
point $-1 25.29778414487302 -33.006524835414915 6.6210249257908504 #
End-of-ACIS-data 