500 0 13 0           
7 Unknown 11 ACIS 5.0 NT 24 Fri Mar 26 17:08:52 1999 
-1 9.9999999999999995e-007 1e-010 
body $-1 $13 $-1 $14 #
body $-1 $15 $-1 $16 #
body $-1 $17 $-1 $18 #
body $-1 $19 $-1 $20 #
body $-1 $21 $-1 $22 #
body $-1 $23 $-1 $24 #
body $-1 $25 $-1 $26 #
body $-1 $27 $-1 $28 #
body $-1 $29 $-1 $30 #
body $-1 $31 $-1 $32 #
body $-1 $33 $-1 $34 #
body $-1 $35 $-1 $36 #
body $-1 $37 $-1 $38 #
lump $-1 $-1 $39 $0 #
transform $-1 1 0 0 0 1 0 0 0 1 60.103152562028868 32.573315046915411 12.382273473094081 1 rotate no_reflect no_shear #
lump $-1 $-1 $40 $1 #
transform $-1 1 0 0 0 1 0 0 0 1 60.103152562028868 32.573315046915411 12.382273473094081 1 rotate no_reflect no_shear #
lump $-1 $-1 $41 $2 #
transform $-1 1 0 0 0 1 0 0 0 1 60.103152562028868 32.573315046915411 12.382273473094081 1 rotate no_reflect no_shear #
lump $-1 $-1 $42 $3 #
transform $-1 1 0 0 0 1 0 0 0 1 60.103152562028868 32.573315046915411 12.382273473094081 1 rotate no_reflect no_shear #
lump $-1 $-1 $43 $4 #
transform $-1 1 0 0 0 1 0 0 0 1 60.103152562028868 32.573315046915411 12.382273473094081 1 rotate no_reflect no_shear #
lump $-1 $-1 $44 $5 #
transform $-1 1 0 0 0 1 0 0 0 1 60.103152562028868 32.573315046915411 12.382273473094081 1 rotate no_reflect no_shear #
lump $-1 $-1 $45 $6 #
transform $-1 1 0 0 0 1 0 0 0 1 60.103152562028868 32.573315046915411 12.382273473094081 1 rotate no_reflect no_shear #
lump $-1 $-1 $46 $7 #
transform $-1 1 0 0 0 1 0 0 0 1 60.103152562028868 32.573315046915411 12.382273473094081 1 rotate no_reflect no_shear #
lump $-1 $-1 $47 $8 #
transform $-1 1 0 0 0 1 0 0 0 1 60.103152562028868 32.573315046915411 12.382273473094081 1 rotate no_reflect no_shear #
lump $-1 $-1 $48 $9 #
transform $-1 1 0 0 0 1 0 0 0 1 60.103152562028868 32.573315046915411 12.382273473094081 1 rotate no_reflect no_shear #
lump $-1 $-1 $49 $10 #
transform $-1 1 0 0 0 1 0 0 0 1 60.103152562028868 32.573315046915411 12.382273473094081 1 rotate no_reflect no_shear #
lump $-1 $-1 $50 $11 #
transform $-1 1 0 0 0 1 0 0 0 1 60.103152562028868 32.573315046915411 12.382273473094081 1 rotate no_reflect no_shear #
lump $-1 $-1 $51 $12 #
transform $-1 1 0 0 0 1 0 0 0 1 60.103152562028868 32.573315046915411 12.382273473094081 1 rotate no_reflect no_shear #
shell $-1 $-1 $-1 $52 $-1 $13 #
shell $-1 $-1 $-1 $53 $-1 $15 #
shell $-1 $-1 $-1 $54 $-1 $17 #
shell $-1 $-1 $-1 $55 $-1 $19 #
shell $-1 $-1 $-1 $56 $-1 $21 #
shell $-1 $-1 $-1 $57 $-1 $23 #
shell $-1 $-1 $-1 $58 $-1 $25 #
shell $-1 $-1 $-1 $59 $-1 $27 #
shell $-1 $-1 $-1 $60 $-1 $29 #
shell $-1 $-1 $-1 $61 $-1 $31 #
shell $-1 $-1 $-1 $62 $-1 $33 #
shell $-1 $-1 $-1 $63 $-1 $35 #
shell $-1 $-1 $-1 $64 $-1 $37 #
face $-1 $65 $66 $39 $-1 $67 forward single #
face $-1 $68 $69 $40 $-1 $70 forward single #
face $-1 $71 $72 $41 $-1 $73 reversed single #
face $-1 $74 $75 $42 $-1 $76 forward single #
face $-1 $77 $78 $43 $-1 $79 forward single #
face $-1 $80 $81 $44 $-1 $82 reversed single #
face $-1 $83 $84 $45 $-1 $85 forward single #
face $-1 $86 $87 $46 $-1 $88 reversed single #
face $-1 $89 $90 $47 $-1 $91 forward single #
face $-1 $92 $93 $48 $-1 $94 reversed single #
face $-1 $95 $96 $49 $-1 $97 forward single #
face $-1 $98 $99 $50 $-1 $100 reversed single #
face $-1 $101 $102 $51 $-1 $103 forward single #
face $-1 $104 $105 $39 $-1 $106 reversed single #
loop $-1 $-1 $107 $52 #
plane-surface $-1 0 0 12.382273473094081 0 0 1 1 0 0 forward_v I I I I #
face $-1 $108 $109 $40 $-1 $110 reversed single #
loop $-1 $-1 $111 $53 #
plane-surface $-1 -55.468058763448795 0 8.719078957352 0 0 1 1 0 0 forward_v I I I I #
face $-1 $112 $113 $41 $-1 $114 reversed single #
loop $-1 $-1 $115 $54 #
plane-surface $-1 -43.593018051040971 -32.573315046915411 1.9590903989656994 0 -0.86602541151947299 0.49999998660252726 1 0 0 forward_v I I I I #
face $-1 $116 $117 $42 $-1 $118 forward single #
loop $-1 $119 $120 $55 #
cone-surface $-1 -46.695852442681435 -27.987044201616786 6.2599943784132313 0 0.86602541151947299 -0.49999998660252726 1 0 0 1 I I 0 1 1 forward I I I I #
face $-1 $121 $122 $43 $-1 $123 forward single #
loop $-1 $124 $125 $56 #
cone-surface $-1 -40.4901836594005 -27.987044201616786 6.2599943784132313 0 0.86602541151947299 -0.49999998660252726 1 0 0 1 I I 0 1 1 forward I I I I #
face $-1 $126 $127 $44 $-1 $128 reversed single #
loop $-1 $-1 $129 $57 #
plane-surface $-1 -43.72975417111963 -18.762929635293361 40.938922937537896 0 0.61566148304635926 0.78801074757464917 1 0 0 forward_v I I I I #
face $-1 $130 $131 $45 $-1 $132 forward single #
loop $-1 $133 $134 $58 #
cone-surface $-1 -43.72975417111963 23.884769964241308 4.9478572918006414 0 -0.61566148304635926 -0.78801074757464917 2 0 0 1 I I 0 1 2 forward I I I I #
face $-1 $135 $136 $46 $-1 $137 reversed single #
loop $-1 $-1 $138 $59 #
plane-surface $-1 -8.892513995646139 55.243462448907195 135.66278330153301 -1 0 0 0 0.61566148304635926 0.78801074757464917 forward_v I I I I #
face $-1 $139 $140 $47 $-1 $141 forward single #
loop $-1 $142 $143 $60 #
cone-surface $-1 -15.995724789395233 23.884769964241308 4.9478572918006414 0 -0.61566148304635926 -0.78801074757464917 2 0 0 1 I I 0 1 2 forward I I I I #
face $-1 $144 $145 $48 $-1 $146 reversed single #
loop $-1 $-1 $147 $61 #
plane-surface $-1 18.841515386078264 55.243462448907195 135.66278330153301 -1 0 0 0 0.61566148304635926 0.78801074757464917 forward_v I I I I #
face $-1 $148 $149 $49 $-1 $150 forward single #
loop $-1 $151 $152 $62 #
cone-surface $-1 11.738304592329172 23.884769964241308 4.9478572918006414 0 -0.61566148304635926 -0.78801074757464917 2 0 0 1 I I 0 1 2 forward I I I I #
face $-1 $153 $154 $50 $-1 $155 reversed single #
loop $-1 $-1 $156 $63 #
plane-surface $-1 46.575544767802661 55.243462448907195 135.66278330153301 -1 0 0 0 0.61566148304635926 0.78801074757464917 forward_v I I I I #
face $-1 $157 $158 $51 $-1 $159 forward single #
loop $-1 $160 $161 $64 #
cone-surface $-1 39.472333974053569 23.884769964241308 4.9478572918006414 0 -0.61566148304635926 -0.78801074757464917 2 0 0 1 I I 0 1 2 forward I I I I #
face $-1 $162 $163 $39 $-1 $164 reversed single #
loop $-1 $-1 $165 $65 #
plane-surface $-1 0 0 -12.382273473094081 0 0 1 1 0 0 forward_v I I I I #
coedge $-1 $166 $167 $168 $169 forward $66 $-1 #
face $-1 $170 $171 $40 $-1 $172 reversed single #
loop $-1 $-1 $173 $68 #
plane-surface $-1 -55.468058763448795 0 4.5856586349728481 0 0 1 1 0 0 forward_v I I I I #
coedge $-1 $174 $175 $176 $177 forward $69 $-1 #
face $-1 $178 $179 $41 $-1 $180 reversed single #
loop $-1 $-1 $181 $71 #
plane-surface $-1 -36.353071137213213 -136.67502990921284 62.062241350533874 -1 0 0 0 -0.86602541151947299 0.49999998660252726 forward_v I I I I #
coedge $-1 $182 $183 $184 $185 reversed $72 $-1 #
face $-1 $-1 $186 $42 $-1 $187 forward single #
loop $-1 $188 $189 $74 #
cone-surface $-1 -46.695852442681435 -25.97667431989057 5.0993068274952975 0 0.86602541151947299 -0.49999998660252726 0.5 0 0 1 I I -0.70710678118654746 0.70710678118654746 0.5 forward I I I I #
loop $-1 $-1 $190 $55 #
coedge $-1 $120 $120 $191 $192 reversed $75 $-1 #
face $-1 $-1 $193 $43 $-1 $194 forward single #
loop $-1 $195 $196 $77 #
cone-surface $-1 -40.4901836594005 -25.97667431989057 5.0993068274952975 0 0.86602541151947299 -0.49999998660252726 0.5 0 0 1 I I -0.70710678118654746 0.70710678118654746 0.5 forward I I I I #
loop $-1 $-1 $197 $56 #
coedge $-1 $125 $125 $198 $199 reversed $78 $-1 #
face $-1 $200 $201 $44 $-1 $202 forward single #
loop $-1 $-1 $203 $80 #
plane-surface $-1 -36.626543377370538 55.243462448907195 135.66278330153301 -1 0 0 0 0.61566148304635926 0.78801074757464917 forward_v I I I I #
coedge $-1 $204 $205 $206 $207 reversed $81 $-1 #
face $-1 $-1 $208 $45 $-1 $209 forward single #
loop $-1 $210 $211 $83 #
cone-surface $-1 -43.72975417111963 21.973263845960069 2.5012410802308622 0 -0.61566148304635926 -0.78801074757464917 1 0 0 1 I I -0.70710678118654735 0.70710678118654768 1 forward I I I I #
loop $-1 $-1 $212 $58 #
coedge $-1 $134 $134 $213 $214 reversed $84 $-1 #
face $-1 $215 $216 $46 $-1 $217 reversed single #
loop $-1 $-1 $218 $86 #
plane-surface $-1 -15.995724789395233 -18.762929635293361 40.938922937537896 0 0.61566148304635926 0.78801074757464917 1 0 0 forward_v I I I I #
coedge $-1 $219 $220 $221 $222 reversed $87 $-1 #
face $-1 $-1 $223 $47 $-1 $224 forward single #
loop $-1 $225 $226 $89 #
cone-surface $-1 -15.995724789395233 21.973263845960069 2.5012410802308622 0 -0.61566148304635926 -0.78801074757464917 1 0 0 1 I I -0.70710678118654735 0.70710678118654768 1 forward I I I I #
loop $-1 $-1 $227 $60 #
coedge $-1 $143 $143 $228 $229 reversed $90 $-1 #
face $-1 $230 $231 $48 $-1 $232 reversed single #
loop $-1 $-1 $233 $92 #
plane-surface $-1 11.738304592329172 -18.762929635293361 40.938922937537896 0 0.61566148304635926 0.78801074757464917 1 0 0 forward_v I I I I #
coedge $-1 $234 $235 $236 $237 reversed $93 $-1 #
face $-1 $-1 $238 $49 $-1 $239 forward single #
loop $-1 $240 $241 $95 #
cone-surface $-1 11.738304592329172 21.973263845960069 2.5012410802308622 0 -0.61566148304635926 -0.78801074757464917 1 0 0 1 I I -0.70710678118654735 0.70710678118654768 1 forward I I I I #
loop $-1 $-1 $242 $62 #
coedge $-1 $152 $152 $243 $244 reversed $96 $-1 #
face $-1 $245 $246 $50 $-1 $247 reversed single #
loop $-1 $-1 $248 $98 #
plane-surface $-1 39.472333974053569 -18.762929635293361 40.938922937537896 0 0.61566148304635926 0.78801074757464917 1 0 0 forward_v I I I I #
coedge $-1 $249 $250 $251 $252 reversed $99 $-1 #
face $-1 $-1 $253 $51 $-1 $254 forward single #
loop $-1 $255 $256 $101 #
cone-surface $-1 39.472333974053569 21.973263845960069 2.5012410802308622 0 -0.61566148304635926 -0.78801074757464917 1 0 0 1 I I -0.70710678118654735 0.70710678118654768 1 forward I I I I #
loop $-1 $-1 $257 $64 #
coedge $-1 $161 $161 $258 $259 reversed $102 $-1 #
face $-1 $260 $261 $39 $-1 $262 reversed single #
loop $-1 $-1 $263 $104 #
plane-surface $-1 0 -32.573315046915411 0 0 1 0 0 0 1 forward_v I I I I #
coedge $-1 $264 $265 $266 $267 forward $105 $-1 #
coedge $-1 $268 $107 $269 $270 forward $66 $-1 #
coedge $-1 $107 $268 $271 $272 forward $66 $-1 #
coedge $-1 $273 $274 $107 $169 reversed $275 $-1 #
edge $-1 $276 -32.573315046915411 $277 32.573315046915411 $168 $278 forward 7 unknown #
face $-1 $279 $280 $40 $-1 $281 reversed single #
loop $-1 $-1 $282 $108 #
plane-surface $-1 -50.832964964868722 0 6.652368796162424 -1 0 0 0 0 1 forward_v I I I I #
coedge $-1 $283 $284 $285 $286 forward $109 $-1 #
coedge $-1 $287 $111 $288 $289 reversed $69 $-1 #
coedge $-1 $111 $287 $290 $291 reversed $69 $-1 #
coedge $-1 $282 $292 $111 $177 reversed $171 $-1 #
edge $-1 $293 -32.573315046915411 $294 32.573315046915411 $176 $295 forward 7 unknown #
face $-1 $296 $297 $41 $-1 $298 forward single #
loop $-1 $-1 $299 $112 #
plane-surface $-1 0 -32.573315046915411 0 0 1 0 0 0 1 forward_v I I I I #
coedge $-1 $300 $301 $302 $303 reversed $113 $-1 #
coedge $-1 $304 $115 $305 $306 forward $72 $-1 #
coedge $-1 $115 $304 $300 $307 forward $72 $-1 #
coedge $-1 $302 $299 $115 $185 forward $179 $-1 #
edge $-1 $308 -29.036455939348244 $309 -14.556562111692728 $184 $310 forward 7 unknown #
loop $-1 $-1 $191 $116 #
plane-surface $-1 -43.593018051040971 -32.573315046915411 1.9590903989656994 0 -0.86602541151947299 0.49999998660252726 1 0 0 forward_v I I I I #
loop $-1 $-1 $311 $74 #
coedge $-1 $189 $189 $190 $312 reversed $117 $-1 #
coedge $-1 $190 $190 $189 $312 forward $119 $-1 #
coedge $-1 $191 $191 $120 $192 forward $186 $-1 #
edge $-1 $313 -4.7597325791166719e-016 $313 6.2831853071795996 $191 $314 forward 7 unknown #
loop $-1 $-1 $198 $121 #
plane-surface $-1 -43.593018051040971 -32.573315046915411 1.9590903989656994 0 -0.86602541151947299 0.49999998660252726 1 0 0 forward_v I I I I #
loop $-1 $-1 $315 $77 #
coedge $-1 $196 $196 $197 $316 reversed $122 $-1 #
coedge $-1 $197 $197 $196 $316 forward $124 $-1 #
coedge $-1 $198 $198 $125 $199 forward $193 $-1 #
edge $-1 $317 -4.7597325791166719e-016 $317 6.2831853071795996 $198 $318 forward 7 unknown #
face $-1 $319 $320 $44 $-1 $321 forward single #
loop $-1 $-1 $322 $126 #
plane-surface $-1 0 0 12.382273473094081 0 0 1 1 0 0 forward_v I I I I #
coedge $-1 $323 $324 $325 $326 reversed $127 $-1 #
coedge $-1 $327 $129 $328 $329 forward $81 $-1 #
coedge $-1 $129 $327 $323 $330 forward $81 $-1 #
coedge $-1 $325 $322 $129 $207 forward $201 $-1 #
edge $-1 $331 -28.968087879308907 $332 -14.761666291810723 $206 $333 forward 7 unknown #
loop $-1 $-1 $213 $130 #
plane-surface $-1 -43.72975417111963 -18.762929635293361 40.938922937537896 0 0.61566148304635926 0.78801074757464917 1 0 0 forward_v I I I I #
loop $-1 $-1 $334 $83 #
coedge $-1 $211 $211 $212 $335 reversed $131 $-1 #
coedge $-1 $212 $212 $211 $335 forward $133 $-1 #
coedge $-1 $213 $213 $134 $214 forward $208 $-1 #
edge $-1 $336 -1.4242792846415409e-016 $336 6.2831853071796004 $213 $337 forward 7 unknown #
face $-1 $338 $339 $46 $-1 $340 forward single #
loop $-1 $-1 $341 $135 #
plane-surface $-1 -23.098935583144325 55.243462448907195 135.66278330153301 1 0 0 0 -0.61566148304635926 -0.78801074757464917 forward_v I I I I #
coedge $-1 $342 $343 $344 $345 reversed $136 $-1 #
coedge $-1 $220 $138 $346 $347 reversed $87 $-1 #
coedge $-1 $138 $219 $342 $348 reversed $87 $-1 #
coedge $-1 $344 $349 $138 $222 forward $350 $-1 #
edge $-1 $351 55.449118177672425 $352 67.000739612269086 $221 $353 forward 7 unknown #
loop $-1 $-1 $228 $139 #
plane-surface $-1 -15.995724789395233 -18.762929635293361 40.938922937537896 0 0.61566148304635926 0.78801074757464917 1 0 0 forward_v I I I I #
loop $-1 $-1 $354 $89 #
coedge $-1 $226 $226 $227 $355 reversed $140 $-1 #
coedge $-1 $227 $227 $226 $355 forward $142 $-1 #
coedge $-1 $228 $228 $143 $229 forward $223 $-1 #
edge $-1 $356 -1.4242792846415409e-016 $356 6.2831853071796004 $228 $357 forward 7 unknown #
face $-1 $358 $359 $48 $-1 $360 forward single #
loop $-1 $-1 $361 $144 #
plane-surface $-1 4.635093798580078 55.243462448907195 135.66278330153301 1 0 0 0 -0.61566148304635926 -0.78801074757464917 forward_v I I I I #
coedge $-1 $362 $363 $364 $365 reversed $145 $-1 #
coedge $-1 $235 $147 $366 $367 reversed $93 $-1 #
coedge $-1 $147 $234 $362 $368 reversed $93 $-1 #
coedge $-1 $364 $369 $147 $237 forward $370 $-1 #
edge $-1 $371 55.449118177672425 $372 67.000739612269086 $236 $373 forward 7 unknown #
loop $-1 $-1 $243 $148 #
plane-surface $-1 11.738304592329172 -18.762929635293361 40.938922937537896 0 0.61566148304635926 0.78801074757464917 1 0 0 forward_v I I I I #
loop $-1 $-1 $374 $95 #
coedge $-1 $241 $241 $242 $375 reversed $149 $-1 #
coedge $-1 $242 $242 $241 $375 forward $151 $-1 #
coedge $-1 $243 $243 $152 $244 forward $238 $-1 #
edge $-1 $376 -1.4242792846415409e-016 $376 6.2831853071796004 $243 $377 forward 7 unknown #
face $-1 $378 $379 $50 $-1 $380 forward single #
loop $-1 $-1 $381 $153 #
plane-surface $-1 32.369123180304477 55.243462448907195 135.66278330153301 1 0 0 0 -0.61566148304635926 -0.78801074757464917 forward_v I I I I #
coedge $-1 $382 $383 $384 $385 reversed $154 $-1 #
coedge $-1 $250 $156 $386 $387 reversed $99 $-1 #
coedge $-1 $156 $249 $382 $388 reversed $99 $-1 #
coedge $-1 $384 $389 $156 $252 forward $390 $-1 #
edge $-1 $391 55.449118177672425 $392 67.000739612269086 $251 $393 forward 7 unknown #
loop $-1 $-1 $258 $157 #
plane-surface $-1 39.472333974053569 -18.762929635293361 40.938922937537896 0 0.61566148304635926 0.78801074757464917 1 0 0 forward_v I I I I #
loop $-1 $-1 $394 $101 #
coedge $-1 $256 $256 $257 $395 reversed $158 $-1 #
coedge $-1 $257 $257 $256 $395 forward $160 $-1 #
coedge $-1 $258 $258 $161 $259 forward $253 $-1 #
edge $-1 $396 -1.4242792846415409e-016 $396 6.2831853071796004 $258 $397 forward 7 unknown #
face $-1 $398 $399 $39 $-1 $400 reversed single #
loop $-1 $-1 $401 $162 #
plane-surface $-1 -60.103152562028868 0 0 1 0 0 0 0 -1 forward_v I I I I #
coedge $-1 $402 $271 $403 $404 forward $163 $-1 #
coedge $-1 $405 $165 $402 $406 forward $105 $-1 #
coedge $-1 $165 $405 $407 $408 forward $105 $-1 #
coedge $-1 $274 $273 $165 $267 reversed $275 $-1 #
edge $-1 $409 -32.573315046915411 $410 32.573315046915411 $266 $411 forward 7 unknown #
coedge $-1 $167 $166 $412 $413 forward $66 $-1 #
coedge $-1 $414 $415 $166 $270 reversed $399 $-1 #
edge $-1 $277 -60.103152562028868 $416 60.103152562028868 $269 $417 forward 7 unknown #
coedge $-1 $263 $418 $167 $272 reversed $163 $-1 #
edge $-1 $419 -60.103152562028868 $276 60.103152562028868 $271 $420 forward 7 unknown #
coedge $-1 $266 $168 $418 $421 forward $275 $-1 #
coedge $-1 $168 $266 $414 $422 reversed $275 $-1 #
loop $-1 $-1 $273 $398 #
vertex $-1 $169 $423 #
vertex $-1 $169 $424 #
straight-curve $-1 60.103152562028868 0 12.382273473094081 0 1 0 I I #
face $-1 $425 $426 $40 $-1 $427 reversed single #
loop $-1 $-1 $428 $170 #
plane-surface $-1 0 -32.573315046915411 0 0 1 0 0 0 1 forward_v I I I I #
coedge $-1 $285 $176 $429 $430 reversed $171 $-1 #
coedge $-1 $431 $173 $428 $432 reversed $109 $-1 #
coedge $-1 $173 $431 $433 $434 reversed $109 $-1 #
coedge $-1 $292 $282 $173 $286 reversed $171 $-1 #
edge $-1 $435 -32.573315046915411 $436 32.573315046915411 $285 $437 forward 7 unknown #
coedge $-1 $175 $174 $438 $439 reversed $69 $-1 #
coedge $-1 $440 $441 $174 $289 forward $442 $-1 #
edge $-1 $443 -32.36912318030447 $294 -23.098935583144325 $288 $444 forward 7 unknown #
coedge $-1 $445 $429 $175 $291 forward $280 $-1 #
edge $-1 $293 23.098935583144325 $446 32.36912318030447 $290 $447 forward 7 unknown #
coedge $-1 $176 $285 $440 $448 reversed $171 $-1 #
vertex $-1 $291 $449 #
vertex $-1 $289 $450 #
straight-curve $-1 -50.832964964868722 0 8.719078957352 0 1 0 I I #
face $-1 $-1 $451 $41 $-1 $452 forward single #
loop $-1 $-1 $305 $178 #
plane-surface $-1 -50.832964964868722 0 6.652368796162424 -1 0 0 0 0 1 forward_v I I I I #
coedge $-1 $184 $453 $454 $455 forward $179 $-1 #
coedge $-1 $301 $181 $183 $307 reversed $113 $-1 #
coedge $-1 $181 $300 $456 $457 reversed $113 $-1 #
coedge $-1 $453 $184 $181 $303 forward $179 $-1 #
edge $-1 $309 -29.072030276301238 $458 -18.648847202172856 $302 $459 forward 7 unknown #
coedge $-1 $183 $182 $460 $461 reversed $72 $-1 #
coedge $-1 $454 $462 $182 $306 reversed $297 $-1 #
edge $-1 $308 0 $463 12.035654999823306 $305 $464 forward 7 unknown #
edge $-1 $465 -12.035654999823306 $309 0 $300 $466 forward 7 unknown #
vertex $-1 $185 $467 #
vertex $-1 $185 $468 #
straight-curve $-1 -21.796509025520486 -32.573315046915411 1.9590903989656971 1 0 0 I I #
coedge $-1 $311 $311 $-1 $469 reversed $188 $-1 #
edge $-1 $470 0 $470 6.2831853071796004 $189 $471 forward 7 unknown #
vertex $-1 $192 $472 #
ellipse-curve $-1 -46.695852442681435 -29.564401377583259 7.1706819360298972 0 -0.86602541151947299 0.49999998660252726 1 0 0 1 I I #
coedge $-1 $315 $315 $-1 $473 reversed $195 $-1 #
edge $-1 $474 0 $474 6.2831853071796004 $196 $475 forward 7 unknown #
vertex $-1 $199 $476 #
ellipse-curve $-1 -40.4901836594005 -29.564401377583259 7.1706819360298972 0 -0.86602541151947299 0.49999998660252726 1 0 0 1 I I #
face $-1 $-1 $477 $44 $-1 $478 reversed single #
loop $-1 $-1 $328 $200 #
plane-surface $-1 -50.832964964868722 0 6.652368796162424 -1 0 0 0 0 1 forward_v I I I I #
coedge $-1 $206 $479 $480 $481 forward $201 $-1 #
coedge $-1 $324 $203 $205 $330 reversed $127 $-1 #
coedge $-1 $203 $323 $482 $483 reversed $127 $-1 #
coedge $-1 $479 $206 $203 $326 forward $201 $-1 #
edge $-1 $332 -9.8338170724166645 $484 4.9515838224618136 $325 $485 forward 7 unknown #
coedge $-1 $205 $204 $486 $487 reversed $81 $-1 #
coedge $-1 $480 $488 $204 $329 reversed $320 $-1 #
edge $-1 $331 46.383686897452861 $489 65.146630093830836 $328 $490 forward 7 unknown #
edge $-1 $491 -65.146630093830836 $332 -46.383686897452861 $323 $492 forward 7 unknown #
vertex $-1 $481 $493 #
vertex $-1 $207 $494 #
straight-curve $-1 -21.864877085559815 17.787914152036929 12.382273473094081 1 0 0 I I #
coedge $-1 $334 $334 $-1 $495 reversed $210 $-1 #
edge $-1 $496 0 $496 6.2831853071796004 $211 $497 forward 7 unknown #
vertex $-1 $214 $498 #
ellipse-curve $-1 -43.72975417111963 25.180614599476172 6.6064627557957518 0 0.61566148304635926 0.78801074757464917 2 0 0 1 I I #
face $-1 $-1 $350 $46 $-1 $499 reversed single #
loop $-1 $-1 $500 $215 #
plane-surface $-1 0 0 12.382273473094081 0 0 1 1 0 0 forward_v I I I I #
coedge $-1 $501 $502 $503 $504 reversed $216 $-1 #
coedge $-1 $505 $218 $220 $348 forward $136 $-1 #
coedge $-1 $218 $505 $501 $506 forward $136 $-1 #
coedge $-1 $503 $221 $218 $345 forward $350 $-1 #
edge $-1 $352 0.89465160094852259 $507 15.101073188446708 $344 $508 forward 7 unknown #
coedge $-1 $509 $510 $219 $347 forward $339 $-1 #
edge $-1 $511 -9.8338170724166645 $351 4.9515838224618136 $346 $512 forward 7 unknown #
edge $-1 $352 -65.146630093830836 $511 -46.383686897452861 $220 $513 forward 7 unknown #
coedge $-1 $221 $503 $509 $514 reversed $350 $-1 #
loop $-1 $-1 $503 $338 #
vertex $-1 $514 $515 #
vertex $-1 $222 $516 #
straight-curve $-1 -8.892513995646139 32.573315046915411 67.831391650766506 0 0 -1 I I #
coedge $-1 $354 $354 $-1 $517 reversed $225 $-1 #
edge $-1 $518 0 $518 6.2831853071796004 $226 $519 forward 7 unknown #
vertex $-1 $229 $520 #
ellipse-curve $-1 -15.995724789395233 25.180614599476172 6.6064627557957518 0 0.61566148304635926 0.78801074757464917 2 0 0 1 I I #
face $-1 $-1 $370 $48 $-1 $521 reversed single #
loop $-1 $-1 $522 $230 #
plane-surface $-1 0 0 12.382273473094081 0 0 1 1 0 0 forward_v I I I I #
coedge $-1 $523 $524 $525 $526 reversed $231 $-1 #
coedge $-1 $527 $233 $235 $368 forward $145 $-1 #
coedge $-1 $233 $527 $523 $528 forward $145 $-1 #
coedge $-1 $525 $236 $233 $365 forward $370 $-1 #
edge $-1 $372 -12.972363089913678 $529 1.2340584975845079 $364 $530 forward 7 unknown #
coedge $-1 $531 $532 $234 $367 forward $359 $-1 #
edge $-1 $533 -9.8338170724166645 $371 4.9515838224618136 $366 $534 forward 7 unknown #
edge $-1 $372 -65.146630093830836 $533 -46.383686897452861 $235 $535 forward 7 unknown #
coedge $-1 $236 $525 $531 $536 reversed $370 $-1 #
loop $-1 $-1 $525 $358 #
vertex $-1 $536 $537 #
vertex $-1 $237 $538 #
straight-curve $-1 18.841515386078264 32.573315046915411 67.831391650766506 0 0 -1 I I #
coedge $-1 $374 $374 $-1 $539 reversed $240 $-1 #
edge $-1 $540 0 $540 6.2831853071796004 $241 $541 forward 7 unknown #
vertex $-1 $244 $542 #
ellipse-curve $-1 11.738304592329172 25.180614599476172 6.6064627557957518 0 0.61566148304635926 0.78801074757464917 2 0 0 1 I I #
face $-1 $-1 $390 $50 $-1 $543 reversed single #
loop $-1 $-1 $544 $245 #
plane-surface $-1 0 0 12.382273473094081 0 0 1 1 0 0 forward_v I I I I #
coedge $-1 $545 $546 $547 $548 reversed $246 $-1 #
coedge $-1 $549 $248 $250 $388 forward $154 $-1 #
coedge $-1 $248 $549 $545 $550 forward $154 $-1 #
coedge $-1 $547 $251 $248 $385 forward $390 $-1 #
edge $-1 $392 -26.839377780775877 $551 -12.632956193277693 $384 $552 forward 7 unknown #
coedge $-1 $553 $554 $249 $387 forward $379 $-1 #
edge $-1 $555 -9.8338170724166645 $391 4.9515838224618136 $386 $556 forward 7 unknown #
edge $-1 $392 -65.146630093830836 $555 -46.383686897452861 $250 $557 forward 7 unknown #
coedge $-1 $251 $547 $553 $558 reversed $390 $-1 #
loop $-1 $-1 $547 $378 #
vertex $-1 $558 $559 #
vertex $-1 $252 $560 #
straight-curve $-1 46.575544767802661 32.573315046915411 67.831391650766506 0 0 -1 I I #
coedge $-1 $394 $394 $-1 $561 reversed $255 $-1 #
edge $-1 $562 0 $562 6.2831853071796004 $256 $563 forward 7 unknown #
vertex $-1 $259 $564 #
ellipse-curve $-1 39.472333974053569 25.180614599476172 6.6064627557957518 0 0.61566148304635926 0.78801074757464917 2 0 0 1 I I #
face $-1 $-1 $275 $39 $-1 $565 reversed single #
loop $-1 $-1 $414 $260 #
plane-surface $-1 0 32.573315046915411 0 0 -1 0 0 0 -1 forward_v I I I I #
coedge $-1 $566 $412 $415 $567 forward $261 $-1 #
coedge $-1 $418 $263 $264 $406 reversed $163 $-1 #
coedge $-1 $412 $566 $263 $404 reversed $261 $-1 #
edge $-1 $419 -12.382273473094081 $568 12.382273473094081 $403 $569 forward 7 unknown #
coedge $-1 $265 $264 $566 $570 forward $105 $-1 #
edge $-1 $410 -60.103152562028868 $568 60.103152562028868 $402 $571 forward 7 unknown #
coedge $-1 $415 $414 $265 $408 reversed $399 $-1 #
edge $-1 $572 -60.103152562028868 $409 60.103152562028868 $407 $573 forward 7 unknown #
vertex $-1 $267 $574 #
vertex $-1 $421 $575 #
straight-curve $-1 60.103152562028868 0 -12.382273473094081 0 -1 0 I I #
coedge $-1 $401 $403 $268 $413 reversed $261 $-1 #
edge $-1 $416 -32.573315046915411 $419 32.573315046915411 $412 $576 forward 7 unknown #
coedge $-1 $407 $269 $274 $422 forward $399 $-1 #
coedge $-1 $269 $407 $401 $567 reversed $399 $-1 #
vertex $-1 $270 $577 #
straight-curve $-1 0 32.573315046915411 12.382273473094081 -1 0 0 I I #
coedge $-1 $271 $402 $273 $421 reversed $163 $-1 #
vertex $-1 $413 $578 #
straight-curve $-1 0 -32.573315046915411 12.382273473094081 1 0 0 I I #
edge $-1 $276 -12.382273473094081 $410 12.382273473094081 $273 $579 forward 7 unknown #
edge $-1 $277 -12.382273473094081 $409 12.382273473094081 $274 $580 forward 7 unknown #
point $-1 60.103152562028868 -32.573315046915411 12.382273473094081 #
point $-1 60.103152562028868 32.573315046915411 12.382273473094081 #
face $-1 $-1 $442 $40 $-1 $581 reversed single #
loop $-1 $-1 $582 $279 #
plane-surface $-1 -60.103152562028868 0 0 1 0 0 0 0 -1 forward_v I I I I #
coedge $-1 $429 $445 $283 $432 forward $280 $-1 #
coedge $-1 $290 $428 $282 $430 forward $280 $-1 #
edge $-1 $436 1.2594742368916361 $293 5.392894559270788 $429 $583 forward 7 unknown #
coedge $-1 $284 $283 $582 $584 reversed $109 $-1 #
edge $-1 $585 -32.36912318030447 $436 -23.098935583144325 $428 $586 forward 7 unknown #
coedge $-1 $441 $440 $284 $434 forward $442 $-1 #
edge $-1 $435 23.098935583144325 $587 32.36912318030447 $433 $588 forward 7 unknown #
vertex $-1 $434 $589 #
vertex $-1 $432 $590 #
straight-curve $-1 -50.832964964868722 0 4.5856586349728481 0 -1 0 I I #
coedge $-1 $591 $592 $287 $439 forward $426 $-1 #
edge $-1 $446 -32.573315046915411 $443 32.573315046915411 $438 $593 forward 7 unknown #
coedge $-1 $433 $288 $292 $448 forward $442 $-1 #
coedge $-1 $288 $433 $591 $594 reversed $442 $-1 #
loop $-1 $-1 $433 $425 #
vertex $-1 $594 $595 #
straight-curve $-1 -27.734029381724397 32.573315046915411 8.719078957352 1 0 0 I I #
coedge $-1 $428 $290 $592 $596 forward $280 $-1 #
vertex $-1 $596 $597 #
straight-curve $-1 -27.734029381724397 -32.573315046915411 8.719078957352 -1 0 0 I I #
edge $-1 $294 -5.392894559270788 $435 -1.2594742368916361 $440 $598 forward 7 unknown #
point $-1 -50.832964964868722 -32.573315046915411 8.719078957352 #
point $-1 -50.832964964868722 32.573315046915411 8.719078957352 #
loop $-1 $-1 $599 $296 #
plane-surface $-1 0 0 12.382273473094081 0 0 1 1 0 0 forward_v I I I I #
coedge $-1 $299 $302 $600 $601 reversed $179 $-1 #
coedge $-1 $462 $305 $299 $455 reversed $297 $-1 #
edge $-1 $602 18.648847202172856 $308 29.072030276301238 $299 $603 forward 7 unknown #
coedge $-1 $460 $600 $301 $457 forward $451 $-1 #
edge $-1 $458 35.764199907691008 $465 41.782027246355298 $456 $604 forward 7 unknown #
vertex $-1 $303 $605 #
straight-curve $-1 -36.353071137213213 -32.573315046915411 31.031120675266937 0 0 1 I I #
coedge $-1 $599 $456 $304 $461 forward $451 $-1 #
edge $-1 $465 14.556562111692728 $463 29.036455939348244 $460 $606 forward 7 unknown #
coedge $-1 $305 $454 $599 $607 reversed $297 $-1 #
vertex $-1 $607 $608 #
straight-curve $-1 -50.832964964868729 -32.573315046915411 1.9590903989656994 0 0.49999998660252726 0.86602541151947299 I I #
vertex $-1 $461 $609 #
straight-curve $-1 -36.353071137213213 -32.573315046915411 1.9590903989656994 0 -0.49999998660252726 -0.86602541151947299 I I #
point $-1 -50.832964964868729 -32.573315046915411 1.9590903989656994 #
point $-1 -36.353071137213213 -32.573315046915411 1.9590903989656994 #
edge $-1 $610 1 $610 0 $311 $-1 forward 7 unknown #
vertex $-1 $312 $611 #
ellipse-curve $-1 -46.695852442681435 -26.409687025650307 5.3493068207965608 0 -0.86602541151947299 0.49999998660252726 1 0 0 1 I I #
point $-1 -45.695852442681435 -29.564401377583266 7.1706819360299008 #
edge $-1 $612 1 $612 0 $315 $-1 forward 7 unknown #
vertex $-1 $316 $613 #
ellipse-curve $-1 -40.4901836594005 -26.409687025650307 5.3493068207965608 0 -0.86602541151947299 0.49999998660252726 1 0 0 1 I I #
point $-1 -39.4901836594005 -29.564401377583266 7.1706819360299008 #
loop $-1 $-1 $614 $319 #
plane-surface $-1 0 32.573315046915411 0 0 -1 0 0 0 -1 forward_v I I I I #
coedge $-1 $322 $325 $615 $616 forward $201 $-1 #
coedge $-1 $488 $328 $322 $481 reversed $320 $-1 #
edge $-1 $617 -4.9515838224618136 $331 9.8338170724166645 $322 $618 forward 7 unknown #
coedge $-1 $486 $615 $324 $483 forward $477 $-1 #
edge $-1 $484 55.449118177672425 $491 67.000739612269086 $482 $619 forward 7 unknown #
vertex $-1 $616 $620 #
straight-curve $-1 -36.626543377370538 27.621731224453598 12.382273473094081 0 1 0 I I #
coedge $-1 $614 $482 $327 $487 forward $477 $-1 #
edge $-1 $491 14.761666291810723 $489 28.968087879308907 $486 $621 forward 7 unknown #
coedge $-1 $328 $480 $614 $622 reversed $320 $-1 #
vertex $-1 $622 $623 #
straight-curve $-1 -50.832964964868722 -18.762929635293361 40.938922937537896 0 0.78801074757464917 -0.61566148304635926 I I #
vertex $-1 $487 $624 #
straight-curve $-1 -36.626543377370538 -18.762929635293361 40.938922937537896 0 -0.78801074757464917 0.61566148304635926 I I #
point $-1 -50.832964964868722 17.787914152036933 12.382273473094081 #
point $-1 -36.626543377370538 17.787914152036933 12.382273473094081 #
edge $-1 $625 1 $625 0 $334 $-1 forward 7 unknown #
vertex $-1 $335 $626 #
ellipse-curve $-1 -43.72975417111963 22.588925329006429 3.2892518278055118 0 0.61566148304635926 0.78801074757464917 2 0 0 1 I I #
point $-1 -41.72975417111963 25.180614599476186 6.6064627557957705 #
plane-surface $-1 0 32.573315046915411 0 0 -1 0 0 0 -1 forward_v I I I I #
coedge $-1 $510 $509 $502 $627 forward $339 $-1 #
coedge $-1 $502 $341 $343 $506 reversed $216 $-1 #
coedge $-1 $341 $501 $500 $627 reversed $216 $-1 #
coedge $-1 $349 $344 $341 $504 forward $350 $-1 #
edge $-1 $507 -67.000739612269086 $628 -55.449118177672425 $503 $629 forward 7 unknown #
coedge $-1 $343 $342 $510 $630 reversed $136 $-1 #
edge $-1 $631 46.383686897452861 $507 65.146630093830836 $501 $632 forward 7 unknown #
vertex $-1 $345 $633 #
straight-curve $-1 -7.9978623946976164 32.573315046915418 0.8306520384974263 -1 0 0 I I #
coedge $-1 $500 $346 $349 $514 forward $339 $-1 #
coedge $-1 $346 $500 $505 $630 forward $339 $-1 #
vertex $-1 $347 $634 #
straight-curve $-1 -8.892513995646139 27.621731224453598 12.382273473094081 0 1 0 I I #
straight-curve $-1 -8.892513995646139 -18.762929635293361 40.938922937537896 0 -0.78801074757464917 0.61566148304635926 I I #
edge $-1 $351 8.892513995646139 $628 23.098935583144325 $349 $635 forward 7 unknown #
point $-1 -8.892513995646139 32.573315046915411 12.382273473094081 #
point $-1 -8.892513995646139 32.573315046915411 0.8306520384974263 #
edge $-1 $636 1 $636 0 $354 $-1 forward 7 unknown #
vertex $-1 $355 $637 #
ellipse-curve $-1 -15.995724789395233 22.588925329006429 3.2892518278055118 0 0.61566148304635926 0.78801074757464917 2 0 0 1 I I #
point $-1 -13.995724789395233 25.180614599476186 6.6064627557957705 #
plane-surface $-1 0 32.573315046915411 0 0 -1 0 0 0 -1 forward_v I I I I #
coedge $-1 $532 $531 $524 $638 forward $359 $-1 #
coedge $-1 $524 $361 $363 $528 reversed $231 $-1 #
coedge $-1 $361 $523 $522 $638 reversed $231 $-1 #
coedge $-1 $369 $364 $361 $526 forward $370 $-1 #
edge $-1 $529 -67.000739612269086 $639 -55.449118177672425 $525 $640 forward 7 unknown #
coedge $-1 $363 $362 $532 $641 reversed $145 $-1 #
edge $-1 $642 46.383686897452861 $529 65.146630093830836 $523 $643 forward 7 unknown #
vertex $-1 $365 $644 #
straight-curve $-1 5.8691522961645859 32.573315046915418 0.8306520384974263 -1 0 0 I I #
coedge $-1 $522 $366 $369 $536 forward $359 $-1 #
coedge $-1 $366 $522 $527 $641 forward $359 $-1 #
vertex $-1 $367 $645 #
straight-curve $-1 18.841515386078264 27.621731224453598 12.382273473094081 0 1 0 I I #
straight-curve $-1 18.841515386078264 -18.762929635293361 40.938922937537896 0 -0.78801074757464917 0.61566148304635926 I I #
edge $-1 $371 -18.841515386078264 $639 -4.635093798580078 $369 $646 forward 7 unknown #
point $-1 18.841515386078264 32.573315046915411 12.382273473094081 #
point $-1 18.841515386078264 32.573315046915411 0.8306520384974263 #
edge $-1 $647 1 $647 0 $374 $-1 forward 7 unknown #
vertex $-1 $375 $648 #
ellipse-curve $-1 11.738304592329172 22.588925329006429 3.2892518278055118 0 0.61566148304635926 0.78801074757464917 2 0 0 1 I I #
point $-1 13.738304592329172 25.180614599476186 6.6064627557957705 #
plane-surface $-1 0 32.573315046915411 0 0 -1 0 0 0 -1 forward_v I I I I #
coedge $-1 $554 $553 $546 $649 forward $379 $-1 #
coedge $-1 $546 $381 $383 $550 reversed $246 $-1 #
coedge $-1 $381 $545 $544 $649 reversed $246 $-1 #
coedge $-1 $389 $384 $381 $548 forward $390 $-1 #
edge $-1 $551 -67.000739612269086 $650 -55.449118177672425 $547 $651 forward 7 unknown #
coedge $-1 $383 $382 $554 $652 reversed $154 $-1 #
edge $-1 $653 46.383686897452861 $551 65.146630093830836 $545 $654 forward 7 unknown #
vertex $-1 $385 $655 #
straight-curve $-1 19.736166987026785 32.573315046915418 0.8306520384974263 -1 0 0 I I #
coedge $-1 $544 $386 $389 $558 forward $379 $-1 #
coedge $-1 $386 $544 $549 $652 forward $379 $-1 #
vertex $-1 $387 $656 #
straight-curve $-1 46.575544767802661 27.621731224453598 12.382273473094081 0 1 0 I I #
straight-curve $-1 46.575544767802661 -18.762929635293361 40.938922937537896 0 -0.78801074757464917 0.61566148304635926 I I #
edge $-1 $391 -46.575544767802661 $650 -32.369123180304477 $389 $657 forward 7 unknown #
point $-1 46.575544767802661 32.573315046915411 12.382273473094081 #
point $-1 46.575544767802661 32.573315046915411 0.8306520384974263 #
edge $-1 $658 1 $658 0 $394 $-1 forward 7 unknown #
vertex $-1 $395 $659 #
ellipse-curve $-1 39.472333974053569 22.588925329006429 3.2892518278055118 0 0.61566148304635926 0.78801074757464917 2 0 0 1 I I #
point $-1 41.472333974053569 25.180614599476186 6.6064627557957705 #
plane-surface $-1 60.103152562028868 0 0 -1 0 0 0 0 1 forward_v I I I I #
coedge $-1 $403 $401 $405 $570 reversed $261 $-1 #
edge $-1 $416 -12.382273473094081 $572 12.382273473094081 $415 $660 forward 7 unknown #
vertex $-1 $570 $661 #
straight-curve $-1 -60.103152562028868 -32.573315046915411 0 0 0 -1 I I #
edge $-1 $568 -32.573315046915411 $572 32.573315046915411 $566 $662 forward 7 unknown #
straight-curve $-1 0 -32.573315046915411 -12.382273473094081 -1 0 0 I I #
vertex $-1 $408 $663 #
straight-curve $-1 0 32.573315046915411 -12.382273473094081 1 0 0 I I #
point $-1 60.103152562028868 32.573315046915411 -12.382273473094081 #
point $-1 60.103152562028868 -32.573315046915411 -12.382273473094081 #
straight-curve $-1 -60.103152562028868 0 12.382273473094081 0 -1 0 I I #
point $-1 -60.103152562028868 32.573315046915411 12.382273473094081 #
point $-1 -60.103152562028868 -32.573315046915411 12.382273473094081 #
straight-curve $-1 60.103152562028868 -32.573315046915411 0 0 0 -1 I I #
straight-curve $-1 60.103152562028868 32.573315046915411 0 0 0 -1 I I #
plane-surface $-1 0 32.573315046915411 0 0 -1 0 0 0 -1 forward_v I I I I #
coedge $-1 $592 $591 $431 $584 forward $426 $-1 #
straight-curve $-1 -50.832964964868722 -32.573315046915411 3.326184398081212 0 0 1 I I #
edge $-1 $587 -32.573315046915411 $585 32.573315046915411 $582 $664 forward 7 unknown #
vertex $-1 $432 $665 #
straight-curve $-1 -27.734029381724397 -32.573315046915411 4.5856586349728481 1 0 0 I I #
vertex $-1 $434 $666 #
straight-curve $-1 -27.734029381724397 32.573315046915411 4.5856586349728481 -1 0 0 I I #
point $-1 -50.832964964868722 32.573315046915411 4.5856586349728481 #
point $-1 -50.832964964868722 -32.573315046915411 4.5856586349728481 #
coedge $-1 $582 $438 $441 $594 forward $426 $-1 #
coedge $-1 $438 $582 $445 $596 reversed $426 $-1 #
straight-curve $-1 -60.103152562028868 0 8.719078957352 0 1 0 I I #
edge $-1 $443 -8.719078957352 $587 -4.5856586349728481 $441 $667 forward 7 unknown #
point $-1 -60.103152562028868 32.573315046915411 8.719078957352 #
edge $-1 $446 -8.719078957352 $585 -4.5856586349728481 $592 $668 forward 7 unknown #
point $-1 -60.103152562028868 -32.573315046915411 8.719078957352 #
straight-curve $-1 -50.832964964868722 32.573315046915411 3.326184398081212 0 0 -1 I I #
coedge $-1 $600 $460 $462 $607 forward $451 $-1 #
coedge $-1 $456 $599 $453 $601 forward $451 $-1 #
edge $-1 $602 -50.832964964868729 $458 -36.353071137213213 $453 $669 forward 7 unknown #
vertex $-1 $601 $670 #
straight-curve $-1 -50.832964964868729 -32.573315046915411 31.031120675266937 0 0 -1 I I #
straight-curve $-1 -36.353071137213213 -68.337514954606419 12.382273473094081 0 1 0 I I #
point $-1 -36.353071137213213 -32.573315046915411 12.382273473094081 #
straight-curve $-1 -21.796509025520486 -26.555487708251118 12.382273473094081 -1 0 0 I I #
edge $-1 $463 -41.782027246355298 $602 -35.764199907691008 $599 $671 forward 7 unknown #
point $-1 -50.832964964868729 -26.555487708251118 12.382273473094081 #
point $-1 -36.353071137213213 -26.555487708251118 12.382273473094081 #
vertex $-1 $469 $672 #
point $-1 -45.695852442681435 -26.409687025650307 5.3493068207965608 #
vertex $-1 $473 $673 #
point $-1 -39.4901836594005 -26.409687025650307 5.3493068207965608 #
coedge $-1 $615 $486 $488 $622 forward $477 $-1 #
coedge $-1 $482 $614 $479 $616 reversed $477 $-1 #
edge $-1 $484 36.626543377370538 $617 50.832964964868722 $615 $674 forward 7 unknown #
vertex $-1 $622 $675 #
straight-curve $-1 -50.832964964868722 27.621731224453598 12.382273473094081 0 -1 0 I I #
straight-curve $-1 -36.626543377370538 32.573315046915411 67.831391650766506 0 0 -1 I I #
point $-1 -36.626543377370538 32.573315046915411 12.382273473094081 #
straight-curve $-1 -21.864877085559815 32.573315046915418 0.8306520384974263 -1 0 0 I I #
edge $-1 $489 -67.000739612269086 $617 -55.449118177672425 $614 $676 forward 7 unknown #
point $-1 -50.832964964868722 32.573315046915411 0.8306520384974263 #
point $-1 -36.626543377370538 32.573315046915411 0.8306520384974263 #
vertex $-1 $495 $677 #
point $-1 -41.72975417111963 22.588925329006429 3.2892518278055118 #
edge $-1 $628 -4.9515838224618136 $631 9.8338170724166645 $500 $678 forward 7 unknown #
vertex $-1 $504 $679 #
straight-curve $-1 -23.098935583144325 32.573315046915411 67.831391650766506 0 0 1 I I #
edge $-1 $631 -15.101073188446708 $511 -0.89465160094852259 $510 $680 forward 7 unknown #
vertex $-1 $630 $681 #
straight-curve $-1 -23.098935583144325 -18.762929635293361 40.938922937537896 0 0.78801074757464917 -0.61566148304635926 I I #
point $-1 -23.098935583144325 32.573315046915411 0.8306520384974263 #
point $-1 -8.892513995646139 17.787914152036933 12.382273473094081 #
straight-curve $-1 0 32.573315046915411 12.382273473094081 -1 0 0 I I #
vertex $-1 $517 $682 #
point $-1 -13.995724789395233 22.588925329006429 3.2892518278055118 #
edge $-1 $639 -4.9515838224618136 $642 9.8338170724166645 $522 $683 forward 7 unknown #
vertex $-1 $526 $684 #
straight-curve $-1 4.635093798580078 32.573315046915411 67.831391650766506 0 0 1 I I #
edge $-1 $642 -1.2340584975845079 $533 12.972363089913678 $532 $685 forward 7 unknown #
vertex $-1 $641 $686 #
straight-curve $-1 4.635093798580078 -18.762929635293361 40.938922937537896 0 0.78801074757464917 -0.61566148304635926 I I #
point $-1 4.635093798580078 32.573315046915411 0.8306520384974263 #
point $-1 18.841515386078264 17.787914152036933 12.382273473094081 #
straight-curve $-1 0 32.573315046915411 12.382273473094081 -1 0 0 I I #
vertex $-1 $539 $687 #
point $-1 13.738304592329172 22.588925329006429 3.2892518278055118 #
edge $-1 $650 -4.9515838224618136 $653 9.8338170724166645 $544 $688 forward 7 unknown #
vertex $-1 $548 $689 #
straight-curve $-1 32.369123180304477 32.573315046915411 67.831391650766506 0 0 1 I I #
edge $-1 $653 12.632956193277693 $555 26.839377780775877 $554 $690 forward 7 unknown #
vertex $-1 $652 $691 #
straight-curve $-1 32.369123180304477 -18.762929635293361 40.938922937537896 0 0.78801074757464917 -0.61566148304635926 I I #
point $-1 32.369123180304477 32.573315046915411 0.8306520384974263 #
point $-1 46.575544767802661 17.787914152036933 12.382273473094081 #
straight-curve $-1 0 32.573315046915411 12.382273473094081 -1 0 0 I I #
vertex $-1 $561 $692 #
point $-1 41.472333974053569 22.588925329006429 3.2892518278055118 #
straight-curve $-1 -60.103152562028868 32.573315046915411 0 0 0 -1 I I #
point $-1 -60.103152562028868 -32.573315046915411 -12.382273473094081 #
straight-curve $-1 -60.103152562028868 0 -12.382273473094081 0 1 0 I I #
point $-1 -60.103152562028868 32.573315046915411 -12.382273473094081 #
straight-curve $-1 -60.103152562028868 0 4.5856586349728481 0 -1 0 I I #
point $-1 -60.103152562028868 -32.573315046915411 4.5856586349728481 #
point $-1 -60.103152562028868 32.573315046915411 4.5856586349728481 #
straight-curve $-1 -60.103152562028868 32.573315046915411 0 0 0 -1 I I #
straight-curve $-1 -60.103152562028868 -32.573315046915411 0 0 0 -1 I I #
straight-curve $-1 0 -32.573315046915411 12.382273473094081 1 0 0 I I #
point $-1 -50.832964964868729 -32.573315046915411 12.382273473094081 #
straight-curve $-1 -50.832964964868729 -68.337514954606419 12.382273473094081 0 -1 0 I I #
point $-1 -46.695852442681435 -25.543661614130833 4.8493068341940342 #
point $-1 -40.4901836594005 -25.543661614130833 4.8493068341940342 #
straight-curve $-1 0 32.573315046915411 12.382273473094081 -1 0 0 I I #
point $-1 -50.832964964868722 32.573315046915411 12.382273473094081 #
straight-curve $-1 -50.832964964868722 32.573315046915411 67.831391650766506 0 0 1 I I #
point $-1 -43.72975417111963 21.35760236291371 1.7132303326562126 #
straight-curve $-1 -23.098935583144325 27.621731224453598 12.382273473094081 0 -1 0 I I #
point $-1 -23.098935583144325 32.573315046915411 12.382273473094081 #
straight-curve $-1 -7.9978623946976164 17.787914152036929 12.382273473094081 1 0 0 I I #
point $-1 -23.098935583144325 17.787914152036933 12.382273473094081 #
point $-1 -15.995724789395233 21.35760236291371 1.7132303326562126 #
straight-curve $-1 4.635093798580078 27.621731224453598 12.382273473094081 0 -1 0 I I #
point $-1 4.635093798580078 32.573315046915411 12.382273473094081 #
straight-curve $-1 5.8691522961645859 17.787914152036929 12.382273473094081 1 0 0 I I #
point $-1 4.635093798580078 17.787914152036933 12.382273473094081 #
point $-1 11.738304592329172 21.35760236291371 1.7132303326562126 #
straight-curve $-1 32.369123180304477 27.621731224453598 12.382273473094081 0 -1 0 I I #
point $-1 32.369123180304477 32.573315046915411 12.382273473094081 #
straight-curve $-1 19.736166987026785 17.787914152036929 12.382273473094081 1 0 0 I I #
point $-1 32.369123180304477 17.787914152036933 12.382273473094081 #
point $-1 39.472333974053569 21.35760236291371 1.7132303326562126 #
End-of-ACIS-data 