500 0 5 0           
7 Unknown 11 ACIS 5.0 NT 24 Thu Mar 25 17:54:15 1999 
-1 9.9999999999999995e-007 1e-010 
body $-1 $5 $-1 $6 #
body $-1 $7 $-1 $8 #
body $-1 $9 $-1 $10 #
body $-1 $11 $-1 $12 #
body $-1 $13 $-1 $14 #
lump $-1 $-1 $15 $0 #
transform $-1 1 0 0 0 1 0 0 0 1 77.714774010437338 52.669920983977327 10.899508658349971 1 rotate no_reflect no_shear #
lump $-1 $-1 $16 $1 #
transform $-1 1 0 0 0 1 0 0 0 1 77.714774010437338 52.669920983977327 10.899508658349971 1 rotate no_reflect no_shear #
lump $-1 $-1 $17 $2 #
transform $-1 1 0 0 0 1 0 0 0 1 77.714774010437338 52.669920983977327 10.899508658349971 1 rotate no_reflect no_shear #
lump $-1 $-1 $18 $3 #
transform $-1 1 0 0 0 1 0 0 0 1 77.714774010437338 52.669920983977327 10.899508658349971 1 rotate no_reflect no_shear #
lump $-1 $-1 $19 $4 #
transform $-1 1 0 0 0 1 0 0 0 1 77.714774010437338 52.669920983977327 10.899508658349971 1 rotate no_reflect no_shear #
shell $-1 $-1 $-1 $20 $-1 $5 #
shell $-1 $-1 $-1 $21 $-1 $7 #
shell $-1 $-1 $-1 $22 $-1 $9 #
shell $-1 $-1 $-1 $23 $-1 $11 #
shell $-1 $-1 $-1 $24 $-1 $13 #
face $-1 $25 $26 $15 $-1 $27 forward single #
face $-1 $28 $29 $16 $-1 $30 reversed single #
face $-1 $31 $32 $17 $-1 $33 forward single #
face $-1 $34 $35 $18 $-1 $36 reversed single #
face $-1 $37 $38 $19 $-1 $39 forward single #
face $-1 $40 $41 $15 $-1 $42 reversed single #
loop $-1 $-1 $43 $20 #
plane-surface $-1 0 0 10.899508658349971 0 0 1 1 0 0 forward_v I I I I #
face $-1 $44 $45 $16 $-1 $46 reversed single #
loop $-1 $-1 $47 $21 #
plane-surface $-1 -58.962509817468309 -47.306771961186449 0 1 0 0 0 0 -1 forward_v I I I I #
face $-1 $48 $49 $17 $-1 $50 forward single #
loop $-1 $-1 $51 $22 #
plane-surface $-1 0 52.669920983977327 0 0 -1 0 0 0 -1 forward_v I I I I #
face $-1 $52 $53 $18 $-1 $54 reversed single #
loop $-1 $-1 $55 $23 #
plane-surface $-1 -208.06896256871318 -41.943622938395571 90.70244843166715 0 1 0 -0.83867057594974714 0 0.54463902268945019 forward_v I I I I #
face $-1 $56 $57 $19 $-1 $58 forward single #
loop $-1 $59 $60 $24 #
cone-surface $-1 -74.470279364172811 -31.946521595547722 7.3901884054060805 0.83867057594974714 0 -0.54463902268945019 0.54463902268945019 0 0.83867057594974714 1 I I 0 1 1 forward I I I I #
face $-1 $61 $62 $15 $-1 $63 reversed single #
loop $-1 $-1 $64 $25 #
plane-surface $-1 0 0 -10.899508658349971 0 0 1 1 0 0 forward_v I I I I #
coedge $-1 $65 $66 $67 $68 forward $26 $-1 #
face $-1 $69 $70 $16 $-1 $71 reversed single #
loop $-1 $-1 $72 $28 #
plane-surface $-1 -57.439133255602854 -41.943622938395571 0 0 -1 0 0 0 -1 forward_v I I I I #
coedge $-1 $73 $74 $75 $76 forward $29 $-1 #
face $-1 $77 $78 $17 $-1 $79 reversed single #
loop $-1 $-1 $80 $31 #
plane-surface $-1 0 0 10.899508658349971 0 0 1 1 0 0 forward_v I I I I #
coedge $-1 $81 $82 $83 $84 forward $32 $-1 #
face $-1 $85 $86 $18 $-1 $87 reversed single #
loop $-1 $-1 $88 $34 #
plane-surface $-1 -77.714774010437338 -31.946521595547726 6.0494513005150026 -0.83867057594974714 0 0.54463902268945019 0.54463902268945019 0 0.83867057594974714 forward_v I I I I #
coedge $-1 $89 $90 $91 $92 reversed $35 $-1 #
face $-1 $-1 $93 $19 $-1 $94 forward single #
loop $-1 $95 $96 $37 #
cone-surface $-1 -72.381281417074248 -31.946521595547722 6.0335773200349383 0.83867057594974714 0 -0.54463902268945019 0.2723195113447251 0 0.41933528797487357 1 I I -0.70710678118654746 0.70710678118654746 0.5 forward I I I I #
loop $-1 $-1 $97 $24 #
coedge $-1 $60 $60 $98 $99 reversed $38 $-1 #
face $-1 $100 $101 $15 $-1 $102 reversed single #
loop $-1 $-1 $103 $40 #
plane-surface $-1 0 -52.669920983977327 0 0 1 0 0 0 1 forward_v I I I I #
coedge $-1 $104 $105 $106 $107 forward $41 $-1 #
coedge $-1 $108 $43 $109 $110 forward $26 $-1 #
coedge $-1 $43 $108 $111 $112 forward $26 $-1 #
coedge $-1 $113 $114 $43 $68 reversed $115 $-1 #
edge $-1 $116 -52.669920983977327 $117 52.669920983977327 $67 $118 forward 7 unknown #
face $-1 $119 $120 $16 $-1 $121 forward single #
loop $-1 $-1 $122 $44 #
plane-surface $-1 -55.9157566937374 -47.306771961186449 0 -1 0 0 0 0 1 forward_v I I I I #
coedge $-1 $123 $124 $125 $126 forward $45 $-1 #
coedge $-1 $127 $47 $128 $129 reversed $29 $-1 #
coedge $-1 $47 $127 $130 $131 reversed $29 $-1 #
coedge $-1 $124 $123 $47 $76 reversed $45 $-1 #
edge $-1 $132 -10.899508658349971 $133 10.899508658349971 $75 $134 forward 7 unknown #
face $-1 $135 $136 $17 $-1 $137 reversed single #
loop $-1 $-1 $138 $48 #
plane-surface $-1 -75.873330180310703 65.378448041257442 0 0 -1 0 0 0 -1 forward_v I I I I #
coedge $-1 $139 $140 $81 $141 forward $49 $-1 #
coedge $-1 $142 $51 $80 $141 reversed $32 $-1 #
coedge $-1 $51 $142 $143 $144 reversed $32 $-1 #
coedge $-1 $145 $146 $51 $84 reversed $136 $-1 #
edge $-1 $147 -10.899508658349971 $148 10.899508658349971 $83 $149 forward 7 unknown #
face $-1 $150 $151 $18 $-1 $152 reversed single #
loop $-1 $-1 $153 $52 #
plane-surface $-1 -208.06896256871318 -21.949420252699881 90.70244843166715 0 -1 0 0.83867057594974714 0 -0.54463902268945019 forward_v I I I I #
coedge $-1 $154 $155 $156 $157 reversed $53 $-1 #
coedge $-1 $90 $55 $158 $159 reversed $35 $-1 #
coedge $-1 $55 $89 $154 $160 reversed $35 $-1 #
coedge $-1 $156 $161 $55 $92 forward $162 $-1 #
edge $-1 $163 26.319707273919249 $164 29.469371248200957 $91 $165 forward 7 unknown #
loop $-1 $-1 $98 $56 #
plane-surface $-1 -77.714774010437338 -31.946521595547726 6.0494513005150026 -0.83867057594974714 0 0.54463902268945019 0.54463902268945019 0 0.83867057594974714 forward_v I I I I #
loop $-1 $-1 $166 $37 #
coedge $-1 $96 $96 $97 $167 reversed $57 $-1 #
coedge $-1 $97 $97 $96 $167 forward $59 $-1 #
coedge $-1 $98 $98 $60 $99 forward $93 $-1 #
edge $-1 $168 0 $168 6.2831853071796004 $98 $169 forward 7 unknown #
face $-1 $170 $171 $15 $-1 $172 reversed single #
loop $-1 $-1 $173 $61 #
plane-surface $-1 -77.714774010437338 0 0 1 0 0 0 0 -1 forward_v I I I I #
coedge $-1 $174 $111 $175 $176 forward $62 $-1 #
coedge $-1 $177 $64 $174 $178 forward $41 $-1 #
coedge $-1 $64 $177 $179 $180 forward $41 $-1 #
coedge $-1 $114 $113 $64 $107 reversed $115 $-1 #
edge $-1 $181 -52.669920983977327 $182 52.669920983977327 $106 $183 forward 7 unknown #
coedge $-1 $66 $65 $184 $185 forward $26 $-1 #
coedge $-1 $186 $187 $65 $110 reversed $171 $-1 #
edge $-1 $117 -77.714774010437338 $188 77.714774010437338 $109 $189 forward 7 unknown #
coedge $-1 $103 $190 $66 $112 reversed $62 $-1 #
edge $-1 $191 -77.714774010437338 $116 77.714774010437338 $111 $192 forward 7 unknown #
coedge $-1 $106 $67 $190 $193 forward $115 $-1 #
coedge $-1 $67 $106 $186 $194 reversed $115 $-1 #
loop $-1 $-1 $113 $170 #
vertex $-1 $68 $195 #
vertex $-1 $68 $196 #
straight-curve $-1 77.714774010437338 0 10.899508658349971 0 1 0 I I #
face $-1 $197 $198 $16 $-1 $199 reversed single #
loop $-1 $-1 $200 $69 #
plane-surface $-1 0 0 10.899508658349971 0 0 1 1 0 0 forward_v I I I I #
coedge $-1 $201 $202 $203 $204 reversed $70 $-1 #
coedge $-1 $75 $72 $205 $206 reversed $45 $-1 #
coedge $-1 $72 $75 $207 $208 reversed $45 $-1 #
coedge $-1 $202 $201 $72 $126 reversed $70 $-1 #
edge $-1 $209 -10.899508658349971 $210 10.899508658349971 $125 $211 forward 7 unknown #
coedge $-1 $74 $73 $212 $213 reversed $29 $-1 #
coedge $-1 $205 $214 $73 $129 forward $198 $-1 #
edge $-1 $215 -29.016535003384103 $133 -18.290236957802346 $128 $216 forward 7 unknown #
coedge $-1 $217 $207 $74 $131 forward $120 $-1 #
edge $-1 $132 18.290236957802346 $218 29.016535003384103 $130 $219 forward 7 unknown #
vertex $-1 $131 $220 #
vertex $-1 $129 $221 #
straight-curve $-1 -58.962509817468309 -41.943622938395571 0 0 0 -1 I I #
face $-1 $222 $223 $17 $-1 $224 reversed single #
loop $-1 $-1 $83 $77 #
plane-surface $-1 -74.031886350184067 59.024184512617389 0 -1 0 0 0 0 1 forward_v I I I I #
coedge $-1 $225 $226 $227 $228 forward $78 $-1 #
coedge $-1 $229 $80 $146 $230 forward $49 $-1 #
coedge $-1 $80 $229 $231 $232 forward $49 $-1 #
edge $-1 $233 -77.714774010437338 $148 -74.031886350184067 $80 $234 forward 7 unknown #
coedge $-1 $82 $81 $235 $236 reversed $32 $-1 #
coedge $-1 $237 $238 $82 $144 forward $223 $-1 #
edge $-1 $147 74.031886350184067 $239 77.714774010437338 $143 $240 forward 7 unknown #
coedge $-1 $227 $83 $238 $241 reversed $136 $-1 #
coedge $-1 $83 $227 $139 $230 reversed $136 $-1 #
vertex $-1 $144 $242 #
vertex $-1 $230 $243 #
straight-curve $-1 -74.031886350184067 52.669920983977327 0 0 0 1 I I #
face $-1 $-1 $162 $18 $-1 $244 forward single #
loop $-1 $-1 $245 $85 #
plane-surface $-1 -77.714774010437338 0 0 1 0 0 0 0 -1 forward_v I I I I #
coedge $-1 $246 $247 $248 $249 reversed $86 $-1 #
coedge $-1 $250 $88 $90 $160 forward $53 $-1 #
coedge $-1 $88 $250 $246 $251 forward $53 $-1 #
coedge $-1 $248 $91 $88 $157 forward $162 $-1 #
edge $-1 $164 -25.97036214062171 $252 -5.9761594549260177 $156 $253 forward 7 unknown #
coedge $-1 $254 $255 $89 $159 forward $151 $-1 #
edge $-1 $256 -39.301772915318573 $163 -34.451715557483602 $158 $257 forward 7 unknown #
edge $-1 $164 -5.7830303064377215 $256 0 $90 $258 forward 7 unknown #
coedge $-1 $91 $248 $254 $259 forward $162 $-1 #
loop $-1 $-1 $248 $150 #
vertex $-1 $159 $260 #
vertex $-1 $92 $261 #
straight-curve $-1 -104.03448128435659 -41.943622938395571 10.899508658349973 1 0 0 I I #
coedge $-1 $166 $166 $-1 $262 reversed $95 $-1 #
edge $-1 $263 0 $263 6.2831853071796004 $96 $264 forward 7 unknown #
vertex $-1 $99 $265 #
ellipse-curve $-1 -76.139942023296484 -31.946521595547722 8.4744799794324877 -0.83867057594974714 0 0.54463902268945019 0.54463902268945019 0 0.83867057594974714 1 I I #
face $-1 $-1 $115 $15 $-1 $266 reversed single #
loop $-1 $-1 $186 $100 #
plane-surface $-1 0 52.669920983977327 0 0 -1 0 0 0 -1 forward_v I I I I #
coedge $-1 $267 $184 $187 $268 forward $101 $-1 #
coedge $-1 $190 $103 $104 $178 reversed $62 $-1 #
coedge $-1 $184 $267 $103 $176 reversed $101 $-1 #
edge $-1 $191 -10.899508658349971 $269 10.899508658349971 $175 $270 forward 7 unknown #
coedge $-1 $105 $104 $267 $271 forward $41 $-1 #
edge $-1 $182 -77.714774010437338 $269 77.714774010437338 $174 $272 forward 7 unknown #
coedge $-1 $187 $186 $105 $180 reversed $171 $-1 #
edge $-1 $273 -77.714774010437338 $181 77.714774010437338 $179 $274 forward 7 unknown #
vertex $-1 $107 $275 #
vertex $-1 $193 $276 #
straight-curve $-1 77.714774010437338 0 -10.899508658349971 0 -1 0 I I #
coedge $-1 $173 $175 $108 $185 reversed $101 $-1 #
edge $-1 $188 -52.669920983977327 $191 52.669920983977327 $184 $277 forward 7 unknown #
coedge $-1 $179 $109 $114 $194 forward $171 $-1 #
coedge $-1 $109 $179 $173 $268 reversed $171 $-1 #
vertex $-1 $110 $278 #
straight-curve $-1 0 52.669920983977327 10.899508658349971 -1 0 0 I I #
coedge $-1 $111 $174 $113 $193 reversed $62 $-1 #
vertex $-1 $185 $279 #
straight-curve $-1 0 -52.669920983977327 10.899508658349971 1 0 0 I I #
edge $-1 $116 -10.899508658349971 $182 10.899508658349971 $113 $280 forward 7 unknown #
edge $-1 $117 -10.899508658349971 $181 10.899508658349971 $114 $281 forward 7 unknown #
point $-1 77.714774010437338 -52.669920983977327 10.899508658349971 #
point $-1 77.714774010437338 52.669920983977327 10.899508658349971 #
face $-1 $-1 $282 $16 $-1 $283 reversed single #
loop $-1 $-1 $284 $119 #
plane-surface $-1 0 0 -10.899508658349971 0 0 1 1 0 0 forward_v I I I I #
coedge $-1 $207 $217 $202 $285 forward $120 $-1 #
coedge $-1 $125 $122 $284 $286 reversed $70 $-1 #
coedge $-1 $122 $125 $200 $285 reversed $70 $-1 #
coedge $-1 $287 $288 $122 $204 forward $282 $-1 #
edge $-1 $289 -10.899508658349971 $290 10.899508658349971 $203 $291 forward 7 unknown #
coedge $-1 $284 $128 $123 $206 forward $198 $-1 #
edge $-1 $133 -30.242943189666882 $210 -27.196190065935973 $205 $292 forward 7 unknown #
coedge $-1 $130 $200 $124 $208 forward $120 $-1 #
edge $-1 $209 27.196190065935973 $132 30.242943189666882 $207 $293 forward 7 unknown #
vertex $-1 $208 $294 #
vertex $-1 $206 $295 #
straight-curve $-1 -55.9157566937374 -41.943622938395571 0 0 0 -1 I I #
coedge $-1 $288 $287 $127 $213 forward $282 $-1 #
edge $-1 $218 -10.899508658349971 $215 10.899508658349971 $212 $296 forward 7 unknown #
coedge $-1 $128 $284 $288 $297 forward $198 $-1 #
vertex $-1 $129 $298 #
straight-curve $-1 -58.962509817468309 -23.653385980593225 -10.899508658349971 0 1 0 I I #
coedge $-1 $200 $130 $287 $299 forward $120 $-1 #
vertex $-1 $299 $300 #
straight-curve $-1 -58.962509817468309 -23.653385980593225 10.899508658349971 0 -1 0 I I #
point $-1 -58.962509817468309 -41.943622938395571 10.899508658349971 #
point $-1 -58.962509817468309 -41.943622938395571 -10.899508658349971 #
face $-1 $-1 $301 $17 $-1 $302 reversed single #
loop $-1 $-1 $143 $135 #
plane-surface $-1 0 0 -10.899508658349971 0 0 1 1 0 0 forward_v I I I I #
coedge $-1 $303 $138 $304 $305 reversed $78 $-1 #
coedge $-1 $138 $303 $229 $306 reversed $78 $-1 #
coedge $-1 $146 $145 $138 $228 reversed $136 $-1 #
edge $-1 $307 -10.899508658349971 $308 10.899508658349971 $227 $309 forward 7 unknown #
coedge $-1 $140 $139 $226 $306 forward $49 $-1 #
edge $-1 $148 -6.3542635286400539 $307 6.3542635286400539 $146 $310 forward 7 unknown #
coedge $-1 $311 $235 $140 $232 reversed $301 $-1 #
edge $-1 $312 -65.378448041257442 $233 -52.669920983977327 $231 $313 forward 7 unknown #
vertex $-1 $236 $314 #
straight-curve $-1 0 52.669920983977327 10.899508658349971 1 0 0 I I #
coedge $-1 $231 $315 $142 $236 forward $301 $-1 #
edge $-1 $239 -10.899508658349971 $233 10.899508658349971 $235 $316 forward 7 unknown #
coedge $-1 $304 $143 $315 $317 forward $223 $-1 #
coedge $-1 $143 $304 $145 $241 forward $223 $-1 #
vertex $-1 $317 $318 #
straight-curve $-1 0 52.669920983977327 -10.899508658349971 -1 0 0 I I #
edge $-1 $308 -6.3542635286400539 $147 6.3542635286400539 $145 $319 forward 7 unknown #
point $-1 -74.031886350184067 52.669920983977335 -10.899508658349971 #
point $-1 -74.031886350184067 52.669920983977335 10.899508658349971 #
plane-surface $-1 0 0 10.899508658349971 0 0 1 1 0 0 forward_v I I I I #
coedge $-1 $255 $254 $247 $320 forward $151 $-1 #
coedge $-1 $247 $153 $155 $251 reversed $86 $-1 #
coedge $-1 $153 $246 $245 $320 reversed $86 $-1 #
coedge $-1 $161 $156 $153 $249 forward $162 $-1 #
edge $-1 $252 -29.469371248200957 $321 -26.319707273919249 $248 $322 forward 7 unknown #
coedge $-1 $155 $154 $255 $323 reversed $53 $-1 #
edge $-1 $324 0 $252 5.7830303064377215 $246 $325 forward 7 unknown #
vertex $-1 $157 $326 #
straight-curve $-1 -74.56511003615563 -15.973260797773863 10.899508658349973 0 1 0 I I #
coedge $-1 $245 $158 $161 $259 reversed $151 $-1 #
coedge $-1 $158 $245 $250 $323 forward $151 $-1 #
vertex $-1 $159 $327 #
straight-curve $-1 -77.714774010437338 -41.943622938395571 45.351224215833575 0 0 1 I I #
straight-curve $-1 -77.714774010437338 -41.943622938395571 6.0494513005150026 -0.54463902268945019 0 -0.83867057594974714 I I #
edge $-1 $321 21.949420252699881 $163 41.943622938395571 $254 $328 forward 7 unknown #
point $-1 -77.714774010437338 -41.943622938395571 10.899508658349971 #
point $-1 -74.56511003615563 -41.943622938395571 10.899508658349971 #
edge $-1 $329 1 $329 0 $166 $-1 forward 7 unknown #
vertex $-1 $167 $330 #
ellipse-curve $-1 -72.800616705049123 -31.946521595547722 6.3058968313796635 -0.83867057594974714 0 0.54463902268945019 0.54463902268945019 0 0.83867057594974714 1 I I #
point $-1 -75.595303000607046 -31.946521595547722 9.3131505553822436 #
plane-surface $-1 77.714774010437338 0 0 -1 0 0 0 0 1 forward_v I I I I #
coedge $-1 $175 $173 $177 $271 reversed $101 $-1 #
edge $-1 $188 -10.899508658349971 $273 10.899508658349971 $187 $331 forward 7 unknown #
vertex $-1 $271 $332 #
straight-curve $-1 -77.714774010437338 -52.669920983977327 0 0 0 -1 I I #
edge $-1 $269 -52.669920983977327 $273 52.669920983977327 $267 $333 forward 7 unknown #
straight-curve $-1 0 -52.669920983977327 -10.899508658349971 -1 0 0 I I #
vertex $-1 $180 $334 #
straight-curve $-1 0 52.669920983977327 -10.899508658349971 1 0 0 I I #
point $-1 77.714774010437338 52.669920983977327 -10.899508658349971 #
point $-1 77.714774010437338 -52.669920983977327 -10.899508658349971 #
straight-curve $-1 -77.714774010437338 0 10.899508658349971 0 -1 0 I I #
point $-1 -77.714774010437338 52.669920983977327 10.899508658349971 #
point $-1 -77.714774010437338 -52.669920983977327 10.899508658349971 #
straight-curve $-1 77.714774010437338 -52.669920983977327 0 0 0 -1 I I #
straight-curve $-1 77.714774010437338 52.669920983977327 0 0 0 -1 I I #
loop $-1 $-1 $203 $197 #
plane-surface $-1 0 -52.669920983977327 0 0 1 0 0 0 1 forward_v I I I I #
coedge $-1 $214 $205 $201 $286 forward $198 $-1 #
edge $-1 $290 -29.016535003384103 $209 -18.290236957802346 $200 $335 forward 7 unknown #
edge $-1 $210 18.290236957802346 $289 29.016535003384103 $284 $336 forward 7 unknown #
coedge $-1 $212 $203 $217 $299 reversed $282 $-1 #
coedge $-1 $203 $212 $214 $297 reversed $282 $-1 #
vertex $-1 $297 $337 #
vertex $-1 $204 $338 #
straight-curve $-1 -55.9157566937374 -52.669920983977327 0 0 0 1 I I #
straight-curve $-1 -28.719566627801427 -41.943622938395571 -10.899508658349971 1 0 0 I I #
straight-curve $-1 -28.719566627801427 -41.943622938395571 10.899508658349971 -1 0 0 I I #
point $-1 -55.9157566937374 -41.943622938395571 10.899508658349971 #
point $-1 -55.9157566937374 -41.943622938395571 -10.899508658349971 #
straight-curve $-1 -58.962509817468309 -52.669920983977327 0 0 0 -1 I I #
edge $-1 $289 55.9157566937374 $215 58.962509817468309 $288 $339 forward 7 unknown #
point $-1 -58.962509817468309 -52.669920983977327 -10.899508658349971 #
edge $-1 $218 -58.962509817468309 $290 -55.9157566937374 $287 $340 forward 7 unknown #
point $-1 -58.962509817468309 -52.669920983977327 10.899508658349971 #
loop $-1 $-1 $235 $222 #
plane-surface $-1 -77.714774010437338 0 0 1 0 0 0 0 -1 forward_v I I I I #
coedge $-1 $226 $225 $311 $341 reversed $78 $-1 #
coedge $-1 $238 $237 $225 $305 forward $223 $-1 #
edge $-1 $342 -1.8414438301266358 $308 1.8414438301266358 $225 $343 forward 7 unknown #
edge $-1 $307 -1.8414438301266358 $312 1.8414438301266358 $226 $344 forward 7 unknown #
vertex $-1 $230 $345 #
vertex $-1 $241 $346 #
straight-curve $-1 -74.031886350184067 65.378448041257442 0 0 0 -1 I I #
straight-curve $-1 -74.031886350184067 59.024184512617389 10.899508658349971 0 1 0 I I #
coedge $-1 $315 $231 $303 $341 forward $301 $-1 #
vertex $-1 $306 $347 #
straight-curve $-1 -77.714774010437338 0 10.899508658349971 0 -1 0 I I #
point $-1 -77.714774010437338 52.669920983977327 10.899508658349971 #
coedge $-1 $235 $311 $237 $317 reversed $301 $-1 #
straight-curve $-1 -77.714774010437338 52.669920983977327 0 0 0 1 I I #
edge $-1 $239 -6.3542635286400611 $342 6.3542635286400539 $315 $348 forward 7 unknown #
point $-1 -77.714774010437338 52.669920983977327 -10.899508658349971 #
straight-curve $-1 -74.031886350184067 59.024184512617389 -10.899508658349971 0 -1 0 I I #
edge $-1 $321 34.451715557483602 $324 39.301772915318573 $245 $349 forward 7 unknown #
vertex $-1 $259 $350 #
straight-curve $-1 -104.03448128435659 -21.949420252699881 10.899508658349973 -1 0 0 I I #
edge $-1 $324 5.9761594549260177 $256 25.97036214062171 $255 $351 forward 7 unknown #
vertex $-1 $323 $352 #
straight-curve $-1 -77.714774010437338 -21.949420252699881 6.0494513005150026 0.54463902268945019 0 0.83867057594974714 I I #
point $-1 -74.56511003615563 -21.949420252699881 10.899508658349971 #
point $-1 -77.714774010437338 -41.943622938395571 6.0494513005150026 #
straight-curve $-1 -77.714774010437338 0 10.899508658349971 0 -1 0 I I #
vertex $-1 $262 $353 #
point $-1 -72.255977682359671 -31.946521595547722 7.1445674073294105 #
straight-curve $-1 -77.714774010437338 52.669920983977327 0 0 0 -1 I I #
point $-1 -77.714774010437338 -52.669920983977327 -10.899508658349971 #
straight-curve $-1 -77.714774010437338 0 -10.899508658349971 0 1 0 I I #
point $-1 -77.714774010437338 52.669920983977327 -10.899508658349971 #
straight-curve $-1 -55.9157566937374 -23.653385980593225 10.899508658349971 0 1 0 I I #
straight-curve $-1 -55.9157566937374 -23.653385980593225 -10.899508658349971 0 -1 0 I I #
point $-1 -55.9157566937374 -52.669920983977327 -10.899508658349971 #
point $-1 -55.9157566937374 -52.669920983977327 10.899508658349971 #
straight-curve $-1 0 -52.669920983977327 -10.899508658349971 -1 0 0 I I #
straight-curve $-1 0 -52.669920983977327 10.899508658349971 1 0 0 I I #
edge $-1 $312 -10.899508658349971 $342 10.899508658349971 $303 $354 forward 7 unknown #
vertex $-1 $305 $355 #
straight-curve $-1 -75.873330180310703 65.378448041257442 -10.899508658349971 1 0 0 I I #
straight-curve $-1 -75.873330180310703 65.378448041257442 10.899508658349971 -1 0 0 I I #
point $-1 -74.031886350184067 65.378448041257442 10.899508658349971 #
point $-1 -74.031886350184067 65.378448041257442 -10.899508658349971 #
point $-1 -77.714774010437338 65.378448041257442 10.899508658349971 #
straight-curve $-1 -77.714774010437338 59.024184512617389 -10.899508658349971 0 1 0 I I #
straight-curve $-1 -77.714774010437338 -21.949420252699881 45.351224215833575 0 0 -1 I I #
point $-1 -77.714774010437338 -21.949420252699881 10.899508658349971 #
straight-curve $-1 -77.714774010437338 -15.973260797773863 6.0494513005150079 0 -1 0 I I #
point $-1 -77.714774010437338 -21.949420252699881 6.0494513005150026 #
point $-1 -71.961946129099374 -31.946521595547722 5.7612578086902131 #
straight-curve $-1 -77.714774010437338 65.378448041257442 0 0 0 -1 I I #
point $-1 -77.714774010437338 65.378448041257442 -10.899508658349971 #
End-of-ACIS-data 