500 0 13 0           
7 Unknown 11 ACIS 5.0 NT 24 Fri Mar 26 14:43:15 1999 
-1 9.9999999999999995e-007 1e-010 
body $-1 $13 $-1 $14 #
body $-1 $15 $-1 $16 #
body $-1 $17 $-1 $18 #
body $-1 $19 $-1 $20 #
body $-1 $21 $-1 $22 #
body $-1 $23 $-1 $24 #
body $-1 $25 $-1 $26 #
body $-1 $27 $-1 $28 #
body $-1 $29 $-1 $30 #
body $-1 $31 $-1 $32 #
body $-1 $33 $-1 $34 #
body $-1 $35 $-1 $36 #
body $-1 $37 $-1 $38 #
lump $-1 $-1 $39 $0 #
transform $-1 1 0 0 0 1 0 0 0 1 51.162450025940736 29.188843677631034 7.9503009411447261 1 rotate no_reflect no_shear #
lump $-1 $-1 $40 $1 #
transform $-1 1 0 0 0 1 0 0 0 1 51.162450025940736 29.188843677631034 7.9503009411447261 1 rotate no_reflect no_shear #
lump $-1 $-1 $41 $2 #
transform $-1 1 0 0 0 1 0 0 0 1 51.162450025940736 29.188843677631034 7.9503009411447261 1 rotate no_reflect no_shear #
lump $-1 $-1 $42 $3 #
transform $-1 1 0 0 0 1 0 0 0 1 51.162450025940736 29.188843677631034 7.9503009411447261 1 rotate no_reflect no_shear #
lump $-1 $-1 $43 $4 #
transform $-1 1 0 0 0 1 0 0 0 1 51.162450025940736 29.188843677631034 7.9503009411447261 1 rotate no_reflect no_shear #
lump $-1 $-1 $44 $5 #
transform $-1 1 0 0 0 1 0 0 0 1 51.162450025940736 29.188843677631034 7.9503009411447261 1 rotate no_reflect no_shear #
lump $-1 $-1 $45 $6 #
transform $-1 1 0 0 0 1 0 0 0 1 51.162450025940736 29.188843677631034 7.9503009411447261 1 rotate no_reflect no_shear #
lump $-1 $-1 $46 $7 #
transform $-1 1 0 0 0 1 0 0 0 1 51.162450025940736 29.188843677631034 7.9503009411447261 1 rotate no_reflect no_shear #
lump $-1 $-1 $47 $8 #
transform $-1 1 0 0 0 1 0 0 0 1 51.162450025940736 29.188843677631034 7.9503009411447261 1 rotate no_reflect no_shear #
lump $-1 $-1 $48 $9 #
transform $-1 1 0 0 0 1 0 0 0 1 51.162450025940736 29.188843677631034 7.9503009411447261 1 rotate no_reflect no_shear #
lump $-1 $-1 $49 $10 #
transform $-1 1 0 0 0 1 0 0 0 1 51.162450025940736 29.188843677631034 7.9503009411447261 1 rotate no_reflect no_shear #
lump $-1 $-1 $50 $11 #
transform $-1 1 0 0 0 1 0 0 0 1 51.162450025940736 29.188843677631034 7.9503009411447261 1 rotate no_reflect no_shear #
lump $-1 $-1 $51 $12 #
transform $-1 1 0 0 0 1 0 0 0 1 51.162450025940736 29.188843677631034 7.9503009411447261 1 rotate no_reflect no_shear #
shell $-1 $-1 $-1 $52 $-1 $13 #
shell $-1 $-1 $-1 $53 $-1 $15 #
shell $-1 $-1 $-1 $54 $-1 $17 #
shell $-1 $-1 $-1 $55 $-1 $19 #
shell $-1 $-1 $-1 $56 $-1 $21 #
shell $-1 $-1 $-1 $57 $-1 $23 #
shell $-1 $-1 $-1 $58 $-1 $25 #
shell $-1 $-1 $-1 $59 $-1 $27 #
shell $-1 $-1 $-1 $60 $-1 $29 #
shell $-1 $-1 $-1 $61 $-1 $31 #
shell $-1 $-1 $-1 $62 $-1 $33 #
shell $-1 $-1 $-1 $63 $-1 $35 #
shell $-1 $-1 $-1 $64 $-1 $37 #
face $-1 $65 $66 $39 $-1 $67 forward single #
face $-1 $68 $69 $40 $-1 $70 forward single #
face $-1 $71 $72 $41 $-1 $73 reversed single #
face $-1 $74 $75 $42 $-1 $76 forward single #
face $-1 $77 $78 $43 $-1 $79 forward single #
face $-1 $80 $81 $44 $-1 $82 reversed single #
face $-1 $83 $84 $45 $-1 $85 forward single #
face $-1 $86 $87 $46 $-1 $88 forward single #
face $-1 $89 $90 $47 $-1 $91 forward single #
face $-1 $92 $93 $48 $-1 $94 reversed single #
face $-1 $95 $96 $49 $-1 $97 forward single #
face $-1 $98 $99 $50 $-1 $100 forward single #
face $-1 $101 $102 $51 $-1 $103 forward single #
face $-1 $104 $105 $39 $-1 $106 reversed single #
loop $-1 $-1 $107 $52 #
plane-surface $-1 0 0 7.9503009411447261 0 0 1 1 0 0 forward_v I I I I #
face $-1 $108 $109 $40 $-1 $110 reversed single #
loop $-1 $-1 $111 $53 #
plane-surface $-1 -48.007917550030747 0 -1.9880484138353651 0 0 1 1 0 0 forward_v I I I I #
face $-1 $112 $113 $41 $-1 $114 reversed single #
loop $-1 $-1 $115 $54 #
plane-surface $-1 25.244139751211961 -90.76950655098662 85.374217604303183 1 0 0 0 0.6018150307709319 -0.79863550430605224 forward_v I I I I #
face $-1 $116 $117 $42 $-1 $118 forward single #
loop $-1 $119 $120 $55 #
cone-surface $-1 28.374243668381247 -25.785078490368473 5.0682280970786602 0 0.6018150307709319 -0.79863550430605224 1.5 0 0 1 I I 0 1 1.5 forward I I I I #
face $-1 $121 $122 $43 $-1 $123 forward single #
loop $-1 $124 $125 $56 #
cone-surface $-1 33.069399544135159 -25.785078490368473 5.0682280970786602 0 0.6018150307709319 -0.79863550430605224 1.5 0 0 1 I I 0 1 1.5 forward I I I I #
face $-1 $126 $127 $44 $-1 $128 reversed single #
loop $-1 $-1 $129 $57 #
plane-surface $-1 -38.640053707175923 73.881073618408379 111.95146283709472 1 0 0 0 -0.78801076186113728 -0.61566146476048833 forward_v I I I I #
face $-1 $130 $131 $45 $-1 $132 forward single #
loop $-1 $133 $134 $58 #
cone-surface $-1 -35.284554177472792 26.511818348133104 4.8850738308044459 0 -0.78801076186113728 -0.61566146476048833 1 0 0 1 I I 0 1 1 forward I I I I #
face $-1 $135 $136 $46 $-1 $137 forward single #
loop $-1 $138 $139 $59 #
cone-surface $-1 -30.251304882918099 26.511818348133104 4.8850738308044459 0 -0.78801076186113728 -0.61566146476048833 1 0 0 1 I I 0 1 1 forward I I I I #
face $-1 $140 $141 $47 $-1 $142 forward single #
loop $-1 $143 $144 $60 #
cone-surface $-1 -25.218055588363406 26.511818348133104 4.8850738308044459 0 -0.78801076186113728 -0.61566146476048833 1 0 0 1 I I 0 1 1 forward I I I I #
face $-1 $145 $146 $48 $-1 $147 reversed single #
loop $-1 $-1 $148 $61 #
plane-surface $-1 28.171621010480241 73.881073618408379 111.95146283709472 1 0 0 0 -0.78801076186113728 -0.61566146476048833 forward_v I I I I #
face $-1 $149 $150 $49 $-1 $151 forward single #
loop $-1 $152 $153 $62 #
cone-surface $-1 31.527120540183368 26.511818348133104 4.8850738308044459 0 -0.78801076186113728 -0.61566146476048833 1 0 0 1 I I 0 1 1 forward I I I I #
face $-1 $154 $155 $50 $-1 $156 forward single #
loop $-1 $157 $158 $63 #
cone-surface $-1 36.560369834738061 26.511818348133104 4.8850738308044459 0 -0.78801076186113728 -0.61566146476048833 1 0 0 1 I I 0 1 1 forward I I I I #
face $-1 $159 $160 $51 $-1 $161 forward single #
loop $-1 $162 $163 $64 #
cone-surface $-1 41.593619129292755 26.511818348133104 4.8850738308044459 0 -0.78801076186113728 -0.61566146476048833 1 0 0 1 I I 0 1 1 forward I I I I #
face $-1 $164 $165 $39 $-1 $166 reversed single #
loop $-1 $-1 $167 $65 #
plane-surface $-1 0 0 -7.9503009411447261 0 0 1 1 0 0 forward_v I I I I #
coedge $-1 $168 $169 $170 $171 forward $66 $-1 #
face $-1 $172 $173 $40 $-1 $174 reversed single #
loop $-1 $-1 $175 $68 #
plane-surface $-1 -48.007917550030747 0 -4.9880484138353651 0 0 1 1 0 0 forward_v I I I I #
coedge $-1 $176 $177 $178 $179 forward $69 $-1 #
face $-1 $180 $181 $41 $-1 $182 reversed single #
loop $-1 $-1 $183 $71 #
plane-surface $-1 30.721821606258196 -29.188843677631041 3.6539194483024318 0 -0.6018150307709319 0.79863550430605224 1 0 0 forward_v I I I I #
coedge $-1 $184 $185 $186 $187 reversed $72 $-1 #
face $-1 $-1 $188 $42 $-1 $189 forward single #
loop $-1 $190 $191 $74 #
cone-surface $-1 28.374243668381247 -24.780697379335304 3.735369371204194 0 0.6018150307709319 -0.79863550430605224 0.75 0 0 1 I I -0.70710678118654757 0.70710678118654757 0.75 forward I I I I #
loop $-1 $-1 $192 $55 #
coedge $-1 $120 $120 $193 $194 reversed $75 $-1 #
face $-1 $-1 $195 $43 $-1 $196 forward single #
loop $-1 $197 $198 $77 #
cone-surface $-1 33.069399544135159 -24.780697379335304 3.735369371204194 0 0.6018150307709319 -0.79863550430605224 0.75 0 0 1 I I -0.70710678118654757 0.70710678118654757 0.75 forward I I I I #
loop $-1 $-1 $199 $56 #
coedge $-1 $125 $125 $200 $201 reversed $78 $-1 #
face $-1 $202 $203 $44 $-1 $204 reversed single #
loop $-1 $-1 $205 $80 #
plane-surface $-1 -30.251304882918099 -6.7520488288394631 48.95396498968281 0 0.78801076186113728 0.61566146476048833 1 0 0 forward_v I I I I #
coedge $-1 $206 $207 $208 $209 reversed $81 $-1 #
face $-1 $-1 $210 $45 $-1 $211 forward single #
loop $-1 $212 $213 $83 #
cone-surface $-1 -35.284554177472792 25.39344765598581 4.0113069080705435 0 -0.78801076186113728 -0.61566146476048833 0.5 0 0 1 I I -0.70710678118654691 0.70710678118654813 0.5 forward I I I I #
loop $-1 $-1 $214 $58 #
coedge $-1 $134 $134 $215 $216 reversed $84 $-1 #
face $-1 $-1 $217 $46 $-1 $218 forward single #
loop $-1 $219 $220 $86 #
cone-surface $-1 -30.251304882918099 25.39344765598581 4.0113069080705435 0 -0.78801076186113728 -0.61566146476048833 0.5 0 0 1 I I -0.70710678118654691 0.70710678118654813 0.5 forward I I I I #
loop $-1 $-1 $221 $59 #
coedge $-1 $139 $139 $222 $223 reversed $87 $-1 #
face $-1 $-1 $224 $47 $-1 $225 forward single #
loop $-1 $226 $227 $89 #
cone-surface $-1 -25.218055588363406 25.39344765598581 4.0113069080705435 0 -0.78801076186113728 -0.61566146476048833 0.5 0 0 1 I I -0.70710678118654691 0.70710678118654813 0.5 forward I I I I #
loop $-1 $-1 $228 $60 #
coedge $-1 $144 $144 $229 $230 reversed $90 $-1 #
face $-1 $231 $232 $48 $-1 $233 reversed single #
loop $-1 $-1 $234 $92 #
plane-surface $-1 36.560369834738061 -6.7520488288394631 48.95396498968281 0 0.78801076186113728 0.61566146476048833 1 0 0 forward_v I I I I #
coedge $-1 $235 $236 $237 $238 reversed $93 $-1 #
face $-1 $-1 $239 $49 $-1 $240 forward single #
loop $-1 $241 $242 $95 #
cone-surface $-1 31.527120540183368 25.39344765598581 4.0113069080705435 0 -0.78801076186113728 -0.61566146476048833 0.5 0 0 1 I I -0.70710678118654691 0.70710678118654813 0.5 forward I I I I #
loop $-1 $-1 $243 $62 #
coedge $-1 $153 $153 $244 $245 reversed $96 $-1 #
face $-1 $-1 $246 $50 $-1 $247 forward single #
loop $-1 $248 $249 $98 #
cone-surface $-1 36.560369834738061 25.39344765598581 4.0113069080705435 0 -0.78801076186113728 -0.61566146476048833 0.5 0 0 1 I I -0.70710678118654691 0.70710678118654813 0.5 forward I I I I #
loop $-1 $-1 $250 $63 #
coedge $-1 $158 $158 $251 $252 reversed $99 $-1 #
face $-1 $-1 $253 $51 $-1 $254 forward single #
loop $-1 $255 $256 $101 #
cone-surface $-1 41.593619129292755 25.39344765598581 4.0113069080705435 0 -0.78801076186113728 -0.61566146476048833 0.5 0 0 1 I I -0.70710678118654691 0.70710678118654813 0.5 forward I I I I #
loop $-1 $-1 $257 $64 #
coedge $-1 $163 $163 $258 $259 reversed $102 $-1 #
face $-1 $260 $261 $39 $-1 $262 reversed single #
loop $-1 $-1 $263 $104 #
plane-surface $-1 0 -29.188843677631034 0 0 1 0 0 0 1 forward_v I I I I #
coedge $-1 $264 $265 $266 $267 forward $105 $-1 #
coedge $-1 $268 $107 $269 $270 forward $66 $-1 #
coedge $-1 $107 $268 $271 $272 forward $66 $-1 #
coedge $-1 $273 $274 $107 $171 reversed $275 $-1 #
edge $-1 $276 -29.188843677631034 $277 29.188843677631034 $170 $278 forward 7 unknown #
face $-1 $279 $280 $40 $-1 $281 reversed single #
loop $-1 $-1 $282 $108 #
plane-surface $-1 -44.853385074120759 0 -3.4880484138353651 -1 0 0 0 0 1 forward_v I I I I #
coedge $-1 $283 $284 $285 $286 forward $109 $-1 #
coedge $-1 $287 $111 $288 $289 reversed $69 $-1 #
coedge $-1 $111 $287 $290 $291 reversed $69 $-1 #
coedge $-1 $282 $292 $111 $179 reversed $173 $-1 #
edge $-1 $293 -29.188843677631034 $294 29.188843677631034 $178 $295 forward 7 unknown #
face $-1 $296 $297 $41 $-1 $298 forward single #
loop $-1 $-1 $299 $112 #
plane-surface $-1 36.199503461304431 -90.76950655098662 85.374217604303183 -1 0 0 0 -0.6018150307709319 0.79863550430605224 forward_v I I I I #
coedge $-1 $300 $301 $302 $303 reversed $113 $-1 #
coedge $-1 $185 $115 $304 $305 reversed $72 $-1 #
coedge $-1 $115 $184 $300 $306 reversed $72 $-1 #
coedge $-1 $302 $307 $115 $187 forward $308 $-1 #
edge $-1 $309 34.736807861006866 $310 39.033189353849153 $186 $311 forward 7 unknown #
loop $-1 $-1 $193 $116 #
plane-surface $-1 30.721821606258196 -29.188843677631041 3.6539194483024318 0 -0.6018150307709319 0.79863550430605224 1 0 0 forward_v I I I I #
loop $-1 $-1 $312 $74 #
coedge $-1 $191 $191 $192 $313 reversed $117 $-1 #
coedge $-1 $192 $192 $191 $313 forward $119 $-1 #
coedge $-1 $193 $193 $120 $194 forward $188 $-1 #
edge $-1 $314 1.3155658842088859e-015 $314 6.2831853071796013 $193 $315 forward 7 unknown #
loop $-1 $-1 $200 $121 #
plane-surface $-1 30.721821606258196 -29.188843677631041 3.6539194483024318 0 -0.6018150307709319 0.79863550430605224 1 0 0 forward_v I I I I #
loop $-1 $-1 $316 $77 #
coedge $-1 $198 $198 $199 $317 reversed $122 $-1 #
coedge $-1 $199 $199 $198 $317 forward $124 $-1 #
coedge $-1 $200 $200 $125 $201 forward $195 $-1 #
edge $-1 $318 1.3155658842088859e-015 $318 6.2831853071796013 $200 $319 forward 7 unknown #
face $-1 $320 $321 $44 $-1 $322 reversed single #
loop $-1 $-1 $323 $126 #
plane-surface $-1 -21.862556058660278 73.881073618408379 111.95146283709472 -1 0 0 0 0.78801076186113728 0.61566146476048833 forward_v I I I I #
coedge $-1 $324 $325 $326 $327 reversed $127 $-1 #
coedge $-1 $207 $129 $328 $329 reversed $81 $-1 #
coedge $-1 $129 $206 $324 $330 reversed $81 $-1 #
coedge $-1 $326 $331 $129 $209 forward $332 $-1 #
edge $-1 $333 7.7516931315731554 $334 11.657013168135585 $208 $335 forward 7 unknown #
loop $-1 $-1 $215 $130 #
plane-surface $-1 -30.251304882918099 -6.7520488288394631 48.95396498968281 0 0.78801076186113728 0.61566146476048833 1 0 0 forward_v I I I I #
loop $-1 $-1 $336 $83 #
coedge $-1 $213 $213 $214 $337 reversed $131 $-1 #
coedge $-1 $214 $214 $213 $337 forward $133 $-1 #
coedge $-1 $215 $215 $134 $216 forward $210 $-1 #
edge $-1 $338 -4.3713480967034778e-016 $338 6.2831853071796004 $215 $339 forward 7 unknown #
loop $-1 $-1 $222 $135 #
plane-surface $-1 -30.251304882918099 -6.7520488288394631 48.95396498968281 0 0.78801076186113728 0.61566146476048833 1 0 0 forward_v I I I I #
loop $-1 $-1 $340 $86 #
coedge $-1 $220 $220 $221 $341 reversed $136 $-1 #
coedge $-1 $221 $221 $220 $341 forward $138 $-1 #
coedge $-1 $222 $222 $139 $223 forward $217 $-1 #
edge $-1 $342 -4.3713480967034778e-016 $342 6.2831853071796004 $222 $343 forward 7 unknown #
loop $-1 $-1 $229 $140 #
plane-surface $-1 -30.251304882918099 -6.7520488288394631 48.95396498968281 0 0.78801076186113728 0.61566146476048833 1 0 0 forward_v I I I I #
loop $-1 $-1 $344 $89 #
coedge $-1 $227 $227 $228 $345 reversed $141 $-1 #
coedge $-1 $228 $228 $227 $345 forward $143 $-1 #
coedge $-1 $229 $229 $144 $230 forward $224 $-1 #
edge $-1 $346 -4.3713480967034778e-016 $346 6.2831853071796004 $229 $347 forward 7 unknown #
face $-1 $348 $349 $48 $-1 $350 forward single #
loop $-1 $-1 $351 $145 #
plane-surface $-1 44.949118658995886 73.881073618408379 111.95146283709472 -1 0 0 0 0.78801076186113728 0.61566146476048833 forward_v I I I I #
coedge $-1 $352 $353 $354 $355 reversed $146 $-1 #
coedge $-1 $236 $148 $356 $357 reversed $93 $-1 #
coedge $-1 $148 $235 $352 $358 reversed $93 $-1 #
coedge $-1 $354 $359 $148 $238 forward $349 $-1 #
edge $-1 $360 7.7516931315731554 $361 11.657013168135585 $237 $362 forward 7 unknown #
loop $-1 $-1 $244 $149 #
plane-surface $-1 36.560369834738061 -6.7520488288394631 48.95396498968281 0 0.78801076186113728 0.61566146476048833 1 0 0 forward_v I I I I #
loop $-1 $-1 $363 $95 #
coedge $-1 $242 $242 $243 $364 reversed $150 $-1 #
coedge $-1 $243 $243 $242 $364 forward $152 $-1 #
coedge $-1 $244 $244 $153 $245 forward $239 $-1 #
edge $-1 $365 -4.3713480967034778e-016 $365 6.2831853071796004 $244 $366 forward 7 unknown #
loop $-1 $-1 $251 $154 #
plane-surface $-1 36.560369834738061 -6.7520488288394631 48.95396498968281 0 0.78801076186113728 0.61566146476048833 1 0 0 forward_v I I I I #
loop $-1 $-1 $367 $98 #
coedge $-1 $249 $249 $250 $368 reversed $155 $-1 #
coedge $-1 $250 $250 $249 $368 forward $157 $-1 #
coedge $-1 $251 $251 $158 $252 forward $246 $-1 #
edge $-1 $369 -4.3713480967034778e-016 $369 6.2831853071796004 $251 $370 forward 7 unknown #
loop $-1 $-1 $258 $159 #
plane-surface $-1 36.560369834738061 -6.7520488288394631 48.95396498968281 0 0.78801076186113728 0.61566146476048833 1 0 0 forward_v I I I I #
loop $-1 $-1 $371 $101 #
coedge $-1 $256 $256 $257 $372 reversed $160 $-1 #
coedge $-1 $257 $257 $256 $372 forward $162 $-1 #
coedge $-1 $258 $258 $163 $259 forward $253 $-1 #
edge $-1 $373 -4.3713480967034778e-016 $373 6.2831853071796004 $258 $374 forward 7 unknown #
face $-1 $375 $376 $39 $-1 $377 reversed single #
loop $-1 $-1 $378 $164 #
plane-surface $-1 -51.162450025940736 0 0 1 0 0 0 0 -1 forward_v I I I I #
coedge $-1 $379 $271 $380 $381 forward $165 $-1 #
coedge $-1 $382 $167 $379 $383 forward $105 $-1 #
coedge $-1 $167 $382 $384 $385 forward $105 $-1 #
coedge $-1 $274 $273 $167 $267 reversed $275 $-1 #
edge $-1 $386 -29.188843677631034 $387 29.188843677631034 $266 $388 forward 7 unknown #
coedge $-1 $169 $168 $389 $390 forward $66 $-1 #
coedge $-1 $391 $392 $168 $270 reversed $376 $-1 #
edge $-1 $277 -51.162450025940736 $393 51.162450025940736 $269 $394 forward 7 unknown #
coedge $-1 $263 $395 $169 $272 reversed $165 $-1 #
edge $-1 $396 -51.162450025940736 $276 51.162450025940736 $271 $397 forward 7 unknown #
coedge $-1 $266 $170 $395 $398 forward $275 $-1 #
coedge $-1 $170 $266 $391 $399 reversed $275 $-1 #
loop $-1 $-1 $273 $375 #
vertex $-1 $171 $400 #
vertex $-1 $171 $401 #
straight-curve $-1 51.162450025940736 0 7.9503009411447261 0 1 0 I I #
face $-1 $402 $403 $40 $-1 $404 reversed single #
loop $-1 $-1 $405 $172 #
plane-surface $-1 0 -29.188843677631034 0 0 1 0 0 0 1 forward_v I I I I #
coedge $-1 $285 $178 $406 $407 reversed $173 $-1 #
coedge $-1 $408 $175 $405 $409 reversed $109 $-1 #
coedge $-1 $175 $408 $410 $411 reversed $109 $-1 #
coedge $-1 $292 $282 $175 $286 reversed $173 $-1 #
edge $-1 $412 -29.188843677631034 $413 29.188843677631034 $285 $414 forward 7 unknown #
coedge $-1 $177 $176 $415 $416 reversed $69 $-1 #
coedge $-1 $417 $418 $176 $289 forward $419 $-1 #
edge $-1 $420 -27.158491250925362 $294 -20.849426299105385 $288 $421 forward 7 unknown #
coedge $-1 $422 $406 $177 $291 forward $280 $-1 #
edge $-1 $293 20.849426299105385 $423 27.158491250925362 $290 $424 forward 7 unknown #
coedge $-1 $178 $285 $417 $425 reversed $173 $-1 #
vertex $-1 $291 $426 #
vertex $-1 $289 $427 #
straight-curve $-1 -44.853385074120759 0 -1.9880484138353651 0 1 0 I I #
face $-1 $-1 $308 $41 $-1 $428 reversed single #
loop $-1 $-1 $429 $180 #
plane-surface $-1 0 0 7.9503009411447261 0 0 1 1 0 0 forward_v I I I I #
coedge $-1 $430 $431 $432 $433 reversed $181 $-1 #
coedge $-1 $434 $183 $185 $306 forward $113 $-1 #
coedge $-1 $183 $434 $430 $435 forward $113 $-1 #
coedge $-1 $432 $186 $183 $303 forward $308 $-1 #
edge $-1 $310 9.8832289480828628 $436 20.838592658175333 $302 $437 forward 7 unknown #
coedge $-1 $438 $439 $184 $305 forward $297 $-1 #
edge $-1 $440 -21.897400296477478 $309 -16.195909597862276 $304 $441 forward 7 unknown #
edge $-1 $310 8.8817612989391469e-015 $440 7.139039859703372 $185 $442 forward 7 unknown #
coedge $-1 $186 $432 $438 $443 reversed $308 $-1 #
loop $-1 $-1 $432 $296 #
vertex $-1 $443 $444 #
vertex $-1 $187 $445 #
straight-curve $-1 25.244139751211961 -29.188843677631034 42.687108802151592 0 0 -1 I I #
coedge $-1 $312 $312 $-1 $446 reversed $190 $-1 #
edge $-1 $447 0 $447 6.2831853071796004 $191 $448 forward 7 unknown #
vertex $-1 $194 $449 #
ellipse-curve $-1 28.374243668381247 -26.338098328323436 5.8021101947235794 0 -0.6018150307709319 0.79863550430605224 1.5 0 0 1 I I #
coedge $-1 $316 $316 $-1 $450 reversed $197 $-1 #
edge $-1 $451 0 $451 6.2831853071796004 $198 $452 forward 7 unknown #
vertex $-1 $201 $453 #
ellipse-curve $-1 33.069399544135159 -26.338098328323436 5.8021101947235794 0 -0.6018150307709319 0.79863550430605224 1.5 0 0 1 I I #
face $-1 $-1 $332 $44 $-1 $454 forward single #
loop $-1 $-1 $455 $202 #
plane-surface $-1 0 29.188843677631034 0 0 -1 0 0 0 -1 forward_v I I I I #
coedge $-1 $456 $457 $458 $459 reversed $203 $-1 #
coedge $-1 $460 $205 $207 $330 forward $127 $-1 #
coedge $-1 $205 $460 $456 $461 forward $127 $-1 #
coedge $-1 $458 $208 $205 $327 forward $332 $-1 #
edge $-1 $334 -23.514401265716874 $462 -6.7369036172012287 $326 $463 forward 7 unknown #
coedge $-1 $464 $465 $206 $329 forward $321 $-1 #
edge $-1 $466 -53.024012317375913 $333 -48.025430477402637 $328 $467 forward 7 unknown #
edge $-1 $334 52.034396017250998 $466 58.377687355262097 $207 $468 forward 7 unknown #
coedge $-1 $208 $458 $464 $469 forward $332 $-1 #
loop $-1 $-1 $458 $320 #
vertex $-1 $329 $470 #
vertex $-1 $209 $471 #
straight-curve $-1 -38.640053707175923 36.94053680920419 7.9503009411447252 0 -1 0 I I #
coedge $-1 $336 $336 $-1 $472 reversed $212 $-1 #
edge $-1 $473 0 $473 6.2831853071796004 $213 $474 forward 7 unknown #
vertex $-1 $216 $475 #
ellipse-curve $-1 -35.284554177472792 27.236183659349816 5.4510100211580941 0 0.78801076186113728 0.61566146476048833 1 0 0 1 I I #
coedge $-1 $340 $340 $-1 $476 reversed $219 $-1 #
edge $-1 $477 0 $477 6.2831853071796004 $220 $478 forward 7 unknown #
vertex $-1 $223 $479 #
ellipse-curve $-1 -30.251304882918099 27.236183659349816 5.4510100211580941 0 0.78801076186113728 0.61566146476048833 1 0 0 1 I I #
coedge $-1 $344 $344 $-1 $480 reversed $226 $-1 #
edge $-1 $481 0 $481 6.2831853071796004 $227 $482 forward 7 unknown #
vertex $-1 $230 $483 #
ellipse-curve $-1 -25.218055588363406 27.236183659349816 5.4510100211580941 0 0.78801076186113728 0.61566146476048833 1 0 0 1 I I #
face $-1 $-1 $484 $48 $-1 $485 reversed single #
loop $-1 $-1 $237 $231 #
plane-surface $-1 0 0 7.9503009411447261 0 0 1 1 0 0 forward_v I I I I #
coedge $-1 $486 $487 $488 $489 reversed $232 $-1 #
coedge $-1 $490 $234 $236 $358 forward $146 $-1 #
coedge $-1 $234 $490 $486 $491 forward $146 $-1 #
coedge $-1 $488 $237 $234 $355 forward $349 $-1 #
edge $-1 $361 9.89143609311121 $492 26.668933741626855 $354 $493 forward 7 unknown #
coedge $-1 $494 $495 $235 $357 forward $484 $-1 #
edge $-1 $496 -53.024012317375913 $360 -48.025430477402637 $356 $497 forward 7 unknown #
edge $-1 $361 52.034396017250998 $496 58.377687355262097 $236 $498 forward 7 unknown #
coedge $-1 $237 $488 $494 $499 forward $349 $-1 #
vertex $-1 $238 $500 #
vertex $-1 $238 $501 #
straight-curve $-1 28.171621010480241 36.94053680920419 7.9503009411447252 0 -1 0 I I #
coedge $-1 $363 $363 $-1 $502 reversed $241 $-1 #
edge $-1 $503 0 $503 6.2831853071796004 $242 $504 forward 7 unknown #
vertex $-1 $245 $505 #
ellipse-curve $-1 31.527120540183368 27.236183659349816 5.4510100211580941 0 0.78801076186113728 0.61566146476048833 1 0 0 1 I I #
coedge $-1 $367 $367 $-1 $506 reversed $248 $-1 #
edge $-1 $507 0 $507 6.2831853071796004 $249 $508 forward 7 unknown #
vertex $-1 $252 $509 #
ellipse-curve $-1 36.560369834738061 27.236183659349816 5.4510100211580941 0 0.78801076186113728 0.61566146476048833 1 0 0 1 I I #
coedge $-1 $371 $371 $-1 $510 reversed $255 $-1 #
edge $-1 $511 0 $511 6.2831853071796004 $256 $512 forward 7 unknown #
vertex $-1 $259 $513 #
ellipse-curve $-1 41.593619129292755 27.236183659349816 5.4510100211580941 0 0.78801076186113728 0.61566146476048833 1 0 0 1 I I #
face $-1 $-1 $275 $39 $-1 $514 reversed single #
loop $-1 $-1 $391 $260 #
plane-surface $-1 0 29.188843677631034 0 0 -1 0 0 0 -1 forward_v I I I I #
coedge $-1 $515 $389 $392 $516 forward $261 $-1 #
coedge $-1 $395 $263 $264 $383 reversed $165 $-1 #
coedge $-1 $389 $515 $263 $381 reversed $261 $-1 #
edge $-1 $396 -7.9503009411447261 $517 7.9503009411447261 $380 $518 forward 7 unknown #
coedge $-1 $265 $264 $515 $519 forward $105 $-1 #
edge $-1 $387 -51.162450025940736 $517 51.162450025940736 $379 $520 forward 7 unknown #
coedge $-1 $392 $391 $265 $385 reversed $376 $-1 #
edge $-1 $521 -51.162450025940736 $386 51.162450025940736 $384 $522 forward 7 unknown #
vertex $-1 $267 $523 #
vertex $-1 $398 $524 #
straight-curve $-1 51.162450025940736 0 -7.9503009411447261 0 -1 0 I I #
coedge $-1 $378 $380 $268 $390 reversed $261 $-1 #
edge $-1 $393 -29.188843677631034 $396 29.188843677631034 $389 $525 forward 7 unknown #
coedge $-1 $384 $269 $274 $399 forward $376 $-1 #
coedge $-1 $269 $384 $378 $516 reversed $376 $-1 #
vertex $-1 $270 $526 #
straight-curve $-1 0 29.188843677631034 7.9503009411447261 -1 0 0 I I #
coedge $-1 $271 $379 $273 $398 reversed $165 $-1 #
vertex $-1 $390 $527 #
straight-curve $-1 0 -29.188843677631034 7.9503009411447261 1 0 0 I I #
edge $-1 $276 -7.9503009411447261 $387 7.9503009411447261 $273 $528 forward 7 unknown #
edge $-1 $277 -7.9503009411447261 $386 7.9503009411447261 $274 $529 forward 7 unknown #
point $-1 51.162450025940736 -29.188843677631034 7.9503009411447261 #
point $-1 51.162450025940736 29.188843677631034 7.9503009411447261 #
face $-1 $-1 $419 $40 $-1 $530 reversed single #
loop $-1 $-1 $531 $279 #
plane-surface $-1 -51.162450025940736 0 0 1 0 0 0 0 -1 forward_v I I I I #
coedge $-1 $406 $422 $283 $409 forward $280 $-1 #
coedge $-1 $290 $405 $282 $407 forward $280 $-1 #
edge $-1 $413 -3.2440242069176826 $293 -0.24402420691768256 $406 $532 forward 7 unknown #
coedge $-1 $284 $283 $531 $533 reversed $109 $-1 #
edge $-1 $534 -27.158491250925362 $413 -20.849426299105385 $405 $535 forward 7 unknown #
coedge $-1 $418 $417 $284 $411 forward $419 $-1 #
edge $-1 $412 20.849426299105385 $536 27.158491250925362 $410 $537 forward 7 unknown #
vertex $-1 $411 $538 #
vertex $-1 $409 $539 #
straight-curve $-1 -44.853385074120759 0 -4.9880484138353651 0 -1 0 I I #
coedge $-1 $540 $541 $287 $416 forward $403 $-1 #
edge $-1 $423 -29.188843677631034 $420 29.188843677631034 $415 $542 forward 7 unknown #
coedge $-1 $410 $288 $292 $425 forward $419 $-1 #
coedge $-1 $288 $410 $540 $543 reversed $419 $-1 #
loop $-1 $-1 $410 $402 #
vertex $-1 $543 $544 #
straight-curve $-1 -24.003958775015374 29.188843677631034 -1.9880484138353651 1 0 0 I I #
coedge $-1 $405 $290 $541 $545 forward $280 $-1 #
vertex $-1 $545 $546 #
straight-curve $-1 -24.003958775015374 -29.188843677631034 -1.9880484138353651 -1 0 0 I I #
edge $-1 $294 0.24402420691768256 $412 3.2440242069176826 $417 $547 forward 7 unknown #
point $-1 -44.853385074120759 -29.188843677631034 -1.9880484138353651 #
point $-1 -44.853385074120759 29.188843677631034 -1.9880484138353651 #
plane-surface $-1 0 -29.188843677631034 0 0 1 0 0 0 1 forward_v I I I I #
coedge $-1 $439 $438 $431 $548 forward $297 $-1 #
coedge $-1 $431 $299 $301 $435 reversed $181 $-1 #
coedge $-1 $299 $430 $429 $548 reversed $181 $-1 #
coedge $-1 $307 $302 $299 $433 forward $308 $-1 #
edge $-1 $436 -39.033189353849153 $549 -34.736807861006866 $432 $550 forward 7 unknown #
coedge $-1 $301 $300 $439 $551 reversed $113 $-1 #
edge $-1 $552 -7.139039859703372 $436 -8.8817612989391469e-015 $430 $553 forward 7 unknown #
vertex $-1 $303 $554 #
straight-curve $-1 15.360910803129098 -29.188843677631034 3.6539194483024389 1 0 0 I I #
coedge $-1 $429 $304 $307 $443 forward $297 $-1 #
coedge $-1 $304 $429 $434 $551 forward $297 $-1 #
vertex $-1 $305 $555 #
straight-curve $-1 25.244139751211961 -45.38475327549331 7.9503009411447252 0 -1 0 I I #
straight-curve $-1 25.244139751211961 -29.188843677631041 3.6539194483024318 0 0.79863550430605224 0.6018150307709319 I I #
edge $-1 $309 25.244139751211961 $549 36.199503461304431 $307 $556 forward 7 unknown #
point $-1 25.244139751211961 -29.188843677631034 7.9503009411447261 #
point $-1 25.244139751211961 -29.188843677631034 3.6539194483024371 #
edge $-1 $557 1 $557 0 $312 $-1 forward 7 unknown #
vertex $-1 $313 $558 #
ellipse-curve $-1 28.374243668381247 -25.232058652413503 4.334345999433733 0 -0.6018150307709319 0.79863550430605224 1.5 0 0 1 I I #
point $-1 29.874243668381247 -26.33809832832344 5.8021101947235874 #
edge $-1 $559 1 $559 0 $316 $-1 forward 7 unknown #
vertex $-1 $317 $560 #
ellipse-curve $-1 33.069399544135159 -25.232058652413503 4.334345999433733 0 -0.6018150307709319 0.79863550430605224 1.5 0 0 1 I I #
point $-1 34.569399544135159 -26.33809832832344 5.8021101947235874 #
plane-surface $-1 0 0 7.9503009411447261 0 0 1 1 0 0 forward_v I I I I #
coedge $-1 $465 $464 $457 $561 forward $321 $-1 #
coedge $-1 $457 $323 $325 $461 reversed $203 $-1 #
coedge $-1 $323 $456 $455 $561 reversed $203 $-1 #
coedge $-1 $331 $326 $323 $459 forward $332 $-1 #
edge $-1 $462 -11.657013168135585 $562 -7.7516931315731554 $458 $563 forward 7 unknown #
coedge $-1 $325 $324 $465 $564 reversed $127 $-1 #
edge $-1 $565 -58.377687355262097 $462 -52.034396017250998 $456 $566 forward 7 unknown #
vertex $-1 $327 $567 #
straight-curve $-1 -15.125652441459049 25.283523641068609 7.9503009411447216 1 0 0 I I #
coedge $-1 $455 $328 $331 $469 reversed $321 $-1 #
coedge $-1 $328 $455 $460 $564 forward $321 $-1 #
vertex $-1 $329 $568 #
straight-curve $-1 -38.640053707175923 29.188843677631034 55.975731418547362 0 0 1 I I #
straight-curve $-1 -38.640053707175923 -6.7520488288394631 48.95396498968281 0 0.61566146476048833 -0.78801076186113728 I I #
edge $-1 $562 21.862556058660278 $333 38.640053707175923 $464 $569 forward 7 unknown #
point $-1 -38.640053707175923 29.188843677631034 7.9503009411447261 #
point $-1 -38.640053707175923 25.283523641068605 7.9503009411447252 #
edge $-1 $570 1 $570 0 $336 $-1 forward 7 unknown #
vertex $-1 $337 $571 #
ellipse-curve $-1 -35.284554177472792 25.787453036916379 4.319137640450788 0 0.78801076186113728 0.61566146476048833 1 0 0 1 I I #
point $-1 -34.284554177472792 27.236183659349827 5.451010021158103 #
edge $-1 $572 1 $572 0 $340 $-1 forward 7 unknown #
vertex $-1 $341 $573 #
ellipse-curve $-1 -30.251304882918099 25.787453036916379 4.319137640450788 0 0.78801076186113728 0.61566146476048833 1 0 0 1 I I #
point $-1 -29.251304882918099 27.236183659349827 5.451010021158103 #
edge $-1 $574 1 $574 0 $344 $-1 forward 7 unknown #
vertex $-1 $345 $575 #
ellipse-curve $-1 -25.218055588363406 25.787453036916379 4.319137640450788 0 0.78801076186113728 0.61566146476048833 1 0 0 1 I I #
point $-1 -24.218055588363406 27.236183659349827 5.451010021158103 #
loop $-1 $-1 $356 $348 #
plane-surface $-1 0 29.188843677631034 0 0 -1 0 0 0 -1 forward_v I I I I #
coedge $-1 $487 $351 $353 $491 reversed $232 $-1 #
coedge $-1 $351 $486 $576 $577 reversed $232 $-1 #
coedge $-1 $359 $354 $351 $489 forward $349 $-1 #
edge $-1 $492 -11.657013168135585 $578 -7.7516931315731554 $488 $579 forward 7 unknown #
coedge $-1 $353 $352 $495 $580 reversed $146 $-1 #
edge $-1 $581 -58.377687355262097 $492 -52.034396017250998 $486 $582 forward 7 unknown #
vertex $-1 $355 $583 #
straight-curve $-1 18.280184917369031 25.283523641068609 7.9503009411447216 1 0 0 I I #
coedge $-1 $576 $356 $359 $499 reversed $484 $-1 #
coedge $-1 $356 $576 $490 $580 forward $484 $-1 #
vertex $-1 $357 $584 #
straight-curve $-1 28.171621010480241 29.188843677631034 55.975731418547362 0 0 1 I I #
straight-curve $-1 28.171621010480241 -6.7520488288394631 48.95396498968281 0 0.61566146476048833 -0.78801076186113728 I I #
edge $-1 $578 -44.949118658995886 $360 -28.171621010480241 $494 $585 forward 7 unknown #
point $-1 28.171621010480241 29.188843677631034 7.9503009411447261 #
point $-1 28.171621010480241 25.283523641068605 7.9503009411447252 #
edge $-1 $586 1 $586 0 $363 $-1 forward 7 unknown #
vertex $-1 $364 $587 #
ellipse-curve $-1 31.527120540183368 25.787453036916379 4.319137640450788 0 0.78801076186113728 0.61566146476048833 1 0 0 1 I I #
point $-1 32.527120540183368 27.236183659349827 5.451010021158103 #
edge $-1 $588 1 $588 0 $367 $-1 forward 7 unknown #
vertex $-1 $368 $589 #
ellipse-curve $-1 36.560369834738061 25.787453036916379 4.319137640450788 0 0.78801076186113728 0.61566146476048833 1 0 0 1 I I #
point $-1 37.560369834738061 27.236183659349827 5.451010021158103 #
edge $-1 $590 1 $590 0 $371 $-1 forward 7 unknown #
vertex $-1 $372 $591 #
ellipse-curve $-1 41.593619129292755 25.787453036916379 4.319137640450788 0 0.78801076186113728 0.61566146476048833 1 0 0 1 I I #
point $-1 42.593619129292755 27.236183659349827 5.451010021158103 #
plane-surface $-1 51.162450025940736 0 0 -1 0 0 0 0 1 forward_v I I I I #
coedge $-1 $380 $378 $382 $519 reversed $261 $-1 #
edge $-1 $393 -7.9503009411447261 $521 7.9503009411447261 $392 $592 forward 7 unknown #
vertex $-1 $519 $593 #
straight-curve $-1 -51.162450025940736 -29.188843677631034 0 0 0 -1 I I #
edge $-1 $517 -29.188843677631034 $521 29.188843677631034 $515 $594 forward 7 unknown #
straight-curve $-1 0 -29.188843677631034 -7.9503009411447261 -1 0 0 I I #
vertex $-1 $385 $595 #
straight-curve $-1 0 29.188843677631034 -7.9503009411447261 1 0 0 I I #
point $-1 51.162450025940736 29.188843677631034 -7.9503009411447261 #
point $-1 51.162450025940736 -29.188843677631034 -7.9503009411447261 #
straight-curve $-1 -51.162450025940736 0 7.9503009411447261 0 -1 0 I I #
point $-1 -51.162450025940736 29.188843677631034 7.9503009411447261 #
point $-1 -51.162450025940736 -29.188843677631034 7.9503009411447261 #
straight-curve $-1 51.162450025940736 -29.188843677631034 0 0 0 -1 I I #
straight-curve $-1 51.162450025940736 29.188843677631034 0 0 0 -1 I I #
plane-surface $-1 0 29.188843677631034 0 0 -1 0 0 0 -1 forward_v I I I I #
coedge $-1 $541 $540 $408 $533 forward $403 $-1 #
straight-curve $-1 -44.853385074120759 -29.188843677631034 -1.7440242069176826 0 0 1 I I #
edge $-1 $536 -29.188843677631034 $534 29.188843677631034 $531 $596 forward 7 unknown #
vertex $-1 $409 $597 #
straight-curve $-1 -24.003958775015374 -29.188843677631034 -4.9880484138353651 1 0 0 I I #
vertex $-1 $411 $598 #
straight-curve $-1 -24.003958775015374 29.188843677631034 -4.9880484138353651 -1 0 0 I I #
point $-1 -44.853385074120759 29.188843677631034 -4.9880484138353651 #
point $-1 -44.853385074120759 -29.188843677631034 -4.9880484138353651 #
coedge $-1 $531 $415 $418 $543 forward $403 $-1 #
coedge $-1 $415 $531 $422 $545 reversed $403 $-1 #
straight-curve $-1 -51.162450025940736 0 -1.9880484138353651 0 1 0 I I #
edge $-1 $420 1.9880484138353651 $536 4.9880484138353651 $418 $599 forward 7 unknown #
point $-1 -51.162450025940736 29.188843677631034 -1.9880484138353651 #
edge $-1 $423 1.9880484138353651 $534 4.9880484138353651 $541 $600 forward 7 unknown #
point $-1 -51.162450025940736 -29.188843677631034 -1.9880484138353651 #
straight-curve $-1 -44.853385074120759 29.188843677631034 -1.7440242069176826 0 0 -1 I I #
edge $-1 $549 16.195909597862276 $552 21.897400296477478 $429 $601 forward 7 unknown #
vertex $-1 $548 $602 #
straight-curve $-1 36.199503461304431 -29.188843677631034 42.687108802151592 0 0 1 I I #
edge $-1 $552 -20.838592658175333 $440 -9.8832289480828628 $439 $603 forward 7 unknown #
vertex $-1 $551 $604 #
straight-curve $-1 36.199503461304431 -29.188843677631041 3.6539194483024318 0 -0.79863550430605224 -0.6018150307709319 I I #
point $-1 36.199503461304431 -29.188843677631034 3.6539194483024371 #
point $-1 25.244139751211961 -23.487352979015832 7.9503009411447261 #
straight-curve $-1 0 -29.188843677631034 7.9503009411447261 1 0 0 I I #
vertex $-1 $446 $605 #
point $-1 29.874243668381247 -25.232058652413503 4.334345999433733 #
vertex $-1 $450 $606 #
point $-1 34.569399544135159 -25.232058652413503 4.334345999433733 #
edge $-1 $562 48.025430477402637 $565 53.024012317375913 $455 $607 forward 7 unknown #
vertex $-1 $469 $608 #
straight-curve $-1 -21.862556058660278 36.94053680920419 7.9503009411447252 0 1 0 I I #
edge $-1 $565 6.7369036172012287 $466 23.514401265716874 $465 $609 forward 7 unknown #
vertex $-1 $564 $610 #
straight-curve $-1 -21.862556058660278 -6.7520488288394631 48.95396498968281 0 -0.61566146476048833 0.78801076186113728 I I #
point $-1 -21.862556058660278 25.283523641068605 7.9503009411447252 #
point $-1 -38.640053707175923 29.188843677631034 2.9517191011714488 #
straight-curve $-1 0 29.188843677631034 7.9503009411447261 -1 0 0 I I #
vertex $-1 $472 $611 #
point $-1 -34.284554177472792 25.787453036916379 4.319137640450788 #
vertex $-1 $476 $612 #
point $-1 -29.251304882918099 25.787453036916379 4.319137640450788 #
vertex $-1 $480 $613 #
point $-1 -24.218055588363406 25.787453036916379 4.319137640450788 #
coedge $-1 $495 $494 $487 $577 forward $484 $-1 #
edge $-1 $578 48.025430477402637 $581 53.024012317375913 $576 $614 forward 7 unknown #
vertex $-1 $499 $615 #
straight-curve $-1 44.949118658995886 36.94053680920419 7.9503009411447252 0 1 0 I I #
edge $-1 $581 -26.668933741626855 $496 -9.89143609311121 $495 $616 forward 7 unknown #
vertex $-1 $580 $617 #
straight-curve $-1 44.949118658995886 -6.7520488288394631 48.95396498968281 0 -0.61566146476048833 0.78801076186113728 I I #
point $-1 44.949118658995886 25.283523641068605 7.9503009411447252 #
point $-1 28.171621010480241 29.188843677631034 2.9517191011714488 #
straight-curve $-1 0 29.188843677631034 7.9503009411447261 -1 0 0 I I #
vertex $-1 $502 $618 #
point $-1 32.527120540183368 25.787453036916379 4.319137640450788 #
vertex $-1 $506 $619 #
point $-1 37.560369834738061 25.787453036916379 4.319137640450788 #
vertex $-1 $510 $620 #
point $-1 42.593619129292755 25.787453036916379 4.319137640450788 #
straight-curve $-1 -51.162450025940736 29.188843677631034 0 0 0 -1 I I #
point $-1 -51.162450025940736 -29.188843677631034 -7.9503009411447261 #
straight-curve $-1 -51.162450025940736 0 -7.9503009411447261 0 1 0 I I #
point $-1 -51.162450025940736 29.188843677631034 -7.9503009411447261 #
straight-curve $-1 -51.162450025940736 0 -4.9880484138353651 0 -1 0 I I #
point $-1 -51.162450025940736 -29.188843677631034 -4.9880484138353651 #
point $-1 -51.162450025940736 29.188843677631034 -4.9880484138353651 #
straight-curve $-1 -51.162450025940736 29.188843677631034 0 0 0 -1 I I #
straight-curve $-1 -51.162450025940736 -29.188843677631034 0 0 0 -1 I I #
straight-curve $-1 36.199503461304431 -45.38475327549331 7.9503009411447252 0 1 0 I I #
point $-1 36.199503461304431 -29.188843677631034 7.9503009411447261 #
straight-curve $-1 15.360910803129098 -23.487352979015832 7.9503009411447261 -1 0 0 I I #
point $-1 36.199503461304431 -23.487352979015832 7.9503009411447261 #
point $-1 28.374243668381247 -24.329336106257106 3.136392742974655 #
point $-1 33.069399544135159 -24.329336106257106 3.136392742974655 #
straight-curve $-1 -21.862556058660278 29.188843677631034 55.975731418547362 0 0 -1 I I #
point $-1 -21.862556058660278 29.188843677631034 7.9503009411447261 #
straight-curve $-1 -15.125652441459049 29.188843677631034 2.9517191011714488 -1 0 0 I I #
point $-1 -21.862556058660278 29.188843677631034 2.9517191011714488 #
point $-1 -35.284554177472792 24.999442275055241 3.703476175690299 #
point $-1 -30.251304882918099 24.999442275055241 3.703476175690299 #
point $-1 -25.218055588363406 24.999442275055241 3.703476175690299 #
straight-curve $-1 44.949118658995886 29.188843677631034 55.975731418547362 0 0 -1 I I #
point $-1 44.949118658995886 29.188843677631034 7.9503009411447261 #
straight-curve $-1 18.280184917369031 29.188843677631034 2.9517191011714488 -1 0 0 I I #
point $-1 44.949118658995886 29.188843677631034 2.9517191011714488 #
point $-1 31.527120540183368 24.999442275055241 3.703476175690299 #
point $-1 36.560369834738061 24.999442275055241 3.703476175690299 #
point $-1 41.593619129292755 24.999442275055241 3.703476175690299 #
End-of-ACIS-data 