500 0 7 0           
7 Unknown 11 ACIS 5.0 NT 24 Thu Mar 25 15:20:48 1999 
-1 9.9999999999999995e-007 1e-010 
body $-1 $7 $-1 $8 #
body $-1 $9 $-1 $10 #
body $-1 $11 $-1 $12 #
body $-1 $13 $-1 $14 #
body $-1 $15 $-1 $16 #
body $-1 $17 $-1 $18 #
body $-1 $19 $-1 $20 #
lump $-1 $-1 $21 $0 #
transform $-1 1 0 0 0 1 0 0 0 1 59.111911374248479 32.232561507186269 10.448162138506065 1 rotate no_reflect no_shear #
lump $-1 $-1 $22 $1 #
transform $-1 1 0 0 0 1 0 0 0 1 59.111911374248479 32.232561507186269 10.448162138506065 1 rotate no_reflect no_shear #
lump $-1 $-1 $23 $2 #
transform $-1 1 0 0 0 1 0 0 0 1 59.111911374248479 32.232561507186269 10.448162138506065 1 rotate no_reflect no_shear #
lump $-1 $-1 $24 $3 #
transform $-1 1 0 0 0 1 0 0 0 1 59.111911374248479 32.232561507186269 10.448162138506065 1 rotate no_reflect no_shear #
lump $-1 $-1 $25 $4 #
transform $-1 1 0 0 0 1 0 0 0 1 59.111911374248479 32.232561507186269 10.448162138506065 1 rotate no_reflect no_shear #
lump $-1 $-1 $26 $5 #
transform $-1 1 0 0 0 1 0 0 0 1 59.111911374248479 32.232561507186269 10.448162138506065 1 rotate no_reflect no_shear #
lump $-1 $-1 $27 $6 #
transform $-1 1 0 0 0 1 0 0 0 1 59.111911374248479 32.232561507186269 10.448162138506065 1 rotate no_reflect no_shear #
shell $-1 $-1 $-1 $28 $-1 $7 #
shell $-1 $-1 $-1 $29 $-1 $9 #
shell $-1 $-1 $-1 $30 $-1 $11 #
shell $-1 $-1 $-1 $31 $-1 $13 #
shell $-1 $-1 $-1 $32 $-1 $15 #
shell $-1 $-1 $-1 $33 $-1 $17 #
shell $-1 $-1 $-1 $34 $-1 $19 #
face $-1 $35 $36 $21 $-1 $37 forward single #
face $-1 $38 $39 $22 $-1 $40 reversed single #
face $-1 $41 $42 $23 $-1 $43 reversed single #
face $-1 $44 $45 $24 $-1 $46 forward single #
face $-1 $47 $48 $25 $-1 $49 forward single #
face $-1 $50 $51 $26 $-1 $52 reversed single #
face $-1 $53 $54 $27 $-1 $55 forward single #
face $-1 $56 $57 $21 $-1 $58 reversed single #
loop $-1 $-1 $59 $28 #
plane-surface $-1 0 0 10.448162138506065 0 0 1 1 0 0 forward_v I I I I #
face $-1 $60 $61 $22 $-1 $62 reversed single #
loop $-1 $-1 $63 $29 #
plane-surface $-1 0 -27.068244805425536 6.1935819995221344 0 0 1 1 0 0 forward_v I I I I #
face $-1 $64 $65 $23 $-1 $66 reversed single #
loop $-1 $-1 $67 $30 #
plane-surface $-1 -145.57534273800383 18.331902421465536 85.829686540272277 0 1 0 -0.73135370988377701 0 0.68199835119979291 forward_v I I I I #
face $-1 $68 $69 $24 $-1 $70 forward single #
loop $-1 $71 $72 $31 #
cone-surface $-1 -56.186151211484763 22.303519303100032 7.3777059490492043 0.73135370988377701 0 -0.68199835119979291 0.68199835119979291 0 0.73135370988377701 1 I I 0 1 1 forward I I I I #
face $-1 $73 $74 $25 $-1 $75 forward single #
loop $-1 $76 $77 $32 #
cone-surface $-1 -56.186151211484763 28.260944625551772 7.3777059490492043 0.73135370988377701 0 -0.68199835119979291 0.68199835119979291 0 0.73135370988377701 1 I I 0 1 1 forward I I I I #
face $-1 $78 $79 $26 $-1 $80 reversed single #
loop $-1 $-1 $81 $33 #
plane-surface $-1 53.276936074889079 -9.4390705860362019 170.43215721213465 0 -1 0 -0.68199836817093118 0 -0.7313536940579346 forward_v I I I I #
face $-1 $82 $83 $27 $-1 $84 forward single #
loop $-1 $85 $86 $34 #
cone-surface $-1 53.532425552488121 -15.671499344850503 4.9978976308361318 -0.68199836817093118 0 -0.7313536940579346 1.8283842351448365 0 -1.7049959204273279 1 I I 0 1 2.5 forward I I I I #
face $-1 $87 $88 $21 $-1 $89 reversed single #
loop $-1 $-1 $90 $35 #
plane-surface $-1 0 0 -10.448162138506065 0 0 1 1 0 0 forward_v I I I I #
coedge $-1 $91 $92 $93 $94 forward $36 $-1 #
face $-1 $95 $96 $22 $-1 $97 reversed single #
loop $-1 $-1 $98 $38 #
plane-surface $-1 0 -21.903928103664803 8.3208720690140989 0 -1 0 0 0 -1 forward_v I I I I #
coedge $-1 $99 $100 $101 $102 reversed $39 $-1 #
face $-1 $103 $104 $23 $-1 $105 forward single #
loop $-1 $-1 $106 $41 #
plane-surface $-1 -59.111911374248507 25.282231964325902 5.2012343532607872 -0.73135370988377701 0 0.68199835119979291 0.68199835119979291 0 0.73135370988377701 forward_v I I I I #
coedge $-1 $107 $108 $109 $110 reversed $42 $-1 #
face $-1 $-1 $111 $24 $-1 $112 forward single #
loop $-1 $113 $114 $44 #
cone-surface $-1 -55.341133792149918 22.303519303100032 6.5897144766150912 0.73135370988377701 0 -0.68199835119979291 0.34099917559989645 0 0.36567685494188851 1 I I -0.70710678118654746 0.70710678118654746 0.5 forward I I I I #
loop $-1 $-1 $115 $31 #
coedge $-1 $72 $72 $116 $117 reversed $45 $-1 #
face $-1 $-1 $118 $25 $-1 $119 forward single #
loop $-1 $120 $121 $47 #
cone-surface $-1 -55.341133792149918 28.260944625551772 6.5897144766150912 0.73135370988377701 0 -0.68199835119979291 0.34099917559989645 0 0.36567685494188851 1 I I -0.70710678118654746 0.70710678118654746 0.5 forward I I I I #
loop $-1 $-1 $122 $32 #
coedge $-1 $77 $77 $123 $124 reversed $48 $-1 #
face $-1 $125 $126 $26 $-1 $127 forward single #
loop $-1 $-1 $128 $50 #
plane-surface $-1 -27.351518118515258 -15.671499344850503 83.968727719370918 0.68199836817093118 0 0.7313536940579346 0.7313536940579346 0 -0.68199836817093118 forward_v I I I I #
coedge $-1 $129 $130 $131 $132 reversed $51 $-1 #
face $-1 $-1 $133 $27 $-1 $134 forward single #
loop $-1 $135 $136 $53 #
cone-surface $-1 50.911580357014515 -15.671499344850503 2.1873853118635349 -0.68199836817093118 0 -0.7313536940579346 0.91419211757241825 0 -0.85249796021366397 1 I I -0.70710678118654746 0.70710678118654768 1.25 forward I I I I #
loop $-1 $-1 $137 $34 #
coedge $-1 $86 $86 $138 $139 reversed $54 $-1 #
face $-1 $140 $141 $21 $-1 $142 reversed single #
loop $-1 $-1 $143 $56 #
plane-surface $-1 0 -32.232561507186269 0 0 1 0 0 0 1 forward_v I I I I #
coedge $-1 $144 $145 $146 $147 forward $57 $-1 #
coedge $-1 $148 $59 $149 $150 forward $36 $-1 #
coedge $-1 $59 $148 $151 $152 forward $36 $-1 #
coedge $-1 $153 $154 $59 $94 reversed $155 $-1 #
edge $-1 $156 -32.232561507186269 $157 32.232561507186269 $93 $158 forward 7 unknown #
face $-1 $159 $160 $22 $-1 $161 reversed single #
loop $-1 $-1 $162 $60 #
plane-surface $-1 -59.111911374248479 0 0 1 0 0 0 0 -1 forward_v I I I I #
coedge $-1 $163 $164 $165 $166 reversed $61 $-1 #
coedge $-1 $167 $63 $168 $169 reversed $39 $-1 #
coedge $-1 $63 $167 $163 $170 forward $39 $-1 #
coedge $-1 $165 $171 $63 $102 forward $172 $-1 #
edge $-1 $173 -18.698439104473501 $174 -8.3698057009520355 $101 $175 forward 7 unknown #
face $-1 $176 $177 $23 $-1 $178 reversed single #
loop $-1 $-1 $109 $64 #
plane-surface $-1 0 0 10.448162138506065 0 0 1 1 0 0 forward_v I I I I #
coedge $-1 $179 $180 $181 $182 reversed $65 $-1 #
coedge $-1 $108 $67 $183 $184 reversed $42 $-1 #
coedge $-1 $67 $107 $179 $185 reversed $42 $-1 #
coedge $-1 $181 $186 $67 $110 forward $104 $-1 #
edge $-1 $187 13.675759994753435 $188 18.568599191494911 $109 $189 forward 7 unknown #
loop $-1 $-1 $116 $68 #
plane-surface $-1 -59.111911374248507 25.282231964325902 5.2012343532607872 -0.73135370988377701 0 0.68199835119979291 0.68199835119979291 0 0.73135370988377701 forward_v I I I I #
loop $-1 $-1 $190 $44 #
coedge $-1 $114 $114 $115 $191 reversed $69 $-1 #
coedge $-1 $115 $115 $114 $191 forward $71 $-1 #
coedge $-1 $116 $116 $72 $117 forward $111 $-1 #
edge $-1 $192 0 $192 6.2831853071796004 $116 $193 forward 7 unknown #
loop $-1 $-1 $123 $73 #
plane-surface $-1 -59.111911374248507 25.282231964325902 5.2012343532607872 -0.73135370988377701 0 0.68199835119979291 0.68199835119979291 0 0.73135370988377701 forward_v I I I I #
loop $-1 $-1 $194 $47 #
coedge $-1 $121 $121 $122 $195 reversed $74 $-1 #
coedge $-1 $122 $122 $121 $195 forward $76 $-1 #
coedge $-1 $123 $123 $77 $124 forward $118 $-1 #
edge $-1 $196 0 $196 6.2831853071796004 $123 $197 forward 7 unknown #
face $-1 $198 $199 $26 $-1 $200 forward single #
loop $-1 $-1 $201 $78 #
plane-surface $-1 0 -21.903928103664803 8.3208720690140989 0 -1 0 0 0 -1 forward_v I I I I #
coedge $-1 $202 $203 $204 $205 reversed $79 $-1 #
coedge $-1 $130 $81 $206 $207 reversed $51 $-1 #
coedge $-1 $81 $129 $202 $208 reversed $51 $-1 #
coedge $-1 $204 $209 $81 $132 forward $199 $-1 #
edge $-1 $210 -32.473443336803939 $211 -24.851166163803143 $131 $212 forward 7 unknown #
loop $-1 $-1 $138 $82 #
plane-surface $-1 -27.351518118515258 -15.671499344850503 83.968727719370918 0.68199836817093118 0 0.7313536940579346 0.7313536940579346 0 -0.68199836817093118 forward_v I I I I #
loop $-1 $-1 $213 $53 #
coedge $-1 $136 $136 $137 $214 reversed $83 $-1 #
coedge $-1 $137 $137 $136 $214 forward $85 $-1 #
coedge $-1 $138 $138 $86 $139 forward $133 $-1 #
edge $-1 $215 0 $215 6.2831853071796004 $138 $216 forward 7 unknown #
face $-1 $217 $218 $21 $-1 $219 reversed single #
loop $-1 $-1 $220 $87 #
plane-surface $-1 -59.111911374248479 0 0 1 0 0 0 0 -1 forward_v I I I I #
coedge $-1 $221 $151 $222 $223 forward $88 $-1 #
coedge $-1 $224 $90 $221 $225 forward $57 $-1 #
coedge $-1 $90 $224 $226 $227 forward $57 $-1 #
coedge $-1 $154 $153 $90 $147 reversed $155 $-1 #
edge $-1 $228 -32.232561507186269 $229 32.232561507186269 $146 $230 forward 7 unknown #
coedge $-1 $92 $91 $231 $232 forward $36 $-1 #
coedge $-1 $233 $234 $91 $150 reversed $218 $-1 #
edge $-1 $157 -59.111911374248479 $235 59.111911374248479 $149 $236 forward 7 unknown #
coedge $-1 $143 $237 $92 $152 reversed $88 $-1 #
edge $-1 $238 -59.111911374248479 $156 59.111911374248479 $151 $239 forward 7 unknown #
coedge $-1 $146 $93 $237 $240 forward $155 $-1 #
coedge $-1 $93 $146 $233 $241 reversed $155 $-1 #
loop $-1 $-1 $153 $217 #
vertex $-1 $94 $242 #
vertex $-1 $94 $243 #
straight-curve $-1 59.111911374248479 0 10.448162138506065 0 1 0 I I #
face $-1 $244 $245 $22 $-1 $246 forward single #
loop $-1 $-1 $168 $95 #
plane-surface $-1 0 -32.232561507186269 0 0 1 0 0 0 1 forward_v I I I I #
coedge $-1 $247 $248 $249 $250 forward $96 $-1 #
coedge $-1 $249 $98 $100 $170 reversed $61 $-1 #
coedge $-1 $98 $249 $251 $252 reversed $61 $-1 #
coedge $-1 $253 $101 $98 $166 forward $172 $-1 #
edge $-1 $174 2.0331459650150849 $254 6.287726103999014 $165 $255 forward 7 unknown #
coedge $-1 $100 $99 $247 $256 reversed $39 $-1 #
coedge $-1 $257 $258 $99 $169 forward $160 $-1 #
edge $-1 $259 -59.111911374248479 $173 59.111911374248479 $168 $260 forward 7 unknown #
edge $-1 $261 -59.111911374248479 $174 59.111911374248479 $163 $262 forward 7 unknown #
coedge $-1 $101 $253 $257 $263 forward $172 $-1 #
loop $-1 $-1 $165 $244 #
vertex $-1 $169 $264 #
vertex $-1 $102 $265 #
straight-curve $-1 59.111911374248479 -13.534122402712768 6.1935819995221344 0 1 0 I I #
face $-1 $-1 $266 $23 $-1 $267 reversed single #
loop $-1 $-1 $268 $103 #
plane-surface $-1 0 32.232561507186269 0 0 -1 0 0 0 -1 forward_v I I I I #
coedge $-1 $269 $106 $108 $185 forward $65 $-1 #
coedge $-1 $106 $269 $268 $270 reversed $65 $-1 #
coedge $-1 $271 $109 $106 $182 forward $104 $-1 #
edge $-1 $188 5.6907864393025847 $272 19.591445525023317 $181 $273 forward 7 unknown #
coedge $-1 $274 $275 $107 $184 forward $266 $-1 #
edge $-1 $276 -37.713608916875323 $187 -32.466681131630075 $183 $277 forward 7 unknown #
edge $-1 $188 -7.1742683660948288 $276 -4.1469026767552634e-014 $108 $278 forward 7 unknown #
coedge $-1 $109 $271 $274 $279 forward $104 $-1 #
vertex $-1 $184 $280 #
vertex $-1 $110 $281 #
straight-curve $-1 -72.787671369001913 18.331902421465536 10.448162138506063 1 0 0 I I #
coedge $-1 $190 $190 $-1 $282 reversed $113 $-1 #
edge $-1 $283 0 $283 6.2831853071796004 $114 $284 forward 7 unknown #
vertex $-1 $117 $285 #
ellipse-curve $-1 -56.66549177587774 22.303519303100032 7.8246982458834404 -0.73135370988377701 0 0.68199835119979291 0.68199835119979291 0 0.73135370988377701 1 I I #
coedge $-1 $194 $194 $-1 $286 reversed $120 $-1 #
edge $-1 $287 0 $287 6.2831853071796004 $121 $288 forward 7 unknown #
vertex $-1 $124 $289 #
ellipse-curve $-1 -56.66549177587774 28.260944625551772 7.8246982458834404 -0.73135370988377701 0 0.68199835119979291 0.68199835119979291 0 0.73135370988377701 1 I I #
face $-1 $-1 $290 $26 $-1 $291 reversed single #
loop $-1 $-1 $204 $125 #
plane-surface $-1 0 0 10.448162138506065 0 0 1 1 0 0 forward_v I I I I #
coedge $-1 $292 $293 $203 $294 reversed $126 $-1 #
coedge $-1 $295 $128 $130 $208 forward $79 $-1 #
coedge $-1 $128 $295 $201 $294 forward $79 $-1 #
coedge $-1 $296 $131 $128 $205 forward $199 $-1 #
edge $-1 $211 1.6033209136109505 $297 14.068178431239552 $204 $298 forward 7 unknown #
coedge $-1 $299 $300 $129 $207 forward $290 $-1 #
edge $-1 $301 -81.875805080100747 $210 -74.767916467561264 $206 $302 forward 7 unknown #
edge $-1 $211 107.80167374599668 $301 118.22382274849696 $130 $303 forward 7 unknown #
coedge $-1 $131 $296 $299 $304 forward $199 $-1 #
vertex $-1 $207 $305 #
vertex $-1 $132 $306 #
straight-curve $-1 26.63846803744454 -9.4390705860362019 10.448162138506063 -1 0 0 I I #
coedge $-1 $213 $213 $-1 $307 reversed $135 $-1 #
edge $-1 $308 0 $308 6.2831853071796004 $136 $309 forward 7 unknown #
vertex $-1 $139 $310 #
ellipse-curve $-1 55.300772787748073 -15.671499344850503 6.8942178322363201 0.68199836817093118 0 0.7313536940579346 1.8283842351448365 0 -1.7049959204273279 1 I I #
face $-1 $-1 $155 $21 $-1 $311 reversed single #
loop $-1 $-1 $233 $140 #
plane-surface $-1 0 32.232561507186269 0 0 -1 0 0 0 -1 forward_v I I I I #
coedge $-1 $312 $231 $234 $313 forward $141 $-1 #
coedge $-1 $237 $143 $144 $225 reversed $88 $-1 #
coedge $-1 $231 $312 $143 $223 reversed $141 $-1 #
edge $-1 $238 -10.448162138506065 $314 10.448162138506065 $222 $315 forward 7 unknown #
coedge $-1 $145 $144 $312 $316 forward $57 $-1 #
edge $-1 $229 -59.111911374248479 $314 59.111911374248479 $221 $317 forward 7 unknown #
coedge $-1 $234 $233 $145 $227 reversed $218 $-1 #
edge $-1 $318 -59.111911374248479 $228 59.111911374248479 $226 $319 forward 7 unknown #
vertex $-1 $147 $320 #
vertex $-1 $240 $321 #
straight-curve $-1 59.111911374248479 0 -10.448162138506065 0 -1 0 I I #
coedge $-1 $220 $222 $148 $232 reversed $141 $-1 #
edge $-1 $235 -32.232561507186269 $238 32.232561507186269 $231 $322 forward 7 unknown #
coedge $-1 $226 $149 $154 $241 forward $218 $-1 #
coedge $-1 $149 $226 $220 $313 reversed $218 $-1 #
vertex $-1 $150 $323 #
straight-curve $-1 0 32.232561507186269 10.448162138506065 -1 0 0 I I #
coedge $-1 $151 $221 $153 $240 reversed $88 $-1 #
vertex $-1 $232 $324 #
straight-curve $-1 0 -32.232561507186269 10.448162138506065 1 0 0 I I #
edge $-1 $156 -10.448162138506065 $229 10.448162138506065 $153 $325 forward 7 unknown #
edge $-1 $157 -10.448162138506065 $228 10.448162138506065 $154 $326 forward 7 unknown #
point $-1 59.111911374248479 -32.232561507186269 10.448162138506065 #
point $-1 59.111911374248479 32.232561507186269 10.448162138506065 #
face $-1 $-1 $172 $22 $-1 $327 reversed single #
loop $-1 $-1 $251 $159 #
plane-surface $-1 0 0 10.448162138506065 0 0 1 1 0 0 forward_v I I I I #
coedge $-1 $328 $162 $167 $256 forward $96 $-1 #
coedge $-1 $162 $328 $329 $330 reversed $96 $-1 #
coedge $-1 $164 $163 $162 $250 reversed $61 $-1 #
edge $-1 $331 -6.287726103999014 $261 -2.0331459650150849 $162 $332 forward 7 unknown #
coedge $-1 $329 $333 $164 $252 forward $245 $-1 #
edge $-1 $254 -59.111911374248479 $331 59.111911374248479 $251 $334 forward 7 unknown #
coedge $-1 $171 $165 $333 $335 reversed $172 $-1 #
vertex $-1 $166 $336 #
straight-curve $-1 59.111911374248479 -21.903928103664803 4.1604360345070495 0 0 1 I I #
edge $-1 $261 8.3698057009520355 $259 18.698439104473501 $247 $337 forward 7 unknown #
coedge $-1 $338 $168 $171 $263 reversed $160 $-1 #
coedge $-1 $168 $338 $328 $339 forward $160 $-1 #
vertex $-1 $169 $340 #
straight-curve $-1 0 -32.232561507186269 6.1935819995221344 1 0 0 I I #
vertex $-1 $256 $341 #
straight-curve $-1 0 -21.903928103664803 6.1935819995221344 1 0 0 I I #
edge $-1 $342 -10.448162138506065 $173 -6.1935819995221344 $171 $343 forward 7 unknown #
point $-1 59.111911374248479 -32.232561507186269 6.1935819995221344 #
point $-1 59.111911374248479 -21.903928103664803 6.1935819995221344 #
loop $-1 $-1 $183 $176 #
plane-surface $-1 -59.111911374248479 0 0 1 0 0 0 0 -1 forward_v I I I I #
coedge $-1 $344 $345 $180 $270 forward $177 $-1 #
coedge $-1 $180 $179 $275 $346 reversed $65 $-1 #
edge $-1 $272 11.08087366054194 $347 18.255142026636726 $268 $348 forward 7 unknown #
coedge $-1 $186 $181 $345 $349 forward $104 $-1 #
vertex $-1 $349 $350 #
straight-curve $-1 -54.219072177507002 12.641115982162951 10.448162138506065 0 1 0 I I #
coedge $-1 $351 $183 $186 $279 reversed $266 $-1 #
coedge $-1 $183 $351 $269 $346 forward $266 $-1 #
vertex $-1 $184 $352 #
straight-curve $-1 -59.111911374248479 18.331902421465536 42.914843270136139 0 0 1 I I #
straight-curve $-1 -59.111911374248507 18.331902421465536 5.2012343532607872 -0.68199835119979291 0 -0.73135370988377701 I I #
edge $-1 $353 -32.232561507186269 $187 -18.331902421465536 $274 $354 forward 7 unknown #
point $-1 -59.111911374248479 18.331902421465536 10.448162138506065 #
point $-1 -54.219072177507002 18.331902421465536 10.448162138506065 #
edge $-1 $355 1 $355 0 $190 $-1 forward 7 unknown #
vertex $-1 $191 $356 #
ellipse-curve $-1 -55.706810647091807 22.303519303100032 6.9307136522149877 -0.73135370988377701 0 0.68199835119979291 0.68199835119979291 0 0.73135370988377701 1 I I #
point $-1 -55.983493424677924 22.303519303100032 8.556051955767197 #
edge $-1 $357 1 $357 0 $194 $-1 forward 7 unknown #
vertex $-1 $195 $358 #
ellipse-curve $-1 -55.706810647091807 28.260944625551772 6.9307136522149877 -0.73135370988377701 0 0.68199835119979291 0.68199835119979291 0 0.73135370988377701 1 I I #
point $-1 -55.983493424677924 28.260944625551772 8.556051955767197 #
loop $-1 $-1 $206 $198 #
plane-surface $-1 59.111911374248479 0 0 -1 0 0 0 0 1 forward_v I I I I #
coedge $-1 $293 $201 $359 $360 reversed $126 $-1 #
coedge $-1 $201 $292 $296 $361 reversed $126 $-1 #
edge $-1 $362 -118.22382274849696 $297 -107.80167374599668 $201 $363 forward 7 unknown #
coedge $-1 $203 $202 $300 $364 reversed $79 $-1 #
coedge $-1 $209 $204 $293 $361 forward $199 $-1 #
vertex $-1 $361 $365 #
straight-curve $-1 51.489634201247682 -7.8357496724252513 10.448162138506063 0 -1 0 I I #
coedge $-1 $359 $206 $209 $304 reversed $290 $-1 #
coedge $-1 $206 $359 $295 $364 forward $290 $-1 #
vertex $-1 $207 $366 #
straight-curve $-1 59.111911374248479 -9.4390705860362019 85.216078606067327 0 0 1 I I #
straight-curve $-1 -27.351518118515258 -9.4390705860362019 83.968727719370918 0.7313536940579346 0 -0.68199836817093118 I I #
edge $-1 $367 -21.903928103664803 $210 -9.4390705860362019 $299 $368 forward 7 unknown #
point $-1 59.111911374248479 -9.4390705860362019 10.448162138506065 #
point $-1 51.489634201247682 -9.4390705860362019 10.448162138506063 #
edge $-1 $369 1 $369 0 $213 $-1 forward 7 unknown #
vertex $-1 $214 $370 #
ellipse-curve $-1 51.764078317228176 -15.671499344850503 3.1015774294359533 0.68199836817093118 0 0.7313536940579346 1.8283842351448365 0 -1.7049959204273279 1 I I #
point $-1 57.129157022892898 -15.671499344850503 5.1892219118089837 #
plane-surface $-1 59.111911374248479 0 0 -1 0 0 0 0 1 forward_v I I I I #
coedge $-1 $222 $220 $224 $316 reversed $141 $-1 #
edge $-1 $235 -10.448162138506065 $318 10.448162138506065 $234 $371 forward 7 unknown #
vertex $-1 $316 $372 #
straight-curve $-1 -59.111911374248479 -32.232561507186269 0 0 0 -1 I I #
edge $-1 $314 -32.232561507186269 $318 32.232561507186269 $312 $373 forward 7 unknown #
straight-curve $-1 0 -32.232561507186269 -10.448162138506065 -1 0 0 I I #
vertex $-1 $227 $374 #
straight-curve $-1 0 32.232561507186269 -10.448162138506065 1 0 0 I I #
point $-1 59.111911374248479 32.232561507186269 -10.448162138506065 #
point $-1 59.111911374248479 -32.232561507186269 -10.448162138506065 #
straight-curve $-1 -59.111911374248479 0 10.448162138506065 0 -1 0 I I #
point $-1 -59.111911374248479 32.232561507186269 10.448162138506065 #
point $-1 -59.111911374248479 -32.232561507186269 10.448162138506065 #
straight-curve $-1 59.111911374248479 -32.232561507186269 0 0 0 -1 I I #
straight-curve $-1 59.111911374248479 32.232561507186269 0 0 0 -1 I I #
plane-surface $-1 59.111911374248479 0 0 -1 0 0 0 0 1 forward_v I I I I #
coedge $-1 $248 $247 $258 $339 reversed $96 $-1 #
coedge $-1 $375 $251 $248 $330 forward $245 $-1 #
edge $-1 $331 21.903928103664803 $376 32.232561507186269 $248 $377 forward 7 unknown #
vertex $-1 $330 $378 #
straight-curve $-1 -59.111911374248479 -21.903928103664803 4.1604360345070495 0 0 -1 I I #
coedge $-1 $251 $375 $253 $335 forward $245 $-1 #
straight-curve $-1 0 -21.903928103664803 10.448162138506065 -1 0 0 I I #
edge $-1 $342 -32.232561507186269 $254 -21.903928103664803 $253 $379 forward 7 unknown #
point $-1 59.111911374248479 -21.903928103664803 10.448162138506063 #
straight-curve $-1 -59.111911374248479 -13.534122402712768 6.1935819995221344 0 -1 0 I I #
coedge $-1 $258 $257 $375 $380 reversed $160 $-1 #
edge $-1 $376 -10.448162138506065 $259 -6.1935819995221344 $328 $381 forward 7 unknown #
point $-1 -59.111911374248479 -32.232561507186269 6.1935819995221344 #
point $-1 -59.111911374248479 -21.903928103664803 6.1935819995221344 #
vertex $-1 $335 $382 #
straight-curve $-1 59.111911374248479 -32.232561507186269 0 0 0 -1 I I #
coedge $-1 $345 $268 $351 $383 reversed $177 $-1 #
coedge $-1 $268 $344 $271 $349 reversed $177 $-1 #
edge $-1 $347 -19.591445525023317 $276 -5.6907864393025847 $275 $384 forward 7 unknown #
vertex $-1 $270 $385 #
straight-curve $-1 -46.661934611164185 32.232561507186269 18.552200198896841 -0.68199835119979291 0 -0.73135370988377701 I I #
edge $-1 $272 54.219072177507002 $353 59.111911374248479 $345 $386 forward 7 unknown #
point $-1 -54.219072177507002 32.232561507186269 10.448162138506065 #
coedge $-1 $275 $274 $344 $383 forward $266 $-1 #
point $-1 -59.111911374248479 18.331902421465536 5.2012343532608174 #
vertex $-1 $349 $387 #
straight-curve $-1 -59.111911374248479 0 10.448162138506065 0 -1 0 I I #
vertex $-1 $282 $388 #
point $-1 -55.024812295892012 22.303519303100032 7.6620673620987647 #
vertex $-1 $286 $389 #
point $-1 -55.024812295892012 28.260944625551772 7.6620673620987647 #
coedge $-1 $300 $299 $292 $360 forward $290 $-1 #
edge $-1 $367 74.767916467561264 $362 81.875805080100747 $359 $390 forward 7 unknown #
edge $-1 $297 51.489634201247682 $367 59.111911374248479 $296 $391 forward 7 unknown #
vertex $-1 $360 $392 #
straight-curve $-1 -27.351518118515258 -21.903928103664803 83.968727719370918 -0.7313536940579346 0 0.68199836817093118 I I #
edge $-1 $362 -14.068178431239552 $301 -1.6033209136109505 $300 $393 forward 7 unknown #
point $-1 51.489634201247682 -21.903928103664803 10.448162138506063 #
point $-1 59.111911374248479 -9.4390705860362019 3.3402735259665803 #
vertex $-1 $304 $394 #
straight-curve $-1 59.111911374248479 0 10.448162138506065 0 1 0 I I #
vertex $-1 $307 $395 #
point $-1 53.592462552373014 -15.671499344850503 1.3965815090086255 #
straight-curve $-1 -59.111911374248479 32.232561507186269 0 0 0 -1 I I #
point $-1 -59.111911374248479 -32.232561507186269 -10.448162138506065 #
straight-curve $-1 -59.111911374248479 0 -10.448162138506065 0 1 0 I I #
point $-1 -59.111911374248479 32.232561507186269 -10.448162138506065 #
coedge $-1 $333 $329 $338 $380 forward $245 $-1 #
vertex $-1 $330 $396 #
straight-curve $-1 -59.111911374248479 0 10.448162138506065 0 -1 0 I I #
point $-1 -59.111911374248479 -21.903928103664803 10.448162138506063 #
straight-curve $-1 59.111911374248479 0 10.448162138506065 0 1 0 I I #
edge $-1 $376 -59.111911374248479 $342 59.111911374248479 $338 $397 forward 7 unknown #
straight-curve $-1 -59.111911374248479 -32.232561507186269 0 0 0 -1 I I #
point $-1 59.111911374248479 -32.232561507186269 10.448162138506065 #
edge $-1 $353 -10.448162138506065 $347 -5.2012343532608174 $344 $398 forward 7 unknown #
straight-curve $-1 -59.111911374248479 12.641115982162951 5.2012343532608174 0 -1 0 I I #
point $-1 -59.111911374248479 32.232561507186269 5.2012343532608174 #
straight-curve $-1 0 32.232561507186269 10.448162138506065 -1 0 0 I I #
point $-1 -59.111911374248479 32.232561507186269 10.448162138506065 #
point $-1 -54.97545693720803 22.303519303100032 6.2487153010151948 #
point $-1 -54.97545693720803 28.260944625551772 6.2487153010151948 #
straight-curve $-1 59.111911374248479 -21.903928103664803 85.216078606067327 0 0 -1 I I #
straight-curve $-1 0 -21.903928103664803 10.448162138506065 1 0 0 I I #
point $-1 59.111911374248479 -21.903928103664803 3.3402735259665803 #
straight-curve $-1 59.111911374248464 -7.8357496724252513 3.3402735259665874 0 1 0 I I #
point $-1 59.111911374248479 -21.903928103664803 10.448162138506063 #
point $-1 50.059082396800854 -15.671499344850503 1.2731931942911163 #
point $-1 -59.111911374248479 -32.232561507186269 10.448162138506065 #
straight-curve $-1 0 -32.232561507186269 10.448162138506065 1 0 0 I I #
straight-curve $-1 -59.111911374248479 32.232561507186269 0 0 0 -1 I I #
End-of-ACIS-data 