500 0 11 0           
7 Unknown 11 ACIS 5.0 NT 24 Thu Mar 25 21:10:22 1999 
-1 9.9999999999999995e-007 1e-010 
body $-1 $11 $-1 $12 #
body $-1 $13 $-1 $14 #
body $-1 $15 $-1 $16 #
body $-1 $17 $-1 $18 #
body $-1 $19 $-1 $20 #
body $-1 $21 $-1 $22 #
body $-1 $23 $-1 $24 #
body $-1 $25 $-1 $26 #
body $-1 $27 $-1 $28 #
body $-1 $29 $-1 $30 #
body $-1 $31 $-1 $32 #
lump $-1 $-1 $33 $0 #
transform $-1 1 0 0 0 1 0 0 0 1 55.994140446180609 31.534234788340378 8.9560806844463414 1 rotate no_reflect no_shear #
lump $-1 $-1 $34 $1 #
transform $-1 1 0 0 0 1 0 0 0 1 55.994140446180609 31.534234788340378 8.9560806844463414 1 rotate no_reflect no_shear #
lump $-1 $-1 $35 $2 #
transform $-1 1 0 0 0 1 0 0 0 1 55.994140446180609 31.534234788340378 8.9560806844463414 1 rotate no_reflect no_shear #
lump $-1 $-1 $36 $3 #
transform $-1 1 0 0 0 1 0 0 0 1 55.994140446180609 31.534234788340378 8.9560806844463414 1 rotate no_reflect no_shear #
lump $-1 $-1 $37 $4 #
transform $-1 1 0 0 0 1 0 0 0 1 55.994140446180609 31.534234788340378 8.9560806844463414 1 rotate no_reflect no_shear #
lump $-1 $-1 $38 $5 #
transform $-1 1 0 0 0 1 0 0 0 1 55.994140446180609 31.534234788340378 8.9560806844463414 1 rotate no_reflect no_shear #
lump $-1 $-1 $39 $6 #
transform $-1 1 0 0 0 1 0 0 0 1 55.994140446180609 31.534234788340378 8.9560806844463414 1 rotate no_reflect no_shear #
lump $-1 $-1 $40 $7 #
transform $-1 1 0 0 0 1 0 0 0 1 55.994140446180609 31.534234788340378 8.9560806844463414 1 rotate no_reflect no_shear #
lump $-1 $-1 $41 $8 #
transform $-1 1 0 0 0 1 0 0 0 1 55.994140446180609 31.534234788340378 8.9560806844463414 1 rotate no_reflect no_shear #
lump $-1 $-1 $42 $9 #
transform $-1 1 0 0 0 1 0 0 0 1 55.994140446180609 31.534234788340378 8.9560806844463414 1 rotate no_reflect no_shear #
lump $-1 $-1 $43 $10 #
transform $-1 1 0 0 0 1 0 0 0 1 55.994140446180609 31.534234788340378 8.9560806844463414 1 rotate no_reflect no_shear #
shell $-1 $-1 $-1 $44 $-1 $11 #
shell $-1 $-1 $-1 $45 $-1 $13 #
shell $-1 $-1 $-1 $46 $-1 $15 #
shell $-1 $-1 $-1 $47 $-1 $17 #
shell $-1 $-1 $-1 $48 $-1 $19 #
shell $-1 $-1 $-1 $49 $-1 $21 #
shell $-1 $-1 $-1 $50 $-1 $23 #
shell $-1 $-1 $-1 $51 $-1 $25 #
shell $-1 $-1 $-1 $52 $-1 $27 #
shell $-1 $-1 $-1 $53 $-1 $29 #
shell $-1 $-1 $-1 $54 $-1 $31 #
face $-1 $55 $56 $33 $-1 $57 reversed single #
face $-1 $58 $59 $34 $-1 $60 forward single #
face $-1 $61 $62 $35 $-1 $63 forward single #
face $-1 $64 $65 $36 $-1 $66 reversed single #
face $-1 $67 $68 $37 $-1 $69 forward single #
face $-1 $70 $71 $38 $-1 $72 forward single #
face $-1 $73 $74 $39 $-1 $75 forward single #
face $-1 $76 $77 $40 $-1 $78 reversed single #
face $-1 $79 $80 $41 $-1 $81 forward single #
face $-1 $82 $83 $42 $-1 $84 forward single #
face $-1 $85 $86 $43 $-1 $87 forward single #
face $-1 $88 $89 $33 $-1 $90 forward single #
loop $-1 $-1 $91 $44 #
plane-surface $-1 55.994140446180609 0 0 -1 0 0 0 0 1 forward_v I I I I #
face $-1 $92 $93 $34 $-1 $94 reversed single #
loop $-1 $-1 $95 $45 #
plane-surface $-1 -50.59337533991345 0 -4.79053422468197 0 0 1 1 0 0 forward_v I I I I #
face $-1 $96 $97 $35 $-1 $98 reversed single #
loop $-1 $-1 $99 $46 #
plane-surface $-1 55.994140446180609 0 0 -1 0 0 0 0 1 forward_v I I I I #
face $-1 $100 $101 $36 $-1 $102 reversed single #
loop $-1 $-1 $103 $47 #
plane-surface $-1 -7.9678198696235221 41.871156935683864 128.44911721021046 1 0 0 0 -0.55919291073839883 -0.82903756765294845 forward_v I I I I #
face $-1 $104 $105 $37 $-1 $106 forward single #
loop $-1 $107 $108 $48 #
cone-surface $-1 -6.1016785763418113 24.8671012069242 4.2331136259826341 0 -0.55919291073839883 -0.82903756765294845 0.5 0 0 1 I I 0 1 0.5 forward I I I I #
face $-1 $109 $110 $38 $-1 $111 forward single #
loop $-1 $112 $113 $49 #
cone-surface $-1 -3.302466636419247 24.8671012069242 4.2331136259826341 0 -0.55919291073839883 -0.82903756765294845 0.5 0 0 1 I I 0 1 0.5 forward I I I I #
face $-1 $114 $115 $39 $-1 $116 forward single #
loop $-1 $117 $118 $50 #
cone-surface $-1 -0.50325469649668264 24.8671012069242 4.2331136259826341 0 -0.55919291073839883 -0.82903756765294845 0.5 0 0 1 I I 0 1 0.5 forward I I I I #
face $-1 $119 $120 $40 $-1 $121 reversed single #
loop $-1 $-1 $122 $51 #
plane-surface $-1 -3.3024666364192541 -20.751895825105017 35.606625213572158 0 0.55919291073839883 0.82903756765294845 1 0 0 forward_v I I I I #
face $-1 $123 $124 $41 $-1 $125 forward single #
loop $-1 $126 $127 $52 #
cone-surface $-1 3.2290278900667175 24.8671012069242 4.2331136259826341 0 -0.55919291073839883 -0.82903756765294845 0.5 0 0 1 I I 0 1 0.5 forward I I I I #
face $-1 $128 $129 $42 $-1 $130 forward single #
loop $-1 $131 $132 $53 #
cone-surface $-1 6.0282398299892819 24.8671012069242 4.2331136259826341 0 -0.55919291073839883 -0.82903756765294845 0.5 0 0 1 I I 0 1 0.5 forward I I I I #
face $-1 $133 $134 $43 $-1 $135 forward single #
loop $-1 $136 $137 $54 #
cone-surface $-1 8.8274517699118462 24.8671012069242 4.2331136259826341 0 -0.55919291073839883 -0.82903756765294845 0.5 0 0 1 I I 0 1 0.5 forward I I I I #
face $-1 $138 $139 $33 $-1 $140 reversed single #
loop $-1 $-1 $141 $55 #
plane-surface $-1 0 0 8.9560806844463414 0 0 1 1 0 0 forward_v I I I I #
coedge $-1 $142 $143 $144 $145 reversed $56 $-1 #
face $-1 $146 $147 $34 $-1 $148 reversed single #
loop $-1 $-1 $149 $58 #
plane-surface $-1 -45.192610233646292 0 -6.8733074545641557 -1 0 0 0 0 1 forward_v I I I I #
coedge $-1 $150 $151 $152 $153 forward $59 $-1 #
face $-1 $154 $155 $35 $-1 $156 forward single #
loop $-1 $-1 $157 $61 #
plane-surface $-1 0 31.534234788340378 0 0 -1 0 0 0 -1 forward_v I I I I #
coedge $-1 $158 $159 $160 $161 forward $62 $-1 #
face $-1 $162 $163 $36 $-1 $164 reversed single #
loop $-1 $-1 $165 $64 #
plane-surface $-1 -3.3024666364192541 -20.751895825105017 35.606625213572158 0 0.55919291073839883 0.82903756765294845 1 0 0 forward_v I I I I #
coedge $-1 $166 $167 $168 $169 reversed $65 $-1 #
face $-1 $-1 $170 $37 $-1 $171 forward single #
loop $-1 $172 $173 $67 #
cone-surface $-1 -6.1016785763418113 24.447706523870401 3.6113354502429225 0 -0.55919291073839883 -0.82903756765294845 0.25 0 0 1 I I -0.70710678118654746 0.70710678118654746 0.25 forward I I I I #
loop $-1 $-1 $174 $48 #
coedge $-1 $108 $108 $175 $176 reversed $68 $-1 #
face $-1 $-1 $177 $38 $-1 $178 forward single #
loop $-1 $179 $180 $70 #
cone-surface $-1 -3.302466636419247 24.447706523870401 3.6113354502429225 0 -0.55919291073839883 -0.82903756765294845 0.25 0 0 1 I I -0.70710678118654746 0.70710678118654746 0.25 forward I I I I #
loop $-1 $-1 $181 $49 #
coedge $-1 $113 $113 $182 $183 reversed $71 $-1 #
face $-1 $-1 $184 $39 $-1 $185 forward single #
loop $-1 $186 $187 $73 #
cone-surface $-1 -0.50325469649668264 24.447706523870401 3.6113354502429225 0 -0.55919291073839883 -0.82903756765294845 0.25 0 0 1 I I -0.70710678118654746 0.70710678118654746 0.25 forward I I I I #
loop $-1 $-1 $188 $50 #
coedge $-1 $118 $118 $189 $190 reversed $74 $-1 #
face $-1 $191 $192 $40 $-1 $193 forward single #
loop $-1 $-1 $194 $76 #
plane-surface $-1 10.693593063193543 41.871156935683864 128.44911721021046 -1 0 0 0 0.55919291073839883 0.82903756765294845 forward_v I I I I #
coedge $-1 $195 $196 $197 $198 reversed $77 $-1 #
face $-1 $-1 $199 $41 $-1 $200 forward single #
loop $-1 $201 $202 $79 #
cone-surface $-1 3.2290278900667175 24.447706523870401 3.6113354502429225 0 -0.55919291073839883 -0.82903756765294845 0.25 0 0 1 I I -0.70710678118654746 0.70710678118654746 0.25 forward I I I I #
loop $-1 $-1 $203 $52 #
coedge $-1 $127 $127 $204 $205 reversed $80 $-1 #
face $-1 $-1 $206 $42 $-1 $207 forward single #
loop $-1 $208 $209 $82 #
cone-surface $-1 6.0282398299892819 24.447706523870401 3.6113354502429225 0 -0.55919291073839883 -0.82903756765294845 0.25 0 0 1 I I -0.70710678118654746 0.70710678118654746 0.25 forward I I I I #
loop $-1 $-1 $210 $53 #
coedge $-1 $132 $132 $211 $212 reversed $83 $-1 #
face $-1 $-1 $213 $43 $-1 $214 forward single #
loop $-1 $215 $216 $85 #
cone-surface $-1 8.8274517699118462 24.447706523870401 3.6113354502429225 0 -0.55919291073839883 -0.82903756765294845 0.25 0 0 1 I I -0.70710678118654746 0.70710678118654746 0.25 forward I I I I #
loop $-1 $-1 $217 $54 #
coedge $-1 $137 $137 $218 $219 reversed $86 $-1 #
face $-1 $220 $221 $33 $-1 $222 reversed single #
loop $-1 $-1 $223 $88 #
plane-surface $-1 0 0 -8.9560806844463414 0 0 1 1 0 0 forward_v I I I I #
coedge $-1 $224 $225 $142 $226 forward $89 $-1 #
coedge $-1 $227 $91 $141 $226 reversed $56 $-1 #
coedge $-1 $91 $227 $223 $228 reversed $56 $-1 #
coedge $-1 $229 $230 $91 $145 forward $231 $-1 #
edge $-1 $232 -8.9560806844463414 $233 8.9560806844463414 $91 $234 forward 7 unknown #
face $-1 $235 $236 $34 $-1 $237 reversed single #
loop $-1 $-1 $238 $92 #
plane-surface $-1 0 0 -8.9560806844463414 0 0 1 1 0 0 forward_v I I I I #
coedge $-1 $239 $152 $240 $241 reversed $93 $-1 #
coedge $-1 $242 $95 $243 $244 reversed $59 $-1 #
coedge $-1 $95 $242 $245 $246 reversed $59 $-1 #
coedge $-1 $149 $247 $95 $153 reversed $93 $-1 #
edge $-1 $248 -31.534234788340378 $249 31.534234788340378 $152 $250 forward 7 unknown #
face $-1 $251 $252 $35 $-1 $253 reversed single #
loop $-1 $-1 $254 $96 #
plane-surface $-1 60.03201895566275 0 4.8291444550522504 0 0 1 1 0 0 forward_v I I I I #
coedge $-1 $255 $256 $159 $257 forward $97 $-1 #
coedge $-1 $258 $99 $259 $260 reversed $62 $-1 #
coedge $-1 $99 $258 $157 $257 reversed $62 $-1 #
coedge $-1 $261 $262 $99 $161 reversed $252 $-1 #
edge $-1 $263 -31.534234788340378 $264 31.534234788340378 $160 $265 forward 7 unknown #
face $-1 $266 $267 $36 $-1 $268 reversed single #
loop $-1 $-1 $269 $100 #
plane-surface $-1 1.3628865967850139 41.871156935683864 128.44911721021046 -1 0 0 0 0.55919291073839883 0.82903756765294845 forward_v I I I I #
coedge $-1 $270 $271 $272 $273 reversed $101 $-1 #
coedge $-1 $167 $103 $274 $275 reversed $65 $-1 #
coedge $-1 $103 $166 $270 $276 reversed $65 $-1 #
coedge $-1 $272 $277 $103 $169 forward $278 $-1 #
edge $-1 $279 -10.598656320498446 $280 2.176417931595477 $168 $281 forward 7 unknown #
loop $-1 $-1 $175 $104 #
plane-surface $-1 -3.3024666364192541 -20.751895825105017 35.606625213572158 0 0.55919291073839883 0.82903756765294845 1 0 0 forward_v I I I I #
loop $-1 $-1 $282 $67 #
coedge $-1 $173 $173 $174 $283 reversed $105 $-1 #
coedge $-1 $174 $174 $173 $283 forward $107 $-1 #
coedge $-1 $175 $175 $108 $176 forward $170 $-1 #
edge $-1 $284 -3.6961418240352355e-015 $284 6.2831853071795969 $175 $285 forward 7 unknown #
loop $-1 $-1 $182 $109 #
plane-surface $-1 -3.3024666364192541 -20.751895825105017 35.606625213572158 0 0.55919291073839883 0.82903756765294845 1 0 0 forward_v I I I I #
loop $-1 $-1 $286 $70 #
coedge $-1 $180 $180 $181 $287 reversed $110 $-1 #
coedge $-1 $181 $181 $180 $287 forward $112 $-1 #
coedge $-1 $182 $182 $113 $183 forward $177 $-1 #
edge $-1 $288 -3.6961418240352355e-015 $288 6.2831853071795969 $182 $289 forward 7 unknown #
loop $-1 $-1 $189 $114 #
plane-surface $-1 -3.3024666364192541 -20.751895825105017 35.606625213572158 0 0.55919291073839883 0.82903756765294845 1 0 0 forward_v I I I I #
loop $-1 $-1 $290 $73 #
coedge $-1 $187 $187 $188 $291 reversed $115 $-1 #
coedge $-1 $188 $188 $187 $291 forward $117 $-1 #
coedge $-1 $189 $189 $118 $190 forward $184 $-1 #
edge $-1 $292 -3.6961418240352355e-015 $292 6.2831853071795969 $189 $293 forward 7 unknown #
face $-1 $294 $295 $40 $-1 $296 forward single #
loop $-1 $-1 $297 $119 #
plane-surface $-1 0 0 8.9560806844463414 0 0 1 1 0 0 forward_v I I I I #
coedge $-1 $298 $299 $300 $301 reversed $120 $-1 #
coedge $-1 $302 $122 $303 $304 reversed $77 $-1 #
coedge $-1 $122 $302 $297 $305 reversed $77 $-1 #
coedge $-1 $306 $307 $122 $198 forward $295 $-1 #
edge $-1 $308 -63.068469576680755 $309 -47.658945629218557 $197 $310 forward 7 unknown #
loop $-1 $-1 $204 $123 #
plane-surface $-1 -3.3024666364192541 -20.751895825105017 35.606625213572158 0 0.55919291073839883 0.82903756765294845 1 0 0 forward_v I I I I #
loop $-1 $-1 $311 $79 #
coedge $-1 $202 $202 $203 $312 reversed $124 $-1 #
coedge $-1 $203 $203 $202 $312 forward $126 $-1 #
coedge $-1 $204 $204 $127 $205 forward $199 $-1 #
edge $-1 $313 -3.6961418240352355e-015 $313 6.2831853071795969 $204 $314 forward 7 unknown #
loop $-1 $-1 $211 $128 #
plane-surface $-1 -3.3024666364192541 -20.751895825105017 35.606625213572158 0 0.55919291073839883 0.82903756765294845 1 0 0 forward_v I I I I #
loop $-1 $-1 $315 $82 #
coedge $-1 $209 $209 $210 $316 reversed $129 $-1 #
coedge $-1 $210 $210 $209 $316 forward $131 $-1 #
coedge $-1 $211 $211 $132 $212 forward $206 $-1 #
edge $-1 $317 -3.6961418240352355e-015 $317 6.2831853071795969 $211 $318 forward 7 unknown #
loop $-1 $-1 $218 $133 #
plane-surface $-1 -3.3024666364192541 -20.751895825105017 35.606625213572158 0 0.55919291073839883 0.82903756765294845 1 0 0 forward_v I I I I #
loop $-1 $-1 $319 $85 #
coedge $-1 $216 $216 $217 $320 reversed $134 $-1 #
coedge $-1 $217 $217 $216 $320 forward $136 $-1 #
coedge $-1 $218 $218 $137 $219 forward $213 $-1 #
edge $-1 $321 -3.6961418240352355e-015 $321 6.2831853071795969 $218 $322 forward 7 unknown #
face $-1 $323 $324 $33 $-1 $325 reversed single #
loop $-1 $-1 $326 $138 #
plane-surface $-1 0 -31.534234788340378 0 0 1 0 0 0 1 forward_v I I I I #
coedge $-1 $327 $328 $143 $228 forward $139 $-1 #
coedge $-1 $329 $141 $230 $330 forward $89 $-1 #
coedge $-1 $141 $329 $331 $332 forward $89 $-1 #
edge $-1 $333 -31.534234788340378 $232 31.534234788340378 $142 $334 forward 7 unknown #
coedge $-1 $143 $142 $335 $336 forward $56 $-1 #
edge $-1 $233 -31.534234788340378 $337 31.534234788340378 $143 $338 forward 7 unknown #
coedge $-1 $339 $144 $328 $340 reversed $231 $-1 #
coedge $-1 $144 $339 $224 $330 reversed $231 $-1 #
loop $-1 $-1 $144 $323 #
vertex $-1 $226 $341 #
vertex $-1 $228 $342 #
straight-curve $-1 55.994140446180609 31.534234788340378 0 0 0 -1 I I #
face $-1 $343 $344 $34 $-1 $345 reversed single #
loop $-1 $-1 $240 $146 #
plane-surface $-1 0 -31.534234788340378 0 0 1 0 0 0 1 forward_v I I I I #
coedge $-1 $346 $347 $239 $348 forward $147 $-1 #
coedge $-1 $247 $149 $238 $348 reversed $93 $-1 #
coedge $-1 $245 $349 $149 $241 forward $236 $-1 #
edge $-1 $350 -5.5194269571642636 $248 -1.3538804973998921 $240 $351 forward 7 unknown #
coedge $-1 $151 $150 $352 $353 reversed $59 $-1 #
coedge $-1 $354 $355 $150 $244 forward $356 $-1 #
edge $-1 $357 -30.697452776223884 $249 -19.895922563689567 $243 $358 forward 7 unknown #
coedge $-1 $359 $240 $151 $246 forward $236 $-1 #
edge $-1 $248 19.895922563689567 $360 30.697452776223884 $245 $361 forward 7 unknown #
coedge $-1 $152 $239 $354 $362 reversed $93 $-1 #
vertex $-1 $246 $363 #
vertex $-1 $244 $364 #
straight-curve $-1 -45.192610233646292 0 -4.79053422468197 0 1 0 I I #
face $-1 $365 $366 $35 $-1 $367 reversed single #
loop $-1 $-1 $368 $154 #
plane-surface $-1 60.03201895566275 0 -0.44140530043890802 0 0 1 1 0 0 forward_v I I I I #
coedge $-1 $369 $370 $371 $372 forward $155 $-1 #
coedge $-1 $373 $157 $369 $374 reversed $97 $-1 #
coedge $-1 $157 $373 $261 $375 reversed $97 $-1 #
edge $-1 $263 -0.44140530043890802 $376 4.8291444550522504 $157 $377 forward 7 unknown #
coedge $-1 $159 $158 $378 $379 forward $62 $-1 #
coedge $-1 $380 $381 $158 $260 forward $382 $-1 #
edge $-1 $383 -4.8291444550522504 $264 0.44140530043890802 $259 $384 forward 7 unknown #
coedge $-1 $368 $160 $256 $375 forward $252 $-1 #
coedge $-1 $160 $368 $380 $385 forward $252 $-1 #
vertex $-1 $257 $386 #
vertex $-1 $260 $387 #
straight-curve $-1 55.994140446180609 0 -0.44140530043890802 0 -1 0 I I #
face $-1 $-1 $278 $36 $-1 $388 forward single #
loop $-1 $-1 $389 $162 #
plane-surface $-1 0 31.534234788340378 0 0 -1 0 0 0 -1 forward_v I I I I #
coedge $-1 $390 $391 $392 $393 reversed $163 $-1 #
coedge $-1 $394 $165 $167 $276 forward $101 $-1 #
coedge $-1 $165 $394 $390 $395 forward $101 $-1 #
coedge $-1 $392 $168 $165 $273 forward $278 $-1 #
edge $-1 $280 -6.316586551413895 $396 3.0141199149946409 $272 $397 forward 7 unknown #
coedge $-1 $398 $399 $166 $275 forward $267 $-1 #
edge $-1 $400 -63.885374469933332 $279 -55.268477920658889 $274 $401 forward 7 unknown #
edge $-1 $280 47.658945629218557 $400 63.068469576680755 $167 $402 forward 7 unknown #
coedge $-1 $168 $392 $398 $403 forward $278 $-1 #
loop $-1 $-1 $392 $266 #
vertex $-1 $275 $404 #
vertex $-1 $169 $405 #
straight-curve $-1 -7.9678198696235221 20.935578467841932 8.9560806844463414 0 -1 0 I I #
coedge $-1 $282 $282 $-1 $406 reversed $172 $-1 #
edge $-1 $407 0 $407 6.2831853071796004 $173 $408 forward 7 unknown #
vertex $-1 $176 $409 #
ellipse-curve $-1 -6.1016785763418113 25.146697662293413 4.647632409809126 0 0.55919291073839883 0.82903756765294845 0.5 0 0 1 I I #
coedge $-1 $286 $286 $-1 $410 reversed $179 $-1 #
edge $-1 $411 0 $411 6.2831853071796004 $180 $412 forward 7 unknown #
vertex $-1 $183 $413 #
ellipse-curve $-1 -3.302466636419247 25.146697662293413 4.647632409809126 0 0.55919291073839883 0.82903756765294845 0.5 0 0 1 I I #
coedge $-1 $290 $290 $-1 $414 reversed $186 $-1 #
edge $-1 $415 0 $415 6.2831853071796004 $187 $416 forward 7 unknown #
vertex $-1 $190 $417 #
ellipse-curve $-1 -0.50325469649668264 25.146697662293413 4.647632409809126 0 0.55919291073839883 0.82903756765294845 0.5 0 0 1 I I #
face $-1 $-1 $418 $40 $-1 $419 reversed single #
loop $-1 $-1 $306 $191 #
plane-surface $-1 1.3628865967850139 41.871156935683864 128.44911721021046 -1 0 0 0 0.55919291073839883 0.82903756765294845 forward_v I I I I #
coedge $-1 $300 $420 $196 $305 forward $192 $-1 #
coedge $-1 $299 $194 $302 $421 reversed $120 $-1 #
coedge $-1 $194 $298 $422 $423 reversed $120 $-1 #
coedge $-1 $424 $297 $194 $301 forward $192 $-1 #
edge $-1 $425 -2.176417931595477 $426 10.598656320498446 $300 $427 forward 7 unknown #
coedge $-1 $196 $195 $298 $421 forward $77 $-1 #
coedge $-1 $428 $422 $195 $304 forward $418 $-1 #
edge $-1 $429 -12.34482638140317 $308 -3.0141199149946409 $303 $430 forward 7 unknown #
edge $-1 $309 3.0141199149946409 $425 12.34482638140317 $297 $431 forward 7 unknown #
coedge $-1 $307 $197 $420 $432 reversed $295 $-1 #
coedge $-1 $197 $306 $428 $433 reversed $295 $-1 #
vertex $-1 $304 $434 #
vertex $-1 $305 $435 #
straight-curve $-1 1.3628865967850139 -20.751895825105017 35.606625213572158 0 -0.82903756765294845 0.55919291073839883 I I #
coedge $-1 $311 $311 $-1 $436 reversed $201 $-1 #
edge $-1 $437 0 $437 6.2831853071796004 $202 $438 forward 7 unknown #
vertex $-1 $205 $439 #
ellipse-curve $-1 3.2290278900667175 25.146697662293413 4.647632409809126 0 0.55919291073839883 0.82903756765294845 0.5 0 0 1 I I #
coedge $-1 $315 $315 $-1 $440 reversed $208 $-1 #
edge $-1 $441 0 $441 6.2831853071796004 $209 $442 forward 7 unknown #
vertex $-1 $212 $443 #
ellipse-curve $-1 6.0282398299892819 25.146697662293413 4.647632409809126 0 0.55919291073839883 0.82903756765294845 0.5 0 0 1 I I #
coedge $-1 $319 $319 $-1 $444 reversed $215 $-1 #
edge $-1 $445 0 $445 6.2831853071796004 $216 $446 forward 7 unknown #
vertex $-1 $219 $447 #
ellipse-curve $-1 8.8274517699118462 25.146697662293413 4.647632409809126 0 0.55919291073839883 0.82903756765294845 0.5 0 0 1 I I #
face $-1 $-1 $231 $33 $-1 $448 reversed single #
loop $-1 $-1 $449 $220 #
plane-surface $-1 -55.994140446180609 0 0 1 0 0 0 0 -1 forward_v I I I I #
coedge $-1 $450 $331 $451 $452 forward $221 $-1 #
coedge $-1 $453 $223 $450 $454 forward $139 $-1 #
coedge $-1 $223 $453 $229 $340 forward $139 $-1 #
coedge $-1 $225 $224 $455 $456 forward $89 $-1 #
edge $-1 $232 -55.994140446180609 $457 55.994140446180609 $230 $458 forward 7 unknown #
coedge $-1 $326 $335 $225 $332 reversed $221 $-1 #
edge $-1 $459 -55.994140446180609 $333 55.994140446180609 $331 $460 forward 7 unknown #
vertex $-1 $226 $461 #
straight-curve $-1 55.994140446180609 0 8.9560806844463414 0 1 0 I I #
coedge $-1 $331 $450 $227 $336 reversed $221 $-1 #
edge $-1 $333 -8.9560806844463414 $337 8.9560806844463414 $227 $462 forward 7 unknown #
vertex $-1 $336 $463 #
straight-curve $-1 55.994140446180609 0 -8.9560806844463414 0 -1 0 I I #
coedge $-1 $230 $229 $449 $464 reversed $231 $-1 #
edge $-1 $465 -55.994140446180609 $233 55.994140446180609 $229 $466 forward 7 unknown #
point $-1 55.994140446180609 31.534234788340378 8.9560806844463414 #
point $-1 55.994140446180609 31.534234788340378 -8.9560806844463414 #
face $-1 $-1 $356 $34 $-1 $467 reversed single #
loop $-1 $-1 $352 $235 #
plane-surface $-1 -55.994140446180609 0 0 1 0 0 0 0 -1 forward_v I I I I #
coedge $-1 $468 $238 $349 $469 forward $147 $-1 #
coedge $-1 $238 $468 $470 $471 forward $147 $-1 #
edge $-1 $472 -31.534234788340378 $350 31.534234788340378 $238 $473 forward 7 unknown #
coedge $-1 $240 $359 $346 $469 reversed $236 $-1 #
vertex $-1 $469 $474 #
straight-curve $-1 -45.192610233646292 -31.534234788340378 -3.4366537272820779 0 0 1 I I #
coedge $-1 $475 $476 $242 $353 forward $344 $-1 #
edge $-1 $360 -31.534234788340378 $357 31.534234788340378 $352 $477 forward 7 unknown #
coedge $-1 $470 $243 $247 $362 forward $356 $-1 #
coedge $-1 $243 $470 $475 $478 reversed $356 $-1 #
loop $-1 $-1 $354 $343 #
vertex $-1 $478 $479 #
straight-curve $-1 -25.296687669956725 31.534234788340378 -4.79053422468197 1 0 0 I I #
coedge $-1 $349 $245 $476 $480 forward $236 $-1 #
vertex $-1 $480 $481 #
straight-curve $-1 -25.296687669956725 -31.534234788340378 -4.79053422468197 -1 0 0 I I #
edge $-1 $249 1.3538804973998921 $472 5.5194269571642636 $354 $482 forward 7 unknown #
point $-1 -45.192610233646292 -31.534234788340378 -4.79053422468197 #
point $-1 -45.192610233646292 31.534234788340378 -4.79053422468197 #
face $-1 $-1 $382 $35 $-1 $483 reversed single #
loop $-1 $-1 $484 $251 #
plane-surface $-1 64.069897465144891 0 2.1938695773066712 -1 0 0 0 0 1 forward_v I I I I #
coedge $-1 $262 $261 $485 $486 forward $252 $-1 #
coedge $-1 $378 $254 $255 $374 forward $155 $-1 #
coedge $-1 $254 $378 $381 $487 forward $155 $-1 #
coedge $-1 $484 $488 $254 $372 reversed $366 $-1 #
edge $-1 $489 -31.534234788340378 $490 31.534234788340378 $371 $491 forward 7 unknown #
coedge $-1 $256 $255 $488 $492 forward $97 $-1 #
edge $-1 $490 -4.037878509482141 $376 4.0378785094821339 $255 $493 forward 7 unknown #
edge $-1 $263 -4.0378785094821339 $494 4.037878509482141 $256 $495 forward 7 unknown #
vertex $-1 $374 $496 #
straight-curve $-1 55.994140446180609 31.534234788340378 0 0 0 1 I I #
coedge $-1 $370 $369 $258 $379 reversed $155 $-1 #
edge $-1 $383 -31.534234788340378 $376 31.534234788340378 $378 $497 forward 7 unknown #
coedge $-1 $498 $259 $262 $385 reversed $382 $-1 #
coedge $-1 $259 $498 $370 $487 reversed $382 $-1 #
loop $-1 $-1 $259 $365 #
vertex $-1 $260 $499 #
straight-curve $-1 55.994140446180609 -31.534234788340378 0 0 0 -1 I I #
edge $-1 $500 -4.037878509482141 $264 4.0378785094821339 $380 $501 forward 7 unknown #
point $-1 55.994140446180616 31.534234788340378 -0.44140530043890802 #
point $-1 55.994140446180616 -31.534234788340378 -0.44140530043890802 #
plane-surface $-1 0 0 8.9560806844463414 0 0 1 1 0 0 forward_v I I I I #
coedge $-1 $399 $398 $391 $502 forward $267 $-1 #
coedge $-1 $391 $269 $271 $395 reversed $163 $-1 #
coedge $-1 $269 $390 $389 $502 reversed $163 $-1 #
coedge $-1 $277 $272 $269 $393 forward $278 $-1 #
edge $-1 $396 -2.176417931595477 $503 10.598656320498446 $392 $504 forward 7 unknown #
coedge $-1 $271 $270 $399 $505 reversed $101 $-1 #
edge $-1 $506 -63.068469576680755 $396 -47.658945629218557 $390 $507 forward 7 unknown #
vertex $-1 $273 $508 #
straight-curve $-1 -1.651233318209627 18.759160536246462 8.9560806844463414 1 0 0 I I #
coedge $-1 $389 $274 $277 $403 reversed $267 $-1 #
coedge $-1 $274 $389 $394 $505 forward $267 $-1 #
vertex $-1 $275 $509 #
straight-curve $-1 -7.9678198696235221 31.534234788340378 64.22455860510523 0 0 1 I I #
straight-curve $-1 -7.9678198696235221 -20.751895825105017 35.606625213572158 0 0.82903756765294845 -0.55919291073839883 I I #
edge $-1 $503 -1.3628865967850139 $279 7.9678198696235221 $398 $510 forward 7 unknown #
point $-1 -7.9678198696235221 31.534234788340378 8.9560806844463414 #
point $-1 -7.9678198696235221 18.759160536246455 8.9560806844463414 #
edge $-1 $511 1 $511 0 $282 $-1 forward 7 unknown #
vertex $-1 $283 $512 #
ellipse-curve $-1 -6.1016785763418113 24.587504751555002 3.8185948421561595 0 0.55919291073839883 0.82903756765294845 0.5 0 0 1 I I #
point $-1 -5.6016785763418113 25.146697662293398 4.6476324098091082 #
edge $-1 $513 1 $513 0 $286 $-1 forward 7 unknown #
vertex $-1 $287 $514 #
ellipse-curve $-1 -3.302466636419247 24.587504751555002 3.8185948421561595 0 0.55919291073839883 0.82903756765294845 0.5 0 0 1 I I #
point $-1 -2.802466636419247 25.146697662293398 4.6476324098091082 #
edge $-1 $515 1 $515 0 $290 $-1 forward 7 unknown #
vertex $-1 $291 $516 #
ellipse-curve $-1 -0.50325469649668264 24.587504751555002 3.8185948421561595 0 0.55919291073839883 0.82903756765294845 0.5 0 0 1 I I #
point $-1 -0.0032546964966826408 25.146697662293398 4.6476324098091082 #
loop $-1 $-1 $303 $294 #
plane-surface $-1 0 31.534234788340378 0 0 -1 0 0 0 -1 forward_v I I I I #
coedge $-1 $297 $424 $306 $432 forward $192 $-1 #
edge $-1 $429 -63.068469576680755 $425 -47.658945629218557 $298 $517 forward 7 unknown #
coedge $-1 $303 $518 $299 $423 forward $418 $-1 #
edge $-1 $426 55.268477920658889 $429 63.885374469933332 $422 $519 forward 7 unknown #
coedge $-1 $420 $300 $518 $520 forward $192 $-1 #
vertex $-1 $301 $521 #
vertex $-1 $520 $522 #
straight-curve $-1 10.693593063193543 20.935578467841932 8.9560806844463414 0 1 0 I I #
coedge $-1 $518 $303 $307 $433 forward $418 $-1 #
vertex $-1 $423 $523 #
straight-curve $-1 -1.651233318209627 31.534234788340385 0.33918413517189094 -1 0 0 I I #
straight-curve $-1 -1.651233318209627 18.759160536246462 8.9560806844463414 1 0 0 I I #
edge $-1 $524 -10.598656320498446 $309 2.176417931595477 $420 $525 forward 7 unknown #
edge $-1 $308 -63.885374469933332 $524 -55.268477920658889 $428 $526 forward 7 unknown #
point $-1 1.3628865967850139 31.534234788340378 0.33918413517189805 #
point $-1 1.3628865967850139 18.759160536246455 8.9560806844463414 #
edge $-1 $527 1 $527 0 $311 $-1 forward 7 unknown #
vertex $-1 $312 $528 #
ellipse-curve $-1 3.2290278900667175 24.587504751555002 3.8185948421561595 0 0.55919291073839883 0.82903756765294845 0.5 0 0 1 I I #
point $-1 3.7290278900667175 25.146697662293398 4.6476324098091082 #
edge $-1 $529 1 $529 0 $315 $-1 forward 7 unknown #
vertex $-1 $316 $530 #
ellipse-curve $-1 6.0282398299892819 24.587504751555002 3.8185948421561595 0 0.55919291073839883 0.82903756765294845 0.5 0 0 1 I I #
point $-1 6.5282398299892819 25.146697662293398 4.6476324098091082 #
edge $-1 $531 1 $531 0 $319 $-1 forward 7 unknown #
vertex $-1 $320 $532 #
ellipse-curve $-1 8.8274517699118462 24.587504751555002 3.8185948421561595 0 0.55919291073839883 0.82903756765294845 0.5 0 0 1 I I #
point $-1 9.3274517699118462 25.146697662293398 4.6476324098091082 #
plane-surface $-1 0 31.534234788340378 0 0 -1 0 0 0 -1 forward_v I I I I #
coedge $-1 $533 $455 $339 $464 forward $324 $-1 #
coedge $-1 $335 $326 $327 $454 reversed $221 $-1 #
coedge $-1 $455 $533 $326 $452 reversed $324 $-1 #
edge $-1 $459 -8.9560806844463414 $534 8.9560806844463414 $451 $535 forward 7 unknown #
coedge $-1 $328 $327 $533 $536 forward $139 $-1 #
edge $-1 $337 -55.994140446180609 $534 55.994140446180609 $450 $537 forward 7 unknown #
coedge $-1 $449 $451 $329 $456 reversed $324 $-1 #
edge $-1 $457 -31.534234788340378 $459 31.534234788340378 $455 $538 forward 7 unknown #
vertex $-1 $330 $539 #
straight-curve $-1 0 31.534234788340378 8.9560806844463414 -1 0 0 I I #
vertex $-1 $456 $540 #
straight-curve $-1 0 -31.534234788340378 8.9560806844463414 1 0 0 I I #
point $-1 55.994140446180609 -31.534234788340378 8.9560806844463414 #
straight-curve $-1 55.994140446180609 -31.534234788340378 0 0 0 -1 I I #
point $-1 55.994140446180609 -31.534234788340378 -8.9560806844463414 #
edge $-1 $457 -8.9560806844463414 $465 8.9560806844463414 $339 $541 forward 7 unknown #
vertex $-1 $340 $542 #
straight-curve $-1 0 31.534234788340378 -8.9560806844463414 1 0 0 I I #
plane-surface $-1 0 31.534234788340378 0 0 -1 0 0 0 -1 forward_v I I I I #
coedge $-1 $347 $346 $543 $544 forward $147 $-1 #
edge $-1 $350 45.192610233646292 $545 55.994140446180609 $349 $546 forward 7 unknown #
coedge $-1 $355 $354 $347 $471 reversed $356 $-1 #
edge $-1 $547 -55.994140446180609 $472 -45.192610233646292 $470 $548 forward 7 unknown #
vertex $-1 $362 $549 #
straight-curve $-1 -45.192610233646292 0 -8.9560806844463414 0 -1 0 I I #
point $-1 -45.192610233646292 -31.534234788340378 -8.9560806844463414 #
coedge $-1 $543 $352 $355 $478 forward $344 $-1 #
coedge $-1 $352 $543 $359 $480 reversed $344 $-1 #
straight-curve $-1 -55.994140446180609 0 -4.79053422468197 0 1 0 I I #
edge $-1 $357 4.79053422468197 $547 8.9560806844463414 $355 $550 forward 7 unknown #
point $-1 -55.994140446180609 31.534234788340378 -4.79053422468197 #
edge $-1 $360 4.79053422468197 $545 8.9560806844463414 $476 $551 forward 7 unknown #
point $-1 -55.994140446180609 -31.534234788340378 -4.79053422468197 #
straight-curve $-1 -45.192610233646292 31.534234788340378 -3.4366537272820779 0 0 -1 I I #
plane-surface $-1 0 -31.534234788340378 0 0 1 0 0 0 1 forward_v I I I I #
coedge $-1 $485 $371 $498 $552 forward $366 $-1 #
coedge $-1 $488 $484 $368 $486 reversed $366 $-1 #
edge $-1 $494 -31.534234788340378 $500 31.534234788340378 $485 $553 forward 7 unknown #
edge $-1 $383 -4.0378785094821339 $489 4.037878509482141 $381 $554 forward 7 unknown #
coedge $-1 $371 $485 $373 $492 reversed $366 $-1 #
vertex $-1 $372 $555 #
vertex $-1 $372 $556 #
straight-curve $-1 64.069897465144891 0 4.8291444550522504 0 1 0 I I #
edge $-1 $490 -2.6352748777455792 $494 2.6352748777455792 $488 $557 forward 7 unknown #
straight-curve $-1 60.03201895566275 31.534234788340378 4.8291444550522504 -1 0 0 I I #
vertex $-1 $486 $558 #
straight-curve $-1 60.03201895566275 31.534234788340378 -0.44140530043890802 1 0 0 I I #
point $-1 55.994140446180616 31.534234788340378 4.8291444550522504 #
straight-curve $-1 55.994140446180609 0 4.8291444550522504 0 1 0 I I #
coedge $-1 $381 $380 $484 $552 reversed $382 $-1 #
point $-1 55.994140446180616 -31.534234788340378 4.8291444550522504 #
vertex $-1 $552 $559 #
straight-curve $-1 60.03201895566275 -31.534234788340378 -0.44140530043890802 -1 0 0 I I #
edge $-1 $503 55.268477920658889 $506 63.885374469933332 $389 $560 forward 7 unknown #
vertex $-1 $403 $561 #
straight-curve $-1 1.3628865967850139 20.935578467841932 8.9560806844463414 0 1 0 I I #
edge $-1 $506 -3.0141199149946409 $400 6.316586551413895 $399 $562 forward 7 unknown #
vertex $-1 $505 $563 #
straight-curve $-1 1.3628865967850139 -20.751895825105017 35.606625213572158 0 -0.82903756765294845 0.55919291073839883 I I #
point $-1 1.3628865967850139 18.759160536246455 8.9560806844463414 #
point $-1 -7.9678198696235221 31.534234788340378 0.33918413517189805 #
straight-curve $-1 0 31.534234788340378 8.9560806844463414 -1 0 0 I I #
vertex $-1 $406 $564 #
point $-1 -5.6016785763418113 24.587504751555002 3.8185948421561595 #
vertex $-1 $410 $565 #
point $-1 -2.802466636419247 24.587504751555002 3.8185948421561595 #
vertex $-1 $414 $566 #
point $-1 -0.0032546964966826408 24.587504751555002 3.8185948421561595 #
straight-curve $-1 10.693593063193543 -20.751895825105017 35.606625213572158 0 -0.82903756765294845 0.55919291073839883 I I #
coedge $-1 $422 $428 $424 $520 reversed $418 $-1 #
straight-curve $-1 10.693593063193543 31.534234788340378 64.22455860510523 0 0 -1 I I #
edge $-1 $426 -10.693593063193543 $524 -1.3628865967850139 $518 $567 forward 7 unknown #
point $-1 10.693593063193543 18.759160536246455 8.9560806844463414 #
point $-1 10.693593063193543 31.534234788340378 8.9560806844463414 #
point $-1 10.693593063193543 31.534234788340378 0.33918413517189805 #
vertex $-1 $433 $568 #
straight-curve $-1 1.3628865967850139 20.935578467841932 8.9560806844463414 0 -1 0 I I #
straight-curve $-1 1.3628865967850139 31.534234788340378 64.22455860510523 0 0 1 I I #
vertex $-1 $436 $569 #
point $-1 3.7290278900667175 24.587504751555002 3.8185948421561595 #
vertex $-1 $440 $570 #
point $-1 6.5282398299892819 24.587504751555002 3.8185948421561595 #
vertex $-1 $444 $571 #
point $-1 9.3274517699118462 24.587504751555002 3.8185948421561595 #
coedge $-1 $451 $449 $453 $536 reversed $324 $-1 #
vertex $-1 $536 $572 #
straight-curve $-1 -55.994140446180609 -31.534234788340378 0 0 0 -1 I I #
edge $-1 $534 -31.534234788340378 $465 31.534234788340378 $533 $573 forward 7 unknown #
straight-curve $-1 0 -31.534234788340378 -8.9560806844463414 -1 0 0 I I #
straight-curve $-1 -55.994140446180609 0 8.9560806844463414 0 -1 0 I I #
point $-1 -55.994140446180609 31.534234788340378 8.9560806844463414 #
point $-1 -55.994140446180609 -31.534234788340378 8.9560806844463414 #
straight-curve $-1 -55.994140446180609 31.534234788340378 0 0 0 -1 I I #
point $-1 -55.994140446180609 31.534234788340378 -8.9560806844463414 #
coedge $-1 $476 $475 $468 $544 reversed $344 $-1 #
edge $-1 $545 -31.534234788340378 $547 31.534234788340378 $543 $574 forward 7 unknown #
vertex $-1 $544 $575 #
straight-curve $-1 0 -31.534234788340378 -8.9560806844463414 -1 0 0 I I #
vertex $-1 $471 $576 #
straight-curve $-1 0 31.534234788340378 -8.9560806844463414 1 0 0 I I #
point $-1 -45.192610233646292 31.534234788340378 -8.9560806844463414 #
straight-curve $-1 -55.994140446180609 31.534234788340378 0 0 0 -1 I I #
straight-curve $-1 -55.994140446180609 -31.534234788340378 0 0 0 -1 I I #
edge $-1 $489 -2.6352748777455792 $500 2.6352748777455792 $484 $577 forward 7 unknown #
straight-curve $-1 64.069897465144891 0 -0.44140530043890802 0 -1 0 I I #
straight-curve $-1 60.03201895566275 -31.534234788340378 4.8291444550522504 1 0 0 I I #
point $-1 64.069897465144891 -31.534234788340378 4.8291444550522504 #
point $-1 64.069897465144891 31.534234788340378 4.8291444550522504 #
straight-curve $-1 64.069897465144891 31.534234788340378 2.1938695773066712 0 0 -1 I I #
point $-1 64.069897465144891 31.534234788340378 -0.44140530043890802 #
point $-1 64.069897465144891 -31.534234788340378 -0.44140530043890802 #
straight-curve $-1 1.3628865967850139 31.534234788340378 64.22455860510523 0 0 -1 I I #
point $-1 1.3628865967850139 31.534234788340378 8.9560806844463414 #
straight-curve $-1 -1.651233318209627 31.534234788340385 0.33918413517189094 -1 0 0 I I #
point $-1 1.3628865967850139 31.534234788340378 0.33918413517189805 #
point $-1 -6.1016785763418113 24.307908296185801 3.4040760583296854 #
point $-1 -3.302466636419247 24.307908296185801 3.4040760583296854 #
point $-1 -0.50325469649668264 24.307908296185801 3.4040760583296854 #
straight-curve $-1 0 31.534234788340378 8.9560806844463414 -1 0 0 I I #
point $-1 1.3628865967850139 31.534234788340378 8.9560806844463414 #
point $-1 3.2290278900667175 24.307908296185801 3.4040760583296854 #
point $-1 6.0282398299892819 24.307908296185801 3.4040760583296854 #
point $-1 8.8274517699118462 24.307908296185801 3.4040760583296854 #
point $-1 -55.994140446180609 -31.534234788340378 -8.9560806844463414 #
straight-curve $-1 -55.994140446180609 0 -8.9560806844463414 0 1 0 I I #
straight-curve $-1 -55.994140446180609 0 -8.9560806844463414 0 1 0 I I #
point $-1 -55.994140446180609 -31.534234788340378 -8.9560806844463414 #
point $-1 -55.994140446180609 31.534234788340378 -8.9560806844463414 #
straight-curve $-1 64.069897465144891 -31.534234788340378 2.1938695773066712 0 0 -1 I I #
End-of-ACIS-data 