500 0 6 0           
7 Unknown 11 ACIS 5.0 NT 24 Thu Mar 25 20:29:33 1999 
-1 9.9999999999999995e-007 1e-010 
body $-1 $6 $-1 $7 #
body $-1 $8 $-1 $9 #
body $-1 $10 $-1 $11 #
body $-1 $12 $-1 $13 #
body $-1 $14 $-1 $15 #
body $-1 $16 $-1 $17 #
lump $-1 $-1 $18 $0 #
transform $-1 1 0 0 0 1 0 0 0 1 73.843806268501851 44.885910427328064 13.228514920672152 1 rotate no_reflect no_shear #
lump $-1 $-1 $19 $1 #
transform $-1 1 0 0 0 1 0 0 0 1 73.843806268501851 44.885910427328064 13.228514920672152 1 rotate no_reflect no_shear #
lump $-1 $-1 $20 $2 #
transform $-1 1 0 0 0 1 0 0 0 1 73.843806268501851 44.885910427328064 13.228514920672152 1 rotate no_reflect no_shear #
lump $-1 $-1 $21 $3 #
transform $-1 1 0 0 0 1 0 0 0 1 73.843806268501851 44.885910427328064 13.228514920672152 1 rotate no_reflect no_shear #
lump $-1 $-1 $22 $4 #
transform $-1 1 0 0 0 1 0 0 0 1 73.843806268501851 44.885910427328064 13.228514920672152 1 rotate no_reflect no_shear #
lump $-1 $-1 $23 $5 #
transform $-1 1 0 0 0 1 0 0 0 1 73.843806268501851 44.885910427328064 13.228514920672152 1 rotate no_reflect no_shear #
shell $-1 $-1 $-1 $24 $-1 $6 #
shell $-1 $-1 $-1 $25 $-1 $8 #
shell $-1 $-1 $-1 $26 $-1 $10 #
shell $-1 $-1 $-1 $27 $-1 $12 #
shell $-1 $-1 $-1 $28 $-1 $14 #
shell $-1 $-1 $-1 $29 $-1 $16 #
face $-1 $30 $31 $18 $-1 $32 forward single #
face $-1 $33 $34 $19 $-1 $35 forward single #
face $-1 $36 $37 $20 $-1 $38 reversed single #
face $-1 $39 $40 $21 $-1 $41 forward single #
face $-1 $42 $43 $22 $-1 $44 forward single #
face $-1 $45 $46 $23 $-1 $47 forward single #
face $-1 $48 $49 $18 $-1 $50 reversed single #
loop $-1 $-1 $51 $24 #
plane-surface $-1 0 0 13.228514920672152 0 0 1 1 0 0 forward_v I I I I #
face $-1 $52 $53 $19 $-1 $54 reversed single #
loop $-1 $-1 $55 $25 #
plane-surface $-1 0 -39.195969558877927 9.1073465724258575 0 0 1 1 0 0 forward_v I I I I #
face $-1 $56 $57 $20 $-1 $58 reversed single #
loop $-1 $-1 $59 $26 #
plane-surface $-1 -178.27471980233361 25.129668048089322 105.47071283787244 0 1 0 -0.70710678939079041 0 0.70710677298230451 forward_v I I I I #
face $-1 $60 $61 $21 $-1 $62 forward single #
loop $-1 $63 $64 $27 #
cone-surface $-1 -66.058177996253391 29.08091652393707 5.4428865462496621 0.70710678939079041 0 -0.70710677298230451 1.0606601594734568 0 1.0606601840861856 1 I I 0 1 1.5 forward I I I I #
face $-1 $65 $66 $22 $-1 $67 forward single #
loop $-1 $68 $69 $28 #
cone-surface $-1 -66.058177996253391 35.0077892377087 5.4428865462496621 0.70710678939079041 0 -0.70710677298230451 1.0606601594734568 0 1.0606601840861856 1 I I 0 1 1.5 forward I I I I #
face $-1 $70 $71 $23 $-1 $72 forward single #
loop $-1 $73 $74 $29 #
cone-surface $-1 -66.058177996253391 40.934661951480329 5.4428865462496621 0.70710678939079041 0 -0.70710677298230451 1.0606601594734568 0 1.0606601840861856 1 I I 0 1 1.5 forward I I I I #
face $-1 $75 $76 $18 $-1 $77 reversed single #
loop $-1 $-1 $78 $30 #
plane-surface $-1 0 0 -13.228514920672152 0 0 1 1 0 0 forward_v I I I I #
coedge $-1 $79 $80 $81 $82 forward $31 $-1 #
face $-1 $83 $84 $19 $-1 $85 reversed single #
loop $-1 $-1 $86 $33 #
plane-surface $-1 0 -39.195969558877927 2.5205820734868496 0 0 1 1 0 0 forward_v I I I I #
coedge $-1 $87 $88 $89 $90 reversed $34 $-1 #
face $-1 $91 $92 $20 $-1 $93 forward single #
loop $-1 $-1 $94 $36 #
plane-surface $-1 -73.843806268501879 35.0077892377087 1.0398017273708149 -0.70710678939079041 0 0.70710677298230451 0.70710677298230451 0 0.70710678939079041 forward_v I I I I #
coedge $-1 $95 $96 $97 $98 reversed $37 $-1 #
face $-1 $-1 $99 $21 $-1 $100 forward single #
loop $-1 $101 $102 $39 #
cone-surface $-1 -63.836576087192356 29.08091652393707 3.2212846887411235 0.70710678939079041 0 -0.70710677298230451 0.53033007973672841 0 0.53033009204309278 1 I I -0.70710678118654768 0.70710678118654735 0.75 forward I I I I #
loop $-1 $-1 $103 $27 #
coedge $-1 $64 $64 $104 $105 reversed $40 $-1 #
face $-1 $-1 $106 $22 $-1 $107 forward single #
loop $-1 $108 $109 $42 #
cone-surface $-1 -63.836576087192356 35.0077892377087 3.2212846887411235 0.70710678939079041 0 -0.70710677298230451 0.53033007973672841 0 0.53033009204309278 1 I I -0.70710678118654768 0.70710678118654735 0.75 forward I I I I #
loop $-1 $-1 $110 $28 #
coedge $-1 $69 $69 $111 $112 reversed $43 $-1 #
face $-1 $-1 $113 $23 $-1 $114 forward single #
loop $-1 $115 $116 $45 #
cone-surface $-1 -63.836576087192356 40.934661951480329 3.2212846887411235 0.70710678939079041 0 -0.70710677298230451 0.53033007973672841 0 0.53033009204309278 1 I I -0.70710678118654768 0.70710678118654735 0.75 forward I I I I #
loop $-1 $-1 $117 $29 #
coedge $-1 $74 $74 $118 $119 reversed $46 $-1 #
face $-1 $120 $121 $18 $-1 $122 reversed single #
loop $-1 $-1 $123 $48 #
plane-surface $-1 0 -44.885910427328064 0 0 1 0 0 0 1 forward_v I I I I #
coedge $-1 $124 $125 $126 $127 forward $49 $-1 #
coedge $-1 $128 $51 $129 $130 forward $31 $-1 #
coedge $-1 $51 $128 $131 $132 forward $31 $-1 #
coedge $-1 $133 $134 $51 $82 reversed $135 $-1 #
edge $-1 $136 -44.885910427328064 $137 44.885910427328064 $81 $138 forward 7 unknown #
face $-1 $139 $140 $19 $-1 $141 reversed single #
loop $-1 $-1 $142 $52 #
plane-surface $-1 0 -33.50602869042779 5.8139643229563536 0 -1 0 0 0 -1 forward_v I I I I #
coedge $-1 $143 $144 $145 $146 reversed $53 $-1 #
coedge $-1 $147 $55 $148 $149 forward $34 $-1 #
coedge $-1 $55 $147 $150 $151 reversed $34 $-1 #
coedge $-1 $152 $153 $55 $90 forward $154 $-1 #
edge $-1 $155 13.908043910988827 $156 25.2879256478891 $89 $157 forward 7 unknown #
face $-1 $158 $159 $20 $-1 $160 reversed single #
loop $-1 $-1 $97 $56 #
plane-surface $-1 0 0 13.228514920672152 0 0 1 1 0 0 forward_v I I I I #
coedge $-1 $161 $162 $163 $164 reversed $57 $-1 #
coedge $-1 $96 $59 $165 $166 reversed $37 $-1 #
coedge $-1 $59 $95 $161 $167 reversed $37 $-1 #
coedge $-1 $163 $168 $59 $98 forward $92 $-1 #
edge $-1 $169 15.293553632664953 $170 27.482266543125917 $97 $171 forward 7 unknown #
loop $-1 $-1 $104 $60 #
plane-surface $-1 -73.843806268501879 35.0077892377087 1.0398017273708149 -0.70710678939079041 0 0.70710677298230451 0.70710677298230451 0 0.70710678939079041 forward_v I I I I #
loop $-1 $-1 $172 $39 #
coedge $-1 $102 $102 $103 $173 reversed $61 $-1 #
coedge $-1 $103 $103 $102 $173 forward $63 $-1 #
coedge $-1 $104 $104 $64 $105 forward $99 $-1 #
edge $-1 $174 0 $174 6.2831853071796004 $104 $175 forward 7 unknown #
loop $-1 $-1 $111 $65 #
plane-surface $-1 -73.843806268501879 35.0077892377087 1.0398017273708149 -0.70710678939079041 0 0.70710677298230451 0.70710677298230451 0 0.70710678939079041 forward_v I I I I #
loop $-1 $-1 $176 $42 #
coedge $-1 $109 $109 $110 $177 reversed $66 $-1 #
coedge $-1 $110 $110 $109 $177 forward $68 $-1 #
coedge $-1 $111 $111 $69 $112 forward $106 $-1 #
edge $-1 $178 0 $178 6.2831853071796004 $111 $179 forward 7 unknown #
loop $-1 $-1 $118 $70 #
plane-surface $-1 -73.843806268501879 35.0077892377087 1.0398017273708149 -0.70710678939079041 0 0.70710677298230451 0.70710677298230451 0 0.70710678939079041 forward_v I I I I #
loop $-1 $-1 $180 $45 #
coedge $-1 $116 $116 $117 $181 reversed $71 $-1 #
coedge $-1 $117 $117 $116 $181 forward $73 $-1 #
coedge $-1 $118 $118 $74 $119 forward $113 $-1 #
edge $-1 $182 0 $182 6.2831853071796004 $118 $183 forward 7 unknown #
face $-1 $184 $185 $18 $-1 $186 reversed single #
loop $-1 $-1 $187 $75 #
plane-surface $-1 -73.843806268501851 0 0 1 0 0 0 0 -1 forward_v I I I I #
coedge $-1 $188 $131 $189 $190 forward $76 $-1 #
coedge $-1 $191 $78 $188 $192 forward $49 $-1 #
coedge $-1 $78 $191 $193 $194 forward $49 $-1 #
coedge $-1 $134 $133 $78 $127 reversed $135 $-1 #
edge $-1 $195 -44.885910427328064 $196 44.885910427328064 $126 $197 forward 7 unknown #
coedge $-1 $80 $79 $198 $199 forward $31 $-1 #
coedge $-1 $200 $201 $79 $130 reversed $185 $-1 #
edge $-1 $137 -73.843806268501851 $202 73.843806268501851 $129 $203 forward 7 unknown #
coedge $-1 $123 $204 $80 $132 reversed $76 $-1 #
edge $-1 $205 -73.843806268501851 $136 73.843806268501851 $131 $206 forward 7 unknown #
coedge $-1 $126 $81 $204 $207 forward $135 $-1 #
coedge $-1 $81 $126 $200 $208 reversed $135 $-1 #
loop $-1 $-1 $133 $184 #
vertex $-1 $82 $209 #
vertex $-1 $82 $210 #
straight-curve $-1 73.843806268501851 0 13.228514920672152 0 1 0 I I #
face $-1 $211 $212 $19 $-1 $213 reversed single #
loop $-1 $-1 $214 $83 #
plane-surface $-1 -73.843806268501851 0 0 1 0 0 0 0 -1 forward_v I I I I #
coedge $-1 $215 $148 $153 $216 reversed $84 $-1 #
coedge $-1 $217 $86 $218 $219 reversed $53 $-1 #
coedge $-1 $86 $217 $215 $220 forward $53 $-1 #
coedge $-1 $153 $152 $86 $146 forward $154 $-1 #
edge $-1 $221 -25.2879256478891 $222 -13.908043910988827 $145 $223 forward 7 unknown #
coedge $-1 $88 $87 $214 $224 reversed $34 $-1 #
coedge $-1 $142 $225 $87 $149 reversed $84 $-1 #
edge $-1 $155 -73.843806268501851 $226 73.843806268501851 $148 $227 forward 7 unknown #
coedge $-1 $228 $229 $88 $151 forward $212 $-1 #
edge $-1 $156 -73.843806268501851 $230 73.843806268501851 $150 $231 forward 7 unknown #
coedge $-1 $145 $89 $229 $232 forward $154 $-1 #
coedge $-1 $89 $145 $142 $216 forward $154 $-1 #
loop $-1 $-1 $89 $211 #
vertex $-1 $90 $233 #
vertex $-1 $232 $234 #
straight-curve $-1 73.843806268501851 -19.597984779438963 9.1073465724258575 0 -1 0 I I #
face $-1 $-1 $235 $20 $-1 $236 reversed single #
loop $-1 $-1 $237 $91 #
plane-surface $-1 0 44.885910427328064 0 0 -1 0 0 0 -1 forward_v I I I I #
coedge $-1 $238 $94 $96 $167 forward $57 $-1 #
coedge $-1 $94 $238 $237 $239 reversed $57 $-1 #
coedge $-1 $240 $97 $94 $164 forward $92 $-1 #
edge $-1 $170 7.6257734292349717 $241 27.382015808473728 $163 $242 forward 7 unknown #
coedge $-1 $243 $244 $95 $166 forward $235 $-1 #
edge $-1 $245 -51.695554691565377 $169 -39.506841498264066 $165 $246 forward 7 unknown #
edge $-1 $170 -17.237443305844312 $245 -4.0194366942304651e-014 $96 $247 forward 7 unknown #
coedge $-1 $97 $240 $243 $248 forward $92 $-1 #
vertex $-1 $166 $249 #
vertex $-1 $98 $250 #
straight-curve $-1 -89.137359901166803 25.129668048089322 13.228514920672154 1 0 0 I I #
coedge $-1 $172 $172 $-1 $251 reversed $101 $-1 #
edge $-1 $252 0 $252 6.2831853071796004 $102 $253 forward 7 unknown #
vertex $-1 $105 $254 #
ellipse-curve $-1 -67.749449813271369 29.08091652393707 7.1341583240215005 -0.70710678939079041 0 0.70710677298230451 1.0606601594734568 0 1.0606601840861856 1 I I #
coedge $-1 $176 $176 $-1 $255 reversed $108 $-1 #
edge $-1 $256 0 $256 6.2831853071796004 $109 $257 forward 7 unknown #
vertex $-1 $112 $258 #
ellipse-curve $-1 -67.749449813271369 35.0077892377087 7.1341583240215005 -0.70710678939079041 0 0.70710677298230451 1.0606601594734568 0 1.0606601840861856 1 I I #
coedge $-1 $180 $180 $-1 $259 reversed $115 $-1 #
edge $-1 $260 0 $260 6.2831853071796004 $116 $261 forward 7 unknown #
vertex $-1 $119 $262 #
ellipse-curve $-1 -67.749449813271369 40.934661951480329 7.1341583240215005 -0.70710678939079041 0 0.70710677298230451 1.0606601594734568 0 1.0606601840861856 1 I I #
face $-1 $-1 $135 $18 $-1 $263 reversed single #
loop $-1 $-1 $200 $120 #
plane-surface $-1 0 44.885910427328064 0 0 -1 0 0 0 -1 forward_v I I I I #
coedge $-1 $264 $198 $201 $265 forward $121 $-1 #
coedge $-1 $204 $123 $124 $192 reversed $76 $-1 #
coedge $-1 $198 $264 $123 $190 reversed $121 $-1 #
edge $-1 $205 -13.228514920672152 $266 13.228514920672152 $189 $267 forward 7 unknown #
coedge $-1 $125 $124 $264 $268 forward $49 $-1 #
edge $-1 $196 -73.843806268501851 $266 73.843806268501851 $188 $269 forward 7 unknown #
coedge $-1 $201 $200 $125 $194 reversed $185 $-1 #
edge $-1 $270 -73.843806268501851 $195 73.843806268501851 $193 $271 forward 7 unknown #
vertex $-1 $127 $272 #
vertex $-1 $207 $273 #
straight-curve $-1 73.843806268501851 0 -13.228514920672152 0 -1 0 I I #
coedge $-1 $187 $189 $128 $199 reversed $121 $-1 #
edge $-1 $202 -44.885910427328064 $205 44.885910427328064 $198 $274 forward 7 unknown #
coedge $-1 $193 $129 $134 $208 forward $185 $-1 #
coedge $-1 $129 $193 $187 $265 reversed $185 $-1 #
vertex $-1 $130 $275 #
straight-curve $-1 0 44.885910427328064 13.228514920672152 -1 0 0 I I #
coedge $-1 $131 $188 $133 $207 reversed $76 $-1 #
vertex $-1 $199 $276 #
straight-curve $-1 0 -44.885910427328064 13.228514920672152 1 0 0 I I #
edge $-1 $136 -13.228514920672152 $196 13.228514920672152 $133 $277 forward 7 unknown #
edge $-1 $137 -13.228514920672152 $195 13.228514920672152 $134 $278 forward 7 unknown #
point $-1 73.843806268501851 -44.885910427328064 13.228514920672152 #
point $-1 73.843806268501851 44.885910427328064 13.228514920672152 #
face $-1 $-1 $154 $19 $-1 $279 reversed single #
loop $-1 $-1 $150 $139 #
plane-surface $-1 0 -44.885910427328064 0 0 1 0 0 0 1 forward_v I I I I #
coedge $-1 $280 $281 $147 $224 forward $140 $-1 #
coedge $-1 $225 $142 $144 $220 reversed $84 $-1 #
edge $-1 $222 -0.38640008799132719 $155 6.2003644109476808 $153 $282 forward 7 unknown #
coedge $-1 $144 $143 $283 $284 reversed $53 $-1 #
coedge $-1 $229 $228 $143 $219 forward $212 $-1 #
edge $-1 $285 -73.843806268501851 $221 73.843806268501851 $218 $286 forward 7 unknown #
edge $-1 $287 -73.843806268501851 $222 73.843806268501851 $215 $288 forward 7 unknown #
vertex $-1 $219 $289 #
vertex $-1 $146 $290 #
straight-curve $-1 73.843806268501851 -19.597984779438963 2.5205820734868496 0 1 0 I I #
edge $-1 $230 -25.2879256478891 $226 -13.908043910988827 $214 $291 forward 7 unknown #
coedge $-1 $148 $215 $280 $292 reversed $84 $-1 #
vertex $-1 $224 $293 #
straight-curve $-1 0 -33.50602869042779 9.1073465724258575 -1 0 0 I I #
coedge $-1 $218 $150 $281 $294 forward $212 $-1 #
coedge $-1 $150 $218 $152 $232 reversed $212 $-1 #
vertex $-1 $294 $295 #
straight-curve $-1 0 -44.885910427328064 9.1073465724258575 -1 0 0 I I #
edge $-1 $156 -9.1073465724258575 $221 -2.5205820734868496 $152 $296 forward 7 unknown #
point $-1 73.843806268501851 -33.50602869042779 9.1073465724258575 #
point $-1 73.843806268501851 -44.885910427328064 9.1073465724258575 #
loop $-1 $-1 $165 $158 #
plane-surface $-1 -73.843806268501851 0 0 1 0 0 0 0 -1 forward_v I I I I #
coedge $-1 $297 $298 $162 $239 forward $159 $-1 #
coedge $-1 $162 $161 $244 $299 reversed $57 $-1 #
edge $-1 $241 8.5026590412590259 $300 25.740102347103292 $237 $301 forward 7 unknown #
coedge $-1 $168 $163 $298 $302 forward $92 $-1 #
vertex $-1 $302 $303 #
straight-curve $-1 -61.655093358040887 17.50389461885435 13.228514920672151 0 1 0 I I #
coedge $-1 $304 $165 $168 $248 reversed $235 $-1 #
coedge $-1 $165 $304 $238 $299 forward $235 $-1 #
vertex $-1 $166 $305 #
straight-curve $-1 -73.843806268501851 25.129668048089322 52.73535641893622 0 0 1 I I #
straight-curve $-1 -73.843806268501879 25.129668048089322 1.0398017273708149 -0.70710677298230451 0 -0.70710678939079041 I I #
edge $-1 $306 -44.885910427328064 $169 -25.129668048089322 $243 $307 forward 7 unknown #
point $-1 -73.843806268501851 25.129668048089322 13.228514920672152 #
point $-1 -61.655093358040887 25.129668048089322 13.228514920672154 #
edge $-1 $308 1 $308 0 $172 $-1 forward 7 unknown #
vertex $-1 $173 $309 #
ellipse-curve $-1 -64.366906179235443 29.08091652393707 3.7516147684778516 -0.70710678939079041 0 0.70710677298230451 1.0606601594734568 0 1.0606601840861856 1 I I #
point $-1 -66.688789653797883 29.08091652393707 8.1948185081076588 #
edge $-1 $310 1 $310 0 $176 $-1 forward 7 unknown #
vertex $-1 $177 $311 #
ellipse-curve $-1 -64.366906179235443 35.0077892377087 3.7516147684778516 -0.70710678939079041 0 0.70710677298230451 1.0606601594734568 0 1.0606601840861856 1 I I #
point $-1 -66.688789653797883 35.0077892377087 8.1948185081076588 #
edge $-1 $312 1 $312 0 $180 $-1 forward 7 unknown #
vertex $-1 $181 $313 #
ellipse-curve $-1 -64.366906179235443 40.934661951480329 3.7516147684778516 -0.70710678939079041 0 0.70710677298230451 1.0606601594734568 0 1.0606601840861856 1 I I #
point $-1 -66.688789653797883 40.934661951480329 8.1948185081076588 #
plane-surface $-1 73.843806268501851 0 0 -1 0 0 0 0 1 forward_v I I I I #
coedge $-1 $189 $187 $191 $268 reversed $121 $-1 #
edge $-1 $202 -13.228514920672152 $270 13.228514920672152 $201 $314 forward 7 unknown #
vertex $-1 $268 $315 #
straight-curve $-1 -73.843806268501851 -44.885910427328064 0 0 0 -1 I I #
edge $-1 $266 -44.885910427328064 $270 44.885910427328064 $264 $316 forward 7 unknown #
straight-curve $-1 0 -44.885910427328064 -13.228514920672152 -1 0 0 I I #
vertex $-1 $194 $317 #
straight-curve $-1 0 44.885910427328064 -13.228514920672152 1 0 0 I I #
point $-1 73.843806268501851 44.885910427328064 -13.228514920672152 #
point $-1 73.843806268501851 -44.885910427328064 -13.228514920672152 #
straight-curve $-1 -73.843806268501851 0 13.228514920672152 0 -1 0 I I #
point $-1 -73.843806268501851 44.885910427328064 13.228514920672152 #
point $-1 -73.843806268501851 -44.885910427328064 13.228514920672152 #
straight-curve $-1 73.843806268501851 -44.885910427328064 0 0 0 -1 I I #
straight-curve $-1 73.843806268501851 44.885910427328064 0 0 0 -1 I I #
plane-surface $-1 73.843806268501851 0 0 -1 0 0 0 0 1 forward_v I I I I #
coedge $-1 $283 $214 $225 $292 forward $140 $-1 #
coedge $-1 $214 $283 $228 $294 reversed $140 $-1 #
straight-curve $-1 73.843806268501851 -33.50602869042779 2.9069821614781768 0 0 1 I I #
coedge $-1 $281 $280 $217 $284 forward $140 $-1 #
edge $-1 $287 13.908043910988827 $285 25.2879256478891 $283 $318 forward 7 unknown #
vertex $-1 $219 $319 #
straight-curve $-1 0 -44.885910427328064 2.5205820734868496 1 0 0 I I #
vertex $-1 $284 $320 #
straight-curve $-1 0 -33.50602869042779 2.5205820734868496 1 0 0 I I #
point $-1 73.843806268501851 -44.885910427328064 2.5205820734868496 #
point $-1 73.843806268501851 -33.50602869042779 2.5205820734868496 #
straight-curve $-1 -73.843806268501851 -19.597984779438963 9.1073465724258575 0 1 0 I I #
edge $-1 $226 -6.2003644109476808 $287 0.38640008799132719 $280 $321 forward 7 unknown #
point $-1 -73.843806268501851 -33.50602869042779 9.1073465724258575 #
edge $-1 $230 -9.1073465724258575 $285 -2.5205820734868496 $281 $322 forward 7 unknown #
point $-1 -73.843806268501851 -44.885910427328064 9.1073465724258575 #
straight-curve $-1 73.843806268501851 -44.885910427328064 0 0 0 -1 I I #
coedge $-1 $298 $237 $304 $323 reversed $159 $-1 #
coedge $-1 $237 $297 $240 $302 reversed $159 $-1 #
edge $-1 $300 -27.382015808473728 $245 -7.6257734292349717 $244 $324 forward 7 unknown #
vertex $-1 $239 $325 #
straight-curve $-1 -55.642805561607403 44.885910427328064 19.2408028566214 -0.70710677298230462 0 -0.70710678939079052 I I #
edge $-1 $241 61.655093358040887 $306 73.843806268501851 $298 $326 forward 7 unknown #
point $-1 -61.655093358040887 44.885910427328078 13.228514920672154 #
coedge $-1 $244 $243 $297 $323 forward $235 $-1 #
point $-1 -73.843806268501851 25.129668048089322 1.0398017273708433 #
vertex $-1 $302 $327 #
straight-curve $-1 -73.843806268501851 0 13.228514920672152 0 -1 0 I I #
vertex $-1 $251 $328 #
point $-1 -63.306246019761993 29.08091652393707 4.8122749525640369 #
vertex $-1 $255 $329 #
point $-1 -63.306246019761993 35.0077892377087 4.8122749525640369 #
vertex $-1 $259 $330 #
point $-1 -63.306246019761993 40.934661951480329 4.8122749525640369 #
straight-curve $-1 -73.843806268501851 44.885910427328064 0 0 0 -1 I I #
point $-1 -73.843806268501851 -44.885910427328064 -13.228514920672152 #
straight-curve $-1 -73.843806268501851 0 -13.228514920672152 0 1 0 I I #
point $-1 -73.843806268501851 44.885910427328064 -13.228514920672152 #
straight-curve $-1 -73.843806268501851 -19.597984779438963 2.5205820734868496 0 -1 0 I I #
point $-1 -73.843806268501851 -44.885910427328064 2.5205820734868496 #
point $-1 -73.843806268501851 -33.50602869042779 2.5205820734868496 #
straight-curve $-1 -73.843806268501851 -33.50602869042779 2.9069821614781768 0 0 -1 I I #
straight-curve $-1 -73.843806268501851 -44.885910427328064 0 0 0 -1 I I #
edge $-1 $306 -13.228514920672152 $300 -1.0398017273708433 $297 $331 forward 7 unknown #
straight-curve $-1 -73.843806268501851 17.50389461885435 1.0398017273708433 0 -1 0 I I #
point $-1 -73.843806268501851 44.885910427328078 1.0398017273708433 #
straight-curve $-1 0 44.885910427328064 13.228514920672152 -1 0 0 I I #
point $-1 -73.843806268501851 44.885910427328064 13.228514920672152 #
point $-1 -63.306245995149261 29.08091652393707 2.6909546090043954 #
point $-1 -63.306245995149261 35.0077892377087 2.6909546090043954 #
point $-1 -63.306245995149261 40.934661951480329 2.6909546090043954 #
straight-curve $-1 -73.843806268501851 44.885910427328064 0 0 0 -1 I I #
End-of-ACIS-data 