500 0 11 0           
7 Unknown 11 ACIS 5.0 NT 24 Fri Mar 26 18:24:10 1999 
-1 9.9999999999999995e-007 1e-010 
body $-1 $11 $-1 $12 #
body $-1 $13 $-1 $14 #
body $-1 $15 $-1 $16 #
body $-1 $17 $-1 $18 #
body $-1 $19 $-1 $20 #
body $-1 $21 $-1 $22 #
body $-1 $23 $-1 $24 #
body $-1 $25 $-1 $26 #
body $-1 $27 $-1 $28 #
body $-1 $29 $-1 $30 #
body $-1 $31 $-1 $32 #
lump $-1 $-1 $33 $0 #
transform $-1 1 0 0 0 1 0 0 0 1 68.158818323313085 29.395219489661283 8.7404285863145805 1 rotate no_reflect no_shear #
lump $-1 $-1 $34 $1 #
transform $-1 1 0 0 0 1 0 0 0 1 68.158818323313085 29.395219489661283 8.7404285863145805 1 rotate no_reflect no_shear #
lump $-1 $-1 $35 $2 #
transform $-1 1 0 0 0 1 0 0 0 1 68.158818323313085 29.395219489661283 8.7404285863145805 1 rotate no_reflect no_shear #
lump $-1 $-1 $36 $3 #
transform $-1 1 0 0 0 1 0 0 0 1 68.158818323313085 29.395219489661283 8.7404285863145805 1 rotate no_reflect no_shear #
lump $-1 $-1 $37 $4 #
transform $-1 1 0 0 0 1 0 0 0 1 68.158818323313085 29.395219489661283 8.7404285863145805 1 rotate no_reflect no_shear #
lump $-1 $-1 $38 $5 #
transform $-1 1 0 0 0 1 0 0 0 1 68.158818323313085 29.395219489661283 8.7404285863145805 1 rotate no_reflect no_shear #
lump $-1 $-1 $39 $6 #
transform $-1 1 0 0 0 1 0 0 0 1 68.158818323313085 29.395219489661283 8.7404285863145805 1 rotate no_reflect no_shear #
lump $-1 $-1 $40 $7 #
transform $-1 1 0 0 0 1 0 0 0 1 68.158818323313085 29.395219489661283 8.7404285863145805 1 rotate no_reflect no_shear #
lump $-1 $-1 $41 $8 #
transform $-1 1 0 0 0 1 0 0 0 1 68.158818323313085 29.395219489661283 8.7404285863145805 1 rotate no_reflect no_shear #
lump $-1 $-1 $42 $9 #
transform $-1 1 0 0 0 1 0 0 0 1 68.158818323313085 29.395219489661283 8.7404285863145805 1 rotate no_reflect no_shear #
lump $-1 $-1 $43 $10 #
transform $-1 1 0 0 0 1 0 0 0 1 68.158818323313085 29.395219489661283 8.7404285863145805 1 rotate no_reflect no_shear #
shell $-1 $-1 $-1 $44 $-1 $11 #
shell $-1 $-1 $-1 $45 $-1 $13 #
shell $-1 $-1 $-1 $46 $-1 $15 #
shell $-1 $-1 $-1 $47 $-1 $17 #
shell $-1 $-1 $-1 $48 $-1 $19 #
shell $-1 $-1 $-1 $49 $-1 $21 #
shell $-1 $-1 $-1 $50 $-1 $23 #
shell $-1 $-1 $-1 $51 $-1 $25 #
shell $-1 $-1 $-1 $52 $-1 $27 #
shell $-1 $-1 $-1 $53 $-1 $29 #
shell $-1 $-1 $-1 $54 $-1 $31 #
face $-1 $55 $56 $33 $-1 $57 forward single #
face $-1 $58 $59 $34 $-1 $60 forward single #
face $-1 $61 $62 $35 $-1 $63 forward single #
face $-1 $64 $65 $36 $-1 $66 reversed single #
face $-1 $67 $68 $37 $-1 $69 forward single #
face $-1 $70 $71 $38 $-1 $72 forward single #
face $-1 $73 $74 $39 $-1 $75 reversed single #
face $-1 $76 $77 $40 $-1 $78 forward single #
face $-1 $79 $80 $41 $-1 $81 forward single #
face $-1 $82 $83 $42 $-1 $84 reversed single #
face $-1 $85 $86 $43 $-1 $87 forward single #
face $-1 $88 $89 $33 $-1 $90 reversed single #
loop $-1 $-1 $91 $44 #
plane-surface $-1 0 0 8.7404285863145805 0 0 1 1 0 0 forward_v I I I I #
face $-1 $92 $93 $34 $-1 $94 reversed single #
loop $-1 $-1 $95 $45 #
plane-surface $-1 0 -25.635549487356307 -1.7740693491446624 0 0 1 1 0 0 forward_v I I I I #
face $-1 $96 $97 $35 $-1 $98 reversed single #
loop $-1 $-1 $99 $46 #
plane-surface $-1 0 25.635549487356304 -1.7740693491446624 0 0 1 1 0 0 forward_v I I I I #
face $-1 $100 $101 $36 $-1 $102 reversed single #
loop $-1 $-1 $103 $47 #
plane-surface $-1 -178.44210411905499 -7.8899501599109936 83.284683996207761 0 -1 0 0.80901700255871778 0 -0.5877852410284794 forward_v I I I I #
face $-1 $104 $105 $37 $-1 $106 forward single #
loop $-1 $107 $108 $48 #
cone-surface $-1 -65.569783769129714 -15.52171070506771 5.5418329236539616 0.80901700255871778 0 -0.5877852410284794 0.2938926205142397 0 0.40450850127935889 1 I I 0 1 0.5 forward I I I I #
face $-1 $109 $110 $38 $-1 $111 forward single #
loop $-1 $112 $113 $49 #
cone-surface $-1 -65.569783769129714 -10.942654377973678 5.5418329236539616 0.80901700255871778 0 -0.5877852410284794 0.2938926205142397 0 0.40450850127935889 1 I I 0 1 0.5 forward I I I I #
face $-1 $114 $115 $39 $-1 $116 reversed single #
loop $-1 $-1 $117 $50 #
plane-surface $-1 -178.44210411905499 18.574414923130391 83.284683996207761 0 -1 0 0.80901700255871778 0 -0.5877852410284794 forward_v I I I I #
face $-1 $118 $119 $40 $-1 $120 forward single #
loop $-1 $121 $122 $51 #
cone-surface $-1 -65.569783769129714 10.942654377973678 5.5418329236539616 0.80901700255871778 0 -0.5877852410284794 0.2938926205142397 0 0.40450850127935889 1 I I 0 1 0.5 forward I I I I #
face $-1 $123 $124 $41 $-1 $125 forward single #
loop $-1 $126 $127 $52 #
cone-surface $-1 -65.569783769129714 15.521710705067708 5.5418329236539616 0.80901700255871778 0 -0.5877852410284794 0.2938926205142397 0 0.40450850127935889 1 I I 0 1 0.5 forward I I I I #
face $-1 $128 $129 $42 $-1 $130 reversed single #
loop $-1 $-1 $131 $53 #
plane-surface $-1 108.24050476329336 -21.875879485051335 193.20062502251963 0 1 0 0.83867057594974714 0 0.54463902268945019 forward_v I I I I #
face $-1 $132 $133 $43 $-1 $134 forward single #
loop $-1 $135 $136 $54 #
cone-surface $-1 66.405178156263673 -18.096827299830906 6.4134596745281982 -0.83867057594974714 0 -0.54463902268945019 0.2723195113447251 0 -0.41933528797487357 1 I I 0 1 0.5 forward I I I I #
face $-1 $137 $138 $33 $-1 $139 reversed single #
loop $-1 $-1 $140 $55 #
plane-surface $-1 0 0 -8.7404285863145805 0 0 1 1 0 0 forward_v I I I I #
coedge $-1 $141 $142 $143 $144 forward $56 $-1 #
face $-1 $145 $146 $34 $-1 $147 reversed single #
loop $-1 $-1 $148 $58 #
plane-surface $-1 0 -25.635549487356307 -4.7740693491446624 0 0 1 1 0 0 forward_v I I I I #
coedge $-1 $149 $150 $151 $152 reversed $59 $-1 #
face $-1 $153 $154 $35 $-1 $155 reversed single #
loop $-1 $-1 $156 $61 #
plane-surface $-1 0 25.635549487356304 -4.7740693491446624 0 0 1 1 0 0 forward_v I I I I #
coedge $-1 $157 $158 $159 $160 reversed $62 $-1 #
face $-1 $161 $162 $36 $-1 $163 reversed single #
loop $-1 $-1 $164 $64 #
plane-surface $-1 -68.158818323313071 -13.232182541520697 3.1591890834379228 -0.80901700255871778 0 0.5877852410284794 0.5877852410284794 0 0.80901700255871778 forward_v I I I I #
coedge $-1 $165 $166 $167 $168 reversed $65 $-1 #
face $-1 $-1 $169 $37 $-1 $170 forward single #
loop $-1 $171 $172 $67 #
cone-surface $-1 -64.805998833854773 -15.52171070506771 4.986910702174546 0.80901700255871778 0 -0.5877852410284794 0.14694631025711985 0 0.20225425063967944 1 I I -0.70710678118654746 0.70710678118654746 0.25 forward I I I I #
loop $-1 $-1 $173 $48 #
coedge $-1 $108 $108 $174 $175 reversed $68 $-1 #
face $-1 $-1 $176 $38 $-1 $177 forward single #
loop $-1 $178 $179 $70 #
cone-surface $-1 -64.805998833854773 -10.942654377973678 4.986910702174546 0.80901700255871778 0 -0.5877852410284794 0.14694631025711985 0 0.20225425063967944 1 I I -0.70710678118654746 0.70710678118654746 0.25 forward I I I I #
loop $-1 $-1 $180 $49 #
coedge $-1 $113 $113 $181 $182 reversed $71 $-1 #
face $-1 $183 $184 $39 $-1 $185 reversed single #
loop $-1 $-1 $186 $73 #
plane-surface $-1 -68.158818323313071 13.23218254152069 3.1591890834379228 -0.80901700255871778 0 0.5877852410284794 0.5877852410284794 0 0.80901700255871778 forward_v I I I I #
coedge $-1 $187 $188 $189 $190 reversed $74 $-1 #
face $-1 $-1 $191 $40 $-1 $192 forward single #
loop $-1 $193 $194 $76 #
cone-surface $-1 -64.805998833854773 10.942654377973678 4.986910702174546 0.80901700255871778 0 -0.5877852410284794 0.14694631025711985 0 0.20225425063967944 1 I I -0.70710678118654746 0.70710678118654746 0.25 forward I I I I #
loop $-1 $-1 $195 $51 #
coedge $-1 $122 $122 $196 $197 reversed $77 $-1 #
face $-1 $-1 $198 $41 $-1 $199 forward single #
loop $-1 $200 $201 $79 #
cone-surface $-1 -64.805998833854773 15.521710705067708 4.986910702174546 0.80901700255871778 0 -0.5877852410284794 0.14694631025711985 0 0.20225425063967944 1 I I -0.70710678118654746 0.70710678118654746 0.25 forward I I I I #
loop $-1 $-1 $202 $52 #
coedge $-1 $127 $127 $203 $204 reversed $80 $-1 #
face $-1 $205 $206 $42 $-1 $207 reversed single #
loop $-1 $-1 $208 $82 #
plane-surface $-1 -6.0850860752409659 -18.096827299830906 118.95672062396558 0.83867057594974714 0 0.54463902268945019 0.54463902268945019 0 -0.83867057594974714 forward_v I I I I #
coedge $-1 $209 $210 $211 $212 reversed $83 $-1 #
face $-1 $-1 $213 $43 $-1 $214 forward single #
loop $-1 $215 $216 $85 #
cone-surface $-1 65.776175224301369 -18.096827299830906 6.0049804075111108 -0.83867057594974714 0 -0.54463902268945019 0.13615975567236255 0 -0.20966764398743679 1 I I -0.70710678118654746 0.70710678118654746 0.25 forward I I I I #
loop $-1 $-1 $217 $54 #
coedge $-1 $136 $136 $218 $219 reversed $86 $-1 #
face $-1 $220 $221 $33 $-1 $222 reversed single #
loop $-1 $-1 $223 $88 #
plane-surface $-1 0 -29.395219489661283 0 0 1 0 0 0 1 forward_v I I I I #
coedge $-1 $224 $225 $226 $227 forward $89 $-1 #
coedge $-1 $228 $91 $229 $230 forward $56 $-1 #
coedge $-1 $91 $228 $231 $232 forward $56 $-1 #
coedge $-1 $233 $234 $91 $144 reversed $235 $-1 #
edge $-1 $236 -29.395219489661283 $237 29.395219489661283 $143 $238 forward 7 unknown #
face $-1 $239 $240 $34 $-1 $241 reversed single #
loop $-1 $-1 $242 $92 #
plane-surface $-1 0 -21.875879485051335 -3.2740693491446624 0 -1 0 0 0 -1 forward_v I I I I #
coedge $-1 $243 $244 $245 $246 reversed $93 $-1 #
coedge $-1 $247 $95 $248 $249 forward $59 $-1 #
coedge $-1 $95 $247 $250 $251 reversed $59 $-1 #
coedge $-1 $252 $253 $95 $152 forward $254 $-1 #
edge $-1 $255 9.0581047413731817 $256 16.577444745983126 $151 $257 forward 7 unknown #
face $-1 $258 $259 $35 $-1 $260 reversed single #
loop $-1 $-1 $261 $96 #
plane-surface $-1 0 21.875879485051328 -3.2740693491446624 0 1 0 0 0 1 forward_v I I I I #
coedge $-1 $262 $263 $264 $265 reversed $97 $-1 #
coedge $-1 $266 $99 $267 $268 reversed $62 $-1 #
coedge $-1 $99 $266 $269 $270 forward $62 $-1 #
coedge $-1 $271 $272 $99 $160 forward $259 $-1 #
edge $-1 $273 -16.577444745983129 $274 -9.0581047413731763 $159 $275 forward 7 unknown #
face $-1 $276 $277 $36 $-1 $278 reversed single #
loop $-1 $-1 $279 $100 #
plane-surface $-1 -178.44210411905499 -18.574414923130398 83.284683996207761 0 1 0 -0.80901700255871778 0 0.5877852410284794 forward_v I I I I #
coedge $-1 $280 $281 $282 $283 reversed $101 $-1 #
coedge $-1 $166 $103 $284 $285 reversed $65 $-1 #
coedge $-1 $103 $165 $280 $286 reversed $65 $-1 #
coedge $-1 $282 $287 $103 $168 forward $277 $-1 #
edge $-1 $288 32.901913411789302 $289 38.483152914665979 $167 $290 forward 7 unknown #
loop $-1 $-1 $174 $104 #
plane-surface $-1 -68.158818323313071 -13.232182541520697 3.1591890834379228 -0.80901700255871778 0 0.5877852410284794 0.5877852410284794 0 0.80901700255871778 forward_v I I I I #
loop $-1 $-1 $291 $67 #
coedge $-1 $172 $172 $173 $292 reversed $105 $-1 #
coedge $-1 $173 $173 $172 $292 forward $107 $-1 #
coedge $-1 $174 $174 $108 $175 forward $169 $-1 #
edge $-1 $293 0 $293 6.2831853071796004 $174 $294 forward 7 unknown #
loop $-1 $-1 $181 $109 #
plane-surface $-1 -68.158818323313071 -13.232182541520697 3.1591890834379228 -0.80901700255871778 0 0.5877852410284794 0.5877852410284794 0 0.80901700255871778 forward_v I I I I #
loop $-1 $-1 $295 $70 #
coedge $-1 $179 $179 $180 $296 reversed $110 $-1 #
coedge $-1 $180 $180 $179 $296 forward $112 $-1 #
coedge $-1 $181 $181 $113 $182 forward $176 $-1 #
edge $-1 $297 0 $297 6.2831853071796004 $181 $298 forward 7 unknown #
face $-1 $299 $300 $39 $-1 $301 forward single #
loop $-1 $-1 $302 $114 #
plane-surface $-1 -178.44210411905499 7.8899501599109865 83.284683996207761 0 1 0 -0.80901700255871778 0 0.5877852410284794 forward_v I I I I #
coedge $-1 $303 $304 $305 $306 reversed $115 $-1 #
coedge $-1 $188 $117 $307 $308 reversed $74 $-1 #
coedge $-1 $117 $187 $303 $309 reversed $74 $-1 #
coedge $-1 $305 $310 $117 $190 forward $311 $-1 #
edge $-1 $312 32.901913411789302 $313 38.483152914665979 $189 $314 forward 7 unknown #
loop $-1 $-1 $196 $118 #
plane-surface $-1 -68.158818323313071 13.23218254152069 3.1591890834379228 -0.80901700255871778 0 0.5877852410284794 0.5877852410284794 0 0.80901700255871778 forward_v I I I I #
loop $-1 $-1 $315 $76 #
coedge $-1 $194 $194 $195 $316 reversed $119 $-1 #
coedge $-1 $195 $195 $194 $316 forward $121 $-1 #
coedge $-1 $196 $196 $122 $197 forward $191 $-1 #
edge $-1 $317 0 $317 6.2831853071796004 $196 $318 forward 7 unknown #
loop $-1 $-1 $203 $123 #
plane-surface $-1 -68.158818323313071 13.23218254152069 3.1591890834379228 -0.80901700255871778 0 0.5877852410284794 0.5877852410284794 0 0.80901700255871778 forward_v I I I I #
loop $-1 $-1 $319 $79 #
coedge $-1 $201 $201 $202 $320 reversed $124 $-1 #
coedge $-1 $202 $202 $201 $320 forward $126 $-1 #
coedge $-1 $203 $203 $127 $204 forward $198 $-1 #
edge $-1 $321 0 $321 6.2831853071796004 $203 $322 forward 7 unknown #
face $-1 $323 $324 $42 $-1 $325 forward single #
loop $-1 $-1 $326 $128 #
plane-surface $-1 108.24050476329336 -14.317775114610477 193.20062502251963 0 -1 0 -0.83867057594974714 0 -0.54463902268945019 forward_v I I I I #
coedge $-1 $327 $328 $329 $330 reversed $129 $-1 #
coedge $-1 $210 $131 $331 $332 reversed $83 $-1 #
coedge $-1 $131 $209 $327 $333 reversed $83 $-1 #
coedge $-1 $329 $334 $131 $212 forward $335 $-1 #
edge $-1 $336 87.859883924945237 $337 91.96918272582856 $211 $338 forward 7 unknown #
loop $-1 $-1 $218 $132 #
plane-surface $-1 -6.0850860752409659 -18.096827299830906 118.95672062396558 0.83867057594974714 0 0.54463902268945019 0.54463902268945019 0 -0.83867057594974714 forward_v I I I I #
loop $-1 $-1 $339 $85 #
coedge $-1 $216 $216 $217 $340 reversed $133 $-1 #
coedge $-1 $217 $217 $216 $340 forward $135 $-1 #
coedge $-1 $218 $218 $136 $219 forward $213 $-1 #
edge $-1 $341 0 $341 6.2831853071796004 $218 $342 forward 7 unknown #
face $-1 $343 $344 $33 $-1 $345 reversed single #
loop $-1 $-1 $346 $137 #
plane-surface $-1 -68.158818323313085 0 0 1 0 0 0 0 -1 forward_v I I I I #
coedge $-1 $347 $231 $348 $349 forward $138 $-1 #
coedge $-1 $350 $140 $347 $351 forward $89 $-1 #
coedge $-1 $140 $350 $352 $353 forward $89 $-1 #
coedge $-1 $234 $233 $140 $227 reversed $235 $-1 #
edge $-1 $354 -29.395219489661283 $355 29.395219489661283 $226 $356 forward 7 unknown #
coedge $-1 $142 $141 $357 $358 forward $56 $-1 #
coedge $-1 $359 $360 $141 $230 reversed $344 $-1 #
edge $-1 $237 -68.158818323313085 $361 68.158818323313085 $229 $362 forward 7 unknown #
coedge $-1 $223 $363 $142 $232 reversed $138 $-1 #
edge $-1 $364 -68.158818323313085 $236 68.158818323313085 $231 $365 forward 7 unknown #
coedge $-1 $226 $143 $363 $366 forward $235 $-1 #
coedge $-1 $143 $226 $359 $367 reversed $235 $-1 #
loop $-1 $-1 $233 $343 #
vertex $-1 $144 $368 #
vertex $-1 $144 $369 #
straight-curve $-1 68.158818323313085 0 8.7404285863145805 0 1 0 I I #
face $-1 $370 $371 $34 $-1 $372 reversed single #
loop $-1 $-1 $373 $145 #
plane-surface $-1 -68.158818323313085 0 0 1 0 0 0 0 -1 forward_v I I I I #
coedge $-1 $374 $248 $253 $375 reversed $146 $-1 #
coedge $-1 $376 $148 $377 $378 reversed $93 $-1 #
coedge $-1 $148 $376 $374 $379 forward $93 $-1 #
coedge $-1 $253 $252 $148 $246 forward $254 $-1 #
edge $-1 $380 -16.577444745983126 $381 -9.0581047413731817 $245 $382 forward 7 unknown #
coedge $-1 $150 $149 $373 $383 reversed $59 $-1 #
coedge $-1 $242 $384 $149 $249 reversed $146 $-1 #
edge $-1 $255 -68.158818323313085 $385 68.158818323313085 $248 $386 forward 7 unknown #
coedge $-1 $387 $388 $150 $251 forward $371 $-1 #
edge $-1 $256 -68.158818323313085 $389 68.158818323313085 $250 $390 forward 7 unknown #
coedge $-1 $245 $151 $388 $391 forward $254 $-1 #
coedge $-1 $151 $245 $242 $375 forward $254 $-1 #
loop $-1 $-1 $151 $370 #
vertex $-1 $152 $392 #
vertex $-1 $391 $393 #
straight-curve $-1 68.158818323313085 -12.817774743678154 -1.7740693491446624 0 -1 0 I I #
face $-1 $394 $395 $35 $-1 $396 reversed single #
loop $-1 $-1 $159 $153 #
plane-surface $-1 68.158818323313085 0 0 -1 0 0 0 0 1 forward_v I I I I #
coedge $-1 $397 $269 $398 $399 reversed $154 $-1 #
coedge $-1 $400 $156 $397 $401 forward $97 $-1 #
coedge $-1 $156 $400 $402 $403 reversed $97 $-1 #
coedge $-1 $272 $271 $156 $265 forward $259 $-1 #
edge $-1 $404 9.0581047413731763 $405 16.577444745983129 $264 $406 forward 7 unknown #
coedge $-1 $158 $157 $407 $408 reversed $62 $-1 #
coedge $-1 $409 $410 $157 $268 forward $411 $-1 #
edge $-1 $412 -68.158818323313085 $273 68.158818323313085 $267 $413 forward 7 unknown #
coedge $-1 $261 $414 $158 $270 reversed $154 $-1 #
edge $-1 $415 -68.158818323313085 $274 68.158818323313085 $269 $416 forward 7 unknown #
coedge $-1 $264 $159 $414 $417 forward $259 $-1 #
coedge $-1 $159 $264 $409 $418 reversed $259 $-1 #
vertex $-1 $418 $419 #
vertex $-1 $160 $420 #
straight-curve $-1 68.158818323313085 12.817774743678152 -1.7740693491446624 0 -1 0 I I #
face $-1 $-1 $421 $36 $-1 $422 forward single #
loop $-1 $-1 $167 $161 #
plane-surface $-1 -68.158818323313085 0 0 1 0 0 0 0 -1 forward_v I I I I #
coedge $-1 $423 $424 $425 $426 reversed $162 $-1 #
coedge $-1 $427 $164 $166 $286 forward $101 $-1 #
coedge $-1 $164 $427 $423 $428 forward $101 $-1 #
coedge $-1 $425 $167 $164 $283 forward $277 $-1 #
edge $-1 $289 1.2738588891506453 $429 11.95832365237005 $282 $430 forward 7 unknown #
coedge $-1 $431 $432 $165 $285 forward $421 $-1 #
edge $-1 $433 -25.117241475310649 $288 -21.062233736214409 $284 $434 forward 7 unknown #
edge $-1 $289 -2.4161062406544664e-014 $433 6.8987913544766064 $166 $435 forward 7 unknown #
coedge $-1 $167 $425 $431 $436 reversed $277 $-1 #
vertex $-1 $436 $437 #
vertex $-1 $168 $438 #
straight-curve $-1 -68.158818323313085 -7.8899501599109936 41.64234199810388 0 0 -1 I I #
coedge $-1 $291 $291 $-1 $439 reversed $171 $-1 #
edge $-1 $440 0 $440 6.2831853071796004 $172 $441 forward 7 unknown #
vertex $-1 $175 $442 #
ellipse-curve $-1 -66.131314453764958 -15.52171070506771 5.949808834876249 -0.80901700255871778 0 0.5877852410284794 0.2938926205142397 0 0.40450850127935889 1 I I #
coedge $-1 $295 $295 $-1 $443 reversed $178 $-1 #
edge $-1 $444 0 $444 6.2831853071796004 $179 $445 forward 7 unknown #
vertex $-1 $182 $446 #
ellipse-curve $-1 -66.131314453764958 -10.942654377973678 5.949808834876249 -0.80901700255871778 0 0.5877852410284794 0.2938926205142397 0 0.40450850127935889 1 I I #
face $-1 $-1 $311 $39 $-1 $447 reversed single #
loop $-1 $-1 $448 $183 #
plane-surface $-1 0 0 8.7404285863145805 0 0 1 1 0 0 forward_v I I I I #
coedge $-1 $449 $450 $451 $452 reversed $184 $-1 #
coedge $-1 $453 $186 $188 $309 forward $115 $-1 #
coedge $-1 $186 $453 $449 $454 forward $115 $-1 #
coedge $-1 $451 $189 $186 $306 forward $311 $-1 #
edge $-1 $313 -11.958323652370046 $455 -1.2738588891506417 $305 $456 forward 7 unknown #
coedge $-1 $457 $458 $187 $308 forward $300 $-1 #
edge $-1 $459 -25.117241475310649 $312 -21.062233736214409 $307 $460 forward 7 unknown #
edge $-1 $313 -2.4161062406544664e-014 $459 6.8987913544766064 $188 $461 forward 7 unknown #
coedge $-1 $189 $451 $457 $462 reversed $311 $-1 #
loop $-1 $-1 $451 $299 #
vertex $-1 $462 $463 #
vertex $-1 $190 $464 #
straight-curve $-1 -68.158818323313085 18.574414923130391 41.64234199810388 0 0 -1 I I #
coedge $-1 $315 $315 $-1 $465 reversed $193 $-1 #
edge $-1 $466 0 $466 6.2831853071796004 $194 $467 forward 7 unknown #
vertex $-1 $197 $468 #
ellipse-curve $-1 -66.131314453764958 10.942654377973678 5.949808834876249 -0.80901700255871778 0 0.5877852410284794 0.2938926205142397 0 0.40450850127935889 1 I I #
coedge $-1 $319 $319 $-1 $469 reversed $200 $-1 #
edge $-1 $470 0 $470 6.2831853071796004 $201 $471 forward 7 unknown #
vertex $-1 $204 $472 #
ellipse-curve $-1 -66.131314453764958 15.521710705067708 5.949808834876249 -0.80901700255871778 0 0.5877852410284794 0.2938926205142397 0 0.40450850127935889 1 I I #
face $-1 $-1 $335 $42 $-1 $473 reversed single #
loop $-1 $-1 $474 $205 #
plane-surface $-1 0 0 8.7404285863145805 0 0 1 1 0 0 forward_v I I I I #
coedge $-1 $475 $476 $477 $478 reversed $206 $-1 #
coedge $-1 $479 $208 $210 $333 forward $129 $-1 #
coedge $-1 $208 $479 $475 $480 forward $129 $-1 #
coedge $-1 $477 $211 $208 $330 forward $335 $-1 #
edge $-1 $337 -12.827465835135882 $481 -5.2693614646950238 $329 $482 forward 7 unknown #
coedge $-1 $483 $484 $209 $332 forward $324 $-1 #
edge $-1 $485 11.369956183517317 $336 14.038565941666405 $331 $486 forward 7 unknown #
edge $-1 $337 -136.31763664662617 $485 -131.4178596439219 $210 $487 forward 7 unknown #
coedge $-1 $211 $477 $483 $488 reversed $335 $-1 #
loop $-1 $-1 $477 $323 #
vertex $-1 $488 $489 #
vertex $-1 $212 $490 #
straight-curve $-1 68.158818323313085 -21.875879485051335 96.600312511259816 0 0 -1 I I #
coedge $-1 $339 $339 $-1 $491 reversed $215 $-1 #
edge $-1 $492 0 $492 6.2831853071796004 $216 $493 forward 7 unknown #
vertex $-1 $219 $494 #
ellipse-curve $-1 66.824513444238548 -18.096827299830906 6.685779185872919 0.83867057594974714 0 0.54463902268945019 0.2723195113447251 0 -0.41933528797487357 1 I I #
face $-1 $-1 $235 $33 $-1 $495 reversed single #
loop $-1 $-1 $359 $220 #
plane-surface $-1 0 29.395219489661283 0 0 -1 0 0 0 -1 forward_v I I I I #
coedge $-1 $496 $357 $360 $497 forward $221 $-1 #
coedge $-1 $363 $223 $224 $351 reversed $138 $-1 #
coedge $-1 $357 $496 $223 $349 reversed $221 $-1 #
edge $-1 $364 -8.7404285863145805 $498 8.7404285863145805 $348 $499 forward 7 unknown #
coedge $-1 $225 $224 $496 $500 forward $89 $-1 #
edge $-1 $355 -68.158818323313085 $498 68.158818323313085 $347 $501 forward 7 unknown #
coedge $-1 $360 $359 $225 $353 reversed $344 $-1 #
edge $-1 $502 -68.158818323313085 $354 68.158818323313085 $352 $503 forward 7 unknown #
vertex $-1 $227 $504 #
vertex $-1 $366 $505 #
straight-curve $-1 68.158818323313085 0 -8.7404285863145805 0 -1 0 I I #
coedge $-1 $346 $348 $228 $358 reversed $221 $-1 #
edge $-1 $361 -29.395219489661283 $364 29.395219489661283 $357 $506 forward 7 unknown #
coedge $-1 $352 $229 $234 $367 forward $344 $-1 #
coedge $-1 $229 $352 $346 $497 reversed $344 $-1 #
vertex $-1 $230 $507 #
straight-curve $-1 0 29.395219489661283 8.7404285863145805 -1 0 0 I I #
coedge $-1 $231 $347 $233 $366 reversed $138 $-1 #
vertex $-1 $358 $508 #
straight-curve $-1 0 -29.395219489661283 8.7404285863145805 1 0 0 I I #
edge $-1 $236 -8.7404285863145805 $355 8.7404285863145805 $233 $509 forward 7 unknown #
edge $-1 $237 -8.7404285863145805 $354 8.7404285863145805 $234 $510 forward 7 unknown #
point $-1 68.158818323313085 -29.395219489661283 8.7404285863145805 #
point $-1 68.158818323313085 29.395219489661283 8.7404285863145805 #
face $-1 $-1 $254 $34 $-1 $511 reversed single #
loop $-1 $-1 $250 $239 #
plane-surface $-1 0 -29.395219489661283 0 0 1 0 0 0 1 forward_v I I I I #
coedge $-1 $512 $513 $247 $383 forward $240 $-1 #
coedge $-1 $384 $242 $244 $379 reversed $146 $-1 #
edge $-1 $381 -3.1370346745723312 $255 -0.13703467457233121 $253 $514 forward 7 unknown #
coedge $-1 $244 $243 $515 $516 reversed $93 $-1 #
coedge $-1 $388 $387 $243 $378 forward $371 $-1 #
edge $-1 $517 -68.158818323313085 $380 68.158818323313085 $377 $518 forward 7 unknown #
edge $-1 $519 -68.158818323313085 $381 68.158818323313085 $374 $520 forward 7 unknown #
vertex $-1 $378 $521 #
vertex $-1 $246 $522 #
straight-curve $-1 68.158818323313085 -12.817774743678154 -4.7740693491446624 0 1 0 I I #
edge $-1 $389 -16.577444745983126 $385 -9.0581047413731817 $373 $523 forward 7 unknown #
coedge $-1 $248 $374 $512 $524 reversed $146 $-1 #
vertex $-1 $383 $525 #
straight-curve $-1 0 -21.875879485051335 -1.7740693491446624 -1 0 0 I I #
coedge $-1 $377 $250 $513 $526 forward $371 $-1 #
coedge $-1 $250 $377 $252 $391 reversed $371 $-1 #
vertex $-1 $526 $527 #
straight-curve $-1 0 -29.395219489661283 -1.7740693491446624 -1 0 0 I I #
edge $-1 $256 1.7740693491446624 $380 4.7740693491446624 $252 $528 forward 7 unknown #
point $-1 68.158818323313085 -21.875879485051335 -1.7740693491446624 #
point $-1 68.158818323313085 -29.39521948966128 -1.7740693491446624 #
face $-1 $-1 $411 $35 $-1 $529 reversed single #
loop $-1 $-1 $407 $258 #
plane-surface $-1 -68.158818323313085 0 0 1 0 0 0 0 -1 forward_v I I I I #
coedge $-1 $414 $261 $262 $401 reversed $154 $-1 #
coedge $-1 $407 $530 $261 $399 forward $395 $-1 #
edge $-1 $531 -3.1370346745723312 $415 -0.13703467457233121 $398 $532 forward 7 unknown #
coedge $-1 $263 $262 $530 $533 reversed $97 $-1 #
edge $-1 $404 -68.158818323313085 $531 68.158818323313085 $397 $534 forward 7 unknown #
coedge $-1 $410 $409 $263 $403 forward $411 $-1 #
edge $-1 $405 -68.158818323313085 $535 68.158818323313085 $402 $536 forward 7 unknown #
vertex $-1 $265 $537 #
vertex $-1 $403 $538 #
straight-curve $-1 68.158818323313085 12.817774743678152 -4.7740693491446624 0 1 0 I I #
coedge $-1 $539 $398 $266 $408 forward $395 $-1 #
edge $-1 $415 9.0581047413731763 $412 16.577444745983129 $407 $540 forward 7 unknown #
coedge $-1 $402 $267 $272 $418 forward $411 $-1 #
coedge $-1 $267 $402 $539 $541 reversed $411 $-1 #
loop $-1 $-1 $267 $394 #
vertex $-1 $541 $542 #
straight-curve $-1 0 29.395219489661283 -1.7740693491446624 1 0 0 I I #
coedge $-1 $269 $397 $271 $417 reversed $154 $-1 #
vertex $-1 $408 $543 #
straight-curve $-1 0 21.875879485051328 -1.7740693491446624 1 0 0 I I #
edge $-1 $274 0.13703467457233121 $404 3.1370346745723312 $271 $544 forward 7 unknown #
edge $-1 $273 1.7740693491446624 $405 4.7740693491446624 $272 $545 forward 7 unknown #
point $-1 68.158818323313085 29.39521948966128 -1.7740693491446624 #
point $-1 68.158818323313085 21.875879485051328 -1.7740693491446624 #
loop $-1 $-1 $284 $276 #
plane-surface $-1 0 0 8.7404285863145805 0 0 1 1 0 0 forward_v I I I I #
coedge $-1 $424 $279 $281 $428 reversed $162 $-1 #
coedge $-1 $279 $423 $546 $547 reversed $162 $-1 #
coedge $-1 $287 $282 $279 $426 forward $277 $-1 #
edge $-1 $429 -38.483152914665979 $548 -32.901913411789302 $425 $549 forward 7 unknown #
coedge $-1 $281 $280 $432 $550 reversed $101 $-1 #
edge $-1 $551 -6.8987913544766064 $429 2.4161062406544664e-014 $423 $552 forward 7 unknown #
vertex $-1 $283 $553 #
straight-curve $-1 -68.158818323313085 -6.6160912707603483 3.1591890834379197 0 -1 0 I I #
coedge $-1 $546 $284 $287 $436 forward $421 $-1 #
coedge $-1 $284 $546 $427 $550 forward $421 $-1 #
vertex $-1 $285 $554 #
straight-curve $-1 -89.221052059527494 -7.8899501599109936 8.7404285863145788 -1 0 0 I I #
straight-curve $-1 -68.158818323313071 -7.8899501599109936 3.1591890834379228 0.5877852410284794 0 0.80901700255871778 I I #
edge $-1 $288 7.8899501599109936 $548 18.574414923130398 $287 $555 forward 7 unknown #
point $-1 -68.158818323313085 -7.8899501599109936 8.7404285863145805 #
point $-1 -68.158818323313085 -7.8899501599109936 3.1591890834379033 #
edge $-1 $556 1 $556 0 $291 $-1 forward 7 unknown #
vertex $-1 $292 $557 #
ellipse-curve $-1 -65.008253084494456 -15.52171070506771 5.1338570124316663 -0.80901700255871778 0 0.5877852410284794 0.2938926205142397 0 0.40450850127935889 1 I I #
point $-1 -65.83742183325073 -15.52171070506771 6.3543173361556162 #
edge $-1 $558 1 $558 0 $295 $-1 forward 7 unknown #
vertex $-1 $296 $559 #
ellipse-curve $-1 -65.008253084494456 -10.942654377973678 5.1338570124316663 -0.80901700255871778 0 0.5877852410284794 0.2938926205142397 0 0.40450850127935889 1 I I #
point $-1 -65.83742183325073 -10.942654377973678 6.3543173361556162 #
plane-surface $-1 -68.158818323313085 0 0 1 0 0 0 0 -1 forward_v I I I I #
coedge $-1 $458 $457 $450 $560 forward $300 $-1 #
coedge $-1 $450 $302 $304 $454 reversed $184 $-1 #
coedge $-1 $302 $449 $448 $560 reversed $184 $-1 #
coedge $-1 $310 $305 $302 $452 forward $311 $-1 #
edge $-1 $455 -38.483152914665979 $561 -32.901913411789302 $451 $562 forward 7 unknown #
coedge $-1 $304 $303 $458 $563 reversed $115 $-1 #
edge $-1 $564 -6.8987913544766064 $455 2.4161062406544664e-014 $449 $565 forward 7 unknown #
vertex $-1 $306 $566 #
straight-curve $-1 -68.158818323313085 6.6160912707603448 3.1591890834379197 0 -1 0 I I #
coedge $-1 $448 $307 $310 $462 forward $300 $-1 #
coedge $-1 $307 $448 $453 $563 forward $300 $-1 #
vertex $-1 $308 $567 #
straight-curve $-1 -89.221052059527494 18.574414923130391 8.7404285863145788 -1 0 0 I I #
straight-curve $-1 -68.158818323313071 18.574414923130391 3.1591890834379228 0.5877852410284794 0 0.80901700255871778 I I #
edge $-1 $312 -18.574414923130391 $561 -7.8899501599109865 $310 $568 forward 7 unknown #
point $-1 -68.158818323313085 18.574414923130391 8.7404285863145805 #
point $-1 -68.158818323313085 18.574414923130391 3.1591890834379033 #
edge $-1 $569 1 $569 0 $315 $-1 forward 7 unknown #
vertex $-1 $316 $570 #
ellipse-curve $-1 -65.008253084494456 10.942654377973678 5.1338570124316663 -0.80901700255871778 0 0.5877852410284794 0.2938926205142397 0 0.40450850127935889 1 I I #
point $-1 -65.83742183325073 10.942654377973678 6.3543173361556162 #
edge $-1 $571 1 $571 0 $319 $-1 forward 7 unknown #
vertex $-1 $320 $572 #
ellipse-curve $-1 -65.008253084494456 15.521710705067708 5.1338570124316663 -0.80901700255871778 0 0.5877852410284794 0.2938926205142397 0 0.40450850127935889 1 I I #
point $-1 -65.83742183325073 15.521710705067708 6.3543173361556162 #
plane-surface $-1 68.158818323313085 0 0 -1 0 0 0 0 1 forward_v I I I I #
coedge $-1 $484 $483 $476 $573 forward $324 $-1 #
coedge $-1 $476 $326 $328 $480 reversed $206 $-1 #
coedge $-1 $326 $475 $474 $573 reversed $206 $-1 #
coedge $-1 $334 $329 $326 $478 forward $335 $-1 #
edge $-1 $481 -91.96918272582856 $574 -87.859883924945237 $477 $575 forward 7 unknown #
coedge $-1 $328 $327 $484 $576 reversed $129 $-1 #
edge $-1 $577 131.4178596439219 $481 136.31763664662617 $475 $578 forward 7 unknown #
vertex $-1 $330 $579 #
straight-curve $-1 68.158818323313085 -9.048413649915453 4.6311297854312485 0 1 0 I I #
coedge $-1 $474 $331 $334 $488 forward $324 $-1 #
coedge $-1 $331 $474 $479 $576 forward $324 $-1 #
vertex $-1 $332 $580 #
straight-curve $-1 54.120252381646679 -21.875879485051335 8.7404285863145788 1 0 0 I I #
straight-curve $-1 -6.0850860752409659 -21.875879485051335 118.95672062396558 -0.54463902268945019 0 0.83867057594974714 I I #
edge $-1 $336 -21.875879485051335 $574 -14.317775114610477 $334 $581 forward 7 unknown #
point $-1 68.158818323313085 -21.875879485051335 8.7404285863145805 #
point $-1 68.158818323313085 -21.875879485051335 4.6311297854312556 #
edge $-1 $582 1 $582 0 $339 $-1 forward 7 unknown #
vertex $-1 $340 $583 #
ellipse-curve $-1 65.985842868288799 -18.096827299830906 6.141140163183473 0.83867057594974714 0 0.54463902268945019 0.2723195113447251 0 -0.41933528797487357 1 I I #
point $-1 67.096832955583281 -18.096827299830906 6.2664438978980499 #
plane-surface $-1 68.158818323313085 0 0 -1 0 0 0 0 1 forward_v I I I I #
coedge $-1 $348 $346 $350 $500 reversed $221 $-1 #
edge $-1 $361 -8.7404285863145805 $502 8.7404285863145805 $360 $584 forward 7 unknown #
vertex $-1 $500 $585 #
straight-curve $-1 -68.158818323313085 -29.395219489661283 0 0 0 -1 I I #
edge $-1 $498 -29.395219489661283 $502 29.395219489661283 $496 $586 forward 7 unknown #
straight-curve $-1 0 -29.395219489661283 -8.7404285863145805 -1 0 0 I I #
vertex $-1 $353 $587 #
straight-curve $-1 0 29.395219489661283 -8.7404285863145805 1 0 0 I I #
point $-1 68.158818323313085 29.395219489661283 -8.7404285863145805 #
point $-1 68.158818323313085 -29.395219489661283 -8.7404285863145805 #
straight-curve $-1 -68.158818323313085 0 8.7404285863145805 0 -1 0 I I #
point $-1 -68.158818323313085 29.395219489661283 8.7404285863145805 #
point $-1 -68.158818323313085 -29.395219489661283 8.7404285863145805 #
straight-curve $-1 68.158818323313085 -29.395219489661283 0 0 0 -1 I I #
straight-curve $-1 68.158818323313085 29.395219489661283 0 0 0 -1 I I #
plane-surface $-1 68.158818323313085 0 0 -1 0 0 0 0 1 forward_v I I I I #
coedge $-1 $515 $373 $384 $524 forward $240 $-1 #
coedge $-1 $373 $515 $387 $526 reversed $240 $-1 #
straight-curve $-1 68.158818323313085 -21.875879485051335 -1.6370346745723312 0 0 1 I I #
coedge $-1 $513 $512 $376 $516 forward $240 $-1 #
edge $-1 $519 9.0581047413731817 $517 16.577444745983126 $515 $588 forward 7 unknown #
vertex $-1 $378 $589 #
straight-curve $-1 0 -29.395219489661283 -4.7740693491446624 1 0 0 I I #
vertex $-1 $516 $590 #
straight-curve $-1 0 -21.875879485051335 -4.7740693491446624 1 0 0 I I #
point $-1 68.158818323313085 -29.39521948966128 -4.7740693491446624 #
point $-1 68.158818323313085 -21.875879485051335 -4.7740693491446624 #
straight-curve $-1 -68.158818323313085 -12.817774743678154 -1.7740693491446624 0 1 0 I I #
edge $-1 $385 0.13703467457233121 $519 3.1370346745723312 $512 $591 forward 7 unknown #
point $-1 -68.158818323313085 -21.875879485051335 -1.7740693491446624 #
edge $-1 $389 1.7740693491446624 $517 4.7740693491446624 $513 $592 forward 7 unknown #
point $-1 -68.158818323313085 -29.39521948966128 -1.7740693491446624 #
straight-curve $-1 68.158818323313085 -29.395219489661283 0 0 0 -1 I I #
plane-surface $-1 0 29.395219489661283 0 0 -1 0 0 0 -1 forward_v I I I I #
coedge $-1 $398 $539 $400 $533 forward $395 $-1 #
vertex $-1 $533 $593 #
straight-curve $-1 -68.158818323313085 21.875879485051328 -1.6370346745723312 0 0 1 I I #
edge $-1 $535 -16.577444745983129 $531 -9.0581047413731763 $530 $594 forward 7 unknown #
straight-curve $-1 0 21.875879485051328 -4.7740693491446624 -1 0 0 I I #
vertex $-1 $403 $595 #
straight-curve $-1 0 29.395219489661283 -4.7740693491446624 -1 0 0 I I #
point $-1 68.158818323313085 21.875879485051328 -4.7740693491446624 #
point $-1 68.158818323313085 29.39521948966128 -4.7740693491446624 #
coedge $-1 $530 $407 $410 $541 forward $395 $-1 #
straight-curve $-1 -68.158818323313085 12.817774743678152 -1.7740693491446624 0 1 0 I I #
edge $-1 $412 1.7740693491446624 $535 4.7740693491446624 $410 $596 forward 7 unknown #
point $-1 -68.158818323313085 29.39521948966128 -1.7740693491446624 #
point $-1 -68.158818323313085 21.875879485051328 -1.7740693491446624 #
straight-curve $-1 68.158818323313085 21.875879485051328 -1.6370346745723312 0 0 -1 I I #
straight-curve $-1 68.158818323313085 29.395219489661283 0 0 0 -1 I I #
coedge $-1 $432 $431 $424 $547 forward $421 $-1 #
edge $-1 $548 21.062233736214409 $551 25.117241475310649 $546 $597 forward 7 unknown #
vertex $-1 $547 $598 #
straight-curve $-1 -68.158818323313085 -18.574414923130398 41.64234199810388 0 0 1 I I #
edge $-1 $551 -11.95832365237005 $433 -1.2738588891506453 $432 $599 forward 7 unknown #
vertex $-1 $550 $600 #
straight-curve $-1 -68.158818323313071 -18.574414923130398 3.1591890834379228 -0.5877852410284794 0 -0.80901700255871778 I I #
point $-1 -68.158818323313085 -18.574414923130398 3.1591890834379033 #
point $-1 -64.103810584216845 -7.8899501599109936 8.7404285863145805 #
straight-curve $-1 -68.158818323313085 0 8.7404285863145805 0 -1 0 I I #
vertex $-1 $439 $601 #
point $-1 -64.714360463980213 -15.52171070506771 5.5383655137110246 #
vertex $-1 $443 $602 #
point $-1 -64.714360463980213 -10.942654377973678 5.5383655137110246 #
edge $-1 $561 21.062233736214409 $564 25.117241475310649 $448 $603 forward 7 unknown #
vertex $-1 $560 $604 #
straight-curve $-1 -68.158818323313085 7.8899501599109865 41.64234199810388 0 0 1 I I #
edge $-1 $564 1.2738588891506417 $459 11.958323652370046 $458 $605 forward 7 unknown #
vertex $-1 $563 $606 #
straight-curve $-1 -68.158818323313071 7.8899501599109865 3.1591890834379228 -0.5877852410284794 0 -0.80901700255871778 I I #
point $-1 -68.158818323313085 7.8899501599109865 3.1591890834379033 #
point $-1 -64.103810584216845 18.574414923130391 8.7404285863145805 #
straight-curve $-1 -68.158818323313085 0 8.7404285863145805 0 -1 0 I I #
vertex $-1 $465 $607 #
point $-1 -64.714360463980213 10.942654377973678 5.5383655137110246 #
vertex $-1 $469 $608 #
point $-1 -64.714360463980213 15.521710705067708 5.5383655137110246 #
edge $-1 $574 -14.038565941666405 $577 -11.369956183517317 $474 $609 forward 7 unknown #
vertex $-1 $478 $610 #
straight-curve $-1 68.158818323313085 -14.317775114610477 96.600312511259816 0 0 1 I I #
edge $-1 $577 5.2693614646950238 $485 12.827465835135882 $484 $611 forward 7 unknown #
vertex $-1 $576 $612 #
straight-curve $-1 -6.0850860752409659 -14.317775114610477 118.95672062396558 0.54463902268945019 0 -0.83867057594974714 I I #
point $-1 68.158818323313085 -14.317775114610477 4.6311297854312556 #
point $-1 65.490208565163996 -21.875879485051335 8.7404285863145645 #
straight-curve $-1 68.158818323313085 0 8.7404285863145805 0 1 0 I I #
vertex $-1 $491 $613 #
point $-1 66.258162379633532 -18.096827299830906 5.7218048752085995 #
straight-curve $-1 -68.158818323313085 29.395219489661283 0 0 0 -1 I I #
point $-1 -68.158818323313085 -29.395219489661283 -8.7404285863145805 #
straight-curve $-1 -68.158818323313085 0 -8.7404285863145805 0 1 0 I I #
point $-1 -68.158818323313085 29.395219489661283 -8.7404285863145805 #
straight-curve $-1 -68.158818323313085 -12.817774743678154 -4.7740693491446624 0 -1 0 I I #
point $-1 -68.158818323313085 -29.39521948966128 -4.7740693491446624 #
point $-1 -68.158818323313085 -21.875879485051335 -4.7740693491446624 #
straight-curve $-1 -68.158818323313085 -21.875879485051335 -1.6370346745723312 0 0 -1 I I #
straight-curve $-1 -68.158818323313085 -29.395219489661283 0 0 0 -1 I I #
point $-1 -68.158818323313085 21.875879485051328 -4.7740693491446624 #
straight-curve $-1 -68.158818323313085 12.817774743678152 -4.7740693491446624 0 -1 0 I I #
point $-1 -68.158818323313085 29.39521948966128 -4.7740693491446624 #
straight-curve $-1 -68.158818323313085 29.395219489661283 0 0 0 -1 I I #
straight-curve $-1 -89.221052059527494 -18.574414923130398 8.7404285863145788 1 0 0 I I #
point $-1 -68.158818323313085 -18.574414923130398 8.7404285863145805 #
straight-curve $-1 -64.103810584216859 -6.6160912707603483 8.7404285863145805 0 1 0 I I #
point $-1 -64.103810584216845 -18.574414923130398 8.7404285863145805 #
point $-1 -64.603744583215089 -15.52171070506771 4.8399643919174258 #
point $-1 -64.603744583215089 -10.942654377973678 4.8399643919174258 #
straight-curve $-1 -89.221052059527494 7.8899501599109865 8.7404285863145788 1 0 0 I I #
point $-1 -68.158818323313085 7.8899501599109865 8.7404285863145805 #
straight-curve $-1 -64.103810584216859 6.6160912707603448 8.7404285863145805 0 1 0 I I #
point $-1 -64.103810584216845 7.8899501599109865 8.7404285863145805 #
point $-1 -64.603744583215089 10.942654377973678 4.8399643919174258 #
point $-1 -64.603744583215089 15.521710705067708 4.8399643919174258 #
straight-curve $-1 54.120252381646679 -14.317775114610477 8.7404285863145788 -1 0 0 I I #
point $-1 68.158818323313085 -14.317775114610477 8.7404285863145805 #
straight-curve $-1 65.490208565163996 -9.048413649915453 8.7404285863145788 0 -1 0 I I #
point $-1 65.490208565163996 -14.317775114610477 8.7404285863145645 #
point $-1 65.566507580313939 -18.096827299830906 5.8688206518387487 #
End-of-ACIS-data 