500 0 7 0           
7 Unknown 11 ACIS 5.0 NT 24 Fri Mar 26 18:02:58 1999 
-1 9.9999999999999995e-007 1e-010 
body $-1 $7 $-1 $8 #
body $-1 $9 $-1 $10 #
body $-1 $11 $-1 $12 #
body $-1 $13 $-1 $14 #
body $-1 $15 $-1 $16 #
body $-1 $17 $-1 $18 #
body $-1 $19 $-1 $20 #
lump $-1 $-1 $21 $0 #
transform $-1 1 0 0 0 1 0 0 0 1 76.273079622791215 44.138386440608073 10.803377577816731 1 rotate no_reflect no_shear #
lump $-1 $-1 $22 $1 #
transform $-1 1 0 0 0 1 0 0 0 1 76.273079622791215 44.138386440608073 10.803377577816731 1 rotate no_reflect no_shear #
lump $-1 $-1 $23 $2 #
transform $-1 1 0 0 0 1 0 0 0 1 76.273079622791215 44.138386440608073 10.803377577816731 1 rotate no_reflect no_shear #
lump $-1 $-1 $24 $3 #
transform $-1 1 0 0 0 1 0 0 0 1 76.273079622791215 44.138386440608073 10.803377577816731 1 rotate no_reflect no_shear #
lump $-1 $-1 $25 $4 #
transform $-1 1 0 0 0 1 0 0 0 1 76.273079622791215 44.138386440608073 10.803377577816731 1 rotate no_reflect no_shear #
lump $-1 $-1 $26 $5 #
transform $-1 1 0 0 0 1 0 0 0 1 76.273079622791215 44.138386440608073 10.803377577816731 1 rotate no_reflect no_shear #
lump $-1 $-1 $27 $6 #
transform $-1 1 0 0 0 1 0 0 0 1 76.273079622791215 44.138386440608073 10.803377577816731 1 rotate no_reflect no_shear #
shell $-1 $-1 $-1 $28 $-1 $7 #
shell $-1 $-1 $-1 $29 $-1 $9 #
shell $-1 $-1 $-1 $30 $-1 $11 #
shell $-1 $-1 $-1 $31 $-1 $13 #
shell $-1 $-1 $-1 $32 $-1 $15 #
shell $-1 $-1 $-1 $33 $-1 $17 #
shell $-1 $-1 $-1 $34 $-1 $19 #
face $-1 $35 $36 $21 $-1 $37 forward single #
face $-1 $38 $39 $22 $-1 $40 forward single #
face $-1 $41 $42 $23 $-1 $43 reversed single #
face $-1 $44 $45 $24 $-1 $46 forward single #
face $-1 $47 $48 $25 $-1 $49 forward single #
face $-1 $50 $51 $26 $-1 $52 reversed single #
face $-1 $53 $54 $27 $-1 $55 forward single #
face $-1 $56 $57 $21 $-1 $58 reversed single #
loop $-1 $-1 $59 $28 #
plane-surface $-1 0 0 10.803377577816731 0 0 1 1 0 0 forward_v I I I I #
face $-1 $60 $61 $22 $-1 $62 reversed single #
loop $-1 $-1 $63 $29 #
plane-surface $-1 0 -44.138386440608073 0 0 1 0 0 0 1 forward_v I I I I #
face $-1 $64 $65 $23 $-1 $66 reversed single #
loop $-1 $-1 $67 $30 #
plane-surface $-1 106.29729187885462 12.921848680869058 219.74206994814671 0 -1 0 -0.79863551827123203 0 -0.60181501223851219 forward_v I I I I #
face $-1 $68 $69 $24 $-1 $70 forward single #
loop $-1 $71 $72 $31 #
cone-surface $-1 73.645184076489656 -1.1146790236451736 7.8087033829489956 -0.79863551827123203 0 -0.60181501223851219 0.60181501223851219 0 -0.79863551827123203 1 I I 0 1 1 forward I I I I #
face $-1 $73 $74 $25 $-1 $75 forward single #
loop $-1 $76 $77 $32 #
cone-surface $-1 73.645184076489656 7.3072375990633631 7.8087033829489956 -0.79863551827123203 0 -0.60181501223851219 0.60181501223851219 0 -0.79863551827123203 1 I I 0 1 1 forward I I I I #
face $-1 $78 $79 $26 $-1 $80 reversed single #
loop $-1 $-1 $81 $33 #
plane-surface $-1 -201.23157905802839 -20.857786256372684 95.060205572739733 0 1 0 -0.81915205242281985 0 0.57357642473473569 forward_v I I I I #
face $-1 $82 $83 $27 $-1 $84 forward single #
loop $-1 $85 $86 $34 #
cone-surface $-1 -74.632595447028251 -14.178709857529721 8.8289555312365451 0.81915205242281985 0 -0.57357642473473569 0.28678821236736785 0 0.40957602621140993 1 I I 0 1 0.5 forward I I I I #
face $-1 $87 $88 $21 $-1 $89 reversed single #
loop $-1 $-1 $90 $35 #
plane-surface $-1 0 0 -10.803377577816731 0 0 1 1 0 0 forward_v I I I I #
coedge $-1 $91 $92 $93 $94 forward $36 $-1 #
face $-1 $95 $96 $22 $-1 $97 reversed single #
loop $-1 $-1 $98 $38 #
plane-surface $-1 0 0 -10.803377577816731 0 0 1 1 0 0 forward_v I I I I #
coedge $-1 $99 $100 $101 $102 forward $39 $-1 #
face $-1 $103 $104 $23 $-1 $105 reversed single #
loop $-1 $-1 $106 $41 #
plane-surface $-1 -15.531489070527002 3.0962792877090948 127.93750125482849 0.79863551827123203 0 0.60181501223851219 0.60181501223851219 0 -0.79863551827123203 forward_v I I I I #
coedge $-1 $107 $108 $109 $110 reversed $42 $-1 #
face $-1 $-1 $111 $24 $-1 $112 forward single #
loop $-1 $113 $114 $44 #
cone-surface $-1 72.386809721480518 -1.1146790236451736 6.8604503181469614 -0.79863551827123203 0 -0.60181501223851219 0.3009075061192561 0 -0.39931775913561601 1 I I -0.70710678118654746 0.70710678118654746 0.5 forward I I I I #
loop $-1 $-1 $115 $31 #
coedge $-1 $72 $72 $116 $117 reversed $45 $-1 #
face $-1 $-1 $118 $25 $-1 $119 forward single #
loop $-1 $120 $121 $47 #
cone-surface $-1 72.386809721480518 7.3072375990633631 6.8604503181469614 -0.79863551827123203 0 -0.60181501223851219 0.3009075061192561 0 -0.39931775913561601 1 I I -0.70710678118654746 0.70710678118654746 0.5 forward I I I I #
loop $-1 $-1 $122 $32 #
coedge $-1 $77 $77 $123 $124 reversed $48 $-1 #
face $-1 $125 $126 $26 $-1 $127 reversed single #
loop $-1 $-1 $128 $50 #
plane-surface $-1 -76.273079622791229 -14.178709857529721 7.5633249456429184 -0.81915205242281985 0 0.57357642473473569 0.57357642473473569 0 0.81915205242281985 forward_v I I I I #
coedge $-1 $129 $130 $131 $132 reversed $51 $-1 #
face $-1 $-1 $133 $27 $-1 $134 forward single #
loop $-1 $135 $136 $53 #
cone-surface $-1 -73.921677862544655 -14.178709857529721 8.3311656945595818 0.81915205242281985 0 -0.57357642473473569 0.14339410618368392 0 0.20478801310570496 1 I I -0.70710678118654746 0.70710678118654746 0.25 forward I I I I #
loop $-1 $-1 $137 $34 #
coedge $-1 $86 $86 $138 $139 reversed $54 $-1 #
face $-1 $140 $141 $21 $-1 $142 reversed single #
loop $-1 $-1 $143 $56 #
plane-surface $-1 0 -44.138386440608073 0 0 1 0 0 0 1 forward_v I I I I #
coedge $-1 $144 $145 $146 $147 forward $57 $-1 #
coedge $-1 $148 $59 $149 $150 forward $36 $-1 #
coedge $-1 $59 $148 $151 $152 forward $36 $-1 #
coedge $-1 $153 $154 $59 $94 reversed $155 $-1 #
edge $-1 $156 -44.138386440608073 $157 44.138386440608073 $93 $158 forward 7 unknown #
face $-1 $159 $160 $22 $-1 $161 reversed single #
loop $-1 $-1 $162 $60 #
plane-surface $-1 -57.447995547399522 -56.9992161247025 0 0 1 0 0 0 1 forward_v I I I I #
coedge $-1 $163 $164 $100 $165 forward $61 $-1 #
coedge $-1 $166 $63 $167 $168 reversed $39 $-1 #
coedge $-1 $63 $166 $98 $165 reversed $39 $-1 #
coedge $-1 $169 $170 $63 $102 reversed $160 $-1 #
edge $-1 $171 -10.803377577816731 $172 10.803377577816731 $101 $173 forward 7 unknown #
face $-1 $174 $175 $23 $-1 $176 forward single #
loop $-1 $-1 $177 $64 #
plane-surface $-1 106.29729187885462 -6.7292901054508683 219.74206994814671 0 1 0 0.79863551827123203 0 0.60181501223851219 forward_v I I I I #
coedge $-1 $178 $179 $180 $181 reversed $65 $-1 #
coedge $-1 $108 $67 $182 $183 reversed $42 $-1 #
coedge $-1 $67 $107 $178 $184 reversed $42 $-1 #
coedge $-1 $180 $185 $67 $110 forward $175 $-1 #
edge $-1 $186 -23.124433683363904 $187 -19.586755782507808 $109 $188 forward 7 unknown #
loop $-1 $-1 $116 $68 #
plane-surface $-1 -15.531489070527002 3.0962792877090948 127.93750125482849 0.79863551827123203 0 0.60181501223851219 0.60181501223851219 0 -0.79863551827123203 forward_v I I I I #
loop $-1 $-1 $189 $44 #
coedge $-1 $114 $114 $115 $190 reversed $69 $-1 #
coedge $-1 $115 $115 $114 $190 forward $71 $-1 #
coedge $-1 $116 $116 $72 $117 forward $111 $-1 #
edge $-1 $191 0 $191 6.2831853071796004 $116 $192 forward 7 unknown #
loop $-1 $-1 $123 $73 #
plane-surface $-1 -15.531489070527002 3.0962792877090948 127.93750125482849 0.79863551827123203 0 0.60181501223851219 0.60181501223851219 0 -0.79863551827123203 forward_v I I I I #
loop $-1 $-1 $193 $47 #
coedge $-1 $121 $121 $122 $194 reversed $74 $-1 #
coedge $-1 $122 $122 $121 $194 forward $76 $-1 #
coedge $-1 $123 $123 $77 $124 forward $118 $-1 #
edge $-1 $195 0 $195 6.2831853071796004 $123 $196 forward 7 unknown #
face $-1 $197 $198 $26 $-1 $199 reversed single #
loop $-1 $-1 $200 $78 #
plane-surface $-1 -201.23157905802839 -7.499633458686759 95.060205572739733 0 -1 0 0.81915205242281985 0 -0.57357642473473569 forward_v I I I I #
coedge $-1 $201 $202 $203 $204 reversed $79 $-1 #
coedge $-1 $130 $81 $205 $206 reversed $51 $-1 #
coedge $-1 $81 $129 $201 $207 reversed $51 $-1 #
coedge $-1 $203 $208 $81 $132 forward $209 $-1 #
edge $-1 $210 24.342709906222979 $211 26.611419114993126 $131 $212 forward 7 unknown #
loop $-1 $-1 $138 $82 #
plane-surface $-1 -76.273079622791229 -14.178709857529721 7.5633249456429184 -0.81915205242281985 0 0.57357642473473569 0.57357642473473569 0 0.81915205242281985 forward_v I I I I #
loop $-1 $-1 $213 $53 #
coedge $-1 $136 $136 $137 $214 reversed $83 $-1 #
coedge $-1 $137 $137 $136 $214 forward $85 $-1 #
coedge $-1 $138 $138 $86 $139 forward $133 $-1 #
edge $-1 $215 0 $215 6.2831853071796004 $138 $216 forward 7 unknown #
face $-1 $217 $218 $21 $-1 $219 reversed single #
loop $-1 $-1 $220 $87 #
plane-surface $-1 -76.273079622791215 0 0 1 0 0 0 0 -1 forward_v I I I I #
coedge $-1 $221 $151 $222 $223 forward $88 $-1 #
coedge $-1 $224 $90 $221 $225 forward $57 $-1 #
coedge $-1 $90 $224 $226 $227 forward $57 $-1 #
coedge $-1 $154 $153 $90 $147 reversed $155 $-1 #
edge $-1 $228 -44.138386440608073 $229 44.138386440608073 $146 $230 forward 7 unknown #
coedge $-1 $92 $91 $231 $232 forward $36 $-1 #
coedge $-1 $233 $234 $91 $150 reversed $218 $-1 #
edge $-1 $157 -76.273079622791215 $235 76.273079622791215 $149 $236 forward 7 unknown #
coedge $-1 $143 $237 $92 $152 reversed $88 $-1 #
edge $-1 $238 -76.273079622791215 $156 76.273079622791215 $151 $239 forward 7 unknown #
coedge $-1 $146 $93 $237 $240 forward $155 $-1 #
coedge $-1 $93 $146 $233 $241 reversed $155 $-1 #
loop $-1 $-1 $153 $217 #
vertex $-1 $94 $242 #
vertex $-1 $94 $243 #
straight-curve $-1 76.273079622791215 0 10.803377577816731 0 1 0 I I #
face $-1 $244 $245 $22 $-1 $246 reversed single #
loop $-1 $-1 $101 $95 #
plane-surface $-1 -60.229666627641286 -50.568801282655286 0 1 0 0 0 0 -1 forward_v I I I I #
coedge $-1 $247 $248 $249 $250 forward $96 $-1 #
coedge $-1 $251 $98 $252 $253 forward $61 $-1 #
coedge $-1 $98 $251 $169 $254 forward $61 $-1 #
edge $-1 $171 -60.229666627641286 $255 -54.666324467157757 $98 $256 forward 7 unknown #
coedge $-1 $100 $99 $257 $258 forward $39 $-1 #
coedge $-1 $259 $260 $99 $168 forward $261 $-1 #
edge $-1 $262 54.666324467157757 $172 60.229666627641286 $167 $263 forward 7 unknown #
coedge $-1 $249 $101 $164 $254 reversed $160 $-1 #
coedge $-1 $101 $249 $259 $264 reversed $160 $-1 #
vertex $-1 $165 $265 #
vertex $-1 $264 $266 #
straight-curve $-1 -60.229666627641286 -44.138386440608073 0 0 0 1 I I #
face $-1 $-1 $267 $23 $-1 $268 reversed single #
loop $-1 $-1 $109 $103 #
plane-surface $-1 0 0 10.803377577816731 0 0 1 1 0 0 forward_v I I I I #
coedge $-1 $269 $270 $271 $272 reversed $104 $-1 #
coedge $-1 $273 $106 $108 $184 forward $65 $-1 #
coedge $-1 $106 $273 $269 $274 forward $65 $-1 #
coedge $-1 $271 $109 $106 $181 forward $175 $-1 #
edge $-1 $187 -11.37370903701451 $275 8.2774297493054156 $180 $276 forward 7 unknown #
coedge $-1 $277 $278 $107 $183 forward $267 $-1 #
edge $-1 $279 -103.76231466862649 $186 -99.067657396256621 $182 $280 forward 7 unknown #
edge $-1 $187 146.66781153255789 $279 152.54615924558243 $108 $281 forward 7 unknown #
coedge $-1 $109 $271 $277 $282 forward $175 $-1 #
vertex $-1 $110 $283 #
vertex $-1 $110 $284 #
straight-curve $-1 53.148645939427311 12.921848680869058 10.803377577816732 -1 0 0 I I #
coedge $-1 $189 $189 $-1 $285 reversed $113 $-1 #
edge $-1 $286 0 $286 6.2831853071796004 $114 $287 forward 7 unknown #
vertex $-1 $117 $288 #
ellipse-curve $-1 74.504240672363196 -1.1146790236451736 8.4560489416317814 0.79863551827123203 0 0.60181501223851219 0.60181501223851219 0 -0.79863551827123203 1 I I #
coedge $-1 $193 $193 $-1 $289 reversed $120 $-1 #
edge $-1 $290 0 $290 6.2831853071796004 $121 $291 forward 7 unknown #
vertex $-1 $124 $292 #
ellipse-curve $-1 74.504240672363196 7.3072375990633631 8.4560489416317814 0.79863551827123203 0 0.60181501223851219 0.60181501223851219 0 -0.79863551827123203 1 I I #
face $-1 $-1 $209 $26 $-1 $293 forward single #
loop $-1 $-1 $294 $125 #
plane-surface $-1 -76.273079622791215 0 0 1 0 0 0 0 -1 forward_v I I I I #
coedge $-1 $295 $296 $297 $298 reversed $126 $-1 #
coedge $-1 $299 $128 $130 $207 forward $79 $-1 #
coedge $-1 $128 $299 $295 $300 forward $79 $-1 #
coedge $-1 $297 $131 $128 $204 forward $209 $-1 #
edge $-1 $211 -13.768431327607823 $301 -0.41027852992189828 $203 $302 forward 7 unknown #
coedge $-1 $303 $304 $129 $206 forward $198 $-1 #
edge $-1 $305 -39.966777840726927 $210 -36.726725208553134 $205 $306 forward 7 unknown #
edge $-1 $211 -3.9553738803322984 $305 -2.4884734274515653e-014 $130 $307 forward 7 unknown #
coedge $-1 $131 $297 $303 $308 forward $209 $-1 #
loop $-1 $-1 $297 $197 #
vertex $-1 $206 $309 #
vertex $-1 $132 $310 #
straight-curve $-1 -100.61578952901419 -20.857786256372684 10.803377577816732 1 0 0 I I #
coedge $-1 $213 $213 $-1 $311 reversed $135 $-1 #
edge $-1 $312 0 $312 6.2831853071796004 $136 $313 forward 7 unknown #
vertex $-1 $139 $314 #
ellipse-curve $-1 -75.138725018406149 -14.178709857529721 9.183351261729829 -0.81915205242281985 0 0.57357642473473569 0.28678821236736785 0 0.40957602621140993 1 I I #
face $-1 $-1 $155 $21 $-1 $315 reversed single #
loop $-1 $-1 $233 $140 #
plane-surface $-1 0 44.138386440608073 0 0 -1 0 0 0 -1 forward_v I I I I #
coedge $-1 $316 $231 $234 $317 forward $141 $-1 #
coedge $-1 $237 $143 $144 $225 reversed $88 $-1 #
coedge $-1 $231 $316 $143 $223 reversed $141 $-1 #
edge $-1 $238 -10.803377577816731 $318 10.803377577816731 $222 $319 forward 7 unknown #
coedge $-1 $145 $144 $316 $320 forward $57 $-1 #
edge $-1 $229 -76.273079622791215 $318 76.273079622791215 $221 $321 forward 7 unknown #
coedge $-1 $234 $233 $145 $227 reversed $218 $-1 #
edge $-1 $322 -76.273079622791215 $228 76.273079622791215 $226 $323 forward 7 unknown #
vertex $-1 $147 $324 #
vertex $-1 $240 $325 #
straight-curve $-1 76.273079622791215 0 -10.803377577816731 0 -1 0 I I #
coedge $-1 $220 $222 $148 $232 reversed $141 $-1 #
edge $-1 $235 -44.138386440608073 $238 44.138386440608073 $231 $326 forward 7 unknown #
coedge $-1 $226 $149 $154 $241 forward $218 $-1 #
coedge $-1 $149 $226 $220 $317 reversed $218 $-1 #
vertex $-1 $150 $327 #
straight-curve $-1 0 44.138386440608073 10.803377577816731 -1 0 0 I I #
coedge $-1 $151 $221 $153 $240 reversed $88 $-1 #
vertex $-1 $232 $328 #
straight-curve $-1 0 -44.138386440608073 10.803377577816731 1 0 0 I I #
edge $-1 $156 -10.803377577816731 $229 10.803377577816731 $153 $329 forward 7 unknown #
edge $-1 $157 -10.803377577816731 $228 10.803377577816731 $154 $330 forward 7 unknown #
point $-1 76.273079622791215 -44.138386440608073 10.803377577816731 #
point $-1 76.273079622791215 44.138386440608073 10.803377577816731 #
face $-1 $-1 $261 $22 $-1 $331 forward single #
loop $-1 $-1 $332 $159 #
plane-surface $-1 -54.666324467157757 -50.568801282655286 0 -1 0 0 0 0 1 forward_v I I I I #
coedge $-1 $333 $162 $251 $334 reversed $96 $-1 #
coedge $-1 $162 $333 $335 $336 reversed $96 $-1 #
coedge $-1 $170 $169 $162 $250 reversed $160 $-1 #
edge $-1 $337 -10.803377577816731 $338 10.803377577816731 $249 $339 forward 7 unknown #
coedge $-1 $164 $163 $247 $334 forward $61 $-1 #
coedge $-1 $257 $332 $163 $253 reversed $245 $-1 #
edge $-1 $255 -6.4304148420472131 $340 6.4304148420472131 $252 $341 forward 7 unknown #
edge $-1 $338 -6.4304148420472131 $171 6.4304148420472131 $169 $342 forward 7 unknown #
vertex $-1 $253 $343 #
straight-curve $-1 0 -44.138386440608073 -10.803377577816731 1 0 0 I I #
coedge $-1 $344 $252 $166 $258 reversed $245 $-1 #
edge $-1 $262 -10.803377577816731 $255 10.803377577816731 $257 $345 forward 7 unknown #
coedge $-1 $335 $167 $170 $264 forward $261 $-1 #
coedge $-1 $167 $335 $344 $346 forward $261 $-1 #
loop $-1 $-1 $167 $244 #
vertex $-1 $168 $347 #
straight-curve $-1 0 -44.138386440608073 10.803377577816731 -1 0 0 I I #
edge $-1 $172 -6.4304148420472131 $337 6.4304148420472131 $170 $348 forward 7 unknown #
point $-1 -60.229666627641286 -44.138386440608073 -10.803377577816731 #
point $-1 -60.229666627641286 -44.138386440608073 10.803377577816731 #
loop $-1 $-1 $182 $174 #
plane-surface $-1 76.273079622791215 0 0 -1 0 0 0 0 1 forward_v I I I I #
coedge $-1 $270 $177 $179 $274 reversed $104 $-1 #
coedge $-1 $177 $269 $349 $350 reversed $104 $-1 #
coedge $-1 $185 $180 $177 $272 forward $175 $-1 #
edge $-1 $275 19.586755782507808 $351 23.124433683363904 $271 $352 forward 7 unknown #
coedge $-1 $179 $178 $278 $353 reversed $65 $-1 #
edge $-1 $354 -152.54615924558243 $275 -146.66781153255789 $269 $355 forward 7 unknown #
vertex $-1 $181 $356 #
straight-curve $-1 72.735401721935133 1.5481396438545474 10.803377577816732 0 -1 0 I I #
coedge $-1 $349 $182 $185 $282 reversed $267 $-1 #
coedge $-1 $182 $349 $273 $353 forward $267 $-1 #
vertex $-1 $183 $357 #
straight-curve $-1 76.273079622791215 12.921848680869058 109.87103497407335 0 0 1 I I #
straight-curve $-1 -15.531489070527002 12.921848680869058 127.93750125482849 0.60181501223851219 0 -0.79863551827123203 I I #
edge $-1 $351 -6.7292901054508683 $186 12.921848680869058 $277 $358 forward 7 unknown #
point $-1 76.273079622791215 12.921848680869058 10.803377577816731 #
point $-1 72.735401721935119 12.921848680869058 10.803377577816732 #
edge $-1 $359 1 $359 0 $189 $-1 forward 7 unknown #
vertex $-1 $190 $360 #
ellipse-curve $-1 72.78612748061613 -1.1146790236451736 7.1613578242662177 0.79863551827123203 0 0.60181501223851219 0.60181501223851219 0 -0.79863551827123203 1 I I #
point $-1 75.106055684601699 -1.1146790236451736 7.6574134233605422 #
edge $-1 $361 1 $361 0 $193 $-1 forward 7 unknown #
vertex $-1 $194 $362 #
ellipse-curve $-1 72.78612748061613 7.3072375990633631 7.1613578242662177 0.79863551827123203 0 0.60181501223851219 0.60181501223851219 0 -0.79863551827123203 1 I I #
point $-1 75.106055684601699 7.3072375990633631 7.6574134233605422 #
plane-surface $-1 0 0 10.803377577816731 0 0 1 1 0 0 forward_v I I I I #
coedge $-1 $304 $303 $296 $363 forward $198 $-1 #
coedge $-1 $296 $200 $202 $300 reversed $126 $-1 #
coedge $-1 $200 $295 $294 $363 reversed $126 $-1 #
coedge $-1 $208 $203 $200 $298 forward $209 $-1 #
edge $-1 $301 -26.611419114993126 $364 -24.342709906222979 $297 $365 forward 7 unknown #
coedge $-1 $202 $201 $304 $366 reversed $79 $-1 #
edge $-1 $367 2.4884734274515653e-014 $301 3.9553738803322984 $295 $368 forward 7 unknown #
vertex $-1 $204 $369 #
straight-curve $-1 -74.004370414021082 -7.0893549287648607 10.803377577816731 0 1 0 I I #
coedge $-1 $294 $205 $208 $308 reversed $198 $-1 #
coedge $-1 $205 $294 $299 $366 forward $198 $-1 #
vertex $-1 $206 $370 #
straight-curve $-1 -76.273079622791215 -20.857786256372684 47.530102786369866 0 0 1 I I #
straight-curve $-1 -76.273079622791229 -20.857786256372684 7.5633249456429184 -0.57357642473473569 0 -0.81915205242281985 I I #
edge $-1 $364 7.499633458686759 $210 20.857786256372684 $303 $371 forward 7 unknown #
point $-1 -76.273079622791215 -20.857786256372684 10.803377577816731 #
point $-1 -74.004370414021068 -20.857786256372684 10.803377577816731 #
edge $-1 $372 1 $372 0 $213 $-1 forward 7 unknown #
vertex $-1 $214 $373 #
ellipse-curve $-1 -74.126465875650354 -14.178709857529721 8.4745598007432665 -0.81915205242281985 0 0.57357642473473569 0.28678821236736785 0 0.40957602621140993 1 I I #
point $-1 -74.851936806038765 -14.178709857529721 9.5929272879412331 #
plane-surface $-1 76.273079622791215 0 0 -1 0 0 0 0 1 forward_v I I I I #
coedge $-1 $222 $220 $224 $320 reversed $141 $-1 #
edge $-1 $235 -10.803377577816731 $322 10.803377577816731 $234 $374 forward 7 unknown #
vertex $-1 $320 $375 #
straight-curve $-1 -76.273079622791215 -44.138386440608073 0 0 0 -1 I I #
edge $-1 $318 -44.138386440608073 $322 44.138386440608073 $316 $376 forward 7 unknown #
straight-curve $-1 0 -44.138386440608073 -10.803377577816731 -1 0 0 I I #
vertex $-1 $227 $377 #
straight-curve $-1 0 44.138386440608073 -10.803377577816731 1 0 0 I I #
point $-1 76.273079622791215 44.138386440608073 -10.803377577816731 #
point $-1 76.273079622791215 -44.138386440608073 -10.803377577816731 #
straight-curve $-1 -76.273079622791215 0 10.803377577816731 0 -1 0 I I #
point $-1 -76.273079622791215 44.138386440608073 10.803377577816731 #
point $-1 -76.273079622791215 -44.138386440608073 10.803377577816731 #
straight-curve $-1 76.273079622791215 -44.138386440608073 0 0 0 -1 I I #
straight-curve $-1 76.273079622791215 44.138386440608073 0 0 0 -1 I I #
plane-surface $-1 0 0 10.803377577816731 0 0 1 1 0 0 forward_v I I I I #
coedge $-1 $252 $344 $333 $378 forward $245 $-1 #
coedge $-1 $248 $247 $332 $378 reversed $96 $-1 #
edge $-1 $340 -2.7816710802417646 $338 2.7816710802417646 $247 $379 forward 7 unknown #
coedge $-1 $260 $259 $248 $336 forward $261 $-1 #
edge $-1 $337 -2.7816710802417646 $380 2.7816710802417646 $248 $381 forward 7 unknown #
vertex $-1 $264 $382 #
vertex $-1 $254 $383 #
straight-curve $-1 -60.229666627641286 -56.9992161247025 0 0 0 -1 I I #
vertex $-1 $378 $384 #
straight-curve $-1 -54.666324467157757 -50.568801282655286 -10.803377577816731 0 -1 0 I I #
straight-curve $-1 -60.229666627641286 -50.568801282655286 -10.803377577816731 0 1 0 I I #
point $-1 -54.666324467157757 -44.138386440608073 -10.803377577816731 #
coedge $-1 $332 $257 $260 $346 reversed $245 $-1 #
straight-curve $-1 -54.666324467157757 -44.138386440608073 0 0 0 -1 I I #
edge $-1 $380 -6.4304148420472131 $262 6.4304148420472131 $344 $385 forward 7 unknown #
point $-1 -54.666324467157757 -44.138386440608073 10.803377577816731 #
straight-curve $-1 -60.229666627641286 -50.568801282655286 10.803377577816731 0 -1 0 I I #
coedge $-1 $278 $277 $270 $350 forward $267 $-1 #
edge $-1 $351 99.067657396256621 $354 103.76231466862649 $349 $386 forward 7 unknown #
vertex $-1 $282 $387 #
straight-curve $-1 53.148645939427311 -6.7292901054508683 10.803377577816732 1 0 0 I I #
edge $-1 $354 -8.2774297493054156 $279 11.37370903701451 $278 $388 forward 7 unknown #
vertex $-1 $353 $389 #
straight-curve $-1 -15.531489070527002 -6.7292901054508683 127.93750125482849 -0.60181501223851219 0 0.79863551827123203 I I #
point $-1 72.735401721935119 -6.7292901054508683 10.803377577816732 #
point $-1 76.273079622791215 12.921848680869058 6.108720305446866 #
straight-curve $-1 76.273079622791215 0 10.803377577816731 0 1 0 I I #
vertex $-1 $285 $390 #
point $-1 73.387942492854648 -1.1146790236451736 6.3627223059949856 #
vertex $-1 $289 $391 #
point $-1 73.387942492854648 7.3072375990633631 6.3627223059949856 #
edge $-1 $364 36.726725208553134 $367 39.966777840726927 $294 $392 forward 7 unknown #
vertex $-1 $308 $393 #
straight-curve $-1 -100.61578952901419 -7.499633458686759 10.803377577816732 -1 0 0 I I #
edge $-1 $367 0.41027852992189828 $305 13.768431327607823 $304 $394 forward 7 unknown #
vertex $-1 $366 $395 #
straight-curve $-1 -76.273079622791229 -7.499633458686759 7.5633249456429184 0.57357642473473569 0 0.81915205242281985 I I #
point $-1 -74.004370414021068 -7.499633458686759 10.803377577816731 #
point $-1 -76.273079622791215 -20.857786256372684 7.5633249456429388 #
straight-curve $-1 -76.273079622791215 0 10.803377577816731 0 -1 0 I I #
vertex $-1 $311 $396 #
point $-1 -73.839677663282998 -14.178709857529721 8.884135826954676 #
straight-curve $-1 -76.273079622791215 44.138386440608073 0 0 0 -1 I I #
point $-1 -76.273079622791215 -44.138386440608073 -10.803377577816731 #
straight-curve $-1 -76.273079622791215 0 -10.803377577816731 0 1 0 I I #
point $-1 -76.273079622791215 44.138386440608073 -10.803377577816731 #
edge $-1 $380 -10.803377577816731 $340 10.803377577816731 $332 $397 forward 7 unknown #
straight-curve $-1 -57.447995547399522 -56.9992161247025 -10.803377577816731 -1 0 0 I I #
vertex $-1 $346 $398 #
straight-curve $-1 -57.447995547399522 -56.9992161247025 10.803377577816731 1 0 0 I I #
point $-1 -60.229666627641286 -56.9992161247025 10.803377577816731 #
point $-1 -60.229666627641286 -56.9992161247025 -10.803377577816731 #
point $-1 -54.666324467157757 -56.9992161247025 -10.803377577816731 #
straight-curve $-1 -54.666324467157757 -50.568801282655286 10.803377577816731 0 1 0 I I #
straight-curve $-1 76.273079622791215 -6.7292901054508683 109.87103497407335 0 0 -1 I I #
point $-1 76.273079622791215 -6.7292901054508683 10.803377577816731 #
straight-curve $-1 76.273079622791215 1.5481396438545474 6.108720305446866 0 1 0 I I #
point $-1 76.273079622791215 -6.7292901054508683 6.108720305446866 #
point $-1 71.987491962344905 -1.1146790236451736 6.5595428120277051 #
point $-1 71.987491962344905 7.3072375990633631 6.5595428120277051 #
straight-curve $-1 -76.273079622791215 -7.499633458686759 47.530102786369866 0 0 -1 I I #
point $-1 -76.273079622791215 -7.499633458686759 10.803377577816731 #
straight-curve $-1 -76.273079622791215 -7.0893549287648607 7.5633249456429255 0 -1 0 I I #
point $-1 -76.273079622791215 -7.499633458686759 7.5633249456429388 #
point $-1 -73.716889849438957 -14.178709857529721 8.187771588375897 #
straight-curve $-1 -54.666324467157757 -56.9992161247025 0 0 0 -1 I I #
point $-1 -54.666324467157757 -56.9992161247025 10.803377577816731 #
End-of-ACIS-data 