500 0 8 0           
7 Unknown 11 ACIS 5.0 NT 24 Fri Mar 26 01:45:56 1999 
-1 9.9999999999999995e-007 1e-010 
body $-1 $8 $-1 $9 #
body $-1 $10 $-1 $11 #
body $-1 $12 $-1 $13 #
body $-1 $14 $-1 $15 #
body $-1 $16 $-1 $17 #
body $-1 $18 $-1 $19 #
body $-1 $20 $-1 $21 #
body $-1 $22 $-1 $23 #
lump $-1 $-1 $24 $0 #
transform $-1 1 0 0 0 1 0 0 0 1 52.712790307321391 24.867850432710824 9.0073574895665889 1 rotate no_reflect no_shear #
lump $-1 $-1 $25 $1 #
transform $-1 1 0 0 0 1 0 0 0 1 52.712790307321391 24.867850432710824 9.0073574895665889 1 rotate no_reflect no_shear #
lump $-1 $-1 $26 $2 #
transform $-1 1 0 0 0 1 0 0 0 1 52.712790307321391 24.867850432710824 9.0073574895665889 1 rotate no_reflect no_shear #
lump $-1 $-1 $27 $3 #
transform $-1 1 0 0 0 1 0 0 0 1 52.712790307321391 24.867850432710824 9.0073574895665889 1 rotate no_reflect no_shear #
lump $-1 $-1 $28 $4 #
transform $-1 1 0 0 0 1 0 0 0 1 52.712790307321391 24.867850432710824 9.0073574895665889 1 rotate no_reflect no_shear #
lump $-1 $-1 $29 $5 #
transform $-1 1 0 0 0 1 0 0 0 1 52.712790307321391 24.867850432710824 9.0073574895665889 1 rotate no_reflect no_shear #
lump $-1 $-1 $30 $6 #
transform $-1 1 0 0 0 1 0 0 0 1 52.712790307321391 24.867850432710824 9.0073574895665889 1 rotate no_reflect no_shear #
lump $-1 $-1 $31 $7 #
transform $-1 1 0 0 0 1 0 0 0 1 52.712790307321391 24.867850432710824 9.0073574895665889 1 rotate no_reflect no_shear #
shell $-1 $-1 $-1 $32 $-1 $8 #
shell $-1 $-1 $-1 $33 $-1 $10 #
shell $-1 $-1 $-1 $34 $-1 $12 #
shell $-1 $-1 $-1 $35 $-1 $14 #
shell $-1 $-1 $-1 $36 $-1 $16 #
shell $-1 $-1 $-1 $37 $-1 $18 #
shell $-1 $-1 $-1 $38 $-1 $20 #
shell $-1 $-1 $-1 $39 $-1 $22 #
face $-1 $40 $41 $24 $-1 $42 forward single #
face $-1 $43 $44 $25 $-1 $45 forward single #
face $-1 $46 $47 $26 $-1 $48 reversed single #
face $-1 $49 $50 $27 $-1 $51 forward single #
face $-1 $52 $53 $28 $-1 $54 forward single #
face $-1 $55 $56 $29 $-1 $57 reversed single #
face $-1 $58 $59 $30 $-1 $60 forward single #
face $-1 $61 $62 $31 $-1 $63 forward single #
face $-1 $64 $65 $24 $-1 $66 reversed single #
loop $-1 $-1 $67 $32 #
plane-surface $-1 0 0 9.0073574895665889 0 0 1 1 0 0 forward_v I I I I #
face $-1 $68 $69 $25 $-1 $70 forward single #
loop $-1 $-1 $71 $33 #
plane-surface $-1 0 -24.867850432710824 0 0 1 0 0 0 1 forward_v I I I I #
face $-1 $72 $73 $26 $-1 $74 reversed single #
loop $-1 $-1 $75 $34 #
plane-surface $-1 -23.938495320538834 54.534351285857639 113.56948252249065 1 0 0 0 -0.64278761758704617 -0.76604443648966558 forward_v I I I I #
face $-1 $76 $77 $27 $-1 $78 forward single #
loop $-1 $79 $80 $35 #
cone-surface $-1 -17.098925228956311 18.673880969996478 3.3420916835626922 0 -0.64278761758704617 -0.76604443648966558 3 0 0 1 I I 0 1 3 forward I I I I #
face $-1 $81 $82 $28 $-1 $83 forward single #
loop $-1 $84 $85 $36 #
cone-surface $-1 -6.839570091582523 18.673880969996478 3.3420916835626922 0 -0.64278761758704617 -0.76604443648966558 3 0 0 1 I I 0 1 3 forward I I I I #
face $-1 $86 $87 $29 $-1 $88 reversed single #
loop $-1 $-1 $89 $37 #
plane-surface $-1 -11.969247660269417 -13.231906510159675 32.808803028950805 0 0.64278761758704617 0.76604443648966558 1 0 0 forward_v I I I I #
face $-1 $90 $91 $30 $-1 $92 forward single #
loop $-1 $93 $94 $38 #
cone-surface $-1 6.839570091582523 18.673880969996478 3.3420916835626922 0 -0.64278761758704617 -0.76604443648966558 3 0 0 1 I I 0 1 3 forward I I I I #
face $-1 $95 $96 $31 $-1 $97 forward single #
loop $-1 $98 $99 $39 #
cone-surface $-1 17.098925228956311 18.673880969996478 3.3420916835626922 0 -0.64278761758704617 -0.76604443648966558 3 0 0 1 I I 0 1 3 forward I I I I #
face $-1 $100 $101 $24 $-1 $102 reversed single #
loop $-1 $-1 $103 $40 #
plane-surface $-1 0 0 -9.0073574895665889 0 0 1 1 0 0 forward_v I I I I #
coedge $-1 $104 $105 $106 $107 forward $41 $-1 #
face $-1 $108 $109 $25 $-1 $110 reversed single #
loop $-1 $-1 $111 $43 #
plane-surface $-1 0 0 9.0073574895665889 0 0 1 1 0 0 forward_v I I I I #
coedge $-1 $112 $113 $114 $115 forward $44 $-1 #
face $-1 $116 $117 $26 $-1 $118 reversed single #
loop $-1 $-1 $119 $46 #
plane-surface $-1 -11.969247660269417 -13.231906510159675 32.808803028950805 0 0.64278761758704617 0.76604443648966558 1 0 0 forward_v I I I I #
coedge $-1 $120 $121 $122 $123 reversed $47 $-1 #
face $-1 $-1 $124 $27 $-1 $125 forward single #
loop $-1 $126 $127 $49 #
cone-surface $-1 -17.098925228956311 16.382879734145213 0.61178278728538338 0 -0.64278761758704617 -0.76604443648966558 1.5 0 0 1 I I -0.70710678118654757 0.70710678118654757 1.5 forward I I I I #
loop $-1 $-1 $128 $35 #
coedge $-1 $80 $80 $129 $130 reversed $50 $-1 #
face $-1 $-1 $131 $28 $-1 $132 forward single #
loop $-1 $133 $134 $52 #
cone-surface $-1 -6.839570091582523 16.382879734145213 0.61178278728538338 0 -0.64278761758704617 -0.76604443648966558 1.5 0 0 1 I I -0.70710678118654757 0.70710678118654757 1.5 forward I I I I #
loop $-1 $-1 $135 $36 #
coedge $-1 $85 $85 $136 $137 reversed $53 $-1 #
face $-1 $138 $139 $29 $-1 $140 forward single #
loop $-1 $-1 $141 $55 #
plane-surface $-1 23.938495320538841 54.534351285857639 113.56948252249065 -1 0 0 0 0.64278761758704617 0.76604443648966558 forward_v I I I I #
coedge $-1 $142 $143 $144 $145 reversed $56 $-1 #
face $-1 $-1 $146 $30 $-1 $147 forward single #
loop $-1 $148 $149 $58 #
cone-surface $-1 6.839570091582523 16.382879734145213 0.61178278728538338 0 -0.64278761758704617 -0.76604443648966558 1.5 0 0 1 I I -0.70710678118654757 0.70710678118654757 1.5 forward I I I I #
loop $-1 $-1 $150 $38 #
coedge $-1 $94 $94 $151 $152 reversed $59 $-1 #
face $-1 $-1 $153 $31 $-1 $154 forward single #
loop $-1 $155 $156 $61 #
cone-surface $-1 17.098925228956311 16.382879734145213 0.61178278728538338 0 -0.64278761758704617 -0.76604443648966558 1.5 0 0 1 I I -0.70710678118654757 0.70710678118654757 1.5 forward I I I I #
loop $-1 $-1 $157 $39 #
coedge $-1 $99 $99 $158 $159 reversed $62 $-1 #
face $-1 $160 $161 $24 $-1 $162 reversed single #
loop $-1 $-1 $163 $64 #
plane-surface $-1 0 -24.867850432710824 0 0 1 0 0 0 1 forward_v I I I I #
coedge $-1 $164 $165 $166 $167 forward $65 $-1 #
coedge $-1 $168 $67 $169 $170 forward $41 $-1 #
coedge $-1 $67 $168 $171 $172 forward $41 $-1 #
coedge $-1 $173 $174 $67 $107 reversed $175 $-1 #
edge $-1 $176 -24.867850432710824 $177 24.867850432710824 $106 $178 forward 7 unknown #
face $-1 $179 $180 $25 $-1 $181 reversed single #
loop $-1 $-1 $182 $68 #
plane-surface $-1 -52.712790307321391 0 0 1 0 0 0 0 -1 forward_v I I I I #
coedge $-1 $183 $184 $185 $186 forward $69 $-1 #
coedge $-1 $185 $71 $182 $187 reversed $44 $-1 #
coedge $-1 $71 $185 $188 $189 reversed $44 $-1 #
coedge $-1 $190 $191 $71 $115 reversed $180 $-1 #
edge $-1 $192 -52.712790307321391 $193 52.712790307321391 $114 $194 forward 7 unknown #
face $-1 $195 $196 $26 $-1 $197 reversed single #
loop $-1 $-1 $198 $72 #
plane-surface $-1 0 54.534351285857639 113.56948252249065 -1 0 0 0 0.64278761758704617 0.76604443648966558 forward_v I I I I #
coedge $-1 $199 $200 $201 $202 reversed $73 $-1 #
coedge $-1 $121 $75 $203 $204 reversed $47 $-1 #
coedge $-1 $75 $120 $199 $205 reversed $47 $-1 #
coedge $-1 $201 $206 $75 $123 forward $207 $-1 #
edge $-1 $208 2.3993252102179952 $209 12.133624516705286 $122 $210 forward 7 unknown #
loop $-1 $-1 $129 $76 #
plane-surface $-1 -11.969247660269417 -13.231906510159675 32.808803028950805 0 0.64278761758704617 0.76604443648966558 1 0 0 forward_v I I I I #
loop $-1 $-1 $211 $49 #
coedge $-1 $127 $127 $128 $212 reversed $77 $-1 #
coedge $-1 $128 $128 $127 $212 forward $79 $-1 #
coedge $-1 $129 $129 $80 $130 forward $124 $-1 #
edge $-1 $213 -2.9193079101384818e-016 $213 6.2831853071796004 $129 $214 forward 7 unknown #
loop $-1 $-1 $136 $81 #
plane-surface $-1 -11.969247660269417 -13.231906510159675 32.808803028950805 0 0.64278761758704617 0.76604443648966558 1 0 0 forward_v I I I I #
loop $-1 $-1 $215 $52 #
coedge $-1 $134 $134 $135 $216 reversed $82 $-1 #
coedge $-1 $135 $135 $134 $216 forward $84 $-1 #
coedge $-1 $136 $136 $85 $137 forward $131 $-1 #
edge $-1 $217 -2.9193079101384818e-016 $217 6.2831853071796004 $136 $218 forward 7 unknown #
face $-1 $219 $220 $29 $-1 $221 forward single #
loop $-1 $-1 $222 $86 #
plane-surface $-1 0 0 9.0073574895665889 0 0 1 1 0 0 forward_v I I I I #
coedge $-1 $223 $224 $225 $226 reversed $87 $-1 #
coedge $-1 $227 $89 $228 $229 reversed $56 $-1 #
coedge $-1 $89 $227 $222 $230 reversed $56 $-1 #
coedge $-1 $231 $232 $89 $145 forward $220 $-1 #
edge $-1 $233 -49.735700865421649 $234 -37.028475484223264 $144 $235 forward 7 unknown #
loop $-1 $-1 $151 $90 #
plane-surface $-1 -11.969247660269417 -13.231906510159675 32.808803028950805 0 0.64278761758704617 0.76604443648966558 1 0 0 forward_v I I I I #
loop $-1 $-1 $236 $58 #
coedge $-1 $149 $149 $150 $237 reversed $91 $-1 #
coedge $-1 $150 $150 $149 $237 forward $93 $-1 #
coedge $-1 $151 $151 $94 $152 forward $146 $-1 #
edge $-1 $238 -2.9193079101384818e-016 $238 6.2831853071796004 $151 $239 forward 7 unknown #
loop $-1 $-1 $158 $95 #
plane-surface $-1 -11.969247660269417 -13.231906510159675 32.808803028950805 0 0.64278761758704617 0.76604443648966558 1 0 0 forward_v I I I I #
loop $-1 $-1 $240 $61 #
coedge $-1 $156 $156 $157 $241 reversed $96 $-1 #
coedge $-1 $157 $157 $156 $241 forward $98 $-1 #
coedge $-1 $158 $158 $99 $159 forward $153 $-1 #
edge $-1 $242 -2.9193079101384818e-016 $242 6.2831853071796004 $158 $243 forward 7 unknown #
face $-1 $244 $245 $24 $-1 $246 reversed single #
loop $-1 $-1 $247 $100 #
plane-surface $-1 -52.712790307321391 0 0 1 0 0 0 0 -1 forward_v I I I I #
coedge $-1 $248 $171 $249 $250 forward $101 $-1 #
coedge $-1 $251 $103 $248 $252 forward $65 $-1 #
coedge $-1 $103 $251 $253 $254 forward $65 $-1 #
coedge $-1 $174 $173 $103 $167 reversed $175 $-1 #
edge $-1 $255 -24.867850432710824 $256 24.867850432710824 $166 $257 forward 7 unknown #
coedge $-1 $105 $104 $258 $259 forward $41 $-1 #
coedge $-1 $260 $261 $104 $170 reversed $245 $-1 #
edge $-1 $177 -52.712790307321391 $262 52.712790307321391 $169 $263 forward 7 unknown #
coedge $-1 $163 $264 $105 $172 reversed $101 $-1 #
edge $-1 $265 -52.712790307321391 $176 52.712790307321391 $171 $266 forward 7 unknown #
coedge $-1 $166 $106 $264 $267 forward $175 $-1 #
coedge $-1 $106 $166 $260 $268 reversed $175 $-1 #
loop $-1 $-1 $173 $244 #
vertex $-1 $107 $269 #
vertex $-1 $107 $270 #
straight-curve $-1 52.712790307321391 0 9.0073574895665889 0 1 0 I I #
face $-1 $271 $272 $25 $-1 $273 reversed single #
loop $-1 $-1 $190 $108 #
plane-surface $-1 0 -29.308122790624907 5.8717843842932869 0 0 1 1 0 0 forward_v I I I I #
coedge $-1 $274 $275 $112 $187 forward $109 $-1 #
coedge $-1 $276 $111 $275 $277 forward $69 $-1 #
coedge $-1 $111 $276 $278 $279 forward $69 $-1 #
coedge $-1 $113 $112 $111 $186 reversed $44 $-1 #
edge $-1 $280 -52.712790307321391 $281 52.712790307321391 $111 $282 forward 7 unknown #
edge $-1 $281 -9.0073574895665889 $193 -5.8717843842932869 $182 $283 forward 7 unknown #
coedge $-1 $278 $284 $113 $189 forward $285 $-1 #
edge $-1 $192 5.8717843842932869 $280 9.0073574895665889 $188 $286 forward 7 unknown #
coedge $-1 $287 $114 $284 $288 forward $180 $-1 #
coedge $-1 $114 $287 $274 $289 forward $180 $-1 #
vertex $-1 $189 $290 #
vertex $-1 $187 $291 #
straight-curve $-1 0 -24.867850432710824 5.8717843842932869 -1 0 0 I I #
face $-1 $-1 $207 $26 $-1 $292 forward single #
loop $-1 $-1 $293 $116 #
plane-surface $-1 0 24.867850432710824 0 0 -1 0 0 0 -1 forward_v I I I I #
coedge $-1 $294 $295 $296 $297 reversed $117 $-1 #
coedge $-1 $298 $119 $121 $205 forward $73 $-1 #
coedge $-1 $119 $298 $294 $299 forward $73 $-1 #
coedge $-1 $296 $122 $119 $202 forward $207 $-1 #
edge $-1 $209 -17.953871490404126 $300 5.9846238301347086 $201 $301 forward 7 unknown #
coedge $-1 $302 $303 $120 $204 forward $196 $-1 #
edge $-1 $304 -55.94543090060089 $208 -47.777383771678736 $203 $305 forward 7 unknown #
edge $-1 $209 37.028475484223264 $304 49.735700865421649 $121 $306 forward 7 unknown #
coedge $-1 $122 $296 $302 $307 forward $207 $-1 #
loop $-1 $-1 $296 $195 #
vertex $-1 $204 $308 #
vertex $-1 $123 $309 #
straight-curve $-1 -23.938495320538834 27.267175642928819 9.0073574895665871 0 -1 0 I I #
coedge $-1 $211 $211 $-1 $310 reversed $126 $-1 #
edge $-1 $311 0 $311 6.2831853071796004 $127 $312 forward 7 unknown #
vertex $-1 $130 $313 #
ellipse-curve $-1 -17.098925228956311 20.000700779467177 4.923333925105509 0 0.64278761758704617 0.76604443648966558 3 0 0 1 I I #
coedge $-1 $215 $215 $-1 $314 reversed $133 $-1 #
edge $-1 $315 0 $315 6.2831853071796004 $134 $316 forward 7 unknown #
vertex $-1 $137 $317 #
ellipse-curve $-1 -6.839570091582523 20.000700779467177 4.923333925105509 0 0.64278761758704617 0.76604443648966558 3 0 0 1 I I #
face $-1 $-1 $318 $29 $-1 $319 reversed single #
loop $-1 $-1 $231 $138 #
plane-surface $-1 0 54.534351285857639 113.56948252249065 -1 0 0 0 0.64278761758704617 0.76604443648966558 forward_v I I I I #
coedge $-1 $225 $320 $143 $230 forward $139 $-1 #
coedge $-1 $224 $141 $227 $321 reversed $87 $-1 #
coedge $-1 $141 $223 $322 $323 reversed $87 $-1 #
coedge $-1 $324 $222 $141 $226 forward $139 $-1 #
edge $-1 $325 -12.133624516705286 $326 -2.3993252102179952 $225 $327 forward 7 unknown #
coedge $-1 $143 $142 $223 $321 forward $56 $-1 #
coedge $-1 $328 $322 $142 $229 forward $318 $-1 #
edge $-1 $329 -29.92311915067355 $233 -5.9846238301347086 $228 $330 forward 7 unknown #
edge $-1 $234 5.9846238301347086 $325 29.92311915067355 $222 $331 forward 7 unknown #
coedge $-1 $232 $144 $320 $332 reversed $220 $-1 #
coedge $-1 $144 $231 $328 $333 reversed $220 $-1 #
vertex $-1 $229 $334 #
vertex $-1 $230 $335 #
straight-curve $-1 0 -13.231906510159675 32.808803028950805 0 -0.76604443648966558 0.64278761758704617 I I #
coedge $-1 $236 $236 $-1 $336 reversed $148 $-1 #
edge $-1 $337 0 $337 6.2831853071796004 $149 $338 forward 7 unknown #
vertex $-1 $152 $339 #
ellipse-curve $-1 6.839570091582523 20.000700779467177 4.923333925105509 0 0.64278761758704617 0.76604443648966558 3 0 0 1 I I #
coedge $-1 $240 $240 $-1 $340 reversed $155 $-1 #
edge $-1 $341 0 $341 6.2831853071796004 $156 $342 forward 7 unknown #
vertex $-1 $159 $343 #
ellipse-curve $-1 17.098925228956311 20.000700779467177 4.923333925105509 0 0.64278761758704617 0.76604443648966558 3 0 0 1 I I #
face $-1 $-1 $175 $24 $-1 $344 reversed single #
loop $-1 $-1 $260 $160 #
plane-surface $-1 0 24.867850432710824 0 0 -1 0 0 0 -1 forward_v I I I I #
coedge $-1 $345 $258 $261 $346 forward $161 $-1 #
coedge $-1 $264 $163 $164 $252 reversed $101 $-1 #
coedge $-1 $258 $345 $163 $250 reversed $161 $-1 #
edge $-1 $265 -9.0073574895665889 $347 9.0073574895665889 $249 $348 forward 7 unknown #
coedge $-1 $165 $164 $345 $349 forward $65 $-1 #
edge $-1 $256 -52.712790307321391 $347 52.712790307321391 $248 $350 forward 7 unknown #
coedge $-1 $261 $260 $165 $254 reversed $245 $-1 #
edge $-1 $351 -52.712790307321391 $255 52.712790307321391 $253 $352 forward 7 unknown #
vertex $-1 $167 $353 #
vertex $-1 $267 $354 #
straight-curve $-1 52.712790307321391 0 -9.0073574895665889 0 -1 0 I I #
coedge $-1 $247 $249 $168 $259 reversed $161 $-1 #
edge $-1 $262 -24.867850432710824 $265 24.867850432710824 $258 $355 forward 7 unknown #
coedge $-1 $253 $169 $174 $268 forward $245 $-1 #
coedge $-1 $169 $253 $247 $346 reversed $245 $-1 #
vertex $-1 $170 $356 #
straight-curve $-1 0 24.867850432710824 9.0073574895665889 -1 0 0 I I #
coedge $-1 $171 $248 $173 $267 reversed $101 $-1 #
vertex $-1 $259 $357 #
straight-curve $-1 0 -24.867850432710824 9.0073574895665889 1 0 0 I I #
edge $-1 $176 -9.0073574895665889 $256 9.0073574895665889 $173 $358 forward 7 unknown #
edge $-1 $177 -9.0073574895665889 $255 9.0073574895665889 $174 $359 forward 7 unknown #
point $-1 52.712790307321391 -24.867850432710824 9.0073574895665889 #
point $-1 52.712790307321391 24.867850432710824 9.0073574895665889 #
face $-1 $-1 $285 $25 $-1 $360 reversed single #
loop $-1 $-1 $361 $179 #
plane-surface $-1 0 -33.748395148538989 7.4395709369299379 0 1 0 0 0 1 forward_v I I I I #
coedge $-1 $362 $182 $191 $289 reversed $109 $-1 #
coedge $-1 $182 $362 $183 $277 reversed $109 $-1 #
coedge $-1 $184 $183 $363 $364 forward $69 $-1 #
edge $-1 $281 24.867850432710824 $365 33.748395148538989 $275 $366 forward 7 unknown #
coedge $-1 $367 $188 $184 $279 reversed $285 $-1 #
edge $-1 $368 -33.748395148538989 $280 -24.867850432710824 $278 $369 forward 7 unknown #
vertex $-1 $189 $370 #
vertex $-1 $277 $371 #
straight-curve $-1 0 -24.867850432710824 9.0073574895665889 -1 0 0 I I #
straight-curve $-1 -52.712790307321391 -24.867850432710824 0 0 0 -1 I I #
coedge $-1 $188 $367 $190 $288 reversed $285 $-1 #
loop $-1 $-1 $188 $271 #
straight-curve $-1 52.712790307321391 -24.867850432710824 0 0 0 1 I I #
coedge $-1 $191 $190 $372 $373 forward $180 $-1 #
edge $-1 $192 -4.4402723579140826 $374 4.4402723579140826 $284 $375 forward 7 unknown #
edge $-1 $376 -4.4402723579140826 $193 4.4402723579140826 $274 $377 forward 7 unknown #
point $-1 52.712790307321391 -24.867850432710824 5.8717843842932869 #
point $-1 -52.712790307321391 -24.867850432710824 5.8717843842932869 #
plane-surface $-1 0 0 9.0073574895665889 0 0 1 1 0 0 forward_v I I I I #
coedge $-1 $303 $302 $295 $378 forward $196 $-1 #
coedge $-1 $295 $198 $200 $299 reversed $117 $-1 #
coedge $-1 $198 $294 $293 $378 reversed $117 $-1 #
coedge $-1 $206 $201 $198 $297 forward $207 $-1 #
edge $-1 $300 -12.133624516705286 $379 -2.3993252102179952 $296 $380 forward 7 unknown #
coedge $-1 $200 $199 $303 $381 reversed $73 $-1 #
edge $-1 $382 -49.735700865421649 $300 -37.028475484223264 $294 $383 forward 7 unknown #
vertex $-1 $202 $384 #
straight-curve $-1 -5.9846238301347086 15.13355112622353 9.0073574895665907 1 0 0 I I #
coedge $-1 $293 $203 $206 $307 reversed $196 $-1 #
coedge $-1 $203 $293 $298 $381 forward $196 $-1 #
vertex $-1 $204 $385 #
straight-curve $-1 -23.938495320538834 24.867850432710824 56.784741261245323 0 0 1 I I #
straight-curve $-1 -23.938495320538834 -13.231906510159675 32.808803028950805 0 0.76604443648966558 -0.64278761758704617 I I #
edge $-1 $379 0 $208 23.938495320538834 $302 $386 forward 7 unknown #
point $-1 -23.938495320538834 24.867850432710824 9.0073574895665889 #
point $-1 -23.938495320538834 15.133551126223534 9.0073574895665871 #
edge $-1 $387 1 $387 0 $211 $-1 forward 7 unknown #
vertex $-1 $212 $388 #
ellipse-curve $-1 -17.098925228956311 17.347061160525783 1.7608494420198817 0 0.64278761758704617 0.76604443648966558 3 0 0 1 I I #
point $-1 -14.098925228956311 20.00070077946717 4.9233339251055019 #
edge $-1 $389 1 $389 0 $215 $-1 forward 7 unknown #
vertex $-1 $216 $390 #
ellipse-curve $-1 -6.839570091582523 17.347061160525783 1.7608494420198817 0 0.64278761758704617 0.76604443648966558 3 0 0 1 I I #
point $-1 -3.839570091582523 20.00070077946717 4.9233339251055019 #
loop $-1 $-1 $228 $219 #
plane-surface $-1 0 24.867850432710824 0 0 -1 0 0 0 -1 forward_v I I I I #
coedge $-1 $222 $324 $231 $332 forward $139 $-1 #
edge $-1 $329 -49.735700865421649 $325 -37.028475484223264 $223 $391 forward 7 unknown #
coedge $-1 $228 $392 $224 $323 forward $318 $-1 #
edge $-1 $326 47.777383771678736 $329 55.94543090060089 $322 $393 forward 7 unknown #
coedge $-1 $320 $225 $392 $394 forward $139 $-1 #
vertex $-1 $226 $395 #
vertex $-1 $394 $396 #
straight-curve $-1 23.938495320538841 27.267175642928819 9.0073574895665871 0 1 0 I I #
coedge $-1 $392 $228 $232 $333 forward $318 $-1 #
vertex $-1 $323 $397 #
straight-curve $-1 -5.9846238301347086 24.867850432710824 0.83931036064443809 -1 0 0 I I #
straight-curve $-1 -5.9846238301347086 15.13355112622353 9.0073574895665907 1 0 0 I I #
edge $-1 $398 2.3993252102179952 $234 12.133624516705286 $320 $399 forward 7 unknown #
edge $-1 $233 -55.94543090060089 $398 -47.777383771678736 $328 $400 forward 7 unknown #
point $-1 0 24.867850432710824 0.83931036064443276 #
point $-1 0 15.133551126223534 9.0073574895665871 #
edge $-1 $401 1 $401 0 $236 $-1 forward 7 unknown #
vertex $-1 $237 $402 #
ellipse-curve $-1 6.839570091582523 17.347061160525783 1.7608494420198817 0 0.64278761758704617 0.76604443648966558 3 0 0 1 I I #
point $-1 9.839570091582523 20.00070077946717 4.9233339251055019 #
edge $-1 $403 1 $403 0 $240 $-1 forward 7 unknown #
vertex $-1 $241 $404 #
ellipse-curve $-1 17.098925228956311 17.347061160525783 1.7608494420198817 0 0.64278761758704617 0.76604443648966558 3 0 0 1 I I #
point $-1 20.098925228956311 20.00070077946717 4.9233339251055019 #
plane-surface $-1 52.712790307321391 0 0 -1 0 0 0 0 1 forward_v I I I I #
coedge $-1 $249 $247 $251 $349 reversed $161 $-1 #
edge $-1 $262 -9.0073574895665889 $351 9.0073574895665889 $261 $405 forward 7 unknown #
vertex $-1 $349 $406 #
straight-curve $-1 -52.712790307321391 -24.867850432710824 0 0 0 -1 I I #
edge $-1 $347 -24.867850432710824 $351 24.867850432710824 $345 $407 forward 7 unknown #
straight-curve $-1 0 -24.867850432710824 -9.0073574895665889 -1 0 0 I I #
vertex $-1 $254 $408 #
straight-curve $-1 0 24.867850432710824 -9.0073574895665889 1 0 0 I I #
point $-1 52.712790307321391 24.867850432710824 -9.0073574895665889 #
point $-1 52.712790307321391 -24.867850432710824 -9.0073574895665889 #
straight-curve $-1 -52.712790307321391 0 9.0073574895665889 0 -1 0 I I #
point $-1 -52.712790307321391 24.867850432710824 9.0073574895665889 #
point $-1 -52.712790307321391 -24.867850432710824 9.0073574895665889 #
straight-curve $-1 52.712790307321391 -24.867850432710824 0 0 0 -1 I I #
straight-curve $-1 52.712790307321391 24.867850432710824 0 0 0 -1 I I #
plane-surface $-1 52.712790307321391 0 0 -1 0 0 0 0 1 forward_v I I I I #
coedge $-1 $372 $363 $362 $409 forward $272 $-1 #
coedge $-1 $275 $274 $361 $409 reversed $109 $-1 #
coedge $-1 $361 $410 $276 $364 reversed $272 $-1 #
edge $-1 $365 -52.712790307321391 $368 52.712790307321391 $363 $411 forward 7 unknown #
vertex $-1 $277 $412 #
straight-curve $-1 -52.712790307321391 0 9.0073574895665889 0 -1 0 I I #
coedge $-1 $284 $278 $410 $413 forward $285 $-1 #
vertex $-1 $279 $414 #
straight-curve $-1 52.712790307321391 0 9.0073574895665889 0 1 0 I I #
point $-1 52.712790307321391 -24.867850432710824 9.0073574895665889 #
point $-1 -52.712790307321391 -24.867850432710824 9.0073574895665889 #
coedge $-1 $410 $361 $287 $373 reversed $272 $-1 #
edge $-1 $374 -52.712790307321391 $376 52.712790307321391 $372 $415 forward 7 unknown #
vertex $-1 $413 $416 #
straight-curve $-1 52.712790307321391 -29.308122790624907 5.8717843842932869 0 -1 0 I I #
vertex $-1 $289 $417 #
straight-curve $-1 -52.712790307321391 -29.308122790624907 5.8717843842932869 0 1 0 I I #
edge $-1 $379 47.777383771678736 $382 55.94543090060089 $293 $418 forward 7 unknown #
vertex $-1 $307 $419 #
straight-curve $-1 0 27.267175642928819 9.0073574895665871 0 1 0 I I #
edge $-1 $382 -5.9846238301347086 $304 17.953871490404126 $303 $420 forward 7 unknown #
vertex $-1 $381 $421 #
straight-curve $-1 0 -13.231906510159675 32.808803028950805 0 -0.76604443648966558 0.64278761758704617 I I #
point $-1 0 15.133551126223534 9.0073574895665871 #
point $-1 -23.938495320538834 24.867850432710824 0.83931036064443276 #
straight-curve $-1 0 24.867850432710824 9.0073574895665889 -1 0 0 I I #
vertex $-1 $310 $422 #
point $-1 -14.098925228956311 17.347061160525783 1.7608494420198817 #
vertex $-1 $314 $423 #
point $-1 -3.839570091582523 17.347061160525783 1.7608494420198817 #
straight-curve $-1 23.938495320538841 -13.231906510159675 32.808803028950805 0 -0.76604443648966558 0.64278761758704617 I I #
coedge $-1 $322 $328 $324 $394 reversed $318 $-1 #
straight-curve $-1 23.938495320538841 24.867850432710824 56.784741261245323 0 0 -1 I I #
edge $-1 $326 -23.938495320538841 $398 0 $392 $424 forward 7 unknown #
point $-1 23.938495320538841 15.133551126223534 9.0073574895665871 #
point $-1 23.938495320538841 24.867850432710824 9.0073574895665889 #
point $-1 23.938495320538841 24.867850432710824 0.83931036064443276 #
vertex $-1 $333 $425 #
straight-curve $-1 0 27.267175642928819 9.0073574895665871 0 -1 0 I I #
straight-curve $-1 0 24.867850432710824 56.784741261245323 0 0 1 I I #
vertex $-1 $336 $426 #
point $-1 9.839570091582523 17.347061160525783 1.7608494420198817 #
vertex $-1 $340 $427 #
point $-1 20.098925228956311 17.347061160525783 1.7608494420198817 #
straight-curve $-1 -52.712790307321391 24.867850432710824 0 0 0 -1 I I #
point $-1 -52.712790307321391 -24.867850432710824 -9.0073574895665889 #
straight-curve $-1 -52.712790307321391 0 -9.0073574895665889 0 1 0 I I #
point $-1 -52.712790307321391 24.867850432710824 -9.0073574895665889 #
edge $-1 $365 -1.567786552636651 $376 1.567786552636651 $362 $428 forward 7 unknown #
coedge $-1 $363 $372 $367 $413 reversed $272 $-1 #
straight-curve $-1 0 -33.748395148538989 9.0073574895665889 1 0 0 I I #
point $-1 -52.712790307321391 -33.748395148538989 9.0073574895665889 #
edge $-1 $368 -1.567786552636651 $374 1.567786552636651 $367 $429 forward 7 unknown #
point $-1 52.712790307321391 -33.748395148538989 9.0073574895665889 #
straight-curve $-1 0 -33.748395148538989 5.8717843842932869 -1 0 0 I I #
point $-1 52.712790307321391 -33.748395148538989 5.8717843842932869 #
point $-1 -52.712790307321391 -33.748395148538989 5.8717843842932869 #
straight-curve $-1 0 24.867850432710824 56.784741261245323 0 0 -1 I I #
point $-1 0 24.867850432710824 9.0073574895665889 #
straight-curve $-1 -5.9846238301347086 24.867850432710824 0.83931036064443809 -1 0 0 I I #
point $-1 0 24.867850432710824 0.83931036064443276 #
point $-1 -17.098925228956311 15.418698307764643 -0.53728386744911494 #
point $-1 -6.839570091582523 15.418698307764643 -0.53728386744911494 #
straight-curve $-1 0 24.867850432710824 9.0073574895665889 -1 0 0 I I #
point $-1 0 24.867850432710824 9.0073574895665889 #
point $-1 6.839570091582523 15.418698307764643 -0.53728386744911494 #
point $-1 17.098925228956311 15.418698307764643 -0.53728386744911494 #
straight-curve $-1 -52.712790307321391 -33.748395148538989 7.4395709369299379 0 0 -1 I I #
straight-curve $-1 52.712790307321391 -33.748395148538989 7.4395709369299379 0 0 -1 I I #
End-of-ACIS-data 