600 0 2 0           
107 GICL ACIS Healer - Source: /gicl/data5/repository/Drexel/CICIRELLO-THESISDATA/Part10002.smdg.feat.sat - 6 0 18 ACIS 6.0.3 Solaris 24 Fri Apr 12 10:14:30 2002 
1 9.999999999999999547e-07 1.000000000000000036e-10 
body $-1 $2 $-1 $-1 #
body $-1 $3 $-1 $-1 #
lump $-1 $-1 $4 $0 #
lump $-1 $-1 $5 $1 #
shell $-1 $-1 $-1 $6 $-1 $2 #
shell $-1 $-1 $-1 $7 $-1 $3 #
face $-1 $8 $9 $4 $-1 $10 forward single #
face $-1 $11 $12 $5 $-1 $13 forward single #
face $-1 $14 $15 $4 $-1 $16 reversed single #
loop $-1 $-1 $17 $6 #
plane-surface $-1 62.55684072389904316 34.78684976342995583 27.19079549977013599 0 0 1 1 0 0 forward_v I I I I #
face $-1 $18 $19 $5 $-1 $20 reversed single #
loop $-1 $-1 $21 $7 #
plane-surface $-1 -4.626277313367976873 34.78684976342995583 8.114655075105833504 0 0 1 1 0 0 forward_v I I I I #
face $-1 $22 $23 $4 $-1 $24 reversed single #
loop $-1 $-1 $25 $8 #
plane-surface $-1 62.55684072389904316 34.78684976342995583 0 0 0 1 1 0 0 forward_v I I I I #
coedge $-1 $26 $27 $28 $29 forward $9 $-1 #
face $-1 $30 $31 $5 $-1 $32 reversed single #
loop $-1 $-1 $33 $11 #
plane-surface $-1 -4.626277313367976873 34.78684976342995583 2.898473507308810593 0 0 1 1 0 0 forward_v I I I I #
coedge $-1 $34 $35 $36 $37 forward $12 $-1 #
face $-1 $38 $39 $4 $-1 $40 reversed single #
loop $-1 $-1 $41 $14 #
plane-surface $-1 62.55684072389904316 0 13.595397749885068 0 1 0 0 0 1 forward_v I I I I #
coedge $-1 $42 $43 $44 $45 forward $15 $-1 #
coedge $-1 $46 $17 $47 $48 forward $9 $-1 #
coedge $-1 $17 $46 $49 $50 forward $9 $-1 #
coedge $-1 $51 $52 $17 $29 reversed $53 $-1 #
edge $-1 $54 -34.78684976342995583 $55 34.78684976342995583 $28 $56 forward 7 unknown #
face $-1 $57 $58 $5 $-1 $59 reversed single #
loop $-1 $-1 $60 $18 #
plane-surface $-1 -4.626277313367976873 0 5.50656429120732227 0 1 0 0 0 1 forward_v I I I I #
coedge $-1 $61 $62 $63 $64 forward $19 $-1 #
coedge $-1 $65 $21 $66 $67 forward $12 $-1 #
coedge $-1 $21 $65 $68 $69 forward $12 $-1 #
coedge $-1 $70 $71 $21 $37 reversed $72 $-1 #
edge $-1 $73 -34.78684976342995583 $74 34.78684976342995583 $36 $75 forward 7 unknown #
face $-1 $76 $77 $4 $-1 $78 reversed single #
loop $-1 $-1 $79 $22 #
plane-surface $-1 0 34.78684976342995583 13.595397749885068 1 0 0 0 0 -1 forward_v I I I I #
coedge $-1 $80 $49 $81 $82 forward $23 $-1 #
coedge $-1 $83 $25 $80 $84 forward $15 $-1 #
coedge $-1 $25 $83 $85 $86 forward $15 $-1 #
coedge $-1 $52 $51 $25 $45 reversed $53 $-1 #
edge $-1 $87 -34.78684976342995583 $88 34.78684976342995583 $44 $89 forward 7 unknown #
coedge $-1 $27 $26 $90 $91 forward $9 $-1 #
coedge $-1 $92 $93 $26 $48 reversed $77 $-1 #
edge $-1 $55 -62.55684072389904316 $94 62.55684072389904316 $47 $95 forward 7 unknown #
coedge $-1 $41 $96 $27 $50 reversed $23 $-1 #
edge $-1 $97 -62.55684072389904316 $54 62.55684072389904316 $49 $98 forward 7 unknown #
coedge $-1 $44 $28 $96 $99 forward $53 $-1 #
coedge $-1 $28 $44 $92 $100 reversed $53 $-1 #
loop $-1 $-1 $51 $76 #
vertex $-1 $29 $101 #
vertex $-1 $29 $102 #
straight-curve $-1 125.1136814477980863 34.78684976342995583 27.19079549977013599 0 1 0 I I #
face $-1 $103 $104 $5 $-1 $105 reversed single #
loop $-1 $-1 $106 $30 #
plane-surface $-1 -9.252554626735953747 34.78684976342995583 5.50656429120732227 1 0 0 0 0 -1 forward_v I I I I #
coedge $-1 $107 $68 $108 $109 forward $31 $-1 #
coedge $-1 $110 $33 $107 $111 forward $19 $-1 #
coedge $-1 $33 $110 $112 $113 forward $19 $-1 #
coedge $-1 $71 $70 $33 $64 reversed $72 $-1 #
edge $-1 $114 -34.78684976342995583 $115 34.78684976342995583 $63 $116 forward 7 unknown #
coedge $-1 $35 $34 $117 $118 forward $12 $-1 #
coedge $-1 $119 $120 $34 $67 reversed $104 $-1 #
edge $-1 $74 -4.626277313367976873 $121 4.626277313367976873 $66 $122 forward 7 unknown #
coedge $-1 $60 $123 $35 $69 reversed $31 $-1 #
edge $-1 $124 -4.626277313367976873 $73 4.626277313367976873 $68 $125 forward 7 unknown #
coedge $-1 $63 $36 $123 $126 forward $72 $-1 #
coedge $-1 $36 $63 $119 $127 reversed $72 $-1 #
loop $-1 $-1 $70 $103 #
vertex $-1 $37 $128 #
vertex $-1 $37 $129 #
straight-curve $-1 0 34.78684976342995583 8.114655075105833504 0 1 0 I I #
face $-1 $-1 $53 $4 $-1 $130 reversed single #
loop $-1 $-1 $92 $38 #
plane-surface $-1 62.55684072389904316 69.57369952685991166 13.595397749885068 0 -1 0 0 0 -1 forward_v I I I I #
coedge $-1 $131 $90 $93 $132 forward $39 $-1 #
coedge $-1 $96 $41 $42 $84 reversed $23 $-1 #
coedge $-1 $90 $131 $41 $82 reversed $39 $-1 #
edge $-1 $97 -13.595397749885068 $133 13.595397749885068 $81 $134 forward 7 unknown #
coedge $-1 $43 $42 $131 $135 forward $15 $-1 #
edge $-1 $88 -62.55684072389904316 $133 62.55684072389904316 $80 $136 forward 7 unknown #
coedge $-1 $93 $92 $43 $86 reversed $77 $-1 #
edge $-1 $137 -62.55684072389904316 $87 62.55684072389904316 $85 $138 forward 7 unknown #
vertex $-1 $45 $139 #
vertex $-1 $99 $140 #
straight-curve $-1 125.1136814477980863 34.78684976342995583 0 0 -1 0 I I #
coedge $-1 $79 $81 $46 $91 reversed $39 $-1 #
edge $-1 $94 -34.78684976342995583 $97 34.78684976342995583 $90 $141 forward 7 unknown #
coedge $-1 $85 $47 $52 $100 forward $77 $-1 #
coedge $-1 $47 $85 $79 $132 reversed $77 $-1 #
vertex $-1 $48 $142 #
straight-curve $-1 62.55684072389904316 69.57369952685991166 27.19079549977013599 -1 0 0 I I #
coedge $-1 $49 $80 $51 $99 reversed $23 $-1 #
vertex $-1 $91 $143 #
straight-curve $-1 62.55684072389904316 0 27.19079549977013599 1 0 0 I I #
edge $-1 $54 -13.595397749885068 $88 13.595397749885068 $51 $144 forward 7 unknown #
edge $-1 $55 -13.595397749885068 $87 13.595397749885068 $52 $145 forward 7 unknown #
point $-1 125.1136814477980863 0 27.19079549977013599 #
point $-1 125.1136814477980863 69.57369952685991166 27.19079549977013599 #
face $-1 $-1 $72 $5 $-1 $146 reversed single #
loop $-1 $-1 $119 $57 #
plane-surface $-1 -4.626277313367976873 69.57369952685991166 5.50656429120732227 0 -1 0 0 0 -1 forward_v I I I I #
coedge $-1 $147 $117 $120 $148 forward $58 $-1 #
coedge $-1 $123 $60 $61 $111 reversed $31 $-1 #
coedge $-1 $117 $147 $60 $109 reversed $58 $-1 #
edge $-1 $124 -2.608090783898511233 $149 2.608090783898511678 $108 $150 forward 7 unknown #
coedge $-1 $62 $61 $147 $151 forward $19 $-1 #
edge $-1 $115 -4.626277313367976873 $149 4.626277313367976873 $107 $152 forward 7 unknown #
coedge $-1 $120 $119 $62 $113 reversed $104 $-1 #
edge $-1 $153 -4.626277313367976873 $114 4.626277313367976873 $112 $154 forward 7 unknown #
vertex $-1 $64 $155 #
vertex $-1 $126 $156 #
straight-curve $-1 0 34.78684976342995583 2.898473507308810593 0 -1 0 I I #
coedge $-1 $106 $108 $65 $118 reversed $58 $-1 #
edge $-1 $121 -34.78684976342995583 $124 34.78684976342995583 $117 $157 forward 7 unknown #
coedge $-1 $112 $66 $71 $127 forward $104 $-1 #
coedge $-1 $66 $112 $106 $148 reversed $104 $-1 #
vertex $-1 $67 $158 #
straight-curve $-1 -4.626277313367976873 69.57369952685991166 8.114655075105833504 -1 0 0 I I #
coedge $-1 $68 $107 $70 $126 reversed $31 $-1 #
vertex $-1 $118 $159 #
straight-curve $-1 -4.626277313367976873 0 8.114655075105833504 1 0 0 I I #
edge $-1 $73 -2.608090783898511233 $115 2.608090783898511678 $70 $160 forward 7 unknown #
edge $-1 $74 -2.608090783898511233 $114 2.608090783898511678 $71 $161 forward 7 unknown #
point $-1 0 0 8.114655075105833504 #
point $-1 0 69.57369952685991166 8.114655075105833504 #
plane-surface $-1 125.1136814477980863 34.78684976342995583 13.595397749885068 -1 0 0 0 0 1 forward_v I I I I #
coedge $-1 $81 $79 $83 $135 reversed $39 $-1 #
edge $-1 $94 -13.595397749885068 $137 13.595397749885068 $93 $162 forward 7 unknown #
vertex $-1 $135 $163 #
straight-curve $-1 0 0 13.595397749885068 0 0 -1 I I #
edge $-1 $133 -34.78684976342995583 $137 34.78684976342995583 $131 $164 forward 7 unknown #
straight-curve $-1 62.55684072389904316 0 0 -1 0 0 I I #
vertex $-1 $86 $165 #
straight-curve $-1 62.55684072389904316 69.57369952685991166 0 1 0 0 I I #
point $-1 125.1136814477980863 69.57369952685991166 0 #
point $-1 125.1136814477980863 0 0 #
straight-curve $-1 0 34.78684976342995583 27.19079549977013599 0 -1 0 I I #
point $-1 0 69.57369952685991166 27.19079549977013599 #
point $-1 0 0 27.19079549977013599 #
straight-curve $-1 125.1136814477980863 0 13.595397749885068 0 0 -1 I I #
straight-curve $-1 125.1136814477980863 69.57369952685991166 13.595397749885068 0 0 -1 I I #
plane-surface $-1 0 34.78684976342995583 5.50656429120732227 -1 0 0 0 0 1 forward_v I I I I #
coedge $-1 $108 $106 $110 $151 reversed $58 $-1 #
edge $-1 $121 -2.608090783898511233 $153 2.608090783898511678 $120 $166 forward 7 unknown #
vertex $-1 $151 $167 #
straight-curve $-1 -9.252554626735953747 0 5.50656429120732227 0 0 -1 I I #
edge $-1 $149 -34.78684976342995583 $153 34.78684976342995583 $147 $168 forward 7 unknown #
straight-curve $-1 -4.626277313367976873 0 2.898473507308810593 -1 0 0 I I #
vertex $-1 $113 $169 #
straight-curve $-1 -4.626277313367976873 69.57369952685991166 2.898473507308810593 1 0 0 I I #
point $-1 0 69.57369952685991166 2.898473507308810593 #
point $-1 0 0 2.898473507308810593 #
straight-curve $-1 -9.252554626735953747 34.78684976342995583 8.114655075105833504 0 -1 0 I I #
point $-1 -9.252554626735953747 69.57369952685991166 8.114655075105833504 #
point $-1 -9.252554626735953747 0 8.114655075105833504 #
straight-curve $-1 0 0 5.50656429120732227 0 0 -1 I I #
straight-curve $-1 0 69.57369952685991166 5.50656429120732227 0 0 -1 I I #
straight-curve $-1 0 69.57369952685991166 13.595397749885068 0 0 -1 I I #
point $-1 0 0 0 #
straight-curve $-1 0 34.78684976342995583 0 0 1 0 I I #
point $-1 0 69.57369952685991166 0 #
straight-curve $-1 -9.252554626735953747 69.57369952685991166 5.50656429120732227 0 0 -1 I I #
point $-1 -9.252554626735953747 0 2.898473507308810593 #
straight-curve $-1 -9.252554626735953747 34.78684976342995583 2.898473507308810593 0 1 0 I I #
point $-1 -9.252554626735953747 69.57369952685991166 2.898473507308810593 #
End-of-ACIS-data 