500 0 3 0           
7 Unknown 11 ACIS 5.0 NT 24 Thu Mar 25 15:29:29 1999 
-1 9.9999999999999995e-007 1e-010 
body $-1 $3 $-1 $4 #
body $-1 $5 $-1 $6 #
body $-1 $7 $-1 $8 #
lump $-1 $-1 $9 $0 #
transform $-1 1 0 0 0 1 0 0 0 1 77.090975676747945 39.894762247096615 19.03313883797609 1 rotate no_reflect no_shear #
lump $-1 $-1 $10 $1 #
transform $-1 1 0 0 0 1 0 0 0 1 77.090975676747945 39.894762247096615 19.03313883797609 1 rotate no_reflect no_shear #
lump $-1 $-1 $11 $2 #
transform $-1 1 0 0 0 1 0 0 0 1 77.090975676747945 39.894762247096615 19.03313883797609 1 rotate no_reflect no_shear #
shell $-1 $-1 $-1 $12 $-1 $3 #
shell $-1 $-1 $-1 $13 $-1 $5 #
shell $-1 $-1 $-1 $14 $-1 $7 #
face $-1 $15 $16 $9 $-1 $17 forward single #
face $-1 $18 $19 $10 $-1 $20 forward single #
face $-1 $21 $22 $11 $-1 $23 forward single #
face $-1 $24 $25 $9 $-1 $26 reversed single #
loop $-1 $-1 $27 $12 #
plane-surface $-1 0 0 19.03313883797609 0 0 1 1 0 0 forward_v I I I I #
face $-1 $28 $29 $10 $-1 $30 reversed single #
loop $-1 $-1 $31 $13 #
plane-surface $-1 -77.090975676747945 0 0 1 0 0 0 0 -1 forward_v I I I I #
face $-1 $32 $33 $11 $-1 $34 reversed single #
loop $-1 $-1 $35 $14 #
plane-surface $-1 77.090975676747945 0 0 -1 0 0 0 0 1 forward_v I I I I #
face $-1 $36 $37 $9 $-1 $38 reversed single #
loop $-1 $-1 $39 $15 #
plane-surface $-1 0 0 -19.03313883797609 0 0 1 1 0 0 forward_v I I I I #
coedge $-1 $40 $41 $42 $43 forward $16 $-1 #
face $-1 $44 $45 $10 $-1 $46 forward single #
loop $-1 $-1 $47 $18 #
plane-surface $-1 0 39.894762247096615 0 0 -1 0 0 0 -1 forward_v I I I I #
coedge $-1 $48 $49 $50 $51 forward $19 $-1 #
face $-1 $52 $53 $11 $-1 $54 forward single #
loop $-1 $-1 $55 $21 #
plane-surface $-1 0 -39.894762247096615 0 0 1 0 0 0 1 forward_v I I I I #
coedge $-1 $56 $57 $58 $59 forward $22 $-1 #
face $-1 $60 $61 $9 $-1 $62 reversed single #
loop $-1 $-1 $63 $24 #
plane-surface $-1 0 -39.894762247096615 0 0 1 0 0 0 1 forward_v I I I I #
coedge $-1 $64 $65 $66 $67 forward $25 $-1 #
coedge $-1 $68 $27 $69 $70 forward $16 $-1 #
coedge $-1 $27 $68 $71 $72 forward $16 $-1 #
coedge $-1 $73 $74 $27 $43 reversed $75 $-1 #
edge $-1 $76 -39.894762247096615 $77 39.894762247096615 $42 $78 forward 7 unknown #
face $-1 $79 $80 $10 $-1 $81 reversed single #
loop $-1 $-1 $50 $28 #
plane-surface $-1 -83.52794291985731 0 3.7445783328098177 0 0 1 1 0 0 forward_v I I I I #
coedge $-1 $82 $83 $49 $84 forward $29 $-1 #
coedge $-1 $85 $31 $86 $87 reversed $19 $-1 #
coedge $-1 $31 $85 $47 $84 reversed $19 $-1 #
coedge $-1 $88 $89 $31 $51 reversed $45 $-1 #
edge $-1 $90 -39.894762247096615 $91 39.894762247096615 $50 $92 forward 7 unknown #
face $-1 $93 $94 $11 $-1 $95 reversed single #
loop $-1 $-1 $96 $32 #
plane-surface $-1 83.52794291985731 0 3.7445783328098177 0 0 1 1 0 0 forward_v I I I I #
coedge $-1 $97 $98 $57 $99 forward $33 $-1 #
coedge $-1 $100 $35 $101 $102 reversed $22 $-1 #
coedge $-1 $35 $100 $55 $99 reversed $22 $-1 #
coedge $-1 $103 $104 $35 $59 reversed $53 $-1 #
edge $-1 $105 -39.894762247096615 $106 39.894762247096615 $58 $107 forward 7 unknown #
face $-1 $108 $109 $9 $-1 $110 reversed single #
loop $-1 $-1 $111 $36 #
plane-surface $-1 -77.090975676747945 0 0 1 0 0 0 0 -1 forward_v I I I I #
coedge $-1 $112 $71 $113 $114 forward $37 $-1 #
coedge $-1 $115 $39 $112 $116 forward $25 $-1 #
coedge $-1 $39 $115 $117 $118 forward $25 $-1 #
coedge $-1 $74 $73 $39 $67 reversed $75 $-1 #
edge $-1 $119 -39.894762247096615 $120 39.894762247096615 $66 $121 forward 7 unknown #
coedge $-1 $41 $40 $122 $123 forward $16 $-1 #
coedge $-1 $124 $125 $40 $70 reversed $109 $-1 #
edge $-1 $77 -77.090975676747945 $126 77.090975676747945 $69 $127 forward 7 unknown #
coedge $-1 $63 $128 $41 $72 reversed $37 $-1 #
edge $-1 $129 -77.090975676747945 $76 77.090975676747945 $71 $130 forward 7 unknown #
coedge $-1 $66 $42 $128 $131 forward $75 $-1 #
coedge $-1 $42 $66 $124 $132 reversed $75 $-1 #
loop $-1 $-1 $73 $108 #
vertex $-1 $43 $133 #
vertex $-1 $43 $134 #
straight-curve $-1 77.090975676747945 0 19.03313883797609 0 1 0 I I #
face $-1 $135 $136 $10 $-1 $137 reversed single #
loop $-1 $-1 $138 $44 #
plane-surface $-1 -83.52794291985731 0 -3.3504312088126316 0 0 1 1 0 0 forward_v I I I I #
coedge $-1 $139 $47 $140 $141 reversed $29 $-1 #
coedge $-1 $47 $139 $88 $142 reversed $29 $-1 #
edge $-1 $90 -3.7445783328098177 $143 3.3504312088126316 $47 $144 forward 7 unknown #
coedge $-1 $49 $48 $138 $145 forward $19 $-1 #
coedge $-1 $146 $147 $48 $87 forward $148 $-1 #
edge $-1 $149 -3.3504312088126316 $91 3.7445783328098177 $86 $150 forward 7 unknown #
coedge $-1 $151 $50 $83 $142 forward $45 $-1 #
coedge $-1 $50 $151 $146 $152 forward $45 $-1 #
vertex $-1 $84 $153 #
vertex $-1 $152 $154 #
straight-curve $-1 -77.090975676747945 0 3.7445783328098177 0 -1 0 I I #
face $-1 $155 $156 $11 $-1 $157 reversed single #
loop $-1 $-1 $158 $52 #
plane-surface $-1 83.52794291985731 0 -3.3504312088126316 0 0 1 1 0 0 forward_v I I I I #
coedge $-1 $104 $103 $159 $160 forward $53 $-1 #
coedge $-1 $161 $55 $162 $163 reversed $33 $-1 #
coedge $-1 $55 $161 $103 $164 reversed $33 $-1 #
edge $-1 $105 -3.7445783328098177 $165 3.3504312088126316 $55 $166 forward 7 unknown #
coedge $-1 $57 $56 $167 $168 forward $22 $-1 #
coedge $-1 $169 $170 $56 $102 forward $171 $-1 #
edge $-1 $172 -3.3504312088126316 $106 3.7445783328098177 $101 $173 forward 7 unknown #
coedge $-1 $96 $58 $98 $164 forward $53 $-1 #
coedge $-1 $58 $96 $169 $174 forward $53 $-1 #
vertex $-1 $99 $175 #
vertex $-1 $174 $176 #
straight-curve $-1 77.090975676747945 0 3.7445783328098177 0 1 0 I I #
face $-1 $-1 $75 $9 $-1 $177 reversed single #
loop $-1 $-1 $124 $60 #
plane-surface $-1 0 39.894762247096615 0 0 -1 0 0 0 -1 forward_v I I I I #
coedge $-1 $178 $122 $125 $179 forward $61 $-1 #
coedge $-1 $128 $63 $64 $116 reversed $37 $-1 #
coedge $-1 $122 $178 $63 $114 reversed $61 $-1 #
edge $-1 $129 -19.03313883797609 $180 19.03313883797609 $113 $181 forward 7 unknown #
coedge $-1 $65 $64 $178 $182 forward $25 $-1 #
edge $-1 $120 -77.090975676747945 $180 77.090975676747945 $112 $183 forward 7 unknown #
coedge $-1 $125 $124 $65 $118 reversed $109 $-1 #
edge $-1 $184 -77.090975676747945 $119 77.090975676747945 $117 $185 forward 7 unknown #
vertex $-1 $67 $186 #
vertex $-1 $131 $187 #
straight-curve $-1 77.090975676747945 0 -19.03313883797609 0 -1 0 I I #
coedge $-1 $111 $113 $68 $123 reversed $61 $-1 #
edge $-1 $126 -39.894762247096615 $129 39.894762247096615 $122 $188 forward 7 unknown #
coedge $-1 $117 $69 $74 $132 forward $109 $-1 #
coedge $-1 $69 $117 $111 $179 reversed $109 $-1 #
vertex $-1 $70 $189 #
straight-curve $-1 0 39.894762247096615 19.03313883797609 -1 0 0 I I #
coedge $-1 $71 $112 $73 $131 reversed $37 $-1 #
vertex $-1 $123 $190 #
straight-curve $-1 0 -39.894762247096615 19.03313883797609 1 0 0 I I #
edge $-1 $76 -19.03313883797609 $120 19.03313883797609 $73 $191 forward 7 unknown #
edge $-1 $77 -19.03313883797609 $119 19.03313883797609 $74 $192 forward 7 unknown #
point $-1 77.090975676747945 -39.894762247096615 19.03313883797609 #
point $-1 77.090975676747945 39.894762247096615 19.03313883797609 #
face $-1 $-1 $148 $10 $-1 $193 reversed single #
loop $-1 $-1 $194 $79 #
plane-surface $-1 -89.964910162966675 0 0.19707356199859305 1 0 0 0 0 -1 forward_v I I I I #
coedge $-1 $195 $140 $85 $145 reversed $80 $-1 #
coedge $-1 $83 $82 $194 $196 reversed $29 $-1 #
coedge $-1 $138 $197 $82 $141 forward $80 $-1 #
edge $-1 $198 -6.4369672431093647 $143 6.4369672431093647 $82 $199 forward 7 unknown #
edge $-1 $90 -6.4369672431093647 $200 6.4369672431093647 $83 $201 forward 7 unknown #
vertex $-1 $84 $202 #
straight-curve $-1 -77.090975676747945 39.894762247096615 0 0 0 -1 I I #
edge $-1 $149 -39.894762247096615 $143 39.894762247096615 $138 $203 forward 7 unknown #
coedge $-1 $204 $86 $89 $152 reversed $148 $-1 #
coedge $-1 $86 $204 $195 $205 reversed $148 $-1 #
loop $-1 $-1 $86 $135 #
vertex $-1 $87 $206 #
straight-curve $-1 -77.090975676747945 -39.894762247096615 0 0 0 1 I I #
coedge $-1 $89 $88 $207 $208 forward $45 $-1 #
edge $-1 $209 -6.4369672431093647 $91 6.4369672431093647 $146 $210 forward 7 unknown #
point $-1 -77.090975676747945 39.894762247096615 3.7445783328098177 #
point $-1 -77.090975676747945 -39.894762247096615 3.7445783328098177 #
face $-1 $-1 $171 $11 $-1 $211 reversed single #
loop $-1 $-1 $212 $93 #
plane-surface $-1 89.964910162966675 0 0.19707356199859305 -1 0 0 0 0 1 forward_v I I I I #
coedge $-1 $162 $213 $214 $215 forward $94 $-1 #
coedge $-1 $212 $216 $96 $160 reversed $156 $-1 #
edge $-1 $217 -39.894762247096615 $218 39.894762247096615 $159 $219 forward 7 unknown #
coedge $-1 $98 $97 $212 $220 reversed $33 $-1 #
coedge $-1 $167 $158 $97 $163 forward $94 $-1 #
edge $-1 $221 -6.4369672431093647 $165 6.4369672431093647 $97 $222 forward 7 unknown #
edge $-1 $105 -6.4369672431093647 $217 6.4369672431093647 $98 $223 forward 7 unknown #
vertex $-1 $99 $224 #
straight-curve $-1 77.090975676747945 -39.894762247096615 0 0 0 -1 I I #
coedge $-1 $213 $162 $100 $168 reversed $94 $-1 #
edge $-1 $172 -39.894762247096615 $165 39.894762247096615 $167 $225 forward 7 unknown #
coedge $-1 $226 $101 $104 $174 reversed $171 $-1 #
coedge $-1 $101 $226 $213 $227 reversed $171 $-1 #
loop $-1 $-1 $101 $155 #
vertex $-1 $102 $228 #
straight-curve $-1 77.090975676747945 39.894762247096615 0 0 0 1 I I #
edge $-1 $218 -6.4369672431093647 $106 6.4369672431093647 $169 $229 forward 7 unknown #
point $-1 77.090975676747945 -39.894762247096615 3.7445783328098177 #
point $-1 77.090975676747945 39.894762247096615 3.7445783328098177 #
plane-surface $-1 77.090975676747945 0 0 -1 0 0 0 0 1 forward_v I I I I #
coedge $-1 $113 $111 $115 $182 reversed $61 $-1 #
edge $-1 $126 -19.03313883797609 $184 19.03313883797609 $125 $230 forward 7 unknown #
vertex $-1 $182 $231 #
straight-curve $-1 -77.090975676747945 -39.894762247096615 0 0 0 -1 I I #
edge $-1 $180 -39.894762247096615 $184 39.894762247096615 $178 $232 forward 7 unknown #
straight-curve $-1 0 -39.894762247096615 -19.03313883797609 -1 0 0 I I #
vertex $-1 $118 $233 #
straight-curve $-1 0 39.894762247096615 -19.03313883797609 1 0 0 I I #
point $-1 77.090975676747945 39.894762247096615 -19.03313883797609 #
point $-1 77.090975676747945 -39.894762247096615 -19.03313883797609 #
straight-curve $-1 -77.090975676747945 0 19.03313883797609 0 -1 0 I I #
point $-1 -77.090975676747945 39.894762247096615 19.03313883797609 #
point $-1 -77.090975676747945 -39.894762247096615 19.03313883797609 #
straight-curve $-1 77.090975676747945 -39.894762247096615 0 0 0 -1 I I #
straight-curve $-1 77.090975676747945 39.894762247096615 0 0 0 -1 I I #
plane-surface $-1 0 -39.894762247096615 0 0 1 0 0 0 1 forward_v I I I I #
coedge $-1 $234 $207 $139 $196 forward $136 $-1 #
coedge $-1 $197 $138 $147 $205 forward $80 $-1 #
edge $-1 $200 -3.5475047708112246 $198 3.5475047708112246 $139 $235 forward 7 unknown #
coedge $-1 $140 $195 $234 $236 forward $80 $-1 #
vertex $-1 $141 $237 #
straight-curve $-1 -83.52794291985731 39.894762247096615 -3.3504312088126316 1 0 0 I I #
vertex $-1 $142 $238 #
straight-curve $-1 -83.52794291985731 39.894762247096615 3.7445783328098177 -1 0 0 I I #
point $-1 -77.090975676747945 39.894762247096615 -3.3504312088126316 #
straight-curve $-1 -77.090975676747945 0 -3.3504312088126316 0 1 0 I I #
coedge $-1 $147 $146 $239 $240 forward $148 $-1 #
edge $-1 $149 -6.4369672431093647 $241 6.4369672431093647 $147 $242 forward 7 unknown #
point $-1 -77.090975676747945 -39.894762247096615 -3.3504312088126316 #
coedge $-1 $194 $239 $151 $208 reversed $136 $-1 #
edge $-1 $200 -39.894762247096615 $209 39.894762247096615 $207 $243 forward 7 unknown #
vertex $-1 $208 $244 #
straight-curve $-1 -83.52794291985731 -39.894762247096615 3.7445783328098177 1 0 0 I I #
plane-surface $-1 0 39.894762247096615 0 0 -1 0 0 0 -1 forward_v I I I I #
coedge $-1 $214 $159 $161 $220 forward $156 $-1 #
coedge $-1 $158 $167 $170 $227 forward $94 $-1 #
coedge $-1 $216 $212 $158 $215 reversed $156 $-1 #
edge $-1 $245 -39.894762247096615 $221 39.894762247096615 $214 $246 forward 7 unknown #
coedge $-1 $159 $214 $226 $247 reversed $156 $-1 #
vertex $-1 $160 $248 #
vertex $-1 $160 $249 #
straight-curve $-1 89.964910162966675 0 3.7445783328098177 0 1 0 I I #
edge $-1 $217 -3.5475047708112246 $221 3.5475047708112246 $212 $250 forward 7 unknown #
vertex $-1 $220 $251 #
straight-curve $-1 83.52794291985731 -39.894762247096615 -3.3504312088126316 -1 0 0 I I #
straight-curve $-1 83.52794291985731 -39.894762247096615 3.7445783328098177 1 0 0 I I #
point $-1 77.090975676747945 -39.894762247096615 -3.3504312088126316 #
straight-curve $-1 77.090975676747945 0 -3.3504312088126316 0 -1 0 I I #
coedge $-1 $170 $169 $216 $247 forward $171 $-1 #
edge $-1 $172 -6.4369672431093647 $245 6.4369672431093647 $170 $252 forward 7 unknown #
point $-1 77.090975676747945 39.894762247096615 -3.3504312088126316 #
straight-curve $-1 83.52794291985731 39.894762247096615 3.7445783328098177 -1 0 0 I I #
straight-curve $-1 -77.090975676747945 39.894762247096615 0 0 0 -1 I I #
point $-1 -77.090975676747945 -39.894762247096615 -19.03313883797609 #
straight-curve $-1 -77.090975676747945 0 -19.03313883797609 0 1 0 I I #
point $-1 -77.090975676747945 39.894762247096615 -19.03313883797609 #
coedge $-1 $239 $194 $197 $236 reversed $136 $-1 #
straight-curve $-1 -89.964910162966675 39.894762247096615 0.19707356199859305 0 0 -1 I I #
edge $-1 $241 -39.894762247096615 $198 39.894762247096615 $234 $253 forward 7 unknown #
point $-1 -89.964910162966675 39.894762247096615 -3.3504312088126316 #
point $-1 -89.964910162966675 39.894762247096615 3.7445783328098177 #
coedge $-1 $207 $234 $204 $240 reversed $136 $-1 #
edge $-1 $209 -3.5475047708112246 $241 3.5475047708112246 $239 $254 forward 7 unknown #
vertex $-1 $236 $255 #
straight-curve $-1 -83.52794291985731 -39.894762247096615 -3.3504312088126316 -1 0 0 I I #
straight-curve $-1 -89.964910162966675 0 3.7445783328098177 0 -1 0 I I #
point $-1 -89.964910162966675 -39.894762247096615 3.7445783328098177 #
vertex $-1 $215 $256 #
straight-curve $-1 89.964910162966675 0 -3.3504312088126316 0 -1 0 I I #
edge $-1 $218 -3.5475047708112246 $245 3.5475047708112246 $216 $257 forward 7 unknown #
point $-1 89.964910162966675 -39.894762247096615 3.7445783328098177 #
point $-1 89.964910162966675 39.894762247096615 3.7445783328098177 #
straight-curve $-1 89.964910162966675 -39.894762247096615 0.19707356199859305 0 0 -1 I I #
point $-1 89.964910162966675 -39.894762247096615 -3.3504312088126316 #
straight-curve $-1 83.52794291985731 39.894762247096615 -3.3504312088126316 1 0 0 I I #
straight-curve $-1 -89.964910162966675 0 -3.3504312088126316 0 1 0 I I #
straight-curve $-1 -89.964910162966675 -39.894762247096615 0.19707356199859305 0 0 -1 I I #
point $-1 -89.964910162966675 -39.894762247096615 -3.3504312088126316 #
point $-1 89.964910162966675 39.894762247096615 -3.3504312088126316 #
straight-curve $-1 89.964910162966675 39.894762247096615 0.19707356199859305 0 0 -1 I I #
End-of-ACIS-data 