500 0 5 0           
7 Unknown 11 ACIS 5.0 NT 24 Fri Mar 26 17:26:19 1999 
-1 9.9999999999999995e-007 1e-010 
body $-1 $5 $-1 $6 #
body $-1 $7 $-1 $8 #
body $-1 $9 $-1 $10 #
body $-1 $11 $-1 $12 #
body $-1 $13 $-1 $14 #
lump $-1 $-1 $15 $0 #
transform $-1 1 0 0 0 1 0 0 0 1 72.084719382305366 47.957336608371342 20.634226949048202 1 rotate no_reflect no_shear #
lump $-1 $-1 $16 $1 #
transform $-1 1 0 0 0 1 0 0 0 1 72.084719382305366 47.957336608371342 20.634226949048202 1 rotate no_reflect no_shear #
lump $-1 $-1 $17 $2 #
transform $-1 1 0 0 0 1 0 0 0 1 72.084719382305366 47.957336608371342 20.634226949048202 1 rotate no_reflect no_shear #
lump $-1 $-1 $18 $3 #
transform $-1 1 0 0 0 1 0 0 0 1 72.084719382305366 47.957336608371342 20.634226949048202 1 rotate no_reflect no_shear #
lump $-1 $-1 $19 $4 #
transform $-1 1 0 0 0 1 0 0 0 1 72.084719382305366 47.957336608371342 20.634226949048202 1 rotate no_reflect no_shear #
shell $-1 $-1 $-1 $20 $-1 $5 #
shell $-1 $-1 $-1 $21 $-1 $7 #
shell $-1 $-1 $-1 $22 $-1 $9 #
shell $-1 $-1 $-1 $23 $-1 $11 #
shell $-1 $-1 $-1 $24 $-1 $13 #
face $-1 $25 $26 $15 $-1 $27 forward single #
face $-1 $28 $29 $16 $-1 $30 forward single #
face $-1 $31 $32 $17 $-1 $33 forward single #
face $-1 $34 $35 $18 $-1 $36 reversed single #
face $-1 $37 $38 $19 $-1 $39 forward single #
face $-1 $40 $41 $15 $-1 $42 reversed single #
loop $-1 $-1 $43 $20 #
plane-surface $-1 0 0 20.634226949048202 0 0 1 1 0 0 forward_v I I I I #
face $-1 $44 $45 $16 $-1 $46 reversed single #
loop $-1 $-1 $47 $21 #
plane-surface $-1 0 -47.957336608371342 0 0 1 0 0 0 1 forward_v I I I I #
face $-1 $48 $49 $17 $-1 $50 reversed single #
loop $-1 $-1 $51 $22 #
plane-surface $-1 0 47.957336608371342 0 0 -1 0 0 0 -1 forward_v I I I I #
face $-1 $52 $53 $18 $-1 $54 reversed single #
loop $-1 $-1 $55 $23 #
plane-surface $-1 57.862326927406485 5.4322741567546373 218.28035341359285 0 -1 0 -0.6560590369687036 0 -0.75470957328743171 forward_v I I I I #
face $-1 $56 $57 $19 $-1 $58 forward single #
loop $-1 $59 $60 $24 #
cone-surface $-1 67.044742855245104 0.17145767122866573 15.764985167300015 -0.6560590369687036 0 -0.75470957328743171 1.1320643599311475 0 -0.9840885554530554 1 I I 0 1 1.5 forward I I I I #
face $-1 $61 $62 $15 $-1 $63 reversed single #
loop $-1 $-1 $64 $25 #
plane-surface $-1 0 0 -20.634226949048202 0 0 1 1 0 0 forward_v I I I I #
coedge $-1 $65 $66 $67 $68 forward $26 $-1 #
face $-1 $69 $70 $16 $-1 $71 reversed single #
loop $-1 $-1 $72 $28 #
plane-surface $-1 0 0 -20.634226949048202 0 0 1 1 0 0 forward_v I I I I #
coedge $-1 $73 $74 $75 $76 forward $29 $-1 #
face $-1 $77 $78 $17 $-1 $79 forward single #
loop $-1 $-1 $80 $31 #
plane-surface $-1 -72.084719382305366 0 0 1 0 0 0 0 -1 forward_v I I I I #
coedge $-1 $81 $82 $83 $84 forward $32 $-1 #
face $-1 $85 $86 $18 $-1 $87 reversed single #
loop $-1 $-1 $88 $34 #
plane-surface $-1 -36.721336228822523 0.17145767122866573 109.47429780246497 0.6560590369687036 0 0.75470957328743171 0.75470957328743171 0 -0.6560590369687036 forward_v I I I I #
coedge $-1 $89 $90 $91 $92 reversed $35 $-1 #
face $-1 $-1 $93 $19 $-1 $94 forward single #
loop $-1 $95 $96 $37 #
cone-surface $-1 64.81634554448172 0.17145767122866573 13.201507356992348 -0.6560590369687036 0 -0.75470957328743171 0.56603217996557376 0 -0.4920442777265277 1 I I -0.70710678118654757 0.70710678118654757 0.75 forward I I I I #
loop $-1 $-1 $97 $24 #
coedge $-1 $60 $60 $98 $99 reversed $38 $-1 #
face $-1 $100 $101 $15 $-1 $102 reversed single #
loop $-1 $-1 $103 $40 #
plane-surface $-1 0 -47.957336608371342 0 0 1 0 0 0 1 forward_v I I I I #
coedge $-1 $104 $105 $106 $107 forward $41 $-1 #
coedge $-1 $108 $43 $109 $110 forward $26 $-1 #
coedge $-1 $43 $108 $111 $112 forward $26 $-1 #
coedge $-1 $113 $114 $43 $68 reversed $115 $-1 #
edge $-1 $116 -47.957336608371342 $117 47.957336608371342 $67 $118 forward 7 unknown #
face $-1 $119 $120 $16 $-1 $121 forward single #
loop $-1 $-1 $122 $44 #
plane-surface $-1 72.084719382305366 0 0 -1 0 0 0 0 1 forward_v I I I I #
coedge $-1 $123 $124 $125 $126 forward $45 $-1 #
coedge $-1 $125 $47 $122 $127 reversed $29 $-1 #
coedge $-1 $47 $125 $128 $129 reversed $29 $-1 #
coedge $-1 $130 $131 $47 $76 reversed $120 $-1 #
edge $-1 $132 -72.084719382305366 $133 72.084719382305366 $75 $134 forward 7 unknown #
face $-1 $135 $136 $17 $-1 $137 reversed single #
loop $-1 $-1 $138 $48 #
plane-surface $-1 0 55.708839913853303 -13.461775455036873 0 0 1 1 0 0 forward_v I I I I #
coedge $-1 $139 $140 $81 $141 forward $49 $-1 #
coedge $-1 $142 $51 $80 $141 reversed $32 $-1 #
coedge $-1 $51 $142 $143 $144 reversed $32 $-1 #
coedge $-1 $138 $145 $51 $84 reversed $78 $-1 #
edge $-1 $146 -72.084719382305366 $147 72.084719382305366 $83 $148 forward 7 unknown #
face $-1 $149 $150 $18 $-1 $151 forward single #
loop $-1 $-1 $152 $52 #
plane-surface $-1 57.862326927406485 -5.0893588142973059 218.28035341359285 0 1 0 0.6560590369687036 0 0.75470957328743171 forward_v I I I I #
coedge $-1 $153 $154 $155 $156 reversed $53 $-1 #
coedge $-1 $90 $55 $157 $158 reversed $35 $-1 #
coedge $-1 $55 $89 $153 $159 reversed $35 $-1 #
coedge $-1 $155 $160 $55 $92 forward $150 $-1 #
edge $-1 $161 -43.153555918602123 $162 -36.546308930555256 $91 $163 forward 7 unknown #
loop $-1 $-1 $98 $56 #
plane-surface $-1 -36.721336228822523 0.17145767122866573 109.47429780246497 0.6560590369687036 0 0.75470957328743171 0.75470957328743171 0 -0.6560590369687036 forward_v I I I I #
loop $-1 $-1 $164 $37 #
coedge $-1 $96 $96 $97 $165 reversed $57 $-1 #
coedge $-1 $97 $97 $96 $165 forward $59 $-1 #
coedge $-1 $98 $98 $60 $99 forward $93 $-1 #
edge $-1 $166 0 $166 6.2831853071796004 $98 $167 forward 7 unknown #
face $-1 $168 $169 $15 $-1 $170 reversed single #
loop $-1 $-1 $171 $61 #
plane-surface $-1 -72.084719382305366 0 0 1 0 0 0 0 -1 forward_v I I I I #
coedge $-1 $111 $172 $113 $173 reversed $62 $-1 #
coedge $-1 $174 $64 $172 $175 forward $41 $-1 #
coedge $-1 $64 $174 $176 $177 forward $41 $-1 #
coedge $-1 $114 $113 $64 $107 reversed $115 $-1 #
edge $-1 $178 -47.957336608371342 $179 47.957336608371342 $106 $180 forward 7 unknown #
coedge $-1 $66 $65 $181 $182 forward $26 $-1 #
coedge $-1 $183 $184 $65 $110 reversed $169 $-1 #
edge $-1 $117 -72.084719382305366 $185 72.084719382305366 $109 $186 forward 7 unknown #
coedge $-1 $187 $103 $66 $112 reversed $62 $-1 #
edge $-1 $188 -72.084719382305366 $116 72.084719382305366 $111 $189 forward 7 unknown #
coedge $-1 $106 $67 $103 $173 forward $115 $-1 #
coedge $-1 $67 $106 $183 $190 reversed $115 $-1 #
loop $-1 $-1 $113 $168 #
vertex $-1 $68 $191 #
vertex $-1 $68 $192 #
straight-curve $-1 72.084719382305366 0 20.634226949048202 0 1 0 I I #
face $-1 $193 $194 $16 $-1 $195 reversed single #
loop $-1 $-1 $131 $69 #
plane-surface $-1 0 -55.708839913853303 -13.461775455036873 0 0 1 1 0 0 forward_v I I I I #
coedge $-1 $196 $197 $73 $127 forward $70 $-1 #
coedge $-1 $198 $72 $197 $199 forward $45 $-1 #
coedge $-1 $72 $198 $200 $201 forward $45 $-1 #
coedge $-1 $74 $73 $72 $126 reversed $29 $-1 #
edge $-1 $202 -72.084719382305366 $203 72.084719382305366 $72 $204 forward 7 unknown #
edge $-1 $203 -20.634226949048202 $133 -13.461775455036873 $122 $205 forward 7 unknown #
coedge $-1 $200 $206 $74 $129 forward $207 $-1 #
edge $-1 $132 13.461775455036873 $202 20.634226949048202 $128 $208 forward 7 unknown #
coedge $-1 $209 $75 $206 $210 forward $120 $-1 #
coedge $-1 $75 $209 $196 $211 forward $120 $-1 #
vertex $-1 $129 $212 #
vertex $-1 $211 $213 #
straight-curve $-1 0 -47.957336608371342 -13.461775455036873 1 0 0 I I #
face $-1 $214 $215 $17 $-1 $216 reversed single #
loop $-1 $-1 $217 $77 #
plane-surface $-1 0 63.460343219335265 -17.048001202042538 0 -1 0 0 0 -1 forward_v I I I I #
coedge $-1 $218 $83 $219 $220 forward $78 $-1 #
coedge $-1 $221 $80 $145 $222 reversed $49 $-1 #
coedge $-1 $80 $221 $223 $224 reversed $49 $-1 #
edge $-1 $225 -20.634226949048202 $147 -13.461775455036873 $80 $226 forward 7 unknown #
coedge $-1 $82 $81 $227 $228 reversed $32 $-1 #
coedge $-1 $229 $219 $82 $144 forward $230 $-1 #
edge $-1 $146 13.461775455036873 $231 20.634226949048202 $143 $232 forward 7 unknown #
coedge $-1 $83 $218 $139 $222 forward $78 $-1 #
vertex $-1 $144 $233 #
vertex $-1 $222 $234 #
straight-curve $-1 0 47.957336608371342 -13.461775455036873 -1 0 0 I I #
face $-1 $-1 $235 $18 $-1 $236 reversed single #
loop $-1 $-1 $91 $85 #
plane-surface $-1 0 0 20.634226949048202 0 0 1 1 0 0 forward_v I I I I #
coedge $-1 $237 $238 $239 $240 reversed $86 $-1 #
coedge $-1 $241 $88 $90 $159 forward $53 $-1 #
coedge $-1 $88 $241 $237 $242 forward $53 $-1 #
coedge $-1 $239 $91 $88 $156 forward $150 $-1 #
edge $-1 $162 -5.3465453211403045 $243 5.1750876499116387 $155 $244 forward 7 unknown #
coedge $-1 $245 $246 $89 $158 forward $235 $-1 #
edge $-1 $247 -94.249542060560458 $161 -88.505949757748226 $157 $248 forward 7 unknown #
edge $-1 $162 135.41475057473338 $247 144.16943876461073 $90 $249 forward 7 unknown #
coedge $-1 $91 $239 $245 $250 forward $150 $-1 #
vertex $-1 $158 $251 #
vertex $-1 $92 $252 #
straight-curve $-1 28.931163463703243 5.4322741567546373 20.634226949048198 -1 0 0 I I #
coedge $-1 $164 $164 $-1 $253 reversed $95 $-1 #
edge $-1 $254 0 $254 6.2831853071796004 $96 $255 forward 7 unknown #
vertex $-1 $99 $256 #
ellipse-curve $-1 68.781095888281925 0.17145767122866573 17.762430797642082 0.6560590369687036 0 0.75470957328743171 1.1320643599311475 0 -0.9840885554530554 1 I I #
face $-1 $-1 $115 $15 $-1 $257 reversed single #
loop $-1 $-1 $184 $100 #
plane-surface $-1 0 47.957336608371342 0 0 -1 0 0 0 -1 forward_v I I I I #
coedge $-1 $258 $181 $184 $259 forward $101 $-1 #
coedge $-1 $103 $187 $104 $175 reversed $62 $-1 #
edge $-1 $116 -20.634226949048202 $179 20.634226949048202 $113 $260 forward 7 unknown #
coedge $-1 $105 $104 $258 $261 forward $41 $-1 #
edge $-1 $179 -72.084719382305366 $262 72.084719382305366 $172 $263 forward 7 unknown #
coedge $-1 $184 $183 $105 $177 reversed $169 $-1 #
edge $-1 $264 -72.084719382305366 $178 72.084719382305366 $176 $265 forward 7 unknown #
vertex $-1 $107 $266 #
vertex $-1 $173 $267 #
straight-curve $-1 72.084719382305366 0 -20.634226949048202 0 -1 0 I I #
coedge $-1 $171 $268 $108 $182 reversed $101 $-1 #
edge $-1 $185 -47.957336608371342 $188 47.957336608371342 $181 $269 forward 7 unknown #
coedge $-1 $176 $109 $114 $190 forward $169 $-1 #
coedge $-1 $109 $176 $171 $259 reversed $169 $-1 #
vertex $-1 $110 $270 #
straight-curve $-1 0 47.957336608371342 20.634226949048202 -1 0 0 I I #
coedge $-1 $172 $111 $268 $271 forward $62 $-1 #
vertex $-1 $182 $272 #
straight-curve $-1 0 -47.957336608371342 20.634226949048202 1 0 0 I I #
edge $-1 $117 -20.634226949048202 $178 20.634226949048202 $114 $273 forward 7 unknown #
point $-1 72.084719382305366 -47.957336608371342 20.634226949048202 #
point $-1 72.084719382305366 47.957336608371342 20.634226949048202 #
face $-1 $-1 $207 $16 $-1 $274 reversed single #
loop $-1 $-1 $275 $119 #
plane-surface $-1 0 -63.460343219335265 -17.048001202042538 0 1 0 0 0 1 forward_v I I I I #
coedge $-1 $276 $122 $131 $211 reversed $70 $-1 #
coedge $-1 $122 $276 $123 $199 reversed $70 $-1 #
coedge $-1 $124 $123 $277 $278 forward $45 $-1 #
edge $-1 $203 47.957336608371342 $279 63.460343219335265 $197 $280 forward 7 unknown #
coedge $-1 $281 $128 $124 $201 reversed $207 $-1 #
edge $-1 $282 -63.460343219335265 $202 -47.957336608371342 $200 $283 forward 7 unknown #
vertex $-1 $129 $284 #
vertex $-1 $199 $285 #
straight-curve $-1 0 -47.957336608371342 -20.634226949048202 1 0 0 I I #
straight-curve $-1 72.084719382305366 -47.957336608371342 0 0 0 1 I I #
coedge $-1 $128 $281 $130 $210 reversed $207 $-1 #
loop $-1 $-1 $128 $193 #
straight-curve $-1 -72.084719382305366 -47.957336608371342 0 0 0 -1 I I #
coedge $-1 $131 $130 $286 $287 forward $120 $-1 #
edge $-1 $132 -7.7515033054819611 $288 7.7515033054819611 $206 $289 forward 7 unknown #
edge $-1 $290 -7.7515033054819611 $133 7.7515033054819611 $196 $291 forward 7 unknown #
point $-1 -72.084719382305366 -47.957336608371342 -13.461775455036873 #
point $-1 72.084719382305366 -47.957336608371342 -13.461775455036873 #
face $-1 $-1 $230 $17 $-1 $292 reversed single #
loop $-1 $-1 $227 $135 #
plane-surface $-1 0 0 -20.634226949048202 0 0 1 1 0 0 forward_v I I I I #
coedge $-1 $293 $294 $295 $296 forward $136 $-1 #
coedge $-1 $145 $138 $294 $297 forward $78 $-1 #
coedge $-1 $143 $295 $138 $220 reversed $230 $-1 #
edge $-1 $146 -7.7515033054819611 $298 7.7515033054819611 $219 $299 forward 7 unknown #
coedge $-1 $140 $139 $300 $301 forward $49 $-1 #
edge $-1 $302 -7.7515033054819611 $147 7.7515033054819611 $139 $303 forward 7 unknown #
coedge $-1 $304 $227 $140 $224 forward $215 $-1 #
edge $-1 $225 -7.7515033054819611 $305 7.7515033054819611 $140 $306 forward 7 unknown #
vertex $-1 $224 $307 #
straight-curve $-1 -72.084719382305366 47.957336608371342 0 0 0 1 I I #
coedge $-1 $223 $308 $142 $228 forward $215 $-1 #
edge $-1 $231 -72.084719382305366 $225 72.084719382305366 $227 $309 forward 7 unknown #
coedge $-1 $295 $143 $308 $310 reversed $230 $-1 #
loop $-1 $-1 $143 $214 #
vertex $-1 $144 $311 #
straight-curve $-1 72.084719382305366 47.957336608371342 0 0 0 -1 I I #
point $-1 72.084719382305366 47.957336608371342 -13.461775455036873 #
point $-1 -72.084719382305366 47.957336608371342 -13.461775455036873 #
loop $-1 $-1 $157 $149 #
plane-surface $-1 72.084719382305366 0 0 -1 0 0 0 0 1 forward_v I I I I #
coedge $-1 $238 $152 $154 $242 reversed $86 $-1 #
coedge $-1 $152 $237 $312 $313 reversed $86 $-1 #
coedge $-1 $160 $155 $152 $240 forward $150 $-1 #
edge $-1 $243 36.546308930555256 $314 43.153555918602123 $239 $315 forward 7 unknown #
coedge $-1 $154 $153 $246 $316 reversed $53 $-1 #
edge $-1 $317 -144.16943876461073 $243 -135.41475057473338 $237 $318 forward 7 unknown #
vertex $-1 $156 $319 #
straight-curve $-1 65.477472394258498 0.085728835614332866 20.634226949048212 0 -1 0 I I #
coedge $-1 $312 $157 $160 $250 reversed $235 $-1 #
coedge $-1 $157 $312 $241 $316 forward $235 $-1 #
vertex $-1 $158 $320 #
straight-curve $-1 72.084719382305366 5.4322741567546373 109.14017670679642 0 0 1 I I #
straight-curve $-1 -36.721336228822523 5.4322741567546373 109.47429780246497 0.75470957328743171 0 -0.6560590369687036 I I #
edge $-1 $314 -5.0893588142973059 $161 5.4322741567546373 $245 $321 forward 7 unknown #
point $-1 72.084719382305366 5.4322741567546373 20.634226949048202 #
point $-1 65.477472394258498 5.4322741567546373 20.634226949048198 #
edge $-1 $322 1 $322 0 $164 $-1 forward 7 unknown #
vertex $-1 $165 $323 #
ellipse-curve $-1 65.308389822208241 0.17145767122866573 13.767539536957921 0.6560590369687036 0 0.75470957328743171 1.1320643599311475 0 -0.9840885554530554 1 I I #
point $-1 69.913160248213089 0.17145767122866573 16.778342242189051 #
plane-surface $-1 72.084719382305366 0 0 -1 0 0 0 0 1 forward_v I I I I #
coedge $-1 $268 $171 $174 $261 reversed $101 $-1 #
edge $-1 $185 -20.634226949048202 $264 20.634226949048202 $184 $324 forward 7 unknown #
straight-curve $-1 72.084719382305366 -47.957336608371342 0 0 0 -1 I I #
edge $-1 $262 -47.957336608371342 $264 47.957336608371342 $258 $325 forward 7 unknown #
vertex $-1 $261 $326 #
straight-curve $-1 0 -47.957336608371342 -20.634226949048202 -1 0 0 I I #
vertex $-1 $177 $327 #
straight-curve $-1 0 47.957336608371342 -20.634226949048202 1 0 0 I I #
point $-1 72.084719382305366 47.957336608371342 -20.634226949048202 #
point $-1 72.084719382305366 -47.957336608371342 -20.634226949048202 #
coedge $-1 $181 $258 $187 $271 reversed $101 $-1 #
straight-curve $-1 -72.084719382305366 0 20.634226949048202 0 -1 0 I I #
point $-1 -72.084719382305366 47.957336608371342 20.634226949048202 #
edge $-1 $188 -20.634226949048202 $262 20.634226949048202 $268 $328 forward 7 unknown #
point $-1 -72.084719382305366 -47.957336608371342 20.634226949048202 #
straight-curve $-1 72.084719382305366 47.957336608371342 0 0 0 -1 I I #
plane-surface $-1 -72.084719382305366 0 0 1 0 0 0 0 -1 forward_v I I I I #
coedge $-1 $277 $286 $281 $329 forward $194 $-1 #
coedge $-1 $197 $196 $330 $331 forward $70 $-1 #
coedge $-1 $330 $275 $198 $278 reversed $194 $-1 #
edge $-1 $279 -72.084719382305366 $282 72.084719382305366 $277 $332 forward 7 unknown #
vertex $-1 $331 $333 #
straight-curve $-1 72.084719382305366 0 -20.634226949048202 0 -1 0 I I #
coedge $-1 $206 $200 $275 $329 reversed $207 $-1 #
vertex $-1 $201 $334 #
straight-curve $-1 -72.084719382305366 0 -20.634226949048202 0 1 0 I I #
point $-1 -72.084719382305366 -47.957336608371342 -20.634226949048202 #
point $-1 72.084719382305366 -47.957336608371342 -20.634226949048202 #
coedge $-1 $275 $330 $209 $287 reversed $194 $-1 #
edge $-1 $288 -72.084719382305366 $290 72.084719382305366 $286 $335 forward 7 unknown #
vertex $-1 $210 $336 #
straight-curve $-1 -72.084719382305366 -55.708839913853303 -13.461775455036873 0 -1 0 I I #
vertex $-1 $211 $337 #
straight-curve $-1 72.084719382305366 -55.708839913853303 -13.461775455036873 0 1 0 I I #
plane-surface $-1 72.084719382305366 0 0 -1 0 0 0 0 1 forward_v I I I I #
coedge $-1 $300 $217 $304 $338 reversed $136 $-1 #
coedge $-1 $217 $300 $218 $297 reversed $136 $-1 #
coedge $-1 $219 $229 $217 $296 reversed $230 $-1 #
edge $-1 $298 -3.5862257470056651 $339 3.5862257470056633 $295 $340 forward 7 unknown #
edge $-1 $298 -72.084719382305366 $302 72.084719382305366 $294 $341 forward 7 unknown #
vertex $-1 $220 $342 #
straight-curve $-1 72.084719382305366 55.708839913853303 -13.461775455036873 0 1 0 I I #
coedge $-1 $294 $293 $221 $301 reversed $136 $-1 #
edge $-1 $302 -3.5862257470056651 $305 3.5862257470056633 $300 $343 forward 7 unknown #
vertex $-1 $297 $344 #
straight-curve $-1 -72.084719382305366 55.708839913853303 -13.461775455036873 0 -1 0 I I #
coedge $-1 $308 $223 $293 $338 forward $215 $-1 #
vertex $-1 $338 $345 #
straight-curve $-1 -72.084719382305366 55.708839913853303 -20.634226949048202 0 1 0 I I #
point $-1 -72.084719382305366 47.957336608371342 -20.634226949048202 #
coedge $-1 $227 $304 $229 $310 forward $215 $-1 #
straight-curve $-1 0 47.957336608371342 -20.634226949048202 -1 0 0 I I #
edge $-1 $339 -63.460343219335265 $231 -47.957336608371342 $229 $346 forward 7 unknown #
point $-1 72.084719382305366 47.957336608371342 -20.634226949048202 #
coedge $-1 $246 $245 $238 $313 forward $235 $-1 #
edge $-1 $314 88.505949757748226 $317 94.249542060560458 $312 $347 forward 7 unknown #
vertex $-1 $250 $348 #
straight-curve $-1 28.931163463703243 -5.0893588142973059 20.634226949048198 1 0 0 I I #
edge $-1 $317 -5.1750876499116387 $247 5.3465453211403045 $246 $349 forward 7 unknown #
vertex $-1 $316 $350 #
straight-curve $-1 -36.721336228822523 -5.0893588142973059 109.47429780246497 -0.75470957328743171 0 0.6560590369687036 I I #
point $-1 65.477472394258498 -5.0893588142973059 20.634226949048198 #
point $-1 72.084719382305352 5.4322741567546373 14.890634646235966 #
straight-curve $-1 72.084719382305366 0 20.634226949048202 0 1 0 I I #
vertex $-1 $253 $351 #
point $-1 66.440454182139391 0.17145767122866573 12.783450981504867 #
straight-curve $-1 -72.084719382305366 47.957336608371342 0 0 0 -1 I I #
straight-curve $-1 -72.084719382305366 0 -20.634226949048202 0 1 0 I I #
point $-1 -72.084719382305366 -47.957336608371342 -20.634226949048202 #
point $-1 -72.084719382305366 47.957336608371342 -20.634226949048202 #
straight-curve $-1 -72.084719382305366 -47.957336608371342 0 0 0 -1 I I #
edge $-1 $288 -3.5862257470056651 $282 3.5862257470056633 $281 $352 forward 7 unknown #
coedge $-1 $286 $277 $276 $331 reversed $194 $-1 #
edge $-1 $290 -3.5862257470056651 $279 3.5862257470056633 $276 $353 forward 7 unknown #
straight-curve $-1 0 -63.460343219335265 -20.634226949048202 -1 0 0 I I #
point $-1 72.084719382305366 -63.460343219335265 -20.634226949048202 #
point $-1 -72.084719382305366 -63.460343219335265 -20.634226949048202 #
straight-curve $-1 0 -63.460343219335265 -13.461775455036873 1 0 0 I I #
point $-1 -72.084719382305366 -63.460343219335265 -13.461775455036873 #
point $-1 72.084719382305366 -63.460343219335265 -13.461775455036873 #
edge $-1 $305 -72.084719382305366 $339 72.084719382305366 $293 $354 forward 7 unknown #
vertex $-1 $310 $355 #
straight-curve $-1 72.084719382305366 63.460343219335265 -17.048001202042538 0 0 -1 I I #
straight-curve $-1 0 63.460343219335265 -13.461775455036873 -1 0 0 I I #
point $-1 72.084719382305366 63.460343219335265 -13.461775455036873 #
straight-curve $-1 -72.084719382305366 63.460343219335265 -17.048001202042538 0 0 -1 I I #
point $-1 -72.084719382305366 63.460343219335265 -13.461775455036873 #
point $-1 -72.084719382305366 63.460343219335265 -20.634226949048202 #
straight-curve $-1 72.084719382305366 0 -20.634226949048202 0 -1 0 I I #
straight-curve $-1 72.084719382305366 -5.0893588142973059 109.14017670679642 0 0 -1 I I #
point $-1 72.084719382305366 -5.0893588142973059 20.634226949048202 #
straight-curve $-1 72.084719382305366 0.085728835614332866 14.890634646235966 0 1 0 I I #
point $-1 72.084719382305352 -5.0893588142973059 14.890634646235966 #
point $-1 64.324301266755199 0.17145767122866573 12.635475177026775 #
straight-curve $-1 -72.084719382305366 -63.460343219335265 -17.048001202042538 0 0 -1 I I #
straight-curve $-1 72.084719382305366 -63.460343219335265 -17.048001202042538 0 0 -1 I I #
straight-curve $-1 0 63.460343219335265 -20.634226949048202 1 0 0 I I #
point $-1 72.084719382305366 63.460343219335265 -20.634226949048202 #
End-of-ACIS-data 