500 0 7 0           
7 Unknown 11 ACIS 5.0 NT 24 Fri Mar 26 18:46:05 1999 
-1 9.9999999999999995e-007 1e-010 
body $-1 $7 $-1 $8 #
body $-1 $9 $-1 $10 #
body $-1 $11 $-1 $12 #
body $-1 $13 $-1 $14 #
body $-1 $15 $-1 $16 #
body $-1 $17 $-1 $18 #
body $-1 $19 $-1 $20 #
lump $-1 $-1 $21 $0 #
transform $-1 1 0 0 0 1 0 0 0 1 45.67522202215644 30.109236829761077 14.823334046154354 1 rotate no_reflect no_shear #
lump $-1 $-1 $22 $1 #
transform $-1 1 0 0 0 1 0 0 0 1 45.67522202215644 30.109236829761077 14.823334046154354 1 rotate no_reflect no_shear #
lump $-1 $-1 $23 $2 #
transform $-1 1 0 0 0 1 0 0 0 1 45.67522202215644 30.109236829761077 14.823334046154354 1 rotate no_reflect no_shear #
lump $-1 $-1 $24 $3 #
transform $-1 1 0 0 0 1 0 0 0 1 45.67522202215644 30.109236829761077 14.823334046154354 1 rotate no_reflect no_shear #
lump $-1 $-1 $25 $4 #
transform $-1 1 0 0 0 1 0 0 0 1 45.67522202215644 30.109236829761077 14.823334046154354 1 rotate no_reflect no_shear #
lump $-1 $-1 $26 $5 #
transform $-1 1 0 0 0 1 0 0 0 1 45.67522202215644 30.109236829761077 14.823334046154354 1 rotate no_reflect no_shear #
lump $-1 $-1 $27 $6 #
transform $-1 1 0 0 0 1 0 0 0 1 45.67522202215644 30.109236829761077 14.823334046154354 1 rotate no_reflect no_shear #
shell $-1 $-1 $-1 $28 $-1 $7 #
shell $-1 $-1 $-1 $29 $-1 $9 #
shell $-1 $-1 $-1 $30 $-1 $11 #
shell $-1 $-1 $-1 $31 $-1 $13 #
shell $-1 $-1 $-1 $32 $-1 $15 #
shell $-1 $-1 $-1 $33 $-1 $17 #
shell $-1 $-1 $-1 $34 $-1 $19 #
face $-1 $35 $36 $21 $-1 $37 forward single #
face $-1 $38 $39 $22 $-1 $40 reversed single #
face $-1 $41 $42 $23 $-1 $43 reversed single #
face $-1 $44 $45 $24 $-1 $46 forward single #
face $-1 $47 $48 $25 $-1 $49 forward single #
face $-1 $50 $51 $26 $-1 $52 reversed single #
face $-1 $53 $54 $27 $-1 $55 forward single #
face $-1 $56 $57 $21 $-1 $58 reversed single #
loop $-1 $-1 $59 $28 #
plane-surface $-1 0 0 14.823334046154354 0 0 1 1 0 0 forward_v I I I I #
face $-1 $60 $61 $22 $-1 $62 reversed single #
loop $-1 $-1 $63 $29 #
plane-surface $-1 -38.077239800040331 0 7.0783942122674652 0 0 1 1 0 0 forward_v I I I I #
face $-1 $64 $65 $23 $-1 $66 reversed single #
loop $-1 $-1 $67 $30 #
plane-surface $-1 28.205651971229287 61.380049475465896 113.04270001140118 1 0 0 0 -0.7660444514056185 -0.64278759981090561 forward_v I I I I #
face $-1 $68 $69 $24 $-1 $70 forward single #
loop $-1 $71 $72 $31 #
cone-surface $-1 32.247697171527939 25.820250385867897 10.243559450636317 0 -0.7660444514056185 -0.64278759981090561 1 0 0 1 I I 0 1 1 forward I I I I #
face $-1 $73 $74 $25 $-1 $75 forward single #
loop $-1 $76 $77 $32 #
cone-surface $-1 38.310764971975921 25.820250385867897 10.243559450636317 0 -0.7660444514056185 -0.64278759981090561 1 0 0 1 I I 0 1 1 forward I I I I #
face $-1 $78 $79 $26 $-1 $80 reversed single #
loop $-1 $-1 $81 $33 #
plane-surface $-1 -17.157623892128441 -104.93914055839593 59.80034278154946 -1 0 0 0 -0.81915205242281985 0.57357642473473569 forward_v I I I I #
face $-1 $82 $83 $27 $-1 $84 forward single #
loop $-1 $85 $86 $34 #
cone-surface $-1 -21.874776500554713 -25.96677695115282 10.031870072706013 0 0.81915205242281985 -0.57357642473473569 1.5 0 0 1 I I 0 1 1.5 forward I I I I #
face $-1 $87 $88 $21 $-1 $89 reversed single #
loop $-1 $-1 $90 $35 #
plane-surface $-1 0 0 -14.823334046154354 0 0 1 1 0 0 forward_v I I I I #
coedge $-1 $91 $92 $93 $94 forward $36 $-1 #
face $-1 $95 $96 $22 $-1 $97 reversed single #
loop $-1 $-1 $98 $38 #
plane-surface $-1 -30.479257577924223 0 10.95086412921091 -1 0 0 0 0 1 forward_v I I I I #
coedge $-1 $99 $100 $101 $102 forward $39 $-1 #
face $-1 $103 $104 $23 $-1 $105 reversed single #
loop $-1 $-1 $106 $41 #
plane-surface $-1 35.27923107175193 -8.598451318119416 54.323767342496865 0 0.7660444514056185 0.64278759981090561 1 0 0 forward_v I I I I #
coedge $-1 $107 $108 $109 $110 reversed $42 $-1 #
face $-1 $-1 $111 $24 $-1 $112 forward single #
loop $-1 $113 $114 $44 #
cone-surface $-1 32.247697171527939 23.929686718945572 8.6571882165377296 0 -0.7660444514056185 -0.64278759981090561 0.5 0 0 1 I I -0.70710678118654746 0.70710678118654746 0.5 forward I I I I #
loop $-1 $-1 $115 $31 #
coedge $-1 $72 $72 $116 $117 reversed $45 $-1 #
face $-1 $-1 $118 $25 $-1 $119 forward single #
loop $-1 $120 $121 $47 #
cone-surface $-1 38.310764971975921 23.929686718945572 8.6571882165377296 0 -0.7660444514056185 -0.64278759981090561 0.5 0 0 1 I I -0.70710678118654746 0.70710678118654746 0.5 forward I I I I #
loop $-1 $-1 $122 $32 #
coedge $-1 $77 $77 $123 $124 reversed $48 $-1 #
face $-1 $125 $126 $26 $-1 $127 reversed single #
loop $-1 $-1 $128 $50 #
plane-surface $-1 -21.874776500554717 -30.109236829761073 7.403881688681949 0 -0.81915205242281985 0.57357642473473569 1 0 0 forward_v I I I I #
coedge $-1 $129 $130 $131 $132 reversed $51 $-1 #
face $-1 $-1 $133 $27 $-1 $134 forward single #
loop $-1 $135 $136 $53 #
cone-surface $-1 -21.874776500554713 -23.807531189872357 8.5199499594428296 0 0.81915205242281985 -0.57357642473473569 0.75 0 0 1 I I -0.70710678118654757 0.70710678118654757 0.75 forward I I I I #
loop $-1 $-1 $137 $34 #
coedge $-1 $86 $86 $138 $139 reversed $54 $-1 #
face $-1 $140 $141 $21 $-1 $142 reversed single #
loop $-1 $-1 $143 $56 #
plane-surface $-1 0 -30.109236829761077 0 0 1 0 0 0 1 forward_v I I I I #
coedge $-1 $144 $145 $146 $147 forward $57 $-1 #
coedge $-1 $148 $59 $149 $150 forward $36 $-1 #
coedge $-1 $59 $148 $151 $152 forward $36 $-1 #
coedge $-1 $153 $154 $59 $94 reversed $155 $-1 #
edge $-1 $156 -30.109236829761077 $157 30.109236829761077 $93 $158 forward 7 unknown #
face $-1 $159 $160 $22 $-1 $161 reversed single #
loop $-1 $-1 $162 $60 #
plane-surface $-1 0 30.109236829761077 0 0 -1 0 0 0 -1 forward_v I I I I #
coedge $-1 $101 $163 $164 $165 reversed $61 $-1 #
coedge $-1 $166 $63 $167 $168 reversed $39 $-1 #
coedge $-1 $63 $166 $169 $170 reversed $39 $-1 #
coedge $-1 $171 $98 $63 $102 reversed $61 $-1 #
edge $-1 $172 -30.109236829761077 $173 30.109236829761077 $101 $174 forward 7 unknown #
face $-1 $175 $176 $23 $-1 $177 forward single #
loop $-1 $-1 $178 $64 #
plane-surface $-1 42.352810172274573 61.380049475465896 113.04270001140118 -1 0 0 0 0.7660444514056185 0.64278759981090561 forward_v I I I I #
coedge $-1 $179 $180 $181 $182 reversed $65 $-1 #
coedge $-1 $108 $67 $183 $184 reversed $42 $-1 #
coedge $-1 $67 $107 $179 $185 reversed $42 $-1 #
coedge $-1 $181 $186 $67 $110 forward $176 $-1 #
edge $-1 $187 0.58078790797187096 $188 6.1436779133192019 $109 $189 forward 7 unknown #
loop $-1 $-1 $116 $68 #
plane-surface $-1 35.27923107175193 -8.598451318119416 54.323767342496865 0 0.7660444514056185 0.64278759981090561 1 0 0 forward_v I I I I #
loop $-1 $-1 $190 $44 #
coedge $-1 $114 $114 $115 $191 reversed $69 $-1 #
coedge $-1 $115 $115 $114 $191 forward $71 $-1 #
coedge $-1 $116 $116 $72 $117 forward $111 $-1 #
edge $-1 $192 -8.7579260533283984e-016 $192 6.2831853071795996 $116 $193 forward 7 unknown #
loop $-1 $-1 $123 $73 #
plane-surface $-1 35.27923107175193 -8.598451318119416 54.323767342496865 0 0.7660444514056185 0.64278759981090561 1 0 0 forward_v I I I I #
loop $-1 $-1 $194 $47 #
coedge $-1 $121 $121 $122 $195 reversed $74 $-1 #
coedge $-1 $122 $122 $121 $195 forward $76 $-1 #
coedge $-1 $123 $123 $77 $124 forward $118 $-1 #
edge $-1 $196 -8.7579260533283984e-016 $196 6.2831853071795996 $123 $197 forward 7 unknown #
face $-1 $198 $199 $26 $-1 $200 reversed single #
loop $-1 $-1 $201 $78 #
plane-surface $-1 -26.591929108980992 -104.93914055839593 59.80034278154946 1 0 0 0 0.81915205242281985 -0.57357642473473569 forward_v I I I I #
coedge $-1 $202 $203 $204 $205 reversed $79 $-1 #
coedge $-1 $130 $81 $206 $207 reversed $51 $-1 #
coedge $-1 $81 $129 $202 $208 reversed $51 $-1 #
coedge $-1 $204 $209 $81 $132 forward $210 $-1 #
edge $-1 $211 22.36033344943689 $212 27.555489762726715 $131 $213 forward 7 unknown #
loop $-1 $-1 $138 $82 #
plane-surface $-1 -21.874776500554717 -30.109236829761073 7.403881688681949 0 -0.81915205242281985 0.57357642473473569 1 0 0 forward_v I I I I #
loop $-1 $-1 $214 $53 #
coedge $-1 $136 $136 $137 $215 reversed $83 $-1 #
coedge $-1 $137 $137 $136 $215 forward $85 $-1 #
coedge $-1 $138 $138 $86 $139 forward $133 $-1 #
edge $-1 $216 0 $216 6.2831853071796004 $138 $217 forward 7 unknown #
face $-1 $218 $219 $21 $-1 $220 reversed single #
loop $-1 $-1 $221 $87 #
plane-surface $-1 -45.67522202215644 0 0 1 0 0 0 0 -1 forward_v I I I I #
coedge $-1 $222 $151 $223 $224 forward $88 $-1 #
coedge $-1 $225 $90 $222 $226 forward $57 $-1 #
coedge $-1 $90 $225 $227 $228 forward $57 $-1 #
coedge $-1 $154 $153 $90 $147 reversed $155 $-1 #
edge $-1 $229 -30.109236829761077 $230 30.109236829761077 $146 $231 forward 7 unknown #
coedge $-1 $92 $91 $232 $233 forward $36 $-1 #
coedge $-1 $234 $235 $91 $150 reversed $219 $-1 #
edge $-1 $157 -45.67522202215644 $236 45.67522202215644 $149 $237 forward 7 unknown #
coedge $-1 $143 $238 $92 $152 reversed $88 $-1 #
edge $-1 $239 -45.67522202215644 $156 45.67522202215644 $151 $240 forward 7 unknown #
coedge $-1 $146 $93 $238 $241 forward $155 $-1 #
coedge $-1 $93 $146 $234 $242 reversed $155 $-1 #
loop $-1 $-1 $153 $218 #
vertex $-1 $94 $243 #
vertex $-1 $94 $244 #
straight-curve $-1 45.67522202215644 0 14.823334046154354 0 1 0 I I #
face $-1 $245 $246 $22 $-1 $247 forward single #
loop $-1 $-1 $248 $95 #
plane-surface $-1 -45.67522202215644 0 0 1 0 0 0 0 -1 forward_v I I I I #
coedge $-1 $169 $249 $171 $250 forward $96 $-1 #
coedge $-1 $98 $171 $251 $252 reversed $61 $-1 #
coedge $-1 $253 $167 $98 $165 forward $254 $-1 #
edge $-1 $173 1.6029621476620104 $255 9.3479019815488993 $164 $256 forward 7 unknown #
coedge $-1 $100 $99 $248 $257 reversed $39 $-1 #
coedge $-1 $164 $258 $99 $168 forward $254 $-1 #
edge $-1 $259 -26.636602122136274 $173 -11.440637677904057 $167 $260 forward 7 unknown #
coedge $-1 $261 $162 $100 $170 forward $96 $-1 #
edge $-1 $172 11.440637677904057 $262 26.636602122136274 $169 $263 forward 7 unknown #
coedge $-1 $163 $101 $162 $250 reversed $61 $-1 #
vertex $-1 $170 $264 #
vertex $-1 $168 $265 #
straight-curve $-1 -30.479257577924223 0 7.0783942122674652 0 -1 0 I I #
face $-1 $-1 $266 $23 $-1 $267 reversed single #
loop $-1 $-1 $109 $103 #
plane-surface $-1 0 0 14.823334046154354 0 0 1 1 0 0 forward_v I I I I #
coedge $-1 $268 $269 $270 $271 reversed $104 $-1 #
coedge $-1 $272 $106 $108 $185 forward $65 $-1 #
coedge $-1 $106 $272 $268 $273 forward $65 $-1 #
coedge $-1 $270 $109 $106 $182 forward $176 $-1 #
edge $-1 $188 10.566036435353322 $274 24.713194636398608 $181 $275 forward 7 unknown #
coedge $-1 $276 $277 $107 $184 forward $266 $-1 #
edge $-1 $278 -48.327610282196062 $187 -41.69801595954624 $183 $279 forward 7 unknown #
edge $-1 $188 51.564152999036793 $278 60.218473659522168 $108 $280 forward 7 unknown #
coedge $-1 $109 $270 $276 $281 forward $176 $-1 #
vertex $-1 $184 $282 #
vertex $-1 $110 $283 #
straight-curve $-1 28.205651971229287 30.690024737732948 14.823334046154358 0 -1 0 I I #
coedge $-1 $190 $190 $-1 $284 reversed $113 $-1 #
edge $-1 $285 0 $285 6.2831853071796004 $114 $286 forward 7 unknown #
vertex $-1 $117 $287 #
ellipse-curve $-1 32.247697171527939 27.327791827087406 11.508536884829445 0 0.7660444514056185 0.64278759981090561 1 0 0 1 I I #
coedge $-1 $194 $194 $-1 $288 reversed $120 $-1 #
edge $-1 $289 0 $289 6.2831853071796004 $121 $290 forward 7 unknown #
vertex $-1 $124 $291 #
ellipse-curve $-1 38.310764971975921 27.327791827087406 11.508536884829445 0 0.7660444514056185 0.64278759981090561 1 0 0 1 I I #
face $-1 $-1 $210 $26 $-1 $292 forward single #
loop $-1 $-1 $293 $125 #
plane-surface $-1 0 -30.109236829761077 0 0 1 0 0 0 1 forward_v I I I I #
coedge $-1 $294 $295 $296 $297 reversed $126 $-1 #
coedge $-1 $298 $128 $130 $208 forward $79 $-1 #
coedge $-1 $128 $298 $294 $299 forward $79 $-1 #
coedge $-1 $296 $131 $128 $205 forward $210 $-1 #
edge $-1 $212 6.2202356418510831 $300 15.654540858703633 $204 $301 forward 7 unknown #
coedge $-1 $302 $303 $129 $207 forward $199 $-1 #
edge $-1 $304 -22.496289702092788 $211 -15.076837344620376 $206 $305 forward 7 unknown #
edge $-1 $212 -9.0574788105917161 $304 6.4030718624826673e-015 $130 $306 forward 7 unknown #
coedge $-1 $131 $296 $302 $307 forward $210 $-1 #
loop $-1 $-1 $296 $198 #
vertex $-1 $207 $308 #
vertex $-1 $132 $309 #
straight-curve $-1 -17.157623892128441 -52.469570279197967 14.823334046154354 0 1 0 I I #
coedge $-1 $214 $214 $-1 $310 reversed $135 $-1 #
edge $-1 $311 0 $311 6.2831853071796004 $136 $312 forward 7 unknown #
vertex $-1 $139 $313 #
ellipse-curve $-1 -21.874776500554713 -27.511658673116166 11.113607867418146 0 -0.81915205242281985 0.57357642473473569 1.5 0 0 1 I I #
face $-1 $-1 $155 $21 $-1 $314 reversed single #
loop $-1 $-1 $234 $140 #
plane-surface $-1 0 30.109236829761077 0 0 -1 0 0 0 -1 forward_v I I I I #
coedge $-1 $315 $232 $235 $316 forward $141 $-1 #
coedge $-1 $238 $143 $144 $226 reversed $88 $-1 #
coedge $-1 $232 $315 $143 $224 reversed $141 $-1 #
edge $-1 $239 -14.823334046154354 $317 14.823334046154354 $223 $318 forward 7 unknown #
coedge $-1 $145 $144 $315 $319 forward $57 $-1 #
edge $-1 $230 -45.67522202215644 $317 45.67522202215644 $222 $320 forward 7 unknown #
coedge $-1 $235 $234 $145 $228 reversed $219 $-1 #
edge $-1 $321 -45.67522202215644 $229 45.67522202215644 $227 $322 forward 7 unknown #
vertex $-1 $147 $323 #
vertex $-1 $241 $324 #
straight-curve $-1 45.67522202215644 0 -14.823334046154354 0 -1 0 I I #
coedge $-1 $221 $223 $148 $233 reversed $141 $-1 #
edge $-1 $236 -30.109236829761077 $239 30.109236829761077 $232 $325 forward 7 unknown #
coedge $-1 $227 $149 $154 $242 forward $219 $-1 #
coedge $-1 $149 $227 $221 $316 reversed $219 $-1 #
vertex $-1 $150 $326 #
straight-curve $-1 0 30.109236829761077 14.823334046154354 -1 0 0 I I #
coedge $-1 $151 $222 $153 $241 reversed $88 $-1 #
vertex $-1 $233 $327 #
straight-curve $-1 0 -30.109236829761077 14.823334046154354 1 0 0 I I #
edge $-1 $156 -14.823334046154354 $230 14.823334046154354 $153 $328 forward 7 unknown #
edge $-1 $157 -14.823334046154354 $229 14.823334046154354 $154 $329 forward 7 unknown #
point $-1 45.67522202215644 -30.109236829761077 14.823334046154354 #
point $-1 45.67522202215644 30.109236829761077 14.823334046154354 #
face $-1 $-1 $254 $22 $-1 $330 reversed single #
loop $-1 $-1 $251 $159 #
plane-surface $-1 0 0 14.823334046154354 0 0 1 1 0 0 forward_v I I I I #
coedge $-1 $331 $332 $166 $257 forward $160 $-1 #
coedge $-1 $162 $261 $333 $334 reversed $96 $-1 #
edge $-1 $335 -9.3479019815488993 $172 -1.6029621476620104 $162 $336 forward 7 unknown #
coedge $-1 $333 $337 $163 $252 forward $246 $-1 #
edge $-1 $255 -30.109236829761077 $335 30.109236829761077 $251 $338 forward 7 unknown #
coedge $-1 $258 $164 $337 $339 reversed $254 $-1 #
loop $-1 $-1 $164 $245 #
vertex $-1 $165 $340 #
straight-curve $-1 -30.479257577924223 -30.109236829761077 5.4754320646054548 0 0 1 I I #
edge $-1 $262 -30.109236829761077 $259 30.109236829761077 $248 $341 forward 7 unknown #
coedge $-1 $167 $253 $331 $342 forward $254 $-1 #
vertex $-1 $257 $343 #
straight-curve $-1 -19.038619900020166 -30.109236829761077 7.0783942122674652 1 0 0 I I #
coedge $-1 $249 $169 $332 $344 reversed $96 $-1 #
vertex $-1 $257 $345 #
straight-curve $-1 -19.038619900020166 30.109236829761077 7.0783942122674652 -1 0 0 I I #
point $-1 -30.479257577924223 30.109236829761077 7.0783942122674652 #
point $-1 -30.479257577924223 -30.109236829761077 7.0783942122674652 #
loop $-1 $-1 $183 $175 #
plane-surface $-1 0 30.109236829761077 0 0 -1 0 0 0 -1 forward_v I I I I #
coedge $-1 $269 $178 $180 $273 reversed $104 $-1 #
coedge $-1 $178 $268 $346 $347 reversed $104 $-1 #
coedge $-1 $186 $181 $178 $271 forward $176 $-1 #
edge $-1 $274 -6.1436779133192019 $348 -0.58078790797187096 $270 $349 forward 7 unknown #
coedge $-1 $180 $179 $277 $350 reversed $65 $-1 #
edge $-1 $351 -60.218473659522168 $274 -51.564152999036793 $268 $352 forward 7 unknown #
vertex $-1 $182 $353 #
straight-curve $-1 17.639615535875965 24.546346824413746 14.823334046154354 1 0 0 I I #
coedge $-1 $346 $183 $186 $281 reversed $266 $-1 #
coedge $-1 $183 $346 $272 $350 forward $266 $-1 #
vertex $-1 $184 $354 #
straight-curve $-1 28.205651971229287 30.109236829761077 56.52135000570059 0 0 1 I I #
straight-curve $-1 28.205651971229287 -8.598451318119416 54.323767342496865 0 0.64278759981090561 -0.7660444514056185 I I #
edge $-1 $348 -42.352810172274573 $187 -28.205651971229287 $276 $355 forward 7 unknown #
point $-1 28.205651971229287 30.109236829761077 14.823334046154354 #
point $-1 28.205651971229287 24.546346824413746 14.823334046154358 #
edge $-1 $356 1 $356 0 $190 $-1 forward 7 unknown #
vertex $-1 $191 $357 #
ellipse-curve $-1 32.247697171527939 24.312708944648382 8.9785820164431822 0 0.7660444514056185 0.64278759981090561 1 0 0 1 I I #
point $-1 33.247697171527939 27.327791827087413 11.508536884829452 #
edge $-1 $358 1 $358 0 $194 $-1 forward 7 unknown #
vertex $-1 $195 $359 #
ellipse-curve $-1 38.310764971975921 24.312708944648382 8.9785820164431822 0 0.7660444514056185 0.64278759981090561 1 0 0 1 I I #
point $-1 39.310764971975921 27.327791827087413 11.508536884829452 #
plane-surface $-1 0 0 14.823334046154354 0 0 1 1 0 0 forward_v I I I I #
coedge $-1 $303 $302 $295 $360 forward $199 $-1 #
coedge $-1 $295 $201 $203 $299 reversed $126 $-1 #
coedge $-1 $201 $294 $293 $360 reversed $126 $-1 #
coedge $-1 $209 $204 $201 $297 forward $210 $-1 #
edge $-1 $300 -27.555489762726715 $361 -22.36033344943689 $296 $362 forward 7 unknown #
coedge $-1 $203 $202 $303 $363 reversed $79 $-1 #
edge $-1 $364 -6.4030718624826673e-015 $300 9.0574788105917161 $294 $365 forward 7 unknown #
vertex $-1 $205 $366 #
straight-curve $-1 -10.937388250277358 -24.914080516471252 14.823334046154354 -1 0 0 I I #
coedge $-1 $293 $206 $209 $307 reversed $199 $-1 #
coedge $-1 $206 $293 $298 $363 forward $199 $-1 #
vertex $-1 $207 $367 #
straight-curve $-1 -17.157623892128441 -30.109236829761073 29.90017139077473 0 0 1 I I #
straight-curve $-1 -17.157623892128441 -30.109236829761073 7.403881688681949 0 -0.57357642473473569 -0.81915205242281985 I I #
edge $-1 $361 -26.591929108980992 $211 -17.157623892128441 $302 $368 forward 7 unknown #
point $-1 -17.157623892128441 -30.109236829761077 14.823334046154354 #
point $-1 -17.157623892128441 -24.914080516471252 14.823334046154354 #
edge $-1 $369 1 $369 0 $214 $-1 forward 7 unknown #
vertex $-1 $215 $370 #
ellipse-curve $-1 -21.874776500554713 -24.42189522918947 8.9501322779938821 0 -0.81915205242281985 0.57357642473473569 1.5 0 0 1 I I #
point $-1 -20.374776500554713 -27.511658673116166 11.113607867418146 #
plane-surface $-1 45.67522202215644 0 0 -1 0 0 0 0 1 forward_v I I I I #
coedge $-1 $223 $221 $225 $319 reversed $141 $-1 #
edge $-1 $236 -14.823334046154354 $321 14.823334046154354 $235 $371 forward 7 unknown #
vertex $-1 $319 $372 #
straight-curve $-1 -45.67522202215644 -30.109236829761077 0 0 0 -1 I I #
edge $-1 $317 -30.109236829761077 $321 30.109236829761077 $315 $373 forward 7 unknown #
straight-curve $-1 0 -30.109236829761077 -14.823334046154354 -1 0 0 I I #
vertex $-1 $228 $374 #
straight-curve $-1 0 30.109236829761077 -14.823334046154354 1 0 0 I I #
point $-1 45.67522202215644 30.109236829761077 -14.823334046154354 #
point $-1 45.67522202215644 -30.109236829761077 -14.823334046154354 #
straight-curve $-1 -45.67522202215644 0 14.823334046154354 0 -1 0 I I #
point $-1 -45.67522202215644 30.109236829761077 14.823334046154354 #
point $-1 -45.67522202215644 -30.109236829761077 14.823334046154354 #
straight-curve $-1 45.67522202215644 -30.109236829761077 0 0 0 -1 I I #
straight-curve $-1 45.67522202215644 30.109236829761077 0 0 0 -1 I I #
plane-surface $-1 0 -30.109236829761077 0 0 1 0 0 0 1 forward_v I I I I #
coedge $-1 $375 $248 $258 $342 reversed $160 $-1 #
coedge $-1 $248 $375 $261 $344 forward $160 $-1 #
coedge $-1 $376 $251 $249 $334 forward $246 $-1 #
edge $-1 $335 30.479257577924223 $377 45.67522202215644 $249 $378 forward 7 unknown #
vertex $-1 $334 $379 #
straight-curve $-1 -30.479257577924223 30.109236829761077 5.4754320646054548 0 0 -1 I I #
coedge $-1 $251 $376 $253 $339 forward $246 $-1 #
straight-curve $-1 -30.479257577924223 0 14.823334046154354 0 1 0 I I #
edge $-1 $380 -45.67522202215644 $255 -30.479257577924223 $253 $381 forward 7 unknown #
point $-1 -30.479257577924223 -30.109236829761077 14.823334046154354 #
straight-curve $-1 -45.67522202215644 0 7.0783942122674652 0 -1 0 I I #
edge $-1 $380 -14.823334046154354 $259 -7.0783942122674652 $331 $382 forward 7 unknown #
point $-1 -45.67522202215644 -30.109236829761077 7.0783942122674652 #
edge $-1 $377 -14.823334046154354 $262 -7.0783942122674652 $261 $383 forward 7 unknown #
point $-1 -45.67522202215644 30.109236829761077 7.0783942122674652 #
coedge $-1 $277 $276 $269 $347 forward $266 $-1 #
edge $-1 $348 41.69801595954624 $351 48.327610282196062 $346 $384 forward 7 unknown #
vertex $-1 $281 $385 #
straight-curve $-1 42.352810172274573 30.690024737732948 14.823334046154358 0 1 0 I I #
edge $-1 $351 -24.713194636398608 $278 -10.566036435353322 $277 $386 forward 7 unknown #
vertex $-1 $350 $387 #
straight-curve $-1 42.352810172274573 -8.598451318119416 54.323767342496865 0 -0.64278759981090561 0.7660444514056185 I I #
point $-1 42.352810172274573 24.546346824413746 14.823334046154358 #
point $-1 28.205651971229287 30.109236829761073 8.1937397235045282 #
straight-curve $-1 0 30.109236829761077 14.823334046154354 -1 0 0 I I #
vertex $-1 $284 $388 #
point $-1 33.247697171527939 24.312708944648382 8.9785820164431822 #
vertex $-1 $288 $389 #
point $-1 39.310764971975921 24.312708944648382 8.9785820164431822 #
edge $-1 $361 15.076837344620376 $364 22.496289702092788 $293 $390 forward 7 unknown #
vertex $-1 $307 $391 #
straight-curve $-1 -26.591929108980992 -52.469570279197967 14.823334046154354 0 -1 0 I I #
edge $-1 $364 -15.654540858703633 $304 -6.2202356418510831 $303 $392 forward 7 unknown #
vertex $-1 $363 $393 #
straight-curve $-1 -26.591929108980992 -30.109236829761073 7.403881688681949 0 0.57357642473473569 0.81915205242281985 I I #
point $-1 -26.591929108980992 -24.914080516471252 14.823334046154354 #
point $-1 -17.157623892128441 -30.109236829761077 7.4038816886819436 #
straight-curve $-1 0 -30.109236829761077 14.823334046154354 1 0 0 I I #
vertex $-1 $310 $394 #
point $-1 -20.374776500554713 -24.42189522918947 8.9501322779938821 #
straight-curve $-1 -45.67522202215644 30.109236829761077 0 0 0 -1 I I #
point $-1 -45.67522202215644 -30.109236829761077 -14.823334046154354 #
straight-curve $-1 -45.67522202215644 0 -14.823334046154354 0 1 0 I I #
point $-1 -45.67522202215644 30.109236829761077 -14.823334046154354 #
coedge $-1 $332 $331 $376 $395 reversed $160 $-1 #
coedge $-1 $337 $333 $375 $395 forward $246 $-1 #
vertex $-1 $334 $396 #
straight-curve $-1 0 30.109236829761077 14.823334046154354 -1 0 0 I I #
point $-1 -30.479257577924223 30.109236829761077 14.823334046154354 #
vertex $-1 $395 $397 #
straight-curve $-1 0 -30.109236829761077 14.823334046154354 1 0 0 I I #
straight-curve $-1 -45.67522202215644 -30.109236829761077 0 0 0 -1 I I #
straight-curve $-1 -45.67522202215644 30.109236829761077 0 0 0 -1 I I #
straight-curve $-1 42.352810172274573 30.109236829761077 56.52135000570059 0 0 -1 I I #
point $-1 42.352810172274573 30.109236829761077 14.823334046154354 #
straight-curve $-1 17.639615535875965 30.109236829761077 8.1937397235045282 -1 0 0 I I #
point $-1 42.352810172274573 30.109236829761073 8.1937397235045282 #
point $-1 32.247697171527939 23.546664493242762 8.335794416632277 #
point $-1 38.310764971975921 23.546664493242762 8.335794416632277 #
straight-curve $-1 -26.591929108980992 -30.109236829761073 29.90017139077473 0 0 -1 I I #
point $-1 -26.591929108980992 -30.109236829761077 14.823334046154354 #
straight-curve $-1 -10.937388250277358 -30.109236829761077 7.4038816886819419 1 0 0 I I #
point $-1 -26.591929108980992 -30.109236829761077 7.4038816886819436 #
point $-1 -21.874776500554713 -23.193167150555244 8.0897676408917771 #
edge $-1 $377 -30.109236829761077 $380 30.109236829761077 $375 $398 forward 7 unknown #
point $-1 -45.67522202215644 30.109236829761077 14.823334046154354 #
point $-1 -45.67522202215644 -30.109236829761077 14.823334046154354 #
straight-curve $-1 -45.67522202215644 0 14.823334046154354 0 -1 0 I I #
End-of-ACIS-data 