500 0 18 0           
7 Unknown 11 ACIS 5.0 NT 24 Thu Mar 25 22:59:30 1999 
-1 9.9999999999999995e-007 1e-010 
body $-1 $18 $-1 $19 #
body $-1 $20 $-1 $21 #
body $-1 $22 $-1 $23 #
body $-1 $24 $-1 $25 #
body $-1 $26 $-1 $27 #
body $-1 $28 $-1 $29 #
body $-1 $30 $-1 $31 #
body $-1 $32 $-1 $33 #
body $-1 $34 $-1 $35 #
body $-1 $36 $-1 $37 #
body $-1 $38 $-1 $39 #
body $-1 $40 $-1 $41 #
body $-1 $42 $-1 $43 #
body $-1 $44 $-1 $45 #
body $-1 $46 $-1 $47 #
body $-1 $48 $-1 $49 #
body $-1 $50 $-1 $51 #
body $-1 $52 $-1 $53 #
lump $-1 $-1 $54 $0 #
transform $-1 1 0 0 0 1 0 0 0 1 53.229163487655264 21.956887797118895 4.5664724653165116 1 rotate no_reflect no_shear #
lump $-1 $-1 $55 $1 #
transform $-1 1 0 0 0 1 0 0 0 1 53.229163487655264 21.956887797118895 4.5664724653165116 1 rotate no_reflect no_shear #
lump $-1 $-1 $56 $2 #
transform $-1 1 0 0 0 1 0 0 0 1 53.229163487655264 21.956887797118895 4.5664724653165116 1 rotate no_reflect no_shear #
lump $-1 $-1 $57 $3 #
transform $-1 1 0 0 0 1 0 0 0 1 53.229163487655264 21.956887797118895 4.5664724653165116 1 rotate no_reflect no_shear #
lump $-1 $-1 $58 $4 #
transform $-1 1 0 0 0 1 0 0 0 1 53.229163487655264 21.956887797118895 4.5664724653165116 1 rotate no_reflect no_shear #
lump $-1 $-1 $59 $5 #
transform $-1 1 0 0 0 1 0 0 0 1 53.229163487655264 21.956887797118895 4.5664724653165116 1 rotate no_reflect no_shear #
lump $-1 $-1 $60 $6 #
transform $-1 1 0 0 0 1 0 0 0 1 53.229163487655264 21.956887797118895 4.5664724653165116 1 rotate no_reflect no_shear #
lump $-1 $-1 $61 $7 #
transform $-1 1 0 0 0 1 0 0 0 1 53.229163487655264 21.956887797118895 4.5664724653165116 1 rotate no_reflect no_shear #
lump $-1 $-1 $62 $8 #
transform $-1 1 0 0 0 1 0 0 0 1 53.229163487655264 21.956887797118895 4.5664724653165116 1 rotate no_reflect no_shear #
lump $-1 $-1 $63 $9 #
transform $-1 1 0 0 0 1 0 0 0 1 53.229163487655264 21.956887797118895 4.5664724653165116 1 rotate no_reflect no_shear #
lump $-1 $-1 $64 $10 #
transform $-1 1 0 0 0 1 0 0 0 1 53.229163487655264 21.956887797118895 4.5664724653165116 1 rotate no_reflect no_shear #
lump $-1 $-1 $65 $11 #
transform $-1 1 0 0 0 1 0 0 0 1 53.229163487655264 21.956887797118895 4.5664724653165116 1 rotate no_reflect no_shear #
lump $-1 $-1 $66 $12 #
transform $-1 1 0 0 0 1 0 0 0 1 53.229163487655264 21.956887797118895 4.5664724653165116 1 rotate no_reflect no_shear #
lump $-1 $-1 $67 $13 #
transform $-1 1 0 0 0 1 0 0 0 1 53.229163487655264 21.956887797118895 4.5664724653165116 1 rotate no_reflect no_shear #
lump $-1 $-1 $68 $14 #
transform $-1 1 0 0 0 1 0 0 0 1 53.229163487655264 21.956887797118895 4.5664724653165116 1 rotate no_reflect no_shear #
lump $-1 $-1 $69 $15 #
transform $-1 1 0 0 0 1 0 0 0 1 53.229163487655264 21.956887797118895 4.5664724653165116 1 rotate no_reflect no_shear #
lump $-1 $-1 $70 $16 #
transform $-1 1 0 0 0 1 0 0 0 1 53.229163487655264 21.956887797118895 4.5664724653165116 1 rotate no_reflect no_shear #
lump $-1 $-1 $71 $17 #
transform $-1 1 0 0 0 1 0 0 0 1 53.229163487655264 21.956887797118895 4.5664724653165116 1 rotate no_reflect no_shear #
shell $-1 $-1 $-1 $72 $-1 $18 #
shell $-1 $-1 $-1 $73 $-1 $20 #
shell $-1 $-1 $-1 $74 $-1 $22 #
shell $-1 $-1 $-1 $75 $-1 $24 #
shell $-1 $-1 $-1 $76 $-1 $26 #
shell $-1 $-1 $-1 $77 $-1 $28 #
shell $-1 $-1 $-1 $78 $-1 $30 #
shell $-1 $-1 $-1 $79 $-1 $32 #
shell $-1 $-1 $-1 $80 $-1 $34 #
shell $-1 $-1 $-1 $81 $-1 $36 #
shell $-1 $-1 $-1 $82 $-1 $38 #
shell $-1 $-1 $-1 $83 $-1 $40 #
shell $-1 $-1 $-1 $84 $-1 $42 #
shell $-1 $-1 $-1 $85 $-1 $44 #
shell $-1 $-1 $-1 $86 $-1 $46 #
shell $-1 $-1 $-1 $87 $-1 $48 #
shell $-1 $-1 $-1 $88 $-1 $50 #
shell $-1 $-1 $-1 $89 $-1 $52 #
face $-1 $90 $91 $54 $-1 $92 reversed single #
face $-1 $93 $94 $55 $-1 $95 forward single #
face $-1 $96 $97 $56 $-1 $98 reversed single #
face $-1 $99 $100 $57 $-1 $101 forward single #
face $-1 $102 $103 $58 $-1 $104 forward single #
face $-1 $105 $106 $59 $-1 $107 forward single #
face $-1 $108 $109 $60 $-1 $110 reversed single #
face $-1 $111 $112 $61 $-1 $113 forward single #
face $-1 $114 $115 $62 $-1 $116 forward single #
face $-1 $117 $118 $63 $-1 $119 reversed single #
face $-1 $120 $121 $64 $-1 $122 forward single #
face $-1 $123 $124 $65 $-1 $125 forward single #
face $-1 $126 $127 $66 $-1 $128 reversed single #
face $-1 $129 $130 $67 $-1 $131 forward single #
face $-1 $132 $133 $68 $-1 $134 forward single #
face $-1 $135 $136 $69 $-1 $137 reversed single #
face $-1 $138 $139 $70 $-1 $140 forward single #
face $-1 $141 $142 $71 $-1 $143 forward single #
face $-1 $144 $145 $54 $-1 $146 forward single #
loop $-1 $-1 $147 $72 #
plane-surface $-1 -53.229163487655264 0 0 1 0 0 0 0 -1 forward_v I I I I #
face $-1 $148 $149 $55 $-1 $150 reversed single #
loop $-1 $-1 $151 $73 #
plane-surface $-1 -53.229163487655264 0 0 1 0 0 0 0 -1 forward_v I I I I #
face $-1 $152 $153 $56 $-1 $154 reversed single #
loop $-1 $-1 $155 $74 #
plane-surface $-1 47.215666533742969 -21.956887797118895 0.13170664515968156 0 -0.61566148304635926 0.78801074757464917 1 0 0 forward_v I I I I #
face $-1 $156 $157 $57 $-1 $158 forward single #
loop $-1 $159 $160 $75 #
cone-surface $-1 43.6075683613956 -18.266570057910396 1.2583270360268188 0 0.61566148304635926 -0.78801074757464917 1 0 0 1 I I 0 1 1 forward I I I I #
face $-1 $161 $162 $58 $-1 $163 forward single #
loop $-1 $164 $165 $76 #
cone-surface $-1 47.215666533742969 -18.266570057910396 1.2583270360268188 0 0.61566148304635926 -0.78801074757464917 1 0 0 1 I I 0 1 1 forward I I I I #
face $-1 $166 $167 $59 $-1 $168 forward single #
loop $-1 $169 $170 $77 #
cone-surface $-1 50.823764706090337 -18.266570057910396 1.2583270360268188 0 0.61566148304635926 -0.78801074757464917 1 0 0 1 I I 0 1 1 forward I I I I #
face $-1 $171 $172 $60 $-1 $173 reversed single #
loop $-1 $-1 $174 $78 #
plane-surface $-1 -39.795728341127479 68.03152892468843 106.49454489693817 1 0 0 0 -0.71933980857756763 -0.69465836192734942 forward_v I I I I #
face $-1 $175 $176 $61 $-1 $177 forward single #
loop $-1 $178 $179 $79 #
cone-surface $-1 -36.775775296573315 19.145030050181326 1.7292525251101569 0 -0.71933980857756763 -0.69465836192734942 1 0 0 1 I I 0 1 1 forward I I I I #
face $-1 $180 $181 $62 $-1 $182 forward single #
loop $-1 $183 $184 $80 #
cone-surface $-1 -32.245845729742072 19.145030050181326 1.7292525251101569 0 -0.71933980857756763 -0.69465836192734942 1 0 0 1 I I 0 1 1 forward I I I I #
face $-1 $185 $186 $63 $-1 $187 reversed single #
loop $-1 $-1 $188 $81 #
plane-surface $-1 -14.063201022606332 68.03152892468843 106.49454489693817 1 0 0 0 -0.71933980857756763 -0.69465836192734942 forward_v I I I I #
face $-1 $189 $190 $64 $-1 $191 forward single #
loop $-1 $192 $193 $82 #
cone-surface $-1 -11.043247978052172 19.145030050181326 1.7292525251101569 0 -0.71933980857756763 -0.69465836192734942 1 0 0 1 I I 0 1 1 forward I I I I #
face $-1 $194 $195 $65 $-1 $196 forward single #
loop $-1 $197 $198 $83 #
cone-surface $-1 -6.5133184112209292 19.145030050181326 1.7292525251101569 0 -0.71933980857756763 -0.69465836192734942 1 0 0 1 I I 0 1 1 forward I I I I #
face $-1 $199 $200 $66 $-1 $201 reversed single #
loop $-1 $-1 $202 $84 #
plane-surface $-1 11.669326295914818 68.03152892468843 106.49454489693817 1 0 0 0 -0.71933980857756763 -0.69465836192734942 forward_v I I I I #
face $-1 $203 $204 $67 $-1 $205 forward single #
loop $-1 $206 $207 $85 #
cone-surface $-1 14.689279340468978 19.145030050181326 1.7292525251101569 0 -0.71933980857756763 -0.69465836192734942 1 0 0 1 I I 0 1 1 forward I I I I #
face $-1 $208 $209 $68 $-1 $210 forward single #
loop $-1 $211 $212 $86 #
cone-surface $-1 19.219208907300221 19.145030050181326 1.7292525251101569 0 -0.71933980857756763 -0.69465836192734942 1 0 0 1 I I 0 1 1 forward I I I I #
face $-1 $213 $214 $69 $-1 $215 reversed single #
loop $-1 $-1 $216 $87 #
plane-surface $-1 37.401853614435964 68.03152892468843 106.49454489693817 1 0 0 0 -0.71933980857756763 -0.69465836192734942 forward_v I I I I #
face $-1 $217 $218 $70 $-1 $219 forward single #
loop $-1 $220 $221 $88 #
cone-surface $-1 40.421806658990128 19.145030050181326 1.7292525251101569 0 -0.71933980857756763 -0.69465836192734942 1 0 0 1 I I 0 1 1 forward I I I I #
face $-1 $222 $223 $71 $-1 $224 forward single #
loop $-1 $225 $226 $89 #
cone-surface $-1 44.951736225821371 19.145030050181326 1.7292525251101569 0 -0.71933980857756763 -0.69465836192734942 1 0 0 1 I I 0 1 1 forward I I I I #
face $-1 $227 $228 $54 $-1 $229 reversed single #
loop $-1 $-1 $230 $90 #
plane-surface $-1 0 0 4.5664724653165116 0 0 1 1 0 0 forward_v I I I I #
coedge $-1 $231 $232 $233 $234 reversed $91 $-1 #
face $-1 $235 $236 $55 $-1 $237 reversed single #
loop $-1 $-1 $238 $93 #
plane-surface $-1 0 0 -4.5664724653165116 0 0 1 1 0 0 forward_v I I I I #
coedge $-1 $239 $240 $241 $242 forward $94 $-1 #
face $-1 $243 $244 $56 $-1 $245 reversed single #
loop $-1 $-1 $246 $96 #
plane-surface $-1 41.202169579830688 -87.499179265372803 84.022012470520565 1 0 0 0 0.61566148304635926 -0.78801074757464917 forward_v I I I I #
coedge $-1 $247 $248 $249 $250 reversed $97 $-1 #
face $-1 $-1 $251 $57 $-1 $252 forward single #
loop $-1 $253 $254 $99 #
cone-surface $-1 43.6075683613956 -17.10654222098481 -0.22644085697177907 0 0.61566148304635926 -0.78801074757464917 0.5 0 0 1 I I -0.70710678118654746 0.70710678118654746 0.5 forward I I I I #
loop $-1 $-1 $255 $75 #
coedge $-1 $160 $160 $256 $257 reversed $100 $-1 #
face $-1 $-1 $258 $58 $-1 $259 forward single #
loop $-1 $260 $261 $102 #
cone-surface $-1 47.215666533742969 -17.10654222098481 -0.22644085697177907 0 0.61566148304635926 -0.78801074757464917 0.5 0 0 1 I I -0.70710678118654746 0.70710678118654746 0.5 forward I I I I #
loop $-1 $-1 $262 $76 #
coedge $-1 $165 $165 $263 $264 reversed $103 $-1 #
face $-1 $-1 $265 $59 $-1 $266 forward single #
loop $-1 $267 $268 $105 #
cone-surface $-1 50.823764706090337 -17.10654222098481 -0.22644085697177907 0 0.61566148304635926 -0.78801074757464917 0.5 0 0 1 I I -0.70710678118654746 0.70710678118654746 0.5 forward I I I I #
loop $-1 $-1 $269 $77 #
coedge $-1 $170 $170 $270 $271 reversed $106 $-1 #
face $-1 $272 $273 $60 $-1 $274 reversed single #
loop $-1 $-1 $275 $108 #
plane-surface $-1 -34.510810513157693 -8.5481836232195434 32.542377866742797 0 0.71933980857756763 0.69465836192734942 1 0 0 forward_v I I I I #
coedge $-1 $276 $277 $278 $279 reversed $109 $-1 #
face $-1 $-1 $280 $61 $-1 $281 forward single #
loop $-1 $282 $283 $111 #
cone-surface $-1 -36.775775296573315 17.718029524128923 0.35121416816562245 0 -0.71933980857756763 -0.69465836192734942 0.5 0 0 1 I I -0.70710678118654746 0.70710678118654746 0.5 forward I I I I #
loop $-1 $-1 $284 $79 #
coedge $-1 $179 $179 $285 $286 reversed $112 $-1 #
face $-1 $-1 $287 $62 $-1 $288 forward single #
loop $-1 $289 $290 $114 #
cone-surface $-1 -32.245845729742072 17.718029524128923 0.35121416816562245 0 -0.71933980857756763 -0.69465836192734942 0.5 0 0 1 I I -0.70710678118654746 0.70710678118654746 0.5 forward I I I I #
loop $-1 $-1 $291 $80 #
coedge $-1 $184 $184 $292 $293 reversed $115 $-1 #
face $-1 $294 $295 $63 $-1 $296 reversed single #
loop $-1 $-1 $297 $117 #
plane-surface $-1 -8.7782831946365505 -8.5481836232195434 32.542377866742797 0 0.71933980857756763 0.69465836192734942 1 0 0 forward_v I I I I #
coedge $-1 $298 $299 $300 $301 reversed $118 $-1 #
face $-1 $-1 $302 $64 $-1 $303 forward single #
loop $-1 $304 $305 $120 #
cone-surface $-1 -11.043247978052172 17.718029524128923 0.35121416816562245 0 -0.71933980857756763 -0.69465836192734942 0.5 0 0 1 I I -0.70710678118654746 0.70710678118654746 0.5 forward I I I I #
loop $-1 $-1 $306 $82 #
coedge $-1 $193 $193 $307 $308 reversed $121 $-1 #
face $-1 $-1 $309 $65 $-1 $310 forward single #
loop $-1 $311 $312 $123 #
cone-surface $-1 -6.5133184112209292 17.718029524128923 0.35121416816562245 0 -0.71933980857756763 -0.69465836192734942 0.5 0 0 1 I I -0.70710678118654746 0.70710678118654746 0.5 forward I I I I #
loop $-1 $-1 $313 $83 #
coedge $-1 $198 $198 $314 $315 reversed $124 $-1 #
face $-1 $316 $317 $66 $-1 $318 reversed single #
loop $-1 $-1 $319 $126 #
plane-surface $-1 16.9542441238846 -8.5481836232195434 32.542377866742797 0 0.71933980857756763 0.69465836192734942 1 0 0 forward_v I I I I #
coedge $-1 $320 $321 $322 $323 reversed $127 $-1 #
face $-1 $-1 $324 $67 $-1 $325 forward single #
loop $-1 $326 $327 $129 #
cone-surface $-1 14.689279340468978 17.718029524128923 0.35121416816562245 0 -0.71933980857756763 -0.69465836192734942 0.5 0 0 1 I I -0.70710678118654746 0.70710678118654746 0.5 forward I I I I #
loop $-1 $-1 $328 $85 #
coedge $-1 $207 $207 $329 $330 reversed $130 $-1 #
face $-1 $-1 $331 $68 $-1 $332 forward single #
loop $-1 $333 $334 $132 #
cone-surface $-1 19.219208907300221 17.718029524128923 0.35121416816562245 0 -0.71933980857756763 -0.69465836192734942 0.5 0 0 1 I I -0.70710678118654746 0.70710678118654746 0.5 forward I I I I #
loop $-1 $-1 $335 $86 #
coedge $-1 $212 $212 $336 $337 reversed $133 $-1 #
face $-1 $338 $339 $69 $-1 $340 reversed single #
loop $-1 $-1 $341 $135 #
plane-surface $-1 42.68677144240575 -8.5481836232195434 32.542377866742797 0 0.71933980857756763 0.69465836192734942 1 0 0 forward_v I I I I #
coedge $-1 $342 $343 $344 $345 reversed $136 $-1 #
face $-1 $-1 $346 $70 $-1 $347 forward single #
loop $-1 $348 $349 $138 #
cone-surface $-1 40.421806658990128 17.718029524128923 0.35121416816562245 0 -0.71933980857756763 -0.69465836192734942 0.5 0 0 1 I I -0.70710678118654746 0.70710678118654746 0.5 forward I I I I #
loop $-1 $-1 $350 $88 #
coedge $-1 $221 $221 $351 $352 reversed $139 $-1 #
face $-1 $-1 $353 $71 $-1 $354 forward single #
loop $-1 $355 $356 $141 #
cone-surface $-1 44.951736225821371 17.718029524128923 0.35121416816562245 0 -0.71933980857756763 -0.69465836192734942 0.5 0 0 1 I I -0.70710678118654746 0.70710678118654746 0.5 forward I I I I #
loop $-1 $-1 $357 $89 #
coedge $-1 $226 $226 $358 $359 reversed $142 $-1 #
face $-1 $360 $361 $54 $-1 $362 reversed single #
loop $-1 $-1 $363 $144 #
plane-surface $-1 0 0 -4.5664724653165116 0 0 1 1 0 0 forward_v I I I I #
coedge $-1 $364 $365 $366 $367 forward $145 $-1 #
coedge $-1 $368 $147 $369 $370 reversed $91 $-1 #
coedge $-1 $147 $368 $371 $372 forward $91 $-1 #
coedge $-1 $373 $374 $147 $234 forward $228 $-1 #
edge $-1 $375 -21.956887797118895 $376 21.956887797118895 $147 $377 forward 7 unknown #
face $-1 $378 $379 $55 $-1 $380 reversed single #
loop $-1 $-1 $381 $148 #
plane-surface $-1 -54.993272338268234 -19.333723540311077 0 0 1 0 0 0 1 forward_v I I I I #
coedge $-1 $382 $383 $240 $384 forward $149 $-1 #
coedge $-1 $385 $151 $386 $387 reversed $94 $-1 #
coedge $-1 $151 $385 $238 $384 reversed $94 $-1 #
coedge $-1 $388 $389 $151 $242 reversed $390 $-1 #
edge $-1 $391 -4.5664724653165116 $392 4.5664724653165116 $241 $393 forward 7 unknown #
face $-1 $394 $395 $56 $-1 $396 forward single #
loop $-1 $-1 $397 $152 #
plane-surface $-1 0 -21.956887797118895 0 0 1 0 0 0 1 forward_v I I I I #
coedge $-1 $398 $399 $400 $401 reversed $153 $-1 #
coedge $-1 $402 $155 $403 $404 reversed $97 $-1 #
coedge $-1 $155 $402 $398 $405 forward $97 $-1 #
coedge $-1 $400 $406 $155 $250 forward $395 $-1 #
edge $-1 $407 -29.621330220783765 $408 -17.594336312959204 $249 $409 forward 7 unknown #
loop $-1 $-1 $256 $156 #
plane-surface $-1 47.215666533742969 -21.956887797118895 0.13170664515968156 0 -0.61566148304635926 0.78801074757464917 1 0 0 forward_v I I I I #
loop $-1 $-1 $410 $99 #
coedge $-1 $254 $254 $255 $411 reversed $157 $-1 #
coedge $-1 $255 $255 $254 $411 forward $159 $-1 #
coedge $-1 $256 $256 $160 $257 forward $251 $-1 #
edge $-1 $412 -4.8132689654384008e-016 $412 6.2831853071795996 $256 $413 forward 7 unknown #
loop $-1 $-1 $263 $161 #
plane-surface $-1 47.215666533742969 -21.956887797118895 0.13170664515968156 0 -0.61566148304635926 0.78801074757464917 1 0 0 forward_v I I I I #
loop $-1 $-1 $414 $102 #
coedge $-1 $261 $261 $262 $415 reversed $162 $-1 #
coedge $-1 $262 $262 $261 $415 forward $164 $-1 #
coedge $-1 $263 $263 $165 $264 forward $258 $-1 #
edge $-1 $416 -4.8132689654384008e-016 $416 6.2831853071795996 $263 $417 forward 7 unknown #
loop $-1 $-1 $270 $166 #
plane-surface $-1 47.215666533742969 -21.956887797118895 0.13170664515968156 0 -0.61566148304635926 0.78801074757464917 1 0 0 forward_v I I I I #
loop $-1 $-1 $418 $105 #
coedge $-1 $268 $268 $269 $419 reversed $167 $-1 #
coedge $-1 $269 $269 $268 $419 forward $169 $-1 #
coedge $-1 $270 $270 $170 $271 forward $265 $-1 #
edge $-1 $420 -4.8132689654384008e-016 $420 6.2831853071795996 $270 $421 forward 7 unknown #
face $-1 $422 $423 $60 $-1 $424 forward single #
loop $-1 $-1 $425 $171 #
plane-surface $-1 -29.225892685187912 68.03152892468843 106.49454489693817 -1 0 0 0 0.71933980857756763 0.69465836192734942 forward_v I I I I #
coedge $-1 $426 $427 $428 $429 reversed $172 $-1 #
coedge $-1 $277 $174 $430 $431 reversed $109 $-1 #
coedge $-1 $174 $276 $426 $432 reversed $109 $-1 #
coedge $-1 $428 $433 $174 $279 forward $423 $-1 #
edge $-1 $434 12.05887666522532 $435 15.547930915573225 $278 $436 forward 7 unknown #
loop $-1 $-1 $285 $175 #
plane-surface $-1 -34.510810513157693 -8.5481836232195434 32.542377866742797 0 0.71933980857756763 0.69465836192734942 1 0 0 forward_v I I I I #
loop $-1 $-1 $437 $111 #
coedge $-1 $283 $283 $284 $438 reversed $176 $-1 #
coedge $-1 $284 $284 $283 $438 forward $178 $-1 #
coedge $-1 $285 $285 $179 $286 forward $280 $-1 #
edge $-1 $439 0 $439 6.2831853071796004 $285 $440 forward 7 unknown #
loop $-1 $-1 $292 $180 #
plane-surface $-1 -34.510810513157693 -8.5481836232195434 32.542377866742797 0 0.71933980857756763 0.69465836192734942 1 0 0 forward_v I I I I #
loop $-1 $-1 $441 $114 #
coedge $-1 $290 $290 $291 $442 reversed $181 $-1 #
coedge $-1 $291 $291 $290 $442 forward $183 $-1 #
coedge $-1 $292 $292 $184 $293 forward $287 $-1 #
edge $-1 $443 0 $443 6.2831853071796004 $292 $444 forward 7 unknown #
face $-1 $445 $446 $63 $-1 $447 forward single #
loop $-1 $-1 $448 $185 #
plane-surface $-1 -3.4933653666667679 68.03152892468843 106.49454489693817 -1 0 0 0 0.71933980857756763 0.69465836192734942 forward_v I I I I #
coedge $-1 $449 $450 $451 $452 reversed $186 $-1 #
coedge $-1 $299 $188 $453 $454 reversed $118 $-1 #
coedge $-1 $188 $298 $449 $455 reversed $118 $-1 #
coedge $-1 $451 $456 $188 $301 forward $446 $-1 #
edge $-1 $457 12.05887666522532 $458 15.547930915573225 $300 $459 forward 7 unknown #
loop $-1 $-1 $307 $189 #
plane-surface $-1 -8.7782831946365505 -8.5481836232195434 32.542377866742797 0 0.71933980857756763 0.69465836192734942 1 0 0 forward_v I I I I #
loop $-1 $-1 $460 $120 #
coedge $-1 $305 $305 $306 $461 reversed $190 $-1 #
coedge $-1 $306 $306 $305 $461 forward $192 $-1 #
coedge $-1 $307 $307 $193 $308 forward $302 $-1 #
edge $-1 $462 0 $462 6.2831853071796004 $307 $463 forward 7 unknown #
loop $-1 $-1 $314 $194 #
plane-surface $-1 -8.7782831946365505 -8.5481836232195434 32.542377866742797 0 0.71933980857756763 0.69465836192734942 1 0 0 forward_v I I I I #
loop $-1 $-1 $464 $123 #
coedge $-1 $312 $312 $313 $465 reversed $195 $-1 #
coedge $-1 $313 $313 $312 $465 forward $197 $-1 #
coedge $-1 $314 $314 $198 $315 forward $309 $-1 #
edge $-1 $466 0 $466 6.2831853071796004 $314 $467 forward 7 unknown #
face $-1 $468 $469 $66 $-1 $470 forward single #
loop $-1 $-1 $471 $199 #
plane-surface $-1 22.239161951854381 68.03152892468843 106.49454489693817 -1 0 0 0 0.71933980857756763 0.69465836192734942 forward_v I I I I #
coedge $-1 $472 $473 $474 $475 reversed $200 $-1 #
coedge $-1 $321 $202 $476 $477 reversed $127 $-1 #
coedge $-1 $202 $320 $472 $478 reversed $127 $-1 #
coedge $-1 $474 $479 $202 $323 forward $469 $-1 #
edge $-1 $480 12.05887666522532 $481 15.547930915573225 $322 $482 forward 7 unknown #
loop $-1 $-1 $329 $203 #
plane-surface $-1 16.9542441238846 -8.5481836232195434 32.542377866742797 0 0.71933980857756763 0.69465836192734942 1 0 0 forward_v I I I I #
loop $-1 $-1 $483 $129 #
coedge $-1 $327 $327 $328 $484 reversed $204 $-1 #
coedge $-1 $328 $328 $327 $484 forward $206 $-1 #
coedge $-1 $329 $329 $207 $330 forward $324 $-1 #
edge $-1 $485 0 $485 6.2831853071796004 $329 $486 forward 7 unknown #
loop $-1 $-1 $336 $208 #
plane-surface $-1 16.9542441238846 -8.5481836232195434 32.542377866742797 0 0.71933980857756763 0.69465836192734942 1 0 0 forward_v I I I I #
loop $-1 $-1 $487 $132 #
coedge $-1 $334 $334 $335 $488 reversed $209 $-1 #
coedge $-1 $335 $335 $334 $488 forward $211 $-1 #
coedge $-1 $336 $336 $212 $337 forward $331 $-1 #
edge $-1 $489 0 $489 6.2831853071796004 $336 $490 forward 7 unknown #
face $-1 $491 $492 $69 $-1 $493 forward single #
loop $-1 $-1 $494 $213 #
plane-surface $-1 47.971689270375535 68.03152892468843 106.49454489693817 -1 0 0 0 0.71933980857756763 0.69465836192734942 forward_v I I I I #
coedge $-1 $495 $496 $497 $498 reversed $214 $-1 #
coedge $-1 $343 $216 $499 $500 reversed $136 $-1 #
coedge $-1 $216 $342 $495 $501 reversed $136 $-1 #
coedge $-1 $497 $502 $216 $345 forward $492 $-1 #
edge $-1 $503 12.05887666522532 $504 15.547930915573225 $344 $505 forward 7 unknown #
loop $-1 $-1 $351 $217 #
plane-surface $-1 42.68677144240575 -8.5481836232195434 32.542377866742797 0 0.71933980857756763 0.69465836192734942 1 0 0 forward_v I I I I #
loop $-1 $-1 $506 $138 #
coedge $-1 $349 $349 $350 $507 reversed $218 $-1 #
coedge $-1 $350 $350 $349 $507 forward $220 $-1 #
coedge $-1 $351 $351 $221 $352 forward $346 $-1 #
edge $-1 $508 0 $508 6.2831853071796004 $351 $509 forward 7 unknown #
loop $-1 $-1 $358 $222 #
plane-surface $-1 42.68677144240575 -8.5481836232195434 32.542377866742797 0 0.71933980857756763 0.69465836192734942 1 0 0 forward_v I I I I #
loop $-1 $-1 $510 $141 #
coedge $-1 $356 $356 $357 $511 reversed $223 $-1 #
coedge $-1 $357 $357 $356 $511 forward $225 $-1 #
coedge $-1 $358 $358 $226 $359 forward $353 $-1 #
edge $-1 $512 0 $512 6.2831853071796004 $358 $513 forward 7 unknown #
face $-1 $514 $515 $54 $-1 $516 reversed single #
loop $-1 $-1 $369 $227 #
plane-surface $-1 0 -21.956887797118895 0 0 1 0 0 0 1 forward_v I I I I #
coedge $-1 $374 $373 $517 $518 forward $228 $-1 #
coedge $-1 $519 $230 $520 $521 forward $145 $-1 #
coedge $-1 $230 $519 $522 $523 forward $145 $-1 #
coedge $-1 $524 $525 $230 $367 reversed $526 $-1 #
edge $-1 $527 -21.956887797118895 $528 21.956887797118895 $366 $529 forward 7 unknown #
coedge $-1 $232 $231 $519 $530 reversed $91 $-1 #
coedge $-1 $531 $522 $231 $370 forward $361 $-1 #
edge $-1 $532 -4.5664724653165116 $375 4.5664724653165116 $231 $533 forward 7 unknown #
coedge $-1 $520 $534 $232 $372 reversed $515 $-1 #
edge $-1 $535 -4.5664724653165116 $376 4.5664724653165116 $371 $536 forward 7 unknown #
coedge $-1 $363 $233 $534 $537 forward $228 $-1 #
coedge $-1 $233 $363 $531 $538 forward $228 $-1 #
vertex $-1 $234 $539 #
vertex $-1 $537 $540 #
straight-curve $-1 -53.229163487655264 0 -4.5664724653165116 0 1 0 I I #
face $-1 $541 $390 $55 $-1 $542 reversed single #
loop $-1 $-1 $543 $235 #
plane-surface $-1 -56.757381188881205 -17.833723540311077 0 1 0 0 0 0 -1 forward_v I I I I #
coedge $-1 $544 $545 $546 $547 forward $236 $-1 #
coedge $-1 $548 $238 $544 $549 forward $149 $-1 #
coedge $-1 $238 $548 $388 $550 forward $149 $-1 #
edge $-1 $391 16.333723540311077 $551 19.333723540311077 $238 $552 forward 7 unknown #
coedge $-1 $240 $239 $553 $554 forward $94 $-1 #
coedge $-1 $555 $556 $239 $387 forward $557 $-1 #
edge $-1 $558 -19.333723540311077 $392 -16.333723540311077 $386 $559 forward 7 unknown #
coedge $-1 $560 $241 $383 $550 reversed $390 $-1 #
coedge $-1 $241 $560 $555 $561 reversed $390 $-1 #
loop $-1 $-1 $241 $378 #
vertex $-1 $384 $562 #
vertex $-1 $561 $563 #
straight-curve $-1 -53.229163487655264 -16.333723540311077 0 0 0 1 I I #
face $-1 $-1 $564 $56 $-1 $565 reversed single #
loop $-1 $-1 $400 $243 #
plane-surface $-1 0 0 4.5664724653165116 0 0 1 1 0 0 forward_v I I I I #
coedge $-1 $566 $567 $399 $568 forward $244 $-1 #
coedge $-1 $399 $246 $248 $405 reversed $153 $-1 #
coedge $-1 $246 $398 $397 $568 reversed $153 $-1 #
coedge $-1 $569 $249 $246 $401 forward $395 $-1 #
edge $-1 $408 -27.468943123179677 $570 -21.792701835567506 $400 $571 forward 7 unknown #
coedge $-1 $248 $247 $566 $572 reversed $97 $-1 #
coedge $-1 $573 $574 $247 $404 forward $564 $-1 #
edge $-1 $575 -8.6105884294671426 $407 -1.4073347872007274 $403 $576 forward 7 unknown #
edge $-1 $577 0 $408 7.2032536422664144 $398 $578 forward 7 unknown #
coedge $-1 $249 $569 $573 $579 forward $395 $-1 #
vertex $-1 $404 $580 #
vertex $-1 $250 $581 #
straight-curve $-1 23.607833266871484 -16.280646509506724 4.5664724653165116 -1 0 0 I I #
coedge $-1 $410 $410 $-1 $582 reversed $253 $-1 #
edge $-1 $583 0 $583 6.2831853071796004 $254 $584 forward 7 unknown #
vertex $-1 $257 $585 #
ellipse-curve $-1 43.6075683613956 -19.118767153312806 2.3490895552380975 0 -0.61566148304635926 0.78801074757464917 1 0 0 1 I I #
coedge $-1 $414 $414 $-1 $586 reversed $260 $-1 #
edge $-1 $587 0 $587 6.2831853071796004 $261 $588 forward 7 unknown #
vertex $-1 $264 $589 #
ellipse-curve $-1 47.215666533742969 -19.118767153312806 2.3490895552380975 0 -0.61566148304635926 0.78801074757464917 1 0 0 1 I I #
coedge $-1 $418 $418 $-1 $590 reversed $267 $-1 #
edge $-1 $591 0 $591 6.2831853071796004 $268 $592 forward 7 unknown #
vertex $-1 $271 $593 #
ellipse-curve $-1 50.823764706090337 -19.118767153312806 2.3490895552380975 0 -0.61566148304635926 0.78801074757464917 1 0 0 1 I I #
face $-1 $-1 $594 $60 $-1 $595 reversed single #
loop $-1 $-1 $278 $272 #
plane-surface $-1 0 0 4.5664724653165116 0 0 1 1 0 0 forward_v I I I I #
coedge $-1 $596 $597 $598 $599 reversed $273 $-1 #
coedge $-1 $600 $275 $277 $432 forward $172 $-1 #
coedge $-1 $275 $600 $596 $601 forward $172 $-1 #
coedge $-1 $598 $278 $275 $429 forward $423 $-1 #
edge $-1 $435 -22.540323084548632 $602 -11.970487428609065 $428 $603 forward 7 unknown #
coedge $-1 $604 $605 $276 $431 forward $594 $-1 #
edge $-1 $606 -52.293821511603561 $434 -48.680799983152568 $430 $607 forward 7 unknown #
edge $-1 $435 38.891084669352892 $606 43.913775594237791 $277 $608 forward 7 unknown #
coedge $-1 $278 $598 $604 $609 forward $423 $-1 #
vertex $-1 $431 $610 #
vertex $-1 $279 $611 #
straight-curve $-1 -39.795728341127479 34.015764462344215 4.5664724653165152 0 -1 0 I I #
coedge $-1 $437 $437 $-1 $612 reversed $282 $-1 #
edge $-1 $613 0 $613 6.2831853071796004 $283 $614 forward 7 unknown #
vertex $-1 $286 $615 #
ellipse-curve $-1 -36.775775296573315 20.212360671944943 2.7599617010910169 0 0.71933980857756763 0.69465836192734942 1 0 0 1 I I #
coedge $-1 $441 $441 $-1 $616 reversed $289 $-1 #
edge $-1 $617 0 $617 6.2831853071796004 $290 $618 forward 7 unknown #
vertex $-1 $293 $619 #
ellipse-curve $-1 -32.245845729742072 20.212360671944943 2.7599617010910169 0 0.71933980857756763 0.69465836192734942 1 0 0 1 I I #
face $-1 $-1 $620 $63 $-1 $621 reversed single #
loop $-1 $-1 $300 $294 #
plane-surface $-1 0 0 4.5664724653165116 0 0 1 1 0 0 forward_v I I I I #
coedge $-1 $622 $623 $624 $625 reversed $295 $-1 #
coedge $-1 $626 $297 $299 $455 forward $186 $-1 #
coedge $-1 $297 $626 $622 $627 forward $186 $-1 #
coedge $-1 $624 $300 $297 $452 forward $446 $-1 #
edge $-1 $458 -9.674059425288057 $628 0.89577623065150735 $451 $629 forward 7 unknown #
coedge $-1 $630 $631 $298 $454 forward $620 $-1 #
edge $-1 $632 -52.293821511603561 $457 -48.680799983152568 $453 $633 forward 7 unknown #
edge $-1 $458 38.891084669352892 $632 43.913775594237791 $299 $634 forward 7 unknown #
coedge $-1 $300 $624 $630 $635 forward $446 $-1 #
vertex $-1 $301 $636 #
vertex $-1 $301 $637 #
straight-curve $-1 -14.063201022606332 34.015764462344215 4.5664724653165152 0 -1 0 I I #
coedge $-1 $460 $460 $-1 $638 reversed $304 $-1 #
edge $-1 $639 0 $639 6.2831853071796004 $305 $640 forward 7 unknown #
vertex $-1 $308 $641 #
ellipse-curve $-1 -11.043247978052172 20.212360671944943 2.7599617010910169 0 0.71933980857756763 0.69465836192734942 1 0 0 1 I I #
coedge $-1 $464 $464 $-1 $642 reversed $311 $-1 #
edge $-1 $643 0 $643 6.2831853071796004 $312 $644 forward 7 unknown #
vertex $-1 $315 $645 #
ellipse-curve $-1 -6.5133184112209292 20.212360671944943 2.7599617010910169 0 0.71933980857756763 0.69465836192734942 1 0 0 1 I I #
face $-1 $-1 $646 $66 $-1 $647 reversed single #
loop $-1 $-1 $322 $316 #
plane-surface $-1 0 0 4.5664724653165116 0 0 1 1 0 0 forward_v I I I I #
coedge $-1 $648 $649 $650 $651 reversed $317 $-1 #
coedge $-1 $652 $319 $321 $478 forward $200 $-1 #
coedge $-1 $319 $652 $648 $653 forward $200 $-1 #
coedge $-1 $650 $322 $319 $475 forward $469 $-1 #
edge $-1 $481 3.1922042339725181 $654 13.762039889912081 $474 $655 forward 7 unknown #
coedge $-1 $656 $657 $320 $477 forward $646 $-1 #
edge $-1 $658 -52.293821511603561 $480 -48.680799983152568 $476 $659 forward 7 unknown #
edge $-1 $481 38.891084669352892 $658 43.913775594237791 $321 $660 forward 7 unknown #
coedge $-1 $322 $650 $656 $661 forward $469 $-1 #
vertex $-1 $323 $662 #
vertex $-1 $323 $663 #
straight-curve $-1 11.669326295914818 34.015764462344215 4.5664724653165152 0 -1 0 I I #
coedge $-1 $483 $483 $-1 $664 reversed $326 $-1 #
edge $-1 $665 0 $665 6.2831853071796004 $327 $666 forward 7 unknown #
vertex $-1 $330 $667 #
ellipse-curve $-1 14.689279340468978 20.212360671944943 2.7599617010910169 0 0.71933980857756763 0.69465836192734942 1 0 0 1 I I #
coedge $-1 $487 $487 $-1 $668 reversed $333 $-1 #
edge $-1 $669 0 $669 6.2831853071796004 $334 $670 forward 7 unknown #
vertex $-1 $337 $671 #
ellipse-curve $-1 19.219208907300221 20.212360671944943 2.7599617010910169 0 0.71933980857756763 0.69465836192734942 1 0 0 1 I I #
face $-1 $-1 $672 $69 $-1 $673 reversed single #
loop $-1 $-1 $344 $338 #
plane-surface $-1 0 0 4.5664724653165116 0 0 1 1 0 0 forward_v I I I I #
coedge $-1 $674 $675 $676 $677 reversed $339 $-1 #
coedge $-1 $678 $341 $343 $501 forward $214 $-1 #
coedge $-1 $341 $678 $674 $679 forward $214 $-1 #
coedge $-1 $676 $344 $341 $498 forward $492 $-1 #
edge $-1 $504 16.05846789323309 $680 26.62830354917266 $497 $681 forward 7 unknown #
coedge $-1 $682 $683 $342 $500 forward $672 $-1 #
edge $-1 $684 -52.293821511603561 $503 -48.680799983152568 $499 $685 forward 7 unknown #
edge $-1 $504 38.891084669352892 $684 43.913775594237791 $343 $686 forward 7 unknown #
coedge $-1 $344 $676 $682 $687 forward $492 $-1 #
vertex $-1 $345 $688 #
vertex $-1 $345 $689 #
straight-curve $-1 37.401853614435964 34.015764462344215 4.5664724653165152 0 -1 0 I I #
coedge $-1 $506 $506 $-1 $690 reversed $348 $-1 #
edge $-1 $691 0 $691 6.2831853071796004 $349 $692 forward 7 unknown #
vertex $-1 $352 $693 #
ellipse-curve $-1 40.421806658990128 20.212360671944943 2.7599617010910169 0 0.71933980857756763 0.69465836192734942 1 0 0 1 I I #
coedge $-1 $510 $510 $-1 $694 reversed $355 $-1 #
edge $-1 $695 0 $695 6.2831853071796004 $356 $696 forward 7 unknown #
vertex $-1 $359 $697 #
ellipse-curve $-1 44.951736225821371 20.212360671944943 2.7599617010910169 0 0.71933980857756763 0.69465836192734942 1 0 0 1 I I #
face $-1 $-1 $526 $54 $-1 $698 reversed single #
loop $-1 $-1 $699 $360 #
plane-surface $-1 0 21.956887797118895 0 0 -1 0 0 0 -1 forward_v I I I I #
coedge $-1 $525 $524 $363 $518 reversed $526 $-1 #
edge $-1 $700 -21.956887797118895 $701 21.956887797118895 $517 $702 forward 7 unknown #
coedge $-1 $365 $364 $368 $530 forward $145 $-1 #
coedge $-1 $699 $371 $364 $521 reversed $515 $-1 #
edge $-1 $528 -53.229163487655264 $535 53.229163487655264 $520 $703 forward 7 unknown #
coedge $-1 $369 $704 $365 $523 reversed $361 $-1 #
edge $-1 $532 -53.229163487655264 $527 53.229163487655264 $522 $705 forward 7 unknown #
coedge $-1 $517 $366 $704 $706 forward $526 $-1 #
coedge $-1 $366 $517 $699 $707 reversed $526 $-1 #
loop $-1 $-1 $524 $514 #
vertex $-1 $367 $708 #
vertex $-1 $367 $709 #
straight-curve $-1 53.229163487655264 0 4.5664724653165116 0 1 0 I I #
edge $-1 $535 -21.956887797118895 $532 21.956887797118895 $368 $710 forward 7 unknown #
coedge $-1 $704 $369 $374 $538 reversed $361 $-1 #
vertex $-1 $530 $711 #
straight-curve $-1 -53.229163487655264 -21.956887797118895 0 0 0 -1 I I #
coedge $-1 $371 $699 $373 $537 reversed $515 $-1 #
vertex $-1 $521 $712 #
straight-curve $-1 -53.229163487655264 21.956887797118895 0 0 0 -1 I I #
edge $-1 $376 -53.229163487655264 $700 53.229163487655264 $534 $713 forward 7 unknown #
edge $-1 $701 -53.229163487655264 $375 53.229163487655264 $531 $714 forward 7 unknown #
point $-1 -53.229163487655264 -21.956887797118895 -4.5664724653165116 #
point $-1 -53.229163487655264 21.956887797118895 -4.5664724653165116 #
face $-1 $-1 $557 $55 $-1 $715 forward single #
plane-surface $-1 -54.993272338268234 -16.333723540311077 0 0 -1 0 0 0 -1 forward_v I I I I #
coedge $-1 $716 $717 $560 $718 forward $379 $-1 #
coedge $-1 $553 $381 $382 $549 reversed $236 $-1 #
coedge $-1 $381 $553 $556 $719 reversed $236 $-1 #
coedge $-1 $717 $716 $381 $547 reversed $379 $-1 #
edge $-1 $720 -4.5664724653165116 $721 4.5664724653165116 $546 $722 forward 7 unknown #
coedge $-1 $383 $382 $716 $723 forward $149 $-1 #
edge $-1 $551 -1.7641088506129705 $721 1.7641088506129705 $544 $724 forward 7 unknown #
edge $-1 $725 -1.7641088506129705 $391 1.7641088506129705 $388 $726 forward 7 unknown #
vertex $-1 $549 $727 #
straight-curve $-1 -53.229163487655264 0 -4.5664724653165116 0 -1 0 I I #
coedge $-1 $545 $544 $385 $554 reversed $236 $-1 #
edge $-1 $558 -4.5664724653165116 $551 4.5664724653165116 $553 $728 forward 7 unknown #
coedge $-1 $729 $386 $389 $561 forward $557 $-1 #
coedge $-1 $386 $729 $545 $719 forward $557 $-1 #
loop $-1 $-1 $386 $541 #
vertex $-1 $387 $730 #
straight-curve $-1 -53.229163487655264 0 4.5664724653165116 0 1 0 I I #
coedge $-1 $389 $388 $543 $718 reversed $390 $-1 #
edge $-1 $392 -1.7641088506129705 $731 1.7641088506129705 $389 $732 forward 7 unknown #
point $-1 -53.229163487655264 -16.333723540311077 -4.5664724653165116 #
point $-1 -53.229163487655264 -16.333723540311077 4.5664724653165116 #
loop $-1 $-1 $403 $394 #
plane-surface $-1 53.229163487655264 0 0 -1 0 0 0 0 1 forward_v I I I I #
coedge $-1 $733 $397 $402 $572 forward $244 $-1 #
coedge $-1 $397 $733 $569 $734 reversed $244 $-1 #
edge $-1 $570 37.444533769943774 $577 41.879299590100601 $397 $735 forward 7 unknown #
coedge $-1 $406 $400 $567 $734 forward $395 $-1 #
vertex $-1 $734 $736 #
straight-curve $-1 41.202169579830688 -43.749589632686401 4.5664724653165081 0 -1 0 I I #
edge $-1 $577 17.594336312959204 $575 29.621330220783765 $566 $737 forward 7 unknown #
coedge $-1 $574 $403 $406 $579 reversed $564 $-1 #
coedge $-1 $403 $573 $733 $738 forward $564 $-1 #
vertex $-1 $572 $739 #
straight-curve $-1 53.229163487655264 -15.171651571756868 5.4329142875472431 0 0.78801074757464917 0.61566148304635926 I I #
vertex $-1 $572 $740 #
straight-curve $-1 41.202169579830688 -21.956887797118895 0.13170664515968156 0 0.78801074757464917 0.61566148304635926 I I #
edge $-1 $741 -21.956887797118895 $407 -16.280646509506724 $573 $742 forward 7 unknown #
point $-1 53.229163487655249 -16.280646509506724 4.5664724653165116 #
point $-1 41.202169579830688 -16.280646509506724 4.5664724653165116 #
edge $-1 $743 1 $743 0 $410 $-1 forward 7 unknown #
vertex $-1 $411 $744 #
ellipse-curve $-1 43.6075683613956 -17.41437296250799 0.16756451681554552 0 -0.61566148304635926 0.78801074757464917 1 0 0 1 I I #
point $-1 44.6075683613956 -19.118767153312803 2.3490895552380922 #
edge $-1 $745 1 $745 0 $414 $-1 forward 7 unknown #
vertex $-1 $415 $746 #
ellipse-curve $-1 47.215666533742969 -17.41437296250799 0.16756451681554552 0 -0.61566148304635926 0.78801074757464917 1 0 0 1 I I #
point $-1 48.215666533742969 -19.118767153312803 2.3490895552380922 #
edge $-1 $747 1 $747 0 $418 $-1 forward 7 unknown #
vertex $-1 $419 $748 #
ellipse-curve $-1 50.823764706090337 -17.41437296250799 0.16756451681554552 0 -0.61566148304635926 0.78801074757464917 1 0 0 1 I I #
point $-1 51.823764706090337 -19.118767153312803 2.3490895552380922 #
loop $-1 $-1 $430 $422 #
plane-surface $-1 0 21.956887797118895 0 0 -1 0 0 0 -1 forward_v I I I I #
coedge $-1 $597 $425 $427 $601 reversed $273 $-1 #
coedge $-1 $425 $596 $749 $750 reversed $273 $-1 #
coedge $-1 $433 $428 $425 $599 forward $423 $-1 #
edge $-1 $602 -15.547930915573225 $751 -12.05887666522532 $598 $752 forward 7 unknown #
coedge $-1 $427 $426 $605 $753 reversed $172 $-1 #
edge $-1 $754 -43.913775594237791 $602 -38.891084669352892 $596 $755 forward 7 unknown #
vertex $-1 $429 $756 #
straight-curve $-1 -17.255405256578847 18.467833546770986 4.5664724653165116 1 0 0 I I #
coedge $-1 $749 $430 $433 $609 reversed $594 $-1 #
coedge $-1 $430 $749 $600 $753 forward $594 $-1 #
vertex $-1 $431 $757 #
straight-curve $-1 -39.795728341127479 21.956887797118895 53.247272448469083 0 0 1 I I #
straight-curve $-1 -39.795728341127479 -8.5481836232195434 32.542377866742797 0 0.69465836192734942 -0.71933980857756763 I I #
edge $-1 $751 29.225892685187912 $434 39.795728341127479 $604 $758 forward 7 unknown #
point $-1 -39.795728341127479 21.956887797118895 4.5664724653165116 #
point $-1 -39.795728341127479 18.46783354677099 4.5664724653165116 #
edge $-1 $759 1 $759 0 $437 $-1 forward 7 unknown #
vertex $-1 $438 $760 #
ellipse-curve $-1 -36.775775296573315 18.077699428417706 0.69854334912929716 0 0.71933980857756763 0.69465836192734942 1 0 0 1 I I #
point $-1 -35.775775296573315 20.212360671944943 2.7599617010910169 #
edge $-1 $761 1 $761 0 $441 $-1 forward 7 unknown #
vertex $-1 $442 $762 #
ellipse-curve $-1 -32.245845729742072 18.077699428417706 0.69854334912929716 0 0.71933980857756763 0.69465836192734942 1 0 0 1 I I #
point $-1 -31.245845729742072 20.212360671944943 2.7599617010910169 #
loop $-1 $-1 $453 $445 #
plane-surface $-1 0 21.956887797118895 0 0 -1 0 0 0 -1 forward_v I I I I #
coedge $-1 $623 $448 $450 $627 reversed $295 $-1 #
coedge $-1 $448 $622 $763 $764 reversed $295 $-1 #
coedge $-1 $456 $451 $448 $625 forward $446 $-1 #
edge $-1 $628 -15.547930915573225 $765 -12.05887666522532 $624 $766 forward 7 unknown #
coedge $-1 $450 $449 $631 $767 reversed $186 $-1 #
edge $-1 $768 -43.913775594237791 $628 -38.891084669352892 $622 $769 forward 7 unknown #
vertex $-1 $452 $770 #
straight-curve $-1 -4.3891415973182752 18.467833546770986 4.5664724653165116 1 0 0 I I #
coedge $-1 $763 $453 $456 $635 reversed $620 $-1 #
coedge $-1 $453 $763 $626 $767 forward $620 $-1 #
vertex $-1 $454 $771 #
straight-curve $-1 -14.063201022606332 21.956887797118895 53.247272448469083 0 0 1 I I #
straight-curve $-1 -14.063201022606332 -8.5481836232195434 32.542377866742797 0 0.69465836192734942 -0.71933980857756763 I I #
edge $-1 $765 3.4933653666667679 $457 14.063201022606332 $630 $772 forward 7 unknown #
point $-1 -14.063201022606332 21.956887797118895 4.5664724653165116 #
point $-1 -14.063201022606332 18.46783354677099 4.5664724653165116 #
edge $-1 $773 1 $773 0 $460 $-1 forward 7 unknown #
vertex $-1 $461 $774 #
ellipse-curve $-1 -11.043247978052172 18.077699428417706 0.69854334912929716 0 0.71933980857756763 0.69465836192734942 1 0 0 1 I I #
point $-1 -10.043247978052172 20.212360671944943 2.7599617010910169 #
edge $-1 $775 1 $775 0 $464 $-1 forward 7 unknown #
vertex $-1 $465 $776 #
ellipse-curve $-1 -6.5133184112209292 18.077699428417706 0.69854334912929716 0 0.71933980857756763 0.69465836192734942 1 0 0 1 I I #
point $-1 -5.5133184112209292 20.212360671944943 2.7599617010910169 #
loop $-1 $-1 $476 $468 #
plane-surface $-1 0 21.956887797118895 0 0 -1 0 0 0 -1 forward_v I I I I #
coedge $-1 $649 $471 $473 $653 reversed $317 $-1 #
coedge $-1 $471 $648 $777 $778 reversed $317 $-1 #
coedge $-1 $479 $474 $471 $651 forward $469 $-1 #
edge $-1 $654 -15.547930915573225 $779 -12.05887666522532 $650 $780 forward 7 unknown #
coedge $-1 $473 $472 $657 $781 reversed $200 $-1 #
edge $-1 $782 -43.913775594237791 $654 -38.891084669352892 $648 $783 forward 7 unknown #
vertex $-1 $475 $784 #
straight-curve $-1 8.4771220619422998 18.467833546770986 4.5664724653165116 1 0 0 I I #
coedge $-1 $777 $476 $479 $661 reversed $646 $-1 #
coedge $-1 $476 $777 $652 $781 forward $646 $-1 #
vertex $-1 $477 $785 #
straight-curve $-1 11.669326295914818 21.956887797118895 53.247272448469083 0 0 1 I I #
straight-curve $-1 11.669326295914818 -8.5481836232195434 32.542377866742797 0 0.69465836192734942 -0.71933980857756763 I I #
edge $-1 $779 -22.239161951854381 $480 -11.669326295914818 $656 $786 forward 7 unknown #
point $-1 11.669326295914818 21.956887797118895 4.5664724653165116 #
point $-1 11.669326295914818 18.46783354677099 4.5664724653165116 #
edge $-1 $787 1 $787 0 $483 $-1 forward 7 unknown #
vertex $-1 $484 $788 #
ellipse-curve $-1 14.689279340468978 18.077699428417706 0.69854334912929716 0 0.71933980857756763 0.69465836192734942 1 0 0 1 I I #
point $-1 15.689279340468978 20.212360671944943 2.7599617010910169 #
edge $-1 $789 1 $789 0 $487 $-1 forward 7 unknown #
vertex $-1 $488 $790 #
ellipse-curve $-1 19.219208907300221 18.077699428417706 0.69854334912929716 0 0.71933980857756763 0.69465836192734942 1 0 0 1 I I #
point $-1 20.219208907300221 20.212360671944943 2.7599617010910169 #
loop $-1 $-1 $499 $491 #
plane-surface $-1 0 21.956887797118895 0 0 -1 0 0 0 -1 forward_v I I I I #
coedge $-1 $675 $494 $496 $679 reversed $339 $-1 #
coedge $-1 $494 $674 $791 $792 reversed $339 $-1 #
coedge $-1 $502 $497 $494 $677 forward $492 $-1 #
edge $-1 $680 -15.547930915573225 $793 -12.05887666522532 $676 $794 forward 7 unknown #
coedge $-1 $496 $495 $683 $795 reversed $214 $-1 #
edge $-1 $796 -43.913775594237791 $680 -38.891084669352892 $674 $797 forward 7 unknown #
vertex $-1 $498 $798 #
straight-curve $-1 21.343385721202875 18.467833546770986 4.5664724653165116 1 0 0 I I #
coedge $-1 $791 $499 $502 $687 reversed $672 $-1 #
coedge $-1 $499 $791 $678 $795 forward $672 $-1 #
vertex $-1 $500 $799 #
straight-curve $-1 37.401853614435964 21.956887797118895 53.247272448469083 0 0 1 I I #
straight-curve $-1 37.401853614435964 -8.5481836232195434 32.542377866742797 0 0.69465836192734942 -0.71933980857756763 I I #
edge $-1 $793 -47.971689270375535 $503 -37.401853614435964 $682 $800 forward 7 unknown #
point $-1 37.401853614435964 21.956887797118895 4.5664724653165116 #
point $-1 37.401853614435964 18.46783354677099 4.5664724653165116 #
edge $-1 $801 1 $801 0 $506 $-1 forward 7 unknown #
vertex $-1 $507 $802 #
ellipse-curve $-1 40.421806658990128 18.077699428417706 0.69854334912929716 0 0.71933980857756763 0.69465836192734942 1 0 0 1 I I #
point $-1 41.421806658990128 20.212360671944943 2.7599617010910169 #
edge $-1 $803 1 $803 0 $510 $-1 forward 7 unknown #
vertex $-1 $511 $804 #
ellipse-curve $-1 44.951736225821371 18.077699428417706 0.69854334912929716 0 0.71933980857756763 0.69465836192734942 1 0 0 1 I I #
point $-1 45.951736225821371 20.212360671944943 2.7599617010910169 #
plane-surface $-1 53.229163487655264 0 0 -1 0 0 0 0 1 forward_v I I I I #
coedge $-1 $534 $520 $525 $707 forward $515 $-1 #
vertex $-1 $518 $805 #
vertex $-1 $706 $806 #
straight-curve $-1 53.229163487655264 0 -4.5664724653165116 0 -1 0 I I #
straight-curve $-1 0 21.956887797118895 4.5664724653165116 -1 0 0 I I #
coedge $-1 $522 $531 $524 $706 reversed $361 $-1 #
straight-curve $-1 0 -21.956887797118895 4.5664724653165116 1 0 0 I I #
edge $-1 $527 -4.5664724653165116 $701 4.5664724653165116 $524 $807 forward 7 unknown #
edge $-1 $528 -4.5664724653165116 $700 4.5664724653165116 $525 $808 forward 7 unknown #
point $-1 53.229163487655264 -21.956887797118895 4.5664724653165116 #
point $-1 53.229163487655264 21.956887797118895 4.5664724653165116 #
straight-curve $-1 -53.229163487655264 0 4.5664724653165116 0 -1 0 I I #
point $-1 -53.229163487655264 -21.956887797118895 4.5664724653165116 #
point $-1 -53.229163487655264 21.956887797118895 4.5664724653165116 #
straight-curve $-1 0 21.956887797118895 -4.5664724653165116 1 0 0 I I #
straight-curve $-1 0 -21.956887797118895 -4.5664724653165116 -1 0 0 I I #
plane-surface $-1 0 0 4.5664724653165116 0 0 1 1 0 0 forward_v I I I I #
coedge $-1 $546 $543 $548 $723 reversed $379 $-1 #
coedge $-1 $543 $546 $729 $809 reversed $379 $-1 #
edge $-1 $731 -4.5664724653165116 $725 4.5664724653165116 $560 $810 forward 7 unknown #
edge $-1 $720 -1.7641088506129705 $558 1.7641088506129705 $545 $811 forward 7 unknown #
vertex $-1 $809 $812 #
vertex $-1 $723 $813 #
straight-curve $-1 -56.757381188881205 -19.333723540311077 0 0 0 -1 I I #
edge $-1 $721 -1.5 $725 1.5 $716 $814 forward 7 unknown #
straight-curve $-1 -54.993272338268234 -19.333723540311077 -4.5664724653165116 -1 0 0 I I #
vertex $-1 $550 $815 #
straight-curve $-1 -54.993272338268234 -16.333723540311077 -4.5664724653165116 1 0 0 I I #
point $-1 -53.229163487655264 -19.333723540311077 -4.5664724653165116 #
straight-curve $-1 -53.229163487655264 -19.333723540311077 0 0 0 -1 I I #
coedge $-1 $556 $555 $717 $809 forward $557 $-1 #
point $-1 -53.229163487655264 -19.333723540311077 4.5664724653165116 #
vertex $-1 $561 $816 #
straight-curve $-1 -54.993272338268234 -16.333723540311077 4.5664724653165116 -1 0 0 I I #
coedge $-1 $567 $566 $574 $738 reversed $244 $-1 #
edge $-1 $570 41.202169579830688 $741 53.229163487655264 $567 $817 forward 7 unknown #
straight-curve $-1 41.202169579830688 -21.956887797118895 42.011006235260282 0 0 -1 I I #
point $-1 41.202169579830688 -21.956887797118895 4.5664724653165116 #
straight-curve $-1 23.607833266871484 -21.956887797118895 0.13170664515968183 1 0 0 I I #
edge $-1 $741 -4.5664724653165116 $575 -0.13170664515968156 $574 $818 forward 7 unknown #
point $-1 53.229163487655249 -21.956887797118895 0.13170664515968156 #
point $-1 41.202169579830688 -21.956887797118895 0.13170664515968156 #
vertex $-1 $579 $819 #
straight-curve $-1 53.229163487655264 0 4.5664724653165116 0 1 0 I I #
vertex $-1 $582 $820 #
point $-1 44.6075683613956 -17.41437296250799 0.16756451681554552 #
vertex $-1 $586 $821 #
point $-1 48.215666533742969 -17.41437296250799 0.16756451681554552 #
vertex $-1 $590 $822 #
point $-1 51.823764706090337 -17.41437296250799 0.16756451681554552 #
coedge $-1 $605 $604 $597 $750 forward $594 $-1 #
edge $-1 $751 48.680799983152568 $754 52.293821511603561 $749 $823 forward 7 unknown #
vertex $-1 $609 $824 #
straight-curve $-1 -29.225892685187912 34.015764462344215 4.5664724653165152 0 1 0 I I #
edge $-1 $754 11.970487428609065 $606 22.540323084548632 $605 $825 forward 7 unknown #
vertex $-1 $753 $826 #
straight-curve $-1 -29.225892685187912 -8.5481836232195434 32.542377866742797 0 -0.69465836192734942 0.71933980857756763 I I #
point $-1 -29.225892685187912 18.46783354677099 4.5664724653165116 #
point $-1 -39.795728341127479 21.956887797118895 0.95345093686552218 #
straight-curve $-1 0 21.956887797118895 4.5664724653165116 -1 0 0 I I #
vertex $-1 $612 $827 #
point $-1 -35.775775296573315 18.077699428417706 0.69854334912929716 #
vertex $-1 $616 $828 #
point $-1 -31.245845729742072 18.077699428417706 0.69854334912929716 #
coedge $-1 $631 $630 $623 $764 forward $620 $-1 #
edge $-1 $765 48.680799983152568 $768 52.293821511603561 $763 $829 forward 7 unknown #
vertex $-1 $635 $830 #
straight-curve $-1 -3.4933653666667679 34.015764462344215 4.5664724653165152 0 1 0 I I #
edge $-1 $768 -0.89577623065150735 $632 9.674059425288057 $631 $831 forward 7 unknown #
vertex $-1 $767 $832 #
straight-curve $-1 -3.4933653666667679 -8.5481836232195434 32.542377866742797 0 -0.69465836192734942 0.71933980857756763 I I #
point $-1 -3.4933653666667679 18.46783354677099 4.5664724653165116 #
point $-1 -14.063201022606332 21.956887797118895 0.95345093686552218 #
straight-curve $-1 0 21.956887797118895 4.5664724653165116 -1 0 0 I I #
vertex $-1 $638 $833 #
point $-1 -10.043247978052172 18.077699428417706 0.69854334912929716 #
vertex $-1 $642 $834 #
point $-1 -5.5133184112209292 18.077699428417706 0.69854334912929716 #
coedge $-1 $657 $656 $649 $778 forward $646 $-1 #
edge $-1 $779 48.680799983152568 $782 52.293821511603561 $777 $835 forward 7 unknown #
vertex $-1 $661 $836 #
straight-curve $-1 22.239161951854381 34.015764462344215 4.5664724653165152 0 1 0 I I #
edge $-1 $782 -13.762039889912081 $658 -3.1922042339725181 $657 $837 forward 7 unknown #
vertex $-1 $781 $838 #
straight-curve $-1 22.239161951854381 -8.5481836232195434 32.542377866742797 0 -0.69465836192734942 0.71933980857756763 I I #
point $-1 22.239161951854381 18.46783354677099 4.5664724653165116 #
point $-1 11.669326295914818 21.956887797118895 0.95345093686552218 #
straight-curve $-1 0 21.956887797118895 4.5664724653165116 -1 0 0 I I #
vertex $-1 $664 $839 #
point $-1 15.689279340468978 18.077699428417706 0.69854334912929716 #
vertex $-1 $668 $840 #
point $-1 20.219208907300221 18.077699428417706 0.69854334912929716 #
coedge $-1 $683 $682 $675 $792 forward $672 $-1 #
edge $-1 $793 48.680799983152568 $796 52.293821511603561 $791 $841 forward 7 unknown #
vertex $-1 $687 $842 #
straight-curve $-1 47.971689270375535 34.015764462344215 4.5664724653165152 0 1 0 I I #
edge $-1 $796 -26.62830354917266 $684 -16.05846789323309 $683 $843 forward 7 unknown #
vertex $-1 $795 $844 #
straight-curve $-1 47.971689270375535 -8.5481836232195434 32.542377866742797 0 -0.69465836192734942 0.71933980857756763 I I #
point $-1 47.971689270375535 18.46783354677099 4.5664724653165116 #
point $-1 37.401853614435964 21.956887797118895 0.95345093686552218 #
straight-curve $-1 0 21.956887797118895 4.5664724653165116 -1 0 0 I I #
vertex $-1 $690 $845 #
point $-1 41.421806658990128 18.077699428417706 0.69854334912929716 #
vertex $-1 $694 $846 #
point $-1 45.951736225821371 18.077699428417706 0.69854334912929716 #
point $-1 53.229163487655264 21.956887797118895 -4.5664724653165116 #
point $-1 53.229163487655264 -21.956887797118895 -4.5664724653165116 #
straight-curve $-1 53.229163487655264 -21.956887797118895 0 0 0 -1 I I #
straight-curve $-1 53.229163487655264 21.956887797118895 0 0 0 -1 I I #
edge $-1 $731 -1.5 $720 1.5 $717 $847 forward 7 unknown #
straight-curve $-1 -56.757381188881205 -16.333723540311077 0 0 0 -1 I I #
straight-curve $-1 -54.993272338268234 -19.333723540311077 4.5664724653165116 1 0 0 I I #
point $-1 -56.757381188881205 -19.333723540311077 4.5664724653165116 #
point $-1 -56.757381188881205 -19.333723540311077 -4.5664724653165116 #
straight-curve $-1 -56.757381188881205 -17.833723540311077 -4.5664724653165116 0 1 0 I I #
point $-1 -56.757381188881205 -16.333723540311077 -4.5664724653165116 #
point $-1 -56.757381188881205 -16.333723540311077 4.5664724653165116 #
straight-curve $-1 0 -21.956887797118895 4.5664724653165116 1 0 0 I I #
straight-curve $-1 53.229163487655264 -21.956887797118895 0 0 0 -1 I I #
point $-1 53.229163487655264 -21.956887797118895 4.5664724653165116 #
point $-1 43.6075683613956 -16.79871147946163 -0.62044623075910366 #
point $-1 47.215666533742969 -16.79871147946163 -0.62044623075910366 #
point $-1 50.823764706090337 -16.79871147946163 -0.62044623075910366 #
straight-curve $-1 -29.225892685187912 21.956887797118895 53.247272448469083 0 0 -1 I I #
point $-1 -29.225892685187912 21.956887797118895 4.5664724653165116 #
straight-curve $-1 -17.255405256578847 21.956887797118892 0.95345093686552396 -1 0 0 I I #
point $-1 -29.225892685187912 21.956887797118895 0.95345093686552218 #
point $-1 -36.775775296573315 17.35835961984014 0.0038849872019477427 #
point $-1 -32.245845729742072 17.35835961984014 0.0038849872019477427 #
straight-curve $-1 -3.4933653666667679 21.956887797118895 53.247272448469083 0 0 -1 I I #
point $-1 -3.4933653666667679 21.956887797118895 4.5664724653165116 #
straight-curve $-1 -4.3891415973182752 21.956887797118892 0.95345093686552396 -1 0 0 I I #
point $-1 -3.4933653666667679 21.956887797118895 0.95345093686552218 #
point $-1 -11.043247978052172 17.35835961984014 0.0038849872019477427 #
point $-1 -6.5133184112209292 17.35835961984014 0.0038849872019477427 #
straight-curve $-1 22.239161951854381 21.956887797118895 53.247272448469083 0 0 -1 I I #
point $-1 22.239161951854381 21.956887797118895 4.5664724653165116 #
straight-curve $-1 8.4771220619422998 21.956887797118892 0.95345093686552396 -1 0 0 I I #
point $-1 22.239161951854381 21.956887797118895 0.95345093686552218 #
point $-1 14.689279340468978 17.35835961984014 0.0038849872019477427 #
point $-1 19.219208907300221 17.35835961984014 0.0038849872019477427 #
straight-curve $-1 47.971689270375535 21.956887797118895 53.247272448469083 0 0 -1 I I #
point $-1 47.971689270375535 21.956887797118895 4.5664724653165116 #
straight-curve $-1 21.343385721202875 21.956887797118892 0.95345093686552396 -1 0 0 I I #
point $-1 47.971689270375535 21.956887797118895 0.95345093686552218 #
point $-1 40.421806658990128 17.35835961984014 0.0038849872019477427 #
point $-1 44.951736225821371 17.35835961984014 0.0038849872019477427 #
straight-curve $-1 -56.757381188881205 -17.833723540311077 4.5664724653165116 0 -1 0 I I #
End-of-ACIS-data 