500 0 13 0           
7 Unknown 11 ACIS 5.0 NT 24 Fri Mar 26 17:00:08 1999 
-1 9.9999999999999995e-007 1e-010 
body $-1 $13 $-1 $14 #
body $-1 $15 $-1 $16 #
body $-1 $17 $-1 $18 #
body $-1 $19 $-1 $20 #
body $-1 $21 $-1 $22 #
body $-1 $23 $-1 $24 #
body $-1 $25 $-1 $26 #
body $-1 $27 $-1 $28 #
body $-1 $29 $-1 $30 #
body $-1 $31 $-1 $32 #
body $-1 $33 $-1 $34 #
body $-1 $35 $-1 $36 #
body $-1 $37 $-1 $38 #
lump $-1 $-1 $39 $0 #
transform $-1 1 0 0 0 1 0 0 0 1 60.193487350077817 37.166681582552854 11.085918122355984 1 rotate no_reflect no_shear #
lump $-1 $-1 $40 $1 #
transform $-1 1 0 0 0 1 0 0 0 1 60.193487350077817 37.166681582552854 11.085918122355984 1 rotate no_reflect no_shear #
lump $-1 $-1 $41 $2 #
transform $-1 1 0 0 0 1 0 0 0 1 60.193487350077817 37.166681582552854 11.085918122355984 1 rotate no_reflect no_shear #
lump $-1 $-1 $42 $3 #
transform $-1 1 0 0 0 1 0 0 0 1 60.193487350077817 37.166681582552854 11.085918122355984 1 rotate no_reflect no_shear #
lump $-1 $-1 $43 $4 #
transform $-1 1 0 0 0 1 0 0 0 1 60.193487350077817 37.166681582552854 11.085918122355984 1 rotate no_reflect no_shear #
lump $-1 $-1 $44 $5 #
transform $-1 1 0 0 0 1 0 0 0 1 60.193487350077817 37.166681582552854 11.085918122355984 1 rotate no_reflect no_shear #
lump $-1 $-1 $45 $6 #
transform $-1 1 0 0 0 1 0 0 0 1 60.193487350077817 37.166681582552854 11.085918122355984 1 rotate no_reflect no_shear #
lump $-1 $-1 $46 $7 #
transform $-1 1 0 0 0 1 0 0 0 1 60.193487350077817 37.166681582552854 11.085918122355984 1 rotate no_reflect no_shear #
lump $-1 $-1 $47 $8 #
transform $-1 1 0 0 0 1 0 0 0 1 60.193487350077817 37.166681582552854 11.085918122355984 1 rotate no_reflect no_shear #
lump $-1 $-1 $48 $9 #
transform $-1 1 0 0 0 1 0 0 0 1 60.193487350077817 37.166681582552854 11.085918122355984 1 rotate no_reflect no_shear #
lump $-1 $-1 $49 $10 #
transform $-1 1 0 0 0 1 0 0 0 1 60.193487350077817 37.166681582552854 11.085918122355984 1 rotate no_reflect no_shear #
lump $-1 $-1 $50 $11 #
transform $-1 1 0 0 0 1 0 0 0 1 60.193487350077817 37.166681582552854 11.085918122355984 1 rotate no_reflect no_shear #
lump $-1 $-1 $51 $12 #
transform $-1 1 0 0 0 1 0 0 0 1 60.193487350077817 37.166681582552854 11.085918122355984 1 rotate no_reflect no_shear #
shell $-1 $-1 $-1 $52 $-1 $13 #
shell $-1 $-1 $-1 $53 $-1 $15 #
shell $-1 $-1 $-1 $54 $-1 $17 #
shell $-1 $-1 $-1 $55 $-1 $19 #
shell $-1 $-1 $-1 $56 $-1 $21 #
shell $-1 $-1 $-1 $57 $-1 $23 #
shell $-1 $-1 $-1 $58 $-1 $25 #
shell $-1 $-1 $-1 $59 $-1 $27 #
shell $-1 $-1 $-1 $60 $-1 $29 #
shell $-1 $-1 $-1 $61 $-1 $31 #
shell $-1 $-1 $-1 $62 $-1 $33 #
shell $-1 $-1 $-1 $63 $-1 $35 #
shell $-1 $-1 $-1 $64 $-1 $37 #
face $-1 $65 $66 $39 $-1 $67 reversed single #
face $-1 $68 $69 $40 $-1 $70 forward single #
face $-1 $71 $72 $41 $-1 $73 forward single #
face $-1 $74 $75 $42 $-1 $76 reversed single #
face $-1 $77 $78 $43 $-1 $79 forward single #
face $-1 $80 $81 $44 $-1 $82 reversed single #
face $-1 $83 $84 $45 $-1 $85 forward single #
face $-1 $86 $87 $46 $-1 $88 forward single #
face $-1 $89 $90 $47 $-1 $91 forward single #
face $-1 $92 $93 $48 $-1 $94 reversed single #
face $-1 $95 $96 $49 $-1 $97 forward single #
face $-1 $98 $99 $50 $-1 $100 forward single #
face $-1 $101 $102 $51 $-1 $103 forward single #
face $-1 $104 $105 $39 $-1 $106 reversed single #
loop $-1 $-1 $107 $52 #
plane-surface $-1 0 37.166681582552854 0 0 -1 0 0 0 -1 forward_v I I I I #
face $-1 $108 $109 $40 $-1 $110 reversed single #
loop $-1 $-1 $111 $53 #
plane-surface $-1 0 -37.166681582552854 0 0 1 0 0 0 1 forward_v I I I I #
face $-1 $112 $113 $41 $-1 $114 reversed single #
loop $-1 $-1 $115 $54 #
plane-surface $-1 0 37.166681582552854 0 0 -1 0 0 0 -1 forward_v I I I I #
face $-1 $116 $117 $42 $-1 $118 reversed single #
loop $-1 $-1 $119 $55 #
plane-surface $-1 -137.57674400610284 14.487157841525928 95.889270444165419 0 1 0 -0.64278761758704617 0 0.76604443648966558 forward_v I I I I #
face $-1 $120 $121 $43 $-1 $122 forward single #
loop $-1 $123 $124 $56 #
cone-surface $-1 -53.352981839513738 21.31892940811467 4.4926152903011882 0.64278761758704617 0 -0.76604443648966558 1.915111091224164 0 1.6069690439676154 1 I I 0 1 2.5 forward I I I I #
face $-1 $125 $126 $44 $-1 $127 reversed single #
loop $-1 $-1 $128 $57 #
plane-surface $-1 36.498865982132656 -12.362589998888133 169.10212875142165 0 -1 0 -0.6018150307709319 0 -0.79863550430605224 forward_v I I I I #
face $-1 $129 $130 $45 $-1 $131 forward single #
loop $-1 $132 $133 $58 #
cone-surface $-1 52.689862567603718 -18.883188984529014 5.1541362837479001 -0.6018150307709319 0 -0.79863550430605224 0.39931775215302612 0 -0.30090751538546595 1 I I 0 1 0.5 forward I I I I #
face $-1 $134 $135 $46 $-1 $136 forward single #
loop $-1 $137 $138 $59 #
cone-surface $-1 52.689862567603718 -16.437964364913682 5.1541362837479001 -0.6018150307709319 0 -0.79863550430605224 0.39931775215302612 0 -0.30090751538546595 1 I I 0 1 0.5 forward I I I I #
face $-1 $139 $140 $47 $-1 $141 forward single #
loop $-1 $142 $143 $60 #
cone-surface $-1 52.689862567603718 -13.992739745298351 5.1541362837479001 -0.6018150307709319 0 -0.79863550430605224 0.39931775215302612 0 -0.30090751538546595 1 I I 0 1 0.5 forward I I I I #
face $-1 $144 $145 $48 $-1 $146 reversed single #
loop $-1 $-1 $147 $61 #
plane-surface $-1 36.498865982132656 20.513338730939225 169.10212875142165 0 -1 0 -0.6018150307709319 0 -0.79863550430605224 forward_v I I I I #
face $-1 $148 $149 $49 $-1 $150 forward single #
loop $-1 $151 $152 $62 #
cone-surface $-1 52.689862567603718 13.992739745298344 5.1541362837479001 -0.6018150307709319 0 -0.79863550430605224 0.39931775215302612 0 -0.30090751538546595 1 I I 0 1 0.5 forward I I I I #
face $-1 $153 $154 $50 $-1 $155 forward single #
loop $-1 $156 $157 $63 #
cone-surface $-1 52.689862567603718 16.437964364913675 5.1541362837479001 -0.6018150307709319 0 -0.79863550430605224 0.39931775215302612 0 -0.30090751538546595 1 I I 0 1 0.5 forward I I I I #
face $-1 $158 $159 $51 $-1 $160 forward single #
loop $-1 $161 $162 $64 #
cone-surface $-1 52.689862567603718 18.883188984529006 5.1541362837479001 -0.6018150307709319 0 -0.79863550430605224 0.39931775215302612 0 -0.30090751538546595 1 I I 0 1 0.5 forward I I I I #
face $-1 $163 $164 $39 $-1 $165 forward single #
loop $-1 $-1 $166 $65 #
plane-surface $-1 0 -37.166681582552854 0 0 1 0 0 0 1 forward_v I I I I #
coedge $-1 $167 $168 $169 $170 reversed $66 $-1 #
face $-1 $171 $172 $40 $-1 $173 reversed single #
loop $-1 $-1 $174 $68 #
plane-surface $-1 0 0 -11.085918122355984 0 0 1 1 0 0 forward_v I I I I #
coedge $-1 $175 $176 $177 $178 forward $69 $-1 #
face $-1 $179 $180 $41 $-1 $181 reversed single #
loop $-1 $-1 $182 $71 #
plane-surface $-1 0 0 -11.085918122355984 0 0 1 1 0 0 forward_v I I I I #
coedge $-1 $183 $184 $185 $186 forward $72 $-1 #
face $-1 $187 $188 $42 $-1 $189 reversed single #
loop $-1 $-1 $190 $74 #
plane-surface $-1 -60.193487350077802 21.31892940811467 3.6674982492890678 -0.64278761758704617 0 0.76604443648966558 0.76604443648966558 0 0.64278761758704617 forward_v I I I I #
coedge $-1 $191 $192 $193 $194 reversed $75 $-1 #
face $-1 $-1 $195 $43 $-1 $196 forward single #
loop $-1 $197 $198 $77 #
cone-surface $-1 -50.129455981929297 21.31892940811467 0.65096684916777114 0.64278761758704617 0 -0.76604443648966558 0.957555545612082 0 0.80348452198380771 1 I I -0.70710678118654757 0.70710678118654735 1.25 forward I I I I #
loop $-1 $-1 $199 $56 #
coedge $-1 $124 $124 $200 $201 reversed $78 $-1 #
face $-1 $202 $203 $44 $-1 $204 reversed single #
loop $-1 $-1 $205 $80 #
plane-surface $-1 -35.95182490146091 -16.437964364913682 72.956816499882905 0.6018150307709319 0 0.79863550430605224 0.79863550430605224 0 -0.6018150307709319 forward_v I I I I #
coedge $-1 $206 $207 $208 $209 reversed $81 $-1 #
face $-1 $-1 $210 $45 $-1 $211 forward single #
loop $-1 $212 $213 $83 #
cone-surface $-1 52.055713317597821 -18.883188984529014 4.3125918220966284 -0.6018150307709319 0 -0.79863550430605224 0.19965887607651306 0 -0.15045375769273298 1 I I -0.70710678118654746 0.70710678118654746 0.25 forward I I I I #
loop $-1 $-1 $214 $58 #
coedge $-1 $133 $133 $215 $216 reversed $84 $-1 #
face $-1 $-1 $217 $46 $-1 $218 forward single #
loop $-1 $219 $220 $86 #
cone-surface $-1 52.055713317597821 -16.437964364913682 4.3125918220966284 -0.6018150307709319 0 -0.79863550430605224 0.19965887607651306 0 -0.15045375769273298 1 I I -0.70710678118654746 0.70710678118654746 0.25 forward I I I I #
loop $-1 $-1 $221 $59 #
coedge $-1 $138 $138 $222 $223 reversed $87 $-1 #
face $-1 $-1 $224 $47 $-1 $225 forward single #
loop $-1 $226 $227 $89 #
cone-surface $-1 52.055713317597821 -13.992739745298351 4.3125918220966284 -0.6018150307709319 0 -0.79863550430605224 0.19965887607651306 0 -0.15045375769273298 1 I I -0.70710678118654746 0.70710678118654746 0.25 forward I I I I #
loop $-1 $-1 $228 $60 #
coedge $-1 $143 $143 $229 $230 reversed $90 $-1 #
face $-1 $231 $232 $48 $-1 $233 reversed single #
loop $-1 $-1 $234 $92 #
plane-surface $-1 -35.95182490146091 16.437964364913675 72.956816499882905 0.6018150307709319 0 0.79863550430605224 0.79863550430605224 0 -0.6018150307709319 forward_v I I I I #
coedge $-1 $235 $236 $237 $238 reversed $93 $-1 #
face $-1 $-1 $239 $49 $-1 $240 forward single #
loop $-1 $241 $242 $95 #
cone-surface $-1 52.055713317597821 13.992739745298344 4.3125918220966284 -0.6018150307709319 0 -0.79863550430605224 0.19965887607651306 0 -0.15045375769273298 1 I I -0.70710678118654746 0.70710678118654746 0.25 forward I I I I #
loop $-1 $-1 $243 $62 #
coedge $-1 $152 $152 $244 $245 reversed $96 $-1 #
face $-1 $-1 $246 $50 $-1 $247 forward single #
loop $-1 $248 $249 $98 #
cone-surface $-1 52.055713317597821 16.437964364913675 4.3125918220966284 -0.6018150307709319 0 -0.79863550430605224 0.19965887607651306 0 -0.15045375769273298 1 I I -0.70710678118654746 0.70710678118654746 0.25 forward I I I I #
loop $-1 $-1 $250 $63 #
coedge $-1 $157 $157 $251 $252 reversed $99 $-1 #
face $-1 $-1 $253 $51 $-1 $254 forward single #
loop $-1 $255 $256 $101 #
cone-surface $-1 52.055713317597821 18.883188984529006 4.3125918220966284 -0.6018150307709319 0 -0.79863550430605224 0.19965887607651306 0 -0.15045375769273298 1 I I -0.70710678118654746 0.70710678118654746 0.25 forward I I I I #
loop $-1 $-1 $257 $64 #
coedge $-1 $162 $162 $258 $259 reversed $102 $-1 #
face $-1 $260 $261 $39 $-1 $262 reversed single #
loop $-1 $-1 $263 $104 #
plane-surface $-1 0 0 11.085918122355984 0 0 1 1 0 0 forward_v I I I I #
coedge $-1 $264 $265 $266 $267 reversed $105 $-1 #
coedge $-1 $268 $107 $269 $270 reversed $66 $-1 #
coedge $-1 $107 $268 $271 $272 forward $66 $-1 #
coedge $-1 $273 $274 $107 $170 forward $261 $-1 #
edge $-1 $275 -60.193487350077817 $276 60.193487350077817 $107 $277 forward 7 unknown #
face $-1 $278 $279 $40 $-1 $280 reversed single #
loop $-1 $-1 $281 $108 #
plane-surface $-1 -40.30538339448951 -46.182662190402297 0 0 1 0 0 0 1 forward_v I I I I #
coedge $-1 $282 $283 $176 $284 forward $109 $-1 #
coedge $-1 $285 $111 $286 $287 reversed $69 $-1 #
coedge $-1 $111 $285 $174 $284 reversed $69 $-1 #
coedge $-1 $288 $289 $111 $178 reversed $279 $-1 #
edge $-1 $290 -11.085918122355984 $291 11.085918122355984 $177 $292 forward 7 unknown #
face $-1 $293 $294 $41 $-1 $295 reversed single #
loop $-1 $-1 $296 $112 #
plane-surface $-1 -42.589115683613173 41.674671886477569 0 1 0 0 0 0 -1 forward_v I I I I #
coedge $-1 $297 $298 $184 $299 forward $113 $-1 #
coedge $-1 $300 $115 $301 $302 reversed $72 $-1 #
coedge $-1 $115 $300 $182 $299 reversed $72 $-1 #
coedge $-1 $303 $304 $115 $186 reversed $305 $-1 #
edge $-1 $306 -11.085918122355984 $307 11.085918122355984 $185 $308 forward 7 unknown #
face $-1 $309 $310 $42 $-1 $311 reversed single #
loop $-1 $-1 $312 $116 #
plane-surface $-1 -137.57674400610284 28.150700974703412 95.889270444165419 0 -1 0 0.64278761758704617 0 -0.76604443648966558 forward_v I I I I #
coedge $-1 $313 $314 $315 $316 reversed $117 $-1 #
coedge $-1 $192 $119 $317 $318 reversed $75 $-1 #
coedge $-1 $119 $191 $313 $319 reversed $75 $-1 #
coedge $-1 $315 $320 $119 $194 forward $321 $-1 #
edge $-1 $322 8.5948846529736045 $323 17.43581300290051 $193 $324 forward 7 unknown #
loop $-1 $-1 $200 $120 #
plane-surface $-1 -60.193487350077802 21.31892940811467 3.6674982492890678 -0.64278761758704617 0 0.76604443648966558 0.76604443648966558 0 0.64278761758704617 forward_v I I I I #
loop $-1 $-1 $325 $77 #
coedge $-1 $198 $198 $199 $326 reversed $121 $-1 #
coedge $-1 $199 $199 $198 $326 forward $123 $-1 #
coedge $-1 $200 $200 $124 $201 forward $195 $-1 #
edge $-1 $327 0 $327 6.2831853071796004 $200 $328 forward 7 unknown #
face $-1 $329 $330 $44 $-1 $331 forward single #
loop $-1 $-1 $332 $125 #
plane-surface $-1 36.498865982132656 -20.513338730939232 169.10212875142165 0 1 0 0.6018150307709319 0 0.79863550430605224 forward_v I I I I #
coedge $-1 $333 $334 $335 $336 reversed $126 $-1 #
coedge $-1 $207 $128 $337 $338 reversed $81 $-1 #
coedge $-1 $128 $206 $333 $339 reversed $81 $-1 #
coedge $-1 $335 $340 $128 $209 forward $330 $-1 #
edge $-1 $341 -41.944054359011488 $342 -27.904195778689655 $208 $343 forward 7 unknown #
loop $-1 $-1 $215 $129 #
plane-surface $-1 -35.95182490146091 -16.437964364913682 72.956816499882905 0.6018150307709319 0 0.79863550430605224 0.79863550430605224 0 -0.6018150307709319 forward_v I I I I #
loop $-1 $-1 $344 $83 #
coedge $-1 $213 $213 $214 $345 reversed $130 $-1 #
coedge $-1 $214 $214 $213 $345 forward $132 $-1 #
coedge $-1 $215 $215 $133 $216 forward $210 $-1 #
edge $-1 $346 0 $346 6.2831853071796004 $215 $347 forward 7 unknown #
loop $-1 $-1 $222 $134 #
plane-surface $-1 -35.95182490146091 -16.437964364913682 72.956816499882905 0.6018150307709319 0 0.79863550430605224 0.79863550430605224 0 -0.6018150307709319 forward_v I I I I #
loop $-1 $-1 $348 $86 #
coedge $-1 $220 $220 $221 $349 reversed $135 $-1 #
coedge $-1 $221 $221 $220 $349 forward $137 $-1 #
coedge $-1 $222 $222 $138 $223 forward $217 $-1 #
edge $-1 $350 0 $350 6.2831853071796004 $222 $351 forward 7 unknown #
loop $-1 $-1 $229 $139 #
plane-surface $-1 -35.95182490146091 -16.437964364913682 72.956816499882905 0.6018150307709319 0 0.79863550430605224 0.79863550430605224 0 -0.6018150307709319 forward_v I I I I #
loop $-1 $-1 $352 $89 #
coedge $-1 $227 $227 $228 $353 reversed $140 $-1 #
coedge $-1 $228 $228 $227 $353 forward $142 $-1 #
coedge $-1 $229 $229 $143 $230 forward $224 $-1 #
edge $-1 $354 0 $354 6.2831853071796004 $229 $355 forward 7 unknown #
face $-1 $356 $357 $48 $-1 $358 reversed single #
loop $-1 $-1 $359 $144 #
plane-surface $-1 36.498865982132656 12.362589998888126 169.10212875142165 0 1 0 0.6018150307709319 0 0.79863550430605224 forward_v I I I I #
coedge $-1 $360 $361 $362 $363 reversed $145 $-1 #
coedge $-1 $236 $147 $364 $365 reversed $93 $-1 #
coedge $-1 $147 $235 $360 $366 reversed $93 $-1 #
coedge $-1 $362 $367 $147 $238 forward $368 $-1 #
edge $-1 $369 -41.944054359011488 $370 -27.904195778689655 $237 $371 forward 7 unknown #
loop $-1 $-1 $244 $148 #
plane-surface $-1 -35.95182490146091 16.437964364913675 72.956816499882905 0.6018150307709319 0 0.79863550430605224 0.79863550430605224 0 -0.6018150307709319 forward_v I I I I #
loop $-1 $-1 $372 $95 #
coedge $-1 $242 $242 $243 $373 reversed $149 $-1 #
coedge $-1 $243 $243 $242 $373 forward $151 $-1 #
coedge $-1 $244 $244 $152 $245 forward $239 $-1 #
edge $-1 $374 0 $374 6.2831853071796004 $244 $375 forward 7 unknown #
loop $-1 $-1 $251 $153 #
plane-surface $-1 -35.95182490146091 16.437964364913675 72.956816499882905 0.6018150307709319 0 0.79863550430605224 0.79863550430605224 0 -0.6018150307709319 forward_v I I I I #
loop $-1 $-1 $376 $98 #
coedge $-1 $249 $249 $250 $377 reversed $154 $-1 #
coedge $-1 $250 $250 $249 $377 forward $156 $-1 #
coedge $-1 $251 $251 $157 $252 forward $246 $-1 #
edge $-1 $378 0 $378 6.2831853071796004 $251 $379 forward 7 unknown #
loop $-1 $-1 $258 $158 #
plane-surface $-1 -35.95182490146091 16.437964364913675 72.956816499882905 0.6018150307709319 0 0.79863550430605224 0.79863550430605224 0 -0.6018150307709319 forward_v I I I I #
loop $-1 $-1 $380 $101 #
coedge $-1 $256 $256 $257 $381 reversed $159 $-1 #
coedge $-1 $257 $257 $256 $381 forward $161 $-1 #
coedge $-1 $258 $258 $162 $259 forward $253 $-1 #
edge $-1 $382 0 $382 6.2831853071796004 $258 $383 forward 7 unknown #
face $-1 $384 $385 $39 $-1 $386 reversed single #
loop $-1 $-1 $273 $163 #
plane-surface $-1 0 0 -11.085918122355984 0 0 1 1 0 0 forward_v I I I I #
coedge $-1 $387 $388 $389 $390 forward $164 $-1 #
coedge $-1 $391 $166 $392 $393 reversed $105 $-1 #
coedge $-1 $166 $391 $394 $395 forward $105 $-1 #
coedge $-1 $274 $273 $166 $267 forward $261 $-1 #
edge $-1 $396 -60.193487350077817 $397 60.193487350077817 $166 $398 forward 7 unknown #
coedge $-1 $168 $167 $387 $399 reversed $66 $-1 #
coedge $-1 $400 $401 $167 $270 forward $385 $-1 #
edge $-1 $402 -11.085918122355984 $275 11.085918122355984 $167 $403 forward 7 unknown #
coedge $-1 $389 $404 $168 $272 reversed $405 $-1 #
edge $-1 $406 -11.085918122355984 $276 11.085918122355984 $271 $407 forward 7 unknown #
coedge $-1 $266 $169 $404 $408 forward $261 $-1 #
coedge $-1 $169 $266 $400 $409 forward $261 $-1 #
vertex $-1 $170 $410 #
vertex $-1 $408 $411 #
straight-curve $-1 0 37.166681582552854 -11.085918122355984 1 0 0 I I #
face $-1 $412 $413 $40 $-1 $414 reversed single #
loop $-1 $-1 $177 $171 #
plane-surface $-1 -42.589115683613173 -41.674671886477576 0 1 0 0 0 0 -1 forward_v I I I I #
coedge $-1 $415 $416 $417 $418 forward $172 $-1 #
coedge $-1 $419 $174 $420 $421 forward $109 $-1 #
coedge $-1 $174 $419 $288 $422 forward $109 $-1 #
edge $-1 $290 -42.589115683613173 $423 -38.021651105365848 $174 $424 forward 7 unknown #
coedge $-1 $176 $175 $425 $426 forward $69 $-1 #
coedge $-1 $427 $428 $175 $287 forward $429 $-1 #
edge $-1 $430 38.021651105365848 $291 42.589115683613173 $286 $431 forward 7 unknown #
coedge $-1 $417 $177 $283 $422 reversed $279 $-1 #
coedge $-1 $177 $417 $427 $432 reversed $279 $-1 #
vertex $-1 $284 $433 #
vertex $-1 $432 $434 #
straight-curve $-1 -42.589115683613173 -37.166681582552854 0 0 0 1 I I #
face $-1 $435 $305 $41 $-1 $436 reversed single #
loop $-1 $-1 $437 $179 #
plane-surface $-1 -40.30538339448951 46.18266219040229 0 0 -1 0 0 0 -1 forward_v I I I I #
coedge $-1 $438 $439 $440 $441 forward $180 $-1 #
coedge $-1 $442 $182 $438 $443 forward $113 $-1 #
coedge $-1 $182 $442 $303 $444 forward $113 $-1 #
edge $-1 $306 38.021651105365848 $445 42.589115683613173 $182 $446 forward 7 unknown #
coedge $-1 $184 $183 $447 $448 forward $72 $-1 #
coedge $-1 $449 $450 $183 $302 forward $451 $-1 #
edge $-1 $452 -42.589115683613173 $307 -38.021651105365848 $301 $453 forward 7 unknown #
coedge $-1 $454 $185 $298 $444 reversed $305 $-1 #
coedge $-1 $185 $454 $449 $455 reversed $305 $-1 #
loop $-1 $-1 $185 $293 #
vertex $-1 $299 $456 #
vertex $-1 $455 $457 #
straight-curve $-1 -38.021651105365848 37.166681582552854 0 0 0 1 I I #
face $-1 $-1 $321 $42 $-1 $458 forward single #
loop $-1 $-1 $459 $187 #
plane-surface $-1 -60.193487350077817 0 0 1 0 0 0 0 -1 forward_v I I I I #
coedge $-1 $460 $461 $462 $463 reversed $188 $-1 #
coedge $-1 $464 $190 $192 $319 forward $117 $-1 #
coedge $-1 $190 $464 $460 $465 forward $117 $-1 #
coedge $-1 $462 $193 $190 $316 forward $321 $-1 #
edge $-1 $323 3.827693137468593 $466 17.491236270646077 $315 $467 forward 7 unknown #
coedge $-1 $468 $469 $191 $318 forward $310 $-1 #
edge $-1 $470 -44.277136972793656 $322 -36.858717099726725 $317 $471 forward 7 unknown #
edge $-1 $323 -11.541012412334336 $470 1.8593432412625586e-014 $192 $472 forward 7 unknown #
coedge $-1 $193 $462 $468 $473 forward $321 $-1 #
loop $-1 $-1 $462 $309 #
vertex $-1 $318 $474 #
vertex $-1 $194 $475 #
straight-curve $-1 -68.788372003051421 14.487157841525928 11.085918122355984 1 0 0 I I #
coedge $-1 $325 $325 $-1 $476 reversed $197 $-1 #
edge $-1 $477 0 $477 6.2831853071796004 $198 $478 forward 7 unknown #
vertex $-1 $201 $479 #
ellipse-curve $-1 -55.773023175114368 21.31892940811467 7.3767081858225172 -0.64278761758704617 0 0.76604443648966558 1.915111091224164 0 1.6069690439676154 1 I I #
face $-1 $-1 $480 $44 $-1 $481 reversed single #
loop $-1 $-1 $208 $202 #
plane-surface $-1 0 0 11.085918122355984 0 0 1 1 0 0 forward_v I I I I #
coedge $-1 $482 $483 $484 $485 reversed $203 $-1 #
coedge $-1 $486 $205 $207 $339 forward $126 $-1 #
coedge $-1 $205 $486 $482 $487 forward $126 $-1 #
coedge $-1 $484 $208 $205 $336 forward $330 $-1 #
edge $-1 $342 4.1436078164312917 $488 12.294356548482391 $335 $489 forward 7 unknown #
coedge $-1 $490 $491 $206 $338 forward $480 $-1 #
edge $-1 $492 -84.04493875942147 $341 -73.465146253354845 $337 $493 forward 7 unknown #
edge $-1 $342 102.80716700988607 $492 120.38697470015562 $207 $494 forward 7 unknown #
coedge $-1 $208 $484 $490 $495 forward $330 $-1 #
vertex $-1 $209 $496 #
vertex $-1 $209 $497 #
straight-curve $-1 18.249432991066328 -12.362589998888133 11.085918122355991 -1 0 0 I I #
coedge $-1 $344 $344 $-1 $498 reversed $212 $-1 #
edge $-1 $499 0 $499 6.2831853071796004 $213 $500 forward 7 unknown #
vertex $-1 $216 $501 #
ellipse-curve $-1 53.173558059916893 -18.883188984529014 5.7960218693226686 0.6018150307709319 0 0.79863550430605224 0.39931775215302612 0 -0.30090751538546595 1 I I #
coedge $-1 $348 $348 $-1 $502 reversed $219 $-1 #
edge $-1 $503 0 $503 6.2831853071796004 $220 $504 forward 7 unknown #
vertex $-1 $223 $505 #
ellipse-curve $-1 53.173558059916893 -16.437964364913682 5.7960218693226686 0.6018150307709319 0 0.79863550430605224 0.39931775215302612 0 -0.30090751538546595 1 I I #
coedge $-1 $352 $352 $-1 $506 reversed $226 $-1 #
edge $-1 $507 0 $507 6.2831853071796004 $227 $508 forward 7 unknown #
vertex $-1 $230 $509 #
ellipse-curve $-1 53.173558059916893 -13.992739745298351 5.7960218693226686 0.6018150307709319 0 0.79863550430605224 0.39931775215302612 0 -0.30090751538546595 1 I I #
face $-1 $-1 $368 $48 $-1 $510 forward single #
loop $-1 $-1 $511 $231 #
plane-surface $-1 60.193487350077817 0 0 -1 0 0 0 0 1 forward_v I I I I #
coedge $-1 $512 $513 $514 $515 reversed $232 $-1 #
coedge $-1 $516 $234 $236 $366 forward $145 $-1 #
coedge $-1 $234 $516 $512 $517 forward $145 $-1 #
coedge $-1 $514 $237 $234 $363 forward $368 $-1 #
edge $-1 $370 -12.294356548482387 $518 -4.1436078164312882 $362 $519 forward 7 unknown #
coedge $-1 $520 $521 $235 $365 forward $357 $-1 #
edge $-1 $522 -84.04493875942147 $369 -73.465146253354845 $364 $523 forward 7 unknown #
edge $-1 $370 102.80716700988607 $522 120.38697470015562 $236 $524 forward 7 unknown #
coedge $-1 $237 $514 $520 $525 forward $368 $-1 #
loop $-1 $-1 $514 $356 #
vertex $-1 $365 $526 #
vertex $-1 $238 $527 #
straight-curve $-1 18.249432991066328 20.513338730939225 11.085918122355991 -1 0 0 I I #
coedge $-1 $372 $372 $-1 $528 reversed $241 $-1 #
edge $-1 $529 0 $529 6.2831853071796004 $242 $530 forward 7 unknown #
vertex $-1 $245 $531 #
ellipse-curve $-1 53.173558059916893 13.992739745298344 5.7960218693226686 0.6018150307709319 0 0.79863550430605224 0.39931775215302612 0 -0.30090751538546595 1 I I #
coedge $-1 $376 $376 $-1 $532 reversed $248 $-1 #
edge $-1 $533 0 $533 6.2831853071796004 $249 $534 forward 7 unknown #
vertex $-1 $252 $535 #
ellipse-curve $-1 53.173558059916893 16.437964364913675 5.7960218693226686 0.6018150307709319 0 0.79863550430605224 0.39931775215302612 0 -0.30090751538546595 1 I I #
coedge $-1 $380 $380 $-1 $536 reversed $255 $-1 #
edge $-1 $537 0 $537 6.2831853071796004 $256 $538 forward 7 unknown #
vertex $-1 $259 $539 #
ellipse-curve $-1 53.173558059916893 18.883188984529006 5.7960218693226686 0.6018150307709319 0 0.79863550430605224 0.39931775215302612 0 -0.30090751538546595 1 I I #
face $-1 $-1 $405 $39 $-1 $540 reversed single #
loop $-1 $-1 $269 $260 #
plane-surface $-1 -60.193487350077817 0 0 1 0 0 0 0 -1 forward_v I I I I #
coedge $-1 $541 $263 $268 $399 forward $164 $-1 #
coedge $-1 $263 $541 $391 $542 forward $164 $-1 #
coedge $-1 $392 $271 $263 $390 reversed $405 $-1 #
edge $-1 $543 -37.166681582552854 $406 37.166681582552854 $389 $544 forward 7 unknown #
coedge $-1 $265 $264 $388 $542 reversed $105 $-1 #
coedge $-1 $404 $389 $264 $393 forward $405 $-1 #
edge $-1 $543 -11.085918122355984 $396 11.085918122355984 $392 $545 forward 7 unknown #
coedge $-1 $401 $400 $265 $395 reversed $385 $-1 #
edge $-1 $546 -11.085918122355984 $397 11.085918122355984 $394 $547 forward 7 unknown #
vertex $-1 $393 $548 #
vertex $-1 $409 $549 #
straight-curve $-1 0 -37.166681582552854 -11.085918122355984 -1 0 0 I I #
edge $-1 $406 -60.193487350077817 $402 60.193487350077817 $268 $550 forward 7 unknown #
coedge $-1 $394 $269 $274 $409 reversed $385 $-1 #
coedge $-1 $269 $394 $541 $551 reversed $385 $-1 #
vertex $-1 $399 $552 #
straight-curve $-1 -60.193487350077817 37.166681582552854 0 0 0 -1 I I #
coedge $-1 $271 $392 $273 $408 reversed $405 $-1 #
loop $-1 $-1 $392 $384 #
vertex $-1 $390 $553 #
straight-curve $-1 60.193487350077817 37.166681582552854 0 0 0 -1 I I #
edge $-1 $276 -37.166681582552854 $396 37.166681582552854 $404 $554 forward 7 unknown #
edge $-1 $397 -37.166681582552854 $275 37.166681582552854 $400 $555 forward 7 unknown #
point $-1 -60.193487350077817 37.166681582552854 -11.085918122355984 #
point $-1 60.193487350077817 37.166681582552854 -11.085918122355984 #
face $-1 $-1 $429 $40 $-1 $556 forward single #
loop $-1 $-1 $557 $278 #
plane-surface $-1 -38.021651105365848 -41.674671886477576 0 -1 0 0 0 0 1 forward_v I I I I #
coedge $-1 $558 $281 $419 $559 reversed $172 $-1 #
coedge $-1 $281 $558 $560 $561 reversed $172 $-1 #
coedge $-1 $289 $288 $281 $418 reversed $279 $-1 #
edge $-1 $562 -11.085918122355984 $563 11.085918122355984 $417 $564 forward 7 unknown #
coedge $-1 $283 $282 $415 $559 forward $109 $-1 #
coedge $-1 $425 $557 $282 $421 reversed $413 $-1 #
edge $-1 $423 -4.5079903039247213 $565 4.5079903039247213 $420 $566 forward 7 unknown #
edge $-1 $563 -4.5079903039247213 $290 4.5079903039247213 $288 $567 forward 7 unknown #
vertex $-1 $421 $568 #
straight-curve $-1 0 -37.166681582552854 -11.085918122355984 1 0 0 I I #
coedge $-1 $569 $420 $285 $426 reversed $413 $-1 #
edge $-1 $430 -11.085918122355984 $423 11.085918122355984 $425 $570 forward 7 unknown #
coedge $-1 $560 $286 $289 $432 forward $429 $-1 #
coedge $-1 $286 $560 $569 $571 forward $429 $-1 #
loop $-1 $-1 $286 $412 #
vertex $-1 $287 $572 #
straight-curve $-1 0 -37.166681582552854 11.085918122355984 -1 0 0 I I #
edge $-1 $291 -4.5079903039247213 $562 4.5079903039247213 $289 $573 forward 7 unknown #
point $-1 -42.589115683613173 -37.166681582552854 -11.085918122355984 #
point $-1 -42.589115683613173 -37.166681582552854 11.085918122355984 #
face $-1 $-1 $451 $41 $-1 $574 forward single #
plane-surface $-1 -38.021651105365848 41.674671886477569 0 -1 0 0 0 0 1 forward_v I I I I #
coedge $-1 $575 $576 $454 $577 forward $294 $-1 #
coedge $-1 $447 $296 $297 $443 reversed $180 $-1 #
coedge $-1 $296 $447 $450 $578 reversed $180 $-1 #
coedge $-1 $576 $575 $296 $441 reversed $294 $-1 #
edge $-1 $579 -11.085918122355984 $580 11.085918122355984 $440 $581 forward 7 unknown #
coedge $-1 $298 $297 $575 $582 forward $113 $-1 #
edge $-1 $445 -4.5079903039247213 $580 4.5079903039247213 $438 $583 forward 7 unknown #
edge $-1 $584 -4.5079903039247213 $306 4.5079903039247213 $303 $585 forward 7 unknown #
vertex $-1 $443 $586 #
straight-curve $-1 0 37.166681582552854 -11.085918122355984 -1 0 0 I I #
coedge $-1 $439 $438 $300 $448 reversed $180 $-1 #
edge $-1 $452 -11.085918122355984 $445 11.085918122355984 $447 $587 forward 7 unknown #
coedge $-1 $588 $301 $304 $455 forward $451 $-1 #
coedge $-1 $301 $588 $439 $578 forward $451 $-1 #
loop $-1 $-1 $301 $435 #
vertex $-1 $302 $589 #
straight-curve $-1 0 37.166681582552854 11.085918122355984 1 0 0 I I #
coedge $-1 $304 $303 $437 $577 reversed $305 $-1 #
edge $-1 $307 -4.5079903039247213 $590 4.5079903039247213 $304 $591 forward 7 unknown #
point $-1 -38.021651105365848 37.166681582552847 -11.085918122355984 #
point $-1 -38.021651105365848 37.166681582552847 11.085918122355984 #
plane-surface $-1 0 0 11.085918122355984 0 0 1 1 0 0 forward_v I I I I #
coedge $-1 $469 $468 $461 $592 forward $310 $-1 #
coedge $-1 $461 $312 $314 $465 reversed $188 $-1 #
coedge $-1 $312 $460 $459 $592 reversed $188 $-1 #
coedge $-1 $320 $315 $312 $463 forward $321 $-1 #
edge $-1 $466 -17.43581300290051 $593 -8.5948846529736045 $462 $594 forward 7 unknown #
coedge $-1 $314 $313 $469 $595 reversed $117 $-1 #
edge $-1 $596 -1.8593432412625586e-014 $466 11.541012412334336 $460 $597 forward 7 unknown #
vertex $-1 $316 $598 #
straight-curve $-1 -51.352559000150919 10.659464704057335 11.085918122355984 0 1 0 I I #
coedge $-1 $459 $317 $320 $473 reversed $310 $-1 #
coedge $-1 $317 $459 $464 $595 forward $310 $-1 #
vertex $-1 $318 $599 #
straight-curve $-1 -60.193487350077817 14.487157841525928 47.944635222082709 0 0 1 I I #
straight-curve $-1 -60.193487350077802 14.487157841525928 3.6674982492890678 -0.76604443648966558 0 -0.64278761758704617 I I #
edge $-1 $593 -28.150700974703412 $322 -14.487157841525928 $468 $600 forward 7 unknown #
point $-1 -60.193487350077817 14.487157841525928 11.085918122355984 #
point $-1 -51.352559000150912 14.487157841525928 11.085918122355984 #
edge $-1 $601 1 $601 0 $325 $-1 forward 7 unknown #
vertex $-1 $326 $602 #
ellipse-curve $-1 -50.932940503913102 21.31892940811467 1.6085223947798528 -0.64278761758704617 0 0.76604443648966558 1.915111091224164 0 1.6069690439676154 1 I I #
point $-1 -53.857912083890206 21.31892940811467 8.9836772297901391 #
loop $-1 $-1 $337 $329 #
plane-surface $-1 60.193487350077817 0 0 -1 0 0 0 0 1 forward_v I I I I #
coedge $-1 $483 $332 $334 $487 reversed $203 $-1 #
coedge $-1 $332 $482 $603 $604 reversed $203 $-1 #
coedge $-1 $340 $335 $332 $485 forward $330 $-1 #
edge $-1 $488 27.904195778689655 $605 41.944054359011488 $484 $606 forward 7 unknown #
coedge $-1 $334 $333 $491 $607 reversed $126 $-1 #
edge $-1 $608 -120.38697470015562 $488 -102.80716700988607 $482 $609 forward 7 unknown #
vertex $-1 $336 $610 #
straight-curve $-1 46.153628769755997 -8.2189821824568412 11.085918122355991 0 -1 0 I I #
coedge $-1 $603 $337 $340 $495 reversed $480 $-1 #
coedge $-1 $337 $603 $486 $607 forward $480 $-1 #
vertex $-1 $338 $611 #
straight-curve $-1 60.193487350077817 -12.362589998888133 84.551064375710823 0 0 1 I I #
straight-curve $-1 -35.95182490146091 -12.362589998888133 72.956816499882905 0.79863550430605224 0 -0.6018150307709319 I I #
edge $-1 $605 -20.513338730939232 $341 -12.362589998888133 $490 $612 forward 7 unknown #
point $-1 60.193487350077817 -12.362589998888133 11.085918122355984 #
point $-1 46.153628769755983 -12.362589998888133 11.085918122355984 #
edge $-1 $613 1 $613 0 $344 $-1 forward 7 unknown #
vertex $-1 $345 $614 #
ellipse-curve $-1 52.206167075290551 -18.883188984529014 4.5122506981731414 0.6018150307709319 0 0.79863550430605224 0.39931775215302612 0 -0.30090751538546595 1 I I #
point $-1 53.572875812069917 -18.883188984529014 5.4951143539371934 #
edge $-1 $615 1 $615 0 $348 $-1 forward 7 unknown #
vertex $-1 $349 $616 #
ellipse-curve $-1 52.206167075290551 -16.437964364913682 4.5122506981731414 0.6018150307709319 0 0.79863550430605224 0.39931775215302612 0 -0.30090751538546595 1 I I #
point $-1 53.572875812069917 -16.437964364913682 5.4951143539371934 #
edge $-1 $617 1 $617 0 $352 $-1 forward 7 unknown #
vertex $-1 $353 $618 #
ellipse-curve $-1 52.206167075290551 -13.992739745298351 4.5122506981731414 0.6018150307709319 0 0.79863550430605224 0.39931775215302612 0 -0.30090751538546595 1 I I #
point $-1 53.572875812069917 -13.992739745298351 5.4951143539371934 #
plane-surface $-1 0 0 11.085918122355984 0 0 1 1 0 0 forward_v I I I I #
coedge $-1 $521 $520 $513 $619 forward $357 $-1 #
coedge $-1 $513 $359 $361 $517 reversed $232 $-1 #
coedge $-1 $359 $512 $511 $619 reversed $232 $-1 #
coedge $-1 $367 $362 $359 $515 forward $368 $-1 #
edge $-1 $518 27.904195778689655 $620 41.944054359011488 $514 $621 forward 7 unknown #
coedge $-1 $361 $360 $521 $622 reversed $145 $-1 #
edge $-1 $623 -120.38697470015562 $518 -102.80716700988607 $512 $624 forward 7 unknown #
vertex $-1 $363 $625 #
straight-curve $-1 46.153628769755997 8.2189821824568376 11.085918122355991 0 -1 0 I I #
coedge $-1 $511 $364 $367 $525 reversed $357 $-1 #
coedge $-1 $364 $511 $516 $622 forward $357 $-1 #
vertex $-1 $365 $626 #
straight-curve $-1 60.193487350077817 20.513338730939225 84.551064375710823 0 0 1 I I #
straight-curve $-1 -35.95182490146091 20.513338730939225 72.956816499882905 0.79863550430605224 0 -0.6018150307709319 I I #
edge $-1 $620 12.362589998888126 $369 20.513338730939225 $520 $627 forward 7 unknown #
point $-1 60.193487350077817 20.513338730939225 11.085918122355984 #
point $-1 46.153628769755983 20.513338730939225 11.085918122355984 #
edge $-1 $628 1 $628 0 $372 $-1 forward 7 unknown #
vertex $-1 $373 $629 #
ellipse-curve $-1 52.206167075290551 13.992739745298344 4.5122506981731414 0.6018150307709319 0 0.79863550430605224 0.39931775215302612 0 -0.30090751538546595 1 I I #
point $-1 53.572875812069917 13.992739745298344 5.4951143539371934 #
edge $-1 $630 1 $630 0 $376 $-1 forward 7 unknown #
vertex $-1 $377 $631 #
ellipse-curve $-1 52.206167075290551 16.437964364913675 4.5122506981731414 0.6018150307709319 0 0.79863550430605224 0.39931775215302612 0 -0.30090751538546595 1 I I #
point $-1 53.572875812069917 16.437964364913675 5.4951143539371934 #
edge $-1 $632 1 $632 0 $380 $-1 forward 7 unknown #
vertex $-1 $381 $633 #
ellipse-curve $-1 52.206167075290551 18.883188984529006 4.5122506981731414 0.6018150307709319 0 0.79863550430605224 0.39931775215302612 0 -0.30090751538546595 1 I I #
point $-1 53.572875812069917 18.883188984529006 5.4951143539371934 #
plane-surface $-1 60.193487350077817 0 0 -1 0 0 0 0 1 forward_v I I I I #
coedge $-1 $388 $387 $401 $551 forward $164 $-1 #
edge $-1 $546 -60.193487350077817 $543 60.193487350077817 $391 $634 forward 7 unknown #
vertex $-1 $390 $635 #
straight-curve $-1 60.193487350077817 0 11.085918122355984 0 1 0 I I #
straight-curve $-1 60.193487350077817 -37.166681582552854 0 0 0 -1 I I #
vertex $-1 $551 $636 #
straight-curve $-1 -60.193487350077817 -37.166681582552854 0 0 0 -1 I I #
point $-1 60.193487350077817 -37.166681582552854 -11.085918122355984 #
point $-1 -60.193487350077817 -37.166681582552854 -11.085918122355984 #
straight-curve $-1 0 37.166681582552854 11.085918122355984 -1 0 0 I I #
edge $-1 $402 -37.166681582552854 $546 37.166681582552854 $401 $637 forward 7 unknown #
point $-1 -60.193487350077817 37.166681582552854 11.085918122355984 #
point $-1 60.193487350077817 37.166681582552854 11.085918122355984 #
straight-curve $-1 60.193487350077817 0 -11.085918122355984 0 -1 0 I I #
straight-curve $-1 -60.193487350077817 0 -11.085918122355984 0 1 0 I I #
plane-surface $-1 0 0 11.085918122355984 0 0 1 1 0 0 forward_v I I I I #
coedge $-1 $420 $569 $558 $638 forward $413 $-1 #
coedge $-1 $416 $415 $557 $638 reversed $172 $-1 #
edge $-1 $565 -2.2837322891236624 $563 2.2837322891236624 $415 $639 forward 7 unknown #
coedge $-1 $428 $427 $416 $561 forward $429 $-1 #
edge $-1 $562 -2.2837322891236624 $640 2.2837322891236624 $416 $641 forward 7 unknown #
vertex $-1 $432 $642 #
vertex $-1 $422 $643 #
straight-curve $-1 -42.589115683613173 -46.182662190402297 0 0 0 -1 I I #
vertex $-1 $638 $644 #
straight-curve $-1 -38.021651105365848 -41.674671886477576 -11.085918122355984 0 -1 0 I I #
straight-curve $-1 -42.589115683613173 -41.674671886477576 -11.085918122355984 0 1 0 I I #
point $-1 -38.021651105365848 -37.166681582552854 -11.085918122355984 #
coedge $-1 $557 $425 $428 $571 reversed $413 $-1 #
straight-curve $-1 -38.021651105365848 -37.166681582552854 0 0 0 -1 I I #
edge $-1 $640 -4.5079903039247213 $430 4.5079903039247213 $569 $645 forward 7 unknown #
point $-1 -38.021651105365848 -37.166681582552854 11.085918122355984 #
straight-curve $-1 -42.589115683613173 -41.674671886477576 11.085918122355984 0 -1 0 I I #
plane-surface $-1 0 0 11.085918122355984 0 0 1 1 0 0 forward_v I I I I #
coedge $-1 $440 $437 $442 $582 reversed $294 $-1 #
coedge $-1 $437 $440 $588 $646 reversed $294 $-1 #
edge $-1 $590 -11.085918122355984 $584 11.085918122355984 $454 $647 forward 7 unknown #
edge $-1 $579 -4.5079903039247213 $452 4.5079903039247213 $439 $648 forward 7 unknown #
vertex $-1 $646 $649 #
vertex $-1 $582 $650 #
straight-curve $-1 -42.589115683613173 46.18266219040229 0 0 0 -1 I I #
edge $-1 $580 -2.2837322891236624 $584 2.2837322891236624 $575 $651 forward 7 unknown #
straight-curve $-1 -42.589115683613173 41.674671886477569 -11.085918122355984 0 1 0 I I #
vertex $-1 $444 $652 #
straight-curve $-1 -38.021651105365848 41.674671886477569 -11.085918122355984 0 -1 0 I I #
point $-1 -42.589115683613173 37.166681582552847 -11.085918122355984 #
straight-curve $-1 -42.589115683613173 37.166681582552854 0 0 0 -1 I I #
coedge $-1 $450 $449 $576 $646 forward $451 $-1 #
point $-1 -42.589115683613173 37.166681582552847 11.085918122355984 #
vertex $-1 $455 $653 #
straight-curve $-1 -38.021651105365848 41.674671886477569 11.085918122355984 0 1 0 I I #
edge $-1 $593 36.858717099726725 $596 44.277136972793656 $459 $654 forward 7 unknown #
vertex $-1 $473 $655 #
straight-curve $-1 -68.788372003051421 28.150700974703412 11.085918122355984 -1 0 0 I I #
edge $-1 $596 -17.491236270646077 $470 -3.827693137468593 $469 $656 forward 7 unknown #
vertex $-1 $595 $657 #
straight-curve $-1 -60.193487350077802 28.150700974703412 3.6674982492890678 0.76604443648966558 0 0.64278761758704617 I I #
point $-1 -51.352559000150912 28.150700974703412 11.085918122355984 #
point $-1 -60.193487350077817 14.487157841525928 3.6674982492890558 #
straight-curve $-1 -60.193487350077817 0 11.085918122355984 0 -1 0 I I #
vertex $-1 $476 $658 #
point $-1 -49.01782941268894 21.31892940811467 3.2154914387474682 #
coedge $-1 $491 $490 $483 $604 forward $480 $-1 #
edge $-1 $605 73.465146253354845 $608 84.04493875942147 $603 $659 forward 7 unknown #
vertex $-1 $495 $660 #
straight-curve $-1 18.249432991066328 -20.513338730939232 11.085918122355991 1 0 0 I I #
edge $-1 $608 -12.294356548482391 $492 -4.1436078164312917 $491 $661 forward 7 unknown #
vertex $-1 $607 $662 #
straight-curve $-1 -35.95182490146091 -20.513338730939232 72.956816499882905 -0.79863550430605224 0 0.6018150307709319 I I #
point $-1 46.153628769755983 -20.513338730939232 11.085918122355984 #
point $-1 60.193487350077817 -12.362589998888133 0.50612561628935282 #
straight-curve $-1 60.193487350077817 0 11.085918122355984 0 1 0 I I #
vertex $-1 $498 $663 #
point $-1 52.605484827443583 -18.883188984529014 4.2113431827876759 #
vertex $-1 $502 $664 #
point $-1 52.605484827443583 -16.437964364913682 4.2113431827876759 #
vertex $-1 $506 $665 #
point $-1 52.605484827443583 -13.992739745298351 4.2113431827876759 #
edge $-1 $620 73.465146253354845 $623 84.04493875942147 $511 $666 forward 7 unknown #
vertex $-1 $525 $667 #
straight-curve $-1 18.249432991066328 12.362589998888126 11.085918122355991 1 0 0 I I #
edge $-1 $623 4.1436078164312882 $522 12.294356548482387 $521 $668 forward 7 unknown #
vertex $-1 $622 $669 #
straight-curve $-1 -35.95182490146091 12.362589998888126 72.956816499882905 -0.79863550430605224 0 0.6018150307709319 I I #
point $-1 46.153628769755983 12.362589998888126 11.085918122355984 #
point $-1 60.193487350077817 20.513338730939225 0.50612561628935282 #
straight-curve $-1 60.193487350077817 0 11.085918122355984 0 1 0 I I #
vertex $-1 $528 $670 #
point $-1 52.605484827443583 13.992739745298344 4.2113431827876759 #
vertex $-1 $532 $671 #
point $-1 52.605484827443583 16.437964364913675 4.2113431827876759 #
vertex $-1 $536 $672 #
point $-1 52.605484827443583 18.883188984529006 4.2113431827876759 #
straight-curve $-1 0 -37.166681582552854 11.085918122355984 1 0 0 I I #
point $-1 60.193487350077817 -37.166681582552854 11.085918122355984 #
point $-1 -60.193487350077817 -37.166681582552854 11.085918122355984 #
straight-curve $-1 -60.193487350077817 0 11.085918122355984 0 -1 0 I I #
edge $-1 $640 -11.085918122355984 $565 11.085918122355984 $557 $673 forward 7 unknown #
straight-curve $-1 -40.30538339448951 -46.182662190402297 -11.085918122355984 -1 0 0 I I #
vertex $-1 $571 $674 #
straight-curve $-1 -40.30538339448951 -46.182662190402297 11.085918122355984 1 0 0 I I #
point $-1 -42.589115683613173 -46.182662190402297 11.085918122355984 #
point $-1 -42.589115683613173 -46.182662190402297 -11.085918122355984 #
point $-1 -38.021651105365848 -46.182662190402297 -11.085918122355984 #
straight-curve $-1 -38.021651105365848 -41.674671886477576 11.085918122355984 0 1 0 I I #
edge $-1 $590 -2.2837322891236624 $579 2.2837322891236624 $576 $675 forward 7 unknown #
straight-curve $-1 -38.021651105365848 46.18266219040229 0 0 0 -1 I I #
straight-curve $-1 -42.589115683613173 41.674671886477569 11.085918122355984 0 -1 0 I I #
point $-1 -42.589115683613173 46.18266219040229 11.085918122355984 #
point $-1 -42.589115683613173 46.18266219040229 -11.085918122355984 #
straight-curve $-1 -40.30538339448951 46.18266219040229 -11.085918122355984 1 0 0 I I #
point $-1 -38.021651105365848 46.18266219040229 -11.085918122355984 #
point $-1 -38.021651105365848 46.18266219040229 11.085918122355984 #
straight-curve $-1 -60.193487350077817 28.150700974703412 47.944635222082709 0 0 -1 I I #
point $-1 -60.193487350077817 28.150700974703412 11.085918122355984 #
straight-curve $-1 -60.193487350077817 10.659464704057335 3.6674982492890571 0 -1 0 I I #
point $-1 -60.193487350077817 28.150700974703412 3.6674982492890558 #
point $-1 -49.325971459945492 21.31892940811467 -0.30658869644431053 #
straight-curve $-1 60.193487350077817 -20.513338730939232 84.551064375710823 0 0 -1 I I #
point $-1 60.193487350077817 -20.513338730939232 11.085918122355984 #
straight-curve $-1 60.19348735007781 -8.2189821824568412 0.50612561628935993 0 1 0 I I #
point $-1 60.193487350077817 -20.513338730939232 0.50612561628935282 #
point $-1 51.90525955990509 -18.883188984529014 4.1129329460201154 #
point $-1 51.90525955990509 -16.437964364913682 4.1129329460201154 #
point $-1 51.90525955990509 -13.992739745298351 4.1129329460201154 #
straight-curve $-1 60.193487350077817 12.362589998888126 84.551064375710823 0 0 -1 I I #
point $-1 60.193487350077817 12.362589998888126 11.085918122355984 #
straight-curve $-1 60.19348735007781 8.2189821824568376 0.50612561628935993 0 1 0 I I #
point $-1 60.193487350077817 12.362589998888126 0.50612561628935282 #
point $-1 51.90525955990509 13.992739745298344 4.1129329460201154 #
point $-1 51.90525955990509 16.437964364913675 4.1129329460201154 #
point $-1 51.90525955990509 18.883188984529006 4.1129329460201154 #
straight-curve $-1 -38.021651105365848 -46.182662190402297 0 0 0 -1 I I #
point $-1 -38.021651105365848 -46.182662190402297 11.085918122355984 #
straight-curve $-1 -40.30538339448951 46.18266219040229 11.085918122355984 -1 0 0 I I #
End-of-ACIS-data 