500 0 8 0           
7 Unknown 11 ACIS 5.0 NT 24 Thu Mar 25 15:54:27 1999 
-1 9.9999999999999995e-007 1e-010 
body $-1 $8 $-1 $9 #
body $-1 $10 $-1 $11 #
body $-1 $12 $-1 $13 #
body $-1 $14 $-1 $15 #
body $-1 $16 $-1 $17 #
body $-1 $18 $-1 $19 #
body $-1 $20 $-1 $21 #
body $-1 $22 $-1 $23 #
lump $-1 $-1 $24 $0 #
transform $-1 1 0 0 0 1 0 0 0 1 46.847132786034727 24.052636445993084 5.8554483372308184 1 rotate no_reflect no_shear #
lump $-1 $-1 $25 $1 #
transform $-1 1 0 0 0 1 0 0 0 1 46.847132786034727 24.052636445993084 5.8554483372308184 1 rotate no_reflect no_shear #
lump $-1 $-1 $26 $2 #
transform $-1 1 0 0 0 1 0 0 0 1 46.847132786034727 24.052636445993084 5.8554483372308184 1 rotate no_reflect no_shear #
lump $-1 $-1 $27 $3 #
transform $-1 1 0 0 0 1 0 0 0 1 46.847132786034727 24.052636445993084 5.8554483372308184 1 rotate no_reflect no_shear #
lump $-1 $-1 $28 $4 #
transform $-1 1 0 0 0 1 0 0 0 1 46.847132786034727 24.052636445993084 5.8554483372308184 1 rotate no_reflect no_shear #
lump $-1 $-1 $29 $5 #
transform $-1 1 0 0 0 1 0 0 0 1 46.847132786034727 24.052636445993084 5.8554483372308184 1 rotate no_reflect no_shear #
lump $-1 $-1 $30 $6 #
transform $-1 1 0 0 0 1 0 0 0 1 46.847132786034727 24.052636445993084 5.8554483372308184 1 rotate no_reflect no_shear #
lump $-1 $-1 $31 $7 #
transform $-1 1 0 0 0 1 0 0 0 1 46.847132786034727 24.052636445993084 5.8554483372308184 1 rotate no_reflect no_shear #
shell $-1 $-1 $-1 $32 $-1 $8 #
shell $-1 $-1 $-1 $33 $-1 $10 #
shell $-1 $-1 $-1 $34 $-1 $12 #
shell $-1 $-1 $-1 $35 $-1 $14 #
shell $-1 $-1 $-1 $36 $-1 $16 #
shell $-1 $-1 $-1 $37 $-1 $18 #
shell $-1 $-1 $-1 $38 $-1 $20 #
shell $-1 $-1 $-1 $39 $-1 $22 #
face $-1 $40 $41 $24 $-1 $42 forward single #
face $-1 $43 $44 $25 $-1 $45 forward single #
face $-1 $46 $47 $26 $-1 $48 reversed single #
face $-1 $49 $50 $27 $-1 $51 forward single #
face $-1 $52 $53 $28 $-1 $54 reversed single #
face $-1 $55 $56 $29 $-1 $57 forward single #
face $-1 $58 $59 $30 $-1 $60 forward single #
face $-1 $61 $62 $31 $-1 $63 forward single #
face $-1 $64 $65 $24 $-1 $66 reversed single #
loop $-1 $-1 $67 $32 #
plane-surface $-1 0 0 5.8554483372308184 0 0 1 1 0 0 forward_v I I I I #
face $-1 $68 $69 $25 $-1 $70 reversed single #
loop $-1 $-1 $71 $33 #
plane-surface $-1 0 -24.052636445993084 0 0 1 0 0 0 1 forward_v I I I I #
face $-1 $72 $73 $26 $-1 $74 reversed single #
loop $-1 $-1 $75 $34 #
plane-surface $-1 49.159642803183139 21.874484916376502 133.72148815523045 0 -1 0 -0.71933980857756763 0 -0.69465836192734942 forward_v I I I I #
face $-1 $76 $77 $27 $-1 $78 forward single #
loop $-1 $79 $80 $35 #
cone-surface $-1 44.237988542595481 16.940382600072301 3.1801135689362168 -0.71933980857756763 0 -0.69465836192734942 0.34732918096367471 0 -0.35966990428878381 1 I I 0 1 0.5 forward I I I I #
face $-1 $81 $82 $28 $-1 $83 reversed single #
loop $-1 $-1 $84 $36 #
plane-surface $-1 -99.24030187077679 -11.995614198123166 78.315528904036483 0 1 0 -0.55919291073839883 0 0.82903756765294845 forward_v I I I I #
face $-1 $85 $86 $29 $-1 $87 forward single #
loop $-1 $88 $89 $37 #
cone-surface $-1 -42.427536982622215 -9.5389761953275105 2.4274694660135099 0.55919291073839883 0 -0.82903756765294845 0.41451878382647422 0 0.27959645536919941 1 I I 0 1 0.5 forward I I I I #
face $-1 $90 $91 $30 $-1 $92 forward single #
loop $-1 $93 $94 $38 #
cone-surface $-1 -42.427536982622215 -5.8540191911340322 2.4274694660135099 0.55919291073839883 0 -0.82903756765294845 0.41451878382647422 0 0.27959645536919941 1 I I 0 1 0.5 forward I I I I #
face $-1 $95 $96 $31 $-1 $97 forward single #
loop $-1 $98 $99 $39 #
cone-surface $-1 -42.427536982622215 -2.169062186940554 2.4274694660135099 0.55919291073839883 0 -0.82903756765294845 0.41451878382647422 0 0.27959645536919941 1 I I 0 1 0.5 forward I I I I #
face $-1 $100 $101 $24 $-1 $102 reversed single #
loop $-1 $-1 $103 $40 #
plane-surface $-1 0 0 -5.8554483372308184 0 0 1 1 0 0 forward_v I I I I #
coedge $-1 $104 $105 $106 $107 forward $41 $-1 #
face $-1 $108 $109 $25 $-1 $110 reversed single #
loop $-1 $-1 $111 $43 #
plane-surface $-1 0 0 -5.8554483372308184 0 0 1 1 0 0 forward_v I I I I #
coedge $-1 $112 $113 $114 $115 forward $44 $-1 #
face $-1 $116 $117 $26 $-1 $118 reversed single #
loop $-1 $-1 $119 $46 #
plane-surface $-1 -18.238372258245086 16.940382600072301 68.635983110950633 0.71933980857756763 0 0.69465836192734942 0.69465836192734942 0 -0.71933980857756763 forward_v I I I I #
coedge $-1 $120 $121 $122 $123 reversed $47 $-1 #
face $-1 $-1 $124 $27 $-1 $125 forward single #
loop $-1 $126 $127 $49 #
cone-surface $-1 43.678533734960034 16.940382600072301 2.6398543540139912 -0.71933980857756763 0 -0.69465836192734942 0.17366459048183736 0 -0.17983495214439191 1 I I -0.70710678118654746 0.70710678118654746 0.25 forward I I I I #
loop $-1 $-1 $128 $35 #
coedge $-1 $80 $80 $129 $130 reversed $50 $-1 #
face $-1 $131 $132 $28 $-1 $133 reversed single #
loop $-1 $-1 $134 $52 #
plane-surface $-1 -46.84713278603472 -5.8540191911340322 0.6394628711386332 -0.55919291073839883 0 0.82903756765294845 0.82903756765294845 0 0.55919291073839883 forward_v I I I I #
coedge $-1 $135 $136 $137 $138 reversed $53 $-1 #
face $-1 $-1 $139 $29 $-1 $140 forward single #
loop $-1 $141 $142 $55 #
cone-surface $-1 -41.734651110589688 -9.5389761953275105 1.4002239359290538 0.55919291073839883 0 -0.82903756765294845 0.20725939191323711 0 0.13979822768459971 1 I I -0.70710678118654746 0.70710678118654746 0.25 forward I I I I #
loop $-1 $-1 $143 $37 #
coedge $-1 $89 $89 $144 $145 reversed $56 $-1 #
face $-1 $-1 $146 $30 $-1 $147 forward single #
loop $-1 $148 $149 $58 #
cone-surface $-1 -41.734651110589688 -5.8540191911340322 1.4002239359290538 0.55919291073839883 0 -0.82903756765294845 0.20725939191323711 0 0.13979822768459971 1 I I -0.70710678118654746 0.70710678118654746 0.25 forward I I I I #
loop $-1 $-1 $150 $38 #
coedge $-1 $94 $94 $151 $152 reversed $59 $-1 #
face $-1 $-1 $153 $31 $-1 $154 forward single #
loop $-1 $155 $156 $61 #
cone-surface $-1 -41.734651110589688 -2.169062186940554 1.4002239359290538 0.55919291073839883 0 -0.82903756765294845 0.20725939191323711 0 0.13979822768459971 1 I I -0.70710678118654746 0.70710678118654746 0.25 forward I I I I #
loop $-1 $-1 $157 $39 #
coedge $-1 $99 $99 $158 $159 reversed $62 $-1 #
face $-1 $160 $161 $24 $-1 $162 reversed single #
loop $-1 $-1 $163 $64 #
plane-surface $-1 0 -24.052636445993084 0 0 1 0 0 0 1 forward_v I I I I #
coedge $-1 $164 $165 $166 $167 forward $65 $-1 #
coedge $-1 $168 $67 $169 $170 forward $41 $-1 #
coedge $-1 $67 $168 $171 $172 forward $41 $-1 #
coedge $-1 $173 $174 $67 $107 reversed $175 $-1 #
edge $-1 $176 -24.052636445993084 $177 24.052636445993084 $106 $178 forward 7 unknown #
face $-1 $179 $180 $25 $-1 $181 forward single #
loop $-1 $-1 $182 $68 #
plane-surface $-1 46.847132786034727 0 0 -1 0 0 0 0 1 forward_v I I I I #
coedge $-1 $183 $184 $185 $186 forward $69 $-1 #
coedge $-1 $185 $71 $182 $187 reversed $44 $-1 #
coedge $-1 $71 $185 $188 $189 reversed $44 $-1 #
coedge $-1 $190 $191 $71 $115 reversed $180 $-1 #
edge $-1 $192 -46.847132786034727 $193 46.847132786034727 $114 $194 forward 7 unknown #
face $-1 $195 $196 $26 $-1 $197 reversed single #
loop $-1 $-1 $198 $72 #
plane-surface $-1 49.159642803183139 12.006280283768099 133.72148815523045 0 1 0 0.71933980857756763 0 0.69465836192734942 forward_v I I I I #
coedge $-1 $199 $200 $201 $202 reversed $73 $-1 #
coedge $-1 $121 $75 $203 $204 reversed $47 $-1 #
coedge $-1 $75 $120 $199 $205 reversed $47 $-1 #
coedge $-1 $201 $206 $75 $123 forward $207 $-1 #
edge $-1 $208 -22.267311384443158 $209 -17.808262608546759 $122 $210 forward 7 unknown #
loop $-1 $-1 $129 $76 #
plane-surface $-1 -18.238372258245086 16.940382600072301 68.635983110950633 0.71933980857756763 0 0.69465836192734942 0.69465836192734942 0 -0.71933980857756763 forward_v I I I I #
loop $-1 $-1 $211 $49 #
coedge $-1 $127 $127 $128 $212 reversed $77 $-1 #
coedge $-1 $128 $128 $127 $212 forward $79 $-1 #
coedge $-1 $129 $129 $80 $130 forward $124 $-1 #
edge $-1 $213 0 $213 6.2831853071796004 $129 $214 forward 7 unknown #
face $-1 $215 $216 $28 $-1 $217 forward single #
loop $-1 $-1 $218 $81 #
plane-surface $-1 -99.24030187077679 0.28757581585510117 78.315528904036483 0 -1 0 0.55919291073839883 0 -0.82903756765294845 forward_v I I I I #
coedge $-1 $219 $220 $221 $222 reversed $82 $-1 #
coedge $-1 $136 $84 $223 $224 reversed $53 $-1 #
coedge $-1 $84 $135 $219 $225 reversed $53 $-1 #
coedge $-1 $221 $226 $84 $138 forward $216 $-1 #
edge $-1 $227 2.7730181493536676 $228 10.506034467482863 $137 $229 forward 7 unknown #
loop $-1 $-1 $144 $85 #
plane-surface $-1 -46.84713278603472 -5.8540191911340322 0.6394628711386332 -0.55919291073839883 0 0.82903756765294845 0.82903756765294845 0 0.55919291073839883 forward_v I I I I #
loop $-1 $-1 $230 $55 #
coedge $-1 $142 $142 $143 $231 reversed $86 $-1 #
coedge $-1 $143 $143 $142 $231 forward $88 $-1 #
coedge $-1 $144 $144 $89 $145 forward $139 $-1 #
edge $-1 $232 0 $232 6.2831853071796004 $144 $233 forward 7 unknown #
loop $-1 $-1 $151 $90 #
plane-surface $-1 -46.84713278603472 -5.8540191911340322 0.6394628711386332 -0.55919291073839883 0 0.82903756765294845 0.82903756765294845 0 0.55919291073839883 forward_v I I I I #
loop $-1 $-1 $234 $58 #
coedge $-1 $149 $149 $150 $235 reversed $91 $-1 #
coedge $-1 $150 $150 $149 $235 forward $93 $-1 #
coedge $-1 $151 $151 $94 $152 forward $146 $-1 #
edge $-1 $236 0 $236 6.2831853071796004 $151 $237 forward 7 unknown #
loop $-1 $-1 $158 $95 #
plane-surface $-1 -46.84713278603472 -5.8540191911340322 0.6394628711386332 -0.55919291073839883 0 0.82903756765294845 0.82903756765294845 0 0.55919291073839883 forward_v I I I I #
loop $-1 $-1 $238 $61 #
coedge $-1 $156 $156 $157 $239 reversed $96 $-1 #
coedge $-1 $157 $157 $156 $239 forward $98 $-1 #
coedge $-1 $158 $158 $99 $159 forward $153 $-1 #
edge $-1 $240 0 $240 6.2831853071796004 $158 $241 forward 7 unknown #
face $-1 $242 $243 $24 $-1 $244 reversed single #
loop $-1 $-1 $245 $100 #
plane-surface $-1 -46.847132786034727 0 0 1 0 0 0 0 -1 forward_v I I I I #
coedge $-1 $246 $171 $247 $248 forward $101 $-1 #
coedge $-1 $249 $103 $246 $250 forward $65 $-1 #
coedge $-1 $103 $249 $251 $252 forward $65 $-1 #
coedge $-1 $174 $173 $103 $167 reversed $175 $-1 #
edge $-1 $253 -24.052636445993084 $254 24.052636445993084 $166 $255 forward 7 unknown #
coedge $-1 $105 $104 $256 $257 forward $41 $-1 #
coedge $-1 $258 $259 $104 $170 reversed $243 $-1 #
edge $-1 $177 -46.847132786034727 $260 46.847132786034727 $169 $261 forward 7 unknown #
coedge $-1 $163 $262 $105 $172 reversed $101 $-1 #
edge $-1 $263 -46.847132786034727 $176 46.847132786034727 $171 $264 forward 7 unknown #
coedge $-1 $166 $106 $262 $265 forward $175 $-1 #
coedge $-1 $106 $166 $258 $266 reversed $175 $-1 #
loop $-1 $-1 $173 $242 #
vertex $-1 $107 $267 #
vertex $-1 $107 $268 #
straight-curve $-1 46.847132786034727 0 5.8554483372308184 0 1 0 I I #
face $-1 $269 $270 $25 $-1 $271 reversed single #
loop $-1 $-1 $191 $108 #
plane-surface $-1 0 -26.203244496332001 -2.7629095685168963 0 0 1 1 0 0 forward_v I I I I #
coedge $-1 $272 $273 $112 $187 forward $109 $-1 #
coedge $-1 $274 $111 $273 $275 forward $69 $-1 #
coedge $-1 $111 $274 $276 $277 forward $69 $-1 #
coedge $-1 $113 $112 $111 $186 reversed $44 $-1 #
edge $-1 $278 -46.847132786034727 $279 46.847132786034727 $111 $280 forward 7 unknown #
edge $-1 $279 -5.8554483372308184 $193 -2.7629095685168963 $182 $281 forward 7 unknown #
coedge $-1 $276 $282 $113 $189 forward $283 $-1 #
edge $-1 $192 2.7629095685168963 $278 5.8554483372308184 $188 $284 forward 7 unknown #
coedge $-1 $285 $114 $282 $286 forward $180 $-1 #
coedge $-1 $114 $285 $272 $287 forward $180 $-1 #
vertex $-1 $189 $288 #
vertex $-1 $287 $289 #
straight-curve $-1 0 -24.052636445993084 -2.7629095685168963 1 0 0 I I #
face $-1 $-1 $207 $26 $-1 $290 forward single #
loop $-1 $-1 $291 $116 #
plane-surface $-1 46.847132786034727 0 0 -1 0 0 0 0 1 forward_v I I I I #
coedge $-1 $292 $293 $294 $295 reversed $117 $-1 #
coedge $-1 $296 $119 $121 $205 forward $73 $-1 #
coedge $-1 $119 $296 $292 $297 forward $73 $-1 #
coedge $-1 $294 $122 $119 $202 forward $207 $-1 #
edge $-1 $209 -13.404293616340352 $298 -3.5360889837319487 $201 $299 forward 7 unknown #
coedge $-1 $300 $301 $120 $204 forward $196 $-1 #
edge $-1 $302 -65.622776028092815 $208 -61.005295740384405 $203 $303 forward 7 unknown #
edge $-1 $209 87.275212667380231 $302 93.694265572069455 $121 $304 forward 7 unknown #
coedge $-1 $122 $294 $300 $305 forward $207 $-1 #
loop $-1 $-1 $294 $195 #
vertex $-1 $204 $306 #
vertex $-1 $123 $307 #
straight-curve $-1 24.57982140159157 21.874484916376502 5.8554483372308184 -1 0 0 I I #
coedge $-1 $211 $211 $-1 $308 reversed $126 $-1 #
edge $-1 $309 0 $309 6.2831853071796004 $127 $310 forward 7 unknown #
vertex $-1 $130 $311 #
ellipse-curve $-1 44.617608398086539 16.940382600072301 3.5467081933766047 0.71933980857756763 0 0.69465836192734942 0.34732918096367471 0 -0.35966990428878381 1 I I #
face $-1 $-1 $312 $28 $-1 $313 reversed single #
loop $-1 $-1 $137 $131 #
plane-surface $-1 0 0 5.8554483372308184 0 0 1 1 0 0 forward_v I I I I #
coedge $-1 $314 $315 $316 $317 reversed $132 $-1 #
coedge $-1 $318 $134 $136 $225 forward $82 $-1 #
coedge $-1 $134 $318 $314 $319 forward $82 $-1 #
coedge $-1 $316 $137 $134 $222 forward $216 $-1 #
edge $-1 $228 -9.0686046025561495 $320 3.2145854114221173 $221 $321 forward 7 unknown #
coedge $-1 $322 $323 $135 $224 forward $312 $-1 #
edge $-1 $324 -38.518301580879616 $227 -33.302316114787423 $223 $325 forward 7 unknown #
edge $-1 $228 -9.3277031341556551 $324 8.5602302459286524e-015 $136 $326 forward 7 unknown #
coedge $-1 $137 $316 $322 $327 forward $216 $-1 #
vertex $-1 $224 $328 #
vertex $-1 $138 $329 #
straight-curve $-1 -49.620150935388395 -11.995614198123166 5.8554483372308184 1 0 0 I I #
coedge $-1 $230 $230 $-1 $330 reversed $141 $-1 #
edge $-1 $331 0 $331 6.2831853071796004 $142 $332 forward 7 unknown #
vertex $-1 $145 $333 #
ellipse-curve $-1 -42.980624626970133 -9.5389761953275105 3.2474556041847205 -0.55919291073839883 0 0.82903756765294845 0.41451878382647422 0 0.27959645536919941 1 I I #
coedge $-1 $234 $234 $-1 $334 reversed $148 $-1 #
edge $-1 $335 0 $335 6.2831853071796004 $149 $336 forward 7 unknown #
vertex $-1 $152 $337 #
ellipse-curve $-1 -42.980624626970133 -5.8540191911340322 3.2474556041847205 -0.55919291073839883 0 0.82903756765294845 0.41451878382647422 0 0.27959645536919941 1 I I #
coedge $-1 $238 $238 $-1 $338 reversed $155 $-1 #
edge $-1 $339 0 $339 6.2831853071796004 $156 $340 forward 7 unknown #
vertex $-1 $159 $341 #
ellipse-curve $-1 -42.980624626970133 -2.169062186940554 3.2474556041847205 -0.55919291073839883 0 0.82903756765294845 0.41451878382647422 0 0.27959645536919941 1 I I #
face $-1 $-1 $175 $24 $-1 $342 reversed single #
loop $-1 $-1 $258 $160 #
plane-surface $-1 0 24.052636445993084 0 0 -1 0 0 0 -1 forward_v I I I I #
coedge $-1 $343 $256 $259 $344 forward $161 $-1 #
coedge $-1 $262 $163 $164 $250 reversed $101 $-1 #
coedge $-1 $256 $343 $163 $248 reversed $161 $-1 #
edge $-1 $263 -5.8554483372308184 $345 5.8554483372308184 $247 $346 forward 7 unknown #
coedge $-1 $165 $164 $343 $347 forward $65 $-1 #
edge $-1 $254 -46.847132786034727 $345 46.847132786034727 $246 $348 forward 7 unknown #
coedge $-1 $259 $258 $165 $252 reversed $243 $-1 #
edge $-1 $349 -46.847132786034727 $253 46.847132786034727 $251 $350 forward 7 unknown #
vertex $-1 $167 $351 #
vertex $-1 $265 $352 #
straight-curve $-1 46.847132786034727 0 -5.8554483372308184 0 -1 0 I I #
coedge $-1 $245 $247 $168 $257 reversed $161 $-1 #
edge $-1 $260 -24.052636445993084 $263 24.052636445993084 $256 $353 forward 7 unknown #
coedge $-1 $251 $169 $174 $266 forward $243 $-1 #
coedge $-1 $169 $251 $245 $344 reversed $243 $-1 #
vertex $-1 $170 $354 #
straight-curve $-1 0 24.052636445993084 5.8554483372308184 -1 0 0 I I #
coedge $-1 $171 $246 $173 $265 reversed $101 $-1 #
vertex $-1 $257 $355 #
straight-curve $-1 0 -24.052636445993084 5.8554483372308184 1 0 0 I I #
edge $-1 $176 -5.8554483372308184 $254 5.8554483372308184 $173 $356 forward 7 unknown #
edge $-1 $177 -5.8554483372308184 $253 5.8554483372308184 $174 $357 forward 7 unknown #
point $-1 46.847132786034727 -24.052636445993084 5.8554483372308184 #
point $-1 46.847132786034727 24.052636445993084 5.8554483372308184 #
face $-1 $-1 $283 $25 $-1 $358 reversed single #
loop $-1 $-1 $359 $179 #
plane-surface $-1 0 -28.353852546670918 -4.3091789528738573 0 1 0 0 0 1 forward_v I I I I #
coedge $-1 $360 $182 $191 $287 reversed $109 $-1 #
coedge $-1 $182 $360 $183 $275 reversed $109 $-1 #
coedge $-1 $184 $183 $361 $362 forward $69 $-1 #
edge $-1 $279 24.052636445993084 $363 28.353852546670918 $273 $364 forward 7 unknown #
coedge $-1 $365 $188 $184 $277 reversed $283 $-1 #
edge $-1 $366 -28.353852546670918 $278 -24.052636445993084 $276 $367 forward 7 unknown #
vertex $-1 $189 $368 #
vertex $-1 $275 $369 #
straight-curve $-1 0 -24.052636445993084 -5.8554483372308184 1 0 0 I I #
straight-curve $-1 46.847132786034727 -24.052636445993084 0 0 0 1 I I #
coedge $-1 $188 $365 $190 $286 reversed $283 $-1 #
loop $-1 $-1 $188 $269 #
straight-curve $-1 -46.847132786034727 -24.052636445993084 0 0 0 -1 I I #
coedge $-1 $191 $190 $370 $371 forward $180 $-1 #
edge $-1 $192 -2.1506080503389171 $372 2.1506080503389171 $282 $373 forward 7 unknown #
edge $-1 $374 -2.1506080503389171 $193 2.1506080503389171 $272 $375 forward 7 unknown #
point $-1 -46.847132786034727 -24.052636445993084 -2.7629095685168963 #
point $-1 46.847132786034727 -24.052636445993084 -2.7629095685168963 #
plane-surface $-1 0 0 5.8554483372308184 0 0 1 1 0 0 forward_v I I I I #
coedge $-1 $301 $300 $293 $376 forward $196 $-1 #
coedge $-1 $293 $198 $200 $297 reversed $117 $-1 #
coedge $-1 $198 $292 $291 $376 reversed $117 $-1 #
coedge $-1 $206 $201 $198 $295 forward $207 $-1 #
edge $-1 $298 17.808262608546759 $377 22.267311384443158 $294 $378 forward 7 unknown #
coedge $-1 $200 $199 $301 $379 reversed $73 $-1 #
edge $-1 $380 -93.694265572069455 $298 -87.275212667380231 $292 $381 forward 7 unknown #
vertex $-1 $202 $382 #
straight-curve $-1 42.388084010138328 8.4701913000361504 5.8554483372308255 0 -1 0 I I #
coedge $-1 $291 $203 $206 $305 reversed $196 $-1 #
coedge $-1 $203 $291 $296 $379 forward $196 $-1 #
vertex $-1 $204 $383 #
straight-curve $-1 46.847132786034727 21.874484916376502 66.860744077615223 0 0 1 I I #
straight-curve $-1 -18.238372258245086 21.874484916376502 68.635983110950633 0.69465836192734942 0 -0.71933980857756763 I I #
edge $-1 $377 12.006280283768099 $208 21.874484916376502 $300 $384 forward 7 unknown #
point $-1 46.847132786034727 21.874484916376502 5.8554483372308184 #
point $-1 42.388084010138328 21.874484916376502 5.8554483372308255 #
edge $-1 $385 1 $385 0 $211 $-1 forward 7 unknown #
vertex $-1 $212 $386 #
ellipse-curve $-1 43.858368687104424 16.940382600072301 2.8135189444958284 0.71933980857756763 0 0.69465836192734942 0.34732918096367471 0 -0.35966990428878381 1 I I #
point $-1 44.964937579050215 16.940382600072301 3.1870382890878215 #
loop $-1 $-1 $223 $215 #
plane-surface $-1 -46.847132786034727 0 0 1 0 0 0 0 -1 forward_v I I I I #
coedge $-1 $315 $218 $220 $319 reversed $132 $-1 #
coedge $-1 $218 $314 $387 $388 reversed $132 $-1 #
coedge $-1 $226 $221 $218 $317 forward $216 $-1 #
edge $-1 $320 -10.506034467482863 $389 -2.7730181493536676 $316 $390 forward 7 unknown #
coedge $-1 $220 $219 $323 $391 reversed $82 $-1 #
edge $-1 $392 -8.5602302459286524e-015 $320 9.3277031341556551 $314 $393 forward 7 unknown #
vertex $-1 $222 $394 #
straight-curve $-1 -39.114116467905532 -2.9270095955670161 5.8554483372308175 0 1 0 I I #
coedge $-1 $387 $223 $226 $327 reversed $312 $-1 #
coedge $-1 $223 $387 $318 $391 forward $312 $-1 #
vertex $-1 $224 $395 #
straight-curve $-1 -46.847132786034727 -11.995614198123166 39.157764452018242 0 0 1 I I #
straight-curve $-1 -46.84713278603472 -11.995614198123166 0.6394628711386332 -0.82903756765294845 0 -0.55919291073839883 I I #
edge $-1 $389 -0.28757581585510117 $227 11.995614198123166 $322 $396 forward 7 unknown #
point $-1 -46.847132786034727 -11.995614198123166 5.8554483372308184 #
point $-1 -39.114116467905532 -11.995614198123166 5.8554483372308184 #
edge $-1 $397 1 $397 0 $230 $-1 forward 7 unknown #
vertex $-1 $231 $398 #
ellipse-curve $-1 -41.874449338274289 -9.5389761953275105 1.6074833278422909 -0.55919291073839883 0 0.82903756765294845 0.41451878382647422 0 0.27959645536919941 1 I I #
point $-1 -42.56610584314366 -9.5389761953275105 3.5270520595539274 #
edge $-1 $399 1 $399 0 $234 $-1 forward 7 unknown #
vertex $-1 $235 $400 #
ellipse-curve $-1 -41.874449338274289 -5.8540191911340322 1.6074833278422909 -0.55919291073839883 0 0.82903756765294845 0.41451878382647422 0 0.27959645536919941 1 I I #
point $-1 -42.56610584314366 -5.8540191911340322 3.5270520595539274 #
edge $-1 $401 1 $401 0 $238 $-1 forward 7 unknown #
vertex $-1 $239 $402 #
ellipse-curve $-1 -41.874449338274289 -2.169062186940554 1.6074833278422909 -0.55919291073839883 0 0.82903756765294845 0.41451878382647422 0 0.27959645536919941 1 I I #
point $-1 -42.56610584314366 -2.169062186940554 3.5270520595539274 #
plane-surface $-1 46.847132786034727 0 0 -1 0 0 0 0 1 forward_v I I I I #
coedge $-1 $247 $245 $249 $347 reversed $161 $-1 #
edge $-1 $260 -5.8554483372308184 $349 5.8554483372308184 $259 $403 forward 7 unknown #
vertex $-1 $347 $404 #
straight-curve $-1 -46.847132786034727 -24.052636445993084 0 0 0 -1 I I #
edge $-1 $345 -24.052636445993084 $349 24.052636445993084 $343 $405 forward 7 unknown #
straight-curve $-1 0 -24.052636445993084 -5.8554483372308184 -1 0 0 I I #
vertex $-1 $252 $406 #
straight-curve $-1 0 24.052636445993084 -5.8554483372308184 1 0 0 I I #
point $-1 46.847132786034727 24.052636445993084 -5.8554483372308184 #
point $-1 46.847132786034727 -24.052636445993084 -5.8554483372308184 #
straight-curve $-1 -46.847132786034727 0 5.8554483372308184 0 -1 0 I I #
point $-1 -46.847132786034727 24.052636445993084 5.8554483372308184 #
point $-1 -46.847132786034727 -24.052636445993084 5.8554483372308184 #
straight-curve $-1 46.847132786034727 -24.052636445993084 0 0 0 -1 I I #
straight-curve $-1 46.847132786034727 24.052636445993084 0 0 0 -1 I I #
plane-surface $-1 -46.847132786034727 0 0 1 0 0 0 0 -1 forward_v I I I I #
coedge $-1 $361 $370 $365 $407 forward $270 $-1 #
coedge $-1 $273 $272 $408 $409 forward $109 $-1 #
coedge $-1 $408 $359 $274 $362 reversed $270 $-1 #
edge $-1 $363 -46.847132786034727 $366 46.847132786034727 $361 $410 forward 7 unknown #
vertex $-1 $409 $411 #
straight-curve $-1 46.847132786034727 0 -5.8554483372308184 0 -1 0 I I #
coedge $-1 $282 $276 $359 $407 reversed $283 $-1 #
vertex $-1 $277 $412 #
straight-curve $-1 -46.847132786034727 0 -5.8554483372308184 0 1 0 I I #
point $-1 -46.847132786034727 -24.052636445993084 -5.8554483372308184 #
point $-1 46.847132786034727 -24.052636445993084 -5.8554483372308184 #
coedge $-1 $359 $408 $285 $371 reversed $270 $-1 #
edge $-1 $372 -46.847132786034727 $374 46.847132786034727 $370 $413 forward 7 unknown #
vertex $-1 $286 $414 #
straight-curve $-1 -46.847132786034727 -26.203244496332001 -2.7629095685168963 0 -1 0 I I #
vertex $-1 $287 $415 #
straight-curve $-1 46.847132786034727 -26.203244496332001 -2.7629095685168963 0 1 0 I I #
edge $-1 $377 61.005295740384405 $380 65.622776028092815 $291 $416 forward 7 unknown #
vertex $-1 $305 $417 #
straight-curve $-1 24.57982140159157 12.006280283768099 5.8554483372308184 1 0 0 I I #
edge $-1 $380 3.5360889837319487 $302 13.404293616340352 $301 $418 forward 7 unknown #
vertex $-1 $379 $419 #
straight-curve $-1 -18.238372258245086 12.006280283768099 68.635983110950633 -0.69465836192734942 0 0.71933980857756763 I I #
point $-1 42.388084010138328 12.006280283768099 5.8554483372308255 #
point $-1 46.847132786034727 21.874484916376502 1.2379680495224079 #
straight-curve $-1 46.847132786034727 0 5.8554483372308184 0 1 0 I I #
vertex $-1 $308 $420 #
point $-1 44.2056978680681 16.940382600072301 2.4538490402070448 #
coedge $-1 $323 $322 $315 $388 forward $312 $-1 #
edge $-1 $389 33.302316114787423 $392 38.518301580879616 $387 $421 forward 7 unknown #
vertex $-1 $327 $422 #
straight-curve $-1 -49.620150935388395 0.28757581585510117 5.8554483372308184 -1 0 0 I I #
edge $-1 $392 -3.2145854114221173 $324 9.0686046025561495 $323 $423 forward 7 unknown #
vertex $-1 $391 $424 #
straight-curve $-1 -46.84713278603472 0.28757581585510117 0.6394628711386332 0.82903756765294845 0 0.55919291073839883 I I #
point $-1 -39.114116467905532 0.28757581585510117 5.8554483372308184 #
point $-1 -46.847132786034727 -11.995614198123166 0.63946287113862843 #
straight-curve $-1 -46.847132786034727 0 5.8554483372308184 0 -1 0 I I #
vertex $-1 $330 $425 #
point $-1 -41.459930554447816 -9.5389761953275105 1.8870797832114903 #
vertex $-1 $334 $426 #
point $-1 -41.459930554447816 -5.8540191911340322 1.8870797832114903 #
vertex $-1 $338 $427 #
point $-1 -41.459930554447816 -2.169062186940554 1.8870797832114903 #
straight-curve $-1 -46.847132786034727 24.052636445993084 0 0 0 -1 I I #
point $-1 -46.847132786034727 -24.052636445993084 -5.8554483372308184 #
straight-curve $-1 -46.847132786034727 0 -5.8554483372308184 0 1 0 I I #
point $-1 -46.847132786034727 24.052636445993084 -5.8554483372308184 #
edge $-1 $372 -1.546269384356961 $366 1.546269384356961 $365 $428 forward 7 unknown #
coedge $-1 $370 $361 $360 $409 reversed $270 $-1 #
edge $-1 $374 -1.546269384356961 $363 1.546269384356961 $360 $429 forward 7 unknown #
straight-curve $-1 0 -28.353852546670918 -5.8554483372308184 -1 0 0 I I #
point $-1 46.847132786034727 -28.353852546670918 -5.8554483372308184 #
point $-1 -46.847132786034727 -28.353852546670918 -5.8554483372308184 #
straight-curve $-1 0 -28.353852546670918 -2.7629095685168963 1 0 0 I I #
point $-1 -46.847132786034727 -28.353852546670918 -2.7629095685168963 #
point $-1 46.847132786034727 -28.353852546670918 -2.7629095685168963 #
straight-curve $-1 46.847132786034727 12.006280283768099 66.860744077615223 0 0 -1 I I #
point $-1 46.847132786034727 12.006280283768099 5.8554483372308184 #
straight-curve $-1 46.847132786034734 8.4701913000361504 1.2379680495224008 0 1 0 I I #
point $-1 46.847132786034727 12.006280283768099 1.2379680495224079 #
point $-1 43.498698782815644 16.940382600072301 2.4661897635321539 #
straight-curve $-1 -46.847132786034727 0.28757581585510117 39.157764452018242 0 0 -1 I I #
point $-1 -46.847132786034727 0.28757581585510117 5.8554483372308184 #
straight-curve $-1 -46.847132786034727 -2.9270095955670161 0.63946287113862543 0 -1 0 I I #
point $-1 -46.847132786034727 0.28757581585510117 0.63946287113862843 #
point $-1 -41.594852882905087 -9.5389761953275105 1.1929645440158168 #
point $-1 -41.594852882905087 -5.8540191911340322 1.1929645440158168 #
point $-1 -41.594852882905087 -2.169062186940554 1.1929645440158168 #
straight-curve $-1 -46.847132786034727 -28.353852546670918 -4.3091789528738573 0 0 -1 I I #
straight-curve $-1 46.847132786034727 -28.353852546670918 -4.3091789528738573 0 0 -1 I I #
End-of-ACIS-data 