500 0 9 0           
7 Unknown 11 ACIS 5.0 NT 24 Thu Mar 25 21:43:07 1999 
-1 9.9999999999999995e-007 1e-010 
body $-1 $9 $-1 $10 #
body $-1 $11 $-1 $12 #
body $-1 $13 $-1 $14 #
body $-1 $15 $-1 $16 #
body $-1 $17 $-1 $18 #
body $-1 $19 $-1 $20 #
body $-1 $21 $-1 $22 #
body $-1 $23 $-1 $24 #
body $-1 $25 $-1 $26 #
lump $-1 $-1 $27 $0 #
transform $-1 1 0 0 0 1 0 0 0 1 69.687185277871038 36.166643206926594 10.076704280454004 1 rotate no_reflect no_shear #
lump $-1 $-1 $28 $1 #
transform $-1 1 0 0 0 1 0 0 0 1 69.687185277871038 36.166643206926594 10.076704280454004 1 rotate no_reflect no_shear #
lump $-1 $-1 $29 $2 #
transform $-1 1 0 0 0 1 0 0 0 1 69.687185277871038 36.166643206926594 10.076704280454004 1 rotate no_reflect no_shear #
lump $-1 $-1 $30 $3 #
transform $-1 1 0 0 0 1 0 0 0 1 69.687185277871038 36.166643206926594 10.076704280454004 1 rotate no_reflect no_shear #
lump $-1 $-1 $31 $4 #
transform $-1 1 0 0 0 1 0 0 0 1 69.687185277871038 36.166643206926594 10.076704280454004 1 rotate no_reflect no_shear #
lump $-1 $-1 $32 $5 #
transform $-1 1 0 0 0 1 0 0 0 1 69.687185277871038 36.166643206926594 10.076704280454004 1 rotate no_reflect no_shear #
lump $-1 $-1 $33 $6 #
transform $-1 1 0 0 0 1 0 0 0 1 69.687185277871038 36.166643206926594 10.076704280454004 1 rotate no_reflect no_shear #
lump $-1 $-1 $34 $7 #
transform $-1 1 0 0 0 1 0 0 0 1 69.687185277871038 36.166643206926594 10.076704280454004 1 rotate no_reflect no_shear #
lump $-1 $-1 $35 $8 #
transform $-1 1 0 0 0 1 0 0 0 1 69.687185277871038 36.166643206926594 10.076704280454004 1 rotate no_reflect no_shear #
shell $-1 $-1 $-1 $36 $-1 $9 #
shell $-1 $-1 $-1 $37 $-1 $11 #
shell $-1 $-1 $-1 $38 $-1 $13 #
shell $-1 $-1 $-1 $39 $-1 $15 #
shell $-1 $-1 $-1 $40 $-1 $17 #
shell $-1 $-1 $-1 $41 $-1 $19 #
shell $-1 $-1 $-1 $42 $-1 $21 #
shell $-1 $-1 $-1 $43 $-1 $23 #
shell $-1 $-1 $-1 $44 $-1 $25 #
face $-1 $45 $46 $27 $-1 $47 forward single #
face $-1 $48 $49 $28 $-1 $50 forward single #
face $-1 $51 $52 $29 $-1 $53 forward single #
face $-1 $54 $55 $30 $-1 $56 reversed single #
face $-1 $57 $58 $31 $-1 $59 forward single #
face $-1 $60 $61 $32 $-1 $62 forward single #
face $-1 $63 $64 $33 $-1 $65 forward single #
face $-1 $66 $67 $34 $-1 $68 reversed single #
face $-1 $69 $70 $35 $-1 $71 forward single #
face $-1 $72 $73 $27 $-1 $74 reversed single #
loop $-1 $-1 $75 $36 #
plane-surface $-1 0 0 10.076704280454004 0 0 1 1 0 0 forward_v I I I I #
face $-1 $76 $77 $28 $-1 $78 reversed single #
loop $-1 $-1 $79 $37 #
plane-surface $-1 0 -32.241664329770401 -5.1515524590122173 0 0 1 1 0 0 forward_v I I I I #
face $-1 $80 $81 $29 $-1 $82 reversed single #
loop $-1 $-1 $83 $38 #
plane-surface $-1 0 32.241664329770401 -5.1515524590122173 0 0 1 1 0 0 forward_v I I I I #
face $-1 $84 $85 $30 $-1 $86 reversed single #
loop $-1 $-1 $87 $39 #
plane-surface $-1 -157.39831974749416 17.156549305146815 109.56880076674167 0 -1 0 0.62932039886446345 0 -0.77714595512881146 forward_v I I I I #
face $-1 $88 $89 $31 $-1 $90 forward single #
loop $-1 $91 $92 $40 #
cone-surface $-1 -63.925312428704757 8.2064591696482907 5.2770653830238938 0.62932039886446345 0 -0.77714595512881146 0.38857297756440573 0 0.31466019943223172 1 I I 0 1 0.5 forward I I I I #
face $-1 $93 $94 $32 $-1 $95 forward single #
loop $-1 $96 $97 $41 #
cone-surface $-1 -63.925312428704757 11.562742970460242 5.2770653830238938 0.62932039886446345 0 -0.77714595512881146 0.38857297756440573 0 0.31466019943223172 1 I I 0 1 0.5 forward I I I I #
face $-1 $98 $99 $33 $-1 $100 forward single #
loop $-1 $101 $102 $42 #
cone-surface $-1 -63.925312428704757 14.919026771272193 5.2770653830238938 0.62932039886446345 0 -0.77714595512881146 0.38857297756440573 0 0.31466019943223172 1 I I 0 1 0.5 forward I I I I #
face $-1 $103 $104 $34 $-1 $105 reversed single #
loop $-1 $-1 $106 $43 #
plane-surface $-1 32.077756072575511 2.4400927921056166 197.12868267760547 0 -1 0 -0.55919291073839883 0 -0.82903756765294845 forward_v I I I I #
face $-1 $107 $108 $35 $-1 $109 forward single #
loop $-1 $110 $111 $44 #
cone-surface $-1 63.853300181440446 -6.0282486420095971 5.2802027712097708 -0.55919291073839883 0 -0.82903756765294845 2.072593919132371 0 -1.3979822768459971 1 I I 0 1 2.5 forward I I I I #
face $-1 $112 $113 $27 $-1 $114 reversed single #
loop $-1 $-1 $115 $45 #
plane-surface $-1 0 0 -10.076704280454004 0 0 1 1 0 0 forward_v I I I I #
coedge $-1 $116 $117 $118 $119 forward $46 $-1 #
face $-1 $120 $121 $28 $-1 $122 reversed single #
loop $-1 $-1 $123 $48 #
plane-surface $-1 0 -28.316685452614209 -7.6141283697331108 0 -1 0 0 0 -1 forward_v I I I I #
coedge $-1 $124 $125 $126 $127 reversed $49 $-1 #
face $-1 $128 $129 $29 $-1 $130 reversed single #
loop $-1 $-1 $131 $51 #
plane-surface $-1 0 28.316685452614209 -7.6141283697331108 0 1 0 0 0 1 forward_v I I I I #
coedge $-1 $132 $133 $134 $135 reversed $52 $-1 #
face $-1 $136 $137 $30 $-1 $138 reversed single #
loop $-1 $-1 $139 $54 #
plane-surface $-1 -69.687185277871023 11.562742970460235 1.2545724407225975 -0.62932039886446345 0 0.77714595512881146 0.77714595512881146 0 0.62932039886446345 forward_v I I I I #
coedge $-1 $140 $141 $142 $143 reversed $55 $-1 #
face $-1 $-1 $144 $31 $-1 $145 forward single #
loop $-1 $146 $147 $57 #
cone-surface $-1 -63.453322129556412 8.2064591696482907 4.6942059166772854 0.62932039886446345 0 -0.77714595512881146 0.19428648878220287 0 0.15733009971611586 1 I I -0.70710678118654746 0.70710678118654746 0.25 forward I I I I #
loop $-1 $-1 $148 $40 #
coedge $-1 $92 $92 $149 $150 reversed $58 $-1 #
face $-1 $-1 $151 $32 $-1 $152 forward single #
loop $-1 $153 $154 $60 #
cone-surface $-1 -63.453322129556412 11.562742970460242 4.6942059166772854 0.62932039886446345 0 -0.77714595512881146 0.19428648878220287 0 0.15733009971611586 1 I I -0.70710678118654746 0.70710678118654746 0.25 forward I I I I #
loop $-1 $-1 $155 $41 #
coedge $-1 $97 $97 $156 $157 reversed $61 $-1 #
face $-1 $-1 $158 $33 $-1 $159 forward single #
loop $-1 $160 $161 $63 #
cone-surface $-1 -63.453322129556412 14.919026771272193 4.6942059166772854 0.62932039886446345 0 -0.77714595512881146 0.19428648878220287 0 0.15733009971611586 1 I I -0.70710678118654746 0.70710678118654746 0.25 forward I I I I #
loop $-1 $-1 $162 $42 #
coedge $-1 $102 $102 $163 $164 reversed $64 $-1 #
face $-1 $165 $166 $34 $-1 $167 reversed single #
loop $-1 $-1 $168 $66 #
plane-surface $-1 -45.859403880822086 -6.0282486420095971 81.582093518912345 0.55919291073839883 0 0.82903756765294845 0.82903756765294845 0 -0.55919291073839883 forward_v I I I I #
coedge $-1 $169 $170 $171 $172 reversed $67 $-1 #
face $-1 $-1 $173 $35 $-1 $174 forward single #
loop $-1 $175 $176 $69 #
cone-surface $-1 62.088169966626424 -6.0282486420095971 2.6632896598689708 -0.55919291073839883 0 -0.82903756765294845 1.0362969595661855 0 -0.69899113842299854 1 I I -0.70710678118654746 0.70710678118654746 1.25 forward I I I I #
loop $-1 $-1 $177 $44 #
coedge $-1 $111 $111 $178 $179 reversed $70 $-1 #
face $-1 $180 $181 $27 $-1 $182 reversed single #
loop $-1 $-1 $183 $72 #
plane-surface $-1 0 -36.166643206926594 0 0 1 0 0 0 1 forward_v I I I I #
coedge $-1 $184 $185 $186 $187 forward $73 $-1 #
coedge $-1 $188 $75 $189 $190 forward $46 $-1 #
coedge $-1 $75 $188 $191 $192 forward $46 $-1 #
coedge $-1 $193 $194 $75 $119 reversed $195 $-1 #
edge $-1 $196 -36.166643206926594 $197 36.166643206926594 $118 $198 forward 7 unknown #
face $-1 $199 $200 $28 $-1 $201 reversed single #
loop $-1 $-1 $202 $76 #
plane-surface $-1 0 0 -10.076704280454004 0 0 1 1 0 0 forward_v I I I I #
coedge $-1 $203 $204 $205 $206 reversed $77 $-1 #
coedge $-1 $207 $79 $204 $208 forward $49 $-1 #
coedge $-1 $79 $207 $209 $210 reversed $49 $-1 #
coedge $-1 $211 $205 $79 $127 forward $200 $-1 #
edge $-1 $212 12.195853287729008 $213 20.045811042041393 $126 $214 forward 7 unknown #
face $-1 $215 $216 $29 $-1 $217 reversed single #
loop $-1 $-1 $134 $80 #
plane-surface $-1 69.687185277871038 0 0 -1 0 0 0 0 1 forward_v I I I I #
coedge $-1 $218 $219 $220 $221 reversed $81 $-1 #
coedge $-1 $222 $83 $223 $224 reversed $52 $-1 #
coedge $-1 $83 $222 $219 $225 forward $52 $-1 #
coedge $-1 $226 $227 $83 $135 forward $129 $-1 #
edge $-1 $228 -20.045811042041393 $229 -12.195853287729008 $134 $230 forward 7 unknown #
face $-1 $231 $232 $30 $-1 $233 reversed single #
loop $-1 $-1 $234 $84 #
plane-surface $-1 -157.39831974749416 5.9689366357736553 109.56880076674167 0 1 0 -0.62932039886446345 0 0.77714595512881146 forward_v I I I I #
coedge $-1 $235 $236 $237 $238 reversed $85 $-1 #
coedge $-1 $141 $87 $239 $240 reversed $55 $-1 #
coedge $-1 $87 $140 $235 $241 reversed $55 $-1 #
coedge $-1 $237 $242 $87 $143 forward $232 $-1 #
edge $-1 $243 44.707696102916834 $244 53.529827942648254 $142 $245 forward 7 unknown #
loop $-1 $-1 $149 $88 #
plane-surface $-1 -69.687185277871023 11.562742970460235 1.2545724407225975 -0.62932039886446345 0 0.77714595512881146 0.77714595512881146 0 0.62932039886446345 forward_v I I I I #
loop $-1 $-1 $246 $57 #
coedge $-1 $147 $147 $148 $247 reversed $89 $-1 #
coedge $-1 $148 $148 $147 $247 forward $91 $-1 #
coedge $-1 $149 $149 $92 $150 forward $144 $-1 #
edge $-1 $248 0 $248 6.2831853071796004 $149 $249 forward 7 unknown #
loop $-1 $-1 $156 $93 #
plane-surface $-1 -69.687185277871023 11.562742970460235 1.2545724407225975 -0.62932039886446345 0 0.77714595512881146 0.77714595512881146 0 0.62932039886446345 forward_v I I I I #
loop $-1 $-1 $250 $60 #
coedge $-1 $154 $154 $155 $251 reversed $94 $-1 #
coedge $-1 $155 $155 $154 $251 forward $96 $-1 #
coedge $-1 $156 $156 $97 $157 forward $151 $-1 #
edge $-1 $252 0 $252 6.2831853071796004 $156 $253 forward 7 unknown #
loop $-1 $-1 $163 $98 #
plane-surface $-1 -69.687185277871023 11.562742970460235 1.2545724407225975 -0.62932039886446345 0 0.77714595512881146 0.77714595512881146 0 0.62932039886446345 forward_v I I I I #
loop $-1 $-1 $254 $63 #
coedge $-1 $161 $161 $162 $255 reversed $99 $-1 #
coedge $-1 $162 $162 $161 $255 forward $101 $-1 #
coedge $-1 $163 $163 $102 $164 forward $158 $-1 #
edge $-1 $256 0 $256 6.2831853071796004 $163 $257 forward 7 unknown #
face $-1 $258 $259 $34 $-1 $260 forward single #
loop $-1 $-1 $261 $103 #
plane-surface $-1 32.077756072575511 -14.496590076124811 197.12868267760547 0 1 0 0.55919291073839883 0 0.82903756765294845 forward_v I I I I #
coedge $-1 $262 $263 $264 $265 reversed $104 $-1 #
coedge $-1 $170 $106 $266 $267 reversed $67 $-1 #
coedge $-1 $106 $169 $262 $268 reversed $67 $-1 #
coedge $-1 $264 $269 $106 $172 forward $259 $-1 #
edge $-1 $270 -53.648307241583282 $271 -44.112815201504091 $171 $272 forward 7 unknown #
loop $-1 $-1 $178 $107 #
plane-surface $-1 -45.859403880822086 -6.0282486420095971 81.582093518912345 0.55919291073839883 0 0.82903756765294845 0.82903756765294845 0 -0.55919291073839883 forward_v I I I I #
loop $-1 $-1 $273 $69 #
coedge $-1 $176 $176 $177 $274 reversed $108 $-1 #
coedge $-1 $177 $177 $176 $274 forward $110 $-1 #
coedge $-1 $178 $178 $111 $179 forward $173 $-1 #
edge $-1 $275 0 $275 6.2831853071796004 $178 $276 forward 7 unknown #
face $-1 $277 $278 $27 $-1 $279 reversed single #
loop $-1 $-1 $280 $112 #
plane-surface $-1 -69.687185277871038 0 0 1 0 0 0 0 -1 forward_v I I I I #
coedge $-1 $281 $191 $282 $283 forward $113 $-1 #
coedge $-1 $284 $115 $281 $285 forward $73 $-1 #
coedge $-1 $115 $284 $286 $287 forward $73 $-1 #
coedge $-1 $194 $193 $115 $187 reversed $195 $-1 #
edge $-1 $288 -36.166643206926594 $289 36.166643206926594 $186 $290 forward 7 unknown #
coedge $-1 $117 $116 $291 $292 forward $46 $-1 #
coedge $-1 $293 $294 $116 $190 reversed $278 $-1 #
edge $-1 $197 -69.687185277871038 $295 69.687185277871038 $189 $296 forward 7 unknown #
coedge $-1 $183 $297 $117 $192 reversed $113 $-1 #
edge $-1 $298 -69.687185277871038 $196 69.687185277871038 $191 $299 forward 7 unknown #
coedge $-1 $186 $118 $297 $300 forward $195 $-1 #
coedge $-1 $118 $186 $293 $301 reversed $195 $-1 #
loop $-1 $-1 $193 $277 #
vertex $-1 $119 $302 #
vertex $-1 $119 $303 #
straight-curve $-1 69.687185277871038 0 10.076704280454004 0 1 0 I I #
face $-1 $304 $305 $28 $-1 $306 reversed single #
loop $-1 $-1 $205 $120 #
plane-surface $-1 69.687185277871038 0 0 -1 0 0 0 0 1 forward_v I I I I #
coedge $-1 $307 $308 $203 $309 forward $121 $-1 #
coedge $-1 $310 $123 $202 $309 reversed $77 $-1 #
coedge $-1 $123 $310 $124 $208 reversed $77 $-1 #
coedge $-1 $126 $311 $123 $206 forward $200 $-1 #
edge $-1 $312 -6.2696400955874489 $212 -1.3444882741456619 $205 $313 forward 7 unknown #
coedge $-1 $125 $124 $314 $315 reversed $49 $-1 #
edge $-1 $212 -69.687185277871038 $316 69.687185277871038 $204 $317 forward 7 unknown #
coedge $-1 $318 $319 $125 $210 forward $305 $-1 #
edge $-1 $213 -69.687185277871038 $320 69.687185277871038 $209 $321 forward 7 unknown #
coedge $-1 $311 $126 $319 $322 forward $200 $-1 #
vertex $-1 $127 $323 #
vertex $-1 $322 $324 #
straight-curve $-1 69.687185277871038 -16.120832164885201 -5.1515524590122173 0 -1 0 I I #
face $-1 $325 $326 $29 $-1 $327 reversed single #
loop $-1 $-1 $328 $128 #
plane-surface $-1 0 0 -10.076704280454004 0 0 1 1 0 0 forward_v I I I I #
coedge $-1 $329 $131 $328 $330 reversed $81 $-1 #
coedge $-1 $131 $329 $133 $225 reversed $81 $-1 #
coedge $-1 $331 $332 $131 $221 forward $326 $-1 #
edge $-1 $333 -6.2696400955874489 $334 -1.3444882741456619 $220 $335 forward 7 unknown #
coedge $-1 $133 $132 $331 $336 reversed $52 $-1 #
coedge $-1 $337 $338 $132 $224 forward $339 $-1 #
edge $-1 $340 -69.687185277871038 $228 69.687185277871038 $223 $341 forward 7 unknown #
edge $-1 $334 -69.687185277871038 $229 69.687185277871038 $219 $342 forward 7 unknown #
coedge $-1 $343 $134 $329 $344 forward $129 $-1 #
coedge $-1 $134 $343 $337 $345 reversed $129 $-1 #
vertex $-1 $345 $346 #
vertex $-1 $135 $347 #
straight-curve $-1 69.687185277871038 16.120832164885201 -5.1515524590122173 0 -1 0 I I #
face $-1 $-1 $348 $30 $-1 $349 forward single #
loop $-1 $-1 $142 $136 #
plane-surface $-1 -69.687185277871038 0 0 1 0 0 0 0 -1 forward_v I I I I #
coedge $-1 $350 $351 $352 $353 reversed $137 $-1 #
coedge $-1 $354 $139 $141 $241 forward $85 $-1 #
coedge $-1 $139 $354 $350 $355 forward $85 $-1 #
coedge $-1 $352 $142 $139 $238 forward $232 $-1 #
edge $-1 $244 -11.375177819916697 $356 -0.18756515054353784 $237 $357 forward 7 unknown #
coedge $-1 $358 $359 $140 $240 forward $348 $-1 #
edge $-1 $360 -19.906399895344151 $243 -9.0119745958760404 $239 $361 forward 7 unknown #
edge $-1 $244 -1.8310242626372826e-014 $360 14.018506083149273 $141 $362 forward 7 unknown #
coedge $-1 $142 $352 $358 $363 reversed $232 $-1 #
vertex $-1 $363 $364 #
vertex $-1 $143 $365 #
straight-curve $-1 -69.687185277871038 17.156549305146815 54.784400383370837 0 0 -1 I I #
coedge $-1 $246 $246 $-1 $366 reversed $146 $-1 #
edge $-1 $367 0 $367 6.2831853071796004 $147 $368 forward 7 unknown #
vertex $-1 $150 $369 #
ellipse-curve $-1 -64.239972628136982 8.2064591696482907 5.6656383605882947 -0.62932039886446345 0 0.77714595512881146 0.38857297756440573 0 0.31466019943223172 1 I I #
coedge $-1 $250 $250 $-1 $370 reversed $153 $-1 #
edge $-1 $371 0 $371 6.2831853071796004 $154 $372 forward 7 unknown #
vertex $-1 $157 $373 #
ellipse-curve $-1 -64.239972628136982 11.562742970460242 5.6656383605882947 -0.62932039886446345 0 0.77714595512881146 0.38857297756440573 0 0.31466019943223172 1 I I #
coedge $-1 $254 $254 $-1 $374 reversed $160 $-1 #
edge $-1 $375 0 $375 6.2831853071796004 $161 $376 forward 7 unknown #
vertex $-1 $164 $377 #
ellipse-curve $-1 -64.239972628136982 14.919026771272193 5.6656383605882947 -0.62932039886446345 0 0.77714595512881146 0.38857297756440573 0 0.31466019943223172 1 I I #
face $-1 $-1 $378 $34 $-1 $379 reversed single #
loop $-1 $-1 $171 $165 #
plane-surface $-1 0 0 10.076704280454004 0 0 1 1 0 0 forward_v I I I I #
coedge $-1 $380 $381 $382 $383 reversed $166 $-1 #
coedge $-1 $384 $168 $170 $268 forward $104 $-1 #
coedge $-1 $168 $384 $380 $385 forward $104 $-1 #
coedge $-1 $382 $171 $168 $265 forward $259 $-1 #
edge $-1 $271 -5.4542171131104151 $386 11.482465755120012 $264 $387 forward 7 unknown #
coedge $-1 $388 $389 $169 $267 forward $378 $-1 #
edge $-1 $390 -94.919407773287986 $270 -88.487637058348724 $266 $391 forward 7 unknown #
edge $-1 $271 127.87248884117189 $390 139.37437055574208 $170 $392 forward 7 unknown #
coedge $-1 $171 $382 $388 $393 forward $259 $-1 #
vertex $-1 $172 $394 #
vertex $-1 $172 $395 #
straight-curve $-1 16.038878036287755 2.4400927921056166 10.07670428045401 -1 0 0 I I #
coedge $-1 $273 $273 $-1 $396 reversed $175 $-1 #
edge $-1 $397 0 $397 6.2831853071796004 $176 $398 forward 7 unknown #
vertex $-1 $179 $399 #
ellipse-curve $-1 64.919439257831456 -6.0282486420095971 6.8608189229843708 0.55919291073839883 0 0.82903756765294845 2.072593919132371 0 -1.3979822768459971 1 I I #
face $-1 $-1 $195 $27 $-1 $400 reversed single #
loop $-1 $-1 $293 $180 #
plane-surface $-1 0 36.166643206926594 0 0 -1 0 0 0 -1 forward_v I I I I #
coedge $-1 $401 $291 $294 $402 forward $181 $-1 #
coedge $-1 $297 $183 $184 $285 reversed $113 $-1 #
coedge $-1 $291 $401 $183 $283 reversed $181 $-1 #
edge $-1 $298 -10.076704280454004 $403 10.076704280454004 $282 $404 forward 7 unknown #
coedge $-1 $185 $184 $401 $405 forward $73 $-1 #
edge $-1 $289 -69.687185277871038 $403 69.687185277871038 $281 $406 forward 7 unknown #
coedge $-1 $294 $293 $185 $287 reversed $278 $-1 #
edge $-1 $407 -69.687185277871038 $288 69.687185277871038 $286 $408 forward 7 unknown #
vertex $-1 $187 $409 #
vertex $-1 $300 $410 #
straight-curve $-1 69.687185277871038 0 -10.076704280454004 0 -1 0 I I #
coedge $-1 $280 $282 $188 $292 reversed $181 $-1 #
edge $-1 $295 -36.166643206926594 $298 36.166643206926594 $291 $411 forward 7 unknown #
coedge $-1 $286 $189 $194 $301 forward $278 $-1 #
coedge $-1 $189 $286 $280 $402 reversed $278 $-1 #
vertex $-1 $190 $412 #
straight-curve $-1 0 36.166643206926594 10.076704280454004 -1 0 0 I I #
coedge $-1 $191 $281 $193 $300 reversed $113 $-1 #
vertex $-1 $292 $413 #
straight-curve $-1 0 -36.166643206926594 10.076704280454004 1 0 0 I I #
edge $-1 $196 -10.076704280454004 $289 10.076704280454004 $193 $414 forward 7 unknown #
edge $-1 $197 -10.076704280454004 $288 10.076704280454004 $194 $415 forward 7 unknown #
point $-1 69.687185277871038 -36.166643206926594 10.076704280454004 #
point $-1 69.687185277871038 36.166643206926594 10.076704280454004 #
face $-1 $-1 $416 $28 $-1 $417 reversed single #
loop $-1 $-1 $209 $199 #
plane-surface $-1 0 -36.166643206926594 0 0 1 0 0 0 1 forward_v I I I I #
coedge $-1 $418 $202 $311 $419 forward $121 $-1 #
coedge $-1 $202 $418 $420 $421 forward $121 $-1 #
edge $-1 $422 -69.687185277871038 $312 69.687185277871038 $202 $423 forward 7 unknown #
coedge $-1 $204 $203 $424 $425 reversed $77 $-1 #
coedge $-1 $205 $211 $307 $419 reversed $200 $-1 #
vertex $-1 $419 $426 #
straight-curve $-1 69.687185277871038 -28.316685452614209 -3.8070641848665554 0 0 1 I I #
coedge $-1 $424 $427 $207 $315 forward $416 $-1 #
edge $-1 $320 -20.045811042041393 $316 -12.195853287729008 $314 $428 forward 7 unknown #
vertex $-1 $315 $429 #
straight-curve $-1 0 -28.316685452614209 -5.1515524590122173 -1 0 0 I I #
coedge $-1 $430 $209 $427 $431 forward $305 $-1 #
coedge $-1 $209 $430 $211 $322 reversed $305 $-1 #
vertex $-1 $431 $432 #
straight-curve $-1 0 -36.166643206926594 -5.1515524590122173 -1 0 0 I I #
edge $-1 $213 5.1515524590122173 $433 10.076704280454004 $211 $434 forward 7 unknown #
point $-1 69.687185277871038 -28.316685452614209 -5.1515524590122173 #
point $-1 69.687185277871038 -36.166643206926594 -5.1515524590122173 #
face $-1 $-1 $339 $29 $-1 $435 reversed single #
loop $-1 $-1 $331 $215 #
plane-surface $-1 -69.687185277871038 0 0 1 0 0 0 0 -1 forward_v I I I I #
coedge $-1 $436 $437 $218 $330 forward $216 $-1 #
coedge $-1 $219 $218 $226 $344 reversed $81 $-1 #
edge $-1 $438 -69.687185277871038 $333 69.687185277871038 $328 $439 forward 7 unknown #
coedge $-1 $440 $220 $222 $336 forward $326 $-1 #
coedge $-1 $220 $440 $436 $441 reversed $326 $-1 #
vertex $-1 $441 $442 #
vertex $-1 $336 $443 #
straight-curve $-1 -69.687185277871038 28.316685452614209 -3.8070641848665554 0 0 1 I I #
edge $-1 $334 12.195853287729008 $340 20.045811042041393 $331 $444 forward 7 unknown #
coedge $-1 $445 $223 $227 $345 forward $339 $-1 #
coedge $-1 $223 $445 $440 $446 reversed $339 $-1 #
loop $-1 $-1 $223 $325 #
vertex $-1 $446 $447 #
straight-curve $-1 0 36.166643206926594 -5.1515524590122173 1 0 0 I I #
straight-curve $-1 0 28.316685452614209 -5.1515524590122173 1 0 0 I I #
coedge $-1 $227 $226 $437 $448 reversed $129 $-1 #
edge $-1 $229 1.3444882741456619 $438 6.2696400955874489 $226 $449 forward 7 unknown #
edge $-1 $228 5.1515524590122173 $450 10.076704280454004 $227 $451 forward 7 unknown #
point $-1 69.687185277871038 36.166643206926594 -5.1515524590122173 #
point $-1 69.687185277871038 28.316685452614209 -5.1515524590122173 #
loop $-1 $-1 $239 $231 #
plane-surface $-1 0 0 10.076704280454004 0 0 1 1 0 0 forward_v I I I I #
coedge $-1 $351 $234 $236 $355 reversed $137 $-1 #
coedge $-1 $234 $350 $452 $453 reversed $137 $-1 #
coedge $-1 $242 $237 $234 $353 forward $232 $-1 #
edge $-1 $356 -53.529827942648254 $454 -44.707696102916834 $352 $455 forward 7 unknown #
coedge $-1 $236 $235 $359 $456 reversed $85 $-1 #
edge $-1 $457 -14.018506083149273 $356 1.8310242626372826e-014 $350 $458 forward 7 unknown #
vertex $-1 $238 $459 #
straight-curve $-1 -69.687185277871038 5.7813714852301175 1.2545724407225938 0 -1 0 I I #
coedge $-1 $452 $239 $242 $363 forward $348 $-1 #
coedge $-1 $239 $452 $354 $456 forward $348 $-1 #
vertex $-1 $240 $460 #
straight-curve $-1 -78.699159873747078 17.156549305146815 10.076704280454003 -1 0 0 I I #
straight-curve $-1 -69.687185277871023 17.156549305146815 1.2545724407225975 0.77714595512881146 0 0.62932039886446345 I I #
edge $-1 $243 -17.156549305146815 $454 -5.9689366357736553 $242 $461 forward 7 unknown #
point $-1 -69.687185277871038 17.156549305146815 10.076704280454004 #
point $-1 -69.687185277871038 17.156549305146815 1.254572440722586 #
edge $-1 $462 1 $462 0 $246 $-1 forward 7 unknown #
vertex $-1 $247 $463 #
ellipse-curve $-1 -63.610652229272524 8.2064591696482907 4.8884924054594885 -0.62932039886446345 0 0.77714595512881146 0.38857297756440573 0 0.31466019943223172 1 I I #
point $-1 -63.851399650572588 8.2064591696482907 5.9802985600205316 #
edge $-1 $464 1 $464 0 $250 $-1 forward 7 unknown #
vertex $-1 $251 $465 #
ellipse-curve $-1 -63.610652229272524 11.562742970460242 4.8884924054594885 -0.62932039886446345 0 0.77714595512881146 0.38857297756440573 0 0.31466019943223172 1 I I #
point $-1 -63.851399650572588 11.562742970460242 5.9802985600205316 #
edge $-1 $466 1 $466 0 $254 $-1 forward 7 unknown #
vertex $-1 $255 $467 #
ellipse-curve $-1 -63.610652229272524 14.919026771272193 4.8884924054594885 -0.62932039886446345 0 0.77714595512881146 0.38857297756440573 0 0.31466019943223172 1 I I #
point $-1 -63.851399650572588 14.919026771272193 5.9802985600205316 #
loop $-1 $-1 $266 $258 #
plane-surface $-1 69.687185277871038 0 0 -1 0 0 0 0 1 forward_v I I I I #
coedge $-1 $381 $261 $263 $385 reversed $166 $-1 #
coedge $-1 $261 $380 $468 $469 reversed $166 $-1 #
coedge $-1 $269 $264 $261 $383 forward $259 $-1 #
edge $-1 $386 44.112815201504091 $470 53.648307241583282 $382 $471 forward 7 unknown #
coedge $-1 $263 $262 $389 $472 reversed $104 $-1 #
edge $-1 $473 -139.37437055574208 $386 -127.87248884117189 $380 $474 forward 7 unknown #
vertex $-1 $265 $475 #
straight-curve $-1 60.151693237791868 -3.0141243210047985 10.076704280454003 0 -1 0 I I #
coedge $-1 $468 $266 $269 $393 reversed $378 $-1 #
coedge $-1 $266 $468 $384 $472 forward $378 $-1 #
vertex $-1 $267 $476 #
straight-curve $-1 69.687185277871038 2.4400927921056166 98.564341338802734 0 0 1 I I #
straight-curve $-1 -45.859403880822086 2.4400927921056166 81.582093518912345 0.82903756765294845 0 -0.55919291073839883 I I #
edge $-1 $470 -14.496590076124811 $270 2.4400927921056166 $388 $477 forward 7 unknown #
point $-1 69.687185277871038 2.4400927921056166 10.076704280454004 #
point $-1 60.151693237791847 2.4400927921056166 10.07670428045401 #
edge $-1 $478 1 $478 0 $273 $-1 forward 7 unknown #
vertex $-1 $274 $479 #
ellipse-curve $-1 62.787161105049421 -6.0282486420095971 3.6995866194351565 0.55919291073839883 0 0.82903756765294845 2.072593919132371 0 -1.3979822768459971 1 I I #
point $-1 66.992033176963844 -6.0282486420095971 5.4628366461383902 #
plane-surface $-1 69.687185277871038 0 0 -1 0 0 0 0 1 forward_v I I I I #
coedge $-1 $282 $280 $284 $405 reversed $181 $-1 #
edge $-1 $295 -10.076704280454004 $407 10.076704280454004 $294 $480 forward 7 unknown #
vertex $-1 $405 $481 #
straight-curve $-1 -69.687185277871038 -36.166643206926594 0 0 0 -1 I I #
edge $-1 $403 -36.166643206926594 $407 36.166643206926594 $401 $482 forward 7 unknown #
straight-curve $-1 0 -36.166643206926594 -10.076704280454004 -1 0 0 I I #
vertex $-1 $287 $483 #
straight-curve $-1 0 36.166643206926594 -10.076704280454004 1 0 0 I I #
point $-1 69.687185277871038 36.166643206926594 -10.076704280454004 #
point $-1 69.687185277871038 -36.166643206926594 -10.076704280454004 #
straight-curve $-1 -69.687185277871038 0 10.076704280454004 0 -1 0 I I #
point $-1 -69.687185277871038 36.166643206926594 10.076704280454004 #
point $-1 -69.687185277871038 -36.166643206926594 10.076704280454004 #
straight-curve $-1 69.687185277871038 -36.166643206926594 0 0 0 -1 I I #
straight-curve $-1 69.687185277871038 36.166643206926594 0 0 0 -1 I I #
loop $-1 $-1 $424 $304 #
plane-surface $-1 -69.687185277871038 0 0 1 0 0 0 0 -1 forward_v I I I I #
coedge $-1 $308 $307 $430 $484 forward $121 $-1 #
edge $-1 $312 28.316685452614209 $433 36.166643206926594 $311 $485 forward 7 unknown #
coedge $-1 $427 $424 $308 $421 reversed $416 $-1 #
edge $-1 $486 -36.166643206926594 $422 -28.316685452614209 $420 $487 forward 7 unknown #
vertex $-1 $425 $488 #
straight-curve $-1 0 -28.316685452614209 -10.076704280454004 1 0 0 I I #
coedge $-1 $420 $314 $310 $425 forward $416 $-1 #
edge $-1 $316 1.3444882741456619 $422 6.2696400955874489 $424 $489 forward 7 unknown #
point $-1 69.687185277871038 -28.316685452614209 -10.076704280454004 #
coedge $-1 $314 $420 $318 $431 reversed $416 $-1 #
straight-curve $-1 -69.687185277871038 -16.120832164885201 -5.1515524590122173 0 1 0 I I #
point $-1 -69.687185277871038 -28.316685452614209 -5.1515524590122173 #
coedge $-1 $319 $318 $418 $484 reversed $305 $-1 #
edge $-1 $320 5.1515524590122173 $486 10.076704280454004 $427 $490 forward 7 unknown #
point $-1 -69.687185277871038 -36.166643206926594 -5.1515524590122173 #
vertex $-1 $322 $491 #
straight-curve $-1 69.687185277871038 -36.166643206926594 0 0 0 -1 I I #
plane-surface $-1 0 36.166643206926594 0 0 -1 0 0 0 -1 forward_v I I I I #
coedge $-1 $492 $328 $332 $441 forward $216 $-1 #
coedge $-1 $328 $492 $343 $448 forward $216 $-1 #
vertex $-1 $330 $493 #
straight-curve $-1 0 28.316685452614209 -10.076704280454004 -1 0 0 I I #
coedge $-1 $332 $331 $338 $446 forward $326 $-1 #
edge $-1 $333 28.316685452614209 $494 36.166643206926594 $332 $495 forward 7 unknown #
point $-1 -69.687185277871038 28.316685452614209 -10.076704280454004 #
point $-1 -69.687185277871038 28.316685452614209 -5.1515524590122173 #
straight-curve $-1 -69.687185277871038 16.120832164885201 -5.1515524590122173 0 1 0 I I #
coedge $-1 $338 $337 $492 $496 reversed $339 $-1 #
edge $-1 $340 5.1515524590122173 $494 10.076704280454004 $338 $497 forward 7 unknown #
point $-1 -69.687185277871038 36.166643206926594 -5.1515524590122173 #
edge $-1 $450 -36.166643206926594 $438 -28.316685452614209 $343 $498 forward 7 unknown #
straight-curve $-1 69.687185277871038 28.316685452614209 -3.8070641848665554 0 0 -1 I I #
vertex $-1 $448 $499 #
straight-curve $-1 69.687185277871038 36.166643206926594 0 0 0 -1 I I #
coedge $-1 $359 $358 $351 $453 forward $348 $-1 #
edge $-1 $454 9.0119745958760404 $457 19.906399895344151 $452 $500 forward 7 unknown #
vertex $-1 $453 $501 #
straight-curve $-1 -69.687185277871038 5.9689366357736553 54.784400383370837 0 0 1 I I #
edge $-1 $457 0.18756515054353784 $360 11.375177819916697 $359 $502 forward 7 unknown #
vertex $-1 $456 $503 #
straight-curve $-1 -69.687185277871023 5.9689366357736553 1.2545724407225975 -0.77714595512881146 0 -0.62932039886446345 I I #
point $-1 -69.687185277871038 5.9689366357736553 1.254572440722586 #
point $-1 -58.792759978402927 17.156549305146815 10.076704280454004 #
straight-curve $-1 -69.687185277871038 0 10.076704280454004 0 -1 0 I I #
vertex $-1 $366 $504 #
point $-1 -63.222079251708124 8.2064591696482907 5.20315260489172 #
vertex $-1 $370 $505 #
point $-1 -63.222079251708124 11.562742970460242 5.20315260489172 #
vertex $-1 $374 $506 #
point $-1 -63.222079251708124 14.919026771272193 5.20315260489172 #
coedge $-1 $389 $388 $381 $469 forward $378 $-1 #
edge $-1 $470 88.487637058348724 $473 94.919407773287986 $468 $507 forward 7 unknown #
vertex $-1 $393 $508 #
straight-curve $-1 16.038878036287755 -14.496590076124811 10.07670428045401 1 0 0 I I #
edge $-1 $473 -11.482465755120012 $390 5.4542171131104151 $389 $509 forward 7 unknown #
vertex $-1 $472 $510 #
straight-curve $-1 -45.859403880822086 -14.496590076124811 81.582093518912345 -0.82903756765294845 0 0.55919291073839883 I I #
point $-1 60.151693237791847 -14.496590076124811 10.07670428045401 #
point $-1 69.687185277871038 2.4400927921056166 3.6449335655147479 #
straight-curve $-1 69.687185277871038 0 10.076704280454004 0 1 0 I I #
vertex $-1 $396 $511 #
point $-1 64.859755024181794 -6.0282486420095971 2.301604342589159 #
straight-curve $-1 -69.687185277871038 36.166643206926594 0 0 0 -1 I I #
point $-1 -69.687185277871038 -36.166643206926594 -10.076704280454004 #
straight-curve $-1 -69.687185277871038 0 -10.076704280454004 0 1 0 I I #
point $-1 -69.687185277871038 36.166643206926594 -10.076704280454004 #
edge $-1 $433 -69.687185277871038 $486 69.687185277871038 $430 $512 forward 7 unknown #
straight-curve $-1 69.687185277871038 0 -10.076704280454004 0 -1 0 I I #
vertex $-1 $421 $513 #
straight-curve $-1 -69.687185277871038 0 -10.076704280454004 0 1 0 I I #
point $-1 -69.687185277871038 -28.316685452614209 -10.076704280454004 #
straight-curve $-1 -69.687185277871038 -28.316685452614209 -3.8070641848665554 0 0 -1 I I #
straight-curve $-1 -69.687185277871038 -36.166643206926594 0 0 0 -1 I I #
point $-1 69.687185277871038 -36.166643206926594 -10.076704280454004 #
coedge $-1 $437 $436 $445 $496 forward $216 $-1 #
point $-1 69.687185277871038 28.316685452614209 -10.076704280454004 #
vertex $-1 $496 $514 #
straight-curve $-1 -69.687185277871038 0 -10.076704280454004 0 1 0 I I #
edge $-1 $494 -69.687185277871038 $450 69.687185277871038 $445 $515 forward 7 unknown #
straight-curve $-1 -69.687185277871038 36.166643206926594 0 0 0 -1 I I #
straight-curve $-1 69.687185277871038 0 -10.076704280454004 0 -1 0 I I #
point $-1 69.687185277871038 36.166643206926594 -10.076704280454004 #
straight-curve $-1 -78.699159873747078 5.9689366357736553 10.076704280454003 1 0 0 I I #
point $-1 -69.687185277871038 5.9689366357736553 10.076704280454004 #
straight-curve $-1 -58.792759978402934 5.7813714852301175 10.076704280454004 0 1 0 I I #
point $-1 -58.792759978402927 5.9689366357736553 10.076704280454004 #
point $-1 -63.295992029840299 8.2064591696482907 4.4999194278950823 #
point $-1 -63.295992029840299 11.562742970460242 4.4999194278950823 #
point $-1 -63.295992029840299 14.919026771272193 4.4999194278950823 #
straight-curve $-1 69.687185277871038 -14.496590076124811 98.564341338802734 0 0 -1 I I #
point $-1 69.687185277871038 -14.496590076124811 10.076704280454004 #
straight-curve $-1 69.687185277871038 -3.0141243210047985 3.6449335655147479 0 1 0 I I #
point $-1 69.687185277871038 -14.496590076124811 3.6449335655147479 #
point $-1 61.389178828203427 -6.0282486420095971 1.6269927003027853 #
straight-curve $-1 0 -36.166643206926594 -10.076704280454004 -1 0 0 I I #
point $-1 -69.687185277871038 -36.166643206926594 -10.076704280454004 #
point $-1 -69.687185277871038 36.166643206926594 -10.076704280454004 #
straight-curve $-1 0 36.166643206926594 -10.076704280454004 1 0 0 I I #
End-of-ACIS-data 