500 0 19 0           
7 Unknown 11 ACIS 5.0 NT 24 Thu Mar 25 23:21:20 1999 
-1 9.9999999999999995e-007 1e-010 
body $-1 $19 $-1 $20 #
body $-1 $21 $-1 $22 #
body $-1 $23 $-1 $24 #
body $-1 $25 $-1 $26 #
body $-1 $27 $-1 $28 #
body $-1 $29 $-1 $30 #
body $-1 $31 $-1 $32 #
body $-1 $33 $-1 $34 #
body $-1 $35 $-1 $36 #
body $-1 $37 $-1 $38 #
body $-1 $39 $-1 $40 #
body $-1 $41 $-1 $42 #
body $-1 $43 $-1 $44 #
body $-1 $45 $-1 $46 #
body $-1 $47 $-1 $48 #
body $-1 $49 $-1 $50 #
body $-1 $51 $-1 $52 #
body $-1 $53 $-1 $54 #
body $-1 $55 $-1 $56 #
lump $-1 $-1 $57 $0 #
transform $-1 1 0 0 0 1 0 0 0 1 60.669576097903374 38.725990138727923 8.479487333241714 1 rotate no_reflect no_shear #
lump $-1 $-1 $58 $1 #
transform $-1 1 0 0 0 1 0 0 0 1 4.152811259630413 15.458974666483428 8.479487333241714 1 rotate no_reflect no_shear #
lump $-1 $-1 $59 $2 #
transform $-1 1 0 0 0 1 0 0 0 1 117.18634093617634 15.458974666483428 8.479487333241714 1 rotate no_reflect no_shear #
lump $-1 $-1 $60 $3 #
transform $-1 1 0 0 0 0.77714595512881146 0.62932039886446345 0 -0.62932039886446345 0.77714595512881146 14.52782719332202 -76.361203657740944 103.70231003233646 1 rotate no_reflect no_shear #
lump $-1 $-1 $61 $4 #
transform $-1 1 0 0 0 -0.77714595512881146 -0.62932039886446345 0 0.62932039886446345 -0.77714595512881146 10.794504388885304 5.5070881369839997 12.141337684001982 1 rotate no_reflect no_shear #
lump $-1 $-1 $62 $5 #
transform $-1 1 0 0 0 -0.77714595512881146 -0.62932039886446345 0 0.62932039886446345 -0.77714595512881146 14.527827193322022 5.5070881369839997 12.141337684001982 1 rotate no_reflect no_shear #
lump $-1 $-1 $63 $6 #
transform $-1 1 0 0 0 -0.77714595512881146 -0.62932039886446345 0 0.62932039886446345 -0.77714595512881146 18.261149997758739 5.5070881369839997 12.141337684001982 1 rotate no_reflect no_shear #
lump $-1 $-1 $64 $7 #
transform $-1 1 0 0 0 0.77714595512881146 0.62932039886446345 0 -0.62932039886446345 0.77714595512881146 45.288993129709588 -76.361203657740944 103.70231003233646 1 rotate no_reflect no_shear #
lump $-1 $-1 $65 $8 #
transform $-1 1 0 0 0 -0.77714595512881146 -0.62932039886446345 0 0.62932039886446345 -0.77714595512881146 41.555670325272871 5.5070881369839997 12.141337684001982 1 rotate no_reflect no_shear #
lump $-1 $-1 $66 $9 #
transform $-1 1 0 0 0 -0.77714595512881146 -0.62932039886446345 0 0.62932039886446345 -0.77714595512881146 45.288993129709596 5.5070881369839997 12.141337684001982 1 rotate no_reflect no_shear #
lump $-1 $-1 $67 $10 #
transform $-1 1 0 0 0 -0.77714595512881146 -0.62932039886446345 0 0.62932039886446345 -0.77714595512881146 49.022315934146306 5.5070881369839997 12.141337684001982 1 rotate no_reflect no_shear #
lump $-1 $-1 $68 $11 #
transform $-1 1 0 0 0 0.77714595512881146 0.62932039886446345 0 -0.62932039886446345 0.77714595512881146 76.050159066097166 -76.361203657740944 103.70231003233646 1 rotate no_reflect no_shear #
lump $-1 $-1 $69 $12 #
transform $-1 1 0 0 0 -0.77714595512881146 -0.62932039886446345 0 0.62932039886446345 -0.77714595512881146 72.316836261660441 5.5070881369839997 12.141337684001982 1 rotate no_reflect no_shear #
lump $-1 $-1 $70 $13 #
transform $-1 1 0 0 0 -0.77714595512881146 -0.62932039886446345 0 0.62932039886446345 -0.77714595512881146 76.050159066097166 5.5070881369839997 12.141337684001982 1 rotate no_reflect no_shear #
lump $-1 $-1 $71 $14 #
transform $-1 1 0 0 0 -0.77714595512881146 -0.62932039886446345 0 0.62932039886446345 -0.77714595512881146 79.783481870533876 5.5070881369839997 12.141337684001982 1 rotate no_reflect no_shear #
lump $-1 $-1 $72 $15 #
transform $-1 1 0 0 0 0.77714595512881146 0.62932039886446345 0 -0.62932039886446345 0.77714595512881146 106.81132500248474 -76.361203657740944 103.70231003233646 1 rotate no_reflect no_shear #
lump $-1 $-1 $73 $16 #
transform $-1 1 0 0 0 -0.77714595512881146 -0.62932039886446345 0 0.62932039886446345 -0.77714595512881146 103.07800219804801 5.5070881369839997 12.141337684001982 1 rotate no_reflect no_shear #
lump $-1 $-1 $74 $17 #
transform $-1 1 0 0 0 -0.77714595512881146 -0.62932039886446345 0 0.62932039886446345 -0.77714595512881146 106.81132500248474 5.5070881369839997 12.141337684001982 1 rotate no_reflect no_shear #
lump $-1 $-1 $75 $18 #
transform $-1 1 0 0 0 -0.77714595512881146 -0.62932039886446345 0 0.62932039886446345 -0.77714595512881146 110.54464780692145 5.5070881369839997 12.141337684001982 1 rotate no_reflect no_shear #
shell $-1 $-1 $-1 $76 $-1 $19 #
shell $-1 $-1 $-1 $77 $-1 $21 #
shell $-1 $-1 $-1 $78 $-1 $23 #
shell $-1 $-1 $-1 $79 $-1 $25 #
shell $-1 $-1 $-1 $80 $-1 $27 #
shell $-1 $-1 $-1 $81 $-1 $29 #
shell $-1 $-1 $-1 $82 $-1 $31 #
shell $-1 $-1 $-1 $83 $-1 $33 #
shell $-1 $-1 $-1 $84 $-1 $35 #
shell $-1 $-1 $-1 $85 $-1 $37 #
shell $-1 $-1 $-1 $86 $-1 $39 #
shell $-1 $-1 $-1 $87 $-1 $41 #
shell $-1 $-1 $-1 $88 $-1 $43 #
shell $-1 $-1 $-1 $89 $-1 $45 #
shell $-1 $-1 $-1 $90 $-1 $47 #
shell $-1 $-1 $-1 $91 $-1 $49 #
shell $-1 $-1 $-1 $92 $-1 $51 #
shell $-1 $-1 $-1 $93 $-1 $53 #
shell $-1 $-1 $-1 $94 $-1 $55 #
face $-1 $95 $96 $57 $-1 $97 forward single #
face $-1 $98 $99 $58 $-1 $100 forward single #
face $-1 $101 $102 $59 $-1 $103 forward single #
face $-1 $104 $105 $60 $-1 $106 forward single #
face $-1 $107 $108 $61 $-1 $109 forward single #
face $-1 $110 $111 $62 $-1 $112 forward single #
face $-1 $113 $114 $63 $-1 $115 forward single #
face $-1 $116 $117 $64 $-1 $118 forward single #
face $-1 $119 $120 $65 $-1 $121 forward single #
face $-1 $122 $123 $66 $-1 $124 forward single #
face $-1 $125 $126 $67 $-1 $127 forward single #
face $-1 $128 $129 $68 $-1 $130 forward single #
face $-1 $131 $132 $69 $-1 $133 forward single #
face $-1 $134 $135 $70 $-1 $136 forward single #
face $-1 $137 $138 $71 $-1 $139 forward single #
face $-1 $140 $141 $72 $-1 $142 forward single #
face $-1 $143 $144 $73 $-1 $145 forward single #
face $-1 $146 $147 $74 $-1 $148 forward single #
face $-1 $149 $150 $75 $-1 $151 forward single #
face $-1 $152 $153 $57 $-1 $154 reversed single #
loop $-1 $-1 $155 $76 #
plane-surface $-1 0 0 8.479487333241714 0 0 1 1 0 0 forward_v I I I I #
face $-1 $156 $157 $58 $-1 $158 reversed single #
loop $-1 $-1 $159 $77 #
plane-surface $-1 0 0 8.479487333241714 0 0 1 1 0 0 forward_v I I I I #
face $-1 $160 $161 $59 $-1 $162 reversed single #
loop $-1 $-1 $163 $78 #
plane-surface $-1 0 0 8.479487333241714 0 0 1 1 0 0 forward_v I I I I #
face $-1 $164 $165 $60 $-1 $166 reversed single #
loop $-1 $-1 $167 $79 #
plane-surface $-1 0 0 121.33915219580675 0 0 1 1 0 0 forward_v I I I I #
face $-1 $168 $169 $61 $-1 $170 forward single #
loop $-1 $171 $172 $80 #
cone-surface $-1 0 0 -0.79423657948545845 0 0 1 0.5 0 0 1 I I 0 1 0.5 forward I I I I #
face $-1 $173 $174 $62 $-1 $175 forward single #
loop $-1 $176 $177 $81 #
cone-surface $-1 0 0 -0.79423657948545845 0 0 1 0.5 0 0 1 I I 0 1 0.5 forward I I I I #
face $-1 $178 $179 $63 $-1 $180 forward single #
loop $-1 $181 $182 $82 #
cone-surface $-1 0 0 -0.79423657948545845 0 0 1 0.5 0 0 1 I I 0 1 0.5 forward I I I I #
face $-1 $183 $184 $64 $-1 $185 reversed single #
loop $-1 $-1 $186 $83 #
plane-surface $-1 0 0 121.33915219580675 0 0 1 1 0 0 forward_v I I I I #
face $-1 $187 $188 $65 $-1 $189 forward single #
loop $-1 $190 $191 $84 #
cone-surface $-1 0 0 -0.79423657948545845 0 0 1 0.5 0 0 1 I I 0 1 0.5 forward I I I I #
face $-1 $192 $193 $66 $-1 $194 forward single #
loop $-1 $195 $196 $85 #
cone-surface $-1 0 0 -0.79423657948545845 0 0 1 0.5 0 0 1 I I 0 1 0.5 forward I I I I #
face $-1 $197 $198 $67 $-1 $199 forward single #
loop $-1 $200 $201 $86 #
cone-surface $-1 0 0 -0.79423657948545845 0 0 1 0.5 0 0 1 I I 0 1 0.5 forward I I I I #
face $-1 $202 $203 $68 $-1 $204 reversed single #
loop $-1 $-1 $205 $87 #
plane-surface $-1 0 0 121.33915219580675 0 0 1 1 0 0 forward_v I I I I #
face $-1 $206 $207 $69 $-1 $208 forward single #
loop $-1 $209 $210 $88 #
cone-surface $-1 0 0 -0.79423657948545845 0 0 1 0.5 0 0 1 I I 0 1 0.5 forward I I I I #
face $-1 $211 $212 $70 $-1 $213 forward single #
loop $-1 $214 $215 $89 #
cone-surface $-1 0 0 -0.79423657948545845 0 0 1 0.5 0 0 1 I I 0 1 0.5 forward I I I I #
face $-1 $216 $217 $71 $-1 $218 forward single #
loop $-1 $219 $220 $90 #
cone-surface $-1 0 0 -0.79423657948545845 0 0 1 0.5 0 0 1 I I 0 1 0.5 forward I I I I #
face $-1 $221 $222 $72 $-1 $223 reversed single #
loop $-1 $-1 $224 $91 #
plane-surface $-1 0 0 121.33915219580675 0 0 1 1 0 0 forward_v I I I I #
face $-1 $225 $226 $73 $-1 $227 forward single #
loop $-1 $228 $229 $92 #
cone-surface $-1 0 0 -0.79423657948545845 0 0 1 0.5 0 0 1 I I 0 1 0.5 forward I I I I #
face $-1 $230 $231 $74 $-1 $232 forward single #
loop $-1 $233 $234 $93 #
cone-surface $-1 0 0 -0.79423657948545845 0 0 1 0.5 0 0 1 I I 0 1 0.5 forward I I I I #
face $-1 $235 $236 $75 $-1 $237 forward single #
loop $-1 $238 $239 $94 #
cone-surface $-1 0 0 -0.79423657948545845 0 0 1 0.5 0 0 1 I I 0 1 0.5 forward I I I I #
face $-1 $240 $241 $57 $-1 $242 reversed single #
loop $-1 $-1 $243 $95 #
plane-surface $-1 0 0 -8.479487333241714 0 0 1 1 0 0 forward_v I I I I #
coedge $-1 $244 $245 $246 $247 forward $96 $-1 #
face $-1 $248 $249 $58 $-1 $250 reversed single #
loop $-1 $-1 $251 $98 #
plane-surface $-1 0 0 -8.479487333241714 0 0 1 1 0 0 forward_v I I I I #
coedge $-1 $252 $253 $254 $255 forward $99 $-1 #
face $-1 $256 $257 $59 $-1 $258 reversed single #
loop $-1 $-1 $259 $101 #
plane-surface $-1 0 0 -8.479487333241714 0 0 1 1 0 0 forward_v I I I I #
coedge $-1 $260 $261 $262 $263 forward $102 $-1 #
face $-1 $264 $265 $60 $-1 $266 reversed single #
loop $-1 $-1 $267 $104 #
plane-surface $-1 0 0 -121.33915219580675 0 0 1 1 0 0 forward_v I I I I #
coedge $-1 $268 $269 $270 $271 forward $105 $-1 #
face $-1 $-1 $272 $61 $-1 $273 forward single #
loop $-1 $-1 $274 $107 #
plane-surface $-1 0 0 -1.3384731589709169 0 0 -1 -1 0 0 forward_v I I I I #
loop $-1 $-1 $275 $80 #
coedge $-1 $172 $172 $274 $276 reversed $108 $-1 #
face $-1 $-1 $277 $62 $-1 $278 forward single #
loop $-1 $-1 $279 $110 #
plane-surface $-1 0 0 -1.3384731589709169 0 0 -1 -1 0 0 forward_v I I I I #
loop $-1 $-1 $280 $81 #
coedge $-1 $177 $177 $279 $281 reversed $111 $-1 #
face $-1 $-1 $282 $63 $-1 $283 forward single #
loop $-1 $-1 $284 $113 #
plane-surface $-1 0 0 -1.3384731589709169 0 0 -1 -1 0 0 forward_v I I I I #
loop $-1 $-1 $285 $82 #
coedge $-1 $182 $182 $284 $286 reversed $114 $-1 #
face $-1 $287 $288 $64 $-1 $289 reversed single #
loop $-1 $-1 $290 $116 #
plane-surface $-1 0 0 -121.33915219580675 0 0 1 1 0 0 forward_v I I I I #
coedge $-1 $291 $292 $293 $294 forward $117 $-1 #
face $-1 $-1 $295 $65 $-1 $296 forward single #
loop $-1 $-1 $297 $119 #
plane-surface $-1 0 0 -1.3384731589709169 0 0 -1 -1 0 0 forward_v I I I I #
loop $-1 $-1 $298 $84 #
coedge $-1 $191 $191 $297 $299 reversed $120 $-1 #
face $-1 $-1 $300 $66 $-1 $301 forward single #
loop $-1 $-1 $302 $122 #
plane-surface $-1 0 0 -1.3384731589709169 0 0 -1 -1 0 0 forward_v I I I I #
loop $-1 $-1 $303 $85 #
coedge $-1 $196 $196 $302 $304 reversed $123 $-1 #
face $-1 $-1 $305 $67 $-1 $306 forward single #
loop $-1 $-1 $307 $125 #
plane-surface $-1 0 0 -1.3384731589709169 0 0 -1 -1 0 0 forward_v I I I I #
loop $-1 $-1 $308 $86 #
coedge $-1 $201 $201 $307 $309 reversed $126 $-1 #
face $-1 $310 $311 $68 $-1 $312 reversed single #
loop $-1 $-1 $313 $128 #
plane-surface $-1 0 0 -121.33915219580675 0 0 1 1 0 0 forward_v I I I I #
coedge $-1 $314 $315 $316 $317 forward $129 $-1 #
face $-1 $-1 $318 $69 $-1 $319 forward single #
loop $-1 $-1 $320 $131 #
plane-surface $-1 0 0 -1.3384731589709169 0 0 -1 -1 0 0 forward_v I I I I #
loop $-1 $-1 $321 $88 #
coedge $-1 $210 $210 $320 $322 reversed $132 $-1 #
face $-1 $-1 $323 $70 $-1 $324 forward single #
loop $-1 $-1 $325 $134 #
plane-surface $-1 0 0 -1.3384731589709169 0 0 -1 -1 0 0 forward_v I I I I #
loop $-1 $-1 $326 $89 #
coedge $-1 $215 $215 $325 $327 reversed $135 $-1 #
face $-1 $-1 $328 $71 $-1 $329 forward single #
loop $-1 $-1 $330 $137 #
plane-surface $-1 0 0 -1.3384731589709169 0 0 -1 -1 0 0 forward_v I I I I #
loop $-1 $-1 $331 $90 #
coedge $-1 $220 $220 $330 $332 reversed $138 $-1 #
face $-1 $333 $334 $72 $-1 $335 reversed single #
loop $-1 $-1 $336 $140 #
plane-surface $-1 0 0 -121.33915219580675 0 0 1 1 0 0 forward_v I I I I #
coedge $-1 $337 $338 $339 $340 forward $141 $-1 #
face $-1 $-1 $341 $73 $-1 $342 forward single #
loop $-1 $-1 $343 $143 #
plane-surface $-1 0 0 -1.3384731589709169 0 0 -1 -1 0 0 forward_v I I I I #
loop $-1 $-1 $344 $92 #
coedge $-1 $229 $229 $343 $345 reversed $144 $-1 #
face $-1 $-1 $346 $74 $-1 $347 forward single #
loop $-1 $-1 $348 $146 #
plane-surface $-1 0 0 -1.3384731589709169 0 0 -1 -1 0 0 forward_v I I I I #
loop $-1 $-1 $349 $93 #
coedge $-1 $234 $234 $348 $350 reversed $147 $-1 #
face $-1 $-1 $351 $75 $-1 $352 forward single #
loop $-1 $-1 $353 $149 #
plane-surface $-1 0 0 -1.3384731589709169 0 0 -1 -1 0 0 forward_v I I I I #
loop $-1 $-1 $354 $94 #
coedge $-1 $239 $239 $353 $355 reversed $150 $-1 #
face $-1 $356 $357 $57 $-1 $358 reversed single #
loop $-1 $-1 $359 $152 #
plane-surface $-1 0 -38.725990138727923 0 0 1 0 0 0 1 forward_v I I I I #
coedge $-1 $360 $361 $362 $363 forward $153 $-1 #
coedge $-1 $364 $155 $365 $366 forward $96 $-1 #
coedge $-1 $155 $364 $367 $368 forward $96 $-1 #
coedge $-1 $369 $370 $155 $247 reversed $371 $-1 #
edge $-1 $372 -38.725990138727923 $373 38.725990138727923 $246 $374 forward 7 unknown #
face $-1 $375 $376 $58 $-1 $377 reversed single #
loop $-1 $-1 $378 $156 #
plane-surface $-1 0 -1.5 0 0 1 0 0 0 1 forward_v I I I I #
coedge $-1 $379 $380 $381 $382 forward $157 $-1 #
coedge $-1 $383 $159 $384 $385 forward $99 $-1 #
coedge $-1 $159 $383 $386 $387 forward $99 $-1 #
coedge $-1 $388 $389 $159 $255 reversed $390 $-1 #
edge $-1 $391 -1.5 $392 1.5 $254 $393 forward 7 unknown #
face $-1 $394 $395 $59 $-1 $396 reversed single #
loop $-1 $-1 $397 $160 #
plane-surface $-1 0 -1.5 0 0 1 0 0 0 1 forward_v I I I I #
coedge $-1 $398 $399 $400 $401 forward $161 $-1 #
coedge $-1 $402 $163 $403 $404 forward $102 $-1 #
coedge $-1 $163 $402 $405 $406 forward $102 $-1 #
coedge $-1 $407 $408 $163 $263 reversed $409 $-1 #
edge $-1 $410 -1.5 $411 1.5 $262 $412 forward 7 unknown #
face $-1 $413 $414 $60 $-1 $415 reversed single #
loop $-1 $-1 $416 $164 #
plane-surface $-1 0 -242.67830439161349 0 0 1 0 0 0 1 forward_v I I I I #
coedge $-1 $417 $418 $419 $420 forward $165 $-1 #
coedge $-1 $421 $167 $422 $423 forward $105 $-1 #
coedge $-1 $167 $421 $424 $425 forward $105 $-1 #
coedge $-1 $426 $427 $167 $271 reversed $428 $-1 #
edge $-1 $429 -242.67830439161349 $430 242.67830439161349 $270 $431 forward 7 unknown #
loop $-1 $432 $433 $168 #
cone-surface $-1 0 0 0 0 0 1 0.25 0 0 1 I I -0.70710678118654813 0.70710678118654691 0.25 forward I I I I #
coedge $-1 $274 $274 $172 $276 forward $169 $-1 #
coedge $-1 $275 $275 $433 $434 forward $171 $-1 #
edge $-1 $435 0 $435 6.2831853071796004 $274 $436 forward 7 unknown #
loop $-1 $437 $438 $173 #
cone-surface $-1 0 0 0 0 0 1 0.25 0 0 1 I I -0.70710678118654813 0.70710678118654691 0.25 forward I I I I #
coedge $-1 $279 $279 $177 $281 forward $174 $-1 #
coedge $-1 $280 $280 $438 $439 forward $176 $-1 #
edge $-1 $440 0 $440 6.2831853071796004 $279 $441 forward 7 unknown #
loop $-1 $442 $443 $178 #
cone-surface $-1 0 0 0 0 0 1 0.25 0 0 1 I I -0.70710678118654813 0.70710678118654691 0.25 forward I I I I #
coedge $-1 $284 $284 $182 $286 forward $179 $-1 #
coedge $-1 $285 $285 $443 $444 forward $181 $-1 #
edge $-1 $445 0 $445 6.2831853071796004 $284 $446 forward 7 unknown #
face $-1 $447 $448 $64 $-1 $449 reversed single #
loop $-1 $-1 $450 $183 #
plane-surface $-1 0 -242.67830439161349 0 0 1 0 0 0 1 forward_v I I I I #
coedge $-1 $451 $452 $453 $454 forward $184 $-1 #
coedge $-1 $455 $186 $456 $457 forward $117 $-1 #
coedge $-1 $186 $455 $458 $459 forward $117 $-1 #
coedge $-1 $460 $461 $186 $294 reversed $462 $-1 #
edge $-1 $463 -242.67830439161349 $464 242.67830439161349 $293 $465 forward 7 unknown #
loop $-1 $466 $467 $187 #
cone-surface $-1 0 0 0 0 0 1 0.25 0 0 1 I I -0.70710678118654813 0.70710678118654691 0.25 forward I I I I #
coedge $-1 $297 $297 $191 $299 forward $188 $-1 #
coedge $-1 $298 $298 $467 $468 forward $190 $-1 #
edge $-1 $469 0 $469 6.2831853071796004 $297 $470 forward 7 unknown #
loop $-1 $471 $472 $192 #
cone-surface $-1 0 0 0 0 0 1 0.25 0 0 1 I I -0.70710678118654813 0.70710678118654691 0.25 forward I I I I #
coedge $-1 $302 $302 $196 $304 forward $193 $-1 #
coedge $-1 $303 $303 $472 $473 forward $195 $-1 #
edge $-1 $474 0 $474 6.2831853071796004 $302 $475 forward 7 unknown #
loop $-1 $476 $477 $197 #
cone-surface $-1 0 0 0 0 0 1 0.25 0 0 1 I I -0.70710678118654813 0.70710678118654691 0.25 forward I I I I #
coedge $-1 $307 $307 $201 $309 forward $198 $-1 #
coedge $-1 $308 $308 $477 $478 forward $200 $-1 #
edge $-1 $479 0 $479 6.2831853071796004 $307 $480 forward 7 unknown #
face $-1 $481 $482 $68 $-1 $483 reversed single #
loop $-1 $-1 $484 $202 #
plane-surface $-1 0 -242.67830439161349 0 0 1 0 0 0 1 forward_v I I I I #
coedge $-1 $485 $486 $487 $488 forward $203 $-1 #
coedge $-1 $489 $205 $490 $491 forward $129 $-1 #
coedge $-1 $205 $489 $492 $493 forward $129 $-1 #
coedge $-1 $494 $495 $205 $317 reversed $496 $-1 #
edge $-1 $497 -242.67830439161349 $498 242.67830439161349 $316 $499 forward 7 unknown #
loop $-1 $500 $501 $206 #
cone-surface $-1 0 0 0 0 0 1 0.25 0 0 1 I I -0.70710678118654813 0.70710678118654691 0.25 forward I I I I #
coedge $-1 $320 $320 $210 $322 forward $207 $-1 #
coedge $-1 $321 $321 $501 $502 forward $209 $-1 #
edge $-1 $503 0 $503 6.2831853071796004 $320 $504 forward 7 unknown #
loop $-1 $505 $506 $211 #
cone-surface $-1 0 0 0 0 0 1 0.25 0 0 1 I I -0.70710678118654813 0.70710678118654691 0.25 forward I I I I #
coedge $-1 $325 $325 $215 $327 forward $212 $-1 #
coedge $-1 $326 $326 $506 $507 forward $214 $-1 #
edge $-1 $508 0 $508 6.2831853071796004 $325 $509 forward 7 unknown #
loop $-1 $510 $511 $216 #
cone-surface $-1 0 0 0 0 0 1 0.25 0 0 1 I I -0.70710678118654813 0.70710678118654691 0.25 forward I I I I #
coedge $-1 $330 $330 $220 $332 forward $217 $-1 #
coedge $-1 $331 $331 $511 $512 forward $219 $-1 #
edge $-1 $513 0 $513 6.2831853071796004 $330 $514 forward 7 unknown #
face $-1 $515 $516 $72 $-1 $517 reversed single #
loop $-1 $-1 $518 $221 #
plane-surface $-1 0 -242.67830439161349 0 0 1 0 0 0 1 forward_v I I I I #
coedge $-1 $519 $520 $521 $522 forward $222 $-1 #
coedge $-1 $523 $224 $524 $525 forward $141 $-1 #
coedge $-1 $224 $523 $526 $527 forward $141 $-1 #
coedge $-1 $528 $529 $224 $340 reversed $530 $-1 #
edge $-1 $531 -242.67830439161349 $532 242.67830439161349 $339 $533 forward 7 unknown #
loop $-1 $534 $535 $225 #
cone-surface $-1 0 0 0 0 0 1 0.25 0 0 1 I I -0.70710678118654813 0.70710678118654691 0.25 forward I I I I #
coedge $-1 $343 $343 $229 $345 forward $226 $-1 #
coedge $-1 $344 $344 $535 $536 forward $228 $-1 #
edge $-1 $537 0 $537 6.2831853071796004 $343 $538 forward 7 unknown #
loop $-1 $539 $540 $230 #
cone-surface $-1 0 0 0 0 0 1 0.25 0 0 1 I I -0.70710678118654813 0.70710678118654691 0.25 forward I I I I #
coedge $-1 $348 $348 $234 $350 forward $231 $-1 #
coedge $-1 $349 $349 $540 $541 forward $233 $-1 #
edge $-1 $542 0 $542 6.2831853071796004 $348 $543 forward 7 unknown #
loop $-1 $544 $545 $235 #
cone-surface $-1 0 0 0 0 0 1 0.25 0 0 1 I I -0.70710678118654813 0.70710678118654691 0.25 forward I I I I #
coedge $-1 $353 $353 $239 $355 forward $236 $-1 #
coedge $-1 $354 $354 $545 $546 forward $238 $-1 #
edge $-1 $547 0 $547 6.2831853071796004 $353 $548 forward 7 unknown #
face $-1 $549 $550 $57 $-1 $551 reversed single #
loop $-1 $-1 $552 $240 #
plane-surface $-1 -60.669576097903374 0 0 1 0 0 0 0 -1 forward_v I I I I #
coedge $-1 $553 $367 $554 $555 forward $241 $-1 #
coedge $-1 $556 $243 $553 $557 forward $153 $-1 #
coedge $-1 $243 $556 $558 $559 forward $153 $-1 #
coedge $-1 $370 $369 $243 $363 reversed $371 $-1 #
edge $-1 $560 -38.725990138727923 $561 38.725990138727923 $362 $562 forward 7 unknown #
coedge $-1 $245 $244 $563 $564 forward $96 $-1 #
coedge $-1 $565 $566 $244 $366 reversed $550 $-1 #
edge $-1 $373 -60.669576097903374 $567 60.669576097903374 $365 $568 forward 7 unknown #
coedge $-1 $359 $569 $245 $368 reversed $241 $-1 #
edge $-1 $570 -60.669576097903374 $372 60.669576097903374 $367 $571 forward 7 unknown #
coedge $-1 $362 $246 $569 $572 forward $371 $-1 #
coedge $-1 $246 $362 $565 $573 reversed $371 $-1 #
loop $-1 $-1 $369 $549 #
vertex $-1 $247 $574 #
vertex $-1 $247 $575 #
straight-curve $-1 60.669576097903374 0 8.479487333241714 0 1 0 I I #
face $-1 $576 $577 $58 $-1 $578 reversed single #
loop $-1 $-1 $579 $248 #
plane-surface $-1 -4.152811259630413 0 0 1 0 0 0 0 -1 forward_v I I I I #
coedge $-1 $580 $386 $581 $582 forward $249 $-1 #
coedge $-1 $583 $251 $580 $584 forward $157 $-1 #
coedge $-1 $251 $583 $585 $586 forward $157 $-1 #
coedge $-1 $389 $388 $251 $382 reversed $390 $-1 #
edge $-1 $587 -1.5 $588 1.5 $381 $589 forward 7 unknown #
coedge $-1 $253 $252 $590 $591 forward $99 $-1 #
coedge $-1 $592 $593 $252 $385 reversed $577 $-1 #
edge $-1 $392 -4.152811259630413 $594 4.152811259630413 $384 $595 forward 7 unknown #
coedge $-1 $378 $596 $253 $387 reversed $249 $-1 #
edge $-1 $597 -4.152811259630413 $391 4.152811259630413 $386 $598 forward 7 unknown #
coedge $-1 $381 $254 $596 $599 forward $390 $-1 #
coedge $-1 $254 $381 $592 $600 reversed $390 $-1 #
loop $-1 $-1 $388 $576 #
vertex $-1 $255 $601 #
vertex $-1 $255 $602 #
straight-curve $-1 4.152811259630413 0 8.479487333241714 0 1 0 I I #
face $-1 $603 $604 $59 $-1 $605 reversed single #
loop $-1 $-1 $606 $256 #
plane-surface $-1 -4.1528112596304112 0 0 1 0 0 0 0 -1 forward_v I I I I #
coedge $-1 $607 $405 $608 $609 forward $257 $-1 #
coedge $-1 $610 $259 $607 $611 forward $161 $-1 #
coedge $-1 $259 $610 $612 $613 forward $161 $-1 #
coedge $-1 $408 $407 $259 $401 reversed $409 $-1 #
edge $-1 $614 -1.5 $615 1.5 $400 $616 forward 7 unknown #
coedge $-1 $261 $260 $617 $618 forward $102 $-1 #
coedge $-1 $619 $620 $260 $404 reversed $604 $-1 #
edge $-1 $411 -4.1528112596304112 $621 4.1528112596304112 $403 $622 forward 7 unknown #
coedge $-1 $397 $623 $261 $406 reversed $257 $-1 #
edge $-1 $624 -4.1528112596304112 $410 4.1528112596304112 $405 $625 forward 7 unknown #
coedge $-1 $400 $262 $623 $626 forward $409 $-1 #
coedge $-1 $262 $400 $619 $627 reversed $409 $-1 #
loop $-1 $-1 $407 $603 #
vertex $-1 $263 $628 #
vertex $-1 $263 $629 #
straight-curve $-1 4.1528112596304112 0 8.479487333241714 0 1 0 I I #
face $-1 $630 $631 $60 $-1 $632 reversed single #
loop $-1 $-1 $633 $264 #
plane-surface $-1 -6.222204674061194 0 0 1 0 0 0 0 -1 forward_v I I I I #
coedge $-1 $634 $424 $635 $636 forward $265 $-1 #
coedge $-1 $637 $267 $634 $638 forward $165 $-1 #
coedge $-1 $267 $637 $639 $640 forward $165 $-1 #
coedge $-1 $427 $426 $267 $420 reversed $428 $-1 #
edge $-1 $641 -242.67830439161349 $642 242.67830439161349 $419 $643 forward 7 unknown #
coedge $-1 $269 $268 $644 $645 forward $105 $-1 #
coedge $-1 $646 $647 $268 $423 reversed $631 $-1 #
edge $-1 $430 -6.222204674061194 $648 6.222204674061194 $422 $649 forward 7 unknown #
coedge $-1 $416 $650 $269 $425 reversed $265 $-1 #
edge $-1 $651 -6.222204674061194 $429 6.222204674061194 $424 $652 forward 7 unknown #
coedge $-1 $419 $270 $650 $653 forward $428 $-1 #
coedge $-1 $270 $419 $646 $654 reversed $428 $-1 #
loop $-1 $-1 $426 $630 #
vertex $-1 $271 $655 #
vertex $-1 $271 $656 #
straight-curve $-1 6.222204674061194 0 121.33915219580675 0 1 0 I I #
loop $-1 $-1 $657 $168 #
coedge $-1 $433 $433 $275 $434 reversed $272 $-1 #
edge $-1 $658 0 $658 6.2831853071796004 $433 $659 forward 7 unknown #
vertex $-1 $276 $660 #
ellipse-curve $-1 0 0 -1.3384731589709169 0 0 -1 0.5 0 0 1 I I #
loop $-1 $-1 $661 $173 #
coedge $-1 $438 $438 $280 $439 reversed $277 $-1 #
edge $-1 $662 0 $662 6.2831853071796004 $438 $663 forward 7 unknown #
vertex $-1 $281 $664 #
ellipse-curve $-1 0 0 -1.3384731589709169 0 0 -1 0.5 0 0 1 I I #
loop $-1 $-1 $665 $178 #
coedge $-1 $443 $443 $285 $444 reversed $282 $-1 #
edge $-1 $666 0 $666 6.2831853071796004 $443 $667 forward 7 unknown #
vertex $-1 $286 $668 #
ellipse-curve $-1 0 0 -1.3384731589709169 0 0 -1 0.5 0 0 1 I I #
face $-1 $669 $670 $64 $-1 $671 reversed single #
loop $-1 $-1 $672 $287 #
plane-surface $-1 -6.222204674061194 0 0 1 0 0 0 0 -1 forward_v I I I I #
coedge $-1 $673 $458 $674 $675 forward $288 $-1 #
coedge $-1 $676 $290 $673 $677 forward $184 $-1 #
coedge $-1 $290 $676 $678 $679 forward $184 $-1 #
coedge $-1 $461 $460 $290 $454 reversed $462 $-1 #
edge $-1 $680 -242.67830439161349 $681 242.67830439161349 $453 $682 forward 7 unknown #
coedge $-1 $292 $291 $683 $684 forward $117 $-1 #
coedge $-1 $685 $686 $291 $457 reversed $670 $-1 #
edge $-1 $464 -6.222204674061194 $687 6.222204674061194 $456 $688 forward 7 unknown #
coedge $-1 $450 $689 $292 $459 reversed $288 $-1 #
edge $-1 $690 -6.222204674061194 $463 6.222204674061194 $458 $691 forward 7 unknown #
coedge $-1 $453 $293 $689 $692 forward $462 $-1 #
coedge $-1 $293 $453 $685 $693 reversed $462 $-1 #
loop $-1 $-1 $460 $669 #
vertex $-1 $294 $694 #
vertex $-1 $294 $695 #
straight-curve $-1 6.222204674061194 0 121.33915219580675 0 1 0 I I #
loop $-1 $-1 $696 $187 #
coedge $-1 $467 $467 $298 $468 reversed $295 $-1 #
edge $-1 $697 0 $697 6.2831853071796004 $467 $698 forward 7 unknown #
vertex $-1 $299 $699 #
ellipse-curve $-1 0 0 -1.3384731589709169 0 0 -1 0.5 0 0 1 I I #
loop $-1 $-1 $700 $192 #
coedge $-1 $472 $472 $303 $473 reversed $300 $-1 #
edge $-1 $701 0 $701 6.2831853071796004 $472 $702 forward 7 unknown #
vertex $-1 $304 $703 #
ellipse-curve $-1 0 0 -1.3384731589709169 0 0 -1 0.5 0 0 1 I I #
loop $-1 $-1 $704 $197 #
coedge $-1 $477 $477 $308 $478 reversed $305 $-1 #
edge $-1 $705 0 $705 6.2831853071796004 $477 $706 forward 7 unknown #
vertex $-1 $309 $707 #
ellipse-curve $-1 0 0 -1.3384731589709169 0 0 -1 0.5 0 0 1 I I #
face $-1 $708 $709 $68 $-1 $710 reversed single #
loop $-1 $-1 $711 $310 #
plane-surface $-1 -6.222204674061194 0 0 1 0 0 0 0 -1 forward_v I I I I #
coedge $-1 $712 $492 $713 $714 forward $311 $-1 #
coedge $-1 $715 $313 $712 $716 forward $203 $-1 #
coedge $-1 $313 $715 $717 $718 forward $203 $-1 #
coedge $-1 $495 $494 $313 $488 reversed $496 $-1 #
edge $-1 $719 -242.67830439161349 $720 242.67830439161349 $487 $721 forward 7 unknown #
coedge $-1 $315 $314 $722 $723 forward $129 $-1 #
coedge $-1 $724 $725 $314 $491 reversed $709 $-1 #
edge $-1 $498 -6.222204674061194 $726 6.222204674061194 $490 $727 forward 7 unknown #
coedge $-1 $484 $728 $315 $493 reversed $311 $-1 #
edge $-1 $729 -6.222204674061194 $497 6.222204674061194 $492 $730 forward 7 unknown #
coedge $-1 $487 $316 $728 $731 forward $496 $-1 #
coedge $-1 $316 $487 $724 $732 reversed $496 $-1 #
loop $-1 $-1 $494 $708 #
vertex $-1 $317 $733 #
vertex $-1 $317 $734 #
straight-curve $-1 6.222204674061194 0 121.33915219580675 0 1 0 I I #
loop $-1 $-1 $735 $206 #
coedge $-1 $501 $501 $321 $502 reversed $318 $-1 #
edge $-1 $736 0 $736 6.2831853071796004 $501 $737 forward 7 unknown #
vertex $-1 $322 $738 #
ellipse-curve $-1 0 0 -1.3384731589709169 0 0 -1 0.5 0 0 1 I I #
loop $-1 $-1 $739 $211 #
coedge $-1 $506 $506 $326 $507 reversed $323 $-1 #
edge $-1 $740 0 $740 6.2831853071796004 $506 $741 forward 7 unknown #
vertex $-1 $327 $742 #
ellipse-curve $-1 0 0 -1.3384731589709169 0 0 -1 0.5 0 0 1 I I #
loop $-1 $-1 $743 $216 #
coedge $-1 $511 $511 $331 $512 reversed $328 $-1 #
edge $-1 $744 0 $744 6.2831853071796004 $511 $745 forward 7 unknown #
vertex $-1 $332 $746 #
ellipse-curve $-1 0 0 -1.3384731589709169 0 0 -1 0.5 0 0 1 I I #
face $-1 $747 $748 $72 $-1 $749 reversed single #
loop $-1 $-1 $750 $333 #
plane-surface $-1 -6.222204674061194 0 0 1 0 0 0 0 -1 forward_v I I I I #
coedge $-1 $751 $526 $752 $753 forward $334 $-1 #
coedge $-1 $754 $336 $751 $755 forward $222 $-1 #
coedge $-1 $336 $754 $756 $757 forward $222 $-1 #
coedge $-1 $529 $528 $336 $522 reversed $530 $-1 #
edge $-1 $758 -242.67830439161349 $759 242.67830439161349 $521 $760 forward 7 unknown #
coedge $-1 $338 $337 $761 $762 forward $141 $-1 #
coedge $-1 $763 $764 $337 $525 reversed $748 $-1 #
edge $-1 $532 -6.222204674061194 $765 6.222204674061194 $524 $766 forward 7 unknown #
coedge $-1 $518 $767 $338 $527 reversed $334 $-1 #
edge $-1 $768 -6.222204674061194 $531 6.222204674061194 $526 $769 forward 7 unknown #
coedge $-1 $521 $339 $767 $770 forward $530 $-1 #
coedge $-1 $339 $521 $763 $771 reversed $530 $-1 #
loop $-1 $-1 $528 $747 #
vertex $-1 $340 $772 #
vertex $-1 $340 $773 #
straight-curve $-1 6.222204674061194 0 121.33915219580675 0 1 0 I I #
loop $-1 $-1 $774 $225 #
coedge $-1 $535 $535 $344 $536 reversed $341 $-1 #
edge $-1 $775 0 $775 6.2831853071796004 $535 $776 forward 7 unknown #
vertex $-1 $345 $777 #
ellipse-curve $-1 0 0 -1.3384731589709169 0 0 -1 0.5 0 0 1 I I #
loop $-1 $-1 $778 $230 #
coedge $-1 $540 $540 $349 $541 reversed $346 $-1 #
edge $-1 $779 0 $779 6.2831853071796004 $540 $780 forward 7 unknown #
vertex $-1 $350 $781 #
ellipse-curve $-1 0 0 -1.3384731589709169 0 0 -1 0.5 0 0 1 I I #
loop $-1 $-1 $782 $235 #
coedge $-1 $545 $545 $354 $546 reversed $351 $-1 #
edge $-1 $783 0 $783 6.2831853071796004 $545 $784 forward 7 unknown #
vertex $-1 $355 $785 #
ellipse-curve $-1 0 0 -1.3384731589709169 0 0 -1 0.5 0 0 1 I I #
face $-1 $-1 $371 $57 $-1 $786 reversed single #
loop $-1 $-1 $565 $356 #
plane-surface $-1 0 38.725990138727923 0 0 -1 0 0 0 -1 forward_v I I I I #
coedge $-1 $787 $563 $566 $788 forward $357 $-1 #
coedge $-1 $569 $359 $360 $557 reversed $241 $-1 #
coedge $-1 $563 $787 $359 $555 reversed $357 $-1 #
edge $-1 $570 -8.479487333241714 $789 8.479487333241714 $554 $790 forward 7 unknown #
coedge $-1 $361 $360 $787 $791 forward $153 $-1 #
edge $-1 $561 -60.669576097903374 $789 60.669576097903374 $553 $792 forward 7 unknown #
coedge $-1 $566 $565 $361 $559 reversed $550 $-1 #
edge $-1 $793 -60.669576097903374 $560 60.669576097903374 $558 $794 forward 7 unknown #
vertex $-1 $363 $795 #
vertex $-1 $572 $796 #
straight-curve $-1 60.669576097903374 0 -8.479487333241714 0 -1 0 I I #
coedge $-1 $552 $554 $364 $564 reversed $357 $-1 #
edge $-1 $567 -38.725990138727923 $570 38.725990138727923 $563 $797 forward 7 unknown #
coedge $-1 $558 $365 $370 $573 forward $550 $-1 #
coedge $-1 $365 $558 $552 $788 reversed $550 $-1 #
vertex $-1 $366 $798 #
straight-curve $-1 0 38.725990138727923 8.479487333241714 -1 0 0 I I #
coedge $-1 $367 $553 $369 $572 reversed $241 $-1 #
vertex $-1 $564 $799 #
straight-curve $-1 0 -38.725990138727923 8.479487333241714 1 0 0 I I #
edge $-1 $372 -8.479487333241714 $561 8.479487333241714 $369 $800 forward 7 unknown #
edge $-1 $373 -8.479487333241714 $560 8.479487333241714 $370 $801 forward 7 unknown #
point $-1 60.669576097903374 -38.725990138727923 8.479487333241714 #
point $-1 60.669576097903374 38.725990138727923 8.479487333241714 #
face $-1 $-1 $390 $58 $-1 $802 reversed single #
loop $-1 $-1 $592 $375 #
plane-surface $-1 0 1.5 0 0 -1 0 0 0 -1 forward_v I I I I #
coedge $-1 $803 $590 $593 $804 forward $376 $-1 #
coedge $-1 $596 $378 $379 $584 reversed $249 $-1 #
coedge $-1 $590 $803 $378 $582 reversed $376 $-1 #
edge $-1 $597 -8.479487333241714 $805 8.479487333241714 $581 $806 forward 7 unknown #
coedge $-1 $380 $379 $803 $807 forward $157 $-1 #
edge $-1 $588 -4.152811259630413 $805 4.152811259630413 $580 $808 forward 7 unknown #
coedge $-1 $593 $592 $380 $586 reversed $577 $-1 #
edge $-1 $809 -4.152811259630413 $587 4.152811259630413 $585 $810 forward 7 unknown #
vertex $-1 $382 $811 #
vertex $-1 $599 $812 #
straight-curve $-1 4.152811259630413 0 -8.479487333241714 0 -1 0 I I #
coedge $-1 $579 $581 $383 $591 reversed $376 $-1 #
edge $-1 $594 -1.5 $597 1.5 $590 $813 forward 7 unknown #
coedge $-1 $585 $384 $389 $600 forward $577 $-1 #
coedge $-1 $384 $585 $579 $804 reversed $577 $-1 #
vertex $-1 $385 $814 #
straight-curve $-1 0 1.5 8.479487333241714 -1 0 0 I I #
coedge $-1 $386 $580 $388 $599 reversed $249 $-1 #
vertex $-1 $591 $815 #
straight-curve $-1 0 -1.5 8.479487333241714 1 0 0 I I #
edge $-1 $391 -8.479487333241714 $588 8.479487333241714 $388 $816 forward 7 unknown #
edge $-1 $392 -8.479487333241714 $587 8.479487333241714 $389 $817 forward 7 unknown #
point $-1 4.152811259630413 -1.5 8.479487333241714 #
point $-1 4.152811259630413 1.5 8.479487333241714 #
face $-1 $-1 $409 $59 $-1 $818 reversed single #
loop $-1 $-1 $619 $394 #
plane-surface $-1 0 1.5 0 0 -1 0 0 0 -1 forward_v I I I I #
coedge $-1 $819 $617 $620 $820 forward $395 $-1 #
coedge $-1 $623 $397 $398 $611 reversed $257 $-1 #
coedge $-1 $617 $819 $397 $609 reversed $395 $-1 #
edge $-1 $624 -8.479487333241714 $821 8.479487333241714 $608 $822 forward 7 unknown #
coedge $-1 $399 $398 $819 $823 forward $161 $-1 #
edge $-1 $615 -4.1528112596304112 $821 4.1528112596304112 $607 $824 forward 7 unknown #
coedge $-1 $620 $619 $399 $613 reversed $604 $-1 #
edge $-1 $825 -4.1528112596304112 $614 4.1528112596304112 $612 $826 forward 7 unknown #
vertex $-1 $401 $827 #
vertex $-1 $626 $828 #
straight-curve $-1 4.1528112596304112 0 -8.479487333241714 0 -1 0 I I #
coedge $-1 $606 $608 $402 $618 reversed $395 $-1 #
edge $-1 $621 -1.5 $624 1.5 $617 $829 forward 7 unknown #
coedge $-1 $612 $403 $408 $627 forward $604 $-1 #
coedge $-1 $403 $612 $606 $820 reversed $604 $-1 #
vertex $-1 $404 $830 #
straight-curve $-1 0 1.5 8.479487333241714 -1 0 0 I I #
coedge $-1 $405 $607 $407 $626 reversed $257 $-1 #
vertex $-1 $618 $831 #
straight-curve $-1 0 -1.5 8.479487333241714 1 0 0 I I #
edge $-1 $410 -8.479487333241714 $615 8.479487333241714 $407 $832 forward 7 unknown #
edge $-1 $411 -8.479487333241714 $614 8.479487333241714 $408 $833 forward 7 unknown #
point $-1 4.1528112596304112 -1.5 8.479487333241714 #
point $-1 4.1528112596304112 1.5 8.479487333241714 #
face $-1 $-1 $428 $60 $-1 $834 reversed single #
loop $-1 $-1 $646 $413 #
plane-surface $-1 0 242.67830439161349 0 0 -1 0 0 0 -1 forward_v I I I I #
coedge $-1 $835 $644 $647 $836 forward $414 $-1 #
coedge $-1 $650 $416 $417 $638 reversed $265 $-1 #
coedge $-1 $644 $835 $416 $636 reversed $414 $-1 #
edge $-1 $651 -121.33915219580675 $837 121.33915219580675 $635 $838 forward 7 unknown #
coedge $-1 $418 $417 $835 $839 forward $165 $-1 #
edge $-1 $642 -6.222204674061194 $837 6.222204674061194 $634 $840 forward 7 unknown #
coedge $-1 $647 $646 $418 $640 reversed $631 $-1 #
edge $-1 $841 -6.222204674061194 $641 6.222204674061194 $639 $842 forward 7 unknown #
vertex $-1 $420 $843 #
vertex $-1 $653 $844 #
straight-curve $-1 6.222204674061194 0 -121.33915219580675 0 -1 0 I I #
coedge $-1 $633 $635 $421 $645 reversed $414 $-1 #
edge $-1 $648 -242.67830439161349 $651 242.67830439161349 $644 $845 forward 7 unknown #
coedge $-1 $639 $422 $427 $654 forward $631 $-1 #
coedge $-1 $422 $639 $633 $836 reversed $631 $-1 #
vertex $-1 $423 $846 #
straight-curve $-1 0 242.67830439161349 121.33915219580675 -1 0 0 I I #
coedge $-1 $424 $634 $426 $653 reversed $265 $-1 #
vertex $-1 $645 $847 #
straight-curve $-1 0 -242.67830439161349 121.33915219580675 1 0 0 I I #
edge $-1 $429 -121.33915219580675 $642 121.33915219580675 $426 $848 forward 7 unknown #
edge $-1 $430 -121.33915219580675 $641 121.33915219580675 $427 $849 forward 7 unknown #
point $-1 6.222204674061194 -242.67830439161349 121.33915219580675 #
point $-1 6.222204674061194 242.67830439161349 121.33915219580675 #
coedge $-1 $657 $657 $-1 $850 reversed $432 $-1 #
vertex $-1 $434 $851 #
ellipse-curve $-1 0 0 -0.24999999999999956 0 0 -1 0.5 0 0 1 I I #
point $-1 0.5 0 -1.3384731589709169 #
coedge $-1 $661 $661 $-1 $852 reversed $437 $-1 #
vertex $-1 $439 $853 #
ellipse-curve $-1 0 0 -0.24999999999999956 0 0 -1 0.5 0 0 1 I I #
point $-1 0.5 0 -1.3384731589709169 #
coedge $-1 $665 $665 $-1 $854 reversed $442 $-1 #
vertex $-1 $444 $855 #
ellipse-curve $-1 0 0 -0.24999999999999956 0 0 -1 0.5 0 0 1 I I #
point $-1 0.5 0 -1.3384731589709169 #
face $-1 $-1 $462 $64 $-1 $856 reversed single #
loop $-1 $-1 $685 $447 #
plane-surface $-1 0 242.67830439161349 0 0 -1 0 0 0 -1 forward_v I I I I #
coedge $-1 $857 $683 $686 $858 forward $448 $-1 #
coedge $-1 $689 $450 $451 $677 reversed $288 $-1 #
coedge $-1 $683 $857 $450 $675 reversed $448 $-1 #
edge $-1 $690 -121.33915219580675 $859 121.33915219580675 $674 $860 forward 7 unknown #
coedge $-1 $452 $451 $857 $861 forward $184 $-1 #
edge $-1 $681 -6.222204674061194 $859 6.222204674061194 $673 $862 forward 7 unknown #
coedge $-1 $686 $685 $452 $679 reversed $670 $-1 #
edge $-1 $863 -6.222204674061194 $680 6.222204674061194 $678 $864 forward 7 unknown #
vertex $-1 $454 $865 #
vertex $-1 $692 $866 #
straight-curve $-1 6.222204674061194 0 -121.33915219580675 0 -1 0 I I #
coedge $-1 $672 $674 $455 $684 reversed $448 $-1 #
edge $-1 $687 -242.67830439161349 $690 242.67830439161349 $683 $867 forward 7 unknown #
coedge $-1 $678 $456 $461 $693 forward $670 $-1 #
coedge $-1 $456 $678 $672 $858 reversed $670 $-1 #
vertex $-1 $457 $868 #
straight-curve $-1 0 242.67830439161349 121.33915219580675 -1 0 0 I I #
coedge $-1 $458 $673 $460 $692 reversed $288 $-1 #
vertex $-1 $684 $869 #
straight-curve $-1 0 -242.67830439161349 121.33915219580675 1 0 0 I I #
edge $-1 $463 -121.33915219580675 $681 121.33915219580675 $460 $870 forward 7 unknown #
edge $-1 $464 -121.33915219580675 $680 121.33915219580675 $461 $871 forward 7 unknown #
point $-1 6.222204674061194 -242.67830439161349 121.33915219580675 #
point $-1 6.222204674061194 242.67830439161349 121.33915219580675 #
coedge $-1 $696 $696 $-1 $872 reversed $466 $-1 #
vertex $-1 $468 $873 #
ellipse-curve $-1 0 0 -0.24999999999999956 0 0 -1 0.5 0 0 1 I I #
point $-1 0.5 0 -1.3384731589709169 #
coedge $-1 $700 $700 $-1 $874 reversed $471 $-1 #
vertex $-1 $473 $875 #
ellipse-curve $-1 0 0 -0.24999999999999956 0 0 -1 0.5 0 0 1 I I #
point $-1 0.5 0 -1.3384731589709169 #
coedge $-1 $704 $704 $-1 $876 reversed $476 $-1 #
vertex $-1 $478 $877 #
ellipse-curve $-1 0 0 -0.24999999999999956 0 0 -1 0.5 0 0 1 I I #
point $-1 0.5 0 -1.3384731589709169 #
face $-1 $-1 $496 $68 $-1 $878 reversed single #
loop $-1 $-1 $724 $481 #
plane-surface $-1 0 242.67830439161349 0 0 -1 0 0 0 -1 forward_v I I I I #
coedge $-1 $879 $722 $725 $880 forward $482 $-1 #
coedge $-1 $728 $484 $485 $716 reversed $311 $-1 #
coedge $-1 $722 $879 $484 $714 reversed $482 $-1 #
edge $-1 $729 -121.33915219580675 $881 121.33915219580675 $713 $882 forward 7 unknown #
coedge $-1 $486 $485 $879 $883 forward $203 $-1 #
edge $-1 $720 -6.222204674061194 $881 6.222204674061194 $712 $884 forward 7 unknown #
coedge $-1 $725 $724 $486 $718 reversed $709 $-1 #
edge $-1 $885 -6.222204674061194 $719 6.222204674061194 $717 $886 forward 7 unknown #
vertex $-1 $488 $887 #
vertex $-1 $731 $888 #
straight-curve $-1 6.222204674061194 0 -121.33915219580675 0 -1 0 I I #
coedge $-1 $711 $713 $489 $723 reversed $482 $-1 #
edge $-1 $726 -242.67830439161349 $729 242.67830439161349 $722 $889 forward 7 unknown #
coedge $-1 $717 $490 $495 $732 forward $709 $-1 #
coedge $-1 $490 $717 $711 $880 reversed $709 $-1 #
vertex $-1 $491 $890 #
straight-curve $-1 0 242.67830439161349 121.33915219580675 -1 0 0 I I #
coedge $-1 $492 $712 $494 $731 reversed $311 $-1 #
vertex $-1 $723 $891 #
straight-curve $-1 0 -242.67830439161349 121.33915219580675 1 0 0 I I #
edge $-1 $497 -121.33915219580675 $720 121.33915219580675 $494 $892 forward 7 unknown #
edge $-1 $498 -121.33915219580675 $719 121.33915219580675 $495 $893 forward 7 unknown #
point $-1 6.222204674061194 -242.67830439161349 121.33915219580675 #
point $-1 6.222204674061194 242.67830439161349 121.33915219580675 #
coedge $-1 $735 $735 $-1 $894 reversed $500 $-1 #
vertex $-1 $502 $895 #
ellipse-curve $-1 0 0 -0.24999999999999956 0 0 -1 0.5 0 0 1 I I #
point $-1 0.5 0 -1.3384731589709169 #
coedge $-1 $739 $739 $-1 $896 reversed $505 $-1 #
vertex $-1 $507 $897 #
ellipse-curve $-1 0 0 -0.24999999999999956 0 0 -1 0.5 0 0 1 I I #
point $-1 0.5 0 -1.3384731589709169 #
coedge $-1 $743 $743 $-1 $898 reversed $510 $-1 #
vertex $-1 $512 $899 #
ellipse-curve $-1 0 0 -0.24999999999999956 0 0 -1 0.5 0 0 1 I I #
point $-1 0.5 0 -1.3384731589709169 #
face $-1 $-1 $530 $72 $-1 $900 reversed single #
loop $-1 $-1 $763 $515 #
plane-surface $-1 0 242.67830439161349 0 0 -1 0 0 0 -1 forward_v I I I I #
coedge $-1 $901 $761 $764 $902 forward $516 $-1 #
coedge $-1 $767 $518 $519 $755 reversed $334 $-1 #
coedge $-1 $761 $901 $518 $753 reversed $516 $-1 #
edge $-1 $768 -121.33915219580675 $903 121.33915219580675 $752 $904 forward 7 unknown #
coedge $-1 $520 $519 $901 $905 forward $222 $-1 #
edge $-1 $759 -6.222204674061194 $903 6.222204674061194 $751 $906 forward 7 unknown #
coedge $-1 $764 $763 $520 $757 reversed $748 $-1 #
edge $-1 $907 -6.222204674061194 $758 6.222204674061194 $756 $908 forward 7 unknown #
vertex $-1 $522 $909 #
vertex $-1 $770 $910 #
straight-curve $-1 6.222204674061194 0 -121.33915219580675 0 -1 0 I I #
coedge $-1 $750 $752 $523 $762 reversed $516 $-1 #
edge $-1 $765 -242.67830439161349 $768 242.67830439161349 $761 $911 forward 7 unknown #
coedge $-1 $756 $524 $529 $771 forward $748 $-1 #
coedge $-1 $524 $756 $750 $902 reversed $748 $-1 #
vertex $-1 $525 $912 #
straight-curve $-1 0 242.67830439161349 121.33915219580675 -1 0 0 I I #
coedge $-1 $526 $751 $528 $770 reversed $334 $-1 #
vertex $-1 $762 $913 #
straight-curve $-1 0 -242.67830439161349 121.33915219580675 1 0 0 I I #
edge $-1 $531 -121.33915219580675 $759 121.33915219580675 $528 $914 forward 7 unknown #
edge $-1 $532 -121.33915219580675 $758 121.33915219580675 $529 $915 forward 7 unknown #
point $-1 6.222204674061194 -242.67830439161349 121.33915219580675 #
point $-1 6.222204674061194 242.67830439161349 121.33915219580675 #
coedge $-1 $774 $774 $-1 $916 reversed $534 $-1 #
vertex $-1 $536 $917 #
ellipse-curve $-1 0 0 -0.24999999999999956 0 0 -1 0.5 0 0 1 I I #
point $-1 0.5 0 -1.3384731589709169 #
coedge $-1 $778 $778 $-1 $918 reversed $539 $-1 #
vertex $-1 $541 $919 #
ellipse-curve $-1 0 0 -0.24999999999999956 0 0 -1 0.5 0 0 1 I I #
point $-1 0.5 0 -1.3384731589709169 #
coedge $-1 $782 $782 $-1 $920 reversed $544 $-1 #
vertex $-1 $546 $921 #
ellipse-curve $-1 0 0 -0.24999999999999956 0 0 -1 0.5 0 0 1 I I #
point $-1 0.5 0 -1.3384731589709169 #
plane-surface $-1 60.669576097903374 0 0 -1 0 0 0 0 1 forward_v I I I I #
coedge $-1 $554 $552 $556 $791 reversed $357 $-1 #
edge $-1 $567 -8.479487333241714 $793 8.479487333241714 $566 $922 forward 7 unknown #
vertex $-1 $791 $923 #
straight-curve $-1 -60.669576097903374 -38.725990138727923 0 0 0 -1 I I #
edge $-1 $789 -38.725990138727923 $793 38.725990138727923 $787 $924 forward 7 unknown #
straight-curve $-1 0 -38.725990138727923 -8.479487333241714 -1 0 0 I I #
vertex $-1 $559 $925 #
straight-curve $-1 0 38.725990138727923 -8.479487333241714 1 0 0 I I #
point $-1 60.669576097903374 38.725990138727923 -8.479487333241714 #
point $-1 60.669576097903374 -38.725990138727923 -8.479487333241714 #
straight-curve $-1 -60.669576097903374 0 8.479487333241714 0 -1 0 I I #
point $-1 -60.669576097903374 38.725990138727923 8.479487333241714 #
point $-1 -60.669576097903374 -38.725990138727923 8.479487333241714 #
straight-curve $-1 60.669576097903374 -38.725990138727923 0 0 0 -1 I I #
straight-curve $-1 60.669576097903374 38.725990138727923 0 0 0 -1 I I #
plane-surface $-1 4.152811259630413 0 0 -1 0 0 0 0 1 forward_v I I I I #
coedge $-1 $581 $579 $583 $807 reversed $376 $-1 #
edge $-1 $594 -8.479487333241714 $809 8.479487333241714 $593 $926 forward 7 unknown #
vertex $-1 $807 $927 #
straight-curve $-1 -4.152811259630413 -1.5 0 0 0 -1 I I #
edge $-1 $805 -1.5 $809 1.5 $803 $928 forward 7 unknown #
straight-curve $-1 0 -1.5 -8.479487333241714 -1 0 0 I I #
vertex $-1 $586 $929 #
straight-curve $-1 0 1.5 -8.479487333241714 1 0 0 I I #
point $-1 4.152811259630413 1.5 -8.479487333241714 #
point $-1 4.152811259630413 -1.5 -8.479487333241714 #
straight-curve $-1 -4.152811259630413 0 8.479487333241714 0 -1 0 I I #
point $-1 -4.152811259630413 1.5 8.479487333241714 #
point $-1 -4.152811259630413 -1.5 8.479487333241714 #
straight-curve $-1 4.152811259630413 -1.5 0 0 0 -1 I I #
straight-curve $-1 4.152811259630413 1.5 0 0 0 -1 I I #
plane-surface $-1 4.1528112596304112 0 0 -1 0 0 0 0 1 forward_v I I I I #
coedge $-1 $608 $606 $610 $823 reversed $395 $-1 #
edge $-1 $621 -8.479487333241714 $825 8.479487333241714 $620 $930 forward 7 unknown #
vertex $-1 $823 $931 #
straight-curve $-1 -4.1528112596304112 -1.5 0 0 0 -1 I I #
edge $-1 $821 -1.5 $825 1.5 $819 $932 forward 7 unknown #
straight-curve $-1 0 -1.5 -8.479487333241714 -1 0 0 I I #
vertex $-1 $613 $933 #
straight-curve $-1 0 1.5 -8.479487333241714 1 0 0 I I #
point $-1 4.1528112596304112 1.5 -8.479487333241714 #
point $-1 4.1528112596304112 -1.5 -8.479487333241714 #
straight-curve $-1 -4.1528112596304112 0 8.479487333241714 0 -1 0 I I #
point $-1 -4.1528112596304112 1.5 8.479487333241714 #
point $-1 -4.1528112596304112 -1.5 8.479487333241714 #
straight-curve $-1 4.1528112596304112 -1.5 0 0 0 -1 I I #
straight-curve $-1 4.1528112596304112 1.5 0 0 0 -1 I I #
plane-surface $-1 6.222204674061194 0 0 -1 0 0 0 0 1 forward_v I I I I #
coedge $-1 $635 $633 $637 $839 reversed $414 $-1 #
edge $-1 $648 -121.33915219580675 $841 121.33915219580675 $647 $934 forward 7 unknown #
vertex $-1 $839 $935 #
straight-curve $-1 -6.222204674061194 -242.67830439161349 0 0 0 -1 I I #
edge $-1 $837 -242.67830439161349 $841 242.67830439161349 $835 $936 forward 7 unknown #
straight-curve $-1 0 -242.67830439161349 -121.33915219580675 -1 0 0 I I #
vertex $-1 $640 $937 #
straight-curve $-1 0 242.67830439161349 -121.33915219580675 1 0 0 I I #
point $-1 6.222204674061194 242.67830439161349 -121.33915219580675 #
point $-1 6.222204674061194 -242.67830439161349 -121.33915219580675 #
straight-curve $-1 -6.222204674061194 0 121.33915219580675 0 -1 0 I I #
point $-1 -6.222204674061194 242.67830439161349 121.33915219580675 #
point $-1 -6.222204674061194 -242.67830439161349 121.33915219580675 #
straight-curve $-1 6.222204674061194 -242.67830439161349 0 0 0 -1 I I #
straight-curve $-1 6.222204674061194 242.67830439161349 0 0 0 -1 I I #
edge $-1 $938 1 $938 0 $657 $-1 forward 7 unknown #
point $-1 0.5 0 -0.24999999999999956 #
edge $-1 $939 1 $939 0 $661 $-1 forward 7 unknown #
point $-1 0.5 0 -0.24999999999999956 #
edge $-1 $940 1 $940 0 $665 $-1 forward 7 unknown #
point $-1 0.5 0 -0.24999999999999956 #
plane-surface $-1 6.222204674061194 0 0 -1 0 0 0 0 1 forward_v I I I I #
coedge $-1 $674 $672 $676 $861 reversed $448 $-1 #
edge $-1 $687 -121.33915219580675 $863 121.33915219580675 $686 $941 forward 7 unknown #
vertex $-1 $861 $942 #
straight-curve $-1 -6.222204674061194 -242.67830439161349 0 0 0 -1 I I #
edge $-1 $859 -242.67830439161349 $863 242.67830439161349 $857 $943 forward 7 unknown #
straight-curve $-1 0 -242.67830439161349 -121.33915219580675 -1 0 0 I I #
vertex $-1 $679 $944 #
straight-curve $-1 0 242.67830439161349 -121.33915219580675 1 0 0 I I #
point $-1 6.222204674061194 242.67830439161349 -121.33915219580675 #
point $-1 6.222204674061194 -242.67830439161349 -121.33915219580675 #
straight-curve $-1 -6.222204674061194 0 121.33915219580675 0 -1 0 I I #
point $-1 -6.222204674061194 242.67830439161349 121.33915219580675 #
point $-1 -6.222204674061194 -242.67830439161349 121.33915219580675 #
straight-curve $-1 6.222204674061194 -242.67830439161349 0 0 0 -1 I I #
straight-curve $-1 6.222204674061194 242.67830439161349 0 0 0 -1 I I #
edge $-1 $945 1 $945 0 $696 $-1 forward 7 unknown #
point $-1 0.5 0 -0.24999999999999956 #
edge $-1 $946 1 $946 0 $700 $-1 forward 7 unknown #
point $-1 0.5 0 -0.24999999999999956 #
edge $-1 $947 1 $947 0 $704 $-1 forward 7 unknown #
point $-1 0.5 0 -0.24999999999999956 #
plane-surface $-1 6.222204674061194 0 0 -1 0 0 0 0 1 forward_v I I I I #
coedge $-1 $713 $711 $715 $883 reversed $482 $-1 #
edge $-1 $726 -121.33915219580675 $885 121.33915219580675 $725 $948 forward 7 unknown #
vertex $-1 $883 $949 #
straight-curve $-1 -6.222204674061194 -242.67830439161349 0 0 0 -1 I I #
edge $-1 $881 -242.67830439161349 $885 242.67830439161349 $879 $950 forward 7 unknown #
straight-curve $-1 0 -242.67830439161349 -121.33915219580675 -1 0 0 I I #
vertex $-1 $718 $951 #
straight-curve $-1 0 242.67830439161349 -121.33915219580675 1 0 0 I I #
point $-1 6.222204674061194 242.67830439161349 -121.33915219580675 #
point $-1 6.222204674061194 -242.67830439161349 -121.33915219580675 #
straight-curve $-1 -6.222204674061194 0 121.33915219580675 0 -1 0 I I #
point $-1 -6.222204674061194 242.67830439161349 121.33915219580675 #
point $-1 -6.222204674061194 -242.67830439161349 121.33915219580675 #
straight-curve $-1 6.222204674061194 -242.67830439161349 0 0 0 -1 I I #
straight-curve $-1 6.222204674061194 242.67830439161349 0 0 0 -1 I I #
edge $-1 $952 1 $952 0 $735 $-1 forward 7 unknown #
point $-1 0.5 0 -0.24999999999999956 #
edge $-1 $953 1 $953 0 $739 $-1 forward 7 unknown #
point $-1 0.5 0 -0.24999999999999956 #
edge $-1 $954 1 $954 0 $743 $-1 forward 7 unknown #
point $-1 0.5 0 -0.24999999999999956 #
plane-surface $-1 6.222204674061194 0 0 -1 0 0 0 0 1 forward_v I I I I #
coedge $-1 $752 $750 $754 $905 reversed $516 $-1 #
edge $-1 $765 -121.33915219580675 $907 121.33915219580675 $764 $955 forward 7 unknown #
vertex $-1 $905 $956 #
straight-curve $-1 -6.222204674061194 -242.67830439161349 0 0 0 -1 I I #
edge $-1 $903 -242.67830439161349 $907 242.67830439161349 $901 $957 forward 7 unknown #
straight-curve $-1 0 -242.67830439161349 -121.33915219580675 -1 0 0 I I #
vertex $-1 $757 $958 #
straight-curve $-1 0 242.67830439161349 -121.33915219580675 1 0 0 I I #
point $-1 6.222204674061194 242.67830439161349 -121.33915219580675 #
point $-1 6.222204674061194 -242.67830439161349 -121.33915219580675 #
straight-curve $-1 -6.222204674061194 0 121.33915219580675 0 -1 0 I I #
point $-1 -6.222204674061194 242.67830439161349 121.33915219580675 #
point $-1 -6.222204674061194 -242.67830439161349 121.33915219580675 #
straight-curve $-1 6.222204674061194 -242.67830439161349 0 0 0 -1 I I #
straight-curve $-1 6.222204674061194 242.67830439161349 0 0 0 -1 I I #
edge $-1 $959 1 $959 0 $774 $-1 forward 7 unknown #
point $-1 0.5 0 -0.24999999999999956 #
edge $-1 $960 1 $960 0 $778 $-1 forward 7 unknown #
point $-1 0.5 0 -0.24999999999999956 #
edge $-1 $961 1 $961 0 $782 $-1 forward 7 unknown #
point $-1 0.5 0 -0.24999999999999956 #
straight-curve $-1 -60.669576097903374 38.725990138727923 0 0 0 -1 I I #
point $-1 -60.669576097903374 -38.725990138727923 -8.479487333241714 #
straight-curve $-1 -60.669576097903374 0 -8.479487333241714 0 1 0 I I #
point $-1 -60.669576097903374 38.725990138727923 -8.479487333241714 #
straight-curve $-1 -4.152811259630413 1.5 0 0 0 -1 I I #
point $-1 -4.152811259630413 -1.5 -8.479487333241714 #
straight-curve $-1 -4.152811259630413 0 -8.479487333241714 0 1 0 I I #
point $-1 -4.152811259630413 1.5 -8.479487333241714 #
straight-curve $-1 -4.1528112596304112 1.5 0 0 0 -1 I I #
point $-1 -4.1528112596304112 -1.5 -8.479487333241714 #
straight-curve $-1 -4.1528112596304112 0 -8.479487333241714 0 1 0 I I #
point $-1 -4.1528112596304112 1.5 -8.479487333241714 #
straight-curve $-1 -6.222204674061194 242.67830439161349 0 0 0 -1 I I #
point $-1 -6.222204674061194 -242.67830439161349 -121.33915219580675 #
straight-curve $-1 -6.222204674061194 0 -121.33915219580675 0 1 0 I I #
point $-1 -6.222204674061194 242.67830439161349 -121.33915219580675 #
vertex $-1 $850 $962 #
vertex $-1 $852 $963 #
vertex $-1 $854 $964 #
straight-curve $-1 -6.222204674061194 242.67830439161349 0 0 0 -1 I I #
point $-1 -6.222204674061194 -242.67830439161349 -121.33915219580675 #
straight-curve $-1 -6.222204674061194 0 -121.33915219580675 0 1 0 I I #
point $-1 -6.222204674061194 242.67830439161349 -121.33915219580675 #
vertex $-1 $872 $965 #
vertex $-1 $874 $966 #
vertex $-1 $876 $967 #
straight-curve $-1 -6.222204674061194 242.67830439161349 0 0 0 -1 I I #
point $-1 -6.222204674061194 -242.67830439161349 -121.33915219580675 #
straight-curve $-1 -6.222204674061194 0 -121.33915219580675 0 1 0 I I #
point $-1 -6.222204674061194 242.67830439161349 -121.33915219580675 #
vertex $-1 $894 $968 #
vertex $-1 $896 $969 #
vertex $-1 $898 $970 #
straight-curve $-1 -6.222204674061194 242.67830439161349 0 0 0 -1 I I #
point $-1 -6.222204674061194 -242.67830439161349 -121.33915219580675 #
straight-curve $-1 -6.222204674061194 0 -121.33915219580675 0 1 0 I I #
point $-1 -6.222204674061194 242.67830439161349 -121.33915219580675 #
vertex $-1 $916 $971 #
vertex $-1 $918 $972 #
vertex $-1 $920 $973 #
point $-1 0 0 0.24999999999999956 #
point $-1 0 0 0.24999999999999956 #
point $-1 0 0 0.24999999999999956 #
point $-1 0 0 0.24999999999999956 #
point $-1 0 0 0.24999999999999956 #
point $-1 0 0 0.24999999999999956 #
point $-1 0 0 0.24999999999999956 #
point $-1 0 0 0.24999999999999956 #
point $-1 0 0 0.24999999999999956 #
point $-1 0 0 0.24999999999999956 #
point $-1 0 0 0.24999999999999956 #
point $-1 0 0 0.24999999999999956 #
End-of-ACIS-data 