500 0 18 0           
7 Unknown 11 ACIS 5.0 NT 24 Fri Mar 26 14:45:12 1999 
-1 9.9999999999999995e-007 1e-010 
body $-1 $18 $-1 $19 #
body $-1 $20 $-1 $21 #
body $-1 $22 $-1 $23 #
body $-1 $24 $-1 $25 #
body $-1 $26 $-1 $27 #
body $-1 $28 $-1 $29 #
body $-1 $30 $-1 $31 #
body $-1 $32 $-1 $33 #
body $-1 $34 $-1 $35 #
body $-1 $36 $-1 $37 #
body $-1 $38 $-1 $39 #
body $-1 $40 $-1 $41 #
body $-1 $42 $-1 $43 #
body $-1 $44 $-1 $45 #
body $-1 $46 $-1 $47 #
body $-1 $48 $-1 $49 #
body $-1 $50 $-1 $51 #
body $-1 $52 $-1 $53 #
lump $-1 $-1 $54 $0 #
transform $-1 1 0 0 0 1 0 0 0 1 66.028626361888485 40.487898478681963 18.619218940271217 1 rotate no_reflect no_shear #
lump $-1 $-1 $55 $1 #
transform $-1 1 0 0 0 1 0 0 0 1 66.028626361888485 40.487898478681963 18.619218940271217 1 rotate no_reflect no_shear #
lump $-1 $-1 $56 $2 #
transform $-1 1 0 0 0 1 0 0 0 1 66.028626361888485 40.487898478681963 18.619218940271217 1 rotate no_reflect no_shear #
lump $-1 $-1 $57 $3 #
transform $-1 1 0 0 0 1 0 0 0 1 66.028626361888485 40.487898478681963 18.619218940271217 1 rotate no_reflect no_shear #
lump $-1 $-1 $58 $4 #
transform $-1 1 0 0 0 1 0 0 0 1 66.028626361888485 40.487898478681963 18.619218940271217 1 rotate no_reflect no_shear #
lump $-1 $-1 $59 $5 #
transform $-1 1 0 0 0 1 0 0 0 1 66.028626361888485 40.487898478681963 18.619218940271217 1 rotate no_reflect no_shear #
lump $-1 $-1 $60 $6 #
transform $-1 1 0 0 0 1 0 0 0 1 66.028626361888485 40.487898478681963 18.619218940271217 1 rotate no_reflect no_shear #
lump $-1 $-1 $61 $7 #
transform $-1 1 0 0 0 1 0 0 0 1 66.028626361888485 40.487898478681963 18.619218940271217 1 rotate no_reflect no_shear #
lump $-1 $-1 $62 $8 #
transform $-1 1 0 0 0 1 0 0 0 1 66.028626361888485 40.487898478681963 18.619218940271217 1 rotate no_reflect no_shear #
lump $-1 $-1 $63 $9 #
transform $-1 1 0 0 0 1 0 0 0 1 66.028626361888485 40.487898478681963 18.619218940271217 1 rotate no_reflect no_shear #
lump $-1 $-1 $64 $10 #
transform $-1 1 0 0 0 1 0 0 0 1 66.028626361888485 40.487898478681963 18.619218940271217 1 rotate no_reflect no_shear #
lump $-1 $-1 $65 $11 #
transform $-1 1 0 0 0 1 0 0 0 1 66.028626361888485 40.487898478681963 18.619218940271217 1 rotate no_reflect no_shear #
lump $-1 $-1 $66 $12 #
transform $-1 1 0 0 0 1 0 0 0 1 66.028626361888485 40.487898478681963 18.619218940271217 1 rotate no_reflect no_shear #
lump $-1 $-1 $67 $13 #
transform $-1 1 0 0 0 1 0 0 0 1 66.028626361888485 40.487898478681963 18.619218940271217 1 rotate no_reflect no_shear #
lump $-1 $-1 $68 $14 #
transform $-1 1 0 0 0 1 0 0 0 1 66.028626361888485 40.487898478681963 18.619218940271217 1 rotate no_reflect no_shear #
lump $-1 $-1 $69 $15 #
transform $-1 1 0 0 0 1 0 0 0 1 66.028626361888485 40.487898478681963 18.619218940271217 1 rotate no_reflect no_shear #
lump $-1 $-1 $70 $16 #
transform $-1 1 0 0 0 1 0 0 0 1 66.028626361888485 40.487898478681963 18.619218940271217 1 rotate no_reflect no_shear #
lump $-1 $-1 $71 $17 #
transform $-1 1 0 0 0 1 0 0 0 1 66.028626361888485 40.487898478681963 18.619218940271217 1 rotate no_reflect no_shear #
shell $-1 $-1 $-1 $72 $-1 $18 #
shell $-1 $-1 $-1 $73 $-1 $20 #
shell $-1 $-1 $-1 $74 $-1 $22 #
shell $-1 $-1 $-1 $75 $-1 $24 #
shell $-1 $-1 $-1 $76 $-1 $26 #
shell $-1 $-1 $-1 $77 $-1 $28 #
shell $-1 $-1 $-1 $78 $-1 $30 #
shell $-1 $-1 $-1 $79 $-1 $32 #
shell $-1 $-1 $-1 $80 $-1 $34 #
shell $-1 $-1 $-1 $81 $-1 $36 #
shell $-1 $-1 $-1 $82 $-1 $38 #
shell $-1 $-1 $-1 $83 $-1 $40 #
shell $-1 $-1 $-1 $84 $-1 $42 #
shell $-1 $-1 $-1 $85 $-1 $44 #
shell $-1 $-1 $-1 $86 $-1 $46 #
shell $-1 $-1 $-1 $87 $-1 $48 #
shell $-1 $-1 $-1 $88 $-1 $50 #
shell $-1 $-1 $-1 $89 $-1 $52 #
face $-1 $90 $91 $54 $-1 $92 reversed single #
face $-1 $93 $94 $55 $-1 $95 forward single #
face $-1 $96 $97 $56 $-1 $98 reversed single #
face $-1 $99 $100 $57 $-1 $101 forward single #
face $-1 $102 $103 $58 $-1 $104 forward single #
face $-1 $105 $106 $59 $-1 $107 forward single #
face $-1 $108 $109 $60 $-1 $110 reversed single #
face $-1 $111 $112 $61 $-1 $113 forward single #
face $-1 $114 $115 $62 $-1 $116 forward single #
face $-1 $117 $118 $63 $-1 $119 forward single #
face $-1 $120 $121 $64 $-1 $122 reversed single #
face $-1 $123 $124 $65 $-1 $125 forward single #
face $-1 $126 $127 $66 $-1 $128 forward single #
face $-1 $129 $130 $67 $-1 $131 forward single #
face $-1 $132 $133 $68 $-1 $134 reversed single #
face $-1 $135 $136 $69 $-1 $137 forward single #
face $-1 $138 $139 $70 $-1 $140 forward single #
face $-1 $141 $142 $71 $-1 $143 forward single #
face $-1 $144 $145 $54 $-1 $146 forward single #
loop $-1 $-1 $147 $72 #
plane-surface $-1 0 -40.487898478681963 0 0 1 0 0 0 1 forward_v I I I I #
face $-1 $148 $149 $55 $-1 $150 reversed single #
loop $-1 $-1 $151 $73 #
plane-surface $-1 0 -40.487898478681963 0 0 1 0 0 0 1 forward_v I I I I #
face $-1 $152 $153 $56 $-1 $154 reversed single #
loop $-1 $-1 $155 $74 #
plane-surface $-1 104.85762549954819 -4.1154024251445147 185.92937405716097 0 -1 0 -0.83867057594974714 0 -0.54463902268945019 forward_v I I I I #
face $-1 $156 $157 $57 $-1 $158 forward single #
loop $-1 $159 $160 $75 #
cone-surface $-1 60.61992187189815 -10.442987468971172 10.663944356009901 -0.83867057594974714 0 -0.54463902268945019 0.2723195113447251 0 -0.41933528797487357 1 I I 0 1 0.5 forward I I I I #
face $-1 $161 $162 $58 $-1 $163 forward single #
loop $-1 $164 $165 $76 #
cone-surface $-1 60.61992187189815 -8.07014307753618 10.663944356009901 -0.83867057594974714 0 -0.54463902268945019 0.2723195113447251 0 -0.41933528797487357 1 I I 0 1 0.5 forward I I I I #
face $-1 $166 $167 $59 $-1 $168 forward single #
loop $-1 $169 $170 $77 #
cone-surface $-1 60.61992187189815 -5.6972986861011847 10.663944356009901 -0.83867057594974714 0 -0.54463902268945019 0.2723195113447251 0 -0.41933528797487357 1 I I 0 1 0.5 forward I I I I #
face $-1 $171 $172 $60 $-1 $173 reversed single #
loop $-1 $-1 $174 $78 #
plane-surface $-1 104.85762549954819 10.752364542797645 185.92937405716097 0 -1 0 -0.83867057594974714 0 -0.54463902268945019 forward_v I I I I #
face $-1 $175 $176 $61 $-1 $177 forward single #
loop $-1 $178 $179 $79 #
cone-surface $-1 60.61992187189815 4.4247794989709845 10.663944356009901 -0.83867057594974714 0 -0.54463902268945019 0.2723195113447251 0 -0.41933528797487357 1 I I 0 1 0.5 forward I I I I #
face $-1 $180 $181 $62 $-1 $182 forward single #
loop $-1 $183 $184 $80 #
cone-surface $-1 60.61992187189815 6.7976238904059798 10.663944356009901 -0.83867057594974714 0 -0.54463902268945019 0.2723195113447251 0 -0.41933528797487357 1 I I 0 1 0.5 forward I I I I #
face $-1 $185 $186 $63 $-1 $187 forward single #
loop $-1 $188 $189 $81 #
cone-surface $-1 60.61992187189815 9.1704682818409751 10.663944356009901 -0.83867057594974714 0 -0.54463902268945019 0.2723195113447251 0 -0.41933528797487357 1 I I 0 1 0.5 forward I I I I #
face $-1 $190 $191 $64 $-1 $192 reversed single #
loop $-1 $-1 $193 $82 #
plane-surface $-1 104.85762549954819 25.620131510739803 185.92937405716097 0 -1 0 -0.83867057594974714 0 -0.54463902268945019 forward_v I I I I #
face $-1 $194 $195 $65 $-1 $196 forward single #
loop $-1 $197 $198 $83 #
cone-surface $-1 60.61992187189815 19.292546466913144 10.663944356009901 -0.83867057594974714 0 -0.54463902268945019 0.2723195113447251 0 -0.41933528797487357 1 I I 0 1 0.5 forward I I I I #
face $-1 $199 $200 $66 $-1 $201 forward single #
loop $-1 $202 $203 $84 #
cone-surface $-1 60.61992187189815 21.66539085834814 10.663944356009901 -0.83867057594974714 0 -0.54463902268945019 0.2723195113447251 0 -0.41933528797487357 1 I I 0 1 0.5 forward I I I I #
face $-1 $204 $205 $67 $-1 $206 forward single #
loop $-1 $207 $208 $85 #
cone-surface $-1 60.61992187189815 24.038235249783135 10.663944356009901 -0.83867057594974714 0 -0.54463902268945019 0.2723195113447251 0 -0.41933528797487357 1 I I 0 1 0.5 forward I I I I #
face $-1 $209 $210 $68 $-1 $211 reversed single #
loop $-1 $-1 $212 $86 #
plane-surface $-1 104.85762549954819 32.578417173898643 185.92937405716097 0 1 0 0.83867057594974714 0 0.54463902268945019 forward_v I I I I #
face $-1 $213 $214 $69 $-1 $215 forward single #
loop $-1 $216 $217 $87 #
cone-surface $-1 60.61992187189815 34.160313434855304 10.663944356009901 -0.83867057594974714 0 -0.54463902268945019 0.2723195113447251 0 -0.41933528797487357 1 I I 0 1 0.5 forward I I I I #
face $-1 $218 $219 $70 $-1 $220 forward single #
loop $-1 $221 $222 $88 #
cone-surface $-1 60.61992187189815 36.533157826290299 10.663944356009901 -0.83867057594974714 0 -0.54463902268945019 0.2723195113447251 0 -0.41933528797487357 1 I I 0 1 0.5 forward I I I I #
face $-1 $223 $224 $71 $-1 $225 forward single #
loop $-1 $226 $227 $89 #
cone-surface $-1 60.61992187189815 38.906002217725295 10.663944356009901 -0.83867057594974714 0 -0.54463902268945019 0.2723195113447251 0 -0.41933528797487357 1 I I 0 1 0.5 forward I I I I #
face $-1 $228 $229 $54 $-1 $230 reversed single #
loop $-1 $-1 $231 $90 #
plane-surface $-1 0 0 18.619218940271217 0 0 1 1 0 0 forward_v I I I I #
coedge $-1 $232 $233 $234 $235 reversed $91 $-1 #
face $-1 $236 $237 $55 $-1 $238 reversed single #
loop $-1 $-1 $239 $93 #
plane-surface $-1 0 0 -18.619218940271217 0 0 1 1 0 0 forward_v I I I I #
coedge $-1 $240 $241 $242 $243 forward $94 $-1 #
face $-1 $244 $245 $56 $-1 $246 reversed single #
loop $-1 $-1 $247 $96 #
plane-surface $-1 -5.8949067006431477 -8.0701430775361729 114.00584099462935 0.83867057594974714 0 0.54463902268945019 0.54463902268945019 0 -0.83867057594974714 forward_v I I I I #
coedge $-1 $248 $249 $250 $251 reversed $97 $-1 #
face $-1 $-1 $252 $57 $-1 $253 forward single #
loop $-1 $254 $255 $99 #
cone-surface $-1 59.990918939935838 -10.442987468971172 10.255465088992814 -0.83867057594974714 0 -0.54463902268945019 0.13615975567236255 0 -0.20966764398743679 1 I I -0.70710678118654746 0.70710678118654746 0.25 forward I I I I #
loop $-1 $-1 $256 $75 #
coedge $-1 $160 $160 $257 $258 reversed $100 $-1 #
face $-1 $-1 $259 $58 $-1 $260 forward single #
loop $-1 $261 $262 $102 #
cone-surface $-1 59.990918939935838 -8.07014307753618 10.255465088992814 -0.83867057594974714 0 -0.54463902268945019 0.13615975567236255 0 -0.20966764398743679 1 I I -0.70710678118654746 0.70710678118654746 0.25 forward I I I I #
loop $-1 $-1 $263 $76 #
coedge $-1 $165 $165 $264 $265 reversed $103 $-1 #
face $-1 $-1 $266 $59 $-1 $267 forward single #
loop $-1 $268 $269 $105 #
cone-surface $-1 59.990918939935838 -5.6972986861011847 10.255465088992814 -0.83867057594974714 0 -0.54463902268945019 0.13615975567236255 0 -0.20966764398743679 1 I I -0.70710678118654746 0.70710678118654746 0.25 forward I I I I #
loop $-1 $-1 $270 $77 #
coedge $-1 $170 $170 $271 $272 reversed $106 $-1 #
face $-1 $273 $274 $60 $-1 $275 reversed single #
loop $-1 $-1 $276 $108 #
plane-surface $-1 -5.8949067006431477 6.7976238904059869 114.00584099462935 0.83867057594974714 0 0.54463902268945019 0.54463902268945019 0 -0.83867057594974714 forward_v I I I I #
coedge $-1 $277 $278 $279 $280 reversed $109 $-1 #
face $-1 $-1 $281 $61 $-1 $282 forward single #
loop $-1 $283 $284 $111 #
cone-surface $-1 59.990918939935838 4.4247794989709845 10.255465088992814 -0.83867057594974714 0 -0.54463902268945019 0.13615975567236255 0 -0.20966764398743679 1 I I -0.70710678118654746 0.70710678118654746 0.25 forward I I I I #
loop $-1 $-1 $285 $79 #
coedge $-1 $179 $179 $286 $287 reversed $112 $-1 #
face $-1 $-1 $288 $62 $-1 $289 forward single #
loop $-1 $290 $291 $114 #
cone-surface $-1 59.990918939935838 6.7976238904059798 10.255465088992814 -0.83867057594974714 0 -0.54463902268945019 0.13615975567236255 0 -0.20966764398743679 1 I I -0.70710678118654746 0.70710678118654746 0.25 forward I I I I #
loop $-1 $-1 $292 $80 #
coedge $-1 $184 $184 $293 $294 reversed $115 $-1 #
face $-1 $-1 $295 $63 $-1 $296 forward single #
loop $-1 $297 $298 $117 #
cone-surface $-1 59.990918939935838 9.1704682818409751 10.255465088992814 -0.83867057594974714 0 -0.54463902268945019 0.13615975567236255 0 -0.20966764398743679 1 I I -0.70710678118654746 0.70710678118654746 0.25 forward I I I I #
loop $-1 $-1 $299 $81 #
coedge $-1 $189 $189 $300 $301 reversed $118 $-1 #
face $-1 $302 $303 $64 $-1 $304 reversed single #
loop $-1 $-1 $305 $120 #
plane-surface $-1 -5.8949067006431477 21.665390858348147 114.00584099462935 0.83867057594974714 0 0.54463902268945019 0.54463902268945019 0 -0.83867057594974714 forward_v I I I I #
coedge $-1 $306 $307 $308 $309 reversed $121 $-1 #
face $-1 $-1 $310 $65 $-1 $311 forward single #
loop $-1 $312 $313 $123 #
cone-surface $-1 59.990918939935838 19.292546466913144 10.255465088992814 -0.83867057594974714 0 -0.54463902268945019 0.13615975567236255 0 -0.20966764398743679 1 I I -0.70710678118654746 0.70710678118654746 0.25 forward I I I I #
loop $-1 $-1 $314 $83 #
coedge $-1 $198 $198 $315 $316 reversed $124 $-1 #
face $-1 $-1 $317 $66 $-1 $318 forward single #
loop $-1 $319 $320 $126 #
cone-surface $-1 59.990918939935838 21.66539085834814 10.255465088992814 -0.83867057594974714 0 -0.54463902268945019 0.13615975567236255 0 -0.20966764398743679 1 I I -0.70710678118654746 0.70710678118654746 0.25 forward I I I I #
loop $-1 $-1 $321 $84 #
coedge $-1 $203 $203 $322 $323 reversed $127 $-1 #
face $-1 $-1 $324 $67 $-1 $325 forward single #
loop $-1 $326 $327 $129 #
cone-surface $-1 59.990918939935838 24.038235249783135 10.255465088992814 -0.83867057594974714 0 -0.54463902268945019 0.13615975567236255 0 -0.20966764398743679 1 I I -0.70710678118654746 0.70710678118654746 0.25 forward I I I I #
loop $-1 $-1 $328 $85 #
coedge $-1 $208 $208 $329 $330 reversed $130 $-1 #
face $-1 $331 $332 $68 $-1 $333 reversed single #
loop $-1 $-1 $334 $132 #
plane-surface $-1 -5.8949067006431477 36.533157826290299 114.00584099462935 0.83867057594974714 0 0.54463902268945019 0.54463902268945019 0 -0.83867057594974714 forward_v I I I I #
coedge $-1 $335 $336 $337 $338 reversed $133 $-1 #
face $-1 $-1 $339 $69 $-1 $340 forward single #
loop $-1 $341 $342 $135 #
cone-surface $-1 59.990918939935838 34.160313434855304 10.255465088992814 -0.83867057594974714 0 -0.54463902268945019 0.13615975567236255 0 -0.20966764398743679 1 I I -0.70710678118654746 0.70710678118654746 0.25 forward I I I I #
loop $-1 $-1 $343 $87 #
coedge $-1 $217 $217 $344 $345 reversed $136 $-1 #
face $-1 $-1 $346 $70 $-1 $347 forward single #
loop $-1 $348 $349 $138 #
cone-surface $-1 59.990918939935838 36.533157826290299 10.255465088992814 -0.83867057594974714 0 -0.54463902268945019 0.13615975567236255 0 -0.20966764398743679 1 I I -0.70710678118654746 0.70710678118654746 0.25 forward I I I I #
loop $-1 $-1 $350 $88 #
coedge $-1 $222 $222 $351 $352 reversed $139 $-1 #
face $-1 $-1 $353 $71 $-1 $354 forward single #
loop $-1 $355 $356 $141 #
cone-surface $-1 59.990918939935838 38.906002217725295 10.255465088992814 -0.83867057594974714 0 -0.54463902268945019 0.13615975567236255 0 -0.20966764398743679 1 I I -0.70710678118654746 0.70710678118654746 0.25 forward I I I I #
loop $-1 $-1 $357 $89 #
coedge $-1 $227 $227 $358 $359 reversed $142 $-1 #
face $-1 $360 $361 $54 $-1 $362 reversed single #
loop $-1 $-1 $363 $144 #
plane-surface $-1 0 0 -18.619218940271217 0 0 1 1 0 0 forward_v I I I I #
coedge $-1 $364 $365 $366 $367 forward $145 $-1 #
coedge $-1 $368 $147 $369 $370 reversed $91 $-1 #
coedge $-1 $147 $368 $371 $372 forward $91 $-1 #
coedge $-1 $373 $363 $147 $235 forward $229 $-1 #
edge $-1 $374 -66.028626361888485 $375 66.028626361888485 $147 $376 forward 7 unknown #
face $-1 $377 $378 $55 $-1 $379 reversed single #
loop $-1 $-1 $380 $148 #
plane-surface $-1 -63.576355769124731 -61.99262756427725 0 0 1 0 0 0 1 forward_v I I I I #
coedge $-1 $381 $382 $241 $383 forward $149 $-1 #
coedge $-1 $384 $151 $385 $386 reversed $94 $-1 #
coedge $-1 $151 $384 $239 $383 reversed $94 $-1 #
coedge $-1 $387 $388 $151 $243 reversed $378 $-1 #
edge $-1 $389 -18.619218940271217 $390 18.619218940271217 $242 $391 forward 7 unknown #
face $-1 $392 $393 $56 $-1 $394 forward single #
loop $-1 $-1 $395 $152 #
plane-surface $-1 104.85762549954819 -12.024883729927831 185.92937405716097 0 1 0 0.83867057594974714 0 0.54463902268945019 forward_v I I I I #
coedge $-1 $396 $397 $398 $399 reversed $153 $-1 #
coedge $-1 $249 $155 $400 $401 reversed $97 $-1 #
coedge $-1 $155 $248 $396 $402 reversed $97 $-1 #
coedge $-1 $398 $403 $155 $251 forward $393 $-1 #
edge $-1 $404 -13.599813612114389 $405 -3.6210752080834112 $250 $406 forward 7 unknown #
loop $-1 $-1 $257 $156 #
plane-surface $-1 -5.8949067006431477 -8.0701430775361729 114.00584099462935 0.83867057594974714 0 0.54463902268945019 0.54463902268945019 0 -0.83867057594974714 forward_v I I I I #
loop $-1 $-1 $407 $99 #
coedge $-1 $255 $255 $256 $408 reversed $157 $-1 #
coedge $-1 $256 $256 $255 $408 forward $159 $-1 #
coedge $-1 $257 $257 $160 $258 forward $252 $-1 #
edge $-1 $409 0 $409 6.2831853071796004 $257 $410 forward 7 unknown #
loop $-1 $-1 $264 $161 #
plane-surface $-1 -5.8949067006431477 -8.0701430775361729 114.00584099462935 0.83867057594974714 0 0.54463902268945019 0.54463902268945019 0 -0.83867057594974714 forward_v I I I I #
loop $-1 $-1 $411 $102 #
coedge $-1 $262 $262 $263 $412 reversed $162 $-1 #
coedge $-1 $263 $263 $262 $412 forward $164 $-1 #
coedge $-1 $264 $264 $165 $265 forward $259 $-1 #
edge $-1 $413 0 $413 6.2831853071796004 $264 $414 forward 7 unknown #
loop $-1 $-1 $271 $166 #
plane-surface $-1 -5.8949067006431477 -8.0701430775361729 114.00584099462935 0.83867057594974714 0 0.54463902268945019 0.54463902268945019 0 -0.83867057594974714 forward_v I I I I #
loop $-1 $-1 $415 $105 #
coedge $-1 $269 $269 $270 $416 reversed $167 $-1 #
coedge $-1 $270 $270 $269 $416 forward $169 $-1 #
coedge $-1 $271 $271 $170 $272 forward $266 $-1 #
edge $-1 $417 0 $417 6.2831853071796004 $271 $418 forward 7 unknown #
face $-1 $419 $420 $60 $-1 $421 reversed single #
loop $-1 $-1 $422 $171 #
plane-surface $-1 104.85762549954819 2.8428832380143287 185.92937405716097 0 1 0 0.83867057594974714 0 0.54463902268945019 forward_v I I I I #
coedge $-1 $423 $424 $425 $426 reversed $172 $-1 #
coedge $-1 $278 $174 $427 $428 reversed $109 $-1 #
coedge $-1 $174 $277 $423 $429 reversed $109 $-1 #
coedge $-1 $425 $430 $174 $280 forward $431 $-1 #
edge $-1 $432 -13.599813612114389 $433 -3.6210752080834112 $279 $434 forward 7 unknown #
loop $-1 $-1 $286 $175 #
plane-surface $-1 -5.8949067006431477 6.7976238904059869 114.00584099462935 0.83867057594974714 0 0.54463902268945019 0.54463902268945019 0 -0.83867057594974714 forward_v I I I I #
loop $-1 $-1 $435 $111 #
coedge $-1 $284 $284 $285 $436 reversed $176 $-1 #
coedge $-1 $285 $285 $284 $436 forward $178 $-1 #
coedge $-1 $286 $286 $179 $287 forward $281 $-1 #
edge $-1 $437 0 $437 6.2831853071796004 $286 $438 forward 7 unknown #
loop $-1 $-1 $293 $180 #
plane-surface $-1 -5.8949067006431477 6.7976238904059869 114.00584099462935 0.83867057594974714 0 0.54463902268945019 0.54463902268945019 0 -0.83867057594974714 forward_v I I I I #
loop $-1 $-1 $439 $114 #
coedge $-1 $291 $291 $292 $440 reversed $181 $-1 #
coedge $-1 $292 $292 $291 $440 forward $183 $-1 #
coedge $-1 $293 $293 $184 $294 forward $288 $-1 #
edge $-1 $441 0 $441 6.2831853071796004 $293 $442 forward 7 unknown #
loop $-1 $-1 $300 $185 #
plane-surface $-1 -5.8949067006431477 6.7976238904059869 114.00584099462935 0.83867057594974714 0 0.54463902268945019 0.54463902268945019 0 -0.83867057594974714 forward_v I I I I #
loop $-1 $-1 $443 $117 #
coedge $-1 $298 $298 $299 $444 reversed $186 $-1 #
coedge $-1 $299 $299 $298 $444 forward $188 $-1 #
coedge $-1 $300 $300 $189 $301 forward $295 $-1 #
edge $-1 $445 0 $445 6.2831853071796004 $300 $446 forward 7 unknown #
face $-1 $447 $448 $64 $-1 $449 reversed single #
loop $-1 $-1 $450 $190 #
plane-surface $-1 104.85762549954819 17.71065020595649 185.92937405716097 0 1 0 0.83867057594974714 0 0.54463902268945019 forward_v I I I I #
coedge $-1 $451 $452 $453 $454 reversed $191 $-1 #
coedge $-1 $307 $193 $455 $456 reversed $121 $-1 #
coedge $-1 $193 $306 $451 $457 reversed $121 $-1 #
coedge $-1 $453 $458 $193 $309 forward $459 $-1 #
edge $-1 $460 -13.599813612114389 $461 -3.6210752080834112 $308 $462 forward 7 unknown #
loop $-1 $-1 $315 $194 #
plane-surface $-1 -5.8949067006431477 21.665390858348147 114.00584099462935 0.83867057594974714 0 0.54463902268945019 0.54463902268945019 0 -0.83867057594974714 forward_v I I I I #
loop $-1 $-1 $463 $123 #
coedge $-1 $313 $313 $314 $464 reversed $195 $-1 #
coedge $-1 $314 $314 $313 $464 forward $197 $-1 #
coedge $-1 $315 $315 $198 $316 forward $310 $-1 #
edge $-1 $465 0 $465 6.2831853071796004 $315 $466 forward 7 unknown #
loop $-1 $-1 $322 $199 #
plane-surface $-1 -5.8949067006431477 21.665390858348147 114.00584099462935 0.83867057594974714 0 0.54463902268945019 0.54463902268945019 0 -0.83867057594974714 forward_v I I I I #
loop $-1 $-1 $467 $126 #
coedge $-1 $320 $320 $321 $468 reversed $200 $-1 #
coedge $-1 $321 $321 $320 $468 forward $202 $-1 #
coedge $-1 $322 $322 $203 $323 forward $317 $-1 #
edge $-1 $469 0 $469 6.2831853071796004 $322 $470 forward 7 unknown #
loop $-1 $-1 $329 $204 #
plane-surface $-1 -5.8949067006431477 21.665390858348147 114.00584099462935 0.83867057594974714 0 0.54463902268945019 0.54463902268945019 0 -0.83867057594974714 forward_v I I I I #
loop $-1 $-1 $471 $129 #
coedge $-1 $327 $327 $328 $472 reversed $205 $-1 #
coedge $-1 $328 $328 $327 $472 forward $207 $-1 #
coedge $-1 $329 $329 $208 $330 forward $324 $-1 #
edge $-1 $473 0 $473 6.2831853071796004 $329 $474 forward 7 unknown #
face $-1 $475 $476 $68 $-1 $477 reversed single #
loop $-1 $-1 $337 $209 #
plane-surface $-1 66.028626361888485 0 0 -1 0 0 0 0 1 forward_v I I I I #
coedge $-1 $478 $479 $480 $481 reversed $210 $-1 #
coedge $-1 $336 $212 $482 $483 reversed $133 $-1 #
coedge $-1 $212 $335 $478 $484 reversed $133 $-1 #
coedge $-1 $480 $485 $212 $338 forward $332 $-1 #
edge $-1 $486 74.345468088309275 $487 89.711378234142501 $337 $488 forward 7 unknown #
loop $-1 $-1 $344 $213 #
plane-surface $-1 -5.8949067006431477 36.533157826290299 114.00584099462935 0.83867057594974714 0 0.54463902268945019 0.54463902268945019 0 -0.83867057594974714 forward_v I I I I #
loop $-1 $-1 $489 $135 #
coedge $-1 $342 $342 $343 $490 reversed $214 $-1 #
coedge $-1 $343 $343 $342 $490 forward $216 $-1 #
coedge $-1 $344 $344 $217 $345 forward $339 $-1 #
edge $-1 $491 0 $491 6.2831853071796004 $344 $492 forward 7 unknown #
loop $-1 $-1 $351 $218 #
plane-surface $-1 -5.8949067006431477 36.533157826290299 114.00584099462935 0.83867057594974714 0 0.54463902268945019 0.54463902268945019 0 -0.83867057594974714 forward_v I I I I #
loop $-1 $-1 $493 $138 #
coedge $-1 $349 $349 $350 $494 reversed $219 $-1 #
coedge $-1 $350 $350 $349 $494 forward $221 $-1 #
coedge $-1 $351 $351 $222 $352 forward $346 $-1 #
edge $-1 $495 0 $495 6.2831853071796004 $351 $496 forward 7 unknown #
loop $-1 $-1 $358 $223 #
plane-surface $-1 -5.8949067006431477 36.533157826290299 114.00584099462935 0.83867057594974714 0 0.54463902268945019 0.54463902268945019 0 -0.83867057594974714 forward_v I I I I #
loop $-1 $-1 $497 $141 #
coedge $-1 $356 $356 $357 $498 reversed $224 $-1 #
coedge $-1 $357 $357 $356 $498 forward $226 $-1 #
coedge $-1 $358 $358 $227 $359 forward $353 $-1 #
edge $-1 $499 0 $499 6.2831853071796004 $358 $500 forward 7 unknown #
face $-1 $501 $502 $54 $-1 $503 reversed single #
loop $-1 $-1 $504 $228 #
plane-surface $-1 -66.028626361888485 0 0 1 0 0 0 0 -1 forward_v I I I I #
coedge $-1 $234 $505 $506 $507 forward $229 $-1 #
coedge $-1 $508 $231 $509 $510 forward $145 $-1 #
coedge $-1 $231 $508 $368 $511 forward $145 $-1 #
coedge $-1 $369 $512 $231 $367 reversed $513 $-1 #
edge $-1 $514 -40.487898478681963 $515 40.487898478681963 $366 $516 forward 7 unknown #
coedge $-1 $233 $232 $365 $511 reversed $91 $-1 #
coedge $-1 $506 $366 $232 $370 forward $513 $-1 #
edge $-1 $514 -18.619218940271217 $374 18.619218940271217 $369 $517 forward 7 unknown #
coedge $-1 $518 $519 $233 $372 reversed $361 $-1 #
edge $-1 $520 -18.619218940271217 $375 18.619218940271217 $371 $521 forward 7 unknown #
coedge $-1 $505 $234 $519 $522 forward $229 $-1 #
vertex $-1 $370 $523 #
vertex $-1 $522 $524 #
straight-curve $-1 0 -40.487898478681963 -18.619218940271217 -1 0 0 I I #
face $-1 $525 $526 $55 $-1 $527 reversed single #
loop $-1 $-1 $242 $236 #
plane-surface $-1 -65.528626361888485 -51.240263021479606 0 1 0 0 0 0 -1 forward_v I I I I #
coedge $-1 $528 $529 $530 $531 forward $237 $-1 #
coedge $-1 $532 $239 $533 $534 forward $149 $-1 #
coedge $-1 $239 $532 $387 $535 forward $149 $-1 #
edge $-1 $389 -65.528626361888485 $536 -61.624085176360978 $239 $537 forward 7 unknown #
coedge $-1 $241 $240 $538 $539 forward $94 $-1 #
coedge $-1 $540 $541 $240 $386 forward $542 $-1 #
edge $-1 $543 61.624085176360978 $390 65.528626361888485 $385 $544 forward 7 unknown #
coedge $-1 $530 $242 $382 $535 reversed $378 $-1 #
coedge $-1 $242 $530 $540 $545 reversed $378 $-1 #
vertex $-1 $383 $546 #
vertex $-1 $545 $547 #
straight-curve $-1 -65.528626361888485 -40.487898478681963 0 0 0 1 I I #
face $-1 $-1 $548 $56 $-1 $549 reversed single #
loop $-1 $-1 $250 $244 #
plane-surface $-1 0 0 18.619218940271217 0 0 1 1 0 0 forward_v I I I I #
coedge $-1 $550 $551 $552 $553 reversed $245 $-1 #
coedge $-1 $554 $247 $249 $402 forward $153 $-1 #
coedge $-1 $247 $554 $550 $555 forward $153 $-1 #
coedge $-1 $552 $250 $247 $399 forward $393 $-1 #
edge $-1 $405 0.080330886376428268 $556 7.9898121911597446 $398 $557 forward 7 unknown #
coedge $-1 $558 $559 $248 $401 forward $548 $-1 #
edge $-1 $560 -89.711378234142501 $404 -74.345468088309275 $400 $561 forward 7 unknown #
edge $-1 $405 113.73550567973385 $560 132.057252723777 $249 $562 forward 7 unknown #
coedge $-1 $250 $552 $558 $563 forward $393 $-1 #
vertex $-1 $251 $564 #
vertex $-1 $251 $565 #
straight-curve $-1 52.428812749774096 -4.1154024251445147 18.619218940271224 -1 0 0 I I #
coedge $-1 $407 $407 $-1 $566 reversed $254 $-1 #
edge $-1 $567 0 $567 6.2831853071796004 $255 $568 forward 7 unknown #
vertex $-1 $258 $569 #
ellipse-curve $-1 61.039257159873003 -10.442987468971172 10.936263867354612 0.83867057594974714 0 0.54463902268945019 0.2723195113447251 0 -0.41933528797487357 1 I I #
coedge $-1 $411 $411 $-1 $570 reversed $261 $-1 #
edge $-1 $571 0 $571 6.2831853071796004 $262 $572 forward 7 unknown #
vertex $-1 $265 $573 #
ellipse-curve $-1 61.039257159873003 -8.07014307753618 10.936263867354612 0.83867057594974714 0 0.54463902268945019 0.2723195113447251 0 -0.41933528797487357 1 I I #
coedge $-1 $415 $415 $-1 $574 reversed $268 $-1 #
edge $-1 $575 0 $575 6.2831853071796004 $269 $576 forward 7 unknown #
vertex $-1 $272 $577 #
ellipse-curve $-1 61.039257159873003 -5.6972986861011847 10.936263867354612 0.83867057594974714 0 0.54463902268945019 0.2723195113447251 0 -0.41933528797487357 1 I I #
face $-1 $-1 $431 $60 $-1 $578 forward single #
loop $-1 $-1 $579 $273 #
plane-surface $-1 66.028626361888485 0 0 -1 0 0 0 0 1 forward_v I I I I #
coedge $-1 $580 $581 $582 $583 reversed $274 $-1 #
coedge $-1 $584 $276 $278 $429 forward $172 $-1 #
coedge $-1 $276 $584 $580 $585 forward $172 $-1 #
coedge $-1 $582 $279 $276 $426 forward $431 $-1 #
edge $-1 $433 -7.3535525975946516 $586 0.55592870718866472 $425 $587 forward 7 unknown #
coedge $-1 $588 $589 $277 $428 forward $420 $-1 #
edge $-1 $590 -89.711378234142501 $432 -74.345468088309275 $427 $591 forward 7 unknown #
edge $-1 $433 113.73550567973385 $590 132.057252723777 $278 $592 forward 7 unknown #
coedge $-1 $279 $582 $588 $593 forward $431 $-1 #
loop $-1 $-1 $582 $419 #
vertex $-1 $428 $594 #
vertex $-1 $280 $595 #
straight-curve $-1 52.428812749774096 10.752364542797645 18.619218940271224 -1 0 0 I I #
coedge $-1 $435 $435 $-1 $596 reversed $283 $-1 #
edge $-1 $597 0 $597 6.2831853071796004 $284 $598 forward 7 unknown #
vertex $-1 $287 $599 #
ellipse-curve $-1 61.039257159873003 4.4247794989709845 10.936263867354612 0.83867057594974714 0 0.54463902268945019 0.2723195113447251 0 -0.41933528797487357 1 I I #
coedge $-1 $439 $439 $-1 $600 reversed $290 $-1 #
edge $-1 $601 0 $601 6.2831853071796004 $291 $602 forward 7 unknown #
vertex $-1 $294 $603 #
ellipse-curve $-1 61.039257159873003 6.7976238904059798 10.936263867354612 0.83867057594974714 0 0.54463902268945019 0.2723195113447251 0 -0.41933528797487357 1 I I #
coedge $-1 $443 $443 $-1 $604 reversed $297 $-1 #
edge $-1 $605 0 $605 6.2831853071796004 $298 $606 forward 7 unknown #
vertex $-1 $301 $607 #
ellipse-curve $-1 61.039257159873003 9.1704682818409751 10.936263867354612 0.83867057594974714 0 0.54463902268945019 0.2723195113447251 0 -0.41933528797487357 1 I I #
face $-1 $-1 $459 $64 $-1 $608 forward single #
loop $-1 $-1 $609 $302 #
plane-surface $-1 66.028626361888485 0 0 -1 0 0 0 0 1 forward_v I I I I #
coedge $-1 $610 $611 $612 $613 reversed $303 $-1 #
coedge $-1 $614 $305 $307 $457 forward $191 $-1 #
coedge $-1 $305 $614 $610 $615 forward $191 $-1 #
coedge $-1 $612 $308 $305 $454 forward $459 $-1 #
edge $-1 $461 -14.78743608156573 $616 -6.877954776782417 $453 $617 forward 7 unknown #
coedge $-1 $618 $619 $306 $456 forward $448 $-1 #
edge $-1 $620 -89.711378234142501 $460 -74.345468088309275 $455 $621 forward 7 unknown #
edge $-1 $461 113.73550567973385 $620 132.057252723777 $307 $622 forward 7 unknown #
coedge $-1 $308 $612 $618 $623 forward $459 $-1 #
loop $-1 $-1 $612 $447 #
vertex $-1 $456 $624 #
vertex $-1 $309 $625 #
straight-curve $-1 52.428812749774096 25.620131510739803 18.619218940271224 -1 0 0 I I #
coedge $-1 $463 $463 $-1 $626 reversed $312 $-1 #
edge $-1 $627 0 $627 6.2831853071796004 $313 $628 forward 7 unknown #
vertex $-1 $316 $629 #
ellipse-curve $-1 61.039257159873003 19.292546466913144 10.936263867354612 0.83867057594974714 0 0.54463902268945019 0.2723195113447251 0 -0.41933528797487357 1 I I #
coedge $-1 $467 $467 $-1 $630 reversed $319 $-1 #
edge $-1 $631 0 $631 6.2831853071796004 $320 $632 forward 7 unknown #
vertex $-1 $323 $633 #
ellipse-curve $-1 61.039257159873003 21.66539085834814 10.936263867354612 0.83867057594974714 0 0.54463902268945019 0.2723195113447251 0 -0.41933528797487357 1 I I #
coedge $-1 $471 $471 $-1 $634 reversed $326 $-1 #
edge $-1 $635 0 $635 6.2831853071796004 $327 $636 forward 7 unknown #
vertex $-1 $330 $637 #
ellipse-curve $-1 61.039257159873003 24.038235249783135 10.936263867354612 0.83867057594974714 0 0.54463902268945019 0.2723195113447251 0 -0.41933528797487357 1 I I #
face $-1 $-1 $638 $68 $-1 $639 forward single #
loop $-1 $-1 $640 $331 #
plane-surface $-1 0 40.487898478681963 0 0 -1 0 0 0 -1 forward_v I I I I #
coedge $-1 $641 $334 $336 $484 forward $210 $-1 #
coedge $-1 $334 $641 $640 $642 reversed $210 $-1 #
coedge $-1 $643 $337 $334 $481 forward $332 $-1 #
edge $-1 $487 14.311838260753493 $644 22.221319565536813 $480 $645 forward 7 unknown #
coedge $-1 $646 $647 $335 $483 forward $638 $-1 #
edge $-1 $648 3.6210752080834112 $486 13.599813612114389 $482 $649 forward 7 unknown #
edge $-1 $487 -132.057252723777 $648 -113.73550567973385 $336 $650 forward 7 unknown #
coedge $-1 $337 $643 $646 $651 reversed $332 $-1 #
vertex $-1 $651 $652 #
vertex $-1 $338 $653 #
straight-curve $-1 66.028626361888485 32.578417173898643 92.964687028580485 0 0 -1 I I #
coedge $-1 $489 $489 $-1 $654 reversed $341 $-1 #
edge $-1 $655 0 $655 6.2831853071796004 $342 $656 forward 7 unknown #
vertex $-1 $345 $657 #
ellipse-curve $-1 61.039257159873003 34.160313434855304 10.936263867354612 0.83867057594974714 0 0.54463902268945019 0.2723195113447251 0 -0.41933528797487357 1 I I #
coedge $-1 $493 $493 $-1 $658 reversed $348 $-1 #
edge $-1 $659 0 $659 6.2831853071796004 $349 $660 forward 7 unknown #
vertex $-1 $352 $661 #
ellipse-curve $-1 61.039257159873003 36.533157826290299 10.936263867354612 0.83867057594974714 0 0.54463902268945019 0.2723195113447251 0 -0.41933528797487357 1 I I #
coedge $-1 $497 $497 $-1 $662 reversed $355 $-1 #
edge $-1 $663 0 $663 6.2831853071796004 $356 $664 forward 7 unknown #
vertex $-1 $359 $665 #
ellipse-curve $-1 61.039257159873003 38.906002217725295 10.936263867354612 0.83867057594974714 0 0.54463902268945019 0.2723195113447251 0 -0.41933528797487357 1 I I #
face $-1 $-1 $513 $54 $-1 $666 reversed single #
loop $-1 $-1 $667 $360 #
plane-surface $-1 0 40.487898478681963 0 0 -1 0 0 0 -1 forward_v I I I I #
coedge $-1 $519 $518 $668 $669 forward $361 $-1 #
coedge $-1 $363 $373 $670 $671 forward $229 $-1 #
coedge $-1 $512 $369 $363 $507 reversed $513 $-1 #
edge $-1 $672 -40.487898478681963 $374 40.487898478681963 $506 $673 forward 7 unknown #
coedge $-1 $365 $364 $518 $674 forward $145 $-1 #
coedge $-1 $667 $668 $364 $510 reversed $502 $-1 #
edge $-1 $515 -66.028626361888485 $675 66.028626361888485 $509 $676 forward 7 unknown #
edge $-1 $520 -66.028626361888485 $514 66.028626361888485 $368 $677 forward 7 unknown #
coedge $-1 $366 $506 $667 $678 reversed $513 $-1 #
loop $-1 $-1 $369 $501 #
vertex $-1 $367 $679 #
vertex $-1 $367 $680 #
straight-curve $-1 66.028626361888485 0 18.619218940271217 0 1 0 I I #
straight-curve $-1 66.028626361888485 -40.487898478681963 0 0 0 -1 I I #
coedge $-1 $504 $371 $508 $674 reversed $361 $-1 #
coedge $-1 $371 $504 $373 $522 reversed $361 $-1 #
vertex $-1 $674 $681 #
straight-curve $-1 -66.028626361888485 -40.487898478681963 0 0 0 -1 I I #
edge $-1 $375 -40.487898478681963 $682 40.487898478681963 $519 $683 forward 7 unknown #
point $-1 66.028626361888485 -40.487898478681963 -18.619218940271217 #
point $-1 -66.028626361888485 -40.487898478681963 -18.619218940271217 #
face $-1 $-1 $542 $55 $-1 $684 forward single #
loop $-1 $-1 $685 $377 #
plane-surface $-1 -61.624085176360978 -51.240263021479606 0 -1 0 0 0 0 1 forward_v I I I I #
coedge $-1 $686 $380 $532 $687 reversed $237 $-1 #
coedge $-1 $380 $686 $688 $689 reversed $237 $-1 #
coedge $-1 $388 $387 $380 $531 reversed $378 $-1 #
edge $-1 $690 -18.619218940271217 $691 18.619218940271217 $530 $692 forward 7 unknown #
coedge $-1 $382 $381 $528 $687 forward $149 $-1 #
coedge $-1 $538 $685 $381 $534 reversed $526 $-1 #
edge $-1 $536 -10.752364542797643 $693 10.752364542797643 $533 $694 forward 7 unknown #
edge $-1 $691 -10.752364542797643 $389 10.752364542797643 $387 $695 forward 7 unknown #
vertex $-1 $534 $696 #
straight-curve $-1 0 -40.487898478681963 -18.619218940271217 1 0 0 I I #
coedge $-1 $697 $533 $384 $539 reversed $526 $-1 #
edge $-1 $543 -18.619218940271217 $536 18.619218940271217 $538 $698 forward 7 unknown #
coedge $-1 $688 $385 $388 $545 forward $542 $-1 #
coedge $-1 $385 $688 $697 $699 forward $542 $-1 #
loop $-1 $-1 $385 $525 #
vertex $-1 $386 $700 #
straight-curve $-1 0 -40.487898478681963 18.619218940271217 -1 0 0 I I #
edge $-1 $390 -10.752364542797643 $690 10.752364542797643 $388 $701 forward 7 unknown #
point $-1 -65.528626361888485 -40.487898478681963 -18.619218940271217 #
point $-1 -65.528626361888485 -40.487898478681963 18.619218940271217 #
loop $-1 $-1 $400 $392 #
plane-surface $-1 66.028626361888485 0 0 -1 0 0 0 0 1 forward_v I I I I #
coedge $-1 $551 $395 $397 $555 reversed $245 $-1 #
coedge $-1 $395 $550 $702 $703 reversed $245 $-1 #
coedge $-1 $403 $398 $395 $553 forward $393 $-1 #
edge $-1 $556 3.6210752080834112 $704 13.599813612114389 $552 $705 forward 7 unknown #
coedge $-1 $397 $396 $559 $706 reversed $153 $-1 #
edge $-1 $707 -132.057252723777 $556 -113.73550567973385 $550 $708 forward 7 unknown #
vertex $-1 $399 $709 #
straight-curve $-1 56.049887957857521 -4.0350715387680864 18.619218940271217 0 -1 0 I I #
coedge $-1 $702 $400 $403 $563 reversed $548 $-1 #
coedge $-1 $400 $702 $554 $706 forward $548 $-1 #
vertex $-1 $401 $710 #
straight-curve $-1 66.028626361888485 -4.1154024251445147 92.964687028580485 0 0 1 I I #
straight-curve $-1 -5.8949067006431477 -4.1154024251445147 114.00584099462935 0.54463902268945019 0 -0.83867057594974714 I I #
edge $-1 $704 -12.024883729927831 $404 -4.1154024251445147 $558 $711 forward 7 unknown #
point $-1 66.028626361888485 -4.1154024251445147 18.619218940271217 #
point $-1 56.049887957857507 -4.1154024251445147 18.619218940271224 #
edge $-1 $712 1 $712 0 $407 $-1 forward 7 unknown #
vertex $-1 $408 $713 #
ellipse-curve $-1 60.200586583923275 -10.442987468971172 10.391624844665177 0.83867057594974714 0 0.54463902268945019 0.2723195113447251 0 -0.41933528797487357 1 I I #
point $-1 61.31157667121775 -10.442987468971172 10.516928579379753 #
edge $-1 $714 1 $714 0 $411 $-1 forward 7 unknown #
vertex $-1 $412 $715 #
ellipse-curve $-1 60.200586583923275 -8.07014307753618 10.391624844665177 0.83867057594974714 0 0.54463902268945019 0.2723195113447251 0 -0.41933528797487357 1 I I #
point $-1 61.31157667121775 -8.07014307753618 10.516928579379753 #
edge $-1 $716 1 $716 0 $415 $-1 forward 7 unknown #
vertex $-1 $416 $717 #
ellipse-curve $-1 60.200586583923275 -5.6972986861011847 10.391624844665177 0.83867057594974714 0 0.54463902268945019 0.2723195113447251 0 -0.41933528797487357 1 I I #
point $-1 61.31157667121775 -5.6972986861011847 10.516928579379753 #
plane-surface $-1 0 0 18.619218940271217 0 0 1 1 0 0 forward_v I I I I #
coedge $-1 $589 $588 $581 $718 forward $420 $-1 #
coedge $-1 $581 $422 $424 $585 reversed $274 $-1 #
coedge $-1 $422 $580 $579 $718 reversed $274 $-1 #
coedge $-1 $430 $425 $422 $583 forward $431 $-1 #
edge $-1 $586 3.6210752080834112 $719 13.599813612114389 $582 $720 forward 7 unknown #
coedge $-1 $424 $423 $589 $721 reversed $172 $-1 #
edge $-1 $722 -132.057252723777 $586 -113.73550567973385 $580 $723 forward 7 unknown #
vertex $-1 $426 $724 #
straight-curve $-1 56.049887957857521 3.3988119452029935 18.619218940271217 0 -1 0 I I #
coedge $-1 $579 $427 $430 $593 reversed $420 $-1 #
coedge $-1 $427 $579 $584 $721 forward $420 $-1 #
vertex $-1 $428 $725 #
straight-curve $-1 66.028626361888485 10.752364542797645 92.964687028580485 0 0 1 I I #
straight-curve $-1 -5.8949067006431477 10.752364542797645 114.00584099462935 0.54463902268945019 0 -0.83867057594974714 I I #
edge $-1 $719 2.8428832380143287 $432 10.752364542797645 $588 $726 forward 7 unknown #
point $-1 66.028626361888485 10.752364542797645 18.619218940271217 #
point $-1 56.049887957857507 10.752364542797645 18.619218940271224 #
edge $-1 $727 1 $727 0 $435 $-1 forward 7 unknown #
vertex $-1 $436 $728 #
ellipse-curve $-1 60.200586583923275 4.4247794989709845 10.391624844665177 0.83867057594974714 0 0.54463902268945019 0.2723195113447251 0 -0.41933528797487357 1 I I #
point $-1 61.31157667121775 4.4247794989709845 10.516928579379753 #
edge $-1 $729 1 $729 0 $439 $-1 forward 7 unknown #
vertex $-1 $440 $730 #
ellipse-curve $-1 60.200586583923275 6.7976238904059798 10.391624844665177 0.83867057594974714 0 0.54463902268945019 0.2723195113447251 0 -0.41933528797487357 1 I I #
point $-1 61.31157667121775 6.7976238904059798 10.516928579379753 #
edge $-1 $731 1 $731 0 $443 $-1 forward 7 unknown #
vertex $-1 $444 $732 #
ellipse-curve $-1 60.200586583923275 9.1704682818409751 10.391624844665177 0.83867057594974714 0 0.54463902268945019 0.2723195113447251 0 -0.41933528797487357 1 I I #
point $-1 61.31157667121775 9.1704682818409751 10.516928579379753 #
plane-surface $-1 0 0 18.619218940271217 0 0 1 1 0 0 forward_v I I I I #
coedge $-1 $619 $618 $611 $733 forward $448 $-1 #
coedge $-1 $611 $450 $452 $615 reversed $303 $-1 #
coedge $-1 $450 $610 $609 $733 reversed $303 $-1 #
coedge $-1 $458 $453 $450 $613 forward $459 $-1 #
edge $-1 $616 3.6210752080834112 $734 13.599813612114389 $612 $735 forward 7 unknown #
coedge $-1 $452 $451 $619 $736 reversed $191 $-1 #
edge $-1 $737 -132.057252723777 $616 -113.73550567973385 $610 $738 forward 7 unknown #
vertex $-1 $454 $739 #
straight-curve $-1 56.049887957857521 10.832695429174073 18.619218940271217 0 -1 0 I I #
coedge $-1 $609 $455 $458 $623 reversed $448 $-1 #
coedge $-1 $455 $609 $614 $736 forward $448 $-1 #
vertex $-1 $456 $740 #
straight-curve $-1 66.028626361888485 25.620131510739803 92.964687028580485 0 0 1 I I #
straight-curve $-1 -5.8949067006431477 25.620131510739803 114.00584099462935 0.54463902268945019 0 -0.83867057594974714 I I #
edge $-1 $734 17.71065020595649 $460 25.620131510739803 $618 $741 forward 7 unknown #
point $-1 66.028626361888485 25.620131510739803 18.619218940271217 #
point $-1 56.049887957857507 25.620131510739803 18.619218940271224 #
edge $-1 $742 1 $742 0 $463 $-1 forward 7 unknown #
vertex $-1 $464 $743 #
ellipse-curve $-1 60.200586583923275 19.292546466913144 10.391624844665177 0.83867057594974714 0 0.54463902268945019 0.2723195113447251 0 -0.41933528797487357 1 I I #
point $-1 61.31157667121775 19.292546466913144 10.516928579379753 #
edge $-1 $744 1 $744 0 $467 $-1 forward 7 unknown #
vertex $-1 $468 $745 #
ellipse-curve $-1 60.200586583923275 21.66539085834814 10.391624844665177 0.83867057594974714 0 0.54463902268945019 0.2723195113447251 0 -0.41933528797487357 1 I I #
point $-1 61.31157667121775 21.66539085834814 10.516928579379753 #
edge $-1 $746 1 $746 0 $471 $-1 forward 7 unknown #
vertex $-1 $472 $747 #
ellipse-curve $-1 60.200586583923275 24.038235249783135 10.391624844665177 0.83867057594974714 0 0.54463902268945019 0.2723195113447251 0 -0.41933528797487357 1 I I #
point $-1 61.31157667121775 24.038235249783135 10.516928579379753 #
loop $-1 $-1 $482 $475 #
plane-surface $-1 0 0 18.619218940271217 0 0 1 1 0 0 forward_v I I I I #
coedge $-1 $748 $749 $479 $642 forward $476 $-1 #
coedge $-1 $479 $478 $647 $750 reversed $210 $-1 #
edge $-1 $644 -82.645282447334566 $751 -64.32353540329143 $640 $752 forward 7 unknown #
coedge $-1 $485 $480 $749 $753 reversed $332 $-1 #
vertex $-1 $642 $754 #
straight-curve $-1 66.028626361888485 18.26657891314515 3.2533087944379844 0 1 0 I I #
coedge $-1 $755 $482 $485 $651 forward $638 $-1 #
coedge $-1 $482 $755 $641 $750 forward $638 $-1 #
vertex $-1 $483 $756 #
straight-curve $-1 52.428812749774096 32.578417173898643 18.619218940271224 1 0 0 I I #
straight-curve $-1 -5.8949067006431477 32.578417173898643 114.00584099462935 -0.54463902268945019 0 0.83867057594974714 I I #
edge $-1 $486 32.578417173898643 $757 40.487898478681963 $485 $758 forward 7 unknown #
point $-1 66.028626361888485 32.578417173898643 18.619218940271217 #
point $-1 66.028626361888485 32.578417173898643 3.2533087944379844 #
edge $-1 $759 1 $759 0 $489 $-1 forward 7 unknown #
vertex $-1 $490 $760 #
ellipse-curve $-1 60.200586583923275 34.160313434855304 10.391624844665177 0.83867057594974714 0 0.54463902268945019 0.2723195113447251 0 -0.41933528797487357 1 I I #
point $-1 61.31157667121775 34.160313434855304 10.516928579379753 #
edge $-1 $761 1 $761 0 $493 $-1 forward 7 unknown #
vertex $-1 $494 $762 #
ellipse-curve $-1 60.200586583923275 36.533157826290299 10.391624844665177 0.83867057594974714 0 0.54463902268945019 0.2723195113447251 0 -0.41933528797487357 1 I I #
point $-1 61.31157667121775 36.533157826290299 10.516928579379753 #
edge $-1 $763 1 $763 0 $497 $-1 forward 7 unknown #
vertex $-1 $498 $764 #
ellipse-curve $-1 60.200586583923275 38.906002217725295 10.391624844665177 0.83867057594974714 0 0.54463902268945019 0.2723195113447251 0 -0.41933528797487357 1 I I #
point $-1 61.31157667121775 38.906002217725295 10.516928579379753 #
plane-surface $-1 66.028626361888485 0 0 -1 0 0 0 0 1 forward_v I I I I #
coedge $-1 $670 $509 $512 $678 forward $502 $-1 #
coedge $-1 $509 $670 $504 $669 reversed $502 $-1 #
edge $-1 $675 -18.619218940271217 $682 18.619218940271217 $668 $765 forward 7 unknown #
coedge $-1 $668 $667 $505 $671 reversed $502 $-1 #
edge $-1 $682 -66.028626361888485 $672 66.028626361888485 $670 $766 forward 7 unknown #
vertex $-1 $507 $767 #
straight-curve $-1 66.028626361888485 0 -18.619218940271217 0 -1 0 I I #
edge $-1 $675 -40.487898478681963 $520 40.487898478681963 $518 $768 forward 7 unknown #
vertex $-1 $510 $769 #
straight-curve $-1 0 40.487898478681963 18.619218940271217 -1 0 0 I I #
straight-curve $-1 0 -40.487898478681963 18.619218940271217 1 0 0 I I #
edge $-1 $515 -18.619218940271217 $672 18.619218940271217 $512 $770 forward 7 unknown #
point $-1 66.028626361888485 -40.487898478681963 18.619218940271217 #
point $-1 66.028626361888485 40.487898478681963 18.619218940271217 #
point $-1 -66.028626361888485 -40.487898478681963 18.619218940271217 #
vertex $-1 $671 $771 #
straight-curve $-1 -66.028626361888485 0 -18.619218940271217 0 1 0 I I #
plane-surface $-1 0 0 18.619218940271217 0 0 1 1 0 0 forward_v I I I I #
coedge $-1 $533 $697 $686 $772 forward $526 $-1 #
coedge $-1 $529 $528 $685 $772 reversed $237 $-1 #
edge $-1 $693 -1.9522705927637531 $691 1.9522705927637531 $528 $773 forward 7 unknown #
coedge $-1 $541 $540 $529 $689 forward $542 $-1 #
edge $-1 $690 -1.9522705927637531 $774 1.9522705927637531 $529 $775 forward 7 unknown #
vertex $-1 $545 $776 #
vertex $-1 $535 $777 #
straight-curve $-1 -65.528626361888485 -61.99262756427725 0 0 0 -1 I I #
vertex $-1 $772 $778 #
straight-curve $-1 -61.624085176360978 -51.240263021479606 -18.619218940271217 0 -1 0 I I #
straight-curve $-1 -65.528626361888485 -51.240263021479606 -18.619218940271217 0 1 0 I I #
point $-1 -61.624085176360978 -40.487898478681963 -18.619218940271217 #
coedge $-1 $685 $538 $541 $699 reversed $526 $-1 #
straight-curve $-1 -61.624085176360978 -40.487898478681963 0 0 0 -1 I I #
edge $-1 $774 -10.752364542797643 $543 10.752364542797643 $697 $779 forward 7 unknown #
point $-1 -61.624085176360978 -40.487898478681963 18.619218940271217 #
straight-curve $-1 -65.528626361888485 -51.240263021479606 18.619218940271217 0 -1 0 I I #
coedge $-1 $559 $558 $551 $703 forward $548 $-1 #
edge $-1 $704 74.345468088309275 $707 89.711378234142501 $702 $780 forward 7 unknown #
vertex $-1 $563 $781 #
straight-curve $-1 52.428812749774096 -12.024883729927831 18.619218940271224 1 0 0 I I #
edge $-1 $707 -7.9898121911597446 $560 -0.080330886376428268 $559 $782 forward 7 unknown #
vertex $-1 $706 $783 #
straight-curve $-1 -5.8949067006431477 -12.024883729927831 114.00584099462935 -0.54463902268945019 0 0.83867057594974714 I I #
point $-1 56.049887957857507 -12.024883729927831 18.619218940271224 #
point $-1 66.028626361888485 -4.1154024251445147 3.2533087944379844 #
straight-curve $-1 66.028626361888485 0 18.619218940271217 0 1 0 I I #
vertex $-1 $566 $784 #
point $-1 60.472906095268002 -10.442987468971172 9.9722895566903027 #
vertex $-1 $570 $785 #
point $-1 60.472906095268002 -8.07014307753618 9.9722895566903027 #
vertex $-1 $574 $786 #
point $-1 60.472906095268002 -5.6972986861011847 9.9722895566903027 #
edge $-1 $719 74.345468088309275 $722 89.711378234142501 $579 $787 forward 7 unknown #
vertex $-1 $593 $788 #
straight-curve $-1 52.428812749774096 2.8428832380143287 18.619218940271224 1 0 0 I I #
edge $-1 $722 -0.55592870718866472 $590 7.3535525975946516 $589 $789 forward 7 unknown #
vertex $-1 $721 $790 #
straight-curve $-1 -5.8949067006431477 2.8428832380143287 114.00584099462935 -0.54463902268945019 0 0.83867057594974714 I I #
point $-1 56.049887957857507 2.8428832380143287 18.619218940271224 #
point $-1 66.028626361888485 10.752364542797645 3.2533087944379844 #
straight-curve $-1 66.028626361888485 0 18.619218940271217 0 1 0 I I #
vertex $-1 $596 $791 #
point $-1 60.472906095268002 4.4247794989709845 9.9722895566903027 #
vertex $-1 $600 $792 #
point $-1 60.472906095268002 6.7976238904059798 9.9722895566903027 #
vertex $-1 $604 $793 #
point $-1 60.472906095268002 9.1704682818409751 9.9722895566903027 #
edge $-1 $734 74.345468088309275 $737 89.711378234142501 $609 $794 forward 7 unknown #
vertex $-1 $623 $795 #
straight-curve $-1 52.428812749774096 17.71065020595649 18.619218940271224 1 0 0 I I #
edge $-1 $737 6.877954776782417 $620 14.78743608156573 $619 $796 forward 7 unknown #
vertex $-1 $736 $797 #
straight-curve $-1 -5.8949067006431477 17.71065020595649 114.00584099462935 -0.54463902268945019 0 0.83867057594974714 I I #
point $-1 56.049887957857507 17.71065020595649 18.619218940271224 #
point $-1 66.028626361888485 25.620131510739803 3.2533087944379844 #
straight-curve $-1 66.028626361888485 0 18.619218940271217 0 1 0 I I #
vertex $-1 $626 $798 #
point $-1 60.472906095268002 19.292546466913144 9.9722895566903027 #
vertex $-1 $630 $799 #
point $-1 60.472906095268002 21.66539085834814 9.9722895566903027 #
vertex $-1 $634 $800 #
point $-1 60.472906095268002 24.038235249783135 9.9722895566903027 #
coedge $-1 $749 $640 $755 $801 reversed $476 $-1 #
coedge $-1 $640 $748 $643 $753 forward $476 $-1 #
edge $-1 $751 -22.221319565536806 $648 -14.311838260753493 $647 $802 forward 7 unknown #
vertex $-1 $642 $803 #
straight-curve $-1 21.016780499878621 40.487898478681963 72.565475424073597 -0.54463902268945019 0 0.83867057594974714 I I #
edge $-1 $757 -18.619218940271217 $644 -3.2533087944379826 $643 $804 forward 7 unknown #
point $-1 66.028626361888485 40.487898478681963 3.2533087944379826 #
coedge $-1 $647 $646 $748 $801 forward $638 $-1 #
point $-1 56.049887957857507 32.578417173898643 18.619218940271224 #
vertex $-1 $651 $805 #
straight-curve $-1 66.028626361888485 0 18.619218940271217 0 1 0 I I #
vertex $-1 $654 $806 #
point $-1 60.472906095268002 34.160313434855304 9.9722895566903027 #
vertex $-1 $658 $807 #
point $-1 60.472906095268002 36.533157826290299 9.9722895566903027 #
vertex $-1 $662 $808 #
point $-1 60.472906095268002 38.906002217725295 9.9722895566903027 #
straight-curve $-1 -66.028626361888485 40.487898478681963 0 0 0 -1 I I #
straight-curve $-1 0 40.487898478681963 -18.619218940271217 1 0 0 I I #
point $-1 66.028626361888485 40.487898478681963 -18.619218940271217 #
straight-curve $-1 -66.028626361888485 0 18.619218940271217 0 -1 0 I I #
point $-1 -66.028626361888485 40.487898478681963 18.619218940271217 #
straight-curve $-1 66.028626361888485 40.487898478681963 0 0 0 -1 I I #
point $-1 -66.028626361888485 40.487898478681963 -18.619218940271217 #
edge $-1 $774 -18.619218940271217 $693 18.619218940271217 $685 $809 forward 7 unknown #
straight-curve $-1 -63.576355769124731 -61.99262756427725 -18.619218940271217 -1 0 0 I I #
vertex $-1 $699 $810 #
straight-curve $-1 -63.576355769124731 -61.99262756427725 18.619218940271217 1 0 0 I I #
point $-1 -65.528626361888485 -61.99262756427725 18.619218940271217 #
point $-1 -65.528626361888485 -61.99262756427725 -18.619218940271217 #
point $-1 -61.624085176360978 -61.99262756427725 -18.619218940271217 #
straight-curve $-1 -61.624085176360978 -51.240263021479606 18.619218940271217 0 1 0 I I #
straight-curve $-1 66.028626361888485 -12.024883729927831 92.964687028580485 0 0 -1 I I #
point $-1 66.028626361888485 -12.024883729927831 18.619218940271217 #
straight-curve $-1 66.028626361888485 -4.0350715387680864 3.2533087944379844 0 1 0 I I #
point $-1 66.028626361888485 -12.024883729927831 3.2533087944379844 #
point $-1 59.781251295948401 -10.442987468971172 10.119305333320451 #
point $-1 59.781251295948401 -8.07014307753618 10.119305333320451 #
point $-1 59.781251295948401 -5.6972986861011847 10.119305333320451 #
straight-curve $-1 66.028626361888485 2.8428832380143287 92.964687028580485 0 0 -1 I I #
point $-1 66.028626361888485 2.8428832380143287 18.619218940271217 #
straight-curve $-1 66.028626361888485 3.3988119452029935 3.2533087944379844 0 1 0 I I #
point $-1 66.028626361888485 2.8428832380143287 3.2533087944379844 #
point $-1 59.781251295948401 4.4247794989709845 10.119305333320451 #
point $-1 59.781251295948401 6.7976238904059798 10.119305333320451 #
point $-1 59.781251295948401 9.1704682818409751 10.119305333320451 #
straight-curve $-1 66.028626361888485 17.71065020595649 92.964687028580485 0 0 -1 I I #
point $-1 66.028626361888485 17.71065020595649 18.619218940271217 #
straight-curve $-1 66.028626361888485 10.832695429174073 3.2533087944379844 0 1 0 I I #
point $-1 66.028626361888485 17.71065020595649 3.2533087944379844 #
point $-1 59.781251295948401 19.292546466913144 10.119305333320451 #
point $-1 59.781251295948401 21.66539085834814 10.119305333320451 #
point $-1 59.781251295948401 24.038235249783135 10.119305333320451 #
edge $-1 $757 -66.028626361888485 $751 -56.049887957857507 $748 $811 forward 7 unknown #
straight-curve $-1 56.049887957857521 18.26657891314515 18.619218940271217 0 -1 0 I I #
point $-1 56.049887957857507 40.487898478681956 18.619218940271224 #
straight-curve $-1 66.028626361888485 40.487898478681963 0 0 0 -1 I I #
point $-1 66.028626361888485 40.487898478681963 18.619218940271217 #
point $-1 59.781251295948401 34.160313434855304 10.119305333320451 #
point $-1 59.781251295948401 36.533157826290299 10.119305333320451 #
point $-1 59.781251295948401 38.906002217725295 10.119305333320451 #
straight-curve $-1 -61.624085176360978 -61.99262756427725 0 0 0 -1 I I #
point $-1 -61.624085176360978 -61.99262756427725 18.619218940271217 #
straight-curve $-1 0 40.487898478681963 18.619218940271217 -1 0 0 I I #
End-of-ACIS-data 