500 0 9 0           
7 Unknown 11 ACIS 5.0 NT 24 Fri Mar 26 18:25:52 1999 
-1 9.9999999999999995e-007 1e-010 
body $-1 $9 $-1 $10 #
body $-1 $11 $-1 $12 #
body $-1 $13 $-1 $14 #
body $-1 $15 $-1 $16 #
body $-1 $17 $-1 $18 #
body $-1 $19 $-1 $20 #
body $-1 $21 $-1 $22 #
body $-1 $23 $-1 $24 #
body $-1 $25 $-1 $26 #
lump $-1 $-1 $27 $0 #
transform $-1 1 0 0 0 1 0 0 0 1 53.607593005157625 24.271558810590442 5.9082990368636903 1 rotate no_reflect no_shear #
lump $-1 $-1 $28 $1 #
transform $-1 1 0 0 0 1 0 0 0 1 53.607593005157625 24.271558810590442 5.9082990368636903 1 rotate no_reflect no_shear #
lump $-1 $-1 $29 $2 #
transform $-1 1 0 0 0 1 0 0 0 1 53.607593005157625 24.271558810590442 5.9082990368636903 1 rotate no_reflect no_shear #
lump $-1 $-1 $30 $3 #
transform $-1 1 0 0 0 1 0 0 0 1 53.607593005157625 24.271558810590442 5.9082990368636903 1 rotate no_reflect no_shear #
lump $-1 $-1 $31 $4 #
transform $-1 1 0 0 0 1 0 0 0 1 53.607593005157625 24.271558810590442 5.9082990368636903 1 rotate no_reflect no_shear #
lump $-1 $-1 $32 $5 #
transform $-1 1 0 0 0 1 0 0 0 1 53.607593005157625 24.271558810590442 5.9082990368636903 1 rotate no_reflect no_shear #
lump $-1 $-1 $33 $6 #
transform $-1 1 0 0 0 1 0 0 0 1 53.607593005157625 24.271558810590442 5.9082990368636903 1 rotate no_reflect no_shear #
lump $-1 $-1 $34 $7 #
transform $-1 1 0 0 0 1 0 0 0 1 53.607593005157625 24.271558810590442 5.9082990368636903 1 rotate no_reflect no_shear #
lump $-1 $-1 $35 $8 #
transform $-1 1 0 0 0 1 0 0 0 1 53.607593005157625 24.271558810590442 5.9082990368636903 1 rotate no_reflect no_shear #
shell $-1 $-1 $-1 $36 $-1 $9 #
shell $-1 $-1 $-1 $37 $-1 $11 #
shell $-1 $-1 $-1 $38 $-1 $13 #
shell $-1 $-1 $-1 $39 $-1 $15 #
shell $-1 $-1 $-1 $40 $-1 $17 #
shell $-1 $-1 $-1 $41 $-1 $19 #
shell $-1 $-1 $-1 $42 $-1 $21 #
shell $-1 $-1 $-1 $43 $-1 $23 #
shell $-1 $-1 $-1 $44 $-1 $25 #
face $-1 $45 $46 $27 $-1 $47 forward single #
face $-1 $48 $49 $28 $-1 $50 reversed single #
face $-1 $51 $52 $29 $-1 $53 reversed single #
face $-1 $54 $55 $30 $-1 $56 reversed single #
face $-1 $57 $58 $31 $-1 $59 forward single #
face $-1 $60 $61 $32 $-1 $62 forward single #
face $-1 $63 $64 $33 $-1 $65 reversed single #
face $-1 $66 $67 $34 $-1 $68 forward single #
face $-1 $69 $70 $35 $-1 $71 forward single #
face $-1 $72 $73 $27 $-1 $74 reversed single #
loop $-1 $-1 $75 $36 #
plane-surface $-1 0 0 5.9082990368636903 0 0 1 1 0 0 forward_v I I I I #
face $-1 $76 $77 $28 $-1 $78 reversed single #
loop $-1 $-1 $79 $37 #
plane-surface $-1 -44.790994931430248 -20.470856622883041 0 1 0 0 0 0 -1 forward_v I I I I #
face $-1 $80 $81 $29 $-1 $82 reversed single #
loop $-1 $-1 $83 $38 #
plane-surface $-1 -43.290994931430248 16.67015443517564 0 0 1 0 0 0 1 forward_v I I I I #
face $-1 $84 $85 $30 $-1 $86 reversed single #
loop $-1 $-1 $87 $39 #
plane-surface $-1 37.758448493197221 9.0787312618838243 152.24466283776763 0 -1 0 -0.62932039886446345 0 -0.77714595512881146 forward_v I I I I #
face $-1 $88 $89 $31 $-1 $90 forward single #
loop $-1 $91 $92 $40 #
cone-surface $-1 49.942245105457211 3.5921396675507715 2.5521809583065265 -0.62932039886446345 0 -0.77714595512881146 0.77714595512881146 0 -0.62932039886446345 1 I I 0 1 1 forward I I I I #
face $-1 $93 $94 $32 $-1 $95 forward single #
loop $-1 $96 $97 $41 #
cone-surface $-1 49.942245105457211 6.8840946241506025 2.5521809583065265 -0.62932039886446345 0 -0.77714595512881146 0.77714595512881146 0 -0.62932039886446345 1 I I 0 1 1 forward I I I I #
face $-1 $98 $99 $33 $-1 $100 reversed single #
loop $-1 $-1 $101 $42 #
plane-surface $-1 -138.09431341622968 10.212015161766224 66.17929310963477 0 1 0 -0.78801076186113728 0 0.61566146476048833 forward_v I I I I #
face $-1 $102 $103 $34 $-1 $104 forward single #
loop $-1 $105 $106 $43 #
cone-surface $-1 -50.972366584122192 12.057197811311774 2.7318361090295409 0.78801076186113728 0 -0.61566146476048833 0.30783073238024417 0 0.39400538093056864 1 I I 0 1 0.5 forward I I I I #
face $-1 $107 $108 $35 $-1 $109 forward single #
loop $-1 $110 $111 $44 #
cone-surface $-1 -50.972366584122192 14.82497178563009 2.7318361090295409 0.78801076186113728 0 -0.61566146476048833 0.30783073238024417 0 0.39400538093056864 1 I I 0 1 0.5 forward I I I I #
face $-1 $112 $113 $27 $-1 $114 reversed single #
loop $-1 $-1 $115 $45 #
plane-surface $-1 0 0 -5.9082990368636903 0 0 1 1 0 0 forward_v I I I I #
coedge $-1 $116 $117 $118 $119 forward $46 $-1 #
face $-1 $120 $121 $28 $-1 $122 reversed single #
loop $-1 $-1 $123 $48 #
plane-surface $-1 -43.290994931430248 -16.67015443517564 0 0 -1 0 0 0 -1 forward_v I I I I #
coedge $-1 $124 $125 $126 $127 forward $49 $-1 #
face $-1 $128 $129 $29 $-1 $130 reversed single #
loop $-1 $-1 $131 $51 #
plane-surface $-1 -44.790994931430248 20.470856622883041 0 1 0 0 0 0 -1 forward_v I I I I #
coedge $-1 $132 $133 $134 $135 forward $52 $-1 #
face $-1 $136 $137 $30 $-1 $138 reversed single #
loop $-1 $-1 $139 $54 #
plane-surface $-1 -29.714255131142011 5.238117145850687 68.922814701467999 0.62932039886446345 0 0.77714595512881146 0.77714595512881146 0 -0.62932039886446345 forward_v I I I I #
coedge $-1 $140 $141 $142 $143 reversed $55 $-1 #
face $-1 $-1 $144 $31 $-1 $145 forward single #
loop $-1 $146 $147 $57 #
cone-surface $-1 48.714938767115697 3.5921396675507715 1.0365838820524029 -0.62932039886446345 0 -0.77714595512881146 0.38857297756440573 0 -0.31466019943223172 1 I I -0.70710678118654746 0.70710678118654746 0.5 forward I I I I #
loop $-1 $-1 $148 $40 #
coedge $-1 $92 $92 $149 $150 reversed $58 $-1 #
face $-1 $-1 $151 $32 $-1 $152 forward single #
loop $-1 $153 $154 $60 #
cone-surface $-1 48.714938767115697 6.8840946241506025 1.0365838820524029 -0.62932039886446345 0 -0.77714595512881146 0.38857297756440573 0 -0.31466019943223172 1 I I -0.70710678118654746 0.70710678118654746 0.5 forward I I I I #
loop $-1 $-1 $155 $41 #
coedge $-1 $97 $97 $156 $157 reversed $61 $-1 #
face $-1 $158 $159 $33 $-1 $160 reversed single #
loop $-1 $-1 $161 $63 #
plane-surface $-1 -53.607593005157611 13.441084798470932 0.1710346459558707 -0.78801076186113728 0 0.61566146476048833 0.61566146476048833 0 0.78801076186113728 forward_v I I I I #
coedge $-1 $162 $163 $164 $165 reversed $64 $-1 #
face $-1 $-1 $166 $34 $-1 $167 forward single #
loop $-1 $168 $169 $66 #
cone-surface $-1 -50.381358512726337 12.057197811311774 2.2700900104591746 0.78801076186113728 0 -0.61566146476048833 0.15391536619012208 0 0.19700269046528432 1 I I -0.70710678118654746 0.70710678118654746 0.25 forward I I I I #
loop $-1 $-1 $170 $43 #
coedge $-1 $106 $106 $171 $172 reversed $67 $-1 #
face $-1 $-1 $173 $35 $-1 $174 forward single #
loop $-1 $175 $176 $69 #
cone-surface $-1 -50.381358512726337 14.82497178563009 2.2700900104591746 0.78801076186113728 0 -0.61566146476048833 0.15391536619012208 0 0.19700269046528432 1 I I -0.70710678118654746 0.70710678118654746 0.25 forward I I I I #
loop $-1 $-1 $177 $44 #
coedge $-1 $111 $111 $178 $179 reversed $70 $-1 #
face $-1 $180 $181 $27 $-1 $182 reversed single #
loop $-1 $-1 $183 $72 #
plane-surface $-1 0 -24.271558810590442 0 0 1 0 0 0 1 forward_v I I I I #
coedge $-1 $184 $185 $186 $187 forward $73 $-1 #
coedge $-1 $188 $75 $189 $190 forward $46 $-1 #
coedge $-1 $75 $188 $191 $192 forward $46 $-1 #
coedge $-1 $193 $194 $75 $119 reversed $195 $-1 #
edge $-1 $196 -24.271558810590442 $197 24.271558810590442 $118 $198 forward 7 unknown #
face $-1 $199 $200 $28 $-1 $201 forward single #
loop $-1 $-1 $202 $76 #
plane-surface $-1 -41.790994931430248 -20.470856622883041 0 -1 0 0 0 0 1 forward_v I I I I #
coedge $-1 $203 $204 $205 $206 forward $77 $-1 #
coedge $-1 $207 $79 $208 $209 reversed $49 $-1 #
coedge $-1 $79 $207 $210 $211 reversed $49 $-1 #
coedge $-1 $204 $203 $79 $127 reversed $77 $-1 #
edge $-1 $212 -5.9082990368636903 $213 5.9082990368636903 $126 $214 forward 7 unknown #
face $-1 $215 $216 $29 $-1 $217 reversed single #
loop $-1 $-1 $218 $80 #
plane-surface $-1 -41.790994931430248 20.470856622883041 0 -1 0 0 0 0 1 forward_v I I I I #
coedge $-1 $219 $220 $221 $222 reversed $81 $-1 #
coedge $-1 $223 $83 $224 $225 reversed $52 $-1 #
coedge $-1 $83 $223 $226 $227 reversed $52 $-1 #
coedge $-1 $220 $219 $83 $135 reversed $81 $-1 #
edge $-1 $228 -5.9082990368636903 $229 5.9082990368636903 $134 $230 forward 7 unknown #
face $-1 $231 $232 $30 $-1 $233 forward single #
loop $-1 $-1 $234 $84 #
plane-surface $-1 37.758448493197221 1.3975030298175497 152.24466283776763 0 1 0 0.62932039886446345 0 0.77714595512881146 forward_v I I I I #
coedge $-1 $235 $236 $237 $238 reversed $85 $-1 #
coedge $-1 $141 $87 $239 $240 reversed $55 $-1 #
coedge $-1 $87 $140 $235 $241 reversed $55 $-1 #
coedge $-1 $237 $242 $87 $143 forward $232 $-1 #
edge $-1 $243 -34.728368758559014 $244 -29.222965236976748 $142 $245 forward 7 unknown #
loop $-1 $-1 $149 $88 #
plane-surface $-1 -29.714255131142011 5.238117145850687 68.922814701467999 0.62932039886446345 0 0.77714595512881146 0.77714595512881146 0 -0.62932039886446345 forward_v I I I I #
loop $-1 $-1 $246 $57 #
coedge $-1 $147 $147 $148 $247 reversed $89 $-1 #
coedge $-1 $148 $148 $147 $247 forward $91 $-1 #
coedge $-1 $149 $149 $92 $150 forward $144 $-1 #
edge $-1 $248 0 $248 6.2831853071796004 $149 $249 forward 7 unknown #
loop $-1 $-1 $156 $93 #
plane-surface $-1 -29.714255131142011 5.238117145850687 68.922814701467999 0.62932039886446345 0 0.77714595512881146 0.77714595512881146 0 -0.62932039886446345 forward_v I I I I #
loop $-1 $-1 $250 $60 #
coedge $-1 $154 $154 $155 $251 reversed $94 $-1 #
coedge $-1 $155 $155 $154 $251 forward $96 $-1 #
coedge $-1 $156 $156 $97 $157 forward $151 $-1 #
edge $-1 $252 0 $252 6.2831853071796004 $156 $253 forward 7 unknown #
face $-1 $254 $255 $33 $-1 $256 reversed single #
loop $-1 $-1 $257 $98 #
plane-surface $-1 -138.09431341622968 16.67015443517564 66.17929310963477 0 -1 0 0.78801076186113728 0 -0.61566146476048833 forward_v I I I I #
coedge $-1 $258 $259 $260 $261 reversed $99 $-1 #
coedge $-1 $163 $101 $262 $263 reversed $64 $-1 #
coedge $-1 $101 $162 $258 $264 reversed $64 $-1 #
coedge $-1 $260 $265 $101 $165 forward $266 $-1 #
edge $-1 $267 15.439563702957216 $268 19.922005783166973 $164 $269 forward 7 unknown #
loop $-1 $-1 $171 $102 #
plane-surface $-1 -53.607593005157611 13.441084798470932 0.1710346459558707 -0.78801076186113728 0 0.61566146476048833 0.61566146476048833 0 0.78801076186113728 forward_v I I I I #
loop $-1 $-1 $270 $66 #
coedge $-1 $169 $169 $170 $271 reversed $103 $-1 #
coedge $-1 $170 $170 $169 $271 forward $105 $-1 #
coedge $-1 $171 $171 $106 $172 forward $166 $-1 #
edge $-1 $272 0 $272 6.2831853071796004 $171 $273 forward 7 unknown #
loop $-1 $-1 $178 $107 #
plane-surface $-1 -53.607593005157611 13.441084798470932 0.1710346459558707 -0.78801076186113728 0 0.61566146476048833 0.61566146476048833 0 0.78801076186113728 forward_v I I I I #
loop $-1 $-1 $274 $69 #
coedge $-1 $176 $176 $177 $275 reversed $108 $-1 #
coedge $-1 $177 $177 $176 $275 forward $110 $-1 #
coedge $-1 $178 $178 $111 $179 forward $173 $-1 #
edge $-1 $276 0 $276 6.2831853071796004 $178 $277 forward 7 unknown #
face $-1 $278 $279 $27 $-1 $280 reversed single #
loop $-1 $-1 $281 $112 #
plane-surface $-1 -53.607593005157625 0 0 1 0 0 0 0 -1 forward_v I I I I #
coedge $-1 $282 $191 $283 $284 forward $113 $-1 #
coedge $-1 $285 $115 $282 $286 forward $73 $-1 #
coedge $-1 $115 $285 $287 $288 forward $73 $-1 #
coedge $-1 $194 $193 $115 $187 reversed $195 $-1 #
edge $-1 $289 -24.271558810590442 $290 24.271558810590442 $186 $291 forward 7 unknown #
coedge $-1 $117 $116 $292 $293 forward $46 $-1 #
coedge $-1 $294 $295 $116 $190 reversed $279 $-1 #
edge $-1 $197 -53.607593005157625 $296 53.607593005157625 $189 $297 forward 7 unknown #
coedge $-1 $183 $298 $117 $192 reversed $113 $-1 #
edge $-1 $299 -53.607593005157625 $196 53.607593005157625 $191 $300 forward 7 unknown #
coedge $-1 $186 $118 $298 $301 forward $195 $-1 #
coedge $-1 $118 $186 $294 $302 reversed $195 $-1 #
loop $-1 $-1 $193 $278 #
vertex $-1 $119 $303 #
vertex $-1 $119 $304 #
straight-curve $-1 53.607593005157625 0 5.9082990368636903 0 1 0 I I #
face $-1 $305 $306 $28 $-1 $307 reversed single #
loop $-1 $-1 $308 $120 #
plane-surface $-1 0 0 5.9082990368636903 0 0 1 1 0 0 forward_v I I I I #
coedge $-1 $309 $310 $311 $312 reversed $121 $-1 #
coedge $-1 $126 $123 $313 $314 reversed $77 $-1 #
coedge $-1 $123 $126 $315 $316 reversed $77 $-1 #
coedge $-1 $310 $309 $123 $206 reversed $121 $-1 #
edge $-1 $317 -5.9082990368636903 $318 5.9082990368636903 $205 $319 forward 7 unknown #
coedge $-1 $125 $124 $320 $321 reversed $49 $-1 #
coedge $-1 $313 $322 $124 $209 forward $306 $-1 #
edge $-1 $323 -14.036130499148921 $213 -6.4347261237341193 $208 $324 forward 7 unknown #
coedge $-1 $325 $315 $125 $211 forward $200 $-1 #
edge $-1 $212 6.4347261237341193 $326 14.036130499148921 $210 $327 forward 7 unknown #
vertex $-1 $211 $328 #
vertex $-1 $209 $329 #
straight-curve $-1 -44.790994931430248 -16.67015443517564 0 0 0 -1 I I #
face $-1 $330 $331 $29 $-1 $332 forward single #
loop $-1 $-1 $333 $128 #
plane-surface $-1 0 0 -5.9082990368636903 0 0 1 1 0 0 forward_v I I I I #
coedge $-1 $334 $335 $223 $336 forward $129 $-1 #
coedge $-1 $134 $131 $337 $338 reversed $81 $-1 #
coedge $-1 $131 $134 $339 $340 reversed $81 $-1 #
coedge $-1 $341 $342 $131 $222 forward $343 $-1 #
edge $-1 $344 -5.9082990368636903 $345 5.9082990368636903 $221 $346 forward 7 unknown #
coedge $-1 $133 $132 $218 $336 reversed $52 $-1 #
coedge $-1 $337 $333 $132 $225 forward $216 $-1 #
edge $-1 $347 20.145497465715124 $229 23.145497465715124 $224 $348 forward 7 unknown #
coedge $-1 $349 $339 $133 $227 forward $331 $-1 #
edge $-1 $228 -23.145497465715124 $350 -20.145497465715124 $226 $351 forward 7 unknown #
vertex $-1 $227 $352 #
vertex $-1 $225 $353 #
straight-curve $-1 -44.790994931430248 16.67015443517564 0 0 0 -1 I I #
face $-1 $-1 $354 $30 $-1 $355 reversed single #
loop $-1 $-1 $142 $136 #
plane-surface $-1 0 0 5.9082990368636903 0 0 1 1 0 0 forward_v I I I I #
coedge $-1 $356 $357 $358 $359 reversed $137 $-1 #
coedge $-1 $360 $139 $141 $241 forward $85 $-1 #
coedge $-1 $139 $360 $356 $361 forward $85 $-1 #
coedge $-1 $358 $142 $139 $238 forward $232 $-1 #
edge $-1 $244 -6.4596726889584808 $362 1.2215555431077938 $237 $363 forward 7 unknown #
coedge $-1 $364 $365 $140 $240 forward $354 $-1 #
edge $-1 $366 -74.672220341755065 $243 -70.214032382020122 $239 $367 forward 7 unknown #
edge $-1 $244 100.13105530713256 $366 107.21518601031526 $141 $368 forward 7 unknown #
coedge $-1 $142 $358 $364 $369 forward $232 $-1 #
vertex $-1 $143 $370 #
vertex $-1 $143 $371 #
straight-curve $-1 18.879224246598611 9.0787312618838243 5.9082990368636956 -1 0 0 I I #
coedge $-1 $246 $246 $-1 $372 reversed $146 $-1 #
edge $-1 $373 0 $373 6.2831853071796004 $147 $374 forward 7 unknown #
vertex $-1 $150 $375 #
ellipse-curve $-1 50.854891244366492 3.5921396675507715 3.6792050569962402 0.62932039886446345 0 0.77714595512881146 0.77714595512881146 0 -0.62932039886446345 1 I I #
coedge $-1 $250 $250 $-1 $376 reversed $153 $-1 #
edge $-1 $377 0 $377 6.2831853071796004 $154 $378 forward 7 unknown #
vertex $-1 $157 $379 #
ellipse-curve $-1 50.854891244366492 6.8840946241506025 3.6792050569962402 0.62932039886446345 0 0.77714595512881146 0.77714595512881146 0 -0.62932039886446345 1 I I #
face $-1 $-1 $266 $33 $-1 $380 forward single #
loop $-1 $-1 $381 $158 #
plane-surface $-1 -53.607593005157625 0 0 1 0 0 0 0 -1 forward_v I I I I #
coedge $-1 $382 $383 $384 $385 reversed $159 $-1 #
coedge $-1 $386 $161 $163 $264 forward $99 $-1 #
coedge $-1 $161 $386 $382 $387 forward $99 $-1 #
coedge $-1 $384 $164 $161 $261 forward $266 $-1 #
edge $-1 $268 3.4914727625307584 $388 9.9496120359401736 $260 $389 forward 7 unknown #
coedge $-1 $390 $391 $162 $263 forward $255 $-1 #
edge $-1 $392 -32.918611908861536 $267 -27.181347517953697 $262 $393 forward 7 unknown #
edge $-1 $268 -7.2806929404840259 $392 2.3075034077291584e-014 $163 $394 forward 7 unknown #
coedge $-1 $164 $384 $390 $395 forward $266 $-1 #
loop $-1 $-1 $384 $254 #
vertex $-1 $263 $396 #
vertex $-1 $165 $397 #
straight-curve $-1 -69.047156708114841 10.212015161766224 5.9082990368636885 1 0 0 I I #
coedge $-1 $270 $270 $-1 $398 reversed $168 $-1 #
edge $-1 $399 0 $399 6.2831853071796004 $169 $400 forward 7 unknown #
vertex $-1 $172 $401 #
ellipse-curve $-1 -51.366371965052743 12.057197811311774 3.0396668414097738 -0.78801076186113728 0 0.61566146476048833 0.30783073238024417 0 0.39400538093056864 1 I I #
coedge $-1 $274 $274 $-1 $402 reversed $175 $-1 #
edge $-1 $403 0 $403 6.2831853071796004 $176 $404 forward 7 unknown #
vertex $-1 $179 $405 #
ellipse-curve $-1 -51.366371965052743 14.82497178563009 3.0396668414097738 -0.78801076186113728 0 0.61566146476048833 0.30783073238024417 0 0.39400538093056864 1 I I #
face $-1 $-1 $195 $27 $-1 $406 reversed single #
loop $-1 $-1 $294 $180 #
plane-surface $-1 0 24.271558810590442 0 0 -1 0 0 0 -1 forward_v I I I I #
coedge $-1 $407 $292 $295 $408 forward $181 $-1 #
coedge $-1 $298 $183 $184 $286 reversed $113 $-1 #
coedge $-1 $292 $407 $183 $284 reversed $181 $-1 #
edge $-1 $299 -5.9082990368636903 $409 5.9082990368636903 $283 $410 forward 7 unknown #
coedge $-1 $185 $184 $407 $411 forward $73 $-1 #
edge $-1 $290 -53.607593005157625 $409 53.607593005157625 $282 $412 forward 7 unknown #
coedge $-1 $295 $294 $185 $288 reversed $279 $-1 #
edge $-1 $413 -53.607593005157625 $289 53.607593005157625 $287 $414 forward 7 unknown #
vertex $-1 $187 $415 #
vertex $-1 $301 $416 #
straight-curve $-1 53.607593005157625 0 -5.9082990368636903 0 -1 0 I I #
coedge $-1 $281 $283 $188 $293 reversed $181 $-1 #
edge $-1 $296 -24.271558810590442 $299 24.271558810590442 $292 $417 forward 7 unknown #
coedge $-1 $287 $189 $194 $302 forward $279 $-1 #
coedge $-1 $189 $287 $281 $408 reversed $279 $-1 #
vertex $-1 $190 $418 #
straight-curve $-1 0 24.271558810590442 5.9082990368636903 -1 0 0 I I #
coedge $-1 $191 $282 $193 $301 reversed $113 $-1 #
vertex $-1 $293 $419 #
straight-curve $-1 0 -24.271558810590442 5.9082990368636903 1 0 0 I I #
edge $-1 $196 -5.9082990368636903 $290 5.9082990368636903 $193 $420 forward 7 unknown #
edge $-1 $197 -5.9082990368636903 $289 5.9082990368636903 $194 $421 forward 7 unknown #
point $-1 53.607593005157625 -24.271558810590442 5.9082990368636903 #
point $-1 53.607593005157625 24.271558810590442 5.9082990368636903 #
face $-1 $-1 $422 $28 $-1 $423 reversed single #
loop $-1 $-1 $424 $199 #
plane-surface $-1 0 0 -5.9082990368636903 0 0 1 1 0 0 forward_v I I I I #
coedge $-1 $315 $325 $310 $425 forward $200 $-1 #
coedge $-1 $205 $202 $424 $426 reversed $121 $-1 #
coedge $-1 $202 $205 $308 $425 reversed $121 $-1 #
coedge $-1 $427 $428 $202 $312 forward $422 $-1 #
edge $-1 $429 -5.9082990368636903 $430 5.9082990368636903 $311 $431 forward 7 unknown #
coedge $-1 $424 $208 $203 $314 forward $306 $-1 #
edge $-1 $213 -23.145497465715124 $318 -20.145497465715124 $313 $432 forward 7 unknown #
coedge $-1 $210 $308 $204 $316 forward $200 $-1 #
edge $-1 $317 20.145497465715124 $212 23.145497465715124 $315 $433 forward 7 unknown #
vertex $-1 $316 $434 #
vertex $-1 $314 $435 #
straight-curve $-1 -41.790994931430248 -16.67015443517564 0 0 0 -1 I I #
coedge $-1 $428 $427 $207 $321 forward $422 $-1 #
edge $-1 $326 -5.9082990368636903 $323 5.9082990368636903 $320 $436 forward 7 unknown #
coedge $-1 $208 $424 $428 $437 forward $306 $-1 #
vertex $-1 $209 $438 #
straight-curve $-1 -44.790994931430248 -10.23542831144152 -5.9082990368636903 0 1 0 I I #
coedge $-1 $308 $210 $427 $439 forward $200 $-1 #
vertex $-1 $439 $440 #
straight-curve $-1 -44.790994931430248 -10.23542831144152 5.9082990368636903 0 -1 0 I I #
point $-1 -44.790994931430248 -16.67015443517564 5.9082990368636903 #
point $-1 -44.790994931430248 -16.67015443517564 -5.9082990368636903 #
face $-1 $-1 $343 $29 $-1 $441 reversed single #
loop $-1 $-1 $349 $215 #
plane-surface $-1 0 0 5.9082990368636903 0 0 1 1 0 0 forward_v I I I I #
coedge $-1 $224 $442 $334 $443 forward $216 $-1 #
coedge $-1 $444 $218 $333 $443 reversed $129 $-1 #
coedge $-1 $218 $444 $349 $445 reversed $129 $-1 #
edge $-1 $350 -5.9082990368636903 $347 5.9082990368636903 $218 $446 forward 7 unknown #
coedge $-1 $442 $224 $219 $338 forward $216 $-1 #
edge $-1 $229 6.4347261237341193 $344 14.036130499148921 $337 $447 forward 7 unknown #
coedge $-1 $226 $448 $220 $340 forward $331 $-1 #
edge $-1 $345 -14.036130499148921 $228 -6.4347261237341193 $339 $449 forward 7 unknown #
coedge $-1 $450 $221 $448 $451 reversed $343 $-1 #
coedge $-1 $221 $450 $442 $452 reversed $343 $-1 #
loop $-1 $-1 $450 $330 #
vertex $-1 $452 $453 #
vertex $-1 $222 $454 #
straight-curve $-1 -44.790994931430248 24.271558810590442 0 0 0 1 I I #
vertex $-1 $225 $455 #
straight-curve $-1 -21.645497465715124 16.67015443517564 -5.9082990368636903 -1 0 0 I I #
coedge $-1 $448 $226 $335 $445 forward $331 $-1 #
vertex $-1 $227 $456 #
straight-curve $-1 -21.645497465715124 16.67015443517564 5.9082990368636903 1 0 0 I I #
point $-1 -44.790994931430248 16.67015443517564 5.9082990368636903 #
point $-1 -44.790994931430248 16.67015443517564 -5.9082990368636903 #
loop $-1 $-1 $239 $231 #
plane-surface $-1 53.607593005157625 0 0 -1 0 0 0 0 1 forward_v I I I I #
coedge $-1 $357 $234 $236 $361 reversed $137 $-1 #
coedge $-1 $234 $356 $457 $458 reversed $137 $-1 #
coedge $-1 $242 $237 $234 $359 forward $232 $-1 #
edge $-1 $362 29.222965236976748 $459 34.728368758559014 $358 $460 forward 7 unknown #
coedge $-1 $236 $235 $365 $461 reversed $85 $-1 #
edge $-1 $462 -107.21518601031526 $362 -100.13105530713256 $356 $463 forward 7 unknown #
vertex $-1 $238 $464 #
straight-curve $-1 48.102189483575373 2.6190585729253435 5.9082990368636885 0 -1 0 I I #
coedge $-1 $457 $239 $242 $369 reversed $354 $-1 #
coedge $-1 $239 $457 $360 $461 forward $354 $-1 #
vertex $-1 $240 $465 #
straight-curve $-1 53.607593005157625 9.0787312618838243 76.122331418883817 0 0 1 I I #
straight-curve $-1 -29.714255131142011 9.0787312618838243 68.922814701467999 0.77714595512881146 0 -0.62932039886446345 I I #
edge $-1 $459 1.3975030298175497 $243 9.0787312618838243 $364 $466 forward 7 unknown #
point $-1 53.607593005157625 9.0787312618838243 5.9082990368636903 #
point $-1 48.102189483575359 9.0787312618838243 5.9082990368636885 #
edge $-1 $467 1 $467 0 $246 $-1 forward 7 unknown #
vertex $-1 $247 $468 #
ellipse-curve $-1 49.02959896654793 3.5921396675507715 1.4251568596168087 0.62932039886446345 0 0.77714595512881146 0.77714595512881146 0 -0.62932039886446345 1 I I #
point $-1 51.632037199495301 3.5921396675507715 3.0498846581317811 #
edge $-1 $469 1 $469 0 $250 $-1 forward 7 unknown #
vertex $-1 $251 $470 #
ellipse-curve $-1 49.02959896654793 6.8840946241506025 1.4251568596168087 0.62932039886446345 0 0.77714595512881146 0.77714595512881146 0 -0.62932039886446345 1 I I #
point $-1 51.632037199495301 6.8840946241506025 3.0498846581317811 #
plane-surface $-1 0 0 5.9082990368636903 0 0 1 1 0 0 forward_v I I I I #
coedge $-1 $391 $390 $383 $471 forward $255 $-1 #
coedge $-1 $383 $257 $259 $387 reversed $159 $-1 #
coedge $-1 $257 $382 $381 $471 reversed $159 $-1 #
coedge $-1 $265 $260 $257 $385 forward $266 $-1 #
edge $-1 $388 -19.922005783166973 $472 -15.439563702957216 $384 $473 forward 7 unknown #
coedge $-1 $259 $258 $391 $474 reversed $99 $-1 #
edge $-1 $475 -2.3075034077291584e-014 $388 7.2806929404840259 $382 $476 forward 7 unknown #
vertex $-1 $261 $477 #
straight-curve $-1 -49.125150924947867 6.720542399235466 5.9082990368636885 0 1 0 I I #
coedge $-1 $381 $262 $265 $395 reversed $255 $-1 #
coedge $-1 $262 $381 $386 $474 forward $255 $-1 #
vertex $-1 $263 $478 #
straight-curve $-1 -53.607593005157625 10.212015161766224 33.089646554817385 0 0 1 I I #
straight-curve $-1 -53.607593005157611 10.212015161766224 0.1710346459558707 -0.61566146476048833 0 -0.78801076186113728 I I #
edge $-1 $472 -16.67015443517564 $267 -10.212015161766224 $390 $479 forward 7 unknown #
point $-1 -53.607593005157625 10.212015161766224 5.9082990368636903 #
point $-1 -49.125150924947867 10.212015161766224 5.9082990368636903 #
edge $-1 $480 1 $480 0 $270 $-1 forward 7 unknown #
vertex $-1 $271 $481 #
ellipse-curve $-1 -50.578361203191619 12.057197811311774 2.4240053766492968 -0.78801076186113728 0 0.61566146476048833 0.30783073238024417 0 0.39400538093056864 1 I I #
point $-1 -51.058541232672511 12.057197811311774 3.4336722223403537 #
edge $-1 $482 1 $482 0 $274 $-1 forward 7 unknown #
vertex $-1 $275 $483 #
ellipse-curve $-1 -50.578361203191619 14.82497178563009 2.4240053766492968 -0.78801076186113728 0 0.61566146476048833 0.30783073238024417 0 0.39400538093056864 1 I I #
point $-1 -51.058541232672511 14.82497178563009 3.4336722223403537 #
plane-surface $-1 53.607593005157625 0 0 -1 0 0 0 0 1 forward_v I I I I #
coedge $-1 $283 $281 $285 $411 reversed $181 $-1 #
edge $-1 $296 -5.9082990368636903 $413 5.9082990368636903 $295 $484 forward 7 unknown #
vertex $-1 $411 $485 #
straight-curve $-1 -53.607593005157625 -24.271558810590442 0 0 0 -1 I I #
edge $-1 $409 -24.271558810590442 $413 24.271558810590442 $407 $486 forward 7 unknown #
straight-curve $-1 0 -24.271558810590442 -5.9082990368636903 -1 0 0 I I #
vertex $-1 $288 $487 #
straight-curve $-1 0 24.271558810590442 -5.9082990368636903 1 0 0 I I #
point $-1 53.607593005157625 24.271558810590442 -5.9082990368636903 #
point $-1 53.607593005157625 -24.271558810590442 -5.9082990368636903 #
straight-curve $-1 -53.607593005157625 0 5.9082990368636903 0 -1 0 I I #
point $-1 -53.607593005157625 24.271558810590442 5.9082990368636903 #
point $-1 -53.607593005157625 -24.271558810590442 5.9082990368636903 #
straight-curve $-1 53.607593005157625 -24.271558810590442 0 0 0 -1 I I #
straight-curve $-1 53.607593005157625 24.271558810590442 0 0 0 -1 I I #
loop $-1 $-1 $311 $305 #
plane-surface $-1 0 -24.271558810590442 0 0 1 0 0 0 1 forward_v I I I I #
coedge $-1 $322 $313 $309 $426 forward $306 $-1 #
edge $-1 $430 -14.036130499148921 $317 -6.4347261237341193 $308 $488 forward 7 unknown #
edge $-1 $318 6.4347261237341193 $429 14.036130499148921 $424 $489 forward 7 unknown #
coedge $-1 $320 $311 $325 $439 reversed $422 $-1 #
coedge $-1 $311 $320 $322 $437 reversed $422 $-1 #
vertex $-1 $437 $490 #
vertex $-1 $312 $491 #
straight-curve $-1 -41.790994931430248 -24.271558810590442 0 0 0 1 I I #
straight-curve $-1 -21.645497465715124 -16.67015443517564 -5.9082990368636903 1 0 0 I I #
straight-curve $-1 -21.645497465715124 -16.67015443517564 5.9082990368636903 -1 0 0 I I #
point $-1 -41.790994931430248 -16.67015443517564 5.9082990368636903 #
point $-1 -41.790994931430248 -16.67015443517564 -5.9082990368636903 #
straight-curve $-1 -44.790994931430248 -24.271558810590442 0 0 0 -1 I I #
edge $-1 $429 41.790994931430248 $323 44.790994931430248 $428 $492 forward 7 unknown #
point $-1 -44.790994931430248 -24.271558810590442 -5.9082990368636903 #
edge $-1 $326 -44.790994931430248 $430 -41.790994931430248 $427 $493 forward 7 unknown #
point $-1 -44.790994931430248 -24.271558810590442 5.9082990368636903 #
plane-surface $-1 0 24.271558810590442 0 0 -1 0 0 0 -1 forward_v I I I I #
coedge $-1 $333 $337 $342 $452 forward $216 $-1 #
edge $-1 $494 -14.036130499148921 $347 -6.4347261237341193 $333 $495 forward 7 unknown #
coedge $-1 $335 $334 $450 $496 reversed $129 $-1 #
edge $-1 $350 6.4347261237341193 $497 14.036130499148921 $349 $498 forward 7 unknown #
straight-curve $-1 -41.790994931430248 16.67015443517564 0 0 0 -1 I I #
straight-curve $-1 -44.790994931430248 10.23542831144152 -5.9082990368636903 0 1 0 I I #
coedge $-1 $339 $349 $341 $451 forward $331 $-1 #
straight-curve $-1 -44.790994931430248 10.23542831144152 5.9082990368636903 0 -1 0 I I #
coedge $-1 $342 $341 $444 $496 forward $343 $-1 #
edge $-1 $497 41.790994931430248 $345 44.790994931430248 $341 $499 forward 7 unknown #
edge $-1 $344 -44.790994931430248 $494 -41.790994931430248 $342 $500 forward 7 unknown #
point $-1 -44.790994931430248 24.271558810590442 -5.9082990368636903 #
point $-1 -44.790994931430248 24.271558810590442 5.9082990368636903 #
point $-1 -41.790994931430248 16.67015443517564 -5.9082990368636903 #
point $-1 -41.790994931430248 16.67015443517564 5.9082990368636903 #
coedge $-1 $365 $364 $357 $458 forward $354 $-1 #
edge $-1 $459 70.214032382020122 $462 74.672220341755065 $457 $501 forward 7 unknown #
vertex $-1 $369 $502 #
straight-curve $-1 18.879224246598611 1.3975030298175497 5.9082990368636956 1 0 0 I I #
edge $-1 $462 -1.2215555431077938 $366 6.4596726889584808 $365 $503 forward 7 unknown #
vertex $-1 $461 $504 #
straight-curve $-1 -29.714255131142011 1.3975030298175497 68.922814701467999 -0.77714595512881146 0 0.62932039886446345 I I #
point $-1 48.102189483575359 1.3975030298175497 5.9082990368636885 #
point $-1 53.607593005157625 9.0787312618838243 1.4501110771287529 #
straight-curve $-1 53.607593005157625 0 5.9082990368636903 0 1 0 I I #
vertex $-1 $372 $505 #
point $-1 49.806744921676739 3.5921396675507715 0.79583646075234515 #
vertex $-1 $376 $506 #
point $-1 49.806744921676739 6.8840946241506025 0.79583646075234515 #
edge $-1 $472 27.181347517953697 $475 32.918611908861536 $381 $507 forward 7 unknown #
vertex $-1 $395 $508 #
straight-curve $-1 -69.047156708114841 16.67015443517564 5.9082990368636885 -1 0 0 I I #
edge $-1 $475 -9.9496120359401736 $392 -3.4914727625307584 $391 $509 forward 7 unknown #
vertex $-1 $474 $510 #
straight-curve $-1 -53.607593005157611 16.67015443517564 0.1710346459558707 0.61566146476048833 0 0.78801076186113728 I I #
point $-1 -49.125150924947867 16.67015443517564 5.9082990368636903 #
point $-1 -53.607593005157625 10.212015161766224 0.17103464595585252 #
straight-curve $-1 -53.607593005157625 0 5.9082990368636903 0 -1 0 I I #
vertex $-1 $398 $511 #
point $-1 -50.27053047081138 12.057197811311774 2.8180107575798652 #
vertex $-1 $402 $512 #
point $-1 -50.27053047081138 14.82497178563009 2.8180107575798652 #
straight-curve $-1 -53.607593005157625 24.271558810590442 0 0 0 -1 I I #
point $-1 -53.607593005157625 -24.271558810590442 -5.9082990368636903 #
straight-curve $-1 -53.607593005157625 0 -5.9082990368636903 0 1 0 I I #
point $-1 -53.607593005157625 24.271558810590442 -5.9082990368636903 #
straight-curve $-1 -41.790994931430248 -10.23542831144152 5.9082990368636903 0 1 0 I I #
straight-curve $-1 -41.790994931430248 -10.23542831144152 -5.9082990368636903 0 -1 0 I I #
point $-1 -41.790994931430248 -24.271558810590442 -5.9082990368636903 #
point $-1 -41.790994931430248 -24.271558810590442 5.9082990368636903 #
straight-curve $-1 0 -24.271558810590442 -5.9082990368636903 -1 0 0 I I #
straight-curve $-1 0 -24.271558810590442 5.9082990368636903 1 0 0 I I #
vertex $-1 $496 $513 #
straight-curve $-1 -41.790994931430248 10.23542831144152 -5.9082990368636903 0 -1 0 I I #
edge $-1 $497 -5.9082990368636903 $494 5.9082990368636903 $450 $514 forward 7 unknown #
vertex $-1 $451 $515 #
straight-curve $-1 -41.790994931430248 10.23542831144152 5.9082990368636903 0 1 0 I I #
straight-curve $-1 0 24.271558810590442 5.9082990368636903 -1 0 0 I I #
straight-curve $-1 0 24.271558810590442 -5.9082990368636903 1 0 0 I I #
straight-curve $-1 53.607593005157625 1.3975030298175497 76.122331418883817 0 0 -1 I I #
point $-1 53.607593005157625 1.3975030298175497 5.9082990368636903 #
straight-curve $-1 53.607593005157632 2.6190585729253435 1.45011107712876 0 1 0 I I #
point $-1 53.607593005157625 1.3975030298175497 1.4501110771287529 #
point $-1 48.400278567683465 3.5921396675507715 0.64801090448799714 #
point $-1 48.400278567683465 6.8840946241506025 0.64801090448799714 #
straight-curve $-1 -53.607593005157625 16.67015443517564 33.089646554817385 0 0 -1 I I #
point $-1 -53.607593005157625 16.67015443517564 5.9082990368636903 #
straight-curve $-1 -53.607593005157625 6.720542399235466 0.17103464595585446 0 -1 0 I I #
point $-1 -53.607593005157625 16.67015443517564 0.17103464595585252 #
point $-1 -50.184355822261054 12.057197811311774 2.1161746442690523 #
point $-1 -50.184355822261054 14.82497178563009 2.1161746442690523 #
point $-1 -41.790994931430248 24.271558810590442 -5.9082990368636903 #
straight-curve $-1 -41.790994931430248 24.271558810590442 0 0 0 -1 I I #
point $-1 -41.790994931430248 24.271558810590442 5.9082990368636903 #
End-of-ACIS-data 