500 0 10 0           
7 Unknown 11 ACIS 5.0 NT 24 Thu Mar 25 23:23:41 1999 
-1 9.9999999999999995e-007 1e-010 
body $-1 $10 $-1 $11 #
body $-1 $12 $-1 $13 #
body $-1 $14 $-1 $15 #
body $-1 $16 $-1 $17 #
body $-1 $18 $-1 $19 #
body $-1 $20 $-1 $21 #
body $-1 $22 $-1 $23 #
body $-1 $24 $-1 $25 #
body $-1 $26 $-1 $27 #
body $-1 $28 $-1 $29 #
lump $-1 $-1 $30 $0 #
transform $-1 1 0 0 0 1 0 0 0 1 67.95129245887631 32.448727785959335 10.228276308788097 1 rotate no_reflect no_shear #
lump $-1 $-1 $31 $1 #
transform $-1 1 0 0 0 1 0 0 0 1 67.95129245887631 32.448727785959335 10.228276308788097 1 rotate no_reflect no_shear #
lump $-1 $-1 $32 $2 #
transform $-1 1 0 0 0 1 0 0 0 1 67.95129245887631 32.448727785959335 10.228276308788097 1 rotate no_reflect no_shear #
lump $-1 $-1 $33 $3 #
transform $-1 1 0 0 0 1 0 0 0 1 67.95129245887631 32.448727785959335 10.228276308788097 1 rotate no_reflect no_shear #
lump $-1 $-1 $34 $4 #
transform $-1 1 0 0 0 1 0 0 0 1 67.95129245887631 32.448727785959335 10.228276308788097 1 rotate no_reflect no_shear #
lump $-1 $-1 $35 $5 #
transform $-1 1 0 0 0 1 0 0 0 1 67.95129245887631 32.448727785959335 10.228276308788097 1 rotate no_reflect no_shear #
lump $-1 $-1 $36 $6 #
transform $-1 1 0 0 0 1 0 0 0 1 67.95129245887631 32.448727785959335 10.228276308788097 1 rotate no_reflect no_shear #
lump $-1 $-1 $37 $7 #
transform $-1 1 0 0 0 1 0 0 0 1 67.95129245887631 32.448727785959335 10.228276308788097 1 rotate no_reflect no_shear #
lump $-1 $-1 $38 $8 #
transform $-1 1 0 0 0 1 0 0 0 1 67.95129245887631 32.448727785959335 10.228276308788097 1 rotate no_reflect no_shear #
lump $-1 $-1 $39 $9 #
transform $-1 1 0 0 0 1 0 0 0 1 67.95129245887631 32.448727785959335 10.228276308788097 1 rotate no_reflect no_shear #
shell $-1 $-1 $-1 $40 $-1 $10 #
shell $-1 $-1 $-1 $41 $-1 $12 #
shell $-1 $-1 $-1 $42 $-1 $14 #
shell $-1 $-1 $-1 $43 $-1 $16 #
shell $-1 $-1 $-1 $44 $-1 $18 #
shell $-1 $-1 $-1 $45 $-1 $20 #
shell $-1 $-1 $-1 $46 $-1 $22 #
shell $-1 $-1 $-1 $47 $-1 $24 #
shell $-1 $-1 $-1 $48 $-1 $26 #
shell $-1 $-1 $-1 $49 $-1 $28 #
face $-1 $50 $51 $30 $-1 $52 forward single #
face $-1 $53 $54 $31 $-1 $55 reversed single #
face $-1 $56 $57 $32 $-1 $58 forward single #
face $-1 $59 $60 $33 $-1 $61 forward single #
face $-1 $62 $63 $34 $-1 $64 reversed single #
face $-1 $65 $66 $35 $-1 $67 forward single #
face $-1 $68 $69 $36 $-1 $70 forward single #
face $-1 $71 $72 $37 $-1 $73 reversed single #
face $-1 $74 $75 $38 $-1 $76 forward single #
face $-1 $77 $78 $39 $-1 $79 forward single #
face $-1 $80 $81 $30 $-1 $82 reversed single #
loop $-1 $-1 $83 $40 #
plane-surface $-1 0 0 10.228276308788097 0 0 1 1 0 0 forward_v I I I I #
face $-1 $84 $85 $31 $-1 $86 reversed single #
loop $-1 $-1 $87 $41 #
plane-surface $-1 21.455047788386409 21.95703518666356 188.65074805643957 0 1 0 0.51503808176128008 0 0.85716729658548041 forward_v I I I I #
face $-1 $88 $89 $32 $-1 $90 forward single #
loop $-1 $91 $92 $42 #
cone-surface $-1 60.569983717752002 24.954661643605213 5.0794654682235905 -0.51503808176128008 0 -0.85716729658548041 0.85716729658548041 0 -0.51503808176128008 1 I I 0 1 1 forward I I I I #
face $-1 $93 $94 $33 $-1 $95 forward single #
loop $-1 $96 $97 $43 #
cone-surface $-1 60.569983717752002 29.451101329017689 5.0794654682235905 -0.51503808176128008 0 -0.85716729658548041 0.85716729658548041 0 -0.51503808176128008 1 I I 0 1 1 forward I I I I #
face $-1 $98 $99 $34 $-1 $100 reversed single #
loop $-1 $-1 $101 $44 #
plane-surface $-1 -183.20322193809037 -7.2092879507365311 72.785953310565333 0 1 0 -0.84804810408105047 0 0.52991925155115449 forward_v I I I I #
face $-1 $102 $103 $35 $-1 $104 forward single #
loop $-1 $105 $106 $45 #
cone-surface $-1 -64.136027782221575 -5.1494913933832365 4.9612037884735365 0.84804810408105047 0 -0.52991925155115449 0.52991925155115449 0 0.84804810408105047 1 I I 0 1 1 forward I I I I #
face $-1 $107 $108 $36 $-1 $109 forward single #
loop $-1 $110 $111 $46 #
cone-surface $-1 -64.136027782221575 -2.0597965573532946 4.9612037884735365 0.84804810408105047 0 -0.52991925155115449 0.52991925155115449 0 0.84804810408105047 1 I I 0 1 1 forward I I I I #
face $-1 $112 $113 $37 $-1 $114 reversed single #
loop $-1 $-1 $115 $47 #
plane-surface $-1 -183.20322193809037 25.239439835222807 72.785953310565333 0 1 0 -0.84804810408105047 0 0.52991925155115449 forward_v I I I I #
face $-1 $116 $117 $38 $-1 $118 forward single #
loop $-1 $119 $120 $48 #
cone-surface $-1 -64.136027782221575 27.299236392576098 4.9612037884735365 0.84804810408105047 0 -0.52991925155115449 0.52991925155115449 0 0.84804810408105047 1 I I 0 1 1 forward I I I I #
face $-1 $121 $122 $39 $-1 $123 forward single #
loop $-1 $124 $125 $49 #
cone-surface $-1 -64.136027782221575 30.38893122860604 4.9612037884735365 0.84804810408105047 0 -0.52991925155115449 0.52991925155115449 0 0.84804810408105047 1 I I 0 1 1 forward I I I I #
face $-1 $126 $127 $30 $-1 $128 reversed single #
loop $-1 $-1 $129 $50 #
plane-surface $-1 0 0 -10.228276308788097 0 0 1 1 0 0 forward_v I I I I #
coedge $-1 $130 $131 $132 $133 forward $51 $-1 #
face $-1 $134 $135 $31 $-1 $136 forward single #
loop $-1 $-1 $137 $53 #
plane-surface $-1 -48.539958854052372 27.202881486311448 72.159496743510871 0.51503808176128008 0 0.85716729658548041 0.85716729658548041 0 -0.51503808176128008 forward_v I I I I #
coedge $-1 $138 $139 $140 $141 reversed $54 $-1 #
face $-1 $-1 $142 $32 $-1 $143 forward single #
loop $-1 $144 $145 $56 #
cone-surface $-1 59.64135278204057 24.954661643605213 3.5339640832243475 -0.51503808176128008 0 -0.85716729658548041 0.4285836482927402 0 -0.25751904088064004 1 I I -0.70710678118654746 0.70710678118654746 0.5 forward I I I I #
loop $-1 $-1 $146 $42 #
coedge $-1 $92 $92 $147 $148 reversed $57 $-1 #
face $-1 $-1 $149 $33 $-1 $150 forward single #
loop $-1 $151 $152 $59 #
cone-surface $-1 59.64135278204057 29.451101329017689 3.5339640832243475 -0.51503808176128008 0 -0.85716729658548041 0.4285836482927402 0 -0.25751904088064004 1 I I -0.70710678118654746 0.70710678118654746 0.5 forward I I I I #
loop $-1 $-1 $153 $43 #
coedge $-1 $97 $97 $154 $155 reversed $60 $-1 #
face $-1 $156 $157 $34 $-1 $158 reversed single #
loop $-1 $-1 $159 $62 #
plane-surface $-1 -67.951292458876296 -3.6046439753682655 0.76855722708265262 -0.84804810408105047 0 0.52991925155115449 0.52991925155115449 0 0.84804810408105047 forward_v I I I I #
coedge $-1 $160 $161 $162 $163 reversed $63 $-1 #
face $-1 $-1 $164 $35 $-1 $165 forward single #
loop $-1 $166 $167 $65 #
cone-surface $-1 -62.85228322109068 -5.1494913933832365 4.1590311832361149 0.84804810408105047 0 -0.52991925155115449 0.26495962577557725 0 0.42402405204052523 1 I I -0.70710678118654779 0.70710678118654713 0.5 forward I I I I #
loop $-1 $-1 $168 $45 #
coedge $-1 $106 $106 $169 $170 reversed $66 $-1 #
face $-1 $-1 $171 $36 $-1 $172 forward single #
loop $-1 $173 $174 $68 #
cone-surface $-1 -62.85228322109068 -2.0597965573532946 4.1590311832361149 0.84804810408105047 0 -0.52991925155115449 0.26495962577557725 0 0.42402405204052523 1 I I -0.70710678118654779 0.70710678118654713 0.5 forward I I I I #
loop $-1 $-1 $175 $46 #
coedge $-1 $111 $111 $176 $177 reversed $69 $-1 #
face $-1 $178 $179 $37 $-1 $180 forward single #
loop $-1 $-1 $181 $71 #
plane-surface $-1 -67.951292458876296 28.844083810591073 0.76855722708265262 -0.84804810408105047 0 0.52991925155115449 0.52991925155115449 0 0.84804810408105047 forward_v I I I I #
coedge $-1 $182 $183 $184 $185 reversed $72 $-1 #
face $-1 $-1 $186 $38 $-1 $187 forward single #
loop $-1 $188 $189 $74 #
cone-surface $-1 -62.85228322109068 27.299236392576098 4.1590311832361149 0.84804810408105047 0 -0.52991925155115449 0.26495962577557725 0 0.42402405204052523 1 I I -0.70710678118654779 0.70710678118654713 0.5 forward I I I I #
loop $-1 $-1 $190 $48 #
coedge $-1 $120 $120 $191 $192 reversed $75 $-1 #
face $-1 $-1 $193 $39 $-1 $194 forward single #
loop $-1 $195 $196 $77 #
cone-surface $-1 -62.85228322109068 30.38893122860604 4.1590311832361149 0.84804810408105047 0 -0.52991925155115449 0.26495962577557725 0 0.42402405204052523 1 I I -0.70710678118654779 0.70710678118654713 0.5 forward I I I I #
loop $-1 $-1 $197 $49 #
coedge $-1 $125 $125 $198 $199 reversed $78 $-1 #
face $-1 $200 $201 $30 $-1 $202 reversed single #
loop $-1 $-1 $203 $80 #
plane-surface $-1 0 -32.448727785959335 0 0 1 0 0 0 1 forward_v I I I I #
coedge $-1 $204 $205 $206 $207 forward $81 $-1 #
coedge $-1 $208 $83 $209 $210 forward $51 $-1 #
coedge $-1 $83 $208 $211 $212 forward $51 $-1 #
coedge $-1 $213 $214 $83 $133 reversed $215 $-1 #
edge $-1 $216 -32.448727785959335 $217 32.448727785959335 $132 $218 forward 7 unknown #
face $-1 $219 $220 $31 $-1 $221 reversed single #
loop $-1 $-1 $222 $84 #
plane-surface $-1 0 0 10.228276308788097 0 0 1 1 0 0 forward_v I I I I #
coedge $-1 $223 $224 $225 $226 reversed $85 $-1 #
coedge $-1 $139 $87 $227 $228 reversed $54 $-1 #
coedge $-1 $87 $138 $223 $229 reversed $54 $-1 #
coedge $-1 $225 $230 $87 $141 forward $220 $-1 #
edge $-1 $231 84.097097719431687 $232 92.16088392714768 $140 $233 forward 7 unknown #
loop $-1 $-1 $147 $88 #
plane-surface $-1 -48.539958854052372 27.202881486311448 72.159496743510871 0.51503808176128008 0 0.85716729658548041 0.85716729658548041 0 -0.51503808176128008 forward_v I I I I #
loop $-1 $-1 $234 $56 #
coedge $-1 $145 $145 $146 $235 reversed $89 $-1 #
coedge $-1 $146 $146 $145 $235 forward $91 $-1 #
coedge $-1 $147 $147 $92 $148 forward $142 $-1 #
edge $-1 $236 0 $236 6.2831853071796004 $147 $237 forward 7 unknown #
loop $-1 $-1 $154 $93 #
plane-surface $-1 -48.539958854052372 27.202881486311448 72.159496743510871 0.51503808176128008 0 0.85716729658548041 0.85716729658548041 0 -0.51503808176128008 forward_v I I I I #
loop $-1 $-1 $238 $59 #
coedge $-1 $152 $152 $153 $239 reversed $94 $-1 #
coedge $-1 $153 $153 $152 $239 forward $96 $-1 #
coedge $-1 $154 $154 $97 $155 forward $149 $-1 #
edge $-1 $240 0 $240 6.2831853071796004 $154 $241 forward 7 unknown #
face $-1 $242 $243 $34 $-1 $244 reversed single #
loop $-1 $-1 $245 $98 #
plane-surface $-1 -183.20322193809037 0 72.785953310565333 0 -1 0 0.84804810408105047 0 -0.52991925155115449 forward_v I I I I #
coedge $-1 $246 $247 $248 $249 reversed $99 $-1 #
coedge $-1 $161 $101 $250 $251 reversed $63 $-1 #
coedge $-1 $101 $160 $246 $252 reversed $63 $-1 #
coedge $-1 $248 $253 $101 $163 forward $254 $-1 #
edge $-1 $255 23.650318510168873 $256 29.561406845297604 $162 $257 forward 7 unknown #
loop $-1 $-1 $169 $102 #
plane-surface $-1 -67.951292458876296 -3.6046439753682655 0.76855722708265262 -0.84804810408105047 0 0.52991925155115449 0.52991925155115449 0 0.84804810408105047 forward_v I I I I #
loop $-1 $-1 $258 $65 #
coedge $-1 $167 $167 $168 $259 reversed $103 $-1 #
coedge $-1 $168 $168 $167 $259 forward $105 $-1 #
coedge $-1 $169 $169 $106 $170 forward $164 $-1 #
edge $-1 $260 0 $260 6.2831853071796004 $169 $261 forward 7 unknown #
loop $-1 $-1 $176 $107 #
plane-surface $-1 -67.951292458876296 -3.6046439753682655 0.76855722708265262 -0.84804810408105047 0 0.52991925155115449 0.52991925155115449 0 0.84804810408105047 forward_v I I I I #
loop $-1 $-1 $262 $68 #
coedge $-1 $174 $174 $175 $263 reversed $108 $-1 #
coedge $-1 $175 $175 $174 $263 forward $110 $-1 #
coedge $-1 $176 $176 $111 $177 forward $171 $-1 #
edge $-1 $264 0 $264 6.2831853071796004 $176 $265 forward 7 unknown #
face $-1 $266 $267 $37 $-1 $268 reversed single #
loop $-1 $-1 $184 $112 #
plane-surface $-1 0 0 10.228276308788097 0 0 1 1 0 0 forward_v I I I I #
coedge $-1 $269 $270 $271 $272 reversed $113 $-1 #
coedge $-1 $183 $115 $273 $274 reversed $72 $-1 #
coedge $-1 $115 $182 $269 $275 reversed $72 $-1 #
coedge $-1 $271 $276 $115 $185 forward $179 $-1 #
edge $-1 $277 23.650318510168873 $278 29.561406845297604 $184 $279 forward 7 unknown #
loop $-1 $-1 $191 $116 #
plane-surface $-1 -67.951292458876296 28.844083810591073 0.76855722708265262 -0.84804810408105047 0 0.52991925155115449 0.52991925155115449 0 0.84804810408105047 forward_v I I I I #
loop $-1 $-1 $280 $74 #
coedge $-1 $189 $189 $190 $281 reversed $117 $-1 #
coedge $-1 $190 $190 $189 $281 forward $119 $-1 #
coedge $-1 $191 $191 $120 $192 forward $186 $-1 #
edge $-1 $282 0 $282 6.2831853071796004 $191 $283 forward 7 unknown #
loop $-1 $-1 $198 $121 #
plane-surface $-1 -67.951292458876296 28.844083810591073 0.76855722708265262 -0.84804810408105047 0 0.52991925155115449 0.52991925155115449 0 0.84804810408105047 forward_v I I I I #
loop $-1 $-1 $284 $77 #
coedge $-1 $196 $196 $197 $285 reversed $122 $-1 #
coedge $-1 $197 $197 $196 $285 forward $124 $-1 #
coedge $-1 $198 $198 $125 $199 forward $193 $-1 #
edge $-1 $286 0 $286 6.2831853071796004 $198 $287 forward 7 unknown #
face $-1 $288 $289 $30 $-1 $290 reversed single #
loop $-1 $-1 $291 $126 #
plane-surface $-1 -67.95129245887631 0 0 1 0 0 0 0 -1 forward_v I I I I #
coedge $-1 $292 $211 $293 $294 forward $127 $-1 #
coedge $-1 $295 $129 $292 $296 forward $81 $-1 #
coedge $-1 $129 $295 $297 $298 forward $81 $-1 #
coedge $-1 $214 $213 $129 $207 reversed $215 $-1 #
edge $-1 $299 -32.448727785959335 $300 32.448727785959335 $206 $301 forward 7 unknown #
coedge $-1 $131 $130 $302 $303 forward $51 $-1 #
coedge $-1 $304 $305 $130 $210 reversed $289 $-1 #
edge $-1 $217 -67.95129245887631 $306 67.95129245887631 $209 $307 forward 7 unknown #
coedge $-1 $203 $308 $131 $212 reversed $127 $-1 #
edge $-1 $309 -67.95129245887631 $216 67.95129245887631 $211 $310 forward 7 unknown #
coedge $-1 $206 $132 $308 $311 forward $215 $-1 #
coedge $-1 $132 $206 $304 $312 reversed $215 $-1 #
loop $-1 $-1 $213 $288 #
vertex $-1 $133 $313 #
vertex $-1 $133 $314 #
straight-curve $-1 67.95129245887631 0 10.228276308788097 0 1 0 I I #
face $-1 $-1 $315 $31 $-1 $316 reversed single #
loop $-1 $-1 $140 $134 #
plane-surface $-1 67.95129245887631 0 0 -1 0 0 0 0 1 forward_v I I I I #
coedge $-1 $227 $317 $318 $319 forward $135 $-1 #
coedge $-1 $318 $137 $139 $229 forward $85 $-1 #
coedge $-1 $137 $318 $320 $321 reversed $85 $-1 #
coedge $-1 $322 $140 $137 $226 forward $220 $-1 #
edge $-1 $232 8.3555944435078366 $323 18.847287042803611 $225 $324 forward 7 unknown #
coedge $-1 $325 $222 $138 $228 forward $135 $-1 #
edge $-1 $326 43.803374872096079 $231 57.223768564683105 $227 $327 forward 7 unknown #
edge $-1 $232 -135.90258491775259 $326 -120.24590535700983 $139 $328 forward 7 unknown #
coedge $-1 $140 $322 $325 $329 reversed $220 $-1 #
vertex $-1 $329 $330 #
vertex $-1 $141 $331 #
straight-curve $-1 67.95129245887631 21.95703518666356 94.325374028219784 0 0 -1 I I #
coedge $-1 $234 $234 $-1 $332 reversed $144 $-1 #
edge $-1 $333 0 $333 6.2831853071796004 $145 $334 forward 7 unknown #
vertex $-1 $148 $335 #
ellipse-curve $-1 61.241095612582797 24.954661643605213 6.1963832049300978 0.51503808176128008 0 0.85716729658548041 0.85716729658548041 0 -0.51503808176128008 1 I I #
coedge $-1 $238 $238 $-1 $336 reversed $151 $-1 #
edge $-1 $337 0 $337 6.2831853071796004 $152 $338 forward 7 unknown #
vertex $-1 $155 $339 #
ellipse-curve $-1 61.241095612582797 29.451101329017689 6.1963832049300978 0.51503808176128008 0 0.85716729658548041 0.85716729658548041 0 -0.51503808176128008 1 I I #
face $-1 $-1 $254 $34 $-1 $340 forward single #
loop $-1 $-1 $341 $156 #
plane-surface $-1 -67.95129245887631 0 0 1 0 0 0 0 -1 forward_v I I I I #
coedge $-1 $342 $343 $344 $345 reversed $157 $-1 #
coedge $-1 $346 $159 $161 $252 forward $99 $-1 #
coedge $-1 $159 $346 $342 $347 forward $99 $-1 #
coedge $-1 $344 $162 $159 $249 forward $254 $-1 #
edge $-1 $256 -5.4069659630523983 $348 1.8023219876841328 $248 $349 forward 7 unknown #
coedge $-1 $350 $351 $160 $251 forward $243 $-1 #
edge $-1 $352 -35.624419428200035 $255 -26.16470034649457 $250 $353 forward 7 unknown #
edge $-1 $256 -11.154696338783808 $352 2.6831817382962156e-014 $161 $354 forward 7 unknown #
coedge $-1 $162 $344 $350 $355 forward $254 $-1 #
loop $-1 $-1 $344 $242 #
vertex $-1 $251 $356 #
vertex $-1 $163 $357 #
straight-curve $-1 -91.601610969045183 -7.2092879507365311 10.228276308788097 1 0 0 I I #
coedge $-1 $258 $258 $-1 $358 reversed $166 $-1 #
edge $-1 $359 0 $359 6.2831853071796004 $167 $360 forward 7 unknown #
vertex $-1 $170 $361 #
ellipse-curve $-1 -64.995748291311941 -5.1494913933832365 5.4984167679353728 -0.84804810408105047 0 0.52991925155115449 0.52991925155115449 0 0.84804810408105047 1 I I #
coedge $-1 $262 $262 $-1 $362 reversed $173 $-1 #
edge $-1 $363 0 $363 6.2831853071796004 $174 $364 forward 7 unknown #
vertex $-1 $177 $365 #
ellipse-curve $-1 -64.995748291311941 -2.0597965573532946 5.4984167679353728 -0.84804810408105047 0 0.52991925155115449 0.52991925155115449 0 0.84804810408105047 1 I I #
face $-1 $-1 $366 $37 $-1 $367 reversed single #
loop $-1 $-1 $368 $178 #
plane-surface $-1 0 32.448727785959335 0 0 -1 0 0 0 -1 forward_v I I I I #
coedge $-1 $369 $181 $183 $275 forward $113 $-1 #
coedge $-1 $181 $369 $368 $370 reversed $113 $-1 #
coedge $-1 $371 $184 $181 $272 forward $179 $-1 #
edge $-1 $278 10.817397929927271 $372 18.026685880663798 $271 $373 forward 7 unknown #
coedge $-1 $374 $375 $182 $274 forward $366 $-1 #
edge $-1 $376 -35.624419428200035 $277 -26.16470034649457 $273 $377 forward 7 unknown #
edge $-1 $278 -11.154696338783808 $376 2.6831817382962156e-014 $183 $378 forward 7 unknown #
coedge $-1 $184 $371 $374 $379 forward $179 $-1 #
vertex $-1 $274 $380 #
vertex $-1 $185 $381 #
straight-curve $-1 -91.601610969045183 25.239439835222807 10.228276308788097 1 0 0 I I #
coedge $-1 $280 $280 $-1 $382 reversed $188 $-1 #
edge $-1 $383 0 $383 6.2831853071796004 $189 $384 forward 7 unknown #
vertex $-1 $192 $385 #
ellipse-curve $-1 -64.995748291311941 27.299236392576098 5.4984167679353728 -0.84804810408105047 0 0.52991925155115449 0.52991925155115449 0 0.84804810408105047 1 I I #
coedge $-1 $284 $284 $-1 $386 reversed $195 $-1 #
edge $-1 $387 0 $387 6.2831853071796004 $196 $388 forward 7 unknown #
vertex $-1 $199 $389 #
ellipse-curve $-1 -64.995748291311941 30.38893122860604 5.4984167679353728 -0.84804810408105047 0 0.52991925155115449 0.52991925155115449 0 0.84804810408105047 1 I I #
face $-1 $-1 $215 $30 $-1 $390 reversed single #
loop $-1 $-1 $304 $200 #
plane-surface $-1 0 32.448727785959335 0 0 -1 0 0 0 -1 forward_v I I I I #
coedge $-1 $391 $302 $305 $392 forward $201 $-1 #
coedge $-1 $308 $203 $204 $296 reversed $127 $-1 #
coedge $-1 $302 $391 $203 $294 reversed $201 $-1 #
edge $-1 $309 -10.228276308788097 $393 10.228276308788097 $293 $394 forward 7 unknown #
coedge $-1 $205 $204 $391 $395 forward $81 $-1 #
edge $-1 $300 -67.95129245887631 $393 67.95129245887631 $292 $396 forward 7 unknown #
coedge $-1 $305 $304 $205 $298 reversed $289 $-1 #
edge $-1 $397 -67.95129245887631 $299 67.95129245887631 $297 $398 forward 7 unknown #
vertex $-1 $207 $399 #
vertex $-1 $311 $400 #
straight-curve $-1 67.95129245887631 0 -10.228276308788097 0 -1 0 I I #
coedge $-1 $291 $293 $208 $303 reversed $201 $-1 #
edge $-1 $306 -32.448727785959335 $309 32.448727785959335 $302 $401 forward 7 unknown #
coedge $-1 $297 $209 $214 $312 forward $289 $-1 #
coedge $-1 $209 $297 $291 $392 reversed $289 $-1 #
vertex $-1 $210 $402 #
straight-curve $-1 0 32.448727785959335 10.228276308788097 -1 0 0 I I #
coedge $-1 $211 $292 $213 $311 reversed $127 $-1 #
vertex $-1 $303 $403 #
straight-curve $-1 0 -32.448727785959335 10.228276308788097 1 0 0 I I #
edge $-1 $216 -10.228276308788097 $300 10.228276308788097 $213 $404 forward 7 unknown #
edge $-1 $217 -10.228276308788097 $299 10.228276308788097 $214 $405 forward 7 unknown #
point $-1 67.95129245887631 -32.448727785959335 10.228276308788097 #
point $-1 67.95129245887631 32.448727785959335 10.228276308788097 #
loop $-1 $-1 $320 $219 #
plane-surface $-1 0 32.448727785959335 0 0 -1 0 0 0 -1 forward_v I I I I #
coedge $-1 $222 $325 $406 $407 forward $135 $-1 #
coedge $-1 $224 $223 $222 $319 reversed $85 $-1 #
edge $-1 $408 -18.847287042803611 $326 -8.3555944435078366 $222 $409 forward 7 unknown #
coedge $-1 $406 $410 $224 $321 forward $315 $-1 #
edge $-1 $323 -96.516707872284741 $408 -80.860028311541981 $320 $411 forward 7 unknown #
coedge $-1 $230 $225 $410 $412 reversed $220 $-1 #
vertex $-1 $226 $413 #
straight-curve $-1 67.951292458876296 13.601440743155724 2.1644901010721043 0 1 0 I I #
coedge $-1 $317 $227 $230 $329 forward $135 $-1 #
vertex $-1 $228 $414 #
straight-curve $-1 10.727523894193205 21.95703518666356 10.228276308788097 1 0 0 I I #
straight-curve $-1 -48.539958854052372 21.95703518666356 72.159496743510871 -0.85716729658548041 0 0.51503808176128008 I I #
edge $-1 $231 21.95703518666356 $415 32.448727785959335 $230 $416 forward 7 unknown #
point $-1 67.95129245887631 21.95703518666356 10.228276308788097 #
point $-1 67.951292458876296 21.95703518666356 2.1644901010721043 #
edge $-1 $417 1 $417 0 $234 $-1 forward 7 unknown #
vertex $-1 $235 $418 #
ellipse-curve $-1 59.898871822921208 24.954661643605213 3.9625477315170876 0.51503808176128008 0 0.85716729658548041 0.85716729658548041 0 -0.51503808176128008 1 I I #
point $-1 62.09826290916827 24.954661643605213 5.6813451231688123 #
edge $-1 $419 1 $419 0 $238 $-1 forward 7 unknown #
vertex $-1 $239 $420 #
ellipse-curve $-1 59.898871822921208 29.451101329017689 3.9625477315170876 0.51503808176128008 0 0.85716729658548041 0.85716729658548041 0 -0.51503808176128008 1 I I #
point $-1 62.09826290916827 29.451101329017689 5.6813451231688123 #
plane-surface $-1 0 0 10.228276308788097 0 0 1 1 0 0 forward_v I I I I #
coedge $-1 $351 $350 $343 $421 forward $243 $-1 #
coedge $-1 $343 $245 $247 $347 reversed $157 $-1 #
coedge $-1 $245 $342 $341 $421 reversed $157 $-1 #
coedge $-1 $253 $248 $245 $345 forward $254 $-1 #
edge $-1 $348 -29.561406845297604 $422 -23.650318510168873 $344 $423 forward 7 unknown #
coedge $-1 $247 $246 $351 $424 reversed $99 $-1 #
edge $-1 $425 -2.6831817382962156e-014 $348 11.154696338783808 $342 $426 forward 7 unknown #
vertex $-1 $249 $427 #
straight-curve $-1 -62.040204123747579 -1.8023219876841328 10.228276308788097 0 1 0 I I #
coedge $-1 $341 $250 $253 $355 reversed $243 $-1 #
coedge $-1 $250 $341 $346 $424 forward $243 $-1 #
vertex $-1 $251 $428 #
straight-curve $-1 -67.95129245887631 -7.2092879507365311 36.392976655282666 0 0 1 I I #
straight-curve $-1 -67.951292458876296 -7.2092879507365311 0.76855722708265262 -0.52991925155115449 0 -0.84804810408105047 I I #
edge $-1 $422 0 $255 7.2092879507365311 $350 $429 forward 7 unknown #
point $-1 -67.95129245887631 -7.2092879507365311 10.228276308788097 #
point $-1 -62.040204123747579 -7.2092879507365311 10.228276308788097 #
edge $-1 $430 1 $430 0 $258 $-1 forward 7 unknown #
vertex $-1 $259 $431 #
ellipse-curve $-1 -63.276307273131202 -5.1494913933832365 4.4239908090116922 -0.84804810408105047 0 0.52991925155115449 0.52991925155115449 0 0.84804810408105047 1 I I #
point $-1 -64.465829039760806 -5.1494913933832365 6.3464648720164316 #
edge $-1 $432 1 $432 0 $262 $-1 forward 7 unknown #
vertex $-1 $263 $433 #
ellipse-curve $-1 -63.276307273131202 -2.0597965573532946 4.4239908090116922 -0.84804810408105047 0 0.52991925155115449 0.52991925155115449 0 0.84804810408105047 1 I I #
point $-1 -64.465829039760806 -2.0597965573532946 6.3464648720164316 #
loop $-1 $-1 $273 $266 #
plane-surface $-1 -67.95129245887631 0 0 1 0 0 0 0 -1 forward_v I I I I #
coedge $-1 $434 $435 $270 $370 forward $267 $-1 #
coedge $-1 $270 $269 $375 $436 reversed $113 $-1 #
edge $-1 $372 6.5237659324342427 $437 17.678462271218077 $368 $438 forward 7 unknown #
coedge $-1 $276 $271 $435 $439 forward $179 $-1 #
vertex $-1 $439 $440 #
straight-curve $-1 -62.040204123747579 14.422041905295536 10.228276308788097 0 1 0 I I #
coedge $-1 $441 $273 $276 $379 reversed $366 $-1 #
coedge $-1 $273 $441 $369 $436 forward $366 $-1 #
vertex $-1 $274 $442 #
straight-curve $-1 -67.95129245887631 25.239439835222807 36.392976655282666 0 0 1 I I #
straight-curve $-1 -67.951292458876296 25.239439835222807 0.76855722708265262 -0.52991925155115449 0 -0.84804810408105047 I I #
edge $-1 $443 -32.448727785959335 $277 -25.239439835222807 $374 $444 forward 7 unknown #
point $-1 -67.95129245887631 25.239439835222807 10.228276308788097 #
point $-1 -62.040204123747579 25.239439835222807 10.228276308788097 #
edge $-1 $445 1 $445 0 $280 $-1 forward 7 unknown #
vertex $-1 $281 $446 #
ellipse-curve $-1 -63.276307273131202 27.299236392576098 4.4239908090116922 -0.84804810408105047 0 0.52991925155115449 0.52991925155115449 0 0.84804810408105047 1 I I #
point $-1 -64.465829039760806 27.299236392576098 6.3464648720164316 #
edge $-1 $447 1 $447 0 $284 $-1 forward 7 unknown #
vertex $-1 $285 $448 #
ellipse-curve $-1 -63.276307273131202 30.38893122860604 4.4239908090116922 -0.84804810408105047 0 0.52991925155115449 0.52991925155115449 0 0.84804810408105047 1 I I #
point $-1 -64.465829039760806 30.38893122860604 6.3464648720164316 #
plane-surface $-1 67.95129245887631 0 0 -1 0 0 0 0 1 forward_v I I I I #
coedge $-1 $293 $291 $295 $395 reversed $201 $-1 #
edge $-1 $306 -10.228276308788097 $397 10.228276308788097 $305 $449 forward 7 unknown #
vertex $-1 $395 $450 #
straight-curve $-1 -67.95129245887631 -32.448727785959335 0 0 0 -1 I I #
edge $-1 $393 -32.448727785959335 $397 32.448727785959335 $391 $451 forward 7 unknown #
straight-curve $-1 0 -32.448727785959335 -10.228276308788097 -1 0 0 I I #
vertex $-1 $298 $452 #
straight-curve $-1 0 32.448727785959335 -10.228276308788097 1 0 0 I I #
point $-1 67.95129245887631 32.448727785959335 -10.228276308788097 #
point $-1 67.95129245887631 -32.448727785959335 -10.228276308788097 #
straight-curve $-1 -67.95129245887631 0 10.228276308788097 0 -1 0 I I #
point $-1 -67.95129245887631 32.448727785959335 10.228276308788097 #
point $-1 -67.95129245887631 -32.448727785959335 10.228276308788097 #
straight-curve $-1 67.95129245887631 -32.448727785959335 0 0 0 -1 I I #
straight-curve $-1 67.95129245887631 32.448727785959335 0 0 0 -1 I I #
coedge $-1 $410 $320 $317 $407 reversed $315 $-1 #
edge $-1 $415 -67.95129245887631 $408 -54.530898766289283 $406 $453 forward 7 unknown #
vertex $-1 $321 $454 #
straight-curve $-1 54.530898766289283 13.601440743155724 10.228276308788089 0 -1 0 I I #
coedge $-1 $320 $406 $322 $412 forward $315 $-1 #
straight-curve $-1 -14.779673103340565 32.448727785959335 51.874270181527478 -0.85716729658548041 0 0.51503808176128008 I I #
edge $-1 $415 -10.228276308788097 $323 -2.1644901010720985 $322 $455 forward 7 unknown #
point $-1 67.95129245887631 32.448727785959335 2.1644901010720985 #
point $-1 54.530898766289283 21.95703518666356 10.228276308788097 #
vertex $-1 $329 $456 #
straight-curve $-1 67.95129245887631 0 10.228276308788097 0 1 0 I I #
vertex $-1 $332 $457 #
point $-1 60.756039119506688 24.954661643605213 3.4475096497558075 #
vertex $-1 $336 $458 #
point $-1 60.756039119506688 29.451101329017689 3.4475096497558075 #
edge $-1 $422 26.16470034649457 $425 35.624419428200035 $341 $459 forward 7 unknown #
vertex $-1 $355 $460 #
straight-curve $-1 -91.601610969045183 0 10.228276308788097 -1 0 0 I I #
edge $-1 $425 -1.8023219876841328 $352 5.4069659630523983 $351 $461 forward 7 unknown #
vertex $-1 $424 $462 #
straight-curve $-1 -67.951292458876296 0 0.76855722708265262 0.52991925155115449 0 0.84804810408105047 I I #
point $-1 -62.040204123747579 0 10.228276308788097 #
point $-1 -67.95129245887631 -7.2092879507365311 0.76855722708262986 #
straight-curve $-1 -67.95129245887631 0 10.228276308788097 0 -1 0 I I #
vertex $-1 $358 $463 #
point $-1 -62.746388021580053 -5.1494913933832365 5.2720389130927421 #
vertex $-1 $362 $464 #
point $-1 -62.746388021580053 -2.0597965573532946 5.2720389130927421 #
coedge $-1 $435 $368 $441 $465 reversed $267 $-1 #
coedge $-1 $368 $434 $371 $439 reversed $267 $-1 #
edge $-1 $437 -18.026685880663798 $376 -10.817397929927271 $375 $466 forward 7 unknown #
vertex $-1 $370 $467 #
straight-curve $-1 -58.583134963537105 32.448727785959335 15.760743639257504 -0.52991925155115449 0 -0.84804810408105047 I I #
edge $-1 $372 62.040204123747579 $443 67.95129245887631 $435 $468 forward 7 unknown #
point $-1 -62.040204123747579 32.448727785959335 10.228276308788097 #
coedge $-1 $375 $374 $434 $465 forward $366 $-1 #
point $-1 -67.95129245887631 25.239439835222807 0.76855722708262986 #
vertex $-1 $439 $469 #
straight-curve $-1 -67.95129245887631 0 10.228276308788097 0 -1 0 I I #
vertex $-1 $382 $470 #
point $-1 -62.746388021580053 27.299236392576098 5.2720389130927421 #
vertex $-1 $386 $471 #
point $-1 -62.746388021580053 30.38893122860604 5.2720389130927421 #
straight-curve $-1 -67.95129245887631 32.448727785959335 0 0 0 -1 I I #
point $-1 -67.95129245887631 -32.448727785959335 -10.228276308788097 #
straight-curve $-1 -67.95129245887631 0 -10.228276308788097 0 1 0 I I #
point $-1 -67.95129245887631 32.448727785959335 -10.228276308788097 #
straight-curve $-1 0 32.448727785959335 10.228276308788097 -1 0 0 I I #
point $-1 54.530898766289283 32.448727785959335 10.228276308788097 #
straight-curve $-1 67.95129245887631 32.448727785959335 0 0 0 -1 I I #
point $-1 67.95129245887631 32.448727785959335 10.228276308788097 #
point $-1 59.383833741159933 24.954661643605213 3.1053804349316074 #
point $-1 59.383833741159933 29.451101329017689 3.1053804349316074 #
straight-curve $-1 -67.95129245887631 0 36.392976655282666 0 0 -1 I I #
point $-1 -67.95129245887631 0 10.228276308788097 #
straight-curve $-1 -67.95129245887631 -1.8023219876841328 0.76855722708263463 0 -1 0 I I #
point $-1 -67.95129245887631 0 0.76855722708262986 #
point $-1 -62.428259169050158 -5.1494913933832365 3.894071557460538 #
point $-1 -62.428259169050158 -2.0597965573532946 3.894071557460538 #
edge $-1 $443 -10.228276308788097 $437 -0.76855722708262986 $434 $472 forward 7 unknown #
straight-curve $-1 -67.95129245887631 14.422041905295536 0.76855722708263463 0 -1 0 I I #
point $-1 -67.95129245887631 32.448727785959335 0.76855722708262986 #
straight-curve $-1 0 32.448727785959335 10.228276308788097 -1 0 0 I I #
point $-1 -67.95129245887631 32.448727785959335 10.228276308788097 #
point $-1 -62.428259169050158 27.299236392576098 3.894071557460538 #
point $-1 -62.428259169050158 30.38893122860604 3.894071557460538 #
straight-curve $-1 -67.95129245887631 32.448727785959335 0 0 0 -1 I I #
End-of-ACIS-data 