600 0 7 0           
109 GICL ACIS Healer - Source: /gicl/data5/repository/Drexel/CICIRELLO-THESISDATA/Part10009.smdg.deltas.sat - 6 0 18 ACIS 6.0.3 Solaris 24 Fri Apr 12 10:21:38 2002 
1 9.999999999999999547e-07 1.000000000000000036e-10 
body $-1 $7 $-1 $-1 #
body $-1 $8 $-1 $-1 #
body $-1 $9 $-1 $-1 #
body $-1 $10 $-1 $-1 #
body $-1 $11 $-1 $-1 #
body $-1 $12 $-1 $-1 #
body $-1 $13 $-1 $-1 #
lump $-1 $-1 $14 $0 #
lump $-1 $-1 $15 $1 #
lump $-1 $-1 $16 $2 #
lump $-1 $-1 $17 $3 #
lump $-1 $-1 $18 $4 #
lump $-1 $-1 $19 $5 #
lump $-1 $-1 $20 $6 #
shell $-1 $-1 $-1 $21 $-1 $7 #
shell $-1 $-1 $-1 $22 $-1 $8 #
shell $-1 $-1 $-1 $23 $-1 $9 #
shell $-1 $-1 $-1 $24 $-1 $10 #
shell $-1 $-1 $-1 $25 $-1 $11 #
shell $-1 $-1 $-1 $26 $-1 $12 #
shell $-1 $-1 $-1 $27 $-1 $13 #
face $-1 $28 $29 $14 $-1 $30 reversed single #
face $-1 $31 $32 $15 $-1 $33 forward single #
face $-1 $34 $35 $16 $-1 $36 reversed single #
face $-1 $37 $38 $17 $-1 $39 reversed single #
face $-1 $40 $41 $18 $-1 $42 forward single #
face $-1 $43 $44 $19 $-1 $45 reversed single #
face $-1 $46 $47 $20 $-1 $48 forward single #
face $-1 $49 $50 $14 $-1 $51 forward single #
loop $-1 $-1 $52 $21 #
plane-surface $-1 64.31104464857936875 0 11.33349361056279925 0 1 0 0 0 1 forward_v I I I I #
face $-1 $53 $54 $15 $-1 $55 forward single #
loop $-1 $-1 $56 $22 #
plane-surface $-1 64.31104464857936875 0 11.33349361056279925 0 1 0 0 0 1 forward_v I I I I #
face $-1 $57 $58 $16 $-1 $59 reversed single #
loop $-1 $-1 $60 $23 #
plane-surface $-1 64.31104464857936875 57.58475130244022466 16.46263706128327797 0 0 1 1 0 0 forward_v I I I I #
face $-1 $61 $62 $17 $-1 $63 reversed single #
loop $-1 $-1 $64 $24 #
plane-surface $-1 106.4541668047014156 42.69256596900704182 199.3040793733410112 0 -1 0 -0.6156614830463592591 0 -0.788010747574649173 forward_v I I I I #
face $-1 $65 $66 $18 $-1 $67 forward single #
loop $-1 $68 $69 $25 #
cone-surface $-1 125.0509908615333359 38.52925048893491322 19.34274497601434462 -0.6156614830463592591 0 -0.788010747574649173 0.788010747574649173 0 -0.6156614830463592591 1 I I 0 1 1 forward I I I I #
face $-1 $70 $71 $19 $-1 $72 reversed single #
loop $-1 $-1 $73 $26 #
plane-surface $-1 -79.18766624921001096 34.36593500886278463 120.1164131241310287 0 1 0 -0.6156614830463592591 0 0.788010747574649173 forward_v I I I I #
face $-1 $74 $75 $20 $-1 $76 forward single #
loop $-1 $77 $78 $27 #
cone-surface $-1 3.571098435625415846 38.52925048893491322 19.34274497601435883 0.6156614830463592591 0 -0.788010747574649173 0.788010747574649173 0 0.6156614830463592591 1 I I 0 1 1 forward I I I I #
face $-1 $79 $80 $14 $-1 $81 reversed single #
loop $-1 $-1 $82 $28 #
plane-surface $-1 64.31104464857936875 31.31922555849606127 22.6669872211255985 0 0 1 1 0 0 forward_v I I I I #
coedge $-1 $83 $84 $85 $86 reversed $29 $-1 #
face $-1 $87 $88 $15 $-1 $89 reversed single #
loop $-1 $-1 $90 $31 #
plane-surface $-1 64.31104464857936875 31.31922555849606127 22.6669872211255985 0 0 1 1 0 0 forward_v I I I I #
coedge $-1 $91 $92 $93 $94 forward $32 $-1 #
face $-1 $95 $96 $16 $-1 $97 reversed single #
loop $-1 $-1 $98 $34 #
plane-surface $-1 64.31104464857936875 52.5310514878883339 19.56481214120443823 0 1 0 0 0 1 forward_v I I I I #
coedge $-1 $99 $100 $101 $102 reversed $35 $-1 #
face $-1 $103 $104 $17 $-1 $105 reversed single #
loop $-1 $-1 $106 $37 #
plane-surface $-1 27.26650055549141882 38.52925048893491322 97.9484906316736641 0.6156614830463592591 0 0.788010747574649173 0.788010747574649173 0 -0.6156614830463592591 forward_v I I I I #
coedge $-1 $107 $108 $109 $110 reversed $38 $-1 #
face $-1 $-1 $111 $18 $-1 $112 forward single #
loop $-1 $113 $114 $40 #
cone-surface $-1 123.6718918535643468 38.52925048893491322 17.57757877644674238 -0.6156614830463592591 0 -0.788010747574649173 0.3940053737873245865 0 -0.3078307415231796296 1 I I -0.7071067811865474617 0.7071067811865474617 0.5 forward I I I I #
loop $-1 $-1 $115 $25 #
coedge $-1 $69 $69 $116 $117 reversed $41 $-1 #
face $-1 $118 $119 $19 $-1 $120 reversed single #
loop $-1 $-1 $121 $43 #
plane-surface $-1 -1.421085471520200372e-14 38.52925048893491322 18.76082438246369577 -0.6156614830463592591 0 0.788010747574649173 0.788010747574649173 0 0.6156614830463592591 forward_v I I I I #
coedge $-1 $122 $123 $124 $125 reversed $44 $-1 #
face $-1 $-1 $126 $20 $-1 $127 forward single #
loop $-1 $128 $129 $46 #
cone-surface $-1 4.950197443594397839 38.52925048893491322 17.57757877644675304 0.6156614830463592591 0 -0.788010747574649173 0.3940053737873245865 0 0.3078307415231796296 1 I I -0.7071067811865474617 0.7071067811865474617 0.5 forward I I I I #
loop $-1 $-1 $130 $27 #
coedge $-1 $78 $78 $131 $132 reversed $47 $-1 #
face $-1 $133 $134 $14 $-1 $135 reversed single #
loop $-1 $-1 $136 $49 #
plane-surface $-1 64.31104464857936875 31.31922555849606127 0 0 0 1 1 0 0 forward_v I I I I #
coedge $-1 $137 $138 $139 $140 forward $50 $-1 #
coedge $-1 $141 $52 $142 $143 reversed $29 $-1 #
coedge $-1 $52 $141 $144 $145 forward $29 $-1 #
coedge $-1 $146 $136 $52 $86 forward $80 $-1 #
edge $-1 $147 -64.31104464857936875 $148 64.31104464857936875 $52 $149 forward 7 unknown #
face $-1 $150 $151 $15 $-1 $152 reversed single #
loop $-1 $-1 $153 $53 #
plane-surface $-1 0 31.31922555849606127 11.33349361056279925 1 0 0 0 0 -1 forward_v I I I I #
coedge $-1 $154 $155 $92 $156 forward $54 $-1 #
coedge $-1 $157 $56 $158 $159 reversed $32 $-1 #
coedge $-1 $56 $157 $90 $156 reversed $32 $-1 #
coedge $-1 $160 $161 $56 $94 reversed $162 $-1 #
edge $-1 $163 -11.33349361056279925 $164 11.33349361056279925 $93 $165 forward 7 unknown #
face $-1 $166 $167 $16 $-1 $168 reversed single #
loop $-1 $-1 $169 $57 #
plane-surface $-1 64.31104464857936875 62.63845111699212254 11.33349361056279925 0 -1 0 0 0 -1 forward_v I I I I #
coedge $-1 $170 $171 $172 $173 reversed $58 $-1 #
coedge $-1 $174 $60 $170 $175 forward $35 $-1 #
coedge $-1 $60 $174 $169 $176 reversed $35 $-1 #
coedge $-1 $177 $178 $60 $102 forward $179 $-1 #
edge $-1 $180 8.079063057420192706 $181 18.18646268652397424 $101 $182 forward 7 unknown #
face $-1 $183 $184 $17 $-1 $185 reversed single #
loop $-1 $-1 $186 $61 #
plane-surface $-1 106.4541668047014156 34.36593500886278463 199.3040793733410112 0 1 0 0.6156614830463592591 0 0.788010747574649173 forward_v I I I I #
coedge $-1 $187 $188 $189 $190 reversed $62 $-1 #
coedge $-1 $108 $64 $191 $192 reversed $38 $-1 #
coedge $-1 $64 $107 $187 $193 reversed $38 $-1 #
coedge $-1 $189 $194 $64 $110 forward $195 $-1 #
edge $-1 $196 -43.23948357051834535 $197 -38.23982323215913937 $109 $198 forward 7 unknown #
loop $-1 $-1 $116 $65 #
plane-surface $-1 27.26650055549141882 38.52925048893491322 97.9484906316736641 0.6156614830463592591 0 0.788010747574649173 0.788010747574649173 0 -0.6156614830463592591 forward_v I I I I #
loop $-1 $-1 $199 $40 #
coedge $-1 $114 $114 $115 $200 reversed $66 $-1 #
coedge $-1 $115 $115 $114 $200 forward $68 $-1 #
coedge $-1 $116 $116 $69 $117 forward $111 $-1 #
edge $-1 $201 0 $201 6.283185307179586232 $116 $202 forward 7 unknown #
face $-1 $203 $204 $19 $-1 $205 forward single #
loop $-1 $-1 $206 $70 #
plane-surface $-1 -79.18766624921001096 42.69256596900704182 120.1164131241310287 0 -1 0 0.6156614830463592591 0 -0.788010747574649173 forward_v I I I I #
coedge $-1 $207 $208 $209 $210 reversed $71 $-1 #
coedge $-1 $123 $73 $211 $212 reversed $44 $-1 #
coedge $-1 $73 $122 $207 $213 reversed $44 $-1 #
coedge $-1 $209 $214 $73 $125 forward $204 $-1 #
edge $-1 $215 7.438310800315321103 $216 12.43797113867449156 $124 $217 forward 7 unknown #
loop $-1 $-1 $131 $74 #
plane-surface $-1 -1.421085471520200372e-14 38.52925048893491322 18.76082438246369577 -0.6156614830463592591 0 0.788010747574649173 0.788010747574649173 0 0.6156614830463592591 forward_v I I I I #
loop $-1 $-1 $218 $46 #
coedge $-1 $129 $129 $130 $219 reversed $75 $-1 #
coedge $-1 $130 $130 $129 $219 forward $77 $-1 #
coedge $-1 $131 $131 $78 $132 forward $126 $-1 #
edge $-1 $220 0 $220 6.283185307179586232 $131 $221 forward 7 unknown #
face $-1 $222 $223 $14 $-1 $224 reversed single #
loop $-1 $-1 $225 $79 #
plane-surface $-1 0 31.31922555849606127 11.33349361056279925 1 0 0 0 0 -1 forward_v I I I I #
coedge $-1 $85 $226 $227 $228 forward $80 $-1 #
coedge $-1 $229 $82 $230 $231 forward $50 $-1 #
coedge $-1 $82 $229 $141 $232 forward $50 $-1 #
coedge $-1 $142 $233 $82 $140 reversed $234 $-1 #
edge $-1 $235 -31.31922555849606127 $236 31.31922555849606127 $139 $237 forward 7 unknown #
coedge $-1 $84 $83 $138 $232 reversed $29 $-1 #
coedge $-1 $227 $139 $83 $143 forward $234 $-1 #
edge $-1 $235 -11.33349361056279925 $147 11.33349361056279925 $142 $238 forward 7 unknown #
coedge $-1 $239 $240 $84 $145 reversed $134 $-1 #
edge $-1 $241 -11.33349361056279925 $148 11.33349361056279925 $144 $242 forward 7 unknown #
coedge $-1 $226 $85 $240 $243 forward $80 $-1 #
vertex $-1 $143 $244 #
vertex $-1 $243 $245 #
straight-curve $-1 64.31104464857936875 0 0 -1 0 0 I I #
face $-1 $246 $162 $15 $-1 $247 reversed single #
loop $-1 $-1 $248 $87 #
plane-surface $-1 1.5 -14.44018590068184338 11.33349361056279925 0 1 0 0 0 1 forward_v I I I I #
coedge $-1 $249 $250 $157 $251 forward $88 $-1 #
coedge $-1 $252 $90 $250 $253 forward $54 $-1 #
coedge $-1 $90 $252 $160 $254 forward $54 $-1 #
edge $-1 $163 61.31104464857936875 $255 64.31104464857936875 $90 $256 forward 7 unknown #
coedge $-1 $92 $91 $153 $251 reversed $32 $-1 #
coedge $-1 $257 $258 $91 $159 forward $259 $-1 #
edge $-1 $260 -64.31104464857936875 $164 -61.31104464857936875 $158 $261 forward 7 unknown #
coedge $-1 $262 $93 $155 $254 reversed $162 $-1 #
coedge $-1 $93 $262 $257 $263 reversed $162 $-1 #
loop $-1 $-1 $262 $150 #
vertex $-1 $156 $264 #
vertex $-1 $263 $265 #
straight-curve $-1 3 0 11.33349361056279925 0 0 -1 I I #
face $-1 $266 $267 $16 $-1 $268 forward single #
loop $-1 $-1 $269 $95 #
plane-surface $-1 0 31.31922555849606127 11.33349361056279925 1 0 0 0 0 -1 forward_v I I I I #
coedge $-1 $270 $271 $100 $176 forward $96 $-1 #
coedge $-1 $272 $98 $99 $175 reversed $58 $-1 #
coedge $-1 $98 $272 $273 $274 reversed $58 $-1 #
coedge $-1 $275 $269 $98 $173 forward $167 $-1 #
edge $-1 $276 1.013484185399658344 $277 7.217834345241978866 $172 $278 forward 7 unknown #
coedge $-1 $100 $99 $269 $279 reversed $35 $-1 #
edge $-1 $180 -64.31104464857936875 $276 64.31104464857936875 $170 $280 forward 7 unknown #
edge $-1 $181 -64.31104464857936875 $281 64.31104464857936875 $169 $282 forward 7 unknown #
coedge $-1 $283 $101 $271 $284 reversed $179 $-1 #
coedge $-1 $101 $283 $272 $285 forward $179 $-1 #
loop $-1 $-1 $101 $266 #
vertex $-1 $102 $286 #
vertex $-1 $176 $287 #
straight-curve $-1 128.6220892971587375 44.45198843046814119 16.46263706128327797 0 1 0 I I #
face $-1 $-1 $195 $17 $-1 $288 forward single #
loop $-1 $-1 $289 $103 #
plane-surface $-1 128.6220892971587375 31.31922555849606127 11.33349361056279925 -1 0 0 0 0 1 forward_v I I I I #
coedge $-1 $290 $291 $292 $293 reversed $104 $-1 #
coedge $-1 $294 $106 $108 $193 forward $62 $-1 #
coedge $-1 $106 $294 $290 $295 forward $62 $-1 #
coedge $-1 $292 $109 $106 $190 forward $195 $-1 #
edge $-1 $197 -7.768327945291552794 $296 0.5583030148527043934 $189 $297 forward 7 unknown #
coedge $-1 $298 $299 $107 $192 forward $184 $-1 #
edge $-1 $300 -86.55796210948821567 $196 -82.65179927082630229 $191 $301 forward 7 unknown #
edge $-1 $197 122.2774292100377806 $300 128.6220892971587091 $108 $302 forward 7 unknown #
coedge $-1 $109 $292 $298 $303 forward $195 $-1 #
loop $-1 $-1 $292 $183 #
vertex $-1 $192 $304 #
vertex $-1 $110 $305 #
straight-curve $-1 85.38260572664039216 42.69256596900704182 22.66698722112559494 -1 0 0 I I #
coedge $-1 $199 $199 $-1 $306 reversed $113 $-1 #
edge $-1 $307 0 $307 6.283185307179586232 $114 $308 forward 7 unknown #
vertex $-1 $117 $309 #
ellipse-curve $-1 126.1222591279791345 38.52925048893491322 20.71390580179463825 0.6156614830463592591 0 0.788010747574649173 0.788010747574649173 0 -0.6156614830463592591 1 I I #
face $-1 $-1 $310 $19 $-1 $311 reversed single #
loop $-1 $-1 $124 $118 #
plane-surface $-1 64.31104464857936875 31.31922555849606127 22.6669872211255985 0 0 1 1 0 0 forward_v I I I I #
coedge $-1 $312 $313 $314 $315 reversed $119 $-1 #
coedge $-1 $316 $121 $123 $213 forward $71 $-1 #
coedge $-1 $121 $316 $312 $317 forward $71 $-1 #
coedge $-1 $314 $124 $121 $210 forward $204 $-1 #
edge $-1 $216 -0.5583030148527043934 $318 7.768327945291552794 $209 $319 forward 7 unknown #
coedge $-1 $320 $321 $122 $212 forward $310 $-1 #
edge $-1 $322 -46.96412898488320309 $215 -43.05796614622131813 $211 $323 forward 7 unknown #
edge $-1 $216 -6.34466008712090801 $322 -1.994738213711867049e-14 $123 $324 forward 7 unknown #
coedge $-1 $124 $314 $320 $325 forward $204 $-1 #
vertex $-1 $125 $326 #
vertex $-1 $125 $327 #
straight-curve $-1 -7.438310800315321103 34.36593500886278463 22.66698722112559494 1 0 0 I I #
coedge $-1 $218 $218 $-1 $328 reversed $128 $-1 #
edge $-1 $329 0 $329 6.283185307179586232 $129 $330 forward 7 unknown #
vertex $-1 $132 $331 #
ellipse-curve $-1 2.499830169179595885 38.52925048893491322 20.71390580179465957 -0.6156614830463592591 0 0.788010747574649173 0.788010747574649173 0 0.6156614830463592591 1 I I #
face $-1 $-1 $234 $14 $-1 $332 reversed single #
loop $-1 $-1 $333 $133 #
plane-surface $-1 64.31104464857936875 62.63845111699212254 11.33349361056279925 0 -1 0 0 0 -1 forward_v I I I I #
coedge $-1 $240 $239 $334 $335 forward $134 $-1 #
coedge $-1 $136 $146 $336 $337 forward $80 $-1 #
coedge $-1 $233 $142 $136 $228 reversed $234 $-1 #
edge $-1 $338 -31.31922555849606127 $147 31.31922555849606127 $227 $339 forward 7 unknown #
coedge $-1 $138 $137 $239 $340 forward $50 $-1 #
coedge $-1 $333 $334 $137 $231 reversed $223 $-1 #
edge $-1 $236 -64.31104464857936875 $341 64.31104464857936875 $230 $342 forward 7 unknown #
edge $-1 $241 -64.31104464857936875 $235 64.31104464857936875 $141 $343 forward 7 unknown #
coedge $-1 $139 $227 $333 $344 reversed $234 $-1 #
loop $-1 $-1 $142 $222 #
vertex $-1 $140 $345 #
vertex $-1 $140 $346 #
straight-curve $-1 128.6220892971587375 31.31922555849606127 22.6669872211255985 0 1 0 I I #
straight-curve $-1 128.6220892971587375 0 11.33349361056279925 0 0 -1 I I #
coedge $-1 $225 $144 $229 $340 reversed $134 $-1 #
coedge $-1 $144 $225 $146 $243 reversed $134 $-1 #
vertex $-1 $340 $347 #
straight-curve $-1 0 0 11.33349361056279925 0 0 -1 I I #
edge $-1 $148 -31.31922555849606127 $348 31.31922555849606127 $240 $349 forward 7 unknown #
point $-1 128.6220892971587375 0 0 #
point $-1 0 0 0 #
face $-1 $-1 $259 $15 $-1 $350 reversed single #
plane-surface $-1 3 -7.220092950340923466 11.33349361056279925 -1 0 0 0 0 1 forward_v I I I I #
coedge $-1 $351 $352 $353 $354 forward $151 $-1 #
coedge $-1 $353 $153 $258 $355 reversed $88 $-1 #
coedge $-1 $153 $353 $154 $253 reversed $88 $-1 #
edge $-1 $255 -11.33349361056279925 $260 11.33349361056279925 $153 $356 forward 7 unknown #
coedge $-1 $155 $154 $352 $357 forward $54 $-1 #
edge $-1 $255 31.31922555849606127 $358 45.75941145917790465 $250 $359 forward 7 unknown #
edge $-1 $360 -7.220092950340919913 $163 7.220092950340919913 $160 $361 forward 7 unknown #
vertex $-1 $253 $362 #
straight-curve $-1 64.31104464857936875 0 22.6669872211255985 -1 0 0 I I #
coedge $-1 $363 $158 $161 $263 forward $259 $-1 #
coedge $-1 $158 $363 $249 $355 forward $259 $-1 #
loop $-1 $-1 $158 $246 #
vertex $-1 $251 $364 #
straight-curve $-1 64.31104464857936875 0 0 1 0 0 I I #
coedge $-1 $161 $160 $365 $366 forward $162 $-1 #
edge $-1 $164 -7.220092950340919913 $367 7.220092950340919913 $161 $368 forward 7 unknown #
point $-1 3 -3.552713678800500929e-15 22.6669872211255985 #
point $-1 3 -3.552713678800500929e-15 0 #
face $-1 $-1 $179 $16 $-1 $369 reversed single #
loop $-1 $-1 $273 $166 #
plane-surface $-1 64.31104464857936875 31.31922555849606127 22.6669872211255985 0 0 1 1 0 0 forward_v I I I I #
coedge $-1 $172 $370 $174 $279 forward $167 $-1 #
coedge $-1 $371 $169 $370 $372 reversed $96 $-1 #
coedge $-1 $169 $371 $177 $284 forward $96 $-1 #
coedge $-1 $171 $170 $178 $285 reversed $58 $-1 #
coedge $-1 $373 $374 $171 $274 forward $267 $-1 #
edge $-1 $277 -64.31104464857936875 $375 64.31104464857936875 $273 $376 forward 7 unknown #
coedge $-1 $370 $172 $374 $377 reversed $167 $-1 #
vertex $-1 $279 $378 #
vertex $-1 $173 $379 #
straight-curve $-1 0 52.5310514878883339 15.44915287588361963 0 0 1 I I #
edge $-1 $281 -18.18646268652397424 $276 -8.079063057420192706 $269 $380 forward 7 unknown #
straight-curve $-1 64.31104464857936875 52.5310514878883339 16.46263706128327797 -1 0 0 I I #
vertex $-1 $279 $381 #
straight-curve $-1 64.31104464857936875 62.63845111699212254 16.46263706128327797 -1 0 0 I I #
coedge $-1 $178 $177 $373 $382 reversed $179 $-1 #
edge $-1 $383 -11.33349361056279925 $181 -5.129143450720478725 $177 $384 forward 7 unknown #
edge $-1 $375 -7.217834345241978866 $180 -1.013484185399658344 $178 $385 forward 7 unknown #
point $-1 128.6220892971587375 52.5310514878883339 16.46263706128327797 #
point $-1 128.6220892971587375 62.63845111699211543 16.46263706128327797 #
plane-surface $-1 64.31104464857936875 31.31922555849606127 22.6669872211255985 0 0 1 1 0 0 forward_v I I I I #
coedge $-1 $299 $298 $291 $386 forward $184 $-1 #
coedge $-1 $291 $186 $188 $295 reversed $104 $-1 #
coedge $-1 $186 $290 $289 $386 reversed $104 $-1 #
coedge $-1 $194 $189 $186 $293 forward $195 $-1 #
edge $-1 $296 38.23982323215913937 $387 43.23948357051834535 $292 $388 forward 7 unknown #
coedge $-1 $188 $187 $299 $389 reversed $62 $-1 #
edge $-1 $390 -128.6220892971587091 $296 -122.2774292100377806 $290 $391 forward 7 unknown #
vertex $-1 $190 $392 #
straight-curve $-1 123.6224289587995457 34.92423802371548902 22.66698722112558784 0 -1 0 I I #
coedge $-1 $289 $191 $194 $303 reversed $184 $-1 #
coedge $-1 $191 $289 $294 $389 forward $184 $-1 #
vertex $-1 $192 $393 #
straight-curve $-1 128.6220892971587375 42.69256596900704182 105.3187864919518972 0 0 1 I I #
straight-curve $-1 27.26650055549141882 42.69256596900704182 97.9484906316736641 0.788010747574649173 0 -0.6156614830463592591 I I #
edge $-1 $387 3.04670945036672336 $196 11.37334041051098055 $298 $394 forward 7 unknown #
point $-1 128.6220892971587375 42.69256596900704182 22.6669872211255985 #
point $-1 123.6224289587995315 42.69256596900704182 22.66698722112559494 #
edge $-1 $395 1 $395 0 $199 $-1 forward 7 unknown #
vertex $-1 $200 $396 #
ellipse-curve $-1 123.979722595087523 38.52925048893491322 17.97158415023406519 0.6156614830463592591 0 0.788010747574649173 0.788010747574649173 0 -0.6156614830463592591 1 I I #
point $-1 126.9102698755537801 38.52925048893491322 20.09824431874826445 #
loop $-1 $-1 $211 $203 #
plane-surface $-1 0 31.31922555849606127 11.33349361056279925 1 0 0 0 0 -1 forward_v I I I I #
coedge $-1 $313 $206 $208 $317 reversed $119 $-1 #
coedge $-1 $206 $312 $397 $398 reversed $119 $-1 #
coedge $-1 $214 $209 $206 $315 forward $204 $-1 #
edge $-1 $318 -12.43797113867449156 $399 -7.438310800315321103 $314 $400 forward 7 unknown #
coedge $-1 $208 $207 $321 $401 reversed $71 $-1 #
edge $-1 $402 1.994738213711867049e-14 $318 6.34466008712090801 $312 $403 forward 7 unknown #
vertex $-1 $210 $404 #
straight-curve $-1 4.999660338359177558 34.92423802371548902 22.66698722112559494 0 1 0 I I #
coedge $-1 $397 $211 $214 $325 reversed $310 $-1 #
coedge $-1 $211 $397 $316 $401 forward $310 $-1 #
vertex $-1 $212 $405 #
straight-curve $-1 0 34.36593500886278463 65.72495336734691307 0 0 1 I I #
straight-curve $-1 -1.421085471520200372e-14 34.36593500886278463 18.76082438246369577 -0.788010747574649173 0 -0.6156614830463592591 I I #
edge $-1 $399 -11.37334041051098055 $215 -3.04670945036672336 $320 $406 forward 7 unknown #
point $-1 0 34.36593500886278463 22.6669872211255985 #
point $-1 4.999660338359170453 34.36593500886278463 22.6669872211255985 #
edge $-1 $407 1 $407 0 $218 $-1 forward 7 unknown #
vertex $-1 $219 $408 #
ellipse-curve $-1 4.642366702071221596 38.52925048893491322 17.9715841502340794 -0.6156614830463592591 0 0.788010747574649173 0.788010747574649173 0 0.6156614830463592591 1 I I #
point $-1 3.287840916754255716 38.52925048893491322 21.32956728484099784 #
plane-surface $-1 128.6220892971587375 31.31922555849606127 11.33349361056279925 -1 0 0 0 0 1 forward_v I I I I #
coedge $-1 $336 $230 $233 $344 forward $223 $-1 #
coedge $-1 $230 $336 $225 $335 reversed $223 $-1 #
edge $-1 $341 -11.33349361056279925 $348 11.33349361056279925 $334 $409 forward 7 unknown #
coedge $-1 $334 $333 $226 $337 reversed $223 $-1 #
edge $-1 $348 -64.31104464857936875 $338 64.31104464857936875 $336 $410 forward 7 unknown #
vertex $-1 $228 $411 #
straight-curve $-1 128.6220892971587375 31.31922555849606127 0 0 -1 0 I I #
edge $-1 $341 -31.31922555849606127 $241 31.31922555849606127 $239 $412 forward 7 unknown #
vertex $-1 $231 $413 #
straight-curve $-1 64.31104464857936875 62.63845111699212254 22.6669872211255985 -1 0 0 I I #
straight-curve $-1 64.31104464857936875 0 22.6669872211255985 1 0 0 I I #
edge $-1 $236 -11.33349361056279925 $338 11.33349361056279925 $233 $414 forward 7 unknown #
point $-1 128.6220892971587375 0 22.6669872211255985 #
point $-1 128.6220892971587375 62.63845111699212254 22.6669872211255985 #
point $-1 0 0 22.6669872211255985 #
vertex $-1 $337 $415 #
straight-curve $-1 0 31.31922555849606127 0 0 1 0 I I #
plane-surface $-1 64.31104464857936875 31.31922555849606127 0 0 0 1 1 0 0 forward_v I I I I #
coedge $-1 $365 $248 $363 $416 reversed $151 $-1 #
coedge $-1 $248 $365 $252 $357 reversed $151 $-1 #
coedge $-1 $250 $249 $248 $354 reversed $88 $-1 #
edge $-1 $358 -11.33349361056279925 $417 11.33349361056279925 $353 $418 forward 7 unknown #
edge $-1 $417 -45.75941145917790465 $260 -31.31922555849606127 $249 $419 forward 7 unknown #
straight-curve $-1 0 0 11.33349361056279925 0 0 -1 I I #
edge $-1 $358 -1.5 $360 1.5 $352 $420 forward 7 unknown #
vertex $-1 $253 $421 #
straight-curve $-1 0 31.31922555849606127 22.6669872211255985 0 -1 0 I I #
vertex $-1 $254 $422 #
straight-curve $-1 3 -7.220092950340923466 22.6669872211255985 0 1 0 I I #
point $-1 0 0 22.6669872211255985 #
coedge $-1 $258 $257 $351 $416 forward $259 $-1 #
point $-1 0 0 0 #
coedge $-1 $352 $351 $262 $366 reversed $151 $-1 #
edge $-1 $360 -11.33349361056279925 $367 11.33349361056279925 $262 $423 forward 7 unknown #
vertex $-1 $366 $424 #
straight-curve $-1 3 -7.220092950340923466 0 0 -1 0 I I #
plane-surface $-1 128.6220892971587375 31.31922555849606127 11.33349361056279925 -1 0 0 0 0 1 forward_v I I I I #
coedge $-1 $269 $275 $270 $372 forward $167 $-1 #
coedge $-1 $271 $270 $425 $426 reversed $96 $-1 #
edge $-1 $427 -11.33349361056279925 $281 -5.129143450720478725 $270 $428 forward 7 unknown #
coedge $-1 $425 $273 $283 $382 forward $267 $-1 #
coedge $-1 $273 $425 $275 $377 forward $267 $-1 #
vertex $-1 $382 $429 #
straight-curve $-1 64.31104464857936875 52.5310514878883339 22.6669872211255985 1 0 0 I I #
edge $-1 $427 -31.31922555849606127 $277 -21.21182592939227263 $275 $430 forward 7 unknown #
point $-1 0 52.5310514878883339 16.46263706128327797 #
point $-1 0 52.5310514878883339 22.6669872211255985 #
straight-curve $-1 0 44.45198843046814119 16.46263706128327797 0 -1 0 I I #
point $-1 0 62.63845111699211543 16.46263706128327797 #
edge $-1 $375 21.21182592939227263 $383 31.31922555849606127 $283 $431 forward 7 unknown #
vertex $-1 $382 $432 #
straight-curve $-1 128.6220892971587375 62.63845111699212254 11.33349361056279925 0 0 -1 I I #
straight-curve $-1 128.6220892971587375 52.5310514878883339 15.44915287588361963 0 0 -1 I I #
edge $-1 $387 82.65179927082630229 $390 86.55796210948821567 $289 $433 forward 7 unknown #
vertex $-1 $303 $434 #
straight-curve $-1 85.38260572664039216 34.36593500886278463 22.66698722112559494 1 0 0 I I #
edge $-1 $390 -0.5583030148527043934 $300 7.768327945291552794 $299 $435 forward 7 unknown #
vertex $-1 $389 $436 #
straight-curve $-1 27.26650055549141882 34.36593500886278463 97.9484906316736641 -0.788010747574649173 0 0.6156614830463592591 I I #
point $-1 123.6224289587995315 34.36593500886278463 22.66698722112559494 #
point $-1 128.6220892971587375 42.69256596900704182 18.76082438246368156 #
straight-curve $-1 128.6220892971587375 31.31922555849606127 22.6669872211255985 0 1 0 I I #
vertex $-1 $306 $437 #
point $-1 124.7677333426621828 38.52925048893491322 17.3559226671877056 #
coedge $-1 $321 $320 $313 $398 forward $310 $-1 #
edge $-1 $399 43.05796614622131813 $402 46.96412898488320309 $397 $438 forward 7 unknown #
vertex $-1 $325 $439 #
straight-curve $-1 -7.438310800315321103 42.69256596900704182 22.66698722112559494 -1 0 0 I I #
edge $-1 $402 -7.768327945291552794 $322 0.5583030148527043934 $321 $440 forward 7 unknown #
vertex $-1 $401 $441 #
straight-curve $-1 -1.421085471520200372e-14 42.69256596900704182 18.76082438246369577 0.788010747574649173 0 0.6156614830463592591 I I #
point $-1 4.999660338359170453 42.69256596900704182 22.6669872211255985 #
point $-1 0 34.36593500886278463 18.76082438246370998 #
straight-curve $-1 0 31.31922555849606127 22.6669872211255985 0 -1 0 I I #
vertex $-1 $328 $442 #
point $-1 5.430377449645867216 38.52925048893491322 18.58724563328043899 #
straight-curve $-1 0 62.63845111699212254 11.33349361056279925 0 0 -1 I I #
straight-curve $-1 64.31104464857936875 62.63845111699212254 0 1 0 0 I I #
point $-1 128.6220892971587375 62.63845111699212254 0 #
straight-curve $-1 0 31.31922555849606127 22.6669872211255985 0 -1 0 I I #
point $-1 0 62.63845111699212254 22.6669872211255985 #
straight-curve $-1 128.6220892971587375 62.63845111699212254 11.33349361056279925 0 0 -1 I I #
point $-1 0 62.63845111699212254 0 #
edge $-1 $367 -1.5 $417 1.5 $351 $443 forward 7 unknown #
vertex $-1 $355 $444 #
straight-curve $-1 0 -14.44018590068184338 11.33349361056279925 0 0 -1 I I #
straight-curve $-1 0 31.31922555849606127 0 0 1 0 I I #
straight-curve $-1 1.5 -14.44018590068184338 22.6669872211255985 1 0 0 I I #
point $-1 0 -14.44018590068184338 22.6669872211255985 #
point $-1 3 -14.44018590068184338 22.6669872211255985 #
straight-curve $-1 3 -14.44018590068184338 11.33349361056279925 0 0 -1 I I #
point $-1 3 -14.44018590068184338 0 #
coedge $-1 $374 $373 $371 $426 forward $267 $-1 #
edge $-1 $383 -64.31104464857936875 $427 64.31104464857936875 $371 $445 forward 7 unknown #
vertex $-1 $426 $446 #
straight-curve $-1 0 62.63845111699212254 11.33349361056279925 0 0 -1 I I #
point $-1 128.6220892971587375 52.5310514878883339 22.6669872211255985 #
straight-curve $-1 0 31.31922555849606127 22.6669872211255985 0 -1 0 I I #
straight-curve $-1 128.6220892971587375 31.31922555849606127 22.6669872211255985 0 1 0 I I #
point $-1 128.6220892971587375 62.63845111699212254 22.6669872211255985 #
straight-curve $-1 128.6220892971587375 34.36593500886278463 105.3187864919518972 0 0 -1 I I #
point $-1 128.6220892971587375 34.36593500886278463 22.6669872211255985 #
straight-curve $-1 128.6220892971587659 34.92423802371548902 18.76082438246367445 0 1 0 I I #
point $-1 128.6220892971587375 34.36593500886278463 18.76082438246368156 #
point $-1 123.3640611120411705 38.52925048893491322 17.18357340265941957 #
straight-curve $-1 0 42.69256596900704182 65.72495336734691307 0 0 -1 I I #
point $-1 0 42.69256596900704182 22.6669872211255985 #
straight-curve $-1 0 34.92423802371548902 18.76082438246371353 0 -1 0 I I #
point $-1 0 42.69256596900704182 18.76082438246370998 #
point $-1 5.258028185117574083 38.52925048893491322 17.18357340265942668 #
straight-curve $-1 1.5 -14.44018590068184338 0 -1 0 0 I I #
point $-1 0 -14.44018590068184338 0 #
straight-curve $-1 64.31104464857936875 62.63845111699212254 22.6669872211255985 -1 0 0 I I #
point $-1 0 62.63845111699212254 22.6669872211255985 #
End-of-ACIS-data 