500 0 15 0           
7 Unknown 11 ACIS 5.0 NT 24 Thu Mar 25 23:58:36 1999 
-1 9.9999999999999995e-007 1e-010 
body $-1 $15 $-1 $16 #
body $-1 $17 $-1 $18 #
body $-1 $19 $-1 $20 #
body $-1 $21 $-1 $22 #
body $-1 $23 $-1 $24 #
body $-1 $25 $-1 $26 #
body $-1 $27 $-1 $28 #
body $-1 $29 $-1 $30 #
body $-1 $31 $-1 $32 #
body $-1 $33 $-1 $34 #
body $-1 $35 $-1 $36 #
body $-1 $37 $-1 $38 #
body $-1 $39 $-1 $40 #
body $-1 $41 $-1 $42 #
body $-1 $43 $-1 $44 #
lump $-1 $-1 $45 $0 #
transform $-1 1 0 0 0 1 0 0 0 1 45.028229621265297 28.471110342271885 7.9083424753935914 1 rotate no_reflect no_shear #
lump $-1 $-1 $46 $1 #
transform $-1 1 0 0 0 1 0 0 0 1 45.028229621265297 28.471110342271885 7.9083424753935914 1 rotate no_reflect no_shear #
lump $-1 $-1 $47 $2 #
transform $-1 1 0 0 0 1 0 0 0 1 45.028229621265297 28.471110342271885 7.9083424753935914 1 rotate no_reflect no_shear #
lump $-1 $-1 $48 $3 #
transform $-1 1 0 0 0 1 0 0 0 1 45.028229621265297 28.471110342271885 7.9083424753935914 1 rotate no_reflect no_shear #
lump $-1 $-1 $49 $4 #
transform $-1 1 0 0 0 1 0 0 0 1 45.028229621265297 28.471110342271885 7.9083424753935914 1 rotate no_reflect no_shear #
lump $-1 $-1 $50 $5 #
transform $-1 1 0 0 0 1 0 0 0 1 45.028229621265297 28.471110342271885 7.9083424753935914 1 rotate no_reflect no_shear #
lump $-1 $-1 $51 $6 #
transform $-1 1 0 0 0 1 0 0 0 1 45.028229621265297 28.471110342271885 7.9083424753935914 1 rotate no_reflect no_shear #
lump $-1 $-1 $52 $7 #
transform $-1 1 0 0 0 1 0 0 0 1 45.028229621265297 28.471110342271885 7.9083424753935914 1 rotate no_reflect no_shear #
lump $-1 $-1 $53 $8 #
transform $-1 1 0 0 0 1 0 0 0 1 45.028229621265297 28.471110342271885 7.9083424753935914 1 rotate no_reflect no_shear #
lump $-1 $-1 $54 $9 #
transform $-1 1 0 0 0 1 0 0 0 1 45.028229621265297 28.471110342271885 7.9083424753935914 1 rotate no_reflect no_shear #
lump $-1 $-1 $55 $10 #
transform $-1 1 0 0 0 1 0 0 0 1 45.028229621265297 28.471110342271885 7.9083424753935914 1 rotate no_reflect no_shear #
lump $-1 $-1 $56 $11 #
transform $-1 1 0 0 0 1 0 0 0 1 45.028229621265297 28.471110342271885 7.9083424753935914 1 rotate no_reflect no_shear #
lump $-1 $-1 $57 $12 #
transform $-1 1 0 0 0 1 0 0 0 1 45.028229621265297 28.471110342271885 7.9083424753935914 1 rotate no_reflect no_shear #
lump $-1 $-1 $58 $13 #
transform $-1 1 0 0 0 1 0 0 0 1 45.028229621265297 28.471110342271885 7.9083424753935914 1 rotate no_reflect no_shear #
lump $-1 $-1 $59 $14 #
transform $-1 1 0 0 0 1 0 0 0 1 45.028229621265297 28.471110342271885 7.9083424753935914 1 rotate no_reflect no_shear #
shell $-1 $-1 $-1 $60 $-1 $15 #
shell $-1 $-1 $-1 $61 $-1 $17 #
shell $-1 $-1 $-1 $62 $-1 $19 #
shell $-1 $-1 $-1 $63 $-1 $21 #
shell $-1 $-1 $-1 $64 $-1 $23 #
shell $-1 $-1 $-1 $65 $-1 $25 #
shell $-1 $-1 $-1 $66 $-1 $27 #
shell $-1 $-1 $-1 $67 $-1 $29 #
shell $-1 $-1 $-1 $68 $-1 $31 #
shell $-1 $-1 $-1 $69 $-1 $33 #
shell $-1 $-1 $-1 $70 $-1 $35 #
shell $-1 $-1 $-1 $71 $-1 $37 #
shell $-1 $-1 $-1 $72 $-1 $39 #
shell $-1 $-1 $-1 $73 $-1 $41 #
shell $-1 $-1 $-1 $74 $-1 $43 #
face $-1 $75 $76 $45 $-1 $77 reversed single #
face $-1 $78 $79 $46 $-1 $80 forward single #
face $-1 $81 $82 $47 $-1 $83 forward single #
face $-1 $84 $85 $48 $-1 $86 reversed single #
face $-1 $87 $88 $49 $-1 $89 forward single #
face $-1 $90 $91 $50 $-1 $92 forward single #
face $-1 $93 $94 $51 $-1 $95 forward single #
face $-1 $96 $97 $52 $-1 $98 reversed single #
face $-1 $99 $100 $53 $-1 $101 forward single #
face $-1 $102 $103 $54 $-1 $104 reversed single #
face $-1 $105 $106 $55 $-1 $107 forward single #
face $-1 $108 $109 $56 $-1 $110 reversed single #
face $-1 $111 $112 $57 $-1 $113 forward single #
face $-1 $114 $115 $58 $-1 $116 reversed single #
face $-1 $117 $118 $59 $-1 $119 forward single #
face $-1 $120 $121 $45 $-1 $122 forward single #
loop $-1 $-1 $123 $60 #
plane-surface $-1 45.028229621265297 0 0 -1 0 0 0 0 1 forward_v I I I I #
face $-1 $124 $125 $46 $-1 $126 reversed single #
loop $-1 $-1 $127 $61 #
plane-surface $-1 -45.028229621265297 0 0 1 0 0 0 0 -1 forward_v I I I I #
face $-1 $128 $129 $47 $-1 $130 reversed single #
loop $-1 $-1 $131 $62 #
plane-surface $-1 45.028229621265297 0 0 -1 0 0 0 0 1 forward_v I I I I #
face $-1 $132 $133 $48 $-1 $134 reversed single #
loop $-1 $-1 $135 $63 #
plane-surface $-1 -18.805696043693018 -85.145477193102536 72.751035841745335 -1 0 0 0 -0.62932039886446345 0.77714595512881146 forward_v I I I I #
face $-1 $136 $137 $49 $-1 $138 forward single #
loop $-1 $139 $140 $64 #
cone-surface $-1 -32.419228794065035 -24.190791626380701 3.9728982985873156 0 0.62932039886446345 -0.77714595512881146 1 0 0 1 I I 0 1 1 forward I I I I #
face $-1 $141 $142 $50 $-1 $143 forward single #
loop $-1 $144 $145 $65 #
cone-surface $-1 -27.31415401267553 -24.190791626380701 3.9728982985873156 0 0.62932039886446345 -0.77714595512881146 1 0 0 1 I I 0 1 1 forward I I I I #
face $-1 $146 $147 $51 $-1 $148 forward single #
loop $-1 $149 $150 $66 #
cone-surface $-1 -22.209079231286022 -24.190791626380701 3.9728982985873156 0 0.62932039886446345 -0.77714595512881146 1 0 0 1 I I 0 1 1 forward I I I I #
face $-1 $151 $152 $52 $-1 $153 reversed single #
loop $-1 $-1 $154 $67 #
plane-surface $-1 -33.526634603546228 50.068779094605219 108.98203712705524 1 0 0 0 -0.69465837861970381 -0.71933979245794832 forward_v I I I I #
face $-1 $155 $156 $53 $-1 $157 forward single #
loop $-1 $158 $159 $68 #
cone-surface $-1 -29.752835528272765 26.412258517096408 5.8943300416820463 0 -0.69465837861970381 -0.71933979245794832 0.5 0 0 1 I I 0 1 0.5 forward I I I I #
face $-1 $160 $161 $54 $-1 $162 reversed single #
loop $-1 $-1 $163 $69 #
plane-surface $-1 -13.691410918031044 50.068779094605219 108.98203712705524 1 0 0 0 -0.69465837861970381 -0.71933979245794832 forward_v I I I I #
face $-1 $164 $165 $55 $-1 $166 forward single #
loop $-1 $167 $168 $70 #
cone-surface $-1 -9.9176118427575872 26.412258517096408 5.8943300416820463 0 -0.69465837861970381 -0.71933979245794832 0.5 0 0 1 I I 0 1 0.5 forward I I I I #
face $-1 $169 $170 $56 $-1 $171 reversed single #
loop $-1 $-1 $172 $71 #
plane-surface $-1 6.1438127674841372 50.068779094605219 108.98203712705524 1 0 0 0 -0.69465837861970381 -0.71933979245794832 forward_v I I I I #
face $-1 $173 $174 $57 $-1 $175 forward single #
loop $-1 $176 $177 $72 #
cone-surface $-1 9.9176118427575943 26.412258517096408 5.8943300416820463 0 -0.69465837861970381 -0.71933979245794832 0.5 0 0 1 I I 0 1 0.5 forward I I I I #
face $-1 $178 $179 $58 $-1 $180 reversed single #
loop $-1 $-1 $181 $73 #
plane-surface $-1 25.97903645299931 50.068779094605219 108.98203712705524 1 0 0 0 -0.69465837861970381 -0.71933979245794832 forward_v I I I I #
face $-1 $182 $183 $59 $-1 $184 forward single #
loop $-1 $185 $186 $74 #
cone-surface $-1 29.752835528272769 26.412258517096408 5.8943300416820463 0 -0.69465837861970381 -0.71933979245794832 0.5 0 0 1 I I 0 1 0.5 forward I I I I #
face $-1 $187 $188 $45 $-1 $189 reversed single #
loop $-1 $-1 $190 $75 #
plane-surface $-1 0 0 7.9083424753935914 0 0 1 1 0 0 forward_v I I I I #
coedge $-1 $191 $192 $193 $194 reversed $76 $-1 #
face $-1 $195 $196 $46 $-1 $197 forward single #
loop $-1 $-1 $198 $78 #
plane-surface $-1 0 28.471110342271885 0 0 -1 0 0 0 -1 forward_v I I I I #
coedge $-1 $199 $200 $201 $202 forward $79 $-1 #
face $-1 $203 $204 $47 $-1 $205 forward single #
loop $-1 $-1 $206 $81 #
plane-surface $-1 0 -28.471110342271885 0 0 1 0 0 0 1 forward_v I I I I #
coedge $-1 $207 $208 $209 $210 forward $82 $-1 #
face $-1 $211 $212 $48 $-1 $213 reversed single #
loop $-1 $-1 $214 $84 #
plane-surface $-1 -27.31415401267553 -28.471110342271885 2.7640228081900204 0 -0.62932039886446345 0.77714595512881146 1 0 0 forward_v I I I I #
coedge $-1 $215 $216 $217 $218 reversed $85 $-1 #
face $-1 $-1 $219 $49 $-1 $220 forward single #
loop $-1 $221 $222 $87 #
cone-surface $-1 -32.419228794065035 -22.772165510418766 2.2210409778184159 0 0.62932039886446345 -0.77714595512881146 0.5 0 0 1 I I -0.70710678118654746 0.70710678118654746 0.5 forward I I I I #
loop $-1 $-1 $223 $64 #
coedge $-1 $140 $140 $224 $225 reversed $88 $-1 #
face $-1 $-1 $226 $50 $-1 $227 forward single #
loop $-1 $228 $229 $90 #
cone-surface $-1 -27.31415401267553 -22.772165510418766 2.2210409778184159 0 0.62932039886446345 -0.77714595512881146 0.5 0 0 1 I I -0.70710678118654746 0.70710678118654746 0.5 forward I I I I #
loop $-1 $-1 $230 $65 #
coedge $-1 $145 $145 $231 $232 reversed $91 $-1 #
face $-1 $-1 $233 $51 $-1 $234 forward single #
loop $-1 $235 $236 $93 #
cone-surface $-1 -22.209079231286022 -22.772165510418766 2.2210409778184159 0 0.62932039886446345 -0.77714595512881146 0.5 0 0 1 I I -0.70710678118654746 0.70710678118654746 0.5 forward I I I I #
loop $-1 $-1 $237 $66 #
coedge $-1 $150 $150 $238 $239 reversed $94 $-1 #
face $-1 $240 $241 $52 $-1 $242 reversed single #
loop $-1 $-1 $243 $96 #
plane-surface $-1 -29.752835528272769 -12.489694867042523 44.200842426035592 0 0.69465837861970381 0.71933979245794832 1 0 0 forward_v I I I I #
coedge $-1 $244 $245 $246 $247 reversed $97 $-1 #
face $-1 $-1 $248 $53 $-1 $249 forward single #
loop $-1 $250 $251 $99 #
cone-surface $-1 -29.752835528272765 25.869153197473793 5.3319280324002749 0 -0.69465837861970381 -0.71933979245794832 0.25 0 0 1 I I -0.70710678118654746 0.70710678118654746 0.25 forward I I I I #
loop $-1 $-1 $252 $68 #
coedge $-1 $159 $159 $253 $254 reversed $100 $-1 #
face $-1 $255 $256 $54 $-1 $257 reversed single #
loop $-1 $-1 $258 $102 #
plane-surface $-1 -9.9176118427575872 -12.489694867042523 44.200842426035592 0 0.69465837861970381 0.71933979245794832 1 0 0 forward_v I I I I #
coedge $-1 $259 $260 $261 $262 reversed $103 $-1 #
face $-1 $-1 $263 $55 $-1 $264 forward single #
loop $-1 $265 $266 $105 #
cone-surface $-1 -9.9176118427575872 25.869153197473793 5.3319280324002749 0 -0.69465837861970381 -0.71933979245794832 0.25 0 0 1 I I -0.70710678118654746 0.70710678118654746 0.25 forward I I I I #
loop $-1 $-1 $267 $70 #
coedge $-1 $168 $168 $268 $269 reversed $106 $-1 #
face $-1 $270 $271 $56 $-1 $272 reversed single #
loop $-1 $-1 $273 $108 #
plane-surface $-1 9.9176118427575943 -12.489694867042523 44.200842426035592 0 0.69465837861970381 0.71933979245794832 1 0 0 forward_v I I I I #
coedge $-1 $274 $275 $276 $277 reversed $109 $-1 #
face $-1 $-1 $278 $57 $-1 $279 forward single #
loop $-1 $280 $281 $111 #
cone-surface $-1 9.9176118427575943 25.869153197473793 5.3319280324002749 0 -0.69465837861970381 -0.71933979245794832 0.25 0 0 1 I I -0.70710678118654746 0.70710678118654746 0.25 forward I I I I #
loop $-1 $-1 $282 $72 #
coedge $-1 $177 $177 $283 $284 reversed $112 $-1 #
face $-1 $285 $286 $58 $-1 $287 reversed single #
loop $-1 $-1 $288 $114 #
plane-surface $-1 29.752835528272769 -12.489694867042523 44.200842426035592 0 0.69465837861970381 0.71933979245794832 1 0 0 forward_v I I I I #
coedge $-1 $289 $290 $291 $292 reversed $115 $-1 #
face $-1 $-1 $293 $59 $-1 $294 forward single #
loop $-1 $295 $296 $117 #
cone-surface $-1 29.752835528272769 25.869153197473793 5.3319280324002749 0 -0.69465837861970381 -0.71933979245794832 0.25 0 0 1 I I -0.70710678118654746 0.70710678118654746 0.25 forward I I I I #
loop $-1 $-1 $297 $74 #
coedge $-1 $186 $186 $298 $299 reversed $118 $-1 #
face $-1 $300 $301 $45 $-1 $302 reversed single #
loop $-1 $-1 $303 $120 #
plane-surface $-1 0 0 -7.9083424753935914 0 0 1 1 0 0 forward_v I I I I #
coedge $-1 $304 $305 $191 $306 forward $121 $-1 #
coedge $-1 $307 $123 $190 $306 reversed $76 $-1 #
coedge $-1 $123 $307 $303 $308 reversed $76 $-1 #
coedge $-1 $309 $310 $123 $194 forward $311 $-1 #
edge $-1 $312 -7.9083424753935914 $313 7.9083424753935914 $123 $314 forward 7 unknown #
face $-1 $315 $316 $46 $-1 $317 reversed single #
loop $-1 $-1 $201 $124 #
plane-surface $-1 -49.631038441068924 0 -2.7136215897810274 0 0 1 1 0 0 forward_v I I I I #
coedge $-1 $318 $319 $200 $320 forward $125 $-1 #
coedge $-1 $321 $127 $322 $323 reversed $79 $-1 #
coedge $-1 $127 $321 $198 $320 reversed $79 $-1 #
coedge $-1 $324 $325 $127 $202 reversed $196 $-1 #
edge $-1 $326 -28.471110342271885 $327 28.471110342271885 $201 $328 forward 7 unknown #
face $-1 $329 $330 $47 $-1 $331 reversed single #
loop $-1 $-1 $332 $128 #
plane-surface $-1 49.631038441068924 0 -2.7136215897810274 0 0 1 1 0 0 forward_v I I I I #
coedge $-1 $333 $334 $208 $335 forward $129 $-1 #
coedge $-1 $336 $131 $337 $338 reversed $82 $-1 #
coedge $-1 $131 $336 $206 $335 reversed $82 $-1 #
coedge $-1 $339 $340 $131 $210 reversed $204 $-1 #
edge $-1 $341 -28.471110342271885 $342 28.471110342271885 $209 $343 forward 7 unknown #
face $-1 $344 $345 $48 $-1 $346 forward single #
loop $-1 $-1 $347 $132 #
plane-surface $-1 -35.822611981658042 -85.145477193102536 72.751035841745335 1 0 0 0 0.62932039886446345 -0.77714595512881146 forward_v I I I I #
coedge $-1 $348 $349 $350 $351 reversed $133 $-1 #
coedge $-1 $216 $135 $352 $353 reversed $85 $-1 #
coedge $-1 $135 $215 $348 $354 reversed $85 $-1 #
coedge $-1 $350 $355 $135 $218 forward $345 $-1 #
edge $-1 $356 14.101628254279383 $357 20.454333853002353 $217 $358 forward 7 unknown #
loop $-1 $-1 $224 $136 #
plane-surface $-1 -27.31415401267553 -28.471110342271885 2.7640228081900204 0 -0.62932039886446345 0.77714595512881146 1 0 0 forward_v I I I I #
loop $-1 $-1 $359 $87 #
coedge $-1 $222 $222 $223 $360 reversed $137 $-1 #
coedge $-1 $223 $223 $222 $360 forward $139 $-1 #
coedge $-1 $224 $224 $140 $225 forward $219 $-1 #
edge $-1 $361 -5.2518187581664207e-016 $361 6.2831853071795996 $224 $362 forward 7 unknown #
loop $-1 $-1 $231 $141 #
plane-surface $-1 -27.31415401267553 -28.471110342271885 2.7640228081900204 0 -0.62932039886446345 0.77714595512881146 1 0 0 forward_v I I I I #
loop $-1 $-1 $363 $90 #
coedge $-1 $229 $229 $230 $364 reversed $142 $-1 #
coedge $-1 $230 $230 $229 $364 forward $144 $-1 #
coedge $-1 $231 $231 $145 $232 forward $226 $-1 #
edge $-1 $365 -5.2518187581664207e-016 $365 6.2831853071795996 $231 $366 forward 7 unknown #
loop $-1 $-1 $238 $146 #
plane-surface $-1 -27.31415401267553 -28.471110342271885 2.7640228081900204 0 -0.62932039886446345 0.77714595512881146 1 0 0 forward_v I I I I #
loop $-1 $-1 $367 $93 #
coedge $-1 $236 $236 $237 $368 reversed $147 $-1 #
coedge $-1 $237 $237 $236 $368 forward $149 $-1 #
coedge $-1 $238 $238 $150 $239 forward $233 $-1 #
edge $-1 $369 -5.2518187581664207e-016 $369 6.2831853071795996 $238 $370 forward 7 unknown #
face $-1 $371 $372 $52 $-1 $373 reversed single #
loop $-1 $-1 $374 $151 #
plane-surface $-1 -25.97903645299931 50.068779094605219 108.98203712705524 -1 0 0 0 0.69465837861970381 0.71933979245794832 forward_v I I I I #
coedge $-1 $375 $376 $377 $378 reversed $152 $-1 #
coedge $-1 $245 $154 $379 $380 reversed $97 $-1 #
coedge $-1 $154 $244 $375 $381 reversed $97 $-1 #
coedge $-1 $377 $382 $154 $247 forward $383 $-1 #
edge $-1 $384 -3.4367207949692755 $385 -0.057898594553698501 $246 $386 forward 7 unknown #
loop $-1 $-1 $253 $155 #
plane-surface $-1 -29.752835528272769 -12.489694867042523 44.200842426035592 0 0.69465837861970381 0.71933979245794832 1 0 0 forward_v I I I I #
loop $-1 $-1 $387 $99 #
coedge $-1 $251 $251 $252 $388 reversed $156 $-1 #
coedge $-1 $252 $252 $251 $388 forward $158 $-1 #
coedge $-1 $253 $253 $159 $254 forward $248 $-1 #
edge $-1 $389 -3.5265114926128642e-015 $389 6.2831853071795969 $253 $390 forward 7 unknown #
face $-1 $391 $392 $54 $-1 $393 forward single #
loop $-1 $-1 $394 $160 #
plane-surface $-1 -6.1438127674841301 50.068779094605219 108.98203712705524 -1 0 0 0 0.69465837861970381 0.71933979245794832 forward_v I I I I #
coedge $-1 $395 $396 $397 $398 reversed $161 $-1 #
coedge $-1 $260 $163 $399 $400 reversed $103 $-1 #
coedge $-1 $163 $259 $395 $401 reversed $103 $-1 #
coedge $-1 $397 $402 $163 $262 forward $392 $-1 #
edge $-1 $403 -3.4367207949692755 $404 -0.057898594553698501 $261 $405 forward 7 unknown #
loop $-1 $-1 $268 $164 #
plane-surface $-1 -9.9176118427575872 -12.489694867042523 44.200842426035592 0 0.69465837861970381 0.71933979245794832 1 0 0 forward_v I I I I #
loop $-1 $-1 $406 $105 #
coedge $-1 $266 $266 $267 $407 reversed $165 $-1 #
coedge $-1 $267 $267 $266 $407 forward $167 $-1 #
coedge $-1 $268 $268 $168 $269 forward $263 $-1 #
edge $-1 $408 -3.5265114926128642e-015 $408 6.2831853071795969 $268 $409 forward 7 unknown #
face $-1 $410 $411 $56 $-1 $412 forward single #
loop $-1 $-1 $413 $169 #
plane-surface $-1 13.691410918031051 50.068779094605219 108.98203712705524 -1 0 0 0 0.69465837861970381 0.71933979245794832 forward_v I I I I #
coedge $-1 $414 $415 $416 $417 reversed $170 $-1 #
coedge $-1 $275 $172 $418 $419 reversed $109 $-1 #
coedge $-1 $172 $274 $414 $420 reversed $109 $-1 #
coedge $-1 $416 $421 $172 $277 forward $411 $-1 #
edge $-1 $422 -3.4367207949692755 $423 -0.057898594553698501 $276 $424 forward 7 unknown #
loop $-1 $-1 $283 $173 #
plane-surface $-1 9.9176118427575943 -12.489694867042523 44.200842426035592 0 0.69465837861970381 0.71933979245794832 1 0 0 forward_v I I I I #
loop $-1 $-1 $425 $111 #
coedge $-1 $281 $281 $282 $426 reversed $174 $-1 #
coedge $-1 $282 $282 $281 $426 forward $176 $-1 #
coedge $-1 $283 $283 $177 $284 forward $278 $-1 #
edge $-1 $427 -3.5265114926128642e-015 $427 6.2831853071795969 $283 $428 forward 7 unknown #
face $-1 $429 $430 $58 $-1 $431 forward single #
loop $-1 $-1 $432 $178 #
plane-surface $-1 33.526634603546228 50.068779094605219 108.98203712705524 -1 0 0 0 0.69465837861970381 0.71933979245794832 forward_v I I I I #
coedge $-1 $433 $434 $435 $436 reversed $179 $-1 #
coedge $-1 $290 $181 $437 $438 reversed $115 $-1 #
coedge $-1 $181 $289 $433 $439 reversed $115 $-1 #
coedge $-1 $435 $440 $181 $292 forward $430 $-1 #
edge $-1 $441 -3.4367207949692755 $442 -0.057898594553698501 $291 $443 forward 7 unknown #
loop $-1 $-1 $298 $182 #
plane-surface $-1 29.752835528272769 -12.489694867042523 44.200842426035592 0 0.69465837861970381 0.71933979245794832 1 0 0 forward_v I I I I #
loop $-1 $-1 $444 $117 #
coedge $-1 $296 $296 $297 $445 reversed $183 $-1 #
coedge $-1 $297 $297 $296 $445 forward $185 $-1 #
coedge $-1 $298 $298 $186 $299 forward $293 $-1 #
edge $-1 $446 -3.5265114926128642e-015 $446 6.2831853071795969 $298 $447 forward 7 unknown #
face $-1 $448 $449 $45 $-1 $450 reversed single #
loop $-1 $-1 $451 $187 #
plane-surface $-1 0 -28.471110342271885 0 0 1 0 0 0 1 forward_v I I I I #
coedge $-1 $452 $453 $192 $308 forward $188 $-1 #
coedge $-1 $454 $190 $310 $455 forward $121 $-1 #
coedge $-1 $190 $454 $456 $457 forward $121 $-1 #
edge $-1 $458 -28.471110342271885 $312 28.471110342271885 $191 $459 forward 7 unknown #
coedge $-1 $192 $191 $460 $461 forward $76 $-1 #
edge $-1 $313 -28.471110342271885 $462 28.471110342271885 $192 $463 forward 7 unknown #
coedge $-1 $464 $193 $453 $465 reversed $311 $-1 #
coedge $-1 $193 $464 $304 $455 reversed $311 $-1 #
loop $-1 $-1 $193 $448 #
vertex $-1 $306 $466 #
vertex $-1 $308 $467 #
straight-curve $-1 45.028229621265297 28.471110342271885 0 0 0 -1 I I #
face $-1 $468 $469 $46 $-1 $470 reversed single #
loop $-1 $-1 $471 $195 #
plane-surface $-1 -49.631038441068924 0 -5.7136215897810274 0 0 1 1 0 0 forward_v I I I I #
coedge $-1 $472 $198 $473 $474 reversed $125 $-1 #
coedge $-1 $198 $472 $324 $475 reversed $125 $-1 #
edge $-1 $326 2.7136215897810274 $476 5.7136215897810274 $198 $477 forward 7 unknown #
coedge $-1 $200 $199 $471 $478 forward $79 $-1 #
coedge $-1 $479 $480 $199 $323 forward $481 $-1 #
edge $-1 $482 -5.7136215897810274 $327 -2.7136215897810274 $322 $483 forward 7 unknown #
coedge $-1 $484 $201 $319 $475 forward $196 $-1 #
coedge $-1 $201 $484 $479 $485 forward $196 $-1 #
vertex $-1 $320 $486 #
vertex $-1 $485 $487 #
straight-curve $-1 -45.028229621265297 0 -2.7136215897810274 0 -1 0 I I #
face $-1 $488 $489 $47 $-1 $490 reversed single #
loop $-1 $-1 $491 $203 #
plane-surface $-1 49.631038441068924 0 -5.7136215897810274 0 0 1 1 0 0 forward_v I I I I #
coedge $-1 $340 $339 $492 $493 forward $204 $-1 #
coedge $-1 $494 $206 $495 $496 reversed $129 $-1 #
coedge $-1 $206 $494 $339 $497 reversed $129 $-1 #
edge $-1 $341 2.7136215897810274 $498 5.7136215897810274 $206 $499 forward 7 unknown #
coedge $-1 $208 $207 $500 $501 forward $82 $-1 #
coedge $-1 $502 $503 $207 $338 forward $504 $-1 #
edge $-1 $505 -5.7136215897810274 $342 -2.7136215897810274 $337 $506 forward 7 unknown #
coedge $-1 $332 $209 $334 $497 forward $204 $-1 #
coedge $-1 $209 $332 $502 $507 forward $204 $-1 #
vertex $-1 $335 $508 #
vertex $-1 $507 $509 #
straight-curve $-1 45.028229621265297 0 -2.7136215897810274 0 1 0 I I #
face $-1 $-1 $510 $48 $-1 $511 reversed single #
loop $-1 $-1 $217 $211 #
plane-surface $-1 0 0 7.9083424753935914 0 0 1 1 0 0 forward_v I I I I #
coedge $-1 $512 $513 $514 $515 reversed $212 $-1 #
coedge $-1 $516 $214 $216 $354 forward $133 $-1 #
coedge $-1 $214 $516 $512 $517 forward $133 $-1 #
coedge $-1 $514 $217 $214 $351 forward $345 $-1 #
edge $-1 $357 5.1486190373552532 $518 22.165534975320277 $350 $519 forward 7 unknown #
coedge $-1 $520 $521 $215 $353 forward $510 $-1 #
edge $-1 $522 -33.611495112682647 $356 -28.467175445479075 $352 $523 forward 7 unknown #
edge $-1 $357 -8.1744047650225653 $522 0 $216 $524 forward 7 unknown #
coedge $-1 $217 $514 $520 $525 forward $345 $-1 #
vertex $-1 $353 $526 #
vertex $-1 $218 $527 #
straight-curve $-1 -18.805696043693018 -42.572738596551268 7.9083424753935887 0 1 0 I I #
coedge $-1 $359 $359 $-1 $528 reversed $221 $-1 #
edge $-1 $529 0 $529 6.2831853071796004 $222 $530 forward 7 unknown #
vertex $-1 $225 $531 #
ellipse-curve $-1 -32.419228794065035 -25.2947575429104 5.3361826417918055 0 -0.62932039886446345 0.77714595512881146 1 0 0 1 I I #
coedge $-1 $363 $363 $-1 $532 reversed $228 $-1 #
edge $-1 $533 0 $533 6.2831853071796004 $229 $534 forward 7 unknown #
vertex $-1 $232 $535 #
ellipse-curve $-1 -27.31415401267553 -25.2947575429104 5.3361826417918055 0 -0.62932039886446345 0.77714595512881146 1 0 0 1 I I #
coedge $-1 $367 $367 $-1 $536 reversed $235 $-1 #
edge $-1 $537 0 $537 6.2831853071796004 $236 $538 forward 7 unknown #
vertex $-1 $239 $539 #
ellipse-curve $-1 -22.209079231286022 -25.2947575429104 5.3361826417918055 0 -0.62932039886446345 0.77714595512881146 1 0 0 1 I I #
face $-1 $-1 $383 $52 $-1 $540 forward single #
loop $-1 $-1 $541 $240 #
plane-surface $-1 0 28.471110342271885 0 0 -1 0 0 0 -1 forward_v I I I I #
coedge $-1 $542 $543 $544 $545 reversed $241 $-1 #
coedge $-1 $546 $243 $245 $381 forward $152 $-1 #
coedge $-1 $243 $546 $542 $547 forward $152 $-1 #
coedge $-1 $544 $246 $243 $378 forward $383 $-1 #
edge $-1 $385 -18.650216839409843 $548 -11.102618688862925 $377 $549 forward 7 unknown #
coedge $-1 $550 $551 $244 $380 forward $372 $-1 #
edge $-1 $552 -49.845566833222563 $384 -46.582676088134029 $379 $553 forward 7 unknown #
edge $-1 $385 52.245105029548085 $552 56.94222068454377 $245 $554 forward 7 unknown #
coedge $-1 $246 $544 $550 $555 forward $383 $-1 #
loop $-1 $-1 $544 $371 #
vertex $-1 $380 $556 #
vertex $-1 $247 $557 #
straight-curve $-1 -33.526634603546228 25.034389547302609 7.9083424753935887 0 -1 0 I I #
coedge $-1 $387 $387 $-1 $558 reversed $250 $-1 #
edge $-1 $559 0 $559 6.2831853071796004 $251 $560 forward 7 unknown #
vertex $-1 $254 $561 #
ellipse-curve $-1 -29.752835528272765 26.781699242064093 6.2768971028493254 0 0.69465837861970381 0.71933979245794832 0.5 0 0 1 I I #
face $-1 $-1 $562 $54 $-1 $563 reversed single #
loop $-1 $-1 $261 $255 #
plane-surface $-1 0 0 7.9083424753935914 0 0 1 1 0 0 forward_v I I I I #
coedge $-1 $564 $565 $566 $567 reversed $256 $-1 #
coedge $-1 $568 $258 $260 $401 forward $161 $-1 #
coedge $-1 $258 $568 $564 $569 forward $161 $-1 #
coedge $-1 $566 $261 $258 $398 forward $392 $-1 #
edge $-1 $404 -8.7326049966522508 $570 -1.1850068461053365 $397 $571 forward 7 unknown #
coedge $-1 $572 $573 $259 $400 forward $562 $-1 #
edge $-1 $574 -49.845566833222563 $403 -46.582676088134029 $399 $575 forward 7 unknown #
edge $-1 $404 52.245105029548085 $574 56.94222068454377 $260 $576 forward 7 unknown #
coedge $-1 $261 $566 $572 $577 forward $392 $-1 #
vertex $-1 $262 $578 #
vertex $-1 $262 $579 #
straight-curve $-1 -13.691410918031044 25.034389547302609 7.9083424753935887 0 -1 0 I I #
coedge $-1 $406 $406 $-1 $580 reversed $265 $-1 #
edge $-1 $581 0 $581 6.2831853071796004 $266 $582 forward 7 unknown #
vertex $-1 $269 $583 #
ellipse-curve $-1 -9.9176118427575872 26.781699242064093 6.2768971028493254 0 0.69465837861970381 0.71933979245794832 0.5 0 0 1 I I #
face $-1 $-1 $584 $56 $-1 $585 reversed single #
loop $-1 $-1 $276 $270 #
plane-surface $-1 0 0 7.9083424753935914 0 0 1 1 0 0 forward_v I I I I #
coedge $-1 $586 $587 $588 $589 reversed $271 $-1 #
coedge $-1 $590 $273 $275 $420 forward $170 $-1 #
coedge $-1 $273 $590 $586 $591 forward $170 $-1 #
coedge $-1 $588 $276 $273 $417 forward $411 $-1 #
edge $-1 $423 1.18500684610534 $592 8.7326049966522543 $416 $593 forward 7 unknown #
coedge $-1 $594 $595 $274 $419 forward $584 $-1 #
edge $-1 $596 -49.845566833222563 $422 -46.582676088134029 $418 $597 forward 7 unknown #
edge $-1 $423 52.245105029548085 $596 56.94222068454377 $275 $598 forward 7 unknown #
coedge $-1 $276 $588 $594 $599 forward $411 $-1 #
vertex $-1 $277 $600 #
vertex $-1 $277 $601 #
straight-curve $-1 6.1438127674841372 25.034389547302609 7.9083424753935887 0 -1 0 I I #
coedge $-1 $425 $425 $-1 $602 reversed $280 $-1 #
edge $-1 $603 0 $603 6.2831853071796004 $281 $604 forward 7 unknown #
vertex $-1 $284 $605 #
ellipse-curve $-1 9.9176118427575943 26.781699242064093 6.2768971028493254 0 0.69465837861970381 0.71933979245794832 0.5 0 0 1 I I #
face $-1 $-1 $606 $58 $-1 $607 reversed single #
loop $-1 $-1 $291 $285 #
plane-surface $-1 0 0 7.9083424753935914 0 0 1 1 0 0 forward_v I I I I #
coedge $-1 $608 $609 $610 $611 reversed $286 $-1 #
coedge $-1 $612 $288 $290 $439 forward $179 $-1 #
coedge $-1 $288 $612 $608 $613 forward $179 $-1 #
coedge $-1 $610 $291 $288 $436 forward $430 $-1 #
edge $-1 $442 11.102618688862925 $614 18.650216839409843 $435 $615 forward 7 unknown #
coedge $-1 $616 $617 $289 $438 forward $606 $-1 #
edge $-1 $618 -49.845566833222563 $441 -46.582676088134029 $437 $619 forward 7 unknown #
edge $-1 $442 52.245105029548085 $618 56.94222068454377 $290 $620 forward 7 unknown #
coedge $-1 $291 $610 $616 $621 forward $430 $-1 #
vertex $-1 $292 $622 #
vertex $-1 $292 $623 #
straight-curve $-1 25.97903645299931 25.034389547302609 7.9083424753935887 0 -1 0 I I #
coedge $-1 $444 $444 $-1 $624 reversed $295 $-1 #
edge $-1 $625 0 $625 6.2831853071796004 $296 $626 forward 7 unknown #
vertex $-1 $299 $627 #
ellipse-curve $-1 29.752835528272769 26.781699242064093 6.2768971028493254 0 0.69465837861970381 0.71933979245794832 0.5 0 0 1 I I #
face $-1 $-1 $311 $45 $-1 $628 reversed single #
loop $-1 $-1 $629 $300 #
plane-surface $-1 -45.028229621265297 0 0 1 0 0 0 0 -1 forward_v I I I I #
coedge $-1 $630 $456 $629 $631 forward $301 $-1 #
coedge $-1 $632 $303 $630 $633 forward $188 $-1 #
coedge $-1 $303 $632 $309 $465 forward $188 $-1 #
coedge $-1 $305 $304 $634 $635 forward $121 $-1 #
edge $-1 $312 -45.028229621265297 $636 45.028229621265297 $310 $637 forward 7 unknown #
coedge $-1 $451 $460 $305 $457 reversed $301 $-1 #
edge $-1 $638 -45.028229621265297 $458 45.028229621265297 $456 $639 forward 7 unknown #
vertex $-1 $306 $640 #
straight-curve $-1 45.028229621265297 0 7.9083424753935914 0 1 0 I I #
coedge $-1 $456 $630 $307 $461 reversed $301 $-1 #
edge $-1 $458 -7.9083424753935914 $462 7.9083424753935914 $307 $641 forward 7 unknown #
vertex $-1 $461 $642 #
straight-curve $-1 45.028229621265297 0 -7.9083424753935914 0 -1 0 I I #
coedge $-1 $310 $309 $643 $644 reversed $311 $-1 #
edge $-1 $645 -45.028229621265297 $313 45.028229621265297 $309 $646 forward 7 unknown #
point $-1 45.028229621265297 28.471110342271885 7.9083424753935914 #
point $-1 45.028229621265297 28.471110342271885 -7.9083424753935914 #
face $-1 $-1 $481 $46 $-1 $647 reversed single #
loop $-1 $-1 $648 $315 #
plane-surface $-1 -54.233847260872551 0 -4.2136215897810274 1 0 0 0 0 -1 forward_v I I I I #
coedge $-1 $649 $473 $321 $478 reversed $316 $-1 #
coedge $-1 $319 $318 $648 $650 reversed $125 $-1 #
coedge $-1 $471 $651 $318 $474 forward $316 $-1 #
edge $-1 $652 -4.6028088198036272 $476 4.6028088198036272 $318 $653 forward 7 unknown #
edge $-1 $326 -4.6028088198036272 $654 4.6028088198036272 $319 $655 forward 7 unknown #
vertex $-1 $320 $656 #
straight-curve $-1 -45.028229621265297 28.471110342271885 0 0 0 -1 I I #
edge $-1 $482 -28.471110342271885 $476 28.471110342271885 $471 $657 forward 7 unknown #
coedge $-1 $658 $322 $325 $485 reversed $481 $-1 #
coedge $-1 $322 $658 $649 $659 reversed $481 $-1 #
loop $-1 $-1 $322 $468 #
vertex $-1 $323 $660 #
straight-curve $-1 -45.028229621265297 -28.471110342271885 0 0 0 1 I I #
coedge $-1 $325 $324 $661 $662 forward $196 $-1 #
edge $-1 $663 -4.6028088198036272 $327 4.6028088198036272 $479 $664 forward 7 unknown #
point $-1 -45.028229621265297 28.471110342271885 -2.7136215897810274 #
point $-1 -45.028229621265297 -28.471110342271885 -2.7136215897810274 #
face $-1 $-1 $504 $47 $-1 $665 reversed single #
loop $-1 $-1 $666 $329 #
plane-surface $-1 54.233847260872551 0 -4.2136215897810274 -1 0 0 0 0 1 forward_v I I I I #
coedge $-1 $495 $667 $668 $669 forward $330 $-1 #
coedge $-1 $666 $670 $332 $493 reversed $489 $-1 #
edge $-1 $671 -28.471110342271885 $672 28.471110342271885 $492 $673 forward 7 unknown #
coedge $-1 $334 $333 $666 $674 reversed $129 $-1 #
coedge $-1 $500 $491 $333 $496 forward $330 $-1 #
edge $-1 $675 -4.6028088198036272 $498 4.6028088198036272 $333 $676 forward 7 unknown #
edge $-1 $341 -4.6028088198036272 $671 4.6028088198036272 $334 $677 forward 7 unknown #
vertex $-1 $335 $678 #
straight-curve $-1 45.028229621265297 -28.471110342271885 0 0 0 -1 I I #
coedge $-1 $667 $495 $336 $501 reversed $330 $-1 #
edge $-1 $505 -28.471110342271885 $498 28.471110342271885 $500 $679 forward 7 unknown #
coedge $-1 $680 $337 $340 $507 reversed $504 $-1 #
coedge $-1 $337 $680 $667 $681 reversed $504 $-1 #
loop $-1 $-1 $337 $488 #
vertex $-1 $338 $682 #
straight-curve $-1 45.028229621265297 28.471110342271885 0 0 0 1 I I #
edge $-1 $672 -4.6028088198036272 $342 4.6028088198036272 $502 $683 forward 7 unknown #
point $-1 45.028229621265297 -28.471110342271885 -2.7136215897810274 #
point $-1 45.028229621265297 28.471110342271885 -2.7136215897810274 #
loop $-1 $-1 $352 $344 #
plane-surface $-1 0 -28.471110342271885 0 0 1 0 0 0 1 forward_v I I I I #
coedge $-1 $513 $347 $349 $517 reversed $212 $-1 #
coedge $-1 $347 $512 $684 $685 reversed $212 $-1 #
coedge $-1 $355 $350 $347 $515 forward $345 $-1 #
edge $-1 $518 -20.454333853002353 $686 -14.101628254279383 $514 $687 forward 7 unknown #
coedge $-1 $349 $348 $521 $688 reversed $133 $-1 #
edge $-1 $689 0 $518 8.1744047650225653 $512 $690 forward 7 unknown #
vertex $-1 $351 $691 #
straight-curve $-1 -13.657077006337765 -22.118404743548918 7.9083424753935914 -1 0 0 I I #
coedge $-1 $684 $352 $355 $525 reversed $510 $-1 #
coedge $-1 $352 $684 $516 $688 forward $510 $-1 #
vertex $-1 $353 $692 #
straight-curve $-1 -18.805696043693018 -28.471110342271885 36.375517920872667 0 0 1 I I #
straight-curve $-1 -18.805696043693018 -28.471110342271885 2.7640228081900204 0 -0.77714595512881146 -0.62932039886446345 I I #
edge $-1 $686 -35.822611981658042 $356 -18.805696043693018 $520 $693 forward 7 unknown #
point $-1 -18.805696043693018 -28.471110342271885 7.9083424753935914 #
point $-1 -18.805696043693018 -22.118404743548915 7.9083424753935923 #
edge $-1 $694 1 $694 0 $359 $-1 forward 7 unknown #
vertex $-1 $360 $695 #
ellipse-curve $-1 -32.419228794065035 -23.086825709850999 2.6096139553828217 0 -0.62932039886446345 0.77714595512881146 1 0 0 1 I I #
point $-1 -31.419228794065035 -25.294757542910403 5.336182641791809 #
edge $-1 $696 1 $696 0 $363 $-1 forward 7 unknown #
vertex $-1 $364 $697 #
ellipse-curve $-1 -27.31415401267553 -23.086825709850999 2.6096139553828217 0 -0.62932039886446345 0.77714595512881146 1 0 0 1 I I #
point $-1 -26.31415401267553 -25.294757542910403 5.336182641791809 #
edge $-1 $698 1 $698 0 $367 $-1 forward 7 unknown #
vertex $-1 $368 $699 #
ellipse-curve $-1 -22.209079231286022 -23.086825709850999 2.6096139553828217 0 -0.62932039886446345 0.77714595512881146 1 0 0 1 I I #
point $-1 -21.209079231286022 -25.294757542910403 5.336182641791809 #
plane-surface $-1 0 0 7.9083424753935914 0 0 1 1 0 0 forward_v I I I I #
coedge $-1 $551 $550 $543 $700 forward $372 $-1 #
coedge $-1 $543 $374 $376 $547 reversed $241 $-1 #
coedge $-1 $374 $542 $541 $700 reversed $241 $-1 #
coedge $-1 $382 $377 $374 $545 forward $383 $-1 #
edge $-1 $548 0.057898594553698501 $701 3.4367207949692755 $544 $702 forward 7 unknown #
coedge $-1 $376 $375 $551 $703 reversed $152 $-1 #
edge $-1 $704 -56.94222068454377 $548 -52.245105029548085 $542 $705 forward 7 unknown #
vertex $-1 $378 $706 #
straight-curve $-1 -14.876417764136384 25.092288141856297 7.9083424753935923 1 0 0 I I #
coedge $-1 $541 $379 $382 $555 reversed $372 $-1 #
coedge $-1 $379 $541 $546 $703 forward $372 $-1 #
vertex $-1 $380 $707 #
straight-curve $-1 -33.526634603546228 28.471110342271885 54.491018563527618 0 0 1 I I #
straight-curve $-1 -33.526634603546228 -12.489694867042523 44.200842426035592 0 0.71933979245794832 -0.69465837861970381 I I #
edge $-1 $701 25.97903645299931 $384 33.526634603546228 $550 $708 forward 7 unknown #
point $-1 -33.526634603546228 28.471110342271885 7.9083424753935914 #
point $-1 -33.526634603546228 25.092288141856308 7.9083424753935887 #
edge $-1 $709 1 $709 0 $387 $-1 forward 7 unknown #
vertex $-1 $388 $710 #
ellipse-curve $-1 -29.752835528272765 26.042817792128719 5.5117629805147619 0 0.69465837861970381 0.71933979245794832 0.5 0 0 1 I I #
point $-1 -29.252835528272765 26.781699242064096 6.2768971028493317 #
loop $-1 $-1 $399 $391 #
plane-surface $-1 0 28.471110342271885 0 0 -1 0 0 0 -1 forward_v I I I I #
coedge $-1 $565 $394 $396 $569 reversed $256 $-1 #
coedge $-1 $394 $564 $711 $712 reversed $256 $-1 #
coedge $-1 $402 $397 $394 $567 forward $392 $-1 #
edge $-1 $570 0.057898594553698501 $713 3.4367207949692755 $566 $714 forward 7 unknown #
coedge $-1 $396 $395 $573 $715 reversed $161 $-1 #
edge $-1 $716 -56.94222068454377 $570 -52.245105029548085 $564 $717 forward 7 unknown #
vertex $-1 $398 $718 #
straight-curve $-1 -4.9588059213787936 25.092288141856297 7.9083424753935923 1 0 0 I I #
coedge $-1 $711 $399 $402 $577 reversed $562 $-1 #
coedge $-1 $399 $711 $568 $715 forward $562 $-1 #
vertex $-1 $400 $719 #
straight-curve $-1 -13.691410918031044 28.471110342271885 54.491018563527618 0 0 1 I I #
straight-curve $-1 -13.691410918031044 -12.489694867042523 44.200842426035592 0 0.71933979245794832 -0.69465837861970381 I I #
edge $-1 $713 6.1438127674841301 $403 13.691410918031044 $572 $720 forward 7 unknown #
point $-1 -13.691410918031044 28.471110342271885 7.9083424753935914 #
point $-1 -13.691410918031044 25.092288141856308 7.9083424753935887 #
edge $-1 $721 1 $721 0 $406 $-1 forward 7 unknown #
vertex $-1 $407 $722 #
ellipse-curve $-1 -9.9176118427575872 26.042817792128719 5.5117629805147619 0 0.69465837861970381 0.71933979245794832 0.5 0 0 1 I I #
point $-1 -9.4176118427575872 26.781699242064096 6.2768971028493317 #
loop $-1 $-1 $418 $410 #
plane-surface $-1 0 28.471110342271885 0 0 -1 0 0 0 -1 forward_v I I I I #
coedge $-1 $587 $413 $415 $591 reversed $271 $-1 #
coedge $-1 $413 $586 $723 $724 reversed $271 $-1 #
coedge $-1 $421 $416 $413 $589 forward $411 $-1 #
edge $-1 $592 0.057898594553698501 $725 3.4367207949692755 $588 $726 forward 7 unknown #
coedge $-1 $415 $414 $595 $727 reversed $170 $-1 #
edge $-1 $728 -56.94222068454377 $592 -52.245105029548085 $586 $729 forward 7 unknown #
vertex $-1 $417 $730 #
straight-curve $-1 4.9588059213787972 25.092288141856297 7.9083424753935923 1 0 0 I I #
coedge $-1 $723 $418 $421 $599 reversed $584 $-1 #
coedge $-1 $418 $723 $590 $727 forward $584 $-1 #
vertex $-1 $419 $731 #
straight-curve $-1 6.1438127674841372 28.471110342271885 54.491018563527618 0 0 1 I I #
straight-curve $-1 6.1438127674841372 -12.489694867042523 44.200842426035592 0 0.71933979245794832 -0.69465837861970381 I I #
edge $-1 $725 -13.691410918031051 $422 -6.1438127674841372 $594 $732 forward 7 unknown #
point $-1 6.1438127674841372 28.471110342271885 7.9083424753935914 #
point $-1 6.1438127674841372 25.092288141856308 7.9083424753935887 #
edge $-1 $733 1 $733 0 $425 $-1 forward 7 unknown #
vertex $-1 $426 $734 #
ellipse-curve $-1 9.9176118427575943 26.042817792128719 5.5117629805147619 0 0.69465837861970381 0.71933979245794832 0.5 0 0 1 I I #
point $-1 10.417611842757594 26.781699242064096 6.2768971028493317 #
loop $-1 $-1 $437 $429 #
plane-surface $-1 0 28.471110342271885 0 0 -1 0 0 0 -1 forward_v I I I I #
coedge $-1 $609 $432 $434 $613 reversed $286 $-1 #
coedge $-1 $432 $608 $735 $736 reversed $286 $-1 #
coedge $-1 $440 $435 $432 $611 forward $430 $-1 #
edge $-1 $614 0.057898594553698501 $737 3.4367207949692755 $610 $738 forward 7 unknown #
coedge $-1 $434 $433 $617 $739 reversed $179 $-1 #
edge $-1 $740 -56.94222068454377 $614 -52.245105029548085 $608 $741 forward 7 unknown #
vertex $-1 $436 $742 #
straight-curve $-1 14.876417764136384 25.092288141856297 7.9083424753935923 1 0 0 I I #
coedge $-1 $735 $437 $440 $621 reversed $606 $-1 #
coedge $-1 $437 $735 $612 $739 forward $606 $-1 #
vertex $-1 $438 $743 #
straight-curve $-1 25.97903645299931 28.471110342271885 54.491018563527618 0 0 1 I I #
straight-curve $-1 25.97903645299931 -12.489694867042523 44.200842426035592 0 0.71933979245794832 -0.69465837861970381 I I #
edge $-1 $737 -33.526634603546228 $441 -25.97903645299931 $616 $744 forward 7 unknown #
point $-1 25.97903645299931 28.471110342271885 7.9083424753935914 #
point $-1 25.97903645299931 25.092288141856308 7.9083424753935887 #
edge $-1 $745 1 $745 0 $444 $-1 forward 7 unknown #
vertex $-1 $445 $746 #
ellipse-curve $-1 29.752835528272769 26.042817792128719 5.5117629805147619 0 0.69465837861970381 0.71933979245794832 0.5 0 0 1 I I #
point $-1 30.252835528272769 26.781699242064096 6.2768971028493317 #
plane-surface $-1 0 28.471110342271885 0 0 -1 0 0 0 -1 forward_v I I I I #
coedge $-1 $634 $747 $451 $631 reversed $449 $-1 #
coedge $-1 $460 $451 $452 $633 reversed $301 $-1 #
edge $-1 $638 -7.9083424753935914 $748 7.9083424753935914 $629 $749 forward 7 unknown #
coedge $-1 $453 $452 $747 $750 forward $188 $-1 #
edge $-1 $462 -45.028229621265297 $748 45.028229621265297 $630 $751 forward 7 unknown #
coedge $-1 $643 $629 $454 $635 reversed $449 $-1 #
edge $-1 $636 -28.471110342271885 $638 28.471110342271885 $634 $752 forward 7 unknown #
vertex $-1 $455 $753 #
straight-curve $-1 0 28.471110342271885 7.9083424753935914 -1 0 0 I I #
vertex $-1 $635 $754 #
straight-curve $-1 0 -28.471110342271885 7.9083424753935914 1 0 0 I I #
point $-1 45.028229621265297 -28.471110342271885 7.9083424753935914 #
straight-curve $-1 45.028229621265297 -28.471110342271885 0 0 0 -1 I I #
point $-1 45.028229621265297 -28.471110342271885 -7.9083424753935914 #
coedge $-1 $747 $634 $464 $644 forward $449 $-1 #
edge $-1 $636 -7.9083424753935914 $645 7.9083424753935914 $464 $755 forward 7 unknown #
vertex $-1 $465 $756 #
straight-curve $-1 0 28.471110342271885 -7.9083424753935914 1 0 0 I I #
plane-surface $-1 0 -28.471110342271885 0 0 1 0 0 0 1 forward_v I I I I #
coedge $-1 $757 $661 $472 $650 forward $469 $-1 #
coedge $-1 $651 $471 $480 $659 forward $316 $-1 #
edge $-1 $654 -1.5 $652 1.5 $472 $758 forward 7 unknown #
coedge $-1 $473 $649 $757 $759 forward $316 $-1 #
vertex $-1 $474 $760 #
straight-curve $-1 -49.631038441068924 28.471110342271885 -5.7136215897810274 1 0 0 I I #
vertex $-1 $475 $761 #
straight-curve $-1 -49.631038441068924 28.471110342271885 -2.7136215897810274 -1 0 0 I I #
point $-1 -45.028229621265297 28.471110342271885 -5.7136215897810274 #
straight-curve $-1 -45.028229621265297 0 -5.7136215897810274 0 1 0 I I #
coedge $-1 $480 $479 $762 $763 forward $481 $-1 #
edge $-1 $482 -4.6028088198036272 $764 4.6028088198036272 $480 $765 forward 7 unknown #
point $-1 -45.028229621265297 -28.471110342271885 -5.7136215897810274 #
coedge $-1 $648 $762 $484 $662 reversed $469 $-1 #
edge $-1 $654 -28.471110342271885 $663 28.471110342271885 $661 $766 forward 7 unknown #
vertex $-1 $662 $767 #
straight-curve $-1 -49.631038441068924 -28.471110342271885 -2.7136215897810274 1 0 0 I I #
plane-surface $-1 0 28.471110342271885 0 0 -1 0 0 0 -1 forward_v I I I I #
coedge $-1 $668 $492 $494 $674 forward $489 $-1 #
coedge $-1 $491 $500 $503 $681 forward $330 $-1 #
coedge $-1 $670 $666 $491 $669 reversed $489 $-1 #
edge $-1 $768 -28.471110342271885 $675 28.471110342271885 $668 $769 forward 7 unknown #
coedge $-1 $492 $668 $680 $770 reversed $489 $-1 #
vertex $-1 $493 $771 #
vertex $-1 $493 $772 #
straight-curve $-1 54.233847260872551 0 -2.7136215897810274 0 1 0 I I #
edge $-1 $671 -1.5 $675 1.5 $666 $773 forward 7 unknown #
vertex $-1 $674 $774 #
straight-curve $-1 49.631038441068924 -28.471110342271885 -5.7136215897810274 -1 0 0 I I #
straight-curve $-1 49.631038441068924 -28.471110342271885 -2.7136215897810274 1 0 0 I I #
point $-1 45.028229621265297 -28.471110342271885 -5.7136215897810274 #
straight-curve $-1 45.028229621265297 0 -5.7136215897810274 0 -1 0 I I #
coedge $-1 $503 $502 $670 $770 forward $504 $-1 #
edge $-1 $505 -4.6028088198036272 $768 4.6028088198036272 $503 $775 forward 7 unknown #
point $-1 45.028229621265297 28.471110342271885 -5.7136215897810274 #
straight-curve $-1 49.631038441068924 28.471110342271885 -2.7136215897810274 -1 0 0 I I #
coedge $-1 $521 $520 $513 $685 forward $510 $-1 #
edge $-1 $686 28.467175445479075 $689 33.611495112682647 $684 $776 forward 7 unknown #
vertex $-1 $525 $777 #
straight-curve $-1 -35.822611981658042 -42.572738596551268 7.9083424753935887 0 -1 0 I I #
edge $-1 $689 -22.165534975320277 $522 -5.1486190373552532 $521 $778 forward 7 unknown #
vertex $-1 $688 $779 #
straight-curve $-1 -35.822611981658042 -28.471110342271885 2.7640228081900204 0 0.77714595512881146 0.62932039886446345 I I #
point $-1 -35.822611981658042 -22.118404743548915 7.9083424753935923 #
point $-1 -18.805696043693018 -28.471110342271885 2.7640228081900204 #
straight-curve $-1 0 -28.471110342271885 7.9083424753935914 1 0 0 I I #
vertex $-1 $528 $780 #
point $-1 -31.419228794065035 -23.086825709850999 2.6096139553828217 #
vertex $-1 $532 $781 #
point $-1 -26.31415401267553 -23.086825709850999 2.6096139553828217 #
vertex $-1 $536 $782 #
point $-1 -21.209079231286022 -23.086825709850999 2.6096139553828217 #
edge $-1 $701 46.582676088134029 $704 49.845566833222563 $541 $783 forward 7 unknown #
vertex $-1 $555 $784 #
straight-curve $-1 -25.97903645299931 25.034389547302609 7.9083424753935887 0 1 0 I I #
edge $-1 $704 11.102618688862925 $552 18.650216839409843 $551 $785 forward 7 unknown #
vertex $-1 $703 $786 #
straight-curve $-1 -25.97903645299931 -12.489694867042523 44.200842426035592 0 -0.71933979245794832 0.69465837861970381 I I #
point $-1 -25.97903645299931 25.092288141856308 7.9083424753935887 #
point $-1 -33.526634603546228 28.471110342271885 4.6454517303050551 #
straight-curve $-1 0 28.471110342271885 7.9083424753935914 -1 0 0 I I #
vertex $-1 $558 $787 #
point $-1 -29.252835528272765 26.042817792128719 5.5117629805147619 #
coedge $-1 $573 $572 $565 $712 forward $562 $-1 #
edge $-1 $713 46.582676088134029 $716 49.845566833222563 $711 $788 forward 7 unknown #
vertex $-1 $577 $789 #
straight-curve $-1 -6.1438127674841301 25.034389547302609 7.9083424753935887 0 1 0 I I #
edge $-1 $716 1.1850068461053365 $574 8.7326049966522508 $573 $790 forward 7 unknown #
vertex $-1 $715 $791 #
straight-curve $-1 -6.1438127674841301 -12.489694867042523 44.200842426035592 0 -0.71933979245794832 0.69465837861970381 I I #
point $-1 -6.1438127674841301 25.092288141856308 7.9083424753935887 #
point $-1 -13.691410918031044 28.471110342271885 4.6454517303050551 #
straight-curve $-1 0 28.471110342271885 7.9083424753935914 -1 0 0 I I #
vertex $-1 $580 $792 #
point $-1 -9.4176118427575872 26.042817792128719 5.5117629805147619 #
coedge $-1 $595 $594 $587 $724 forward $584 $-1 #
edge $-1 $725 46.582676088134029 $728 49.845566833222563 $723 $793 forward 7 unknown #
vertex $-1 $599 $794 #
straight-curve $-1 13.691410918031051 25.034389547302609 7.9083424753935887 0 1 0 I I #
edge $-1 $728 -8.7326049966522543 $596 -1.18500684610534 $595 $795 forward 7 unknown #
vertex $-1 $727 $796 #
straight-curve $-1 13.691410918031051 -12.489694867042523 44.200842426035592 0 -0.71933979245794832 0.69465837861970381 I I #
point $-1 13.691410918031051 25.092288141856308 7.9083424753935887 #
point $-1 6.1438127674841372 28.471110342271885 4.6454517303050551 #
straight-curve $-1 0 28.471110342271885 7.9083424753935914 -1 0 0 I I #
vertex $-1 $602 $797 #
point $-1 10.417611842757594 26.042817792128719 5.5117629805147619 #
coedge $-1 $617 $616 $609 $736 forward $606 $-1 #
edge $-1 $737 46.582676088134029 $740 49.845566833222563 $735 $798 forward 7 unknown #
vertex $-1 $621 $799 #
straight-curve $-1 33.526634603546228 25.034389547302609 7.9083424753935887 0 1 0 I I #
edge $-1 $740 -18.650216839409843 $618 -11.102618688862925 $617 $800 forward 7 unknown #
vertex $-1 $739 $801 #
straight-curve $-1 33.526634603546228 -12.489694867042523 44.200842426035592 0 -0.71933979245794832 0.69465837861970381 I I #
point $-1 33.526634603546228 25.092288141856308 7.9083424753935887 #
point $-1 25.97903645299931 28.471110342271885 4.6454517303050551 #
straight-curve $-1 0 28.471110342271885 7.9083424753935914 -1 0 0 I I #
vertex $-1 $624 $802 #
point $-1 30.252835528272769 26.042817792128719 5.5117629805147619 #
coedge $-1 $629 $643 $632 $750 reversed $449 $-1 #
vertex $-1 $750 $803 #
straight-curve $-1 -45.028229621265297 -28.471110342271885 0 0 0 -1 I I #
edge $-1 $748 -28.471110342271885 $645 28.471110342271885 $747 $804 forward 7 unknown #
straight-curve $-1 0 -28.471110342271885 -7.9083424753935914 -1 0 0 I I #
straight-curve $-1 -45.028229621265297 0 7.9083424753935914 0 -1 0 I I #
point $-1 -45.028229621265297 28.471110342271885 7.9083424753935914 #
point $-1 -45.028229621265297 -28.471110342271885 7.9083424753935914 #
straight-curve $-1 -45.028229621265297 28.471110342271885 0 0 0 -1 I I #
point $-1 -45.028229621265297 28.471110342271885 -7.9083424753935914 #
coedge $-1 $762 $648 $651 $759 reversed $469 $-1 #
straight-curve $-1 -54.233847260872551 28.471110342271885 -4.2136215897810274 0 0 -1 I I #
edge $-1 $764 -28.471110342271885 $652 28.471110342271885 $757 $805 forward 7 unknown #
point $-1 -54.233847260872551 28.471110342271885 -5.7136215897810274 #
point $-1 -54.233847260872551 28.471110342271885 -2.7136215897810274 #
coedge $-1 $661 $757 $658 $763 reversed $469 $-1 #
edge $-1 $663 -1.5 $764 1.5 $762 $806 forward 7 unknown #
vertex $-1 $759 $807 #
straight-curve $-1 -49.631038441068924 -28.471110342271885 -5.7136215897810274 -1 0 0 I I #
straight-curve $-1 -54.233847260872551 0 -2.7136215897810274 0 -1 0 I I #
point $-1 -54.233847260872551 -28.471110342271885 -2.7136215897810274 #
vertex $-1 $669 $808 #
straight-curve $-1 54.233847260872551 0 -5.7136215897810274 0 -1 0 I I #
edge $-1 $672 -1.5 $768 1.5 $670 $809 forward 7 unknown #
point $-1 54.233847260872551 -28.471110342271885 -2.7136215897810274 #
point $-1 54.233847260872551 28.471110342271885 -2.7136215897810274 #
straight-curve $-1 54.233847260872551 -28.471110342271885 -4.2136215897810274 0 0 -1 I I #
point $-1 54.233847260872551 -28.471110342271885 -5.7136215897810274 #
straight-curve $-1 49.631038441068924 28.471110342271885 -5.7136215897810274 1 0 0 I I #
straight-curve $-1 -35.822611981658042 -28.471110342271885 36.375517920872667 0 0 -1 I I #
point $-1 -35.822611981658042 -28.471110342271885 7.9083424753935914 #
straight-curve $-1 -13.657077006337765 -28.471110342271885 2.7640228081900213 1 0 0 I I #
point $-1 -35.822611981658042 -28.471110342271885 2.7640228081900204 #
point $-1 -32.419228794065035 -22.457505310986534 1.8324680002540101 #
point $-1 -27.31415401267553 -22.457505310986534 1.8324680002540101 #
point $-1 -22.209079231286022 -22.457505310986534 1.8324680002540101 #
straight-curve $-1 -25.97903645299931 28.471110342271885 54.491018563527618 0 0 -1 I I #
point $-1 -25.97903645299931 28.471110342271885 7.9083424753935914 #
straight-curve $-1 -14.876417764136384 28.471110342271885 4.6454517303050586 -1 0 0 I I #
point $-1 -25.97903645299931 28.471110342271885 4.6454517303050551 #
point $-1 -29.752835528272765 25.695488602818866 5.1520930842857879 #
straight-curve $-1 -6.1438127674841301 28.471110342271885 54.491018563527618 0 0 -1 I I #
point $-1 -6.1438127674841301 28.471110342271885 7.9083424753935914 #
straight-curve $-1 -4.9588059213787936 28.471110342271885 4.6454517303050586 -1 0 0 I I #
point $-1 -6.1438127674841301 28.471110342271885 4.6454517303050551 #
point $-1 -9.9176118427575872 25.695488602818866 5.1520930842857879 #
straight-curve $-1 13.691410918031051 28.471110342271885 54.491018563527618 0 0 -1 I I #
point $-1 13.691410918031051 28.471110342271885 7.9083424753935914 #
straight-curve $-1 4.9588059213787972 28.471110342271885 4.6454517303050586 -1 0 0 I I #
point $-1 13.691410918031051 28.471110342271885 4.6454517303050551 #
point $-1 9.9176118427575943 25.695488602818866 5.1520930842857879 #
straight-curve $-1 33.526634603546228 28.471110342271885 54.491018563527618 0 0 -1 I I #
point $-1 33.526634603546228 28.471110342271885 7.9083424753935914 #
straight-curve $-1 14.876417764136384 28.471110342271885 4.6454517303050586 -1 0 0 I I #
point $-1 33.526634603546228 28.471110342271885 4.6454517303050551 #
point $-1 29.752835528272769 25.695488602818866 5.1520930842857879 #
point $-1 -45.028229621265297 -28.471110342271885 -7.9083424753935914 #
straight-curve $-1 -45.028229621265297 0 -7.9083424753935914 0 1 0 I I #
straight-curve $-1 -54.233847260872551 0 -5.7136215897810274 0 1 0 I I #
straight-curve $-1 -54.233847260872551 -28.471110342271885 -4.2136215897810274 0 0 -1 I I #
point $-1 -54.233847260872551 -28.471110342271885 -5.7136215897810274 #
point $-1 54.233847260872551 28.471110342271885 -5.7136215897810274 #
straight-curve $-1 54.233847260872551 28.471110342271885 -4.2136215897810274 0 0 -1 I I #
End-of-ACIS-data 