500 0 17 0           
7 Unknown 11 ACIS 5.0 NT 24 Thu Mar 25 22:03:06 1999 
-1 9.9999999999999995e-007 1e-010 
body $-1 $17 $-1 $18 #
body $-1 $19 $-1 $20 #
body $-1 $21 $-1 $22 #
body $-1 $23 $-1 $24 #
body $-1 $25 $-1 $26 #
body $-1 $27 $-1 $28 #
body $-1 $29 $-1 $30 #
body $-1 $31 $-1 $32 #
body $-1 $33 $-1 $34 #
body $-1 $35 $-1 $36 #
body $-1 $37 $-1 $38 #
body $-1 $39 $-1 $40 #
body $-1 $41 $-1 $42 #
body $-1 $43 $-1 $44 #
body $-1 $45 $-1 $46 #
body $-1 $47 $-1 $48 #
body $-1 $49 $-1 $50 #
lump $-1 $-1 $51 $0 #
transform $-1 1 0 0 0 1 0 0 0 1 60.328989532151247 27.926760036702273 12.242109088143184 1 rotate no_reflect no_shear #
lump $-1 $-1 $52 $1 #
transform $-1 1 0 0 0 1 0 0 0 1 60.328989532151247 27.926760036702273 12.242109088143184 1 rotate no_reflect no_shear #
lump $-1 $-1 $53 $2 #
transform $-1 1 0 0 0 1 0 0 0 1 60.328989532151247 27.926760036702273 12.242109088143184 1 rotate no_reflect no_shear #
lump $-1 $-1 $54 $3 #
transform $-1 1 0 0 0 1 0 0 0 1 60.328989532151247 27.926760036702273 12.242109088143184 1 rotate no_reflect no_shear #
lump $-1 $-1 $55 $4 #
transform $-1 1 0 0 0 1 0 0 0 1 60.328989532151247 27.926760036702273 12.242109088143184 1 rotate no_reflect no_shear #
lump $-1 $-1 $56 $5 #
transform $-1 1 0 0 0 1 0 0 0 1 60.328989532151247 27.926760036702273 12.242109088143184 1 rotate no_reflect no_shear #
lump $-1 $-1 $57 $6 #
transform $-1 1 0 0 0 1 0 0 0 1 60.328989532151247 27.926760036702273 12.242109088143184 1 rotate no_reflect no_shear #
lump $-1 $-1 $58 $7 #
transform $-1 1 0 0 0 1 0 0 0 1 60.328989532151247 27.926760036702273 12.242109088143184 1 rotate no_reflect no_shear #
lump $-1 $-1 $59 $8 #
transform $-1 1 0 0 0 1 0 0 0 1 60.328989532151247 27.926760036702273 12.242109088143184 1 rotate no_reflect no_shear #
lump $-1 $-1 $60 $9 #
transform $-1 1 0 0 0 1 0 0 0 1 60.328989532151247 27.926760036702273 12.242109088143184 1 rotate no_reflect no_shear #
lump $-1 $-1 $61 $10 #
transform $-1 1 0 0 0 1 0 0 0 1 60.328989532151247 27.926760036702273 12.242109088143184 1 rotate no_reflect no_shear #
lump $-1 $-1 $62 $11 #
transform $-1 1 0 0 0 1 0 0 0 1 60.328989532151247 27.926760036702273 12.242109088143184 1 rotate no_reflect no_shear #
lump $-1 $-1 $63 $12 #
transform $-1 1 0 0 0 1 0 0 0 1 60.328989532151247 27.926760036702273 12.242109088143184 1 rotate no_reflect no_shear #
lump $-1 $-1 $64 $13 #
transform $-1 1 0 0 0 1 0 0 0 1 60.328989532151247 27.926760036702273 12.242109088143184 1 rotate no_reflect no_shear #
lump $-1 $-1 $65 $14 #
transform $-1 1 0 0 0 1 0 0 0 1 60.328989532151247 27.926760036702273 12.242109088143184 1 rotate no_reflect no_shear #
lump $-1 $-1 $66 $15 #
transform $-1 1 0 0 0 1 0 0 0 1 60.328989532151247 27.926760036702273 12.242109088143184 1 rotate no_reflect no_shear #
lump $-1 $-1 $67 $16 #
transform $-1 1 0 0 0 1 0 0 0 1 60.328989532151247 27.926760036702273 12.242109088143184 1 rotate no_reflect no_shear #
shell $-1 $-1 $-1 $68 $-1 $17 #
shell $-1 $-1 $-1 $69 $-1 $19 #
shell $-1 $-1 $-1 $70 $-1 $21 #
shell $-1 $-1 $-1 $71 $-1 $23 #
shell $-1 $-1 $-1 $72 $-1 $25 #
shell $-1 $-1 $-1 $73 $-1 $27 #
shell $-1 $-1 $-1 $74 $-1 $29 #
shell $-1 $-1 $-1 $75 $-1 $31 #
shell $-1 $-1 $-1 $76 $-1 $33 #
shell $-1 $-1 $-1 $77 $-1 $35 #
shell $-1 $-1 $-1 $78 $-1 $37 #
shell $-1 $-1 $-1 $79 $-1 $39 #
shell $-1 $-1 $-1 $80 $-1 $41 #
shell $-1 $-1 $-1 $81 $-1 $43 #
shell $-1 $-1 $-1 $82 $-1 $45 #
shell $-1 $-1 $-1 $83 $-1 $47 #
shell $-1 $-1 $-1 $84 $-1 $49 #
face $-1 $85 $86 $51 $-1 $87 forward single #
face $-1 $88 $89 $52 $-1 $90 reversed single #
face $-1 $91 $92 $53 $-1 $93 reversed single #
face $-1 $94 $95 $54 $-1 $96 forward single #
face $-1 $97 $98 $55 $-1 $99 forward single #
face $-1 $100 $101 $56 $-1 $102 reversed single #
face $-1 $103 $104 $57 $-1 $105 forward single #
face $-1 $106 $107 $58 $-1 $108 forward single #
face $-1 $109 $110 $59 $-1 $111 reversed single #
face $-1 $112 $113 $60 $-1 $114 forward single #
face $-1 $115 $116 $61 $-1 $117 forward single #
face $-1 $118 $119 $62 $-1 $120 reversed single #
face $-1 $121 $122 $63 $-1 $123 forward single #
face $-1 $124 $125 $64 $-1 $126 forward single #
face $-1 $127 $128 $65 $-1 $129 reversed single #
face $-1 $130 $131 $66 $-1 $132 forward single #
face $-1 $133 $134 $67 $-1 $135 forward single #
face $-1 $136 $137 $51 $-1 $138 reversed single #
loop $-1 $-1 $139 $68 #
plane-surface $-1 0 0 12.242109088143184 0 0 1 1 0 0 forward_v I I I I #
face $-1 $140 $141 $52 $-1 $142 reversed single #
loop $-1 $-1 $143 $69 #
plane-surface $-1 -52.378037260501792 -9.4936190787570602 0 0 1 0 0 0 1 forward_v I I I I #
face $-1 $144 $145 $53 $-1 $146 reversed single #
loop $-1 $-1 $147 $70 #
plane-surface $-1 36.96627809145977 78.07841205369256 128.97069155096096 1 0 0 0 -0.73135370988377701 -0.68199835119979291 forward_v I I I I #
face $-1 $148 $149 $54 $-1 $150 forward single #
loop $-1 $151 $152 $71 #
cone-surface $-1 43.641338503085898 23.910911484979213 8.0793763618643748 0 -0.73135370988377701 -0.68199835119979291 1 0 0 1 I I 0 1 1 forward I I I I #
face $-1 $153 $154 $55 $-1 $155 forward single #
loop $-1 $156 $157 $72 #
cone-surface $-1 53.653929120525099 23.910911484979213 8.0793763618643748 0 -0.73135370988377701 -0.68199835119979291 1 0 0 1 I I 0 1 1 forward I I I I #
face $-1 $158 $159 $56 $-1 $160 reversed single #
loop $-1 $-1 $161 $73 #
plane-surface $-1 -23.303901102222362 -90.070214123173329 104.74465707971562 -1 0 0 0 -0.51503808176128008 0.85716729658548041 forward_v I I I I #
face $-1 $162 $163 $57 $-1 $164 forward single #
loop $-1 $165 $166 $74 #
cone-surface $-1 -35.076394136985776 -18.350675068657242 5.969428264564633 0 0.51503808176128008 -0.85716729658548041 1.5 0 0 1 I I 0 1 1.5 forward I I I I #
face $-1 $167 $168 $58 $-1 $169 forward single #
loop $-1 $170 $171 $75 #
cone-surface $-1 -28.012898316127732 -18.350675068657242 5.969428264564633 0 0.51503808176128008 -0.85716729658548041 1.5 0 0 1 I I 0 1 1.5 forward I I I I #
face $-1 $172 $173 $59 $-1 $174 reversed single #
loop $-1 $-1 $175 $76 #
plane-surface $-1 3.0264978965817733 -90.070214123173329 104.74465707971562 -1 0 0 0 -0.51503808176128008 0.85716729658548041 forward_v I I I I #
face $-1 $176 $177 $60 $-1 $178 forward single #
loop $-1 $179 $180 $77 #
cone-surface $-1 -8.7459951381816339 -18.350675068657242 5.969428264564633 0 0.51503808176128008 -0.85716729658548041 1.5 0 0 1 I I 0 1 1.5 forward I I I I #
face $-1 $181 $182 $61 $-1 $183 forward single #
loop $-1 $184 $185 $78 #
cone-surface $-1 -1.6824993173235967 -18.350675068657242 5.969428264564633 0 0.51503808176128008 -0.85716729658548041 1.5 0 0 1 I I 0 1 1.5 forward I I I I #
face $-1 $186 $187 $62 $-1 $188 reversed single #
loop $-1 $-1 $189 $79 #
plane-surface $-1 29.356896895385916 -90.070214123173329 104.74465707971562 -1 0 0 0 -0.51503808176128008 0.85716729658548041 forward_v I I I I #
face $-1 $190 $191 $63 $-1 $192 forward single #
loop $-1 $193 $194 $80 #
cone-surface $-1 17.584403860622508 -18.350675068657242 5.969428264564633 0 0.51503808176128008 -0.85716729658548041 1.5 0 0 1 I I 0 1 1.5 forward I I I I #
face $-1 $195 $196 $64 $-1 $197 forward single #
loop $-1 $198 $199 $81 #
cone-surface $-1 24.647899681480546 -18.350675068657242 5.969428264564633 0 0.51503808176128008 -0.85716729658548041 1.5 0 0 1 I I 0 1 1.5 forward I I I I #
face $-1 $200 $201 $65 $-1 $202 reversed single #
loop $-1 $-1 $203 $82 #
plane-surface $-1 55.687295894190058 -90.070214123173329 104.74465707971562 -1 0 0 0 -0.51503808176128008 0.85716729658548041 forward_v I I I I #
face $-1 $204 $205 $66 $-1 $206 forward single #
loop $-1 $207 $208 $83 #
cone-surface $-1 43.914802859426651 -18.350675068657242 5.969428264564633 0 0.51503808176128008 -0.85716729658548041 1.5 0 0 1 I I 0 1 1.5 forward I I I I #
face $-1 $209 $210 $67 $-1 $211 forward single #
loop $-1 $212 $213 $84 #
cone-surface $-1 50.978298680284688 -18.350675068657242 5.969428264564633 0 0.51503808176128008 -0.85716729658548041 1.5 0 0 1 I I 0 1 1.5 forward I I I I #
face $-1 $214 $215 $51 $-1 $216 reversed single #
loop $-1 $-1 $217 $85 #
plane-surface $-1 0 0 -12.242109088143184 0 0 1 1 0 0 forward_v I I I I #
coedge $-1 $218 $219 $220 $221 forward $86 $-1 #
face $-1 $222 $223 $52 $-1 $224 reversed single #
loop $-1 $-1 $225 $88 #
plane-surface $-1 -52.378037260501792 -3.4425418604159042 0 0 -1 0 0 0 -1 forward_v I I I I #
coedge $-1 $226 $227 $228 $229 reversed $89 $-1 #
face $-1 $230 $231 $53 $-1 $232 forward single #
loop $-1 $-1 $233 $91 #
plane-surface $-1 48.647633811805512 -10.165248562064164 46.682148770007544 0 0.73135370988377701 0.68199835119979291 1 0 0 forward_v I I I I #
coedge $-1 $234 $235 $236 $237 reversed $92 $-1 #
face $-1 $-1 $238 $54 $-1 $239 forward single #
loop $-1 $240 $241 $94 #
cone-surface $-1 43.641338503085898 22.517462482575755 6.7799641769297061 0 -0.73135370988377701 -0.68199835119979291 0.5 0 0 1 I I -0.70710678118654746 0.70710678118654746 0.5 forward I I I I #
loop $-1 $-1 $242 $71 #
coedge $-1 $152 $152 $243 $244 reversed $95 $-1 #
face $-1 $-1 $245 $55 $-1 $246 forward single #
loop $-1 $247 $248 $97 #
cone-surface $-1 53.653929120525099 22.517462482575755 6.7799641769297061 0 -0.73135370988377701 -0.68199835119979291 0.5 0 0 1 I I -0.70710678118654746 0.70710678118654746 0.5 forward I I I I #
loop $-1 $-1 $249 $72 #
coedge $-1 $157 $157 $250 $251 reversed $98 $-1 #
face $-1 $252 $253 $56 $-1 $254 reversed single #
loop $-1 $-1 $255 $100 #
plane-surface $-1 -31.54464622655675 -27.926760036702284 1.3205833536999592 0 -0.51503808176128008 0.85716729658548041 1 0 0 forward_v I I I I #
coedge $-1 $256 $257 $258 $259 reversed $101 $-1 #
face $-1 $-1 $260 $57 $-1 $261 forward single #
loop $-1 $262 $263 $103 #
cone-surface $-1 -35.076394136985776 -17.476546972647562 4.5146348357685859 0 0.51503808176128008 -0.85716729658548041 0.75 0 0 1 I I -0.70710678118654713 0.70710678118654802 0.75 forward I I I I #
loop $-1 $-1 $264 $74 #
coedge $-1 $166 $166 $265 $266 reversed $104 $-1 #
face $-1 $-1 $267 $58 $-1 $268 forward single #
loop $-1 $269 $270 $106 #
cone-surface $-1 -28.012898316127732 -17.476546972647562 4.5146348357685859 0 0.51503808176128008 -0.85716729658548041 0.75 0 0 1 I I -0.70710678118654713 0.70710678118654802 0.75 forward I I I I #
loop $-1 $-1 $271 $75 #
coedge $-1 $171 $171 $272 $273 reversed $107 $-1 #
face $-1 $274 $275 $59 $-1 $276 reversed single #
loop $-1 $-1 $277 $109 #
plane-surface $-1 -5.2142472277526153 -27.926760036702284 1.3205833536999592 0 -0.51503808176128008 0.85716729658548041 1 0 0 forward_v I I I I #
coedge $-1 $278 $279 $280 $281 reversed $110 $-1 #
face $-1 $-1 $282 $60 $-1 $283 forward single #
loop $-1 $284 $285 $112 #
cone-surface $-1 -8.7459951381816339 -17.476546972647562 4.5146348357685859 0 0.51503808176128008 -0.85716729658548041 0.75 0 0 1 I I -0.70710678118654713 0.70710678118654802 0.75 forward I I I I #
loop $-1 $-1 $286 $77 #
coedge $-1 $180 $180 $287 $288 reversed $113 $-1 #
face $-1 $-1 $289 $61 $-1 $290 forward single #
loop $-1 $291 $292 $115 #
cone-surface $-1 -1.6824993173235967 -17.476546972647562 4.5146348357685859 0 0.51503808176128008 -0.85716729658548041 0.75 0 0 1 I I -0.70710678118654713 0.70710678118654802 0.75 forward I I I I #
loop $-1 $-1 $293 $78 #
coedge $-1 $185 $185 $294 $295 reversed $116 $-1 #
face $-1 $296 $297 $62 $-1 $298 reversed single #
loop $-1 $-1 $299 $118 #
plane-surface $-1 21.116151771051527 -27.926760036702284 1.3205833536999592 0 -0.51503808176128008 0.85716729658548041 1 0 0 forward_v I I I I #
coedge $-1 $300 $301 $302 $303 reversed $119 $-1 #
face $-1 $-1 $304 $63 $-1 $305 forward single #
loop $-1 $306 $307 $121 #
cone-surface $-1 17.584403860622508 -17.476546972647562 4.5146348357685859 0 0.51503808176128008 -0.85716729658548041 0.75 0 0 1 I I -0.70710678118654713 0.70710678118654802 0.75 forward I I I I #
loop $-1 $-1 $308 $80 #
coedge $-1 $194 $194 $309 $310 reversed $122 $-1 #
face $-1 $-1 $311 $64 $-1 $312 forward single #
loop $-1 $313 $314 $124 #
cone-surface $-1 24.647899681480546 -17.476546972647562 4.5146348357685859 0 0.51503808176128008 -0.85716729658548041 0.75 0 0 1 I I -0.70710678118654713 0.70710678118654802 0.75 forward I I I I #
loop $-1 $-1 $315 $81 #
coedge $-1 $199 $199 $316 $317 reversed $125 $-1 #
face $-1 $318 $319 $65 $-1 $320 reversed single #
loop $-1 $-1 $321 $127 #
plane-surface $-1 47.446550769855669 -27.926760036702284 1.3205833536999592 0 -0.51503808176128008 0.85716729658548041 1 0 0 forward_v I I I I #
coedge $-1 $322 $323 $324 $325 reversed $128 $-1 #
face $-1 $-1 $326 $66 $-1 $327 forward single #
loop $-1 $328 $329 $130 #
cone-surface $-1 43.914802859426651 -17.476546972647562 4.5146348357685859 0 0.51503808176128008 -0.85716729658548041 0.75 0 0 1 I I -0.70710678118654713 0.70710678118654802 0.75 forward I I I I #
loop $-1 $-1 $330 $83 #
coedge $-1 $208 $208 $331 $332 reversed $131 $-1 #
face $-1 $-1 $333 $67 $-1 $334 forward single #
loop $-1 $335 $336 $133 #
cone-surface $-1 50.978298680284688 -17.476546972647562 4.5146348357685859 0 0.51503808176128008 -0.85716729658548041 0.75 0 0 1 I I -0.70710678118654713 0.70710678118654802 0.75 forward I I I I #
loop $-1 $-1 $337 $84 #
coedge $-1 $213 $213 $338 $339 reversed $134 $-1 #
face $-1 $340 $341 $51 $-1 $342 reversed single #
loop $-1 $-1 $343 $136 #
plane-surface $-1 0 -27.926760036702273 0 0 1 0 0 0 1 forward_v I I I I #
coedge $-1 $344 $345 $346 $347 forward $137 $-1 #
coedge $-1 $348 $139 $349 $350 forward $86 $-1 #
coedge $-1 $139 $348 $351 $352 forward $86 $-1 #
coedge $-1 $353 $354 $139 $221 reversed $355 $-1 #
edge $-1 $356 -27.926760036702273 $357 27.926760036702273 $220 $358 forward 7 unknown #
face $-1 $359 $360 $52 $-1 $361 reversed single #
loop $-1 $-1 $362 $140 #
plane-surface $-1 -44.427084988852336 -6.4680804695864822 0 -1 0 0 0 0 1 forward_v I I I I #
coedge $-1 $363 $364 $365 $366 forward $141 $-1 #
coedge $-1 $367 $143 $368 $369 reversed $89 $-1 #
coedge $-1 $143 $367 $370 $371 reversed $89 $-1 #
coedge $-1 $372 $373 $143 $229 forward $374 $-1 #
edge $-1 $375 -12.242109088143184 $376 12.242109088143184 $228 $377 forward 7 unknown #
face $-1 $378 $379 $53 $-1 $380 reversed single #
loop $-1 $-1 $236 $144 #
plane-surface $-1 0 0 12.242109088143184 0 0 1 1 0 0 forward_v I I I I #
coedge $-1 $381 $382 $383 $384 reversed $145 $-1 #
coedge $-1 $235 $147 $385 $386 reversed $92 $-1 #
coedge $-1 $147 $234 $381 $387 reversed $92 $-1 #
coedge $-1 $383 $388 $147 $237 forward $231 $-1 #
edge $-1 $389 11.112445990144007 $390 17.088598798666979 $236 $391 forward 7 unknown #
loop $-1 $-1 $243 $148 #
plane-surface $-1 48.647633811805512 -10.165248562064164 46.682148770007544 0 0.73135370988377701 0.68199835119979291 1 0 0 forward_v I I I I #
loop $-1 $-1 $392 $94 #
coedge $-1 $241 $241 $242 $393 reversed $149 $-1 #
coedge $-1 $242 $242 $241 $393 forward $151 $-1 #
coedge $-1 $243 $243 $152 $244 forward $238 $-1 #
edge $-1 $394 1.4744906224914889e-015 $394 6.2831853071796022 $243 $395 forward 7 unknown #
loop $-1 $-1 $250 $153 #
plane-surface $-1 48.647633811805512 -10.165248562064164 46.682148770007544 0 0.73135370988377701 0.68199835119979291 1 0 0 forward_v I I I I #
loop $-1 $-1 $396 $97 #
coedge $-1 $248 $248 $249 $397 reversed $154 $-1 #
coedge $-1 $249 $249 $248 $397 forward $156 $-1 #
coedge $-1 $250 $250 $157 $251 forward $245 $-1 #
edge $-1 $398 1.4744906224914889e-015 $398 6.2831853071796022 $250 $399 forward 7 unknown #
face $-1 $400 $401 $56 $-1 $402 reversed single #
loop $-1 $-1 $403 $158 #
plane-surface $-1 -39.785391350891139 -90.070214123173329 104.74465707971562 1 0 0 0 0.51503808176128008 -0.85716729658548041 forward_v I I I I #
coedge $-1 $404 $405 $406 $407 reversed $159 $-1 #
coedge $-1 $257 $161 $408 $409 reversed $101 $-1 #
coedge $-1 $161 $256 $404 $410 reversed $101 $-1 #
coedge $-1 $406 $411 $161 $259 forward $412 $-1 #
edge $-1 $413 17.108347024884392 $414 35.284817891596987 $258 $415 forward 7 unknown #
loop $-1 $-1 $265 $162 #
plane-surface $-1 -31.54464622655675 -27.926760036702284 1.3205833536999592 0 -0.51503808176128008 0.85716729658548041 1 0 0 forward_v I I I I #
loop $-1 $-1 $416 $103 #
coedge $-1 $263 $263 $264 $417 reversed $163 $-1 #
coedge $-1 $264 $264 $263 $417 forward $165 $-1 #
coedge $-1 $265 $265 $166 $266 forward $260 $-1 #
edge $-1 $418 4.0079429644663499e-016 $418 6.2831853071796004 $265 $419 forward 7 unknown #
loop $-1 $-1 $272 $167 #
plane-surface $-1 -31.54464622655675 -27.926760036702284 1.3205833536999592 0 -0.51503808176128008 0.85716729658548041 1 0 0 forward_v I I I I #
loop $-1 $-1 $420 $106 #
coedge $-1 $270 $270 $271 $421 reversed $168 $-1 #
coedge $-1 $271 $271 $270 $421 forward $170 $-1 #
coedge $-1 $272 $272 $171 $273 forward $267 $-1 #
edge $-1 $422 4.0079429644663499e-016 $422 6.2831853071796004 $272 $423 forward 7 unknown #
face $-1 $424 $425 $59 $-1 $426 reversed single #
loop $-1 $-1 $427 $172 #
plane-surface $-1 -13.454992352087004 -90.070214123173329 104.74465707971562 1 0 0 0 0.51503808176128008 -0.85716729658548041 forward_v I I I I #
coedge $-1 $428 $429 $430 $431 reversed $173 $-1 #
coedge $-1 $279 $175 $432 $433 reversed $110 $-1 #
coedge $-1 $175 $278 $428 $434 reversed $110 $-1 #
coedge $-1 $430 $435 $175 $281 forward $436 $-1 #
edge $-1 $437 17.108347024884392 $438 35.284817891596987 $280 $439 forward 7 unknown #
loop $-1 $-1 $287 $176 #
plane-surface $-1 -5.2142472277526153 -27.926760036702284 1.3205833536999592 0 -0.51503808176128008 0.85716729658548041 1 0 0 forward_v I I I I #
loop $-1 $-1 $440 $112 #
coedge $-1 $285 $285 $286 $441 reversed $177 $-1 #
coedge $-1 $286 $286 $285 $441 forward $179 $-1 #
coedge $-1 $287 $287 $180 $288 forward $282 $-1 #
edge $-1 $442 4.0079429644663499e-016 $442 6.2831853071796004 $287 $443 forward 7 unknown #
loop $-1 $-1 $294 $181 #
plane-surface $-1 -5.2142472277526153 -27.926760036702284 1.3205833536999592 0 -0.51503808176128008 0.85716729658548041 1 0 0 forward_v I I I I #
loop $-1 $-1 $444 $115 #
coedge $-1 $292 $292 $293 $445 reversed $182 $-1 #
coedge $-1 $293 $293 $292 $445 forward $184 $-1 #
coedge $-1 $294 $294 $185 $295 forward $289 $-1 #
edge $-1 $446 4.0079429644663499e-016 $446 6.2831853071796004 $294 $447 forward 7 unknown #
face $-1 $448 $449 $62 $-1 $450 reversed single #
loop $-1 $-1 $451 $186 #
plane-surface $-1 12.875406646717138 -90.070214123173329 104.74465707971562 1 0 0 0 0.51503808176128008 -0.85716729658548041 forward_v I I I I #
coedge $-1 $452 $453 $454 $455 reversed $187 $-1 #
coedge $-1 $301 $189 $456 $457 reversed $119 $-1 #
coedge $-1 $189 $300 $452 $458 reversed $119 $-1 #
coedge $-1 $454 $459 $189 $303 forward $460 $-1 #
edge $-1 $461 17.108347024884392 $462 35.284817891596987 $302 $463 forward 7 unknown #
loop $-1 $-1 $309 $190 #
plane-surface $-1 21.116151771051527 -27.926760036702284 1.3205833536999592 0 -0.51503808176128008 0.85716729658548041 1 0 0 forward_v I I I I #
loop $-1 $-1 $464 $121 #
coedge $-1 $307 $307 $308 $465 reversed $191 $-1 #
coedge $-1 $308 $308 $307 $465 forward $193 $-1 #
coedge $-1 $309 $309 $194 $310 forward $304 $-1 #
edge $-1 $466 4.0079429644663499e-016 $466 6.2831853071796004 $309 $467 forward 7 unknown #
loop $-1 $-1 $316 $195 #
plane-surface $-1 21.116151771051527 -27.926760036702284 1.3205833536999592 0 -0.51503808176128008 0.85716729658548041 1 0 0 forward_v I I I I #
loop $-1 $-1 $468 $124 #
coedge $-1 $314 $314 $315 $469 reversed $196 $-1 #
coedge $-1 $315 $315 $314 $469 forward $198 $-1 #
coedge $-1 $316 $316 $199 $317 forward $311 $-1 #
edge $-1 $470 4.0079429644663499e-016 $470 6.2831853071796004 $316 $471 forward 7 unknown #
face $-1 $472 $473 $65 $-1 $474 reversed single #
loop $-1 $-1 $475 $200 #
plane-surface $-1 39.205805645521281 -90.070214123173329 104.74465707971562 1 0 0 0 0.51503808176128008 -0.85716729658548041 forward_v I I I I #
coedge $-1 $476 $477 $478 $479 reversed $201 $-1 #
coedge $-1 $323 $203 $480 $481 reversed $128 $-1 #
coedge $-1 $203 $322 $476 $482 reversed $128 $-1 #
coedge $-1 $478 $483 $203 $325 forward $484 $-1 #
edge $-1 $485 17.108347024884392 $486 35.284817891596987 $324 $487 forward 7 unknown #
loop $-1 $-1 $331 $204 #
plane-surface $-1 47.446550769855669 -27.926760036702284 1.3205833536999592 0 -0.51503808176128008 0.85716729658548041 1 0 0 forward_v I I I I #
loop $-1 $-1 $488 $130 #
coedge $-1 $329 $329 $330 $489 reversed $205 $-1 #
coedge $-1 $330 $330 $329 $489 forward $207 $-1 #
coedge $-1 $331 $331 $208 $332 forward $326 $-1 #
edge $-1 $490 4.0079429644663499e-016 $490 6.2831853071796004 $331 $491 forward 7 unknown #
loop $-1 $-1 $338 $209 #
plane-surface $-1 47.446550769855669 -27.926760036702284 1.3205833536999592 0 -0.51503808176128008 0.85716729658548041 1 0 0 forward_v I I I I #
loop $-1 $-1 $492 $133 #
coedge $-1 $336 $336 $337 $493 reversed $210 $-1 #
coedge $-1 $337 $337 $336 $493 forward $212 $-1 #
coedge $-1 $338 $338 $213 $339 forward $333 $-1 #
edge $-1 $494 4.0079429644663499e-016 $494 6.2831853071796004 $338 $495 forward 7 unknown #
face $-1 $496 $497 $51 $-1 $498 reversed single #
loop $-1 $-1 $499 $214 #
plane-surface $-1 -60.328989532151247 0 0 1 0 0 0 0 -1 forward_v I I I I #
coedge $-1 $500 $351 $501 $502 forward $215 $-1 #
coedge $-1 $503 $217 $500 $504 forward $137 $-1 #
coedge $-1 $217 $503 $505 $506 forward $137 $-1 #
coedge $-1 $354 $353 $217 $347 reversed $355 $-1 #
edge $-1 $507 -27.926760036702273 $508 27.926760036702273 $346 $509 forward 7 unknown #
coedge $-1 $219 $218 $510 $511 forward $86 $-1 #
coedge $-1 $512 $513 $218 $350 reversed $497 $-1 #
edge $-1 $357 -60.328989532151247 $514 60.328989532151247 $349 $515 forward 7 unknown #
coedge $-1 $343 $516 $219 $352 reversed $215 $-1 #
edge $-1 $517 -60.328989532151247 $356 60.328989532151247 $351 $518 forward 7 unknown #
coedge $-1 $346 $220 $516 $519 forward $355 $-1 #
coedge $-1 $220 $346 $512 $520 reversed $355 $-1 #
loop $-1 $-1 $353 $496 #
vertex $-1 $221 $521 #
vertex $-1 $221 $522 #
straight-curve $-1 60.328989532151247 0 12.242109088143184 0 1 0 I I #
face $-1 $523 $524 $52 $-1 $525 forward single #
loop $-1 $-1 $526 $222 #
plane-surface $-1 0 0 -12.242109088143184 0 0 1 1 0 0 forward_v I I I I #
coedge $-1 $527 $528 $367 $529 forward $223 $-1 #
coedge $-1 $530 $225 $526 $531 reversed $141 $-1 #
coedge $-1 $225 $530 $532 $533 reversed $141 $-1 #
coedge $-1 $528 $527 $225 $366 reversed $223 $-1 #
edge $-1 $534 -12.242109088143184 $535 12.242109088143184 $365 $536 forward 7 unknown #
coedge $-1 $227 $226 $362 $529 reversed $89 $-1 #
coedge $-1 $537 $538 $226 $369 forward $360 $-1 #
edge $-1 $539 18.23806635860144 $375 34.139970901900355 $368 $540 forward 7 unknown #
coedge $-1 $541 $542 $227 $371 forward $524 $-1 #
edge $-1 $376 -34.139970901900355 $543 -18.23806635860144 $370 $544 forward 7 unknown #
coedge $-1 $545 $228 $542 $546 reversed $374 $-1 #
coedge $-1 $228 $545 $537 $547 reversed $374 $-1 #
loop $-1 $-1 $545 $523 #
vertex $-1 $547 $548 #
vertex $-1 $229 $549 #
straight-curve $-1 -60.328989532151247 -9.4936190787570602 0 0 0 1 I I #
face $-1 $-1 $550 $53 $-1 $551 reversed single #
loop $-1 $-1 $552 $230 #
plane-surface $-1 60.328989532151247 0 0 -1 0 0 0 0 1 forward_v I I I I #
coedge $-1 $553 $233 $235 $387 forward $145 $-1 #
coedge $-1 $233 $553 $552 $554 reversed $145 $-1 #
coedge $-1 $555 $236 $233 $384 forward $231 $-1 #
edge $-1 $390 12.642461185557014 $556 36.005172626248495 $383 $557 forward 7 unknown #
coedge $-1 $558 $559 $234 $386 forward $550 $-1 #
edge $-1 $560 -58.651876121225371 $389 -52.243236687337301 $385 $561 forward 7 unknown #
edge $-1 $390 47.090811486192365 $560 55.853520073404553 $235 $562 forward 7 unknown #
coedge $-1 $236 $555 $558 $563 forward $231 $-1 #
vertex $-1 $386 $564 #
vertex $-1 $237 $565 #
straight-curve $-1 36.96627809145977 39.03920602684628 12.242109088143181 0 -1 0 I I #
coedge $-1 $392 $392 $-1 $566 reversed $240 $-1 #
edge $-1 $567 0 $567 6.2831853071796004 $241 $568 forward 7 unknown #
vertex $-1 $244 $569 #
ellipse-curve $-1 43.641338503085898 24.938683632440785 9.0377893711991515 0 0.73135370988377701 0.68199835119979291 1 0 0 1 I I #
coedge $-1 $396 $396 $-1 $570 reversed $247 $-1 #
edge $-1 $571 0 $571 6.2831853071796004 $248 $572 forward 7 unknown #
vertex $-1 $251 $573 #
ellipse-curve $-1 53.653929120525099 24.938683632440785 9.0377893711991515 0 0.73135370988377701 0.68199835119979291 1 0 0 1 I I #
face $-1 $-1 $412 $56 $-1 $574 forward single #
loop $-1 $-1 $575 $252 #
plane-surface $-1 0 -27.926760036702273 0 0 1 0 0 0 1 forward_v I I I I #
coedge $-1 $576 $577 $578 $579 reversed $253 $-1 #
coedge $-1 $580 $255 $257 $410 forward $159 $-1 #
coedge $-1 $255 $580 $576 $581 forward $159 $-1 #
coedge $-1 $578 $258 $255 $407 forward $412 $-1 #
edge $-1 $414 7.5315779889439867 $582 24.013068237612764 $406 $583 forward 7 unknown #
coedge $-1 $584 $585 $256 $409 forward $401 $-1 #
edge $-1 $586 -51.051745186157845 $413 -40.130219451714623 $408 $587 forward 7 unknown #
edge $-1 $414 -21.20527805845888 $586 -1.24522913329939e-014 $257 $588 forward 7 unknown #
coedge $-1 $258 $578 $584 $589 forward $412 $-1 #
loop $-1 $-1 $578 $400 #
vertex $-1 $409 $590 #
vertex $-1 $259 $591 #
straight-curve $-1 -23.303901102222362 -45.035107061586665 12.242109088143181 0 1 0 I I #
coedge $-1 $416 $416 $-1 $592 reversed $262 $-1 #
edge $-1 $593 0 $593 6.2831853071796004 $263 $594 forward 7 unknown #
vertex $-1 $266 $595 #
ellipse-curve $-1 -35.076394136985776 -18.83852460334597 6.7813462209215789 0 -0.51503808176128008 0.85716729658548041 1.5 0 0 1 I I #
coedge $-1 $420 $420 $-1 $596 reversed $269 $-1 #
edge $-1 $597 0 $597 6.2831853071796004 $270 $598 forward 7 unknown #
vertex $-1 $273 $599 #
ellipse-curve $-1 -28.012898316127732 -18.83852460334597 6.7813462209215789 0 -0.51503808176128008 0.85716729658548041 1.5 0 0 1 I I #
face $-1 $-1 $436 $59 $-1 $600 forward single #
loop $-1 $-1 $601 $274 #
plane-surface $-1 0 -27.926760036702273 0 0 1 0 0 0 1 forward_v I I I I #
coedge $-1 $602 $603 $604 $605 reversed $275 $-1 #
coedge $-1 $606 $277 $279 $434 forward $173 $-1 #
coedge $-1 $277 $606 $602 $607 forward $173 $-1 #
coedge $-1 $604 $280 $277 $431 forward $436 $-1 #
edge $-1 $438 -5.6336215104580809 $608 10.847868738210696 $430 $609 forward 7 unknown #
coedge $-1 $610 $611 $278 $433 forward $425 $-1 #
edge $-1 $612 -51.051745186157845 $437 -40.130219451714623 $432 $613 forward 7 unknown #
edge $-1 $438 -21.20527805845888 $612 -1.24522913329939e-014 $279 $614 forward 7 unknown #
coedge $-1 $280 $604 $610 $615 forward $436 $-1 #
loop $-1 $-1 $604 $424 #
vertex $-1 $433 $616 #
vertex $-1 $281 $617 #
straight-curve $-1 3.0264978965817733 -45.035107061586665 12.242109088143181 0 1 0 I I #
coedge $-1 $440 $440 $-1 $618 reversed $284 $-1 #
edge $-1 $619 0 $619 6.2831853071796004 $285 $620 forward 7 unknown #
vertex $-1 $288 $621 #
ellipse-curve $-1 -8.7459951381816339 -18.83852460334597 6.7813462209215789 0 -0.51503808176128008 0.85716729658548041 1.5 0 0 1 I I #
coedge $-1 $444 $444 $-1 $622 reversed $291 $-1 #
edge $-1 $623 0 $623 6.2831853071796004 $292 $624 forward 7 unknown #
vertex $-1 $295 $625 #
ellipse-curve $-1 -1.6824993173235967 -18.83852460334597 6.7813462209215789 0 -0.51503808176128008 0.85716729658548041 1.5 0 0 1 I I #
face $-1 $-1 $460 $62 $-1 $626 forward single #
loop $-1 $-1 $627 $296 #
plane-surface $-1 0 -27.926760036702273 0 0 1 0 0 0 1 forward_v I I I I #
coedge $-1 $628 $629 $630 $631 reversed $297 $-1 #
coedge $-1 $632 $299 $301 $458 forward $187 $-1 #
coedge $-1 $299 $632 $628 $633 forward $187 $-1 #
coedge $-1 $630 $302 $299 $455 forward $460 $-1 #
edge $-1 $462 -18.798821009860152 $634 -2.3173307611913749 $454 $635 forward 7 unknown #
coedge $-1 $636 $637 $300 $457 forward $449 $-1 #
edge $-1 $638 -51.051745186157845 $461 -40.130219451714623 $456 $639 forward 7 unknown #
edge $-1 $462 -21.20527805845888 $638 -1.24522913329939e-014 $301 $640 forward 7 unknown #
coedge $-1 $302 $630 $636 $641 forward $460 $-1 #
loop $-1 $-1 $630 $448 #
vertex $-1 $457 $642 #
vertex $-1 $303 $643 #
straight-curve $-1 29.356896895385916 -45.035107061586665 12.242109088143181 0 1 0 I I #
coedge $-1 $464 $464 $-1 $644 reversed $306 $-1 #
edge $-1 $645 0 $645 6.2831853071796004 $307 $646 forward 7 unknown #
vertex $-1 $310 $647 #
ellipse-curve $-1 17.584403860622508 -18.83852460334597 6.7813462209215789 0 -0.51503808176128008 0.85716729658548041 1.5 0 0 1 I I #
coedge $-1 $468 $468 $-1 $648 reversed $313 $-1 #
edge $-1 $649 0 $649 6.2831853071796004 $314 $650 forward 7 unknown #
vertex $-1 $317 $651 #
ellipse-curve $-1 24.647899681480546 -18.83852460334597 6.7813462209215789 0 -0.51503808176128008 0.85716729658548041 1.5 0 0 1 I I #
face $-1 $-1 $484 $65 $-1 $652 forward single #
loop $-1 $-1 $653 $318 #
plane-surface $-1 0 -27.926760036702273 0 0 1 0 0 0 1 forward_v I I I I #
coedge $-1 $654 $655 $656 $657 reversed $319 $-1 #
coedge $-1 $658 $321 $323 $482 forward $201 $-1 #
coedge $-1 $321 $658 $654 $659 forward $201 $-1 #
coedge $-1 $656 $324 $321 $479 forward $484 $-1 #
edge $-1 $486 -31.964020509262223 $660 -15.482530260593446 $478 $661 forward 7 unknown #
coedge $-1 $662 $663 $322 $481 forward $473 $-1 #
edge $-1 $664 -51.051745186157845 $485 -40.130219451714623 $480 $665 forward 7 unknown #
edge $-1 $486 -21.20527805845888 $664 -1.24522913329939e-014 $323 $666 forward 7 unknown #
coedge $-1 $324 $656 $662 $667 forward $484 $-1 #
loop $-1 $-1 $656 $472 #
vertex $-1 $481 $668 #
vertex $-1 $325 $669 #
straight-curve $-1 55.687295894190058 -45.035107061586665 12.242109088143181 0 1 0 I I #
coedge $-1 $488 $488 $-1 $670 reversed $328 $-1 #
edge $-1 $671 0 $671 6.2831853071796004 $329 $672 forward 7 unknown #
vertex $-1 $332 $673 #
ellipse-curve $-1 43.914802859426651 -18.83852460334597 6.7813462209215789 0 -0.51503808176128008 0.85716729658548041 1.5 0 0 1 I I #
coedge $-1 $492 $492 $-1 $674 reversed $335 $-1 #
edge $-1 $675 0 $675 6.2831853071796004 $336 $676 forward 7 unknown #
vertex $-1 $339 $677 #
ellipse-curve $-1 50.978298680284688 -18.83852460334597 6.7813462209215789 0 -0.51503808176128008 0.85716729658548041 1.5 0 0 1 I I #
face $-1 $-1 $355 $51 $-1 $678 reversed single #
loop $-1 $-1 $512 $340 #
plane-surface $-1 0 27.926760036702273 0 0 -1 0 0 0 -1 forward_v I I I I #
coedge $-1 $679 $510 $513 $680 forward $341 $-1 #
coedge $-1 $516 $343 $344 $504 reversed $215 $-1 #
coedge $-1 $510 $679 $343 $502 reversed $341 $-1 #
edge $-1 $517 -12.242109088143184 $681 12.242109088143184 $501 $682 forward 7 unknown #
coedge $-1 $345 $344 $679 $683 forward $137 $-1 #
edge $-1 $508 -60.328989532151247 $681 60.328989532151247 $500 $684 forward 7 unknown #
coedge $-1 $513 $512 $345 $506 reversed $497 $-1 #
edge $-1 $685 -60.328989532151247 $507 60.328989532151247 $505 $686 forward 7 unknown #
vertex $-1 $347 $687 #
vertex $-1 $519 $688 #
straight-curve $-1 60.328989532151247 0 -12.242109088143184 0 -1 0 I I #
coedge $-1 $499 $501 $348 $511 reversed $341 $-1 #
edge $-1 $514 -27.926760036702273 $517 27.926760036702273 $510 $689 forward 7 unknown #
coedge $-1 $505 $349 $354 $520 forward $497 $-1 #
coedge $-1 $349 $505 $499 $680 reversed $497 $-1 #
vertex $-1 $350 $690 #
straight-curve $-1 0 27.926760036702273 12.242109088143184 -1 0 0 I I #
coedge $-1 $351 $500 $353 $519 reversed $215 $-1 #
vertex $-1 $511 $691 #
straight-curve $-1 0 -27.926760036702273 12.242109088143184 1 0 0 I I #
edge $-1 $356 -12.242109088143184 $508 12.242109088143184 $353 $692 forward 7 unknown #
edge $-1 $357 -12.242109088143184 $507 12.242109088143184 $354 $693 forward 7 unknown #
point $-1 60.328989532151247 -27.926760036702273 12.242109088143184 #
point $-1 60.328989532151247 27.926760036702273 12.242109088143184 #
face $-1 $-1 $374 $52 $-1 $694 reversed single #
loop $-1 $-1 $532 $359 #
plane-surface $-1 0 0 12.242109088143184 0 0 1 1 0 0 forward_v I I I I #
coedge $-1 $538 $537 $363 $531 forward $360 $-1 #
coedge $-1 $365 $362 $538 $695 reversed $223 $-1 #
coedge $-1 $362 $365 $541 $696 reversed $223 $-1 #
edge $-1 $543 -12.242109088143184 $539 12.242109088143184 $362 $697 forward 7 unknown #
coedge $-1 $364 $363 $545 $698 reversed $141 $-1 #
edge $-1 $699 -34.139970901900355 $535 -18.23806635860144 $526 $700 forward 7 unknown #
coedge $-1 $542 $541 $364 $533 forward $524 $-1 #
edge $-1 $534 18.23806635860144 $701 34.139970901900355 $532 $702 forward 7 unknown #
vertex $-1 $533 $703 #
vertex $-1 $531 $704 #
straight-curve $-1 -44.427084988852336 -3.4425418604159042 0 0 0 -1 I I #
coedge $-1 $526 $368 $373 $547 forward $360 $-1 #
coedge $-1 $368 $526 $527 $695 forward $360 $-1 #
vertex $-1 $369 $705 #
straight-curve $-1 -26.189018630250896 -9.4936190787570602 -12.242109088143184 -1 0 0 I I #
coedge $-1 $532 $370 $528 $696 forward $524 $-1 #
coedge $-1 $370 $532 $372 $546 forward $524 $-1 #
vertex $-1 $371 $706 #
straight-curve $-1 -26.189018630250896 -9.4936190787570602 12.242109088143184 1 0 0 I I #
coedge $-1 $373 $372 $530 $698 forward $374 $-1 #
edge $-1 $701 3.4425418604159042 $376 9.4936190787570602 $372 $707 forward 7 unknown #
edge $-1 $375 -9.4936190787570602 $699 -3.4425418604159042 $373 $708 forward 7 unknown #
point $-1 -60.328989532151247 -9.4936190787570602 -12.242109088143184 #
point $-1 -60.328989532151247 -9.4936190787570602 12.242109088143184 #
loop $-1 $-1 $385 $378 #
plane-surface $-1 0 27.926760036702273 0 0 -1 0 0 0 -1 forward_v I I I I #
coedge $-1 $709 $710 $382 $554 forward $379 $-1 #
coedge $-1 $382 $381 $559 $711 reversed $145 $-1 #
edge $-1 $556 26.553888762614747 $712 35.316597349826935 $552 $713 forward 7 unknown #
coedge $-1 $388 $383 $710 $714 forward $231 $-1 #
vertex $-1 $714 $715 #
straight-curve $-1 24.323816905902756 21.950607228179287 12.242109088143184 1 0 0 I I #
coedge $-1 $716 $385 $388 $563 reversed $550 $-1 #
coedge $-1 $385 $716 $553 $711 forward $550 $-1 #
vertex $-1 $386 $717 #
straight-curve $-1 36.96627809145977 27.926760036702273 64.485345775480482 0 0 1 I I #
straight-curve $-1 36.96627809145977 -10.165248562064164 46.682148770007544 0 0.68199835119979291 -0.73135370988377701 I I #
edge $-1 $718 -60.328989532151247 $389 -36.96627809145977 $558 $719 forward 7 unknown #
point $-1 36.96627809145977 27.926760036702273 12.242109088143184 #
point $-1 36.96627809145977 21.950607228179301 12.242109088143181 #
edge $-1 $720 1 $720 0 $392 $-1 forward 7 unknown #
vertex $-1 $393 $721 #
ellipse-curve $-1 43.641338503085898 22.883139337517644 7.1209633525296026 0 0.73135370988377701 0.68199835119979291 1 0 0 1 I I #
point $-1 44.641338503085898 24.938683632440782 9.0377893711991462 #
edge $-1 $722 1 $722 0 $396 $-1 forward 7 unknown #
vertex $-1 $397 $723 #
ellipse-curve $-1 53.653929120525099 22.883139337517644 7.1209633525296026 0 0.73135370988377701 0.68199835119979291 1 0 0 1 I I #
point $-1 54.653929120525099 24.938683632440782 9.0377893711991462 #
plane-surface $-1 0 0 12.242109088143184 0 0 1 1 0 0 forward_v I I I I #
coedge $-1 $585 $584 $577 $724 forward $401 $-1 #
coedge $-1 $577 $403 $405 $581 reversed $253 $-1 #
coedge $-1 $403 $576 $575 $724 reversed $253 $-1 #
coedge $-1 $411 $406 $403 $579 forward $412 $-1 #
edge $-1 $582 -35.284817891596987 $725 -17.108347024884392 $578 $726 forward 7 unknown #
coedge $-1 $405 $404 $585 $727 reversed $159 $-1 #
edge $-1 $728 1.24522913329939e-014 $582 21.20527805845888 $576 $729 forward 7 unknown #
vertex $-1 $407 $730 #
straight-curve $-1 -15.772323113278375 -9.7502891699896779 12.242109088143184 -1 0 0 I I #
coedge $-1 $575 $408 $411 $589 reversed $401 $-1 #
coedge $-1 $408 $575 $580 $727 forward $401 $-1 #
vertex $-1 $409 $731 #
straight-curve $-1 -23.303901102222362 -27.926760036702273 52.372328539857811 0 0 1 I I #
straight-curve $-1 -23.303901102222362 -27.926760036702284 1.3205833536999592 0 -0.85716729658548041 -0.51503808176128008 I I #
edge $-1 $725 -39.785391350891139 $413 -23.303901102222362 $584 $732 forward 7 unknown #
point $-1 -23.303901102222362 -27.926760036702273 12.242109088143184 #
point $-1 -23.303901102222362 -9.7502891699896779 12.242109088143184 #
edge $-1 $733 1 $733 0 $416 $-1 forward 7 unknown #
vertex $-1 $417 $734 #
ellipse-curve $-1 -35.076394136985776 -17.862825533968522 5.157510308207697 0 -0.51503808176128008 0.85716729658548041 1.5 0 0 1 I I #
point $-1 -33.576394136985776 -18.838524603345963 6.7813462209215682 #
edge $-1 $735 1 $735 0 $420 $-1 forward 7 unknown #
vertex $-1 $421 $736 #
ellipse-curve $-1 -28.012898316127732 -17.862825533968522 5.157510308207697 0 -0.51503808176128008 0.85716729658548041 1.5 0 0 1 I I #
point $-1 -26.512898316127732 -18.838524603345963 6.7813462209215682 #
plane-surface $-1 0 0 12.242109088143184 0 0 1 1 0 0 forward_v I I I I #
coedge $-1 $611 $610 $603 $737 forward $425 $-1 #
coedge $-1 $603 $427 $429 $607 reversed $275 $-1 #
coedge $-1 $427 $602 $601 $737 reversed $275 $-1 #
coedge $-1 $435 $430 $427 $605 forward $436 $-1 #
edge $-1 $608 -35.284817891596987 $738 -17.108347024884392 $604 $739 forward 7 unknown #
coedge $-1 $429 $428 $611 $740 reversed $173 $-1 #
edge $-1 $741 1.24522913329939e-014 $608 21.20527805845888 $602 $742 forward 7 unknown #
vertex $-1 $431 $743 #
straight-curve $-1 -2.6071236138763076 -9.7502891699896779 12.242109088143184 -1 0 0 I I #
coedge $-1 $601 $432 $435 $615 reversed $425 $-1 #
coedge $-1 $432 $601 $606 $740 forward $425 $-1 #
vertex $-1 $433 $744 #
straight-curve $-1 3.0264978965817733 -27.926760036702273 52.372328539857811 0 0 1 I I #
straight-curve $-1 3.0264978965817733 -27.926760036702284 1.3205833536999592 0 -0.85716729658548041 -0.51503808176128008 I I #
edge $-1 $738 -13.454992352087004 $437 3.0264978965817733 $610 $745 forward 7 unknown #
point $-1 3.0264978965817733 -27.926760036702273 12.242109088143184 #
point $-1 3.0264978965817733 -9.7502891699896779 12.242109088143184 #
edge $-1 $746 1 $746 0 $440 $-1 forward 7 unknown #
vertex $-1 $441 $747 #
ellipse-curve $-1 -8.7459951381816339 -17.862825533968522 5.157510308207697 0 -0.51503808176128008 0.85716729658548041 1.5 0 0 1 I I #
point $-1 -7.2459951381816339 -18.838524603345963 6.7813462209215682 #
edge $-1 $748 1 $748 0 $444 $-1 forward 7 unknown #
vertex $-1 $445 $749 #
ellipse-curve $-1 -1.6824993173235967 -17.862825533968522 5.157510308207697 0 -0.51503808176128008 0.85716729658548041 1.5 0 0 1 I I #
point $-1 -0.1824993173235967 -18.838524603345963 6.7813462209215682 #
plane-surface $-1 0 0 12.242109088143184 0 0 1 1 0 0 forward_v I I I I #
coedge $-1 $637 $636 $629 $750 forward $449 $-1 #
coedge $-1 $629 $451 $453 $633 reversed $297 $-1 #
coedge $-1 $451 $628 $627 $750 reversed $297 $-1 #
coedge $-1 $459 $454 $451 $631 forward $460 $-1 #
edge $-1 $634 -35.284817891596987 $751 -17.108347024884392 $630 $752 forward 7 unknown #
coedge $-1 $453 $452 $637 $753 reversed $187 $-1 #
edge $-1 $754 1.24522913329939e-014 $634 21.20527805845888 $628 $755 forward 7 unknown #
vertex $-1 $455 $756 #
straight-curve $-1 10.558075885525763 -9.7502891699896779 12.242109088143184 -1 0 0 I I #
coedge $-1 $627 $456 $459 $641 reversed $449 $-1 #
coedge $-1 $456 $627 $632 $753 forward $449 $-1 #
vertex $-1 $457 $757 #
straight-curve $-1 29.356896895385916 -27.926760036702273 52.372328539857811 0 0 1 I I #
straight-curve $-1 29.356896895385916 -27.926760036702284 1.3205833536999592 0 -0.85716729658548041 -0.51503808176128008 I I #
edge $-1 $751 12.875406646717138 $461 29.356896895385916 $636 $758 forward 7 unknown #
point $-1 29.356896895385916 -27.926760036702273 12.242109088143184 #
point $-1 29.356896895385916 -9.7502891699896779 12.242109088143184 #
edge $-1 $759 1 $759 0 $464 $-1 forward 7 unknown #
vertex $-1 $465 $760 #
ellipse-curve $-1 17.584403860622508 -17.862825533968522 5.157510308207697 0 -0.51503808176128008 0.85716729658548041 1.5 0 0 1 I I #
point $-1 19.084403860622508 -18.838524603345963 6.7813462209215682 #
edge $-1 $761 1 $761 0 $468 $-1 forward 7 unknown #
vertex $-1 $469 $762 #
ellipse-curve $-1 24.647899681480546 -17.862825533968522 5.157510308207697 0 -0.51503808176128008 0.85716729658548041 1.5 0 0 1 I I #
point $-1 26.147899681480546 -18.838524603345963 6.7813462209215682 #
plane-surface $-1 0 0 12.242109088143184 0 0 1 1 0 0 forward_v I I I I #
coedge $-1 $663 $662 $655 $763 forward $473 $-1 #
coedge $-1 $655 $475 $477 $659 reversed $319 $-1 #
coedge $-1 $475 $654 $653 $763 reversed $319 $-1 #
coedge $-1 $483 $478 $475 $657 forward $484 $-1 #
edge $-1 $660 -35.284817891596987 $764 -17.108347024884392 $656 $765 forward 7 unknown #
coedge $-1 $477 $476 $663 $766 reversed $201 $-1 #
edge $-1 $767 1.24522913329939e-014 $660 21.20527805845888 $654 $768 forward 7 unknown #
vertex $-1 $479 $769 #
straight-curve $-1 23.723275384927835 -9.7502891699896779 12.242109088143184 -1 0 0 I I #
coedge $-1 $653 $480 $483 $667 reversed $473 $-1 #
coedge $-1 $480 $653 $658 $766 forward $473 $-1 #
vertex $-1 $481 $770 #
straight-curve $-1 55.687295894190058 -27.926760036702273 52.372328539857811 0 0 1 I I #
straight-curve $-1 55.687295894190058 -27.926760036702284 1.3205833536999592 0 -0.85716729658548041 -0.51503808176128008 I I #
edge $-1 $764 39.205805645521281 $485 55.687295894190058 $662 $771 forward 7 unknown #
point $-1 55.687295894190058 -27.926760036702273 12.242109088143184 #
point $-1 55.687295894190058 -9.7502891699896779 12.242109088143184 #
edge $-1 $772 1 $772 0 $488 $-1 forward 7 unknown #
vertex $-1 $489 $773 #
ellipse-curve $-1 43.914802859426651 -17.862825533968522 5.157510308207697 0 -0.51503808176128008 0.85716729658548041 1.5 0 0 1 I I #
point $-1 45.414802859426651 -18.838524603345963 6.7813462209215682 #
edge $-1 $774 1 $774 0 $492 $-1 forward 7 unknown #
vertex $-1 $493 $775 #
ellipse-curve $-1 50.978298680284688 -17.862825533968522 5.157510308207697 0 -0.51503808176128008 0.85716729658548041 1.5 0 0 1 I I #
point $-1 52.478298680284688 -18.838524603345963 6.7813462209215682 #
plane-surface $-1 60.328989532151247 0 0 -1 0 0 0 0 1 forward_v I I I I #
coedge $-1 $501 $499 $503 $683 reversed $341 $-1 #
edge $-1 $514 -12.242109088143184 $685 12.242109088143184 $513 $776 forward 7 unknown #
vertex $-1 $683 $777 #
straight-curve $-1 -60.328989532151247 -27.926760036702273 0 0 0 -1 I I #
edge $-1 $681 -27.926760036702273 $685 27.926760036702273 $679 $778 forward 7 unknown #
straight-curve $-1 0 -27.926760036702273 -12.242109088143184 -1 0 0 I I #
vertex $-1 $506 $779 #
straight-curve $-1 0 27.926760036702273 -12.242109088143184 1 0 0 I I #
point $-1 60.328989532151247 27.926760036702273 -12.242109088143184 #
point $-1 60.328989532151247 -27.926760036702273 -12.242109088143184 #
straight-curve $-1 -60.328989532151247 0 12.242109088143184 0 -1 0 I I #
point $-1 -60.328989532151247 27.926760036702273 12.242109088143184 #
point $-1 -60.328989532151247 -27.926760036702273 12.242109088143184 #
straight-curve $-1 60.328989532151247 -27.926760036702273 0 0 0 -1 I I #
straight-curve $-1 60.328989532151247 27.926760036702273 0 0 0 -1 I I #
plane-surface $-1 -60.328989532151247 0 0 1 0 0 0 0 -1 forward_v I I I I #
edge $-1 $535 0.20850162562266306 $539 6.2595788439638191 $538 $780 forward 7 unknown #
edge $-1 $543 -6.2595788439638191 $534 -0.20850162562266306 $541 $781 forward 7 unknown #
straight-curve $-1 -44.427084988852336 -9.4936190787570602 0 0 0 -1 I I #
edge $-1 $701 -12.242109088143184 $699 12.242109088143184 $545 $782 forward 7 unknown #
vertex $-1 $698 $783 #
straight-curve $-1 -26.189018630250896 -3.4425418604159042 -12.242109088143184 1 0 0 I I #
vertex $-1 $546 $784 #
straight-curve $-1 -26.189018630250896 -3.4425418604159042 12.242109088143184 -1 0 0 I I #
point $-1 -44.427084988852336 -3.4425418604159042 12.242109088143184 #
point $-1 -44.427084988852336 -3.4425418604159042 -12.242109088143184 #
point $-1 -44.427084988852336 -9.4936190787570602 -12.242109088143184 #
point $-1 -44.427084988852336 -9.4936190787570602 12.242109088143184 #
straight-curve $-1 -60.328989532151247 0 12.242109088143184 0 -1 0 I I #
straight-curve $-1 -60.328989532151247 0 -12.242109088143184 0 1 0 I I #
coedge $-1 $710 $552 $716 $785 reversed $379 $-1 #
coedge $-1 $552 $709 $555 $714 reversed $379 $-1 #
edge $-1 $712 -36.005172626248495 $560 -12.642461185557014 $559 $786 forward 7 unknown #
vertex $-1 $554 $787 #
straight-curve $-1 60.328989532151247 3.8408988741333321 31.662394146522608 0 0.68199835119979291 -0.73135370988377701 I I #
edge $-1 $556 21.950607228179301 $718 27.926760036702273 $710 $788 forward 7 unknown #
point $-1 60.328989532151255 21.950607228179301 12.242109088143181 #
coedge $-1 $559 $558 $709 $785 forward $550 $-1 #
point $-1 36.96627809145977 27.926760036702277 5.8334696542551114 #
vertex $-1 $714 $789 #
straight-curve $-1 0 27.926760036702273 12.242109088143184 -1 0 0 I I #
vertex $-1 $566 $790 #
point $-1 44.641338503085898 22.883139337517644 7.1209633525296026 #
vertex $-1 $570 $791 #
point $-1 54.653929120525099 22.883139337517644 7.1209633525296026 #
edge $-1 $725 40.130219451714623 $728 51.051745186157845 $575 $792 forward 7 unknown #
vertex $-1 $589 $793 #
straight-curve $-1 -39.785391350891139 -45.035107061586665 12.242109088143181 0 -1 0 I I #
edge $-1 $728 -24.013068237612764 $586 -7.5315779889439867 $585 $794 forward 7 unknown #
vertex $-1 $727 $795 #
straight-curve $-1 -39.785391350891139 -27.926760036702284 1.3205833536999592 0 0.85716729658548041 0.51503808176128008 I I #
point $-1 -39.785391350891139 -9.7502891699896779 12.242109088143184 #
point $-1 -23.303901102222362 -27.926760036702273 1.3205833536999656 #
straight-curve $-1 0 -27.926760036702273 12.242109088143184 1 0 0 I I #
vertex $-1 $592 $796 #
point $-1 -33.576394136985776 -17.862825533968522 5.157510308207697 #
vertex $-1 $596 $797 #
point $-1 -26.512898316127732 -17.862825533968522 5.157510308207697 #
edge $-1 $738 40.130219451714623 $741 51.051745186157845 $601 $798 forward 7 unknown #
vertex $-1 $615 $799 #
straight-curve $-1 -13.454992352087004 -45.035107061586665 12.242109088143181 0 -1 0 I I #
edge $-1 $741 -10.847868738210696 $612 5.6336215104580809 $611 $800 forward 7 unknown #
vertex $-1 $740 $801 #
straight-curve $-1 -13.454992352087004 -27.926760036702284 1.3205833536999592 0 0.85716729658548041 0.51503808176128008 I I #
point $-1 -13.454992352087004 -9.7502891699896779 12.242109088143184 #
point $-1 3.0264978965817733 -27.926760036702273 1.3205833536999656 #
straight-curve $-1 0 -27.926760036702273 12.242109088143184 1 0 0 I I #
vertex $-1 $618 $802 #
point $-1 -7.2459951381816339 -17.862825533968522 5.157510308207697 #
vertex $-1 $622 $803 #
point $-1 -0.1824993173235967 -17.862825533968522 5.157510308207697 #
edge $-1 $751 40.130219451714623 $754 51.051745186157845 $627 $804 forward 7 unknown #
vertex $-1 $641 $805 #
straight-curve $-1 12.875406646717138 -45.035107061586665 12.242109088143181 0 -1 0 I I #
edge $-1 $754 2.3173307611913749 $638 18.798821009860152 $637 $806 forward 7 unknown #
vertex $-1 $753 $807 #
straight-curve $-1 12.875406646717138 -27.926760036702284 1.3205833536999592 0 0.85716729658548041 0.51503808176128008 I I #
point $-1 12.875406646717138 -9.7502891699896779 12.242109088143184 #
point $-1 29.356896895385916 -27.926760036702273 1.3205833536999656 #
straight-curve $-1 0 -27.926760036702273 12.242109088143184 1 0 0 I I #
vertex $-1 $644 $808 #
point $-1 19.084403860622508 -17.862825533968522 5.157510308207697 #
vertex $-1 $648 $809 #
point $-1 26.147899681480546 -17.862825533968522 5.157510308207697 #
edge $-1 $764 40.130219451714623 $767 51.051745186157845 $653 $810 forward 7 unknown #
vertex $-1 $667 $811 #
straight-curve $-1 39.205805645521281 -45.035107061586665 12.242109088143181 0 -1 0 I I #
edge $-1 $767 15.482530260593446 $664 31.964020509262223 $663 $812 forward 7 unknown #
vertex $-1 $766 $813 #
straight-curve $-1 39.205805645521281 -27.926760036702284 1.3205833536999592 0 0.85716729658548041 0.51503808176128008 I I #
point $-1 39.205805645521281 -9.7502891699896779 12.242109088143184 #
point $-1 55.687295894190058 -27.926760036702273 1.3205833536999656 #
straight-curve $-1 0 -27.926760036702273 12.242109088143184 1 0 0 I I #
vertex $-1 $670 $814 #
point $-1 45.414802859426651 -17.862825533968522 5.157510308207697 #
vertex $-1 $674 $815 #
point $-1 52.478298680284688 -17.862825533968522 5.157510308207697 #
straight-curve $-1 -60.328989532151247 27.926760036702273 0 0 0 -1 I I #
point $-1 -60.328989532151247 -27.926760036702273 -12.242109088143184 #
straight-curve $-1 -60.328989532151247 0 -12.242109088143184 0 1 0 I I #
point $-1 -60.328989532151247 27.926760036702273 -12.242109088143184 #
straight-curve $-1 -44.427084988852336 -3.2340402347932411 -12.242109088143184 0 -1 0 I I #
straight-curve $-1 -44.427084988852336 -3.2340402347932411 12.242109088143184 0 1 0 I I #
straight-curve $-1 -60.328989532151247 -3.4425418604159042 0 0 0 -1 I I #
point $-1 -60.328989532151247 -3.4425418604159042 -12.242109088143184 #
point $-1 -60.328989532151247 -3.4425418604159042 12.242109088143184 #
edge $-1 $718 -12.242109088143184 $712 -5.8334696542551114 $709 $816 forward 7 unknown #
straight-curve $-1 24.323816905902756 27.926760036702269 5.833469654255115 -1 0 0 I I #
point $-1 60.328989532151255 27.926760036702277 5.8334696542551114 #
straight-curve $-1 60.328989532151247 0 12.242109088143184 0 1 0 I I #
point $-1 60.328989532151247 27.926760036702273 12.242109088143184 #
point $-1 43.641338503085898 22.151785627633867 6.4389650013298096 #
point $-1 53.653929120525099 22.151785627633867 6.4389650013298096 #
straight-curve $-1 -39.785391350891139 -27.926760036702273 52.372328539857811 0 0 -1 I I #
point $-1 -39.785391350891139 -27.926760036702273 12.242109088143184 #
straight-curve $-1 -15.772323113278375 -27.926760036702273 1.3205833536999643 1 0 0 I I #
point $-1 -39.785391350891139 -27.926760036702273 1.3205833536999656 #
point $-1 -35.076394136985776 -17.090268411326601 3.8717593633294749 #
point $-1 -28.012898316127732 -17.090268411326601 3.8717593633294749 #
straight-curve $-1 -13.454992352087004 -27.926760036702273 52.372328539857811 0 0 -1 I I #
point $-1 -13.454992352087004 -27.926760036702273 12.242109088143184 #
straight-curve $-1 -2.6071236138763076 -27.926760036702273 1.3205833536999643 1 0 0 I I #
point $-1 -13.454992352087004 -27.926760036702273 1.3205833536999656 #
point $-1 -8.7459951381816339 -17.090268411326601 3.8717593633294749 #
point $-1 -1.6824993173235967 -17.090268411326601 3.8717593633294749 #
straight-curve $-1 12.875406646717138 -27.926760036702273 52.372328539857811 0 0 -1 I I #
point $-1 12.875406646717138 -27.926760036702273 12.242109088143184 #
straight-curve $-1 10.558075885525763 -27.926760036702273 1.3205833536999643 1 0 0 I I #
point $-1 12.875406646717138 -27.926760036702273 1.3205833536999656 #
point $-1 17.584403860622508 -17.090268411326601 3.8717593633294749 #
point $-1 24.647899681480546 -17.090268411326601 3.8717593633294749 #
straight-curve $-1 39.205805645521281 -27.926760036702273 52.372328539857811 0 0 -1 I I #
point $-1 39.205805645521281 -27.926760036702273 12.242109088143184 #
straight-curve $-1 23.723275384927835 -27.926760036702273 1.3205833536999643 1 0 0 I I #
point $-1 39.205805645521281 -27.926760036702273 1.3205833536999656 #
point $-1 43.914802859426651 -17.090268411326601 3.8717593633294749 #
point $-1 50.978298680284688 -17.090268411326601 3.8717593633294749 #
straight-curve $-1 60.328989532151247 27.926760036702273 0 0 0 -1 I I #
End-of-ACIS-data 