500 0 11 0           
7 Unknown 11 ACIS 5.0 NT 24 Fri Mar 26 01:19:44 1999 
-1 9.9999999999999995e-007 1e-010 
body $-1 $11 $-1 $12 #
body $-1 $13 $-1 $14 #
body $-1 $15 $-1 $16 #
body $-1 $17 $-1 $18 #
body $-1 $19 $-1 $20 #
body $-1 $21 $-1 $22 #
body $-1 $23 $-1 $24 #
body $-1 $25 $-1 $26 #
body $-1 $27 $-1 $28 #
body $-1 $29 $-1 $30 #
body $-1 $31 $-1 $32 #
lump $-1 $-1 $33 $0 #
transform $-1 1 0 0 0 1 0 0 0 1 57.202673421430099 39.96855030110477 9.9748776800535417 1 rotate no_reflect no_shear #
lump $-1 $-1 $34 $1 #
transform $-1 1 0 0 0 1 0 0 0 1 57.202673421430099 39.96855030110477 9.9748776800535417 1 rotate no_reflect no_shear #
lump $-1 $-1 $35 $2 #
transform $-1 1 0 0 0 1 0 0 0 1 57.202673421430099 39.96855030110477 9.9748776800535417 1 rotate no_reflect no_shear #
lump $-1 $-1 $36 $3 #
transform $-1 1 0 0 0 1 0 0 0 1 57.202673421430099 39.96855030110477 9.9748776800535417 1 rotate no_reflect no_shear #
lump $-1 $-1 $37 $4 #
transform $-1 1 0 0 0 1 0 0 0 1 57.202673421430099 39.96855030110477 9.9748776800535417 1 rotate no_reflect no_shear #
lump $-1 $-1 $38 $5 #
transform $-1 1 0 0 0 1 0 0 0 1 57.202673421430099 39.96855030110477 9.9748776800535417 1 rotate no_reflect no_shear #
lump $-1 $-1 $39 $6 #
transform $-1 1 0 0 0 1 0 0 0 1 57.202673421430099 39.96855030110477 9.9748776800535417 1 rotate no_reflect no_shear #
lump $-1 $-1 $40 $7 #
transform $-1 1 0 0 0 1 0 0 0 1 57.202673421430099 39.96855030110477 9.9748776800535417 1 rotate no_reflect no_shear #
lump $-1 $-1 $41 $8 #
transform $-1 1 0 0 0 1 0 0 0 1 57.202673421430099 39.96855030110477 9.9748776800535417 1 rotate no_reflect no_shear #
lump $-1 $-1 $42 $9 #
transform $-1 1 0 0 0 1 0 0 0 1 57.202673421430099 39.96855030110477 9.9748776800535417 1 rotate no_reflect no_shear #
lump $-1 $-1 $43 $10 #
transform $-1 1 0 0 0 1 0 0 0 1 57.202673421430099 39.96855030110477 9.9748776800535417 1 rotate no_reflect no_shear #
shell $-1 $-1 $-1 $44 $-1 $11 #
shell $-1 $-1 $-1 $45 $-1 $13 #
shell $-1 $-1 $-1 $46 $-1 $15 #
shell $-1 $-1 $-1 $47 $-1 $17 #
shell $-1 $-1 $-1 $48 $-1 $19 #
shell $-1 $-1 $-1 $49 $-1 $21 #
shell $-1 $-1 $-1 $50 $-1 $23 #
shell $-1 $-1 $-1 $51 $-1 $25 #
shell $-1 $-1 $-1 $52 $-1 $27 #
shell $-1 $-1 $-1 $53 $-1 $29 #
shell $-1 $-1 $-1 $54 $-1 $31 #
face $-1 $55 $56 $33 $-1 $57 forward single #
face $-1 $58 $59 $34 $-1 $60 forward single #
face $-1 $61 $62 $35 $-1 $63 reversed single #
face $-1 $64 $65 $36 $-1 $66 forward single #
face $-1 $67 $68 $37 $-1 $69 forward single #
face $-1 $70 $71 $38 $-1 $72 reversed single #
face $-1 $73 $74 $39 $-1 $75 forward single #
face $-1 $76 $77 $40 $-1 $78 forward single #
face $-1 $79 $80 $41 $-1 $81 reversed single #
face $-1 $82 $83 $42 $-1 $84 forward single #
face $-1 $85 $86 $43 $-1 $87 forward single #
face $-1 $88 $89 $33 $-1 $90 reversed single #
loop $-1 $-1 $91 $44 #
plane-surface $-1 0 0 9.9748776800535417 0 0 1 1 0 0 forward_v I I I I #
face $-1 $92 $93 $34 $-1 $94 reversed single #
loop $-1 $-1 $95 $45 #
plane-surface $-1 -50.843978858921012 0 6.8298075610481064 0 0 1 1 0 0 forward_v I I I I #
face $-1 $96 $97 $35 $-1 $98 reversed single #
loop $-1 $-1 $99 $46 #
plane-surface $-1 -34.116029702359825 -123.63932514517083 83.558692550159606 1 0 0 0 0.73135370988377701 -0.68199835119979291 forward_v I I I I #
face $-1 $100 $101 $36 $-1 $102 forward single #
loop $-1 $103 $104 $47 #
cone-surface $-1 -28.914258122525645 -36.527098069227776 6.4761199863994987 0 0.73135370988377701 -0.68199835119979291 1.5 0 0 1 I I 0 1 1.5 forward I I I I #
face $-1 $105 $106 $37 $-1 $107 forward single #
loop $-1 $108 $109 $48 #
cone-surface $-1 -21.111600752774386 -36.527098069227776 6.4761199863994987 0 0.73135370988377701 -0.68199835119979291 1.5 0 0 1 I I 0 1 1.5 forward I I I I #
face $-1 $110 $111 $38 $-1 $112 reversed single #
loop $-1 $-1 $113 $49 #
plane-surface $-1 28.627218297958368 -123.63932514517083 83.558692550159606 1 0 0 0 0.73135370988377701 -0.68199835119979291 forward_v I I I I #
face $-1 $114 $115 $39 $-1 $116 forward single #
loop $-1 $117 $118 $50 #
cone-surface $-1 33.828989877792559 -36.527098069227776 6.4761199863994987 0 0.73135370988377701 -0.68199835119979291 1.5 0 0 1 I I 0 1 1.5 forward I I I I #
face $-1 $119 $120 $40 $-1 $121 forward single #
loop $-1 $122 $123 $51 #
cone-surface $-1 41.631647247543803 -36.527098069227776 6.4761199863994987 0 0.73135370988377701 -0.68199835119979291 1.5 0 0 1 I I 0 1 1.5 forward I I I I #
face $-1 $124 $125 $41 $-1 $126 reversed single #
loop $-1 $-1 $127 $52 #
plane-surface $-1 -15.509752207609633 61.939245687507352 141.8467005007719 1 0 0 0 -0.69465837861970381 -0.71933979245794832 forward_v I I I I #
face $-1 $128 $129 $42 $-1 $130 forward single #
loop $-1 $131 $132 $53 #
cone-surface $-1 -12.275957312983586 35.088846266156885 5.1370827805753656 0 -0.69465837861970381 -0.71933979245794832 1.5 0 0 1 I I 0 1 1.5 forward I I I I #
face $-1 $133 $134 $43 $-1 $135 forward single #
loop $-1 $136 $137 $54 #
cone-surface $-1 -7.4252649710445056 35.088846266156885 5.1370827805753656 0 -0.69465837861970381 -0.71933979245794832 1.5 0 0 1 I I 0 1 1.5 forward I I I I #
face $-1 $138 $139 $33 $-1 $140 reversed single #
loop $-1 $-1 $141 $55 #
plane-surface $-1 0 0 -9.9748776800535417 0 0 1 1 0 0 forward_v I I I I #
coedge $-1 $142 $143 $144 $145 forward $56 $-1 #
face $-1 $146 $147 $34 $-1 $148 reversed single #
loop $-1 $-1 $149 $58 #
plane-surface $-1 -50.843978858921012 0 3.8298075610481064 0 0 1 1 0 0 forward_v I I I I #
coedge $-1 $150 $151 $152 $153 forward $59 $-1 #
face $-1 $154 $155 $35 $-1 $156 reversed single #
loop $-1 $-1 $157 $61 #
plane-surface $-1 -25.012929437650023 -39.96855030110477 5.5344346348885125 0 -0.73135370988377701 0.68199835119979291 1 0 0 forward_v I I I I #
coedge $-1 $158 $159 $160 $161 reversed $62 $-1 #
face $-1 $-1 $162 $36 $-1 $163 forward single #
loop $-1 $164 $165 $64 #
cone-surface $-1 -28.914258122525645 -34.607520569012259 4.6860850519281225 0 0.73135370988377701 -0.68199835119979291 0.75 0 0 1 I I -0.70710678118654757 0.70710678118654757 0.75 forward I I I I #
loop $-1 $-1 $166 $47 #
coedge $-1 $104 $104 $167 $168 reversed $65 $-1 #
face $-1 $-1 $169 $37 $-1 $170 forward single #
loop $-1 $171 $172 $67 #
cone-surface $-1 -21.111600752774386 -34.607520569012259 4.6860850519281225 0 0.73135370988377701 -0.68199835119979291 0.75 0 0 1 I I -0.70710678118654757 0.70710678118654757 0.75 forward I I I I #
loop $-1 $-1 $173 $48 #
coedge $-1 $109 $109 $174 $175 reversed $68 $-1 #
face $-1 $176 $177 $38 $-1 $178 reversed single #
loop $-1 $-1 $179 $70 #
plane-surface $-1 37.730318562668167 -39.96855030110477 5.5344346348885125 0 -0.73135370988377701 0.68199835119979291 1 0 0 forward_v I I I I #
coedge $-1 $180 $181 $182 $183 reversed $71 $-1 #
face $-1 $-1 $184 $39 $-1 $185 forward single #
loop $-1 $186 $187 $73 #
cone-surface $-1 33.828989877792559 -34.607520569012259 4.6860850519281225 0 0.73135370988377701 -0.68199835119979291 0.75 0 0 1 I I -0.70710678118654757 0.70710678118654757 0.75 forward I I I I #
loop $-1 $-1 $188 $50 #
coedge $-1 $118 $118 $189 $190 reversed $74 $-1 #
face $-1 $-1 $191 $40 $-1 $192 forward single #
loop $-1 $193 $194 $76 #
cone-surface $-1 41.631647247543803 -34.607520569012259 4.6860850519281225 0 0.73135370988377701 -0.68199835119979291 0.75 0 0 1 I I -0.70710678118654757 0.70710678118654757 0.75 forward I I I I #
loop $-1 $-1 $195 $51 #
coedge $-1 $123 $123 $196 $197 reversed $77 $-1 #
face $-1 $198 $199 $41 $-1 $200 reversed single #
loop $-1 $-1 $201 $79 #
plane-surface $-1 -9.8506111420140385 -17.533387055778761 59.550382046749249 0 0.69465837861970381 0.71933979245794832 1 0 0 forward_v I I I I #
coedge $-1 $202 $203 $204 $205 reversed $80 $-1 #
face $-1 $-1 $206 $42 $-1 $207 forward single #
loop $-1 $208 $209 $82 #
cone-surface $-1 -12.275957312983586 32.770648911858942 2.7365192013513813 0 -0.69465837861970381 -0.71933979245794832 0.75 0 0 1 I I -0.70710678118654757 0.70710678118654757 0.75 forward I I I I #
loop $-1 $-1 $210 $53 #
coedge $-1 $132 $132 $211 $212 reversed $83 $-1 #
face $-1 $-1 $213 $43 $-1 $214 forward single #
loop $-1 $215 $216 $85 #
cone-surface $-1 -7.4252649710445056 32.770648911858942 2.7365192013513813 0 -0.69465837861970381 -0.71933979245794832 0.75 0 0 1 I I -0.70710678118654757 0.70710678118654757 0.75 forward I I I I #
loop $-1 $-1 $217 $54 #
coedge $-1 $137 $137 $218 $219 reversed $86 $-1 #
face $-1 $220 $221 $33 $-1 $222 reversed single #
loop $-1 $-1 $223 $88 #
plane-surface $-1 0 -39.96855030110477 0 0 1 0 0 0 1 forward_v I I I I #
coedge $-1 $224 $225 $226 $227 forward $89 $-1 #
coedge $-1 $228 $91 $229 $230 forward $56 $-1 #
coedge $-1 $91 $228 $231 $232 forward $56 $-1 #
coedge $-1 $233 $234 $91 $145 reversed $235 $-1 #
edge $-1 $236 -39.96855030110477 $237 39.96855030110477 $144 $238 forward 7 unknown #
face $-1 $239 $240 $34 $-1 $241 reversed single #
loop $-1 $-1 $242 $92 #
plane-surface $-1 -44.485284296411926 0 5.3298075610481064 -1 0 0 0 0 1 forward_v I I I I #
coedge $-1 $243 $244 $245 $246 forward $93 $-1 #
coedge $-1 $247 $95 $248 $249 reversed $59 $-1 #
coedge $-1 $95 $247 $250 $251 reversed $59 $-1 #
coedge $-1 $242 $252 $95 $153 reversed $147 $-1 #
edge $-1 $253 -39.96855030110477 $254 39.96855030110477 $152 $255 forward 7 unknown #
face $-1 $256 $257 $35 $-1 $258 forward single #
loop $-1 $-1 $259 $96 #
plane-surface $-1 -15.909829172940224 -123.63932514517083 83.558692550159606 -1 0 0 0 -0.73135370988377701 0.68199835119979291 forward_v I I I I #
coedge $-1 $260 $261 $262 $263 reversed $97 $-1 #
coedge $-1 $159 $99 $264 $265 reversed $62 $-1 #
coedge $-1 $99 $158 $260 $266 reversed $62 $-1 #
coedge $-1 $262 $267 $99 $161 forward $268 $-1 #
edge $-1 $269 31.804468595026261 $270 36.24491164019129 $160 $271 forward 7 unknown #
loop $-1 $-1 $167 $100 #
plane-surface $-1 -25.012929437650023 -39.96855030110477 5.5344346348885125 0 -0.73135370988377701 0.68199835119979291 1 0 0 forward_v I I I I #
loop $-1 $-1 $272 $64 #
coedge $-1 $165 $165 $166 $273 reversed $101 $-1 #
coedge $-1 $166 $166 $165 $273 forward $103 $-1 #
coedge $-1 $167 $167 $104 $168 forward $162 $-1 #
edge $-1 $274 8.6609677638186254e-016 $274 6.2831853071796013 $167 $275 forward 7 unknown #
loop $-1 $-1 $174 $105 #
plane-surface $-1 -25.012929437650023 -39.96855030110477 5.5344346348885125 0 -0.73135370988377701 0.68199835119979291 1 0 0 forward_v I I I I #
loop $-1 $-1 $276 $67 #
coedge $-1 $172 $172 $173 $277 reversed $106 $-1 #
coedge $-1 $173 $173 $172 $277 forward $108 $-1 #
coedge $-1 $174 $174 $109 $175 forward $169 $-1 #
edge $-1 $278 8.6609677638186254e-016 $278 6.2831853071796013 $174 $279 forward 7 unknown #
face $-1 $280 $281 $38 $-1 $282 reversed single #
loop $-1 $-1 $283 $110 #
plane-surface $-1 46.833418827377969 -123.63932514517083 83.558692550159606 -1 0 0 0 -0.73135370988377701 0.68199835119979291 forward_v I I I I #
coedge $-1 $284 $285 $286 $287 reversed $111 $-1 #
coedge $-1 $181 $113 $288 $289 reversed $71 $-1 #
coedge $-1 $113 $180 $284 $290 reversed $71 $-1 #
coedge $-1 $286 $291 $113 $183 forward $281 $-1 #
edge $-1 $292 31.804468595026261 $293 36.24491164019129 $182 $294 forward 7 unknown #
loop $-1 $-1 $189 $114 #
plane-surface $-1 37.730318562668167 -39.96855030110477 5.5344346348885125 0 -0.73135370988377701 0.68199835119979291 1 0 0 forward_v I I I I #
loop $-1 $-1 $295 $73 #
coedge $-1 $187 $187 $188 $296 reversed $115 $-1 #
coedge $-1 $188 $188 $187 $296 forward $117 $-1 #
coedge $-1 $189 $189 $118 $190 forward $184 $-1 #
edge $-1 $297 8.6609677638186254e-016 $297 6.2831853071796013 $189 $298 forward 7 unknown #
loop $-1 $-1 $196 $119 #
plane-surface $-1 37.730318562668167 -39.96855030110477 5.5344346348885125 0 -0.73135370988377701 0.68199835119979291 1 0 0 forward_v I I I I #
loop $-1 $-1 $299 $76 #
coedge $-1 $194 $194 $195 $300 reversed $120 $-1 #
coedge $-1 $195 $195 $194 $300 forward $122 $-1 #
coedge $-1 $196 $196 $123 $197 forward $191 $-1 #
edge $-1 $301 8.6609677638186254e-016 $301 6.2831853071796013 $196 $302 forward 7 unknown #
face $-1 $303 $304 $41 $-1 $305 reversed single #
loop $-1 $-1 $306 $124 #
plane-surface $-1 -4.1914700764184438 61.939245687507352 141.8467005007719 -1 0 0 0 0.69465837861970381 0.71933979245794832 forward_v I I I I #
coedge $-1 $307 $308 $309 $310 reversed $125 $-1 #
coedge $-1 $203 $127 $311 $312 reversed $80 $-1 #
coedge $-1 $127 $202 $307 $313 reversed $80 $-1 #
coedge $-1 $309 $314 $127 $205 forward $315 $-1 #
edge $-1 $316 -8.998927457351094 $317 -2.8339265281216584 $204 $318 forward 7 unknown #
loop $-1 $-1 $211 $128 #
plane-surface $-1 -9.8506111420140385 -17.533387055778761 59.550382046749249 0 0.69465837861970381 0.71933979245794832 1 0 0 forward_v I I I I #
loop $-1 $-1 $319 $82 #
coedge $-1 $209 $209 $210 $320 reversed $129 $-1 #
coedge $-1 $210 $210 $209 $320 forward $131 $-1 #
coedge $-1 $211 $211 $132 $212 forward $206 $-1 #
edge $-1 $321 -8.2264077460519962e-016 $321 6.2831853071795996 $211 $322 forward 7 unknown #
loop $-1 $-1 $218 $133 #
plane-surface $-1 -9.8506111420140385 -17.533387055778761 59.550382046749249 0 0.69465837861970381 0.71933979245794832 1 0 0 forward_v I I I I #
loop $-1 $-1 $323 $85 #
coedge $-1 $216 $216 $217 $324 reversed $134 $-1 #
coedge $-1 $217 $217 $216 $324 forward $136 $-1 #
coedge $-1 $218 $218 $137 $219 forward $213 $-1 #
edge $-1 $325 -8.2264077460519962e-016 $325 6.2831853071795996 $218 $326 forward 7 unknown #
face $-1 $327 $328 $33 $-1 $329 reversed single #
loop $-1 $-1 $330 $138 #
plane-surface $-1 -57.202673421430099 0 0 1 0 0 0 0 -1 forward_v I I I I #
coedge $-1 $331 $231 $332 $333 forward $139 $-1 #
coedge $-1 $334 $141 $331 $335 forward $89 $-1 #
coedge $-1 $141 $334 $336 $337 forward $89 $-1 #
coedge $-1 $234 $233 $141 $227 reversed $235 $-1 #
edge $-1 $338 -39.96855030110477 $339 39.96855030110477 $226 $340 forward 7 unknown #
coedge $-1 $143 $142 $341 $342 forward $56 $-1 #
coedge $-1 $343 $344 $142 $230 reversed $328 $-1 #
edge $-1 $237 -57.202673421430099 $345 57.202673421430099 $229 $346 forward 7 unknown #
coedge $-1 $223 $347 $143 $232 reversed $139 $-1 #
edge $-1 $348 -57.202673421430099 $236 57.202673421430099 $231 $349 forward 7 unknown #
coedge $-1 $226 $144 $347 $350 forward $235 $-1 #
coedge $-1 $144 $226 $343 $351 reversed $235 $-1 #
loop $-1 $-1 $233 $327 #
vertex $-1 $145 $352 #
vertex $-1 $145 $353 #
straight-curve $-1 57.202673421430099 0 9.9748776800535417 0 1 0 I I #
face $-1 $354 $355 $34 $-1 $356 reversed single #
loop $-1 $-1 $357 $146 #
plane-surface $-1 0 -39.96855030110477 0 0 1 0 0 0 1 forward_v I I I I #
coedge $-1 $245 $152 $358 $359 reversed $147 $-1 #
coedge $-1 $360 $149 $357 $361 reversed $93 $-1 #
coedge $-1 $149 $360 $362 $363 reversed $93 $-1 #
coedge $-1 $252 $242 $149 $246 reversed $147 $-1 #
edge $-1 $364 -39.96855030110477 $365 39.96855030110477 $245 $366 forward 7 unknown #
coedge $-1 $151 $150 $367 $368 reversed $59 $-1 #
coedge $-1 $369 $370 $150 $249 forward $371 $-1 #
edge $-1 $372 -31.780683991969592 $254 -19.06329486695142 $248 $373 forward 7 unknown #
coedge $-1 $374 $358 $151 $251 forward $240 $-1 #
edge $-1 $253 19.06329486695142 $375 31.780683991969592 $250 $376 forward 7 unknown #
coedge $-1 $152 $245 $369 $377 reversed $147 $-1 #
vertex $-1 $251 $378 #
vertex $-1 $249 $379 #
straight-curve $-1 -44.485284296411926 0 6.8298075610481064 0 1 0 I I #
face $-1 $-1 $268 $35 $-1 $380 reversed single #
loop $-1 $-1 $381 $154 #
plane-surface $-1 0 0 9.9748776800535417 0 0 1 1 0 0 forward_v I I I I #
coedge $-1 $382 $383 $384 $385 reversed $155 $-1 #
coedge $-1 $386 $157 $159 $266 forward $97 $-1 #
coedge $-1 $157 $386 $382 $387 forward $97 $-1 #
coedge $-1 $384 $160 $157 $263 forward $268 $-1 #
edge $-1 $270 -21.609564983534813 $388 -3.4033644541152128 $262 $389 forward 7 unknown #
coedge $-1 $390 $391 $158 $265 forward $257 $-1 #
edge $-1 $392 -25.991892299629257 $269 -21.851112271480645 $264 $393 forward 7 unknown #
edge $-1 $270 0 $392 6.0715396464874463 $159 $394 forward 7 unknown #
coedge $-1 $160 $384 $390 $395 reversed $268 $-1 #
loop $-1 $-1 $384 $256 #
vertex $-1 $395 $396 #
vertex $-1 $161 $397 #
straight-curve $-1 -34.116029702359825 -39.96855030110477 41.779346275079803 0 0 -1 I I #
coedge $-1 $272 $272 $-1 $398 reversed $164 $-1 #
edge $-1 $399 0 $399 6.2831853071796004 $165 $400 forward 7 unknown #
vertex $-1 $168 $401 #
ellipse-curve $-1 -28.914258122525645 -37.898160287030464 7.7546561574710289 0 -0.73135370988377701 0.68199835119979291 1.5 0 0 1 I I #
coedge $-1 $276 $276 $-1 $402 reversed $171 $-1 #
edge $-1 $403 0 $403 6.2831853071796004 $172 $404 forward 7 unknown #
vertex $-1 $175 $405 #
ellipse-curve $-1 -21.111600752774386 -37.898160287030464 7.7546561574710289 0 -0.73135370988377701 0.68199835119979291 1.5 0 0 1 I I #
face $-1 $-1 $406 $38 $-1 $407 forward single #
loop $-1 $-1 $182 $176 #
plane-surface $-1 0 -39.96855030110477 0 0 1 0 0 0 1 forward_v I I I I #
coedge $-1 $408 $409 $410 $411 reversed $177 $-1 #
coedge $-1 $412 $179 $181 $290 forward $111 $-1 #
coedge $-1 $179 $412 $408 $413 forward $111 $-1 #
coedge $-1 $410 $182 $179 $287 forward $281 $-1 #
edge $-1 $293 9.7620590166242849 $414 27.968259546043885 $286 $415 forward 7 unknown #
coedge $-1 $416 $417 $180 $289 forward $406 $-1 #
edge $-1 $418 -25.991892299629257 $292 -21.851112271480645 $288 $419 forward 7 unknown #
edge $-1 $293 0 $418 6.0715396464874463 $181 $420 forward 7 unknown #
coedge $-1 $182 $410 $416 $421 reversed $281 $-1 #
vertex $-1 $421 $422 #
vertex $-1 $183 $423 #
straight-curve $-1 28.627218297958368 -39.96855030110477 41.779346275079803 0 0 -1 I I #
coedge $-1 $295 $295 $-1 $424 reversed $186 $-1 #
edge $-1 $425 0 $425 6.2831853071796004 $187 $426 forward 7 unknown #
vertex $-1 $190 $427 #
ellipse-curve $-1 33.828989877792559 -37.898160287030464 7.7546561574710289 0 -0.73135370988377701 0.68199835119979291 1.5 0 0 1 I I #
coedge $-1 $299 $299 $-1 $428 reversed $193 $-1 #
edge $-1 $429 0 $429 6.2831853071796004 $194 $430 forward 7 unknown #
vertex $-1 $197 $431 #
ellipse-curve $-1 41.631647247543803 -37.898160287030464 7.7546561574710289 0 -0.73135370988377701 0.68199835119979291 1.5 0 0 1 I I #
face $-1 $-1 $315 $41 $-1 $432 forward single #
loop $-1 $-1 $433 $198 #
plane-surface $-1 0 39.96855030110477 0 0 -1 0 0 0 -1 forward_v I I I I #
coedge $-1 $434 $435 $436 $437 reversed $199 $-1 #
coedge $-1 $438 $201 $203 $313 forward $125 $-1 #
coedge $-1 $201 $438 $434 $439 forward $125 $-1 #
coedge $-1 $436 $204 $201 $310 forward $315 $-1 #
edge $-1 $317 -10.584446636602614 $440 0.73383549458857544 $309 $441 forward 7 unknown #
coedge $-1 $442 $443 $202 $312 forward $304 $-1 #
edge $-1 $444 -66.901944899527706 $316 -60.948472570332413 $311 $445 forward 7 unknown #
edge $-1 $317 71.366740677918472 $444 79.937100602209512 $203 $446 forward 7 unknown #
coedge $-1 $204 $436 $442 $447 forward $315 $-1 #
loop $-1 $-1 $436 $303 #
vertex $-1 $312 $448 #
vertex $-1 $205 $449 #
straight-curve $-1 -15.509752207609633 30.969622843753676 9.9748776800535381 0 -1 0 I I #
coedge $-1 $319 $319 $-1 $450 reversed $208 $-1 #
edge $-1 $451 0 $451 6.2831853071796004 $209 $452 forward 7 unknown #
vertex $-1 $212 $453 #
ellipse-curve $-1 -12.275957312983586 36.886049836490045 6.9981415154558873 0 0.69465837861970381 0.71933979245794832 1.5 0 0 1 I I #
coedge $-1 $323 $323 $-1 $454 reversed $215 $-1 #
edge $-1 $455 0 $455 6.2831853071796004 $216 $456 forward 7 unknown #
vertex $-1 $219 $457 #
ellipse-curve $-1 -7.4252649710445056 36.886049836490045 6.9981415154558873 0 0.69465837861970381 0.71933979245794832 1.5 0 0 1 I I #
face $-1 $-1 $235 $33 $-1 $458 reversed single #
loop $-1 $-1 $343 $220 #
plane-surface $-1 0 39.96855030110477 0 0 -1 0 0 0 -1 forward_v I I I I #
coedge $-1 $459 $341 $344 $460 forward $221 $-1 #
coedge $-1 $347 $223 $224 $335 reversed $139 $-1 #
coedge $-1 $341 $459 $223 $333 reversed $221 $-1 #
edge $-1 $348 -9.9748776800535417 $461 9.9748776800535417 $332 $462 forward 7 unknown #
coedge $-1 $225 $224 $459 $463 forward $89 $-1 #
edge $-1 $339 -57.202673421430099 $461 57.202673421430099 $331 $464 forward 7 unknown #
coedge $-1 $344 $343 $225 $337 reversed $328 $-1 #
edge $-1 $465 -57.202673421430099 $338 57.202673421430099 $336 $466 forward 7 unknown #
vertex $-1 $227 $467 #
vertex $-1 $350 $468 #
straight-curve $-1 57.202673421430099 0 -9.9748776800535417 0 -1 0 I I #
coedge $-1 $330 $332 $228 $342 reversed $221 $-1 #
edge $-1 $345 -39.96855030110477 $348 39.96855030110477 $341 $469 forward 7 unknown #
coedge $-1 $336 $229 $234 $351 forward $328 $-1 #
coedge $-1 $229 $336 $330 $460 reversed $328 $-1 #
vertex $-1 $230 $470 #
straight-curve $-1 0 39.96855030110477 9.9748776800535417 -1 0 0 I I #
coedge $-1 $231 $331 $233 $350 reversed $139 $-1 #
vertex $-1 $342 $471 #
straight-curve $-1 0 -39.96855030110477 9.9748776800535417 1 0 0 I I #
edge $-1 $236 -9.9748776800535417 $339 9.9748776800535417 $233 $472 forward 7 unknown #
edge $-1 $237 -9.9748776800535417 $338 9.9748776800535417 $234 $473 forward 7 unknown #
point $-1 57.202673421430099 -39.96855030110477 9.9748776800535417 #
point $-1 57.202673421430099 39.96855030110477 9.9748776800535417 #
face $-1 $-1 $371 $34 $-1 $474 reversed single #
loop $-1 $-1 $475 $239 #
plane-surface $-1 -57.202673421430099 0 0 1 0 0 0 0 -1 forward_v I I I I #
coedge $-1 $358 $374 $243 $361 forward $240 $-1 #
coedge $-1 $250 $357 $242 $359 forward $240 $-1 #
edge $-1 $365 1.1649037805240532 $253 4.1649037805240532 $358 $476 forward 7 unknown #
coedge $-1 $244 $243 $475 $477 reversed $93 $-1 #
edge $-1 $478 -31.780683991969592 $365 -19.06329486695142 $357 $479 forward 7 unknown #
coedge $-1 $370 $369 $244 $363 forward $371 $-1 #
edge $-1 $364 19.06329486695142 $480 31.780683991969592 $362 $481 forward 7 unknown #
vertex $-1 $363 $482 #
vertex $-1 $361 $483 #
straight-curve $-1 -44.485284296411926 0 3.8298075610481064 0 -1 0 I I #
coedge $-1 $484 $485 $247 $368 forward $355 $-1 #
edge $-1 $375 -39.96855030110477 $372 39.96855030110477 $367 $486 forward 7 unknown #
coedge $-1 $362 $248 $252 $377 forward $371 $-1 #
coedge $-1 $248 $362 $484 $487 reversed $371 $-1 #
loop $-1 $-1 $362 $354 #
vertex $-1 $487 $488 #
straight-curve $-1 -25.421989429460506 39.96855030110477 6.8298075610481064 1 0 0 I I #
coedge $-1 $357 $250 $485 $489 forward $240 $-1 #
vertex $-1 $489 $490 #
straight-curve $-1 -25.421989429460506 -39.96855030110477 6.8298075610481064 -1 0 0 I I #
edge $-1 $254 -4.1649037805240532 $364 -1.1649037805240532 $369 $491 forward 7 unknown #
point $-1 -44.485284296411926 -39.96855030110477 6.8298075610481064 #
point $-1 -44.485284296411926 39.96855030110477 6.8298075610481064 #
plane-surface $-1 0 -39.96855030110477 0 0 1 0 0 0 1 forward_v I I I I #
coedge $-1 $391 $390 $383 $492 forward $257 $-1 #
coedge $-1 $383 $259 $261 $387 reversed $155 $-1 #
coedge $-1 $259 $382 $381 $492 reversed $155 $-1 #
coedge $-1 $267 $262 $259 $385 forward $268 $-1 #
edge $-1 $388 -36.24491164019129 $493 -31.804468595026261 $384 $494 forward 7 unknown #
coedge $-1 $261 $260 $391 $495 reversed $97 $-1 #
edge $-1 $496 -6.0715396464874463 $388 0 $382 $497 forward 7 unknown #
vertex $-1 $263 $498 #
straight-curve $-1 -12.506464718825011 -39.96855030110477 5.5344346348885098 1 0 0 I I #
coedge $-1 $381 $264 $267 $395 forward $257 $-1 #
coedge $-1 $264 $381 $386 $495 forward $257 $-1 #
vertex $-1 $265 $499 #
straight-curve $-1 -34.116029702359825 -61.819662572585415 9.9748776800535381 0 -1 0 I I #
straight-curve $-1 -34.116029702359825 -39.96855030110477 5.5344346348885125 0 0.68199835119979291 0.73135370988377701 I I #
edge $-1 $269 -34.116029702359825 $493 -15.909829172940224 $267 $500 forward 7 unknown #
point $-1 -34.116029702359825 -39.96855030110477 9.9748776800535417 #
point $-1 -34.116029702359825 -39.96855030110477 5.5344346348885125 #
edge $-1 $501 1 $501 0 $272 $-1 forward 7 unknown #
vertex $-1 $273 $502 #
ellipse-curve $-1 -28.914258122525645 -35.156035851425088 5.1975838153279668 0 -0.73135370988377701 0.68199835119979291 1.5 0 0 1 I I #
point $-1 -27.414258122525645 -37.898160287030464 7.7546561574710307 #
edge $-1 $503 1 $503 0 $276 $-1 forward 7 unknown #
vertex $-1 $277 $504 #
ellipse-curve $-1 -21.111600752774386 -35.156035851425088 5.1975838153279668 0 -0.73135370988377701 0.68199835119979291 1.5 0 0 1 I I #
point $-1 -19.611600752774386 -37.898160287030464 7.7546561574710307 #
loop $-1 $-1 $288 $280 #
plane-surface $-1 0 0 9.9748776800535417 0 0 1 1 0 0 forward_v I I I I #
coedge $-1 $409 $283 $285 $413 reversed $177 $-1 #
coedge $-1 $283 $408 $505 $506 reversed $177 $-1 #
coedge $-1 $291 $286 $283 $411 forward $281 $-1 #
edge $-1 $414 -36.24491164019129 $507 -31.804468595026261 $410 $508 forward 7 unknown #
coedge $-1 $285 $284 $417 $509 reversed $111 $-1 #
edge $-1 $510 -6.0715396464874463 $414 0 $408 $511 forward 7 unknown #
vertex $-1 $287 $512 #
straight-curve $-1 18.865159281334083 -39.96855030110477 5.5344346348885098 1 0 0 I I #
coedge $-1 $505 $288 $291 $421 forward $406 $-1 #
coedge $-1 $288 $505 $412 $509 forward $406 $-1 #
vertex $-1 $289 $513 #
straight-curve $-1 28.627218297958368 -61.819662572585415 9.9748776800535381 0 -1 0 I I #
straight-curve $-1 28.627218297958368 -39.96855030110477 5.5344346348885125 0 0.68199835119979291 0.73135370988377701 I I #
edge $-1 $292 28.627218297958368 $507 46.833418827377969 $291 $514 forward 7 unknown #
point $-1 28.627218297958368 -39.96855030110477 9.9748776800535417 #
point $-1 28.627218297958368 -39.96855030110477 5.5344346348885125 #
edge $-1 $515 1 $515 0 $295 $-1 forward 7 unknown #
vertex $-1 $296 $516 #
ellipse-curve $-1 33.828989877792559 -35.156035851425088 5.1975838153279668 0 -0.73135370988377701 0.68199835119979291 1.5 0 0 1 I I #
point $-1 35.328989877792559 -37.898160287030464 7.7546561574710307 #
edge $-1 $517 1 $517 0 $299 $-1 forward 7 unknown #
vertex $-1 $300 $518 #
ellipse-curve $-1 41.631647247543803 -35.156035851425088 5.1975838153279668 0 -0.73135370988377701 0.68199835119979291 1.5 0 0 1 I I #
point $-1 43.131647247543803 -37.898160287030464 7.7546561574710307 #
plane-surface $-1 0 0 9.9748776800535417 0 0 1 1 0 0 forward_v I I I I #
coedge $-1 $443 $442 $435 $519 forward $304 $-1 #
coedge $-1 $435 $306 $308 $439 reversed $199 $-1 #
coedge $-1 $306 $434 $433 $519 reversed $199 $-1 #
coedge $-1 $314 $309 $306 $437 forward $315 $-1 #
edge $-1 $440 2.8339265281216584 $520 8.998927457351094 $436 $521 forward 7 unknown #
coedge $-1 $308 $307 $443 $522 reversed $125 $-1 #
edge $-1 $523 -79.937100602209512 $440 -71.366740677918472 $434 $524 forward 7 unknown #
vertex $-1 $310 $525 #
straight-curve $-1 -4.9253055710070193 33.803549371875334 9.9748776800535381 1 0 0 I I #
coedge $-1 $433 $311 $314 $447 reversed $304 $-1 #
coedge $-1 $311 $433 $438 $522 forward $304 $-1 #
vertex $-1 $312 $526 #
straight-curve $-1 -15.509752207609633 39.96855030110477 70.923350250385951 0 0 1 I I #
straight-curve $-1 -15.509752207609633 -17.533387055778761 59.550382046749249 0 0.71933979245794832 -0.69465837861970381 I I #
edge $-1 $520 4.1914700764184438 $316 15.509752207609633 $442 $527 forward 7 unknown #
point $-1 -15.509752207609633 39.96855030110477 9.9748776800535417 #
point $-1 -15.509752207609633 33.803549371875334 9.9748776800535452 #
edge $-1 $528 1 $528 0 $319 $-1 forward 7 unknown #
vertex $-1 $320 $529 #
ellipse-curve $-1 -12.275957312983586 33.291642695823718 3.2760240456948426 0 0.69465837861970381 0.71933979245794832 1.5 0 0 1 I I #
point $-1 -10.775957312983586 36.886049836490045 6.998141515455889 #
edge $-1 $530 1 $530 0 $323 $-1 forward 7 unknown #
vertex $-1 $324 $531 #
ellipse-curve $-1 -7.4252649710445056 33.291642695823718 3.2760240456948426 0 0.69465837861970381 0.71933979245794832 1.5 0 0 1 I I #
point $-1 -5.9252649710445056 36.886049836490045 6.998141515455889 #
plane-surface $-1 57.202673421430099 0 0 -1 0 0 0 0 1 forward_v I I I I #
coedge $-1 $332 $330 $334 $463 reversed $221 $-1 #
edge $-1 $345 -9.9748776800535417 $465 9.9748776800535417 $344 $532 forward 7 unknown #
vertex $-1 $463 $533 #
straight-curve $-1 -57.202673421430099 -39.96855030110477 0 0 0 -1 I I #
edge $-1 $461 -39.96855030110477 $465 39.96855030110477 $459 $534 forward 7 unknown #
straight-curve $-1 0 -39.96855030110477 -9.9748776800535417 -1 0 0 I I #
vertex $-1 $337 $535 #
straight-curve $-1 0 39.96855030110477 -9.9748776800535417 1 0 0 I I #
point $-1 57.202673421430099 39.96855030110477 -9.9748776800535417 #
point $-1 57.202673421430099 -39.96855030110477 -9.9748776800535417 #
straight-curve $-1 -57.202673421430099 0 9.9748776800535417 0 -1 0 I I #
point $-1 -57.202673421430099 39.96855030110477 9.9748776800535417 #
point $-1 -57.202673421430099 -39.96855030110477 9.9748776800535417 #
straight-curve $-1 57.202673421430099 -39.96855030110477 0 0 0 -1 I I #
straight-curve $-1 57.202673421430099 39.96855030110477 0 0 0 -1 I I #
plane-surface $-1 0 39.96855030110477 0 0 -1 0 0 0 -1 forward_v I I I I #
coedge $-1 $485 $484 $360 $477 forward $355 $-1 #
straight-curve $-1 -44.485284296411926 -39.96855030110477 2.6649037805240532 0 0 1 I I #
edge $-1 $480 -39.96855030110477 $478 39.96855030110477 $475 $536 forward 7 unknown #
vertex $-1 $361 $537 #
straight-curve $-1 -25.421989429460506 -39.96855030110477 3.8298075610481064 1 0 0 I I #
vertex $-1 $363 $538 #
straight-curve $-1 -25.421989429460506 39.96855030110477 3.8298075610481064 -1 0 0 I I #
point $-1 -44.485284296411926 39.96855030110477 3.8298075610481064 #
point $-1 -44.485284296411926 -39.96855030110477 3.8298075610481064 #
coedge $-1 $475 $367 $370 $487 forward $355 $-1 #
coedge $-1 $367 $475 $374 $489 reversed $355 $-1 #
straight-curve $-1 -57.202673421430099 0 6.8298075610481064 0 1 0 I I #
edge $-1 $372 -6.8298075610481064 $480 -3.8298075610481064 $370 $539 forward 7 unknown #
point $-1 -57.202673421430099 39.96855030110477 6.8298075610481064 #
edge $-1 $375 -6.8298075610481064 $478 -3.8298075610481064 $485 $540 forward 7 unknown #
point $-1 -57.202673421430099 -39.96855030110477 6.8298075610481064 #
straight-curve $-1 -44.485284296411926 39.96855030110477 2.6649037805240532 0 0 -1 I I #
edge $-1 $493 21.851112271480645 $496 25.991892299629257 $381 $541 forward 7 unknown #
vertex $-1 $492 $542 #
straight-curve $-1 -15.909829172940224 -39.96855030110477 41.779346275079803 0 0 1 I I #
edge $-1 $496 3.4033644541152128 $392 21.609564983534813 $391 $543 forward 7 unknown #
vertex $-1 $495 $544 #
straight-curve $-1 -15.909829172940224 -39.96855030110477 5.5344346348885125 0 -0.68199835119979291 -0.73135370988377701 I I #
point $-1 -15.909829172940224 -39.96855030110477 5.5344346348885125 #
point $-1 -34.116029702359825 -35.827770272956158 9.9748776800535417 #
straight-curve $-1 0 -39.96855030110477 9.9748776800535417 1 0 0 I I #
vertex $-1 $398 $545 #
point $-1 -27.414258122525645 -35.156035851425088 5.1975838153279668 #
vertex $-1 $402 $546 #
point $-1 -19.611600752774386 -35.156035851425088 5.1975838153279668 #
coedge $-1 $417 $416 $409 $506 forward $406 $-1 #
edge $-1 $507 21.851112271480645 $510 25.991892299629257 $505 $547 forward 7 unknown #
vertex $-1 $506 $548 #
straight-curve $-1 46.833418827377969 -39.96855030110477 41.779346275079803 0 0 1 I I #
edge $-1 $510 -27.968259546043885 $418 -9.7620590166242849 $417 $549 forward 7 unknown #
vertex $-1 $509 $550 #
straight-curve $-1 46.833418827377969 -39.96855030110477 5.5344346348885125 0 -0.68199835119979291 -0.73135370988377701 I I #
point $-1 46.833418827377969 -39.96855030110477 5.5344346348885125 #
point $-1 28.627218297958368 -35.827770272956158 9.9748776800535417 #
straight-curve $-1 0 -39.96855030110477 9.9748776800535417 1 0 0 I I #
vertex $-1 $424 $551 #
point $-1 35.328989877792559 -35.156035851425088 5.1975838153279668 #
vertex $-1 $428 $552 #
point $-1 43.131647247543803 -35.156035851425088 5.1975838153279668 #
edge $-1 $520 60.948472570332413 $523 66.901944899527706 $433 $553 forward 7 unknown #
vertex $-1 $447 $554 #
straight-curve $-1 -4.1914700764184438 30.969622843753676 9.9748776800535381 0 1 0 I I #
edge $-1 $523 -0.73383549458857544 $444 10.584446636602614 $443 $555 forward 7 unknown #
vertex $-1 $522 $556 #
straight-curve $-1 -4.1914700764184438 -17.533387055778761 59.550382046749249 0 -0.71933979245794832 0.69465837861970381 I I #
point $-1 -4.1914700764184438 33.803549371875334 9.9748776800535452 #
point $-1 -15.509752207609633 39.968550301104763 4.0214053508582381 #
straight-curve $-1 0 39.96855030110477 9.9748776800535417 -1 0 0 I I #
vertex $-1 $450 $557 #
point $-1 -10.775957312983586 33.291642695823718 3.2760240456948426 #
vertex $-1 $454 $558 #
point $-1 -5.9252649710445056 33.291642695823718 3.2760240456948426 #
straight-curve $-1 -57.202673421430099 39.96855030110477 0 0 0 -1 I I #
point $-1 -57.202673421430099 -39.96855030110477 -9.9748776800535417 #
straight-curve $-1 -57.202673421430099 0 -9.9748776800535417 0 1 0 I I #
point $-1 -57.202673421430099 39.96855030110477 -9.9748776800535417 #
straight-curve $-1 -57.202673421430099 0 3.8298075610481064 0 -1 0 I I #
point $-1 -57.202673421430099 -39.96855030110477 3.8298075610481064 #
point $-1 -57.202673421430099 39.96855030110477 3.8298075610481064 #
straight-curve $-1 -57.202673421430099 39.96855030110477 0 0 0 -1 I I #
straight-curve $-1 -57.202673421430099 -39.96855030110477 0 0 0 -1 I I #
straight-curve $-1 -15.909829172940224 -61.819662572585415 9.9748776800535381 0 1 0 I I #
point $-1 -15.909829172940224 -39.96855030110477 9.9748776800535417 #
straight-curve $-1 -12.506464718825011 -35.827770272956158 9.9748776800535417 -1 0 0 I I #
point $-1 -15.909829172940224 -35.827770272956158 9.9748776800535417 #
point $-1 -28.914258122525645 -34.059005286599429 4.1745862885282783 #
point $-1 -21.111600752774386 -34.059005286599429 4.1745862885282783 #
straight-curve $-1 46.833418827377969 -61.819662572585415 9.9748776800535381 0 1 0 I I #
point $-1 46.833418827377969 -39.96855030110477 9.9748776800535417 #
straight-curve $-1 18.865159281334083 -35.827770272956158 9.9748776800535417 -1 0 0 I I #
point $-1 46.833418827377969 -35.827770272956158 9.9748776800535417 #
point $-1 33.828989877792559 -34.059005286599429 4.1745862885282783 #
point $-1 41.631647247543803 -34.059005286599429 4.1745862885282783 #
straight-curve $-1 -4.1914700764184438 39.96855030110477 70.923350250385951 0 0 -1 I I #
point $-1 -4.1914700764184438 39.96855030110477 9.9748776800535417 #
straight-curve $-1 -4.9253055710070193 39.96855030110477 4.0214053508582381 -1 0 0 I I #
point $-1 -4.1914700764184438 39.968550301104763 4.0214053508582381 #
point $-1 -12.275957312983586 32.249655127894165 2.1970143570079199 #
point $-1 -7.4252649710445056 32.249655127894165 2.1970143570079199 #
End-of-ACIS-data 