500 0 4 0           
7 Unknown 11 ACIS 5.0 NT 24 Fri Mar 26 02:58:16 1999 
-1 9.9999999999999995e-007 1e-010 
body $-1 $4 $-1 $5 #
body $-1 $6 $-1 $7 #
body $-1 $8 $-1 $9 #
body $-1 $10 $-1 $11 #
lump $-1 $-1 $12 $0 #
transform $-1 1 0 0 0 1 0 0 0 1 74.000061037018952 36.484218453295846 10.96352601704085 1 rotate no_reflect no_shear #
lump $-1 $-1 $13 $1 #
transform $-1 1 0 0 0 1 0 0 0 1 74.000061037018952 36.484218453295846 10.96352601704085 1 rotate no_reflect no_shear #
lump $-1 $-1 $14 $2 #
transform $-1 1 0 0 0 1 0 0 0 1 74.000061037018952 36.484218453295846 10.96352601704085 1 rotate no_reflect no_shear #
lump $-1 $-1 $15 $3 #
transform $-1 1 0 0 0 1 0 0 0 1 74.000061037018952 36.484218453295846 10.96352601704085 1 rotate no_reflect no_shear #
shell $-1 $-1 $-1 $16 $-1 $4 #
shell $-1 $-1 $-1 $17 $-1 $6 #
shell $-1 $-1 $-1 $18 $-1 $8 #
shell $-1 $-1 $-1 $19 $-1 $10 #
face $-1 $20 $21 $12 $-1 $22 forward single #
face $-1 $23 $24 $13 $-1 $25 reversed single #
face $-1 $26 $27 $14 $-1 $28 forward single #
face $-1 $29 $30 $15 $-1 $31 forward single #
face $-1 $32 $33 $12 $-1 $34 reversed single #
loop $-1 $-1 $35 $16 #
plane-surface $-1 0 0 10.96352601704085 0 0 1 1 0 0 forward_v I I I I #
face $-1 $36 $37 $13 $-1 $38 reversed single #
loop $-1 $-1 $39 $17 #
plane-surface $-1 -190.62574998812289 -21.902333578023374 91.680111766798902 0 -1 0 0.78801076186113728 0 -0.61566146476048833 forward_v I I I I #
face $-1 $40 $41 $14 $-1 $42 forward single #
loop $-1 $43 $44 $18 #
cone-surface $-1 -68.486781073194621 -32.317965631789427 4.6299271419323764 0.78801076186113728 0 -0.61566146476048833 0.61566146476048833 0 0.78801076186113728 1 I I 0 1 1 forward I I I I #
face $-1 $45 $46 $15 $-1 $47 forward single #
loop $-1 $48 $49 $19 #
cone-surface $-1 -68.486781073194621 -26.068586399529796 4.6299271419323764 0.78801076186113728 0 -0.61566146476048833 0.61566146476048833 0 0.78801076186113728 1 I I 0 1 1 forward I I I I #
face $-1 $50 $51 $12 $-1 $52 reversed single #
loop $-1 $-1 $53 $20 #
plane-surface $-1 0 0 -10.96352601704085 0 0 1 1 0 0 forward_v I I I I #
coedge $-1 $54 $55 $56 $57 forward $21 $-1 #
face $-1 $58 $59 $13 $-1 $60 forward single #
loop $-1 $-1 $61 $23 #
plane-surface $-1 -74.000061037018966 -29.19327601565961 0.56213982596564449 -0.78801076186113728 0 0.61566146476048833 0.61566146476048833 0 0.78801076186113728 forward_v I I I I #
coedge $-1 $62 $63 $64 $65 reversed $24 $-1 #
face $-1 $-1 $66 $14 $-1 $67 forward single #
loop $-1 $68 $69 $26 #
cone-surface $-1 -66.642722379565939 -32.317965631789427 3.1891906299812707 0.78801076186113728 0 -0.61566146476048833 0.30783073238024417 0 0.39400538093056864 1 I I -0.70710678118654746 0.70710678118654746 0.5 forward I I I I #
loop $-1 $-1 $70 $18 #
coedge $-1 $44 $44 $71 $72 reversed $27 $-1 #
face $-1 $-1 $73 $15 $-1 $74 forward single #
loop $-1 $75 $76 $29 #
cone-surface $-1 -66.642722379565939 -26.068586399529796 3.1891906299812707 0.78801076186113728 0 -0.61566146476048833 0.30783073238024417 0 0.39400538093056864 1 I I -0.70710678118654746 0.70710678118654746 0.5 forward I I I I #
loop $-1 $-1 $77 $19 #
coedge $-1 $49 $49 $78 $79 reversed $30 $-1 #
face $-1 $80 $81 $12 $-1 $82 reversed single #
loop $-1 $-1 $83 $32 #
plane-surface $-1 0 -36.484218453295846 0 0 1 0 0 0 1 forward_v I I I I #
coedge $-1 $84 $85 $86 $87 forward $33 $-1 #
coedge $-1 $88 $35 $89 $90 forward $21 $-1 #
coedge $-1 $35 $88 $91 $92 forward $21 $-1 #
coedge $-1 $93 $94 $35 $57 reversed $95 $-1 #
edge $-1 $96 -36.484218453295846 $97 36.484218453295846 $56 $98 forward 7 unknown #
face $-1 $99 $100 $13 $-1 $101 reversed single #
loop $-1 $-1 $102 $36 #
plane-surface $-1 0 0 10.96352601704085 0 0 1 1 0 0 forward_v I I I I #
coedge $-1 $103 $104 $105 $106 reversed $37 $-1 #
coedge $-1 $63 $39 $107 $108 reversed $24 $-1 #
coedge $-1 $39 $62 $103 $109 reversed $24 $-1 #
coedge $-1 $105 $110 $39 $65 forward $100 $-1 #
edge $-1 $111 34.876529866358602 $112 45.277916057433785 $64 $113 forward 7 unknown #
loop $-1 $-1 $71 $40 #
plane-surface $-1 -74.000061037018966 -29.19327601565961 0.56213982596564449 -0.78801076186113728 0 0.61566146476048833 0.61566146476048833 0 0.78801076186113728 forward_v I I I I #
loop $-1 $-1 $114 $26 #
coedge $-1 $69 $69 $70 $115 reversed $41 $-1 #
coedge $-1 $70 $70 $69 $115 forward $43 $-1 #
coedge $-1 $71 $71 $44 $72 forward $66 $-1 #
edge $-1 $116 0 $116 6.2831853071796004 $71 $117 forward 7 unknown #
loop $-1 $-1 $78 $45 #
plane-surface $-1 -74.000061037018966 -29.19327601565961 0.56213982596564449 -0.78801076186113728 0 0.61566146476048833 0.61566146476048833 0 0.78801076186113728 forward_v I I I I #
loop $-1 $-1 $118 $29 #
coedge $-1 $76 $76 $77 $119 reversed $46 $-1 #
coedge $-1 $77 $77 $76 $119 forward $48 $-1 #
coedge $-1 $78 $78 $49 $79 forward $73 $-1 #
edge $-1 $120 0 $120 6.2831853071796004 $78 $121 forward 7 unknown #
face $-1 $122 $123 $12 $-1 $124 reversed single #
loop $-1 $-1 $125 $50 #
plane-surface $-1 -74.000061037018952 0 0 1 0 0 0 0 -1 forward_v I I I I #
coedge $-1 $126 $91 $127 $128 forward $51 $-1 #
coedge $-1 $129 $53 $126 $130 forward $33 $-1 #
coedge $-1 $53 $129 $131 $132 forward $33 $-1 #
coedge $-1 $94 $93 $53 $87 reversed $95 $-1 #
edge $-1 $133 -36.484218453295846 $134 36.484218453295846 $86 $135 forward 7 unknown #
coedge $-1 $55 $54 $136 $137 forward $21 $-1 #
coedge $-1 $138 $139 $54 $90 reversed $123 $-1 #
edge $-1 $97 -74.000061037018952 $140 74.000061037018952 $89 $141 forward 7 unknown #
coedge $-1 $83 $142 $55 $92 reversed $51 $-1 #
edge $-1 $143 -74.000061037018952 $96 74.000061037018952 $91 $144 forward 7 unknown #
coedge $-1 $86 $56 $142 $145 forward $95 $-1 #
coedge $-1 $56 $86 $138 $146 reversed $95 $-1 #
loop $-1 $-1 $93 $122 #
vertex $-1 $57 $147 #
vertex $-1 $57 $148 #
straight-curve $-1 74.000061037018952 0 10.96352601704085 0 1 0 I I #
face $-1 $-1 $149 $13 $-1 $150 reversed single #
loop $-1 $-1 $64 $58 #
plane-surface $-1 -74.000061037018952 0 0 1 0 0 0 0 -1 forward_v I I I I #
coedge $-1 $107 $151 $152 $153 forward $59 $-1 #
coedge $-1 $152 $61 $63 $109 forward $37 $-1 #
coedge $-1 $61 $152 $154 $155 reversed $37 $-1 #
coedge $-1 $156 $64 $61 $106 forward $100 $-1 #
edge $-1 $112 7.3056955701935689 $157 21.887580445466043 $105 $158 forward 7 unknown #
coedge $-1 $159 $102 $62 $108 forward $59 $-1 #
edge $-1 $160 -29.439267259294894 $111 -21.312813957042493 $107 $161 forward 7 unknown #
edge $-1 $112 2.3096905769578348e-014 $160 13.199548400213516 $63 $162 forward 7 unknown #
coedge $-1 $64 $156 $159 $163 reversed $100 $-1 #
vertex $-1 $163 $164 #
vertex $-1 $65 $165 #
straight-curve $-1 -74.000061037018952 -21.902333578023374 45.840055883399451 0 0 -1 I I #
coedge $-1 $114 $114 $-1 $166 reversed $68 $-1 #
edge $-1 $167 0 $167 6.2831853071796004 $69 $168 forward 7 unknown #
vertex $-1 $72 $169 #
ellipse-curve $-1 -69.936834385892752 -32.317965631789427 5.7628329215032537 -0.78801076186113728 0 0.61566146476048833 0.61566146476048833 0 0.78801076186113728 1 I I #
coedge $-1 $118 $118 $-1 $170 reversed $75 $-1 #
edge $-1 $171 0 $171 6.2831853071796004 $76 $172 forward 7 unknown #
vertex $-1 $79 $173 #
ellipse-curve $-1 -69.936834385892752 -26.068586399529796 5.7628329215032537 -0.78801076186113728 0 0.61566146476048833 0.61566146476048833 0 0.78801076186113728 1 I I #
face $-1 $-1 $95 $12 $-1 $174 reversed single #
loop $-1 $-1 $138 $80 #
plane-surface $-1 0 36.484218453295846 0 0 -1 0 0 0 -1 forward_v I I I I #
coedge $-1 $175 $136 $139 $176 forward $81 $-1 #
coedge $-1 $142 $83 $84 $130 reversed $51 $-1 #
coedge $-1 $136 $175 $83 $128 reversed $81 $-1 #
edge $-1 $143 -10.96352601704085 $177 10.96352601704085 $127 $178 forward 7 unknown #
coedge $-1 $85 $84 $175 $179 forward $33 $-1 #
edge $-1 $134 -74.000061037018952 $177 74.000061037018952 $126 $180 forward 7 unknown #
coedge $-1 $139 $138 $85 $132 reversed $123 $-1 #
edge $-1 $181 -74.000061037018952 $133 74.000061037018952 $131 $182 forward 7 unknown #
vertex $-1 $87 $183 #
vertex $-1 $145 $184 #
straight-curve $-1 74.000061037018952 0 -10.96352601704085 0 -1 0 I I #
coedge $-1 $125 $127 $88 $137 reversed $81 $-1 #
edge $-1 $140 -36.484218453295846 $143 36.484218453295846 $136 $185 forward 7 unknown #
coedge $-1 $131 $89 $94 $146 forward $123 $-1 #
coedge $-1 $89 $131 $125 $176 reversed $123 $-1 #
vertex $-1 $90 $186 #
straight-curve $-1 0 36.484218453295846 10.96352601704085 -1 0 0 I I #
coedge $-1 $91 $126 $93 $145 reversed $51 $-1 #
vertex $-1 $137 $187 #
straight-curve $-1 0 -36.484218453295846 10.96352601704085 1 0 0 I I #
edge $-1 $96 -10.96352601704085 $134 10.96352601704085 $93 $188 forward 7 unknown #
edge $-1 $97 -10.96352601704085 $133 10.96352601704085 $94 $189 forward 7 unknown #
point $-1 74.000061037018952 -36.484218453295846 10.96352601704085 #
point $-1 74.000061037018952 36.484218453295846 10.96352601704085 #
loop $-1 $-1 $154 $99 #
plane-surface $-1 0 -36.484218453295846 0 0 1 0 0 0 1 forward_v I I I I #
coedge $-1 $102 $159 $190 $191 forward $59 $-1 #
coedge $-1 $104 $103 $102 $153 reversed $37 $-1 #
edge $-1 $192 -21.887580445466043 $160 -7.3056955701935689 $102 $193 forward 7 unknown #
coedge $-1 $190 $194 $104 $155 forward $149 $-1 #
edge $-1 $157 -22.558006868942456 $192 -9.358458468728962 $154 $195 forward 7 unknown #
coedge $-1 $110 $105 $194 $196 reversed $100 $-1 #
vertex $-1 $106 $197 #
straight-curve $-1 -74.000061037018952 -14.596638007829805 0.56213982596565704 0 -1 0 I I #
coedge $-1 $151 $107 $110 $163 forward $59 $-1 #
vertex $-1 $108 $198 #
straight-curve $-1 -95.312874994061445 -21.902333578023374 10.963526017040849 -1 0 0 I I #
straight-curve $-1 -74.000061037018966 -21.902333578023374 0.56213982596564449 0.61566146476048833 0 0.78801076186113728 I I #
edge $-1 $111 21.902333578023374 $199 36.484218453295846 $110 $200 forward 7 unknown #
point $-1 -74.000061037018952 -21.902333578023374 10.96352601704085 #
point $-1 -74.000061037018952 -21.902333578023374 0.5621398259656627 #
edge $-1 $201 1 $201 0 $114 $-1 forward 7 unknown #
vertex $-1 $115 $202 #
ellipse-curve $-1 -67.036727760496504 -32.317965631789427 3.4970213623615147 -0.78801076186113728 0 0.61566146476048833 0.61566146476048833 0 0.78801076186113728 1 I I #
point $-1 -69.321172921132245 -32.317965631789427 6.5508436833643753 #
edge $-1 $203 1 $203 0 $118 $-1 forward 7 unknown #
vertex $-1 $119 $204 #
ellipse-curve $-1 -67.036727760496504 -26.068586399529796 3.4970213623615147 -0.78801076186113728 0 0.61566146476048833 0.61566146476048833 0 0.78801076186113728 1 I I #
point $-1 -69.321172921132245 -26.068586399529796 6.5508436833643753 #
plane-surface $-1 74.000061037018952 0 0 -1 0 0 0 0 1 forward_v I I I I #
coedge $-1 $127 $125 $129 $179 reversed $81 $-1 #
edge $-1 $140 -10.96352601704085 $181 10.96352601704085 $139 $205 forward 7 unknown #
vertex $-1 $179 $206 #
straight-curve $-1 -74.000061037018952 -36.484218453295846 0 0 0 -1 I I #
edge $-1 $177 -36.484218453295846 $181 36.484218453295846 $175 $207 forward 7 unknown #
straight-curve $-1 0 -36.484218453295846 -10.96352601704085 -1 0 0 I I #
vertex $-1 $132 $208 #
straight-curve $-1 0 36.484218453295846 -10.96352601704085 1 0 0 I I #
point $-1 74.000061037018952 36.484218453295846 -10.96352601704085 #
point $-1 74.000061037018952 -36.484218453295846 -10.96352601704085 #
straight-curve $-1 -74.000061037018952 0 10.96352601704085 0 -1 0 I I #
point $-1 -74.000061037018952 36.484218453295846 10.96352601704085 #
point $-1 -74.000061037018952 -36.484218453295846 10.96352601704085 #
straight-curve $-1 74.000061037018952 -36.484218453295846 0 0 0 -1 I I #
straight-curve $-1 74.000061037018952 36.484218453295846 0 0 0 -1 I I #
coedge $-1 $194 $154 $151 $191 reversed $149 $-1 #
edge $-1 $199 -74.000061037018952 $192 -65.873607734766551 $190 $209 forward 7 unknown #
vertex $-1 $155 $210 #
straight-curve $-1 -65.873607734766551 -14.596638007829805 10.96352601704085 0 1 0 I I #
coedge $-1 $154 $190 $156 $196 forward $149 $-1 #
straight-curve $-1 -60.111965486008685 -36.484218453295846 18.338092004829775 0.61566146476048833 0 0.78801076186113728 I I #
edge $-1 $199 -10.96352601704085 $157 -0.5621398259656627 $156 $211 forward 7 unknown #
point $-1 -74.000061037018952 -36.484218453295846 0.5621398259656627 #
point $-1 -65.873607734766551 -21.902333578023374 10.96352601704085 #
vertex $-1 $163 $212 #
straight-curve $-1 -74.000061037018952 0 10.96352601704085 0 -1 0 I I #
vertex $-1 $166 $213 #
point $-1 -66.421066295736026 -32.317965631789427 4.2850321242226519 #
vertex $-1 $170 $214 #
point $-1 -66.421066295736026 -26.068586399529796 4.2850321242226519 #
straight-curve $-1 -74.000061037018952 36.484218453295846 0 0 0 -1 I I #
point $-1 -74.000061037018952 -36.484218453295846 -10.96352601704085 #
straight-curve $-1 -74.000061037018952 0 -10.96352601704085 0 1 0 I I #
point $-1 -74.000061037018952 36.484218453295846 -10.96352601704085 #
straight-curve $-1 0 -36.484218453295846 10.96352601704085 1 0 0 I I #
point $-1 -65.873607734766551 -36.484218453295846 10.96352601704085 #
straight-curve $-1 -74.000061037018952 -36.484218453295846 0 0 0 -1 I I #
point $-1 -74.000061037018952 -36.484218453295846 10.96352601704085 #
point $-1 -66.248716998635373 -32.317965631789427 2.8813598976010266 #
point $-1 -66.248716998635373 -26.068586399529796 2.8813598976010266 #
End-of-ACIS-data 