500 0 10 0           
7 Unknown 11 ACIS 5.0 NT 24 Thu Mar 25 17:17:00 1999 
-1 9.9999999999999995e-007 1e-010 
body $-1 $10 $-1 $11 #
body $-1 $12 $-1 $13 #
body $-1 $14 $-1 $15 #
body $-1 $16 $-1 $17 #
body $-1 $18 $-1 $19 #
body $-1 $20 $-1 $21 #
body $-1 $22 $-1 $23 #
body $-1 $24 $-1 $25 #
body $-1 $26 $-1 $27 #
body $-1 $28 $-1 $29 #
lump $-1 $-1 $30 $0 #
transform $-1 1 0 0 0 1 0 0 0 1 59.899288918729212 34.936163832896199 8.3626303111953497 1 rotate no_reflect no_shear #
lump $-1 $-1 $31 $1 #
transform $-1 1 0 0 0 1 0 0 0 1 59.899288918729212 34.936163832896199 8.3626303111953497 1 rotate no_reflect no_shear #
lump $-1 $-1 $32 $2 #
transform $-1 1 0 0 0 1 0 0 0 1 59.899288918729212 34.936163832896199 8.3626303111953497 1 rotate no_reflect no_shear #
lump $-1 $-1 $33 $3 #
transform $-1 1 0 0 0 1 0 0 0 1 59.899288918729212 34.936163832896199 8.3626303111953497 1 rotate no_reflect no_shear #
lump $-1 $-1 $34 $4 #
transform $-1 1 0 0 0 1 0 0 0 1 59.899288918729212 34.936163832896199 8.3626303111953497 1 rotate no_reflect no_shear #
lump $-1 $-1 $35 $5 #
transform $-1 1 0 0 0 1 0 0 0 1 59.899288918729212 34.936163832896199 8.3626303111953497 1 rotate no_reflect no_shear #
lump $-1 $-1 $36 $6 #
transform $-1 1 0 0 0 1 0 0 0 1 59.899288918729212 34.936163832896199 8.3626303111953497 1 rotate no_reflect no_shear #
lump $-1 $-1 $37 $7 #
transform $-1 1 0 0 0 1 0 0 0 1 59.899288918729212 34.936163832896199 8.3626303111953497 1 rotate no_reflect no_shear #
lump $-1 $-1 $38 $8 #
transform $-1 1 0 0 0 1 0 0 0 1 59.899288918729212 34.936163832896199 8.3626303111953497 1 rotate no_reflect no_shear #
lump $-1 $-1 $39 $9 #
transform $-1 1 0 0 0 1 0 0 0 1 59.899288918729212 34.936163832896199 8.3626303111953497 1 rotate no_reflect no_shear #
shell $-1 $-1 $-1 $40 $-1 $10 #
shell $-1 $-1 $-1 $41 $-1 $12 #
shell $-1 $-1 $-1 $42 $-1 $14 #
shell $-1 $-1 $-1 $43 $-1 $16 #
shell $-1 $-1 $-1 $44 $-1 $18 #
shell $-1 $-1 $-1 $45 $-1 $20 #
shell $-1 $-1 $-1 $46 $-1 $22 #
shell $-1 $-1 $-1 $47 $-1 $24 #
shell $-1 $-1 $-1 $48 $-1 $26 #
shell $-1 $-1 $-1 $49 $-1 $28 #
face $-1 $50 $51 $30 $-1 $52 forward single #
face $-1 $53 $54 $31 $-1 $55 forward single #
face $-1 $56 $57 $32 $-1 $58 reversed single #
face $-1 $59 $60 $33 $-1 $61 forward single #
face $-1 $62 $63 $34 $-1 $64 forward single #
face $-1 $65 $66 $35 $-1 $67 forward single #
face $-1 $68 $69 $36 $-1 $70 reversed single #
face $-1 $71 $72 $37 $-1 $73 forward single #
face $-1 $74 $75 $38 $-1 $76 forward single #
face $-1 $77 $78 $39 $-1 $79 forward single #
face $-1 $80 $81 $30 $-1 $82 reversed single #
loop $-1 $-1 $83 $40 #
plane-surface $-1 0 0 8.3626303111953497 0 0 1 1 0 0 forward_v I I I I #
face $-1 $84 $85 $31 $-1 $86 reversed single #
loop $-1 $-1 $87 $41 #
plane-surface $-1 0 -30.500667285702253 -5.3626303111953497 0 0 1 1 0 0 forward_v I I I I #
face $-1 $88 $89 $32 $-1 $90 reversed single #
loop $-1 $-1 $91 $42 #
plane-surface $-1 -144.60967666695714 -2.6939541463285224 85.908536864647928 0 1 0 -0.70710678939079041 0 0.70710677298230451 forward_v I I I I #
face $-1 $92 $93 $33 $-1 $94 forward single #
loop $-1 $95 $96 $43 #
cone-surface $-1 -55.821398106602196 -1.2680640076240266 4.2847394274437329 0.70710678939079041 0 -0.70710677298230451 0.35355338649115226 0 0.35355339469539521 1 I I 0 1 0.5 forward I I I I #
face $-1 $97 $98 $34 $-1 $99 forward single #
loop $-1 $100 $101 $44 #
cone-surface $-1 -55.821398106602196 0.8707712004327135 4.2847394274437329 0.70710678939079041 0 -0.70710677298230451 0.35355338649115226 0 0.35355339469539521 1 I I 0 1 0.5 forward I I I I #
face $-1 $102 $103 $35 $-1 $104 forward single #
loop $-1 $105 $106 $45 #
cone-surface $-1 -55.821398106602196 3.0096064084894536 4.2847394274437329 0.70710678939079041 0 -0.70710677298230451 0.35355338649115226 0 0.35355339469539521 1 I I 0 1 0.5 forward I I I I #
face $-1 $107 $108 $36 $-1 $109 reversed single #
loop $-1 $-1 $110 $46 #
plane-surface $-1 -144.60967666695714 27.806713139373727 85.908536864647928 0 1 0 -0.70710678939079041 0 0.70710677298230451 forward_v I I I I #
face $-1 $111 $112 $37 $-1 $113 forward single #
loop $-1 $114 $115 $47 #
cone-surface $-1 -55.821398106602196 29.23260327807823 4.2847394274437329 0.70710678939079041 0 -0.70710677298230451 0.35355338649115226 0 0.35355339469539521 1 I I 0 1 0.5 forward I I I I #
face $-1 $116 $117 $38 $-1 $118 forward single #
loop $-1 $119 $120 $48 #
cone-surface $-1 -55.821398106602196 31.371438486134963 4.2847394274437329 0.70710678939079041 0 -0.70710677298230451 0.35355338649115226 0 0.35355339469539521 1 I I 0 1 0.5 forward I I I I #
face $-1 $121 $122 $39 $-1 $123 forward single #
loop $-1 $124 $125 $49 #
cone-surface $-1 -55.821398106602196 33.51027369419171 4.2847394274437329 0.70710678939079041 0 -0.70710677298230451 0.35355338649115226 0 0.35355339469539521 1 I I 0 1 0.5 forward I I I I #
face $-1 $126 $127 $30 $-1 $128 reversed single #
loop $-1 $-1 $129 $50 #
plane-surface $-1 0 0 -8.3626303111953497 0 0 1 1 0 0 forward_v I I I I #
coedge $-1 $130 $131 $132 $133 forward $51 $-1 #
face $-1 $134 $135 $31 $-1 $136 reversed single #
loop $-1 $-1 $137 $53 #
plane-surface $-1 0 -26.065170738508307 -6.8626303111953497 0 -1 0 0 0 -1 forward_v I I I I #
coedge $-1 $138 $139 $140 $141 reversed $54 $-1 #
face $-1 $142 $143 $32 $-1 $144 reversed single #
loop $-1 $-1 $145 $56 #
plane-surface $-1 -59.899288918729212 0.8707712004327135 1.198151082133279 -0.70710678939079041 0 0.70710677298230451 0.70710677298230451 0 0.70710678939079041 forward_v I I I I #
coedge $-1 $146 $147 $148 $149 reversed $57 $-1 #
face $-1 $-1 $150 $33 $-1 $151 forward single #
loop $-1 $152 $153 $59 #
cone-surface $-1 -55.148970128532277 -1.2680640076240266 3.6123114649775747 0.70710678939079041 0 -0.70710677298230451 0.17677669324557613 0 0.1767766973476976 1 I I -0.70710678118654691 0.70710678118654813 0.25 forward I I I I #
loop $-1 $-1 $154 $43 #
coedge $-1 $96 $96 $155 $156 reversed $60 $-1 #
face $-1 $-1 $157 $34 $-1 $158 forward single #
loop $-1 $159 $160 $62 #
cone-surface $-1 -55.148970128532277 0.8707712004327135 3.6123114649775747 0.70710678939079041 0 -0.70710677298230451 0.17677669324557613 0 0.1767766973476976 1 I I -0.70710678118654691 0.70710678118654813 0.25 forward I I I I #
loop $-1 $-1 $161 $44 #
coedge $-1 $101 $101 $162 $163 reversed $63 $-1 #
face $-1 $-1 $164 $35 $-1 $165 forward single #
loop $-1 $166 $167 $65 #
cone-surface $-1 -55.148970128532277 3.0096064084894536 3.6123114649775747 0.70710678939079041 0 -0.70710677298230451 0.17677669324557613 0 0.1767766973476976 1 I I -0.70710678118654691 0.70710678118654813 0.25 forward I I I I #
loop $-1 $-1 $168 $45 #
coedge $-1 $106 $106 $169 $170 reversed $66 $-1 #
face $-1 $171 $172 $36 $-1 $173 forward single #
loop $-1 $-1 $174 $68 #
plane-surface $-1 -59.899288918729212 31.371438486134963 1.198151082133279 -0.70710678939079041 0 0.70710677298230451 0.70710677298230451 0 0.70710678939079041 forward_v I I I I #
coedge $-1 $175 $176 $177 $178 reversed $69 $-1 #
face $-1 $-1 $179 $37 $-1 $180 forward single #
loop $-1 $181 $182 $71 #
cone-surface $-1 -55.148970128532277 29.23260327807823 3.6123114649775747 0.70710678939079041 0 -0.70710677298230451 0.17677669324557613 0 0.1767766973476976 1 I I -0.70710678118654691 0.70710678118654813 0.25 forward I I I I #
loop $-1 $-1 $183 $47 #
coedge $-1 $115 $115 $184 $185 reversed $72 $-1 #
face $-1 $-1 $186 $38 $-1 $187 forward single #
loop $-1 $188 $189 $74 #
cone-surface $-1 -55.148970128532277 31.371438486134963 3.6123114649775747 0.70710678939079041 0 -0.70710677298230451 0.17677669324557613 0 0.1767766973476976 1 I I -0.70710678118654691 0.70710678118654813 0.25 forward I I I I #
loop $-1 $-1 $190 $48 #
coedge $-1 $120 $120 $191 $192 reversed $75 $-1 #
face $-1 $-1 $193 $39 $-1 $194 forward single #
loop $-1 $195 $196 $77 #
cone-surface $-1 -55.148970128532277 33.51027369419171 3.6123114649775747 0.70710678939079041 0 -0.70710677298230451 0.17677669324557613 0 0.1767766973476976 1 I I -0.70710678118654691 0.70710678118654813 0.25 forward I I I I #
loop $-1 $-1 $197 $49 #
coedge $-1 $125 $125 $198 $199 reversed $78 $-1 #
face $-1 $200 $201 $30 $-1 $202 reversed single #
loop $-1 $-1 $203 $80 #
plane-surface $-1 0 -34.936163832896199 0 0 1 0 0 0 1 forward_v I I I I #
coedge $-1 $204 $205 $206 $207 forward $81 $-1 #
coedge $-1 $208 $83 $209 $210 forward $51 $-1 #
coedge $-1 $83 $208 $211 $212 forward $51 $-1 #
coedge $-1 $213 $214 $83 $133 reversed $215 $-1 #
edge $-1 $216 -34.936163832896199 $217 34.936163832896199 $132 $218 forward 7 unknown #
face $-1 $219 $220 $31 $-1 $221 reversed single #
loop $-1 $-1 $222 $84 #
plane-surface $-1 0 0 -8.3626303111953497 0 0 1 1 0 0 forward_v I I I I #
coedge $-1 $223 $224 $225 $226 reversed $85 $-1 #
coedge $-1 $227 $87 $224 $228 forward $54 $-1 #
coedge $-1 $87 $227 $229 $230 reversed $54 $-1 #
coedge $-1 $231 $225 $87 $141 forward $220 $-1 #
edge $-1 $232 10.814837095657181 $233 19.685830190045074 $140 $234 forward 7 unknown #
face $-1 $235 $236 $32 $-1 $237 forward single #
loop $-1 $-1 $238 $88 #
plane-surface $-1 -144.60967666695714 4.4354965471939494 85.908536864647928 0 -1 0 0.70710678939079041 0 -0.70710677298230451 forward_v I I I I #
coedge $-1 $239 $240 $241 $242 reversed $89 $-1 #
coedge $-1 $147 $91 $243 $244 reversed $57 $-1 #
coedge $-1 $91 $146 $239 $245 reversed $57 $-1 #
coedge $-1 $241 $246 $91 $149 forward $236 $-1 #
edge $-1 $247 12.405549414749359 $248 19.570028477558949 $148 $249 forward 7 unknown #
loop $-1 $-1 $155 $92 #
plane-surface $-1 -59.899288918729212 0.8707712004327135 1.198151082133279 -0.70710678939079041 0 0.70710677298230451 0.70710677298230451 0 0.70710678939079041 forward_v I I I I #
loop $-1 $-1 $250 $59 #
coedge $-1 $153 $153 $154 $251 reversed $93 $-1 #
coedge $-1 $154 $154 $153 $251 forward $95 $-1 #
coedge $-1 $155 $155 $96 $156 forward $150 $-1 #
edge $-1 $252 0 $252 6.2831853071796004 $155 $253 forward 7 unknown #
loop $-1 $-1 $162 $97 #
plane-surface $-1 -59.899288918729212 0.8707712004327135 1.198151082133279 -0.70710678939079041 0 0.70710677298230451 0.70710677298230451 0 0.70710678939079041 forward_v I I I I #
loop $-1 $-1 $254 $62 #
coedge $-1 $160 $160 $161 $255 reversed $98 $-1 #
coedge $-1 $161 $161 $160 $255 forward $100 $-1 #
coedge $-1 $162 $162 $101 $163 forward $157 $-1 #
edge $-1 $256 0 $256 6.2831853071796004 $162 $257 forward 7 unknown #
loop $-1 $-1 $169 $102 #
plane-surface $-1 -59.899288918729212 0.8707712004327135 1.198151082133279 -0.70710678939079041 0 0.70710677298230451 0.70710677298230451 0 0.70710678939079041 forward_v I I I I #
loop $-1 $-1 $258 $65 #
coedge $-1 $167 $167 $168 $259 reversed $103 $-1 #
coedge $-1 $168 $168 $167 $259 forward $105 $-1 #
coedge $-1 $169 $169 $106 $170 forward $164 $-1 #
edge $-1 $260 0 $260 6.2831853071796004 $169 $261 forward 7 unknown #
face $-1 $262 $263 $36 $-1 $264 reversed single #
loop $-1 $-1 $177 $107 #
plane-surface $-1 0 0 8.3626303111953497 0 0 1 1 0 0 forward_v I I I I #
coedge $-1 $265 $266 $267 $268 reversed $108 $-1 #
coedge $-1 $176 $110 $269 $270 reversed $69 $-1 #
coedge $-1 $110 $175 $265 $271 reversed $69 $-1 #
coedge $-1 $267 $272 $110 $178 forward $172 $-1 #
edge $-1 $273 12.405549414749359 $274 19.570028477558949 $177 $275 forward 7 unknown #
loop $-1 $-1 $184 $111 #
plane-surface $-1 -59.899288918729212 31.371438486134963 1.198151082133279 -0.70710678939079041 0 0.70710677298230451 0.70710677298230451 0 0.70710678939079041 forward_v I I I I #
loop $-1 $-1 $276 $71 #
coedge $-1 $182 $182 $183 $277 reversed $112 $-1 #
coedge $-1 $183 $183 $182 $277 forward $114 $-1 #
coedge $-1 $184 $184 $115 $185 forward $179 $-1 #
edge $-1 $278 0 $278 6.2831853071796004 $184 $279 forward 7 unknown #
loop $-1 $-1 $191 $116 #
plane-surface $-1 -59.899288918729212 31.371438486134963 1.198151082133279 -0.70710678939079041 0 0.70710677298230451 0.70710677298230451 0 0.70710678939079041 forward_v I I I I #
loop $-1 $-1 $280 $74 #
coedge $-1 $189 $189 $190 $281 reversed $117 $-1 #
coedge $-1 $190 $190 $189 $281 forward $119 $-1 #
coedge $-1 $191 $191 $120 $192 forward $186 $-1 #
edge $-1 $282 0 $282 6.2831853071796004 $191 $283 forward 7 unknown #
loop $-1 $-1 $198 $121 #
plane-surface $-1 -59.899288918729212 31.371438486134963 1.198151082133279 -0.70710678939079041 0 0.70710677298230451 0.70710677298230451 0 0.70710678939079041 forward_v I I I I #
loop $-1 $-1 $284 $77 #
coedge $-1 $196 $196 $197 $285 reversed $122 $-1 #
coedge $-1 $197 $197 $196 $285 forward $124 $-1 #
coedge $-1 $198 $198 $125 $199 forward $193 $-1 #
edge $-1 $286 0 $286 6.2831853071796004 $198 $287 forward 7 unknown #
face $-1 $288 $289 $30 $-1 $290 reversed single #
loop $-1 $-1 $291 $126 #
plane-surface $-1 -59.899288918729212 0 0 1 0 0 0 0 -1 forward_v I I I I #
coedge $-1 $292 $211 $293 $294 forward $127 $-1 #
coedge $-1 $295 $129 $292 $296 forward $81 $-1 #
coedge $-1 $129 $295 $297 $298 forward $81 $-1 #
coedge $-1 $214 $213 $129 $207 reversed $215 $-1 #
edge $-1 $299 -34.936163832896199 $300 34.936163832896199 $206 $301 forward 7 unknown #
coedge $-1 $131 $130 $302 $303 forward $51 $-1 #
coedge $-1 $304 $305 $130 $210 reversed $289 $-1 #
edge $-1 $217 -59.899288918729212 $306 59.899288918729212 $209 $307 forward 7 unknown #
coedge $-1 $203 $308 $131 $212 reversed $127 $-1 #
edge $-1 $309 -59.899288918729212 $216 59.899288918729212 $211 $310 forward 7 unknown #
coedge $-1 $206 $132 $308 $311 forward $215 $-1 #
coedge $-1 $132 $206 $304 $312 reversed $215 $-1 #
loop $-1 $-1 $213 $288 #
vertex $-1 $133 $313 #
vertex $-1 $133 $314 #
straight-curve $-1 59.899288918729212 0 8.3626303111953497 0 1 0 I I #
face $-1 $315 $316 $31 $-1 $317 reversed single #
loop $-1 $-1 $225 $134 #
plane-surface $-1 59.899288918729212 0 0 -1 0 0 0 0 1 forward_v I I I I #
coedge $-1 $318 $319 $223 $320 forward $135 $-1 #
coedge $-1 $321 $137 $222 $320 reversed $85 $-1 #
coedge $-1 $137 $321 $138 $228 reversed $85 $-1 #
coedge $-1 $140 $322 $137 $226 forward $220 $-1 #
edge $-1 $323 -4.9313151555976749 $232 -1.9313151555976749 $225 $324 forward 7 unknown #
coedge $-1 $139 $138 $325 $326 reversed $54 $-1 #
edge $-1 $232 -59.899288918729212 $327 59.899288918729212 $224 $328 forward 7 unknown #
coedge $-1 $329 $330 $139 $230 forward $316 $-1 #
edge $-1 $233 -59.899288918729212 $331 59.899288918729212 $229 $332 forward 7 unknown #
coedge $-1 $322 $140 $330 $333 forward $220 $-1 #
vertex $-1 $141 $334 #
vertex $-1 $333 $335 #
straight-curve $-1 59.899288918729212 -15.250333642851126 -5.3626303111953497 0 -1 0 I I #
face $-1 $-1 $336 $32 $-1 $337 reversed single #
loop $-1 $-1 $148 $142 #
plane-surface $-1 0 0 8.3626303111953497 0 0 1 1 0 0 forward_v I I I I #
coedge $-1 $338 $339 $340 $341 reversed $143 $-1 #
coedge $-1 $342 $145 $147 $245 forward $89 $-1 #
coedge $-1 $145 $342 $338 $343 forward $89 $-1 #
coedge $-1 $340 $148 $145 $242 forward $236 $-1 #
edge $-1 $248 -3.1293397465448791 $344 4.0001109469775926 $241 $345 forward 7 unknown #
coedge $-1 $346 $347 $146 $244 forward $336 $-1 #
edge $-1 $348 -41.756117350190685 $247 -34.591638121128611 $243 $349 forward 7 unknown #
edge $-1 $248 -10.132103575521665 $348 0 $147 $350 forward 7 unknown #
coedge $-1 $148 $340 $346 $351 forward $236 $-1 #
vertex $-1 $244 $352 #
vertex $-1 $149 $353 #
straight-curve $-1 -72.304838333478571 -2.6939541463285224 8.3626303111953533 1 0 0 I I #
coedge $-1 $250 $250 $-1 $354 reversed $152 $-1 #
edge $-1 $355 0 $355 6.2831853071796004 $153 $356 forward 7 unknown #
vertex $-1 $156 $357 #
ellipse-curve $-1 -56.317049387324417 -1.2680640076240266 4.7803906966643144 -0.70710678939079041 0 0.70710677298230451 0.35355338649115226 0 0.35355339469539521 1 I I #
coedge $-1 $254 $254 $-1 $358 reversed $159 $-1 #
edge $-1 $359 0 $359 6.2831853071796004 $160 $360 forward 7 unknown #
vertex $-1 $163 $361 #
ellipse-curve $-1 -56.317049387324417 0.8707712004327135 4.7803906966643144 -0.70710678939079041 0 0.70710677298230451 0.35355338649115226 0 0.35355339469539521 1 I I #
coedge $-1 $258 $258 $-1 $362 reversed $166 $-1 #
edge $-1 $363 0 $363 6.2831853071796004 $167 $364 forward 7 unknown #
vertex $-1 $170 $365 #
ellipse-curve $-1 -56.317049387324417 3.0096064084894536 4.7803906966643144 -0.70710678939079041 0 0.70710677298230451 0.35355338649115226 0 0.35355339469539521 1 I I #
face $-1 $-1 $366 $36 $-1 $367 reversed single #
loop $-1 $-1 $368 $171 #
plane-surface $-1 0 34.936163832896199 0 0 -1 0 0 0 -1 forward_v I I I I #
coedge $-1 $369 $174 $176 $271 forward $108 $-1 #
coedge $-1 $174 $369 $368 $370 reversed $108 $-1 #
coedge $-1 $371 $177 $174 $268 forward $172 $-1 #
edge $-1 $274 12.120993896306246 $372 19.250444589828717 $267 $373 forward 7 unknown #
coedge $-1 $374 $375 $175 $270 forward $366 $-1 #
edge $-1 $376 -41.756117350190685 $273 -34.591638121128611 $269 $377 forward 7 unknown #
edge $-1 $274 -10.132103575521665 $376 0 $176 $378 forward 7 unknown #
coedge $-1 $177 $371 $374 $379 forward $172 $-1 #
vertex $-1 $270 $380 #
vertex $-1 $178 $381 #
straight-curve $-1 -72.304838333478571 27.806713139373727 8.3626303111953533 1 0 0 I I #
coedge $-1 $276 $276 $-1 $382 reversed $181 $-1 #
edge $-1 $383 0 $383 6.2831853071796004 $182 $384 forward 7 unknown #
vertex $-1 $185 $385 #
ellipse-curve $-1 -56.317049387324417 29.23260327807823 4.7803906966643144 -0.70710678939079041 0 0.70710677298230451 0.35355338649115226 0 0.35355339469539521 1 I I #
coedge $-1 $280 $280 $-1 $386 reversed $188 $-1 #
edge $-1 $387 0 $387 6.2831853071796004 $189 $388 forward 7 unknown #
vertex $-1 $192 $389 #
ellipse-curve $-1 -56.317049387324417 31.371438486134963 4.7803906966643144 -0.70710678939079041 0 0.70710677298230451 0.35355338649115226 0 0.35355339469539521 1 I I #
coedge $-1 $284 $284 $-1 $390 reversed $195 $-1 #
edge $-1 $391 0 $391 6.2831853071796004 $196 $392 forward 7 unknown #
vertex $-1 $199 $393 #
ellipse-curve $-1 -56.317049387324417 33.51027369419171 4.7803906966643144 -0.70710678939079041 0 0.70710677298230451 0.35355338649115226 0 0.35355339469539521 1 I I #
face $-1 $-1 $215 $30 $-1 $394 reversed single #
loop $-1 $-1 $304 $200 #
plane-surface $-1 0 34.936163832896199 0 0 -1 0 0 0 -1 forward_v I I I I #
coedge $-1 $395 $302 $305 $396 forward $201 $-1 #
coedge $-1 $308 $203 $204 $296 reversed $127 $-1 #
coedge $-1 $302 $395 $203 $294 reversed $201 $-1 #
edge $-1 $309 -8.3626303111953497 $397 8.3626303111953497 $293 $398 forward 7 unknown #
coedge $-1 $205 $204 $395 $399 forward $81 $-1 #
edge $-1 $300 -59.899288918729212 $397 59.899288918729212 $292 $400 forward 7 unknown #
coedge $-1 $305 $304 $205 $298 reversed $289 $-1 #
edge $-1 $401 -59.899288918729212 $299 59.899288918729212 $297 $402 forward 7 unknown #
vertex $-1 $207 $403 #
vertex $-1 $311 $404 #
straight-curve $-1 59.899288918729212 0 -8.3626303111953497 0 -1 0 I I #
coedge $-1 $291 $293 $208 $303 reversed $201 $-1 #
edge $-1 $306 -34.936163832896199 $309 34.936163832896199 $302 $405 forward 7 unknown #
coedge $-1 $297 $209 $214 $312 forward $289 $-1 #
coedge $-1 $209 $297 $291 $396 reversed $289 $-1 #
vertex $-1 $210 $406 #
straight-curve $-1 0 34.936163832896199 8.3626303111953497 -1 0 0 I I #
coedge $-1 $211 $292 $213 $311 reversed $127 $-1 #
vertex $-1 $303 $407 #
straight-curve $-1 0 -34.936163832896199 8.3626303111953497 1 0 0 I I #
edge $-1 $216 -8.3626303111953497 $300 8.3626303111953497 $213 $408 forward 7 unknown #
edge $-1 $217 -8.3626303111953497 $299 8.3626303111953497 $214 $409 forward 7 unknown #
point $-1 59.899288918729212 -34.936163832896199 8.3626303111953497 #
point $-1 59.899288918729212 34.936163832896199 8.3626303111953497 #
face $-1 $-1 $410 $31 $-1 $411 reversed single #
loop $-1 $-1 $229 $219 #
plane-surface $-1 0 -34.936163832896199 0 0 1 0 0 0 1 forward_v I I I I #
coedge $-1 $412 $222 $322 $413 forward $135 $-1 #
coedge $-1 $222 $412 $414 $415 forward $135 $-1 #
edge $-1 $416 -59.899288918729212 $323 59.899288918729212 $222 $417 forward 7 unknown #
coedge $-1 $224 $223 $418 $419 reversed $85 $-1 #
coedge $-1 $225 $231 $318 $413 reversed $220 $-1 #
vertex $-1 $413 $420 #
straight-curve $-1 59.899288918729212 -26.065170738508307 -3.4313151555976749 0 0 1 I I #
coedge $-1 $418 $421 $227 $326 forward $410 $-1 #
edge $-1 $331 -19.685830190045074 $327 -10.814837095657181 $325 $422 forward 7 unknown #
vertex $-1 $326 $423 #
straight-curve $-1 0 -26.065170738508307 -5.3626303111953497 -1 0 0 I I #
coedge $-1 $424 $229 $421 $425 forward $316 $-1 #
coedge $-1 $229 $424 $231 $333 reversed $316 $-1 #
vertex $-1 $425 $426 #
straight-curve $-1 0 -34.936163832896199 -5.3626303111953497 -1 0 0 I I #
edge $-1 $233 5.3626303111953497 $427 8.3626303111953497 $231 $428 forward 7 unknown #
point $-1 59.899288918729212 -26.065170738508307 -5.3626303111953497 #
point $-1 59.899288918729212 -34.936163832896199 -5.3626303111953497 #
loop $-1 $-1 $243 $235 #
plane-surface $-1 -59.899288918729212 0 0 1 0 0 0 0 -1 forward_v I I I I #
coedge $-1 $339 $238 $240 $343 reversed $143 $-1 #
coedge $-1 $238 $338 $429 $430 reversed $143 $-1 #
coedge $-1 $246 $241 $238 $341 forward $236 $-1 #
edge $-1 $344 -19.570028477558949 $431 -12.405549414749359 $340 $432 forward 7 unknown #
coedge $-1 $240 $239 $347 $433 reversed $89 $-1 #
edge $-1 $434 0 $344 10.132103575521665 $338 $435 forward 7 unknown #
vertex $-1 $242 $436 #
straight-curve $-1 -52.734809855919622 0.43538560021635675 8.3626303111953479 0 1 0 I I #
coedge $-1 $429 $243 $246 $351 reversed $336 $-1 #
coedge $-1 $243 $429 $342 $433 forward $336 $-1 #
vertex $-1 $244 $437 #
straight-curve $-1 -59.899288918729212 -2.6939541463285224 42.954268432323964 0 0 1 I I #
straight-curve $-1 -59.899288918729212 -2.6939541463285224 1.198151082133279 -0.70710677298230451 0 -0.70710678939079041 I I #
edge $-1 $431 -4.4354965471939494 $247 2.6939541463285224 $346 $438 forward 7 unknown #
point $-1 -59.899288918729212 -2.6939541463285224 8.3626303111953497 #
point $-1 -52.734809855919622 -2.6939541463285224 8.3626303111953497 #
edge $-1 $439 1 $439 0 $250 $-1 forward 7 unknown #
vertex $-1 $251 $440 #
ellipse-curve $-1 -55.325746825879975 -1.2680640076240266 3.789088158223151 -0.70710678939079041 0 0.70710677298230451 0.35355338649115226 0 0.35355339469539521 1 I I #
point $-1 -55.963496000833267 -1.2680640076240266 5.1339440913597096 #
edge $-1 $441 1 $441 0 $254 $-1 forward 7 unknown #
vertex $-1 $255 $442 #
ellipse-curve $-1 -55.325746825879975 0.8707712004327135 3.789088158223151 -0.70710678939079041 0 0.70710677298230451 0.35355338649115226 0 0.35355339469539521 1 I I #
point $-1 -55.963496000833267 0.8707712004327135 5.1339440913597096 #
edge $-1 $443 1 $443 0 $258 $-1 forward 7 unknown #
vertex $-1 $259 $444 #
ellipse-curve $-1 -55.325746825879975 3.0096064084894536 3.789088158223151 -0.70710678939079041 0 0.70710677298230451 0.35355338649115226 0 0.35355339469539521 1 I I #
point $-1 -55.963496000833267 3.0096064084894536 5.1339440913597096 #
loop $-1 $-1 $269 $262 #
plane-surface $-1 -59.899288918729212 0 0 1 0 0 0 0 -1 forward_v I I I I #
coedge $-1 $445 $446 $266 $370 forward $263 $-1 #
coedge $-1 $266 $265 $375 $447 reversed $108 $-1 #
edge $-1 $372 10.621882487660823 $448 20.753986063182484 $368 $449 forward 7 unknown #
coedge $-1 $272 $267 $446 $450 forward $172 $-1 #
vertex $-1 $450 $451 #
straight-curve $-1 -52.734809855919622 15.685719243067481 8.3626303111953479 0 1 0 I I #
coedge $-1 $452 $269 $272 $379 reversed $366 $-1 #
coedge $-1 $269 $452 $369 $447 forward $366 $-1 #
vertex $-1 $270 $453 #
straight-curve $-1 -59.899288918729212 27.806713139373727 42.954268432323964 0 0 1 I I #
straight-curve $-1 -59.899288918729212 27.806713139373727 1.198151082133279 -0.70710677298230451 0 -0.70710678939079041 I I #
edge $-1 $454 -34.936163832896199 $273 -27.806713139373727 $374 $455 forward 7 unknown #
point $-1 -59.899288918729212 27.806713139373727 8.3626303111953497 #
point $-1 -52.734809855919622 27.806713139373727 8.3626303111953497 #
edge $-1 $456 1 $456 0 $276 $-1 forward 7 unknown #
vertex $-1 $277 $457 #
ellipse-curve $-1 -55.325746825879975 29.23260327807823 3.789088158223151 -0.70710678939079041 0 0.70710677298230451 0.35355338649115226 0 0.35355339469539521 1 I I #
point $-1 -55.963496000833267 29.23260327807823 5.1339440913597096 #
edge $-1 $458 1 $458 0 $280 $-1 forward 7 unknown #
vertex $-1 $281 $459 #
ellipse-curve $-1 -55.325746825879975 31.371438486134963 3.789088158223151 -0.70710678939079041 0 0.70710677298230451 0.35355338649115226 0 0.35355339469539521 1 I I #
point $-1 -55.963496000833267 31.371438486134963 5.1339440913597096 #
edge $-1 $460 1 $460 0 $284 $-1 forward 7 unknown #
vertex $-1 $285 $461 #
ellipse-curve $-1 -55.325746825879975 33.51027369419171 3.789088158223151 -0.70710678939079041 0 0.70710677298230451 0.35355338649115226 0 0.35355339469539521 1 I I #
point $-1 -55.963496000833267 33.51027369419171 5.1339440913597096 #
plane-surface $-1 59.899288918729212 0 0 -1 0 0 0 0 1 forward_v I I I I #
coedge $-1 $293 $291 $295 $399 reversed $201 $-1 #
edge $-1 $306 -8.3626303111953497 $401 8.3626303111953497 $305 $462 forward 7 unknown #
vertex $-1 $399 $463 #
straight-curve $-1 -59.899288918729212 -34.936163832896199 0 0 0 -1 I I #
edge $-1 $397 -34.936163832896199 $401 34.936163832896199 $395 $464 forward 7 unknown #
straight-curve $-1 0 -34.936163832896199 -8.3626303111953497 -1 0 0 I I #
vertex $-1 $298 $465 #
straight-curve $-1 0 34.936163832896199 -8.3626303111953497 1 0 0 I I #
point $-1 59.899288918729212 34.936163832896199 -8.3626303111953497 #
point $-1 59.899288918729212 -34.936163832896199 -8.3626303111953497 #
straight-curve $-1 -59.899288918729212 0 8.3626303111953497 0 -1 0 I I #
point $-1 -59.899288918729212 34.936163832896199 8.3626303111953497 #
point $-1 -59.899288918729212 -34.936163832896199 8.3626303111953497 #
straight-curve $-1 59.899288918729212 -34.936163832896199 0 0 0 -1 I I #
straight-curve $-1 59.899288918729212 34.936163832896199 0 0 0 -1 I I #
loop $-1 $-1 $418 $315 #
plane-surface $-1 -59.899288918729212 0 0 1 0 0 0 0 -1 forward_v I I I I #
coedge $-1 $319 $318 $424 $466 forward $135 $-1 #
edge $-1 $323 26.065170738508307 $427 34.936163832896199 $322 $467 forward 7 unknown #
coedge $-1 $421 $418 $319 $415 reversed $410 $-1 #
edge $-1 $468 -34.936163832896199 $416 -26.065170738508307 $414 $469 forward 7 unknown #
vertex $-1 $419 $470 #
straight-curve $-1 0 -26.065170738508307 -8.3626303111953497 1 0 0 I I #
coedge $-1 $414 $325 $321 $419 forward $410 $-1 #
edge $-1 $327 1.9313151555976749 $416 4.9313151555976749 $418 $471 forward 7 unknown #
point $-1 59.899288918729212 -26.065170738508307 -8.3626303111953497 #
coedge $-1 $325 $414 $329 $425 reversed $410 $-1 #
straight-curve $-1 -59.899288918729212 -15.250333642851126 -5.3626303111953497 0 1 0 I I #
point $-1 -59.899288918729212 -26.065170738508307 -5.3626303111953497 #
coedge $-1 $330 $329 $412 $466 reversed $316 $-1 #
edge $-1 $331 5.3626303111953497 $468 8.3626303111953497 $421 $472 forward 7 unknown #
point $-1 -59.899288918729212 -34.936163832896199 -5.3626303111953497 #
vertex $-1 $333 $473 #
straight-curve $-1 59.899288918729212 -34.936163832896199 0 0 0 -1 I I #
coedge $-1 $347 $346 $339 $430 forward $336 $-1 #
edge $-1 $431 34.591638121128611 $434 41.756117350190685 $429 $474 forward 7 unknown #
vertex $-1 $351 $475 #
straight-curve $-1 -72.304838333478571 4.4354965471939494 8.3626303111953533 -1 0 0 I I #
edge $-1 $434 -4.0001109469775926 $348 3.1293397465448791 $347 $476 forward 7 unknown #
vertex $-1 $433 $477 #
straight-curve $-1 -59.899288918729212 4.4354965471939494 1.198151082133279 0.70710677298230451 0 0.70710678939079041 I I #
point $-1 -52.734809855919622 4.4354965471939494 8.3626303111953497 #
point $-1 -59.899288918729212 -2.6939541463285224 1.198151082133279 #
straight-curve $-1 -59.899288918729212 0 8.3626303111953497 0 -1 0 I I #
vertex $-1 $354 $478 #
point $-1 -54.972193439388825 -1.2680640076240266 4.1426415529185459 #
vertex $-1 $358 $479 #
point $-1 -54.972193439388825 0.8707712004327135 4.1426415529185459 #
vertex $-1 $362 $480 #
point $-1 -54.972193439388825 3.0096064084894536 4.1426415529185459 #
coedge $-1 $446 $368 $452 $481 reversed $263 $-1 #
coedge $-1 $368 $445 $371 $450 reversed $263 $-1 #
edge $-1 $448 -19.250444589828717 $376 -12.120993896306246 $375 $482 forward 7 unknown #
vertex $-1 $370 $483 #
straight-curve $-1 -45.224004807072525 34.936163832896199 15.873435534331454 -0.70710677298230462 0 -0.70710678939079052 I I #
edge $-1 $372 52.734809855919622 $454 59.899288918729212 $446 $484 forward 7 unknown #
point $-1 -52.734809855919622 34.936163832896199 8.3626303111953497 #
coedge $-1 $375 $374 $445 $481 forward $366 $-1 #
point $-1 -59.899288918729212 27.806713139373727 1.198151082133279 #
vertex $-1 $450 $485 #
straight-curve $-1 -59.899288918729212 0 8.3626303111953497 0 -1 0 I I #
vertex $-1 $382 $486 #
point $-1 -54.972193439388825 29.23260327807823 4.1426415529185459 #
vertex $-1 $386 $487 #
point $-1 -54.972193439388825 31.371438486134963 4.1426415529185459 #
vertex $-1 $390 $488 #
point $-1 -54.972193439388825 33.51027369419171 4.1426415529185459 #
straight-curve $-1 -59.899288918729212 34.936163832896199 0 0 0 -1 I I #
point $-1 -59.899288918729212 -34.936163832896199 -8.3626303111953497 #
straight-curve $-1 -59.899288918729212 0 -8.3626303111953497 0 1 0 I I #
point $-1 -59.899288918729212 34.936163832896199 -8.3626303111953497 #
edge $-1 $427 -59.899288918729212 $468 59.899288918729212 $424 $489 forward 7 unknown #
straight-curve $-1 59.899288918729212 0 -8.3626303111953497 0 -1 0 I I #
vertex $-1 $415 $490 #
straight-curve $-1 -59.899288918729212 0 -8.3626303111953497 0 1 0 I I #
point $-1 -59.899288918729212 -26.065170738508307 -8.3626303111953497 #
straight-curve $-1 -59.899288918729212 -26.065170738508307 -3.4313151555976749 0 0 -1 I I #
straight-curve $-1 -59.899288918729212 -34.936163832896199 0 0 0 -1 I I #
point $-1 59.899288918729212 -34.936163832896199 -8.3626303111953497 #
straight-curve $-1 -59.899288918729212 4.4354965471939494 42.954268432323964 0 0 -1 I I #
point $-1 -59.899288918729212 4.4354965471939494 8.3626303111953497 #
straight-curve $-1 -59.899288918729212 0.43538560021635675 1.198151082133279 0 -1 0 I I #
point $-1 -59.899288918729212 4.4354965471939494 1.198151082133279 #
point $-1 -54.972193431184579 -1.2680640076240266 3.4355347717319984 #
point $-1 -54.972193431184579 0.8707712004327135 3.4355347717319984 #
point $-1 -54.972193431184579 3.0096064084894536 3.4355347717319984 #
edge $-1 $454 -8.3626303111953497 $448 -1.198151082133279 $445 $491 forward 7 unknown #
straight-curve $-1 -59.899288918729212 15.685719243067481 1.198151082133279 0 -1 0 I I #
point $-1 -59.899288918729212 34.936163832896199 1.198151082133279 #
straight-curve $-1 0 34.936163832896199 8.3626303111953497 -1 0 0 I I #
point $-1 -59.899288918729212 34.936163832896199 8.3626303111953497 #
point $-1 -54.972193431184579 29.23260327807823 3.4355347717319984 #
point $-1 -54.972193431184579 31.371438486134963 3.4355347717319984 #
point $-1 -54.972193431184579 33.51027369419171 3.4355347717319984 #
straight-curve $-1 0 -34.936163832896199 -8.3626303111953497 -1 0 0 I I #
point $-1 -59.899288918729212 -34.936163832896199 -8.3626303111953497 #
straight-curve $-1 -59.899288918729212 34.936163832896199 0 0 0 -1 I I #
End-of-ACIS-data 