500 0 9 0           
7 Unknown 11 ACIS 5.0 NT 24 Fri Mar 26 15:03:58 1999 
-1 9.9999999999999995e-007 1e-010 
body $-1 $9 $-1 $10 #
body $-1 $11 $-1 $12 #
body $-1 $13 $-1 $14 #
body $-1 $15 $-1 $16 #
body $-1 $17 $-1 $18 #
body $-1 $19 $-1 $20 #
body $-1 $21 $-1 $22 #
body $-1 $23 $-1 $24 #
body $-1 $25 $-1 $26 #
lump $-1 $-1 $27 $0 #
transform $-1 1 0 0 0 1 0 0 0 1 57.894833216345717 23.985355705289308 10.602395370542052 1 rotate no_reflect no_shear #
lump $-1 $-1 $28 $1 #
transform $-1 1 0 0 0 1 0 0 0 1 57.894833216345717 23.985355705289308 10.602395370542052 1 rotate no_reflect no_shear #
lump $-1 $-1 $29 $2 #
transform $-1 1 0 0 0 1 0 0 0 1 57.894833216345717 23.985355705289308 10.602395370542052 1 rotate no_reflect no_shear #
lump $-1 $-1 $30 $3 #
transform $-1 1 0 0 0 1 0 0 0 1 57.894833216345717 23.985355705289308 10.602395370542052 1 rotate no_reflect no_shear #
lump $-1 $-1 $31 $4 #
transform $-1 1 0 0 0 1 0 0 0 1 57.894833216345717 23.985355705289308 10.602395370542052 1 rotate no_reflect no_shear #
lump $-1 $-1 $32 $5 #
transform $-1 1 0 0 0 1 0 0 0 1 57.894833216345717 23.985355705289308 10.602395370542052 1 rotate no_reflect no_shear #
lump $-1 $-1 $33 $6 #
transform $-1 1 0 0 0 1 0 0 0 1 57.894833216345717 23.985355705289308 10.602395370542052 1 rotate no_reflect no_shear #
lump $-1 $-1 $34 $7 #
transform $-1 1 0 0 0 1 0 0 0 1 57.894833216345717 23.985355705289308 10.602395370542052 1 rotate no_reflect no_shear #
lump $-1 $-1 $35 $8 #
transform $-1 1 0 0 0 1 0 0 0 1 57.894833216345717 23.985355705289308 10.602395370542052 1 rotate no_reflect no_shear #
shell $-1 $-1 $-1 $36 $-1 $9 #
shell $-1 $-1 $-1 $37 $-1 $11 #
shell $-1 $-1 $-1 $38 $-1 $13 #
shell $-1 $-1 $-1 $39 $-1 $15 #
shell $-1 $-1 $-1 $40 $-1 $17 #
shell $-1 $-1 $-1 $41 $-1 $19 #
shell $-1 $-1 $-1 $42 $-1 $21 #
shell $-1 $-1 $-1 $43 $-1 $23 #
shell $-1 $-1 $-1 $44 $-1 $25 #
face $-1 $45 $46 $27 $-1 $47 forward single #
face $-1 $48 $49 $28 $-1 $50 reversed single #
face $-1 $51 $52 $29 $-1 $53 reversed single #
face $-1 $54 $55 $30 $-1 $56 forward single #
face $-1 $57 $58 $31 $-1 $59 forward single #
face $-1 $60 $61 $32 $-1 $62 forward single #
face $-1 $63 $64 $33 $-1 $65 reversed single #
face $-1 $66 $67 $34 $-1 $68 forward single #
face $-1 $69 $70 $35 $-1 $71 forward single #
face $-1 $72 $73 $27 $-1 $74 reversed single #
loop $-1 $-1 $75 $36 #
plane-surface $-1 0 0 10.602395370542052 0 0 1 1 0 0 forward_v I I I I #
face $-1 $76 $77 $28 $-1 $78 reversed single #
loop $-1 $-1 $79 $37 #
plane-surface $-1 -51.410853827367092 -20.253372071610364 0 0 -1 0 0 0 -1 forward_v I I I I #
face $-1 $80 $81 $29 $-1 $82 reversed single #
loop $-1 $-1 $83 $38 #
plane-surface $-1 -13.081297670841446 -124.26214922736342 64.488895168770171 -1 0 0 0 -0.86602541151947299 0.49999998660252726 forward_v I I I I #
face $-1 $84 $85 $30 $-1 $86 forward single #
loop $-1 $87 $88 $39 #
cone-surface $-1 -23.6547343716923 -21.769168085316803 7.9867682272780671 0 0.86602541151947299 -0.49999998660252726 1 0 0 1 I I 0 1 1 forward I I I I #
face $-1 $89 $90 $31 $-1 $91 forward single #
loop $-1 $92 $93 $40 #
cone-surface $-1 -19.68969560887323 -21.769168085316803 7.9867682272780671 0 0.86602541151947299 -0.49999998660252726 1 0 0 1 I I 0 1 1 forward I I I I #
face $-1 $94 $95 $32 $-1 $96 forward single #
loop $-1 $97 $98 $41 #
cone-surface $-1 -15.72465684605416 -21.769168085316803 7.9867682272780671 0 0.86602541151947299 -0.49999998660252726 1 0 0 1 I I 0 1 1 forward I I I I #
face $-1 $99 $100 $33 $-1 $101 reversed single #
loop $-1 $-1 $102 $42 #
plane-surface $-1 31.472851935678364 75.952611729147534 119.31677593480397 1 0 0 0 -0.73135370988377701 -0.68199835119979291 forward_v I I I I #
face $-1 $103 $104 $34 $-1 $105 forward single #
loop $-1 $106 $107 $43 #
cone-surface $-1 39.021989444440464 20.359437156263361 6.873122392588221 0 -0.73135370988377701 -0.68199835119979291 1 0 0 1 I I 0 1 1 forward I I I I #
face $-1 $108 $109 $35 $-1 $110 forward single #
loop $-1 $111 $112 $44 #
cone-surface $-1 50.345695707583616 20.359437156263361 6.873122392588221 0 -0.73135370988377701 -0.68199835119979291 1 0 0 1 I I 0 1 1 forward I I I I #
face $-1 $113 $114 $27 $-1 $115 reversed single #
loop $-1 $-1 $116 $45 #
plane-surface $-1 0 0 -10.602395370542052 0 0 1 1 0 0 forward_v I I I I #
coedge $-1 $117 $118 $119 $120 forward $46 $-1 #
face $-1 $121 $122 $28 $-1 $123 forward single #
loop $-1 $-1 $124 $48 #
plane-surface $-1 -44.926874438388467 -22.119363888449836 0 -1 0 0 0 0 1 forward_v I I I I #
coedge $-1 $125 $126 $127 $128 forward $49 $-1 #
face $-1 $129 $130 $29 $-1 $131 reversed single #
loop $-1 $-1 $132 $51 #
plane-surface $-1 -19.68969560887323 -23.985355705289322 6.5940635037133504 0 -0.86602541151947299 0.49999998660252726 1 0 0 forward_v I I I I #
coedge $-1 $133 $134 $135 $136 reversed $52 $-1 #
face $-1 $-1 $137 $30 $-1 $138 forward single #
loop $-1 $139 $140 $54 #
cone-surface $-1 -23.6547343716923 -20.277073459402565 7.1253070241271637 0 0.86602541151947299 -0.49999998660252726 0.5 0 0 1 I I -0.70710678118654746 0.70710678118654746 0.5 forward I I I I #
loop $-1 $-1 $141 $39 #
coedge $-1 $88 $88 $142 $143 reversed $55 $-1 #
face $-1 $-1 $144 $31 $-1 $145 forward single #
loop $-1 $146 $147 $57 #
cone-surface $-1 -19.68969560887323 -20.277073459402565 7.1253070241271637 0 0.86602541151947299 -0.49999998660252726 0.5 0 0 1 I I -0.70710678118654746 0.70710678118654746 0.5 forward I I I I #
loop $-1 $-1 $148 $40 #
coedge $-1 $93 $93 $149 $150 reversed $58 $-1 #
face $-1 $-1 $151 $32 $-1 $152 forward single #
loop $-1 $153 $154 $60 #
cone-surface $-1 -15.72465684605416 -20.277073459402565 7.1253070241271637 0 0.86602541151947299 -0.49999998660252726 0.5 0 0 1 I I -0.70710678118654746 0.70710678118654746 0.5 forward I I I I #
loop $-1 $-1 $155 $41 #
coedge $-1 $98 $98 $156 $157 reversed $61 $-1 #
face $-1 $158 $159 $33 $-1 $160 forward single #
loop $-1 $-1 $161 $63 #
plane-surface $-1 44.68384257601204 -8.730590382606394 40.348414341734411 0 0.73135370988377701 0.68199835119979291 1 0 0 forward_v I I I I #
coedge $-1 $162 $163 $164 $165 reversed $64 $-1 #
face $-1 $-1 $166 $34 $-1 $167 forward single #
loop $-1 $168 $169 $66 #
cone-surface $-1 39.021989444440464 18.856509411619847 5.4716196313836782 0 -0.73135370988377701 -0.68199835119979291 0.5 0 0 1 I I -0.70710678118654746 0.70710678118654746 0.5 forward I I I I #
loop $-1 $-1 $170 $43 #
coedge $-1 $107 $107 $171 $172 reversed $67 $-1 #
face $-1 $-1 $173 $35 $-1 $174 forward single #
loop $-1 $175 $176 $69 #
cone-surface $-1 50.345695707583616 18.856509411619847 5.4716196313836782 0 -0.73135370988377701 -0.68199835119979291 0.5 0 0 1 I I -0.70710678118654746 0.70710678118654746 0.5 forward I I I I #
loop $-1 $-1 $177 $44 #
coedge $-1 $112 $112 $178 $179 reversed $70 $-1 #
face $-1 $180 $181 $27 $-1 $182 reversed single #
loop $-1 $-1 $183 $72 #
plane-surface $-1 0 -23.985355705289308 0 0 1 0 0 0 1 forward_v I I I I #
coedge $-1 $184 $185 $186 $187 forward $73 $-1 #
coedge $-1 $188 $75 $189 $190 forward $46 $-1 #
coedge $-1 $75 $188 $191 $192 forward $46 $-1 #
coedge $-1 $193 $194 $75 $120 reversed $195 $-1 #
edge $-1 $196 -23.985355705289308 $197 23.985355705289308 $119 $198 forward 7 unknown #
face $-1 $199 $200 $28 $-1 $201 reversed single #
loop $-1 $-1 $202 $76 #
plane-surface $-1 0 0 10.602395370542052 0 0 1 1 0 0 forward_v I I I I #
coedge $-1 $203 $204 $205 $206 reversed $77 $-1 #
coedge $-1 $207 $79 $208 $209 reversed $49 $-1 #
coedge $-1 $79 $207 $210 $211 reversed $49 $-1 #
coedge $-1 $204 $203 $79 $128 reversed $77 $-1 #
edge $-1 $212 -10.602395370542052 $213 10.602395370542052 $127 $214 forward 7 unknown #
face $-1 $215 $216 $29 $-1 $217 forward single #
loop $-1 $-1 $218 $80 #
plane-surface $-1 -26.298093546905015 -124.26214922736342 64.488895168770171 1 0 0 0 0.86602541151947299 -0.49999998660252726 forward_v I I I I #
coedge $-1 $219 $220 $221 $222 reversed $81 $-1 #
coedge $-1 $134 $83 $223 $224 reversed $52 $-1 #
coedge $-1 $83 $133 $219 $225 reversed $52 $-1 #
coedge $-1 $221 $226 $83 $136 forward $216 $-1 #
edge $-1 $227 38.145718908392404 $228 40.459930308028405 $135 $229 forward 7 unknown #
loop $-1 $-1 $142 $84 #
plane-surface $-1 -19.68969560887323 -23.985355705289322 6.5940635037133504 0 -0.86602541151947299 0.49999998660252726 1 0 0 forward_v I I I I #
loop $-1 $-1 $230 $54 #
coedge $-1 $140 $140 $141 $231 reversed $85 $-1 #
coedge $-1 $141 $141 $140 $231 forward $87 $-1 #
coedge $-1 $142 $142 $88 $143 forward $137 $-1 #
edge $-1 $232 2.0143434207586993e-015 $232 6.2831853071796022 $142 $233 forward 7 unknown #
loop $-1 $-1 $149 $89 #
plane-surface $-1 -19.68969560887323 -23.985355705289322 6.5940635037133504 0 -0.86602541151947299 0.49999998660252726 1 0 0 forward_v I I I I #
loop $-1 $-1 $234 $57 #
coedge $-1 $147 $147 $148 $235 reversed $90 $-1 #
coedge $-1 $148 $148 $147 $235 forward $92 $-1 #
coedge $-1 $149 $149 $93 $150 forward $144 $-1 #
edge $-1 $236 2.0143434207586993e-015 $236 6.2831853071796022 $149 $237 forward 7 unknown #
loop $-1 $-1 $156 $94 #
plane-surface $-1 -19.68969560887323 -23.985355705289322 6.5940635037133504 0 -0.86602541151947299 0.49999998660252726 1 0 0 forward_v I I I I #
loop $-1 $-1 $238 $60 #
coedge $-1 $154 $154 $155 $239 reversed $95 $-1 #
coedge $-1 $155 $155 $154 $239 forward $97 $-1 #
coedge $-1 $156 $156 $98 $157 forward $151 $-1 #
edge $-1 $240 2.0143434207586993e-015 $240 6.2831853071796022 $156 $241 forward 7 unknown #
face $-1 $242 $243 $33 $-1 $244 reversed single #
loop $-1 $-1 $164 $99 #
plane-surface $-1 0 0 10.602395370542052 0 0 1 1 0 0 forward_v I I I I #
coedge $-1 $245 $246 $247 $248 reversed $100 $-1 #
coedge $-1 $163 $102 $249 $250 reversed $64 $-1 #
coedge $-1 $102 $162 $245 $251 reversed $64 $-1 #
coedge $-1 $247 $252 $102 $165 forward $159 $-1 #
edge $-1 $253 13.990950159284459 $254 18.968285477933069 $164 $255 forward 7 unknown #
loop $-1 $-1 $171 $103 #
plane-surface $-1 44.68384257601204 -8.730590382606394 40.348414341734411 0 0.73135370988377701 0.68199835119979291 1 0 0 forward_v I I I I #
loop $-1 $-1 $256 $66 #
coedge $-1 $169 $169 $170 $257 reversed $104 $-1 #
coedge $-1 $170 $170 $169 $257 forward $106 $-1 #
coedge $-1 $171 $171 $107 $172 forward $166 $-1 #
edge $-1 $258 -5.9776333289801244e-016 $258 6.2831853071795996 $171 $259 forward 7 unknown #
loop $-1 $-1 $178 $108 #
plane-surface $-1 44.68384257601204 -8.730590382606394 40.348414341734411 0 0.73135370988377701 0.68199835119979291 1 0 0 forward_v I I I I #
loop $-1 $-1 $260 $69 #
coedge $-1 $176 $176 $177 $261 reversed $109 $-1 #
coedge $-1 $177 $177 $176 $261 forward $111 $-1 #
coedge $-1 $178 $178 $112 $179 forward $173 $-1 #
edge $-1 $262 -5.9776333289801244e-016 $262 6.2831853071795996 $178 $263 forward 7 unknown #
face $-1 $264 $265 $27 $-1 $266 reversed single #
loop $-1 $-1 $267 $113 #
plane-surface $-1 -57.894833216345717 0 0 1 0 0 0 0 -1 forward_v I I I I #
coedge $-1 $268 $191 $269 $270 forward $114 $-1 #
coedge $-1 $271 $116 $268 $272 forward $73 $-1 #
coedge $-1 $116 $271 $273 $274 forward $73 $-1 #
coedge $-1 $194 $193 $116 $187 reversed $195 $-1 #
edge $-1 $275 -23.985355705289308 $276 23.985355705289308 $186 $277 forward 7 unknown #
coedge $-1 $118 $117 $278 $279 forward $46 $-1 #
coedge $-1 $280 $281 $117 $190 reversed $265 $-1 #
edge $-1 $197 -57.894833216345717 $282 57.894833216345717 $189 $283 forward 7 unknown #
coedge $-1 $183 $284 $118 $192 reversed $114 $-1 #
edge $-1 $285 -57.894833216345717 $196 57.894833216345717 $191 $286 forward 7 unknown #
coedge $-1 $186 $119 $284 $287 forward $195 $-1 #
coedge $-1 $119 $186 $280 $288 reversed $195 $-1 #
loop $-1 $-1 $193 $264 #
vertex $-1 $120 $289 #
vertex $-1 $120 $290 #
straight-curve $-1 57.894833216345717 0 10.602395370542052 0 1 0 I I #
face $-1 $291 $292 $28 $-1 $293 reversed single #
loop $-1 $-1 $294 $121 #
plane-surface $-1 -57.894833216345717 0 0 1 0 0 0 0 -1 forward_v I I I I #
coedge $-1 $210 $295 $204 $296 forward $122 $-1 #
coedge $-1 $127 $124 $297 $298 reversed $77 $-1 #
coedge $-1 $124 $127 $202 $296 reversed $77 $-1 #
coedge $-1 $299 $300 $124 $206 forward $301 $-1 #
edge $-1 $302 -10.602395370542052 $303 10.602395370542052 $205 $304 forward 7 unknown #
coedge $-1 $126 $125 $294 $305 reversed $49 $-1 #
coedge $-1 $297 $306 $125 $209 forward $292 $-1 #
edge $-1 $307 -32.189406302662171 $213 -19.221447524704921 $208 $308 forward 7 unknown #
coedge $-1 $309 $202 $126 $211 forward $122 $-1 #
edge $-1 $212 19.221447524704921 $310 32.189406302662171 $210 $311 forward 7 unknown #
vertex $-1 $211 $312 #
vertex $-1 $209 $313 #
straight-curve $-1 -44.926874438388467 -20.253372071610364 0 0 0 -1 I I #
face $-1 $-1 $314 $29 $-1 $315 reversed single #
loop $-1 $-1 $135 $129 #
plane-surface $-1 0 0 10.602395370542052 0 0 1 1 0 0 forward_v I I I I #
coedge $-1 $316 $317 $318 $319 reversed $130 $-1 #
coedge $-1 $320 $132 $134 $225 forward $81 $-1 #
coedge $-1 $132 $320 $316 $321 forward $81 $-1 #
coedge $-1 $318 $135 $132 $222 forward $216 $-1 #
edge $-1 $228 3.2364498664048309 $322 16.4532457424684 $221 $323 forward 7 unknown #
coedge $-1 $324 $325 $133 $224 forward $314 $-1 #
edge $-1 $326 -25.65038408067171 $227 -21.642052213843034 $223 $327 forward 7 unknown #
edge $-1 $228 -4.6284229232903673 $326 -2.8642609447069912e-014 $134 $328 forward 7 unknown #
coedge $-1 $135 $318 $324 $329 forward $216 $-1 #
vertex $-1 $224 $330 #
vertex $-1 $136 $331 #
straight-curve $-1 -13.081297670841446 -62.131074613681712 10.602395370542052 0 1 0 I I #
coedge $-1 $230 $230 $-1 $332 reversed $139 $-1 #
edge $-1 $333 0 $333 6.2831853071796004 $140 $334 forward 7 unknown #
vertex $-1 $143 $335 #
ellipse-curve $-1 -23.6547343716923 -22.828250005471311 8.5982294371277099 0 -0.86602541151947299 0.49999998660252726 1 0 0 1 I I #
coedge $-1 $234 $234 $-1 $336 reversed $146 $-1 #
edge $-1 $337 0 $337 6.2831853071796004 $147 $338 forward 7 unknown #
vertex $-1 $150 $339 #
ellipse-curve $-1 -19.68969560887323 -22.828250005471311 8.5982294371277099 0 -0.86602541151947299 0.49999998660252726 1 0 0 1 I I #
coedge $-1 $238 $238 $-1 $340 reversed $153 $-1 #
edge $-1 $341 0 $341 6.2831853071796004 $154 $342 forward 7 unknown #
vertex $-1 $157 $343 #
ellipse-curve $-1 -15.72465684605416 -22.828250005471311 8.5982294371277099 0 -0.86602541151947299 0.49999998660252726 1 0 0 1 I I #
face $-1 $-1 $344 $33 $-1 $345 reversed single #
loop $-1 $-1 $346 $158 #
plane-surface $-1 57.894833216345717 0 0 -1 0 0 0 0 1 forward_v I I I I #
coedge $-1 $347 $161 $163 $251 forward $100 $-1 #
coedge $-1 $161 $347 $346 $348 reversed $100 $-1 #
coedge $-1 $349 $164 $161 $248 forward $159 $-1 #
edge $-1 $254 9.1309306476723435 $350 35.552911928339697 $247 $351 forward 7 unknown #
coedge $-1 $352 $353 $162 $250 forward $344 $-1 #
edge $-1 $354 -54.393531381558276 $253 -49.055992596859937 $249 $355 forward 7 unknown #
edge $-1 $254 40.672548138054083 $354 47.970711410578609 $163 $356 forward 7 unknown #
coedge $-1 $164 $349 $352 $357 forward $159 $-1 #
vertex $-1 $250 $358 #
vertex $-1 $165 $359 #
straight-curve $-1 31.472851935678364 37.976305864573767 10.602395370542055 0 -1 0 I I #
coedge $-1 $256 $256 $-1 $360 reversed $168 $-1 #
edge $-1 $361 0 $361 6.2831853071796004 $169 $362 forward 7 unknown #
vertex $-1 $172 $363 #
ellipse-curve $-1 39.021989444440464 21.496688045965001 7.9336259781928806 0 0.73135370988377701 0.68199835119979291 1 0 0 1 I I #
coedge $-1 $260 $260 $-1 $364 reversed $175 $-1 #
edge $-1 $365 0 $365 6.2831853071796004 $176 $366 forward 7 unknown #
vertex $-1 $179 $367 #
ellipse-curve $-1 50.345695707583616 21.496688045965001 7.9336259781928806 0 0.73135370988377701 0.68199835119979291 1 0 0 1 I I #
face $-1 $-1 $195 $27 $-1 $368 reversed single #
loop $-1 $-1 $280 $180 #
plane-surface $-1 0 23.985355705289308 0 0 -1 0 0 0 -1 forward_v I I I I #
coedge $-1 $369 $278 $281 $370 forward $181 $-1 #
coedge $-1 $284 $183 $184 $272 reversed $114 $-1 #
coedge $-1 $278 $369 $183 $270 reversed $181 $-1 #
edge $-1 $285 -10.602395370542052 $371 10.602395370542052 $269 $372 forward 7 unknown #
coedge $-1 $185 $184 $369 $373 forward $73 $-1 #
edge $-1 $276 -57.894833216345717 $371 57.894833216345717 $268 $374 forward 7 unknown #
coedge $-1 $281 $280 $185 $274 reversed $265 $-1 #
edge $-1 $375 -57.894833216345717 $275 57.894833216345717 $273 $376 forward 7 unknown #
vertex $-1 $187 $377 #
vertex $-1 $287 $378 #
straight-curve $-1 57.894833216345717 0 -10.602395370542052 0 -1 0 I I #
coedge $-1 $267 $269 $188 $279 reversed $181 $-1 #
edge $-1 $282 -23.985355705289308 $285 23.985355705289308 $278 $379 forward 7 unknown #
coedge $-1 $273 $189 $194 $288 forward $265 $-1 #
coedge $-1 $189 $273 $267 $370 reversed $265 $-1 #
vertex $-1 $190 $380 #
straight-curve $-1 0 23.985355705289308 10.602395370542052 -1 0 0 I I #
coedge $-1 $191 $268 $193 $287 reversed $114 $-1 #
vertex $-1 $279 $381 #
straight-curve $-1 0 -23.985355705289308 10.602395370542052 1 0 0 I I #
edge $-1 $196 -10.602395370542052 $276 10.602395370542052 $193 $382 forward 7 unknown #
edge $-1 $197 -10.602395370542052 $275 10.602395370542052 $194 $383 forward 7 unknown #
point $-1 57.894833216345717 -23.985355705289308 10.602395370542052 #
point $-1 57.894833216345717 23.985355705289308 10.602395370542052 #
face $-1 $-1 $301 $28 $-1 $384 reversed single #
loop $-1 $-1 $297 $199 #
plane-surface $-1 0 0 -10.602395370542052 0 0 1 1 0 0 forward_v I I I I #
coedge $-1 $385 $386 $207 $305 forward $200 $-1 #
coedge $-1 $202 $309 $299 $387 forward $122 $-1 #
edge $-1 $303 -12.92567376106439 $212 -9.1936901273854463 $202 $388 forward 7 unknown #
coedge $-1 $389 $208 $203 $298 forward $292 $-1 #
edge $-1 $213 9.1936901273854463 $302 12.92567376106439 $297 $390 forward 7 unknown #
coedge $-1 $391 $205 $295 $387 reversed $301 $-1 #
coedge $-1 $205 $391 $389 $392 reversed $301 $-1 #
loop $-1 $-1 $205 $291 #
vertex $-1 $392 $393 #
vertex $-1 $206 $394 #
straight-curve $-1 -44.926874438388467 -23.985355705289308 0 0 0 1 I I #
edge $-1 $310 -10.602395370542052 $307 10.602395370542052 $294 $395 forward 7 unknown #
coedge $-1 $208 $389 $385 $396 forward $292 $-1 #
vertex $-1 $209 $397 #
straight-curve $-1 -25.705426913683546 -20.253372071610364 -10.602395370542052 1 0 0 I I #
coedge $-1 $295 $210 $386 $398 forward $122 $-1 #
vertex $-1 $398 $399 #
straight-curve $-1 -25.705426913683546 -20.253372071610364 10.602395370542052 -1 0 0 I I #
point $-1 -44.926874438388467 -20.253372071610364 10.602395370542052 #
point $-1 -44.926874438388467 -20.253372071610364 -10.602395370542052 #
loop $-1 $-1 $223 $215 #
plane-surface $-1 0 -23.985355705289308 0 0 1 0 0 0 1 forward_v I I I I #
coedge $-1 $317 $218 $220 $321 reversed $130 $-1 #
coedge $-1 $218 $316 $400 $401 reversed $130 $-1 #
coedge $-1 $226 $221 $218 $319 forward $216 $-1 #
edge $-1 $322 -40.459930308028405 $402 -38.145718908392404 $318 $403 forward 7 unknown #
coedge $-1 $220 $219 $325 $404 reversed $81 $-1 #
edge $-1 $405 2.8642609447069912e-014 $322 4.6284229232903673 $316 $406 forward 7 unknown #
vertex $-1 $222 $407 #
straight-curve $-1 -9.8448478044366148 -21.671144305653307 10.602395370542052 -1 0 0 I I #
coedge $-1 $400 $223 $226 $329 reversed $314 $-1 #
coedge $-1 $223 $400 $320 $404 forward $314 $-1 #
vertex $-1 $224 $408 #
straight-curve $-1 -13.081297670841446 -23.985355705289308 32.244447584385085 0 0 1 I I #
straight-curve $-1 -13.081297670841446 -23.985355705289322 6.5940635037133504 0 -0.49999998660252726 -0.86602541151947299 I I #
edge $-1 $402 -26.298093546905015 $227 -13.081297670841446 $324 $409 forward 7 unknown #
point $-1 -13.081297670841446 -23.985355705289308 10.602395370542052 #
point $-1 -13.081297670841446 -21.671144305653307 10.602395370542052 #
edge $-1 $410 1 $410 0 $230 $-1 forward 7 unknown #
vertex $-1 $231 $411 #
ellipse-curve $-1 -23.6547343716923 -20.710086165162302 7.375307017428427 0 -0.86602541151947299 0.49999998660252726 1 0 0 1 I I #
point $-1 -22.6547343716923 -22.828250005471304 8.5982294371277082 #
edge $-1 $412 1 $412 0 $234 $-1 forward 7 unknown #
vertex $-1 $235 $413 #
ellipse-curve $-1 -19.68969560887323 -20.710086165162302 7.375307017428427 0 -0.86602541151947299 0.49999998660252726 1 0 0 1 I I #
point $-1 -18.68969560887323 -22.828250005471304 8.5982294371277082 #
edge $-1 $414 1 $414 0 $238 $-1 forward 7 unknown #
vertex $-1 $239 $415 #
ellipse-curve $-1 -15.72465684605416 -20.710086165162302 7.375307017428427 0 -0.86602541151947299 0.49999998660252726 1 0 0 1 I I #
point $-1 -14.72465684605416 -22.828250005471304 8.5982294371277082 #
loop $-1 $-1 $249 $242 #
plane-surface $-1 0 23.985355705289308 0 0 -1 0 0 0 -1 forward_v I I I I #
coedge $-1 $416 $417 $246 $348 forward $243 $-1 #
coedge $-1 $246 $245 $353 $418 reversed $100 $-1 #
edge $-1 $350 22.940942756707287 $419 30.239106029231817 $346 $420 forward 7 unknown #
coedge $-1 $252 $247 $417 $421 forward $159 $-1 #
vertex $-1 $421 $422 #
straight-curve $-1 22.34192128800602 19.008020386640702 10.602395370542052 1 0 0 I I #
coedge $-1 $423 $249 $252 $357 reversed $344 $-1 #
coedge $-1 $249 $423 $347 $418 forward $344 $-1 #
vertex $-1 $250 $424 #
straight-curve $-1 31.472851935678364 23.985355705289308 59.658387967401985 0 0 1 I I #
straight-curve $-1 31.472851935678364 -8.730590382606394 40.348414341734411 0 0.68199835119979291 -0.73135370988377701 I I #
edge $-1 $425 -57.894833216345717 $253 -31.472851935678364 $352 $426 forward 7 unknown #
point $-1 31.472851935678364 23.985355705289308 10.602395370542052 #
point $-1 31.472851935678364 19.008020386640698 10.602395370542052 #
edge $-1 $427 1 $427 0 $256 $-1 forward 7 unknown #
vertex $-1 $257 $428 #
ellipse-curve $-1 39.021989444440464 19.222186266561735 5.8126188069835747 0 0.73135370988377701 0.68199835119979291 1 0 0 1 I I #
point $-1 40.021989444440464 21.496688045964987 7.9336259781928682 #
edge $-1 $429 1 $429 0 $260 $-1 forward 7 unknown #
vertex $-1 $261 $430 #
ellipse-curve $-1 50.345695707583616 19.222186266561735 5.8126188069835747 0 0.73135370988377701 0.68199835119979291 1 0 0 1 I I #
point $-1 51.345695707583616 21.496688045964987 7.9336259781928682 #
plane-surface $-1 57.894833216345717 0 0 -1 0 0 0 0 1 forward_v I I I I #
coedge $-1 $269 $267 $271 $373 reversed $181 $-1 #
edge $-1 $282 -10.602395370542052 $375 10.602395370542052 $281 $431 forward 7 unknown #
vertex $-1 $373 $432 #
straight-curve $-1 -57.894833216345717 -23.985355705289308 0 0 0 -1 I I #
edge $-1 $371 -23.985355705289308 $375 23.985355705289308 $369 $433 forward 7 unknown #
straight-curve $-1 0 -23.985355705289308 -10.602395370542052 -1 0 0 I I #
vertex $-1 $274 $434 #
straight-curve $-1 0 23.985355705289308 -10.602395370542052 1 0 0 I I #
point $-1 57.894833216345717 23.985355705289308 -10.602395370542052 #
point $-1 57.894833216345717 -23.985355705289308 -10.602395370542052 #
straight-curve $-1 -57.894833216345717 0 10.602395370542052 0 -1 0 I I #
point $-1 -57.894833216345717 23.985355705289308 10.602395370542052 #
point $-1 -57.894833216345717 -23.985355705289308 10.602395370542052 #
straight-curve $-1 57.894833216345717 -23.985355705289308 0 0 0 -1 I I #
straight-curve $-1 57.894833216345717 23.985355705289308 0 0 0 -1 I I #
plane-surface $-1 0 -23.985355705289308 0 0 1 0 0 0 1 forward_v I I I I #
coedge $-1 $435 $294 $306 $396 reversed $200 $-1 #
coedge $-1 $294 $435 $309 $398 reversed $200 $-1 #
edge $-1 $436 -57.894833216345717 $303 -44.926874438388467 $299 $437 forward 7 unknown #
straight-curve $-1 -44.926874438388467 -11.059681944224918 10.602395370542052 0 1 0 I I #
coedge $-1 $306 $297 $300 $392 forward $292 $-1 #
straight-curve $-1 -44.926874438388467 -11.059681944224918 -10.602395370542052 0 -1 0 I I #
coedge $-1 $300 $299 $435 $438 forward $301 $-1 #
edge $-1 $302 44.926874438388467 $439 57.894833216345717 $300 $440 forward 7 unknown #
point $-1 -44.926874438388467 -23.985355705289308 -10.602395370542052 #
point $-1 -44.926874438388467 -23.985355705289308 10.602395370542052 #
straight-curve $-1 -57.894833216345717 -20.253372071610364 0 0 0 -1 I I #
edge $-1 $439 -23.985355705289308 $307 -20.253372071610364 $385 $441 forward 7 unknown #
point $-1 -57.894833216345717 -20.253372071610364 -10.602395370542052 #
edge $-1 $310 20.253372071610364 $436 23.985355705289308 $386 $442 forward 7 unknown #
point $-1 -57.894833216345717 -20.253372071610364 10.602395370542052 #
coedge $-1 $325 $324 $317 $401 forward $314 $-1 #
edge $-1 $402 21.642052213843034 $405 25.65038408067171 $400 $443 forward 7 unknown #
vertex $-1 $329 $444 #
straight-curve $-1 -26.298093546905015 -62.131074613681712 10.602395370542052 0 -1 0 I I #
edge $-1 $405 -16.4532457424684 $326 -3.2364498664048309 $325 $445 forward 7 unknown #
vertex $-1 $404 $446 #
straight-curve $-1 -26.298093546905015 -23.985355705289322 6.5940635037133504 0 0.49999998660252726 0.86602541151947299 I I #
point $-1 -26.298093546905015 -21.671144305653307 10.602395370542052 #
point $-1 -13.081297670841446 -23.985355705289308 6.5940635037133752 #
straight-curve $-1 0 -23.985355705289308 10.602395370542052 1 0 0 I I #
vertex $-1 $332 $447 #
point $-1 -22.6547343716923 -20.710086165162302 7.375307017428427 #
vertex $-1 $336 $448 #
point $-1 -18.68969560887323 -20.710086165162302 7.375307017428427 #
vertex $-1 $340 $449 #
point $-1 -14.72465684605416 -20.710086165162302 7.375307017428427 #
coedge $-1 $417 $346 $423 $450 reversed $243 $-1 #
coedge $-1 $346 $416 $349 $421 reversed $243 $-1 #
edge $-1 $419 -35.552911928339697 $354 -9.1309306476723435 $353 $451 forward 7 unknown #
vertex $-1 $348 $452 #
straight-curve $-1 57.894833216345717 3.3623352515974947 27.38033896389129 0 0.68199835119979291 -0.73135370988377701 I I #
edge $-1 $350 19.008020386640698 $425 23.985355705289308 $417 $453 forward 7 unknown #
point $-1 57.894833216345717 19.008020386640698 10.602395370542052 #
coedge $-1 $353 $352 $416 $450 forward $344 $-1 #
point $-1 31.472851935678364 23.985355705289308 5.2648565858437095 #
vertex $-1 $421 $454 #
straight-curve $-1 0 23.985355705289308 10.602395370542052 -1 0 0 I I #
vertex $-1 $360 $455 #
point $-1 40.021989444440464 19.222186266561735 5.8126188069835747 #
vertex $-1 $364 $456 #
point $-1 51.345695707583616 19.222186266561735 5.8126188069835747 #
straight-curve $-1 -57.894833216345717 23.985355705289308 0 0 0 -1 I I #
point $-1 -57.894833216345717 -23.985355705289308 -10.602395370542052 #
straight-curve $-1 -57.894833216345717 0 -10.602395370542052 0 1 0 I I #
point $-1 -57.894833216345717 23.985355705289308 -10.602395370542052 #
coedge $-1 $386 $385 $391 $438 reversed $200 $-1 #
vertex $-1 $398 $457 #
straight-curve $-1 0 -23.985355705289308 10.602395370542052 1 0 0 I I #
edge $-1 $436 -10.602395370542052 $439 10.602395370542052 $435 $458 forward 7 unknown #
vertex $-1 $396 $459 #
straight-curve $-1 0 -23.985355705289308 -10.602395370542052 -1 0 0 I I #
straight-curve $-1 -57.894833216345717 0 -10.602395370542052 0 1 0 I I #
straight-curve $-1 -57.894833216345717 0 10.602395370542052 0 -1 0 I I #
straight-curve $-1 -26.298093546905015 -23.985355705289308 32.244447584385085 0 0 -1 I I #
point $-1 -26.298093546905015 -23.985355705289308 10.602395370542052 #
straight-curve $-1 -9.8448478044366148 -23.985355705289308 6.5940635037133726 1 0 0 I I #
point $-1 -26.298093546905015 -23.985355705289308 6.5940635037133752 #
point $-1 -23.6547343716923 -19.844060753642829 6.8753070308259003 #
point $-1 -19.68969560887323 -19.844060753642829 6.8753070308259003 #
point $-1 -15.72465684605416 -19.844060753642829 6.8753070308259003 #
edge $-1 $425 -10.602395370542052 $419 -5.2648565858437095 $416 $460 forward 7 unknown #
straight-curve $-1 22.34192128800602 23.985355705289308 5.2648565858437131 -1 0 0 I I #
point $-1 57.894833216345717 23.985355705289308 5.2648565858437095 #
straight-curve $-1 57.894833216345717 0 10.602395370542052 0 1 0 I I #
point $-1 57.894833216345717 23.985355705289308 10.602395370542052 #
point $-1 39.021989444440464 18.490832556677958 5.1306204557837818 #
point $-1 50.345695707583616 18.490832556677958 5.1306204557837818 #
point $-1 -57.894833216345717 -23.985355705289308 10.602395370542052 #
straight-curve $-1 -57.894833216345717 -23.985355705289308 0 0 0 -1 I I #
point $-1 -57.894833216345717 -23.985355705289308 -10.602395370542052 #
straight-curve $-1 57.894833216345717 23.985355705289308 0 0 0 -1 I I #
End-of-ACIS-data 