500 0 4 0           
7 Unknown 11 ACIS 5.0 NT 24 Fri Mar 26 15:10:17 1999 
-1 9.9999999999999995e-007 1e-010 
body $-1 $4 $-1 $5 #
body $-1 $6 $-1 $7 #
body $-1 $8 $-1 $9 #
body $-1 $10 $-1 $11 #
lump $-1 $-1 $12 $0 #
transform $-1 1 0 0 0 1 0 0 0 1 76.299935911130092 34.296433486760179 16.041042838466762 1 rotate no_reflect no_shear #
lump $-1 $-1 $13 $1 #
transform $-1 1 0 0 0 1 0 0 0 1 76.299935911130092 34.296433486760179 16.041042838466762 1 rotate no_reflect no_shear #
lump $-1 $-1 $14 $2 #
transform $-1 1 0 0 0 1 0 0 0 1 76.299935911130092 34.296433486760179 16.041042838466762 1 rotate no_reflect no_shear #
lump $-1 $-1 $15 $3 #
transform $-1 1 0 0 0 1 0 0 0 1 76.299935911130092 34.296433486760179 16.041042838466762 1 rotate no_reflect no_shear #
shell $-1 $-1 $-1 $16 $-1 $4 #
shell $-1 $-1 $-1 $17 $-1 $6 #
shell $-1 $-1 $-1 $18 $-1 $8 #
shell $-1 $-1 $-1 $19 $-1 $10 #
face $-1 $20 $21 $12 $-1 $22 forward single #
face $-1 $23 $24 $13 $-1 $25 forward single #
face $-1 $26 $27 $14 $-1 $28 forward single #
face $-1 $29 $30 $15 $-1 $31 reversed single #
face $-1 $32 $33 $12 $-1 $34 reversed single #
loop $-1 $-1 $35 $16 #
plane-surface $-1 0 0 16.041042838466762 0 0 1 1 0 0 forward_v I I I I #
face $-1 $36 $37 $13 $-1 $38 forward single #
loop $-1 $-1 $39 $17 #
plane-surface $-1 0 -23.757164332133719 7.91952751873667 0 0 1 1 0 0 forward_v I I I I #
face $-1 $40 $41 $14 $-1 $42 forward single #
loop $-1 $-1 $43 $18 #
plane-surface $-1 -40.491801066494446 77.02397656945098 162.09238384244102 -1 0 0 0 0.62932039886446345 0.77714595512881146 forward_v I I I I #
face $-1 $44 $45 $15 $-1 $46 reversed single #
loop $-1 $47 $48 $19 #
cone-surface $-1 -58.395868488812269 23.024960854087713 6.2450349292918492 0 -0.62932039886446345 -0.77714595512881146 2 0 0 1 I I 0 1 2 forward I I I I #
face $-1 $49 $50 $12 $-1 $51 reversed single #
loop $-1 $-1 $52 $20 #
plane-surface $-1 0 0 -16.041042838466762 0 0 1 1 0 0 forward_v I I I I #
coedge $-1 $53 $54 $55 $56 forward $21 $-1 #
face $-1 $57 $58 $13 $-1 $59 forward single #
loop $-1 $-1 $60 $23 #
plane-surface $-1 0 -13.217895177507257 11.980285178601715 0 -1 0 0 0 -1 forward_v I I I I #
coedge $-1 $61 $62 $63 $64 reversed $24 $-1 #
face $-1 $65 $66 $14 $-1 $67 reversed single #
loop $-1 $-1 $68 $26 #
plane-surface $-1 -58.395868488812269 -19.010235632399798 43.500010702596427 0 0.62932039886446345 0.77714595512881146 1 0 0 forward_v I I I I #
coedge $-1 $69 $70 $71 $72 reversed $27 $-1 #
face $-1 $73 $74 $15 $-1 $75 forward single #
loop $-1 $76 $77 $29 #
cone-surface $-1 -58.395868488812269 20.823002062321279 3.5258423344397656 0 -0.62932039886446345 -0.77714595512881146 1 0 0 1 I I -0.70710678118654746 0.70710678118654746 1 forward I I I I #
loop $-1 $-1 $78 $19 #
coedge $-1 $48 $48 $79 $80 reversed $30 $-1 #
face $-1 $81 $82 $12 $-1 $83 reversed single #
loop $-1 $-1 $84 $32 #
plane-surface $-1 0 -34.296433486760179 0 0 1 0 0 0 1 forward_v I I I I #
coedge $-1 $85 $86 $87 $88 forward $33 $-1 #
coedge $-1 $89 $35 $90 $91 forward $21 $-1 #
coedge $-1 $35 $89 $92 $93 forward $21 $-1 #
coedge $-1 $94 $95 $35 $56 reversed $96 $-1 #
edge $-1 $97 -34.296433486760179 $98 34.296433486760179 $55 $99 forward 7 unknown #
face $-1 $100 $101 $13 $-1 $102 reversed single #
loop $-1 $-1 $103 $36 #
plane-surface $-1 0 0 16.041042838466762 0 0 1 1 0 0 forward_v I I I I #
coedge $-1 $104 $105 $106 $107 reversed $37 $-1 #
coedge $-1 $108 $39 $105 $109 reversed $24 $-1 #
coedge $-1 $39 $108 $110 $111 reversed $24 $-1 #
coedge $-1 $112 $106 $39 $64 forward $101 $-1 #
edge $-1 $113 1.3393130114403977 $114 22.41785132069332 $63 $115 forward 7 unknown #
face $-1 $116 $117 $14 $-1 $118 forward single #
loop $-1 $-1 $119 $40 #
plane-surface $-1 0 34.296433486760179 0 0 -1 0 0 0 -1 forward_v I I I I #
coedge $-1 $120 $121 $119 $122 reversed $41 $-1 #
coedge $-1 $70 $43 $121 $123 forward $27 $-1 #
coedge $-1 $43 $69 $124 $125 reversed $27 $-1 #
coedge $-1 $126 $119 $43 $72 forward $66 $-1 #
edge $-1 $127 -80.713071621656979 $128 -65.005149082753746 $71 $129 forward 7 unknown #
face $-1 $130 $131 $15 $-1 $132 forward single #
loop $-1 $-1 $133 $44 #
plane-surface $-1 -40.491801066494446 77.02397656945098 162.09238384244102 -1 0 0 0 0.62932039886446345 0.77714595512881146 forward_v I I I I #
loop $-1 $-1 $134 $29 #
coedge $-1 $77 $77 $78 $135 forward $45 $-1 #
coedge $-1 $78 $78 $77 $135 reversed $47 $-1 #
coedge $-1 $79 $79 $48 $80 forward $131 $-1 #
edge $-1 $136 -9.2284049985236087e-016 $136 6.2831853071795996 $79 $137 forward 7 unknown #
face $-1 $138 $139 $12 $-1 $140 reversed single #
loop $-1 $-1 $141 $49 #
plane-surface $-1 -76.299935911130092 0 0 1 0 0 0 0 -1 forward_v I I I I #
coedge $-1 $142 $92 $143 $144 forward $50 $-1 #
coedge $-1 $145 $52 $142 $146 forward $33 $-1 #
coedge $-1 $52 $145 $147 $148 forward $33 $-1 #
coedge $-1 $95 $94 $52 $88 reversed $96 $-1 #
edge $-1 $149 -34.296433486760179 $150 34.296433486760179 $87 $151 forward 7 unknown #
coedge $-1 $54 $53 $152 $153 forward $21 $-1 #
coedge $-1 $154 $155 $53 $91 reversed $139 $-1 #
edge $-1 $98 -76.299935911130092 $156 76.299935911130092 $90 $157 forward 7 unknown #
coedge $-1 $84 $158 $54 $93 reversed $50 $-1 #
edge $-1 $159 -76.299935911130092 $97 76.299935911130092 $92 $160 forward 7 unknown #
coedge $-1 $87 $55 $158 $161 forward $96 $-1 #
coedge $-1 $55 $87 $154 $162 reversed $96 $-1 #
loop $-1 $-1 $94 $138 #
vertex $-1 $56 $163 #
vertex $-1 $56 $164 #
straight-curve $-1 76.299935911130092 0 16.041042838466762 0 1 0 I I #
face $-1 $165 $166 $13 $-1 $167 reversed single #
loop $-1 $-1 $106 $57 #
plane-surface $-1 76.299935911130092 0 0 -1 0 0 0 0 1 forward_v I I I I #
coedge $-1 $168 $169 $104 $170 forward $58 $-1 #
coedge $-1 $171 $60 $103 $170 reversed $37 $-1 #
coedge $-1 $60 $171 $61 $109 forward $37 $-1 #
coedge $-1 $63 $172 $60 $107 forward $101 $-1 #
edge $-1 $173 -10.050900249165901 $113 -1.9293849294358125 $106 $174 forward 7 unknown #
coedge $-1 $62 $61 $175 $176 reversed $24 $-1 #
edge $-1 $177 -76.299935911130092 $113 76.299935911130092 $105 $178 forward 7 unknown #
coedge $-1 $179 $180 $62 $111 forward $181 $-1 #
edge $-1 $114 -76.299935911130092 $182 76.299935911130092 $110 $183 forward 7 unknown #
coedge $-1 $184 $63 $180 $185 forward $101 $-1 #
vertex $-1 $64 $186 #
vertex $-1 $185 $187 #
straight-curve $-1 76.299935911130092 -11.87858216606686 7.91952751873667 0 -1 0 I I #
face $-1 $188 $189 $14 $-1 $190 forward single #
loop $-1 $-1 $124 $65 #
plane-surface $-1 0 0 16.041042838466762 0 0 1 1 0 0 forward_v I I I I #
coedge $-1 $71 $191 $68 $122 forward $66 $-1 #
coedge $-1 $192 $68 $193 $194 reversed $41 $-1 #
coedge $-1 $68 $192 $69 $123 reversed $41 $-1 #
edge $-1 $195 -47.102001666723957 $127 -11.293866822088312 $119 $196 forward 7 unknown #
edge $-1 $127 -68.592866973520344 $197 -43.632731298200767 $69 $198 forward 7 unknown #
coedge $-1 $199 $200 $70 $125 forward $117 $-1 #
edge $-1 $128 4.2155547979653107 $197 23.613223277506265 $124 $201 forward 7 unknown #
coedge $-1 $202 $71 $200 $203 reversed $66 $-1 #
vertex $-1 $122 $204 #
vertex $-1 $125 $205 #
straight-curve $-1 -40.491801066494446 34.296433486760179 81.046191921220512 0 0 1 I I #
face $-1 $206 $207 $15 $-1 $208 reversed single #
loop $-1 $209 $79 $73 #
plane-surface $-1 -58.395868488812269 -19.010235632399798 43.500010702596427 0 0.62932039886446345 0.77714595512881146 1 0 0 forward_v I I I I #
coedge $-1 $210 $211 $212 $213 reversed $74 $-1 #
coedge $-1 $134 $134 $-1 $214 forward $76 $-1 #
edge $-1 $215 0 $215 6.2831853071796004 $77 $216 forward 7 unknown #
vertex $-1 $80 $217 #
ellipse-curve $-1 -58.395868488812269 24.597599246989702 8.1870815690151471 0 -0.62932039886446345 -0.77714595512881146 2 0 0 1 I I #
face $-1 $-1 $96 $12 $-1 $218 reversed single #
loop $-1 $-1 $154 $81 #
plane-surface $-1 0 34.296433486760179 0 0 -1 0 0 0 -1 forward_v I I I I #
coedge $-1 $219 $152 $155 $220 forward $82 $-1 #
coedge $-1 $158 $84 $85 $146 reversed $50 $-1 #
coedge $-1 $152 $219 $84 $144 reversed $82 $-1 #
edge $-1 $159 -16.041042838466762 $221 16.041042838466762 $143 $222 forward 7 unknown #
coedge $-1 $86 $85 $219 $223 forward $33 $-1 #
edge $-1 $150 -76.299935911130092 $221 76.299935911130092 $142 $224 forward 7 unknown #
coedge $-1 $155 $154 $86 $148 reversed $139 $-1 #
edge $-1 $225 -76.299935911130092 $149 76.299935911130092 $147 $226 forward 7 unknown #
vertex $-1 $88 $227 #
vertex $-1 $161 $228 #
straight-curve $-1 76.299935911130092 0 -16.041042838466762 0 -1 0 I I #
coedge $-1 $141 $143 $89 $153 reversed $82 $-1 #
edge $-1 $156 -34.296433486760179 $159 34.296433486760179 $152 $229 forward 7 unknown #
coedge $-1 $147 $90 $95 $162 forward $139 $-1 #
coedge $-1 $90 $147 $141 $220 reversed $139 $-1 #
vertex $-1 $91 $230 #
straight-curve $-1 0 34.296433486760179 16.041042838466762 -1 0 0 I I #
coedge $-1 $92 $142 $94 $161 reversed $50 $-1 #
vertex $-1 $153 $231 #
straight-curve $-1 0 -34.296433486760179 16.041042838466762 1 0 0 I I #
edge $-1 $97 -16.041042838466762 $150 16.041042838466762 $94 $232 forward 7 unknown #
edge $-1 $98 -16.041042838466762 $149 16.041042838466762 $95 $233 forward 7 unknown #
point $-1 76.299935911130092 -34.296433486760179 16.041042838466762 #
point $-1 76.299935911130092 34.296433486760179 16.041042838466762 #
face $-1 $234 $181 $13 $-1 $235 reversed single #
loop $-1 $-1 $236 $100 #
plane-surface $-1 0 0 -16.041042838466762 0 0 1 1 0 0 forward_v I I I I #
coedge $-1 $237 $103 $172 $238 forward $58 $-1 #
coedge $-1 $103 $237 $239 $240 forward $58 $-1 #
edge $-1 $241 -76.299935911130092 $173 76.299935911130092 $103 $242 forward 7 unknown #
coedge $-1 $105 $104 $243 $244 reversed $37 $-1 #
coedge $-1 $106 $245 $168 $238 reversed $101 $-1 #
vertex $-1 $238 $246 #
straight-curve $-1 76.299935911130092 -13.217895177507257 5.9901425893008575 0 0 -1 I I #
coedge $-1 $243 $247 $108 $176 forward $248 $-1 #
edge $-1 $182 -22.41785132069332 $177 -1.3393130114403977 $175 $249 forward 7 unknown #
vertex $-1 $176 $250 #
straight-curve $-1 0 -13.217895177507257 7.91952751873667 1 0 0 I I #
coedge $-1 $251 $110 $247 $252 forward $181 $-1 #
coedge $-1 $110 $251 $112 $185 reversed $181 $-1 #
loop $-1 $-1 $110 $165 #
vertex $-1 $252 $253 #
straight-curve $-1 0 -34.296433486760179 7.91952751873667 -1 0 0 I I #
coedge $-1 $245 $112 $236 $254 reversed $101 $-1 #
edge $-1 $114 -7.91952751873667 $255 16.041042838466762 $112 $256 forward 7 unknown #
point $-1 76.299935911130092 -13.217895177507257 7.91952751873667 #
point $-1 76.299935911130092 -34.296433486760179 7.91952751873667 #
face $-1 $257 $258 $14 $-1 $259 forward single #
loop $-1 $-1 $260 $116 #
plane-surface $-1 0 -23.757164332133719 7.91952751873667 0 0 1 1 0 0 forward_v I I I I #
coedge $-1 $119 $261 $262 $263 reversed $66 $-1 #
coedge $-1 $121 $120 $199 $264 reversed $41 $-1 #
coedge $-1 $262 $265 $120 $194 forward $266 $-1 #
edge $-1 $267 22.558145391335014 $195 47.518281066654581 $193 $268 forward 7 unknown #
vertex $-1 $263 $269 #
straight-curve $-1 -29.197934244406134 34.296433486760186 0.33312029956352163 1 0 0 I I #
vertex $-1 $264 $270 #
straight-curve $-1 -40.491801066494446 -19.010235632399798 43.500010702596427 0 -0.77714595512881146 0.62932039886446345 I I #
coedge $-1 $271 $124 $192 $264 forward $117 $-1 #
coedge $-1 $124 $272 $126 $203 forward $117 $-1 #
straight-curve $-1 -40.491801066494446 38.51198828472549 16.041042838466765 0 -1 0 I I #
coedge $-1 $261 $126 $273 $274 forward $66 $-1 #
edge $-1 $275 -76.299935911130092 $128 40.491801066494446 $126 $276 forward 7 unknown #
point $-1 -40.491801066494446 34.296433486760179 0.33312029956352518 #
point $-1 -40.491801066494446 34.296433486760179 16.041042838466762 #
face $-1 $277 $278 $15 $-1 $279 forward single #
loop $-1 $-1 $280 $130 #
plane-surface $-1 0 34.296433486760179 0 0 -1 0 0 0 -1 forward_v I I I I #
loop $-1 $-1 $281 $73 #
coedge $-1 $211 $133 $282 $283 forward $74 $-1 #
coedge $-1 $133 $210 $284 $285 reversed $74 $-1 #
coedge $-1 $286 $280 $133 $213 forward $207 $-1 #
edge $-1 $287 -80.713071621656979 $288 -65.005149082753746 $212 $289 forward 7 unknown #
edge $-1 $290 1 $290 0 $134 $-1 forward 7 unknown #
vertex $-1 $135 $291 #
ellipse-curve $-1 -58.395868488812269 21.452322461185744 4.3029882895685772 0 0.62932039886446345 0.77714595512881146 2 0 0 1 I I #
point $-1 -56.395868488812269 24.597599246989684 8.1870815690151222 #
plane-surface $-1 76.299935911130092 0 0 -1 0 0 0 0 1 forward_v I I I I #
coedge $-1 $143 $141 $145 $223 reversed $82 $-1 #
edge $-1 $156 -16.041042838466762 $225 16.041042838466762 $155 $292 forward 7 unknown #
vertex $-1 $223 $293 #
straight-curve $-1 -76.299935911130092 -34.296433486760179 0 0 0 -1 I I #
edge $-1 $221 -34.296433486760179 $225 34.296433486760179 $219 $294 forward 7 unknown #
straight-curve $-1 0 -34.296433486760179 -16.041042838466762 -1 0 0 I I #
vertex $-1 $148 $295 #
straight-curve $-1 0 34.296433486760179 -16.041042838466762 1 0 0 I I #
point $-1 76.299935911130092 34.296433486760179 -16.041042838466762 #
point $-1 76.299935911130092 -34.296433486760179 -16.041042838466762 #
straight-curve $-1 -76.299935911130092 0 16.041042838466762 0 -1 0 I I #
point $-1 -76.299935911130092 34.296433486760179 16.041042838466762 #
point $-1 -76.299935911130092 -34.296433486760179 16.041042838466762 #
straight-curve $-1 76.299935911130092 -34.296433486760179 0 0 0 -1 I I #
straight-curve $-1 76.299935911130092 34.296433486760179 0 0 0 -1 I I #
face $-1 $296 $248 $13 $-1 $297 reversed single #
plane-surface $-1 0 -34.296433486760179 0 0 1 0 0 0 1 forward_v I I I I #
coedge $-1 $298 $299 $184 $254 forward $166 $-1 #
coedge $-1 $169 $168 $300 $301 forward $58 $-1 #
edge $-1 $173 -13.217895177507257 $302 34.296433486760179 $172 $303 forward 7 unknown #
coedge $-1 $304 $243 $169 $240 reversed $248 $-1 #
edge $-1 $305 -34.296433486760179 $241 13.217895177507257 $239 $306 forward 7 unknown #
vertex $-1 $244 $307 #
straight-curve $-1 0 -13.217895177507257 16.041042838466762 1 0 0 I I #
coedge $-1 $239 $175 $171 $244 forward $248 $-1 #
edge $-1 $177 1.9293849294358125 $241 10.050900249165901 $243 $308 forward 7 unknown #
coedge $-1 $172 $184 $309 $310 reversed $101 $-1 #
point $-1 76.299935911130092 -13.217895177507257 16.041042838466758 #
coedge $-1 $175 $311 $179 $252 reversed $248 $-1 #
loop $-1 $-1 $243 $234 #
straight-curve $-1 -76.299935911130092 -11.87858216606686 7.91952751873667 0 1 0 I I #
point $-1 -76.299935911130092 -13.217895177507257 7.91952751873667 #
coedge $-1 $180 $179 $298 $312 reversed $181 $-1 #
edge $-1 $182 -7.91952751873667 $313 16.041042838466762 $247 $314 forward 7 unknown #
point $-1 -76.299935911130092 -34.296433486760179 7.91952751873667 #
edge $-1 $315 -34.296433486760179 $255 34.296433486760179 $184 $316 forward 7 unknown #
vertex $-1 $185 $317 #
straight-curve $-1 76.299935911130092 -34.296433486760179 0 0 0 -1 I I #
face $-1 $318 $319 $14 $-1 $320 reversed single #
loop $-1 $-1 $321 $188 #
plane-surface $-1 0 -13.217895177507257 11.980285178601715 0 -1 0 0 0 -1 forward_v I I I I #
coedge $-1 $322 $323 $324 $325 reversed $189 $-1 #
coedge $-1 $191 $202 $326 $327 reversed $66 $-1 #
coedge $-1 $328 $193 $191 $263 forward $266 $-1 #
edge $-1 $195 -0.33312029956352779 $329 16.041042838466762 $191 $330 forward 7 unknown #
edge $-1 $197 11.293866822088312 $267 47.102001666723957 $199 $331 forward 7 unknown #
coedge $-1 $193 $332 $271 $333 reversed $266 $-1 #
loop $-1 $-1 $193 $334 #
vertex $-1 $333 $335 #
straight-curve $-1 -76.299935911130092 -2.6322064388644177 30.237343893784271 0 0.77714595512881146 -0.62932039886446345 I I #
point $-1 -76.299935911130092 34.296433486760179 0.33312029956352779 #
point $-1 -40.491801066494446 14.898765007219225 16.041042838466762 #
coedge $-1 $336 $199 $265 $333 forward $117 $-1 #
coedge $-1 $200 $336 $337 $338 forward $117 $-1 #
coedge $-1 $337 $339 $202 $274 reversed $319 $-1 #
edge $-1 $275 -16.041042838466762 $340 16.041042838466762 $273 $341 forward 7 unknown #
vertex $-1 $338 $342 #
straight-curve $-1 0 34.296433486760179 16.041042838466762 -1 0 0 I I #
face $-1 $343 $344 $15 $-1 $345 forward single #
loop $-1 $-1 $284 $206 #
plane-surface $-1 0 0 16.041042838466762 0 0 1 1 0 0 forward_v I I I I #
coedge $-1 $212 $346 $281 $347 forward $207 $-1 #
coedge $-1 $348 $282 $280 $347 reversed $209 $-1 #
coedge $-1 $281 $349 $210 $283 reversed $209 $-1 #
edge $-1 $287 -68.592866973520344 $350 -43.632731298200767 $210 $351 forward 7 unknown #
coedge $-1 $352 $353 $211 $285 forward $278 $-1 #
edge $-1 $288 4.2155547979653107 $350 23.613223277506265 $284 $354 forward 7 unknown #
coedge $-1 $355 $212 $353 $356 reversed $207 $-1 #
vertex $-1 $347 $357 #
vertex $-1 $285 $358 #
straight-curve $-1 -40.491801066494446 34.296433486760179 81.046191921220512 0 0 1 I I #
vertex $-1 $214 $359 #
point $-1 -56.395868488812269 21.452322461185744 4.3029882895685772 #
straight-curve $-1 -76.299935911130092 34.296433486760179 0 0 0 -1 I I #
point $-1 -76.299935911130092 -34.296433486760179 -16.041042838466762 #
straight-curve $-1 -76.299935911130092 0 -16.041042838466762 0 1 0 I I #
point $-1 -76.299935911130092 34.296433486760179 -16.041042838466762 #
face $-1 $-1 $360 $13 $-1 $361 reversed single #
plane-surface $-1 -76.299935911130092 0 0 1 0 0 0 0 -1 forward_v I I I I #
coedge $-1 $362 $236 $251 $312 forward $166 $-1 #
coedge $-1 $236 $362 $363 $364 forward $166 $-1 #
coedge $-1 $309 $365 $237 $301 reversed $360 $-1 #
edge $-1 $302 -76.299935911130092 $305 76.299935911130092 $300 $366 forward 7 unknown #
vertex $-1 $238 $367 #
straight-curve $-1 76.299935911130092 0 16.041042838466762 0 1 0 I I #
coedge $-1 $311 $239 $365 $368 forward $248 $-1 #
vertex $-1 $301 $369 #
straight-curve $-1 -76.299935911130092 0 16.041042838466762 0 -1 0 I I #
point $-1 -76.299935911130092 -13.217895177507257 16.041042838466758 #
straight-curve $-1 -76.299935911130092 -13.217895177507257 5.9901425893008575 0 0 1 I I #
coedge $-1 $363 $300 $245 $310 forward $360 $-1 #
edge $-1 $302 -16.041042838466762 $315 16.041042838466762 $245 $370 forward 7 unknown #
coedge $-1 $247 $304 $362 $371 reversed $248 $-1 #
edge $-1 $255 -76.299935911130092 $313 76.299935911130092 $251 $372 forward 7 unknown #
vertex $-1 $371 $373 #
straight-curve $-1 -76.299935911130092 -34.296433486760179 0 0 0 -1 I I #
vertex $-1 $254 $374 #
straight-curve $-1 76.299935911130092 0 -16.041042838466762 0 -1 0 I I #
point $-1 76.299935911130092 -34.296433486760179 -16.041042838466762 #
face $-1 $375 $376 $14 $-1 $377 reversed single #
loop $-1 $-1 $378 $257 #
plane-surface $-1 76.299935911130092 0 0 -1 0 0 0 0 1 forward_v I I I I #
coedge $-1 $379 $380 $378 $381 reversed $258 $-1 #
coedge $-1 $382 $260 $380 $383 reversed $189 $-1 #
coedge $-1 $260 $382 $384 $385 reversed $189 $-1 #
coedge $-1 $386 $378 $260 $325 forward $319 $-1 #
edge $-1 $387 1.3393130114403977 $388 22.41785132069332 $324 $389 forward 7 unknown #
coedge $-1 $390 $391 $261 $327 forward $376 $-1 #
edge $-1 $329 -76.299935911130092 $340 76.299935911130092 $261 $392 forward 7 unknown #
coedge $-1 $393 $262 $391 $394 reversed $266 $-1 #
vertex $-1 $327 $395 #
straight-curve $-1 -76.299935911130092 34.296433486760179 0 0 0 -1 I I #
straight-curve $-1 -29.197934244406134 14.898765007219232 16.041042838466762 -1 0 0 I I #
coedge $-1 $265 $396 $397 $398 forward $266 $-1 #
edge $-1 $267 -14.898765007219225 $399 13.217895177507257 $265 $400 forward 7 unknown #
face $-1 $-1 $266 $14 $-1 $401 reversed single #
point $-1 -76.299935911130092 14.898765007219225 16.041042838466762 #
coedge $-1 $272 $271 $379 $402 forward $117 $-1 #
coedge $-1 $378 $273 $272 $338 reversed $319 $-1 #
edge $-1 $403 -13.217895177507257 $275 34.296433486760179 $337 $404 forward 7 unknown #
coedge $-1 $273 $386 $390 $405 reversed $319 $-1 #
vertex $-1 $405 $406 #
straight-curve $-1 76.299935911130092 34.296433486760179 0 0 0 -1 I I #
point $-1 76.299935911130092 34.296433486760179 16.041042838466762 #
face $-1 $407 $408 $15 $-1 $409 forward single #
loop $-1 $-1 $410 $277 #
plane-surface $-1 0 -23.757164332133719 7.91952751873667 0 0 1 1 0 0 forward_v I I I I #
coedge $-1 $280 $411 $412 $413 reversed $207 $-1 #
edge $-1 $414 -47.102001666723957 $287 -11.293866822088312 $280 $415 forward 7 unknown #
coedge $-1 $349 $281 $416 $417 reversed $209 $-1 #
coedge $-1 $282 $348 $352 $418 reversed $209 $-1 #
vertex $-1 $418 $419 #
straight-curve $-1 -40.491801066494446 -19.010235632399798 43.500010702596427 0 -0.77714595512881146 0.62932039886446345 I I #
coedge $-1 $420 $284 $349 $418 forward $278 $-1 #
coedge $-1 $284 $421 $286 $356 forward $278 $-1 #
straight-curve $-1 -40.491801066494446 38.51198828472549 16.041042838466765 0 -1 0 I I #
coedge $-1 $411 $286 $422 $423 forward $207 $-1 #
edge $-1 $424 -76.299935911130092 $288 40.491801066494446 $286 $425 forward 7 unknown #
point $-1 -40.491801066494446 34.296433486760179 0.33312029956352518 #
point $-1 -40.491801066494446 34.296433486760179 16.041042838466762 #
point $-1 -58.395868488812269 20.193681663456815 2.748696379310954 #
loop $-1 $-1 $309 $296 #
plane-surface $-1 0 34.296433486760179 0 0 -1 0 0 0 -1 forward_v I I I I #
coedge $-1 $299 $298 $311 $371 forward $166 $-1 #
coedge $-1 $365 $309 $299 $364 reversed $360 $-1 #
edge $-1 $426 -76.299935911130092 $315 76.299935911130092 $363 $427 forward 7 unknown #
coedge $-1 $300 $363 $304 $368 reversed $360 $-1 #
straight-curve $-1 0 34.296433486760179 16.041042838466762 -1 0 0 I I #
point $-1 76.299935911130092 34.296433486760179 16.041042838466762 #
edge $-1 $305 -16.041042838466762 $426 16.041042838466762 $365 $428 forward 7 unknown #
point $-1 -76.299935911130092 34.296433486760179 16.041042838466762 #
straight-curve $-1 76.299935911130092 34.296433486760179 0 0 0 -1 I I #
edge $-1 $313 -34.296433486760179 $426 34.296433486760179 $311 $429 forward 7 unknown #
straight-curve $-1 0 -34.296433486760179 -16.041042838466762 -1 0 0 I I #
point $-1 -76.299935911130092 -34.296433486760179 -16.041042838466762 #
point $-1 76.299935911130092 34.296433486760179 -16.041042838466762 #
face $-1 $334 $430 $14 $-1 $431 reversed single #
loop $-1 $-1 $390 $318 #
plane-surface $-1 0 0 -16.041042838466762 0 0 1 1 0 0 forward_v I I I I #
coedge $-1 $324 $337 $321 $381 forward $319 $-1 #
coedge $-1 $397 $321 $336 $402 reversed $258 $-1 #
coedge $-1 $321 $397 $322 $383 forward $258 $-1 #
edge $-1 $403 -10.050900249165901 $387 -1.9293849294358125 $378 $432 forward 7 unknown #
coedge $-1 $323 $322 $396 $433 reversed $189 $-1 #
edge $-1 $434 -76.299935911130092 $387 76.299935911130092 $380 $435 forward 7 unknown #
coedge $-1 $436 $437 $323 $385 forward $430 $-1 #
edge $-1 $388 -76.299935911130092 $438 76.299935911130092 $384 $439 forward 7 unknown #
coedge $-1 $339 $324 $437 $440 forward $319 $-1 #
vertex $-1 $325 $441 #
vertex $-1 $440 $442 #
straight-curve $-1 76.299935911130092 -11.87858216606686 7.91952751873667 0 -1 0 I I #
coedge $-1 $443 $326 $339 $405 forward $376 $-1 #
coedge $-1 $326 $443 $328 $394 forward $376 $-1 #
straight-curve $-1 0 34.296433486760179 -16.041042838466762 1 0 0 I I #
coedge $-1 $396 $328 $436 $444 reversed $266 $-1 #
edge $-1 $445 -34.296433486760179 $329 34.296433486760179 $328 $446 forward 7 unknown #
point $-1 -76.299935911130092 34.296433486760179 -16.041042838466762 #
coedge $-1 $332 $393 $382 $433 forward $266 $-1 #
coedge $-1 $380 $379 $332 $398 reversed $258 $-1 #
edge $-1 $434 1.9293849294358125 $399 10.050900249165901 $332 $447 forward 7 unknown #
vertex $-1 $398 $448 #
straight-curve $-1 -76.299935911130092 0 16.041042838466762 0 -1 0 I I #
plane-surface $-1 -76.299935911130092 0 0 1 0 0 0 0 -1 forward_v I I I I #
edge $-1 $399 -76.299935911130092 $403 76.299935911130092 $336 $449 forward 7 unknown #
vertex $-1 $338 $450 #
straight-curve $-1 76.299935911130092 0 16.041042838466762 0 1 0 I I #
edge $-1 $340 -34.296433486760179 $451 34.296433486760179 $339 $452 forward 7 unknown #
point $-1 76.299935911130092 34.296433486760179 -16.041042838466762 #
face $-1 $453 $454 $15 $-1 $455 reversed single #
loop $-1 $-1 $456 $343 #
plane-surface $-1 0 -13.217895177507257 11.980285178601715 0 -1 0 0 0 -1 forward_v I I I I #
coedge $-1 $457 $458 $459 $460 reversed $344 $-1 #
coedge $-1 $346 $355 $461 $462 reversed $207 $-1 #
coedge $-1 $463 $416 $346 $413 forward $464 $-1 #
edge $-1 $414 -0.33312029956352779 $465 16.041042838466762 $346 $466 forward 7 unknown #
vertex $-1 $413 $467 #
straight-curve $-1 -29.197934244406134 34.296433486760186 0.33312029956352163 1 0 0 I I #
coedge $-1 $412 $468 $348 $417 forward $464 $-1 #
edge $-1 $469 22.558145391335014 $414 47.518281066654581 $416 $470 forward 7 unknown #
edge $-1 $350 11.293866822088312 $469 47.102001666723957 $352 $471 forward 7 unknown #
point $-1 -40.491801066494446 14.898765007219225 16.041042838466762 #
coedge $-1 $472 $352 $468 $473 forward $278 $-1 #
coedge $-1 $353 $472 $474 $475 forward $278 $-1 #
coedge $-1 $474 $476 $355 $423 reversed $454 $-1 #
edge $-1 $424 -16.041042838466762 $477 16.041042838466762 $422 $478 forward 7 unknown #
vertex $-1 $475 $479 #
straight-curve $-1 0 34.296433486760179 16.041042838466762 -1 0 0 I I #
vertex $-1 $364 $480 #
straight-curve $-1 0 34.296433486760179 -16.041042838466762 1 0 0 I I #
straight-curve $-1 -76.299935911130092 34.296433486760179 0 0 0 -1 I I #
straight-curve $-1 -76.299935911130092 0 -16.041042838466762 0 1 0 I I #
loop $-1 $-1 $384 $375 #
plane-surface $-1 0 -34.296433486760179 0 0 1 0 0 0 1 forward_v I I I I #
straight-curve $-1 76.299935911130092 -13.217895177507257 5.9901425893008575 0 0 -1 I I #
edge $-1 $438 -22.41785132069332 $434 -1.3393130114403977 $396 $481 forward 7 unknown #
vertex $-1 $433 $482 #
straight-curve $-1 0 -13.217895177507257 7.91952751873667 1 0 0 I I #
coedge $-1 $483 $384 $393 $444 forward $430 $-1 #
coedge $-1 $384 $483 $386 $440 reversed $430 $-1 #
vertex $-1 $444 $484 #
straight-curve $-1 0 -34.296433486760179 7.91952751873667 -1 0 0 I I #
edge $-1 $388 -7.91952751873667 $451 16.041042838466762 $386 $485 forward 7 unknown #
point $-1 76.299935911130092 -13.217895177507257 7.91952751873667 #
point $-1 76.299935911130092 -34.296433486760179 7.91952751873667 #
coedge $-1 $391 $390 $483 $486 forward $376 $-1 #
edge $-1 $438 -7.91952751873667 $445 16.041042838466762 $393 $487 forward 7 unknown #
vertex $-1 $394 $488 #
straight-curve $-1 -76.299935911130092 0 -16.041042838466762 0 1 0 I I #
straight-curve $-1 -76.299935911130092 -13.217895177507257 5.9901425893008575 0 0 1 I I #
point $-1 -76.299935911130092 -13.217895177507257 16.041042838466758 #
straight-curve $-1 0 -13.217895177507257 16.041042838466762 1 0 0 I I #
point $-1 76.299935911130092 -13.217895177507257 16.041042838466758 #
vertex $-1 $440 $489 #
straight-curve $-1 76.299935911130092 0 -16.041042838466762 0 -1 0 I I #
face $-1 $490 $491 $15 $-1 $492 reversed single #
loop $-1 $-1 $493 $407 #
plane-surface $-1 76.299935911130092 0 0 -1 0 0 0 0 1 forward_v I I I I #
coedge $-1 $494 $495 $493 $496 reversed $408 $-1 #
coedge $-1 $497 $410 $495 $498 reversed $344 $-1 #
coedge $-1 $410 $497 $499 $500 reversed $344 $-1 #
coedge $-1 $501 $493 $410 $460 forward $454 $-1 #
edge $-1 $502 1.3393130114403977 $503 22.41785132069332 $459 $504 forward 7 unknown #
coedge $-1 $505 $506 $411 $462 forward $491 $-1 #
edge $-1 $465 -76.299935911130092 $477 76.299935911130092 $411 $507 forward 7 unknown #
coedge $-1 $508 $412 $506 $509 reversed $464 $-1 #
loop $-1 $-1 $416 $510 #
vertex $-1 $462 $511 #
straight-curve $-1 -76.299935911130092 34.296433486760179 0 0 0 -1 I I #
point $-1 -76.299935911130092 34.296433486760179 0.33312029956352779 #
coedge $-1 $416 $512 $420 $473 reversed $464 $-1 #
vertex $-1 $473 $513 #
straight-curve $-1 -76.299935911130092 -2.6322064388644177 30.237343893784271 0 0.77714595512881146 -0.62932039886446345 I I #
straight-curve $-1 -29.197934244406134 14.898765007219232 16.041042838466762 -1 0 0 I I #
coedge $-1 $421 $420 $494 $514 forward $278 $-1 #
edge $-1 $469 -14.898765007219225 $515 13.217895177507257 $468 $516 forward 7 unknown #
coedge $-1 $493 $422 $421 $475 reversed $454 $-1 #
edge $-1 $517 -13.217895177507257 $424 34.296433486760179 $474 $518 forward 7 unknown #
coedge $-1 $422 $501 $505 $519 reversed $454 $-1 #
vertex $-1 $519 $520 #
straight-curve $-1 76.299935911130092 34.296433486760179 0 0 0 -1 I I #
point $-1 76.299935911130092 34.296433486760179 16.041042838466762 #
point $-1 -76.299935911130092 34.296433486760179 -16.041042838466762 #
straight-curve $-1 -76.299935911130092 -11.87858216606686 7.91952751873667 0 1 0 I I #
point $-1 -76.299935911130092 -13.217895177507257 7.91952751873667 #
coedge $-1 $437 $436 $443 $486 reversed $430 $-1 #
point $-1 -76.299935911130092 -34.296433486760179 7.91952751873667 #
straight-curve $-1 76.299935911130092 -34.296433486760179 0 0 0 -1 I I #
edge $-1 $451 -76.299935911130092 $445 76.299935911130092 $483 $521 forward 7 unknown #
straight-curve $-1 -76.299935911130092 -34.296433486760179 0 0 0 -1 I I #
point $-1 -76.299935911130092 -34.296433486760179 -16.041042838466762 #
point $-1 76.299935911130092 -34.296433486760179 -16.041042838466762 #
face $-1 $510 $522 $15 $-1 $523 reversed single #
loop $-1 $-1 $505 $453 #
plane-surface $-1 0 0 -16.041042838466762 0 0 1 1 0 0 forward_v I I I I #
coedge $-1 $459 $474 $456 $496 forward $454 $-1 #
coedge $-1 $524 $456 $472 $514 reversed $408 $-1 #
coedge $-1 $456 $524 $457 $498 forward $408 $-1 #
edge $-1 $517 -10.050900249165901 $502 -1.9293849294358125 $493 $525 forward 7 unknown #
coedge $-1 $458 $457 $526 $527 reversed $344 $-1 #
edge $-1 $528 -76.299935911130092 $502 76.299935911130092 $495 $529 forward 7 unknown #
coedge $-1 $530 $531 $458 $500 forward $522 $-1 #
edge $-1 $503 -76.299935911130092 $532 76.299935911130092 $499 $533 forward 7 unknown #
coedge $-1 $476 $459 $531 $534 forward $454 $-1 #
vertex $-1 $460 $535 #
vertex $-1 $534 $536 #
straight-curve $-1 76.299935911130092 -11.87858216606686 7.91952751873667 0 -1 0 I I #
coedge $-1 $537 $461 $476 $519 forward $491 $-1 #
coedge $-1 $461 $537 $463 $509 forward $491 $-1 #
straight-curve $-1 0 34.296433486760179 -16.041042838466762 1 0 0 I I #
coedge $-1 $526 $463 $530 $538 reversed $464 $-1 #
edge $-1 $539 -34.296433486760179 $465 34.296433486760179 $463 $540 forward 7 unknown #
face $-1 $-1 $464 $15 $-1 $541 reversed single #
point $-1 -76.299935911130092 34.296433486760179 -16.041042838466762 #
coedge $-1 $468 $526 $524 $542 forward $464 $-1 #
point $-1 -76.299935911130092 14.898765007219225 16.041042838466762 #
edge $-1 $515 -76.299935911130092 $517 76.299935911130092 $472 $543 forward 7 unknown #
vertex $-1 $542 $544 #
straight-curve $-1 -76.299935911130092 0 16.041042838466762 0 -1 0 I I #
vertex $-1 $475 $545 #
straight-curve $-1 76.299935911130092 0 16.041042838466762 0 1 0 I I #
edge $-1 $477 -34.296433486760179 $546 34.296433486760179 $476 $547 forward 7 unknown #
point $-1 76.299935911130092 34.296433486760179 -16.041042838466762 #
straight-curve $-1 0 -34.296433486760179 -16.041042838466762 -1 0 0 I I #
loop $-1 $-1 $499 $490 #
plane-surface $-1 0 -34.296433486760179 0 0 1 0 0 0 1 forward_v I I I I #
coedge $-1 $495 $494 $512 $542 reversed $408 $-1 #
straight-curve $-1 76.299935911130092 -13.217895177507257 5.9901425893008575 0 0 -1 I I #
coedge $-1 $512 $508 $497 $527 forward $464 $-1 #
edge $-1 $532 -22.41785132069332 $528 -1.3393130114403977 $526 $548 forward 7 unknown #
vertex $-1 $527 $549 #
straight-curve $-1 0 -13.217895177507257 7.91952751873667 1 0 0 I I #
coedge $-1 $550 $499 $508 $538 forward $522 $-1 #
coedge $-1 $499 $550 $501 $534 reversed $522 $-1 #
vertex $-1 $538 $551 #
straight-curve $-1 0 -34.296433486760179 7.91952751873667 -1 0 0 I I #
edge $-1 $503 -7.91952751873667 $546 16.041042838466762 $501 $552 forward 7 unknown #
point $-1 76.299935911130092 -13.217895177507257 7.91952751873667 #
point $-1 76.299935911130092 -34.296433486760179 7.91952751873667 #
coedge $-1 $506 $505 $550 $553 forward $491 $-1 #
edge $-1 $532 -7.91952751873667 $539 16.041042838466762 $508 $554 forward 7 unknown #
vertex $-1 $509 $555 #
straight-curve $-1 -76.299935911130092 0 -16.041042838466762 0 1 0 I I #
plane-surface $-1 -76.299935911130092 0 0 1 0 0 0 0 -1 forward_v I I I I #
edge $-1 $528 1.9293849294358125 $515 10.050900249165901 $512 $556 forward 7 unknown #
straight-curve $-1 0 -13.217895177507257 16.041042838466762 1 0 0 I I #
point $-1 -76.299935911130092 -13.217895177507257 16.041042838466758 #
point $-1 76.299935911130092 -13.217895177507257 16.041042838466758 #
vertex $-1 $534 $557 #
straight-curve $-1 76.299935911130092 0 -16.041042838466762 0 -1 0 I I #
straight-curve $-1 -76.299935911130092 -11.87858216606686 7.91952751873667 0 1 0 I I #
point $-1 -76.299935911130092 -13.217895177507257 7.91952751873667 #
coedge $-1 $531 $530 $537 $553 reversed $522 $-1 #
point $-1 -76.299935911130092 -34.296433486760179 7.91952751873667 #
straight-curve $-1 76.299935911130092 -34.296433486760179 0 0 0 -1 I I #
edge $-1 $546 -76.299935911130092 $539 76.299935911130092 $550 $558 forward 7 unknown #
straight-curve $-1 -76.299935911130092 -34.296433486760179 0 0 0 -1 I I #
point $-1 -76.299935911130092 -34.296433486760179 -16.041042838466762 #
straight-curve $-1 -76.299935911130092 -13.217895177507257 5.9901425893008575 0 0 1 I I #
point $-1 76.299935911130092 -34.296433486760179 -16.041042838466762 #
straight-curve $-1 0 -34.296433486760179 -16.041042838466762 -1 0 0 I I #
End-of-ACIS-data 