500 0 9 0           
7 Unknown 11 ACIS 5.0 NT 24 Thu Mar 25 23:15:37 1999 
-1 9.9999999999999995e-007 1e-010 
body $-1 $9 $-1 $10 #
body $-1 $11 $-1 $12 #
body $-1 $13 $-1 $14 #
body $-1 $15 $-1 $16 #
body $-1 $17 $-1 $18 #
body $-1 $19 $-1 $20 #
body $-1 $21 $-1 $22 #
body $-1 $23 $-1 $24 #
body $-1 $25 $-1 $26 #
lump $-1 $-1 $27 $0 #
transform $-1 1 0 0 0 1 0 0 0 1 54.152043214209414 23.081756851575587 6.9403060817330999 1 rotate no_reflect no_shear #
lump $-1 $-1 $28 $1 #
transform $-1 1 0 0 0 1 0 0 0 1 54.152043214209414 23.081756851575587 6.9403060817330999 1 rotate no_reflect no_shear #
lump $-1 $-1 $29 $2 #
transform $-1 1 0 0 0 1 0 0 0 1 54.152043214209414 23.081756851575587 6.9403060817330999 1 rotate no_reflect no_shear #
lump $-1 $-1 $30 $3 #
transform $-1 1 0 0 0 1 0 0 0 1 54.152043214209414 23.081756851575587 6.9403060817330999 1 rotate no_reflect no_shear #
lump $-1 $-1 $31 $4 #
transform $-1 1 0 0 0 1 0 0 0 1 54.152043214209414 23.081756851575587 6.9403060817330999 1 rotate no_reflect no_shear #
lump $-1 $-1 $32 $5 #
transform $-1 1 0 0 0 1 0 0 0 1 54.152043214209414 23.081756851575587 6.9403060817330999 1 rotate no_reflect no_shear #
lump $-1 $-1 $33 $6 #
transform $-1 1 0 0 0 1 0 0 0 1 54.152043214209414 23.081756851575587 6.9403060817330999 1 rotate no_reflect no_shear #
lump $-1 $-1 $34 $7 #
transform $-1 1 0 0 0 1 0 0 0 1 54.152043214209414 23.081756851575587 6.9403060817330999 1 rotate no_reflect no_shear #
lump $-1 $-1 $35 $8 #
transform $-1 1 0 0 0 1 0 0 0 1 54.152043214209414 23.081756851575587 6.9403060817330999 1 rotate no_reflect no_shear #
shell $-1 $-1 $-1 $36 $-1 $9 #
shell $-1 $-1 $-1 $37 $-1 $11 #
shell $-1 $-1 $-1 $38 $-1 $13 #
shell $-1 $-1 $-1 $39 $-1 $15 #
shell $-1 $-1 $-1 $40 $-1 $17 #
shell $-1 $-1 $-1 $41 $-1 $19 #
shell $-1 $-1 $-1 $42 $-1 $21 #
shell $-1 $-1 $-1 $43 $-1 $23 #
shell $-1 $-1 $-1 $44 $-1 $25 #
face $-1 $45 $46 $27 $-1 $47 forward single #
face $-1 $48 $49 $28 $-1 $50 forward single #
face $-1 $51 $52 $29 $-1 $53 forward single #
face $-1 $54 $55 $30 $-1 $56 reversed single #
face $-1 $57 $58 $31 $-1 $59 forward single #
face $-1 $60 $61 $32 $-1 $62 forward single #
face $-1 $63 $64 $33 $-1 $65 forward single #
face $-1 $66 $67 $34 $-1 $68 reversed single #
face $-1 $69 $70 $35 $-1 $71 forward single #
face $-1 $72 $73 $27 $-1 $74 reversed single #
loop $-1 $-1 $75 $36 #
plane-surface $-1 0 0 6.9403060817330999 0 0 1 1 0 0 forward_v I I I I #
face $-1 $76 $77 $28 $-1 $78 reversed single #
loop $-1 $-1 $79 $37 #
plane-surface $-1 0 -20.499707548967788 1.134235837944944 0 0 1 1 0 0 forward_v I I I I #
face $-1 $80 $81 $29 $-1 $82 reversed single #
loop $-1 $-1 $83 $38 #
plane-surface $-1 0 20.499707548967788 1.134235837944944 0 0 1 1 0 0 forward_v I I I I #
face $-1 $84 $85 $30 $-1 $86 reversed single #
loop $-1 $-1 $87 $39 #
plane-surface $-1 59.497430246825232 -10.702054516832476 156.4152978505777 0 1 0 0.73135370988377701 0 0.68199835119979291 forward_v I I I I #
face $-1 $88 $89 $31 $-1 $90 forward single #
loop $-1 $91 $92 $40 #
cone-surface $-1 51.949750080298635 -9.3941885955954056 4.6520942606751623 -0.73135370988377701 0 -0.68199835119979291 0.34099917559989645 0 -0.36567685494188851 1 I I 0 1 0.5 forward I I I I #
face $-1 $93 $94 $32 $-1 $95 forward single #
loop $-1 $96 $97 $41 #
cone-surface $-1 51.949750080298635 -7.4323897137398003 4.6520942606751623 -0.73135370988377701 0 -0.68199835119979291 0.34099917559989645 0 -0.36567685494188851 1 I I 0 1 0.5 forward I I I I #
face $-1 $98 $99 $33 $-1 $100 forward single #
loop $-1 $101 $102 $42 #
cone-surface $-1 51.949750080298635 -5.4705908318841949 4.6520942606751623 -0.73135370988377701 0 -0.68199835119979291 0.34099917559989645 0 -0.36567685494188851 1 I I 0 1 0.5 forward I I I I #
face $-1 $103 $104 $34 $-1 $105 reversed single #
loop $-1 $-1 $106 $43 #
plane-surface $-1 -123.76856890447429 1.0030537730260995 85.123429311168607 0 -1 0 0.64278761758704617 0 -0.76604443648966558 forward_v I I I I #
face $-1 $107 $108 $35 $-1 $109 forward single #
loop $-1 $110 $111 $44 #
cone-surface $-1 -50.346886441888103 -2.8424033771002151 3.410508399736595 0.64278761758704617 0 -0.76604443648966558 0.76604443648966558 0 0.64278761758704617 1 I I 0 1 1 forward I I I I #
face $-1 $112 $113 $27 $-1 $114 reversed single #
loop $-1 $-1 $115 $45 #
plane-surface $-1 0 0 -6.9403060817330999 0 0 1 1 0 0 forward_v I I I I #
coedge $-1 $116 $117 $118 $119 forward $46 $-1 #
face $-1 $120 $121 $28 $-1 $122 reversed single #
loop $-1 $-1 $123 $48 #
plane-surface $-1 0 -20.499707548967788 -1.865764162055056 0 0 1 1 0 0 forward_v I I I I #
coedge $-1 $124 $125 $126 $127 reversed $49 $-1 #
face $-1 $128 $129 $29 $-1 $130 reversed single #
loop $-1 $-1 $131 $51 #
plane-surface $-1 0 20.499707548967788 -1.865764162055056 0 0 1 1 0 0 forward_v I I I I #
coedge $-1 $132 $133 $134 $135 reversed $52 $-1 #
face $-1 $136 $137 $30 $-1 $138 reversed single #
loop $-1 $-1 $139 $54 #
plane-surface $-1 -19.711165158172108 -7.4323897137397985 82.552089478196194 0.73135370988377701 0 0.68199835119979291 0.68199835119979291 0 -0.73135370988377701 forward_v I I I I #
coedge $-1 $140 $141 $142 $143 reversed $55 $-1 #
face $-1 $-1 $144 $31 $-1 $145 forward single #
loop $-1 $146 $147 $57 #
cone-surface $-1 51.241659208151802 -9.3941885955954056 3.9917888560843959 -0.73135370988377701 0 -0.68199835119979291 0.17049958779994823 0 -0.18283842747094425 1 I I -0.70710678118654746 0.70710678118654746 0.25 forward I I I I #
loop $-1 $-1 $148 $40 #
coedge $-1 $92 $92 $149 $150 reversed $58 $-1 #
face $-1 $-1 $151 $32 $-1 $152 forward single #
loop $-1 $153 $154 $60 #
cone-surface $-1 51.241659208151802 -7.4323897137398003 3.9917888560843959 -0.73135370988377701 0 -0.68199835119979291 0.17049958779994823 0 -0.18283842747094425 1 I I -0.70710678118654746 0.70710678118654746 0.25 forward I I I I #
loop $-1 $-1 $155 $41 #
coedge $-1 $97 $97 $156 $157 reversed $61 $-1 #
face $-1 $-1 $158 $33 $-1 $159 forward single #
loop $-1 $160 $161 $63 #
cone-surface $-1 51.241659208151802 -5.4705908318841949 3.9917888560843959 -0.73135370988377701 0 -0.68199835119979291 0.17049958779994823 0 -0.18283842747094425 1 I I -0.70710678118654746 0.70710678118654746 0.25 forward I I I I #
loop $-1 $-1 $162 $42 #
coedge $-1 $102 $102 $163 $164 reversed $64 $-1 #
face $-1 $165 $166 $34 $-1 $167 reversed single #
loop $-1 $-1 $168 $66 #
plane-surface $-1 -54.152043214209414 -2.8424033771002151 2.1576864535824711 -0.64278761758704617 0 0.76604443648966558 0.76604443648966558 0 0.64278761758704617 forward_v I I I I #
coedge $-1 $169 $170 $171 $172 reversed $67 $-1 #
face $-1 $-1 $173 $35 $-1 $174 forward single #
loop $-1 $175 $176 $69 #
cone-surface $-1 -49.070187863013281 -2.8424033771002151 1.8889983135705695 0.64278761758704617 0 -0.76604443648966558 0.38302221824483279 0 0.32139380879352308 1 I I -0.70710678118654746 0.70710678118654746 0.5 forward I I I I #
loop $-1 $-1 $177 $44 #
coedge $-1 $111 $111 $178 $179 reversed $70 $-1 #
face $-1 $180 $181 $27 $-1 $182 reversed single #
loop $-1 $-1 $183 $72 #
plane-surface $-1 0 -23.081756851575587 0 0 1 0 0 0 1 forward_v I I I I #
coedge $-1 $184 $185 $186 $187 forward $73 $-1 #
coedge $-1 $188 $75 $189 $190 forward $46 $-1 #
coedge $-1 $75 $188 $191 $192 forward $46 $-1 #
coedge $-1 $193 $194 $75 $119 reversed $195 $-1 #
edge $-1 $196 -23.081756851575587 $197 23.081756851575587 $118 $198 forward 7 unknown #
face $-1 $199 $200 $28 $-1 $201 reversed single #
loop $-1 $-1 $202 $76 #
plane-surface $-1 0 -17.917658246359988 -0.36576416205505602 0 -1 0 0 0 -1 forward_v I I I I #
coedge $-1 $203 $204 $205 $206 reversed $77 $-1 #
coedge $-1 $207 $79 $208 $209 forward $49 $-1 #
coedge $-1 $79 $207 $210 $211 reversed $49 $-1 #
coedge $-1 $212 $213 $79 $127 forward $214 $-1 #
edge $-1 $215 7.667804471876094 $216 12.831903077091694 $126 $217 forward 7 unknown #
face $-1 $218 $219 $29 $-1 $220 reversed single #
loop $-1 $-1 $221 $80 #
plane-surface $-1 0 17.917658246359988 -0.36576416205505602 0 1 0 0 0 1 forward_v I I I I #
coedge $-1 $222 $223 $224 $225 reversed $81 $-1 #
coedge $-1 $226 $83 $227 $228 reversed $52 $-1 #
coedge $-1 $83 $226 $229 $230 forward $52 $-1 #
coedge $-1 $231 $232 $83 $135 forward $219 $-1 #
edge $-1 $233 -12.831903077091694 $234 -7.667804471876094 $134 $235 forward 7 unknown #
face $-1 $236 $237 $30 $-1 $238 forward single #
loop $-1 $-1 $239 $84 #
plane-surface $-1 59.497430246825232 -4.1627249106471211 156.4152978505777 0 -1 0 -0.73135370988377701 0 -0.68199835119979291 forward_v I I I I #
coedge $-1 $240 $241 $242 $243 reversed $85 $-1 #
coedge $-1 $141 $87 $244 $245 reversed $55 $-1 #
coedge $-1 $87 $140 $240 $246 reversed $55 $-1 #
coedge $-1 $242 $247 $87 $143 forward $248 $-1 #
edge $-1 $249 71.267342843555753 $250 74.864154852089996 $142 $251 forward 7 unknown #
loop $-1 $-1 $149 $88 #
plane-surface $-1 -19.711165158172108 -7.4323897137397985 82.552089478196194 0.73135370988377701 0 0.68199835119979291 0.68199835119979291 0 -0.73135370988377701 forward_v I I I I #
loop $-1 $-1 $252 $57 #
coedge $-1 $147 $147 $148 $253 reversed $89 $-1 #
coedge $-1 $148 $148 $147 $253 forward $91 $-1 #
coedge $-1 $149 $149 $92 $150 forward $144 $-1 #
edge $-1 $254 0 $254 6.2831853071796004 $149 $255 forward 7 unknown #
loop $-1 $-1 $156 $93 #
plane-surface $-1 -19.711165158172108 -7.4323897137397985 82.552089478196194 0.73135370988377701 0 0.68199835119979291 0.68199835119979291 0 -0.73135370988377701 forward_v I I I I #
loop $-1 $-1 $256 $60 #
coedge $-1 $154 $154 $155 $257 reversed $94 $-1 #
coedge $-1 $155 $155 $154 $257 forward $96 $-1 #
coedge $-1 $156 $156 $97 $157 forward $151 $-1 #
edge $-1 $258 0 $258 6.2831853071796004 $156 $259 forward 7 unknown #
loop $-1 $-1 $163 $98 #
plane-surface $-1 -19.711165158172108 -7.4323897137397985 82.552089478196194 0.73135370988377701 0 0.68199835119979291 0.68199835119979291 0 -0.73135370988377701 forward_v I I I I #
loop $-1 $-1 $260 $63 #
coedge $-1 $161 $161 $162 $261 reversed $99 $-1 #
coedge $-1 $162 $162 $161 $261 forward $101 $-1 #
coedge $-1 $163 $163 $102 $164 forward $158 $-1 #
edge $-1 $262 0 $262 6.2831853071796004 $163 $263 forward 7 unknown #
face $-1 $264 $265 $34 $-1 $266 reversed single #
loop $-1 $-1 $267 $103 #
plane-surface $-1 -123.76856890447429 -6.6878605272265297 85.123429311168607 0 1 0 -0.64278761758704617 0 0.76604443648966558 forward_v I I I I #
coedge $-1 $268 $269 $270 $271 reversed $104 $-1 #
coedge $-1 $170 $106 $272 $273 reversed $67 $-1 #
coedge $-1 $106 $169 $268 $274 reversed $67 $-1 #
coedge $-1 $270 $275 $106 $172 forward $265 $-1 #
edge $-1 $276 35.621408573851205 $277 40.404028202001832 $171 $278 forward 7 unknown #
loop $-1 $-1 $178 $107 #
plane-surface $-1 -54.152043214209414 -2.8424033771002151 2.1576864535824711 -0.64278761758704617 0 0.76604443648966558 0.76604443648966558 0 0.64278761758704617 forward_v I I I I #
loop $-1 $-1 $279 $69 #
coedge $-1 $176 $176 $177 $280 reversed $108 $-1 #
coedge $-1 $177 $177 $176 $280 forward $110 $-1 #
coedge $-1 $178 $178 $111 $179 forward $173 $-1 #
edge $-1 $281 0 $281 6.2831853071796004 $178 $282 forward 7 unknown #
face $-1 $283 $284 $27 $-1 $285 reversed single #
loop $-1 $-1 $286 $112 #
plane-surface $-1 -54.152043214209414 0 0 1 0 0 0 0 -1 forward_v I I I I #
coedge $-1 $287 $191 $288 $289 forward $113 $-1 #
coedge $-1 $290 $115 $287 $291 forward $73 $-1 #
coedge $-1 $115 $290 $292 $293 forward $73 $-1 #
coedge $-1 $194 $193 $115 $187 reversed $195 $-1 #
edge $-1 $294 -23.081756851575587 $295 23.081756851575587 $186 $296 forward 7 unknown #
coedge $-1 $117 $116 $297 $298 forward $46 $-1 #
coedge $-1 $299 $300 $116 $190 reversed $284 $-1 #
edge $-1 $197 -54.152043214209414 $301 54.152043214209414 $189 $302 forward 7 unknown #
coedge $-1 $183 $303 $117 $192 reversed $113 $-1 #
edge $-1 $304 -54.152043214209414 $196 54.152043214209414 $191 $305 forward 7 unknown #
coedge $-1 $186 $118 $303 $306 forward $195 $-1 #
coedge $-1 $118 $186 $299 $307 reversed $195 $-1 #
loop $-1 $-1 $193 $283 #
vertex $-1 $119 $308 #
vertex $-1 $119 $309 #
straight-curve $-1 54.152043214209414 0 6.9403060817330999 0 1 0 I I #
face $-1 $310 $311 $28 $-1 $312 reversed single #
loop $-1 $-1 $313 $120 #
plane-surface $-1 -54.152043214209414 0 0 1 0 0 0 0 -1 forward_v I I I I #
coedge $-1 $314 $208 $213 $315 reversed $121 $-1 #
coedge $-1 $316 $123 $317 $318 reversed $77 $-1 #
coedge $-1 $123 $316 $314 $319 forward $77 $-1 #
coedge $-1 $213 $212 $123 $206 forward $214 $-1 #
edge $-1 $320 -12.831903077091694 $321 -7.667804471876094 $205 $322 forward 7 unknown #
coedge $-1 $125 $124 $313 $323 reversed $49 $-1 #
coedge $-1 $202 $324 $124 $209 reversed $121 $-1 #
edge $-1 $215 -54.152043214209414 $325 54.152043214209414 $208 $326 forward 7 unknown #
coedge $-1 $327 $328 $125 $211 forward $311 $-1 #
edge $-1 $216 -54.152043214209414 $329 54.152043214209414 $210 $330 forward 7 unknown #
coedge $-1 $205 $126 $328 $331 forward $214 $-1 #
coedge $-1 $126 $205 $202 $315 forward $214 $-1 #
loop $-1 $-1 $126 $310 #
vertex $-1 $127 $332 #
vertex $-1 $331 $333 #
straight-curve $-1 54.152043214209414 -10.249853774483894 1.134235837944944 0 -1 0 I I #
face $-1 $334 $335 $29 $-1 $336 reversed single #
loop $-1 $-1 $134 $128 #
plane-surface $-1 54.152043214209414 0 0 -1 0 0 0 0 1 forward_v I I I I #
coedge $-1 $337 $229 $338 $339 reversed $129 $-1 #
coedge $-1 $340 $131 $337 $341 forward $81 $-1 #
coedge $-1 $131 $340 $342 $343 reversed $81 $-1 #
coedge $-1 $232 $231 $131 $225 forward $219 $-1 #
edge $-1 $344 7.667804471876094 $345 12.831903077091694 $224 $346 forward 7 unknown #
coedge $-1 $133 $132 $347 $348 reversed $52 $-1 #
coedge $-1 $349 $350 $132 $228 forward $351 $-1 #
edge $-1 $352 -54.152043214209414 $233 54.152043214209414 $227 $353 forward 7 unknown #
coedge $-1 $221 $354 $133 $230 reversed $129 $-1 #
edge $-1 $355 -54.152043214209414 $234 54.152043214209414 $229 $356 forward 7 unknown #
coedge $-1 $224 $134 $354 $357 forward $219 $-1 #
coedge $-1 $134 $224 $349 $358 reversed $219 $-1 #
vertex $-1 $358 $359 #
vertex $-1 $135 $360 #
straight-curve $-1 54.152043214209414 10.249853774483894 1.134235837944944 0 -1 0 I I #
face $-1 $-1 $248 $30 $-1 $361 reversed single #
loop $-1 $-1 $362 $136 #
plane-surface $-1 0 0 6.9403060817330999 0 0 1 1 0 0 forward_v I I I I #
coedge $-1 $363 $364 $365 $366 reversed $137 $-1 #
coedge $-1 $367 $139 $141 $246 forward $85 $-1 #
coedge $-1 $139 $367 $363 $368 forward $85 $-1 #
coedge $-1 $365 $142 $139 $243 forward $248 $-1 #
edge $-1 $250 -6.9858596599625766 $369 -0.44653005377722188 $242 $370 forward 7 unknown #
coedge $-1 $371 $372 $140 $245 forward $237 $-1 #
edge $-1 $373 21.049246712326998 $249 24.403328090796798 $244 $374 forward 7 unknown #
edge $-1 $250 -108.30408642841883 $373 -103.38606665231646 $141 $375 forward 7 unknown #
coedge $-1 $142 $365 $371 $376 reversed $248 $-1 #
loop $-1 $-1 $365 $236 #
vertex $-1 $376 $377 #
vertex $-1 $143 $378 #
straight-curve $-1 54.152043214209414 -10.702054516832476 78.207648925288851 0 0 -1 I I #
coedge $-1 $252 $252 $-1 $379 reversed $146 $-1 #
edge $-1 $380 0 $380 6.2831853071796004 $147 $381 forward 7 unknown #
vertex $-1 $150 $382 #
ellipse-curve $-1 52.475002524974514 -9.3941885955954056 5.1419000774659711 0.73135370988377701 0 0.68199835119979291 0.34099917559989645 0 -0.36567685494188851 1 I I #
coedge $-1 $256 $256 $-1 $383 reversed $153 $-1 #
edge $-1 $384 0 $384 6.2831853071796004 $154 $385 forward 7 unknown #
vertex $-1 $157 $386 #
ellipse-curve $-1 52.475002524974514 -7.4323897137398003 5.1419000774659711 0.73135370988377701 0 0.68199835119979291 0.34099917559989645 0 -0.36567685494188851 1 I I #
coedge $-1 $260 $260 $-1 $387 reversed $160 $-1 #
edge $-1 $388 0 $388 6.2831853071796004 $161 $389 forward 7 unknown #
vertex $-1 $164 $390 #
ellipse-curve $-1 52.475002524974514 -5.4705908318841949 5.1419000774659711 0.73135370988377701 0 0.68199835119979291 0.34099917559989645 0 -0.36567685494188851 1 I I #
face $-1 $-1 $391 $34 $-1 $392 forward single #
loop $-1 $-1 $171 $165 #
plane-surface $-1 -54.152043214209414 0 0 1 0 0 0 0 -1 forward_v I I I I #
coedge $-1 $393 $394 $395 $396 reversed $166 $-1 #
coedge $-1 $397 $168 $170 $274 forward $104 $-1 #
coedge $-1 $168 $397 $393 $398 forward $104 $-1 #
coedge $-1 $395 $171 $168 $271 forward $265 $-1 #
edge $-1 $277 -2.4242554615762071 $399 5.2666588386764221 $270 $400 forward 7 unknown #
coedge $-1 $401 $402 $169 $273 forward $391 $-1 #
edge $-1 $403 -13.431945242507759 $276 -7.7322412380277328 $272 $404 forward 7 unknown #
edge $-1 $277 0 $403 7.4404352188737786 $170 $405 forward 7 unknown #
coedge $-1 $171 $395 $401 $406 reversed $265 $-1 #
vertex $-1 $406 $407 #
vertex $-1 $172 $408 #
straight-curve $-1 -54.152043214209414 1.0030537730260995 42.561714655584304 0 0 -1 I I #
coedge $-1 $279 $279 $-1 $409 reversed $175 $-1 #
edge $-1 $410 0 $410 6.2831853071796004 $176 $411 forward 7 unknown #
vertex $-1 $179 $412 #
ellipse-curve $-1 -51.302191211969401 -2.8424033771002151 4.5489962676577855 -0.64278761758704617 0 0.76604443648966558 0.76604443648966558 0 0.64278761758704617 1 I I #
face $-1 $-1 $195 $27 $-1 $413 reversed single #
loop $-1 $-1 $299 $180 #
plane-surface $-1 0 23.081756851575587 0 0 -1 0 0 0 -1 forward_v I I I I #
coedge $-1 $414 $297 $300 $415 forward $181 $-1 #
coedge $-1 $303 $183 $184 $291 reversed $113 $-1 #
coedge $-1 $297 $414 $183 $289 reversed $181 $-1 #
edge $-1 $304 -6.9403060817330999 $416 6.9403060817330999 $288 $417 forward 7 unknown #
coedge $-1 $185 $184 $414 $418 forward $73 $-1 #
edge $-1 $295 -54.152043214209414 $416 54.152043214209414 $287 $419 forward 7 unknown #
coedge $-1 $300 $299 $185 $293 reversed $284 $-1 #
edge $-1 $420 -54.152043214209414 $294 54.152043214209414 $292 $421 forward 7 unknown #
vertex $-1 $187 $422 #
vertex $-1 $306 $423 #
straight-curve $-1 54.152043214209414 0 -6.9403060817330999 0 -1 0 I I #
coedge $-1 $286 $288 $188 $298 reversed $181 $-1 #
edge $-1 $301 -23.081756851575587 $304 23.081756851575587 $297 $424 forward 7 unknown #
coedge $-1 $292 $189 $194 $307 forward $284 $-1 #
coedge $-1 $189 $292 $286 $415 reversed $284 $-1 #
vertex $-1 $190 $425 #
straight-curve $-1 0 23.081756851575587 6.9403060817330999 -1 0 0 I I #
coedge $-1 $191 $287 $193 $306 reversed $113 $-1 #
vertex $-1 $298 $426 #
straight-curve $-1 0 -23.081756851575587 6.9403060817330999 1 0 0 I I #
edge $-1 $196 -6.9403060817330999 $295 6.9403060817330999 $193 $427 forward 7 unknown #
edge $-1 $197 -6.9403060817330999 $294 6.9403060817330999 $194 $428 forward 7 unknown #
point $-1 54.152043214209414 -23.081756851575587 6.9403060817330999 #
point $-1 54.152043214209414 23.081756851575587 6.9403060817330999 #
face $-1 $-1 $214 $28 $-1 $429 reversed single #
loop $-1 $-1 $210 $199 #
plane-surface $-1 0 -23.081756851575587 0 0 1 0 0 0 1 forward_v I I I I #
coedge $-1 $430 $431 $207 $323 forward $200 $-1 #
coedge $-1 $324 $202 $204 $319 reversed $121 $-1 #
edge $-1 $321 -1.682882081027528 $215 1.317117918972472 $213 $432 forward 7 unknown #
coedge $-1 $204 $203 $433 $434 reversed $77 $-1 #
coedge $-1 $328 $327 $203 $318 forward $311 $-1 #
edge $-1 $435 -54.152043214209414 $320 54.152043214209414 $317 $436 forward 7 unknown #
edge $-1 $437 -54.152043214209414 $321 54.152043214209414 $314 $438 forward 7 unknown #
vertex $-1 $318 $439 #
vertex $-1 $206 $440 #
straight-curve $-1 54.152043214209414 -10.249853774483894 -1.865764162055056 0 1 0 I I #
edge $-1 $329 -12.831903077091694 $325 -7.667804471876094 $313 $441 forward 7 unknown #
coedge $-1 $208 $314 $430 $442 reversed $121 $-1 #
vertex $-1 $323 $443 #
straight-curve $-1 0 -17.917658246359988 1.134235837944944 -1 0 0 I I #
coedge $-1 $317 $210 $431 $444 forward $311 $-1 #
coedge $-1 $210 $317 $212 $331 reversed $311 $-1 #
vertex $-1 $444 $445 #
straight-curve $-1 0 -23.081756851575587 1.134235837944944 -1 0 0 I I #
edge $-1 $216 -1.134235837944944 $320 1.865764162055056 $212 $446 forward 7 unknown #
point $-1 54.152043214209414 -17.917658246359988 1.134235837944944 #
point $-1 54.152043214209414 -23.081756851575587 1.134235837944944 #
face $-1 $-1 $351 $29 $-1 $447 reversed single #
loop $-1 $-1 $347 $218 #
plane-surface $-1 -54.152043214209414 0 0 1 0 0 0 0 -1 forward_v I I I I #
coedge $-1 $354 $221 $222 $341 reversed $129 $-1 #
coedge $-1 $347 $448 $221 $339 forward $335 $-1 #
edge $-1 $449 -1.682882081027528 $355 1.317117918972472 $338 $450 forward 7 unknown #
coedge $-1 $223 $222 $448 $451 reversed $81 $-1 #
edge $-1 $344 -54.152043214209414 $449 54.152043214209414 $337 $452 forward 7 unknown #
coedge $-1 $350 $349 $223 $343 forward $351 $-1 #
edge $-1 $345 -54.152043214209414 $453 54.152043214209414 $342 $454 forward 7 unknown #
vertex $-1 $225 $455 #
vertex $-1 $343 $456 #
straight-curve $-1 54.152043214209414 10.249853774483894 -1.865764162055056 0 1 0 I I #
coedge $-1 $457 $338 $226 $348 forward $335 $-1 #
edge $-1 $355 7.667804471876094 $352 12.831903077091694 $347 $458 forward 7 unknown #
coedge $-1 $342 $227 $232 $358 forward $351 $-1 #
coedge $-1 $227 $342 $457 $459 reversed $351 $-1 #
loop $-1 $-1 $227 $334 #
vertex $-1 $459 $460 #
straight-curve $-1 0 23.081756851575587 1.134235837944944 1 0 0 I I #
coedge $-1 $229 $337 $231 $357 reversed $129 $-1 #
vertex $-1 $348 $461 #
straight-curve $-1 0 17.917658246359988 1.134235837944944 1 0 0 I I #
edge $-1 $234 -1.317117918972472 $344 1.682882081027528 $231 $462 forward 7 unknown #
edge $-1 $233 -1.134235837944944 $345 1.865764162055056 $232 $463 forward 7 unknown #
point $-1 54.152043214209414 23.081756851575587 1.134235837944944 #
point $-1 54.152043214209414 17.917658246359988 1.134235837944944 #
plane-surface $-1 54.152043214209414 0 0 -1 0 0 0 0 1 forward_v I I I I #
coedge $-1 $372 $371 $364 $464 forward $237 $-1 #
coedge $-1 $364 $239 $241 $368 reversed $137 $-1 #
coedge $-1 $239 $363 $362 $464 reversed $137 $-1 #
coedge $-1 $247 $242 $239 $366 forward $248 $-1 #
edge $-1 $369 -74.864154852089996 $465 -71.267342843555753 $365 $466 forward 7 unknown #
coedge $-1 $241 $240 $372 $467 reversed $85 $-1 #
edge $-1 $468 103.38606665231646 $369 108.30408642841883 $363 $469 forward 7 unknown #
vertex $-1 $243 $470 #
straight-curve $-1 54.152043214209414 -3.7161948568698993 3.3434940731988405 0 1 0 I I #
coedge $-1 $362 $244 $247 $376 forward $237 $-1 #
coedge $-1 $244 $362 $367 $467 forward $237 $-1 #
vertex $-1 $245 $471 #
straight-curve $-1 29.748715123412616 -10.702054516832476 6.9403060817330982 1 0 0 I I #
straight-curve $-1 -19.711165158172108 -10.702054516832476 82.552089478196194 -0.68199835119979291 0 0.73135370988377701 I I #
edge $-1 $249 -10.702054516832476 $465 -4.1627249106471211 $247 $472 forward 7 unknown #
point $-1 54.152043214209414 -10.702054516832476 6.9403060817330999 #
point $-1 54.152043214209414 -10.702054516832476 3.3434940731988547 #
edge $-1 $473 1 $473 0 $252 $-1 forward 7 unknown #
vertex $-1 $253 $474 #
ellipse-curve $-1 51.424497635622743 -9.3941885955954056 4.1622884438843446 0.73135370988377701 0 0.68199835119979291 0.34099917559989645 0 -0.36567685494188851 1 I I #
point $-1 52.816001700574425 -9.3941885955954056 4.7762232225240915 #
edge $-1 $475 1 $475 0 $256 $-1 forward 7 unknown #
vertex $-1 $257 $476 #
ellipse-curve $-1 51.424497635622743 -7.4323897137398003 4.1622884438843446 0.73135370988377701 0 0.68199835119979291 0.34099917559989645 0 -0.36567685494188851 1 I I #
point $-1 52.816001700574425 -7.4323897137398003 4.7762232225240915 #
edge $-1 $477 1 $477 0 $260 $-1 forward 7 unknown #
vertex $-1 $261 $478 #
ellipse-curve $-1 51.424497635622743 -5.4705908318841949 4.1622884438843446 0.73135370988377701 0 0.68199835119979291 0.34099917559989645 0 -0.36567685494188851 1 I I #
point $-1 52.816001700574425 -5.4705908318841949 4.7762232225240915 #
loop $-1 $-1 $272 $264 #
plane-surface $-1 0 0 6.9403060817330999 0 0 1 1 0 0 forward_v I I I I #
coedge $-1 $394 $267 $269 $398 reversed $166 $-1 #
coedge $-1 $267 $393 $479 $480 reversed $166 $-1 #
coedge $-1 $275 $270 $267 $396 forward $265 $-1 #
edge $-1 $399 -40.404028202001832 $481 -35.621408573851205 $395 $482 forward 7 unknown #
coedge $-1 $269 $268 $402 $483 reversed $104 $-1 #
edge $-1 $484 -7.4404352188737786 $399 0 $393 $485 forward 7 unknown #
vertex $-1 $271 $486 #
straight-curve $-1 -54.152043214209414 -1.4212016885501075 2.1576864535824725 0 -1 0 I I #
coedge $-1 $479 $272 $275 $406 forward $391 $-1 #
coedge $-1 $272 $479 $397 $483 forward $391 $-1 #
vertex $-1 $273 $487 #
straight-curve $-1 -61.884284452237146 1.0030537730260995 6.9403060817330982 -1 0 0 I I #
straight-curve $-1 -54.152043214209414 1.0030537730260995 2.1576864535824711 0.76604443648966558 0 0.64278761758704617 I I #
edge $-1 $276 -1.0030537730260995 $481 6.6878605272265297 $275 $488 forward 7 unknown #
point $-1 -54.152043214209414 1.0030537730260995 6.9403060817330999 #
point $-1 -54.152043214209414 1.0030537730260995 2.1576864535824711 #
edge $-1 $489 1 $489 0 $279 $-1 forward 7 unknown #
vertex $-1 $280 $490 #
ellipse-curve $-1 -49.391581671806804 -2.8424033771002151 2.2720205318154023 -0.64278761758704617 0 0.76604443648966558 0.76604443648966558 0 0.64278761758704617 1 I I #
point $-1 -50.536146775479736 -2.8424033771002151 5.1917838852448348 #
plane-surface $-1 54.152043214209414 0 0 -1 0 0 0 0 1 forward_v I I I I #
coedge $-1 $288 $286 $290 $418 reversed $181 $-1 #
edge $-1 $301 -6.9403060817330999 $420 6.9403060817330999 $300 $491 forward 7 unknown #
vertex $-1 $418 $492 #
straight-curve $-1 -54.152043214209414 -23.081756851575587 0 0 0 -1 I I #
edge $-1 $416 -23.081756851575587 $420 23.081756851575587 $414 $493 forward 7 unknown #
straight-curve $-1 0 -23.081756851575587 -6.9403060817330999 -1 0 0 I I #
vertex $-1 $293 $494 #
straight-curve $-1 0 23.081756851575587 -6.9403060817330999 1 0 0 I I #
point $-1 54.152043214209414 23.081756851575587 -6.9403060817330999 #
point $-1 54.152043214209414 -23.081756851575587 -6.9403060817330999 #
straight-curve $-1 -54.152043214209414 0 6.9403060817330999 0 -1 0 I I #
point $-1 -54.152043214209414 23.081756851575587 6.9403060817330999 #
point $-1 -54.152043214209414 -23.081756851575587 6.9403060817330999 #
straight-curve $-1 54.152043214209414 -23.081756851575587 0 0 0 -1 I I #
straight-curve $-1 54.152043214209414 23.081756851575587 0 0 0 -1 I I #
plane-surface $-1 54.152043214209414 0 0 -1 0 0 0 0 1 forward_v I I I I #
coedge $-1 $433 $313 $324 $442 forward $200 $-1 #
coedge $-1 $313 $433 $327 $444 reversed $200 $-1 #
straight-curve $-1 54.152043214209414 -17.917658246359988 -0.18288208102752801 0 0 1 I I #
coedge $-1 $431 $430 $316 $434 forward $200 $-1 #
edge $-1 $437 7.667804471876094 $435 12.831903077091694 $433 $495 forward 7 unknown #
vertex $-1 $318 $496 #
straight-curve $-1 0 -23.081756851575587 -1.865764162055056 1 0 0 I I #
vertex $-1 $434 $497 #
straight-curve $-1 0 -17.917658246359988 -1.865764162055056 1 0 0 I I #
point $-1 54.152043214209414 -23.081756851575587 -1.865764162055056 #
point $-1 54.152043214209414 -17.917658246359988 -1.865764162055056 #
straight-curve $-1 -54.152043214209414 -10.249853774483894 1.134235837944944 0 1 0 I I #
edge $-1 $325 -1.317117918972472 $437 1.682882081027528 $430 $498 forward 7 unknown #
point $-1 -54.152043214209414 -17.917658246359988 1.134235837944944 #
edge $-1 $329 -1.134235837944944 $435 1.865764162055056 $431 $499 forward 7 unknown #
point $-1 -54.152043214209414 -23.081756851575587 1.134235837944944 #
straight-curve $-1 54.152043214209414 -23.081756851575587 0 0 0 -1 I I #
plane-surface $-1 0 23.081756851575587 0 0 -1 0 0 0 -1 forward_v I I I I #
coedge $-1 $338 $457 $340 $451 forward $335 $-1 #
vertex $-1 $451 $500 #
straight-curve $-1 -54.152043214209414 17.917658246359988 -0.18288208102752801 0 0 1 I I #
edge $-1 $453 -12.831903077091694 $449 -7.667804471876094 $448 $501 forward 7 unknown #
straight-curve $-1 0 17.917658246359988 -1.865764162055056 -1 0 0 I I #
vertex $-1 $343 $502 #
straight-curve $-1 0 23.081756851575587 -1.865764162055056 -1 0 0 I I #
point $-1 54.152043214209414 17.917658246359988 -1.865764162055056 #
point $-1 54.152043214209414 23.081756851575587 -1.865764162055056 #
coedge $-1 $448 $347 $350 $459 forward $335 $-1 #
straight-curve $-1 -54.152043214209414 10.249853774483894 1.134235837944944 0 1 0 I I #
edge $-1 $352 -1.134235837944944 $453 1.865764162055056 $350 $503 forward 7 unknown #
point $-1 -54.152043214209414 23.081756851575587 1.134235837944944 #
point $-1 -54.152043214209414 17.917658246359988 1.134235837944944 #
straight-curve $-1 54.152043214209414 17.917658246359988 -0.18288208102752801 0 0 -1 I I #
straight-curve $-1 54.152043214209414 23.081756851575587 0 0 0 -1 I I #
edge $-1 $465 -24.403328090796798 $468 -21.049246712326998 $362 $504 forward 7 unknown #
vertex $-1 $464 $505 #
straight-curve $-1 54.152043214209414 -4.1627249106471211 78.207648925288851 0 0 1 I I #
edge $-1 $468 0.44653005377722188 $373 6.9858596599625766 $372 $506 forward 7 unknown #
vertex $-1 $467 $507 #
straight-curve $-1 -19.711165158172108 -4.1627249106471211 82.552089478196194 0.68199835119979291 0 -0.73135370988377701 I I #
point $-1 54.152043214209414 -4.1627249106471211 3.3434940731988547 #
point $-1 50.797961835739613 -10.702054516832476 6.9403060817330982 #
straight-curve $-1 54.152043214209414 0 6.9403060817330999 0 1 0 I I #
vertex $-1 $379 $508 #
point $-1 51.76549681122264 -9.3941885955954056 3.7966115889424557 #
vertex $-1 $383 $509 #
point $-1 51.76549681122264 -7.4323897137398003 3.7966115889424557 #
vertex $-1 $387 $510 #
point $-1 51.76549681122264 -5.4705908318841949 3.7966115889424557 #
coedge $-1 $402 $401 $394 $480 forward $391 $-1 #
edge $-1 $481 7.7322412380277328 $484 13.431945242507759 $479 $511 forward 7 unknown #
vertex $-1 $480 $512 #
straight-curve $-1 -54.152043214209414 -6.6878605272265297 42.561714655584304 0 0 1 I I #
edge $-1 $484 -5.2666588386764221 $403 2.4242554615762071 $402 $513 forward 7 unknown #
vertex $-1 $483 $514 #
straight-curve $-1 -54.152043214209414 -6.6878605272265297 2.1576864535824711 -0.76604443648966558 0 -0.64278761758704617 I I #
point $-1 -54.152043214209414 -6.6878605272265297 2.1576864535824711 #
point $-1 -48.452339209729388 1.0030537730260995 6.9403060817330999 #
straight-curve $-1 -54.152043214209414 0 6.9403060817330999 0 -1 0 I I #
vertex $-1 $409 $515 #
point $-1 -48.62553723531714 -2.8424033771002151 2.9148081494024485 #
straight-curve $-1 -54.152043214209414 23.081756851575587 0 0 0 -1 I I #
point $-1 -54.152043214209414 -23.081756851575587 -6.9403060817330999 #
straight-curve $-1 -54.152043214209414 0 -6.9403060817330999 0 1 0 I I #
point $-1 -54.152043214209414 23.081756851575587 -6.9403060817330999 #
straight-curve $-1 -54.152043214209414 -10.249853774483894 -1.865764162055056 0 -1 0 I I #
point $-1 -54.152043214209414 -23.081756851575587 -1.865764162055056 #
point $-1 -54.152043214209414 -17.917658246359988 -1.865764162055056 #
straight-curve $-1 -54.152043214209414 -17.917658246359988 -0.18288208102752801 0 0 -1 I I #
straight-curve $-1 -54.152043214209414 -23.081756851575587 0 0 0 -1 I I #
point $-1 -54.152043214209414 17.917658246359988 -1.865764162055056 #
straight-curve $-1 -54.152043214209414 10.249853774483894 -1.865764162055056 0 -1 0 I I #
point $-1 -54.152043214209414 23.081756851575587 -1.865764162055056 #
straight-curve $-1 -54.152043214209414 23.081756851575587 0 0 0 -1 I I #
straight-curve $-1 29.748715123412616 -4.1627249106471211 6.9403060817330982 -1 0 0 I I #
point $-1 54.152043214209414 -4.1627249106471211 6.9403060817330999 #
straight-curve $-1 50.797961835739613 -3.7161948568698993 6.940306081733091 0 -1 0 I I #
point $-1 50.797961835739613 -4.1627249106471211 6.9403060817330982 #
point $-1 51.058820780680861 -9.3941885955954056 3.8212892682844477 #
point $-1 51.058820780680861 -7.4323897137398003 3.8212892682844477 #
point $-1 51.058820780680861 -5.4705908318841949 3.8212892682844477 #
straight-curve $-1 -61.884284452237146 -6.6878605272265297 6.9403060817330982 1 0 0 I I #
point $-1 -54.152043214209414 -6.6878605272265297 6.9403060817330999 #
straight-curve $-1 -48.452339209729388 -1.4212016885501075 6.9403060817331017 0 1 0 I I #
point $-1 -48.452339209729388 -6.6878605272265297 6.9403060817330999 #
point $-1 -48.748794054219758 -2.8424033771002151 1.5059760953257366 #
End-of-ACIS-data 