500 0 11 0           
7 Unknown 11 ACIS 5.0 NT 24 Fri Mar 26 19:01:31 1999 
-1 9.9999999999999995e-007 1e-010 
body $-1 $11 $-1 $12 #
body $-1 $13 $-1 $14 #
body $-1 $15 $-1 $16 #
body $-1 $17 $-1 $18 #
body $-1 $19 $-1 $20 #
body $-1 $21 $-1 $22 #
body $-1 $23 $-1 $24 #
body $-1 $25 $-1 $26 #
body $-1 $27 $-1 $28 #
body $-1 $29 $-1 $30 #
body $-1 $31 $-1 $32 #
lump $-1 $-1 $33 $0 #
transform $-1 1 0 0 0 1 0 0 0 1 40.170903653065587 22.185392036724021 10.077301492238929 1 rotate no_reflect no_shear #
lump $-1 $-1 $34 $1 #
transform $-1 1 0 0 0 1 0 0 0 1 40.170903653065587 22.185392036724021 10.077301492238929 1 rotate no_reflect no_shear #
lump $-1 $-1 $35 $2 #
transform $-1 1 0 0 0 1 0 0 0 1 40.170903653065587 22.185392036724021 10.077301492238929 1 rotate no_reflect no_shear #
lump $-1 $-1 $36 $3 #
transform $-1 1 0 0 0 1 0 0 0 1 40.170903653065587 22.185392036724021 10.077301492238929 1 rotate no_reflect no_shear #
lump $-1 $-1 $37 $4 #
transform $-1 1 0 0 0 1 0 0 0 1 40.170903653065587 22.185392036724021 10.077301492238929 1 rotate no_reflect no_shear #
lump $-1 $-1 $38 $5 #
transform $-1 1 0 0 0 1 0 0 0 1 40.170903653065587 22.185392036724021 10.077301492238929 1 rotate no_reflect no_shear #
lump $-1 $-1 $39 $6 #
transform $-1 1 0 0 0 1 0 0 0 1 40.170903653065587 22.185392036724021 10.077301492238929 1 rotate no_reflect no_shear #
lump $-1 $-1 $40 $7 #
transform $-1 1 0 0 0 1 0 0 0 1 40.170903653065587 22.185392036724021 10.077301492238929 1 rotate no_reflect no_shear #
lump $-1 $-1 $41 $8 #
transform $-1 1 0 0 0 1 0 0 0 1 40.170903653065587 22.185392036724021 10.077301492238929 1 rotate no_reflect no_shear #
lump $-1 $-1 $42 $9 #
transform $-1 1 0 0 0 1 0 0 0 1 40.170903653065587 22.185392036724021 10.077301492238929 1 rotate no_reflect no_shear #
lump $-1 $-1 $43 $10 #
transform $-1 1 0 0 0 1 0 0 0 1 40.170903653065587 22.185392036724021 10.077301492238929 1 rotate no_reflect no_shear #
shell $-1 $-1 $-1 $44 $-1 $11 #
shell $-1 $-1 $-1 $45 $-1 $13 #
shell $-1 $-1 $-1 $46 $-1 $15 #
shell $-1 $-1 $-1 $47 $-1 $17 #
shell $-1 $-1 $-1 $48 $-1 $19 #
shell $-1 $-1 $-1 $49 $-1 $21 #
shell $-1 $-1 $-1 $50 $-1 $23 #
shell $-1 $-1 $-1 $51 $-1 $25 #
shell $-1 $-1 $-1 $52 $-1 $27 #
shell $-1 $-1 $-1 $53 $-1 $29 #
shell $-1 $-1 $-1 $54 $-1 $31 #
face $-1 $55 $56 $33 $-1 $57 forward single #
face $-1 $58 $59 $34 $-1 $60 forward single #
face $-1 $61 $62 $35 $-1 $63 reversed single #
face $-1 $64 $65 $36 $-1 $66 forward single #
face $-1 $67 $68 $37 $-1 $69 forward single #
face $-1 $70 $71 $38 $-1 $72 reversed single #
face $-1 $73 $74 $39 $-1 $75 forward single #
face $-1 $76 $77 $40 $-1 $78 forward single #
face $-1 $79 $80 $41 $-1 $81 reversed single #
face $-1 $82 $83 $42 $-1 $84 forward single #
face $-1 $85 $86 $43 $-1 $87 forward single #
face $-1 $88 $89 $33 $-1 $90 reversed single #
loop $-1 $-1 $91 $44 #
plane-surface $-1 0 0 10.077301492238929 0 0 1 1 0 0 forward_v I I I I #
face $-1 $92 $93 $34 $-1 $94 reversed single #
loop $-1 $-1 $95 $45 #
plane-surface $-1 0 -17.065445051203376 -5.1626833304823894 0 0 1 1 0 0 forward_v I I I I #
face $-1 $96 $97 $35 $-1 $98 reversed single #
loop $-1 $-1 $99 $46 #
plane-surface $-1 -91.813622564011183 14.546455461963234 64.964279520428605 0 1 0 -0.64278761758704617 0 0.76604443648966558 forward_v I I I I #
face $-1 $100 $101 $36 $-1 $102 forward single #
loop $-1 $103 $104 $47 #
cone-surface $-1 -35.846093553208092 16.729008769037744 6.3223818320921339 0.64278761758704617 0 -0.76604443648966558 0.38302221824483279 0 0.32139380879352308 1 I I 0 1 0.5 forward I I I I #
face $-1 $105 $106 $37 $-1 $107 forward single #
loop $-1 $108 $109 $48 #
cone-surface $-1 -35.846093553208092 20.002838729649508 6.3223818320921339 0.64278761758704617 0 -0.76604443648966558 0.38302221824483279 0 0.32139380879352308 1 I I 0 1 0.5 forward I I I I #
face $-1 $110 $111 $38 $-1 $112 reversed single #
loop $-1 $-1 $113 $49 #
plane-surface $-1 22.396746702321408 -4.3926431952540126 116.1536912612967 0 -1 0 -0.5877852598018023 0 -0.80901698891910034 forward_v I I I I #
face $-1 $114 $115 $39 $-1 $116 forward single #
loop $-1 $117 $118 $50 #
cone-surface $-1 34.927499928071143 -9.7875395312745272 5.6086045320372664 -0.5877852598018023 0 -0.80901698891910034 0.80901698891910034 0 -0.5877852598018023 1 I I 0 1 1 forward I I I I #
face $-1 $119 $120 $40 $-1 $121 forward single #
loop $-1 $122 $123 $51 #
cone-surface $-1 34.927499928071143 -6.550601729662219 5.6086045320372664 -0.5877852598018023 0 -0.80901698891910034 0.80901698891910034 0 -0.5877852598018023 1 I I 0 1 1 forward I I I I #
face $-1 $124 $125 $41 $-1 $126 reversed single #
loop $-1 $-1 $127 $52 #
plane-surface $-1 22.396746702321408 12.672801855949363 116.1536912612967 0 -1 0 -0.5877852598018023 0 -0.80901698891910034 forward_v I I I I #
face $-1 $128 $129 $42 $-1 $130 forward single #
loop $-1 $131 $132 $53 #
cone-surface $-1 34.927499928071143 7.2779055199288472 5.6086045320372664 -0.5877852598018023 0 -0.80901698891910034 0.80901698891910034 0 -0.5877852598018023 1 I I 0 1 1 forward I I I I #
face $-1 $133 $134 $43 $-1 $135 forward single #
loop $-1 $136 $137 $54 #
cone-surface $-1 34.927499928071143 10.514843321541154 5.6086045320372664 -0.5877852598018023 0 -0.80901698891910034 0.80901698891910034 0 -0.5877852598018023 1 I I 0 1 1 forward I I I I #
face $-1 $138 $139 $33 $-1 $140 reversed single #
loop $-1 $-1 $141 $55 #
plane-surface $-1 0 0 -10.077301492238929 0 0 1 1 0 0 forward_v I I I I #
coedge $-1 $142 $143 $144 $145 forward $56 $-1 #
face $-1 $146 $147 $34 $-1 $148 reversed single #
loop $-1 $-1 $149 $58 #
plane-surface $-1 0 -11.945498065682731 -7.6199924113606592 0 -1 0 0 0 -1 forward_v I I I I #
coedge $-1 $150 $151 $152 $153 reversed $59 $-1 #
face $-1 $154 $155 $35 $-1 $156 reversed single #
loop $-1 $-1 $157 $61 #
plane-surface $-1 -40.170903653065579 18.365923749343626 3.4188850160420401 -0.64278761758704617 0 0.76604443648966558 0.76604443648966558 0 0.64278761758704617 forward_v I I I I #
coedge $-1 $158 $159 $160 $161 reversed $62 $-1 #
face $-1 $-1 $162 $36 $-1 $163 forward single #
loop $-1 $164 $165 $64 #
cone-surface $-1 -35.32818234410076 16.729008769037744 5.705159300921359 0.64278761758704617 0 -0.76604443648966558 0.1915111091224164 0 0.16069690439676154 1 I I -0.70710678118654746 0.70710678118654746 0.25 forward I I I I #
loop $-1 $-1 $166 $47 #
coedge $-1 $104 $104 $167 $168 reversed $65 $-1 #
face $-1 $-1 $169 $37 $-1 $170 forward single #
loop $-1 $171 $172 $67 #
cone-surface $-1 -35.32818234410076 20.002838729649508 5.705159300921359 0.64278761758704617 0 -0.76604443648966558 0.1915111091224164 0 0.16069690439676154 1 I I -0.70710678118654746 0.70710678118654746 0.25 forward I I I I #
loop $-1 $-1 $173 $48 #
coedge $-1 $109 $109 $174 $175 reversed $68 $-1 #
face $-1 $176 $177 $38 $-1 $178 reversed single #
loop $-1 $-1 $179 $70 #
plane-surface $-1 -24.826983378059239 -8.1690706304683722 51.155804230171881 0.5877852598018023 0 0.80901698891910034 0.80901698891910034 0 -0.5877852598018023 forward_v I I I I #
coedge $-1 $180 $181 $182 $183 reversed $71 $-1 #
face $-1 $-1 $184 $39 $-1 $185 forward single #
loop $-1 $186 $187 $73 #
cone-surface $-1 33.619293396291432 -9.7875395312745272 3.8080127485999018 -0.5877852598018023 0 -0.80901698891910034 0.40450849445955017 0 -0.29389262990090115 1 I I -0.70710678118654746 0.70710678118654746 0.5 forward I I I I #
loop $-1 $-1 $188 $50 #
coedge $-1 $118 $118 $189 $190 reversed $74 $-1 #
face $-1 $-1 $191 $40 $-1 $192 forward single #
loop $-1 $193 $194 $76 #
cone-surface $-1 33.619293396291432 -6.550601729662219 3.8080127485999018 -0.5877852598018023 0 -0.80901698891910034 0.40450849445955017 0 -0.29389262990090115 1 I I -0.70710678118654746 0.70710678118654746 0.5 forward I I I I #
loop $-1 $-1 $195 $51 #
coedge $-1 $123 $123 $196 $197 reversed $77 $-1 #
face $-1 $198 $199 $41 $-1 $200 reversed single #
loop $-1 $-1 $201 $79 #
plane-surface $-1 -24.826983378059239 8.896374420735004 51.155804230171881 0.5877852598018023 0 0.80901698891910034 0.80901698891910034 0 -0.5877852598018023 forward_v I I I I #
coedge $-1 $202 $203 $204 $205 reversed $80 $-1 #
face $-1 $-1 $206 $42 $-1 $207 forward single #
loop $-1 $208 $209 $82 #
cone-surface $-1 33.619293396291432 7.2779055199288472 3.8080127485999018 -0.5877852598018023 0 -0.80901698891910034 0.40450849445955017 0 -0.29389262990090115 1 I I -0.70710678118654746 0.70710678118654746 0.5 forward I I I I #
loop $-1 $-1 $210 $53 #
coedge $-1 $132 $132 $211 $212 reversed $83 $-1 #
face $-1 $-1 $213 $43 $-1 $214 forward single #
loop $-1 $215 $216 $85 #
cone-surface $-1 33.619293396291432 10.514843321541154 3.8080127485999018 -0.5877852598018023 0 -0.80901698891910034 0.40450849445955017 0 -0.29389262990090115 1 I I -0.70710678118654746 0.70710678118654746 0.5 forward I I I I #
loop $-1 $-1 $217 $54 #
coedge $-1 $137 $137 $218 $219 reversed $86 $-1 #
face $-1 $220 $221 $33 $-1 $222 reversed single #
loop $-1 $-1 $223 $88 #
plane-surface $-1 0 -22.185392036724021 0 0 1 0 0 0 1 forward_v I I I I #
coedge $-1 $224 $225 $226 $227 forward $89 $-1 #
coedge $-1 $228 $91 $229 $230 forward $56 $-1 #
coedge $-1 $91 $228 $231 $232 forward $56 $-1 #
coedge $-1 $233 $234 $91 $145 reversed $235 $-1 #
edge $-1 $236 -22.185392036724021 $237 22.185392036724021 $144 $238 forward 7 unknown #
face $-1 $239 $240 $34 $-1 $241 reversed single #
loop $-1 $-1 $242 $92 #
plane-surface $-1 0 0 -10.077301492238929 0 0 1 1 0 0 forward_v I I I I #
coedge $-1 $243 $244 $245 $246 reversed $93 $-1 #
coedge $-1 $247 $95 $244 $248 forward $59 $-1 #
coedge $-1 $95 $247 $249 $250 reversed $59 $-1 #
coedge $-1 $251 $245 $95 $153 forward $240 $-1 #
edge $-1 $252 3.4127755400810429 $253 13.652669511122333 $152 $254 forward 7 unknown #
face $-1 $255 $256 $35 $-1 $257 reversed single #
loop $-1 $-1 $258 $96 #
plane-surface $-1 0 22.185392036724021 0 0 -1 0 0 0 -1 forward_v I I I I #
coedge $-1 $259 $260 $261 $262 reversed $97 $-1 #
coedge $-1 $159 $99 $263 $264 reversed $62 $-1 #
coedge $-1 $99 $158 $259 $265 reversed $62 $-1 #
coedge $-1 $261 $266 $99 $161 forward $267 $-1 #
edge $-1 $268 5.7359076289400051 $269 13.671099219233867 $160 $270 forward 7 unknown #
loop $-1 $-1 $167 $100 #
plane-surface $-1 -40.170903653065579 18.365923749343626 3.4188850160420401 -0.64278761758704617 0 0.76604443648966558 0.76604443648966558 0 0.64278761758704617 forward_v I I I I #
loop $-1 $-1 $271 $64 #
coedge $-1 $165 $165 $166 $272 reversed $101 $-1 #
coedge $-1 $166 $166 $165 $272 forward $103 $-1 #
coedge $-1 $167 $167 $104 $168 forward $162 $-1 #
edge $-1 $273 0 $273 6.2831853071796004 $167 $274 forward 7 unknown #
loop $-1 $-1 $174 $105 #
plane-surface $-1 -40.170903653065579 18.365923749343626 3.4188850160420401 -0.64278761758704617 0 0.76604443648966558 0.76604443648966558 0 0.64278761758704617 forward_v I I I I #
loop $-1 $-1 $275 $67 #
coedge $-1 $172 $172 $173 $276 reversed $106 $-1 #
coedge $-1 $173 $173 $172 $276 forward $108 $-1 #
coedge $-1 $174 $174 $109 $175 forward $169 $-1 #
edge $-1 $277 0 $277 6.2831853071796004 $174 $278 forward 7 unknown #
face $-1 $279 $280 $38 $-1 $281 forward single #
loop $-1 $-1 $282 $110 #
plane-surface $-1 22.396746702321408 -11.945498065682731 116.1536912612967 0 1 0 0.5877852598018023 0 0.80901698891910034 forward_v I I I I #
coedge $-1 $283 $284 $285 $286 reversed $111 $-1 #
coedge $-1 $181 $113 $287 $288 reversed $71 $-1 #
coedge $-1 $113 $180 $283 $289 reversed $71 $-1 #
coedge $-1 $285 $290 $113 $183 forward $280 $-1 #
edge $-1 $291 -28.972530301904882 $292 -20.514350655673603 $182 $293 forward 7 unknown #
loop $-1 $-1 $189 $114 #
plane-surface $-1 -24.826983378059239 -8.1690706304683722 51.155804230171881 0.5877852598018023 0 0.80901698891910034 0.80901698891910034 0 -0.5877852598018023 forward_v I I I I #
loop $-1 $-1 $294 $73 #
coedge $-1 $187 $187 $188 $295 reversed $115 $-1 #
coedge $-1 $188 $188 $187 $295 forward $117 $-1 #
coedge $-1 $189 $189 $118 $190 forward $184 $-1 #
edge $-1 $296 0 $296 6.2831853071796004 $189 $297 forward 7 unknown #
loop $-1 $-1 $196 $119 #
plane-surface $-1 -24.826983378059239 -8.1690706304683722 51.155804230171881 0.5877852598018023 0 0.80901698891910034 0.80901698891910034 0 -0.5877852598018023 forward_v I I I I #
loop $-1 $-1 $298 $76 #
coedge $-1 $194 $194 $195 $299 reversed $120 $-1 #
coedge $-1 $195 $195 $194 $299 forward $122 $-1 #
coedge $-1 $196 $196 $123 $197 forward $191 $-1 #
edge $-1 $300 0 $300 6.2831853071796004 $196 $301 forward 7 unknown #
face $-1 $302 $303 $41 $-1 $304 reversed single #
loop $-1 $-1 $305 $124 #
plane-surface $-1 22.396746702321408 5.1199469855206443 116.1536912612967 0 1 0 0.5877852598018023 0 0.80901698891910034 forward_v I I I I #
coedge $-1 $306 $307 $308 $309 reversed $125 $-1 #
coedge $-1 $203 $127 $310 $311 reversed $80 $-1 #
coedge $-1 $127 $202 $306 $312 reversed $80 $-1 #
coedge $-1 $308 $313 $127 $205 forward $314 $-1 #
edge $-1 $315 -28.972530301904882 $316 -20.514350655673603 $204 $317 forward 7 unknown #
loop $-1 $-1 $211 $128 #
plane-surface $-1 -24.826983378059239 8.896374420735004 51.155804230171881 0.5877852598018023 0 0.80901698891910034 0.80901698891910034 0 -0.5877852598018023 forward_v I I I I #
loop $-1 $-1 $318 $82 #
coedge $-1 $209 $209 $210 $319 reversed $129 $-1 #
coedge $-1 $210 $210 $209 $319 forward $131 $-1 #
coedge $-1 $211 $211 $132 $212 forward $206 $-1 #
edge $-1 $320 0 $320 6.2831853071796004 $211 $321 forward 7 unknown #
loop $-1 $-1 $218 $133 #
plane-surface $-1 -24.826983378059239 8.896374420735004 51.155804230171881 0.5877852598018023 0 0.80901698891910034 0.80901698891910034 0 -0.5877852598018023 forward_v I I I I #
loop $-1 $-1 $322 $85 #
coedge $-1 $216 $216 $217 $323 reversed $134 $-1 #
coedge $-1 $217 $217 $216 $323 forward $136 $-1 #
coedge $-1 $218 $218 $137 $219 forward $213 $-1 #
edge $-1 $324 0 $324 6.2831853071796004 $218 $325 forward 7 unknown #
face $-1 $326 $327 $33 $-1 $328 reversed single #
loop $-1 $-1 $329 $138 #
plane-surface $-1 -40.170903653065587 0 0 1 0 0 0 0 -1 forward_v I I I I #
coedge $-1 $330 $231 $331 $332 forward $139 $-1 #
coedge $-1 $333 $141 $330 $334 forward $89 $-1 #
coedge $-1 $141 $333 $335 $336 forward $89 $-1 #
coedge $-1 $234 $233 $141 $227 reversed $235 $-1 #
edge $-1 $337 -22.185392036724021 $338 22.185392036724021 $226 $339 forward 7 unknown #
coedge $-1 $143 $142 $340 $341 forward $56 $-1 #
coedge $-1 $342 $343 $142 $230 reversed $327 $-1 #
edge $-1 $237 -40.170903653065587 $344 40.170903653065587 $229 $345 forward 7 unknown #
coedge $-1 $223 $346 $143 $232 reversed $139 $-1 #
edge $-1 $347 -40.170903653065587 $236 40.170903653065587 $231 $348 forward 7 unknown #
coedge $-1 $226 $144 $346 $349 forward $235 $-1 #
coedge $-1 $144 $226 $342 $350 reversed $235 $-1 #
loop $-1 $-1 $233 $326 #
vertex $-1 $145 $351 #
vertex $-1 $145 $352 #
straight-curve $-1 40.170903653065587 0 10.077301492238929 0 1 0 I I #
face $-1 $353 $354 $34 $-1 $355 reversed single #
loop $-1 $-1 $245 $146 #
plane-surface $-1 40.170903653065587 0 0 -1 0 0 0 0 1 forward_v I I I I #
coedge $-1 $356 $357 $243 $358 forward $147 $-1 #
coedge $-1 $359 $149 $242 $358 reversed $93 $-1 #
coedge $-1 $149 $359 $150 $248 reversed $93 $-1 #
coedge $-1 $152 $360 $149 $246 forward $240 $-1 #
edge $-1 $361 -6.2673052865585994 $252 -1.3526871248020598 $245 $362 forward 7 unknown #
coedge $-1 $151 $150 $363 $364 reversed $59 $-1 #
edge $-1 $252 -40.170903653065587 $365 40.170903653065587 $244 $366 forward 7 unknown #
coedge $-1 $367 $368 $151 $250 forward $354 $-1 #
edge $-1 $253 -40.170903653065587 $369 40.170903653065587 $249 $370 forward 7 unknown #
coedge $-1 $360 $152 $368 $371 forward $240 $-1 #
vertex $-1 $153 $372 #
vertex $-1 $371 $373 #
straight-curve $-1 40.170903653065587 -8.5327225256016881 -5.1626833304823894 0 -1 0 I I #
face $-1 $-1 $267 $35 $-1 $374 forward single #
loop $-1 $-1 $375 $154 #
plane-surface $-1 -40.170903653065587 0 0 1 0 0 0 0 -1 forward_v I I I I #
coedge $-1 $376 $377 $260 $378 forward $155 $-1 #
coedge $-1 $379 $157 $159 $265 forward $97 $-1 #
coedge $-1 $157 $379 $258 $378 reversed $97 $-1 #
coedge $-1 $380 $160 $157 $262 forward $267 $-1 #
edge $-1 $269 5.3634935872914209 $381 13.002430162052205 $261 $382 forward 7 unknown #
coedge $-1 $383 $375 $158 $264 forward $256 $-1 #
edge $-1 $384 -29.063254744172269 $268 -22.404838267975371 $263 $385 forward 7 unknown #
edge $-1 $269 -10.358657033861121 $384 9.1539886837149753e-015 $159 $386 forward 7 unknown #
coedge $-1 $160 $380 $383 $387 forward $267 $-1 #
loop $-1 $-1 $261 $255 #
vertex $-1 $264 $388 #
vertex $-1 $161 $389 #
straight-curve $-1 -45.906811282005592 14.546455461963234 10.077301492238931 1 0 0 I I #
coedge $-1 $271 $271 $-1 $390 reversed $164 $-1 #
edge $-1 $391 0 $391 6.2831853071796004 $165 $392 forward 7 unknown #
vertex $-1 $168 $393 #
ellipse-curve $-1 -36.203307857918652 16.729008769037744 6.7480932541404819 -0.64278761758704617 0 0.76604443648966558 0.38302221824483279 0 0.32139380879352308 1 I I #
coedge $-1 $275 $275 $-1 $394 reversed $171 $-1 #
edge $-1 $395 0 $395 6.2831853071796004 $172 $396 forward 7 unknown #
vertex $-1 $175 $397 #
ellipse-curve $-1 -36.203307857918652 20.002838729649508 6.7480932541404819 -0.64278761758704617 0 0.76604443648966558 0.38302221824483279 0 0.32139380879352308 1 I I #
face $-1 $-1 $398 $38 $-1 $399 reversed single #
loop $-1 $-1 $182 $176 #
plane-surface $-1 0 0 10.077301492238929 0 0 1 1 0 0 forward_v I I I I #
coedge $-1 $400 $401 $402 $403 reversed $177 $-1 #
coedge $-1 $404 $179 $181 $289 forward $111 $-1 #
coedge $-1 $179 $404 $400 $405 forward $111 $-1 #
coedge $-1 $402 $182 $179 $286 forward $280 $-1 #
edge $-1 $292 0.30810788001982647 $406 7.8609627504485449 $285 $407 forward 7 unknown #
coedge $-1 $408 $409 $180 $288 forward $398 $-1 #
edge $-1 $410 -54.144771480857123 $291 -47.999544138409419 $287 $411 forward 7 unknown #
edge $-1 $292 69.886922226978555 $410 80.341807306131187 $181 $412 forward 7 unknown #
coedge $-1 $182 $402 $408 $413 forward $280 $-1 #
vertex $-1 $288 $414 #
vertex $-1 $183 $415 #
straight-curve $-1 11.198373351160704 -4.3926431952540126 10.077301492238931 -1 0 0 I I #
coedge $-1 $294 $294 $-1 $416 reversed $186 $-1 #
edge $-1 $417 0 $417 6.2831853071796004 $187 $418 forward 7 unknown #
vertex $-1 $190 $419 #
ellipse-curve $-1 35.941813829949943 -9.7875395312745272 7.0046878210150707 0.5877852598018023 0 0.80901698891910034 0.80901698891910034 0 -0.5877852598018023 1 I I #
coedge $-1 $298 $298 $-1 $420 reversed $193 $-1 #
edge $-1 $421 0 $421 6.2831853071796004 $194 $422 forward 7 unknown #
vertex $-1 $197 $423 #
ellipse-curve $-1 35.941813829949943 -6.550601729662219 7.0046878210150707 0.5877852598018023 0 0.80901698891910034 0.80901698891910034 0 -0.5877852598018023 1 I I #
face $-1 $-1 $314 $41 $-1 $424 forward single #
loop $-1 $-1 $425 $198 #
plane-surface $-1 40.170903653065587 0 0 -1 0 0 0 0 1 forward_v I I I I #
coedge $-1 $426 $427 $428 $429 reversed $199 $-1 #
coedge $-1 $430 $201 $203 $312 forward $125 $-1 #
coedge $-1 $201 $430 $426 $431 forward $125 $-1 #
coedge $-1 $428 $204 $201 $309 forward $314 $-1 #
edge $-1 $316 -8.2246146455818607 $432 -0.67175977515314234 $308 $433 forward 7 unknown #
coedge $-1 $434 $435 $202 $311 forward $303 $-1 #
edge $-1 $436 -54.144771480857123 $315 -47.999544138409419 $310 $437 forward 7 unknown #
edge $-1 $316 69.886922226978555 $436 80.341807306131187 $203 $438 forward 7 unknown #
coedge $-1 $204 $428 $434 $439 forward $314 $-1 #
loop $-1 $-1 $428 $302 #
vertex $-1 $311 $440 #
vertex $-1 $205 $441 #
straight-curve $-1 11.198373351160704 12.672801855949363 10.077301492238931 -1 0 0 I I #
coedge $-1 $318 $318 $-1 $442 reversed $208 $-1 #
edge $-1 $443 0 $443 6.2831853071796004 $209 $444 forward 7 unknown #
vertex $-1 $212 $445 #
ellipse-curve $-1 35.941813829949943 7.2779055199288472 7.0046878210150707 0.5877852598018023 0 0.80901698891910034 0.80901698891910034 0 -0.5877852598018023 1 I I #
coedge $-1 $322 $322 $-1 $446 reversed $215 $-1 #
edge $-1 $447 0 $447 6.2831853071796004 $216 $448 forward 7 unknown #
vertex $-1 $219 $449 #
ellipse-curve $-1 35.941813829949943 10.514843321541154 7.0046878210150707 0.5877852598018023 0 0.80901698891910034 0.80901698891910034 0 -0.5877852598018023 1 I I #
face $-1 $-1 $235 $33 $-1 $450 reversed single #
loop $-1 $-1 $342 $220 #
plane-surface $-1 0 22.185392036724021 0 0 -1 0 0 0 -1 forward_v I I I I #
coedge $-1 $451 $340 $343 $452 forward $221 $-1 #
coedge $-1 $346 $223 $224 $334 reversed $139 $-1 #
coedge $-1 $340 $451 $223 $332 reversed $221 $-1 #
edge $-1 $347 -10.077301492238929 $453 10.077301492238929 $331 $454 forward 7 unknown #
coedge $-1 $225 $224 $451 $455 forward $89 $-1 #
edge $-1 $338 -40.170903653065587 $453 40.170903653065587 $330 $456 forward 7 unknown #
coedge $-1 $343 $342 $225 $336 reversed $327 $-1 #
edge $-1 $457 -40.170903653065587 $337 40.170903653065587 $335 $458 forward 7 unknown #
vertex $-1 $227 $459 #
vertex $-1 $349 $460 #
straight-curve $-1 40.170903653065587 0 -10.077301492238929 0 -1 0 I I #
coedge $-1 $329 $331 $228 $341 reversed $221 $-1 #
edge $-1 $344 -22.185392036724021 $347 22.185392036724021 $340 $461 forward 7 unknown #
coedge $-1 $335 $229 $234 $350 forward $327 $-1 #
coedge $-1 $229 $335 $329 $452 reversed $327 $-1 #
vertex $-1 $230 $462 #
straight-curve $-1 0 22.185392036724021 10.077301492238929 -1 0 0 I I #
coedge $-1 $231 $330 $233 $349 reversed $139 $-1 #
vertex $-1 $341 $463 #
straight-curve $-1 0 -22.185392036724021 10.077301492238929 1 0 0 I I #
edge $-1 $236 -10.077301492238929 $338 10.077301492238929 $233 $464 forward 7 unknown #
edge $-1 $237 -10.077301492238929 $337 10.077301492238929 $234 $465 forward 7 unknown #
point $-1 40.170903653065587 -22.185392036724021 10.077301492238929 #
point $-1 40.170903653065587 22.185392036724021 10.077301492238929 #
face $-1 $-1 $466 $34 $-1 $467 reversed single #
loop $-1 $-1 $249 $239 #
plane-surface $-1 0 -22.185392036724021 0 0 1 0 0 0 1 forward_v I I I I #
coedge $-1 $468 $242 $360 $469 forward $147 $-1 #
coedge $-1 $242 $468 $470 $471 forward $147 $-1 #
edge $-1 $472 -40.170903653065587 $361 40.170903653065587 $242 $473 forward 7 unknown #
coedge $-1 $244 $243 $474 $475 reversed $93 $-1 #
coedge $-1 $245 $251 $356 $469 reversed $240 $-1 #
vertex $-1 $469 $476 #
straight-curve $-1 40.170903653065587 -11.945498065682731 -3.8099962056803296 0 0 1 I I #
coedge $-1 $474 $477 $247 $364 forward $466 $-1 #
edge $-1 $369 -13.652669511122333 $365 -3.4127755400810429 $363 $478 forward 7 unknown #
vertex $-1 $364 $479 #
straight-curve $-1 0 -11.945498065682731 -5.1626833304823894 -1 0 0 I I #
coedge $-1 $480 $249 $477 $481 forward $354 $-1 #
coedge $-1 $249 $480 $251 $371 reversed $354 $-1 #
vertex $-1 $481 $482 #
straight-curve $-1 0 -22.185392036724021 -5.1626833304823894 -1 0 0 I I #
edge $-1 $253 5.1626833304823894 $483 10.077301492238929 $251 $484 forward 7 unknown #
point $-1 40.170903653065587 -11.945498065682731 -5.1626833304823894 #
point $-1 40.170903653065587 -22.185392036724021 -5.1626833304823894 #
plane-surface $-1 0 0 10.077301492238929 0 0 1 1 0 0 forward_v I I I I #
coedge $-1 $263 $485 $379 $486 forward $256 $-1 #
coedge $-1 $377 $258 $485 $487 reversed $155 $-1 #
coedge $-1 $258 $376 $380 $488 reversed $155 $-1 #
edge $-1 $381 3.9288831151026562 $489 14.287540148963787 $258 $490 forward 7 unknown #
coedge $-1 $260 $259 $375 $486 reversed $97 $-1 #
coedge $-1 $266 $261 $377 $488 forward $267 $-1 #
vertex $-1 $488 $491 #
straight-curve $-1 -32.235712062771725 9.1829618746718129 10.077301492238931 0 1 0 I I #
coedge $-1 $485 $263 $266 $387 reversed $256 $-1 #
vertex $-1 $264 $492 #
straight-curve $-1 -40.170903653065587 14.546455461963234 32.482139760214302 0 0 1 I I #
straight-curve $-1 -40.170903653065579 14.546455461963234 3.4188850160420401 -0.76604443648966558 0 -0.64278761758704617 I I #
edge $-1 $493 -22.185392036724021 $268 -14.546455461963234 $383 $494 forward 7 unknown #
point $-1 -40.170903653065587 14.546455461963234 10.077301492238929 #
point $-1 -32.235712062771725 14.546455461963234 10.077301492238929 #
edge $-1 $495 1 $495 0 $271 $-1 forward 7 unknown #
vertex $-1 $272 $496 #
ellipse-curve $-1 -35.488879248497518 16.729008769037744 5.8966704100437752 -0.64278761758704617 0 0.76604443648966558 0.38302221824483279 0 0.32139380879352308 1 I I #
point $-1 -35.820285639673834 16.729008769037744 7.0694870629340159 #
edge $-1 $497 1 $497 0 $275 $-1 forward 7 unknown #
vertex $-1 $276 $498 #
ellipse-curve $-1 -35.488879248497518 20.002838729649508 5.8966704100437752 -0.64278761758704617 0 0.76604443648966558 0.38302221824483279 0 0.32139380879352308 1 I I #
point $-1 -35.820285639673834 20.002838729649508 7.0694870629340159 #
loop $-1 $-1 $287 $279 #
plane-surface $-1 40.170903653065587 0 0 -1 0 0 0 0 1 forward_v I I I I #
coedge $-1 $401 $282 $284 $405 reversed $177 $-1 #
coedge $-1 $282 $400 $499 $500 reversed $177 $-1 #
coedge $-1 $290 $285 $282 $403 forward $280 $-1 #
edge $-1 $406 20.514350655673603 $501 28.972530301904882 $402 $502 forward 7 unknown #
coedge $-1 $284 $283 $409 $503 reversed $111 $-1 #
edge $-1 $504 -80.341807306131187 $406 -69.886922226978555 $400 $505 forward 7 unknown #
vertex $-1 $286 $506 #
straight-curve $-1 31.712724006834318 -4.0845353152341861 10.077301492238927 0 -1 0 I I #
coedge $-1 $499 $287 $290 $413 reversed $398 $-1 #
coedge $-1 $287 $499 $404 $503 forward $398 $-1 #
vertex $-1 $288 $507 #
straight-curve $-1 40.170903653065587 -4.3926431952540126 58.07684563064835 0 0 1 I I #
straight-curve $-1 -24.826983378059239 -4.3926431952540126 51.155804230171881 0.80901698891910034 0 -0.5877852598018023 I I #
edge $-1 $501 -11.945498065682731 $291 -4.3926431952540126 $408 $508 forward 7 unknown #
point $-1 40.170903653065587 -4.3926431952540126 10.077301492238929 #
point $-1 31.712724006834307 -4.3926431952540126 10.077301492238931 #
edge $-1 $509 1 $509 0 $294 $-1 forward 7 unknown #
vertex $-1 $295 $510 #
ellipse-curve $-1 33.913186026192335 -9.7875395312745272 4.2125212430594523 0.5877852598018023 0 0.80901698891910034 0.80901698891910034 0 -0.5877852598018023 1 I I #
point $-1 36.750830818869055 -9.7875395312745272 6.4169025612132788 #
edge $-1 $511 1 $511 0 $298 $-1 forward 7 unknown #
vertex $-1 $299 $512 #
ellipse-curve $-1 33.913186026192335 -6.550601729662219 4.2125212430594523 0.5877852598018023 0 0.80901698891910034 0.80901698891910034 0 -0.5877852598018023 1 I I #
point $-1 36.750830818869055 -6.550601729662219 6.4169025612132788 #
plane-surface $-1 0 0 10.077301492238929 0 0 1 1 0 0 forward_v I I I I #
coedge $-1 $435 $434 $427 $513 forward $303 $-1 #
coedge $-1 $427 $305 $307 $431 reversed $199 $-1 #
coedge $-1 $305 $426 $425 $513 reversed $199 $-1 #
coedge $-1 $313 $308 $305 $429 forward $314 $-1 #
edge $-1 $432 20.514350655673603 $514 28.972530301904882 $428 $515 forward 7 unknown #
coedge $-1 $307 $306 $435 $516 reversed $125 $-1 #
edge $-1 $517 -80.341807306131187 $432 -69.886922226978555 $426 $518 forward 7 unknown #
vertex $-1 $309 $519 #
straight-curve $-1 31.712724006834318 4.448187210367502 10.077301492238927 0 -1 0 I I #
coedge $-1 $425 $310 $313 $439 reversed $303 $-1 #
coedge $-1 $310 $425 $430 $516 forward $303 $-1 #
vertex $-1 $311 $520 #
straight-curve $-1 40.170903653065587 12.672801855949363 58.07684563064835 0 0 1 I I #
straight-curve $-1 -24.826983378059239 12.672801855949363 51.155804230171881 0.80901698891910034 0 -0.5877852598018023 I I #
edge $-1 $514 5.1199469855206443 $315 12.672801855949363 $434 $521 forward 7 unknown #
point $-1 40.170903653065587 12.672801855949363 10.077301492238929 #
point $-1 31.712724006834307 12.672801855949363 10.077301492238931 #
edge $-1 $522 1 $522 0 $318 $-1 forward 7 unknown #
vertex $-1 $319 $523 #
ellipse-curve $-1 33.913186026192335 7.2779055199288472 4.2125212430594523 0.5877852598018023 0 0.80901698891910034 0.80901698891910034 0 -0.5877852598018023 1 I I #
point $-1 36.750830818869055 7.2779055199288472 6.4169025612132788 #
edge $-1 $524 1 $524 0 $322 $-1 forward 7 unknown #
vertex $-1 $323 $525 #
ellipse-curve $-1 33.913186026192335 10.514843321541154 4.2125212430594523 0.5877852598018023 0 0.80901698891910034 0.80901698891910034 0 -0.5877852598018023 1 I I #
point $-1 36.750830818869055 10.514843321541154 6.4169025612132788 #
plane-surface $-1 40.170903653065587 0 0 -1 0 0 0 0 1 forward_v I I I I #
coedge $-1 $331 $329 $333 $455 reversed $221 $-1 #
edge $-1 $344 -10.077301492238929 $457 10.077301492238929 $343 $526 forward 7 unknown #
vertex $-1 $455 $527 #
straight-curve $-1 -40.170903653065587 -22.185392036724021 0 0 0 -1 I I #
edge $-1 $453 -22.185392036724021 $457 22.185392036724021 $451 $528 forward 7 unknown #
straight-curve $-1 0 -22.185392036724021 -10.077301492238929 -1 0 0 I I #
vertex $-1 $336 $529 #
straight-curve $-1 0 22.185392036724021 -10.077301492238929 1 0 0 I I #
point $-1 40.170903653065587 22.185392036724021 -10.077301492238929 #
point $-1 40.170903653065587 -22.185392036724021 -10.077301492238929 #
straight-curve $-1 -40.170903653065587 0 10.077301492238929 0 -1 0 I I #
point $-1 -40.170903653065587 22.185392036724021 10.077301492238929 #
point $-1 -40.170903653065587 -22.185392036724021 10.077301492238929 #
straight-curve $-1 40.170903653065587 -22.185392036724021 0 0 0 -1 I I #
straight-curve $-1 40.170903653065587 22.185392036724021 0 0 0 -1 I I #
loop $-1 $-1 $474 $353 #
plane-surface $-1 -40.170903653065587 0 0 1 0 0 0 0 -1 forward_v I I I I #
coedge $-1 $357 $356 $480 $530 forward $147 $-1 #
edge $-1 $361 11.945498065682731 $483 22.185392036724021 $360 $531 forward 7 unknown #
coedge $-1 $477 $474 $357 $471 reversed $466 $-1 #
edge $-1 $532 -22.185392036724021 $472 -11.945498065682731 $470 $533 forward 7 unknown #
vertex $-1 $475 $534 #
straight-curve $-1 0 -11.945498065682731 -10.077301492238929 1 0 0 I I #
coedge $-1 $470 $363 $359 $475 forward $466 $-1 #
edge $-1 $365 1.3526871248020598 $472 6.2673052865585994 $474 $535 forward 7 unknown #
point $-1 40.170903653065587 -11.945498065682731 -10.077301492238929 #
coedge $-1 $363 $470 $367 $481 reversed $466 $-1 #
straight-curve $-1 -40.170903653065587 -8.5327225256016881 -5.1626833304823894 0 1 0 I I #
point $-1 -40.170903653065587 -11.945498065682731 -5.1626833304823894 #
coedge $-1 $368 $367 $468 $530 reversed $354 $-1 #
edge $-1 $369 5.1626833304823894 $532 10.077301492238929 $477 $536 forward 7 unknown #
point $-1 -40.170903653065587 -22.185392036724021 -5.1626833304823894 #
vertex $-1 $371 $537 #
straight-curve $-1 40.170903653065587 -22.185392036724021 0 0 0 -1 I I #
coedge $-1 $375 $383 $376 $487 forward $256 $-1 #
edge $-1 $489 -13.002430162052205 $384 -5.3634935872914209 $375 $538 forward 7 unknown #
edge $-1 $493 -10.077301492238929 $489 -3.4188850160420343 $376 $539 forward 7 unknown #
edge $-1 $381 32.235712062771725 $493 40.170903653065587 $377 $540 forward 7 unknown #
vertex $-1 $378 $541 #
straight-curve $-1 -29.226013010829149 22.185392036724021 12.602738909573738 -0.76604443648966558 0 -0.64278761758704617 I I #
point $-1 -32.235712062771725 22.185392036724018 10.077301492238929 #
point $-1 -40.170903653065587 14.546455461963234 3.4188850160420343 #
vertex $-1 $488 $542 #
straight-curve $-1 -40.170903653065587 0 10.077301492238929 0 -1 0 I I #
vertex $-1 $390 $543 #
point $-1 -35.105857030252686 16.729008769037744 6.2180642188372985 #
vertex $-1 $394 $544 #
point $-1 -35.105857030252686 20.002838729649508 6.2180642188372985 #
coedge $-1 $409 $408 $401 $500 forward $398 $-1 #
edge $-1 $501 47.999544138409419 $504 54.144771480857123 $499 $545 forward 7 unknown #
vertex $-1 $413 $546 #
straight-curve $-1 11.198373351160704 -11.945498065682731 10.077301492238931 1 0 0 I I #
edge $-1 $504 -7.8609627504485449 $410 -0.30810788001982647 $409 $547 forward 7 unknown #
vertex $-1 $503 $548 #
straight-curve $-1 -24.826983378059239 -11.945498065682731 51.155804230171881 -0.80901698891910034 0 0.5877852598018023 I I #
point $-1 31.712724006834307 -11.945498065682731 10.077301492238931 #
point $-1 40.170903653065594 -4.3926431952540126 3.9320741497912266 #
straight-curve $-1 40.170903653065587 0 10.077301492238929 0 1 0 I I #
vertex $-1 $416 $549 #
point $-1 34.722203015111432 -9.7875395312745272 3.6247359832576498 #
vertex $-1 $420 $550 #
point $-1 34.722203015111432 -6.550601729662219 3.6247359832576498 #
edge $-1 $514 47.999544138409419 $517 54.144771480857123 $425 $551 forward 7 unknown #
vertex $-1 $439 $552 #
straight-curve $-1 11.198373351160704 5.1199469855206443 10.077301492238931 1 0 0 I I #
edge $-1 $517 0.67175977515314234 $436 8.2246146455818607 $435 $553 forward 7 unknown #
vertex $-1 $516 $554 #
straight-curve $-1 -24.826983378059239 5.1199469855206443 51.155804230171881 -0.80901698891910034 0 0.5877852598018023 I I #
point $-1 31.712724006834307 5.1199469855206443 10.077301492238931 #
point $-1 40.170903653065594 12.672801855949363 3.9320741497912266 #
straight-curve $-1 40.170903653065587 0 10.077301492238929 0 1 0 I I #
vertex $-1 $442 $555 #
point $-1 34.722203015111432 7.2779055199288472 3.6247359832576498 #
vertex $-1 $446 $556 #
point $-1 34.722203015111432 10.514843321541154 3.6247359832576498 #
straight-curve $-1 -40.170903653065587 22.185392036724021 0 0 0 -1 I I #
point $-1 -40.170903653065587 -22.185392036724021 -10.077301492238929 #
straight-curve $-1 -40.170903653065587 0 -10.077301492238929 0 1 0 I I #
point $-1 -40.170903653065587 22.185392036724021 -10.077301492238929 #
edge $-1 $483 -40.170903653065587 $532 40.170903653065587 $480 $557 forward 7 unknown #
straight-curve $-1 40.170903653065587 0 -10.077301492238929 0 -1 0 I I #
vertex $-1 $471 $558 #
straight-curve $-1 -40.170903653065587 0 -10.077301492238929 0 1 0 I I #
point $-1 -40.170903653065587 -11.945498065682731 -10.077301492238929 #
straight-curve $-1 -40.170903653065587 -11.945498065682731 -3.8099962056803296 0 0 -1 I I #
straight-curve $-1 -40.170903653065587 -22.185392036724021 0 0 0 -1 I I #
point $-1 40.170903653065587 -22.185392036724021 -10.077301492238929 #
straight-curve $-1 -40.170903653065587 9.1829618746718129 3.4188850160420325 0 -1 0 I I #
straight-curve $-1 -40.170903653065587 22.185392036724021 0 0 0 -1 I I #
straight-curve $-1 0 22.185392036724021 10.077301492238929 -1 0 0 I I #
point $-1 -40.170903653065587 22.185392036724018 3.4188850160420343 #
point $-1 -40.170903653065587 22.185392036724021 10.077301492238929 #
point $-1 -35.167485439704002 16.729008769037744 5.5136481917989428 #
point $-1 -35.167485439704002 20.002838729649508 5.5136481917989428 #
straight-curve $-1 40.170903653065587 -11.945498065682731 58.07684563064835 0 0 -1 I I #
point $-1 40.170903653065587 -11.945498065682731 10.077301492238929 #
straight-curve $-1 40.170903653065587 -4.0845353152341861 3.932074149791223 0 1 0 I I #
point $-1 40.170903653065594 -11.945498065682731 3.9320741497912266 #
point $-1 33.32540076639053 -9.7875395312745272 3.4035042541403517 #
point $-1 33.32540076639053 -6.550601729662219 3.4035042541403517 #
straight-curve $-1 40.170903653065587 5.1199469855206443 58.07684563064835 0 0 -1 I I #
point $-1 40.170903653065587 5.1199469855206443 10.077301492238929 #
straight-curve $-1 40.170903653065587 4.448187210367502 3.932074149791223 0 1 0 I I #
point $-1 40.170903653065594 5.1199469855206443 3.9320741497912266 #
point $-1 33.32540076639053 7.2779055199288472 3.4035042541403517 #
point $-1 33.32540076639053 10.514843321541154 3.4035042541403517 #
straight-curve $-1 0 -22.185392036724021 -10.077301492238929 -1 0 0 I I #
point $-1 -40.170903653065587 -22.185392036724021 -10.077301492238929 #
End-of-ACIS-data 