500 0 13 0           
7 Unknown 11 ACIS 5.0 NT 24 Thu Mar 25 16:13:29 1999 
-1 9.9999999999999995e-007 1e-010 
body $-1 $13 $-1 $14 #
body $-1 $15 $-1 $16 #
body $-1 $17 $-1 $18 #
body $-1 $19 $-1 $20 #
body $-1 $21 $-1 $22 #
body $-1 $23 $-1 $24 #
body $-1 $25 $-1 $26 #
body $-1 $27 $-1 $28 #
body $-1 $29 $-1 $30 #
body $-1 $31 $-1 $32 #
body $-1 $33 $-1 $34 #
body $-1 $35 $-1 $36 #
body $-1 $37 $-1 $38 #
lump $-1 $-1 $39 $0 #
transform $-1 1 0 0 0 1 0 0 0 1 68.102664265877252 39.842978736023845 12.461646399613647 1 rotate no_reflect no_shear #
lump $-1 $-1 $40 $1 #
transform $-1 1 0 0 0 1 0 0 0 1 68.102664265877252 39.842978736023845 12.461646399613647 1 rotate no_reflect no_shear #
lump $-1 $-1 $41 $2 #
transform $-1 1 0 0 0 1 0 0 0 1 68.102664265877252 39.842978736023845 12.461646399613647 1 rotate no_reflect no_shear #
lump $-1 $-1 $42 $3 #
transform $-1 1 0 0 0 1 0 0 0 1 68.102664265877252 39.842978736023845 12.461646399613647 1 rotate no_reflect no_shear #
lump $-1 $-1 $43 $4 #
transform $-1 1 0 0 0 1 0 0 0 1 68.102664265877252 39.842978736023845 12.461646399613647 1 rotate no_reflect no_shear #
lump $-1 $-1 $44 $5 #
transform $-1 1 0 0 0 1 0 0 0 1 68.102664265877252 39.842978736023845 12.461646399613647 1 rotate no_reflect no_shear #
lump $-1 $-1 $45 $6 #
transform $-1 1 0 0 0 1 0 0 0 1 68.102664265877252 39.842978736023845 12.461646399613647 1 rotate no_reflect no_shear #
lump $-1 $-1 $46 $7 #
transform $-1 1 0 0 0 1 0 0 0 1 68.102664265877252 39.842978736023845 12.461646399613647 1 rotate no_reflect no_shear #
lump $-1 $-1 $47 $8 #
transform $-1 1 0 0 0 1 0 0 0 1 68.102664265877252 39.842978736023845 12.461646399613647 1 rotate no_reflect no_shear #
lump $-1 $-1 $48 $9 #
transform $-1 1 0 0 0 1 0 0 0 1 68.102664265877252 39.842978736023845 12.461646399613647 1 rotate no_reflect no_shear #
lump $-1 $-1 $49 $10 #
transform $-1 1 0 0 0 1 0 0 0 1 68.102664265877252 39.842978736023845 12.461646399613647 1 rotate no_reflect no_shear #
lump $-1 $-1 $50 $11 #
transform $-1 1 0 0 0 1 0 0 0 1 68.102664265877252 39.842978736023845 12.461646399613647 1 rotate no_reflect no_shear #
lump $-1 $-1 $51 $12 #
transform $-1 1 0 0 0 1 0 0 0 1 68.102664265877252 39.842978736023845 12.461646399613647 1 rotate no_reflect no_shear #
shell $-1 $-1 $-1 $52 $-1 $13 #
shell $-1 $-1 $-1 $53 $-1 $15 #
shell $-1 $-1 $-1 $54 $-1 $17 #
shell $-1 $-1 $-1 $55 $-1 $19 #
shell $-1 $-1 $-1 $56 $-1 $21 #
shell $-1 $-1 $-1 $57 $-1 $23 #
shell $-1 $-1 $-1 $58 $-1 $25 #
shell $-1 $-1 $-1 $59 $-1 $27 #
shell $-1 $-1 $-1 $60 $-1 $29 #
shell $-1 $-1 $-1 $61 $-1 $31 #
shell $-1 $-1 $-1 $62 $-1 $33 #
shell $-1 $-1 $-1 $63 $-1 $35 #
shell $-1 $-1 $-1 $64 $-1 $37 #
face $-1 $65 $66 $39 $-1 $67 forward single #
face $-1 $68 $69 $40 $-1 $70 forward single #
face $-1 $71 $72 $41 $-1 $73 reversed single #
face $-1 $74 $75 $42 $-1 $76 forward single #
face $-1 $77 $78 $43 $-1 $79 forward single #
face $-1 $80 $81 $44 $-1 $82 forward single #
face $-1 $83 $84 $45 $-1 $85 reversed single #
face $-1 $86 $87 $46 $-1 $88 forward single #
face $-1 $89 $90 $47 $-1 $91 forward single #
face $-1 $92 $93 $48 $-1 $94 forward single #
face $-1 $95 $96 $49 $-1 $97 reversed single #
face $-1 $98 $99 $50 $-1 $100 forward single #
face $-1 $101 $102 $51 $-1 $103 forward single #
face $-1 $104 $105 $39 $-1 $106 reversed single #
loop $-1 $-1 $107 $52 #
plane-surface $-1 0 0 12.461646399613647 0 0 1 1 0 0 forward_v I I I I #
face $-1 $108 $109 $40 $-1 $110 reversed single #
loop $-1 $-1 $111 $53 #
plane-surface $-1 0 -39.842978736023845 0 0 1 0 0 0 1 forward_v I I I I #
face $-1 $112 $113 $41 $-1 $114 reversed single #
loop $-1 $-1 $115 $54 #
plane-surface $-1 -181.02200030063165 -26.468920913019556 82.183867916987253 0 1 0 -0.82903758062907751 0 0.55919289150049634 forward_v I I I I #
face $-1 $116 $117 $42 $-1 $118 forward single #
loop $-1 $119 $120 $55 #
cone-surface $-1 -65.325212649151467 -23.924795984744208 8.8324371723378245 0.82903758062907751 0 -0.55919289150049634 0.55919289150049634 0 0.82903758062907751 1 I I 0 1 1 forward I I I I #
face $-1 $121 $122 $43 $-1 $123 forward single #
loop $-1 $124 $125 $56 #
cone-surface $-1 -65.325212649151467 -20.10860859233118 8.8324371723378245 0.82903758062907751 0 -0.55919289150049634 0.55919289150049634 0 0.82903758062907751 1 I I 0 1 1 forward I I I I #
face $-1 $126 $127 $44 $-1 $128 forward single #
loop $-1 $129 $130 $57 #
cone-surface $-1 -65.325212649151467 -16.292421199918152 8.8324371723378245 0.82903758062907751 0 -0.55919289150049634 0.55919289150049634 0 0.82903758062907751 1 I I 0 1 1 forward I I I I #
face $-1 $131 $132 $45 $-1 $133 reversed single #
loop $-1 $-1 $134 $58 #
plane-surface $-1 -181.02200030063165 6.687028911502142 82.183867916987253 0 1 0 -0.82903758062907751 0 0.55919289150049634 forward_v I I I I #
face $-1 $135 $136 $46 $-1 $137 forward single #
loop $-1 $138 $139 $59 #
cone-surface $-1 -65.325212649151467 9.231153839777491 8.8324371723378245 0.82903758062907751 0 -0.55919289150049634 0.55919289150049634 0 0.82903758062907751 1 I I 0 1 1 forward I I I I #
face $-1 $140 $141 $47 $-1 $142 forward single #
loop $-1 $143 $144 $60 #
cone-surface $-1 -65.325212649151467 13.047341232190519 8.8324371723378245 0.82903758062907751 0 -0.55919289150049634 0.55919289150049634 0 0.82903758062907751 1 I I 0 1 1 forward I I I I #
face $-1 $145 $146 $48 $-1 $147 forward single #
loop $-1 $148 $149 $61 #
cone-surface $-1 -65.325212649151467 16.863528624603546 8.8324371723378245 0.82903758062907751 0 -0.55919289150049634 0.55919289150049634 0 0.82903758062907751 1 I I 0 1 1 forward I I I I #
face $-1 $150 $151 $49 $-1 $152 reversed single #
loop $-1 $-1 $153 $62 #
plane-surface $-1 51.314428753467013 25.836281324526976 194.47046178188651 0 -1 0 -0.64278761758704617 0 -0.76604443648966558 forward_v I I I I #
face $-1 $154 $155 $50 $-1 $156 forward single #
loop $-1 $157 $158 $63 #
cone-surface $-1 61.264272739987078 12.259730162561304 6.3884750130475849 -0.64278761758704617 0 -0.76604443648966558 1.5320888729793312 0 -1.2855752351740923 1 I I 0 1 2 forward I I I I #
face $-1 $159 $160 $51 $-1 $161 forward single #
loop $-1 $162 $163 $64 #
cone-surface $-1 61.264272739987078 20.405660859740699 6.3884750130475849 -0.64278761758704617 0 -0.76604443648966558 1.5320888729793312 0 -1.2855752351740923 1 I I 0 1 2 forward I I I I #
face $-1 $164 $165 $39 $-1 $166 reversed single #
loop $-1 $-1 $167 $65 #
plane-surface $-1 0 0 -12.461646399613647 0 0 1 1 0 0 forward_v I I I I #
coedge $-1 $168 $169 $170 $171 forward $66 $-1 #
face $-1 $172 $173 $40 $-1 $174 reversed single #
loop $-1 $-1 $175 $68 #
plane-surface $-1 0 0 -12.461646399613647 0 0 1 1 0 0 forward_v I I I I #
coedge $-1 $176 $177 $178 $179 forward $69 $-1 #
face $-1 $180 $181 $41 $-1 $182 reversed single #
loop $-1 $-1 $183 $71 #
plane-surface $-1 -68.102664265877237 -20.10860859233118 6.0188164175403926 -0.82903758062907751 0 0.55919289150049634 0.55919289150049634 0 0.82903758062907751 forward_v I I I I #
coedge $-1 $184 $185 $186 $187 reversed $72 $-1 #
face $-1 $-1 $188 $42 $-1 $189 forward single #
loop $-1 $190 $191 $74 #
cone-surface $-1 -64.30611402217437 -23.924795984744208 8.1450464903483688 0.82903758062907751 0 -0.55919289150049634 0.27959644575024817 0 0.41451879031453875 1 I I -0.70710678118654746 0.70710678118654746 0.5 forward I I I I #
loop $-1 $-1 $192 $55 #
coedge $-1 $120 $120 $193 $194 reversed $75 $-1 #
face $-1 $-1 $195 $43 $-1 $196 forward single #
loop $-1 $197 $198 $77 #
cone-surface $-1 -64.30611402217437 -20.10860859233118 8.1450464903483688 0.82903758062907751 0 -0.55919289150049634 0.27959644575024817 0 0.41451879031453875 1 I I -0.70710678118654746 0.70710678118654746 0.5 forward I I I I #
loop $-1 $-1 $199 $56 #
coedge $-1 $125 $125 $200 $201 reversed $78 $-1 #
face $-1 $-1 $202 $44 $-1 $203 forward single #
loop $-1 $204 $205 $80 #
cone-surface $-1 -64.30611402217437 -16.292421199918152 8.1450464903483688 0.82903758062907751 0 -0.55919289150049634 0.27959644575024817 0 0.41451879031453875 1 I I -0.70710678118654746 0.70710678118654746 0.5 forward I I I I #
loop $-1 $-1 $206 $57 #
coedge $-1 $130 $130 $207 $208 reversed $81 $-1 #
face $-1 $209 $210 $45 $-1 $211 reversed single #
loop $-1 $-1 $212 $83 #
plane-surface $-1 -68.102664265877237 13.047341232190519 6.0188164175403926 -0.82903758062907751 0 0.55919289150049634 0.55919289150049634 0 0.82903758062907751 forward_v I I I I #
coedge $-1 $213 $214 $215 $216 reversed $84 $-1 #
face $-1 $-1 $217 $46 $-1 $218 forward single #
loop $-1 $219 $220 $86 #
cone-surface $-1 -64.30611402217437 9.231153839777491 8.1450464903483688 0.82903758062907751 0 -0.55919289150049634 0.27959644575024817 0 0.41451879031453875 1 I I -0.70710678118654746 0.70710678118654746 0.5 forward I I I I #
loop $-1 $-1 $221 $59 #
coedge $-1 $139 $139 $222 $223 reversed $87 $-1 #
face $-1 $-1 $224 $47 $-1 $225 forward single #
loop $-1 $226 $227 $89 #
cone-surface $-1 -64.30611402217437 13.047341232190519 8.1450464903483688 0.82903758062907751 0 -0.55919289150049634 0.27959644575024817 0 0.41451879031453875 1 I I -0.70710678118654746 0.70710678118654746 0.5 forward I I I I #
loop $-1 $-1 $228 $60 #
coedge $-1 $144 $144 $229 $230 reversed $90 $-1 #
face $-1 $-1 $231 $48 $-1 $232 forward single #
loop $-1 $233 $234 $92 #
cone-surface $-1 -64.30611402217437 16.863528624603546 8.1450464903483688 0.82903758062907751 0 -0.55919289150049634 0.27959644575024817 0 0.41451879031453875 1 I I -0.70710678118654746 0.70710678118654746 0.5 forward I I I I #
loop $-1 $-1 $235 $61 #
coedge $-1 $149 $149 $236 $237 reversed $93 $-1 #
face $-1 $238 $239 $49 $-1 $240 reversed single #
loop $-1 $-1 $241 $95 #
plane-surface $-1 -36.236669876120388 16.332695511151009 90.131127639888859 0.64278761758704617 0 0.76604443648966558 0.76604443648966558 0 -0.64278761758704617 forward_v I I I I #
coedge $-1 $242 $243 $244 $245 reversed $96 $-1 #
face $-1 $-1 $246 $50 $-1 $247 forward single #
loop $-1 $248 $249 $98 #
cone-surface $-1 59.671319985358309 12.259730162561304 4.4900678846479654 -0.64278761758704617 0 -0.76604443648966558 0.76604443648966558 0 -0.64278761758704617 1 I I -0.70710678118654746 0.70710678118654746 1 forward I I I I #
loop $-1 $-1 $250 $63 #
coedge $-1 $158 $158 $251 $252 reversed $99 $-1 #
face $-1 $-1 $253 $51 $-1 $254 forward single #
loop $-1 $255 $256 $101 #
cone-surface $-1 59.671319985358309 20.405660859740699 4.4900678846479654 -0.64278761758704617 0 -0.76604443648966558 0.76604443648966558 0 -0.64278761758704617 1 I I -0.70710678118654746 0.70710678118654746 1 forward I I I I #
loop $-1 $-1 $257 $64 #
coedge $-1 $163 $163 $258 $259 reversed $102 $-1 #
face $-1 $260 $261 $39 $-1 $262 reversed single #
loop $-1 $-1 $263 $104 #
plane-surface $-1 0 -39.842978736023845 0 0 1 0 0 0 1 forward_v I I I I #
coedge $-1 $264 $265 $266 $267 forward $105 $-1 #
coedge $-1 $268 $107 $269 $270 forward $66 $-1 #
coedge $-1 $107 $268 $271 $272 forward $66 $-1 #
coedge $-1 $273 $274 $107 $171 reversed $275 $-1 #
edge $-1 $276 -39.842978736023845 $277 39.842978736023845 $170 $278 forward 7 unknown #
face $-1 $279 $280 $40 $-1 $281 reversed single #
loop $-1 $-1 $282 $108 #
plane-surface $-1 -45.041259411185266 -53.217036559028138 0 0 1 0 0 0 1 forward_v I I I I #
coedge $-1 $283 $284 $177 $285 forward $109 $-1 #
coedge $-1 $286 $111 $287 $288 reversed $69 $-1 #
coedge $-1 $111 $286 $175 $285 reversed $69 $-1 #
coedge $-1 $289 $290 $111 $179 reversed $280 $-1 #
edge $-1 $291 -12.461646399613647 $292 12.461646399613647 $178 $293 forward 7 unknown #
face $-1 $294 $295 $41 $-1 $296 reversed single #
loop $-1 $-1 $297 $112 #
plane-surface $-1 -181.02200030063165 -13.748296271642804 82.183867916987253 0 -1 0 0.82903758062907751 0 -0.55919289150049634 forward_v I I I I #
coedge $-1 $298 $299 $300 $301 reversed $113 $-1 #
coedge $-1 $185 $115 $302 $303 reversed $72 $-1 #
coedge $-1 $115 $184 $298 $304 reversed $72 $-1 #
coedge $-1 $300 $305 $115 $187 forward $306 $-1 #
edge $-1 $307 22.408335884438571 $308 26.754079444565043 $186 $309 forward 7 unknown #
loop $-1 $-1 $193 $116 #
plane-surface $-1 -68.102664265877237 -20.10860859233118 6.0188164175403926 -0.82903758062907751 0 0.55919289150049634 0.55919289150049634 0 0.82903758062907751 forward_v I I I I #
loop $-1 $-1 $310 $74 #
coedge $-1 $191 $191 $192 $311 reversed $117 $-1 #
coedge $-1 $192 $192 $191 $311 forward $119 $-1 #
coedge $-1 $193 $193 $120 $194 forward $188 $-1 #
edge $-1 $312 0 $312 6.2831853071796004 $193 $313 forward 7 unknown #
loop $-1 $-1 $200 $121 #
plane-surface $-1 -68.102664265877237 -20.10860859233118 6.0188164175403926 -0.82903758062907751 0 0.55919289150049634 0.55919289150049634 0 0.82903758062907751 forward_v I I I I #
loop $-1 $-1 $314 $77 #
coedge $-1 $198 $198 $199 $315 reversed $122 $-1 #
coedge $-1 $199 $199 $198 $315 forward $124 $-1 #
coedge $-1 $200 $200 $125 $201 forward $195 $-1 #
edge $-1 $316 0 $316 6.2831853071796004 $200 $317 forward 7 unknown #
loop $-1 $-1 $207 $126 #
plane-surface $-1 -68.102664265877237 -20.10860859233118 6.0188164175403926 -0.82903758062907751 0 0.55919289150049634 0.55919289150049634 0 0.82903758062907751 forward_v I I I I #
loop $-1 $-1 $318 $80 #
coedge $-1 $205 $205 $206 $319 reversed $127 $-1 #
coedge $-1 $206 $206 $205 $319 forward $129 $-1 #
coedge $-1 $207 $207 $130 $208 forward $202 $-1 #
edge $-1 $320 0 $320 6.2831853071796004 $207 $321 forward 7 unknown #
face $-1 $322 $323 $45 $-1 $324 forward single #
loop $-1 $-1 $325 $131 #
plane-surface $-1 -181.02200030063165 19.407653552878894 82.183867916987253 0 -1 0 0.82903758062907751 0 -0.55919289150049634 forward_v I I I I #
coedge $-1 $326 $327 $328 $329 reversed $132 $-1 #
coedge $-1 $214 $134 $330 $331 reversed $84 $-1 #
coedge $-1 $134 $213 $326 $332 reversed $84 $-1 #
coedge $-1 $328 $333 $134 $216 forward $323 $-1 #
edge $-1 $334 22.408335884438571 $335 26.754079444565043 $215 $336 forward 7 unknown #
loop $-1 $-1 $222 $135 #
plane-surface $-1 -68.102664265877237 13.047341232190519 6.0188164175403926 -0.82903758062907751 0 0.55919289150049634 0.55919289150049634 0 0.82903758062907751 forward_v I I I I #
loop $-1 $-1 $337 $86 #
coedge $-1 $220 $220 $221 $338 reversed $136 $-1 #
coedge $-1 $221 $221 $220 $338 forward $138 $-1 #
coedge $-1 $222 $222 $139 $223 forward $217 $-1 #
edge $-1 $339 0 $339 6.2831853071796004 $222 $340 forward 7 unknown #
loop $-1 $-1 $229 $140 #
plane-surface $-1 -68.102664265877237 13.047341232190519 6.0188164175403926 -0.82903758062907751 0 0.55919289150049634 0.55919289150049634 0 0.82903758062907751 forward_v I I I I #
loop $-1 $-1 $341 $89 #
coedge $-1 $227 $227 $228 $342 reversed $141 $-1 #
coedge $-1 $228 $228 $227 $342 forward $143 $-1 #
coedge $-1 $229 $229 $144 $230 forward $224 $-1 #
edge $-1 $343 0 $343 6.2831853071796004 $229 $344 forward 7 unknown #
loop $-1 $-1 $236 $145 #
plane-surface $-1 -68.102664265877237 13.047341232190519 6.0188164175403926 -0.82903758062907751 0 0.55919289150049634 0.55919289150049634 0 0.82903758062907751 forward_v I I I I #
loop $-1 $-1 $345 $92 #
coedge $-1 $234 $234 $235 $346 reversed $146 $-1 #
coedge $-1 $235 $235 $234 $346 forward $148 $-1 #
coedge $-1 $236 $236 $149 $237 forward $231 $-1 #
edge $-1 $347 0 $347 6.2831853071796004 $236 $348 forward 7 unknown #
face $-1 $349 $350 $49 $-1 $351 forward single #
loop $-1 $-1 $352 $150 #
plane-surface $-1 51.314428753467013 6.8291096977750421 194.47046178188651 0 1 0 0.64278761758704617 0 0.76604443648966558 forward_v I I I I #
coedge $-1 $353 $354 $355 $356 reversed $151 $-1 #
coedge $-1 $243 $153 $357 $358 reversed $96 $-1 #
coedge $-1 $153 $242 $353 $359 reversed $96 $-1 #
coedge $-1 $355 $360 $153 $245 forward $350 $-1 #
edge $-1 $361 -42.445449889143745 $362 -30.66899711144687 $244 $363 forward 7 unknown #
loop $-1 $-1 $251 $154 #
plane-surface $-1 -36.236669876120388 16.332695511151009 90.131127639888859 0.64278761758704617 0 0.76604443648966558 0.76604443648966558 0 -0.64278761758704617 forward_v I I I I #
loop $-1 $-1 $364 $98 #
coedge $-1 $249 $249 $250 $365 reversed $155 $-1 #
coedge $-1 $250 $250 $249 $365 forward $157 $-1 #
coedge $-1 $251 $251 $158 $252 forward $246 $-1 #
edge $-1 $366 0 $366 6.2831853071796004 $251 $367 forward 7 unknown #
loop $-1 $-1 $258 $159 #
plane-surface $-1 -36.236669876120388 16.332695511151009 90.131127639888859 0.64278761758704617 0 0.76604443648966558 0.76604443648966558 0 -0.64278761758704617 forward_v I I I I #
loop $-1 $-1 $368 $101 #
coedge $-1 $256 $256 $257 $369 reversed $160 $-1 #
coedge $-1 $257 $257 $256 $369 forward $162 $-1 #
coedge $-1 $258 $258 $163 $259 forward $253 $-1 #
edge $-1 $370 0 $370 6.2831853071796004 $258 $371 forward 7 unknown #
face $-1 $372 $373 $39 $-1 $374 reversed single #
loop $-1 $-1 $375 $164 #
plane-surface $-1 -68.102664265877252 0 0 1 0 0 0 0 -1 forward_v I I I I #
coedge $-1 $376 $271 $377 $378 forward $165 $-1 #
coedge $-1 $379 $167 $376 $380 forward $105 $-1 #
coedge $-1 $167 $379 $381 $382 forward $105 $-1 #
coedge $-1 $274 $273 $167 $267 reversed $275 $-1 #
edge $-1 $383 -39.842978736023845 $384 39.842978736023845 $266 $385 forward 7 unknown #
coedge $-1 $169 $168 $386 $387 forward $66 $-1 #
coedge $-1 $388 $389 $168 $270 reversed $373 $-1 #
edge $-1 $277 -68.102664265877252 $390 68.102664265877252 $269 $391 forward 7 unknown #
coedge $-1 $263 $392 $169 $272 reversed $165 $-1 #
edge $-1 $393 -68.102664265877252 $276 68.102664265877252 $271 $394 forward 7 unknown #
coedge $-1 $266 $170 $392 $395 forward $275 $-1 #
coedge $-1 $170 $266 $388 $396 reversed $275 $-1 #
loop $-1 $-1 $273 $372 #
vertex $-1 $171 $397 #
vertex $-1 $171 $398 #
straight-curve $-1 68.102664265877252 0 12.461646399613647 0 1 0 I I #
face $-1 $399 $400 $40 $-1 $401 reversed single #
loop $-1 $-1 $178 $172 #
plane-surface $-1 -46.903147355720577 -46.530007647525991 0 1 0 0 0 0 -1 forward_v I I I I #
coedge $-1 $402 $403 $404 $405 forward $173 $-1 #
coedge $-1 $406 $175 $407 $408 forward $109 $-1 #
coedge $-1 $175 $406 $289 $409 forward $109 $-1 #
edge $-1 $291 -46.903147355720577 $410 -43.179371466649954 $175 $411 forward 7 unknown #
coedge $-1 $177 $176 $412 $413 forward $69 $-1 #
coedge $-1 $414 $415 $176 $288 forward $416 $-1 #
edge $-1 $417 43.179371466649954 $292 46.903147355720577 $287 $418 forward 7 unknown #
coedge $-1 $404 $178 $284 $409 reversed $280 $-1 #
coedge $-1 $178 $404 $414 $419 reversed $280 $-1 #
vertex $-1 $285 $420 #
vertex $-1 $419 $421 #
straight-curve $-1 -46.903147355720577 -39.842978736023845 0 0 0 1 I I #
face $-1 $-1 $306 $41 $-1 $422 forward single #
loop $-1 $-1 $423 $180 #
plane-surface $-1 -68.102664265877252 0 0 1 0 0 0 0 -1 forward_v I I I I #
coedge $-1 $424 $425 $426 $427 reversed $181 $-1 #
coedge $-1 $428 $183 $185 $304 forward $113 $-1 #
coedge $-1 $183 $428 $424 $429 forward $113 $-1 #
coedge $-1 $426 $186 $183 $301 forward $306 $-1 #
edge $-1 $308 -16.414616616853966 $430 -3.6939919754772141 $300 $431 forward 7 unknown #
coedge $-1 $432 $433 $184 $303 forward $295 $-1 #
edge $-1 $434 -35.073117540953255 $307 -28.630287558879978 $302 $435 forward 7 unknown #
edge $-1 $308 -7.771457087849269 $434 2.5618607856530852e-014 $185 $436 forward 7 unknown #
coedge $-1 $186 $426 $432 $437 forward $306 $-1 #
loop $-1 $-1 $426 $294 #
vertex $-1 $303 $438 #
vertex $-1 $187 $439 #
straight-curve $-1 -90.511000150315823 -26.468920913019556 12.461646399613649 1 0 0 I I #
coedge $-1 $310 $310 $-1 $440 reversed $190 $-1 #
edge $-1 $441 0 $441 6.2831853071796004 $191 $442 forward 7 unknown #
vertex $-1 $194 $443 #
ellipse-curve $-1 -65.929792485814005 -23.924795984744208 9.240231408577019 -0.82903758062907751 0 0.55919289150049634 0.55919289150049634 0 0.82903758062907751 1 I I #
coedge $-1 $314 $314 $-1 $444 reversed $197 $-1 #
edge $-1 $445 0 $445 6.2831853071796004 $198 $446 forward 7 unknown #
vertex $-1 $201 $447 #
ellipse-curve $-1 -65.929792485814005 -20.10860859233118 9.240231408577019 -0.82903758062907751 0 0.55919289150049634 0.55919289150049634 0 0.82903758062907751 1 I I #
coedge $-1 $318 $318 $-1 $448 reversed $204 $-1 #
edge $-1 $449 0 $449 6.2831853071796004 $205 $450 forward 7 unknown #
vertex $-1 $208 $451 #
ellipse-curve $-1 -65.929792485814005 -16.292421199918152 9.240231408577019 -0.82903758062907751 0 0.55919289150049634 0.55919289150049634 0 0.82903758062907751 1 I I #
face $-1 $-1 $452 $45 $-1 $453 reversed single #
loop $-1 $-1 $215 $209 #
plane-surface $-1 0 0 12.461646399613647 0 0 1 1 0 0 forward_v I I I I #
coedge $-1 $454 $455 $456 $457 reversed $210 $-1 #
coedge $-1 $458 $212 $214 $332 forward $132 $-1 #
coedge $-1 $212 $458 $454 $459 forward $132 $-1 #
coedge $-1 $456 $215 $212 $329 forward $323 $-1 #
edge $-1 $335 0.16335829540688263 $460 12.883982936783635 $328 $461 forward 7 unknown #
coedge $-1 $462 $463 $213 $331 forward $452 $-1 #
edge $-1 $464 -35.073117540953255 $334 -28.630287558879978 $330 $465 forward 7 unknown #
edge $-1 $335 -7.771457087849269 $464 2.5618607856530852e-014 $214 $466 forward 7 unknown #
coedge $-1 $215 $456 $462 $467 forward $323 $-1 #
vertex $-1 $216 $468 #
vertex $-1 $216 $469 #
straight-curve $-1 -90.511000150315823 6.687028911502142 12.461646399613649 1 0 0 I I #
coedge $-1 $337 $337 $-1 $470 reversed $219 $-1 #
edge $-1 $471 0 $471 6.2831853071796004 $220 $472 forward 7 unknown #
vertex $-1 $223 $473 #
ellipse-curve $-1 -65.929792485814005 9.231153839777491 9.240231408577019 -0.82903758062907751 0 0.55919289150049634 0.55919289150049634 0 0.82903758062907751 1 I I #
coedge $-1 $341 $341 $-1 $474 reversed $226 $-1 #
edge $-1 $475 0 $475 6.2831853071796004 $227 $476 forward 7 unknown #
vertex $-1 $230 $477 #
ellipse-curve $-1 -65.929792485814005 13.047341232190519 9.240231408577019 -0.82903758062907751 0 0.55919289150049634 0.55919289150049634 0 0.82903758062907751 1 I I #
coedge $-1 $345 $345 $-1 $478 reversed $233 $-1 #
edge $-1 $479 0 $479 6.2831853071796004 $234 $480 forward 7 unknown #
vertex $-1 $237 $481 #
ellipse-curve $-1 -65.929792485814005 16.863528624603546 9.240231408577019 -0.82903758062907751 0 0.55919289150049634 0.55919289150049634 0 0.82903758062907751 1 I I #
face $-1 $-1 $482 $49 $-1 $483 reversed single #
loop $-1 $-1 $244 $238 #
plane-surface $-1 0 0 12.461646399613647 0 0 1 1 0 0 forward_v I I I I #
coedge $-1 $484 $485 $486 $487 reversed $239 $-1 #
coedge $-1 $488 $241 $243 $359 forward $151 $-1 #
coedge $-1 $241 $488 $484 $489 forward $151 $-1 #
coedge $-1 $486 $244 $241 $356 forward $350 $-1 #
edge $-1 $362 -17.669933568951471 $490 1.3372380578004623 $355 $491 forward 7 unknown #
coedge $-1 $492 $493 $242 $358 forward $482 $-1 #
edge $-1 $494 -94.655201880641798 $361 -84.773584491329615 $357 $495 forward 7 unknown #
edge $-1 $362 120.83226110023384 $494 136.2053285317545 $243 $496 forward 7 unknown #
coedge $-1 $244 $486 $492 $497 forward $350 $-1 #
vertex $-1 $245 $498 #
vertex $-1 $245 $499 #
straight-curve $-1 25.657214376733506 25.836281324526976 12.461646399613642 -1 0 0 I I #
coedge $-1 $364 $364 $-1 $500 reversed $248 $-1 #
edge $-1 $501 0 $501 6.2831853071796004 $249 $502 forward 7 unknown #
vertex $-1 $252 $503 #
ellipse-curve $-1 62.214437877028814 12.259730162561304 7.5208377049575548 0.64278761758704617 0 0.76604443648966558 1.5320888729793312 0 -1.2855752351740923 1 I I #
coedge $-1 $368 $368 $-1 $504 reversed $255 $-1 #
edge $-1 $505 0 $505 6.2831853071796004 $256 $506 forward 7 unknown #
vertex $-1 $259 $507 #
ellipse-curve $-1 62.214437877028814 20.405660859740699 7.5208377049575548 0.64278761758704617 0 0.76604443648966558 1.5320888729793312 0 -1.2855752351740923 1 I I #
face $-1 $-1 $275 $39 $-1 $508 reversed single #
loop $-1 $-1 $388 $260 #
plane-surface $-1 0 39.842978736023845 0 0 -1 0 0 0 -1 forward_v I I I I #
coedge $-1 $509 $386 $389 $510 forward $261 $-1 #
coedge $-1 $392 $263 $264 $380 reversed $165 $-1 #
coedge $-1 $386 $509 $263 $378 reversed $261 $-1 #
edge $-1 $393 -12.461646399613647 $511 12.461646399613647 $377 $512 forward 7 unknown #
coedge $-1 $265 $264 $509 $513 forward $105 $-1 #
edge $-1 $384 -68.102664265877252 $511 68.102664265877252 $376 $514 forward 7 unknown #
coedge $-1 $389 $388 $265 $382 reversed $373 $-1 #
edge $-1 $515 -68.102664265877252 $383 68.102664265877252 $381 $516 forward 7 unknown #
vertex $-1 $267 $517 #
vertex $-1 $395 $518 #
straight-curve $-1 68.102664265877252 0 -12.461646399613647 0 -1 0 I I #
coedge $-1 $375 $377 $268 $387 reversed $261 $-1 #
edge $-1 $390 -39.842978736023845 $393 39.842978736023845 $386 $519 forward 7 unknown #
coedge $-1 $381 $269 $274 $396 forward $373 $-1 #
coedge $-1 $269 $381 $375 $510 reversed $373 $-1 #
vertex $-1 $270 $520 #
straight-curve $-1 0 39.842978736023845 12.461646399613647 -1 0 0 I I #
coedge $-1 $271 $376 $273 $395 reversed $165 $-1 #
vertex $-1 $387 $521 #
straight-curve $-1 0 -39.842978736023845 12.461646399613647 1 0 0 I I #
edge $-1 $276 -12.461646399613647 $384 12.461646399613647 $273 $522 forward 7 unknown #
edge $-1 $277 -12.461646399613647 $383 12.461646399613647 $274 $523 forward 7 unknown #
point $-1 68.102664265877252 -39.842978736023845 12.461646399613647 #
point $-1 68.102664265877252 39.842978736023845 12.461646399613647 #
face $-1 $-1 $416 $40 $-1 $524 forward single #
loop $-1 $-1 $525 $279 #
plane-surface $-1 -43.179371466649954 -46.530007647525991 0 -1 0 0 0 0 1 forward_v I I I I #
coedge $-1 $526 $282 $406 $527 reversed $173 $-1 #
coedge $-1 $282 $526 $528 $529 reversed $173 $-1 #
coedge $-1 $290 $289 $282 $405 reversed $280 $-1 #
edge $-1 $530 -12.461646399613647 $531 12.461646399613647 $404 $532 forward 7 unknown #
coedge $-1 $284 $283 $402 $527 forward $109 $-1 #
coedge $-1 $412 $525 $283 $408 reversed $400 $-1 #
edge $-1 $410 -6.6870289115021464 $533 6.6870289115021464 $407 $534 forward 7 unknown #
edge $-1 $531 -6.6870289115021464 $291 6.6870289115021464 $289 $535 forward 7 unknown #
vertex $-1 $408 $536 #
straight-curve $-1 0 -39.842978736023845 -12.461646399613647 1 0 0 I I #
coedge $-1 $537 $407 $286 $413 reversed $400 $-1 #
edge $-1 $417 -12.461646399613647 $410 12.461646399613647 $412 $538 forward 7 unknown #
coedge $-1 $528 $287 $290 $419 forward $416 $-1 #
coedge $-1 $287 $528 $537 $539 forward $416 $-1 #
loop $-1 $-1 $287 $399 #
vertex $-1 $288 $540 #
straight-curve $-1 0 -39.842978736023845 12.461646399613647 -1 0 0 I I #
edge $-1 $292 -6.6870289115021464 $530 6.6870289115021464 $290 $541 forward 7 unknown #
point $-1 -46.903147355720577 -39.842978736023845 -12.461646399613647 #
point $-1 -46.903147355720577 -39.842978736023845 12.461646399613647 #
plane-surface $-1 0 0 12.461646399613647 0 0 1 1 0 0 forward_v I I I I #
coedge $-1 $433 $432 $425 $542 forward $295 $-1 #
coedge $-1 $425 $297 $299 $429 reversed $181 $-1 #
coedge $-1 $297 $424 $423 $542 reversed $181 $-1 #
coedge $-1 $305 $300 $297 $427 forward $306 $-1 #
edge $-1 $430 -26.754079444565043 $543 -22.408335884438571 $426 $544 forward 7 unknown #
coedge $-1 $299 $298 $433 $545 reversed $113 $-1 #
edge $-1 $546 -2.5618607856530852e-014 $430 7.771457087849269 $424 $547 forward 7 unknown #
vertex $-1 $301 $548 #
straight-curve $-1 -63.756920705750773 -10.05430429616559 12.461646399613645 0 1 0 I I #
coedge $-1 $423 $302 $305 $437 reversed $295 $-1 #
coedge $-1 $302 $423 $428 $545 forward $295 $-1 #
vertex $-1 $303 $549 #
straight-curve $-1 -68.102664265877252 -26.468920913019556 41.091933958493627 0 0 1 I I #
straight-curve $-1 -68.102664265877237 -26.468920913019556 6.0188164175403926 -0.55919289150049634 0 -0.82903758062907751 I I #
edge $-1 $543 13.748296271642804 $307 26.468920913019556 $432 $550 forward 7 unknown #
point $-1 -68.102664265877252 -26.468920913019556 12.461646399613647 #
point $-1 -63.75692070575078 -26.468920913019556 12.461646399613647 #
edge $-1 $551 1 $551 0 $310 $-1 forward 7 unknown #
vertex $-1 $311 $552 #
ellipse-curve $-1 -64.720632812488915 -23.924795984744208 8.4246429360986177 -0.82903758062907751 0 0.55919289150049634 0.55919289150049634 0 0.82903758062907751 1 I I #
point $-1 -65.370599594313532 -23.924795984744208 10.06926898920611 #
edge $-1 $553 1 $553 0 $314 $-1 forward 7 unknown #
vertex $-1 $315 $554 #
ellipse-curve $-1 -64.720632812488915 -20.10860859233118 8.4246429360986177 -0.82903758062907751 0 0.55919289150049634 0.55919289150049634 0 0.82903758062907751 1 I I #
point $-1 -65.370599594313532 -20.10860859233118 10.06926898920611 #
edge $-1 $555 1 $555 0 $318 $-1 forward 7 unknown #
vertex $-1 $319 $556 #
ellipse-curve $-1 -64.720632812488915 -16.292421199918152 8.4246429360986177 -0.82903758062907751 0 0.55919289150049634 0.55919289150049634 0 0.82903758062907751 1 I I #
point $-1 -65.370599594313532 -16.292421199918152 10.06926898920611 #
loop $-1 $-1 $330 $322 #
plane-surface $-1 -68.102664265877252 0 0 1 0 0 0 0 -1 forward_v I I I I #
coedge $-1 $455 $325 $327 $459 reversed $210 $-1 #
coedge $-1 $325 $454 $557 $558 reversed $210 $-1 #
coedge $-1 $333 $328 $325 $457 forward $323 $-1 #
edge $-1 $460 -26.754079444565043 $559 -22.408335884438571 $456 $560 forward 7 unknown #
coedge $-1 $327 $326 $463 $561 reversed $132 $-1 #
edge $-1 $562 -2.5618607856530852e-014 $460 7.771457087849269 $454 $563 forward 7 unknown #
vertex $-1 $329 $564 #
straight-curve $-1 -63.756920705750773 6.5236706160952593 12.461646399613645 0 1 0 I I #
coedge $-1 $557 $330 $333 $467 reversed $452 $-1 #
coedge $-1 $330 $557 $458 $561 forward $452 $-1 #
vertex $-1 $331 $565 #
straight-curve $-1 -68.102664265877252 6.687028911502142 41.091933958493627 0 0 1 I I #
straight-curve $-1 -68.102664265877237 6.687028911502142 6.0188164175403926 -0.55919289150049634 0 -0.82903758062907751 I I #
edge $-1 $559 -19.407653552878894 $334 -6.687028911502142 $462 $566 forward 7 unknown #
point $-1 -68.102664265877252 6.687028911502142 12.461646399613647 #
point $-1 -63.75692070575078 6.687028911502142 12.461646399613647 #
edge $-1 $567 1 $567 0 $337 $-1 forward 7 unknown #
vertex $-1 $338 $568 #
ellipse-curve $-1 -64.720632812488915 9.231153839777491 8.4246429360986177 -0.82903758062907751 0 0.55919289150049634 0.55919289150049634 0 0.82903758062907751 1 I I #
point $-1 -65.370599594313532 9.231153839777491 10.06926898920611 #
edge $-1 $569 1 $569 0 $341 $-1 forward 7 unknown #
vertex $-1 $342 $570 #
ellipse-curve $-1 -64.720632812488915 13.047341232190519 8.4246429360986177 -0.82903758062907751 0 0.55919289150049634 0.55919289150049634 0 0.82903758062907751 1 I I #
point $-1 -65.370599594313532 13.047341232190519 10.06926898920611 #
edge $-1 $571 1 $571 0 $345 $-1 forward 7 unknown #
vertex $-1 $346 $572 #
ellipse-curve $-1 -64.720632812488915 16.863528624603546 8.4246429360986177 -0.82903758062907751 0 0.55919289150049634 0.55919289150049634 0 0.82903758062907751 1 I I #
point $-1 -65.370599594313532 16.863528624603546 10.06926898920611 #
loop $-1 $-1 $357 $349 #
plane-surface $-1 68.102664265877252 0 0 -1 0 0 0 0 1 forward_v I I I I #
coedge $-1 $485 $352 $354 $489 reversed $239 $-1 #
coedge $-1 $352 $484 $573 $574 reversed $239 $-1 #
coedge $-1 $360 $355 $352 $487 forward $350 $-1 #
edge $-1 $490 30.66899711144687 $575 42.445449889143745 $486 $576 forward 7 unknown #
coedge $-1 $354 $353 $493 $577 reversed $151 $-1 #
edge $-1 $578 -136.2053285317545 $490 -120.83226110023384 $484 $579 forward 7 unknown #
vertex $-1 $356 $580 #
straight-curve $-1 56.326211488180348 8.1663477555755044 12.461646399613663 0 -1 0 I I #
coedge $-1 $573 $357 $360 $497 reversed $482 $-1 #
coedge $-1 $357 $573 $488 $577 forward $482 $-1 #
vertex $-1 $358 $581 #
straight-curve $-1 68.102664265877252 25.836281324526976 97.235230890943257 0 0 1 I I #
straight-curve $-1 -36.236669876120388 25.836281324526976 90.131127639888859 0.76604443648966558 0 -0.64278761758704617 I I #
edge $-1 $575 6.8291096977750421 $361 25.836281324526976 $492 $582 forward 7 unknown #
point $-1 68.102664265877252 25.836281324526976 12.461646399613647 #
point $-1 56.326211488180377 25.836281324526976 12.461646399613642 #
edge $-1 $583 1 $583 0 $364 $-1 forward 7 unknown #
vertex $-1 $365 $584 #
ellipse-curve $-1 60.314107602945356 12.259730162561304 5.256112321137631 0.64278761758704617 0 0.76604443648966558 1.5320888729793312 0 -1.2855752351740923 1 I I #
point $-1 63.746526750008137 12.259730162561304 6.2352624697834456 #
edge $-1 $585 1 $585 0 $368 $-1 forward 7 unknown #
vertex $-1 $369 $586 #
ellipse-curve $-1 60.314107602945356 20.405660859740699 5.256112321137631 0.64278761758704617 0 0.76604443648966558 1.5320888729793312 0 -1.2855752351740923 1 I I #
point $-1 63.746526750008137 20.405660859740699 6.2352624697834456 #
plane-surface $-1 68.102664265877252 0 0 -1 0 0 0 0 1 forward_v I I I I #
coedge $-1 $377 $375 $379 $513 reversed $261 $-1 #
edge $-1 $390 -12.461646399613647 $515 12.461646399613647 $389 $587 forward 7 unknown #
vertex $-1 $513 $588 #
straight-curve $-1 -68.102664265877252 -39.842978736023845 0 0 0 -1 I I #
edge $-1 $511 -39.842978736023845 $515 39.842978736023845 $509 $589 forward 7 unknown #
straight-curve $-1 0 -39.842978736023845 -12.461646399613647 -1 0 0 I I #
vertex $-1 $382 $590 #
straight-curve $-1 0 39.842978736023845 -12.461646399613647 1 0 0 I I #
point $-1 68.102664265877252 39.842978736023845 -12.461646399613647 #
point $-1 68.102664265877252 -39.842978736023845 -12.461646399613647 #
straight-curve $-1 -68.102664265877252 0 12.461646399613647 0 -1 0 I I #
point $-1 -68.102664265877252 39.842978736023845 12.461646399613647 #
point $-1 -68.102664265877252 -39.842978736023845 12.461646399613647 #
straight-curve $-1 68.102664265877252 -39.842978736023845 0 0 0 -1 I I #
straight-curve $-1 68.102664265877252 39.842978736023845 0 0 0 -1 I I #
plane-surface $-1 0 0 12.461646399613647 0 0 1 1 0 0 forward_v I I I I #
coedge $-1 $407 $537 $526 $591 forward $400 $-1 #
coedge $-1 $403 $402 $525 $591 reversed $173 $-1 #
edge $-1 $533 -1.8618879445353116 $531 1.8618879445353116 $402 $592 forward 7 unknown #
coedge $-1 $415 $414 $403 $529 forward $416 $-1 #
edge $-1 $530 -1.8618879445353116 $593 1.8618879445353116 $403 $594 forward 7 unknown #
vertex $-1 $419 $595 #
vertex $-1 $409 $596 #
straight-curve $-1 -46.903147355720577 -53.217036559028138 0 0 0 -1 I I #
vertex $-1 $591 $597 #
straight-curve $-1 -43.179371466649954 -46.530007647525991 -12.461646399613647 0 -1 0 I I #
straight-curve $-1 -46.903147355720577 -46.530007647525991 -12.461646399613647 0 1 0 I I #
point $-1 -43.179371466649954 -39.842978736023845 -12.461646399613647 #
coedge $-1 $525 $412 $415 $539 reversed $400 $-1 #
straight-curve $-1 -43.179371466649954 -39.842978736023845 0 0 0 -1 I I #
edge $-1 $593 -6.6870289115021464 $417 6.6870289115021464 $537 $598 forward 7 unknown #
point $-1 -43.179371466649954 -39.842978736023845 12.461646399613647 #
straight-curve $-1 -46.903147355720577 -46.530007647525991 12.461646399613647 0 -1 0 I I #
edge $-1 $543 28.630287558879978 $546 35.073117540953255 $423 $599 forward 7 unknown #
vertex $-1 $437 $600 #
straight-curve $-1 -90.511000150315823 -13.748296271642804 12.461646399613649 -1 0 0 I I #
edge $-1 $546 3.6939919754772141 $434 16.414616616853966 $433 $601 forward 7 unknown #
vertex $-1 $545 $602 #
straight-curve $-1 -68.102664265877237 -13.748296271642804 6.0188164175403926 0.55919289150049634 0 0.82903758062907751 I I #
point $-1 -63.75692070575078 -13.748296271642804 12.461646399613647 #
point $-1 -68.102664265877252 -26.468920913019556 6.0188164175403713 #
straight-curve $-1 -68.102664265877252 0 12.461646399613647 0 -1 0 I I #
vertex $-1 $440 $603 #
point $-1 -64.161439920988414 -23.924795984744208 9.2536805167276945 #
vertex $-1 $444 $604 #
point $-1 -64.161439920988414 -20.10860859233118 9.2536805167276945 #
vertex $-1 $448 $605 #
point $-1 -64.161439920988414 -16.292421199918152 9.2536805167276945 #
coedge $-1 $463 $462 $455 $558 forward $452 $-1 #
edge $-1 $559 28.630287558879978 $562 35.073117540953255 $557 $606 forward 7 unknown #
vertex $-1 $467 $607 #
straight-curve $-1 -90.511000150315823 19.407653552878894 12.461646399613649 -1 0 0 I I #
edge $-1 $562 -12.883982936783635 $464 -0.16335829540688263 $463 $608 forward 7 unknown #
vertex $-1 $561 $609 #
straight-curve $-1 -68.102664265877237 19.407653552878894 6.0188164175403926 0.55919289150049634 0 0.82903758062907751 I I #
point $-1 -63.75692070575078 19.407653552878894 12.461646399613647 #
point $-1 -68.102664265877252 6.687028911502142 6.0188164175403713 #
straight-curve $-1 -68.102664265877252 0 12.461646399613647 0 -1 0 I I #
vertex $-1 $470 $610 #
point $-1 -64.161439920988414 9.231153839777491 9.2536805167276945 #
vertex $-1 $474 $611 #
point $-1 -64.161439920988414 13.047341232190519 9.2536805167276945 #
vertex $-1 $478 $612 #
point $-1 -64.161439920988414 16.863528624603546 9.2536805167276945 #
coedge $-1 $493 $492 $485 $574 forward $482 $-1 #
edge $-1 $575 84.773584491329615 $578 94.655201880641798 $573 $613 forward 7 unknown #
vertex $-1 $497 $614 #
straight-curve $-1 25.657214376733506 6.8291096977750421 12.461646399613642 1 0 0 I I #
edge $-1 $578 -1.3372380578004623 $494 17.669933568951471 $493 $615 forward 7 unknown #
vertex $-1 $577 $616 #
straight-curve $-1 -36.236669876120388 6.8291096977750421 90.131127639888859 -0.76604443648966558 0 0.64278761758704617 I I #
point $-1 56.326211488180377 6.8291096977750421 12.461646399613642 #
point $-1 68.102664265877266 25.836281324526976 2.5800290103014589 #
straight-curve $-1 68.102664265877252 0 12.461646399613647 0 1 0 I I #
vertex $-1 $500 $617 #
point $-1 61.846196475924685 12.259730162561304 3.9705370859635387 #
vertex $-1 $504 $618 #
point $-1 61.846196475924685 20.405660859740699 3.9705370859635387 #
straight-curve $-1 -68.102664265877252 39.842978736023845 0 0 0 -1 I I #
point $-1 -68.102664265877252 -39.842978736023845 -12.461646399613647 #
straight-curve $-1 -68.102664265877252 0 -12.461646399613647 0 1 0 I I #
point $-1 -68.102664265877252 39.842978736023845 -12.461646399613647 #
edge $-1 $593 -12.461646399613647 $533 12.461646399613647 $525 $619 forward 7 unknown #
straight-curve $-1 -45.041259411185266 -53.217036559028138 -12.461646399613647 -1 0 0 I I #
vertex $-1 $539 $620 #
straight-curve $-1 -45.041259411185266 -53.217036559028138 12.461646399613647 1 0 0 I I #
point $-1 -46.903147355720577 -53.217036559028138 12.461646399613647 #
point $-1 -46.903147355720577 -53.217036559028138 -12.461646399613647 #
point $-1 -43.179371466649954 -53.217036559028138 -12.461646399613647 #
straight-curve $-1 -43.179371466649954 -46.530007647525991 12.461646399613647 0 1 0 I I #
straight-curve $-1 -68.102664265877252 -13.748296271642804 41.091933958493627 0 0 -1 I I #
point $-1 -68.102664265877252 -13.748296271642804 12.461646399613647 #
straight-curve $-1 -68.102664265877252 -10.05430429616559 6.0188164175403802 0 -1 0 I I #
point $-1 -68.102664265877252 -13.748296271642804 6.0188164175403713 #
point $-1 -63.891595231859831 -23.924795984744208 7.8654500445981208 #
point $-1 -63.891595231859831 -20.10860859233118 7.8654500445981208 #
point $-1 -63.891595231859831 -16.292421199918152 7.8654500445981208 #
straight-curve $-1 -68.102664265877252 19.407653552878894 41.091933958493627 0 0 -1 I I #
point $-1 -68.102664265877252 19.407653552878894 12.461646399613647 #
straight-curve $-1 -68.102664265877252 6.5236706160952593 6.0188164175403802 0 -1 0 I I #
point $-1 -68.102664265877252 19.407653552878894 6.0188164175403713 #
point $-1 -63.891595231859831 9.231153839777491 7.8654500445981208 #
point $-1 -63.891595231859831 13.047341232190519 7.8654500445981208 #
point $-1 -63.891595231859831 16.863528624603546 7.8654500445981208 #
straight-curve $-1 68.102664265877252 6.8291096977750421 97.235230890943257 0 0 -1 I I #
point $-1 68.102664265877252 6.8291096977750421 12.461646399613647 #
straight-curve $-1 68.102664265877252 8.1663477555755044 2.580029010301466 0 1 0 I I #
point $-1 68.102664265877266 6.8291096977750421 2.5800290103014589 #
point $-1 59.028532367771263 12.259730162561304 3.7240234481582997 #
point $-1 59.028532367771263 20.405660859740699 3.7240234481582997 #
straight-curve $-1 -43.179371466649954 -53.217036559028138 0 0 0 -1 I I #
point $-1 -43.179371466649954 -53.217036559028138 12.461646399613647 #
End-of-ACIS-data 