500 0 6 0           
7 Unknown 11 ACIS 5.0 NT 24 Thu Mar 25 21:49:18 1999 
-1 9.9999999999999995e-007 1e-010 
body $-1 $6 $-1 $7 #
body $-1 $8 $-1 $9 #
body $-1 $10 $-1 $11 #
body $-1 $12 $-1 $13 #
body $-1 $14 $-1 $15 #
body $-1 $16 $-1 $17 #
lump $-1 $-1 $18 $0 #
transform $-1 1 0 0 0 1 0 0 0 1 45.89983825189978 24.375647919332973 7.6692496920551587 1 rotate no_reflect no_shear #
lump $-1 $-1 $19 $1 #
transform $-1 1 0 0 0 1 0 0 0 1 45.89983825189978 24.375647919332973 7.6692496920551587 1 rotate no_reflect no_shear #
lump $-1 $-1 $20 $2 #
transform $-1 1 0 0 0 1 0 0 0 1 45.89983825189978 24.375647919332973 7.6692496920551587 1 rotate no_reflect no_shear #
lump $-1 $-1 $21 $3 #
transform $-1 1 0 0 0 1 0 0 0 1 45.89983825189978 24.375647919332973 7.6692496920551587 1 rotate no_reflect no_shear #
lump $-1 $-1 $22 $4 #
transform $-1 1 0 0 0 1 0 0 0 1 45.89983825189978 24.375647919332973 7.6692496920551587 1 rotate no_reflect no_shear #
lump $-1 $-1 $23 $5 #
transform $-1 1 0 0 0 1 0 0 0 1 45.89983825189978 24.375647919332973 7.6692496920551587 1 rotate no_reflect no_shear #
shell $-1 $-1 $-1 $24 $-1 $6 #
shell $-1 $-1 $-1 $25 $-1 $8 #
shell $-1 $-1 $-1 $26 $-1 $10 #
shell $-1 $-1 $-1 $27 $-1 $12 #
shell $-1 $-1 $-1 $28 $-1 $14 #
shell $-1 $-1 $-1 $29 $-1 $16 #
face $-1 $30 $31 $18 $-1 $32 forward single #
face $-1 $33 $34 $19 $-1 $35 forward single #
face $-1 $36 $37 $20 $-1 $38 reversed single #
face $-1 $39 $40 $21 $-1 $41 forward single #
face $-1 $42 $43 $22 $-1 $44 reversed single #
face $-1 $45 $46 $23 $-1 $47 forward single #
face $-1 $48 $49 $18 $-1 $50 reversed single #
loop $-1 $-1 $51 $24 #
plane-surface $-1 0 0 7.6692496920551587 0 0 1 1 0 0 forward_v I I I I #
face $-1 $52 $53 $19 $-1 $54 reversed single #
loop $-1 $-1 $55 $25 #
plane-surface $-1 -45.89983825189978 0 0 1 0 0 0 0 -1 forward_v I I I I #
face $-1 $56 $57 $20 $-1 $58 reversed single #
loop $-1 $-1 $59 $26 #
plane-surface $-1 27.831782452051087 -7.3324145622762451 132.3322724650258 0 -1 0 -0.6018150307709319 0 -0.79863550430605224 forward_v I I I I #
face $-1 $60 $61 $21 $-1 $62 forward single #
loop $-1 $63 $64 $27 #
cone-surface $-1 42.176077354024443 -11.82285923532131 4.2108901040934503 -0.6018150307709319 0 -0.79863550430605224 0.79863550430605224 0 -0.6018150307709319 1 I I 0 1 1 forward I I I I #
face $-1 $65 $66 $22 $-1 $67 reversed single #
loop $-1 $-1 $68 $28 #
plane-surface $-1 27.831782452051087 17.043233357056728 132.3322724650258 0 -1 0 -0.6018150307709319 0 -0.79863550430605224 forward_v I I I I #
face $-1 $69 $70 $23 $-1 $71 forward single #
loop $-1 $72 $73 $29 #
cone-surface $-1 42.176077354024443 12.552788684011663 4.2108901040934503 -0.6018150307709319 0 -0.79863550430605224 0.79863550430605224 0 -0.6018150307709319 1 I I 0 1 1 forward I I I I #
face $-1 $74 $75 $18 $-1 $76 reversed single #
loop $-1 $-1 $77 $30 #
plane-surface $-1 0 0 -7.6692496920551587 0 0 1 1 0 0 forward_v I I I I #
coedge $-1 $78 $79 $80 $81 forward $31 $-1 #
face $-1 $82 $83 $19 $-1 $84 reversed single #
loop $-1 $-1 $85 $33 #
plane-surface $-1 0 0 -7.6692496920551587 0 0 1 1 0 0 forward_v I I I I #
coedge $-1 $86 $87 $88 $89 forward $34 $-1 #
face $-1 $90 $91 $20 $-1 $92 reversed single #
loop $-1 $-1 $93 $36 #
plane-surface $-1 -27.414642687844641 -11.822859235321312 59.017791525281382 0.6018150307709319 0 0.79863550430605224 0.79863550430605224 0 -0.6018150307709319 forward_v I I I I #
coedge $-1 $94 $95 $96 $97 reversed $37 $-1 #
face $-1 $-1 $98 $21 $-1 $99 forward single #
loop $-1 $100 $101 $39 #
cone-surface $-1 40.737741818126622 -11.82285923532131 2.3021544173134618 -0.6018150307709319 0 -0.79863550430605224 0.39931775215302612 0 -0.30090751538546595 1 I I -0.70710678118654746 0.70710678118654746 0.5 forward I I I I #
loop $-1 $-1 $102 $27 #
coedge $-1 $64 $64 $103 $104 reversed $40 $-1 #
face $-1 $105 $106 $22 $-1 $107 reversed single #
loop $-1 $-1 $108 $42 #
plane-surface $-1 -27.414642687844641 12.552788684011663 59.017791525281382 0.6018150307709319 0 0.79863550430605224 0.79863550430605224 0 -0.6018150307709319 forward_v I I I I #
coedge $-1 $109 $110 $111 $112 reversed $43 $-1 #
face $-1 $-1 $113 $23 $-1 $114 forward single #
loop $-1 $115 $116 $45 #
cone-surface $-1 40.737741818126622 12.552788684011663 2.3021544173134618 -0.6018150307709319 0 -0.79863550430605224 0.39931775215302612 0 -0.30090751538546595 1 I I -0.70710678118654746 0.70710678118654746 0.5 forward I I I I #
loop $-1 $-1 $117 $29 #
coedge $-1 $73 $73 $118 $119 reversed $46 $-1 #
face $-1 $120 $121 $18 $-1 $122 reversed single #
loop $-1 $-1 $123 $48 #
plane-surface $-1 0 -24.375647919332973 0 0 1 0 0 0 1 forward_v I I I I #
coedge $-1 $124 $125 $126 $127 forward $49 $-1 #
coedge $-1 $128 $51 $129 $130 forward $31 $-1 #
coedge $-1 $51 $128 $131 $132 forward $31 $-1 #
coedge $-1 $133 $134 $51 $81 reversed $135 $-1 #
edge $-1 $136 -24.375647919332973 $137 24.375647919332973 $80 $138 forward 7 unknown #
face $-1 $139 $140 $19 $-1 $141 reversed single #
loop $-1 $-1 $142 $52 #
plane-surface $-1 -50.611887333837672 -13.408763632676433 0 0 1 0 0 0 1 forward_v I I I I #
coedge $-1 $143 $144 $87 $145 forward $53 $-1 #
coedge $-1 $146 $55 $147 $148 reversed $34 $-1 #
coedge $-1 $55 $146 $85 $145 reversed $34 $-1 #
coedge $-1 $149 $150 $55 $89 reversed $151 $-1 #
edge $-1 $152 -7.6692496920551587 $153 7.6692496920551587 $88 $154 forward 7 unknown #
face $-1 $155 $156 $20 $-1 $157 forward single #
loop $-1 $-1 $158 $56 #
plane-surface $-1 27.831782452051087 -16.313303908366379 132.3322724650258 0 1 0 0.6018150307709319 0 0.79863550430605224 forward_v I I I I #
coedge $-1 $159 $160 $161 $162 reversed $57 $-1 #
coedge $-1 $95 $59 $163 $164 reversed $37 $-1 #
coedge $-1 $59 $94 $159 $165 reversed $37 $-1 #
coedge $-1 $161 $166 $59 $97 forward $156 $-1 #
edge $-1 $167 -31.983947025874237 $168 -26.811281271148275 $96 $169 forward 7 unknown #
loop $-1 $-1 $103 $60 #
plane-surface $-1 -27.414642687844641 -11.822859235321312 59.017791525281382 0.6018150307709319 0 0.79863550430605224 0.79863550430605224 0 -0.6018150307709319 forward_v I I I I #
loop $-1 $-1 $170 $39 #
coedge $-1 $101 $101 $102 $171 reversed $61 $-1 #
coedge $-1 $102 $102 $101 $171 forward $63 $-1 #
coedge $-1 $103 $103 $64 $104 forward $98 $-1 #
edge $-1 $172 0 $172 6.2831853071796004 $103 $173 forward 7 unknown #
face $-1 $174 $175 $22 $-1 $176 reversed single #
loop $-1 $-1 $177 $65 #
plane-surface $-1 27.831782452051087 8.062344010966596 132.3322724650258 0 1 0 0.6018150307709319 0 0.79863550430605224 forward_v I I I I #
coedge $-1 $178 $179 $180 $181 reversed $66 $-1 #
coedge $-1 $110 $68 $182 $183 reversed $43 $-1 #
coedge $-1 $68 $109 $178 $184 reversed $43 $-1 #
coedge $-1 $180 $185 $68 $112 forward $186 $-1 #
edge $-1 $187 -31.983947025874237 $188 -26.811281271148275 $111 $189 forward 7 unknown #
loop $-1 $-1 $118 $69 #
plane-surface $-1 -27.414642687844641 12.552788684011663 59.017791525281382 0.6018150307709319 0 0.79863550430605224 0.79863550430605224 0 -0.6018150307709319 forward_v I I I I #
loop $-1 $-1 $190 $45 #
coedge $-1 $116 $116 $117 $191 reversed $70 $-1 #
coedge $-1 $117 $117 $116 $191 forward $72 $-1 #
coedge $-1 $118 $118 $73 $119 forward $113 $-1 #
edge $-1 $192 0 $192 6.2831853071796004 $118 $193 forward 7 unknown #
face $-1 $194 $195 $18 $-1 $196 reversed single #
loop $-1 $-1 $197 $74 #
plane-surface $-1 -45.89983825189978 0 0 1 0 0 0 0 -1 forward_v I I I I #
coedge $-1 $198 $131 $199 $200 forward $75 $-1 #
coedge $-1 $201 $77 $198 $202 forward $49 $-1 #
coedge $-1 $77 $201 $203 $204 forward $49 $-1 #
coedge $-1 $134 $133 $77 $127 reversed $135 $-1 #
edge $-1 $205 -24.375647919332973 $206 24.375647919332973 $126 $207 forward 7 unknown #
coedge $-1 $79 $78 $208 $209 forward $31 $-1 #
coedge $-1 $210 $211 $78 $130 reversed $195 $-1 #
edge $-1 $137 -45.89983825189978 $212 45.89983825189978 $129 $213 forward 7 unknown #
coedge $-1 $123 $214 $79 $132 reversed $75 $-1 #
edge $-1 $215 -45.89983825189978 $136 45.89983825189978 $131 $216 forward 7 unknown #
coedge $-1 $126 $80 $214 $217 forward $135 $-1 #
coedge $-1 $80 $126 $210 $218 reversed $135 $-1 #
loop $-1 $-1 $133 $194 #
vertex $-1 $81 $219 #
vertex $-1 $81 $220 #
straight-curve $-1 45.89983825189978 0 7.6692496920551587 0 1 0 I I #
face $-1 $221 $151 $19 $-1 $222 reversed single #
loop $-1 $-1 $223 $82 #
plane-surface $-1 -55.323936415775563 -11.222956083949544 0 1 0 0 0 0 -1 forward_v I I I I #
coedge $-1 $224 $225 $226 $227 forward $83 $-1 #
coedge $-1 $228 $85 $224 $229 forward $53 $-1 #
coedge $-1 $85 $228 $149 $230 forward $53 $-1 #
edge $-1 $152 9.0371485352226557 $231 13.408763632676433 $85 $232 forward 7 unknown #
coedge $-1 $87 $86 $233 $234 forward $34 $-1 #
coedge $-1 $235 $236 $86 $148 forward $237 $-1 #
edge $-1 $238 -13.408763632676433 $153 -9.0371485352226557 $147 $239 forward 7 unknown #
coedge $-1 $240 $88 $144 $230 reversed $151 $-1 #
coedge $-1 $88 $240 $235 $241 reversed $151 $-1 #
loop $-1 $-1 $88 $139 #
vertex $-1 $145 $242 #
vertex $-1 $241 $243 #
straight-curve $-1 -45.89983825189978 -9.0371485352226557 0 0 0 1 I I #
face $-1 $-1 $244 $20 $-1 $245 reversed single #
loop $-1 $-1 $96 $90 #
plane-surface $-1 0 0 7.6692496920551587 0 0 1 1 0 0 forward_v I I I I #
coedge $-1 $246 $247 $248 $249 reversed $91 $-1 #
coedge $-1 $250 $93 $95 $165 forward $57 $-1 #
coedge $-1 $93 $250 $246 $251 forward $57 $-1 #
coedge $-1 $248 $96 $93 $162 forward $156 $-1 #
edge $-1 $168 1.4209849446155891 $252 10.401874290705724 $161 $253 forward 7 unknown #
coedge $-1 $254 $255 $94 $164 forward $244 $-1 #
edge $-1 $256 -62.394769847127243 $167 -58.496886540457737 $163 $257 forward 7 unknown #
edge $-1 $168 85.322797218022544 $256 91.79967650379956 $95 $258 forward 7 unknown #
coedge $-1 $96 $248 $254 $259 forward $156 $-1 #
vertex $-1 $97 $260 #
vertex $-1 $97 $261 #
straight-curve $-1 13.915891226025543 -7.3324145622762451 7.6692496920551605 -1 0 0 I I #
coedge $-1 $170 $170 $-1 $262 reversed $100 $-1 #
edge $-1 $263 0 $263 6.2831853071796004 $101 $264 forward 7 unknown #
vertex $-1 $104 $265 #
ellipse-curve $-1 43.313505374536803 -11.82285923532131 5.7203080387204146 0.6018150307709319 0 0.79863550430605224 0.79863550430605224 0 -0.6018150307709319 1 I I #
face $-1 $-1 $186 $22 $-1 $266 forward single #
loop $-1 $-1 $267 $105 #
plane-surface $-1 45.89983825189978 0 0 -1 0 0 0 0 1 forward_v I I I I #
coedge $-1 $268 $269 $270 $271 reversed $106 $-1 #
coedge $-1 $272 $108 $110 $184 forward $66 $-1 #
coedge $-1 $108 $272 $268 $273 forward $66 $-1 #
coedge $-1 $270 $111 $108 $181 forward $186 $-1 #
edge $-1 $188 -10.766839015050897 $274 -1.7859496689607646 $180 $275 forward 7 unknown #
coedge $-1 $276 $277 $109 $183 forward $175 $-1 #
edge $-1 $278 -62.394769847127243 $187 -58.496886540457737 $182 $279 forward 7 unknown #
edge $-1 $188 85.322797218022544 $278 91.79967650379956 $110 $280 forward 7 unknown #
coedge $-1 $111 $270 $276 $281 forward $186 $-1 #
loop $-1 $-1 $270 $174 #
vertex $-1 $183 $282 #
vertex $-1 $112 $283 #
straight-curve $-1 13.915891226025543 17.043233357056728 7.6692496920551605 -1 0 0 I I #
coedge $-1 $190 $190 $-1 $284 reversed $115 $-1 #
edge $-1 $285 0 $285 6.2831853071796004 $116 $286 forward 7 unknown #
vertex $-1 $119 $287 #
ellipse-curve $-1 43.313505374536803 12.552788684011663 5.7203080387204146 0.6018150307709319 0 0.79863550430605224 0.79863550430605224 0 -0.6018150307709319 1 I I #
face $-1 $-1 $135 $18 $-1 $288 reversed single #
loop $-1 $-1 $210 $120 #
plane-surface $-1 0 24.375647919332973 0 0 -1 0 0 0 -1 forward_v I I I I #
coedge $-1 $289 $208 $211 $290 forward $121 $-1 #
coedge $-1 $214 $123 $124 $202 reversed $75 $-1 #
coedge $-1 $208 $289 $123 $200 reversed $121 $-1 #
edge $-1 $215 -7.6692496920551587 $291 7.6692496920551587 $199 $292 forward 7 unknown #
coedge $-1 $125 $124 $289 $293 forward $49 $-1 #
edge $-1 $206 -45.89983825189978 $291 45.89983825189978 $198 $294 forward 7 unknown #
coedge $-1 $211 $210 $125 $204 reversed $195 $-1 #
edge $-1 $295 -45.89983825189978 $205 45.89983825189978 $203 $296 forward 7 unknown #
vertex $-1 $127 $297 #
vertex $-1 $217 $298 #
straight-curve $-1 45.89983825189978 0 -7.6692496920551587 0 -1 0 I I #
coedge $-1 $197 $199 $128 $209 reversed $121 $-1 #
edge $-1 $212 -24.375647919332973 $215 24.375647919332973 $208 $299 forward 7 unknown #
coedge $-1 $203 $129 $134 $218 forward $195 $-1 #
coedge $-1 $129 $203 $197 $290 reversed $195 $-1 #
vertex $-1 $130 $300 #
straight-curve $-1 0 24.375647919332973 7.6692496920551587 -1 0 0 I I #
coedge $-1 $131 $198 $133 $217 reversed $75 $-1 #
vertex $-1 $209 $301 #
straight-curve $-1 0 -24.375647919332973 7.6692496920551587 1 0 0 I I #
edge $-1 $136 -7.6692496920551587 $206 7.6692496920551587 $133 $302 forward 7 unknown #
edge $-1 $137 -7.6692496920551587 $205 7.6692496920551587 $134 $303 forward 7 unknown #
point $-1 45.89983825189978 -24.375647919332973 7.6692496920551587 #
point $-1 45.89983825189978 24.375647919332973 7.6692496920551587 #
face $-1 $-1 $237 $19 $-1 $304 forward single #
plane-surface $-1 -50.611887333837672 -9.0371485352226557 0 0 -1 0 0 0 -1 forward_v I I I I #
coedge $-1 $305 $306 $240 $307 forward $140 $-1 #
coedge $-1 $233 $142 $143 $229 reversed $83 $-1 #
coedge $-1 $142 $233 $236 $308 reversed $83 $-1 #
coedge $-1 $306 $305 $142 $227 reversed $140 $-1 #
edge $-1 $309 -7.6692496920551587 $310 7.6692496920551587 $226 $311 forward 7 unknown #
coedge $-1 $144 $143 $305 $312 forward $53 $-1 #
edge $-1 $231 -4.7120490819378915 $310 4.7120490819378915 $224 $313 forward 7 unknown #
edge $-1 $314 -4.7120490819378915 $152 4.7120490819378915 $149 $315 forward 7 unknown #
vertex $-1 $229 $316 #
straight-curve $-1 -45.89983825189978 0 -7.6692496920551587 0 -1 0 I I #
coedge $-1 $225 $224 $146 $234 reversed $83 $-1 #
edge $-1 $238 -7.6692496920551587 $231 7.6692496920551587 $233 $317 forward 7 unknown #
coedge $-1 $318 $147 $150 $241 forward $237 $-1 #
coedge $-1 $147 $318 $225 $308 forward $237 $-1 #
loop $-1 $-1 $147 $221 #
vertex $-1 $148 $319 #
straight-curve $-1 -45.89983825189978 0 7.6692496920551587 0 1 0 I I #
coedge $-1 $150 $149 $223 $307 reversed $151 $-1 #
edge $-1 $153 -4.7120490819378915 $320 4.7120490819378915 $150 $321 forward 7 unknown #
point $-1 -45.89983825189978 -9.0371485352226557 -7.6692496920551587 #
point $-1 -45.89983825189978 -9.0371485352226557 7.6692496920551587 #
loop $-1 $-1 $163 $155 #
plane-surface $-1 45.89983825189978 0 0 -1 0 0 0 0 1 forward_v I I I I #
coedge $-1 $247 $158 $160 $251 reversed $91 $-1 #
coedge $-1 $158 $246 $322 $323 reversed $91 $-1 #
coedge $-1 $166 $161 $158 $249 forward $156 $-1 #
edge $-1 $252 26.811281271148275 $324 31.983947025874237 $248 $325 forward 7 unknown #
coedge $-1 $160 $159 $255 $326 reversed $57 $-1 #
edge $-1 $327 -91.79967650379956 $252 -85.322797218022544 $246 $328 forward 7 unknown #
vertex $-1 $162 $329 #
straight-curve $-1 40.727172497173839 -5.911429617660656 7.6692496920551605 0 -1 0 I I #
coedge $-1 $322 $163 $166 $259 reversed $244 $-1 #
coedge $-1 $163 $322 $250 $326 forward $244 $-1 #
vertex $-1 $164 $330 #
straight-curve $-1 45.89983825189978 -7.3324145622762451 66.166136232512898 0 0 1 I I #
straight-curve $-1 -27.414642687844641 -7.3324145622762451 59.017791525281382 0.79863550430605224 0 -0.6018150307709319 I I #
edge $-1 $324 -16.313303908366379 $167 -7.3324145622762451 $254 $331 forward 7 unknown #
point $-1 45.89983825189978 -7.3324145622762451 7.6692496920551587 #
point $-1 40.727172497173818 -7.3324145622762451 7.6692496920551605 #
edge $-1 $332 1 $332 0 $170 $-1 forward 7 unknown #
vertex $-1 $171 $333 #
ellipse-curve $-1 41.03864933351209 -11.82285923532131 2.7014721694664878 0.6018150307709319 0 0.79863550430605224 0.79863550430605224 0 -0.6018150307709319 1 I I #
point $-1 44.112140878842858 -11.82285923532131 5.1184930079494801 #
plane-surface $-1 0 0 7.6692496920551587 0 0 1 1 0 0 forward_v I I I I #
coedge $-1 $277 $276 $269 $334 forward $175 $-1 #
coedge $-1 $269 $177 $179 $273 reversed $106 $-1 #
coedge $-1 $177 $268 $267 $334 reversed $106 $-1 #
coedge $-1 $185 $180 $177 $271 forward $186 $-1 #
edge $-1 $274 26.811281271148275 $335 31.983947025874237 $270 $336 forward 7 unknown #
coedge $-1 $179 $178 $277 $337 reversed $66 $-1 #
edge $-1 $338 -91.79967650379956 $274 -85.322797218022544 $268 $339 forward 7 unknown #
vertex $-1 $181 $340 #
straight-curve $-1 40.727172497173839 6.2763943420058315 7.6692496920551605 0 -1 0 I I #
coedge $-1 $267 $182 $185 $281 reversed $175 $-1 #
coedge $-1 $182 $267 $272 $337 forward $175 $-1 #
vertex $-1 $183 $341 #
straight-curve $-1 45.89983825189978 17.043233357056728 66.166136232512898 0 0 1 I I #
straight-curve $-1 -27.414642687844641 17.043233357056728 59.017791525281382 0.79863550430605224 0 -0.6018150307709319 I I #
edge $-1 $335 8.062344010966596 $187 17.043233357056728 $276 $342 forward 7 unknown #
point $-1 45.89983825189978 17.043233357056728 7.6692496920551587 #
point $-1 40.727172497173818 17.043233357056728 7.6692496920551605 #
edge $-1 $343 1 $343 0 $190 $-1 forward 7 unknown #
vertex $-1 $191 $344 #
ellipse-curve $-1 41.03864933351209 12.552788684011663 2.7014721694664878 0.6018150307709319 0 0.79863550430605224 0.79863550430605224 0 -0.6018150307709319 1 I I #
point $-1 44.112140878842858 12.552788684011663 5.1184930079494801 #
plane-surface $-1 45.89983825189978 0 0 -1 0 0 0 0 1 forward_v I I I I #
coedge $-1 $199 $197 $201 $293 reversed $121 $-1 #
edge $-1 $212 -7.6692496920551587 $295 7.6692496920551587 $211 $345 forward 7 unknown #
vertex $-1 $293 $346 #
straight-curve $-1 -45.89983825189978 -24.375647919332973 0 0 0 -1 I I #
edge $-1 $291 -24.375647919332973 $295 24.375647919332973 $289 $347 forward 7 unknown #
straight-curve $-1 0 -24.375647919332973 -7.6692496920551587 -1 0 0 I I #
vertex $-1 $204 $348 #
straight-curve $-1 0 24.375647919332973 -7.6692496920551587 1 0 0 I I #
point $-1 45.89983825189978 24.375647919332973 -7.6692496920551587 #
point $-1 45.89983825189978 -24.375647919332973 -7.6692496920551587 #
straight-curve $-1 -45.89983825189978 0 7.6692496920551587 0 -1 0 I I #
point $-1 -45.89983825189978 24.375647919332973 7.6692496920551587 #
point $-1 -45.89983825189978 -24.375647919332973 7.6692496920551587 #
straight-curve $-1 45.89983825189978 -24.375647919332973 0 0 0 -1 I I #
straight-curve $-1 45.89983825189978 24.375647919332973 0 0 0 -1 I I #
plane-surface $-1 0 0 7.6692496920551587 0 0 1 1 0 0 forward_v I I I I #
coedge $-1 $226 $223 $228 $312 reversed $140 $-1 #
coedge $-1 $223 $226 $318 $349 reversed $140 $-1 #
edge $-1 $320 -7.6692496920551587 $314 7.6692496920551587 $240 $350 forward 7 unknown #
edge $-1 $309 -4.7120490819378915 $238 4.7120490819378915 $225 $351 forward 7 unknown #
vertex $-1 $349 $352 #
vertex $-1 $312 $353 #
straight-curve $-1 -55.323936415775563 -13.408763632676433 0 0 0 -1 I I #
edge $-1 $310 -2.1858075487268884 $314 2.1858075487268884 $305 $354 forward 7 unknown #
straight-curve $-1 -50.611887333837672 -13.408763632676433 -7.6692496920551587 -1 0 0 I I #
vertex $-1 $230 $355 #
straight-curve $-1 -50.611887333837672 -9.0371485352226557 -7.6692496920551587 1 0 0 I I #
point $-1 -45.89983825189978 -13.408763632676433 -7.6692496920551587 #
straight-curve $-1 -45.89983825189978 -13.408763632676433 0 0 0 -1 I I #
coedge $-1 $236 $235 $306 $349 forward $237 $-1 #
point $-1 -45.89983825189978 -13.408763632676433 7.6692496920551587 #
vertex $-1 $241 $356 #
straight-curve $-1 -50.611887333837672 -9.0371485352226557 7.6692496920551587 -1 0 0 I I #
coedge $-1 $255 $254 $247 $323 forward $244 $-1 #
edge $-1 $324 58.496886540457737 $327 62.394769847127243 $322 $357 forward 7 unknown #
vertex $-1 $259 $358 #
straight-curve $-1 13.915891226025543 -16.313303908366379 7.6692496920551605 1 0 0 I I #
edge $-1 $327 -10.401874290705724 $256 -1.4209849446155891 $255 $359 forward 7 unknown #
vertex $-1 $326 $360 #
straight-curve $-1 -27.414642687844641 -16.313303908366379 59.017791525281382 -0.79863550430605224 0 0.6018150307709319 I I #
point $-1 40.727172497173818 -16.313303908366379 7.6692496920551605 #
point $-1 45.899838251899773 -7.3324145622762451 3.7713663853856545 #
straight-curve $-1 45.89983825189978 0 7.6692496920551587 0 1 0 I I #
vertex $-1 $262 $361 #
point $-1 41.837284837818139 -11.82285923532131 2.099657138695556 #
edge $-1 $335 58.496886540457737 $338 62.394769847127243 $267 $362 forward 7 unknown #
vertex $-1 $281 $363 #
straight-curve $-1 13.915891226025543 8.062344010966596 7.6692496920551605 1 0 0 I I #
edge $-1 $338 1.7859496689607646 $278 10.766839015050897 $277 $364 forward 7 unknown #
vertex $-1 $337 $365 #
straight-curve $-1 -27.414642687844641 8.062344010966596 59.017791525281382 -0.79863550430605224 0 0.6018150307709319 I I #
point $-1 40.727172497173818 8.062344010966596 7.6692496920551605 #
point $-1 45.899838251899773 17.043233357056728 3.7713663853856545 #
straight-curve $-1 45.89983825189978 0 7.6692496920551587 0 1 0 I I #
vertex $-1 $284 $366 #
point $-1 41.837284837818139 12.552788684011663 2.099657138695556 #
straight-curve $-1 -45.89983825189978 24.375647919332973 0 0 0 -1 I I #
point $-1 -45.89983825189978 -24.375647919332973 -7.6692496920551587 #
straight-curve $-1 -45.89983825189978 0 -7.6692496920551587 0 1 0 I I #
point $-1 -45.89983825189978 24.375647919332973 -7.6692496920551587 #
edge $-1 $320 -2.1858075487268884 $309 2.1858075487268884 $306 $367 forward 7 unknown #
straight-curve $-1 -55.323936415775563 -9.0371485352226557 0 0 0 -1 I I #
straight-curve $-1 -50.611887333837672 -13.408763632676433 7.6692496920551587 1 0 0 I I #
point $-1 -55.323936415775563 -13.408763632676433 7.6692496920551587 #
point $-1 -55.323936415775563 -13.408763632676433 -7.6692496920551587 #
straight-curve $-1 -55.323936415775563 -11.222956083949544 -7.6692496920551587 0 1 0 I I #
point $-1 -55.323936415775563 -9.0371485352226557 -7.6692496920551587 #
point $-1 -55.323936415775563 -9.0371485352226557 7.6692496920551587 #
straight-curve $-1 45.89983825189978 -16.313303908366379 66.166136232512898 0 0 -1 I I #
point $-1 45.89983825189978 -16.313303908366379 7.6692496920551587 #
straight-curve $-1 45.899838251899766 -5.911429617660656 3.771366385385658 0 1 0 I I #
point $-1 45.899838251899773 -16.313303908366379 3.7713663853856545 #
point $-1 40.436834302741154 -11.82285923532131 1.9028366651604358 #
straight-curve $-1 45.89983825189978 8.062344010966596 66.166136232512898 0 0 -1 I I #
point $-1 45.89983825189978 8.062344010966596 7.6692496920551587 #
straight-curve $-1 45.899838251899766 6.2763943420058315 3.771366385385658 0 1 0 I I #
point $-1 45.899838251899773 8.062344010966596 3.7713663853856545 #
point $-1 40.436834302741154 12.552788684011663 1.9028366651604358 #
straight-curve $-1 -55.323936415775563 -11.222956083949544 7.6692496920551587 0 -1 0 I I #
End-of-ACIS-data 