500 0 6 0           
7 Unknown 11 ACIS 5.0 NT 24 Fri Mar 26 20:40:50 1999 
-1 9.9999999999999995e-007 1e-010 
body $-1 $6 $-1 $7 #
body $-1 $8 $-1 $9 #
body $-1 $10 $-1 $11 #
body $-1 $12 $-1 $13 #
body $-1 $14 $-1 $15 #
body $-1 $16 $-1 $17 #
lump $-1 $-1 $18 $0 #
transform $-1 1 0 0 0 1 0 0 0 1 77.078768272957547 42.6322015722562 19.244665252719823 1 rotate no_reflect no_shear #
lump $-1 $-1 $19 $1 #
transform $-1 1 0 0 0 1 0 0 0 1 77.078768272957547 42.6322015722562 19.244665252719823 1 rotate no_reflect no_shear #
lump $-1 $-1 $20 $2 #
transform $-1 1 0 0 0 1 0 0 0 1 77.078768272957547 42.6322015722562 19.244665252719823 1 rotate no_reflect no_shear #
lump $-1 $-1 $21 $3 #
transform $-1 1 0 0 0 1 0 0 0 1 77.078768272957547 42.6322015722562 19.244665252719823 1 rotate no_reflect no_shear #
lump $-1 $-1 $22 $4 #
transform $-1 1 0 0 0 1 0 0 0 1 77.078768272957547 42.6322015722562 19.244665252719823 1 rotate no_reflect no_shear #
lump $-1 $-1 $23 $5 #
transform $-1 1 0 0 0 1 0 0 0 1 77.078768272957547 42.6322015722562 19.244665252719823 1 rotate no_reflect no_shear #
shell $-1 $-1 $-1 $24 $-1 $6 #
shell $-1 $-1 $-1 $25 $-1 $8 #
shell $-1 $-1 $-1 $26 $-1 $10 #
shell $-1 $-1 $-1 $27 $-1 $12 #
shell $-1 $-1 $-1 $28 $-1 $14 #
shell $-1 $-1 $-1 $29 $-1 $16 #
face $-1 $30 $31 $18 $-1 $32 forward single #
face $-1 $33 $34 $19 $-1 $35 reversed single #
face $-1 $36 $37 $20 $-1 $38 reversed single #
face $-1 $39 $40 $21 $-1 $41 forward single #
face $-1 $42 $43 $22 $-1 $44 forward single #
face $-1 $45 $46 $23 $-1 $47 forward single #
face $-1 $48 $49 $18 $-1 $50 reversed single #
loop $-1 $-1 $51 $24 #
plane-surface $-1 0 0 19.244665252719823 0 0 1 1 0 0 forward_v I I I I #
face $-1 $52 $53 $19 $-1 $54 reversed single #
loop $-1 $-1 $55 $25 #
plane-surface $-1 -70.393503868969347 0 13.258597648460324 0 0 1 1 0 0 forward_v I I I I #
face $-1 $56 $57 $20 $-1 $58 reversed single #
loop $-1 $-1 $59 $26 #
plane-surface $-1 -40.144343272556533 88.384947899224898 183.6590818211763 -1 0 0 0 0.69465837861970381 0.71933979245794832 forward_v I I I I #
face $-1 $60 $61 $21 $-1 $62 forward single #
loop $-1 $63 $64 $27 #
cone-surface $-1 -58.99546022649622 37.722772251075682 14.367171259838095 0 -0.69465837861970381 -0.71933979245794832 1.5 0 0 1 I I 0 1 1.5 forward I I I I #
face $-1 $65 $66 $22 $-1 $67 forward single #
loop $-1 $68 $69 $28 #
cone-surface $-1 -51.926291368768837 37.722772251075682 14.367171259838095 0 -0.69465837861970381 -0.71933979245794832 1.5 0 0 1 I I 0 1 1.5 forward I I I I #
face $-1 $70 $71 $23 $-1 $72 forward single #
loop $-1 $73 $74 $29 #
cone-surface $-1 -44.857122511041453 37.722772251075682 14.367171259838095 0 -0.69465837861970381 -0.71933979245794832 1.5 0 0 1 I I 0 1 1.5 forward I I I I #
face $-1 $75 $76 $18 $-1 $77 reversed single #
loop $-1 $-1 $78 $30 #
plane-surface $-1 0 0 -19.244665252719823 0 0 1 1 0 0 forward_v I I I I #
coedge $-1 $79 $80 $81 $82 forward $31 $-1 #
face $-1 $83 $84 $19 $-1 $85 reversed single #
loop $-1 $-1 $86 $33 #
plane-surface $-1 -63.708239464981148 0 16.251631450590072 -1 0 0 0 0 1 forward_v I I I I #
coedge $-1 $87 $88 $89 $90 forward $34 $-1 #
face $-1 $91 $92 $20 $-1 $93 forward single #
loop $-1 $-1 $94 $36 #
plane-surface $-1 -51.926291368768837 -18.70187648976821 72.767431476409158 0 0.69465837861970381 0.71933979245794832 1 0 0 forward_v I I I I #
coedge $-1 $95 $96 $97 $98 reversed $37 $-1 #
face $-1 $-1 $99 $21 $-1 $100 forward single #
loop $-1 $101 $102 $39 #
cone-surface $-1 -58.99546022649622 35.247165354822378 11.80360533194013 0 -0.69465837861970381 -0.71933979245794832 0.75 0 0 1 I I -0.70710678118654757 0.70710678118654757 0.75 forward I I I I #
loop $-1 $-1 $103 $27 #
coedge $-1 $64 $64 $104 $105 reversed $40 $-1 #
face $-1 $-1 $106 $22 $-1 $107 forward single #
loop $-1 $108 $109 $42 #
cone-surface $-1 -51.926291368768837 35.247165354822378 11.80360533194013 0 -0.69465837861970381 -0.71933979245794832 0.75 0 0 1 I I -0.70710678118654757 0.70710678118654757 0.75 forward I I I I #
loop $-1 $-1 $110 $28 #
coedge $-1 $69 $69 $111 $112 reversed $43 $-1 #
face $-1 $-1 $113 $23 $-1 $114 forward single #
loop $-1 $115 $116 $45 #
cone-surface $-1 -44.857122511041453 35.247165354822378 11.80360533194013 0 -0.69465837861970381 -0.71933979245794832 0.75 0 0 1 I I -0.70710678118654757 0.70710678118654757 0.75 forward I I I I #
loop $-1 $-1 $117 $29 #
coedge $-1 $74 $74 $118 $119 reversed $46 $-1 #
face $-1 $120 $121 $18 $-1 $122 reversed single #
loop $-1 $-1 $123 $48 #
plane-surface $-1 0 -42.6322015722562 0 0 1 0 0 0 1 forward_v I I I I #
coedge $-1 $124 $125 $126 $127 forward $49 $-1 #
coedge $-1 $128 $51 $129 $130 forward $31 $-1 #
coedge $-1 $51 $128 $131 $132 forward $31 $-1 #
coedge $-1 $133 $134 $51 $82 reversed $135 $-1 #
edge $-1 $136 -42.6322015722562 $137 42.6322015722562 $81 $138 forward 7 unknown #
face $-1 $139 $140 $19 $-1 $141 reversed single #
loop $-1 $-1 $142 $52 #
plane-surface $-1 0 42.6322015722562 0 0 -1 0 0 0 -1 forward_v I I I I #
coedge $-1 $89 $143 $144 $145 reversed $53 $-1 #
coedge $-1 $146 $55 $147 $148 reversed $34 $-1 #
coedge $-1 $55 $146 $149 $150 reversed $34 $-1 #
coedge $-1 $151 $86 $55 $90 reversed $53 $-1 #
edge $-1 $152 -42.6322015722562 $153 42.6322015722562 $89 $154 forward 7 unknown #
face $-1 $155 $156 $20 $-1 $157 forward single #
loop $-1 $-1 $158 $56 #
plane-surface $-1 -63.708239464981148 0 16.251631450590072 -1 0 0 0 0 1 forward_v I I I I #
coedge $-1 $159 $160 $161 $162 reversed $57 $-1 #
coedge $-1 $96 $59 $163 $164 reversed $37 $-1 #
coedge $-1 $59 $95 $159 $165 reversed $37 $-1 #
coedge $-1 $161 $166 $59 $98 forward $167 $-1 #
edge $-1 $168 72.584875657868324 $169 78.291741476522773 $97 $170 forward 7 unknown #
loop $-1 $-1 $104 $60 #
plane-surface $-1 -51.926291368768837 -18.70187648976821 72.767431476409158 0 0.69465837861970381 0.71933979245794832 1 0 0 forward_v I I I I #
loop $-1 $-1 $171 $39 #
coedge $-1 $102 $102 $103 $172 reversed $61 $-1 #
coedge $-1 $103 $103 $102 $172 forward $63 $-1 #
coedge $-1 $104 $104 $64 $105 forward $99 $-1 #
edge $-1 $173 1.5283668871367096e-015 $173 6.2831853071796022 $104 $174 forward 7 unknown #
loop $-1 $-1 $111 $65 #
plane-surface $-1 -51.926291368768837 -18.70187648976821 72.767431476409158 0 0.69465837861970381 0.71933979245794832 1 0 0 forward_v I I I I #
loop $-1 $-1 $175 $42 #
coedge $-1 $109 $109 $110 $176 reversed $66 $-1 #
coedge $-1 $110 $110 $109 $176 forward $68 $-1 #
coedge $-1 $111 $111 $69 $112 forward $106 $-1 #
edge $-1 $177 1.5283668871367096e-015 $177 6.2831853071796022 $111 $178 forward 7 unknown #
loop $-1 $-1 $118 $70 #
plane-surface $-1 -51.926291368768837 -18.70187648976821 72.767431476409158 0 0.69465837861970381 0.71933979245794832 1 0 0 forward_v I I I I #
loop $-1 $-1 $179 $45 #
coedge $-1 $116 $116 $117 $180 reversed $71 $-1 #
coedge $-1 $117 $117 $116 $180 forward $73 $-1 #
coedge $-1 $118 $118 $74 $119 forward $113 $-1 #
edge $-1 $181 1.5283668871367096e-015 $181 6.2831853071796022 $118 $182 forward 7 unknown #
face $-1 $183 $184 $18 $-1 $185 reversed single #
loop $-1 $-1 $186 $75 #
plane-surface $-1 -77.078768272957547 0 0 1 0 0 0 0 -1 forward_v I I I I #
coedge $-1 $187 $131 $188 $189 forward $76 $-1 #
coedge $-1 $190 $78 $187 $191 forward $49 $-1 #
coedge $-1 $78 $190 $192 $193 forward $49 $-1 #
coedge $-1 $134 $133 $78 $127 reversed $135 $-1 #
edge $-1 $194 -42.6322015722562 $195 42.6322015722562 $126 $196 forward 7 unknown #
coedge $-1 $80 $79 $197 $198 forward $31 $-1 #
coedge $-1 $199 $200 $79 $130 reversed $184 $-1 #
edge $-1 $137 -77.078768272957547 $201 77.078768272957547 $129 $202 forward 7 unknown #
coedge $-1 $123 $203 $80 $132 reversed $76 $-1 #
edge $-1 $204 -77.078768272957547 $136 77.078768272957547 $131 $205 forward 7 unknown #
coedge $-1 $126 $81 $203 $206 forward $135 $-1 #
coedge $-1 $81 $126 $199 $207 reversed $135 $-1 #
loop $-1 $-1 $133 $183 #
vertex $-1 $82 $208 #
vertex $-1 $82 $209 #
straight-curve $-1 77.078768272957547 0 19.244665252719823 0 1 0 I I #
face $-1 $210 $211 $19 $-1 $212 forward single #
loop $-1 $-1 $213 $83 #
plane-surface $-1 -77.078768272957547 0 0 1 0 0 0 0 -1 forward_v I I I I #
coedge $-1 $149 $214 $151 $215 forward $84 $-1 #
coedge $-1 $86 $151 $216 $217 reversed $53 $-1 #
coedge $-1 $218 $147 $86 $145 forward $219 $-1 #
edge $-1 $153 5.1327819231652878 $220 11.118849527424784 $144 $221 forward 7 unknown #
coedge $-1 $88 $87 $213 $222 reversed $34 $-1 #
coedge $-1 $144 $223 $87 $148 forward $219 $-1 #
edge $-1 $224 -41.882016338472873 $153 -28.511487530496474 $147 $225 forward 7 unknown #
coedge $-1 $226 $142 $88 $150 forward $84 $-1 #
edge $-1 $152 28.511487530496474 $227 41.882016338472873 $149 $228 forward 7 unknown #
coedge $-1 $143 $89 $142 $215 reversed $53 $-1 #
vertex $-1 $150 $229 #
vertex $-1 $148 $230 #
straight-curve $-1 -63.708239464981148 0 13.258597648460324 0 -1 0 I I #
face $-1 $-1 $167 $20 $-1 $231 reversed single #
loop $-1 $-1 $232 $91 #
plane-surface $-1 0 0 19.244665252719823 0 0 1 1 0 0 forward_v I I I I #
coedge $-1 $233 $234 $160 $235 forward $92 $-1 #
coedge $-1 $236 $94 $96 $165 forward $57 $-1 #
coedge $-1 $94 $236 $158 $235 reversed $57 $-1 #
coedge $-1 $237 $97 $94 $162 forward $167 $-1 #
edge $-1 $169 14.181197588172115 $238 37.745093780596733 $161 $239 forward 7 unknown #
coedge $-1 $240 $232 $95 $164 forward $156 $-1 #
edge $-1 $241 -7.4699047951402164 $168 -1.5602723773562488 $163 $242 forward 7 unknown #
edge $-1 $169 -85.264403144512414 $241 -77.049047231014242 $96 $243 forward 7 unknown #
coedge $-1 $97 $237 $240 $244 reversed $167 $-1 #
loop $-1 $-1 $161 $155 #
vertex $-1 $244 $245 #
vertex $-1 $98 $246 #
straight-curve $-1 -40.144343272556533 42.6322015722562 91.82954091058815 0 0 -1 I I #
coedge $-1 $171 $171 $-1 $247 reversed $101 $-1 #
edge $-1 $248 0 $248 6.2831853071796004 $102 $249 forward 7 unknown #
vertex $-1 $105 $250 #
ellipse-curve $-1 -58.99546022649622 39.677385363364216 16.391232343392605 0 0.69465837861970381 0.71933979245794832 1.5 0 0 1 I I #
coedge $-1 $175 $175 $-1 $251 reversed $108 $-1 #
edge $-1 $252 0 $252 6.2831853071796004 $109 $253 forward 7 unknown #
vertex $-1 $112 $254 #
ellipse-curve $-1 -51.926291368768837 39.677385363364216 16.391232343392605 0 0.69465837861970381 0.71933979245794832 1.5 0 0 1 I I #
coedge $-1 $179 $179 $-1 $255 reversed $115 $-1 #
edge $-1 $256 0 $256 6.2831853071796004 $116 $257 forward 7 unknown #
vertex $-1 $119 $258 #
ellipse-curve $-1 -44.857122511041453 39.677385363364216 16.391232343392605 0 0.69465837861970381 0.71933979245794832 1.5 0 0 1 I I #
face $-1 $-1 $135 $18 $-1 $259 reversed single #
loop $-1 $-1 $199 $120 #
plane-surface $-1 0 42.6322015722562 0 0 -1 0 0 0 -1 forward_v I I I I #
coedge $-1 $260 $197 $200 $261 forward $121 $-1 #
coedge $-1 $203 $123 $124 $191 reversed $76 $-1 #
coedge $-1 $197 $260 $123 $189 reversed $121 $-1 #
edge $-1 $204 -19.244665252719823 $262 19.244665252719823 $188 $263 forward 7 unknown #
coedge $-1 $125 $124 $260 $264 forward $49 $-1 #
edge $-1 $195 -77.078768272957547 $262 77.078768272957547 $187 $265 forward 7 unknown #
coedge $-1 $200 $199 $125 $193 reversed $184 $-1 #
edge $-1 $266 -77.078768272957547 $194 77.078768272957547 $192 $267 forward 7 unknown #
vertex $-1 $127 $268 #
vertex $-1 $206 $269 #
straight-curve $-1 77.078768272957547 0 -19.244665252719823 0 -1 0 I I #
coedge $-1 $186 $188 $128 $198 reversed $121 $-1 #
edge $-1 $201 -42.6322015722562 $204 42.6322015722562 $197 $270 forward 7 unknown #
coedge $-1 $192 $129 $134 $207 forward $184 $-1 #
coedge $-1 $129 $192 $186 $261 reversed $184 $-1 #
vertex $-1 $130 $271 #
straight-curve $-1 0 42.6322015722562 19.244665252719823 -1 0 0 I I #
coedge $-1 $131 $187 $133 $206 reversed $76 $-1 #
vertex $-1 $198 $272 #
straight-curve $-1 0 -42.6322015722562 19.244665252719823 1 0 0 I I #
edge $-1 $136 -19.244665252719823 $195 19.244665252719823 $133 $273 forward 7 unknown #
edge $-1 $137 -19.244665252719823 $194 19.244665252719823 $134 $274 forward 7 unknown #
point $-1 77.078768272957547 -42.6322015722562 19.244665252719823 #
point $-1 77.078768272957547 42.6322015722562 19.244665252719823 #
face $-1 $-1 $219 $19 $-1 $275 reversed single #
loop $-1 $-1 $216 $139 #
plane-surface $-1 0 0 19.244665252719823 0 0 1 1 0 0 forward_v I I I I #
coedge $-1 $276 $277 $146 $222 forward $140 $-1 #
coedge $-1 $142 $226 $278 $279 reversed $84 $-1 #
edge $-1 $280 -11.118849527424784 $152 -5.1327819231652878 $142 $281 forward 7 unknown #
coedge $-1 $278 $282 $143 $217 forward $211 $-1 #
edge $-1 $220 -42.6322015722562 $280 42.6322015722562 $216 $283 forward 7 unknown #
coedge $-1 $223 $144 $282 $284 reversed $219 $-1 #
loop $-1 $-1 $144 $210 #
vertex $-1 $145 $285 #
straight-curve $-1 -63.708239464981148 -42.6322015722562 8.1258157252950358 0 0 1 I I #
edge $-1 $227 -42.6322015722562 $224 42.6322015722562 $213 $286 forward 7 unknown #
coedge $-1 $147 $218 $276 $287 forward $219 $-1 #
vertex $-1 $222 $288 #
straight-curve $-1 -35.196751934484674 -42.6322015722562 13.258597648460324 1 0 0 I I #
coedge $-1 $214 $149 $277 $289 reversed $84 $-1 #
vertex $-1 $222 $290 #
straight-curve $-1 -35.196751934484674 42.6322015722562 13.258597648460324 -1 0 0 I I #
point $-1 -63.708239464981148 42.6322015722562 13.258597648460324 #
point $-1 -63.708239464981148 -42.6322015722562 13.258597648460324 #
plane-surface $-1 0 42.6322015722562 0 0 -1 0 0 0 -1 forward_v I I I I #
coedge $-1 $163 $291 $236 $292 forward $156 $-1 #
coedge $-1 $234 $158 $291 $293 reversed $92 $-1 #
coedge $-1 $158 $233 $237 $294 reversed $92 $-1 #
edge $-1 $238 -58.908314161984961 $295 -50.692958248486761 $158 $296 forward 7 unknown #
coedge $-1 $160 $159 $232 $292 reversed $57 $-1 #
coedge $-1 $166 $161 $234 $294 forward $167 $-1 #
vertex $-1 $294 $297 #
straight-curve $-1 -25.963145684384418 42.6322015722562 13.537799434065377 -1 0 0 I I #
coedge $-1 $291 $163 $166 $244 forward $156 $-1 #
vertex $-1 $164 $298 #
straight-curve $-1 -40.144343272556533 44.192473949612449 19.244665252719827 0 1 0 I I #
straight-curve $-1 -40.144343272556533 -18.70187648976821 72.767431476409158 0 -0.71933979245794832 0.69465837861970381 I I #
edge $-1 $168 40.144343272556533 $299 63.708239464981148 $166 $300 forward 7 unknown #
point $-1 -40.144343272556533 42.6322015722562 19.244665252719823 #
point $-1 -40.144343272556533 42.632201572256193 13.537799434065377 #
edge $-1 $301 1 $301 0 $171 $-1 forward 7 unknown #
vertex $-1 $172 $302 #
ellipse-curve $-1 -58.99546022649622 35.768159138787155 12.343110176283592 0 0.69465837861970381 0.71933979245794832 1.5 0 0 1 I I #
point $-1 -57.49546022649622 39.677385363364209 16.391232343392595 #
edge $-1 $303 1 $303 0 $175 $-1 forward 7 unknown #
vertex $-1 $176 $304 #
ellipse-curve $-1 -51.926291368768837 35.768159138787155 12.343110176283592 0 0.69465837861970381 0.71933979245794832 1.5 0 0 1 I I #
point $-1 -50.426291368768837 39.677385363364209 16.391232343392595 #
edge $-1 $305 1 $305 0 $179 $-1 forward 7 unknown #
vertex $-1 $180 $306 #
ellipse-curve $-1 -44.857122511041453 35.768159138787155 12.343110176283592 0 0.69465837861970381 0.71933979245794832 1.5 0 0 1 I I #
point $-1 -43.357122511041453 39.677385363364209 16.391232343392595 #
plane-surface $-1 77.078768272957547 0 0 -1 0 0 0 0 1 forward_v I I I I #
coedge $-1 $188 $186 $190 $264 reversed $121 $-1 #
edge $-1 $201 -19.244665252719823 $266 19.244665252719823 $200 $307 forward 7 unknown #
vertex $-1 $264 $308 #
straight-curve $-1 -77.078768272957547 -42.6322015722562 0 0 0 -1 I I #
edge $-1 $262 -42.6322015722562 $266 42.6322015722562 $260 $309 forward 7 unknown #
straight-curve $-1 0 -42.6322015722562 -19.244665252719823 -1 0 0 I I #
vertex $-1 $193 $310 #
straight-curve $-1 0 42.6322015722562 -19.244665252719823 1 0 0 I I #
point $-1 77.078768272957547 42.6322015722562 -19.244665252719823 #
point $-1 77.078768272957547 -42.6322015722562 -19.244665252719823 #
straight-curve $-1 -77.078768272957547 0 19.244665252719823 0 -1 0 I I #
point $-1 -77.078768272957547 42.6322015722562 19.244665252719823 #
point $-1 -77.078768272957547 -42.6322015722562 19.244665252719823 #
straight-curve $-1 77.078768272957547 -42.6322015722562 0 0 0 -1 I I #
straight-curve $-1 77.078768272957547 42.6322015722562 0 0 0 -1 I I #
plane-surface $-1 0 -42.6322015722562 0 0 1 0 0 0 1 forward_v I I I I #
coedge $-1 $311 $213 $223 $287 reversed $140 $-1 #
coedge $-1 $213 $311 $226 $289 forward $140 $-1 #
coedge $-1 $312 $216 $214 $279 forward $211 $-1 #
edge $-1 $280 63.708239464981148 $313 77.078768272957547 $214 $314 forward 7 unknown #
vertex $-1 $279 $315 #
straight-curve $-1 -63.708239464981148 42.6322015722562 8.1258157252950358 0 0 -1 I I #
coedge $-1 $216 $312 $218 $284 forward $211 $-1 #
straight-curve $-1 -63.708239464981148 0 19.244665252719823 0 1 0 I I #
edge $-1 $316 -77.078768272957547 $220 -63.708239464981148 $218 $317 forward 7 unknown #
point $-1 -63.708239464981148 -42.6322015722562 19.24466525271982 #
straight-curve $-1 -77.078768272957547 0 13.258597648460324 0 -1 0 I I #
edge $-1 $316 -19.244665252719823 $224 -13.258597648460324 $276 $318 forward 7 unknown #
point $-1 -77.078768272957547 -42.6322015722562 13.258597648460324 #
edge $-1 $313 -19.244665252719823 $227 -13.258597648460324 $226 $319 forward 7 unknown #
point $-1 -77.078768272957547 42.6322015722562 13.258597648460324 #
coedge $-1 $232 $240 $233 $293 forward $156 $-1 #
edge $-1 $295 -37.745093780596733 $241 -14.181197588172115 $232 $320 forward 7 unknown #
edge $-1 $299 -42.6322015722562 $295 -36.722569154472232 $291 $321 forward 7 unknown #
edge $-1 $238 5.4119837087703342 $299 11.118849527424784 $237 $322 forward 7 unknown #
vertex $-1 $235 $323 #
straight-curve $-1 -63.708239464981148 0.25710708892632361 54.458953437049985 0 -0.71933979245794832 0.69465837861970381 I I #
point $-1 -63.708239464981148 42.6322015722562 13.53779943406537 #
point $-1 -40.144343272556533 36.722569154472232 19.244665252719827 #
vertex $-1 $293 $324 #
straight-curve $-1 0 42.6322015722562 19.244665252719823 -1 0 0 I I #
vertex $-1 $247 $325 #
point $-1 -57.49546022649622 35.768159138787155 12.343110176283592 #
vertex $-1 $251 $326 #
point $-1 -50.426291368768837 35.768159138787155 12.343110176283592 #
vertex $-1 $255 $327 #
point $-1 -43.357122511041453 35.768159138787155 12.343110176283592 #
straight-curve $-1 -77.078768272957547 42.6322015722562 0 0 0 -1 I I #
point $-1 -77.078768272957547 -42.6322015722562 -19.244665252719823 #
straight-curve $-1 -77.078768272957547 0 -19.244665252719823 0 1 0 I I #
point $-1 -77.078768272957547 42.6322015722562 -19.244665252719823 #
coedge $-1 $277 $276 $312 $328 reversed $140 $-1 #
coedge $-1 $282 $278 $311 $328 forward $211 $-1 #
vertex $-1 $279 $329 #
straight-curve $-1 0 42.6322015722562 19.244665252719823 -1 0 0 I I #
point $-1 -63.708239464981148 42.6322015722562 19.24466525271982 #
vertex $-1 $328 $330 #
straight-curve $-1 0 -42.6322015722562 19.244665252719823 1 0 0 I I #
straight-curve $-1 -77.078768272957547 -42.6322015722562 0 0 0 -1 I I #
straight-curve $-1 -77.078768272957547 42.6322015722562 0 0 0 -1 I I #
straight-curve $-1 -25.963145684384418 36.722569154472232 19.24466525271982 1 0 0 I I #
straight-curve $-1 -63.708239464981148 0 19.244665252719823 0 -1 0 I I #
straight-curve $-1 -63.708239464981148 42.6322015722562 8.1258157252950358 0 0 1 I I #
point $-1 -63.708239464981148 36.722569154472232 19.244665252719823 #
point $-1 -63.708239464981148 42.6322015722562 19.24466525271982 #
point $-1 -58.99546022649622 34.726171570857602 11.264100487596668 #
point $-1 -51.926291368768837 34.726171570857602 11.264100487596668 #
point $-1 -44.857122511041453 34.726171570857602 11.264100487596668 #
edge $-1 $313 -42.6322015722562 $316 42.6322015722562 $311 $331 forward 7 unknown #
point $-1 -77.078768272957547 42.6322015722562 19.244665252719823 #
point $-1 -77.078768272957547 -42.6322015722562 19.244665252719823 #
straight-curve $-1 -77.078768272957547 0 19.244665252719823 0 -1 0 I I #
End-of-ACIS-data 