500 0 4 0           
7 Unknown 11 ACIS 5.0 NT 24 Thu Mar 25 19:17:34 1999 
-1 9.9999999999999995e-007 1e-010 
body $-1 $4 $-1 $5 #
body $-1 $6 $-1 $7 #
body $-1 $8 $-1 $9 #
body $-1 $10 $-1 $11 #
lump $-1 $-1 $12 $0 #
transform $-1 1 0 0 0 1 0 0 0 1 54.929654835657828 34.251448549964209 7.4015825950677989 1 rotate no_reflect no_shear #
lump $-1 $-1 $13 $1 #
transform $-1 1 0 0 0 1 0 0 0 1 54.929654835657828 34.251448549964209 7.4015825950677989 1 rotate no_reflect no_shear #
lump $-1 $-1 $14 $2 #
transform $-1 1 0 0 0 1 0 0 0 1 54.929654835657828 34.251448549964209 7.4015825950677989 1 rotate no_reflect no_shear #
lump $-1 $-1 $15 $3 #
transform $-1 1 0 0 0 1 0 0 0 1 54.929654835657828 34.251448549964209 7.4015825950677989 1 rotate no_reflect no_shear #
shell $-1 $-1 $-1 $16 $-1 $4 #
shell $-1 $-1 $-1 $17 $-1 $6 #
shell $-1 $-1 $-1 $18 $-1 $8 #
shell $-1 $-1 $-1 $19 $-1 $10 #
face $-1 $20 $21 $12 $-1 $22 forward single #
face $-1 $23 $24 $13 $-1 $25 forward single #
face $-1 $26 $27 $14 $-1 $28 reversed single #
face $-1 $29 $30 $15 $-1 $31 forward single #
face $-1 $32 $33 $12 $-1 $34 reversed single #
loop $-1 $-1 $35 $16 #
plane-surface $-1 0 0 7.4015825950677989 0 0 1 1 0 0 forward_v I I I I #
face $-1 $36 $37 $13 $-1 $38 reversed single #
loop $-1 $-1 $39 $17 #
plane-surface $-1 -54.929654835657828 0 0 1 0 0 0 0 -1 forward_v I I I I #
face $-1 $40 $41 $14 $-1 $42 reversed single #
loop $-1 $-1 $43 $18 #
plane-surface $-1 1.9974659685643203 84.951280742428111 121.85738511943885 1 0 0 0 -0.81915205242281985 -0.57357642473473569 forward_v I I I I #
face $-1 $44 $45 $15 $-1 $46 forward single #
loop $-1 $47 $48 $19 #
cone-surface $-1 11.10531234826297 32.127421357719157 4.723846380514364 0 -0.81915205242281985 -0.57357642473473569 1 0 0 1 I I 0 1 1 forward I I I I #
face $-1 $49 $50 $12 $-1 $51 reversed single #
loop $-1 $-1 $52 $20 #
plane-surface $-1 0 0 -7.4015825950677989 0 0 1 1 0 0 forward_v I I I I #
coedge $-1 $53 $54 $55 $56 forward $21 $-1 #
face $-1 $57 $58 $13 $-1 $59 forward single #
loop $-1 $-1 $60 $23 #
plane-surface $-1 0 34.251448549964209 0 0 -1 0 0 0 -1 forward_v I I I I #
coedge $-1 $61 $62 $63 $64 forward $24 $-1 #
face $-1 $65 $66 $14 $-1 $67 reversed single #
loop $-1 $-1 $68 $26 #
plane-surface $-1 11.10531234826297 -5.040198252584247 58.84467505433944 0 0.81915205242281985 0.57357642473473569 1 0 0 forward_v I I I I #
coedge $-1 $69 $70 $71 $72 reversed $27 $-1 #
face $-1 $-1 $73 $15 $-1 $74 forward single #
loop $-1 $75 $76 $29 #
cone-surface $-1 11.10531234826297 31.229221519726678 4.0949201021155393 0 -0.81915205242281985 -0.57357642473473569 0.5 0 0 1 I I -0.70710678118654746 0.70710678118654746 0.5 forward I I I I #
loop $-1 $-1 $77 $19 #
coedge $-1 $48 $48 $78 $79 reversed $30 $-1 #
face $-1 $80 $81 $12 $-1 $82 reversed single #
loop $-1 $-1 $83 $32 #
plane-surface $-1 0 -34.251448549964209 0 0 1 0 0 0 1 forward_v I I I I #
coedge $-1 $84 $85 $86 $87 forward $33 $-1 #
coedge $-1 $88 $35 $89 $90 forward $21 $-1 #
coedge $-1 $35 $88 $91 $92 forward $21 $-1 #
coedge $-1 $93 $94 $35 $56 reversed $95 $-1 #
edge $-1 $96 -34.251448549964209 $97 34.251448549964209 $55 $98 forward 7 unknown #
face $-1 $99 $100 $13 $-1 $101 reversed single #
loop $-1 $-1 $63 $36 #
plane-surface $-1 -58.064449933453901 0 -2.7899806461354384 0 0 1 1 0 0 forward_v I I I I #
coedge $-1 $102 $103 $62 $104 forward $37 $-1 #
coedge $-1 $105 $39 $106 $107 reversed $24 $-1 #
coedge $-1 $39 $105 $60 $104 reversed $24 $-1 #
coedge $-1 $108 $109 $39 $64 reversed $58 $-1 #
edge $-1 $110 -34.251448549964209 $111 34.251448549964209 $63 $112 forward 7 unknown #
face $-1 $113 $114 $14 $-1 $115 forward single #
loop $-1 $-1 $116 $40 #
plane-surface $-1 20.21315872796162 84.951280742428111 121.85738511943885 -1 0 0 0 0.81915205242281985 0.57357642473473569 forward_v I I I I #
coedge $-1 $117 $118 $119 $120 reversed $41 $-1 #
coedge $-1 $70 $43 $121 $122 reversed $27 $-1 #
coedge $-1 $43 $69 $117 $123 reversed $27 $-1 #
coedge $-1 $119 $124 $43 $72 forward $114 $-1 #
edge $-1 $125 8.2241918212498462 $126 11.494998582177871 $71 $127 forward 7 unknown #
loop $-1 $-1 $78 $44 #
plane-surface $-1 11.10531234826297 -5.040198252584247 58.84467505433944 0 0.81915205242281985 0.57357642473473569 1 0 0 forward_v I I I I #
loop $-1 $-1 $128 $29 #
coedge $-1 $76 $76 $77 $129 reversed $45 $-1 #
coedge $-1 $77 $77 $76 $129 forward $47 $-1 #
coedge $-1 $78 $78 $48 $79 forward $73 $-1 #
edge $-1 $130 1.7509589716403656e-015 $130 6.2831853071796022 $78 $131 forward 7 unknown #
face $-1 $132 $133 $12 $-1 $134 reversed single #
loop $-1 $-1 $135 $49 #
plane-surface $-1 -54.929654835657828 0 0 1 0 0 0 0 -1 forward_v I I I I #
coedge $-1 $136 $91 $137 $138 forward $50 $-1 #
coedge $-1 $139 $52 $136 $140 forward $33 $-1 #
coedge $-1 $52 $139 $141 $142 forward $33 $-1 #
coedge $-1 $94 $93 $52 $87 reversed $95 $-1 #
edge $-1 $143 -34.251448549964209 $144 34.251448549964209 $86 $145 forward 7 unknown #
coedge $-1 $54 $53 $146 $147 forward $21 $-1 #
coedge $-1 $148 $149 $53 $90 reversed $133 $-1 #
edge $-1 $97 -54.929654835657828 $150 54.929654835657828 $89 $151 forward 7 unknown #
coedge $-1 $83 $152 $54 $92 reversed $50 $-1 #
edge $-1 $153 -54.929654835657828 $96 54.929654835657828 $91 $154 forward 7 unknown #
coedge $-1 $86 $55 $152 $155 forward $95 $-1 #
coedge $-1 $55 $86 $148 $156 reversed $95 $-1 #
loop $-1 $-1 $93 $132 #
vertex $-1 $56 $157 #
vertex $-1 $56 $158 #
straight-curve $-1 54.929654835657828 0 7.4015825950677989 0 1 0 I I #
face $-1 $159 $160 $13 $-1 $161 reversed single #
loop $-1 $-1 $162 $57 #
plane-surface $-1 -58.064449933453901 0 -5.7899806461354384 0 0 1 1 0 0 forward_v I I I I #
coedge $-1 $163 $60 $164 $165 reversed $37 $-1 #
coedge $-1 $60 $163 $108 $166 reversed $37 $-1 #
edge $-1 $110 2.7899806461354384 $167 5.7899806461354384 $60 $168 forward 7 unknown #
coedge $-1 $62 $61 $162 $169 forward $24 $-1 #
coedge $-1 $170 $171 $61 $107 forward $172 $-1 #
edge $-1 $173 -5.7899806461354384 $111 -2.7899806461354384 $106 $174 forward 7 unknown #
coedge $-1 $175 $63 $103 $166 forward $58 $-1 #
coedge $-1 $63 $175 $170 $176 forward $58 $-1 #
vertex $-1 $104 $177 #
vertex $-1 $176 $178 #
straight-curve $-1 -54.929654835657828 0 -2.7899806461354384 0 -1 0 I I #
face $-1 $-1 $179 $14 $-1 $180 reversed single #
loop $-1 $-1 $71 $65 #
plane-surface $-1 0 0 7.4015825950677989 0 0 1 1 0 0 forward_v I I I I #
coedge $-1 $181 $182 $183 $184 reversed $66 $-1 #
coedge $-1 $185 $68 $70 $123 forward $41 $-1 #
coedge $-1 $68 $185 $181 $186 forward $41 $-1 #
coedge $-1 $183 $71 $68 $120 forward $114 $-1 #
edge $-1 $126 -3.5551902055671647 $187 14.660502553830135 $119 $188 forward 7 unknown #
coedge $-1 $189 $190 $69 $122 forward $179 $-1 #
edge $-1 $191 -58.198306261695606 $125 -53.527109964651622 $121 $192 forward 7 unknown #
edge $-1 $126 62.800419418003706 $191 68.502897099928461 $70 $193 forward 7 unknown #
coedge $-1 $71 $183 $189 $194 forward $114 $-1 #
vertex $-1 $122 $195 #
vertex $-1 $72 $196 #
straight-curve $-1 1.9974659685643203 42.475640371214055 7.4015825950678007 0 -1 0 I I #
coedge $-1 $128 $128 $-1 $197 reversed $75 $-1 #
edge $-1 $198 0 $198 6.2831853071796004 $76 $199 forward 7 unknown #
vertex $-1 $79 $200 #
ellipse-curve $-1 11.10531234826297 32.616045169500197 5.0659844465458042 0 0.81915205242281985 0.57357642473473569 1 0 0 1 I I #
face $-1 $-1 $95 $12 $-1 $201 reversed single #
loop $-1 $-1 $148 $80 #
plane-surface $-1 0 34.251448549964209 0 0 -1 0 0 0 -1 forward_v I I I I #
coedge $-1 $202 $146 $149 $203 forward $81 $-1 #
coedge $-1 $152 $83 $84 $140 reversed $50 $-1 #
coedge $-1 $146 $202 $83 $138 reversed $81 $-1 #
edge $-1 $153 -7.4015825950677989 $204 7.4015825950677989 $137 $205 forward 7 unknown #
coedge $-1 $85 $84 $202 $206 forward $33 $-1 #
edge $-1 $144 -54.929654835657828 $204 54.929654835657828 $136 $207 forward 7 unknown #
coedge $-1 $149 $148 $85 $142 reversed $133 $-1 #
edge $-1 $208 -54.929654835657828 $143 54.929654835657828 $141 $209 forward 7 unknown #
vertex $-1 $87 $210 #
vertex $-1 $155 $211 #
straight-curve $-1 54.929654835657828 0 -7.4015825950677989 0 -1 0 I I #
coedge $-1 $135 $137 $88 $147 reversed $81 $-1 #
edge $-1 $150 -34.251448549964209 $153 34.251448549964209 $146 $212 forward 7 unknown #
coedge $-1 $141 $89 $94 $156 forward $133 $-1 #
coedge $-1 $89 $141 $135 $203 reversed $133 $-1 #
vertex $-1 $90 $213 #
straight-curve $-1 0 34.251448549964209 7.4015825950677989 -1 0 0 I I #
coedge $-1 $91 $136 $93 $155 reversed $50 $-1 #
vertex $-1 $147 $214 #
straight-curve $-1 0 -34.251448549964209 7.4015825950677989 1 0 0 I I #
edge $-1 $96 -7.4015825950677989 $144 7.4015825950677989 $93 $215 forward 7 unknown #
edge $-1 $97 -7.4015825950677989 $143 7.4015825950677989 $94 $216 forward 7 unknown #
point $-1 54.929654835657828 -34.251448549964209 7.4015825950677989 #
point $-1 54.929654835657828 34.251448549964209 7.4015825950677989 #
face $-1 $-1 $172 $13 $-1 $217 reversed single #
loop $-1 $-1 $218 $99 #
plane-surface $-1 -61.199245031249973 0 -4.2899806461354384 1 0 0 0 0 -1 forward_v I I I I #
coedge $-1 $219 $164 $105 $169 reversed $100 $-1 #
coedge $-1 $103 $102 $218 $220 reversed $37 $-1 #
coedge $-1 $162 $221 $102 $165 forward $100 $-1 #
edge $-1 $222 -3.1347950977960721 $167 3.1347950977960721 $102 $223 forward 7 unknown #
edge $-1 $110 -3.1347950977960721 $224 3.1347950977960721 $103 $225 forward 7 unknown #
vertex $-1 $104 $226 #
straight-curve $-1 -54.929654835657828 34.251448549964209 0 0 0 -1 I I #
edge $-1 $173 -34.251448549964209 $167 34.251448549964209 $162 $227 forward 7 unknown #
coedge $-1 $228 $106 $109 $176 reversed $172 $-1 #
coedge $-1 $106 $228 $219 $229 reversed $172 $-1 #
loop $-1 $-1 $106 $159 #
vertex $-1 $107 $230 #
straight-curve $-1 -54.929654835657828 -34.251448549964209 0 0 0 1 I I #
coedge $-1 $109 $108 $231 $232 forward $58 $-1 #
edge $-1 $233 -3.1347950977960721 $111 3.1347950977960721 $170 $234 forward 7 unknown #
point $-1 -54.929654835657828 34.251448549964209 -2.7899806461354384 #
point $-1 -54.929654835657828 -34.251448549964209 -2.7899806461354384 #
loop $-1 $-1 $121 $113 #
plane-surface $-1 0 34.251448549964209 0 0 -1 0 0 0 -1 forward_v I I I I #
coedge $-1 $182 $116 $118 $186 reversed $66 $-1 #
coedge $-1 $116 $181 $235 $236 reversed $66 $-1 #
coedge $-1 $124 $119 $116 $184 forward $114 $-1 #
edge $-1 $187 -11.494998582177871 $237 -8.2241918212498462 $183 $238 forward 7 unknown #
coedge $-1 $118 $117 $190 $239 reversed $41 $-1 #
edge $-1 $240 -68.502897099928461 $187 -62.800419418003706 $181 $241 forward 7 unknown #
vertex $-1 $120 $242 #
straight-curve $-1 5.552656174131485 30.980641789036188 7.4015825950678007 1 0 0 I I #
coedge $-1 $235 $121 $124 $194 reversed $179 $-1 #
coedge $-1 $121 $235 $185 $239 forward $179 $-1 #
vertex $-1 $122 $243 #
straight-curve $-1 1.9974659685643203 34.251448549964209 60.928692559719423 0 0 1 I I #
straight-curve $-1 1.9974659685643203 -5.040198252584247 58.84467505433944 0 0.57357642473473569 -0.81915205242281985 I I #
edge $-1 $237 -20.21315872796162 $125 -1.9974659685643203 $189 $244 forward 7 unknown #
point $-1 1.9974659685643203 34.251448549964209 7.4015825950677989 #
point $-1 1.9974659685643203 30.980641789036184 7.4015825950678007 #
edge $-1 $245 1 $245 0 $128 $-1 forward 7 unknown #
vertex $-1 $129 $246 #
ellipse-curve $-1 11.10531234826297 31.63879754593809 4.381708314482907 0 0.81915205242281985 0.57357642473473569 1 0 0 1 I I #
point $-1 12.10531234826297 32.616045169500225 5.0659844465458219 #
plane-surface $-1 54.929654835657828 0 0 -1 0 0 0 0 1 forward_v I I I I #
coedge $-1 $137 $135 $139 $206 reversed $81 $-1 #
edge $-1 $150 -7.4015825950677989 $208 7.4015825950677989 $149 $247 forward 7 unknown #
vertex $-1 $206 $248 #
straight-curve $-1 -54.929654835657828 -34.251448549964209 0 0 0 -1 I I #
edge $-1 $204 -34.251448549964209 $208 34.251448549964209 $202 $249 forward 7 unknown #
straight-curve $-1 0 -34.251448549964209 -7.4015825950677989 -1 0 0 I I #
vertex $-1 $142 $250 #
straight-curve $-1 0 34.251448549964209 -7.4015825950677989 1 0 0 I I #
point $-1 54.929654835657828 34.251448549964209 -7.4015825950677989 #
point $-1 54.929654835657828 -34.251448549964209 -7.4015825950677989 #
straight-curve $-1 -54.929654835657828 0 7.4015825950677989 0 -1 0 I I #
point $-1 -54.929654835657828 34.251448549964209 7.4015825950677989 #
point $-1 -54.929654835657828 -34.251448549964209 7.4015825950677989 #
straight-curve $-1 54.929654835657828 -34.251448549964209 0 0 0 -1 I I #
straight-curve $-1 54.929654835657828 34.251448549964209 0 0 0 -1 I I #
plane-surface $-1 0 -34.251448549964209 0 0 1 0 0 0 1 forward_v I I I I #
coedge $-1 $251 $231 $163 $220 forward $160 $-1 #
coedge $-1 $221 $162 $171 $229 forward $100 $-1 #
edge $-1 $224 -1.5 $222 1.5 $163 $252 forward 7 unknown #
coedge $-1 $164 $219 $251 $253 forward $100 $-1 #
vertex $-1 $165 $254 #
straight-curve $-1 -58.064449933453901 34.251448549964209 -5.7899806461354384 1 0 0 I I #
vertex $-1 $166 $255 #
straight-curve $-1 -58.064449933453901 34.251448549964209 -2.7899806461354384 -1 0 0 I I #
point $-1 -54.929654835657828 34.251448549964209 -5.7899806461354384 #
straight-curve $-1 -54.929654835657828 0 -5.7899806461354384 0 1 0 I I #
coedge $-1 $171 $170 $256 $257 forward $172 $-1 #
edge $-1 $173 -3.1347950977960721 $258 3.1347950977960721 $171 $259 forward 7 unknown #
point $-1 -54.929654835657828 -34.251448549964209 -5.7899806461354384 #
coedge $-1 $218 $256 $175 $232 reversed $160 $-1 #
edge $-1 $224 -34.251448549964209 $233 34.251448549964209 $231 $260 forward 7 unknown #
vertex $-1 $232 $261 #
straight-curve $-1 -58.064449933453901 -34.251448549964209 -2.7899806461354384 1 0 0 I I #
coedge $-1 $190 $189 $182 $236 forward $179 $-1 #
edge $-1 $237 53.527109964651622 $240 58.198306261695606 $235 $262 forward 7 unknown #
vertex $-1 $194 $263 #
straight-curve $-1 20.21315872796162 42.475640371214055 7.4015825950678007 0 1 0 I I #
edge $-1 $240 -14.660502553830135 $191 3.5551902055671647 $190 $264 forward 7 unknown #
vertex $-1 $239 $265 #
straight-curve $-1 20.21315872796162 -5.040198252584247 58.84467505433944 0 -0.57357642473473569 0.81915205242281985 I I #
point $-1 20.21315872796162 30.980641789036184 7.4015825950678007 #
point $-1 1.9974659685643203 34.251448549964202 2.7303862980238165 #
straight-curve $-1 0 34.251448549964209 7.4015825950677989 -1 0 0 I I #
vertex $-1 $197 $266 #
point $-1 12.10531234826297 31.63879754593809 4.381708314482907 #
straight-curve $-1 -54.929654835657828 34.251448549964209 0 0 0 -1 I I #
point $-1 -54.929654835657828 -34.251448549964209 -7.4015825950677989 #
straight-curve $-1 -54.929654835657828 0 -7.4015825950677989 0 1 0 I I #
point $-1 -54.929654835657828 34.251448549964209 -7.4015825950677989 #
coedge $-1 $256 $218 $221 $253 reversed $160 $-1 #
straight-curve $-1 -61.199245031249973 34.251448549964209 -4.2899806461354384 0 0 -1 I I #
edge $-1 $258 -34.251448549964209 $222 34.251448549964209 $251 $267 forward 7 unknown #
point $-1 -61.199245031249973 34.251448549964209 -5.7899806461354384 #
point $-1 -61.199245031249973 34.251448549964209 -2.7899806461354384 #
coedge $-1 $231 $251 $228 $257 reversed $160 $-1 #
edge $-1 $233 -1.5 $258 1.5 $256 $268 forward 7 unknown #
vertex $-1 $253 $269 #
straight-curve $-1 -58.064449933453901 -34.251448549964209 -5.7899806461354384 -1 0 0 I I #
straight-curve $-1 -61.199245031249973 0 -2.7899806461354384 0 -1 0 I I #
point $-1 -61.199245031249973 -34.251448549964209 -2.7899806461354384 #
straight-curve $-1 20.21315872796162 34.251448549964209 60.928692559719423 0 0 -1 I I #
point $-1 20.21315872796162 34.251448549964209 7.4015825950677989 #
straight-curve $-1 5.552656174131485 34.251448549964209 2.7303862980238129 -1 0 0 I I #
point $-1 20.21315872796162 34.251448549964202 2.7303862980238165 #
point $-1 11.10531234826297 30.819645493515267 3.8081318897481715 #
straight-curve $-1 -61.199245031249973 0 -5.7899806461354384 0 1 0 I I #
straight-curve $-1 -61.199245031249973 -34.251448549964209 -4.2899806461354384 0 0 -1 I I #
point $-1 -61.199245031249973 -34.251448549964209 -5.7899806461354384 #
End-of-ACIS-data 