500 0 7 0           
7 Unknown 11 ACIS 5.0 NT 24 Fri Mar 26 16:39:15 1999 
-1 9.9999999999999995e-007 1e-010 
body $-1 $7 $-1 $8 #
body $-1 $9 $-1 $10 #
body $-1 $11 $-1 $12 #
body $-1 $13 $-1 $14 #
body $-1 $15 $-1 $16 #
body $-1 $17 $-1 $18 #
body $-1 $19 $-1 $20 #
lump $-1 $-1 $21 $0 #
transform $-1 1 0 0 0 1 0 0 0 1 61.217688528092289 25.670252453530715 12.732890198285919 1 rotate no_reflect no_shear #
lump $-1 $-1 $22 $1 #
transform $-1 1 0 0 0 1 0 0 0 1 61.217688528092289 25.670252453530715 12.732890198285919 1 rotate no_reflect no_shear #
lump $-1 $-1 $23 $2 #
transform $-1 1 0 0 0 1 0 0 0 1 61.217688528092289 25.670252453530715 12.732890198285919 1 rotate no_reflect no_shear #
lump $-1 $-1 $24 $3 #
transform $-1 1 0 0 0 1 0 0 0 1 61.217688528092289 25.670252453530715 12.732890198285919 1 rotate no_reflect no_shear #
lump $-1 $-1 $25 $4 #
transform $-1 1 0 0 0 1 0 0 0 1 61.217688528092289 25.670252453530715 12.732890198285919 1 rotate no_reflect no_shear #
lump $-1 $-1 $26 $5 #
transform $-1 1 0 0 0 1 0 0 0 1 61.217688528092289 25.670252453530715 12.732890198285919 1 rotate no_reflect no_shear #
lump $-1 $-1 $27 $6 #
transform $-1 1 0 0 0 1 0 0 0 1 61.217688528092289 25.670252453530715 12.732890198285919 1 rotate no_reflect no_shear #
shell $-1 $-1 $-1 $28 $-1 $7 #
shell $-1 $-1 $-1 $29 $-1 $9 #
shell $-1 $-1 $-1 $30 $-1 $11 #
shell $-1 $-1 $-1 $31 $-1 $13 #
shell $-1 $-1 $-1 $32 $-1 $15 #
shell $-1 $-1 $-1 $33 $-1 $17 #
shell $-1 $-1 $-1 $34 $-1 $19 #
face $-1 $35 $36 $21 $-1 $37 reversed single #
face $-1 $38 $39 $22 $-1 $40 forward single #
face $-1 $41 $42 $23 $-1 $43 forward single #
face $-1 $44 $45 $24 $-1 $46 reversed single #
face $-1 $47 $48 $25 $-1 $49 forward single #
face $-1 $50 $51 $26 $-1 $52 forward single #
face $-1 $53 $54 $27 $-1 $55 forward single #
face $-1 $56 $57 $21 $-1 $58 reversed single #
loop $-1 $-1 $59 $28 #
plane-surface $-1 0 25.670252453530715 0 0 -1 0 0 0 -1 forward_v I I I I #
face $-1 $60 $61 $22 $-1 $62 reversed single #
loop $-1 $-1 $63 $29 #
plane-surface $-1 0 -25.670252453530715 0 0 1 0 0 0 1 forward_v I I I I #
face $-1 $64 $65 $23 $-1 $66 reversed single #
loop $-1 $-1 $67 $30 #
plane-surface $-1 0 25.670252453530715 0 0 -1 0 0 0 -1 forward_v I I I I #
face $-1 $68 $69 $24 $-1 $70 reversed single #
loop $-1 $-1 $71 $31 #
plane-surface $-1 -126.09855431050019 -1.3043607833562518 112.5175297556162 0 1 0 -0.52991927123019833 0 0.84804809178421925 forward_v I I I I #
face $-1 $72 $73 $25 $-1 $74 forward single #
loop $-1 $75 $76 $32 #
cone-surface $-1 -57.710628010708277 0.18588762572774442 10.27881583443706 0.52991927123019833 0 -0.84804809178421925 0.42402404589210962 0 0.26495963561509916 1 I I 0 1 0.5 forward I I I I #
face $-1 $77 $78 $26 $-1 $79 forward single #
loop $-1 $80 $81 $33 #
cone-surface $-1 -57.710628010708277 2.4212602393537388 10.27881583443706 0.52991927123019833 0 -0.84804809178421925 0.42402404589210962 0 0.26495963561509916 1 I I 0 1 0.5 forward I I I I #
face $-1 $82 $83 $27 $-1 $84 forward single #
loop $-1 $85 $86 $34 #
cone-surface $-1 -57.710628010708277 4.6566328529797332 10.27881583443706 0.52991927123019833 0 -0.84804809178421925 0.42402404589210962 0 0.26495963561509916 1 I I 0 1 0.5 forward I I I I #
face $-1 $87 $88 $21 $-1 $89 forward single #
loop $-1 $-1 $90 $35 #
plane-surface $-1 0 -25.670252453530715 0 0 1 0 0 0 1 forward_v I I I I #
coedge $-1 $91 $92 $93 $94 reversed $36 $-1 #
face $-1 $95 $96 $22 $-1 $97 reversed single #
loop $-1 $-1 $98 $38 #
plane-surface $-1 0 0 -12.732890198285919 0 0 1 1 0 0 forward_v I I I I #
coedge $-1 $99 $100 $101 $102 forward $39 $-1 #
face $-1 $103 $104 $23 $-1 $105 reversed single #
loop $-1 $-1 $106 $41 #
plane-surface $-1 0 0 -12.732890198285919 0 0 1 1 0 0 forward_v I I I I #
coedge $-1 $107 $108 $109 $110 forward $42 $-1 #
face $-1 $111 $112 $24 $-1 $113 reversed single #
loop $-1 $-1 $114 $44 #
plane-surface $-1 -61.21768852809231 2.4212602393537388 8.6864418762374811 -0.52991927123019833 0 0.84804809178421925 0.84804809178421925 0 0.52991927123019833 forward_v I I I I #
coedge $-1 $115 $116 $117 $118 reversed $45 $-1 #
face $-1 $-1 $119 $25 $-1 $120 forward single #
loop $-1 $121 $122 $47 #
cone-surface $-1 -57.30892310094886 0.18588762572774442 9.6359536086663695 0.52991927123019833 0 -0.84804809178421925 0.21201202294605481 0 0.13247981780754958 1 I I -0.70710678118654746 0.70710678118654746 0.25 forward I I I I #
loop $-1 $-1 $123 $32 #
coedge $-1 $76 $76 $124 $125 reversed $48 $-1 #
face $-1 $-1 $126 $26 $-1 $127 forward single #
loop $-1 $128 $129 $50 #
cone-surface $-1 -57.30892310094886 2.4212602393537388 9.6359536086663695 0.52991927123019833 0 -0.84804809178421925 0.21201202294605481 0 0.13247981780754958 1 I I -0.70710678118654746 0.70710678118654746 0.25 forward I I I I #
loop $-1 $-1 $130 $33 #
coedge $-1 $81 $81 $131 $132 reversed $51 $-1 #
face $-1 $-1 $133 $27 $-1 $134 forward single #
loop $-1 $135 $136 $53 #
cone-surface $-1 -57.30892310094886 4.6566328529797332 9.6359536086663695 0.52991927123019833 0 -0.84804809178421925 0.21201202294605481 0 0.13247981780754958 1 I I -0.70710678118654746 0.70710678118654746 0.25 forward I I I I #
loop $-1 $-1 $137 $34 #
coedge $-1 $86 $86 $138 $139 reversed $54 $-1 #
face $-1 $140 $141 $21 $-1 $142 reversed single #
loop $-1 $-1 $143 $56 #
plane-surface $-1 0 0 12.732890198285919 0 0 1 1 0 0 forward_v I I I I #
coedge $-1 $144 $145 $146 $147 reversed $57 $-1 #
coedge $-1 $148 $59 $149 $150 reversed $36 $-1 #
coedge $-1 $59 $148 $151 $152 forward $36 $-1 #
coedge $-1 $153 $154 $59 $94 forward $141 $-1 #
edge $-1 $155 -61.217688528092289 $156 61.217688528092289 $59 $157 forward 7 unknown #
face $-1 $158 $159 $22 $-1 $160 reversed single #
loop $-1 $-1 $161 $60 #
plane-surface $-1 -49.225040031852039 -34.724364424790153 0 0 1 0 0 0 1 forward_v I I I I #
coedge $-1 $162 $163 $100 $164 forward $61 $-1 #
coedge $-1 $165 $63 $166 $167 reversed $39 $-1 #
coedge $-1 $63 $165 $98 $164 reversed $39 $-1 #
coedge $-1 $168 $169 $63 $102 reversed $159 $-1 #
edge $-1 $170 -12.732890198285919 $171 12.732890198285919 $101 $172 forward 7 unknown #
face $-1 $173 $174 $23 $-1 $175 reversed single #
loop $-1 $-1 $176 $64 #
plane-surface $-1 -51.71057076628901 30.19730843916043 0 1 0 0 0 0 -1 forward_v I I I I #
coedge $-1 $177 $178 $108 $179 forward $65 $-1 #
coedge $-1 $180 $67 $181 $182 reversed $42 $-1 #
coedge $-1 $67 $180 $106 $179 reversed $42 $-1 #
coedge $-1 $183 $184 $67 $110 reversed $185 $-1 #
edge $-1 $186 -12.732890198285919 $187 12.732890198285919 $109 $188 forward 7 unknown #
face $-1 $189 $190 $24 $-1 $191 reversed single #
loop $-1 $-1 $192 $68 #
plane-surface $-1 -126.09855431050019 6.1468812620637294 112.5175297556162 0 -1 0 0.52991927123019833 0 -0.84804809178421925 forward_v I I I I #
coedge $-1 $193 $194 $195 $196 reversed $69 $-1 #
coedge $-1 $116 $71 $197 $198 reversed $45 $-1 #
coedge $-1 $71 $115 $193 $199 reversed $45 $-1 #
coedge $-1 $195 $200 $71 $118 forward $201 $-1 #
edge $-1 $202 1.8315886271578066 $203 8.3072594780220541 $117 $204 forward 7 unknown #
loop $-1 $-1 $124 $72 #
plane-surface $-1 -61.21768852809231 2.4212602393537388 8.6864418762374811 -0.52991927123019833 0 0.84804809178421925 0.84804809178421925 0 0.52991927123019833 forward_v I I I I #
loop $-1 $-1 $205 $47 #
coedge $-1 $122 $122 $123 $206 reversed $73 $-1 #
coedge $-1 $123 $123 $122 $206 forward $75 $-1 #
coedge $-1 $124 $124 $76 $125 forward $119 $-1 #
edge $-1 $207 0 $207 6.2831853071796004 $124 $208 forward 7 unknown #
loop $-1 $-1 $131 $77 #
plane-surface $-1 -61.21768852809231 2.4212602393537388 8.6864418762374811 -0.52991927123019833 0 0.84804809178421925 0.84804809178421925 0 0.52991927123019833 forward_v I I I I #
loop $-1 $-1 $209 $50 #
coedge $-1 $129 $129 $130 $210 reversed $78 $-1 #
coedge $-1 $130 $130 $129 $210 forward $80 $-1 #
coedge $-1 $131 $131 $81 $132 forward $126 $-1 #
edge $-1 $211 0 $211 6.2831853071796004 $131 $212 forward 7 unknown #
loop $-1 $-1 $138 $82 #
plane-surface $-1 -61.21768852809231 2.4212602393537388 8.6864418762374811 -0.52991927123019833 0 0.84804809178421925 0.84804809178421925 0 0.52991927123019833 forward_v I I I I #
loop $-1 $-1 $213 $53 #
coedge $-1 $136 $136 $137 $214 reversed $83 $-1 #
coedge $-1 $137 $137 $136 $214 forward $85 $-1 #
coedge $-1 $138 $138 $86 $139 forward $133 $-1 #
edge $-1 $215 0 $215 6.2831853071796004 $138 $216 forward 7 unknown #
face $-1 $217 $218 $21 $-1 $219 reversed single #
loop $-1 $-1 $153 $87 #
plane-surface $-1 0 0 -12.732890198285919 0 0 1 1 0 0 forward_v I I I I #
coedge $-1 $220 $221 $222 $223 forward $88 $-1 #
coedge $-1 $224 $90 $225 $226 reversed $57 $-1 #
coedge $-1 $90 $224 $227 $228 forward $57 $-1 #
coedge $-1 $154 $153 $90 $147 forward $141 $-1 #
edge $-1 $229 -61.217688528092289 $230 61.217688528092289 $90 $231 forward 7 unknown #
coedge $-1 $92 $91 $220 $232 reversed $36 $-1 #
coedge $-1 $233 $234 $91 $150 forward $218 $-1 #
edge $-1 $235 -12.732890198285919 $155 12.732890198285919 $91 $236 forward 7 unknown #
coedge $-1 $222 $237 $92 $152 reversed $238 $-1 #
edge $-1 $239 -12.732890198285919 $156 12.732890198285919 $151 $240 forward 7 unknown #
coedge $-1 $146 $93 $237 $241 forward $141 $-1 #
coedge $-1 $93 $146 $233 $242 forward $141 $-1 #
vertex $-1 $94 $243 #
vertex $-1 $241 $244 #
straight-curve $-1 0 25.670252453530715 -12.732890198285919 1 0 0 I I #
face $-1 $245 $246 $22 $-1 $247 reversed single #
loop $-1 $-1 $101 $95 #
plane-surface $-1 -51.71057076628901 -30.197308439160434 0 1 0 0 0 0 -1 forward_v I I I I #
coedge $-1 $248 $249 $250 $251 forward $96 $-1 #
coedge $-1 $252 $98 $253 $254 forward $61 $-1 #
coedge $-1 $98 $252 $168 $255 forward $61 $-1 #
edge $-1 $170 -51.71057076628901 $256 -46.739509297415069 $98 $257 forward 7 unknown #
coedge $-1 $100 $99 $258 $259 forward $39 $-1 #
coedge $-1 $260 $261 $99 $167 forward $262 $-1 #
edge $-1 $263 46.739509297415069 $171 51.71057076628901 $166 $264 forward 7 unknown #
coedge $-1 $250 $101 $163 $255 reversed $159 $-1 #
coedge $-1 $101 $250 $260 $265 reversed $159 $-1 #
vertex $-1 $164 $266 #
vertex $-1 $265 $267 #
straight-curve $-1 -51.71057076628901 -25.670252453530715 0 0 0 1 I I #
face $-1 $268 $185 $23 $-1 $269 reversed single #
loop $-1 $-1 $270 $103 #
plane-surface $-1 -49.225040031852039 34.724364424790153 0 0 -1 0 0 0 -1 forward_v I I I I #
coedge $-1 $271 $272 $273 $274 forward $104 $-1 #
coedge $-1 $275 $106 $271 $276 forward $65 $-1 #
coedge $-1 $106 $275 $183 $277 forward $65 $-1 #
edge $-1 $186 46.739509297415069 $278 51.71057076628901 $106 $279 forward 7 unknown #
coedge $-1 $108 $107 $280 $281 forward $42 $-1 #
coedge $-1 $282 $283 $107 $182 forward $284 $-1 #
edge $-1 $285 -51.71057076628901 $187 -46.739509297415069 $181 $286 forward 7 unknown #
coedge $-1 $287 $109 $178 $277 reversed $185 $-1 #
coedge $-1 $109 $287 $282 $288 reversed $185 $-1 #
loop $-1 $-1 $109 $173 #
vertex $-1 $179 $289 #
vertex $-1 $288 $290 #
straight-curve $-1 -46.739509297415069 25.670252453530715 0 0 0 1 I I #
face $-1 $-1 $201 $24 $-1 $291 forward single #
loop $-1 $-1 $292 $111 #
plane-surface $-1 -61.217688528092289 0 0 1 0 0 0 0 -1 forward_v I I I I #
coedge $-1 $293 $294 $295 $296 reversed $112 $-1 #
coedge $-1 $297 $114 $116 $199 forward $69 $-1 #
coedge $-1 $114 $297 $293 $298 forward $69 $-1 #
coedge $-1 $295 $117 $114 $196 forward $201 $-1 #
edge $-1 $203 -2.5149909030331212 $299 4.93625114238686 $195 $300 forward 7 unknown #
coedge $-1 $301 $302 $115 $198 forward $190 $-1 #
edge $-1 $303 -47.572323001570602 $202 -43.525874679522175 $197 $304 forward 7 unknown #
edge $-1 $203 -7.6359712539887017 $303 -2.4666512388233064e-014 $116 $305 forward 7 unknown #
coedge $-1 $117 $295 $301 $306 forward $201 $-1 #
loop $-1 $-1 $295 $189 #
vertex $-1 $198 $307 #
vertex $-1 $118 $308 #
straight-curve $-1 -63.049277155250095 -1.3043607833562518 12.732890198285915 1 0 0 I I #
coedge $-1 $205 $205 $-1 $309 reversed $121 $-1 #
edge $-1 $310 0 $310 6.2831853071796004 $122 $311 forward 7 unknown #
vertex $-1 $125 $312 #
ellipse-curve $-1 -57.979853102660158 0.18588762572774442 10.709666037261711 -0.52991927123019833 0 0.84804809178421925 0.42402404589210962 0 0.26495963561509916 1 I I #
coedge $-1 $209 $209 $-1 $313 reversed $128 $-1 #
edge $-1 $314 0 $314 6.2831853071796004 $129 $315 forward 7 unknown #
vertex $-1 $132 $316 #
ellipse-curve $-1 -57.979853102660158 2.4212602393537388 10.709666037261711 -0.52991927123019833 0 0.84804809178421925 0.42402404589210962 0 0.26495963561509916 1 I I #
coedge $-1 $213 $213 $-1 $317 reversed $135 $-1 #
edge $-1 $318 0 $318 6.2831853071796004 $136 $319 forward 7 unknown #
vertex $-1 $139 $320 #
ellipse-curve $-1 -57.979853102660158 4.6566328529797332 10.709666037261711 -0.52991927123019833 0 0.84804809178421925 0.42402404589210962 0 0.26495963561509916 1 I I #
face $-1 $-1 $238 $21 $-1 $321 reversed single #
loop $-1 $-1 $149 $140 #
plane-surface $-1 -61.217688528092289 0 0 1 0 0 0 0 -1 forward_v I I I I #
coedge $-1 $322 $143 $148 $232 forward $88 $-1 #
coedge $-1 $143 $322 $224 $323 forward $88 $-1 #
coedge $-1 $225 $151 $143 $223 reversed $238 $-1 #
edge $-1 $324 -25.670252453530715 $239 25.670252453530715 $222 $325 forward 7 unknown #
coedge $-1 $145 $144 $221 $323 reversed $57 $-1 #
coedge $-1 $237 $222 $144 $226 forward $238 $-1 #
edge $-1 $324 -12.732890198285919 $229 12.732890198285919 $225 $326 forward 7 unknown #
coedge $-1 $234 $233 $145 $228 reversed $218 $-1 #
edge $-1 $327 -12.732890198285919 $230 12.732890198285919 $227 $328 forward 7 unknown #
vertex $-1 $226 $329 #
vertex $-1 $242 $330 #
straight-curve $-1 0 -25.670252453530715 -12.732890198285919 -1 0 0 I I #
edge $-1 $239 -61.217688528092289 $235 61.217688528092289 $148 $331 forward 7 unknown #
coedge $-1 $227 $149 $154 $242 reversed $218 $-1 #
coedge $-1 $149 $227 $322 $332 reversed $218 $-1 #
vertex $-1 $232 $333 #
straight-curve $-1 -61.217688528092289 25.670252453530715 0 0 0 -1 I I #
coedge $-1 $151 $225 $153 $241 reversed $238 $-1 #
loop $-1 $-1 $225 $217 #
vertex $-1 $223 $334 #
straight-curve $-1 61.217688528092289 25.670252453530715 0 0 0 -1 I I #
edge $-1 $156 -25.670252453530715 $229 25.670252453530715 $237 $335 forward 7 unknown #
edge $-1 $230 -25.670252453530715 $155 25.670252453530715 $233 $336 forward 7 unknown #
point $-1 -61.217688528092289 25.670252453530715 -12.732890198285919 #
point $-1 61.217688528092289 25.670252453530715 -12.732890198285919 #
face $-1 $-1 $262 $22 $-1 $337 forward single #
loop $-1 $-1 $338 $158 #
plane-surface $-1 -46.739509297415069 -30.197308439160434 0 -1 0 0 0 0 1 forward_v I I I I #
coedge $-1 $339 $161 $252 $340 reversed $96 $-1 #
coedge $-1 $161 $339 $341 $342 reversed $96 $-1 #
coedge $-1 $169 $168 $161 $251 reversed $159 $-1 #
edge $-1 $343 -12.732890198285919 $344 12.732890198285919 $250 $345 forward 7 unknown #
coedge $-1 $163 $162 $248 $340 forward $61 $-1 #
coedge $-1 $258 $338 $162 $254 reversed $246 $-1 #
edge $-1 $256 -4.527055985629719 $346 4.527055985629719 $253 $347 forward 7 unknown #
edge $-1 $344 -4.527055985629719 $170 4.527055985629719 $168 $348 forward 7 unknown #
vertex $-1 $254 $349 #
straight-curve $-1 0 -25.670252453530715 -12.732890198285919 1 0 0 I I #
coedge $-1 $350 $253 $165 $259 reversed $246 $-1 #
edge $-1 $263 -12.732890198285919 $256 12.732890198285919 $258 $351 forward 7 unknown #
coedge $-1 $341 $166 $169 $265 forward $262 $-1 #
coedge $-1 $166 $341 $350 $352 forward $262 $-1 #
loop $-1 $-1 $166 $245 #
vertex $-1 $167 $353 #
straight-curve $-1 0 -25.670252453530715 12.732890198285919 -1 0 0 I I #
edge $-1 $171 -4.527055985629719 $343 4.527055985629719 $169 $354 forward 7 unknown #
point $-1 -51.71057076628901 -25.670252453530715 -12.732890198285919 #
point $-1 -51.71057076628901 -25.670252453530715 12.732890198285919 #
face $-1 $-1 $284 $23 $-1 $355 forward single #
plane-surface $-1 -46.739509297415069 30.19730843916043 0 -1 0 0 0 0 1 forward_v I I I I #
coedge $-1 $356 $357 $287 $358 forward $174 $-1 #
coedge $-1 $280 $176 $177 $276 reversed $104 $-1 #
coedge $-1 $176 $280 $283 $359 reversed $104 $-1 #
coedge $-1 $357 $356 $176 $274 reversed $174 $-1 #
edge $-1 $360 -12.732890198285919 $361 12.732890198285919 $273 $362 forward 7 unknown #
coedge $-1 $178 $177 $356 $363 forward $65 $-1 #
edge $-1 $278 -4.527055985629719 $361 4.5270559856297226 $271 $364 forward 7 unknown #
edge $-1 $365 -4.5270559856297226 $186 4.527055985629719 $183 $366 forward 7 unknown #
vertex $-1 $276 $367 #
straight-curve $-1 0 25.670252453530715 -12.732890198285919 -1 0 0 I I #
coedge $-1 $272 $271 $180 $281 reversed $104 $-1 #
edge $-1 $285 -12.732890198285919 $278 12.732890198285919 $280 $368 forward 7 unknown #
coedge $-1 $369 $181 $184 $288 forward $284 $-1 #
coedge $-1 $181 $369 $272 $359 forward $284 $-1 #
loop $-1 $-1 $181 $268 #
vertex $-1 $182 $370 #
straight-curve $-1 0 25.670252453530715 12.732890198285919 1 0 0 I I #
coedge $-1 $184 $183 $270 $358 reversed $185 $-1 #
edge $-1 $187 -4.527055985629719 $371 4.5270559856297226 $184 $372 forward 7 unknown #
point $-1 -46.739509297415069 25.670252453530711 -12.732890198285919 #
point $-1 -46.739509297415069 25.670252453530711 12.732890198285919 #
plane-surface $-1 0 0 12.732890198285919 0 0 1 1 0 0 forward_v I I I I #
coedge $-1 $302 $301 $294 $373 forward $190 $-1 #
coedge $-1 $294 $192 $194 $298 reversed $112 $-1 #
coedge $-1 $192 $293 $292 $373 reversed $112 $-1 #
coedge $-1 $200 $195 $192 $296 forward $201 $-1 #
edge $-1 $299 -8.3072594780220541 $374 -1.8315886271578066 $295 $375 forward 7 unknown #
coedge $-1 $194 $193 $302 $376 reversed $69 $-1 #
edge $-1 $377 2.4666512388233064e-014 $299 7.6359712539887017 $293 $378 forward 7 unknown #
vertex $-1 $196 $379 #
straight-curve $-1 -54.742017677228048 1.2106301196768694 12.732890198285917 0 1 0 I I #
coedge $-1 $292 $197 $200 $306 reversed $190 $-1 #
coedge $-1 $197 $292 $297 $376 forward $190 $-1 #
vertex $-1 $198 $380 #
straight-curve $-1 -61.217688528092289 -1.3043607833562518 56.258764877808098 0 0 1 I I #
straight-curve $-1 -61.21768852809231 -1.3043607833562518 8.6864418762374811 -0.84804809178421925 0 -0.52991927123019833 I I #
edge $-1 $374 -6.1468812620637294 $202 1.3043607833562518 $301 $381 forward 7 unknown #
point $-1 -61.217688528092289 -1.3043607833562518 12.732890198285919 #
point $-1 -54.742017677228041 -1.3043607833562518 12.732890198285919 #
edge $-1 $382 1 $382 0 $205 $-1 forward 7 unknown #
vertex $-1 $206 $383 #
ellipse-curve $-1 -57.44140291875641 0.18588762572774442 9.8479656316124249 -0.52991927123019833 0 0.84804809178421925 0.42402404589210962 0 0.26495963561509916 1 I I #
point $-1 -57.55582905676804 0.18588762572774442 10.974625672876794 #
edge $-1 $384 1 $384 0 $209 $-1 forward 7 unknown #
vertex $-1 $210 $385 #
ellipse-curve $-1 -57.44140291875641 2.4212602393537388 9.8479656316124249 -0.52991927123019833 0 0.84804809178421925 0.42402404589210962 0 0.26495963561509916 1 I I #
point $-1 -57.55582905676804 2.4212602393537388 10.974625672876794 #
edge $-1 $386 1 $386 0 $213 $-1 forward 7 unknown #
vertex $-1 $214 $387 #
ellipse-curve $-1 -57.44140291875641 4.6566328529797332 9.8479656316124249 -0.52991927123019833 0 0.84804809178421925 0.42402404589210962 0 0.26495963561509916 1 I I #
point $-1 -57.55582905676804 4.6566328529797332 10.974625672876794 #
plane-surface $-1 61.217688528092289 0 0 -1 0 0 0 0 1 forward_v I I I I #
coedge $-1 $221 $220 $234 $332 forward $88 $-1 #
edge $-1 $327 -61.217688528092289 $324 61.217688528092289 $224 $388 forward 7 unknown #
vertex $-1 $223 $389 #
straight-curve $-1 61.217688528092289 0 12.732890198285919 0 1 0 I I #
straight-curve $-1 61.217688528092289 -25.670252453530715 0 0 0 -1 I I #
vertex $-1 $332 $390 #
straight-curve $-1 -61.217688528092289 -25.670252453530715 0 0 0 -1 I I #
point $-1 61.217688528092289 -25.670252453530715 -12.732890198285919 #
point $-1 -61.217688528092289 -25.670252453530715 -12.732890198285919 #
straight-curve $-1 0 25.670252453530715 12.732890198285919 -1 0 0 I I #
edge $-1 $235 -25.670252453530715 $327 25.670252453530715 $234 $391 forward 7 unknown #
point $-1 -61.217688528092289 25.670252453530715 12.732890198285919 #
point $-1 61.217688528092289 25.670252453530715 12.732890198285919 #
straight-curve $-1 61.217688528092289 0 -12.732890198285919 0 -1 0 I I #
straight-curve $-1 -61.217688528092289 0 -12.732890198285919 0 1 0 I I #
plane-surface $-1 0 0 12.732890198285919 0 0 1 1 0 0 forward_v I I I I #
coedge $-1 $253 $350 $339 $392 forward $246 $-1 #
coedge $-1 $249 $248 $338 $392 reversed $96 $-1 #
edge $-1 $346 -2.4855307344369706 $344 2.4855307344369706 $248 $393 forward 7 unknown #
coedge $-1 $261 $260 $249 $342 forward $262 $-1 #
edge $-1 $343 -2.4855307344369706 $394 2.4855307344369706 $249 $395 forward 7 unknown #
vertex $-1 $265 $396 #
vertex $-1 $255 $397 #
straight-curve $-1 -51.71057076628901 -34.724364424790153 0 0 0 -1 I I #
vertex $-1 $392 $398 #
straight-curve $-1 -46.739509297415069 -30.197308439160434 -12.732890198285919 0 -1 0 I I #
straight-curve $-1 -51.71057076628901 -30.197308439160434 -12.732890198285919 0 1 0 I I #
point $-1 -46.739509297415069 -25.670252453530715 -12.732890198285919 #
coedge $-1 $338 $258 $261 $352 reversed $246 $-1 #
straight-curve $-1 -46.739509297415069 -25.670252453530715 0 0 0 -1 I I #
edge $-1 $394 -4.527055985629719 $263 4.527055985629719 $350 $399 forward 7 unknown #
point $-1 -46.739509297415069 -25.670252453530715 12.732890198285919 #
straight-curve $-1 -51.71057076628901 -30.197308439160434 12.732890198285919 0 -1 0 I I #
plane-surface $-1 0 0 12.732890198285919 0 0 1 1 0 0 forward_v I I I I #
coedge $-1 $273 $270 $275 $363 reversed $174 $-1 #
coedge $-1 $270 $273 $369 $400 reversed $174 $-1 #
edge $-1 $371 -12.732890198285919 $365 12.732890198285919 $287 $401 forward 7 unknown #
edge $-1 $360 -4.5270559856297226 $285 4.527055985629719 $272 $402 forward 7 unknown #
vertex $-1 $400 $403 #
vertex $-1 $363 $404 #
straight-curve $-1 -51.71057076628901 34.724364424790153 0 0 0 -1 I I #
edge $-1 $361 -2.4855307344369706 $365 2.4855307344369706 $356 $405 forward 7 unknown #
straight-curve $-1 -51.71057076628901 30.19730843916043 -12.732890198285919 0 1 0 I I #
vertex $-1 $277 $406 #
straight-curve $-1 -46.739509297415069 30.19730843916043 -12.732890198285919 0 -1 0 I I #
point $-1 -51.71057076628901 25.670252453530711 -12.732890198285919 #
straight-curve $-1 -51.71057076628901 25.670252453530715 0 0 0 -1 I I #
coedge $-1 $283 $282 $357 $400 forward $284 $-1 #
point $-1 -51.71057076628901 25.670252453530711 12.732890198285919 #
vertex $-1 $288 $407 #
straight-curve $-1 -46.739509297415069 30.19730843916043 12.732890198285919 0 1 0 I I #
edge $-1 $374 43.525874679522175 $377 47.572323001570602 $292 $408 forward 7 unknown #
vertex $-1 $306 $409 #
straight-curve $-1 -63.049277155250095 6.1468812620637294 12.732890198285915 -1 0 0 I I #
edge $-1 $377 -4.93625114238686 $303 2.5149909030331212 $302 $410 forward 7 unknown #
vertex $-1 $376 $411 #
straight-curve $-1 -61.21768852809231 6.1468812620637294 8.6864418762374811 0.84804809178421925 0 0.52991927123019833 I I #
point $-1 -54.742017677228041 6.1468812620637294 12.732890198285919 #
point $-1 -61.217688528092289 -1.3043607833562518 8.6864418762374935 #
straight-curve $-1 -61.217688528092289 0 12.732890198285919 0 -1 0 I I #
vertex $-1 $309 $412 #
point $-1 -57.017378872864299 0.18588762572774442 10.112925267227524 #
vertex $-1 $313 $413 #
point $-1 -57.017378872864299 2.4212602393537388 10.112925267227524 #
vertex $-1 $317 $414 #
point $-1 -57.017378872864299 4.6566328529797332 10.112925267227524 #
straight-curve $-1 0 -25.670252453530715 12.732890198285919 1 0 0 I I #
point $-1 61.217688528092289 -25.670252453530715 12.732890198285919 #
point $-1 -61.217688528092289 -25.670252453530715 12.732890198285919 #
straight-curve $-1 -61.217688528092289 0 12.732890198285919 0 -1 0 I I #
edge $-1 $394 -12.732890198285919 $346 12.732890198285919 $338 $415 forward 7 unknown #
straight-curve $-1 -49.225040031852039 -34.724364424790153 -12.732890198285919 -1 0 0 I I #
vertex $-1 $352 $416 #
straight-curve $-1 -49.225040031852039 -34.724364424790153 12.732890198285919 1 0 0 I I #
point $-1 -51.71057076628901 -34.724364424790153 12.732890198285919 #
point $-1 -51.71057076628901 -34.724364424790153 -12.732890198285919 #
point $-1 -46.739509297415069 -34.724364424790153 -12.732890198285919 #
straight-curve $-1 -46.739509297415069 -30.197308439160434 12.732890198285919 0 1 0 I I #
edge $-1 $371 -2.4855307344369706 $360 2.4855307344369706 $357 $417 forward 7 unknown #
straight-curve $-1 -46.739509297415069 34.724364424790153 0 0 0 -1 I I #
straight-curve $-1 -51.71057076628901 30.19730843916043 12.732890198285919 0 -1 0 I I #
point $-1 -51.71057076628901 34.724364424790153 12.732890198285919 #
point $-1 -51.71057076628901 34.724364424790153 -12.732890198285919 #
straight-curve $-1 -49.225040031852039 34.724364424790153 -12.732890198285919 1 0 0 I I #
point $-1 -46.739509297415069 34.724364424790153 -12.732890198285919 #
point $-1 -46.739509297415069 34.724364424790153 12.732890198285919 #
straight-curve $-1 -61.217688528092289 6.1468812620637294 56.258764877808098 0 0 -1 I I #
point $-1 -61.217688528092289 6.1468812620637294 12.732890198285919 #
straight-curve $-1 -61.217688528092289 1.2106301196768694 8.6864418762374918 0 -1 0 I I #
point $-1 -61.217688528092289 6.1468812620637294 8.6864418762374935 #
point $-1 -57.17644328314131 0.18588762572774442 9.4239415857203142 #
point $-1 -57.17644328314131 2.4212602393537388 9.4239415857203142 #
point $-1 -57.17644328314131 4.6566328529797332 9.4239415857203142 #
straight-curve $-1 -46.739509297415069 -34.724364424790153 0 0 0 -1 I I #
point $-1 -46.739509297415069 -34.724364424790153 12.732890198285919 #
straight-curve $-1 -49.225040031852039 34.724364424790153 12.732890198285919 -1 0 0 I I #
End-of-ACIS-data 