500 0 3 0           
7 Unknown 11 ACIS 5.0 NT 24 Thu Mar 25 22:56:39 1999 
-1 9.9999999999999995e-007 1e-010 
body $-1 $3 $-1 $4 #
body $-1 $5 $-1 $6 #
body $-1 $7 $-1 $8 #
lump $-1 $-1 $9 $0 #
transform $-1 1 0 0 0 1 0 0 0 1 53.241370891445662 34.245281316815962 12.597083934933861 1 rotate no_reflect no_shear #
lump $-1 $-1 $10 $1 #
transform $-1 1 0 0 0 1 0 0 0 1 53.241370891445662 34.245281316815962 12.597083934933861 1 rotate no_reflect no_shear #
lump $-1 $-1 $11 $2 #
transform $-1 1 0 0 0 1 0 0 0 1 53.241370891445662 34.245281316815962 12.597083934933861 1 rotate no_reflect no_shear #
shell $-1 $-1 $-1 $12 $-1 $3 #
shell $-1 $-1 $-1 $13 $-1 $5 #
shell $-1 $-1 $-1 $14 $-1 $7 #
face $-1 $15 $16 $9 $-1 $17 forward single #
face $-1 $18 $19 $10 $-1 $20 reversed single #
face $-1 $21 $22 $11 $-1 $23 forward single #
face $-1 $24 $25 $9 $-1 $26 reversed single #
loop $-1 $-1 $27 $12 #
plane-surface $-1 0 0 12.597083934933861 0 0 1 1 0 0 forward_v I I I I #
face $-1 $28 $29 $10 $-1 $30 reversed single #
loop $-1 $-1 $31 $13 #
plane-surface $-1 -133.60491712597184 22.513448042674725 70.363317499278011 0 1 0 -0.75470958851134928 0 0.65605901945558964 forward_v I I I I #
face $-1 $32 $33 $11 $-1 $34 forward single #
loop $-1 $35 $36 $14 #
cone-surface $-1 -44.935684546801589 28.379364679745343 3.899688692012552 0.75470958851134928 0 -0.65605901945558964 1.6401475486389741 0 1.8867739712783731 1 I I 0 1 2.5 forward I I I I #
face $-1 $37 $38 $9 $-1 $39 reversed single #
loop $-1 $-1 $40 $15 #
plane-surface $-1 0 0 -12.597083934933861 0 0 1 1 0 0 forward_v I I I I #
coedge $-1 $41 $42 $43 $44 forward $16 $-1 #
face $-1 $45 $46 $10 $-1 $47 forward single #
loop $-1 $-1 $48 $18 #
plane-surface $-1 -53.241370891445669 28.379364679745343 0.50435433625158055 -0.75470958851134928 0 0.65605901945558964 0.65605901945558964 0 0.75470958851134928 forward_v I I I I #
coedge $-1 $49 $50 $51 $52 reversed $19 $-1 #
face $-1 $-1 $53 $11 $-1 $54 forward single #
loop $-1 $55 $56 $21 #
cone-surface $-1 -40.942635814471195 28.379364679745343 0.42858447411288836 0.75470958851134928 0 -0.65605901945558964 0.82007377431948703 0 0.94338698563918655 1 I I -0.70710678118654746 0.70710678118654746 1.25 forward I I I I #
loop $-1 $-1 $57 $14 #
coedge $-1 $36 $36 $58 $59 reversed $22 $-1 #
face $-1 $60 $61 $9 $-1 $62 reversed single #
loop $-1 $-1 $63 $24 #
plane-surface $-1 0 -34.245281316815962 0 0 1 0 0 0 1 forward_v I I I I #
coedge $-1 $64 $65 $66 $67 forward $25 $-1 #
coedge $-1 $68 $27 $69 $70 forward $16 $-1 #
coedge $-1 $27 $68 $71 $72 forward $16 $-1 #
coedge $-1 $73 $74 $27 $44 reversed $75 $-1 #
edge $-1 $76 -34.245281316815962 $77 34.245281316815962 $43 $78 forward 7 unknown #
face $-1 $79 $80 $10 $-1 $81 reversed single #
loop $-1 $-1 $51 $28 #
plane-surface $-1 0 0 12.597083934933861 0 0 1 1 0 0 forward_v I I I I #
coedge $-1 $82 $83 $84 $85 reversed $29 $-1 #
coedge $-1 $50 $31 $86 $87 reversed $19 $-1 #
coedge $-1 $31 $49 $82 $88 reversed $19 $-1 #
coedge $-1 $84 $89 $31 $52 forward $46 $-1 #
edge $-1 $90 13.561087671540257 $91 24.073136867445996 $51 $92 forward 7 unknown #
loop $-1 $-1 $58 $32 #
plane-surface $-1 -53.241370891445669 28.379364679745343 0.50435433625158055 -0.75470958851134928 0 0.65605901945558964 0.65605901945558964 0 0.75470958851134928 forward_v I I I I #
loop $-1 $-1 $93 $21 #
coedge $-1 $56 $56 $57 $94 reversed $33 $-1 #
coedge $-1 $57 $57 $56 $94 forward $35 $-1 #
coedge $-1 $58 $58 $36 $59 forward $53 $-1 #
edge $-1 $95 0 $95 6.2831853071796004 $58 $96 forward 7 unknown #
face $-1 $97 $98 $9 $-1 $99 reversed single #
loop $-1 $-1 $100 $37 #
plane-surface $-1 -53.241370891445662 0 0 1 0 0 0 0 -1 forward_v I I I I #
coedge $-1 $101 $71 $102 $103 forward $38 $-1 #
coedge $-1 $104 $40 $101 $105 forward $25 $-1 #
coedge $-1 $40 $104 $106 $107 forward $25 $-1 #
coedge $-1 $74 $73 $40 $67 reversed $75 $-1 #
edge $-1 $108 -34.245281316815962 $109 34.245281316815962 $66 $110 forward 7 unknown #
coedge $-1 $42 $41 $111 $112 forward $16 $-1 #
coedge $-1 $113 $114 $41 $70 reversed $98 $-1 #
edge $-1 $77 -53.241370891445662 $115 53.241370891445662 $69 $116 forward 7 unknown #
coedge $-1 $63 $117 $42 $72 reversed $38 $-1 #
edge $-1 $118 -53.241370891445662 $76 53.241370891445662 $71 $119 forward 7 unknown #
coedge $-1 $66 $43 $117 $120 forward $75 $-1 #
coedge $-1 $43 $66 $113 $121 reversed $75 $-1 #
loop $-1 $-1 $73 $97 #
vertex $-1 $44 $122 #
vertex $-1 $44 $123 #
straight-curve $-1 53.241370891445662 0 12.597083934933861 0 1 0 I I #
face $-1 $-1 $124 $10 $-1 $125 reversed single #
loop $-1 $-1 $126 $45 #
plane-surface $-1 0 34.245281316815962 0 0 -1 0 0 0 -1 forward_v I I I I #
coedge $-1 $127 $48 $50 $88 forward $29 $-1 #
coedge $-1 $48 $127 $126 $128 reversed $29 $-1 #
coedge $-1 $129 $51 $48 $85 forward $46 $-1 #
edge $-1 $91 8.3237657028020529 $130 20.055598976943291 $84 $131 forward 7 unknown #
coedge $-1 $132 $133 $49 $87 forward $124 $-1 #
edge $-1 $134 -34.677304413387418 $90 -22.584574814705142 $86 $135 forward 7 unknown #
edge $-1 $91 -16.023023667335369 $134 -1.086200982436365e-014 $50 $136 forward 7 unknown #
coedge $-1 $51 $129 $132 $137 forward $46 $-1 #
vertex $-1 $87 $138 #
vertex $-1 $52 $139 #
straight-curve $-1 -66.802458562985919 22.513448042674725 12.597083934933863 1 0 0 I I #
coedge $-1 $93 $93 $-1 $140 reversed $55 $-1 #
edge $-1 $141 0 $141 6.2831853071796004 $56 $142 forward 7 unknown #
vertex $-1 $59 $143 #
ellipse-curve $-1 -47.985346293492796 28.379364679745343 6.5507191355927255 -0.75470958851134928 0 0.65605901945558964 1.6401475486389741 0 1.8867739712783731 1 I I #
face $-1 $-1 $75 $9 $-1 $144 reversed single #
loop $-1 $-1 $113 $60 #
plane-surface $-1 0 34.245281316815962 0 0 -1 0 0 0 -1 forward_v I I I I #
coedge $-1 $145 $111 $114 $146 forward $61 $-1 #
coedge $-1 $117 $63 $64 $105 reversed $38 $-1 #
coedge $-1 $111 $145 $63 $103 reversed $61 $-1 #
edge $-1 $118 -12.597083934933861 $147 12.597083934933861 $102 $148 forward 7 unknown #
coedge $-1 $65 $64 $145 $149 forward $25 $-1 #
edge $-1 $109 -53.241370891445662 $147 53.241370891445662 $101 $150 forward 7 unknown #
coedge $-1 $114 $113 $65 $107 reversed $98 $-1 #
edge $-1 $151 -53.241370891445662 $108 53.241370891445662 $106 $152 forward 7 unknown #
vertex $-1 $67 $153 #
vertex $-1 $120 $154 #
straight-curve $-1 53.241370891445662 0 -12.597083934933861 0 -1 0 I I #
coedge $-1 $100 $102 $68 $112 reversed $61 $-1 #
edge $-1 $115 -34.245281316815962 $118 34.245281316815962 $111 $155 forward 7 unknown #
coedge $-1 $106 $69 $74 $121 forward $98 $-1 #
coedge $-1 $69 $106 $100 $146 reversed $98 $-1 #
vertex $-1 $70 $156 #
straight-curve $-1 0 34.245281316815962 12.597083934933861 -1 0 0 I I #
coedge $-1 $71 $101 $73 $120 reversed $38 $-1 #
vertex $-1 $112 $157 #
straight-curve $-1 0 -34.245281316815962 12.597083934933861 1 0 0 I I #
edge $-1 $76 -12.597083934933861 $109 12.597083934933861 $73 $158 forward 7 unknown #
edge $-1 $77 -12.597083934933861 $108 12.597083934933861 $74 $159 forward 7 unknown #
point $-1 53.241370891445662 -34.245281316815962 12.597083934933861 #
point $-1 53.241370891445662 34.245281316815962 12.597083934933861 #
loop $-1 $-1 $86 $79 #
plane-surface $-1 -53.241370891445662 0 0 1 0 0 0 0 -1 forward_v I I I I #
coedge $-1 $160 $161 $83 $128 forward $80 $-1 #
coedge $-1 $83 $82 $133 $162 reversed $29 $-1 #
edge $-1 $130 1.2513965966330778 $163 17.27442026396843 $126 $164 forward 7 unknown #
coedge $-1 $89 $84 $161 $165 forward $46 $-1 #
vertex $-1 $165 $166 #
straight-curve $-1 -42.729321695539923 14.189682339872672 12.597083934933861 0 1 0 I I #
coedge $-1 $167 $86 $89 $137 reversed $124 $-1 #
coedge $-1 $86 $167 $127 $162 forward $124 $-1 #
vertex $-1 $87 $168 #
straight-curve $-1 -53.241370891445662 22.513448042674725 35.181658749639006 0 0 1 I I #
straight-curve $-1 -53.241370891445669 22.513448042674725 0.50435433625158055 -0.65605901945558964 0 -0.75470958851134928 I I #
edge $-1 $169 -34.245281316815962 $90 -22.513448042674725 $132 $170 forward 7 unknown #
point $-1 -53.241370891445662 22.513448042674725 12.597083934933861 #
point $-1 -42.729321695539923 22.513448042674725 12.597083934933861 #
edge $-1 $171 1 $171 0 $93 $-1 forward 7 unknown #
vertex $-1 $94 $172 #
ellipse-curve $-1 -41.886022800110382 28.379364679745343 1.2486582484323754 -0.75470958851134928 0 0.65605901945558964 1.6401475486389741 0 1.8867739712783731 1 I I #
point $-1 -46.345198744853825 28.379364679745343 8.4374931068711021 #
plane-surface $-1 53.241370891445662 0 0 -1 0 0 0 0 1 forward_v I I I I #
coedge $-1 $102 $100 $104 $149 reversed $61 $-1 #
edge $-1 $115 -12.597083934933861 $151 12.597083934933861 $114 $173 forward 7 unknown #
vertex $-1 $149 $174 #
straight-curve $-1 -53.241370891445662 -34.245281316815962 0 0 0 -1 I I #
edge $-1 $147 -34.245281316815962 $151 34.245281316815962 $145 $175 forward 7 unknown #
straight-curve $-1 0 -34.245281316815962 -12.597083934933861 -1 0 0 I I #
vertex $-1 $107 $176 #
straight-curve $-1 0 34.245281316815962 -12.597083934933861 1 0 0 I I #
point $-1 53.241370891445662 34.245281316815962 -12.597083934933861 #
point $-1 53.241370891445662 -34.245281316815962 -12.597083934933861 #
straight-curve $-1 -53.241370891445662 0 12.597083934933861 0 -1 0 I I #
point $-1 -53.241370891445662 34.245281316815962 12.597083934933861 #
point $-1 -53.241370891445662 -34.245281316815962 12.597083934933861 #
straight-curve $-1 53.241370891445662 -34.245281316815962 0 0 0 -1 I I #
straight-curve $-1 53.241370891445662 34.245281316815962 0 0 0 -1 I I #
coedge $-1 $161 $126 $167 $177 reversed $80 $-1 #
coedge $-1 $126 $160 $129 $165 reversed $80 $-1 #
edge $-1 $163 -20.055598976943291 $134 -8.3237657028020529 $133 $178 forward 7 unknown #
vertex $-1 $128 $179 #
straight-curve $-1 -41.908331671402763 34.245281316815962 13.541524945443314 -0.65605901945558975 0 -0.75470958851134939 I I #
edge $-1 $130 42.729321695539923 $169 53.241370891445662 $161 $180 forward 7 unknown #
point $-1 -42.729321695539923 34.245281316815962 12.597083934933861 #
coedge $-1 $133 $132 $160 $177 forward $124 $-1 #
point $-1 -53.241370891445662 22.513448042674725 0.50435433625158876 #
vertex $-1 $165 $181 #
straight-curve $-1 -53.241370891445662 0 12.597083934933861 0 -1 0 I I #
vertex $-1 $140 $182 #
point $-1 -40.245875251471411 28.379364679745343 3.1354322197107485 #
straight-curve $-1 -53.241370891445662 34.245281316815962 0 0 0 -1 I I #
point $-1 -53.241370891445662 -34.245281316815962 -12.597083934933861 #
straight-curve $-1 -53.241370891445662 0 -12.597083934933861 0 1 0 I I #
point $-1 -53.241370891445662 34.245281316815962 -12.597083934933861 #
edge $-1 $169 -12.597083934933861 $163 -0.50435433625158876 $160 $183 forward 7 unknown #
straight-curve $-1 -53.241370891445662 14.189682339872672 0.50435433625159509 0 -1 0 I I #
point $-1 -53.241370891445662 34.245281316815962 0.50435433625158876 #
straight-curve $-1 0 34.245281316815962 12.597083934933861 -1 0 0 I I #
point $-1 -53.241370891445662 34.245281316815962 12.597083934933861 #
point $-1 -39.999248828832009 28.379364679745343 -0.39148930020659867 #
straight-curve $-1 -53.241370891445662 34.245281316815962 0 0 0 -1 I I #
End-of-ACIS-data 