500 0 8 0           
7 Unknown 11 ACIS 5.0 NT 24 Thu Mar 25 18:41:33 1999 
-1 9.9999999999999995e-007 1e-010 
body $-1 $8 $-1 $9 #
body $-1 $10 $-1 $11 #
body $-1 $12 $-1 $13 #
body $-1 $14 $-1 $15 #
body $-1 $16 $-1 $17 #
body $-1 $18 $-1 $19 #
body $-1 $20 $-1 $21 #
body $-1 $22 $-1 $23 #
lump $-1 $-1 $24 $0 #
transform $-1 1 0 0 0 1 0 0 0 1 46.049989318521682 26.146477592558625 12.265791648969213 1 rotate no_reflect no_shear #
lump $-1 $-1 $25 $1 #
transform $-1 1 0 0 0 1 0 0 0 1 46.049989318521682 26.146477592558625 12.265791648969213 1 rotate no_reflect no_shear #
lump $-1 $-1 $26 $2 #
transform $-1 1 0 0 0 1 0 0 0 1 46.049989318521682 26.146477592558625 12.265791648969213 1 rotate no_reflect no_shear #
lump $-1 $-1 $27 $3 #
transform $-1 1 0 0 0 1 0 0 0 1 46.049989318521682 26.146477592558625 12.265791648969213 1 rotate no_reflect no_shear #
lump $-1 $-1 $28 $4 #
transform $-1 1 0 0 0 1 0 0 0 1 46.049989318521682 26.146477592558625 12.265791648969213 1 rotate no_reflect no_shear #
lump $-1 $-1 $29 $5 #
transform $-1 1 0 0 0 1 0 0 0 1 46.049989318521682 26.146477592558625 12.265791648969213 1 rotate no_reflect no_shear #
lump $-1 $-1 $30 $6 #
transform $-1 1 0 0 0 1 0 0 0 1 46.049989318521682 26.146477592558625 12.265791648969213 1 rotate no_reflect no_shear #
lump $-1 $-1 $31 $7 #
transform $-1 1 0 0 0 1 0 0 0 1 46.049989318521682 26.146477592558625 12.265791648969213 1 rotate no_reflect no_shear #
shell $-1 $-1 $-1 $32 $-1 $8 #
shell $-1 $-1 $-1 $33 $-1 $10 #
shell $-1 $-1 $-1 $34 $-1 $12 #
shell $-1 $-1 $-1 $35 $-1 $14 #
shell $-1 $-1 $-1 $36 $-1 $16 #
shell $-1 $-1 $-1 $37 $-1 $18 #
shell $-1 $-1 $-1 $38 $-1 $20 #
shell $-1 $-1 $-1 $39 $-1 $22 #
face $-1 $40 $41 $24 $-1 $42 forward single #
face $-1 $43 $44 $25 $-1 $45 forward single #
face $-1 $46 $47 $26 $-1 $48 reversed single #
face $-1 $49 $50 $27 $-1 $51 forward single #
face $-1 $52 $53 $28 $-1 $54 reversed single #
face $-1 $55 $56 $29 $-1 $57 forward single #
face $-1 $58 $59 $30 $-1 $60 forward single #
face $-1 $61 $62 $31 $-1 $63 forward single #
face $-1 $64 $65 $24 $-1 $66 reversed single #
loop $-1 $-1 $67 $32 #
plane-surface $-1 0 0 12.265791648969213 0 0 1 1 0 0 forward_v I I I I #
face $-1 $68 $69 $25 $-1 $70 reversed single #
loop $-1 $-1 $71 $33 #
plane-surface $-1 0 -26.146477592558625 0 0 1 0 0 0 1 forward_v I I I I #
face $-1 $72 $73 $26 $-1 $74 reversed single #
loop $-1 $-1 $75 $34 #
plane-surface $-1 77.560085627601907 10.745324912851764 128.14942818623985 0 -1 0 -0.85716730853699208 0 -0.51503806187062418 forward_v I I I I #
face $-1 $76 $77 $27 $-1 $78 forward single #
loop $-1 $79 $80 $35 #
cone-surface $-1 41.746535136320013 7.2770153468419068 6.3265758127774046 -0.85716730853699208 0 -0.51503806187062418 0.77255709280593621 0 -1.2857509628054882 1 I I 0 1 1.5 forward I I I I #
face $-1 $81 $82 $28 $-1 $83 reversed single #
loop $-1 $-1 $84 $36 #
plane-surface $-1 -111.17450951552179 7.9041844259943908 73.556680347835652 0 1 0 -0.70710678939079041 0 0.70710677298230451 forward_v I I I I #
face $-1 $85 $86 $29 $-1 $87 forward single #
loop $-1 $88 $89 $37 #
cone-surface $-1 -43.535606874656565 10.253394153153806 9.7514091744908153 0.70710678939079041 0 -0.70710677298230451 0.35355338649115226 0 0.35355339469539521 1 I I 0 1 0.5 forward I I I I #
face $-1 $90 $91 $30 $-1 $92 forward single #
loop $-1 $93 $94 $38 #
cone-surface $-1 -43.535606874656565 13.777208743892928 9.7514091744908153 0.70710678939079041 0 -0.70710677298230451 0.35355338649115226 0 0.35355339469539521 1 I I 0 1 0.5 forward I I I I #
face $-1 $95 $96 $31 $-1 $97 forward single #
loop $-1 $98 $99 $39 #
cone-surface $-1 -43.535606874656565 17.301023334632049 9.7514091744908153 0.70710678939079041 0 -0.70710677298230451 0.35355338649115226 0 0.35355339469539521 1 I I 0 1 0.5 forward I I I I #
face $-1 $100 $101 $24 $-1 $102 reversed single #
loop $-1 $-1 $103 $40 #
plane-surface $-1 0 0 -12.265791648969213 0 0 1 1 0 0 forward_v I I I I #
coedge $-1 $104 $105 $106 $107 forward $41 $-1 #
face $-1 $108 $109 $25 $-1 $110 reversed single #
loop $-1 $-1 $111 $43 #
plane-surface $-1 0 0 -12.265791648969213 0 0 1 1 0 0 forward_v I I I I #
coedge $-1 $112 $113 $114 $115 forward $44 $-1 #
face $-1 $116 $117 $26 $-1 $118 reversed single #
loop $-1 $-1 $119 $46 #
plane-surface $-1 -1.3850051770270255 7.2770153468419068 80.714433690691138 0.85716730853699208 0 0.51503806187062418 0.51503806187062418 0 -0.85716730853699208 forward_v I I I I #
coedge $-1 $120 $121 $122 $123 reversed $47 $-1 #
face $-1 $-1 $124 $27 $-1 $125 forward single #
loop $-1 $126 $127 $49 #
cone-surface $-1 39.953656714690155 7.2770153468419068 5.249305811636134 -0.85716730853699208 0 -0.51503806187062418 0.3862785464029681 0 -0.64287548140274409 1 I I -0.70710678118654757 0.70710678118654757 0.75 forward I I I I #
loop $-1 $-1 $128 $35 #
coedge $-1 $80 $80 $129 $130 reversed $50 $-1 #
face $-1 $131 $132 $28 $-1 $133 reversed single #
loop $-1 $-1 $134 $52 #
plane-surface $-1 -46.049989318521668 13.777208743892928 8.4321616620567283 -0.70710678939079041 0 0.70710677298230451 0.70710677298230451 0 0.70710678939079041 forward_v I I I I #
coedge $-1 $135 $136 $137 $138 reversed $53 $-1 #
face $-1 $-1 $139 $29 $-1 $140 forward single #
loop $-1 $141 $142 $55 #
cone-surface $-1 -42.761262682420096 10.253394153153806 8.9770650002230852 0.70710678939079041 0 -0.70710677298230451 0.17677669324557613 0 0.1767766973476976 1 I I -0.70710678118654746 0.70710678118654746 0.25 forward I I I I #
loop $-1 $-1 $143 $37 #
coedge $-1 $89 $89 $144 $145 reversed $56 $-1 #
face $-1 $-1 $146 $30 $-1 $147 forward single #
loop $-1 $148 $149 $58 #
cone-surface $-1 -42.761262682420096 13.777208743892928 8.9770650002230852 0.70710678939079041 0 -0.70710677298230451 0.17677669324557613 0 0.1767766973476976 1 I I -0.70710678118654746 0.70710678118654746 0.25 forward I I I I #
loop $-1 $-1 $150 $38 #
coedge $-1 $94 $94 $151 $152 reversed $59 $-1 #
face $-1 $-1 $153 $31 $-1 $154 forward single #
loop $-1 $155 $156 $61 #
cone-surface $-1 -42.761262682420096 17.301023334632049 8.9770650002230852 0.70710678939079041 0 -0.70710677298230451 0.17677669324557613 0 0.1767766973476976 1 I I -0.70710678118654746 0.70710678118654746 0.25 forward I I I I #
loop $-1 $-1 $157 $39 #
coedge $-1 $99 $99 $158 $159 reversed $62 $-1 #
face $-1 $160 $161 $24 $-1 $162 reversed single #
loop $-1 $-1 $163 $64 #
plane-surface $-1 0 -26.146477592558625 0 0 1 0 0 0 1 forward_v I I I I #
coedge $-1 $164 $165 $166 $167 forward $65 $-1 #
coedge $-1 $168 $67 $169 $170 forward $41 $-1 #
coedge $-1 $67 $168 $171 $172 forward $41 $-1 #
coedge $-1 $173 $174 $67 $107 reversed $175 $-1 #
edge $-1 $176 -26.146477592558625 $177 26.146477592558625 $106 $178 forward 7 unknown #
face $-1 $179 $180 $25 $-1 $181 reversed single #
loop $-1 $-1 $182 $68 #
plane-surface $-1 -24.259763849584882 -38.949879784159648 0 0 1 0 0 0 1 forward_v I I I I #
coedge $-1 $183 $184 $113 $185 forward $69 $-1 #
coedge $-1 $186 $71 $187 $188 reversed $44 $-1 #
coedge $-1 $71 $186 $111 $185 reversed $44 $-1 #
coedge $-1 $189 $190 $71 $115 reversed $180 $-1 #
edge $-1 $191 -12.265791648969213 $192 12.265791648969213 $114 $193 forward 7 unknown #
face $-1 $194 $195 $26 $-1 $196 forward single #
loop $-1 $-1 $197 $72 #
plane-surface $-1 77.560085627601907 3.8087057808320495 128.14942818623985 0 1 0 0.85716730853699208 0 0.51503806187062418 forward_v I I I I #
coedge $-1 $198 $199 $200 $201 reversed $73 $-1 #
coedge $-1 $121 $75 $202 $203 reversed $47 $-1 #
coedge $-1 $75 $120 $198 $204 reversed $47 $-1 #
coedge $-1 $200 $205 $75 $123 forward $195 $-1 #
edge $-1 $206 -7.2699465047207283 $207 -0.9630440207716191 $122 $208 forward 7 unknown #
loop $-1 $-1 $129 $76 #
plane-surface $-1 -1.3850051770270255 7.2770153468419068 80.714433690691138 0.85716730853699208 0 0.51503806187062418 0.51503806187062418 0 -0.85716730853699208 forward_v I I I I #
loop $-1 $-1 $209 $49 #
coedge $-1 $127 $127 $128 $210 reversed $77 $-1 #
coedge $-1 $128 $128 $127 $210 forward $79 $-1 #
coedge $-1 $129 $129 $80 $130 forward $124 $-1 #
edge $-1 $211 0 $211 6.2831853071796004 $129 $212 forward 7 unknown #
face $-1 $213 $214 $28 $-1 $215 reversed single #
loop $-1 $-1 $216 $81 #
plane-surface $-1 -111.17450951552179 19.650233061791464 73.556680347835652 0 -1 0 0.70710678939079041 0 -0.70710677298230451 forward_v I I I I #
coedge $-1 $217 $218 $219 $220 reversed $82 $-1 #
coedge $-1 $136 $84 $221 $222 reversed $53 $-1 #
coedge $-1 $84 $135 $217 $223 reversed $53 $-1 #
coedge $-1 $219 $224 $84 $138 forward $225 $-1 #
edge $-1 $226 9.5372654392392135 $227 13.370895337191932 $137 $228 forward 7 unknown #
loop $-1 $-1 $144 $85 #
plane-surface $-1 -46.049989318521668 13.777208743892928 8.4321616620567283 -0.70710678939079041 0 0.70710677298230451 0.70710677298230451 0 0.70710678939079041 forward_v I I I I #
loop $-1 $-1 $229 $55 #
coedge $-1 $142 $142 $143 $230 reversed $86 $-1 #
coedge $-1 $143 $143 $142 $230 forward $88 $-1 #
coedge $-1 $144 $144 $89 $145 forward $139 $-1 #
edge $-1 $231 0 $231 6.2831853071796004 $144 $232 forward 7 unknown #
loop $-1 $-1 $151 $90 #
plane-surface $-1 -46.049989318521668 13.777208743892928 8.4321616620567283 -0.70710678939079041 0 0.70710677298230451 0.70710677298230451 0 0.70710678939079041 forward_v I I I I #
loop $-1 $-1 $233 $58 #
coedge $-1 $149 $149 $150 $234 reversed $91 $-1 #
coedge $-1 $150 $150 $149 $234 forward $93 $-1 #
coedge $-1 $151 $151 $94 $152 forward $146 $-1 #
edge $-1 $235 0 $235 6.2831853071796004 $151 $236 forward 7 unknown #
loop $-1 $-1 $158 $95 #
plane-surface $-1 -46.049989318521668 13.777208743892928 8.4321616620567283 -0.70710678939079041 0 0.70710677298230451 0.70710677298230451 0 0.70710678939079041 forward_v I I I I #
loop $-1 $-1 $237 $61 #
coedge $-1 $156 $156 $157 $238 reversed $96 $-1 #
coedge $-1 $157 $157 $156 $238 forward $98 $-1 #
coedge $-1 $158 $158 $99 $159 forward $153 $-1 #
edge $-1 $239 0 $239 6.2831853071796004 $158 $240 forward 7 unknown #
face $-1 $241 $242 $24 $-1 $243 reversed single #
loop $-1 $-1 $244 $100 #
plane-surface $-1 -46.049989318521682 0 0 1 0 0 0 0 -1 forward_v I I I I #
coedge $-1 $245 $171 $246 $247 forward $101 $-1 #
coedge $-1 $248 $103 $245 $249 forward $65 $-1 #
coedge $-1 $103 $248 $250 $251 forward $65 $-1 #
coedge $-1 $174 $173 $103 $167 reversed $175 $-1 #
edge $-1 $252 -26.146477592558625 $253 26.146477592558625 $166 $254 forward 7 unknown #
coedge $-1 $105 $104 $255 $256 forward $41 $-1 #
coedge $-1 $257 $258 $104 $170 reversed $242 $-1 #
edge $-1 $177 -46.049989318521682 $259 46.049989318521682 $169 $260 forward 7 unknown #
coedge $-1 $163 $261 $105 $172 reversed $101 $-1 #
edge $-1 $262 -46.049989318521682 $176 46.049989318521682 $171 $263 forward 7 unknown #
coedge $-1 $166 $106 $261 $264 forward $175 $-1 #
coedge $-1 $106 $166 $257 $265 reversed $175 $-1 #
loop $-1 $-1 $173 $241 #
vertex $-1 $107 $266 #
vertex $-1 $107 $267 #
straight-curve $-1 46.049989318521682 0 12.265791648969213 0 1 0 I I #
face $-1 $268 $269 $25 $-1 $270 reversed single #
loop $-1 $-1 $114 $108 #
plane-surface $-1 -27.001121678586507 -32.548178688359137 0 1 0 0 0 0 -1 forward_v I I I I #
coedge $-1 $271 $272 $273 $274 forward $109 $-1 #
coedge $-1 $275 $111 $276 $277 forward $69 $-1 #
coedge $-1 $111 $275 $189 $278 forward $69 $-1 #
edge $-1 $191 -27.001121678586507 $279 -21.518406020583257 $111 $280 forward 7 unknown #
coedge $-1 $113 $112 $281 $282 forward $44 $-1 #
coedge $-1 $283 $284 $112 $188 forward $285 $-1 #
edge $-1 $286 21.518406020583257 $192 27.001121678586507 $187 $287 forward 7 unknown #
coedge $-1 $273 $114 $184 $278 reversed $180 $-1 #
coedge $-1 $114 $273 $283 $288 reversed $180 $-1 #
vertex $-1 $185 $289 #
vertex $-1 $288 $290 #
straight-curve $-1 -27.001121678586507 -26.146477592558625 0 0 0 1 I I #
face $-1 $-1 $291 $26 $-1 $292 reversed single #
loop $-1 $-1 $122 $116 #
plane-surface $-1 0 0 12.265791648969213 0 0 1 1 0 0 forward_v I I I I #
coedge $-1 $293 $294 $295 $296 reversed $117 $-1 #
coedge $-1 $297 $119 $121 $204 forward $73 $-1 #
coedge $-1 $119 $297 $293 $298 forward $73 $-1 #
coedge $-1 $295 $122 $119 $201 forward $195 $-1 #
edge $-1 $207 -7.1068172394308107 $299 -0.17019810741109609 $200 $300 forward 7 unknown #
coedge $-1 $301 $302 $120 $203 forward $291 $-1 #
edge $-1 $303 -62.305371207057718 $206 -51.80892244415071 $202 $304 forward 7 unknown #
edge $-1 $207 79.854471070005772 $303 92.099978637043392 $121 $305 forward 7 unknown #
coedge $-1 $122 $295 $301 $306 forward $195 $-1 #
vertex $-1 $123 $307 #
vertex $-1 $123 $308 #
straight-curve $-1 38.780042813800954 10.745324912851764 12.265791648969213 -1 0 0 I I #
coedge $-1 $209 $209 $-1 $309 reversed $126 $-1 #
edge $-1 $310 0 $310 6.2831853071796004 $127 $311 forward 7 unknown #
vertex $-1 $130 $312 #
ellipse-curve $-1 42.896538076547117 7.2770153468419068 7.0175672675157026 0.85716730853699208 0 0.51503806187062418 0.77255709280593621 0 -1.2857509628054882 1 I I #
face $-1 $-1 $225 $28 $-1 $313 forward single #
loop $-1 $-1 $314 $131 #
plane-surface $-1 -46.049989318521682 0 0 1 0 0 0 0 -1 forward_v I I I I #
coedge $-1 $315 $316 $317 $318 reversed $132 $-1 #
coedge $-1 $319 $134 $136 $223 forward $82 $-1 #
coedge $-1 $134 $319 $315 $320 forward $82 $-1 #
coedge $-1 $317 $137 $134 $220 forward $225 $-1 #
edge $-1 $227 1.015580054047927 $321 12.761628689845001 $219 $322 forward 7 unknown #
coedge $-1 $323 $324 $135 $222 forward $214 $-1 #
edge $-1 $325 -28.346178511861112 $226 -24.512548524948613 $221 $326 forward 7 unknown #
edge $-1 $227 -5.4215714577077643 $325 2.0097183471152325e-014 $136 $327 forward 7 unknown #
coedge $-1 $137 $317 $323 $328 forward $225 $-1 #
loop $-1 $-1 $317 $213 #
vertex $-1 $222 $329 #
vertex $-1 $138 $330 #
straight-curve $-1 -55.587254757760896 7.9041844259943908 12.265791648969213 1 0 0 I I #
coedge $-1 $229 $229 $-1 $331 reversed $141 $-1 #
edge $-1 $332 0 $332 6.2831853071796004 $142 $333 forward 7 unknown #
vertex $-1 $145 $334 #
ellipse-curve $-1 -44.133174369545323 10.253394153153806 10.34897665551296 -0.70710678939079041 0 0.70710677298230451 0.35355338649115226 0 0.35355339469539521 1 I I #
coedge $-1 $233 $233 $-1 $335 reversed $148 $-1 #
edge $-1 $336 0 $336 6.2831853071796004 $149 $337 forward 7 unknown #
vertex $-1 $152 $338 #
ellipse-curve $-1 -44.133174369545323 13.777208743892928 10.34897665551296 -0.70710678939079041 0 0.70710677298230451 0.35355338649115226 0 0.35355339469539521 1 I I #
coedge $-1 $237 $237 $-1 $339 reversed $155 $-1 #
edge $-1 $340 0 $340 6.2831853071796004 $156 $341 forward 7 unknown #
vertex $-1 $159 $342 #
ellipse-curve $-1 -44.133174369545323 17.301023334632049 10.34897665551296 -0.70710678939079041 0 0.70710677298230451 0.35355338649115226 0 0.35355339469539521 1 I I #
face $-1 $-1 $175 $24 $-1 $343 reversed single #
loop $-1 $-1 $257 $160 #
plane-surface $-1 0 26.146477592558625 0 0 -1 0 0 0 -1 forward_v I I I I #
coedge $-1 $344 $255 $258 $345 forward $161 $-1 #
coedge $-1 $261 $163 $164 $249 reversed $101 $-1 #
coedge $-1 $255 $344 $163 $247 reversed $161 $-1 #
edge $-1 $262 -12.265791648969213 $346 12.265791648969213 $246 $347 forward 7 unknown #
coedge $-1 $165 $164 $344 $348 forward $65 $-1 #
edge $-1 $253 -46.049989318521682 $346 46.049989318521682 $245 $349 forward 7 unknown #
coedge $-1 $258 $257 $165 $251 reversed $242 $-1 #
edge $-1 $350 -46.049989318521682 $252 46.049989318521682 $250 $351 forward 7 unknown #
vertex $-1 $167 $352 #
vertex $-1 $264 $353 #
straight-curve $-1 46.049989318521682 0 -12.265791648969213 0 -1 0 I I #
coedge $-1 $244 $246 $168 $256 reversed $161 $-1 #
edge $-1 $259 -26.146477592558625 $262 26.146477592558625 $255 $354 forward 7 unknown #
coedge $-1 $250 $169 $174 $265 forward $242 $-1 #
coedge $-1 $169 $250 $244 $345 reversed $242 $-1 #
vertex $-1 $170 $355 #
straight-curve $-1 0 26.146477592558625 12.265791648969213 -1 0 0 I I #
coedge $-1 $171 $245 $173 $264 reversed $101 $-1 #
vertex $-1 $256 $356 #
straight-curve $-1 0 -26.146477592558625 12.265791648969213 1 0 0 I I #
edge $-1 $176 -12.265791648969213 $253 12.265791648969213 $173 $357 forward 7 unknown #
edge $-1 $177 -12.265791648969213 $252 12.265791648969213 $174 $358 forward 7 unknown #
point $-1 46.049989318521682 -26.146477592558625 12.265791648969213 #
point $-1 46.049989318521682 26.146477592558625 12.265791648969213 #
face $-1 $-1 $285 $25 $-1 $359 forward single #
loop $-1 $-1 $360 $179 #
plane-surface $-1 -21.518406020583257 -32.548178688359137 0 -1 0 0 0 0 1 forward_v I I I I #
coedge $-1 $361 $182 $275 $362 reversed $109 $-1 #
coedge $-1 $182 $361 $363 $364 reversed $109 $-1 #
coedge $-1 $190 $189 $182 $274 reversed $180 $-1 #
edge $-1 $365 -12.265791648969213 $366 12.265791648969213 $273 $367 forward 7 unknown #
coedge $-1 $184 $183 $271 $362 forward $69 $-1 #
coedge $-1 $281 $360 $183 $277 reversed $269 $-1 #
edge $-1 $279 -6.4017010958005116 $368 6.4017010958005116 $276 $369 forward 7 unknown #
edge $-1 $366 -6.4017010958005116 $191 6.4017010958005116 $189 $370 forward 7 unknown #
vertex $-1 $277 $371 #
straight-curve $-1 0 -26.146477592558625 -12.265791648969213 1 0 0 I I #
coedge $-1 $372 $276 $186 $282 reversed $269 $-1 #
edge $-1 $286 -12.265791648969213 $279 12.265791648969213 $281 $373 forward 7 unknown #
coedge $-1 $363 $187 $190 $288 forward $285 $-1 #
coedge $-1 $187 $363 $372 $374 forward $285 $-1 #
loop $-1 $-1 $187 $268 #
vertex $-1 $188 $375 #
straight-curve $-1 0 -26.146477592558625 12.265791648969213 -1 0 0 I I #
edge $-1 $192 -6.4017010958005116 $365 6.4017010958005116 $190 $376 forward 7 unknown #
point $-1 -27.001121678586507 -26.146477592558625 -12.265791648969213 #
point $-1 -27.001121678586507 -26.146477592558625 12.265791648969213 #
loop $-1 $-1 $202 $194 #
plane-surface $-1 46.049989318521682 0 0 -1 0 0 0 0 1 forward_v I I I I #
coedge $-1 $294 $197 $199 $298 reversed $117 $-1 #
coedge $-1 $197 $293 $377 $378 reversed $117 $-1 #
coedge $-1 $205 $200 $197 $296 forward $195 $-1 #
edge $-1 $299 0.9630440207716191 $379 7.2699465047207283 $295 $380 forward 7 unknown #
coedge $-1 $199 $198 $302 $381 reversed $73 $-1 #
edge $-1 $382 -92.099978637043392 $299 -79.854471070005772 $293 $383 forward 7 unknown #
vertex $-1 $201 $384 #
straight-curve $-1 39.743086834572551 3.6385076734209534 12.265791648969213 0 -1 0 I I #
coedge $-1 $377 $202 $205 $306 reversed $291 $-1 #
coedge $-1 $202 $377 $297 $381 forward $291 $-1 #
vertex $-1 $203 $385 #
straight-curve $-1 46.049989318521682 10.745324912851764 64.074714093119923 0 0 1 I I #
straight-curve $-1 -1.3850051770270255 10.745324912851764 80.714433690691138 0.51503806187062418 0 -0.85716730853699208 I I #
edge $-1 $379 3.8087057808320495 $206 10.745324912851764 $301 $386 forward 7 unknown #
point $-1 46.049989318521682 10.745324912851764 12.265791648969213 #
point $-1 39.743086834572573 10.745324912851764 12.265791648969213 #
edge $-1 $387 1 $387 0 $209 $-1 forward 7 unknown #
vertex $-1 $210 $388 #
ellipse-curve $-1 40.596532196092902 7.2770153468419068 5.6355843580391021 0.85716730853699208 0 0.51503806187062418 0.77255709280593621 0 -1.2857509628054882 1 I I #
point $-1 43.669095169353064 7.2770153468419068 5.73181630471022 #
plane-surface $-1 0 0 12.265791648969213 0 0 1 1 0 0 forward_v I I I I #
coedge $-1 $324 $323 $316 $389 forward $214 $-1 #
coedge $-1 $316 $216 $218 $320 reversed $132 $-1 #
coedge $-1 $216 $315 $314 $389 reversed $132 $-1 #
coedge $-1 $224 $219 $216 $318 forward $225 $-1 #
edge $-1 $321 -13.370895337191932 $390 -9.5372654392392135 $317 $391 forward 7 unknown #
coedge $-1 $218 $217 $324 $392 reversed $82 $-1 #
edge $-1 $393 -2.0097183471152325e-014 $321 5.4215714577077643 $315 $394 forward 7 unknown #
vertex $-1 $220 $395 #
straight-curve $-1 -42.216359420568963 6.8886043719464638 12.265791648969211 0 1 0 I I #
coedge $-1 $314 $221 $224 $328 reversed $214 $-1 #
coedge $-1 $221 $314 $319 $392 forward $214 $-1 #
vertex $-1 $222 $396 #
straight-curve $-1 -46.049989318521682 7.9041844259943908 36.778340173917826 0 0 1 I I #
straight-curve $-1 -46.049989318521668 7.9041844259943908 8.4321616620567283 -0.70710677298230451 0 -0.70710678939079041 I I #
edge $-1 $390 -19.650233061791464 $226 -7.9041844259943908 $323 $397 forward 7 unknown #
point $-1 -46.049989318521682 7.9041844259943908 12.265791648969213 #
point $-1 -42.216359420568963 7.9041844259943908 12.265791648969213 #
edge $-1 $398 1 $398 0 $229 $-1 forward 7 unknown #
vertex $-1 $230 $399 #
ellipse-curve $-1 -42.938039379767794 10.253394153153806 9.1538416934686619 -0.70710678939079041 0 0.70710677298230451 0.35355338649115226 0 0.35355339469539521 1 I I #
point $-1 -43.77962098305418 10.253394153153806 10.702530050208367 #
edge $-1 $400 1 $400 0 $233 $-1 forward 7 unknown #
vertex $-1 $234 $401 #
ellipse-curve $-1 -42.938039379767794 13.777208743892928 9.1538416934686619 -0.70710678939079041 0 0.70710677298230451 0.35355338649115226 0 0.35355339469539521 1 I I #
point $-1 -43.77962098305418 13.777208743892928 10.702530050208367 #
edge $-1 $402 1 $402 0 $237 $-1 forward 7 unknown #
vertex $-1 $238 $403 #
ellipse-curve $-1 -42.938039379767794 17.301023334632049 9.1538416934686619 -0.70710678939079041 0 0.70710677298230451 0.35355338649115226 0 0.35355339469539521 1 I I #
point $-1 -43.77962098305418 17.301023334632049 10.702530050208367 #
plane-surface $-1 46.049989318521682 0 0 -1 0 0 0 0 1 forward_v I I I I #
coedge $-1 $246 $244 $248 $348 reversed $161 $-1 #
edge $-1 $259 -12.265791648969213 $350 12.265791648969213 $258 $404 forward 7 unknown #
vertex $-1 $348 $405 #
straight-curve $-1 -46.049989318521682 -26.146477592558625 0 0 0 -1 I I #
edge $-1 $346 -26.146477592558625 $350 26.146477592558625 $344 $406 forward 7 unknown #
straight-curve $-1 0 -26.146477592558625 -12.265791648969213 -1 0 0 I I #
vertex $-1 $251 $407 #
straight-curve $-1 0 26.146477592558625 -12.265791648969213 1 0 0 I I #
point $-1 46.049989318521682 26.146477592558625 -12.265791648969213 #
point $-1 46.049989318521682 -26.146477592558625 -12.265791648969213 #
straight-curve $-1 -46.049989318521682 0 12.265791648969213 0 -1 0 I I #
point $-1 -46.049989318521682 26.146477592558625 12.265791648969213 #
point $-1 -46.049989318521682 -26.146477592558625 12.265791648969213 #
straight-curve $-1 46.049989318521682 -26.146477592558625 0 0 0 -1 I I #
straight-curve $-1 46.049989318521682 26.146477592558625 0 0 0 -1 I I #
plane-surface $-1 0 0 12.265791648969213 0 0 1 1 0 0 forward_v I I I I #
coedge $-1 $276 $372 $361 $408 forward $269 $-1 #
coedge $-1 $272 $271 $360 $408 reversed $109 $-1 #
edge $-1 $368 -2.7413578290016254 $366 2.7413578290016254 $271 $409 forward 7 unknown #
coedge $-1 $284 $283 $272 $364 forward $285 $-1 #
edge $-1 $365 -2.7413578290016254 $410 2.7413578290016254 $272 $411 forward 7 unknown #
vertex $-1 $288 $412 #
vertex $-1 $278 $413 #
straight-curve $-1 -27.001121678586507 -38.949879784159648 0 0 0 -1 I I #
vertex $-1 $408 $414 #
straight-curve $-1 -21.518406020583257 -32.548178688359137 -12.265791648969213 0 -1 0 I I #
straight-curve $-1 -27.001121678586507 -32.548178688359137 -12.265791648969213 0 1 0 I I #
point $-1 -21.518406020583257 -26.146477592558625 -12.265791648969213 #
coedge $-1 $360 $281 $284 $374 reversed $269 $-1 #
straight-curve $-1 -21.518406020583257 -26.146477592558625 0 0 0 -1 I I #
edge $-1 $410 -6.4017010958005116 $286 6.4017010958005116 $372 $415 forward 7 unknown #
point $-1 -21.518406020583257 -26.146477592558625 12.265791648969213 #
straight-curve $-1 -27.001121678586507 -32.548178688359137 12.265791648969213 0 -1 0 I I #
coedge $-1 $302 $301 $294 $378 forward $291 $-1 #
edge $-1 $379 51.80892244415071 $382 62.305371207057718 $377 $416 forward 7 unknown #
vertex $-1 $306 $417 #
straight-curve $-1 38.780042813800954 3.8087057808320495 12.265791648969213 1 0 0 I I #
edge $-1 $382 0.17019810741109609 $303 7.1068172394308107 $302 $418 forward 7 unknown #
vertex $-1 $381 $419 #
straight-curve $-1 -1.3850051770270255 3.8087057808320495 80.714433690691138 -0.51503806187062418 0 0.85716730853699208 I I #
point $-1 39.743086834572573 3.8087057808320495 12.265791648969213 #
point $-1 46.049989318521682 10.745324912851764 1.7693428860622049 #
straight-curve $-1 46.049989318521682 0 12.265791648969213 0 1 0 I I #
vertex $-1 $309 $420 #
point $-1 41.369089288898834 7.2770153468419068 4.3498333952336141 #
edge $-1 $390 24.512548524948613 $393 28.346178511861112 $314 $421 forward 7 unknown #
vertex $-1 $328 $422 #
straight-curve $-1 -55.587254757760896 19.650233061791464 12.265791648969213 -1 0 0 I I #
edge $-1 $393 -12.761628689845001 $325 -1.015580054047927 $324 $423 forward 7 unknown #
vertex $-1 $392 $424 #
straight-curve $-1 -46.049989318521668 19.650233061791464 8.4321616620567283 0.70710677298230451 0 0.70710678939079041 I I #
point $-1 -42.216359420568963 19.650233061791464 12.265791648969213 #
point $-1 -46.049989318521682 7.9041844259943908 8.4321616620567141 #
straight-curve $-1 -46.049989318521682 0 12.265791648969213 0 -1 0 I I #
vertex $-1 $331 $425 #
point $-1 -42.584485993276644 10.253394153153806 9.5073950881640563 #
vertex $-1 $335 $426 #
point $-1 -42.584485993276644 13.777208743892928 9.5073950881640563 #
vertex $-1 $339 $427 #
point $-1 -42.584485993276644 17.301023334632049 9.5073950881640563 #
straight-curve $-1 -46.049989318521682 26.146477592558625 0 0 0 -1 I I #
point $-1 -46.049989318521682 -26.146477592558625 -12.265791648969213 #
straight-curve $-1 -46.049989318521682 0 -12.265791648969213 0 1 0 I I #
point $-1 -46.049989318521682 26.146477592558625 -12.265791648969213 #
edge $-1 $410 -12.265791648969213 $368 12.265791648969213 $360 $428 forward 7 unknown #
straight-curve $-1 -24.259763849584882 -38.949879784159648 -12.265791648969213 -1 0 0 I I #
vertex $-1 $374 $429 #
straight-curve $-1 -24.259763849584882 -38.949879784159648 12.265791648969213 1 0 0 I I #
point $-1 -27.001121678586507 -38.949879784159648 12.265791648969213 #
point $-1 -27.001121678586507 -38.949879784159648 -12.265791648969213 #
point $-1 -21.518406020583257 -38.949879784159648 -12.265791648969213 #
straight-curve $-1 -21.518406020583257 -32.548178688359137 12.265791648969213 0 1 0 I I #
straight-curve $-1 46.049989318521682 3.8087057808320495 64.074714093119923 0 0 -1 I I #
point $-1 46.049989318521682 3.8087057808320495 12.265791648969213 #
straight-curve $-1 46.049989318521682 3.6385076734209534 1.7693428860621978 0 1 0 I I #
point $-1 46.049989318521682 3.8087057808320495 1.7693428860622049 #
point $-1 39.310781233287408 7.2770153468419068 4.8630272652331659 #
straight-curve $-1 -46.049989318521682 19.650233061791464 36.778340173917826 0 0 -1 I I #
point $-1 -46.049989318521682 19.650233061791464 12.265791648969213 #
straight-curve $-1 -46.049989318521682 6.8886043719464638 8.4321616620567106 0 -1 0 I I #
point $-1 -46.049989318521682 19.650233061791464 8.4321616620567141 #
point $-1 -42.584485985072398 10.253394153153806 8.8002883069775084 #
point $-1 -42.584485985072398 13.777208743892928 8.8002883069775084 #
point $-1 -42.584485985072398 17.301023334632049 8.8002883069775084 #
straight-curve $-1 -21.518406020583257 -38.949879784159648 0 0 0 -1 I I #
point $-1 -21.518406020583257 -38.949879784159648 12.265791648969213 #
End-of-ACIS-data 