500 0 7 0           
7 Unknown 11 ACIS 5.0 NT 24 Thu Mar 25 20:02:12 1999 
-1 9.9999999999999995e-007 1e-010 
body $-1 $7 $-1 $8 #
body $-1 $9 $-1 $10 #
body $-1 $11 $-1 $12 #
body $-1 $13 $-1 $14 #
body $-1 $15 $-1 $16 #
body $-1 $17 $-1 $18 #
body $-1 $19 $-1 $20 #
lump $-1 $-1 $21 $0 #
transform $-1 1 0 0 0 1 0 0 0 1 41.033967101046784 17.332145599799119 4 1 rotate no_reflect no_shear #
lump $-1 $-1 $22 $1 #
transform $-1 1 0 0 0 1 0 0 0 1 41.033967101046784 17.332145599799119 4 1 rotate no_reflect no_shear #
lump $-1 $-1 $23 $2 #
transform $-1 1 0 0 0 1 0 0 0 1 41.033967101046784 17.332145599799119 4 1 rotate no_reflect no_shear #
lump $-1 $-1 $24 $3 #
transform $-1 1 0 0 0 1 0 0 0 1 41.033967101046784 17.332145599799119 4 1 rotate no_reflect no_shear #
lump $-1 $-1 $25 $4 #
transform $-1 1 0 0 0 1 0 0 0 1 41.033967101046784 17.332145599799119 4 1 rotate no_reflect no_shear #
lump $-1 $-1 $26 $5 #
transform $-1 1 0 0 0 1 0 0 0 1 41.033967101046784 17.332145599799119 4 1 rotate no_reflect no_shear #
lump $-1 $-1 $27 $6 #
transform $-1 1 0 0 0 1 0 0 0 1 41.033967101046784 17.332145599799119 4 1 rotate no_reflect no_shear #
shell $-1 $-1 $-1 $28 $-1 $7 #
shell $-1 $-1 $-1 $29 $-1 $9 #
shell $-1 $-1 $-1 $30 $-1 $11 #
shell $-1 $-1 $-1 $31 $-1 $13 #
shell $-1 $-1 $-1 $32 $-1 $15 #
shell $-1 $-1 $-1 $33 $-1 $17 #
shell $-1 $-1 $-1 $34 $-1 $19 #
face $-1 $35 $36 $21 $-1 $37 forward single #
face $-1 $38 $39 $22 $-1 $40 reversed single #
face $-1 $41 $42 $23 $-1 $43 reversed single #
face $-1 $44 $45 $24 $-1 $46 forward single #
face $-1 $47 $48 $25 $-1 $49 forward single #
face $-1 $50 $51 $26 $-1 $52 reversed single #
face $-1 $53 $54 $27 $-1 $55 forward single #
face $-1 $56 $57 $21 $-1 $58 reversed single #
loop $-1 $-1 $59 $28 #
plane-surface $-1 0 0 4 0 0 1 1 0 0 forward_v I I I I #
face $-1 $60 $61 $22 $-1 $62 reversed single #
loop $-1 $-1 $63 $29 #
plane-surface $-1 0 -15.197030392425848 1 0 0 1 1 0 0 forward_v I I I I #
face $-1 $64 $65 $23 $-1 $66 reversed single #
loop $-1 $-1 $67 $30 #
plane-surface $-1 -109.07136871917676 11.001643206179409 46.7201388101387 0 1 0 -0.82903758062907751 0 0.55919289150049634 forward_v I I I I #
face $-1 $68 $69 $24 $-1 $70 forward single #
loop $-1 $71 $72 $31 #
cone-surface $-1 -39.47651227563744 12.810358175785041 2.0851436155306646 0.82903758062907751 0 -0.55919289150049634 0.27959644575024817 0 0.41451879031453875 1 I I 0 1 0.5 forward I I I I #
face $-1 $73 $74 $25 $-1 $75 forward single #
loop $-1 $76 $77 $32 #
cone-surface $-1 -39.47651227563744 15.523430630193488 2.0851436155306646 0.82903758062907751 0 -0.55919289150049634 0.27959644575024817 0 0.41451879031453875 1 I I 0 1 0.5 forward I I I I #
face $-1 $78 $79 $26 $-1 $80 reversed single #
loop $-1 $-1 $81 $33 #
plane-surface $-1 20.880085298608293 4.3600792874505805 114.91488442085529 0 -1 0 -0.57357644374324357 0 -0.81915203911291934 forward_v I I I I #
face $-1 $82 $83 $27 $-1 $84 forward single #
loop $-1 $85 $86 $34 #
cone-surface $-1 37.827970681159357 0.55199950759980254 1.1800990868530057 -0.57357644374324357 0 -0.81915203911291934 0.81915203911291934 0 -0.57357644374324357 1 I I 0 1 1 forward I I I I #
face $-1 $87 $88 $21 $-1 $89 reversed single #
loop $-1 $-1 $90 $35 #
plane-surface $-1 0 0 -4 0 0 1 1 0 0 forward_v I I I I #
coedge $-1 $91 $92 $93 $94 forward $36 $-1 #
face $-1 $95 $96 $22 $-1 $97 reversed single #
loop $-1 $-1 $98 $38 #
plane-surface $-1 0 -13.061915185052577 2.5 0 -1 0 0 0 -1 forward_v I I I I #
coedge $-1 $99 $100 $101 $102 reversed $39 $-1 #
face $-1 $103 $104 $23 $-1 $105 forward single #
loop $-1 $-1 $106 $41 #
plane-surface $-1 -41.033967101046784 14.166894402989264 0.82833338419752067 -0.82903758062907751 0 0.55919289150049634 0.55919289150049634 0 0.82903758062907751 forward_v I I I I #
coedge $-1 $107 $108 $109 $110 reversed $42 $-1 #
face $-1 $-1 $111 $24 $-1 $112 forward single #
loop $-1 $113 $114 $44 #
cone-surface $-1 -38.781456094227735 12.810358175785041 1.616322316087448 0.82903758062907751 0 -0.55919289150049634 0.13979822287512408 0 0.20725939515726938 1 I I -0.70710678118654746 0.70710678118654746 0.25 forward I I I I #
loop $-1 $-1 $115 $31 #
coedge $-1 $72 $72 $116 $117 reversed $45 $-1 #
face $-1 $-1 $118 $25 $-1 $119 forward single #
loop $-1 $120 $121 $47 #
cone-surface $-1 -38.781456094227735 15.523430630193488 1.616322316087448 0.82903758062907751 0 -0.55919289150049634 0.13979822287512408 0 0.20725939515726938 1 I I -0.70710678118654746 0.70710678118654746 0.25 forward I I I I #
loop $-1 $-1 $122 $32 #
coedge $-1 $77 $77 $123 $124 reversed $48 $-1 #
face $-1 $125 $126 $26 $-1 $127 reversed single #
loop $-1 $-1 $128 $50 #
plane-surface $-1 -26.192148546383045 0.55199950759980254 47.688768773425451 0.57357644374324357 0 0.81915203911291934 0.81915203911291934 0 -0.57357644374324357 forward_v I I I I #
coedge $-1 $129 $130 $131 $132 reversed $51 $-1 #
face $-1 $-1 $133 $27 $-1 $134 forward single #
loop $-1 $135 $136 $53 #
cone-surface $-1 36.751230441915226 0.55199950759980254 -0.35764531006750389 -0.57357644374324357 0 -0.81915203911291934 0.40957601955645967 0 -0.28678822187162178 1 I I -0.70710678118654746 0.70710678118654746 0.5 forward I I I I #
loop $-1 $-1 $137 $34 #
coedge $-1 $86 $86 $138 $139 reversed $54 $-1 #
face $-1 $140 $141 $21 $-1 $142 reversed single #
loop $-1 $-1 $143 $56 #
plane-surface $-1 0 -17.332145599799119 0 0 1 0 0 0 1 forward_v I I I I #
coedge $-1 $144 $145 $146 $147 forward $57 $-1 #
coedge $-1 $148 $59 $149 $150 forward $36 $-1 #
coedge $-1 $59 $148 $151 $152 forward $36 $-1 #
coedge $-1 $153 $154 $59 $94 reversed $155 $-1 #
edge $-1 $156 -17.332145599799119 $157 17.332145599799119 $93 $158 forward 7 unknown #
face $-1 $159 $160 $22 $-1 $161 reversed single #
loop $-1 $-1 $162 $60 #
plane-surface $-1 -41.033967101046784 0 0 1 0 0 0 0 -1 forward_v I I I I #
coedge $-1 $163 $164 $165 $166 reversed $61 $-1 #
coedge $-1 $167 $63 $168 $169 reversed $39 $-1 #
coedge $-1 $63 $167 $163 $170 forward $39 $-1 #
coedge $-1 $165 $171 $63 $102 forward $172 $-1 #
edge $-1 $173 -9.7336304035861954 $174 -5.4633999888396527 $101 $175 forward 7 unknown #
face $-1 $176 $177 $23 $-1 $178 reversed single #
loop $-1 $-1 $109 $64 #
plane-surface $-1 0 0 4 0 0 1 1 0 0 forward_v I I I I #
coedge $-1 $179 $180 $181 $182 reversed $65 $-1 #
coedge $-1 $108 $67 $183 $184 reversed $42 $-1 #
coedge $-1 $67 $107 $179 $185 reversed $42 $-1 #
coedge $-1 $181 $186 $67 $110 forward $104 $-1 #
edge $-1 $187 13.501717258541596 $188 15.641033336855422 $109 $189 forward 7 unknown #
loop $-1 $-1 $116 $68 #
plane-surface $-1 -41.033967101046784 14.166894402989264 0.82833338419752067 -0.82903758062907751 0 0.55919289150049634 0.55919289150049634 0 0.82903758062907751 forward_v I I I I #
loop $-1 $-1 $190 $44 #
coedge $-1 $114 $114 $115 $191 reversed $69 $-1 #
coedge $-1 $115 $115 $114 $191 forward $71 $-1 #
coedge $-1 $116 $116 $72 $117 forward $111 $-1 #
edge $-1 $192 0 $192 6.2831853071796004 $116 $193 forward 7 unknown #
loop $-1 $-1 $123 $73 #
plane-surface $-1 -41.033967101046784 14.166894402989264 0.82833338419752067 -0.82903758062907751 0 0.55919289150049634 0.55919289150049634 0 0.82903758062907751 forward_v I I I I #
loop $-1 $-1 $194 $47 #
coedge $-1 $121 $121 $122 $195 reversed $74 $-1 #
coedge $-1 $122 $122 $121 $195 forward $76 $-1 #
coedge $-1 $123 $123 $77 $124 forward $118 $-1 #
edge $-1 $196 0 $196 6.2831853071796004 $123 $197 forward 7 unknown #
face $-1 $198 $199 $26 $-1 $200 reversed single #
loop $-1 $-1 $201 $78 #
plane-surface $-1 20.880085298608293 -3.2560802722509754 114.91488442085529 0 1 0 0.57357644374324357 0 0.81915203911291934 forward_v I I I I #
coedge $-1 $202 $203 $204 $205 reversed $79 $-1 #
coedge $-1 $130 $81 $206 $207 reversed $51 $-1 #
coedge $-1 $81 $129 $202 $208 reversed $51 $-1 #
coedge $-1 $204 $209 $81 $132 forward $210 $-1 #
edge $-1 $211 -30.593924451742637 $212 -25.761835646712846 $131 $213 forward 7 unknown #
loop $-1 $-1 $138 $82 #
plane-surface $-1 -26.192148546383045 0.55199950759980254 47.688768773425451 0.57357644374324357 0 0.81915203911291934 0.81915203911291934 0 -0.57357644374324357 forward_v I I I I #
loop $-1 $-1 $214 $53 #
coedge $-1 $136 $136 $137 $215 reversed $83 $-1 #
coedge $-1 $137 $137 $136 $215 forward $85 $-1 #
coedge $-1 $138 $138 $86 $139 forward $133 $-1 #
edge $-1 $216 0 $216 6.2831853071796004 $138 $217 forward 7 unknown #
face $-1 $218 $219 $21 $-1 $220 reversed single #
loop $-1 $-1 $221 $87 #
plane-surface $-1 -41.033967101046784 0 0 1 0 0 0 0 -1 forward_v I I I I #
coedge $-1 $222 $151 $223 $224 forward $88 $-1 #
coedge $-1 $225 $90 $222 $226 forward $57 $-1 #
coedge $-1 $90 $225 $227 $228 forward $57 $-1 #
coedge $-1 $154 $153 $90 $147 reversed $155 $-1 #
edge $-1 $229 -17.332145599799119 $230 17.332145599799119 $146 $231 forward 7 unknown #
coedge $-1 $92 $91 $232 $233 forward $36 $-1 #
coedge $-1 $234 $235 $91 $150 reversed $219 $-1 #
edge $-1 $157 -41.033967101046784 $236 41.033967101046784 $149 $237 forward 7 unknown #
coedge $-1 $143 $238 $92 $152 reversed $88 $-1 #
edge $-1 $239 -41.033967101046784 $156 41.033967101046784 $151 $240 forward 7 unknown #
coedge $-1 $146 $93 $238 $241 forward $155 $-1 #
coedge $-1 $93 $146 $234 $242 reversed $155 $-1 #
loop $-1 $-1 $153 $218 #
vertex $-1 $94 $243 #
vertex $-1 $94 $244 #
straight-curve $-1 41.033967101046784 0 4 0 1 0 I I #
face $-1 $245 $246 $22 $-1 $247 forward single #
loop $-1 $-1 $168 $95 #
plane-surface $-1 0 -17.332145599799119 0 0 1 0 0 0 1 forward_v I I I I #
coedge $-1 $248 $249 $250 $251 forward $96 $-1 #
coedge $-1 $250 $98 $100 $170 reversed $61 $-1 #
coedge $-1 $98 $250 $252 $253 reversed $61 $-1 #
coedge $-1 $254 $101 $98 $166 forward $172 $-1 #
edge $-1 $174 -0.25 $255 2.75 $165 $256 forward 7 unknown #
coedge $-1 $100 $99 $248 $257 reversed $39 $-1 #
coedge $-1 $258 $259 $99 $169 forward $160 $-1 #
edge $-1 $260 -41.033967101046784 $173 41.033967101046784 $168 $261 forward 7 unknown #
edge $-1 $262 -41.033967101046784 $174 41.033967101046784 $163 $263 forward 7 unknown #
coedge $-1 $101 $254 $258 $264 forward $172 $-1 #
loop $-1 $-1 $165 $245 #
vertex $-1 $169 $265 #
vertex $-1 $102 $266 #
straight-curve $-1 41.033967101046784 -7.598515196212924 1 0 1 0 I I #
face $-1 $-1 $267 $23 $-1 $268 reversed single #
loop $-1 $-1 $269 $103 #
plane-surface $-1 0 17.332145599799119 0 0 -1 0 0 0 -1 forward_v I I I I #
coedge $-1 $270 $106 $108 $185 forward $65 $-1 #
coedge $-1 $106 $270 $269 $271 reversed $65 $-1 #
coedge $-1 $272 $109 $106 $182 forward $104 $-1 #
edge $-1 $188 3.918196004684777 $273 10.248698398304487 $181 $274 forward 7 unknown #
coedge $-1 $275 $276 $107 $184 forward $267 $-1 #
edge $-1 $277 -22.531736020871829 $187 -19.36006940506935 $183 $278 forward 7 unknown #
edge $-1 $188 -3.8257211613927118 $277 0 $108 $279 forward 7 unknown #
coedge $-1 $109 $272 $275 $280 forward $104 $-1 #
vertex $-1 $184 $281 #
vertex $-1 $110 $282 #
straight-curve $-1 -54.53568435958838 11.001643206179409 4 1 0 0 I I #
coedge $-1 $190 $190 $-1 $283 reversed $113 $-1 #
edge $-1 $284 0 $284 6.2831853071796004 $114 $285 forward 7 unknown #
vertex $-1 $117 $286 #
ellipse-curve $-1 -39.964309061889871 12.810358175785041 2.4141666920987572 -0.82903758062907751 0 0.55919289150049634 0.27959644575024817 0 0.41451879031453875 1 I I #
coedge $-1 $194 $194 $-1 $287 reversed $120 $-1 #
edge $-1 $288 0 $288 6.2831853071796004 $121 $289 forward 7 unknown #
vertex $-1 $124 $290 #
ellipse-curve $-1 -39.964309061889871 15.523430630193488 2.4141666920987572 -0.82903758062907751 0 0.55919289150049634 0.27959644575024817 0 0.41451879031453875 1 I I #
face $-1 $-1 $210 $26 $-1 $291 forward single #
loop $-1 $-1 $292 $125 #
plane-surface $-1 41.033967101046784 0 0 -1 0 0 0 0 1 forward_v I I I I #
coedge $-1 $293 $294 $295 $296 reversed $126 $-1 #
coedge $-1 $297 $128 $130 $208 forward $79 $-1 #
coedge $-1 $128 $297 $293 $298 forward $79 $-1 #
coedge $-1 $295 $131 $128 $205 forward $210 $-1 #
edge $-1 $212 -4.0840795336506792 $299 3.5320800260508767 $204 $300 forward 7 unknown #
coedge $-1 $301 $302 $129 $207 forward $199 $-1 #
edge $-1 $303 -56.840907281993509 $211 -53.457442210427644 $206 $304 forward 7 unknown #
edge $-1 $212 76.169042941000455 $303 82.067934202093539 $130 $305 forward 7 unknown #
coedge $-1 $131 $295 $301 $306 forward $210 $-1 #
loop $-1 $-1 $295 $198 #
vertex $-1 $207 $307 #
vertex $-1 $132 $308 #
straight-curve $-1 10.440042649304146 4.3600792874505805 4 -1 0 0 I I #
coedge $-1 $214 $214 $-1 $309 reversed $135 $-1 #
edge $-1 $310 0 $310 6.2831853071796004 $136 $311 forward 7 unknown #
vertex $-1 $139 $312 #
ellipse-curve $-1 38.617922698531878 0.55199950759980254 2.3082674642170642 0.57357644374324357 0 0.81915203911291934 0.81915203911291934 0 -0.57357644374324357 1 I I #
face $-1 $-1 $155 $21 $-1 $313 reversed single #
loop $-1 $-1 $234 $140 #
plane-surface $-1 0 17.332145599799119 0 0 -1 0 0 0 -1 forward_v I I I I #
coedge $-1 $314 $232 $235 $315 forward $141 $-1 #
coedge $-1 $238 $143 $144 $226 reversed $88 $-1 #
coedge $-1 $232 $314 $143 $224 reversed $141 $-1 #
edge $-1 $239 -4 $316 4 $223 $317 forward 7 unknown #
coedge $-1 $145 $144 $314 $318 forward $57 $-1 #
edge $-1 $230 -41.033967101046784 $316 41.033967101046784 $222 $319 forward 7 unknown #
coedge $-1 $235 $234 $145 $228 reversed $219 $-1 #
edge $-1 $320 -41.033967101046784 $229 41.033967101046784 $227 $321 forward 7 unknown #
vertex $-1 $147 $322 #
vertex $-1 $241 $323 #
straight-curve $-1 41.033967101046784 0 -4 0 -1 0 I I #
coedge $-1 $221 $223 $148 $233 reversed $141 $-1 #
edge $-1 $236 -17.332145599799119 $239 17.332145599799119 $232 $324 forward 7 unknown #
coedge $-1 $227 $149 $154 $242 forward $219 $-1 #
coedge $-1 $149 $227 $221 $315 reversed $219 $-1 #
vertex $-1 $150 $325 #
straight-curve $-1 0 17.332145599799119 4 -1 0 0 I I #
coedge $-1 $151 $222 $153 $241 reversed $88 $-1 #
vertex $-1 $233 $326 #
straight-curve $-1 0 -17.332145599799119 4 1 0 0 I I #
edge $-1 $156 -4 $230 4 $153 $327 forward 7 unknown #
edge $-1 $157 -4 $229 4 $154 $328 forward 7 unknown #
point $-1 41.033967101046784 -17.332145599799119 4 #
point $-1 41.033967101046784 17.332145599799119 4 #
face $-1 $-1 $172 $22 $-1 $329 reversed single #
loop $-1 $-1 $252 $159 #
plane-surface $-1 0 0 4 0 0 1 1 0 0 forward_v I I I I #
coedge $-1 $330 $162 $167 $257 forward $96 $-1 #
coedge $-1 $162 $330 $331 $332 reversed $96 $-1 #
coedge $-1 $164 $163 $162 $251 reversed $61 $-1 #
edge $-1 $333 -2.75 $262 0.25 $162 $334 forward 7 unknown #
coedge $-1 $331 $335 $164 $253 forward $246 $-1 #
edge $-1 $255 -41.033967101046784 $333 41.033967101046784 $252 $336 forward 7 unknown #
coedge $-1 $171 $165 $335 $337 reversed $172 $-1 #
vertex $-1 $166 $338 #
straight-curve $-1 41.033967101046784 -13.061915185052577 1.25 0 0 1 I I #
edge $-1 $262 5.4633999888396527 $260 9.7336304035861954 $248 $339 forward 7 unknown #
coedge $-1 $340 $168 $171 $264 reversed $160 $-1 #
coedge $-1 $168 $340 $330 $341 forward $160 $-1 #
vertex $-1 $169 $342 #
straight-curve $-1 0 -17.332145599799119 1 1 0 0 I I #
vertex $-1 $257 $343 #
straight-curve $-1 0 -13.061915185052577 1 1 0 0 I I #
edge $-1 $344 -4 $173 -1 $171 $345 forward 7 unknown #
point $-1 41.033967101046784 -17.332145599799119 1 #
point $-1 41.033967101046784 -13.061915185052577 1 #
loop $-1 $-1 $183 $176 #
plane-surface $-1 -41.033967101046784 0 0 1 0 0 0 0 -1 forward_v I I I I #
coedge $-1 $346 $347 $180 $271 forward $177 $-1 #
coedge $-1 $180 $179 $276 $348 reversed $65 $-1 #
edge $-1 $273 7.3038704426978782 $349 11.129591604090589 $269 $350 forward 7 unknown #
coedge $-1 $186 $181 $347 $351 forward $104 $-1 #
vertex $-1 $351 $352 #
straight-curve $-1 -38.894651022732951 7.0834472014946321 3.9999999999999991 0 1 0 I I #
coedge $-1 $353 $183 $186 $280 reversed $267 $-1 #
coedge $-1 $183 $353 $270 $348 forward $267 $-1 #
vertex $-1 $184 $354 #
straight-curve $-1 -41.033967101046784 11.001643206179409 23.36006940506935 0 0 1 I I #
straight-curve $-1 -41.033967101046784 11.001643206179409 0.82833338419752067 -0.55919289150049634 0 -0.82903758062907751 I I #
edge $-1 $355 -17.332145599799119 $187 -11.001643206179409 $275 $356 forward 7 unknown #
point $-1 -41.033967101046784 11.001643206179409 4 #
point $-1 -38.894651022732958 11.001643206179409 4 #
edge $-1 $357 1 $357 0 $190 $-1 forward 7 unknown #
vertex $-1 $191 $358 #
ellipse-curve $-1 -38.988715489385008 12.810358175785041 1.756120538962572 -0.82903758062907751 0 0.55919289150049634 0.27959644575024817 0 0.41451879031453875 1 I I #
point $-1 -39.68471261613962 12.810358175785041 2.8286854824132961 #
edge $-1 $359 1 $359 0 $194 $-1 forward 7 unknown #
vertex $-1 $195 $360 #
ellipse-curve $-1 -38.988715489385008 15.523430630193488 1.756120538962572 -0.82903758062907751 0 0.55919289150049634 0.27959644575024817 0 0.41451879031453875 1 I I #
point $-1 -39.68471261613962 15.523430630193488 2.8286854824132961 #
plane-surface $-1 0 0 4 0 0 1 1 0 0 forward_v I I I I #
coedge $-1 $302 $301 $294 $361 forward $199 $-1 #
coedge $-1 $294 $201 $203 $298 reversed $126 $-1 #
coedge $-1 $201 $293 $292 $361 reversed $126 $-1 #
coedge $-1 $209 $204 $201 $296 forward $210 $-1 #
edge $-1 $299 25.761835646712846 $362 30.593924451742637 $295 $363 forward 7 unknown #
coedge $-1 $203 $202 $302 $364 reversed $79 $-1 #
edge $-1 $365 -82.067934202093539 $299 -76.169042941000455 $293 $366 forward 7 unknown #
vertex $-1 $205 $367 #
straight-curve $-1 36.201878296017 0.27599975379990127 4 0 -1 0 I I #
coedge $-1 $292 $206 $209 $306 reversed $199 $-1 #
coedge $-1 $206 $292 $297 $364 forward $199 $-1 #
vertex $-1 $207 $368 #
straight-curve $-1 41.033967101046784 4.3600792874505805 57.457442210427644 0 0 1 I I #
straight-curve $-1 -26.192148546383045 4.3600792874505805 47.688768773425451 0.81915203911291934 0 -0.57357644374324357 I I #
edge $-1 $362 -3.2560802722509754 $211 4.3600792874505805 $301 $369 forward 7 unknown #
point $-1 41.033967101046784 4.3600792874505805 4 #
point $-1 36.201878296016993 4.3600792874505805 4 #
edge $-1 $370 1 $370 0 $214 $-1 forward 7 unknown #
vertex $-1 $215 $371 #
ellipse-curve $-1 37.03801866378685 0.55199950759980254 0.051930709488955784 0.57357644374324357 0 0.81915203911291934 0.81915203911291934 0 -0.57357644374324357 1 I I #
point $-1 39.437074737644792 0.55199950759980254 1.7346910204738122 #
plane-surface $-1 41.033967101046784 0 0 -1 0 0 0 0 1 forward_v I I I I #
coedge $-1 $223 $221 $225 $318 reversed $141 $-1 #
edge $-1 $236 -4 $320 4 $235 $372 forward 7 unknown #
vertex $-1 $318 $373 #
straight-curve $-1 -41.033967101046784 -17.332145599799119 0 0 0 -1 I I #
edge $-1 $316 -17.332145599799119 $320 17.332145599799119 $314 $374 forward 7 unknown #
straight-curve $-1 0 -17.332145599799119 -4 -1 0 0 I I #
vertex $-1 $228 $375 #
straight-curve $-1 0 17.332145599799119 -4 1 0 0 I I #
point $-1 41.033967101046784 17.332145599799119 -4 #
point $-1 41.033967101046784 -17.332145599799119 -4 #
straight-curve $-1 -41.033967101046784 0 4 0 -1 0 I I #
point $-1 -41.033967101046784 17.332145599799119 4 #
point $-1 -41.033967101046784 -17.332145599799119 4 #
straight-curve $-1 41.033967101046784 -17.332145599799119 0 0 0 -1 I I #
straight-curve $-1 41.033967101046784 17.332145599799119 0 0 0 -1 I I #
plane-surface $-1 41.033967101046784 0 0 -1 0 0 0 0 1 forward_v I I I I #
coedge $-1 $249 $248 $259 $341 reversed $96 $-1 #
coedge $-1 $376 $252 $249 $332 forward $246 $-1 #
edge $-1 $333 13.061915185052577 $377 17.332145599799119 $249 $378 forward 7 unknown #
vertex $-1 $332 $379 #
straight-curve $-1 -41.033967101046784 -13.061915185052577 1.25 0 0 -1 I I #
coedge $-1 $252 $376 $254 $337 forward $246 $-1 #
straight-curve $-1 0 -13.061915185052577 4 -1 0 0 I I #
edge $-1 $344 -17.332145599799119 $255 -13.061915185052577 $254 $380 forward 7 unknown #
point $-1 41.033967101046784 -13.061915185052577 4 #
straight-curve $-1 -41.033967101046784 -7.598515196212924 1 0 -1 0 I I #
coedge $-1 $259 $258 $376 $381 reversed $160 $-1 #
edge $-1 $377 -4 $260 -1 $330 $382 forward 7 unknown #
point $-1 -41.033967101046784 -17.332145599799119 1 #
point $-1 -41.033967101046784 -13.061915185052577 1 #
vertex $-1 $337 $383 #
straight-curve $-1 41.033967101046784 -17.332145599799119 0 0 0 -1 I I #
coedge $-1 $347 $269 $353 $384 reversed $177 $-1 #
coedge $-1 $269 $346 $272 $351 reversed $177 $-1 #
edge $-1 $349 -10.248698398304487 $277 -3.918196004684777 $276 $385 forward 7 unknown #
vertex $-1 $271 $386 #
straight-curve $-1 -34.810378590735723 17.332145599799119 10.055183081042479 -0.55919289150049634 0 -0.82903758062907751 I I #
edge $-1 $273 38.894651022732958 $355 41.033967101046784 $347 $387 forward 7 unknown #
point $-1 -38.894651022732958 17.332145599799119 4 #
coedge $-1 $276 $275 $346 $384 forward $267 $-1 #
point $-1 -41.033967101046784 11.001643206179409 0.82833338419752067 #
vertex $-1 $351 $388 #
straight-curve $-1 -41.033967101046784 0 4 0 -1 0 I I #
vertex $-1 $283 $389 #
point $-1 -38.709119043634757 12.810358175785041 2.1706393292771109 #
vertex $-1 $287 $390 #
point $-1 -38.709119043634757 15.523430630193488 2.1706393292771109 #
edge $-1 $362 53.457442210427644 $365 56.840907281993509 $292 $391 forward 7 unknown #
vertex $-1 $306 $392 #
straight-curve $-1 10.440042649304146 -3.2560802722509754 4 1 0 0 I I #
edge $-1 $365 -3.5320800260508767 $303 4.0840795336506792 $302 $393 forward 7 unknown #
vertex $-1 $364 $394 #
straight-curve $-1 -26.192148546383045 -3.2560802722509754 47.688768773425451 -0.81915203911291934 0 0.57357644374324357 I I #
point $-1 36.201878296016993 -3.2560802722509754 4 #
point $-1 41.033967101046777 4.3600792874505805 0.6165349284341346 #
straight-curve $-1 41.033967101046784 0 4 0 1 0 I I #
vertex $-1 $309 $395 #
point $-1 37.857170702899765 0.55199950759980254 -0.52164573425428773 #
straight-curve $-1 -41.033967101046784 17.332145599799119 0 0 0 -1 I I #
point $-1 -41.033967101046784 -17.332145599799119 -4 #
straight-curve $-1 -41.033967101046784 0 -4 0 1 0 I I #
point $-1 -41.033967101046784 17.332145599799119 -4 #
coedge $-1 $335 $331 $340 $381 forward $246 $-1 #
vertex $-1 $332 $396 #
straight-curve $-1 -41.033967101046784 0 4 0 -1 0 I I #
point $-1 -41.033967101046784 -13.061915185052577 4 #
straight-curve $-1 41.033967101046784 0 4 0 1 0 I I #
edge $-1 $377 -41.033967101046784 $344 41.033967101046784 $340 $397 forward 7 unknown #
straight-curve $-1 -41.033967101046784 -17.332145599799119 0 0 0 -1 I I #
point $-1 41.033967101046784 -17.332145599799119 4 #
edge $-1 $355 -4 $349 -0.82833338419752067 $346 $398 forward 7 unknown #
straight-curve $-1 -41.033967101046784 7.0834472014946321 0.82833338419751756 0 -1 0 I I #
point $-1 -41.033967101046784 17.332145599799119 0.82833338419752067 #
straight-curve $-1 0 17.332145599799119 4 -1 0 0 I I #
point $-1 -41.033967101046784 17.332145599799119 4 #
point $-1 -38.574196699070463 12.810358175785041 1.476524093212324 #
point $-1 -38.574196699070463 15.523430630193488 1.476524093212324 #
straight-curve $-1 41.033967101046784 -3.2560802722509754 57.457442210427644 0 0 -1 I I #
point $-1 41.033967101046784 -3.2560802722509754 4 #
straight-curve $-1 41.033967101046791 0.27599975379990127 0.61653492843412394 0 1 0 I I #
point $-1 41.033967101046777 -3.2560802722509754 0.6165349284341346 #
point $-1 36.464442220043601 0.55199950759980254 -0.76722132962396361 #
point $-1 -41.033967101046784 -17.332145599799119 4 #
straight-curve $-1 0 -17.332145599799119 4 1 0 0 I I #
straight-curve $-1 -41.033967101046784 17.332145599799119 0 0 0 -1 I I #
End-of-ACIS-data 