500 0 12 0           
7 Unknown 11 ACIS 5.0 NT 24 Thu Mar 25 18:45:23 1999 
-1 9.9999999999999995e-007 1e-010 
body $-1 $12 $-1 $13 #
body $-1 $14 $-1 $15 #
body $-1 $16 $-1 $17 #
body $-1 $18 $-1 $19 #
body $-1 $20 $-1 $21 #
body $-1 $22 $-1 $23 #
body $-1 $24 $-1 $25 #
body $-1 $26 $-1 $27 #
body $-1 $28 $-1 $29 #
body $-1 $30 $-1 $31 #
body $-1 $32 $-1 $33 #
body $-1 $34 $-1 $35 #
lump $-1 $-1 $36 $0 #
transform $-1 1 0 0 0 1 0 0 0 1 60.657368694112975 27.648371711410679 11.664934681978727 1 rotate no_reflect no_shear #
lump $-1 $-1 $37 $1 #
transform $-1 1 0 0 0 1 0 0 0 1 60.657368694112975 27.648371711410679 11.664934681978727 1 rotate no_reflect no_shear #
lump $-1 $-1 $38 $2 #
transform $-1 1 0 0 0 1 0 0 0 1 60.657368694112975 27.648371711410679 11.664934681978727 1 rotate no_reflect no_shear #
lump $-1 $-1 $39 $3 #
transform $-1 1 0 0 0 1 0 0 0 1 60.657368694112975 27.648371711410679 11.664934681978727 1 rotate no_reflect no_shear #
lump $-1 $-1 $40 $4 #
transform $-1 1 0 0 0 1 0 0 0 1 60.657368694112975 27.648371711410679 11.664934681978727 1 rotate no_reflect no_shear #
lump $-1 $-1 $41 $5 #
transform $-1 1 0 0 0 1 0 0 0 1 60.657368694112975 27.648371711410679 11.664934681978727 1 rotate no_reflect no_shear #
lump $-1 $-1 $42 $6 #
transform $-1 1 0 0 0 1 0 0 0 1 60.657368694112975 27.648371711410679 11.664934681978727 1 rotate no_reflect no_shear #
lump $-1 $-1 $43 $7 #
transform $-1 1 0 0 0 1 0 0 0 1 60.657368694112975 27.648371711410679 11.664934681978727 1 rotate no_reflect no_shear #
lump $-1 $-1 $44 $8 #
transform $-1 1 0 0 0 1 0 0 0 1 60.657368694112975 27.648371711410679 11.664934681978727 1 rotate no_reflect no_shear #
lump $-1 $-1 $45 $9 #
transform $-1 1 0 0 0 1 0 0 0 1 60.657368694112975 27.648371711410679 11.664934681978727 1 rotate no_reflect no_shear #
lump $-1 $-1 $46 $10 #
transform $-1 1 0 0 0 1 0 0 0 1 60.657368694112975 27.648371711410679 11.664934681978727 1 rotate no_reflect no_shear #
lump $-1 $-1 $47 $11 #
transform $-1 1 0 0 0 1 0 0 0 1 60.657368694112975 27.648371711410679 11.664934681978727 1 rotate no_reflect no_shear #
shell $-1 $-1 $-1 $48 $-1 $12 #
shell $-1 $-1 $-1 $49 $-1 $14 #
shell $-1 $-1 $-1 $50 $-1 $16 #
shell $-1 $-1 $-1 $51 $-1 $18 #
shell $-1 $-1 $-1 $52 $-1 $20 #
shell $-1 $-1 $-1 $53 $-1 $22 #
shell $-1 $-1 $-1 $54 $-1 $24 #
shell $-1 $-1 $-1 $55 $-1 $26 #
shell $-1 $-1 $-1 $56 $-1 $28 #
shell $-1 $-1 $-1 $57 $-1 $30 #
shell $-1 $-1 $-1 $58 $-1 $32 #
shell $-1 $-1 $-1 $59 $-1 $34 #
face $-1 $60 $61 $36 $-1 $62 forward single #
face $-1 $63 $64 $37 $-1 $65 reversed single #
face $-1 $66 $67 $38 $-1 $68 reversed single #
face $-1 $69 $70 $39 $-1 $71 reversed single #
face $-1 $72 $73 $40 $-1 $74 forward single #
face $-1 $75 $76 $41 $-1 $77 forward single #
face $-1 $78 $79 $42 $-1 $80 reversed single #
face $-1 $81 $82 $43 $-1 $83 forward single #
face $-1 $84 $85 $44 $-1 $86 forward single #
face $-1 $87 $88 $45 $-1 $89 reversed single #
face $-1 $90 $91 $46 $-1 $92 forward single #
face $-1 $93 $94 $47 $-1 $95 forward single #
face $-1 $96 $97 $36 $-1 $98 reversed single #
loop $-1 $-1 $99 $48 #
plane-surface $-1 0 0 11.664934681978727 0 0 1 1 0 0 forward_v I I I I #
face $-1 $100 $101 $37 $-1 $102 reversed single #
loop $-1 $-1 $103 $49 #
plane-surface $-1 -53.846181756423178 -20.769912792710965 0 0 1 0 0 0 1 forward_v I I I I #
face $-1 $104 $105 $38 $-1 $106 reversed single #
loop $-1 $-1 $107 $50 #
plane-surface $-1 53.846181756423178 -20.769912792710965 0 0 1 0 0 0 1 forward_v I I I I #
face $-1 $108 $109 $39 $-1 $110 reversed single #
loop $-1 $-1 $111 $51 #
plane-surface $-1 -19.876522448542165 106.94424030360435 115.65641146733343 1 0 0 0 -0.87461971476443456 -0.48480960649040278 forward_v I I I I #
face $-1 $112 $113 $40 $-1 $114 forward single #
loop $-1 $115 $116 $52 #
cone-surface $-1 -16.867680486566876 26.107011190746672 9.706766597858298 0 -0.87461971476443456 -0.48480960649040278 0.5 0 0 1 I I 0 1 0.5 forward I I I I #
face $-1 $117 $118 $41 $-1 $119 forward single #
loop $-1 $120 $121 $53 #
cone-surface $-1 -12.354417543603937 26.107011190746672 9.706766597858298 0 -0.87461971476443456 -0.48480960649040278 0.5 0 0 1 I I 0 1 0.5 forward I I I I #
face $-1 $122 $123 $42 $-1 $124 reversed single #
loop $-1 $-1 $125 $54 #
plane-surface $-1 9.3455755816286619 106.94424030360435 115.65641146733343 1 0 0 0 -0.87461971476443456 -0.48480960649040278 forward_v I I I I #
face $-1 $126 $127 $43 $-1 $128 forward single #
loop $-1 $129 $130 $55 #
cone-surface $-1 12.354417543603944 26.107011190746672 9.706766597858298 0 -0.87461971476443456 -0.48480960649040278 0.5 0 0 1 I I 0 1 0.5 forward I I I I #
face $-1 $131 $132 $44 $-1 $133 forward single #
loop $-1 $134 $135 $56 #
cone-surface $-1 16.867680486566883 26.107011190746672 9.706766597858298 0 -0.87461971476443456 -0.48480960649040278 0.5 0 0 1 I I 0 1 0.5 forward I I I I #
face $-1 $136 $137 $45 $-1 $138 reversed single #
loop $-1 $-1 $139 $57 #
plane-surface $-1 40.663907049395085 -91.935388937662253 110.32659372093146 -1 0 0 0 -0.52991927123019833 0.84804809178421925 forward_v I I I I #
face $-1 $140 $141 $46 $-1 $142 forward single #
loop $-1 $143 $144 $58 #
cone-surface $-1 30.088215531419507 -23.198956450543818 7.8375167746265957 0 0.52991927123019833 -0.84804809178421925 1.5 0 0 1 I I 0 1 1.5 forward I I I I #
face $-1 $145 $146 $47 $-1 $147 forward single #
loop $-1 $148 $149 $59 #
cone-surface $-1 36.433630442204844 -23.198956450543818 7.8375167746265957 0 0.52991927123019833 -0.84804809178421925 1.5 0 0 1 I I 0 1 1.5 forward I I I I #
face $-1 $150 $151 $36 $-1 $152 reversed single #
loop $-1 $-1 $153 $60 #
plane-surface $-1 0 0 -11.664934681978727 0 0 1 1 0 0 forward_v I I I I #
coedge $-1 $154 $155 $156 $157 forward $61 $-1 #
face $-1 $158 $159 $37 $-1 $160 reversed single #
loop $-1 $-1 $161 $63 #
plane-surface $-1 -53.846181756423178 -16.801478304540257 0 0 -1 0 0 0 -1 forward_v I I I I #
coedge $-1 $162 $163 $164 $165 reversed $64 $-1 #
face $-1 $166 $167 $38 $-1 $168 reversed single #
loop $-1 $-1 $169 $66 #
plane-surface $-1 47.034994818733381 -18.785695548625611 0 1 0 0 0 0 -1 forward_v I I I I #
coedge $-1 $170 $171 $172 $173 forward $67 $-1 #
face $-1 $174 $175 $39 $-1 $176 reversed single #
loop $-1 $-1 $177 $69 #
plane-surface $-1 -14.611049015085399 0.83997929239188807 56.841861372661057 0 0.87461971476443456 0.48480960649040278 1 0 0 forward_v I I I I #
coedge $-1 $178 $179 $180 $181 reversed $70 $-1 #
face $-1 $-1 $182 $40 $-1 $183 forward single #
loop $-1 $184 $185 $72 #
cone-surface $-1 -16.867680486566876 25.230202724597898 9.2207437467091768 0 -0.87461971476443456 -0.48480960649040278 0.25 0 0 1 I I -0.70710678118654746 0.70710678118654746 0.25 forward I I I I #
loop $-1 $-1 $186 $52 #
coedge $-1 $116 $116 $187 $188 reversed $73 $-1 #
face $-1 $-1 $189 $41 $-1 $190 forward single #
loop $-1 $191 $192 $75 #
cone-surface $-1 -12.354417543603937 25.230202724597898 9.2207437467091768 0 -0.87461971476443456 -0.48480960649040278 0.25 0 0 1 I I -0.70710678118654746 0.70710678118654746 0.25 forward I I I I #
loop $-1 $-1 $193 $53 #
coedge $-1 $121 $121 $194 $195 reversed $76 $-1 #
face $-1 $196 $197 $42 $-1 $198 reversed single #
loop $-1 $-1 $199 $78 #
plane-surface $-1 14.611049015085428 0.83997929239188807 56.841861372661057 0 0.87461971476443456 0.48480960649040278 1 0 0 forward_v I I I I #
coedge $-1 $200 $201 $202 $203 reversed $79 $-1 #
face $-1 $-1 $204 $43 $-1 $205 forward single #
loop $-1 $206 $207 $81 #
cone-surface $-1 12.354417543603944 25.230202724597898 9.2207437467091768 0 -0.87461971476443456 -0.48480960649040278 0.25 0 0 1 I I -0.70710678118654746 0.70710678118654746 0.25 forward I I I I #
loop $-1 $-1 $208 $55 #
coedge $-1 $130 $130 $209 $210 reversed $82 $-1 #
face $-1 $-1 $211 $44 $-1 $212 forward single #
loop $-1 $213 $214 $84 #
cone-surface $-1 16.867680486566883 25.230202724597898 9.2207437467091768 0 -0.87461971476443456 -0.48480960649040278 0.25 0 0 1 I I -0.70710678118654746 0.70710678118654746 0.25 forward I I I I #
loop $-1 $-1 $215 $56 #
coedge $-1 $135 $135 $216 $217 reversed $85 $-1 #
face $-1 $218 $219 $45 $-1 $220 reversed single #
loop $-1 $-1 $221 $87 #
plane-surface $-1 33.26092298681219 -27.648371711410661 7.4458621735427641 0 -0.52991927123019833 0.84804809178421925 1 0 0 forward_v I I I I #
coedge $-1 $222 $223 $224 $225 reversed $88 $-1 #
face $-1 $-1 $226 $46 $-1 $227 forward single #
loop $-1 $228 $229 $90 #
cone-surface $-1 30.088215531419507 -21.728065382162281 5.4835990526542897 0 0.52991927123019833 -0.84804809178421925 0.75 0 0 1 I I -0.70710678118654757 0.70710678118654757 0.75 forward I I I I #
loop $-1 $-1 $230 $58 #
coedge $-1 $144 $144 $231 $232 reversed $91 $-1 #
face $-1 $-1 $233 $47 $-1 $234 forward single #
loop $-1 $235 $236 $93 #
cone-surface $-1 36.433630442204844 -21.728065382162281 5.4835990526542897 0 0.52991927123019833 -0.84804809178421925 0.75 0 0 1 I I -0.70710678118654757 0.70710678118654757 0.75 forward I I I I #
loop $-1 $-1 $237 $59 #
coedge $-1 $149 $149 $238 $239 reversed $94 $-1 #
face $-1 $240 $241 $36 $-1 $242 reversed single #
loop $-1 $-1 $243 $96 #
plane-surface $-1 0 -27.648371711410679 0 0 1 0 0 0 1 forward_v I I I I #
coedge $-1 $244 $245 $246 $247 forward $97 $-1 #
coedge $-1 $248 $99 $249 $250 forward $61 $-1 #
coedge $-1 $99 $248 $251 $252 forward $61 $-1 #
coedge $-1 $253 $254 $99 $157 reversed $255 $-1 #
edge $-1 $256 -27.648371711410679 $257 27.648371711410679 $156 $258 forward 7 unknown #
face $-1 $259 $260 $37 $-1 $261 reversed single #
loop $-1 $-1 $262 $100 #
plane-surface $-1 -47.034994818733381 -18.785695548625611 0 -1 0 0 0 0 1 forward_v I I I I #
coedge $-1 $263 $264 $265 $266 forward $101 $-1 #
coedge $-1 $267 $103 $268 $269 reversed $64 $-1 #
coedge $-1 $103 $267 $270 $271 reversed $64 $-1 #
coedge $-1 $272 $273 $103 $165 forward $274 $-1 #
edge $-1 $275 -11.664934681978727 $276 11.664934681978727 $164 $277 forward 7 unknown #
face $-1 $278 $279 $38 $-1 $280 reversed single #
loop $-1 $-1 $281 $104 #
plane-surface $-1 53.846181756423178 -16.801478304540257 0 0 -1 0 0 0 -1 forward_v I I I I #
coedge $-1 $282 $283 $284 $285 forward $105 $-1 #
coedge $-1 $286 $107 $287 $288 reversed $67 $-1 #
coedge $-1 $107 $286 $289 $290 reversed $67 $-1 #
coedge $-1 $283 $282 $107 $173 reversed $105 $-1 #
edge $-1 $291 -11.664934681978727 $292 11.664934681978727 $172 $293 forward 7 unknown #
face $-1 $294 $295 $39 $-1 $296 reversed single #
loop $-1 $-1 $297 $108 #
plane-surface $-1 -9.3455755816286334 106.94424030360435 115.65641146733343 -1 0 0 0 0.87461971476443456 0.48480960649040278 forward_v I I I I #
coedge $-1 $298 $299 $300 $301 reversed $109 $-1 #
coedge $-1 $179 $111 $302 $303 reversed $70 $-1 #
coedge $-1 $111 $178 $298 $304 reversed $70 $-1 #
coedge $-1 $300 $305 $111 $181 forward $306 $-1 #
edge $-1 $307 25.823748440391494 $308 27.590162406804172 $180 $309 forward 7 unknown #
loop $-1 $-1 $187 $112 #
plane-surface $-1 -14.611049015085399 0.83997929239188807 56.841861372661057 0 0.87461971476443456 0.48480960649040278 1 0 0 forward_v I I I I #
loop $-1 $-1 $310 $72 #
coedge $-1 $185 $185 $186 $311 reversed $113 $-1 #
coedge $-1 $186 $186 $185 $311 forward $115 $-1 #
coedge $-1 $187 $187 $116 $188 forward $182 $-1 #
edge $-1 $312 6.2145468487843982e-015 $312 6.2831853071796067 $187 $313 forward 7 unknown #
loop $-1 $-1 $194 $117 #
plane-surface $-1 -14.611049015085399 0.83997929239188807 56.841861372661057 0 0.87461971476443456 0.48480960649040278 1 0 0 forward_v I I I I #
loop $-1 $-1 $314 $75 #
coedge $-1 $192 $192 $193 $315 reversed $118 $-1 #
coedge $-1 $193 $193 $192 $315 forward $120 $-1 #
coedge $-1 $194 $194 $121 $195 forward $189 $-1 #
edge $-1 $316 6.2145468487843982e-015 $316 6.2831853071796067 $194 $317 forward 7 unknown #
face $-1 $318 $319 $42 $-1 $320 forward single #
loop $-1 $-1 $321 $122 #
plane-surface $-1 19.876522448542193 106.94424030360435 115.65641146733343 -1 0 0 0 0.87461971476443456 0.48480960649040278 forward_v I I I I #
coedge $-1 $322 $323 $324 $325 reversed $123 $-1 #
coedge $-1 $201 $125 $326 $327 reversed $79 $-1 #
coedge $-1 $125 $200 $322 $328 reversed $79 $-1 #
coedge $-1 $324 $329 $125 $203 forward $319 $-1 #
edge $-1 $330 25.823748440391494 $331 27.590162406804172 $202 $332 forward 7 unknown #
loop $-1 $-1 $209 $126 #
plane-surface $-1 14.611049015085428 0.83997929239188807 56.841861372661057 0 0.87461971476443456 0.48480960649040278 1 0 0 forward_v I I I I #
loop $-1 $-1 $333 $81 #
coedge $-1 $207 $207 $208 $334 reversed $127 $-1 #
coedge $-1 $208 $208 $207 $334 forward $129 $-1 #
coedge $-1 $209 $209 $130 $210 forward $204 $-1 #
edge $-1 $335 6.2145468487843982e-015 $335 6.2831853071796067 $209 $336 forward 7 unknown #
loop $-1 $-1 $216 $131 #
plane-surface $-1 14.611049015085428 0.83997929239188807 56.841861372661057 0 0.87461971476443456 0.48480960649040278 1 0 0 forward_v I I I I #
loop $-1 $-1 $337 $84 #
coedge $-1 $214 $214 $215 $338 reversed $132 $-1 #
coedge $-1 $215 $215 $214 $338 forward $134 $-1 #
coedge $-1 $216 $216 $135 $217 forward $211 $-1 #
edge $-1 $339 6.2145468487843982e-015 $339 6.2831853071796067 $216 $340 forward 7 unknown #
face $-1 $341 $342 $45 $-1 $343 forward single #
loop $-1 $-1 $344 $136 #
plane-surface $-1 25.857938924229295 -91.935388937662253 110.32659372093146 1 0 0 0 0.52991927123019833 -0.84804809178421925 forward_v I I I I #
coedge $-1 $345 $346 $347 $348 reversed $137 $-1 #
coedge $-1 $223 $139 $349 $350 reversed $88 $-1 #
coedge $-1 $139 $222 $345 $351 reversed $88 $-1 #
coedge $-1 $347 $352 $139 $225 forward $342 $-1 #
edge $-1 $353 18.319322757420448 $354 25.071250049236383 $224 $355 forward 7 unknown #
loop $-1 $-1 $231 $140 #
plane-surface $-1 33.26092298681219 -27.648371711410661 7.4458621735427641 0 -0.52991927123019833 0.84804809178421925 1 0 0 forward_v I I I I #
loop $-1 $-1 $356 $90 #
coedge $-1 $229 $229 $230 $357 reversed $141 $-1 #
coedge $-1 $230 $230 $229 $357 forward $143 $-1 #
coedge $-1 $231 $231 $144 $232 forward $226 $-1 #
edge $-1 $358 1.506960816537253e-015 $358 6.2831853071796022 $231 $359 forward 7 unknown #
loop $-1 $-1 $238 $145 #
plane-surface $-1 33.26092298681219 -27.648371711410661 7.4458621735427641 0 -0.52991927123019833 0.84804809178421925 1 0 0 forward_v I I I I #
loop $-1 $-1 $360 $93 #
coedge $-1 $236 $236 $237 $361 reversed $146 $-1 #
coedge $-1 $237 $237 $236 $361 forward $148 $-1 #
coedge $-1 $238 $238 $149 $239 forward $233 $-1 #
edge $-1 $362 1.506960816537253e-015 $362 6.2831853071796022 $238 $363 forward 7 unknown #
face $-1 $364 $365 $36 $-1 $366 reversed single #
loop $-1 $-1 $367 $150 #
plane-surface $-1 -60.657368694112975 0 0 1 0 0 0 0 -1 forward_v I I I I #
coedge $-1 $368 $251 $369 $370 forward $151 $-1 #
coedge $-1 $371 $153 $368 $372 forward $97 $-1 #
coedge $-1 $153 $371 $373 $374 forward $97 $-1 #
coedge $-1 $254 $253 $153 $247 reversed $255 $-1 #
edge $-1 $375 -27.648371711410679 $376 27.648371711410679 $246 $377 forward 7 unknown #
coedge $-1 $155 $154 $378 $379 forward $61 $-1 #
coedge $-1 $380 $381 $154 $250 reversed $365 $-1 #
edge $-1 $257 -60.657368694112975 $382 60.657368694112975 $249 $383 forward 7 unknown #
coedge $-1 $243 $384 $155 $252 reversed $151 $-1 #
edge $-1 $385 -60.657368694112975 $256 60.657368694112975 $251 $386 forward 7 unknown #
coedge $-1 $246 $156 $384 $387 forward $255 $-1 #
coedge $-1 $156 $246 $380 $388 reversed $255 $-1 #
loop $-1 $-1 $253 $364 #
vertex $-1 $157 $389 #
vertex $-1 $157 $390 #
straight-curve $-1 60.657368694112975 0 11.664934681978727 0 1 0 I I #
face $-1 $391 $392 $37 $-1 $393 forward single #
loop $-1 $-1 $394 $158 #
plane-surface $-1 0 0 -11.664934681978727 0 0 1 1 0 0 forward_v I I I I #
coedge $-1 $395 $396 $267 $397 forward $159 $-1 #
coedge $-1 $398 $161 $394 $399 reversed $101 $-1 #
coedge $-1 $161 $398 $400 $401 reversed $101 $-1 #
coedge $-1 $396 $395 $161 $266 reversed $159 $-1 #
edge $-1 $402 -11.664934681978727 $403 11.664934681978727 $265 $404 forward 7 unknown #
coedge $-1 $163 $162 $262 $397 reversed $64 $-1 #
coedge $-1 $405 $406 $162 $269 forward $260 $-1 #
edge $-1 $407 20.111903940521792 $275 33.734277815901386 $268 $408 forward 7 unknown #
coedge $-1 $409 $410 $163 $271 forward $392 $-1 #
edge $-1 $276 -33.734277815901386 $411 -20.111903940521792 $270 $412 forward 7 unknown #
coedge $-1 $413 $164 $410 $414 reversed $274 $-1 #
coedge $-1 $164 $413 $405 $415 reversed $274 $-1 #
loop $-1 $-1 $413 $391 #
vertex $-1 $415 $416 #
vertex $-1 $165 $417 #
straight-curve $-1 -60.657368694112975 -20.769912792710965 0 0 0 1 I I #
face $-1 $418 $419 $38 $-1 $420 forward single #
loop $-1 $-1 $287 $166 #
plane-surface $-1 0 0 -11.664934681978727 0 0 1 1 0 0 forward_v I I I I #
coedge $-1 $421 $422 $423 $424 reversed $167 $-1 #
coedge $-1 $172 $169 $425 $426 reversed $105 $-1 #
coedge $-1 $169 $172 $427 $428 reversed $105 $-1 #
coedge $-1 $422 $421 $169 $285 reversed $167 $-1 #
edge $-1 $429 -11.664934681978727 $430 11.664934681978727 $284 $431 forward 7 unknown #
coedge $-1 $171 $170 $432 $433 reversed $67 $-1 #
coedge $-1 $425 $434 $170 $288 forward $279 $-1 #
edge $-1 $435 -33.734277815901386 $292 -20.111903940521792 $287 $436 forward 7 unknown #
coedge $-1 $437 $427 $171 $290 forward $419 $-1 #
edge $-1 $291 20.111903940521792 $438 33.734277815901386 $289 $439 forward 7 unknown #
vertex $-1 $290 $440 #
vertex $-1 $288 $441 #
straight-curve $-1 47.034994818733381 -20.769912792710965 0 0 0 -1 I I #
face $-1 $-1 $306 $39 $-1 $442 forward single #
loop $-1 $-1 $443 $174 #
plane-surface $-1 0 27.648371711410679 0 0 -1 0 0 0 -1 forward_v I I I I #
coedge $-1 $444 $445 $446 $447 reversed $175 $-1 #
coedge $-1 $448 $177 $179 $304 forward $109 $-1 #
coedge $-1 $177 $448 $444 $449 forward $109 $-1 #
coedge $-1 $446 $180 $177 $301 forward $306 $-1 #
edge $-1 $308 -12.570997940999465 $450 -2.0400510740859339 $300 $451 forward 7 unknown #
coedge $-1 $452 $453 $178 $303 forward $295 $-1 #
edge $-1 $454 -49.349966320875794 $307 -46.163271051687985 $302 $455 forward 7 unknown #
edge $-1 $308 51.653222455487466 $454 55.296743422821365 $179 $456 forward 7 unknown #
coedge $-1 $180 $446 $452 $457 forward $306 $-1 #
loop $-1 $-1 $446 $294 #
vertex $-1 $303 $458 #
vertex $-1 $181 $459 #
straight-curve $-1 -19.876522448542165 53.472120151802173 11.664934681978728 0 -1 0 I I #
coedge $-1 $310 $310 $-1 $460 reversed $184 $-1 #
edge $-1 $461 0 $461 6.2831853071796004 $185 $462 forward 7 unknown #
vertex $-1 $188 $463 #
ellipse-curve $-1 -16.867680486566876 26.76516472820434 10.071587047384821 0 0.87461971476443456 0.48480960649040278 0.5 0 0 1 I I #
coedge $-1 $314 $314 $-1 $464 reversed $191 $-1 #
edge $-1 $465 0 $465 6.2831853071796004 $192 $466 forward 7 unknown #
vertex $-1 $195 $467 #
ellipse-curve $-1 -12.354417543603937 26.76516472820434 10.071587047384821 0 0.87461971476443456 0.48480960649040278 0.5 0 0 1 I I #
face $-1 $-1 $468 $42 $-1 $469 reversed single #
loop $-1 $-1 $202 $196 #
plane-surface $-1 0 0 11.664934681978727 0 0 1 1 0 0 forward_v I I I I #
coedge $-1 $470 $471 $472 $473 reversed $197 $-1 #
coedge $-1 $474 $199 $201 $328 forward $123 $-1 #
coedge $-1 $199 $474 $470 $475 forward $123 $-1 #
coedge $-1 $472 $202 $199 $325 forward $319 $-1 #
edge $-1 $331 2.0400510740859481 $476 12.570997940999479 $324 $477 forward 7 unknown #
coedge $-1 $478 $479 $200 $327 forward $468 $-1 #
edge $-1 $480 -49.349966320875794 $330 -46.163271051687985 $326 $481 forward 7 unknown #
edge $-1 $331 51.653222455487466 $480 55.296743422821365 $201 $482 forward 7 unknown #
coedge $-1 $202 $472 $478 $483 forward $319 $-1 #
vertex $-1 $327 $484 #
vertex $-1 $203 $485 #
straight-curve $-1 9.3455755816286619 53.472120151802173 11.664934681978728 0 -1 0 I I #
coedge $-1 $333 $333 $-1 $486 reversed $206 $-1 #
edge $-1 $487 0 $487 6.2831853071796004 $207 $488 forward 7 unknown #
vertex $-1 $210 $489 #
ellipse-curve $-1 12.354417543603944 26.76516472820434 10.071587047384821 0 0.87461971476443456 0.48480960649040278 0.5 0 0 1 I I #
coedge $-1 $337 $337 $-1 $490 reversed $213 $-1 #
edge $-1 $491 0 $491 6.2831853071796004 $214 $492 forward 7 unknown #
vertex $-1 $217 $493 #
ellipse-curve $-1 16.867680486566883 26.76516472820434 10.071587047384821 0 0.87461971476443456 0.48480960649040278 0.5 0 0 1 I I #
face $-1 $-1 $494 $45 $-1 $495 reversed single #
loop $-1 $-1 $224 $218 #
plane-surface $-1 0 0 11.664934681978727 0 0 1 1 0 0 forward_v I I I I #
coedge $-1 $496 $497 $498 $499 reversed $219 $-1 #
coedge $-1 $500 $221 $223 $351 forward $137 $-1 #
coedge $-1 $221 $500 $496 $501 forward $137 $-1 #
coedge $-1 $498 $224 $221 $348 forward $342 $-1 #
edge $-1 $354 -24.03344555598899 $502 -9.2274774308231997 $347 $503 forward 7 unknown #
coedge $-1 $504 $505 $222 $350 forward $494 $-1 #
edge $-1 $506 -47.717434686922971 $353 -43.498362178487 $349 $507 forward 7 unknown #
edge $-1 $354 -7.96172688462803 $506 2.0712314610490847e-014 $223 $508 forward 7 unknown #
coedge $-1 $224 $498 $504 $509 forward $342 $-1 #
vertex $-1 $225 $510 #
vertex $-1 $225 $511 #
straight-curve $-1 40.663907049395085 -45.967694468831127 11.664934681978728 0 1 0 I I #
coedge $-1 $356 $356 $-1 $512 reversed $228 $-1 #
edge $-1 $513 0 $513 6.2831853071796004 $229 $514 forward 7 unknown #
vertex $-1 $232 $515 #
ellipse-curve $-1 30.088215531419507 -24.272408065502709 9.5553984277607427 0 -0.52991927123019833 0.84804809178421925 1.5 0 0 1 I I #
coedge $-1 $360 $360 $-1 $516 reversed $235 $-1 #
edge $-1 $517 0 $517 6.2831853071796004 $236 $518 forward 7 unknown #
vertex $-1 $239 $519 #
ellipse-curve $-1 36.433630442204844 -24.272408065502709 9.5553984277607427 0 -0.52991927123019833 0.84804809178421925 1.5 0 0 1 I I #
face $-1 $-1 $255 $36 $-1 $520 reversed single #
loop $-1 $-1 $380 $240 #
plane-surface $-1 0 27.648371711410679 0 0 -1 0 0 0 -1 forward_v I I I I #
coedge $-1 $521 $378 $381 $522 forward $241 $-1 #
coedge $-1 $384 $243 $244 $372 reversed $151 $-1 #
coedge $-1 $378 $521 $243 $370 reversed $241 $-1 #
edge $-1 $385 -11.664934681978727 $523 11.664934681978727 $369 $524 forward 7 unknown #
coedge $-1 $245 $244 $521 $525 forward $97 $-1 #
edge $-1 $376 -60.657368694112975 $523 60.657368694112975 $368 $526 forward 7 unknown #
coedge $-1 $381 $380 $245 $374 reversed $365 $-1 #
edge $-1 $527 -60.657368694112975 $375 60.657368694112975 $373 $528 forward 7 unknown #
vertex $-1 $247 $529 #
vertex $-1 $387 $530 #
straight-curve $-1 60.657368694112975 0 -11.664934681978727 0 -1 0 I I #
coedge $-1 $367 $369 $248 $379 reversed $241 $-1 #
edge $-1 $382 -27.648371711410679 $385 27.648371711410679 $378 $531 forward 7 unknown #
coedge $-1 $373 $249 $254 $388 forward $365 $-1 #
coedge $-1 $249 $373 $367 $522 reversed $365 $-1 #
vertex $-1 $250 $532 #
straight-curve $-1 0 27.648371711410679 11.664934681978727 -1 0 0 I I #
coedge $-1 $251 $368 $253 $387 reversed $151 $-1 #
vertex $-1 $379 $533 #
straight-curve $-1 0 -27.648371711410679 11.664934681978727 1 0 0 I I #
edge $-1 $256 -11.664934681978727 $376 11.664934681978727 $253 $534 forward 7 unknown #
edge $-1 $257 -11.664934681978727 $375 11.664934681978727 $254 $535 forward 7 unknown #
point $-1 60.657368694112975 -27.648371711410679 11.664934681978727 #
point $-1 60.657368694112975 27.648371711410679 11.664934681978727 #
face $-1 $-1 $274 $37 $-1 $536 reversed single #
loop $-1 $-1 $400 $259 #
plane-surface $-1 0 0 11.664934681978727 0 0 1 1 0 0 forward_v I I I I #
coedge $-1 $406 $405 $263 $399 forward $260 $-1 #
coedge $-1 $265 $262 $406 $537 reversed $159 $-1 #
coedge $-1 $262 $265 $409 $538 reversed $159 $-1 #
edge $-1 $411 -11.664934681978727 $407 11.664934681978727 $262 $539 forward 7 unknown #
coedge $-1 $264 $263 $413 $540 reversed $101 $-1 #
edge $-1 $541 -33.734277815901386 $403 -20.111903940521792 $394 $542 forward 7 unknown #
coedge $-1 $410 $409 $264 $401 forward $392 $-1 #
edge $-1 $402 20.111903940521792 $543 33.734277815901386 $400 $544 forward 7 unknown #
vertex $-1 $401 $545 #
vertex $-1 $399 $546 #
straight-curve $-1 -47.034994818733381 -16.801478304540257 0 0 0 -1 I I #
coedge $-1 $394 $268 $273 $415 forward $260 $-1 #
coedge $-1 $268 $394 $395 $537 forward $260 $-1 #
vertex $-1 $269 $547 #
straight-curve $-1 -26.923090878211589 -20.769912792710965 -11.664934681978727 -1 0 0 I I #
coedge $-1 $400 $270 $396 $538 forward $392 $-1 #
coedge $-1 $270 $400 $272 $414 forward $392 $-1 #
vertex $-1 $271 $548 #
straight-curve $-1 -26.923090878211589 -20.769912792710965 11.664934681978727 1 0 0 I I #
coedge $-1 $273 $272 $398 $540 forward $274 $-1 #
edge $-1 $543 16.801478304540257 $276 20.769912792710965 $272 $549 forward 7 unknown #
edge $-1 $275 -20.769912792710965 $541 -16.801478304540257 $273 $550 forward 7 unknown #
point $-1 -60.657368694112975 -20.769912792710965 -11.664934681978727 #
point $-1 -60.657368694112975 -20.769912792710965 11.664934681978727 #
face $-1 $-1 $551 $38 $-1 $552 reversed single #
loop $-1 $-1 $289 $278 #
plane-surface $-1 0 0 11.664934681978727 0 0 1 1 0 0 forward_v I I I I #
coedge $-1 $284 $281 $553 $554 reversed $167 $-1 #
coedge $-1 $281 $284 $555 $556 reversed $167 $-1 #
coedge $-1 $557 $558 $281 $424 forward $551 $-1 #
edge $-1 $559 -11.664934681978727 $560 11.664934681978727 $423 $561 forward 7 unknown #
coedge $-1 $553 $287 $282 $426 forward $279 $-1 #
edge $-1 $292 -11.377065018398159 $430 -7.4086305302274518 $425 $562 forward 7 unknown #
coedge $-1 $289 $555 $283 $428 forward $419 $-1 #
edge $-1 $429 7.4086305302274518 $291 11.377065018398159 $427 $563 forward 7 unknown #
vertex $-1 $428 $564 #
vertex $-1 $426 $565 #
straight-curve $-1 47.034994818733381 -16.801478304540257 0 0 0 -1 I I #
coedge $-1 $558 $557 $286 $433 forward $551 $-1 #
edge $-1 $438 -11.664934681978727 $435 11.664934681978727 $432 $566 forward 7 unknown #
coedge $-1 $287 $553 $558 $567 forward $279 $-1 #
vertex $-1 $433 $568 #
straight-curve $-1 26.923090878211589 -20.769912792710965 -11.664934681978727 -1 0 0 I I #
coedge $-1 $555 $289 $557 $569 forward $419 $-1 #
vertex $-1 $569 $570 #
straight-curve $-1 26.923090878211589 -20.769912792710965 11.664934681978727 1 0 0 I I #
point $-1 47.034994818733381 -20.769912792710965 11.664934681978727 #
point $-1 47.034994818733381 -20.769912792710965 -11.664934681978727 #
plane-surface $-1 0 0 11.664934681978727 0 0 1 1 0 0 forward_v I I I I #
coedge $-1 $453 $452 $445 $571 forward $295 $-1 #
coedge $-1 $445 $297 $299 $449 reversed $175 $-1 #
coedge $-1 $297 $444 $443 $571 reversed $175 $-1 #
coedge $-1 $305 $300 $297 $447 forward $306 $-1 #
edge $-1 $450 -27.590162406804172 $572 -25.823748440391494 $446 $573 forward 7 unknown #
coedge $-1 $299 $298 $453 $574 reversed $109 $-1 #
edge $-1 $575 -55.296743422821365 $450 -51.653222455487466 $444 $576 forward 7 unknown #
vertex $-1 $301 $577 #
straight-curve $-1 -7.3055245075426996 25.881957744997997 11.664934681978728 1 0 0 I I #
coedge $-1 $443 $302 $305 $457 reversed $295 $-1 #
coedge $-1 $302 $443 $448 $574 forward $295 $-1 #
vertex $-1 $303 $578 #
straight-curve $-1 -19.876522448542165 27.648371711410675 57.828205733666714 0 0 1 I I #
straight-curve $-1 -19.876522448542165 0.83997929239188807 56.841861372661057 0 0.48480960649040278 -0.87461971476443456 I I #
edge $-1 $572 9.3455755816286334 $307 19.876522448542165 $452 $579 forward 7 unknown #
point $-1 -19.876522448542165 27.648371711410679 11.664934681978727 #
point $-1 -19.876522448542165 25.881957744998001 11.664934681978728 #
edge $-1 $580 1 $580 0 $310 $-1 forward 7 unknown #
vertex $-1 $311 $581 #
ellipse-curve $-1 -16.867680486566876 25.448857653289007 9.3419461483317772 0 0.87461971476443456 0.48480960649040278 0.5 0 0 1 I I #
point $-1 -16.367680486566876 26.76516472820434 10.071587047384817 #
edge $-1 $582 1 $582 0 $314 $-1 forward 7 unknown #
vertex $-1 $315 $583 #
ellipse-curve $-1 -12.354417543603937 25.448857653289007 9.3419461483317772 0 0.87461971476443456 0.48480960649040278 0.5 0 0 1 I I #
point $-1 -11.854417543603937 26.76516472820434 10.071587047384817 #
loop $-1 $-1 $326 $318 #
plane-surface $-1 0 27.648371711410679 0 0 -1 0 0 0 -1 forward_v I I I I #
coedge $-1 $471 $321 $323 $475 reversed $197 $-1 #
coedge $-1 $321 $470 $584 $585 reversed $197 $-1 #
coedge $-1 $329 $324 $321 $473 forward $319 $-1 #
edge $-1 $476 -27.590162406804172 $586 -25.823748440391494 $472 $587 forward 7 unknown #
coedge $-1 $323 $322 $479 $588 reversed $123 $-1 #
edge $-1 $589 -55.296743422821365 $476 -51.653222455487466 $470 $590 forward 7 unknown #
vertex $-1 $325 $591 #
straight-curve $-1 7.3055245075427138 25.881957744997997 11.664934681978728 1 0 0 I I #
coedge $-1 $584 $326 $329 $483 reversed $468 $-1 #
coedge $-1 $326 $584 $474 $588 forward $468 $-1 #
vertex $-1 $327 $592 #
straight-curve $-1 9.3455755816286619 27.648371711410675 57.828205733666714 0 0 1 I I #
straight-curve $-1 9.3455755816286619 0.83997929239188807 56.841861372661057 0 0.48480960649040278 -0.87461971476443456 I I #
edge $-1 $586 -19.876522448542193 $330 -9.3455755816286619 $478 $593 forward 7 unknown #
point $-1 9.3455755816286619 27.648371711410679 11.664934681978727 #
point $-1 9.3455755816286619 25.881957744998001 11.664934681978728 #
edge $-1 $594 1 $594 0 $333 $-1 forward 7 unknown #
vertex $-1 $334 $595 #
ellipse-curve $-1 12.354417543603944 25.448857653289007 9.3419461483317772 0 0.87461971476443456 0.48480960649040278 0.5 0 0 1 I I #
point $-1 12.854417543603944 26.76516472820434 10.071587047384817 #
edge $-1 $596 1 $596 0 $337 $-1 forward 7 unknown #
vertex $-1 $338 $597 #
ellipse-curve $-1 16.867680486566883 25.448857653289007 9.3419461483317772 0 0.87461971476443456 0.48480960649040278 0.5 0 0 1 I I #
point $-1 17.367680486566883 26.76516472820434 10.071587047384817 #
loop $-1 $-1 $349 $341 #
plane-surface $-1 0 -27.648371711410679 0 0 1 0 0 0 1 forward_v I I I I #
coedge $-1 $497 $344 $346 $501 reversed $219 $-1 #
coedge $-1 $344 $496 $598 $599 reversed $219 $-1 #
coedge $-1 $352 $347 $344 $499 forward $342 $-1 #
edge $-1 $502 -25.071250049236383 $600 -18.319322757420448 $498 $601 forward 7 unknown #
coedge $-1 $346 $345 $505 $602 reversed $137 $-1 #
edge $-1 $603 -2.0712314610490847e-014 $502 7.96172688462803 $496 $604 forward 7 unknown #
vertex $-1 $348 $605 #
straight-curve $-1 16.630461493406095 -20.896444419594744 11.664934681978727 -1 0 0 I I #
coedge $-1 $598 $349 $352 $509 reversed $494 $-1 #
coedge $-1 $349 $598 $500 $602 forward $494 $-1 #
vertex $-1 $350 $606 #
straight-curve $-1 40.663907049395085 -27.648371711410675 55.163296860465728 0 0 1 I I #
straight-curve $-1 40.663907049395085 -27.648371711410661 7.4458621735427641 0 -0.84804809178421925 -0.52991927123019833 I I #
edge $-1 $600 25.857938924229295 $353 40.663907049395085 $504 $607 forward 7 unknown #
point $-1 40.663907049395085 -27.648371711410679 11.664934681978727 #
point $-1 40.663907049395085 -20.896444419594744 11.664934681978727 #
edge $-1 $608 1 $608 0 $356 $-1 forward 7 unknown #
vertex $-1 $357 $609 #
ellipse-curve $-1 30.088215531419507 -22.12550483558493 6.119635121492454 0 -0.52991927123019833 0.84804809178421925 1.5 0 0 1 I I #
point $-1 31.588215531419507 -24.272408065502702 9.5553984277607356 #
edge $-1 $610 1 $610 0 $360 $-1 forward 7 unknown #
vertex $-1 $361 $611 #
ellipse-curve $-1 36.433630442204844 -22.12550483558493 6.119635121492454 0 -0.52991927123019833 0.84804809178421925 1.5 0 0 1 I I #
point $-1 37.933630442204844 -24.272408065502702 9.5553984277607356 #
plane-surface $-1 60.657368694112975 0 0 -1 0 0 0 0 1 forward_v I I I I #
coedge $-1 $369 $367 $371 $525 reversed $241 $-1 #
edge $-1 $382 -11.664934681978727 $527 11.664934681978727 $381 $612 forward 7 unknown #
vertex $-1 $525 $613 #
straight-curve $-1 -60.657368694112975 -27.648371711410679 0 0 0 -1 I I #
edge $-1 $523 -27.648371711410679 $527 27.648371711410679 $521 $614 forward 7 unknown #
straight-curve $-1 0 -27.648371711410679 -11.664934681978727 -1 0 0 I I #
vertex $-1 $374 $615 #
straight-curve $-1 0 27.648371711410679 -11.664934681978727 1 0 0 I I #
point $-1 60.657368694112975 27.648371711410679 -11.664934681978727 #
point $-1 60.657368694112975 -27.648371711410679 -11.664934681978727 #
straight-curve $-1 -60.657368694112975 0 11.664934681978727 0 -1 0 I I #
point $-1 -60.657368694112975 27.648371711410679 11.664934681978727 #
point $-1 -60.657368694112975 -27.648371711410679 11.664934681978727 #
straight-curve $-1 60.657368694112975 -27.648371711410679 0 0 0 -1 I I #
straight-curve $-1 60.657368694112975 27.648371711410679 0 0 0 -1 I I #
plane-surface $-1 -60.657368694112975 0 0 1 0 0 0 0 -1 forward_v I I I I #
edge $-1 $403 7.4086305302274518 $407 11.377065018398159 $406 $616 forward 7 unknown #
edge $-1 $411 -11.377065018398159 $402 -7.4086305302274518 $409 $617 forward 7 unknown #
straight-curve $-1 -47.034994818733381 -20.769912792710965 0 0 0 -1 I I #
edge $-1 $543 -11.664934681978727 $541 11.664934681978727 $413 $618 forward 7 unknown #
vertex $-1 $540 $619 #
straight-curve $-1 -26.923090878211589 -16.801478304540257 -11.664934681978727 1 0 0 I I #
vertex $-1 $414 $620 #
straight-curve $-1 -26.923090878211589 -16.801478304540257 11.664934681978727 -1 0 0 I I #
point $-1 -47.034994818733381 -16.801478304540257 11.664934681978727 #
point $-1 -47.034994818733381 -16.801478304540257 -11.664934681978727 #
point $-1 -47.034994818733381 -20.769912792710965 -11.664934681978727 #
point $-1 -47.034994818733381 -20.769912792710965 11.664934681978727 #
straight-curve $-1 -60.657368694112975 0 11.664934681978727 0 -1 0 I I #
straight-curve $-1 -60.657368694112975 0 -11.664934681978727 0 1 0 I I #
loop $-1 $-1 $432 $418 #
plane-surface $-1 60.657368694112975 0 0 -1 0 0 0 0 1 forward_v I I I I #
coedge $-1 $434 $425 $421 $554 forward $279 $-1 #
edge $-1 $430 20.111903940521792 $559 33.734277815901386 $553 $621 forward 7 unknown #
coedge $-1 $427 $437 $422 $556 forward $419 $-1 #
edge $-1 $560 -33.734277815901386 $429 -20.111903940521792 $555 $622 forward 7 unknown #
coedge $-1 $432 $423 $437 $569 reversed $551 $-1 #
coedge $-1 $423 $432 $434 $567 reversed $551 $-1 #
vertex $-1 $567 $623 #
vertex $-1 $424 $624 #
straight-curve $-1 60.657368694112975 -16.801478304540257 0 0 0 1 I I #
straight-curve $-1 47.034994818733381 -9.3928477743128056 -11.664934681978727 0 1 0 I I #
straight-curve $-1 47.034994818733381 -9.3928477743128056 11.664934681978727 0 -1 0 I I #
point $-1 47.034994818733381 -16.801478304540257 11.664934681978727 #
point $-1 47.034994818733381 -16.801478304540257 -11.664934681978727 #
straight-curve $-1 60.657368694112975 -20.769912792710965 0 0 0 -1 I I #
edge $-1 $559 16.801478304540257 $435 20.769912792710965 $558 $625 forward 7 unknown #
point $-1 60.657368694112975 -20.769912792710965 -11.664934681978727 #
edge $-1 $438 -20.769912792710965 $560 -16.801478304540257 $557 $626 forward 7 unknown #
point $-1 60.657368694112975 -20.769912792710965 11.664934681978727 #
edge $-1 $572 46.163271051687985 $575 49.349966320875794 $443 $627 forward 7 unknown #
vertex $-1 $457 $628 #
straight-curve $-1 -9.3455755816286334 53.472120151802173 11.664934681978728 0 1 0 I I #
edge $-1 $575 2.0400510740859339 $454 12.570997940999465 $453 $629 forward 7 unknown #
vertex $-1 $574 $630 #
straight-curve $-1 -9.3455755816286334 0.83997929239188807 56.841861372661057 0 -0.48480960649040278 0.87461971476443456 I I #
point $-1 -9.3455755816286334 25.881957744998001 11.664934681978728 #
point $-1 -19.876522448542165 27.648371711410679 8.47823941279092 #
straight-curve $-1 0 27.648371711410679 11.664934681978727 -1 0 0 I I #
vertex $-1 $460 $631 #
point $-1 -16.367680486566876 25.448857653289007 9.3419461483317772 #
vertex $-1 $464 $632 #
point $-1 -11.854417543603937 25.448857653289007 9.3419461483317772 #
coedge $-1 $479 $478 $471 $585 forward $468 $-1 #
edge $-1 $586 46.163271051687985 $589 49.349966320875794 $584 $633 forward 7 unknown #
vertex $-1 $483 $634 #
straight-curve $-1 19.876522448542193 53.472120151802173 11.664934681978728 0 1 0 I I #
edge $-1 $589 -12.570997940999479 $480 -2.0400510740859481 $479 $635 forward 7 unknown #
vertex $-1 $588 $636 #
straight-curve $-1 19.876522448542193 0.83997929239188807 56.841861372661057 0 -0.48480960649040278 0.87461971476443456 I I #
point $-1 19.876522448542193 25.881957744998001 11.664934681978728 #
point $-1 9.3455755816286619 27.648371711410679 8.47823941279092 #
straight-curve $-1 0 27.648371711410679 11.664934681978727 -1 0 0 I I #
vertex $-1 $486 $637 #
point $-1 12.854417543603944 25.448857653289007 9.3419461483317772 #
vertex $-1 $490 $638 #
point $-1 17.367680486566883 25.448857653289007 9.3419461483317772 #
coedge $-1 $505 $504 $497 $599 forward $494 $-1 #
edge $-1 $600 43.498362178487 $603 47.717434686922971 $598 $639 forward 7 unknown #
vertex $-1 $509 $640 #
straight-curve $-1 25.857938924229295 -45.967694468831127 11.664934681978728 0 -1 0 I I #
edge $-1 $603 9.2274774308231997 $506 24.03344555598899 $505 $641 forward 7 unknown #
vertex $-1 $602 $642 #
straight-curve $-1 25.857938924229295 -27.648371711410661 7.4458621735427641 0 0.84804809178421925 0.52991927123019833 I I #
point $-1 25.857938924229295 -20.896444419594744 11.664934681978727 #
point $-1 40.663907049395085 -27.648371711410679 7.4458621735427535 #
straight-curve $-1 0 -27.648371711410679 11.664934681978727 1 0 0 I I #
vertex $-1 $512 $643 #
point $-1 31.588215531419507 -22.12550483558493 6.119635121492454 #
vertex $-1 $516 $644 #
point $-1 37.933630442204844 -22.12550483558493 6.119635121492454 #
straight-curve $-1 -60.657368694112975 27.648371711410679 0 0 0 -1 I I #
point $-1 -60.657368694112975 -27.648371711410679 -11.664934681978727 #
straight-curve $-1 -60.657368694112975 0 -11.664934681978727 0 1 0 I I #
point $-1 -60.657368694112975 27.648371711410679 -11.664934681978727 #
straight-curve $-1 -47.034994818733381 -9.3928477743128056 -11.664934681978727 0 -1 0 I I #
straight-curve $-1 -47.034994818733381 -9.3928477743128056 11.664934681978727 0 1 0 I I #
straight-curve $-1 -60.657368694112975 -16.801478304540257 0 0 0 -1 I I #
point $-1 -60.657368694112975 -16.801478304540257 -11.664934681978727 #
point $-1 -60.657368694112975 -16.801478304540257 11.664934681978727 #
straight-curve $-1 26.923090878211589 -16.801478304540257 -11.664934681978727 1 0 0 I I #
straight-curve $-1 26.923090878211589 -16.801478304540257 11.664934681978727 -1 0 0 I I #
point $-1 60.657368694112975 -16.801478304540257 -11.664934681978727 #
point $-1 60.657368694112975 -16.801478304540257 11.664934681978727 #
straight-curve $-1 60.657368694112975 0 -11.664934681978727 0 -1 0 I I #
straight-curve $-1 60.657368694112975 0 11.664934681978727 0 1 0 I I #
straight-curve $-1 -9.3455755816286334 27.648371711410675 57.828205733666714 0 0 -1 I I #
point $-1 -9.3455755816286334 27.648371711410679 11.664934681978727 #
straight-curve $-1 -7.3055245075426996 27.648371711410679 8.4782394127909235 -1 0 0 I I #
point $-1 -9.3455755816286334 27.648371711410679 8.47823941279092 #
point $-1 -16.867680486566876 25.01154779590679 9.0995413450865765 #
point $-1 -12.354417543603937 25.01154779590679 9.0995413450865765 #
straight-curve $-1 19.876522448542193 27.648371711410675 57.828205733666714 0 0 -1 I I #
point $-1 19.876522448542193 27.648371711410679 11.664934681978727 #
straight-curve $-1 7.3055245075427138 27.648371711410679 8.4782394127909235 -1 0 0 I I #
point $-1 19.876522448542193 27.648371711410679 8.47823941279092 #
point $-1 12.354417543603944 25.01154779590679 9.0995413450865765 #
point $-1 16.867680486566883 25.01154779590679 9.0995413450865765 #
straight-curve $-1 25.857938924229295 -27.648371711410675 55.163296860465728 0 0 -1 I I #
point $-1 25.857938924229295 -27.648371711410679 11.664934681978727 #
straight-curve $-1 16.630461493406095 -27.648371711410679 7.4458621735427517 1 0 0 I I #
point $-1 25.857938924229295 -27.648371711410679 7.4458621735427535 #
point $-1 30.088215531419507 -21.330625928739632 4.8475629838161254 #
point $-1 36.433630442204844 -21.330625928739632 4.8475629838161254 #
End-of-ACIS-data 