500 0 5 0           
7 Unknown 11 ACIS 5.0 NT 24 Thu Mar 25 20:24:28 1999 
-1 9.9999999999999995e-007 1e-010 
body $-1 $5 $-1 $6 #
body $-1 $7 $-1 $8 #
body $-1 $9 $-1 $10 #
body $-1 $11 $-1 $12 #
body $-1 $13 $-1 $14 #
lump $-1 $-1 $15 $0 #
transform $-1 1 0 0 0 1 0 0 0 1 62.379833368938264 33.352564797116429 13.291048474114419 1 rotate no_reflect no_shear #
lump $-1 $-1 $16 $1 #
transform $-1 1 0 0 0 1 0 0 0 1 62.379833368938264 33.352564797116429 13.291048474114419 1 rotate no_reflect no_shear #
lump $-1 $-1 $17 $2 #
transform $-1 1 0 0 0 1 0 0 0 1 62.379833368938264 33.352564797116429 13.291048474114419 1 rotate no_reflect no_shear #
lump $-1 $-1 $18 $3 #
transform $-1 1 0 0 0 1 0 0 0 1 62.379833368938264 33.352564797116429 13.291048474114419 1 rotate no_reflect no_shear #
lump $-1 $-1 $19 $4 #
transform $-1 1 0 0 0 1 0 0 0 1 62.379833368938264 33.352564797116429 13.291048474114419 1 rotate no_reflect no_shear #
shell $-1 $-1 $-1 $20 $-1 $5 #
shell $-1 $-1 $-1 $21 $-1 $7 #
shell $-1 $-1 $-1 $22 $-1 $9 #
shell $-1 $-1 $-1 $23 $-1 $11 #
shell $-1 $-1 $-1 $24 $-1 $13 #
face $-1 $25 $26 $15 $-1 $27 forward single #
face $-1 $28 $29 $16 $-1 $30 forward single #
face $-1 $31 $32 $17 $-1 $33 forward single #
face $-1 $34 $35 $18 $-1 $36 reversed single #
face $-1 $37 $38 $19 $-1 $39 reversed single #
face $-1 $40 $41 $15 $-1 $42 reversed single #
loop $-1 $-1 $43 $20 #
plane-surface $-1 0 0 13.291048474114419 0 0 1 1 0 0 forward_v I I I I #
face $-1 $44 $45 $16 $-1 $46 forward single #
loop $-1 $-1 $47 $21 #
plane-surface $-1 -56.878904194145697 -11.713957462627697 0 0 1 0 0 0 1 forward_v I I I I #
face $-1 $48 $49 $17 $-1 $50 forward single #
loop $-1 $-1 $51 $22 #
plane-surface $-1 -51.377975019353137 105.93679188575166 131.43522569930963 1 0 0 0 -0.85716730853699208 -0.51503806187062418 forward_v I I I I #
face $-1 $52 $53 $18 $-1 $54 reversed single #
loop $-1 $55 $56 $23 #
cone-surface $-1 -47.355046520032005 31.530552610872885 11.14541083486076 0 -0.85716730853699208 -0.51503806187062418 0.5 0 0 1 I I 0 1 0.5 forward I I I I #
face $-1 $57 $58 $19 $-1 $59 reversed single #
loop $-1 $60 $61 $24 #
cone-surface $-1 -41.320653771050324 31.530552610872885 11.14541083486076 0 -0.85716730853699208 -0.51503806187062418 0.5 0 0 1 I I 0 1 0.5 forward I I I I #
face $-1 $62 $63 $15 $-1 $64 reversed single #
loop $-1 $-1 $65 $25 #
plane-surface $-1 0 0 -13.291048474114419 0 0 1 1 0 0 forward_v I I I I #
coedge $-1 $66 $67 $68 $69 forward $26 $-1 #
face $-1 $70 $71 $16 $-1 $72 forward single #
loop $-1 $-1 $73 $28 #
plane-surface $-1 -56.878904194145697 -6.7704678488875913 0 0 -1 0 0 0 -1 forward_v I I I I #
coedge $-1 $74 $75 $76 $77 reversed $29 $-1 #
face $-1 $78 $79 $17 $-1 $80 forward single #
loop $-1 $-1 $81 $31 #
plane-surface $-1 -44.337850145541168 -1.0031158659260768 67.179248743008714 0 0.85716730853699208 0.51503806187062418 1 0 0 forward_v I I I I #
coedge $-1 $82 $83 $84 $85 reversed $32 $-1 #
face $-1 $86 $87 $18 $-1 $88 forward single #
loop $-1 $89 $90 $34 #
cone-surface $-1 -47.355046520032005 30.482440800952226 10.51564174564222 0 -0.85716730853699208 -0.51503806187062418 0.25 0 0 1 I I -0.70710678118654746 0.70710678118654746 0.25 forward I I I I #
loop $-1 $-1 $91 $23 #
coedge $-1 $56 $56 $92 $93 reversed $35 $-1 #
face $-1 $94 $95 $19 $-1 $96 reversed single #
loop $-1 $97 $98 $37 #
cone-surface $-1 -41.320653771050324 30.482440800952226 10.51564174564222 0 -0.85716730853699208 -0.51503806187062418 0.25 0 0 1 I I -0.70710678118654746 0.70710678118654746 0.25 forward I I I I #
loop $-1 $-1 $99 $24 #
coedge $-1 $61 $61 $100 $101 reversed $38 $-1 #
face $-1 $102 $103 $15 $-1 $104 reversed single #
loop $-1 $-1 $105 $40 #
plane-surface $-1 0 -33.352564797116429 0 0 1 0 0 0 1 forward_v I I I I #
coedge $-1 $106 $107 $108 $109 forward $41 $-1 #
coedge $-1 $110 $43 $111 $112 forward $26 $-1 #
coedge $-1 $43 $110 $113 $114 forward $26 $-1 #
coedge $-1 $115 $116 $43 $69 reversed $117 $-1 #
edge $-1 $118 -33.352564797116429 $119 33.352564797116429 $68 $120 forward 7 unknown #
face $-1 $121 $122 $16 $-1 $123 forward single #
loop $-1 $-1 $124 $44 #
plane-surface $-1 -51.37797501935313 -9.2422126557576441 0 -1 0 0 0 0 1 forward_v I I I I #
coedge $-1 $125 $126 $127 $128 reversed $45 $-1 #
coedge $-1 $129 $47 $130 $131 reversed $29 $-1 #
coedge $-1 $47 $129 $132 $133 reversed $29 $-1 #
coedge $-1 $134 $135 $47 $77 forward $136 $-1 #
edge $-1 $137 -13.291048474114419 $138 13.291048474114419 $76 $139 forward 7 unknown #
face $-1 $140 $141 $17 $-1 $142 forward single #
loop $-1 $-1 $143 $48 #
plane-surface $-1 -37.297725271729199 105.93679188575166 131.43522569930963 -1 0 0 0 0.85716730853699208 0.51503806187062418 forward_v I I I I #
coedge $-1 $144 $145 $146 $147 reversed $49 $-1 #
coedge $-1 $83 $51 $145 $148 forward $32 $-1 #
coedge $-1 $51 $82 $149 $150 reversed $32 $-1 #
coedge $-1 $151 $146 $51 $85 forward $141 $-1 #
edge $-1 $152 -21.592215552673643 $153 -19.615831145759401 $84 $154 forward 7 unknown #
face $-1 $155 $156 $18 $-1 $157 forward single #
loop $-1 $-1 $158 $52 #
plane-surface $-1 -51.377975019353137 105.93679188575166 131.43522569930963 1 0 0 0 -0.85716730853699208 -0.51503806187062418 forward_v I I I I #
loop $-1 $-1 $159 $34 #
coedge $-1 $90 $90 $91 $160 forward $53 $-1 #
coedge $-1 $91 $91 $90 $160 reversed $55 $-1 #
coedge $-1 $92 $92 $56 $93 forward $156 $-1 #
edge $-1 $161 -3.0452700220599808e-015 $161 6.2831853071795978 $92 $162 forward 7 unknown #
face $-1 $163 $164 $19 $-1 $165 reversed single #
loop $-1 $166 $167 $57 #
cone-surface $-1 -47.355046520032005 31.530552610872885 11.14541083486076 0 -0.85716730853699208 -0.51503806187062418 0.5 0 0 1 I I 0 1 0.5 forward I I I I #
loop $-1 $-1 $168 $37 #
coedge $-1 $98 $98 $99 $169 forward $58 $-1 #
coedge $-1 $99 $99 $98 $169 reversed $60 $-1 #
coedge $-1 $100 $100 $61 $101 forward $170 $-1 #
edge $-1 $171 -3.0452700220599808e-015 $171 6.2831853071795978 $100 $172 forward 7 unknown #
face $-1 $173 $174 $15 $-1 $175 reversed single #
loop $-1 $-1 $176 $62 #
plane-surface $-1 -62.379833368938264 0 0 1 0 0 0 0 -1 forward_v I I I I #
coedge $-1 $177 $113 $178 $179 forward $63 $-1 #
coedge $-1 $180 $65 $177 $181 forward $41 $-1 #
coedge $-1 $65 $180 $182 $183 forward $41 $-1 #
coedge $-1 $116 $115 $65 $109 reversed $117 $-1 #
edge $-1 $184 -33.352564797116429 $185 33.352564797116429 $108 $186 forward 7 unknown #
coedge $-1 $67 $66 $187 $188 forward $26 $-1 #
coedge $-1 $189 $190 $66 $112 reversed $174 $-1 #
edge $-1 $119 -62.379833368938264 $191 62.379833368938264 $111 $192 forward 7 unknown #
coedge $-1 $105 $193 $67 $114 reversed $63 $-1 #
edge $-1 $194 -62.379833368938264 $118 62.379833368938264 $113 $195 forward 7 unknown #
coedge $-1 $108 $68 $193 $196 forward $117 $-1 #
coedge $-1 $68 $108 $189 $197 reversed $117 $-1 #
loop $-1 $-1 $115 $173 #
vertex $-1 $69 $198 #
vertex $-1 $69 $199 #
straight-curve $-1 62.379833368938264 0 13.291048474114419 0 1 0 I I #
face $-1 $200 $136 $16 $-1 $201 reversed single #
loop $-1 $-1 $202 $70 #
plane-surface $-1 0 0 13.291048474114419 0 0 1 1 0 0 forward_v I I I I #
coedge $-1 $203 $204 $129 $205 reversed $71 $-1 #
coedge $-1 $206 $73 $202 $207 reversed $45 $-1 #
coedge $-1 $73 $206 $208 $209 reversed $45 $-1 #
coedge $-1 $204 $203 $73 $128 forward $71 $-1 #
edge $-1 $210 -13.291048474114419 $211 13.291048474114419 $127 $212 forward 7 unknown #
coedge $-1 $75 $74 $124 $205 forward $29 $-1 #
coedge $-1 $213 $214 $74 $131 forward $122 $-1 #
edge $-1 $215 22.938522922280281 $137 33.940381271865419 $130 $216 forward 7 unknown #
coedge $-1 $217 $218 $75 $133 forward $219 $-1 #
edge $-1 $138 -33.940381271865419 $220 -22.938522922280281 $132 $221 forward 7 unknown #
coedge $-1 $222 $76 $218 $223 reversed $136 $-1 #
coedge $-1 $76 $222 $213 $224 reversed $136 $-1 #
loop $-1 $-1 $76 $121 #
vertex $-1 $224 $225 #
vertex $-1 $77 $226 #
straight-curve $-1 -62.379833368938264 -11.713957462627697 0 0 0 -1 I I #
face $-1 $227 $228 $17 $-1 $229 forward single #
loop $-1 $-1 $230 $78 #
plane-surface $-1 0 0 13.291048474114419 0 0 1 1 0 0 forward_v I I I I #
coedge $-1 $231 $232 $230 $233 reversed $79 $-1 #
coedge $-1 $234 $81 $232 $235 reversed $49 $-1 #
coedge $-1 $81 $234 $82 $148 reversed $49 $-1 #
coedge $-1 $84 $230 $81 $147 forward $141 $-1 #
edge $-1 $236 15.128800198958615 $152 29.209049946582553 $146 $237 forward 7 unknown #
edge $-1 $152 62.86777357488161 $238 66.705129594232872 $82 $239 forward 7 unknown #
coedge $-1 $240 $241 $83 $150 forward $242 $-1 #
edge $-1 $153 52.426564375540394 $238 55.715820506545931 $149 $243 forward 7 unknown #
coedge $-1 $244 $84 $241 $245 forward $141 $-1 #
vertex $-1 $147 $246 #
vertex $-1 $245 $247 #
straight-curve $-1 -51.377975019353137 52.96839594287583 13.291048474114419 0 1 0 I I #
face $-1 $248 $249 $18 $-1 $250 forward single #
loop $-1 $251 $92 $86 #
plane-surface $-1 -44.337850145541168 -1.0031158659260768 67.179248743008714 0 0.85716730853699208 0.51503806187062418 1 0 0 forward_v I I I I #
coedge $-1 $252 $253 $254 $255 reversed $87 $-1 #
coedge $-1 $159 $159 $-1 $256 forward $89 $-1 #
edge $-1 $257 0 $257 6.2831853071796004 $90 $258 forward 7 unknown #
vertex $-1 $93 $259 #
ellipse-curve $-1 -47.355046520032005 32.364372593659297 11.646420408611647 0 -0.85716730853699208 -0.51503806187062418 0.5 0 0 1 I I #
face $-1 $260 $261 $19 $-1 $262 forward single #
loop $-1 $263 $264 $94 #
cone-surface $-1 -47.355046520032005 30.482440800952226 10.51564174564222 0 -0.85716730853699208 -0.51503806187062418 0.25 0 0 1 I I -0.70710678118654746 0.70710678118654746 0.25 forward I I I I #
loop $-1 $-1 $265 $57 #
coedge $-1 $167 $167 $266 $267 reversed $95 $-1 #
coedge $-1 $168 $168 $-1 $268 forward $97 $-1 #
edge $-1 $269 0 $269 6.2831853071796004 $98 $270 forward 7 unknown #
loop $-1 $271 $100 $260 #
vertex $-1 $101 $272 #
ellipse-curve $-1 -41.320653771050324 32.364372593659297 11.646420408611647 0 -0.85716730853699208 -0.51503806187062418 0.5 0 0 1 I I #
face $-1 $-1 $117 $15 $-1 $273 reversed single #
loop $-1 $-1 $189 $102 #
plane-surface $-1 0 33.352564797116429 0 0 -1 0 0 0 -1 forward_v I I I I #
coedge $-1 $274 $187 $190 $275 forward $103 $-1 #
coedge $-1 $193 $105 $106 $181 reversed $63 $-1 #
coedge $-1 $187 $274 $105 $179 reversed $103 $-1 #
edge $-1 $194 -13.291048474114419 $276 13.291048474114419 $178 $277 forward 7 unknown #
coedge $-1 $107 $106 $274 $278 forward $41 $-1 #
edge $-1 $185 -62.379833368938264 $276 62.379833368938264 $177 $279 forward 7 unknown #
coedge $-1 $190 $189 $107 $183 reversed $174 $-1 #
edge $-1 $280 -62.379833368938264 $184 62.379833368938264 $182 $281 forward 7 unknown #
vertex $-1 $109 $282 #
vertex $-1 $196 $283 #
straight-curve $-1 62.379833368938264 0 -13.291048474114419 0 -1 0 I I #
coedge $-1 $176 $178 $110 $188 reversed $103 $-1 #
edge $-1 $191 -33.352564797116429 $194 33.352564797116429 $187 $284 forward 7 unknown #
coedge $-1 $182 $111 $116 $197 forward $174 $-1 #
coedge $-1 $111 $182 $176 $275 reversed $174 $-1 #
vertex $-1 $112 $285 #
straight-curve $-1 0 33.352564797116429 13.291048474114419 -1 0 0 I I #
coedge $-1 $113 $177 $115 $196 reversed $63 $-1 #
vertex $-1 $188 $286 #
straight-curve $-1 0 -33.352564797116429 13.291048474114419 1 0 0 I I #
edge $-1 $118 -13.291048474114419 $185 13.291048474114419 $115 $287 forward 7 unknown #
edge $-1 $119 -13.291048474114419 $184 13.291048474114419 $116 $288 forward 7 unknown #
point $-1 62.379833368938264 -33.352564797116429 13.291048474114419 #
point $-1 62.379833368938264 33.352564797116429 13.291048474114419 #
face $-1 $289 $219 $16 $-1 $290 reversed single #
plane-surface $-1 -62.379833368938264 0 0 1 0 0 0 0 -1 forward_v I I I I #
coedge $-1 $214 $291 $125 $207 forward $122 $-1 #
coedge $-1 $127 $124 $214 $292 reversed $71 $-1 #
coedge $-1 $124 $127 $217 $293 reversed $71 $-1 #
edge $-1 $215 -13.291048474114419 $220 13.291048474114419 $124 $294 forward 7 unknown #
coedge $-1 $126 $125 $295 $296 reversed $45 $-1 #
edge $-1 $297 -33.940381271865419 $210 -22.938522922280281 $202 $298 forward 7 unknown #
coedge $-1 $299 $217 $126 $209 forward $219 $-1 #
edge $-1 $211 22.938522922280281 $300 33.940381271865419 $208 $301 forward 7 unknown #
vertex $-1 $207 $302 #
vertex $-1 $209 $303 #
straight-curve $-1 -51.37797501935313 -6.7704678488875913 0 0 0 -1 I I #
coedge $-1 $304 $130 $135 $224 forward $122 $-1 #
coedge $-1 $130 $202 $203 $292 forward $122 $-1 #
vertex $-1 $131 $305 #
straight-curve $-1 -28.439452097072849 -11.713957462627697 13.291048474114419 -1 0 0 I I #
coedge $-1 $208 $132 $204 $293 forward $219 $-1 #
coedge $-1 $132 $306 $134 $223 forward $219 $-1 #
loop $-1 $-1 $208 $200 #
vertex $-1 $133 $307 #
straight-curve $-1 -28.439452097072849 -11.713957462627697 -13.291048474114419 1 0 0 I I #
coedge $-1 $135 $134 $308 $309 reversed $136 $-1 #
edge $-1 $310 -33.352564797116429 $138 -11.713957462627697 $134 $311 forward 7 unknown #
edge $-1 $137 11.713957462627697 $312 33.352564797116429 $135 $313 forward 7 unknown #
point $-1 -62.379833368938264 -11.713957462627697 13.291048474114419 #
point $-1 -62.379833368938264 -11.713957462627697 -13.291048474114419 #
face $-1 $314 $315 $17 $-1 $316 forward single #
loop $-1 $-1 $317 $140 #
plane-surface $-1 -56.878904194145697 -11.713957462627697 0 0 1 0 0 0 1 forward_v I I I I #
coedge $-1 $146 $318 $143 $233 forward $141 $-1 #
coedge $-1 $232 $143 $319 $320 reversed $79 $-1 #
coedge $-1 $143 $231 $144 $235 forward $79 $-1 #
edge $-1 $321 19.615831145759401 $236 21.592215552673643 $230 $322 forward 7 unknown #
coedge $-1 $145 $144 $240 $323 reversed $49 $-1 #
edge $-1 $324 -66.705129594232872 $236 -62.86777357488161 $232 $325 forward 7 unknown #
vertex $-1 $147 $326 #
straight-curve $-1 -22.168925072770584 31.376180390202183 13.291048474114419 -1 0 0 I I #
vertex $-1 $323 $327 #
straight-curve $-1 -51.377975019353137 -1.0031158659260768 67.179248743008714 0 0.51503806187062418 -0.85716730853699208 I I #
coedge $-1 $319 $149 $234 $323 forward $242 $-1 #
coedge $-1 $149 $328 $151 $245 reversed $242 $-1 #
loop $-1 $-1 $319 $329 #
straight-curve $-1 -51.377975019353137 33.352564797116429 65.717612849654813 0 0 -1 I I #
coedge $-1 $330 $151 $331 $332 forward $141 $-1 #
edge $-1 $153 51.377975019353137 $333 62.379833368938264 $241 $334 forward 7 unknown #
point $-1 -51.377975019353137 31.376180390202187 13.291048474114419 #
point $-1 -51.377975019353137 33.352564797116429 13.291048474114419 #
face $-1 $335 $336 $18 $-1 $337 forward single #
loop $-1 $-1 $338 $155 #
plane-surface $-1 -37.297725271729199 105.93679188575166 131.43522569930963 -1 0 0 0 0.85716730853699208 0.51503806187062418 forward_v I I I I #
loop $-1 $-1 $339 $86 #
coedge $-1 $253 $158 $340 $341 forward $87 $-1 #
coedge $-1 $158 $252 $342 $343 reversed $87 $-1 #
coedge $-1 $344 $345 $158 $255 forward $336 $-1 #
edge $-1 $346 -21.592215552673643 $347 -19.615831145759401 $254 $348 forward 7 unknown #
edge $-1 $349 1 $349 0 $159 $-1 forward 7 unknown #
vertex $-1 $160 $350 #
ellipse-curve $-1 -47.355046520032005 30.696732628086473 10.644401261109877 0 0.85716730853699208 0.51503806187062418 0.5 0 0 1 I I #
point $-1 -46.855046520032005 32.364372593659297 11.646420408611645 #
face $-1 $351 $170 $19 $-1 $352 forward single #
loop $-1 $-1 $353 $163 #
plane-surface $-1 -51.377975019353137 105.93679188575166 131.43522569930963 1 0 0 0 -0.85716730853699208 -0.51503806187062418 forward_v I I I I #
loop $-1 $-1 $354 $94 #
coedge $-1 $264 $264 $265 $355 forward $164 $-1 #
coedge $-1 $265 $265 $264 $355 reversed $166 $-1 #
coedge $-1 $266 $266 $167 $267 forward $271 $-1 #
edge $-1 $356 -3.0452700220599808e-015 $356 6.2831853071795978 $266 $357 forward 7 unknown #
edge $-1 $358 1 $358 0 $168 $-1 forward 7 unknown #
vertex $-1 $169 $359 #
ellipse-curve $-1 -41.320653771050324 30.696732628086473 10.644401261109877 0 0.85716730853699208 0.51503806187062418 0.5 0 0 1 I I #
loop $-1 $360 $266 $260 #
point $-1 -40.820653771050324 32.364372593659297 11.646420408611645 #
plane-surface $-1 62.379833368938264 0 0 -1 0 0 0 0 1 forward_v I I I I #
coedge $-1 $178 $176 $180 $278 reversed $103 $-1 #
edge $-1 $191 -13.291048474114419 $280 13.291048474114419 $190 $361 forward 7 unknown #
vertex $-1 $278 $362 #
straight-curve $-1 -62.379833368938264 -33.352564797116429 0 0 0 -1 I I #
edge $-1 $276 -33.352564797116429 $280 33.352564797116429 $274 $363 forward 7 unknown #
straight-curve $-1 0 -33.352564797116429 -13.291048474114419 -1 0 0 I I #
vertex $-1 $183 $364 #
straight-curve $-1 0 33.352564797116429 -13.291048474114419 1 0 0 I I #
point $-1 62.379833368938264 33.352564797116429 -13.291048474114419 #
point $-1 62.379833368938264 -33.352564797116429 -13.291048474114419 #
straight-curve $-1 -62.379833368938264 0 13.291048474114419 0 -1 0 I I #
point $-1 -62.379833368938264 33.352564797116429 13.291048474114419 #
point $-1 -62.379833368938264 -33.352564797116429 13.291048474114419 #
straight-curve $-1 62.379833368938264 -33.352564797116429 0 0 0 -1 I I #
straight-curve $-1 62.379833368938264 33.352564797116429 0 0 0 -1 I I #
face $-1 $365 $366 $16 $-1 $367 reversed single #
plane-surface $-1 0 0 -13.291048474114419 0 0 1 1 0 0 forward_v I I I I #
coedge $-1 $202 $368 $369 $370 forward $122 $-1 #
edge $-1 $210 2.1493615210087693 $215 7.0928511347488747 $214 $371 forward 7 unknown #
edge $-1 $220 -7.0928511347488747 $211 -2.1493615210087693 $217 $372 forward 7 unknown #
straight-curve $-1 -51.37797501935313 -11.713957462627697 0 0 0 -1 I I #
coedge $-1 $369 $373 $206 $296 forward $374 $-1 #
edge $-1 $300 -13.291048474114419 $297 13.291048474114419 $295 $375 forward 7 unknown #
vertex $-1 $296 $376 #
straight-curve $-1 -28.439452097072849 -6.7704678488875913 13.291048474114419 1 0 0 I I #
coedge $-1 $377 $208 $373 $378 forward $219 $-1 #
vertex $-1 $378 $379 #
straight-curve $-1 -28.439452097072849 -6.7704678488875913 -13.291048474114419 -1 0 0 I I #
point $-1 -51.37797501935313 -6.7704678488875913 13.291048474114419 #
point $-1 -51.37797501935313 -6.7704678488875913 -13.291048474114419 #
coedge $-1 $380 $213 $381 $382 forward $122 $-1 #
point $-1 -51.37797501935313 -11.713957462627697 13.291048474114419 #
coedge $-1 $218 $383 $384 $385 forward $219 $-1 #
point $-1 -51.37797501935313 -11.713957462627697 -13.291048474114419 #
coedge $-1 $384 $381 $222 $309 forward $366 $-1 #
edge $-1 $312 -13.291048474114419 $310 13.291048474114419 $222 $386 forward 7 unknown #
vertex $-1 $223 $387 #
straight-curve $-1 -62.379833368938264 0 -13.291048474114419 0 1 0 I I #
vertex $-1 $224 $388 #
straight-curve $-1 -62.379833368938264 0 13.291048474114419 0 -1 0 I I #
face $-1 $389 $390 $17 $-1 $391 forward single #
loop $-1 $-1 $392 $227 #
plane-surface $-1 -56.878904194145697 -6.7704678488875913 0 0 -1 0 0 0 -1 forward_v I I I I #
coedge $-1 $393 $394 $395 $396 reversed $228 $-1 #
coedge $-1 $230 $397 $398 $399 forward $141 $-1 #
coedge $-1 $398 $240 $231 $320 forward $242 $-1 #
edge $-1 $324 -55.715820506545931 $321 -52.426564375540394 $319 $400 forward 7 unknown #
vertex $-1 $320 $401 #
straight-curve $-1 -37.297725271729199 52.96839594287583 13.291048474114419 0 -1 0 I I #
edge $-1 $238 -29.209049946582553 $324 -15.128800198958615 $240 $402 forward 7 unknown #
vertex $-1 $323 $403 #
straight-curve $-1 -37.297725271729199 -1.0031158659260768 67.179248743008714 0 -0.51503806187062418 0.85716730853699208 I I #
point $-1 -37.297725271729199 31.376180390202187 13.291048474114419 #
point $-1 -51.377975019353137 33.352564797116429 10.001792343108882 #
coedge $-1 $241 $404 $405 $406 reversed $242 $-1 #
face $-1 $407 $242 $17 $-1 $408 reversed single #
coedge $-1 $409 $244 $410 $411 forward $141 $-1 #
coedge $-1 $405 $412 $244 $332 reversed $413 $-1 #
edge $-1 $333 -33.352564797116429 $414 6.7704678488875913 $331 $415 forward 7 unknown #
vertex $-1 $245 $416 #
straight-curve $-1 0 33.352564797116429 13.291048474114419 -1 0 0 I I #
face $-1 $417 $418 $18 $-1 $419 forward single #
loop $-1 $-1 $420 $248 #
plane-surface $-1 0 0 13.291048474114419 0 0 1 1 0 0 forward_v I I I I #
coedge $-1 $421 $422 $420 $423 reversed $249 $-1 #
coedge $-1 $424 $340 $345 $425 reversed $251 $-1 #
coedge $-1 $339 $426 $252 $341 reversed $251 $-1 #
edge $-1 $346 62.86777357488161 $427 66.705129594232872 $252 $428 forward 7 unknown #
coedge $-1 $429 $430 $253 $343 forward $431 $-1 #
edge $-1 $347 52.426564375540394 $427 55.715820506545931 $342 $432 forward 7 unknown #
coedge $-1 $433 $254 $430 $434 forward $336 $-1 #
coedge $-1 $254 $420 $339 $425 forward $336 $-1 #
vertex $-1 $425 $435 #
vertex $-1 $434 $436 #
straight-curve $-1 -51.377975019353137 52.96839594287583 13.291048474114419 0 1 0 I I #
vertex $-1 $256 $437 #
point $-1 -46.855046520032005 30.696732628086473 10.644401261109877 #
face $-1 $438 $439 $19 $-1 $440 forward single #
plane-surface $-1 -44.337850145541168 -1.0031158659260768 67.179248743008714 0 0.85716730853699208 0.51503806187062418 1 0 0 forward_v I I I I #
coedge $-1 $441 $442 $443 $444 reversed $261 $-1 #
coedge $-1 $354 $354 $-1 $445 forward $263 $-1 #
edge $-1 $446 0 $446 6.2831853071796004 $264 $447 forward 7 unknown #
vertex $-1 $267 $448 #
ellipse-curve $-1 -47.355046520032005 32.364372593659297 11.646420408611647 0 -0.85716730853699208 -0.51503806187062418 0.5 0 0 1 I I #
vertex $-1 $268 $449 #
point $-1 -40.820653771050324 30.696732628086473 10.644401261109877 #
loop $-1 $-1 $450 $260 #
straight-curve $-1 -62.379833368938264 33.352564797116429 0 0 0 -1 I I #
point $-1 -62.379833368938264 -33.352564797116429 -13.291048474114419 #
straight-curve $-1 -62.379833368938264 0 -13.291048474114419 0 1 0 I I #
point $-1 -62.379833368938264 33.352564797116429 -13.291048474114419 #
face $-1 $451 $374 $16 $-1 $201 reversed single #
loop $-1 $-1 $308 $289 #
plane-surface $-1 0 -33.352564797116429 0 0 1 0 0 0 1 forward_v I I I I #
coedge $-1 $291 $380 $452 $453 forward $122 $-1 #
coedge $-1 $454 $295 $291 $370 reversed $374 $-1 #
edge $-1 $455 -33.352564797116429 $297 6.7704678488875913 $369 $313 forward 7 unknown #
straight-curve $-1 -51.37797501935313 -4.621106327878822 13.291048474114419 0 -1 0 I I #
straight-curve $-1 -51.37797501935313 -4.621106327878822 -13.291048474114419 0 1 0 I I #
coedge $-1 $295 $454 $299 $378 reversed $374 $-1 #
loop $-1 $-1 $295 $365 #
straight-curve $-1 -62.379833368938264 -6.7704678488875913 0 0 0 1 I I #
point $-1 -62.379833368938264 -6.7704678488875913 13.291048474114419 #
coedge $-1 $383 $299 $456 $457 forward $219 $-1 #
edge $-1 $300 -6.7704678488875913 $458 33.352564797116429 $373 $311 forward 7 unknown #
point $-1 -62.379833368938264 -6.7704678488875913 -13.291048474114419 #
coedge $-1 $368 $304 $459 $460 forward $122 $-1 #
coedge $-1 $308 $461 $304 $382 reversed $366 $-1 #
edge $-1 $312 -62.379833368938264 $462 62.379833368938264 $381 $463 forward 7 unknown #
coedge $-1 $306 $377 $464 $465 forward $219 $-1 #
coedge $-1 $461 $308 $306 $385 reversed $366 $-1 #
edge $-1 $466 -62.379833368938264 $310 62.379833368938264 $384 $467 forward 7 unknown #
straight-curve $-1 -62.379833368938264 -33.352564797116429 0 0 0 -1 I I #
point $-1 -62.379833368938264 -33.352564797116429 -13.291048474114419 #
point $-1 -62.379833368938264 -33.352564797116429 13.291048474114419 #
face $-1 $468 $469 $17 $-1 $470 reversed single #
loop $-1 $-1 $471 $314 #
plane-surface $-1 -51.37797501935313 -9.2422126557576441 0 -1 0 0 0 0 1 forward_v I I I I #
coedge $-1 $410 $472 $473 $474 reversed $315 $-1 #
coedge $-1 $475 $317 $476 $477 reversed $228 $-1 #
coedge $-1 $317 $475 $478 $479 reversed $228 $-1 #
coedge $-1 $480 $481 $317 $396 forward $469 $-1 #
edge $-1 $482 -13.291048474114419 $483 13.291048474114419 $395 $484 forward 7 unknown #
coedge $-1 $318 $485 $486 $487 forward $141 $-1 #
coedge $-1 $488 $319 $318 $399 reversed $242 $-1 #
edge $-1 $489 -62.379833368938264 $321 37.297725271729199 $398 $334 forward 7 unknown #
straight-curve $-1 -37.297725271729199 33.352564797116429 65.717612849654813 0 0 1 I I #
point $-1 -37.297725271729199 33.352564797116429 13.291048474114419 #
straight-curve $-1 -22.168925072770584 33.352564797116429 10.001792343108875 1 0 0 I I #
point $-1 -37.297725271729199 33.352564797116429 10.001792343108882 #
coedge $-1 $328 $488 $490 $491 reversed $242 $-1 #
coedge $-1 $492 $331 $328 $406 forward $413 $-1 #
edge $-1 $333 -13.291048474114419 $493 13.291048474114419 $328 $494 forward 7 unknown #
face $-1 $-1 $495 $17 $-1 $496 reversed single #
plane-surface $-1 0 33.352564797116429 0 0 -1 0 0 0 -1 forward_v I I I I #
coedge $-1 $476 $330 $497 $498 forward $141 $-1 #
coedge $-1 $499 $392 $330 $411 reversed $315 $-1 #
edge $-1 $414 -33.940381271865419 $500 -22.938522922280281 $330 $501 forward 7 unknown #
coedge $-1 $331 $492 $499 $502 forward $413 $-1 #
loop $-1 $-1 $412 $503 #
vertex $-1 $502 $504 #
straight-curve $-1 -62.379833368938264 0 13.291048474114419 0 -1 0 I I #
point $-1 -62.379833368938264 33.352564797116429 13.291048474114419 #
face $-1 $505 $506 $18 $-1 $507 forward single #
loop $-1 $-1 $508 $335 #
plane-surface $-1 -56.878904194145697 -11.713957462627697 0 0 1 0 0 0 1 forward_v I I I I #
coedge $-1 $345 $509 $338 $423 forward $336 $-1 #
coedge $-1 $422 $338 $510 $511 reversed $249 $-1 #
coedge $-1 $338 $421 $424 $512 forward $249 $-1 #
edge $-1 $513 19.615831145759401 $514 21.592215552673643 $420 $515 forward 7 unknown #
coedge $-1 $426 $339 $422 $512 reversed $251 $-1 #
edge $-1 $514 15.128800198958615 $346 29.209049946582553 $345 $516 forward 7 unknown #
coedge $-1 $340 $424 $429 $517 reversed $251 $-1 #
vertex $-1 $517 $518 #
straight-curve $-1 -51.377975019353137 -1.0031158659260768 67.179248743008714 0 0.51503806187062418 -0.85716730853699208 I I #
coedge $-1 $510 $342 $426 $517 forward $431 $-1 #
coedge $-1 $342 $519 $344 $434 reversed $431 $-1 #
loop $-1 $-1 $510 $520 #
straight-curve $-1 -51.377975019353137 33.352564797116429 65.717612849654813 0 0 -1 I I #
coedge $-1 $521 $344 $522 $523 forward $336 $-1 #
edge $-1 $347 51.377975019353137 $524 62.379833368938264 $430 $525 forward 7 unknown #
point $-1 -51.377975019353137 31.376180390202187 13.291048474114419 #
point $-1 -51.377975019353137 33.352564797116429 13.291048474114419 #
point $-1 -47.355046520032005 30.268148973817979 10.386882230174564 #
face $-1 $526 $527 $19 $-1 $528 forward single #
loop $-1 $-1 $529 $351 #
plane-surface $-1 -37.297725271729199 105.93679188575166 131.43522569930963 -1 0 0 0 0.85716730853699208 0.51503806187062418 forward_v I I I I #
coedge $-1 $442 $353 $530 $531 forward $261 $-1 #
coedge $-1 $353 $441 $532 $533 reversed $261 $-1 #
coedge $-1 $534 $535 $353 $444 forward $527 $-1 #
edge $-1 $536 -21.592215552673643 $537 -19.615831145759401 $443 $538 forward 7 unknown #
edge $-1 $539 1 $539 0 $354 $-1 forward 7 unknown #
vertex $-1 $355 $540 #
ellipse-curve $-1 -47.355046520032005 30.696732628086473 10.644401261109877 0 0.85716730853699208 0.51503806187062418 0.5 0 0 1 I I #
point $-1 -46.855046520032005 32.364372593659297 11.646420408611645 #
point $-1 -41.320653771050324 30.268148973817979 10.386882230174564 #
coedge $-1 $541 $530 $535 $542 reversed $360 $-1 #
face $-1 $543 $544 $16 $-1 $545 reversed single #
coedge $-1 $546 $547 $368 $453 reversed $544 $-1 #
edge $-1 $548 -62.379833368938264 $455 62.379833368938264 $452 $549 forward 7 unknown #
coedge $-1 $373 $369 $547 $550 forward $374 $-1 #
vertex $-1 $453 $551 #
coedge $-1 $547 $546 $377 $457 reversed $544 $-1 #
edge $-1 $458 -62.379833368938264 $552 62.379833368938264 $456 $553 forward 7 unknown #
vertex $-1 $457 $554 #
coedge $-1 $555 $556 $380 $460 reversed $557 $-1 #
edge $-1 $462 -33.352564797116429 $548 33.352564797116429 $459 $558 forward 7 unknown #
coedge $-1 $381 $384 $555 $559 reversed $366 $-1 #
vertex $-1 $460 $560 #
straight-curve $-1 0 -33.352564797116429 13.291048474114419 1 0 0 I I #
coedge $-1 $556 $555 $383 $465 reversed $557 $-1 #
edge $-1 $552 -33.352564797116429 $466 33.352564797116429 $464 $561 forward 7 unknown #
vertex $-1 $559 $562 #
straight-curve $-1 0 -33.352564797116429 -13.291048474114419 -1 0 0 I I #
face $-1 $563 $564 $17 $-1 $565 reversed single #
loop $-1 $-1 $395 $389 #
plane-surface $-1 -62.379833368938264 0 0 1 0 0 0 0 -1 forward_v I I I I #
coedge $-1 $497 $566 $475 $567 reversed $390 $-1 #
coedge $-1 $392 $499 $568 $569 reversed $315 $-1 #
coedge $-1 $566 $497 $392 $474 forward $390 $-1 #
edge $-1 $500 -13.291048474114419 $570 13.291048474114419 $473 $571 forward 7 unknown #
coedge $-1 $394 $393 $471 $567 forward $228 $-1 #
coedge $-1 $572 $409 $393 $477 forward $141 $-1 #
edge $-1 $573 22.938522922280281 $482 33.940381271865419 $476 $574 forward 7 unknown #
coedge $-1 $575 $576 $394 $479 forward $564 $-1 #
edge $-1 $483 -33.940381271865419 $577 -22.938522922280281 $478 $578 forward 7 unknown #
coedge $-1 $579 $395 $576 $580 reversed $469 $-1 #
coedge $-1 $395 $579 $572 $581 reversed $469 $-1 #
vertex $-1 $581 $582 #
vertex $-1 $396 $583 #
straight-curve $-1 -62.379833368938264 -11.713957462627697 0 0 0 -1 I I #
coedge $-1 $397 $572 $584 $585 forward $141 $-1 #
coedge $-1 $586 $587 $397 $487 reversed $495 $-1 #
edge $-1 $588 -33.352564797116429 $489 33.352564797116429 $486 $589 forward 7 unknown #
coedge $-1 $404 $398 $587 $590 forward $242 $-1 #
vertex $-1 $487 $591 #
coedge $-1 $592 $593 $404 $491 forward $564 $-1 #
edge $-1 $493 -62.379833368938264 $594 62.379833368938264 $404 $595 forward 7 unknown #
coedge $-1 $412 $405 $593 $596 reversed $413 $-1 #
vertex $-1 $491 $597 #
straight-curve $-1 -62.379833368938264 33.352564797116429 0 0 0 -1 I I #
loop $-1 $-1 $586 $407 #
plane-surface $-1 62.379833368938264 0 0 -1 0 0 0 0 1 forward_v I I I I #
coedge $-1 $473 $471 $409 $498 reversed $390 $-1 #
edge $-1 $500 2.1493615210087693 $573 7.0928511347488747 $409 $598 forward 7 unknown #
coedge $-1 $472 $410 $412 $502 reversed $315 $-1 #
vertex $-1 $411 $599 #
straight-curve $-1 -28.439452097072849 -6.7704678488875913 13.291048474114419 1 0 0 I I #
edge $-1 $600 -13.291048474114419 $414 13.291048474114419 $412 $601 forward 7 unknown #
face $-1 $329 $413 $17 $-1 $470 reversed single #
point $-1 -62.379833368938264 -6.7704678488875913 13.291048474114419 #
face $-1 $602 $603 $18 $-1 $604 forward single #
loop $-1 $-1 $605 $417 #
plane-surface $-1 -56.878904194145697 -6.7704678488875913 0 0 -1 0 0 0 -1 forward_v I I I I #
coedge $-1 $606 $607 $608 $609 reversed $418 $-1 #
coedge $-1 $420 $610 $611 $612 forward $336 $-1 #
coedge $-1 $611 $429 $421 $511 forward $431 $-1 #
edge $-1 $613 -55.715820506545931 $513 -52.426564375540394 $510 $614 forward 7 unknown #
edge $-1 $613 -66.705129594232872 $514 -62.86777357488161 $422 $615 forward 7 unknown #
vertex $-1 $511 $616 #
vertex $-1 $425 $617 #
straight-curve $-1 -37.297725271729199 52.96839594287583 13.291048474114419 0 -1 0 I I #
straight-curve $-1 -22.168925072770584 31.376180390202183 13.291048474114419 -1 0 0 I I #
edge $-1 $427 -29.209049946582553 $613 -15.128800198958615 $429 $618 forward 7 unknown #
point $-1 -51.377975019353137 33.352564797116429 10.001792343108882 #
coedge $-1 $430 $619 $620 $621 reversed $431 $-1 #
face $-1 $622 $431 $18 $-1 $623 reversed single #
coedge $-1 $624 $433 $625 $626 forward $336 $-1 #
coedge $-1 $620 $627 $433 $523 reversed $628 $-1 #
edge $-1 $524 -33.352564797116429 $629 6.7704678488875913 $522 $630 forward 7 unknown #
vertex $-1 $434 $631 #
straight-curve $-1 0 33.352564797116429 13.291048474114419 -1 0 0 I I #
face $-1 $632 $633 $19 $-1 $634 forward single #
loop $-1 $-1 $635 $438 #
plane-surface $-1 0 0 13.291048474114419 0 0 1 1 0 0 forward_v I I I I #
coedge $-1 $636 $637 $635 $638 reversed $439 $-1 #
coedge $-1 $450 $639 $441 $531 reversed $360 $-1 #
edge $-1 $536 62.86777357488161 $640 66.705129594232872 $441 $641 forward 7 unknown #
coedge $-1 $642 $643 $442 $533 forward $644 $-1 #
edge $-1 $537 52.426564375540394 $640 55.715820506545931 $532 $645 forward 7 unknown #
coedge $-1 $646 $443 $643 $647 forward $527 $-1 #
coedge $-1 $443 $635 $450 $542 forward $527 $-1 #
vertex $-1 $542 $648 #
vertex $-1 $647 $649 #
straight-curve $-1 -51.377975019353137 52.96839594287583 13.291048474114419 0 1 0 I I #
vertex $-1 $445 $650 #
point $-1 -46.855046520032005 30.696732628086473 10.644401261109877 #
coedge $-1 $639 $450 $637 $651 reversed $360 $-1 #
edge $-1 $652 15.128800198958615 $536 29.209049946582553 $535 $653 forward 7 unknown #
face $-1 $-1 $557 $16 $-1 $654 reversed single #
loop $-1 $-1 $546 $451 #
plane-surface $-1 0 33.352564797116429 0 0 -1 0 0 0 -1 forward_v I I I I #
coedge $-1 $456 $452 $556 $655 forward $544 $-1 #
coedge $-1 $452 $456 $454 $550 reversed $544 $-1 #
vertex $-1 $460 $656 #
straight-curve $-1 0 33.352564797116429 13.291048474114419 -1 0 0 I I #
edge $-1 $455 -13.291048474114419 $458 13.291048474114419 $547 $657 forward 7 unknown #
point $-1 -62.379833368938264 33.352564797116429 13.291048474114419 #
vertex $-1 $465 $658 #
straight-curve $-1 0 33.352564797116429 -13.291048474114419 1 0 0 I I #
point $-1 -62.379833368938264 33.352564797116429 -13.291048474114419 #
coedge $-1 $464 $459 $461 $559 forward $557 $-1 #
coedge $-1 $459 $464 $546 $655 reversed $557 $-1 #
loop $-1 $-1 $555 $543 #
straight-curve $-1 62.379833368938264 0 13.291048474114419 0 1 0 I I #
edge $-1 $462 -13.291048474114419 $466 13.291048474114419 $555 $659 forward 7 unknown #
point $-1 62.379833368938264 -33.352564797116429 13.291048474114419 #
straight-curve $-1 62.379833368938264 0 -13.291048474114419 0 -1 0 I I #
point $-1 62.379833368938264 -33.352564797116429 -13.291048474114419 #
face $-1 $503 $660 $17 $-1 $661 reversed single #
loop $-1 $-1 $568 $468 #
plane-surface $-1 0 0 -13.291048474114419 0 0 1 1 0 0 forward_v I I I I #
coedge $-1 $471 $473 $575 $662 reversed $390 $-1 #
edge $-1 $573 -13.291048474114419 $577 13.291048474114419 $471 $663 forward 7 unknown #
coedge $-1 $593 $575 $472 $569 forward $564 $-1 #
edge $-1 $570 22.938522922280281 $600 33.940381271865419 $568 $664 forward 7 unknown #
vertex $-1 $569 $665 #
straight-curve $-1 -51.37797501935313 -6.7704678488875913 0 0 0 -1 I I #
coedge $-1 $485 $476 $481 $581 forward $141 $-1 #
vertex $-1 $477 $666 #
straight-curve $-1 -28.439452097072849 -11.713957462627697 13.291048474114419 -1 0 0 I I #
coedge $-1 $568 $478 $566 $662 forward $564 $-1 #
coedge $-1 $478 $667 $480 $580 forward $564 $-1 #
vertex $-1 $479 $668 #
straight-curve $-1 -28.439452097072849 -11.713957462627697 -13.291048474114419 1 0 0 I I #
coedge $-1 $481 $480 $669 $670 reversed $469 $-1 #
edge $-1 $671 -33.352564797116429 $483 -11.713957462627697 $480 $672 forward 7 unknown #
edge $-1 $482 11.713957462627697 $673 33.352564797116429 $481 $415 forward 7 unknown #
point $-1 -62.379833368938264 -11.713957462627697 13.291048474114419 #
point $-1 -62.379833368938264 -11.713957462627697 -13.291048474114419 #
coedge $-1 $669 $674 $485 $585 reversed $660 $-1 #
edge $-1 $673 -62.379833368938264 $588 62.379833368938264 $584 $675 forward 7 unknown #
coedge $-1 $676 $486 $674 $677 forward $495 $-1 #
coedge $-1 $486 $676 $488 $590 reversed $495 $-1 #
vertex $-1 $487 $678 #
straight-curve $-1 62.379833368938264 0 13.291048474114419 0 1 0 I I #
edge $-1 $489 -13.291048474114419 $594 13.291048474114419 $587 $679 forward 7 unknown #
point $-1 62.379833368938264 33.352564797116429 13.291048474114419 #
coedge $-1 $667 $490 $676 $680 forward $564 $-1 #
coedge $-1 $490 $568 $492 $596 forward $564 $-1 #
vertex $-1 $680 $681 #
straight-curve $-1 0 33.352564797116429 -13.291048474114419 1 0 0 I I #
edge $-1 $600 -6.7704678488875913 $493 33.352564797116429 $492 $672 forward 7 unknown #
point $-1 -62.379833368938264 33.352564797116429 -13.291048474114419 #
straight-curve $-1 -51.37797501935313 -4.621106327878822 13.291048474114419 0 -1 0 I I #
point $-1 -51.37797501935313 -6.7704678488875913 13.291048474114419 #
vertex $-1 $596 $682 #
straight-curve $-1 -62.379833368938264 -6.7704678488875913 0 0 0 1 I I #
face $-1 $683 $684 $18 $-1 $685 reversed single #
loop $-1 $-1 $686 $505 #
plane-surface $-1 -51.37797501935313 -9.2422126557576441 0 -1 0 0 0 0 1 forward_v I I I I #
coedge $-1 $625 $687 $688 $689 reversed $506 $-1 #
coedge $-1 $690 $508 $691 $692 reversed $418 $-1 #
coedge $-1 $508 $690 $693 $694 reversed $418 $-1 #
coedge $-1 $695 $696 $508 $609 forward $684 $-1 #
edge $-1 $697 -13.291048474114419 $698 13.291048474114419 $608 $699 forward 7 unknown #
coedge $-1 $509 $700 $701 $702 forward $336 $-1 #
coedge $-1 $703 $510 $509 $612 reversed $431 $-1 #
edge $-1 $704 -62.379833368938264 $513 37.297725271729199 $611 $525 forward 7 unknown #
vertex $-1 $517 $705 #
straight-curve $-1 -37.297725271729199 33.352564797116429 65.717612849654813 0 0 1 I I #
straight-curve $-1 -37.297725271729199 -1.0031158659260768 67.179248743008714 0 -0.51503806187062418 0.85716730853699208 I I #
point $-1 -37.297725271729199 33.352564797116429 13.291048474114419 #
point $-1 -37.297725271729199 31.376180390202187 13.291048474114419 #
straight-curve $-1 -22.168925072770584 33.352564797116429 10.001792343108875 1 0 0 I I #
coedge $-1 $519 $703 $706 $707 reversed $431 $-1 #
coedge $-1 $708 $522 $519 $621 forward $628 $-1 #
edge $-1 $524 -13.291048474114419 $709 13.291048474114419 $519 $710 forward 7 unknown #
face $-1 $-1 $711 $18 $-1 $712 reversed single #
plane-surface $-1 0 33.352564797116429 0 0 -1 0 0 0 -1 forward_v I I I I #
coedge $-1 $691 $521 $713 $714 forward $336 $-1 #
coedge $-1 $715 $605 $521 $626 reversed $506 $-1 #
edge $-1 $629 -33.940381271865419 $716 -22.938522922280281 $521 $717 forward 7 unknown #
coedge $-1 $522 $708 $715 $718 forward $628 $-1 #
loop $-1 $-1 $627 $719 #
vertex $-1 $718 $720 #
straight-curve $-1 -62.379833368938264 0 13.291048474114419 0 -1 0 I I #
point $-1 -62.379833368938264 33.352564797116429 13.291048474114419 #
face $-1 $721 $722 $19 $-1 $723 forward single #
loop $-1 $-1 $724 $526 #
plane-surface $-1 -56.878904194145697 -11.713957462627697 0 0 1 0 0 0 1 forward_v I I I I #
coedge $-1 $535 $725 $529 $638 forward $527 $-1 #
coedge $-1 $637 $529 $726 $727 reversed $439 $-1 #
coedge $-1 $529 $636 $541 $651 forward $439 $-1 #
edge $-1 $728 19.615831145759401 $652 21.592215552673643 $635 $729 forward 7 unknown #
coedge $-1 $530 $541 $642 $730 reversed $360 $-1 #
vertex $-1 $730 $731 #
straight-curve $-1 -51.377975019353137 -1.0031158659260768 67.179248743008714 0 0.51503806187062418 -0.85716730853699208 I I #
coedge $-1 $726 $532 $639 $730 forward $644 $-1 #
coedge $-1 $532 $732 $534 $647 reversed $644 $-1 #
loop $-1 $-1 $726 $733 #
straight-curve $-1 -51.377975019353137 33.352564797116429 65.717612849654813 0 0 -1 I I #
coedge $-1 $734 $534 $735 $736 forward $527 $-1 #
edge $-1 $537 51.377975019353137 $737 62.379833368938264 $643 $738 forward 7 unknown #
point $-1 -51.377975019353137 31.376180390202187 13.291048474114419 #
point $-1 -51.377975019353137 33.352564797116429 13.291048474114419 #
point $-1 -47.355046520032005 30.268148973817979 10.386882230174564 #
edge $-1 $739 -66.705129594232872 $652 -62.86777357488161 $637 $740 forward 7 unknown #
vertex $-1 $542 $741 #
straight-curve $-1 -22.168925072770584 31.376180390202183 13.291048474114419 -1 0 0 I I #
plane-surface $-1 62.379833368938264 0 0 -1 0 0 0 0 1 forward_v I I I I #
edge $-1 $548 -13.291048474114419 $552 13.291048474114419 $556 $742 forward 7 unknown #
point $-1 62.379833368938264 33.352564797116429 13.291048474114419 #
straight-curve $-1 -62.379833368938264 33.352564797116429 0 0 0 -1 I I #
point $-1 62.379833368938264 33.352564797116429 -13.291048474114419 #
straight-curve $-1 62.379833368938264 -33.352564797116429 0 0 0 -1 I I #
loop $-1 $-1 $669 $563 #
plane-surface $-1 0 -33.352564797116429 0 0 1 0 0 0 1 forward_v I I I I #
edge $-1 $577 -7.0928511347488747 $570 -2.1493615210087693 $575 $743 forward 7 unknown #
straight-curve $-1 -51.37797501935313 -11.713957462627697 0 0 0 -1 I I #
straight-curve $-1 -28.439452097072849 -6.7704678488875913 -13.291048474114419 -1 0 0 I I #
point $-1 -51.37797501935313 -6.7704678488875913 -13.291048474114419 #
point $-1 -51.37797501935313 -11.713957462627697 13.291048474114419 #
coedge $-1 $576 $592 $744 $745 forward $564 $-1 #
point $-1 -51.37797501935313 -11.713957462627697 -13.291048474114419 #
coedge $-1 $744 $584 $579 $670 forward $660 $-1 #
edge $-1 $673 -13.291048474114419 $671 13.291048474114419 $579 $746 forward 7 unknown #
vertex $-1 $580 $747 #
straight-curve $-1 -62.379833368938264 0 -13.291048474114419 0 1 0 I I #
vertex $-1 $581 $748 #
coedge $-1 $584 $744 $586 $677 reversed $660 $-1 #
straight-curve $-1 0 -33.352564797116429 13.291048474114419 1 0 0 I I #
coedge $-1 $587 $586 $592 $680 reversed $495 $-1 #
edge $-1 $588 -13.291048474114419 $749 13.291048474114419 $586 $750 forward 7 unknown #
point $-1 62.379833368938264 -33.352564797116429 13.291048474114419 #
straight-curve $-1 62.379833368938264 33.352564797116429 0 0 0 -1 I I #
edge $-1 $594 -33.352564797116429 $749 33.352564797116429 $676 $751 forward 7 unknown #
point $-1 62.379833368938264 33.352564797116429 -13.291048474114419 #
point $-1 -62.379833368938264 -6.7704678488875913 -13.291048474114419 #
face $-1 $752 $753 $18 $-1 $754 reversed single #
loop $-1 $-1 $608 $602 #
plane-surface $-1 -62.379833368938264 0 0 1 0 0 0 0 -1 forward_v I I I I #
coedge $-1 $713 $755 $690 $756 reversed $603 $-1 #
coedge $-1 $605 $715 $757 $758 reversed $506 $-1 #
coedge $-1 $755 $713 $605 $689 forward $603 $-1 #
edge $-1 $716 -13.291048474114419 $759 13.291048474114419 $688 $760 forward 7 unknown #
coedge $-1 $607 $606 $686 $756 forward $418 $-1 #
coedge $-1 $761 $624 $606 $692 forward $336 $-1 #
edge $-1 $762 22.938522922280281 $697 33.940381271865419 $691 $763 forward 7 unknown #
coedge $-1 $764 $765 $607 $694 forward $753 $-1 #
edge $-1 $698 -33.940381271865419 $766 -22.938522922280281 $693 $767 forward 7 unknown #
coedge $-1 $768 $608 $765 $769 reversed $684 $-1 #
coedge $-1 $608 $768 $761 $770 reversed $684 $-1 #
vertex $-1 $770 $771 #
vertex $-1 $609 $772 #
straight-curve $-1 -62.379833368938264 -11.713957462627697 0 0 0 -1 I I #
coedge $-1 $610 $761 $773 $774 forward $336 $-1 #
coedge $-1 $775 $776 $610 $702 reversed $711 $-1 #
edge $-1 $777 -33.352564797116429 $704 33.352564797116429 $701 $778 forward 7 unknown #
coedge $-1 $619 $611 $776 $779 forward $431 $-1 #
vertex $-1 $702 $780 #
point $-1 -37.297725271729199 33.352564797116429 10.001792343108882 #
coedge $-1 $781 $782 $619 $707 forward $753 $-1 #
edge $-1 $709 -62.379833368938264 $783 62.379833368938264 $619 $784 forward 7 unknown #
coedge $-1 $627 $620 $782 $785 reversed $628 $-1 #
vertex $-1 $707 $786 #
straight-curve $-1 -62.379833368938264 33.352564797116429 0 0 0 -1 I I #
loop $-1 $-1 $775 $622 #
plane-surface $-1 62.379833368938264 0 0 -1 0 0 0 0 1 forward_v I I I I #
coedge $-1 $688 $686 $624 $714 reversed $603 $-1 #
edge $-1 $716 2.1493615210087693 $762 7.0928511347488747 $624 $787 forward 7 unknown #
coedge $-1 $687 $625 $627 $718 reversed $506 $-1 #
vertex $-1 $626 $788 #
straight-curve $-1 -28.439452097072849 -6.7704678488875913 13.291048474114419 1 0 0 I I #
edge $-1 $789 -13.291048474114419 $629 13.291048474114419 $627 $790 forward 7 unknown #
face $-1 $520 $628 $18 $-1 $685 reversed single #
point $-1 -62.379833368938264 -6.7704678488875913 13.291048474114419 #
face $-1 $791 $792 $19 $-1 $793 forward single #
loop $-1 $-1 $794 $632 #
plane-surface $-1 -56.878904194145697 -6.7704678488875913 0 0 -1 0 0 0 -1 forward_v I I I I #
coedge $-1 $795 $796 $797 $798 reversed $633 $-1 #
coedge $-1 $635 $799 $800 $801 forward $527 $-1 #
coedge $-1 $800 $642 $636 $727 forward $644 $-1 #
edge $-1 $739 -55.715820506545931 $728 -52.426564375540394 $726 $802 forward 7 unknown #
vertex $-1 $727 $803 #
straight-curve $-1 -37.297725271729199 52.96839594287583 13.291048474114419 0 -1 0 I I #
edge $-1 $640 -29.209049946582553 $739 -15.128800198958615 $642 $804 forward 7 unknown #
point $-1 -51.377975019353137 33.352564797116429 10.001792343108882 #
coedge $-1 $643 $805 $806 $807 reversed $644 $-1 #
face $-1 $808 $644 $19 $-1 $809 reversed single #
coedge $-1 $810 $646 $811 $812 forward $527 $-1 #
coedge $-1 $806 $813 $646 $736 reversed $814 $-1 #
edge $-1 $737 -33.352564797116429 $815 6.7704678488875913 $735 $816 forward 7 unknown #
vertex $-1 $647 $817 #
straight-curve $-1 0 33.352564797116429 13.291048474114419 -1 0 0 I I #
vertex $-1 $730 $818 #
straight-curve $-1 -37.297725271729199 -1.0031158659260768 67.179248743008714 0 -0.51503806187062418 0.85716730853699208 I I #
point $-1 -37.297725271729199 31.376180390202187 13.291048474114419 #
straight-curve $-1 62.379833368938264 33.352564797116429 0 0 0 -1 I I #
straight-curve $-1 -51.37797501935313 -4.621106327878822 -13.291048474114419 0 1 0 I I #
coedge $-1 $674 $669 $667 $745 reversed $660 $-1 #
edge $-1 $749 -62.379833368938264 $671 62.379833368938264 $744 $819 forward 7 unknown #
straight-curve $-1 -62.379833368938264 -33.352564797116429 0 0 0 -1 I I #
point $-1 -62.379833368938264 -33.352564797116429 -13.291048474114419 #
point $-1 -62.379833368938264 -33.352564797116429 13.291048474114419 #
vertex $-1 $677 $820 #
straight-curve $-1 62.379833368938264 -33.352564797116429 0 0 0 -1 I I #
straight-curve $-1 62.379833368938264 0 -13.291048474114419 0 -1 0 I I #
face $-1 $719 $821 $18 $-1 $822 reversed single #
loop $-1 $-1 $757 $683 #
plane-surface $-1 0 0 -13.291048474114419 0 0 1 1 0 0 forward_v I I I I #
coedge $-1 $686 $688 $764 $823 reversed $603 $-1 #
edge $-1 $762 -13.291048474114419 $766 13.291048474114419 $686 $824 forward 7 unknown #
coedge $-1 $782 $764 $687 $758 forward $753 $-1 #
edge $-1 $759 22.938522922280281 $789 33.940381271865419 $757 $825 forward 7 unknown #
vertex $-1 $758 $826 #
straight-curve $-1 -51.37797501935313 -6.7704678488875913 0 0 0 -1 I I #
coedge $-1 $700 $691 $696 $770 forward $336 $-1 #
vertex $-1 $692 $827 #
straight-curve $-1 -28.439452097072849 -11.713957462627697 13.291048474114419 -1 0 0 I I #
coedge $-1 $757 $693 $755 $823 forward $753 $-1 #
coedge $-1 $693 $828 $695 $769 forward $753 $-1 #
vertex $-1 $694 $829 #
straight-curve $-1 -28.439452097072849 -11.713957462627697 -13.291048474114419 1 0 0 I I #
coedge $-1 $696 $695 $830 $831 reversed $684 $-1 #
edge $-1 $832 -33.352564797116429 $698 -11.713957462627697 $695 $833 forward 7 unknown #
edge $-1 $697 11.713957462627697 $834 33.352564797116429 $696 $630 forward 7 unknown #
point $-1 -62.379833368938264 -11.713957462627697 13.291048474114419 #
point $-1 -62.379833368938264 -11.713957462627697 -13.291048474114419 #
coedge $-1 $830 $835 $700 $774 reversed $821 $-1 #
edge $-1 $834 -62.379833368938264 $777 62.379833368938264 $773 $836 forward 7 unknown #
coedge $-1 $837 $701 $835 $838 forward $711 $-1 #
coedge $-1 $701 $837 $703 $779 reversed $711 $-1 #
vertex $-1 $702 $839 #
straight-curve $-1 62.379833368938264 0 13.291048474114419 0 1 0 I I #
edge $-1 $704 -13.291048474114419 $783 13.291048474114419 $776 $840 forward 7 unknown #
point $-1 62.379833368938264 33.352564797116429 13.291048474114419 #
coedge $-1 $828 $706 $837 $841 forward $753 $-1 #
coedge $-1 $706 $757 $708 $785 forward $753 $-1 #
vertex $-1 $841 $842 #
straight-curve $-1 0 33.352564797116429 -13.291048474114419 1 0 0 I I #
edge $-1 $789 -6.7704678488875913 $709 33.352564797116429 $708 $833 forward 7 unknown #
point $-1 -62.379833368938264 33.352564797116429 -13.291048474114419 #
straight-curve $-1 -51.37797501935313 -4.621106327878822 13.291048474114419 0 -1 0 I I #
point $-1 -51.37797501935313 -6.7704678488875913 13.291048474114419 #
vertex $-1 $785 $843 #
straight-curve $-1 -62.379833368938264 -6.7704678488875913 0 0 0 1 I I #
face $-1 $844 $845 $19 $-1 $846 reversed single #
loop $-1 $-1 $847 $721 #
plane-surface $-1 -51.37797501935313 -9.2422126557576441 0 -1 0 0 0 0 1 forward_v I I I I #
coedge $-1 $811 $848 $849 $850 reversed $722 $-1 #
coedge $-1 $851 $724 $852 $853 reversed $633 $-1 #
coedge $-1 $724 $851 $854 $855 reversed $633 $-1 #
coedge $-1 $856 $857 $724 $798 forward $845 $-1 #
edge $-1 $858 -13.291048474114419 $859 13.291048474114419 $797 $860 forward 7 unknown #
coedge $-1 $725 $861 $862 $863 forward $527 $-1 #
coedge $-1 $864 $726 $725 $801 reversed $644 $-1 #
edge $-1 $865 -62.379833368938264 $728 37.297725271729199 $800 $738 forward 7 unknown #
straight-curve $-1 -37.297725271729199 33.352564797116429 65.717612849654813 0 0 1 I I #
point $-1 -37.297725271729199 33.352564797116429 13.291048474114419 #
straight-curve $-1 -22.168925072770584 33.352564797116429 10.001792343108875 1 0 0 I I #
coedge $-1 $732 $864 $866 $867 reversed $644 $-1 #
coedge $-1 $868 $735 $732 $807 forward $814 $-1 #
edge $-1 $737 -13.291048474114419 $869 13.291048474114419 $732 $870 forward 7 unknown #
face $-1 $-1 $871 $19 $-1 $872 reversed single #
plane-surface $-1 0 33.352564797116429 0 0 -1 0 0 0 -1 forward_v I I I I #
coedge $-1 $852 $734 $873 $874 forward $527 $-1 #
coedge $-1 $875 $794 $734 $812 reversed $722 $-1 #
edge $-1 $815 -33.940381271865419 $876 -22.938522922280281 $734 $877 forward 7 unknown #
coedge $-1 $735 $868 $875 $878 forward $814 $-1 #
loop $-1 $-1 $813 $879 #
vertex $-1 $878 $880 #
straight-curve $-1 -62.379833368938264 0 13.291048474114419 0 -1 0 I I #
point $-1 -62.379833368938264 33.352564797116429 13.291048474114419 #
point $-1 -37.297725271729199 33.352564797116429 10.001792343108882 #
straight-curve $-1 0 -33.352564797116429 -13.291048474114419 -1 0 0 I I #
point $-1 62.379833368938264 -33.352564797116429 -13.291048474114419 #
loop $-1 $-1 $830 $752 #
plane-surface $-1 0 -33.352564797116429 0 0 1 0 0 0 1 forward_v I I I I #
edge $-1 $766 -7.0928511347488747 $759 -2.1493615210087693 $764 $881 forward 7 unknown #
straight-curve $-1 -51.37797501935313 -11.713957462627697 0 0 0 -1 I I #
straight-curve $-1 -28.439452097072849 -6.7704678488875913 -13.291048474114419 -1 0 0 I I #
point $-1 -51.37797501935313 -6.7704678488875913 -13.291048474114419 #
point $-1 -51.37797501935313 -11.713957462627697 13.291048474114419 #
coedge $-1 $765 $781 $882 $883 forward $753 $-1 #
point $-1 -51.37797501935313 -11.713957462627697 -13.291048474114419 #
coedge $-1 $882 $773 $768 $831 forward $821 $-1 #
edge $-1 $834 -13.291048474114419 $832 13.291048474114419 $768 $884 forward 7 unknown #
vertex $-1 $769 $885 #
straight-curve $-1 -62.379833368938264 0 -13.291048474114419 0 1 0 I I #
vertex $-1 $770 $886 #
coedge $-1 $773 $882 $775 $838 reversed $821 $-1 #
straight-curve $-1 0 -33.352564797116429 13.291048474114419 1 0 0 I I #
coedge $-1 $776 $775 $781 $841 reversed $711 $-1 #
edge $-1 $777 -13.291048474114419 $887 13.291048474114419 $775 $888 forward 7 unknown #
point $-1 62.379833368938264 -33.352564797116429 13.291048474114419 #
straight-curve $-1 62.379833368938264 33.352564797116429 0 0 0 -1 I I #
edge $-1 $783 -33.352564797116429 $887 33.352564797116429 $837 $889 forward 7 unknown #
point $-1 62.379833368938264 33.352564797116429 -13.291048474114419 #
point $-1 -62.379833368938264 -6.7704678488875913 -13.291048474114419 #
face $-1 $890 $891 $19 $-1 $892 reversed single #
loop $-1 $-1 $797 $791 #
plane-surface $-1 -62.379833368938264 0 0 1 0 0 0 0 -1 forward_v I I I I #
coedge $-1 $873 $893 $851 $894 reversed $792 $-1 #
coedge $-1 $794 $875 $895 $896 reversed $722 $-1 #
coedge $-1 $893 $873 $794 $850 forward $792 $-1 #
edge $-1 $876 -13.291048474114419 $897 13.291048474114419 $849 $898 forward 7 unknown #
coedge $-1 $796 $795 $847 $894 forward $633 $-1 #
coedge $-1 $899 $810 $795 $853 forward $527 $-1 #
edge $-1 $900 22.938522922280281 $858 33.940381271865419 $852 $901 forward 7 unknown #
coedge $-1 $902 $903 $796 $855 forward $891 $-1 #
edge $-1 $859 -33.940381271865419 $904 -22.938522922280281 $854 $905 forward 7 unknown #
coedge $-1 $906 $797 $903 $907 reversed $845 $-1 #
coedge $-1 $797 $906 $899 $908 reversed $845 $-1 #
vertex $-1 $908 $909 #
vertex $-1 $798 $910 #
straight-curve $-1 -62.379833368938264 -11.713957462627697 0 0 0 -1 I I #
coedge $-1 $799 $899 $911 $912 forward $527 $-1 #
coedge $-1 $913 $914 $799 $863 reversed $871 $-1 #
edge $-1 $915 -33.352564797116429 $865 33.352564797116429 $862 $916 forward 7 unknown #
coedge $-1 $805 $800 $914 $917 forward $644 $-1 #
vertex $-1 $863 $918 #
coedge $-1 $919 $920 $805 $867 forward $891 $-1 #
edge $-1 $869 -62.379833368938264 $921 62.379833368938264 $805 $922 forward 7 unknown #
coedge $-1 $813 $806 $920 $923 reversed $814 $-1 #
vertex $-1 $867 $924 #
straight-curve $-1 -62.379833368938264 33.352564797116429 0 0 0 -1 I I #
loop $-1 $-1 $913 $808 #
plane-surface $-1 62.379833368938264 0 0 -1 0 0 0 0 1 forward_v I I I I #
coedge $-1 $849 $847 $810 $874 reversed $792 $-1 #
edge $-1 $876 2.1493615210087693 $900 7.0928511347488747 $810 $925 forward 7 unknown #
coedge $-1 $848 $811 $813 $878 reversed $722 $-1 #
vertex $-1 $812 $926 #
straight-curve $-1 -28.439452097072849 -6.7704678488875913 13.291048474114419 1 0 0 I I #
edge $-1 $927 -13.291048474114419 $815 13.291048474114419 $813 $928 forward 7 unknown #
face $-1 $733 $814 $19 $-1 $846 reversed single #
point $-1 -62.379833368938264 -6.7704678488875913 13.291048474114419 #
straight-curve $-1 -51.37797501935313 -4.621106327878822 -13.291048474114419 0 1 0 I I #
coedge $-1 $835 $830 $828 $883 reversed $821 $-1 #
edge $-1 $887 -62.379833368938264 $832 62.379833368938264 $882 $929 forward 7 unknown #
straight-curve $-1 -62.379833368938264 -33.352564797116429 0 0 0 -1 I I #
point $-1 -62.379833368938264 -33.352564797116429 -13.291048474114419 #
point $-1 -62.379833368938264 -33.352564797116429 13.291048474114419 #
vertex $-1 $838 $930 #
straight-curve $-1 62.379833368938264 -33.352564797116429 0 0 0 -1 I I #
straight-curve $-1 62.379833368938264 0 -13.291048474114419 0 -1 0 I I #
face $-1 $879 $931 $19 $-1 $932 reversed single #
loop $-1 $-1 $895 $844 #
plane-surface $-1 0 0 -13.291048474114419 0 0 1 1 0 0 forward_v I I I I #
coedge $-1 $847 $849 $902 $933 reversed $792 $-1 #
edge $-1 $900 -13.291048474114419 $904 13.291048474114419 $847 $934 forward 7 unknown #
coedge $-1 $920 $902 $848 $896 forward $891 $-1 #
edge $-1 $897 22.938522922280281 $927 33.940381271865419 $895 $935 forward 7 unknown #
vertex $-1 $896 $936 #
straight-curve $-1 -51.37797501935313 -6.7704678488875913 0 0 0 -1 I I #
coedge $-1 $861 $852 $857 $908 forward $527 $-1 #
vertex $-1 $853 $937 #
straight-curve $-1 -28.439452097072849 -11.713957462627697 13.291048474114419 -1 0 0 I I #
coedge $-1 $895 $854 $893 $933 forward $891 $-1 #
coedge $-1 $854 $938 $856 $907 forward $891 $-1 #
vertex $-1 $855 $939 #
straight-curve $-1 -28.439452097072849 -11.713957462627697 -13.291048474114419 1 0 0 I I #
coedge $-1 $857 $856 $940 $941 reversed $845 $-1 #
edge $-1 $942 -33.352564797116429 $859 -11.713957462627697 $856 $943 forward 7 unknown #
edge $-1 $858 11.713957462627697 $944 33.352564797116429 $857 $816 forward 7 unknown #
point $-1 -62.379833368938264 -11.713957462627697 13.291048474114419 #
point $-1 -62.379833368938264 -11.713957462627697 -13.291048474114419 #
coedge $-1 $940 $945 $861 $912 reversed $931 $-1 #
edge $-1 $944 -62.379833368938264 $915 62.379833368938264 $911 $946 forward 7 unknown #
coedge $-1 $947 $862 $945 $948 forward $871 $-1 #
coedge $-1 $862 $947 $864 $917 reversed $871 $-1 #
vertex $-1 $863 $949 #
straight-curve $-1 62.379833368938264 0 13.291048474114419 0 1 0 I I #
edge $-1 $865 -13.291048474114419 $921 13.291048474114419 $914 $950 forward 7 unknown #
point $-1 62.379833368938264 33.352564797116429 13.291048474114419 #
coedge $-1 $938 $866 $947 $951 forward $891 $-1 #
coedge $-1 $866 $895 $868 $923 forward $891 $-1 #
vertex $-1 $951 $952 #
straight-curve $-1 0 33.352564797116429 -13.291048474114419 1 0 0 I I #
edge $-1 $927 -6.7704678488875913 $869 33.352564797116429 $868 $943 forward 7 unknown #
point $-1 -62.379833368938264 33.352564797116429 -13.291048474114419 #
straight-curve $-1 -51.37797501935313 -4.621106327878822 13.291048474114419 0 -1 0 I I #
point $-1 -51.37797501935313 -6.7704678488875913 13.291048474114419 #
vertex $-1 $923 $953 #
straight-curve $-1 -62.379833368938264 -6.7704678488875913 0 0 0 1 I I #
straight-curve $-1 0 -33.352564797116429 -13.291048474114419 -1 0 0 I I #
point $-1 62.379833368938264 -33.352564797116429 -13.291048474114419 #
loop $-1 $-1 $940 $890 #
plane-surface $-1 0 -33.352564797116429 0 0 1 0 0 0 1 forward_v I I I I #
edge $-1 $904 -7.0928511347488747 $897 -2.1493615210087693 $902 $954 forward 7 unknown #
straight-curve $-1 -51.37797501935313 -11.713957462627697 0 0 0 -1 I I #
straight-curve $-1 -28.439452097072849 -6.7704678488875913 -13.291048474114419 -1 0 0 I I #
point $-1 -51.37797501935313 -6.7704678488875913 -13.291048474114419 #
point $-1 -51.37797501935313 -11.713957462627697 13.291048474114419 #
coedge $-1 $903 $919 $955 $956 forward $891 $-1 #
point $-1 -51.37797501935313 -11.713957462627697 -13.291048474114419 #
coedge $-1 $955 $911 $906 $941 forward $931 $-1 #
edge $-1 $944 -13.291048474114419 $942 13.291048474114419 $906 $957 forward 7 unknown #
vertex $-1 $907 $958 #
straight-curve $-1 -62.379833368938264 0 -13.291048474114419 0 1 0 I I #
vertex $-1 $908 $959 #
coedge $-1 $911 $955 $913 $948 reversed $931 $-1 #
straight-curve $-1 0 -33.352564797116429 13.291048474114419 1 0 0 I I #
coedge $-1 $914 $913 $919 $951 reversed $871 $-1 #
edge $-1 $915 -13.291048474114419 $960 13.291048474114419 $913 $961 forward 7 unknown #
point $-1 62.379833368938264 -33.352564797116429 13.291048474114419 #
straight-curve $-1 62.379833368938264 33.352564797116429 0 0 0 -1 I I #
edge $-1 $921 -33.352564797116429 $960 33.352564797116429 $947 $962 forward 7 unknown #
point $-1 62.379833368938264 33.352564797116429 -13.291048474114419 #
point $-1 -62.379833368938264 -6.7704678488875913 -13.291048474114419 #
straight-curve $-1 -51.37797501935313 -4.621106327878822 -13.291048474114419 0 1 0 I I #
coedge $-1 $945 $940 $938 $956 reversed $931 $-1 #
edge $-1 $960 -62.379833368938264 $942 62.379833368938264 $955 $963 forward 7 unknown #
straight-curve $-1 -62.379833368938264 -33.352564797116429 0 0 0 -1 I I #
point $-1 -62.379833368938264 -33.352564797116429 -13.291048474114419 #
point $-1 -62.379833368938264 -33.352564797116429 13.291048474114419 #
vertex $-1 $948 $964 #
straight-curve $-1 62.379833368938264 -33.352564797116429 0 0 0 -1 I I #
straight-curve $-1 62.379833368938264 0 -13.291048474114419 0 -1 0 I I #
straight-curve $-1 0 -33.352564797116429 -13.291048474114419 -1 0 0 I I #
point $-1 62.379833368938264 -33.352564797116429 -13.291048474114419 #
End-of-ACIS-data 