500 0 9 0           
7 Unknown 11 ACIS 5.0 NT 24 Thu Mar 25 15:09:15 1999 
-1 9.9999999999999995e-007 1e-010 
body $-1 $9 $-1 $10 #
body $-1 $11 $-1 $12 #
body $-1 $13 $-1 $14 #
body $-1 $15 $-1 $16 #
body $-1 $17 $-1 $18 #
body $-1 $19 $-1 $20 #
body $-1 $21 $-1 $22 #
body $-1 $23 $-1 $24 #
body $-1 $25 $-1 $26 #
lump $-1 $-1 $27 $0 #
transform $-1 1 0 0 0 1 0 0 0 1 52.289193395794548 28.137895793654799 10.991700984489926 1 rotate no_reflect no_shear #
lump $-1 $-1 $28 $1 #
transform $-1 1 0 0 0 1 0 0 0 1 52.289193395794548 28.137895793654799 10.991700984489926 1 rotate no_reflect no_shear #
lump $-1 $-1 $29 $2 #
transform $-1 1 0 0 0 1 0 0 0 1 52.289193395794548 28.137895793654799 10.991700984489926 1 rotate no_reflect no_shear #
lump $-1 $-1 $30 $3 #
transform $-1 1 0 0 0 1 0 0 0 1 52.289193395794548 28.137895793654799 10.991700984489926 1 rotate no_reflect no_shear #
lump $-1 $-1 $31 $4 #
transform $-1 1 0 0 0 1 0 0 0 1 52.289193395794548 28.137895793654799 10.991700984489926 1 rotate no_reflect no_shear #
lump $-1 $-1 $32 $5 #
transform $-1 1 0 0 0 1 0 0 0 1 52.289193395794548 28.137895793654799 10.991700984489926 1 rotate no_reflect no_shear #
lump $-1 $-1 $33 $6 #
transform $-1 1 0 0 0 1 0 0 0 1 52.289193395794548 28.137895793654799 10.991700984489926 1 rotate no_reflect no_shear #
lump $-1 $-1 $34 $7 #
transform $-1 1 0 0 0 1 0 0 0 1 52.289193395794548 28.137895793654799 10.991700984489926 1 rotate no_reflect no_shear #
lump $-1 $-1 $35 $8 #
transform $-1 1 0 0 0 1 0 0 0 1 52.289193395794548 28.137895793654799 10.991700984489926 1 rotate no_reflect no_shear #
shell $-1 $-1 $-1 $36 $-1 $9 #
shell $-1 $-1 $-1 $37 $-1 $11 #
shell $-1 $-1 $-1 $38 $-1 $13 #
shell $-1 $-1 $-1 $39 $-1 $15 #
shell $-1 $-1 $-1 $40 $-1 $17 #
shell $-1 $-1 $-1 $41 $-1 $19 #
shell $-1 $-1 $-1 $42 $-1 $21 #
shell $-1 $-1 $-1 $43 $-1 $23 #
shell $-1 $-1 $-1 $44 $-1 $25 #
face $-1 $45 $46 $27 $-1 $47 forward single #
face $-1 $48 $49 $28 $-1 $50 forward single #
face $-1 $51 $52 $29 $-1 $53 reversed single #
face $-1 $54 $55 $30 $-1 $56 reversed single #
face $-1 $57 $58 $31 $-1 $59 forward single #
face $-1 $60 $61 $32 $-1 $62 forward single #
face $-1 $63 $64 $33 $-1 $65 forward single #
face $-1 $66 $67 $34 $-1 $68 reversed single #
face $-1 $69 $70 $35 $-1 $71 forward single #
face $-1 $72 $73 $27 $-1 $74 reversed single #
loop $-1 $-1 $75 $36 #
plane-surface $-1 0 0 10.991700984489926 0 0 1 1 0 0 forward_v I I I I #
face $-1 $76 $77 $28 $-1 $78 reversed single #
loop $-1 $-1 $79 $37 #
plane-surface $-1 0 -20.951120692670024 -7.9917009844899258 0 0 1 1 0 0 forward_v I I I I #
face $-1 $80 $81 $29 $-1 $82 reversed single #
loop $-1 $-1 $83 $38 #
plane-surface $-1 0 23.362800590856374 7.9643959304835263 0 0 1 1 0 0 forward_v I I I I #
face $-1 $84 $85 $30 $-1 $86 reversed single #
loop $-1 $-1 $87 $39 #
plane-surface $-1 77.97109637474631 -5.25612568739382 149.85916556104064 0 -1 0 -0.81915205242281985 0 -0.57357642473473569 forward_v I I I I #
face $-1 $88 $89 $31 $-1 $90 forward single #
loop $-1 $91 $92 $40 #
cone-surface $-1 49.386069304702524 -12.062701610826963 7.2305295963667033 -0.81915205242281985 0 -0.57357642473473569 0.28678821236736785 0 -0.40957602621140993 1 I I 0 1 0.5 forward I I I I #
face $-1 $93 $94 $32 $-1 $95 forward single #
loop $-1 $96 $97 $41 #
cone-surface $-1 49.386069304702524 -9.510235639539534 7.2305295963667033 -0.81915205242281985 0 -0.57357642473473569 0.28678821236736785 0 -0.40957602621140993 1 I I 0 1 0.5 forward I I I I #
face $-1 $98 $99 $33 $-1 $100 forward single #
loop $-1 $101 $102 $42 #
cone-surface $-1 49.386069304702524 -6.9577696682521051 7.2305295963667033 -0.81915205242281985 0 -0.57357642473473569 0.28678821236736785 0 -0.40957602621140993 1 I I 0 1 0.5 forward I I I I #
face $-1 $103 $104 $34 $-1 $105 reversed single #
loop $-1 $-1 $106 $43 #
plane-surface $-1 -131.21550465845547 -13.764345591685245 72.903361887899507 0 1 0 -0.75470958851134928 0 0.65605901945558964 forward_v I I I I #
face $-1 $107 $108 $35 $-1 $109 forward single #
loop $-1 $110 $111 $44 #
cone-surface $-1 -47.391263078284098 -9.5748099470083261 5.9157067222796496 0.75470958851134928 0 -0.65605901945558964 0.98408852918338452 0 1.132064382767024 1 I I 0 1 1.5 forward I I I I #
face $-1 $112 $113 $27 $-1 $114 reversed single #
loop $-1 $-1 $115 $45 #
plane-surface $-1 0 0 -10.991700984489926 0 0 1 1 0 0 forward_v I I I I #
coedge $-1 $116 $117 $118 $119 forward $46 $-1 #
face $-1 $120 $121 $28 $-1 $122 reversed single #
loop $-1 $-1 $123 $48 #
plane-surface $-1 0 -13.764345591685249 -9.4917009844899258 0 -1 0 0 0 -1 forward_v I I I I #
coedge $-1 $124 $125 $126 $127 reversed $49 $-1 #
face $-1 $128 $129 $29 $-1 $130 reversed single #
loop $-1 $-1 $131 $51 #
plane-surface $-1 0 18.587705388057948 9.478048457486727 0 1 0 0 0 1 forward_v I I I I #
coedge $-1 $132 $133 $134 $135 reversed $52 $-1 #
face $-1 $136 $137 $30 $-1 $138 reversed single #
loop $-1 $-1 $139 $54 #
plane-surface $-1 -7.6945038046514185 -9.510235639539534 89.875468360594652 0.81915205242281985 0 0.57357642473473569 0.57357642473473569 0 -0.81915205242281985 forward_v I I I I #
coedge $-1 $140 $141 $142 $143 reversed $55 $-1 #
face $-1 $-1 $144 $31 $-1 $145 forward single #
loop $-1 $146 $147 $57 #
cone-surface $-1 48.652502354714152 -12.062701610826963 6.7168805037062906 -0.81915205242281985 0 -0.57357642473473569 0.14339410618368392 0 -0.20478801310570496 1 I I -0.70710678118654746 0.70710678118654746 0.25 forward I I I I #
loop $-1 $-1 $148 $40 #
coedge $-1 $92 $92 $149 $150 reversed $58 $-1 #
face $-1 $-1 $151 $32 $-1 $152 forward single #
loop $-1 $153 $154 $60 #
cone-surface $-1 48.652502354714152 -9.510235639539534 6.7168805037062906 -0.81915205242281985 0 -0.57357642473473569 0.14339410618368392 0 -0.20478801310570496 1 I I -0.70710678118654746 0.70710678118654746 0.25 forward I I I I #
loop $-1 $-1 $155 $41 #
coedge $-1 $97 $97 $156 $157 reversed $61 $-1 #
face $-1 $-1 $158 $33 $-1 $159 forward single #
loop $-1 $160 $161 $63 #
cone-surface $-1 48.652502354714152 -6.9577696682521051 6.7168805037062906 -0.81915205242281985 0 -0.57357642473473569 0.14339410618368392 0 -0.20478801310570496 1 I I -0.70710678118654746 0.70710678118654746 0.25 forward I I I I #
loop $-1 $-1 $162 $42 #
coedge $-1 $102 $102 $163 $164 reversed $64 $-1 #
face $-1 $165 $166 $34 $-1 $167 reversed single #
loop $-1 $-1 $168 $66 #
plane-surface $-1 -52.289193395794541 -9.5748099470083261 4.2937679931621773 -0.75470958851134928 0 0.65605901945558964 0.65605901945558964 0 0.75470958851134928 forward_v I I I I #
coedge $-1 $169 $170 $171 $172 reversed $67 $-1 #
face $-1 $-1 $173 $35 $-1 $174 forward single #
loop $-1 $175 $176 $69 #
cone-surface $-1 -44.838512655178846 -9.5748099470083261 3.696634691141556 0.75470958851134928 0 -0.65605901945558964 0.49204426459169226 0 0.56603219138351202 1 I I -0.70710678118654757 0.70710678118654757 0.75 forward I I I I #
loop $-1 $-1 $177 $44 #
coedge $-1 $111 $111 $178 $179 reversed $70 $-1 #
face $-1 $180 $181 $27 $-1 $182 reversed single #
loop $-1 $-1 $183 $72 #
plane-surface $-1 0 -28.137895793654799 0 0 1 0 0 0 1 forward_v I I I I #
coedge $-1 $184 $185 $186 $187 forward $73 $-1 #
coedge $-1 $188 $75 $189 $190 forward $46 $-1 #
coedge $-1 $75 $188 $191 $192 forward $46 $-1 #
coedge $-1 $193 $194 $75 $119 reversed $195 $-1 #
edge $-1 $196 -28.137895793654799 $197 28.137895793654799 $118 $198 forward 7 unknown #
face $-1 $199 $200 $28 $-1 $201 reversed single #
loop $-1 $-1 $202 $76 #
plane-surface $-1 0 0 -10.991700984489926 0 0 1 1 0 0 forward_v I I I I #
coedge $-1 $203 $204 $205 $206 reversed $77 $-1 #
coedge $-1 $207 $79 $204 $208 forward $49 $-1 #
coedge $-1 $79 $207 $209 $210 reversed $49 $-1 #
coedge $-1 $211 $205 $79 $127 forward $200 $-1 #
edge $-1 $212 3.2887852453502369 $213 17.662335447319787 $126 $214 forward 7 unknown #
face $-1 $215 $216 $29 $-1 $217 reversed single #
loop $-1 $-1 $218 $80 #
plane-surface $-1 0 28.137895793654799 0 0 -1 0 0 0 -1 forward_v I I I I #
coedge $-1 $219 $220 $221 $222 reversed $81 $-1 #
coedge $-1 $223 $83 $219 $224 forward $52 $-1 #
coedge $-1 $83 $223 $218 $225 reversed $52 $-1 #
coedge $-1 $226 $227 $83 $135 forward $228 $-1 #
edge $-1 $229 6.9063050926297613 $230 16.456495498226612 $134 $231 forward 7 unknown #
face $-1 $232 $233 $30 $-1 $234 forward single #
loop $-1 $-1 $235 $84 #
plane-surface $-1 77.97109637474631 -13.764345591685249 149.85916556104064 0 1 0 0.81915205242281985 0 0.57357642473473569 forward_v I I I I #
coedge $-1 $236 $237 $238 $239 reversed $85 $-1 #
coedge $-1 $141 $87 $240 $241 reversed $55 $-1 #
coedge $-1 $87 $140 $236 $242 reversed $55 $-1 #
coedge $-1 $238 $243 $87 $143 forward $233 $-1 #
edge $-1 $244 -13.303645208421393 $245 -8.5549549000026914 $142 $246 forward 7 unknown #
loop $-1 $-1 $149 $88 #
plane-surface $-1 -7.6945038046514185 -9.510235639539534 89.875468360594652 0.81915205242281985 0 0.57357642473473569 0.57357642473473569 0 -0.81915205242281985 forward_v I I I I #
loop $-1 $-1 $247 $57 #
coedge $-1 $147 $147 $148 $248 reversed $89 $-1 #
coedge $-1 $148 $148 $147 $248 forward $91 $-1 #
coedge $-1 $149 $149 $92 $150 forward $144 $-1 #
edge $-1 $249 0 $249 6.2831853071796004 $149 $250 forward 7 unknown #
loop $-1 $-1 $156 $93 #
plane-surface $-1 -7.6945038046514185 -9.510235639539534 89.875468360594652 0.81915205242281985 0 0.57357642473473569 0.57357642473473569 0 -0.81915205242281985 forward_v I I I I #
loop $-1 $-1 $251 $60 #
coedge $-1 $154 $154 $155 $252 reversed $94 $-1 #
coedge $-1 $155 $155 $154 $252 forward $96 $-1 #
coedge $-1 $156 $156 $97 $157 forward $151 $-1 #
edge $-1 $253 0 $253 6.2831853071796004 $156 $254 forward 7 unknown #
loop $-1 $-1 $163 $98 #
plane-surface $-1 -7.6945038046514185 -9.510235639539534 89.875468360594652 0.81915205242281985 0 0.57357642473473569 0.57357642473473569 0 -0.81915205242281985 forward_v I I I I #
loop $-1 $-1 $255 $63 #
coedge $-1 $161 $161 $162 $256 reversed $99 $-1 #
coedge $-1 $162 $162 $161 $256 forward $101 $-1 #
coedge $-1 $163 $163 $102 $164 forward $158 $-1 #
edge $-1 $257 0 $257 6.2831853071796004 $163 $258 forward 7 unknown #
face $-1 $259 $260 $34 $-1 $261 reversed single #
loop $-1 $-1 $262 $103 #
plane-surface $-1 -131.21550465845547 -5.385274302331406 72.903361887899507 0 -1 0 0.75470958851134928 0 -0.65605901945558964 forward_v I I I I #
coedge $-1 $263 $264 $265 $266 reversed $104 $-1 #
coedge $-1 $170 $106 $267 $268 reversed $67 $-1 #
coedge $-1 $106 $169 $263 $269 reversed $67 $-1 #
coedge $-1 $265 $270 $106 $172 forward $271 $-1 #
edge $-1 $272 13.318558933433188 $273 19.140983105010612 $171 $274 forward 7 unknown #
loop $-1 $-1 $178 $107 #
plane-surface $-1 -52.289193395794541 -9.5748099470083261 4.2937679931621773 -0.75470958851134928 0 0.65605901945558964 0.65605901945558964 0 0.75470958851134928 forward_v I I I I #
loop $-1 $-1 $275 $69 #
coedge $-1 $176 $176 $177 $276 reversed $108 $-1 #
coedge $-1 $177 $177 $176 $276 forward $110 $-1 #
coedge $-1 $178 $178 $111 $179 forward $173 $-1 #
edge $-1 $277 0 $277 6.2831853071796004 $178 $278 forward 7 unknown #
face $-1 $279 $280 $27 $-1 $281 reversed single #
loop $-1 $-1 $282 $112 #
plane-surface $-1 -52.289193395794548 0 0 1 0 0 0 0 -1 forward_v I I I I #
coedge $-1 $283 $191 $284 $285 forward $113 $-1 #
coedge $-1 $286 $115 $283 $287 forward $73 $-1 #
coedge $-1 $115 $286 $288 $289 forward $73 $-1 #
coedge $-1 $194 $193 $115 $187 reversed $195 $-1 #
edge $-1 $290 -28.137895793654799 $291 28.137895793654799 $186 $292 forward 7 unknown #
coedge $-1 $117 $116 $293 $294 forward $46 $-1 #
coedge $-1 $295 $296 $116 $190 reversed $280 $-1 #
edge $-1 $197 -52.289193395794548 $297 52.289193395794548 $189 $298 forward 7 unknown #
coedge $-1 $183 $299 $117 $192 reversed $113 $-1 #
edge $-1 $300 -52.289193395794548 $196 52.289193395794548 $191 $301 forward 7 unknown #
coedge $-1 $186 $118 $299 $302 forward $195 $-1 #
coedge $-1 $118 $186 $295 $303 reversed $195 $-1 #
loop $-1 $-1 $193 $279 #
vertex $-1 $119 $304 #
vertex $-1 $119 $305 #
straight-curve $-1 52.289193395794548 0 10.991700984489926 0 1 0 I I #
face $-1 $306 $307 $28 $-1 $308 reversed single #
loop $-1 $-1 $205 $120 #
plane-surface $-1 52.289193395794548 0 0 -1 0 0 0 0 1 forward_v I I I I #
coedge $-1 $309 $310 $203 $311 forward $121 $-1 #
coedge $-1 $312 $123 $202 $311 reversed $77 $-1 #
coedge $-1 $123 $312 $124 $208 reversed $77 $-1 #
coedge $-1 $126 $313 $123 $206 forward $200 $-1 #
edge $-1 $314 -6.2458504922449629 $212 -3.2458504922449629 $205 $315 forward 7 unknown #
coedge $-1 $125 $124 $316 $317 reversed $49 $-1 #
edge $-1 $212 -52.289193395794548 $318 52.289193395794548 $204 $319 forward 7 unknown #
coedge $-1 $320 $321 $125 $210 forward $307 $-1 #
edge $-1 $213 -52.289193395794548 $322 52.289193395794548 $209 $323 forward 7 unknown #
coedge $-1 $313 $126 $321 $324 forward $200 $-1 #
vertex $-1 $127 $325 #
vertex $-1 $324 $326 #
straight-curve $-1 52.289193395794548 -10.475560346335012 -7.9917009844899258 0 -1 0 I I #
face $-1 $327 $328 $29 $-1 $329 forward single #
loop $-1 $-1 $330 $128 #
plane-surface $-1 -52.289193395794548 0 0 1 0 0 0 0 -1 forward_v I I I I #
coedge $-1 $331 $332 $133 $225 forward $129 $-1 #
coedge $-1 $333 $131 $132 $224 reversed $81 $-1 #
coedge $-1 $131 $333 $334 $335 reversed $81 $-1 #
coedge $-1 $336 $330 $131 $222 forward $216 $-1 #
edge $-1 $337 3.2253717017401629 $338 6.2526767557465641 $221 $339 forward 7 unknown #
coedge $-1 $133 $132 $330 $340 reversed $52 $-1 #
edge $-1 $229 -52.289193395794548 $337 52.289193395794548 $219 $341 forward 7 unknown #
edge $-1 $230 -52.289193395794548 $342 52.289193395794548 $218 $343 forward 7 unknown #
coedge $-1 $344 $134 $332 $345 reversed $228 $-1 #
coedge $-1 $134 $344 $333 $346 forward $228 $-1 #
loop $-1 $-1 $134 $327 #
vertex $-1 $135 $347 #
vertex $-1 $225 $348 #
straight-curve $-1 52.289193395794548 11.681400295428187 7.9643959304835263 0 1 0 I I #
face $-1 $-1 $349 $30 $-1 $350 reversed single #
loop $-1 $-1 $142 $136 #
plane-surface $-1 0 0 10.991700984489926 0 0 1 1 0 0 forward_v I I I I #
coedge $-1 $351 $352 $353 $354 reversed $137 $-1 #
coedge $-1 $355 $139 $141 $242 forward $85 $-1 #
coedge $-1 $139 $355 $351 $356 forward $85 $-1 #
coedge $-1 $353 $142 $139 $239 forward $233 $-1 #
edge $-1 $245 0.50100786762405303 $357 9.0092277719154819 $238 $358 forward 7 unknown #
coedge $-1 $359 $360 $140 $241 forward $349 $-1 #
edge $-1 $361 -70.719714599323368 $244 -63.937881796030396 $240 $362 forward 7 unknown #
edge $-1 $245 96.299297722307941 $361 104.57838679158908 $141 $363 forward 7 unknown #
coedge $-1 $142 $353 $359 $364 forward $233 $-1 #
vertex $-1 $241 $365 #
vertex $-1 $143 $366 #
straight-curve $-1 38.985548187373155 -5.25612568739382 10.991700984489924 -1 0 0 I I #
coedge $-1 $247 $247 $-1 $367 reversed $146 $-1 #
edge $-1 $368 0 $368 6.2831853071796004 $147 $369 forward 7 unknown #
vertex $-1 $150 $370 #
ellipse-curve $-1 49.914848241585197 -12.062701610826963 7.6007845828434375 0.81915205242281985 0 0.57357642473473569 0.28678821236736785 0 -0.40957602621140993 1 I I #
coedge $-1 $251 $251 $-1 $371 reversed $153 $-1 #
edge $-1 $372 0 $372 6.2831853071796004 $154 $373 forward 7 unknown #
vertex $-1 $157 $374 #
ellipse-curve $-1 49.914848241585197 -9.510235639539534 7.6007845828434375 0.81915205242281985 0 0.57357642473473569 0.28678821236736785 0 -0.40957602621140993 1 I I #
coedge $-1 $255 $255 $-1 $375 reversed $160 $-1 #
edge $-1 $376 0 $376 6.2831853071796004 $161 $377 forward 7 unknown #
vertex $-1 $164 $378 #
ellipse-curve $-1 49.914848241585197 -6.9577696682521051 7.6007845828434375 0.81915205242281985 0 0.57357642473473569 0.28678821236736785 0 -0.40957602621140993 1 I I #
face $-1 $-1 $271 $34 $-1 $379 forward single #
loop $-1 $-1 $380 $165 #
plane-surface $-1 -52.289193395794548 0 0 1 0 0 0 0 -1 forward_v I I I I #
coedge $-1 $381 $382 $383 $384 reversed $166 $-1 #
coedge $-1 $385 $168 $170 $269 forward $104 $-1 #
coedge $-1 $168 $385 $381 $386 forward $104 $-1 #
coedge $-1 $383 $171 $168 $266 forward $271 $-1 #
edge $-1 $273 -8.9769406181810822 $387 -0.59786932882724297 $265 $388 forward 7 unknown #
coedge $-1 $389 $390 $169 $268 forward $260 $-1 #
edge $-1 $391 -32.157912950787583 $272 -25.45997995945983 $267 $392 forward 7 unknown #
edge $-1 $273 -8.8748481446211613 $391 1.0694430631949516e-014 $170 $393 forward 7 unknown #
coedge $-1 $171 $383 $389 $394 forward $271 $-1 #
loop $-1 $-1 $383 $259 #
vertex $-1 $268 $395 #
vertex $-1 $172 $396 #
straight-curve $-1 -65.607752329227736 -13.764345591685245 10.991700984489924 1 0 0 I I #
coedge $-1 $275 $275 $-1 $397 reversed $175 $-1 #
edge $-1 $398 0 $398 6.2831853071796004 $176 $399 forward 7 unknown #
vertex $-1 $179 $400 #
ellipse-curve $-1 -49.377981310005836 -9.5748099470083261 7.6427344888260471 -0.75470958851134928 0 0.65605901945558964 0.98408852918338452 0 1.132064382767024 1 I I #
face $-1 $-1 $195 $27 $-1 $401 reversed single #
loop $-1 $-1 $295 $180 #
plane-surface $-1 0 28.137895793654799 0 0 -1 0 0 0 -1 forward_v I I I I #
coedge $-1 $402 $293 $296 $403 forward $181 $-1 #
coedge $-1 $299 $183 $184 $287 reversed $113 $-1 #
coedge $-1 $293 $402 $183 $285 reversed $181 $-1 #
edge $-1 $300 -10.991700984489926 $404 10.991700984489926 $284 $405 forward 7 unknown #
coedge $-1 $185 $184 $402 $406 forward $73 $-1 #
edge $-1 $291 -52.289193395794548 $404 52.289193395794548 $283 $407 forward 7 unknown #
coedge $-1 $296 $295 $185 $289 reversed $280 $-1 #
edge $-1 $408 -52.289193395794548 $290 52.289193395794548 $288 $409 forward 7 unknown #
vertex $-1 $187 $410 #
vertex $-1 $302 $411 #
straight-curve $-1 52.289193395794548 0 -10.991700984489926 0 -1 0 I I #
coedge $-1 $282 $284 $188 $294 reversed $181 $-1 #
edge $-1 $297 -28.137895793654799 $300 28.137895793654799 $293 $412 forward 7 unknown #
coedge $-1 $288 $189 $194 $303 forward $280 $-1 #
coedge $-1 $189 $288 $282 $403 reversed $280 $-1 #
vertex $-1 $190 $413 #
straight-curve $-1 0 28.137895793654799 10.991700984489926 -1 0 0 I I #
coedge $-1 $191 $283 $193 $302 reversed $113 $-1 #
vertex $-1 $294 $414 #
straight-curve $-1 0 -28.137895793654799 10.991700984489926 1 0 0 I I #
edge $-1 $196 -10.991700984489926 $291 10.991700984489926 $193 $415 forward 7 unknown #
edge $-1 $197 -10.991700984489926 $290 10.991700984489926 $194 $416 forward 7 unknown #
point $-1 52.289193395794548 -28.137895793654799 10.991700984489926 #
point $-1 52.289193395794548 28.137895793654799 10.991700984489926 #
face $-1 $-1 $417 $28 $-1 $418 reversed single #
loop $-1 $-1 $209 $199 #
plane-surface $-1 0 -28.137895793654799 0 0 1 0 0 0 1 forward_v I I I I #
coedge $-1 $419 $202 $313 $420 forward $121 $-1 #
coedge $-1 $202 $419 $421 $422 forward $121 $-1 #
edge $-1 $423 -52.289193395794548 $314 52.289193395794548 $202 $424 forward 7 unknown #
coedge $-1 $204 $203 $425 $426 reversed $77 $-1 #
coedge $-1 $205 $211 $309 $420 reversed $200 $-1 #
vertex $-1 $420 $427 #
straight-curve $-1 52.289193395794548 -13.764345591685249 -4.7458504922449629 0 0 1 I I #
coedge $-1 $425 $428 $207 $317 forward $417 $-1 #
edge $-1 $322 -17.662335447319787 $318 -3.2887852453502369 $316 $429 forward 7 unknown #
vertex $-1 $317 $430 #
straight-curve $-1 0 -13.764345591685249 -7.9917009844899258 -1 0 0 I I #
coedge $-1 $431 $209 $428 $432 forward $307 $-1 #
coedge $-1 $209 $431 $211 $324 reversed $307 $-1 #
vertex $-1 $432 $433 #
straight-curve $-1 0 -28.137895793654799 -7.9917009844899258 -1 0 0 I I #
edge $-1 $213 7.9917009844899258 $434 10.991700984489926 $211 $435 forward 7 unknown #
point $-1 52.289193395794548 -13.764345591685249 -7.9917009844899258 #
point $-1 52.289193395794548 -28.137895793654799 -7.9917009844899258 #
face $-1 $-1 $228 $29 $-1 $436 reversed single #
loop $-1 $-1 $334 $215 #
plane-surface $-1 0 0 10.991700984489926 0 0 1 1 0 0 forward_v I I I I #
coedge $-1 $221 $437 $223 $340 forward $216 $-1 #
coedge $-1 $438 $218 $437 $439 reversed $129 $-1 #
coedge $-1 $218 $438 $226 $345 forward $129 $-1 #
coedge $-1 $220 $219 $227 $346 reversed $81 $-1 #
coedge $-1 $440 $441 $220 $335 forward $328 $-1 #
edge $-1 $338 -52.289193395794548 $442 52.289193395794548 $334 $443 forward 7 unknown #
coedge $-1 $437 $221 $441 $444 reversed $216 $-1 #
vertex $-1 $340 $445 #
vertex $-1 $222 $446 #
straight-curve $-1 -52.289193395794548 18.587705388057948 4.7390242287433635 0 0 1 I I #
edge $-1 $342 -16.456495498226612 $337 -6.9063050926297613 $330 $447 forward 7 unknown #
straight-curve $-1 0 18.587705388057948 7.9643959304835263 -1 0 0 I I #
vertex $-1 $225 $448 #
straight-curve $-1 0 28.137895793654799 7.9643959304835263 -1 0 0 I I #
coedge $-1 $227 $226 $440 $449 reversed $228 $-1 #
edge $-1 $450 -10.991700984489926 $230 -7.9643959304835263 $226 $451 forward 7 unknown #
edge $-1 $442 -6.2526767557465641 $229 -3.2253717017401629 $227 $452 forward 7 unknown #
point $-1 52.289193395794548 18.587705388057948 7.9643959304835263 #
point $-1 52.289193395794548 28.137895793654799 7.9643959304835263 #
loop $-1 $-1 $240 $232 #
plane-surface $-1 52.289193395794548 0 0 -1 0 0 0 0 1 forward_v I I I I #
coedge $-1 $352 $235 $237 $356 reversed $137 $-1 #
coedge $-1 $235 $351 $453 $454 reversed $137 $-1 #
coedge $-1 $243 $238 $235 $354 forward $233 $-1 #
edge $-1 $357 8.5549549000026914 $455 13.303645208421393 $353 $456 forward 7 unknown #
coedge $-1 $237 $236 $360 $457 reversed $85 $-1 #
edge $-1 $458 -104.57838679158908 $357 -96.299297722307941 $351 $459 forward 7 unknown #
vertex $-1 $239 $460 #
straight-curve $-1 47.540503087375839 -4.755117819769767 10.991700984489924 0 -1 0 I I #
coedge $-1 $453 $240 $243 $364 reversed $349 $-1 #
coedge $-1 $240 $453 $355 $457 forward $349 $-1 #
vertex $-1 $241 $461 #
straight-curve $-1 52.289193395794548 -5.25612568739382 74.92958278052032 0 0 1 I I #
straight-curve $-1 -7.6945038046514185 -5.25612568739382 89.875468360594652 0.57357642473473569 0 -0.81915205242281985 I I #
edge $-1 $455 -13.764345591685249 $244 -5.25612568739382 $359 $462 forward 7 unknown #
point $-1 52.289193395794548 -5.25612568739382 10.991700984489926 #
point $-1 47.540503087375846 -5.25612568739382 10.991700984489924 #
edge $-1 $463 1 $463 0 $247 $-1 forward 7 unknown #
vertex $-1 $248 $464 #
ellipse-curve $-1 48.857290367819857 -12.062701610826963 6.8602746098899745 0.81915205242281985 0 0.57357642473473569 0.28678821236736785 0 -0.40957602621140993 1 I I #
point $-1 50.20163645395256 -12.062701610826963 7.1912085566320219 #
edge $-1 $465 1 $465 0 $251 $-1 forward 7 unknown #
vertex $-1 $252 $466 #
ellipse-curve $-1 48.857290367819857 -9.510235639539534 6.8602746098899745 0.81915205242281985 0 0.57357642473473569 0.28678821236736785 0 -0.40957602621140993 1 I I #
point $-1 50.20163645395256 -9.510235639539534 7.1912085566320219 #
edge $-1 $467 1 $467 0 $255 $-1 forward 7 unknown #
vertex $-1 $256 $468 #
ellipse-curve $-1 48.857290367819857 -6.9577696682521051 6.8602746098899745 0.81915205242281985 0 0.57357642473473569 0.28678821236736785 0 -0.40957602621140993 1 I I #
point $-1 50.20163645395256 -6.9577696682521051 7.1912085566320219 #
plane-surface $-1 0 0 10.991700984489926 0 0 1 1 0 0 forward_v I I I I #
coedge $-1 $390 $389 $382 $469 forward $260 $-1 #
coedge $-1 $382 $262 $264 $386 reversed $166 $-1 #
coedge $-1 $262 $381 $380 $469 reversed $166 $-1 #
coedge $-1 $270 $265 $262 $384 forward $271 $-1 #
edge $-1 $387 -19.140983105010612 $470 -13.318558933433188 $383 $471 forward 7 unknown #
coedge $-1 $264 $263 $390 $472 reversed $104 $-1 #
edge $-1 $473 -1.0694430631949516e-014 $387 8.8748481446211613 $381 $474 forward 7 unknown #
vertex $-1 $266 $475 #
straight-curve $-1 -46.466769224217117 -4.7874049735041631 10.991700984489924 0 1 0 I I #
coedge $-1 $380 $267 $270 $394 reversed $260 $-1 #
coedge $-1 $267 $380 $385 $472 forward $260 $-1 #
vertex $-1 $268 $476 #
straight-curve $-1 -52.289193395794548 -13.764345591685245 36.451680943949754 0 0 1 I I #
straight-curve $-1 -52.289193395794541 -13.764345591685245 4.2937679931621773 -0.65605901945558964 0 -0.75470958851134928 I I #
edge $-1 $470 5.385274302331406 $272 13.764345591685245 $389 $477 forward 7 unknown #
point $-1 -52.289193395794548 -13.764345591685245 10.991700984489926 #
point $-1 -46.466769224217124 -13.764345591685245 10.991700984489924 #
edge $-1 $478 1 $478 0 $275 $-1 forward 7 unknown #
vertex $-1 $276 $479 #
ellipse-curve $-1 -45.404544846562359 -9.5748099470083261 4.1886789557332484 -0.75470958851134928 0 0.65605901945558964 0.98408852918338452 0 1.132064382767024 1 I I #
point $-1 -48.393892780822455 -9.5748099470083261 8.7747988715930738 #
plane-surface $-1 52.289193395794548 0 0 -1 0 0 0 0 1 forward_v I I I I #
coedge $-1 $284 $282 $286 $406 reversed $181 $-1 #
edge $-1 $297 -10.991700984489926 $408 10.991700984489926 $296 $480 forward 7 unknown #
vertex $-1 $406 $481 #
straight-curve $-1 -52.289193395794548 -28.137895793654799 0 0 0 -1 I I #
edge $-1 $404 -28.137895793654799 $408 28.137895793654799 $402 $482 forward 7 unknown #
straight-curve $-1 0 -28.137895793654799 -10.991700984489926 -1 0 0 I I #
vertex $-1 $289 $483 #
straight-curve $-1 0 28.137895793654799 -10.991700984489926 1 0 0 I I #
point $-1 52.289193395794548 28.137895793654799 -10.991700984489926 #
point $-1 52.289193395794548 -28.137895793654799 -10.991700984489926 #
straight-curve $-1 -52.289193395794548 0 10.991700984489926 0 -1 0 I I #
point $-1 -52.289193395794548 28.137895793654799 10.991700984489926 #
point $-1 -52.289193395794548 -28.137895793654799 10.991700984489926 #
straight-curve $-1 52.289193395794548 -28.137895793654799 0 0 0 -1 I I #
straight-curve $-1 52.289193395794548 28.137895793654799 0 0 0 -1 I I #
loop $-1 $-1 $425 $306 #
plane-surface $-1 -52.289193395794548 0 0 1 0 0 0 0 -1 forward_v I I I I #
coedge $-1 $310 $309 $431 $484 forward $121 $-1 #
edge $-1 $314 13.764345591685249 $434 28.137895793654799 $313 $485 forward 7 unknown #
coedge $-1 $428 $425 $310 $422 reversed $417 $-1 #
edge $-1 $486 -28.137895793654799 $423 -13.764345591685249 $421 $487 forward 7 unknown #
vertex $-1 $426 $488 #
straight-curve $-1 0 -13.764345591685249 -10.991700984489926 1 0 0 I I #
coedge $-1 $421 $316 $312 $426 forward $417 $-1 #
edge $-1 $318 3.2458504922449629 $423 6.2458504922449629 $425 $489 forward 7 unknown #
point $-1 52.289193395794548 -13.764345591685249 -10.991700984489926 #
coedge $-1 $316 $421 $320 $432 reversed $417 $-1 #
straight-curve $-1 -52.289193395794548 -10.475560346335012 -7.9917009844899258 0 1 0 I I #
point $-1 -52.289193395794548 -13.764345591685249 -7.9917009844899258 #
coedge $-1 $321 $320 $419 $484 reversed $307 $-1 #
edge $-1 $322 7.9917009844899258 $486 10.991700984489926 $428 $490 forward 7 unknown #
point $-1 -52.289193395794548 -28.137895793654799 -7.9917009844899258 #
vertex $-1 $324 $491 #
straight-curve $-1 52.289193395794548 -28.137895793654799 0 0 0 -1 I I #
plane-surface $-1 52.289193395794548 0 0 -1 0 0 0 0 1 forward_v I I I I #
coedge $-1 $330 $336 $331 $439 forward $216 $-1 #
coedge $-1 $332 $331 $492 $493 reversed $129 $-1 #
edge $-1 $494 -10.991700984489926 $342 -7.9643959304835263 $331 $495 forward 7 unknown #
coedge $-1 $492 $334 $344 $449 forward $328 $-1 #
coedge $-1 $334 $492 $336 $444 forward $328 $-1 #
vertex $-1 $449 $496 #
straight-curve $-1 0 18.587705388057948 10.991700984489926 1 0 0 I I #
edge $-1 $494 -28.137895793654799 $338 -18.587705388057948 $336 $497 forward 7 unknown #
point $-1 -52.289193395794548 18.587705388057948 7.9643959304835263 #
point $-1 -52.289193395794548 18.587705388057948 10.991700984489928 #
straight-curve $-1 -52.289193395794548 11.681400295428187 7.9643959304835263 0 -1 0 I I #
point $-1 -52.289193395794548 28.137895793654799 7.9643959304835263 #
edge $-1 $442 18.587705388057948 $450 28.137895793654799 $344 $498 forward 7 unknown #
vertex $-1 $449 $499 #
straight-curve $-1 52.289193395794548 28.137895793654799 0 0 0 -1 I I #
straight-curve $-1 52.289193395794548 18.587705388057948 4.7390242287433635 0 0 -1 I I #
coedge $-1 $360 $359 $352 $454 forward $349 $-1 #
edge $-1 $455 63.937881796030396 $458 70.719714599323368 $453 $500 forward 7 unknown #
vertex $-1 $364 $501 #
straight-curve $-1 38.985548187373155 -13.764345591685249 10.991700984489924 1 0 0 I I #
edge $-1 $458 -9.0092277719154819 $361 -0.50100786762405303 $360 $502 forward 7 unknown #
vertex $-1 $457 $503 #
straight-curve $-1 -7.6945038046514185 -13.764345591685249 89.875468360594652 -0.57357642473473569 0 0.81915205242281985 I I #
point $-1 47.540503087375846 -13.764345591685249 10.991700984489924 #
point $-1 52.289193395794548 -5.25612568739382 4.2098681811969527 #
straight-curve $-1 52.289193395794548 0 10.991700984489926 0 1 0 I I #
vertex $-1 $367 $504 #
point $-1 49.144078580187227 -12.062701610826963 6.4506985836785642 #
vertex $-1 $371 $505 #
point $-1 49.144078580187227 -9.510235639539534 6.4506985836785642 #
vertex $-1 $375 $506 #
point $-1 49.144078580187227 -6.9577696682521051 6.4506985836785642 #
edge $-1 $470 25.45997995945983 $473 32.157912950787583 $380 $507 forward 7 unknown #
vertex $-1 $394 $508 #
straight-curve $-1 -65.607752329227736 -5.385274302331406 10.991700984489924 -1 0 0 I I #
edge $-1 $473 0.59786932882724297 $391 8.9769406181810822 $390 $509 forward 7 unknown #
vertex $-1 $472 $510 #
straight-curve $-1 -52.289193395794541 -5.385274302331406 4.2937679931621773 0.65605901945558964 0 0.75470958851134928 I I #
point $-1 -46.466769224217124 -5.385274302331406 10.991700984489924 #
point $-1 -52.289193395794548 -13.764345591685245 4.2937679931621693 #
straight-curve $-1 -52.289193395794548 0 10.991700984489926 0 -1 0 I I #
vertex $-1 $397 $511 #
point $-1 -44.420456317378971 -9.5748099470083261 5.3207433385002725 #
straight-curve $-1 -52.289193395794548 28.137895793654799 0 0 0 -1 I I #
point $-1 -52.289193395794548 -28.137895793654799 -10.991700984489926 #
straight-curve $-1 -52.289193395794548 0 -10.991700984489926 0 1 0 I I #
point $-1 -52.289193395794548 28.137895793654799 -10.991700984489926 #
edge $-1 $434 -52.289193395794548 $486 52.289193395794548 $431 $512 forward 7 unknown #
straight-curve $-1 52.289193395794548 0 -10.991700984489926 0 -1 0 I I #
vertex $-1 $422 $513 #
straight-curve $-1 -52.289193395794548 0 -10.991700984489926 0 1 0 I I #
point $-1 -52.289193395794548 -13.764345591685249 -10.991700984489926 #
straight-curve $-1 -52.289193395794548 -13.764345591685249 -4.7458504922449629 0 0 -1 I I #
straight-curve $-1 -52.289193395794548 -28.137895793654799 0 0 0 -1 I I #
point $-1 52.289193395794548 -28.137895793654799 -10.991700984489926 #
coedge $-1 $441 $440 $438 $493 forward $328 $-1 #
edge $-1 $450 -52.289193395794548 $494 52.289193395794548 $438 $514 forward 7 unknown #
vertex $-1 $493 $515 #
straight-curve $-1 -52.289193395794548 28.137895793654799 0 0 0 -1 I I #
point $-1 52.289193395794548 18.587705388057948 10.991700984489928 #
straight-curve $-1 -52.289193395794548 0 10.991700984489926 0 -1 0 I I #
straight-curve $-1 52.289193395794548 0 10.991700984489926 0 1 0 I I #
point $-1 52.289193395794548 28.137895793654799 10.991700984489926 #
straight-curve $-1 52.289193395794548 -13.764345591685249 74.92958278052032 0 0 -1 I I #
point $-1 52.289193395794548 -13.764345591685249 10.991700984489926 #
straight-curve $-1 52.289193395794555 -4.755117819769767 4.2098681811969456 0 1 0 I I #
point $-1 52.289193395794548 -13.764345591685249 4.2098681811969527 #
point $-1 48.447714341608446 -12.062701610826963 6.5734863975226068 #
point $-1 48.447714341608446 -9.510235639539534 6.5734863975226068 #
point $-1 48.447714341608446 -6.9577696682521051 6.5734863975226068 #
straight-curve $-1 -52.289193395794548 -5.385274302331406 36.451680943949754 0 0 -1 I I #
point $-1 -52.289193395794548 -5.385274302331406 10.991700984489926 #
straight-curve $-1 -52.289193395794548 -4.7874049735041631 4.2937679931621648 0 -1 0 I I #
point $-1 -52.289193395794548 -5.385274302331406 4.2937679931621693 #
point $-1 -44.272480463795333 -9.5748099470083261 3.2045904265498635 #
straight-curve $-1 0 -28.137895793654799 -10.991700984489926 -1 0 0 I I #
point $-1 -52.289193395794548 -28.137895793654799 -10.991700984489926 #
straight-curve $-1 0 28.137895793654799 10.991700984489926 -1 0 0 I I #
point $-1 -52.289193395794548 28.137895793654799 10.991700984489926 #
End-of-ACIS-data 