500 0 8 0           
7 Unknown 11 ACIS 5.0 NT 24 Thu Mar 25 19:11:56 1999 
-1 9.9999999999999995e-007 1e-010 
body $-1 $8 $-1 $9 #
body $-1 $10 $-1 $11 #
body $-1 $12 $-1 $13 #
body $-1 $14 $-1 $15 #
body $-1 $16 $-1 $17 #
body $-1 $18 $-1 $19 #
body $-1 $20 $-1 $21 #
body $-1 $22 $-1 $23 #
lump $-1 $-1 $24 $0 #
transform $-1 1 0 0 0 1 0 0 0 1 77.399822992645028 46.39832035631364 16.366640405724663 1 rotate no_reflect no_shear #
lump $-1 $-1 $25 $1 #
transform $-1 1 0 0 0 1 0 0 0 1 77.399822992645028 46.39832035631364 16.366640405724663 1 rotate no_reflect no_shear #
lump $-1 $-1 $26 $2 #
transform $-1 1 0 0 0 1 0 0 0 1 77.399822992645028 46.39832035631364 16.366640405724663 1 rotate no_reflect no_shear #
lump $-1 $-1 $27 $3 #
transform $-1 1 0 0 0 1 0 0 0 1 77.399822992645028 46.39832035631364 16.366640405724663 1 rotate no_reflect no_shear #
lump $-1 $-1 $28 $4 #
transform $-1 1 0 0 0 1 0 0 0 1 77.399822992645028 46.39832035631364 16.366640405724663 1 rotate no_reflect no_shear #
lump $-1 $-1 $29 $5 #
transform $-1 1 0 0 0 1 0 0 0 1 77.399822992645028 46.39832035631364 16.366640405724663 1 rotate no_reflect no_shear #
lump $-1 $-1 $30 $6 #
transform $-1 1 0 0 0 1 0 0 0 1 77.399822992645028 46.39832035631364 16.366640405724663 1 rotate no_reflect no_shear #
lump $-1 $-1 $31 $7 #
transform $-1 1 0 0 0 1 0 0 0 1 77.399822992645028 46.39832035631364 16.366640405724663 1 rotate no_reflect no_shear #
shell $-1 $-1 $-1 $32 $-1 $8 #
shell $-1 $-1 $-1 $33 $-1 $10 #
shell $-1 $-1 $-1 $34 $-1 $12 #
shell $-1 $-1 $-1 $35 $-1 $14 #
shell $-1 $-1 $-1 $36 $-1 $16 #
shell $-1 $-1 $-1 $37 $-1 $18 #
shell $-1 $-1 $-1 $38 $-1 $20 #
shell $-1 $-1 $-1 $39 $-1 $22 #
face $-1 $40 $41 $24 $-1 $42 forward single #
face $-1 $43 $44 $25 $-1 $45 forward single #
face $-1 $46 $47 $26 $-1 $48 forward single #
face $-1 $49 $50 $27 $-1 $51 reversed single #
face $-1 $52 $53 $28 $-1 $54 forward single #
face $-1 $55 $56 $29 $-1 $57 reversed single #
face $-1 $58 $59 $30 $-1 $60 forward single #
face $-1 $61 $62 $31 $-1 $63 forward single #
face $-1 $64 $65 $24 $-1 $66 reversed single #
loop $-1 $-1 $67 $32 #
plane-surface $-1 0 0 16.366640405724663 0 0 1 1 0 0 forward_v I I I I #
face $-1 $68 $69 $25 $-1 $70 reversed single #
loop $-1 $-1 $71 $33 #
plane-surface $-1 0 -40.200210150062432 -12.600619856663631 0 0 1 1 0 0 forward_v I I I I #
face $-1 $72 $73 $26 $-1 $74 reversed single #
loop $-1 $-1 $75 $34 #
plane-surface $-1 0 40.200210150062439 -12.600619856663631 0 0 1 1 0 0 forward_v I I I I #
face $-1 $76 $77 $27 $-1 $78 reversed single #
loop $-1 $-1 $79 $35 #
plane-surface $-1 77.399825532672821 -13.922524934419584 224.05722849104259 0 -1 0 -0.70710678939079041 0 -0.70710677298230451 forward_v I I I I #
face $-1 $80 $81 $28 $-1 $82 forward single #
loop $-1 $83 $84 $36 #
cone-surface $-1 69.81676743986705 -23.962312439115408 8.7835847683382084 -0.70710678939079041 0 -0.70710677298230451 1.0606601594734568 0 -1.0606601840861856 1 I I 0 1 1.5 forward I I I I #
face $-1 $85 $86 $29 $-1 $87 reversed single #
loop $-1 $-1 $88 $37 #
plane-surface $-1 -186.85970366413443 16.739655002093112 114.3301537076189 0 1 0 -0.70710678939079041 0 0.70710677298230451 forward_v I I I I #
face $-1 $89 $90 $30 $-1 $91 forward single #
loop $-1 $92 $93 $38 #
cone-surface $-1 -70.58388075807423 21.671782128298297 9.5506980625441908 0.70710678939079041 0 -0.70710677298230451 0.70710677298230451 0 0.70710678939079041 1 I I 0 1 1 forward I I I I #
face $-1 $94 $95 $31 $-1 $96 forward single #
loop $-1 $97 $98 $39 #
cone-surface $-1 -70.58388075807423 29.069972817606065 9.5506980625441908 0.70710678939079041 0 -0.70710677298230451 0.70710677298230451 0 0.70710678939079041 1 I I 0 1 1 forward I I I I #
face $-1 $99 $100 $24 $-1 $101 reversed single #
loop $-1 $-1 $102 $40 #
plane-surface $-1 0 0 -16.366640405724663 0 0 1 1 0 0 forward_v I I I I #
coedge $-1 $103 $104 $105 $106 forward $41 $-1 #
face $-1 $107 $108 $25 $-1 $109 reversed single #
loop $-1 $-1 $110 $43 #
plane-surface $-1 0 -34.002099943811224 -14.483630131194147 0 -1 0 0 0 -1 forward_v I I I I #
coedge $-1 $111 $112 $113 $114 reversed $44 $-1 #
face $-1 $115 $116 $26 $-1 $117 reversed single #
loop $-1 $-1 $118 $46 #
plane-surface $-1 0 34.002099943811231 -14.483630131194147 0 1 0 0 0 1 forward_v I I I I #
coedge $-1 $119 $120 $121 $122 reversed $47 $-1 #
face $-1 $123 $124 $27 $-1 $125 reversed single #
loop $-1 $-1 $126 $49 #
plane-surface $-1 -32.060055138816594 -23.962312439115404 114.59735035958099 0.70710678939079041 0 0.70710677298230451 0.70710677298230451 0 -0.70710678939079041 forward_v I I I I #
coedge $-1 $127 $128 $129 $130 reversed $50 $-1 #
face $-1 $-1 $131 $28 $-1 $132 forward single #
loop $-1 $133 $134 $52 #
cone-surface $-1 67.317967023575505 -23.962312439115408 6.2847844100315804 -0.70710678939079041 0 -0.70710677298230451 0.53033007973672841 0 -0.53033009204309278 1 I I -0.70710678118654757 0.70710678118654757 0.75 forward I I I I #
loop $-1 $-1 $135 $36 #
coedge $-1 $84 $84 $136 $137 reversed $53 $-1 #
face $-1 $138 $139 $29 $-1 $140 reversed single #
loop $-1 $-1 $141 $55 #
plane-surface $-1 -77.399822992645014 25.370877472952166 4.8702755761572973 -0.70710678939079041 0 0.70710677298230451 0.70710677298230451 0 0.70710678939079041 forward_v I I I I #
coedge $-1 $142 $143 $144 $145 reversed $56 $-1 #
face $-1 $-1 $146 $30 $-1 $147 forward single #
loop $-1 $148 $149 $58 #
cone-surface $-1 -69.162567410204559 21.671782128298297 8.1293847476562391 0.70710678939079041 0 -0.70710677298230451 0.35355338649115226 0 0.35355339469539521 1 I I -0.70710678118654746 0.70710678118654746 0.5 forward I I I I #
loop $-1 $-1 $150 $38 #
coedge $-1 $93 $93 $151 $152 reversed $59 $-1 #
face $-1 $-1 $153 $31 $-1 $154 forward single #
loop $-1 $155 $156 $61 #
cone-surface $-1 -69.162567410204559 29.069972817606065 8.1293847476562391 0.70710678939079041 0 -0.70710677298230451 0.35355338649115226 0 0.35355339469539521 1 I I -0.70710678118654746 0.70710678118654746 0.5 forward I I I I #
loop $-1 $-1 $157 $39 #
coedge $-1 $98 $98 $158 $159 reversed $62 $-1 #
face $-1 $160 $161 $24 $-1 $162 reversed single #
loop $-1 $-1 $163 $64 #
plane-surface $-1 0 -46.39832035631364 0 0 1 0 0 0 1 forward_v I I I I #
coedge $-1 $164 $165 $166 $167 forward $65 $-1 #
coedge $-1 $168 $67 $169 $170 forward $41 $-1 #
coedge $-1 $67 $168 $171 $172 forward $41 $-1 #
coedge $-1 $173 $174 $67 $106 reversed $175 $-1 #
edge $-1 $176 -46.39832035631364 $177 46.39832035631364 $105 $178 forward 7 unknown #
face $-1 $179 $180 $25 $-1 $181 reversed single #
loop $-1 $-1 $182 $68 #
plane-surface $-1 0 0 -16.366640405724663 0 0 1 1 0 0 forward_v I I I I #
coedge $-1 $183 $184 $185 $186 reversed $69 $-1 #
coedge $-1 $187 $71 $184 $188 forward $44 $-1 #
coedge $-1 $71 $187 $189 $190 reversed $44 $-1 #
coedge $-1 $191 $185 $71 $114 forward $180 $-1 #
edge $-1 $192 13.901994868780008 $193 26.298215281282424 $113 $194 forward 7 unknown #
face $-1 $195 $196 $26 $-1 $197 reversed single #
loop $-1 $-1 $121 $72 #
plane-surface $-1 77.399822992645028 0 0 -1 0 0 0 0 1 forward_v I I I I #
coedge $-1 $198 $199 $200 $201 reversed $73 $-1 #
coedge $-1 $202 $75 $203 $204 reversed $47 $-1 #
coedge $-1 $75 $202 $199 $205 forward $47 $-1 #
coedge $-1 $206 $207 $75 $122 forward $116 $-1 #
edge $-1 $208 -26.298215281282427 $209 -13.901994868780012 $121 $210 forward 7 unknown #
face $-1 $211 $212 $27 $-1 $213 forward single #
loop $-1 $-1 $214 $76 #
plane-surface $-1 77.399825532672821 -34.002099943811224 224.05722849104259 0 1 0 0.70710678939079041 0 0.70710677298230451 forward_v I I I I #
coedge $-1 $215 $216 $217 $218 reversed $77 $-1 #
coedge $-1 $128 $79 $219 $220 reversed $50 $-1 #
coedge $-1 $79 $127 $215 $221 reversed $50 $-1 #
coedge $-1 $217 $222 $79 $130 forward $212 $-1 #
edge $-1 $223 -38.699910226308617 $224 -27.470739769249576 $129 $225 forward 7 unknown #
loop $-1 $-1 $136 $80 #
plane-surface $-1 -32.060055138816594 -23.962312439115404 114.59735035958099 0.70710678939079041 0 0.70710677298230451 0.70710677298230451 0 -0.70710678939079041 forward_v I I I I #
loop $-1 $-1 $226 $52 #
coedge $-1 $134 $134 $135 $227 reversed $81 $-1 #
coedge $-1 $135 $135 $134 $227 forward $83 $-1 #
coedge $-1 $136 $136 $84 $137 forward $131 $-1 #
edge $-1 $228 0 $228 6.2831853071796004 $136 $229 forward 7 unknown #
face $-1 $230 $231 $29 $-1 $232 reversed single #
loop $-1 $-1 $233 $85 #
plane-surface $-1 -186.85970366413443 34.002099943811217 114.3301537076189 0 -1 0 0.70710678939079041 0 -0.70710677298230451 forward_v I I I I #
coedge $-1 $234 $235 $236 $237 reversed $86 $-1 #
coedge $-1 $143 $88 $238 $239 reversed $56 $-1 #
coedge $-1 $88 $142 $234 $240 reversed $56 $-1 #
coedge $-1 $236 $241 $88 $145 forward $242 $-1 #
edge $-1 $243 16.030028839422187 $244 27.526393402215234 $144 $245 forward 7 unknown #
loop $-1 $-1 $151 $89 #
plane-surface $-1 -77.399822992645014 25.370877472952166 4.8702755761572973 -0.70710678939079041 0 0.70710677298230451 0.70710677298230451 0 0.70710678939079041 forward_v I I I I #
loop $-1 $-1 $246 $58 #
coedge $-1 $149 $149 $150 $247 reversed $90 $-1 #
coedge $-1 $150 $150 $149 $247 forward $92 $-1 #
coedge $-1 $151 $151 $93 $152 forward $146 $-1 #
edge $-1 $248 0 $248 6.2831853071796004 $151 $249 forward 7 unknown #
loop $-1 $-1 $158 $94 #
plane-surface $-1 -77.399822992645014 25.370877472952166 4.8702755761572973 -0.70710678939079041 0 0.70710677298230451 0.70710677298230451 0 0.70710678939079041 forward_v I I I I #
loop $-1 $-1 $250 $61 #
coedge $-1 $156 $156 $157 $251 reversed $95 $-1 #
coedge $-1 $157 $157 $156 $251 forward $97 $-1 #
coedge $-1 $158 $158 $98 $159 forward $153 $-1 #
edge $-1 $252 0 $252 6.2831853071796004 $158 $253 forward 7 unknown #
face $-1 $254 $255 $24 $-1 $256 reversed single #
loop $-1 $-1 $257 $99 #
plane-surface $-1 -77.399822992645028 0 0 1 0 0 0 0 -1 forward_v I I I I #
coedge $-1 $258 $171 $259 $260 forward $100 $-1 #
coedge $-1 $261 $102 $258 $262 forward $65 $-1 #
coedge $-1 $102 $261 $263 $264 forward $65 $-1 #
coedge $-1 $174 $173 $102 $167 reversed $175 $-1 #
edge $-1 $265 -46.39832035631364 $266 46.39832035631364 $166 $267 forward 7 unknown #
coedge $-1 $104 $103 $268 $269 forward $41 $-1 #
coedge $-1 $270 $271 $103 $170 reversed $255 $-1 #
edge $-1 $177 -77.399822992645028 $272 77.399822992645028 $169 $273 forward 7 unknown #
coedge $-1 $163 $274 $104 $172 reversed $100 $-1 #
edge $-1 $275 -77.399822992645028 $176 77.399822992645028 $171 $276 forward 7 unknown #
coedge $-1 $166 $105 $274 $277 forward $175 $-1 #
coedge $-1 $105 $166 $270 $278 reversed $175 $-1 #
loop $-1 $-1 $173 $254 #
vertex $-1 $106 $279 #
vertex $-1 $106 $280 #
straight-curve $-1 77.399822992645028 0 16.366640405724663 0 1 0 I I #
face $-1 $281 $282 $25 $-1 $283 reversed single #
loop $-1 $-1 $185 $107 #
plane-surface $-1 77.399822992645028 0 0 -1 0 0 0 0 1 forward_v I I I I #
coedge $-1 $284 $285 $183 $286 forward $108 $-1 #
coedge $-1 $287 $110 $182 $286 reversed $69 $-1 #
coedge $-1 $110 $287 $111 $188 reversed $69 $-1 #
coedge $-1 $113 $288 $110 $186 forward $180 $-1 #
edge $-1 $289 -9.1248253401275896 $192 -5.3588047910665573 $185 $290 forward 7 unknown #
coedge $-1 $112 $111 $291 $292 reversed $44 $-1 #
edge $-1 $192 -77.399822992645028 $293 77.399822992645028 $184 $294 forward 7 unknown #
coedge $-1 $295 $296 $112 $190 forward $282 $-1 #
edge $-1 $193 -77.399822992645028 $297 77.399822992645028 $189 $298 forward 7 unknown #
coedge $-1 $288 $113 $296 $299 forward $180 $-1 #
vertex $-1 $114 $300 #
vertex $-1 $299 $301 #
straight-curve $-1 77.399822992645028 -20.100105075031216 -12.600619856663631 0 -1 0 I I #
face $-1 $302 $303 $26 $-1 $304 reversed single #
loop $-1 $-1 $305 $115 #
plane-surface $-1 0 0 -16.366640405724663 0 0 1 1 0 0 forward_v I I I I #
coedge $-1 $306 $118 $305 $307 reversed $73 $-1 #
coedge $-1 $118 $306 $120 $205 reversed $73 $-1 #
coedge $-1 $308 $309 $118 $201 forward $303 $-1 #
edge $-1 $310 -9.1248253401275896 $311 -5.3588047910665573 $200 $312 forward 7 unknown #
coedge $-1 $120 $119 $308 $313 reversed $47 $-1 #
coedge $-1 $314 $315 $119 $204 forward $316 $-1 #
edge $-1 $317 -77.399822992645028 $208 77.399822992645028 $203 $318 forward 7 unknown #
edge $-1 $311 -77.399822992645028 $209 77.399822992645028 $199 $319 forward 7 unknown #
coedge $-1 $320 $121 $306 $321 forward $116 $-1 #
coedge $-1 $121 $320 $314 $322 reversed $116 $-1 #
vertex $-1 $322 $323 #
vertex $-1 $122 $324 #
straight-curve $-1 77.399822992645028 20.10010507503122 -12.600619856663631 0 -1 0 I I #
face $-1 $-1 $325 $27 $-1 $326 reversed single #
loop $-1 $-1 $129 $123 #
plane-surface $-1 0 0 16.366640405724663 0 0 1 1 0 0 forward_v I I I I #
coedge $-1 $327 $328 $329 $330 reversed $124 $-1 #
coedge $-1 $331 $126 $128 $221 forward $77 $-1 #
coedge $-1 $126 $331 $327 $332 forward $77 $-1 #
coedge $-1 $329 $129 $126 $218 forward $212 $-1 #
edge $-1 $224 1.9413687148618823 $333 22.02094372425352 $217 $334 forward 7 unknown #
coedge $-1 $335 $336 $127 $220 forward $325 $-1 #
edge $-1 $337 -106.89114455742974 $223 -95.66197383979663 $219 $338 forward 7 unknown #
edge $-1 $224 138.91920064646425 $337 154.79964598529014 $128 $339 forward 7 unknown #
coedge $-1 $129 $329 $335 $340 forward $212 $-1 #
vertex $-1 $220 $341 #
vertex $-1 $130 $342 #
straight-curve $-1 38.699912766336411 -13.922524934419584 16.366640405724667 -1 0 0 I I #
coedge $-1 $226 $226 $-1 $343 reversed $133 $-1 #
edge $-1 $344 0 $344 6.2831853071796004 $134 $345 forward 7 unknown #
vertex $-1 $137 $346 #
ellipse-curve $-1 71.785237764115507 -23.962312439115408 10.752055046908112 0.70710678939079041 0 0.70710677298230451 1.0606601594734568 0 -1.0606601840861856 1 I I #
face $-1 $-1 $242 $29 $-1 $347 forward single #
loop $-1 $-1 $348 $138 #
plane-surface $-1 -77.399822992645028 0 0 1 0 0 0 0 -1 forward_v I I I I #
coedge $-1 $349 $350 $351 $352 reversed $139 $-1 #
coedge $-1 $353 $141 $143 $240 forward $86 $-1 #
coedge $-1 $141 $353 $349 $354 forward $86 $-1 #
coedge $-1 $351 $144 $141 $237 forward $242 $-1 #
edge $-1 $244 4.0542162656170291 $355 21.316661207335134 $236 $356 forward 7 unknown #
coedge $-1 $357 $358 $142 $239 forward $231 $-1 #
edge $-1 $359 -52.294801277652169 $243 -40.798436448084786 $238 $360 forward 7 unknown #
edge $-1 $244 -16.258314871325293 $359 2.0097183471152325e-014 $143 $361 forward 7 unknown #
coedge $-1 $144 $351 $357 $362 forward $242 $-1 #
loop $-1 $-1 $351 $230 #
vertex $-1 $239 $363 #
vertex $-1 $145 $364 #
straight-curve $-1 -93.429851832067214 16.739655002093112 16.366640405724667 1 0 0 I I #
coedge $-1 $246 $246 $-1 $365 reversed $148 $-1 #
edge $-1 $366 0 $366 6.2831853071796004 $149 $367 forward 7 unknown #
vertex $-1 $152 $368 #
ellipse-curve $-1 -71.651640711248504 21.671782128298297 10.618457990940978 -0.70710678939079041 0 0.70710677298230451 0.70710677298230451 0 0.70710678939079041 1 I I #
coedge $-1 $250 $250 $-1 $369 reversed $155 $-1 #
edge $-1 $370 0 $370 6.2831853071796004 $156 $371 forward 7 unknown #
vertex $-1 $159 $372 #
ellipse-curve $-1 -71.651640711248504 29.069972817606065 10.618457990940978 -0.70710678939079041 0 0.70710677298230451 0.70710677298230451 0 0.70710678939079041 1 I I #
face $-1 $-1 $175 $24 $-1 $373 reversed single #
loop $-1 $-1 $270 $160 #
plane-surface $-1 0 46.39832035631364 0 0 -1 0 0 0 -1 forward_v I I I I #
coedge $-1 $374 $268 $271 $375 forward $161 $-1 #
coedge $-1 $274 $163 $164 $262 reversed $100 $-1 #
coedge $-1 $268 $374 $163 $260 reversed $161 $-1 #
edge $-1 $275 -16.366640405724663 $376 16.366640405724663 $259 $377 forward 7 unknown #
coedge $-1 $165 $164 $374 $378 forward $65 $-1 #
edge $-1 $266 -77.399822992645028 $376 77.399822992645028 $258 $379 forward 7 unknown #
coedge $-1 $271 $270 $165 $264 reversed $255 $-1 #
edge $-1 $380 -77.399822992645028 $265 77.399822992645028 $263 $381 forward 7 unknown #
vertex $-1 $167 $382 #
vertex $-1 $277 $383 #
straight-curve $-1 77.399822992645028 0 -16.366640405724663 0 -1 0 I I #
coedge $-1 $257 $259 $168 $269 reversed $161 $-1 #
edge $-1 $272 -46.39832035631364 $275 46.39832035631364 $268 $384 forward 7 unknown #
coedge $-1 $263 $169 $174 $278 forward $255 $-1 #
coedge $-1 $169 $263 $257 $375 reversed $255 $-1 #
vertex $-1 $170 $385 #
straight-curve $-1 0 46.39832035631364 16.366640405724663 -1 0 0 I I #
coedge $-1 $171 $258 $173 $277 reversed $100 $-1 #
vertex $-1 $269 $386 #
straight-curve $-1 0 -46.39832035631364 16.366640405724663 1 0 0 I I #
edge $-1 $176 -16.366640405724663 $266 16.366640405724663 $173 $387 forward 7 unknown #
edge $-1 $177 -16.366640405724663 $265 16.366640405724663 $174 $388 forward 7 unknown #
point $-1 77.399822992645028 -46.39832035631364 16.366640405724663 #
point $-1 77.399822992645028 46.39832035631364 16.366640405724663 #
face $-1 $-1 $389 $25 $-1 $390 reversed single #
loop $-1 $-1 $189 $179 #
plane-surface $-1 0 -46.39832035631364 0 0 1 0 0 0 1 forward_v I I I I #
coedge $-1 $391 $182 $288 $392 forward $108 $-1 #
coedge $-1 $182 $391 $393 $394 forward $108 $-1 #
edge $-1 $395 -77.399822992645028 $289 77.399822992645028 $182 $396 forward 7 unknown #
coedge $-1 $184 $183 $397 $398 reversed $69 $-1 #
coedge $-1 $185 $191 $284 $392 reversed $180 $-1 #
vertex $-1 $392 $399 #
straight-curve $-1 77.399822992645028 -34.002099943811224 -7.2418150655970734 0 0 1 I I #
coedge $-1 $397 $400 $187 $292 forward $389 $-1 #
edge $-1 $297 -26.298215281282424 $293 -13.901994868780008 $291 $401 forward 7 unknown #
vertex $-1 $292 $402 #
straight-curve $-1 0 -34.002099943811224 -12.600619856663631 -1 0 0 I I #
coedge $-1 $403 $189 $400 $404 forward $282 $-1 #
coedge $-1 $189 $403 $191 $299 reversed $282 $-1 #
vertex $-1 $404 $405 #
straight-curve $-1 0 -46.39832035631364 -12.600619856663631 -1 0 0 I I #
edge $-1 $193 12.600619856663631 $406 16.366640405724663 $191 $407 forward 7 unknown #
point $-1 77.399822992645028 -34.002099943811224 -12.600619856663631 #
point $-1 77.399822992645028 -46.39832035631364 -12.600619856663631 #
face $-1 $-1 $316 $26 $-1 $408 reversed single #
loop $-1 $-1 $308 $195 #
plane-surface $-1 -77.399822992645028 0 0 1 0 0 0 0 -1 forward_v I I I I #
coedge $-1 $409 $410 $198 $307 forward $196 $-1 #
coedge $-1 $199 $198 $206 $321 reversed $73 $-1 #
edge $-1 $411 -77.399822992645028 $310 77.399822992645028 $305 $412 forward 7 unknown #
coedge $-1 $413 $200 $202 $313 forward $303 $-1 #
coedge $-1 $200 $413 $409 $414 reversed $303 $-1 #
vertex $-1 $414 $415 #
vertex $-1 $313 $416 #
straight-curve $-1 -77.399822992645028 34.002099943811231 -7.2418150655970734 0 0 1 I I #
edge $-1 $311 13.901994868780012 $317 26.298215281282427 $308 $417 forward 7 unknown #
coedge $-1 $418 $203 $207 $322 forward $316 $-1 #
coedge $-1 $203 $418 $413 $419 reversed $316 $-1 #
loop $-1 $-1 $203 $302 #
vertex $-1 $419 $420 #
straight-curve $-1 0 46.39832035631364 -12.600619856663631 1 0 0 I I #
straight-curve $-1 0 34.002099943811231 -12.600619856663631 1 0 0 I I #
coedge $-1 $207 $206 $410 $421 reversed $116 $-1 #
edge $-1 $209 5.3588047910665573 $411 9.1248253401275896 $206 $422 forward 7 unknown #
edge $-1 $208 12.600619856663631 $423 16.366640405724663 $207 $424 forward 7 unknown #
point $-1 77.399822992645028 46.398320356313647 -12.600619856663631 #
point $-1 77.399822992645028 34.002099943811231 -12.600619856663631 #
loop $-1 $-1 $219 $211 #
plane-surface $-1 77.399822992645028 0 0 -1 0 0 0 0 1 forward_v I I I I #
coedge $-1 $328 $214 $216 $332 reversed $124 $-1 #
coedge $-1 $214 $327 $425 $426 reversed $124 $-1 #
coedge $-1 $222 $217 $214 $330 forward $212 $-1 #
edge $-1 $333 27.470739769249576 $427 38.699910226308617 $329 $428 forward 7 unknown #
coedge $-1 $216 $215 $336 $429 reversed $77 $-1 #
edge $-1 $430 -154.79964598529014 $333 -138.91920064646425 $327 $431 forward 7 unknown #
vertex $-1 $218 $432 #
straight-curve $-1 66.170652535586001 -11.981156219557702 16.366640405724652 0 -1 0 I I #
coedge $-1 $425 $219 $222 $340 reversed $325 $-1 #
coedge $-1 $219 $425 $331 $429 forward $325 $-1 #
vertex $-1 $220 $433 #
straight-curve $-1 77.399822992645028 -13.922524934419584 112.0286142455213 0 0 1 I I #
straight-curve $-1 -32.060055138816594 -13.922524934419584 114.59735035958099 0.70710677298230451 0 -0.70710678939079041 I I #
edge $-1 $427 -34.002099943811224 $223 -13.922524934419584 $335 $434 forward 7 unknown #
point $-1 77.399822992645028 -13.922524934419584 16.366640405724663 #
point $-1 66.170652535585987 -13.922524934419584 16.366640405724667 #
edge $-1 $435 1 $435 0 $226 $-1 forward 7 unknown #
vertex $-1 $227 $436 #
ellipse-curve $-1 67.848297115618593 -23.962312439115408 6.8151144897683089 0.70710678939079041 0 0.70710677298230451 1.0606601594734568 0 -1.0606601840861856 1 I I #
point $-1 72.845897923588964 -23.962312439115408 9.6913948628219195 #
plane-surface $-1 0 0 16.366640405724663 0 0 1 1 0 0 forward_v I I I I #
coedge $-1 $358 $357 $350 $437 forward $231 $-1 #
coedge $-1 $350 $233 $235 $354 reversed $139 $-1 #
coedge $-1 $233 $349 $348 $437 reversed $139 $-1 #
coedge $-1 $241 $236 $233 $352 forward $242 $-1 #
edge $-1 $355 -27.526393402215234 $438 -16.030028839422187 $351 $439 forward 7 unknown #
coedge $-1 $235 $234 $358 $440 reversed $86 $-1 #
edge $-1 $441 -2.0097183471152325e-014 $355 16.258314871325293 $349 $442 forward 7 unknown #
vertex $-1 $237 $443 #
straight-curve $-1 -65.90345842985198 12.685438736476083 16.366640405724663 0 1 0 I I #
coedge $-1 $348 $238 $241 $362 reversed $231 $-1 #
coedge $-1 $238 $348 $353 $440 forward $231 $-1 #
vertex $-1 $239 $444 #
straight-curve $-1 -77.399822992645028 16.739655002093112 57.165076853809452 0 0 1 I I #
straight-curve $-1 -77.399822992645014 16.739655002093112 4.8702755761572973 -0.70710677298230451 0 -0.70710678939079041 I I #
edge $-1 $438 -34.002099943811217 $243 -16.739655002093112 $357 $445 forward 7 unknown #
point $-1 -77.399822992645028 16.739655002093112 16.366640405724663 #
point $-1 -65.90345842985198 16.739655002093112 16.366640405724667 #
edge $-1 $446 1 $446 0 $246 $-1 forward 7 unknown #
vertex $-1 $247 $447 #
ellipse-curve $-1 -69.516120804899955 21.671782128298297 8.4829381341473908 -0.70710678939079041 0 0.70710677298230451 0.70710677298230451 0 0.70710678939079041 1 I I #
point $-1 -70.944533938266204 21.671782128298297 11.325564780331781 #
edge $-1 $448 1 $448 0 $250 $-1 forward 7 unknown #
vertex $-1 $251 $449 #
ellipse-curve $-1 -69.516120804899955 29.069972817606065 8.4829381341473908 -0.70710678939079041 0 0.70710677298230451 0.70710677298230451 0 0.70710678939079041 1 I I #
point $-1 -70.944533938266204 29.069972817606065 11.325564780331781 #
plane-surface $-1 77.399822992645028 0 0 -1 0 0 0 0 1 forward_v I I I I #
coedge $-1 $259 $257 $261 $378 reversed $161 $-1 #
edge $-1 $272 -16.366640405724663 $380 16.366640405724663 $271 $450 forward 7 unknown #
vertex $-1 $378 $451 #
straight-curve $-1 -77.399822992645028 -46.39832035631364 0 0 0 -1 I I #
edge $-1 $376 -46.39832035631364 $380 46.39832035631364 $374 $452 forward 7 unknown #
straight-curve $-1 0 -46.39832035631364 -16.366640405724663 -1 0 0 I I #
vertex $-1 $264 $453 #
straight-curve $-1 0 46.39832035631364 -16.366640405724663 1 0 0 I I #
point $-1 77.399822992645028 46.39832035631364 -16.366640405724663 #
point $-1 77.399822992645028 -46.39832035631364 -16.366640405724663 #
straight-curve $-1 -77.399822992645028 0 16.366640405724663 0 -1 0 I I #
point $-1 -77.399822992645028 46.39832035631364 16.366640405724663 #
point $-1 -77.399822992645028 -46.39832035631364 16.366640405724663 #
straight-curve $-1 77.399822992645028 -46.39832035631364 0 0 0 -1 I I #
straight-curve $-1 77.399822992645028 46.39832035631364 0 0 0 -1 I I #
loop $-1 $-1 $397 $281 #
plane-surface $-1 -77.399822992645028 0 0 1 0 0 0 0 -1 forward_v I I I I #
coedge $-1 $285 $284 $403 $454 forward $108 $-1 #
edge $-1 $289 34.002099943811224 $406 46.39832035631364 $288 $455 forward 7 unknown #
coedge $-1 $400 $397 $285 $394 reversed $389 $-1 #
edge $-1 $456 -46.39832035631364 $395 -34.002099943811224 $393 $457 forward 7 unknown #
vertex $-1 $398 $458 #
straight-curve $-1 0 -34.002099943811224 -16.366640405724663 1 0 0 I I #
coedge $-1 $393 $291 $287 $398 forward $389 $-1 #
edge $-1 $293 5.3588047910665573 $395 9.1248253401275896 $397 $459 forward 7 unknown #
point $-1 77.399822992645028 -34.002099943811224 -16.366640405724663 #
coedge $-1 $291 $393 $295 $404 reversed $389 $-1 #
straight-curve $-1 -77.399822992645028 -20.100105075031216 -12.600619856663631 0 1 0 I I #
point $-1 -77.399822992645028 -34.002099943811224 -12.600619856663631 #
coedge $-1 $296 $295 $391 $454 reversed $282 $-1 #
edge $-1 $297 12.600619856663631 $456 16.366640405724663 $400 $460 forward 7 unknown #
point $-1 -77.399822992645028 -46.39832035631364 -12.600619856663631 #
vertex $-1 $299 $461 #
straight-curve $-1 77.399822992645028 -46.39832035631364 0 0 0 -1 I I #
plane-surface $-1 0 46.39832035631364 0 0 -1 0 0 0 -1 forward_v I I I I #
coedge $-1 $462 $305 $309 $414 forward $196 $-1 #
coedge $-1 $305 $462 $320 $421 forward $196 $-1 #
vertex $-1 $307 $463 #
straight-curve $-1 0 34.002099943811231 -16.366640405724663 -1 0 0 I I #
coedge $-1 $309 $308 $315 $419 forward $303 $-1 #
edge $-1 $310 34.002099943811231 $464 46.39832035631364 $309 $465 forward 7 unknown #
point $-1 -77.399822992645028 34.002099943811231 -16.366640405724663 #
point $-1 -77.399822992645028 34.002099943811231 -12.600619856663631 #
straight-curve $-1 -77.399822992645028 20.10010507503122 -12.600619856663631 0 1 0 I I #
coedge $-1 $315 $314 $462 $466 reversed $316 $-1 #
edge $-1 $317 12.600619856663631 $464 16.366640405724663 $315 $467 forward 7 unknown #
point $-1 -77.399822992645028 46.398320356313647 -12.600619856663631 #
edge $-1 $423 -46.39832035631364 $411 -34.002099943811231 $320 $468 forward 7 unknown #
straight-curve $-1 77.399822992645028 34.002099943811231 -7.2418150655970734 0 0 -1 I I #
vertex $-1 $421 $469 #
straight-curve $-1 77.399822992645028 46.39832035631364 0 0 0 -1 I I #
coedge $-1 $336 $335 $328 $426 forward $325 $-1 #
edge $-1 $427 95.66197383979663 $430 106.89114455742974 $425 $470 forward 7 unknown #
vertex $-1 $340 $471 #
straight-curve $-1 38.699912766336411 -34.002099943811224 16.366640405724667 1 0 0 I I #
edge $-1 $430 -22.02094372425352 $337 -1.9413687148618823 $336 $472 forward 7 unknown #
vertex $-1 $429 $473 #
straight-curve $-1 -32.060055138816594 -34.002099943811224 114.59735035958099 -0.70710677298230451 0 0.70710678939079041 I I #
point $-1 66.170652535585987 -34.002099943811224 16.366640405724667 #
point $-1 77.399822992645028 -13.922524934419584 5.1374696880915565 #
straight-curve $-1 77.399822992645028 0 16.366640405724663 0 1 0 I I #
vertex $-1 $343 $474 #
point $-1 68.90895727509205 -23.962312439115408 5.7544543056821231 #
edge $-1 $438 40.798436448084786 $441 52.294801277652169 $348 $475 forward 7 unknown #
vertex $-1 $362 $476 #
straight-curve $-1 -93.429851832067214 34.002099943811217 16.366640405724667 -1 0 0 I I #
edge $-1 $441 -21.316661207335134 $359 -4.0542162656170291 $358 $477 forward 7 unknown #
vertex $-1 $440 $478 #
straight-curve $-1 -77.399822992645014 34.002099943811217 4.8702755761572973 0.70710677298230451 0 0.70710678939079041 I I #
point $-1 -65.90345842985198 34.002099943811217 16.366640405724667 #
point $-1 -77.399822992645028 16.739655002093112 4.8702755761572831 #
straight-curve $-1 -77.399822992645028 0 16.366640405724663 0 -1 0 I I #
vertex $-1 $365 $479 #
point $-1 -68.809014031917656 21.671782128298297 9.1900449235381814 #
vertex $-1 $369 $480 #
point $-1 -68.809014031917656 29.069972817606065 9.1900449235381814 #
straight-curve $-1 -77.399822992645028 46.39832035631364 0 0 0 -1 I I #
point $-1 -77.399822992645028 -46.39832035631364 -16.366640405724663 #
straight-curve $-1 -77.399822992645028 0 -16.366640405724663 0 1 0 I I #
point $-1 -77.399822992645028 46.39832035631364 -16.366640405724663 #
edge $-1 $406 -77.399822992645028 $456 77.399822992645028 $403 $481 forward 7 unknown #
straight-curve $-1 77.399822992645028 0 -16.366640405724663 0 -1 0 I I #
vertex $-1 $394 $482 #
straight-curve $-1 -77.399822992645028 0 -16.366640405724663 0 1 0 I I #
point $-1 -77.399822992645028 -34.002099943811224 -16.366640405724663 #
straight-curve $-1 -77.399822992645028 -34.002099943811224 -7.2418150655970734 0 0 -1 I I #
straight-curve $-1 -77.399822992645028 -46.39832035631364 0 0 0 -1 I I #
point $-1 77.399822992645028 -46.39832035631364 -16.366640405724663 #
coedge $-1 $410 $409 $418 $466 forward $196 $-1 #
point $-1 77.399822992645028 34.002099943811231 -16.366640405724663 #
vertex $-1 $466 $483 #
straight-curve $-1 -77.399822992645028 0 -16.366640405724663 0 1 0 I I #
edge $-1 $464 -77.399822992645028 $423 77.399822992645028 $418 $484 forward 7 unknown #
straight-curve $-1 -77.399822992645028 46.39832035631364 0 0 0 -1 I I #
straight-curve $-1 77.399822992645028 0 -16.366640405724663 0 -1 0 I I #
point $-1 77.399822992645028 46.39832035631364 -16.366640405724663 #
straight-curve $-1 77.399822992645028 -34.002099943811224 112.0286142455213 0 0 -1 I I #
point $-1 77.399822992645028 -34.002099943811224 16.366640405724663 #
straight-curve $-1 77.399822992645028 -11.981156219557702 5.1374696880915565 0 1 0 I I #
point $-1 77.399822992645028 -34.002099943811224 5.1374696880915565 #
point $-1 66.787636931532418 -23.962312439115408 5.7544543302948519 #
straight-curve $-1 -77.399822992645028 34.002099943811217 57.165076853809452 0 0 -1 I I #
point $-1 -77.399822992645028 34.002099943811217 16.366640405724663 #
straight-curve $-1 -77.399822992645028 12.685438736476083 4.8702755761572876 0 -1 0 I I #
point $-1 -77.399822992645028 34.002099943811217 4.8702755761572831 #
point $-1 -68.809014015509163 21.671782128298297 7.7758313611650864 #
point $-1 -68.809014015509163 29.069972817606065 7.7758313611650864 #
straight-curve $-1 0 -46.39832035631364 -16.366640405724663 -1 0 0 I I #
point $-1 -77.399822992645028 -46.39832035631364 -16.366640405724663 #
point $-1 -77.399822992645028 46.39832035631364 -16.366640405724663 #
straight-curve $-1 0 46.39832035631364 -16.366640405724663 1 0 0 I I #
End-of-ACIS-data 