500 0 9 0           
7 Unknown 11 ACIS 5.0 NT 24 Thu Mar 25 16:01:48 1999 
-1 9.9999999999999995e-007 1e-010 
body $-1 $9 $-1 $10 #
body $-1 $11 $-1 $12 #
body $-1 $13 $-1 $14 #
body $-1 $15 $-1 $16 #
body $-1 $17 $-1 $18 #
body $-1 $19 $-1 $20 #
body $-1 $21 $-1 $22 #
body $-1 $23 $-1 $24 #
body $-1 $25 $-1 $26 #
lump $-1 $-1 $27 $0 #
transform $-1 1 0 0 0 1 0 0 0 1 68.247932370982994 32.351690247673893 10.195319188071236 1 rotate no_reflect no_shear #
lump $-1 $-1 $28 $1 #
transform $-1 1 0 0 0 1 0 0 0 1 68.247932370982994 32.351690247673893 10.195319188071236 1 rotate no_reflect no_shear #
lump $-1 $-1 $29 $2 #
transform $-1 1 0 0 0 1 0 0 0 1 68.247932370982994 32.351690247673893 10.195319188071236 1 rotate no_reflect no_shear #
lump $-1 $-1 $30 $3 #
transform $-1 1 0 0 0 1 0 0 0 1 68.247932370982994 32.351690247673893 10.195319188071236 1 rotate no_reflect no_shear #
lump $-1 $-1 $31 $4 #
transform $-1 1 0 0 0 1 0 0 0 1 68.247932370982994 32.351690247673893 10.195319188071236 1 rotate no_reflect no_shear #
lump $-1 $-1 $32 $5 #
transform $-1 1 0 0 0 1 0 0 0 1 68.247932370982994 32.351690247673893 10.195319188071236 1 rotate no_reflect no_shear #
lump $-1 $-1 $33 $6 #
transform $-1 1 0 0 0 1 0 0 0 1 68.247932370982994 32.351690247673893 10.195319188071236 1 rotate no_reflect no_shear #
lump $-1 $-1 $34 $7 #
transform $-1 1 0 0 0 1 0 0 0 1 68.247932370982994 32.351690247673893 10.195319188071236 1 rotate no_reflect no_shear #
lump $-1 $-1 $35 $8 #
transform $-1 1 0 0 0 1 0 0 0 1 68.247932370982994 32.351690247673893 10.195319188071236 1 rotate no_reflect no_shear #
shell $-1 $-1 $-1 $36 $-1 $9 #
shell $-1 $-1 $-1 $37 $-1 $11 #
shell $-1 $-1 $-1 $38 $-1 $13 #
shell $-1 $-1 $-1 $39 $-1 $15 #
shell $-1 $-1 $-1 $40 $-1 $17 #
shell $-1 $-1 $-1 $41 $-1 $19 #
shell $-1 $-1 $-1 $42 $-1 $21 #
shell $-1 $-1 $-1 $43 $-1 $23 #
shell $-1 $-1 $-1 $44 $-1 $25 #
face $-1 $45 $46 $27 $-1 $47 forward single #
face $-1 $48 $49 $28 $-1 $50 forward single #
face $-1 $51 $52 $29 $-1 $53 forward single #
face $-1 $54 $55 $30 $-1 $56 reversed single #
face $-1 $57 $58 $31 $-1 $59 forward single #
face $-1 $60 $61 $32 $-1 $62 forward single #
face $-1 $63 $64 $33 $-1 $65 reversed single #
face $-1 $66 $67 $34 $-1 $68 forward single #
face $-1 $69 $70 $35 $-1 $71 forward single #
face $-1 $72 $73 $27 $-1 $74 reversed single #
loop $-1 $-1 $75 $36 #
plane-surface $-1 0 0 10.195319188071236 0 0 1 1 0 0 forward_v I I I I #
face $-1 $76 $77 $28 $-1 $78 forward single #
loop $-1 $-1 $79 $37 #
plane-surface $-1 -68.247932370982994 0 0 1 0 0 0 0 -1 forward_v I I I I #
face $-1 $80 $81 $29 $-1 $82 reversed single #
loop $-1 $-1 $83 $38 #
plane-surface $-1 68.247932370982994 0 0 -1 0 0 0 0 1 forward_v I I I I #
face $-1 $84 $85 $30 $-1 $86 reversed single #
loop $-1 $-1 $87 $39 #
plane-surface $-1 -56.414479564511389 113.81918259207737 128.51344206737659 1 0 0 0 -0.84804810408105047 -0.52991925155115449 forward_v I I I I #
face $-1 $88 $89 $31 $-1 $90 forward single #
loop $-1 $91 $92 $40 #
cone-surface $-1 -53.035941675389694 28.931152589297959 5.3499821409735597 0 -0.84804810408105047 -0.52991925155115449 1.5 0 0 1 I I 0 1 1.5 forward I I I I #
face $-1 $93 $94 $32 $-1 $95 forward single #
loop $-1 $96 $97 $41 #
cone-surface $-1 -47.968134841707148 28.931152589297959 5.3499821409735597 0 -0.84804810408105047 -0.52991925155115449 1.5 0 0 1 I I 0 1 1.5 forward I I I I #
face $-1 $98 $99 $33 $-1 $100 reversed single #
loop $-1 $-1 $101 $42 #
plane-surface $-1 -7.0205343668838687 -149.35148325497417 74.874634012500437 -1 0 0 0 -0.85716730853699208 0.51503806187062418 forward_v I I I I #
face $-1 $102 $103 $34 $-1 $104 forward single #
loop $-1 $105 $106 $43 #
cone-surface $-1 -17.979556579806861 -30.224659688284483 7.1213747407464645 0 0.85716730853699208 -0.51503806187062418 1 0 0 1 I I 0 1 1 forward I I I I #
face $-1 $107 $108 $35 $-1 $109 forward single #
loop $-1 $110 $111 $44 #
cone-surface $-1 -11.404143252053068 -30.224659688284483 7.1213747407464645 0 0.85716730853699208 -0.51503806187062418 1 0 0 1 I I 0 1 1 forward I I I I #
face $-1 $112 $113 $27 $-1 $114 reversed single #
loop $-1 $-1 $115 $45 #
plane-surface $-1 0 0 -10.195319188071236 0 0 1 1 0 0 forward_v I I I I #
coedge $-1 $116 $117 $118 $119 forward $46 $-1 #
face $-1 $120 $121 $28 $-1 $122 reversed single #
loop $-1 $-1 $123 $48 #
plane-surface $-1 0 0 10.195319188071236 0 0 1 1 0 0 forward_v I I I I #
coedge $-1 $124 $125 $126 $127 forward $49 $-1 #
face $-1 $128 $129 $29 $-1 $130 reversed single #
loop $-1 $-1 $131 $51 #
plane-surface $-1 0 -32.351690247673893 0 0 1 0 0 0 1 forward_v I I I I #
coedge $-1 $132 $133 $134 $135 forward $52 $-1 #
face $-1 $136 $137 $30 $-1 $138 reversed single #
loop $-1 $-1 $139 $54 #
plane-surface $-1 -50.502038258548424 -1.9358767172503946 56.181655583486361 0 0.84804810408105047 0.52991925155115449 1 0 0 forward_v I I I I #
coedge $-1 $140 $141 $142 $143 reversed $55 $-1 #
face $-1 $-1 $144 $31 $-1 $145 forward single #
loop $-1 $146 $147 $57 #
cone-surface $-1 -53.035941675389694 27.650636703388592 4.5498270358622097 0 -0.84804810408105047 -0.52991925155115449 0.75 0 0 1 I I -0.70710678118654713 0.70710678118654802 0.75 forward I I I I #
loop $-1 $-1 $148 $40 #
coedge $-1 $92 $92 $149 $150 reversed $58 $-1 #
face $-1 $-1 $151 $32 $-1 $152 forward single #
loop $-1 $153 $154 $60 #
cone-surface $-1 -47.968134841707148 27.650636703388592 4.5498270358622097 0 -0.84804810408105047 -0.52991925155115449 0.75 0 0 1 I I -0.70710678118654713 0.70710678118654802 0.75 forward I I I I #
loop $-1 $-1 $155 $41 #
coedge $-1 $97 $97 $156 $157 reversed $61 $-1 #
face $-1 $158 $159 $33 $-1 $160 reversed single #
loop $-1 $-1 $161 $63 #
plane-surface $-1 -14.691849915929964 -32.351690247673872 4.5740683824434143 0 -0.85716730853699208 0.51503806187062418 1 0 0 forward_v I I I I #
coedge $-1 $162 $163 $164 $165 reversed $64 $-1 #
face $-1 $-1 $166 $34 $-1 $167 forward single #
loop $-1 $168 $169 $66 #
cone-surface $-1 -17.979556579806861 -29.357839535823722 6.6005366653002842 0 0.85716730853699208 -0.51503806187062418 0.5 0 0 1 I I -0.70710678118654746 0.70710678118654746 0.5 forward I I I I #
loop $-1 $-1 $170 $43 #
coedge $-1 $106 $106 $171 $172 reversed $67 $-1 #
face $-1 $-1 $173 $35 $-1 $174 forward single #
loop $-1 $175 $176 $69 #
cone-surface $-1 -11.404143252053068 -29.357839535823722 6.6005366653002842 0 0.85716730853699208 -0.51503806187062418 0.5 0 0 1 I I -0.70710678118654746 0.70710678118654746 0.5 forward I I I I #
loop $-1 $-1 $177 $44 #
coedge $-1 $111 $111 $178 $179 reversed $70 $-1 #
face $-1 $180 $181 $27 $-1 $182 reversed single #
loop $-1 $-1 $183 $72 #
plane-surface $-1 0 -32.351690247673893 0 0 1 0 0 0 1 forward_v I I I I #
coedge $-1 $184 $185 $186 $187 forward $73 $-1 #
coedge $-1 $188 $75 $189 $190 forward $46 $-1 #
coedge $-1 $75 $188 $191 $192 forward $46 $-1 #
coedge $-1 $193 $194 $75 $119 reversed $195 $-1 #
edge $-1 $196 -32.351690247673893 $197 32.351690247673893 $118 $198 forward 7 unknown #
face $-1 $199 $200 $28 $-1 $201 reversed single #
loop $-1 $-1 $202 $76 #
plane-surface $-1 -80.081385177454592 -30.434502276814843 0 1 0 0 0 0 -1 forward_v I I I I #
coedge $-1 $203 $204 $124 $205 forward $77 $-1 #
coedge $-1 $206 $79 $123 $205 reversed $49 $-1 #
coedge $-1 $79 $206 $207 $208 reversed $49 $-1 #
coedge $-1 $209 $210 $79 $127 reversed $200 $-1 #
edge $-1 $211 -10.195319188071236 $212 10.195319188071236 $126 $213 forward 7 unknown #
face $-1 $214 $215 $29 $-1 $216 reversed single #
loop $-1 $-1 $217 $80 #
plane-surface $-1 0 0 -10.195319188071236 0 0 1 1 0 0 forward_v I I I I #
coedge $-1 $218 $219 $220 $221 forward $81 $-1 #
coedge $-1 $220 $83 $217 $222 reversed $52 $-1 #
coedge $-1 $83 $220 $223 $224 reversed $52 $-1 #
coedge $-1 $225 $226 $83 $135 reversed $215 $-1 #
edge $-1 $227 -10.195319188071236 $228 10.195319188071236 $134 $229 forward 7 unknown #
face $-1 $230 $231 $30 $-1 $232 reversed single #
loop $-1 $-1 $233 $84 #
plane-surface $-1 -44.58959695258546 113.81918259207737 128.51344206737659 -1 0 0 0 0.84804810408105047 0.52991925155115449 forward_v I I I I #
coedge $-1 $234 $235 $236 $237 reversed $85 $-1 #
coedge $-1 $141 $87 $238 $239 reversed $55 $-1 #
coedge $-1 $87 $140 $234 $240 reversed $55 $-1 #
coedge $-1 $236 $241 $87 $143 forward $242 $-1 #
edge $-1 $243 24.557901048364791 $244 30.110016749419529 $142 $245 forward 7 unknown #
loop $-1 $-1 $149 $88 #
plane-surface $-1 -50.502038258548424 -1.9358767172503946 56.181655583486361 0 0.84804810408105047 0.52991925155115449 1 0 0 forward_v I I I I #
loop $-1 $-1 $246 $57 #
coedge $-1 $147 $147 $148 $247 reversed $89 $-1 #
coedge $-1 $148 $148 $147 $247 forward $91 $-1 #
coedge $-1 $149 $149 $92 $150 forward $144 $-1 #
edge $-1 $248 -1.7582961020665412e-015 $248 6.2831853071795987 $149 $249 forward 7 unknown #
loop $-1 $-1 $156 $93 #
plane-surface $-1 -50.502038258548424 -1.9358767172503946 56.181655583486361 0 0.84804810408105047 0.52991925155115449 1 0 0 forward_v I I I I #
loop $-1 $-1 $250 $60 #
coedge $-1 $154 $154 $155 $251 reversed $94 $-1 #
coedge $-1 $155 $155 $154 $251 forward $96 $-1 #
coedge $-1 $156 $156 $97 $157 forward $151 $-1 #
edge $-1 $252 -1.7582961020665412e-015 $252 6.2831853071795987 $156 $253 forward 7 unknown #
face $-1 $254 $255 $33 $-1 $256 forward single #
loop $-1 $-1 $257 $98 #
plane-surface $-1 -22.36316546497606 -149.35148325497417 74.874634012500437 1 0 0 0 0.85716730853699208 -0.51503806187062418 forward_v I I I I #
coedge $-1 $258 $259 $260 $261 reversed $99 $-1 #
coedge $-1 $163 $101 $262 $263 reversed $64 $-1 #
coedge $-1 $101 $162 $258 $264 reversed $64 $-1 #
coedge $-1 $260 $265 $101 $165 forward $255 $-1 #
edge $-1 $266 42.324051379813191 $267 45.701639502207513 $164 $268 forward 7 unknown #
loop $-1 $-1 $171 $102 #
plane-surface $-1 -14.691849915929964 -32.351690247673872 4.5740683824434143 0 -0.85716730853699208 0.51503806187062418 1 0 0 forward_v I I I I #
loop $-1 $-1 $269 $66 #
coedge $-1 $169 $169 $170 $270 reversed $103 $-1 #
coedge $-1 $170 $170 $169 $270 forward $105 $-1 #
coedge $-1 $171 $171 $106 $172 forward $166 $-1 #
edge $-1 $271 1.9637009886909285e-015 $271 6.2831853071796022 $171 $272 forward 7 unknown #
loop $-1 $-1 $178 $107 #
plane-surface $-1 -14.691849915929964 -32.351690247673872 4.5740683824434143 0 -0.85716730853699208 0.51503806187062418 1 0 0 forward_v I I I I #
loop $-1 $-1 $273 $69 #
coedge $-1 $176 $176 $177 $274 reversed $108 $-1 #
coedge $-1 $177 $177 $176 $274 forward $110 $-1 #
coedge $-1 $178 $178 $111 $179 forward $173 $-1 #
edge $-1 $275 1.9637009886909285e-015 $275 6.2831853071796022 $178 $276 forward 7 unknown #
face $-1 $277 $278 $27 $-1 $279 reversed single #
loop $-1 $-1 $280 $112 #
plane-surface $-1 -68.247932370982994 0 0 1 0 0 0 0 -1 forward_v I I I I #
coedge $-1 $281 $191 $282 $283 forward $113 $-1 #
coedge $-1 $284 $115 $281 $285 forward $73 $-1 #
coedge $-1 $115 $284 $286 $287 forward $73 $-1 #
coedge $-1 $194 $193 $115 $187 reversed $195 $-1 #
edge $-1 $288 -32.351690247673893 $289 32.351690247673893 $186 $290 forward 7 unknown #
coedge $-1 $117 $116 $291 $292 forward $46 $-1 #
coedge $-1 $293 $294 $116 $190 reversed $278 $-1 #
edge $-1 $197 -68.247932370982994 $295 68.247932370982994 $189 $296 forward 7 unknown #
coedge $-1 $183 $297 $117 $192 reversed $113 $-1 #
edge $-1 $298 -68.247932370982994 $196 68.247932370982994 $191 $299 forward 7 unknown #
coedge $-1 $186 $118 $297 $300 forward $195 $-1 #
coedge $-1 $118 $186 $293 $301 reversed $195 $-1 #
loop $-1 $-1 $193 $277 #
vertex $-1 $119 $302 #
vertex $-1 $119 $303 #
straight-curve $-1 68.247932370982994 0 10.195319188071236 0 1 0 I I #
face $-1 $304 $305 $28 $-1 $306 reversed single #
loop $-1 $-1 $126 $120 #
plane-surface $-1 -74.164658774218793 -28.517314305955793 0 0 -1 0 0 0 -1 forward_v I I I I #
coedge $-1 $307 $308 $309 $310 forward $121 $-1 #
coedge $-1 $311 $123 $210 $312 forward $77 $-1 #
coedge $-1 $123 $311 $313 $314 forward $77 $-1 #
edge $-1 $315 -32.351690247673893 $212 -28.517314305955793 $123 $316 forward 7 unknown #
coedge $-1 $125 $124 $317 $318 reversed $49 $-1 #
coedge $-1 $319 $320 $125 $208 forward $305 $-1 #
edge $-1 $211 28.517314305955793 $321 32.351690247673893 $207 $322 forward 7 unknown #
coedge $-1 $309 $126 $320 $323 reversed $200 $-1 #
coedge $-1 $126 $309 $203 $312 reversed $200 $-1 #
vertex $-1 $208 $324 #
vertex $-1 $312 $325 #
straight-curve $-1 -68.247932370982994 -28.517314305955793 0 0 0 1 I I #
face $-1 $326 $327 $29 $-1 $328 reversed single #
loop $-1 $-1 $329 $128 #
plane-surface $-1 74.164658774218793 -28.517314305955793 0 0 -1 0 0 0 -1 forward_v I I I I #
coedge $-1 $330 $331 $132 $222 forward $129 $-1 #
coedge $-1 $332 $131 $331 $333 reversed $81 $-1 #
coedge $-1 $131 $332 $334 $335 reversed $81 $-1 #
coedge $-1 $133 $132 $131 $221 reversed $52 $-1 #
edge $-1 $336 -10.195319188071236 $337 10.195319188071236 $131 $338 forward 7 unknown #
edge $-1 $337 -32.351690247673893 $228 -28.517314305955793 $217 $339 forward 7 unknown #
coedge $-1 $334 $340 $133 $224 forward $341 $-1 #
edge $-1 $227 28.517314305955793 $336 32.351690247673893 $223 $342 forward 7 unknown #
coedge $-1 $329 $134 $340 $343 reversed $215 $-1 #
coedge $-1 $134 $329 $330 $344 reversed $215 $-1 #
vertex $-1 $224 $345 #
vertex $-1 $344 $346 #
straight-curve $-1 68.247932370982994 -28.517314305955793 0 0 0 -1 I I #
face $-1 $-1 $242 $30 $-1 $347 forward single #
loop $-1 $-1 $348 $136 #
plane-surface $-1 0 32.351690247673893 0 0 -1 0 0 0 -1 forward_v I I I I #
coedge $-1 $349 $350 $351 $352 reversed $137 $-1 #
coedge $-1 $353 $139 $141 $240 forward $85 $-1 #
coedge $-1 $139 $353 $349 $354 forward $85 $-1 #
coedge $-1 $351 $142 $139 $237 forward $242 $-1 #
edge $-1 $244 -31.163460435237177 $355 -19.338577823311248 $236 $356 forward 7 unknown #
coedge $-1 $357 $358 $140 $239 forward $231 $-1 #
edge $-1 $359 -62.946644606916479 $243 -54.061401845617056 $238 $360 forward 7 unknown #
edge $-1 $244 54.226094220499633 $359 64.70338049534783 $141 $361 forward 7 unknown #
coedge $-1 $142 $351 $357 $362 forward $242 $-1 #
loop $-1 $-1 $351 $230 #
vertex $-1 $239 $363 #
vertex $-1 $143 $364 #
straight-curve $-1 -56.414479564511389 56.909591296038684 10.195319188071238 0 -1 0 I I #
coedge $-1 $246 $246 $-1 $365 reversed $146 $-1 #
edge $-1 $366 0 $366 6.2831853071796004 $147 $367 forward 7 unknown #
vertex $-1 $150 $368 #
ellipse-curve $-1 -53.035941675389694 29.575632397146521 5.7526978074215336 0 0.84804810408105047 0.52991925155115449 1.5 0 0 1 I I #
coedge $-1 $250 $250 $-1 $369 reversed $153 $-1 #
edge $-1 $370 0 $370 6.2831853071796004 $154 $371 forward 7 unknown #
vertex $-1 $157 $372 #
ellipse-curve $-1 -47.968134841707148 29.575632397146521 5.7526978074215336 0 0.84804810408105047 0.52991925155115449 1.5 0 0 1 I I #
face $-1 $-1 $373 $33 $-1 $374 reversed single #
loop $-1 $-1 $164 $158 #
plane-surface $-1 0 0 10.195319188071236 0 0 1 1 0 0 forward_v I I I I #
coedge $-1 $375 $376 $377 $378 reversed $159 $-1 #
coedge $-1 $379 $161 $163 $264 forward $99 $-1 #
coedge $-1 $161 $379 $375 $380 forward $99 $-1 #
coedge $-1 $377 $164 $161 $261 forward $255 $-1 #
edge $-1 $267 -0.32539059108111346 $381 15.017240507011078 $260 $382 forward 7 unknown #
coedge $-1 $383 $384 $162 $263 forward $373 $-1 #
edge $-1 $385 -32.86324862380684 $266 -27.24199781817898 $262 $386 forward 7 unknown #
edge $-1 $267 -6.5579388640266032 $385 4.1431396825663817e-014 $163 $387 forward 7 unknown #
coedge $-1 $164 $377 $383 $388 forward $255 $-1 #
vertex $-1 $165 $389 #
vertex $-1 $165 $390 #
straight-curve $-1 -7.0205343668838687 -74.675741627487085 10.195319188071238 0 1 0 I I #
coedge $-1 $269 $269 $-1 $391 reversed $168 $-1 #
edge $-1 $392 0 $392 6.2831853071796004 $169 $393 forward 7 unknown #
vertex $-1 $172 $394 #
ellipse-curve $-1 -17.979556579806861 -30.662896186476726 7.3846937852573182 0 -0.85716730853699208 0.51503806187062418 1 0 0 1 I I #
coedge $-1 $273 $273 $-1 $395 reversed $175 $-1 #
edge $-1 $396 0 $396 6.2831853071796004 $176 $397 forward 7 unknown #
vertex $-1 $179 $398 #
ellipse-curve $-1 -11.404143252053068 -30.662896186476726 7.3846937852573182 0 -0.85716730853699208 0.51503806187062418 1 0 0 1 I I #
face $-1 $-1 $195 $27 $-1 $399 reversed single #
loop $-1 $-1 $293 $180 #
plane-surface $-1 0 32.351690247673893 0 0 -1 0 0 0 -1 forward_v I I I I #
coedge $-1 $400 $291 $294 $401 forward $181 $-1 #
coedge $-1 $297 $183 $184 $285 reversed $113 $-1 #
coedge $-1 $291 $400 $183 $283 reversed $181 $-1 #
edge $-1 $298 -10.195319188071236 $402 10.195319188071236 $282 $403 forward 7 unknown #
coedge $-1 $185 $184 $400 $404 forward $73 $-1 #
edge $-1 $289 -68.247932370982994 $402 68.247932370982994 $281 $405 forward 7 unknown #
coedge $-1 $294 $293 $185 $287 reversed $278 $-1 #
edge $-1 $406 -68.247932370982994 $288 68.247932370982994 $286 $407 forward 7 unknown #
vertex $-1 $187 $408 #
vertex $-1 $300 $409 #
straight-curve $-1 68.247932370982994 0 -10.195319188071236 0 -1 0 I I #
coedge $-1 $280 $282 $188 $292 reversed $181 $-1 #
edge $-1 $295 -32.351690247673893 $298 32.351690247673893 $291 $410 forward 7 unknown #
coedge $-1 $286 $189 $194 $301 forward $278 $-1 #
coedge $-1 $189 $286 $280 $401 reversed $278 $-1 #
vertex $-1 $190 $411 #
straight-curve $-1 0 32.351690247673893 10.195319188071236 -1 0 0 I I #
coedge $-1 $191 $281 $193 $300 reversed $113 $-1 #
vertex $-1 $292 $412 #
straight-curve $-1 0 -32.351690247673893 10.195319188071236 1 0 0 I I #
edge $-1 $196 -10.195319188071236 $289 10.195319188071236 $193 $413 forward 7 unknown #
edge $-1 $197 -10.195319188071236 $288 10.195319188071236 $194 $414 forward 7 unknown #
point $-1 68.247932370982994 -32.351690247673893 10.195319188071236 #
point $-1 68.247932370982994 32.351690247673893 10.195319188071236 #
face $-1 $-1 $415 $28 $-1 $416 reversed single #
loop $-1 $-1 $207 $199 #
plane-surface $-1 0 0 -10.195319188071236 0 0 1 1 0 0 forward_v I I I I #
coedge $-1 $417 $202 $418 $419 reversed $121 $-1 #
coedge $-1 $202 $417 $311 $420 reversed $121 $-1 #
coedge $-1 $210 $209 $202 $310 reversed $200 $-1 #
edge $-1 $421 -10.195319188071236 $422 10.195319188071236 $309 $423 forward 7 unknown #
coedge $-1 $204 $203 $308 $420 forward $77 $-1 #
edge $-1 $212 -5.9167264032357991 $421 5.9167264032357991 $210 $424 forward 7 unknown #
coedge $-1 $425 $317 $204 $314 reversed $415 $-1 #
edge $-1 $426 -80.081385177454592 $315 -68.247932370982994 $313 $427 forward 7 unknown #
vertex $-1 $318 $428 #
straight-curve $-1 -68.247932370982994 0 10.195319188071236 0 1 0 I I #
coedge $-1 $313 $429 $206 $318 forward $415 $-1 #
edge $-1 $321 -10.195319188071236 $315 10.195319188071236 $317 $430 forward 7 unknown #
coedge $-1 $418 $207 $429 $431 forward $305 $-1 #
coedge $-1 $207 $418 $209 $323 forward $305 $-1 #
vertex $-1 $431 $432 #
straight-curve $-1 -68.247932370982994 0 -10.195319188071236 0 -1 0 I I #
edge $-1 $422 -5.9167264032357991 $211 5.9167264032357991 $209 $433 forward 7 unknown #
point $-1 -68.247932370982994 -28.517314305955793 -10.195319188071236 #
point $-1 -68.247932370982994 -28.517314305955793 10.195319188071236 #
face $-1 $-1 $341 $29 $-1 $434 forward single #
loop $-1 $-1 $435 $214 #
plane-surface $-1 80.081385177454592 -30.434502276814843 0 -1 0 0 0 0 1 forward_v I I I I #
coedge $-1 $226 $225 $436 $437 forward $215 $-1 #
coedge $-1 $438 $217 $226 $344 forward $129 $-1 #
coedge $-1 $217 $438 $218 $333 forward $129 $-1 #
coedge $-1 $219 $218 $435 $439 reversed $81 $-1 #
edge $-1 $440 -5.9167264032357991 $337 5.9167264032357991 $218 $441 forward 7 unknown #
coedge $-1 $442 $223 $219 $335 forward $341 $-1 #
edge $-1 $336 -5.9167264032357991 $443 5.9167264032357991 $219 $444 forward 7 unknown #
vertex $-1 $335 $445 #
vertex $-1 $222 $446 #
straight-curve $-1 68.247932370982994 -32.351690247673893 0 0 0 -1 I I #
straight-curve $-1 68.247932370982994 0 -10.195319188071236 0 1 0 I I #
coedge $-1 $223 $442 $225 $343 forward $341 $-1 #
loop $-1 $-1 $223 $326 #
straight-curve $-1 68.247932370982994 0 10.195319188071236 0 -1 0 I I #
edge $-1 $447 -5.9167264032357991 $227 5.9167264032357991 $225 $448 forward 7 unknown #
edge $-1 $228 -5.9167264032357991 $449 5.9167264032357991 $226 $450 forward 7 unknown #
point $-1 68.247932370982994 -28.517314305955793 10.195319188071236 #
point $-1 68.247932370982994 -28.517314305955793 -10.195319188071236 #
plane-surface $-1 0 0 10.195319188071236 0 0 1 1 0 0 forward_v I I I I #
coedge $-1 $358 $357 $350 $451 forward $231 $-1 #
coedge $-1 $350 $233 $235 $354 reversed $137 $-1 #
coedge $-1 $233 $349 $348 $451 reversed $137 $-1 #
coedge $-1 $241 $236 $233 $352 forward $242 $-1 #
edge $-1 $355 -30.110016749419529 $452 -24.557901048364791 $351 $453 forward 7 unknown #
coedge $-1 $235 $234 $358 $454 reversed $85 $-1 #
edge $-1 $455 -64.70338049534783 $355 -54.226094220499633 $349 $456 forward 7 unknown #
vertex $-1 $237 $457 #
straight-curve $-1 -25.251019129274212 26.799574546619148 10.195319188071238 1 0 0 I I #
coedge $-1 $348 $238 $241 $362 reversed $231 $-1 #
coedge $-1 $238 $348 $353 $454 forward $231 $-1 #
vertex $-1 $239 $458 #
straight-curve $-1 -56.414479564511389 32.351690247673893 64.256721033688294 0 0 1 I I #
straight-curve $-1 -56.414479564511389 -1.9358767172503946 56.181655583486361 0 0.52991925155115449 -0.84804810408105047 I I #
edge $-1 $452 44.58959695258546 $243 56.414479564511389 $357 $459 forward 7 unknown #
point $-1 -56.414479564511389 32.351690247673893 10.195319188071236 #
point $-1 -56.414479564511389 26.799574546619155 10.195319188071238 #
edge $-1 $460 1 $460 0 $246 $-1 forward 7 unknown #
vertex $-1 $247 $461 #
ellipse-curve $-1 -53.035941675389694 28.286672781449379 4.9472664745255761 0 0.84804810408105047 0.52991925155115449 1.5 0 0 1 I I #
point $-1 -51.535941675389694 29.575632397146531 5.7526978074215434 #
edge $-1 $462 1 $462 0 $250 $-1 forward 7 unknown #
vertex $-1 $251 $463 #
ellipse-curve $-1 -47.968134841707148 28.286672781449379 4.9472664745255761 0 0.84804810408105047 0.52991925155115449 1.5 0 0 1 I I #
point $-1 -46.468134841707148 29.575632397146531 5.7526978074215434 #
loop $-1 $-1 $262 $254 #
plane-surface $-1 0 -32.351690247673893 0 0 1 0 0 0 1 forward_v I I I I #
coedge $-1 $376 $257 $259 $380 reversed $159 $-1 #
coedge $-1 $257 $375 $464 $465 reversed $159 $-1 #
coedge $-1 $265 $260 $257 $378 forward $255 $-1 #
edge $-1 $381 -45.701639502207513 $466 -42.324051379813191 $377 $467 forward 7 unknown #
coedge $-1 $259 $258 $384 $468 reversed $99 $-1 #
edge $-1 $469 -4.1431396825663817e-014 $381 6.5579388640266032 $375 $470 forward 7 unknown #
vertex $-1 $261 $471 #
straight-curve $-1 -7.3459249579649821 -28.974102125279565 10.195319188071236 -1 0 0 I I #
coedge $-1 $464 $262 $265 $388 reversed $373 $-1 #
coedge $-1 $262 $464 $379 $468 forward $373 $-1 #
vertex $-1 $263 $472 #
straight-curve $-1 -7.0205343668838687 -32.351690247673893 37.437317006250218 0 0 1 I I #
straight-curve $-1 -7.0205343668838687 -32.351690247673872 4.5740683824434143 0 -0.51503806187062418 -0.85716730853699208 I I #
edge $-1 $466 -96.527824239194857 $266 -81.185193141102658 $383 $473 forward 7 unknown #
point $-1 -7.0205343668838651 -32.351690247673893 10.195319188071236 #
point $-1 -7.0205343668838687 -28.974102125279568 10.195319188071236 #
edge $-1 $474 1 $474 0 $269 $-1 forward 7 unknown #
vertex $-1 $270 $475 #
ellipse-curve $-1 -17.979556579806861 -29.786423190092219 6.8580556962355965 0 -0.85716730853699208 0.51503806187062418 1 0 0 1 I I #
point $-1 -16.979556579806861 -30.662896186476747 7.3846937852573333 #
edge $-1 $476 1 $476 0 $273 $-1 forward 7 unknown #
vertex $-1 $274 $477 #
ellipse-curve $-1 -11.404143252053068 -29.786423190092219 6.8580556962355965 0 -0.85716730853699208 0.51503806187062418 1 0 0 1 I I #
point $-1 -10.404143252053068 -30.662896186476747 7.3846937852573333 #
plane-surface $-1 68.247932370982994 0 0 -1 0 0 0 0 1 forward_v I I I I #
coedge $-1 $282 $280 $284 $404 reversed $181 $-1 #
edge $-1 $295 -10.195319188071236 $406 10.195319188071236 $294 $478 forward 7 unknown #
vertex $-1 $404 $479 #
straight-curve $-1 -68.247932370982994 -32.351690247673893 0 0 0 -1 I I #
edge $-1 $402 -32.351690247673893 $406 32.351690247673893 $400 $480 forward 7 unknown #
straight-curve $-1 0 -32.351690247673893 -10.195319188071236 -1 0 0 I I #
vertex $-1 $287 $481 #
straight-curve $-1 0 32.351690247673893 -10.195319188071236 1 0 0 I I #
point $-1 68.247932370982994 32.351690247673893 -10.195319188071236 #
point $-1 68.247932370982994 -32.351690247673893 -10.195319188071236 #
straight-curve $-1 -68.247932370982994 0 10.195319188071236 0 -1 0 I I #
point $-1 -68.247932370982994 32.351690247673893 10.195319188071236 #
point $-1 -68.247932370982994 -32.351690247673893 10.195319188071236 #
straight-curve $-1 68.247932370982994 -32.351690247673893 0 0 0 -1 I I #
straight-curve $-1 68.247932370982994 32.351690247673893 0 0 0 -1 I I #
loop $-1 $-1 $317 $304 #
plane-surface $-1 0 -32.351690247673893 0 0 1 0 0 0 1 forward_v I I I I #
coedge $-1 $308 $307 $425 $482 reversed $121 $-1 #
coedge $-1 $320 $319 $307 $419 forward $305 $-1 #
edge $-1 $483 -1.9171879708590502 $422 1.9171879708590502 $307 $484 forward 7 unknown #
edge $-1 $421 -1.9171879708590502 $426 1.9171879708590502 $308 $485 forward 7 unknown #
vertex $-1 $312 $486 #
vertex $-1 $323 $487 #
straight-curve $-1 -80.081385177454592 -28.517314305955793 0 0 0 -1 I I #
straight-curve $-1 -74.164658774218793 -28.517314305955793 10.195319188071236 -1 0 0 I I #
coedge $-1 $429 $313 $417 $482 forward $415 $-1 #
vertex $-1 $420 $488 #
straight-curve $-1 0 -32.351690247673893 10.195319188071236 1 0 0 I I #
point $-1 -68.247932370982994 -32.351690247673893 10.195319188071236 #
coedge $-1 $317 $425 $319 $431 reversed $415 $-1 #
straight-curve $-1 -68.247932370982994 -32.351690247673893 0 0 0 1 I I #
edge $-1 $321 -5.9167264032357991 $483 5.9167264032357991 $429 $489 forward 7 unknown #
point $-1 -68.247932370982994 -32.351690247673893 -10.195319188071236 #
straight-curve $-1 -74.164658774218793 -28.517314305955793 -10.195319188071236 1 0 0 I I #
plane-surface $-1 0 0 10.195319188071236 0 0 1 1 0 0 forward_v I I I I #
coedge $-1 $490 $491 $332 $439 forward $327 $-1 #
coedge $-1 $491 $490 $329 $437 reversed $327 $-1 #
edge $-1 $447 -10.195319188071236 $449 10.195319188071236 $436 $492 forward 7 unknown #
coedge $-1 $331 $330 $490 $493 forward $129 $-1 #
edge $-1 $443 -10.195319188071236 $440 10.195319188071236 $435 $494 forward 7 unknown #
vertex $-1 $439 $495 #
straight-curve $-1 74.164658774218793 -32.351690247673893 -10.195319188071236 -1 0 0 I I #
coedge $-1 $340 $334 $491 $496 forward $341 $-1 #
vertex $-1 $496 $497 #
straight-curve $-1 74.164658774218793 -32.351690247673893 10.195319188071236 1 0 0 I I #
point $-1 68.247932370982994 -32.351690247673893 10.195319188071236 #
point $-1 68.247932370982994 -32.351690247673893 -10.195319188071236 #
vertex $-1 $496 $498 #
straight-curve $-1 74.164658774218793 -28.517314305955793 10.195319188071236 -1 0 0 I I #
vertex $-1 $493 $499 #
straight-curve $-1 74.164658774218793 -28.517314305955793 -10.195319188071236 1 0 0 I I #
edge $-1 $452 54.061401845617056 $455 62.946644606916479 $348 $500 forward 7 unknown #
vertex $-1 $362 $501 #
straight-curve $-1 -44.58959695258546 56.909591296038684 10.195319188071238 0 1 0 I I #
edge $-1 $455 19.338577823311248 $359 31.163460435237177 $358 $502 forward 7 unknown #
vertex $-1 $454 $503 #
straight-curve $-1 -44.58959695258546 -1.9358767172503946 56.181655583486361 0 -0.52991925155115449 0.84804810408105047 I I #
point $-1 -44.58959695258546 26.799574546619155 10.195319188071238 #
point $-1 -56.414479564511389 32.351690247673893 1.3100764267718148 #
straight-curve $-1 0 32.351690247673893 10.195319188071236 -1 0 0 I I #
vertex $-1 $365 $504 #
point $-1 -51.535941675389694 28.286672781449379 4.9472664745255761 #
vertex $-1 $369 $505 #
point $-1 -46.468134841707148 28.286672781449379 4.9472664745255761 #
coedge $-1 $384 $383 $376 $465 forward $373 $-1 #
edge $-1 $466 27.24199781817898 $469 32.86324862380684 $464 $506 forward 7 unknown #
vertex $-1 $388 $507 #
straight-curve $-1 -22.36316546497606 -74.675741627487085 10.195319188071238 0 -1 0 I I #
edge $-1 $469 -15.017240507011078 $385 0.32539059108111346 $384 $508 forward 7 unknown #
vertex $-1 $468 $509 #
straight-curve $-1 -22.36316546497606 -32.351690247673872 4.5740683824434143 0 0.51503806187062418 0.85716730853699208 I I #
point $-1 -22.36316546497606 -28.974102125279568 10.195319188071236 #
point $-1 -7.0205343668838687 -32.351690247673893 4.5740683824433788 #
straight-curve $-1 74.164658774218793 -32.351690247673893 10.195319188071236 1 0 0 I I #
vertex $-1 $391 $510 #
point $-1 -16.979556579806861 -29.786423190092219 6.8580556962355965 #
vertex $-1 $395 $511 #
point $-1 -10.404143252053068 -29.786423190092219 6.8580556962355965 #
straight-curve $-1 -68.247932370982994 32.351690247673893 0 0 0 -1 I I #
point $-1 -68.247932370982994 -32.351690247673893 -10.195319188071236 #
straight-curve $-1 -68.247932370982994 0 -10.195319188071236 0 1 0 I I #
point $-1 -68.247932370982994 32.351690247673893 -10.195319188071236 #
edge $-1 $426 -10.195319188071236 $483 10.195319188071236 $417 $512 forward 7 unknown #
vertex $-1 $419 $513 #
straight-curve $-1 -80.081385177454592 -30.434502276814843 -10.195319188071236 0 1 0 I I #
straight-curve $-1 -80.081385177454592 -30.434502276814843 10.195319188071236 0 -1 0 I I #
point $-1 -80.081385177454592 -28.517314305955793 10.195319188071236 #
point $-1 -80.081385177454592 -28.517314305955793 -10.195319188071236 #
point $-1 -80.081385177454592 -32.351690247673893 10.195319188071236 #
straight-curve $-1 -74.164658774218793 -32.351690247673893 -10.195319188071236 -1 0 0 I I #
coedge $-1 $436 $435 $438 $493 reversed $327 $-1 #
coedge $-1 $435 $436 $442 $496 reversed $327 $-1 #
straight-curve $-1 80.081385177454592 -28.517314305955793 0 0 0 -1 I I #
edge $-1 $449 -1.9171879708590502 $440 1.9171879708590502 $490 $514 forward 7 unknown #
straight-curve $-1 80.081385177454592 -32.351690247673893 0 0 0 -1 I I #
point $-1 80.081385177454592 -32.351690247673893 -10.195319188071236 #
edge $-1 $443 -1.9171879708590502 $447 1.9171879708590502 $491 $515 forward 7 unknown #
point $-1 80.081385177454592 -32.351690247673893 10.195319188071236 #
point $-1 80.081385177454592 -28.517314305955793 10.195319188071236 #
point $-1 80.081385177454592 -28.517314305955793 -10.195319188071236 #
straight-curve $-1 -44.58959695258546 32.351690247673893 64.256721033688294 0 0 -1 I I #
point $-1 -44.58959695258546 32.351690247673893 10.195319188071236 #
straight-curve $-1 -25.251019129274212 32.351690247673893 1.3100764267718148 -1 0 0 I I #
point $-1 -44.58959695258546 32.351690247673893 1.3100764267718148 #
point $-1 -53.035941675389694 27.014600625327805 4.1523875971988433 #
point $-1 -47.968134841707148 27.014600625327805 4.1523875971988433 #
straight-curve $-1 -22.36316546497606 -32.351690247673893 37.437317006250218 0 0 -1 I I #
point $-1 -22.363165464976063 -32.351690247673893 10.195319188071236 #
straight-curve $-1 -7.3459249579649821 -32.351690247673893 4.5740683824433841 1 0 0 I I #
point $-1 -22.36316546497606 -32.351690247673893 4.5740683824433788 #
point $-1 -17.979556579806861 -28.929255881555225 6.3430176343649718 #
point $-1 -11.404143252053068 -28.929255881555225 6.3430176343649718 #
straight-curve $-1 -80.081385177454592 -32.351690247673893 0 0 0 -1 I I #
point $-1 -80.081385177454592 -32.351690247673893 -10.195319188071236 #
straight-curve $-1 80.081385177454592 -30.434502276814843 -10.195319188071236 0 -1 0 I I #
straight-curve $-1 80.081385177454592 -30.434502276814843 10.195319188071236 0 1 0 I I #
End-of-ACIS-data 