500 0 15 0           
7 Unknown 11 ACIS 5.0 NT 24 Thu Mar 25 21:01:55 1999 
-1 9.9999999999999995e-007 1e-010 
body $-1 $15 $-1 $16 #
body $-1 $17 $-1 $18 #
body $-1 $19 $-1 $20 #
body $-1 $21 $-1 $22 #
body $-1 $23 $-1 $24 #
body $-1 $25 $-1 $26 #
body $-1 $27 $-1 $28 #
body $-1 $29 $-1 $30 #
body $-1 $31 $-1 $32 #
body $-1 $33 $-1 $34 #
body $-1 $35 $-1 $36 #
body $-1 $37 $-1 $38 #
body $-1 $39 $-1 $40 #
body $-1 $41 $-1 $42 #
body $-1 $43 $-1 $44 #
lump $-1 $-1 $45 $0 #
transform $-1 1 0 0 0 1 0 0 0 1 72.626728110599089 37.642353165535923 11.344286553839753 1 rotate no_reflect no_shear #
lump $-1 $-1 $46 $1 #
transform $-1 1 0 0 0 1 0 0 0 1 72.626728110599089 37.642353165535923 11.344286553839753 1 rotate no_reflect no_shear #
lump $-1 $-1 $47 $2 #
transform $-1 1 0 0 0 1 0 0 0 1 72.626728110599089 37.642353165535923 11.344286553839753 1 rotate no_reflect no_shear #
lump $-1 $-1 $48 $3 #
transform $-1 1 0 0 0 1 0 0 0 1 72.626728110599089 37.642353165535923 11.344286553839753 1 rotate no_reflect no_shear #
lump $-1 $-1 $49 $4 #
transform $-1 1 0 0 0 1 0 0 0 1 72.626728110599089 37.642353165535923 11.344286553839753 1 rotate no_reflect no_shear #
lump $-1 $-1 $50 $5 #
transform $-1 1 0 0 0 1 0 0 0 1 72.626728110599089 37.642353165535923 11.344286553839753 1 rotate no_reflect no_shear #
lump $-1 $-1 $51 $6 #
transform $-1 1 0 0 0 1 0 0 0 1 72.626728110599089 37.642353165535923 11.344286553839753 1 rotate no_reflect no_shear #
lump $-1 $-1 $52 $7 #
transform $-1 1 0 0 0 1 0 0 0 1 72.626728110599089 37.642353165535923 11.344286553839753 1 rotate no_reflect no_shear #
lump $-1 $-1 $53 $8 #
transform $-1 1 0 0 0 1 0 0 0 1 72.626728110599089 37.642353165535923 11.344286553839753 1 rotate no_reflect no_shear #
lump $-1 $-1 $54 $9 #
transform $-1 1 0 0 0 1 0 0 0 1 72.626728110599089 37.642353165535923 11.344286553839753 1 rotate no_reflect no_shear #
lump $-1 $-1 $55 $10 #
transform $-1 1 0 0 0 1 0 0 0 1 72.626728110599089 37.642353165535923 11.344286553839753 1 rotate no_reflect no_shear #
lump $-1 $-1 $56 $11 #
transform $-1 1 0 0 0 1 0 0 0 1 72.626728110599089 37.642353165535923 11.344286553839753 1 rotate no_reflect no_shear #
lump $-1 $-1 $57 $12 #
transform $-1 1 0 0 0 1 0 0 0 1 72.626728110599089 37.642353165535923 11.344286553839753 1 rotate no_reflect no_shear #
lump $-1 $-1 $58 $13 #
transform $-1 1 0 0 0 1 0 0 0 1 72.626728110599089 37.642353165535923 11.344286553839753 1 rotate no_reflect no_shear #
lump $-1 $-1 $59 $14 #
transform $-1 1 0 0 0 1 0 0 0 1 72.626728110599089 37.642353165535923 11.344286553839753 1 rotate no_reflect no_shear #
shell $-1 $-1 $-1 $60 $-1 $15 #
shell $-1 $-1 $-1 $61 $-1 $17 #
shell $-1 $-1 $-1 $62 $-1 $19 #
shell $-1 $-1 $-1 $63 $-1 $21 #
shell $-1 $-1 $-1 $64 $-1 $23 #
shell $-1 $-1 $-1 $65 $-1 $25 #
shell $-1 $-1 $-1 $66 $-1 $27 #
shell $-1 $-1 $-1 $67 $-1 $29 #
shell $-1 $-1 $-1 $68 $-1 $31 #
shell $-1 $-1 $-1 $69 $-1 $33 #
shell $-1 $-1 $-1 $70 $-1 $35 #
shell $-1 $-1 $-1 $71 $-1 $37 #
shell $-1 $-1 $-1 $72 $-1 $39 #
shell $-1 $-1 $-1 $73 $-1 $41 #
shell $-1 $-1 $-1 $74 $-1 $43 #
face $-1 $75 $76 $45 $-1 $77 forward single #
face $-1 $78 $79 $46 $-1 $80 reversed single #
face $-1 $81 $82 $47 $-1 $83 forward single #
face $-1 $84 $85 $48 $-1 $86 reversed single #
face $-1 $87 $88 $49 $-1 $89 forward single #
face $-1 $90 $91 $50 $-1 $92 forward single #
face $-1 $93 $94 $51 $-1 $95 reversed single #
face $-1 $96 $97 $52 $-1 $98 forward single #
face $-1 $99 $100 $53 $-1 $101 forward single #
face $-1 $102 $103 $54 $-1 $104 reversed single #
face $-1 $105 $106 $55 $-1 $107 forward single #
face $-1 $108 $109 $56 $-1 $110 forward single #
face $-1 $111 $112 $57 $-1 $113 reversed single #
face $-1 $114 $115 $58 $-1 $116 forward single #
face $-1 $117 $118 $59 $-1 $119 forward single #
face $-1 $120 $121 $45 $-1 $122 reversed single #
loop $-1 $-1 $123 $60 #
plane-surface $-1 0 0 11.344286553839753 0 0 1 1 0 0 forward_v I I I I #
face $-1 $124 $125 $46 $-1 $126 reversed single #
loop $-1 $-1 $127 $61 #
plane-surface $-1 -67.732963463803017 -31.785229502687628 0 0 -1 0 0 0 -1 forward_v I I I I #
face $-1 $128 $129 $47 $-1 $130 reversed single #
loop $-1 $-1 $131 $62 #
plane-surface $-1 65.682984030234792 0 -2.0878341185085763 0 0 1 1 0 0 forward_v I I I I #
face $-1 $132 $133 $48 $-1 $134 reversed single #
loop $-1 $-1 $135 $63 #
plane-surface $-1 -39.27103026962822 64.933026983631891 167.35525739131634 -1 0 0 0 0.6018150307709319 0.79863550430605224 forward_v I I I I #
face $-1 $136 $137 $49 $-1 $138 forward single #
loop $-1 $139 $140 $64 #
cone-surface $-1 -50.732433429846864 33.085737559956925 7.3146354198284147 0 -0.6018150307709319 -0.79863550430605224 1 0 0 1 I I 0 1 1 forward I I I I #
face $-1 $141 $142 $50 $-1 $143 forward single #
loop $-1 $144 $145 $65 #
cone-surface $-1 -43.855591533715682 33.085737559956925 7.3146354198284147 0 -0.6018150307709319 -0.79863550430605224 1 0 0 1 I I 0 1 1 forward I I I I #
face $-1 $146 $147 $51 $-1 $148 reversed single #
loop $-1 $-1 $149 $66 #
plane-surface $-1 -9.1083415708195261 64.933026983631891 167.35525739131634 -1 0 0 0 0.6018150307709319 0.79863550430605224 forward_v I I I I #
face $-1 $150 $151 $52 $-1 $152 forward single #
loop $-1 $153 $154 $67 #
cone-surface $-1 -20.56974473103817 33.085737559956925 7.3146354198284147 0 -0.6018150307709319 -0.79863550430605224 1 0 0 1 I I 0 1 1 forward I I I I #
face $-1 $155 $156 $53 $-1 $157 forward single #
loop $-1 $158 $159 $68 #
cone-surface $-1 -13.692902834906988 33.085737559956925 7.3146354198284147 0 -0.6018150307709319 -0.79863550430605224 1 0 0 1 I I 0 1 1 forward I I I I #
face $-1 $160 $161 $54 $-1 $162 reversed single #
loop $-1 $-1 $163 $69 #
plane-surface $-1 21.054347127989175 64.933026983631891 167.35525739131634 -1 0 0 0 0.6018150307709319 0.79863550430605224 forward_v I I I I #
face $-1 $164 $165 $55 $-1 $166 forward single #
loop $-1 $167 $168 $70 #
cone-surface $-1 9.5929439677705233 33.085737559956925 7.3146354198284147 0 -0.6018150307709319 -0.79863550430605224 1 0 0 1 I I 0 1 1 forward I I I I #
face $-1 $169 $170 $56 $-1 $171 forward single #
loop $-1 $172 $173 $71 #
cone-surface $-1 16.469785863901706 33.085737559956925 7.3146354198284147 0 -0.6018150307709319 -0.79863550430605224 1 0 0 1 I I 0 1 1 forward I I I I #
face $-1 $174 $175 $57 $-1 $176 reversed single #
loop $-1 $-1 $177 $72 #
plane-surface $-1 51.217035826797868 64.933026983631891 167.35525739131634 -1 0 0 0 0.6018150307709319 0.79863550430605224 forward_v I I I I #
face $-1 $178 $179 $58 $-1 $180 forward single #
loop $-1 $181 $182 $73 #
cone-surface $-1 39.755632666579217 33.085737559956925 7.3146354198284147 0 -0.6018150307709319 -0.79863550430605224 1 0 0 1 I I 0 1 1 forward I I I I #
face $-1 $183 $184 $59 $-1 $185 forward single #
loop $-1 $186 $187 $74 #
cone-surface $-1 46.632474562710399 33.085737559956925 7.3146354198284147 0 -0.6018150307709319 -0.79863550430605224 1 0 0 1 I I 0 1 1 forward I I I I #
face $-1 $188 $189 $45 $-1 $190 reversed single #
loop $-1 $-1 $191 $75 #
plane-surface $-1 0 0 -11.344286553839753 0 0 1 1 0 0 forward_v I I I I #
coedge $-1 $192 $193 $194 $195 forward $76 $-1 #
face $-1 $196 $197 $46 $-1 $198 forward single #
loop $-1 $-1 $199 $78 #
plane-surface $-1 -62.839198817006945 -34.713791334111775 0 -1 0 0 0 0 1 forward_v I I I I #
coedge $-1 $200 $201 $202 $203 forward $79 $-1 #
face $-1 $204 $205 $47 $-1 $206 reversed single #
loop $-1 $-1 $207 $81 #
plane-surface $-1 65.682984030234792 0 -8.2908915294753065 0 0 1 1 0 0 forward_v I I I I #
coedge $-1 $208 $209 $210 $211 reversed $82 $-1 #
face $-1 $212 $213 $48 $-1 $214 reversed single #
loop $-1 $-1 $215 $84 #
plane-surface $-1 -47.294012481781273 -22.482686241712699 51.350690129902659 0 0.6018150307709319 0.79863550430605224 1 0 0 forward_v I I I I #
coedge $-1 $216 $217 $218 $219 reversed $85 $-1 #
face $-1 $-1 $220 $49 $-1 $221 forward single #
loop $-1 $222 $223 $87 #
cone-surface $-1 -50.732433429846864 31.745589320866912 5.5361986742398752 0 -0.6018150307709319 -0.79863550430605224 0.5 0 0 1 I I -0.70710678118654746 0.70710678118654746 0.5 forward I I I I #
loop $-1 $-1 $224 $64 #
coedge $-1 $140 $140 $225 $226 reversed $88 $-1 #
face $-1 $-1 $227 $50 $-1 $228 forward single #
loop $-1 $229 $230 $90 #
cone-surface $-1 -43.855591533715682 31.745589320866912 5.5361986742398752 0 -0.6018150307709319 -0.79863550430605224 0.5 0 0 1 I I -0.70710678118654746 0.70710678118654746 0.5 forward I I I I #
loop $-1 $-1 $231 $65 #
coedge $-1 $145 $145 $232 $233 reversed $91 $-1 #
face $-1 $234 $235 $51 $-1 $236 reversed single #
loop $-1 $-1 $237 $93 #
plane-surface $-1 -17.131323782972579 -22.482686241712699 51.350690129902659 0 0.6018150307709319 0.79863550430605224 1 0 0 forward_v I I I I #
coedge $-1 $238 $239 $240 $241 reversed $94 $-1 #
face $-1 $-1 $242 $52 $-1 $243 forward single #
loop $-1 $244 $245 $96 #
cone-surface $-1 -20.56974473103817 31.745589320866912 5.5361986742398752 0 -0.6018150307709319 -0.79863550430605224 0.5 0 0 1 I I -0.70710678118654746 0.70710678118654746 0.5 forward I I I I #
loop $-1 $-1 $246 $67 #
coedge $-1 $154 $154 $247 $248 reversed $97 $-1 #
face $-1 $-1 $249 $53 $-1 $250 forward single #
loop $-1 $251 $252 $99 #
cone-surface $-1 -13.692902834906988 31.745589320866912 5.5361986742398752 0 -0.6018150307709319 -0.79863550430605224 0.5 0 0 1 I I -0.70710678118654746 0.70710678118654746 0.5 forward I I I I #
loop $-1 $-1 $253 $68 #
coedge $-1 $159 $159 $254 $255 reversed $100 $-1 #
face $-1 $256 $257 $54 $-1 $258 reversed single #
loop $-1 $-1 $259 $102 #
plane-surface $-1 13.031364915836122 -22.482686241712699 51.350690129902659 0 0.6018150307709319 0.79863550430605224 1 0 0 forward_v I I I I #
coedge $-1 $260 $261 $262 $263 reversed $103 $-1 #
face $-1 $-1 $264 $55 $-1 $265 forward single #
loop $-1 $266 $267 $105 #
cone-surface $-1 9.5929439677705233 31.745589320866912 5.5361986742398752 0 -0.6018150307709319 -0.79863550430605224 0.5 0 0 1 I I -0.70710678118654746 0.70710678118654746 0.5 forward I I I I #
loop $-1 $-1 $268 $70 #
coedge $-1 $168 $168 $269 $270 reversed $106 $-1 #
face $-1 $-1 $271 $56 $-1 $272 forward single #
loop $-1 $273 $274 $108 #
cone-surface $-1 16.469785863901706 31.745589320866912 5.5361986742398752 0 -0.6018150307709319 -0.79863550430605224 0.5 0 0 1 I I -0.70710678118654746 0.70710678118654746 0.5 forward I I I I #
loop $-1 $-1 $275 $71 #
coedge $-1 $173 $173 $276 $277 reversed $109 $-1 #
face $-1 $278 $279 $57 $-1 $280 reversed single #
loop $-1 $-1 $281 $111 #
plane-surface $-1 43.194053614644815 -22.482686241712699 51.350690129902659 0 0.6018150307709319 0.79863550430605224 1 0 0 forward_v I I I I #
coedge $-1 $282 $283 $284 $285 reversed $112 $-1 #
face $-1 $-1 $286 $58 $-1 $287 forward single #
loop $-1 $288 $289 $114 #
cone-surface $-1 39.755632666579217 31.745589320866912 5.5361986742398752 0 -0.6018150307709319 -0.79863550430605224 0.5 0 0 1 I I -0.70710678118654746 0.70710678118654746 0.5 forward I I I I #
loop $-1 $-1 $290 $73 #
coedge $-1 $182 $182 $291 $292 reversed $115 $-1 #
face $-1 $-1 $293 $59 $-1 $294 forward single #
loop $-1 $295 $296 $117 #
cone-surface $-1 46.632474562710399 31.745589320866912 5.5361986742398752 0 -0.6018150307709319 -0.79863550430605224 0.5 0 0 1 I I -0.70710678118654746 0.70710678118654746 0.5 forward I I I I #
loop $-1 $-1 $297 $74 #
coedge $-1 $187 $187 $298 $299 reversed $118 $-1 #
face $-1 $300 $301 $45 $-1 $302 reversed single #
loop $-1 $-1 $303 $120 #
plane-surface $-1 0 -37.642353165535923 0 0 1 0 0 0 1 forward_v I I I I #
coedge $-1 $304 $305 $306 $307 forward $121 $-1 #
coedge $-1 $308 $123 $309 $310 forward $76 $-1 #
coedge $-1 $123 $308 $311 $312 forward $76 $-1 #
coedge $-1 $313 $314 $123 $195 reversed $315 $-1 #
edge $-1 $316 -37.642353165535923 $317 37.642353165535923 $194 $318 forward 7 unknown #
face $-1 $319 $320 $46 $-1 $321 reversed single #
loop $-1 $-1 $322 $124 #
plane-surface $-1 0 0 11.344286553839753 0 0 1 1 0 0 forward_v I I I I #
coedge $-1 $323 $324 $325 $326 reversed $125 $-1 #
coedge $-1 $327 $127 $328 $329 reversed $79 $-1 #
coedge $-1 $127 $327 $330 $331 reversed $79 $-1 #
coedge $-1 $324 $323 $127 $203 reversed $125 $-1 #
edge $-1 $332 -11.344286553839753 $333 11.344286553839753 $202 $334 forward 7 unknown #
face $-1 $335 $336 $47 $-1 $337 reversed single #
loop $-1 $-1 $338 $128 #
plane-surface $-1 58.739239949870495 0 -5.1893628239919414 1 0 0 0 0 -1 forward_v I I I I #
coedge $-1 $339 $340 $341 $342 reversed $129 $-1 #
coedge $-1 $343 $131 $344 $345 reversed $82 $-1 #
coedge $-1 $131 $343 $346 $347 reversed $82 $-1 #
coedge $-1 $348 $349 $131 $211 forward $350 $-1 #
edge $-1 $351 -37.642353165535923 $352 37.642353165535923 $210 $353 forward 7 unknown #
face $-1 $354 $355 $48 $-1 $356 reversed single #
loop $-1 $-1 $357 $132 #
plane-surface $-1 -55.316994693934326 64.933026983631891 167.35525739131634 1 0 0 0 -0.6018150307709319 -0.79863550430605224 forward_v I I I I #
coedge $-1 $358 $359 $360 $361 reversed $133 $-1 #
coedge $-1 $217 $135 $362 $363 reversed $85 $-1 #
coedge $-1 $135 $216 $358 $364 reversed $85 $-1 #
coedge $-1 $360 $365 $135 $219 forward $355 $-1 #
edge $-1 $366 72.33334214181842 $367 77.634406422970102 $218 $368 forward 7 unknown #
loop $-1 $-1 $225 $136 #
plane-surface $-1 -47.294012481781273 -22.482686241712699 51.350690129902659 0 0.6018150307709319 0.79863550430605224 1 0 0 forward_v I I I I #
loop $-1 $-1 $369 $87 #
coedge $-1 $223 $223 $224 $370 reversed $137 $-1 #
coedge $-1 $224 $224 $223 $370 forward $139 $-1 #
coedge $-1 $225 $225 $140 $226 forward $220 $-1 #
edge $-1 $371 -2.5482040754342276e-015 $371 6.2831853071795978 $225 $372 forward 7 unknown #
loop $-1 $-1 $232 $141 #
plane-surface $-1 -47.294012481781273 -22.482686241712699 51.350690129902659 0 0.6018150307709319 0.79863550430605224 1 0 0 forward_v I I I I #
loop $-1 $-1 $373 $90 #
coedge $-1 $230 $230 $231 $374 reversed $142 $-1 #
coedge $-1 $231 $231 $230 $374 forward $144 $-1 #
coedge $-1 $232 $232 $145 $233 forward $227 $-1 #
edge $-1 $375 -2.5482040754342276e-015 $375 6.2831853071795978 $232 $376 forward 7 unknown #
face $-1 $377 $378 $51 $-1 $379 forward single #
loop $-1 $-1 $380 $146 #
plane-surface $-1 -25.154305995125632 64.933026983631891 167.35525739131634 1 0 0 0 -0.6018150307709319 -0.79863550430605224 forward_v I I I I #
coedge $-1 $381 $382 $383 $384 reversed $147 $-1 #
coedge $-1 $239 $149 $385 $386 reversed $94 $-1 #
coedge $-1 $149 $238 $381 $387 reversed $94 $-1 #
coedge $-1 $383 $388 $149 $241 forward $389 $-1 #
edge $-1 $390 72.33334214181842 $391 77.634406422970102 $240 $392 forward 7 unknown #
loop $-1 $-1 $247 $150 #
plane-surface $-1 -17.131323782972579 -22.482686241712699 51.350690129902659 0 0.6018150307709319 0.79863550430605224 1 0 0 forward_v I I I I #
loop $-1 $-1 $393 $96 #
coedge $-1 $245 $245 $246 $394 reversed $151 $-1 #
coedge $-1 $246 $246 $245 $394 forward $153 $-1 #
coedge $-1 $247 $247 $154 $248 forward $242 $-1 #
edge $-1 $395 -2.5482040754342276e-015 $395 6.2831853071795978 $247 $396 forward 7 unknown #
loop $-1 $-1 $254 $155 #
plane-surface $-1 -17.131323782972579 -22.482686241712699 51.350690129902659 0 0.6018150307709319 0.79863550430605224 1 0 0 forward_v I I I I #
loop $-1 $-1 $397 $99 #
coedge $-1 $252 $252 $253 $398 reversed $156 $-1 #
coedge $-1 $253 $253 $252 $398 forward $158 $-1 #
coedge $-1 $254 $254 $159 $255 forward $249 $-1 #
edge $-1 $399 -2.5482040754342276e-015 $399 6.2831853071795978 $254 $400 forward 7 unknown #
face $-1 $401 $402 $54 $-1 $403 forward single #
loop $-1 $-1 $404 $160 #
plane-surface $-1 5.0083827036830684 64.933026983631891 167.35525739131634 1 0 0 0 -0.6018150307709319 -0.79863550430605224 forward_v I I I I #
coedge $-1 $405 $406 $407 $408 reversed $161 $-1 #
coedge $-1 $261 $163 $409 $410 reversed $103 $-1 #
coedge $-1 $163 $260 $405 $411 reversed $103 $-1 #
coedge $-1 $407 $412 $163 $263 forward $413 $-1 #
edge $-1 $414 72.33334214181842 $415 77.634406422970102 $262 $416 forward 7 unknown #
loop $-1 $-1 $269 $164 #
plane-surface $-1 13.031364915836122 -22.482686241712699 51.350690129902659 0 0.6018150307709319 0.79863550430605224 1 0 0 forward_v I I I I #
loop $-1 $-1 $417 $105 #
coedge $-1 $267 $267 $268 $418 reversed $165 $-1 #
coedge $-1 $268 $268 $267 $418 forward $167 $-1 #
coedge $-1 $269 $269 $168 $270 forward $264 $-1 #
edge $-1 $419 -2.5482040754342276e-015 $419 6.2831853071795978 $269 $420 forward 7 unknown #
loop $-1 $-1 $276 $169 #
plane-surface $-1 13.031364915836122 -22.482686241712699 51.350690129902659 0 0.6018150307709319 0.79863550430605224 1 0 0 forward_v I I I I #
loop $-1 $-1 $421 $108 #
coedge $-1 $274 $274 $275 $422 reversed $170 $-1 #
coedge $-1 $275 $275 $274 $422 forward $172 $-1 #
coedge $-1 $276 $276 $173 $277 forward $271 $-1 #
edge $-1 $423 -2.5482040754342276e-015 $423 6.2831853071795978 $276 $424 forward 7 unknown #
face $-1 $425 $426 $57 $-1 $427 forward single #
loop $-1 $-1 $428 $174 #
plane-surface $-1 35.171071402491762 64.933026983631891 167.35525739131634 1 0 0 0 -0.6018150307709319 -0.79863550430605224 forward_v I I I I #
coedge $-1 $429 $430 $431 $432 reversed $175 $-1 #
coedge $-1 $283 $177 $433 $434 reversed $112 $-1 #
coedge $-1 $177 $282 $429 $435 reversed $112 $-1 #
coedge $-1 $431 $436 $177 $285 forward $437 $-1 #
edge $-1 $438 72.33334214181842 $439 77.634406422970102 $284 $440 forward 7 unknown #
loop $-1 $-1 $291 $178 #
plane-surface $-1 43.194053614644815 -22.482686241712699 51.350690129902659 0 0.6018150307709319 0.79863550430605224 1 0 0 forward_v I I I I #
loop $-1 $-1 $441 $114 #
coedge $-1 $289 $289 $290 $442 reversed $179 $-1 #
coedge $-1 $290 $290 $289 $442 forward $181 $-1 #
coedge $-1 $291 $291 $182 $292 forward $286 $-1 #
edge $-1 $443 -2.5482040754342276e-015 $443 6.2831853071795978 $291 $444 forward 7 unknown #
loop $-1 $-1 $298 $183 #
plane-surface $-1 43.194053614644815 -22.482686241712699 51.350690129902659 0 0.6018150307709319 0.79863550430605224 1 0 0 forward_v I I I I #
loop $-1 $-1 $445 $117 #
coedge $-1 $296 $296 $297 $446 reversed $184 $-1 #
coedge $-1 $297 $297 $296 $446 forward $186 $-1 #
coedge $-1 $298 $298 $187 $299 forward $293 $-1 #
edge $-1 $447 -2.5482040754342276e-015 $447 6.2831853071795978 $298 $448 forward 7 unknown #
face $-1 $449 $450 $45 $-1 $451 reversed single #
loop $-1 $-1 $452 $188 #
plane-surface $-1 -72.626728110599089 0 0 1 0 0 0 0 -1 forward_v I I I I #
coedge $-1 $453 $311 $454 $455 forward $189 $-1 #
coedge $-1 $456 $191 $453 $457 forward $121 $-1 #
coedge $-1 $191 $456 $458 $459 forward $121 $-1 #
coedge $-1 $314 $313 $191 $307 reversed $315 $-1 #
edge $-1 $460 -37.642353165535923 $461 37.642353165535923 $306 $462 forward 7 unknown #
coedge $-1 $193 $192 $463 $464 forward $76 $-1 #
coedge $-1 $465 $466 $192 $310 reversed $450 $-1 #
edge $-1 $317 -72.626728110599089 $467 72.626728110599089 $309 $468 forward 7 unknown #
coedge $-1 $303 $469 $193 $312 reversed $189 $-1 #
edge $-1 $470 -72.626728110599089 $316 72.626728110599089 $311 $471 forward 7 unknown #
coedge $-1 $306 $194 $469 $472 forward $315 $-1 #
coedge $-1 $194 $306 $465 $473 reversed $315 $-1 #
loop $-1 $-1 $313 $449 #
vertex $-1 $195 $474 #
vertex $-1 $195 $475 #
straight-curve $-1 72.626728110599089 0 11.344286553839753 0 1 0 I I #
face $-1 $476 $477 $46 $-1 $478 reversed single #
loop $-1 $-1 $479 $196 #
plane-surface $-1 -72.626728110599089 0 0 1 0 0 0 0 -1 forward_v I I I I #
coedge $-1 $330 $480 $324 $481 forward $197 $-1 #
coedge $-1 $202 $199 $482 $483 reversed $125 $-1 #
coedge $-1 $199 $202 $322 $481 reversed $125 $-1 #
coedge $-1 $484 $485 $199 $326 forward $486 $-1 #
edge $-1 $487 -11.344286553839753 $488 11.344286553839753 $325 $489 forward 7 unknown #
coedge $-1 $201 $200 $479 $490 reversed $79 $-1 #
coedge $-1 $482 $491 $200 $329 forward $477 $-1 #
edge $-1 $492 -38.76024637869758 $333 -28.972717085105437 $328 $493 forward 7 unknown #
coedge $-1 $494 $322 $201 $331 forward $197 $-1 #
edge $-1 $332 28.972717085105437 $495 38.76024637869758 $330 $496 forward 7 unknown #
vertex $-1 $331 $497 #
vertex $-1 $329 $498 #
straight-curve $-1 -62.839198817006945 -31.785229502687628 0 0 0 -1 I I #
face $-1 $499 $500 $47 $-1 $501 reversed single #
loop $-1 $-1 $502 $204 #
plane-surface $-1 0 37.642353165535923 0 0 -1 0 0 0 -1 forward_v I I I I #
coedge $-1 $503 $504 $505 $506 reversed $205 $-1 #
coedge $-1 $507 $207 $508 $509 reversed $129 $-1 #
coedge $-1 $207 $507 $502 $510 reversed $129 $-1 #
coedge $-1 $349 $348 $207 $342 forward $350 $-1 #
edge $-1 $511 -37.642353165535923 $512 37.642353165535923 $341 $513 forward 7 unknown #
coedge $-1 $209 $208 $504 $514 forward $82 $-1 #
coedge $-1 $515 $505 $208 $345 forward $336 $-1 #
edge $-1 $516 25.897747934753099 $351 39.785236095481693 $344 $517 forward 7 unknown #
coedge $-1 $518 $519 $209 $347 forward $500 $-1 #
edge $-1 $352 -39.785236095481693 $520 -25.897747934753099 $346 $521 forward 7 unknown #
coedge $-1 $341 $210 $519 $522 forward $350 $-1 #
coedge $-1 $210 $341 $515 $523 reversed $350 $-1 #
loop $-1 $-1 $341 $499 #
vertex $-1 $523 $524 #
vertex $-1 $522 $525 #
straight-curve $-1 72.626728110599089 0 -2.0878341185085763 0 -1 0 I I #
face $-1 $-1 $526 $48 $-1 $527 forward single #
loop $-1 $-1 $218 $212 #
plane-surface $-1 0 37.642353165535923 0 0 -1 0 0 0 -1 forward_v I I I I #
coedge $-1 $528 $529 $530 $531 reversed $213 $-1 #
coedge $-1 $532 $215 $217 $364 forward $133 $-1 #
coedge $-1 $215 $532 $528 $533 forward $133 $-1 #
coedge $-1 $530 $218 $215 $361 forward $355 $-1 #
edge $-1 $367 15.624024028737583 $534 31.66998845304369 $360 $535 forward 7 unknown #
coedge $-1 $536 $537 $216 $363 forward $526 $-1 #
edge $-1 $538 -1.8589100900289566 $366 5.1758396737199774 $362 $539 forward 7 unknown #
edge $-1 $367 -75.284706331071874 $538 -66.476245242353372 $217 $540 forward 7 unknown #
coedge $-1 $218 $530 $536 $541 reversed $355 $-1 #
vertex $-1 $541 $542 #
vertex $-1 $219 $543 #
straight-curve $-1 -39.27103026962822 37.642353165535923 83.677628695658171 0 0 -1 I I #
coedge $-1 $369 $369 $-1 $544 reversed $222 $-1 #
edge $-1 $545 0 $545 6.2831853071796004 $223 $546 forward 7 unknown #
vertex $-1 $226 $547 #
ellipse-curve $-1 -50.732433429846864 34.124978283661463 8.6937544132639069 0 0.6018150307709319 0.79863550430605224 1 0 0 1 I I #
coedge $-1 $373 $373 $-1 $548 reversed $229 $-1 #
edge $-1 $549 0 $549 6.2831853071796004 $230 $550 forward 7 unknown #
vertex $-1 $233 $551 #
ellipse-curve $-1 -43.855591533715682 34.124978283661463 8.6937544132639069 0 0.6018150307709319 0.79863550430605224 1 0 0 1 I I #
face $-1 $-1 $389 $51 $-1 $552 reversed single #
loop $-1 $-1 $553 $234 #
plane-surface $-1 0 0 11.344286553839753 0 0 1 1 0 0 forward_v I I I I #
coedge $-1 $554 $555 $556 $557 reversed $235 $-1 #
coedge $-1 $558 $237 $239 $387 forward $147 $-1 #
coedge $-1 $237 $558 $554 $559 forward $147 $-1 #
coedge $-1 $556 $240 $237 $384 forward $389 $-1 #
edge $-1 $391 0.54267967933323646 $560 16.588644103639343 $383 $561 forward 7 unknown #
coedge $-1 $562 $563 $238 $386 forward $378 $-1 #
edge $-1 $564 -1.8589100900289566 $390 5.1758396737199774 $385 $565 forward 7 unknown #
edge $-1 $391 -75.284706331071874 $564 -66.476245242353372 $239 $566 forward 7 unknown #
coedge $-1 $240 $556 $562 $567 reversed $389 $-1 #
loop $-1 $-1 $556 $377 #
vertex $-1 $567 $568 #
vertex $-1 $241 $569 #
straight-curve $-1 -9.1083415708195261 37.642353165535923 83.677628695658171 0 0 -1 I I #
coedge $-1 $393 $393 $-1 $570 reversed $244 $-1 #
edge $-1 $571 0 $571 6.2831853071796004 $245 $572 forward 7 unknown #
vertex $-1 $248 $573 #
ellipse-curve $-1 -20.56974473103817 34.124978283661463 8.6937544132639069 0 0.6018150307709319 0.79863550430605224 1 0 0 1 I I #
coedge $-1 $397 $397 $-1 $574 reversed $251 $-1 #
edge $-1 $575 0 $575 6.2831853071796004 $252 $576 forward 7 unknown #
vertex $-1 $255 $577 #
ellipse-curve $-1 -13.692902834906988 34.124978283661463 8.6937544132639069 0 0.6018150307709319 0.79863550430605224 1 0 0 1 I I #
face $-1 $-1 $413 $54 $-1 $578 reversed single #
loop $-1 $-1 $579 $256 #
plane-surface $-1 0 0 11.344286553839753 0 0 1 1 0 0 forward_v I I I I #
coedge $-1 $580 $581 $582 $583 reversed $257 $-1 #
coedge $-1 $584 $259 $261 $411 forward $161 $-1 #
coedge $-1 $259 $584 $580 $585 forward $161 $-1 #
coedge $-1 $582 $262 $259 $408 forward $413 $-1 #
edge $-1 $415 -14.538664670071114 $586 1.5072997542349924 $407 $587 forward 7 unknown #
coedge $-1 $588 $589 $260 $410 forward $402 $-1 #
edge $-1 $590 -1.8589100900289566 $414 5.1758396737199774 $409 $591 forward 7 unknown #
edge $-1 $415 -75.284706331071874 $590 -66.476245242353372 $261 $592 forward 7 unknown #
coedge $-1 $262 $582 $588 $593 reversed $413 $-1 #
loop $-1 $-1 $582 $401 #
vertex $-1 $593 $594 #
vertex $-1 $263 $595 #
straight-curve $-1 21.054347127989175 37.642353165535923 83.677628695658171 0 0 -1 I I #
coedge $-1 $417 $417 $-1 $596 reversed $266 $-1 #
edge $-1 $597 0 $597 6.2831853071796004 $267 $598 forward 7 unknown #
vertex $-1 $270 $599 #
ellipse-curve $-1 9.5929439677705233 34.124978283661463 8.6937544132639069 0 0.6018150307709319 0.79863550430605224 1 0 0 1 I I #
coedge $-1 $421 $421 $-1 $600 reversed $273 $-1 #
edge $-1 $601 0 $601 6.2831853071796004 $274 $602 forward 7 unknown #
vertex $-1 $277 $603 #
ellipse-curve $-1 16.469785863901706 34.124978283661463 8.6937544132639069 0 0.6018150307709319 0.79863550430605224 1 0 0 1 I I #
face $-1 $-1 $437 $57 $-1 $604 reversed single #
loop $-1 $-1 $605 $278 #
plane-surface $-1 0 0 11.344286553839753 0 0 1 1 0 0 forward_v I I I I #
coedge $-1 $606 $607 $608 $609 reversed $279 $-1 #
coedge $-1 $610 $281 $283 $435 forward $175 $-1 #
coedge $-1 $281 $610 $606 $611 forward $175 $-1 #
coedge $-1 $608 $284 $281 $432 forward $437 $-1 #
edge $-1 $439 -29.620009019475461 $612 -13.574044595169354 $431 $613 forward 7 unknown #
coedge $-1 $614 $615 $282 $434 forward $426 $-1 #
edge $-1 $616 -1.8589100900289566 $438 5.1758396737199774 $433 $617 forward 7 unknown #
edge $-1 $439 -75.284706331071874 $616 -66.476245242353372 $283 $618 forward 7 unknown #
coedge $-1 $284 $608 $614 $619 reversed $437 $-1 #
loop $-1 $-1 $608 $425 #
vertex $-1 $619 $620 #
vertex $-1 $285 $621 #
straight-curve $-1 51.217035826797868 37.642353165535923 83.677628695658171 0 0 -1 I I #
coedge $-1 $441 $441 $-1 $622 reversed $288 $-1 #
edge $-1 $623 0 $623 6.2831853071796004 $289 $624 forward 7 unknown #
vertex $-1 $292 $625 #
ellipse-curve $-1 39.755632666579217 34.124978283661463 8.6937544132639069 0 0.6018150307709319 0.79863550430605224 1 0 0 1 I I #
coedge $-1 $445 $445 $-1 $626 reversed $295 $-1 #
edge $-1 $627 0 $627 6.2831853071796004 $296 $628 forward 7 unknown #
vertex $-1 $299 $629 #
ellipse-curve $-1 46.632474562710399 34.124978283661463 8.6937544132639069 0 0.6018150307709319 0.79863550430605224 1 0 0 1 I I #
face $-1 $-1 $315 $45 $-1 $630 reversed single #
loop $-1 $-1 $465 $300 #
plane-surface $-1 0 37.642353165535923 0 0 -1 0 0 0 -1 forward_v I I I I #
coedge $-1 $631 $463 $466 $632 forward $301 $-1 #
coedge $-1 $469 $303 $304 $457 reversed $189 $-1 #
coedge $-1 $463 $631 $303 $455 reversed $301 $-1 #
edge $-1 $470 -11.344286553839753 $633 11.344286553839753 $454 $634 forward 7 unknown #
coedge $-1 $305 $304 $631 $635 forward $121 $-1 #
edge $-1 $461 -72.626728110599089 $633 72.626728110599089 $453 $636 forward 7 unknown #
coedge $-1 $466 $465 $305 $459 reversed $450 $-1 #
edge $-1 $637 -72.626728110599089 $460 72.626728110599089 $458 $638 forward 7 unknown #
vertex $-1 $307 $639 #
vertex $-1 $472 $640 #
straight-curve $-1 72.626728110599089 0 -11.344286553839753 0 -1 0 I I #
coedge $-1 $452 $454 $308 $464 reversed $301 $-1 #
edge $-1 $467 -37.642353165535923 $470 37.642353165535923 $463 $641 forward 7 unknown #
coedge $-1 $458 $309 $314 $473 forward $450 $-1 #
coedge $-1 $309 $458 $452 $632 reversed $450 $-1 #
vertex $-1 $310 $642 #
straight-curve $-1 0 37.642353165535923 11.344286553839753 -1 0 0 I I #
coedge $-1 $311 $453 $313 $472 reversed $189 $-1 #
vertex $-1 $464 $643 #
straight-curve $-1 0 -37.642353165535923 11.344286553839753 1 0 0 I I #
edge $-1 $316 -11.344286553839753 $461 11.344286553839753 $313 $644 forward 7 unknown #
edge $-1 $317 -11.344286553839753 $460 11.344286553839753 $314 $645 forward 7 unknown #
point $-1 72.626728110599089 -37.642353165535923 11.344286553839753 #
point $-1 72.626728110599089 37.642353165535923 11.344286553839753 #
face $-1 $-1 $486 $46 $-1 $646 reversed single #
loop $-1 $-1 $482 $319 #
plane-surface $-1 0 0 -11.344286553839753 0 0 1 1 0 0 forward_v I I I I #
coedge $-1 $647 $648 $327 $490 forward $320 $-1 #
coedge $-1 $322 $494 $484 $649 forward $197 $-1 #
edge $-1 $488 -20.285457498480035 $332 -14.42833383563174 $322 $650 forward 7 unknown #
coedge $-1 $651 $328 $323 $483 forward $477 $-1 #
edge $-1 $333 14.42833383563174 $487 20.285457498480035 $482 $652 forward 7 unknown #
coedge $-1 $653 $325 $480 $649 reversed $486 $-1 #
coedge $-1 $325 $653 $651 $654 reversed $486 $-1 #
loop $-1 $-1 $325 $476 #
vertex $-1 $654 $655 #
vertex $-1 $326 $656 #
straight-curve $-1 -62.839198817006945 -37.642353165535923 0 0 0 1 I I #
edge $-1 $495 -11.344286553839753 $492 11.344286553839753 $479 $657 forward 7 unknown #
coedge $-1 $328 $651 $647 $658 forward $477 $-1 #
vertex $-1 $329 $659 #
straight-curve $-1 -33.866481731901509 -31.785229502687628 -11.344286553839753 1 0 0 I I #
coedge $-1 $480 $330 $648 $660 forward $197 $-1 #
vertex $-1 $660 $661 #
straight-curve $-1 -33.866481731901509 -31.785229502687628 11.344286553839753 -1 0 0 I I #
point $-1 -62.839198817006945 -31.785229502687628 11.344286553839753 #
point $-1 -62.839198817006945 -31.785229502687628 -11.344286553839753 #
face $-1 $-1 $350 $47 $-1 $662 reversed single #
loop $-1 $-1 $346 $335 #
plane-surface $-1 0 -37.642353165535923 0 0 1 0 0 0 1 forward_v I I I I #
coedge $-1 $505 $515 $340 $510 forward $336 $-1 #
coedge $-1 $663 $338 $507 $664 reversed $205 $-1 #
coedge $-1 $338 $663 $343 $514 reversed $205 $-1 #
coedge $-1 $344 $502 $338 $506 forward $336 $-1 #
edge $-1 $665 -5.6962101174793354 $516 0.50684729348739443 $505 $666 forward 7 unknown #
coedge $-1 $340 $339 $503 $664 forward $129 $-1 #
coedge $-1 $519 $518 $339 $509 forward $500 $-1 #
edge $-1 $667 25.897747934753099 $511 39.785236095481693 $508 $668 forward 7 unknown #
edge $-1 $512 -39.785236095481693 $665 -25.897747934753099 $502 $669 forward 7 unknown #
vertex $-1 $509 $670 #
vertex $-1 $342 $671 #
straight-curve $-1 72.626728110599089 0 -8.2908915294753065 0 1 0 I I #
edge $-1 $516 -37.642353165535923 $520 37.642353165535923 $504 $672 forward 7 unknown #
coedge $-1 $502 $344 $349 $523 forward $336 $-1 #
vertex $-1 $345 $673 #
straight-curve $-1 32.841492015117396 37.642353165535923 -2.0878341185085763 1 0 0 I I #
coedge $-1 $508 $346 $663 $674 forward $500 $-1 #
coedge $-1 $346 $508 $348 $522 reversed $500 $-1 #
vertex $-1 $347 $675 #
straight-curve $-1 32.841492015117396 -37.642353165535923 -2.0878341185085763 -1 0 0 I I #
edge $-1 $352 2.0878341185085763 $511 8.2908915294753065 $348 $676 forward 7 unknown #
edge $-1 $351 2.0878341185085763 $512 8.2908915294753065 $349 $677 forward 7 unknown #
point $-1 72.626728110599089 37.642353165535923 -2.0878341185085763 #
point $-1 72.626728110599089 -37.642353165535923 -2.0878341185085763 #
loop $-1 $-1 $362 $354 #
plane-surface $-1 0 0 11.344286553839753 0 0 1 1 0 0 forward_v I I I I #
coedge $-1 $529 $357 $359 $533 reversed $213 $-1 #
coedge $-1 $357 $528 $678 $679 reversed $213 $-1 #
coedge $-1 $365 $360 $357 $531 forward $355 $-1 #
edge $-1 $534 -77.634406422970102 $680 -72.33334214181842 $530 $681 forward 7 unknown #
coedge $-1 $359 $358 $537 $682 reversed $133 $-1 #
edge $-1 $683 66.476245242353372 $534 75.284706331071874 $528 $684 forward 7 unknown #
vertex $-1 $361 $685 #
straight-curve $-1 -23.647006240890637 37.642353165535923 6.0432222726880731 -1 0 0 I I #
coedge $-1 $678 $362 $365 $541 forward $526 $-1 #
coedge $-1 $362 $678 $532 $682 forward $526 $-1 #
vertex $-1 $363 $686 #
straight-curve $-1 -39.27103026962822 32.466513491815945 11.344286553839751 0 1 0 I I #
straight-curve $-1 -39.27103026962822 -22.482686241712699 51.350690129902659 0 -0.79863550430605224 0.6018150307709319 I I #
edge $-1 $366 39.27103026962822 $680 55.316994693934326 $365 $687 forward 7 unknown #
point $-1 -39.27103026962822 37.642353165535923 11.344286553839753 #
point $-1 -39.27103026962822 37.642353165535923 6.0432222726880767 #
edge $-1 $688 1 $688 0 $369 $-1 forward 7 unknown #
vertex $-1 $370 $689 #
ellipse-curve $-1 -50.732433429846864 32.046496836252381 5.9355164263929012 0 0.6018150307709319 0.79863550430605224 1 0 0 1 I I #
point $-1 -49.732433429846864 34.124978283661477 8.6937544132639299 #
edge $-1 $690 1 $690 0 $373 $-1 forward 7 unknown #
vertex $-1 $374 $691 #
ellipse-curve $-1 -43.855591533715682 32.046496836252381 5.9355164263929012 0 0.6018150307709319 0.79863550430605224 1 0 0 1 I I #
point $-1 -42.855591533715682 34.124978283661477 8.6937544132639299 #
plane-surface $-1 0 37.642353165535923 0 0 -1 0 0 0 -1 forward_v I I I I #
coedge $-1 $563 $562 $555 $692 forward $378 $-1 #
coedge $-1 $555 $380 $382 $559 reversed $235 $-1 #
coedge $-1 $380 $554 $553 $692 reversed $235 $-1 #
coedge $-1 $388 $383 $380 $557 forward $389 $-1 #
edge $-1 $560 -77.634406422970102 $693 -72.33334214181842 $556 $694 forward 7 unknown #
coedge $-1 $382 $381 $563 $695 reversed $147 $-1 #
edge $-1 $696 66.476245242353372 $560 75.284706331071874 $554 $697 forward 7 unknown #
vertex $-1 $384 $698 #
straight-curve $-1 -8.5656618914862896 37.642353165535923 6.0432222726880731 -1 0 0 I I #
coedge $-1 $553 $385 $388 $567 forward $378 $-1 #
coedge $-1 $385 $553 $558 $695 forward $378 $-1 #
vertex $-1 $386 $699 #
straight-curve $-1 -9.1083415708195261 32.466513491815945 11.344286553839751 0 1 0 I I #
straight-curve $-1 -9.1083415708195261 -22.482686241712699 51.350690129902659 0 -0.79863550430605224 0.6018150307709319 I I #
edge $-1 $390 9.1083415708195261 $693 25.154305995125632 $388 $700 forward 7 unknown #
point $-1 -9.1083415708195261 37.642353165535923 11.344286553839753 #
point $-1 -9.1083415708195261 37.642353165535923 6.0432222726880767 #
edge $-1 $701 1 $701 0 $393 $-1 forward 7 unknown #
vertex $-1 $394 $702 #
ellipse-curve $-1 -20.56974473103817 32.046496836252381 5.9355164263929012 0 0.6018150307709319 0.79863550430605224 1 0 0 1 I I #
point $-1 -19.56974473103817 34.124978283661477 8.6937544132639299 #
edge $-1 $703 1 $703 0 $397 $-1 forward 7 unknown #
vertex $-1 $398 $704 #
ellipse-curve $-1 -13.692902834906988 32.046496836252381 5.9355164263929012 0 0.6018150307709319 0.79863550430605224 1 0 0 1 I I #
point $-1 -12.692902834906988 34.124978283661477 8.6937544132639299 #
plane-surface $-1 0 37.642353165535923 0 0 -1 0 0 0 -1 forward_v I I I I #
coedge $-1 $589 $588 $581 $705 forward $402 $-1 #
coedge $-1 $581 $404 $406 $585 reversed $257 $-1 #
coedge $-1 $404 $580 $579 $705 reversed $257 $-1 #
coedge $-1 $412 $407 $404 $583 forward $413 $-1 #
edge $-1 $586 -77.634406422970102 $706 -72.33334214181842 $582 $707 forward 7 unknown #
coedge $-1 $406 $405 $589 $708 reversed $161 $-1 #
edge $-1 $709 66.476245242353372 $586 75.284706331071874 $580 $710 forward 7 unknown #
vertex $-1 $408 $711 #
straight-curve $-1 6.5156824579180608 37.642353165535923 6.0432222726880731 -1 0 0 I I #
coedge $-1 $579 $409 $412 $593 forward $402 $-1 #
coedge $-1 $409 $579 $584 $708 forward $402 $-1 #
vertex $-1 $410 $712 #
straight-curve $-1 21.054347127989175 32.466513491815945 11.344286553839751 0 1 0 I I #
straight-curve $-1 21.054347127989175 -22.482686241712699 51.350690129902659 0 -0.79863550430605224 0.6018150307709319 I I #
edge $-1 $414 -21.054347127989175 $706 -5.0083827036830684 $412 $713 forward 7 unknown #
point $-1 21.054347127989175 37.642353165535923 11.344286553839753 #
point $-1 21.054347127989175 37.642353165535923 6.0432222726880767 #
edge $-1 $714 1 $714 0 $417 $-1 forward 7 unknown #
vertex $-1 $418 $715 #
ellipse-curve $-1 9.5929439677705233 32.046496836252381 5.9355164263929012 0 0.6018150307709319 0.79863550430605224 1 0 0 1 I I #
point $-1 10.592943967770523 34.124978283661477 8.6937544132639299 #
edge $-1 $716 1 $716 0 $421 $-1 forward 7 unknown #
vertex $-1 $422 $717 #
ellipse-curve $-1 16.469785863901706 32.046496836252381 5.9355164263929012 0 0.6018150307709319 0.79863550430605224 1 0 0 1 I I #
point $-1 17.469785863901706 34.124978283661477 8.6937544132639299 #
plane-surface $-1 0 37.642353165535923 0 0 -1 0 0 0 -1 forward_v I I I I #
coedge $-1 $615 $614 $607 $718 forward $426 $-1 #
coedge $-1 $607 $428 $430 $611 reversed $279 $-1 #
coedge $-1 $428 $606 $605 $718 reversed $279 $-1 #
coedge $-1 $436 $431 $428 $609 forward $437 $-1 #
edge $-1 $612 -77.634406422970102 $719 -72.33334214181842 $608 $720 forward 7 unknown #
coedge $-1 $430 $429 $615 $721 reversed $175 $-1 #
edge $-1 $722 66.476245242353372 $612 75.284706331071874 $606 $723 forward 7 unknown #
vertex $-1 $432 $724 #
straight-curve $-1 21.597026807322408 37.642353165535923 6.0432222726880731 -1 0 0 I I #
coedge $-1 $605 $433 $436 $619 forward $426 $-1 #
coedge $-1 $433 $605 $610 $721 forward $426 $-1 #
vertex $-1 $434 $725 #
straight-curve $-1 51.217035826797868 32.466513491815945 11.344286553839751 0 1 0 I I #
straight-curve $-1 51.217035826797868 -22.482686241712699 51.350690129902659 0 -0.79863550430605224 0.6018150307709319 I I #
edge $-1 $438 -51.217035826797868 $719 -35.171071402491762 $436 $726 forward 7 unknown #
point $-1 51.217035826797868 37.642353165535923 11.344286553839753 #
point $-1 51.217035826797868 37.642353165535923 6.0432222726880767 #
edge $-1 $727 1 $727 0 $441 $-1 forward 7 unknown #
vertex $-1 $442 $728 #
ellipse-curve $-1 39.755632666579217 32.046496836252381 5.9355164263929012 0 0.6018150307709319 0.79863550430605224 1 0 0 1 I I #
point $-1 40.755632666579217 34.124978283661477 8.6937544132639299 #
edge $-1 $729 1 $729 0 $445 $-1 forward 7 unknown #
vertex $-1 $446 $730 #
ellipse-curve $-1 46.632474562710399 32.046496836252381 5.9355164263929012 0 0.6018150307709319 0.79863550430605224 1 0 0 1 I I #
point $-1 47.632474562710399 34.124978283661477 8.6937544132639299 #
plane-surface $-1 72.626728110599089 0 0 -1 0 0 0 0 1 forward_v I I I I #
coedge $-1 $454 $452 $456 $635 reversed $301 $-1 #
edge $-1 $467 -11.344286553839753 $637 11.344286553839753 $466 $731 forward 7 unknown #
vertex $-1 $635 $732 #
straight-curve $-1 -72.626728110599089 -37.642353165535923 0 0 0 -1 I I #
edge $-1 $633 -37.642353165535923 $637 37.642353165535923 $631 $733 forward 7 unknown #
straight-curve $-1 0 -37.642353165535923 -11.344286553839753 -1 0 0 I I #
vertex $-1 $459 $734 #
straight-curve $-1 0 37.642353165535923 -11.344286553839753 1 0 0 I I #
point $-1 72.626728110599089 37.642353165535923 -11.344286553839753 #
point $-1 72.626728110599089 -37.642353165535923 -11.344286553839753 #
straight-curve $-1 -72.626728110599089 0 11.344286553839753 0 -1 0 I I #
point $-1 -72.626728110599089 37.642353165535923 11.344286553839753 #
point $-1 -72.626728110599089 -37.642353165535923 11.344286553839753 #
straight-curve $-1 72.626728110599089 -37.642353165535923 0 0 0 -1 I I #
straight-curve $-1 72.626728110599089 37.642353165535923 0 0 0 -1 I I #
plane-surface $-1 0 -37.642353165535923 0 0 1 0 0 0 1 forward_v I I I I #
coedge $-1 $735 $479 $491 $658 reversed $320 $-1 #
coedge $-1 $479 $735 $494 $660 reversed $320 $-1 #
edge $-1 $736 -72.626728110599089 $488 -62.839198817006945 $484 $737 forward 7 unknown #
straight-curve $-1 -62.839198817006945 -17.356895667055888 11.344286553839753 0 1 0 I I #
coedge $-1 $491 $482 $485 $654 forward $477 $-1 #
straight-curve $-1 -62.839198817006945 -17.356895667055888 -11.344286553839753 0 -1 0 I I #
coedge $-1 $485 $484 $735 $738 forward $486 $-1 #
edge $-1 $487 62.839198817006945 $739 72.626728110599089 $485 $740 forward 7 unknown #
point $-1 -62.839198817006945 -37.642353165535923 -11.344286553839753 #
point $-1 -62.839198817006945 -37.642353165535923 11.344286553839753 #
straight-curve $-1 -72.626728110599089 -31.785229502687628 0 0 0 -1 I I #
edge $-1 $739 -37.642353165535923 $492 -31.785229502687628 $647 $741 forward 7 unknown #
point $-1 -72.626728110599089 -31.785229502687628 -11.344286553839753 #
edge $-1 $495 31.785229502687628 $736 37.642353165535923 $648 $742 forward 7 unknown #
point $-1 -72.626728110599089 -31.785229502687628 11.344286553839753 #
plane-surface $-1 72.626728110599089 0 0 -1 0 0 0 0 1 forward_v I I I I #
coedge $-1 $504 $503 $518 $674 reversed $205 $-1 #
edge $-1 $667 -37.642353165535923 $665 37.642353165535923 $503 $743 forward 7 unknown #
vertex $-1 $510 $744 #
straight-curve $-1 58.739239949870495 37.642353165535923 -2.5946814119959707 0 0 1 I I #
vertex $-1 $509 $745 #
straight-curve $-1 32.841492015117396 -37.642353165535923 -8.2908915294753065 1 0 0 I I #
straight-curve $-1 32.841492015117396 37.642353165535923 -8.2908915294753065 -1 0 0 I I #
point $-1 72.626728110599089 -37.642353165535923 -8.2908915294753065 #
point $-1 72.626728110599089 37.642353165535923 -8.2908915294753065 #
straight-curve $-1 58.739239949870495 0 -2.0878341185085763 0 -1 0 I I #
point $-1 58.739239949870495 37.642353165535923 -2.0878341185085763 #
edge $-1 $520 -0.50684729348739443 $667 5.6962101174793354 $518 $746 forward 7 unknown #
point $-1 58.739239949870495 -37.642353165535923 -2.0878341185085763 #
straight-curve $-1 72.626728110599089 -37.642353165535923 0 0 0 -1 I I #
straight-curve $-1 72.626728110599089 37.642353165535923 0 0 0 -1 I I #
coedge $-1 $537 $536 $529 $679 forward $526 $-1 #
edge $-1 $680 -5.1758396737199774 $683 1.8589100900289566 $678 $747 forward 7 unknown #
vertex $-1 $679 $748 #
straight-curve $-1 -55.316994693934326 37.642353165535923 83.677628695658171 0 0 1 I I #
edge $-1 $683 -31.66998845304369 $538 -15.624024028737583 $537 $749 forward 7 unknown #
vertex $-1 $682 $750 #
straight-curve $-1 -55.316994693934326 -22.482686241712699 51.350690129902659 0 0.79863550430605224 -0.6018150307709319 I I #
point $-1 -55.316994693934326 37.642353165535923 6.0432222726880767 #
point $-1 -39.27103026962822 30.607603401786989 11.344286553839751 #
straight-curve $-1 0 37.642353165535923 11.344286553839753 -1 0 0 I I #
vertex $-1 $544 $751 #
point $-1 -49.732433429846864 32.046496836252381 5.9355164263929012 #
vertex $-1 $548 $752 #
point $-1 -42.855591533715682 32.046496836252381 5.9355164263929012 #
edge $-1 $693 -5.1758396737199774 $696 1.8589100900289566 $553 $753 forward 7 unknown #
vertex $-1 $557 $754 #
straight-curve $-1 -25.154305995125632 37.642353165535923 83.677628695658171 0 0 1 I I #
edge $-1 $696 -16.588644103639343 $564 -0.54267967933323646 $563 $755 forward 7 unknown #
vertex $-1 $695 $756 #
straight-curve $-1 -25.154305995125632 -22.482686241712699 51.350690129902659 0 0.79863550430605224 -0.6018150307709319 I I #
point $-1 -25.154305995125632 37.642353165535923 6.0432222726880767 #
point $-1 -9.1083415708195261 30.607603401786989 11.344286553839751 #
straight-curve $-1 0 37.642353165535923 11.344286553839753 -1 0 0 I I #
vertex $-1 $570 $757 #
point $-1 -19.56974473103817 32.046496836252381 5.9355164263929012 #
vertex $-1 $574 $758 #
point $-1 -12.692902834906988 32.046496836252381 5.9355164263929012 #
edge $-1 $706 -5.1758396737199774 $709 1.8589100900289566 $579 $759 forward 7 unknown #
vertex $-1 $583 $760 #
straight-curve $-1 5.0083827036830684 37.642353165535923 83.677628695658171 0 0 1 I I #
edge $-1 $709 -1.5072997542349924 $590 14.538664670071114 $589 $761 forward 7 unknown #
vertex $-1 $708 $762 #
straight-curve $-1 5.0083827036830684 -22.482686241712699 51.350690129902659 0 0.79863550430605224 -0.6018150307709319 I I #
point $-1 5.0083827036830684 37.642353165535923 6.0432222726880767 #
point $-1 21.054347127989175 30.607603401786989 11.344286553839751 #
straight-curve $-1 0 37.642353165535923 11.344286553839753 -1 0 0 I I #
vertex $-1 $596 $763 #
point $-1 10.592943967770523 32.046496836252381 5.9355164263929012 #
vertex $-1 $600 $764 #
point $-1 17.469785863901706 32.046496836252381 5.9355164263929012 #
edge $-1 $719 -5.1758396737199774 $722 1.8589100900289566 $605 $765 forward 7 unknown #
vertex $-1 $609 $766 #
straight-curve $-1 35.171071402491762 37.642353165535923 83.677628695658171 0 0 1 I I #
edge $-1 $722 13.574044595169354 $616 29.620009019475461 $615 $767 forward 7 unknown #
vertex $-1 $721 $768 #
straight-curve $-1 35.171071402491762 -22.482686241712699 51.350690129902659 0 0.79863550430605224 -0.6018150307709319 I I #
point $-1 35.171071402491762 37.642353165535923 6.0432222726880767 #
point $-1 51.217035826797868 30.607603401786989 11.344286553839751 #
straight-curve $-1 0 37.642353165535923 11.344286553839753 -1 0 0 I I #
vertex $-1 $622 $769 #
point $-1 40.755632666579217 32.046496836252381 5.9355164263929012 #
vertex $-1 $626 $770 #
point $-1 47.632474562710399 32.046496836252381 5.9355164263929012 #
straight-curve $-1 -72.626728110599089 37.642353165535923 0 0 0 -1 I I #
point $-1 -72.626728110599089 -37.642353165535923 -11.344286553839753 #
straight-curve $-1 -72.626728110599089 0 -11.344286553839753 0 1 0 I I #
point $-1 -72.626728110599089 37.642353165535923 -11.344286553839753 #
coedge $-1 $648 $647 $653 $738 reversed $320 $-1 #
vertex $-1 $660 $771 #
straight-curve $-1 0 -37.642353165535923 11.344286553839753 1 0 0 I I #
edge $-1 $736 -11.344286553839753 $739 11.344286553839753 $735 $772 forward 7 unknown #
vertex $-1 $658 $773 #
straight-curve $-1 0 -37.642353165535923 -11.344286553839753 -1 0 0 I I #
straight-curve $-1 -72.626728110599089 0 -11.344286553839753 0 1 0 I I #
straight-curve $-1 -72.626728110599089 0 11.344286553839753 0 -1 0 I I #
straight-curve $-1 58.739239949870495 0 -8.2908915294753065 0 1 0 I I #
point $-1 58.739239949870495 37.642353165535923 -8.2908915294753065 #
point $-1 58.739239949870495 -37.642353165535923 -8.2908915294753065 #
straight-curve $-1 58.739239949870495 -37.642353165535923 -2.5946814119959707 0 0 -1 I I #
straight-curve $-1 -55.316994693934326 32.466513491815945 11.344286553839751 0 -1 0 I I #
point $-1 -55.316994693934326 37.642353165535923 11.344286553839753 #
straight-curve $-1 -23.647006240890637 30.607603401787003 11.344286553839748 1 0 0 I I #
point $-1 -55.316994693934326 30.607603401786989 11.344286553839751 #
point $-1 -50.732433429846864 31.444681805481448 5.1368809220868492 #
point $-1 -43.855591533715682 31.444681805481448 5.1368809220868492 #
straight-curve $-1 -25.154305995125632 32.466513491815945 11.344286553839751 0 -1 0 I I #
point $-1 -25.154305995125632 37.642353165535923 11.344286553839753 #
straight-curve $-1 -8.5656618914862896 30.607603401787003 11.344286553839748 1 0 0 I I #
point $-1 -25.154305995125632 30.607603401786989 11.344286553839751 #
point $-1 -20.56974473103817 31.444681805481448 5.1368809220868492 #
point $-1 -13.692902834906988 31.444681805481448 5.1368809220868492 #
straight-curve $-1 5.0083827036830684 32.466513491815945 11.344286553839751 0 -1 0 I I #
point $-1 5.0083827036830684 37.642353165535923 11.344286553839753 #
straight-curve $-1 6.5156824579180608 30.607603401787003 11.344286553839748 1 0 0 I I #
point $-1 5.0083827036830684 30.607603401786989 11.344286553839751 #
point $-1 9.5929439677705233 31.444681805481448 5.1368809220868492 #
point $-1 16.469785863901706 31.444681805481448 5.1368809220868492 #
straight-curve $-1 35.171071402491762 32.466513491815945 11.344286553839751 0 -1 0 I I #
point $-1 35.171071402491762 37.642353165535923 11.344286553839753 #
straight-curve $-1 21.597026807322408 30.607603401787003 11.344286553839748 1 0 0 I I #
point $-1 35.171071402491762 30.607603401786989 11.344286553839751 #
point $-1 39.755632666579217 31.444681805481448 5.1368809220868492 #
point $-1 46.632474562710399 31.444681805481448 5.1368809220868492 #
point $-1 -72.626728110599089 -37.642353165535923 11.344286553839753 #
straight-curve $-1 -72.626728110599089 -37.642353165535923 0 0 0 -1 I I #
point $-1 -72.626728110599089 -37.642353165535923 -11.344286553839753 #
End-of-ACIS-data 