500 0 6 0           
7 Unknown 11 ACIS 5.0 NT 24 Thu Mar 25 18:43:52 1999 
-1 9.9999999999999995e-007 1e-010 
body $-1 $6 $-1 $7 #
body $-1 $8 $-1 $9 #
body $-1 $10 $-1 $11 #
body $-1 $12 $-1 $13 #
body $-1 $14 $-1 $15 #
body $-1 $16 $-1 $17 #
lump $-1 $-1 $18 $0 #
transform $-1 1 0 0 0 1 0 0 0 1 40.543229468672749 26.888796386561538 10.302872292018112 1 rotate no_reflect no_shear #
lump $-1 $-1 $19 $1 #
transform $-1 1 0 0 0 1 0 0 0 1 40.543229468672749 26.888796386561538 10.302872292018112 1 rotate no_reflect no_shear #
lump $-1 $-1 $20 $2 #
transform $-1 1 0 0 0 1 0 0 0 1 40.543229468672749 26.888796386561538 10.302872292018112 1 rotate no_reflect no_shear #
lump $-1 $-1 $21 $3 #
transform $-1 1 0 0 0 1 0 0 0 1 40.543229468672749 26.888796386561538 10.302872292018112 1 rotate no_reflect no_shear #
lump $-1 $-1 $22 $4 #
transform $-1 1 0 0 0 1 0 0 0 1 40.543229468672749 26.888796386561538 10.302872292018112 1 rotate no_reflect no_shear #
lump $-1 $-1 $23 $5 #
transform $-1 1 0 0 0 1 0 0 0 1 40.543229468672749 26.888796386561538 10.302872292018112 1 rotate no_reflect no_shear #
shell $-1 $-1 $-1 $24 $-1 $6 #
shell $-1 $-1 $-1 $25 $-1 $8 #
shell $-1 $-1 $-1 $26 $-1 $10 #
shell $-1 $-1 $-1 $27 $-1 $12 #
shell $-1 $-1 $-1 $28 $-1 $14 #
shell $-1 $-1 $-1 $29 $-1 $16 #
face $-1 $30 $31 $18 $-1 $32 forward single #
face $-1 $33 $34 $19 $-1 $35 reversed single #
face $-1 $36 $37 $20 $-1 $38 reversed single #
face $-1 $39 $40 $21 $-1 $41 forward single #
face $-1 $42 $43 $22 $-1 $44 forward single #
face $-1 $45 $46 $23 $-1 $47 forward single #
face $-1 $48 $49 $18 $-1 $50 reversed single #
loop $-1 $-1 $51 $24 #
plane-surface $-1 0 0 10.302872292018112 0 0 1 1 0 0 forward_v I I I I #
face $-1 $52 $53 $19 $-1 $54 reversed single #
loop $-1 $-1 $55 $25 #
plane-surface $-1 -35.128651417928225 -21.692239778688268 0 0 -1 0 0 0 -1 forward_v I I I I #
face $-1 $56 $57 $20 $-1 $58 reversed single #
loop $-1 $-1 $59 $26 #
plane-surface $-1 -14.140053189924775 -85.217514236784439 62.352306527195523 -1 0 0 0 -0.71933980857756763 0.69465836192734942 forward_v I I I I #
face $-1 $60 $61 $21 $-1 $62 forward single #
loop $-1 $63 $64 $27 #
cone-surface $-1 -26.599269331731918 -24.068482746355723 7.4350633779913089 0 0.71933980857756763 -0.69465836192734942 1 0 0 1 I I 0 1 1 forward I I I I #
face $-1 $65 $66 $22 $-1 $67 forward single #
loop $-1 $68 $69 $28 #
cone-surface $-1 -21.92706327855424 -24.068482746355723 7.4350633779913089 0 0.71933980857756763 -0.69465836192734942 1 0 0 1 I I 0 1 1 forward I I I I #
face $-1 $70 $71 $23 $-1 $72 forward single #
loop $-1 $73 $74 $29 #
cone-surface $-1 -17.254857225376561 -24.068482746355723 7.4350633779913089 0 0.71933980857756763 -0.69465836192734942 1 0 0 1 I I 0 1 1 forward I I I I #
face $-1 $75 $76 $18 $-1 $77 reversed single #
loop $-1 $-1 $78 $30 #
plane-surface $-1 0 0 -10.302872292018112 0 0 1 1 0 0 forward_v I I I I #
coedge $-1 $79 $80 $81 $82 forward $31 $-1 #
face $-1 $83 $84 $19 $-1 $85 forward single #
loop $-1 $-1 $86 $33 #
plane-surface $-1 -29.714073367183701 -24.290518082624903 0 -1 0 0 0 0 1 forward_v I I I I #
coedge $-1 $87 $88 $89 $90 forward $34 $-1 #
face $-1 $91 $92 $20 $-1 $93 forward single #
loop $-1 $-1 $94 $36 #
plane-surface $-1 -21.92706327855424 -26.88879638656153 6.0249197872898179 0 -0.71933980857756763 0.69465836192734942 1 0 0 forward_v I I I I #
coedge $-1 $95 $96 $97 $98 reversed $37 $-1 #
face $-1 $-1 $99 $21 $-1 $100 forward single #
loop $-1 $101 $102 $39 #
cone-surface $-1 -26.599269331731918 -22.954084509320939 6.3589015353649749 0 0.71933980857756763 -0.69465836192734942 0.5 0 0 1 I I -0.70710678118654746 0.70710678118654746 0.5 forward I I I I #
loop $-1 $-1 $103 $27 #
coedge $-1 $64 $64 $104 $105 reversed $40 $-1 #
face $-1 $-1 $106 $22 $-1 $107 forward single #
loop $-1 $108 $109 $42 #
cone-surface $-1 -21.92706327855424 -22.954084509320939 6.3589015353649749 0 0.71933980857756763 -0.69465836192734942 0.5 0 0 1 I I -0.70710678118654746 0.70710678118654746 0.5 forward I I I I #
loop $-1 $-1 $110 $28 #
coedge $-1 $69 $69 $111 $112 reversed $43 $-1 #
face $-1 $-1 $113 $23 $-1 $114 forward single #
loop $-1 $115 $116 $45 #
cone-surface $-1 -17.254857225376561 -22.954084509320939 6.3589015353649749 0 0.71933980857756763 -0.69465836192734942 0.5 0 0 1 I I -0.70710678118654746 0.70710678118654746 0.5 forward I I I I #
loop $-1 $-1 $117 $29 #
coedge $-1 $74 $74 $118 $119 reversed $46 $-1 #
face $-1 $120 $121 $18 $-1 $122 reversed single #
loop $-1 $-1 $123 $48 #
plane-surface $-1 0 -26.888796386561538 0 0 1 0 0 0 1 forward_v I I I I #
coedge $-1 $124 $125 $126 $127 forward $49 $-1 #
coedge $-1 $128 $51 $129 $130 forward $31 $-1 #
coedge $-1 $51 $128 $131 $132 forward $31 $-1 #
coedge $-1 $133 $134 $51 $82 reversed $135 $-1 #
edge $-1 $136 -26.888796386561538 $137 26.888796386561538 $81 $138 forward 7 unknown #
face $-1 $139 $140 $19 $-1 $141 reversed single #
loop $-1 $-1 $142 $52 #
plane-surface $-1 0 0 10.302872292018112 0 0 1 1 0 0 forward_v I I I I #
coedge $-1 $143 $144 $145 $146 reversed $53 $-1 #
coedge $-1 $147 $55 $148 $149 reversed $34 $-1 #
coedge $-1 $55 $147 $150 $151 reversed $34 $-1 #
coedge $-1 $144 $143 $55 $90 reversed $53 $-1 #
edge $-1 $152 -10.302872292018112 $153 10.302872292018112 $89 $154 forward 7 unknown #
face $-1 $155 $156 $20 $-1 $157 forward single #
loop $-1 $-1 $97 $56 #
plane-surface $-1 0 0 10.302872292018112 0 0 1 1 0 0 forward_v I I I I #
coedge $-1 $158 $159 $160 $161 reversed $57 $-1 #
coedge $-1 $96 $59 $162 $163 reversed $37 $-1 #
coedge $-1 $59 $95 $158 $164 reversed $37 $-1 #
coedge $-1 $160 $165 $59 $98 forward $92 $-1 #
edge $-1 $166 15.719960731830682 $167 19.851131346750318 $97 $168 forward 7 unknown #
loop $-1 $-1 $104 $60 #
plane-surface $-1 -21.92706327855424 -26.88879638656153 6.0249197872898179 0 -0.71933980857756763 0.69465836192734942 1 0 0 forward_v I I I I #
loop $-1 $-1 $169 $39 #
coedge $-1 $102 $102 $103 $170 reversed $61 $-1 #
coedge $-1 $103 $103 $102 $170 forward $63 $-1 #
coedge $-1 $104 $104 $64 $105 forward $99 $-1 #
edge $-1 $171 -1.1024319625659993e-015 $171 6.2831853071795996 $104 $172 forward 7 unknown #
loop $-1 $-1 $111 $65 #
plane-surface $-1 -21.92706327855424 -26.88879638656153 6.0249197872898179 0 -0.71933980857756763 0.69465836192734942 1 0 0 forward_v I I I I #
loop $-1 $-1 $173 $42 #
coedge $-1 $109 $109 $110 $174 reversed $66 $-1 #
coedge $-1 $110 $110 $109 $174 forward $68 $-1 #
coedge $-1 $111 $111 $69 $112 forward $106 $-1 #
edge $-1 $175 -1.1024319625659993e-015 $175 6.2831853071795996 $111 $176 forward 7 unknown #
loop $-1 $-1 $118 $70 #
plane-surface $-1 -21.92706327855424 -26.88879638656153 6.0249197872898179 0 -0.71933980857756763 0.69465836192734942 1 0 0 forward_v I I I I #
loop $-1 $-1 $177 $45 #
coedge $-1 $116 $116 $117 $178 reversed $71 $-1 #
coedge $-1 $117 $117 $116 $178 forward $73 $-1 #
coedge $-1 $118 $118 $74 $119 forward $113 $-1 #
edge $-1 $179 -1.1024319625659993e-015 $179 6.2831853071795996 $118 $180 forward 7 unknown #
face $-1 $181 $182 $18 $-1 $183 reversed single #
loop $-1 $-1 $184 $75 #
plane-surface $-1 -40.543229468672749 0 0 1 0 0 0 0 -1 forward_v I I I I #
coedge $-1 $185 $131 $186 $187 forward $76 $-1 #
coedge $-1 $188 $78 $185 $189 forward $49 $-1 #
coedge $-1 $78 $188 $190 $191 forward $49 $-1 #
coedge $-1 $134 $133 $78 $127 reversed $135 $-1 #
edge $-1 $192 -26.888796386561538 $193 26.888796386561538 $126 $194 forward 7 unknown #
coedge $-1 $80 $79 $195 $196 forward $31 $-1 #
coedge $-1 $197 $198 $79 $130 reversed $182 $-1 #
edge $-1 $137 -40.543229468672749 $199 40.543229468672749 $129 $200 forward 7 unknown #
coedge $-1 $123 $201 $80 $132 reversed $76 $-1 #
edge $-1 $202 -40.543229468672749 $136 40.543229468672749 $131 $203 forward 7 unknown #
coedge $-1 $126 $81 $201 $204 forward $135 $-1 #
coedge $-1 $81 $126 $197 $205 reversed $135 $-1 #
loop $-1 $-1 $133 $181 #
vertex $-1 $82 $206 #
vertex $-1 $82 $207 #
straight-curve $-1 40.543229468672749 0 10.302872292018112 0 1 0 I I #
face $-1 $208 $209 $19 $-1 $210 reversed single #
loop $-1 $-1 $211 $83 #
plane-surface $-1 -40.543229468672749 0 0 1 0 0 0 0 -1 forward_v I I I I #
coedge $-1 $150 $212 $144 $213 forward $84 $-1 #
coedge $-1 $89 $86 $214 $215 reversed $53 $-1 #
coedge $-1 $86 $89 $142 $213 reversed $53 $-1 #
coedge $-1 $216 $217 $86 $146 forward $218 $-1 #
edge $-1 $219 -10.302872292018112 $220 10.302872292018112 $145 $221 forward 7 unknown #
coedge $-1 $88 $87 $211 $222 reversed $34 $-1 #
coedge $-1 $214 $223 $87 $149 forward $209 $-1 #
edge $-1 $224 -22.978903759708636 $153 -12.149747658219589 $148 $225 forward 7 unknown #
coedge $-1 $226 $142 $88 $151 forward $84 $-1 #
edge $-1 $152 12.149747658219589 $227 22.978903759708636 $150 $228 forward 7 unknown #
vertex $-1 $151 $229 #
vertex $-1 $149 $230 #
straight-curve $-1 -29.714073367183701 -21.692239778688268 0 0 0 -1 I I #
face $-1 $-1 $231 $20 $-1 $232 reversed single #
loop $-1 $-1 $233 $91 #
plane-surface $-1 -29.714073367183701 -24.290518082624903 0 -1 0 0 0 0 1 forward_v I I I I #
coedge $-1 $234 $94 $96 $164 forward $57 $-1 #
coedge $-1 $94 $234 $233 $235 reversed $57 $-1 #
coedge $-1 $236 $97 $94 $161 forward $92 $-1 #
edge $-1 $167 3.1765215506476547 $237 18.75054172790658 $160 $238 forward 7 unknown #
coedge $-1 $239 $240 $95 $163 forward $231 $-1 #
edge $-1 $241 -25.151233476307951 $166 -20.87328097157965 $162 $242 forward 7 unknown #
edge $-1 $167 -5.9470537480576473 $241 1.0047061284303404e-014 $96 $243 forward 7 unknown #
coedge $-1 $97 $236 $239 $244 forward $92 $-1 #
vertex $-1 $98 $245 #
vertex $-1 $98 $246 #
straight-curve $-1 -14.140053189924775 -42.608757118392219 10.302872292018112 0 1 0 I I #
coedge $-1 $169 $169 $-1 $247 reversed $101 $-1 #
edge $-1 $248 0 $248 6.2831853071796004 $102 $249 forward 7 unknown #
vertex $-1 $105 $250 #
ellipse-curve $-1 -26.599269331731918 -24.823211079101718 8.163896039653963 0 -0.71933980857756763 0.69465836192734942 1 0 0 1 I I #
coedge $-1 $173 $173 $-1 $251 reversed $108 $-1 #
edge $-1 $252 0 $252 6.2831853071796004 $109 $253 forward 7 unknown #
vertex $-1 $112 $254 #
ellipse-curve $-1 -21.92706327855424 -24.823211079101718 8.163896039653963 0 -0.71933980857756763 0.69465836192734942 1 0 0 1 I I #
coedge $-1 $177 $177 $-1 $255 reversed $115 $-1 #
edge $-1 $256 0 $256 6.2831853071796004 $116 $257 forward 7 unknown #
vertex $-1 $119 $258 #
ellipse-curve $-1 -17.254857225376561 -24.823211079101718 8.163896039653963 0 -0.71933980857756763 0.69465836192734942 1 0 0 1 I I #
face $-1 $-1 $135 $18 $-1 $259 reversed single #
loop $-1 $-1 $197 $120 #
plane-surface $-1 0 26.888796386561538 0 0 -1 0 0 0 -1 forward_v I I I I #
coedge $-1 $260 $195 $198 $261 forward $121 $-1 #
coedge $-1 $201 $123 $124 $189 reversed $76 $-1 #
coedge $-1 $195 $260 $123 $187 reversed $121 $-1 #
edge $-1 $202 -10.302872292018112 $262 10.302872292018112 $186 $263 forward 7 unknown #
coedge $-1 $125 $124 $260 $264 forward $49 $-1 #
edge $-1 $193 -40.543229468672749 $262 40.543229468672749 $185 $265 forward 7 unknown #
coedge $-1 $198 $197 $125 $191 reversed $182 $-1 #
edge $-1 $266 -40.543229468672749 $192 40.543229468672749 $190 $267 forward 7 unknown #
vertex $-1 $127 $268 #
vertex $-1 $204 $269 #
straight-curve $-1 40.543229468672749 0 -10.302872292018112 0 -1 0 I I #
coedge $-1 $184 $186 $128 $196 reversed $121 $-1 #
edge $-1 $199 -26.888796386561538 $202 26.888796386561538 $195 $270 forward 7 unknown #
coedge $-1 $190 $129 $134 $205 forward $182 $-1 #
coedge $-1 $129 $190 $184 $261 reversed $182 $-1 #
vertex $-1 $130 $271 #
straight-curve $-1 0 26.888796386561538 10.302872292018112 -1 0 0 I I #
coedge $-1 $131 $185 $133 $204 reversed $76 $-1 #
vertex $-1 $196 $272 #
straight-curve $-1 0 -26.888796386561538 10.302872292018112 1 0 0 I I #
edge $-1 $136 -10.302872292018112 $193 10.302872292018112 $133 $273 forward 7 unknown #
edge $-1 $137 -10.302872292018112 $192 10.302872292018112 $134 $274 forward 7 unknown #
point $-1 40.543229468672749 -26.888796386561538 10.302872292018112 #
point $-1 40.543229468672749 26.888796386561538 10.302872292018112 #
face $-1 $-1 $218 $19 $-1 $275 reversed single #
loop $-1 $-1 $214 $139 #
plane-surface $-1 0 0 -10.302872292018112 0 0 1 1 0 0 forward_v I I I I #
coedge $-1 $276 $277 $147 $222 forward $140 $-1 #
coedge $-1 $142 $226 $216 $278 forward $84 $-1 #
edge $-1 $220 -14.743537345249086 $152 -9.5469807373758169 $142 $279 forward 7 unknown #
coedge $-1 $280 $148 $143 $215 forward $209 $-1 #
edge $-1 $153 9.5469807373758169 $219 14.743537345249086 $214 $281 forward 7 unknown #
coedge $-1 $282 $145 $212 $278 reversed $218 $-1 #
coedge $-1 $145 $282 $280 $283 reversed $218 $-1 #
loop $-1 $-1 $145 $208 #
vertex $-1 $283 $284 #
vertex $-1 $146 $285 #
straight-curve $-1 -29.714073367183701 -26.888796386561538 0 0 0 1 I I #
edge $-1 $227 -10.302872292018112 $224 10.302872292018112 $211 $286 forward 7 unknown #
coedge $-1 $148 $280 $276 $287 forward $209 $-1 #
vertex $-1 $149 $288 #
straight-curve $-1 -17.564325708964112 -21.692239778688268 -10.302872292018112 1 0 0 I I #
coedge $-1 $212 $150 $277 $289 forward $84 $-1 #
vertex $-1 $289 $290 #
straight-curve $-1 -17.564325708964112 -21.692239778688268 10.302872292018112 -1 0 0 I I #
point $-1 -29.714073367183701 -21.692239778688268 10.302872292018112 #
point $-1 -29.714073367183701 -21.692239778688268 -10.302872292018112 #
loop $-1 $-1 $162 $155 #
plane-surface $-1 0 -26.888796386561538 0 0 1 0 0 0 1 forward_v I I I I #
coedge $-1 $291 $292 $159 $235 forward $156 $-1 #
coedge $-1 $159 $158 $240 $293 reversed $57 $-1 #
edge $-1 $237 -7.2115781960777801 $294 -1.2645244480201256 $233 $295 forward 7 unknown #
coedge $-1 $165 $160 $292 $296 forward $92 $-1 #
vertex $-1 $296 $297 #
straight-curve $-1 -10.96353163927712 -22.757625771641905 10.302872292018112 -1 0 0 I I #
coedge $-1 $298 $162 $165 $244 reversed $231 $-1 #
coedge $-1 $162 $298 $234 $293 forward $231 $-1 #
vertex $-1 $163 $299 #
straight-curve $-1 -14.140053189924775 -26.888796386561538 31.176153263597762 0 0 1 I I #
straight-curve $-1 -14.140053189924775 -26.88879638656153 6.0249197872898179 0 -0.69465836192734942 -0.71933980857756763 I I #
edge $-1 $300 -29.714073367183701 $166 -14.140053189924775 $239 $301 forward 7 unknown #
point $-1 -14.140053189924775 -26.888796386561538 10.302872292018112 #
point $-1 -14.140053189924775 -22.757625771641901 10.302872292018112 #
edge $-1 $302 1 $302 0 $169 $-1 forward 7 unknown #
vertex $-1 $170 $303 #
ellipse-curve $-1 -26.599269331731918 -23.313754413609722 6.7062307163286494 0 -0.71933980857756763 0.69465836192734942 1 0 0 1 I I #
point $-1 -25.599269331731918 -24.823211079101725 8.1638960396539684 #
edge $-1 $304 1 $304 0 $173 $-1 forward 7 unknown #
vertex $-1 $174 $305 #
ellipse-curve $-1 -21.92706327855424 -23.313754413609722 6.7062307163286494 0 -0.71933980857756763 0.69465836192734942 1 0 0 1 I I #
point $-1 -20.92706327855424 -24.823211079101725 8.1638960396539684 #
edge $-1 $306 1 $306 0 $177 $-1 forward 7 unknown #
vertex $-1 $178 $307 #
ellipse-curve $-1 -17.254857225376561 -23.313754413609722 6.7062307163286494 0 -0.71933980857756763 0.69465836192734942 1 0 0 1 I I #
point $-1 -16.254857225376561 -24.823211079101725 8.1638960396539684 #
plane-surface $-1 40.543229468672749 0 0 -1 0 0 0 0 1 forward_v I I I I #
coedge $-1 $186 $184 $188 $264 reversed $121 $-1 #
edge $-1 $199 -10.302872292018112 $266 10.302872292018112 $198 $308 forward 7 unknown #
vertex $-1 $264 $309 #
straight-curve $-1 -40.543229468672749 -26.888796386561538 0 0 0 -1 I I #
edge $-1 $262 -26.888796386561538 $266 26.888796386561538 $260 $310 forward 7 unknown #
straight-curve $-1 0 -26.888796386561538 -10.302872292018112 -1 0 0 I I #
vertex $-1 $191 $311 #
straight-curve $-1 0 26.888796386561538 -10.302872292018112 1 0 0 I I #
point $-1 40.543229468672749 26.888796386561538 -10.302872292018112 #
point $-1 40.543229468672749 -26.888796386561538 -10.302872292018112 #
straight-curve $-1 -40.543229468672749 0 10.302872292018112 0 -1 0 I I #
point $-1 -40.543229468672749 26.888796386561538 10.302872292018112 #
point $-1 -40.543229468672749 -26.888796386561538 10.302872292018112 #
straight-curve $-1 40.543229468672749 -26.888796386561538 0 0 0 -1 I I #
straight-curve $-1 40.543229468672749 26.888796386561538 0 0 0 -1 I I #
plane-surface $-1 0 -26.888796386561538 0 0 1 0 0 0 1 forward_v I I I I #
coedge $-1 $312 $211 $223 $287 reversed $140 $-1 #
coedge $-1 $211 $312 $226 $289 reversed $140 $-1 #
edge $-1 $313 -40.543229468672749 $220 -29.714073367183701 $216 $314 forward 7 unknown #
straight-curve $-1 -29.714073367183701 -12.145259041312451 10.302872292018112 0 1 0 I I #
coedge $-1 $223 $214 $217 $283 forward $209 $-1 #
straight-curve $-1 -29.714073367183701 -12.145259041312451 -10.302872292018112 0 -1 0 I I #
coedge $-1 $217 $216 $312 $315 forward $218 $-1 #
edge $-1 $219 29.714073367183701 $316 40.543229468672749 $217 $317 forward 7 unknown #
point $-1 -29.714073367183701 -26.888796386561538 -10.302872292018112 #
point $-1 -29.714073367183701 -26.888796386561538 10.302872292018112 #
straight-curve $-1 -40.543229468672749 -21.692239778688268 0 0 0 -1 I I #
edge $-1 $316 -26.888796386561538 $224 -21.692239778688268 $276 $318 forward 7 unknown #
point $-1 -40.543229468672749 -21.692239778688268 -10.302872292018112 #
edge $-1 $227 21.692239778688268 $313 26.888796386561538 $277 $319 forward 7 unknown #
point $-1 -40.543229468672749 -21.692239778688268 10.302872292018112 #
coedge $-1 $292 $233 $298 $320 reversed $156 $-1 #
coedge $-1 $233 $291 $236 $296 reversed $156 $-1 #
edge $-1 $294 -18.75054172790658 $241 -3.1765215506476547 $240 $321 forward 7 unknown #
vertex $-1 $235 $322 #
straight-curve $-1 -29.714073367183701 -27.767208868240285 5.1152970129093607 0 -0.69465836192734942 -0.71933980857756763 I I #
edge $-1 $237 10.612366730329454 $300 14.743537345249086 $236 $323 forward 7 unknown #
point $-1 -29.714073367183701 -22.757625771641905 10.302872292018112 #
coedge $-1 $240 $239 $291 $320 forward $231 $-1 #
point $-1 -14.140053189924775 -26.888796386561538 6.0249197872898108 #
vertex $-1 $244 $324 #
straight-curve $-1 0 -26.888796386561538 10.302872292018112 1 0 0 I I #
vertex $-1 $247 $325 #
point $-1 -25.599269331731918 -23.313754413609722 6.7062307163286494 #
vertex $-1 $251 $326 #
point $-1 -20.92706327855424 -23.313754413609722 6.7062307163286494 #
vertex $-1 $255 $327 #
point $-1 -16.254857225376561 -23.313754413609722 6.7062307163286494 #
straight-curve $-1 -40.543229468672749 26.888796386561538 0 0 0 -1 I I #
point $-1 -40.543229468672749 -26.888796386561538 -10.302872292018112 #
straight-curve $-1 -40.543229468672749 0 -10.302872292018112 0 1 0 I I #
point $-1 -40.543229468672749 26.888796386561538 -10.302872292018112 #
coedge $-1 $277 $276 $282 $315 reversed $140 $-1 #
vertex $-1 $289 $328 #
straight-curve $-1 0 -26.888796386561538 10.302872292018112 1 0 0 I I #
edge $-1 $313 -10.302872292018112 $316 10.302872292018112 $312 $329 forward 7 unknown #
vertex $-1 $287 $330 #
straight-curve $-1 0 -26.888796386561538 -10.302872292018112 -1 0 0 I I #
straight-curve $-1 -40.543229468672749 0 -10.302872292018112 0 1 0 I I #
straight-curve $-1 -40.543229468672749 0 10.302872292018112 0 -1 0 I I #
edge $-1 $300 -10.302872292018112 $294 -6.0249197872898108 $298 $331 forward 7 unknown #
straight-curve $-1 -10.96353163927712 -26.888796386561538 6.0249197872898117 1 0 0 I I #
point $-1 -29.714073367183701 -26.888796386561538 6.0249197872898108 #
straight-curve $-1 -29.714073367183701 -12.145259041312451 10.302872292018112 0 -1 0 I I #
point $-1 -29.714073367183701 -26.888796386561538 10.302872292018112 #
point $-1 -26.599269331731918 -22.594414605032156 6.0115723544013004 #
point $-1 -21.92706327855424 -22.594414605032156 6.0115723544013004 #
point $-1 -17.254857225376561 -22.594414605032156 6.0115723544013004 #
point $-1 -40.543229468672749 -26.888796386561538 10.302872292018112 #
straight-curve $-1 -40.543229468672749 -26.888796386561538 0 0 0 -1 I I #
point $-1 -40.543229468672749 -26.888796386561538 -10.302872292018112 #
straight-curve $-1 -29.714073367183701 -26.888796386561538 0 0 0 -1 I I #
End-of-ACIS-data 