500 0 11 0           
7 Unknown 11 ACIS 5.0 NT 24 Fri Mar 26 15:14:24 1999 
-1 9.9999999999999995e-007 1e-010 
body $-1 $11 $-1 $12 #
body $-1 $13 $-1 $14 #
body $-1 $15 $-1 $16 #
body $-1 $17 $-1 $18 #
body $-1 $19 $-1 $20 #
body $-1 $21 $-1 $22 #
body $-1 $23 $-1 $24 #
body $-1 $25 $-1 $26 #
body $-1 $27 $-1 $28 #
body $-1 $29 $-1 $30 #
body $-1 $31 $-1 $32 #
lump $-1 $-1 $33 $0 #
transform $-1 1 0 0 0 1 0 0 0 1 65.915097506637778 31.065409078806621 12.052813672868085 1 rotate no_reflect no_shear #
lump $-1 $-1 $34 $1 #
transform $-1 1 0 0 0 1 0 0 0 1 65.915097506637778 31.065409078806621 12.052813672868085 1 rotate no_reflect no_shear #
lump $-1 $-1 $35 $2 #
transform $-1 1 0 0 0 1 0 0 0 1 65.915097506637778 31.065409078806621 12.052813672868085 1 rotate no_reflect no_shear #
lump $-1 $-1 $36 $3 #
transform $-1 1 0 0 0 1 0 0 0 1 65.915097506637778 31.065409078806621 12.052813672868085 1 rotate no_reflect no_shear #
lump $-1 $-1 $37 $4 #
transform $-1 1 0 0 0 1 0 0 0 1 65.915097506637778 31.065409078806621 12.052813672868085 1 rotate no_reflect no_shear #
lump $-1 $-1 $38 $5 #
transform $-1 1 0 0 0 1 0 0 0 1 65.915097506637778 31.065409078806621 12.052813672868085 1 rotate no_reflect no_shear #
lump $-1 $-1 $39 $6 #
transform $-1 1 0 0 0 1 0 0 0 1 65.915097506637778 31.065409078806621 12.052813672868085 1 rotate no_reflect no_shear #
lump $-1 $-1 $40 $7 #
transform $-1 1 0 0 0 1 0 0 0 1 65.915097506637778 31.065409078806621 12.052813672868085 1 rotate no_reflect no_shear #
lump $-1 $-1 $41 $8 #
transform $-1 1 0 0 0 1 0 0 0 1 65.915097506637778 31.065409078806621 12.052813672868085 1 rotate no_reflect no_shear #
lump $-1 $-1 $42 $9 #
transform $-1 1 0 0 0 1 0 0 0 1 65.915097506637778 31.065409078806621 12.052813672868085 1 rotate no_reflect no_shear #
lump $-1 $-1 $43 $10 #
transform $-1 1 0 0 0 1 0 0 0 1 65.915097506637778 31.065409078806621 12.052813672868085 1 rotate no_reflect no_shear #
shell $-1 $-1 $-1 $44 $-1 $11 #
shell $-1 $-1 $-1 $45 $-1 $13 #
shell $-1 $-1 $-1 $46 $-1 $15 #
shell $-1 $-1 $-1 $47 $-1 $17 #
shell $-1 $-1 $-1 $48 $-1 $19 #
shell $-1 $-1 $-1 $49 $-1 $21 #
shell $-1 $-1 $-1 $50 $-1 $23 #
shell $-1 $-1 $-1 $51 $-1 $25 #
shell $-1 $-1 $-1 $52 $-1 $27 #
shell $-1 $-1 $-1 $53 $-1 $29 #
shell $-1 $-1 $-1 $54 $-1 $31 #
face $-1 $55 $56 $33 $-1 $57 reversed single #
face $-1 $58 $59 $34 $-1 $60 reversed single #
face $-1 $61 $62 $35 $-1 $63 forward single #
face $-1 $64 $65 $36 $-1 $66 reversed single #
face $-1 $67 $68 $37 $-1 $69 forward single #
face $-1 $70 $71 $38 $-1 $72 forward single #
face $-1 $73 $74 $39 $-1 $75 reversed single #
face $-1 $76 $77 $40 $-1 $78 forward single #
face $-1 $79 $80 $41 $-1 $81 forward single #
face $-1 $82 $83 $42 $-1 $84 reversed single #
face $-1 $85 $86 $43 $-1 $87 forward single #
face $-1 $88 $89 $33 $-1 $90 forward single #
loop $-1 $-1 $91 $44 #
plane-surface $-1 65.915097506637778 0 0 -1 0 0 0 0 1 forward_v I I I I #
face $-1 $92 $93 $34 $-1 $94 reversed single #
loop $-1 $-1 $95 $45 #
plane-surface $-1 -61.341424942613031 0 6.7498993506454195 0 0 1 1 0 0 forward_v I I I I #
face $-1 $96 $97 $35 $-1 $98 reversed single #
loop $-1 $-1 $99 $46 #
plane-surface $-1 65.915097506637778 0 0 -1 0 0 0 0 1 forward_v I I I I #
face $-1 $100 $101 $36 $-1 $102 reversed single #
loop $-1 $-1 $103 $47 #
plane-surface $-1 -47.969466326788897 114.16829971946029 120.91603826118923 1 0 0 0 -0.86602541151947299 -0.49999998660252726 forward_v I I I I #
face $-1 $104 $105 $37 $-1 $106 forward single #
loop $-1 $107 $108 $48 #
cone-surface $-1 -43.433515239078801 25.309347636283395 5.1099705339310066 0 -0.86602541151947299 -0.49999998660252726 2 0 0 1 I I 0 1 2 forward I I I I #
face $-1 $109 $110 $38 $-1 $111 forward single #
loop $-1 $112 $113 $49 #
cone-surface $-1 -36.629588607513654 25.309347636283395 5.1099705339310066 0 -0.86602541151947299 -0.49999998660252726 2 0 0 1 I I 0 1 2 forward I I I I #
face $-1 $114 $115 $39 $-1 $116 reversed single #
loop $-1 $-1 $117 $50 #
plane-surface $-1 8.97732920665851 114.16829971946029 120.91603826118923 1 0 0 0 -0.86602541151947299 -0.49999998660252726 forward_v I I I I #
face $-1 $118 $119 $40 $-1 $120 forward single #
loop $-1 $121 $122 $51 #
cone-surface $-1 13.513280294368599 25.309347636283395 5.1099705339310066 0 -0.86602541151947299 -0.49999998660252726 2 0 0 1 I I 0 1 2 forward I I I I #
face $-1 $123 $124 $41 $-1 $125 forward single #
loop $-1 $126 $127 $52 #
cone-surface $-1 20.317206925933746 25.309347636283395 5.1099705339310066 0 -0.86602541151947299 -0.49999998660252726 2 0 0 1 I I 0 1 2 forward I I I I #
face $-1 $128 $129 $42 $-1 $130 reversed single #
loop $-1 $-1 $131 $53 #
plane-surface $-1 -31.439488920067348 -140.35759500647205 79.196003095649488 -1 0 0 0 -0.82903758062907751 0.55919289150049634 forward_v I I I I #
face $-1 $132 $133 $43 $-1 $134 forward single #
loop $-1 $135 $136 $54 #
cone-surface $-1 -44.103620649327816 -27.216687421576793 7.6649180406229664 0 0.82903758062907751 -0.55919289150049634 1 0 0 1 I I 0 1 1 forward I I I I #
face $-1 $137 $138 $33 $-1 $139 reversed single #
loop $-1 $-1 $140 $55 #
plane-surface $-1 0 0 12.052813672868085 0 0 1 1 0 0 forward_v I I I I #
coedge $-1 $141 $142 $143 $144 reversed $56 $-1 #
face $-1 $145 $146 $34 $-1 $147 reversed single #
loop $-1 $-1 $148 $58 #
plane-surface $-1 -56.767752378588284 0 9.4013565117567506 -1 0 0 0 0 1 forward_v I I I I #
coedge $-1 $149 $150 $148 $151 forward $59 $-1 #
face $-1 $152 $153 $35 $-1 $154 reversed single #
loop $-1 $-1 $155 $61 #
plane-surface $-1 0 0 -12.052813672868085 0 0 1 1 0 0 forward_v I I I I #
coedge $-1 $156 $157 $158 $159 forward $62 $-1 #
face $-1 $160 $161 $36 $-1 $162 reversed single #
loop $-1 $-1 $163 $64 #
plane-surface $-1 -40.031551923296227 8.3239595483064477e-007 55.000942520742896 0 0.86602541151947299 0.49999998660252726 1 0 0 forward_v I I I I #
coedge $-1 $164 $165 $166 $167 reversed $65 $-1 #
face $-1 $-1 $168 $37 $-1 $169 forward single #
loop $-1 $170 $171 $67 #
cone-surface $-1 -43.433515239078801 21.821908472630756 3.096496665948278 0 -0.86602541151947299 -0.49999998660252726 1 0 0 1 I I -0.70710678118654746 0.70710678118654746 1 forward I I I I #
loop $-1 $-1 $172 $48 #
coedge $-1 $108 $108 $173 $174 reversed $68 $-1 #
face $-1 $-1 $175 $38 $-1 $176 forward single #
loop $-1 $177 $178 $70 #
cone-surface $-1 -36.629588607513654 21.821908472630756 3.096496665948278 0 -0.86602541151947299 -0.49999998660252726 1 0 0 1 I I -0.70710678118654746 0.70710678118654746 1 forward I I I I #
loop $-1 $-1 $179 $49 #
coedge $-1 $113 $113 $180 $181 reversed $71 $-1 #
face $-1 $182 $183 $39 $-1 $184 reversed single #
loop $-1 $-1 $185 $73 #
plane-surface $-1 16.91524361015118 8.3239595483064477e-007 55.000942520742896 0 0.86602541151947299 0.49999998660252726 1 0 0 forward_v I I I I #
coedge $-1 $186 $187 $188 $189 reversed $74 $-1 #
face $-1 $-1 $190 $40 $-1 $191 forward single #
loop $-1 $192 $193 $76 #
cone-surface $-1 13.513280294368599 21.821908472630756 3.096496665948278 0 -0.86602541151947299 -0.49999998660252726 1 0 0 1 I I -0.70710678118654746 0.70710678118654746 1 forward I I I I #
loop $-1 $-1 $194 $51 #
coedge $-1 $122 $122 $195 $196 reversed $77 $-1 #
face $-1 $-1 $197 $41 $-1 $198 forward single #
loop $-1 $199 $200 $79 #
cone-surface $-1 20.317206925933746 21.821908472630756 3.096496665948278 0 -0.86602541151947299 -0.49999998660252726 1 0 0 1 I I -0.70710678118654746 0.70710678118654746 1 forward I I I I #
loop $-1 $-1 $201 $52 #
coedge $-1 $127 $127 $202 $203 reversed $80 $-1 #
face $-1 $204 $205 $42 $-1 $206 forward single #
loop $-1 $-1 $207 $82 #
plane-surface $-1 -44.103620649327816 -31.06540907880661 5.4774951591016219 0 -0.82903758062907751 0.55919289150049634 1 0 0 forward_v I I I I #
coedge $-1 $208 $209 $210 $211 reversed $83 $-1 #
face $-1 $-1 $212 $43 $-1 $213 forward single #
loop $-1 $214 $215 $85 #
cone-surface $-1 -44.103620649327816 -25.171001074209521 6.2850852195108384 0 0.82903758062907751 -0.55919289150049634 0.5 0 0 1 I I -0.70710678118654746 0.70710678118654746 0.5 forward I I I I #
loop $-1 $-1 $216 $54 #
coedge $-1 $136 $136 $217 $218 reversed $86 $-1 #
face $-1 $219 $220 $33 $-1 $221 reversed single #
loop $-1 $-1 $143 $88 #
plane-surface $-1 0 0 -12.052813672868085 0 0 1 1 0 0 forward_v I I I I #
coedge $-1 $222 $223 $224 $225 forward $89 $-1 #
coedge $-1 $224 $91 $226 $227 reversed $56 $-1 #
coedge $-1 $91 $224 $228 $229 forward $56 $-1 #
coedge $-1 $230 $231 $91 $144 forward $138 $-1 #
edge $-1 $232 -31.065409078806621 $233 31.065409078806621 $91 $234 forward 7 unknown #
face $-1 $235 $236 $34 $-1 $237 reversed single #
loop $-1 $-1 $238 $92 #
plane-surface $-1 0 31.065409078806621 0 0 -1 0 0 0 -1 forward_v I I I I #
coedge $-1 $239 $240 $95 $151 reversed $93 $-1 #
coedge $-1 $241 $95 $242 $243 reversed $59 $-1 #
coedge $-1 $95 $241 $244 $245 reversed $59 $-1 #
edge $-1 $246 -31.065409078806621 $247 31.065409078806621 $148 $248 forward 7 unknown #
face $-1 $249 $250 $35 $-1 $251 reversed single #
loop $-1 $-1 $158 $96 #
plane-surface $-1 70.309726915803424 -10.486793946079359 0 0 1 0 0 0 1 forward_v I I I I #
coedge $-1 $252 $253 $157 $254 forward $97 $-1 #
coedge $-1 $255 $99 $256 $257 reversed $62 $-1 #
coedge $-1 $99 $255 $155 $254 reversed $62 $-1 #
coedge $-1 $258 $259 $99 $159 reversed $153 $-1 #
edge $-1 $260 -12.052813672868085 $261 12.052813672868085 $158 $262 forward 7 unknown #
face $-1 $263 $264 $36 $-1 $265 reversed single #
loop $-1 $-1 $266 $100 #
plane-surface $-1 -32.093637519803558 114.16829971946029 120.91603826118923 -1 0 0 0 0.86602541151947299 0.49999998660252726 forward_v I I I I #
coedge $-1 $267 $268 $269 $270 reversed $101 $-1 #
coedge $-1 $165 $103 $271 $272 reversed $65 $-1 #
coedge $-1 $103 $164 $267 $273 reversed $65 $-1 #
coedge $-1 $269 $274 $103 $167 forward $275 $-1 #
edge $-1 $276 26.018740780923526 $277 32.288036161703616 $166 $278 forward 7 unknown #
loop $-1 $-1 $173 $104 #
plane-surface $-1 -40.031551923296227 8.3239595483064477e-007 55.000942520742896 0 0.86602541151947299 0.49999998660252726 1 0 0 forward_v I I I I #
loop $-1 $-1 $279 $67 #
coedge $-1 $171 $171 $172 $280 reversed $105 $-1 #
coedge $-1 $172 $172 $171 $280 forward $107 $-1 #
coedge $-1 $173 $173 $108 $174 forward $168 $-1 #
edge $-1 $281 -1.2175457420571751e-015 $281 6.2831853071795996 $173 $282 forward 7 unknown #
loop $-1 $-1 $180 $109 #
plane-surface $-1 -40.031551923296227 8.3239595483064477e-007 55.000942520742896 0 0.86602541151947299 0.49999998660252726 1 0 0 forward_v I I I I #
loop $-1 $-1 $283 $70 #
coedge $-1 $178 $178 $179 $284 reversed $110 $-1 #
coedge $-1 $179 $179 $178 $284 forward $112 $-1 #
coedge $-1 $180 $180 $113 $181 forward $175 $-1 #
edge $-1 $285 -1.2175457420571751e-015 $285 6.2831853071795996 $180 $286 forward 7 unknown #
face $-1 $287 $288 $39 $-1 $289 forward single #
loop $-1 $-1 $290 $114 #
plane-surface $-1 24.853158013643849 114.16829971946029 120.91603826118923 -1 0 0 0 0.86602541151947299 0.49999998660252726 forward_v I I I I #
coedge $-1 $291 $292 $293 $294 reversed $115 $-1 #
coedge $-1 $187 $117 $295 $296 reversed $74 $-1 #
coedge $-1 $117 $186 $291 $297 reversed $74 $-1 #
coedge $-1 $293 $298 $117 $189 forward $288 $-1 #
edge $-1 $299 26.018740780923526 $300 32.288036161703616 $188 $301 forward 7 unknown #
loop $-1 $-1 $195 $118 #
plane-surface $-1 16.91524361015118 8.3239595483064477e-007 55.000942520742896 0 0.86602541151947299 0.49999998660252726 1 0 0 forward_v I I I I #
loop $-1 $-1 $302 $76 #
coedge $-1 $193 $193 $194 $303 reversed $119 $-1 #
coedge $-1 $194 $194 $193 $303 forward $121 $-1 #
coedge $-1 $195 $195 $122 $196 forward $190 $-1 #
edge $-1 $304 -1.2175457420571751e-015 $304 6.2831853071795996 $195 $305 forward 7 unknown #
loop $-1 $-1 $202 $123 #
plane-surface $-1 16.91524361015118 8.3239595483064477e-007 55.000942520742896 0 0.86602541151947299 0.49999998660252726 1 0 0 forward_v I I I I #
loop $-1 $-1 $306 $79 #
coedge $-1 $200 $200 $201 $307 reversed $124 $-1 #
coedge $-1 $201 $201 $200 $307 forward $126 $-1 #
coedge $-1 $202 $202 $127 $203 forward $197 $-1 #
edge $-1 $308 -1.2175457420571751e-015 $308 6.2831853071795996 $202 $309 forward 7 unknown #
face $-1 $310 $311 $42 $-1 $312 reversed single #
loop $-1 $-1 $313 $128 #
plane-surface $-1 -56.767752378588284 0 9.4013565117567506 -1 0 0 0 0 1 forward_v I I I I #
coedge $-1 $314 $315 $316 $317 reversed $129 $-1 #
coedge $-1 $209 $131 $318 $319 reversed $83 $-1 #
coedge $-1 $131 $208 $314 $320 reversed $83 $-1 #
coedge $-1 $316 $321 $131 $211 forward $322 $-1 #
edge $-1 $323 39.113388424429402 $324 43.548496624783603 $210 $325 forward 7 unknown #
loop $-1 $-1 $217 $132 #
plane-surface $-1 -44.103620649327816 -31.06540907880661 5.4774951591016219 0 -0.82903758062907751 0.55919289150049634 1 0 0 forward_v I I I I #
loop $-1 $-1 $326 $85 #
coedge $-1 $215 $215 $216 $327 reversed $133 $-1 #
coedge $-1 $216 $216 $215 $327 forward $135 $-1 #
coedge $-1 $217 $217 $136 $218 forward $212 $-1 #
edge $-1 $328 -5.1398565825151937e-016 $328 6.2831853071795996 $217 $329 forward 7 unknown #
face $-1 $330 $331 $33 $-1 $332 reversed single #
loop $-1 $-1 $333 $137 #
plane-surface $-1 0 -31.065409078806621 0 0 1 0 0 0 1 forward_v I I I I #
coedge $-1 $334 $140 $335 $336 forward $89 $-1 #
coedge $-1 $140 $334 $337 $338 forward $89 $-1 #
coedge $-1 $142 $141 $140 $225 reversed $56 $-1 #
edge $-1 $339 -31.065409078806621 $340 31.065409078806621 $224 $341 forward 7 unknown #
coedge $-1 $342 $335 $141 $227 forward $343 $-1 #
edge $-1 $340 -12.052813672868085 $232 12.052813672868085 $141 $344 forward 7 unknown #
coedge $-1 $337 $345 $142 $229 reversed $220 $-1 #
edge $-1 $339 -12.052813672868085 $233 12.052813672868085 $142 $346 forward 7 unknown #
coedge $-1 $347 $143 $345 $348 forward $138 $-1 #
coedge $-1 $143 $347 $342 $349 forward $138 $-1 #
vertex $-1 $144 $350 #
vertex $-1 $229 $351 #
straight-curve $-1 65.915097506637778 0 -12.052813672868085 0 -1 0 I I #
face $-1 $352 $353 $34 $-1 $354 forward single #
loop $-1 $-1 $355 $145 #
plane-surface $-1 -65.915097506637778 0 0 1 0 0 0 0 -1 forward_v I I I I #
coedge $-1 $244 $356 $239 $357 forward $146 $-1 #
coedge $-1 $358 $148 $238 $357 reversed $93 $-1 #
coedge $-1 $148 $358 $359 $360 reversed $93 $-1 #
coedge $-1 $150 $149 $355 $361 reversed $59 $-1 #
coedge $-1 $359 $362 $149 $243 forward $363 $-1 #
edge $-1 $364 -35.244385035331263 $247 -26.097039907281768 $242 $365 forward 7 unknown #
coedge $-1 $366 $238 $150 $245 forward $146 $-1 #
edge $-1 $246 26.097039907281768 $367 35.244385035331263 $244 $368 forward 7 unknown #
vertex $-1 $245 $369 #
vertex $-1 $243 $370 #
straight-curve $-1 -56.767752378588284 0 6.7498993506454195 0 -1 0 I I #
face $-1 $371 $372 $35 $-1 $373 reversed single #
loop $-1 $-1 $374 $152 #
plane-surface $-1 70.309726915803424 -6.9597817330704501 0 0 -1 0 0 0 -1 forward_v I I I I #
coedge $-1 $375 $155 $376 $377 forward $97 $-1 #
coedge $-1 $155 $375 $258 $378 forward $97 $-1 #
edge $-1 $260 -10.486793946079359 $379 -6.9597817330704501 $155 $380 forward 7 unknown #
coedge $-1 $157 $156 $381 $382 forward $62 $-1 #
coedge $-1 $383 $384 $156 $257 forward $385 $-1 #
edge $-1 $386 6.9597817330704501 $261 10.486793946079359 $256 $387 forward 7 unknown #
coedge $-1 $388 $158 $253 $378 reversed $153 $-1 #
coedge $-1 $158 $388 $383 $389 reversed $153 $-1 #
vertex $-1 $254 $390 #
vertex $-1 $389 $391 #
straight-curve $-1 65.915097506637778 -10.486793946079359 0 0 0 1 I I #
face $-1 $-1 $275 $36 $-1 $392 forward single #
loop $-1 $-1 $393 $160 #
plane-surface $-1 0 31.065409078806621 0 0 -1 0 0 0 -1 forward_v I I I I #
coedge $-1 $394 $395 $396 $397 reversed $161 $-1 #
coedge $-1 $398 $163 $165 $273 forward $101 $-1 #
coedge $-1 $163 $398 $394 $399 forward $101 $-1 #
coedge $-1 $396 $166 $163 $270 forward $275 $-1 #
edge $-1 $277 -27.953690365140783 $400 -12.077861558155444 $269 $401 forward 7 unknown #
coedge $-1 $402 $403 $164 $272 forward $264 $-1 #
edge $-1 $404 -59.263943972840252 $276 -48.405205457726531 $271 $405 forward 7 unknown #
edge $-1 $277 49.592227060082173 $404 62.13081815761322 $165 $406 forward 7 unknown #
coedge $-1 $166 $396 $402 $407 forward $275 $-1 #
loop $-1 $-1 $396 $263 #
vertex $-1 $272 $408 #
vertex $-1 $167 $409 #
straight-curve $-1 -47.969466326788897 57.084149859730147 12.052813672868083 0 -1 0 I I #
coedge $-1 $279 $279 $-1 $410 reversed $170 $-1 #
edge $-1 $411 0 $411 6.2831853071796004 $171 $412 forward 7 unknown #
vertex $-1 $174 $413 #
ellipse-curve $-1 -43.433515239078801 27.930761388416581 6.6234444153112202 0 0.86602541151947299 0.49999998660252726 2 0 0 1 I I #
coedge $-1 $283 $283 $-1 $414 reversed $177 $-1 #
edge $-1 $415 0 $415 6.2831853071796004 $178 $416 forward 7 unknown #
vertex $-1 $181 $417 #
ellipse-curve $-1 -36.629588607513654 27.930761388416581 6.6234444153112202 0 0.86602541151947299 0.49999998660252726 2 0 0 1 I I #
face $-1 $-1 $418 $39 $-1 $419 reversed single #
loop $-1 $-1 $188 $182 #
plane-surface $-1 0 0 12.052813672868085 0 0 1 1 0 0 forward_v I I I I #
coedge $-1 $420 $421 $422 $423 reversed $183 $-1 #
coedge $-1 $424 $185 $187 $297 forward $115 $-1 #
coedge $-1 $185 $424 $420 $425 forward $115 $-1 #
coedge $-1 $422 $188 $185 $294 forward $288 $-1 #
edge $-1 $300 0.51970740158292017 $426 16.395536208568259 $293 $427 forward 7 unknown #
coedge $-1 $428 $429 $186 $296 forward $418 $-1 #
edge $-1 $430 -59.263943972840252 $299 -48.405205457726531 $295 $431 forward 7 unknown #
edge $-1 $300 49.592227060082173 $430 62.13081815761322 $187 $432 forward 7 unknown #
coedge $-1 $188 $422 $428 $433 forward $288 $-1 #
vertex $-1 $296 $434 #
vertex $-1 $189 $435 #
straight-curve $-1 8.97732920665851 57.084149859730147 12.052813672868083 0 -1 0 I I #
coedge $-1 $302 $302 $-1 $436 reversed $192 $-1 #
edge $-1 $437 0 $437 6.2831853071796004 $193 $438 forward 7 unknown #
vertex $-1 $196 $439 #
ellipse-curve $-1 13.513280294368599 27.930761388416581 6.6234444153112202 0 0.86602541151947299 0.49999998660252726 2 0 0 1 I I #
coedge $-1 $306 $306 $-1 $440 reversed $199 $-1 #
edge $-1 $441 0 $441 6.2831853071796004 $200 $442 forward 7 unknown #
vertex $-1 $203 $443 #
ellipse-curve $-1 20.317206925933746 27.930761388416581 6.6234444153112202 0 0.86602541151947299 0.49999998660252726 2 0 0 1 I I #
face $-1 $-1 $322 $42 $-1 $444 forward single #
loop $-1 $-1 $445 $204 #
plane-surface $-1 0 -31.065409078806621 0 0 1 0 0 0 1 forward_v I I I I #
coedge $-1 $446 $447 $315 $448 reversed $205 $-1 #
coedge $-1 $449 $207 $209 $320 forward $129 $-1 #
coedge $-1 $207 $449 $313 $448 forward $129 $-1 #
coedge $-1 $450 $210 $207 $317 forward $322 $-1 #
edge $-1 $324 9.3876785954034396 $451 34.71594205392438 $316 $452 forward 7 unknown #
coedge $-1 $453 $454 $208 $319 forward $311 $-1 #
edge $-1 $455 -34.120506388723136 $323 -27.54518787495666 $318 $456 forward 7 unknown #
edge $-1 $324 -7.9312671311921505 $455 1.9213955892398137e-014 $209 $457 forward 7 unknown #
coedge $-1 $210 $450 $453 $458 forward $322 $-1 #
loop $-1 $-1 $316 $310 #
vertex $-1 $319 $459 #
vertex $-1 $211 $460 #
straight-curve $-1 -31.439488920067348 -70.178797503236027 12.052813672868083 0 1 0 I I #
coedge $-1 $326 $326 $-1 $461 reversed $214 $-1 #
edge $-1 $462 0 $462 6.2831853071796004 $215 $463 forward 7 unknown #
vertex $-1 $218 $464 #
ellipse-curve $-1 -44.103620649327816 -28.847854978629524 8.7651544159848456 0 -0.82903758062907751 0.55919289150049634 1 0 0 1 I I #
face $-1 $-1 $343 $33 $-1 $465 reversed single #
loop $-1 $-1 $466 $219 #
plane-surface $-1 -65.915097506637778 0 0 1 0 0 0 0 -1 forward_v I I I I #
coedge $-1 $345 $337 $467 $468 forward $220 $-1 #
coedge $-1 $223 $222 $469 $470 forward $89 $-1 #
coedge $-1 $226 $471 $222 $336 reversed $343 $-1 #
edge $-1 $340 -65.915097506637778 $472 65.915097506637778 $335 $473 forward 7 unknown #
coedge $-1 $333 $228 $223 $338 reversed $220 $-1 #
edge $-1 $474 -65.915097506637778 $339 65.915097506637778 $337 $475 forward 7 unknown #
vertex $-1 $225 $476 #
vertex $-1 $225 $477 #
straight-curve $-1 65.915097506637778 0 12.052813672868085 0 1 0 I I #
coedge $-1 $471 $226 $231 $349 reversed $343 $-1 #
loop $-1 $-1 $226 $330 #
straight-curve $-1 65.915097506637778 31.065409078806621 0 0 0 -1 I I #
coedge $-1 $228 $333 $230 $348 reversed $220 $-1 #
straight-curve $-1 65.915097506637778 -31.065409078806621 0 0 0 -1 I I #
coedge $-1 $231 $230 $478 $479 forward $138 $-1 #
edge $-1 $233 -65.915097506637778 $480 65.915097506637778 $345 $481 forward 7 unknown #
edge $-1 $482 -65.915097506637778 $232 65.915097506637778 $342 $483 forward 7 unknown #
point $-1 65.915097506637778 31.065409078806621 -12.052813672868085 #
point $-1 65.915097506637778 -31.065409078806621 -12.052813672868085 #
face $-1 $-1 $363 $34 $-1 $484 reversed single #
loop $-1 $-1 $485 $235 #
plane-surface $-1 0 0 12.052813672868085 0 0 1 1 0 0 forward_v I I I I #
coedge $-1 $486 $487 $241 $361 forward $236 $-1 #
coedge $-1 $238 $366 $488 $489 reversed $146 $-1 #
edge $-1 $490 -7.3521354169897064 $246 -2.0492210947670442 $238 $491 forward 7 unknown #
coedge $-1 $240 $239 $485 $492 reversed $93 $-1 #
coedge $-1 $493 $242 $240 $360 forward $363 $-1 #
edge $-1 $247 2.0492210947670442 $494 7.3521354169897064 $359 $495 forward 7 unknown #
edge $-1 $367 -31.065409078806621 $364 31.065409078806621 $355 $496 forward 7 unknown #
coedge $-1 $242 $493 $486 $497 forward $363 $-1 #
loop $-1 $-1 $359 $352 #
vertex $-1 $361 $498 #
straight-curve $-1 -30.670712471306516 -31.065409078806621 6.7498993506454195 1 0 0 I I #
coedge $-1 $356 $244 $487 $499 reversed $146 $-1 #
vertex $-1 $361 $500 #
straight-curve $-1 -30.670712471306516 31.065409078806621 6.7498993506454195 -1 0 0 I I #
point $-1 -56.767752378588284 31.065409078806621 6.7498993506454195 #
point $-1 -56.767752378588284 -31.065409078806621 6.7498993506454195 #
face $-1 $-1 $385 $35 $-1 $501 forward single #
loop $-1 $-1 $502 $249 #
plane-surface $-1 74.704356324969055 -8.7232878395749047 0 -1 0 0 0 0 1 forward_v I I I I #
coedge $-1 $376 $503 $504 $505 forward $250 $-1 #
coedge $-1 $253 $252 $506 $507 forward $97 $-1 #
coedge $-1 $381 $374 $252 $377 reversed $250 $-1 #
edge $-1 $379 -4.3946294091656313 $508 4.3946294091656313 $376 $509 forward 7 unknown #
edge $-1 $510 -4.3946294091656313 $260 4.3946294091656313 $258 $511 forward 7 unknown #
vertex $-1 $377 $512 #
straight-curve $-1 65.915097506637778 0 -12.052813672868085 0 1 0 I I #
coedge $-1 $503 $376 $255 $382 reversed $250 $-1 #
edge $-1 $386 -12.052813672868085 $379 12.052813672868085 $381 $513 forward 7 unknown #
coedge $-1 $514 $256 $259 $389 forward $385 $-1 #
coedge $-1 $256 $514 $503 $515 forward $385 $-1 #
loop $-1 $-1 $256 $371 #
vertex $-1 $257 $516 #
straight-curve $-1 65.915097506637778 0 12.052813672868085 0 -1 0 I I #
coedge $-1 $259 $258 $502 $517 reversed $153 $-1 #
edge $-1 $261 -4.3946294091656313 $518 4.3946294091656313 $259 $519 forward 7 unknown #
point $-1 65.915097506637792 -10.486793946079359 -12.052813672868085 #
point $-1 65.915097506637792 -10.486793946079359 12.052813672868085 #
plane-surface $-1 0 0 12.052813672868085 0 0 1 1 0 0 forward_v I I I I #
coedge $-1 $403 $402 $395 $520 forward $264 $-1 #
coedge $-1 $395 $266 $268 $399 reversed $161 $-1 #
coedge $-1 $266 $394 $393 $520 reversed $161 $-1 #
coedge $-1 $274 $269 $266 $397 forward $275 $-1 #
edge $-1 $400 -32.288036161703616 $521 -26.018740780923526 $396 $522 forward 7 unknown #
coedge $-1 $268 $267 $403 $523 reversed $101 $-1 #
edge $-1 $524 -62.13081815761322 $400 -49.592227060082173 $394 $525 forward 7 unknown #
vertex $-1 $270 $526 #
straight-curve $-1 -20.015775961648114 24.796113698026534 12.052813672868087 1 0 0 I I #
coedge $-1 $393 $271 $274 $407 reversed $264 $-1 #
coedge $-1 $271 $393 $398 $523 forward $264 $-1 #
vertex $-1 $272 $527 #
straight-curve $-1 -47.969466326788897 31.065409078806624 60.458019130594614 0 0 1 I I #
straight-curve $-1 -47.969466326788897 8.3239595483064477e-007 55.000942520742896 0 0.49999998660252726 -0.86602541151947299 I I #
edge $-1 $521 32.093637519803558 $276 47.969466326788897 $402 $528 forward 7 unknown #
point $-1 -47.969466326788897 31.065409078806621 12.052813672868085 #
point $-1 -47.969466326788897 24.796113698026534 12.052813672868083 #
edge $-1 $529 1 $529 0 $279 $-1 forward 7 unknown #
vertex $-1 $280 $530 #
ellipse-curve $-1 -43.433515239078801 22.68793388415023 3.5964966525508051 0 0.86602541151947299 0.49999998660252726 2 0 0 1 I I #
point $-1 -41.433515239078801 27.930761388416556 6.6234444153112086 #
edge $-1 $531 1 $531 0 $283 $-1 forward 7 unknown #
vertex $-1 $284 $532 #
ellipse-curve $-1 -36.629588607513654 22.68793388415023 3.5964966525508051 0 0.86602541151947299 0.49999998660252726 2 0 0 1 I I #
point $-1 -34.629588607513654 27.930761388416556 6.6234444153112086 #
loop $-1 $-1 $295 $287 #
plane-surface $-1 0 31.065409078806621 0 0 -1 0 0 0 -1 forward_v I I I I #
coedge $-1 $421 $290 $292 $425 reversed $183 $-1 #
coedge $-1 $290 $420 $533 $534 reversed $183 $-1 #
coedge $-1 $298 $293 $290 $423 forward $288 $-1 #
edge $-1 $426 -32.288036161703616 $535 -26.018740780923526 $422 $536 forward 7 unknown #
coedge $-1 $292 $291 $429 $537 reversed $115 $-1 #
edge $-1 $538 -62.13081815761322 $426 -49.592227060082173 $420 $539 forward 7 unknown #
vertex $-1 $294 $540 #
straight-curve $-1 8.4576218050755898 24.796113698026534 12.052813672868087 1 0 0 I I #
coedge $-1 $533 $295 $298 $433 reversed $418 $-1 #
coedge $-1 $295 $533 $424 $537 forward $418 $-1 #
vertex $-1 $296 $541 #
straight-curve $-1 8.97732920665851 31.065409078806624 60.458019130594614 0 0 1 I I #
straight-curve $-1 8.97732920665851 8.3239595483064477e-007 55.000942520742896 0 0.49999998660252726 -0.86602541151947299 I I #
edge $-1 $535 -24.853158013643849 $299 -8.97732920665851 $428 $542 forward 7 unknown #
point $-1 8.97732920665851 31.065409078806621 12.052813672868085 #
point $-1 8.97732920665851 24.796113698026534 12.052813672868083 #
edge $-1 $543 1 $543 0 $302 $-1 forward 7 unknown #
vertex $-1 $303 $544 #
ellipse-curve $-1 13.513280294368599 22.68793388415023 3.5964966525508051 0 0.86602541151947299 0.49999998660252726 2 0 0 1 I I #
point $-1 15.513280294368599 27.930761388416556 6.6234444153112086 #
edge $-1 $545 1 $545 0 $306 $-1 forward 7 unknown #
vertex $-1 $307 $546 #
ellipse-curve $-1 20.317206925933746 22.68793388415023 3.5964966525508051 0 0.86602541151947299 0.49999998660252726 2 0 0 1 I I #
point $-1 22.317206925933746 27.930761388416556 6.6234444153112086 #
plane-surface $-1 0 0 12.052813672868085 0 0 1 1 0 0 forward_v I I I I #
coedge $-1 $454 $453 $446 $547 forward $311 $-1 #
coedge $-1 $447 $313 $445 $547 reversed $205 $-1 #
coedge $-1 $313 $446 $450 $548 reversed $205 $-1 #
edge $-1 $549 -1.9213955892398137e-014 $451 7.9312671311921505 $313 $550 forward 7 unknown #
coedge $-1 $315 $314 $454 $551 reversed $129 $-1 #
coedge $-1 $321 $316 $447 $548 forward $322 $-1 #
vertex $-1 $548 $552 #
straight-curve $-1 -22.051810324663908 -26.630300878452427 12.052813672868085 -1 0 0 I I #
coedge $-1 $445 $318 $321 $458 reversed $311 $-1 #
coedge $-1 $318 $445 $449 $551 forward $311 $-1 #
vertex $-1 $319 $553 #
straight-curve $-1 -31.439488920067348 -31.065409078806624 39.598001547824744 0 0 1 I I #
straight-curve $-1 -31.439488920067348 -31.06540907880661 5.4774951591016219 0 -0.55919289150049634 -0.82903758062907751 I I #
edge $-1 $554 -56.767752378588284 $323 -31.439488920067348 $453 $555 forward 7 unknown #
point $-1 -31.439488920067348 -31.065409078806621 12.052813672868085 #
point $-1 -31.439488920067348 -26.630300878452424 12.052813672868085 #
edge $-1 $556 1 $556 0 $326 $-1 forward 7 unknown #
vertex $-1 $327 $557 #
ellipse-curve $-1 -44.103620649327816 -25.585519864524059 6.5646816652610864 0 -0.82903758062907751 0.55919289150049634 1 0 0 1 I I #
point $-1 -43.103620649327816 -28.847854978629528 8.7651544159848473 #
plane-surface $-1 0 31.065409078806621 0 0 -1 0 0 0 -1 forward_v I I I I #
coedge $-1 $478 $469 $471 $558 forward $331 $-1 #
coedge $-1 $469 $478 $333 $468 reversed $331 $-1 #
edge $-1 $474 -12.052813672868085 $480 12.052813672868085 $467 $559 forward 7 unknown #
coedge $-1 $466 $467 $334 $470 reversed $331 $-1 #
edge $-1 $472 -31.065409078806621 $474 31.065409078806621 $469 $560 forward 7 unknown #
coedge $-1 $335 $342 $466 $558 reversed $343 $-1 #
vertex $-1 $336 $561 #
straight-curve $-1 0 31.065409078806621 12.052813672868085 -1 0 0 I I #
vertex $-1 $470 $562 #
straight-curve $-1 0 -31.065409078806621 12.052813672868085 1 0 0 I I #
point $-1 65.915097506637778 -31.065409078806621 12.052813672868085 #
point $-1 65.915097506637778 31.065409078806621 12.052813672868085 #
coedge $-1 $467 $466 $347 $479 reversed $331 $-1 #
edge $-1 $480 -31.065409078806621 $482 31.065409078806621 $478 $563 forward 7 unknown #
vertex $-1 $479 $564 #
straight-curve $-1 0 -31.065409078806621 -12.052813672868085 -1 0 0 I I #
vertex $-1 $349 $565 #
straight-curve $-1 0 31.065409078806621 -12.052813672868085 1 0 0 I I #
plane-surface $-1 0 -31.065409078806621 0 0 1 0 0 0 1 forward_v I I I I #
coedge $-1 $488 $566 $358 $492 forward $353 $-1 #
coedge $-1 $567 $355 $362 $497 reversed $236 $-1 #
coedge $-1 $355 $567 $366 $499 forward $236 $-1 #
coedge $-1 $568 $485 $356 $489 forward $353 $-1 #
edge $-1 $490 56.767752378588284 $569 65.915097506637778 $356 $570 forward 7 unknown #
vertex $-1 $489 $571 #
straight-curve $-1 -56.767752378588284 31.065409078806621 4.7006782558783753 0 0 -1 I I #
edge $-1 $494 -31.065409078806621 $490 31.065409078806621 $485 $572 forward 7 unknown #
coedge $-1 $362 $359 $566 $573 reversed $363 $-1 #
vertex $-1 $360 $574 #
straight-curve $-1 -56.767752378588284 -31.065409078806621 4.7006782558783753 0 0 1 I I #
straight-curve $-1 -65.915097506637778 0 6.7498993506454195 0 -1 0 I I #
edge $-1 $575 -12.052813672868085 $364 -6.7498993506454195 $486 $576 forward 7 unknown #
point $-1 -65.915097506637778 -31.065409078806621 6.7498993506454195 #
edge $-1 $569 -12.052813672868085 $367 -6.7498993506454195 $366 $577 forward 7 unknown #
point $-1 -65.915097506637778 31.065409078806621 6.7498993506454195 #
plane-surface $-1 0 0 12.052813672868085 0 0 1 1 0 0 forward_v I I I I #
coedge $-1 $506 $578 $388 $517 forward $372 $-1 #
coedge $-1 $374 $381 $384 $515 reversed $250 $-1 #
coedge $-1 $578 $506 $374 $505 reversed $372 $-1 #
edge $-1 $579 -12.052813672868085 $508 12.052813672868085 $504 $580 forward 7 unknown #
coedge $-1 $504 $502 $375 $507 reversed $372 $-1 #
edge $-1 $508 -1.7635061065044546 $510 1.7635061065044546 $506 $581 forward 7 unknown #
vertex $-1 $507 $582 #
straight-curve $-1 70.309726915803424 -6.9597817330704501 -12.052813672868085 1 0 0 I I #
vertex $-1 $517 $583 #
straight-curve $-1 70.309726915803424 -10.486793946079359 -12.052813672868085 -1 0 0 I I #
point $-1 65.915097506637792 -6.9597817330704501 -12.052813672868085 #
straight-curve $-1 65.915097506637778 -6.9597817330704501 0 0 0 -1 I I #
coedge $-1 $384 $383 $578 $584 forward $385 $-1 #
edge $-1 $579 -4.3946294091656313 $386 4.3946294091656313 $503 $585 forward 7 unknown #
point $-1 65.915097506637792 -6.9597817330704501 12.052813672868085 #
edge $-1 $518 -12.052813672868085 $510 12.052813672868085 $502 $586 forward 7 unknown #
vertex $-1 $584 $587 #
straight-curve $-1 70.309726915803424 -10.486793946079359 12.052813672868085 1 0 0 I I #
edge $-1 $521 48.405205457726531 $524 59.263943972840252 $393 $588 forward 7 unknown #
vertex $-1 $407 $589 #
straight-curve $-1 -32.093637519803558 57.084149859730147 12.052813672868083 0 1 0 I I #
edge $-1 $524 12.077861558155444 $404 27.953690365140783 $403 $590 forward 7 unknown #
vertex $-1 $523 $591 #
straight-curve $-1 -32.093637519803558 8.3239595483064477e-007 55.000942520742896 0 -0.49999998660252726 0.86602541151947299 I I #
point $-1 -32.093637519803558 24.796113698026534 12.052813672868083 #
point $-1 -47.969466326788897 31.065409078806621 1.1940751577543622 #
straight-curve $-1 0 31.065409078806621 12.052813672868085 -1 0 0 I I #
vertex $-1 $410 $592 #
point $-1 -41.433515239078801 22.68793388415023 3.5964966525508051 #
vertex $-1 $414 $593 #
point $-1 -34.629588607513654 22.68793388415023 3.5964966525508051 #
coedge $-1 $429 $428 $421 $534 forward $418 $-1 #
edge $-1 $535 48.405205457726531 $538 59.263943972840252 $533 $594 forward 7 unknown #
vertex $-1 $433 $595 #
straight-curve $-1 24.853158013643849 57.084149859730147 12.052813672868083 0 1 0 I I #
edge $-1 $538 -16.395536208568259 $430 -0.51970740158292017 $429 $596 forward 7 unknown #
vertex $-1 $537 $597 #
straight-curve $-1 24.853158013643849 8.3239595483064477e-007 55.000942520742896 0 -0.49999998660252726 0.86602541151947299 I I #
point $-1 24.853158013643849 24.796113698026534 12.052813672868083 #
point $-1 8.97732920665851 31.065409078806621 1.1940751577543622 #
straight-curve $-1 0 31.065409078806621 12.052813672868085 -1 0 0 I I #
vertex $-1 $436 $598 #
point $-1 15.513280294368599 22.68793388415023 3.5964966525508051 #
vertex $-1 $440 $599 #
point $-1 22.317206925933746 22.68793388415023 3.5964966525508051 #
edge $-1 $554 27.54518787495666 $549 34.120506388723136 $445 $600 forward 7 unknown #
edge $-1 $451 26.630300878452424 $554 31.065409078806621 $450 $601 forward 7 unknown #
vertex $-1 $547 $602 #
straight-curve $-1 -56.767752378588284 -31.06540907880661 5.4774951591016219 0 0.55919289150049634 0.82903758062907751 I I #
edge $-1 $549 -34.71594205392438 $455 -9.3876785954034396 $454 $603 forward 7 unknown #
point $-1 -56.767752378588284 -26.630300878452424 12.052813672868085 #
point $-1 -31.439488920067348 -31.065409078806621 5.4774951591016059 #
vertex $-1 $458 $604 #
straight-curve $-1 0 -31.065409078806621 12.052813672868085 1 0 0 I I #
vertex $-1 $461 $605 #
point $-1 -43.103620649327816 -25.585519864524059 6.5646816652610864 #
edge $-1 $472 -12.052813672868085 $482 12.052813672868085 $471 $606 forward 7 unknown #
straight-curve $-1 -65.915097506637778 -31.065409078806621 0 0 0 -1 I I #
straight-curve $-1 -65.915097506637778 0 12.052813672868085 0 -1 0 I I #
point $-1 -65.915097506637778 31.065409078806621 12.052813672868085 #
point $-1 -65.915097506637778 -31.065409078806621 12.052813672868085 #
straight-curve $-1 -65.915097506637778 0 -12.052813672868085 0 1 0 I I #
point $-1 -65.915097506637778 -31.065409078806621 -12.052813672868085 #
point $-1 -65.915097506637778 31.065409078806621 -12.052813672868085 #
coedge $-1 $485 $568 $493 $573 forward $353 $-1 #
coedge $-1 $487 $486 $568 $607 reversed $236 $-1 #
coedge $-1 $566 $488 $567 $607 forward $353 $-1 #
vertex $-1 $489 $608 #
straight-curve $-1 0 31.065409078806621 12.052813672868085 -1 0 0 I I #
point $-1 -56.767752378588284 31.065409078806621 12.052813672868082 #
straight-curve $-1 -56.767752378588284 0 12.052813672868085 0 1 0 I I #
edge $-1 $575 -65.915097506637778 $494 -56.767752378588284 $493 $609 forward 7 unknown #
point $-1 -56.767752378588284 -31.065409078806621 12.052813672868082 #
vertex $-1 $607 $610 #
straight-curve $-1 -65.915097506637778 -31.065409078806621 0 0 0 -1 I I #
straight-curve $-1 -65.915097506637778 31.065409078806621 0 0 0 -1 I I #
coedge $-1 $502 $504 $514 $584 reversed $372 $-1 #
vertex $-1 $584 $611 #
straight-curve $-1 74.704356324969055 -6.9597817330704501 0 0 0 -1 I I #
straight-curve $-1 74.704356324969055 -8.7232878395749047 -12.052813672868085 0 -1 0 I I #
point $-1 74.704356324969055 -6.9597817330704501 -12.052813672868085 #
point $-1 74.704356324969055 -10.486793946079359 -12.052813672868085 #
edge $-1 $518 -1.7635061065044546 $579 1.7635061065044546 $578 $612 forward 7 unknown #
straight-curve $-1 70.309726915803424 -6.9597817330704501 12.052813672868085 -1 0 0 I I #
straight-curve $-1 74.704356324969055 -10.486793946079359 0 0 0 -1 I I #
point $-1 74.704356324969055 -10.486793946079359 12.052813672868085 #
straight-curve $-1 -32.093637519803558 31.065409078806624 60.458019130594614 0 0 -1 I I #
point $-1 -32.093637519803558 31.065409078806621 12.052813672868085 #
straight-curve $-1 -20.015775961648114 31.065409078806624 1.1940751577543622 -1 0 0 I I #
point $-1 -32.093637519803558 31.065409078806621 1.1940751577543622 #
point $-1 -43.433515239078801 20.955883061111283 2.5964966793457509 #
point $-1 -36.629588607513654 20.955883061111283 2.5964966793457509 #
straight-curve $-1 24.853158013643849 31.065409078806624 60.458019130594614 0 0 -1 I I #
point $-1 24.853158013643849 31.065409078806621 12.052813672868085 #
straight-curve $-1 8.4576218050755898 31.065409078806624 1.1940751577543622 -1 0 0 I I #
point $-1 24.853158013643849 31.065409078806621 1.1940751577543622 #
point $-1 13.513280294368599 20.955883061111283 2.5964966793457509 #
point $-1 20.317206925933746 20.955883061111283 2.5964966793457509 #
straight-curve $-1 -56.767752378588284 -31.065409078806624 39.598001547824744 0 0 -1 I I #
straight-curve $-1 -56.767752378588284 0 12.052813672868085 0 -1 0 I I #
point $-1 -56.767752378588284 -31.065409078806621 5.4774951591016059 #
straight-curve $-1 -22.051810324663908 -31.065409078806621 5.4774951591016112 1 0 0 I I #
point $-1 -56.767752378588284 -31.065409078806621 12.052813672868082 #
point $-1 -44.103620649327816 -24.756482283894982 6.0054887737605904 #
straight-curve $-1 -65.915097506637778 31.065409078806621 0 0 0 -1 I I #
edge $-1 $569 -31.065409078806621 $575 31.065409078806621 $567 $613 forward 7 unknown #
point $-1 -65.915097506637778 31.065409078806621 12.052813672868085 #
straight-curve $-1 0 -31.065409078806621 12.052813672868085 1 0 0 I I #
point $-1 -65.915097506637778 -31.065409078806621 12.052813672868085 #
point $-1 74.704356324969055 -6.9597817330704501 12.052813672868085 #
straight-curve $-1 74.704356324969055 -8.7232878395749047 12.052813672868085 0 1 0 I I #
straight-curve $-1 -65.915097506637778 0 12.052813672868085 0 -1 0 I I #
End-of-ACIS-data 