500 0 4 0           
7 Unknown 11 ACIS 5.0 NT 24 Fri Mar 26 15:07:52 1999 
-1 9.9999999999999995e-007 1e-010 
body $-1 $4 $-1 $5 #
body $-1 $6 $-1 $7 #
body $-1 $8 $-1 $9 #
body $-1 $10 $-1 $11 #
lump $-1 $-1 $12 $0 #
transform $-1 1 0 0 0 1 0 0 0 1 69.141514328440195 36.064494094457928 13.037126956946429 1 rotate no_reflect no_shear #
lump $-1 $-1 $13 $1 #
transform $-1 1 0 0 0 1 0 0 0 1 69.141514328440195 36.064494094457928 13.037126956946429 1 rotate no_reflect no_shear #
lump $-1 $-1 $14 $2 #
transform $-1 1 0 0 0 1 0 0 0 1 69.141514328440195 36.064494094457928 13.037126956946429 1 rotate no_reflect no_shear #
lump $-1 $-1 $15 $3 #
transform $-1 1 0 0 0 1 0 0 0 1 69.141514328440195 36.064494094457928 13.037126956946429 1 rotate no_reflect no_shear #
shell $-1 $-1 $-1 $16 $-1 $4 #
shell $-1 $-1 $-1 $17 $-1 $6 #
shell $-1 $-1 $-1 $18 $-1 $8 #
shell $-1 $-1 $-1 $19 $-1 $10 #
face $-1 $20 $21 $12 $-1 $22 forward single #
face $-1 $23 $24 $13 $-1 $25 forward single #
face $-1 $26 $27 $14 $-1 $28 reversed single #
face $-1 $29 $30 $15 $-1 $31 forward single #
face $-1 $32 $33 $12 $-1 $34 reversed single #
loop $-1 $-1 $35 $16 #
plane-surface $-1 0 0 13.037126956946429 0 0 1 1 0 0 forward_v I I I I #
face $-1 $36 $37 $13 $-1 $38 reversed single #
loop $-1 $-1 $39 $17 #
plane-surface $-1 -69.141514328440195 0 0 1 0 0 0 0 -1 forward_v I I I I #
face $-1 $40 $41 $14 $-1 $42 reversed single #
loop $-1 $-1 $43 $18 #
plane-surface $-1 69.141516597455308 15.905490800434293 197.55188362008295 0 1 0 0.70710678939079041 0 0.70710677298230451 forward_v I I I I #
face $-1 $44 $45 $15 $-1 $46 forward single #
loop $-1 $47 $48 $19 #
cone-surface $-1 62.164088822957581 25.98499244744611 6.0597013570294047 -0.70710678939079041 0 -0.70710677298230451 1.0606601594734568 0 -1.0606601840861856 1 I I 0 1 1.5 forward I I I I #
face $-1 $49 $50 $12 $-1 $51 reversed single #
loop $-1 $-1 $52 $20 #
plane-surface $-1 0 0 -13.037126956946429 0 0 1 1 0 0 forward_v I I I I #
coedge $-1 $53 $54 $55 $56 forward $21 $-1 #
face $-1 $57 $58 $13 $-1 $59 forward single #
loop $-1 $-1 $60 $23 #
plane-surface $-1 0 36.064494094457928 0 0 -1 0 0 0 -1 forward_v I I I I #
coedge $-1 $61 $62 $63 $64 forward $24 $-1 #
face $-1 $65 $66 $14 $-1 $67 forward single #
loop $-1 $-1 $68 $26 #
plane-surface $-1 -28.639351823346047 25.98499244744611 99.771017468296719 0.70710678939079041 0 0.70710677298230451 0.70710677298230451 0 -0.70710678939079041 forward_v I I I I #
coedge $-1 $69 $70 $71 $72 reversed $27 $-1 #
face $-1 $-1 $73 $15 $-1 $74 forward single #
loop $-1 $75 $76 $29 #
cone-surface $-1 60.179822051984246 25.98499244744611 4.0754346321011869 -0.70710678939079041 0 -0.70710677298230451 0.53033007973672841 0 -0.53033009204309278 1 I I -0.70710678118654757 0.70710678118654757 0.75 forward I I I I #
loop $-1 $-1 $77 $19 #
coedge $-1 $48 $48 $78 $79 reversed $30 $-1 #
face $-1 $80 $81 $12 $-1 $82 reversed single #
loop $-1 $-1 $83 $32 #
plane-surface $-1 0 -36.064494094457928 0 0 1 0 0 0 1 forward_v I I I I #
coedge $-1 $84 $85 $86 $87 forward $33 $-1 #
coedge $-1 $88 $35 $89 $90 forward $21 $-1 #
coedge $-1 $35 $88 $91 $92 forward $21 $-1 #
coedge $-1 $93 $94 $35 $56 reversed $95 $-1 #
edge $-1 $96 -36.064494094457928 $97 36.064494094457928 $55 $98 forward 7 unknown #
face $-1 $99 $100 $13 $-1 $101 reversed single #
loop $-1 $-1 $63 $36 #
plane-surface $-1 -75.600209753896294 0 -7.1694131053224073 0 0 1 1 0 0 forward_v I I I I #
coedge $-1 $102 $103 $62 $104 forward $37 $-1 #
coedge $-1 $105 $39 $106 $107 reversed $24 $-1 #
coedge $-1 $39 $105 $60 $104 reversed $24 $-1 #
coedge $-1 $108 $109 $39 $64 reversed $58 $-1 #
edge $-1 $110 -36.064494094457928 $111 36.064494094457928 $63 $112 forward 7 unknown #
face $-1 $113 $114 $14 $-1 $115 reversed single #
loop $-1 $-1 $116 $40 #
plane-surface $-1 0 0 13.037126956946429 0 0 1 1 0 0 forward_v I I I I #
coedge $-1 $117 $118 $119 $120 reversed $41 $-1 #
coedge $-1 $70 $43 $121 $122 reversed $27 $-1 #
coedge $-1 $43 $69 $117 $123 reversed $27 $-1 #
coedge $-1 $119 $124 $43 $72 forward $114 $-1 #
edge $-1 $125 85.73881485309505 $126 96.785792762546123 $71 $127 forward 7 unknown #
loop $-1 $-1 $78 $44 #
plane-surface $-1 -28.639351823346047 25.98499244744611 99.771017468296719 0.70710678939079041 0 0.70710677298230451 0.70710677298230451 0 -0.70710678939079041 forward_v I I I I #
loop $-1 $-1 $128 $29 #
coedge $-1 $76 $76 $77 $129 reversed $45 $-1 #
coedge $-1 $77 $77 $76 $129 forward $47 $-1 #
coedge $-1 $78 $78 $48 $79 forward $73 $-1 #
edge $-1 $130 0 $130 6.2831853071796004 $78 $131 forward 7 unknown #
face $-1 $132 $133 $12 $-1 $134 reversed single #
loop $-1 $-1 $135 $49 #
plane-surface $-1 -69.141514328440195 0 0 1 0 0 0 0 -1 forward_v I I I I #
coedge $-1 $136 $91 $135 $137 forward $50 $-1 #
coedge $-1 $138 $52 $136 $139 forward $33 $-1 #
coedge $-1 $52 $138 $140 $141 forward $33 $-1 #
coedge $-1 $94 $93 $52 $87 reversed $95 $-1 #
edge $-1 $142 -36.064494094457928 $143 36.064494094457928 $86 $144 forward 7 unknown #
coedge $-1 $54 $53 $145 $146 forward $21 $-1 #
coedge $-1 $147 $148 $53 $90 reversed $133 $-1 #
edge $-1 $97 -69.141514328440195 $149 69.141514328440195 $89 $150 forward 7 unknown #
coedge $-1 $83 $151 $54 $92 reversed $50 $-1 #
edge $-1 $152 -69.141514328440195 $96 69.141514328440195 $91 $153 forward 7 unknown #
coedge $-1 $86 $55 $151 $154 forward $95 $-1 #
coedge $-1 $55 $86 $147 $155 reversed $95 $-1 #
loop $-1 $-1 $93 $132 #
vertex $-1 $56 $156 #
vertex $-1 $56 $157 #
straight-curve $-1 69.141514328440195 0 13.037126956946429 0 1 0 I I #
face $-1 $158 $159 $13 $-1 $160 reversed single #
loop $-1 $-1 $161 $57 #
plane-surface $-1 -75.600209753896294 0 -12.537126956946429 0 0 1 1 0 0 forward_v I I I I #
coedge $-1 $162 $60 $163 $164 reversed $37 $-1 #
coedge $-1 $60 $162 $108 $165 reversed $37 $-1 #
edge $-1 $110 7.1694131053224073 $166 12.537126956946429 $60 $167 forward 7 unknown #
coedge $-1 $62 $61 $161 $168 forward $24 $-1 #
coedge $-1 $169 $170 $61 $107 forward $171 $-1 #
edge $-1 $172 -12.537126956946429 $111 -7.1694131053224073 $106 $173 forward 7 unknown #
coedge $-1 $174 $63 $103 $165 forward $58 $-1 #
coedge $-1 $63 $174 $169 $175 forward $58 $-1 #
vertex $-1 $104 $176 #
vertex $-1 $175 $177 #
straight-curve $-1 -69.141514328440195 0 -7.1694131053224073 0 -1 0 I I #
face $-1 $-1 $178 $14 $-1 $179 reversed single #
loop $-1 $-1 $71 $65 #
plane-surface $-1 69.141514328440195 0 0 -1 0 0 0 0 1 forward_v I I I I #
coedge $-1 $121 $180 $181 $182 forward $66 $-1 #
coedge $-1 $181 $68 $70 $123 forward $41 $-1 #
coedge $-1 $68 $181 $183 $184 reversed $41 $-1 #
coedge $-1 $185 $71 $68 $120 forward $114 $-1 #
edge $-1 $126 2.9129945767112382 $186 23.071997870734872 $119 $187 forward 7 unknown #
coedge $-1 $188 $116 $69 $122 forward $66 $-1 #
edge $-1 $189 23.523778376607737 $125 34.570756029712541 $121 $190 forward 7 unknown #
edge $-1 $126 -138.28302865688045 $189 -122.66024285536294 $70 $191 forward 7 unknown #
coedge $-1 $71 $185 $188 $192 reversed $114 $-1 #
vertex $-1 $192 $193 #
vertex $-1 $72 $194 #
straight-curve $-1 69.141514328440195 15.905490800434293 98.775941810041473 0 0 -1 I I #
coedge $-1 $128 $128 $-1 $195 reversed $75 $-1 #
edge $-1 $196 0 $196 6.2831853071796004 $76 $197 forward 7 unknown #
vertex $-1 $79 $198 #
ellipse-curve $-1 63.618025501887793 25.98499244744611 7.5136380022208673 0.70710678939079041 0 0.70710677298230451 1.0606601594734568 0 -1.0606601840861856 1 I I #
face $-1 $-1 $95 $12 $-1 $199 reversed single #
loop $-1 $-1 $147 $80 #
plane-surface $-1 0 36.064494094457928 0 0 -1 0 0 0 -1 forward_v I I I I #
coedge $-1 $145 $200 $83 $137 reversed $81 $-1 #
coedge $-1 $151 $83 $84 $139 reversed $50 $-1 #
edge $-1 $152 -13.037126956946429 $201 13.037126956946429 $135 $202 forward 7 unknown #
coedge $-1 $85 $84 $200 $203 forward $33 $-1 #
edge $-1 $143 -69.141514328440195 $201 69.141514328440195 $136 $204 forward 7 unknown #
coedge $-1 $148 $147 $85 $141 reversed $133 $-1 #
edge $-1 $205 -69.141514328440195 $142 69.141514328440195 $140 $206 forward 7 unknown #
vertex $-1 $87 $207 #
vertex $-1 $154 $208 #
straight-curve $-1 69.141514328440195 0 -13.037126956946429 0 -1 0 I I #
coedge $-1 $209 $135 $88 $146 reversed $81 $-1 #
edge $-1 $149 -36.064494094457928 $152 36.064494094457928 $145 $210 forward 7 unknown #
coedge $-1 $140 $89 $94 $155 forward $133 $-1 #
coedge $-1 $89 $140 $209 $211 reversed $133 $-1 #
vertex $-1 $90 $212 #
straight-curve $-1 0 36.064494094457928 13.037126956946429 -1 0 0 I I #
coedge $-1 $91 $136 $93 $154 reversed $50 $-1 #
vertex $-1 $146 $213 #
straight-curve $-1 0 -36.064494094457928 13.037126956946429 1 0 0 I I #
edge $-1 $96 -13.037126956946429 $143 13.037126956946429 $93 $214 forward 7 unknown #
edge $-1 $97 -13.037126956946429 $142 13.037126956946429 $94 $215 forward 7 unknown #
point $-1 69.141514328440195 -36.064494094457928 13.037126956946429 #
point $-1 69.141514328440195 36.064494094457928 13.037126956946429 #
face $-1 $-1 $171 $13 $-1 $216 reversed single #
loop $-1 $-1 $217 $99 #
plane-surface $-1 -82.058905179352394 0 -9.8532700311344179 1 0 0 0 0 -1 forward_v I I I I #
coedge $-1 $218 $163 $105 $168 reversed $100 $-1 #
coedge $-1 $103 $102 $217 $219 reversed $37 $-1 #
coedge $-1 $161 $220 $102 $164 forward $100 $-1 #
edge $-1 $221 -6.4586954254560993 $166 6.4586954254560993 $102 $222 forward 7 unknown #
edge $-1 $110 -6.4586954254560993 $223 6.4586954254560993 $103 $224 forward 7 unknown #
vertex $-1 $104 $225 #
straight-curve $-1 -69.141514328440195 36.064494094457928 0 0 0 -1 I I #
edge $-1 $172 -36.064494094457928 $166 36.064494094457928 $161 $226 forward 7 unknown #
coedge $-1 $227 $106 $109 $175 reversed $171 $-1 #
coedge $-1 $106 $227 $218 $228 reversed $171 $-1 #
loop $-1 $-1 $106 $158 #
vertex $-1 $107 $229 #
straight-curve $-1 -69.141514328440195 -36.064494094457928 0 0 0 1 I I #
coedge $-1 $109 $108 $230 $231 forward $58 $-1 #
edge $-1 $232 -6.4586954254560993 $111 6.4586954254560993 $169 $233 forward 7 unknown #
point $-1 -69.141514328440195 36.064494094457928 -7.1694131053224073 #
point $-1 -69.141514328440195 -36.064494094457928 -7.1694131053224073 #
loop $-1 $-1 $183 $113 #
plane-surface $-1 0 36.064494094457928 0 0 -1 0 0 0 -1 forward_v I I I I #
coedge $-1 $116 $188 $234 $235 forward $66 $-1 #
coedge $-1 $118 $117 $116 $182 reversed $41 $-1 #
edge $-1 $236 -23.071997870734872 $189 -2.9129945767112382 $116 $237 forward 7 unknown #
coedge $-1 $234 $238 $118 $184 forward $178 $-1 #
edge $-1 $186 -92.883106914694991 $236 -77.260321113177469 $183 $239 forward 7 unknown #
coedge $-1 $124 $119 $238 $240 reversed $114 $-1 #
vertex $-1 $120 $241 #
straight-curve $-1 69.141514328440195 12.992496223723055 1.9901490474953505 0 1 0 I I #
coedge $-1 $180 $121 $124 $192 forward $66 $-1 #
vertex $-1 $122 $242 #
straight-curve $-1 34.570758298727654 15.905490800434293 13.037126956946423 1 0 0 I I #
straight-curve $-1 -28.639351823346047 15.905490800434293 99.771017468296719 -0.70710677298230451 0 0.70710678939079041 I I #
edge $-1 $125 15.905490800434293 $243 36.064494094457928 $124 $244 forward 7 unknown #
point $-1 69.141514328440195 15.905490800434293 13.037126956946429 #
point $-1 69.141514328440195 15.905490800434293 1.9901490474953505 #
edge $-1 $245 1 $245 0 $128 $-1 forward 7 unknown #
vertex $-1 $129 $246 #
ellipse-curve $-1 60.71015214402734 25.98499244744611 4.6057647118379155 0.70710678939079041 0 0.70710677298230451 1.0606601594734568 0 -1.0606601840861856 1 I I #
point $-1 64.678685661361271 25.98499244744611 6.4529778181347082 #
plane-surface $-1 69.141514328440195 0 0 -1 0 0 0 0 1 forward_v I I I I #
coedge $-1 $135 $209 $138 $203 reversed $81 $-1 #
vertex $-1 $203 $247 #
straight-curve $-1 -69.141514328440195 -36.064494094457928 0 0 0 -1 I I #
edge $-1 $201 -36.064494094457928 $205 36.064494094457928 $200 $248 forward 7 unknown #
straight-curve $-1 0 -36.064494094457928 -13.037126956946429 -1 0 0 I I #
vertex $-1 $141 $249 #
straight-curve $-1 0 36.064494094457928 -13.037126956946429 1 0 0 I I #
point $-1 69.141514328440195 36.064494094457928 -13.037126956946429 #
point $-1 69.141514328440195 -36.064494094457928 -13.037126956946429 #
coedge $-1 $200 $145 $148 $211 forward $81 $-1 #
straight-curve $-1 -69.141514328440195 0 13.037126956946429 0 -1 0 I I #
edge $-1 $149 -13.037126956946429 $205 13.037126956946429 $148 $250 forward 7 unknown #
point $-1 -69.141514328440195 36.064494094457928 13.037126956946429 #
point $-1 -69.141514328440195 -36.064494094457928 13.037126956946429 #
straight-curve $-1 69.141514328440195 -36.064494094457928 0 0 0 -1 I I #
straight-curve $-1 69.141514328440195 36.064494094457928 0 0 0 -1 I I #
plane-surface $-1 0 -36.064494094457928 0 0 1 0 0 0 1 forward_v I I I I #
coedge $-1 $251 $230 $162 $219 forward $159 $-1 #
coedge $-1 $220 $161 $170 $228 forward $100 $-1 #
edge $-1 $223 -2.6838569258120106 $221 2.6838569258120106 $162 $252 forward 7 unknown #
coedge $-1 $163 $218 $251 $253 forward $100 $-1 #
vertex $-1 $164 $254 #
straight-curve $-1 -75.600209753896294 36.064494094457928 -12.537126956946429 1 0 0 I I #
vertex $-1 $165 $255 #
straight-curve $-1 -75.600209753896294 36.064494094457928 -7.1694131053224073 -1 0 0 I I #
point $-1 -69.141514328440195 36.064494094457928 -12.537126956946429 #
straight-curve $-1 -69.141514328440195 0 -12.537126956946429 0 1 0 I I #
coedge $-1 $170 $169 $256 $257 forward $171 $-1 #
edge $-1 $172 -6.4586954254560993 $258 6.4586954254560993 $170 $259 forward 7 unknown #
point $-1 -69.141514328440195 -36.064494094457928 -12.537126956946429 #
coedge $-1 $217 $256 $174 $231 reversed $159 $-1 #
edge $-1 $223 -36.064494094457928 $232 36.064494094457928 $230 $260 forward 7 unknown #
vertex $-1 $231 $261 #
straight-curve $-1 -75.600209753896294 -36.064494094457928 -7.1694131053224073 1 0 0 I I #
coedge $-1 $238 $183 $180 $235 reversed $178 $-1 #
edge $-1 $243 -69.141514328440195 $236 -58.094536675335391 $234 $262 forward 7 unknown #
vertex $-1 $184 $263 #
straight-curve $-1 58.094536675335377 12.992496223723055 13.037126956946423 0 -1 0 I I #
coedge $-1 $183 $234 $185 $240 forward $178 $-1 #
straight-curve $-1 3.4632403334198578 36.064494094457928 67.668424566586836 -0.70710677298230462 0 0.70710678939079052 I I #
edge $-1 $243 -13.037126956946429 $186 -1.9901490474953463 $185 $264 forward 7 unknown #
point $-1 69.141514328440195 36.064494094457928 1.9901490474953463 #
point $-1 58.094536675335391 15.905490800434293 13.037126956946423 #
vertex $-1 $192 $265 #
straight-curve $-1 69.141514328440195 0 13.037126956946429 0 1 0 I I #
vertex $-1 $195 $266 #
point $-1 61.770812303500797 25.98499244744611 3.5451045277517297 #
point $-1 -69.141514328440195 -36.064494094457928 -13.037126956946429 #
straight-curve $-1 -69.141514328440195 0 -13.037126956946429 0 1 0 I I #
point $-1 -69.141514328440195 36.064494094457928 -13.037126956946429 #
straight-curve $-1 -69.141514328440195 36.064494094457928 0 0 0 -1 I I #
coedge $-1 $256 $217 $220 $253 reversed $159 $-1 #
straight-curve $-1 -82.058905179352394 36.064494094457928 -9.8532700311344179 0 0 -1 I I #
edge $-1 $258 -36.064494094457928 $221 36.064494094457928 $251 $267 forward 7 unknown #
point $-1 -82.058905179352394 36.064494094457928 -12.537126956946429 #
point $-1 -82.058905179352394 36.064494094457928 -7.1694131053224073 #
coedge $-1 $230 $251 $227 $257 reversed $159 $-1 #
edge $-1 $232 -2.6838569258120106 $258 2.6838569258120106 $256 $268 forward 7 unknown #
vertex $-1 $253 $269 #
straight-curve $-1 -75.600209753896294 -36.064494094457928 -12.537126956946429 -1 0 0 I I #
straight-curve $-1 -82.058905179352394 0 -7.1694131053224073 0 -1 0 I I #
point $-1 -82.058905179352394 -36.064494094457928 -7.1694131053224073 #
straight-curve $-1 0 36.064494094457928 13.037126956946429 -1 0 0 I I #
point $-1 58.094536675335391 36.064494094457928 13.037126956946423 #
straight-curve $-1 69.141514328440195 36.064494094457928 0 0 0 -1 I I #
point $-1 69.141514328440195 36.064494094457928 13.037126956946429 #
point $-1 59.649491959941152 25.98499244744611 3.5451045523644584 #
straight-curve $-1 -82.058905179352394 0 -12.537126956946429 0 1 0 I I #
straight-curve $-1 -82.058905179352394 -36.064494094457928 -9.8532700311344179 0 0 -1 I I #
point $-1 -82.058905179352394 -36.064494094457928 -12.537126956946429 #
End-of-ACIS-data 