500 0 9 0           
7 Unknown 11 ACIS 5.0 NT 24 Fri Mar 26 00:30:22 1999 
-1 9.9999999999999995e-007 1e-010 
body $-1 $9 $-1 $10 #
body $-1 $11 $-1 $12 #
body $-1 $13 $-1 $14 #
body $-1 $15 $-1 $16 #
body $-1 $17 $-1 $18 #
body $-1 $19 $-1 $20 #
body $-1 $21 $-1 $22 #
body $-1 $23 $-1 $24 #
body $-1 $25 $-1 $26 #
lump $-1 $-1 $27 $0 #
transform $-1 1 0 0 0 1 0 0 0 1 48.965117343668936 24.342538789175034 8.5552133761448932 1 rotate no_reflect no_shear #
lump $-1 $-1 $28 $1 #
transform $-1 1 0 0 0 1 0 0 0 1 48.965117343668936 24.342538789175034 8.5552133761448932 1 rotate no_reflect no_shear #
lump $-1 $-1 $29 $2 #
transform $-1 1 0 0 0 1 0 0 0 1 48.965117343668936 24.342538789175034 8.5552133761448932 1 rotate no_reflect no_shear #
lump $-1 $-1 $30 $3 #
transform $-1 1 0 0 0 1 0 0 0 1 48.965117343668936 24.342538789175034 8.5552133761448932 1 rotate no_reflect no_shear #
lump $-1 $-1 $31 $4 #
transform $-1 1 0 0 0 1 0 0 0 1 48.965117343668936 24.342538789175034 8.5552133761448932 1 rotate no_reflect no_shear #
lump $-1 $-1 $32 $5 #
transform $-1 1 0 0 0 1 0 0 0 1 48.965117343668936 24.342538789175034 8.5552133761448932 1 rotate no_reflect no_shear #
lump $-1 $-1 $33 $6 #
transform $-1 1 0 0 0 1 0 0 0 1 48.965117343668936 24.342538789175034 8.5552133761448932 1 rotate no_reflect no_shear #
lump $-1 $-1 $34 $7 #
transform $-1 1 0 0 0 1 0 0 0 1 48.965117343668936 24.342538789175034 8.5552133761448932 1 rotate no_reflect no_shear #
lump $-1 $-1 $35 $8 #
transform $-1 1 0 0 0 1 0 0 0 1 48.965117343668936 24.342538789175034 8.5552133761448932 1 rotate no_reflect no_shear #
shell $-1 $-1 $-1 $36 $-1 $9 #
shell $-1 $-1 $-1 $37 $-1 $11 #
shell $-1 $-1 $-1 $38 $-1 $13 #
shell $-1 $-1 $-1 $39 $-1 $15 #
shell $-1 $-1 $-1 $40 $-1 $17 #
shell $-1 $-1 $-1 $41 $-1 $19 #
shell $-1 $-1 $-1 $42 $-1 $21 #
shell $-1 $-1 $-1 $43 $-1 $23 #
shell $-1 $-1 $-1 $44 $-1 $25 #
face $-1 $45 $46 $27 $-1 $47 forward single #
face $-1 $48 $49 $28 $-1 $50 reversed single #
face $-1 $51 $52 $29 $-1 $53 forward single #
face $-1 $54 $55 $30 $-1 $56 forward single #
face $-1 $57 $58 $31 $-1 $59 forward single #
face $-1 $60 $61 $32 $-1 $62 reversed single #
face $-1 $63 $64 $33 $-1 $65 forward single #
face $-1 $66 $67 $34 $-1 $68 forward single #
face $-1 $69 $70 $35 $-1 $71 forward single #
face $-1 $72 $73 $27 $-1 $74 reversed single #
loop $-1 $-1 $75 $36 #
plane-surface $-1 0 0 8.5552133761448932 0 0 1 1 0 0 forward_v I I I I #
face $-1 $76 $77 $28 $-1 $78 reversed single #
loop $-1 $-1 $79 $37 #
plane-surface $-1 65.843324456933217 -8.8817841970012523e-016 141.44131909929121 0 -1 0 -0.78801076186113728 0 -0.61566146476048833 forward_v I I I I #
face $-1 $80 $81 $29 $-1 $82 forward single #
loop $-1 $83 $84 $38 #
cone-surface $-1 46.783591105357296 -9.1421689549270333 5.959460216760851 -0.78801076186113728 0 -0.61566146476048833 0.30783073238024417 0 -0.39400538093056864 1 I I 0 1 0.5 forward I I I I #
face $-1 $85 $86 $30 $-1 $87 forward single #
loop $-1 $88 $89 $39 #
cone-surface $-1 46.783591105357296 -5.7138555968293971 5.959460216760851 -0.78801076186113728 0 -0.61566146476048833 0.30783073238024417 0 -0.39400538093056864 1 I I 0 1 0.5 forward I I I I #
face $-1 $90 $91 $31 $-1 $92 forward single #
loop $-1 $93 $94 $40 #
cone-surface $-1 46.783591105357296 -2.285542238731761 5.959460216760851 -0.78801076186113728 0 -0.61566146476048833 0.30783073238024417 0 -0.39400538093056864 1 I I 0 1 0.5 forward I I I I #
face $-1 $95 $96 $32 $-1 $97 reversed single #
loop $-1 $-1 $98 $41 #
plane-surface $-1 65.843324456933217 12.91482759551624 141.44131909929121 0 1 0 0.78801076186113728 0 0.61566146476048833 forward_v I I I I #
face $-1 $99 $100 $33 $-1 $101 forward single #
loop $-1 $102 $103 $42 #
cone-surface $-1 46.783591105357296 15.200369834247997 5.959460216760851 -0.78801076186113728 0 -0.61566146476048833 0.30783073238024417 0 -0.39400538093056864 1 I I 0 1 0.5 forward I I I I #
face $-1 $104 $105 $34 $-1 $106 forward single #
loop $-1 $107 $108 $43 #
cone-surface $-1 46.783591105357296 18.628683192345637 5.959460216760851 -0.78801076186113728 0 -0.61566146476048833 0.30783073238024417 0 -0.39400538093056864 1 I I 0 1 0.5 forward I I I I #
face $-1 $109 $110 $35 $-1 $111 forward single #
loop $-1 $112 $113 $44 #
cone-surface $-1 46.783591105357296 22.056996550443277 5.959460216760851 -0.78801076186113728 0 -0.61566146476048833 0.30783073238024417 0 -0.39400538093056864 1 I I 0 1 0.5 forward I I I I #
face $-1 $114 $115 $27 $-1 $116 reversed single #
loop $-1 $-1 $117 $45 #
plane-surface $-1 0 0 -8.5552133761448932 0 0 1 1 0 0 forward_v I I I I #
coedge $-1 $118 $119 $120 $121 forward $46 $-1 #
face $-1 $122 $123 $28 $-1 $124 reversed single #
loop $-1 $-1 $125 $48 #
plane-surface $-1 -11.326754388275873 -5.7138555968293971 81.149447367346397 0.78801076186113728 0 0.61566146476048833 0.61566146476048833 0 -0.78801076186113728 forward_v I I I I #
coedge $-1 $126 $127 $128 $129 reversed $49 $-1 #
face $-1 $-1 $130 $29 $-1 $131 forward single #
loop $-1 $132 $133 $51 #
cone-surface $-1 46.192583033961441 -9.1421689549270333 5.4977141181904852 -0.78801076186113728 0 -0.61566146476048833 0.15391536619012208 0 -0.19700269046528432 1 I I -0.70710678118654746 0.70710678118654746 0.25 forward I I I I #
loop $-1 $-1 $134 $38 #
coedge $-1 $84 $84 $135 $136 reversed $52 $-1 #
face $-1 $-1 $137 $30 $-1 $138 forward single #
loop $-1 $139 $140 $54 #
cone-surface $-1 46.192583033961441 -5.7138555968293971 5.4977141181904852 -0.78801076186113728 0 -0.61566146476048833 0.15391536619012208 0 -0.19700269046528432 1 I I -0.70710678118654746 0.70710678118654746 0.25 forward I I I I #
loop $-1 $-1 $141 $39 #
coedge $-1 $89 $89 $142 $143 reversed $55 $-1 #
face $-1 $-1 $144 $31 $-1 $145 forward single #
loop $-1 $146 $147 $57 #
cone-surface $-1 46.192583033961441 -2.285542238731761 5.4977141181904852 -0.78801076186113728 0 -0.61566146476048833 0.15391536619012208 0 -0.19700269046528432 1 I I -0.70710678118654746 0.70710678118654746 0.25 forward I I I I #
loop $-1 $-1 $148 $40 #
coedge $-1 $94 $94 $149 $150 reversed $58 $-1 #
face $-1 $151 $152 $32 $-1 $153 reversed single #
loop $-1 $-1 $154 $60 #
plane-surface $-1 -11.326754388275873 18.628683192345637 81.149447367346397 0.78801076186113728 0 0.61566146476048833 0.61566146476048833 0 -0.78801076186113728 forward_v I I I I #
coedge $-1 $155 $156 $157 $158 reversed $61 $-1 #
face $-1 $-1 $159 $33 $-1 $160 forward single #
loop $-1 $161 $162 $63 #
cone-surface $-1 46.192583033961441 15.200369834247997 5.4977141181904852 -0.78801076186113728 0 -0.61566146476048833 0.15391536619012208 0 -0.19700269046528432 1 I I -0.70710678118654746 0.70710678118654746 0.25 forward I I I I #
loop $-1 $-1 $163 $42 #
coedge $-1 $103 $103 $164 $165 reversed $64 $-1 #
face $-1 $-1 $166 $34 $-1 $167 forward single #
loop $-1 $168 $169 $66 #
cone-surface $-1 46.192583033961441 18.628683192345637 5.4977141181904852 -0.78801076186113728 0 -0.61566146476048833 0.15391536619012208 0 -0.19700269046528432 1 I I -0.70710678118654746 0.70710678118654746 0.25 forward I I I I #
loop $-1 $-1 $170 $43 #
coedge $-1 $108 $108 $171 $172 reversed $67 $-1 #
face $-1 $-1 $173 $35 $-1 $174 forward single #
loop $-1 $175 $176 $69 #
cone-surface $-1 46.192583033961441 22.056996550443277 5.4977141181904852 -0.78801076186113728 0 -0.61566146476048833 0.15391536619012208 0 -0.19700269046528432 1 I I -0.70710678118654746 0.70710678118654746 0.25 forward I I I I #
loop $-1 $-1 $177 $44 #
coedge $-1 $113 $113 $178 $179 reversed $70 $-1 #
face $-1 $180 $181 $27 $-1 $182 reversed single #
loop $-1 $-1 $183 $72 #
plane-surface $-1 0 -24.342538789175034 0 0 1 0 0 0 1 forward_v I I I I #
coedge $-1 $184 $185 $186 $187 forward $73 $-1 #
coedge $-1 $188 $75 $189 $190 forward $46 $-1 #
coedge $-1 $75 $188 $191 $192 forward $46 $-1 #
coedge $-1 $193 $194 $75 $121 reversed $195 $-1 #
edge $-1 $196 -24.342538789175034 $197 24.342538789175034 $120 $198 forward 7 unknown #
face $-1 $199 $200 $28 $-1 $201 forward single #
loop $-1 $-1 $202 $76 #
plane-surface $-1 65.843324456933217 -11.427711193658794 141.44131909929121 0 1 0 0.78801076186113728 0 0.61566146476048833 forward_v I I I I #
coedge $-1 $203 $204 $205 $206 reversed $77 $-1 #
coedge $-1 $127 $79 $207 $208 reversed $49 $-1 #
coedge $-1 $79 $126 $203 $209 reversed $49 $-1 #
coedge $-1 $205 $210 $79 $129 forward $200 $-1 #
edge $-1 $211 -16.043455115202327 $212 -12.468413400440205 $128 $213 forward 7 unknown #
loop $-1 $-1 $135 $80 #
plane-surface $-1 -11.326754388275873 -5.7138555968293971 81.149447367346397 0.78801076186113728 0 0.61566146476048833 0.61566146476048833 0 -0.78801076186113728 forward_v I I I I #
loop $-1 $-1 $214 $51 #
coedge $-1 $133 $133 $134 $215 reversed $81 $-1 #
coedge $-1 $134 $134 $133 $215 forward $83 $-1 #
coedge $-1 $135 $135 $84 $136 forward $130 $-1 #
edge $-1 $216 0 $216 6.2831853071796004 $135 $217 forward 7 unknown #
loop $-1 $-1 $142 $85 #
plane-surface $-1 -11.326754388275873 -5.7138555968293971 81.149447367346397 0.78801076186113728 0 0.61566146476048833 0.61566146476048833 0 -0.78801076186113728 forward_v I I I I #
loop $-1 $-1 $218 $54 #
coedge $-1 $140 $140 $141 $219 reversed $86 $-1 #
coedge $-1 $141 $141 $140 $219 forward $88 $-1 #
coedge $-1 $142 $142 $89 $143 forward $137 $-1 #
edge $-1 $220 0 $220 6.2831853071796004 $142 $221 forward 7 unknown #
loop $-1 $-1 $149 $90 #
plane-surface $-1 -11.326754388275873 -5.7138555968293971 81.149447367346397 0.78801076186113728 0 0.61566146476048833 0.61566146476048833 0 -0.78801076186113728 forward_v I I I I #
loop $-1 $-1 $222 $57 #
coedge $-1 $147 $147 $148 $223 reversed $91 $-1 #
coedge $-1 $148 $148 $147 $223 forward $93 $-1 #
coedge $-1 $149 $149 $94 $150 forward $144 $-1 #
edge $-1 $224 0 $224 6.2831853071796004 $149 $225 forward 7 unknown #
face $-1 $226 $227 $32 $-1 $228 forward single #
loop $-1 $-1 $157 $95 #
plane-surface $-1 48.965117343668936 0 0 -1 0 0 0 0 1 forward_v I I I I #
coedge $-1 $229 $230 $231 $232 reversed $96 $-1 #
coedge $-1 $156 $98 $233 $234 reversed $61 $-1 #
coedge $-1 $98 $155 $229 $235 reversed $61 $-1 #
coedge $-1 $231 $236 $98 $158 forward $152 $-1 #
edge $-1 $237 62.165446173500712 $238 66.741291027508282 $157 $239 forward 7 unknown #
loop $-1 $-1 $164 $99 #
plane-surface $-1 -11.326754388275873 18.628683192345637 81.149447367346397 0.78801076186113728 0 0.61566146476048833 0.61566146476048833 0 -0.78801076186113728 forward_v I I I I #
loop $-1 $-1 $240 $63 #
coedge $-1 $162 $162 $163 $241 reversed $100 $-1 #
coedge $-1 $163 $163 $162 $241 forward $102 $-1 #
coedge $-1 $164 $164 $103 $165 forward $159 $-1 #
edge $-1 $242 0 $242 6.2831853071796004 $164 $243 forward 7 unknown #
loop $-1 $-1 $171 $104 #
plane-surface $-1 -11.326754388275873 18.628683192345637 81.149447367346397 0.78801076186113728 0 0.61566146476048833 0.61566146476048833 0 -0.78801076186113728 forward_v I I I I #
loop $-1 $-1 $244 $66 #
coedge $-1 $169 $169 $170 $245 reversed $105 $-1 #
coedge $-1 $170 $170 $169 $245 forward $107 $-1 #
coedge $-1 $171 $171 $108 $172 forward $166 $-1 #
edge $-1 $246 0 $246 6.2831853071796004 $171 $247 forward 7 unknown #
loop $-1 $-1 $178 $109 #
plane-surface $-1 -11.326754388275873 18.628683192345637 81.149447367346397 0.78801076186113728 0 0.61566146476048833 0.61566146476048833 0 -0.78801076186113728 forward_v I I I I #
loop $-1 $-1 $248 $69 #
coedge $-1 $176 $176 $177 $249 reversed $110 $-1 #
coedge $-1 $177 $177 $176 $249 forward $112 $-1 #
coedge $-1 $178 $178 $113 $179 forward $173 $-1 #
edge $-1 $250 0 $250 6.2831853071796004 $178 $251 forward 7 unknown #
face $-1 $252 $253 $27 $-1 $254 reversed single #
loop $-1 $-1 $255 $114 #
plane-surface $-1 -48.965117343668936 0 0 1 0 0 0 0 -1 forward_v I I I I #
coedge $-1 $256 $191 $257 $258 forward $115 $-1 #
coedge $-1 $259 $117 $256 $260 forward $73 $-1 #
coedge $-1 $117 $259 $261 $262 forward $73 $-1 #
coedge $-1 $194 $193 $117 $187 reversed $195 $-1 #
edge $-1 $263 -24.342538789175034 $264 24.342538789175034 $186 $265 forward 7 unknown #
coedge $-1 $119 $118 $266 $267 forward $46 $-1 #
coedge $-1 $268 $269 $118 $190 reversed $253 $-1 #
edge $-1 $197 -48.965117343668936 $270 48.965117343668936 $189 $271 forward 7 unknown #
coedge $-1 $183 $272 $119 $192 reversed $115 $-1 #
edge $-1 $273 -48.965117343668936 $196 48.965117343668936 $191 $274 forward 7 unknown #
coedge $-1 $186 $120 $272 $275 forward $195 $-1 #
coedge $-1 $120 $186 $268 $276 reversed $195 $-1 #
loop $-1 $-1 $193 $252 #
vertex $-1 $121 $277 #
vertex $-1 $121 $278 #
straight-curve $-1 48.965117343668936 0 8.5552133761448932 0 1 0 I I #
face $-1 $-1 $279 $28 $-1 $280 reversed single #
loop $-1 $-1 $128 $122 #
plane-surface $-1 0 0 8.5552133761448932 0 0 1 1 0 0 forward_v I I I I #
coedge $-1 $281 $282 $283 $284 reversed $123 $-1 #
coedge $-1 $285 $125 $127 $209 forward $77 $-1 #
coedge $-1 $125 $285 $281 $286 forward $77 $-1 #
coedge $-1 $283 $128 $125 $206 forward $200 $-1 #
edge $-1 $212 -2.8569277984146977 $287 8.5707833952440957 $205 $288 forward 7 unknown #
coedge $-1 $289 $290 $126 $208 forward $279 $-1 #
edge $-1 $291 -66.741291027508282 $211 -62.165446173500712 $207 $292 forward 7 unknown #
edge $-1 $212 92.123404279082692 $291 97.930234687337858 $127 $293 forward 7 unknown #
coedge $-1 $128 $283 $289 $294 forward $200 $-1 #
vertex $-1 $208 $295 #
vertex $-1 $129 $296 #
straight-curve $-1 32.921662228466609 -8.8817841970012523e-016 8.5552133761448914 -1 0 0 I I #
coedge $-1 $214 $214 $-1 $297 reversed $132 $-1 #
edge $-1 $298 0 $298 6.2831853071796004 $133 $299 forward 7 unknown #
vertex $-1 $136 $300 #
ellipse-curve $-1 47.177596486287882 -9.1421689549270333 6.267290949141108 0.78801076186113728 0 0.61566146476048833 0.30783073238024417 0 -0.39400538093056864 1 I I #
coedge $-1 $218 $218 $-1 $301 reversed $139 $-1 #
edge $-1 $302 0 $302 6.2831853071796004 $140 $303 forward 7 unknown #
vertex $-1 $143 $304 #
ellipse-curve $-1 47.177596486287882 -5.7138555968293971 6.267290949141108 0.78801076186113728 0 0.61566146476048833 0.30783073238024417 0 -0.39400538093056864 1 I I #
coedge $-1 $222 $222 $-1 $305 reversed $146 $-1 #
edge $-1 $306 0 $306 6.2831853071796004 $147 $307 forward 7 unknown #
vertex $-1 $150 $308 #
ellipse-curve $-1 47.177596486287882 -2.285542238731761 6.267290949141108 0.78801076186113728 0 0.61566146476048833 0.30783073238024417 0 -0.39400538093056864 1 I I #
face $-1 $-1 $309 $32 $-1 $310 reversed single #
loop $-1 $-1 $233 $151 #
plane-surface $-1 0 0 8.5552133761448932 0 0 1 1 0 0 forward_v I I I I #
coedge $-1 $311 $154 $156 $235 forward $96 $-1 #
coedge $-1 $154 $311 $312 $313 reversed $96 $-1 #
coedge $-1 $314 $157 $154 $232 forward $152 $-1 #
edge $-1 $238 3.6004859993434213 $315 15.028197193002216 $231 $316 forward 7 unknown #
coedge $-1 $317 $318 $155 $234 forward $227 $-1 #
edge $-1 $319 12.468413400440205 $237 16.043455115202327 $233 $320 forward 7 unknown #
edge $-1 $238 -97.930234687337858 $319 -92.123404279082692 $156 $321 forward 7 unknown #
coedge $-1 $157 $314 $317 $322 reversed $152 $-1 #
vertex $-1 $322 $323 #
vertex $-1 $158 $324 #
straight-curve $-1 48.965117343668936 12.91482759551624 70.720659549645603 0 0 -1 I I #
coedge $-1 $240 $240 $-1 $325 reversed $161 $-1 #
edge $-1 $326 0 $326 6.2831853071796004 $162 $327 forward 7 unknown #
vertex $-1 $165 $328 #
ellipse-curve $-1 47.177596486287882 15.200369834247997 6.267290949141108 0.78801076186113728 0 0.61566146476048833 0.30783073238024417 0 -0.39400538093056864 1 I I #
coedge $-1 $244 $244 $-1 $329 reversed $168 $-1 #
edge $-1 $330 0 $330 6.2831853071796004 $169 $331 forward 7 unknown #
vertex $-1 $172 $332 #
ellipse-curve $-1 47.177596486287882 18.628683192345637 6.267290949141108 0.78801076186113728 0 0.61566146476048833 0.30783073238024417 0 -0.39400538093056864 1 I I #
coedge $-1 $248 $248 $-1 $333 reversed $175 $-1 #
edge $-1 $334 0 $334 6.2831853071796004 $176 $335 forward 7 unknown #
vertex $-1 $179 $336 #
ellipse-curve $-1 47.177596486287882 22.056996550443277 6.267290949141108 0.78801076186113728 0 0.61566146476048833 0.30783073238024417 0 -0.39400538093056864 1 I I #
face $-1 $-1 $195 $27 $-1 $337 reversed single #
loop $-1 $-1 $268 $180 #
plane-surface $-1 0 24.342538789175034 0 0 -1 0 0 0 -1 forward_v I I I I #
coedge $-1 $338 $266 $269 $339 forward $181 $-1 #
coedge $-1 $272 $183 $184 $260 reversed $115 $-1 #
coedge $-1 $266 $338 $183 $258 reversed $181 $-1 #
edge $-1 $273 -8.5552133761448932 $340 8.5552133761448932 $257 $341 forward 7 unknown #
coedge $-1 $185 $184 $338 $342 forward $73 $-1 #
edge $-1 $264 -48.965117343668936 $340 48.965117343668936 $256 $343 forward 7 unknown #
coedge $-1 $269 $268 $185 $262 reversed $253 $-1 #
edge $-1 $344 -48.965117343668936 $263 48.965117343668936 $261 $345 forward 7 unknown #
vertex $-1 $187 $346 #
vertex $-1 $275 $347 #
straight-curve $-1 48.965117343668936 0 -8.5552133761448932 0 -1 0 I I #
coedge $-1 $255 $257 $188 $267 reversed $181 $-1 #
edge $-1 $270 -24.342538789175034 $273 24.342538789175034 $266 $348 forward 7 unknown #
coedge $-1 $261 $189 $194 $276 forward $253 $-1 #
coedge $-1 $189 $261 $255 $339 reversed $253 $-1 #
vertex $-1 $190 $349 #
straight-curve $-1 0 24.342538789175034 8.5552133761448932 -1 0 0 I I #
coedge $-1 $191 $256 $193 $275 reversed $115 $-1 #
vertex $-1 $267 $350 #
straight-curve $-1 0 -24.342538789175034 8.5552133761448932 1 0 0 I I #
edge $-1 $196 -8.5552133761448932 $264 8.5552133761448932 $193 $351 forward 7 unknown #
edge $-1 $197 -8.5552133761448932 $263 8.5552133761448932 $194 $352 forward 7 unknown #
point $-1 48.965117343668936 -24.342538789175034 8.5552133761448932 #
point $-1 48.965117343668936 24.342538789175034 8.5552133761448932 #
loop $-1 $-1 $207 $199 #
plane-surface $-1 48.965117343668936 0 0 -1 0 0 0 0 1 forward_v I I I I #
coedge $-1 $282 $202 $204 $286 reversed $123 $-1 #
coedge $-1 $202 $281 $353 $354 reversed $123 $-1 #
coedge $-1 $210 $205 $202 $284 forward $200 $-1 #
edge $-1 $287 12.468413400440205 $355 16.043455115202327 $283 $356 forward 7 unknown #
coedge $-1 $204 $203 $290 $357 reversed $77 $-1 #
edge $-1 $358 -97.930234687337858 $287 -92.123404279082692 $281 $359 forward 7 unknown #
vertex $-1 $206 $360 #
straight-curve $-1 45.390075628906814 -2.8569277984146986 8.5552133761448914 0 -1 0 I I #
coedge $-1 $353 $207 $210 $294 reversed $279 $-1 #
coedge $-1 $207 $353 $285 $357 forward $279 $-1 #
vertex $-1 $208 $361 #
straight-curve $-1 48.965117343668936 -8.8817841970012523e-016 70.720659549645603 0 0 1 I I #
straight-curve $-1 -11.326754388275873 -8.8817841970012523e-016 81.149447367346397 0.61566146476048833 0 -0.78801076186113728 I I #
edge $-1 $355 -11.427711193658794 $211 -8.8817841970012523e-016 $289 $362 forward 7 unknown #
point $-1 48.965117343668936 -8.8817841970012523e-016 8.5552133761448932 #
point $-1 45.390075628906814 -8.8817841970012523e-016 8.5552133761448914 #
edge $-1 $363 1 $363 0 $214 $-1 forward 7 unknown #
vertex $-1 $215 $364 #
ellipse-curve $-1 46.389585724426723 -9.1421689549270333 5.6516294843806074 0.78801076186113728 0 0.61566146476048833 0.30783073238024417 0 -0.39400538093056864 1 I I #
point $-1 47.485427218668107 -9.1421689549270333 5.8732855682105267 #
edge $-1 $365 1 $365 0 $218 $-1 forward 7 unknown #
vertex $-1 $219 $366 #
ellipse-curve $-1 46.389585724426723 -5.7138555968293971 5.6516294843806074 0.78801076186113728 0 0.61566146476048833 0.30783073238024417 0 -0.39400538093056864 1 I I #
point $-1 47.485427218668107 -5.7138555968293971 5.8732855682105267 #
edge $-1 $367 1 $367 0 $222 $-1 forward 7 unknown #
vertex $-1 $223 $368 #
ellipse-curve $-1 46.389585724426723 -2.285542238731761 5.6516294843806074 0.78801076186113728 0 0.61566146476048833 0.30783073238024417 0 -0.39400538093056864 1 I I #
point $-1 47.485427218668107 -2.285542238731761 5.8732855682105267 #
loop $-1 $-1 $312 $226 #
plane-surface $-1 0 24.342538789175034 0 0 -1 0 0 0 -1 forward_v I I I I #
coedge $-1 $230 $229 $318 $369 reversed $96 $-1 #
coedge $-1 $370 $371 $230 $313 forward $309 $-1 #
edge $-1 $315 -62.470192666227305 $372 -56.663362257972139 $312 $373 forward 7 unknown #
coedge $-1 $236 $231 $371 $374 reversed $152 $-1 #
vertex $-1 $232 $375 #
straight-curve $-1 48.965117343668936 9.3143415961728184 3.9793685221373138 0 1 0 I I #
coedge $-1 $376 $233 $236 $322 forward $227 $-1 #
coedge $-1 $233 $376 $311 $369 forward $227 $-1 #
vertex $-1 $234 $377 #
straight-curve $-1 32.921662228466609 12.91482759551624 8.5552133761448914 1 0 0 I I #
straight-curve $-1 -11.326754388275873 12.91482759551624 81.149447367346397 -0.61566146476048833 0 0.78801076186113728 I I #
edge $-1 $237 12.91482759551624 $378 24.342538789175034 $236 $379 forward 7 unknown #
point $-1 48.965117343668936 12.91482759551624 8.5552133761448932 #
point $-1 48.965117343668936 12.91482759551624 3.979368522137321 #
edge $-1 $380 1 $380 0 $240 $-1 forward 7 unknown #
vertex $-1 $241 $381 #
ellipse-curve $-1 46.389585724426723 15.200369834247997 5.6516294843806074 0.78801076186113728 0 0.61566146476048833 0.30783073238024417 0 -0.39400538093056864 1 I I #
point $-1 47.485427218668107 15.200369834247997 5.8732855682105267 #
edge $-1 $382 1 $382 0 $244 $-1 forward 7 unknown #
vertex $-1 $245 $383 #
ellipse-curve $-1 46.389585724426723 18.628683192345637 5.6516294843806074 0.78801076186113728 0 0.61566146476048833 0.30783073238024417 0 -0.39400538093056864 1 I I #
point $-1 47.485427218668107 18.628683192345637 5.8732855682105267 #
edge $-1 $384 1 $384 0 $248 $-1 forward 7 unknown #
vertex $-1 $249 $385 #
ellipse-curve $-1 46.389585724426723 22.056996550443277 5.6516294843806074 0.78801076186113728 0 0.61566146476048833 0.30783073238024417 0 -0.39400538093056864 1 I I #
point $-1 47.485427218668107 22.056996550443277 5.8732855682105267 #
plane-surface $-1 48.965117343668936 0 0 -1 0 0 0 0 1 forward_v I I I I #
coedge $-1 $257 $255 $259 $342 reversed $181 $-1 #
edge $-1 $270 -8.5552133761448932 $344 8.5552133761448932 $269 $386 forward 7 unknown #
vertex $-1 $342 $387 #
straight-curve $-1 -48.965117343668936 -24.342538789175034 0 0 0 -1 I I #
edge $-1 $340 -24.342538789175034 $344 24.342538789175034 $338 $388 forward 7 unknown #
straight-curve $-1 0 -24.342538789175034 -8.5552133761448932 -1 0 0 I I #
vertex $-1 $262 $389 #
straight-curve $-1 0 24.342538789175034 -8.5552133761448932 1 0 0 I I #
point $-1 48.965117343668936 24.342538789175034 -8.5552133761448932 #
point $-1 48.965117343668936 -24.342538789175034 -8.5552133761448932 #
straight-curve $-1 -48.965117343668936 0 8.5552133761448932 0 -1 0 I I #
point $-1 -48.965117343668936 24.342538789175034 8.5552133761448932 #
point $-1 -48.965117343668936 -24.342538789175034 8.5552133761448932 #
straight-curve $-1 48.965117343668936 -24.342538789175034 0 0 0 -1 I I #
straight-curve $-1 48.965117343668936 24.342538789175034 0 0 0 -1 I I #
coedge $-1 $290 $289 $282 $354 forward $279 $-1 #
edge $-1 $355 62.165446173500712 $358 66.741291027508282 $353 $390 forward 7 unknown #
vertex $-1 $294 $391 #
straight-curve $-1 32.921662228466609 -11.427711193658794 8.5552133761448914 1 0 0 I I #
edge $-1 $358 -8.5707833952440957 $291 2.8569277984146977 $290 $392 forward 7 unknown #
vertex $-1 $357 $393 #
straight-curve $-1 -11.326754388275873 -11.427711193658794 81.149447367346397 -0.61566146476048833 0 0.78801076186113728 I I #
point $-1 45.390075628906814 -11.427711193658794 8.5552133761448914 #
point $-1 48.965117343668936 -8.8817841970012523e-016 3.979368522137321 #
straight-curve $-1 48.965117343668936 0 8.5552133761448932 0 1 0 I I #
vertex $-1 $297 $394 #
point $-1 46.69741645680697 -9.1421689549270333 5.2576241034500386 #
vertex $-1 $301 $395 #
point $-1 46.69741645680697 -5.7138555968293971 5.2576241034500386 #
vertex $-1 $305 $396 #
point $-1 46.69741645680697 -2.285542238731761 5.2576241034500386 #
edge $-1 $372 -15.028197193002216 $319 -3.6004859993434213 $318 $397 forward 7 unknown #
coedge $-1 $371 $312 $376 $398 reversed $309 $-1 #
coedge $-1 $312 $370 $314 $374 forward $309 $-1 #
vertex $-1 $313 $399 #
straight-curve $-1 10.504627022909517 24.342538789175034 53.206552638663126 -0.61566146476048833 0 0.78801076186113728 I I #
edge $-1 $378 -8.5552133761448932 $315 -3.9793685221373152 $314 $400 forward 7 unknown #
point $-1 48.965117343668936 24.342538789175034 3.9793685221373152 #
coedge $-1 $318 $317 $370 $398 forward $227 $-1 #
point $-1 45.390075628906814 12.91482759551624 8.5552133761448914 #
vertex $-1 $322 $401 #
straight-curve $-1 48.965117343668936 0 8.5552133761448932 0 1 0 I I #
vertex $-1 $325 $402 #
point $-1 46.69741645680697 15.200369834247997 5.2576241034500386 #
vertex $-1 $329 $403 #
point $-1 46.69741645680697 18.628683192345637 5.2576241034500386 #
vertex $-1 $333 $404 #
point $-1 46.69741645680697 22.056996550443277 5.2576241034500386 #
straight-curve $-1 -48.965117343668936 24.342538789175034 0 0 0 -1 I I #
point $-1 -48.965117343668936 -24.342538789175034 -8.5552133761448932 #
straight-curve $-1 -48.965117343668936 0 -8.5552133761448932 0 1 0 I I #
point $-1 -48.965117343668936 24.342538789175034 -8.5552133761448932 #
straight-curve $-1 48.965117343668936 -11.427711193658794 70.720659549645603 0 0 -1 I I #
point $-1 48.965117343668936 -11.427711193658794 8.5552133761448932 #
straight-curve $-1 48.965117343668936 -2.8569277984146986 3.9793685221373138 0 1 0 I I #
point $-1 48.965117343668936 -11.427711193658794 3.979368522137321 #
point $-1 45.995580343496158 -9.1421689549270333 5.3437987520003629 #
point $-1 45.995580343496158 -5.7138555968293971 5.3437987520003629 #
point $-1 45.995580343496158 -2.285542238731761 5.3437987520003629 #
straight-curve $-1 45.390075628906814 9.3143415961728184 8.5552133761448914 0 -1 0 I I #
edge $-1 $378 -48.965117343668936 $372 -45.390075628906814 $370 $405 forward 7 unknown #
point $-1 45.390075628906814 24.342538789175034 8.5552133761448914 #
straight-curve $-1 48.965117343668936 24.342538789175034 0 0 0 -1 I I #
point $-1 48.965117343668936 24.342538789175034 8.5552133761448932 #
point $-1 45.995580343496158 15.200369834247997 5.3437987520003629 #
point $-1 45.995580343496158 18.628683192345637 5.3437987520003629 #
point $-1 45.995580343496158 22.056996550443277 5.3437987520003629 #
straight-curve $-1 0 24.342538789175034 8.5552133761448932 -1 0 0 I I #
End-of-ACIS-data 