500 0 15 0           
7 Unknown 11 ACIS 5.0 NT 24 Fri Mar 26 18:00:35 1999 
-1 9.9999999999999995e-007 1e-010 
body $-1 $15 $-1 $16 #
body $-1 $17 $-1 $18 #
body $-1 $19 $-1 $20 #
body $-1 $21 $-1 $22 #
body $-1 $23 $-1 $24 #
body $-1 $25 $-1 $26 #
body $-1 $27 $-1 $28 #
body $-1 $29 $-1 $30 #
body $-1 $31 $-1 $32 #
body $-1 $33 $-1 $34 #
body $-1 $35 $-1 $36 #
body $-1 $37 $-1 $38 #
body $-1 $39 $-1 $40 #
body $-1 $41 $-1 $42 #
body $-1 $43 $-1 $44 #
lump $-1 $-1 $45 $0 #
transform $-1 1 0 0 0 1 0 0 0 1 55.255592516861476 35.285367766932211 14.97552488553716 1 rotate no_reflect no_shear #
lump $-1 $-1 $46 $1 #
transform $-1 1 0 0 0 1 0 0 0 1 55.255592516861476 35.285367766932211 14.97552488553716 1 rotate no_reflect no_shear #
lump $-1 $-1 $47 $2 #
transform $-1 1 0 0 0 1 0 0 0 1 55.255592516861476 35.285367766932211 14.97552488553716 1 rotate no_reflect no_shear #
lump $-1 $-1 $48 $3 #
transform $-1 1 0 0 0 1 0 0 0 1 55.255592516861476 35.285367766932211 14.97552488553716 1 rotate no_reflect no_shear #
lump $-1 $-1 $49 $4 #
transform $-1 1 0 0 0 1 0 0 0 1 55.255592516861476 35.285367766932211 14.97552488553716 1 rotate no_reflect no_shear #
lump $-1 $-1 $50 $5 #
transform $-1 1 0 0 0 1 0 0 0 1 55.255592516861476 35.285367766932211 14.97552488553716 1 rotate no_reflect no_shear #
lump $-1 $-1 $51 $6 #
transform $-1 1 0 0 0 1 0 0 0 1 55.255592516861476 35.285367766932211 14.97552488553716 1 rotate no_reflect no_shear #
lump $-1 $-1 $52 $7 #
transform $-1 1 0 0 0 1 0 0 0 1 55.255592516861476 35.285367766932211 14.97552488553716 1 rotate no_reflect no_shear #
lump $-1 $-1 $53 $8 #
transform $-1 1 0 0 0 1 0 0 0 1 55.255592516861476 35.285367766932211 14.97552488553716 1 rotate no_reflect no_shear #
lump $-1 $-1 $54 $9 #
transform $-1 1 0 0 0 1 0 0 0 1 55.255592516861476 35.285367766932211 14.97552488553716 1 rotate no_reflect no_shear #
lump $-1 $-1 $55 $10 #
transform $-1 1 0 0 0 1 0 0 0 1 55.255592516861476 35.285367766932211 14.97552488553716 1 rotate no_reflect no_shear #
lump $-1 $-1 $56 $11 #
transform $-1 1 0 0 0 1 0 0 0 1 55.255592516861476 35.285367766932211 14.97552488553716 1 rotate no_reflect no_shear #
lump $-1 $-1 $57 $12 #
transform $-1 1 0 0 0 1 0 0 0 1 55.255592516861476 35.285367766932211 14.97552488553716 1 rotate no_reflect no_shear #
lump $-1 $-1 $58 $13 #
transform $-1 1 0 0 0 1 0 0 0 1 55.255592516861476 35.285367766932211 14.97552488553716 1 rotate no_reflect no_shear #
lump $-1 $-1 $59 $14 #
transform $-1 1 0 0 0 1 0 0 0 1 55.255592516861476 35.285367766932211 14.97552488553716 1 rotate no_reflect no_shear #
shell $-1 $-1 $-1 $60 $-1 $15 #
shell $-1 $-1 $-1 $61 $-1 $17 #
shell $-1 $-1 $-1 $62 $-1 $19 #
shell $-1 $-1 $-1 $63 $-1 $21 #
shell $-1 $-1 $-1 $64 $-1 $23 #
shell $-1 $-1 $-1 $65 $-1 $25 #
shell $-1 $-1 $-1 $66 $-1 $27 #
shell $-1 $-1 $-1 $67 $-1 $29 #
shell $-1 $-1 $-1 $68 $-1 $31 #
shell $-1 $-1 $-1 $69 $-1 $33 #
shell $-1 $-1 $-1 $70 $-1 $35 #
shell $-1 $-1 $-1 $71 $-1 $37 #
shell $-1 $-1 $-1 $72 $-1 $39 #
shell $-1 $-1 $-1 $73 $-1 $41 #
shell $-1 $-1 $-1 $74 $-1 $43 #
face $-1 $75 $76 $45 $-1 $77 forward single #
face $-1 $78 $79 $46 $-1 $80 forward single #
face $-1 $81 $82 $47 $-1 $83 forward single #
face $-1 $84 $85 $48 $-1 $86 reversed single #
face $-1 $87 $88 $49 $-1 $89 forward single #
face $-1 $90 $91 $50 $-1 $92 reversed single #
face $-1 $93 $94 $51 $-1 $95 forward single #
face $-1 $96 $97 $52 $-1 $98 reversed single #
face $-1 $99 $100 $53 $-1 $101 forward single #
face $-1 $102 $103 $54 $-1 $104 forward single #
face $-1 $105 $106 $55 $-1 $107 forward single #
face $-1 $108 $109 $56 $-1 $110 reversed single #
face $-1 $111 $112 $57 $-1 $113 forward single #
face $-1 $114 $115 $58 $-1 $116 forward single #
face $-1 $117 $118 $59 $-1 $119 forward single #
face $-1 $120 $121 $45 $-1 $122 reversed single #
loop $-1 $-1 $123 $60 #
plane-surface $-1 0 0 14.97552488553716 0 0 1 1 0 0 forward_v I I I I #
face $-1 $124 $125 $46 $-1 $126 reversed single #
loop $-1 $-1 $127 $61 #
plane-surface $-1 -55.255592516861476 0 0 1 0 0 0 0 -1 forward_v I I I I #
face $-1 $128 $129 $47 $-1 $130 reversed single #
loop $-1 $-1 $131 $62 #
plane-surface $-1 50.021078251693119 0 -6.4708951257598049 0 0 1 1 0 0 forward_v I I I I #
face $-1 $132 $133 $48 $-1 $134 reversed single #
loop $-1 $-1 $135 $63 #
plane-surface $-1 0.21944328970582916 33.999996797485764 137.83375690235866 -1 0 0 0 0.52991927123019833 0.84804809178421925 forward_v I I I I #
face $-1 $136 $137 $49 $-1 $138 forward single #
loop $-1 $139 $140 $64 #
cone-surface $-1 -7.170644102917727 26.575693452852853 7.4822934431965544 0 -0.52991927123019833 -0.84804809178421925 2 0 0 1 I I 0 1 2 forward I I I I #
face $-1 $141 $142 $50 $-1 $143 reversed single #
loop $-1 $-1 $144 $65 #
plane-surface $-1 -7.170644102917727 -24.562009838370301 44.114957313697133 0 0.52991927123019833 0.84804809178421925 1 0 0 forward_v I I I I #
face $-1 $145 $146 $51 $-1 $147 forward single #
loop $-1 $148 $149 $66 #
cone-surface $-1 7.6095306823293853 26.575693452852853 7.4822934431965544 0 -0.52991927123019833 -0.84804809178421925 2 0 0 1 I I 0 1 2 forward I I I I #
face $-1 $150 $151 $52 $-1 $152 reversed single #
loop $-1 $-1 $153 $67 #
plane-surface $-1 -26.179982531302411 -93.847374402788276 100.47899380258957 -1 0 0 0 -0.52991927123019833 0.84804809178421925 forward_v I I I I #
face $-1 $154 $155 $53 $-1 $156 forward single #
loop $-1 $157 $158 $68 #
cone-surface $-1 -40.714138431950971 -27.422134193722123 8.8040761434109314 0 0.52991927123019833 -0.84804809178421925 1.5 0 0 1 I I 0 1 1.5 forward I I I I #
face $-1 $159 $160 $54 $-1 $161 forward single #
loop $-1 $162 $163 $69 #
cone-surface $-1 -35.263829969207762 -27.422134193722123 8.8040761434109314 0 0.52991927123019833 -0.84804809178421925 1.5 0 0 1 I I 0 1 1.5 forward I I I I #
face $-1 $164 $165 $55 $-1 $166 forward single #
loop $-1 $167 $168 $70 #
cone-surface $-1 -29.813521506464554 -27.422134193722123 8.8040761434109314 0 0.52991927123019833 -0.84804809178421925 1.5 0 0 1 I I 0 1 1.5 forward I I I I #
face $-1 $169 $170 $56 $-1 $171 reversed single #
loop $-1 $-1 $172 $71 #
plane-surface $-1 44.786563986524754 -93.847374402788276 100.47899380258957 -1 0 0 0 -0.52991927123019833 0.84804809178421925 forward_v I I I I #
face $-1 $173 $174 $57 $-1 $175 forward single #
loop $-1 $176 $177 $72 #
cone-surface $-1 30.252408085876191 -27.422134193722123 8.8040761434109314 0 0.52991927123019833 -0.84804809178421925 1.5 0 0 1 I I 0 1 1.5 forward I I I I #
face $-1 $178 $179 $58 $-1 $180 forward single #
loop $-1 $181 $182 $73 #
cone-surface $-1 35.702716548619399 -27.422134193722123 8.8040761434109314 0 0.52991927123019833 -0.84804809178421925 1.5 0 0 1 I I 0 1 1.5 forward I I I I #
face $-1 $183 $184 $59 $-1 $185 forward single #
loop $-1 $186 $187 $74 #
cone-surface $-1 41.153025011362608 -27.422134193722123 8.8040761434109314 0 0.52991927123019833 -0.84804809178421925 1.5 0 0 1 I I 0 1 1.5 forward I I I I #
face $-1 $188 $189 $45 $-1 $190 reversed single #
loop $-1 $-1 $191 $75 #
plane-surface $-1 0 0 -14.97552488553716 0 0 1 1 0 0 forward_v I I I I #
coedge $-1 $192 $193 $194 $195 forward $76 $-1 #
face $-1 $196 $197 $46 $-1 $198 forward single #
loop $-1 $-1 $199 $78 #
plane-surface $-1 0 35.285367766932211 0 0 -1 0 0 0 -1 forward_v I I I I #
coedge $-1 $200 $201 $202 $203 forward $79 $-1 #
face $-1 $204 $205 $47 $-1 $206 reversed single #
loop $-1 $-1 $207 $81 #
plane-surface $-1 50.021078251693119 0 -11.381507164858368 0 0 1 1 0 0 forward_v I I I I #
coedge $-1 $208 $209 $210 $211 reversed $82 $-1 #
face $-1 $212 $213 $48 $-1 $214 reversed single #
loop $-1 $-1 $215 $84 #
plane-surface $-1 -7.170644102917727 -24.562009838370301 44.114957313697133 0 0.52991927123019833 0.84804809178421925 1 0 0 forward_v I I I I #
coedge $-1 $216 $217 $218 $219 reversed $85 $-1 #
face $-1 $-1 $220 $49 $-1 $221 forward single #
loop $-1 $222 $223 $87 #
cone-surface $-1 -7.170644102917727 23.943369162550852 3.269694067133992 0 -0.52991927123019833 -0.84804809178421925 1 0 0 1 I I -0.70710678118654746 0.70710678118654746 1 forward I I I I #
loop $-1 $-1 $224 $64 #
coedge $-1 $140 $140 $225 $226 reversed $88 $-1 #
face $-1 $227 $228 $50 $-1 $229 reversed single #
loop $-1 $-1 $230 $90 #
plane-surface $-1 14.999618074952942 33.999996797485764 137.83375690235866 -1 0 0 0 0.52991927123019833 0.84804809178421925 forward_v I I I I #
coedge $-1 $231 $232 $233 $234 reversed $91 $-1 #
face $-1 $-1 $235 $51 $-1 $236 forward single #
loop $-1 $237 $238 $93 #
cone-surface $-1 7.6095306823293853 23.943369162550852 3.269694067133992 0 -0.52991927123019833 -0.84804809178421925 1 0 0 1 I I -0.70710678118654746 0.70710678118654746 1 forward I I I I #
loop $-1 $-1 $239 $66 #
coedge $-1 $149 $149 $240 $241 reversed $94 $-1 #
face $-1 $242 $243 $52 $-1 $244 reversed single #
loop $-1 $-1 $245 $96 #
plane-surface $-1 -35.263829969207762 -35.285367766932211 6.7601942139280453 0 -0.52991927123019833 0.84804809178421925 1 0 0 forward_v I I I I #
coedge $-1 $246 $247 $248 $249 reversed $97 $-1 #
face $-1 $-1 $250 $53 $-1 $251 forward single #
loop $-1 $252 $253 $99 #
cone-surface $-1 -40.714138431950971 -25.735099717033705 6.1042566682510877 0 0.52991927123019833 -0.84804809178421925 0.75 0 0 1 I I -0.70710678118654757 0.70710678118654757 0.75 forward I I I I #
loop $-1 $-1 $254 $68 #
coedge $-1 $158 $158 $255 $256 reversed $100 $-1 #
face $-1 $-1 $257 $54 $-1 $258 forward single #
loop $-1 $259 $260 $102 #
cone-surface $-1 -35.263829969207762 -25.735099717033705 6.1042566682510877 0 0.52991927123019833 -0.84804809178421925 0.75 0 0 1 I I -0.70710678118654757 0.70710678118654757 0.75 forward I I I I #
loop $-1 $-1 $261 $69 #
coedge $-1 $163 $163 $262 $263 reversed $103 $-1 #
face $-1 $-1 $264 $55 $-1 $265 forward single #
loop $-1 $266 $267 $105 #
cone-surface $-1 -29.813521506464554 -25.735099717033705 6.1042566682510877 0 0.52991927123019833 -0.84804809178421925 0.75 0 0 1 I I -0.70710678118654757 0.70710678118654757 0.75 forward I I I I #
loop $-1 $-1 $268 $70 #
coedge $-1 $168 $168 $269 $270 reversed $106 $-1 #
face $-1 $271 $272 $56 $-1 $273 reversed single #
loop $-1 $-1 $274 $108 #
plane-surface $-1 35.702716548619399 -35.285367766932211 6.7601942139280453 0 -0.52991927123019833 0.84804809178421925 1 0 0 forward_v I I I I #
coedge $-1 $275 $276 $277 $278 reversed $109 $-1 #
face $-1 $-1 $279 $57 $-1 $280 forward single #
loop $-1 $281 $282 $111 #
cone-surface $-1 30.252408085876191 -25.735099717033705 6.1042566682510877 0 0.52991927123019833 -0.84804809178421925 0.75 0 0 1 I I -0.70710678118654757 0.70710678118654757 0.75 forward I I I I #
loop $-1 $-1 $283 $72 #
coedge $-1 $177 $177 $284 $285 reversed $112 $-1 #
face $-1 $-1 $286 $58 $-1 $287 forward single #
loop $-1 $288 $289 $114 #
cone-surface $-1 35.702716548619399 -25.735099717033705 6.1042566682510877 0 0.52991927123019833 -0.84804809178421925 0.75 0 0 1 I I -0.70710678118654757 0.70710678118654757 0.75 forward I I I I #
loop $-1 $-1 $290 $73 #
coedge $-1 $182 $182 $291 $292 reversed $115 $-1 #
face $-1 $-1 $293 $59 $-1 $294 forward single #
loop $-1 $295 $296 $117 #
cone-surface $-1 41.153025011362608 -25.735099717033705 6.1042566682510877 0 0.52991927123019833 -0.84804809178421925 0.75 0 0 1 I I -0.70710678118654757 0.70710678118654757 0.75 forward I I I I #
loop $-1 $-1 $297 $74 #
coedge $-1 $187 $187 $298 $299 reversed $118 $-1 #
face $-1 $300 $301 $45 $-1 $302 reversed single #
loop $-1 $-1 $303 $120 #
plane-surface $-1 0 -35.285367766932211 0 0 1 0 0 0 1 forward_v I I I I #
coedge $-1 $304 $305 $306 $307 forward $121 $-1 #
coedge $-1 $308 $123 $309 $310 forward $76 $-1 #
coedge $-1 $123 $308 $311 $312 forward $76 $-1 #
coedge $-1 $313 $314 $123 $195 reversed $315 $-1 #
edge $-1 $316 -35.285367766932211 $317 35.285367766932211 $194 $318 forward 7 unknown #
face $-1 $319 $320 $46 $-1 $321 reversed single #
loop $-1 $-1 $202 $124 #
plane-surface $-1 -60.709550071735656 0 1.0765697767492304 0 0 1 1 0 0 forward_v I I I I #
coedge $-1 $322 $323 $201 $324 forward $125 $-1 #
coedge $-1 $325 $127 $326 $327 reversed $79 $-1 #
coedge $-1 $127 $325 $199 $324 reversed $79 $-1 #
coedge $-1 $328 $329 $127 $203 reversed $197 $-1 #
edge $-1 $330 -35.285367766932211 $331 35.285367766932211 $202 $332 forward 7 unknown #
face $-1 $333 $334 $47 $-1 $335 reversed single #
loop $-1 $-1 $336 $128 #
plane-surface $-1 44.786563986524762 0 -8.9262011453090864 1 0 0 0 0 -1 forward_v I I I I #
coedge $-1 $337 $338 $339 $340 reversed $129 $-1 #
coedge $-1 $341 $131 $342 $343 reversed $82 $-1 #
coedge $-1 $131 $341 $344 $345 reversed $82 $-1 #
coedge $-1 $346 $347 $131 $211 forward $348 $-1 #
edge $-1 $349 -35.285367766932211 $350 35.285367766932211 $210 $351 forward 7 unknown #
face $-1 $352 $353 $48 $-1 $354 reversed single #
loop $-1 $-1 $355 $132 #
plane-surface $-1 -14.560731495541283 33.999996797485764 137.83375690235866 1 0 0 0 -0.52991927123019833 -0.84804809178421925 forward_v I I I I #
coedge $-1 $356 $357 $358 $359 reversed $133 $-1 #
coedge $-1 $217 $135 $360 $361 reversed $85 $-1 #
coedge $-1 $135 $216 $356 $362 reversed $85 $-1 #
coedge $-1 $358 $363 $135 $219 forward $353 $-1 #
edge $-1 $364 53.941353565642167 $365 62.198713881766686 $218 $366 forward 7 unknown #
loop $-1 $-1 $225 $136 #
plane-surface $-1 -7.170644102917727 -24.562009838370301 44.114957313697133 0 0.52991927123019833 0.84804809178421925 1 0 0 forward_v I I I I #
loop $-1 $-1 $367 $87 #
coedge $-1 $223 $223 $224 $368 reversed $137 $-1 #
coedge $-1 $224 $224 $223 $368 forward $139 $-1 #
coedge $-1 $225 $225 $140 $226 forward $220 $-1 #
edge $-1 $369 -5.6511030620146994e-016 $369 6.2831853071795996 $225 $370 forward 7 unknown #
face $-1 $371 $372 $50 $-1 $373 forward single #
loop $-1 $-1 $374 $141 #
plane-surface $-1 0 35.285367766932211 0 0 -1 0 0 0 -1 forward_v I I I I #
coedge $-1 $375 $376 $377 $378 reversed $142 $-1 #
coedge $-1 $379 $144 $380 $381 reversed $91 $-1 #
coedge $-1 $144 $379 $382 $383 reversed $91 $-1 #
coedge $-1 $384 $385 $144 $234 forward $372 $-1 #
edge $-1 $386 -70.570735533864422 $387 -54.988436937787313 $233 $388 forward 7 unknown #
loop $-1 $-1 $240 $145 #
plane-surface $-1 -7.170644102917727 -24.562009838370301 44.114957313697133 0 0.52991927123019833 0.84804809178421925 1 0 0 forward_v I I I I #
loop $-1 $-1 $389 $93 #
coedge $-1 $238 $238 $239 $390 reversed $146 $-1 #
coedge $-1 $239 $239 $238 $390 forward $148 $-1 #
coedge $-1 $240 $240 $149 $241 forward $235 $-1 #
edge $-1 $391 -5.6511030620146994e-016 $391 6.2831853071795996 $240 $392 forward 7 unknown #
face $-1 $393 $394 $52 $-1 $395 forward single #
loop $-1 $-1 $396 $150 #
plane-surface $-1 -44.34767740711311 -93.847374402788276 100.47899380258957 1 0 0 0 0.52991927123019833 -0.84804809178421925 forward_v I I I I #
coedge $-1 $397 $398 $399 $400 reversed $151 $-1 #
coedge $-1 $247 $153 $401 $402 reversed $97 $-1 #
coedge $-1 $153 $246 $397 $403 reversed $97 $-1 #
coedge $-1 $399 $404 $153 $249 forward $394 $-1 #
edge $-1 $405 11.638319434461927 $406 24.785596534350596 $248 $407 forward 7 unknown #
loop $-1 $-1 $255 $154 #
plane-surface $-1 -35.263829969207762 -35.285367766932211 6.7601942139280453 0 -0.52991927123019833 0.84804809178421925 1 0 0 forward_v I I I I #
loop $-1 $-1 $408 $99 #
coedge $-1 $253 $253 $254 $409 reversed $155 $-1 #
coedge $-1 $254 $254 $253 $409 forward $157 $-1 #
coedge $-1 $255 $255 $158 $256 forward $250 $-1 #
edge $-1 $410 -2.5185985416424116e-016 $410 6.2831853071796004 $255 $411 forward 7 unknown #
loop $-1 $-1 $262 $159 #
plane-surface $-1 -35.263829969207762 -35.285367766932211 6.7601942139280453 0 -0.52991927123019833 0.84804809178421925 1 0 0 forward_v I I I I #
loop $-1 $-1 $412 $102 #
coedge $-1 $260 $260 $261 $413 reversed $160 $-1 #
coedge $-1 $261 $261 $260 $413 forward $162 $-1 #
coedge $-1 $262 $262 $163 $263 forward $257 $-1 #
edge $-1 $414 -2.5185985416424116e-016 $414 6.2831853071796004 $262 $415 forward 7 unknown #
loop $-1 $-1 $269 $164 #
plane-surface $-1 -35.263829969207762 -35.285367766932211 6.7601942139280453 0 -0.52991927123019833 0.84804809178421925 1 0 0 forward_v I I I I #
loop $-1 $-1 $416 $105 #
coedge $-1 $267 $267 $268 $417 reversed $165 $-1 #
coedge $-1 $268 $268 $267 $417 forward $167 $-1 #
coedge $-1 $269 $269 $168 $270 forward $264 $-1 #
edge $-1 $418 -2.5185985416424116e-016 $418 6.2831853071796004 $269 $419 forward 7 unknown #
face $-1 $420 $421 $56 $-1 $422 reversed single #
loop $-1 $-1 $423 $169 #
plane-surface $-1 26.618869110714048 -93.847374402788276 100.47899380258957 1 0 0 0 0.52991927123019833 -0.84804809178421925 forward_v I I I I #
coedge $-1 $424 $425 $426 $427 reversed $170 $-1 #
coedge $-1 $276 $172 $428 $429 reversed $109 $-1 #
coedge $-1 $172 $275 $424 $430 reversed $109 $-1 #
coedge $-1 $426 $431 $172 $278 forward $432 $-1 #
edge $-1 $433 11.638319434461927 $434 24.785596534350596 $277 $435 forward 7 unknown #
loop $-1 $-1 $284 $173 #
plane-surface $-1 35.702716548619399 -35.285367766932211 6.7601942139280453 0 -0.52991927123019833 0.84804809178421925 1 0 0 forward_v I I I I #
loop $-1 $-1 $436 $111 #
coedge $-1 $282 $282 $283 $437 reversed $174 $-1 #
coedge $-1 $283 $283 $282 $437 forward $176 $-1 #
coedge $-1 $284 $284 $177 $285 forward $279 $-1 #
edge $-1 $438 -2.5185985416424116e-016 $438 6.2831853071796004 $284 $439 forward 7 unknown #
loop $-1 $-1 $291 $178 #
plane-surface $-1 35.702716548619399 -35.285367766932211 6.7601942139280453 0 -0.52991927123019833 0.84804809178421925 1 0 0 forward_v I I I I #
loop $-1 $-1 $440 $114 #
coedge $-1 $289 $289 $290 $441 reversed $179 $-1 #
coedge $-1 $290 $290 $289 $441 forward $181 $-1 #
coedge $-1 $291 $291 $182 $292 forward $286 $-1 #
edge $-1 $442 -2.5185985416424116e-016 $442 6.2831853071796004 $291 $443 forward 7 unknown #
loop $-1 $-1 $298 $183 #
plane-surface $-1 35.702716548619399 -35.285367766932211 6.7601942139280453 0 -0.52991927123019833 0.84804809178421925 1 0 0 forward_v I I I I #
loop $-1 $-1 $444 $117 #
coedge $-1 $296 $296 $297 $445 reversed $184 $-1 #
coedge $-1 $297 $297 $296 $445 forward $186 $-1 #
coedge $-1 $298 $298 $187 $299 forward $293 $-1 #
edge $-1 $446 -2.5185985416424116e-016 $446 6.2831853071796004 $298 $447 forward 7 unknown #
face $-1 $448 $449 $45 $-1 $450 reversed single #
loop $-1 $-1 $451 $188 #
plane-surface $-1 -55.255592516861476 0 0 1 0 0 0 0 -1 forward_v I I I I #
coedge $-1 $452 $311 $453 $454 forward $189 $-1 #
coedge $-1 $455 $191 $452 $456 forward $121 $-1 #
coedge $-1 $191 $455 $457 $458 forward $121 $-1 #
coedge $-1 $314 $313 $191 $307 reversed $315 $-1 #
edge $-1 $459 -35.285367766932211 $460 35.285367766932211 $306 $461 forward 7 unknown #
coedge $-1 $193 $192 $462 $463 forward $76 $-1 #
coedge $-1 $464 $465 $192 $310 reversed $449 $-1 #
edge $-1 $317 -55.255592516861476 $466 55.255592516861476 $309 $467 forward 7 unknown #
coedge $-1 $303 $468 $193 $312 reversed $189 $-1 #
edge $-1 $469 -55.255592516861476 $316 55.255592516861476 $311 $470 forward 7 unknown #
coedge $-1 $306 $194 $468 $471 forward $315 $-1 #
coedge $-1 $194 $306 $464 $472 reversed $315 $-1 #
loop $-1 $-1 $313 $448 #
vertex $-1 $195 $473 #
vertex $-1 $195 $474 #
straight-curve $-1 55.255592516861476 0 14.97552488553716 0 1 0 I I #
face $-1 $475 $476 $46 $-1 $477 reversed single #
loop $-1 $-1 $478 $196 #
plane-surface $-1 -60.709550071735656 0 -4.522696118287544 0 0 1 1 0 0 forward_v I I I I #
coedge $-1 $479 $199 $480 $481 reversed $125 $-1 #
coedge $-1 $199 $479 $328 $482 reversed $125 $-1 #
edge $-1 $330 -1.0765697767492304 $483 4.522696118287544 $199 $484 forward 7 unknown #
coedge $-1 $201 $200 $478 $485 forward $79 $-1 #
coedge $-1 $486 $487 $200 $327 forward $488 $-1 #
edge $-1 $489 -4.522696118287544 $331 1.0765697767492304 $326 $490 forward 7 unknown #
coedge $-1 $491 $202 $323 $482 forward $197 $-1 #
coedge $-1 $202 $491 $486 $492 forward $197 $-1 #
vertex $-1 $324 $493 #
vertex $-1 $492 $494 #
straight-curve $-1 -55.255592516861476 0 1.0765697767492304 0 -1 0 I I #
face $-1 $495 $496 $47 $-1 $497 reversed single #
loop $-1 $-1 $344 $204 #
plane-surface $-1 0 -35.285367766932211 0 0 1 0 0 0 1 forward_v I I I I #
coedge $-1 $498 $499 $500 $501 reversed $205 $-1 #
coedge $-1 $502 $207 $503 $504 reversed $129 $-1 #
coedge $-1 $207 $502 $505 $506 reversed $129 $-1 #
coedge $-1 $347 $346 $207 $340 forward $348 $-1 #
edge $-1 $507 -35.285367766932211 $508 35.285367766932211 $339 $509 forward 7 unknown #
coedge $-1 $209 $208 $499 $510 forward $82 $-1 #
coedge $-1 $511 $500 $208 $343 forward $496 $-1 #
edge $-1 $512 19.776024860678202 $349 30.245053391014917 $342 $513 forward 7 unknown #
coedge $-1 $514 $515 $209 $345 forward $334 $-1 #
edge $-1 $350 -30.245053391014917 $516 -19.776024860678202 $344 $517 forward 7 unknown #
coedge $-1 $339 $210 $515 $518 forward $348 $-1 #
coedge $-1 $210 $339 $511 $519 reversed $348 $-1 #
loop $-1 $-1 $210 $495 #
vertex $-1 $519 $520 #
vertex $-1 $518 $521 #
straight-curve $-1 55.255592516861476 0 -6.4708951257598049 0 -1 0 I I #
face $-1 $-1 $522 $48 $-1 $523 forward single #
loop $-1 $-1 $218 $212 #
plane-surface $-1 0 35.285367766932211 0 0 -1 0 0 0 -1 forward_v I I I I #
coedge $-1 $524 $525 $526 $527 reversed $213 $-1 #
coedge $-1 $528 $215 $217 $362 forward $133 $-1 #
coedge $-1 $215 $528 $524 $529 forward $133 $-1 #
coedge $-1 $526 $218 $215 $359 forward $353 $-1 #
edge $-1 $365 -3.8047653411646927 $530 10.97540944408242 $358 $531 forward 7 unknown #
coedge $-1 $532 $533 $216 $361 forward $522 $-1 #
edge $-1 $534 5.0708307781742263 $364 18.285369368189329 $360 $535 forward 7 unknown #
edge $-1 $365 -70.570735533864422 $534 -54.988436937787313 $217 $536 forward 7 unknown #
coedge $-1 $218 $526 $532 $537 reversed $353 $-1 #
vertex $-1 $537 $538 #
vertex $-1 $219 $539 #
straight-curve $-1 0.21944328970582916 35.285367766932211 68.916878451179329 0 0 -1 I I #
coedge $-1 $367 $367 $-1 $540 reversed $222 $-1 #
edge $-1 $541 0 $541 6.2831853071796004 $223 $542 forward 7 unknown #
vertex $-1 $226 $543 #
ellipse-curve $-1 -7.170644102917727 28.67809847192466 10.846844727474902 0 0.52991927123019833 0.84804809178421925 2 0 0 1 I I #
face $-1 $-1 $544 $50 $-1 $545 forward single #
loop $-1 $-1 $385 $227 #
plane-surface $-1 0.21944328970582916 33.999996797485764 137.83375690235866 -1 0 0 0 0.52991927123019833 0.84804809178421925 forward_v I I I I #
coedge $-1 $380 $546 $376 $547 forward $228 $-1 #
coedge $-1 $376 $230 $379 $548 reversed $142 $-1 #
coedge $-1 $230 $375 $374 $547 reversed $142 $-1 #
coedge $-1 $549 $382 $230 $378 forward $544 $-1 #
edge $-1 $550 5.0708307781742263 $551 18.285369368189329 $377 $552 forward 7 unknown #
coedge $-1 $232 $231 $375 $548 forward $91 $-1 #
coedge $-1 $553 $374 $231 $381 forward $228 $-1 #
edge $-1 $554 -18.584940126411805 $386 -3.8047653411646927 $380 $555 forward 7 unknown #
coedge $-1 $377 $556 $232 $383 forward $544 $-1 #
edge $-1 $387 3.8047653411646927 $550 18.584940126411805 $382 $557 forward 7 unknown #
coedge $-1 $385 $233 $556 $558 reversed $372 $-1 #
coedge $-1 $233 $384 $553 $559 reversed $372 $-1 #
vertex $-1 $381 $560 #
vertex $-1 $383 $561 #
straight-curve $-1 0.21944328970582916 -24.562009838370301 44.114957313697133 0 -0.84804809178421925 0.52991927123019833 I I #
coedge $-1 $389 $389 $-1 $562 reversed $237 $-1 #
edge $-1 $563 0 $563 6.2831853071796004 $238 $564 forward 7 unknown #
vertex $-1 $241 $565 #
ellipse-curve $-1 7.6095306823293853 28.67809847192466 10.846844727474902 0 0.52991927123019833 0.84804809178421925 2 0 0 1 I I #
face $-1 $-1 $566 $52 $-1 $567 reversed single #
loop $-1 $-1 $248 $242 #
plane-surface $-1 0 0 14.97552488553716 0 0 1 1 0 0 forward_v I I I I #
coedge $-1 $568 $569 $570 $571 reversed $243 $-1 #
coedge $-1 $572 $245 $247 $403 forward $151 $-1 #
coedge $-1 $245 $572 $568 $573 forward $151 $-1 #
coedge $-1 $570 $248 $245 $400 forward $394 $-1 #
edge $-1 $406 8.5480675466985296 $574 26.715762422509229 $399 $575 forward 7 unknown #
coedge $-1 $576 $577 $246 $402 forward $566 $-1 #
edge $-1 $578 -43.47930268736674 $405 -35.263972015757624 $401 $579 forward 7 unknown #
edge $-1 $406 -15.502985299133147 $578 0 $247 $580 forward 7 unknown #
coedge $-1 $248 $570 $576 $581 forward $394 $-1 #
vertex $-1 $249 $582 #
vertex $-1 $249 $583 #
straight-curve $-1 -26.179982531302411 -46.923687201394138 14.975524885537162 0 1 0 I I #
coedge $-1 $408 $408 $-1 $584 reversed $252 $-1 #
edge $-1 $585 0 $585 6.2831853071796004 $253 $586 forward 7 unknown #
vertex $-1 $256 $587 #
ellipse-curve $-1 -40.714138431950971 -28.711729216987884 10.8678595497326 0 -0.52991927123019833 0.84804809178421925 1.5 0 0 1 I I #
coedge $-1 $412 $412 $-1 $588 reversed $259 $-1 #
edge $-1 $589 0 $589 6.2831853071796004 $260 $590 forward 7 unknown #
vertex $-1 $263 $591 #
ellipse-curve $-1 -35.263829969207762 -28.711729216987884 10.8678595497326 0 -0.52991927123019833 0.84804809178421925 1.5 0 0 1 I I #
coedge $-1 $416 $416 $-1 $592 reversed $266 $-1 #
edge $-1 $593 0 $593 6.2831853071796004 $267 $594 forward 7 unknown #
vertex $-1 $270 $595 #
ellipse-curve $-1 -29.813521506464554 -28.711729216987884 10.8678595497326 0 -0.52991927123019833 0.84804809178421925 1.5 0 0 1 I I #
face $-1 $-1 $432 $56 $-1 $596 forward single #
loop $-1 $-1 $597 $271 #
plane-surface $-1 0 -35.285367766932211 0 0 1 0 0 0 1 forward_v I I I I #
coedge $-1 $598 $599 $600 $601 reversed $272 $-1 #
coedge $-1 $602 $274 $276 $430 forward $170 $-1 #
coedge $-1 $274 $602 $598 $603 forward $170 $-1 #
coedge $-1 $600 $277 $274 $427 forward $432 $-1 #
edge $-1 $434 -26.935205712215055 $604 -8.7675108364043481 $426 $605 forward 7 unknown #
coedge $-1 $606 $607 $275 $429 forward $421 $-1 #
edge $-1 $608 -43.47930268736674 $433 -35.263972015757624 $428 $609 forward 7 unknown #
edge $-1 $434 -15.502985299133147 $608 0 $276 $610 forward 7 unknown #
coedge $-1 $277 $600 $606 $611 forward $432 $-1 #
loop $-1 $-1 $600 $420 #
vertex $-1 $429 $612 #
vertex $-1 $278 $613 #
straight-curve $-1 44.786563986524754 -46.923687201394138 14.975524885537162 0 1 0 I I #
coedge $-1 $436 $436 $-1 $614 reversed $281 $-1 #
edge $-1 $615 0 $615 6.2831853071796004 $282 $616 forward 7 unknown #
vertex $-1 $285 $617 #
ellipse-curve $-1 30.252408085876191 -28.711729216987884 10.8678595497326 0 -0.52991927123019833 0.84804809178421925 1.5 0 0 1 I I #
coedge $-1 $440 $440 $-1 $618 reversed $288 $-1 #
edge $-1 $619 0 $619 6.2831853071796004 $289 $620 forward 7 unknown #
vertex $-1 $292 $621 #
ellipse-curve $-1 35.702716548619399 -28.711729216987884 10.8678595497326 0 -0.52991927123019833 0.84804809178421925 1.5 0 0 1 I I #
coedge $-1 $444 $444 $-1 $622 reversed $295 $-1 #
edge $-1 $623 0 $623 6.2831853071796004 $296 $624 forward 7 unknown #
vertex $-1 $299 $625 #
ellipse-curve $-1 41.153025011362608 -28.711729216987884 10.8678595497326 0 -0.52991927123019833 0.84804809178421925 1.5 0 0 1 I I #
face $-1 $-1 $315 $45 $-1 $626 reversed single #
loop $-1 $-1 $464 $300 #
plane-surface $-1 0 35.285367766932211 0 0 -1 0 0 0 -1 forward_v I I I I #
coedge $-1 $627 $462 $465 $628 forward $301 $-1 #
coedge $-1 $468 $303 $304 $456 reversed $189 $-1 #
coedge $-1 $462 $627 $303 $454 reversed $301 $-1 #
edge $-1 $469 -14.97552488553716 $629 14.97552488553716 $453 $630 forward 7 unknown #
coedge $-1 $305 $304 $627 $631 forward $121 $-1 #
edge $-1 $460 -55.255592516861476 $629 55.255592516861476 $452 $632 forward 7 unknown #
coedge $-1 $465 $464 $305 $458 reversed $449 $-1 #
edge $-1 $633 -55.255592516861476 $459 55.255592516861476 $457 $634 forward 7 unknown #
vertex $-1 $307 $635 #
vertex $-1 $471 $636 #
straight-curve $-1 55.255592516861476 0 -14.97552488553716 0 -1 0 I I #
coedge $-1 $451 $453 $308 $463 reversed $301 $-1 #
edge $-1 $466 -35.285367766932211 $469 35.285367766932211 $462 $637 forward 7 unknown #
coedge $-1 $457 $309 $314 $472 forward $449 $-1 #
coedge $-1 $309 $457 $451 $628 reversed $449 $-1 #
vertex $-1 $310 $638 #
straight-curve $-1 0 35.285367766932211 14.97552488553716 -1 0 0 I I #
coedge $-1 $311 $452 $313 $471 reversed $189 $-1 #
vertex $-1 $463 $639 #
straight-curve $-1 0 -35.285367766932211 14.97552488553716 1 0 0 I I #
edge $-1 $316 -14.97552488553716 $460 14.97552488553716 $313 $640 forward 7 unknown #
edge $-1 $317 -14.97552488553716 $459 14.97552488553716 $314 $641 forward 7 unknown #
point $-1 55.255592516861476 -35.285367766932211 14.97552488553716 #
point $-1 55.255592516861476 35.285367766932211 14.97552488553716 #
face $-1 $-1 $488 $46 $-1 $642 reversed single #
loop $-1 $-1 $643 $319 #
plane-surface $-1 -66.163507626609842 0 -1.7230631707691568 1 0 0 0 0 -1 forward_v I I I I #
coedge $-1 $644 $480 $325 $485 reversed $320 $-1 #
coedge $-1 $323 $322 $643 $645 reversed $125 $-1 #
coedge $-1 $478 $646 $322 $481 forward $320 $-1 #
edge $-1 $647 -5.4539575548741865 $483 5.4539575548741794 $322 $648 forward 7 unknown #
edge $-1 $330 -5.4539575548741794 $649 5.4539575548741865 $323 $650 forward 7 unknown #
vertex $-1 $324 $651 #
straight-curve $-1 -55.255592516861476 35.285367766932211 0 0 0 -1 I I #
edge $-1 $489 -35.285367766932211 $483 35.285367766932211 $478 $652 forward 7 unknown #
coedge $-1 $653 $326 $329 $492 reversed $488 $-1 #
coedge $-1 $326 $653 $644 $654 reversed $488 $-1 #
loop $-1 $-1 $326 $475 #
vertex $-1 $327 $655 #
straight-curve $-1 -55.255592516861476 -35.285367766932211 0 0 0 1 I I #
coedge $-1 $329 $328 $656 $657 forward $197 $-1 #
edge $-1 $658 -5.4539575548741865 $331 5.4539575548741794 $486 $659 forward 7 unknown #
point $-1 -55.255592516861476 35.285367766932211 1.0765697767492304 #
point $-1 -55.255592516861476 -35.285367766932211 1.0765697767492304 #
face $-1 $-1 $348 $47 $-1 $660 reversed single #
loop $-1 $-1 $342 $333 #
plane-surface $-1 0 35.285367766932211 0 0 -1 0 0 0 -1 forward_v I I I I #
coedge $-1 $661 $336 $502 $662 reversed $205 $-1 #
coedge $-1 $336 $661 $341 $510 reversed $205 $-1 #
coedge $-1 $342 $505 $336 $501 forward $496 $-1 #
edge $-1 $663 -6.9184065922038247 $512 -2.0077945531052617 $500 $664 forward 7 unknown #
coedge $-1 $338 $337 $498 $662 forward $129 $-1 #
coedge $-1 $515 $514 $337 $504 forward $334 $-1 #
edge $-1 $665 19.776024860678202 $507 30.245053391014917 $503 $666 forward 7 unknown #
coedge $-1 $500 $511 $338 $506 forward $496 $-1 #
edge $-1 $508 -30.245053391014917 $663 -19.776024860678202 $505 $667 forward 7 unknown #
vertex $-1 $340 $668 #
vertex $-1 $340 $669 #
straight-curve $-1 55.255592516861476 0 -11.381507164858368 0 1 0 I I #
edge $-1 $512 -35.285367766932211 $516 35.285367766932211 $499 $670 forward 7 unknown #
coedge $-1 $505 $342 $347 $519 forward $496 $-1 #
vertex $-1 $343 $671 #
straight-curve $-1 25.010539125846559 35.285367766932211 -6.4708951257598049 1 0 0 I I #
coedge $-1 $503 $344 $661 $672 forward $334 $-1 #
coedge $-1 $344 $503 $346 $518 reversed $334 $-1 #
vertex $-1 $345 $673 #
straight-curve $-1 25.010539125846559 -35.285367766932211 -6.4708951257598049 -1 0 0 I I #
edge $-1 $350 6.4708951257598049 $507 11.381507164858368 $346 $674 forward 7 unknown #
edge $-1 $349 6.4708951257598049 $508 11.381507164858368 $347 $675 forward 7 unknown #
point $-1 55.255592516861476 35.285367766932211 -6.4708951257598049 #
point $-1 55.255592516861476 -35.285367766932211 -6.4708951257598049 #
loop $-1 $-1 $360 $352 #
plane-surface $-1 0 0 14.97552488553716 0 0 1 1 0 0 forward_v I I I I #
coedge $-1 $525 $355 $357 $529 reversed $213 $-1 #
coedge $-1 $355 $524 $676 $677 reversed $213 $-1 #
coedge $-1 $363 $358 $355 $527 forward $353 $-1 #
edge $-1 $530 -62.198713881766686 $678 -53.941353565642167 $526 $679 forward 7 unknown #
coedge $-1 $357 $356 $533 $680 reversed $133 $-1 #
edge $-1 $681 54.988436937787313 $530 70.570735533864422 $524 $682 forward 7 unknown #
vertex $-1 $359 $683 #
straight-curve $-1 -3.5853220514588635 35.285367766932218 6.7181645694126431 -1 0 0 I I #
coedge $-1 $676 $360 $363 $537 forward $522 $-1 #
coedge $-1 $360 $676 $528 $680 forward $522 $-1 #
vertex $-1 $361 $684 #
straight-curve $-1 0.21944328970582916 16.999998398742882 14.975524885537162 0 1 0 I I #
straight-curve $-1 0.21944328970582916 -24.562009838370301 44.114957313697133 0 -0.84804809178421925 0.52991927123019833 I I #
edge $-1 $364 -0.21944328970582916 $678 14.560731495541283 $363 $685 forward 7 unknown #
point $-1 0.21944328970582916 35.285367766932211 14.97552488553716 #
point $-1 0.21944328970582916 35.285367766932204 6.7181645694126431 #
edge $-1 $686 1 $686 0 $367 $-1 forward 7 unknown #
vertex $-1 $368 $687 #
ellipse-curve $-1 -7.170644102917727 24.47328843378105 4.1177421589182117 0 0.52991927123019833 0.84804809178421925 2 0 0 1 I I #
point $-1 -5.170644102917727 28.678098471924656 10.846844727474899 #
loop $-1 $-1 $377 $371 #
plane-surface $-1 0 0 14.97552488553716 0 0 1 1 0 0 forward_v I I I I #
coedge $-1 $374 $553 $549 $688 reversed $228 $-1 #
edge $-1 $551 53.941353565642167 $554 62.198713881766686 $374 $689 forward 7 unknown #
edge $-1 $554 -70.570735533864422 $550 -54.988436937787313 $375 $690 forward 7 unknown #
coedge $-1 $556 $377 $546 $688 forward $544 $-1 #
vertex $-1 $378 $691 #
vertex $-1 $688 $692 #
straight-curve $-1 14.999618074952942 16.999998398742882 14.975524885537162 0 1 0 I I #
coedge $-1 $546 $380 $385 $559 forward $228 $-1 #
vertex $-1 $547 $693 #
straight-curve $-1 -3.5853220514588635 35.285367766932218 6.7181645694126431 -1 0 0 I I #
coedge $-1 $382 $549 $384 $558 forward $544 $-1 #
straight-curve $-1 -3.5853220514588635 22.070829176917112 14.975524885537158 1 0 0 I I #
edge $-1 $694 -18.285369368189329 $387 -5.0708307781742263 $556 $695 forward 7 unknown #
edge $-1 $386 -62.198713881766686 $694 -53.941353565642167 $553 $696 forward 7 unknown #
point $-1 0.21944328970582916 35.285367766932204 6.7181645694126431 #
point $-1 0.21944328970582916 22.070829176917108 14.975524885537162 #
edge $-1 $697 1 $697 0 $389 $-1 forward 7 unknown #
vertex $-1 $390 $698 #
ellipse-curve $-1 7.6095306823293853 24.47328843378105 4.1177421589182117 0 0.52991927123019833 0.84804809178421925 2 0 0 1 I I #
point $-1 9.6095306823293853 28.678098471924656 10.846844727474899 #
loop $-1 $-1 $401 $393 #
plane-surface $-1 0 -35.285367766932211 0 0 1 0 0 0 1 forward_v I I I I #
coedge $-1 $569 $396 $398 $573 reversed $243 $-1 #
coedge $-1 $396 $568 $699 $700 reversed $243 $-1 #
coedge $-1 $404 $399 $396 $571 forward $394 $-1 #
edge $-1 $574 -24.785596534350596 $701 -11.638319434461927 $570 $702 forward 7 unknown #
coedge $-1 $398 $397 $577 $703 reversed $151 $-1 #
edge $-1 $704 0 $574 15.502985299133147 $568 $705 forward 7 unknown #
vertex $-1 $400 $706 #
straight-curve $-1 -17.631914984603881 -22.138090667043549 14.97552488553716 -1 0 0 I I #
coedge $-1 $699 $401 $404 $581 reversed $566 $-1 #
coedge $-1 $401 $699 $572 $703 forward $566 $-1 #
vertex $-1 $402 $707 #
straight-curve $-1 -26.179982531302411 -35.285367766932211 50.239496901294785 0 0 1 I I #
straight-curve $-1 -26.179982531302411 -35.285367766932211 6.7601942139280453 0 -0.84804809178421925 -0.52991927123019833 I I #
edge $-1 $701 -44.34767740711311 $405 -26.179982531302411 $576 $708 forward 7 unknown #
point $-1 -26.179982531302411 -35.285367766932211 14.97552488553716 #
point $-1 -26.179982531302411 -22.138090667043542 14.97552488553716 #
edge $-1 $709 1 $709 0 $408 $-1 forward 7 unknown #
vertex $-1 $409 $710 #
ellipse-curve $-1 -40.714138431950971 -26.132539170456354 6.740292737089252 0 -0.52991927123019833 0.84804809178421925 1.5 0 0 1 I I #
point $-1 -39.214138431950971 -28.711729216987891 10.867859549732611 #
edge $-1 $711 1 $711 0 $412 $-1 forward 7 unknown #
vertex $-1 $413 $712 #
ellipse-curve $-1 -35.263829969207762 -26.132539170456354 6.740292737089252 0 -0.52991927123019833 0.84804809178421925 1.5 0 0 1 I I #
point $-1 -33.763829969207762 -28.711729216987891 10.867859549732611 #
edge $-1 $713 1 $713 0 $416 $-1 forward 7 unknown #
vertex $-1 $417 $714 #
ellipse-curve $-1 -29.813521506464554 -26.132539170456354 6.740292737089252 0 -0.52991927123019833 0.84804809178421925 1.5 0 0 1 I I #
point $-1 -28.313521506464554 -28.711729216987891 10.867859549732611 #
plane-surface $-1 0 0 14.97552488553716 0 0 1 1 0 0 forward_v I I I I #
coedge $-1 $607 $606 $599 $715 forward $421 $-1 #
coedge $-1 $599 $423 $425 $603 reversed $272 $-1 #
coedge $-1 $423 $598 $597 $715 reversed $272 $-1 #
coedge $-1 $431 $426 $423 $601 forward $432 $-1 #
edge $-1 $604 -24.785596534350596 $716 -11.638319434461927 $600 $717 forward 7 unknown #
coedge $-1 $425 $424 $607 $718 reversed $170 $-1 #
edge $-1 $719 0 $604 15.502985299133147 $598 $720 forward 7 unknown #
vertex $-1 $427 $721 #
straight-curve $-1 17.8513582743097 -22.138090667043549 14.97552488553716 -1 0 0 I I #
coedge $-1 $597 $428 $431 $611 reversed $421 $-1 #
coedge $-1 $428 $597 $602 $718 forward $421 $-1 #
vertex $-1 $429 $722 #
straight-curve $-1 44.786563986524754 -35.285367766932211 50.239496901294785 0 0 1 I I #
straight-curve $-1 44.786563986524754 -35.285367766932211 6.7601942139280453 0 -0.84804809178421925 -0.52991927123019833 I I #
edge $-1 $716 26.618869110714048 $433 44.786563986524754 $606 $723 forward 7 unknown #
point $-1 44.786563986524754 -35.285367766932211 14.97552488553716 #
point $-1 44.786563986524754 -22.138090667043542 14.97552488553716 #
edge $-1 $724 1 $724 0 $436 $-1 forward 7 unknown #
vertex $-1 $437 $725 #
ellipse-curve $-1 30.252408085876191 -26.132539170456354 6.740292737089252 0 -0.52991927123019833 0.84804809178421925 1.5 0 0 1 I I #
point $-1 31.752408085876191 -28.711729216987891 10.867859549732611 #
edge $-1 $726 1 $726 0 $440 $-1 forward 7 unknown #
vertex $-1 $441 $727 #
ellipse-curve $-1 35.702716548619399 -26.132539170456354 6.740292737089252 0 -0.52991927123019833 0.84804809178421925 1.5 0 0 1 I I #
point $-1 37.202716548619399 -28.711729216987891 10.867859549732611 #
edge $-1 $728 1 $728 0 $444 $-1 forward 7 unknown #
vertex $-1 $445 $729 #
ellipse-curve $-1 41.153025011362608 -26.132539170456354 6.740292737089252 0 -0.52991927123019833 0.84804809178421925 1.5 0 0 1 I I #
point $-1 42.653025011362608 -28.711729216987891 10.867859549732611 #
plane-surface $-1 55.255592516861476 0 0 -1 0 0 0 0 1 forward_v I I I I #
coedge $-1 $453 $451 $455 $631 reversed $301 $-1 #
edge $-1 $466 -14.97552488553716 $633 14.97552488553716 $465 $730 forward 7 unknown #
vertex $-1 $631 $731 #
straight-curve $-1 -55.255592516861476 -35.285367766932211 0 0 0 -1 I I #
edge $-1 $629 -35.285367766932211 $633 35.285367766932211 $627 $732 forward 7 unknown #
straight-curve $-1 0 -35.285367766932211 -14.97552488553716 -1 0 0 I I #
vertex $-1 $458 $733 #
straight-curve $-1 0 35.285367766932211 -14.97552488553716 1 0 0 I I #
point $-1 55.255592516861476 35.285367766932211 -14.97552488553716 #
point $-1 55.255592516861476 -35.285367766932211 -14.97552488553716 #
straight-curve $-1 -55.255592516861476 0 14.97552488553716 0 -1 0 I I #
point $-1 -55.255592516861476 35.285367766932211 14.97552488553716 #
point $-1 -55.255592516861476 -35.285367766932211 14.97552488553716 #
straight-curve $-1 55.255592516861476 -35.285367766932211 0 0 0 -1 I I #
straight-curve $-1 55.255592516861476 35.285367766932211 0 0 0 -1 I I #
plane-surface $-1 0 -35.285367766932211 0 0 1 0 0 0 1 forward_v I I I I #
coedge $-1 $734 $656 $479 $645 forward $476 $-1 #
coedge $-1 $646 $478 $487 $654 forward $320 $-1 #
edge $-1 $649 -2.7996329475183872 $647 2.7996329475183872 $479 $735 forward 7 unknown #
coedge $-1 $480 $644 $734 $736 forward $320 $-1 #
vertex $-1 $481 $737 #
straight-curve $-1 -60.709550071735656 35.285367766932211 -4.522696118287544 1 0 0 I I #
vertex $-1 $482 $738 #
straight-curve $-1 -60.709550071735656 35.285367766932211 1.0765697767492304 -1 0 0 I I #
point $-1 -55.255592516861476 35.285367766932211 -4.522696118287544 #
straight-curve $-1 -55.255592516861476 0 -4.522696118287544 0 1 0 I I #
coedge $-1 $487 $486 $739 $740 forward $488 $-1 #
edge $-1 $489 -5.4539575548741794 $741 5.4539575548741865 $487 $742 forward 7 unknown #
point $-1 -55.255592516861476 -35.285367766932211 -4.522696118287544 #
coedge $-1 $643 $739 $491 $657 reversed $476 $-1 #
edge $-1 $649 -35.285367766932211 $658 35.285367766932211 $656 $743 forward 7 unknown #
vertex $-1 $657 $744 #
straight-curve $-1 -60.709550071735656 -35.285367766932211 1.0765697767492304 1 0 0 I I #
plane-surface $-1 55.255592516861476 0 0 -1 0 0 0 0 1 forward_v I I I I #
coedge $-1 $499 $498 $514 $672 reversed $205 $-1 #
edge $-1 $665 -35.285367766932211 $663 35.285367766932211 $498 $745 forward 7 unknown #
vertex $-1 $506 $746 #
straight-curve $-1 44.786563986524762 35.285367766932211 -4.4631005726545432 0 0 1 I I #
vertex $-1 $504 $747 #
straight-curve $-1 25.010539125846559 -35.285367766932211 -11.381507164858368 1 0 0 I I #
straight-curve $-1 25.010539125846559 35.285367766932211 -11.381507164858368 -1 0 0 I I #
point $-1 55.255592516861476 -35.285367766932211 -11.381507164858368 #
point $-1 55.255592516861476 35.285367766932211 -11.381507164858368 #
straight-curve $-1 44.786563986524762 0 -6.4708951257598049 0 -1 0 I I #
point $-1 44.786563986524762 35.285367766932211 -6.4708951257598049 #
edge $-1 $516 2.0077945531052617 $665 6.9184065922038247 $514 $748 forward 7 unknown #
point $-1 44.786563986524762 -35.285367766932211 -6.4708951257598049 #
straight-curve $-1 55.255592516861476 -35.285367766932211 0 0 0 -1 I I #
straight-curve $-1 55.255592516861476 35.285367766932211 0 0 0 -1 I I #
coedge $-1 $533 $532 $525 $677 forward $522 $-1 #
edge $-1 $678 -18.285369368189329 $681 -5.0708307781742263 $676 $749 forward 7 unknown #
vertex $-1 $677 $750 #
straight-curve $-1 -14.560731495541283 35.285367766932211 68.916878451179329 0 0 1 I I #
edge $-1 $681 -10.97540944408242 $534 3.8047653411646927 $533 $751 forward 7 unknown #
vertex $-1 $680 $752 #
straight-curve $-1 -14.560731495541283 -24.562009838370301 44.114957313697133 0 0.84804809178421925 -0.52991927123019833 I I #
point $-1 -14.560731495541283 35.285367766932204 6.7181645694126431 #
point $-1 0.21944328970582916 22.070829176917108 14.975524885537162 #
straight-curve $-1 0 35.285367766932211 14.97552488553716 -1 0 0 I I #
vertex $-1 $540 $753 #
point $-1 -5.170644102917727 24.47328843378105 4.1177421589182117 #
edge $-1 $551 -14.999618074952942 $694 -0.21944328970582916 $546 $754 forward 7 unknown #
straight-curve $-1 14.999618074952942 35.285367766932211 68.916878451179329 0 0 -1 I I #
straight-curve $-1 14.999618074952942 -24.562009838370301 44.114957313697133 0 -0.84804809178421925 0.52991927123019833 I I #
point $-1 14.999618074952942 22.070829176917108 14.975524885537162 #
point $-1 14.999618074952942 35.285367766932211 14.97552488553716 #
point $-1 14.999618074952942 35.285367766932204 6.7181645694126431 #
vertex $-1 $558 $755 #
straight-curve $-1 0.21944328970582916 16.999998398742882 14.975524885537162 0 -1 0 I I #
straight-curve $-1 0.21944328970582916 35.285367766932211 68.916878451179329 0 0 1 I I #
vertex $-1 $562 $756 #
point $-1 9.6095306823293853 24.47328843378105 4.1177421589182117 #
coedge $-1 $577 $576 $569 $700 forward $566 $-1 #
edge $-1 $701 35.263972015757624 $704 43.47930268736674 $699 $757 forward 7 unknown #
vertex $-1 $581 $758 #
straight-curve $-1 -44.34767740711311 -46.923687201394138 14.975524885537162 0 -1 0 I I #
edge $-1 $704 -26.715762422509229 $578 -8.5480675466985296 $577 $759 forward 7 unknown #
vertex $-1 $703 $760 #
straight-curve $-1 -44.34767740711311 -35.285367766932211 6.7601942139280453 0 0.84804809178421925 0.52991927123019833 I I #
point $-1 -44.34767740711311 -22.138090667043542 14.97552488553716 #
point $-1 -26.179982531302411 -35.285367766932211 6.7601942139280453 #
straight-curve $-1 0 -35.285367766932211 14.97552488553716 1 0 0 I I #
vertex $-1 $584 $761 #
point $-1 -39.214138431950971 -26.132539170456354 6.740292737089252 #
vertex $-1 $588 $762 #
point $-1 -33.763829969207762 -26.132539170456354 6.740292737089252 #
vertex $-1 $592 $763 #
point $-1 -28.313521506464554 -26.132539170456354 6.740292737089252 #
edge $-1 $716 35.263972015757624 $719 43.47930268736674 $597 $764 forward 7 unknown #
vertex $-1 $611 $765 #
straight-curve $-1 26.618869110714048 -46.923687201394138 14.975524885537162 0 -1 0 I I #
edge $-1 $719 8.7675108364043481 $608 26.935205712215055 $607 $766 forward 7 unknown #
vertex $-1 $718 $767 #
straight-curve $-1 26.618869110714048 -35.285367766932211 6.7601942139280453 0 0.84804809178421925 0.52991927123019833 I I #
point $-1 26.618869110714048 -22.138090667043542 14.97552488553716 #
point $-1 44.786563986524754 -35.285367766932211 6.7601942139280453 #
straight-curve $-1 0 -35.285367766932211 14.97552488553716 1 0 0 I I #
vertex $-1 $614 $768 #
point $-1 31.752408085876191 -26.132539170456354 6.740292737089252 #
vertex $-1 $618 $769 #
point $-1 37.202716548619399 -26.132539170456354 6.740292737089252 #
vertex $-1 $622 $770 #
point $-1 42.653025011362608 -26.132539170456354 6.740292737089252 #
straight-curve $-1 -55.255592516861476 35.285367766932211 0 0 0 -1 I I #
point $-1 -55.255592516861476 -35.285367766932211 -14.97552488553716 #
straight-curve $-1 -55.255592516861476 0 -14.97552488553716 0 1 0 I I #
point $-1 -55.255592516861476 35.285367766932211 -14.97552488553716 #
coedge $-1 $739 $643 $646 $736 reversed $476 $-1 #
straight-curve $-1 -66.163507626609842 35.285367766932211 -1.7230631707691568 0 0 -1 I I #
edge $-1 $741 -35.285367766932211 $647 35.285367766932211 $734 $771 forward 7 unknown #
point $-1 -66.163507626609842 35.285367766932211 -4.522696118287544 #
point $-1 -66.163507626609842 35.285367766932211 1.0765697767492304 #
coedge $-1 $656 $734 $653 $740 reversed $476 $-1 #
edge $-1 $658 -2.7996329475183872 $741 2.7996329475183872 $739 $772 forward 7 unknown #
vertex $-1 $736 $773 #
straight-curve $-1 -60.709550071735656 -35.285367766932211 -4.522696118287544 -1 0 0 I I #
straight-curve $-1 -66.163507626609842 0 1.0765697767492304 0 -1 0 I I #
point $-1 -66.163507626609842 -35.285367766932211 1.0765697767492304 #
straight-curve $-1 44.786563986524762 0 -11.381507164858368 0 1 0 I I #
point $-1 44.786563986524762 35.285367766932211 -11.381507164858368 #
point $-1 44.786563986524762 -35.285367766932211 -11.381507164858368 #
straight-curve $-1 44.786563986524762 -35.285367766932211 -4.4631005726545432 0 0 -1 I I #
straight-curve $-1 -14.560731495541283 16.999998398742882 14.975524885537162 0 -1 0 I I #
point $-1 -14.560731495541283 35.285367766932211 14.97552488553716 #
straight-curve $-1 -3.5853220514588635 22.070829176917112 14.975524885537158 1 0 0 I I #
point $-1 -14.560731495541283 22.070829176917108 14.975524885537162 #
point $-1 -7.170644102917727 23.413449891320653 2.4216459753497728 #
straight-curve $-1 0 35.285367766932211 14.97552488553716 -1 0 0 I I #
point $-1 0.21944328970582916 35.285367766932211 14.97552488553716 #
point $-1 7.6095306823293853 23.413449891320653 2.4216459753497728 #
straight-curve $-1 -44.34767740711311 -35.285367766932211 50.239496901294785 0 0 -1 I I #
point $-1 -44.34767740711311 -35.285367766932211 14.97552488553716 #
straight-curve $-1 -17.631914984603881 -35.285367766932211 6.7601942139280435 1 0 0 I I #
point $-1 -44.34767740711311 -35.285367766932211 6.7601942139280453 #
point $-1 -40.714138431950971 -25.337660263611056 5.4682205994129234 #
point $-1 -35.263829969207762 -25.337660263611056 5.4682205994129234 #
point $-1 -29.813521506464554 -25.337660263611056 5.4682205994129234 #
straight-curve $-1 26.618869110714048 -35.285367766932211 50.239496901294785 0 0 -1 I I #
point $-1 26.618869110714048 -35.285367766932211 14.97552488553716 #
straight-curve $-1 17.8513582743097 -35.285367766932211 6.7601942139280435 1 0 0 I I #
point $-1 26.618869110714048 -35.285367766932211 6.7601942139280453 #
point $-1 30.252408085876191 -25.337660263611056 5.4682205994129234 #
point $-1 35.702716548619399 -25.337660263611056 5.4682205994129234 #
point $-1 41.153025011362608 -25.337660263611056 5.4682205994129234 #
straight-curve $-1 -66.163507626609842 0 -4.522696118287544 0 1 0 I I #
straight-curve $-1 -66.163507626609842 -35.285367766932211 -1.7230631707691568 0 0 -1 I I #
point $-1 -66.163507626609842 -35.285367766932211 -4.522696118287544 #
End-of-ACIS-data 