500 0 15 0           
7 Unknown 11 ACIS 5.0 NT 24 Thu Mar 25 20:43:04 1999 
-1 9.9999999999999995e-007 1e-010 
body $-1 $15 $-1 $16 #
body $-1 $17 $-1 $18 #
body $-1 $19 $-1 $20 #
body $-1 $21 $-1 $22 #
body $-1 $23 $-1 $24 #
body $-1 $25 $-1 $26 #
body $-1 $27 $-1 $28 #
body $-1 $29 $-1 $30 #
body $-1 $31 $-1 $32 #
body $-1 $33 $-1 $34 #
body $-1 $35 $-1 $36 #
body $-1 $37 $-1 $38 #
body $-1 $39 $-1 $40 #
body $-1 $41 $-1 $42 #
body $-1 $43 $-1 $44 #
lump $-1 $-1 $45 $0 #
transform $-1 1 0 0 0 1 0 0 0 1 58.783532212286751 39.535499929439155 9.694142710137605 1 rotate no_reflect no_shear #
lump $-1 $-1 $46 $1 #
transform $-1 1 0 0 0 1 0 0 0 1 58.783532212286751 39.535499929439155 9.694142710137605 1 rotate no_reflect no_shear #
lump $-1 $-1 $47 $2 #
transform $-1 1 0 0 0 1 0 0 0 1 58.783532212286751 39.535499929439155 9.694142710137605 1 rotate no_reflect no_shear #
lump $-1 $-1 $48 $3 #
transform $-1 1 0 0 0 1 0 0 0 1 58.783532212286751 39.535499929439155 9.694142710137605 1 rotate no_reflect no_shear #
lump $-1 $-1 $49 $4 #
transform $-1 1 0 0 0 1 0 0 0 1 58.783532212286751 39.535499929439155 9.694142710137605 1 rotate no_reflect no_shear #
lump $-1 $-1 $50 $5 #
transform $-1 1 0 0 0 1 0 0 0 1 58.783532212286751 39.535499929439155 9.694142710137605 1 rotate no_reflect no_shear #
lump $-1 $-1 $51 $6 #
transform $-1 1 0 0 0 1 0 0 0 1 58.783532212286751 39.535499929439155 9.694142710137605 1 rotate no_reflect no_shear #
lump $-1 $-1 $52 $7 #
transform $-1 1 0 0 0 1 0 0 0 1 58.783532212286751 39.535499929439155 9.694142710137605 1 rotate no_reflect no_shear #
lump $-1 $-1 $53 $8 #
transform $-1 1 0 0 0 1 0 0 0 1 58.783532212286751 39.535499929439155 9.694142710137605 1 rotate no_reflect no_shear #
lump $-1 $-1 $54 $9 #
transform $-1 1 0 0 0 1 0 0 0 1 58.783532212286751 39.535499929439155 9.694142710137605 1 rotate no_reflect no_shear #
lump $-1 $-1 $55 $10 #
transform $-1 1 0 0 0 1 0 0 0 1 58.783532212286751 39.535499929439155 9.694142710137605 1 rotate no_reflect no_shear #
lump $-1 $-1 $56 $11 #
transform $-1 1 0 0 0 1 0 0 0 1 58.783532212286751 39.535499929439155 9.694142710137605 1 rotate no_reflect no_shear #
lump $-1 $-1 $57 $12 #
transform $-1 1 0 0 0 1 0 0 0 1 58.783532212286751 39.535499929439155 9.694142710137605 1 rotate no_reflect no_shear #
lump $-1 $-1 $58 $13 #
transform $-1 1 0 0 0 1 0 0 0 1 58.783532212286751 39.535499929439155 9.694142710137605 1 rotate no_reflect no_shear #
lump $-1 $-1 $59 $14 #
transform $-1 1 0 0 0 1 0 0 0 1 58.783532212286751 39.535499929439155 9.694142710137605 1 rotate no_reflect no_shear #
shell $-1 $-1 $-1 $60 $-1 $15 #
shell $-1 $-1 $-1 $61 $-1 $17 #
shell $-1 $-1 $-1 $62 $-1 $19 #
shell $-1 $-1 $-1 $63 $-1 $21 #
shell $-1 $-1 $-1 $64 $-1 $23 #
shell $-1 $-1 $-1 $65 $-1 $25 #
shell $-1 $-1 $-1 $66 $-1 $27 #
shell $-1 $-1 $-1 $67 $-1 $29 #
shell $-1 $-1 $-1 $68 $-1 $31 #
shell $-1 $-1 $-1 $69 $-1 $33 #
shell $-1 $-1 $-1 $70 $-1 $35 #
shell $-1 $-1 $-1 $71 $-1 $37 #
shell $-1 $-1 $-1 $72 $-1 $39 #
shell $-1 $-1 $-1 $73 $-1 $41 #
shell $-1 $-1 $-1 $74 $-1 $43 #
face $-1 $75 $76 $45 $-1 $77 forward single #
face $-1 $78 $79 $46 $-1 $80 forward single #
face $-1 $81 $82 $47 $-1 $83 forward single #
face $-1 $84 $85 $48 $-1 $86 reversed single #
face $-1 $87 $88 $49 $-1 $89 forward single #
face $-1 $90 $91 $50 $-1 $92 forward single #
face $-1 $93 $94 $51 $-1 $95 reversed single #
face $-1 $96 $97 $52 $-1 $98 forward single #
face $-1 $99 $100 $53 $-1 $101 forward single #
face $-1 $102 $103 $54 $-1 $104 reversed single #
face $-1 $105 $106 $55 $-1 $107 forward single #
face $-1 $108 $109 $56 $-1 $110 forward single #
face $-1 $111 $112 $57 $-1 $113 reversed single #
face $-1 $114 $115 $58 $-1 $116 forward single #
face $-1 $117 $118 $59 $-1 $119 forward single #
face $-1 $120 $121 $45 $-1 $122 reversed single #
loop $-1 $-1 $123 $60 #
plane-surface $-1 0 0 9.694142710137605 0 0 1 1 0 0 forward_v I I I I #
face $-1 $124 $125 $46 $-1 $126 forward single #
loop $-1 $-1 $127 $61 #
plane-surface $-1 0 -39.535499929439155 0 0 1 0 0 0 1 forward_v I I I I #
face $-1 $128 $129 $47 $-1 $130 reversed single #
loop $-1 $-1 $131 $62 #
plane-surface $-1 0 39.535499929439155 0 0 -1 0 0 0 -1 forward_v I I I I #
face $-1 $132 $133 $48 $-1 $134 reversed single #
loop $-1 $-1 $135 $63 #
plane-surface $-1 -151.42764421927231 -26.054173444609983 75.024274545257867 0 1 0 -0.78801076186113728 0 0.61566146476048833 forward_v I I I I #
face $-1 $136 $137 $49 $-1 $138 forward single #
loop $-1 $139 $140 $64 #
cone-surface $-1 -55.407898456944416 -23.664618634599226 5.6832253429752484 0.78801076186113728 0 -0.61566146476048833 0.30783073238024417 0 0.39400538093056864 1 I I 0 1 0.5 forward I I I I #
face $-1 $141 $142 $50 $-1 $143 forward single #
loop $-1 $144 $145 $65 #
cone-surface $-1 -55.407898456944416 -20.080286419583089 5.6832253429752484 0.78801076186113728 0 -0.61566146476048833 0.30783073238024417 0 0.39400538093056864 1 I I 0 1 0.5 forward I I I I #
face $-1 $146 $147 $51 $-1 $148 reversed single #
loop $-1 $-1 $149 $66 #
plane-surface $-1 -151.42764421927231 -10.415911711633559 75.024274545257867 0 1 0 -0.78801076186113728 0 0.61566146476048833 forward_v I I I I #
face $-1 $150 $151 $52 $-1 $152 forward single #
loop $-1 $153 $154 $67 #
cone-surface $-1 -55.407898456944416 -8.0263569016227976 5.6832253429752484 0.78801076186113728 0 -0.61566146476048833 0.30783073238024417 0 0.39400538093056864 1 I I 0 1 0.5 forward I I I I #
face $-1 $155 $156 $53 $-1 $157 forward single #
loop $-1 $158 $159 $68 #
cone-surface $-1 -55.407898456944416 -4.4420246866066648 5.6832253429752484 0.78801076186113728 0 -0.61566146476048833 0.30783073238024417 0 0.39400538093056864 1 I I 0 1 0.5 forward I I I I #
face $-1 $160 $161 $54 $-1 $162 reversed single #
loop $-1 $-1 $163 $69 #
plane-surface $-1 -151.42764421927231 5.2223500213428649 75.024274545257867 0 1 0 -0.78801076186113728 0 0.61566146476048833 forward_v I I I I #
face $-1 $164 $165 $55 $-1 $166 forward single #
loop $-1 $167 $168 $70 #
cone-surface $-1 -55.407898456944416 7.6119048313536268 5.6832253429752484 0.78801076186113728 0 -0.61566146476048833 0.30783073238024417 0 0.39400538093056864 1 I I 0 1 0.5 forward I I I I #
face $-1 $169 $170 $56 $-1 $171 forward single #
loop $-1 $172 $173 $71 #
cone-surface $-1 -55.407898456944416 11.19623704636976 5.6832253429752484 0.78801076186113728 0 -0.61566146476048833 0.30783073238024417 0 0.39400538093056864 1 I I 0 1 0.5 forward I I I I #
face $-1 $174 $175 $57 $-1 $176 reversed single #
loop $-1 $-1 $177 $72 #
plane-surface $-1 -151.42764421927231 20.860611754319297 75.024274545257867 0 1 0 -0.78801076186113728 0 0.61566146476048833 forward_v I I I I #
face $-1 $178 $179 $58 $-1 $180 forward single #
loop $-1 $181 $182 $73 #
cone-surface $-1 -55.407898456944416 23.250166564330051 5.6832253429752484 0.78801076186113728 0 -0.61566146476048833 0.30783073238024417 0 0.39400538093056864 1 I I 0 1 0.5 forward I I I I #
face $-1 $183 $184 $59 $-1 $185 forward single #
loop $-1 $186 $187 $74 #
cone-surface $-1 -55.407898456944416 26.834498779346191 5.6832253429752484 0.78801076186113728 0 -0.61566146476048833 0.30783073238024417 0 0.39400538093056864 1 I I 0 1 0.5 forward I I I I #
face $-1 $188 $189 $45 $-1 $190 reversed single #
loop $-1 $-1 $191 $75 #
plane-surface $-1 0 0 -9.694142710137605 0 0 1 1 0 0 forward_v I I I I #
coedge $-1 $192 $193 $194 $195 forward $76 $-1 #
face $-1 $196 $197 $46 $-1 $198 reversed single #
loop $-1 $-1 $199 $78 #
plane-surface $-1 0 0 9.694142710137605 0 0 1 1 0 0 forward_v I I I I #
coedge $-1 $200 $201 $202 $203 forward $79 $-1 #
face $-1 $204 $205 $47 $-1 $206 reversed single #
loop $-1 $-1 $207 $81 #
plane-surface $-1 58.783532212286751 0 0 -1 0 0 0 0 1 forward_v I I I I #
coedge $-1 $208 $209 $210 $211 forward $82 $-1 #
face $-1 $212 $213 $48 $-1 $214 reversed single #
loop $-1 $-1 $215 $84 #
plane-surface $-1 -58.783532212286744 -21.872452527091156 2.6427634540342524 -0.78801076186113728 0 0.61566146476048833 0.61566146476048833 0 0.78801076186113728 forward_v I I I I #
coedge $-1 $216 $217 $218 $219 reversed $85 $-1 #
face $-1 $-1 $220 $49 $-1 $221 forward single #
loop $-1 $222 $223 $87 #
cone-surface $-1 -54.589832564932948 -23.664618634599226 5.0440822376744467 0.78801076186113728 0 -0.61566146476048833 0.15391536619012208 0 0.19700269046528432 1 I I -0.70710678118654746 0.70710678118654746 0.25 forward I I I I #
loop $-1 $-1 $224 $64 #
coedge $-1 $140 $140 $225 $226 reversed $88 $-1 #
face $-1 $-1 $227 $50 $-1 $228 forward single #
loop $-1 $229 $230 $90 #
cone-surface $-1 -54.589832564932948 -20.080286419583089 5.0440822376744467 0.78801076186113728 0 -0.61566146476048833 0.15391536619012208 0 0.19700269046528432 1 I I -0.70710678118654746 0.70710678118654746 0.25 forward I I I I #
loop $-1 $-1 $231 $65 #
coedge $-1 $145 $145 $232 $233 reversed $91 $-1 #
face $-1 $234 $235 $51 $-1 $236 reversed single #
loop $-1 $-1 $237 $93 #
plane-surface $-1 -58.783532212286744 -6.2341907941147312 2.6427634540342524 -0.78801076186113728 0 0.61566146476048833 0.61566146476048833 0 0.78801076186113728 forward_v I I I I #
coedge $-1 $238 $239 $240 $241 reversed $94 $-1 #
face $-1 $-1 $242 $52 $-1 $243 forward single #
loop $-1 $244 $245 $96 #
cone-surface $-1 -54.589832564932948 -8.0263569016227976 5.0440822376744467 0.78801076186113728 0 -0.61566146476048833 0.15391536619012208 0 0.19700269046528432 1 I I -0.70710678118654746 0.70710678118654746 0.25 forward I I I I #
loop $-1 $-1 $246 $67 #
coedge $-1 $154 $154 $247 $248 reversed $97 $-1 #
face $-1 $-1 $249 $53 $-1 $250 forward single #
loop $-1 $251 $252 $99 #
cone-surface $-1 -54.589832564932948 -4.4420246866066648 5.0440822376744467 0.78801076186113728 0 -0.61566146476048833 0.15391536619012208 0 0.19700269046528432 1 I I -0.70710678118654746 0.70710678118654746 0.25 forward I I I I #
loop $-1 $-1 $253 $68 #
coedge $-1 $159 $159 $254 $255 reversed $100 $-1 #
face $-1 $256 $257 $54 $-1 $258 reversed single #
loop $-1 $-1 $259 $102 #
plane-surface $-1 -58.783532212286744 9.4040709388616932 2.6427634540342524 -0.78801076186113728 0 0.61566146476048833 0.61566146476048833 0 0.78801076186113728 forward_v I I I I #
coedge $-1 $260 $261 $262 $263 reversed $103 $-1 #
face $-1 $-1 $264 $55 $-1 $265 forward single #
loop $-1 $266 $267 $105 #
cone-surface $-1 -54.589832564932948 7.6119048313536268 5.0440822376744467 0.78801076186113728 0 -0.61566146476048833 0.15391536619012208 0 0.19700269046528432 1 I I -0.70710678118654746 0.70710678118654746 0.25 forward I I I I #
loop $-1 $-1 $268 $70 #
coedge $-1 $168 $168 $269 $270 reversed $106 $-1 #
face $-1 $-1 $271 $56 $-1 $272 forward single #
loop $-1 $273 $274 $108 #
cone-surface $-1 -54.589832564932948 11.19623704636976 5.0440822376744467 0.78801076186113728 0 -0.61566146476048833 0.15391536619012208 0 0.19700269046528432 1 I I -0.70710678118654746 0.70710678118654746 0.25 forward I I I I #
loop $-1 $-1 $275 $71 #
coedge $-1 $173 $173 $276 $277 reversed $109 $-1 #
face $-1 $278 $279 $57 $-1 $280 reversed single #
loop $-1 $-1 $281 $111 #
plane-surface $-1 -58.783532212286744 25.042332671838125 2.6427634540342524 -0.78801076186113728 0 0.61566146476048833 0.61566146476048833 0 0.78801076186113728 forward_v I I I I #
coedge $-1 $282 $283 $284 $285 reversed $112 $-1 #
face $-1 $-1 $286 $58 $-1 $287 forward single #
loop $-1 $288 $289 $114 #
cone-surface $-1 -54.589832564932948 23.250166564330051 5.0440822376744467 0.78801076186113728 0 -0.61566146476048833 0.15391536619012208 0 0.19700269046528432 1 I I -0.70710678118654746 0.70710678118654746 0.25 forward I I I I #
loop $-1 $-1 $290 $73 #
coedge $-1 $182 $182 $291 $292 reversed $115 $-1 #
face $-1 $-1 $293 $59 $-1 $294 forward single #
loop $-1 $295 $296 $117 #
cone-surface $-1 -54.589832564932948 26.834498779346191 5.0440822376744467 0.78801076186113728 0 -0.61566146476048833 0.15391536619012208 0 0.19700269046528432 1 I I -0.70710678118654746 0.70710678118654746 0.25 forward I I I I #
loop $-1 $-1 $297 $74 #
coedge $-1 $187 $187 $298 $299 reversed $118 $-1 #
face $-1 $300 $301 $45 $-1 $302 reversed single #
loop $-1 $-1 $303 $120 #
plane-surface $-1 0 -39.535499929439155 0 0 1 0 0 0 1 forward_v I I I I #
coedge $-1 $304 $305 $306 $307 forward $121 $-1 #
coedge $-1 $308 $123 $309 $310 forward $76 $-1 #
coedge $-1 $123 $308 $311 $312 forward $76 $-1 #
coedge $-1 $313 $314 $123 $195 reversed $315 $-1 #
edge $-1 $316 -39.535499929439155 $317 39.535499929439155 $194 $318 forward 7 unknown #
face $-1 $319 $320 $46 $-1 $321 reversed single #
loop $-1 $-1 $322 $124 #
plane-surface $-1 -58.783532212286751 0 0 1 0 0 0 0 -1 forward_v I I I I #
coedge $-1 $323 $324 $325 $326 forward $125 $-1 #
coedge $-1 $325 $127 $322 $327 reversed $79 $-1 #
coedge $-1 $127 $325 $328 $329 reversed $79 $-1 #
coedge $-1 $330 $331 $127 $203 reversed $320 $-1 #
edge $-1 $332 -58.783532212286751 $333 58.783532212286751 $202 $334 forward 7 unknown #
face $-1 $335 $336 $47 $-1 $337 reversed single #
loop $-1 $-1 $338 $128 #
plane-surface $-1 0 43.664988161182308 5.3744253814007905 0 0 1 1 0 0 forward_v I I I I #
coedge $-1 $339 $340 $208 $341 forward $129 $-1 #
coedge $-1 $342 $131 $207 $341 reversed $82 $-1 #
coedge $-1 $131 $342 $343 $344 reversed $82 $-1 #
coedge $-1 $345 $338 $131 $211 reversed $205 $-1 #
edge $-1 $346 -58.783532212286751 $347 58.783532212286751 $210 $348 forward 7 unknown #
face $-1 $349 $350 $48 $-1 $351 reversed single #
loop $-1 $-1 $352 $132 #
plane-surface $-1 -151.42764421927231 -17.690731609572328 75.024274545257867 0 -1 0 0.78801076186113728 0 -0.61566146476048833 forward_v I I I I #
coedge $-1 $353 $354 $355 $356 reversed $133 $-1 #
coedge $-1 $217 $135 $357 $358 reversed $85 $-1 #
coedge $-1 $135 $216 $353 $359 reversed $85 $-1 #
coedge $-1 $355 $360 $135 $219 forward $361 $-1 #
edge $-1 $362 16.930289897349404 $363 22.439431004941703 $218 $364 forward 7 unknown #
loop $-1 $-1 $225 $136 #
plane-surface $-1 -58.783532212286744 -21.872452527091156 2.6427634540342524 -0.78801076186113728 0 0.61566146476048833 0.61566146476048833 0 0.78801076186113728 forward_v I I I I #
loop $-1 $-1 $365 $87 #
coedge $-1 $223 $223 $224 $366 reversed $137 $-1 #
coedge $-1 $224 $224 $223 $366 forward $139 $-1 #
coedge $-1 $225 $225 $140 $226 forward $220 $-1 #
edge $-1 $367 0 $367 6.2831853071796004 $225 $368 forward 7 unknown #
loop $-1 $-1 $232 $141 #
plane-surface $-1 -58.783532212286744 -21.872452527091156 2.6427634540342524 -0.78801076186113728 0 0.61566146476048833 0.61566146476048833 0 0.78801076186113728 forward_v I I I I #
loop $-1 $-1 $369 $90 #
coedge $-1 $230 $230 $231 $370 reversed $142 $-1 #
coedge $-1 $231 $231 $230 $370 forward $144 $-1 #
coedge $-1 $232 $232 $145 $233 forward $227 $-1 #
edge $-1 $371 0 $371 6.2831853071796004 $232 $372 forward 7 unknown #
face $-1 $373 $374 $51 $-1 $375 forward single #
loop $-1 $-1 $376 $146 #
plane-surface $-1 -151.42764421927231 -2.0524698765959029 75.024274545257867 0 -1 0 0.78801076186113728 0 -0.61566146476048833 forward_v I I I I #
coedge $-1 $377 $378 $379 $380 reversed $147 $-1 #
coedge $-1 $239 $149 $381 $382 reversed $94 $-1 #
coedge $-1 $149 $238 $377 $383 reversed $94 $-1 #
coedge $-1 $379 $384 $149 $241 forward $374 $-1 #
edge $-1 $385 16.930289897349404 $386 22.439431004941703 $240 $387 forward 7 unknown #
loop $-1 $-1 $247 $150 #
plane-surface $-1 -58.783532212286744 -6.2341907941147312 2.6427634540342524 -0.78801076186113728 0 0.61566146476048833 0.61566146476048833 0 0.78801076186113728 forward_v I I I I #
loop $-1 $-1 $388 $96 #
coedge $-1 $245 $245 $246 $389 reversed $151 $-1 #
coedge $-1 $246 $246 $245 $389 forward $153 $-1 #
coedge $-1 $247 $247 $154 $248 forward $242 $-1 #
edge $-1 $390 0 $390 6.2831853071796004 $247 $391 forward 7 unknown #
loop $-1 $-1 $254 $155 #
plane-surface $-1 -58.783532212286744 -6.2341907941147312 2.6427634540342524 -0.78801076186113728 0 0.61566146476048833 0.61566146476048833 0 0.78801076186113728 forward_v I I I I #
loop $-1 $-1 $392 $99 #
coedge $-1 $252 $252 $253 $393 reversed $156 $-1 #
coedge $-1 $253 $253 $252 $393 forward $158 $-1 #
coedge $-1 $254 $254 $159 $255 forward $249 $-1 #
edge $-1 $394 0 $394 6.2831853071796004 $254 $395 forward 7 unknown #
face $-1 $396 $397 $54 $-1 $398 forward single #
loop $-1 $-1 $399 $160 #
plane-surface $-1 -151.42764421927231 13.585791856380521 75.024274545257867 0 -1 0 0.78801076186113728 0 -0.61566146476048833 forward_v I I I I #
coedge $-1 $400 $401 $402 $403 reversed $161 $-1 #
coedge $-1 $261 $163 $404 $405 reversed $103 $-1 #
coedge $-1 $163 $260 $400 $406 reversed $103 $-1 #
coedge $-1 $402 $407 $163 $263 forward $397 $-1 #
edge $-1 $408 16.930289897349404 $409 22.439431004941703 $262 $410 forward 7 unknown #
loop $-1 $-1 $269 $164 #
plane-surface $-1 -58.783532212286744 9.4040709388616932 2.6427634540342524 -0.78801076186113728 0 0.61566146476048833 0.61566146476048833 0 0.78801076186113728 forward_v I I I I #
loop $-1 $-1 $411 $105 #
coedge $-1 $267 $267 $268 $412 reversed $165 $-1 #
coedge $-1 $268 $268 $267 $412 forward $167 $-1 #
coedge $-1 $269 $269 $168 $270 forward $264 $-1 #
edge $-1 $413 0 $413 6.2831853071796004 $269 $414 forward 7 unknown #
loop $-1 $-1 $276 $169 #
plane-surface $-1 -58.783532212286744 9.4040709388616932 2.6427634540342524 -0.78801076186113728 0 0.61566146476048833 0.61566146476048833 0 0.78801076186113728 forward_v I I I I #
loop $-1 $-1 $415 $108 #
coedge $-1 $274 $274 $275 $416 reversed $170 $-1 #
coedge $-1 $275 $275 $274 $416 forward $172 $-1 #
coedge $-1 $276 $276 $173 $277 forward $271 $-1 #
edge $-1 $417 0 $417 6.2831853071796004 $276 $418 forward 7 unknown #
face $-1 $419 $420 $57 $-1 $421 forward single #
loop $-1 $-1 $422 $174 #
plane-surface $-1 -151.42764421927231 29.224053589356952 75.024274545257867 0 -1 0 0.78801076186113728 0 -0.61566146476048833 forward_v I I I I #
coedge $-1 $423 $424 $425 $426 reversed $175 $-1 #
coedge $-1 $283 $177 $427 $428 reversed $112 $-1 #
coedge $-1 $177 $282 $423 $429 reversed $112 $-1 #
coedge $-1 $425 $430 $177 $285 forward $420 $-1 #
edge $-1 $431 16.930289897349404 $432 22.439431004941703 $284 $433 forward 7 unknown #
loop $-1 $-1 $291 $178 #
plane-surface $-1 -58.783532212286744 25.042332671838125 2.6427634540342524 -0.78801076186113728 0 0.61566146476048833 0.61566146476048833 0 0.78801076186113728 forward_v I I I I #
loop $-1 $-1 $434 $114 #
coedge $-1 $289 $289 $290 $435 reversed $179 $-1 #
coedge $-1 $290 $290 $289 $435 forward $181 $-1 #
coedge $-1 $291 $291 $182 $292 forward $286 $-1 #
edge $-1 $436 0 $436 6.2831853071796004 $291 $437 forward 7 unknown #
loop $-1 $-1 $298 $183 #
plane-surface $-1 -58.783532212286744 25.042332671838125 2.6427634540342524 -0.78801076186113728 0 0.61566146476048833 0.61566146476048833 0 0.78801076186113728 forward_v I I I I #
loop $-1 $-1 $438 $117 #
coedge $-1 $296 $296 $297 $439 reversed $184 $-1 #
coedge $-1 $297 $297 $296 $439 forward $186 $-1 #
coedge $-1 $298 $298 $187 $299 forward $293 $-1 #
edge $-1 $440 0 $440 6.2831853071796004 $298 $441 forward 7 unknown #
face $-1 $442 $443 $45 $-1 $444 reversed single #
loop $-1 $-1 $445 $188 #
plane-surface $-1 -58.783532212286751 0 0 1 0 0 0 0 -1 forward_v I I I I #
coedge $-1 $446 $311 $447 $448 forward $189 $-1 #
coedge $-1 $449 $191 $446 $450 forward $121 $-1 #
coedge $-1 $191 $449 $451 $452 forward $121 $-1 #
coedge $-1 $314 $313 $191 $307 reversed $315 $-1 #
edge $-1 $453 -39.535499929439155 $454 39.535499929439155 $306 $455 forward 7 unknown #
coedge $-1 $193 $192 $456 $457 forward $76 $-1 #
coedge $-1 $458 $459 $192 $310 reversed $443 $-1 #
edge $-1 $317 -58.783532212286751 $460 58.783532212286751 $309 $461 forward 7 unknown #
coedge $-1 $303 $462 $193 $312 reversed $189 $-1 #
edge $-1 $463 -58.783532212286751 $316 58.783532212286751 $311 $464 forward 7 unknown #
coedge $-1 $306 $194 $462 $465 forward $315 $-1 #
coedge $-1 $194 $306 $458 $466 reversed $315 $-1 #
loop $-1 $-1 $313 $442 #
vertex $-1 $195 $467 #
vertex $-1 $195 $468 #
straight-curve $-1 58.783532212286751 0 9.694142710137605 0 1 0 I I #
face $-1 $469 $470 $46 $-1 $471 reversed single #
loop $-1 $-1 $330 $196 #
plane-surface $-1 0 -43.664988161182308 5.3744253814007905 0 0 1 1 0 0 forward_v I I I I #
coedge $-1 $472 $473 $200 $327 forward $197 $-1 #
coedge $-1 $474 $199 $473 $475 forward $125 $-1 #
coedge $-1 $199 $474 $476 $477 forward $125 $-1 #
coedge $-1 $201 $200 $199 $326 reversed $79 $-1 #
edge $-1 $478 -58.783532212286751 $479 58.783532212286751 $199 $480 forward 7 unknown #
edge $-1 $479 -9.694142710137605 $333 -5.3744253814007905 $322 $481 forward 7 unknown #
coedge $-1 $476 $482 $201 $329 forward $483 $-1 #
edge $-1 $332 5.3744253814007905 $478 9.694142710137605 $328 $484 forward 7 unknown #
coedge $-1 $485 $202 $482 $486 forward $320 $-1 #
coedge $-1 $202 $485 $472 $487 forward $320 $-1 #
vertex $-1 $329 $488 #
vertex $-1 $327 $489 #
straight-curve $-1 0 -39.535499929439155 5.3744253814007905 -1 0 0 I I #
face $-1 $490 $491 $47 $-1 $492 forward single #
loop $-1 $-1 $493 $204 #
plane-surface $-1 0 47.794476392925461 7.5342840457691977 0 -1 0 0 0 -1 forward_v I I I I #
coedge $-1 $210 $494 $339 $495 forward $205 $-1 #
coedge $-1 $496 $207 $338 $495 reversed $129 $-1 #
coedge $-1 $207 $496 $497 $498 reversed $129 $-1 #
edge $-1 $499 -9.694142710137605 $347 -5.3744253814007905 $207 $500 forward 7 unknown #
coedge $-1 $209 $208 $501 $502 reversed $82 $-1 #
coedge $-1 $503 $504 $209 $344 forward $505 $-1 #
edge $-1 $346 5.3744253814007905 $506 9.694142710137605 $343 $507 forward 7 unknown #
coedge $-1 $494 $210 $504 $508 forward $205 $-1 #
vertex $-1 $344 $509 #
vertex $-1 $341 $510 #
straight-curve $-1 0 39.535499929439155 5.3744253814007905 1 0 0 I I #
face $-1 $-1 $361 $48 $-1 $511 forward single #
loop $-1 $-1 $512 $212 #
plane-surface $-1 -58.783532212286751 0 0 1 0 0 0 0 -1 forward_v I I I I #
coedge $-1 $513 $514 $515 $516 reversed $213 $-1 #
coedge $-1 $517 $215 $217 $359 forward $133 $-1 #
coedge $-1 $215 $517 $513 $518 forward $133 $-1 #
coedge $-1 $515 $218 $215 $356 forward $361 $-1 #
edge $-1 $363 -15.117947181064405 $519 -6.7545053460267503 $355 $520 forward 7 unknown #
coedge $-1 $521 $522 $216 $358 forward $350 $-1 #
edge $-1 $523 -34.869373818594688 $362 -27.817994562491329 $357 $524 forward 7 unknown #
edge $-1 $363 -8.9483286236463115 $523 1.1373479346495045e-014 $217 $525 forward 7 unknown #
coedge $-1 $218 $515 $521 $526 forward $361 $-1 #
loop $-1 $-1 $515 $349 #
vertex $-1 $358 $527 #
vertex $-1 $219 $528 #
straight-curve $-1 -75.713822109636155 -26.054173444609983 9.694142710137605 1 0 0 I I #
coedge $-1 $365 $365 $-1 $529 reversed $222 $-1 #
edge $-1 $530 0 $530 6.2831853071796004 $223 $531 forward 7 unknown #
vertex $-1 $226 $532 #
ellipse-curve $-1 -56.028961658490601 -23.664618634599226 6.1684530820859251 -0.78801076186113728 0 0.61566146476048833 0.30783073238024417 0 0.39400538093056864 1 I I #
coedge $-1 $369 $369 $-1 $533 reversed $229 $-1 #
edge $-1 $534 0 $534 6.2831853071796004 $230 $535 forward 7 unknown #
vertex $-1 $233 $536 #
ellipse-curve $-1 -56.028961658490601 -20.080286419583089 6.1684530820859251 -0.78801076186113728 0 0.61566146476048833 0.30783073238024417 0 0.39400538093056864 1 I I #
face $-1 $-1 $537 $51 $-1 $538 reversed single #
loop $-1 $-1 $240 $234 #
plane-surface $-1 0 0 9.694142710137605 0 0 1 1 0 0 forward_v I I I I #
coedge $-1 $539 $540 $541 $542 reversed $235 $-1 #
coedge $-1 $543 $237 $239 $383 forward $147 $-1 #
coedge $-1 $237 $543 $539 $544 forward $147 $-1 #
coedge $-1 $541 $240 $237 $380 forward $374 $-1 #
edge $-1 $386 -7.2988163145761931 $545 1.0646255204614627 $379 $546 forward 7 unknown #
coedge $-1 $547 $548 $238 $382 forward $537 $-1 #
edge $-1 $549 -34.869373818594688 $385 -27.817994562491329 $381 $550 forward 7 unknown #
edge $-1 $386 -8.9483286236463115 $549 1.1373479346495045e-014 $239 $551 forward 7 unknown #
coedge $-1 $240 $541 $547 $552 forward $374 $-1 #
vertex $-1 $241 $553 #
vertex $-1 $241 $554 #
straight-curve $-1 -75.713822109636155 -10.415911711633559 9.694142710137605 1 0 0 I I #
coedge $-1 $388 $388 $-1 $555 reversed $244 $-1 #
edge $-1 $556 0 $556 6.2831853071796004 $245 $557 forward 7 unknown #
vertex $-1 $248 $558 #
ellipse-curve $-1 -56.028961658490601 -8.0263569016227976 6.1684530820859251 -0.78801076186113728 0 0.61566146476048833 0.30783073238024417 0 0.39400538093056864 1 I I #
coedge $-1 $392 $392 $-1 $559 reversed $251 $-1 #
edge $-1 $560 0 $560 6.2831853071796004 $252 $561 forward 7 unknown #
vertex $-1 $255 $562 #
ellipse-curve $-1 -56.028961658490601 -4.4420246866066648 6.1684530820859251 -0.78801076186113728 0 0.61566146476048833 0.30783073238024417 0 0.39400538093056864 1 I I #
face $-1 $-1 $563 $54 $-1 $564 reversed single #
loop $-1 $-1 $262 $256 #
plane-surface $-1 0 0 9.694142710137605 0 0 1 1 0 0 forward_v I I I I #
coedge $-1 $565 $566 $567 $568 reversed $257 $-1 #
coedge $-1 $569 $259 $261 $406 forward $161 $-1 #
coedge $-1 $259 $569 $565 $570 forward $161 $-1 #
coedge $-1 $567 $262 $259 $403 forward $397 $-1 #
edge $-1 $409 0.52031455191201825 $571 8.8837563869496741 $402 $572 forward 7 unknown #
coedge $-1 $573 $574 $260 $405 forward $563 $-1 #
edge $-1 $575 -34.869373818594688 $408 -27.817994562491329 $404 $576 forward 7 unknown #
edge $-1 $409 -8.9483286236463115 $575 1.1373479346495045e-014 $261 $577 forward 7 unknown #
coedge $-1 $262 $567 $573 $578 forward $397 $-1 #
vertex $-1 $263 $579 #
vertex $-1 $263 $580 #
straight-curve $-1 -75.713822109636155 5.2223500213428649 9.694142710137605 1 0 0 I I #
coedge $-1 $411 $411 $-1 $581 reversed $266 $-1 #
edge $-1 $582 0 $582 6.2831853071796004 $267 $583 forward 7 unknown #
vertex $-1 $270 $584 #
ellipse-curve $-1 -56.028961658490601 7.6119048313536268 6.1684530820859251 -0.78801076186113728 0 0.61566146476048833 0.30783073238024417 0 0.39400538093056864 1 I I #
coedge $-1 $415 $415 $-1 $585 reversed $273 $-1 #
edge $-1 $586 0 $586 6.2831853071796004 $274 $587 forward 7 unknown #
vertex $-1 $277 $588 #
ellipse-curve $-1 -56.028961658490601 11.19623704636976 6.1684530820859251 -0.78801076186113728 0 0.61566146476048833 0.30783073238024417 0 0.39400538093056864 1 I I #
face $-1 $-1 $589 $57 $-1 $590 reversed single #
loop $-1 $-1 $284 $278 #
plane-surface $-1 0 0 9.694142710137605 0 0 1 1 0 0 forward_v I I I I #
coedge $-1 $591 $592 $593 $594 reversed $279 $-1 #
coedge $-1 $595 $281 $283 $429 forward $175 $-1 #
coedge $-1 $281 $595 $591 $596 forward $175 $-1 #
coedge $-1 $593 $284 $281 $426 forward $420 $-1 #
edge $-1 $432 8.3394454184002349 $597 16.70288725343789 $425 $598 forward 7 unknown #
coedge $-1 $599 $600 $282 $428 forward $589 $-1 #
edge $-1 $601 -34.869373818594688 $431 -27.817994562491329 $427 $602 forward 7 unknown #
edge $-1 $432 -8.9483286236463115 $601 1.1373479346495045e-014 $283 $603 forward 7 unknown #
coedge $-1 $284 $593 $599 $604 forward $420 $-1 #
vertex $-1 $285 $605 #
vertex $-1 $285 $606 #
straight-curve $-1 -75.713822109636155 20.860611754319297 9.694142710137605 1 0 0 I I #
coedge $-1 $434 $434 $-1 $607 reversed $288 $-1 #
edge $-1 $608 0 $608 6.2831853071796004 $289 $609 forward 7 unknown #
vertex $-1 $292 $610 #
ellipse-curve $-1 -56.028961658490601 23.250166564330051 6.1684530820859251 -0.78801076186113728 0 0.61566146476048833 0.30783073238024417 0 0.39400538093056864 1 I I #
coedge $-1 $438 $438 $-1 $611 reversed $295 $-1 #
edge $-1 $612 0 $612 6.2831853071796004 $296 $613 forward 7 unknown #
vertex $-1 $299 $614 #
ellipse-curve $-1 -56.028961658490601 26.834498779346191 6.1684530820859251 -0.78801076186113728 0 0.61566146476048833 0.30783073238024417 0 0.39400538093056864 1 I I #
face $-1 $-1 $315 $45 $-1 $615 reversed single #
loop $-1 $-1 $458 $300 #
plane-surface $-1 0 39.535499929439155 0 0 -1 0 0 0 -1 forward_v I I I I #
coedge $-1 $616 $456 $459 $617 forward $301 $-1 #
coedge $-1 $462 $303 $304 $450 reversed $189 $-1 #
coedge $-1 $456 $616 $303 $448 reversed $301 $-1 #
edge $-1 $463 -9.694142710137605 $618 9.694142710137605 $447 $619 forward 7 unknown #
coedge $-1 $305 $304 $616 $620 forward $121 $-1 #
edge $-1 $454 -58.783532212286751 $618 58.783532212286751 $446 $621 forward 7 unknown #
coedge $-1 $459 $458 $305 $452 reversed $443 $-1 #
edge $-1 $622 -58.783532212286751 $453 58.783532212286751 $451 $623 forward 7 unknown #
vertex $-1 $307 $624 #
vertex $-1 $465 $625 #
straight-curve $-1 58.783532212286751 0 -9.694142710137605 0 -1 0 I I #
coedge $-1 $445 $447 $308 $457 reversed $301 $-1 #
edge $-1 $460 -39.535499929439155 $463 39.535499929439155 $456 $626 forward 7 unknown #
coedge $-1 $451 $309 $314 $466 forward $443 $-1 #
coedge $-1 $309 $451 $445 $617 reversed $443 $-1 #
vertex $-1 $310 $627 #
straight-curve $-1 0 39.535499929439155 9.694142710137605 -1 0 0 I I #
coedge $-1 $311 $446 $313 $465 reversed $189 $-1 #
vertex $-1 $457 $628 #
straight-curve $-1 0 -39.535499929439155 9.694142710137605 1 0 0 I I #
edge $-1 $316 -9.694142710137605 $454 9.694142710137605 $313 $629 forward 7 unknown #
edge $-1 $317 -9.694142710137605 $453 9.694142710137605 $314 $630 forward 7 unknown #
point $-1 58.783532212286751 -39.535499929439155 9.694142710137605 #
point $-1 58.783532212286751 39.535499929439155 9.694142710137605 #
face $-1 $-1 $483 $46 $-1 $631 reversed single #
loop $-1 $-1 $632 $319 #
plane-surface $-1 0 -47.794476392925461 7.5342840457691977 0 1 0 0 0 1 forward_v I I I I #
coedge $-1 $633 $322 $331 $487 reversed $197 $-1 #
coedge $-1 $322 $633 $323 $475 reversed $197 $-1 #
coedge $-1 $324 $323 $634 $635 forward $125 $-1 #
edge $-1 $479 39.535499929439155 $636 47.794476392925461 $473 $637 forward 7 unknown #
coedge $-1 $638 $328 $324 $477 reversed $483 $-1 #
edge $-1 $639 -47.794476392925461 $478 -39.535499929439155 $476 $640 forward 7 unknown #
vertex $-1 $329 $641 #
vertex $-1 $475 $642 #
straight-curve $-1 0 -39.535499929439155 9.694142710137605 -1 0 0 I I #
straight-curve $-1 -58.783532212286751 -39.535499929439155 0 0 0 -1 I I #
coedge $-1 $328 $638 $330 $486 reversed $483 $-1 #
loop $-1 $-1 $328 $469 #
straight-curve $-1 58.783532212286751 -39.535499929439155 0 0 0 1 I I #
coedge $-1 $331 $330 $643 $644 forward $320 $-1 #
edge $-1 $332 -4.1294882317431529 $645 4.1294882317431529 $482 $646 forward 7 unknown #
edge $-1 $647 -4.1294882317431529 $333 4.1294882317431529 $472 $648 forward 7 unknown #
point $-1 58.783532212286751 -39.535499929439155 5.3744253814007905 #
point $-1 -58.783532212286751 -39.535499929439155 5.3744253814007905 #
face $-1 $-1 $505 $47 $-1 $649 reversed single #
loop $-1 $-1 $501 $335 #
plane-surface $-1 0 0 9.694142710137605 0 0 1 1 0 0 forward_v I I I I #
coedge $-1 $650 $651 $496 $652 forward $336 $-1 #
coedge $-1 $338 $345 $650 $653 forward $205 $-1 #
edge $-1 $654 -4.1294882317431529 $347 4.1294882317431529 $339 $655 forward 7 unknown #
coedge $-1 $340 $339 $493 $652 reversed $129 $-1 #
coedge $-1 $656 $501 $340 $498 forward $491 $-1 #
edge $-1 $499 39.535499929439155 $657 47.794476392925461 $340 $658 forward 7 unknown #
vertex $-1 $498 $659 #
straight-curve $-1 58.783532212286751 39.535499929439155 0 0 0 -1 I I #
coedge $-1 $497 $660 $342 $502 forward $491 $-1 #
edge $-1 $506 -58.783532212286751 $499 58.783532212286751 $501 $661 forward 7 unknown #
coedge $-1 $662 $343 $660 $663 reversed $505 $-1 #
coedge $-1 $343 $662 $345 $508 reversed $505 $-1 #
loop $-1 $-1 $343 $490 #
vertex $-1 $344 $664 #
straight-curve $-1 -58.783532212286751 39.535499929439155 0 0 0 1 I I #
edge $-1 $346 -4.1294882317431529 $665 4.1294882317431529 $504 $666 forward 7 unknown #
point $-1 -58.783532212286751 39.535499929439155 5.3744253814007905 #
point $-1 58.783532212286751 39.535499929439155 5.3744253814007905 #
plane-surface $-1 0 0 9.694142710137605 0 0 1 1 0 0 forward_v I I I I #
coedge $-1 $522 $521 $514 $667 forward $350 $-1 #
coedge $-1 $514 $352 $354 $518 reversed $213 $-1 #
coedge $-1 $352 $513 $512 $667 reversed $213 $-1 #
coedge $-1 $360 $355 $352 $516 forward $361 $-1 #
edge $-1 $519 -22.439431004941703 $668 -16.930289897349404 $515 $669 forward 7 unknown #
coedge $-1 $354 $353 $522 $670 reversed $133 $-1 #
edge $-1 $671 -1.1373479346495045e-014 $519 8.9483286236463115 $513 $672 forward 7 unknown #
vertex $-1 $356 $673 #
straight-curve $-1 -53.274391104694452 -10.936226263545578 9.6941427101376032 0 1 0 I I #
coedge $-1 $512 $357 $360 $526 reversed $350 $-1 #
coedge $-1 $357 $512 $517 $670 forward $350 $-1 #
vertex $-1 $358 $674 #
straight-curve $-1 -58.783532212286751 -26.054173444609983 37.512137272628934 0 0 1 I I #
straight-curve $-1 -58.783532212286744 -26.054173444609983 2.6427634540342524 -0.61566146476048833 0 -0.78801076186113728 I I #
edge $-1 $668 17.690731609572328 $362 26.054173444609983 $521 $675 forward 7 unknown #
point $-1 -58.783532212286751 -26.054173444609983 9.694142710137605 #
point $-1 -53.274391104694452 -26.054173444609983 9.694142710137605 #
edge $-1 $676 1 $676 0 $365 $-1 forward 7 unknown #
vertex $-1 $366 $677 #
ellipse-curve $-1 -54.786835255398231 -23.664618634599226 5.197997603864569 -0.78801076186113728 0 0.61566146476048833 0.30783073238024417 0 0.39400538093056864 1 I I #
point $-1 -55.721130926110362 -23.664618634599226 6.5624584630164957 #
edge $-1 $678 1 $678 0 $369 $-1 forward 7 unknown #
vertex $-1 $370 $679 #
ellipse-curve $-1 -54.786835255398231 -20.080286419583089 5.197997603864569 -0.78801076186113728 0 0.61566146476048833 0.30783073238024417 0 0.39400538093056864 1 I I #
point $-1 -55.721130926110362 -20.080286419583089 6.5624584630164957 #
loop $-1 $-1 $381 $373 #
plane-surface $-1 -58.783532212286751 0 0 1 0 0 0 0 -1 forward_v I I I I #
coedge $-1 $540 $376 $378 $544 reversed $235 $-1 #
coedge $-1 $376 $539 $680 $681 reversed $235 $-1 #
coedge $-1 $384 $379 $376 $542 forward $374 $-1 #
edge $-1 $545 -22.439431004941703 $682 -16.930289897349404 $541 $683 forward 7 unknown #
coedge $-1 $378 $377 $548 $684 reversed $147 $-1 #
edge $-1 $685 -1.1373479346495045e-014 $545 8.9483286236463115 $539 $686 forward 7 unknown #
vertex $-1 $380 $687 #
straight-curve $-1 -53.274391104694452 -3.1170953970573656 9.6941427101376032 0 1 0 I I #
coedge $-1 $680 $381 $384 $552 reversed $537 $-1 #
coedge $-1 $381 $680 $543 $684 forward $537 $-1 #
vertex $-1 $382 $688 #
straight-curve $-1 -58.783532212286751 -10.415911711633559 37.512137272628934 0 0 1 I I #
straight-curve $-1 -58.783532212286744 -10.415911711633559 2.6427634540342524 -0.61566146476048833 0 -0.78801076186113728 I I #
edge $-1 $682 2.0524698765959029 $385 10.415911711633559 $547 $689 forward 7 unknown #
point $-1 -58.783532212286751 -10.415911711633559 9.694142710137605 #
point $-1 -53.274391104694452 -10.415911711633559 9.694142710137605 #
edge $-1 $690 1 $690 0 $388 $-1 forward 7 unknown #
vertex $-1 $389 $691 #
ellipse-curve $-1 -54.786835255398231 -8.0263569016227976 5.197997603864569 -0.78801076186113728 0 0.61566146476048833 0.30783073238024417 0 0.39400538093056864 1 I I #
point $-1 -55.721130926110362 -8.0263569016227976 6.5624584630164957 #
edge $-1 $692 1 $692 0 $392 $-1 forward 7 unknown #
vertex $-1 $393 $693 #
ellipse-curve $-1 -54.786835255398231 -4.4420246866066648 5.197997603864569 -0.78801076186113728 0 0.61566146476048833 0.30783073238024417 0 0.39400538093056864 1 I I #
point $-1 -55.721130926110362 -4.4420246866066648 6.5624584630164957 #
loop $-1 $-1 $404 $396 #
plane-surface $-1 -58.783532212286751 0 0 1 0 0 0 0 -1 forward_v I I I I #
coedge $-1 $566 $399 $401 $570 reversed $257 $-1 #
coedge $-1 $399 $565 $694 $695 reversed $257 $-1 #
coedge $-1 $407 $402 $399 $568 forward $397 $-1 #
edge $-1 $571 -22.439431004941703 $696 -16.930289897349404 $567 $697 forward 7 unknown #
coedge $-1 $401 $400 $574 $698 reversed $161 $-1 #
edge $-1 $699 -1.1373479346495045e-014 $571 8.9483286236463115 $565 $700 forward 7 unknown #
vertex $-1 $403 $701 #
straight-curve $-1 -53.274391104694452 4.7020354694308466 9.6941427101376032 0 1 0 I I #
coedge $-1 $694 $404 $407 $578 reversed $563 $-1 #
coedge $-1 $404 $694 $569 $698 forward $563 $-1 #
vertex $-1 $405 $702 #
straight-curve $-1 -58.783532212286751 5.2223500213428649 37.512137272628934 0 0 1 I I #
straight-curve $-1 -58.783532212286744 5.2223500213428649 2.6427634540342524 -0.61566146476048833 0 -0.78801076186113728 I I #
edge $-1 $696 -13.585791856380521 $408 -5.2223500213428649 $573 $703 forward 7 unknown #
point $-1 -58.783532212286751 5.2223500213428649 9.694142710137605 #
point $-1 -53.274391104694452 5.2223500213428649 9.694142710137605 #
edge $-1 $704 1 $704 0 $411 $-1 forward 7 unknown #
vertex $-1 $412 $705 #
ellipse-curve $-1 -54.786835255398231 7.6119048313536268 5.197997603864569 -0.78801076186113728 0 0.61566146476048833 0.30783073238024417 0 0.39400538093056864 1 I I #
point $-1 -55.721130926110362 7.6119048313536268 6.5624584630164957 #
edge $-1 $706 1 $706 0 $415 $-1 forward 7 unknown #
vertex $-1 $416 $707 #
ellipse-curve $-1 -54.786835255398231 11.19623704636976 5.197997603864569 -0.78801076186113728 0 0.61566146476048833 0.30783073238024417 0 0.39400538093056864 1 I I #
point $-1 -55.721130926110362 11.19623704636976 6.5624584630164957 #
loop $-1 $-1 $427 $419 #
plane-surface $-1 -58.783532212286751 0 0 1 0 0 0 0 -1 forward_v I I I I #
coedge $-1 $592 $422 $424 $596 reversed $279 $-1 #
coedge $-1 $422 $591 $708 $709 reversed $279 $-1 #
coedge $-1 $430 $425 $422 $594 forward $420 $-1 #
edge $-1 $597 -22.439431004941703 $710 -16.930289897349404 $593 $711 forward 7 unknown #
coedge $-1 $424 $423 $600 $712 reversed $175 $-1 #
edge $-1 $713 -1.1373479346495045e-014 $597 8.9483286236463115 $591 $714 forward 7 unknown #
vertex $-1 $426 $715 #
straight-curve $-1 -53.274391104694452 12.521166335919062 9.6941427101376032 0 1 0 I I #
coedge $-1 $708 $427 $430 $604 reversed $589 $-1 #
coedge $-1 $427 $708 $595 $712 forward $589 $-1 #
vertex $-1 $428 $716 #
straight-curve $-1 -58.783532212286751 20.860611754319297 37.512137272628934 0 0 1 I I #
straight-curve $-1 -58.783532212286744 20.860611754319297 2.6427634540342524 -0.61566146476048833 0 -0.78801076186113728 I I #
edge $-1 $710 -29.224053589356952 $431 -20.860611754319297 $599 $717 forward 7 unknown #
point $-1 -58.783532212286751 20.860611754319297 9.694142710137605 #
point $-1 -53.274391104694452 20.860611754319297 9.694142710137605 #
edge $-1 $718 1 $718 0 $434 $-1 forward 7 unknown #
vertex $-1 $435 $719 #
ellipse-curve $-1 -54.786835255398231 23.250166564330051 5.197997603864569 -0.78801076186113728 0 0.61566146476048833 0.30783073238024417 0 0.39400538093056864 1 I I #
point $-1 -55.721130926110362 23.250166564330051 6.5624584630164957 #
edge $-1 $720 1 $720 0 $438 $-1 forward 7 unknown #
vertex $-1 $439 $721 #
ellipse-curve $-1 -54.786835255398231 26.834498779346191 5.197997603864569 -0.78801076186113728 0 0.61566146476048833 0.30783073238024417 0 0.39400538093056864 1 I I #
point $-1 -55.721130926110362 26.834498779346191 6.5624584630164957 #
plane-surface $-1 58.783532212286751 0 0 -1 0 0 0 0 1 forward_v I I I I #
coedge $-1 $447 $445 $449 $620 reversed $301 $-1 #
edge $-1 $460 -9.694142710137605 $622 9.694142710137605 $459 $722 forward 7 unknown #
vertex $-1 $620 $723 #
straight-curve $-1 -58.783532212286751 -39.535499929439155 0 0 0 -1 I I #
edge $-1 $618 -39.535499929439155 $622 39.535499929439155 $616 $724 forward 7 unknown #
straight-curve $-1 0 -39.535499929439155 -9.694142710137605 -1 0 0 I I #
vertex $-1 $452 $725 #
straight-curve $-1 0 39.535499929439155 -9.694142710137605 1 0 0 I I #
point $-1 58.783532212286751 39.535499929439155 -9.694142710137605 #
point $-1 58.783532212286751 -39.535499929439155 -9.694142710137605 #
straight-curve $-1 -58.783532212286751 0 9.694142710137605 0 -1 0 I I #
point $-1 -58.783532212286751 39.535499929439155 9.694142710137605 #
point $-1 -58.783532212286751 -39.535499929439155 9.694142710137605 #
straight-curve $-1 58.783532212286751 -39.535499929439155 0 0 0 -1 I I #
straight-curve $-1 58.783532212286751 39.535499929439155 0 0 0 -1 I I #
plane-surface $-1 58.783532212286751 0 0 -1 0 0 0 0 1 forward_v I I I I #
coedge $-1 $643 $634 $633 $726 forward $470 $-1 #
coedge $-1 $473 $472 $632 $726 reversed $197 $-1 #
coedge $-1 $632 $727 $474 $635 reversed $470 $-1 #
edge $-1 $636 -58.783532212286751 $639 58.783532212286751 $634 $728 forward 7 unknown #
vertex $-1 $475 $729 #
straight-curve $-1 -58.783532212286751 0 9.694142710137605 0 -1 0 I I #
coedge $-1 $482 $476 $727 $730 forward $483 $-1 #
vertex $-1 $477 $731 #
straight-curve $-1 58.783532212286751 0 9.694142710137605 0 1 0 I I #
point $-1 58.783532212286751 -39.535499929439155 9.694142710137605 #
point $-1 -58.783532212286751 -39.535499929439155 9.694142710137605 #
coedge $-1 $727 $632 $485 $644 reversed $470 $-1 #
edge $-1 $645 -58.783532212286751 $647 58.783532212286751 $643 $732 forward 7 unknown #
vertex $-1 $730 $733 #
straight-curve $-1 58.783532212286751 -43.664988161182308 5.3744253814007905 0 -1 0 I I #
vertex $-1 $487 $734 #
straight-curve $-1 -58.783532212286751 -43.664988161182308 5.3744253814007905 0 1 0 I I #
plane-surface $-1 -58.783532212286751 0 0 1 0 0 0 0 -1 forward_v I I I I #
coedge $-1 $735 $493 $494 $653 reversed $336 $-1 #
coedge $-1 $493 $735 $656 $736 reversed $336 $-1 #
edge $-1 $657 -2.1598586643684072 $654 2.1598586643684072 $496 $737 forward 7 unknown #
edge $-1 $665 -58.783532212286751 $654 58.783532212286751 $650 $738 forward 7 unknown #
vertex $-1 $495 $739 #
straight-curve $-1 58.783532212286751 43.664988161182308 5.3744253814007905 0 -1 0 I I #
coedge $-1 $660 $497 $651 $736 forward $491 $-1 #
vertex $-1 $498 $740 #
straight-curve $-1 58.783532212286751 0 9.694142710137605 0 1 0 I I #
point $-1 58.783532212286751 39.535499929439155 9.694142710137605 #
coedge $-1 $501 $656 $503 $663 forward $491 $-1 #
straight-curve $-1 0 39.535499929439155 9.694142710137605 1 0 0 I I #
coedge $-1 $504 $503 $735 $741 forward $505 $-1 #
edge $-1 $742 -47.794476392925461 $506 -39.535499929439155 $503 $743 forward 7 unknown #
point $-1 -58.783532212286751 39.535499929439155 9.694142710137605 #
vertex $-1 $653 $744 #
straight-curve $-1 -58.783532212286751 43.664988161182308 5.3744253814007905 0 1 0 I I #
edge $-1 $668 27.817994562491329 $671 34.869373818594688 $512 $745 forward 7 unknown #
vertex $-1 $526 $746 #
straight-curve $-1 -75.713822109636155 -17.690731609572328 9.694142710137605 -1 0 0 I I #
edge $-1 $671 6.7545053460267503 $523 15.117947181064405 $522 $747 forward 7 unknown #
vertex $-1 $670 $748 #
straight-curve $-1 -58.783532212286744 -17.690731609572328 2.6427634540342524 0.61566146476048833 0 0.78801076186113728 I I #
point $-1 -53.274391104694452 -17.690731609572328 9.694142710137605 #
point $-1 -58.783532212286751 -26.054173444609983 2.6427634540342435 #
straight-curve $-1 -58.783532212286751 0 9.694142710137605 0 -1 0 I I #
vertex $-1 $529 $749 #
point $-1 -54.479004523017991 -23.664618634599226 5.5920029847951378 #
vertex $-1 $533 $750 #
point $-1 -54.479004523017991 -20.080286419583089 5.5920029847951378 #
coedge $-1 $548 $547 $540 $681 forward $537 $-1 #
edge $-1 $682 27.817994562491329 $685 34.869373818594688 $680 $751 forward 7 unknown #
vertex $-1 $552 $752 #
straight-curve $-1 -75.713822109636155 -2.0524698765959029 9.694142710137605 -1 0 0 I I #
edge $-1 $685 -1.0646255204614627 $549 7.2988163145761931 $548 $753 forward 7 unknown #
vertex $-1 $684 $754 #
straight-curve $-1 -58.783532212286744 -2.0524698765959029 2.6427634540342524 0.61566146476048833 0 0.78801076186113728 I I #
point $-1 -53.274391104694452 -2.0524698765959029 9.694142710137605 #
point $-1 -58.783532212286751 -10.415911711633559 2.6427634540342435 #
straight-curve $-1 -58.783532212286751 0 9.694142710137605 0 -1 0 I I #
vertex $-1 $555 $755 #
point $-1 -54.479004523017991 -8.0263569016227976 5.5920029847951378 #
vertex $-1 $559 $756 #
point $-1 -54.479004523017991 -4.4420246866066648 5.5920029847951378 #
coedge $-1 $574 $573 $566 $695 forward $563 $-1 #
edge $-1 $696 27.817994562491329 $699 34.869373818594688 $694 $757 forward 7 unknown #
vertex $-1 $578 $758 #
straight-curve $-1 -75.713822109636155 13.585791856380521 9.694142710137605 -1 0 0 I I #
edge $-1 $699 -8.8837563869496741 $575 -0.52031455191201825 $574 $759 forward 7 unknown #
vertex $-1 $698 $760 #
straight-curve $-1 -58.783532212286744 13.585791856380521 2.6427634540342524 0.61566146476048833 0 0.78801076186113728 I I #
point $-1 -53.274391104694452 13.585791856380521 9.694142710137605 #
point $-1 -58.783532212286751 5.2223500213428649 2.6427634540342435 #
straight-curve $-1 -58.783532212286751 0 9.694142710137605 0 -1 0 I I #
vertex $-1 $581 $761 #
point $-1 -54.479004523017991 7.6119048313536268 5.5920029847951378 #
vertex $-1 $585 $762 #
point $-1 -54.479004523017991 11.19623704636976 5.5920029847951378 #
coedge $-1 $600 $599 $592 $709 forward $589 $-1 #
edge $-1 $710 27.817994562491329 $713 34.869373818594688 $708 $763 forward 7 unknown #
vertex $-1 $604 $764 #
straight-curve $-1 -75.713822109636155 29.224053589356952 9.694142710137605 -1 0 0 I I #
edge $-1 $713 -16.70288725343789 $601 -8.3394454184002349 $600 $765 forward 7 unknown #
vertex $-1 $712 $766 #
straight-curve $-1 -58.783532212286744 29.224053589356952 2.6427634540342524 0.61566146476048833 0 0.78801076186113728 I I #
point $-1 -53.274391104694452 29.224053589356952 9.694142710137605 #
point $-1 -58.783532212286751 20.860611754319297 2.6427634540342435 #
straight-curve $-1 -58.783532212286751 0 9.694142710137605 0 -1 0 I I #
vertex $-1 $607 $767 #
point $-1 -54.479004523017991 23.250166564330051 5.5920029847951378 #
vertex $-1 $611 $768 #
point $-1 -54.479004523017991 26.834498779346191 5.5920029847951378 #
straight-curve $-1 -58.783532212286751 39.535499929439155 0 0 0 -1 I I #
point $-1 -58.783532212286751 -39.535499929439155 -9.694142710137605 #
straight-curve $-1 -58.783532212286751 0 -9.694142710137605 0 1 0 I I #
point $-1 -58.783532212286751 39.535499929439155 -9.694142710137605 #
edge $-1 $636 -2.1598586643684072 $647 2.1598586643684072 $633 $769 forward 7 unknown #
coedge $-1 $634 $643 $638 $730 reversed $470 $-1 #
straight-curve $-1 0 -47.794476392925461 9.694142710137605 1 0 0 I I #
point $-1 -58.783532212286751 -47.794476392925461 9.694142710137605 #
edge $-1 $639 -2.1598586643684072 $645 2.1598586643684072 $638 $770 forward 7 unknown #
point $-1 58.783532212286751 -47.794476392925461 9.694142710137605 #
straight-curve $-1 0 -47.794476392925461 5.3744253814007905 -1 0 0 I I #
point $-1 58.783532212286751 -47.794476392925461 5.3744253814007905 #
point $-1 -58.783532212286751 -47.794476392925461 5.3744253814007905 #
coedge $-1 $651 $650 $662 $741 reversed $336 $-1 #
edge $-1 $657 -58.783532212286751 $742 58.783532212286751 $651 $771 forward 7 unknown #
straight-curve $-1 58.783532212286751 47.794476392925461 7.5342840457691977 0 0 -1 I I #
straight-curve $-1 0 47.794476392925461 5.3744253814007905 1 0 0 I I #
point $-1 58.783532212286751 47.794476392925461 5.3744253814007905 #
point $-1 58.783532212286751 47.794476392925461 9.694142710137605 #
edge $-1 $742 -2.1598586643684072 $665 2.1598586643684072 $735 $772 forward 7 unknown #
vertex $-1 $736 $773 #
straight-curve $-1 -58.783532212286751 0 9.694142710137605 0 -1 0 I I #
point $-1 -58.783532212286751 47.794476392925461 5.3744253814007905 #
straight-curve $-1 -58.783532212286751 -17.690731609572328 37.512137272628934 0 0 -1 I I #
point $-1 -58.783532212286751 -17.690731609572328 9.694142710137605 #
straight-curve $-1 -58.783532212286751 -10.936226263545578 2.642763454034236 0 -1 0 I I #
point $-1 -58.783532212286751 -17.690731609572328 2.6427634540342435 #
point $-1 -54.392829874467665 -23.664618634599226 4.8901668714843245 #
point $-1 -54.392829874467665 -20.080286419583089 4.8901668714843245 #
straight-curve $-1 -58.783532212286751 -2.0524698765959029 37.512137272628934 0 0 -1 I I #
point $-1 -58.783532212286751 -2.0524698765959029 9.694142710137605 #
straight-curve $-1 -58.783532212286751 -3.1170953970573656 2.642763454034236 0 -1 0 I I #
point $-1 -58.783532212286751 -2.0524698765959029 2.6427634540342435 #
point $-1 -54.392829874467665 -8.0263569016227976 4.8901668714843245 #
point $-1 -54.392829874467665 -4.4420246866066648 4.8901668714843245 #
straight-curve $-1 -58.783532212286751 13.585791856380521 37.512137272628934 0 0 -1 I I #
point $-1 -58.783532212286751 13.585791856380521 9.694142710137605 #
straight-curve $-1 -58.783532212286751 4.7020354694308466 2.642763454034236 0 -1 0 I I #
point $-1 -58.783532212286751 13.585791856380521 2.6427634540342435 #
point $-1 -54.392829874467665 7.6119048313536268 4.8901668714843245 #
point $-1 -54.392829874467665 11.19623704636976 4.8901668714843245 #
straight-curve $-1 -58.783532212286751 29.224053589356952 37.512137272628934 0 0 -1 I I #
point $-1 -58.783532212286751 29.224053589356952 9.694142710137605 #
straight-curve $-1 -58.783532212286751 12.521166335919062 2.642763454034236 0 -1 0 I I #
point $-1 -58.783532212286751 29.224053589356952 2.6427634540342435 #
point $-1 -54.392829874467665 23.250166564330051 4.8901668714843245 #
point $-1 -54.392829874467665 26.834498779346191 4.8901668714843245 #
straight-curve $-1 -58.783532212286751 -47.794476392925461 7.5342840457691977 0 0 -1 I I #
straight-curve $-1 58.783532212286751 -47.794476392925461 7.5342840457691977 0 0 -1 I I #
straight-curve $-1 0 47.794476392925461 9.694142710137605 -1 0 0 I I #
straight-curve $-1 -58.783532212286751 47.794476392925461 7.5342840457691977 0 0 -1 I I #
point $-1 -58.783532212286751 47.794476392925461 9.694142710137605 #
End-of-ACIS-data 