500 0 5 0           
7 Unknown 11 ACIS 5.0 NT 24 Fri Mar 26 16:59:44 1999 
-1 9.9999999999999995e-007 1e-010 
body $-1 $5 $-1 $6 #
body $-1 $7 $-1 $8 #
body $-1 $9 $-1 $10 #
body $-1 $11 $-1 $12 #
body $-1 $13 $-1 $14 #
lump $-1 $-1 $15 $0 #
transform $-1 1 0 0 0 1 0 0 0 1 45.802179021576585 18.579607023434974 8.5005090088145216 1 rotate no_reflect no_shear #
lump $-1 $-1 $16 $1 #
transform $-1 1 0 0 0 1 0 0 0 1 45.802179021576585 18.579607023434974 8.5005090088145216 1 rotate no_reflect no_shear #
lump $-1 $-1 $17 $2 #
transform $-1 1 0 0 0 1 0 0 0 1 45.802179021576585 18.579607023434974 8.5005090088145216 1 rotate no_reflect no_shear #
lump $-1 $-1 $18 $3 #
transform $-1 1 0 0 0 1 0 0 0 1 45.802179021576585 18.579607023434974 8.5005090088145216 1 rotate no_reflect no_shear #
lump $-1 $-1 $19 $4 #
transform $-1 1 0 0 0 1 0 0 0 1 45.802179021576585 18.579607023434974 8.5005090088145216 1 rotate no_reflect no_shear #
shell $-1 $-1 $-1 $20 $-1 $5 #
shell $-1 $-1 $-1 $21 $-1 $7 #
shell $-1 $-1 $-1 $22 $-1 $9 #
shell $-1 $-1 $-1 $23 $-1 $11 #
shell $-1 $-1 $-1 $24 $-1 $13 #
face $-1 $25 $26 $15 $-1 $27 forward single #
face $-1 $28 $29 $16 $-1 $30 forward single #
face $-1 $31 $32 $17 $-1 $33 reversed single #
face $-1 $34 $35 $18 $-1 $36 forward single #
face $-1 $37 $38 $19 $-1 $39 forward single #
face $-1 $40 $41 $15 $-1 $42 reversed single #
loop $-1 $-1 $43 $20 #
plane-surface $-1 0 0 8.5005090088145216 0 0 1 1 0 0 forward_v I I I I #
face $-1 $44 $45 $16 $-1 $46 reversed single #
loop $-1 $-1 $47 $21 #
plane-surface $-1 -45.802179021576585 0 0 1 0 0 0 0 -1 forward_v I I I I #
face $-1 $48 $49 $17 $-1 $50 reversed single #
loop $-1 $-1 $51 $22 #
plane-surface $-1 50.323344969812517 8.6011536722926536 132.45892550417889 0 1 0 0.73135370988377701 0 0.68199835119979291 forward_v I I I I #
face $-1 $52 $53 $18 $-1 $54 forward single #
loop $-1 $55 $56 $23 #
cone-surface $-1 41.79663983436847 11.452140344047603 4.4059366178070816 -0.73135370988377701 0 -0.68199835119979291 0.68199835119979291 0 -0.73135370988377701 1 I I 0 1 1 forward I I I I #
face $-1 $57 $58 $19 $-1 $59 forward single #
loop $-1 $60 $61 $24 #
cone-surface $-1 41.79663983436847 15.728620351680021 4.4059366178070816 -0.73135370988377701 0 -0.68199835119979291 0.68199835119979291 0 -0.73135370988377701 1 I I 0 1 1 forward I I I I #
face $-1 $62 $63 $15 $-1 $64 reversed single #
loop $-1 $-1 $65 $25 #
plane-surface $-1 0 0 -8.5005090088145216 0 0 1 1 0 0 forward_v I I I I #
coedge $-1 $66 $67 $68 $69 forward $26 $-1 #
face $-1 $70 $71 $16 $-1 $72 forward single #
loop $-1 $-1 $73 $28 #
plane-surface $-1 0 18.579607023434974 0 0 -1 0 0 0 -1 forward_v I I I I #
coedge $-1 $74 $75 $76 $77 forward $29 $-1 #
face $-1 $78 $79 $17 $-1 $80 forward single #
loop $-1 $-1 $81 $31 #
plane-surface $-1 -16.671842126569366 13.590380347863814 69.984904356032942 0.73135370988377701 0 0.68199835119979291 0.68199835119979291 0 -0.73135370988377701 forward_v I I I I #
coedge $-1 $82 $83 $84 $85 reversed $32 $-1 #
face $-1 $-1 $86 $18 $-1 $87 forward single #
loop $-1 $88 $89 $34 #
cone-surface $-1 39.994871951121063 11.452140344047603 2.7257609257814686 -0.73135370988377701 0 -0.68199835119979291 0.34099917559989645 0 -0.36567685494188851 1 I I -0.70710678118654746 0.70710678118654746 0.5 forward I I I I #
loop $-1 $-1 $90 $23 #
coedge $-1 $56 $56 $91 $92 reversed $35 $-1 #
face $-1 $-1 $93 $19 $-1 $94 forward single #
loop $-1 $95 $96 $37 #
cone-surface $-1 39.994871951121063 15.728620351680021 2.7257609257814686 -0.73135370988377701 0 -0.68199835119979291 0.34099917559989645 0 -0.36567685494188851 1 I I -0.70710678118654746 0.70710678118654746 0.5 forward I I I I #
loop $-1 $-1 $97 $24 #
coedge $-1 $61 $61 $98 $99 reversed $38 $-1 #
face $-1 $100 $101 $15 $-1 $102 reversed single #
loop $-1 $-1 $103 $40 #
plane-surface $-1 0 -18.579607023434974 0 0 1 0 0 0 1 forward_v I I I I #
coedge $-1 $104 $105 $106 $107 forward $41 $-1 #
coedge $-1 $108 $43 $109 $110 forward $26 $-1 #
coedge $-1 $43 $108 $111 $112 forward $26 $-1 #
coedge $-1 $113 $114 $43 $69 reversed $115 $-1 #
edge $-1 $116 -18.579607023434974 $117 18.579607023434974 $68 $118 forward 7 unknown #
face $-1 $119 $120 $16 $-1 $121 reversed single #
loop $-1 $-1 $76 $44 #
plane-surface $-1 -49.403686985451827 0 -5.5005090088145216 0 0 1 1 0 0 forward_v I I I I #
coedge $-1 $122 $123 $75 $124 forward $45 $-1 #
coedge $-1 $125 $47 $126 $127 reversed $29 $-1 #
coedge $-1 $47 $125 $73 $124 reversed $29 $-1 #
coedge $-1 $128 $129 $47 $77 reversed $71 $-1 #
edge $-1 $130 -18.579607023434974 $131 18.579607023434974 $76 $132 forward 7 unknown #
face $-1 $133 $134 $17 $-1 $135 reversed single #
loop $-1 $-1 $136 $48 #
plane-surface $-1 0 0 8.5005090088145216 0 0 1 1 0 0 forward_v I I I I #
coedge $-1 $137 $138 $139 $140 reversed $49 $-1 #
coedge $-1 $83 $51 $141 $142 reversed $32 $-1 #
coedge $-1 $51 $82 $137 $143 reversed $32 $-1 #
coedge $-1 $139 $144 $51 $85 forward $134 $-1 #
edge $-1 $145 57.728953743274928 $146 63.239745492438388 $84 $147 forward 7 unknown #
loop $-1 $-1 $91 $52 #
plane-surface $-1 -16.671842126569366 13.590380347863814 69.984904356032942 0.73135370988377701 0 0.68199835119979291 0.68199835119979291 0 -0.73135370988377701 forward_v I I I I #
loop $-1 $-1 $148 $34 #
coedge $-1 $89 $89 $90 $149 reversed $53 $-1 #
coedge $-1 $90 $90 $89 $149 forward $55 $-1 #
coedge $-1 $91 $91 $56 $92 forward $86 $-1 #
edge $-1 $150 0 $150 6.2831853071796004 $91 $151 forward 7 unknown #
loop $-1 $-1 $98 $57 #
plane-surface $-1 -16.671842126569366 13.590380347863814 69.984904356032942 0.73135370988377701 0 0.68199835119979291 0.68199835119979291 0 -0.73135370988377701 forward_v I I I I #
loop $-1 $-1 $152 $37 #
coedge $-1 $96 $96 $97 $153 reversed $58 $-1 #
coedge $-1 $97 $97 $96 $153 forward $60 $-1 #
coedge $-1 $98 $98 $61 $99 forward $93 $-1 #
edge $-1 $154 0 $154 6.2831853071796004 $98 $155 forward 7 unknown #
face $-1 $156 $157 $15 $-1 $158 reversed single #
loop $-1 $-1 $159 $62 #
plane-surface $-1 -45.802179021576585 0 0 1 0 0 0 0 -1 forward_v I I I I #
coedge $-1 $160 $111 $159 $161 forward $63 $-1 #
coedge $-1 $162 $65 $160 $163 forward $41 $-1 #
coedge $-1 $65 $162 $164 $165 forward $41 $-1 #
coedge $-1 $114 $113 $65 $107 reversed $115 $-1 #
edge $-1 $166 -18.579607023434974 $167 18.579607023434974 $106 $168 forward 7 unknown #
coedge $-1 $67 $66 $169 $170 forward $26 $-1 #
coedge $-1 $171 $172 $66 $110 reversed $157 $-1 #
edge $-1 $117 -45.802179021576585 $173 45.802179021576585 $109 $174 forward 7 unknown #
coedge $-1 $103 $175 $67 $112 reversed $63 $-1 #
edge $-1 $176 -45.802179021576585 $116 45.802179021576585 $111 $177 forward 7 unknown #
coedge $-1 $106 $68 $175 $178 forward $115 $-1 #
coedge $-1 $68 $106 $171 $179 reversed $115 $-1 #
loop $-1 $-1 $113 $156 #
vertex $-1 $69 $180 #
vertex $-1 $69 $181 #
straight-curve $-1 45.802179021576585 0 8.5005090088145216 0 1 0 I I #
face $-1 $182 $183 $16 $-1 $184 reversed single #
loop $-1 $-1 $185 $70 #
plane-surface $-1 -53.00519494932707 0 -7.0005090088145216 1 0 0 0 0 -1 forward_v I I I I #
coedge $-1 $186 $73 $187 $188 reversed $45 $-1 #
coedge $-1 $73 $186 $128 $189 reversed $45 $-1 #
edge $-1 $130 5.5005090088145216 $190 8.5005090088145216 $73 $191 forward 7 unknown #
coedge $-1 $75 $74 $192 $193 reversed $29 $-1 #
coedge $-1 $194 $195 $74 $127 forward $196 $-1 #
edge $-1 $197 -8.5005090088145216 $131 -5.5005090088145216 $126 $198 forward 7 unknown #
coedge $-1 $199 $76 $123 $189 forward $71 $-1 #
coedge $-1 $76 $199 $194 $200 forward $71 $-1 #
vertex $-1 $124 $201 #
vertex $-1 $200 $202 #
straight-curve $-1 -45.802179021576585 0 -5.5005090088145216 0 -1 0 I I #
face $-1 $-1 $203 $17 $-1 $204 reversed single #
loop $-1 $-1 $84 $78 #
plane-surface $-1 45.802179021576585 0 0 -1 0 0 0 0 1 forward_v I I I I #
coedge $-1 $141 $205 $206 $207 forward $79 $-1 #
coedge $-1 $206 $81 $83 $143 forward $49 $-1 #
coedge $-1 $81 $206 $208 $209 reversed $49 $-1 #
coedge $-1 $210 $84 $81 $140 forward $134 $-1 #
edge $-1 $146 1.8059634983607467 $211 11.784416849503067 $139 $212 forward 7 unknown #
coedge $-1 $213 $136 $82 $142 forward $79 $-1 #
edge $-1 $214 15.501610218865149 $145 20.640506536670326 $141 $215 forward 7 unknown #
edge $-1 $146 -91.604358043153155 $214 -84.069301237275738 $83 $216 forward 7 unknown #
coedge $-1 $84 $210 $213 $217 reversed $134 $-1 #
vertex $-1 $217 $218 #
vertex $-1 $85 $219 #
straight-curve $-1 45.802179021576585 8.6011536722926536 66.229462752089447 0 0 -1 I I #
coedge $-1 $148 $148 $-1 $220 reversed $88 $-1 #
edge $-1 $221 0 $221 6.2831853071796004 $89 $222 forward 7 unknown #
vertex $-1 $92 $223 #
ellipse-curve $-1 43.232730862673982 11.452140344047603 5.7451131342327901 0.73135370988377701 0 0.68199835119979291 0.68199835119979291 0 -0.73135370988377701 1 I I #
coedge $-1 $152 $152 $-1 $224 reversed $95 $-1 #
edge $-1 $225 0 $225 6.2831853071796004 $96 $226 forward 7 unknown #
vertex $-1 $99 $227 #
ellipse-curve $-1 43.232730862673982 15.728620351680021 5.7451131342327901 0.73135370988377701 0 0.68199835119979291 0.68199835119979291 0 -0.73135370988377701 1 I I #
face $-1 $-1 $115 $15 $-1 $228 reversed single #
loop $-1 $-1 $171 $100 #
plane-surface $-1 0 18.579607023434974 0 0 -1 0 0 0 -1 forward_v I I I I #
coedge $-1 $169 $229 $103 $161 reversed $101 $-1 #
coedge $-1 $175 $103 $104 $163 reversed $63 $-1 #
edge $-1 $176 -8.5005090088145216 $230 8.5005090088145216 $159 $231 forward 7 unknown #
coedge $-1 $105 $104 $229 $232 forward $41 $-1 #
edge $-1 $167 -45.802179021576585 $230 45.802179021576585 $160 $233 forward 7 unknown #
coedge $-1 $172 $171 $105 $165 reversed $157 $-1 #
edge $-1 $234 -45.802179021576585 $166 45.802179021576585 $164 $235 forward 7 unknown #
vertex $-1 $107 $236 #
vertex $-1 $178 $237 #
straight-curve $-1 45.802179021576585 0 -8.5005090088145216 0 -1 0 I I #
coedge $-1 $238 $159 $108 $170 reversed $101 $-1 #
edge $-1 $173 -18.579607023434974 $176 18.579607023434974 $169 $239 forward 7 unknown #
coedge $-1 $164 $109 $114 $179 forward $157 $-1 #
coedge $-1 $109 $164 $238 $240 reversed $157 $-1 #
vertex $-1 $110 $241 #
straight-curve $-1 0 18.579607023434974 8.5005090088145216 -1 0 0 I I #
coedge $-1 $111 $160 $113 $178 reversed $63 $-1 #
vertex $-1 $170 $242 #
straight-curve $-1 0 -18.579607023434974 8.5005090088145216 1 0 0 I I #
edge $-1 $116 -8.5005090088145216 $167 8.5005090088145216 $113 $243 forward 7 unknown #
edge $-1 $117 -8.5005090088145216 $166 8.5005090088145216 $114 $244 forward 7 unknown #
point $-1 45.802179021576585 -18.579607023434974 8.5005090088145216 #
point $-1 45.802179021576585 18.579607023434974 8.5005090088145216 #
face $-1 $-1 $196 $16 $-1 $245 reversed single #
loop $-1 $-1 $192 $119 #
plane-surface $-1 0 0 -8.5005090088145216 0 0 1 1 0 0 forward_v I I I I #
coedge $-1 $246 $247 $186 $248 forward $120 $-1 #
coedge $-1 $123 $122 $185 $248 reversed $45 $-1 #
coedge $-1 $192 $249 $122 $188 forward $183 $-1 #
edge $-1 $250 -53.00519494932707 $190 -45.802179021576585 $122 $251 forward 7 unknown #
edge $-1 $130 -3.6015079638752425 $252 3.6015079638752425 $123 $253 forward 7 unknown #
vertex $-1 $124 $254 #
straight-curve $-1 -45.802179021576585 18.579607023434974 0 0 0 -1 I I #
coedge $-1 $255 $187 $125 $193 forward $183 $-1 #
edge $-1 $190 -18.579607023434974 $197 18.579607023434974 $192 $256 forward 7 unknown #
coedge $-1 $257 $126 $129 $200 reversed $196 $-1 #
coedge $-1 $126 $257 $255 $258 reversed $196 $-1 #
loop $-1 $-1 $126 $182 #
vertex $-1 $258 $259 #
straight-curve $-1 -45.802179021576585 -18.579607023434974 0 0 0 1 I I #
coedge $-1 $129 $128 $247 $260 forward $71 $-1 #
edge $-1 $261 -3.6015079638752425 $131 3.6015079638752425 $194 $262 forward 7 unknown #
point $-1 -45.802179021576585 18.579607023434974 -5.5005090088145216 #
point $-1 -45.802179021576585 -18.579607023434974 -5.5005090088145216 #
loop $-1 $-1 $208 $133 #
plane-surface $-1 0 18.579607023434974 0 0 -1 0 0 0 -1 forward_v I I I I #
coedge $-1 $136 $213 $263 $264 forward $79 $-1 #
coedge $-1 $138 $137 $136 $207 reversed $49 $-1 #
edge $-1 $265 -11.784416849503067 $214 -1.8059634983607467 $136 $266 forward 7 unknown #
coedge $-1 $263 $267 $138 $209 forward $203 $-1 #
edge $-1 $211 -60.327413903938385 $265 -52.792357098060968 $208 $268 forward 7 unknown #
coedge $-1 $144 $139 $267 $269 reversed $134 $-1 #
vertex $-1 $140 $270 #
straight-curve $-1 45.802179021576585 6.7951901739319069 2.9897172596510586 0 1 0 I I #
coedge $-1 $205 $141 $144 $217 forward $79 $-1 #
vertex $-1 $142 $271 #
straight-curve $-1 25.161672484906259 8.6011536722926536 8.5005090088145181 1 0 0 I I #
straight-curve $-1 -16.671842126569366 8.6011536722926536 69.984904356032942 -0.68199835119979291 0 0.73135370988377701 I I #
edge $-1 $145 8.6011536722926536 $272 18.579607023434974 $144 $273 forward 7 unknown #
point $-1 45.802179021576585 8.6011536722926536 8.5005090088145216 #
point $-1 45.802179021576585 8.6011536722926536 2.9897172596510586 #
edge $-1 $274 1 $274 0 $148 $-1 forward 7 unknown #
vertex $-1 $149 $275 #
ellipse-curve $-1 40.360548806062951 11.452140344047603 3.066760101381365 0.73135370988377701 0 0.68199835119979291 0.68199835119979291 0 -0.73135370988377701 1 I I #
point $-1 43.914729213873784 11.452140344047603 5.013759424349022 #
edge $-1 $276 1 $276 0 $152 $-1 forward 7 unknown #
vertex $-1 $153 $277 #
ellipse-curve $-1 40.360548806062951 15.728620351680021 3.066760101381365 0.73135370988377701 0 0.68199835119979291 0.68199835119979291 0 -0.73135370988377701 1 I I #
point $-1 43.914729213873784 15.728620351680021 5.013759424349022 #
plane-surface $-1 45.802179021576585 0 0 -1 0 0 0 0 1 forward_v I I I I #
coedge $-1 $159 $238 $162 $232 reversed $101 $-1 #
vertex $-1 $232 $278 #
straight-curve $-1 -45.802179021576585 -18.579607023434974 0 0 0 -1 I I #
edge $-1 $230 -18.579607023434974 $234 18.579607023434974 $229 $279 forward 7 unknown #
straight-curve $-1 0 -18.579607023434974 -8.5005090088145216 -1 0 0 I I #
vertex $-1 $165 $280 #
straight-curve $-1 0 18.579607023434974 -8.5005090088145216 1 0 0 I I #
point $-1 45.802179021576585 18.579607023434974 -8.5005090088145216 #
point $-1 45.802179021576585 -18.579607023434974 -8.5005090088145216 #
coedge $-1 $229 $169 $172 $240 forward $101 $-1 #
straight-curve $-1 -45.802179021576585 0 8.5005090088145216 0 -1 0 I I #
edge $-1 $173 -8.5005090088145216 $234 8.5005090088145216 $172 $281 forward 7 unknown #
point $-1 -45.802179021576585 18.579607023434974 8.5005090088145216 #
point $-1 -45.802179021576585 -18.579607023434974 8.5005090088145216 #
straight-curve $-1 45.802179021576585 -18.579607023434974 0 0 0 -1 I I #
straight-curve $-1 45.802179021576585 18.579607023434974 0 0 0 -1 I I #
plane-surface $-1 0 -18.579607023434974 0 0 1 0 0 0 1 forward_v I I I I #
coedge $-1 $282 $185 $249 $283 reversed $120 $-1 #
coedge $-1 $185 $282 $199 $260 reversed $120 $-1 #
edge $-1 $252 -1.5 $250 1.5 $186 $284 forward 7 unknown #
coedge $-1 $187 $255 $246 $283 forward $183 $-1 #
vertex $-1 $188 $285 #
straight-curve $-1 0 18.579607023434974 -8.5005090088145216 1 0 0 I I #
vertex $-1 $189 $286 #
straight-curve $-1 -49.403686985451827 18.579607023434974 -5.5005090088145216 -1 0 0 I I #
point $-1 -45.802179021576585 18.579607023434974 -8.5005090088145216 #
coedge $-1 $249 $192 $195 $258 forward $183 $-1 #
straight-curve $-1 -45.802179021576585 0 -8.5005090088145216 0 -1 0 I I #
coedge $-1 $195 $194 $282 $287 forward $196 $-1 #
edge $-1 $197 -3.6015079638752425 $288 3.6015079638752425 $195 $289 forward 7 unknown #
point $-1 -45.802179021576585 -18.579607023434974 -8.5005090088145216 #
edge $-1 $252 -18.579607023434974 $261 18.579607023434974 $247 $290 forward 7 unknown #
vertex $-1 $260 $291 #
straight-curve $-1 -49.403686985451827 -18.579607023434974 -5.5005090088145216 1 0 0 I I #
coedge $-1 $267 $208 $205 $264 reversed $203 $-1 #
edge $-1 $272 -45.802179021576585 $265 -40.663282703771408 $263 $292 forward 7 unknown #
vertex $-1 $209 $293 #
straight-curve $-1 40.663282703771408 6.7951901739319069 8.5005090088145181 0 -1 0 I I #
coedge $-1 $208 $263 $210 $269 forward $203 $-1 #
straight-curve $-1 4.6589822069431399 18.579607023434974 47.110395225990558 -0.68199835119979291 0 0.73135370988377701 I I #
edge $-1 $272 -8.5005090088145216 $211 -2.9897172596510613 $210 $294 forward 7 unknown #
point $-1 45.802179021576585 18.579607023434974 2.9897172596510613 #
point $-1 40.663282703771408 8.6011536722926536 8.5005090088145181 #
vertex $-1 $217 $295 #
straight-curve $-1 45.802179021576585 0 8.5005090088145216 0 1 0 I I #
vertex $-1 $220 $296 #
point $-1 41.042547157262746 11.452140344047603 2.335406391497588 #
vertex $-1 $224 $297 #
point $-1 41.042547157262746 15.728620351680021 2.335406391497588 #
point $-1 -45.802179021576585 -18.579607023434974 -8.5005090088145216 #
straight-curve $-1 -45.802179021576585 0 -8.5005090088145216 0 1 0 I I #
point $-1 -45.802179021576585 18.579607023434974 -8.5005090088145216 #
straight-curve $-1 -45.802179021576585 18.579607023434974 0 0 0 -1 I I #
coedge $-1 $247 $246 $257 $287 reversed $120 $-1 #
edge $-1 $288 -18.579607023434974 $250 18.579607023434974 $246 $298 forward 7 unknown #
straight-curve $-1 -53.00519494932707 18.579607023434974 -7.0005090088145216 0 0 -1 I I #
point $-1 -53.00519494932707 18.579607023434974 -8.5005090088145216 #
point $-1 -53.00519494932707 18.579607023434974 -5.5005090088145216 #
edge $-1 $261 -1.5 $288 1.5 $282 $299 forward 7 unknown #
vertex $-1 $283 $300 #
straight-curve $-1 -49.403686985451827 -18.579607023434974 -8.5005090088145216 -1 0 0 I I #
straight-curve $-1 -53.00519494932707 0 -5.5005090088145216 0 -1 0 I I #
point $-1 -53.00519494932707 -18.579607023434974 -5.5005090088145216 #
straight-curve $-1 0 18.579607023434974 8.5005090088145216 -1 0 0 I I #
point $-1 40.663282703771408 18.579607023434974 8.5005090088145181 #
straight-curve $-1 45.802179021576585 18.579607023434974 0 0 0 -1 I I #
point $-1 45.802179021576585 18.579607023434974 8.5005090088145216 #
point $-1 39.629195096179174 11.452140344047603 2.3847617501815721 #
point $-1 39.629195096179174 15.728620351680021 2.3847617501815721 #
straight-curve $-1 -53.00519494932707 0 -8.5005090088145216 0 1 0 I I #
straight-curve $-1 -53.00519494932707 -18.579607023434974 -7.0005090088145216 0 0 -1 I I #
point $-1 -53.00519494932707 -18.579607023434974 -8.5005090088145216 #
End-of-ACIS-data 