500 0 10 0           
7 Unknown 11 ACIS 5.0 NT 24 Fri Mar 26 01:37:41 1999 
-1 9.9999999999999995e-007 1e-010 
body $-1 $10 $-1 $11 #
body $-1 $12 $-1 $13 #
body $-1 $14 $-1 $15 #
body $-1 $16 $-1 $17 #
body $-1 $18 $-1 $19 #
body $-1 $20 $-1 $21 #
body $-1 $22 $-1 $23 #
body $-1 $24 $-1 $25 #
body $-1 $26 $-1 $27 #
body $-1 $28 $-1 $29 #
lump $-1 $-1 $30 $0 #
transform $-1 1 0 0 0 1 0 0 0 1 73.340861232337403 30.843808406017612 12.339311845819363 1 rotate no_reflect no_shear #
lump $-1 $-1 $31 $1 #
transform $-1 1 0 0 0 1 0 0 0 1 73.340861232337403 30.843808406017612 12.339311845819363 1 rotate no_reflect no_shear #
lump $-1 $-1 $32 $2 #
transform $-1 1 0 0 0 1 0 0 0 1 73.340861232337403 30.843808406017612 12.339311845819363 1 rotate no_reflect no_shear #
lump $-1 $-1 $33 $3 #
transform $-1 1 0 0 0 1 0 0 0 1 73.340861232337403 30.843808406017612 12.339311845819363 1 rotate no_reflect no_shear #
lump $-1 $-1 $34 $4 #
transform $-1 1 0 0 0 1 0 0 0 1 73.340861232337403 30.843808406017612 12.339311845819363 1 rotate no_reflect no_shear #
lump $-1 $-1 $35 $5 #
transform $-1 1 0 0 0 1 0 0 0 1 73.340861232337403 30.843808406017612 12.339311845819363 1 rotate no_reflect no_shear #
lump $-1 $-1 $36 $6 #
transform $-1 1 0 0 0 1 0 0 0 1 73.340861232337403 30.843808406017612 12.339311845819363 1 rotate no_reflect no_shear #
lump $-1 $-1 $37 $7 #
transform $-1 1 0 0 0 1 0 0 0 1 73.340861232337403 30.843808406017612 12.339311845819363 1 rotate no_reflect no_shear #
lump $-1 $-1 $38 $8 #
transform $-1 1 0 0 0 1 0 0 0 1 73.340861232337403 30.843808406017612 12.339311845819363 1 rotate no_reflect no_shear #
lump $-1 $-1 $39 $9 #
transform $-1 1 0 0 0 1 0 0 0 1 73.340861232337403 30.843808406017612 12.339311845819363 1 rotate no_reflect no_shear #
shell $-1 $-1 $-1 $40 $-1 $10 #
shell $-1 $-1 $-1 $41 $-1 $12 #
shell $-1 $-1 $-1 $42 $-1 $14 #
shell $-1 $-1 $-1 $43 $-1 $16 #
shell $-1 $-1 $-1 $44 $-1 $18 #
shell $-1 $-1 $-1 $45 $-1 $20 #
shell $-1 $-1 $-1 $46 $-1 $22 #
shell $-1 $-1 $-1 $47 $-1 $24 #
shell $-1 $-1 $-1 $48 $-1 $26 #
shell $-1 $-1 $-1 $49 $-1 $28 #
face $-1 $50 $51 $30 $-1 $52 forward single #
face $-1 $53 $54 $31 $-1 $55 forward single #
face $-1 $56 $57 $32 $-1 $58 reversed single #
face $-1 $59 $60 $33 $-1 $61 forward single #
face $-1 $62 $63 $34 $-1 $64 forward single #
face $-1 $65 $66 $35 $-1 $67 reversed single #
face $-1 $68 $69 $36 $-1 $70 forward single #
face $-1 $71 $72 $37 $-1 $73 forward single #
face $-1 $74 $75 $38 $-1 $76 reversed single #
face $-1 $77 $78 $39 $-1 $79 forward single #
face $-1 $80 $81 $30 $-1 $82 reversed single #
loop $-1 $-1 $83 $40 #
plane-surface $-1 0 0 12.339311845819363 0 0 1 1 0 0 forward_v I I I I #
face $-1 $84 $85 $31 $-1 $86 reversed single #
loop $-1 $-1 $87 $41 #
plane-surface $-1 0 -22.800397457721544 -9.156404299103631 0 0 1 1 0 0 forward_v I I I I #
face $-1 $88 $89 $32 $-1 $90 reversed single #
loop $-1 $-1 $91 $42 #
plane-surface $-1 40.890210141573789 3.3037652840819227 212.11351458730516 0 -1 0 -0.5877852598018023 0 -0.80901698891910034 forward_v I I I I #
face $-1 $92 $93 $33 $-1 $94 forward single #
loop $-1 $95 $96 $43 #
cone-surface $-1 68.73916274589881 -3.4582771118023352 8.2913960988108109 -0.5877852598018023 0 -0.80901698891910034 0.80901698891910034 0 -0.5877852598018023 1 I I 0 1 1 forward I I I I #
face $-1 $97 $98 $34 $-1 $99 forward single #
loop $-1 $100 $101 $44 #
cone-surface $-1 68.73916274589881 0.59894832572821954 8.2913960988108109 -0.5877852598018023 0 -0.80901698891910034 0.80901698891910034 0 -0.5877852598018023 1 I I 0 1 1 forward I I I I #
face $-1 $102 $103 $35 $-1 $104 reversed single #
loop $-1 $-1 $105 $45 #
plane-surface $-1 40.890210141573789 22.249915966748183 212.11351458730516 0 -1 0 -0.5877852598018023 0 -0.80901698891910034 forward_v I I I I #
face $-1 $106 $107 $36 $-1 $108 forward single #
loop $-1 $109 $110 $46 #
cone-surface $-1 68.73916274589881 15.487873570863929 8.2913960988108109 -0.5877852598018023 0 -0.80901698891910034 0.80901698891910034 0 -0.5877852598018023 1 I I 0 1 1 forward I I I I #
face $-1 $111 $112 $37 $-1 $113 forward single #
loop $-1 $114 $115 $47 #
cone-surface $-1 68.73916274589881 19.545099008394477 8.2913960988108109 -0.5877852598018023 0 -0.80901698891910034 0.80901698891910034 0 -0.5877852598018023 1 I I 0 1 1 forward I I I I #
face $-1 $116 $117 $38 $-1 $118 reversed single #
loop $-1 $-1 $119 $48 #
plane-surface $-1 -161.61612655094899 -14.756986509425474 119.54711075109057 0 1 0 -0.6018150307709319 0 0.79863550430605224 forward_v I I I I #
face $-1 $120 $121 $39 $-1 $122 forward single #
loop $-1 $123 $124 $49 #
cone-surface $-1 -65.87387115134284 -11.085460790567375 6.2117125292931723 0.6018150307709319 0 -0.79863550430605224 0.79863550430605224 0 0.6018150307709319 1 I I 0 1 1 forward I I I I #
face $-1 $125 $126 $30 $-1 $127 reversed single #
loop $-1 $-1 $128 $50 #
plane-surface $-1 0 0 -12.339311845819363 0 0 1 1 0 0 forward_v I I I I #
coedge $-1 $129 $130 $131 $132 forward $51 $-1 #
face $-1 $133 $134 $31 $-1 $135 reversed single #
loop $-1 $-1 $136 $53 #
plane-surface $-1 0 -14.756986509425476 -10.747858072461497 0 -1 0 0 0 -1 forward_v I I I I #
coedge $-1 $137 $138 $139 $140 reversed $54 $-1 #
face $-1 $141 $142 $32 $-1 $143 reversed single #
loop $-1 $-1 $144 $56 #
plane-surface $-1 -45.327144205500957 -1.4296643930370578 93.445509149466787 0.5877852598018023 0 0.80901698891910034 0.80901698891910034 0 -0.5877852598018023 forward_v I I I I #
coedge $-1 $145 $146 $147 $148 reversed $57 $-1 #
face $-1 $-1 $149 $33 $-1 $150 forward single #
loop $-1 $151 $152 $59 #
cone-surface $-1 67.36102363453179 -3.4582771118023352 6.3945503790563869 -0.5877852598018023 0 -0.80901698891910034 0.40450849445955017 0 -0.29389262990090115 1 I I -0.70710678118654746 0.70710678118654746 0.5 forward I I I I #
loop $-1 $-1 $153 $43 #
coedge $-1 $96 $96 $154 $155 reversed $60 $-1 #
face $-1 $-1 $156 $34 $-1 $157 forward single #
loop $-1 $158 $159 $62 #
cone-surface $-1 67.36102363453179 0.59894832572821954 6.3945503790563869 -0.5877852598018023 0 -0.80901698891910034 0.40450849445955017 0 -0.29389262990090115 1 I I -0.70710678118654746 0.70710678118654746 0.5 forward I I I I #
loop $-1 $-1 $160 $44 #
coedge $-1 $101 $101 $161 $162 reversed $63 $-1 #
face $-1 $163 $164 $35 $-1 $165 reversed single #
loop $-1 $-1 $166 $65 #
plane-surface $-1 -45.327144205500957 17.516486289629203 93.445509149466787 0.5877852598018023 0 0.80901698891910034 0.80901698891910034 0 -0.5877852598018023 forward_v I I I I #
coedge $-1 $167 $168 $169 $170 reversed $66 $-1 #
face $-1 $-1 $171 $36 $-1 $172 forward single #
loop $-1 $173 $174 $68 #
cone-surface $-1 67.36102363453179 15.487873570863929 6.3945503790563869 -0.5877852598018023 0 -0.80901698891910034 0.40450849445955017 0 -0.29389262990090115 1 I I -0.70710678118654746 0.70710678118654746 0.5 forward I I I I #
loop $-1 $-1 $175 $46 #
coedge $-1 $110 $110 $176 $177 reversed $69 $-1 #
face $-1 $-1 $178 $37 $-1 $179 forward single #
loop $-1 $180 $181 $71 #
cone-surface $-1 67.36102363453179 19.545099008394477 6.3945503790563869 -0.5877852598018023 0 -0.80901698891910034 0.40450849445955017 0 -0.29389262990090115 1 I I -0.70710678118654746 0.70710678118654746 0.5 forward I I I I #
loop $-1 $-1 $182 $47 #
coedge $-1 $115 $115 $183 $184 reversed $72 $-1 #
face $-1 $185 $186 $38 $-1 $187 reversed single #
loop $-1 $-1 $188 $74 #
plane-surface $-1 -73.340861232337431 -11.085460790567375 2.4018793580346198 -0.6018150307709319 0 0.79863550430605224 0.79863550430605224 0 0.6018150307709319 forward_v I I I I #
coedge $-1 $189 $190 $191 $192 reversed $75 $-1 #
face $-1 $-1 $193 $39 $-1 $194 forward single #
loop $-1 $195 $196 $77 #
cone-surface $-1 -64.699682585645135 -11.085460790567375 4.6535117045063359 0.6018150307709319 0 -0.79863550430605224 0.39931775215302612 0 0.30090751538546595 1 I I -0.70710678118654746 0.70710678118654746 0.5 forward I I I I #
loop $-1 $-1 $197 $49 #
coedge $-1 $124 $124 $198 $199 reversed $78 $-1 #
face $-1 $200 $201 $30 $-1 $202 reversed single #
loop $-1 $-1 $203 $80 #
plane-surface $-1 0 -30.843808406017612 0 0 1 0 0 0 1 forward_v I I I I #
coedge $-1 $204 $205 $206 $207 forward $81 $-1 #
coedge $-1 $208 $83 $209 $210 forward $51 $-1 #
coedge $-1 $83 $208 $211 $212 forward $51 $-1 #
coedge $-1 $213 $214 $83 $132 reversed $215 $-1 #
edge $-1 $216 -30.843808406017612 $217 30.843808406017612 $131 $218 forward 7 unknown #
face $-1 $219 $220 $31 $-1 $221 reversed single #
loop $-1 $-1 $222 $84 #
plane-surface $-1 0 0 -12.339311845819363 0 0 1 1 0 0 forward_v I I I I #
coedge $-1 $223 $224 $225 $226 reversed $85 $-1 #
coedge $-1 $227 $87 $224 $228 forward $54 $-1 #
coedge $-1 $87 $227 $229 $230 reversed $54 $-1 #
coedge $-1 $231 $225 $87 $140 forward $220 $-1 #
edge $-1 $232 3.3567877805647033 $233 19.443609677156843 $139 $234 forward 7 unknown #
face $-1 $235 $236 $32 $-1 $237 reversed single #
loop $-1 $-1 $238 $88 #
plane-surface $-1 40.890210141573789 -6.1630940701560384 212.11351458730516 0 1 0 0.5877852598018023 0 0.80901698891910034 forward_v I I I I #
coedge $-1 $239 $240 $241 $242 reversed $89 $-1 #
coedge $-1 $146 $91 $243 $244 reversed $57 $-1 #
coedge $-1 $91 $145 $239 $245 reversed $57 $-1 #
coedge $-1 $241 $246 $91 $148 forward $247 $-1 #
edge $-1 $248 -52.895756161550509 $249 -45.860852151605584 $147 $250 forward 7 unknown #
loop $-1 $-1 $154 $92 #
plane-surface $-1 -45.327144205500957 -1.4296643930370578 93.445509149466787 0.5877852598018023 0 0.80901698891910034 0.80901698891910034 0 -0.5877852598018023 forward_v I I I I #
loop $-1 $-1 $251 $59 #
coedge $-1 $152 $152 $153 $252 reversed $93 $-1 #
coedge $-1 $153 $153 $152 $252 forward $95 $-1 #
coedge $-1 $154 $154 $96 $155 forward $149 $-1 #
edge $-1 $253 0 $253 6.2831853071796004 $154 $254 forward 7 unknown #
loop $-1 $-1 $161 $97 #
plane-surface $-1 -45.327144205500957 -1.4296643930370578 93.445509149466787 0.5877852598018023 0 0.80901698891910034 0.80901698891910034 0 -0.5877852598018023 forward_v I I I I #
loop $-1 $-1 $255 $62 #
coedge $-1 $159 $159 $160 $256 reversed $98 $-1 #
coedge $-1 $160 $160 $159 $256 forward $100 $-1 #
coedge $-1 $161 $161 $101 $162 forward $156 $-1 #
edge $-1 $257 0 $257 6.2831853071796004 $161 $258 forward 7 unknown #
face $-1 $259 $260 $35 $-1 $261 reversed single #
loop $-1 $-1 $262 $102 #
plane-surface $-1 40.890210141573789 12.783056612510222 212.11351458730516 0 1 0 0.5877852598018023 0 0.80901698891910034 forward_v I I I I #
coedge $-1 $263 $264 $265 $266 reversed $103 $-1 #
coedge $-1 $168 $105 $267 $268 reversed $66 $-1 #
coedge $-1 $105 $167 $263 $269 reversed $66 $-1 #
coedge $-1 $265 $270 $105 $170 forward $271 $-1 #
edge $-1 $272 -52.895756161550509 $273 -45.860852151605584 $169 $274 forward 7 unknown #
loop $-1 $-1 $176 $106 #
plane-surface $-1 -45.327144205500957 17.516486289629203 93.445509149466787 0.5877852598018023 0 0.80901698891910034 0.80901698891910034 0 -0.5877852598018023 forward_v I I I I #
loop $-1 $-1 $275 $68 #
coedge $-1 $174 $174 $175 $276 reversed $107 $-1 #
coedge $-1 $175 $175 $174 $276 forward $109 $-1 #
coedge $-1 $176 $176 $110 $177 forward $171 $-1 #
edge $-1 $277 0 $277 6.2831853071796004 $176 $278 forward 7 unknown #
loop $-1 $-1 $183 $111 #
plane-surface $-1 -45.327144205500957 17.516486289629203 93.445509149466787 0.5877852598018023 0 0.80901698891910034 0.80901698891910034 0 -0.5877852598018023 forward_v I I I I #
loop $-1 $-1 $279 $71 #
coedge $-1 $181 $181 $182 $280 reversed $112 $-1 #
coedge $-1 $182 $182 $181 $280 forward $114 $-1 #
coedge $-1 $183 $183 $115 $184 forward $178 $-1 #
edge $-1 $281 0 $281 6.2831853071796004 $183 $282 forward 7 unknown #
face $-1 $283 $284 $38 $-1 $285 forward single #
loop $-1 $-1 $286 $116 #
plane-surface $-1 -161.61612655094899 -7.4139350717092753 119.54711075109057 0 -1 0 0.6018150307709319 0 -0.79863550430605224 forward_v I I I I #
coedge $-1 $287 $288 $289 $290 reversed $117 $-1 #
coedge $-1 $190 $119 $291 $292 reversed $75 $-1 #
coedge $-1 $119 $189 $287 $293 reversed $75 $-1 #
coedge $-1 $289 $294 $119 $192 forward $284 $-1 #
edge $-1 $295 7.4672020431370925 $296 20.654620104501724 $191 $297 forward 7 unknown #
loop $-1 $-1 $198 $120 #
plane-surface $-1 -73.340861232337431 -11.085460790567375 2.4018793580346198 -0.6018150307709319 0 0.79863550430605224 0.79863550430605224 0 0.6018150307709319 forward_v I I I I #
loop $-1 $-1 $298 $77 #
coedge $-1 $196 $196 $197 $299 reversed $121 $-1 #
coedge $-1 $197 $197 $196 $299 forward $123 $-1 #
coedge $-1 $198 $198 $124 $199 forward $193 $-1 #
edge $-1 $300 0 $300 6.2831853071796004 $198 $301 forward 7 unknown #
face $-1 $302 $303 $30 $-1 $304 reversed single #
loop $-1 $-1 $305 $125 #
plane-surface $-1 -73.340861232337403 0 0 1 0 0 0 0 -1 forward_v I I I I #
coedge $-1 $306 $211 $307 $308 forward $126 $-1 #
coedge $-1 $309 $128 $306 $310 forward $81 $-1 #
coedge $-1 $128 $309 $311 $312 forward $81 $-1 #
coedge $-1 $214 $213 $128 $207 reversed $215 $-1 #
edge $-1 $313 -30.843808406017612 $314 30.843808406017612 $206 $315 forward 7 unknown #
coedge $-1 $130 $129 $316 $317 forward $51 $-1 #
coedge $-1 $318 $319 $129 $210 reversed $303 $-1 #
edge $-1 $217 -73.340861232337403 $320 73.340861232337403 $209 $321 forward 7 unknown #
coedge $-1 $203 $322 $130 $212 reversed $126 $-1 #
edge $-1 $323 -73.340861232337403 $216 73.340861232337403 $211 $324 forward 7 unknown #
coedge $-1 $206 $131 $322 $325 forward $215 $-1 #
coedge $-1 $131 $206 $318 $326 reversed $215 $-1 #
loop $-1 $-1 $213 $302 #
vertex $-1 $132 $327 #
vertex $-1 $132 $328 #
straight-curve $-1 73.340861232337403 0 12.339311845819363 0 1 0 I I #
face $-1 $329 $330 $31 $-1 $331 reversed single #
loop $-1 $-1 $225 $133 #
plane-surface $-1 73.340861232337403 0 0 -1 0 0 0 0 1 forward_v I I I I #
coedge $-1 $332 $333 $223 $334 forward $134 $-1 #
coedge $-1 $335 $136 $222 $334 reversed $85 $-1 #
coedge $-1 $136 $335 $137 $228 reversed $85 $-1 #
coedge $-1 $139 $336 $136 $226 forward $220 $-1 #
edge $-1 $337 -6.9653828095886148 $232 -3.7824752628728824 $225 $338 forward 7 unknown #
coedge $-1 $138 $137 $339 $340 reversed $54 $-1 #
edge $-1 $232 -73.340861232337403 $341 73.340861232337403 $224 $342 forward 7 unknown #
coedge $-1 $343 $344 $138 $230 forward $330 $-1 #
edge $-1 $233 -73.340861232337403 $345 73.340861232337403 $229 $346 forward 7 unknown #
coedge $-1 $336 $139 $344 $347 forward $220 $-1 #
vertex $-1 $140 $348 #
vertex $-1 $347 $349 #
straight-curve $-1 73.340861232337403 -11.400198728860772 -9.156404299103631 0 -1 0 I I #
face $-1 $-1 $247 $32 $-1 $350 forward single #
loop $-1 $-1 $351 $141 #
plane-surface $-1 73.340861232337403 0 0 -1 0 0 0 0 1 forward_v I I I I #
coedge $-1 $352 $353 $354 $355 reversed $142 $-1 #
coedge $-1 $356 $144 $146 $245 forward $89 $-1 #
coedge $-1 $144 $356 $352 $357 forward $89 $-1 #
coedge $-1 $354 $147 $144 $242 forward $247 $-1 #
edge $-1 $249 -4.0185974806004516 $358 5.4482618736375095 $241 $359 forward 7 unknown #
coedge $-1 $360 $361 $145 $244 forward $236 $-1 #
edge $-1 $362 -98.82860249126054 $248 -93.717445447833214 $243 $363 forward 7 unknown #
edge $-1 $249 137.98610283455551 $362 146.68172246467481 $146 $364 forward 7 unknown #
coedge $-1 $147 $354 $360 $365 forward $247 $-1 #
loop $-1 $-1 $354 $235 #
vertex $-1 $244 $366 #
vertex $-1 $148 $367 #
straight-curve $-1 20.445105070786894 3.3037652840819227 12.339311845819367 -1 0 0 I I #
coedge $-1 $251 $251 $-1 $368 reversed $151 $-1 #
edge $-1 $369 0 $369 6.2831853071796004 $152 $370 forward 7 unknown #
vertex $-1 $155 $371 #
ellipse-curve $-1 69.823409227364934 -3.4582771118023352 9.7837333241057021 0.5877852598018023 0 0.80901698891910034 0.80901698891910034 0 -0.5877852598018023 1 I I #
coedge $-1 $255 $255 $-1 $372 reversed $158 $-1 #
edge $-1 $373 0 $373 6.2831853071796004 $159 $374 forward 7 unknown #
vertex $-1 $162 $375 #
ellipse-curve $-1 69.823409227364934 0.59894832572821954 9.7837333241057021 0.5877852598018023 0 0.80901698891910034 0.80901698891910034 0 -0.5877852598018023 1 I I #
face $-1 $-1 $271 $35 $-1 $376 forward single #
loop $-1 $-1 $377 $163 #
plane-surface $-1 73.340861232337403 0 0 -1 0 0 0 0 1 forward_v I I I I #
coedge $-1 $378 $379 $380 $381 reversed $164 $-1 #
coedge $-1 $382 $166 $168 $269 forward $103 $-1 #
coedge $-1 $166 $382 $378 $383 forward $103 $-1 #
coedge $-1 $380 $169 $166 $266 forward $271 $-1 #
edge $-1 $273 -13.491672821933582 $384 -4.0248134676956209 $265 $385 forward 7 unknown #
coedge $-1 $386 $387 $167 $268 forward $260 $-1 #
edge $-1 $388 -98.82860249126054 $272 -93.717445447833214 $267 $389 forward 7 unknown #
edge $-1 $273 137.98610283455551 $388 146.68172246467481 $168 $390 forward 7 unknown #
coedge $-1 $169 $380 $386 $391 forward $271 $-1 #
loop $-1 $-1 $380 $259 #
vertex $-1 $268 $392 #
vertex $-1 $170 $393 #
straight-curve $-1 20.445105070786894 22.249915966748183 12.339311845819367 -1 0 0 I I #
coedge $-1 $275 $275 $-1 $394 reversed $173 $-1 #
edge $-1 $395 0 $395 6.2831853071796004 $174 $396 forward 7 unknown #
vertex $-1 $177 $397 #
ellipse-curve $-1 69.823409227364934 15.487873570863929 9.7837333241057021 0.5877852598018023 0 0.80901698891910034 0.80901698891910034 0 -0.5877852598018023 1 I I #
coedge $-1 $279 $279 $-1 $398 reversed $180 $-1 #
edge $-1 $399 0 $399 6.2831853071796004 $181 $400 forward 7 unknown #
vertex $-1 $184 $401 #
ellipse-curve $-1 69.823409227364934 19.545099008394477 9.7837333241057021 0.5877852598018023 0 0.80901698891910034 0.80901698891910034 0 -0.5877852598018023 1 I I #
face $-1 $-1 $402 $38 $-1 $403 reversed single #
loop $-1 $-1 $191 $185 #
plane-surface $-1 0 0 12.339311845819363 0 0 1 1 0 0 forward_v I I I I #
coedge $-1 $404 $405 $406 $407 reversed $186 $-1 #
coedge $-1 $408 $188 $190 $293 forward $117 $-1 #
coedge $-1 $188 $408 $404 $409 forward $117 $-1 #
coedge $-1 $406 $191 $188 $290 forward $284 $-1 #
edge $-1 $296 -9.2142561141417865 $410 -1.8712046764255881 $289 $411 forward 7 unknown #
coedge $-1 $412 $413 $189 $292 forward $402 $-1 #
edge $-1 $414 -57.371676017510644 $295 -47.434243529725919 $291 $415 forward 7 unknown #
edge $-1 $296 -16.512436512352942 $414 -3.5527045195756588e-014 $190 $416 forward 7 unknown #
coedge $-1 $191 $406 $412 $417 forward $284 $-1 #
vertex $-1 $292 $418 #
vertex $-1 $192 $419 #
straight-curve $-1 -80.808063275474495 -14.756986509425474 12.339311845819367 1 0 0 I I #
coedge $-1 $298 $298 $-1 $420 reversed $195 $-1 #
edge $-1 $421 0 $421 6.2831853071796004 $196 $422 forward 7 unknown #
vertex $-1 $199 $423 #
ellipse-curve $-1 -66.747152201655084 -11.085460790567375 7.3705956019270022 -0.6018150307709319 0 0.79863550430605224 0.79863550430605224 0 0.6018150307709319 1 I I #
face $-1 $-1 $215 $30 $-1 $424 reversed single #
loop $-1 $-1 $318 $200 #
plane-surface $-1 0 30.843808406017612 0 0 -1 0 0 0 -1 forward_v I I I I #
coedge $-1 $425 $316 $319 $426 forward $201 $-1 #
coedge $-1 $322 $203 $204 $310 reversed $126 $-1 #
coedge $-1 $316 $425 $203 $308 reversed $201 $-1 #
edge $-1 $323 -12.339311845819363 $427 12.339311845819363 $307 $428 forward 7 unknown #
coedge $-1 $205 $204 $425 $429 forward $81 $-1 #
edge $-1 $314 -73.340861232337403 $427 73.340861232337403 $306 $430 forward 7 unknown #
coedge $-1 $319 $318 $205 $312 reversed $303 $-1 #
edge $-1 $431 -73.340861232337403 $313 73.340861232337403 $311 $432 forward 7 unknown #
vertex $-1 $207 $433 #
vertex $-1 $325 $434 #
straight-curve $-1 73.340861232337403 0 -12.339311845819363 0 -1 0 I I #
coedge $-1 $305 $307 $208 $317 reversed $201 $-1 #
edge $-1 $320 -30.843808406017612 $323 30.843808406017612 $316 $435 forward 7 unknown #
coedge $-1 $311 $209 $214 $326 forward $303 $-1 #
coedge $-1 $209 $311 $305 $426 reversed $303 $-1 #
vertex $-1 $210 $436 #
straight-curve $-1 0 30.843808406017612 12.339311845819363 -1 0 0 I I #
coedge $-1 $211 $306 $213 $325 reversed $126 $-1 #
vertex $-1 $317 $437 #
straight-curve $-1 0 -30.843808406017612 12.339311845819363 1 0 0 I I #
edge $-1 $216 -12.339311845819363 $314 12.339311845819363 $213 $438 forward 7 unknown #
edge $-1 $217 -12.339311845819363 $313 12.339311845819363 $214 $439 forward 7 unknown #
point $-1 73.340861232337403 -30.843808406017612 12.339311845819363 #
point $-1 73.340861232337403 30.843808406017612 12.339311845819363 #
face $-1 $-1 $440 $31 $-1 $441 reversed single #
loop $-1 $-1 $229 $219 #
plane-surface $-1 0 -30.843808406017612 0 0 1 0 0 0 1 forward_v I I I I #
coedge $-1 $442 $222 $336 $443 forward $134 $-1 #
coedge $-1 $222 $442 $444 $445 forward $134 $-1 #
edge $-1 $446 -73.340861232337403 $337 73.340861232337403 $222 $447 forward 7 unknown #
coedge $-1 $224 $223 $448 $449 reversed $85 $-1 #
coedge $-1 $225 $231 $332 $443 reversed $220 $-1 #
vertex $-1 $443 $450 #
straight-curve $-1 73.340861232337403 -14.756986509425476 -5.3739290362307486 0 0 1 I I #
coedge $-1 $448 $451 $227 $340 forward $440 $-1 #
edge $-1 $345 -19.443609677156843 $341 -3.3567877805647033 $339 $452 forward 7 unknown #
vertex $-1 $340 $453 #
straight-curve $-1 0 -14.756986509425476 -9.156404299103631 -1 0 0 I I #
coedge $-1 $454 $229 $451 $455 forward $330 $-1 #
coedge $-1 $229 $454 $231 $347 reversed $330 $-1 #
vertex $-1 $455 $456 #
straight-curve $-1 0 -30.843808406017612 -9.156404299103631 -1 0 0 I I #
edge $-1 $233 9.156404299103631 $457 12.339311845819363 $231 $458 forward 7 unknown #
point $-1 73.340861232337403 -14.756986509425476 -9.156404299103631 #
point $-1 73.340861232337403 -30.843808406017615 -9.156404299103631 #
plane-surface $-1 0 0 12.339311845819363 0 0 1 1 0 0 forward_v I I I I #
coedge $-1 $361 $360 $353 $459 forward $236 $-1 #
coedge $-1 $353 $238 $240 $357 reversed $142 $-1 #
coedge $-1 $238 $352 $351 $459 reversed $142 $-1 #
coedge $-1 $246 $241 $238 $355 forward $247 $-1 #
edge $-1 $358 45.860852151605584 $460 52.895756161550509 $354 $461 forward 7 unknown #
coedge $-1 $240 $239 $361 $462 reversed $89 $-1 #
edge $-1 $463 -146.68172246467481 $358 -137.98610283455551 $352 $464 forward 7 unknown #
vertex $-1 $242 $465 #
straight-curve $-1 66.305957222392493 -0.71483219651852892 12.339311845819367 0 -1 0 I I #
coedge $-1 $351 $243 $246 $365 reversed $236 $-1 #
coedge $-1 $243 $351 $356 $462 forward $236 $-1 #
vertex $-1 $244 $466 #
straight-curve $-1 73.340861232337403 3.3037652840819227 106.05675729365258 0 0 1 I I #
straight-curve $-1 -45.327144205500957 3.3037652840819227 93.445509149466787 0.80901698891910034 0 -0.5877852598018023 I I #
edge $-1 $460 -6.1630940701560384 $248 3.3037652840819227 $360 $467 forward 7 unknown #
point $-1 73.340861232337403 3.3037652840819227 12.339311845819363 #
point $-1 66.305957222392479 3.3037652840819227 12.339311845819367 #
edge $-1 $468 1 $468 0 $251 $-1 forward 7 unknown #
vertex $-1 $252 $469 #
ellipse-curve $-1 67.654916264432686 -3.4582771118023352 6.7990588735159374 0.5877852598018023 0 0.80901698891910034 0.80901698891910034 0 -0.5877852598018023 1 I I #
point $-1 70.632426216284031 -3.4582771118023352 9.1959480643038845 #
edge $-1 $470 1 $470 0 $255 $-1 forward 7 unknown #
vertex $-1 $256 $471 #
ellipse-curve $-1 67.654916264432686 0.59894832572821954 6.7990588735159374 0.5877852598018023 0 0.80901698891910034 0.80901698891910034 0 -0.5877852598018023 1 I I #
point $-1 70.632426216284031 0.59894832572821954 9.1959480643038845 #
plane-surface $-1 0 0 12.339311845819363 0 0 1 1 0 0 forward_v I I I I #
coedge $-1 $387 $386 $379 $472 forward $260 $-1 #
coedge $-1 $379 $262 $264 $383 reversed $164 $-1 #
coedge $-1 $262 $378 $377 $472 reversed $164 $-1 #
coedge $-1 $270 $265 $262 $381 forward $271 $-1 #
edge $-1 $384 45.860852151605584 $473 52.895756161550509 $380 $474 forward 7 unknown #
coedge $-1 $264 $263 $387 $475 reversed $103 $-1 #
edge $-1 $476 -146.68172246467481 $384 -137.98610283455551 $378 $477 forward 7 unknown #
vertex $-1 $266 $478 #
straight-curve $-1 66.305957222392493 8.7582431448146014 12.339311845819367 0 -1 0 I I #
coedge $-1 $377 $267 $270 $391 reversed $260 $-1 #
coedge $-1 $267 $377 $382 $475 forward $260 $-1 #
vertex $-1 $268 $479 #
straight-curve $-1 73.340861232337403 22.249915966748183 106.05675729365258 0 0 1 I I #
straight-curve $-1 -45.327144205500957 22.249915966748183 93.445509149466787 0.80901698891910034 0 -0.5877852598018023 I I #
edge $-1 $473 12.783056612510222 $272 22.249915966748183 $386 $480 forward 7 unknown #
point $-1 73.340861232337403 22.249915966748183 12.339311845819363 #
point $-1 66.305957222392479 22.249915966748183 12.339311845819367 #
edge $-1 $481 1 $481 0 $275 $-1 forward 7 unknown #
vertex $-1 $276 $482 #
ellipse-curve $-1 67.654916264432686 15.487873570863929 6.7990588735159374 0.5877852598018023 0 0.80901698891910034 0.80901698891910034 0 -0.5877852598018023 1 I I #
point $-1 70.632426216284031 15.487873570863929 9.1959480643038845 #
edge $-1 $483 1 $483 0 $279 $-1 forward 7 unknown #
vertex $-1 $280 $484 #
ellipse-curve $-1 67.654916264432686 19.545099008394477 6.7990588735159374 0.5877852598018023 0 0.80901698891910034 0.80901698891910034 0 -0.5877852598018023 1 I I #
point $-1 70.632426216284031 19.545099008394477 9.1959480643038845 #
loop $-1 $-1 $291 $283 #
plane-surface $-1 -73.340861232337403 0 0 1 0 0 0 0 -1 forward_v I I I I #
coedge $-1 $405 $286 $288 $409 reversed $186 $-1 #
coedge $-1 $286 $404 $485 $486 reversed $186 $-1 #
coedge $-1 $294 $289 $286 $407 forward $284 $-1 #
edge $-1 $410 -20.654620104501724 $487 -7.4672020431370925 $406 $488 forward 7 unknown #
coedge $-1 $288 $287 $413 $489 reversed $117 $-1 #
edge $-1 $490 3.5527045195756588e-014 $410 16.512436512352942 $404 $491 forward 7 unknown #
vertex $-1 $290 $492 #
straight-curve $-1 -60.153443170972778 -5.5427303952836873 12.339311845819363 0 1 0 I I #
coedge $-1 $485 $291 $294 $417 reversed $402 $-1 #
coedge $-1 $291 $485 $408 $489 forward $402 $-1 #
vertex $-1 $292 $493 #
straight-curve $-1 -73.340861232337403 -14.756986509425474 59.773555375545286 0 0 1 I I #
straight-curve $-1 -73.340861232337431 -14.756986509425474 2.4018793580346198 -0.79863550430605224 0 -0.6018150307709319 I I #
edge $-1 $487 7.4139350717092753 $295 14.756986509425474 $412 $494 forward 7 unknown #
point $-1 -73.340861232337403 -14.756986509425474 12.339311845819363 #
point $-1 -60.153443170972771 -14.756986509425474 12.339311845819363 #
edge $-1 $495 1 $495 0 $298 $-1 forward 7 unknown #
vertex $-1 $299 $496 #
ellipse-curve $-1 -65.000590101030596 -11.085460790567375 5.0528294566593619 -0.6018150307709319 0 0.79863550430605224 0.79863550430605224 0 0.6018150307709319 1 I I #
point $-1 -65.948516697349007 -11.085460790567375 7.9724106326979136 #
plane-surface $-1 73.340861232337403 0 0 -1 0 0 0 0 1 forward_v I I I I #
coedge $-1 $307 $305 $309 $429 reversed $201 $-1 #
edge $-1 $320 -12.339311845819363 $431 12.339311845819363 $319 $497 forward 7 unknown #
vertex $-1 $429 $498 #
straight-curve $-1 -73.340861232337403 -30.843808406017612 0 0 0 -1 I I #
edge $-1 $427 -30.843808406017612 $431 30.843808406017612 $425 $499 forward 7 unknown #
straight-curve $-1 0 -30.843808406017612 -12.339311845819363 -1 0 0 I I #
vertex $-1 $312 $500 #
straight-curve $-1 0 30.843808406017612 -12.339311845819363 1 0 0 I I #
point $-1 73.340861232337403 30.843808406017612 -12.339311845819363 #
point $-1 73.340861232337403 -30.843808406017612 -12.339311845819363 #
straight-curve $-1 -73.340861232337403 0 12.339311845819363 0 -1 0 I I #
point $-1 -73.340861232337403 30.843808406017612 12.339311845819363 #
point $-1 -73.340861232337403 -30.843808406017612 12.339311845819363 #
straight-curve $-1 73.340861232337403 -30.843808406017612 0 0 0 -1 I I #
straight-curve $-1 73.340861232337403 30.843808406017612 0 0 0 -1 I I #
loop $-1 $-1 $448 $329 #
plane-surface $-1 -73.340861232337403 0 0 1 0 0 0 0 -1 forward_v I I I I #
coedge $-1 $333 $332 $454 $501 forward $134 $-1 #
edge $-1 $337 14.756986509425476 $457 30.843808406017612 $336 $502 forward 7 unknown #
coedge $-1 $451 $448 $333 $445 reversed $440 $-1 #
edge $-1 $503 -30.843808406017612 $446 -14.756986509425476 $444 $504 forward 7 unknown #
vertex $-1 $449 $505 #
straight-curve $-1 0 -14.756986509425476 -12.339311845819363 1 0 0 I I #
coedge $-1 $444 $339 $335 $449 forward $440 $-1 #
edge $-1 $341 3.7824752628728824 $446 6.9653828095886148 $448 $506 forward 7 unknown #
point $-1 73.340861232337403 -14.756986509425476 -12.339311845819363 #
coedge $-1 $339 $444 $343 $455 reversed $440 $-1 #
straight-curve $-1 -73.340861232337403 -11.400198728860772 -9.156404299103631 0 1 0 I I #
point $-1 -73.340861232337403 -14.756986509425476 -9.156404299103631 #
coedge $-1 $344 $343 $442 $501 reversed $330 $-1 #
edge $-1 $345 9.156404299103631 $503 12.339311845819363 $451 $507 forward 7 unknown #
point $-1 -73.340861232337403 -30.843808406017615 -9.156404299103631 #
vertex $-1 $347 $508 #
straight-curve $-1 73.340861232337403 -30.843808406017612 0 0 0 -1 I I #
edge $-1 $460 93.717445447833214 $463 98.82860249126054 $351 $509 forward 7 unknown #
vertex $-1 $365 $510 #
straight-curve $-1 20.445105070786894 -6.1630940701560384 12.339311845819367 1 0 0 I I #
edge $-1 $463 -5.4482618736375095 $362 4.0185974806004516 $361 $511 forward 7 unknown #
vertex $-1 $462 $512 #
straight-curve $-1 -45.327144205500957 -6.1630940701560384 93.445509149466787 -0.80901698891910034 0 0.5877852598018023 I I #
point $-1 66.305957222392479 -6.1630940701560384 12.339311845819367 #
point $-1 73.340861232337417 3.3037652840819227 7.2281548023920408 #
straight-curve $-1 73.340861232337403 0 12.339311845819363 0 1 0 I I #
vertex $-1 $368 $513 #
point $-1 68.463933253351797 -3.4582771118023352 6.2112736137141349 #
vertex $-1 $372 $514 #
point $-1 68.463933253351797 0.59894832572821954 6.2112736137141349 #
edge $-1 $473 93.717445447833214 $476 98.82860249126054 $377 $515 forward 7 unknown #
vertex $-1 $391 $516 #
straight-curve $-1 20.445105070786894 12.783056612510222 12.339311845819367 1 0 0 I I #
edge $-1 $476 4.0248134676956209 $388 13.491672821933582 $387 $517 forward 7 unknown #
vertex $-1 $475 $518 #
straight-curve $-1 -45.327144205500957 12.783056612510222 93.445509149466787 -0.80901698891910034 0 0.5877852598018023 I I #
point $-1 66.305957222392479 12.783056612510222 12.339311845819367 #
point $-1 73.340861232337417 22.249915966748183 7.2281548023920408 #
straight-curve $-1 73.340861232337403 0 12.339311845819363 0 1 0 I I #
vertex $-1 $394 $519 #
point $-1 68.463933253351797 15.487873570863929 6.2112736137141349 #
vertex $-1 $398 $520 #
point $-1 68.463933253351797 19.545099008394477 6.2112736137141349 #
coedge $-1 $413 $412 $405 $486 forward $402 $-1 #
edge $-1 $487 47.434243529725919 $490 57.371676017510644 $485 $521 forward 7 unknown #
vertex $-1 $417 $522 #
straight-curve $-1 -80.808063275474495 -7.4139350717092753 12.339311845819367 -1 0 0 I I #
edge $-1 $490 1.8712046764255881 $414 9.2142561141417865 $413 $523 forward 7 unknown #
vertex $-1 $489 $524 #
straight-curve $-1 -73.340861232337431 -7.4139350717092753 2.4018793580346198 0.79863550430605224 0 0.6018150307709319 I I #
point $-1 -60.153443170972771 -7.4139350717092753 12.339311845819363 #
point $-1 -73.340861232337403 -14.756986509425474 2.4018793580346411 #
straight-curve $-1 -73.340861232337403 0 12.339311845819363 0 -1 0 I I #
vertex $-1 $420 $525 #
point $-1 -64.201954596724548 -11.085460790567375 5.6546444874302937 #
straight-curve $-1 -73.340861232337403 30.843808406017612 0 0 0 -1 I I #
point $-1 -73.340861232337403 -30.843808406017612 -12.339311845819363 #
straight-curve $-1 -73.340861232337403 0 -12.339311845819363 0 1 0 I I #
point $-1 -73.340861232337403 30.843808406017612 -12.339311845819363 #
edge $-1 $457 -73.340861232337403 $503 73.340861232337403 $454 $526 forward 7 unknown #
straight-curve $-1 73.340861232337403 0 -12.339311845819363 0 -1 0 I I #
vertex $-1 $445 $527 #
straight-curve $-1 -73.340861232337403 0 -12.339311845819363 0 1 0 I I #
point $-1 -73.340861232337403 -14.756986509425476 -12.339311845819363 #
straight-curve $-1 -73.340861232337403 -14.756986509425476 -5.3739290362307486 0 0 -1 I I #
straight-curve $-1 -73.340861232337403 -30.843808406017612 0 0 0 -1 I I #
point $-1 73.340861232337403 -30.843808406017612 -12.339311845819363 #
straight-curve $-1 73.340861232337403 -6.1630940701560384 106.05675729365258 0 0 -1 I I #
point $-1 73.340861232337403 -6.1630940701560384 12.339311845819363 #
straight-curve $-1 73.340861232337403 -0.71483219651852892 7.228154802392055 0 1 0 I I #
point $-1 73.340861232337417 -6.1630940701560384 7.2281548023920408 #
point $-1 67.067131004630895 -3.4582771118023352 5.9900418845968364 #
point $-1 67.067131004630895 0.59894832572821954 5.9900418845968364 #
straight-curve $-1 73.340861232337403 12.783056612510222 106.05675729365258 0 0 -1 I I #
point $-1 73.340861232337403 12.783056612510222 12.339311845819363 #
straight-curve $-1 73.340861232337403 8.7582431448146014 7.228154802392055 0 1 0 I I #
point $-1 73.340861232337417 12.783056612510222 7.2281548023920408 #
point $-1 67.067131004630895 15.487873570863929 5.9900418845968364 #
point $-1 67.067131004630895 19.545099008394477 5.9900418845968364 #
straight-curve $-1 -73.340861232337403 -7.4139350717092753 59.773555375545286 0 0 -1 I I #
point $-1 -73.340861232337403 -7.4139350717092753 12.339311845819363 #
straight-curve $-1 -73.340861232337403 -5.5427303952836873 2.4018793580346376 0 -1 0 I I #
point $-1 -73.340861232337403 -7.4139350717092753 2.4018793580346411 #
point $-1 -64.398775070259674 -11.085460790567375 4.2541939523533099 #
straight-curve $-1 0 -30.843808406017612 -12.339311845819363 -1 0 0 I I #
point $-1 -73.340861232337403 -30.843808406017612 -12.339311845819363 #
End-of-ACIS-data 