500 0 12 0           
7 Unknown 11 ACIS 5.0 NT 24 Thu Mar 25 22:49:25 1999 
-1 9.9999999999999995e-007 1e-010 
body $-1 $12 $-1 $13 #
body $-1 $14 $-1 $15 #
body $-1 $16 $-1 $17 #
body $-1 $18 $-1 $19 #
body $-1 $20 $-1 $21 #
body $-1 $22 $-1 $23 #
body $-1 $24 $-1 $25 #
body $-1 $26 $-1 $27 #
body $-1 $28 $-1 $29 #
body $-1 $30 $-1 $31 #
body $-1 $32 $-1 $33 #
body $-1 $34 $-1 $35 #
lump $-1 $-1 $36 $0 #
transform $-1 1 0 0 0 1 0 0 0 1 59.290139469588304 37.327075628471846 11.82922104659 1 rotate no_reflect no_shear #
lump $-1 $-1 $37 $1 #
transform $-1 1 0 0 0 1 0 0 0 1 59.290139469588304 37.327075628471846 11.82922104659 1 rotate no_reflect no_shear #
lump $-1 $-1 $38 $2 #
transform $-1 1 0 0 0 1 0 0 0 1 59.290139469588304 37.327075628471846 11.82922104659 1 rotate no_reflect no_shear #
lump $-1 $-1 $39 $3 #
transform $-1 1 0 0 0 1 0 0 0 1 59.290139469588304 37.327075628471846 11.82922104659 1 rotate no_reflect no_shear #
lump $-1 $-1 $40 $4 #
transform $-1 1 0 0 0 1 0 0 0 1 59.290139469588304 37.327075628471846 11.82922104659 1 rotate no_reflect no_shear #
lump $-1 $-1 $41 $5 #
transform $-1 1 0 0 0 1 0 0 0 1 59.290139469588304 37.327075628471846 11.82922104659 1 rotate no_reflect no_shear #
lump $-1 $-1 $42 $6 #
transform $-1 1 0 0 0 1 0 0 0 1 59.290139469588304 37.327075628471846 11.82922104659 1 rotate no_reflect no_shear #
lump $-1 $-1 $43 $7 #
transform $-1 1 0 0 0 1 0 0 0 1 59.290139469588304 37.327075628471846 11.82922104659 1 rotate no_reflect no_shear #
lump $-1 $-1 $44 $8 #
transform $-1 1 0 0 0 1 0 0 0 1 59.290139469588304 37.327075628471846 11.82922104659 1 rotate no_reflect no_shear #
lump $-1 $-1 $45 $9 #
transform $-1 1 0 0 0 1 0 0 0 1 59.290139469588304 37.327075628471846 11.82922104659 1 rotate no_reflect no_shear #
lump $-1 $-1 $46 $10 #
transform $-1 1 0 0 0 1 0 0 0 1 59.290139469588304 37.327075628471846 11.82922104659 1 rotate no_reflect no_shear #
lump $-1 $-1 $47 $11 #
transform $-1 1 0 0 0 1 0 0 0 1 59.290139469588304 37.327075628471846 11.82922104659 1 rotate no_reflect no_shear #
shell $-1 $-1 $-1 $48 $-1 $12 #
shell $-1 $-1 $-1 $49 $-1 $14 #
shell $-1 $-1 $-1 $50 $-1 $16 #
shell $-1 $-1 $-1 $51 $-1 $18 #
shell $-1 $-1 $-1 $52 $-1 $20 #
shell $-1 $-1 $-1 $53 $-1 $22 #
shell $-1 $-1 $-1 $54 $-1 $24 #
shell $-1 $-1 $-1 $55 $-1 $26 #
shell $-1 $-1 $-1 $56 $-1 $28 #
shell $-1 $-1 $-1 $57 $-1 $30 #
shell $-1 $-1 $-1 $58 $-1 $32 #
shell $-1 $-1 $-1 $59 $-1 $34 #
face $-1 $60 $61 $36 $-1 $62 forward single #
face $-1 $63 $64 $37 $-1 $65 forward single #
face $-1 $66 $67 $38 $-1 $68 reversed single #
face $-1 $69 $70 $39 $-1 $71 forward single #
face $-1 $72 $73 $40 $-1 $74 forward single #
face $-1 $75 $76 $41 $-1 $77 forward single #
face $-1 $78 $79 $42 $-1 $80 reversed single #
face $-1 $81 $82 $43 $-1 $83 forward single #
face $-1 $84 $85 $44 $-1 $86 forward single #
face $-1 $87 $88 $45 $-1 $89 reversed single #
face $-1 $90 $91 $46 $-1 $92 forward single #
face $-1 $93 $94 $47 $-1 $95 forward single #
face $-1 $96 $97 $36 $-1 $98 reversed single #
loop $-1 $-1 $99 $48 #
plane-surface $-1 0 0 11.82922104659 0 0 1 1 0 0 forward_v I I I I #
face $-1 $100 $101 $37 $-1 $102 reversed single #
loop $-1 $-1 $103 $49 #
plane-surface $-1 -59.290139469588304 0 0 1 0 0 0 0 -1 forward_v I I I I #
face $-1 $104 $105 $38 $-1 $106 reversed single #
loop $-1 $-1 $107 $50 #
plane-surface $-1 4.9626413667317522 -129.48126149577968 82.527283295959023 -1 0 0 0 -0.77714596973225614 0.62932038083071107 forward_v I I I I #
face $-1 $108 $109 $39 $-1 $110 forward single #
loop $-1 $111 $112 $51 #
cone-surface $-1 -4.6431840771484261 -35.055773472558684 9.3140353582400284 0 0.77714596973225614 -0.62932038083071107 0.5 0 0 1 I I 0 1 0.5 forward I I I I #
face $-1 $113 $114 $40 $-1 $115 forward single #
loop $-1 $116 $117 $52 #
cone-surface $-1 -1.0409995356933592 -35.055773472558684 9.3140353582400284 0 0.77714596973225614 -0.62932038083071107 0.5 0 0 1 I I 0 1 0.5 forward I I I I #
face $-1 $118 $119 $41 $-1 $120 forward single #
loop $-1 $121 $122 $53 #
cone-surface $-1 2.5611850057617076 -35.055773472558684 9.3140353582400284 0 0.77714596973225614 -0.62932038083071107 0.5 0 0 1 I I 0 1 0.5 forward I I I I #
face $-1 $123 $124 $42 $-1 $125 reversed single #
loop $-1 $-1 $126 $54 #
plane-surface $-1 -46.893598122381974 84.80792746373757 133.34818751005702 1 0 0 0 -0.78801076186113728 -0.61566146476048833 forward_v I I I I #
face $-1 $127 $128 $43 $-1 $129 forward single #
loop $-1 $130 $131 $55 #
cone-surface $-1 -42.250278814100469 30.933327915988954 4.8246278431773284 0 -0.78801076186113728 -0.61566146476048833 2 0 0 1 I I 0 1 2 forward I I I I #
face $-1 $132 $133 $44 $-1 $134 forward single #
loop $-1 $135 $136 $56 #
cone-surface $-1 -35.285299851678204 30.933327915988954 4.8246278431773284 0 -0.78801076186113728 -0.61566146476048833 2 0 0 1 I I 0 1 2 forward I I I I #
face $-1 $137 $138 $45 $-1 $139 reversed single #
loop $-1 $-1 $140 $57 #
plane-surface $-1 6.1982706736031687 84.80792746373757 133.34818751005702 1 0 0 0 -0.78801076186113728 -0.61566146476048833 forward_v I I I I #
face $-1 $141 $142 $46 $-1 $143 forward single #
loop $-1 $144 $145 $58 #
cone-surface $-1 10.841589981884674 30.933327915988954 4.8246278431773284 0 -0.78801076186113728 -0.61566146476048833 2 0 0 1 I I 0 1 2 forward I I I I #
face $-1 $146 $147 $47 $-1 $148 forward single #
loop $-1 $149 $150 $59 #
cone-surface $-1 17.806568944306939 30.933327915988954 4.8246278431773284 0 -0.78801076186113728 -0.61566146476048833 2 0 0 1 I I 0 1 2 forward I I I I #
face $-1 $151 $152 $36 $-1 $153 reversed single #
loop $-1 $-1 $154 $60 #
plane-surface $-1 0 0 -11.82922104659 0 0 1 1 0 0 forward_v I I I I #
coedge $-1 $155 $156 $157 $158 forward $61 $-1 #
face $-1 $159 $160 $37 $-1 $161 forward single #
loop $-1 $-1 $162 $63 #
plane-surface $-1 0 37.327075628471846 0 0 -1 0 0 0 -1 forward_v I I I I #
coedge $-1 $163 $164 $165 $166 forward $64 $-1 #
face $-1 $167 $168 $38 $-1 $169 reversed single #
loop $-1 $-1 $170 $66 #
plane-surface $-1 -1.0409995356933592 -37.32707562847186 7.9022969949444644 0 -0.77714596973225614 0.62932038083071107 1 0 0 forward_v I I I I #
coedge $-1 $171 $172 $173 $174 reversed $67 $-1 #
face $-1 $-1 $175 $39 $-1 $176 forward single #
loop $-1 $177 $178 $69 #
cone-surface $-1 -4.6431840771484261 -34.180164979759212 8.6049816005051554 0 0.77714596973225614 -0.62932038083071107 0.25 0 0 1 I I -0.70710678118654746 0.70710678118654746 0.25 forward I I I I #
loop $-1 $-1 $179 $51 #
coedge $-1 $112 $112 $180 $181 reversed $70 $-1 #
face $-1 $-1 $182 $40 $-1 $183 forward single #
loop $-1 $184 $185 $72 #
cone-surface $-1 -1.0409995356933592 -34.180164979759212 8.6049816005051554 0 0.77714596973225614 -0.62932038083071107 0.25 0 0 1 I I -0.70710678118654746 0.70710678118654746 0.25 forward I I I I #
loop $-1 $-1 $186 $52 #
coedge $-1 $117 $117 $187 $188 reversed $73 $-1 #
face $-1 $-1 $189 $41 $-1 $190 forward single #
loop $-1 $191 $192 $75 #
cone-surface $-1 2.5611850057617076 -34.180164979759212 8.6049816005051554 0 0.77714596973225614 -0.62932038083071107 0.25 0 0 1 I I -0.70710678118654746 0.70710678118654746 0.25 forward I I I I #
loop $-1 $-1 $193 $53 #
coedge $-1 $122 $122 $194 $195 reversed $76 $-1 #
face $-1 $196 $197 $42 $-1 $198 reversed single #
loop $-1 $-1 $199 $78 #
plane-surface $-1 -38.767789332889336 -8.6346084848291582 60.342879286656256 0 0.78801076186113728 0.61566146476048833 1 0 0 forward_v I I I I #
coedge $-1 $200 $201 $202 $203 reversed $79 $-1 #
face $-1 $-1 $204 $43 $-1 $205 forward single #
loop $-1 $206 $207 $81 #
cone-surface $-1 -42.250278814100469 27.780900085921957 2.3616813590114347 0 -0.78801076186113728 -0.61566146476048833 1 0 0 1 I I -0.70710678118654746 0.70710678118654746 1 forward I I I I #
loop $-1 $-1 $208 $55 #
coedge $-1 $131 $131 $209 $210 reversed $82 $-1 #
face $-1 $-1 $211 $44 $-1 $212 forward single #
loop $-1 $213 $214 $84 #
cone-surface $-1 -35.285299851678204 27.780900085921957 2.3616813590114347 0 -0.78801076186113728 -0.61566146476048833 1 0 0 1 I I -0.70710678118654746 0.70710678118654746 1 forward I I I I #
loop $-1 $-1 $215 $56 #
coedge $-1 $136 $136 $216 $217 reversed $85 $-1 #
face $-1 $218 $219 $45 $-1 $220 reversed single #
loop $-1 $-1 $221 $87 #
plane-surface $-1 14.324079463095806 -8.6346084848291582 60.342879286656256 0 0.78801076186113728 0.61566146476048833 1 0 0 forward_v I I I I #
coedge $-1 $222 $223 $224 $225 reversed $88 $-1 #
face $-1 $-1 $226 $46 $-1 $227 forward single #
loop $-1 $228 $229 $90 #
cone-surface $-1 10.841589981884674 27.780900085921957 2.3616813590114347 0 -0.78801076186113728 -0.61566146476048833 1 0 0 1 I I -0.70710678118654746 0.70710678118654746 1 forward I I I I #
loop $-1 $-1 $230 $58 #
coedge $-1 $145 $145 $231 $232 reversed $91 $-1 #
face $-1 $-1 $233 $47 $-1 $234 forward single #
loop $-1 $235 $236 $93 #
cone-surface $-1 17.806568944306939 27.780900085921957 2.3616813590114347 0 -0.78801076186113728 -0.61566146476048833 1 0 0 1 I I -0.70710678118654746 0.70710678118654746 1 forward I I I I #
loop $-1 $-1 $237 $59 #
coedge $-1 $150 $150 $238 $239 reversed $94 $-1 #
face $-1 $240 $241 $36 $-1 $242 reversed single #
loop $-1 $-1 $243 $96 #
plane-surface $-1 0 -37.327075628471846 0 0 1 0 0 0 1 forward_v I I I I #
coedge $-1 $244 $245 $246 $247 forward $97 $-1 #
coedge $-1 $248 $99 $249 $250 forward $61 $-1 #
coedge $-1 $99 $248 $251 $252 forward $61 $-1 #
coedge $-1 $253 $254 $99 $158 reversed $255 $-1 #
edge $-1 $256 -37.327075628471846 $257 37.327075628471846 $157 $258 forward 7 unknown #
face $-1 $259 $260 $37 $-1 $261 reversed single #
loop $-1 $-1 $165 $100 #
plane-surface $-1 -65.488410143191473 0 -4.5524402410105296 0 0 1 1 0 0 forward_v I I I I #
coedge $-1 $262 $263 $164 $264 forward $101 $-1 #
coedge $-1 $265 $103 $266 $267 reversed $64 $-1 #
coedge $-1 $103 $265 $162 $264 reversed $64 $-1 #
coedge $-1 $268 $269 $103 $166 reversed $160 $-1 #
edge $-1 $270 -37.327075628471846 $271 37.327075628471846 $165 $272 forward 7 unknown #
face $-1 $273 $274 $38 $-1 $275 reversed single #
loop $-1 $-1 $276 $104 #
plane-surface $-1 -7.0446404381184706 -129.48126149577968 82.527283295959023 1 0 0 0 0.77714596973225614 -0.62932038083071107 forward_v I I I I #
coedge $-1 $277 $278 $279 $280 reversed $105 $-1 #
coedge $-1 $172 $107 $281 $282 reversed $67 $-1 #
coedge $-1 $107 $171 $277 $283 reversed $67 $-1 #
coedge $-1 $279 $284 $107 $174 forward $285 $-1 #
edge $-1 $286 27.413555119417993 $287 30.593515430511481 $173 $288 forward 7 unknown #
loop $-1 $-1 $180 $108 #
plane-surface $-1 -1.0409995356933592 -37.32707562847186 7.9022969949444644 0 -0.77714596973225614 0.62932038083071107 1 0 0 forward_v I I I I #
loop $-1 $-1 $289 $69 #
coedge $-1 $178 $178 $179 $290 reversed $109 $-1 #
coedge $-1 $179 $179 $178 $290 forward $111 $-1 #
coedge $-1 $180 $180 $112 $181 forward $175 $-1 #
edge $-1 $291 1.3204983000468654e-015 $291 6.2831853071796013 $180 $292 forward 7 unknown #
loop $-1 $-1 $187 $113 #
plane-surface $-1 -1.0409995356933592 -37.32707562847186 7.9022969949444644 0 -0.77714596973225614 0.62932038083071107 1 0 0 forward_v I I I I #
loop $-1 $-1 $293 $72 #
coedge $-1 $185 $185 $186 $294 reversed $114 $-1 #
coedge $-1 $186 $186 $185 $294 forward $116 $-1 #
coedge $-1 $187 $187 $117 $188 forward $182 $-1 #
edge $-1 $295 1.3204983000468654e-015 $295 6.2831853071796013 $187 $296 forward 7 unknown #
loop $-1 $-1 $194 $118 #
plane-surface $-1 -1.0409995356933592 -37.32707562847186 7.9022969949444644 0 -0.77714596973225614 0.62932038083071107 1 0 0 forward_v I I I I #
loop $-1 $-1 $297 $75 #
coedge $-1 $192 $192 $193 $298 reversed $119 $-1 #
coedge $-1 $193 $193 $192 $298 forward $121 $-1 #
coedge $-1 $194 $194 $122 $195 forward $189 $-1 #
edge $-1 $299 1.3204983000468654e-015 $299 6.2831853071796013 $194 $300 forward 7 unknown #
face $-1 $301 $302 $42 $-1 $303 forward single #
loop $-1 $-1 $304 $123 #
plane-surface $-1 -30.641980543396699 84.80792746373757 133.34818751005702 -1 0 0 0 0.78801076186113728 0.61566146476048833 forward_v I I I I #
coedge $-1 $305 $306 $307 $308 reversed $124 $-1 #
coedge $-1 $201 $126 $309 $310 reversed $79 $-1 #
coedge $-1 $126 $200 $305 $311 reversed $79 $-1 #
coedge $-1 $307 $312 $126 $203 forward $302 $-1 #
edge $-1 $313 5.0768881033969393 $314 13.135549391950988 $202 $315 forward 7 unknown #
loop $-1 $-1 $209 $127 #
plane-surface $-1 -38.767789332889336 -8.6346084848291582 60.342879286656256 0 0.78801076186113728 0.61566146476048833 1 0 0 forward_v I I I I #
loop $-1 $-1 $316 $81 #
coedge $-1 $207 $207 $208 $317 reversed $128 $-1 #
coedge $-1 $208 $208 $207 $317 forward $130 $-1 #
coedge $-1 $209 $209 $131 $210 forward $204 $-1 #
edge $-1 $318 -8.7586447835389719e-017 $318 6.2831853071796004 $209 $319 forward 7 unknown #
loop $-1 $-1 $216 $132 #
plane-surface $-1 -38.767789332889336 -8.6346084848291582 60.342879286656256 0 0.78801076186113728 0.61566146476048833 1 0 0 forward_v I I I I #
loop $-1 $-1 $320 $84 #
coedge $-1 $214 $214 $215 $321 reversed $133 $-1 #
coedge $-1 $215 $215 $214 $321 forward $135 $-1 #
coedge $-1 $216 $216 $136 $217 forward $211 $-1 #
edge $-1 $322 -8.7586447835389719e-017 $322 6.2831853071796004 $216 $323 forward 7 unknown #
face $-1 $324 $325 $45 $-1 $326 forward single #
loop $-1 $-1 $327 $137 #
plane-surface $-1 22.449888252588444 84.80792746373757 133.34818751005702 -1 0 0 0 0.78801076186113728 0.61566146476048833 forward_v I I I I #
coedge $-1 $328 $329 $330 $331 reversed $138 $-1 #
coedge $-1 $223 $140 $332 $333 reversed $88 $-1 #
coedge $-1 $140 $222 $328 $334 reversed $88 $-1 #
coedge $-1 $330 $335 $140 $225 forward $325 $-1 #
edge $-1 $336 5.0768881033969393 $337 13.135549391950988 $224 $338 forward 7 unknown #
loop $-1 $-1 $231 $141 #
plane-surface $-1 14.324079463095806 -8.6346084848291582 60.342879286656256 0 0.78801076186113728 0.61566146476048833 1 0 0 forward_v I I I I #
loop $-1 $-1 $339 $90 #
coedge $-1 $229 $229 $230 $340 reversed $142 $-1 #
coedge $-1 $230 $230 $229 $340 forward $144 $-1 #
coedge $-1 $231 $231 $145 $232 forward $226 $-1 #
edge $-1 $341 -8.7586447835389719e-017 $341 6.2831853071796004 $231 $342 forward 7 unknown #
loop $-1 $-1 $238 $146 #
plane-surface $-1 14.324079463095806 -8.6346084848291582 60.342879286656256 0 0.78801076186113728 0.61566146476048833 1 0 0 forward_v I I I I #
loop $-1 $-1 $343 $93 #
coedge $-1 $236 $236 $237 $344 reversed $147 $-1 #
coedge $-1 $237 $237 $236 $344 forward $149 $-1 #
coedge $-1 $238 $238 $150 $239 forward $233 $-1 #
edge $-1 $345 -8.7586447835389719e-017 $345 6.2831853071796004 $238 $346 forward 7 unknown #
face $-1 $347 $348 $36 $-1 $349 reversed single #
loop $-1 $-1 $350 $151 #
plane-surface $-1 -59.290139469588304 0 0 1 0 0 0 0 -1 forward_v I I I I #
coedge $-1 $351 $251 $352 $353 forward $152 $-1 #
coedge $-1 $354 $154 $351 $355 forward $97 $-1 #
coedge $-1 $154 $354 $356 $357 forward $97 $-1 #
coedge $-1 $254 $253 $154 $247 reversed $255 $-1 #
edge $-1 $358 -37.327075628471846 $359 37.327075628471846 $246 $360 forward 7 unknown #
coedge $-1 $156 $155 $361 $362 forward $61 $-1 #
coedge $-1 $363 $364 $155 $250 reversed $348 $-1 #
edge $-1 $257 -59.290139469588304 $365 59.290139469588304 $249 $366 forward 7 unknown #
coedge $-1 $243 $367 $156 $252 reversed $152 $-1 #
edge $-1 $368 -59.290139469588304 $256 59.290139469588304 $251 $369 forward 7 unknown #
coedge $-1 $246 $157 $367 $370 forward $255 $-1 #
coedge $-1 $157 $246 $363 $371 reversed $255 $-1 #
loop $-1 $-1 $253 $347 #
vertex $-1 $158 $372 #
vertex $-1 $158 $373 #
straight-curve $-1 59.290139469588304 0 11.82922104659 0 1 0 I I #
face $-1 $374 $375 $37 $-1 $376 reversed single #
loop $-1 $-1 $377 $159 #
plane-surface $-1 -65.488410143191473 0 -9.97979530464848 0 0 1 1 0 0 forward_v I I I I #
coedge $-1 $378 $162 $379 $380 reversed $101 $-1 #
coedge $-1 $162 $378 $268 $381 reversed $101 $-1 #
edge $-1 $270 4.5524402410105296 $382 9.97979530464848 $162 $383 forward 7 unknown #
coedge $-1 $164 $163 $377 $384 forward $64 $-1 #
coedge $-1 $385 $386 $163 $267 forward $387 $-1 #
edge $-1 $388 -9.97979530464848 $271 -4.5524402410105296 $266 $389 forward 7 unknown #
coedge $-1 $390 $165 $263 $381 forward $160 $-1 #
coedge $-1 $165 $390 $385 $391 forward $160 $-1 #
vertex $-1 $264 $392 #
vertex $-1 $391 $393 #
straight-curve $-1 -59.290139469588304 0 -4.5524402410105296 0 -1 0 I I #
face $-1 $-1 $285 $38 $-1 $394 forward single #
loop $-1 $-1 $395 $167 #
plane-surface $-1 0 -37.327075628471846 0 0 1 0 0 0 1 forward_v I I I I #
coedge $-1 $396 $397 $398 $399 reversed $168 $-1 #
coedge $-1 $400 $170 $172 $283 forward $105 $-1 #
coedge $-1 $170 $400 $396 $401 forward $105 $-1 #
coedge $-1 $398 $173 $170 $280 forward $285 $-1 #
edge $-1 $287 -5.4831411345784318 $402 6.524140670271791 $279 $403 forward 7 unknown #
coedge $-1 $404 $405 $171 $282 forward $274 $-1 #
edge $-1 $406 -33.361344653035033 $286 -29.434420601389512 $281 $407 forward 7 unknown #
edge $-1 $287 -5.0530070341848994 $406 -2.2748066086763162e-014 $172 $408 forward 7 unknown #
coedge $-1 $173 $398 $404 $409 forward $285 $-1 #
loop $-1 $-1 $398 $273 #
vertex $-1 $282 $410 #
vertex $-1 $174 $411 #
straight-curve $-1 4.9626413667317522 -64.740630747889838 11.82922104659 0 1 0 I I #
coedge $-1 $289 $289 $-1 $412 reversed $177 $-1 #
edge $-1 $413 0 $413 6.2831853071796004 $178 $414 forward 7 unknown #
vertex $-1 $181 $415 #
ellipse-curve $-1 -4.6431840771484261 -35.737095472925105 9.8657590207672357 0 -0.77714596973225614 0.62932038083071107 0.5 0 0 1 I I #
coedge $-1 $293 $293 $-1 $416 reversed $184 $-1 #
edge $-1 $417 0 $417 6.2831853071796004 $185 $418 forward 7 unknown #
vertex $-1 $188 $419 #
ellipse-curve $-1 -1.0409995356933592 -35.737095472925105 9.8657590207672357 0 -0.77714596973225614 0.62932038083071107 0.5 0 0 1 I I #
coedge $-1 $297 $297 $-1 $420 reversed $191 $-1 #
edge $-1 $421 0 $421 6.2831853071796004 $192 $422 forward 7 unknown #
vertex $-1 $195 $423 #
ellipse-curve $-1 2.5611850057617076 -35.737095472925105 9.8657590207672357 0 -0.77714596973225614 0.62932038083071107 0.5 0 0 1 I I #
face $-1 $-1 $424 $42 $-1 $425 reversed single #
loop $-1 $-1 $202 $196 #
plane-surface $-1 0 0 11.82922104659 0 0 1 1 0 0 forward_v I I I I #
coedge $-1 $426 $427 $428 $429 reversed $197 $-1 #
coedge $-1 $430 $199 $201 $311 forward $124 $-1 #
coedge $-1 $199 $430 $426 $431 forward $124 $-1 #
coedge $-1 $428 $202 $199 $308 forward $302 $-1 #
edge $-1 $314 -27.509703455937306 $432 -11.25808587695203 $307 $433 forward 7 unknown #
coedge $-1 $434 $435 $200 $310 forward $424 $-1 #
edge $-1 $436 -65.159489076453028 $313 -54.844872708438508 $309 $437 forward 7 unknown #
edge $-1 $314 61.564715341559385 $436 74.654151256943692 $201 $438 forward 7 unknown #
coedge $-1 $202 $428 $434 $439 forward $302 $-1 #
vertex $-1 $203 $440 #
vertex $-1 $203 $441 #
straight-curve $-1 -46.893598122381974 42.403963731868785 11.82922104659 0 -1 0 I I #
coedge $-1 $316 $316 $-1 $442 reversed $206 $-1 #
edge $-1 $443 0 $443 6.2831853071796004 $207 $444 forward 7 unknown #
vertex $-1 $210 $445 #
ellipse-curve $-1 -42.250278814100469 33.297744984194821 6.6719128625827402 0 0.78801076186113728 0.61566146476048833 2 0 0 1 I I #
coedge $-1 $320 $320 $-1 $446 reversed $213 $-1 #
edge $-1 $447 0 $447 6.2831853071796004 $214 $448 forward 7 unknown #
vertex $-1 $217 $449 #
ellipse-curve $-1 -35.285299851678204 33.297744984194821 6.6719128625827402 0 0.78801076186113728 0.61566146476048833 2 0 0 1 I I #
face $-1 $-1 $450 $45 $-1 $451 reversed single #
loop $-1 $-1 $224 $218 #
plane-surface $-1 0 0 11.82922104659 0 0 1 1 0 0 forward_v I I I I #
coedge $-1 $452 $453 $454 $455 reversed $219 $-1 #
coedge $-1 $456 $221 $223 $334 forward $138 $-1 #
coedge $-1 $221 $456 $452 $457 forward $138 $-1 #
coedge $-1 $454 $224 $221 $331 forward $325 $-1 #
edge $-1 $337 -0.96376905794473444 $458 15.287848521040541 $330 $459 forward 7 unknown #
coedge $-1 $460 $461 $222 $333 forward $450 $-1 #
edge $-1 $462 -65.159489076453028 $336 -54.844872708438508 $332 $463 forward 7 unknown #
edge $-1 $337 61.564715341559385 $462 74.654151256943692 $223 $464 forward 7 unknown #
coedge $-1 $224 $454 $460 $465 forward $325 $-1 #
vertex $-1 $225 $466 #
vertex $-1 $225 $467 #
straight-curve $-1 6.1982706736031687 42.403963731868785 11.82922104659 0 -1 0 I I #
coedge $-1 $339 $339 $-1 $468 reversed $228 $-1 #
edge $-1 $469 0 $469 6.2831853071796004 $229 $470 forward 7 unknown #
vertex $-1 $232 $471 #
ellipse-curve $-1 10.841589981884674 33.297744984194821 6.6719128625827402 0 0.78801076186113728 0.61566146476048833 2 0 0 1 I I #
coedge $-1 $343 $343 $-1 $472 reversed $235 $-1 #
edge $-1 $473 0 $473 6.2831853071796004 $236 $474 forward 7 unknown #
vertex $-1 $239 $475 #
ellipse-curve $-1 17.806568944306939 33.297744984194821 6.6719128625827402 0 0.78801076186113728 0.61566146476048833 2 0 0 1 I I #
face $-1 $-1 $255 $36 $-1 $476 reversed single #
loop $-1 $-1 $363 $240 #
plane-surface $-1 0 37.327075628471846 0 0 -1 0 0 0 -1 forward_v I I I I #
coedge $-1 $477 $361 $364 $478 forward $241 $-1 #
coedge $-1 $367 $243 $244 $355 reversed $152 $-1 #
coedge $-1 $361 $477 $243 $353 reversed $241 $-1 #
edge $-1 $368 -11.82922104659 $479 11.82922104659 $352 $480 forward 7 unknown #
coedge $-1 $245 $244 $477 $481 forward $97 $-1 #
edge $-1 $359 -59.290139469588304 $479 59.290139469588304 $351 $482 forward 7 unknown #
coedge $-1 $364 $363 $245 $357 reversed $348 $-1 #
edge $-1 $483 -59.290139469588304 $358 59.290139469588304 $356 $484 forward 7 unknown #
vertex $-1 $247 $485 #
vertex $-1 $370 $486 #
straight-curve $-1 59.290139469588304 0 -11.82922104659 0 -1 0 I I #
coedge $-1 $350 $352 $248 $362 reversed $241 $-1 #
edge $-1 $365 -37.327075628471846 $368 37.327075628471846 $361 $487 forward 7 unknown #
coedge $-1 $356 $249 $254 $371 forward $348 $-1 #
coedge $-1 $249 $356 $350 $478 reversed $348 $-1 #
vertex $-1 $250 $488 #
straight-curve $-1 0 37.327075628471846 11.82922104659 -1 0 0 I I #
coedge $-1 $251 $351 $253 $370 reversed $152 $-1 #
vertex $-1 $362 $489 #
straight-curve $-1 0 -37.327075628471846 11.82922104659 1 0 0 I I #
edge $-1 $256 -11.82922104659 $359 11.82922104659 $253 $490 forward 7 unknown #
edge $-1 $257 -11.82922104659 $358 11.82922104659 $254 $491 forward 7 unknown #
point $-1 59.290139469588304 -37.327075628471846 11.82922104659 #
point $-1 59.290139469588304 37.327075628471846 11.82922104659 #
face $-1 $-1 $387 $37 $-1 $492 reversed single #
loop $-1 $-1 $493 $259 #
plane-surface $-1 -71.686680816794635 0 -7.2661177728295048 1 0 0 0 0 -1 forward_v I I I I #
coedge $-1 $494 $379 $265 $384 reversed $260 $-1 #
coedge $-1 $263 $262 $493 $495 reversed $101 $-1 #
coedge $-1 $377 $496 $262 $380 forward $260 $-1 #
edge $-1 $497 -6.1982706736031616 $382 6.1982706736031616 $262 $498 forward 7 unknown #
edge $-1 $270 -6.1982706736031616 $499 6.1982706736031616 $263 $500 forward 7 unknown #
vertex $-1 $264 $501 #
straight-curve $-1 -59.290139469588304 37.327075628471846 0 0 0 -1 I I #
edge $-1 $388 -37.327075628471846 $382 37.327075628471846 $377 $502 forward 7 unknown #
coedge $-1 $503 $266 $269 $391 reversed $387 $-1 #
coedge $-1 $266 $503 $494 $504 reversed $387 $-1 #
loop $-1 $-1 $266 $374 #
vertex $-1 $267 $505 #
straight-curve $-1 -59.290139469588304 -37.327075628471846 0 0 0 1 I I #
coedge $-1 $269 $268 $506 $507 forward $160 $-1 #
edge $-1 $508 -6.1982706736031616 $271 6.1982706736031616 $385 $509 forward 7 unknown #
point $-1 -59.290139469588311 37.327075628471846 -4.5524402410105296 #
point $-1 -59.290139469588311 -37.327075628471846 -4.5524402410105296 #
plane-surface $-1 0 0 11.82922104659 0 0 1 1 0 0 forward_v I I I I #
coedge $-1 $405 $404 $397 $510 forward $274 $-1 #
coedge $-1 $397 $276 $278 $401 reversed $168 $-1 #
coedge $-1 $276 $396 $395 $510 reversed $168 $-1 #
coedge $-1 $284 $279 $276 $399 forward $285 $-1 #
edge $-1 $402 -30.593515430511481 $511 -27.413555119417993 $398 $512 forward 7 unknown #
coedge $-1 $278 $277 $405 $513 reversed $105 $-1 #
edge $-1 $514 2.2748066086763162e-014 $402 5.0530070341848994 $396 $515 forward 7 unknown #
vertex $-1 $280 $516 #
straight-curve $-1 -0.52049976784667962 -34.147115317378358 11.82922104659 -1 0 0 I I #
coedge $-1 $395 $281 $284 $409 reversed $274 $-1 #
coedge $-1 $281 $395 $400 $513 forward $274 $-1 #
vertex $-1 $282 $517 #
straight-curve $-1 4.9626413667317522 -37.327075628471846 41.263641647979512 0 0 1 I I #
straight-curve $-1 4.9626413667317522 -37.32707562847186 7.9022969949444644 0 -0.62932038083071107 -0.77714596973225614 I I #
edge $-1 $511 -7.0446404381184706 $286 4.9626413667317522 $404 $518 forward 7 unknown #
point $-1 4.9626413667317522 -37.327075628471846 11.82922104659 #
point $-1 4.9626413667317522 -34.147115317378358 11.82922104659 #
edge $-1 $519 1 $519 0 $289 $-1 forward 7 unknown #
vertex $-1 $290 $520 #
ellipse-curve $-1 -4.6431840771484261 -34.374451472192277 8.7623116957128335 0 -0.77714596973225614 0.62932038083071107 0.5 0 0 1 I I #
point $-1 -4.1431840771484261 -35.737095472925091 9.865759020767225 #
edge $-1 $521 1 $521 0 $293 $-1 forward 7 unknown #
vertex $-1 $294 $522 #
ellipse-curve $-1 -1.0409995356933592 -34.374451472192277 8.7623116957128335 0 -0.77714596973225614 0.62932038083071107 0.5 0 0 1 I I #
point $-1 -0.54099953569335923 -35.737095472925091 9.865759020767225 #
edge $-1 $523 1 $523 0 $297 $-1 forward 7 unknown #
vertex $-1 $298 $524 #
ellipse-curve $-1 2.5611850057617076 -34.374451472192277 8.7623116957128335 0 -0.77714596973225614 0.62932038083071107 0.5 0 0 1 I I #
point $-1 3.0611850057617076 -35.737095472925091 9.865759020767225 #
loop $-1 $-1 $309 $301 #
plane-surface $-1 0 37.327075628471846 0 0 -1 0 0 0 -1 forward_v I I I I #
coedge $-1 $427 $304 $306 $431 reversed $197 $-1 #
coedge $-1 $304 $426 $525 $526 reversed $197 $-1 #
coedge $-1 $312 $307 $304 $429 forward $302 $-1 #
edge $-1 $432 -13.135549391950988 $527 -5.0768881033969393 $428 $528 forward 7 unknown #
coedge $-1 $306 $305 $435 $529 reversed $124 $-1 #
edge $-1 $530 -74.654151256943692 $432 -61.564715341559385 $426 $531 forward 7 unknown #
vertex $-1 $308 $532 #
straight-curve $-1 -19.383894666444668 29.26841433991779 11.82922104659 1 0 0 I I #
coedge $-1 $525 $309 $312 $439 reversed $424 $-1 #
coedge $-1 $309 $525 $430 $529 forward $424 $-1 #
vertex $-1 $310 $533 #
straight-curve $-1 -46.893598122381974 37.327075628471846 66.674093755028508 0 0 1 I I #
straight-curve $-1 -46.893598122381974 -8.6346084848291582 60.342879286656256 0 0.61566146476048833 -0.78801076186113728 I I #
edge $-1 $527 30.641980543396699 $313 46.893598122381974 $434 $534 forward 7 unknown #
point $-1 -46.893598122381974 37.327075628471846 11.82922104659 #
point $-1 -46.893598122381974 29.268414339917797 11.82922104659 #
edge $-1 $535 1 $535 0 $316 $-1 forward 7 unknown #
vertex $-1 $317 $536 #
ellipse-curve $-1 -42.250278814100469 28.568910847783094 2.9773428237719228 0 0.78801076186113728 0.61566146476048833 2 0 0 1 I I #
point $-1 -40.250278814100469 33.297744984194814 6.6719128625827349 #
edge $-1 $537 1 $537 0 $320 $-1 forward 7 unknown #
vertex $-1 $321 $538 #
ellipse-curve $-1 -35.285299851678204 28.568910847783094 2.9773428237719228 0 0.78801076186113728 0.61566146476048833 2 0 0 1 I I #
point $-1 -33.285299851678204 33.297744984194814 6.6719128625827349 #
loop $-1 $-1 $332 $324 #
plane-surface $-1 0 37.327075628471846 0 0 -1 0 0 0 -1 forward_v I I I I #
coedge $-1 $453 $327 $329 $457 reversed $219 $-1 #
coedge $-1 $327 $452 $539 $540 reversed $219 $-1 #
coedge $-1 $335 $330 $327 $455 forward $325 $-1 #
edge $-1 $458 -13.135549391950988 $541 -5.0768881033969393 $454 $542 forward 7 unknown #
coedge $-1 $329 $328 $461 $543 reversed $138 $-1 #
edge $-1 $544 -74.654151256943692 $458 -61.564715341559385 $452 $545 forward 7 unknown #
vertex $-1 $331 $546 #
straight-curve $-1 7.1620397315479032 29.26841433991779 11.82922104659 1 0 0 I I #
coedge $-1 $539 $332 $335 $465 reversed $450 $-1 #
coedge $-1 $332 $539 $456 $543 forward $450 $-1 #
vertex $-1 $333 $547 #
straight-curve $-1 6.1982706736031687 37.327075628471846 66.674093755028508 0 0 1 I I #
straight-curve $-1 6.1982706736031687 -8.6346084848291582 60.342879286656256 0 0.61566146476048833 -0.78801076186113728 I I #
edge $-1 $541 -22.449888252588444 $336 -6.1982706736031687 $460 $548 forward 7 unknown #
point $-1 6.1982706736031687 37.327075628471846 11.82922104659 #
point $-1 6.1982706736031687 29.268414339917797 11.82922104659 #
edge $-1 $549 1 $549 0 $339 $-1 forward 7 unknown #
vertex $-1 $340 $550 #
ellipse-curve $-1 10.841589981884674 28.568910847783094 2.9773428237719228 0 0.78801076186113728 0.61566146476048833 2 0 0 1 I I #
point $-1 12.841589981884674 33.297744984194814 6.6719128625827349 #
edge $-1 $551 1 $551 0 $343 $-1 forward 7 unknown #
vertex $-1 $344 $552 #
ellipse-curve $-1 17.806568944306939 28.568910847783094 2.9773428237719228 0 0.78801076186113728 0.61566146476048833 2 0 0 1 I I #
point $-1 19.806568944306939 33.297744984194814 6.6719128625827349 #
plane-surface $-1 59.290139469588304 0 0 -1 0 0 0 0 1 forward_v I I I I #
coedge $-1 $352 $350 $354 $481 reversed $241 $-1 #
edge $-1 $365 -11.82922104659 $483 11.82922104659 $364 $553 forward 7 unknown #
vertex $-1 $481 $554 #
straight-curve $-1 -59.290139469588304 -37.327075628471846 0 0 0 -1 I I #
edge $-1 $479 -37.327075628471846 $483 37.327075628471846 $477 $555 forward 7 unknown #
straight-curve $-1 0 -37.327075628471846 -11.82922104659 -1 0 0 I I #
vertex $-1 $357 $556 #
straight-curve $-1 0 37.327075628471846 -11.82922104659 1 0 0 I I #
point $-1 59.290139469588304 37.327075628471846 -11.82922104659 #
point $-1 59.290139469588304 -37.327075628471846 -11.82922104659 #
straight-curve $-1 -59.290139469588304 0 11.82922104659 0 -1 0 I I #
point $-1 -59.290139469588304 37.327075628471846 11.82922104659 #
point $-1 -59.290139469588304 -37.327075628471846 11.82922104659 #
straight-curve $-1 59.290139469588304 -37.327075628471846 0 0 0 -1 I I #
straight-curve $-1 59.290139469588304 37.327075628471846 0 0 0 -1 I I #
plane-surface $-1 0 -37.327075628471846 0 0 1 0 0 0 1 forward_v I I I I #
coedge $-1 $557 $506 $378 $495 forward $375 $-1 #
coedge $-1 $496 $377 $386 $504 forward $260 $-1 #
edge $-1 $499 -2.7136775318189752 $497 2.7136775318189752 $378 $558 forward 7 unknown #
coedge $-1 $379 $494 $557 $559 forward $260 $-1 #
vertex $-1 $380 $560 #
straight-curve $-1 -65.488410143191473 37.327075628471846 -9.97979530464848 1 0 0 I I #
vertex $-1 $381 $561 #
straight-curve $-1 -65.488410143191473 37.327075628471846 -4.5524402410105296 -1 0 0 I I #
point $-1 -59.290139469588311 37.327075628471846 -9.97979530464848 #
straight-curve $-1 -59.290139469588304 0 -9.97979530464848 0 1 0 I I #
coedge $-1 $386 $385 $562 $563 forward $387 $-1 #
edge $-1 $388 -6.1982706736031616 $564 6.1982706736031616 $386 $565 forward 7 unknown #
point $-1 -59.290139469588311 -37.327075628471846 -9.97979530464848 #
coedge $-1 $493 $562 $390 $507 reversed $375 $-1 #
edge $-1 $499 -37.327075628471846 $508 37.327075628471846 $506 $566 forward 7 unknown #
vertex $-1 $507 $567 #
straight-curve $-1 -65.488410143191473 -37.327075628471846 -4.5524402410105296 1 0 0 I I #
edge $-1 $511 29.434420601389512 $514 33.361344653035033 $395 $568 forward 7 unknown #
vertex $-1 $409 $569 #
straight-curve $-1 -7.0446404381184706 -64.740630747889838 11.82922104659 0 -1 0 I I #
edge $-1 $514 -6.524140670271791 $406 5.4831411345784318 $405 $570 forward 7 unknown #
vertex $-1 $513 $571 #
straight-curve $-1 -7.0446404381184706 -37.32707562847186 7.9022969949444644 0 0.62932038083071107 0.77714596973225614 I I #
point $-1 -7.0446404381184706 -34.147115317378358 11.82922104659 #
point $-1 4.9626413667317522 -37.327075628471846 7.9022969949444821 #
straight-curve $-1 0 -37.327075628471846 11.82922104659 1 0 0 I I #
vertex $-1 $412 $572 #
point $-1 -4.1431840771484261 -34.374451472192277 8.7623116957128335 #
vertex $-1 $416 $573 #
point $-1 -0.54099953569335923 -34.374451472192277 8.7623116957128335 #
vertex $-1 $420 $574 #
point $-1 3.0611850057617076 -34.374451472192277 8.7623116957128335 #
coedge $-1 $435 $434 $427 $526 forward $424 $-1 #
edge $-1 $527 54.844872708438508 $530 65.159489076453028 $525 $575 forward 7 unknown #
vertex $-1 $439 $576 #
straight-curve $-1 -30.641980543396699 42.403963731868785 11.82922104659 0 1 0 I I #
edge $-1 $530 11.25808587695203 $436 27.509703455937306 $435 $577 forward 7 unknown #
vertex $-1 $529 $578 #
straight-curve $-1 -30.641980543396699 -8.6346084848291582 60.342879286656256 0 -0.61566146476048833 0.78801076186113728 I I #
point $-1 -30.641980543396699 29.268414339917797 11.82922104659 #
point $-1 -46.893598122381974 37.327075628471846 1.5146046785754805 #
straight-curve $-1 0 37.327075628471846 11.82922104659 -1 0 0 I I #
vertex $-1 $442 $579 #
point $-1 -40.250278814100469 28.568910847783094 2.9773428237719228 #
vertex $-1 $446 $580 #
point $-1 -33.285299851678204 28.568910847783094 2.9773428237719228 #
coedge $-1 $461 $460 $453 $540 forward $450 $-1 #
edge $-1 $541 54.844872708438508 $544 65.159489076453028 $539 $581 forward 7 unknown #
vertex $-1 $465 $582 #
straight-curve $-1 22.449888252588444 42.403963731868785 11.82922104659 0 1 0 I I #
edge $-1 $544 -15.287848521040541 $462 0.96376905794473444 $461 $583 forward 7 unknown #
vertex $-1 $543 $584 #
straight-curve $-1 22.449888252588444 -8.6346084848291582 60.342879286656256 0 -0.61566146476048833 0.78801076186113728 I I #
point $-1 22.449888252588444 29.268414339917797 11.82922104659 #
point $-1 6.1982706736031687 37.327075628471846 1.5146046785754805 #
straight-curve $-1 0 37.327075628471846 11.82922104659 -1 0 0 I I #
vertex $-1 $468 $585 #
point $-1 12.841589981884674 28.568910847783094 2.9773428237719228 #
vertex $-1 $472 $586 #
point $-1 19.806568944306939 28.568910847783094 2.9773428237719228 #
straight-curve $-1 -59.290139469588304 37.327075628471846 0 0 0 -1 I I #
point $-1 -59.290139469588304 -37.327075628471846 -11.82922104659 #
straight-curve $-1 -59.290139469588304 0 -11.82922104659 0 1 0 I I #
point $-1 -59.290139469588304 37.327075628471846 -11.82922104659 #
coedge $-1 $562 $493 $496 $559 reversed $375 $-1 #
straight-curve $-1 -71.686680816794635 37.327075628471846 -7.2661177728295048 0 0 -1 I I #
edge $-1 $564 -37.327075628471846 $497 37.327075628471846 $557 $587 forward 7 unknown #
point $-1 -71.686680816794635 37.327075628471846 -9.97979530464848 #
point $-1 -71.686680816794635 37.327075628471846 -4.5524402410105296 #
coedge $-1 $506 $557 $503 $563 reversed $375 $-1 #
edge $-1 $508 -2.7136775318189752 $564 2.7136775318189752 $562 $588 forward 7 unknown #
vertex $-1 $559 $589 #
straight-curve $-1 -65.488410143191473 -37.327075628471846 -9.97979530464848 -1 0 0 I I #
straight-curve $-1 -71.686680816794635 0 -4.5524402410105296 0 -1 0 I I #
point $-1 -71.686680816794635 -37.327075628471846 -4.5524402410105296 #
straight-curve $-1 -7.0446404381184706 -37.327075628471846 41.263641647979512 0 0 -1 I I #
point $-1 -7.0446404381184706 -37.327075628471846 11.82922104659 #
straight-curve $-1 -0.52049976784667962 -37.327075628471846 7.9022969949444777 1 0 0 I I #
point $-1 -7.0446404381184706 -37.327075628471846 7.9022969949444821 #
point $-1 -4.6431840771484261 -33.985878487326147 8.4476515052974772 #
point $-1 -1.0409995356933592 -33.985878487326147 8.4476515052974772 #
point $-1 2.5611850057617076 -33.985878487326147 8.4476515052974772 #
straight-curve $-1 -30.641980543396699 37.327075628471846 66.674093755028508 0 0 -1 I I #
point $-1 -30.641980543396699 37.327075628471846 11.82922104659 #
straight-curve $-1 -19.383894666444668 37.327075628471846 1.5146046785754734 -1 0 0 I I #
point $-1 -30.641980543396699 37.327075628471846 1.5146046785754805 #
point $-1 -42.250278814100469 26.992889324060819 1.7460198942509464 #
point $-1 -35.285299851678204 26.992889324060819 1.7460198942509464 #
straight-curve $-1 22.449888252588444 37.327075628471846 66.674093755028508 0 0 -1 I I #
point $-1 22.449888252588444 37.327075628471846 11.82922104659 #
straight-curve $-1 7.1620397315479032 37.327075628471846 1.5146046785754734 -1 0 0 I I #
point $-1 22.449888252588444 37.327075628471846 1.5146046785754805 #
point $-1 10.841589981884674 26.992889324060819 1.7460198942509464 #
point $-1 17.806568944306939 26.992889324060819 1.7460198942509464 #
straight-curve $-1 -71.686680816794635 0 -9.97979530464848 0 1 0 I I #
straight-curve $-1 -71.686680816794635 -37.327075628471846 -7.2661177728295048 0 0 -1 I I #
point $-1 -71.686680816794635 -37.327075628471846 -9.97979530464848 #
End-of-ACIS-data 