500 0 6 0           
7 Unknown 11 ACIS 5.0 NT 24 Fri Mar 26 18:19:40 1999 
-1 9.9999999999999995e-007 1e-010 
body $-1 $6 $-1 $7 #
body $-1 $8 $-1 $9 #
body $-1 $10 $-1 $11 #
body $-1 $12 $-1 $13 #
body $-1 $14 $-1 $15 #
body $-1 $16 $-1 $17 #
lump $-1 $-1 $18 $0 #
transform $-1 1 0 0 0 1 0 0 0 1 55.160374767296361 24.040307746797975 10.258014796087688 1 rotate no_reflect no_shear #
lump $-1 $-1 $19 $1 #
transform $-1 1 0 0 0 1 0 0 0 1 55.160374767296361 24.040307746797975 10.258014796087688 1 rotate no_reflect no_shear #
lump $-1 $-1 $20 $2 #
transform $-1 1 0 0 0 1 0 0 0 1 55.160374767296361 24.040307746797975 10.258014796087688 1 rotate no_reflect no_shear #
lump $-1 $-1 $21 $3 #
transform $-1 1 0 0 0 1 0 0 0 1 55.160374767296361 24.040307746797975 10.258014796087688 1 rotate no_reflect no_shear #
lump $-1 $-1 $22 $4 #
transform $-1 1 0 0 0 1 0 0 0 1 55.160374767296361 24.040307746797975 10.258014796087688 1 rotate no_reflect no_shear #
lump $-1 $-1 $23 $5 #
transform $-1 1 0 0 0 1 0 0 0 1 55.160374767296361 24.040307746797975 10.258014796087688 1 rotate no_reflect no_shear #
shell $-1 $-1 $-1 $24 $-1 $6 #
shell $-1 $-1 $-1 $25 $-1 $8 #
shell $-1 $-1 $-1 $26 $-1 $10 #
shell $-1 $-1 $-1 $27 $-1 $12 #
shell $-1 $-1 $-1 $28 $-1 $14 #
shell $-1 $-1 $-1 $29 $-1 $16 #
face $-1 $30 $31 $18 $-1 $32 forward single #
face $-1 $33 $34 $19 $-1 $35 reversed single #
face $-1 $36 $37 $20 $-1 $38 reversed single #
face $-1 $39 $40 $21 $-1 $41 forward single #
face $-1 $42 $43 $22 $-1 $44 forward single #
face $-1 $45 $46 $23 $-1 $47 forward single #
face $-1 $48 $49 $18 $-1 $50 reversed single #
loop $-1 $-1 $51 $24 #
plane-surface $-1 0 0 10.258014796087688 0 0 1 1 0 0 forward_v I I I I #
face $-1 $52 $53 $19 $-1 $54 reversed single #
loop $-1 $-1 $55 $25 #
plane-surface $-1 -48.815307217437734 -16.903251762182748 0 0 1 0 0 0 1 forward_v I I I I #
face $-1 $56 $57 $20 $-1 $58 reversed single #
loop $-1 $-1 $59 $26 #
plane-surface $-1 46.790695593789877 -24.040307746797978 6.5992625147203228 0 -0.5877852598018023 0.80901698891910034 1 0 0 forward_v I I I I #
face $-1 $60 $61 $21 $-1 $62 forward single #
loop $-1 $63 $64 $27 #
cone-surface $-1 41.768888089685987 -20.408031581761435 6.894859277458572 0 0.5877852598018023 -0.80901698891910034 1 0 0 1 I I 0 1 1 forward I I I I #
face $-1 $65 $66 $22 $-1 $67 forward single #
loop $-1 $68 $69 $28 #
cone-surface $-1 46.790695593789877 -20.408031581761435 6.894859277458572 0 0.5877852598018023 -0.80901698891910034 1 0 0 1 I I 0 1 1 forward I I I I #
face $-1 $70 $71 $23 $-1 $72 forward single #
loop $-1 $73 $74 $29 #
cone-surface $-1 51.812503097893767 -20.408031581761435 6.894859277458572 0 0.5877852598018023 -0.80901698891910034 1 0 0 1 I I 0 1 1 forward I I I I #
face $-1 $75 $76 $18 $-1 $77 reversed single #
loop $-1 $-1 $78 $30 #
plane-surface $-1 0 0 -10.258014796087688 0 0 1 1 0 0 forward_v I I I I #
coedge $-1 $79 $80 $81 $82 forward $31 $-1 #
face $-1 $83 $84 $19 $-1 $85 reversed single #
loop $-1 $-1 $86 $33 #
plane-surface $-1 -48.815307217437734 -10.853380369183862 0 0 -1 0 0 0 -1 forward_v I I I I #
coedge $-1 $87 $88 $89 $90 reversed $34 $-1 #
face $-1 $91 $92 $20 $-1 $93 reversed single #
loop $-1 $-1 $94 $36 #
plane-surface $-1 38.421016420283394 -88.885218173518126 95.850623118494767 1 0 0 0 0.5877852598018023 -0.80901698891910034 forward_v I I I I #
coedge $-1 $95 $96 $97 $98 reversed $37 $-1 #
face $-1 $-1 $99 $21 $-1 $100 forward single #
loop $-1 $101 $102 $39 #
cone-surface $-1 41.768888089685987 -18.999782983453976 4.9565714050535927 0 0.5877852598018023 -0.80901698891910034 0.5 0 0 1 I I -0.70710678118654746 0.70710678118654746 0.5 forward I I I I #
loop $-1 $-1 $103 $27 #
coedge $-1 $64 $64 $104 $105 reversed $40 $-1 #
face $-1 $-1 $106 $22 $-1 $107 forward single #
loop $-1 $108 $109 $42 #
cone-surface $-1 46.790695593789877 -18.999782983453976 4.9565714050535927 0 0.5877852598018023 -0.80901698891910034 0.5 0 0 1 I I -0.70710678118654746 0.70710678118654746 0.5 forward I I I I #
loop $-1 $-1 $110 $28 #
coedge $-1 $69 $69 $111 $112 reversed $43 $-1 #
face $-1 $-1 $113 $23 $-1 $114 forward single #
loop $-1 $115 $116 $45 #
cone-surface $-1 51.812503097893767 -18.999782983453976 4.9565714050535927 0 0.5877852598018023 -0.80901698891910034 0.5 0 0 1 I I -0.70710678118654746 0.70710678118654746 0.5 forward I I I I #
loop $-1 $-1 $117 $29 #
coedge $-1 $74 $74 $118 $119 reversed $46 $-1 #
face $-1 $120 $121 $18 $-1 $122 reversed single #
loop $-1 $-1 $123 $48 #
plane-surface $-1 0 -24.040307746797975 0 0 1 0 0 0 1 forward_v I I I I #
coedge $-1 $124 $125 $126 $127 forward $49 $-1 #
coedge $-1 $128 $51 $129 $130 forward $31 $-1 #
coedge $-1 $51 $128 $131 $132 forward $31 $-1 #
coedge $-1 $133 $134 $51 $82 reversed $135 $-1 #
edge $-1 $136 -24.040307746797975 $137 24.040307746797975 $81 $138 forward 7 unknown #
face $-1 $139 $140 $19 $-1 $141 reversed single #
loop $-1 $-1 $142 $52 #
plane-surface $-1 -42.470239667579108 -13.878316065683306 0 -1 0 0 0 0 1 forward_v I I I I #
coedge $-1 $143 $144 $145 $146 forward $53 $-1 #
coedge $-1 $147 $55 $148 $149 reversed $34 $-1 #
coedge $-1 $55 $147 $150 $151 reversed $34 $-1 #
coedge $-1 $152 $153 $55 $90 forward $154 $-1 #
edge $-1 $155 -10.258014796087688 $156 10.258014796087688 $89 $157 forward 7 unknown #
face $-1 $158 $159 $20 $-1 $160 forward single #
loop $-1 $-1 $161 $56 #
plane-surface $-1 0 -24.040307746797975 0 0 1 0 0 0 1 forward_v I I I I #
coedge $-1 $162 $163 $164 $165 reversed $57 $-1 #
coedge $-1 $166 $59 $167 $168 reversed $37 $-1 #
coedge $-1 $59 $166 $162 $169 forward $37 $-1 #
coedge $-1 $164 $170 $59 $98 forward $159 $-1 #
edge $-1 $171 -31.765026970401422 $172 -15.025668623388455 $97 $173 forward 7 unknown #
loop $-1 $-1 $104 $60 #
plane-surface $-1 46.790695593789877 -24.040307746797978 6.5992625147203228 0 -0.5877852598018023 0.80901698891910034 1 0 0 forward_v I I I I #
loop $-1 $-1 $174 $39 #
coedge $-1 $102 $102 $103 $175 reversed $61 $-1 #
coedge $-1 $103 $103 $102 $175 forward $63 $-1 #
coedge $-1 $104 $104 $64 $105 forward $99 $-1 #
edge $-1 $176 -1.3022597424754572e-015 $176 6.2831853071795996 $104 $177 forward 7 unknown #
loop $-1 $-1 $111 $65 #
plane-surface $-1 46.790695593789877 -24.040307746797978 6.5992625147203228 0 -0.5877852598018023 0.80901698891910034 1 0 0 forward_v I I I I #
loop $-1 $-1 $178 $42 #
coedge $-1 $109 $109 $110 $179 reversed $66 $-1 #
coedge $-1 $110 $110 $109 $179 forward $68 $-1 #
coedge $-1 $111 $111 $69 $112 forward $106 $-1 #
edge $-1 $180 -1.3022597424754572e-015 $180 6.2831853071795996 $111 $181 forward 7 unknown #
loop $-1 $-1 $118 $70 #
plane-surface $-1 46.790695593789877 -24.040307746797978 6.5992625147203228 0 -0.5877852598018023 0.80901698891910034 1 0 0 forward_v I I I I #
loop $-1 $-1 $182 $45 #
coedge $-1 $116 $116 $117 $183 reversed $71 $-1 #
coedge $-1 $117 $117 $116 $183 forward $73 $-1 #
coedge $-1 $118 $118 $74 $119 forward $113 $-1 #
edge $-1 $184 -1.3022597424754572e-015 $184 6.2831853071795996 $118 $185 forward 7 unknown #
face $-1 $186 $187 $18 $-1 $188 reversed single #
loop $-1 $-1 $189 $75 #
plane-surface $-1 -55.160374767296361 0 0 1 0 0 0 0 -1 forward_v I I I I #
coedge $-1 $190 $131 $191 $192 forward $76 $-1 #
coedge $-1 $193 $78 $190 $194 forward $49 $-1 #
coedge $-1 $78 $193 $195 $196 forward $49 $-1 #
coedge $-1 $134 $133 $78 $127 reversed $135 $-1 #
edge $-1 $197 -24.040307746797975 $198 24.040307746797975 $126 $199 forward 7 unknown #
coedge $-1 $80 $79 $200 $201 forward $31 $-1 #
coedge $-1 $202 $203 $79 $130 reversed $187 $-1 #
edge $-1 $137 -55.160374767296361 $204 55.160374767296361 $129 $205 forward 7 unknown #
coedge $-1 $123 $206 $80 $132 reversed $76 $-1 #
edge $-1 $207 -55.160374767296361 $136 55.160374767296361 $131 $208 forward 7 unknown #
coedge $-1 $126 $81 $206 $209 forward $135 $-1 #
coedge $-1 $81 $126 $202 $210 reversed $135 $-1 #
loop $-1 $-1 $133 $186 #
vertex $-1 $82 $211 #
vertex $-1 $82 $212 #
straight-curve $-1 55.160374767296361 0 10.258014796087688 0 1 0 I I #
face $-1 $213 $214 $19 $-1 $215 forward single #
loop $-1 $-1 $216 $83 #
plane-surface $-1 0 0 -10.258014796087688 0 0 1 1 0 0 forward_v I I I I #
coedge $-1 $217 $218 $147 $219 forward $84 $-1 #
coedge $-1 $220 $86 $216 $221 reversed $53 $-1 #
coedge $-1 $86 $220 $222 $223 reversed $53 $-1 #
coedge $-1 $218 $217 $86 $146 reversed $84 $-1 #
edge $-1 $224 -10.258014796087688 $225 10.258014796087688 $145 $226 forward 7 unknown #
coedge $-1 $88 $87 $142 $219 reversed $34 $-1 #
coedge $-1 $227 $228 $87 $149 forward $140 $-1 #
edge $-1 $229 18.062586058860241 $155 30.752721158577494 $148 $230 forward 7 unknown #
coedge $-1 $231 $232 $88 $151 forward $214 $-1 #
edge $-1 $156 -30.752721158577494 $233 -18.062586058860241 $150 $234 forward 7 unknown #
coedge $-1 $235 $89 $232 $236 reversed $154 $-1 #
coedge $-1 $89 $235 $227 $237 reversed $154 $-1 #
loop $-1 $-1 $235 $213 #
vertex $-1 $237 $238 #
vertex $-1 $90 $239 #
straight-curve $-1 -55.160374767296361 -16.903251762182748 0 0 0 1 I I #
face $-1 $-1 $240 $20 $-1 $241 reversed single #
loop $-1 $-1 $164 $91 #
plane-surface $-1 0 0 10.258014796087688 0 0 1 1 0 0 forward_v I I I I #
coedge $-1 $242 $243 $163 $244 forward $92 $-1 #
coedge $-1 $163 $94 $96 $169 reversed $57 $-1 #
coedge $-1 $94 $162 $161 $244 reversed $57 $-1 #
coedge $-1 $245 $97 $94 $165 forward $159 $-1 #
edge $-1 $172 -25.438141733221045 $246 -20.402301339961088 $164 $247 forward 7 unknown #
coedge $-1 $96 $95 $242 $248 reversed $37 $-1 #
coedge $-1 $249 $250 $95 $168 forward $240 $-1 #
edge $-1 $251 -7.7850340771439166 $171 -1.5603929852576166 $167 $252 forward 7 unknown #
edge $-1 $253 4.4403802724362578e-015 $172 6.224641091886304 $162 $254 forward 7 unknown #
coedge $-1 $97 $245 $249 $255 forward $159 $-1 #
vertex $-1 $168 $256 #
vertex $-1 $98 $257 #
straight-curve $-1 23.395347796894939 -19.004467353538018 10.258014796087688 -1 0 0 I I #
coedge $-1 $174 $174 $-1 $258 reversed $101 $-1 #
edge $-1 $259 0 $259 6.2831853071796004 $102 $260 forward 7 unknown #
vertex $-1 $105 $261 #
ellipse-curve $-1 41.768888089685987 -21.522387550167995 8.4286386554040078 0 -0.5877852598018023 0.80901698891910034 1 0 0 1 I I #
coedge $-1 $178 $178 $-1 $262 reversed $108 $-1 #
edge $-1 $263 0 $263 6.2831853071796004 $109 $264 forward 7 unknown #
vertex $-1 $112 $265 #
ellipse-curve $-1 46.790695593789877 -21.522387550167995 8.4286386554040078 0 -0.5877852598018023 0.80901698891910034 1 0 0 1 I I #
coedge $-1 $182 $182 $-1 $266 reversed $115 $-1 #
edge $-1 $267 0 $267 6.2831853071796004 $116 $268 forward 7 unknown #
vertex $-1 $119 $269 #
ellipse-curve $-1 51.812503097893767 -21.522387550167995 8.4286386554040078 0 -0.5877852598018023 0.80901698891910034 1 0 0 1 I I #
face $-1 $-1 $135 $18 $-1 $270 reversed single #
loop $-1 $-1 $202 $120 #
plane-surface $-1 0 24.040307746797975 0 0 -1 0 0 0 -1 forward_v I I I I #
coedge $-1 $271 $200 $203 $272 forward $121 $-1 #
coedge $-1 $206 $123 $124 $194 reversed $76 $-1 #
coedge $-1 $200 $271 $123 $192 reversed $121 $-1 #
edge $-1 $207 -10.258014796087688 $273 10.258014796087688 $191 $274 forward 7 unknown #
coedge $-1 $125 $124 $271 $275 forward $49 $-1 #
edge $-1 $198 -55.160374767296361 $273 55.160374767296361 $190 $276 forward 7 unknown #
coedge $-1 $203 $202 $125 $196 reversed $187 $-1 #
edge $-1 $277 -55.160374767296361 $197 55.160374767296361 $195 $278 forward 7 unknown #
vertex $-1 $127 $279 #
vertex $-1 $209 $280 #
straight-curve $-1 55.160374767296361 0 -10.258014796087688 0 -1 0 I I #
coedge $-1 $189 $191 $128 $201 reversed $121 $-1 #
edge $-1 $204 -24.040307746797975 $207 24.040307746797975 $200 $281 forward 7 unknown #
coedge $-1 $195 $129 $134 $210 forward $187 $-1 #
coedge $-1 $129 $195 $189 $272 reversed $187 $-1 #
vertex $-1 $130 $282 #
straight-curve $-1 0 24.040307746797975 10.258014796087688 -1 0 0 I I #
coedge $-1 $131 $190 $133 $209 reversed $76 $-1 #
vertex $-1 $201 $283 #
straight-curve $-1 0 -24.040307746797975 10.258014796087688 1 0 0 I I #
edge $-1 $136 -10.258014796087688 $198 10.258014796087688 $133 $284 forward 7 unknown #
edge $-1 $137 -10.258014796087688 $197 10.258014796087688 $134 $285 forward 7 unknown #
point $-1 55.160374767296361 -24.040307746797975 10.258014796087688 #
point $-1 55.160374767296361 24.040307746797975 10.258014796087688 #
face $-1 $-1 $154 $19 $-1 $286 reversed single #
loop $-1 $-1 $222 $139 #
plane-surface $-1 0 0 10.258014796087688 0 0 1 1 0 0 forward_v I I I I #
coedge $-1 $228 $227 $143 $221 forward $140 $-1 #
coedge $-1 $145 $142 $228 $287 reversed $84 $-1 #
coedge $-1 $142 $145 $231 $288 reversed $84 $-1 #
edge $-1 $233 -10.258014796087688 $229 10.258014796087688 $142 $289 forward 7 unknown #
coedge $-1 $144 $143 $235 $290 reversed $53 $-1 #
edge $-1 $291 -30.752721158577494 $225 -18.062586058860241 $216 $292 forward 7 unknown #
coedge $-1 $232 $231 $144 $223 forward $214 $-1 #
edge $-1 $224 18.062586058860241 $293 30.752721158577494 $222 $294 forward 7 unknown #
vertex $-1 $223 $295 #
vertex $-1 $221 $296 #
straight-curve $-1 -42.470239667579108 -10.853380369183862 0 0 0 -1 I I #
coedge $-1 $216 $148 $153 $237 forward $140 $-1 #
coedge $-1 $148 $216 $217 $287 forward $140 $-1 #
vertex $-1 $149 $297 #
straight-curve $-1 -24.407653608718867 -16.903251762182748 -10.258014796087688 -1 0 0 I I #
coedge $-1 $222 $150 $218 $288 forward $214 $-1 #
coedge $-1 $150 $222 $152 $236 forward $214 $-1 #
vertex $-1 $151 $298 #
straight-curve $-1 -24.407653608718867 -16.903251762182748 10.258014796087688 1 0 0 I I #
coedge $-1 $153 $152 $220 $290 forward $154 $-1 #
edge $-1 $293 10.853380369183862 $156 16.903251762182748 $152 $299 forward 7 unknown #
edge $-1 $155 -16.903251762182748 $291 -10.853380369183862 $153 $300 forward 7 unknown #
point $-1 -55.160374767296361 -16.903251762182748 -10.258014796087688 #
point $-1 -55.160374767296361 -16.903251762182748 10.258014796087688 #
loop $-1 $-1 $167 $158 #
plane-surface $-1 55.160374767296361 0 0 -1 0 0 0 0 1 forward_v I I I I #
coedge $-1 $301 $161 $166 $248 forward $92 $-1 #
coedge $-1 $161 $301 $245 $302 reversed $92 $-1 #
edge $-1 $246 37.667296763159698 $253 41.326049044527061 $161 $303 forward 7 unknown #
coedge $-1 $170 $164 $243 $302 forward $159 $-1 #
vertex $-1 $302 $304 #
straight-curve $-1 38.421016420283394 -44.442609086759063 10.258014796087686 0 -1 0 I I #
edge $-1 $253 15.025668623388455 $251 31.765026970401422 $242 $305 forward 7 unknown #
coedge $-1 $250 $167 $170 $255 reversed $240 $-1 #
coedge $-1 $167 $249 $301 $306 forward $240 $-1 #
vertex $-1 $248 $307 #
straight-curve $-1 55.160374767296361 -17.742082919074416 11.175190792320247 0 0.80901698891910034 0.5877852598018023 I I #
vertex $-1 $248 $308 #
straight-curve $-1 38.421016420283394 -24.040307746797978 6.5992625147203228 0 0.80901698891910034 0.5877852598018023 I I #
edge $-1 $309 -24.040307746797975 $171 -19.004467353538018 $249 $310 forward 7 unknown #
point $-1 55.160374767296361 -19.004467353538018 10.258014796087688 #
point $-1 38.421016420283394 -19.004467353538018 10.258014796087688 #
edge $-1 $311 1 $311 0 $174 $-1 forward 7 unknown #
vertex $-1 $175 $312 #
ellipse-curve $-1 41.768888089685987 -19.293675613354878 5.3610798995131432 0 -0.5877852598018023 0.80901698891910034 1 0 0 1 I I #
point $-1 42.768888089685987 -21.522387550167991 8.4286386554040007 #
edge $-1 $313 1 $313 0 $178 $-1 forward 7 unknown #
vertex $-1 $179 $314 #
ellipse-curve $-1 46.790695593789877 -19.293675613354878 5.3610798995131432 0 -0.5877852598018023 0.80901698891910034 1 0 0 1 I I #
point $-1 47.790695593789877 -21.522387550167991 8.4286386554040007 #
edge $-1 $315 1 $315 0 $182 $-1 forward 7 unknown #
vertex $-1 $183 $316 #
ellipse-curve $-1 51.812503097893767 -19.293675613354878 5.3610798995131432 0 -0.5877852598018023 0.80901698891910034 1 0 0 1 I I #
point $-1 52.812503097893767 -21.522387550167991 8.4286386554040007 #
plane-surface $-1 55.160374767296361 0 0 -1 0 0 0 0 1 forward_v I I I I #
coedge $-1 $191 $189 $193 $275 reversed $121 $-1 #
edge $-1 $204 -10.258014796087688 $277 10.258014796087688 $203 $317 forward 7 unknown #
vertex $-1 $275 $318 #
straight-curve $-1 -55.160374767296361 -24.040307746797975 0 0 0 -1 I I #
edge $-1 $273 -24.040307746797975 $277 24.040307746797975 $271 $319 forward 7 unknown #
straight-curve $-1 0 -24.040307746797975 -10.258014796087688 -1 0 0 I I #
vertex $-1 $196 $320 #
straight-curve $-1 0 24.040307746797975 -10.258014796087688 1 0 0 I I #
point $-1 55.160374767296361 24.040307746797975 -10.258014796087688 #
point $-1 55.160374767296361 -24.040307746797975 -10.258014796087688 #
straight-curve $-1 -55.160374767296361 0 10.258014796087688 0 -1 0 I I #
point $-1 -55.160374767296361 24.040307746797975 10.258014796087688 #
point $-1 -55.160374767296361 -24.040307746797975 10.258014796087688 #
straight-curve $-1 55.160374767296361 -24.040307746797975 0 0 0 -1 I I #
straight-curve $-1 55.160374767296361 24.040307746797975 0 0 0 -1 I I #
plane-surface $-1 -55.160374767296361 0 0 1 0 0 0 0 -1 forward_v I I I I #
edge $-1 $225 3.9142223363422088 $229 9.9640937293410943 $228 $321 forward 7 unknown #
edge $-1 $233 -9.9640937293410943 $224 -3.9142223363422088 $231 $322 forward 7 unknown #
straight-curve $-1 -42.470239667579108 -16.903251762182748 0 0 0 -1 I I #
edge $-1 $293 -10.258014796087688 $291 10.258014796087688 $235 $323 forward 7 unknown #
vertex $-1 $290 $324 #
straight-curve $-1 -24.407653608718867 -10.853380369183862 -10.258014796087688 1 0 0 I I #
vertex $-1 $236 $325 #
straight-curve $-1 -24.407653608718867 -10.853380369183862 10.258014796087688 -1 0 0 I I #
point $-1 -42.470239667579108 -10.853380369183862 10.258014796087688 #
point $-1 -42.470239667579108 -10.853380369183862 -10.258014796087688 #
point $-1 -42.470239667579108 -16.903251762182748 -10.258014796087688 #
point $-1 -42.470239667579108 -16.903251762182748 10.258014796087688 #
straight-curve $-1 -55.160374767296361 0 10.258014796087688 0 -1 0 I I #
straight-curve $-1 -55.160374767296361 0 -10.258014796087688 0 1 0 I I #
coedge $-1 $243 $242 $250 $306 reversed $92 $-1 #
edge $-1 $246 38.421016420283394 $309 55.160374767296361 $243 $326 forward 7 unknown #
straight-curve $-1 38.421016420283394 -24.040307746797971 47.925311559247383 0 0 -1 I I #
point $-1 38.421016420283394 -24.040307746797975 10.258014796087688 #
straight-curve $-1 23.395347796894939 -24.040307746797975 6.5992625147203263 1 0 0 I I #
edge $-1 $309 -10.258014796087688 $251 -6.5992625147203254 $250 $327 forward 7 unknown #
point $-1 55.160374767296361 -24.040307746797975 6.5992625147203254 #
point $-1 38.421016420283394 -24.040307746797975 6.5992625147203254 #
vertex $-1 $255 $328 #
straight-curve $-1 55.160374767296361 0 10.258014796087688 0 1 0 I I #
vertex $-1 $258 $329 #
point $-1 42.768888089685987 -19.293675613354878 5.3610798995131432 #
vertex $-1 $262 $330 #
point $-1 47.790695593789877 -19.293675613354878 5.3610798995131432 #
vertex $-1 $266 $331 #
point $-1 52.812503097893767 -19.293675613354878 5.3610798995131432 #
straight-curve $-1 -55.160374767296361 24.040307746797975 0 0 0 -1 I I #
point $-1 -55.160374767296361 -24.040307746797975 -10.258014796087688 #
straight-curve $-1 -55.160374767296361 0 -10.258014796087688 0 1 0 I I #
point $-1 -55.160374767296361 24.040307746797975 -10.258014796087688 #
straight-curve $-1 -42.470239667579108 -6.9391580328416529 -10.258014796087688 0 -1 0 I I #
straight-curve $-1 -42.470239667579108 -6.9391580328416529 10.258014796087688 0 1 0 I I #
straight-curve $-1 -55.160374767296361 -10.853380369183862 0 0 0 -1 I I #
point $-1 -55.160374767296361 -10.853380369183862 -10.258014796087688 #
point $-1 -55.160374767296361 -10.853380369183862 10.258014796087688 #
straight-curve $-1 0 -24.040307746797975 10.258014796087688 1 0 0 I I #
straight-curve $-1 55.160374767296361 -24.040307746797975 0 0 0 -1 I I #
point $-1 55.160374767296361 -24.040307746797975 10.258014796087688 #
point $-1 41.768888089685987 -18.705890353553073 4.5520629105940422 #
point $-1 46.790695593789877 -18.705890353553073 4.5520629105940422 #
point $-1 51.812503097893767 -18.705890353553073 4.5520629105940422 #
End-of-ACIS-data 