500 0 4 0           
7 Unknown 11 ACIS 5.0 NT 24 Fri Mar 26 16:29:00 1999 
-1 9.9999999999999995e-007 1e-010 
body $-1 $4 $-1 $5 #
body $-1 $6 $-1 $7 #
body $-1 $8 $-1 $9 #
body $-1 $10 $-1 $11 #
lump $-1 $-1 $12 $0 #
transform $-1 1 0 0 0 1 0 0 0 1 68.453016754661704 37.994171444350485 13.988979216077825 1 rotate no_reflect no_shear #
lump $-1 $-1 $13 $1 #
transform $-1 1 0 0 0 1 0 0 0 1 68.453016754661704 37.994171444350485 13.988979216077825 1 rotate no_reflect no_shear #
lump $-1 $-1 $14 $2 #
transform $-1 1 0 0 0 1 0 0 0 1 68.453016754661704 37.994171444350485 13.988979216077825 1 rotate no_reflect no_shear #
lump $-1 $-1 $15 $3 #
transform $-1 1 0 0 0 1 0 0 0 1 68.453016754661704 37.994171444350485 13.988979216077825 1 rotate no_reflect no_shear #
shell $-1 $-1 $-1 $16 $-1 $4 #
shell $-1 $-1 $-1 $17 $-1 $6 #
shell $-1 $-1 $-1 $18 $-1 $8 #
shell $-1 $-1 $-1 $19 $-1 $10 #
face $-1 $20 $21 $12 $-1 $22 forward single #
face $-1 $23 $24 $13 $-1 $25 reversed single #
face $-1 $26 $27 $14 $-1 $28 forward single #
face $-1 $29 $30 $15 $-1 $31 reversed single #
face $-1 $32 $33 $12 $-1 $34 reversed single #
loop $-1 $-1 $35 $16 #
plane-surface $-1 0 0 13.988979216077825 0 0 1 1 0 0 forward_v I I I I #
face $-1 $36 $37 $13 $-1 $38 forward single #
loop $-1 $-1 $39 $17 #
plane-surface $-1 -61.177176486416499 0 1.2498993008152333 0 0 1 1 0 0 forward_v I I I I #
face $-1 $40 $41 $14 $-1 $42 forward single #
loop $-1 $-1 $43 $18 #
plane-surface $-1 41.201382383769278 -152.81323341861011 79.141796109046282 1 0 0 0 0.83867057594974714 -0.54463902268945019 forward_v I I I I #
face $-1 $44 $45 $15 $-1 $46 reversed single #
loop $-1 $47 $48 $19 #
cone-surface $-1 54.827199569215495 -33.455334547048878 8.3202161695668853 0 0.83867057594974714 -0.54463902268945019 1.5 0 0 1 I I 0 1 1.5 forward I I I I #
face $-1 $49 $50 $12 $-1 $51 reversed single #
loop $-1 $-1 $52 $20 #
plane-surface $-1 0 0 -13.988979216077825 0 0 1 1 0 0 forward_v I I I I #
coedge $-1 $53 $54 $55 $56 forward $21 $-1 #
face $-1 $57 $58 $13 $-1 $59 forward single #
loop $-1 $-1 $60 $23 #
plane-surface $-1 -61.177176486416499 0 -3.4084260819879404 0 0 1 1 0 0 forward_v I I I I #
coedge $-1 $61 $62 $63 $64 reversed $24 $-1 #
face $-1 $65 $66 $14 $-1 $67 reversed single #
loop $-1 $-1 $68 $26 #
plane-surface $-1 54.827199569215495 -37.994171444350471 4.5774278182392578 0 -0.83867057594974714 0.54463902268945019 1 0 0 forward_v I I I I #
coedge $-1 $69 $70 $71 $72 reversed $27 $-1 #
face $-1 $73 $74 $15 $-1 $75 forward single #
loop $-1 $76 $77 $29 #
cone-surface $-1 54.827199569215495 -31.343461090222387 6.9487495549581357 0 0.83867057594974714 -0.54463902268945019 0.75 0 0 1 I I -0.70710678118654757 0.70710678118654757 0.75 forward I I I I #
loop $-1 $-1 $78 $19 #
coedge $-1 $48 $48 $79 $80 reversed $30 $-1 #
face $-1 $81 $82 $12 $-1 $83 reversed single #
loop $-1 $-1 $84 $32 #
plane-surface $-1 0 -37.994171444350485 0 0 1 0 0 0 1 forward_v I I I I #
coedge $-1 $85 $86 $87 $88 forward $33 $-1 #
coedge $-1 $89 $35 $90 $91 forward $21 $-1 #
coedge $-1 $35 $89 $92 $93 forward $21 $-1 #
coedge $-1 $94 $95 $35 $56 reversed $96 $-1 #
edge $-1 $97 -37.994171444350485 $98 37.994171444350485 $55 $99 forward 7 unknown #
face $-1 $100 $101 $13 $-1 $102 reversed single #
loop $-1 $-1 $103 $36 #
plane-surface $-1 -53.901336218171295 0 -1.0792633905863536 -1 0 0 0 0 1 forward_v I I I I #
coedge $-1 $104 $105 $106 $107 reversed $37 $-1 #
coedge $-1 $108 $39 $109 $110 reversed $24 $-1 #
coedge $-1 $39 $108 $111 $112 reversed $24 $-1 #
coedge $-1 $113 $103 $39 $64 forward $58 $-1 #
edge $-1 $114 -37.994171444350485 $115 37.994171444350485 $63 $116 forward 7 unknown #
face $-1 $117 $118 $14 $-1 $119 forward single #
loop $-1 $-1 $120 $40 #
plane-surface $-1 0 -37.994171444350485 0 0 1 0 0 0 1 forward_v I I I I #
coedge $-1 $121 $122 $120 $123 reversed $41 $-1 #
coedge $-1 $70 $43 $122 $124 forward $27 $-1 #
coedge $-1 $43 $69 $125 $126 reversed $27 $-1 #
coedge $-1 $127 $120 $43 $72 forward $66 $-1 #
edge $-1 $128 -34.993470236283905 $129 -25.581918838445318 $71 $130 forward 7 unknown #
face $-1 $131 $132 $15 $-1 $133 forward single #
loop $-1 $-1 $134 $44 #
plane-surface $-1 41.201382383769278 -152.81323341861011 79.141796109046282 1 0 0 0 0.83867057594974714 -0.54463902268945019 forward_v I I I I #
loop $-1 $-1 $135 $29 #
coedge $-1 $77 $77 $78 $136 forward $45 $-1 #
coedge $-1 $78 $78 $77 $136 reversed $47 $-1 #
coedge $-1 $79 $79 $48 $80 forward $132 $-1 #
edge $-1 $137 -1.792440980983453e-015 $137 6.2831853071795987 $79 $138 forward 7 unknown #
face $-1 $139 $140 $12 $-1 $141 reversed single #
loop $-1 $-1 $142 $49 #
plane-surface $-1 -68.453016754661704 0 0 1 0 0 0 0 -1 forward_v I I I I #
coedge $-1 $143 $92 $144 $145 forward $50 $-1 #
coedge $-1 $146 $52 $143 $147 forward $33 $-1 #
coedge $-1 $52 $146 $148 $149 forward $33 $-1 #
coedge $-1 $95 $94 $52 $88 reversed $96 $-1 #
edge $-1 $150 -37.994171444350485 $151 37.994171444350485 $87 $152 forward 7 unknown #
coedge $-1 $54 $53 $153 $154 forward $21 $-1 #
coedge $-1 $155 $156 $53 $91 reversed $140 $-1 #
edge $-1 $98 -68.453016754661704 $157 68.453016754661704 $90 $158 forward 7 unknown #
coedge $-1 $84 $159 $54 $93 reversed $50 $-1 #
edge $-1 $160 -68.453016754661704 $97 68.453016754661704 $92 $161 forward 7 unknown #
coedge $-1 $87 $55 $159 $162 forward $96 $-1 #
coedge $-1 $55 $87 $155 $163 reversed $96 $-1 #
loop $-1 $-1 $94 $139 #
vertex $-1 $56 $164 #
vertex $-1 $56 $165 #
straight-curve $-1 68.453016754661704 0 13.988979216077825 0 1 0 I I #
face $-1 $166 $167 $13 $-1 $102 reversed single #
loop $-1 $-1 $168 $57 #
plane-surface $-1 -68.453016754661704 0 0 1 0 0 0 0 -1 forward_v I I I I #
coedge $-1 $63 $106 $169 $170 reversed $58 $-1 #
coedge $-1 $171 $60 $172 $173 reversed $37 $-1 #
coedge $-1 $60 $171 $174 $175 reversed $37 $-1 #
coedge $-1 $103 $113 $60 $107 forward $58 $-1 #
edge $-1 $176 -37.994171444350485 $177 37.994171444350485 $106 $178 forward 7 unknown #
coedge $-1 $62 $61 $179 $180 reversed $24 $-1 #
coedge $-1 $169 $181 $61 $110 forward $182 $-1 #
edge $-1 $183 -37.864428511453454 $114 -23.312747974963045 $109 $184 forward 7 unknown #
coedge $-1 $185 $186 $62 $112 forward $187 $-1 #
edge $-1 $115 23.312747974963045 $188 37.864428511453454 $111 $189 forward 7 unknown #
coedge $-1 $106 $63 $186 $190 reversed $58 $-1 #
vertex $-1 $110 $191 #
vertex $-1 $112 $192 #
straight-curve $-1 -53.901336218171295 0 1.2498993008152333 0 1 0 I I #
face $-1 $193 $194 $14 $-1 $195 reversed single #
loop $-1 $-1 $125 $65 #
plane-surface $-1 0 0 13.988979216077825 0 0 1 1 0 0 forward_v I I I I #
coedge $-1 $71 $196 $68 $123 forward $66 $-1 #
coedge $-1 $197 $68 $198 $199 reversed $41 $-1 #
coedge $-1 $68 $197 $69 $124 reversed $41 $-1 #
edge $-1 $200 -41.039416970053971 $128 -13.787782599161531 $120 $201 forward 7 unknown #
edge $-1 $128 -2.636201369357039e-014 $202 11.221988308318217 $69 $203 forward 7 unknown #
coedge $-1 $204 $205 $70 $126 forward $118 $-1 #
edge $-1 $129 38.41244526495457 $202 44.524378009829455 $125 $206 forward 7 unknown #
coedge $-1 $207 $71 $205 $208 reversed $66 $-1 #
vertex $-1 $123 $209 #
vertex $-1 $126 $210 #
straight-curve $-1 41.201382383769278 -37.994171444350485 39.570898054523141 0 0 1 I I #
face $-1 $211 $212 $15 $-1 $213 reversed single #
loop $-1 $214 $79 $73 #
plane-surface $-1 54.827199569215495 -37.994171444350471 4.5774278182392578 0 -0.83867057594974714 0.54463902268945019 1 0 0 forward_v I I I I #
coedge $-1 $215 $216 $217 $218 reversed $74 $-1 #
coedge $-1 $135 $135 $-1 $219 forward $76 $-1 #
edge $-1 $220 0 $220 6.2831853071796004 $77 $221 forward 7 unknown #
vertex $-1 $80 $222 #
ellipse-curve $-1 54.827199569215495 -34.938205071913039 9.283203517158535 0 0.83867057594974714 -0.54463902268945019 1.5 0 0 1 I I #
face $-1 $-1 $96 $12 $-1 $223 reversed single #
loop $-1 $-1 $155 $81 #
plane-surface $-1 0 37.994171444350485 0 0 -1 0 0 0 -1 forward_v I I I I #
coedge $-1 $224 $153 $156 $225 forward $82 $-1 #
coedge $-1 $159 $84 $85 $147 reversed $50 $-1 #
coedge $-1 $153 $224 $84 $145 reversed $82 $-1 #
edge $-1 $160 -13.988979216077825 $226 13.988979216077825 $144 $227 forward 7 unknown #
coedge $-1 $86 $85 $224 $228 forward $33 $-1 #
edge $-1 $151 -68.453016754661704 $226 68.453016754661704 $143 $229 forward 7 unknown #
coedge $-1 $156 $155 $86 $149 reversed $140 $-1 #
edge $-1 $230 -68.453016754661704 $150 68.453016754661704 $148 $231 forward 7 unknown #
vertex $-1 $88 $232 #
vertex $-1 $162 $233 #
straight-curve $-1 68.453016754661704 0 -13.988979216077825 0 -1 0 I I #
coedge $-1 $142 $144 $89 $154 reversed $82 $-1 #
edge $-1 $157 -37.994171444350485 $160 37.994171444350485 $153 $234 forward 7 unknown #
coedge $-1 $148 $90 $95 $163 forward $140 $-1 #
coedge $-1 $90 $148 $142 $225 reversed $140 $-1 #
vertex $-1 $91 $235 #
straight-curve $-1 0 37.994171444350485 13.988979216077825 -1 0 0 I I #
coedge $-1 $92 $143 $94 $162 reversed $50 $-1 #
vertex $-1 $154 $236 #
straight-curve $-1 0 -37.994171444350485 13.988979216077825 1 0 0 I I #
edge $-1 $97 -13.988979216077825 $151 13.988979216077825 $94 $237 forward 7 unknown #
edge $-1 $98 -13.988979216077825 $150 13.988979216077825 $95 $238 forward 7 unknown #
point $-1 68.453016754661704 -37.994171444350485 13.988979216077825 #
point $-1 68.453016754661704 37.994171444350485 13.988979216077825 #
face $-1 $239 $182 $13 $-1 $240 reversed single #
loop $-1 $-1 $179 $100 #
coedge $-1 $241 $242 $171 $243 forward $101 $-1 #
coedge $-1 $174 $109 $103 $170 forward $182 $-1 #
edge $-1 $114 -1.78953099610841 $177 2.8687943866947636 $169 $244 forward 7 unknown #
coedge $-1 $105 $104 $168 $243 reversed $37 $-1 #
coedge $-1 $186 $245 $104 $173 forward $187 $-1 #
edge $-1 $246 -37.864428511453454 $176 -23.312747974963045 $172 $247 forward 7 unknown #
coedge $-1 $248 $169 $105 $175 forward $182 $-1 #
edge $-1 $177 23.312747974963045 $249 37.864428511453454 $174 $250 forward 7 unknown #
vertex $-1 $173 $251 #
vertex $-1 $175 $252 #
straight-curve $-1 -53.901336218171295 0 -3.4084260819879404 0 -1 0 I I #
coedge $-1 $253 $254 $108 $180 forward $167 $-1 #
edge $-1 $188 -37.994171444350485 $183 37.994171444350485 $179 $255 forward 7 unknown #
coedge $-1 $109 $256 $253 $257 forward $182 $-1 #
loop $-1 $-1 $109 $166 #
vertex $-1 $110 $258 #
straight-curve $-1 -30.58858824320825 -37.994171444350485 1.2498993008152333 1 0 0 I I #
coedge $-1 $259 $111 $254 $260 reversed $187 $-1 #
coedge $-1 $111 $172 $113 $190 forward $187 $-1 #
loop $-1 $-1 $111 $261 #
vertex $-1 $180 $262 #
straight-curve $-1 -30.58858824320825 37.994171444350485 1.2498993008152333 -1 0 0 I I #
edge $-1 $176 -2.8687943866947636 $115 1.78953099610841 $186 $263 forward 7 unknown #
point $-1 -53.901336218171295 -37.994171444350485 1.2498993008152333 #
point $-1 -53.901336218171295 37.994171444350485 1.2498993008152333 #
face $-1 $264 $265 $14 $-1 $266 forward single #
loop $-1 $-1 $267 $117 #
plane-surface $-1 -61.177176486416499 0 1.2498993008152333 0 0 1 1 0 0 forward_v I I I I #
coedge $-1 $120 $268 $269 $270 reversed $66 $-1 #
coedge $-1 $122 $121 $204 $271 reversed $41 $-1 #
coedge $-1 $269 $272 $121 $199 forward $273 $-1 #
edge $-1 $274 -2.7949111189905462 $200 8.4270771893276972 $198 $275 forward 7 unknown #
vertex $-1 $270 $276 #
straight-curve $-1 27.413599784607747 -37.994171444350485 4.5774278182392356 -1 0 0 I I #
vertex $-1 $271 $277 #
straight-curve $-1 41.201382383769278 -37.994171444350471 4.5774278182392578 0 0.54463902268945019 0.83867057594974714 I I #
coedge $-1 $278 $125 $197 $271 forward $118 $-1 #
coedge $-1 $125 $279 $127 $208 forward $118 $-1 #
straight-curve $-1 41.201382383769278 -76.406616709305055 13.988979216077823 0 1 0 I I #
coedge $-1 $280 $127 $281 $282 forward $66 $-1 #
edge $-1 $283 -68.453016754661704 $129 41.201382383769278 $127 $284 forward 7 unknown #
point $-1 41.201382383769278 -37.994171444350485 4.5774278182392356 #
point $-1 41.201382383769278 -37.994171444350485 13.988979216077825 #
face $-1 $285 $286 $15 $-1 $287 forward single #
loop $-1 $-1 $288 $131 #
plane-surface $-1 0 -37.994171444350485 0 0 1 0 0 0 1 forward_v I I I I #
loop $-1 $-1 $289 $73 #
coedge $-1 $216 $134 $290 $291 forward $74 $-1 #
coedge $-1 $134 $215 $292 $293 reversed $74 $-1 #
coedge $-1 $294 $288 $134 $218 forward $212 $-1 #
edge $-1 $295 -34.993470236283905 $296 -25.581918838445318 $217 $297 forward 7 unknown #
edge $-1 $298 1 $298 0 $135 $-1 forward 7 unknown #
vertex $-1 $136 $299 #
ellipse-curve $-1 54.827199569215495 -31.972464022184699 7.3572288219752231 0 -0.83867057594974714 0.54463902268945019 1.5 0 0 1 I I #
point $-1 56.327199569215495 -34.938205071913053 9.2832035171585474 #
plane-surface $-1 68.453016754661704 0 0 -1 0 0 0 0 1 forward_v I I I I #
coedge $-1 $144 $142 $146 $228 reversed $82 $-1 #
edge $-1 $157 -13.988979216077825 $230 13.988979216077825 $156 $300 forward 7 unknown #
vertex $-1 $228 $301 #
straight-curve $-1 -68.453016754661704 -37.994171444350485 0 0 0 -1 I I #
edge $-1 $226 -37.994171444350485 $230 37.994171444350485 $224 $302 forward 7 unknown #
straight-curve $-1 0 -37.994171444350485 -13.988979216077825 -1 0 0 I I #
vertex $-1 $149 $303 #
straight-curve $-1 0 37.994171444350485 -13.988979216077825 1 0 0 I I #
point $-1 68.453016754661704 37.994171444350485 -13.988979216077825 #
point $-1 68.453016754661704 -37.994171444350485 -13.988979216077825 #
straight-curve $-1 -68.453016754661704 0 13.988979216077825 0 -1 0 I I #
point $-1 -68.453016754661704 37.994171444350485 13.988979216077825 #
point $-1 -68.453016754661704 -37.994171444350485 13.988979216077825 #
straight-curve $-1 68.453016754661704 -37.994171444350485 0 0 0 -1 I I #
straight-curve $-1 68.453016754661704 37.994171444350485 0 0 0 -1 I I #
face $-1 $304 $305 $13 $-1 $306 forward single #
plane-surface $-1 0 -37.994171444350485 0 0 1 0 0 0 1 forward_v I I I I #
coedge $-1 $307 $168 $245 $308 forward $101 $-1 #
coedge $-1 $168 $307 $248 $309 reversed $101 $-1 #
edge $-1 $249 -37.994171444350485 $246 37.994171444350485 $168 $310 forward 7 unknown #
straight-curve $-1 -53.901336218171295 -37.994171444350485 -0.53963169529317678 0 0 -1 I I #
coedge $-1 $172 $311 $241 $308 reversed $187 $-1 #
vertex $-1 $308 $312 #
straight-curve $-1 -30.58858824320825 37.994171444350485 -3.4084260819879404 1 0 0 I I #
coedge $-1 $313 $174 $242 $309 forward $182 $-1 #
vertex $-1 $309 $314 #
straight-curve $-1 -30.58858824320825 -37.994171444350485 -3.4084260819879404 -1 0 0 I I #
point $-1 -53.901336218171295 37.994171444350485 -3.4084260819879404 #
point $-1 -53.901336218171295 -37.994171444350485 -3.4084260819879404 #
coedge $-1 $315 $179 $181 $257 reversed $167 $-1 #
coedge $-1 $179 $315 $185 $260 forward $167 $-1 #
straight-curve $-1 -68.453016754661704 0 1.2498993008152333 0 -1 0 I I #
coedge $-1 $181 $316 $317 $318 reversed $182 $-1 #
edge $-1 $319 -13.988979216077825 $183 -1.2498993008152333 $253 $320 forward 7 unknown #
point $-1 -68.453016754661704 -37.994171444350485 1.2498993008152333 #
coedge $-1 $321 $185 $322 $323 reversed $187 $-1 #
edge $-1 $324 -13.988979216077825 $188 -1.2498993008152333 $185 $325 forward 7 unknown #
face $-1 $326 $187 $13 $-1 $327 reversed single #
point $-1 -68.453016754661704 37.994171444350485 1.2498993008152333 #
straight-curve $-1 -53.901336218171295 37.994171444350485 -0.53963169529317678 0 0 1 I I #
face $-1 $328 $329 $14 $-1 $330 forward single #
loop $-1 $-1 $331 $193 #
plane-surface $-1 -61.177176486416499 0 -3.4084260819879404 0 0 1 1 0 0 forward_v I I I I #
coedge $-1 $332 $333 $334 $335 reversed $194 $-1 #
coedge $-1 $196 $336 $337 $338 reversed $66 $-1 #
coedge $-1 $339 $198 $196 $270 forward $273 $-1 #
edge $-1 $200 -4.5774278182392356 $340 13.988979216077825 $269 $341 forward 7 unknown #
edge $-1 $202 13.787782599161531 $274 41.039416970053971 $204 $342 forward 7 unknown #
coedge $-1 $198 $343 $278 $344 reversed $273 $-1 #
loop $-1 $-1 $198 $345 #
vertex $-1 $344 $346 #
straight-curve $-1 68.453016754661704 -33.40445635982649 11.644969498185672 0 -0.54463902268945019 -0.83867057594974714 I I #
point $-1 68.453016754661718 -37.994171444350485 4.5774278182392356 #
point $-1 41.201382383769278 -31.8822386994756 13.988979216077825 #
coedge $-1 $347 $204 $272 $344 forward $118 $-1 #
coedge $-1 $205 $347 $348 $349 forward $118 $-1 #
coedge $-1 $350 $207 $332 $351 forward $66 $-1 #
coedge $-1 $348 $352 $207 $282 reversed $353 $-1 #
edge $-1 $283 -13.988979216077825 $354 -1.2498993008152333 $281 $355 forward 7 unknown #
vertex $-1 $349 $356 #
straight-curve $-1 0 -37.994171444350485 13.988979216077825 1 0 0 I I #
face $-1 $357 $358 $15 $-1 $359 reversed single #
loop $-1 $-1 $292 $211 #
plane-surface $-1 0 0 13.988979216077825 0 0 1 1 0 0 forward_v I I I I #
coedge $-1 $217 $360 $289 $361 forward $212 $-1 #
coedge $-1 $362 $290 $288 $361 reversed $214 $-1 #
coedge $-1 $289 $363 $215 $291 reversed $214 $-1 #
edge $-1 $295 -2.636201369357039e-014 $364 11.221988308318217 $215 $365 forward 7 unknown #
coedge $-1 $366 $367 $216 $293 forward $286 $-1 #
edge $-1 $296 38.41244526495457 $364 44.524378009829455 $292 $368 forward 7 unknown #
coedge $-1 $369 $217 $367 $370 reversed $212 $-1 #
vertex $-1 $361 $371 #
vertex $-1 $293 $372 #
straight-curve $-1 41.201382383769278 -37.994171444350485 39.570898054523141 0 0 1 I I #
vertex $-1 $219 $373 #
point $-1 56.327199569215495 -31.972464022184699 7.3572288219752231 #
straight-curve $-1 -68.453016754661704 37.994171444350485 0 0 0 -1 I I #
point $-1 -68.453016754661704 -37.994171444350485 -13.988979216077825 #
straight-curve $-1 -68.453016754661704 0 -13.988979216077825 0 1 0 I I #
point $-1 -68.453016754661704 37.994171444350485 -13.988979216077825 #
face $-1 $261 $374 $13 $-1 $375 reversed single #
loop $-1 $-1 $376 $239 #
plane-surface $-1 0 0 13.988979216077825 0 0 1 1 0 0 forward_v I I I I #
coedge $-1 $242 $241 $377 $378 reversed $101 $-1 #
edge $-1 $246 3.4084260819879404 $379 13.988979216077825 $245 $325 forward 7 unknown #
edge $-1 $249 3.4084260819879404 $380 13.988979216077825 $242 $320 forward 7 unknown #
straight-curve $-1 -68.453016754661704 0 -3.4084260819879404 0 1 0 I I #
coedge $-1 $245 $321 $381 $382 reversed $187 $-1 #
point $-1 -68.453016754661704 37.994171444350485 -3.4084260819879404 #
coedge $-1 $316 $248 $383 $384 reversed $182 $-1 #
point $-1 -68.453016754661704 -37.994171444350485 -3.4084260819879404 #
coedge $-1 $254 $253 $385 $386 reversed $167 $-1 #
coedge $-1 $256 $313 $387 $388 reversed $182 $-1 #
coedge $-1 $376 $385 $256 $318 forward $305 $-1 #
edge $-1 $319 -68.453016754661704 $389 68.453016754661704 $256 $390 forward 7 unknown #
vertex $-1 $386 $391 #
straight-curve $-1 -68.453016754661704 -37.994171444350485 0 0 0 -1 I I #
coedge $-1 $311 $259 $392 $393 forward $187 $-1 #
coedge $-1 $385 $376 $259 $323 forward $305 $-1 #
edge $-1 $394 -68.453016754661704 $324 68.453016754661704 $259 $395 forward 7 unknown #
vertex $-1 $323 $396 #
straight-curve $-1 -68.453016754661704 37.994171444350485 0 0 0 -1 I I #
face $-1 $-1 $397 $13 $-1 $398 reversed single #
plane-surface $-1 0 37.994171444350485 0 0 -1 0 0 0 -1 forward_v I I I I #
face $-1 $399 $400 $14 $-1 $401 reversed single #
loop $-1 $-1 $402 $264 #
plane-surface $-1 -53.901336218171295 0 -1.0792633905863536 -1 0 0 0 0 1 forward_v I I I I #
coedge $-1 $403 $404 $405 $406 reversed $265 $-1 #
coedge $-1 $407 $267 $280 $351 reversed $194 $-1 #
coedge $-1 $267 $407 $408 $409 reversed $194 $-1 #
coedge $-1 $410 $402 $267 $335 forward $329 $-1 #
edge $-1 $411 -37.994171444350485 $412 37.994171444350485 $334 $413 forward 7 unknown #
coedge $-1 $268 $414 $415 $416 forward $66 $-1 #
coedge $-1 $417 $418 $268 $338 forward $419 $-1 #
edge $-1 $340 -68.453016754661704 $420 68.453016754661704 $268 $421 forward 7 unknown #
coedge $-1 $343 $269 $418 $422 reversed $273 $-1 #
vertex $-1 $270 $423 #
straight-curve $-1 68.453016754661704 -37.994171444350485 0 0 0 -1 I I #
straight-curve $-1 27.413599784607747 -31.882238699475597 13.988979216077825 1 0 0 I I #
coedge $-1 $272 $339 $424 $425 reversed $273 $-1 #
edge $-1 $274 -31.8822386994756 $426 37.994171444350485 $272 $427 forward 7 unknown #
face $-1 $-1 $273 $14 $-1 $428 reversed single #
point $-1 68.453016754661718 -31.8822386994756 13.988979216077825 #
coedge $-1 $279 $278 $429 $430 forward $118 $-1 #
coedge $-1 $431 $281 $279 $349 reversed $353 $-1 #
edge $-1 $432 -37.994171444350485 $283 37.994171444350485 $348 $433 forward 7 unknown #
coedge $-1 $414 $280 $402 $434 forward $66 $-1 #
edge $-1 $354 -37.864428511453454 $411 -23.312747974963045 $280 $435 forward 7 unknown #
coedge $-1 $281 $431 $407 $436 forward $353 $-1 #
loop $-1 $-1 $352 $399 #
vertex $-1 $351 $437 #
straight-curve $-1 -68.453016754661704 -37.994171444350485 0 0 0 -1 I I #
point $-1 -68.453016754661704 -37.994171444350485 13.988979216077825 #
face $-1 $438 $439 $15 $-1 $440 forward single #
loop $-1 $-1 $441 $285 #
plane-surface $-1 -61.177176486416499 0 1.2498993008152333 0 0 1 1 0 0 forward_v I I I I #
coedge $-1 $288 $442 $443 $444 reversed $212 $-1 #
edge $-1 $445 -41.039416970053971 $295 -13.787782599161531 $288 $446 forward 7 unknown #
coedge $-1 $363 $289 $447 $448 reversed $214 $-1 #
coedge $-1 $290 $362 $366 $449 reversed $214 $-1 #
vertex $-1 $449 $450 #
straight-curve $-1 41.201382383769278 -37.994171444350471 4.5774278182392578 0 0.54463902268945019 0.83867057594974714 I I #
coedge $-1 $451 $292 $363 $449 forward $286 $-1 #
coedge $-1 $292 $452 $294 $370 forward $286 $-1 #
straight-curve $-1 41.201382383769278 -76.406616709305055 13.988979216077823 0 1 0 I I #
coedge $-1 $453 $294 $454 $455 forward $212 $-1 #
edge $-1 $456 -68.453016754661704 $296 41.201382383769278 $294 $457 forward 7 unknown #
point $-1 41.201382383769278 -37.994171444350485 4.5774278182392356 #
point $-1 41.201382383769278 -37.994171444350485 13.988979216077825 #
point $-1 54.827199569215495 -30.714458158260076 6.5402702879410484 #
loop $-1 $-1 $458 $304 #
plane-surface $-1 0 0 -13.988979216077825 0 0 1 1 0 0 forward_v I I I I #
coedge $-1 $322 $317 $459 $460 forward $305 $-1 #
coedge $-1 $381 $383 $307 $378 forward $374 $-1 #
edge $-1 $380 -37.994171444350485 $379 37.994171444350485 $307 $461 forward 7 unknown #
vertex $-1 $382 $462 #
vertex $-1 $378 $463 #
coedge $-1 $458 $377 $311 $382 forward $374 $-1 #
edge $-1 $379 -68.453016754661704 $464 68.453016754661704 $311 $465 forward 7 unknown #
coedge $-1 $377 $458 $313 $384 forward $374 $-1 #
edge $-1 $466 -68.453016754661704 $380 68.453016754661704 $313 $467 forward 7 unknown #
coedge $-1 $317 $322 $315 $386 forward $305 $-1 #
edge $-1 $324 -37.994171444350485 $319 37.994171444350485 $315 $468 forward 7 unknown #
coedge $-1 $469 $459 $316 $388 forward $397 $-1 #
edge $-1 $389 -13.988979216077825 $466 13.988979216077825 $387 $470 forward 7 unknown #
vertex $-1 $460 $471 #
straight-curve $-1 0 -37.994171444350485 13.988979216077825 1 0 0 I I #
point $-1 -68.453016754661704 -37.994171444350485 13.988979216077825 #
coedge $-1 $459 $469 $321 $393 reversed $397 $-1 #
edge $-1 $394 -13.988979216077825 $464 13.988979216077825 $392 $472 forward 7 unknown #
vertex $-1 $460 $473 #
straight-curve $-1 0 37.994171444350485 13.988979216077825 -1 0 0 I I #
point $-1 -68.453016754661704 37.994171444350485 13.988979216077825 #
loop $-1 $-1 $387 $326 #
plane-surface $-1 68.453016754661704 0 0 -1 0 0 0 0 1 forward_v I I I I #
face $-1 $474 $353 $14 $-1 $401 reversed single #
loop $-1 $-1 $475 $328 #
plane-surface $-1 -68.453016754661704 0 0 1 0 0 0 0 -1 forward_v I I I I #
coedge $-1 $334 $405 $350 $434 reversed $329 $-1 #
coedge $-1 $476 $331 $477 $478 reversed $265 $-1 #
coedge $-1 $331 $476 $414 $479 reversed $265 $-1 #
coedge $-1 $402 $410 $331 $406 forward $329 $-1 #
edge $-1 $480 -37.994171444350485 $481 37.994171444350485 $405 $482 forward 7 unknown #
coedge $-1 $333 $332 $352 $436 reversed $194 $-1 #
coedge $-1 $483 $484 $333 $409 forward $485 $-1 #
edge $-1 $412 23.312747974963045 $486 37.864428511453454 $408 $487 forward 7 unknown #
coedge $-1 $405 $334 $484 $488 reversed $329 $-1 #
vertex $-1 $351 $489 #
vertex $-1 $409 $490 #
straight-curve $-1 -53.901336218171295 0 1.2498993008152333 0 1 0 I I #
coedge $-1 $336 $350 $404 $479 forward $66 $-1 #
coedge $-1 $475 $491 $336 $416 reversed $400 $-1 #
edge $-1 $492 3.4084260819879404 $420 13.988979216077825 $415 $355 forward 7 unknown #
coedge $-1 $493 $337 $491 $494 forward $419 $-1 #
coedge $-1 $337 $493 $339 $422 forward $419 $-1 #
loop $-1 $-1 $418 $474 #
vertex $-1 $494 $495 #
straight-curve $-1 0 -37.994171444350485 -13.988979216077825 -1 0 0 I I #
edge $-1 $496 -37.994171444350485 $340 37.994171444350485 $339 $497 forward 7 unknown #
point $-1 68.453016754661704 -37.994171444350485 -13.988979216077825 #
coedge $-1 $498 $429 $343 $425 forward $485 $-1 #
edge $-1 $426 -13.988979216077825 $496 13.988979216077825 $343 $499 forward 7 unknown #
vertex $-1 $344 $500 #
straight-curve $-1 68.453016754661704 0 13.988979216077825 0 1 0 I I #
plane-surface $-1 68.453016754661704 0 0 -1 0 0 0 0 1 forward_v I I I I #
coedge $-1 $424 $483 $347 $430 reversed $485 $-1 #
edge $-1 $426 -68.453016754661704 $432 68.453016754661704 $429 $501 forward 7 unknown #
coedge $-1 $352 $348 $483 $502 forward $353 $-1 #
vertex $-1 $430 $503 #
straight-curve $-1 -68.453016754661704 0 13.988979216077825 0 -1 0 I I #
edge $-1 $411 -1.78953099610841 $481 2.8687943866947636 $350 $504 forward 7 unknown #
straight-curve $-1 -30.58858824320825 -37.994171444350485 1.2498993008152333 1 0 0 I I #
edge $-1 $486 -37.994171444350485 $354 37.994171444350485 $352 $505 forward 7 unknown #
point $-1 -68.453016754661704 -37.994171444350485 1.2498993008152333 #
face $-1 $506 $507 $15 $-1 $508 forward single #
loop $-1 $-1 $509 $357 #
plane-surface $-1 -61.177176486416499 0 -3.4084260819879404 0 0 1 1 0 0 forward_v I I I I #
coedge $-1 $510 $511 $512 $513 reversed $358 $-1 #
coedge $-1 $360 $514 $515 $516 reversed $212 $-1 #
coedge $-1 $517 $447 $360 $444 forward $518 $-1 #
edge $-1 $445 -4.5774278182392356 $519 13.988979216077825 $443 $520 forward 7 unknown #
vertex $-1 $444 $521 #
straight-curve $-1 27.413599784607747 -37.994171444350485 4.5774278182392356 -1 0 0 I I #
coedge $-1 $443 $522 $362 $448 forward $518 $-1 #
edge $-1 $523 -2.7949111189905462 $445 8.4270771893276972 $447 $524 forward 7 unknown #
edge $-1 $364 13.787782599161531 $523 41.039416970053971 $366 $525 forward 7 unknown #
point $-1 41.201382383769278 -31.8822386994756 13.988979216077825 #
coedge $-1 $526 $366 $522 $527 forward $286 $-1 #
coedge $-1 $367 $526 $528 $529 forward $286 $-1 #
coedge $-1 $530 $369 $510 $531 forward $212 $-1 #
coedge $-1 $528 $532 $369 $455 reversed $533 $-1 #
edge $-1 $456 -13.988979216077825 $534 -1.2498993008152333 $454 $535 forward 7 unknown #
vertex $-1 $529 $536 #
straight-curve $-1 0 -37.994171444350485 13.988979216077825 1 0 0 I I #
coedge $-1 $383 $381 $469 $537 forward $374 $-1 #
coedge $-1 $387 $392 $376 $460 reversed $397 $-1 #
edge $-1 $389 -37.994171444350485 $394 37.994171444350485 $459 $538 forward 7 unknown #
straight-curve $-1 -68.453016754661704 0 -13.988979216077825 0 1 0 I I #
point $-1 -68.453016754661704 37.994171444350485 -13.988979216077825 #
point $-1 -68.453016754661704 -37.994171444350485 -13.988979216077825 #
vertex $-1 $537 $539 #
straight-curve $-1 0 37.994171444350485 -13.988979216077825 1 0 0 I I #
vertex $-1 $388 $540 #
straight-curve $-1 0 -37.994171444350485 -13.988979216077825 -1 0 0 I I #
straight-curve $-1 -68.453016754661704 0 13.988979216077825 0 -1 0 I I #
coedge $-1 $392 $387 $458 $537 reversed $397 $-1 #
straight-curve $-1 68.453016754661704 -37.994171444350485 0 0 0 -1 I I #
point $-1 68.453016754661704 -37.994171444350485 13.988979216077825 #
straight-curve $-1 68.453016754661704 37.994171444350485 0 0 0 -1 I I #
point $-1 68.453016754661704 37.994171444350485 13.988979216077825 #
face $-1 $541 $419 $14 $-1 $542 reversed single #
coedge $-1 $543 $415 $476 $544 forward $400 $-1 #
coedge $-1 $404 $403 $475 $544 reversed $265 $-1 #
coedge $-1 $484 $545 $403 $478 forward $485 $-1 #
edge $-1 $546 -37.864428511453454 $480 -23.312747974963045 $477 $547 forward 7 unknown #
edge $-1 $481 23.312747974963045 $492 37.864428511453454 $414 $548 forward 7 unknown #
vertex $-1 $478 $549 #
vertex $-1 $479 $550 #
straight-curve $-1 -53.901336218171295 0 -3.4084260819879404 0 -1 0 I I #
coedge $-1 $429 $408 $431 $502 reversed $485 $-1 #
coedge $-1 $408 $477 $410 $488 forward $485 $-1 #
loop $-1 $-1 $408 $541 #
vertex $-1 $436 $551 #
straight-curve $-1 -30.58858824320825 37.994171444350485 1.2498993008152333 -1 0 0 I I #
edge $-1 $480 -2.8687943866947636 $412 1.78953099610841 $484 $552 forward 7 unknown #
point $-1 -53.901336218171295 -37.994171444350485 1.2498993008152333 #
point $-1 -53.901336218171295 37.994171444350485 1.2498993008152333 #
coedge $-1 $415 $543 $417 $494 reversed $400 $-1 #
vertex $-1 $416 $553 #
coedge $-1 $418 $417 $498 $554 forward $419 $-1 #
edge $-1 $420 -37.994171444350485 $555 37.994171444350485 $491 $556 forward 7 unknown #
point $-1 -68.453016754661704 -37.994171444350485 -13.988979216077825 #
vertex $-1 $422 $557 #
straight-curve $-1 68.453016754661704 0 -13.988979216077825 0 -1 0 I I #
coedge $-1 $545 $424 $493 $554 reversed $485 $-1 #
straight-curve $-1 68.453016754661704 37.994171444350485 0 0 0 -1 I I #
point $-1 68.453016754661704 37.994171444350485 13.988979216077825 #
straight-curve $-1 0 37.994171444350485 13.988979216077825 -1 0 0 I I #
edge $-1 $432 -13.988979216077825 $486 -1.2498993008152333 $483 $558 forward 7 unknown #
point $-1 -68.453016754661704 37.994171444350485 13.988979216077825 #
straight-curve $-1 -53.901336218171295 -37.994171444350485 -0.53963169529317678 0 0 -1 I I #
straight-curve $-1 -68.453016754661704 0 1.2498993008152333 0 -1 0 I I #
face $-1 $559 $560 $15 $-1 $561 reversed single #
loop $-1 $-1 $562 $438 #
plane-surface $-1 -53.901336218171295 0 -1.0792633905863536 -1 0 0 0 0 1 forward_v I I I I #
coedge $-1 $563 $564 $565 $566 reversed $439 $-1 #
coedge $-1 $567 $441 $453 $531 reversed $358 $-1 #
coedge $-1 $441 $567 $568 $569 reversed $358 $-1 #
coedge $-1 $570 $562 $441 $513 forward $507 $-1 #
edge $-1 $571 -37.994171444350485 $572 37.994171444350485 $512 $573 forward 7 unknown #
coedge $-1 $442 $574 $575 $576 forward $212 $-1 #
coedge $-1 $577 $578 $442 $516 forward $579 $-1 #
edge $-1 $519 -68.453016754661704 $580 68.453016754661704 $442 $581 forward 7 unknown #
coedge $-1 $582 $443 $578 $583 reversed $518 $-1 #
loop $-1 $-1 $447 $584 #
vertex $-1 $444 $585 #
straight-curve $-1 68.453016754661704 -37.994171444350485 0 0 0 -1 I I #
point $-1 68.453016754661718 -37.994171444350485 4.5774278182392356 #
coedge $-1 $447 $582 $451 $527 reversed $518 $-1 #
vertex $-1 $527 $586 #
straight-curve $-1 68.453016754661704 -33.40445635982649 11.644969498185672 0 -0.54463902268945019 -0.83867057594974714 I I #
straight-curve $-1 27.413599784607747 -31.882238699475597 13.988979216077825 1 0 0 I I #
coedge $-1 $452 $451 $587 $588 forward $286 $-1 #
edge $-1 $523 -31.8822386994756 $589 37.994171444350485 $522 $590 forward 7 unknown #
coedge $-1 $591 $454 $452 $529 reversed $533 $-1 #
edge $-1 $592 -37.994171444350485 $456 37.994171444350485 $528 $593 forward 7 unknown #
coedge $-1 $574 $453 $562 $594 forward $212 $-1 #
edge $-1 $534 -37.864428511453454 $571 -23.312747974963045 $453 $595 forward 7 unknown #
coedge $-1 $454 $591 $567 $596 forward $533 $-1 #
loop $-1 $-1 $532 $559 #
vertex $-1 $531 $597 #
straight-curve $-1 -68.453016754661704 -37.994171444350485 0 0 0 -1 I I #
point $-1 -68.453016754661704 -37.994171444350485 13.988979216077825 #
edge $-1 $464 -37.994171444350485 $466 37.994171444350485 $469 $598 forward 7 unknown #
straight-curve $-1 68.453016754661704 0 13.988979216077825 0 1 0 I I #
point $-1 68.453016754661704 37.994171444350485 -13.988979216077825 #
point $-1 68.453016754661704 -37.994171444350485 -13.988979216077825 #
face $-1 $345 $485 $14 $-1 $599 reversed single #
plane-surface $-1 0 0 -13.988979216077825 0 0 1 1 0 0 forward_v I I I I #
coedge $-1 $491 $475 $545 $600 forward $400 $-1 #
edge $-1 $492 -37.994171444350485 $546 37.994171444350485 $475 $601 forward 7 unknown #
coedge $-1 $477 $498 $543 $600 reversed $485 $-1 #
vertex $-1 $600 $602 #
straight-curve $-1 -30.58858824320825 37.994171444350485 -3.4084260819879404 1 0 0 I I #
straight-curve $-1 -30.58858824320825 -37.994171444350485 -3.4084260819879404 -1 0 0 I I #
point $-1 -53.901336218171295 37.994171444350485 -3.4084260819879404 #
point $-1 -53.901336218171295 -37.994171444350485 -3.4084260819879404 #
point $-1 -68.453016754661704 37.994171444350485 1.2498993008152333 #
straight-curve $-1 -53.901336218171295 37.994171444350485 -0.53963169529317678 0 0 1 I I #
point $-1 -68.453016754661704 -37.994171444350485 -3.4084260819879404 #
edge $-1 $555 -68.453016754661704 $496 68.453016754661704 $498 $603 forward 7 unknown #
vertex $-1 $554 $604 #
straight-curve $-1 -68.453016754661704 0 -13.988979216077825 0 1 0 I I #
point $-1 68.453016754661704 37.994171444350485 -13.988979216077825 #
straight-curve $-1 -68.453016754661704 37.994171444350485 0 0 0 -1 I I #
face $-1 $605 $533 $15 $-1 $561 reversed single #
loop $-1 $-1 $606 $506 #
plane-surface $-1 -68.453016754661704 0 0 1 0 0 0 0 -1 forward_v I I I I #
coedge $-1 $512 $565 $530 $594 reversed $507 $-1 #
coedge $-1 $607 $509 $608 $609 reversed $439 $-1 #
coedge $-1 $509 $607 $574 $610 reversed $439 $-1 #
coedge $-1 $562 $570 $509 $566 forward $507 $-1 #
edge $-1 $611 -37.994171444350485 $612 37.994171444350485 $565 $613 forward 7 unknown #
coedge $-1 $511 $510 $532 $596 reversed $358 $-1 #
coedge $-1 $614 $615 $511 $569 forward $616 $-1 #
edge $-1 $572 23.312747974963045 $617 37.864428511453454 $568 $618 forward 7 unknown #
coedge $-1 $565 $512 $615 $619 reversed $507 $-1 #
vertex $-1 $531 $620 #
vertex $-1 $569 $621 #
straight-curve $-1 -53.901336218171295 0 1.2498993008152333 0 1 0 I I #
coedge $-1 $514 $530 $564 $610 forward $212 $-1 #
coedge $-1 $606 $622 $514 $576 reversed $560 $-1 #
edge $-1 $623 3.4084260819879404 $580 13.988979216077825 $575 $535 forward 7 unknown #
coedge $-1 $624 $515 $622 $625 forward $579 $-1 #
coedge $-1 $515 $624 $517 $583 forward $579 $-1 #
loop $-1 $-1 $578 $605 #
vertex $-1 $625 $626 #
straight-curve $-1 0 -37.994171444350485 -13.988979216077825 -1 0 0 I I #
coedge $-1 $522 $517 $627 $628 reversed $518 $-1 #
edge $-1 $629 -37.994171444350485 $519 37.994171444350485 $517 $630 forward 7 unknown #
face $-1 $-1 $518 $15 $-1 $631 reversed single #
point $-1 68.453016754661704 -37.994171444350485 -13.988979216077825 #
point $-1 68.453016754661718 -31.8822386994756 13.988979216077825 #
coedge $-1 $627 $614 $526 $588 reversed $616 $-1 #
edge $-1 $589 -68.453016754661704 $592 68.453016754661704 $587 $632 forward 7 unknown #
vertex $-1 $527 $633 #
straight-curve $-1 68.453016754661704 0 13.988979216077825 0 1 0 I I #
coedge $-1 $532 $528 $614 $634 forward $533 $-1 #
vertex $-1 $588 $635 #
straight-curve $-1 -68.453016754661704 0 13.988979216077825 0 -1 0 I I #
edge $-1 $571 -1.78953099610841 $612 2.8687943866947636 $530 $636 forward 7 unknown #
straight-curve $-1 -30.58858824320825 -37.994171444350485 1.2498993008152333 1 0 0 I I #
edge $-1 $617 -37.994171444350485 $534 37.994171444350485 $532 $637 forward 7 unknown #
point $-1 -68.453016754661704 -37.994171444350485 1.2498993008152333 #
straight-curve $-1 68.453016754661704 0 -13.988979216077825 0 -1 0 I I #
plane-surface $-1 0 37.994171444350485 0 0 -1 0 0 0 -1 forward_v I I I I #
edge $-1 $546 3.4084260819879404 $555 13.988979216077825 $545 $558 forward 7 unknown #
straight-curve $-1 -68.453016754661704 0 -3.4084260819879404 0 1 0 I I #
point $-1 -68.453016754661704 37.994171444350485 -3.4084260819879404 #
straight-curve $-1 0 37.994171444350485 -13.988979216077825 1 0 0 I I #
point $-1 -68.453016754661704 37.994171444350485 -13.988979216077825 #
face $-1 $638 $579 $15 $-1 $639 reversed single #
coedge $-1 $640 $575 $607 $641 forward $560 $-1 #
coedge $-1 $564 $563 $606 $641 reversed $439 $-1 #
coedge $-1 $615 $642 $563 $609 forward $616 $-1 #
edge $-1 $643 -37.864428511453454 $611 -23.312747974963045 $608 $644 forward 7 unknown #
edge $-1 $612 23.312747974963045 $623 37.864428511453454 $574 $645 forward 7 unknown #
vertex $-1 $609 $646 #
vertex $-1 $610 $647 #
straight-curve $-1 -53.901336218171295 0 -3.4084260819879404 0 -1 0 I I #
coedge $-1 $587 $568 $591 $634 reversed $616 $-1 #
coedge $-1 $568 $608 $570 $619 forward $616 $-1 #
loop $-1 $-1 $568 $638 #
vertex $-1 $596 $648 #
straight-curve $-1 -30.58858824320825 37.994171444350485 1.2498993008152333 -1 0 0 I I #
edge $-1 $611 -2.8687943866947636 $572 1.78953099610841 $615 $649 forward 7 unknown #
point $-1 -53.901336218171295 -37.994171444350485 1.2498993008152333 #
point $-1 -53.901336218171295 37.994171444350485 1.2498993008152333 #
coedge $-1 $575 $640 $577 $625 reversed $560 $-1 #
vertex $-1 $576 $650 #
coedge $-1 $578 $577 $651 $652 forward $579 $-1 #
edge $-1 $580 -37.994171444350485 $653 37.994171444350485 $622 $654 forward 7 unknown #
point $-1 -68.453016754661704 -37.994171444350485 -13.988979216077825 #
coedge $-1 $651 $587 $582 $628 forward $616 $-1 #
edge $-1 $589 -13.988979216077825 $629 13.988979216077825 $582 $655 forward 7 unknown #
vertex $-1 $583 $656 #
straight-curve $-1 68.453016754661704 0 -13.988979216077825 0 -1 0 I I #
plane-surface $-1 68.453016754661704 0 0 -1 0 0 0 0 1 forward_v I I I I #
straight-curve $-1 0 37.994171444350485 13.988979216077825 -1 0 0 I I #
point $-1 68.453016754661704 37.994171444350485 13.988979216077825 #
edge $-1 $592 -13.988979216077825 $617 -1.2498993008152333 $614 $657 forward 7 unknown #
point $-1 -68.453016754661704 37.994171444350485 13.988979216077825 #
straight-curve $-1 -53.901336218171295 -37.994171444350485 -0.53963169529317678 0 0 -1 I I #
straight-curve $-1 -68.453016754661704 0 1.2498993008152333 0 -1 0 I I #
face $-1 $584 $616 $15 $-1 $658 reversed single #
plane-surface $-1 0 0 -13.988979216077825 0 0 1 1 0 0 forward_v I I I I #
coedge $-1 $622 $606 $642 $659 forward $560 $-1 #
edge $-1 $623 -37.994171444350485 $643 37.994171444350485 $606 $660 forward 7 unknown #
coedge $-1 $608 $651 $640 $659 reversed $616 $-1 #
vertex $-1 $659 $661 #
straight-curve $-1 -30.58858824320825 37.994171444350485 -3.4084260819879404 1 0 0 I I #
straight-curve $-1 -30.58858824320825 -37.994171444350485 -3.4084260819879404 -1 0 0 I I #
point $-1 -53.901336218171295 37.994171444350485 -3.4084260819879404 #
point $-1 -53.901336218171295 -37.994171444350485 -3.4084260819879404 #
point $-1 -68.453016754661704 37.994171444350485 1.2498993008152333 #
straight-curve $-1 -53.901336218171295 37.994171444350485 -0.53963169529317678 0 0 1 I I #
point $-1 -68.453016754661704 -37.994171444350485 -3.4084260819879404 #
coedge $-1 $642 $627 $624 $652 reversed $616 $-1 #
edge $-1 $653 -68.453016754661704 $629 68.453016754661704 $651 $662 forward 7 unknown #
vertex $-1 $652 $663 #
straight-curve $-1 -68.453016754661704 0 -13.988979216077825 0 1 0 I I #
straight-curve $-1 68.453016754661704 37.994171444350485 0 0 0 -1 I I #
point $-1 68.453016754661704 37.994171444350485 -13.988979216077825 #
straight-curve $-1 -68.453016754661704 37.994171444350485 0 0 0 -1 I I #
plane-surface $-1 0 37.994171444350485 0 0 -1 0 0 0 -1 forward_v I I I I #
edge $-1 $643 3.4084260819879404 $653 13.988979216077825 $642 $657 forward 7 unknown #
straight-curve $-1 -68.453016754661704 0 -3.4084260819879404 0 1 0 I I #
point $-1 -68.453016754661704 37.994171444350485 -3.4084260819879404 #
straight-curve $-1 0 37.994171444350485 -13.988979216077825 1 0 0 I I #
point $-1 -68.453016754661704 37.994171444350485 -13.988979216077825 #
End-of-ACIS-data 