500 0 17 0           
7 Unknown 11 ACIS 5.0 NT 24 Thu Mar 25 23:27:54 1999 
-1 9.9999999999999995e-007 1e-010 
body $-1 $17 $-1 $18 #
body $-1 $19 $-1 $20 #
body $-1 $21 $-1 $22 #
body $-1 $23 $-1 $24 #
body $-1 $25 $-1 $26 #
body $-1 $27 $-1 $28 #
body $-1 $29 $-1 $30 #
body $-1 $31 $-1 $32 #
body $-1 $33 $-1 $34 #
body $-1 $35 $-1 $36 #
body $-1 $37 $-1 $38 #
body $-1 $39 $-1 $40 #
body $-1 $41 $-1 $42 #
body $-1 $43 $-1 $44 #
body $-1 $45 $-1 $46 #
body $-1 $47 $-1 $48 #
body $-1 $49 $-1 $50 #
lump $-1 $-1 $51 $0 #
transform $-1 1 0 0 0 1 0 0 0 1 62.066103091525008 38.862203555656606 12.617792632463134 1 rotate no_reflect no_shear #
lump $-1 $-1 $52 $1 #
transform $-1 1 0 0 0 1 0 0 0 1 62.066103091525008 38.862203555656606 12.617792632463134 1 rotate no_reflect no_shear #
lump $-1 $-1 $53 $2 #
transform $-1 1 0 0 0 1 0 0 0 1 62.066103091525008 38.862203555656606 12.617792632463134 1 rotate no_reflect no_shear #
lump $-1 $-1 $54 $3 #
transform $-1 1 0 0 0 1 0 0 0 1 62.066103091525008 38.862203555656606 12.617792632463134 1 rotate no_reflect no_shear #
lump $-1 $-1 $55 $4 #
transform $-1 1 0 0 0 1 0 0 0 1 62.066103091525008 38.862203555656606 12.617792632463134 1 rotate no_reflect no_shear #
lump $-1 $-1 $56 $5 #
transform $-1 1 0 0 0 1 0 0 0 1 62.066103091525008 38.862203555656606 12.617792632463134 1 rotate no_reflect no_shear #
lump $-1 $-1 $57 $6 #
transform $-1 1 0 0 0 1 0 0 0 1 62.066103091525008 38.862203555656606 12.617792632463134 1 rotate no_reflect no_shear #
lump $-1 $-1 $58 $7 #
transform $-1 1 0 0 0 1 0 0 0 1 62.066103091525008 38.862203555656606 12.617792632463134 1 rotate no_reflect no_shear #
lump $-1 $-1 $59 $8 #
transform $-1 1 0 0 0 1 0 0 0 1 62.066103091525008 38.862203555656606 12.617792632463134 1 rotate no_reflect no_shear #
lump $-1 $-1 $60 $9 #
transform $-1 1 0 0 0 1 0 0 0 1 62.066103091525008 38.862203555656606 12.617792632463134 1 rotate no_reflect no_shear #
lump $-1 $-1 $61 $10 #
transform $-1 1 0 0 0 1 0 0 0 1 62.066103091525008 38.862203555656606 12.617792632463134 1 rotate no_reflect no_shear #
lump $-1 $-1 $62 $11 #
transform $-1 1 0 0 0 1 0 0 0 1 62.066103091525008 38.862203555656606 12.617792632463134 1 rotate no_reflect no_shear #
lump $-1 $-1 $63 $12 #
transform $-1 1 0 0 0 1 0 0 0 1 62.066103091525008 38.862203555656606 12.617792632463134 1 rotate no_reflect no_shear #
lump $-1 $-1 $64 $13 #
transform $-1 1 0 0 0 1 0 0 0 1 62.066103091525008 38.862203555656606 12.617792632463134 1 rotate no_reflect no_shear #
lump $-1 $-1 $65 $14 #
transform $-1 1 0 0 0 1 0 0 0 1 62.066103091525008 38.862203555656606 12.617792632463134 1 rotate no_reflect no_shear #
lump $-1 $-1 $66 $15 #
transform $-1 1 0 0 0 1 0 0 0 1 62.066103091525008 38.862203555656606 12.617792632463134 1 rotate no_reflect no_shear #
lump $-1 $-1 $67 $16 #
transform $-1 1 0 0 0 1 0 0 0 1 62.066103091525008 38.862203555656606 12.617792632463134 1 rotate no_reflect no_shear #
shell $-1 $-1 $-1 $68 $-1 $17 #
shell $-1 $-1 $-1 $69 $-1 $19 #
shell $-1 $-1 $-1 $70 $-1 $21 #
shell $-1 $-1 $-1 $71 $-1 $23 #
shell $-1 $-1 $-1 $72 $-1 $25 #
shell $-1 $-1 $-1 $73 $-1 $27 #
shell $-1 $-1 $-1 $74 $-1 $29 #
shell $-1 $-1 $-1 $75 $-1 $31 #
shell $-1 $-1 $-1 $76 $-1 $33 #
shell $-1 $-1 $-1 $77 $-1 $35 #
shell $-1 $-1 $-1 $78 $-1 $37 #
shell $-1 $-1 $-1 $79 $-1 $39 #
shell $-1 $-1 $-1 $80 $-1 $41 #
shell $-1 $-1 $-1 $81 $-1 $43 #
shell $-1 $-1 $-1 $82 $-1 $45 #
shell $-1 $-1 $-1 $83 $-1 $47 #
shell $-1 $-1 $-1 $84 $-1 $49 #
face $-1 $85 $86 $51 $-1 $87 forward single #
face $-1 $88 $89 $52 $-1 $90 reversed single #
face $-1 $91 $92 $53 $-1 $93 reversed single #
face $-1 $94 $95 $54 $-1 $96 forward single #
face $-1 $97 $98 $55 $-1 $99 forward single #
face $-1 $100 $101 $56 $-1 $102 reversed single #
face $-1 $103 $104 $57 $-1 $105 forward single #
face $-1 $106 $107 $58 $-1 $108 forward single #
face $-1 $109 $110 $59 $-1 $111 reversed single #
face $-1 $112 $113 $60 $-1 $114 forward single #
face $-1 $115 $116 $61 $-1 $117 forward single #
face $-1 $118 $119 $62 $-1 $120 reversed single #
face $-1 $121 $122 $63 $-1 $123 forward single #
face $-1 $124 $125 $64 $-1 $126 forward single #
face $-1 $127 $128 $65 $-1 $129 reversed single #
face $-1 $130 $131 $66 $-1 $132 forward single #
face $-1 $133 $134 $67 $-1 $135 forward single #
face $-1 $136 $137 $51 $-1 $138 reversed single #
loop $-1 $-1 $139 $68 #
plane-surface $-1 0 0 12.617792632463134 0 0 1 1 0 0 forward_v I I I I #
face $-1 $140 $141 $52 $-1 $142 reversed single #
loop $-1 $-1 $143 $69 #
plane-surface $-1 -43.19476010951859 -30.778190563462154 0 1 0 0 0 0 -1 forward_v I I I I #
face $-1 $144 $145 $53 $-1 $146 reversed single #
loop $-1 $-1 $147 $70 #
plane-surface $-1 95.562519679835077 -7.305082289536621 180.76018950799084 0 -1 0 -0.82903758062907751 0 -0.55919289150049634 forward_v I I I I #
face $-1 $148 $149 $54 $-1 $150 forward single #
loop $-1 $151 $152 $71 #
cone-surface $-1 59.817175517058679 -12.353609152873766 9.9612746677173831 -0.82903758062907751 0 -0.55919289150049634 0.55919289150049634 0 -0.82903758062907751 1 I I 0 1 1 forward I I I I #
face $-1 $153 $154 $55 $-1 $155 forward single #
loop $-1 $156 $157 $72 #
cone-surface $-1 59.817175517058679 -9.3244930348714803 9.9612746677173831 -0.82903758062907751 0 -0.55919289150049634 0.55919289150049634 0 -0.82903758062907751 1 I I 0 1 1 forward I I I I #
face $-1 $158 $159 $56 $-1 $160 reversed single #
loop $-1 $-1 $161 $73 #
plane-surface $-1 95.562519679835077 8.0840129921944559 180.76018950799084 0 -1 0 -0.82903758062907751 0 -0.55919289150049634 forward_v I I I I #
face $-1 $162 $163 $57 $-1 $164 forward single #
loop $-1 $165 $166 $74 #
cone-surface $-1 59.817175517058679 3.0354861288573147 9.9612746677173831 -0.82903758062907751 0 -0.55919289150049634 0.55919289150049634 0 -0.82903758062907751 1 I I 0 1 1 forward I I I I #
face $-1 $167 $168 $58 $-1 $169 forward single #
loop $-1 $170 $171 $75 #
cone-surface $-1 59.817175517058679 6.0646022468596001 9.9612746677173831 -0.82903758062907751 0 -0.55919289150049634 0.55919289150049634 0 -0.82903758062907751 1 I I 0 1 1 forward I I I I #
face $-1 $172 $173 $59 $-1 $174 reversed single #
loop $-1 $-1 $175 $76 #
plane-surface $-1 95.562519679835077 23.473108273925536 180.76018950799084 0 -1 0 -0.82903758062907751 0 -0.55919289150049634 forward_v I I I I #
face $-1 $176 $177 $60 $-1 $178 forward single #
loop $-1 $179 $180 $77 #
cone-surface $-1 59.817175517058679 18.424581410588395 9.9612746677173831 -0.82903758062907751 0 -0.55919289150049634 0.55919289150049634 0 -0.82903758062907751 1 I I 0 1 1 forward I I I I #
face $-1 $181 $182 $61 $-1 $183 forward single #
loop $-1 $184 $185 $78 #
cone-surface $-1 59.817175517058679 21.453697528590681 9.9612746677173831 -0.82903758062907751 0 -0.55919289150049634 0.55919289150049634 0 -0.82903758062907751 1 I I 0 1 1 forward I I I I #
face $-1 $186 $187 $62 $-1 $188 reversed single #
loop $-1 $-1 $189 $79 #
plane-surface $-1 95.562519679835077 31.794265946984606 180.76018950799084 0 1 0 0.82903758062907751 0 0.55919289150049634 forward_v I I I I #
face $-1 $190 $191 $63 $-1 $192 forward single #
loop $-1 $193 $194 $80 #
cone-surface $-1 59.817175517058679 33.813676692319476 9.9612746677173831 -0.82903758062907751 0 -0.55919289150049634 0.55919289150049634 0 -0.82903758062907751 1 I I 0 1 1 forward I I I I #
face $-1 $195 $196 $64 $-1 $197 forward single #
loop $-1 $198 $199 $81 #
cone-surface $-1 59.817175517058679 36.842792810321754 9.9612746677173831 -0.82903758062907751 0 -0.55919289150049634 0.55919289150049634 0 -0.82903758062907751 1 I I 0 1 1 forward I I I I #
face $-1 $200 $201 $65 $-1 $202 reversed single #
loop $-1 $-1 $203 $82 #
plane-surface $-1 -135.02918415259995 27.828945033468464 108.74549483204252 0 1 0 -0.5877852598018023 0 0.80901698891910034 forward_v I I I I #
face $-1 $204 $205 $66 $-1 $206 forward single #
loop $-1 $207 $208 $83 #
cone-surface $-1 -57.893124834074165 30.981304611236496 8.7960192337736736 0.5877852598018023 0 -0.80901698891910034 1.2135254833786506 0 0.88167788970270344 1 I I 0 1 1.5 forward I I I I #
face $-1 $209 $210 $67 $-1 $211 forward single #
loop $-1 $212 $213 $84 #
cone-surface $-1 -57.893124834074165 35.709843977888568 8.7960192337736736 0.5877852598018023 0 -0.80901698891910034 1.2135254833786506 0 0.88167788970270344 1 I I 0 1 1.5 forward I I I I #
face $-1 $214 $215 $51 $-1 $216 reversed single #
loop $-1 $-1 $217 $85 #
plane-surface $-1 0 0 -12.617792632463134 0 0 1 1 0 0 forward_v I I I I #
coedge $-1 $218 $219 $220 $221 forward $86 $-1 #
face $-1 $222 $223 $52 $-1 $224 reversed single #
loop $-1 $-1 $225 $88 #
plane-surface $-1 -41.181620117964464 -22.694177571267701 0 0 -1 0 0 0 -1 forward_v I I I I #
coedge $-1 $226 $227 $228 $229 forward $89 $-1 #
face $-1 $230 $231 $53 $-1 $232 reversed single #
loop $-1 $-1 $233 $91 #
plane-surface $-1 -7.3477442123105305 -10.839051093872623 111.34634220415532 0.82903758062907751 0 0.55919289150049634 0.55919289150049634 0 -0.82903758062907751 forward_v I I I I #
coedge $-1 $234 $235 $236 $237 reversed $92 $-1 #
face $-1 $-1 $238 $54 $-1 $239 forward single #
loop $-1 $240 $241 $94 #
cone-surface $-1 58.564030070427378 -12.353609152873766 9.1160174174480932 -0.82903758062907751 0 -0.55919289150049634 0.27959644575024817 0 -0.41451879031453875 1 I I -0.70710678118654746 0.70710678118654746 0.5 forward I I I I #
loop $-1 $-1 $242 $71 #
coedge $-1 $152 $152 $243 $244 reversed $95 $-1 #
face $-1 $-1 $245 $55 $-1 $246 forward single #
loop $-1 $247 $248 $97 #
cone-surface $-1 58.564030070427378 -9.3244930348714803 9.1160174174480932 -0.82903758062907751 0 -0.55919289150049634 0.27959644575024817 0 -0.41451879031453875 1 I I -0.70710678118654746 0.70710678118654746 0.5 forward I I I I #
loop $-1 $-1 $249 $72 #
coedge $-1 $157 $157 $250 $251 reversed $98 $-1 #
face $-1 $252 $253 $56 $-1 $254 reversed single #
loop $-1 $-1 $255 $100 #
plane-surface $-1 -7.3477442123105305 4.5500441878584539 111.34634220415532 0.82903758062907751 0 0.55919289150049634 0.55919289150049634 0 -0.82903758062907751 forward_v I I I I #
coedge $-1 $256 $257 $258 $259 reversed $101 $-1 #
face $-1 $-1 $260 $57 $-1 $261 forward single #
loop $-1 $262 $263 $103 #
cone-surface $-1 58.564030070427378 3.0354861288573147 9.1160174174480932 -0.82903758062907751 0 -0.55919289150049634 0.27959644575024817 0 -0.41451879031453875 1 I I -0.70710678118654746 0.70710678118654746 0.5 forward I I I I #
loop $-1 $-1 $264 $74 #
coedge $-1 $166 $166 $265 $266 reversed $104 $-1 #
face $-1 $-1 $267 $58 $-1 $268 forward single #
loop $-1 $269 $270 $106 #
cone-surface $-1 58.564030070427378 6.0646022468596001 9.1160174174480932 -0.82903758062907751 0 -0.55919289150049634 0.27959644575024817 0 -0.41451879031453875 1 I I -0.70710678118654746 0.70710678118654746 0.5 forward I I I I #
loop $-1 $-1 $271 $75 #
coedge $-1 $171 $171 $272 $273 reversed $107 $-1 #
face $-1 $274 $275 $59 $-1 $276 reversed single #
loop $-1 $-1 $277 $109 #
plane-surface $-1 -7.3477442123105305 19.939139469589534 111.34634220415532 0.82903758062907751 0 0.55919289150049634 0.55919289150049634 0 -0.82903758062907751 forward_v I I I I #
coedge $-1 $278 $279 $280 $281 reversed $110 $-1 #
face $-1 $-1 $282 $60 $-1 $283 forward single #
loop $-1 $284 $285 $112 #
cone-surface $-1 58.564030070427378 18.424581410588395 9.1160174174480932 -0.82903758062907751 0 -0.55919289150049634 0.27959644575024817 0 -0.41451879031453875 1 I I -0.70710678118654746 0.70710678118654746 0.5 forward I I I I #
loop $-1 $-1 $286 $77 #
coedge $-1 $180 $180 $287 $288 reversed $113 $-1 #
face $-1 $-1 $289 $61 $-1 $290 forward single #
loop $-1 $291 $292 $115 #
cone-surface $-1 58.564030070427378 21.453697528590681 9.1160174174480932 -0.82903758062907751 0 -0.55919289150049634 0.27959644575024817 0 -0.41451879031453875 1 I I -0.70710678118654746 0.70710678118654746 0.5 forward I I I I #
loop $-1 $-1 $293 $78 #
coedge $-1 $185 $185 $294 $295 reversed $116 $-1 #
face $-1 $296 $297 $62 $-1 $298 reversed single #
loop $-1 $-1 $299 $118 #
plane-surface $-1 -7.3477442123105305 35.328234751320608 111.34634220415532 0.82903758062907751 0 0.55919289150049634 0.55919289150049634 0 -0.82903758062907751 forward_v I I I I #
coedge $-1 $300 $301 $302 $303 reversed $119 $-1 #
face $-1 $-1 $304 $63 $-1 $305 forward single #
loop $-1 $306 $307 $121 #
cone-surface $-1 58.564030070427378 33.813676692319476 9.1160174174480932 -0.82903758062907751 0 -0.55919289150049634 0.27959644575024817 0 -0.41451879031453875 1 I I -0.70710678118654746 0.70710678118654746 0.5 forward I I I I #
loop $-1 $-1 $308 $80 #
coedge $-1 $194 $194 $309 $310 reversed $122 $-1 #
face $-1 $-1 $311 $64 $-1 $312 forward single #
loop $-1 $313 $314 $124 #
cone-surface $-1 58.564030070427378 36.842792810321754 9.1160174174480932 -0.82903758062907751 0 -0.55919289150049634 0.27959644575024817 0 -0.41451879031453875 1 I I -0.70710678118654746 0.70710678118654746 0.5 forward I I I I #
loop $-1 $-1 $315 $81 #
coedge $-1 $199 $199 $316 $317 reversed $125 $-1 #
face $-1 $318 $319 $65 $-1 $320 forward single #
loop $-1 $-1 $321 $127 #
plane-surface $-1 -62.066103091525008 33.345574294562539 8.3204311579464729 -0.5877852598018023 0 0.80901698891910034 0.80901698891910034 0 0.5877852598018023 forward_v I I I I #
coedge $-1 $322 $323 $324 $325 reversed $128 $-1 #
face $-1 $-1 $326 $66 $-1 $327 forward single #
loop $-1 $328 $329 $130 #
cone-surface $-1 -56.236712893672127 30.981304611236496 6.5161638306532179 0.5877852598018023 0 -0.80901698891910034 0.60676274168932531 0 0.44083894485135172 1 I I -0.70710678118654757 0.70710678118654757 0.75 forward I I I I #
loop $-1 $-1 $330 $83 #
coedge $-1 $208 $208 $331 $332 reversed $131 $-1 #
face $-1 $-1 $333 $67 $-1 $334 forward single #
loop $-1 $335 $336 $133 #
cone-surface $-1 -56.236712893672127 35.709843977888568 6.5161638306532179 0.5877852598018023 0 -0.80901698891910034 0.60676274168932531 0 0.44083894485135172 1 I I -0.70710678118654757 0.70710678118654757 0.75 forward I I I I #
loop $-1 $-1 $337 $84 #
coedge $-1 $213 $213 $338 $339 reversed $134 $-1 #
face $-1 $340 $341 $51 $-1 $342 reversed single #
loop $-1 $-1 $343 $136 #
plane-surface $-1 0 -38.862203555656606 0 0 1 0 0 0 1 forward_v I I I I #
coedge $-1 $344 $345 $346 $347 forward $137 $-1 #
coedge $-1 $348 $139 $349 $350 forward $86 $-1 #
coedge $-1 $139 $348 $351 $352 forward $86 $-1 #
coedge $-1 $353 $354 $139 $221 reversed $355 $-1 #
edge $-1 $356 -38.862203555656606 $357 38.862203555656606 $220 $358 forward 7 unknown #
face $-1 $359 $360 $52 $-1 $361 forward single #
loop $-1 $-1 $362 $140 #
plane-surface $-1 -39.168480126410337 -30.778190563462154 0 -1 0 0 0 0 1 forward_v I I I I #
coedge $-1 $363 $364 $365 $366 forward $141 $-1 #
coedge $-1 $367 $143 $368 $369 reversed $89 $-1 #
coedge $-1 $143 $367 $370 $371 reversed $89 $-1 #
coedge $-1 $364 $363 $143 $229 reversed $141 $-1 #
edge $-1 $372 -12.617792632463134 $373 12.617792632463134 $228 $374 forward 7 unknown #
face $-1 $375 $376 $53 $-1 $377 reversed single #
loop $-1 $-1 $378 $144 #
plane-surface $-1 95.562519679835077 -14.373019898208625 180.76018950799084 0 1 0 0.82903758062907751 0 0.55919289150049634 forward_v I I I I #
coedge $-1 $379 $380 $381 $382 reversed $145 $-1 #
coedge $-1 $235 $147 $383 $384 reversed $92 $-1 #
coedge $-1 $147 $234 $379 $385 reversed $92 $-1 #
coedge $-1 $381 $386 $147 $237 forward $387 $-1 #
edge $-1 $388 -14.284843251607469 $389 -11.464241415308308 $236 $390 forward 7 unknown #
loop $-1 $-1 $243 $148 #
plane-surface $-1 -7.3477442123105305 -10.839051093872623 111.34634220415532 0.82903758062907751 0 0.55919289150049634 0.55919289150049634 0 -0.82903758062907751 forward_v I I I I #
loop $-1 $-1 $391 $94 #
coedge $-1 $241 $241 $242 $392 reversed $149 $-1 #
coedge $-1 $242 $242 $241 $392 forward $151 $-1 #
coedge $-1 $243 $243 $152 $244 forward $238 $-1 #
edge $-1 $393 0 $393 6.2831853071796004 $243 $394 forward 7 unknown #
loop $-1 $-1 $250 $153 #
plane-surface $-1 -7.3477442123105305 -10.839051093872623 111.34634220415532 0.82903758062907751 0 0.55919289150049634 0.55919289150049634 0 -0.82903758062907751 forward_v I I I I #
loop $-1 $-1 $395 $97 #
coedge $-1 $248 $248 $249 $396 reversed $154 $-1 #
coedge $-1 $249 $249 $248 $396 forward $156 $-1 #
coedge $-1 $250 $250 $157 $251 forward $245 $-1 #
edge $-1 $397 0 $397 6.2831853071796004 $250 $398 forward 7 unknown #
face $-1 $399 $400 $56 $-1 $401 reversed single #
loop $-1 $-1 $402 $158 #
plane-surface $-1 95.562519679835077 1.0160753835224519 180.76018950799084 0 1 0 0.82903758062907751 0 0.55919289150049634 forward_v I I I I #
coedge $-1 $403 $404 $405 $406 reversed $159 $-1 #
coedge $-1 $257 $161 $407 $408 reversed $101 $-1 #
coedge $-1 $161 $256 $403 $409 reversed $101 $-1 #
coedge $-1 $405 $410 $161 $259 forward $411 $-1 #
edge $-1 $412 -14.284843251607469 $413 -11.464241415308308 $258 $414 forward 7 unknown #
loop $-1 $-1 $265 $162 #
plane-surface $-1 -7.3477442123105305 4.5500441878584539 111.34634220415532 0.82903758062907751 0 0.55919289150049634 0.55919289150049634 0 -0.82903758062907751 forward_v I I I I #
loop $-1 $-1 $415 $103 #
coedge $-1 $263 $263 $264 $416 reversed $163 $-1 #
coedge $-1 $264 $264 $263 $416 forward $165 $-1 #
coedge $-1 $265 $265 $166 $266 forward $260 $-1 #
edge $-1 $417 0 $417 6.2831853071796004 $265 $418 forward 7 unknown #
loop $-1 $-1 $272 $167 #
plane-surface $-1 -7.3477442123105305 4.5500441878584539 111.34634220415532 0.82903758062907751 0 0.55919289150049634 0.55919289150049634 0 -0.82903758062907751 forward_v I I I I #
loop $-1 $-1 $419 $106 #
coedge $-1 $270 $270 $271 $420 reversed $168 $-1 #
coedge $-1 $271 $271 $270 $420 forward $170 $-1 #
coedge $-1 $272 $272 $171 $273 forward $267 $-1 #
edge $-1 $421 0 $421 6.2831853071796004 $272 $422 forward 7 unknown #
face $-1 $423 $424 $59 $-1 $425 reversed single #
loop $-1 $-1 $426 $172 #
plane-surface $-1 95.562519679835077 16.405170665253532 180.76018950799084 0 1 0 0.82903758062907751 0 0.55919289150049634 forward_v I I I I #
coedge $-1 $427 $428 $429 $430 reversed $173 $-1 #
coedge $-1 $279 $175 $431 $432 reversed $110 $-1 #
coedge $-1 $175 $278 $427 $433 reversed $110 $-1 #
coedge $-1 $429 $434 $175 $281 forward $435 $-1 #
edge $-1 $436 -14.284843251607469 $437 -11.464241415308308 $280 $438 forward 7 unknown #
loop $-1 $-1 $287 $176 #
plane-surface $-1 -7.3477442123105305 19.939139469589534 111.34634220415532 0.82903758062907751 0 0.55919289150049634 0.55919289150049634 0 -0.82903758062907751 forward_v I I I I #
loop $-1 $-1 $439 $112 #
coedge $-1 $285 $285 $286 $440 reversed $177 $-1 #
coedge $-1 $286 $286 $285 $440 forward $179 $-1 #
coedge $-1 $287 $287 $180 $288 forward $282 $-1 #
edge $-1 $441 0 $441 6.2831853071796004 $287 $442 forward 7 unknown #
loop $-1 $-1 $294 $181 #
plane-surface $-1 -7.3477442123105305 19.939139469589534 111.34634220415532 0.82903758062907751 0 0.55919289150049634 0.55919289150049634 0 -0.82903758062907751 forward_v I I I I #
loop $-1 $-1 $443 $115 #
coedge $-1 $292 $292 $293 $444 reversed $182 $-1 #
coedge $-1 $293 $293 $292 $444 forward $184 $-1 #
coedge $-1 $294 $294 $185 $295 forward $289 $-1 #
edge $-1 $445 0 $445 6.2831853071796004 $294 $446 forward 7 unknown #
face $-1 $447 $448 $62 $-1 $449 reversed single #
loop $-1 $-1 $302 $186 #
plane-surface $-1 62.066103091525008 0 0 -1 0 0 0 0 1 forward_v I I I I #
coedge $-1 $450 $451 $452 $453 reversed $187 $-1 #
coedge $-1 $301 $189 $454 $455 reversed $119 $-1 #
coedge $-1 $189 $300 $450 $456 reversed $119 $-1 #
coedge $-1 $452 $457 $189 $303 forward $297 $-1 #
edge $-1 $458 77.762302121532286 $459 81.94401644198571 $302 $460 forward 7 unknown #
loop $-1 $-1 $309 $190 #
plane-surface $-1 -7.3477442123105305 35.328234751320608 111.34634220415532 0.82903758062907751 0 0.55919289150049634 0.55919289150049634 0 -0.82903758062907751 forward_v I I I I #
loop $-1 $-1 $461 $121 #
coedge $-1 $307 $307 $308 $462 reversed $191 $-1 #
coedge $-1 $308 $308 $307 $462 forward $193 $-1 #
coedge $-1 $309 $309 $194 $310 forward $304 $-1 #
edge $-1 $463 0 $463 6.2831853071796004 $309 $464 forward 7 unknown #
loop $-1 $-1 $316 $195 #
plane-surface $-1 -7.3477442123105305 35.328234751320608 111.34634220415532 0.82903758062907751 0 0.55919289150049634 0.55919289150049634 0 -0.82903758062907751 forward_v I I I I #
loop $-1 $-1 $465 $124 #
coedge $-1 $314 $314 $315 $466 reversed $196 $-1 #
coedge $-1 $315 $315 $314 $466 forward $198 $-1 #
coedge $-1 $316 $316 $199 $317 forward $311 $-1 #
edge $-1 $467 0 $467 6.2831853071796004 $316 $468 forward 7 unknown #
face $-1 $469 $470 $65 $-1 $471 reversed single #
loop $-1 $-1 $324 $200 #
plane-surface $-1 0 0 12.617792632463134 0 0 1 1 0 0 forward_v I I I I #
coedge $-1 $472 $473 $474 $475 reversed $201 $-1 #
coedge $-1 $323 $203 $476 $477 reversed $128 $-1 #
coedge $-1 $203 $322 $472 $478 reversed $128 $-1 #
coedge $-1 $474 $479 $203 $325 forward $319 $-1 #
edge $-1 $480 5.4484889847749685 $481 11.363299508575302 $324 $482 forward 7 unknown #
loop $-1 $-1 $331 $204 #
plane-surface $-1 -62.066103091525008 33.345574294562539 8.3204311579464729 -0.5877852598018023 0 0.80901698891910034 0.80901698891910034 0 0.5877852598018023 forward_v I I I I #
loop $-1 $-1 $483 $130 #
coedge $-1 $329 $329 $330 $484 reversed $205 $-1 #
coedge $-1 $330 $330 $329 $484 forward $207 $-1 #
coedge $-1 $331 $331 $208 $332 forward $326 $-1 #
edge $-1 $485 0 $485 6.2831853071796004 $331 $486 forward 7 unknown #
loop $-1 $-1 $338 $209 #
plane-surface $-1 -62.066103091525008 33.345574294562539 8.3204311579464729 -0.5877852598018023 0 0.80901698891910034 0.80901698891910034 0 0.5877852598018023 forward_v I I I I #
loop $-1 $-1 $487 $133 #
coedge $-1 $336 $336 $337 $488 reversed $210 $-1 #
coedge $-1 $337 $337 $336 $488 forward $212 $-1 #
coedge $-1 $338 $338 $213 $339 forward $333 $-1 #
edge $-1 $489 0 $489 6.2831853071796004 $338 $490 forward 7 unknown #
face $-1 $491 $492 $51 $-1 $493 reversed single #
loop $-1 $-1 $494 $214 #
plane-surface $-1 -62.066103091525008 0 0 1 0 0 0 0 -1 forward_v I I I I #
coedge $-1 $495 $351 $496 $497 forward $215 $-1 #
coedge $-1 $498 $217 $495 $499 forward $137 $-1 #
coedge $-1 $217 $498 $500 $501 forward $137 $-1 #
coedge $-1 $354 $353 $217 $347 reversed $355 $-1 #
edge $-1 $502 -38.862203555656606 $503 38.862203555656606 $346 $504 forward 7 unknown #
coedge $-1 $219 $218 $505 $506 forward $86 $-1 #
coedge $-1 $507 $508 $218 $350 reversed $492 $-1 #
edge $-1 $357 -62.066103091525008 $509 62.066103091525008 $349 $510 forward 7 unknown #
coedge $-1 $343 $511 $219 $352 reversed $215 $-1 #
edge $-1 $512 -62.066103091525008 $356 62.066103091525008 $351 $513 forward 7 unknown #
coedge $-1 $346 $220 $511 $514 forward $355 $-1 #
coedge $-1 $220 $346 $507 $515 reversed $355 $-1 #
loop $-1 $-1 $353 $491 #
vertex $-1 $221 $516 #
vertex $-1 $221 $517 #
straight-curve $-1 62.066103091525008 0 12.617792632463134 0 1 0 I I #
face $-1 $518 $519 $52 $-1 $520 reversed single #
loop $-1 $-1 $521 $222 #
plane-surface $-1 0 0 12.617792632463134 0 0 1 1 0 0 forward_v I I I I #
coedge $-1 $522 $523 $524 $525 reversed $223 $-1 #
coedge $-1 $228 $225 $526 $527 reversed $141 $-1 #
coedge $-1 $225 $228 $528 $529 reversed $141 $-1 #
coedge $-1 $523 $522 $225 $366 reversed $223 $-1 #
edge $-1 $530 -12.617792632463134 $531 12.617792632463134 $365 $532 forward 7 unknown #
coedge $-1 $227 $226 $533 $534 reversed $89 $-1 #
coedge $-1 $526 $535 $226 $369 forward $519 $-1 #
edge $-1 $536 -23.473108273925529 $373 -7.3050822895366245 $368 $537 forward 7 unknown #
coedge $-1 $538 $528 $227 $371 forward $360 $-1 #
edge $-1 $372 7.3050822895366245 $539 23.473108273925529 $370 $540 forward 7 unknown #
vertex $-1 $371 $541 #
vertex $-1 $369 $542 #
straight-curve $-1 -43.19476010951859 -22.694177571267701 0 0 0 -1 I I #
face $-1 $-1 $387 $53 $-1 $543 forward single #
loop $-1 $-1 $544 $230 #
plane-surface $-1 62.066103091525008 0 0 -1 0 0 0 0 1 forward_v I I I I #
coedge $-1 $545 $546 $547 $548 reversed $231 $-1 #
coedge $-1 $549 $233 $235 $385 forward $145 $-1 #
coedge $-1 $233 $549 $545 $550 forward $145 $-1 #
coedge $-1 $547 $236 $233 $382 forward $387 $-1 #
edge $-1 $389 1.8855567426003095 $551 8.9534943512723135 $381 $552 forward 7 unknown #
coedge $-1 $553 $554 $234 $384 forward $376 $-1 #
edge $-1 $555 -81.94401644198571 $388 -77.762302121532286 $383 $556 forward 7 unknown #
edge $-1 $389 119.08814736332764 $555 124.13220618305003 $235 $557 forward 7 unknown #
coedge $-1 $236 $547 $553 $558 forward $387 $-1 #
loop $-1 $-1 $547 $375 #
vertex $-1 $384 $559 #
vertex $-1 $237 $560 #
straight-curve $-1 47.781259839917539 -7.305082289536621 12.617792632463136 -1 0 0 I I #
coedge $-1 $391 $391 $-1 $561 reversed $240 $-1 #
edge $-1 $562 0 $562 6.2831853071796004 $241 $563 forward 7 unknown #
vertex $-1 $244 $564 #
ellipse-curve $-1 60.655802173375427 -12.353609152873766 10.526935472236413 0.82903758062907751 0 0.55919289150049634 0.55919289150049634 0 -0.82903758062907751 1 I I #
coedge $-1 $395 $395 $-1 $565 reversed $247 $-1 #
edge $-1 $566 0 $566 6.2831853071796004 $248 $567 forward 7 unknown #
vertex $-1 $251 $568 #
ellipse-curve $-1 60.655802173375427 -9.3244930348714803 10.526935472236413 0.82903758062907751 0 0.55919289150049634 0.55919289150049634 0 -0.82903758062907751 1 I I #
face $-1 $-1 $411 $56 $-1 $569 forward single #
loop $-1 $-1 $570 $252 #
plane-surface $-1 62.066103091525008 0 0 -1 0 0 0 0 1 forward_v I I I I #
coedge $-1 $571 $572 $573 $574 reversed $253 $-1 #
coedge $-1 $575 $255 $257 $409 forward $159 $-1 #
coedge $-1 $255 $575 $571 $576 forward $159 $-1 #
coedge $-1 $573 $258 $255 $406 forward $411 $-1 #
edge $-1 $413 -5.808990898265229 $577 1.2589467104067751 $405 $578 forward 7 unknown #
coedge $-1 $579 $580 $256 $408 forward $400 $-1 #
edge $-1 $581 -81.94401644198571 $412 -77.762302121532286 $407 $582 forward 7 unknown #
edge $-1 $413 119.08814736332764 $581 124.13220618305003 $257 $583 forward 7 unknown #
coedge $-1 $258 $573 $579 $584 forward $411 $-1 #
loop $-1 $-1 $573 $399 #
vertex $-1 $408 $585 #
vertex $-1 $259 $586 #
straight-curve $-1 47.781259839917539 8.0840129921944559 12.617792632463136 -1 0 0 I I #
coedge $-1 $415 $415 $-1 $587 reversed $262 $-1 #
edge $-1 $588 0 $588 6.2831853071796004 $263 $589 forward 7 unknown #
vertex $-1 $266 $590 #
ellipse-curve $-1 60.655802173375427 3.0354861288573147 10.526935472236413 0.82903758062907751 0 0.55919289150049634 0.55919289150049634 0 -0.82903758062907751 1 I I #
coedge $-1 $419 $419 $-1 $591 reversed $269 $-1 #
edge $-1 $592 0 $592 6.2831853071796004 $270 $593 forward 7 unknown #
vertex $-1 $273 $594 #
ellipse-curve $-1 60.655802173375427 6.0646022468596001 10.526935472236413 0.82903758062907751 0 0.55919289150049634 0.55919289150049634 0 -0.82903758062907751 1 I I #
face $-1 $-1 $435 $59 $-1 $595 forward single #
loop $-1 $-1 $596 $274 #
plane-surface $-1 62.066103091525008 0 0 -1 0 0 0 0 1 forward_v I I I I #
coedge $-1 $597 $598 $599 $600 reversed $275 $-1 #
coedge $-1 $601 $277 $279 $433 forward $173 $-1 #
coedge $-1 $277 $601 $597 $602 forward $173 $-1 #
coedge $-1 $599 $280 $277 $430 forward $435 $-1 #
edge $-1 $437 -13.503538539130769 $603 -6.4356009304587651 $429 $604 forward 7 unknown #
coedge $-1 $605 $606 $278 $432 forward $424 $-1 #
edge $-1 $607 -81.94401644198571 $436 -77.762302121532286 $431 $608 forward 7 unknown #
edge $-1 $437 119.08814736332764 $607 124.13220618305003 $279 $609 forward 7 unknown #
coedge $-1 $280 $599 $605 $610 forward $435 $-1 #
loop $-1 $-1 $599 $423 #
vertex $-1 $432 $611 #
vertex $-1 $281 $612 #
straight-curve $-1 47.781259839917539 23.473108273925536 12.617792632463136 -1 0 0 I I #
coedge $-1 $439 $439 $-1 $613 reversed $284 $-1 #
edge $-1 $614 0 $614 6.2831853071796004 $285 $615 forward 7 unknown #
vertex $-1 $288 $616 #
ellipse-curve $-1 60.655802173375427 18.424581410588395 10.526935472236413 0.82903758062907751 0 0.55919289150049634 0.55919289150049634 0 -0.82903758062907751 1 I I #
coedge $-1 $443 $443 $-1 $617 reversed $291 $-1 #
edge $-1 $618 0 $618 6.2831853071796004 $292 $619 forward 7 unknown #
vertex $-1 $295 $620 #
ellipse-curve $-1 60.655802173375427 21.453697528590681 10.526935472236413 0.82903758062907751 0 0.55919289150049634 0.55919289150049634 0 -0.82903758062907751 1 I I #
face $-1 $-1 $621 $62 $-1 $622 forward single #
loop $-1 $-1 $623 $296 #
plane-surface $-1 0 38.862203555656606 0 0 -1 0 0 0 -1 forward_v I I I I #
coedge $-1 $624 $299 $301 $456 forward $187 $-1 #
coedge $-1 $299 $624 $623 $625 reversed $187 $-1 #
coedge $-1 $626 $302 $299 $453 forward $297 $-1 #
edge $-1 $459 14.130148571324302 $627 21.198086179996302 $452 $628 forward 7 unknown #
coedge $-1 $629 $630 $300 $455 forward $621 $-1 #
edge $-1 $631 11.464241415308308 $458 14.284843251607469 $454 $632 forward 7 unknown #
edge $-1 $459 -124.13220618305003 $631 -119.08814736332764 $301 $633 forward 7 unknown #
coedge $-1 $302 $626 $629 $634 reversed $297 $-1 #
vertex $-1 $634 $635 #
vertex $-1 $303 $636 #
straight-curve $-1 62.066103091525008 31.794265946984606 90.380094753995422 0 0 -1 I I #
coedge $-1 $461 $461 $-1 $637 reversed $306 $-1 #
edge $-1 $638 0 $638 6.2831853071796004 $307 $639 forward 7 unknown #
vertex $-1 $310 $640 #
ellipse-curve $-1 60.655802173375427 33.813676692319476 10.526935472236413 0.82903758062907751 0 0.55919289150049634 0.55919289150049634 0 -0.82903758062907751 1 I I #
coedge $-1 $465 $465 $-1 $641 reversed $313 $-1 #
edge $-1 $642 0 $642 6.2831853071796004 $314 $643 forward 7 unknown #
vertex $-1 $317 $644 #
ellipse-curve $-1 60.655802173375427 36.842792810321754 10.526935472236413 0.82903758062907751 0 0.55919289150049634 0.55919289150049634 0 -0.82903758062907751 1 I I #
face $-1 $-1 $645 $65 $-1 $646 reversed single #
loop $-1 $-1 $647 $318 #
plane-surface $-1 0 38.862203555656606 0 0 -1 0 0 0 -1 forward_v I I I I #
coedge $-1 $648 $321 $323 $478 forward $201 $-1 #
coedge $-1 $321 $648 $647 $649 reversed $201 $-1 #
coedge $-1 $650 $324 $321 $475 forward $319 $-1 #
edge $-1 $481 11.156157886187195 $651 22.189416408375344 $474 $652 forward 7 unknown #
coedge $-1 $653 $654 $322 $477 forward $645 $-1 #
edge $-1 $655 -46.052316258074789 $480 -41.754954783558127 $476 $656 forward 7 unknown #
edge $-1 $481 -7.3111079307529838 $655 0 $323 $657 forward 7 unknown #
coedge $-1 $324 $650 $653 $658 forward $319 $-1 #
vertex $-1 $477 $659 #
vertex $-1 $325 $660 #
straight-curve $-1 -67.514592076299976 27.828945033468464 12.617792632463136 1 0 0 I I #
coedge $-1 $483 $483 $-1 $661 reversed $328 $-1 #
edge $-1 $662 0 $662 6.2831853071796004 $329 $663 forward 7 unknown #
vertex $-1 $332 $664 #
ellipse-curve $-1 -59.108697829624845 30.981304611236496 10.469111895204799 -0.5877852598018023 0 0.80901698891910034 1.2135254833786506 0 0.88167788970270344 1 I I #
coedge $-1 $487 $487 $-1 $665 reversed $335 $-1 #
edge $-1 $666 0 $666 6.2831853071796004 $336 $667 forward 7 unknown #
vertex $-1 $339 $668 #
ellipse-curve $-1 -59.108697829624845 35.709843977888568 10.469111895204799 -0.5877852598018023 0 0.80901698891910034 1.2135254833786506 0 0.88167788970270344 1 I I #
face $-1 $-1 $355 $51 $-1 $669 reversed single #
loop $-1 $-1 $507 $340 #
plane-surface $-1 0 38.862203555656606 0 0 -1 0 0 0 -1 forward_v I I I I #
coedge $-1 $670 $505 $508 $671 forward $341 $-1 #
coedge $-1 $511 $343 $344 $499 reversed $215 $-1 #
coedge $-1 $505 $670 $343 $497 reversed $341 $-1 #
edge $-1 $512 -12.617792632463134 $672 12.617792632463134 $496 $673 forward 7 unknown #
coedge $-1 $345 $344 $670 $674 forward $137 $-1 #
edge $-1 $503 -62.066103091525008 $672 62.066103091525008 $495 $675 forward 7 unknown #
coedge $-1 $508 $507 $345 $501 reversed $492 $-1 #
edge $-1 $676 -62.066103091525008 $502 62.066103091525008 $500 $677 forward 7 unknown #
vertex $-1 $347 $678 #
vertex $-1 $514 $679 #
straight-curve $-1 62.066103091525008 0 -12.617792632463134 0 -1 0 I I #
coedge $-1 $494 $496 $348 $506 reversed $341 $-1 #
edge $-1 $509 -38.862203555656606 $512 38.862203555656606 $505 $680 forward 7 unknown #
coedge $-1 $500 $349 $354 $515 forward $492 $-1 #
coedge $-1 $349 $500 $494 $671 reversed $492 $-1 #
vertex $-1 $350 $681 #
straight-curve $-1 0 38.862203555656606 12.617792632463134 -1 0 0 I I #
coedge $-1 $351 $495 $353 $514 reversed $215 $-1 #
vertex $-1 $506 $682 #
straight-curve $-1 0 -38.862203555656606 12.617792632463134 1 0 0 I I #
edge $-1 $356 -12.617792632463134 $503 12.617792632463134 $353 $683 forward 7 unknown #
edge $-1 $357 -12.617792632463134 $502 12.617792632463134 $354 $684 forward 7 unknown #
point $-1 62.066103091525008 -38.862203555656606 12.617792632463134 #
point $-1 62.066103091525008 38.862203555656606 12.617792632463134 #
face $-1 $-1 $685 $52 $-1 $686 reversed single #
loop $-1 $-1 $687 $359 #
plane-surface $-1 0 0 -12.617792632463134 0 0 1 1 0 0 forward_v I I I I #
coedge $-1 $528 $538 $523 $688 forward $360 $-1 #
coedge $-1 $365 $362 $687 $689 reversed $223 $-1 #
coedge $-1 $362 $365 $521 $688 reversed $223 $-1 #
coedge $-1 $690 $691 $362 $525 forward $685 $-1 #
edge $-1 $692 -12.617792632463134 $693 12.617792632463134 $524 $694 forward 7 unknown #
coedge $-1 $687 $368 $363 $527 forward $519 $-1 #
edge $-1 $373 -22.603950050536358 $531 -18.577670067428105 $526 $695 forward 7 unknown #
coedge $-1 $370 $521 $364 $529 forward $360 $-1 #
edge $-1 $530 18.577670067428105 $372 22.603950050536358 $528 $696 forward 7 unknown #
vertex $-1 $529 $697 #
vertex $-1 $527 $698 #
straight-curve $-1 -39.168480126410337 -22.694177571267701 0 0 0 -1 I I #
coedge $-1 $691 $690 $367 $534 forward $685 $-1 #
edge $-1 $539 -12.617792632463134 $536 12.617792632463134 $533 $699 forward 7 unknown #
coedge $-1 $368 $687 $691 $700 forward $519 $-1 #
vertex $-1 $369 $701 #
straight-curve $-1 -43.19476010951859 -15.389095281731077 -12.617792632463134 0 1 0 I I #
coedge $-1 $521 $370 $690 $702 forward $360 $-1 #
vertex $-1 $702 $703 #
straight-curve $-1 -43.19476010951859 -15.389095281731077 12.617792632463134 0 -1 0 I I #
point $-1 -43.19476010951859 -22.694177571267701 12.617792632463134 #
point $-1 -43.19476010951859 -22.694177571267701 -12.617792632463134 #
plane-surface $-1 0 0 12.617792632463134 0 0 1 1 0 0 forward_v I I I I #
coedge $-1 $554 $553 $546 $704 forward $376 $-1 #
coedge $-1 $546 $378 $380 $550 reversed $231 $-1 #
coedge $-1 $378 $545 $544 $704 reversed $231 $-1 #
coedge $-1 $386 $381 $378 $548 forward $387 $-1 #
edge $-1 $551 11.464241415308308 $705 14.284843251607469 $547 $706 forward 7 unknown #
coedge $-1 $380 $379 $554 $707 reversed $145 $-1 #
edge $-1 $708 -124.13220618305003 $551 -119.08814736332764 $545 $709 forward 7 unknown #
vertex $-1 $382 $710 #
straight-curve $-1 59.245501255225861 -5.4195255469363115 12.617792632463129 0 -1 0 I I #
coedge $-1 $544 $383 $386 $558 reversed $376 $-1 #
coedge $-1 $383 $544 $549 $707 forward $376 $-1 #
vertex $-1 $384 $711 #
straight-curve $-1 62.066103091525008 -7.305082289536621 90.380094753995422 0 0 1 I I #
straight-curve $-1 -7.3477442123105305 -7.305082289536621 111.34634220415532 0.55919289150049634 0 -0.82903758062907751 I I #
edge $-1 $705 -14.373019898208625 $388 -7.305082289536621 $553 $712 forward 7 unknown #
point $-1 62.066103091525008 -7.305082289536621 12.617792632463134 #
point $-1 59.245501255225847 -7.305082289536621 12.617792632463136 #
edge $-1 $713 1 $713 0 $391 $-1 forward 7 unknown #
vertex $-1 $392 $714 #
ellipse-curve $-1 58.978548860741917 -12.353609152873766 9.3956138631983421 0.82903758062907751 0 0.55919289150049634 0.55919289150049634 0 -0.82903758062907751 1 I I #
point $-1 61.214995064875943 -12.353609152873766 9.6978978916073473 #
edge $-1 $715 1 $715 0 $395 $-1 forward 7 unknown #
vertex $-1 $396 $716 #
ellipse-curve $-1 58.978548860741917 -9.3244930348714803 9.3956138631983421 0.82903758062907751 0 0.55919289150049634 0.55919289150049634 0 -0.82903758062907751 1 I I #
point $-1 61.214995064875943 -9.3244930348714803 9.6978978916073473 #
plane-surface $-1 0 0 12.617792632463134 0 0 1 1 0 0 forward_v I I I I #
coedge $-1 $580 $579 $572 $717 forward $400 $-1 #
coedge $-1 $572 $402 $404 $576 reversed $253 $-1 #
coedge $-1 $402 $571 $570 $717 reversed $253 $-1 #
coedge $-1 $410 $405 $402 $574 forward $411 $-1 #
edge $-1 $577 11.464241415308308 $718 14.284843251607469 $573 $719 forward 7 unknown #
coedge $-1 $404 $403 $580 $720 reversed $159 $-1 #
edge $-1 $721 -124.13220618305003 $577 -119.08814736332764 $571 $722 forward 7 unknown #
vertex $-1 $406 $723 #
straight-curve $-1 59.245501255225861 2.2750220939292269 12.617792632463129 0 -1 0 I I #
coedge $-1 $570 $407 $410 $584 reversed $400 $-1 #
coedge $-1 $407 $570 $575 $720 forward $400 $-1 #
vertex $-1 $408 $724 #
straight-curve $-1 62.066103091525008 8.0840129921944559 90.380094753995422 0 0 1 I I #
straight-curve $-1 -7.3477442123105305 8.0840129921944559 111.34634220415532 0.55919289150049634 0 -0.82903758062907751 I I #
edge $-1 $718 1.0160753835224519 $412 8.0840129921944559 $579 $725 forward 7 unknown #
point $-1 62.066103091525008 8.0840129921944559 12.617792632463134 #
point $-1 59.245501255225847 8.0840129921944559 12.617792632463136 #
edge $-1 $726 1 $726 0 $415 $-1 forward 7 unknown #
vertex $-1 $416 $727 #
ellipse-curve $-1 58.978548860741917 3.0354861288573147 9.3956138631983421 0.82903758062907751 0 0.55919289150049634 0.55919289150049634 0 -0.82903758062907751 1 I I #
point $-1 61.214995064875943 3.0354861288573147 9.6978978916073473 #
edge $-1 $728 1 $728 0 $419 $-1 forward 7 unknown #
vertex $-1 $420 $729 #
ellipse-curve $-1 58.978548860741917 6.0646022468596001 9.3956138631983421 0.82903758062907751 0 0.55919289150049634 0.55919289150049634 0 -0.82903758062907751 1 I I #
point $-1 61.214995064875943 6.0646022468596001 9.6978978916073473 #
plane-surface $-1 0 0 12.617792632463134 0 0 1 1 0 0 forward_v I I I I #
coedge $-1 $606 $605 $598 $730 forward $424 $-1 #
coedge $-1 $598 $426 $428 $602 reversed $275 $-1 #
coedge $-1 $426 $597 $596 $730 reversed $275 $-1 #
coedge $-1 $434 $429 $426 $600 forward $435 $-1 #
edge $-1 $603 11.464241415308308 $731 14.284843251607469 $599 $732 forward 7 unknown #
coedge $-1 $428 $427 $606 $733 reversed $173 $-1 #
edge $-1 $734 -124.13220618305003 $603 -119.08814736332764 $597 $735 forward 7 unknown #
vertex $-1 $430 $736 #
straight-curve $-1 59.245501255225861 9.9695697347947672 12.617792632463129 0 -1 0 I I #
coedge $-1 $596 $431 $434 $610 reversed $424 $-1 #
coedge $-1 $431 $596 $601 $733 forward $424 $-1 #
vertex $-1 $432 $737 #
straight-curve $-1 62.066103091525008 23.473108273925536 90.380094753995422 0 0 1 I I #
straight-curve $-1 -7.3477442123105305 23.473108273925536 111.34634220415532 0.55919289150049634 0 -0.82903758062907751 I I #
edge $-1 $731 16.405170665253532 $436 23.473108273925536 $605 $738 forward 7 unknown #
point $-1 62.066103091525008 23.473108273925536 12.617792632463134 #
point $-1 59.245501255225847 23.473108273925536 12.617792632463136 #
edge $-1 $739 1 $739 0 $439 $-1 forward 7 unknown #
vertex $-1 $440 $740 #
ellipse-curve $-1 58.978548860741917 18.424581410588395 9.3956138631983421 0.82903758062907751 0 0.55919289150049634 0.55919289150049634 0 -0.82903758062907751 1 I I #
point $-1 61.214995064875943 18.424581410588395 9.6978978916073473 #
edge $-1 $741 1 $741 0 $443 $-1 forward 7 unknown #
vertex $-1 $444 $742 #
ellipse-curve $-1 58.978548860741917 21.453697528590681 9.3956138631983421 0.82903758062907751 0 0.55919289150049634 0.55919289150049634 0 -0.82903758062907751 1 I I #
point $-1 61.214995064875943 21.453697528590681 9.6978978916073473 #
loop $-1 $-1 $454 $447 #
plane-surface $-1 0 0 12.617792632463134 0 0 1 1 0 0 forward_v I I I I #
coedge $-1 $743 $744 $451 $625 forward $448 $-1 #
coedge $-1 $451 $450 $630 $745 reversed $187 $-1 #
edge $-1 $627 -75.922651940590939 $746 -70.878593120868516 $623 $747 forward 7 unknown #
coedge $-1 $457 $452 $744 $748 reversed $297 $-1 #
vertex $-1 $625 $749 #
straight-curve $-1 62.066103091525008 17.664117375660304 8.4360783120096983 0 1 0 I I #
coedge $-1 $750 $454 $457 $634 forward $621 $-1 #
coedge $-1 $454 $750 $624 $745 forward $621 $-1 #
vertex $-1 $455 $751 #
straight-curve $-1 47.781259839917539 31.794265946984606 12.617792632463136 1 0 0 I I #
straight-curve $-1 -7.3477442123105305 31.794265946984606 111.34634220415532 -0.55919289150049634 0 0.82903758062907751 I I #
edge $-1 $458 31.794265946984606 $752 38.862203555656606 $457 $753 forward 7 unknown #
point $-1 62.066103091525008 31.794265946984606 12.617792632463134 #
point $-1 62.066103091525008 31.794265946984606 8.4360783120097125 #
edge $-1 $754 1 $754 0 $461 $-1 forward 7 unknown #
vertex $-1 $462 $755 #
ellipse-curve $-1 58.978548860741917 33.813676692319476 9.3956138631983421 0.82903758062907751 0 0.55919289150049634 0.55919289150049634 0 -0.82903758062907751 1 I I #
point $-1 61.214995064875943 33.813676692319476 9.6978978916073473 #
edge $-1 $756 1 $756 0 $465 $-1 forward 7 unknown #
vertex $-1 $466 $757 #
ellipse-curve $-1 58.978548860741917 36.842792810321754 9.3956138631983421 0.82903758062907751 0 0.55919289150049634 0.55919289150049634 0 -0.82903758062907751 1 I I #
point $-1 61.214995064875943 36.842792810321754 9.6978978916073473 #
loop $-1 $-1 $476 $469 #
plane-surface $-1 -62.066103091525008 0 0 1 0 0 0 0 -1 forward_v I I I I #
coedge $-1 $758 $759 $473 $649 forward $470 $-1 #
coedge $-1 $473 $472 $654 $760 reversed $201 $-1 #
edge $-1 $651 15.349844592852739 $761 22.660952523605722 $647 $762 forward 7 unknown #
coedge $-1 $479 $474 $759 $763 forward $319 $-1 #
vertex $-1 $763 $764 #
straight-curve $-1 -56.151292567724674 16.672787147281269 12.617792632463134 0 1 0 I I #
coedge $-1 $765 $476 $479 $658 reversed $645 $-1 #
coedge $-1 $476 $765 $648 $760 forward $645 $-1 #
vertex $-1 $477 $766 #
straight-curve $-1 -62.066103091525008 27.828945033468464 54.372747416021262 0 0 1 I I #
straight-curve $-1 -62.066103091525008 27.828945033468464 8.3204311579464729 -0.80901698891910034 0 -0.5877852598018023 I I #
edge $-1 $767 -38.862203555656606 $480 -27.828945033468464 $653 $768 forward 7 unknown #
point $-1 -62.066103091525008 27.828945033468464 12.617792632463134 #
point $-1 -56.151292567724674 27.828945033468464 12.617792632463134 #
edge $-1 $769 1 $769 0 $483 $-1 forward 7 unknown #
vertex $-1 $484 $770 #
ellipse-curve $-1 -56.677551838523478 30.981304611236496 7.1229265723425428 -0.5877852598018023 0 0.80901698891910034 1.2135254833786506 0 0.88167788970270344 1 I I #
point $-1 -57.895172346246198 30.981304611236496 11.350789784907509 #
edge $-1 $771 1 $771 0 $487 $-1 forward 7 unknown #
vertex $-1 $488 $772 #
ellipse-curve $-1 -56.677551838523478 35.709843977888568 7.1229265723425428 -0.5877852598018023 0 0.80901698891910034 1.2135254833786506 0 0.88167788970270344 1 I I #
point $-1 -57.895172346246198 35.709843977888568 11.350789784907509 #
plane-surface $-1 62.066103091525008 0 0 -1 0 0 0 0 1 forward_v I I I I #
coedge $-1 $496 $494 $498 $674 reversed $341 $-1 #
edge $-1 $509 -12.617792632463134 $676 12.617792632463134 $508 $773 forward 7 unknown #
vertex $-1 $674 $774 #
straight-curve $-1 -62.066103091525008 -38.862203555656606 0 0 0 -1 I I #
edge $-1 $672 -38.862203555656606 $676 38.862203555656606 $670 $775 forward 7 unknown #
straight-curve $-1 0 -38.862203555656606 -12.617792632463134 -1 0 0 I I #
vertex $-1 $501 $776 #
straight-curve $-1 0 38.862203555656606 -12.617792632463134 1 0 0 I I #
point $-1 62.066103091525008 38.862203555656606 -12.617792632463134 #
point $-1 62.066103091525008 -38.862203555656606 -12.617792632463134 #
straight-curve $-1 -62.066103091525008 0 12.617792632463134 0 -1 0 I I #
point $-1 -62.066103091525008 38.862203555656606 12.617792632463134 #
point $-1 -62.066103091525008 -38.862203555656606 12.617792632463134 #
straight-curve $-1 62.066103091525008 -38.862203555656606 0 0 0 -1 I I #
straight-curve $-1 62.066103091525008 38.862203555656606 0 0 0 -1 I I #
loop $-1 $-1 $524 $518 #
plane-surface $-1 0 -38.862203555656606 0 0 1 0 0 0 1 forward_v I I I I #
coedge $-1 $535 $526 $522 $689 forward $519 $-1 #
edge $-1 $693 -23.473108273925529 $530 -7.3050822895366245 $521 $777 forward 7 unknown #
edge $-1 $531 7.3050822895366245 $692 23.473108273925529 $687 $778 forward 7 unknown #
coedge $-1 $533 $524 $538 $702 reversed $685 $-1 #
coedge $-1 $524 $533 $535 $700 reversed $685 $-1 #
vertex $-1 $700 $779 #
vertex $-1 $525 $780 #
straight-curve $-1 -39.168480126410337 -38.862203555656606 0 0 0 1 I I #
straight-curve $-1 -20.590810058982232 -22.694177571267701 -12.617792632463134 1 0 0 I I #
straight-curve $-1 -20.590810058982232 -22.694177571267701 12.617792632463134 -1 0 0 I I #
point $-1 -39.168480126410337 -22.694177571267701 12.617792632463134 #
point $-1 -39.168480126410337 -22.694177571267701 -12.617792632463134 #
straight-curve $-1 -43.19476010951859 -38.862203555656606 0 0 0 -1 I I #
edge $-1 $692 39.168480126410337 $536 43.19476010951859 $691 $781 forward 7 unknown #
point $-1 -43.19476010951859 -38.862203555656606 -12.617792632463134 #
edge $-1 $539 -43.19476010951859 $693 -39.168480126410337 $690 $782 forward 7 unknown #
point $-1 -43.19476010951859 -38.862203555656606 12.617792632463134 #
edge $-1 $705 77.762302121532286 $708 81.94401644198571 $544 $783 forward 7 unknown #
vertex $-1 $558 $784 #
straight-curve $-1 47.781259839917539 -14.373019898208625 12.617792632463136 1 0 0 I I #
edge $-1 $708 -8.9534943512723135 $555 -1.8855567426003095 $554 $785 forward 7 unknown #
vertex $-1 $707 $786 #
straight-curve $-1 -7.3477442123105305 -14.373019898208625 111.34634220415532 -0.55919289150049634 0 0.82903758062907751 I I #
point $-1 59.245501255225847 -14.373019898208625 12.617792632463136 #
point $-1 62.066103091525008 -7.305082289536621 8.4360783120097125 #
straight-curve $-1 62.066103091525008 0 12.617792632463134 0 1 0 I I #
vertex $-1 $561 $787 #
point $-1 59.537741752242411 -12.353609152873766 8.5665762825692635 #
vertex $-1 $565 $788 #
point $-1 59.537741752242411 -9.3244930348714803 8.5665762825692635 #
edge $-1 $718 77.762302121532286 $721 81.94401644198571 $570 $789 forward 7 unknown #
vertex $-1 $584 $790 #
straight-curve $-1 47.781259839917539 1.0160753835224519 12.617792632463136 1 0 0 I I #
edge $-1 $721 -1.2589467104067751 $581 5.808990898265229 $580 $791 forward 7 unknown #
vertex $-1 $720 $792 #
straight-curve $-1 -7.3477442123105305 1.0160753835224519 111.34634220415532 -0.55919289150049634 0 0.82903758062907751 I I #
point $-1 59.245501255225847 1.0160753835224519 12.617792632463136 #
point $-1 62.066103091525008 8.0840129921944559 8.4360783120097125 #
straight-curve $-1 62.066103091525008 0 12.617792632463134 0 1 0 I I #
vertex $-1 $587 $793 #
point $-1 59.537741752242411 3.0354861288573147 8.5665762825692635 #
vertex $-1 $591 $794 #
point $-1 59.537741752242411 6.0646022468596001 8.5665762825692635 #
edge $-1 $731 77.762302121532286 $734 81.94401644198571 $596 $795 forward 7 unknown #
vertex $-1 $610 $796 #
straight-curve $-1 47.781259839917539 16.405170665253532 12.617792632463136 1 0 0 I I #
edge $-1 $734 6.4356009304587651 $607 13.503538539130769 $606 $797 forward 7 unknown #
vertex $-1 $733 $798 #
straight-curve $-1 -7.3477442123105305 16.405170665253532 111.34634220415532 -0.55919289150049634 0 0.82903758062907751 I I #
point $-1 59.245501255225847 16.405170665253532 12.617792632463136 #
point $-1 62.066103091525008 23.473108273925536 8.4360783120097125 #
straight-curve $-1 62.066103091525008 0 12.617792632463134 0 1 0 I I #
vertex $-1 $613 $799 #
point $-1 59.537741752242411 18.424581410588395 8.5665762825692635 #
vertex $-1 $617 $800 #
point $-1 59.537741752242411 21.453697528590681 8.5665762825692635 #
coedge $-1 $744 $623 $750 $801 reversed $448 $-1 #
coedge $-1 $623 $743 $626 $748 forward $448 $-1 #
edge $-1 $746 -21.198086179996302 $631 -14.130148571324302 $630 $802 forward 7 unknown #
vertex $-1 $625 $803 #
straight-curve $-1 19.610695822480203 38.862203555656606 71.378809991780741 -0.55919289150049634 0 0.82903758062907751 I I #
edge $-1 $752 -12.617792632463134 $627 -8.4360783120097018 $626 $804 forward 7 unknown #
point $-1 62.066103091525008 38.862203555656606 8.4360783120097018 #
coedge $-1 $630 $629 $743 $801 forward $621 $-1 #
point $-1 59.245501255225847 31.794265946984606 12.617792632463136 #
vertex $-1 $634 $805 #
straight-curve $-1 62.066103091525008 0 12.617792632463134 0 1 0 I I #
vertex $-1 $637 $806 #
point $-1 59.537741752242411 33.813676692319476 8.5665762825692635 #
vertex $-1 $641 $807 #
point $-1 59.537741752242411 36.842792810321754 8.5665762825692635 #
coedge $-1 $759 $647 $765 $808 reversed $470 $-1 #
coedge $-1 $647 $758 $650 $763 reversed $470 $-1 #
edge $-1 $761 -22.189416408375344 $655 -11.156157886187195 $654 $809 forward 7 unknown #
vertex $-1 $649 $810 #
straight-curve $-1 -43.733007514838818 38.862203555656606 21.640205024390372 -0.80901698891910034 0 -0.5877852598018023 I I #
edge $-1 $651 56.151292567724674 $767 62.066103091525008 $759 $811 forward 7 unknown #
point $-1 -56.151292567724674 38.862203555656613 12.617792632463134 #
coedge $-1 $654 $653 $758 $808 forward $645 $-1 #
point $-1 -62.066103091525008 27.828945033468464 8.3204311579464729 #
vertex $-1 $763 $812 #
straight-curve $-1 -62.066103091525008 0 12.617792632463134 0 -1 0 I I #
vertex $-1 $661 $813 #
point $-1 -55.464026355144831 30.981304611236496 8.004604462045247 #
vertex $-1 $665 $814 #
point $-1 -55.464026355144831 35.709843977888568 8.004604462045247 #
straight-curve $-1 -62.066103091525008 38.862203555656606 0 0 0 -1 I I #
point $-1 -62.066103091525008 -38.862203555656606 -12.617792632463134 #
straight-curve $-1 -62.066103091525008 0 -12.617792632463134 0 1 0 I I #
point $-1 -62.066103091525008 38.862203555656606 -12.617792632463134 #
straight-curve $-1 -39.168480126410337 -15.389095281731077 12.617792632463134 0 1 0 I I #
straight-curve $-1 -39.168480126410337 -15.389095281731077 -12.617792632463134 0 -1 0 I I #
point $-1 -39.168480126410337 -38.862203555656606 -12.617792632463134 #
point $-1 -39.168480126410337 -38.862203555656606 12.617792632463134 #
straight-curve $-1 0 -38.862203555656606 -12.617792632463134 -1 0 0 I I #
straight-curve $-1 0 -38.862203555656606 12.617792632463134 1 0 0 I I #
straight-curve $-1 62.066103091525008 -14.373019898208625 90.380094753995422 0 0 -1 I I #
point $-1 62.066103091525008 -14.373019898208625 12.617792632463134 #
straight-curve $-1 62.066103091525008 -5.4195255469363115 8.4360783120096983 0 1 0 I I #
point $-1 62.066103091525008 -14.373019898208625 8.4360783120097125 #
point $-1 58.14951128011284 -12.353609152873766 8.8364209716978444 #
point $-1 58.14951128011284 -9.3244930348714803 8.8364209716978444 #
straight-curve $-1 62.066103091525008 1.0160753835224519 90.380094753995422 0 0 -1 I I #
point $-1 62.066103091525008 1.0160753835224519 12.617792632463134 #
straight-curve $-1 62.066103091525008 2.2750220939292269 8.4360783120096983 0 1 0 I I #
point $-1 62.066103091525008 1.0160753835224519 8.4360783120097125 #
point $-1 58.14951128011284 3.0354861288573147 8.8364209716978444 #
point $-1 58.14951128011284 6.0646022468596001 8.8364209716978444 #
straight-curve $-1 62.066103091525008 16.405170665253532 90.380094753995422 0 0 -1 I I #
point $-1 62.066103091525008 16.405170665253532 12.617792632463134 #
straight-curve $-1 62.066103091525008 9.9695697347947672 8.4360783120096983 0 1 0 I I #
point $-1 62.066103091525008 16.405170665253532 8.4360783120097125 #
point $-1 58.14951128011284 18.424581410588395 8.8364209716978444 #
point $-1 58.14951128011284 21.453697528590681 8.8364209716978444 #
edge $-1 $752 -62.066103091525008 $746 -59.245501255225847 $743 $815 forward 7 unknown #
straight-curve $-1 59.245501255225861 17.664117375660304 12.617792632463129 0 -1 0 I I #
point $-1 59.245501255225847 38.862203555656606 12.617792632463136 #
straight-curve $-1 62.066103091525008 38.862203555656606 0 0 0 -1 I I #
point $-1 62.066103091525008 38.862203555656606 12.617792632463134 #
point $-1 58.14951128011284 33.813676692319476 8.8364209716978444 #
point $-1 58.14951128011284 36.842792810321754 8.8364209716978444 #
edge $-1 $767 -12.617792632463134 $761 -8.3204311579464729 $758 $816 forward 7 unknown #
straight-curve $-1 -62.066103091525008 16.672787147281269 8.3204311579464765 0 -1 0 I I #
point $-1 -62.066103091525008 38.862203555656613 8.3204311579464729 #
straight-curve $-1 0 38.862203555656606 12.617792632463134 -1 0 0 I I #
point $-1 -62.066103091525008 38.862203555656606 12.617792632463134 #
point $-1 -55.795873948820777 30.981304611236496 5.909401088963893 #
point $-1 -55.795873948820777 35.709843977888568 5.909401088963893 #
straight-curve $-1 0 38.862203555656606 12.617792632463134 -1 0 0 I I #
straight-curve $-1 -62.066103091525008 38.862203555656606 0 0 0 -1 I I #
End-of-ACIS-data 