500 0 12 0           
7 Unknown 11 ACIS 5.0 NT 24 Thu Mar 25 15:26:57 1999 
-1 9.9999999999999995e-007 1e-010 
body $-1 $12 $-1 $13 #
body $-1 $14 $-1 $15 #
body $-1 $16 $-1 $17 #
body $-1 $18 $-1 $19 #
body $-1 $20 $-1 $21 #
body $-1 $22 $-1 $23 #
body $-1 $24 $-1 $25 #
body $-1 $26 $-1 $27 #
body $-1 $28 $-1 $29 #
body $-1 $30 $-1 $31 #
body $-1 $32 $-1 $33 #
body $-1 $34 $-1 $35 #
lump $-1 $-1 $36 $0 #
transform $-1 1 0 0 0 1 0 0 0 1 75.794549394207593 50.033377570471806 15.811048149936351 1 rotate no_reflect no_shear #
lump $-1 $-1 $37 $1 #
transform $-1 1 0 0 0 1 0 0 0 1 75.794549394207593 50.033377570471806 15.811048149936351 1 rotate no_reflect no_shear #
lump $-1 $-1 $38 $2 #
transform $-1 1 0 0 0 1 0 0 0 1 75.794549394207593 50.033377570471806 15.811048149936351 1 rotate no_reflect no_shear #
lump $-1 $-1 $39 $3 #
transform $-1 1 0 0 0 1 0 0 0 1 75.794549394207593 50.033377570471806 15.811048149936351 1 rotate no_reflect no_shear #
lump $-1 $-1 $40 $4 #
transform $-1 1 0 0 0 1 0 0 0 1 75.794549394207593 50.033377570471806 15.811048149936351 1 rotate no_reflect no_shear #
lump $-1 $-1 $41 $5 #
transform $-1 1 0 0 0 1 0 0 0 1 75.794549394207593 50.033377570471806 15.811048149936351 1 rotate no_reflect no_shear #
lump $-1 $-1 $42 $6 #
transform $-1 1 0 0 0 1 0 0 0 1 75.794549394207593 50.033377570471806 15.811048149936351 1 rotate no_reflect no_shear #
lump $-1 $-1 $43 $7 #
transform $-1 1 0 0 0 1 0 0 0 1 75.794549394207593 50.033377570471806 15.811048149936351 1 rotate no_reflect no_shear #
lump $-1 $-1 $44 $8 #
transform $-1 1 0 0 0 1 0 0 0 1 75.794549394207593 50.033377570471806 15.811048149936351 1 rotate no_reflect no_shear #
lump $-1 $-1 $45 $9 #
transform $-1 1 0 0 0 1 0 0 0 1 75.794549394207593 50.033377570471806 15.811048149936351 1 rotate no_reflect no_shear #
lump $-1 $-1 $46 $10 #
transform $-1 1 0 0 0 1 0 0 0 1 75.794549394207593 50.033377570471806 15.811048149936351 1 rotate no_reflect no_shear #
lump $-1 $-1 $47 $11 #
transform $-1 1 0 0 0 1 0 0 0 1 75.794549394207593 50.033377570471806 15.811048149936351 1 rotate no_reflect no_shear #
shell $-1 $-1 $-1 $48 $-1 $12 #
shell $-1 $-1 $-1 $49 $-1 $14 #
shell $-1 $-1 $-1 $50 $-1 $16 #
shell $-1 $-1 $-1 $51 $-1 $18 #
shell $-1 $-1 $-1 $52 $-1 $20 #
shell $-1 $-1 $-1 $53 $-1 $22 #
shell $-1 $-1 $-1 $54 $-1 $24 #
shell $-1 $-1 $-1 $55 $-1 $26 #
shell $-1 $-1 $-1 $56 $-1 $28 #
shell $-1 $-1 $-1 $57 $-1 $30 #
shell $-1 $-1 $-1 $58 $-1 $32 #
shell $-1 $-1 $-1 $59 $-1 $34 #
face $-1 $60 $61 $36 $-1 $62 forward single #
face $-1 $63 $64 $37 $-1 $65 forward single #
face $-1 $66 $67 $38 $-1 $68 reversed single #
face $-1 $69 $70 $39 $-1 $71 forward single #
face $-1 $72 $73 $40 $-1 $74 forward single #
face $-1 $75 $76 $41 $-1 $77 forward single #
face $-1 $78 $79 $42 $-1 $80 reversed single #
face $-1 $81 $82 $43 $-1 $83 forward single #
face $-1 $84 $85 $44 $-1 $86 forward single #
face $-1 $87 $88 $45 $-1 $89 reversed single #
face $-1 $90 $91 $46 $-1 $92 forward single #
face $-1 $93 $94 $47 $-1 $95 forward single #
face $-1 $96 $97 $36 $-1 $98 reversed single #
loop $-1 $-1 $99 $48 #
plane-surface $-1 0 0 15.811048149936351 0 0 1 1 0 0 forward_v I I I I #
face $-1 $100 $101 $37 $-1 $102 reversed single #
loop $-1 $-1 $103 $49 #
plane-surface $-1 -67.11513948491374 0 13.041439252888365 0 0 1 1 0 0 forward_v I I I I #
face $-1 $104 $105 $38 $-1 $106 reversed single #
loop $-1 $-1 $107 $50 #
plane-surface $-1 28.154249852641094 -132.59471913511049 130.22357411457054 1 0 0 0 0.54463904215088732 -0.83867056331134215 forward_v I I I I #
face $-1 $108 $109 $39 $-1 $110 forward single #
loop $-1 $111 $112 $51 #
cone-surface $-1 32.292624205523552 -39.813027144564835 8.7943601307377168 0 0.54463904215088732 -0.83867056331134215 1 0 0 1 I I 0 1 1 forward I I I I #
face $-1 $113 $114 $40 $-1 $115 forward single #
loop $-1 $116 $117 $52 #
cone-surface $-1 38.500185734847221 -39.813027144564835 8.7943601307377168 0 0.54463904215088732 -0.83867056331134215 1 0 0 1 I I 0 1 1 forward I I I I #
face $-1 $118 $119 $41 $-1 $120 forward single #
loop $-1 $121 $122 $53 #
cone-surface $-1 44.707747264170891 -39.813027144564835 8.7943601307377168 0 0.54463904215088732 -0.83867056331134215 1 0 0 1 I I 0 1 1 forward I I I I #
face $-1 $123 $124 $42 $-1 $125 reversed single #
loop $-1 $-1 $126 $54 #
plane-surface $-1 -52.672079570821431 116.81196731937902 171.91502857218919 1 0 0 0 -0.81915205242281985 -0.57357642473473569 forward_v I I I I #
face $-1 $127 $128 $43 $-1 $129 forward single #
loop $-1 $130 $131 $55 #
cone-surface $-1 -44.584226702967854 44.484171044798934 8.6597842769373248 0 -0.81915205242281985 -0.57357642473473569 2.5 0 0 1 I I 0 1 2.5 forward I I I I #
face $-1 $132 $133 $44 $-1 $134 forward single #
loop $-1 $135 $136 $56 #
cone-surface $-1 -32.452447401187499 44.484171044798934 8.6597842769373248 0 -0.81915205242281985 -0.57357642473473569 2.5 0 0 1 I I 0 1 2.5 forward I I I I #
face $-1 $137 $138 $45 $-1 $139 reversed single #
loop $-1 $-1 $140 $57 #
plane-surface $-1 41.723414351921619 116.81196731937902 171.91502857218919 1 0 0 0 -0.81915205242281985 -0.57357642473473569 forward_v I I I I #
face $-1 $141 $142 $46 $-1 $143 forward single #
loop $-1 $144 $145 $58 #
cone-surface $-1 49.811267219775203 44.484171044798934 8.6597842769373248 0 -0.81915205242281985 -0.57357642473473569 2.5 0 0 1 I I 0 1 2.5 forward I I I I #
face $-1 $146 $147 $47 $-1 $148 forward single #
loop $-1 $149 $150 $59 #
cone-surface $-1 61.943046521555573 44.484171044798934 8.6597842769373248 0 -0.81915205242281985 -0.57357642473473569 2.5 0 0 1 I I 0 1 2.5 forward I I I I #
face $-1 $151 $152 $36 $-1 $153 reversed single #
loop $-1 $-1 $154 $60 #
plane-surface $-1 0 0 -15.811048149936351 0 0 1 1 0 0 forward_v I I I I #
coedge $-1 $155 $156 $157 $158 forward $61 $-1 #
face $-1 $159 $160 $37 $-1 $161 reversed single #
loop $-1 $-1 $162 $63 #
plane-surface $-1 -67.11513948491374 0 8.1818834217775223 0 0 1 1 0 0 forward_v I I I I #
coedge $-1 $163 $164 $165 $166 forward $64 $-1 #
face $-1 $167 $168 $38 $-1 $169 reversed single #
loop $-1 $-1 $170 $66 #
plane-surface $-1 38.500185734847207 -50.033377570471814 3.0902592418316743 0 -0.54463904215088732 0.83867056331134215 1 0 0 forward_v I I I I #
coedge $-1 $171 $172 $173 $174 reversed $67 $-1 #
face $-1 $-1 $175 $39 $-1 $176 forward single #
loop $-1 $177 $178 $69 #
cone-surface $-1 32.292624205523552 -39.114505590977657 7.718731283935778 0 0.54463904215088732 -0.83867056331134215 0.5 0 0 1 I I -0.70710678118654746 0.70710678118654746 0.5 forward I I I I #
loop $-1 $-1 $179 $51 #
coedge $-1 $112 $112 $180 $181 reversed $70 $-1 #
face $-1 $-1 $182 $40 $-1 $183 forward single #
loop $-1 $184 $185 $72 #
cone-surface $-1 38.500185734847221 -39.114505590977657 7.718731283935778 0 0.54463904215088732 -0.83867056331134215 0.5 0 0 1 I I -0.70710678118654746 0.70710678118654746 0.5 forward I I I I #
loop $-1 $-1 $186 $52 #
coedge $-1 $117 $117 $187 $188 reversed $73 $-1 #
face $-1 $-1 $189 $41 $-1 $190 forward single #
loop $-1 $191 $192 $75 #
cone-surface $-1 44.707747264170891 -39.114505590977657 7.718731283935778 0 0.54463904215088732 -0.83867056331134215 0.5 0 0 1 I I -0.70710678118654746 0.70710678118654746 0.5 forward I I I I #
loop $-1 $-1 $193 $53 #
coedge $-1 $122 $122 $194 $195 reversed $76 $-1 #
face $-1 $196 $197 $42 $-1 $198 reversed single #
loop $-1 $-1 $199 $78 #
plane-surface $-1 -38.518337052077676 -7.3625540780768688 84.967095260369348 0 0.81915205242281985 0.57357642473473569 1 0 0 forward_v I I I I #
coedge $-1 $200 $201 $202 $203 reversed $79 $-1 #
face $-1 $-1 $204 $43 $-1 $205 forward single #
loop $-1 $206 $207 $81 #
cone-surface $-1 -44.584226702967854 42.397198258876436 7.1984702443012374 0 -0.81915205242281985 -0.57357642473473569 1.25 0 0 1 I I -0.70710678118654746 0.70710678118654746 1.25 forward I I I I #
loop $-1 $-1 $208 $55 #
coedge $-1 $131 $131 $209 $210 reversed $82 $-1 #
face $-1 $-1 $211 $44 $-1 $212 forward single #
loop $-1 $213 $214 $84 #
cone-surface $-1 -32.452447401187499 42.397198258876436 7.1984702443012374 0 -0.81915205242281985 -0.57357642473473569 1.25 0 0 1 I I -0.70710678118654746 0.70710678118654746 1.25 forward I I I I #
loop $-1 $-1 $215 $56 #
coedge $-1 $136 $136 $216 $217 reversed $85 $-1 #
face $-1 $218 $219 $45 $-1 $220 reversed single #
loop $-1 $-1 $221 $87 #
plane-surface $-1 55.877156870665374 -7.3625540780768688 84.967095260369348 0 0.81915205242281985 0.57357642473473569 1 0 0 forward_v I I I I #
coedge $-1 $222 $223 $224 $225 reversed $88 $-1 #
face $-1 $-1 $226 $46 $-1 $227 forward single #
loop $-1 $228 $229 $90 #
cone-surface $-1 49.811267219775203 42.397198258876436 7.1984702443012374 0 -0.81915205242281985 -0.57357642473473569 1.25 0 0 1 I I -0.70710678118654746 0.70710678118654746 1.25 forward I I I I #
loop $-1 $-1 $230 $58 #
coedge $-1 $145 $145 $231 $232 reversed $91 $-1 #
face $-1 $-1 $233 $47 $-1 $234 forward single #
loop $-1 $235 $236 $93 #
cone-surface $-1 61.943046521555573 42.397198258876436 7.1984702443012374 0 -0.81915205242281985 -0.57357642473473569 1.25 0 0 1 I I -0.70710678118654746 0.70710678118654746 1.25 forward I I I I #
loop $-1 $-1 $237 $59 #
coedge $-1 $150 $150 $238 $239 reversed $94 $-1 #
face $-1 $240 $241 $36 $-1 $242 reversed single #
loop $-1 $-1 $243 $96 #
plane-surface $-1 0 -50.033377570471806 0 0 1 0 0 0 1 forward_v I I I I #
coedge $-1 $244 $245 $246 $247 forward $97 $-1 #
coedge $-1 $248 $99 $249 $250 forward $61 $-1 #
coedge $-1 $99 $248 $251 $252 forward $61 $-1 #
coedge $-1 $253 $254 $99 $158 reversed $255 $-1 #
edge $-1 $256 -50.033377570471806 $257 50.033377570471806 $157 $258 forward 7 unknown #
face $-1 $259 $260 $37 $-1 $261 reversed single #
loop $-1 $-1 $262 $100 #
plane-surface $-1 -58.435729575619888 0 10.611661337332944 -1 0 0 0 0 1 forward_v I I I I #
coedge $-1 $263 $264 $265 $266 forward $101 $-1 #
coedge $-1 $267 $103 $268 $269 reversed $64 $-1 #
coedge $-1 $103 $267 $270 $271 reversed $64 $-1 #
coedge $-1 $262 $272 $103 $166 reversed $160 $-1 #
edge $-1 $273 -50.033377570471806 $274 50.033377570471806 $165 $275 forward 7 unknown #
face $-1 $276 $277 $38 $-1 $278 forward single #
loop $-1 $-1 $279 $104 #
plane-surface $-1 48.846121617053321 -132.59471913511049 130.22357411457054 -1 0 0 0 -0.54463904215088732 0.83867056331134215 forward_v I I I I #
coedge $-1 $280 $281 $282 $283 reversed $105 $-1 #
coedge $-1 $172 $107 $284 $285 reversed $67 $-1 #
coedge $-1 $107 $171 $280 $286 reversed $67 $-1 #
coedge $-1 $282 $287 $107 $174 forward $288 $-1 #
edge $-1 $289 49.300738907348915 $290 62.021527815453588 $173 $291 forward 7 unknown #
loop $-1 $-1 $180 $108 #
plane-surface $-1 38.500185734847207 -50.033377570471814 3.0902592418316743 0 -0.54463904215088732 0.83867056331134215 1 0 0 forward_v I I I I #
loop $-1 $-1 $292 $69 #
coedge $-1 $178 $178 $179 $293 reversed $109 $-1 #
coedge $-1 $179 $179 $178 $293 forward $111 $-1 #
coedge $-1 $180 $180 $112 $181 forward $175 $-1 #
edge $-1 $294 6.1709215756909538e-016 $294 6.2831853071796013 $180 $295 forward 7 unknown #
loop $-1 $-1 $187 $113 #
plane-surface $-1 38.500185734847207 -50.033377570471814 3.0902592418316743 0 -0.54463904215088732 0.83867056331134215 1 0 0 forward_v I I I I #
loop $-1 $-1 $296 $72 #
coedge $-1 $185 $185 $186 $297 reversed $114 $-1 #
coedge $-1 $186 $186 $185 $297 forward $116 $-1 #
coedge $-1 $187 $187 $117 $188 forward $182 $-1 #
edge $-1 $298 6.1709215756909538e-016 $298 6.2831853071796013 $187 $299 forward 7 unknown #
loop $-1 $-1 $194 $118 #
plane-surface $-1 38.500185734847207 -50.033377570471814 3.0902592418316743 0 -0.54463904215088732 0.83867056331134215 1 0 0 forward_v I I I I #
loop $-1 $-1 $300 $75 #
coedge $-1 $192 $192 $193 $301 reversed $119 $-1 #
coedge $-1 $193 $193 $192 $301 forward $121 $-1 #
coedge $-1 $194 $194 $122 $195 forward $189 $-1 #
edge $-1 $302 6.1709215756909538e-016 $302 6.2831853071796013 $194 $303 forward 7 unknown #
face $-1 $304 $305 $42 $-1 $306 reversed single #
loop $-1 $-1 $307 $123 #
plane-surface $-1 -24.364594533333921 116.81196731937902 171.91502857218919 -1 0 0 0 0.81915205242281985 0.57357642473473569 forward_v I I I I #
coedge $-1 $308 $309 $310 $311 reversed $124 $-1 #
coedge $-1 $201 $126 $312 $313 reversed $79 $-1 #
coedge $-1 $126 $200 $308 $314 reversed $79 $-1 #
coedge $-1 $310 $315 $126 $203 forward $316 $-1 #
edge $-1 $317 8.3726060892177046 $318 17.34495369977553 $202 $319 forward 7 unknown #
loop $-1 $-1 $209 $127 #
plane-surface $-1 -38.518337052077676 -7.3625540780768688 84.967095260369348 0 0.81915205242281985 0.57357642473473569 1 0 0 forward_v I I I I #
loop $-1 $-1 $320 $81 #
coedge $-1 $207 $207 $208 $321 reversed $128 $-1 #
coedge $-1 $208 $208 $207 $321 forward $130 $-1 #
coedge $-1 $209 $209 $131 $210 forward $204 $-1 #
edge $-1 $322 3.5019179432807313e-016 $322 6.2831853071796004 $209 $323 forward 7 unknown #
loop $-1 $-1 $216 $132 #
plane-surface $-1 -38.518337052077676 -7.3625540780768688 84.967095260369348 0 0.81915205242281985 0.57357642473473569 1 0 0 forward_v I I I I #
loop $-1 $-1 $324 $84 #
coedge $-1 $214 $214 $215 $325 reversed $133 $-1 #
coedge $-1 $215 $215 $214 $325 forward $135 $-1 #
coedge $-1 $216 $216 $136 $217 forward $211 $-1 #
edge $-1 $326 3.5019179432807313e-016 $326 6.2831853071796004 $216 $327 forward 7 unknown #
face $-1 $328 $329 $45 $-1 $330 forward single #
loop $-1 $-1 $331 $137 #
plane-surface $-1 70.030899389409129 116.81196731937902 171.91502857218919 -1 0 0 0 0.81915205242281985 0.57357642473473569 forward_v I I I I #
coedge $-1 $332 $333 $334 $335 reversed $138 $-1 #
coedge $-1 $223 $140 $336 $337 reversed $88 $-1 #
coedge $-1 $140 $222 $332 $338 reversed $88 $-1 #
coedge $-1 $334 $339 $140 $225 forward $329 $-1 #
edge $-1 $340 8.3726060892177046 $341 17.34495369977553 $224 $342 forward 7 unknown #
loop $-1 $-1 $231 $141 #
plane-surface $-1 55.877156870665374 -7.3625540780768688 84.967095260369348 0 0.81915205242281985 0.57357642473473569 1 0 0 forward_v I I I I #
loop $-1 $-1 $343 $90 #
coedge $-1 $229 $229 $230 $344 reversed $142 $-1 #
coedge $-1 $230 $230 $229 $344 forward $144 $-1 #
coedge $-1 $231 $231 $145 $232 forward $226 $-1 #
edge $-1 $345 3.5019179432807313e-016 $345 6.2831853071796004 $231 $346 forward 7 unknown #
loop $-1 $-1 $238 $146 #
plane-surface $-1 55.877156870665374 -7.3625540780768688 84.967095260369348 0 0.81915205242281985 0.57357642473473569 1 0 0 forward_v I I I I #
loop $-1 $-1 $347 $93 #
coedge $-1 $236 $236 $237 $348 reversed $147 $-1 #
coedge $-1 $237 $237 $236 $348 forward $149 $-1 #
coedge $-1 $238 $238 $150 $239 forward $233 $-1 #
edge $-1 $349 3.5019179432807313e-016 $349 6.2831853071796004 $238 $350 forward 7 unknown #
face $-1 $351 $352 $36 $-1 $353 reversed single #
loop $-1 $-1 $354 $151 #
plane-surface $-1 -75.794549394207593 0 0 1 0 0 0 0 -1 forward_v I I I I #
coedge $-1 $355 $251 $356 $357 forward $152 $-1 #
coedge $-1 $358 $154 $355 $359 forward $97 $-1 #
coedge $-1 $154 $358 $360 $361 forward $97 $-1 #
coedge $-1 $254 $253 $154 $247 reversed $255 $-1 #
edge $-1 $362 -50.033377570471806 $363 50.033377570471806 $246 $364 forward 7 unknown #
coedge $-1 $156 $155 $365 $366 forward $61 $-1 #
coedge $-1 $367 $368 $155 $250 reversed $352 $-1 #
edge $-1 $257 -75.794549394207593 $369 75.794549394207593 $249 $370 forward 7 unknown #
coedge $-1 $243 $371 $156 $252 reversed $152 $-1 #
edge $-1 $372 -75.794549394207593 $256 75.794549394207593 $251 $373 forward 7 unknown #
coedge $-1 $246 $157 $371 $374 forward $255 $-1 #
coedge $-1 $157 $246 $367 $375 reversed $255 $-1 #
loop $-1 $-1 $253 $351 #
vertex $-1 $158 $376 #
vertex $-1 $158 $377 #
straight-curve $-1 75.794549394207593 0 15.811048149936351 0 1 0 I I #
face $-1 $378 $379 $37 $-1 $380 reversed single #
loop $-1 $-1 $381 $159 #
plane-surface $-1 0 -50.033377570471806 0 0 1 0 0 0 1 forward_v I I I I #
coedge $-1 $265 $165 $382 $383 reversed $160 $-1 #
coedge $-1 $384 $162 $381 $385 reversed $101 $-1 #
coedge $-1 $162 $384 $386 $387 reversed $101 $-1 #
coedge $-1 $272 $262 $162 $266 reversed $160 $-1 #
edge $-1 $388 -50.033377570471806 $389 50.033377570471806 $265 $390 forward 7 unknown #
coedge $-1 $164 $163 $391 $392 reversed $64 $-1 #
coedge $-1 $393 $394 $163 $269 forward $395 $-1 #
edge $-1 $396 -42.236979651750723 $274 -24.878159833163018 $268 $397 forward 7 unknown #
coedge $-1 $398 $382 $164 $271 forward $260 $-1 #
edge $-1 $273 24.878159833163018 $399 42.236979651750723 $270 $400 forward 7 unknown #
coedge $-1 $165 $265 $393 $401 reversed $160 $-1 #
vertex $-1 $271 $402 #
vertex $-1 $269 $403 #
straight-curve $-1 -58.435729575619888 0 13.041439252888365 0 1 0 I I #
face $-1 $-1 $288 $38 $-1 $404 reversed single #
loop $-1 $-1 $405 $167 #
plane-surface $-1 0 0 15.811048149936351 0 0 1 1 0 0 forward_v I I I I #
coedge $-1 $406 $407 $408 $409 reversed $168 $-1 #
coedge $-1 $410 $170 $172 $286 forward $105 $-1 #
coedge $-1 $170 $410 $406 $411 forward $105 $-1 #
coedge $-1 $408 $173 $170 $283 forward $288 $-1 #
edge $-1 $290 8.9041569852174902 $412 29.596028749629717 $282 $413 forward 7 unknown #
coedge $-1 $414 $415 $171 $285 forward $277 $-1 #
edge $-1 $416 -35.852278783873828 $289 -16.263981997083441 $284 $417 forward 7 unknown #
edge $-1 $290 8.3777959833898778e-015 $416 23.356366186801015 $172 $418 forward 7 unknown #
coedge $-1 $173 $408 $414 $419 reversed $288 $-1 #
loop $-1 $-1 $408 $276 #
vertex $-1 $419 $420 #
vertex $-1 $174 $421 #
straight-curve $-1 28.154249852641094 -50.033377570471806 65.111787057285269 0 0 -1 I I #
coedge $-1 $292 $292 $-1 $422 reversed $177 $-1 #
edge $-1 $423 0 $423 6.2831853071796004 $178 $424 forward 7 unknown #
vertex $-1 $181 $425 #
ellipse-curve $-1 32.292624205523552 -40.239229177076595 9.4506536958840286 0 -0.54463904215088732 0.83867056331134215 1 0 0 1 I I #
coedge $-1 $296 $296 $-1 $426 reversed $184 $-1 #
edge $-1 $427 0 $427 6.2831853071796004 $185 $428 forward 7 unknown #
vertex $-1 $188 $429 #
ellipse-curve $-1 38.500185734847221 -40.239229177076595 9.4506536958840286 0 -0.54463904215088732 0.83867056331134215 1 0 0 1 I I #
coedge $-1 $300 $300 $-1 $430 reversed $191 $-1 #
edge $-1 $431 0 $431 6.2831853071796004 $192 $432 forward 7 unknown #
vertex $-1 $195 $433 #
ellipse-curve $-1 44.707747264170891 -40.239229177076595 9.4506536958840286 0 -0.54463904215088732 0.83867056331134215 1 0 0 1 I I #
face $-1 $-1 $316 $42 $-1 $434 forward single #
loop $-1 $-1 $435 $196 #
plane-surface $-1 0 50.033377570471806 0 0 -1 0 0 0 -1 forward_v I I I I #
coedge $-1 $436 $437 $438 $439 reversed $197 $-1 #
coedge $-1 $440 $199 $201 $314 forward $124 $-1 #
coedge $-1 $199 $440 $436 $441 forward $124 $-1 #
coedge $-1 $438 $202 $199 $311 forward $316 $-1 #
edge $-1 $318 -33.412911044782589 $442 -5.1054260072950832 $310 $443 forward 7 unknown #
coedge $-1 $444 $445 $200 $313 forward $305 $-1 #
edge $-1 $446 -82.960306878720971 $317 -70.146466136158239 $312 $447 forward 7 unknown #
edge $-1 $318 84.423944133313213 $446 100.06675514094363 $201 $448 forward 7 unknown #
coedge $-1 $202 $438 $444 $449 forward $316 $-1 #
loop $-1 $-1 $438 $304 #
vertex $-1 $313 $450 #
vertex $-1 $203 $451 #
straight-curve $-1 -52.672079570821431 58.405983659689511 15.811048149936354 0 -1 0 I I #
coedge $-1 $320 $320 $-1 $452 reversed $206 $-1 #
edge $-1 $453 0 $453 6.2831853071796004 $207 $454 forward 7 unknown #
vertex $-1 $210 $455 #
ellipse-curve $-1 -44.584226702967854 45.547203765192897 9.4041277786549831 0 0.81915205242281985 0.57357642473473569 2.5 0 0 1 I I #
coedge $-1 $324 $324 $-1 $456 reversed $213 $-1 #
edge $-1 $457 0 $457 6.2831853071796004 $214 $458 forward 7 unknown #
vertex $-1 $217 $459 #
ellipse-curve $-1 -32.452447401187499 45.547203765192897 9.4041277786549831 0 0.81915205242281985 0.57357642473473569 2.5 0 0 1 I I #
face $-1 $-1 $460 $45 $-1 $461 reversed single #
loop $-1 $-1 $224 $218 #
plane-surface $-1 0 0 15.811048149936351 0 0 1 1 0 0 forward_v I I I I #
coedge $-1 $462 $463 $464 $465 reversed $219 $-1 #
coedge $-1 $466 $221 $223 $338 forward $138 $-1 #
coedge $-1 $221 $466 $462 $467 forward $138 $-1 #
coedge $-1 $464 $224 $221 $335 forward $329 $-1 #
edge $-1 $341 13.784835916588932 $468 42.092320954076442 $334 $469 forward 7 unknown #
coedge $-1 $470 $471 $222 $337 forward $460 $-1 #
edge $-1 $472 -82.960306878720971 $340 -70.146466136158239 $336 $473 forward 7 unknown #
edge $-1 $341 84.423944133313213 $472 100.06675514094363 $223 $474 forward 7 unknown #
coedge $-1 $224 $464 $470 $475 forward $329 $-1 #
vertex $-1 $225 $476 #
vertex $-1 $225 $477 #
straight-curve $-1 41.723414351921619 58.405983659689511 15.811048149936354 0 -1 0 I I #
coedge $-1 $343 $343 $-1 $478 reversed $228 $-1 #
edge $-1 $479 0 $479 6.2831853071796004 $229 $480 forward 7 unknown #
vertex $-1 $232 $481 #
ellipse-curve $-1 49.811267219775203 45.547203765192897 9.4041277786549831 0 0.81915205242281985 0.57357642473473569 2.5 0 0 1 I I #
coedge $-1 $347 $347 $-1 $482 reversed $235 $-1 #
edge $-1 $483 0 $483 6.2831853071796004 $236 $484 forward 7 unknown #
vertex $-1 $239 $485 #
ellipse-curve $-1 61.943046521555573 45.547203765192897 9.4041277786549831 0 0.81915205242281985 0.57357642473473569 2.5 0 0 1 I I #
face $-1 $-1 $255 $36 $-1 $486 reversed single #
loop $-1 $-1 $367 $240 #
plane-surface $-1 0 50.033377570471806 0 0 -1 0 0 0 -1 forward_v I I I I #
coedge $-1 $487 $365 $368 $488 forward $241 $-1 #
coedge $-1 $371 $243 $244 $359 reversed $152 $-1 #
coedge $-1 $365 $487 $243 $357 reversed $241 $-1 #
edge $-1 $372 -15.811048149936351 $489 15.811048149936351 $356 $490 forward 7 unknown #
coedge $-1 $245 $244 $487 $491 forward $97 $-1 #
edge $-1 $363 -75.794549394207593 $489 75.794549394207593 $355 $492 forward 7 unknown #
coedge $-1 $368 $367 $245 $361 reversed $352 $-1 #
edge $-1 $493 -75.794549394207593 $362 75.794549394207593 $360 $494 forward 7 unknown #
vertex $-1 $247 $495 #
vertex $-1 $374 $496 #
straight-curve $-1 75.794549394207593 0 -15.811048149936351 0 -1 0 I I #
coedge $-1 $354 $356 $248 $366 reversed $241 $-1 #
edge $-1 $369 -50.033377570471806 $372 50.033377570471806 $365 $497 forward 7 unknown #
coedge $-1 $360 $249 $254 $375 forward $352 $-1 #
coedge $-1 $249 $360 $354 $488 reversed $352 $-1 #
vertex $-1 $250 $498 #
straight-curve $-1 0 50.033377570471806 15.811048149936351 -1 0 0 I I #
coedge $-1 $251 $355 $253 $374 reversed $152 $-1 #
vertex $-1 $366 $499 #
straight-curve $-1 0 -50.033377570471806 15.811048149936351 1 0 0 I I #
edge $-1 $256 -15.811048149936351 $363 15.811048149936351 $253 $500 forward 7 unknown #
edge $-1 $257 -15.811048149936351 $362 15.811048149936351 $254 $501 forward 7 unknown #
point $-1 75.794549394207593 -50.033377570471806 15.811048149936351 #
point $-1 75.794549394207593 50.033377570471806 15.811048149936351 #
face $-1 $-1 $395 $37 $-1 $502 reversed single #
loop $-1 $-1 $503 $259 #
plane-surface $-1 -75.794549394207593 0 0 1 0 0 0 0 -1 forward_v I I I I #
coedge $-1 $382 $398 $263 $385 forward $260 $-1 #
coedge $-1 $270 $381 $262 $383 forward $260 $-1 #
edge $-1 $389 2.8760527531110505 $273 7.7356085842218931 $382 $504 forward 7 unknown #
coedge $-1 $264 $263 $503 $505 reversed $101 $-1 #
edge $-1 $506 -42.236979651750723 $389 -24.878159833163018 $381 $507 forward 7 unknown #
coedge $-1 $394 $393 $264 $387 forward $395 $-1 #
edge $-1 $388 24.878159833163018 $508 42.236979651750723 $386 $509 forward 7 unknown #
vertex $-1 $387 $510 #
vertex $-1 $385 $511 #
straight-curve $-1 -58.435729575619888 0 8.1818834217775223 0 -1 0 I I #
coedge $-1 $512 $513 $267 $392 forward $379 $-1 #
edge $-1 $399 -50.033377570471806 $396 50.033377570471806 $391 $514 forward 7 unknown #
coedge $-1 $386 $268 $272 $401 forward $395 $-1 #
coedge $-1 $268 $386 $512 $515 reversed $395 $-1 #
loop $-1 $-1 $386 $378 #
vertex $-1 $515 $516 #
straight-curve $-1 -33.55756974245687 50.033377570471806 13.041439252888365 1 0 0 I I #
coedge $-1 $381 $270 $513 $517 forward $260 $-1 #
vertex $-1 $517 $518 #
straight-curve $-1 -33.55756974245687 -50.033377570471806 13.041439252888365 -1 0 0 I I #
edge $-1 $274 -7.7356085842218931 $388 -2.8760527531110505 $393 $519 forward 7 unknown #
point $-1 -58.435729575619888 -50.033377570471806 13.041439252888365 #
point $-1 -58.435729575619888 50.033377570471806 13.041439252888365 #
plane-surface $-1 0 -50.033377570471806 0 0 1 0 0 0 1 forward_v I I I I #
coedge $-1 $415 $414 $407 $520 forward $277 $-1 #
coedge $-1 $407 $279 $281 $411 reversed $168 $-1 #
coedge $-1 $279 $406 $405 $520 reversed $168 $-1 #
coedge $-1 $287 $282 $279 $409 forward $288 $-1 #
edge $-1 $412 -62.021527815453588 $521 -49.300738907348915 $408 $522 forward 7 unknown #
coedge $-1 $281 $280 $415 $523 reversed $105 $-1 #
edge $-1 $524 -23.356366186801015 $412 -8.3777959833898778e-015 $406 $525 forward 7 unknown #
vertex $-1 $283 $526 #
straight-curve $-1 19.250092867423604 -50.033377570471806 3.0902592418316823 1 0 0 I I #
coedge $-1 $405 $284 $287 $419 forward $277 $-1 #
coedge $-1 $284 $405 $410 $523 forward $277 $-1 #
vertex $-1 $285 $527 #
straight-curve $-1 28.154249852641094 -66.297359567555247 15.811048149936354 0 -1 0 I I #
straight-curve $-1 28.154249852641094 -50.033377570471814 3.0902592418316743 0 0.83867056331134215 0.54463904215088732 I I #
edge $-1 $289 28.154249852641094 $521 48.846121617053321 $287 $528 forward 7 unknown #
point $-1 28.154249852641094 -50.033377570471806 15.811048149936351 #
point $-1 28.154249852641094 -50.033377570471806 3.0902592418316788 #
edge $-1 $529 1 $529 0 $292 $-1 forward 7 unknown #
vertex $-1 $293 $530 #
ellipse-curve $-1 32.292624205523552 -39.386825112053103 8.1380665655914495 0 -0.54463904215088732 0.83867056331134215 1 0 0 1 I I #
point $-1 33.292624205523552 -40.239229177076567 9.450653695883986 #
edge $-1 $531 1 $531 0 $296 $-1 forward 7 unknown #
vertex $-1 $297 $532 #
ellipse-curve $-1 38.500185734847221 -39.386825112053103 8.1380665655914495 0 -0.54463904215088732 0.83867056331134215 1 0 0 1 I I #
point $-1 39.500185734847221 -40.239229177076567 9.450653695883986 #
edge $-1 $533 1 $533 0 $300 $-1 forward 7 unknown #
vertex $-1 $301 $534 #
ellipse-curve $-1 44.707747264170891 -39.386825112053103 8.1380665655914495 0 -0.54463904215088732 0.83867056331134215 1 0 0 1 I I #
point $-1 45.707747264170891 -40.239229177076567 9.450653695883986 #
plane-surface $-1 0 0 15.811048149936351 0 0 1 1 0 0 forward_v I I I I #
coedge $-1 $445 $444 $437 $535 forward $305 $-1 #
coedge $-1 $437 $307 $309 $441 reversed $197 $-1 #
coedge $-1 $307 $436 $435 $535 reversed $197 $-1 #
coedge $-1 $315 $310 $307 $439 forward $316 $-1 #
edge $-1 $442 -17.34495369977553 $536 -8.3726060892177046 $438 $537 forward 7 unknown #
coedge $-1 $309 $308 $445 $538 reversed $124 $-1 #
edge $-1 $539 -100.06675514094363 $442 -84.423944133313213 $436 $540 forward 7 unknown #
vertex $-1 $311 $541 #
straight-curve $-1 -19.259168526038838 41.061029959913988 15.811048149936354 1 0 0 I I #
coedge $-1 $435 $312 $315 $449 reversed $305 $-1 #
coedge $-1 $312 $435 $440 $538 forward $305 $-1 #
vertex $-1 $313 $542 #
straight-curve $-1 -52.672079570821431 50.033377570471806 85.957514286094593 0 0 1 I I #
straight-curve $-1 -52.672079570821431 -7.3625540780768688 84.967095260369348 0 0.57357642473473569 -0.81915205242281985 I I #
edge $-1 $536 24.364594533333921 $317 52.672079570821431 $444 $543 forward 7 unknown #
point $-1 -52.672079570821431 50.033377570471806 15.811048149936351 #
point $-1 -52.672079570821431 41.061029959913981 15.811048149936354 #
edge $-1 $544 1 $544 0 $320 $-1 forward 7 unknown #
vertex $-1 $321 $545 #
ellipse-curve $-1 -44.584226702967854 43.421138324404964 7.9154407752196567 0 0.81915205242281985 0.57357642473473569 2.5 0 0 1 I I #
point $-1 -42.084226702967854 45.547203765192911 9.4041277786549919 #
edge $-1 $546 1 $546 0 $324 $-1 forward 7 unknown #
vertex $-1 $325 $547 #
ellipse-curve $-1 -32.452447401187499 43.421138324404964 7.9154407752196567 0 0.81915205242281985 0.57357642473473569 2.5 0 0 1 I I #
point $-1 -29.952447401187499 45.547203765192911 9.4041277786549919 #
loop $-1 $-1 $336 $328 #
plane-surface $-1 0 50.033377570471806 0 0 -1 0 0 0 -1 forward_v I I I I #
coedge $-1 $463 $331 $333 $467 reversed $219 $-1 #
coedge $-1 $331 $462 $548 $549 reversed $219 $-1 #
coedge $-1 $339 $334 $331 $465 forward $329 $-1 #
edge $-1 $468 -17.34495369977553 $550 -8.3726060892177046 $464 $551 forward 7 unknown #
coedge $-1 $333 $332 $471 $552 reversed $138 $-1 #
edge $-1 $553 -100.06675514094363 $468 -84.423944133313213 $462 $554 forward 7 unknown #
vertex $-1 $335 $555 #
straight-curve $-1 27.938578435332687 41.061029959913988 15.811048149936354 1 0 0 I I #
coedge $-1 $548 $336 $339 $475 reversed $460 $-1 #
coedge $-1 $336 $548 $466 $552 forward $460 $-1 #
vertex $-1 $337 $556 #
straight-curve $-1 41.723414351921619 50.033377570471806 85.957514286094593 0 0 1 I I #
straight-curve $-1 41.723414351921619 -7.3625540780768688 84.967095260369348 0 0.57357642473473569 -0.81915205242281985 I I #
edge $-1 $550 -70.030899389409129 $340 -41.723414351921619 $470 $557 forward 7 unknown #
point $-1 41.723414351921619 50.033377570471806 15.811048149936351 #
point $-1 41.723414351921619 41.061029959913981 15.811048149936354 #
edge $-1 $558 1 $558 0 $343 $-1 forward 7 unknown #
vertex $-1 $344 $559 #
ellipse-curve $-1 49.811267219775203 43.421138324404964 7.9154407752196567 0 0.81915205242281985 0.57357642473473569 2.5 0 0 1 I I #
point $-1 52.311267219775203 45.547203765192911 9.4041277786549919 #
edge $-1 $560 1 $560 0 $347 $-1 forward 7 unknown #
vertex $-1 $348 $561 #
ellipse-curve $-1 61.943046521555573 43.421138324404964 7.9154407752196567 0 0.81915205242281985 0.57357642473473569 2.5 0 0 1 I I #
point $-1 64.443046521555573 45.547203765192911 9.4041277786549919 #
plane-surface $-1 75.794549394207593 0 0 -1 0 0 0 0 1 forward_v I I I I #
coedge $-1 $356 $354 $358 $491 reversed $241 $-1 #
edge $-1 $369 -15.811048149936351 $493 15.811048149936351 $368 $562 forward 7 unknown #
vertex $-1 $491 $563 #
straight-curve $-1 -75.794549394207593 -50.033377570471806 0 0 0 -1 I I #
edge $-1 $489 -50.033377570471806 $493 50.033377570471806 $487 $564 forward 7 unknown #
straight-curve $-1 0 -50.033377570471806 -15.811048149936351 -1 0 0 I I #
vertex $-1 $361 $565 #
straight-curve $-1 0 50.033377570471806 -15.811048149936351 1 0 0 I I #
point $-1 75.794549394207593 50.033377570471806 -15.811048149936351 #
point $-1 75.794549394207593 -50.033377570471806 -15.811048149936351 #
straight-curve $-1 -75.794549394207593 0 15.811048149936351 0 -1 0 I I #
point $-1 -75.794549394207593 50.033377570471806 15.811048149936351 #
point $-1 -75.794549394207593 -50.033377570471806 15.811048149936351 #
straight-curve $-1 75.794549394207593 -50.033377570471806 0 0 0 -1 I I #
straight-curve $-1 75.794549394207593 50.033377570471806 0 0 0 -1 I I #
plane-surface $-1 0 50.033377570471806 0 0 -1 0 0 0 -1 forward_v I I I I #
coedge $-1 $513 $512 $384 $505 forward $379 $-1 #
straight-curve $-1 -58.435729575619888 -50.033377570471806 5.3058306686664718 0 0 1 I I #
edge $-1 $508 -50.033377570471806 $506 50.033377570471806 $503 $566 forward 7 unknown #
vertex $-1 $385 $567 #
straight-curve $-1 -33.55756974245687 -50.033377570471806 8.1818834217775223 1 0 0 I I #
vertex $-1 $387 $568 #
straight-curve $-1 -33.55756974245687 50.033377570471806 8.1818834217775223 -1 0 0 I I #
point $-1 -58.435729575619888 50.033377570471806 8.1818834217775223 #
point $-1 -58.435729575619888 -50.033377570471806 8.1818834217775223 #
coedge $-1 $503 $391 $394 $515 forward $379 $-1 #
coedge $-1 $391 $503 $398 $517 reversed $379 $-1 #
straight-curve $-1 -75.794549394207593 0 13.041439252888365 0 1 0 I I #
edge $-1 $396 -13.041439252888365 $508 -8.1818834217775223 $394 $569 forward 7 unknown #
point $-1 -75.794549394207593 50.033377570471806 13.041439252888365 #
edge $-1 $399 -13.041439252888365 $506 -8.1818834217775223 $513 $570 forward 7 unknown #
point $-1 -75.794549394207593 -50.033377570471806 13.041439252888365 #
straight-curve $-1 -58.435729575619888 50.033377570471806 5.3058306686664718 0 0 -1 I I #
edge $-1 $521 16.263981997083441 $524 35.852278783873828 $405 $571 forward 7 unknown #
vertex $-1 $520 $572 #
straight-curve $-1 48.846121617053321 -50.033377570471806 65.111787057285269 0 0 1 I I #
edge $-1 $524 -29.596028749629717 $416 -8.9041569852174902 $415 $573 forward 7 unknown #
vertex $-1 $523 $574 #
straight-curve $-1 48.846121617053321 -50.033377570471814 3.0902592418316743 0 -0.83867056331134215 -0.54463904215088732 I I #
point $-1 48.846121617053321 -50.033377570471806 3.0902592418316788 #
point $-1 28.154249852641094 -30.445080783681423 15.811048149936351 #
straight-curve $-1 0 -50.033377570471806 15.811048149936351 1 0 0 I I #
vertex $-1 $422 $575 #
point $-1 33.292624205523552 -39.386825112053103 8.1380665655914495 #
vertex $-1 $426 $576 #
point $-1 39.500185734847221 -39.386825112053103 8.1380665655914495 #
vertex $-1 $430 $577 #
point $-1 45.707747264170891 -39.386825112053103 8.1380665655914495 #
edge $-1 $536 70.146466136158239 $539 82.960306878720971 $435 $578 forward 7 unknown #
vertex $-1 $449 $579 #
straight-curve $-1 -24.364594533333921 58.405983659689511 15.811048149936354 0 1 0 I I #
edge $-1 $539 5.1054260072950832 $446 33.412911044782589 $445 $580 forward 7 unknown #
vertex $-1 $538 $581 #
straight-curve $-1 -24.364594533333921 -7.3625540780768688 84.967095260369348 0 -0.57357642473473569 0.81915205242281985 I I #
point $-1 -24.364594533333921 41.061029959913981 15.811048149936354 #
point $-1 -52.672079570821431 50.033377570471806 2.9972074073736223 #
straight-curve $-1 0 50.033377570471806 15.811048149936351 -1 0 0 I I #
vertex $-1 $452 $582 #
point $-1 -42.084226702967854 43.421138324404964 7.9154407752196567 #
vertex $-1 $456 $583 #
point $-1 -29.952447401187499 43.421138324404964 7.9154407752196567 #
coedge $-1 $471 $470 $463 $549 forward $460 $-1 #
edge $-1 $550 70.146466136158239 $553 82.960306878720971 $548 $584 forward 7 unknown #
vertex $-1 $475 $585 #
straight-curve $-1 70.030899389409129 58.405983659689511 15.811048149936354 0 1 0 I I #
edge $-1 $553 -42.092320954076442 $472 -13.784835916588932 $471 $586 forward 7 unknown #
vertex $-1 $552 $587 #
straight-curve $-1 70.030899389409129 -7.3625540780768688 84.967095260369348 0 -0.57357642473473569 0.81915205242281985 I I #
point $-1 70.030899389409129 41.061029959913981 15.811048149936354 #
point $-1 41.723414351921619 50.033377570471806 2.9972074073736223 #
straight-curve $-1 0 50.033377570471806 15.811048149936351 -1 0 0 I I #
vertex $-1 $478 $588 #
point $-1 52.311267219775203 43.421138324404964 7.9154407752196567 #
vertex $-1 $482 $589 #
point $-1 64.443046521555573 43.421138324404964 7.9154407752196567 #
straight-curve $-1 -75.794549394207593 50.033377570471806 0 0 0 -1 I I #
point $-1 -75.794549394207593 -50.033377570471806 -15.811048149936351 #
straight-curve $-1 -75.794549394207593 0 -15.811048149936351 0 1 0 I I #
point $-1 -75.794549394207593 50.033377570471806 -15.811048149936351 #
straight-curve $-1 -75.794549394207593 0 8.1818834217775223 0 -1 0 I I #
point $-1 -75.794549394207593 -50.033377570471806 8.1818834217775223 #
point $-1 -75.794549394207593 50.033377570471806 8.1818834217775223 #
straight-curve $-1 -75.794549394207593 50.033377570471806 0 0 0 -1 I I #
straight-curve $-1 -75.794549394207593 -50.033377570471806 0 0 0 -1 I I #
straight-curve $-1 48.846121617053321 -66.297359567555247 15.811048149936354 0 1 0 I I #
point $-1 48.846121617053321 -50.033377570471806 15.811048149936351 #
straight-curve $-1 19.250092867423604 -30.445080783681423 15.811048149936351 -1 0 0 I I #
point $-1 48.846121617053321 -30.445080783681423 15.811048149936351 #
point $-1 32.292624205523552 -38.842186069902212 7.2993960022801065 #
point $-1 38.500185734847221 -38.842186069902212 7.2993960022801065 #
point $-1 44.707747264170891 -38.842186069902212 7.2993960022801065 #
straight-curve $-1 -24.364594533333921 50.033377570471806 85.957514286094593 0 0 -1 I I #
point $-1 -24.364594533333921 50.033377570471806 15.811048149936351 #
straight-curve $-1 -19.259168526038838 50.033377570471806 2.9972074073736152 -1 0 0 I I #
point $-1 -24.364594533333921 50.033377570471806 2.9972074073736223 #
point $-1 -44.584226702967854 41.373258193347908 6.4814997133828181 #
point $-1 -32.452447401187499 41.373258193347908 6.4814997133828181 #
straight-curve $-1 70.030899389409129 50.033377570471806 85.957514286094593 0 0 -1 I I #
point $-1 70.030899389409129 50.033377570471806 15.811048149936351 #
straight-curve $-1 27.938578435332687 50.033377570471806 2.9972074073736152 -1 0 0 I I #
point $-1 70.030899389409129 50.033377570471806 2.9972074073736223 #
point $-1 49.811267219775203 41.373258193347908 6.4814997133828181 #
point $-1 61.943046521555573 41.373258193347908 6.4814997133828181 #
End-of-ACIS-data 