500 0 10 0           
7 Unknown 11 ACIS 5.0 NT 24 Fri Mar 26 20:35:57 1999 
-1 9.9999999999999995e-007 1e-010 
body $-1 $10 $-1 $11 #
body $-1 $12 $-1 $13 #
body $-1 $14 $-1 $15 #
body $-1 $16 $-1 $17 #
body $-1 $18 $-1 $19 #
body $-1 $20 $-1 $21 #
body $-1 $22 $-1 $23 #
body $-1 $24 $-1 $25 #
body $-1 $26 $-1 $27 #
body $-1 $28 $-1 $29 #
lump $-1 $-1 $30 $0 #
transform $-1 1 0 0 0 1 0 0 0 1 70.748008667256698 43.682960348954865 14.406964809078813 1 rotate no_reflect no_shear #
lump $-1 $-1 $31 $1 #
transform $-1 1 0 0 0 1 0 0 0 1 70.748008667256698 43.682960348954865 14.406964809078813 1 rotate no_reflect no_shear #
lump $-1 $-1 $32 $2 #
transform $-1 1 0 0 0 1 0 0 0 1 70.748008667256698 43.682960348954865 14.406964809078813 1 rotate no_reflect no_shear #
lump $-1 $-1 $33 $3 #
transform $-1 1 0 0 0 1 0 0 0 1 70.748008667256698 43.682960348954865 14.406964809078813 1 rotate no_reflect no_shear #
lump $-1 $-1 $34 $4 #
transform $-1 1 0 0 0 1 0 0 0 1 70.748008667256698 43.682960348954865 14.406964809078813 1 rotate no_reflect no_shear #
lump $-1 $-1 $35 $5 #
transform $-1 1 0 0 0 1 0 0 0 1 70.748008667256698 43.682960348954865 14.406964809078813 1 rotate no_reflect no_shear #
lump $-1 $-1 $36 $6 #
transform $-1 1 0 0 0 1 0 0 0 1 70.748008667256698 43.682960348954865 14.406964809078813 1 rotate no_reflect no_shear #
lump $-1 $-1 $37 $7 #
transform $-1 1 0 0 0 1 0 0 0 1 70.748008667256698 43.682960348954865 14.406964809078813 1 rotate no_reflect no_shear #
lump $-1 $-1 $38 $8 #
transform $-1 1 0 0 0 1 0 0 0 1 70.748008667256698 43.682960348954865 14.406964809078813 1 rotate no_reflect no_shear #
lump $-1 $-1 $39 $9 #
transform $-1 1 0 0 0 1 0 0 0 1 70.748008667256698 43.682960348954865 14.406964809078813 1 rotate no_reflect no_shear #
shell $-1 $-1 $-1 $40 $-1 $10 #
shell $-1 $-1 $-1 $41 $-1 $12 #
shell $-1 $-1 $-1 $42 $-1 $14 #
shell $-1 $-1 $-1 $43 $-1 $16 #
shell $-1 $-1 $-1 $44 $-1 $18 #
shell $-1 $-1 $-1 $45 $-1 $20 #
shell $-1 $-1 $-1 $46 $-1 $22 #
shell $-1 $-1 $-1 $47 $-1 $24 #
shell $-1 $-1 $-1 $48 $-1 $26 #
shell $-1 $-1 $-1 $49 $-1 $28 #
face $-1 $50 $51 $30 $-1 $52 reversed single #
face $-1 $53 $54 $31 $-1 $55 forward single #
face $-1 $56 $57 $32 $-1 $58 reversed single #
face $-1 $59 $60 $33 $-1 $61 forward single #
face $-1 $62 $63 $34 $-1 $64 reversed single #
face $-1 $65 $66 $35 $-1 $67 forward single #
face $-1 $68 $69 $36 $-1 $70 forward single #
face $-1 $71 $72 $37 $-1 $73 reversed single #
face $-1 $74 $75 $38 $-1 $76 forward single #
face $-1 $77 $78 $39 $-1 $79 forward single #
face $-1 $80 $81 $30 $-1 $82 forward single #
loop $-1 $-1 $83 $40 #
plane-surface $-1 -70.748008667256698 0 0 1 0 0 0 0 -1 forward_v I I I I #
face $-1 $84 $85 $31 $-1 $86 reversed single #
loop $-1 $-1 $87 $41 #
plane-surface $-1 -70.748008667256698 0 0 1 0 0 0 0 -1 forward_v I I I I #
face $-1 $88 $89 $32 $-1 $90 reversed single #
loop $-1 $-1 $91 $42 #
plane-surface $-1 49.006509983210066 87.583183693304179 162.52943818828342 1 0 0 0 -0.73135370988377701 -0.68199835119979291 forward_v I I I I #
face $-1 $92 $93 $33 $-1 $94 forward single #
loop $-1 $95 $96 $43 #
cone-surface $-1 58.593055262253444 35.638219074337286 6.1048288414267802 0 -0.73135370988377701 -0.68199835119979291 2 0 0 1 I I 0 1 2 forward I I I I #
face $-1 $97 $98 $34 $-1 $99 reversed single #
loop $-1 $-1 $100 $44 #
plane-surface $-1 -20.552161712018307 -147.16659756033047 97.328584604886885 -1 0 0 0 -0.73135370988377701 0.68199835119979291 forward_v I I I I #
face $-1 $101 $102 $35 $-1 $103 forward single #
loop $-1 $104 $105 $45 #
cone-surface $-1 -34.117634233255103 -34.021741044687488 4.5123122982714143 0 0.73135370988377701 -0.68199835119979291 2.5 0 0 1 I I 0 1 2.5 forward I I I I #
face $-1 $106 $107 $36 $-1 $108 forward single #
loop $-1 $109 $110 $46 #
cone-surface $-1 -25.978350720513028 -34.021741044687488 4.5123122982714143 0 0.73135370988377701 -0.68199835119979291 2.5 0 0 1 I I 0 1 2.5 forward I I I I #
face $-1 $111 $112 $37 $-1 $113 reversed single #
loop $-1 $-1 $114 $47 #
plane-surface $-1 43.647460017102347 -147.16659756033047 97.328584604886885 -1 0 0 0 -0.73135370988377701 0.68199835119979291 forward_v I I I I #
face $-1 $115 $116 $38 $-1 $117 forward single #
loop $-1 $118 $119 $48 #
cone-surface $-1 30.081987495865548 -34.021741044687488 4.5123122982714143 0 0.73135370988377701 -0.68199835119979291 2.5 0 0 1 I I 0 1 2.5 forward I I I I #
face $-1 $120 $121 $39 $-1 $122 forward single #
loop $-1 $123 $124 $49 #
cone-surface $-1 38.22127100860763 -34.021741044687488 4.5123122982714143 0 0.73135370988377701 -0.68199835119979291 2.5 0 0 1 I I 0 1 2.5 forward I I I I #
face $-1 $125 $126 $30 $-1 $127 reversed single #
loop $-1 $-1 $128 $50 #
plane-surface $-1 0 0 14.406964809078813 0 0 1 1 0 0 forward_v I I I I #
coedge $-1 $129 $130 $131 $132 reversed $51 $-1 #
face $-1 $133 $134 $31 $-1 $135 reversed single #
loop $-1 $-1 $136 $53 #
plane-surface $-1 0 0 -14.406964809078813 0 0 1 1 0 0 forward_v I I I I #
coedge $-1 $137 $138 $139 $140 forward $54 $-1 #
face $-1 $141 $142 $32 $-1 $143 reversed single #
loop $-1 $-1 $144 $56 #
plane-surface $-1 58.593055262253444 -15.900453518071416 66.02938766480797 0 0.73135370988377701 0.68199835119979291 1 0 0 forward_v I I I I #
coedge $-1 $145 $146 $147 $148 reversed $57 $-1 #
face $-1 $-1 $149 $33 $-1 $150 forward single #
loop $-1 $151 $152 $59 #
cone-surface $-1 58.593055262253444 32.58448756015629 3.2571782046244468 0 -0.73135370988377701 -0.68199835119979291 1 0 0 1 I I -0.70710678118654746 0.70710678118654746 1 forward I I I I #
loop $-1 $-1 $153 $43 #
coedge $-1 $96 $96 $154 $155 reversed $60 $-1 #
face $-1 $156 $157 $34 $-1 $158 reversed single #
loop $-1 $-1 $159 $62 #
plane-surface $-1 -30.047992476884062 -43.682960348954879 0.82853408141143348 0 -0.73135370988377701 0.68199835119979291 1 0 0 forward_v I I I I #
coedge $-1 $160 $161 $162 $163 reversed $63 $-1 #
face $-1 $-1 $164 $35 $-1 $165 forward single #
loop $-1 $166 $167 $65 #
cone-surface $-1 -34.117634233255103 -29.777375199061208 0.5543772122979771 0 0.73135370988377701 -0.68199835119979291 1.25 0 0 1 I I -0.70710678118654746 0.70710678118654746 1.25 forward I I I I #
loop $-1 $-1 $168 $45 #
coedge $-1 $105 $105 $169 $170 reversed $66 $-1 #
face $-1 $-1 $171 $36 $-1 $172 forward single #
loop $-1 $173 $174 $68 #
cone-surface $-1 -25.978350720513028 -29.777375199061208 0.5543772122979771 0 0.73135370988377701 -0.68199835119979291 1.25 0 0 1 I I -0.70710678118654746 0.70710678118654746 1.25 forward I I I I #
loop $-1 $-1 $175 $46 #
coedge $-1 $110 $110 $176 $177 reversed $69 $-1 #
face $-1 $178 $179 $37 $-1 $180 reversed single #
loop $-1 $-1 $181 $71 #
plane-surface $-1 34.151629252236589 -43.682960348954879 0.82853408141143348 0 -0.73135370988377701 0.68199835119979291 1 0 0 forward_v I I I I #
coedge $-1 $182 $183 $184 $185 reversed $72 $-1 #
face $-1 $-1 $186 $38 $-1 $187 forward single #
loop $-1 $188 $189 $74 #
cone-surface $-1 30.081987495865548 -29.777375199061208 0.5543772122979771 0 0.73135370988377701 -0.68199835119979291 1.25 0 0 1 I I -0.70710678118654746 0.70710678118654746 1.25 forward I I I I #
loop $-1 $-1 $190 $48 #
coedge $-1 $119 $119 $191 $192 reversed $75 $-1 #
face $-1 $-1 $193 $39 $-1 $194 forward single #
loop $-1 $195 $196 $77 #
cone-surface $-1 38.22127100860763 -29.777375199061208 0.5543772122979771 0 0.73135370988377701 -0.68199835119979291 1.25 0 0 1 I I -0.70710678118654746 0.70710678118654746 1.25 forward I I I I #
loop $-1 $-1 $197 $49 #
coedge $-1 $124 $124 $198 $199 reversed $78 $-1 #
face $-1 $200 $201 $30 $-1 $202 reversed single #
loop $-1 $-1 $203 $80 #
plane-surface $-1 0 0 -14.406964809078813 0 0 1 1 0 0 forward_v I I I I #
coedge $-1 $204 $205 $206 $207 forward $81 $-1 #
coedge $-1 $208 $83 $209 $210 reversed $51 $-1 #
coedge $-1 $83 $208 $211 $212 forward $51 $-1 #
coedge $-1 $213 $214 $83 $132 forward $126 $-1 #
edge $-1 $215 -43.682960348954865 $216 43.682960348954865 $83 $217 forward 7 unknown #
face $-1 $218 $219 $31 $-1 $220 reversed single #
loop $-1 $-1 $221 $84 #
plane-surface $-1 -77.296395605392746 -25.07705555198325 0 0 1 0 0 0 1 forward_v I I I I #
coedge $-1 $222 $223 $138 $224 forward $85 $-1 #
coedge $-1 $225 $87 $226 $227 reversed $54 $-1 #
coedge $-1 $87 $225 $136 $224 reversed $54 $-1 #
coedge $-1 $228 $229 $87 $140 reversed $230 $-1 #
edge $-1 $231 -14.406964809078813 $232 14.406964809078813 $139 $233 forward 7 unknown #
face $-1 $234 $235 $32 $-1 $236 forward single #
loop $-1 $-1 $237 $88 #
plane-surface $-1 68.179600541296821 87.583183693304179 162.52943818828342 -1 0 0 0 0.73135370988377701 0.68199835119979291 forward_v I I I I #
coedge $-1 $238 $239 $240 $241 reversed $89 $-1 #
coedge $-1 $146 $91 $242 $243 reversed $57 $-1 #
coedge $-1 $91 $145 $238 $244 reversed $57 $-1 #
coedge $-1 $240 $245 $91 $148 forward $235 $-1 #
edge $-1 $246 0.10863149769722469 $247 11.553358438337902 $147 $248 forward 7 unknown #
loop $-1 $-1 $154 $92 #
plane-surface $-1 58.593055262253444 -15.900453518071416 66.02938766480797 0 0.73135370988377701 0.68199835119979291 1 0 0 forward_v I I I I #
loop $-1 $-1 $249 $59 #
coedge $-1 $152 $152 $153 $250 reversed $93 $-1 #
coedge $-1 $153 $153 $152 $250 forward $95 $-1 #
coedge $-1 $154 $154 $96 $155 forward $149 $-1 #
edge $-1 $251 -1.4226813731031049e-015 $251 6.2831853071795987 $154 $252 forward 7 unknown #
face $-1 $253 $254 $34 $-1 $255 forward single #
loop $-1 $-1 $256 $97 #
plane-surface $-1 -39.54382324174982 -147.16659756033047 97.328584604886885 1 0 0 0 0.73135370988377701 -0.68199835119979291 forward_v I I I I #
coedge $-1 $257 $258 $259 $260 reversed $98 $-1 #
coedge $-1 $161 $100 $261 $262 reversed $63 $-1 #
coedge $-1 $100 $160 $257 $263 reversed $63 $-1 #
coedge $-1 $259 $264 $100 $163 forward $254 $-1 #
edge $-1 $265 29.900338431210372 $266 42.562429623201965 $162 $267 forward 7 unknown #
loop $-1 $-1 $169 $101 #
plane-surface $-1 -30.047992476884062 -43.682960348954879 0.82853408141143348 0 -0.73135370988377701 0.68199835119979291 1 0 0 forward_v I I I I #
loop $-1 $-1 $268 $65 #
coedge $-1 $167 $167 $168 $269 reversed $102 $-1 #
coedge $-1 $168 $168 $167 $269 forward $104 $-1 #
coedge $-1 $169 $169 $105 $170 forward $164 $-1 #
edge $-1 $270 -1.5796978972427061e-015 $270 6.2831853071795987 $169 $271 forward 7 unknown #
loop $-1 $-1 $176 $106 #
plane-surface $-1 -30.047992476884062 -43.682960348954879 0.82853408141143348 0 -0.73135370988377701 0.68199835119979291 1 0 0 forward_v I I I I #
loop $-1 $-1 $272 $68 #
coedge $-1 $174 $174 $175 $273 reversed $107 $-1 #
coedge $-1 $175 $175 $174 $273 forward $109 $-1 #
coedge $-1 $176 $176 $110 $177 forward $171 $-1 #
edge $-1 $274 -1.5796978972427061e-015 $274 6.2831853071795987 $176 $275 forward 7 unknown #
face $-1 $276 $277 $37 $-1 $278 reversed single #
loop $-1 $-1 $279 $111 #
plane-surface $-1 24.655798487370834 -147.16659756033047 97.328584604886885 1 0 0 0 0.73135370988377701 -0.68199835119979291 forward_v I I I I #
coedge $-1 $280 $281 $282 $283 reversed $112 $-1 #
coedge $-1 $183 $114 $284 $285 reversed $72 $-1 #
coedge $-1 $114 $182 $280 $286 reversed $72 $-1 #
coedge $-1 $282 $287 $114 $185 forward $288 $-1 #
edge $-1 $289 29.900338431210372 $290 42.562429623201965 $184 $291 forward 7 unknown #
loop $-1 $-1 $191 $115 #
plane-surface $-1 34.151629252236589 -43.682960348954879 0.82853408141143348 0 -0.73135370988377701 0.68199835119979291 1 0 0 forward_v I I I I #
loop $-1 $-1 $292 $74 #
coedge $-1 $189 $189 $190 $293 reversed $116 $-1 #
coedge $-1 $190 $190 $189 $293 forward $118 $-1 #
coedge $-1 $191 $191 $119 $192 forward $186 $-1 #
edge $-1 $294 -1.5796978972427061e-015 $294 6.2831853071795987 $191 $295 forward 7 unknown #
loop $-1 $-1 $198 $120 #
plane-surface $-1 34.151629252236589 -43.682960348954879 0.82853408141143348 0 -0.73135370988377701 0.68199835119979291 1 0 0 forward_v I I I I #
loop $-1 $-1 $296 $77 #
coedge $-1 $196 $196 $197 $297 reversed $121 $-1 #
coedge $-1 $197 $197 $196 $297 forward $123 $-1 #
coedge $-1 $198 $198 $124 $199 forward $193 $-1 #
edge $-1 $298 -1.5796978972427061e-015 $298 6.2831853071795987 $198 $299 forward 7 unknown #
face $-1 $300 $301 $30 $-1 $302 reversed single #
loop $-1 $-1 $209 $125 #
plane-surface $-1 0 -43.682960348954865 0 0 1 0 0 0 1 forward_v I I I I #
coedge $-1 $214 $213 $303 $304 forward $126 $-1 #
coedge $-1 $305 $128 $306 $307 forward $81 $-1 #
coedge $-1 $128 $305 $308 $309 forward $81 $-1 #
coedge $-1 $310 $311 $128 $207 reversed $312 $-1 #
edge $-1 $313 -43.682960348954865 $314 43.682960348954865 $206 $315 forward 7 unknown #
coedge $-1 $130 $129 $305 $316 reversed $51 $-1 #
coedge $-1 $317 $308 $129 $210 forward $201 $-1 #
edge $-1 $318 -14.406964809078813 $215 14.406964809078813 $129 $319 forward 7 unknown #
coedge $-1 $306 $320 $130 $212 reversed $301 $-1 #
edge $-1 $321 -14.406964809078813 $216 14.406964809078813 $211 $322 forward 7 unknown #
coedge $-1 $203 $131 $320 $323 forward $126 $-1 #
coedge $-1 $131 $203 $317 $324 forward $126 $-1 #
vertex $-1 $132 $325 #
vertex $-1 $323 $326 #
straight-curve $-1 -70.748008667256698 0 -14.406964809078813 0 1 0 I I #
face $-1 $327 $230 $31 $-1 $328 reversed single #
loop $-1 $-1 $329 $133 #
plane-surface $-1 -83.844782543528794 -20.943060824836984 0 1 0 0 0 0 -1 forward_v I I I I #
coedge $-1 $330 $331 $332 $333 forward $134 $-1 #
coedge $-1 $334 $136 $330 $335 forward $85 $-1 #
coedge $-1 $136 $334 $228 $336 forward $85 $-1 #
edge $-1 $231 16.809066097690717 $337 25.07705555198325 $136 $338 forward 7 unknown #
coedge $-1 $138 $137 $339 $340 forward $54 $-1 #
coedge $-1 $341 $342 $137 $227 forward $343 $-1 #
edge $-1 $344 -25.07705555198325 $232 -16.809066097690717 $226 $345 forward 7 unknown #
coedge $-1 $346 $139 $223 $336 reversed $230 $-1 #
coedge $-1 $139 $346 $341 $347 reversed $230 $-1 #
loop $-1 $-1 $139 $218 #
vertex $-1 $224 $348 #
vertex $-1 $347 $349 #
straight-curve $-1 -70.748008667256698 -16.809066097690717 0 0 0 1 I I #
face $-1 $-1 $350 $32 $-1 $351 reversed single #
loop $-1 $-1 $147 $141 #
plane-surface $-1 0 0 14.406964809078813 0 0 1 1 0 0 forward_v I I I I #
coedge $-1 $352 $353 $354 $355 reversed $142 $-1 #
coedge $-1 $356 $144 $146 $244 forward $89 $-1 #
coedge $-1 $144 $356 $352 $357 forward $89 $-1 #
coedge $-1 $354 $147 $144 $241 forward $235 $-1 #
edge $-1 $247 19.709982352083344 $358 38.8830729101701 $240 $359 forward 7 unknown #
coedge $-1 $360 $361 $145 $243 forward $350 $-1 #
edge $-1 $362 -79.13072164916187 $246 -66.857754285062896 $242 $363 forward 7 unknown #
edge $-1 $247 70.584755581444611 $362 87.365920697909701 $146 $364 forward 7 unknown #
coedge $-1 $147 $354 $360 $365 forward $235 $-1 #
vertex $-1 $243 $366 #
vertex $-1 $148 $367 #
straight-curve $-1 49.006509983210066 43.791591846652089 14.406964809078815 0 -1 0 I I #
coedge $-1 $249 $249 $-1 $368 reversed $151 $-1 #
edge $-1 $369 0 $369 6.2831853071796004 $152 $370 forward 7 unknown #
vertex $-1 $155 $371 #
ellipse-curve $-1 58.593055262253444 37.960596878634526 8.2704811270293366 0 0.73135370988377701 0.68199835119979291 2 0 0 1 I I #
face $-1 $-1 $372 $34 $-1 $373 reversed single #
loop $-1 $-1 $162 $156 #
plane-surface $-1 0 0 14.406964809078813 0 0 1 1 0 0 forward_v I I I I #
coedge $-1 $374 $375 $376 $377 reversed $157 $-1 #
coedge $-1 $378 $159 $161 $263 forward $98 $-1 #
coedge $-1 $159 $378 $374 $379 forward $98 $-1 #
coedge $-1 $376 $162 $159 $260 forward $254 $-1 #
edge $-1 $266 5.5281654735762764 $380 24.519827003307789 $259 $381 forward 7 unknown #
coedge $-1 $382 $383 $160 $262 forward $372 $-1 #
edge $-1 $384 -47.835758221031995 $265 -34.257327493364627 $261 $385 forward 7 unknown #
edge $-1 $266 -18.56616100275911 $384 -2.0815709956562115e-014 $161 $386 forward 7 unknown #
coedge $-1 $162 $376 $382 $387 forward $254 $-1 #
vertex $-1 $163 $388 #
vertex $-1 $163 $389 #
straight-curve $-1 -20.552161712018307 -73.583298780165237 14.406964809078815 0 1 0 I I #
coedge $-1 $268 $268 $-1 $390 reversed $166 $-1 #
edge $-1 $391 0 $391 6.2831853071796004 $167 $392 forward 7 unknown #
vertex $-1 $170 $393 #
ellipse-curve $-1 -34.117634233255103 -37.351914752959068 7.6177494452451295 0 -0.73135370988377701 0.68199835119979291 2.5 0 0 1 I I #
coedge $-1 $272 $272 $-1 $394 reversed $173 $-1 #
edge $-1 $395 0 $395 6.2831853071796004 $174 $396 forward 7 unknown #
vertex $-1 $177 $397 #
ellipse-curve $-1 -25.978350720513028 -37.351914752959068 7.6177494452451295 0 -0.73135370988377701 0.68199835119979291 2.5 0 0 1 I I #
face $-1 $-1 $288 $37 $-1 $398 forward single #
loop $-1 $-1 $399 $178 #
plane-surface $-1 0 -43.682960348954865 0 0 1 0 0 0 1 forward_v I I I I #
coedge $-1 $400 $401 $402 $403 reversed $179 $-1 #
coedge $-1 $404 $181 $183 $286 forward $112 $-1 #
coedge $-1 $181 $404 $400 $405 forward $112 $-1 #
coedge $-1 $402 $184 $181 $283 forward $288 $-1 #
edge $-1 $290 -26.571645390984052 $406 -7.5799838612525399 $282 $407 forward 7 unknown #
coedge $-1 $408 $409 $182 $285 forward $277 $-1 #
edge $-1 $410 -47.835758221031995 $289 -34.257327493364627 $284 $411 forward 7 unknown #
edge $-1 $290 -18.56616100275911 $410 -2.0815709956562115e-014 $183 $412 forward 7 unknown #
coedge $-1 $184 $402 $408 $413 forward $288 $-1 #
loop $-1 $-1 $402 $276 #
vertex $-1 $285 $414 #
vertex $-1 $185 $415 #
straight-curve $-1 43.647460017102347 -73.583298780165237 14.406964809078815 0 1 0 I I #
coedge $-1 $292 $292 $-1 $416 reversed $188 $-1 #
edge $-1 $417 0 $417 6.2831853071796004 $189 $418 forward 7 unknown #
vertex $-1 $192 $419 #
ellipse-curve $-1 30.081987495865548 -37.351914752959068 7.6177494452451295 0 -0.73135370988377701 0.68199835119979291 2.5 0 0 1 I I #
coedge $-1 $296 $296 $-1 $420 reversed $195 $-1 #
edge $-1 $421 0 $421 6.2831853071796004 $196 $422 forward 7 unknown #
vertex $-1 $199 $423 #
ellipse-curve $-1 38.22127100860763 -37.351914752959068 7.6177494452451295 0 -0.73135370988377701 0.68199835119979291 2.5 0 0 1 I I #
face $-1 $-1 $312 $30 $-1 $424 reversed single #
loop $-1 $-1 $425 $200 #
plane-surface $-1 0 43.682960348954865 0 0 -1 0 0 0 -1 forward_v I I I I #
coedge $-1 $311 $310 $203 $304 reversed $312 $-1 #
edge $-1 $426 -43.682960348954865 $427 43.682960348954865 $303 $428 forward 7 unknown #
coedge $-1 $205 $204 $208 $316 forward $81 $-1 #
coedge $-1 $425 $211 $204 $307 reversed $301 $-1 #
edge $-1 $314 -70.748008667256698 $321 70.748008667256698 $306 $429 forward 7 unknown #
coedge $-1 $209 $430 $205 $309 reversed $201 $-1 #
edge $-1 $318 -70.748008667256698 $313 70.748008667256698 $308 $431 forward 7 unknown #
coedge $-1 $303 $206 $430 $432 forward $312 $-1 #
coedge $-1 $206 $303 $425 $433 reversed $312 $-1 #
loop $-1 $-1 $310 $300 #
vertex $-1 $207 $434 #
vertex $-1 $207 $435 #
straight-curve $-1 70.748008667256698 0 14.406964809078813 0 1 0 I I #
edge $-1 $321 -43.682960348954865 $318 43.682960348954865 $208 $436 forward 7 unknown #
coedge $-1 $430 $209 $214 $324 reversed $201 $-1 #
vertex $-1 $316 $437 #
straight-curve $-1 -70.748008667256698 -43.682960348954865 0 0 0 -1 I I #
coedge $-1 $211 $425 $213 $323 reversed $301 $-1 #
vertex $-1 $307 $438 #
straight-curve $-1 -70.748008667256698 43.682960348954865 0 0 0 -1 I I #
edge $-1 $216 -70.748008667256698 $426 70.748008667256698 $320 $439 forward 7 unknown #
edge $-1 $427 -70.748008667256698 $215 70.748008667256698 $317 $440 forward 7 unknown #
point $-1 -70.748008667256698 -43.682960348954865 -14.406964809078813 #
point $-1 -70.748008667256698 43.682960348954865 -14.406964809078813 #
face $-1 $-1 $343 $31 $-1 $441 forward single #
plane-surface $-1 -77.296395605392746 -16.809066097690717 0 0 -1 0 0 0 -1 forward_v I I I I #
coedge $-1 $442 $443 $346 $444 forward $219 $-1 #
coedge $-1 $339 $221 $222 $335 reversed $134 $-1 #
coedge $-1 $221 $339 $342 $445 reversed $134 $-1 #
coedge $-1 $443 $442 $221 $333 reversed $219 $-1 #
edge $-1 $446 -14.406964809078813 $447 14.406964809078813 $332 $448 forward 7 unknown #
coedge $-1 $223 $222 $442 $449 forward $85 $-1 #
edge $-1 $337 -6.5483869381360478 $447 6.5483869381360478 $330 $450 forward 7 unknown #
edge $-1 $451 -6.5483869381360478 $231 6.5483869381360478 $228 $452 forward 7 unknown #
vertex $-1 $335 $453 #
straight-curve $-1 -70.748008667256698 0 -14.406964809078813 0 -1 0 I I #
coedge $-1 $331 $330 $225 $340 reversed $134 $-1 #
edge $-1 $344 -14.406964809078813 $337 14.406964809078813 $339 $454 forward 7 unknown #
coedge $-1 $455 $226 $229 $347 forward $343 $-1 #
coedge $-1 $226 $455 $331 $445 forward $343 $-1 #
loop $-1 $-1 $226 $327 #
vertex $-1 $227 $456 #
straight-curve $-1 -70.748008667256698 0 14.406964809078813 0 1 0 I I #
coedge $-1 $229 $228 $329 $444 reversed $230 $-1 #
edge $-1 $232 -6.5483869381360478 $457 6.5483869381360478 $229 $458 forward 7 unknown #
point $-1 -70.748008667256698 -16.809066097690717 -14.406964809078813 #
point $-1 -70.748008667256698 -16.809066097690717 14.406964809078813 #
loop $-1 $-1 $242 $234 #
plane-surface $-1 0 43.682960348954865 0 0 -1 0 0 0 -1 forward_v I I I I #
coedge $-1 $353 $237 $239 $357 reversed $142 $-1 #
coedge $-1 $237 $352 $459 $460 reversed $142 $-1 #
coedge $-1 $245 $240 $237 $355 forward $235 $-1 #
edge $-1 $358 -11.553358438337902 $461 -0.10863149769722469 $354 $462 forward 7 unknown #
coedge $-1 $239 $238 $361 $463 reversed $89 $-1 #
edge $-1 $464 -87.365920697909701 $358 -70.584755581444611 $352 $465 forward 7 unknown #
vertex $-1 $241 $466 #
straight-curve $-1 29.296527631126722 32.238233408314194 14.406964809078815 1 0 0 I I #
coedge $-1 $459 $242 $245 $365 reversed $350 $-1 #
coedge $-1 $242 $459 $356 $463 forward $350 $-1 #
vertex $-1 $243 $467 #
straight-curve $-1 49.006509983210066 43.682960348954865 81.264719094141711 0 0 1 I I #
straight-curve $-1 49.006509983210066 -15.900453518071416 66.02938766480797 0 0.68199835119979291 -0.73135370988377701 I I #
edge $-1 $461 -68.179600541296821 $246 -49.006509983210066 $360 $468 forward 7 unknown #
point $-1 49.006509983210066 43.682960348954865 14.406964809078813 #
point $-1 49.006509983210066 32.238233408314187 14.406964809078815 #
edge $-1 $469 1 $469 0 $249 $-1 forward 7 unknown #
vertex $-1 $250 $470 #
ellipse-curve $-1 58.593055262253444 33.315841270040067 3.9391765558242398 0 0.73135370988377701 0.68199835119979291 2 0 0 1 I I #
point $-1 60.593055262253444 37.960596878634504 8.2704811270293206 #
loop $-1 $-1 $261 $253 #
plane-surface $-1 0 -43.682960348954865 0 0 1 0 0 0 1 forward_v I I I I #
coedge $-1 $375 $256 $258 $379 reversed $157 $-1 #
coedge $-1 $256 $374 $471 $472 reversed $157 $-1 #
coedge $-1 $264 $259 $256 $377 forward $254 $-1 #
edge $-1 $380 -42.562429623201965 $473 -29.900338431210372 $376 $474 forward 7 unknown #
coedge $-1 $258 $257 $383 $475 reversed $98 $-1 #
edge $-1 $476 2.0815709956562115e-014 $380 18.56616100275911 $374 $477 forward 7 unknown #
vertex $-1 $260 $478 #
straight-curve $-1 -15.023996238442031 -31.020869156963272 14.406964809078813 -1 0 0 I I #
coedge $-1 $471 $261 $264 $387 reversed $372 $-1 #
coedge $-1 $261 $471 $378 $475 forward $372 $-1 #
vertex $-1 $262 $479 #
straight-curve $-1 -20.552161712018307 -43.682960348954865 48.664292302443442 0 0 1 I I #
straight-curve $-1 -20.552161712018307 -43.682960348954879 0.82853408141143348 0 -0.68199835119979291 -0.73135370988377701 I I #
edge $-1 $473 -39.54382324174982 $265 -20.552161712018307 $382 $480 forward 7 unknown #
point $-1 -20.552161712018307 -43.682960348954865 14.406964809078813 #
point $-1 -20.552161712018307 -31.020869156963272 14.406964809078813 #
edge $-1 $481 1 $481 0 $268 $-1 forward 7 unknown #
vertex $-1 $269 $482 #
ellipse-curve $-1 -34.117634233255103 -30.691567336415929 1.4068751512977182 0 -0.73135370988377701 0.68199835119979291 2.5 0 0 1 I I #
point $-1 -31.617634233255103 -37.351914752959054 7.6177494452451109 #
edge $-1 $483 1 $483 0 $272 $-1 forward 7 unknown #
vertex $-1 $273 $484 #
ellipse-curve $-1 -25.978350720513028 -30.691567336415929 1.4068751512977182 0 -0.73135370988377701 0.68199835119979291 2.5 0 0 1 I I #
point $-1 -23.478350720513028 -37.351914752959054 7.6177494452451109 #
plane-surface $-1 0 0 14.406964809078813 0 0 1 1 0 0 forward_v I I I I #
coedge $-1 $409 $408 $401 $485 forward $277 $-1 #
coedge $-1 $401 $279 $281 $405 reversed $179 $-1 #
coedge $-1 $279 $400 $399 $485 reversed $179 $-1 #
coedge $-1 $287 $282 $279 $403 forward $288 $-1 #
edge $-1 $406 -42.562429623201965 $486 -29.900338431210372 $402 $487 forward 7 unknown #
coedge $-1 $281 $280 $409 $488 reversed $112 $-1 #
edge $-1 $489 2.0815709956562115e-014 $406 18.56616100275911 $400 $490 forward 7 unknown #
vertex $-1 $283 $491 #
straight-curve $-1 17.075814626118294 -31.020869156963272 14.406964809078813 -1 0 0 I I #
coedge $-1 $399 $284 $287 $413 reversed $277 $-1 #
coedge $-1 $284 $399 $404 $488 forward $277 $-1 #
vertex $-1 $285 $492 #
straight-curve $-1 43.647460017102347 -43.682960348954865 48.664292302443442 0 0 1 I I #
straight-curve $-1 43.647460017102347 -43.682960348954879 0.82853408141143348 0 -0.68199835119979291 -0.73135370988377701 I I #
edge $-1 $486 24.655798487370834 $289 43.647460017102347 $408 $493 forward 7 unknown #
point $-1 43.647460017102347 -43.682960348954865 14.406964809078813 #
point $-1 43.647460017102347 -31.020869156963272 14.406964809078813 #
edge $-1 $494 1 $494 0 $292 $-1 forward 7 unknown #
vertex $-1 $293 $495 #
ellipse-curve $-1 30.081987495865548 -30.691567336415929 1.4068751512977182 0 -0.73135370988377701 0.68199835119979291 2.5 0 0 1 I I #
point $-1 32.581987495865548 -37.351914752959054 7.6177494452451109 #
edge $-1 $496 1 $496 0 $296 $-1 forward 7 unknown #
vertex $-1 $297 $497 #
ellipse-curve $-1 38.22127100860763 -30.691567336415929 1.4068751512977182 0 -0.73135370988377701 0.68199835119979291 2.5 0 0 1 I I #
point $-1 40.72127100860763 -37.351914752959054 7.6177494452451109 #
plane-surface $-1 70.748008667256698 0 0 -1 0 0 0 0 1 forward_v I I I I #
coedge $-1 $320 $306 $311 $433 forward $301 $-1 #
vertex $-1 $304 $498 #
vertex $-1 $432 $499 #
straight-curve $-1 70.748008667256698 0 -14.406964809078813 0 -1 0 I I #
straight-curve $-1 0 43.682960348954865 14.406964809078813 -1 0 0 I I #
coedge $-1 $308 $317 $310 $432 reversed $201 $-1 #
straight-curve $-1 0 -43.682960348954865 14.406964809078813 1 0 0 I I #
edge $-1 $313 -14.406964809078813 $427 14.406964809078813 $310 $500 forward 7 unknown #
edge $-1 $314 -14.406964809078813 $426 14.406964809078813 $311 $501 forward 7 unknown #
point $-1 70.748008667256698 -43.682960348954865 14.406964809078813 #
point $-1 70.748008667256698 43.682960348954865 14.406964809078813 #
straight-curve $-1 -70.748008667256698 0 14.406964809078813 0 -1 0 I I #
point $-1 -70.748008667256698 -43.682960348954865 14.406964809078813 #
point $-1 -70.748008667256698 43.682960348954865 14.406964809078813 #
straight-curve $-1 0 43.682960348954865 -14.406964809078813 1 0 0 I I #
straight-curve $-1 0 -43.682960348954865 -14.406964809078813 -1 0 0 I I #
plane-surface $-1 0 0 14.406964809078813 0 0 1 1 0 0 forward_v I I I I #
coedge $-1 $332 $329 $334 $449 reversed $219 $-1 #
coedge $-1 $329 $332 $455 $502 reversed $219 $-1 #
edge $-1 $457 -14.406964809078813 $451 14.406964809078813 $346 $503 forward 7 unknown #
edge $-1 $446 -6.5483869381360478 $344 6.5483869381360478 $331 $504 forward 7 unknown #
vertex $-1 $502 $505 #
vertex $-1 $449 $506 #
straight-curve $-1 -83.844782543528794 -25.07705555198325 0 0 0 -1 I I #
edge $-1 $447 -4.1339947271462663 $451 4.1339947271462663 $442 $507 forward 7 unknown #
straight-curve $-1 -77.296395605392746 -25.07705555198325 -14.406964809078813 -1 0 0 I I #
vertex $-1 $336 $508 #
straight-curve $-1 -77.296395605392746 -16.809066097690717 -14.406964809078813 1 0 0 I I #
point $-1 -70.748008667256698 -25.07705555198325 -14.406964809078813 #
straight-curve $-1 -70.748008667256698 -25.07705555198325 0 0 0 -1 I I #
coedge $-1 $342 $341 $443 $502 forward $343 $-1 #
point $-1 -70.748008667256698 -25.07705555198325 14.406964809078813 #
vertex $-1 $347 $509 #
straight-curve $-1 -77.296395605392746 -16.809066097690717 14.406964809078813 -1 0 0 I I #
coedge $-1 $361 $360 $353 $460 forward $350 $-1 #
edge $-1 $461 66.857754285062896 $464 79.13072164916187 $459 $510 forward 7 unknown #
vertex $-1 $365 $511 #
straight-curve $-1 68.179600541296821 43.791591846652089 14.406964809078815 0 1 0 I I #
edge $-1 $464 -38.8830729101701 $362 -19.709982352083344 $361 $512 forward 7 unknown #
vertex $-1 $463 $513 #
straight-curve $-1 68.179600541296821 -15.900453518071416 66.02938766480797 0 -0.68199835119979291 0.73135370988377701 I I #
point $-1 68.179600541296821 32.238233408314187 14.406964809078815 #
point $-1 49.006509983210066 43.682960348954857 2.1339974449798476 #
straight-curve $-1 0 43.682960348954865 14.406964809078813 -1 0 0 I I #
vertex $-1 $368 $514 #
point $-1 60.593055262253444 33.315841270040067 3.9391765558242398 #
coedge $-1 $383 $382 $375 $472 forward $372 $-1 #
edge $-1 $473 34.257327493364627 $476 47.835758221031995 $471 $515 forward 7 unknown #
vertex $-1 $387 $516 #
straight-curve $-1 -39.54382324174982 -73.583298780165237 14.406964809078815 0 -1 0 I I #
edge $-1 $476 -24.519827003307789 $384 -5.5281654735762764 $383 $517 forward 7 unknown #
vertex $-1 $475 $518 #
straight-curve $-1 -39.54382324174982 -43.682960348954879 0.82853408141143348 0 0.68199835119979291 0.73135370988377701 I I #
point $-1 -39.54382324174982 -31.020869156963272 14.406964809078813 #
point $-1 -20.552161712018307 -43.682960348954865 0.82853408141144869 #
straight-curve $-1 0 -43.682960348954865 14.406964809078813 1 0 0 I I #
vertex $-1 $390 $519 #
point $-1 -31.617634233255103 -30.691567336415929 1.4068751512977182 #
vertex $-1 $394 $520 #
point $-1 -23.478350720513028 -30.691567336415929 1.4068751512977182 #
edge $-1 $486 34.257327493364627 $489 47.835758221031995 $399 $521 forward 7 unknown #
vertex $-1 $413 $522 #
straight-curve $-1 24.655798487370834 -73.583298780165237 14.406964809078815 0 -1 0 I I #
edge $-1 $489 7.5799838612525399 $410 26.571645390984052 $409 $523 forward 7 unknown #
vertex $-1 $488 $524 #
straight-curve $-1 24.655798487370834 -43.682960348954879 0.82853408141143348 0 0.68199835119979291 0.73135370988377701 I I #
point $-1 24.655798487370834 -31.020869156963272 14.406964809078813 #
point $-1 43.647460017102347 -43.682960348954865 0.82853408141144869 #
straight-curve $-1 0 -43.682960348954865 14.406964809078813 1 0 0 I I #
vertex $-1 $416 $525 #
point $-1 32.581987495865548 -30.691567336415929 1.4068751512977182 #
vertex $-1 $420 $526 #
point $-1 40.72127100860763 -30.691567336415929 1.4068751512977182 #
point $-1 70.748008667256698 43.682960348954865 -14.406964809078813 #
point $-1 70.748008667256698 -43.682960348954865 -14.406964809078813 #
straight-curve $-1 70.748008667256698 -43.682960348954865 0 0 0 -1 I I #
straight-curve $-1 70.748008667256698 43.682960348954865 0 0 0 -1 I I #
edge $-1 $457 -4.1339947271462663 $446 4.1339947271462663 $443 $527 forward 7 unknown #
straight-curve $-1 -83.844782543528794 -16.809066097690717 0 0 0 -1 I I #
straight-curve $-1 -77.296395605392746 -25.07705555198325 14.406964809078813 1 0 0 I I #
point $-1 -83.844782543528794 -25.07705555198325 14.406964809078813 #
point $-1 -83.844782543528794 -25.07705555198325 -14.406964809078813 #
straight-curve $-1 -83.844782543528794 -20.943060824836984 -14.406964809078813 0 1 0 I I #
point $-1 -83.844782543528794 -16.809066097690717 -14.406964809078813 #
point $-1 -83.844782543528794 -16.809066097690717 14.406964809078813 #
straight-curve $-1 68.179600541296821 43.682960348954865 81.264719094141711 0 0 -1 I I #
point $-1 68.179600541296821 43.682960348954865 14.406964809078813 #
straight-curve $-1 29.296527631126722 43.682960348954865 2.1339974449798369 -1 0 0 I I #
point $-1 68.179600541296821 43.682960348954857 2.1339974449798476 #
point $-1 58.593055262253444 31.853133850272513 2.5751798534246539 #
straight-curve $-1 -39.54382324174982 -43.682960348954865 48.664292302443442 0 0 -1 I I #
point $-1 -39.54382324174982 -43.682960348954865 14.406964809078813 #
straight-curve $-1 -15.023996238442031 -43.682960348954865 0.82853408141144491 1 0 0 I I #
point $-1 -39.54382324174982 -43.682960348954865 0.82853408141144869 #
point $-1 -34.117634233255103 -28.863183061706486 -0.29812072670176404 #
point $-1 -25.978350720513028 -28.863183061706486 -0.29812072670176404 #
straight-curve $-1 24.655798487370834 -43.682960348954865 48.664292302443442 0 0 -1 I I #
point $-1 24.655798487370834 -43.682960348954865 14.406964809078813 #
straight-curve $-1 17.075814626118294 -43.682960348954865 0.82853408141144491 1 0 0 I I #
point $-1 24.655798487370834 -43.682960348954865 0.82853408141144869 #
point $-1 30.081987495865548 -28.863183061706486 -0.29812072670176404 #
point $-1 38.22127100860763 -28.863183061706486 -0.29812072670176404 #
straight-curve $-1 -83.844782543528794 -20.943060824836984 14.406964809078813 0 -1 0 I I #
End-of-ACIS-data 