500 0 10 0           
7 Unknown 11 ACIS 5.0 NT 24 Thu Mar 25 18:42:00 1999 
-1 9.9999999999999995e-007 1e-010 
body $-1 $10 $-1 $11 #
body $-1 $12 $-1 $13 #
body $-1 $14 $-1 $15 #
body $-1 $16 $-1 $17 #
body $-1 $18 $-1 $19 #
body $-1 $20 $-1 $21 #
body $-1 $22 $-1 $23 #
body $-1 $24 $-1 $25 #
body $-1 $26 $-1 $27 #
body $-1 $28 $-1 $29 #
lump $-1 $-1 $30 $0 #
transform $-1 1 0 0 0 1 0 0 0 1 43.697622608111821 18.586059038880386 6.1752545594771222 1 rotate no_reflect no_shear #
lump $-1 $-1 $31 $1 #
transform $-1 1 0 0 0 1 0 0 0 1 43.697622608111821 18.586059038880386 6.1752545594771222 1 rotate no_reflect no_shear #
lump $-1 $-1 $32 $2 #
transform $-1 1 0 0 0 1 0 0 0 1 43.697622608111821 18.586059038880386 6.1752545594771222 1 rotate no_reflect no_shear #
lump $-1 $-1 $33 $3 #
transform $-1 1 0 0 0 1 0 0 0 1 43.697622608111821 18.586059038880386 6.1752545594771222 1 rotate no_reflect no_shear #
lump $-1 $-1 $34 $4 #
transform $-1 1 0 0 0 1 0 0 0 1 43.697622608111821 18.586059038880386 6.1752545594771222 1 rotate no_reflect no_shear #
lump $-1 $-1 $35 $5 #
transform $-1 1 0 0 0 1 0 0 0 1 43.697622608111821 18.586059038880386 6.1752545594771222 1 rotate no_reflect no_shear #
lump $-1 $-1 $36 $6 #
transform $-1 1 0 0 0 1 0 0 0 1 43.697622608111821 18.586059038880386 6.1752545594771222 1 rotate no_reflect no_shear #
lump $-1 $-1 $37 $7 #
transform $-1 1 0 0 0 1 0 0 0 1 43.697622608111821 18.586059038880386 6.1752545594771222 1 rotate no_reflect no_shear #
lump $-1 $-1 $38 $8 #
transform $-1 1 0 0 0 1 0 0 0 1 43.697622608111821 18.586059038880386 6.1752545594771222 1 rotate no_reflect no_shear #
lump $-1 $-1 $39 $9 #
transform $-1 1 0 0 0 1 0 0 0 1 43.697622608111821 18.586059038880386 6.1752545594771222 1 rotate no_reflect no_shear #
shell $-1 $-1 $-1 $40 $-1 $10 #
shell $-1 $-1 $-1 $41 $-1 $12 #
shell $-1 $-1 $-1 $42 $-1 $14 #
shell $-1 $-1 $-1 $43 $-1 $16 #
shell $-1 $-1 $-1 $44 $-1 $18 #
shell $-1 $-1 $-1 $45 $-1 $20 #
shell $-1 $-1 $-1 $46 $-1 $22 #
shell $-1 $-1 $-1 $47 $-1 $24 #
shell $-1 $-1 $-1 $48 $-1 $26 #
shell $-1 $-1 $-1 $49 $-1 $28 #
face $-1 $50 $51 $30 $-1 $52 forward single #
face $-1 $53 $54 $31 $-1 $55 reversed single #
face $-1 $56 $57 $32 $-1 $58 reversed single #
face $-1 $59 $60 $33 $-1 $61 reversed single #
face $-1 $62 $63 $34 $-1 $64 forward single #
face $-1 $65 $66 $35 $-1 $67 forward single #
face $-1 $68 $69 $36 $-1 $70 reversed single #
face $-1 $71 $72 $37 $-1 $73 forward single #
face $-1 $74 $75 $38 $-1 $76 forward single #
face $-1 $77 $78 $39 $-1 $79 forward single #
face $-1 $80 $81 $30 $-1 $82 reversed single #
loop $-1 $-1 $83 $40 #
plane-surface $-1 0 0 6.1752545594771222 0 0 1 1 0 0 forward_v I I I I #
face $-1 $84 $85 $31 $-1 $86 reversed single #
loop $-1 $-1 $87 $41 #
plane-surface $-1 -40.350716428326336 0 2.6569029444107928 0 0 1 1 0 0 forward_v I I I I #
face $-1 $88 $89 $32 $-1 $90 reversed single #
loop $-1 $-1 $91 $42 #
plane-surface $-1 40.350716428326344 0 2.6569029444107928 0 0 1 1 0 0 forward_v I I I I #
face $-1 $92 $93 $33 $-1 $94 reversed single #
loop $-1 $-1 $95 $43 #
plane-surface $-1 32.600778058287368 -18.586059038880379 1.6070565390291591 0 -0.62932039886446345 0.77714595512881146 1 0 0 forward_v I I I I #
face $-1 $96 $97 $34 $-1 $98 forward single #
loop $-1 $99 $100 $44 #
cone-surface $-1 30.713764262464444 -14.653399320740148 2.5179099248464007 0 0.62932039886446345 -0.77714595512881146 1 0 0 1 I I 0 1 1 forward I I I I #
face $-1 $101 $102 $35 $-1 $103 forward single #
loop $-1 $104 $105 $45 #
cone-surface $-1 34.487791854110291 -14.653399320740148 2.5179099248464007 0 0.62932039886446345 -0.77714595512881146 1 0 0 1 I I 0 1 1 forward I I I I #
face $-1 $106 $107 $36 $-1 $108 reversed single #
loop $-1 $-1 $109 $46 #
plane-surface $-1 -13.630713262839926 54.099173832862512 89.23432516789822 1 0 0 0 -0.70710678939079041 -0.70710677298230451 forward_v I I I I #
face $-1 $110 $111 $37 $-1 $112 forward single #
loop $-1 $113 $114 $47 #
cone-surface $-1 -9.6339358624301852 15.554932502469262 3.1441279768361077 0 -0.70710678939079041 -0.70710677298230451 1 0 0 1 I I 0 1 1 forward I I I I #
face $-1 $115 $116 $38 $-1 $117 forward single #
loop $-1 $118 $119 $48 #
cone-surface $-1 -3.6387697618155812 15.554932502469262 3.1441279768361077 0 -0.70710678939079041 -0.70710677298230451 1 0 0 1 I I 0 1 1 forward I I I I #
face $-1 $120 $121 $39 $-1 $122 forward single #
loop $-1 $123 $124 $49 #
cone-surface $-1 2.3563963387990228 15.554932502469262 3.1441279768361077 0 -0.70710678939079041 -0.70710677298230451 1 0 0 1 I I 0 1 1 forward I I I I #
face $-1 $125 $126 $30 $-1 $127 reversed single #
loop $-1 $-1 $128 $50 #
plane-surface $-1 0 0 -6.1752545594771222 0 0 1 1 0 0 forward_v I I I I #
coedge $-1 $129 $130 $131 $132 forward $51 $-1 #
face $-1 $133 $134 $31 $-1 $135 reversed single #
loop $-1 $-1 $136 $53 #
plane-surface $-1 -37.003810248540859 0 4.4160787519439575 -1 0 0 0 0 1 forward_v I I I I #
coedge $-1 $137 $138 $139 $140 forward $54 $-1 #
face $-1 $141 $142 $32 $-1 $143 forward single #
loop $-1 $-1 $144 $56 #
plane-surface $-1 37.003810248540859 0 4.4160787519439575 1 0 0 0 0 -1 forward_v I I I I #
coedge $-1 $145 $146 $147 $148 reversed $57 $-1 #
face $-1 $149 $150 $33 $-1 $151 forward single #
loop $-1 $-1 $152 $59 #
plane-surface $-1 28.197745868033884 -73.585669617211835 69.52591785630797 1 0 0 0 0.62932039886446345 -0.77714595512881146 forward_v I I I I #
coedge $-1 $153 $154 $155 $156 reversed $60 $-1 #
face $-1 $-1 $157 $34 $-1 $158 forward single #
loop $-1 $159 $160 $62 #
cone-surface $-1 30.713764262464444 -13.226706718144616 0.75609132287525149 0 0.62932039886446345 -0.77714595512881146 0.5 0 0 1 I I -0.70710678118654746 0.70710678118654746 0.5 forward I I I I #
loop $-1 $-1 $161 $44 #
coedge $-1 $100 $100 $162 $163 reversed $63 $-1 #
face $-1 $-1 $164 $35 $-1 $165 forward single #
loop $-1 $166 $167 $65 #
cone-surface $-1 34.487791854110291 -13.226706718144616 0.75609132287525149 0 0.62932039886446345 -0.77714595512881146 0.5 0 0 1 I I -0.70710678118654746 0.70710678118654746 0.5 forward I I I I #
loop $-1 $-1 $168 $45 #
coedge $-1 $105 $105 $169 $170 reversed $66 $-1 #
face $-1 $171 $172 $36 $-1 $173 reversed single #
loop $-1 $-1 $174 $68 #
plane-surface $-1 -3.6387697618155812 -7.6985974200022227 27.436555349057137 0 0.70710678939079041 0.70710677298230451 1 0 0 forward_v I I I I #
coedge $-1 $175 $176 $177 $178 reversed $69 $-1 #
face $-1 $-1 $179 $37 $-1 $180 forward single #
loop $-1 $181 $182 $71 #
cone-surface $-1 -9.6339358624301852 14.681930652699378 2.2711261473243232 0 -0.70710678939079041 -0.70710677298230451 0.5 0 0 1 I I -0.70710678118654746 0.70710678118654746 0.5 forward I I I I #
loop $-1 $-1 $183 $47 #
coedge $-1 $114 $114 $184 $185 reversed $72 $-1 #
face $-1 $-1 $186 $38 $-1 $187 forward single #
loop $-1 $188 $189 $74 #
cone-surface $-1 -3.6387697618155812 14.681930652699378 2.2711261473243232 0 -0.70710678939079041 -0.70710677298230451 0.5 0 0 1 I I -0.70710678118654746 0.70710678118654746 0.5 forward I I I I #
loop $-1 $-1 $190 $48 #
coedge $-1 $119 $119 $191 $192 reversed $75 $-1 #
face $-1 $-1 $193 $39 $-1 $194 forward single #
loop $-1 $195 $196 $77 #
cone-surface $-1 2.3563963387990228 14.681930652699378 2.2711261473243232 0 -0.70710678939079041 -0.70710677298230451 0.5 0 0 1 I I -0.70710678118654746 0.70710678118654746 0.5 forward I I I I #
loop $-1 $-1 $197 $49 #
coedge $-1 $124 $124 $198 $199 reversed $78 $-1 #
face $-1 $200 $201 $30 $-1 $202 reversed single #
loop $-1 $-1 $203 $80 #
plane-surface $-1 0 -18.586059038880386 0 0 1 0 0 0 1 forward_v I I I I #
coedge $-1 $204 $205 $206 $207 forward $81 $-1 #
coedge $-1 $208 $83 $209 $210 forward $51 $-1 #
coedge $-1 $83 $208 $211 $212 forward $51 $-1 #
coedge $-1 $213 $214 $83 $132 reversed $215 $-1 #
edge $-1 $216 -18.586059038880386 $217 18.586059038880386 $131 $218 forward 7 unknown #
face $-1 $219 $220 $31 $-1 $221 reversed single #
loop $-1 $-1 $222 $84 #
plane-surface $-1 0 18.586059038880386 0 0 -1 0 0 0 -1 forward_v I I I I #
coedge $-1 $139 $223 $224 $225 reversed $85 $-1 #
coedge $-1 $226 $87 $227 $228 reversed $54 $-1 #
coedge $-1 $87 $226 $229 $230 reversed $54 $-1 #
coedge $-1 $231 $136 $87 $140 reversed $85 $-1 #
edge $-1 $232 -18.586059038880386 $233 18.586059038880386 $139 $234 forward 7 unknown #
face $-1 $235 $236 $32 $-1 $237 reversed single #
loop $-1 $-1 $238 $88 #
plane-surface $-1 0 0 6.1752545594771222 0 0 1 1 0 0 forward_v I I I I #
coedge $-1 $239 $240 $241 $242 reversed $89 $-1 #
coedge $-1 $243 $91 $244 $245 reversed $57 $-1 #
coedge $-1 $91 $243 $246 $247 reversed $57 $-1 #
coedge $-1 $248 $249 $91 $148 forward $250 $-1 #
edge $-1 $251 -18.586059038880386 $252 18.586059038880386 $147 $253 forward 7 unknown #
face $-1 $254 $255 $33 $-1 $256 reversed single #
loop $-1 $-1 $155 $92 #
plane-surface $-1 0 0 6.1752545594771222 0 0 1 1 0 0 forward_v I I I I #
coedge $-1 $257 $258 $259 $260 reversed $93 $-1 #
coedge $-1 $261 $95 $262 $263 reversed $60 $-1 #
coedge $-1 $95 $261 $257 $264 forward $60 $-1 #
coedge $-1 $259 $265 $95 $156 forward $150 $-1 #
edge $-1 $266 -20.703421219397175 $267 -11.8973568388902 $155 $268 forward 7 unknown #
loop $-1 $-1 $162 $96 #
plane-surface $-1 32.600778058287368 -18.586059038880379 1.6070565390291591 0 -0.62932039886446345 0.77714595512881146 1 0 0 forward_v I I I I #
loop $-1 $-1 $269 $62 #
coedge $-1 $160 $160 $161 $270 reversed $97 $-1 #
coedge $-1 $161 $161 $160 $270 forward $99 $-1 #
coedge $-1 $162 $162 $100 $163 forward $157 $-1 #
edge $-1 $271 3.3012478097202036e-016 $271 6.2831853071796004 $162 $272 forward 7 unknown #
loop $-1 $-1 $169 $101 #
plane-surface $-1 32.600778058287368 -18.586059038880379 1.6070565390291591 0 -0.62932039886446345 0.77714595512881146 1 0 0 forward_v I I I I #
loop $-1 $-1 $273 $65 #
coedge $-1 $167 $167 $168 $274 reversed $102 $-1 #
coedge $-1 $168 $168 $167 $274 forward $104 $-1 #
coedge $-1 $169 $169 $105 $170 forward $164 $-1 #
edge $-1 $275 3.3012478097202036e-016 $275 6.2831853071796004 $169 $276 forward 7 unknown #
face $-1 $277 $278 $36 $-1 $279 reversed single #
loop $-1 $-1 $280 $106 #
plane-surface $-1 6.3531737392087635 54.099173832862512 89.23432516789822 -1 0 0 0 0.70710678939079041 0.70710677298230451 forward_v I I I I #
coedge $-1 $281 $282 $283 $284 reversed $107 $-1 #
coedge $-1 $176 $109 $285 $286 reversed $69 $-1 #
coedge $-1 $109 $175 $281 $287 reversed $69 $-1 #
coedge $-1 $283 $288 $109 $178 forward $289 $-1 #
edge $-1 $290 8.4635278775508702 $291 13.486884040224137 $177 $292 forward 7 unknown #
loop $-1 $-1 $184 $110 #
plane-surface $-1 -3.6387697618155812 -7.6985974200022227 27.436555349057137 0 0.70710678939079041 0.70710677298230451 1 0 0 forward_v I I I I #
loop $-1 $-1 $293 $71 #
coedge $-1 $182 $182 $183 $294 reversed $111 $-1 #
coedge $-1 $183 $183 $182 $294 forward $113 $-1 #
coedge $-1 $184 $184 $114 $185 forward $179 $-1 #
edge $-1 $295 9.4205542784586009e-016 $295 6.2831853071796013 $184 $296 forward 7 unknown #
loop $-1 $-1 $191 $115 #
plane-surface $-1 -3.6387697618155812 -7.6985974200022227 27.436555349057137 0 0.70710678939079041 0.70710677298230451 1 0 0 forward_v I I I I #
loop $-1 $-1 $297 $74 #
coedge $-1 $189 $189 $190 $298 reversed $116 $-1 #
coedge $-1 $190 $190 $189 $298 forward $118 $-1 #
coedge $-1 $191 $191 $119 $192 forward $186 $-1 #
edge $-1 $299 9.4205542784586009e-016 $299 6.2831853071796013 $191 $300 forward 7 unknown #
loop $-1 $-1 $198 $120 #
plane-surface $-1 -3.6387697618155812 -7.6985974200022227 27.436555349057137 0 0.70710678939079041 0.70710677298230451 1 0 0 forward_v I I I I #
loop $-1 $-1 $301 $77 #
coedge $-1 $196 $196 $197 $302 reversed $121 $-1 #
coedge $-1 $197 $197 $196 $302 forward $123 $-1 #
coedge $-1 $198 $198 $124 $199 forward $193 $-1 #
edge $-1 $303 9.4205542784586009e-016 $303 6.2831853071796013 $198 $304 forward 7 unknown #
face $-1 $305 $306 $30 $-1 $307 reversed single #
loop $-1 $-1 $308 $125 #
plane-surface $-1 -43.697622608111821 0 0 1 0 0 0 0 -1 forward_v I I I I #
coedge $-1 $309 $211 $310 $311 forward $126 $-1 #
coedge $-1 $312 $128 $309 $313 forward $81 $-1 #
coedge $-1 $128 $312 $314 $315 forward $81 $-1 #
coedge $-1 $214 $213 $128 $207 reversed $215 $-1 #
edge $-1 $316 -18.586059038880386 $317 18.586059038880386 $206 $318 forward 7 unknown #
coedge $-1 $130 $129 $319 $320 forward $51 $-1 #
coedge $-1 $321 $322 $129 $210 reversed $306 $-1 #
edge $-1 $217 -43.697622608111821 $323 43.697622608111821 $209 $324 forward 7 unknown #
coedge $-1 $203 $325 $130 $212 reversed $126 $-1 #
edge $-1 $326 -43.697622608111821 $216 43.697622608111821 $211 $327 forward 7 unknown #
coedge $-1 $206 $131 $325 $328 forward $215 $-1 #
coedge $-1 $131 $206 $321 $329 reversed $215 $-1 #
loop $-1 $-1 $213 $305 #
vertex $-1 $132 $330 #
vertex $-1 $132 $331 #
straight-curve $-1 43.697622608111821 0 6.1752545594771222 0 1 0 I I #
face $-1 $332 $333 $31 $-1 $334 forward single #
loop $-1 $-1 $335 $133 #
plane-surface $-1 -43.697622608111821 0 0 1 0 0 0 0 -1 forward_v I I I I #
coedge $-1 $229 $336 $231 $337 forward $134 $-1 #
coedge $-1 $136 $231 $338 $339 reversed $85 $-1 #
coedge $-1 $340 $227 $136 $225 forward $341 $-1 #
edge $-1 $233 0.44886356843881403 $342 3.9672151835051435 $224 $343 forward 7 unknown #
coedge $-1 $138 $137 $335 $344 reversed $54 $-1 #
coedge $-1 $224 $345 $137 $228 forward $341 $-1 #
edge $-1 $346 -23.522264393948646 $233 -16.82845203437769 $227 $347 forward 7 unknown #
coedge $-1 $348 $222 $138 $230 forward $134 $-1 #
edge $-1 $232 16.82845203437769 $349 23.522264393948646 $229 $350 forward 7 unknown #
coedge $-1 $223 $139 $222 $337 reversed $85 $-1 #
vertex $-1 $230 $351 #
vertex $-1 $228 $352 #
straight-curve $-1 -37.003810248540859 0 2.6569029444107928 0 -1 0 I I #
face $-1 $353 $354 $32 $-1 $355 reversed single #
loop $-1 $-1 $356 $141 #
plane-surface $-1 0 -18.586059038880386 0 0 1 0 0 0 1 forward_v I I I I #
coedge $-1 $357 $358 $240 $359 forward $142 $-1 #
coedge $-1 $360 $144 $243 $361 reversed $89 $-1 #
coedge $-1 $144 $360 $238 $359 reversed $89 $-1 #
coedge $-1 $362 $246 $144 $242 forward $354 $-1 #
edge $-1 $363 0.44886356843881403 $364 3.9672151835051435 $241 $365 forward 7 unknown #
coedge $-1 $146 $145 $239 $361 forward $57 $-1 #
coedge $-1 $366 $356 $145 $245 forward $236 $-1 #
edge $-1 $367 16.828452034377687 $251 23.522264393948657 $244 $368 forward 7 unknown #
coedge $-1 $241 $369 $146 $247 forward $354 $-1 #
edge $-1 $252 -23.522264393948657 $363 -16.828452034377687 $246 $370 forward 7 unknown #
coedge $-1 $371 $147 $369 $372 reversed $250 $-1 #
coedge $-1 $147 $371 $366 $373 forward $250 $-1 #
loop $-1 $-1 $147 $353 #
vertex $-1 $245 $374 #
vertex $-1 $148 $375 #
straight-curve $-1 43.697622608111821 0 2.6569029444107928 0 1 0 I I #
face $-1 $-1 $376 $33 $-1 $377 forward single #
loop $-1 $-1 $378 $149 #
plane-surface $-1 0 -18.586059038880386 0 0 1 0 0 0 1 forward_v I I I I #
coedge $-1 $258 $152 $154 $264 reversed $93 $-1 #
coedge $-1 $152 $257 $378 $379 reversed $93 $-1 #
coedge $-1 $380 $155 $152 $260 forward $150 $-1 #
edge $-1 $267 -23.84803039967942 $381 -18.206775769725532 $259 $382 forward 7 unknown #
coedge $-1 $154 $153 $383 $384 reversed $60 $-1 #
coedge $-1 $385 $386 $153 $263 forward $376 $-1 #
edge $-1 $387 -8.1059277916509345 $266 -0.84698937381042305 $262 $388 forward 7 unknown #
edge $-1 $389 -9.1551213131864128e-015 $267 7.2589384178405023 $257 $390 forward 7 unknown #
coedge $-1 $155 $380 $385 $391 forward $150 $-1 #
vertex $-1 $263 $392 #
vertex $-1 $156 $393 #
straight-curve $-1 16.300389029143684 -12.944804408926498 6.1752545594771222 -1 0 0 I I #
coedge $-1 $269 $269 $-1 $394 reversed $159 $-1 #
edge $-1 $395 0 $395 6.2831853071796004 $160 $396 forward 7 unknown #
vertex $-1 $163 $397 #
ellipse-curve $-1 30.713764262464444 -15.765431723903443 3.8911555492531367 0 -0.62932039886446345 0.77714595512881146 1 0 0 1 I I #
coedge $-1 $273 $273 $-1 $398 reversed $166 $-1 #
edge $-1 $399 0 $399 6.2831853071796004 $167 $400 forward 7 unknown #
vertex $-1 $170 $401 #
ellipse-curve $-1 34.487791854110291 -15.765431723903443 3.8911555492531367 0 -0.62932039886446345 0.77714595512881146 1 0 0 1 I I #
face $-1 $-1 $289 $36 $-1 $402 forward single #
loop $-1 $-1 $403 $171 #
plane-surface $-1 0 18.586059038880386 0 0 -1 0 0 0 -1 forward_v I I I I #
coedge $-1 $404 $405 $406 $407 reversed $172 $-1 #
coedge $-1 $408 $174 $176 $287 forward $107 $-1 #
coedge $-1 $174 $408 $404 $409 forward $107 $-1 #
coedge $-1 $406 $177 $174 $284 forward $289 $-1 #
edge $-1 $291 -11.811328381932135 $410 8.1725586201165541 $283 $411 forward 7 unknown #
coedge $-1 $412 $413 $175 $286 forward $278 $-1 #
edge $-1 $414 -43.465264303712758 $290 -38.441908024471985 $285 $415 forward 7 unknown #
edge $-1 $291 30.068019581452116 $414 37.172118077760786 $176 $416 forward 7 unknown #
coedge $-1 $177 $406 $412 $417 forward $289 $-1 #
loop $-1 $-1 $406 $277 #
vertex $-1 $286 $418 #
vertex $-1 $178 $419 #
straight-curve $-1 -13.630713262839926 27.049586916431256 6.1752545594771249 0 -1 0 I I #
coedge $-1 $293 $293 $-1 $420 reversed $181 $-1 #
edge $-1 $421 0 $421 6.2831853071796004 $182 $422 forward 7 unknown #
vertex $-1 $185 $423 #
ellipse-curve $-1 -9.6339358624301852 16.074380957543745 3.6635764198567378 0 0.70710678939079041 0.70710677298230451 1 0 0 1 I I #
coedge $-1 $297 $297 $-1 $424 reversed $188 $-1 #
edge $-1 $425 0 $425 6.2831853071796004 $189 $426 forward 7 unknown #
vertex $-1 $192 $427 #
ellipse-curve $-1 -3.6387697618155812 16.074380957543745 3.6635764198567378 0 0.70710678939079041 0.70710677298230451 1 0 0 1 I I #
coedge $-1 $301 $301 $-1 $428 reversed $195 $-1 #
edge $-1 $429 0 $429 6.2831853071796004 $196 $430 forward 7 unknown #
vertex $-1 $199 $431 #
ellipse-curve $-1 2.3563963387990228 16.074380957543745 3.6635764198567378 0 0.70710678939079041 0.70710677298230451 1 0 0 1 I I #
face $-1 $-1 $215 $30 $-1 $432 reversed single #
loop $-1 $-1 $321 $200 #
plane-surface $-1 0 18.586059038880386 0 0 -1 0 0 0 -1 forward_v I I I I #
coedge $-1 $433 $319 $322 $434 forward $201 $-1 #
coedge $-1 $325 $203 $204 $313 reversed $126 $-1 #
coedge $-1 $319 $433 $203 $311 reversed $201 $-1 #
edge $-1 $326 -6.1752545594771222 $435 6.1752545594771222 $310 $436 forward 7 unknown #
coedge $-1 $205 $204 $433 $437 forward $81 $-1 #
edge $-1 $317 -43.697622608111821 $435 43.697622608111821 $309 $438 forward 7 unknown #
coedge $-1 $322 $321 $205 $315 reversed $306 $-1 #
edge $-1 $439 -43.697622608111821 $316 43.697622608111821 $314 $440 forward 7 unknown #
vertex $-1 $207 $441 #
vertex $-1 $328 $442 #
straight-curve $-1 43.697622608111821 0 -6.1752545594771222 0 -1 0 I I #
coedge $-1 $308 $310 $208 $320 reversed $201 $-1 #
edge $-1 $323 -18.586059038880386 $326 18.586059038880386 $319 $443 forward 7 unknown #
coedge $-1 $314 $209 $214 $329 forward $306 $-1 #
coedge $-1 $209 $314 $308 $434 reversed $306 $-1 #
vertex $-1 $210 $444 #
straight-curve $-1 0 18.586059038880386 6.1752545594771222 -1 0 0 I I #
coedge $-1 $211 $309 $213 $328 reversed $126 $-1 #
vertex $-1 $320 $445 #
straight-curve $-1 0 -18.586059038880386 6.1752545594771222 1 0 0 I I #
edge $-1 $216 -6.1752545594771222 $317 6.1752545594771222 $213 $446 forward 7 unknown #
edge $-1 $217 -6.1752545594771222 $316 6.1752545594771222 $214 $447 forward 7 unknown #
point $-1 43.697622608111821 -18.586059038880386 6.1752545594771222 #
point $-1 43.697622608111821 18.586059038880386 6.1752545594771222 #
face $-1 $-1 $341 $31 $-1 $448 reversed single #
loop $-1 $-1 $338 $219 #
plane-surface $-1 0 0 6.1752545594771222 0 0 1 1 0 0 forward_v I I I I #
coedge $-1 $449 $450 $226 $344 forward $220 $-1 #
coedge $-1 $222 $348 $451 $452 reversed $134 $-1 #
edge $-1 $453 -3.9672151835051435 $232 -0.44886356843881403 $222 $454 forward 7 unknown #
coedge $-1 $451 $455 $223 $339 forward $333 $-1 #
edge $-1 $342 -18.586059038880386 $453 18.586059038880386 $338 $456 forward 7 unknown #
coedge $-1 $345 $224 $455 $457 reversed $341 $-1 #
loop $-1 $-1 $224 $332 #
vertex $-1 $225 $458 #
straight-curve $-1 -37.003810248540859 -18.586059038880386 2.2080393759719787 0 0 1 I I #
edge $-1 $349 -18.586059038880386 $346 18.586059038880386 $335 $459 forward 7 unknown #
coedge $-1 $227 $340 $449 $460 forward $341 $-1 #
vertex $-1 $344 $461 #
straight-curve $-1 -20.175358214163168 -18.586059038880386 2.6569029444107928 1 0 0 I I #
coedge $-1 $336 $229 $450 $462 reversed $134 $-1 #
vertex $-1 $344 $463 #
straight-curve $-1 -20.175358214163168 18.586059038880386 2.6569029444107928 -1 0 0 I I #
point $-1 -37.003810248540859 18.586059038880386 2.6569029444107928 #
point $-1 -37.003810248540859 -18.586059038880386 2.6569029444107928 #
face $-1 $-1 $250 $32 $-1 $464 reversed single #
loop $-1 $-1 $241 $235 #
plane-surface $-1 0 18.586059038880386 0 0 -1 0 0 0 -1 forward_v I I I I #
coedge $-1 $244 $465 $360 $466 forward $236 $-1 #
coedge $-1 $467 $238 $465 $468 forward $142 $-1 #
coedge $-1 $238 $467 $362 $469 forward $142 $-1 #
edge $-1 $364 -18.586059038880386 $470 18.586059038880386 $238 $471 forward 7 unknown #
coedge $-1 $240 $239 $356 $466 reversed $89 $-1 #
edge $-1 $367 -18.586059038880386 $363 18.586059038880386 $239 $472 forward 7 unknown #
coedge $-1 $369 $241 $358 $469 reversed $354 $-1 #
vertex $-1 $247 $473 #
vertex $-1 $242 $474 #
straight-curve $-1 37.003810248540859 18.586059038880386 2.2080393759719787 0 0 1 I I #
coedge $-1 $465 $244 $249 $373 reversed $236 $-1 #
vertex $-1 $245 $475 #
straight-curve $-1 20.175358214163172 -18.586059038880386 2.6569029444107928 1 0 0 I I #
coedge $-1 $246 $362 $248 $372 forward $354 $-1 #
straight-curve $-1 20.175358214163172 18.586059038880386 2.6569029444107928 -1 0 0 I I #
coedge $-1 $249 $248 $467 $476 reversed $250 $-1 #
edge $-1 $477 -6.1752545594771222 $252 -2.6569029444107928 $248 $478 forward 7 unknown #
edge $-1 $479 -6.1752545594771222 $251 -2.6569029444107928 $249 $480 forward 7 unknown #
point $-1 43.697622608111828 -18.586059038880386 2.6569029444107928 #
point $-1 43.697622608111828 18.586059038880386 2.6569029444107928 #
loop $-1 $-1 $262 $254 #
plane-surface $-1 37.003810248540859 0 4.4160787519439575 1 0 0 0 0 -1 forward_v I I I I #
coedge $-1 $383 $481 $258 $379 forward $255 $-1 #
edge $-1 $381 28.587704368676864 $389 33.155902389124833 $378 $482 forward 7 unknown #
coedge $-1 $265 $259 $481 $483 forward $150 $-1 #
vertex $-1 $483 $484 #
straight-curve $-1 28.197745868033884 -36.792834808605917 6.1752545594771213 0 -1 0 I I #
coedge $-1 $485 $378 $261 $384 forward $255 $-1 #
edge $-1 $389 11.8973568388902 $387 20.703421219397168 $383 $486 forward 7 unknown #
coedge $-1 $386 $262 $265 $391 reversed $376 $-1 #
coedge $-1 $262 $385 $485 $487 reversed $376 $-1 #
vertex $-1 $487 $488 #
straight-curve $-1 37.003810248540859 -12.286570043032643 6.7082822500374588 0 0.77714595512881146 0.62932039886446345 I I #
vertex $-1 $384 $489 #
straight-curve $-1 28.197745868033884 -18.586059038880379 1.6070565390291591 0 0.77714595512881146 0.62932039886446345 I I #
edge $-1 $490 -18.586059038880386 $266 -12.944804408926499 $265 $491 forward 7 unknown #
point $-1 37.003810248540859 -12.944804408926499 6.1752545594771222 #
point $-1 28.197745868033884 -12.944804408926498 6.1752545594771222 #
edge $-1 $492 1 $492 0 $269 $-1 forward 7 unknown #
vertex $-1 $270 $493 #
ellipse-curve $-1 30.713764262464444 -13.541366917576848 1.1446643004396573 0 -0.62932039886446345 0.77714595512881146 1 0 0 1 I I #
point $-1 31.713764262464444 -15.765431723903449 3.8911555492531438 #
edge $-1 $494 1 $494 0 $273 $-1 forward 7 unknown #
vertex $-1 $274 $495 #
ellipse-curve $-1 34.487791854110291 -13.541366917576848 1.1446643004396573 0 -0.62932039886446345 0.77714595512881146 1 0 0 1 I I #
point $-1 35.487791854110291 -15.765431723903449 3.8911555492531438 #
plane-surface $-1 0 0 6.1752545594771222 0 0 1 1 0 0 forward_v I I I I #
coedge $-1 $413 $412 $405 $496 forward $278 $-1 #
coedge $-1 $405 $280 $282 $409 reversed $172 $-1 #
coedge $-1 $280 $404 $403 $496 reversed $172 $-1 #
coedge $-1 $288 $283 $280 $407 forward $289 $-1 #
edge $-1 $410 -13.486884040224137 $497 -8.4635278775508702 $406 $498 forward 7 unknown #
coedge $-1 $282 $281 $413 $499 reversed $107 $-1 #
edge $-1 $500 -37.172118077760786 $410 -30.068019581452116 $404 $501 forward 7 unknown #
vertex $-1 $284 $502 #
straight-curve $-1 -1.8193848809077906 13.562702876207121 6.1752545594771178 1 0 0 I I #
coedge $-1 $403 $285 $288 $417 reversed $278 $-1 #
coedge $-1 $285 $403 $408 $499 forward $278 $-1 #
vertex $-1 $286 $503 #
straight-curve $-1 -13.630713262839926 18.586059038880386 44.61716258394911 0 0 1 I I #
straight-curve $-1 -13.630713262839926 -7.6985974200022227 27.436555349057137 0 0.70710677298230451 -0.70710678939079041 I I #
edge $-1 $497 -6.3531737392087635 $290 13.630713262839926 $412 $504 forward 7 unknown #
point $-1 -13.630713262839926 18.586059038880386 6.1752545594771222 #
point $-1 -13.630713262839926 13.562702876207119 6.1752545594771213 #
edge $-1 $505 1 $505 0 $293 $-1 forward 7 unknown #
vertex $-1 $294 $506 #
ellipse-curve $-1 -9.6339358624301852 15.035484047394773 2.6246795338154754 0 0.70710678939079041 0.70710677298230451 1 0 0 1 I I #
point $-1 -8.6339358624301852 16.074380957543749 3.66357641985674 #
edge $-1 $507 1 $507 0 $297 $-1 forward 7 unknown #
vertex $-1 $298 $508 #
ellipse-curve $-1 -3.6387697618155812 15.035484047394773 2.6246795338154754 0 0.70710678939079041 0.70710677298230451 1 0 0 1 I I #
point $-1 -2.6387697618155812 16.074380957543749 3.66357641985674 #
edge $-1 $509 1 $509 0 $301 $-1 forward 7 unknown #
vertex $-1 $302 $510 #
ellipse-curve $-1 2.3563963387990228 15.035484047394773 2.6246795338154754 0 0.70710678939079041 0.70710677298230451 1 0 0 1 I I #
point $-1 3.3563963387990228 16.074380957543749 3.66357641985674 #
plane-surface $-1 43.697622608111821 0 0 -1 0 0 0 0 1 forward_v I I I I #
coedge $-1 $310 $308 $312 $437 reversed $201 $-1 #
edge $-1 $323 -6.1752545594771222 $439 6.1752545594771222 $322 $511 forward 7 unknown #
vertex $-1 $437 $512 #
straight-curve $-1 -43.697622608111821 -18.586059038880386 0 0 0 -1 I I #
edge $-1 $435 -18.586059038880386 $439 18.586059038880386 $433 $513 forward 7 unknown #
straight-curve $-1 0 -18.586059038880386 -6.1752545594771222 -1 0 0 I I #
vertex $-1 $315 $514 #
straight-curve $-1 0 18.586059038880386 -6.1752545594771222 1 0 0 I I #
point $-1 43.697622608111821 18.586059038880386 -6.1752545594771222 #
point $-1 43.697622608111821 -18.586059038880386 -6.1752545594771222 #
straight-curve $-1 -43.697622608111821 0 6.1752545594771222 0 -1 0 I I #
point $-1 -43.697622608111821 18.586059038880386 6.1752545594771222 #
point $-1 -43.697622608111821 -18.586059038880386 6.1752545594771222 #
straight-curve $-1 43.697622608111821 -18.586059038880386 0 0 0 -1 I I #
straight-curve $-1 43.697622608111821 18.586059038880386 0 0 0 -1 I I #
plane-surface $-1 0 -18.586059038880386 0 0 1 0 0 0 1 forward_v I I I I #
coedge $-1 $515 $335 $345 $460 reversed $220 $-1 #
coedge $-1 $335 $515 $348 $462 forward $220 $-1 #
coedge $-1 $516 $338 $336 $452 forward $333 $-1 #
edge $-1 $453 37.003810248540859 $517 43.697622608111821 $336 $518 forward 7 unknown #
vertex $-1 $452 $519 #
straight-curve $-1 -37.003810248540859 18.586059038880386 2.2080393759719787 0 0 -1 I I #
coedge $-1 $338 $516 $340 $457 forward $333 $-1 #
straight-curve $-1 -37.003810248540859 0 6.1752545594771222 0 1 0 I I #
edge $-1 $520 -43.697622608111821 $342 -37.003810248540859 $340 $521 forward 7 unknown #
point $-1 -37.003810248540859 -18.586059038880386 6.1752545594771222 #
straight-curve $-1 -43.697622608111821 0 2.6569029444107928 0 -1 0 I I #
edge $-1 $520 -6.1752545594771222 $346 -2.6569029444107928 $449 $522 forward 7 unknown #
point $-1 -43.697622608111814 -18.586059038880386 2.6569029444107928 #
edge $-1 $517 -6.1752545594771222 $349 -2.6569029444107928 $348 $523 forward 7 unknown #
point $-1 -43.697622608111814 18.586059038880386 2.6569029444107928 #
plane-surface $-1 43.697622608111821 0 0 -1 0 0 0 0 1 forward_v I I I I #
coedge $-1 $356 $366 $357 $468 reversed $236 $-1 #
edge $-1 $470 -3.9672151835051435 $367 -0.44886356843881403 $356 $524 forward 7 unknown #
coedge $-1 $358 $357 $371 $476 forward $142 $-1 #
edge $-1 $470 37.003810248540859 $479 43.697622608111821 $465 $525 forward 7 unknown #
edge $-1 $477 -43.697622608111821 $364 -37.003810248540859 $362 $526 forward 7 unknown #
vertex $-1 $468 $527 #
straight-curve $-1 37.003810248540859 0 6.1752545594771222 0 -1 0 I I #
straight-curve $-1 37.003810248540859 0 2.6569029444107928 0 1 0 I I #
point $-1 37.003810248540859 18.586059038880386 2.6569029444107928 #
point $-1 37.003810248540859 18.586059038880386 6.1752545594771222 #
point $-1 37.003810248540859 -18.586059038880386 2.6569029444107928 #
edge $-1 $479 -18.586059038880386 $477 18.586059038880386 $371 $528 forward 7 unknown #
vertex $-1 $476 $529 #
straight-curve $-1 43.697622608111821 18.586059038880386 0 0 0 -1 I I #
vertex $-1 $476 $530 #
straight-curve $-1 43.697622608111821 -18.586059038880386 0 0 0 -1 I I #
coedge $-1 $378 $485 $380 $483 reversed $255 $-1 #
straight-curve $-1 28.197745868033884 -18.586059038880386 34.762958928153985 0 0 -1 I I #
edge $-1 $381 28.197745868033884 $490 37.003810248540859 $481 $531 forward 7 unknown #
point $-1 28.197745868033884 -18.586059038880386 6.1752545594771222 #
coedge $-1 $481 $383 $386 $487 forward $255 $-1 #
straight-curve $-1 16.300389029143684 -18.586059038880386 1.6070565390291542 1 0 0 I I #
edge $-1 $387 -33.155902389124833 $490 -28.587704368676864 $485 $532 forward 7 unknown #
point $-1 37.003810248540852 -18.586059038880386 1.6070565390291534 #
point $-1 28.197745868033884 -18.586059038880386 1.6070565390291534 #
vertex $-1 $391 $533 #
straight-curve $-1 37.003810248540859 0 6.1752545594771222 0 1 0 I I #
vertex $-1 $394 $534 #
point $-1 31.713764262464444 -13.541366917576848 1.1446643004396573 #
vertex $-1 $398 $535 #
point $-1 35.487791854110291 -13.541366917576848 1.1446643004396573 #
edge $-1 $497 38.441908024471985 $500 43.465264303712758 $403 $536 forward 7 unknown #
vertex $-1 $417 $537 #
straight-curve $-1 6.3531737392087635 27.049586916431256 6.1752545594771249 0 1 0 I I #
edge $-1 $500 -8.1725586201165541 $414 11.811328381932135 $413 $538 forward 7 unknown #
vertex $-1 $499 $539 #
straight-curve $-1 6.3531737392087635 -7.6985974200022227 27.436555349057137 0 -0.70710677298230451 0.70710678939079041 I I #
point $-1 6.3531737392087635 13.562702876207119 6.1752545594771213 #
point $-1 -13.630713262839926 18.586059038880386 1.151898280236356 #
straight-curve $-1 0 18.586059038880386 6.1752545594771222 -1 0 0 I I #
vertex $-1 $420 $540 #
point $-1 -8.6339358624301852 15.035484047394773 2.6246795338154754 #
vertex $-1 $424 $541 #
point $-1 -2.6387697618155812 15.035484047394773 2.6246795338154754 #
vertex $-1 $428 $542 #
point $-1 3.3563963387990228 15.035484047394773 2.6246795338154754 #
straight-curve $-1 -43.697622608111821 18.586059038880386 0 0 0 -1 I I #
point $-1 -43.697622608111821 -18.586059038880386 -6.1752545594771222 #
straight-curve $-1 -43.697622608111821 0 -6.1752545594771222 0 1 0 I I #
point $-1 -43.697622608111821 18.586059038880386 -6.1752545594771222 #
coedge $-1 $450 $449 $516 $543 reversed $220 $-1 #
coedge $-1 $455 $451 $515 $543 forward $333 $-1 #
vertex $-1 $452 $544 #
straight-curve $-1 0 18.586059038880386 6.1752545594771222 -1 0 0 I I #
point $-1 -37.003810248540859 18.586059038880386 6.1752545594771222 #
vertex $-1 $543 $545 #
straight-curve $-1 0 -18.586059038880386 6.1752545594771222 1 0 0 I I #
straight-curve $-1 -43.697622608111821 -18.586059038880386 0 0 0 -1 I I #
straight-curve $-1 -43.697622608111821 18.586059038880386 0 0 0 -1 I I #
straight-curve $-1 37.003810248540859 -18.586059038880386 2.2080393759719787 0 0 -1 I I #
straight-curve $-1 0 -18.586059038880386 6.1752545594771222 1 0 0 I I #
straight-curve $-1 0 18.586059038880386 6.1752545594771222 -1 0 0 I I #
point $-1 37.003810248540859 -18.586059038880386 6.1752545594771222 #
straight-curve $-1 43.697622608111821 0 6.1752545594771222 0 1 0 I I #
point $-1 43.697622608111821 18.586059038880386 6.1752545594771222 #
point $-1 43.697622608111821 -18.586059038880386 6.1752545594771222 #
straight-curve $-1 0 -18.586059038880386 6.1752545594771222 1 0 0 I I #
straight-curve $-1 37.003810248540852 -18.586059038880386 34.762958928153985 0 0 1 I I #
point $-1 37.003810248540859 -18.586059038880386 6.1752545594771222 #
point $-1 30.713764262464444 -12.912046518712383 0.36751834531084576 #
point $-1 34.487791854110291 -12.912046518712383 0.36751834531084576 #
straight-curve $-1 6.3531737392087635 18.586059038880386 44.61716258394911 0 0 -1 I I #
point $-1 6.3531737392087635 18.586059038880386 6.1752545594771222 #
straight-curve $-1 -1.8193848809077906 18.586059038880386 1.1518982802363542 -1 0 0 I I #
point $-1 6.3531737392087635 18.586059038880386 1.151898280236356 #
point $-1 -9.6339358624301852 14.328377258003984 1.917572760833171 #
point $-1 -3.6387697618155812 14.328377258003984 1.917572760833171 #
point $-1 2.3563963387990228 14.328377258003984 1.917572760833171 #
edge $-1 $517 -18.586059038880386 $520 18.586059038880386 $515 $546 forward 7 unknown #
point $-1 -43.697622608111821 18.586059038880386 6.1752545594771222 #
point $-1 -43.697622608111821 -18.586059038880386 6.1752545594771222 #
straight-curve $-1 -43.697622608111821 0 6.1752545594771222 0 -1 0 I I #
End-of-ACIS-data 