500 0 17 0           
7 Unknown 11 ACIS 5.0 NT 24 Fri Mar 26 02:07:42 1999 
-1 9.9999999999999995e-007 1e-010 
body $-1 $17 $-1 $18 #
body $-1 $19 $-1 $20 #
body $-1 $21 $-1 $22 #
body $-1 $23 $-1 $24 #
body $-1 $25 $-1 $26 #
body $-1 $27 $-1 $28 #
body $-1 $29 $-1 $30 #
body $-1 $31 $-1 $32 #
body $-1 $33 $-1 $34 #
body $-1 $35 $-1 $36 #
body $-1 $37 $-1 $38 #
body $-1 $39 $-1 $40 #
body $-1 $41 $-1 $42 #
body $-1 $43 $-1 $44 #
body $-1 $45 $-1 $46 #
body $-1 $47 $-1 $48 #
body $-1 $49 $-1 $50 #
lump $-1 $-1 $51 $0 #
transform $-1 1 0 0 0 1 0 0 0 1 61.961119418927581 37.426467600794716 14.274416136582897 1 rotate no_reflect no_shear #
lump $-1 $-1 $52 $1 #
transform $-1 1 0 0 0 1 0 0 0 1 61.961119418927581 37.426467600794716 14.274416136582897 1 rotate no_reflect no_shear #
lump $-1 $-1 $53 $2 #
transform $-1 1 0 0 0 1 0 0 0 1 61.961119418927581 37.426467600794716 14.274416136582897 1 rotate no_reflect no_shear #
lump $-1 $-1 $54 $3 #
transform $-1 1 0 0 0 1 0 0 0 1 61.961119418927581 37.426467600794716 14.274416136582897 1 rotate no_reflect no_shear #
lump $-1 $-1 $55 $4 #
transform $-1 1 0 0 0 1 0 0 0 1 61.961119418927581 37.426467600794716 14.274416136582897 1 rotate no_reflect no_shear #
lump $-1 $-1 $56 $5 #
transform $-1 1 0 0 0 1 0 0 0 1 61.961119418927581 37.426467600794716 14.274416136582897 1 rotate no_reflect no_shear #
lump $-1 $-1 $57 $6 #
transform $-1 1 0 0 0 1 0 0 0 1 61.961119418927581 37.426467600794716 14.274416136582897 1 rotate no_reflect no_shear #
lump $-1 $-1 $58 $7 #
transform $-1 1 0 0 0 1 0 0 0 1 61.961119418927581 37.426467600794716 14.274416136582897 1 rotate no_reflect no_shear #
lump $-1 $-1 $59 $8 #
transform $-1 1 0 0 0 1 0 0 0 1 61.961119418927581 37.426467600794716 14.274416136582897 1 rotate no_reflect no_shear #
lump $-1 $-1 $60 $9 #
transform $-1 1 0 0 0 1 0 0 0 1 61.961119418927581 37.426467600794716 14.274416136582897 1 rotate no_reflect no_shear #
lump $-1 $-1 $61 $10 #
transform $-1 1 0 0 0 1 0 0 0 1 61.961119418927581 37.426467600794716 14.274416136582897 1 rotate no_reflect no_shear #
lump $-1 $-1 $62 $11 #
transform $-1 1 0 0 0 1 0 0 0 1 61.961119418927581 37.426467600794716 14.274416136582897 1 rotate no_reflect no_shear #
lump $-1 $-1 $63 $12 #
transform $-1 1 0 0 0 1 0 0 0 1 61.961119418927581 37.426467600794716 14.274416136582897 1 rotate no_reflect no_shear #
lump $-1 $-1 $64 $13 #
transform $-1 1 0 0 0 1 0 0 0 1 61.961119418927581 37.426467600794716 14.274416136582897 1 rotate no_reflect no_shear #
lump $-1 $-1 $65 $14 #
transform $-1 1 0 0 0 1 0 0 0 1 61.961119418927581 37.426467600794716 14.274416136582897 1 rotate no_reflect no_shear #
lump $-1 $-1 $66 $15 #
transform $-1 1 0 0 0 1 0 0 0 1 61.961119418927581 37.426467600794716 14.274416136582897 1 rotate no_reflect no_shear #
lump $-1 $-1 $67 $16 #
transform $-1 1 0 0 0 1 0 0 0 1 61.961119418927581 37.426467600794716 14.274416136582897 1 rotate no_reflect no_shear #
shell $-1 $-1 $-1 $68 $-1 $17 #
shell $-1 $-1 $-1 $69 $-1 $19 #
shell $-1 $-1 $-1 $70 $-1 $21 #
shell $-1 $-1 $-1 $71 $-1 $23 #
shell $-1 $-1 $-1 $72 $-1 $25 #
shell $-1 $-1 $-1 $73 $-1 $27 #
shell $-1 $-1 $-1 $74 $-1 $29 #
shell $-1 $-1 $-1 $75 $-1 $31 #
shell $-1 $-1 $-1 $76 $-1 $33 #
shell $-1 $-1 $-1 $77 $-1 $35 #
shell $-1 $-1 $-1 $78 $-1 $37 #
shell $-1 $-1 $-1 $79 $-1 $39 #
shell $-1 $-1 $-1 $80 $-1 $41 #
shell $-1 $-1 $-1 $81 $-1 $43 #
shell $-1 $-1 $-1 $82 $-1 $45 #
shell $-1 $-1 $-1 $83 $-1 $47 #
shell $-1 $-1 $-1 $84 $-1 $49 #
face $-1 $85 $86 $51 $-1 $87 forward single #
face $-1 $88 $89 $52 $-1 $90 forward single #
face $-1 $91 $92 $53 $-1 $93 reversed single #
face $-1 $94 $95 $54 $-1 $96 forward single #
face $-1 $97 $98 $55 $-1 $99 forward single #
face $-1 $100 $101 $56 $-1 $102 reversed single #
face $-1 $103 $104 $57 $-1 $105 forward single #
face $-1 $106 $107 $58 $-1 $108 forward single #
face $-1 $109 $110 $59 $-1 $111 reversed single #
face $-1 $112 $113 $60 $-1 $114 forward single #
face $-1 $115 $116 $61 $-1 $117 forward single #
face $-1 $118 $119 $62 $-1 $120 reversed single #
face $-1 $121 $122 $63 $-1 $123 forward single #
face $-1 $124 $125 $64 $-1 $126 forward single #
face $-1 $127 $128 $65 $-1 $129 reversed single #
face $-1 $130 $131 $66 $-1 $132 forward single #
face $-1 $133 $134 $67 $-1 $135 forward single #
face $-1 $136 $137 $51 $-1 $138 reversed single #
loop $-1 $-1 $139 $68 #
plane-surface $-1 0 0 14.274416136582897 0 0 1 1 0 0 forward_v I I I I #
face $-1 $140 $141 $52 $-1 $142 forward single #
loop $-1 $-1 $143 $69 #
plane-surface $-1 0 -37.426467600794716 0 0 1 0 0 0 1 forward_v I I I I #
face $-1 $144 $145 $53 $-1 $146 reversed single #
loop $-1 $-1 $147 $70 #
plane-surface $-1 -163.47227570378755 -22.758430093797351 80.908161656381182 0 1 0 -0.81915205242281985 0 0.57357642473473569 forward_v I I I I #
face $-1 $148 $149 $54 $-1 $150 forward single #
loop $-1 $151 $152 $71 #
cone-surface $-1 -58.926941888756659 -19.207565999077328 11.017000085296401 0.81915205242281985 0 -0.57357642473473569 0.57357642473473569 0 0.81915205242281985 1 I I 0 1 1 forward I I I I #
face $-1 $153 $154 $55 $-1 $155 forward single #
loop $-1 $156 $157 $72 #
cone-surface $-1 -58.926941888756659 -13.881269856997296 11.017000085296401 0.81915205242281985 0 -0.57357642473473569 0.57357642473473569 0 0.81915205242281985 1 I I 0 1 1 forward I I I I #
face $-1 $158 $159 $56 $-1 $160 reversed single #
loop $-1 $-1 $161 $73 #
plane-surface $-1 61.9611214523039 -7.7122056701493307 179.88999919182589 0 -1 0 -0.70710678939079041 0 -0.70710677298230451 forward_v I I I I #
face $-1 $162 $163 $57 $-1 $164 forward single #
loop $-1 $165 $166 $74 #
cone-surface $-1 56.722161561626848 -14.307429438144833 9.0354581772268325 -0.70710678939079041 0 -0.70710677298230451 0.70710677298230451 0 -0.70710678939079041 1 I I 0 1 1 forward I I I I #
face $-1 $167 $168 $58 $-1 $169 forward single #
loop $-1 $170 $171 $75 #
cone-surface $-1 56.722161561626848 -10.350295177347533 9.0354581772268325 -0.70710678939079041 0 -0.70710677298230451 0.70710677298230451 0 -0.70710678939079041 1 I I 0 1 1 forward I I I I #
face $-1 $172 $173 $59 $-1 $174 reversed single #
loop $-1 $-1 $175 $76 #
plane-surface $-1 61.9611214523039 7.334018753498686 179.88999919182589 0 -1 0 -0.70710678939079041 0 -0.70710677298230451 forward_v I I I I #
face $-1 $176 $177 $60 $-1 $178 forward single #
loop $-1 $179 $180 $77 #
cone-surface $-1 56.722161561626848 0.73879498550318345 9.0354581772268325 -0.70710678939079041 0 -0.70710677298230451 0.70710677298230451 0 -0.70710678939079041 1 I I 0 1 1 forward I I I I #
face $-1 $181 $182 $61 $-1 $183 forward single #
loop $-1 $184 $185 $78 #
cone-surface $-1 56.722161561626848 4.6959292463004871 9.0354581772268325 -0.70710678939079041 0 -0.70710677298230451 0.70710677298230451 0 -0.70710678939079041 1 I I 0 1 1 forward I I I I #
face $-1 $186 $187 $62 $-1 $188 reversed single #
loop $-1 $-1 $189 $79 #
plane-surface $-1 61.9611214523039 22.380243177146706 179.88999919182589 0 -1 0 -0.70710678939079041 0 -0.70710677298230451 forward_v I I I I #
face $-1 $190 $191 $63 $-1 $192 forward single #
loop $-1 $193 $194 $80 #
cone-surface $-1 56.722161561626848 15.785019409151197 9.0354581772268325 -0.70710678939079041 0 -0.70710677298230451 0.70710677298230451 0 -0.70710678939079041 1 I I 0 1 1 forward I I I I #
face $-1 $195 $196 $64 $-1 $197 forward single #
loop $-1 $198 $199 $81 #
cone-surface $-1 56.722161561626848 19.7421536699485 9.0354581772268325 -0.70710678939079041 0 -0.70710677298230451 0.70710677298230451 0 -0.70710678939079041 1 I I 0 1 1 forward I I I I #
face $-1 $200 $201 $65 $-1 $202 reversed single #
loop $-1 $-1 $203 $82 #
plane-surface $-1 61.9611214523039 28.193154325601018 179.88999919182589 0 1 0 0.70710678939079041 0 0.70710677298230451 forward_v I I I I #
face $-1 $204 $205 $66 $-1 $206 forward single #
loop $-1 $207 $208 $83 #
cone-surface $-1 56.722161561626848 30.83124383279921 9.0354581772268325 -0.70710678939079041 0 -0.70710677298230451 0.70710677298230451 0 -0.70710678939079041 1 I I 0 1 1 forward I I I I #
face $-1 $209 $210 $67 $-1 $211 forward single #
loop $-1 $212 $213 $84 #
cone-surface $-1 56.722161561626848 34.788378093596513 9.0354581772268325 -0.70710678939079041 0 -0.70710677298230451 0.70710677298230451 0 -0.70710678939079041 1 I I 0 1 1 forward I I I I #
face $-1 $214 $215 $51 $-1 $216 reversed single #
loop $-1 $-1 $217 $85 #
plane-surface $-1 0 0 -14.274416136582897 0 0 1 1 0 0 forward_v I I I I #
coedge $-1 $218 $219 $220 $221 forward $86 $-1 #
face $-1 $222 $223 $52 $-1 $224 reversed single #
loop $-1 $-1 $225 $88 #
plane-surface $-1 0 0 14.274416136582897 0 0 1 1 0 0 forward_v I I I I #
coedge $-1 $226 $227 $228 $229 forward $89 $-1 #
face $-1 $230 $231 $53 $-1 $232 reversed single #
loop $-1 $-1 $233 $91 #
plane-surface $-1 -61.961119418927595 -16.544417928037312 9.8292869586401963 -0.81915205242281985 0 0.57357642473473569 0.57357642473473569 0 0.81915205242281985 forward_v I I I I #
coedge $-1 $234 $235 $236 $237 reversed $92 $-1 #
face $-1 $-1 $238 $54 $-1 $239 forward single #
loop $-1 $240 $241 $94 #
cone-surface $-1 -57.039444764759104 -19.207565999077328 9.6953604106138833 0.81915205242281985 0 -0.57357642473473569 0.28678821236736785 0 0.40957602621140993 1 I I -0.70710678118654746 0.70710678118654746 0.5 forward I I I I #
loop $-1 $-1 $242 $71 #
coedge $-1 $152 $152 $243 $244 reversed $95 $-1 #
face $-1 $-1 $245 $55 $-1 $246 forward single #
loop $-1 $247 $248 $97 #
cone-surface $-1 -57.039444764759104 -13.881269856997296 9.6953604106138833 0.81915205242281985 0 -0.57357642473473569 0.28678821236736785 0 0.40957602621140993 1 I I -0.70710678118654746 0.70710678118654746 0.5 forward I I I I #
loop $-1 $-1 $249 $72 #
coedge $-1 $157 $157 $250 $251 reversed $98 $-1 #
face $-1 $252 $253 $56 $-1 $254 reversed single #
loop $-1 $-1 $255 $100 #
plane-surface $-1 -25.665134986450582 -12.328862307746181 92.263744786447731 0.70710678939079041 0 0.70710677298230451 0.70710677298230451 0 -0.70710678939079041 forward_v I I I I #
coedge $-1 $256 $257 $258 $259 reversed $101 $-1 #
face $-1 $-1 $260 $57 $-1 $261 forward single #
loop $-1 $262 $263 $103 #
cone-surface $-1 55.9481140922626 -14.307429438144833 8.2614107258244367 -0.70710678939079041 0 -0.70710677298230451 0.35355338649115226 0 -0.35355339469539521 1 I I -0.70710678118654746 0.70710678118654746 0.5 forward I I I I #
loop $-1 $-1 $264 $74 #
coedge $-1 $166 $166 $265 $266 reversed $104 $-1 #
face $-1 $-1 $267 $58 $-1 $268 forward single #
loop $-1 $269 $270 $106 #
cone-surface $-1 55.9481140922626 -10.350295177347533 8.2614107258244367 -0.70710678939079041 0 -0.70710677298230451 0.35355338649115226 0 -0.35355339469539521 1 I I -0.70710678118654746 0.70710678118654746 0.5 forward I I I I #
loop $-1 $-1 $271 $75 #
coedge $-1 $171 $171 $272 $273 reversed $107 $-1 #
face $-1 $274 $275 $59 $-1 $276 reversed single #
loop $-1 $-1 $277 $109 #
plane-surface $-1 -25.665134986450582 2.7173621159018353 92.263744786447731 0.70710678939079041 0 0.70710677298230451 0.70710677298230451 0 -0.70710678939079041 forward_v I I I I #
coedge $-1 $278 $279 $280 $281 reversed $110 $-1 #
face $-1 $-1 $282 $60 $-1 $283 forward single #
loop $-1 $284 $285 $112 #
cone-surface $-1 55.9481140922626 0.73879498550318345 8.2614107258244367 -0.70710678939079041 0 -0.70710677298230451 0.35355338649115226 0 -0.35355339469539521 1 I I -0.70710678118654746 0.70710678118654746 0.5 forward I I I I #
loop $-1 $-1 $286 $77 #
coedge $-1 $180 $180 $287 $288 reversed $113 $-1 #
face $-1 $-1 $289 $61 $-1 $290 forward single #
loop $-1 $291 $292 $115 #
cone-surface $-1 55.9481140922626 4.6959292463004871 8.2614107258244367 -0.70710678939079041 0 -0.70710677298230451 0.35355338649115226 0 -0.35355339469539521 1 I I -0.70710678118654746 0.70710678118654746 0.5 forward I I I I #
loop $-1 $-1 $293 $78 #
coedge $-1 $185 $185 $294 $295 reversed $116 $-1 #
face $-1 $296 $297 $62 $-1 $298 reversed single #
loop $-1 $-1 $299 $118 #
plane-surface $-1 -25.665134986450582 17.763586539549856 92.263744786447731 0.70710678939079041 0 0.70710677298230451 0.70710677298230451 0 -0.70710678939079041 forward_v I I I I #
coedge $-1 $300 $301 $302 $303 reversed $119 $-1 #
face $-1 $-1 $304 $63 $-1 $305 forward single #
loop $-1 $306 $307 $121 #
cone-surface $-1 55.9481140922626 15.785019409151197 8.2614107258244367 -0.70710678939079041 0 -0.70710677298230451 0.35355338649115226 0 -0.35355339469539521 1 I I -0.70710678118654746 0.70710678118654746 0.5 forward I I I I #
loop $-1 $-1 $308 $80 #
coedge $-1 $194 $194 $309 $310 reversed $122 $-1 #
face $-1 $-1 $311 $64 $-1 $312 forward single #
loop $-1 $313 $314 $124 #
cone-surface $-1 55.9481140922626 19.7421536699485 8.2614107258244367 -0.70710678939079041 0 -0.70710677298230451 0.35355338649115226 0 -0.35355339469539521 1 I I -0.70710678118654746 0.70710678118654746 0.5 forward I I I I #
loop $-1 $-1 $315 $81 #
coedge $-1 $199 $199 $316 $317 reversed $125 $-1 #
face $-1 $318 $319 $65 $-1 $320 reversed single #
loop $-1 $-1 $321 $127 #
plane-surface $-1 -25.665134986450582 32.809810963197869 92.263744786447731 0.70710678939079041 0 0.70710677298230451 0.70710677298230451 0 -0.70710678939079041 forward_v I I I I #
coedge $-1 $322 $323 $324 $325 reversed $128 $-1 #
face $-1 $-1 $326 $66 $-1 $327 forward single #
loop $-1 $328 $329 $130 #
cone-surface $-1 55.9481140922626 30.83124383279921 8.2614107258244367 -0.70710678939079041 0 -0.70710677298230451 0.35355338649115226 0 -0.35355339469539521 1 I I -0.70710678118654746 0.70710678118654746 0.5 forward I I I I #
loop $-1 $-1 $330 $83 #
coedge $-1 $208 $208 $331 $332 reversed $131 $-1 #
face $-1 $-1 $333 $67 $-1 $334 forward single #
loop $-1 $335 $336 $133 #
cone-surface $-1 55.9481140922626 34.788378093596513 8.2614107258244367 -0.70710678939079041 0 -0.70710677298230451 0.35355338649115226 0 -0.35355339469539521 1 I I -0.70710678118654746 0.70710678118654746 0.5 forward I I I I #
loop $-1 $-1 $337 $84 #
coedge $-1 $213 $213 $338 $339 reversed $134 $-1 #
face $-1 $340 $341 $51 $-1 $342 reversed single #
loop $-1 $-1 $343 $136 #
plane-surface $-1 0 -37.426467600794716 0 0 1 0 0 0 1 forward_v I I I I #
coedge $-1 $344 $345 $346 $347 forward $137 $-1 #
coedge $-1 $348 $139 $349 $350 forward $86 $-1 #
coedge $-1 $139 $348 $351 $352 forward $86 $-1 #
coedge $-1 $353 $354 $139 $221 reversed $355 $-1 #
edge $-1 $356 -37.426467600794716 $357 37.426467600794716 $220 $358 forward 7 unknown #
face $-1 $359 $360 $52 $-1 $361 reversed single #
loop $-1 $-1 $362 $140 #
plane-surface $-1 -61.961119418927581 0 0 1 0 0 0 0 -1 forward_v I I I I #
coedge $-1 $363 $364 $365 $366 forward $141 $-1 #
coedge $-1 $365 $143 $362 $367 reversed $89 $-1 #
coedge $-1 $143 $365 $368 $369 reversed $89 $-1 #
coedge $-1 $370 $371 $143 $229 reversed $360 $-1 #
edge $-1 $372 -61.961119418927581 $373 61.961119418927581 $228 $374 forward 7 unknown #
face $-1 $375 $376 $53 $-1 $377 forward single #
loop $-1 $-1 $378 $144 #
plane-surface $-1 -163.47227570378755 -10.330405762277275 80.908161656381182 0 -1 0 0.81915205242281985 0 -0.57357642473473569 forward_v I I I I #
coedge $-1 $379 $380 $381 $382 reversed $145 $-1 #
coedge $-1 $235 $147 $383 $384 reversed $92 $-1 #
coedge $-1 $147 $234 $379 $385 reversed $92 $-1 #
coedge $-1 $381 $386 $147 $237 forward $376 $-1 #
edge $-1 $387 19.775018432966192 $388 22.887531297735755 $236 $389 forward 7 unknown #
loop $-1 $-1 $243 $148 #
plane-surface $-1 -61.961119418927595 -16.544417928037312 9.8292869586401963 -0.81915205242281985 0 0.57357642473473569 0.57357642473473569 0 0.81915205242281985 forward_v I I I I #
loop $-1 $-1 $390 $94 #
coedge $-1 $241 $241 $242 $391 reversed $149 $-1 #
coedge $-1 $242 $242 $241 $391 forward $151 $-1 #
coedge $-1 $243 $243 $152 $244 forward $238 $-1 #
edge $-1 $392 0 $392 6.2831853071796004 $243 $393 forward 7 unknown #
loop $-1 $-1 $250 $153 #
plane-surface $-1 -61.961119418927595 -16.544417928037312 9.8292869586401963 -0.81915205242281985 0 0.57357642473473569 0.57357642473473569 0 0.81915205242281985 forward_v I I I I #
loop $-1 $-1 $394 $97 #
coedge $-1 $248 $248 $249 $395 reversed $154 $-1 #
coedge $-1 $249 $249 $248 $395 forward $156 $-1 #
coedge $-1 $250 $250 $157 $251 forward $245 $-1 #
edge $-1 $396 0 $396 6.2831853071796004 $250 $397 forward 7 unknown #
face $-1 $398 $399 $56 $-1 $400 reversed single #
loop $-1 $-1 $401 $158 #
plane-surface $-1 61.9611214523039 -16.945518945343032 179.88999919182589 0 1 0 0.70710678939079041 0 0.70710677298230451 forward_v I I I I #
coedge $-1 $402 $403 $404 $405 reversed $159 $-1 #
coedge $-1 $257 $161 $406 $407 reversed $101 $-1 #
coedge $-1 $161 $256 $402 $408 reversed $101 $-1 #
coedge $-1 $404 $409 $161 $259 forward $410 $-1 #
edge $-1 $411 -30.980558692775631 $412 -21.343631127511898 $258 $413 forward 7 unknown #
loop $-1 $-1 $265 $162 #
plane-surface $-1 -25.665134986450582 -12.328862307746181 92.263744786447731 0.70710678939079041 0 0.70710677298230451 0.70710677298230451 0 -0.70710678939079041 forward_v I I I I #
loop $-1 $-1 $414 $103 #
coedge $-1 $263 $263 $264 $415 reversed $163 $-1 #
coedge $-1 $264 $264 $263 $415 forward $165 $-1 #
coedge $-1 $265 $265 $166 $266 forward $260 $-1 #
edge $-1 $416 0 $416 6.2831853071796004 $265 $417 forward 7 unknown #
loop $-1 $-1 $272 $167 #
plane-surface $-1 -25.665134986450582 -12.328862307746181 92.263744786447731 0.70710678939079041 0 0.70710677298230451 0.70710677298230451 0 -0.70710678939079041 forward_v I I I I #
loop $-1 $-1 $418 $106 #
coedge $-1 $270 $270 $271 $419 reversed $168 $-1 #
coedge $-1 $271 $271 $270 $419 forward $170 $-1 #
coedge $-1 $272 $272 $171 $273 forward $267 $-1 #
edge $-1 $420 0 $420 6.2831853071796004 $272 $421 forward 7 unknown #
face $-1 $422 $423 $59 $-1 $424 reversed single #
loop $-1 $-1 $425 $172 #
plane-surface $-1 61.9611214523039 -1.8992945216950154 179.88999919182589 0 1 0 0.70710678939079041 0 0.70710677298230451 forward_v I I I I #
coedge $-1 $426 $427 $428 $429 reversed $173 $-1 #
coedge $-1 $279 $175 $430 $431 reversed $110 $-1 #
coedge $-1 $175 $278 $426 $432 reversed $110 $-1 #
coedge $-1 $428 $433 $175 $281 forward $434 $-1 #
edge $-1 $435 -30.980558692775631 $436 -21.343631127511898 $280 $437 forward 7 unknown #
loop $-1 $-1 $287 $176 #
plane-surface $-1 -25.665134986450582 2.7173621159018353 92.263744786447731 0.70710678939079041 0 0.70710677298230451 0.70710677298230451 0 -0.70710678939079041 forward_v I I I I #
loop $-1 $-1 $438 $112 #
coedge $-1 $285 $285 $286 $439 reversed $177 $-1 #
coedge $-1 $286 $286 $285 $439 forward $179 $-1 #
coedge $-1 $287 $287 $180 $288 forward $282 $-1 #
edge $-1 $440 0 $440 6.2831853071796004 $287 $441 forward 7 unknown #
loop $-1 $-1 $294 $181 #
plane-surface $-1 -25.665134986450582 2.7173621159018353 92.263744786447731 0.70710678939079041 0 0.70710677298230451 0.70710677298230451 0 -0.70710678939079041 forward_v I I I I #
loop $-1 $-1 $442 $115 #
coedge $-1 $292 $292 $293 $443 reversed $182 $-1 #
coedge $-1 $293 $293 $292 $443 forward $184 $-1 #
coedge $-1 $294 $294 $185 $295 forward $289 $-1 #
edge $-1 $444 0 $444 6.2831853071796004 $294 $445 forward 7 unknown #
face $-1 $446 $447 $62 $-1 $448 reversed single #
loop $-1 $-1 $449 $186 #
plane-surface $-1 61.9611214523039 13.146929901953005 179.88999919182589 0 1 0 0.70710678939079041 0 0.70710677298230451 forward_v I I I I #
coedge $-1 $450 $451 $452 $453 reversed $187 $-1 #
coedge $-1 $301 $189 $454 $455 reversed $119 $-1 #
coedge $-1 $189 $300 $450 $456 reversed $119 $-1 #
coedge $-1 $452 $457 $189 $303 forward $458 $-1 #
edge $-1 $459 -30.980558692775631 $460 -21.343631127511898 $302 $461 forward 7 unknown #
loop $-1 $-1 $309 $190 #
plane-surface $-1 -25.665134986450582 17.763586539549856 92.263744786447731 0.70710678939079041 0 0.70710677298230451 0.70710677298230451 0 -0.70710678939079041 forward_v I I I I #
loop $-1 $-1 $462 $121 #
coedge $-1 $307 $307 $308 $463 reversed $191 $-1 #
coedge $-1 $308 $308 $307 $463 forward $193 $-1 #
coedge $-1 $309 $309 $194 $310 forward $304 $-1 #
edge $-1 $464 0 $464 6.2831853071796004 $309 $465 forward 7 unknown #
loop $-1 $-1 $316 $195 #
plane-surface $-1 -25.665134986450582 17.763586539549856 92.263744786447731 0.70710678939079041 0 0.70710677298230451 0.70710677298230451 0 -0.70710678939079041 forward_v I I I I #
loop $-1 $-1 $466 $124 #
coedge $-1 $314 $314 $315 $467 reversed $196 $-1 #
coedge $-1 $315 $315 $314 $467 forward $198 $-1 #
coedge $-1 $316 $316 $199 $317 forward $311 $-1 #
edge $-1 $468 0 $468 6.2831853071796004 $316 $469 forward 7 unknown #
face $-1 $470 $471 $65 $-1 $472 reversed single #
loop $-1 $-1 $324 $200 #
plane-surface $-1 61.961119418927581 0 0 -1 0 0 0 0 1 forward_v I I I I #
coedge $-1 $473 $474 $475 $476 reversed $201 $-1 #
coedge $-1 $323 $203 $477 $478 reversed $128 $-1 #
coedge $-1 $203 $322 $473 $479 reversed $128 $-1 #
coedge $-1 $475 $480 $203 $325 forward $319 $-1 #
edge $-1 $481 75.670583459330047 $482 85.307511248219683 $324 $483 forward 7 unknown #
loop $-1 $-1 $331 $204 #
plane-surface $-1 -25.665134986450582 32.809810963197869 92.263744786447731 0.70710678939079041 0 0.70710677298230451 0.70710677298230451 0 -0.70710678939079041 forward_v I I I I #
loop $-1 $-1 $484 $130 #
coedge $-1 $329 $329 $330 $485 reversed $205 $-1 #
coedge $-1 $330 $330 $329 $485 forward $207 $-1 #
coedge $-1 $331 $331 $208 $332 forward $326 $-1 #
edge $-1 $486 0 $486 6.2831853071796004 $331 $487 forward 7 unknown #
loop $-1 $-1 $338 $209 #
plane-surface $-1 -25.665134986450582 32.809810963197869 92.263744786447731 0.70710678939079041 0 0.70710677298230451 0.70710677298230451 0 -0.70710678939079041 forward_v I I I I #
loop $-1 $-1 $488 $133 #
coedge $-1 $336 $336 $337 $489 reversed $210 $-1 #
coedge $-1 $337 $337 $336 $489 forward $212 $-1 #
coedge $-1 $338 $338 $213 $339 forward $333 $-1 #
edge $-1 $490 0 $490 6.2831853071796004 $338 $491 forward 7 unknown #
face $-1 $492 $493 $51 $-1 $494 reversed single #
loop $-1 $-1 $495 $214 #
plane-surface $-1 -61.961119418927581 0 0 1 0 0 0 0 -1 forward_v I I I I #
coedge $-1 $496 $351 $497 $498 forward $215 $-1 #
coedge $-1 $499 $217 $496 $500 forward $137 $-1 #
coedge $-1 $217 $499 $501 $502 forward $137 $-1 #
coedge $-1 $354 $353 $217 $347 reversed $355 $-1 #
edge $-1 $503 -37.426467600794716 $504 37.426467600794716 $346 $505 forward 7 unknown #
coedge $-1 $219 $218 $506 $507 forward $86 $-1 #
coedge $-1 $508 $509 $218 $350 reversed $493 $-1 #
edge $-1 $357 -61.961119418927581 $510 61.961119418927581 $349 $511 forward 7 unknown #
coedge $-1 $343 $512 $219 $352 reversed $215 $-1 #
edge $-1 $513 -61.961119418927581 $356 61.961119418927581 $351 $514 forward 7 unknown #
coedge $-1 $346 $220 $512 $515 forward $355 $-1 #
coedge $-1 $220 $346 $508 $516 reversed $355 $-1 #
loop $-1 $-1 $353 $492 #
vertex $-1 $221 $517 #
vertex $-1 $221 $518 #
straight-curve $-1 61.961119418927581 0 14.274416136582897 0 1 0 I I #
face $-1 $519 $520 $52 $-1 $521 reversed single #
loop $-1 $-1 $370 $222 #
plane-surface $-1 0 -44.760486354293398 7.8042942656836214 0 0 1 1 0 0 forward_v I I I I #
coedge $-1 $522 $523 $226 $367 forward $223 $-1 #
coedge $-1 $524 $225 $523 $525 forward $141 $-1 #
coedge $-1 $225 $524 $526 $527 forward $141 $-1 #
coedge $-1 $227 $226 $225 $366 reversed $89 $-1 #
edge $-1 $528 -61.961119418927581 $529 61.961119418927581 $225 $530 forward 7 unknown #
edge $-1 $529 -14.274416136582897 $373 -7.8042942656836214 $362 $531 forward 7 unknown #
coedge $-1 $526 $532 $227 $369 forward $533 $-1 #
edge $-1 $372 7.8042942656836214 $528 14.274416136582897 $368 $534 forward 7 unknown #
coedge $-1 $535 $228 $532 $536 forward $360 $-1 #
coedge $-1 $228 $535 $522 $537 forward $360 $-1 #
vertex $-1 $369 $538 #
vertex $-1 $367 $539 #
straight-curve $-1 0 -37.426467600794716 7.8042942656836214 -1 0 0 I I #
face $-1 $-1 $540 $53 $-1 $541 reversed single #
loop $-1 $-1 $236 $230 #
plane-surface $-1 0 0 14.274416136582897 0 0 1 1 0 0 forward_v I I I I #
coedge $-1 $542 $543 $544 $545 reversed $231 $-1 #
coedge $-1 $546 $233 $235 $385 forward $145 $-1 #
coedge $-1 $233 $546 $542 $547 forward $145 $-1 #
coedge $-1 $544 $236 $233 $382 forward $376 $-1 #
edge $-1 $388 -14.486221129778695 $548 -2.0581967982586189 $381 $549 forward 7 unknown #
coedge $-1 $550 $551 $234 $384 forward $540 $-1 #
edge $-1 $552 -30.624793869550373 $387 -26.179664691607694 $383 $553 forward 7 unknown #
edge $-1 $388 -5.4265006903117294 $552 -2.4157181099100639e-014 $235 $554 forward 7 unknown #
coedge $-1 $236 $544 $550 $555 forward $376 $-1 #
vertex $-1 $384 $556 #
vertex $-1 $237 $557 #
straight-curve $-1 -81.736137851893773 -22.758430093797351 14.2744161365829 1 0 0 I I #
coedge $-1 $390 $390 $-1 $558 reversed $240 $-1 #
edge $-1 $559 0 $559 6.2831853071796004 $241 $560 forward 7 unknown #
vertex $-1 $244 $561 #
ellipse-curve $-1 -60.404862986542803 -19.207565999077328 12.051851547611552 -0.81915205242281985 0 0.57357642473473569 0.57357642473473569 0 0.81915205242281985 1 I I #
coedge $-1 $394 $394 $-1 $562 reversed $247 $-1 #
edge $-1 $563 0 $563 6.2831853071796004 $248 $564 forward 7 unknown #
vertex $-1 $251 $565 #
ellipse-curve $-1 -60.404862986542803 -13.881269856997296 12.051851547611552 -0.81915205242281985 0 0.57357642473473569 0.57357642473473569 0 0.81915205242281985 1 I I #
face $-1 $-1 $410 $56 $-1 $566 forward single #
loop $-1 $-1 $567 $252 #
plane-surface $-1 61.961119418927581 0 0 -1 0 0 0 0 1 forward_v I I I I #
coedge $-1 $568 $569 $570 $571 reversed $253 $-1 #
coedge $-1 $572 $255 $257 $408 forward $159 $-1 #
coedge $-1 $255 $572 $568 $573 forward $159 $-1 #
coedge $-1 $570 $258 $255 $405 forward $410 $-1 #
edge $-1 $412 1.54777451627624 $574 10.781087791469941 $404 $575 forward 7 unknown #
coedge $-1 $576 $577 $256 $407 forward $399 $-1 #
edge $-1 $578 -85.307511248219683 $411 -75.670583459330047 $406 $579 forward 7 unknown #
edge $-1 $412 110.29356501732468 $578 123.92223883785518 $257 $580 forward 7 unknown #
coedge $-1 $258 $570 $576 $581 forward $410 $-1 #
loop $-1 $-1 $570 $398 #
vertex $-1 $407 $582 #
vertex $-1 $259 $583 #
straight-curve $-1 30.98056072615195 -7.7122056701493307 14.2744161365829 -1 0 0 I I #
coedge $-1 $414 $414 $-1 $584 reversed $262 $-1 #
edge $-1 $585 0 $585 6.2831853071796004 $263 $586 forward 7 unknown #
vertex $-1 $266 $587 #
ellipse-curve $-1 57.142655636295714 -14.307429438144833 9.455952242138089 0.70710678939079041 0 0.70710677298230451 0.70710677298230451 0 -0.70710678939079041 1 I I #
coedge $-1 $418 $418 $-1 $588 reversed $269 $-1 #
edge $-1 $589 0 $589 6.2831853071796004 $270 $590 forward 7 unknown #
vertex $-1 $273 $591 #
ellipse-curve $-1 57.142655636295714 -10.350295177347533 9.455952242138089 0.70710678939079041 0 0.70710677298230451 0.70710677298230451 0 -0.70710678939079041 1 I I #
face $-1 $-1 $434 $59 $-1 $592 forward single #
loop $-1 $-1 $593 $274 #
plane-surface $-1 61.961119418927581 0 0 -1 0 0 0 0 1 forward_v I I I I #
coedge $-1 $594 $595 $596 $597 reversed $275 $-1 #
coedge $-1 $598 $277 $279 $432 forward $173 $-1 #
coedge $-1 $277 $598 $594 $599 forward $173 $-1 #
coedge $-1 $596 $280 $277 $429 forward $434 $-1 #
edge $-1 $436 -5.9753376955477684 $600 3.2579755796459331 $428 $601 forward 7 unknown #
coedge $-1 $602 $603 $278 $431 forward $423 $-1 #
edge $-1 $604 -85.307511248219683 $435 -75.670583459330047 $430 $605 forward 7 unknown #
edge $-1 $436 110.29356501732468 $604 123.92223883785518 $279 $606 forward 7 unknown #
coedge $-1 $280 $596 $602 $607 forward $434 $-1 #
loop $-1 $-1 $596 $422 #
vertex $-1 $431 $608 #
vertex $-1 $281 $609 #
straight-curve $-1 30.98056072615195 7.334018753498686 14.2744161365829 -1 0 0 I I #
coedge $-1 $438 $438 $-1 $610 reversed $284 $-1 #
edge $-1 $611 0 $611 6.2831853071796004 $285 $612 forward 7 unknown #
vertex $-1 $288 $613 #
ellipse-curve $-1 57.142655636295714 0.73879498550318345 9.455952242138089 0.70710678939079041 0 0.70710677298230451 0.70710677298230451 0 -0.70710678939079041 1 I I #
coedge $-1 $442 $442 $-1 $614 reversed $291 $-1 #
edge $-1 $615 0 $615 6.2831853071796004 $292 $616 forward 7 unknown #
vertex $-1 $295 $617 #
ellipse-curve $-1 57.142655636295714 4.6959292463004871 9.455952242138089 0.70710678939079041 0 0.70710677298230451 0.70710677298230451 0 -0.70710678939079041 1 I I #
face $-1 $-1 $458 $62 $-1 $618 forward single #
loop $-1 $-1 $619 $296 #
plane-surface $-1 61.961119418927581 0 0 -1 0 0 0 0 1 forward_v I I I I #
coedge $-1 $620 $621 $622 $623 reversed $297 $-1 #
coedge $-1 $624 $299 $301 $456 forward $187 $-1 #
coedge $-1 $299 $624 $620 $625 forward $187 $-1 #
coedge $-1 $622 $302 $299 $453 forward $458 $-1 #
edge $-1 $460 -13.498449907371779 $626 -4.265136632178077 $452 $627 forward 7 unknown #
coedge $-1 $628 $629 $300 $455 forward $447 $-1 #
edge $-1 $630 -85.307511248219683 $459 -75.670583459330047 $454 $631 forward 7 unknown #
edge $-1 $460 110.29356501732468 $630 123.92223883785518 $301 $632 forward 7 unknown #
coedge $-1 $302 $622 $628 $633 forward $458 $-1 #
loop $-1 $-1 $622 $446 #
vertex $-1 $455 $634 #
vertex $-1 $303 $635 #
straight-curve $-1 30.98056072615195 22.380243177146706 14.2744161365829 -1 0 0 I I #
coedge $-1 $462 $462 $-1 $636 reversed $306 $-1 #
edge $-1 $637 0 $637 6.2831853071796004 $307 $638 forward 7 unknown #
vertex $-1 $310 $639 #
ellipse-curve $-1 57.142655636295714 15.785019409151197 9.455952242138089 0.70710678939079041 0 0.70710677298230451 0.70710677298230451 0 -0.70710678939079041 1 I I #
coedge $-1 $466 $466 $-1 $640 reversed $313 $-1 #
edge $-1 $641 0 $641 6.2831853071796004 $314 $642 forward 7 unknown #
vertex $-1 $317 $643 #
ellipse-curve $-1 57.142655636295714 19.7421536699485 9.455952242138089 0.70710678939079041 0 0.70710677298230451 0.70710677298230451 0 -0.70710678939079041 1 I I #
face $-1 $-1 $644 $65 $-1 $645 forward single #
loop $-1 $-1 $646 $318 #
plane-surface $-1 0 37.426467600794716 0 0 -1 0 0 0 -1 forward_v I I I I #
coedge $-1 $647 $321 $323 $479 forward $201 $-1 #
coedge $-1 $321 $647 $646 $648 reversed $201 $-1 #
coedge $-1 $649 $324 $321 $476 forward $319 $-1 #
edge $-1 $482 11.788248844002084 $650 21.021562119195782 $475 $651 forward 7 unknown #
coedge $-1 $652 $653 $322 $478 forward $644 $-1 #
edge $-1 $654 21.343631127511898 $481 30.980558692775631 $477 $655 forward 7 unknown #
edge $-1 $482 -123.92223883785518 $654 -110.29356501732468 $323 $656 forward 7 unknown #
coedge $-1 $324 $649 $652 $657 reversed $319 $-1 #
vertex $-1 $657 $658 #
vertex $-1 $325 $659 #
straight-curve $-1 61.961119418927581 28.193154325601018 89.944999595912947 0 0 -1 I I #
coedge $-1 $484 $484 $-1 $660 reversed $328 $-1 #
edge $-1 $661 0 $661 6.2831853071796004 $329 $662 forward 7 unknown #
vertex $-1 $332 $663 #
ellipse-curve $-1 57.142655636295714 30.83124383279921 9.455952242138089 0.70710678939079041 0 0.70710677298230451 0.70710677298230451 0 -0.70710678939079041 1 I I #
coedge $-1 $488 $488 $-1 $664 reversed $335 $-1 #
edge $-1 $665 0 $665 6.2831853071796004 $336 $666 forward 7 unknown #
vertex $-1 $339 $667 #
ellipse-curve $-1 57.142655636295714 34.788378093596513 9.455952242138089 0.70710678939079041 0 0.70710677298230451 0.70710677298230451 0 -0.70710678939079041 1 I I #
face $-1 $-1 $355 $51 $-1 $668 reversed single #
loop $-1 $-1 $508 $340 #
plane-surface $-1 0 37.426467600794716 0 0 -1 0 0 0 -1 forward_v I I I I #
coedge $-1 $669 $506 $509 $670 forward $341 $-1 #
coedge $-1 $512 $343 $344 $500 reversed $215 $-1 #
coedge $-1 $506 $669 $343 $498 reversed $341 $-1 #
edge $-1 $513 -14.274416136582897 $671 14.274416136582897 $497 $672 forward 7 unknown #
coedge $-1 $345 $344 $669 $673 forward $137 $-1 #
edge $-1 $504 -61.961119418927581 $671 61.961119418927581 $496 $674 forward 7 unknown #
coedge $-1 $509 $508 $345 $502 reversed $493 $-1 #
edge $-1 $675 -61.961119418927581 $503 61.961119418927581 $501 $676 forward 7 unknown #
vertex $-1 $347 $677 #
vertex $-1 $515 $678 #
straight-curve $-1 61.961119418927581 0 -14.274416136582897 0 -1 0 I I #
coedge $-1 $495 $497 $348 $507 reversed $341 $-1 #
edge $-1 $510 -37.426467600794716 $513 37.426467600794716 $506 $679 forward 7 unknown #
coedge $-1 $501 $349 $354 $516 forward $493 $-1 #
coedge $-1 $349 $501 $495 $670 reversed $493 $-1 #
vertex $-1 $350 $680 #
straight-curve $-1 0 37.426467600794716 14.274416136582897 -1 0 0 I I #
coedge $-1 $351 $496 $353 $515 reversed $215 $-1 #
vertex $-1 $507 $681 #
straight-curve $-1 0 -37.426467600794716 14.274416136582897 1 0 0 I I #
edge $-1 $356 -14.274416136582897 $504 14.274416136582897 $353 $682 forward 7 unknown #
edge $-1 $357 -14.274416136582897 $503 14.274416136582897 $354 $683 forward 7 unknown #
point $-1 61.961119418927581 -37.426467600794716 14.274416136582897 #
point $-1 61.961119418927581 37.426467600794716 14.274416136582897 #
face $-1 $-1 $533 $52 $-1 $684 reversed single #
loop $-1 $-1 $685 $359 #
plane-surface $-1 0 -52.094505107792081 11.039355201133258 0 1 0 0 0 1 forward_v I I I I #
coedge $-1 $686 $362 $371 $537 reversed $223 $-1 #
coedge $-1 $362 $686 $363 $525 reversed $223 $-1 #
coedge $-1 $364 $363 $687 $688 forward $141 $-1 #
edge $-1 $529 37.426467600794716 $689 52.094505107792081 $523 $690 forward 7 unknown #
coedge $-1 $691 $368 $364 $527 reversed $533 $-1 #
edge $-1 $692 -52.094505107792081 $528 -37.426467600794716 $526 $693 forward 7 unknown #
vertex $-1 $369 $694 #
vertex $-1 $525 $695 #
straight-curve $-1 0 -37.426467600794716 14.274416136582897 -1 0 0 I I #
straight-curve $-1 -61.961119418927581 -37.426467600794716 0 0 0 -1 I I #
coedge $-1 $368 $691 $370 $536 reversed $533 $-1 #
loop $-1 $-1 $368 $519 #
straight-curve $-1 61.961119418927581 -37.426467600794716 0 0 0 1 I I #
coedge $-1 $371 $370 $696 $697 forward $360 $-1 #
edge $-1 $372 -7.3340187534986825 $698 7.3340187534986825 $532 $699 forward 7 unknown #
edge $-1 $700 -7.3340187534986825 $373 7.3340187534986825 $522 $701 forward 7 unknown #
point $-1 61.961119418927581 -37.426467600794716 7.8042942656836214 #
point $-1 -61.961119418927581 -37.426467600794716 7.8042942656836214 #
loop $-1 $-1 $383 $375 #
plane-surface $-1 -61.961119418927581 0 0 1 0 0 0 0 -1 forward_v I I I I #
coedge $-1 $543 $378 $380 $547 reversed $231 $-1 #
coedge $-1 $378 $542 $702 $703 reversed $231 $-1 #
coedge $-1 $386 $381 $378 $545 forward $376 $-1 #
edge $-1 $548 -22.887531297735755 $704 -19.775018432966192 $544 $705 forward 7 unknown #
coedge $-1 $380 $379 $551 $706 reversed $145 $-1 #
edge $-1 $707 2.4157181099100639e-014 $548 5.4265006903117294 $542 $708 forward 7 unknown #
vertex $-1 $382 $709 #
straight-curve $-1 -58.848606554158025 -8.272208964018656 14.274416136582897 0 1 0 I I #
coedge $-1 $702 $383 $386 $555 reversed $540 $-1 #
coedge $-1 $383 $702 $546 $706 forward $540 $-1 #
vertex $-1 $384 $710 #
straight-curve $-1 -61.961119418927581 -22.758430093797351 40.454080828190591 0 0 1 I I #
straight-curve $-1 -61.961119418927595 -22.758430093797351 9.8292869586401963 -0.57357642473473569 0 -0.81915205242281985 I I #
edge $-1 $704 10.330405762277275 $387 22.758430093797351 $550 $711 forward 7 unknown #
point $-1 -61.961119418927581 -22.758430093797351 14.274416136582897 #
point $-1 -58.848606554158017 -22.758430093797351 14.274416136582897 #
edge $-1 $712 1 $712 0 $390 $-1 forward 7 unknown #
vertex $-1 $391 $713 #
ellipse-curve $-1 -57.449020790970515 -19.207565999077328 9.9821486229812511 -0.81915205242281985 0 0.57357642473473569 0.57357642473473569 0 0.81915205242281985 1 I I #
point $-1 -59.831286561808064 -19.207565999077328 12.871003600034369 #
edge $-1 $714 1 $714 0 $394 $-1 forward 7 unknown #
vertex $-1 $395 $715 #
ellipse-curve $-1 -57.449020790970515 -13.881269856997296 9.9821486229812511 -0.81915205242281985 0 0.57357642473473569 0.57357642473473569 0 0.81915205242281985 1 I I #
point $-1 -59.831286561808064 -13.881269856997296 12.871003600034369 #
plane-surface $-1 0 0 14.274416136582897 0 0 1 1 0 0 forward_v I I I I #
coedge $-1 $577 $576 $569 $716 forward $399 $-1 #
coedge $-1 $569 $401 $403 $573 reversed $253 $-1 #
coedge $-1 $401 $568 $567 $716 reversed $253 $-1 #
coedge $-1 $409 $404 $401 $571 forward $410 $-1 #
edge $-1 $574 21.343631127511898 $717 30.980558692775631 $570 $718 forward 7 unknown #
coedge $-1 $403 $402 $577 $719 reversed $159 $-1 #
edge $-1 $720 -123.92223883785518 $574 -110.29356501732468 $568 $721 forward 7 unknown #
vertex $-1 $405 $722 #
straight-curve $-1 52.324191853663848 -6.1644311538730907 14.274416136582893 0 -1 0 I I #
coedge $-1 $567 $406 $409 $581 reversed $399 $-1 #
coedge $-1 $406 $567 $572 $719 forward $399 $-1 #
vertex $-1 $407 $723 #
straight-curve $-1 61.961119418927581 -7.7122056701493307 89.944999595912947 0 0 1 I I #
straight-curve $-1 -25.665134986450582 -7.7122056701493307 92.263744786447731 0.70710677298230451 0 -0.70710678939079041 I I #
edge $-1 $717 -16.945518945343032 $411 -7.7122056701493307 $576 $724 forward 7 unknown #
point $-1 61.961119418927581 -7.7122056701493307 14.274416136582897 #
point $-1 52.324191853663848 -7.7122056701493307 14.2744161365829 #
edge $-1 $725 1 $725 0 $414 $-1 forward 7 unknown #
vertex $-1 $415 $726 #
ellipse-curve $-1 56.301667486957996 -14.307429438144833 8.6149641123155885 0.70710678939079041 0 0.70710677298230451 0.70710677298230451 0 -0.70710678939079041 1 I I #
point $-1 57.849762409278 -14.307429438144833 8.7488454527472861 #
edge $-1 $727 1 $727 0 $418 $-1 forward 7 unknown #
vertex $-1 $419 $728 #
ellipse-curve $-1 56.301667486957996 -10.350295177347533 8.6149641123155885 0.70710678939079041 0 0.70710677298230451 0.70710677298230451 0 -0.70710678939079041 1 I I #
point $-1 57.849762409278 -10.350295177347533 8.7488454527472861 #
plane-surface $-1 0 0 14.274416136582897 0 0 1 1 0 0 forward_v I I I I #
coedge $-1 $603 $602 $595 $729 forward $423 $-1 #
coedge $-1 $595 $425 $427 $599 reversed $275 $-1 #
coedge $-1 $425 $594 $593 $729 reversed $275 $-1 #
coedge $-1 $433 $428 $425 $597 forward $434 $-1 #
edge $-1 $600 21.343631127511898 $730 30.980558692775631 $596 $731 forward 7 unknown #
coedge $-1 $427 $426 $603 $732 reversed $173 $-1 #
edge $-1 $733 -123.92223883785518 $600 -110.29356501732468 $594 $734 forward 7 unknown #
vertex $-1 $429 $735 #
straight-curve $-1 52.324191853663848 1.3586810579509176 14.274416136582893 0 -1 0 I I #
coedge $-1 $593 $430 $433 $607 reversed $423 $-1 #
coedge $-1 $430 $593 $598 $732 forward $423 $-1 #
vertex $-1 $431 $736 #
straight-curve $-1 61.961119418927581 7.334018753498686 89.944999595912947 0 0 1 I I #
straight-curve $-1 -25.665134986450582 7.334018753498686 92.263744786447731 0.70710677298230451 0 -0.70710678939079041 I I #
edge $-1 $730 -1.8992945216950154 $435 7.334018753498686 $602 $737 forward 7 unknown #
point $-1 61.961119418927581 7.334018753498686 14.274416136582897 #
point $-1 52.324191853663848 7.334018753498686 14.2744161365829 #
edge $-1 $738 1 $738 0 $438 $-1 forward 7 unknown #
vertex $-1 $439 $739 #
ellipse-curve $-1 56.301667486957996 0.73879498550318345 8.6149641123155885 0.70710678939079041 0 0.70710677298230451 0.70710677298230451 0 -0.70710678939079041 1 I I #
point $-1 57.849762409278 0.73879498550318345 8.7488454527472861 #
edge $-1 $740 1 $740 0 $442 $-1 forward 7 unknown #
vertex $-1 $443 $741 #
ellipse-curve $-1 56.301667486957996 4.6959292463004871 8.6149641123155885 0.70710678939079041 0 0.70710677298230451 0.70710677298230451 0 -0.70710678939079041 1 I I #
point $-1 57.849762409278 4.6959292463004871 8.7488454527472861 #
plane-surface $-1 0 0 14.274416136582897 0 0 1 1 0 0 forward_v I I I I #
coedge $-1 $629 $628 $621 $742 forward $447 $-1 #
coedge $-1 $621 $449 $451 $625 reversed $297 $-1 #
coedge $-1 $449 $620 $619 $742 reversed $297 $-1 #
coedge $-1 $457 $452 $449 $623 forward $458 $-1 #
edge $-1 $626 21.343631127511898 $743 30.980558692775631 $622 $744 forward 7 unknown #
coedge $-1 $451 $450 $629 $745 reversed $187 $-1 #
edge $-1 $746 -123.92223883785518 $626 -110.29356501732468 $620 $747 forward 7 unknown #
vertex $-1 $453 $748 #
straight-curve $-1 52.324191853663848 8.8817932697749278 14.274416136582893 0 -1 0 I I #
coedge $-1 $619 $454 $457 $633 reversed $447 $-1 #
coedge $-1 $454 $619 $624 $745 forward $447 $-1 #
vertex $-1 $455 $749 #
straight-curve $-1 61.961119418927581 22.380243177146706 89.944999595912947 0 0 1 I I #
straight-curve $-1 -25.665134986450582 22.380243177146706 92.263744786447731 0.70710677298230451 0 -0.70710678939079041 I I #
edge $-1 $743 13.146929901953005 $459 22.380243177146706 $628 $750 forward 7 unknown #
point $-1 61.961119418927581 22.380243177146706 14.274416136582897 #
point $-1 52.324191853663848 22.380243177146706 14.2744161365829 #
edge $-1 $751 1 $751 0 $462 $-1 forward 7 unknown #
vertex $-1 $463 $752 #
ellipse-curve $-1 56.301667486957996 15.785019409151197 8.6149641123155885 0.70710678939079041 0 0.70710677298230451 0.70710677298230451 0 -0.70710678939079041 1 I I #
point $-1 57.849762409278 15.785019409151197 8.7488454527472861 #
edge $-1 $753 1 $753 0 $466 $-1 forward 7 unknown #
vertex $-1 $467 $754 #
ellipse-curve $-1 56.301667486957996 19.7421536699485 8.6149641123155885 0.70710678939079041 0 0.70710677298230451 0.70710677298230451 0 -0.70710678939079041 1 I I #
point $-1 57.849762409278 19.7421536699485 8.7488454527472861 #
loop $-1 $-1 $477 $470 #
plane-surface $-1 0 0 14.274416136582897 0 0 1 1 0 0 forward_v I I I I #
coedge $-1 $755 $756 $474 $648 forward $471 $-1 #
coedge $-1 $474 $473 $653 $757 reversed $201 $-1 #
edge $-1 $650 -82.228083272084831 $758 -68.599409451554337 $646 $759 forward 7 unknown #
coedge $-1 $480 $475 $756 $760 reversed $319 $-1 #
vertex $-1 $648 $761 #
straight-curve $-1 61.961119418927581 16.404905481598934 4.6374883476932567 0 1 0 I I #
coedge $-1 $762 $477 $480 $657 forward $644 $-1 #
coedge $-1 $477 $762 $647 $757 forward $644 $-1 #
vertex $-1 $478 $763 #
straight-curve $-1 30.98056072615195 28.193154325601018 14.2744161365829 1 0 0 I I #
straight-curve $-1 -25.665134986450582 28.193154325601018 92.263744786447731 -0.70710677298230451 0 0.70710678939079041 I I #
edge $-1 $481 28.193154325601018 $764 37.426467600794716 $480 $765 forward 7 unknown #
point $-1 61.961119418927581 28.193154325601018 14.274416136582897 #
point $-1 61.961119418927581 28.193154325601018 4.6374883476932638 #
edge $-1 $766 1 $766 0 $484 $-1 forward 7 unknown #
vertex $-1 $485 $767 #
ellipse-curve $-1 56.301667486957996 30.83124383279921 8.6149641123155885 0.70710678939079041 0 0.70710677298230451 0.70710677298230451 0 -0.70710678939079041 1 I I #
point $-1 57.849762409278 30.83124383279921 8.7488454527472861 #
edge $-1 $768 1 $768 0 $488 $-1 forward 7 unknown #
vertex $-1 $489 $769 #
ellipse-curve $-1 56.301667486957996 34.788378093596513 8.6149641123155885 0.70710678939079041 0 0.70710677298230451 0.70710677298230451 0 -0.70710678939079041 1 I I #
point $-1 57.849762409278 34.788378093596513 8.7488454527472861 #
plane-surface $-1 61.961119418927581 0 0 -1 0 0 0 0 1 forward_v I I I I #
coedge $-1 $497 $495 $499 $673 reversed $341 $-1 #
edge $-1 $510 -14.274416136582897 $675 14.274416136582897 $509 $770 forward 7 unknown #
vertex $-1 $673 $771 #
straight-curve $-1 -61.961119418927581 -37.426467600794716 0 0 0 -1 I I #
edge $-1 $671 -37.426467600794716 $675 37.426467600794716 $669 $772 forward 7 unknown #
straight-curve $-1 0 -37.426467600794716 -14.274416136582897 -1 0 0 I I #
vertex $-1 $502 $773 #
straight-curve $-1 0 37.426467600794716 -14.274416136582897 1 0 0 I I #
point $-1 61.961119418927581 37.426467600794716 -14.274416136582897 #
point $-1 61.961119418927581 -37.426467600794716 -14.274416136582897 #
straight-curve $-1 -61.961119418927581 0 14.274416136582897 0 -1 0 I I #
point $-1 -61.961119418927581 37.426467600794716 14.274416136582897 #
point $-1 -61.961119418927581 -37.426467600794716 14.274416136582897 #
straight-curve $-1 61.961119418927581 -37.426467600794716 0 0 0 -1 I I #
straight-curve $-1 61.961119418927581 37.426467600794716 0 0 0 -1 I I #
plane-surface $-1 61.961119418927581 0 0 -1 0 0 0 0 1 forward_v I I I I #
coedge $-1 $696 $687 $686 $774 forward $520 $-1 #
coedge $-1 $523 $522 $685 $774 reversed $223 $-1 #
coedge $-1 $685 $775 $524 $688 reversed $520 $-1 #
edge $-1 $689 -61.961119418927581 $692 61.961119418927581 $687 $776 forward 7 unknown #
vertex $-1 $525 $777 #
straight-curve $-1 -61.961119418927581 0 14.274416136582897 0 -1 0 I I #
coedge $-1 $532 $526 $775 $778 forward $533 $-1 #
vertex $-1 $527 $779 #
straight-curve $-1 61.961119418927581 0 14.274416136582897 0 1 0 I I #
point $-1 61.961119418927581 -37.426467600794716 14.274416136582897 #
point $-1 -61.961119418927581 -37.426467600794716 14.274416136582897 #
coedge $-1 $775 $685 $535 $697 reversed $520 $-1 #
edge $-1 $698 -61.961119418927581 $700 61.961119418927581 $696 $780 forward 7 unknown #
vertex $-1 $778 $781 #
straight-curve $-1 61.961119418927581 -44.760486354293398 7.8042942656836214 0 -1 0 I I #
vertex $-1 $537 $782 #
straight-curve $-1 -61.961119418927581 -44.760486354293398 7.8042942656836214 0 1 0 I I #
coedge $-1 $551 $550 $543 $703 forward $540 $-1 #
edge $-1 $704 26.179664691607694 $707 30.624793869550373 $702 $783 forward 7 unknown #
vertex $-1 $555 $784 #
straight-curve $-1 -81.736137851893773 -10.330405762277275 14.2744161365829 -1 0 0 I I #
edge $-1 $707 2.0581967982586189 $552 14.486221129778695 $551 $785 forward 7 unknown #
vertex $-1 $706 $786 #
straight-curve $-1 -61.961119418927595 -10.330405762277275 9.8292869586401963 0.57357642473473569 0 0.81915205242281985 I I #
point $-1 -58.848606554158017 -10.330405762277275 14.274416136582897 #
point $-1 -61.961119418927581 -22.758430093797351 9.8292869586402158 #
straight-curve $-1 -61.961119418927581 0 14.274416136582897 0 -1 0 I I #
vertex $-1 $558 $787 #
point $-1 -56.875444366235776 -19.207565999077328 10.801300675404072 #
vertex $-1 $562 $788 #
point $-1 -56.875444366235776 -13.881269856997296 10.801300675404072 #
edge $-1 $717 75.670583459330047 $720 85.307511248219683 $567 $789 forward 7 unknown #
vertex $-1 $581 $790 #
straight-curve $-1 30.98056072615195 -16.945518945343032 14.2744161365829 1 0 0 I I #
edge $-1 $720 -10.781087791469941 $578 -1.54777451627624 $577 $791 forward 7 unknown #
vertex $-1 $719 $792 #
straight-curve $-1 -25.665134986450582 -16.945518945343032 92.263744786447731 -0.70710677298230451 0 0.70710678939079041 I I #
point $-1 52.324191853663848 -16.945518945343032 14.2744161365829 #
point $-1 61.961119418927581 -7.7122056701493307 4.6374883476932638 #
straight-curve $-1 61.961119418927581 0 14.274416136582897 0 1 0 I I #
vertex $-1 $584 $793 #
point $-1 57.008774259940296 -14.307429438144833 7.9078573229247988 #
vertex $-1 $588 $794 #
point $-1 57.008774259940296 -10.350295177347533 7.9078573229247988 #
edge $-1 $730 75.670583459330047 $733 85.307511248219683 $593 $795 forward 7 unknown #
vertex $-1 $607 $796 #
straight-curve $-1 30.98056072615195 -1.8992945216950154 14.2744161365829 1 0 0 I I #
edge $-1 $733 -3.2579755796459331 $604 5.9753376955477684 $603 $797 forward 7 unknown #
vertex $-1 $732 $798 #
straight-curve $-1 -25.665134986450582 -1.8992945216950154 92.263744786447731 -0.70710677298230451 0 0.70710678939079041 I I #
point $-1 52.324191853663848 -1.8992945216950154 14.2744161365829 #
point $-1 61.961119418927581 7.334018753498686 4.6374883476932638 #
straight-curve $-1 61.961119418927581 0 14.274416136582897 0 1 0 I I #
vertex $-1 $610 $799 #
point $-1 57.008774259940296 0.73879498550318345 7.9078573229247988 #
vertex $-1 $614 $800 #
point $-1 57.008774259940296 4.6959292463004871 7.9078573229247988 #
edge $-1 $743 75.670583459330047 $746 85.307511248219683 $619 $801 forward 7 unknown #
vertex $-1 $633 $802 #
straight-curve $-1 30.98056072615195 13.146929901953005 14.2744161365829 1 0 0 I I #
edge $-1 $746 4.265136632178077 $630 13.498449907371779 $629 $803 forward 7 unknown #
vertex $-1 $745 $804 #
straight-curve $-1 -25.665134986450582 13.146929901953005 92.263744786447731 -0.70710677298230451 0 0.70710678939079041 I I #
point $-1 52.324191853663848 13.146929901953005 14.2744161365829 #
point $-1 61.961119418927581 22.380243177146706 4.6374883476932638 #
straight-curve $-1 61.961119418927581 0 14.274416136582897 0 1 0 I I #
vertex $-1 $636 $805 #
point $-1 57.008774259940296 15.785019409151197 7.9078573229247988 #
vertex $-1 $640 $806 #
point $-1 57.008774259940296 19.7421536699485 7.9078573229247988 #
coedge $-1 $756 $646 $762 $807 reversed $471 $-1 #
coedge $-1 $646 $755 $649 $760 forward $471 $-1 #
edge $-1 $758 -21.021562119195789 $654 -11.788248844002084 $653 $808 forward 7 unknown #
vertex $-1 $648 $809 #
straight-curve $-1 3.8170848078834609 37.426467600794716 62.781524307975715 -0.70710677298230462 0 0.70710678939079052 I I #
edge $-1 $764 -14.274416136582897 $650 -4.6374883476932496 $649 $810 forward 7 unknown #
point $-1 61.961119418927581 37.426467600794716 4.6374883476932496 #
coedge $-1 $653 $652 $755 $807 forward $644 $-1 #
point $-1 52.324191853663848 28.193154325601018 14.2744161365829 #
vertex $-1 $657 $811 #
straight-curve $-1 61.961119418927581 0 14.274416136582897 0 1 0 I I #
vertex $-1 $660 $812 #
point $-1 57.008774259940296 30.83124383279921 7.9078573229247988 #
vertex $-1 $664 $813 #
point $-1 57.008774259940296 34.788378093596513 7.9078573229247988 #
straight-curve $-1 -61.961119418927581 37.426467600794716 0 0 0 -1 I I #
point $-1 -61.961119418927581 -37.426467600794716 -14.274416136582897 #
straight-curve $-1 -61.961119418927581 0 -14.274416136582897 0 1 0 I I #
point $-1 -61.961119418927581 37.426467600794716 -14.274416136582897 #
edge $-1 $689 -3.2350609354496367 $700 3.2350609354496367 $686 $814 forward 7 unknown #
coedge $-1 $687 $696 $691 $778 reversed $520 $-1 #
straight-curve $-1 0 -52.094505107792081 14.274416136582895 1 0 0 I I #
point $-1 -61.961119418927581 -52.094505107792081 14.274416136582895 #
edge $-1 $692 -3.2350609354496367 $698 3.2350609354496367 $691 $815 forward 7 unknown #
point $-1 61.961119418927581 -52.094505107792081 14.274416136582895 #
straight-curve $-1 0 -52.094505107792081 7.8042942656836214 -1 0 0 I I #
point $-1 61.961119418927581 -52.094505107792081 7.8042942656836214 #
point $-1 -61.961119418927581 -52.094505107792081 7.8042942656836214 #
straight-curve $-1 -61.961119418927581 -10.330405762277275 40.454080828190591 0 0 -1 I I #
point $-1 -61.961119418927581 -10.330405762277275 14.274416136582897 #
straight-curve $-1 -61.961119418927581 -8.272208964018656 9.8292869586402265 0 -1 0 I I #
point $-1 -61.961119418927581 -10.330405762277275 9.8292869586402158 #
point $-1 -56.629868738547692 -19.207565999077328 9.4085721982465156 #
point $-1 -56.629868738547692 -13.881269856997296 9.4085721982465156 #
straight-curve $-1 61.961119418927581 -16.945518945343032 89.944999595912947 0 0 -1 I I #
point $-1 61.961119418927581 -16.945518945343032 14.274416136582897 #
straight-curve $-1 61.961119418927581 -6.1644311538730907 4.6374883476932567 0 1 0 I I #
point $-1 61.961119418927581 -16.945518945343032 4.6374883476932638 #
point $-1 55.594560697567204 -14.307429438144833 7.9078573393332841 #
point $-1 55.594560697567204 -10.350295177347533 7.9078573393332841 #
straight-curve $-1 61.961119418927581 -1.8992945216950154 89.944999595912947 0 0 -1 I I #
point $-1 61.961119418927581 -1.8992945216950154 14.274416136582897 #
straight-curve $-1 61.961119418927581 1.3586810579509176 4.6374883476932567 0 1 0 I I #
point $-1 61.961119418927581 -1.8992945216950154 4.6374883476932638 #
point $-1 55.594560697567204 0.73879498550318345 7.9078573393332841 #
point $-1 55.594560697567204 4.6959292463004871 7.9078573393332841 #
straight-curve $-1 61.961119418927581 13.146929901953005 89.944999595912947 0 0 -1 I I #
point $-1 61.961119418927581 13.146929901953005 14.274416136582897 #
straight-curve $-1 61.961119418927581 8.8817932697749278 4.6374883476932567 0 1 0 I I #
point $-1 61.961119418927581 13.146929901953005 4.6374883476932638 #
point $-1 55.594560697567204 15.785019409151197 7.9078573393332841 #
point $-1 55.594560697567204 19.7421536699485 7.9078573393332841 #
edge $-1 $764 -61.961119418927581 $758 -52.324191853663848 $755 $816 forward 7 unknown #
straight-curve $-1 52.324191853663848 16.404905481598934 14.274416136582893 0 -1 0 I I #
point $-1 52.324191853663848 37.426467600794723 14.2744161365829 #
straight-curve $-1 61.961119418927581 37.426467600794716 0 0 0 -1 I I #
point $-1 61.961119418927581 37.426467600794716 14.274416136582897 #
point $-1 55.594560697567204 30.83124383279921 7.9078573393332841 #
point $-1 55.594560697567204 34.788378093596513 7.9078573393332841 #
straight-curve $-1 -61.961119418927581 -52.094505107792081 11.039355201133258 0 0 -1 I I #
straight-curve $-1 61.961119418927581 -52.094505107792081 11.039355201133258 0 0 -1 I I #
straight-curve $-1 0 37.426467600794716 14.274416136582897 -1 0 0 I I #
End-of-ACIS-data 