500 0 5 0           
7 Unknown 11 ACIS 5.0 NT 24 Thu Mar 25 16:20:49 1999 
-1 9.9999999999999995e-007 1e-010 
body $-1 $5 $-1 $6 #
body $-1 $7 $-1 $8 #
body $-1 $9 $-1 $10 #
body $-1 $11 $-1 $12 #
body $-1 $13 $-1 $14 #
lump $-1 $-1 $15 $0 #
transform $-1 1 0 0 0 1 0 0 0 1 75.031586657307656 34.426324756064346 16.151280410474744 1 rotate no_reflect no_shear #
lump $-1 $-1 $16 $1 #
transform $-1 1 0 0 0 1 0 0 0 1 75.031586657307656 34.426324756064346 16.151280410474744 1 rotate no_reflect no_shear #
lump $-1 $-1 $17 $2 #
transform $-1 1 0 0 0 1 0 0 0 1 75.031586657307656 34.426324756064346 16.151280410474744 1 rotate no_reflect no_shear #
lump $-1 $-1 $18 $3 #
transform $-1 1 0 0 0 1 0 0 0 1 75.031586657307656 34.426324756064346 16.151280410474744 1 rotate no_reflect no_shear #
lump $-1 $-1 $19 $4 #
transform $-1 1 0 0 0 1 0 0 0 1 75.031586657307656 34.426324756064346 16.151280410474744 1 rotate no_reflect no_shear #
shell $-1 $-1 $-1 $20 $-1 $5 #
shell $-1 $-1 $-1 $21 $-1 $7 #
shell $-1 $-1 $-1 $22 $-1 $9 #
shell $-1 $-1 $-1 $23 $-1 $11 #
shell $-1 $-1 $-1 $24 $-1 $13 #
face $-1 $25 $26 $15 $-1 $27 forward single #
face $-1 $28 $29 $16 $-1 $30 forward single #
face $-1 $31 $32 $17 $-1 $33 forward single #
face $-1 $34 $35 $18 $-1 $36 reversed single #
face $-1 $37 $38 $19 $-1 $39 reversed single #
face $-1 $40 $41 $15 $-1 $42 reversed single #
loop $-1 $-1 $43 $20 #
plane-surface $-1 0 0 16.151280410474744 0 0 1 1 0 0 forward_v I I I I #
face $-1 $44 $45 $16 $-1 $46 forward single #
loop $-1 $-1 $47 $21 #
plane-surface $-1 -65.671242643426197 0 11.534952960410342 0 0 1 1 0 0 forward_v I I I I #
face $-1 $48 $49 $17 $-1 $50 forward single #
loop $-1 $-1 $51 $22 #
plane-surface $-1 72.380390088690277 -113.94769219743624 137.23010611864993 -1 0 0 0 -0.52991927123019833 0.84804809178421925 forward_v I I I I #
face $-1 $52 $53 $18 $-1 $54 reversed single #
loop $-1 $55 $56 $23 #
cone-surface $-1 50.075776929759343 -28.566808392945234 11.599333565165464 0 0.52991927123019833 -0.84804809178421925 2 0 0 1 I I 0 1 2 forward I I I I #
face $-1 $57 $58 $19 $-1 $59 reversed single #
loop $-1 $60 $61 $24 #
cone-surface $-1 63.458544825117912 -28.566808392945234 11.599333565165464 0 0.52991927123019833 -0.84804809178421925 2 0 0 1 I I 0 1 2 forward I I I I #
face $-1 $62 $63 $15 $-1 $64 reversed single #
loop $-1 $-1 $65 $25 #
plane-surface $-1 0 0 -16.151280410474744 0 0 1 1 0 0 forward_v I I I I #
coedge $-1 $66 $67 $68 $69 forward $26 $-1 #
face $-1 $70 $71 $16 $-1 $72 forward single #
loop $-1 $-1 $73 $28 #
plane-surface $-1 -56.310898629544738 0 13.843116685442542 -1 0 0 0 0 1 forward_v I I I I #
coedge $-1 $74 $75 $76 $77 reversed $29 $-1 #
face $-1 $78 $79 $17 $-1 $80 forward single #
loop $-1 $-1 $81 $31 #
plane-surface $-1 56.767160877438613 -34.426324756064346 9.9693183421058365 0 -0.52991927123019833 0.84804809178421925 1 0 0 forward_v I I I I #
coedge $-1 $82 $83 $84 $85 reversed $32 $-1 #
face $-1 $86 $87 $18 $-1 $88 forward single #
loop $-1 $89 $90 $34 #
cone-surface $-1 50.075776929759343 -27.123976345395157 9.2903196622564117 0 0.52991927123019833 -0.84804809178421925 1 0 0 1 I I -0.70710678118654746 0.70710678118654746 1 forward I I I I #
loop $-1 $-1 $91 $23 #
coedge $-1 $56 $56 $92 $93 reversed $35 $-1 #
face $-1 $94 $95 $19 $-1 $96 reversed single #
loop $-1 $97 $98 $37 #
cone-surface $-1 63.458544825117912 -27.123976345395157 9.2903196622564117 0 0.52991927123019833 -0.84804809178421925 1 0 0 1 I I -0.70710678118654746 0.70710678118654746 1 forward I I I I #
loop $-1 $-1 $99 $24 #
coedge $-1 $61 $61 $100 $101 reversed $38 $-1 #
face $-1 $102 $103 $15 $-1 $104 reversed single #
loop $-1 $-1 $105 $40 #
plane-surface $-1 0 -34.426324756064346 0 0 1 0 0 0 1 forward_v I I I I #
coedge $-1 $106 $107 $108 $109 forward $41 $-1 #
coedge $-1 $110 $43 $111 $112 forward $26 $-1 #
coedge $-1 $43 $110 $113 $114 forward $26 $-1 #
coedge $-1 $115 $116 $43 $69 reversed $117 $-1 #
edge $-1 $118 -34.426324756064346 $119 34.426324756064346 $68 $120 forward 7 unknown #
face $-1 $121 $122 $16 $-1 $123 reversed single #
loop $-1 $-1 $124 $44 #
plane-surface $-1 0 0 16.151280410474744 0 0 1 1 0 0 forward_v I I I I #
coedge $-1 $125 $76 $126 $127 reversed $45 $-1 #
coedge $-1 $128 $47 $129 $130 reversed $29 $-1 #
coedge $-1 $47 $128 $131 $132 reversed $29 $-1 #
coedge $-1 $73 $133 $47 $77 forward $45 $-1 #
edge $-1 $134 -34.426324756064346 $135 34.426324756064346 $76 $136 forward 7 unknown #
face $-1 $137 $138 $17 $-1 $139 forward single #
loop $-1 $-1 $140 $48 #
plane-surface $-1 41.153931666186949 -113.94769219743624 137.23010611864993 1 0 0 0 0.52991927123019833 -0.84804809178421925 forward_v I I I I #
coedge $-1 $141 $142 $143 $144 reversed $49 $-1 #
coedge $-1 $83 $51 $142 $145 forward $32 $-1 #
coedge $-1 $51 $82 $146 $147 reversed $32 $-1 #
coedge $-1 $148 $143 $51 $85 forward $138 $-1 #
edge $-1 $149 -32.440728516252257 $150 -22.547521342653774 $84 $151 forward 7 unknown #
face $-1 $152 $153 $18 $-1 $154 forward single #
loop $-1 $-1 $155 $52 #
plane-surface $-1 72.380390088690277 -113.94769219743624 137.23010611864993 -1 0 0 0 -0.52991927123019833 0.84804809178421925 forward_v I I I I #
loop $-1 $-1 $156 $34 #
coedge $-1 $90 $90 $91 $157 forward $53 $-1 #
coedge $-1 $91 $91 $90 $157 reversed $55 $-1 #
coedge $-1 $92 $92 $56 $93 forward $153 $-1 #
edge $-1 $158 9.4447445311590422e-017 $158 6.2831853071796004 $92 $159 forward 7 unknown #
face $-1 $160 $161 $19 $-1 $162 reversed single #
loop $-1 $163 $164 $57 #
cone-surface $-1 50.075776929759343 -28.566808392945234 11.599333565165464 0 0.52991927123019833 -0.84804809178421925 2 0 0 1 I I 0 1 2 forward I I I I #
loop $-1 $-1 $165 $37 #
coedge $-1 $98 $98 $99 $166 forward $58 $-1 #
coedge $-1 $99 $99 $98 $166 reversed $60 $-1 #
coedge $-1 $100 $100 $61 $101 forward $167 $-1 #
edge $-1 $168 9.4447445311590422e-017 $168 6.2831853071796004 $100 $169 forward 7 unknown #
face $-1 $170 $171 $15 $-1 $172 reversed single #
loop $-1 $-1 $173 $62 #
plane-surface $-1 -75.031586657307656 0 0 1 0 0 0 0 -1 forward_v I I I I #
coedge $-1 $174 $113 $175 $176 forward $63 $-1 #
coedge $-1 $177 $65 $174 $178 forward $41 $-1 #
coedge $-1 $65 $177 $179 $180 forward $41 $-1 #
coedge $-1 $116 $115 $65 $109 reversed $117 $-1 #
edge $-1 $181 -34.426324756064346 $182 34.426324756064346 $108 $183 forward 7 unknown #
coedge $-1 $67 $66 $184 $185 forward $26 $-1 #
coedge $-1 $186 $187 $66 $112 reversed $171 $-1 #
edge $-1 $119 -75.031586657307656 $188 75.031586657307656 $111 $189 forward 7 unknown #
coedge $-1 $105 $190 $67 $114 reversed $63 $-1 #
edge $-1 $191 -75.031586657307656 $118 75.031586657307656 $113 $192 forward 7 unknown #
coedge $-1 $108 $68 $190 $193 forward $117 $-1 #
coedge $-1 $68 $108 $186 $194 reversed $117 $-1 #
loop $-1 $-1 $115 $170 #
vertex $-1 $69 $195 #
vertex $-1 $69 $196 #
straight-curve $-1 75.031586657307656 0 16.151280410474744 0 1 0 I I #
face $-1 $197 $198 $16 $-1 $199 reversed single #
loop $-1 $-1 $126 $70 #
plane-surface $-1 0 -34.426324756064346 0 0 1 0 0 0 1 forward_v I I I I #
coedge $-1 $200 $201 $125 $202 forward $71 $-1 #
coedge $-1 $133 $73 $124 $202 reversed $45 $-1 #
coedge $-1 $131 $203 $73 $127 forward $122 $-1 #
edge $-1 $204 -9.2297220677534693 $135 -4.613394617689071 $126 $205 forward 7 unknown #
coedge $-1 $75 $74 $206 $207 reversed $29 $-1 #
coedge $-1 $208 $209 $74 $130 forward $210 $-1 #
edge $-1 $211 -42.195965335594558 $134 -23.475277307831639 $129 $212 forward 7 unknown #
coedge $-1 $213 $126 $75 $132 forward $122 $-1 #
edge $-1 $135 23.475277307831639 $214 42.195965335594558 $131 $215 forward 7 unknown #
coedge $-1 $76 $125 $208 $216 reversed $45 $-1 #
vertex $-1 $130 $217 #
vertex $-1 $132 $218 #
straight-curve $-1 -56.310898629544738 0 11.534952960410342 0 -1 0 I I #
face $-1 $219 $220 $17 $-1 $221 forward single #
loop $-1 $-1 $222 $78 #
plane-surface $-1 0 0 16.151280410474744 0 0 1 1 0 0 forward_v I I I I #
coedge $-1 $223 $224 $222 $225 reversed $79 $-1 #
coedge $-1 $226 $81 $224 $227 reversed $49 $-1 #
coedge $-1 $81 $226 $82 $145 reversed $49 $-1 #
coedge $-1 $84 $222 $81 $144 forward $138 $-1 #
edge $-1 $228 12.770351227467643 $149 43.99680964997097 $143 $229 forward 7 unknown #
edge $-1 $149 -11.665856299238925 $230 0 $82 $231 forward 7 unknown #
coedge $-1 $232 $233 $83 $147 forward $234 $-1 #
edge $-1 $150 52.463772648850224 $230 58.645734717219128 $146 $235 forward 7 unknown #
coedge $-1 $236 $84 $233 $237 forward $138 $-1 #
vertex $-1 $144 $238 #
vertex $-1 $237 $239 #
straight-curve $-1 72.380390088690277 -56.97384609871812 16.15128041047474 0 -1 0 I I #
face $-1 $240 $241 $18 $-1 $242 forward single #
loop $-1 $243 $92 $86 #
plane-surface $-1 56.767160877438613 -34.426324756064346 9.9693183421058365 0 -0.52991927123019833 0.84804809178421925 1 0 0 forward_v I I I I #
coedge $-1 $244 $245 $246 $247 reversed $87 $-1 #
coedge $-1 $156 $156 $-1 $248 forward $89 $-1 #
edge $-1 $249 0 $249 6.2831853071796004 $90 $250 forward 7 unknown #
vertex $-1 $93 $251 #
ellipse-curve $-1 50.075776929759343 -29.479721169265108 13.06029937629029 0 0.52991927123019833 -0.84804809178421925 2 0 0 1 I I #
face $-1 $252 $253 $19 $-1 $254 forward single #
loop $-1 $255 $256 $94 #
cone-surface $-1 50.075776929759343 -27.123976345395157 9.2903196622564117 0 0.52991927123019833 -0.84804809178421925 1 0 0 1 I I -0.70710678118654746 0.70710678118654746 1 forward I I I I #
loop $-1 $-1 $257 $57 #
coedge $-1 $164 $164 $258 $259 reversed $95 $-1 #
coedge $-1 $165 $165 $-1 $260 forward $97 $-1 #
edge $-1 $261 0 $261 6.2831853071796004 $98 $262 forward 7 unknown #
loop $-1 $263 $100 $252 #
vertex $-1 $101 $264 #
ellipse-curve $-1 63.458544825117912 -29.479721169265108 13.06029937629029 0 0.52991927123019833 -0.84804809178421925 2 0 0 1 I I #
face $-1 $-1 $117 $15 $-1 $265 reversed single #
loop $-1 $-1 $186 $102 #
plane-surface $-1 0 34.426324756064346 0 0 -1 0 0 0 -1 forward_v I I I I #
coedge $-1 $266 $184 $187 $267 forward $103 $-1 #
coedge $-1 $190 $105 $106 $178 reversed $63 $-1 #
coedge $-1 $184 $266 $105 $176 reversed $103 $-1 #
edge $-1 $191 -16.151280410474744 $268 16.151280410474744 $175 $269 forward 7 unknown #
coedge $-1 $107 $106 $266 $270 forward $41 $-1 #
edge $-1 $182 -75.031586657307656 $268 75.031586657307656 $174 $271 forward 7 unknown #
coedge $-1 $187 $186 $107 $180 reversed $171 $-1 #
edge $-1 $272 -75.031586657307656 $181 75.031586657307656 $179 $273 forward 7 unknown #
vertex $-1 $109 $274 #
vertex $-1 $193 $275 #
straight-curve $-1 75.031586657307656 0 -16.151280410474744 0 -1 0 I I #
coedge $-1 $173 $175 $110 $185 reversed $103 $-1 #
edge $-1 $188 -34.426324756064346 $191 34.426324756064346 $184 $276 forward 7 unknown #
coedge $-1 $179 $111 $116 $194 forward $171 $-1 #
coedge $-1 $111 $179 $173 $267 reversed $171 $-1 #
vertex $-1 $112 $277 #
straight-curve $-1 0 34.426324756064346 16.151280410474744 -1 0 0 I I #
coedge $-1 $113 $174 $115 $193 reversed $63 $-1 #
vertex $-1 $185 $278 #
straight-curve $-1 0 -34.426324756064346 16.151280410474744 1 0 0 I I #
edge $-1 $118 -16.151280410474744 $182 16.151280410474744 $115 $279 forward 7 unknown #
edge $-1 $119 -16.151280410474744 $181 16.151280410474744 $116 $280 forward 7 unknown #
point $-1 75.031586657307656 -34.426324756064346 16.151280410474744 #
point $-1 75.031586657307656 34.426324756064346 16.151280410474744 #
face $-1 $281 $282 $16 $-1 $283 reversed single #
loop $-1 $-1 $284 $121 #
plane-surface $-1 0 0 -16.151280410474744 0 0 1 1 0 0 forward_v I I I I #
coedge $-1 $285 $124 $203 $286 forward $71 $-1 #
coedge $-1 $124 $285 $287 $288 forward $71 $-1 #
edge $-1 $289 -34.426324756064346 $204 34.426324756064346 $124 $290 forward 7 unknown #
coedge $-1 $126 $291 $200 $286 reversed $122 $-1 #
vertex $-1 $286 $292 #
straight-curve $-1 -56.310898629544738 -34.426324756064346 6.921558342721271 0 0 -1 I I #
coedge $-1 $293 $294 $128 $207 forward $282 $-1 #
edge $-1 $214 -34.426324756064346 $211 34.426324756064346 $206 $295 forward 7 unknown #
coedge $-1 $287 $129 $133 $216 forward $210 $-1 #
coedge $-1 $129 $296 $293 $297 reversed $210 $-1 #
loop $-1 $-1 $208 $281 #
vertex $-1 $297 $298 #
straight-curve $-1 -32.835621321713099 34.426324756064346 11.534952960410342 1 0 0 I I #
coedge $-1 $299 $131 $294 $300 forward $122 $-1 #
vertex $-1 $300 $301 #
straight-curve $-1 -32.835621321713099 -34.426324756064346 11.534952960410342 -1 0 0 I I #
edge $-1 $134 4.613394617689071 $289 9.2297220677534693 $208 $302 forward 7 unknown #
point $-1 -56.310898629544738 34.426324756064346 11.534952960410342 #
point $-1 -56.310898629544738 -34.426324756064346 11.534952960410342 #
face $-1 $303 $304 $17 $-1 $305 forward single #
loop $-1 $-1 $306 $137 #
plane-surface $-1 -65.671242643426197 0 11.534952960410342 0 0 1 1 0 0 forward_v I I I I #
coedge $-1 $143 $307 $140 $225 forward $138 $-1 #
coedge $-1 $224 $140 $308 $309 reversed $79 $-1 #
coedge $-1 $140 $223 $141 $227 forward $79 $-1 #
edge $-1 $310 22.547521342653774 $228 32.440728516252257 $222 $311 forward 7 unknown #
coedge $-1 $142 $141 $232 $312 reversed $49 $-1 #
edge $-1 $313 0 $228 11.665856299238925 $224 $314 forward 7 unknown #
vertex $-1 $144 $315 #
straight-curve $-1 28.383580438719306 -24.53311758246587 16.151280410474744 1 0 0 I I #
vertex $-1 $312 $316 #
straight-curve $-1 72.380390088690277 -34.426324756064346 9.9693183421058365 0 -0.84804809178421925 -0.52991927123019833 I I #
coedge $-1 $308 $146 $226 $312 forward $234 $-1 #
coedge $-1 $146 $317 $148 $237 reversed $234 $-1 #
loop $-1 $-1 $308 $303 #
straight-curve $-1 72.380390088690277 -34.426324756064346 68.615053059324964 0 0 -1 I I #
coedge $-1 $318 $148 $319 $320 forward $138 $-1 #
edge $-1 $150 72.380390088690277 $321 75.031586657307656 $233 $322 forward 7 unknown #
point $-1 72.380390088690277 -24.533117582465863 16.151280410474744 #
point $-1 72.380390088690277 -34.426324756064346 16.151280410474744 #
face $-1 $323 $324 $18 $-1 $325 forward single #
loop $-1 $-1 $326 $152 #
plane-surface $-1 41.153931666186949 -113.94769219743624 137.23010611864993 1 0 0 0 0.52991927123019833 -0.84804809178421925 forward_v I I I I #
loop $-1 $-1 $327 $86 #
coedge $-1 $245 $155 $328 $329 forward $87 $-1 #
coedge $-1 $155 $244 $330 $331 reversed $87 $-1 #
coedge $-1 $332 $333 $155 $247 forward $324 $-1 #
edge $-1 $334 -32.440728516252257 $335 -22.547521342653774 $246 $336 forward 7 unknown #
edge $-1 $337 1 $337 0 $156 $-1 forward 7 unknown #
vertex $-1 $157 $338 #
ellipse-curve $-1 50.075776929759343 -27.653895616625356 10.138367754040631 0 -0.52991927123019833 0.84804809178421925 2 0 0 1 I I #
point $-1 52.075776929759343 -29.479721169265112 13.060299376290295 #
face $-1 $339 $167 $19 $-1 $340 forward single #
loop $-1 $-1 $341 $160 #
plane-surface $-1 72.380390088690277 -113.94769219743624 137.23010611864993 -1 0 0 0 -0.52991927123019833 0.84804809178421925 forward_v I I I I #
loop $-1 $-1 $342 $94 #
coedge $-1 $256 $256 $257 $343 forward $161 $-1 #
coedge $-1 $257 $257 $256 $343 reversed $163 $-1 #
coedge $-1 $258 $258 $164 $259 forward $263 $-1 #
edge $-1 $344 9.4447445311590422e-017 $344 6.2831853071796004 $258 $345 forward 7 unknown #
edge $-1 $346 1 $346 0 $165 $-1 forward 7 unknown #
vertex $-1 $166 $347 #
ellipse-curve $-1 63.458544825117912 -27.653895616625356 10.138367754040631 0 -0.52991927123019833 0.84804809178421925 2 0 0 1 I I #
loop $-1 $348 $258 $252 #
point $-1 65.458544825117912 -29.479721169265112 13.060299376290295 #
plane-surface $-1 75.031586657307656 0 0 -1 0 0 0 0 1 forward_v I I I I #
coedge $-1 $175 $173 $177 $270 reversed $103 $-1 #
edge $-1 $188 -16.151280410474744 $272 16.151280410474744 $187 $349 forward 7 unknown #
vertex $-1 $270 $350 #
straight-curve $-1 -75.031586657307656 -34.426324756064346 0 0 0 -1 I I #
edge $-1 $268 -34.426324756064346 $272 34.426324756064346 $266 $351 forward 7 unknown #
straight-curve $-1 0 -34.426324756064346 -16.151280410474744 -1 0 0 I I #
vertex $-1 $180 $352 #
straight-curve $-1 0 34.426324756064346 -16.151280410474744 1 0 0 I I #
point $-1 75.031586657307656 34.426324756064346 -16.151280410474744 #
point $-1 75.031586657307656 -34.426324756064346 -16.151280410474744 #
straight-curve $-1 -75.031586657307656 0 16.151280410474744 0 -1 0 I I #
point $-1 -75.031586657307656 34.426324756064346 16.151280410474744 #
point $-1 -75.031586657307656 -34.426324756064346 16.151280410474744 #
straight-curve $-1 75.031586657307656 -34.426324756064346 0 0 0 -1 I I #
straight-curve $-1 75.031586657307656 34.426324756064346 0 0 0 -1 I I #
face $-1 $353 $210 $16 $-1 $354 reversed single #
loop $-1 $-1 $206 $197 #
plane-surface $-1 -75.031586657307656 0 0 1 0 0 0 0 -1 forward_v I I I I #
coedge $-1 $355 $356 $357 $358 forward $198 $-1 #
coedge $-1 $201 $200 $359 $360 forward $71 $-1 #
edge $-1 $204 -56.310898629544738 $361 75.031586657307656 $203 $362 forward 7 unknown #
coedge $-1 $363 $208 $201 $288 reversed $210 $-1 #
edge $-1 $364 -75.031586657307656 $289 56.310898629544738 $287 $365 forward 7 unknown #
vertex $-1 $202 $366 #
straight-curve $-1 -56.310898629544738 0 16.151280410474744 0 -1 0 I I #
coedge $-1 $203 $299 $367 $368 reversed $122 $-1 #
point $-1 -56.310898629544738 -34.426324756064346 16.15128041047474 #
coedge $-1 $369 $206 $209 $297 forward $282 $-1 #
coedge $-1 $206 $369 $213 $300 reversed $282 $-1 #
straight-curve $-1 -75.031586657307656 0 11.534952960410342 0 1 0 I I #
coedge $-1 $209 $363 $356 $370 reversed $210 $-1 #
edge $-1 $211 -11.534952960410342 $371 16.151280410474744 $209 $372 forward 7 unknown #
point $-1 -75.031586657307656 34.426324756064346 11.534952960410342 #
coedge $-1 $291 $213 $355 $373 reversed $122 $-1 #
edge $-1 $214 -11.534952960410342 $374 16.151280410474744 $294 $375 forward 7 unknown #
point $-1 -75.031586657307656 -34.426324756064346 11.534952960410342 #
straight-curve $-1 -56.310898629544738 34.426324756064346 6.921558342721271 0 0 1 I I #
face $-1 $376 $234 $17 $-1 $377 reversed single #
loop $-1 $-1 $378 $219 #
plane-surface $-1 -56.310898629544738 0 13.843116685442542 -1 0 0 0 0 1 forward_v I I I I #
coedge $-1 $379 $380 $381 $382 reversed $220 $-1 #
coedge $-1 $222 $383 $384 $385 forward $138 $-1 #
coedge $-1 $384 $232 $223 $309 forward $234 $-1 #
edge $-1 $313 -58.645734717219128 $310 -52.463772648850224 $308 $386 forward 7 unknown #
vertex $-1 $309 $387 #
straight-curve $-1 41.153931666186949 -56.97384609871812 16.15128041047474 0 1 0 I I #
edge $-1 $230 -43.99680964997097 $313 -12.770351227467643 $232 $388 forward 7 unknown #
vertex $-1 $312 $389 #
straight-curve $-1 41.153931666186949 -34.426324756064346 9.9693183421058365 0 0.84804809178421925 0.52991927123019833 I I #
point $-1 41.153931666186949 -24.533117582465863 16.151280410474744 #
point $-1 72.380390088690277 -34.426324756064346 9.9693183421058365 #
coedge $-1 $233 $390 $391 $392 reversed $234 $-1 #
coedge $-1 $383 $236 $393 $394 forward $138 $-1 #
coedge $-1 $391 $395 $236 $320 reversed $396 $-1 #
edge $-1 $321 -34.426324756064346 $397 34.426324756064346 $319 $398 forward 7 unknown #
vertex $-1 $320 $399 #
straight-curve $-1 0 -34.426324756064346 16.151280410474744 1 0 0 I I #
face $-1 $400 $401 $18 $-1 $402 forward single #
loop $-1 $-1 $403 $240 #
plane-surface $-1 0 0 16.151280410474744 0 0 1 1 0 0 forward_v I I I I #
coedge $-1 $404 $405 $403 $406 reversed $241 $-1 #
coedge $-1 $407 $328 $333 $408 reversed $243 $-1 #
coedge $-1 $327 $409 $244 $329 reversed $243 $-1 #
edge $-1 $334 -11.665856299238925 $410 0 $244 $411 forward 7 unknown #
coedge $-1 $412 $413 $245 $331 forward $414 $-1 #
edge $-1 $335 52.463772648850224 $410 58.645734717219128 $330 $415 forward 7 unknown #
coedge $-1 $416 $246 $413 $417 forward $324 $-1 #
coedge $-1 $246 $403 $327 $408 forward $324 $-1 #
vertex $-1 $408 $418 #
vertex $-1 $417 $419 #
straight-curve $-1 72.380390088690277 -56.97384609871812 16.15128041047474 0 -1 0 I I #
vertex $-1 $248 $420 #
point $-1 52.075776929759343 -27.653895616625356 10.138367754040631 #
face $-1 $421 $422 $19 $-1 $423 forward single #
plane-surface $-1 56.767160877438613 -34.426324756064346 9.9693183421058365 0 -0.52991927123019833 0.84804809178421925 1 0 0 forward_v I I I I #
coedge $-1 $424 $425 $426 $427 reversed $253 $-1 #
coedge $-1 $342 $342 $-1 $428 forward $255 $-1 #
edge $-1 $429 0 $429 6.2831853071796004 $256 $430 forward 7 unknown #
vertex $-1 $259 $431 #
ellipse-curve $-1 50.075776929759343 -29.479721169265108 13.06029937629029 0 0.52991927123019833 -0.84804809178421925 2 0 0 1 I I #
vertex $-1 $260 $432 #
point $-1 65.458544825117912 -27.653895616625356 10.138367754040631 #
loop $-1 $-1 $433 $252 #
straight-curve $-1 -75.031586657307656 34.426324756064346 0 0 0 -1 I I #
point $-1 -75.031586657307656 -34.426324756064346 -16.151280410474744 #
straight-curve $-1 -75.031586657307656 0 -16.151280410474744 0 1 0 I I #
point $-1 -75.031586657307656 34.426324756064346 -16.151280410474744 #
face $-1 $-1 $434 $16 $-1 $435 reversed single #
plane-surface $-1 0 34.426324756064346 0 0 -1 0 0 0 -1 forward_v I I I I #
coedge $-1 $436 $284 $299 $373 forward $198 $-1 #
coedge $-1 $284 $436 $296 $370 forward $198 $-1 #
coedge $-1 $437 $367 $284 $358 reversed $434 $-1 #
edge $-1 $438 -34.426324756064346 $439 34.426324756064346 $357 $440 forward 7 unknown #
coedge $-1 $367 $437 $285 $360 reversed $434 $-1 #
edge $-1 $361 -34.426324756064346 $364 34.426324756064346 $359 $441 forward 7 unknown #
vertex $-1 $360 $442 #
straight-curve $-1 0 -34.426324756064346 16.151280410474744 1 0 0 I I #
coedge $-1 $296 $287 $437 $443 forward $210 $-1 #
vertex $-1 $360 $444 #
straight-curve $-1 0 34.426324756064346 16.151280410474744 -1 0 0 I I #
point $-1 -56.310898629544738 34.426324756064346 16.15128041047474 #
coedge $-1 $357 $359 $291 $368 forward $434 $-1 #
edge $-1 $361 -16.151280410474744 $439 16.151280410474744 $367 $445 forward 7 unknown #
coedge $-1 $294 $293 $436 $446 reversed $282 $-1 #
edge $-1 $371 -75.031586657307656 $438 75.031586657307656 $296 $447 forward 7 unknown #
vertex $-1 $370 $448 #
straight-curve $-1 -75.031586657307656 34.426324756064346 0 0 0 -1 I I #
edge $-1 $439 -75.031586657307656 $374 75.031586657307656 $299 $449 forward 7 unknown #
vertex $-1 $446 $450 #
straight-curve $-1 -75.031586657307656 -34.426324756064346 0 0 0 -1 I I #
face $-1 $451 $452 $17 $-1 $453 reversed single #
plane-surface $-1 0 -34.426324756064346 0 0 1 0 0 0 1 forward_v I I I I #
coedge $-1 $454 $381 $455 $456 reversed $304 $-1 #
coedge $-1 $457 $306 $458 $459 reversed $220 $-1 #
coedge $-1 $306 $457 $460 $461 reversed $220 $-1 #
coedge $-1 $378 $462 $306 $382 forward $304 $-1 #
edge $-1 $463 -34.426324756064346 $464 34.426324756064346 $381 $465 forward 7 unknown #
coedge $-1 $307 $318 $454 $466 forward $138 $-1 #
coedge $-1 $455 $308 $307 $385 reversed $234 $-1 #
edge $-1 $467 -56.310898629544738 $310 41.153931666186949 $384 $322 forward 7 unknown #
straight-curve $-1 41.153931666186949 -34.426324756064346 68.615053059324964 0 0 1 I I #
point $-1 41.153931666186949 -34.426324756064346 16.151280410474744 #
straight-curve $-1 28.383580438719306 -34.426324756064346 9.9693183421058329 -1 0 0 I I #
point $-1 41.153931666186949 -34.426324756064346 9.9693183421058365 #
coedge $-1 $317 $468 $469 $470 reversed $234 $-1 #
coedge $-1 $471 $319 $317 $392 forward $396 $-1 #
edge $-1 $321 -16.151280410474744 $472 16.151280410474744 $391 $473 forward 7 unknown #
coedge $-1 $474 $475 $318 $394 reversed $476 $-1 #
edge $-1 $397 -75.031586657307656 $477 56.310898629544738 $393 $478 forward 7 unknown #
coedge $-1 $319 $471 $474 $479 reversed $396 $-1 #
loop $-1 $-1 $391 $480 #
vertex $-1 $320 $481 #
straight-curve $-1 75.031586657307656 0 16.151280410474744 0 1 0 I I #
point $-1 75.031586657307656 -34.426324756064346 16.151280410474744 #
face $-1 $482 $483 $18 $-1 $484 forward single #
loop $-1 $-1 $485 $323 #
plane-surface $-1 -65.671242643426197 0 11.534952960410342 0 0 1 1 0 0 forward_v I I I I #
coedge $-1 $333 $486 $326 $406 forward $324 $-1 #
coedge $-1 $405 $326 $487 $488 reversed $241 $-1 #
coedge $-1 $326 $404 $407 $489 forward $241 $-1 #
edge $-1 $490 22.547521342653774 $491 32.440728516252257 $403 $492 forward 7 unknown #
coedge $-1 $409 $327 $405 $489 reversed $243 $-1 #
edge $-1 $491 12.770351227467643 $334 43.99680964997097 $333 $493 forward 7 unknown #
coedge $-1 $328 $407 $412 $494 reversed $243 $-1 #
vertex $-1 $494 $495 #
straight-curve $-1 72.380390088690277 -34.426324756064346 9.9693183421058365 0 -0.84804809178421925 -0.52991927123019833 I I #
coedge $-1 $487 $330 $409 $494 forward $414 $-1 #
coedge $-1 $330 $496 $332 $417 reversed $414 $-1 #
loop $-1 $-1 $487 $482 #
straight-curve $-1 72.380390088690277 -34.426324756064346 68.615053059324964 0 0 -1 I I #
coedge $-1 $497 $332 $498 $499 forward $324 $-1 #
edge $-1 $335 72.380390088690277 $500 75.031586657307656 $413 $501 forward 7 unknown #
point $-1 72.380390088690277 -24.533117582465863 16.151280410474744 #
point $-1 72.380390088690277 -34.426324756064346 16.151280410474744 #
point $-1 50.075776929759343 -26.594057074164958 8.442271570472192 #
face $-1 $502 $503 $19 $-1 $504 forward single #
loop $-1 $-1 $505 $339 #
plane-surface $-1 41.153931666186949 -113.94769219743624 137.23010611864993 1 0 0 0 0.52991927123019833 -0.84804809178421925 forward_v I I I I #
coedge $-1 $425 $341 $506 $507 forward $253 $-1 #
coedge $-1 $341 $424 $508 $509 reversed $253 $-1 #
coedge $-1 $510 $511 $341 $427 forward $503 $-1 #
edge $-1 $512 -32.440728516252257 $513 -22.547521342653774 $426 $514 forward 7 unknown #
edge $-1 $515 1 $515 0 $342 $-1 forward 7 unknown #
vertex $-1 $343 $516 #
ellipse-curve $-1 50.075776929759343 -27.653895616625356 10.138367754040631 0 -0.52991927123019833 0.84804809178421925 2 0 0 1 I I #
point $-1 52.075776929759343 -29.479721169265112 13.060299376290295 #
point $-1 63.458544825117912 -26.594057074164958 8.442271570472192 #
coedge $-1 $517 $506 $511 $518 reversed $348 $-1 #
loop $-1 $-1 $367 $353 #
plane-surface $-1 75.031586657307656 0 0 -1 0 0 0 0 1 forward_v I I I I #
coedge $-1 $356 $355 $369 $446 forward $198 $-1 #
coedge $-1 $359 $357 $363 $443 reversed $434 $-1 #
vertex $-1 $358 $519 #
vertex $-1 $368 $520 #
straight-curve $-1 75.031586657307656 0 -16.151280410474744 0 -1 0 I I #
straight-curve $-1 75.031586657307656 0 16.151280410474744 0 1 0 I I #
point $-1 75.031586657307656 -34.426324756064346 16.151280410474744 #
edge $-1 $364 -16.151280410474744 $438 16.151280410474744 $437 $521 forward 7 unknown #
point $-1 75.031586657307656 34.426324756064346 16.151280410474744 #
straight-curve $-1 75.031586657307656 -34.426324756064346 0 0 0 -1 I I #
edge $-1 $374 -34.426324756064346 $371 34.426324756064346 $369 $522 forward 7 unknown #
straight-curve $-1 0 34.426324756064346 -16.151280410474744 1 0 0 I I #
point $-1 -75.031586657307656 34.426324756064346 -16.151280410474744 #
straight-curve $-1 0 -34.426324756064346 -16.151280410474744 -1 0 0 I I #
point $-1 -75.031586657307656 -34.426324756064346 -16.151280410474744 #
face $-1 $523 $524 $17 $-1 $525 reversed single #
loop $-1 $-1 $526 $376 #
plane-surface $-1 0 0 -16.151280410474744 0 0 1 1 0 0 forward_v I I I I #
coedge $-1 $462 $378 $383 $466 reversed $304 $-1 #
coedge $-1 $460 $384 $378 $456 forward $234 $-1 #
edge $-1 $467 -9.2297220677534693 $464 -4.613394617689071 $455 $527 forward 7 unknown #
coedge $-1 $380 $379 $528 $529 reversed $220 $-1 #
coedge $-1 $475 $530 $379 $459 forward $476 $-1 #
edge $-1 $531 -42.195965335594558 $463 -23.475277307831639 $458 $532 forward 7 unknown #
coedge $-1 $468 $455 $380 $461 forward $234 $-1 #
edge $-1 $464 23.475277307831639 $533 42.195965335594558 $460 $534 forward 7 unknown #
coedge $-1 $381 $454 $475 $535 reversed $304 $-1 #
vertex $-1 $459 $536 #
vertex $-1 $461 $537 #
straight-curve $-1 -56.310898629544738 0 11.534952960410342 0 -1 0 I I #
edge $-1 $477 -34.426324756064346 $467 34.426324756064346 $383 $538 forward 7 unknown #
vertex $-1 $385 $539 #
coedge $-1 $390 $460 $540 $541 forward $234 $-1 #
coedge $-1 $542 $526 $390 $470 forward $452 $-1 #
edge $-1 $472 -75.031586657307656 $543 75.031586657307656 $390 $544 forward 7 unknown #
coedge $-1 $395 $391 $526 $545 reversed $396 $-1 #
vertex $-1 $392 $546 #
straight-curve $-1 75.031586657307656 -34.426324756064346 0 0 0 -1 I I #
coedge $-1 $547 $393 $395 $479 forward $476 $-1 #
coedge $-1 $393 $458 $462 $535 forward $476 $-1 #
loop $-1 $-1 $475 $523 #
vertex $-1 $466 $548 #
straight-curve $-1 0 34.426324756064346 16.151280410474744 -1 0 0 I I #
edge $-1 $397 -16.151280410474744 $549 16.151280410474744 $395 $550 forward 7 unknown #
face $-1 $-1 $396 $17 $-1 $551 reversed single #
point $-1 75.031586657307656 34.426324756064346 16.151280410474744 #
face $-1 $552 $414 $18 $-1 $553 reversed single #
loop $-1 $-1 $554 $400 #
plane-surface $-1 -56.310898629544738 0 13.843116685442542 -1 0 0 0 0 1 forward_v I I I I #
coedge $-1 $555 $556 $557 $558 reversed $401 $-1 #
coedge $-1 $403 $559 $560 $561 forward $324 $-1 #
coedge $-1 $560 $412 $404 $488 forward $414 $-1 #
edge $-1 $562 -58.645734717219128 $490 -52.463772648850224 $487 $563 forward 7 unknown #
edge $-1 $562 0 $491 11.665856299238925 $405 $564 forward 7 unknown #
vertex $-1 $488 $565 #
vertex $-1 $408 $566 #
straight-curve $-1 41.153931666186949 -56.97384609871812 16.15128041047474 0 1 0 I I #
straight-curve $-1 28.383580438719306 -24.53311758246587 16.151280410474744 1 0 0 I I #
edge $-1 $410 -43.99680964997097 $562 -12.770351227467643 $412 $567 forward 7 unknown #
point $-1 72.380390088690277 -34.426324756064346 9.9693183421058365 #
coedge $-1 $413 $568 $569 $570 reversed $414 $-1 #
coedge $-1 $559 $416 $571 $572 forward $324 $-1 #
coedge $-1 $569 $573 $416 $499 reversed $574 $-1 #
edge $-1 $500 -34.426324756064346 $575 34.426324756064346 $498 $576 forward 7 unknown #
vertex $-1 $499 $577 #
straight-curve $-1 0 -34.426324756064346 16.151280410474744 1 0 0 I I #
face $-1 $578 $579 $19 $-1 $580 forward single #
loop $-1 $-1 $581 $421 #
plane-surface $-1 0 0 16.151280410474744 0 0 1 1 0 0 forward_v I I I I #
coedge $-1 $582 $583 $581 $584 reversed $422 $-1 #
coedge $-1 $433 $585 $424 $507 reversed $348 $-1 #
edge $-1 $512 -11.665856299238925 $586 0 $424 $587 forward 7 unknown #
coedge $-1 $588 $589 $425 $509 forward $590 $-1 #
edge $-1 $513 52.463772648850224 $586 58.645734717219128 $508 $591 forward 7 unknown #
coedge $-1 $592 $426 $589 $593 forward $503 $-1 #
coedge $-1 $426 $581 $433 $518 forward $503 $-1 #
vertex $-1 $518 $594 #
vertex $-1 $593 $595 #
straight-curve $-1 72.380390088690277 -56.97384609871812 16.15128041047474 0 -1 0 I I #
vertex $-1 $428 $596 #
point $-1 52.075776929759343 -27.653895616625356 10.138367754040631 #
coedge $-1 $585 $433 $583 $597 reversed $348 $-1 #
edge $-1 $598 12.770351227467643 $512 43.99680964997097 $511 $599 forward 7 unknown #
point $-1 75.031586657307656 34.426324756064346 -16.151280410474744 #
point $-1 75.031586657307656 -34.426324756064346 -16.151280410474744 #
straight-curve $-1 75.031586657307656 34.426324756064346 0 0 0 -1 I I #
straight-curve $-1 -75.031586657307656 0 -16.151280410474744 0 1 0 I I #
face $-1 $480 $476 $17 $-1 $600 reversed single #
loop $-1 $-1 $528 $451 #
plane-surface $-1 -75.031586657307656 0 0 1 0 0 0 0 -1 forward_v I I I I #
coedge $-1 $469 $601 $471 $545 forward $452 $-1 #
straight-curve $-1 -56.310898629544738 -34.426324756064346 6.921558342721271 0 0 -1 I I #
coedge $-1 $602 $540 $457 $529 forward $524 $-1 #
edge $-1 $533 -34.426324756064346 $531 34.426324756064346 $528 $603 forward 7 unknown #
coedge $-1 $458 $547 $602 $604 reversed $476 $-1 #
vertex $-1 $604 $605 #
straight-curve $-1 -32.835621321713099 34.426324756064346 11.534952960410342 1 0 0 I I #
vertex $-1 $541 $606 #
straight-curve $-1 -32.835621321713099 -34.426324756064346 11.534952960410342 -1 0 0 I I #
edge $-1 $463 4.613394617689071 $477 9.2297220677534693 $475 $607 forward 7 unknown #
point $-1 -56.310898629544738 34.426324756064346 11.534952960410342 #
point $-1 -56.310898629544738 -34.426324756064346 11.534952960410342 #
straight-curve $-1 -56.310898629544738 0 16.151280410474744 0 -1 0 I I #
point $-1 -56.310898629544738 -34.426324756064346 16.15128041047474 #
coedge $-1 $528 $608 $468 $541 reversed $524 $-1 #
edge $-1 $533 -11.534952960410342 $543 16.151280410474744 $540 $609 forward 7 unknown #
coedge $-1 $601 $469 $608 $610 forward $452 $-1 #
vertex $-1 $610 $611 #
straight-curve $-1 0 -34.426324756064346 -16.151280410474744 -1 0 0 I I #
edge $-1 $549 -34.426324756064346 $472 34.426324756064346 $471 $612 forward 7 unknown #
point $-1 75.031586657307656 -34.426324756064346 -16.151280410474744 #
coedge $-1 $530 $474 $601 $613 reversed $476 $-1 #
point $-1 -56.310898629544738 34.426324756064346 16.15128041047474 #
vertex $-1 $545 $614 #
straight-curve $-1 75.031586657307656 34.426324756064346 0 0 0 -1 I I #
plane-surface $-1 75.031586657307656 0 0 -1 0 0 0 0 1 forward_v I I I I #
face $-1 $615 $616 $18 $-1 $617 reversed single #
plane-surface $-1 0 -34.426324756064346 0 0 1 0 0 0 1 forward_v I I I I #
coedge $-1 $618 $557 $619 $620 reversed $483 $-1 #
coedge $-1 $621 $485 $622 $623 reversed $401 $-1 #
coedge $-1 $485 $621 $624 $625 reversed $401 $-1 #
coedge $-1 $554 $626 $485 $558 forward $483 $-1 #
edge $-1 $627 -34.426324756064346 $628 34.426324756064346 $557 $629 forward 7 unknown #
coedge $-1 $486 $497 $618 $630 forward $324 $-1 #
coedge $-1 $619 $487 $486 $561 reversed $414 $-1 #
edge $-1 $631 -56.310898629544738 $490 41.153931666186949 $560 $501 forward 7 unknown #
vertex $-1 $494 $632 #
straight-curve $-1 41.153931666186949 -34.426324756064346 68.615053059324964 0 0 1 I I #
straight-curve $-1 41.153931666186949 -34.426324756064346 9.9693183421058365 0 0.84804809178421925 0.52991927123019833 I I #
point $-1 41.153931666186949 -34.426324756064346 16.151280410474744 #
point $-1 41.153931666186949 -24.533117582465863 16.151280410474744 #
straight-curve $-1 28.383580438719306 -34.426324756064346 9.9693183421058329 -1 0 0 I I #
coedge $-1 $496 $633 $634 $635 reversed $414 $-1 #
coedge $-1 $636 $498 $496 $570 forward $574 $-1 #
edge $-1 $500 -16.151280410474744 $637 16.151280410474744 $569 $638 forward 7 unknown #
coedge $-1 $639 $640 $497 $572 reversed $641 $-1 #
edge $-1 $575 -75.031586657307656 $642 56.310898629544738 $571 $643 forward 7 unknown #
coedge $-1 $498 $636 $639 $644 reversed $574 $-1 #
loop $-1 $-1 $569 $645 #
vertex $-1 $499 $646 #
straight-curve $-1 75.031586657307656 0 16.151280410474744 0 1 0 I I #
point $-1 75.031586657307656 -34.426324756064346 16.151280410474744 #
face $-1 $647 $648 $19 $-1 $649 forward single #
loop $-1 $-1 $650 $502 #
plane-surface $-1 -65.671242643426197 0 11.534952960410342 0 0 1 1 0 0 forward_v I I I I #
coedge $-1 $511 $651 $505 $584 forward $503 $-1 #
coedge $-1 $583 $505 $652 $653 reversed $422 $-1 #
coedge $-1 $505 $582 $517 $597 forward $422 $-1 #
edge $-1 $654 22.547521342653774 $598 32.440728516252257 $581 $655 forward 7 unknown #
coedge $-1 $506 $517 $588 $656 reversed $348 $-1 #
vertex $-1 $656 $657 #
straight-curve $-1 72.380390088690277 -34.426324756064346 9.9693183421058365 0 -0.84804809178421925 -0.52991927123019833 I I #
coedge $-1 $652 $508 $585 $656 forward $590 $-1 #
coedge $-1 $508 $658 $510 $593 reversed $590 $-1 #
loop $-1 $-1 $652 $647 #
straight-curve $-1 72.380390088690277 -34.426324756064346 68.615053059324964 0 0 -1 I I #
coedge $-1 $659 $510 $660 $661 forward $503 $-1 #
edge $-1 $513 72.380390088690277 $662 75.031586657307656 $589 $663 forward 7 unknown #
point $-1 72.380390088690277 -24.533117582465863 16.151280410474744 #
point $-1 72.380390088690277 -34.426324756064346 16.151280410474744 #
point $-1 50.075776929759343 -26.594057074164958 8.442271570472192 #
edge $-1 $664 0 $598 11.665856299238925 $583 $665 forward 7 unknown #
vertex $-1 $518 $666 #
straight-curve $-1 28.383580438719306 -24.53311758246587 16.151280410474744 1 0 0 I I #
plane-surface $-1 0 34.426324756064346 0 0 -1 0 0 0 -1 forward_v I I I I #
coedge $-1 $526 $542 $547 $613 forward $452 $-1 #
coedge $-1 $608 $528 $530 $604 forward $524 $-1 #
straight-curve $-1 -75.031586657307656 0 11.534952960410342 0 1 0 I I #
edge $-1 $531 -11.534952960410342 $667 16.151280410474744 $530 $668 forward 7 unknown #
point $-1 -75.031586657307656 34.426324756064346 11.534952960410342 #
point $-1 -75.031586657307656 -34.426324756064346 11.534952960410342 #
straight-curve $-1 -56.310898629544738 34.426324756064346 6.921558342721271 0 0 1 I I #
coedge $-1 $540 $602 $542 $610 reversed $524 $-1 #
straight-curve $-1 -75.031586657307656 -34.426324756064346 0 0 0 -1 I I #
edge $-1 $543 -34.426324756064346 $667 34.426324756064346 $608 $669 forward 7 unknown #
point $-1 -75.031586657307656 -34.426324756064346 -16.151280410474744 #
straight-curve $-1 75.031586657307656 0 -16.151280410474744 0 -1 0 I I #
edge $-1 $667 -75.031586657307656 $549 75.031586657307656 $547 $670 forward 7 unknown #
point $-1 75.031586657307656 34.426324756064346 -16.151280410474744 #
face $-1 $671 $672 $18 $-1 $673 reversed single #
loop $-1 $-1 $674 $552 #
plane-surface $-1 0 0 -16.151280410474744 0 0 1 1 0 0 forward_v I I I I #
coedge $-1 $626 $554 $559 $630 reversed $483 $-1 #
coedge $-1 $624 $560 $554 $620 forward $414 $-1 #
edge $-1 $631 -9.2297220677534693 $628 -4.613394617689071 $619 $675 forward 7 unknown #
coedge $-1 $556 $555 $676 $677 reversed $401 $-1 #
coedge $-1 $640 $678 $555 $623 forward $641 $-1 #
edge $-1 $679 -42.195965335594558 $627 -23.475277307831639 $622 $680 forward 7 unknown #
coedge $-1 $633 $619 $556 $625 forward $414 $-1 #
edge $-1 $628 23.475277307831639 $681 42.195965335594558 $624 $682 forward 7 unknown #
coedge $-1 $557 $618 $640 $683 reversed $483 $-1 #
vertex $-1 $623 $684 #
vertex $-1 $625 $685 #
straight-curve $-1 -56.310898629544738 0 11.534952960410342 0 -1 0 I I #
edge $-1 $642 -34.426324756064346 $631 34.426324756064346 $559 $686 forward 7 unknown #
vertex $-1 $561 $687 #
point $-1 41.153931666186949 -34.426324756064346 9.9693183421058365 #
coedge $-1 $568 $624 $688 $689 forward $414 $-1 #
coedge $-1 $690 $674 $568 $635 forward $616 $-1 #
edge $-1 $637 -75.031586657307656 $691 75.031586657307656 $568 $692 forward 7 unknown #
coedge $-1 $573 $569 $674 $693 reversed $574 $-1 #
vertex $-1 $570 $694 #
straight-curve $-1 75.031586657307656 -34.426324756064346 0 0 0 -1 I I #
coedge $-1 $695 $571 $573 $644 forward $641 $-1 #
coedge $-1 $571 $622 $626 $683 forward $641 $-1 #
loop $-1 $-1 $640 $671 #
vertex $-1 $630 $696 #
straight-curve $-1 0 34.426324756064346 16.151280410474744 -1 0 0 I I #
edge $-1 $575 -16.151280410474744 $697 16.151280410474744 $573 $698 forward 7 unknown #
face $-1 $-1 $574 $18 $-1 $699 reversed single #
point $-1 75.031586657307656 34.426324756064346 16.151280410474744 #
face $-1 $700 $590 $19 $-1 $701 reversed single #
loop $-1 $-1 $702 $578 #
plane-surface $-1 -56.310898629544738 0 13.843116685442542 -1 0 0 0 0 1 forward_v I I I I #
coedge $-1 $703 $704 $705 $706 reversed $579 $-1 #
coedge $-1 $581 $707 $708 $709 forward $503 $-1 #
coedge $-1 $708 $588 $582 $653 forward $590 $-1 #
edge $-1 $664 -58.645734717219128 $654 -52.463772648850224 $652 $710 forward 7 unknown #
vertex $-1 $653 $711 #
straight-curve $-1 41.153931666186949 -56.97384609871812 16.15128041047474 0 1 0 I I #
edge $-1 $586 -43.99680964997097 $664 -12.770351227467643 $588 $712 forward 7 unknown #
point $-1 72.380390088690277 -34.426324756064346 9.9693183421058365 #
coedge $-1 $589 $713 $714 $715 reversed $590 $-1 #
coedge $-1 $707 $592 $716 $717 forward $503 $-1 #
coedge $-1 $714 $718 $592 $661 reversed $719 $-1 #
edge $-1 $662 -34.426324756064346 $720 34.426324756064346 $660 $721 forward 7 unknown #
vertex $-1 $661 $722 #
straight-curve $-1 0 -34.426324756064346 16.151280410474744 1 0 0 I I #
vertex $-1 $656 $723 #
straight-curve $-1 41.153931666186949 -34.426324756064346 9.9693183421058365 0 0.84804809178421925 0.52991927123019833 I I #
point $-1 41.153931666186949 -24.533117582465863 16.151280410474744 #
vertex $-1 $613 $724 #
straight-curve $-1 -75.031586657307656 34.426324756064346 0 0 0 -1 I I #
straight-curve $-1 -75.031586657307656 0 -16.151280410474744 0 1 0 I I #
straight-curve $-1 0 34.426324756064346 -16.151280410474744 1 0 0 I I #
face $-1 $645 $641 $18 $-1 $725 reversed single #
loop $-1 $-1 $676 $615 #
plane-surface $-1 -75.031586657307656 0 0 1 0 0 0 0 -1 forward_v I I I I #
coedge $-1 $634 $726 $636 $693 forward $616 $-1 #
straight-curve $-1 -56.310898629544738 -34.426324756064346 6.921558342721271 0 0 -1 I I #
coedge $-1 $727 $688 $621 $677 forward $672 $-1 #
edge $-1 $681 -34.426324756064346 $679 34.426324756064346 $676 $728 forward 7 unknown #
coedge $-1 $622 $695 $727 $729 reversed $641 $-1 #
vertex $-1 $729 $730 #
straight-curve $-1 -32.835621321713099 34.426324756064346 11.534952960410342 1 0 0 I I #
vertex $-1 $689 $731 #
straight-curve $-1 -32.835621321713099 -34.426324756064346 11.534952960410342 -1 0 0 I I #
edge $-1 $627 4.613394617689071 $642 9.2297220677534693 $640 $732 forward 7 unknown #
point $-1 -56.310898629544738 34.426324756064346 11.534952960410342 #
point $-1 -56.310898629544738 -34.426324756064346 11.534952960410342 #
straight-curve $-1 -56.310898629544738 0 16.151280410474744 0 -1 0 I I #
point $-1 -56.310898629544738 -34.426324756064346 16.15128041047474 #
coedge $-1 $676 $733 $633 $689 reversed $672 $-1 #
edge $-1 $681 -11.534952960410342 $691 16.151280410474744 $688 $734 forward 7 unknown #
coedge $-1 $726 $634 $733 $735 forward $616 $-1 #
vertex $-1 $735 $736 #
straight-curve $-1 0 -34.426324756064346 -16.151280410474744 -1 0 0 I I #
edge $-1 $697 -34.426324756064346 $637 34.426324756064346 $636 $737 forward 7 unknown #
point $-1 75.031586657307656 -34.426324756064346 -16.151280410474744 #
coedge $-1 $678 $639 $726 $738 reversed $641 $-1 #
point $-1 -56.310898629544738 34.426324756064346 16.15128041047474 #
vertex $-1 $693 $739 #
straight-curve $-1 75.031586657307656 34.426324756064346 0 0 0 -1 I I #
plane-surface $-1 75.031586657307656 0 0 -1 0 0 0 0 1 forward_v I I I I #
face $-1 $740 $741 $19 $-1 $742 reversed single #
plane-surface $-1 0 -34.426324756064346 0 0 1 0 0 0 1 forward_v I I I I #
coedge $-1 $743 $705 $744 $745 reversed $648 $-1 #
coedge $-1 $746 $650 $747 $748 reversed $579 $-1 #
coedge $-1 $650 $746 $749 $750 reversed $579 $-1 #
coedge $-1 $702 $751 $650 $706 forward $648 $-1 #
edge $-1 $752 -34.426324756064346 $753 34.426324756064346 $705 $754 forward 7 unknown #
coedge $-1 $651 $659 $743 $755 forward $503 $-1 #
coedge $-1 $744 $652 $651 $709 reversed $590 $-1 #
edge $-1 $756 -56.310898629544738 $654 41.153931666186949 $708 $663 forward 7 unknown #
straight-curve $-1 41.153931666186949 -34.426324756064346 68.615053059324964 0 0 1 I I #
point $-1 41.153931666186949 -34.426324756064346 16.151280410474744 #
straight-curve $-1 28.383580438719306 -34.426324756064346 9.9693183421058329 -1 0 0 I I #
coedge $-1 $658 $757 $758 $759 reversed $590 $-1 #
coedge $-1 $760 $660 $658 $715 forward $719 $-1 #
edge $-1 $662 -16.151280410474744 $761 16.151280410474744 $714 $762 forward 7 unknown #
coedge $-1 $763 $764 $659 $717 reversed $765 $-1 #
edge $-1 $720 -75.031586657307656 $766 56.310898629544738 $716 $767 forward 7 unknown #
coedge $-1 $660 $760 $763 $768 reversed $719 $-1 #
loop $-1 $-1 $714 $769 #
vertex $-1 $661 $770 #
straight-curve $-1 75.031586657307656 0 16.151280410474744 0 1 0 I I #
point $-1 75.031586657307656 -34.426324756064346 16.151280410474744 #
point $-1 41.153931666186949 -34.426324756064346 9.9693183421058365 #
point $-1 -75.031586657307656 34.426324756064346 -16.151280410474744 #
plane-surface $-1 0 34.426324756064346 0 0 -1 0 0 0 -1 forward_v I I I I #
coedge $-1 $674 $690 $695 $738 forward $616 $-1 #
coedge $-1 $733 $676 $678 $729 forward $672 $-1 #
straight-curve $-1 -75.031586657307656 0 11.534952960410342 0 1 0 I I #
edge $-1 $679 -11.534952960410342 $771 16.151280410474744 $678 $772 forward 7 unknown #
point $-1 -75.031586657307656 34.426324756064346 11.534952960410342 #
point $-1 -75.031586657307656 -34.426324756064346 11.534952960410342 #
straight-curve $-1 -56.310898629544738 34.426324756064346 6.921558342721271 0 0 1 I I #
coedge $-1 $688 $727 $690 $735 reversed $672 $-1 #
straight-curve $-1 -75.031586657307656 -34.426324756064346 0 0 0 -1 I I #
edge $-1 $691 -34.426324756064346 $771 34.426324756064346 $733 $773 forward 7 unknown #
point $-1 -75.031586657307656 -34.426324756064346 -16.151280410474744 #
straight-curve $-1 75.031586657307656 0 -16.151280410474744 0 -1 0 I I #
edge $-1 $771 -75.031586657307656 $697 75.031586657307656 $695 $774 forward 7 unknown #
point $-1 75.031586657307656 34.426324756064346 -16.151280410474744 #
face $-1 $775 $776 $19 $-1 $777 reversed single #
loop $-1 $-1 $778 $700 #
plane-surface $-1 0 0 -16.151280410474744 0 0 1 1 0 0 forward_v I I I I #
coedge $-1 $751 $702 $707 $755 reversed $648 $-1 #
coedge $-1 $749 $708 $702 $745 forward $590 $-1 #
edge $-1 $756 -9.2297220677534693 $753 -4.613394617689071 $744 $779 forward 7 unknown #
coedge $-1 $704 $703 $780 $781 reversed $579 $-1 #
coedge $-1 $764 $782 $703 $748 forward $765 $-1 #
edge $-1 $783 -42.195965335594558 $752 -23.475277307831639 $747 $784 forward 7 unknown #
coedge $-1 $757 $744 $704 $750 forward $590 $-1 #
edge $-1 $753 23.475277307831639 $785 42.195965335594558 $749 $786 forward 7 unknown #
coedge $-1 $705 $743 $764 $787 reversed $648 $-1 #
vertex $-1 $748 $788 #
vertex $-1 $750 $789 #
straight-curve $-1 -56.310898629544738 0 11.534952960410342 0 -1 0 I I #
edge $-1 $766 -34.426324756064346 $756 34.426324756064346 $707 $790 forward 7 unknown #
vertex $-1 $709 $791 #
coedge $-1 $713 $749 $792 $793 forward $590 $-1 #
coedge $-1 $794 $778 $713 $759 forward $741 $-1 #
edge $-1 $761 -75.031586657307656 $795 75.031586657307656 $713 $796 forward 7 unknown #
coedge $-1 $718 $714 $778 $797 reversed $719 $-1 #
vertex $-1 $715 $798 #
straight-curve $-1 75.031586657307656 -34.426324756064346 0 0 0 -1 I I #
coedge $-1 $799 $716 $718 $768 forward $765 $-1 #
coedge $-1 $716 $747 $751 $787 forward $765 $-1 #
loop $-1 $-1 $764 $775 #
vertex $-1 $755 $800 #
straight-curve $-1 0 34.426324756064346 16.151280410474744 -1 0 0 I I #
edge $-1 $720 -16.151280410474744 $801 16.151280410474744 $718 $802 forward 7 unknown #
face $-1 $-1 $719 $19 $-1 $803 reversed single #
point $-1 75.031586657307656 34.426324756064346 16.151280410474744 #
vertex $-1 $738 $804 #
straight-curve $-1 -75.031586657307656 34.426324756064346 0 0 0 -1 I I #
straight-curve $-1 -75.031586657307656 0 -16.151280410474744 0 1 0 I I #
straight-curve $-1 0 34.426324756064346 -16.151280410474744 1 0 0 I I #
face $-1 $769 $765 $19 $-1 $805 reversed single #
loop $-1 $-1 $780 $740 #
plane-surface $-1 -75.031586657307656 0 0 1 0 0 0 0 -1 forward_v I I I I #
coedge $-1 $758 $806 $760 $797 forward $741 $-1 #
straight-curve $-1 -56.310898629544738 -34.426324756064346 6.921558342721271 0 0 -1 I I #
coedge $-1 $807 $792 $746 $781 forward $776 $-1 #
edge $-1 $785 -34.426324756064346 $783 34.426324756064346 $780 $808 forward 7 unknown #
coedge $-1 $747 $799 $807 $809 reversed $765 $-1 #
vertex $-1 $809 $810 #
straight-curve $-1 -32.835621321713099 34.426324756064346 11.534952960410342 1 0 0 I I #
vertex $-1 $793 $811 #
straight-curve $-1 -32.835621321713099 -34.426324756064346 11.534952960410342 -1 0 0 I I #
edge $-1 $752 4.613394617689071 $766 9.2297220677534693 $764 $812 forward 7 unknown #
point $-1 -56.310898629544738 34.426324756064346 11.534952960410342 #
point $-1 -56.310898629544738 -34.426324756064346 11.534952960410342 #
straight-curve $-1 -56.310898629544738 0 16.151280410474744 0 -1 0 I I #
point $-1 -56.310898629544738 -34.426324756064346 16.15128041047474 #
coedge $-1 $780 $813 $757 $793 reversed $776 $-1 #
edge $-1 $785 -11.534952960410342 $795 16.151280410474744 $792 $814 forward 7 unknown #
coedge $-1 $806 $758 $813 $815 forward $741 $-1 #
vertex $-1 $815 $816 #
straight-curve $-1 0 -34.426324756064346 -16.151280410474744 -1 0 0 I I #
edge $-1 $801 -34.426324756064346 $761 34.426324756064346 $760 $817 forward 7 unknown #
point $-1 75.031586657307656 -34.426324756064346 -16.151280410474744 #
coedge $-1 $782 $763 $806 $818 reversed $765 $-1 #
point $-1 -56.310898629544738 34.426324756064346 16.15128041047474 #
vertex $-1 $797 $819 #
straight-curve $-1 75.031586657307656 34.426324756064346 0 0 0 -1 I I #
plane-surface $-1 75.031586657307656 0 0 -1 0 0 0 0 1 forward_v I I I I #
point $-1 -75.031586657307656 34.426324756064346 -16.151280410474744 #
plane-surface $-1 0 34.426324756064346 0 0 -1 0 0 0 -1 forward_v I I I I #
coedge $-1 $778 $794 $799 $818 forward $741 $-1 #
coedge $-1 $813 $780 $782 $809 forward $776 $-1 #
straight-curve $-1 -75.031586657307656 0 11.534952960410342 0 1 0 I I #
edge $-1 $783 -11.534952960410342 $820 16.151280410474744 $782 $821 forward 7 unknown #
point $-1 -75.031586657307656 34.426324756064346 11.534952960410342 #
point $-1 -75.031586657307656 -34.426324756064346 11.534952960410342 #
straight-curve $-1 -56.310898629544738 34.426324756064346 6.921558342721271 0 0 1 I I #
coedge $-1 $792 $807 $794 $815 reversed $776 $-1 #
straight-curve $-1 -75.031586657307656 -34.426324756064346 0 0 0 -1 I I #
edge $-1 $795 -34.426324756064346 $820 34.426324756064346 $813 $822 forward 7 unknown #
point $-1 -75.031586657307656 -34.426324756064346 -16.151280410474744 #
straight-curve $-1 75.031586657307656 0 -16.151280410474744 0 -1 0 I I #
edge $-1 $820 -75.031586657307656 $801 75.031586657307656 $799 $823 forward 7 unknown #
point $-1 75.031586657307656 34.426324756064346 -16.151280410474744 #
vertex $-1 $818 $824 #
straight-curve $-1 -75.031586657307656 34.426324756064346 0 0 0 -1 I I #
straight-curve $-1 -75.031586657307656 0 -16.151280410474744 0 1 0 I I #
straight-curve $-1 0 34.426324756064346 -16.151280410474744 1 0 0 I I #
point $-1 -75.031586657307656 34.426324756064346 -16.151280410474744 #
End-of-ACIS-data 