500 0 7 0           
7 Unknown 11 ACIS 5.0 NT 24 Thu Mar 25 18:54:17 1999 
-1 9.9999999999999995e-007 1e-010 
body $-1 $7 $-1 $8 #
body $-1 $9 $-1 $10 #
body $-1 $11 $-1 $12 #
body $-1 $13 $-1 $14 #
body $-1 $15 $-1 $16 #
body $-1 $17 $-1 $18 #
body $-1 $19 $-1 $20 #
lump $-1 $-1 $21 $0 #
transform $-1 1 0 0 0 1 0 0 0 1 45.866878261665704 27.633649825343213 7.1041933275462714 1 rotate no_reflect no_shear #
lump $-1 $-1 $22 $1 #
transform $-1 1 0 0 0 1 0 0 0 1 45.866878261665704 27.633649825343213 7.1041933275462714 1 rotate no_reflect no_shear #
lump $-1 $-1 $23 $2 #
transform $-1 1 0 0 0 1 0 0 0 1 45.866878261665704 27.633649825343213 7.1041933275462714 1 rotate no_reflect no_shear #
lump $-1 $-1 $24 $3 #
transform $-1 1 0 0 0 1 0 0 0 1 45.866878261665704 27.633649825343213 7.1041933275462714 1 rotate no_reflect no_shear #
lump $-1 $-1 $25 $4 #
transform $-1 1 0 0 0 1 0 0 0 1 45.866878261665704 27.633649825343213 7.1041933275462714 1 rotate no_reflect no_shear #
lump $-1 $-1 $26 $5 #
transform $-1 1 0 0 0 1 0 0 0 1 45.866878261665704 27.633649825343213 7.1041933275462714 1 rotate no_reflect no_shear #
lump $-1 $-1 $27 $6 #
transform $-1 1 0 0 0 1 0 0 0 1 45.866878261665704 27.633649825343213 7.1041933275462714 1 rotate no_reflect no_shear #
shell $-1 $-1 $-1 $28 $-1 $7 #
shell $-1 $-1 $-1 $29 $-1 $9 #
shell $-1 $-1 $-1 $30 $-1 $11 #
shell $-1 $-1 $-1 $31 $-1 $13 #
shell $-1 $-1 $-1 $32 $-1 $15 #
shell $-1 $-1 $-1 $33 $-1 $17 #
shell $-1 $-1 $-1 $34 $-1 $19 #
face $-1 $35 $36 $21 $-1 $37 forward single #
face $-1 $38 $39 $22 $-1 $40 reversed single #
face $-1 $41 $42 $23 $-1 $43 forward single #
face $-1 $44 $45 $24 $-1 $46 forward single #
face $-1 $47 $48 $25 $-1 $49 reversed single #
face $-1 $50 $51 $26 $-1 $52 forward single #
face $-1 $53 $54 $27 $-1 $55 forward single #
face $-1 $56 $57 $21 $-1 $58 reversed single #
loop $-1 $-1 $59 $28 #
plane-surface $-1 0 0 7.1041933275462714 0 0 1 1 0 0 forward_v I I I I #
face $-1 $60 $61 $22 $-1 $62 reversed single #
loop $-1 $-1 $63 $29 #
plane-surface $-1 -40.150936442046842 53.41932997186963 105.19334759970391 1 0 0 0 -0.70710678939079041 -0.70710677298230451 forward_v I I I I #
face $-1 $64 $65 $23 $-1 $66 forward single #
loop $-1 $67 $68 $30 #
cone-surface $-1 -35.080541611764005 24.307799589761334 3.7783430332452959 0 -0.70710678939079041 -0.70710677298230451 1 0 0 1 I I 0 1 1 forward I I I I #
face $-1 $69 $70 $24 $-1 $71 forward single #
loop $-1 $72 $73 $31 #
cone-surface $-1 -27.474949366339754 24.307799589761334 3.7783430332452959 0 -0.70710678939079041 -0.70710677298230451 1 0 0 1 I I 0 1 1 forward I I I I #
face $-1 $74 $75 $25 $-1 $76 reversed single #
loop $-1 $-1 $77 $32 #
plane-surface $-1 5.7159418196188643 53.41932997186963 105.19334759970391 1 0 0 0 -0.70710678939079041 -0.70710677298230451 forward_v I I I I #
face $-1 $78 $79 $26 $-1 $80 forward single #
loop $-1 $81 $82 $33 #
cone-surface $-1 10.786336649901699 24.307799589761334 3.7783430332452959 0 -0.70710678939079041 -0.70710677298230451 1 0 0 1 I I 0 1 1 forward I I I I #
face $-1 $83 $84 $27 $-1 $85 forward single #
loop $-1 $86 $87 $34 #
cone-surface $-1 18.391928895325947 24.307799589761334 3.7783430332452959 0 -0.70710678939079041 -0.70710677298230451 1 0 0 1 I I 0 1 1 forward I I I I #
face $-1 $88 $89 $21 $-1 $90 reversed single #
loop $-1 $-1 $91 $35 #
plane-surface $-1 0 0 -7.1041933275462714 0 0 1 1 0 0 forward_v I I I I #
coedge $-1 $92 $93 $94 $95 forward $36 $-1 #
face $-1 $96 $97 $22 $-1 $98 reversed single #
loop $-1 $-1 $99 $38 #
plane-surface $-1 -31.277745489051881 -11.446232082099712 40.327787050946611 0 0.70710678939079041 0.70710677298230451 1 0 0 forward_v I I I I #
coedge $-1 $100 $101 $102 $103 reversed $39 $-1 #
face $-1 $-1 $104 $23 $-1 $105 forward single #
loop $-1 $106 $107 $41 #
cone-surface $-1 -35.080541611764005 23.556540436983795 3.0270838979008037 0 -0.70710678939079041 -0.70710677298230451 0.5 0 0 1 I I -0.70710678118654746 0.70710678118654746 0.5 forward I I I I #
loop $-1 $-1 $108 $30 #
coedge $-1 $68 $68 $109 $110 reversed $42 $-1 #
face $-1 $-1 $111 $24 $-1 $112 forward single #
loop $-1 $113 $114 $44 #
cone-surface $-1 -27.474949366339754 23.556540436983795 3.0270838979008037 0 -0.70710678939079041 -0.70710677298230451 0.5 0 0 1 I I -0.70710678118654746 0.70710678118654746 0.5 forward I I I I #
loop $-1 $-1 $115 $31 #
coedge $-1 $73 $73 $116 $117 reversed $45 $-1 #
face $-1 $118 $119 $25 $-1 $120 reversed single #
loop $-1 $-1 $121 $47 #
plane-surface $-1 14.589132772613823 -11.446232082099712 40.327787050946611 0 0.70710678939079041 0.70710677298230451 1 0 0 forward_v I I I I #
coedge $-1 $122 $123 $124 $125 reversed $48 $-1 #
face $-1 $-1 $126 $26 $-1 $127 forward single #
loop $-1 $128 $129 $50 #
cone-surface $-1 10.786336649901699 23.556540436983795 3.0270838979008037 0 -0.70710678939079041 -0.70710677298230451 0.5 0 0 1 I I -0.70710678118654746 0.70710678118654746 0.5 forward I I I I #
loop $-1 $-1 $130 $33 #
coedge $-1 $82 $82 $131 $132 reversed $51 $-1 #
face $-1 $-1 $133 $27 $-1 $134 forward single #
loop $-1 $135 $136 $53 #
cone-surface $-1 18.391928895325947 23.556540436983795 3.0270838979008037 0 -0.70710678939079041 -0.70710677298230451 0.5 0 0 1 I I -0.70710678118654746 0.70710678118654746 0.5 forward I I I I #
loop $-1 $-1 $137 $34 #
coedge $-1 $87 $87 $138 $139 reversed $54 $-1 #
face $-1 $140 $141 $21 $-1 $142 reversed single #
loop $-1 $-1 $143 $56 #
plane-surface $-1 0 -27.633649825343213 0 0 1 0 0 0 1 forward_v I I I I #
coedge $-1 $144 $145 $146 $147 forward $57 $-1 #
coedge $-1 $148 $59 $149 $150 forward $36 $-1 #
coedge $-1 $59 $148 $151 $152 forward $36 $-1 #
coedge $-1 $153 $154 $59 $95 reversed $155 $-1 #
edge $-1 $156 -27.633649825343213 $157 27.633649825343213 $94 $158 forward 7 unknown #
face $-1 $159 $160 $22 $-1 $161 reversed single #
loop $-1 $-1 $162 $60 #
plane-surface $-1 -22.404554536056921 53.41932997186963 105.19334759970391 -1 0 0 0 0.70710678939079041 0.70710677298230451 forward_v I I I I #
coedge $-1 $163 $164 $165 $166 reversed $61 $-1 #
coedge $-1 $101 $63 $167 $168 reversed $39 $-1 #
coedge $-1 $63 $100 $163 $169 reversed $39 $-1 #
coedge $-1 $165 $170 $63 $103 forward $171 $-1 #
edge $-1 $172 -0.92398483940839782 $173 4.9323041155911014 $102 $174 forward 7 unknown #
loop $-1 $-1 $109 $64 #
plane-surface $-1 -31.277745489051881 -11.446232082099712 40.327787050946611 0 0.70710678939079041 0.70710677298230451 1 0 0 forward_v I I I I #
loop $-1 $-1 $175 $41 #
coedge $-1 $107 $107 $108 $176 reversed $65 $-1 #
coedge $-1 $108 $108 $107 $176 forward $67 $-1 #
coedge $-1 $109 $109 $68 $110 forward $104 $-1 #
edge $-1 $177 1.2560738066367263e-015 $177 6.2831853071796013 $109 $178 forward 7 unknown #
loop $-1 $-1 $116 $69 #
plane-surface $-1 -31.277745489051881 -11.446232082099712 40.327787050946611 0 0.70710678939079041 0.70710677298230451 1 0 0 forward_v I I I I #
loop $-1 $-1 $179 $44 #
coedge $-1 $114 $114 $115 $180 reversed $70 $-1 #
coedge $-1 $115 $115 $114 $180 forward $72 $-1 #
coedge $-1 $116 $116 $73 $117 forward $111 $-1 #
edge $-1 $181 1.2560738066367263e-015 $181 6.2831853071796013 $116 $182 forward 7 unknown #
face $-1 $183 $184 $25 $-1 $185 forward single #
loop $-1 $-1 $186 $74 #
plane-surface $-1 23.462323725608783 53.41932997186963 105.19334759970391 -1 0 0 0 0.70710678939079041 0.70710677298230451 forward_v I I I I #
coedge $-1 $187 $188 $189 $190 reversed $75 $-1 #
coedge $-1 $123 $77 $191 $192 reversed $48 $-1 #
coedge $-1 $77 $122 $187 $193 reversed $48 $-1 #
coedge $-1 $189 $194 $77 $125 forward $184 $-1 #
edge $-1 $195 -0.92398483940839782 $196 4.9323041155911014 $124 $197 forward 7 unknown #
loop $-1 $-1 $131 $78 #
plane-surface $-1 14.589132772613823 -11.446232082099712 40.327787050946611 0 0.70710678939079041 0.70710677298230451 1 0 0 forward_v I I I I #
loop $-1 $-1 $198 $50 #
coedge $-1 $129 $129 $130 $199 reversed $79 $-1 #
coedge $-1 $130 $130 $129 $199 forward $81 $-1 #
coedge $-1 $131 $131 $82 $132 forward $126 $-1 #
edge $-1 $200 1.2560738066367263e-015 $200 6.2831853071796013 $131 $201 forward 7 unknown #
loop $-1 $-1 $138 $83 #
plane-surface $-1 14.589132772613823 -11.446232082099712 40.327787050946611 0 0.70710678939079041 0.70710677298230451 1 0 0 forward_v I I I I #
loop $-1 $-1 $202 $53 #
coedge $-1 $136 $136 $137 $203 reversed $84 $-1 #
coedge $-1 $137 $137 $136 $203 forward $86 $-1 #
coedge $-1 $138 $138 $87 $139 forward $133 $-1 #
edge $-1 $204 1.2560738066367263e-015 $204 6.2831853071796013 $138 $205 forward 7 unknown #
face $-1 $206 $207 $21 $-1 $208 reversed single #
loop $-1 $-1 $209 $88 #
plane-surface $-1 -45.866878261665704 0 0 1 0 0 0 0 -1 forward_v I I I I #
coedge $-1 $210 $151 $211 $212 forward $89 $-1 #
coedge $-1 $213 $91 $210 $214 forward $57 $-1 #
coedge $-1 $91 $213 $215 $216 forward $57 $-1 #
coedge $-1 $154 $153 $91 $147 reversed $155 $-1 #
edge $-1 $217 -27.633649825343213 $218 27.633649825343213 $146 $219 forward 7 unknown #
coedge $-1 $93 $92 $220 $221 forward $36 $-1 #
coedge $-1 $222 $223 $92 $150 reversed $207 $-1 #
edge $-1 $157 -45.866878261665704 $224 45.866878261665704 $149 $225 forward 7 unknown #
coedge $-1 $143 $226 $93 $152 reversed $89 $-1 #
edge $-1 $227 -45.866878261665704 $156 45.866878261665704 $151 $228 forward 7 unknown #
coedge $-1 $146 $94 $226 $229 forward $155 $-1 #
coedge $-1 $94 $146 $222 $230 reversed $155 $-1 #
loop $-1 $-1 $153 $206 #
vertex $-1 $95 $231 #
vertex $-1 $95 $232 #
straight-curve $-1 45.866878261665704 0 7.1041933275462714 0 1 0 I I #
face $-1 $-1 $171 $22 $-1 $233 forward single #
loop $-1 $-1 $234 $96 #
plane-surface $-1 0 27.633649825343213 0 0 -1 0 0 0 -1 forward_v I I I I #
coedge $-1 $235 $236 $237 $238 reversed $97 $-1 #
coedge $-1 $239 $99 $101 $169 forward $61 $-1 #
coedge $-1 $99 $239 $235 $240 forward $61 $-1 #
coedge $-1 $237 $102 $99 $166 forward $171 $-1 #
edge $-1 $173 -24.512063697520901 $241 -6.7656817915309801 $165 $242 forward 7 unknown #
coedge $-1 $243 $244 $100 $168 forward $160 $-1 #
edge $-1 $245 -51.348769563200975 $172 -45.492480472305687 $167 $246 forward 7 unknown #
edge $-1 $173 46.985256289257556 $245 55.267299650686439 $101 $247 forward 7 unknown #
coedge $-1 $102 $237 $243 $248 forward $171 $-1 #
loop $-1 $-1 $237 $159 #
vertex $-1 $168 $249 #
vertex $-1 $103 $250 #
straight-curve $-1 -40.150936442046842 26.709664985934815 7.1041933275462696 0 -1 0 I I #
coedge $-1 $175 $175 $-1 $251 reversed $106 $-1 #
edge $-1 $252 0 $252 6.2831853071796004 $107 $253 forward 7 unknown #
vertex $-1 $110 $254 #
ellipse-curve $-1 -35.080541611764005 24.705505347843467 4.1760487820986265 0 0.70710678939079041 0.70710677298230451 1 0 0 1 I I #
coedge $-1 $179 $179 $-1 $255 reversed $113 $-1 #
edge $-1 $256 0 $256 6.2831853071796004 $114 $257 forward 7 unknown #
vertex $-1 $117 $258 #
ellipse-curve $-1 -27.474949366339754 24.705505347843467 4.1760487820986265 0 0.70710678939079041 0.70710677298230451 1 0 0 1 I I #
face $-1 $-1 $259 $25 $-1 $260 reversed single #
loop $-1 $-1 $124 $118 #
plane-surface $-1 0 0 7.1041933275462714 0 0 1 1 0 0 forward_v I I I I #
coedge $-1 $261 $262 $263 $264 reversed $119 $-1 #
coedge $-1 $265 $121 $123 $193 forward $75 $-1 #
coedge $-1 $121 $265 $261 $266 forward $75 $-1 #
coedge $-1 $263 $124 $121 $190 forward $184 $-1 #
edge $-1 $196 -1.5786245666880472 $267 16.167757339301872 $189 $268 forward 7 unknown #
coedge $-1 $269 $270 $122 $192 forward $259 $-1 #
edge $-1 $271 -51.348769563200975 $195 -45.492480472305687 $191 $272 forward 7 unknown #
edge $-1 $196 46.985256289257556 $271 55.267299650686439 $123 $273 forward 7 unknown #
coedge $-1 $124 $263 $269 $274 forward $184 $-1 #
vertex $-1 $125 $275 #
vertex $-1 $125 $276 #
straight-curve $-1 5.7159418196188643 26.709664985934815 7.1041933275462696 0 -1 0 I I #
coedge $-1 $198 $198 $-1 $277 reversed $128 $-1 #
edge $-1 $278 0 $278 6.2831853071796004 $129 $279 forward 7 unknown #
vertex $-1 $132 $280 #
ellipse-curve $-1 10.786336649901699 24.705505347843467 4.1760487820986265 0 0.70710678939079041 0.70710677298230451 1 0 0 1 I I #
coedge $-1 $202 $202 $-1 $281 reversed $135 $-1 #
edge $-1 $282 0 $282 6.2831853071796004 $136 $283 forward 7 unknown #
vertex $-1 $139 $284 #
ellipse-curve $-1 18.391928895325947 24.705505347843467 4.1760487820986265 0 0.70710678939079041 0.70710677298230451 1 0 0 1 I I #
face $-1 $-1 $155 $21 $-1 $285 reversed single #
loop $-1 $-1 $222 $140 #
plane-surface $-1 0 27.633649825343213 0 0 -1 0 0 0 -1 forward_v I I I I #
coedge $-1 $286 $220 $223 $287 forward $141 $-1 #
coedge $-1 $226 $143 $144 $214 reversed $89 $-1 #
coedge $-1 $220 $286 $143 $212 reversed $141 $-1 #
edge $-1 $227 -7.1041933275462714 $288 7.1041933275462714 $211 $289 forward 7 unknown #
coedge $-1 $145 $144 $286 $290 forward $57 $-1 #
edge $-1 $218 -45.866878261665704 $288 45.866878261665704 $210 $291 forward 7 unknown #
coedge $-1 $223 $222 $145 $216 reversed $207 $-1 #
edge $-1 $292 -45.866878261665704 $217 45.866878261665704 $215 $293 forward 7 unknown #
vertex $-1 $147 $294 #
vertex $-1 $229 $295 #
straight-curve $-1 45.866878261665704 0 -7.1041933275462714 0 -1 0 I I #
coedge $-1 $209 $211 $148 $221 reversed $141 $-1 #
edge $-1 $224 -27.633649825343213 $227 27.633649825343213 $220 $296 forward 7 unknown #
coedge $-1 $215 $149 $154 $230 forward $207 $-1 #
coedge $-1 $149 $215 $209 $287 reversed $207 $-1 #
vertex $-1 $150 $297 #
straight-curve $-1 0 27.633649825343213 7.1041933275462714 -1 0 0 I I #
coedge $-1 $151 $210 $153 $229 reversed $89 $-1 #
vertex $-1 $221 $298 #
straight-curve $-1 0 -27.633649825343213 7.1041933275462714 1 0 0 I I #
edge $-1 $156 -7.1041933275462714 $218 7.1041933275462714 $153 $299 forward 7 unknown #
edge $-1 $157 -7.1041933275462714 $217 7.1041933275462714 $154 $300 forward 7 unknown #
point $-1 45.866878261665704 -27.633649825343213 7.1041933275462714 #
point $-1 45.866878261665704 27.633649825343213 7.1041933275462714 #
plane-surface $-1 0 0 7.1041933275462714 0 0 1 1 0 0 forward_v I I I I #
coedge $-1 $244 $243 $236 $301 forward $160 $-1 #
coedge $-1 $236 $162 $164 $240 reversed $97 $-1 #
coedge $-1 $162 $235 $234 $301 reversed $97 $-1 #
coedge $-1 $170 $165 $162 $238 forward $171 $-1 #
edge $-1 $241 -4.9323041155911014 $302 0.92398483940839782 $237 $303 forward 7 unknown #
coedge $-1 $164 $163 $244 $304 reversed $61 $-1 #
edge $-1 $305 -55.267299650686439 $241 -46.985256289257556 $235 $306 forward 7 unknown #
vertex $-1 $166 $307 #
straight-curve $-1 -15.638872744525941 21.777360870343713 7.1041933275462696 1 0 0 I I #
coedge $-1 $234 $167 $170 $248 reversed $160 $-1 #
coedge $-1 $167 $234 $239 $304 forward $160 $-1 #
vertex $-1 $168 $308 #
straight-curve $-1 -40.150936442046842 27.633649825343213 52.596673799851956 0 0 1 I I #
straight-curve $-1 -40.150936442046842 -11.446232082099712 40.327787050946611 0 0.70710677298230451 -0.70710678939079041 I I #
edge $-1 $302 22.404554536056921 $172 40.150936442046842 $243 $309 forward 7 unknown #
point $-1 -40.150936442046842 27.633649825343213 7.1041933275462714 #
point $-1 -40.150936442046842 21.777360870343713 7.1041933275462696 #
edge $-1 $310 1 $310 0 $175 $-1 forward 7 unknown #
vertex $-1 $176 $311 #
ellipse-curve $-1 -35.080541611764005 23.910093831679191 3.3806372843919559 0 0.70710678939079041 0.70710677298230451 1 0 0 1 I I #
point $-1 -34.080541611764005 24.705505347843477 4.1760487820986354 #
edge $-1 $312 1 $312 0 $179 $-1 forward 7 unknown #
vertex $-1 $180 $313 #
ellipse-curve $-1 -27.474949366339754 23.910093831679191 3.3806372843919559 0 0.70710678939079041 0.70710677298230451 1 0 0 1 I I #
point $-1 -26.474949366339754 24.705505347843477 4.1760487820986354 #
loop $-1 $-1 $191 $183 #
plane-surface $-1 0 27.633649825343213 0 0 -1 0 0 0 -1 forward_v I I I I #
coedge $-1 $262 $186 $188 $266 reversed $119 $-1 #
coedge $-1 $186 $261 $314 $315 reversed $119 $-1 #
coedge $-1 $194 $189 $186 $264 forward $184 $-1 #
edge $-1 $267 -4.9323041155911014 $316 0.92398483940839782 $263 $317 forward 7 unknown #
coedge $-1 $188 $187 $270 $318 reversed $75 $-1 #
edge $-1 $319 -55.267299650686439 $267 -46.985256289257556 $261 $320 forward 7 unknown #
vertex $-1 $190 $321 #
straight-curve $-1 7.2945663863069115 21.777360870343713 7.1041933275462696 1 0 0 I I #
coedge $-1 $314 $191 $194 $274 reversed $259 $-1 #
coedge $-1 $191 $314 $265 $318 forward $259 $-1 #
vertex $-1 $192 $322 #
straight-curve $-1 5.7159418196188643 27.633649825343213 52.596673799851956 0 0 1 I I #
straight-curve $-1 5.7159418196188643 -11.446232082099712 40.327787050946611 0 0.70710677298230451 -0.70710678939079041 I I #
edge $-1 $316 -23.462323725608783 $195 -5.7159418196188643 $269 $323 forward 7 unknown #
point $-1 5.7159418196188643 27.633649825343213 7.1041933275462714 #
point $-1 5.7159418196188643 21.777360870343713 7.1041933275462696 #
edge $-1 $324 1 $324 0 $198 $-1 forward 7 unknown #
vertex $-1 $199 $325 #
ellipse-curve $-1 10.786336649901699 23.910093831679191 3.3806372843919559 0 0.70710678939079041 0.70710677298230451 1 0 0 1 I I #
point $-1 11.786336649901699 24.705505347843477 4.1760487820986354 #
edge $-1 $326 1 $326 0 $202 $-1 forward 7 unknown #
vertex $-1 $203 $327 #
ellipse-curve $-1 18.391928895325947 23.910093831679191 3.3806372843919559 0 0.70710678939079041 0.70710677298230451 1 0 0 1 I I #
point $-1 19.391928895325947 24.705505347843477 4.1760487820986354 #
plane-surface $-1 45.866878261665704 0 0 -1 0 0 0 0 1 forward_v I I I I #
coedge $-1 $211 $209 $213 $290 reversed $141 $-1 #
edge $-1 $224 -7.1041933275462714 $292 7.1041933275462714 $223 $328 forward 7 unknown #
vertex $-1 $290 $329 #
straight-curve $-1 -45.866878261665704 -27.633649825343213 0 0 0 -1 I I #
edge $-1 $288 -27.633649825343213 $292 27.633649825343213 $286 $330 forward 7 unknown #
straight-curve $-1 0 -27.633649825343213 -7.1041933275462714 -1 0 0 I I #
vertex $-1 $216 $331 #
straight-curve $-1 0 27.633649825343213 -7.1041933275462714 1 0 0 I I #
point $-1 45.866878261665704 27.633649825343213 -7.1041933275462714 #
point $-1 45.866878261665704 -27.633649825343213 -7.1041933275462714 #
straight-curve $-1 -45.866878261665704 0 7.1041933275462714 0 -1 0 I I #
point $-1 -45.866878261665704 27.633649825343213 7.1041933275462714 #
point $-1 -45.866878261665704 -27.633649825343213 7.1041933275462714 #
straight-curve $-1 45.866878261665704 -27.633649825343213 0 0 0 -1 I I #
straight-curve $-1 45.866878261665704 27.633649825343213 0 0 0 -1 I I #
edge $-1 $302 45.492480472305687 $305 51.348769563200975 $234 $332 forward 7 unknown #
vertex $-1 $248 $333 #
straight-curve $-1 -22.404554536056921 26.709664985934815 7.1041933275462696 0 1 0 I I #
edge $-1 $305 6.7656817915309801 $245 24.512063697520901 $244 $334 forward 7 unknown #
vertex $-1 $304 $335 #
straight-curve $-1 -22.404554536056921 -11.446232082099712 40.327787050946611 0 -0.70710677298230451 0.70710678939079041 I I #
point $-1 -22.404554536056921 21.777360870343713 7.1041933275462696 #
point $-1 -40.150936442046842 27.633649825343213 1.2479042366509816 #
straight-curve $-1 0 27.633649825343213 7.1041933275462714 -1 0 0 I I #
vertex $-1 $251 $336 #
point $-1 -34.080541611764005 23.910093831679191 3.3806372843919559 #
vertex $-1 $255 $337 #
point $-1 -26.474949366339754 23.910093831679191 3.3806372843919559 #
coedge $-1 $270 $269 $262 $315 forward $259 $-1 #
edge $-1 $316 45.492480472305687 $319 51.348769563200975 $314 $338 forward 7 unknown #
vertex $-1 $274 $339 #
straight-curve $-1 23.462323725608783 26.709664985934815 7.1041933275462696 0 1 0 I I #
edge $-1 $319 -16.167757339301872 $271 1.5786245666880472 $270 $340 forward 7 unknown #
vertex $-1 $318 $341 #
straight-curve $-1 23.462323725608783 -11.446232082099712 40.327787050946611 0 -0.70710677298230451 0.70710678939079041 I I #
point $-1 23.462323725608783 21.777360870343713 7.1041933275462696 #
point $-1 5.7159418196188643 27.633649825343213 1.2479042366509816 #
straight-curve $-1 0 27.633649825343213 7.1041933275462714 -1 0 0 I I #
vertex $-1 $277 $342 #
point $-1 11.786336649901699 23.910093831679191 3.3806372843919559 #
vertex $-1 $281 $343 #
point $-1 19.391928895325947 23.910093831679191 3.3806372843919559 #
straight-curve $-1 -45.866878261665704 27.633649825343213 0 0 0 -1 I I #
point $-1 -45.866878261665704 -27.633649825343213 -7.1041933275462714 #
straight-curve $-1 -45.866878261665704 0 -7.1041933275462714 0 1 0 I I #
point $-1 -45.866878261665704 27.633649825343213 -7.1041933275462714 #
straight-curve $-1 -22.404554536056921 27.633649825343213 52.596673799851956 0 0 -1 I I #
point $-1 -22.404554536056921 27.633649825343213 7.1041933275462714 #
straight-curve $-1 -15.638872744525941 27.633649825343213 1.2479042366509816 -1 0 0 I I #
point $-1 -22.404554536056921 27.633649825343213 1.2479042366509816 #
point $-1 -35.080541611764005 23.202987042288399 2.6735305114096515 #
point $-1 -27.474949366339754 23.202987042288399 2.6735305114096515 #
straight-curve $-1 23.462323725608783 27.633649825343213 52.596673799851956 0 0 -1 I I #
point $-1 23.462323725608783 27.633649825343213 7.1041933275462714 #
straight-curve $-1 7.2945663863069115 27.633649825343213 1.2479042366509816 -1 0 0 I I #
point $-1 23.462323725608783 27.633649825343213 1.2479042366509816 #
point $-1 10.786336649901699 23.202987042288399 2.6735305114096515 #
point $-1 18.391928895325947 23.202987042288399 2.6735305114096515 #
End-of-ACIS-data 