500 0 20 0           
7 Unknown 11 ACIS 5.0 NT 24 Fri Mar 26 02:23:02 1999 
-1 9.9999999999999995e-007 1e-010 
body $-1 $20 $-1 $21 #
body $-1 $22 $-1 $23 #
body $-1 $24 $-1 $25 #
body $-1 $26 $-1 $27 #
body $-1 $28 $-1 $29 #
body $-1 $30 $-1 $31 #
body $-1 $32 $-1 $33 #
body $-1 $34 $-1 $35 #
body $-1 $36 $-1 $37 #
body $-1 $38 $-1 $39 #
body $-1 $40 $-1 $41 #
body $-1 $42 $-1 $43 #
body $-1 $44 $-1 $45 #
body $-1 $46 $-1 $47 #
body $-1 $48 $-1 $49 #
body $-1 $50 $-1 $51 #
body $-1 $52 $-1 $53 #
body $-1 $54 $-1 $55 #
body $-1 $56 $-1 $57 #
body $-1 $58 $-1 $59 #
lump $-1 $-1 $60 $0 #
transform $-1 1 0 0 0 1 0 0 0 1 76.058229316080201 39.683422346677155 17.800922117386378 1 rotate no_reflect no_shear #
lump $-1 $-1 $61 $1 #
transform $-1 1 0 0 0 1 0 0 0 1 76.058229316080201 -6.0623637857023063 4.1445080863621122 1 rotate no_reflect no_shear #
lump $-1 $-1 $62 $2 #
transform $-1 0.51503806187062418 0 0.85716730853699208 0 1 0 -0.85716730853699208 0 0.51503806187062418 -130.38925542990762 24.87801788478053 107.15286107732094 1 rotate no_reflect no_shear #
lump $-1 $-1 $63 $3 #
transform $-1 0.51503806187062418 0 0.85716730853699208 0 -1 0 0.85716730853699208 0 -0.51503806187062418 3.2195252198141162 23.139201184589883 31.496549690135584 1 rotate no_reflect no_shear #
lump $-1 $-1 $64 $4 #
transform $-1 0.51503806187062418 0 0.85716730853699208 0 -1 0 0.85716730853699208 0 -0.51503806187062418 3.2195252198141162 26.616834584971173 31.496549690135584 1 rotate no_reflect no_shear #
lump $-1 $-1 $65 $5 #
transform $-1 0.51503806187062418 0 0.85716730853699208 0 1 0 -0.85716730853699208 0 0.51503806187062418 -130.38925542990762 38.789863383179814 107.15286107732094 1 rotate no_reflect no_shear #
lump $-1 $-1 $66 $6 #
transform $-1 0.51503806187062418 0 0.85716730853699208 0 -1 0 0.85716730853699208 0 -0.51503806187062418 3.2195252198141162 37.051046682989167 31.496549690135584 1 rotate no_reflect no_shear #
lump $-1 $-1 $67 $7 #
transform $-1 0.51503806187062418 0 0.85716730853699208 0 -1 0 0.85716730853699208 0 -0.51503806187062418 3.2195252198141162 40.52868008337046 31.496549690135584 1 rotate no_reflect no_shear #
lump $-1 $-1 $68 $8 #
transform $-1 0.51503806187062418 0 0.85716730853699208 0 1 0 -0.85716730853699208 0 0.51503806187062418 -130.38925542990762 52.701708881579101 107.15286107732094 1 rotate no_reflect no_shear #
lump $-1 $-1 $69 $9 #
transform $-1 0.51503806187062418 0 0.85716730853699208 0 -1 0 0.85716730853699208 0 -0.51503806187062418 3.2195252198141162 50.962892181388455 31.496549690135584 1 rotate no_reflect no_shear #
lump $-1 $-1 $70 $10 #
transform $-1 0.51503806187062418 0 0.85716730853699208 0 -1 0 0.85716730853699208 0 -0.51503806187062418 3.2195252198141162 54.440525581769748 31.496549690135584 1 rotate no_reflect no_shear #
lump $-1 $-1 $71 $11 #
transform $-1 0.51503806187062418 0 0.85716730853699208 0 1 0 -0.85716730853699208 0 0.51503806187062418 -130.38925542990762 66.613554379978382 107.15286107732094 1 rotate no_reflect no_shear #
lump $-1 $-1 $72 $12 #
transform $-1 0.51503806187062418 0 0.85716730853699208 0 -1 0 0.85716730853699208 0 -0.51503806187062418 3.2195252198141162 64.874737679787742 31.496549690135584 1 rotate no_reflect no_shear #
lump $-1 $-1 $73 $13 #
transform $-1 0.51503806187062418 0 0.85716730853699208 0 -1 0 0.85716730853699208 0 -0.51503806187062418 3.2195252198141162 68.352371080169036 31.496549690135584 1 rotate no_reflect no_shear #
lump $-1 $-1 $74 $14 #
transform $-1 0.69465836192734942 0 -0.71933980857756763 0 1 0 0.71933980857756763 0 0.69465836192734942 155.8709128905102 26.126529587306607 247.57498909471474 1 rotate no_reflect no_shear #
lump $-1 $-1 $75 $15 #
transform $-1 0.69465836192734942 0 -0.71933980857756763 0 -1 0 -0.71933980857756763 0 -0.69465836192734942 149.80108934188252 24.098835394143915 33.260728902794625 1 rotate no_reflect no_shear #
lump $-1 $-1 $76 $16 #
transform $-1 0.69465836192734942 0 -0.71933980857756763 0 -1 0 -0.71933980857756763 0 -0.69465836192734942 149.80108934188252 28.154223780469298 33.260728902794625 1 rotate no_reflect no_shear #
lump $-1 $-1 $77 $17 #
transform $-1 0.69465836192734942 0 -0.71933980857756763 0 1 0 0.71933980857756763 0 0.69465836192734942 155.8709128905102 59.747588148281451 247.57498909471474 1 rotate no_reflect no_shear #
lump $-1 $-1 $78 $18 #
transform $-1 0.69465836192734942 0 -0.71933980857756763 0 -1 0 -0.71933980857756763 0 -0.69465836192734942 149.80108934188252 57.719893955118764 33.260728902794625 1 rotate no_reflect no_shear #
lump $-1 $-1 $79 $19 #
transform $-1 0.69465836192734942 0 -0.71933980857756763 0 -1 0 -0.71933980857756763 0 -0.69465836192734942 149.80108934188252 61.775282341444139 33.260728902794625 1 rotate no_reflect no_shear #
shell $-1 $-1 $-1 $80 $-1 $20 #
shell $-1 $-1 $-1 $81 $-1 $22 #
shell $-1 $-1 $-1 $82 $-1 $24 #
shell $-1 $-1 $-1 $83 $-1 $26 #
shell $-1 $-1 $-1 $84 $-1 $28 #
shell $-1 $-1 $-1 $85 $-1 $30 #
shell $-1 $-1 $-1 $86 $-1 $32 #
shell $-1 $-1 $-1 $87 $-1 $34 #
shell $-1 $-1 $-1 $88 $-1 $36 #
shell $-1 $-1 $-1 $89 $-1 $38 #
shell $-1 $-1 $-1 $90 $-1 $40 #
shell $-1 $-1 $-1 $91 $-1 $42 #
shell $-1 $-1 $-1 $92 $-1 $44 #
shell $-1 $-1 $-1 $93 $-1 $46 #
shell $-1 $-1 $-1 $94 $-1 $48 #
shell $-1 $-1 $-1 $95 $-1 $50 #
shell $-1 $-1 $-1 $96 $-1 $52 #
shell $-1 $-1 $-1 $97 $-1 $54 #
shell $-1 $-1 $-1 $98 $-1 $56 #
shell $-1 $-1 $-1 $99 $-1 $58 #
face $-1 $100 $101 $60 $-1 $102 forward single #
face $-1 $103 $104 $61 $-1 $105 forward single #
face $-1 $106 $107 $62 $-1 $108 forward single #
face $-1 $109 $110 $63 $-1 $111 forward single #
face $-1 $112 $113 $64 $-1 $114 forward single #
face $-1 $115 $116 $65 $-1 $117 forward single #
face $-1 $118 $119 $66 $-1 $120 forward single #
face $-1 $121 $122 $67 $-1 $123 forward single #
face $-1 $124 $125 $68 $-1 $126 forward single #
face $-1 $127 $128 $69 $-1 $129 forward single #
face $-1 $130 $131 $70 $-1 $132 forward single #
face $-1 $133 $134 $71 $-1 $135 forward single #
face $-1 $136 $137 $72 $-1 $138 forward single #
face $-1 $139 $140 $73 $-1 $141 forward single #
face $-1 $142 $143 $74 $-1 $144 forward single #
face $-1 $145 $146 $75 $-1 $147 forward single #
face $-1 $148 $149 $76 $-1 $150 forward single #
face $-1 $151 $152 $77 $-1 $153 forward single #
face $-1 $154 $155 $78 $-1 $156 forward single #
face $-1 $157 $158 $79 $-1 $159 forward single #
face $-1 $160 $161 $60 $-1 $162 reversed single #
loop $-1 $-1 $163 $80 #
plane-surface $-1 0 0 17.800922117386378 0 0 1 1 0 0 forward_v I I I I #
face $-1 $164 $165 $61 $-1 $166 reversed single #
loop $-1 $-1 $167 $81 #
plane-surface $-1 0 0 2.2304527706947006 0 0 1 1 0 0 forward_v I I I I #
face $-1 $168 $169 $62 $-1 $170 reversed single #
loop $-1 $-1 $171 $82 #
plane-surface $-1 0 0 152.1164586321604 0 0 1 1 0 0 forward_v I I I I #
face $-1 $172 $173 $63 $-1 $174 forward single #
loop $-1 $175 $176 $83 #
cone-surface $-1 0 0 -0.81225012970366706 0 0 1 0.5 0 0 1 I I 0 1 0.5 forward I I I I #
face $-1 $177 $178 $64 $-1 $179 forward single #
loop $-1 $180 $181 $84 #
cone-surface $-1 0 0 -0.81225012970366706 0 0 1 0.5 0 0 1 I I 0 1 0.5 forward I I I I #
face $-1 $182 $183 $65 $-1 $184 reversed single #
loop $-1 $-1 $185 $85 #
plane-surface $-1 0 0 152.1164586321604 0 0 1 1 0 0 forward_v I I I I #
face $-1 $186 $187 $66 $-1 $188 forward single #
loop $-1 $189 $190 $86 #
cone-surface $-1 0 0 -0.81225012970366706 0 0 1 0.5 0 0 1 I I 0 1 0.5 forward I I I I #
face $-1 $191 $192 $67 $-1 $193 forward single #
loop $-1 $194 $195 $87 #
cone-surface $-1 0 0 -0.81225012970366706 0 0 1 0.5 0 0 1 I I 0 1 0.5 forward I I I I #
face $-1 $196 $197 $68 $-1 $198 reversed single #
loop $-1 $-1 $199 $88 #
plane-surface $-1 0 0 152.1164586321604 0 0 1 1 0 0 forward_v I I I I #
face $-1 $200 $201 $69 $-1 $202 forward single #
loop $-1 $203 $204 $89 #
cone-surface $-1 0 0 -0.81225012970366706 0 0 1 0.5 0 0 1 I I 0 1 0.5 forward I I I I #
face $-1 $205 $206 $70 $-1 $207 forward single #
loop $-1 $208 $209 $90 #
cone-surface $-1 0 0 -0.81225012970366706 0 0 1 0.5 0 0 1 I I 0 1 0.5 forward I I I I #
face $-1 $210 $211 $71 $-1 $212 reversed single #
loop $-1 $-1 $213 $91 #
plane-surface $-1 0 0 152.1164586321604 0 0 1 1 0 0 forward_v I I I I #
face $-1 $214 $215 $72 $-1 $216 forward single #
loop $-1 $217 $218 $92 #
cone-surface $-1 0 0 -0.81225012970366706 0 0 1 0.5 0 0 1 I I 0 1 0.5 forward I I I I #
face $-1 $219 $220 $73 $-1 $221 forward single #
loop $-1 $222 $223 $93 #
cone-surface $-1 0 0 -0.81225012970366706 0 0 1 0.5 0 0 1 I I 0 1 0.5 forward I I I I #
face $-1 $224 $225 $74 $-1 $226 reversed single #
loop $-1 $-1 $227 $94 #
plane-surface $-1 0 0 152.1164586321604 0 0 1 1 0 0 forward_v I I I I #
face $-1 $228 $229 $75 $-1 $230 forward single #
loop $-1 $231 $232 $95 #
cone-surface $-1 0 0 -0.625 0 0 1 0.25 0 0 1 I I 0 1 0.25 forward I I I I #
face $-1 $233 $234 $76 $-1 $235 forward single #
loop $-1 $236 $237 $96 #
cone-surface $-1 0 0 -0.625 0 0 1 0.25 0 0 1 I I 0 1 0.25 forward I I I I #
face $-1 $238 $239 $77 $-1 $240 reversed single #
loop $-1 $-1 $241 $97 #
plane-surface $-1 0 0 152.1164586321604 0 0 1 1 0 0 forward_v I I I I #
face $-1 $242 $243 $78 $-1 $244 forward single #
loop $-1 $245 $246 $98 #
cone-surface $-1 0 0 -0.625 0 0 1 0.25 0 0 1 I I 0 1 0.25 forward I I I I #
face $-1 $247 $248 $79 $-1 $249 forward single #
loop $-1 $250 $251 $99 #
cone-surface $-1 0 0 -0.625 0 0 1 0.25 0 0 1 I I 0 1 0.25 forward I I I I #
face $-1 $252 $253 $60 $-1 $254 reversed single #
loop $-1 $-1 $255 $100 #
plane-surface $-1 0 0 -17.800922117386378 0 0 1 1 0 0 forward_v I I I I #
coedge $-1 $256 $257 $258 $259 forward $101 $-1 #
face $-1 $260 $261 $61 $-1 $262 reversed single #
loop $-1 $-1 $263 $103 #
plane-surface $-1 0 0 -2.2304527706947006 0 0 1 1 0 0 forward_v I I I I #
coedge $-1 $264 $265 $266 $267 forward $104 $-1 #
face $-1 $268 $269 $62 $-1 $270 reversed single #
loop $-1 $-1 $271 $106 #
plane-surface $-1 0 0 -152.1164586321604 0 0 1 1 0 0 forward_v I I I I #
coedge $-1 $272 $273 $274 $275 forward $107 $-1 #
face $-1 $-1 $276 $63 $-1 $277 forward single #
loop $-1 $-1 $278 $109 #
plane-surface $-1 0 0 -1.3745002594073323 0 0 -1 -1 0 0 forward_v I I I I #
loop $-1 $-1 $279 $83 #
coedge $-1 $176 $176 $278 $280 reversed $110 $-1 #
face $-1 $-1 $281 $64 $-1 $282 forward single #
loop $-1 $-1 $283 $112 #
plane-surface $-1 0 0 -1.3745002594073323 0 0 -1 -1 0 0 forward_v I I I I #
loop $-1 $-1 $284 $84 #
coedge $-1 $181 $181 $283 $285 reversed $113 $-1 #
face $-1 $286 $287 $65 $-1 $288 reversed single #
loop $-1 $-1 $289 $115 #
plane-surface $-1 0 0 -152.1164586321604 0 0 1 1 0 0 forward_v I I I I #
coedge $-1 $290 $291 $292 $293 forward $116 $-1 #
face $-1 $-1 $294 $66 $-1 $295 forward single #
loop $-1 $-1 $296 $118 #
plane-surface $-1 0 0 -1.3745002594073323 0 0 -1 -1 0 0 forward_v I I I I #
loop $-1 $-1 $297 $86 #
coedge $-1 $190 $190 $296 $298 reversed $119 $-1 #
face $-1 $-1 $299 $67 $-1 $300 forward single #
loop $-1 $-1 $301 $121 #
plane-surface $-1 0 0 -1.3745002594073323 0 0 -1 -1 0 0 forward_v I I I I #
loop $-1 $-1 $302 $87 #
coedge $-1 $195 $195 $301 $303 reversed $122 $-1 #
face $-1 $304 $305 $68 $-1 $306 reversed single #
loop $-1 $-1 $307 $124 #
plane-surface $-1 0 0 -152.1164586321604 0 0 1 1 0 0 forward_v I I I I #
coedge $-1 $308 $309 $310 $311 forward $125 $-1 #
face $-1 $-1 $312 $69 $-1 $313 forward single #
loop $-1 $-1 $314 $127 #
plane-surface $-1 0 0 -1.3745002594073323 0 0 -1 -1 0 0 forward_v I I I I #
loop $-1 $-1 $315 $89 #
coedge $-1 $204 $204 $314 $316 reversed $128 $-1 #
face $-1 $-1 $317 $70 $-1 $318 forward single #
loop $-1 $-1 $319 $130 #
plane-surface $-1 0 0 -1.3745002594073323 0 0 -1 -1 0 0 forward_v I I I I #
loop $-1 $-1 $320 $90 #
coedge $-1 $209 $209 $319 $321 reversed $131 $-1 #
face $-1 $322 $323 $71 $-1 $324 reversed single #
loop $-1 $-1 $325 $133 #
plane-surface $-1 0 0 -152.1164586321604 0 0 1 1 0 0 forward_v I I I I #
coedge $-1 $326 $327 $328 $329 forward $134 $-1 #
face $-1 $-1 $330 $72 $-1 $331 forward single #
loop $-1 $-1 $332 $136 #
plane-surface $-1 0 0 -1.3745002594073323 0 0 -1 -1 0 0 forward_v I I I I #
loop $-1 $-1 $333 $92 #
coedge $-1 $218 $218 $332 $334 reversed $137 $-1 #
face $-1 $-1 $335 $73 $-1 $336 forward single #
loop $-1 $-1 $337 $139 #
plane-surface $-1 0 0 -1.3745002594073323 0 0 -1 -1 0 0 forward_v I I I I #
loop $-1 $-1 $338 $93 #
coedge $-1 $223 $223 $337 $339 reversed $140 $-1 #
face $-1 $340 $341 $74 $-1 $342 reversed single #
loop $-1 $-1 $343 $142 #
plane-surface $-1 0 0 -152.1164586321604 0 0 1 1 0 0 forward_v I I I I #
coedge $-1 $344 $345 $346 $347 forward $143 $-1 #
face $-1 $-1 $348 $75 $-1 $349 forward single #
loop $-1 $-1 $350 $145 #
plane-surface $-1 0 0 -1.125 0 0 -1 -1 0 0 forward_v I I I I #
loop $-1 $-1 $351 $95 #
coedge $-1 $232 $232 $350 $352 reversed $146 $-1 #
face $-1 $-1 $353 $76 $-1 $354 forward single #
loop $-1 $-1 $355 $148 #
plane-surface $-1 0 0 -1.125 0 0 -1 -1 0 0 forward_v I I I I #
loop $-1 $-1 $356 $96 #
coedge $-1 $237 $237 $355 $357 reversed $149 $-1 #
face $-1 $358 $359 $77 $-1 $360 reversed single #
loop $-1 $-1 $361 $151 #
plane-surface $-1 0 0 -152.1164586321604 0 0 1 1 0 0 forward_v I I I I #
coedge $-1 $362 $363 $364 $365 forward $152 $-1 #
face $-1 $-1 $366 $78 $-1 $367 forward single #
loop $-1 $-1 $368 $154 #
plane-surface $-1 0 0 -1.125 0 0 -1 -1 0 0 forward_v I I I I #
loop $-1 $-1 $369 $98 #
coedge $-1 $246 $246 $368 $370 reversed $155 $-1 #
face $-1 $-1 $371 $79 $-1 $372 forward single #
loop $-1 $-1 $373 $157 #
plane-surface $-1 0 0 -1.125 0 0 -1 -1 0 0 forward_v I I I I #
loop $-1 $-1 $374 $99 #
coedge $-1 $251 $251 $373 $375 reversed $158 $-1 #
face $-1 $376 $377 $60 $-1 $378 reversed single #
loop $-1 $-1 $379 $160 #
plane-surface $-1 0 -39.683422346677155 0 0 1 0 0 0 1 forward_v I I I I #
coedge $-1 $380 $381 $382 $383 forward $161 $-1 #
coedge $-1 $384 $163 $385 $386 forward $101 $-1 #
coedge $-1 $163 $384 $387 $388 forward $101 $-1 #
coedge $-1 $389 $390 $163 $259 reversed $391 $-1 #
edge $-1 $392 -39.683422346677155 $393 39.683422346677155 $258 $394 forward 7 unknown #
face $-1 $395 $396 $61 $-1 $397 reversed single #
loop $-1 $-1 $398 $164 #
plane-surface $-1 0 -6.0623637857023063 0 0 1 0 0 0 1 forward_v I I I I #
coedge $-1 $399 $400 $401 $402 forward $165 $-1 #
coedge $-1 $403 $167 $404 $405 forward $104 $-1 #
coedge $-1 $167 $403 $406 $407 forward $104 $-1 #
coedge $-1 $408 $409 $167 $267 reversed $410 $-1 #
edge $-1 $411 -6.0623637857023063 $412 6.0623637857023063 $266 $413 forward 7 unknown #
face $-1 $414 $415 $62 $-1 $416 reversed single #
loop $-1 $-1 $417 $168 #
plane-surface $-1 0 -4.0572389671115054 0 0 1 0 0 0 1 forward_v I I I I #
coedge $-1 $418 $419 $420 $421 forward $169 $-1 #
coedge $-1 $422 $171 $423 $424 forward $107 $-1 #
coedge $-1 $171 $422 $425 $426 forward $107 $-1 #
coedge $-1 $427 $428 $171 $275 reversed $429 $-1 #
edge $-1 $430 -4.0572389671115054 $431 4.0572389671115054 $274 $432 forward 7 unknown #
loop $-1 $433 $434 $172 #
cone-surface $-1 0 0 0 0 0 1 0.25 0 0 1 I I -0.70710678118654746 0.70710678118654746 0.25 forward I I I I #
coedge $-1 $278 $278 $176 $280 forward $173 $-1 #
coedge $-1 $279 $279 $434 $435 forward $175 $-1 #
edge $-1 $436 0 $436 6.2831853071796004 $278 $437 forward 7 unknown #
loop $-1 $438 $439 $177 #
cone-surface $-1 0 0 0 0 0 1 0.25 0 0 1 I I -0.70710678118654746 0.70710678118654746 0.25 forward I I I I #
coedge $-1 $283 $283 $181 $285 forward $178 $-1 #
coedge $-1 $284 $284 $439 $440 forward $180 $-1 #
edge $-1 $441 0 $441 6.2831853071796004 $283 $442 forward 7 unknown #
face $-1 $443 $444 $65 $-1 $445 reversed single #
loop $-1 $-1 $446 $182 #
plane-surface $-1 0 -4.0572389671115054 0 0 1 0 0 0 1 forward_v I I I I #
coedge $-1 $447 $448 $449 $450 forward $183 $-1 #
coedge $-1 $451 $185 $452 $453 forward $116 $-1 #
coedge $-1 $185 $451 $454 $455 forward $116 $-1 #
coedge $-1 $456 $457 $185 $293 reversed $458 $-1 #
edge $-1 $459 -4.0572389671115054 $460 4.0572389671115054 $292 $461 forward 7 unknown #
loop $-1 $462 $463 $186 #
cone-surface $-1 0 0 0 0 0 1 0.25 0 0 1 I I -0.70710678118654746 0.70710678118654746 0.25 forward I I I I #
coedge $-1 $296 $296 $190 $298 forward $187 $-1 #
coedge $-1 $297 $297 $463 $464 forward $189 $-1 #
edge $-1 $465 0 $465 6.2831853071796004 $296 $466 forward 7 unknown #
loop $-1 $467 $468 $191 #
cone-surface $-1 0 0 0 0 0 1 0.25 0 0 1 I I -0.70710678118654746 0.70710678118654746 0.25 forward I I I I #
coedge $-1 $301 $301 $195 $303 forward $192 $-1 #
coedge $-1 $302 $302 $468 $469 forward $194 $-1 #
edge $-1 $470 0 $470 6.2831853071796004 $301 $471 forward 7 unknown #
face $-1 $472 $473 $68 $-1 $474 reversed single #
loop $-1 $-1 $475 $196 #
plane-surface $-1 0 -4.0572389671115054 0 0 1 0 0 0 1 forward_v I I I I #
coedge $-1 $476 $477 $478 $479 forward $197 $-1 #
coedge $-1 $480 $199 $481 $482 forward $125 $-1 #
coedge $-1 $199 $480 $483 $484 forward $125 $-1 #
coedge $-1 $485 $486 $199 $311 reversed $487 $-1 #
edge $-1 $488 -4.0572389671115054 $489 4.0572389671115054 $310 $490 forward 7 unknown #
loop $-1 $491 $492 $200 #
cone-surface $-1 0 0 0 0 0 1 0.25 0 0 1 I I -0.70710678118654746 0.70710678118654746 0.25 forward I I I I #
coedge $-1 $314 $314 $204 $316 forward $201 $-1 #
coedge $-1 $315 $315 $492 $493 forward $203 $-1 #
edge $-1 $494 0 $494 6.2831853071796004 $314 $495 forward 7 unknown #
loop $-1 $496 $497 $205 #
cone-surface $-1 0 0 0 0 0 1 0.25 0 0 1 I I -0.70710678118654746 0.70710678118654746 0.25 forward I I I I #
coedge $-1 $319 $319 $209 $321 forward $206 $-1 #
coedge $-1 $320 $320 $497 $498 forward $208 $-1 #
edge $-1 $499 0 $499 6.2831853071796004 $319 $500 forward 7 unknown #
face $-1 $501 $502 $71 $-1 $503 reversed single #
loop $-1 $-1 $504 $210 #
plane-surface $-1 0 -4.0572389671115054 0 0 1 0 0 0 1 forward_v I I I I #
coedge $-1 $505 $506 $507 $508 forward $211 $-1 #
coedge $-1 $509 $213 $510 $511 forward $134 $-1 #
coedge $-1 $213 $509 $512 $513 forward $134 $-1 #
coedge $-1 $514 $515 $213 $329 reversed $516 $-1 #
edge $-1 $517 -4.0572389671115054 $518 4.0572389671115054 $328 $519 forward 7 unknown #
loop $-1 $520 $521 $214 #
cone-surface $-1 0 0 0 0 0 1 0.25 0 0 1 I I -0.70710678118654746 0.70710678118654746 0.25 forward I I I I #
coedge $-1 $332 $332 $218 $334 forward $215 $-1 #
coedge $-1 $333 $333 $521 $522 forward $217 $-1 #
edge $-1 $523 0 $523 6.2831853071796004 $332 $524 forward 7 unknown #
loop $-1 $525 $526 $219 #
cone-surface $-1 0 0 0 0 0 1 0.25 0 0 1 I I -0.70710678118654746 0.70710678118654746 0.25 forward I I I I #
coedge $-1 $337 $337 $223 $339 forward $220 $-1 #
coedge $-1 $338 $338 $526 $527 forward $222 $-1 #
edge $-1 $528 0 $528 6.2831853071796004 $337 $529 forward 7 unknown #
face $-1 $530 $531 $74 $-1 $532 reversed single #
loop $-1 $-1 $533 $224 #
plane-surface $-1 0 -4.7312864507129468 0 0 1 0 0 0 1 forward_v I I I I #
coedge $-1 $534 $535 $536 $537 forward $225 $-1 #
coedge $-1 $538 $227 $539 $540 forward $143 $-1 #
coedge $-1 $227 $538 $541 $542 forward $143 $-1 #
coedge $-1 $543 $544 $227 $347 reversed $545 $-1 #
edge $-1 $546 -4.7312864507129468 $547 4.7312864507129468 $346 $548 forward 7 unknown #
loop $-1 $549 $550 $228 #
cone-surface $-1 0 0 0 0 0 1 0.125 0 0 1 I I -0.70710678118654746 0.70710678118654746 0.125 forward I I I I #
coedge $-1 $350 $350 $232 $352 forward $229 $-1 #
coedge $-1 $351 $351 $550 $551 forward $231 $-1 #
edge $-1 $552 0 $552 6.2831853071796004 $350 $553 forward 7 unknown #
loop $-1 $554 $555 $233 #
cone-surface $-1 0 0 0 0 0 1 0.125 0 0 1 I I -0.70710678118654746 0.70710678118654746 0.125 forward I I I I #
coedge $-1 $355 $355 $237 $357 forward $234 $-1 #
coedge $-1 $356 $356 $555 $556 forward $236 $-1 #
edge $-1 $557 0 $557 6.2831853071796004 $355 $558 forward 7 unknown #
face $-1 $559 $560 $77 $-1 $561 reversed single #
loop $-1 $-1 $562 $238 #
plane-surface $-1 0 -4.7312864507129468 0 0 1 0 0 0 1 forward_v I I I I #
coedge $-1 $563 $564 $565 $566 forward $239 $-1 #
coedge $-1 $567 $241 $568 $569 forward $152 $-1 #
coedge $-1 $241 $567 $570 $571 forward $152 $-1 #
coedge $-1 $572 $573 $241 $365 reversed $574 $-1 #
edge $-1 $575 -4.7312864507129468 $576 4.7312864507129468 $364 $577 forward 7 unknown #
loop $-1 $578 $579 $242 #
cone-surface $-1 0 0 0 0 0 1 0.125 0 0 1 I I -0.70710678118654746 0.70710678118654746 0.125 forward I I I I #
coedge $-1 $368 $368 $246 $370 forward $243 $-1 #
coedge $-1 $369 $369 $579 $580 forward $245 $-1 #
edge $-1 $581 0 $581 6.2831853071796004 $368 $582 forward 7 unknown #
loop $-1 $583 $584 $247 #
cone-surface $-1 0 0 0 0 0 1 0.125 0 0 1 I I -0.70710678118654746 0.70710678118654746 0.125 forward I I I I #
coedge $-1 $373 $373 $251 $375 forward $248 $-1 #
coedge $-1 $374 $374 $584 $585 forward $250 $-1 #
edge $-1 $586 0 $586 6.2831853071796004 $373 $587 forward 7 unknown #
face $-1 $588 $589 $60 $-1 $590 reversed single #
loop $-1 $-1 $591 $252 #
plane-surface $-1 -76.058229316080201 0 0 1 0 0 0 0 -1 forward_v I I I I #
coedge $-1 $592 $387 $593 $594 forward $253 $-1 #
coedge $-1 $595 $255 $592 $596 forward $161 $-1 #
coedge $-1 $255 $595 $597 $598 forward $161 $-1 #
coedge $-1 $390 $389 $255 $383 reversed $391 $-1 #
edge $-1 $599 -39.683422346677155 $600 39.683422346677155 $382 $601 forward 7 unknown #
coedge $-1 $257 $256 $602 $603 forward $101 $-1 #
coedge $-1 $604 $605 $256 $386 reversed $589 $-1 #
edge $-1 $393 -76.058229316080201 $606 76.058229316080201 $385 $607 forward 7 unknown #
coedge $-1 $379 $608 $257 $388 reversed $253 $-1 #
edge $-1 $609 -76.058229316080201 $392 76.058229316080201 $387 $610 forward 7 unknown #
coedge $-1 $382 $258 $608 $611 forward $391 $-1 #
coedge $-1 $258 $382 $604 $612 reversed $391 $-1 #
loop $-1 $-1 $389 $588 #
vertex $-1 $259 $613 #
vertex $-1 $259 $614 #
straight-curve $-1 76.058229316080201 0 17.800922117386378 0 1 0 I I #
face $-1 $615 $616 $61 $-1 $617 reversed single #
loop $-1 $-1 $618 $260 #
plane-surface $-1 -76.058229316080201 0 0 1 0 0 0 0 -1 forward_v I I I I #
coedge $-1 $619 $406 $620 $621 forward $261 $-1 #
coedge $-1 $622 $263 $619 $623 forward $165 $-1 #
coedge $-1 $263 $622 $624 $625 forward $165 $-1 #
coedge $-1 $409 $408 $263 $402 reversed $410 $-1 #
edge $-1 $626 -6.0623637857023063 $627 6.0623637857023063 $401 $628 forward 7 unknown #
coedge $-1 $265 $264 $629 $630 forward $104 $-1 #
coedge $-1 $631 $632 $264 $405 reversed $616 $-1 #
edge $-1 $412 -76.058229316080201 $633 76.058229316080201 $404 $634 forward 7 unknown #
coedge $-1 $398 $635 $265 $407 reversed $261 $-1 #
edge $-1 $636 -76.058229316080201 $411 76.058229316080201 $406 $637 forward 7 unknown #
coedge $-1 $401 $266 $635 $638 forward $410 $-1 #
coedge $-1 $266 $401 $631 $639 reversed $410 $-1 #
loop $-1 $-1 $408 $615 #
vertex $-1 $267 $640 #
vertex $-1 $267 $641 #
straight-curve $-1 76.058229316080201 0 2.2304527706947006 0 1 0 I I #
face $-1 $642 $643 $62 $-1 $644 reversed single #
loop $-1 $-1 $645 $268 #
plane-surface $-1 -304.2329172643208 0 0 1 0 0 0 0 -1 forward_v I I I I #
coedge $-1 $646 $425 $647 $648 forward $269 $-1 #
coedge $-1 $649 $271 $646 $650 forward $169 $-1 #
coedge $-1 $271 $649 $651 $652 forward $169 $-1 #
coedge $-1 $428 $427 $271 $421 reversed $429 $-1 #
edge $-1 $653 -4.0572389671115054 $654 4.0572389671115054 $420 $655 forward 7 unknown #
coedge $-1 $273 $272 $656 $657 forward $107 $-1 #
coedge $-1 $658 $659 $272 $424 reversed $643 $-1 #
edge $-1 $431 -304.2329172643208 $660 304.2329172643208 $423 $661 forward 7 unknown #
coedge $-1 $417 $662 $273 $426 reversed $269 $-1 #
edge $-1 $663 -304.2329172643208 $430 304.2329172643208 $425 $664 forward 7 unknown #
coedge $-1 $420 $274 $662 $665 forward $429 $-1 #
coedge $-1 $274 $420 $658 $666 reversed $429 $-1 #
loop $-1 $-1 $427 $642 #
vertex $-1 $275 $667 #
vertex $-1 $275 $668 #
straight-curve $-1 304.2329172643208 0 152.1164586321604 0 1 0 I I #
loop $-1 $-1 $669 $172 #
coedge $-1 $434 $434 $279 $435 reversed $276 $-1 #
edge $-1 $670 0 $670 6.2831853071796004 $434 $671 forward 7 unknown #
vertex $-1 $280 $672 #
ellipse-curve $-1 0 0 -1.3745002594073323 0 0 -1 0.5 0 0 1 I I #
loop $-1 $-1 $673 $177 #
coedge $-1 $439 $439 $284 $440 reversed $281 $-1 #
edge $-1 $674 0 $674 6.2831853071796004 $439 $675 forward 7 unknown #
vertex $-1 $285 $676 #
ellipse-curve $-1 0 0 -1.3745002594073323 0 0 -1 0.5 0 0 1 I I #
face $-1 $677 $678 $65 $-1 $679 reversed single #
loop $-1 $-1 $680 $286 #
plane-surface $-1 -304.2329172643208 0 0 1 0 0 0 0 -1 forward_v I I I I #
coedge $-1 $681 $454 $682 $683 forward $287 $-1 #
coedge $-1 $684 $289 $681 $685 forward $183 $-1 #
coedge $-1 $289 $684 $686 $687 forward $183 $-1 #
coedge $-1 $457 $456 $289 $450 reversed $458 $-1 #
edge $-1 $688 -4.0572389671115054 $689 4.0572389671115054 $449 $690 forward 7 unknown #
coedge $-1 $291 $290 $691 $692 forward $116 $-1 #
coedge $-1 $693 $694 $290 $453 reversed $678 $-1 #
edge $-1 $460 -304.2329172643208 $695 304.2329172643208 $452 $696 forward 7 unknown #
coedge $-1 $446 $697 $291 $455 reversed $287 $-1 #
edge $-1 $698 -304.2329172643208 $459 304.2329172643208 $454 $699 forward 7 unknown #
coedge $-1 $449 $292 $697 $700 forward $458 $-1 #
coedge $-1 $292 $449 $693 $701 reversed $458 $-1 #
loop $-1 $-1 $456 $677 #
vertex $-1 $293 $702 #
vertex $-1 $293 $703 #
straight-curve $-1 304.2329172643208 0 152.1164586321604 0 1 0 I I #
loop $-1 $-1 $704 $186 #
coedge $-1 $463 $463 $297 $464 reversed $294 $-1 #
edge $-1 $705 0 $705 6.2831853071796004 $463 $706 forward 7 unknown #
vertex $-1 $298 $707 #
ellipse-curve $-1 0 0 -1.3745002594073323 0 0 -1 0.5 0 0 1 I I #
loop $-1 $-1 $708 $191 #
coedge $-1 $468 $468 $302 $469 reversed $299 $-1 #
edge $-1 $709 0 $709 6.2831853071796004 $468 $710 forward 7 unknown #
vertex $-1 $303 $711 #
ellipse-curve $-1 0 0 -1.3745002594073323 0 0 -1 0.5 0 0 1 I I #
face $-1 $712 $713 $68 $-1 $714 reversed single #
loop $-1 $-1 $715 $304 #
plane-surface $-1 -304.2329172643208 0 0 1 0 0 0 0 -1 forward_v I I I I #
coedge $-1 $716 $483 $717 $718 forward $305 $-1 #
coedge $-1 $719 $307 $716 $720 forward $197 $-1 #
coedge $-1 $307 $719 $721 $722 forward $197 $-1 #
coedge $-1 $486 $485 $307 $479 reversed $487 $-1 #
edge $-1 $723 -4.0572389671115054 $724 4.0572389671115054 $478 $725 forward 7 unknown #
coedge $-1 $309 $308 $726 $727 forward $125 $-1 #
coedge $-1 $728 $729 $308 $482 reversed $713 $-1 #
edge $-1 $489 -304.2329172643208 $730 304.2329172643208 $481 $731 forward 7 unknown #
coedge $-1 $475 $732 $309 $484 reversed $305 $-1 #
edge $-1 $733 -304.2329172643208 $488 304.2329172643208 $483 $734 forward 7 unknown #
coedge $-1 $478 $310 $732 $735 forward $487 $-1 #
coedge $-1 $310 $478 $728 $736 reversed $487 $-1 #
loop $-1 $-1 $485 $712 #
vertex $-1 $311 $737 #
vertex $-1 $311 $738 #
straight-curve $-1 304.2329172643208 0 152.1164586321604 0 1 0 I I #
loop $-1 $-1 $739 $200 #
coedge $-1 $492 $492 $315 $493 reversed $312 $-1 #
edge $-1 $740 0 $740 6.2831853071796004 $492 $741 forward 7 unknown #
vertex $-1 $316 $742 #
ellipse-curve $-1 0 0 -1.3745002594073323 0 0 -1 0.5 0 0 1 I I #
loop $-1 $-1 $743 $205 #
coedge $-1 $497 $497 $320 $498 reversed $317 $-1 #
edge $-1 $744 0 $744 6.2831853071796004 $497 $745 forward 7 unknown #
vertex $-1 $321 $746 #
ellipse-curve $-1 0 0 -1.3745002594073323 0 0 -1 0.5 0 0 1 I I #
face $-1 $747 $748 $71 $-1 $749 reversed single #
loop $-1 $-1 $750 $322 #
plane-surface $-1 -304.2329172643208 0 0 1 0 0 0 0 -1 forward_v I I I I #
coedge $-1 $751 $512 $752 $753 forward $323 $-1 #
coedge $-1 $754 $325 $751 $755 forward $211 $-1 #
coedge $-1 $325 $754 $756 $757 forward $211 $-1 #
coedge $-1 $515 $514 $325 $508 reversed $516 $-1 #
edge $-1 $758 -4.0572389671115054 $759 4.0572389671115054 $507 $760 forward 7 unknown #
coedge $-1 $327 $326 $761 $762 forward $134 $-1 #
coedge $-1 $763 $764 $326 $511 reversed $748 $-1 #
edge $-1 $518 -304.2329172643208 $765 304.2329172643208 $510 $766 forward 7 unknown #
coedge $-1 $504 $767 $327 $513 reversed $323 $-1 #
edge $-1 $768 -304.2329172643208 $517 304.2329172643208 $512 $769 forward 7 unknown #
coedge $-1 $507 $328 $767 $770 forward $516 $-1 #
coedge $-1 $328 $507 $763 $771 reversed $516 $-1 #
loop $-1 $-1 $514 $747 #
vertex $-1 $329 $772 #
vertex $-1 $329 $773 #
straight-curve $-1 304.2329172643208 0 152.1164586321604 0 1 0 I I #
loop $-1 $-1 $774 $214 #
coedge $-1 $521 $521 $333 $522 reversed $330 $-1 #
edge $-1 $775 0 $775 6.2831853071796004 $521 $776 forward 7 unknown #
vertex $-1 $334 $777 #
ellipse-curve $-1 0 0 -1.3745002594073323 0 0 -1 0.5 0 0 1 I I #
loop $-1 $-1 $778 $219 #
coedge $-1 $526 $526 $338 $527 reversed $335 $-1 #
edge $-1 $779 0 $779 6.2831853071796004 $526 $780 forward 7 unknown #
vertex $-1 $339 $781 #
ellipse-curve $-1 0 0 -1.3745002594073323 0 0 -1 0.5 0 0 1 I I #
face $-1 $782 $783 $74 $-1 $784 reversed single #
loop $-1 $-1 $785 $340 #
plane-surface $-1 -304.2329172643208 0 0 1 0 0 0 0 -1 forward_v I I I I #
coedge $-1 $786 $541 $787 $788 forward $341 $-1 #
coedge $-1 $789 $343 $786 $790 forward $225 $-1 #
coedge $-1 $343 $789 $791 $792 forward $225 $-1 #
coedge $-1 $544 $543 $343 $537 reversed $545 $-1 #
edge $-1 $793 -4.7312864507129468 $794 4.7312864507129468 $536 $795 forward 7 unknown #
coedge $-1 $345 $344 $796 $797 forward $143 $-1 #
coedge $-1 $798 $799 $344 $540 reversed $783 $-1 #
edge $-1 $547 -304.2329172643208 $800 304.2329172643208 $539 $801 forward 7 unknown #
coedge $-1 $533 $802 $345 $542 reversed $341 $-1 #
edge $-1 $803 -304.2329172643208 $546 304.2329172643208 $541 $804 forward 7 unknown #
coedge $-1 $536 $346 $802 $805 forward $545 $-1 #
coedge $-1 $346 $536 $798 $806 reversed $545 $-1 #
loop $-1 $-1 $543 $782 #
vertex $-1 $347 $807 #
vertex $-1 $347 $808 #
straight-curve $-1 304.2329172643208 0 152.1164586321604 0 1 0 I I #
loop $-1 $-1 $809 $228 #
coedge $-1 $550 $550 $351 $551 reversed $348 $-1 #
edge $-1 $810 0 $810 6.2831853071796004 $550 $811 forward 7 unknown #
vertex $-1 $352 $812 #
ellipse-curve $-1 0 0 -1.125 0 0 -1 0.25 0 0 1 I I #
loop $-1 $-1 $813 $233 #
coedge $-1 $555 $555 $356 $556 reversed $353 $-1 #
edge $-1 $814 0 $814 6.2831853071796004 $555 $815 forward 7 unknown #
vertex $-1 $357 $816 #
ellipse-curve $-1 0 0 -1.125 0 0 -1 0.25 0 0 1 I I #
face $-1 $817 $818 $77 $-1 $819 reversed single #
loop $-1 $-1 $820 $358 #
plane-surface $-1 -304.2329172643208 0 0 1 0 0 0 0 -1 forward_v I I I I #
coedge $-1 $821 $570 $822 $823 forward $359 $-1 #
coedge $-1 $824 $361 $821 $825 forward $239 $-1 #
coedge $-1 $361 $824 $826 $827 forward $239 $-1 #
coedge $-1 $573 $572 $361 $566 reversed $574 $-1 #
edge $-1 $828 -4.7312864507129468 $829 4.7312864507129468 $565 $830 forward 7 unknown #
coedge $-1 $363 $362 $831 $832 forward $152 $-1 #
coedge $-1 $833 $834 $362 $569 reversed $818 $-1 #
edge $-1 $576 -304.2329172643208 $835 304.2329172643208 $568 $836 forward 7 unknown #
coedge $-1 $562 $837 $363 $571 reversed $359 $-1 #
edge $-1 $838 -304.2329172643208 $575 304.2329172643208 $570 $839 forward 7 unknown #
coedge $-1 $565 $364 $837 $840 forward $574 $-1 #
coedge $-1 $364 $565 $833 $841 reversed $574 $-1 #
loop $-1 $-1 $572 $817 #
vertex $-1 $365 $842 #
vertex $-1 $365 $843 #
straight-curve $-1 304.2329172643208 0 152.1164586321604 0 1 0 I I #
loop $-1 $-1 $844 $242 #
coedge $-1 $579 $579 $369 $580 reversed $366 $-1 #
edge $-1 $845 0 $845 6.2831853071796004 $579 $846 forward 7 unknown #
vertex $-1 $370 $847 #
ellipse-curve $-1 0 0 -1.125 0 0 -1 0.25 0 0 1 I I #
loop $-1 $-1 $848 $247 #
coedge $-1 $584 $584 $374 $585 reversed $371 $-1 #
edge $-1 $849 0 $849 6.2831853071796004 $584 $850 forward 7 unknown #
vertex $-1 $375 $851 #
ellipse-curve $-1 0 0 -1.125 0 0 -1 0.25 0 0 1 I I #
face $-1 $-1 $391 $60 $-1 $852 reversed single #
loop $-1 $-1 $604 $376 #
plane-surface $-1 0 39.683422346677155 0 0 -1 0 0 0 -1 forward_v I I I I #
coedge $-1 $853 $602 $605 $854 forward $377 $-1 #
coedge $-1 $608 $379 $380 $596 reversed $253 $-1 #
coedge $-1 $602 $853 $379 $594 reversed $377 $-1 #
edge $-1 $609 -17.800922117386378 $855 17.800922117386378 $593 $856 forward 7 unknown #
coedge $-1 $381 $380 $853 $857 forward $161 $-1 #
edge $-1 $600 -76.058229316080201 $855 76.058229316080201 $592 $858 forward 7 unknown #
coedge $-1 $605 $604 $381 $598 reversed $589 $-1 #
edge $-1 $859 -76.058229316080201 $599 76.058229316080201 $597 $860 forward 7 unknown #
vertex $-1 $383 $861 #
vertex $-1 $611 $862 #
straight-curve $-1 76.058229316080201 0 -17.800922117386378 0 -1 0 I I #
coedge $-1 $591 $593 $384 $603 reversed $377 $-1 #
edge $-1 $606 -39.683422346677155 $609 39.683422346677155 $602 $863 forward 7 unknown #
coedge $-1 $597 $385 $390 $612 forward $589 $-1 #
coedge $-1 $385 $597 $591 $854 reversed $589 $-1 #
vertex $-1 $386 $864 #
straight-curve $-1 0 39.683422346677155 17.800922117386378 -1 0 0 I I #
coedge $-1 $387 $592 $389 $611 reversed $253 $-1 #
vertex $-1 $603 $865 #
straight-curve $-1 0 -39.683422346677155 17.800922117386378 1 0 0 I I #
edge $-1 $392 -17.800922117386378 $600 17.800922117386378 $389 $866 forward 7 unknown #
edge $-1 $393 -17.800922117386378 $599 17.800922117386378 $390 $867 forward 7 unknown #
point $-1 76.058229316080201 -39.683422346677155 17.800922117386378 #
point $-1 76.058229316080201 39.683422346677155 17.800922117386378 #
face $-1 $-1 $410 $61 $-1 $868 reversed single #
loop $-1 $-1 $631 $395 #
plane-surface $-1 0 6.0623637857023063 0 0 -1 0 0 0 -1 forward_v I I I I #
coedge $-1 $869 $629 $632 $870 forward $396 $-1 #
coedge $-1 $635 $398 $399 $623 reversed $261 $-1 #
coedge $-1 $629 $869 $398 $621 reversed $396 $-1 #
edge $-1 $636 -2.2304527706947006 $871 2.2304527706947006 $620 $872 forward 7 unknown #
coedge $-1 $400 $399 $869 $873 forward $165 $-1 #
edge $-1 $627 -76.058229316080201 $871 76.058229316080201 $619 $874 forward 7 unknown #
coedge $-1 $632 $631 $400 $625 reversed $616 $-1 #
edge $-1 $875 -76.058229316080201 $626 76.058229316080201 $624 $876 forward 7 unknown #
vertex $-1 $402 $877 #
vertex $-1 $638 $878 #
straight-curve $-1 76.058229316080201 0 -2.2304527706947006 0 -1 0 I I #
coedge $-1 $618 $620 $403 $630 reversed $396 $-1 #
edge $-1 $633 -6.0623637857023063 $636 6.0623637857023063 $629 $879 forward 7 unknown #
coedge $-1 $624 $404 $409 $639 forward $616 $-1 #
coedge $-1 $404 $624 $618 $870 reversed $616 $-1 #
vertex $-1 $405 $880 #
straight-curve $-1 0 6.0623637857023063 2.2304527706947006 -1 0 0 I I #
coedge $-1 $406 $619 $408 $638 reversed $261 $-1 #
vertex $-1 $630 $881 #
straight-curve $-1 0 -6.0623637857023063 2.2304527706947006 1 0 0 I I #
edge $-1 $411 -2.2304527706947006 $627 2.2304527706947006 $408 $882 forward 7 unknown #
edge $-1 $412 -2.2304527706947006 $626 2.2304527706947006 $409 $883 forward 7 unknown #
point $-1 76.058229316080201 -6.0623637857023063 2.2304527706947006 #
point $-1 76.058229316080201 6.0623637857023063 2.2304527706947006 #
face $-1 $-1 $429 $62 $-1 $884 reversed single #
loop $-1 $-1 $658 $414 #
plane-surface $-1 0 4.0572389671115054 0 0 -1 0 0 0 -1 forward_v I I I I #
coedge $-1 $885 $656 $659 $886 forward $415 $-1 #
coedge $-1 $662 $417 $418 $650 reversed $269 $-1 #
coedge $-1 $656 $885 $417 $648 reversed $415 $-1 #
edge $-1 $663 -152.1164586321604 $887 152.1164586321604 $647 $888 forward 7 unknown #
coedge $-1 $419 $418 $885 $889 forward $169 $-1 #
edge $-1 $654 -304.2329172643208 $887 304.2329172643208 $646 $890 forward 7 unknown #
coedge $-1 $659 $658 $419 $652 reversed $643 $-1 #
edge $-1 $891 -304.2329172643208 $653 304.2329172643208 $651 $892 forward 7 unknown #
vertex $-1 $421 $893 #
vertex $-1 $665 $894 #
straight-curve $-1 304.2329172643208 0 -152.1164586321604 0 -1 0 I I #
coedge $-1 $645 $647 $422 $657 reversed $415 $-1 #
edge $-1 $660 -4.0572389671115054 $663 4.0572389671115054 $656 $895 forward 7 unknown #
coedge $-1 $651 $423 $428 $666 forward $643 $-1 #
coedge $-1 $423 $651 $645 $886 reversed $643 $-1 #
vertex $-1 $424 $896 #
straight-curve $-1 0 4.0572389671115054 152.1164586321604 -1 0 0 I I #
coedge $-1 $425 $646 $427 $665 reversed $269 $-1 #
vertex $-1 $657 $897 #
straight-curve $-1 0 -4.0572389671115054 152.1164586321604 1 0 0 I I #
edge $-1 $430 -152.1164586321604 $654 152.1164586321604 $427 $898 forward 7 unknown #
edge $-1 $431 -152.1164586321604 $653 152.1164586321604 $428 $899 forward 7 unknown #
point $-1 304.2329172643208 -4.0572389671115054 152.1164586321604 #
point $-1 304.2329172643208 4.0572389671115054 152.1164586321604 #
coedge $-1 $669 $669 $-1 $900 reversed $433 $-1 #
vertex $-1 $435 $901 #
ellipse-curve $-1 0 0 -0.25 0 0 -1 0.5 0 0 1 I I #
point $-1 0.5 0 -1.3745002594073323 #
coedge $-1 $673 $673 $-1 $902 reversed $438 $-1 #
vertex $-1 $440 $903 #
ellipse-curve $-1 0 0 -0.25 0 0 -1 0.5 0 0 1 I I #
point $-1 0.5 0 -1.3745002594073323 #
face $-1 $-1 $458 $65 $-1 $904 reversed single #
loop $-1 $-1 $693 $443 #
plane-surface $-1 0 4.0572389671115054 0 0 -1 0 0 0 -1 forward_v I I I I #
coedge $-1 $905 $691 $694 $906 forward $444 $-1 #
coedge $-1 $697 $446 $447 $685 reversed $287 $-1 #
coedge $-1 $691 $905 $446 $683 reversed $444 $-1 #
edge $-1 $698 -152.1164586321604 $907 152.1164586321604 $682 $908 forward 7 unknown #
coedge $-1 $448 $447 $905 $909 forward $183 $-1 #
edge $-1 $689 -304.2329172643208 $907 304.2329172643208 $681 $910 forward 7 unknown #
coedge $-1 $694 $693 $448 $687 reversed $678 $-1 #
edge $-1 $911 -304.2329172643208 $688 304.2329172643208 $686 $912 forward 7 unknown #
vertex $-1 $450 $913 #
vertex $-1 $700 $914 #
straight-curve $-1 304.2329172643208 0 -152.1164586321604 0 -1 0 I I #
coedge $-1 $680 $682 $451 $692 reversed $444 $-1 #
edge $-1 $695 -4.0572389671115054 $698 4.0572389671115054 $691 $915 forward 7 unknown #
coedge $-1 $686 $452 $457 $701 forward $678 $-1 #
coedge $-1 $452 $686 $680 $906 reversed $678 $-1 #
vertex $-1 $453 $916 #
straight-curve $-1 0 4.0572389671115054 152.1164586321604 -1 0 0 I I #
coedge $-1 $454 $681 $456 $700 reversed $287 $-1 #
vertex $-1 $692 $917 #
straight-curve $-1 0 -4.0572389671115054 152.1164586321604 1 0 0 I I #
edge $-1 $459 -152.1164586321604 $689 152.1164586321604 $456 $918 forward 7 unknown #
edge $-1 $460 -152.1164586321604 $688 152.1164586321604 $457 $919 forward 7 unknown #
point $-1 304.2329172643208 -4.0572389671115054 152.1164586321604 #
point $-1 304.2329172643208 4.0572389671115054 152.1164586321604 #
coedge $-1 $704 $704 $-1 $920 reversed $462 $-1 #
vertex $-1 $464 $921 #
ellipse-curve $-1 0 0 -0.25 0 0 -1 0.5 0 0 1 I I #
point $-1 0.5 0 -1.3745002594073323 #
coedge $-1 $708 $708 $-1 $922 reversed $467 $-1 #
vertex $-1 $469 $923 #
ellipse-curve $-1 0 0 -0.25 0 0 -1 0.5 0 0 1 I I #
point $-1 0.5 0 -1.3745002594073323 #
face $-1 $-1 $487 $68 $-1 $924 reversed single #
loop $-1 $-1 $728 $472 #
plane-surface $-1 0 4.0572389671115054 0 0 -1 0 0 0 -1 forward_v I I I I #
coedge $-1 $925 $726 $729 $926 forward $473 $-1 #
coedge $-1 $732 $475 $476 $720 reversed $305 $-1 #
coedge $-1 $726 $925 $475 $718 reversed $473 $-1 #
edge $-1 $733 -152.1164586321604 $927 152.1164586321604 $717 $928 forward 7 unknown #
coedge $-1 $477 $476 $925 $929 forward $197 $-1 #
edge $-1 $724 -304.2329172643208 $927 304.2329172643208 $716 $930 forward 7 unknown #
coedge $-1 $729 $728 $477 $722 reversed $713 $-1 #
edge $-1 $931 -304.2329172643208 $723 304.2329172643208 $721 $932 forward 7 unknown #
vertex $-1 $479 $933 #
vertex $-1 $735 $934 #
straight-curve $-1 304.2329172643208 0 -152.1164586321604 0 -1 0 I I #
coedge $-1 $715 $717 $480 $727 reversed $473 $-1 #
edge $-1 $730 -4.0572389671115054 $733 4.0572389671115054 $726 $935 forward 7 unknown #
coedge $-1 $721 $481 $486 $736 forward $713 $-1 #
coedge $-1 $481 $721 $715 $926 reversed $713 $-1 #
vertex $-1 $482 $936 #
straight-curve $-1 0 4.0572389671115054 152.1164586321604 -1 0 0 I I #
coedge $-1 $483 $716 $485 $735 reversed $305 $-1 #
vertex $-1 $727 $937 #
straight-curve $-1 0 -4.0572389671115054 152.1164586321604 1 0 0 I I #
edge $-1 $488 -152.1164586321604 $724 152.1164586321604 $485 $938 forward 7 unknown #
edge $-1 $489 -152.1164586321604 $723 152.1164586321604 $486 $939 forward 7 unknown #
point $-1 304.2329172643208 -4.0572389671115054 152.1164586321604 #
point $-1 304.2329172643208 4.0572389671115054 152.1164586321604 #
coedge $-1 $739 $739 $-1 $940 reversed $491 $-1 #
vertex $-1 $493 $941 #
ellipse-curve $-1 0 0 -0.25 0 0 -1 0.5 0 0 1 I I #
point $-1 0.5 0 -1.3745002594073323 #
coedge $-1 $743 $743 $-1 $942 reversed $496 $-1 #
vertex $-1 $498 $943 #
ellipse-curve $-1 0 0 -0.25 0 0 -1 0.5 0 0 1 I I #
point $-1 0.5 0 -1.3745002594073323 #
face $-1 $-1 $516 $71 $-1 $944 reversed single #
loop $-1 $-1 $763 $501 #
plane-surface $-1 0 4.0572389671115054 0 0 -1 0 0 0 -1 forward_v I I I I #
coedge $-1 $945 $761 $764 $946 forward $502 $-1 #
coedge $-1 $767 $504 $505 $755 reversed $323 $-1 #
coedge $-1 $761 $945 $504 $753 reversed $502 $-1 #
edge $-1 $768 -152.1164586321604 $947 152.1164586321604 $752 $948 forward 7 unknown #
coedge $-1 $506 $505 $945 $949 forward $211 $-1 #
edge $-1 $759 -304.2329172643208 $947 304.2329172643208 $751 $950 forward 7 unknown #
coedge $-1 $764 $763 $506 $757 reversed $748 $-1 #
edge $-1 $951 -304.2329172643208 $758 304.2329172643208 $756 $952 forward 7 unknown #
vertex $-1 $508 $953 #
vertex $-1 $770 $954 #
straight-curve $-1 304.2329172643208 0 -152.1164586321604 0 -1 0 I I #
coedge $-1 $750 $752 $509 $762 reversed $502 $-1 #
edge $-1 $765 -4.0572389671115054 $768 4.0572389671115054 $761 $955 forward 7 unknown #
coedge $-1 $756 $510 $515 $771 forward $748 $-1 #
coedge $-1 $510 $756 $750 $946 reversed $748 $-1 #
vertex $-1 $511 $956 #
straight-curve $-1 0 4.0572389671115054 152.1164586321604 -1 0 0 I I #
coedge $-1 $512 $751 $514 $770 reversed $323 $-1 #
vertex $-1 $762 $957 #
straight-curve $-1 0 -4.0572389671115054 152.1164586321604 1 0 0 I I #
edge $-1 $517 -152.1164586321604 $759 152.1164586321604 $514 $958 forward 7 unknown #
edge $-1 $518 -152.1164586321604 $758 152.1164586321604 $515 $959 forward 7 unknown #
point $-1 304.2329172643208 -4.0572389671115054 152.1164586321604 #
point $-1 304.2329172643208 4.0572389671115054 152.1164586321604 #
coedge $-1 $774 $774 $-1 $960 reversed $520 $-1 #
vertex $-1 $522 $961 #
ellipse-curve $-1 0 0 -0.25 0 0 -1 0.5 0 0 1 I I #
point $-1 0.5 0 -1.3745002594073323 #
coedge $-1 $778 $778 $-1 $962 reversed $525 $-1 #
vertex $-1 $527 $963 #
ellipse-curve $-1 0 0 -0.25 0 0 -1 0.5 0 0 1 I I #
point $-1 0.5 0 -1.3745002594073323 #
face $-1 $-1 $545 $74 $-1 $964 reversed single #
loop $-1 $-1 $798 $530 #
plane-surface $-1 0 4.7312864507129468 0 0 -1 0 0 0 -1 forward_v I I I I #
coedge $-1 $965 $796 $799 $966 forward $531 $-1 #
coedge $-1 $802 $533 $534 $790 reversed $341 $-1 #
coedge $-1 $796 $965 $533 $788 reversed $531 $-1 #
edge $-1 $803 -152.1164586321604 $967 152.1164586321604 $787 $968 forward 7 unknown #
coedge $-1 $535 $534 $965 $969 forward $225 $-1 #
edge $-1 $794 -304.2329172643208 $967 304.2329172643208 $786 $970 forward 7 unknown #
coedge $-1 $799 $798 $535 $792 reversed $783 $-1 #
edge $-1 $971 -304.2329172643208 $793 304.2329172643208 $791 $972 forward 7 unknown #
vertex $-1 $537 $973 #
vertex $-1 $805 $974 #
straight-curve $-1 304.2329172643208 0 -152.1164586321604 0 -1 0 I I #
coedge $-1 $785 $787 $538 $797 reversed $531 $-1 #
edge $-1 $800 -4.7312864507129468 $803 4.7312864507129468 $796 $975 forward 7 unknown #
coedge $-1 $791 $539 $544 $806 forward $783 $-1 #
coedge $-1 $539 $791 $785 $966 reversed $783 $-1 #
vertex $-1 $540 $976 #
straight-curve $-1 0 4.7312864507129468 152.1164586321604 -1 0 0 I I #
coedge $-1 $541 $786 $543 $805 reversed $341 $-1 #
vertex $-1 $797 $977 #
straight-curve $-1 0 -4.7312864507129468 152.1164586321604 1 0 0 I I #
edge $-1 $546 -152.1164586321604 $794 152.1164586321604 $543 $978 forward 7 unknown #
edge $-1 $547 -152.1164586321604 $793 152.1164586321604 $544 $979 forward 7 unknown #
point $-1 304.2329172643208 -4.7312864507129468 152.1164586321604 #
point $-1 304.2329172643208 4.7312864507129468 152.1164586321604 #
coedge $-1 $809 $809 $-1 $980 reversed $549 $-1 #
vertex $-1 $551 $981 #
ellipse-curve $-1 0 0 -0.125 0 0 -1 0.25 0 0 1 I I #
point $-1 0.25 0 -1.125 #
coedge $-1 $813 $813 $-1 $982 reversed $554 $-1 #
vertex $-1 $556 $983 #
ellipse-curve $-1 0 0 -0.125 0 0 -1 0.25 0 0 1 I I #
point $-1 0.25 0 -1.125 #
face $-1 $-1 $574 $77 $-1 $984 reversed single #
loop $-1 $-1 $833 $559 #
plane-surface $-1 0 4.7312864507129468 0 0 -1 0 0 0 -1 forward_v I I I I #
coedge $-1 $985 $831 $834 $986 forward $560 $-1 #
coedge $-1 $837 $562 $563 $825 reversed $359 $-1 #
coedge $-1 $831 $985 $562 $823 reversed $560 $-1 #
edge $-1 $838 -152.1164586321604 $987 152.1164586321604 $822 $988 forward 7 unknown #
coedge $-1 $564 $563 $985 $989 forward $239 $-1 #
edge $-1 $829 -304.2329172643208 $987 304.2329172643208 $821 $990 forward 7 unknown #
coedge $-1 $834 $833 $564 $827 reversed $818 $-1 #
edge $-1 $991 -304.2329172643208 $828 304.2329172643208 $826 $992 forward 7 unknown #
vertex $-1 $566 $993 #
vertex $-1 $840 $994 #
straight-curve $-1 304.2329172643208 0 -152.1164586321604 0 -1 0 I I #
coedge $-1 $820 $822 $567 $832 reversed $560 $-1 #
edge $-1 $835 -4.7312864507129468 $838 4.7312864507129468 $831 $995 forward 7 unknown #
coedge $-1 $826 $568 $573 $841 forward $818 $-1 #
coedge $-1 $568 $826 $820 $986 reversed $818 $-1 #
vertex $-1 $569 $996 #
straight-curve $-1 0 4.7312864507129468 152.1164586321604 -1 0 0 I I #
coedge $-1 $570 $821 $572 $840 reversed $359 $-1 #
vertex $-1 $832 $997 #
straight-curve $-1 0 -4.7312864507129468 152.1164586321604 1 0 0 I I #
edge $-1 $575 -152.1164586321604 $829 152.1164586321604 $572 $998 forward 7 unknown #
edge $-1 $576 -152.1164586321604 $828 152.1164586321604 $573 $999 forward 7 unknown #
point $-1 304.2329172643208 -4.7312864507129468 152.1164586321604 #
point $-1 304.2329172643208 4.7312864507129468 152.1164586321604 #
coedge $-1 $844 $844 $-1 $1000 reversed $578 $-1 #
vertex $-1 $580 $1001 #
ellipse-curve $-1 0 0 -0.125 0 0 -1 0.25 0 0 1 I I #
point $-1 0.25 0 -1.125 #
coedge $-1 $848 $848 $-1 $1002 reversed $583 $-1 #
vertex $-1 $585 $1003 #
ellipse-curve $-1 0 0 -0.125 0 0 -1 0.25 0 0 1 I I #
point $-1 0.25 0 -1.125 #
plane-surface $-1 76.058229316080201 0 0 -1 0 0 0 0 1 forward_v I I I I #
coedge $-1 $593 $591 $595 $857 reversed $377 $-1 #
edge $-1 $606 -17.800922117386378 $859 17.800922117386378 $605 $1004 forward 7 unknown #
vertex $-1 $857 $1005 #
straight-curve $-1 -76.058229316080201 -39.683422346677155 0 0 0 -1 I I #
edge $-1 $855 -39.683422346677155 $859 39.683422346677155 $853 $1006 forward 7 unknown #
straight-curve $-1 0 -39.683422346677155 -17.800922117386378 -1 0 0 I I #
vertex $-1 $598 $1007 #
straight-curve $-1 0 39.683422346677155 -17.800922117386378 1 0 0 I I #
point $-1 76.058229316080201 39.683422346677155 -17.800922117386378 #
point $-1 76.058229316080201 -39.683422346677155 -17.800922117386378 #
straight-curve $-1 -76.058229316080201 0 17.800922117386378 0 -1 0 I I #
point $-1 -76.058229316080201 39.683422346677155 17.800922117386378 #
point $-1 -76.058229316080201 -39.683422346677155 17.800922117386378 #
straight-curve $-1 76.058229316080201 -39.683422346677155 0 0 0 -1 I I #
straight-curve $-1 76.058229316080201 39.683422346677155 0 0 0 -1 I I #
plane-surface $-1 76.058229316080201 0 0 -1 0 0 0 0 1 forward_v I I I I #
coedge $-1 $620 $618 $622 $873 reversed $396 $-1 #
edge $-1 $633 -2.2304527706947006 $875 2.2304527706947006 $632 $1008 forward 7 unknown #
vertex $-1 $873 $1009 #
straight-curve $-1 -76.058229316080201 -6.0623637857023063 0 0 0 -1 I I #
edge $-1 $871 -6.0623637857023063 $875 6.0623637857023063 $869 $1010 forward 7 unknown #
straight-curve $-1 0 -6.0623637857023063 -2.2304527706947006 -1 0 0 I I #
vertex $-1 $625 $1011 #
straight-curve $-1 0 6.0623637857023063 -2.2304527706947006 1 0 0 I I #
point $-1 76.058229316080201 6.0623637857023063 -2.2304527706947006 #
point $-1 76.058229316080201 -6.0623637857023063 -2.2304527706947006 #
straight-curve $-1 -76.058229316080201 0 2.2304527706947006 0 -1 0 I I #
point $-1 -76.058229316080201 6.0623637857023063 2.2304527706947006 #
point $-1 -76.058229316080201 -6.0623637857023063 2.2304527706947006 #
straight-curve $-1 76.058229316080201 -6.0623637857023063 0 0 0 -1 I I #
straight-curve $-1 76.058229316080201 6.0623637857023063 0 0 0 -1 I I #
plane-surface $-1 304.2329172643208 0 0 -1 0 0 0 0 1 forward_v I I I I #
coedge $-1 $647 $645 $649 $889 reversed $415 $-1 #
edge $-1 $660 -152.1164586321604 $891 152.1164586321604 $659 $1012 forward 7 unknown #
vertex $-1 $889 $1013 #
straight-curve $-1 -304.2329172643208 -4.0572389671115054 0 0 0 -1 I I #
edge $-1 $887 -4.0572389671115054 $891 4.0572389671115054 $885 $1014 forward 7 unknown #
straight-curve $-1 0 -4.0572389671115054 -152.1164586321604 -1 0 0 I I #
vertex $-1 $652 $1015 #
straight-curve $-1 0 4.0572389671115054 -152.1164586321604 1 0 0 I I #
point $-1 304.2329172643208 4.0572389671115054 -152.1164586321604 #
point $-1 304.2329172643208 -4.0572389671115054 -152.1164586321604 #
straight-curve $-1 -304.2329172643208 0 152.1164586321604 0 -1 0 I I #
point $-1 -304.2329172643208 4.0572389671115054 152.1164586321604 #
point $-1 -304.2329172643208 -4.0572389671115054 152.1164586321604 #
straight-curve $-1 304.2329172643208 -4.0572389671115054 0 0 0 -1 I I #
straight-curve $-1 304.2329172643208 4.0572389671115054 0 0 0 -1 I I #
edge $-1 $1016 1 $1016 0 $669 $-1 forward 7 unknown #
point $-1 0.5 0 -0.25 #
edge $-1 $1017 1 $1017 0 $673 $-1 forward 7 unknown #
point $-1 0.5 0 -0.25 #
plane-surface $-1 304.2329172643208 0 0 -1 0 0 0 0 1 forward_v I I I I #
coedge $-1 $682 $680 $684 $909 reversed $444 $-1 #
edge $-1 $695 -152.1164586321604 $911 152.1164586321604 $694 $1018 forward 7 unknown #
vertex $-1 $909 $1019 #
straight-curve $-1 -304.2329172643208 -4.0572389671115054 0 0 0 -1 I I #
edge $-1 $907 -4.0572389671115054 $911 4.0572389671115054 $905 $1020 forward 7 unknown #
straight-curve $-1 0 -4.0572389671115054 -152.1164586321604 -1 0 0 I I #
vertex $-1 $687 $1021 #
straight-curve $-1 0 4.0572389671115054 -152.1164586321604 1 0 0 I I #
point $-1 304.2329172643208 4.0572389671115054 -152.1164586321604 #
point $-1 304.2329172643208 -4.0572389671115054 -152.1164586321604 #
straight-curve $-1 -304.2329172643208 0 152.1164586321604 0 -1 0 I I #
point $-1 -304.2329172643208 4.0572389671115054 152.1164586321604 #
point $-1 -304.2329172643208 -4.0572389671115054 152.1164586321604 #
straight-curve $-1 304.2329172643208 -4.0572389671115054 0 0 0 -1 I I #
straight-curve $-1 304.2329172643208 4.0572389671115054 0 0 0 -1 I I #
edge $-1 $1022 1 $1022 0 $704 $-1 forward 7 unknown #
point $-1 0.5 0 -0.25 #
edge $-1 $1023 1 $1023 0 $708 $-1 forward 7 unknown #
point $-1 0.5 0 -0.25 #
plane-surface $-1 304.2329172643208 0 0 -1 0 0 0 0 1 forward_v I I I I #
coedge $-1 $717 $715 $719 $929 reversed $473 $-1 #
edge $-1 $730 -152.1164586321604 $931 152.1164586321604 $729 $1024 forward 7 unknown #
vertex $-1 $929 $1025 #
straight-curve $-1 -304.2329172643208 -4.0572389671115054 0 0 0 -1 I I #
edge $-1 $927 -4.0572389671115054 $931 4.0572389671115054 $925 $1026 forward 7 unknown #
straight-curve $-1 0 -4.0572389671115054 -152.1164586321604 -1 0 0 I I #
vertex $-1 $722 $1027 #
straight-curve $-1 0 4.0572389671115054 -152.1164586321604 1 0 0 I I #
point $-1 304.2329172643208 4.0572389671115054 -152.1164586321604 #
point $-1 304.2329172643208 -4.0572389671115054 -152.1164586321604 #
straight-curve $-1 -304.2329172643208 0 152.1164586321604 0 -1 0 I I #
point $-1 -304.2329172643208 4.0572389671115054 152.1164586321604 #
point $-1 -304.2329172643208 -4.0572389671115054 152.1164586321604 #
straight-curve $-1 304.2329172643208 -4.0572389671115054 0 0 0 -1 I I #
straight-curve $-1 304.2329172643208 4.0572389671115054 0 0 0 -1 I I #
edge $-1 $1028 1 $1028 0 $739 $-1 forward 7 unknown #
point $-1 0.5 0 -0.25 #
edge $-1 $1029 1 $1029 0 $743 $-1 forward 7 unknown #
point $-1 0.5 0 -0.25 #
plane-surface $-1 304.2329172643208 0 0 -1 0 0 0 0 1 forward_v I I I I #
coedge $-1 $752 $750 $754 $949 reversed $502 $-1 #
edge $-1 $765 -152.1164586321604 $951 152.1164586321604 $764 $1030 forward 7 unknown #
vertex $-1 $949 $1031 #
straight-curve $-1 -304.2329172643208 -4.0572389671115054 0 0 0 -1 I I #
edge $-1 $947 -4.0572389671115054 $951 4.0572389671115054 $945 $1032 forward 7 unknown #
straight-curve $-1 0 -4.0572389671115054 -152.1164586321604 -1 0 0 I I #
vertex $-1 $757 $1033 #
straight-curve $-1 0 4.0572389671115054 -152.1164586321604 1 0 0 I I #
point $-1 304.2329172643208 4.0572389671115054 -152.1164586321604 #
point $-1 304.2329172643208 -4.0572389671115054 -152.1164586321604 #
straight-curve $-1 -304.2329172643208 0 152.1164586321604 0 -1 0 I I #
point $-1 -304.2329172643208 4.0572389671115054 152.1164586321604 #
point $-1 -304.2329172643208 -4.0572389671115054 152.1164586321604 #
straight-curve $-1 304.2329172643208 -4.0572389671115054 0 0 0 -1 I I #
straight-curve $-1 304.2329172643208 4.0572389671115054 0 0 0 -1 I I #
edge $-1 $1034 1 $1034 0 $774 $-1 forward 7 unknown #
point $-1 0.5 0 -0.25 #
edge $-1 $1035 1 $1035 0 $778 $-1 forward 7 unknown #
point $-1 0.5 0 -0.25 #
plane-surface $-1 304.2329172643208 0 0 -1 0 0 0 0 1 forward_v I I I I #
coedge $-1 $787 $785 $789 $969 reversed $531 $-1 #
edge $-1 $800 -152.1164586321604 $971 152.1164586321604 $799 $1036 forward 7 unknown #
vertex $-1 $969 $1037 #
straight-curve $-1 -304.2329172643208 -4.7312864507129468 0 0 0 -1 I I #
edge $-1 $967 -4.7312864507129468 $971 4.7312864507129468 $965 $1038 forward 7 unknown #
straight-curve $-1 0 -4.7312864507129468 -152.1164586321604 -1 0 0 I I #
vertex $-1 $792 $1039 #
straight-curve $-1 0 4.7312864507129468 -152.1164586321604 1 0 0 I I #
point $-1 304.2329172643208 4.7312864507129468 -152.1164586321604 #
point $-1 304.2329172643208 -4.7312864507129468 -152.1164586321604 #
straight-curve $-1 -304.2329172643208 0 152.1164586321604 0 -1 0 I I #
point $-1 -304.2329172643208 4.7312864507129468 152.1164586321604 #
point $-1 -304.2329172643208 -4.7312864507129468 152.1164586321604 #
straight-curve $-1 304.2329172643208 -4.7312864507129468 0 0 0 -1 I I #
straight-curve $-1 304.2329172643208 4.7312864507129468 0 0 0 -1 I I #
edge $-1 $1040 1 $1040 0 $809 $-1 forward 7 unknown #
point $-1 0.25 0 -0.125 #
edge $-1 $1041 1 $1041 0 $813 $-1 forward 7 unknown #
point $-1 0.25 0 -0.125 #
plane-surface $-1 304.2329172643208 0 0 -1 0 0 0 0 1 forward_v I I I I #
coedge $-1 $822 $820 $824 $989 reversed $560 $-1 #
edge $-1 $835 -152.1164586321604 $991 152.1164586321604 $834 $1042 forward 7 unknown #
vertex $-1 $989 $1043 #
straight-curve $-1 -304.2329172643208 -4.7312864507129468 0 0 0 -1 I I #
edge $-1 $987 -4.7312864507129468 $991 4.7312864507129468 $985 $1044 forward 7 unknown #
straight-curve $-1 0 -4.7312864507129468 -152.1164586321604 -1 0 0 I I #
vertex $-1 $827 $1045 #
straight-curve $-1 0 4.7312864507129468 -152.1164586321604 1 0 0 I I #
point $-1 304.2329172643208 4.7312864507129468 -152.1164586321604 #
point $-1 304.2329172643208 -4.7312864507129468 -152.1164586321604 #
straight-curve $-1 -304.2329172643208 0 152.1164586321604 0 -1 0 I I #
point $-1 -304.2329172643208 4.7312864507129468 152.1164586321604 #
point $-1 -304.2329172643208 -4.7312864507129468 152.1164586321604 #
straight-curve $-1 304.2329172643208 -4.7312864507129468 0 0 0 -1 I I #
straight-curve $-1 304.2329172643208 4.7312864507129468 0 0 0 -1 I I #
edge $-1 $1046 1 $1046 0 $844 $-1 forward 7 unknown #
point $-1 0.25 0 -0.125 #
edge $-1 $1047 1 $1047 0 $848 $-1 forward 7 unknown #
point $-1 0.25 0 -0.125 #
straight-curve $-1 -76.058229316080201 39.683422346677155 0 0 0 -1 I I #
point $-1 -76.058229316080201 -39.683422346677155 -17.800922117386378 #
straight-curve $-1 -76.058229316080201 0 -17.800922117386378 0 1 0 I I #
point $-1 -76.058229316080201 39.683422346677155 -17.800922117386378 #
straight-curve $-1 -76.058229316080201 6.0623637857023063 0 0 0 -1 I I #
point $-1 -76.058229316080201 -6.0623637857023063 -2.2304527706947006 #
straight-curve $-1 -76.058229316080201 0 -2.2304527706947006 0 1 0 I I #
point $-1 -76.058229316080201 6.0623637857023063 -2.2304527706947006 #
straight-curve $-1 -304.2329172643208 4.0572389671115054 0 0 0 -1 I I #
point $-1 -304.2329172643208 -4.0572389671115054 -152.1164586321604 #
straight-curve $-1 -304.2329172643208 0 -152.1164586321604 0 1 0 I I #
point $-1 -304.2329172643208 4.0572389671115054 -152.1164586321604 #
vertex $-1 $900 $1048 #
vertex $-1 $902 $1049 #
straight-curve $-1 -304.2329172643208 4.0572389671115054 0 0 0 -1 I I #
point $-1 -304.2329172643208 -4.0572389671115054 -152.1164586321604 #
straight-curve $-1 -304.2329172643208 0 -152.1164586321604 0 1 0 I I #
point $-1 -304.2329172643208 4.0572389671115054 -152.1164586321604 #
vertex $-1 $920 $1050 #
vertex $-1 $922 $1051 #
straight-curve $-1 -304.2329172643208 4.0572389671115054 0 0 0 -1 I I #
point $-1 -304.2329172643208 -4.0572389671115054 -152.1164586321604 #
straight-curve $-1 -304.2329172643208 0 -152.1164586321604 0 1 0 I I #
point $-1 -304.2329172643208 4.0572389671115054 -152.1164586321604 #
vertex $-1 $940 $1052 #
vertex $-1 $942 $1053 #
straight-curve $-1 -304.2329172643208 4.0572389671115054 0 0 0 -1 I I #
point $-1 -304.2329172643208 -4.0572389671115054 -152.1164586321604 #
straight-curve $-1 -304.2329172643208 0 -152.1164586321604 0 1 0 I I #
point $-1 -304.2329172643208 4.0572389671115054 -152.1164586321604 #
vertex $-1 $960 $1054 #
vertex $-1 $962 $1055 #
straight-curve $-1 -304.2329172643208 4.7312864507129468 0 0 0 -1 I I #
point $-1 -304.2329172643208 -4.7312864507129468 -152.1164586321604 #
straight-curve $-1 -304.2329172643208 0 -152.1164586321604 0 1 0 I I #
point $-1 -304.2329172643208 4.7312864507129468 -152.1164586321604 #
vertex $-1 $980 $1056 #
vertex $-1 $982 $1057 #
straight-curve $-1 -304.2329172643208 4.7312864507129468 0 0 0 -1 I I #
point $-1 -304.2329172643208 -4.7312864507129468 -152.1164586321604 #
straight-curve $-1 -304.2329172643208 0 -152.1164586321604 0 1 0 I I #
point $-1 -304.2329172643208 4.7312864507129468 -152.1164586321604 #
vertex $-1 $1000 $1058 #
vertex $-1 $1002 $1059 #
point $-1 0 0 0.25 #
point $-1 0 0 0.25 #
point $-1 0 0 0.25 #
point $-1 0 0 0.25 #
point $-1 0 0 0.25 #
point $-1 0 0 0.25 #
point $-1 0 0 0.25 #
point $-1 0 0 0.25 #
point $-1 0 0 0.125 #
point $-1 0 0 0.125 #
point $-1 0 0 0.125 #
point $-1 0 0 0.125 #
End-of-ACIS-data 