500 0 12 0           
7 Unknown 11 ACIS 5.0 NT 24 Fri Mar 26 02:17:45 1999 
-1 9.9999999999999995e-007 1e-010 
body $-1 $12 $-1 $13 #
body $-1 $14 $-1 $15 #
body $-1 $16 $-1 $17 #
body $-1 $18 $-1 $19 #
body $-1 $20 $-1 $21 #
body $-1 $22 $-1 $23 #
body $-1 $24 $-1 $25 #
body $-1 $26 $-1 $27 #
body $-1 $28 $-1 $29 #
body $-1 $30 $-1 $31 #
body $-1 $32 $-1 $33 #
body $-1 $34 $-1 $35 #
lump $-1 $-1 $36 $0 #
transform $-1 1 0 0 0 1 0 0 0 1 40.108645893734547 18.282746568132509 4.8557216188186283 1 rotate no_reflect no_shear #
lump $-1 $-1 $37 $1 #
transform $-1 1 0 0 0 1 0 0 0 1 40.108645893734547 18.282746568132509 4.8557216188186283 1 rotate no_reflect no_shear #
lump $-1 $-1 $38 $2 #
transform $-1 1 0 0 0 1 0 0 0 1 40.108645893734547 18.282746568132509 4.8557216188186283 1 rotate no_reflect no_shear #
lump $-1 $-1 $39 $3 #
transform $-1 1 0 0 0 1 0 0 0 1 40.108645893734547 18.282746568132509 4.8557216188186283 1 rotate no_reflect no_shear #
lump $-1 $-1 $40 $4 #
transform $-1 1 0 0 0 1 0 0 0 1 40.108645893734547 18.282746568132509 4.8557216188186283 1 rotate no_reflect no_shear #
lump $-1 $-1 $41 $5 #
transform $-1 1 0 0 0 1 0 0 0 1 40.108645893734547 18.282746568132509 4.8557216188186283 1 rotate no_reflect no_shear #
lump $-1 $-1 $42 $6 #
transform $-1 1 0 0 0 1 0 0 0 1 40.108645893734547 18.282746568132509 4.8557216188186283 1 rotate no_reflect no_shear #
lump $-1 $-1 $43 $7 #
transform $-1 1 0 0 0 1 0 0 0 1 40.108645893734547 18.282746568132509 4.8557216188186283 1 rotate no_reflect no_shear #
lump $-1 $-1 $44 $8 #
transform $-1 1 0 0 0 1 0 0 0 1 40.108645893734547 18.282746568132509 4.8557216188186283 1 rotate no_reflect no_shear #
lump $-1 $-1 $45 $9 #
transform $-1 1 0 0 0 1 0 0 0 1 40.108645893734547 18.282746568132509 4.8557216188186283 1 rotate no_reflect no_shear #
lump $-1 $-1 $46 $10 #
transform $-1 1 0 0 0 1 0 0 0 1 40.108645893734547 18.282746568132509 4.8557216188186283 1 rotate no_reflect no_shear #
lump $-1 $-1 $47 $11 #
transform $-1 1 0 0 0 1 0 0 0 1 40.108645893734547 18.282746568132509 4.8557216188186283 1 rotate no_reflect no_shear #
shell $-1 $-1 $-1 $48 $-1 $12 #
shell $-1 $-1 $-1 $49 $-1 $14 #
shell $-1 $-1 $-1 $50 $-1 $16 #
shell $-1 $-1 $-1 $51 $-1 $18 #
shell $-1 $-1 $-1 $52 $-1 $20 #
shell $-1 $-1 $-1 $53 $-1 $22 #
shell $-1 $-1 $-1 $54 $-1 $24 #
shell $-1 $-1 $-1 $55 $-1 $26 #
shell $-1 $-1 $-1 $56 $-1 $28 #
shell $-1 $-1 $-1 $57 $-1 $30 #
shell $-1 $-1 $-1 $58 $-1 $32 #
shell $-1 $-1 $-1 $59 $-1 $34 #
face $-1 $60 $61 $36 $-1 $62 forward single #
face $-1 $63 $64 $37 $-1 $65 forward single #
face $-1 $66 $67 $38 $-1 $68 reversed single #
face $-1 $69 $70 $39 $-1 $71 forward single #
face $-1 $72 $73 $40 $-1 $74 forward single #
face $-1 $75 $76 $41 $-1 $77 forward single #
face $-1 $78 $79 $42 $-1 $80 reversed single #
face $-1 $81 $82 $43 $-1 $83 forward single #
face $-1 $84 $85 $44 $-1 $86 forward single #
face $-1 $87 $88 $45 $-1 $89 forward single #
face $-1 $90 $91 $46 $-1 $92 reversed single #
face $-1 $93 $94 $47 $-1 $95 forward single #
face $-1 $96 $97 $36 $-1 $98 reversed single #
loop $-1 $-1 $99 $48 #
plane-surface $-1 0 0 4.8557216188186283 0 0 1 1 0 0 forward_v I I I I #
face $-1 $100 $101 $37 $-1 $102 reversed single #
loop $-1 $-1 $103 $49 #
plane-surface $-1 -40.108645893734547 0 0 1 0 0 0 0 -1 forward_v I I I I #
face $-1 $104 $105 $38 $-1 $106 reversed single #
loop $-1 $-1 $107 $50 #
plane-surface $-1 -34.609168834589532 31.305812804849516 87.332970797459325 1 0 0 0 -0.54463904215088732 -0.83867056331134215 forward_v I I I I #
face $-1 $108 $109 $39 $-1 $110 forward single #
loop $-1 $111 $112 $51 #
cone-surface $-1 -31.722430203238808 13.774149463350266 1.1447162210078634 0 -0.54463904215088732 -0.83867056331134215 1 0 0 1 I I 0 1 1 forward I I I I #
face $-1 $113 $114 $40 $-1 $115 forward single #
loop $-1 $116 $117 $52 #
cone-surface $-1 -27.392322256212722 13.774149463350266 1.1447162210078634 0 -0.54463904215088732 -0.83867056331134215 1 0 0 1 I I 0 1 1 forward I I I I #
face $-1 $118 $119 $41 $-1 $120 forward single #
loop $-1 $121 $122 $53 #
cone-surface $-1 -23.06221430918664 13.774149463350266 1.1447162210078634 0 -0.54463904215088732 -0.83867056331134215 1 0 0 1 I I 0 1 1 forward I I I I #
face $-1 $123 $124 $42 $-1 $125 reversed single #
loop $-1 $-1 $126 $54 #
plane-surface $-1 2.7497385295725048 31.305812804849516 87.332970797459325 1 0 0 0 -0.54463904215088732 -0.83867056331134215 forward_v I I I I #
face $-1 $127 $128 $43 $-1 $129 forward single #
loop $-1 $130 $131 $55 #
cone-surface $-1 5.6364771609232278 13.774149463350266 1.1447162210078634 0 -0.54463904215088732 -0.83867056331134215 1 0 0 1 I I 0 1 1 forward I I I I #
face $-1 $132 $133 $44 $-1 $134 forward single #
loop $-1 $135 $136 $56 #
cone-surface $-1 9.9665851079493137 13.774149463350266 1.1447162210078634 0 -0.54463904215088732 -0.83867056331134215 1 0 0 1 I I 0 1 1 forward I I I I #
face $-1 $137 $138 $45 $-1 $139 forward single #
loop $-1 $140 $141 $57 #
cone-surface $-1 14.296693054975393 13.774149463350266 1.1447162210078634 0 -0.54463904215088732 -0.83867056331134215 1 0 0 1 I I 0 1 1 forward I I I I #
face $-1 $142 $143 $46 $-1 $144 reversed single #
loop $-1 $-1 $145 $58 #
plane-surface $-1 -22.873541465767367 -71.95859230789992 60.568251370211634 -1 0 0 0 -0.66913061440640931 0.74314481823134659 forward_v I I I I #
face $-1 $146 $147 $47 $-1 $148 forward single #
loop $-1 $149 $150 $59 #
cone-surface $-1 -26.698134951685567 -14.938940676413795 1.5973586801441428 0 0.66913061440640931 -0.74314481823134659 1 0 0 1 I I 0 1 1 forward I I I I #
face $-1 $151 $152 $36 $-1 $153 reversed single #
loop $-1 $-1 $154 $60 #
plane-surface $-1 0 0 -4.8557216188186283 0 0 1 1 0 0 forward_v I I I I #
coedge $-1 $155 $156 $157 $158 forward $61 $-1 #
face $-1 $159 $160 $37 $-1 $161 forward single #
loop $-1 $-1 $162 $63 #
plane-surface $-1 0 18.282746568132509 0 0 -1 0 0 0 -1 forward_v I I I I #
coedge $-1 $163 $164 $165 $166 forward $64 $-1 #
face $-1 $167 $168 $38 $-1 $169 reversed single #
loop $-1 $-1 $170 $66 #
plane-surface $-1 -27.392322256212722 -12.383656158215892 20.05708950675232 0 0.54463904215088732 0.83867056331134215 1 0 0 forward_v I I I I #
coedge $-1 $171 $172 $173 $174 reversed $67 $-1 #
face $-1 $-1 $175 $39 $-1 $176 forward single #
loop $-1 $177 $178 $69 #
cone-surface $-1 -31.722430203238808 12.622407512341042 -0.62881082367030405 0 -0.54463904215088732 -0.83867056331134215 0.5 0 0 1 I I -0.70710678118654746 0.70710678118654746 0.5 forward I I I I #
loop $-1 $-1 $179 $51 #
coedge $-1 $112 $112 $180 $181 reversed $70 $-1 #
face $-1 $-1 $182 $40 $-1 $183 forward single #
loop $-1 $184 $185 $72 #
cone-surface $-1 -27.392322256212722 12.622407512341042 -0.62881082367030405 0 -0.54463904215088732 -0.83867056331134215 0.5 0 0 1 I I -0.70710678118654746 0.70710678118654746 0.5 forward I I I I #
loop $-1 $-1 $186 $52 #
coedge $-1 $117 $117 $187 $188 reversed $73 $-1 #
face $-1 $-1 $189 $41 $-1 $190 forward single #
loop $-1 $191 $192 $75 #
cone-surface $-1 -23.06221430918664 12.622407512341042 -0.62881082367030405 0 -0.54463904215088732 -0.83867056331134215 0.5 0 0 1 I I -0.70710678118654746 0.70710678118654746 0.5 forward I I I I #
loop $-1 $-1 $193 $53 #
coedge $-1 $122 $122 $194 $195 reversed $76 $-1 #
face $-1 $196 $197 $42 $-1 $198 reversed single #
loop $-1 $-1 $199 $78 #
plane-surface $-1 9.9665851079493137 -12.383656158215892 20.05708950675232 0 0.54463904215088732 0.83867056331134215 1 0 0 forward_v I I I I #
coedge $-1 $200 $201 $202 $203 reversed $79 $-1 #
face $-1 $-1 $204 $43 $-1 $205 forward single #
loop $-1 $206 $207 $81 #
cone-surface $-1 5.6364771609232278 12.622407512341042 -0.62881082367030405 0 -0.54463904215088732 -0.83867056331134215 0.5 0 0 1 I I -0.70710678118654746 0.70710678118654746 0.5 forward I I I I #
loop $-1 $-1 $208 $55 #
coedge $-1 $131 $131 $209 $210 reversed $82 $-1 #
face $-1 $-1 $211 $44 $-1 $212 forward single #
loop $-1 $213 $214 $84 #
cone-surface $-1 9.9665851079493137 12.622407512341042 -0.62881082367030405 0 -0.54463904215088732 -0.83867056331134215 0.5 0 0 1 I I -0.70710678118654746 0.70710678118654746 0.5 forward I I I I #
loop $-1 $-1 $215 $56 #
coedge $-1 $136 $136 $216 $217 reversed $85 $-1 #
face $-1 $-1 $218 $45 $-1 $219 forward single #
loop $-1 $220 $221 $87 #
cone-surface $-1 14.296693054975393 12.622407512341042 -0.62881082367030405 0 -0.54463904215088732 -0.83867056331134215 0.5 0 0 1 I I -0.70710678118654746 0.70710678118654746 0.5 forward I I I I #
loop $-1 $-1 $222 $57 #
coedge $-1 $141 $141 $223 $224 reversed $88 $-1 #
face $-1 $225 $226 $46 $-1 $227 reversed single #
loop $-1 $-1 $228 $90 #
plane-surface $-1 -26.698134951685564 -18.282746568132517 0.95518664580202284 0 -0.66913061440640931 0.74314481823134659 1 0 0 forward_v I I I I #
coedge $-1 $229 $230 $231 $232 reversed $91 $-1 #
face $-1 $-1 $233 $47 $-1 $234 forward single #
loop $-1 $235 $236 $93 #
cone-surface $-1 -26.698134951685567 -13.426560908102815 -0.082309181137715015 0 0.66913061440640931 -0.74314481823134659 0.5 0 0 1 I I -0.70710678118654768 0.70710678118654735 0.5 forward I I I I #
loop $-1 $-1 $237 $59 #
coedge $-1 $150 $150 $238 $239 reversed $94 $-1 #
face $-1 $240 $241 $36 $-1 $242 reversed single #
loop $-1 $-1 $243 $96 #
plane-surface $-1 0 -18.282746568132509 0 0 1 0 0 0 1 forward_v I I I I #
coedge $-1 $244 $245 $246 $247 forward $97 $-1 #
coedge $-1 $248 $99 $249 $250 forward $61 $-1 #
coedge $-1 $99 $248 $251 $252 forward $61 $-1 #
coedge $-1 $253 $254 $99 $158 reversed $255 $-1 #
edge $-1 $256 -18.282746568132509 $257 18.282746568132509 $157 $258 forward 7 unknown #
face $-1 $259 $260 $37 $-1 $261 reversed single #
loop $-1 $-1 $165 $100 #
plane-surface $-1 -42.858384423307058 0 -1.8557216188186283 0 0 1 1 0 0 forward_v I I I I #
coedge $-1 $262 $263 $164 $264 forward $101 $-1 #
coedge $-1 $265 $103 $266 $267 reversed $64 $-1 #
coedge $-1 $103 $265 $162 $264 reversed $64 $-1 #
coedge $-1 $268 $269 $103 $166 reversed $160 $-1 #
edge $-1 $270 -18.282746568132509 $271 18.282746568132509 $165 $272 forward 7 unknown #
face $-1 $273 $274 $38 $-1 $275 forward single #
loop $-1 $-1 $276 $104 #
plane-surface $-1 -20.175475677835912 31.305812804849516 87.332970797459325 -1 0 0 0 0.54463904215088732 0.83867056331134215 forward_v I I I I #
coedge $-1 $277 $278 $279 $280 reversed $105 $-1 #
coedge $-1 $172 $107 $281 $282 reversed $67 $-1 #
coedge $-1 $107 $171 $277 $283 reversed $67 $-1 #
coedge $-1 $279 $284 $107 $174 forward $274 $-1 #
edge $-1 $285 -2.6298401657077513 $286 4.6285091839891841 $173 $287 forward 7 unknown #
loop $-1 $-1 $180 $108 #
plane-surface $-1 -27.392322256212722 -12.383656158215892 20.05708950675232 0 0.54463904215088732 0.83867056331134215 1 0 0 forward_v I I I I #
loop $-1 $-1 $288 $69 #
coedge $-1 $178 $178 $179 $289 reversed $109 $-1 #
coedge $-1 $179 $179 $178 $289 forward $111 $-1 #
coedge $-1 $180 $180 $112 $181 forward $175 $-1 #
edge $-1 $290 7.6417322549491591e-016 $290 6.2831853071796013 $180 $291 forward 7 unknown #
loop $-1 $-1 $187 $113 #
plane-surface $-1 -27.392322256212722 -12.383656158215892 20.05708950675232 0 0.54463904215088732 0.83867056331134215 1 0 0 forward_v I I I I #
loop $-1 $-1 $292 $72 #
coedge $-1 $185 $185 $186 $293 reversed $114 $-1 #
coedge $-1 $186 $186 $185 $293 forward $116 $-1 #
coedge $-1 $187 $187 $117 $188 forward $182 $-1 #
edge $-1 $294 7.6417322549491591e-016 $294 6.2831853071796013 $187 $295 forward 7 unknown #
loop $-1 $-1 $194 $118 #
plane-surface $-1 -27.392322256212722 -12.383656158215892 20.05708950675232 0 0.54463904215088732 0.83867056331134215 1 0 0 forward_v I I I I #
loop $-1 $-1 $296 $75 #
coedge $-1 $192 $192 $193 $297 reversed $119 $-1 #
coedge $-1 $193 $193 $192 $297 forward $121 $-1 #
coedge $-1 $194 $194 $122 $195 forward $189 $-1 #
edge $-1 $298 7.6417322549491591e-016 $298 6.2831853071796013 $194 $299 forward 7 unknown #
face $-1 $300 $301 $42 $-1 $302 forward single #
loop $-1 $-1 $303 $123 #
plane-surface $-1 17.183431686326124 31.305812804849516 87.332970797459325 -1 0 0 0 0.54463904215088732 0.83867056331134215 forward_v I I I I #
coedge $-1 $304 $305 $306 $307 reversed $124 $-1 #
coedge $-1 $201 $126 $308 $309 reversed $79 $-1 #
coedge $-1 $126 $200 $304 $310 reversed $79 $-1 #
coedge $-1 $306 $311 $126 $203 forward $301 $-1 #
edge $-1 $312 -2.6298401657077513 $313 4.6285091839891841 $202 $314 forward 7 unknown #
loop $-1 $-1 $209 $127 #
plane-surface $-1 9.9665851079493137 -12.383656158215892 20.05708950675232 0 0.54463904215088732 0.83867056331134215 1 0 0 forward_v I I I I #
loop $-1 $-1 $315 $81 #
coedge $-1 $207 $207 $208 $316 reversed $128 $-1 #
coedge $-1 $208 $208 $207 $316 forward $130 $-1 #
coedge $-1 $209 $209 $131 $210 forward $204 $-1 #
edge $-1 $317 7.6417322549491591e-016 $317 6.2831853071796013 $209 $318 forward 7 unknown #
loop $-1 $-1 $216 $132 #
plane-surface $-1 9.9665851079493137 -12.383656158215892 20.05708950675232 0 0.54463904215088732 0.83867056331134215 1 0 0 forward_v I I I I #
loop $-1 $-1 $319 $84 #
coedge $-1 $214 $214 $215 $320 reversed $133 $-1 #
coedge $-1 $215 $215 $214 $320 forward $135 $-1 #
coedge $-1 $216 $216 $136 $217 forward $211 $-1 #
edge $-1 $321 7.6417322549491591e-016 $321 6.2831853071796013 $216 $322 forward 7 unknown #
loop $-1 $-1 $223 $137 #
plane-surface $-1 9.9665851079493137 -12.383656158215892 20.05708950675232 0 0.54463904215088732 0.83867056331134215 1 0 0 forward_v I I I I #
loop $-1 $-1 $323 $87 #
coedge $-1 $221 $221 $222 $324 reversed $138 $-1 #
coedge $-1 $222 $222 $221 $324 forward $140 $-1 #
coedge $-1 $223 $223 $141 $224 forward $218 $-1 #
edge $-1 $325 7.6417322549491591e-016 $325 6.2831853071796013 $223 $326 forward 7 unknown #
face $-1 $327 $328 $46 $-1 $329 reversed single #
loop $-1 $-1 $330 $142 #
plane-surface $-1 -30.52272843760376 -71.95859230789992 60.568251370211634 1 0 0 0 0.66913061440640931 -0.74314481823134659 forward_v I I I I #
coedge $-1 $331 $332 $333 $334 reversed $143 $-1 #
coedge $-1 $230 $145 $335 $336 reversed $91 $-1 #
coedge $-1 $145 $229 $331 $337 reversed $91 $-1 #
coedge $-1 $333 $338 $145 $232 forward $339 $-1 #
edge $-1 $340 17.696549585817451 $341 22.028532447039332 $231 $342 forward 7 unknown #
loop $-1 $-1 $238 $146 #
plane-surface $-1 -26.698134951685564 -18.282746568132517 0.95518664580202284 0 -0.66913061440640931 0.74314481823134659 1 0 0 forward_v I I I I #
loop $-1 $-1 $343 $93 #
coedge $-1 $236 $236 $237 $344 reversed $147 $-1 #
coedge $-1 $237 $237 $236 $344 forward $149 $-1 #
coedge $-1 $238 $238 $150 $239 forward $233 $-1 #
edge $-1 $345 2.3430270752219877e-015 $345 6.2831853071796031 $238 $346 forward 7 unknown #
face $-1 $347 $348 $36 $-1 $349 reversed single #
loop $-1 $-1 $350 $151 #
plane-surface $-1 -40.108645893734547 0 0 1 0 0 0 0 -1 forward_v I I I I #
coedge $-1 $351 $251 $350 $352 forward $152 $-1 #
coedge $-1 $353 $154 $351 $354 forward $97 $-1 #
coedge $-1 $154 $353 $355 $356 forward $97 $-1 #
coedge $-1 $254 $253 $154 $247 reversed $255 $-1 #
edge $-1 $357 -18.282746568132509 $358 18.282746568132509 $246 $359 forward 7 unknown #
coedge $-1 $156 $155 $360 $361 forward $61 $-1 #
coedge $-1 $362 $363 $155 $250 reversed $348 $-1 #
edge $-1 $257 -40.108645893734547 $364 40.108645893734547 $249 $365 forward 7 unknown #
coedge $-1 $243 $366 $156 $252 reversed $152 $-1 #
edge $-1 $367 -40.108645893734547 $256 40.108645893734547 $251 $368 forward 7 unknown #
coedge $-1 $246 $157 $366 $369 forward $255 $-1 #
coedge $-1 $157 $246 $362 $370 reversed $255 $-1 #
loop $-1 $-1 $253 $347 #
vertex $-1 $158 $371 #
vertex $-1 $158 $372 #
straight-curve $-1 40.108645893734547 0 4.8557216188186283 0 1 0 I I #
face $-1 $373 $374 $37 $-1 $375 reversed single #
loop $-1 $-1 $376 $159 #
plane-surface $-1 -45.608122952879569 0 -3.3557216188186283 1 0 0 0 0 -1 forward_v I I I I #
coedge $-1 $377 $162 $378 $379 reversed $101 $-1 #
coedge $-1 $162 $377 $268 $380 reversed $101 $-1 #
edge $-1 $270 1.8557216188186283 $381 4.8557216188186283 $162 $382 forward 7 unknown #
coedge $-1 $164 $163 $383 $384 reversed $64 $-1 #
coedge $-1 $385 $386 $163 $267 forward $387 $-1 #
edge $-1 $388 -4.8557216188186283 $271 -1.8557216188186283 $266 $389 forward 7 unknown #
coedge $-1 $390 $165 $263 $380 forward $160 $-1 #
coedge $-1 $165 $390 $385 $391 forward $160 $-1 #
vertex $-1 $264 $392 #
vertex $-1 $391 $393 #
straight-curve $-1 -40.108645893734547 0 -1.8557216188186283 0 -1 0 I I #
face $-1 $-1 $394 $38 $-1 $395 reversed single #
loop $-1 $-1 $173 $167 #
plane-surface $-1 0 0 4.8557216188186283 0 0 1 1 0 0 forward_v I I I I #
coedge $-1 $396 $397 $398 $399 reversed $168 $-1 #
coedge $-1 $400 $170 $172 $283 forward $105 $-1 #
coedge $-1 $170 $400 $396 $401 forward $105 $-1 #
coedge $-1 $398 $173 $170 $280 forward $274 $-1 #
edge $-1 $286 -20.913007706483171 $402 -6.4793145497295512 $279 $403 forward 7 unknown #
coedge $-1 $404 $405 $171 $282 forward $394 $-1 #
edge $-1 $406 -43.524391049487576 $285 -38.810763779911035 $281 $407 forward 7 unknown #
edge $-1 $286 27.910903757285713 $406 36.565493136265026 $172 $408 forward 7 unknown #
coedge $-1 $173 $398 $404 $409 forward $274 $-1 #
vertex $-1 $282 $410 #
vertex $-1 $174 $411 #
straight-curve $-1 -34.609168834589532 15.652906402424758 4.8557216188186274 0 -1 0 I I #
coedge $-1 $288 $288 $-1 $412 reversed $177 $-1 #
edge $-1 $413 0 $413 6.2831853071796004 $178 $414 forward 7 unknown #
vertex $-1 $181 $415 #
ellipse-curve $-1 -31.722430203238808 14.653571893284047 2.4989079840303585 0 0.54463904215088732 0.83867056331134215 1 0 0 1 I I #
coedge $-1 $292 $292 $-1 $416 reversed $184 $-1 #
edge $-1 $417 0 $417 6.2831853071796004 $185 $418 forward 7 unknown #
vertex $-1 $188 $419 #
ellipse-curve $-1 -27.392322256212722 14.653571893284047 2.4989079840303585 0 0.54463904215088732 0.83867056331134215 1 0 0 1 I I #
coedge $-1 $296 $296 $-1 $420 reversed $191 $-1 #
edge $-1 $421 0 $421 6.2831853071796004 $192 $422 forward 7 unknown #
vertex $-1 $195 $423 #
ellipse-curve $-1 -23.06221430918664 14.653571893284047 2.4989079840303585 0 0.54463904215088732 0.83867056331134215 1 0 0 1 I I #
face $-1 $-1 $424 $42 $-1 $425 reversed single #
loop $-1 $-1 $202 $196 #
plane-surface $-1 0 0 4.8557216188186283 0 0 1 1 0 0 forward_v I I I I #
coedge $-1 $426 $427 $428 $429 reversed $197 $-1 #
coedge $-1 $430 $199 $201 $310 forward $124 $-1 #
coedge $-1 $199 $430 $426 $431 forward $124 $-1 #
coedge $-1 $428 $202 $199 $307 forward $301 $-1 #
edge $-1 $313 -2.2335540244021521 $432 12.200139132351467 $306 $433 forward 7 unknown #
coedge $-1 $434 $435 $200 $309 forward $424 $-1 #
edge $-1 $436 -43.524391049487576 $312 -38.810763779911035 $308 $437 forward 7 unknown #
edge $-1 $313 27.910903757285713 $436 36.565493136265026 $201 $438 forward 7 unknown #
coedge $-1 $202 $428 $434 $439 forward $301 $-1 #
vertex $-1 $203 $440 #
vertex $-1 $203 $441 #
straight-curve $-1 2.7497385295725048 15.652906402424758 4.8557216188186274 0 -1 0 I I #
coedge $-1 $315 $315 $-1 $442 reversed $206 $-1 #
edge $-1 $443 0 $443 6.2831853071796004 $207 $444 forward 7 unknown #
vertex $-1 $210 $445 #
ellipse-curve $-1 5.6364771609232278 14.653571893284047 2.4989079840303585 0 0.54463904215088732 0.83867056331134215 1 0 0 1 I I #
coedge $-1 $319 $319 $-1 $446 reversed $213 $-1 #
edge $-1 $447 0 $447 6.2831853071796004 $214 $448 forward 7 unknown #
vertex $-1 $217 $449 #
ellipse-curve $-1 9.9665851079493137 14.653571893284047 2.4989079840303585 0 0.54463904215088732 0.83867056331134215 1 0 0 1 I I #
coedge $-1 $323 $323 $-1 $450 reversed $220 $-1 #
edge $-1 $451 0 $451 6.2831853071796004 $221 $452 forward 7 unknown #
vertex $-1 $224 $453 #
ellipse-curve $-1 14.296693054975393 14.653571893284047 2.4989079840303585 0 0.54463904215088732 0.83867056331134215 1 0 0 1 I I #
face $-1 $-1 $339 $46 $-1 $454 forward single #
loop $-1 $-1 $455 $225 #
plane-surface $-1 0 -18.282746568132509 0 0 1 0 0 0 1 forward_v I I I I #
coedge $-1 $456 $457 $458 $459 reversed $226 $-1 #
coedge $-1 $460 $228 $230 $337 forward $143 $-1 #
coedge $-1 $228 $460 $456 $461 forward $143 $-1 #
coedge $-1 $458 $231 $228 $334 forward $339 $-1 #
edge $-1 $341 9.5244739899245854 $462 17.17366096176098 $333 $463 forward 7 unknown #
coedge $-1 $464 $465 $229 $336 forward $328 $-1 #
edge $-1 $466 -29.328939039303787 $340 -25.42840406628719 $335 $467 forward 7 unknown #
edge $-1 $341 -5.8292579789923362 $466 -9.5890899667747578e-015 $230 $468 forward 7 unknown #
coedge $-1 $231 $458 $464 $469 forward $339 $-1 #
loop $-1 $-1 $458 $327 #
vertex $-1 $336 $470 #
vertex $-1 $232 $471 #
straight-curve $-1 -22.873541465767367 -35.97929615394996 4.8557216188186274 0 1 0 I I #
coedge $-1 $343 $343 $-1 $472 reversed $235 $-1 #
edge $-1 $473 0 $473 6.2831853071796004 $236 $474 forward 7 unknown #
vertex $-1 $239 $475 #
ellipse-curve $-1 -26.698134951685567 -16.116755137521572 2.9054541323103278 0 -0.66913061440640931 0.74314481823134659 1 0 0 1 I I #
face $-1 $-1 $255 $36 $-1 $476 reversed single #
loop $-1 $-1 $362 $240 #
plane-surface $-1 0 18.282746568132509 0 0 -1 0 0 0 -1 forward_v I I I I #
coedge $-1 $360 $477 $243 $352 reversed $241 $-1 #
coedge $-1 $366 $243 $244 $354 reversed $152 $-1 #
edge $-1 $367 -4.8557216188186283 $478 4.8557216188186283 $350 $479 forward 7 unknown #
coedge $-1 $245 $244 $477 $480 forward $97 $-1 #
edge $-1 $358 -40.108645893734547 $478 40.108645893734547 $351 $481 forward 7 unknown #
coedge $-1 $363 $362 $245 $356 reversed $348 $-1 #
edge $-1 $482 -40.108645893734547 $357 40.108645893734547 $355 $483 forward 7 unknown #
vertex $-1 $247 $484 #
vertex $-1 $369 $485 #
straight-curve $-1 40.108645893734547 0 -4.8557216188186283 0 -1 0 I I #
coedge $-1 $486 $350 $248 $361 reversed $241 $-1 #
edge $-1 $364 -18.282746568132509 $367 18.282746568132509 $360 $487 forward 7 unknown #
coedge $-1 $355 $249 $254 $370 forward $348 $-1 #
coedge $-1 $249 $355 $486 $488 reversed $348 $-1 #
vertex $-1 $250 $489 #
straight-curve $-1 0 18.282746568132509 4.8557216188186283 -1 0 0 I I #
coedge $-1 $251 $351 $253 $369 reversed $152 $-1 #
vertex $-1 $361 $490 #
straight-curve $-1 0 -18.282746568132509 4.8557216188186283 1 0 0 I I #
edge $-1 $256 -4.8557216188186283 $358 4.8557216188186283 $253 $491 forward 7 unknown #
edge $-1 $257 -4.8557216188186283 $357 4.8557216188186283 $254 $492 forward 7 unknown #
point $-1 40.108645893734547 -18.282746568132509 4.8557216188186283 #
point $-1 40.108645893734547 18.282746568132509 4.8557216188186283 #
face $-1 $-1 $387 $37 $-1 $493 reversed single #
loop $-1 $-1 $383 $259 #
plane-surface $-1 0 0 -4.8557216188186283 0 0 1 1 0 0 forward_v I I I I #
coedge $-1 $494 $495 $377 $496 forward $260 $-1 #
coedge $-1 $263 $262 $376 $496 reversed $101 $-1 #
coedge $-1 $383 $497 $262 $379 forward $374 $-1 #
edge $-1 $498 -45.608122952879569 $381 -40.108645893734547 $262 $499 forward 7 unknown #
edge $-1 $270 -2.749738529572511 $500 2.749738529572511 $263 $501 forward 7 unknown #
vertex $-1 $264 $502 #
straight-curve $-1 -40.108645893734547 18.282746568132509 0 0 0 -1 I I #
coedge $-1 $503 $378 $265 $384 forward $374 $-1 #
edge $-1 $381 -18.282746568132509 $388 18.282746568132509 $383 $504 forward 7 unknown #
coedge $-1 $505 $266 $269 $391 reversed $387 $-1 #
coedge $-1 $266 $505 $503 $506 reversed $387 $-1 #
loop $-1 $-1 $266 $373 #
vertex $-1 $506 $507 #
straight-curve $-1 -40.108645893734547 -18.282746568132509 0 0 0 1 I I #
coedge $-1 $269 $268 $495 $508 forward $160 $-1 #
edge $-1 $509 -2.749738529572511 $271 2.749738529572511 $385 $510 forward 7 unknown #
point $-1 -40.108645893734547 18.282746568132509 -1.8557216188186283 #
point $-1 -40.108645893734547 -18.282746568132509 -1.8557216188186283 #
loop $-1 $-1 $281 $273 #
plane-surface $-1 0 18.282746568132509 0 0 -1 0 0 0 -1 forward_v I I I I #
coedge $-1 $397 $276 $278 $401 reversed $168 $-1 #
coedge $-1 $276 $396 $511 $512 reversed $168 $-1 #
coedge $-1 $284 $279 $276 $399 forward $274 $-1 #
edge $-1 $402 -4.6285091839891841 $513 2.6298401657077513 $398 $514 forward 7 unknown #
coedge $-1 $278 $277 $405 $515 reversed $105 $-1 #
edge $-1 $516 -36.565493136265026 $402 -27.910903757285713 $396 $517 forward 7 unknown #
vertex $-1 $280 $518 #
straight-curve $-1 -13.696161128106361 11.024397218435576 4.8557216188186274 1 0 0 I I #
coedge $-1 $511 $281 $284 $409 reversed $394 $-1 #
coedge $-1 $281 $511 $400 $515 forward $394 $-1 #
vertex $-1 $282 $519 #
straight-curve $-1 -34.609168834589532 18.282746568132509 43.666485398729662 0 0 1 I I #
straight-curve $-1 -34.609168834589532 -12.383656158215892 20.05708950675232 0 0.83867056331134215 -0.54463904215088732 I I #
edge $-1 $513 20.175475677835912 $285 34.609168834589532 $404 $520 forward 7 unknown #
point $-1 -34.609168834589532 18.282746568132509 4.8557216188186283 #
point $-1 -34.609168834589532 11.024397218435574 4.8557216188186274 #
edge $-1 $521 1 $521 0 $288 $-1 forward 7 unknown #
vertex $-1 $289 $522 #
ellipse-curve $-1 -31.722430203238808 12.894727033416485 -0.20947554201463298 0 0.54463904215088732 0.83867056331134215 1 0 0 1 I I #
point $-1 -30.722430203238808 14.653571893284049 2.4989079840303599 #
edge $-1 $523 1 $523 0 $292 $-1 forward 7 unknown #
vertex $-1 $293 $524 #
ellipse-curve $-1 -27.392322256212722 12.894727033416485 -0.20947554201463298 0 0.54463904215088732 0.83867056331134215 1 0 0 1 I I #
point $-1 -26.392322256212722 14.653571893284049 2.4989079840303599 #
edge $-1 $525 1 $525 0 $296 $-1 forward 7 unknown #
vertex $-1 $297 $526 #
ellipse-curve $-1 -23.06221430918664 12.894727033416485 -0.20947554201463298 0 0.54463904215088732 0.83867056331134215 1 0 0 1 I I #
point $-1 -22.06221430918664 14.653571893284049 2.4989079840303599 #
loop $-1 $-1 $308 $300 #
plane-surface $-1 0 18.282746568132509 0 0 -1 0 0 0 -1 forward_v I I I I #
coedge $-1 $427 $303 $305 $431 reversed $197 $-1 #
coedge $-1 $303 $426 $527 $528 reversed $197 $-1 #
coedge $-1 $311 $306 $303 $429 forward $301 $-1 #
edge $-1 $432 -4.6285091839891841 $529 2.6298401657077513 $428 $530 forward 7 unknown #
coedge $-1 $305 $304 $435 $531 reversed $124 $-1 #
edge $-1 $532 -36.565493136265026 $432 -27.910903757285713 $426 $533 forward 7 unknown #
vertex $-1 $307 $534 #
straight-curve $-1 4.9832925539746569 11.024397218435576 4.8557216188186274 1 0 0 I I #
coedge $-1 $527 $308 $311 $439 reversed $424 $-1 #
coedge $-1 $308 $527 $430 $531 forward $424 $-1 #
vertex $-1 $309 $535 #
straight-curve $-1 2.7497385295725048 18.282746568132509 43.666485398729662 0 0 1 I I #
straight-curve $-1 2.7497385295725048 -12.383656158215892 20.05708950675232 0 0.83867056331134215 -0.54463904215088732 I I #
edge $-1 $529 -17.183431686326124 $312 -2.7497385295725048 $434 $536 forward 7 unknown #
point $-1 2.7497385295725048 18.282746568132509 4.8557216188186283 #
point $-1 2.7497385295725048 11.024397218435574 4.8557216188186274 #
edge $-1 $537 1 $537 0 $315 $-1 forward 7 unknown #
vertex $-1 $316 $538 #
ellipse-curve $-1 5.6364771609232278 12.894727033416485 -0.20947554201463298 0 0.54463904215088732 0.83867056331134215 1 0 0 1 I I #
point $-1 6.6364771609232278 14.653571893284049 2.4989079840303599 #
edge $-1 $539 1 $539 0 $319 $-1 forward 7 unknown #
vertex $-1 $320 $540 #
ellipse-curve $-1 9.9665851079493137 12.894727033416485 -0.20947554201463298 0 0.54463904215088732 0.83867056331134215 1 0 0 1 I I #
point $-1 10.966585107949314 14.653571893284049 2.4989079840303599 #
edge $-1 $541 1 $541 0 $323 $-1 forward 7 unknown #
vertex $-1 $324 $542 #
ellipse-curve $-1 14.296693054975393 12.894727033416485 -0.20947554201463298 0 0.54463904215088732 0.83867056331134215 1 0 0 1 I I #
point $-1 15.296693054975393 14.653571893284049 2.4989079840303599 #
plane-surface $-1 0 0 4.8557216188186283 0 0 1 1 0 0 forward_v I I I I #
coedge $-1 $465 $464 $457 $543 forward $328 $-1 #
coedge $-1 $457 $330 $332 $461 reversed $226 $-1 #
coedge $-1 $330 $456 $455 $543 reversed $226 $-1 #
coedge $-1 $338 $333 $330 $459 forward $339 $-1 #
edge $-1 $462 -22.028532447039332 $544 -17.696549585817451 $458 $545 forward 7 unknown #
coedge $-1 $332 $331 $465 $546 reversed $143 $-1 #
edge $-1 $547 9.5890899667747578e-015 $462 5.8292579789923362 $456 $548 forward 7 unknown #
vertex $-1 $334 $549 #
straight-curve $-1 -13.349067475842782 -13.950763706910632 4.8557216188186283 -1 0 0 I I #
coedge $-1 $455 $335 $338 $469 reversed $328 $-1 #
coedge $-1 $335 $455 $460 $546 forward $328 $-1 #
vertex $-1 $336 $550 #
straight-curve $-1 -22.873541465767367 -18.282746568132509 30.284125685105817 0 0 1 I I #
straight-curve $-1 -22.873541465767367 -18.282746568132517 0.95518664580202284 0 -0.74314481823134659 -0.66913061440640931 I I #
edge $-1 $544 -30.52272843760376 $340 -22.873541465767367 $464 $551 forward 7 unknown #
point $-1 -22.873541465767367 -18.282746568132509 4.8557216188186283 #
point $-1 -22.873541465767367 -13.95076370691063 4.8557216188186292 #
edge $-1 $552 1 $552 0 $343 $-1 forward 7 unknown #
vertex $-1 $344 $553 #
ellipse-curve $-1 -26.698134951685567 -13.761126215306019 0.28926322797795812 0 -0.66913061440640931 0.74314481823134659 1 0 0 1 I I #
point $-1 -25.698134951685567 -16.116755137521569 2.9054541323103273 #
plane-surface $-1 40.108645893734547 0 0 -1 0 0 0 0 1 forward_v I I I I #
coedge $-1 $350 $486 $353 $480 reversed $241 $-1 #
vertex $-1 $480 $554 #
straight-curve $-1 -40.108645893734547 -18.282746568132509 0 0 0 -1 I I #
edge $-1 $478 -18.282746568132509 $482 18.282746568132509 $477 $555 forward 7 unknown #
straight-curve $-1 0 -18.282746568132509 -4.8557216188186283 -1 0 0 I I #
vertex $-1 $356 $556 #
straight-curve $-1 0 18.282746568132509 -4.8557216188186283 1 0 0 I I #
point $-1 40.108645893734547 18.282746568132509 -4.8557216188186283 #
point $-1 40.108645893734547 -18.282746568132509 -4.8557216188186283 #
coedge $-1 $477 $360 $363 $488 forward $241 $-1 #
straight-curve $-1 -40.108645893734547 0 4.8557216188186283 0 -1 0 I I #
edge $-1 $364 -4.8557216188186283 $482 4.8557216188186283 $363 $557 forward 7 unknown #
point $-1 -40.108645893734547 18.282746568132509 4.8557216188186283 #
point $-1 -40.108645893734547 -18.282746568132509 4.8557216188186283 #
straight-curve $-1 40.108645893734547 -18.282746568132509 0 0 0 -1 I I #
straight-curve $-1 40.108645893734547 18.282746568132509 0 0 0 -1 I I #
plane-surface $-1 0 -18.282746568132509 0 0 1 0 0 0 1 forward_v I I I I #
coedge $-1 $558 $376 $497 $559 reversed $260 $-1 #
coedge $-1 $376 $558 $390 $508 reversed $260 $-1 #
edge $-1 $500 -1.5 $498 1.5 $377 $560 forward 7 unknown #
coedge $-1 $378 $503 $494 $559 forward $374 $-1 #
vertex $-1 $379 $561 #
straight-curve $-1 0 18.282746568132509 -4.8557216188186283 1 0 0 I I #
vertex $-1 $380 $562 #
straight-curve $-1 -42.858384423307058 18.282746568132509 -1.8557216188186283 -1 0 0 I I #
point $-1 -40.108645893734547 18.282746568132509 -4.8557216188186283 #
coedge $-1 $497 $383 $386 $506 forward $374 $-1 #
straight-curve $-1 -40.108645893734547 0 -4.8557216188186283 0 -1 0 I I #
coedge $-1 $386 $385 $558 $563 forward $387 $-1 #
edge $-1 $388 -2.749738529572511 $564 2.749738529572511 $386 $565 forward 7 unknown #
point $-1 -40.108645893734547 -18.282746568132509 -4.8557216188186283 #
edge $-1 $500 -18.282746568132509 $509 18.282746568132509 $495 $566 forward 7 unknown #
vertex $-1 $508 $567 #
straight-curve $-1 -42.858384423307058 -18.282746568132509 -1.8557216188186283 1 0 0 I I #
coedge $-1 $405 $404 $397 $512 forward $394 $-1 #
edge $-1 $513 38.810763779911035 $516 43.524391049487576 $511 $568 forward 7 unknown #
vertex $-1 $409 $569 #
straight-curve $-1 -20.175475677835912 15.652906402424758 4.8557216188186274 0 1 0 I I #
edge $-1 $516 6.4793145497295512 $406 20.913007706483171 $405 $570 forward 7 unknown #
vertex $-1 $515 $571 #
straight-curve $-1 -20.175475677835912 -12.383656158215892 20.05708950675232 0 -0.83867056331134215 0.54463904215088732 I I #
point $-1 -20.175475677835912 11.024397218435574 4.8557216188186274 #
point $-1 -34.609168834589532 18.282746568132513 0.14209434924208963 #
straight-curve $-1 0 18.282746568132509 4.8557216188186283 -1 0 0 I I #
vertex $-1 $412 $572 #
point $-1 -30.722430203238808 12.894727033416485 -0.20947554201463298 #
vertex $-1 $416 $573 #
point $-1 -26.392322256212722 12.894727033416485 -0.20947554201463298 #
vertex $-1 $420 $574 #
point $-1 -22.06221430918664 12.894727033416485 -0.20947554201463298 #
coedge $-1 $435 $434 $427 $528 forward $424 $-1 #
edge $-1 $529 38.810763779911035 $532 43.524391049487576 $527 $575 forward 7 unknown #
vertex $-1 $439 $576 #
straight-curve $-1 17.183431686326124 15.652906402424758 4.8557216188186274 0 1 0 I I #
edge $-1 $532 -12.200139132351467 $436 2.2335540244021521 $435 $577 forward 7 unknown #
vertex $-1 $531 $578 #
straight-curve $-1 17.183431686326124 -12.383656158215892 20.05708950675232 0 -0.83867056331134215 0.54463904215088732 I I #
point $-1 17.183431686326124 11.024397218435574 4.8557216188186274 #
point $-1 2.7497385295725048 18.282746568132513 0.14209434924208963 #
straight-curve $-1 0 18.282746568132509 4.8557216188186283 -1 0 0 I I #
vertex $-1 $442 $579 #
point $-1 6.6364771609232278 12.894727033416485 -0.20947554201463298 #
vertex $-1 $446 $580 #
point $-1 10.966585107949314 12.894727033416485 -0.20947554201463298 #
vertex $-1 $450 $581 #
point $-1 15.296693054975393 12.894727033416485 -0.20947554201463298 #
edge $-1 $544 25.42840406628719 $547 29.328939039303787 $455 $582 forward 7 unknown #
vertex $-1 $469 $583 #
straight-curve $-1 -30.52272843760376 -35.97929615394996 4.8557216188186274 0 -1 0 I I #
edge $-1 $547 -17.17366096176098 $466 -9.5244739899245854 $465 $584 forward 7 unknown #
vertex $-1 $546 $585 #
straight-curve $-1 -30.52272843760376 -18.282746568132517 0.95518664580202284 0 0.74314481823134659 0.66913061440640931 I I #
point $-1 -30.52272843760376 -13.95076370691063 4.8557216188186292 #
point $-1 -22.873541465767367 -18.282746568132509 0.95518664580202928 #
straight-curve $-1 0 -18.282746568132509 4.8557216188186283 1 0 0 I I #
vertex $-1 $472 $586 #
point $-1 -25.698134951685567 -13.761126215306019 0.28926322797795812 #
point $-1 -40.108645893734547 -18.282746568132509 -4.8557216188186283 #
straight-curve $-1 -40.108645893734547 0 -4.8557216188186283 0 1 0 I I #
point $-1 -40.108645893734547 18.282746568132509 -4.8557216188186283 #
straight-curve $-1 -40.108645893734547 18.282746568132509 0 0 0 -1 I I #
coedge $-1 $495 $494 $505 $563 reversed $260 $-1 #
edge $-1 $564 -18.282746568132509 $498 18.282746568132509 $494 $587 forward 7 unknown #
straight-curve $-1 -45.608122952879569 18.282746568132509 -3.3557216188186283 0 0 -1 I I #
point $-1 -45.608122952879569 18.282746568132509 -4.8557216188186283 #
point $-1 -45.608122952879569 18.282746568132509 -1.8557216188186283 #
edge $-1 $509 -1.5 $564 1.5 $558 $588 forward 7 unknown #
vertex $-1 $559 $589 #
straight-curve $-1 -42.858384423307058 -18.282746568132509 -4.8557216188186283 -1 0 0 I I #
straight-curve $-1 -45.608122952879569 0 -1.8557216188186283 0 -1 0 I I #
point $-1 -45.608122952879569 -18.282746568132509 -1.8557216188186283 #
straight-curve $-1 -20.175475677835912 18.282746568132509 43.666485398729662 0 0 -1 I I #
point $-1 -20.175475677835912 18.282746568132509 4.8557216188186283 #
straight-curve $-1 -13.696161128106361 18.282746568132509 0.14209434924209319 -1 0 0 I I #
point $-1 -20.175475677835912 18.282746568132513 0.14209434924208963 #
point $-1 -31.722430203238808 12.350087991265598 -1.0481461053259751 #
point $-1 -27.392322256212722 12.350087991265598 -1.0481461053259751 #
point $-1 -23.06221430918664 12.350087991265598 -1.0481461053259751 #
straight-curve $-1 17.183431686326124 18.282746568132509 43.666485398729662 0 0 -1 I I #
point $-1 17.183431686326124 18.282746568132509 4.8557216188186283 #
straight-curve $-1 4.9832925539746569 18.282746568132509 0.14209434924209319 -1 0 0 I I #
point $-1 17.183431686326124 18.282746568132513 0.14209434924208963 #
point $-1 5.6364771609232278 12.350087991265598 -1.0481461053259751 #
point $-1 9.9665851079493137 12.350087991265598 -1.0481461053259751 #
point $-1 14.296693054975393 12.350087991265598 -1.0481461053259751 #
straight-curve $-1 -30.52272843760376 -18.282746568132509 30.284125685105817 0 0 -1 I I #
point $-1 -30.52272843760376 -18.282746568132509 4.8557216188186283 #
straight-curve $-1 -13.349067475842782 -18.282746568132509 0.95518664580202817 1 0 0 I I #
point $-1 -30.52272843760376 -18.282746568132509 0.95518664580202928 #
point $-1 -26.698134951685567 -13.09199560089961 -0.45388159025338815 #
straight-curve $-1 -45.608122952879569 0 -4.8557216188186283 0 1 0 I I #
straight-curve $-1 -45.608122952879569 -18.282746568132509 -3.3557216188186283 0 0 -1 I I #
point $-1 -45.608122952879569 -18.282746568132509 -4.8557216188186283 #
End-of-ACIS-data 