500 0 9 0           
7 Unknown 11 ACIS 5.0 NT 24 Fri Mar 26 17:19:46 1999 
-1 9.9999999999999995e-007 1e-010 
body $-1 $9 $-1 $10 #
body $-1 $11 $-1 $12 #
body $-1 $13 $-1 $14 #
body $-1 $15 $-1 $16 #
body $-1 $17 $-1 $18 #
body $-1 $19 $-1 $20 #
body $-1 $21 $-1 $22 #
body $-1 $23 $-1 $24 #
body $-1 $25 $-1 $26 #
lump $-1 $-1 $27 $0 #
transform $-1 1 0 0 0 1 0 0 0 1 73.135776848658708 32.498515324855049 14.471444963071383 1 rotate no_reflect no_shear #
lump $-1 $-1 $28 $1 #
transform $-1 1 0 0 0 1 0 0 0 1 73.135776848658708 32.498515324855049 14.471444963071383 1 rotate no_reflect no_shear #
lump $-1 $-1 $29 $2 #
transform $-1 1 0 0 0 1 0 0 0 1 73.135776848658708 32.498515324855049 14.471444963071383 1 rotate no_reflect no_shear #
lump $-1 $-1 $30 $3 #
transform $-1 1 0 0 0 1 0 0 0 1 73.135776848658708 32.498515324855049 14.471444963071383 1 rotate no_reflect no_shear #
lump $-1 $-1 $31 $4 #
transform $-1 1 0 0 0 1 0 0 0 1 73.135776848658708 32.498515324855049 14.471444963071383 1 rotate no_reflect no_shear #
lump $-1 $-1 $32 $5 #
transform $-1 1 0 0 0 1 0 0 0 1 73.135776848658708 32.498515324855049 14.471444963071383 1 rotate no_reflect no_shear #
lump $-1 $-1 $33 $6 #
transform $-1 1 0 0 0 1 0 0 0 1 73.135776848658708 32.498515324855049 14.471444963071383 1 rotate no_reflect no_shear #
lump $-1 $-1 $34 $7 #
transform $-1 1 0 0 0 1 0 0 0 1 73.135776848658708 32.498515324855049 14.471444963071383 1 rotate no_reflect no_shear #
lump $-1 $-1 $35 $8 #
transform $-1 1 0 0 0 1 0 0 0 1 73.135776848658708 32.498515324855049 14.471444963071383 1 rotate no_reflect no_shear #
shell $-1 $-1 $-1 $36 $-1 $9 #
shell $-1 $-1 $-1 $37 $-1 $11 #
shell $-1 $-1 $-1 $38 $-1 $13 #
shell $-1 $-1 $-1 $39 $-1 $15 #
shell $-1 $-1 $-1 $40 $-1 $17 #
shell $-1 $-1 $-1 $41 $-1 $19 #
shell $-1 $-1 $-1 $42 $-1 $21 #
shell $-1 $-1 $-1 $43 $-1 $23 #
shell $-1 $-1 $-1 $44 $-1 $25 #
face $-1 $45 $46 $27 $-1 $47 forward single #
face $-1 $48 $49 $28 $-1 $50 forward single #
face $-1 $51 $52 $29 $-1 $53 forward single #
face $-1 $54 $55 $30 $-1 $56 reversed single #
face $-1 $57 $58 $31 $-1 $59 forward single #
face $-1 $60 $61 $32 $-1 $62 forward single #
face $-1 $63 $64 $33 $-1 $65 reversed single #
face $-1 $66 $67 $34 $-1 $68 forward single #
face $-1 $69 $70 $35 $-1 $71 forward single #
face $-1 $72 $73 $27 $-1 $74 reversed single #
loop $-1 $-1 $75 $36 #
plane-surface $-1 0 0 14.471444963071383 0 0 1 1 0 0 forward_v I I I I #
face $-1 $76 $77 $28 $-1 $78 forward single #
loop $-1 $-1 $79 $37 #
plane-surface $-1 0 -32.498515324855049 0 0 1 0 0 0 1 forward_v I I I I #
face $-1 $80 $81 $29 $-1 $82 forward single #
loop $-1 $-1 $83 $38 #
plane-surface $-1 0 32.498515324855049 0 0 -1 0 0 0 -1 forward_v I I I I #
face $-1 $84 $85 $30 $-1 $86 reversed single #
loop $-1 $-1 $87 $39 #
plane-surface $-1 119.66897838415139 17.993866630312656 211.13592680599734 0 -1 0 -0.84804810408105047 0 -0.52991925155115449 forward_v I I I I #
face $-1 $88 $89 $31 $-1 $90 forward single #
loop $-1 $91 $92 $40 #
cone-surface $-1 71.183027408904394 13.498295566656758 11.760013232505491 -0.84804810408105047 0 -0.52991925155115449 0.26495962577557725 0 -0.42402405204052523 1 I I 0 1 0.5 forward I I I I #
face $-1 $93 $94 $32 $-1 $95 forward single #
loop $-1 $96 $97 $41 #
cone-surface $-1 71.183027408904394 16.19563820485029 11.760013232505491 -0.84804810408105047 0 -0.52991925155115449 0.26495962577557725 0 -0.42402405204052523 1 I I 0 1 0.5 forward I I I I #
face $-1 $98 $99 $33 $-1 $100 reversed single #
loop $-1 $-1 $101 $42 #
plane-surface $-1 -171.01055144432479 -3.583480436059796 119.80829708999974 0 1 0 -0.66913061440640931 0 0.74314481823134659 forward_v I I I I #
face $-1 $102 $103 $34 $-1 $104 forward single #
loop $-1 $105 $106 $43 #
cone-surface $-1 -70.141718188870854 -1.379879590726599 11.538897009458664 0.66913061440640931 0 -0.74314481823134659 0.74314481823134659 0 0.66913061440640931 1 I I 0 1 1 forward I I I I #
face $-1 $107 $108 $35 $-1 $109 forward single #
loop $-1 $110 $111 $44 #
cone-surface $-1 -70.141718188870854 1.9255216772732027 11.538897009458664 0.66913061440640931 0 -0.74314481823134659 0.74314481823134659 0 0.66913061440640931 1 I I 0 1 1 forward I I I I #
face $-1 $112 $113 $27 $-1 $114 reversed single #
loop $-1 $-1 $115 $45 #
plane-surface $-1 0 0 -14.471444963071383 0 0 1 1 0 0 forward_v I I I I #
coedge $-1 $116 $117 $118 $119 forward $46 $-1 #
face $-1 $120 $121 $28 $-1 $122 reversed single #
loop $-1 $-1 $123 $48 #
plane-surface $-1 0 0 14.471444963071383 0 0 1 1 0 0 forward_v I I I I #
coedge $-1 $124 $125 $126 $127 forward $49 $-1 #
face $-1 $128 $129 $29 $-1 $130 reversed single #
loop $-1 $-1 $131 $51 #
plane-surface $-1 0 0 14.471444963071383 0 0 1 1 0 0 forward_v I I I I #
coedge $-1 $132 $133 $134 $135 forward $52 $-1 #
face $-1 $136 $137 $30 $-1 $138 reversed single #
loop $-1 $-1 $139 $54 #
plane-surface $-1 -4.3763354098482097 14.846966885753531 133.62381454749038 0.84804810408105047 0 0.52991925155115449 0.52991925155115449 0 -0.84804810408105047 forward_v I I I I #
coedge $-1 $140 $141 $142 $143 reversed $55 $-1 #
face $-1 $-1 $144 $31 $-1 $145 forward single #
loop $-1 $146 $147 $57 #
cone-surface $-1 70.546991330843611 13.498295566656758 11.362573793842126 -0.84804810408105047 0 -0.52991925155115449 0.13247981288778862 0 -0.21201202602026262 1 I I -0.70710678118654746 0.70710678118654746 0.25 forward I I I I #
loop $-1 $-1 $148 $40 #
coedge $-1 $92 $92 $149 $150 reversed $58 $-1 #
face $-1 $-1 $151 $32 $-1 $152 forward single #
loop $-1 $153 $154 $60 #
cone-surface $-1 70.546991330843611 16.19563820485029 11.362573793842126 -0.84804810408105047 0 -0.52991925155115449 0.13247981288778862 0 -0.21201202602026262 1 I I -0.70710678118654746 0.70710678118654746 0.25 forward I I I I #
loop $-1 $-1 $155 $41 #
coedge $-1 $97 $97 $156 $157 reversed $61 $-1 #
face $-1 $158 $159 $33 $-1 $160 reversed single #
loop $-1 $-1 $161 $63 #
plane-surface $-1 -73.135776848658693 0.27282104327330359 11.107349905190134 -0.66913061440640931 0 0.74314481823134659 0.74314481823134659 0 0.66913061440640931 forward_v I I I I #
coedge $-1 $162 $163 $164 $165 reversed $64 $-1 #
face $-1 $-1 $166 $34 $-1 $167 forward single #
loop $-1 $168 $169 $66 #
cone-surface $-1 -68.681197217376337 -1.379879590726599 9.9168241756708841 0.66913061440640931 0 -0.74314481823134659 0.3715724091156733 0 0.33456530720320465 1 I I -0.70710678118654746 0.70710678118654746 0.5 forward I I I I #
loop $-1 $-1 $170 $43 #
coedge $-1 $106 $106 $171 $172 reversed $67 $-1 #
face $-1 $-1 $173 $35 $-1 $174 forward single #
loop $-1 $175 $176 $69 #
cone-surface $-1 -68.681197217376337 1.9255216772732027 9.9168241756708841 0.66913061440640931 0 -0.74314481823134659 0.3715724091156733 0 0.33456530720320465 1 I I -0.70710678118654746 0.70710678118654746 0.5 forward I I I I #
loop $-1 $-1 $177 $44 #
coedge $-1 $111 $111 $178 $179 reversed $70 $-1 #
face $-1 $180 $181 $27 $-1 $182 reversed single #
loop $-1 $-1 $183 $72 #
plane-surface $-1 0 -32.498515324855049 0 0 1 0 0 0 1 forward_v I I I I #
coedge $-1 $184 $185 $186 $187 forward $73 $-1 #
coedge $-1 $188 $75 $189 $190 forward $46 $-1 #
coedge $-1 $75 $188 $191 $192 forward $46 $-1 #
coedge $-1 $193 $194 $75 $119 reversed $195 $-1 #
edge $-1 $196 -32.498515324855049 $197 32.498515324855049 $118 $198 forward 7 unknown #
face $-1 $199 $200 $28 $-1 $201 reversed single #
loop $-1 $-1 $202 $76 #
plane-surface $-1 -73.135776848658708 0 0 1 0 0 0 0 -1 forward_v I I I I #
coedge $-1 $203 $204 $125 $205 forward $77 $-1 #
coedge $-1 $206 $79 $207 $208 reversed $49 $-1 #
coedge $-1 $79 $206 $123 $205 reversed $49 $-1 #
coedge $-1 $209 $210 $79 $127 reversed $211 $-1 #
edge $-1 $212 -14.471444963071383 $213 14.471444963071383 $126 $214 forward 7 unknown #
face $-1 $215 $216 $29 $-1 $217 reversed single #
loop $-1 $-1 $218 $80 #
plane-surface $-1 -69.722861865867273 44.413336872294053 0 0 -1 0 0 0 -1 forward_v I I I I #
coedge $-1 $219 $220 $132 $221 forward $81 $-1 #
coedge $-1 $222 $83 $131 $221 reversed $52 $-1 #
coedge $-1 $83 $222 $223 $224 reversed $52 $-1 #
coedge $-1 $225 $226 $83 $135 reversed $216 $-1 #
edge $-1 $227 -14.471444963071383 $228 14.471444963071383 $134 $229 forward 7 unknown #
face $-1 $230 $231 $30 $-1 $232 forward single #
loop $-1 $-1 $233 $84 #
plane-surface $-1 119.66897838415139 11.700067141194406 211.13592680599734 0 1 0 0.84804810408105047 0 0.52991925155115449 forward_v I I I I #
coedge $-1 $234 $235 $236 $237 reversed $85 $-1 #
coedge $-1 $141 $87 $238 $239 reversed $55 $-1 #
coedge $-1 $87 $140 $234 $240 reversed $55 $-1 #
coedge $-1 $236 $241 $87 $143 forward $231 $-1 #
edge $-1 $242 -13.301287656583014 $243 -10.24383688115546 $142 $244 forward 7 unknown #
loop $-1 $-1 $149 $88 #
plane-surface $-1 -4.3763354098482097 14.846966885753531 133.62381454749038 0.84804810408105047 0 0.52991925155115449 0.52991925155115449 0 -0.84804810408105047 forward_v I I I I #
loop $-1 $-1 $245 $57 #
coedge $-1 $147 $147 $148 $246 reversed $89 $-1 #
coedge $-1 $148 $148 $147 $246 forward $91 $-1 #
coedge $-1 $149 $149 $92 $150 forward $144 $-1 #
edge $-1 $247 0 $247 6.2831853071796004 $149 $248 forward 7 unknown #
loop $-1 $-1 $156 $93 #
plane-surface $-1 -4.3763354098482097 14.846966885753531 133.62381454749038 0.84804810408105047 0 0.52991925155115449 0.52991925155115449 0 -0.84804810408105047 forward_v I I I I #
loop $-1 $-1 $249 $60 #
coedge $-1 $154 $154 $155 $250 reversed $94 $-1 #
coedge $-1 $155 $155 $154 $250 forward $96 $-1 #
coedge $-1 $156 $156 $97 $157 forward $151 $-1 #
edge $-1 $251 0 $251 6.2831853071796004 $156 $252 forward 7 unknown #
face $-1 $253 $254 $33 $-1 $255 reversed single #
loop $-1 $-1 $256 $98 #
plane-surface $-1 -171.01055144432479 4.1291225226064032 119.80829708999974 0 -1 0 0.66913061440640931 0 -0.74314481823134659 forward_v I I I I #
coedge $-1 $257 $258 $259 $260 reversed $99 $-1 #
coedge $-1 $163 $101 $261 $262 reversed $64 $-1 #
coedge $-1 $101 $162 $257 $263 reversed $64 $-1 #
coedge $-1 $259 $264 $101 $165 forward $265 $-1 #
edge $-1 $266 12.369498873503687 $267 16.105704864496815 $164 $268 forward 7 unknown #
loop $-1 $-1 $171 $102 #
plane-surface $-1 -73.135776848658693 0.27282104327330359 11.107349905190134 -0.66913061440640931 0 0.74314481823134659 0.74314481823134659 0 0.66913061440640931 forward_v I I I I #
loop $-1 $-1 $269 $66 #
coedge $-1 $169 $169 $170 $270 reversed $103 $-1 #
coedge $-1 $170 $170 $169 $270 forward $105 $-1 #
coedge $-1 $171 $171 $106 $172 forward $166 $-1 #
edge $-1 $271 0 $271 6.2831853071796004 $171 $272 forward 7 unknown #
loop $-1 $-1 $178 $107 #
plane-surface $-1 -73.135776848658693 0.27282104327330359 11.107349905190134 -0.66913061440640931 0 0.74314481823134659 0.74314481823134659 0 0.66913061440640931 forward_v I I I I #
loop $-1 $-1 $273 $69 #
coedge $-1 $176 $176 $177 $274 reversed $108 $-1 #
coedge $-1 $177 $177 $176 $274 forward $110 $-1 #
coedge $-1 $178 $178 $111 $179 forward $173 $-1 #
edge $-1 $275 0 $275 6.2831853071796004 $178 $276 forward 7 unknown #
face $-1 $277 $278 $27 $-1 $279 reversed single #
loop $-1 $-1 $280 $112 #
plane-surface $-1 -73.135776848658708 0 0 1 0 0 0 0 -1 forward_v I I I I #
coedge $-1 $281 $191 $282 $283 forward $113 $-1 #
coedge $-1 $284 $115 $281 $285 forward $73 $-1 #
coedge $-1 $115 $284 $286 $287 forward $73 $-1 #
coedge $-1 $194 $193 $115 $187 reversed $195 $-1 #
edge $-1 $288 -32.498515324855049 $289 32.498515324855049 $186 $290 forward 7 unknown #
coedge $-1 $117 $116 $291 $292 forward $46 $-1 #
coedge $-1 $293 $294 $116 $190 reversed $278 $-1 #
edge $-1 $197 -73.135776848658708 $295 73.135776848658708 $189 $296 forward 7 unknown #
coedge $-1 $183 $297 $117 $192 reversed $113 $-1 #
edge $-1 $298 -73.135776848658708 $196 73.135776848658708 $191 $299 forward 7 unknown #
coedge $-1 $186 $118 $297 $300 forward $195 $-1 #
coedge $-1 $118 $186 $293 $301 reversed $195 $-1 #
loop $-1 $-1 $193 $277 #
vertex $-1 $119 $302 #
vertex $-1 $119 $303 #
straight-curve $-1 73.135776848658708 0 14.471444963071383 0 1 0 I I #
face $-1 $304 $211 $28 $-1 $305 reversed single #
loop $-1 $-1 $306 $120 #
plane-surface $-1 -69.722861865867273 -44.413336872294053 0 0 1 0 0 0 1 forward_v I I I I #
coedge $-1 $307 $308 $206 $309 forward $121 $-1 #
coedge $-1 $310 $123 $308 $311 forward $77 $-1 #
coedge $-1 $123 $310 $209 $312 forward $77 $-1 #
edge $-1 $212 66.309946883075838 $313 73.135776848658708 $123 $314 forward 7 unknown #
coedge $-1 $125 $124 $202 $309 reversed $49 $-1 #
coedge $-1 $315 $316 $124 $208 forward $317 $-1 #
edge $-1 $318 -73.135776848658708 $213 -66.309946883075838 $207 $319 forward 7 unknown #
coedge $-1 $320 $126 $204 $312 reversed $211 $-1 #
coedge $-1 $126 $320 $315 $321 reversed $211 $-1 #
loop $-1 $-1 $320 $199 #
vertex $-1 $205 $322 #
vertex $-1 $321 $323 #
straight-curve $-1 -66.309946883075838 -32.498515324855049 0 0 0 -1 I I #
face $-1 $324 $325 $29 $-1 $326 reversed single #
loop $-1 $-1 $134 $128 #
plane-surface $-1 -66.309946883075838 38.455926098574551 0 -1 0 0 0 0 1 forward_v I I I I #
coedge $-1 $327 $328 $329 $330 forward $129 $-1 #
coedge $-1 $331 $131 $226 $332 forward $81 $-1 #
coedge $-1 $131 $331 $333 $334 forward $81 $-1 #
edge $-1 $335 -73.135776848658708 $228 -66.309946883075838 $131 $336 forward 7 unknown #
coedge $-1 $133 $132 $337 $338 reversed $52 $-1 #
coedge $-1 $339 $340 $133 $224 forward $325 $-1 #
edge $-1 $227 66.309946883075838 $341 73.135776848658708 $223 $342 forward 7 unknown #
coedge $-1 $329 $134 $340 $343 reversed $216 $-1 #
coedge $-1 $134 $329 $219 $332 reversed $216 $-1 #
vertex $-1 $224 $344 #
vertex $-1 $332 $345 #
straight-curve $-1 -66.309946883075838 32.498515324855049 0 0 0 1 I I #
face $-1 $-1 $346 $30 $-1 $347 reversed single #
loop $-1 $-1 $142 $136 #
plane-surface $-1 0 0 14.471444963071383 0 0 1 1 0 0 forward_v I I I I #
coedge $-1 $348 $349 $350 $351 reversed $137 $-1 #
coedge $-1 $352 $139 $141 $240 forward $85 $-1 #
coedge $-1 $139 $352 $348 $353 forward $85 $-1 #
coedge $-1 $350 $142 $139 $237 forward $231 $-1 #
edge $-1 $243 -10.57038318743589 $354 -4.2765836983176406 $236 $355 forward 7 unknown #
coedge $-1 $356 $357 $140 $239 forward $346 $-1 #
edge $-1 $358 -95.989462649507843 $242 -91.096518439927294 $238 $359 forward 7 unknown #
edge $-1 $243 140.50189961043915 $358 146.27155369731736 $141 $360 forward 7 unknown #
coedge $-1 $142 $350 $356 $361 forward $231 $-1 #
vertex $-1 $143 $362 #
vertex $-1 $143 $363 #
straight-curve $-1 59.834489192075694 17.993866630312656 14.471444963071377 -1 0 0 I I #
coedge $-1 $245 $245 $-1 $364 reversed $146 $-1 #
edge $-1 $365 0 $365 6.2831853071796004 $147 $366 forward 7 unknown #
vertex $-1 $150 $367 #
ellipse-curve $-1 71.607051460944945 13.498295566656758 12.024972858281084 0.84804810408105047 0 0.52991925155115449 0.26495962577557725 0 -0.42402405204052523 1 I I #
coedge $-1 $249 $249 $-1 $368 reversed $153 $-1 #
edge $-1 $369 0 $369 6.2831853071796004 $154 $370 forward 7 unknown #
vertex $-1 $157 $371 #
ellipse-curve $-1 71.607051460944945 16.19563820485029 12.024972858281084 0.84804810408105047 0 0.52991925155115449 0.26495962577557725 0 -0.42402405204052523 1 I I #
face $-1 $-1 $265 $33 $-1 $372 forward single #
loop $-1 $-1 $373 $158 #
plane-surface $-1 -73.135776848658708 0 0 1 0 0 0 0 -1 forward_v I I I I #
coedge $-1 $374 $375 $376 $377 reversed $159 $-1 #
coedge $-1 $378 $161 $163 $263 forward $99 $-1 #
coedge $-1 $161 $378 $374 $379 forward $99 $-1 #
coedge $-1 $376 $164 $161 $260 forward $265 $-1 #
edge $-1 $267 -3.7198909576964478 $380 3.9927120009697514 $259 $381 forward 7 unknown #
coedge $-1 $382 $383 $162 $262 forward $254 $-1 #
edge $-1 $384 -48.796798639809751 $266 -45.432703581928486 $261 $385 forward 7 unknown #
edge $-1 $267 -5.027561115053091 $384 1.8881026247711288e-014 $163 $386 forward 7 unknown #
coedge $-1 $164 $376 $382 $387 forward $265 $-1 #
loop $-1 $-1 $376 $253 #
vertex $-1 $262 $388 #
vertex $-1 $165 $389 #
straight-curve $-1 -85.505275722162395 -3.583480436059796 14.471444963071384 1 0 0 I I #
coedge $-1 $269 $269 $-1 $390 reversed $168 $-1 #
edge $-1 $391 0 $391 6.2831853071796004 $169 $392 forward 7 unknown #
vertex $-1 $172 $393 #
ellipse-curve $-1 -71.267673853162151 -1.379879590726599 12.789397434130748 -0.66913061440640931 0 0.74314481823134659 0.74314481823134659 0 0.66913061440640931 1 I I #
coedge $-1 $273 $273 $-1 $394 reversed $175 $-1 #
edge $-1 $395 0 $395 6.2831853071796004 $176 $396 forward 7 unknown #
vertex $-1 $179 $397 #
ellipse-curve $-1 -71.267673853162151 1.9255216772732027 12.789397434130748 -0.66913061440640931 0 0.74314481823134659 0.74314481823134659 0 0.66913061440640931 1 I I #
face $-1 $-1 $195 $27 $-1 $398 reversed single #
loop $-1 $-1 $293 $180 #
plane-surface $-1 0 32.498515324855049 0 0 -1 0 0 0 -1 forward_v I I I I #
coedge $-1 $399 $291 $294 $400 forward $181 $-1 #
coedge $-1 $297 $183 $184 $285 reversed $113 $-1 #
coedge $-1 $291 $399 $183 $283 reversed $181 $-1 #
edge $-1 $298 -14.471444963071383 $401 14.471444963071383 $282 $402 forward 7 unknown #
coedge $-1 $185 $184 $399 $403 forward $73 $-1 #
edge $-1 $289 -73.135776848658708 $401 73.135776848658708 $281 $404 forward 7 unknown #
coedge $-1 $294 $293 $185 $287 reversed $278 $-1 #
edge $-1 $405 -73.135776848658708 $288 73.135776848658708 $286 $406 forward 7 unknown #
vertex $-1 $187 $407 #
vertex $-1 $300 $408 #
straight-curve $-1 73.135776848658708 0 -14.471444963071383 0 -1 0 I I #
coedge $-1 $280 $282 $188 $292 reversed $181 $-1 #
edge $-1 $295 -32.498515324855049 $298 32.498515324855049 $291 $409 forward 7 unknown #
coedge $-1 $286 $189 $194 $301 forward $278 $-1 #
coedge $-1 $189 $286 $280 $400 reversed $278 $-1 #
vertex $-1 $190 $410 #
straight-curve $-1 0 32.498515324855049 14.471444963071383 -1 0 0 I I #
coedge $-1 $191 $281 $193 $300 reversed $113 $-1 #
vertex $-1 $292 $411 #
straight-curve $-1 0 -32.498515324855049 14.471444963071383 1 0 0 I I #
edge $-1 $196 -14.471444963071383 $289 14.471444963071383 $193 $412 forward 7 unknown #
edge $-1 $197 -14.471444963071383 $288 14.471444963071383 $194 $413 forward 7 unknown #
point $-1 73.135776848658708 -32.498515324855049 14.471444963071383 #
point $-1 73.135776848658708 32.498515324855049 14.471444963071383 #
face $-1 $-1 $317 $28 $-1 $414 reversed single #
plane-surface $-1 -66.309946883075838 -38.455926098574551 0 -1 0 0 0 0 1 forward_v I I I I #
coedge $-1 $415 $416 $417 $418 forward $200 $-1 #
coedge $-1 $417 $202 $316 $419 reversed $121 $-1 #
coedge $-1 $202 $417 $203 $311 reversed $121 $-1 #
edge $-1 $313 -14.471444963071383 $318 14.471444963071383 $202 $420 forward 7 unknown #
coedge $-1 $204 $203 $416 $421 forward $77 $-1 #
edge $-1 $313 32.498515324855049 $422 44.413336872294053 $308 $423 forward 7 unknown #
edge $-1 $424 -5.9574107737195021 $212 5.9574107737195021 $209 $425 forward 7 unknown #
vertex $-1 $311 $426 #
straight-curve $-1 0 -32.498515324855049 14.471444963071383 -1 0 0 I I #
coedge $-1 $427 $207 $210 $321 forward $317 $-1 #
coedge $-1 $207 $427 $307 $419 forward $317 $-1 #
loop $-1 $-1 $207 $304 #
vertex $-1 $309 $428 #
straight-curve $-1 0 -32.498515324855049 -14.471444963071383 1 0 0 I I #
coedge $-1 $210 $209 $429 $430 forward $211 $-1 #
edge $-1 $213 -5.9574107737195021 $431 5.9574107737195021 $210 $432 forward 7 unknown #
point $-1 -66.309946883075838 -32.498515324855049 14.471444963071383 #
point $-1 -66.309946883075838 -32.498515324855049 -14.471444963071383 #
face $-1 $-1 $433 $29 $-1 $434 reversed single #
loop $-1 $-1 $223 $215 #
plane-surface $-1 0 0 -14.471444963071383 0 0 1 1 0 0 forward_v I I I I #
coedge $-1 $435 $218 $436 $437 reversed $129 $-1 #
coedge $-1 $218 $435 $331 $438 reversed $129 $-1 #
coedge $-1 $226 $225 $218 $330 reversed $216 $-1 #
edge $-1 $439 -14.471444963071383 $440 14.471444963071383 $329 $441 forward 7 unknown #
coedge $-1 $220 $219 $328 $438 forward $81 $-1 #
edge $-1 $228 -5.9574107737195021 $439 5.9574107737195021 $226 $442 forward 7 unknown #
coedge $-1 $443 $337 $220 $334 reversed $433 $-1 #
edge $-1 $444 -44.413336872294053 $335 -32.498515324855049 $333 $445 forward 7 unknown #
vertex $-1 $338 $446 #
straight-curve $-1 0 32.498515324855049 14.471444963071383 1 0 0 I I #
coedge $-1 $333 $447 $222 $338 forward $433 $-1 #
edge $-1 $341 -14.471444963071383 $335 14.471444963071383 $337 $448 forward 7 unknown #
coedge $-1 $436 $223 $447 $449 forward $325 $-1 #
coedge $-1 $223 $436 $225 $343 forward $325 $-1 #
vertex $-1 $449 $450 #
straight-curve $-1 0 32.498515324855049 -14.471444963071383 -1 0 0 I I #
edge $-1 $440 -5.9574107737195021 $227 5.9574107737195021 $225 $451 forward 7 unknown #
point $-1 -66.309946883075838 32.498515324855049 -14.471444963071383 #
point $-1 -66.309946883075838 32.498515324855049 14.471444963071383 #
loop $-1 $-1 $238 $230 #
plane-surface $-1 73.135776848658708 0 0 -1 0 0 0 0 1 forward_v I I I I #
coedge $-1 $349 $233 $235 $353 reversed $137 $-1 #
coedge $-1 $233 $348 $452 $453 reversed $137 $-1 #
coedge $-1 $241 $236 $233 $351 forward $231 $-1 #
edge $-1 $354 10.24383688115546 $454 13.301287656583014 $350 $455 forward 7 unknown #
coedge $-1 $235 $234 $357 $456 reversed $85 $-1 #
edge $-1 $457 -146.27155369731736 $354 -140.50189961043915 $348 $458 forward 7 unknown #
vertex $-1 $237 $459 #
straight-curve $-1 70.078326073231139 7.4234834428767655 14.471444963071377 0 -1 0 I I #
coedge $-1 $452 $238 $241 $361 reversed $346 $-1 #
coedge $-1 $238 $452 $352 $456 forward $346 $-1 #
vertex $-1 $239 $460 #
straight-curve $-1 73.135776848658708 17.993866630312656 105.56796340299867 0 0 1 I I #
straight-curve $-1 -4.3763354098482097 17.993866630312656 133.62381454749038 0.52991925155115449 0 -0.84804810408105047 I I #
edge $-1 $454 11.700067141194406 $242 17.993866630312656 $356 $461 forward 7 unknown #
point $-1 73.135776848658708 17.993866630312656 14.471444963071383 #
point $-1 70.078326073231153 17.993866630312656 14.471444963071377 #
edge $-1 $462 1 $462 0 $245 $-1 forward 7 unknown #
vertex $-1 $246 $463 #
ellipse-curve $-1 70.759003356863872 13.498295566656758 11.495053606729915 0.84804810408105047 0 0.52991925155115449 0.26495962577557725 0 -0.42402405204052523 1 I I #
point $-1 71.872011086720505 13.498295566656758 11.600948806240543 #
edge $-1 $464 1 $464 0 $249 $-1 forward 7 unknown #
vertex $-1 $250 $465 #
ellipse-curve $-1 70.759003356863872 16.19563820485029 11.495053606729915 0.84804810408105047 0 0.52991925155115449 0.26495962577557725 0 -0.42402405204052523 1 I I #
point $-1 71.872011086720505 16.19563820485029 11.600948806240543 #
plane-surface $-1 0 0 14.471444963071383 0 0 1 1 0 0 forward_v I I I I #
coedge $-1 $383 $382 $375 $466 forward $254 $-1 #
coedge $-1 $375 $256 $258 $379 reversed $159 $-1 #
coedge $-1 $256 $374 $373 $466 reversed $159 $-1 #
coedge $-1 $264 $259 $256 $377 forward $265 $-1 #
edge $-1 $380 -16.105704864496815 $467 -12.369498873503687 $376 $468 forward 7 unknown #
coedge $-1 $258 $257 $383 $469 reversed $99 $-1 #
edge $-1 $470 -1.8881026247711288e-014 $380 5.027561115053091 $374 $471 forward 7 unknown #
vertex $-1 $260 $472 #
straight-curve $-1 -69.399570857665566 0.13641052163665179 14.471444963071381 0 1 0 I I #
coedge $-1 $373 $261 $264 $387 reversed $254 $-1 #
coedge $-1 $261 $373 $378 $469 forward $254 $-1 #
vertex $-1 $262 $473 #
straight-curve $-1 -73.135776848658708 -3.583480436059796 59.90414854499987 0 0 1 I I #
straight-curve $-1 -73.135776848658693 -3.583480436059796 11.107349905190134 -0.74314481823134659 0 -0.66913061440640931 I I #
edge $-1 $467 -4.1291225226064032 $266 3.583480436059796 $382 $474 forward 7 unknown #
point $-1 -73.135776848658708 -3.583480436059796 14.471444963071383 #
point $-1 -69.39957085766558 -3.583480436059796 14.471444963071383 #
edge $-1 $475 1 $475 0 $269 $-1 forward 7 unknown #
vertex $-1 $270 $476 #
ellipse-curve $-1 -69.015762524579543 -1.379879590726599 10.288396584786557 -0.66913061440640931 0 0.74314481823134659 0.74314481823134659 0 0.66913061440640931 1 I I #
point $-1 -70.524529034930822 -1.379879590726599 13.458528048537179 #
edge $-1 $477 1 $477 0 $273 $-1 forward 7 unknown #
vertex $-1 $274 $478 #
ellipse-curve $-1 -69.015762524579543 1.9255216772732027 10.288396584786557 -0.66913061440640931 0 0.74314481823134659 0.74314481823134659 0 0.66913061440640931 1 I I #
point $-1 -70.524529034930822 1.9255216772732027 13.458528048537179 #
plane-surface $-1 73.135776848658708 0 0 -1 0 0 0 0 1 forward_v I I I I #
coedge $-1 $282 $280 $284 $403 reversed $181 $-1 #
edge $-1 $295 -14.471444963071383 $405 14.471444963071383 $294 $479 forward 7 unknown #
vertex $-1 $403 $480 #
straight-curve $-1 -73.135776848658708 -32.498515324855049 0 0 0 -1 I I #
edge $-1 $401 -32.498515324855049 $405 32.498515324855049 $399 $481 forward 7 unknown #
straight-curve $-1 0 -32.498515324855049 -14.471444963071383 -1 0 0 I I #
vertex $-1 $287 $482 #
straight-curve $-1 0 32.498515324855049 -14.471444963071383 1 0 0 I I #
point $-1 73.135776848658708 32.498515324855049 -14.471444963071383 #
point $-1 73.135776848658708 -32.498515324855049 -14.471444963071383 #
straight-curve $-1 -73.135776848658708 0 14.471444963071383 0 -1 0 I I #
point $-1 -73.135776848658708 32.498515324855049 14.471444963071383 #
point $-1 -73.135776848658708 -32.498515324855049 14.471444963071383 #
straight-curve $-1 73.135776848658708 -32.498515324855049 0 0 0 -1 I I #
straight-curve $-1 73.135776848658708 32.498515324855049 0 0 0 -1 I I #
plane-surface $-1 0 0 -14.471444963071383 0 0 1 1 0 0 forward_v I I I I #
coedge $-1 $429 $306 $427 $483 reversed $200 $-1 #
coedge $-1 $306 $429 $310 $421 reversed $200 $-1 #
coedge $-1 $308 $307 $306 $418 reversed $121 $-1 #
edge $-1 $422 -14.471444963071383 $484 14.471444963071383 $417 $485 forward 7 unknown #
edge $-1 $484 -44.413336872294053 $318 -32.498515324855049 $307 $486 forward 7 unknown #
straight-curve $-1 -73.135776848658708 -32.498515324855049 0 0 0 -1 I I #
edge $-1 $422 -3.4129149827914347 $424 3.4129149827914347 $416 $487 forward 7 unknown #
vertex $-1 $311 $488 #
straight-curve $-1 -73.135776848658708 0 14.471444963071383 0 -1 0 I I #
vertex $-1 $312 $489 #
straight-curve $-1 -66.309946883075838 -38.455926098574551 14.471444963071383 0 1 0 I I #
point $-1 -73.135776848658708 -32.498515324855049 14.471444963071383 #
coedge $-1 $316 $315 $415 $483 forward $317 $-1 #
point $-1 -73.135776848658708 -32.498515324855049 -14.471444963071383 #
coedge $-1 $416 $415 $320 $430 reversed $200 $-1 #
edge $-1 $424 -14.471444963071383 $431 14.471444963071383 $320 $490 forward 7 unknown #
vertex $-1 $430 $491 #
straight-curve $-1 -66.309946883075838 -38.455926098574551 -14.471444963071383 0 -1 0 I I #
loop $-1 $-1 $337 $324 #
plane-surface $-1 -73.135776848658708 0 0 1 0 0 0 0 -1 forward_v I I I I #
coedge $-1 $328 $327 $443 $492 reversed $129 $-1 #
coedge $-1 $340 $339 $327 $437 forward $325 $-1 #
edge $-1 $493 -3.4129149827914347 $440 3.4129149827914347 $327 $494 forward 7 unknown #
edge $-1 $439 -3.4129149827914347 $444 3.4129149827914347 $328 $495 forward 7 unknown #
vertex $-1 $332 $496 #
vertex $-1 $343 $497 #
straight-curve $-1 -66.309946883075838 44.413336872294053 0 0 0 -1 I I #
straight-curve $-1 -66.309946883075838 38.455926098574551 14.471444963071383 0 1 0 I I #
coedge $-1 $447 $333 $435 $492 forward $433 $-1 #
vertex $-1 $438 $498 #
straight-curve $-1 -73.135776848658708 0 14.471444963071383 0 -1 0 I I #
point $-1 -73.135776848658708 32.498515324855049 14.471444963071383 #
coedge $-1 $337 $443 $339 $449 reversed $433 $-1 #
straight-curve $-1 -73.135776848658708 32.498515324855049 0 0 0 1 I I #
edge $-1 $341 -5.9574107737195021 $493 5.9574107737195021 $447 $499 forward 7 unknown #
point $-1 -73.135776848658708 32.498515324855049 -14.471444963071383 #
straight-curve $-1 -66.309946883075838 38.455926098574551 -14.471444963071383 0 -1 0 I I #
coedge $-1 $357 $356 $349 $453 forward $346 $-1 #
edge $-1 $454 91.096518439927294 $457 95.989462649507843 $452 $500 forward 7 unknown #
vertex $-1 $361 $501 #
straight-curve $-1 59.834489192075694 11.700067141194406 14.471444963071377 1 0 0 I I #
edge $-1 $457 4.2765836983176406 $358 10.57038318743589 $357 $502 forward 7 unknown #
vertex $-1 $456 $503 #
straight-curve $-1 -4.3763354098482097 11.700067141194406 133.62381454749038 -0.52991925155115449 0 0.84804810408105047 I I #
point $-1 70.078326073231153 11.700067141194406 14.471444963071377 #
point $-1 73.135776848658708 17.993866630312656 9.5785007534908289 #
straight-curve $-1 73.135776848658708 0 14.471444963071383 0 1 0 I I #
vertex $-1 $364 $504 #
point $-1 71.023962982639446 13.498295566656758 11.071029554689389 #
vertex $-1 $368 $505 #
point $-1 71.023962982639446 16.19563820485029 11.071029554689389 #
edge $-1 $467 45.432703581928486 $470 48.796798639809751 $373 $506 forward 7 unknown #
vertex $-1 $387 $507 #
straight-curve $-1 -85.505275722162395 4.1291225226064032 14.471444963071384 -1 0 0 I I #
edge $-1 $470 -3.9927120009697514 $384 3.7198909576964478 $383 $508 forward 7 unknown #
vertex $-1 $469 $509 #
straight-curve $-1 -73.135776848658693 4.1291225226064032 11.107349905190134 0.74314481823134659 0 0.66913061440640931 I I #
point $-1 -69.39957085766558 4.1291225226064032 14.471444963071383 #
point $-1 -73.135776848658708 -3.583480436059796 11.107349905190121 #
straight-curve $-1 -73.135776848658708 0 14.471444963071383 0 -1 0 I I #
vertex $-1 $390 $510 #
point $-1 -68.2726177063482 -1.379879590726599 10.957527199192967 #
vertex $-1 $394 $511 #
point $-1 -68.2726177063482 1.9255216772732027 10.957527199192967 #
straight-curve $-1 -73.135776848658708 32.498515324855049 0 0 0 -1 I I #
point $-1 -73.135776848658708 -32.498515324855049 -14.471444963071383 #
straight-curve $-1 -73.135776848658708 0 -14.471444963071383 0 1 0 I I #
point $-1 -73.135776848658708 32.498515324855049 -14.471444963071383 #
edge $-1 $431 -3.4129149827914347 $484 3.4129149827914347 $415 $512 forward 7 unknown #
vertex $-1 $419 $513 #
straight-curve $-1 -73.135776848658708 -44.413336872294053 0 0 0 -1 I I #
straight-curve $-1 -73.135776848658708 0 -14.471444963071383 0 1 0 I I #
straight-curve $-1 -69.722861865867273 -44.413336872294053 14.471444963071383 1 0 0 I I #
point $-1 -73.135776848658708 -44.413336872294053 14.471444963071383 #
point $-1 -66.309946883075838 -44.413336872294053 14.471444963071383 #
straight-curve $-1 -66.309946883075838 -44.413336872294053 0 0 0 -1 I I #
point $-1 -66.309946883075838 -44.413336872294053 -14.471444963071383 #
edge $-1 $444 -14.471444963071383 $493 14.471444963071383 $435 $514 forward 7 unknown #
vertex $-1 $437 $515 #
straight-curve $-1 -69.722861865867273 44.413336872294053 -14.471444963071383 1 0 0 I I #
straight-curve $-1 -69.722861865867273 44.413336872294053 14.471444963071383 -1 0 0 I I #
point $-1 -66.309946883075838 44.413336872294053 14.471444963071383 #
point $-1 -66.309946883075838 44.413336872294053 -14.471444963071383 #
point $-1 -73.135776848658708 44.413336872294053 14.471444963071383 #
straight-curve $-1 -73.135776848658708 38.455926098574551 -14.471444963071383 0 1 0 I I #
straight-curve $-1 73.135776848658708 11.700067141194406 105.56796340299867 0 0 -1 I I #
point $-1 73.135776848658708 11.700067141194406 14.471444963071383 #
straight-curve $-1 73.135776848658708 7.4234834428767655 9.578500753490836 0 1 0 I I #
point $-1 73.135776848658708 11.700067141194406 9.5785007534908289 #
point $-1 70.334979304823349 13.498295566656758 11.230093980954337 #
point $-1 70.334979304823349 16.19563820485029 11.230093980954337 #
straight-curve $-1 -73.135776848658708 4.1291225226064032 59.90414854499987 0 0 -1 I I #
point $-1 -73.135776848658708 4.1291225226064032 14.471444963071383 #
straight-curve $-1 -73.135776848658708 0.13641052163665179 11.107349905190121 0 -1 0 I I #
point $-1 -73.135776848658708 4.1291225226064032 11.107349905190121 #
point $-1 -68.34663191017313 -1.379879590726599 9.5452517665552108 #
point $-1 -68.34663191017313 1.9255216772732027 9.5452517665552108 #
straight-curve $-1 -69.722861865867273 -44.413336872294053 -14.471444963071383 -1 0 0 I I #
point $-1 -73.135776848658708 -44.413336872294053 -14.471444963071383 #
straight-curve $-1 -73.135776848658708 44.413336872294053 0 0 0 -1 I I #
point $-1 -73.135776848658708 44.413336872294053 -14.471444963071383 #
End-of-ACIS-data 