500 0 5 0           
7 Unknown 11 ACIS 5.0 NT 24 Fri Mar 26 02:53:29 1999 
-1 9.9999999999999995e-007 1e-010 
body $-1 $5 $-1 $6 #
body $-1 $7 $-1 $8 #
body $-1 $9 $-1 $10 #
body $-1 $11 $-1 $12 #
body $-1 $13 $-1 $14 #
lump $-1 $-1 $15 $0 #
transform $-1 1 0 0 0 1 0 0 0 1 53.086336863307594 28.789945126561324 10.297235630352512 1 rotate no_reflect no_shear #
lump $-1 $-1 $16 $1 #
transform $-1 1 0 0 0 1 0 0 0 1 53.086336863307594 28.789945126561324 10.297235630352512 1 rotate no_reflect no_shear #
lump $-1 $-1 $17 $2 #
transform $-1 1 0 0 0 1 0 0 0 1 53.086336863307594 28.789945126561324 10.297235630352512 1 rotate no_reflect no_shear #
lump $-1 $-1 $18 $3 #
transform $-1 1 0 0 0 1 0 0 0 1 53.086336863307594 28.789945126561324 10.297235630352512 1 rotate no_reflect no_shear #
lump $-1 $-1 $19 $4 #
transform $-1 1 0 0 0 1 0 0 0 1 53.086336863307594 28.789945126561324 10.297235630352512 1 rotate no_reflect no_shear #
shell $-1 $-1 $-1 $20 $-1 $5 #
shell $-1 $-1 $-1 $21 $-1 $7 #
shell $-1 $-1 $-1 $22 $-1 $9 #
shell $-1 $-1 $-1 $23 $-1 $11 #
shell $-1 $-1 $-1 $24 $-1 $13 #
face $-1 $25 $26 $15 $-1 $27 forward single #
face $-1 $28 $29 $16 $-1 $30 reversed single #
face $-1 $31 $32 $17 $-1 $33 forward single #
face $-1 $34 $35 $18 $-1 $36 reversed single #
face $-1 $37 $38 $19 $-1 $39 forward single #
face $-1 $40 $41 $15 $-1 $42 reversed single #
loop $-1 $-1 $43 $20 #
plane-surface $-1 0 0 10.297235630352512 0 0 1 1 0 0 forward_v I I I I #
face $-1 $44 $45 $16 $-1 $46 reversed single #
loop $-1 $-1 $47 $21 #
plane-surface $-1 20.523863367422102 -98.445487204036866 87.159082606162301 -1 0 0 0 -0.6560590369687036 0.75470957328743171 forward_v I I I I #
face $-1 $48 $49 $17 $-1 $50 forward single #
loop $-1 $51 $52 $22 #
cone-surface $-1 11.476002242494161 -26.569004426947746 8.2706346313311645 0 0.6560590369687036 -0.75470957328743171 0.5 0 0 1 I I 0 1 0.5 forward I I I I #
face $-1 $53 $54 $18 $-1 $55 reversed single #
loop $-1 $-1 $56 $23 #
plane-surface $-1 2.42814111756622 54.989392801165536 124.93488995438959 1 0 0 0 -0.6560590369687036 -0.75470957328743171 forward_v I I I I #
face $-1 $57 $58 $19 $-1 $59 forward single #
loop $-1 $60 $61 $24 #
cone-surface $-1 11.476002242494161 26.569004426947743 8.2706346313311645 0 -0.6560590369687036 -0.75470957328743171 0.5 0 0 1 I I 0 1 0.5 forward I I I I #
face $-1 $62 $63 $15 $-1 $64 reversed single #
loop $-1 $-1 $65 $25 #
plane-surface $-1 0 0 -10.297235630352512 0 0 1 1 0 0 forward_v I I I I #
coedge $-1 $66 $67 $68 $69 forward $26 $-1 #
face $-1 $70 $71 $16 $-1 $72 reversed single #
loop $-1 $-1 $73 $28 #
plane-surface $-1 11.476002242494161 -28.789945126561321 7.0295493231628399 0 -0.6560590369687036 0.75470957328743171 1 0 0 forward_v I I I I #
coedge $-1 $74 $75 $76 $77 reversed $29 $-1 #
face $-1 $-1 $78 $17 $-1 $79 forward single #
loop $-1 $80 $81 $31 #
cone-surface $-1 11.476002242494161 -26.063570474213655 7.6891993925827915 0 0.6560590369687036 -0.75470957328743171 0.25 0 0 1 I I -0.70710678118654624 0.70710678118654879 0.25 forward I I I I #
loop $-1 $-1 $82 $22 #
coedge $-1 $52 $52 $83 $84 reversed $32 $-1 #
face $-1 $85 $86 $18 $-1 $87 reversed single #
loop $-1 $-1 $88 $34 #
plane-surface $-1 11.476002242494161 -14.666149276310009 44.805356671390129 0 0.6560590369687036 0.75470957328743171 1 0 0 forward_v I I I I #
coedge $-1 $89 $90 $91 $92 reversed $35 $-1 #
face $-1 $-1 $93 $19 $-1 $94 forward single #
loop $-1 $95 $96 $37 #
cone-surface $-1 11.476002242494161 26.063570474213652 7.6891993925827915 0 -0.6560590369687036 -0.75470957328743171 0.25 0 0 1 I I -0.70710678118654624 0.70710678118654879 0.25 forward I I I I #
loop $-1 $-1 $97 $24 #
coedge $-1 $61 $61 $98 $99 reversed $38 $-1 #
face $-1 $100 $101 $15 $-1 $102 reversed single #
loop $-1 $-1 $103 $40 #
plane-surface $-1 0 -28.789945126561324 0 0 1 0 0 0 1 forward_v I I I I #
coedge $-1 $104 $105 $106 $107 forward $41 $-1 #
coedge $-1 $108 $43 $109 $110 forward $26 $-1 #
coedge $-1 $43 $108 $111 $112 forward $26 $-1 #
coedge $-1 $113 $114 $43 $69 reversed $115 $-1 #
edge $-1 $116 -28.789945126561324 $117 28.789945126561324 $68 $118 forward 7 unknown #
face $-1 $119 $120 $16 $-1 $121 reversed single #
loop $-1 $-1 $122 $44 #
plane-surface $-1 2.42814111756622 -98.445487204036866 87.159082606162301 1 0 0 0 0.6560590369687036 -0.75470957328743171 forward_v I I I I #
coedge $-1 $123 $124 $125 $126 reversed $45 $-1 #
coedge $-1 $75 $47 $127 $128 reversed $29 $-1 #
coedge $-1 $47 $74 $123 $129 reversed $29 $-1 #
coedge $-1 $125 $130 $47 $77 forward $131 $-1 #
edge $-1 $132 20.432798475457108 $133 24.191841487700454 $76 $134 forward 7 unknown #
loop $-1 $-1 $83 $48 #
plane-surface $-1 11.476002242494161 -28.789945126561321 7.0295493231628399 0 -0.6560590369687036 0.75470957328743171 1 0 0 forward_v I I I I #
loop $-1 $-1 $135 $31 #
coedge $-1 $81 $81 $82 $136 reversed $49 $-1 #
coedge $-1 $82 $82 $81 $136 forward $51 $-1 #
coedge $-1 $83 $83 $52 $84 forward $78 $-1 #
edge $-1 $137 3.9606256098776917e-015 $137 6.283185307179604 $83 $138 forward 7 unknown #
face $-1 $139 $140 $18 $-1 $141 reversed single #
loop $-1 $-1 $142 $53 #
plane-surface $-1 20.523863367422102 54.989392801165536 124.93488995438959 -1 0 0 0 0.6560590369687036 0.75470957328743171 forward_v I I I I #
coedge $-1 $143 $144 $145 $146 reversed $54 $-1 #
coedge $-1 $90 $56 $147 $148 reversed $35 $-1 #
coedge $-1 $56 $89 $143 $149 reversed $35 $-1 #
coedge $-1 $145 $150 $56 $92 forward $151 $-1 #
edge $-1 $152 -1.2952487259785563 $153 2.4637942862647719 $91 $154 forward 7 unknown #
loop $-1 $-1 $98 $57 #
plane-surface $-1 11.476002242494161 -14.666149276310009 44.805356671390129 0 0.6560590369687036 0.75470957328743171 1 0 0 forward_v I I I I #
loop $-1 $-1 $155 $37 #
coedge $-1 $96 $96 $97 $156 reversed $58 $-1 #
coedge $-1 $97 $97 $96 $156 forward $60 $-1 #
coedge $-1 $98 $98 $61 $99 forward $93 $-1 #
edge $-1 $157 4.6615798294787936e-015 $157 6.2831853071796049 $98 $158 forward 7 unknown #
face $-1 $159 $160 $15 $-1 $161 reversed single #
loop $-1 $-1 $162 $62 #
plane-surface $-1 -53.086336863307594 0 0 1 0 0 0 0 -1 forward_v I I I I #
coedge $-1 $163 $111 $164 $165 forward $63 $-1 #
coedge $-1 $166 $65 $163 $167 forward $41 $-1 #
coedge $-1 $65 $166 $168 $169 forward $41 $-1 #
coedge $-1 $114 $113 $65 $107 reversed $115 $-1 #
edge $-1 $170 -28.789945126561324 $171 28.789945126561324 $106 $172 forward 7 unknown #
coedge $-1 $67 $66 $173 $174 forward $26 $-1 #
coedge $-1 $175 $176 $66 $110 reversed $160 $-1 #
edge $-1 $117 -53.086336863307594 $177 53.086336863307594 $109 $178 forward 7 unknown #
coedge $-1 $103 $179 $67 $112 reversed $63 $-1 #
edge $-1 $180 -53.086336863307594 $116 53.086336863307594 $111 $181 forward 7 unknown #
coedge $-1 $106 $68 $179 $182 forward $115 $-1 #
coedge $-1 $68 $106 $175 $183 reversed $115 $-1 #
loop $-1 $-1 $113 $159 #
vertex $-1 $69 $184 #
vertex $-1 $69 $185 #
straight-curve $-1 53.086336863307594 0 10.297235630352512 0 1 0 I I #
face $-1 $-1 $131 $16 $-1 $186 forward single #
loop $-1 $-1 $187 $70 #
plane-surface $-1 0 -28.789945126561324 0 0 1 0 0 0 1 forward_v I I I I #
coedge $-1 $188 $189 $190 $191 reversed $71 $-1 #
coedge $-1 $192 $73 $75 $129 forward $45 $-1 #
coedge $-1 $73 $192 $188 $193 forward $45 $-1 #
coedge $-1 $190 $76 $73 $126 forward $131 $-1 #
edge $-1 $133 -14.785862246175022 $194 3.3098600036808605 $125 $195 forward 7 unknown #
coedge $-1 $196 $197 $74 $128 forward $120 $-1 #
edge $-1 $198 -36.54999197991831 $132 -33.28230567272864 $127 $199 forward 7 unknown #
edge $-1 $133 -4.9807808795499504 $198 4.429359460594495e-015 $75 $200 forward 7 unknown #
coedge $-1 $76 $190 $196 $201 forward $131 $-1 #
loop $-1 $-1 $190 $119 #
vertex $-1 $128 $202 #
vertex $-1 $77 $203 #
straight-curve $-1 20.523863367422102 -49.222743602018433 10.29723563035251 0 1 0 I I #
coedge $-1 $135 $135 $-1 $204 reversed $80 $-1 #
edge $-1 $205 0 $205 6.2831853071796004 $81 $206 forward 7 unknown #
vertex $-1 $84 $207 #
ellipse-curve $-1 11.476002242494161 -26.910423620439655 8.6633924767576715 0 -0.6560590369687036 0.75470957328743171 0.5 0 0 1 I I #
face $-1 $-1 $151 $18 $-1 $208 forward single #
loop $-1 $-1 $209 $85 #
plane-surface $-1 0 28.789945126561324 0 0 -1 0 0 0 -1 forward_v I I I I #
coedge $-1 $210 $211 $212 $213 reversed $86 $-1 #
coedge $-1 $214 $88 $90 $149 forward $54 $-1 #
coedge $-1 $88 $214 $210 $215 forward $54 $-1 #
coedge $-1 $212 $91 $88 $146 forward $151 $-1 #
edge $-1 $153 -3.3098600036808605 $216 14.785862246175022 $145 $217 forward 7 unknown #
coedge $-1 $218 $219 $89 $148 forward $140 $-1 #
edge $-1 $220 -55.437895654031948 $152 -52.170209346842285 $147 $221 forward 7 unknown #
edge $-1 $153 52.599109373572702 $220 57.579890253122642 $90 $222 forward 7 unknown #
coedge $-1 $91 $212 $218 $223 forward $151 $-1 #
loop $-1 $-1 $212 $139 #
vertex $-1 $148 $224 #
vertex $-1 $92 $225 #
straight-curve $-1 2.42814111756622 27.494696400582768 10.29723563035251 0 -1 0 I I #
coedge $-1 $155 $155 $-1 $226 reversed $95 $-1 #
edge $-1 $227 0 $227 6.2831853071796004 $96 $228 forward 7 unknown #
vertex $-1 $99 $229 #
ellipse-curve $-1 11.476002242494161 26.910423620439659 8.6633924767576822 0 0.6560590369687036 0.75470957328743171 0.5 0 0 1 I I #
face $-1 $-1 $115 $15 $-1 $230 reversed single #
loop $-1 $-1 $175 $100 #
plane-surface $-1 0 28.789945126561324 0 0 -1 0 0 0 -1 forward_v I I I I #
coedge $-1 $231 $173 $176 $232 forward $101 $-1 #
coedge $-1 $179 $103 $104 $167 reversed $63 $-1 #
coedge $-1 $173 $231 $103 $165 reversed $101 $-1 #
edge $-1 $180 -10.297235630352512 $233 10.297235630352512 $164 $234 forward 7 unknown #
coedge $-1 $105 $104 $231 $235 forward $41 $-1 #
edge $-1 $171 -53.086336863307594 $233 53.086336863307594 $163 $236 forward 7 unknown #
coedge $-1 $176 $175 $105 $169 reversed $160 $-1 #
edge $-1 $237 -53.086336863307594 $170 53.086336863307594 $168 $238 forward 7 unknown #
vertex $-1 $107 $239 #
vertex $-1 $182 $240 #
straight-curve $-1 53.086336863307594 0 -10.297235630352512 0 -1 0 I I #
coedge $-1 $162 $164 $108 $174 reversed $101 $-1 #
edge $-1 $177 -28.789945126561324 $180 28.789945126561324 $173 $241 forward 7 unknown #
coedge $-1 $168 $109 $114 $183 forward $160 $-1 #
coedge $-1 $109 $168 $162 $232 reversed $160 $-1 #
vertex $-1 $110 $242 #
straight-curve $-1 0 28.789945126561324 10.297235630352512 -1 0 0 I I #
coedge $-1 $111 $163 $113 $182 reversed $63 $-1 #
vertex $-1 $174 $243 #
straight-curve $-1 0 -28.789945126561324 10.297235630352512 1 0 0 I I #
edge $-1 $116 -10.297235630352512 $171 10.297235630352512 $113 $244 forward 7 unknown #
edge $-1 $117 -10.297235630352512 $170 10.297235630352512 $114 $245 forward 7 unknown #
point $-1 53.086336863307594 -28.789945126561324 10.297235630352512 #
point $-1 53.086336863307594 28.789945126561324 10.297235630352512 #
plane-surface $-1 0 0 10.297235630352512 0 0 1 1 0 0 forward_v I I I I #
coedge $-1 $197 $196 $189 $246 forward $120 $-1 #
coedge $-1 $189 $122 $124 $193 reversed $71 $-1 #
coedge $-1 $122 $188 $187 $246 reversed $71 $-1 #
coedge $-1 $130 $125 $122 $191 forward $131 $-1 #
edge $-1 $194 -24.191841487700454 $247 -20.432798475457108 $190 $248 forward 7 unknown #
coedge $-1 $124 $123 $197 $249 reversed $45 $-1 #
edge $-1 $250 -4.429359460594495e-015 $194 4.9807808795499504 $188 $251 forward 7 unknown #
vertex $-1 $126 $252 #
straight-curve $-1 5.7380011212470805 -25.030902114317982 10.297235630352514 -1 0 0 I I #
coedge $-1 $187 $127 $130 $201 reversed $120 $-1 #
coedge $-1 $127 $187 $192 $249 forward $120 $-1 #
vertex $-1 $128 $253 #
straight-curve $-1 20.523863367422102 -28.789945126561328 43.57954130308115 0 0 1 I I #
straight-curve $-1 20.523863367422102 -28.789945126561321 7.0295493231628399 0 -0.75470957328743171 -0.6560590369687036 I I #
edge $-1 $247 2.42814111756622 $132 20.523863367422102 $196 $254 forward 7 unknown #
point $-1 20.523863367422102 -28.789945126561324 10.297235630352512 #
point $-1 20.523863367422102 -25.030902114317978 10.297235630352512 #
edge $-1 $255 1 $255 0 $135 $-1 forward 7 unknown #
vertex $-1 $136 $256 #
ellipse-curve $-1 11.476002242494161 -26.22758523345583 7.8778767859046503 0 -0.6560590369687036 0.75470957328743171 0.5 0 0 1 I I #
point $-1 11.976002242494161 -26.910423620439659 8.6633924767576787 #
plane-surface $-1 0 0 10.297235630352512 0 0 1 1 0 0 forward_v I I I I #
coedge $-1 $219 $218 $211 $257 forward $140 $-1 #
coedge $-1 $211 $142 $144 $215 reversed $86 $-1 #
coedge $-1 $142 $210 $209 $257 reversed $86 $-1 #
coedge $-1 $150 $145 $142 $213 forward $151 $-1 #
edge $-1 $216 -2.4637942862647719 $258 1.2952487259785563 $212 $259 forward 7 unknown #
coedge $-1 $144 $143 $219 $260 reversed $54 $-1 #
edge $-1 $261 -57.579890253122642 $216 -52.599109373572702 $210 $262 forward 7 unknown #
vertex $-1 $146 $263 #
straight-curve $-1 5.7380011212470805 25.030902114317989 10.297235630352517 1 0 0 I I #
coedge $-1 $209 $147 $150 $223 reversed $140 $-1 #
coedge $-1 $147 $209 $214 $260 forward $140 $-1 #
vertex $-1 $148 $264 #
straight-curve $-1 2.42814111756622 28.789945126561324 62.467444977194795 0 0 1 I I #
straight-curve $-1 2.42814111756622 -14.666149276310009 44.805356671390129 0 0.75470957328743171 -0.6560590369687036 I I #
edge $-1 $258 -20.523863367422102 $152 -2.42814111756622 $218 $265 forward 7 unknown #
point $-1 2.42814111756622 28.789945126561324 10.297235630352512 #
point $-1 2.42814111756622 25.030902114317996 10.29723563035251 #
edge $-1 $266 1 $266 0 $155 $-1 forward 7 unknown #
vertex $-1 $156 $267 #
ellipse-curve $-1 11.476002242494161 26.227585233455827 7.8778767859046503 0 0.6560590369687036 0.75470957328743171 0.5 0 0 1 I I #
point $-1 11.976002242494161 26.910423620439659 8.6633924767576787 #
plane-surface $-1 53.086336863307594 0 0 -1 0 0 0 0 1 forward_v I I I I #
coedge $-1 $164 $162 $166 $235 reversed $101 $-1 #
edge $-1 $177 -10.297235630352512 $237 10.297235630352512 $176 $268 forward 7 unknown #
vertex $-1 $235 $269 #
straight-curve $-1 -53.086336863307594 -28.789945126561324 0 0 0 -1 I I #
edge $-1 $233 -28.789945126561324 $237 28.789945126561324 $231 $270 forward 7 unknown #
straight-curve $-1 0 -28.789945126561324 -10.297235630352512 -1 0 0 I I #
vertex $-1 $169 $271 #
straight-curve $-1 0 28.789945126561324 -10.297235630352512 1 0 0 I I #
point $-1 53.086336863307594 28.789945126561324 -10.297235630352512 #
point $-1 53.086336863307594 -28.789945126561324 -10.297235630352512 #
straight-curve $-1 -53.086336863307594 0 10.297235630352512 0 -1 0 I I #
point $-1 -53.086336863307594 28.789945126561324 10.297235630352512 #
point $-1 -53.086336863307594 -28.789945126561324 10.297235630352512 #
straight-curve $-1 53.086336863307594 -28.789945126561324 0 0 0 -1 I I #
straight-curve $-1 53.086336863307594 28.789945126561324 0 0 0 -1 I I #
edge $-1 $247 33.28230567272864 $250 36.54999197991831 $187 $272 forward 7 unknown #
vertex $-1 $201 $273 #
straight-curve $-1 2.42814111756622 -49.222743602018433 10.29723563035251 0 -1 0 I I #
edge $-1 $250 -3.3098600036808605 $198 14.785862246175022 $197 $274 forward 7 unknown #
vertex $-1 $249 $275 #
straight-curve $-1 2.42814111756622 -28.789945126561321 7.0295493231628399 0 0.75470957328743171 0.6560590369687036 I I #
point $-1 2.42814111756622 -25.030902114317978 10.297235630352512 #
point $-1 20.523863367422102 -28.789945126561324 7.0295493231628372 #
straight-curve $-1 0 -28.789945126561324 10.297235630352512 1 0 0 I I #
vertex $-1 $204 $276 #
point $-1 11.976002242494161 -26.22758523345583 7.8778767859046503 #
edge $-1 $258 52.170209346842285 $261 55.437895654031948 $209 $277 forward 7 unknown #
vertex $-1 $223 $278 #
straight-curve $-1 20.523863367422102 27.494696400582768 10.29723563035251 0 1 0 I I #
edge $-1 $261 -14.785862246175022 $220 3.3098600036808605 $219 $279 forward 7 unknown #
vertex $-1 $260 $280 #
straight-curve $-1 20.523863367422102 -14.666149276310009 44.805356671390129 0 -0.75470957328743171 0.6560590369687036 I I #
point $-1 20.523863367422102 25.030902114317996 10.29723563035251 #
point $-1 2.42814111756622 28.789945126561321 7.029549323162847 #
straight-curve $-1 0 28.789945126561324 10.297235630352512 -1 0 0 I I #
vertex $-1 $226 $281 #
point $-1 11.976002242494161 26.227585233455827 7.8778767859046503 #
straight-curve $-1 -53.086336863307594 28.789945126561324 0 0 0 -1 I I #
point $-1 -53.086336863307594 -28.789945126561324 -10.297235630352512 #
straight-curve $-1 -53.086336863307594 0 -10.297235630352512 0 1 0 I I #
point $-1 -53.086336863307594 28.789945126561324 -10.297235630352512 #
straight-curve $-1 2.42814111756622 -28.789945126561328 43.57954130308115 0 0 -1 I I #
point $-1 2.42814111756622 -28.789945126561324 10.297235630352512 #
straight-curve $-1 5.7380011212470805 -28.789945126561324 7.0295493231628345 1 0 0 I I #
point $-1 2.42814111756622 -28.789945126561324 7.0295493231628372 #
point $-1 11.476002242494161 -25.899555714971481 7.5005219992609327 #
straight-curve $-1 20.523863367422102 28.789945126561324 62.467444977194795 0 0 -1 I I #
point $-1 20.523863367422102 28.789945126561324 10.297235630352512 #
straight-curve $-1 5.7380011212470805 28.789945126561328 7.029549323162847 -1 0 0 I I #
point $-1 20.523863367422102 28.789945126561321 7.029549323162847 #
point $-1 11.476002242494161 25.899555714971477 7.5005219992609327 #
End-of-ACIS-data 