500 0 6 0           
7 Unknown 11 ACIS 5.0 NT 24 Fri Mar 26 00:51:41 1999 
-1 9.9999999999999995e-007 1e-010 
body $-1 $6 $-1 $7 #
body $-1 $8 $-1 $9 #
body $-1 $10 $-1 $11 #
body $-1 $12 $-1 $13 #
body $-1 $14 $-1 $15 #
body $-1 $16 $-1 $17 #
lump $-1 $-1 $18 $0 #
transform $-1 1 0 0 0 1 0 0 0 1 67.271340067751098 41.805461917954304 19.429900817734854 1 rotate no_reflect no_shear #
lump $-1 $-1 $19 $1 #
transform $-1 1 0 0 0 1 0 0 0 1 67.271340067751098 41.805461917954304 19.429900817734854 1 rotate no_reflect no_shear #
lump $-1 $-1 $20 $2 #
transform $-1 1 0 0 0 1 0 0 0 1 67.271340067751098 41.805461917954304 19.429900817734854 1 rotate no_reflect no_shear #
lump $-1 $-1 $21 $3 #
transform $-1 1 0 0 0 1 0 0 0 1 67.271340067751098 41.805461917954304 19.429900817734854 1 rotate no_reflect no_shear #
lump $-1 $-1 $22 $4 #
transform $-1 1 0 0 0 1 0 0 0 1 67.271340067751098 41.805461917954304 19.429900817734854 1 rotate no_reflect no_shear #
lump $-1 $-1 $23 $5 #
transform $-1 1 0 0 0 1 0 0 0 1 67.271340067751098 41.805461917954304 19.429900817734854 1 rotate no_reflect no_shear #
shell $-1 $-1 $-1 $24 $-1 $6 #
shell $-1 $-1 $-1 $25 $-1 $8 #
shell $-1 $-1 $-1 $26 $-1 $10 #
shell $-1 $-1 $-1 $27 $-1 $12 #
shell $-1 $-1 $-1 $28 $-1 $14 #
shell $-1 $-1 $-1 $29 $-1 $16 #
face $-1 $30 $31 $18 $-1 $32 forward single #
face $-1 $33 $34 $19 $-1 $35 forward single #
face $-1 $36 $37 $20 $-1 $38 forward single #
face $-1 $39 $40 $21 $-1 $41 reversed single #
face $-1 $42 $43 $22 $-1 $44 forward single #
face $-1 $45 $46 $23 $-1 $47 forward single #
face $-1 $48 $49 $18 $-1 $50 reversed single #
loop $-1 $-1 $51 $24 #
plane-surface $-1 0 0 19.429900817734854 0 0 1 1 0 0 forward_v I I I I #
face $-1 $52 $53 $19 $-1 $54 reversed single #
loop $-1 $-1 $55 $25 #
plane-surface $-1 -67.271340067751098 0 0 1 0 0 0 0 -1 forward_v I I I I #
face $-1 $56 $57 $20 $-1 $58 forward single #
loop $-1 $-1 $59 $26 #
plane-surface $-1 67.271340067751098 0 0 -1 0 0 0 0 1 forward_v I I I I #
face $-1 $60 $61 $21 $-1 $62 reversed single #
loop $-1 $-1 $63 $27 #
plane-surface $-1 -32.141565083958895 101.50751069789128 155.57535595003432 1 0 0 0 -0.80901700255871778 -0.5877852410284794 forward_v I I I I #
face $-1 $64 $65 $22 $-1 $66 forward single #
loop $-1 $67 $68 $28 #
cone-surface $-1 -27.90703690180942 36.69016550149729 13.215961508248165 0 -0.80901700255871778 -0.5877852410284794 2 0 0 1 I I 0 1 2 forward I I I I #
face $-1 $69 $70 $23 $-1 $71 forward single #
loop $-1 $72 $73 $29 #
cone-surface $-1 -21.555244628585207 36.69016550149729 13.215961508248165 0 -0.80901700255871778 -0.5877852410284794 2 0 0 1 I I 0 1 2 forward I I I I #
face $-1 $74 $75 $18 $-1 $76 reversed single #
loop $-1 $-1 $77 $30 #
plane-surface $-1 0 0 -19.429900817734854 0 0 1 1 0 0 forward_v I I I I #
coedge $-1 $78 $79 $80 $81 forward $31 $-1 #
face $-1 $82 $83 $19 $-1 $84 reversed single #
loop $-1 $-1 $85 $33 #
plane-surface $-1 0 41.805461917954304 0 0 -1 0 0 0 -1 forward_v I I I I #
coedge $-1 $86 $87 $88 $89 forward $34 $-1 #
face $-1 $90 $91 $20 $-1 $92 reversed single #
loop $-1 $-1 $93 $36 #
plane-surface $-1 0 0 19.429900817734854 0 0 1 1 0 0 forward_v I I I I #
coedge $-1 $94 $95 $96 $97 forward $37 $-1 #
face $-1 $98 $99 $21 $-1 $100 reversed single #
loop $-1 $-1 $101 $39 #
plane-surface $-1 -24.73114076519731 -7.3398051015490466 76.493154277970561 0 0.80901700255871778 0.5877852410284794 1 0 0 forward_v I I I I #
coedge $-1 $102 $103 $104 $105 reversed $40 $-1 #
face $-1 $-1 $106 $22 $-1 $107 forward single #
loop $-1 $108 $109 $42 #
cone-surface $-1 -27.90703690180942 34.609045986568418 11.703939719061161 0 -0.80901700255871778 -0.5877852410284794 1 0 0 1 I I -0.70710678118654746 0.70710678118654746 1 forward I I I I #
loop $-1 $-1 $110 $28 #
coedge $-1 $68 $68 $111 $112 reversed $43 $-1 #
face $-1 $-1 $113 $23 $-1 $114 forward single #
loop $-1 $115 $116 $45 #
cone-surface $-1 -21.555244628585207 34.609045986568418 11.703939719061161 0 -0.80901700255871778 -0.5877852410284794 1 0 0 1 I I -0.70710678118654746 0.70710678118654746 1 forward I I I I #
loop $-1 $-1 $117 $29 #
coedge $-1 $73 $73 $118 $119 reversed $46 $-1 #
face $-1 $120 $121 $18 $-1 $122 reversed single #
loop $-1 $-1 $123 $48 #
plane-surface $-1 0 -41.805461917954304 0 0 1 0 0 0 1 forward_v I I I I #
coedge $-1 $124 $125 $126 $127 forward $49 $-1 #
coedge $-1 $128 $51 $129 $130 forward $31 $-1 #
coedge $-1 $51 $128 $131 $132 forward $31 $-1 #
coedge $-1 $133 $134 $51 $81 reversed $135 $-1 #
edge $-1 $136 -41.805461917954304 $137 41.805461917954304 $80 $138 forward 7 unknown #
face $-1 $139 $140 $19 $-1 $141 reversed single #
loop $-1 $-1 $88 $52 #
plane-surface $-1 -77.13168711593579 0 8.7283049432883697 0 0 1 1 0 0 forward_v I I I I #
coedge $-1 $142 $143 $86 $144 forward $53 $-1 #
coedge $-1 $145 $55 $85 $144 reversed $34 $-1 #
coedge $-1 $55 $145 $146 $147 reversed $34 $-1 #
coedge $-1 $148 $149 $55 $89 reversed $83 $-1 #
edge $-1 $150 -41.805461917954304 $151 41.805461917954304 $88 $152 forward 7 unknown #
face $-1 $153 $154 $20 $-1 $155 reversed single #
loop $-1 $-1 $156 $56 #
plane-surface $-1 0 -41.805461917954304 0 0 1 0 0 0 1 forward_v I I I I #
coedge $-1 $157 $158 $159 $160 forward $57 $-1 #
coedge $-1 $159 $59 $156 $161 reversed $37 $-1 #
coedge $-1 $59 $159 $162 $163 reversed $37 $-1 #
coedge $-1 $164 $165 $59 $97 reversed $154 $-1 #
edge $-1 $166 -41.805461917954304 $167 41.805461917954304 $96 $168 forward 7 unknown #
face $-1 $169 $170 $21 $-1 $171 reversed single #
loop $-1 $-1 $172 $60 #
plane-surface $-1 -17.320716446435725 101.50751069789128 155.57535595003432 -1 0 0 0 0.80901700255871778 0.5877852410284794 forward_v I I I I #
coedge $-1 $173 $174 $175 $176 reversed $61 $-1 #
coedge $-1 $103 $63 $177 $178 reversed $40 $-1 #
coedge $-1 $63 $102 $173 $179 reversed $40 $-1 #
coedge $-1 $175 $180 $63 $105 forward $181 $-1 #
edge $-1 $182 8.9482934309913347 $183 16.634681239165026 $104 $184 forward 7 unknown #
loop $-1 $-1 $111 $64 #
plane-surface $-1 -24.73114076519731 -7.3398051015490466 76.493154277970561 0 0.80901700255871778 0.5877852410284794 1 0 0 forward_v I I I I #
loop $-1 $-1 $185 $42 #
coedge $-1 $109 $109 $110 $186 reversed $65 $-1 #
coedge $-1 $110 $110 $109 $186 forward $67 $-1 #
coedge $-1 $111 $111 $68 $112 forward $106 $-1 #
edge $-1 $187 2.0226498759142259e-016 $187 6.2831853071796004 $111 $188 forward 7 unknown #
loop $-1 $-1 $118 $69 #
plane-surface $-1 -24.73114076519731 -7.3398051015490466 76.493154277970561 0 0.80901700255871778 0.5877852410284794 1 0 0 forward_v I I I I #
loop $-1 $-1 $189 $45 #
coedge $-1 $116 $116 $117 $190 reversed $70 $-1 #
coedge $-1 $117 $117 $116 $190 forward $72 $-1 #
coedge $-1 $118 $118 $73 $119 forward $113 $-1 #
edge $-1 $191 2.0226498759142259e-016 $191 6.2831853071796004 $118 $192 forward 7 unknown #
face $-1 $193 $194 $18 $-1 $195 reversed single #
loop $-1 $-1 $196 $74 #
plane-surface $-1 -67.271340067751098 0 0 1 0 0 0 0 -1 forward_v I I I I #
coedge $-1 $197 $131 $198 $199 forward $75 $-1 #
coedge $-1 $200 $77 $197 $201 forward $49 $-1 #
coedge $-1 $77 $200 $202 $203 forward $49 $-1 #
coedge $-1 $134 $133 $77 $127 reversed $135 $-1 #
edge $-1 $204 -41.805461917954304 $205 41.805461917954304 $126 $206 forward 7 unknown #
coedge $-1 $79 $78 $207 $208 forward $31 $-1 #
coedge $-1 $209 $210 $78 $130 reversed $194 $-1 #
edge $-1 $137 -67.271340067751098 $211 67.271340067751098 $129 $212 forward 7 unknown #
coedge $-1 $123 $213 $79 $132 reversed $75 $-1 #
edge $-1 $214 -67.271340067751098 $136 67.271340067751098 $131 $215 forward 7 unknown #
coedge $-1 $126 $80 $213 $216 forward $135 $-1 #
coedge $-1 $80 $126 $209 $217 reversed $135 $-1 #
loop $-1 $-1 $133 $193 #
vertex $-1 $81 $218 #
vertex $-1 $81 $219 #
straight-curve $-1 67.271340067751098 0 19.429900817734854 0 1 0 I I #
face $-1 $220 $221 $19 $-1 $222 forward single #
loop $-1 $-1 $223 $82 #
plane-surface $-1 -86.992034164120469 0 14.079102880511613 1 0 0 0 0 -1 forward_v I I I I #
coedge $-1 $224 $85 $149 $225 reversed $53 $-1 #
coedge $-1 $85 $224 $226 $227 reversed $53 $-1 #
edge $-1 $228 -19.429900817734854 $151 -8.7283049432883697 $85 $229 forward 7 unknown #
coedge $-1 $87 $86 $230 $231 reversed $34 $-1 #
coedge $-1 $232 $233 $87 $147 forward $234 $-1 #
edge $-1 $150 8.7283049432883697 $235 19.429900817734854 $146 $236 forward 7 unknown #
coedge $-1 $237 $88 $233 $238 forward $83 $-1 #
coedge $-1 $88 $237 $142 $225 forward $83 $-1 #
vertex $-1 $147 $239 #
vertex $-1 $144 $240 #
straight-curve $-1 -67.271340067751098 0 8.7283049432883697 0 1 0 I I #
face $-1 $241 $242 $20 $-1 $243 reversed single #
loop $-1 $-1 $244 $90 #
plane-surface $-1 77.131687115935804 0 8.7283049432883697 0 0 1 1 0 0 forward_v I I I I #
coedge $-1 $245 $246 $94 $161 forward $91 $-1 #
coedge $-1 $247 $93 $246 $248 forward $57 $-1 #
coedge $-1 $93 $247 $249 $250 forward $57 $-1 #
coedge $-1 $95 $94 $93 $160 reversed $37 $-1 #
edge $-1 $251 -41.805461917954304 $252 41.805461917954304 $93 $253 forward 7 unknown #
edge $-1 $252 -19.429900817734854 $167 -8.7283049432883697 $156 $254 forward 7 unknown #
coedge $-1 $249 $255 $95 $163 forward $256 $-1 #
edge $-1 $166 8.7283049432883697 $251 19.429900817734854 $162 $257 forward 7 unknown #
coedge $-1 $244 $96 $255 $258 forward $154 $-1 #
coedge $-1 $96 $244 $245 $259 forward $154 $-1 #
vertex $-1 $163 $260 #
vertex $-1 $161 $261 #
straight-curve $-1 67.271340067751098 0 8.7283049432883697 0 -1 0 I I #
face $-1 $-1 $181 $21 $-1 $262 forward single #
loop $-1 $-1 $263 $98 #
plane-surface $-1 0 41.805461917954304 0 0 -1 0 0 0 -1 forward_v I I I I #
coedge $-1 $264 $265 $266 $267 reversed $99 $-1 #
coedge $-1 $268 $101 $103 $179 forward $61 $-1 #
coedge $-1 $101 $268 $264 $269 forward $61 $-1 #
coedge $-1 $266 $104 $101 $176 forward $181 $-1 #
edge $-1 $183 -19.77599470136024 $270 -4.9551460638370699 $175 $271 forward 7 unknown #
coedge $-1 $272 $273 $102 $178 forward $170 $-1 #
edge $-1 $274 -68.937182679938601 $182 -58.357777157282307 $177 $275 forward 7 unknown #
edge $-1 $183 70.534059580650293 $274 83.610923835908565 $103 $276 forward 7 unknown #
coedge $-1 $104 $266 $272 $277 forward $181 $-1 #
loop $-1 $-1 $266 $169 #
vertex $-1 $178 $278 #
vertex $-1 $105 $279 #
straight-curve $-1 -32.141565083958895 50.753755348945639 19.429900817734861 0 -1 0 I I #
coedge $-1 $185 $185 $-1 $280 reversed $108 $-1 #
edge $-1 $281 0 $281 6.2831853071796004 $109 $282 forward 7 unknown #
vertex $-1 $112 $283 #
ellipse-curve $-1 -27.90703690180942 37.962268013867465 14.140198056406705 0 0.80901700255871778 0.5877852410284794 2 0 0 1 I I #
coedge $-1 $189 $189 $-1 $284 reversed $115 $-1 #
edge $-1 $285 0 $285 6.2831853071796004 $116 $286 forward 7 unknown #
vertex $-1 $119 $287 #
ellipse-curve $-1 -21.555244628585207 37.962268013867465 14.140198056406705 0 0.80901700255871778 0.5877852410284794 2 0 0 1 I I #
face $-1 $-1 $135 $18 $-1 $288 reversed single #
loop $-1 $-1 $209 $120 #
plane-surface $-1 0 41.805461917954304 0 0 -1 0 0 0 -1 forward_v I I I I #
coedge $-1 $289 $207 $210 $290 forward $121 $-1 #
coedge $-1 $213 $123 $124 $201 reversed $75 $-1 #
coedge $-1 $207 $289 $123 $199 reversed $121 $-1 #
edge $-1 $214 -19.429900817734854 $291 19.429900817734854 $198 $292 forward 7 unknown #
coedge $-1 $125 $124 $289 $293 forward $49 $-1 #
edge $-1 $205 -67.271340067751098 $291 67.271340067751098 $197 $294 forward 7 unknown #
coedge $-1 $210 $209 $125 $203 reversed $194 $-1 #
edge $-1 $295 -67.271340067751098 $204 67.271340067751098 $202 $296 forward 7 unknown #
vertex $-1 $127 $297 #
vertex $-1 $216 $298 #
straight-curve $-1 67.271340067751098 0 -19.429900817734854 0 -1 0 I I #
coedge $-1 $196 $198 $128 $208 reversed $121 $-1 #
edge $-1 $211 -41.805461917954304 $214 41.805461917954304 $207 $299 forward 7 unknown #
coedge $-1 $202 $129 $134 $217 forward $194 $-1 #
coedge $-1 $129 $202 $196 $290 reversed $194 $-1 #
vertex $-1 $130 $300 #
straight-curve $-1 0 41.805461917954304 19.429900817734854 -1 0 0 I I #
coedge $-1 $131 $197 $133 $216 reversed $75 $-1 #
vertex $-1 $208 $301 #
straight-curve $-1 0 -41.805461917954304 19.429900817734854 1 0 0 I I #
edge $-1 $136 -19.429900817734854 $205 19.429900817734854 $133 $302 forward 7 unknown #
edge $-1 $137 -19.429900817734854 $204 19.429900817734854 $134 $303 forward 7 unknown #
point $-1 67.271340067751098 -41.805461917954304 19.429900817734854 #
point $-1 67.271340067751098 41.805461917954304 19.429900817734854 #
face $-1 $-1 $234 $19 $-1 $304 reversed single #
loop $-1 $-1 $230 $139 #
plane-surface $-1 0 0 19.429900817734854 0 0 1 1 0 0 forward_v I I I I #
coedge $-1 $305 $306 $224 $307 forward $140 $-1 #
coedge $-1 $143 $142 $223 $307 reversed $53 $-1 #
edge $-1 $308 -9.8603470481846784 $151 9.8603470481846784 $142 $309 forward 7 unknown #
coedge $-1 $310 $230 $143 $227 forward $221 $-1 #
edge $-1 $228 67.271340067751098 $311 86.992034164120469 $143 $312 forward 7 unknown #
vertex $-1 $227 $313 #
straight-curve $-1 -67.271340067751098 41.805461917954304 0 0 0 -1 I I #
coedge $-1 $226 $314 $145 $231 forward $221 $-1 #
edge $-1 $235 -41.805461917954304 $228 41.805461917954304 $230 $315 forward 7 unknown #
coedge $-1 $316 $146 $314 $317 reversed $234 $-1 #
coedge $-1 $146 $316 $148 $238 reversed $234 $-1 #
loop $-1 $-1 $146 $220 #
vertex $-1 $147 $318 #
straight-curve $-1 -67.271340067751098 -41.805461917954304 0 0 0 1 I I #
coedge $-1 $149 $148 $305 $319 forward $83 $-1 #
edge $-1 $150 -9.8603470481846784 $320 9.8603470481846784 $233 $321 forward 7 unknown #
point $-1 -67.271340067751112 -41.805461917954304 8.7283049432883697 #
point $-1 -67.271340067751112 41.805461917954304 8.7283049432883697 #
face $-1 $-1 $256 $20 $-1 $322 reversed single #
loop $-1 $-1 $323 $153 #
plane-surface $-1 86.992034164120497 0 14.079102880511613 -1 0 0 0 0 1 forward_v I I I I #
coedge $-1 $165 $164 $324 $325 forward $154 $-1 #
coedge $-1 $326 $156 $165 $259 reversed $91 $-1 #
coedge $-1 $156 $326 $157 $248 reversed $91 $-1 #
coedge $-1 $158 $157 $327 $328 forward $57 $-1 #
edge $-1 $252 -9.8603470481847069 $329 9.8603470481846927 $246 $330 forward 7 unknown #
coedge $-1 $331 $162 $158 $250 reversed $256 $-1 #
edge $-1 $332 -86.992034164120497 $251 -67.271340067751098 $249 $333 forward 7 unknown #
vertex $-1 $163 $334 #
vertex $-1 $248 $335 #
straight-curve $-1 67.271340067751098 0 19.429900817734854 0 -1 0 I I #
straight-curve $-1 67.271340067751098 -41.805461917954304 0 0 0 -1 I I #
coedge $-1 $162 $331 $164 $258 reversed $256 $-1 #
loop $-1 $-1 $162 $241 #
straight-curve $-1 67.271340067751098 41.805461917954304 0 0 0 1 I I #
edge $-1 $166 -9.8603470481846927 $336 9.8603470481846927 $255 $337 forward 7 unknown #
edge $-1 $338 -9.8603470481846927 $167 9.8603470481846927 $245 $339 forward 7 unknown #
point $-1 67.271340067751112 41.805461917954304 8.7283049432883697 #
point $-1 67.271340067751112 -41.805461917954304 8.7283049432883697 #
plane-surface $-1 0 0 19.429900817734854 0 0 1 1 0 0 forward_v I I I I #
coedge $-1 $273 $272 $265 $340 forward $170 $-1 #
coedge $-1 $265 $172 $174 $269 reversed $99 $-1 #
coedge $-1 $172 $264 $263 $340 reversed $99 $-1 #
coedge $-1 $180 $175 $172 $267 forward $181 $-1 #
edge $-1 $270 -16.634681239165026 $341 -8.9482934309913347 $266 $342 forward 7 unknown #
coedge $-1 $174 $173 $273 $343 reversed $61 $-1 #
edge $-1 $344 -83.610923835908565 $270 -70.534059580650293 $264 $345 forward 7 unknown #
vertex $-1 $176 $346 #
straight-curve $-1 -12.365570382598655 34.119074109780613 19.429900817734854 1 0 0 I I #
coedge $-1 $263 $177 $180 $277 reversed $170 $-1 #
coedge $-1 $177 $263 $268 $343 forward $170 $-1 #
vertex $-1 $178 $347 #
straight-curve $-1 -32.141565083958895 41.805461917954304 77.787677975017161 0 0 1 I I #
straight-curve $-1 -32.141565083958895 -7.3398051015490466 76.493154277970561 0 0.5877852410284794 -0.80901700255871778 I I #
edge $-1 $341 17.320716446435725 $182 32.141565083958895 $272 $348 forward 7 unknown #
point $-1 -32.141565083958895 41.805461917954304 19.429900817734854 #
point $-1 -32.141565083958895 34.119074109780613 19.429900817734847 #
edge $-1 $349 1 $349 0 $185 $-1 forward 7 unknown #
vertex $-1 $186 $350 #
ellipse-curve $-1 -27.90703690180942 35.418062989127137 12.29172496008964 0 0.80901700255871778 0.5877852410284794 2 0 0 1 I I #
point $-1 -25.90703690180942 37.962268013867444 14.140198056406689 #
edge $-1 $351 1 $351 0 $189 $-1 forward 7 unknown #
vertex $-1 $190 $352 #
ellipse-curve $-1 -21.555244628585207 35.418062989127137 12.29172496008964 0 0.80901700255871778 0.5877852410284794 2 0 0 1 I I #
point $-1 -19.555244628585207 37.962268013867444 14.140198056406689 #
plane-surface $-1 67.271340067751098 0 0 -1 0 0 0 0 1 forward_v I I I I #
coedge $-1 $198 $196 $200 $293 reversed $121 $-1 #
edge $-1 $211 -19.429900817734854 $295 19.429900817734854 $210 $353 forward 7 unknown #
vertex $-1 $293 $354 #
straight-curve $-1 -67.271340067751098 -41.805461917954304 0 0 0 -1 I I #
edge $-1 $291 -41.805461917954304 $295 41.805461917954304 $289 $355 forward 7 unknown #
straight-curve $-1 0 -41.805461917954304 -19.429900817734854 -1 0 0 I I #
vertex $-1 $203 $356 #
straight-curve $-1 0 41.805461917954304 -19.429900817734854 1 0 0 I I #
point $-1 67.271340067751098 41.805461917954304 -19.429900817734854 #
point $-1 67.271340067751098 -41.805461917954304 -19.429900817734854 #
straight-curve $-1 -67.271340067751098 0 19.429900817734854 0 -1 0 I I #
point $-1 -67.271340067751098 41.805461917954304 19.429900817734854 #
point $-1 -67.271340067751098 -41.805461917954304 19.429900817734854 #
straight-curve $-1 67.271340067751098 -41.805461917954304 0 0 0 -1 I I #
straight-curve $-1 67.271340067751098 41.805461917954304 0 0 0 -1 I I #
plane-surface $-1 0 -41.805461917954304 0 0 1 0 0 0 1 forward_v I I I I #
coedge $-1 $357 $223 $237 $319 reversed $140 $-1 #
coedge $-1 $223 $357 $310 $358 reversed $140 $-1 #
edge $-1 $311 -5.3507979372232413 $308 5.350797937223243 $224 $359 forward 7 unknown #
vertex $-1 $225 $360 #
straight-curve $-1 -77.13168711593579 41.805461917954304 8.7283049432883697 1 0 0 I I #
coedge $-1 $314 $226 $306 $358 forward $221 $-1 #
vertex $-1 $227 $361 #
straight-curve $-1 0 41.805461917954304 19.429900817734854 -1 0 0 I I #
point $-1 -67.271340067751098 41.805461917954304 19.429900817734854 #
coedge $-1 $230 $310 $232 $317 forward $221 $-1 #
straight-curve $-1 -67.271340067751098 0 19.429900817734854 0 1 0 I I #
coedge $-1 $233 $232 $357 $362 forward $234 $-1 #
edge $-1 $363 -86.992034164120469 $235 -67.271340067751098 $232 $364 forward 7 unknown #
point $-1 -67.271340067751098 -41.805461917954304 19.429900817734854 #
edge $-1 $320 -41.805461917954304 $308 41.805461917954304 $305 $365 forward 7 unknown #
vertex $-1 $319 $366 #
straight-curve $-1 -77.13168711593579 -41.805461917954304 8.7283049432883697 -1 0 0 I I #
plane-surface $-1 0 41.805461917954304 0 0 -1 0 0 0 -1 forward_v I I I I #
coedge $-1 $324 $327 $326 $367 forward $242 $-1 #
coedge $-1 $368 $323 $244 $325 reversed $242 $-1 #
edge $-1 $336 -41.805461917954304 $338 41.805461917954304 $324 $369 forward 7 unknown #
coedge $-1 $246 $245 $323 $367 reversed $91 $-1 #
coedge $-1 $323 $368 $247 $328 reversed $242 $-1 #
edge $-1 $329 -41.805461917954304 $332 41.805461917954304 $327 $370 forward 7 unknown #
vertex $-1 $328 $371 #
straight-curve $-1 77.131687115935804 -41.805461917954304 19.429900817734854 1 0 0 I I #
coedge $-1 $255 $249 $368 $372 forward $256 $-1 #
vertex $-1 $328 $373 #
straight-curve $-1 0 41.805461917954304 19.429900817734854 -1 0 0 I I #
point $-1 67.271340067751098 41.805461917954304 19.429900817734854 #
point $-1 67.271340067751098 -41.805461917954304 19.429900817734854 #
vertex $-1 $325 $374 #
straight-curve $-1 77.131687115935804 41.805461917954304 8.7283049432883697 1 0 0 I I #
vertex $-1 $367 $375 #
straight-curve $-1 77.131687115935804 -41.805461917954304 8.7283049432883697 -1 0 0 I I #
edge $-1 $341 58.357777157282307 $344 68.937182679938601 $263 $376 forward 7 unknown #
vertex $-1 $277 $377 #
straight-curve $-1 -17.320716446435725 50.753755348945639 19.429900817734861 0 1 0 I I #
edge $-1 $344 4.9551460638370699 $274 19.77599470136024 $273 $378 forward 7 unknown #
vertex $-1 $343 $379 #
straight-curve $-1 -17.320716446435725 -7.3398051015490466 76.493154277970561 0 -0.5877852410284794 0.80901700255871778 I I #
point $-1 -17.320716446435725 34.119074109780613 19.429900817734847 #
point $-1 -32.141565083958895 41.805461917954304 8.8504952950785594 #
straight-curve $-1 0 41.805461917954304 19.429900817734854 -1 0 0 I I #
vertex $-1 $280 $380 #
point $-1 -25.90703690180942 35.418062989127137 12.29172496008964 #
vertex $-1 $284 $381 #
point $-1 -19.555244628585207 35.418062989127137 12.29172496008964 #
straight-curve $-1 -67.271340067751098 41.805461917954304 0 0 0 -1 I I #
point $-1 -67.271340067751098 -41.805461917954304 -19.429900817734854 #
straight-curve $-1 -67.271340067751098 0 -19.429900817734854 0 1 0 I I #
point $-1 -67.271340067751098 41.805461917954304 -19.429900817734854 #
coedge $-1 $306 $305 $316 $362 reversed $140 $-1 #
edge $-1 $311 -41.805461917954304 $363 41.805461917954304 $306 $382 forward 7 unknown #
straight-curve $-1 -86.992034164120469 41.805461917954304 14.079102880511613 0 0 -1 I I #
point $-1 -86.992034164120469 41.805461917954304 8.7283049432883697 #
point $-1 -86.992034164120469 41.805461917954304 19.429900817734854 #
edge $-1 $363 -5.3507979372232413 $320 5.350797937223243 $357 $383 forward 7 unknown #
vertex $-1 $358 $384 #
straight-curve $-1 0 -41.805461917954304 19.429900817734854 1 0 0 I I #
straight-curve $-1 -86.992034164120469 0 8.7283049432883697 0 1 0 I I #
point $-1 -86.992034164120469 -41.805461917954304 8.7283049432883697 #
edge $-1 $329 -5.3507979372232413 $338 5.350797937223243 $323 $385 forward 7 unknown #
coedge $-1 $327 $324 $331 $372 reversed $242 $-1 #
straight-curve $-1 86.992034164120497 0 8.7283049432883697 0 -1 0 I I #
straight-curve $-1 86.992034164120497 0 19.429900817734854 0 1 0 I I #
point $-1 86.992034164120497 -41.805461917954304 19.429900817734854 #
edge $-1 $332 -5.3507979372232413 $336 5.350797937223243 $368 $386 forward 7 unknown #
point $-1 86.992034164120497 41.805461917954304 19.429900817734854 #
point $-1 86.992034164120497 41.805461917954304 8.7283049432883697 #
point $-1 86.992034164120497 -41.805461917954304 8.7283049432883697 #
straight-curve $-1 -17.320716446435725 41.805461917954304 77.787677975017161 0 0 -1 I I #
point $-1 -17.320716446435725 41.805461917954304 19.429900817734854 #
straight-curve $-1 -12.365570382598655 41.805461917954304 8.8504952950785594 -1 0 0 I I #
point $-1 -17.320716446435725 41.805461917954304 8.8504952950785594 #
point $-1 -27.90703690180942 33.8000289840097 11.116154478032682 #
point $-1 -21.555244628585207 33.8000289840097 11.116154478032682 #
straight-curve $-1 -86.992034164120469 0 19.429900817734854 0 -1 0 I I #
straight-curve $-1 -86.992034164120469 -41.805461917954304 14.079102880511613 0 0 -1 I I #
point $-1 -86.992034164120469 -41.805461917954304 19.429900817734854 #
straight-curve $-1 86.992034164120497 -41.805461917954304 14.079102880511613 0 0 -1 I I #
straight-curve $-1 86.992034164120497 41.805461917954304 14.079102880511613 0 0 -1 I I #
End-of-ACIS-data 