500 0 10 0           
7 Unknown 11 ACIS 5.0 NT 24 Fri Mar 26 19:43:05 1999 
-1 9.9999999999999995e-007 1e-010 
body $-1 $10 $-1 $11 #
body $-1 $12 $-1 $13 #
body $-1 $14 $-1 $15 #
body $-1 $16 $-1 $17 #
body $-1 $18 $-1 $19 #
body $-1 $20 $-1 $21 #
body $-1 $22 $-1 $23 #
body $-1 $24 $-1 $25 #
body $-1 $26 $-1 $27 #
body $-1 $28 $-1 $29 #
lump $-1 $-1 $30 $0 #
transform $-1 1 0 0 0 1 0 0 0 1 53.170567949461351 37.144916255107873 15.302227272952196 1 rotate no_reflect no_shear #
lump $-1 $-1 $31 $1 #
transform $-1 1 0 0 0 1 0 0 0 1 53.170567949461351 37.144916255107873 15.302227272952196 1 rotate no_reflect no_shear #
lump $-1 $-1 $32 $2 #
transform $-1 1 0 0 0 1 0 0 0 1 53.170567949461351 37.144916255107873 15.302227272952196 1 rotate no_reflect no_shear #
lump $-1 $-1 $33 $3 #
transform $-1 1 0 0 0 1 0 0 0 1 53.170567949461351 37.144916255107873 15.302227272952196 1 rotate no_reflect no_shear #
lump $-1 $-1 $34 $4 #
transform $-1 1 0 0 0 1 0 0 0 1 53.170567949461351 37.144916255107873 15.302227272952196 1 rotate no_reflect no_shear #
lump $-1 $-1 $35 $5 #
transform $-1 1 0 0 0 1 0 0 0 1 53.170567949461351 37.144916255107873 15.302227272952196 1 rotate no_reflect no_shear #
lump $-1 $-1 $36 $6 #
transform $-1 1 0 0 0 1 0 0 0 1 53.170567949461351 37.144916255107873 15.302227272952196 1 rotate no_reflect no_shear #
lump $-1 $-1 $37 $7 #
transform $-1 1 0 0 0 1 0 0 0 1 53.170567949461351 37.144916255107873 15.302227272952196 1 rotate no_reflect no_shear #
lump $-1 $-1 $38 $8 #
transform $-1 1 0 0 0 1 0 0 0 1 53.170567949461351 37.144916255107873 15.302227272952196 1 rotate no_reflect no_shear #
lump $-1 $-1 $39 $9 #
transform $-1 1 0 0 0 1 0 0 0 1 53.170567949461351 37.144916255107873 15.302227272952196 1 rotate no_reflect no_shear #
shell $-1 $-1 $-1 $40 $-1 $10 #
shell $-1 $-1 $-1 $41 $-1 $12 #
shell $-1 $-1 $-1 $42 $-1 $14 #
shell $-1 $-1 $-1 $43 $-1 $16 #
shell $-1 $-1 $-1 $44 $-1 $18 #
shell $-1 $-1 $-1 $45 $-1 $20 #
shell $-1 $-1 $-1 $46 $-1 $22 #
shell $-1 $-1 $-1 $47 $-1 $24 #
shell $-1 $-1 $-1 $48 $-1 $26 #
shell $-1 $-1 $-1 $49 $-1 $28 #
face $-1 $50 $51 $30 $-1 $52 reversed single #
face $-1 $53 $54 $31 $-1 $55 forward single #
face $-1 $56 $57 $32 $-1 $58 forward single #
face $-1 $59 $60 $33 $-1 $61 reversed single #
face $-1 $62 $63 $34 $-1 $64 forward single #
face $-1 $65 $66 $35 $-1 $67 forward single #
face $-1 $68 $69 $36 $-1 $70 reversed single #
face $-1 $71 $72 $37 $-1 $73 forward single #
face $-1 $74 $75 $38 $-1 $76 forward single #
face $-1 $77 $78 $39 $-1 $79 forward single #
face $-1 $80 $81 $30 $-1 $82 reversed single #
loop $-1 $-1 $83 $40 #
plane-surface $-1 0 37.144916255107873 0 0 -1 0 0 0 -1 forward_v I I I I #
face $-1 $84 $85 $31 $-1 $86 reversed single #
loop $-1 $-1 $87 $41 #
plane-surface $-1 0 -37.144916255107873 0 0 1 0 0 0 1 forward_v I I I I #
face $-1 $88 $89 $32 $-1 $90 reversed single #
loop $-1 $-1 $91 $42 #
plane-surface $-1 0 37.144916255107873 0 0 -1 0 0 0 -1 forward_v I I I I #
face $-1 $92 $93 $33 $-1 $94 reversed single #
loop $-1 $-1 $95 $43 #
plane-surface $-1 42.679957860289882 26.396641532210555 153.96942106871464 0 -1 0 -0.6560590369687036 0 -0.75470957328743171 forward_v I I I I #
face $-1 $96 $97 $34 $-1 $98 forward single #
loop $-1 $99 $100 $44 #
cone-surface $-1 45.380409848317349 19.909948927127779 8.1765683926593216 -0.6560590369687036 0 -0.75470957328743171 0.75470957328743171 0 -0.6560590369687036 1 I I 0 1 1 forward I I I I #
face $-1 $101 $102 $35 $-1 $103 forward single #
loop $-1 $104 $105 $45 #
cone-surface $-1 45.380409848317349 23.80196449017744 8.1765683926593216 -0.6560590369687036 0 -0.75470957328743171 0.75470957328743171 0 -0.6560590369687036 1 I I 0 1 1 forward I I I I #
face $-1 $106 $107 $36 $-1 $108 reversed single #
loop $-1 $-1 $109 $46 #
plane-surface $-1 -144.32271319470743 -26.396641532210545 63.673050428105739 0 1 0 -0.85716730853699208 0 0.51503806187062418 forward_v I I I I #
face $-1 $110 $111 $37 $-1 $112 forward single #
loop $-1 $113 $114 $47 #
cone-surface $-1 -50.503551656221546 -24.428385792851671 11.655377771164648 0.85716730853699208 0 -0.51503806187062418 0.25751903093531209 0 0.42858365426849604 1 I I 0 1 0.5 forward I I I I #
face $-1 $115 $116 $38 $-1 $117 forward single #
loop $-1 $118 $119 $48 #
cone-surface $-1 -50.503551656221546 -21.47600218381336 11.655377771164648 0.85716730853699208 0 -0.51503806187062418 0.25751903093531209 0 0.42858365426849604 1 I I 0 1 0.5 forward I I I I #
face $-1 $120 $121 $39 $-1 $122 forward single #
loop $-1 $123 $124 $49 #
cone-surface $-1 -50.503551656221546 -18.52361857477505 11.655377771164648 0.85716730853699208 0 -0.51503806187062418 0.25751903093531209 0 0.42858365426849604 1 I I 0 1 0.5 forward I I I I #
face $-1 $125 $126 $30 $-1 $127 forward single #
loop $-1 $-1 $128 $50 #
plane-surface $-1 0 -37.144916255107873 0 0 1 0 0 0 1 forward_v I I I I #
coedge $-1 $129 $130 $131 $132 reversed $51 $-1 #
face $-1 $133 $134 $31 $-1 $135 reversed single #
loop $-1 $-1 $136 $53 #
plane-surface $-1 0 0 -15.302227272952196 0 0 1 1 0 0 forward_v I I I I #
coedge $-1 $137 $138 $139 $140 forward $54 $-1 #
face $-1 $141 $142 $32 $-1 $143 reversed single #
loop $-1 $-1 $144 $56 #
plane-surface $-1 0 0 -15.302227272952196 0 0 1 1 0 0 forward_v I I I I #
coedge $-1 $145 $146 $147 $148 forward $57 $-1 #
face $-1 $149 $150 $33 $-1 $151 reversed single #
loop $-1 $-1 $152 $59 #
plane-surface $-1 -27.086105347715382 21.855956708652613 73.712747771537906 0.6560590369687036 0 0.75470957328743171 0.75470957328743171 0 -0.6560590369687036 forward_v I I I I #
coedge $-1 $153 $154 $155 $156 reversed $60 $-1 #
face $-1 $-1 $157 $34 $-1 $158 forward single #
loop $-1 $159 $160 $62 #
cone-surface $-1 43.793750879122065 19.909948927127779 6.3513260804325125 -0.6560590369687036 0 -0.75470957328743171 0.37735478664371586 0 -0.3280295184843518 1 I I -0.70710678118654746 0.70710678118654746 0.5 forward I I I I #
loop $-1 $-1 $161 $44 #
coedge $-1 $100 $100 $162 $163 reversed $63 $-1 #
face $-1 $-1 $164 $35 $-1 $165 forward single #
loop $-1 $166 $167 $65 #
cone-surface $-1 43.793750879122065 23.80196449017744 6.3513260804325125 -0.6560590369687036 0 -0.75470957328743171 0.37735478664371586 0 -0.3280295184843518 1 I I -0.70710678118654746 0.70710678118654746 0.5 forward I I I I #
loop $-1 $-1 $168 $45 #
coedge $-1 $105 $105 $169 $170 reversed $66 $-1 #
face $-1 $171 $172 $36 $-1 $173 reversed single #
loop $-1 $-1 $174 $68 #
plane-surface $-1 -53.170567949461358 -21.47600218381336 8.9033178976039338 -0.85716730853699208 0 0.51503806187062418 0.51503806187062418 0 0.85716730853699208 forward_v I I I I #
coedge $-1 $175 $176 $177 $178 reversed $69 $-1 #
face $-1 $-1 $179 $37 $-1 $180 forward single #
loop $-1 $181 $182 $71 #
cone-surface $-1 -49.544669793791343 -24.428385792851671 11.07922344158357 0.85716730853699208 0 -0.51503806187062418 0.12875951546765604 0 0.21429182713424802 1 I I -0.70710678118654746 0.70710678118654746 0.25 forward I I I I #
loop $-1 $-1 $183 $47 #
coedge $-1 $114 $114 $184 $185 reversed $72 $-1 #
face $-1 $-1 $186 $38 $-1 $187 forward single #
loop $-1 $188 $189 $74 #
cone-surface $-1 -49.544669793791343 -21.47600218381336 11.07922344158357 0.85716730853699208 0 -0.51503806187062418 0.12875951546765604 0 0.21429182713424802 1 I I -0.70710678118654746 0.70710678118654746 0.25 forward I I I I #
loop $-1 $-1 $190 $48 #
coedge $-1 $119 $119 $191 $192 reversed $75 $-1 #
face $-1 $-1 $193 $39 $-1 $194 forward single #
loop $-1 $195 $196 $77 #
cone-surface $-1 -49.544669793791343 -18.52361857477505 11.07922344158357 0.85716730853699208 0 -0.51503806187062418 0.12875951546765604 0 0.21429182713424802 1 I I -0.70710678118654746 0.70710678118654746 0.25 forward I I I I #
loop $-1 $-1 $197 $49 #
coedge $-1 $124 $124 $198 $199 reversed $78 $-1 #
face $-1 $200 $201 $30 $-1 $202 reversed single #
loop $-1 $-1 $203 $80 #
plane-surface $-1 0 0 15.302227272952196 0 0 1 1 0 0 forward_v I I I I #
coedge $-1 $204 $205 $206 $207 reversed $81 $-1 #
coedge $-1 $208 $83 $209 $210 reversed $51 $-1 #
coedge $-1 $83 $208 $211 $212 forward $51 $-1 #
coedge $-1 $213 $214 $83 $132 forward $201 $-1 #
edge $-1 $215 -53.170567949461351 $216 53.170567949461351 $83 $217 forward 7 unknown #
face $-1 $218 $219 $31 $-1 $220 reversed single #
loop $-1 $-1 $221 $84 #
plane-surface $-1 -48.024248090056226 -47.893190978005194 0 0 1 0 0 0 1 forward_v I I I I #
coedge $-1 $222 $223 $138 $224 forward $85 $-1 #
coedge $-1 $225 $87 $226 $227 reversed $54 $-1 #
coedge $-1 $87 $225 $136 $224 reversed $54 $-1 #
coedge $-1 $228 $229 $87 $140 reversed $219 $-1 #
edge $-1 $230 -15.302227272952196 $231 15.302227272952196 $139 $232 forward 7 unknown #
face $-1 $233 $234 $32 $-1 $235 reversed single #
loop $-1 $-1 $236 $88 #
plane-surface $-1 -49.944136591958561 42.519053616556533 0 1 0 0 0 0 -1 forward_v I I I I #
coedge $-1 $237 $238 $146 $239 forward $89 $-1 #
coedge $-1 $240 $91 $241 $242 reversed $57 $-1 #
coedge $-1 $91 $240 $144 $239 reversed $57 $-1 #
coedge $-1 $243 $244 $91 $148 reversed $245 $-1 #
edge $-1 $246 -15.302227272952196 $247 15.302227272952196 $147 $248 forward 7 unknown #
face $-1 $249 $250 $33 $-1 $251 forward single #
loop $-1 $-1 $252 $92 #
plane-surface $-1 42.679957860289882 17.315271885094671 153.96942106871464 0 1 0 0.6560590369687036 0 0.75470957328743171 forward_v I I I I #
coedge $-1 $253 $254 $255 $256 reversed $93 $-1 #
coedge $-1 $154 $95 $257 $258 reversed $60 $-1 #
coedge $-1 $95 $153 $253 $259 reversed $60 $-1 #
coedge $-1 $255 $260 $95 $156 forward $250 $-1 #
edge $-1 $261 -31.83058901931641 $262 -18.767531718450275 $155 $263 forward 7 unknown #
loop $-1 $-1 $162 $96 #
plane-surface $-1 -27.086105347715382 21.855956708652613 73.712747771537906 0.6560590369687036 0 0.75470957328743171 0.75470957328743171 0 -0.6560590369687036 forward_v I I I I #
loop $-1 $-1 $264 $62 #
coedge $-1 $160 $160 $161 $265 reversed $97 $-1 #
coedge $-1 $161 $161 $160 $265 forward $99 $-1 #
coedge $-1 $162 $162 $100 $163 forward $157 $-1 #
edge $-1 $266 0 $266 6.2831853071796004 $162 $267 forward 7 unknown #
loop $-1 $-1 $169 $101 #
plane-surface $-1 -27.086105347715382 21.855956708652613 73.712747771537906 0.6560590369687036 0 0.75470957328743171 0.75470957328743171 0 -0.6560590369687036 forward_v I I I I #
loop $-1 $-1 $268 $65 #
coedge $-1 $167 $167 $168 $269 reversed $102 $-1 #
coedge $-1 $168 $168 $167 $269 forward $104 $-1 #
coedge $-1 $169 $169 $105 $170 forward $164 $-1 #
edge $-1 $270 0 $270 6.2831853071796004 $169 $271 forward 7 unknown #
face $-1 $272 $273 $36 $-1 $274 reversed single #
loop $-1 $-1 $275 $106 #
plane-surface $-1 -144.32271319470743 -16.555362835416176 63.673050428105739 0 -1 0 0.85716730853699208 0 -0.51503806187062418 forward_v I I I I #
coedge $-1 $276 $277 $278 $279 reversed $107 $-1 #
coedge $-1 $176 $109 $280 $281 reversed $69 $-1 #
coedge $-1 $109 $175 $276 $282 reversed $69 $-1 #
coedge $-1 $278 $283 $109 $178 forward $284 $-1 #
edge $-1 $285 18.990788647892366 $286 22.835641163780053 $177 $287 forward 7 unknown #
loop $-1 $-1 $184 $110 #
plane-surface $-1 -53.170567949461358 -21.47600218381336 8.9033178976039338 -0.85716730853699208 0 0.51503806187062418 0.51503806187062418 0 0.85716730853699208 forward_v I I I I #
loop $-1 $-1 $288 $71 #
coedge $-1 $182 $182 $183 $289 reversed $111 $-1 #
coedge $-1 $183 $183 $182 $289 forward $113 $-1 #
coedge $-1 $184 $184 $114 $185 forward $179 $-1 #
edge $-1 $290 0 $290 6.2831853071796004 $184 $291 forward 7 unknown #
loop $-1 $-1 $191 $115 #
plane-surface $-1 -53.170567949461358 -21.47600218381336 8.9033178976039338 -0.85716730853699208 0 0.51503806187062418 0.51503806187062418 0 0.85716730853699208 forward_v I I I I #
loop $-1 $-1 $292 $74 #
coedge $-1 $189 $189 $190 $293 reversed $116 $-1 #
coedge $-1 $190 $190 $189 $293 forward $118 $-1 #
coedge $-1 $191 $191 $119 $192 forward $186 $-1 #
edge $-1 $294 0 $294 6.2831853071796004 $191 $295 forward 7 unknown #
loop $-1 $-1 $198 $120 #
plane-surface $-1 -53.170567949461358 -21.47600218381336 8.9033178976039338 -0.85716730853699208 0 0.51503806187062418 0.51503806187062418 0 0.85716730853699208 forward_v I I I I #
loop $-1 $-1 $296 $77 #
coedge $-1 $196 $196 $197 $297 reversed $121 $-1 #
coedge $-1 $197 $197 $196 $297 forward $123 $-1 #
coedge $-1 $198 $198 $124 $199 forward $193 $-1 #
edge $-1 $298 0 $298 6.2831853071796004 $198 $299 forward 7 unknown #
face $-1 $300 $301 $30 $-1 $302 reversed single #
loop $-1 $-1 $213 $125 #
plane-surface $-1 0 0 -15.302227272952196 0 0 1 1 0 0 forward_v I I I I #
coedge $-1 $303 $304 $305 $306 forward $126 $-1 #
coedge $-1 $307 $128 $308 $309 reversed $81 $-1 #
coedge $-1 $128 $307 $310 $311 forward $81 $-1 #
coedge $-1 $214 $213 $128 $207 forward $201 $-1 #
edge $-1 $312 -53.170567949461351 $313 53.170567949461351 $128 $314 forward 7 unknown #
coedge $-1 $130 $129 $303 $315 reversed $51 $-1 #
coedge $-1 $316 $317 $129 $210 forward $301 $-1 #
edge $-1 $318 -15.302227272952196 $215 15.302227272952196 $129 $319 forward 7 unknown #
coedge $-1 $305 $320 $130 $212 reversed $321 $-1 #
edge $-1 $322 -15.302227272952196 $216 15.302227272952196 $211 $323 forward 7 unknown #
coedge $-1 $206 $131 $320 $324 forward $201 $-1 #
coedge $-1 $131 $206 $316 $325 forward $201 $-1 #
vertex $-1 $132 $326 #
vertex $-1 $324 $327 #
straight-curve $-1 0 37.144916255107873 -15.302227272952196 1 0 0 I I #
face $-1 $328 $329 $31 $-1 $330 reversed single #
loop $-1 $-1 $139 $133 #
plane-surface $-1 -49.944136591958561 -42.519053616556533 0 1 0 0 0 0 -1 forward_v I I I I #
coedge $-1 $331 $332 $333 $334 forward $134 $-1 #
coedge $-1 $335 $136 $336 $337 forward $85 $-1 #
coedge $-1 $136 $335 $228 $338 forward $85 $-1 #
edge $-1 $230 -49.944136591958561 $339 -46.104359588153891 $136 $340 forward 7 unknown #
coedge $-1 $138 $137 $341 $342 forward $54 $-1 #
coedge $-1 $343 $344 $137 $227 forward $345 $-1 #
edge $-1 $346 46.104359588153891 $231 49.944136591958561 $226 $347 forward 7 unknown #
coedge $-1 $333 $139 $223 $338 reversed $219 $-1 #
coedge $-1 $139 $333 $343 $348 reversed $219 $-1 #
vertex $-1 $224 $349 #
vertex $-1 $348 $350 #
straight-curve $-1 -49.944136591958561 -37.144916255107873 0 0 0 1 I I #
face $-1 $351 $245 $32 $-1 $352 reversed single #
loop $-1 $-1 $353 $141 #
plane-surface $-1 -48.024248090056226 47.893190978005194 0 0 -1 0 0 0 -1 forward_v I I I I #
coedge $-1 $354 $355 $356 $357 forward $142 $-1 #
coedge $-1 $358 $144 $354 $359 forward $89 $-1 #
coedge $-1 $144 $358 $243 $360 forward $89 $-1 #
edge $-1 $246 46.104359588153891 $361 49.944136591958561 $144 $362 forward 7 unknown #
coedge $-1 $146 $145 $363 $364 forward $57 $-1 #
coedge $-1 $365 $366 $145 $242 forward $367 $-1 #
edge $-1 $368 -49.944136591958561 $247 -46.104359588153891 $241 $369 forward 7 unknown #
coedge $-1 $370 $147 $238 $360 reversed $245 $-1 #
coedge $-1 $147 $370 $365 $371 reversed $245 $-1 #
loop $-1 $-1 $147 $233 #
vertex $-1 $239 $372 #
vertex $-1 $371 $373 #
straight-curve $-1 -46.104359588153891 37.144916255107873 0 0 0 1 I I #
face $-1 $-1 $374 $33 $-1 $375 reversed single #
loop $-1 $-1 $155 $149 #
plane-surface $-1 0 0 15.302227272952196 0 0 1 1 0 0 forward_v I I I I #
coedge $-1 $376 $377 $378 $379 reversed $150 $-1 #
coedge $-1 $380 $152 $154 $259 forward $93 $-1 #
coedge $-1 $152 $380 $376 $381 forward $93 $-1 #
coedge $-1 $378 $155 $152 $256 forward $250 $-1 #
edge $-1 $262 -15.468663177884249 $382 -6.387293530768364 $255 $383 forward 7 unknown #
coedge $-1 $384 $385 $153 $258 forward $374 $-1 #
edge $-1 $386 -73.038025970824663 $261 -61.682483261405125 $257 $387 forward 7 unknown #
edge $-1 $262 89.032415083357989 $386 106.34113589892269 $154 $388 forward 7 unknown #
coedge $-1 $155 $378 $384 $389 forward $250 $-1 #
vertex $-1 $156 $390 #
vertex $-1 $156 $391 #
straight-curve $-1 21.339978930144941 26.396641532210555 15.302227272952194 -1 0 0 I I #
coedge $-1 $264 $264 $-1 $392 reversed $159 $-1 #
edge $-1 $393 0 $393 6.2831853071796004 $160 $394 forward 7 unknown #
vertex $-1 $163 $395 #
ellipse-curve $-1 46.63903929902829 19.909948927127779 9.6244559182424201 0.6560590369687036 0 0.75470957328743171 0.75470957328743171 0 -0.6560590369687036 1 I I #
coedge $-1 $268 $268 $-1 $396 reversed $166 $-1 #
edge $-1 $397 0 $397 6.2831853071796004 $167 $398 forward 7 unknown #
vertex $-1 $170 $399 #
ellipse-curve $-1 46.63903929902829 23.80196449017744 9.6244559182424201 0.6560590369687036 0 0.75470957328743171 0.75470957328743171 0 -0.6560590369687036 1 I I #
face $-1 $-1 $284 $36 $-1 $400 forward single #
loop $-1 $-1 $401 $171 #
plane-surface $-1 -53.170567949461351 0 0 1 0 0 0 0 -1 forward_v I I I I #
coedge $-1 $402 $403 $404 $405 reversed $172 $-1 #
coedge $-1 $406 $174 $176 $282 forward $107 $-1 #
coedge $-1 $174 $406 $402 $407 forward $107 $-1 #
coedge $-1 $404 $177 $174 $279 forward $284 $-1 #
edge $-1 $286 -15.658640440303865 $408 -5.8173617435094958 $278 $409 forward 7 unknown #
coedge $-1 $410 $411 $175 $281 forward $273 $-1 #
edge $-1 $412 -22.933207316448922 $285 -16.534297941100675 $280 $413 forward 7 unknown #
edge $-1 $286 -7.4651813148005894 $412 -1.431801061223127e-014 $176 $414 forward 7 unknown #
coedge $-1 $177 $404 $410 $415 forward $284 $-1 #
loop $-1 $-1 $404 $272 #
vertex $-1 $281 $416 #
vertex $-1 $178 $417 #
straight-curve $-1 -72.161356597353716 -26.396641532210545 15.302227272952194 1 0 0 I I #
coedge $-1 $288 $288 $-1 $418 reversed $181 $-1 #
edge $-1 $419 0 $419 6.2831853071796004 $182 $420 forward 7 unknown #
vertex $-1 $185 $421 #
ellipse-curve $-1 -51.24814169151751 -24.428385792851671 12.102772585278071 -0.85716730853699208 0 0.51503806187062418 0.25751903093531209 0 0.42858365426849604 1 I I #
coedge $-1 $292 $292 $-1 $422 reversed $188 $-1 #
edge $-1 $423 0 $423 6.2831853071796004 $189 $424 forward 7 unknown #
vertex $-1 $192 $425 #
ellipse-curve $-1 -51.24814169151751 -21.47600218381336 12.102772585278071 -0.85716730853699208 0 0.51503806187062418 0.25751903093531209 0 0.42858365426849604 1 I I #
coedge $-1 $296 $296 $-1 $426 reversed $195 $-1 #
edge $-1 $427 0 $427 6.2831853071796004 $196 $428 forward 7 unknown #
vertex $-1 $199 $429 #
ellipse-curve $-1 -51.24814169151751 -18.52361857477505 12.102772585278071 -0.85716730853699208 0 0.51503806187062418 0.25751903093531209 0 0.42858365426849604 1 I I #
face $-1 $-1 $321 $30 $-1 $430 reversed single #
loop $-1 $-1 $209 $200 #
plane-surface $-1 -53.170567949461351 0 0 1 0 0 0 0 -1 forward_v I I I I #
coedge $-1 $431 $203 $208 $315 forward $126 $-1 #
coedge $-1 $203 $431 $307 $432 forward $126 $-1 #
coedge $-1 $308 $211 $203 $306 reversed $321 $-1 #
edge $-1 $433 -37.144916255107873 $322 37.144916255107873 $305 $434 forward 7 unknown #
coedge $-1 $205 $204 $304 $432 reversed $81 $-1 #
coedge $-1 $320 $305 $204 $309 forward $321 $-1 #
edge $-1 $433 -15.302227272952196 $312 15.302227272952196 $308 $435 forward 7 unknown #
coedge $-1 $317 $316 $205 $311 reversed $301 $-1 #
edge $-1 $436 -15.302227272952196 $313 15.302227272952196 $310 $437 forward 7 unknown #
vertex $-1 $309 $438 #
vertex $-1 $325 $439 #
straight-curve $-1 0 -37.144916255107873 -15.302227272952196 -1 0 0 I I #
edge $-1 $322 -53.170567949461351 $318 53.170567949461351 $208 $440 forward 7 unknown #
coedge $-1 $310 $209 $214 $325 reversed $301 $-1 #
coedge $-1 $209 $310 $431 $441 reversed $301 $-1 #
vertex $-1 $315 $442 #
straight-curve $-1 -53.170567949461351 37.144916255107873 0 0 0 -1 I I #
coedge $-1 $211 $308 $213 $324 reversed $321 $-1 #
loop $-1 $-1 $308 $300 #
vertex $-1 $306 $443 #
straight-curve $-1 53.170567949461351 37.144916255107873 0 0 0 -1 I I #
edge $-1 $216 -37.144916255107873 $312 37.144916255107873 $320 $444 forward 7 unknown #
edge $-1 $313 -37.144916255107873 $215 37.144916255107873 $316 $445 forward 7 unknown #
point $-1 -53.170567949461351 37.144916255107873 -15.302227272952196 #
point $-1 53.170567949461351 37.144916255107873 -15.302227272952196 #
face $-1 $-1 $345 $31 $-1 $446 forward single #
loop $-1 $-1 $447 $218 #
plane-surface $-1 -46.104359588153891 -42.519053616556533 0 -1 0 0 0 0 1 forward_v I I I I #
coedge $-1 $448 $221 $335 $449 reversed $134 $-1 #
coedge $-1 $221 $448 $450 $451 reversed $134 $-1 #
coedge $-1 $229 $228 $221 $334 reversed $219 $-1 #
edge $-1 $452 -15.302227272952196 $453 15.302227272952196 $333 $454 forward 7 unknown #
coedge $-1 $223 $222 $331 $449 forward $85 $-1 #
coedge $-1 $341 $447 $222 $337 reversed $329 $-1 #
edge $-1 $339 -5.3741373614486605 $455 5.3741373614486605 $336 $456 forward 7 unknown #
edge $-1 $453 -5.3741373614486605 $230 5.3741373614486605 $228 $457 forward 7 unknown #
vertex $-1 $337 $458 #
straight-curve $-1 0 -37.144916255107873 -15.302227272952196 1 0 0 I I #
coedge $-1 $459 $336 $225 $342 reversed $329 $-1 #
edge $-1 $346 -15.302227272952196 $339 15.302227272952196 $341 $460 forward 7 unknown #
coedge $-1 $450 $226 $229 $348 forward $345 $-1 #
coedge $-1 $226 $450 $459 $461 forward $345 $-1 #
loop $-1 $-1 $226 $328 #
vertex $-1 $227 $462 #
straight-curve $-1 0 -37.144916255107873 15.302227272952196 -1 0 0 I I #
edge $-1 $231 -5.3741373614486605 $452 5.3741373614486605 $229 $463 forward 7 unknown #
point $-1 -49.944136591958561 -37.144916255107873 -15.302227272952196 #
point $-1 -49.944136591958561 -37.144916255107873 15.302227272952196 #
face $-1 $-1 $367 $32 $-1 $464 forward single #
plane-surface $-1 -46.104359588153891 42.519053616556533 0 -1 0 0 0 0 1 forward_v I I I I #
coedge $-1 $465 $466 $370 $467 forward $234 $-1 #
coedge $-1 $363 $236 $237 $359 reversed $142 $-1 #
coedge $-1 $236 $363 $366 $468 reversed $142 $-1 #
coedge $-1 $466 $465 $236 $357 reversed $234 $-1 #
edge $-1 $469 -15.302227272952196 $470 15.302227272952196 $356 $471 forward 7 unknown #
coedge $-1 $238 $237 $465 $472 forward $89 $-1 #
edge $-1 $361 -5.3741373614486605 $470 5.3741373614486605 $354 $473 forward 7 unknown #
edge $-1 $474 -5.3741373614486605 $246 5.3741373614486605 $243 $475 forward 7 unknown #
vertex $-1 $359 $476 #
straight-curve $-1 0 37.144916255107873 -15.302227272952196 -1 0 0 I I #
coedge $-1 $355 $354 $240 $364 reversed $142 $-1 #
edge $-1 $368 -15.302227272952196 $361 15.302227272952196 $363 $477 forward 7 unknown #
coedge $-1 $478 $241 $244 $371 forward $367 $-1 #
coedge $-1 $241 $478 $355 $468 forward $367 $-1 #
loop $-1 $-1 $241 $351 #
vertex $-1 $242 $479 #
straight-curve $-1 0 37.144916255107873 15.302227272952196 1 0 0 I I #
coedge $-1 $244 $243 $353 $467 reversed $245 $-1 #
edge $-1 $247 -5.3741373614486605 $480 5.3741373614486605 $244 $481 forward 7 unknown #
point $-1 -46.104359588153891 37.144916255107873 -15.302227272952196 #
point $-1 -46.104359588153891 37.144916255107873 15.302227272952196 #
loop $-1 $-1 $257 $249 #
plane-surface $-1 53.170567949461351 0 0 -1 0 0 0 0 1 forward_v I I I I #
coedge $-1 $377 $252 $254 $381 reversed $150 $-1 #
coedge $-1 $252 $376 $482 $483 reversed $150 $-1 #
coedge $-1 $260 $255 $252 $379 forward $250 $-1 #
edge $-1 $382 18.767531718450275 $484 31.83058901931641 $378 $485 forward 7 unknown #
coedge $-1 $254 $253 $385 $486 reversed $93 $-1 #
edge $-1 $487 -106.34113589892269 $382 -89.032415083357989 $376 $488 forward 7 unknown #
vertex $-1 $256 $489 #
straight-curve $-1 40.107510648595209 10.927978354326306 15.302227272952202 0 -1 0 I I #
coedge $-1 $482 $257 $260 $389 reversed $374 $-1 #
coedge $-1 $257 $482 $380 $486 forward $374 $-1 #
vertex $-1 $258 $490 #
straight-curve $-1 53.170567949461351 26.396641532210555 76.984710534357319 0 0 1 I I #
straight-curve $-1 -27.086105347715382 26.396641532210555 73.712747771537906 0.75470957328743171 0 -0.6560590369687036 I I #
edge $-1 $484 17.315271885094671 $261 26.396641532210555 $384 $491 forward 7 unknown #
point $-1 53.170567949461351 26.396641532210555 15.302227272952196 #
point $-1 40.107510648595216 26.396641532210555 15.302227272952194 #
edge $-1 $492 1 $492 0 $264 $-1 forward 7 unknown #
vertex $-1 $265 $493 #
ellipse-curve $-1 44.121780397606415 19.909948927127779 6.7286808670762284 0.6560590369687036 0 0.75470957328743171 0.75470957328743171 0 -0.6560590369687036 1 I I #
point $-1 47.393748872315719 19.909948927127779 8.9683968812737103 #
edge $-1 $494 1 $494 0 $268 $-1 forward 7 unknown #
vertex $-1 $269 $495 #
ellipse-curve $-1 44.121780397606415 23.80196449017744 6.7286808670762284 0.6560590369687036 0 0.75470957328743171 0.75470957328743171 0 -0.6560590369687036 1 I I #
point $-1 47.393748872315719 23.80196449017744 8.9683968812737103 #
plane-surface $-1 0 0 15.302227272952196 0 0 1 1 0 0 forward_v I I I I #
coedge $-1 $411 $410 $403 $496 forward $273 $-1 #
coedge $-1 $403 $275 $277 $407 reversed $172 $-1 #
coedge $-1 $275 $402 $401 $496 reversed $172 $-1 #
coedge $-1 $283 $278 $275 $405 forward $284 $-1 #
edge $-1 $408 -22.835641163780053 $497 -18.990788647892366 $404 $498 forward 7 unknown #
coedge $-1 $277 $276 $411 $499 reversed $107 $-1 #
edge $-1 $500 1.431801061223127e-014 $408 7.4651813148005894 $402 $501 forward 7 unknown #
vertex $-1 $279 $502 #
straight-curve $-1 -49.325715433573663 -10.73800109190668 15.302227272952194 0 1 0 I I #
coedge $-1 $401 $280 $283 $415 reversed $273 $-1 #
coedge $-1 $280 $401 $406 $499 forward $273 $-1 #
vertex $-1 $281 $503 #
straight-curve $-1 -53.170567949461351 -26.396641532210545 31.83652521405287 0 0 1 I I #
straight-curve $-1 -53.170567949461358 -26.396641532210545 8.9033178976039338 -0.51503806187062418 0 -0.85716730853699208 I I #
edge $-1 $497 16.555362835416176 $285 26.396641532210545 $410 $504 forward 7 unknown #
point $-1 -53.170567949461351 -26.396641532210545 15.302227272952196 #
point $-1 -49.325715433573663 -26.396641532210545 15.302227272952196 #
edge $-1 $505 1 $505 0 $288 $-1 forward 7 unknown #
vertex $-1 $289 $506 #
ellipse-curve $-1 -49.758961620925589 -24.428385792851671 11.207982957051227 -0.85716730853699208 0 0.51503806187062418 0.25751903093531209 0 0.42858365426849604 1 I I #
point $-1 -50.990622660582197 -24.428385792851671 12.531356239546568 #
edge $-1 $507 1 $507 0 $292 $-1 forward 7 unknown #
vertex $-1 $293 $508 #
ellipse-curve $-1 -49.758961620925589 -21.47600218381336 11.207982957051227 -0.85716730853699208 0 0.51503806187062418 0.25751903093531209 0 0.42858365426849604 1 I I #
point $-1 -50.990622660582197 -21.47600218381336 12.531356239546568 #
edge $-1 $509 1 $509 0 $296 $-1 forward 7 unknown #
vertex $-1 $297 $510 #
ellipse-curve $-1 -49.758961620925589 -18.52361857477505 11.207982957051227 -0.85716730853699208 0 0.51503806187062418 0.25751903093531209 0 0.42858365426849604 1 I I #
point $-1 -50.990622660582197 -18.52361857477505 12.531356239546568 #
plane-surface $-1 53.170567949461351 0 0 -1 0 0 0 0 1 forward_v I I I I #
coedge $-1 $304 $303 $317 $441 forward $126 $-1 #
edge $-1 $436 -53.170567949461351 $433 53.170567949461351 $307 $511 forward 7 unknown #
vertex $-1 $306 $512 #
straight-curve $-1 53.170567949461351 0 15.302227272952196 0 1 0 I I #
straight-curve $-1 53.170567949461351 -37.144916255107873 0 0 0 -1 I I #
vertex $-1 $441 $513 #
straight-curve $-1 -53.170567949461351 -37.144916255107873 0 0 0 -1 I I #
point $-1 53.170567949461351 -37.144916255107873 -15.302227272952196 #
point $-1 -53.170567949461351 -37.144916255107873 -15.302227272952196 #
straight-curve $-1 0 37.144916255107873 15.302227272952196 -1 0 0 I I #
edge $-1 $318 -37.144916255107873 $436 37.144916255107873 $317 $514 forward 7 unknown #
point $-1 -53.170567949461351 37.144916255107873 15.302227272952196 #
point $-1 53.170567949461351 37.144916255107873 15.302227272952196 #
straight-curve $-1 53.170567949461351 0 -15.302227272952196 0 -1 0 I I #
straight-curve $-1 -53.170567949461351 0 -15.302227272952196 0 1 0 I I #
plane-surface $-1 0 0 15.302227272952196 0 0 1 1 0 0 forward_v I I I I #
coedge $-1 $336 $459 $448 $515 forward $329 $-1 #
coedge $-1 $332 $331 $447 $515 reversed $134 $-1 #
edge $-1 $455 -1.9198885019023351 $453 1.9198885019023351 $331 $516 forward 7 unknown #
coedge $-1 $344 $343 $332 $451 forward $345 $-1 #
edge $-1 $452 -1.9198885019023351 $517 1.9198885019023351 $332 $518 forward 7 unknown #
vertex $-1 $348 $519 #
vertex $-1 $338 $520 #
straight-curve $-1 -49.944136591958561 -47.893190978005194 0 0 0 -1 I I #
vertex $-1 $515 $521 #
straight-curve $-1 -46.104359588153891 -42.519053616556533 -15.302227272952196 0 -1 0 I I #
straight-curve $-1 -49.944136591958561 -42.519053616556533 -15.302227272952196 0 1 0 I I #
point $-1 -46.104359588153891 -37.144916255107873 -15.302227272952196 #
coedge $-1 $447 $341 $344 $461 reversed $329 $-1 #
straight-curve $-1 -46.104359588153891 -37.144916255107873 0 0 0 -1 I I #
edge $-1 $517 -5.3741373614486605 $346 5.3741373614486605 $459 $522 forward 7 unknown #
point $-1 -46.104359588153891 -37.144916255107873 15.302227272952196 #
straight-curve $-1 -49.944136591958561 -42.519053616556533 15.302227272952196 0 -1 0 I I #
plane-surface $-1 0 0 15.302227272952196 0 0 1 1 0 0 forward_v I I I I #
coedge $-1 $356 $353 $358 $472 reversed $234 $-1 #
coedge $-1 $353 $356 $478 $523 reversed $234 $-1 #
edge $-1 $480 -15.302227272952196 $474 15.302227272952196 $370 $524 forward 7 unknown #
edge $-1 $469 -5.3741373614486605 $368 5.3741373614486605 $355 $525 forward 7 unknown #
vertex $-1 $523 $526 #
vertex $-1 $472 $527 #
straight-curve $-1 -49.944136591958561 47.893190978005194 0 0 0 -1 I I #
edge $-1 $470 -1.9198885019023351 $474 1.9198885019023351 $465 $528 forward 7 unknown #
straight-curve $-1 -49.944136591958561 42.519053616556533 -15.302227272952196 0 1 0 I I #
vertex $-1 $360 $529 #
straight-curve $-1 -46.104359588153891 42.519053616556533 -15.302227272952196 0 -1 0 I I #
point $-1 -49.944136591958561 37.144916255107873 -15.302227272952196 #
straight-curve $-1 -49.944136591958561 37.144916255107873 0 0 0 -1 I I #
coedge $-1 $366 $365 $466 $523 forward $367 $-1 #
point $-1 -49.944136591958561 37.144916255107873 15.302227272952196 #
vertex $-1 $371 $530 #
straight-curve $-1 -46.104359588153891 42.519053616556533 15.302227272952196 0 1 0 I I #
coedge $-1 $385 $384 $377 $483 forward $374 $-1 #
edge $-1 $484 61.682483261405125 $487 73.038025970824663 $482 $531 forward 7 unknown #
vertex $-1 $389 $532 #
straight-curve $-1 21.339978930144941 17.315271885094671 15.302227272952194 1 0 0 I I #
edge $-1 $487 6.387293530768364 $386 15.468663177884249 $385 $533 forward 7 unknown #
vertex $-1 $486 $534 #
straight-curve $-1 -27.086105347715382 17.315271885094671 73.712747771537906 -0.75470957328743171 0 0.6560590369687036 I I #
point $-1 40.107510648595216 17.315271885094671 15.302227272952194 #
point $-1 53.170567949461351 26.396641532210555 3.9466845635326564 #
straight-curve $-1 53.170567949461351 0 15.302227272952196 0 1 0 I I #
vertex $-1 $392 $535 #
point $-1 44.87648997089385 19.909948927127779 6.0726218301075248 #
vertex $-1 $396 $536 #
point $-1 44.87648997089385 23.80196449017744 6.0726218301075248 #
edge $-1 $497 16.534297941100675 $500 22.933207316448922 $401 $537 forward 7 unknown #
vertex $-1 $415 $538 #
straight-curve $-1 -72.161356597353716 -16.555362835416176 15.302227272952194 -1 0 0 I I #
edge $-1 $500 5.8173617435094958 $412 15.658640440303865 $411 $539 forward 7 unknown #
vertex $-1 $499 $540 #
straight-curve $-1 -53.170567949461358 -16.555362835416176 8.9033178976039338 0.51503806187062418 0 0.85716730853699208 I I #
point $-1 -49.325715433573663 -16.555362835416176 15.302227272952196 #
point $-1 -53.170567949461351 -26.396641532210545 8.9033178976039462 #
straight-curve $-1 -53.170567949461351 0 15.302227272952196 0 -1 0 I I #
vertex $-1 $418 $541 #
point $-1 -49.501442589990276 -24.428385792851671 11.636566611319722 #
vertex $-1 $422 $542 #
point $-1 -49.501442589990276 -21.47600218381336 11.636566611319722 #
vertex $-1 $426 $543 #
point $-1 -49.501442589990276 -18.52361857477505 11.636566611319722 #
straight-curve $-1 0 -37.144916255107873 15.302227272952196 1 0 0 I I #
point $-1 53.170567949461351 -37.144916255107873 15.302227272952196 #
point $-1 -53.170567949461351 -37.144916255107873 15.302227272952196 #
straight-curve $-1 -53.170567949461351 0 15.302227272952196 0 -1 0 I I #
edge $-1 $517 -15.302227272952196 $455 15.302227272952196 $447 $544 forward 7 unknown #
straight-curve $-1 -48.024248090056226 -47.893190978005194 -15.302227272952196 -1 0 0 I I #
vertex $-1 $461 $545 #
straight-curve $-1 -48.024248090056226 -47.893190978005194 15.302227272952196 1 0 0 I I #
point $-1 -49.944136591958561 -47.893190978005194 15.302227272952196 #
point $-1 -49.944136591958561 -47.893190978005194 -15.302227272952196 #
point $-1 -46.104359588153891 -47.893190978005194 -15.302227272952196 #
straight-curve $-1 -46.104359588153891 -42.519053616556533 15.302227272952196 0 1 0 I I #
edge $-1 $480 -1.9198885019023351 $469 1.9198885019023351 $466 $546 forward 7 unknown #
straight-curve $-1 -46.104359588153891 47.893190978005194 0 0 0 -1 I I #
straight-curve $-1 -49.944136591958561 42.519053616556533 15.302227272952196 0 -1 0 I I #
point $-1 -49.944136591958561 47.893190978005194 15.302227272952196 #
point $-1 -49.944136591958561 47.893190978005194 -15.302227272952196 #
straight-curve $-1 -48.024248090056226 47.893190978005194 -15.302227272952196 1 0 0 I I #
point $-1 -46.104359588153891 47.893190978005194 -15.302227272952196 #
point $-1 -46.104359588153891 47.893190978005194 15.302227272952196 #
straight-curve $-1 53.170567949461351 17.315271885094671 76.984710534357319 0 0 -1 I I #
point $-1 53.170567949461351 17.315271885094671 15.302227272952196 #
straight-curve $-1 53.170567949461351 10.927978354326306 3.9466845635326493 0 1 0 I I #
point $-1 53.170567949461351 17.315271885094671 3.9466845635326564 #
point $-1 43.465721360637716 19.909948927127779 5.9739712937887965 #
point $-1 43.465721360637716 23.80196449017744 5.9739712937887965 #
straight-curve $-1 -53.170567949461351 -16.555362835416176 31.83652521405287 0 0 -1 I I #
point $-1 -53.170567949461351 -16.555362835416176 15.302227272952196 #
straight-curve $-1 -53.170567949461351 -10.73800109190668 8.9033178976039515 0 -1 0 I I #
point $-1 -53.170567949461351 -16.555362835416176 8.9033178976039462 #
point $-1 -49.330377966657096 -24.428385792851671 10.950463926115914 #
point $-1 -49.330377966657096 -21.47600218381336 10.950463926115914 #
point $-1 -49.330377966657096 -18.52361857477505 10.950463926115914 #
straight-curve $-1 -46.104359588153891 -47.893190978005194 0 0 0 -1 I I #
point $-1 -46.104359588153891 -47.893190978005194 15.302227272952196 #
straight-curve $-1 -48.024248090056226 47.893190978005194 15.302227272952196 -1 0 0 I I #
End-of-ACIS-data 