500 0 7 0           
7 Unknown 11 ACIS 5.0 NT 24 Thu Mar 25 17:46:59 1999 
-1 9.9999999999999995e-007 1e-010 
body $-1 $7 $-1 $8 #
body $-1 $9 $-1 $10 #
body $-1 $11 $-1 $12 #
body $-1 $13 $-1 $14 #
body $-1 $15 $-1 $16 #
body $-1 $17 $-1 $18 #
body $-1 $19 $-1 $20 #
lump $-1 $-1 $21 $0 #
transform $-1 1 0 0 0 1 0 0 0 1 78.027283547471541 40.282862090847566 11.203644126484607 1 rotate no_reflect no_shear #
lump $-1 $-1 $22 $1 #
transform $-1 1 0 0 0 1 0 0 0 1 -6.0680518987948604 40.282862090847566 20.562193346516111 1 rotate no_reflect no_shear #
lump $-1 $-1 $23 $2 #
transform $-1 1 0 0 0 0.64278759981090561 0.7660444514056185 0 -0.7660444514056185 0.64278759981090561 33.491966347336614 -119.54473523958696 116.31930236144507 1 rotate no_reflect no_shear #
lump $-1 $-1 $24 $3 #
transform $-1 1 0 0 0 -0.64278759981090561 -0.7660444514056185 0 0.7660444514056185 -0.64278759981090561 24.339453826016516 6.0259649009122125 16.404292337398807 1 rotate no_reflect no_shear #
lump $-1 $-1 $25 $4 #
transform $-1 1 0 0 0 -0.64278759981090561 -0.7660444514056185 0 0.7660444514056185 -0.64278759981090561 42.644478868656705 6.0259649009122125 16.404292337398807 1 rotate no_reflect no_shear #
lump $-1 $-1 $26 $5 #
transform $-1 1 0 0 0 0.68199835119979291 -0.73135370988377701 0 0.73135370988377701 0.68199835119979291 131.52909860429315 139.75111971575518 177.53957085882965 1 rotate no_reflect no_shear #
lump $-1 $-1 $27 $6 #
transform $-1 1 0 0 0 -0.68199835119979291 0.73135370988377701 0 -0.73135370988377701 -0.68199835119979291 131.52909860429315 70.16646401371554 12.043481212199332 1 rotate no_reflect no_shear #
shell $-1 $-1 $-1 $28 $-1 $7 #
shell $-1 $-1 $-1 $29 $-1 $9 #
shell $-1 $-1 $-1 $30 $-1 $11 #
shell $-1 $-1 $-1 $31 $-1 $13 #
shell $-1 $-1 $-1 $32 $-1 $15 #
shell $-1 $-1 $-1 $33 $-1 $17 #
shell $-1 $-1 $-1 $34 $-1 $19 #
face $-1 $35 $36 $21 $-1 $37 forward single #
face $-1 $38 $39 $22 $-1 $40 forward single #
face $-1 $41 $42 $23 $-1 $43 forward single #
face $-1 $44 $45 $24 $-1 $46 forward single #
face $-1 $47 $48 $25 $-1 $49 forward single #
face $-1 $50 $51 $26 $-1 $52 forward single #
face $-1 $53 $54 $27 $-1 $55 forward single #
face $-1 $56 $57 $21 $-1 $58 reversed single #
loop $-1 $-1 $59 $28 #
plane-surface $-1 0 0 11.203644126484607 0 0 1 1 0 0 forward_v I I I I #
face $-1 $60 $61 $22 $-1 $62 reversed single #
loop $-1 $-1 $63 $29 #
plane-surface $-1 0 0 1.8450949064531041 0 0 1 1 0 0 forward_v I I I I #
face $-1 $64 $65 $23 $-1 $66 reversed single #
loop $-1 $-1 $67 $30 #
plane-surface $-1 0 0 156.05456709494308 0 0 1 1 0 0 forward_v I I I I #
face $-1 $68 $69 $24 $-1 $70 forward single #
loop $-1 $71 $72 $31 #
cone-surface $-1 0 0 -2.4311502426221505 0 0 1 1 0 0 1 I I 0 1 1 forward I I I I #
face $-1 $73 $74 $25 $-1 $75 forward single #
loop $-1 $76 $77 $32 #
cone-surface $-1 0 0 -2.4311502426221505 0 0 1 1 0 0 1 I I 0 1 1 forward I I I I #
face $-1 $78 $79 $26 $-1 $80 reversed single #
loop $-1 $-1 $81 $33 #
plane-surface $-1 0 0 156.05456709494308 0 0 1 1 0 0 forward_v I I I I #
face $-1 $82 $83 $27 $-1 $84 forward single #
loop $-1 $85 $86 $34 #
cone-surface $-1 0 0 -4.3522446363719602 0 0 1 2 0 0 1 I I 0 1 2 forward I I I I #
face $-1 $87 $88 $21 $-1 $89 reversed single #
loop $-1 $-1 $90 $35 #
plane-surface $-1 0 0 -11.203644126484607 0 0 1 1 0 0 forward_v I I I I #
coedge $-1 $91 $92 $93 $94 forward $36 $-1 #
face $-1 $95 $96 $22 $-1 $97 reversed single #
loop $-1 $-1 $98 $38 #
plane-surface $-1 0 0 -1.8450949064531041 0 0 1 1 0 0 forward_v I I I I #
coedge $-1 $99 $100 $101 $102 forward $39 $-1 #
face $-1 $103 $104 $23 $-1 $105 reversed single #
loop $-1 $-1 $106 $41 #
plane-surface $-1 0 0 -156.05456709494308 0 0 1 1 0 0 forward_v I I I I #
coedge $-1 $107 $108 $109 $110 forward $42 $-1 #
face $-1 $-1 $111 $24 $-1 $112 forward single #
loop $-1 $-1 $113 $44 #
plane-surface $-1 0 0 -4.362300485244301 0 0 -1 -1 0 0 forward_v I I I I #
loop $-1 $-1 $114 $31 #
coedge $-1 $72 $72 $113 $115 reversed $45 $-1 #
face $-1 $-1 $116 $25 $-1 $117 forward single #
loop $-1 $-1 $118 $47 #
plane-surface $-1 0 0 -4.362300485244301 0 0 -1 -1 0 0 forward_v I I I I #
loop $-1 $-1 $119 $32 #
coedge $-1 $77 $77 $118 $120 reversed $48 $-1 #
face $-1 $121 $122 $26 $-1 $123 reversed single #
loop $-1 $-1 $124 $50 #
plane-surface $-1 0 0 -156.05456709494308 0 0 1 1 0 0 forward_v I I I I #
coedge $-1 $125 $126 $127 $128 forward $51 $-1 #
face $-1 $-1 $129 $27 $-1 $130 forward single #
loop $-1 $-1 $131 $53 #
plane-surface $-1 0 0 -7.7044892727439205 0 0 -1 -1 0 0 forward_v I I I I #
loop $-1 $-1 $132 $34 #
coedge $-1 $86 $86 $131 $133 reversed $54 $-1 #
face $-1 $134 $135 $21 $-1 $136 reversed single #
loop $-1 $-1 $137 $56 #
plane-surface $-1 0 -40.282862090847566 0 0 1 0 0 0 1 forward_v I I I I #
coedge $-1 $138 $139 $140 $141 forward $57 $-1 #
coedge $-1 $142 $59 $143 $144 forward $36 $-1 #
coedge $-1 $59 $142 $145 $146 forward $36 $-1 #
coedge $-1 $147 $148 $59 $94 reversed $149 $-1 #
edge $-1 $150 -40.282862090847566 $151 40.282862090847566 $93 $152 forward 7 unknown #
face $-1 $153 $154 $22 $-1 $155 reversed single #
loop $-1 $-1 $156 $60 #
plane-surface $-1 0 -40.282862090847566 0 0 1 0 0 0 1 forward_v I I I I #
coedge $-1 $157 $158 $159 $160 forward $61 $-1 #
coedge $-1 $161 $63 $162 $163 forward $39 $-1 #
coedge $-1 $63 $161 $164 $165 forward $39 $-1 #
coedge $-1 $166 $167 $63 $102 reversed $168 $-1 #
edge $-1 $169 -40.282862090847566 $170 40.282862090847566 $101 $171 forward 7 unknown #
face $-1 $172 $173 $23 $-1 $174 reversed single #
loop $-1 $-1 $175 $64 #
plane-surface $-1 0 -312.10913418988616 0 0 1 0 0 0 1 forward_v I I I I #
coedge $-1 $176 $177 $178 $179 forward $65 $-1 #
coedge $-1 $180 $67 $181 $182 forward $42 $-1 #
coedge $-1 $67 $180 $183 $184 forward $42 $-1 #
coedge $-1 $185 $186 $67 $110 reversed $187 $-1 #
edge $-1 $188 -312.10913418988616 $189 312.10913418988616 $109 $190 forward 7 unknown #
loop $-1 $191 $192 $68 #
cone-surface $-1 0 0 0 0 0 1 0.5 0 0 1 I I -0.70710678118654746 0.70710678118654746 0.5 forward I I I I #
coedge $-1 $113 $113 $72 $115 forward $69 $-1 #
coedge $-1 $114 $114 $192 $193 forward $71 $-1 #
edge $-1 $194 0 $194 6.2831853071796004 $113 $195 forward 7 unknown #
loop $-1 $196 $197 $73 #
cone-surface $-1 0 0 0 0 0 1 0.5 0 0 1 I I -0.70710678118654746 0.70710678118654746 0.5 forward I I I I #
coedge $-1 $118 $118 $77 $120 forward $74 $-1 #
coedge $-1 $119 $119 $197 $198 forward $76 $-1 #
edge $-1 $199 0 $199 6.2831853071796004 $118 $200 forward 7 unknown #
face $-1 $201 $202 $26 $-1 $203 reversed single #
loop $-1 $-1 $204 $78 #
plane-surface $-1 0 -312.10913418988616 0 0 1 0 0 0 1 forward_v I I I I #
coedge $-1 $205 $206 $207 $208 forward $79 $-1 #
coedge $-1 $209 $81 $210 $211 forward $51 $-1 #
coedge $-1 $81 $209 $212 $213 forward $51 $-1 #
coedge $-1 $214 $215 $81 $128 reversed $216 $-1 #
edge $-1 $217 -312.10913418988616 $218 312.10913418988616 $127 $219 forward 7 unknown #
loop $-1 $220 $221 $82 #
cone-surface $-1 0 0 0 0 0 1 1 0 0 1 I I -0.70710678118654735 0.70710678118654768 1 forward I I I I #
coedge $-1 $131 $131 $86 $133 forward $83 $-1 #
coedge $-1 $132 $132 $221 $222 forward $85 $-1 #
edge $-1 $223 0 $223 6.2831853071796004 $131 $224 forward 7 unknown #
face $-1 $225 $226 $21 $-1 $227 reversed single #
loop $-1 $-1 $228 $87 #
plane-surface $-1 -78.027283547471541 0 0 1 0 0 0 0 -1 forward_v I I I I #
coedge $-1 $229 $145 $230 $231 forward $88 $-1 #
coedge $-1 $232 $90 $229 $233 forward $57 $-1 #
coedge $-1 $90 $232 $234 $235 forward $57 $-1 #
coedge $-1 $148 $147 $90 $141 reversed $149 $-1 #
edge $-1 $236 -40.282862090847566 $237 40.282862090847566 $140 $238 forward 7 unknown #
coedge $-1 $92 $91 $239 $240 forward $36 $-1 #
coedge $-1 $241 $242 $91 $144 reversed $226 $-1 #
edge $-1 $151 -78.027283547471541 $243 78.027283547471541 $143 $244 forward 7 unknown #
coedge $-1 $137 $245 $92 $146 reversed $88 $-1 #
edge $-1 $246 -78.027283547471541 $150 78.027283547471541 $145 $247 forward 7 unknown #
coedge $-1 $140 $93 $245 $248 forward $149 $-1 #
coedge $-1 $93 $140 $241 $249 reversed $149 $-1 #
loop $-1 $-1 $147 $225 #
vertex $-1 $94 $250 #
vertex $-1 $94 $251 #
straight-curve $-1 78.027283547471541 0 11.203644126484607 0 1 0 I I #
face $-1 $252 $253 $22 $-1 $254 reversed single #
loop $-1 $-1 $255 $95 #
plane-surface $-1 -6.0680518987948604 0 0 1 0 0 0 0 -1 forward_v I I I I #
coedge $-1 $256 $164 $257 $258 forward $96 $-1 #
coedge $-1 $259 $98 $256 $260 forward $61 $-1 #
coedge $-1 $98 $259 $261 $262 forward $61 $-1 #
coedge $-1 $167 $166 $98 $160 reversed $168 $-1 #
edge $-1 $263 -40.282862090847566 $264 40.282862090847566 $159 $265 forward 7 unknown #
coedge $-1 $100 $99 $266 $267 forward $39 $-1 #
coedge $-1 $268 $269 $99 $163 reversed $253 $-1 #
edge $-1 $170 -6.0680518987948604 $270 6.0680518987948604 $162 $271 forward 7 unknown #
coedge $-1 $156 $272 $100 $165 reversed $96 $-1 #
edge $-1 $273 -6.0680518987948604 $169 6.0680518987948604 $164 $274 forward 7 unknown #
coedge $-1 $159 $101 $272 $275 forward $168 $-1 #
coedge $-1 $101 $159 $268 $276 reversed $168 $-1 #
loop $-1 $-1 $166 $252 #
vertex $-1 $102 $277 #
vertex $-1 $102 $278 #
straight-curve $-1 6.0680518987948604 0 1.8450949064531041 0 1 0 I I #
face $-1 $279 $280 $23 $-1 $281 reversed single #
loop $-1 $-1 $282 $103 #
plane-surface $-1 -21.355862549746892 0 0 1 0 0 0 0 -1 forward_v I I I I #
coedge $-1 $283 $183 $284 $285 forward $104 $-1 #
coedge $-1 $286 $106 $283 $287 forward $65 $-1 #
coedge $-1 $106 $286 $288 $289 forward $65 $-1 #
coedge $-1 $186 $185 $106 $179 reversed $187 $-1 #
edge $-1 $290 -312.10913418988616 $291 312.10913418988616 $178 $292 forward 7 unknown #
coedge $-1 $108 $107 $293 $294 forward $42 $-1 #
coedge $-1 $295 $296 $107 $182 reversed $280 $-1 #
edge $-1 $189 -21.355862549746892 $297 21.355862549746892 $181 $298 forward 7 unknown #
coedge $-1 $175 $299 $108 $184 reversed $104 $-1 #
edge $-1 $300 -21.355862549746892 $188 21.355862549746892 $183 $301 forward 7 unknown #
coedge $-1 $178 $109 $299 $302 forward $187 $-1 #
coedge $-1 $109 $178 $295 $303 reversed $187 $-1 #
loop $-1 $-1 $185 $279 #
vertex $-1 $110 $304 #
vertex $-1 $110 $305 #
straight-curve $-1 21.355862549746892 0 156.05456709494308 0 1 0 I I #
loop $-1 $-1 $306 $68 #
coedge $-1 $192 $192 $114 $193 reversed $111 $-1 #
edge $-1 $307 0 $307 6.2831853071796004 $192 $308 forward 7 unknown #
vertex $-1 $115 $309 #
ellipse-curve $-1 0 0 -4.362300485244301 0 0 -1 1 0 0 1 I I #
loop $-1 $-1 $310 $73 #
coedge $-1 $197 $197 $119 $198 reversed $116 $-1 #
edge $-1 $311 0 $311 6.2831853071796004 $197 $312 forward 7 unknown #
vertex $-1 $120 $313 #
ellipse-curve $-1 0 0 -4.362300485244301 0 0 -1 1 0 0 1 I I #
face $-1 $314 $315 $26 $-1 $316 reversed single #
loop $-1 $-1 $317 $121 #
plane-surface $-1 -20.211700444917014 0 0 1 0 0 0 0 -1 forward_v I I I I #
coedge $-1 $318 $212 $319 $320 forward $122 $-1 #
coedge $-1 $321 $124 $318 $322 forward $79 $-1 #
coedge $-1 $124 $321 $323 $324 forward $79 $-1 #
coedge $-1 $215 $214 $124 $208 reversed $216 $-1 #
edge $-1 $325 -312.10913418988616 $326 312.10913418988616 $207 $327 forward 7 unknown #
coedge $-1 $126 $125 $328 $329 forward $51 $-1 #
coedge $-1 $330 $331 $125 $211 reversed $315 $-1 #
edge $-1 $218 -20.211700444917014 $332 20.211700444917014 $210 $333 forward 7 unknown #
coedge $-1 $204 $334 $126 $213 reversed $122 $-1 #
edge $-1 $335 -20.211700444917014 $217 20.211700444917014 $212 $336 forward 7 unknown #
coedge $-1 $207 $127 $334 $337 forward $216 $-1 #
coedge $-1 $127 $207 $330 $338 reversed $216 $-1 #
loop $-1 $-1 $214 $314 #
vertex $-1 $128 $339 #
vertex $-1 $128 $340 #
straight-curve $-1 20.211700444917014 0 156.05456709494308 0 1 0 I I #
loop $-1 $-1 $341 $82 #
coedge $-1 $221 $221 $132 $222 reversed $129 $-1 #
edge $-1 $342 0 $342 6.2831853071796004 $221 $343 forward 7 unknown #
vertex $-1 $133 $344 #
ellipse-curve $-1 0 0 -7.7044892727439205 0 0 -1 2 0 0 1 I I #
face $-1 $-1 $149 $21 $-1 $345 reversed single #
loop $-1 $-1 $241 $134 #
plane-surface $-1 0 40.282862090847566 0 0 -1 0 0 0 -1 forward_v I I I I #
coedge $-1 $346 $239 $242 $347 forward $135 $-1 #
coedge $-1 $245 $137 $138 $233 reversed $88 $-1 #
coedge $-1 $239 $346 $137 $231 reversed $135 $-1 #
edge $-1 $246 -11.203644126484607 $348 11.203644126484607 $230 $349 forward 7 unknown #
coedge $-1 $139 $138 $346 $350 forward $57 $-1 #
edge $-1 $237 -78.027283547471541 $348 78.027283547471541 $229 $351 forward 7 unknown #
coedge $-1 $242 $241 $139 $235 reversed $226 $-1 #
edge $-1 $352 -78.027283547471541 $236 78.027283547471541 $234 $353 forward 7 unknown #
vertex $-1 $141 $354 #
vertex $-1 $248 $355 #
straight-curve $-1 78.027283547471541 0 -11.203644126484607 0 -1 0 I I #
coedge $-1 $228 $230 $142 $240 reversed $135 $-1 #
edge $-1 $243 -40.282862090847566 $246 40.282862090847566 $239 $356 forward 7 unknown #
coedge $-1 $234 $143 $148 $249 forward $226 $-1 #
coedge $-1 $143 $234 $228 $347 reversed $226 $-1 #
vertex $-1 $144 $357 #
straight-curve $-1 0 40.282862090847566 11.203644126484607 -1 0 0 I I #
coedge $-1 $145 $229 $147 $248 reversed $88 $-1 #
vertex $-1 $240 $358 #
straight-curve $-1 0 -40.282862090847566 11.203644126484607 1 0 0 I I #
edge $-1 $150 -11.203644126484607 $237 11.203644126484607 $147 $359 forward 7 unknown #
edge $-1 $151 -11.203644126484607 $236 11.203644126484607 $148 $360 forward 7 unknown #
point $-1 78.027283547471541 -40.282862090847566 11.203644126484607 #
point $-1 78.027283547471541 40.282862090847566 11.203644126484607 #
face $-1 $-1 $168 $22 $-1 $361 reversed single #
loop $-1 $-1 $268 $153 #
plane-surface $-1 0 40.282862090847566 0 0 -1 0 0 0 -1 forward_v I I I I #
coedge $-1 $362 $266 $269 $363 forward $154 $-1 #
coedge $-1 $272 $156 $157 $260 reversed $96 $-1 #
coedge $-1 $266 $362 $156 $258 reversed $154 $-1 #
edge $-1 $273 -1.8450949064531041 $364 1.8450949064531041 $257 $365 forward 7 unknown #
coedge $-1 $158 $157 $362 $366 forward $61 $-1 #
edge $-1 $264 -6.0680518987948604 $364 6.0680518987948604 $256 $367 forward 7 unknown #
coedge $-1 $269 $268 $158 $262 reversed $253 $-1 #
edge $-1 $368 -6.0680518987948604 $263 6.0680518987948604 $261 $369 forward 7 unknown #
vertex $-1 $160 $370 #
vertex $-1 $275 $371 #
straight-curve $-1 6.0680518987948604 0 -1.8450949064531041 0 -1 0 I I #
coedge $-1 $255 $257 $161 $267 reversed $154 $-1 #
edge $-1 $270 -40.282862090847566 $273 40.282862090847566 $266 $372 forward 7 unknown #
coedge $-1 $261 $162 $167 $276 forward $253 $-1 #
coedge $-1 $162 $261 $255 $363 reversed $253 $-1 #
vertex $-1 $163 $373 #
straight-curve $-1 0 40.282862090847566 1.8450949064531041 -1 0 0 I I #
coedge $-1 $164 $256 $166 $275 reversed $96 $-1 #
vertex $-1 $267 $374 #
straight-curve $-1 0 -40.282862090847566 1.8450949064531041 1 0 0 I I #
edge $-1 $169 -1.8450949064531041 $264 1.8450949064531041 $166 $375 forward 7 unknown #
edge $-1 $170 -1.8450949064531041 $263 1.8450949064531041 $167 $376 forward 7 unknown #
point $-1 6.0680518987948604 -40.282862090847566 1.8450949064531041 #
point $-1 6.0680518987948604 40.282862090847566 1.8450949064531041 #
face $-1 $-1 $187 $23 $-1 $377 reversed single #
loop $-1 $-1 $295 $172 #
plane-surface $-1 0 312.10913418988616 0 0 -1 0 0 0 -1 forward_v I I I I #
coedge $-1 $378 $293 $296 $379 forward $173 $-1 #
coedge $-1 $299 $175 $176 $287 reversed $104 $-1 #
coedge $-1 $293 $378 $175 $285 reversed $173 $-1 #
edge $-1 $300 -156.05456709494308 $380 156.05456709494308 $284 $381 forward 7 unknown #
coedge $-1 $177 $176 $378 $382 forward $65 $-1 #
edge $-1 $291 -21.355862549746892 $380 21.355862549746892 $283 $383 forward 7 unknown #
coedge $-1 $296 $295 $177 $289 reversed $280 $-1 #
edge $-1 $384 -21.355862549746892 $290 21.355862549746892 $288 $385 forward 7 unknown #
vertex $-1 $179 $386 #
vertex $-1 $302 $387 #
straight-curve $-1 21.355862549746892 0 -156.05456709494308 0 -1 0 I I #
coedge $-1 $282 $284 $180 $294 reversed $173 $-1 #
edge $-1 $297 -312.10913418988616 $300 312.10913418988616 $293 $388 forward 7 unknown #
coedge $-1 $288 $181 $186 $303 forward $280 $-1 #
coedge $-1 $181 $288 $282 $379 reversed $280 $-1 #
vertex $-1 $182 $389 #
straight-curve $-1 0 312.10913418988616 156.05456709494308 -1 0 0 I I #
coedge $-1 $183 $283 $185 $302 reversed $104 $-1 #
vertex $-1 $294 $390 #
straight-curve $-1 0 -312.10913418988616 156.05456709494308 1 0 0 I I #
edge $-1 $188 -156.05456709494308 $291 156.05456709494308 $185 $391 forward 7 unknown #
edge $-1 $189 -156.05456709494308 $290 156.05456709494308 $186 $392 forward 7 unknown #
point $-1 21.355862549746892 -312.10913418988616 156.05456709494308 #
point $-1 21.355862549746892 312.10913418988616 156.05456709494308 #
coedge $-1 $306 $306 $-1 $393 reversed $191 $-1 #
vertex $-1 $193 $394 #
ellipse-curve $-1 0 0 -0.5 0 0 -1 1 0 0 1 I I #
point $-1 1 0 -4.362300485244301 #
coedge $-1 $310 $310 $-1 $395 reversed $196 $-1 #
vertex $-1 $198 $396 #
ellipse-curve $-1 0 0 -0.5 0 0 -1 1 0 0 1 I I #
point $-1 1 0 -4.362300485244301 #
face $-1 $-1 $216 $26 $-1 $397 reversed single #
loop $-1 $-1 $330 $201 #
plane-surface $-1 0 312.10913418988616 0 0 -1 0 0 0 -1 forward_v I I I I #
coedge $-1 $398 $328 $331 $399 forward $202 $-1 #
coedge $-1 $334 $204 $205 $322 reversed $122 $-1 #
coedge $-1 $328 $398 $204 $320 reversed $202 $-1 #
edge $-1 $335 -156.05456709494308 $400 156.05456709494308 $319 $401 forward 7 unknown #
coedge $-1 $206 $205 $398 $402 forward $79 $-1 #
edge $-1 $326 -20.211700444917014 $400 20.211700444917014 $318 $403 forward 7 unknown #
coedge $-1 $331 $330 $206 $324 reversed $315 $-1 #
edge $-1 $404 -20.211700444917014 $325 20.211700444917014 $323 $405 forward 7 unknown #
vertex $-1 $208 $406 #
vertex $-1 $337 $407 #
straight-curve $-1 20.211700444917014 0 -156.05456709494308 0 -1 0 I I #
coedge $-1 $317 $319 $209 $329 reversed $202 $-1 #
edge $-1 $332 -312.10913418988616 $335 312.10913418988616 $328 $408 forward 7 unknown #
coedge $-1 $323 $210 $215 $338 forward $315 $-1 #
coedge $-1 $210 $323 $317 $399 reversed $315 $-1 #
vertex $-1 $211 $409 #
straight-curve $-1 0 312.10913418988616 156.05456709494308 -1 0 0 I I #
coedge $-1 $212 $318 $214 $337 reversed $122 $-1 #
vertex $-1 $329 $410 #
straight-curve $-1 0 -312.10913418988616 156.05456709494308 1 0 0 I I #
edge $-1 $217 -156.05456709494308 $326 156.05456709494308 $214 $411 forward 7 unknown #
edge $-1 $218 -156.05456709494308 $325 156.05456709494308 $215 $412 forward 7 unknown #
point $-1 20.211700444917014 -312.10913418988616 156.05456709494308 #
point $-1 20.211700444917014 312.10913418988616 156.05456709494308 #
coedge $-1 $341 $341 $-1 $413 reversed $220 $-1 #
vertex $-1 $222 $414 #
ellipse-curve $-1 0 0 -1.0000000000000004 0 0 -1 2 0 0 1 I I #
point $-1 2 0 -7.7044892727439205 #
plane-surface $-1 78.027283547471541 0 0 -1 0 0 0 0 1 forward_v I I I I #
coedge $-1 $230 $228 $232 $350 reversed $135 $-1 #
edge $-1 $243 -11.203644126484607 $352 11.203644126484607 $242 $415 forward 7 unknown #
vertex $-1 $350 $416 #
straight-curve $-1 -78.027283547471541 -40.282862090847566 0 0 0 -1 I I #
edge $-1 $348 -40.282862090847566 $352 40.282862090847566 $346 $417 forward 7 unknown #
straight-curve $-1 0 -40.282862090847566 -11.203644126484607 -1 0 0 I I #
vertex $-1 $235 $418 #
straight-curve $-1 0 40.282862090847566 -11.203644126484607 1 0 0 I I #
point $-1 78.027283547471541 40.282862090847566 -11.203644126484607 #
point $-1 78.027283547471541 -40.282862090847566 -11.203644126484607 #
straight-curve $-1 -78.027283547471541 0 11.203644126484607 0 -1 0 I I #
point $-1 -78.027283547471541 40.282862090847566 11.203644126484607 #
point $-1 -78.027283547471541 -40.282862090847566 11.203644126484607 #
straight-curve $-1 78.027283547471541 -40.282862090847566 0 0 0 -1 I I #
straight-curve $-1 78.027283547471541 40.282862090847566 0 0 0 -1 I I #
plane-surface $-1 6.0680518987948604 0 0 -1 0 0 0 0 1 forward_v I I I I #
coedge $-1 $257 $255 $259 $366 reversed $154 $-1 #
edge $-1 $270 -1.8450949064531041 $368 1.8450949064531041 $269 $419 forward 7 unknown #
vertex $-1 $366 $420 #
straight-curve $-1 -6.0680518987948604 -40.282862090847566 0 0 0 -1 I I #
edge $-1 $364 -40.282862090847566 $368 40.282862090847566 $362 $421 forward 7 unknown #
straight-curve $-1 0 -40.282862090847566 -1.8450949064531041 -1 0 0 I I #
vertex $-1 $262 $422 #
straight-curve $-1 0 40.282862090847566 -1.8450949064531041 1 0 0 I I #
point $-1 6.0680518987948604 40.282862090847566 -1.8450949064531041 #
point $-1 6.0680518987948604 -40.282862090847566 -1.8450949064531041 #
straight-curve $-1 -6.0680518987948604 0 1.8450949064531041 0 -1 0 I I #
point $-1 -6.0680518987948604 40.282862090847566 1.8450949064531041 #
point $-1 -6.0680518987948604 -40.282862090847566 1.8450949064531041 #
straight-curve $-1 6.0680518987948604 -40.282862090847566 0 0 0 -1 I I #
straight-curve $-1 6.0680518987948604 40.282862090847566 0 0 0 -1 I I #
plane-surface $-1 21.355862549746892 0 0 -1 0 0 0 0 1 forward_v I I I I #
coedge $-1 $284 $282 $286 $382 reversed $173 $-1 #
edge $-1 $297 -156.05456709494308 $384 156.05456709494308 $296 $423 forward 7 unknown #
vertex $-1 $382 $424 #
straight-curve $-1 -21.355862549746892 -312.10913418988616 0 0 0 -1 I I #
edge $-1 $380 -312.10913418988616 $384 312.10913418988616 $378 $425 forward 7 unknown #
straight-curve $-1 0 -312.10913418988616 -156.05456709494308 -1 0 0 I I #
vertex $-1 $289 $426 #
straight-curve $-1 0 312.10913418988616 -156.05456709494308 1 0 0 I I #
point $-1 21.355862549746892 312.10913418988616 -156.05456709494308 #
point $-1 21.355862549746892 -312.10913418988616 -156.05456709494308 #
straight-curve $-1 -21.355862549746892 0 156.05456709494308 0 -1 0 I I #
point $-1 -21.355862549746892 312.10913418988616 156.05456709494308 #
point $-1 -21.355862549746892 -312.10913418988616 156.05456709494308 #
straight-curve $-1 21.355862549746892 -312.10913418988616 0 0 0 -1 I I #
straight-curve $-1 21.355862549746892 312.10913418988616 0 0 0 -1 I I #
edge $-1 $427 1 $427 0 $306 $-1 forward 7 unknown #
point $-1 1 0 -0.5 #
edge $-1 $428 1 $428 0 $310 $-1 forward 7 unknown #
point $-1 1 0 -0.5 #
plane-surface $-1 20.211700444917014 0 0 -1 0 0 0 0 1 forward_v I I I I #
coedge $-1 $319 $317 $321 $402 reversed $202 $-1 #
edge $-1 $332 -156.05456709494308 $404 156.05456709494308 $331 $429 forward 7 unknown #
vertex $-1 $402 $430 #
straight-curve $-1 -20.211700444917014 -312.10913418988616 0 0 0 -1 I I #
edge $-1 $400 -312.10913418988616 $404 312.10913418988616 $398 $431 forward 7 unknown #
straight-curve $-1 0 -312.10913418988616 -156.05456709494308 -1 0 0 I I #
vertex $-1 $324 $432 #
straight-curve $-1 0 312.10913418988616 -156.05456709494308 1 0 0 I I #
point $-1 20.211700444917014 312.10913418988616 -156.05456709494308 #
point $-1 20.211700444917014 -312.10913418988616 -156.05456709494308 #
straight-curve $-1 -20.211700444917014 0 156.05456709494308 0 -1 0 I I #
point $-1 -20.211700444917014 312.10913418988616 156.05456709494308 #
point $-1 -20.211700444917014 -312.10913418988616 156.05456709494308 #
straight-curve $-1 20.211700444917014 -312.10913418988616 0 0 0 -1 I I #
straight-curve $-1 20.211700444917014 312.10913418988616 0 0 0 -1 I I #
edge $-1 $433 1 $433 0 $341 $-1 forward 7 unknown #
point $-1 2 0 -1.0000000000000004 #
straight-curve $-1 -78.027283547471541 40.282862090847566 0 0 0 -1 I I #
point $-1 -78.027283547471541 -40.282862090847566 -11.203644126484607 #
straight-curve $-1 -78.027283547471541 0 -11.203644126484607 0 1 0 I I #
point $-1 -78.027283547471541 40.282862090847566 -11.203644126484607 #
straight-curve $-1 -6.0680518987948604 40.282862090847566 0 0 0 -1 I I #
point $-1 -6.0680518987948604 -40.282862090847566 -1.8450949064531041 #
straight-curve $-1 -6.0680518987948604 0 -1.8450949064531041 0 1 0 I I #
point $-1 -6.0680518987948604 40.282862090847566 -1.8450949064531041 #
straight-curve $-1 -21.355862549746892 312.10913418988616 0 0 0 -1 I I #
point $-1 -21.355862549746892 -312.10913418988616 -156.05456709494308 #
straight-curve $-1 -21.355862549746892 0 -156.05456709494308 0 1 0 I I #
point $-1 -21.355862549746892 312.10913418988616 -156.05456709494308 #
vertex $-1 $393 $434 #
vertex $-1 $395 $435 #
straight-curve $-1 -20.211700444917014 312.10913418988616 0 0 0 -1 I I #
point $-1 -20.211700444917014 -312.10913418988616 -156.05456709494308 #
straight-curve $-1 -20.211700444917014 0 -156.05456709494308 0 1 0 I I #
point $-1 -20.211700444917014 312.10913418988616 -156.05456709494308 #
vertex $-1 $413 $436 #
point $-1 0 0 0.5 #
point $-1 0 0 0.5 #
point $-1 0 0 1.0000000000000004 #
End-of-ACIS-data 