500 0 6 0           
7 Unknown 11 ACIS 5.0 NT 24 Fri Mar 26 17:25:40 1999 
-1 9.9999999999999995e-007 1e-010 
body $-1 $6 $-1 $7 #
body $-1 $8 $-1 $9 #
body $-1 $10 $-1 $11 #
body $-1 $12 $-1 $13 #
body $-1 $14 $-1 $15 #
body $-1 $16 $-1 $17 #
lump $-1 $-1 $18 $0 #
transform $-1 1 0 0 0 1 0 0 0 1 41.717581713309123 22.107249996278906 9.8149119333740469 1 rotate no_reflect no_shear #
lump $-1 $-1 $19 $1 #
transform $-1 1 0 0 0 1 0 0 0 1 41.717581713309123 22.107249996278906 9.8149119333740469 1 rotate no_reflect no_shear #
lump $-1 $-1 $20 $2 #
transform $-1 1 0 0 0 1 0 0 0 1 41.717581713309123 22.107249996278906 9.8149119333740469 1 rotate no_reflect no_shear #
lump $-1 $-1 $21 $3 #
transform $-1 1 0 0 0 1 0 0 0 1 41.717581713309123 22.107249996278906 9.8149119333740469 1 rotate no_reflect no_shear #
lump $-1 $-1 $22 $4 #
transform $-1 1 0 0 0 1 0 0 0 1 41.717581713309123 22.107249996278906 9.8149119333740469 1 rotate no_reflect no_shear #
lump $-1 $-1 $23 $5 #
transform $-1 1 0 0 0 1 0 0 0 1 41.717581713309123 22.107249996278906 9.8149119333740469 1 rotate no_reflect no_shear #
shell $-1 $-1 $-1 $24 $-1 $6 #
shell $-1 $-1 $-1 $25 $-1 $8 #
shell $-1 $-1 $-1 $26 $-1 $10 #
shell $-1 $-1 $-1 $27 $-1 $12 #
shell $-1 $-1 $-1 $28 $-1 $14 #
shell $-1 $-1 $-1 $29 $-1 $16 #
face $-1 $30 $31 $18 $-1 $32 forward single #
face $-1 $33 $34 $19 $-1 $35 forward single #
face $-1 $36 $37 $20 $-1 $38 forward single #
face $-1 $39 $40 $21 $-1 $41 reversed single #
face $-1 $42 $43 $22 $-1 $44 forward single #
face $-1 $45 $46 $23 $-1 $47 forward single #
face $-1 $48 $49 $18 $-1 $50 reversed single #
loop $-1 $-1 $51 $24 #
plane-surface $-1 0 0 9.8149119333740469 0 0 1 1 0 0 forward_v I I I I #
face $-1 $52 $53 $19 $-1 $54 reversed single #
loop $-1 $-1 $55 $25 #
plane-surface $-1 -37.284489693044023 0 -4.7235705198686286 0 0 1 1 0 0 forward_v I I I I #
face $-1 $56 $57 $20 $-1 $58 reversed single #
loop $-1 $-1 $59 $26 #
plane-surface $-1 37.284489693044016 0 -4.7235705198686286 0 0 1 1 0 0 forward_v I I I I #
face $-1 $60 $61 $21 $-1 $62 reversed single #
loop $-1 $-1 $63 $27 #
plane-surface $-1 -10.997376510026653 38.633565256951243 99.134149575169928 -1 0 0 0 0.61566148304635926 0.78801074757464917 forward_v I I I I #
face $-1 $64 $65 $22 $-1 $66 forward single #
loop $-1 $67 $68 $28 #
cone-surface $-1 -17.689282798432014 18.930914122616301 6.9141093185162248 0 -0.61566148304635926 -0.78801074757464917 1 0 0 1 I I 0 1 1 forward I I I I #
face $-1 $69 $70 $23 $-1 $71 forward single #
loop $-1 $72 $73 $29 #
cone-surface $-1 -13.674139025388797 18.930914122616301 6.9141093185162248 0 -0.61566148304635926 -0.78801074757464917 1 0 0 1 I I 0 1 1 forward I I I I #
face $-1 $74 $75 $18 $-1 $76 reversed single #
loop $-1 $-1 $77 $30 #
plane-surface $-1 0 0 -9.8149119333740469 0 0 1 1 0 0 forward_v I I I I #
coedge $-1 $78 $79 $80 $81 forward $31 $-1 #
face $-1 $82 $83 $19 $-1 $84 reversed single #
loop $-1 $-1 $85 $33 #
plane-surface $-1 -32.851397672778923 0 -7.2692412266213378 -1 0 0 0 0 1 forward_v I I I I #
coedge $-1 $86 $87 $88 $89 forward $34 $-1 #
face $-1 $90 $91 $20 $-1 $92 reversed single #
loop $-1 $-1 $93 $36 #
plane-surface $-1 32.851397672778916 0 -7.2692412266213378 1 0 0 0 0 -1 forward_v I I I I #
coedge $-1 $94 $95 $96 $97 reversed $37 $-1 #
face $-1 $98 $99 $21 $-1 $100 reversed single #
loop $-1 $-1 $101 $39 #
plane-surface $-1 -15.681710911910407 -12.734251196495897 33.386344069347459 0 0.61566148304635926 0.78801074757464917 1 0 0 forward_v I I I I #
coedge $-1 $102 $103 $104 $105 reversed $40 $-1 #
face $-1 $-1 $106 $22 $-1 $107 forward single #
loop $-1 $108 $109 $42 #
cone-surface $-1 -17.689282798432014 17.782469747841599 5.4441675806700598 0 -0.61566148304635926 -0.78801074757464917 0.5 0 0 1 I I -0.70710678118654746 0.70710678118654746 0.5 forward I I I I #
loop $-1 $-1 $110 $28 #
coedge $-1 $68 $68 $111 $112 reversed $43 $-1 #
face $-1 $-1 $113 $23 $-1 $114 forward single #
loop $-1 $115 $116 $45 #
cone-surface $-1 -13.674139025388797 17.782469747841599 5.4441675806700598 0 -0.61566148304635926 -0.78801074757464917 0.5 0 0 1 I I -0.70710678118654746 0.70710678118654746 0.5 forward I I I I #
loop $-1 $-1 $117 $29 #
coedge $-1 $73 $73 $118 $119 reversed $46 $-1 #
face $-1 $120 $121 $18 $-1 $122 reversed single #
loop $-1 $-1 $123 $48 #
plane-surface $-1 0 -22.107249996278906 0 0 1 0 0 0 1 forward_v I I I I #
coedge $-1 $124 $125 $126 $127 forward $49 $-1 #
coedge $-1 $128 $51 $129 $130 forward $31 $-1 #
coedge $-1 $51 $128 $131 $132 forward $31 $-1 #
coedge $-1 $133 $134 $51 $81 reversed $135 $-1 #
edge $-1 $136 -22.107249996278906 $137 22.107249996278906 $80 $138 forward 7 unknown #
face $-1 $139 $140 $19 $-1 $141 reversed single #
loop $-1 $-1 $142 $52 #
plane-surface $-1 0 0 -9.8149119333740469 0 0 1 1 0 0 forward_v I I I I #
coedge $-1 $143 $88 $144 $145 reversed $53 $-1 #
coedge $-1 $146 $55 $147 $148 reversed $34 $-1 #
coedge $-1 $55 $146 $149 $150 reversed $34 $-1 #
coedge $-1 $85 $151 $55 $89 reversed $53 $-1 #
edge $-1 $152 -22.107249996278906 $153 22.107249996278906 $88 $154 forward 7 unknown #
face $-1 $155 $156 $20 $-1 $157 reversed single #
loop $-1 $-1 $158 $56 #
plane-surface $-1 0 -22.107249996278906 0 0 1 0 0 0 1 forward_v I I I I #
coedge $-1 $159 $160 $161 $162 reversed $57 $-1 #
coedge $-1 $163 $59 $164 $165 reversed $37 $-1 #
coedge $-1 $59 $163 $158 $166 reversed $37 $-1 #
coedge $-1 $167 $168 $59 $97 forward $169 $-1 #
edge $-1 $170 -22.107249996278906 $171 22.107249996278906 $96 $172 forward 7 unknown #
face $-1 $173 $174 $21 $-1 $175 reversed single #
loop $-1 $-1 $176 $60 #
plane-surface $-1 -20.36604531379416 38.633565256951243 99.134149575169928 1 0 0 0 -0.61566148304635926 -0.78801074757464917 forward_v I I I I #
coedge $-1 $177 $178 $179 $180 reversed $61 $-1 #
coedge $-1 $103 $63 $181 $182 reversed $40 $-1 #
coedge $-1 $63 $102 $177 $183 reversed $40 $-1 #
coedge $-1 $179 $184 $63 $105 forward $174 $-1 #
edge $-1 $185 39.752162854210916 $186 43.40189535580889 $104 $187 forward 7 unknown #
loop $-1 $-1 $111 $64 #
plane-surface $-1 -15.681710911910407 -12.734251196495897 33.386344069347459 0 0.61566148304635926 0.78801074757464917 1 0 0 forward_v I I I I #
loop $-1 $-1 $188 $42 #
coedge $-1 $109 $109 $110 $189 reversed $65 $-1 #
coedge $-1 $110 $110 $109 $189 forward $67 $-1 #
coedge $-1 $111 $111 $68 $112 forward $106 $-1 #
edge $-1 $190 -4.8132689654384008e-016 $190 6.2831853071795996 $111 $191 forward 7 unknown #
loop $-1 $-1 $118 $69 #
plane-surface $-1 -15.681710911910407 -12.734251196495897 33.386344069347459 0 0.61566148304635926 0.78801074757464917 1 0 0 forward_v I I I I #
loop $-1 $-1 $192 $45 #
coedge $-1 $116 $116 $117 $193 reversed $70 $-1 #
coedge $-1 $117 $117 $116 $193 forward $72 $-1 #
coedge $-1 $118 $118 $73 $119 forward $113 $-1 #
edge $-1 $194 -4.8132689654384008e-016 $194 6.2831853071795996 $118 $195 forward 7 unknown #
face $-1 $196 $197 $18 $-1 $198 reversed single #
loop $-1 $-1 $199 $74 #
plane-surface $-1 -41.717581713309123 0 0 1 0 0 0 0 -1 forward_v I I I I #
coedge $-1 $200 $131 $201 $202 forward $75 $-1 #
coedge $-1 $203 $77 $200 $204 forward $49 $-1 #
coedge $-1 $77 $203 $205 $206 forward $49 $-1 #
coedge $-1 $134 $133 $77 $127 reversed $135 $-1 #
edge $-1 $207 -22.107249996278906 $208 22.107249996278906 $126 $209 forward 7 unknown #
coedge $-1 $79 $78 $210 $211 forward $31 $-1 #
coedge $-1 $212 $213 $78 $130 reversed $197 $-1 #
edge $-1 $137 -41.717581713309123 $214 41.717581713309123 $129 $215 forward 7 unknown #
coedge $-1 $123 $216 $79 $132 reversed $75 $-1 #
edge $-1 $217 -41.717581713309123 $136 41.717581713309123 $131 $218 forward 7 unknown #
coedge $-1 $126 $80 $216 $219 forward $135 $-1 #
coedge $-1 $80 $126 $212 $220 reversed $135 $-1 #
loop $-1 $-1 $133 $196 #
vertex $-1 $81 $221 #
vertex $-1 $81 $222 #
straight-curve $-1 41.717581713309123 0 9.8149119333740469 0 1 0 I I #
face $-1 $223 $224 $19 $-1 $225 reversed single #
loop $-1 $-1 $144 $82 #
plane-surface $-1 0 -22.107249996278906 0 0 1 0 0 0 1 forward_v I I I I #
coedge $-1 $226 $227 $143 $228 forward $83 $-1 #
coedge $-1 $151 $85 $142 $228 reversed $53 $-1 #
coedge $-1 $149 $229 $85 $145 forward $140 $-1 #
edge $-1 $230 -6.180291320063378 $152 -1.0889499065579598 $144 $231 forward 7 unknown #
coedge $-1 $87 $86 $232 $233 reversed $34 $-1 #
coedge $-1 $234 $235 $86 $148 forward $236 $-1 #
edge $-1 $237 -23.075336866787111 $153 -14.209152826256911 $147 $238 forward 7 unknown #
coedge $-1 $239 $144 $87 $150 forward $140 $-1 #
edge $-1 $152 14.209152826256911 $240 23.075336866787111 $149 $241 forward 7 unknown #
coedge $-1 $88 $143 $234 $242 reversed $53 $-1 #
vertex $-1 $150 $243 #
vertex $-1 $148 $244 #
straight-curve $-1 -32.851397672778923 0 -4.7235705198686286 0 1 0 I I #
face $-1 $245 $246 $20 $-1 $247 reversed single #
loop $-1 $-1 $248 $90 #
plane-surface $-1 0 0 -9.8149119333740469 0 0 1 1 0 0 forward_v I I I I #
coedge $-1 $249 $250 $95 $166 forward $91 $-1 #
coedge $-1 $251 $93 $248 $252 reversed $57 $-1 #
coedge $-1 $93 $251 $163 $253 reversed $57 $-1 #
coedge $-1 $164 $254 $93 $162 forward $246 $-1 #
edge $-1 $255 -6.180291320063378 $256 -1.0889499065579598 $161 $257 forward 7 unknown #
coedge $-1 $95 $94 $160 $253 forward $37 $-1 #
coedge $-1 $258 $161 $94 $165 forward $246 $-1 #
edge $-1 $256 14.209152826256908 $170 23.075336866787108 $164 $259 forward 7 unknown #
edge $-1 $171 -23.075336866787108 $260 -14.209152826256908 $158 $261 forward 7 unknown #
coedge $-1 $262 $96 $250 $263 forward $169 $-1 #
coedge $-1 $96 $262 $258 $264 reversed $169 $-1 #
loop $-1 $-1 $96 $245 #
vertex $-1 $264 $265 #
vertex $-1 $263 $266 #
straight-curve $-1 41.717581713309123 0 -4.7235705198686286 0 -1 0 I I #
face $-1 $-1 $267 $21 $-1 $268 forward single #
loop $-1 $-1 $104 $98 #
plane-surface $-1 0 22.107249996278906 0 0 -1 0 0 0 -1 forward_v I I I I #
coedge $-1 $269 $270 $271 $272 reversed $99 $-1 #
coedge $-1 $273 $101 $103 $183 forward $61 $-1 #
coedge $-1 $101 $273 $269 $274 forward $61 $-1 #
coedge $-1 $271 $104 $101 $180 forward $174 $-1 #
edge $-1 $186 3.1565210540714492 $275 12.525189857838956 $179 $276 forward 7 unknown #
coedge $-1 $277 $278 $102 $182 forward $267 $-1 #
edge $-1 $279 -1.880977113018897 $185 2.7904673678032843 $181 $280 forward 7 unknown #
edge $-1 $186 -44.214499992557805 $279 -38.286351810315345 $103 $281 forward 7 unknown #
coedge $-1 $104 $271 $277 $282 reversed $174 $-1 #
vertex $-1 $282 $283 #
vertex $-1 $105 $284 #
straight-curve $-1 -10.997376510026653 22.107249996278906 49.567074787584964 0 0 -1 I I #
coedge $-1 $188 $188 $-1 $285 reversed $108 $-1 #
edge $-1 $286 0 $286 6.2831853071796004 $109 $287 forward 7 unknown #
vertex $-1 $112 $288 #
ellipse-curve $-1 -17.689282798432014 19.771527755867819 7.9900456825750599 0 0.61566148304635926 0.78801074757464917 1 0 0 1 I I #
coedge $-1 $192 $192 $-1 $289 reversed $115 $-1 #
edge $-1 $290 0 $290 6.2831853071796004 $116 $291 forward 7 unknown #
vertex $-1 $119 $292 #
ellipse-curve $-1 -13.674139025388797 19.771527755867819 7.9900456825750599 0 0.61566148304635926 0.78801074757464917 1 0 0 1 I I #
face $-1 $-1 $135 $18 $-1 $293 reversed single #
loop $-1 $-1 $212 $120 #
plane-surface $-1 0 22.107249996278906 0 0 -1 0 0 0 -1 forward_v I I I I #
coedge $-1 $294 $210 $213 $295 forward $121 $-1 #
coedge $-1 $216 $123 $124 $204 reversed $75 $-1 #
coedge $-1 $210 $294 $123 $202 reversed $121 $-1 #
edge $-1 $217 -9.8149119333740469 $296 9.8149119333740469 $201 $297 forward 7 unknown #
coedge $-1 $125 $124 $294 $298 forward $49 $-1 #
edge $-1 $208 -41.717581713309123 $296 41.717581713309123 $200 $299 forward 7 unknown #
coedge $-1 $213 $212 $125 $206 reversed $197 $-1 #
edge $-1 $300 -41.717581713309123 $207 41.717581713309123 $205 $301 forward 7 unknown #
vertex $-1 $127 $302 #
vertex $-1 $219 $303 #
straight-curve $-1 41.717581713309123 0 -9.8149119333740469 0 -1 0 I I #
coedge $-1 $199 $201 $128 $211 reversed $121 $-1 #
edge $-1 $214 -22.107249996278906 $217 22.107249996278906 $210 $304 forward 7 unknown #
coedge $-1 $205 $129 $134 $220 forward $197 $-1 #
coedge $-1 $129 $205 $199 $295 reversed $197 $-1 #
vertex $-1 $130 $305 #
straight-curve $-1 0 22.107249996278906 9.8149119333740469 -1 0 0 I I #
coedge $-1 $131 $200 $133 $219 reversed $75 $-1 #
vertex $-1 $211 $306 #
straight-curve $-1 0 -22.107249996278906 9.8149119333740469 1 0 0 I I #
edge $-1 $136 -9.8149119333740469 $208 9.8149119333740469 $133 $307 forward 7 unknown #
edge $-1 $137 -9.8149119333740469 $207 9.8149119333740469 $134 $308 forward 7 unknown #
point $-1 41.717581713309123 -22.107249996278906 9.8149119333740469 #
point $-1 41.717581713309123 22.107249996278906 9.8149119333740469 #
face $-1 $-1 $236 $19 $-1 $309 reversed single #
loop $-1 $-1 $232 $139 #
plane-surface $-1 -41.717581713309123 0 0 1 0 0 0 0 -1 forward_v I I I I #
coedge $-1 $310 $142 $229 $311 forward $83 $-1 #
coedge $-1 $142 $310 $312 $313 forward $83 $-1 #
edge $-1 $314 -22.107249996278906 $230 22.107249996278906 $142 $315 forward 7 unknown #
coedge $-1 $144 $239 $226 $311 reversed $140 $-1 #
vertex $-1 $311 $316 #
straight-curve $-1 -32.851397672778923 -22.107249996278906 -3.6346206133106689 0 0 1 I I #
coedge $-1 $317 $318 $146 $233 forward $224 $-1 #
edge $-1 $240 -22.107249996278906 $237 22.107249996278906 $232 $319 forward 7 unknown #
coedge $-1 $312 $147 $151 $242 forward $236 $-1 #
coedge $-1 $147 $312 $317 $320 reversed $236 $-1 #
loop $-1 $-1 $234 $223 #
vertex $-1 $320 $321 #
straight-curve $-1 -18.642244846522011 22.107249996278906 -4.7235705198686286 1 0 0 I I #
coedge $-1 $229 $149 $318 $322 forward $140 $-1 #
vertex $-1 $322 $323 #
straight-curve $-1 -18.642244846522011 -22.107249996278906 -4.7235705198686286 -1 0 0 I I #
edge $-1 $153 1.0889499065579598 $314 6.180291320063378 $234 $324 forward 7 unknown #
point $-1 -32.851397672778923 -22.107249996278906 -4.7235705198686286 #
point $-1 -32.851397672778923 22.107249996278906 -4.7235705198686286 #
face $-1 $-1 $169 $20 $-1 $325 reversed single #
loop $-1 $-1 $164 $155 #
plane-surface $-1 0 22.107249996278906 0 0 -1 0 0 0 -1 forward_v I I I I #
coedge $-1 $326 $327 $159 $252 forward $156 $-1 #
coedge $-1 $328 $158 $251 $329 forward $91 $-1 #
coedge $-1 $158 $328 $167 $263 reversed $91 $-1 #
coedge $-1 $160 $159 $249 $329 reversed $57 $-1 #
edge $-1 $330 -22.107249996278906 $255 22.107249996278906 $248 $331 forward 7 unknown #
edge $-1 $256 -22.107249996278906 $260 22.107249996278906 $160 $332 forward 7 unknown #
coedge $-1 $161 $258 $326 $333 reversed $246 $-1 #
vertex $-1 $333 $334 #
vertex $-1 $165 $335 #
straight-curve $-1 32.851397672778916 22.107249996278906 -3.6346206133106689 0 0 1 I I #
coedge $-1 $254 $164 $168 $264 forward $246 $-1 #
straight-curve $-1 18.642244846522008 22.107249996278906 -4.7235705198686286 1 0 0 I I #
vertex $-1 $166 $336 #
straight-curve $-1 18.642244846522008 -22.107249996278906 -4.7235705198686286 -1 0 0 I I #
coedge $-1 $168 $167 $337 $338 reversed $169 $-1 #
edge $-1 $171 4.7235705198686286 $339 9.8149119333740469 $167 $340 forward 7 unknown #
edge $-1 $170 4.7235705198686286 $341 9.8149119333740469 $168 $342 forward 7 unknown #
point $-1 41.717581713309116 22.107249996278906 -4.7235705198686286 #
point $-1 41.717581713309116 -22.107249996278906 -4.7235705198686286 #
loop $-1 $-1 $181 $173 #
plane-surface $-1 0 0 9.8149119333740469 0 0 1 1 0 0 forward_v I I I I #
coedge $-1 $270 $176 $178 $274 reversed $99 $-1 #
coedge $-1 $176 $269 $343 $344 reversed $99 $-1 #
coedge $-1 $184 $179 $176 $272 forward $174 $-1 #
edge $-1 $275 -43.40189535580889 $345 -39.752162854210916 $271 $346 forward 7 unknown #
coedge $-1 $178 $177 $278 $347 reversed $61 $-1 #
edge $-1 $348 38.286351810315345 $275 44.214499992557805 $269 $349 forward 7 unknown #
vertex $-1 $180 $350 #
straight-curve $-1 -7.8408554559552037 22.10724999627891 6.1651794317760764 -1 0 0 I I #
coedge $-1 $343 $181 $184 $282 forward $267 $-1 #
coedge $-1 $181 $343 $273 $347 forward $267 $-1 #
vertex $-1 $182 $351 #
straight-curve $-1 -10.997376510026653 19.316782628475622 9.8149119333740487 0 1 0 I I #
straight-curve $-1 -10.997376510026653 -12.734251196495897 33.386344069347459 0 -0.78801074757464917 0.61566148304635926 I I #
edge $-1 $185 10.997376510026653 $345 20.36604531379416 $184 $352 forward 7 unknown #
point $-1 -10.997376510026653 22.107249996278906 9.8149119333740469 #
point $-1 -10.997376510026653 22.107249996278902 6.1651794317760746 #
edge $-1 $353 1 $353 0 $188 $-1 forward 7 unknown #
vertex $-1 $189 $354 #
ellipse-curve $-1 -17.689282798432014 18.090300489364779 5.8381729544573844 0 0.61566148304635926 0.78801074757464917 1 0 0 1 I I #
point $-1 -16.689282798432014 19.771527755867822 7.9900456825750652 #
edge $-1 $355 1 $355 0 $192 $-1 forward 7 unknown #
vertex $-1 $193 $356 #
ellipse-curve $-1 -13.674139025388797 18.090300489364779 5.8381729544573844 0 0.61566148304635926 0.78801074757464917 1 0 0 1 I I #
point $-1 -12.674139025388797 19.771527755867822 7.9900456825750652 #
plane-surface $-1 41.717581713309123 0 0 -1 0 0 0 0 1 forward_v I I I I #
coedge $-1 $201 $199 $203 $298 reversed $121 $-1 #
edge $-1 $214 -9.8149119333740469 $300 9.8149119333740469 $213 $357 forward 7 unknown #
vertex $-1 $298 $358 #
straight-curve $-1 -41.717581713309123 -22.107249996278906 0 0 0 -1 I I #
edge $-1 $296 -22.107249996278906 $300 22.107249996278906 $294 $359 forward 7 unknown #
straight-curve $-1 0 -22.107249996278906 -9.8149119333740469 -1 0 0 I I #
vertex $-1 $206 $360 #
straight-curve $-1 0 22.107249996278906 -9.8149119333740469 1 0 0 I I #
point $-1 41.717581713309123 22.107249996278906 -9.8149119333740469 #
point $-1 41.717581713309123 -22.107249996278906 -9.8149119333740469 #
straight-curve $-1 -41.717581713309123 0 9.8149119333740469 0 -1 0 I I #
point $-1 -41.717581713309123 22.107249996278906 9.8149119333740469 #
point $-1 -41.717581713309123 -22.107249996278906 9.8149119333740469 #
straight-curve $-1 41.717581713309123 -22.107249996278906 0 0 0 -1 I I #
straight-curve $-1 41.717581713309123 22.107249996278906 0 0 0 -1 I I #
plane-surface $-1 0 22.107249996278906 0 0 -1 0 0 0 -1 forward_v I I I I #
coedge $-1 $227 $226 $361 $362 forward $83 $-1 #
edge $-1 $230 32.851397672778923 $363 41.717581713309123 $229 $364 forward 7 unknown #
coedge $-1 $235 $234 $227 $313 reversed $236 $-1 #
edge $-1 $365 -41.717581713309123 $314 -32.851397672778923 $312 $366 forward 7 unknown #
vertex $-1 $242 $367 #
straight-curve $-1 -32.851397672778923 0 -9.8149119333740469 0 -1 0 I I #
point $-1 -32.851397672778923 -22.107249996278906 -9.8149119333740469 #
coedge $-1 $361 $232 $235 $320 forward $224 $-1 #
coedge $-1 $232 $361 $239 $322 reversed $224 $-1 #
straight-curve $-1 -41.717581713309123 0 -4.7235705198686286 0 1 0 I I #
edge $-1 $237 4.7235705198686286 $365 9.8149119333740469 $235 $368 forward 7 unknown #
point $-1 -41.717581713309123 22.107249996278906 -4.7235705198686286 #
edge $-1 $240 4.7235705198686286 $363 9.8149119333740469 $318 $369 forward 7 unknown #
point $-1 -41.717581713309123 -22.107249996278906 -4.7235705198686286 #
straight-curve $-1 -32.851397672778923 22.107249996278906 -3.6346206133106689 0 0 -1 I I #
plane-surface $-1 41.717581713309123 0 0 -1 0 0 0 0 1 forward_v I I I I #
coedge $-1 $337 $248 $254 $333 forward $156 $-1 #
coedge $-1 $248 $337 $328 $370 forward $156 $-1 #
coedge $-1 $250 $249 $327 $370 reversed $91 $-1 #
edge $-1 $260 1.0889499065579598 $330 6.180291320063378 $249 $371 forward 7 unknown #
vertex $-1 $252 $372 #
straight-curve $-1 32.851397672778916 0 -9.8149119333740469 0 1 0 I I #
straight-curve $-1 32.851397672778916 0 -4.7235705198686286 0 -1 0 I I #
edge $-1 $255 32.851397672778916 $341 41.717581713309123 $254 $373 forward 7 unknown #
point $-1 32.851397672778916 22.107249996278906 -9.8149119333740469 #
point $-1 32.851397672778916 22.107249996278906 -4.7235705198686286 #
point $-1 32.851397672778916 -22.107249996278906 -4.7235705198686286 #
coedge $-1 $327 $326 $262 $338 forward $156 $-1 #
edge $-1 $341 -22.107249996278906 $339 22.107249996278906 $262 $374 forward 7 unknown #
vertex $-1 $263 $375 #
straight-curve $-1 41.717581713309123 -22.107249996278906 0 0 0 -1 I I #
vertex $-1 $338 $376 #
straight-curve $-1 41.717581713309123 22.107249996278906 0 0 0 -1 I I #
coedge $-1 $278 $277 $270 $344 forward $267 $-1 #
edge $-1 $345 -2.7904673678032843 $348 1.880977113018897 $343 $377 forward 7 unknown #
vertex $-1 $344 $378 #
straight-curve $-1 -20.36604531379416 22.107249996278906 49.567074787584964 0 0 1 I I #
edge $-1 $348 -12.525189857838956 $279 -3.1565210540714492 $278 $379 forward 7 unknown #
vertex $-1 $347 $380 #
straight-curve $-1 -20.36604531379416 -12.734251196495897 33.386344069347459 0 0.78801074757464917 -0.61566148304635926 I I #
point $-1 -20.36604531379416 22.107249996278902 6.1651794317760746 #
point $-1 -10.997376510026653 17.435805515456725 9.8149119333740487 #
straight-curve $-1 0 22.107249996278906 9.8149119333740469 -1 0 0 I I #
vertex $-1 $285 $381 #
point $-1 -16.689282798432014 18.090300489364779 5.8381729544573844 #
vertex $-1 $289 $382 #
point $-1 -12.674139025388797 18.090300489364779 5.8381729544573844 #
straight-curve $-1 -41.717581713309123 22.107249996278906 0 0 0 -1 I I #
point $-1 -41.717581713309123 -22.107249996278906 -9.8149119333740469 #
straight-curve $-1 -41.717581713309123 0 -9.8149119333740469 0 1 0 I I #
point $-1 -41.717581713309123 22.107249996278906 -9.8149119333740469 #
coedge $-1 $318 $317 $310 $362 reversed $224 $-1 #
edge $-1 $363 -22.107249996278906 $365 22.107249996278906 $361 $383 forward 7 unknown #
vertex $-1 $362 $384 #
straight-curve $-1 0 -22.107249996278906 -9.8149119333740469 -1 0 0 I I #
vertex $-1 $313 $385 #
straight-curve $-1 0 22.107249996278906 -9.8149119333740469 1 0 0 I I #
point $-1 -32.851397672778923 22.107249996278906 -9.8149119333740469 #
straight-curve $-1 -41.717581713309123 22.107249996278906 0 0 0 -1 I I #
straight-curve $-1 -41.717581713309123 -22.107249996278906 0 0 0 -1 I I #
edge $-1 $339 -41.717581713309123 $330 -32.851397672778916 $328 $386 forward 7 unknown #
straight-curve $-1 32.851397672778916 -22.107249996278906 -3.6346206133106689 0 0 -1 I I #
point $-1 32.851397672778916 -22.107249996278906 -9.8149119333740469 #
straight-curve $-1 0 22.107249996278906 -9.8149119333740469 1 0 0 I I #
straight-curve $-1 41.717581713309123 0 -9.8149119333740469 0 -1 0 I I #
point $-1 41.717581713309123 -22.107249996278906 -9.8149119333740469 #
point $-1 41.717581713309123 22.107249996278906 -9.8149119333740469 #
straight-curve $-1 -20.36604531379416 19.316782628475622 9.8149119333740487 0 -1 0 I I #
point $-1 -20.36604531379416 22.107249996278906 9.8149119333740469 #
straight-curve $-1 -7.8408554559552037 17.435805515456725 9.8149119333740487 1 0 0 I I #
point $-1 -20.36604531379416 17.435805515456725 9.8149119333740487 #
point $-1 -17.689282798432014 17.474639006318419 5.0501622068827352 #
point $-1 -13.674139025388797 17.474639006318419 5.0501622068827352 #
straight-curve $-1 -41.717581713309123 0 -9.8149119333740469 0 1 0 I I #
point $-1 -41.717581713309123 -22.107249996278906 -9.8149119333740469 #
point $-1 -41.717581713309123 22.107249996278906 -9.8149119333740469 #
straight-curve $-1 0 -22.107249996278906 -9.8149119333740469 -1 0 0 I I #
End-of-ACIS-data 