500 0 14 0           
7 Unknown 11 ACIS 5.0 NT 24 Thu Mar 25 22:19:15 1999 
-1 9.9999999999999995e-007 1e-010 
body $-1 $14 $-1 $15 #
body $-1 $16 $-1 $17 #
body $-1 $18 $-1 $19 #
body $-1 $20 $-1 $21 #
body $-1 $22 $-1 $23 #
body $-1 $24 $-1 $25 #
body $-1 $26 $-1 $27 #
body $-1 $28 $-1 $29 #
body $-1 $30 $-1 $31 #
body $-1 $32 $-1 $33 #
body $-1 $34 $-1 $35 #
body $-1 $36 $-1 $37 #
body $-1 $38 $-1 $39 #
body $-1 $40 $-1 $41 #
lump $-1 $-1 $42 $0 #
transform $-1 1 0 0 0 1 0 0 0 1 53.03018280587176 33.188896293117267 15.436731283158473 1 rotate no_reflect no_shear #
lump $-1 $-1 $43 $1 #
transform $-1 1 0 0 0 1 0 0 0 1 53.03018280587176 33.188896293117267 15.436731283158473 1 rotate no_reflect no_shear #
lump $-1 $-1 $44 $2 #
transform $-1 1 0 0 0 1 0 0 0 1 53.03018280587176 33.188896293117267 15.436731283158473 1 rotate no_reflect no_shear #
lump $-1 $-1 $45 $3 #
transform $-1 1 0 0 0 1 0 0 0 1 53.03018280587176 33.188896293117267 15.436731283158473 1 rotate no_reflect no_shear #
lump $-1 $-1 $46 $4 #
transform $-1 1 0 0 0 1 0 0 0 1 53.03018280587176 33.188896293117267 15.436731283158473 1 rotate no_reflect no_shear #
lump $-1 $-1 $47 $5 #
transform $-1 1 0 0 0 1 0 0 0 1 53.03018280587176 33.188896293117267 15.436731283158473 1 rotate no_reflect no_shear #
lump $-1 $-1 $48 $6 #
transform $-1 1 0 0 0 1 0 0 0 1 53.03018280587176 33.188896293117267 15.436731283158473 1 rotate no_reflect no_shear #
lump $-1 $-1 $49 $7 #
transform $-1 1 0 0 0 1 0 0 0 1 53.03018280587176 33.188896293117267 15.436731283158473 1 rotate no_reflect no_shear #
lump $-1 $-1 $50 $8 #
transform $-1 1 0 0 0 1 0 0 0 1 53.03018280587176 33.188896293117267 15.436731283158473 1 rotate no_reflect no_shear #
lump $-1 $-1 $51 $9 #
transform $-1 1 0 0 0 1 0 0 0 1 53.03018280587176 33.188896293117267 15.436731283158473 1 rotate no_reflect no_shear #
lump $-1 $-1 $52 $10 #
transform $-1 1 0 0 0 1 0 0 0 1 53.03018280587176 33.188896293117267 15.436731283158473 1 rotate no_reflect no_shear #
lump $-1 $-1 $53 $11 #
transform $-1 1 0 0 0 1 0 0 0 1 53.03018280587176 33.188896293117267 15.436731283158473 1 rotate no_reflect no_shear #
lump $-1 $-1 $54 $12 #
transform $-1 1 0 0 0 1 0 0 0 1 53.03018280587176 33.188896293117267 15.436731283158473 1 rotate no_reflect no_shear #
lump $-1 $-1 $55 $13 #
transform $-1 1 0 0 0 1 0 0 0 1 53.03018280587176 33.188896293117267 15.436731283158473 1 rotate no_reflect no_shear #
shell $-1 $-1 $-1 $56 $-1 $14 #
shell $-1 $-1 $-1 $57 $-1 $16 #
shell $-1 $-1 $-1 $58 $-1 $18 #
shell $-1 $-1 $-1 $59 $-1 $20 #
shell $-1 $-1 $-1 $60 $-1 $22 #
shell $-1 $-1 $-1 $61 $-1 $24 #
shell $-1 $-1 $-1 $62 $-1 $26 #
shell $-1 $-1 $-1 $63 $-1 $28 #
shell $-1 $-1 $-1 $64 $-1 $30 #
shell $-1 $-1 $-1 $65 $-1 $32 #
shell $-1 $-1 $-1 $66 $-1 $34 #
shell $-1 $-1 $-1 $67 $-1 $36 #
shell $-1 $-1 $-1 $68 $-1 $38 #
shell $-1 $-1 $-1 $69 $-1 $40 #
face $-1 $70 $71 $42 $-1 $72 forward single #
face $-1 $73 $74 $43 $-1 $75 forward single #
face $-1 $76 $77 $44 $-1 $78 forward single #
face $-1 $79 $80 $45 $-1 $81 reversed single #
face $-1 $82 $83 $46 $-1 $84 forward single #
face $-1 $85 $86 $47 $-1 $87 forward single #
face $-1 $88 $89 $48 $-1 $90 forward single #
face $-1 $91 $92 $49 $-1 $93 reversed single #
face $-1 $94 $95 $50 $-1 $96 forward single #
face $-1 $97 $98 $51 $-1 $99 forward single #
face $-1 $100 $101 $52 $-1 $102 forward single #
face $-1 $103 $104 $53 $-1 $105 reversed single #
face $-1 $106 $107 $54 $-1 $108 forward single #
face $-1 $109 $110 $55 $-1 $111 forward single #
face $-1 $112 $113 $42 $-1 $114 reversed single #
loop $-1 $-1 $115 $56 #
plane-surface $-1 0 0 15.436731283158473 0 0 1 1 0 0 forward_v I I I I #
face $-1 $116 $117 $43 $-1 $118 forward single #
loop $-1 $-1 $119 $57 #
plane-surface $-1 0 -33.188896293117267 0 0 1 0 0 0 1 forward_v I I I I #
face $-1 $120 $121 $44 $-1 $122 reversed single #
loop $-1 $-1 $123 $58 #
plane-surface $-1 0 33.188896293117267 0 0 -1 0 0 0 -1 forward_v I I I I #
face $-1 $124 $125 $45 $-1 $126 reversed single #
loop $-1 $-1 $127 $59 #
plane-surface $-1 -136.60689231485256 -6.4354241452639389 72.465091266679224 0 1 0 -0.78801076186113728 0 0.61566146476048833 forward_v I I I I #
face $-1 $128 $129 $46 $-1 $130 forward single #
loop $-1 $131 $132 $60 #
cone-surface $-1 -49.405983318608072 -5.1483393162111533 10.994440519759124 0.78801076186113728 0 -0.61566146476048833 0.30783073238024417 0 0.39400538093056864 1 I I 0 1 0.5 forward I I I I #
face $-1 $133 $134 $47 $-1 $135 forward single #
loop $-1 $136 $137 $61 #
cone-surface $-1 -49.405983318608072 -3.2177120726319686 10.994440519759124 0.78801076186113728 0 -0.61566146476048833 0.30783073238024417 0 0.39400538093056864 1 I I 0 1 0.5 forward I I I I #
face $-1 $138 $139 $48 $-1 $140 forward single #
loop $-1 $141 $142 $62 #
cone-surface $-1 -49.405983318608072 -1.2870848290527839 10.994440519759124 0.78801076186113728 0 -0.61566146476048833 0.30783073238024417 0 0.39400538093056864 1 I I 0 1 0.5 forward I I I I #
face $-1 $143 $144 $49 $-1 $145 reversed single #
loop $-1 $-1 $146 $63 #
plane-surface $-1 -136.60689231485256 6.5041572158070959 72.465091266679224 0 1 0 -0.78801076186113728 0 0.61566146476048833 forward_v I I I I #
face $-1 $147 $148 $50 $-1 $149 forward single #
loop $-1 $150 $151 $64 #
cone-surface $-1 -49.405983318608072 7.791242044859878 10.994440519759124 0.78801076186113728 0 -0.61566146476048833 0.30783073238024417 0 0.39400538093056864 1 I I 0 1 0.5 forward I I I I #
face $-1 $152 $153 $51 $-1 $154 forward single #
loop $-1 $155 $156 $65 #
cone-surface $-1 -49.405983318608072 9.7218692884390663 10.994440519759124 0.78801076186113728 0 -0.61566146476048833 0.30783073238024417 0 0.39400538093056864 1 I I 0 1 0.5 forward I I I I #
face $-1 $157 $158 $52 $-1 $159 forward single #
loop $-1 $160 $161 $66 #
cone-surface $-1 -49.405983318608072 11.652496532018247 10.994440519759124 0.78801076186113728 0 -0.61566146476048833 0.30783073238024417 0 0.39400538093056864 1 I I 0 1 0.5 forward I I I I #
face $-1 $162 $163 $53 $-1 $164 reversed single #
loop $-1 $-1 $165 $67 #
plane-surface $-1 94.373585408568914 12.939581361071046 154.91639766997534 0 -1 0 -0.87461971476443456 0 -0.48480960649040278 forward_v I I I I #
face $-1 $166 $167 $54 $-1 $168 forward single #
loop $-1 $169 $170 $68 #
cone-surface $-1 50.340414716576909 7.9114776090262495 12.317166373963001 -0.87461971476443456 0 -0.48480960649040278 0.48480960649040278 0 -0.87461971476443456 1 I I 0 1 1 forward I I I I #
face $-1 $171 $172 $55 $-1 $173 forward single #
loop $-1 $174 $175 $69 #
cone-surface $-1 50.340414716576909 10.928339860253125 12.317166373963001 -0.87461971476443456 0 -0.48480960649040278 0.48480960649040278 0 -0.87461971476443456 1 I I 0 1 1 forward I I I I #
face $-1 $176 $177 $42 $-1 $178 reversed single #
loop $-1 $-1 $179 $70 #
plane-surface $-1 0 0 -15.436731283158473 0 0 1 1 0 0 forward_v I I I I #
coedge $-1 $180 $181 $182 $183 forward $71 $-1 #
face $-1 $184 $185 $43 $-1 $186 reversed single #
loop $-1 $-1 $187 $73 #
plane-surface $-1 0 0 15.436731283158473 0 0 1 1 0 0 forward_v I I I I #
coedge $-1 $188 $189 $190 $191 forward $74 $-1 #
face $-1 $192 $193 $44 $-1 $194 reversed single #
loop $-1 $-1 $195 $76 #
plane-surface $-1 53.03018280587176 0 0 -1 0 0 0 0 1 forward_v I I I I #
coedge $-1 $196 $197 $198 $199 forward $77 $-1 #
face $-1 $200 $201 $45 $-1 $202 reversed single #
loop $-1 $-1 $203 $79 #
plane-surface $-1 -53.030182805871789 -3.2177120726319686 7.1678112211202887 -0.78801076186113728 0 0.61566146476048833 0.61566146476048833 0 0.78801076186113728 forward_v I I I I #
coedge $-1 $204 $205 $206 $207 reversed $80 $-1 #
face $-1 $-1 $208 $46 $-1 $209 forward single #
loop $-1 $210 $211 $82 #
cone-surface $-1 -48.814975247212217 -5.1483393162111533 10.532694421188758 0.78801076186113728 0 -0.61566146476048833 0.15391536619012208 0 0.19700269046528432 1 I I -0.70710678118654746 0.70710678118654746 0.25 forward I I I I #
loop $-1 $-1 $212 $60 #
coedge $-1 $132 $132 $213 $214 reversed $83 $-1 #
face $-1 $-1 $215 $47 $-1 $216 forward single #
loop $-1 $217 $218 $85 #
cone-surface $-1 -48.814975247212217 -3.2177120726319686 10.532694421188758 0.78801076186113728 0 -0.61566146476048833 0.15391536619012208 0 0.19700269046528432 1 I I -0.70710678118654746 0.70710678118654746 0.25 forward I I I I #
loop $-1 $-1 $219 $61 #
coedge $-1 $137 $137 $220 $221 reversed $86 $-1 #
face $-1 $-1 $222 $48 $-1 $223 forward single #
loop $-1 $224 $225 $88 #
cone-surface $-1 -48.814975247212217 -1.2870848290527839 10.532694421188758 0.78801076186113728 0 -0.61566146476048833 0.15391536619012208 0 0.19700269046528432 1 I I -0.70710678118654746 0.70710678118654746 0.25 forward I I I I #
loop $-1 $-1 $226 $62 #
coedge $-1 $142 $142 $227 $228 reversed $89 $-1 #
face $-1 $229 $230 $49 $-1 $231 reversed single #
loop $-1 $-1 $232 $91 #
plane-surface $-1 -53.030182805871789 9.7218692884390663 7.1678112211202887 -0.78801076186113728 0 0.61566146476048833 0.61566146476048833 0 0.78801076186113728 forward_v I I I I #
coedge $-1 $233 $234 $235 $236 reversed $92 $-1 #
face $-1 $-1 $237 $50 $-1 $238 forward single #
loop $-1 $239 $240 $94 #
cone-surface $-1 -48.814975247212217 7.791242044859878 10.532694421188758 0.78801076186113728 0 -0.61566146476048833 0.15391536619012208 0 0.19700269046528432 1 I I -0.70710678118654746 0.70710678118654746 0.25 forward I I I I #
loop $-1 $-1 $241 $64 #
coedge $-1 $151 $151 $242 $243 reversed $95 $-1 #
face $-1 $-1 $244 $51 $-1 $245 forward single #
loop $-1 $246 $247 $97 #
cone-surface $-1 -48.814975247212217 9.7218692884390663 10.532694421188758 0.78801076186113728 0 -0.61566146476048833 0.15391536619012208 0 0.19700269046528432 1 I I -0.70710678118654746 0.70710678118654746 0.25 forward I I I I #
loop $-1 $-1 $248 $65 #
coedge $-1 $156 $156 $249 $250 reversed $98 $-1 #
face $-1 $-1 $251 $52 $-1 $252 forward single #
loop $-1 $253 $254 $100 #
cone-surface $-1 -48.814975247212217 11.652496532018247 10.532694421188758 0.78801076186113728 0 -0.61566146476048833 0.15391536619012208 0 0.19700269046528432 1 I I -0.70710678118654746 0.70710678118654746 0.25 forward I I I I #
loop $-1 $-1 $255 $66 #
coedge $-1 $161 $161 $256 $257 reversed $101 $-1 #
face $-1 $258 $259 $53 $-1 $260 reversed single #
loop $-1 $-1 $261 $103 #
plane-surface $-1 1.611098689414149 9.4199087346396908 103.49731355351771 0.87461971476443456 0 0.48480960649040278 0.48480960649040278 0 -0.87461971476443456 forward_v I I I I #
coedge $-1 $262 $263 $264 $265 reversed $104 $-1 #
face $-1 $-1 $266 $54 $-1 $267 forward single #
loop $-1 $268 $269 $106 #
cone-surface $-1 48.516490819079934 7.9114776090262495 11.306148885920088 -0.87461971476443456 0 -0.48480960649040278 0.24240480324520139 0 -0.43730985738221728 1 I I -0.70710678118654746 0.70710678118654746 0.5 forward I I I I #
loop $-1 $-1 $270 $68 #
coedge $-1 $170 $170 $271 $272 reversed $107 $-1 #
face $-1 $-1 $273 $55 $-1 $274 forward single #
loop $-1 $275 $276 $109 #
cone-surface $-1 48.516490819079934 10.928339860253125 11.306148885920088 -0.87461971476443456 0 -0.48480960649040278 0.24240480324520139 0 -0.43730985738221728 1 I I -0.70710678118654746 0.70710678118654746 0.5 forward I I I I #
loop $-1 $-1 $277 $69 #
coedge $-1 $175 $175 $278 $279 reversed $110 $-1 #
face $-1 $280 $281 $42 $-1 $282 reversed single #
loop $-1 $-1 $283 $112 #
plane-surface $-1 0 -33.188896293117267 0 0 1 0 0 0 1 forward_v I I I I #
coedge $-1 $284 $285 $286 $287 forward $113 $-1 #
coedge $-1 $288 $115 $289 $290 forward $71 $-1 #
coedge $-1 $115 $288 $291 $292 forward $71 $-1 #
coedge $-1 $293 $294 $115 $183 reversed $295 $-1 #
edge $-1 $296 -33.188896293117267 $297 33.188896293117267 $182 $298 forward 7 unknown #
face $-1 $299 $300 $43 $-1 $301 reversed single #
loop $-1 $-1 $302 $116 #
plane-surface $-1 -53.03018280587176 0 0 1 0 0 0 0 -1 forward_v I I I I #
coedge $-1 $303 $304 $305 $306 forward $117 $-1 #
coedge $-1 $305 $119 $302 $307 reversed $74 $-1 #
coedge $-1 $119 $305 $308 $309 reversed $74 $-1 #
coedge $-1 $310 $311 $119 $191 reversed $300 $-1 #
edge $-1 $312 -53.03018280587176 $313 53.03018280587176 $190 $314 forward 7 unknown #
face $-1 $315 $316 $44 $-1 $317 reversed single #
loop $-1 $-1 $318 $120 #
plane-surface $-1 0 43.313553759140376 11.49498713062126 0 0 1 1 0 0 forward_v I I I I #
coedge $-1 $319 $320 $196 $321 forward $121 $-1 #
coedge $-1 $322 $123 $195 $321 reversed $77 $-1 #
coedge $-1 $123 $322 $323 $324 reversed $77 $-1 #
coedge $-1 $325 $318 $123 $199 reversed $193 $-1 #
edge $-1 $326 -53.03018280587176 $327 53.03018280587176 $198 $328 forward 7 unknown #
face $-1 $329 $330 $45 $-1 $331 reversed single #
loop $-1 $-1 $332 $124 #
plane-surface $-1 -136.60689231485256 1.7763568394002505e-015 72.465091266679224 0 -1 0 0.78801076186113728 0 -0.61566146476048833 forward_v I I I I #
coedge $-1 $333 $334 $335 $336 reversed $125 $-1 #
coedge $-1 $205 $127 $337 $338 reversed $80 $-1 #
coedge $-1 $127 $204 $333 $339 reversed $80 $-1 #
coedge $-1 $335 $340 $127 $207 forward $341 $-1 #
edge $-1 $342 15.273263351554519 $343 21.733651564220708 $206 $344 forward 7 unknown #
loop $-1 $-1 $213 $128 #
plane-surface $-1 -53.030182805871789 -3.2177120726319686 7.1678112211202887 -0.78801076186113728 0 0.61566146476048833 0.61566146476048833 0 0.78801076186113728 forward_v I I I I #
loop $-1 $-1 $345 $82 #
coedge $-1 $211 $211 $212 $346 reversed $129 $-1 #
coedge $-1 $212 $212 $211 $346 forward $131 $-1 #
coedge $-1 $213 $213 $132 $214 forward $208 $-1 #
edge $-1 $347 0 $347 6.2831853071796004 $213 $348 forward 7 unknown #
loop $-1 $-1 $220 $133 #
plane-surface $-1 -53.030182805871789 -3.2177120726319686 7.1678112211202887 -0.78801076186113728 0 0.61566146476048833 0.61566146476048833 0 0.78801076186113728 forward_v I I I I #
loop $-1 $-1 $349 $85 #
coedge $-1 $218 $218 $219 $350 reversed $134 $-1 #
coedge $-1 $219 $219 $218 $350 forward $136 $-1 #
coedge $-1 $220 $220 $137 $221 forward $215 $-1 #
edge $-1 $351 0 $351 6.2831853071796004 $220 $352 forward 7 unknown #
loop $-1 $-1 $227 $138 #
plane-surface $-1 -53.030182805871789 -3.2177120726319686 7.1678112211202887 -0.78801076186113728 0 0.61566146476048833 0.61566146476048833 0 0.78801076186113728 forward_v I I I I #
loop $-1 $-1 $353 $88 #
coedge $-1 $225 $225 $226 $354 reversed $139 $-1 #
coedge $-1 $226 $226 $225 $354 forward $141 $-1 #
coedge $-1 $227 $227 $142 $228 forward $222 $-1 #
edge $-1 $355 0 $355 6.2831853071796004 $227 $356 forward 7 unknown #
face $-1 $357 $358 $49 $-1 $359 forward single #
loop $-1 $-1 $360 $143 #
plane-surface $-1 -136.60689231485256 12.939581361071037 72.465091266679224 0 -1 0 0.78801076186113728 0 -0.61566146476048833 forward_v I I I I #
coedge $-1 $361 $362 $363 $364 reversed $144 $-1 #
coedge $-1 $234 $146 $365 $366 reversed $92 $-1 #
coedge $-1 $146 $233 $361 $367 reversed $92 $-1 #
coedge $-1 $363 $368 $146 $236 forward $358 $-1 #
edge $-1 $369 15.273263351554519 $370 21.733651564220708 $235 $371 forward 7 unknown #
loop $-1 $-1 $242 $147 #
plane-surface $-1 -53.030182805871789 9.7218692884390663 7.1678112211202887 -0.78801076186113728 0 0.61566146476048833 0.61566146476048833 0 0.78801076186113728 forward_v I I I I #
loop $-1 $-1 $372 $94 #
coedge $-1 $240 $240 $241 $373 reversed $148 $-1 #
coedge $-1 $241 $241 $240 $373 forward $150 $-1 #
coedge $-1 $242 $242 $151 $243 forward $237 $-1 #
edge $-1 $374 0 $374 6.2831853071796004 $242 $375 forward 7 unknown #
loop $-1 $-1 $249 $152 #
plane-surface $-1 -53.030182805871789 9.7218692884390663 7.1678112211202887 -0.78801076186113728 0 0.61566146476048833 0.61566146476048833 0 0.78801076186113728 forward_v I I I I #
loop $-1 $-1 $376 $97 #
coedge $-1 $247 $247 $248 $377 reversed $153 $-1 #
coedge $-1 $248 $248 $247 $377 forward $155 $-1 #
coedge $-1 $249 $249 $156 $250 forward $244 $-1 #
edge $-1 $378 0 $378 6.2831853071796004 $249 $379 forward 7 unknown #
loop $-1 $-1 $256 $157 #
plane-surface $-1 -53.030182805871789 9.7218692884390663 7.1678112211202887 -0.78801076186113728 0 0.61566146476048833 0.61566146476048833 0 0.78801076186113728 forward_v I I I I #
loop $-1 $-1 $380 $100 #
coedge $-1 $254 $254 $255 $381 reversed $158 $-1 #
coedge $-1 $255 $255 $254 $381 forward $160 $-1 #
coedge $-1 $256 $256 $161 $257 forward $251 $-1 #
edge $-1 $382 0 $382 6.2831853071796004 $256 $383 forward 7 unknown #
face $-1 $384 $385 $53 $-1 $386 forward single #
loop $-1 $-1 $387 $162 #
plane-surface $-1 94.373585408568914 5.9002361082083361 154.91639766997534 0 1 0 0.87461971476443456 0 0.48480960649040278 forward_v I I I I #
coedge $-1 $388 $389 $390 $391 reversed $163 $-1 #
coedge $-1 $263 $165 $392 $393 reversed $104 $-1 #
coedge $-1 $165 $262 $388 $394 reversed $104 $-1 #
coedge $-1 $390 $395 $165 $265 forward $385 $-1 #
edge $-1 $396 -5.8433901015873033 $397 -3.2370820032271226 $264 $398 forward 7 unknown #
loop $-1 $-1 $271 $166 #
plane-surface $-1 1.611098689414149 9.4199087346396908 103.49731355351771 0.87461971476443456 0 0.48480960649040278 0.48480960649040278 0 -0.87461971476443456 forward_v I I I I #
loop $-1 $-1 $399 $106 #
coedge $-1 $269 $269 $270 $400 reversed $167 $-1 #
coedge $-1 $270 $270 $269 $400 forward $169 $-1 #
coedge $-1 $271 $271 $170 $272 forward $266 $-1 #
edge $-1 $401 0 $401 6.2831853071796004 $271 $402 forward 7 unknown #
loop $-1 $-1 $278 $171 #
plane-surface $-1 1.611098689414149 9.4199087346396908 103.49731355351771 0.87461971476443456 0 0.48480960649040278 0.48480960649040278 0 -0.87461971476443456 forward_v I I I I #
loop $-1 $-1 $403 $109 #
coedge $-1 $276 $276 $277 $404 reversed $172 $-1 #
coedge $-1 $277 $277 $276 $404 forward $174 $-1 #
coedge $-1 $278 $278 $175 $279 forward $273 $-1 #
edge $-1 $405 0 $405 6.2831853071796004 $278 $406 forward 7 unknown #
face $-1 $407 $408 $42 $-1 $409 reversed single #
loop $-1 $-1 $410 $176 #
plane-surface $-1 -53.03018280587176 0 0 1 0 0 0 0 -1 forward_v I I I I #
coedge $-1 $411 $291 $412 $413 forward $177 $-1 #
coedge $-1 $414 $179 $411 $415 forward $113 $-1 #
coedge $-1 $179 $414 $416 $417 forward $113 $-1 #
coedge $-1 $294 $293 $179 $287 reversed $295 $-1 #
edge $-1 $418 -33.188896293117267 $419 33.188896293117267 $286 $420 forward 7 unknown #
coedge $-1 $181 $180 $421 $422 forward $71 $-1 #
coedge $-1 $423 $424 $180 $290 reversed $408 $-1 #
edge $-1 $297 -53.03018280587176 $425 53.03018280587176 $289 $426 forward 7 unknown #
coedge $-1 $283 $427 $181 $292 reversed $177 $-1 #
edge $-1 $428 -53.03018280587176 $296 53.03018280587176 $291 $429 forward 7 unknown #
coedge $-1 $286 $182 $427 $430 forward $295 $-1 #
coedge $-1 $182 $286 $423 $431 reversed $295 $-1 #
loop $-1 $-1 $293 $407 #
vertex $-1 $183 $432 #
vertex $-1 $183 $433 #
straight-curve $-1 53.03018280587176 0 15.436731283158473 0 1 0 I I #
face $-1 $434 $435 $43 $-1 $436 reversed single #
loop $-1 $-1 $310 $184 #
plane-surface $-1 0 -43.313553759140383 11.49498713062126 0 0 1 1 0 0 forward_v I I I I #
coedge $-1 $437 $438 $188 $307 forward $185 $-1 #
coedge $-1 $439 $187 $438 $440 forward $117 $-1 #
coedge $-1 $187 $439 $441 $442 forward $117 $-1 #
coedge $-1 $189 $188 $187 $306 reversed $74 $-1 #
edge $-1 $443 -53.03018280587176 $444 53.03018280587176 $187 $445 forward 7 unknown #
edge $-1 $444 -15.436731283158473 $313 -11.49498713062126 $302 $446 forward 7 unknown #
coedge $-1 $441 $447 $189 $309 forward $448 $-1 #
edge $-1 $312 11.49498713062126 $443 15.436731283158473 $308 $449 forward 7 unknown #
coedge $-1 $450 $190 $447 $451 forward $300 $-1 #
coedge $-1 $190 $450 $437 $452 forward $300 $-1 #
vertex $-1 $309 $453 #
vertex $-1 $307 $454 #
straight-curve $-1 0 -33.188896293117267 11.49498713062126 -1 0 0 I I #
face $-1 $455 $456 $44 $-1 $457 forward single #
loop $-1 $-1 $458 $192 #
plane-surface $-1 0 53.438211225163492 13.465859206889867 0 -1 0 0 0 -1 forward_v I I I I #
coedge $-1 $198 $459 $319 $460 forward $193 $-1 #
coedge $-1 $461 $195 $318 $460 reversed $121 $-1 #
coedge $-1 $195 $461 $462 $463 reversed $121 $-1 #
edge $-1 $464 -15.436731283158473 $327 -11.49498713062126 $195 $465 forward 7 unknown #
coedge $-1 $197 $196 $466 $467 reversed $77 $-1 #
coedge $-1 $468 $469 $197 $324 forward $470 $-1 #
edge $-1 $326 11.49498713062126 $471 15.436731283158473 $323 $472 forward 7 unknown #
coedge $-1 $459 $198 $469 $473 forward $193 $-1 #
vertex $-1 $324 $474 #
vertex $-1 $321 $475 #
straight-curve $-1 0 33.188896293117267 11.49498713062126 1 0 0 I I #
face $-1 $-1 $341 $45 $-1 $476 forward single #
loop $-1 $-1 $477 $200 #
plane-surface $-1 -53.03018280587176 0 0 1 0 0 0 0 -1 forward_v I I I I #
coedge $-1 $478 $479 $480 $481 reversed $201 $-1 #
coedge $-1 $482 $203 $205 $339 forward $125 $-1 #
coedge $-1 $203 $482 $478 $483 forward $125 $-1 #
coedge $-1 $480 $206 $203 $336 forward $341 $-1 #
edge $-1 $343 -4.8265681089479546 $484 1.6088560363159861 $335 $485 forward 7 unknown #
coedge $-1 $486 $487 $204 $338 forward $330 $-1 #
edge $-1 $488 -29.064734412219288 $342 -20.795814350181139 $337 $489 forward 7 unknown #
edge $-1 $343 -10.493410067787028 $488 -4.6193811539156697e-014 $205 $490 forward 7 unknown #
coedge $-1 $206 $480 $486 $491 forward $341 $-1 #
loop $-1 $-1 $480 $329 #
vertex $-1 $338 $492 #
vertex $-1 $207 $493 #
straight-curve $-1 -68.303446157426279 -6.4354241452639389 15.436731283158473 1 0 0 I I #
coedge $-1 $345 $345 $-1 $494 reversed $210 $-1 #
edge $-1 $495 0 $495 6.2831853071796004 $211 $496 forward 7 unknown #
vertex $-1 $214 $497 #
ellipse-curve $-1 -49.799988699538673 -5.1483393162111533 11.302271252139391 -0.78801076186113728 0 0.61566146476048833 0.30783073238024417 0 0.39400538093056864 1 I I #
coedge $-1 $349 $349 $-1 $498 reversed $217 $-1 #
edge $-1 $499 0 $499 6.2831853071796004 $218 $500 forward 7 unknown #
vertex $-1 $221 $501 #
ellipse-curve $-1 -49.799988699538673 -3.2177120726319686 11.302271252139391 -0.78801076186113728 0 0.61566146476048833 0.30783073238024417 0 0.39400538093056864 1 I I #
coedge $-1 $353 $353 $-1 $502 reversed $224 $-1 #
edge $-1 $503 0 $503 6.2831853071796004 $225 $504 forward 7 unknown #
vertex $-1 $228 $505 #
ellipse-curve $-1 -49.799988699538673 -1.2870848290527839 11.302271252139391 -0.78801076186113728 0 0.61566146476048833 0.30783073238024417 0 0.39400538093056864 1 I I #
face $-1 $-1 $506 $49 $-1 $507 reversed single #
loop $-1 $-1 $235 $229 #
plane-surface $-1 0 0 15.436731283158473 0 0 1 1 0 0 forward_v I I I I #
coedge $-1 $508 $509 $510 $511 reversed $230 $-1 #
coedge $-1 $512 $232 $234 $367 forward $144 $-1 #
coedge $-1 $232 $512 $508 $513 forward $144 $-1 #
coedge $-1 $510 $235 $232 $364 forward $358 $-1 #
edge $-1 $370 1.6432225715875628 $514 8.0786467168515035 $363 $515 forward 7 unknown #
coedge $-1 $516 $517 $233 $366 forward $506 $-1 #
edge $-1 $518 -29.064734412219288 $369 -20.795814350181139 $365 $519 forward 7 unknown #
edge $-1 $370 -10.493410067787028 $518 -4.6193811539156697e-014 $234 $520 forward 7 unknown #
coedge $-1 $235 $510 $516 $521 forward $358 $-1 #
vertex $-1 $236 $522 #
vertex $-1 $236 $523 #
straight-curve $-1 -68.303446157426279 6.5041572158070959 15.436731283158473 1 0 0 I I #
coedge $-1 $372 $372 $-1 $524 reversed $239 $-1 #
edge $-1 $525 0 $525 6.2831853071796004 $240 $526 forward 7 unknown #
vertex $-1 $243 $527 #
ellipse-curve $-1 -49.799988699538673 7.791242044859878 11.302271252139391 -0.78801076186113728 0 0.61566146476048833 0.30783073238024417 0 0.39400538093056864 1 I I #
coedge $-1 $376 $376 $-1 $528 reversed $246 $-1 #
edge $-1 $529 0 $529 6.2831853071796004 $247 $530 forward 7 unknown #
vertex $-1 $250 $531 #
ellipse-curve $-1 -49.799988699538673 9.7218692884390663 11.302271252139391 -0.78801076186113728 0 0.61566146476048833 0.30783073238024417 0 0.39400538093056864 1 I I #
coedge $-1 $380 $380 $-1 $532 reversed $253 $-1 #
edge $-1 $533 0 $533 6.2831853071796004 $254 $534 forward 7 unknown #
vertex $-1 $257 $535 #
ellipse-curve $-1 -49.799988699538673 11.652496532018247 11.302271252139391 -0.78801076186113728 0 0.61566146476048833 0.30783073238024417 0 0.39400538093056864 1 I I #
face $-1 $-1 $536 $53 $-1 $537 reversed single #
loop $-1 $-1 $264 $258 #
plane-surface $-1 0 0 15.436731283158473 0 0 1 1 0 0 forward_v I I I I #
coedge $-1 $538 $539 $540 $541 reversed $259 $-1 #
coedge $-1 $542 $261 $263 $394 forward $163 $-1 #
coedge $-1 $261 $542 $538 $543 forward $163 $-1 #
coedge $-1 $540 $264 $261 $391 forward $385 $-1 #
edge $-1 $397 -8.2296269937512001 $544 -1.1902817408884907 $390 $545 forward 7 unknown #
coedge $-1 $546 $547 $262 $393 forward $536 $-1 #
edge $-1 $548 -66.723372000624693 $396 -62.021467551829197 $392 $549 forward 7 unknown #
edge $-1 $397 100.68442408032962 $548 106.06036561174351 $263 $550 forward 7 unknown #
coedge $-1 $264 $540 $546 $551 forward $385 $-1 #
vertex $-1 $393 $552 #
vertex $-1 $265 $553 #
straight-curve $-1 47.186792704284457 12.939581361071046 15.43673128315848 -1 0 0 I I #
coedge $-1 $399 $399 $-1 $554 reversed $268 $-1 #
edge $-1 $555 0 $555 6.2831853071796004 $269 $556 forward 7 unknown #
vertex $-1 $272 $557 #
ellipse-curve $-1 51.727028756691666 7.9114776090262495 13.085779058760718 0.87461971476443456 0 0.48480960649040278 0.48480960649040278 0 -0.87461971476443456 1 I I #
coedge $-1 $403 $403 $-1 $558 reversed $275 $-1 #
edge $-1 $559 0 $559 6.2831853071796004 $276 $560 forward 7 unknown #
vertex $-1 $279 $561 #
ellipse-curve $-1 51.727028756691666 10.928339860253125 13.085779058760718 0.87461971476443456 0 0.48480960649040278 0.48480960649040278 0 -0.87461971476443456 1 I I #
face $-1 $-1 $295 $42 $-1 $562 reversed single #
loop $-1 $-1 $423 $280 #
plane-surface $-1 0 33.188896293117267 0 0 -1 0 0 0 -1 forward_v I I I I #
coedge $-1 $563 $421 $424 $564 forward $281 $-1 #
coedge $-1 $427 $283 $284 $415 reversed $177 $-1 #
coedge $-1 $421 $563 $283 $413 reversed $281 $-1 #
edge $-1 $428 -15.436731283158473 $565 15.436731283158473 $412 $566 forward 7 unknown #
coedge $-1 $285 $284 $563 $567 forward $113 $-1 #
edge $-1 $419 -53.03018280587176 $565 53.03018280587176 $411 $568 forward 7 unknown #
coedge $-1 $424 $423 $285 $417 reversed $408 $-1 #
edge $-1 $569 -53.03018280587176 $418 53.03018280587176 $416 $570 forward 7 unknown #
vertex $-1 $287 $571 #
vertex $-1 $430 $572 #
straight-curve $-1 53.03018280587176 0 -15.436731283158473 0 -1 0 I I #
coedge $-1 $410 $412 $288 $422 reversed $281 $-1 #
edge $-1 $425 -33.188896293117267 $428 33.188896293117267 $421 $573 forward 7 unknown #
coedge $-1 $416 $289 $294 $431 forward $408 $-1 #
coedge $-1 $289 $416 $410 $564 reversed $408 $-1 #
vertex $-1 $290 $574 #
straight-curve $-1 0 33.188896293117267 15.436731283158473 -1 0 0 I I #
coedge $-1 $291 $411 $293 $430 reversed $177 $-1 #
vertex $-1 $422 $575 #
straight-curve $-1 0 -33.188896293117267 15.436731283158473 1 0 0 I I #
edge $-1 $296 -15.436731283158473 $419 15.436731283158473 $293 $576 forward 7 unknown #
edge $-1 $297 -15.436731283158473 $418 15.436731283158473 $294 $577 forward 7 unknown #
point $-1 53.03018280587176 -33.188896293117267 15.436731283158473 #
point $-1 53.03018280587176 33.188896293117267 15.436731283158473 #
face $-1 $-1 $448 $43 $-1 $578 reversed single #
loop $-1 $-1 $579 $299 #
plane-surface $-1 0 -53.438211225163499 13.465859206889867 0 1 0 0 0 1 forward_v I I I I #
coedge $-1 $580 $302 $311 $452 reversed $185 $-1 #
coedge $-1 $302 $580 $303 $440 reversed $185 $-1 #
coedge $-1 $304 $303 $581 $582 forward $117 $-1 #
edge $-1 $444 33.188896293117267 $583 53.438211225163499 $438 $584 forward 7 unknown #
coedge $-1 $585 $308 $304 $442 reversed $448 $-1 #
edge $-1 $586 -53.438211225163499 $443 -33.188896293117267 $441 $587 forward 7 unknown #
vertex $-1 $309 $588 #
vertex $-1 $440 $589 #
straight-curve $-1 0 -33.188896293117267 15.436731283158473 -1 0 0 I I #
straight-curve $-1 -53.03018280587176 -33.188896293117267 0 0 0 -1 I I #
coedge $-1 $308 $585 $310 $451 reversed $448 $-1 #
loop $-1 $-1 $308 $434 #
straight-curve $-1 53.03018280587176 -33.188896293117267 0 0 0 1 I I #
coedge $-1 $311 $310 $590 $591 forward $300 $-1 #
edge $-1 $312 -10.124657466023116 $592 10.124657466023116 $447 $593 forward 7 unknown #
edge $-1 $594 -10.124657466023116 $313 10.124657466023116 $437 $595 forward 7 unknown #
point $-1 53.03018280587176 -33.188896293117267 11.49498713062126 #
point $-1 -53.03018280587176 -33.188896293117267 11.49498713062126 #
face $-1 $-1 $470 $44 $-1 $596 reversed single #
loop $-1 $-1 $466 $315 #
plane-surface $-1 0 0 15.436731283158473 0 0 1 1 0 0 forward_v I I I I #
coedge $-1 $597 $598 $461 $599 forward $316 $-1 #
coedge $-1 $318 $325 $597 $600 forward $193 $-1 #
edge $-1 $601 -10.124657466023116 $327 10.124657466023116 $319 $602 forward 7 unknown #
coedge $-1 $320 $319 $458 $599 reversed $121 $-1 #
coedge $-1 $603 $466 $320 $463 forward $456 $-1 #
edge $-1 $464 33.188896293117267 $604 53.438211225163492 $320 $605 forward 7 unknown #
vertex $-1 $463 $606 #
straight-curve $-1 53.03018280587176 33.188896293117267 0 0 0 -1 I I #
coedge $-1 $462 $607 $322 $467 forward $456 $-1 #
edge $-1 $471 -53.03018280587176 $464 53.03018280587176 $466 $608 forward 7 unknown #
coedge $-1 $609 $323 $607 $610 reversed $470 $-1 #
coedge $-1 $323 $609 $325 $473 reversed $470 $-1 #
loop $-1 $-1 $323 $455 #
vertex $-1 $324 $611 #
straight-curve $-1 -53.03018280587176 33.188896293117267 0 0 0 1 I I #
edge $-1 $326 -10.124657466023116 $612 10.124657466023116 $469 $613 forward 7 unknown #
point $-1 -53.03018280587176 33.18889629311726 11.49498713062126 #
point $-1 53.03018280587176 33.18889629311726 11.49498713062126 #
plane-surface $-1 0 0 15.436731283158473 0 0 1 1 0 0 forward_v I I I I #
coedge $-1 $487 $486 $479 $614 forward $330 $-1 #
coedge $-1 $479 $332 $334 $483 reversed $201 $-1 #
coedge $-1 $332 $478 $477 $614 reversed $201 $-1 #
coedge $-1 $340 $335 $332 $481 forward $341 $-1 #
edge $-1 $484 -21.733651564220708 $615 -15.273263351554519 $480 $616 forward 7 unknown #
coedge $-1 $334 $333 $487 $617 reversed $125 $-1 #
edge $-1 $618 4.6193811539156697e-014 $484 10.493410067787028 $478 $619 forward 7 unknown #
vertex $-1 $336 $620 #
straight-curve $-1 -46.569794593205572 -1.6088560363159843 15.436731283158473 0 1 0 I I #
coedge $-1 $477 $337 $340 $491 reversed $330 $-1 #
coedge $-1 $337 $477 $482 $617 forward $330 $-1 #
vertex $-1 $338 $621 #
straight-curve $-1 -53.03018280587176 -6.4354241452639389 36.232545633339612 0 0 1 I I #
straight-curve $-1 -53.030182805871789 -6.4354241452639389 7.1678112211202887 -0.61566146476048833 0 -0.78801076186113728 I I #
edge $-1 $615 -1.7763568394002505e-015 $342 6.4354241452639389 $486 $622 forward 7 unknown #
point $-1 -53.03018280587176 -6.4354241452639389 15.436731283158473 #
point $-1 -46.569794593205572 -6.4354241452639389 15.436731283158473 #
edge $-1 $623 1 $623 0 $345 $-1 forward 7 unknown #
vertex $-1 $346 $624 #
ellipse-curve $-1 -49.0119779376775 -5.1483393162111533 10.686609787378879 -0.78801076186113728 0 0.61566146476048833 0.30783073238024417 0 0.39400538093056864 1 I I #
point $-1 -49.492157967158391 -5.1483393162111533 11.696276633069937 #
edge $-1 $625 1 $625 0 $349 $-1 forward 7 unknown #
vertex $-1 $350 $626 #
ellipse-curve $-1 -49.0119779376775 -3.2177120726319686 10.686609787378879 -0.78801076186113728 0 0.61566146476048833 0.30783073238024417 0 0.39400538093056864 1 I I #
point $-1 -49.492157967158391 -3.2177120726319686 11.696276633069937 #
edge $-1 $627 1 $627 0 $353 $-1 forward 7 unknown #
vertex $-1 $354 $628 #
ellipse-curve $-1 -49.0119779376775 -1.2870848290527839 10.686609787378879 -0.78801076186113728 0 0.61566146476048833 0.30783073238024417 0 0.39400538093056864 1 I I #
point $-1 -49.492157967158391 -1.2870848290527839 11.696276633069937 #
loop $-1 $-1 $365 $357 #
plane-surface $-1 -53.03018280587176 0 0 1 0 0 0 0 -1 forward_v I I I I #
coedge $-1 $509 $360 $362 $513 reversed $230 $-1 #
coedge $-1 $360 $508 $629 $630 reversed $230 $-1 #
coedge $-1 $368 $363 $360 $511 forward $358 $-1 #
edge $-1 $514 -21.733651564220708 $631 -15.273263351554519 $510 $632 forward 7 unknown #
coedge $-1 $362 $361 $517 $633 reversed $144 $-1 #
edge $-1 $634 4.6193811539156697e-014 $514 10.493410067787028 $508 $635 forward 7 unknown #
vertex $-1 $364 $636 #
straight-curve $-1 -46.569794593205572 4.8609346442195331 15.436731283158473 0 1 0 I I #
coedge $-1 $629 $365 $368 $521 reversed $506 $-1 #
coedge $-1 $365 $629 $512 $633 forward $506 $-1 #
vertex $-1 $366 $637 #
straight-curve $-1 -53.03018280587176 6.5041572158070959 36.232545633339612 0 0 1 I I #
straight-curve $-1 -53.030182805871789 6.5041572158070959 7.1678112211202887 -0.61566146476048833 0 -0.78801076186113728 I I #
edge $-1 $631 -12.939581361071037 $369 -6.5041572158070959 $516 $638 forward 7 unknown #
point $-1 -53.03018280587176 6.5041572158070959 15.436731283158473 #
point $-1 -46.569794593205572 6.5041572158070959 15.436731283158473 #
edge $-1 $639 1 $639 0 $372 $-1 forward 7 unknown #
vertex $-1 $373 $640 #
ellipse-curve $-1 -49.0119779376775 7.791242044859878 10.686609787378879 -0.78801076186113728 0 0.61566146476048833 0.30783073238024417 0 0.39400538093056864 1 I I #
point $-1 -49.492157967158391 7.791242044859878 11.696276633069937 #
edge $-1 $641 1 $641 0 $376 $-1 forward 7 unknown #
vertex $-1 $377 $642 #
ellipse-curve $-1 -49.0119779376775 9.7218692884390663 10.686609787378879 -0.78801076186113728 0 0.61566146476048833 0.30783073238024417 0 0.39400538093056864 1 I I #
point $-1 -49.492157967158391 9.7218692884390663 11.696276633069937 #
edge $-1 $643 1 $643 0 $380 $-1 forward 7 unknown #
vertex $-1 $381 $644 #
ellipse-curve $-1 -49.0119779376775 11.652496532018247 10.686609787378879 -0.78801076186113728 0 0.61566146476048833 0.30783073238024417 0 0.39400538093056864 1 I I #
point $-1 -49.492157967158391 11.652496532018247 11.696276633069937 #
loop $-1 $-1 $392 $384 #
plane-surface $-1 53.03018280587176 0 0 -1 0 0 0 0 1 forward_v I I I I #
coedge $-1 $539 $387 $389 $543 reversed $259 $-1 #
coedge $-1 $387 $538 $645 $646 reversed $259 $-1 #
coedge $-1 $395 $390 $387 $541 forward $385 $-1 #
edge $-1 $544 3.2370820032271226 $647 5.8433901015873033 $540 $648 forward 7 unknown #
coedge $-1 $389 $388 $547 $649 reversed $163 $-1 #
edge $-1 $650 -106.06036561174351 $544 -100.68442408032962 $538 $651 forward 7 unknown #
vertex $-1 $391 $652 #
straight-curve $-1 50.423874707511573 4.7099543673198454 15.436731283158473 0 -1 0 I I #
coedge $-1 $645 $392 $395 $551 reversed $536 $-1 #
coedge $-1 $392 $645 $542 $649 forward $536 $-1 #
vertex $-1 $393 $653 #
straight-curve $-1 53.03018280587176 12.939581361071046 77.45819883498767 0 0 1 I I #
straight-curve $-1 1.611098689414149 12.939581361071046 103.49731355351771 0.48480960649040278 0 -0.87461971476443456 I I #
edge $-1 $647 5.9002361082083361 $396 12.939581361071046 $546 $654 forward 7 unknown #
point $-1 53.03018280587176 12.939581361071046 15.436731283158473 #
point $-1 50.42387470751158 12.939581361071046 15.436731283158466 #
edge $-1 $655 1 $655 0 $399 $-1 forward 7 unknown #
vertex $-1 $400 $656 #
ellipse-curve $-1 48.953800676462151 7.9114776090262495 11.548553689165288 0.87461971476443456 0 0.48480960649040278 0.48480960649040278 0 -0.87461971476443456 1 I I #
point $-1 52.211838363182068 7.9114776090262495 12.211159343996281 #
edge $-1 $657 1 $657 0 $403 $-1 forward 7 unknown #
vertex $-1 $404 $658 #
ellipse-curve $-1 48.953800676462151 10.928339860253125 11.548553689165288 0.87461971476443456 0 0.48480960649040278 0.48480960649040278 0 -0.87461971476443456 1 I I #
point $-1 52.211838363182068 10.928339860253125 12.211159343996281 #
plane-surface $-1 53.03018280587176 0 0 -1 0 0 0 0 1 forward_v I I I I #
coedge $-1 $412 $410 $414 $567 reversed $281 $-1 #
edge $-1 $425 -15.436731283158473 $569 15.436731283158473 $424 $659 forward 7 unknown #
vertex $-1 $567 $660 #
straight-curve $-1 -53.03018280587176 -33.188896293117267 0 0 0 -1 I I #
edge $-1 $565 -33.188896293117267 $569 33.188896293117267 $563 $661 forward 7 unknown #
straight-curve $-1 0 -33.188896293117267 -15.436731283158473 -1 0 0 I I #
vertex $-1 $417 $662 #
straight-curve $-1 0 33.188896293117267 -15.436731283158473 1 0 0 I I #
point $-1 53.03018280587176 33.188896293117267 -15.436731283158473 #
point $-1 53.03018280587176 -33.188896293117267 -15.436731283158473 #
straight-curve $-1 -53.03018280587176 0 15.436731283158473 0 -1 0 I I #
point $-1 -53.03018280587176 33.188896293117267 15.436731283158473 #
point $-1 -53.03018280587176 -33.188896293117267 15.436731283158473 #
straight-curve $-1 53.03018280587176 -33.188896293117267 0 0 0 -1 I I #
straight-curve $-1 53.03018280587176 33.188896293117267 0 0 0 -1 I I #
plane-surface $-1 53.03018280587176 0 0 -1 0 0 0 0 1 forward_v I I I I #
coedge $-1 $590 $581 $580 $663 forward $435 $-1 #
coedge $-1 $438 $437 $579 $663 reversed $185 $-1 #
coedge $-1 $579 $664 $439 $582 reversed $435 $-1 #
edge $-1 $583 -53.03018280587176 $586 53.03018280587176 $581 $665 forward 7 unknown #
vertex $-1 $440 $666 #
straight-curve $-1 -53.03018280587176 0 15.436731283158473 0 -1 0 I I #
coedge $-1 $447 $441 $664 $667 forward $448 $-1 #
vertex $-1 $442 $668 #
straight-curve $-1 53.03018280587176 0 15.436731283158473 0 1 0 I I #
point $-1 53.03018280587176 -33.188896293117267 15.436731283158473 #
point $-1 -53.03018280587176 -33.188896293117267 15.436731283158473 #
coedge $-1 $664 $579 $450 $591 reversed $435 $-1 #
edge $-1 $592 -53.03018280587176 $594 53.03018280587176 $590 $669 forward 7 unknown #
vertex $-1 $667 $670 #
straight-curve $-1 53.03018280587176 -43.313553759140383 11.49498713062126 0 -1 0 I I #
vertex $-1 $452 $671 #
straight-curve $-1 -53.03018280587176 -43.313553759140383 11.49498713062126 0 1 0 I I #
plane-surface $-1 -53.03018280587176 0 0 1 0 0 0 0 -1 forward_v I I I I #
coedge $-1 $672 $458 $459 $600 reversed $316 $-1 #
coedge $-1 $458 $672 $603 $673 reversed $316 $-1 #
edge $-1 $604 -1.9708720762686074 $601 1.9708720762686074 $461 $674 forward 7 unknown #
edge $-1 $612 -53.03018280587176 $601 53.03018280587176 $597 $675 forward 7 unknown #
vertex $-1 $460 $676 #
straight-curve $-1 53.03018280587176 43.313553759140376 11.49498713062126 0 -1 0 I I #
coedge $-1 $607 $462 $598 $673 forward $456 $-1 #
vertex $-1 $463 $677 #
straight-curve $-1 53.03018280587176 0 15.436731283158473 0 1 0 I I #
point $-1 53.03018280587176 33.188896293117267 15.436731283158473 #
coedge $-1 $466 $603 $468 $610 forward $456 $-1 #
straight-curve $-1 0 33.188896293117267 15.436731283158473 1 0 0 I I #
coedge $-1 $469 $468 $672 $678 forward $470 $-1 #
edge $-1 $679 -53.438211225163492 $471 -33.188896293117267 $468 $680 forward 7 unknown #
point $-1 -53.03018280587176 33.188896293117267 15.436731283158473 #
vertex $-1 $600 $681 #
straight-curve $-1 -53.03018280587176 43.313553759140376 11.49498713062126 0 1 0 I I #
edge $-1 $615 20.795814350181139 $618 29.064734412219288 $477 $682 forward 7 unknown #
vertex $-1 $491 $683 #
straight-curve $-1 -68.303446157426279 1.7763568394002505e-015 15.436731283158473 -1 0 0 I I #
edge $-1 $618 -1.6088560363159861 $488 4.8265681089479546 $487 $684 forward 7 unknown #
vertex $-1 $617 $685 #
straight-curve $-1 -53.030182805871789 1.7763568394002505e-015 7.1678112211202887 0.61566146476048833 0 0.78801076186113728 I I #
point $-1 -46.569794593205572 1.7763568394002505e-015 15.436731283158473 #
point $-1 -53.03018280587176 -6.4354241452639389 7.1678112211203251 #
straight-curve $-1 -53.03018280587176 0 15.436731283158473 0 -1 0 I I #
vertex $-1 $494 $686 #
point $-1 -48.704147205297261 -5.1483393162111533 11.080615168309448 #
vertex $-1 $498 $687 #
point $-1 -48.704147205297261 -3.2177120726319686 11.080615168309448 #
vertex $-1 $502 $688 #
point $-1 -48.704147205297261 -1.2870848290527839 11.080615168309448 #
coedge $-1 $517 $516 $509 $630 forward $506 $-1 #
edge $-1 $631 20.795814350181139 $634 29.064734412219288 $629 $689 forward 7 unknown #
vertex $-1 $521 $690 #
straight-curve $-1 -68.303446157426279 12.939581361071037 15.436731283158473 -1 0 0 I I #
edge $-1 $634 -8.0786467168515035 $518 -1.6432225715875628 $517 $691 forward 7 unknown #
vertex $-1 $633 $692 #
straight-curve $-1 -53.030182805871789 12.939581361071037 7.1678112211202887 0.61566146476048833 0 0.78801076186113728 I I #
point $-1 -46.569794593205572 12.939581361071037 15.436731283158473 #
point $-1 -53.03018280587176 6.5041572158070959 7.1678112211203251 #
straight-curve $-1 -53.03018280587176 0 15.436731283158473 0 -1 0 I I #
vertex $-1 $524 $693 #
point $-1 -48.704147205297261 7.791242044859878 11.080615168309448 #
vertex $-1 $528 $694 #
point $-1 -48.704147205297261 9.7218692884390663 11.080615168309448 #
vertex $-1 $532 $695 #
point $-1 -48.704147205297261 11.652496532018247 11.080615168309448 #
coedge $-1 $547 $546 $539 $646 forward $536 $-1 #
edge $-1 $647 62.021467551829197 $650 66.723372000624693 $645 $696 forward 7 unknown #
vertex $-1 $551 $697 #
straight-curve $-1 47.186792704284457 5.9002361082083361 15.43673128315848 1 0 0 I I #
edge $-1 $650 1.1902817408884907 $548 8.2296269937512001 $547 $698 forward 7 unknown #
vertex $-1 $649 $699 #
straight-curve $-1 1.611098689414149 5.9002361082083361 103.49731355351771 -0.48480960649040278 0 0.87461971476443456 I I #
point $-1 50.42387470751158 5.9002361082083361 15.436731283158466 #
point $-1 53.03018280587176 12.939581361071046 10.734826834362977 #
straight-curve $-1 53.03018280587176 0 15.436731283158473 0 1 0 I I #
vertex $-1 $554 $700 #
point $-1 49.438610282952553 7.9114776090262495 10.673933974400855 #
vertex $-1 $558 $701 #
point $-1 49.438610282952553 10.928339860253125 10.673933974400855 #
straight-curve $-1 -53.03018280587176 33.188896293117267 0 0 0 -1 I I #
point $-1 -53.03018280587176 -33.188896293117267 -15.436731283158473 #
straight-curve $-1 -53.03018280587176 0 -15.436731283158473 0 1 0 I I #
point $-1 -53.03018280587176 33.188896293117267 -15.436731283158473 #
edge $-1 $583 -1.9708720762686074 $594 1.9708720762686074 $580 $702 forward 7 unknown #
coedge $-1 $581 $590 $585 $667 reversed $435 $-1 #
straight-curve $-1 0 -53.438211225163499 15.436731283158474 1 0 0 I I #
point $-1 -53.03018280587176 -53.438211225163499 15.436731283158474 #
edge $-1 $586 -1.9708720762686074 $592 1.9708720762686074 $585 $703 forward 7 unknown #
point $-1 53.03018280587176 -53.438211225163499 15.436731283158474 #
straight-curve $-1 0 -53.438211225163499 11.49498713062126 -1 0 0 I I #
point $-1 53.03018280587176 -53.438211225163499 11.49498713062126 #
point $-1 -53.03018280587176 -53.438211225163499 11.49498713062126 #
coedge $-1 $598 $597 $609 $678 reversed $316 $-1 #
edge $-1 $604 -53.03018280587176 $679 53.03018280587176 $598 $704 forward 7 unknown #
straight-curve $-1 53.03018280587176 53.438211225163492 13.465859206889867 0 0 -1 I I #
straight-curve $-1 0 53.438211225163492 11.49498713062126 1 0 0 I I #
point $-1 53.03018280587176 53.438211225163492 11.49498713062126 #
point $-1 53.03018280587176 53.438211225163492 15.436731283158474 #
edge $-1 $679 -1.9708720762686074 $612 1.9708720762686074 $672 $705 forward 7 unknown #
vertex $-1 $673 $706 #
straight-curve $-1 -53.03018280587176 0 15.436731283158473 0 -1 0 I I #
point $-1 -53.03018280587176 53.438211225163492 11.49498713062126 #
straight-curve $-1 -53.03018280587176 1.7763568394002505e-015 36.232545633339612 0 0 -1 I I #
point $-1 -53.03018280587176 1.7763568394002505e-015 15.436731283158473 #
straight-curve $-1 -53.03018280587176 -1.6088560363159843 7.1678112211203278 0 -1 0 I I #
point $-1 -53.03018280587176 1.7763568394002505e-015 7.1678112211203251 #
point $-1 -48.617972556746935 -5.1483393162111533 10.378779054998637 #
point $-1 -48.617972556746935 -3.2177120726319686 10.378779054998637 #
point $-1 -48.617972556746935 -1.2870848290527839 10.378779054998637 #
straight-curve $-1 -53.03018280587176 12.939581361071037 36.232545633339612 0 0 -1 I I #
point $-1 -53.03018280587176 12.939581361071037 15.436731283158473 #
straight-curve $-1 -53.03018280587176 4.8609346442195331 7.1678112211203278 0 -1 0 I I #
point $-1 -53.03018280587176 12.939581361071037 7.1678112211203251 #
point $-1 -48.617972556746935 7.791242044859878 10.378779054998637 #
point $-1 -48.617972556746935 9.7218692884390663 10.378779054998637 #
point $-1 -48.617972556746935 11.652496532018247 10.378779054998637 #
straight-curve $-1 53.03018280587176 5.9002361082083361 77.45819883498767 0 0 -1 I I #
point $-1 53.03018280587176 5.9002361082083361 15.436731283158473 #
straight-curve $-1 53.03018280587176 4.7099543673198454 10.73482683436297 0 1 0 I I #
point $-1 53.03018280587176 5.9002361082083361 10.734826834362977 #
point $-1 48.079180961697716 7.9114776090262495 11.063744082674887 #
point $-1 48.079180961697716 10.928339860253125 11.063744082674887 #
straight-curve $-1 -53.03018280587176 -53.438211225163499 13.465859206889867 0 0 -1 I I #
straight-curve $-1 53.03018280587176 -53.438211225163499 13.465859206889867 0 0 -1 I I #
straight-curve $-1 0 53.438211225163492 15.436731283158474 -1 0 0 I I #
straight-curve $-1 -53.03018280587176 53.438211225163492 13.465859206889867 0 0 -1 I I #
point $-1 -53.03018280587176 53.438211225163492 15.436731283158474 #
End-of-ACIS-data 