500 0 8 0           
7 Unknown 11 ACIS 5.0 NT 24 Fri Mar 26 02:03:38 1999 
-1 9.9999999999999995e-007 1e-010 
body $-1 $8 $-1 $9 #
body $-1 $10 $-1 $11 #
body $-1 $12 $-1 $13 #
body $-1 $14 $-1 $15 #
body $-1 $16 $-1 $17 #
body $-1 $18 $-1 $19 #
body $-1 $20 $-1 $21 #
body $-1 $22 $-1 $23 #
lump $-1 $-1 $24 $0 #
transform $-1 1 0 0 0 1 0 0 0 1 76.782128360850862 46.163008060989235 14.494144817415794 1 rotate no_reflect no_shear #
lump $-1 $-1 $25 $1 #
transform $-1 1 0 0 0 1 0 0 0 1 -7.5390210314363326 46.163008060989235 26.971884130812608 1 rotate no_reflect no_shear #
lump $-1 $-1 $26 $2 #
transform $-1 1 0 0 0 1 0 0 0 1 161.10327775313806 46.163008060989235 26.971884130812608 1 rotate no_reflect no_shear #
lump $-1 $-1 $27 $3 #
transform $-1 1 0 0 0 0.74314481823134659 -0.66913061440640931 0 0.66913061440640931 0.74314481823134659 106.55405373992392 126.46896110404224 191.53564517690097 1 rotate no_reflect no_shear #
lump $-1 $-1 $28 $4 #
transform $-1 1 0 0 0 -0.74314481823134659 0.66913061440640931 0 -0.66913061440640931 -0.74314481823134659 106.55405373992392 82.324535195904403 19.439016771811957 1 rotate no_reflect no_shear #
lump $-1 $-1 $29 $5 #
transform $-1 1 0 0 0 0.54463902268945019 0.83867057594974714 0 -0.83867057594974714 0.54463902268945019 32.941852416231548 -128.78982363008441 105.11744899885861 1 rotate no_reflect no_shear #
lump $-1 $-1 $30 $6 #
transform $-1 1 0 0 0 -0.54463902268945019 -0.83867057594974714 0 0.83867057594974714 -0.54463902268945019 25.285933693363454 5.7321945805147649 23.094955229662496 1 rotate no_reflect no_shear #
lump $-1 $-1 $31 $7 #
transform $-1 1 0 0 0 -0.54463902268945019 -0.83867057594974714 0 0.83867057594974714 -0.54463902268945019 40.597771139099635 5.7321945805147649 23.094955229662496 1 rotate no_reflect no_shear #
shell $-1 $-1 $-1 $32 $-1 $8 #
shell $-1 $-1 $-1 $33 $-1 $10 #
shell $-1 $-1 $-1 $34 $-1 $12 #
shell $-1 $-1 $-1 $35 $-1 $14 #
shell $-1 $-1 $-1 $36 $-1 $16 #
shell $-1 $-1 $-1 $37 $-1 $18 #
shell $-1 $-1 $-1 $38 $-1 $20 #
shell $-1 $-1 $-1 $39 $-1 $22 #
face $-1 $40 $41 $24 $-1 $42 forward single #
face $-1 $43 $44 $25 $-1 $45 forward single #
face $-1 $46 $47 $26 $-1 $48 forward single #
face $-1 $49 $50 $27 $-1 $51 forward single #
face $-1 $52 $53 $28 $-1 $54 forward single #
face $-1 $55 $56 $29 $-1 $57 forward single #
face $-1 $58 $59 $30 $-1 $60 forward single #
face $-1 $61 $62 $31 $-1 $63 forward single #
face $-1 $64 $65 $24 $-1 $66 reversed single #
loop $-1 $-1 $67 $32 #
plane-surface $-1 0 0 14.494144817415794 0 0 1 1 0 0 forward_v I I I I #
face $-1 $68 $69 $25 $-1 $70 reversed single #
loop $-1 $-1 $71 $33 #
plane-surface $-1 0 0 2.0164055040189801 0 0 1 1 0 0 forward_v I I I I #
face $-1 $72 $73 $26 $-1 $74 reversed single #
loop $-1 $-1 $75 $34 #
plane-surface $-1 0 0 2.0164055040189801 0 0 1 1 0 0 forward_v I I I I #
face $-1 $76 $77 $27 $-1 $78 reversed single #
loop $-1 $-1 $79 $35 #
plane-surface $-1 0 0 153.56425672170172 0 0 1 1 0 0 forward_v I I I I #
face $-1 $80 $81 $28 $-1 $82 forward single #
loop $-1 $83 $84 $36 #
cone-surface $-1 0 0 -2.4334238715781122 0 0 1 2 0 0 1 I I 0 1 2 forward I I I I #
face $-1 $85 $86 $29 $-1 $87 reversed single #
loop $-1 $-1 $88 $37 #
plane-surface $-1 0 0 153.56425672170172 0 0 1 1 0 0 forward_v I I I I #
face $-1 $89 $90 $30 $-1 $91 forward single #
loop $-1 $92 $93 $38 #
cone-surface $-1 0 0 -2.2140263069551693 0 0 1 1 0 0 1 I I 0 1 1 forward I I I I #
face $-1 $94 $95 $31 $-1 $96 forward single #
loop $-1 $97 $98 $39 #
cone-surface $-1 0 0 -2.2140263069551693 0 0 1 1 0 0 1 I I 0 1 1 forward I I I I #
face $-1 $99 $100 $24 $-1 $101 reversed single #
loop $-1 $-1 $102 $40 #
plane-surface $-1 0 0 -14.494144817415794 0 0 1 1 0 0 forward_v I I I I #
coedge $-1 $103 $104 $105 $106 forward $41 $-1 #
face $-1 $107 $108 $25 $-1 $109 reversed single #
loop $-1 $-1 $110 $43 #
plane-surface $-1 0 0 -2.0164055040189801 0 0 1 1 0 0 forward_v I I I I #
coedge $-1 $111 $112 $113 $114 forward $44 $-1 #
face $-1 $115 $116 $26 $-1 $117 reversed single #
loop $-1 $-1 $118 $46 #
plane-surface $-1 0 0 -2.0164055040189801 0 0 1 1 0 0 forward_v I I I I #
coedge $-1 $119 $120 $121 $122 forward $47 $-1 #
face $-1 $123 $124 $27 $-1 $125 reversed single #
loop $-1 $-1 $126 $49 #
plane-surface $-1 0 0 -153.56425672170172 0 0 1 1 0 0 forward_v I I I I #
coedge $-1 $127 $128 $129 $130 forward $50 $-1 #
face $-1 $-1 $131 $28 $-1 $132 forward single #
loop $-1 $-1 $133 $52 #
plane-surface $-1 0 0 -3.8668477431562245 0 0 -1 -1 0 0 forward_v I I I I #
loop $-1 $-1 $134 $36 #
coedge $-1 $84 $84 $133 $135 reversed $53 $-1 #
face $-1 $136 $137 $29 $-1 $138 reversed single #
loop $-1 $-1 $139 $55 #
plane-surface $-1 0 0 -153.56425672170172 0 0 1 1 0 0 forward_v I I I I #
coedge $-1 $140 $141 $142 $143 forward $56 $-1 #
face $-1 $-1 $144 $30 $-1 $145 forward single #
loop $-1 $-1 $146 $58 #
plane-surface $-1 0 0 -3.9280526139103369 0 0 -1 -1 0 0 forward_v I I I I #
loop $-1 $-1 $147 $38 #
coedge $-1 $93 $93 $146 $148 reversed $59 $-1 #
face $-1 $-1 $149 $31 $-1 $150 forward single #
loop $-1 $-1 $151 $61 #
plane-surface $-1 0 0 -3.9280526139103369 0 0 -1 -1 0 0 forward_v I I I I #
loop $-1 $-1 $152 $39 #
coedge $-1 $98 $98 $151 $153 reversed $62 $-1 #
face $-1 $154 $155 $24 $-1 $156 reversed single #
loop $-1 $-1 $157 $64 #
plane-surface $-1 0 -46.163008060989235 0 0 1 0 0 0 1 forward_v I I I I #
coedge $-1 $158 $159 $160 $161 forward $65 $-1 #
coedge $-1 $162 $67 $163 $164 forward $41 $-1 #
coedge $-1 $67 $162 $165 $166 forward $41 $-1 #
coedge $-1 $167 $168 $67 $106 reversed $169 $-1 #
edge $-1 $170 -46.163008060989235 $171 46.163008060989235 $105 $172 forward 7 unknown #
face $-1 $173 $174 $25 $-1 $175 reversed single #
loop $-1 $-1 $176 $68 #
plane-surface $-1 0 -46.163008060989235 0 0 1 0 0 0 1 forward_v I I I I #
coedge $-1 $177 $178 $179 $180 forward $69 $-1 #
coedge $-1 $181 $71 $182 $183 forward $44 $-1 #
coedge $-1 $71 $181 $184 $185 forward $44 $-1 #
coedge $-1 $186 $187 $71 $114 reversed $188 $-1 #
edge $-1 $189 -46.163008060989235 $190 46.163008060989235 $113 $191 forward 7 unknown #
face $-1 $192 $193 $26 $-1 $194 reversed single #
loop $-1 $-1 $195 $72 #
plane-surface $-1 0 -46.163008060989235 0 0 1 0 0 0 1 forward_v I I I I #
coedge $-1 $196 $197 $198 $199 forward $73 $-1 #
coedge $-1 $200 $75 $201 $202 forward $47 $-1 #
coedge $-1 $75 $200 $203 $204 forward $47 $-1 #
coedge $-1 $205 $206 $75 $122 reversed $207 $-1 #
edge $-1 $208 -46.163008060989235 $209 46.163008060989235 $121 $210 forward 7 unknown #
face $-1 $211 $212 $27 $-1 $213 reversed single #
loop $-1 $-1 $214 $76 #
plane-surface $-1 0 -307.12851344340345 0 0 1 0 0 0 1 forward_v I I I I #
coedge $-1 $215 $216 $217 $218 forward $77 $-1 #
coedge $-1 $219 $79 $220 $221 forward $50 $-1 #
coedge $-1 $79 $219 $222 $223 forward $50 $-1 #
coedge $-1 $224 $225 $79 $130 reversed $226 $-1 #
edge $-1 $227 -307.12851344340345 $228 307.12851344340345 $129 $229 forward 7 unknown #
loop $-1 $230 $231 $80 #
cone-surface $-1 0 0 0 0 0 1 1 0 0 1 I I -0.70710678118654746 0.70710678118654746 1 forward I I I I #
coedge $-1 $133 $133 $84 $135 forward $81 $-1 #
coedge $-1 $134 $134 $231 $232 forward $83 $-1 #
edge $-1 $233 0 $233 6.2831853071796004 $133 $234 forward 7 unknown #
face $-1 $235 $236 $29 $-1 $237 reversed single #
loop $-1 $-1 $238 $85 #
plane-surface $-1 0 -307.12851344340345 0 0 1 0 0 0 1 forward_v I I I I #
coedge $-1 $239 $240 $241 $242 forward $86 $-1 #
coedge $-1 $243 $88 $244 $245 forward $56 $-1 #
coedge $-1 $88 $243 $246 $247 forward $56 $-1 #
coedge $-1 $248 $249 $88 $143 reversed $250 $-1 #
edge $-1 $251 -307.12851344340345 $252 307.12851344340345 $142 $253 forward 7 unknown #
loop $-1 $254 $255 $89 #
cone-surface $-1 0 0 0 0 0 1 0.5 0 0 1 I I -0.70710678118654624 0.70710678118654879 0.5 forward I I I I #
coedge $-1 $146 $146 $93 $148 forward $90 $-1 #
coedge $-1 $147 $147 $255 $256 forward $92 $-1 #
edge $-1 $257 0 $257 6.2831853071796004 $146 $258 forward 7 unknown #
loop $-1 $259 $260 $94 #
cone-surface $-1 0 0 0 0 0 1 0.5 0 0 1 I I -0.70710678118654624 0.70710678118654879 0.5 forward I I I I #
coedge $-1 $151 $151 $98 $153 forward $95 $-1 #
coedge $-1 $152 $152 $260 $261 forward $97 $-1 #
edge $-1 $262 0 $262 6.2831853071796004 $151 $263 forward 7 unknown #
face $-1 $264 $265 $24 $-1 $266 reversed single #
loop $-1 $-1 $267 $99 #
plane-surface $-1 -76.782128360850862 0 0 1 0 0 0 0 -1 forward_v I I I I #
coedge $-1 $268 $165 $269 $270 forward $100 $-1 #
coedge $-1 $271 $102 $268 $272 forward $65 $-1 #
coedge $-1 $102 $271 $273 $274 forward $65 $-1 #
coedge $-1 $168 $167 $102 $161 reversed $169 $-1 #
edge $-1 $275 -46.163008060989235 $276 46.163008060989235 $160 $277 forward 7 unknown #
coedge $-1 $104 $103 $278 $279 forward $41 $-1 #
coedge $-1 $280 $281 $103 $164 reversed $265 $-1 #
edge $-1 $171 -76.782128360850862 $282 76.782128360850862 $163 $283 forward 7 unknown #
coedge $-1 $157 $284 $104 $166 reversed $100 $-1 #
edge $-1 $285 -76.782128360850862 $170 76.782128360850862 $165 $286 forward 7 unknown #
coedge $-1 $160 $105 $284 $287 forward $169 $-1 #
coedge $-1 $105 $160 $280 $288 reversed $169 $-1 #
loop $-1 $-1 $167 $264 #
vertex $-1 $106 $289 #
vertex $-1 $106 $290 #
straight-curve $-1 76.782128360850862 0 14.494144817415794 0 1 0 I I #
face $-1 $291 $292 $25 $-1 $293 reversed single #
loop $-1 $-1 $294 $107 #
plane-surface $-1 -7.5390210314363326 0 0 1 0 0 0 0 -1 forward_v I I I I #
coedge $-1 $295 $184 $296 $297 forward $108 $-1 #
coedge $-1 $298 $110 $295 $299 forward $69 $-1 #
coedge $-1 $110 $298 $300 $301 forward $69 $-1 #
coedge $-1 $187 $186 $110 $180 reversed $188 $-1 #
edge $-1 $302 -46.163008060989235 $303 46.163008060989235 $179 $304 forward 7 unknown #
coedge $-1 $112 $111 $305 $306 forward $44 $-1 #
coedge $-1 $307 $308 $111 $183 reversed $292 $-1 #
edge $-1 $190 -7.5390210314363326 $309 7.5390210314363326 $182 $310 forward 7 unknown #
coedge $-1 $176 $311 $112 $185 reversed $108 $-1 #
edge $-1 $312 -7.5390210314363326 $189 7.5390210314363326 $184 $313 forward 7 unknown #
coedge $-1 $179 $113 $311 $314 forward $188 $-1 #
coedge $-1 $113 $179 $307 $315 reversed $188 $-1 #
loop $-1 $-1 $186 $291 #
vertex $-1 $114 $316 #
vertex $-1 $114 $317 #
straight-curve $-1 7.5390210314363326 0 2.0164055040189801 0 1 0 I I #
face $-1 $318 $319 $26 $-1 $320 reversed single #
loop $-1 $-1 $321 $115 #
plane-surface $-1 -7.5390210314363344 0 0 1 0 0 0 0 -1 forward_v I I I I #
coedge $-1 $322 $203 $323 $324 forward $116 $-1 #
coedge $-1 $325 $118 $322 $326 forward $73 $-1 #
coedge $-1 $118 $325 $327 $328 forward $73 $-1 #
coedge $-1 $206 $205 $118 $199 reversed $207 $-1 #
edge $-1 $329 -46.163008060989235 $330 46.163008060989235 $198 $331 forward 7 unknown #
coedge $-1 $120 $119 $332 $333 forward $47 $-1 #
coedge $-1 $334 $335 $119 $202 reversed $319 $-1 #
edge $-1 $209 -7.5390210314363344 $336 7.5390210314363344 $201 $337 forward 7 unknown #
coedge $-1 $195 $338 $120 $204 reversed $116 $-1 #
edge $-1 $339 -7.5390210314363344 $208 7.5390210314363344 $203 $340 forward 7 unknown #
coedge $-1 $198 $121 $338 $341 forward $207 $-1 #
coedge $-1 $121 $198 $334 $342 reversed $207 $-1 #
loop $-1 $-1 $205 $318 #
vertex $-1 $122 $343 #
vertex $-1 $122 $344 #
straight-curve $-1 7.5390210314363344 0 2.0164055040189801 0 1 0 I I #
face $-1 $345 $346 $27 $-1 $347 reversed single #
loop $-1 $-1 $348 $123 #
plane-surface $-1 -9.1555252898385646 0 0 1 0 0 0 0 -1 forward_v I I I I #
coedge $-1 $349 $222 $350 $351 forward $124 $-1 #
coedge $-1 $352 $126 $349 $353 forward $77 $-1 #
coedge $-1 $126 $352 $354 $355 forward $77 $-1 #
coedge $-1 $225 $224 $126 $218 reversed $226 $-1 #
edge $-1 $356 -307.12851344340345 $357 307.12851344340345 $217 $358 forward 7 unknown #
coedge $-1 $128 $127 $359 $360 forward $50 $-1 #
coedge $-1 $361 $362 $127 $221 reversed $346 $-1 #
edge $-1 $228 -9.1555252898385646 $363 9.1555252898385646 $220 $364 forward 7 unknown #
coedge $-1 $214 $365 $128 $223 reversed $124 $-1 #
edge $-1 $366 -9.1555252898385646 $227 9.1555252898385646 $222 $367 forward 7 unknown #
coedge $-1 $217 $129 $365 $368 forward $226 $-1 #
coedge $-1 $129 $217 $361 $369 reversed $226 $-1 #
loop $-1 $-1 $224 $345 #
vertex $-1 $130 $370 #
vertex $-1 $130 $371 #
straight-curve $-1 9.1555252898385646 0 153.56425672170172 0 1 0 I I #
loop $-1 $-1 $372 $80 #
coedge $-1 $231 $231 $134 $232 reversed $131 $-1 #
edge $-1 $373 0 $373 6.2831853071796004 $231 $374 forward 7 unknown #
vertex $-1 $135 $375 #
ellipse-curve $-1 0 0 -3.8668477431562245 0 0 -1 2 0 0 1 I I #
face $-1 $376 $377 $29 $-1 $378 reversed single #
loop $-1 $-1 $379 $136 #
plane-surface $-1 -17.863810353358879 0 0 1 0 0 0 0 -1 forward_v I I I I #
coedge $-1 $380 $246 $381 $382 forward $137 $-1 #
coedge $-1 $383 $139 $380 $384 forward $86 $-1 #
coedge $-1 $139 $383 $385 $386 forward $86 $-1 #
coedge $-1 $249 $248 $139 $242 reversed $250 $-1 #
edge $-1 $387 -307.12851344340345 $388 307.12851344340345 $241 $389 forward 7 unknown #
coedge $-1 $141 $140 $390 $391 forward $56 $-1 #
coedge $-1 $392 $393 $140 $245 reversed $377 $-1 #
edge $-1 $252 -17.863810353358879 $394 17.863810353358879 $244 $395 forward 7 unknown #
coedge $-1 $238 $396 $141 $247 reversed $137 $-1 #
edge $-1 $397 -17.863810353358879 $251 17.863810353358879 $246 $398 forward 7 unknown #
coedge $-1 $241 $142 $396 $399 forward $250 $-1 #
coedge $-1 $142 $241 $392 $400 reversed $250 $-1 #
loop $-1 $-1 $248 $376 #
vertex $-1 $143 $401 #
vertex $-1 $143 $402 #
straight-curve $-1 17.863810353358879 0 153.56425672170172 0 1 0 I I #
loop $-1 $-1 $403 $89 #
coedge $-1 $255 $255 $147 $256 reversed $144 $-1 #
edge $-1 $404 0 $404 6.2831853071796004 $255 $405 forward 7 unknown #
vertex $-1 $148 $406 #
ellipse-curve $-1 0 0 -3.9280526139103369 0 0 -1 1 0 0 1 I I #
loop $-1 $-1 $407 $94 #
coedge $-1 $260 $260 $152 $261 reversed $149 $-1 #
edge $-1 $408 0 $408 6.2831853071796004 $260 $409 forward 7 unknown #
vertex $-1 $153 $410 #
ellipse-curve $-1 0 0 -3.9280526139103369 0 0 -1 1 0 0 1 I I #
face $-1 $-1 $169 $24 $-1 $411 reversed single #
loop $-1 $-1 $280 $154 #
plane-surface $-1 0 46.163008060989235 0 0 -1 0 0 0 -1 forward_v I I I I #
coedge $-1 $412 $278 $281 $413 forward $155 $-1 #
coedge $-1 $284 $157 $158 $272 reversed $100 $-1 #
coedge $-1 $278 $412 $157 $270 reversed $155 $-1 #
edge $-1 $285 -14.494144817415794 $414 14.494144817415794 $269 $415 forward 7 unknown #
coedge $-1 $159 $158 $412 $416 forward $65 $-1 #
edge $-1 $276 -76.782128360850862 $414 76.782128360850862 $268 $417 forward 7 unknown #
coedge $-1 $281 $280 $159 $274 reversed $265 $-1 #
edge $-1 $418 -76.782128360850862 $275 76.782128360850862 $273 $419 forward 7 unknown #
vertex $-1 $161 $420 #
vertex $-1 $287 $421 #
straight-curve $-1 76.782128360850862 0 -14.494144817415794 0 -1 0 I I #
coedge $-1 $267 $269 $162 $279 reversed $155 $-1 #
edge $-1 $282 -46.163008060989235 $285 46.163008060989235 $278 $422 forward 7 unknown #
coedge $-1 $273 $163 $168 $288 forward $265 $-1 #
coedge $-1 $163 $273 $267 $413 reversed $265 $-1 #
vertex $-1 $164 $423 #
straight-curve $-1 0 46.163008060989235 14.494144817415794 -1 0 0 I I #
coedge $-1 $165 $268 $167 $287 reversed $100 $-1 #
vertex $-1 $279 $424 #
straight-curve $-1 0 -46.163008060989235 14.494144817415794 1 0 0 I I #
edge $-1 $170 -14.494144817415794 $276 14.494144817415794 $167 $425 forward 7 unknown #
edge $-1 $171 -14.494144817415794 $275 14.494144817415794 $168 $426 forward 7 unknown #
point $-1 76.782128360850862 -46.163008060989235 14.494144817415794 #
point $-1 76.782128360850862 46.163008060989235 14.494144817415794 #
face $-1 $-1 $188 $25 $-1 $427 reversed single #
loop $-1 $-1 $307 $173 #
plane-surface $-1 0 46.163008060989235 0 0 -1 0 0 0 -1 forward_v I I I I #
coedge $-1 $428 $305 $308 $429 forward $174 $-1 #
coedge $-1 $311 $176 $177 $299 reversed $108 $-1 #
coedge $-1 $305 $428 $176 $297 reversed $174 $-1 #
edge $-1 $312 -2.0164055040189801 $430 2.0164055040189801 $296 $431 forward 7 unknown #
coedge $-1 $178 $177 $428 $432 forward $69 $-1 #
edge $-1 $303 -7.5390210314363326 $430 7.5390210314363326 $295 $433 forward 7 unknown #
coedge $-1 $308 $307 $178 $301 reversed $292 $-1 #
edge $-1 $434 -7.5390210314363326 $302 7.5390210314363326 $300 $435 forward 7 unknown #
vertex $-1 $180 $436 #
vertex $-1 $314 $437 #
straight-curve $-1 7.5390210314363326 0 -2.0164055040189801 0 -1 0 I I #
coedge $-1 $294 $296 $181 $306 reversed $174 $-1 #
edge $-1 $309 -46.163008060989235 $312 46.163008060989235 $305 $438 forward 7 unknown #
coedge $-1 $300 $182 $187 $315 forward $292 $-1 #
coedge $-1 $182 $300 $294 $429 reversed $292 $-1 #
vertex $-1 $183 $439 #
straight-curve $-1 0 46.163008060989235 2.0164055040189801 -1 0 0 I I #
coedge $-1 $184 $295 $186 $314 reversed $108 $-1 #
vertex $-1 $306 $440 #
straight-curve $-1 0 -46.163008060989235 2.0164055040189801 1 0 0 I I #
edge $-1 $189 -2.0164055040189801 $303 2.0164055040189801 $186 $441 forward 7 unknown #
edge $-1 $190 -2.0164055040189801 $302 2.0164055040189801 $187 $442 forward 7 unknown #
point $-1 7.5390210314363326 -46.163008060989235 2.0164055040189801 #
point $-1 7.5390210314363326 46.163008060989235 2.0164055040189801 #
face $-1 $-1 $207 $26 $-1 $443 reversed single #
loop $-1 $-1 $334 $192 #
plane-surface $-1 0 46.163008060989235 0 0 -1 0 0 0 -1 forward_v I I I I #
coedge $-1 $444 $332 $335 $445 forward $193 $-1 #
coedge $-1 $338 $195 $196 $326 reversed $116 $-1 #
coedge $-1 $332 $444 $195 $324 reversed $193 $-1 #
edge $-1 $339 -2.0164055040189801 $446 2.0164055040189801 $323 $447 forward 7 unknown #
coedge $-1 $197 $196 $444 $448 forward $73 $-1 #
edge $-1 $330 -7.5390210314363344 $446 7.5390210314363344 $322 $449 forward 7 unknown #
coedge $-1 $335 $334 $197 $328 reversed $319 $-1 #
edge $-1 $450 -7.5390210314363344 $329 7.5390210314363344 $327 $451 forward 7 unknown #
vertex $-1 $199 $452 #
vertex $-1 $341 $453 #
straight-curve $-1 7.5390210314363344 0 -2.0164055040189801 0 -1 0 I I #
coedge $-1 $321 $323 $200 $333 reversed $193 $-1 #
edge $-1 $336 -46.163008060989235 $339 46.163008060989235 $332 $454 forward 7 unknown #
coedge $-1 $327 $201 $206 $342 forward $319 $-1 #
coedge $-1 $201 $327 $321 $445 reversed $319 $-1 #
vertex $-1 $202 $455 #
straight-curve $-1 0 46.163008060989235 2.0164055040189801 -1 0 0 I I #
coedge $-1 $203 $322 $205 $341 reversed $116 $-1 #
vertex $-1 $333 $456 #
straight-curve $-1 0 -46.163008060989235 2.0164055040189801 1 0 0 I I #
edge $-1 $208 -2.0164055040189801 $330 2.0164055040189801 $205 $457 forward 7 unknown #
edge $-1 $209 -2.0164055040189801 $329 2.0164055040189801 $206 $458 forward 7 unknown #
point $-1 7.5390210314363344 -46.163008060989235 2.0164055040189801 #
point $-1 7.5390210314363344 46.163008060989235 2.0164055040189801 #
face $-1 $-1 $226 $27 $-1 $459 reversed single #
loop $-1 $-1 $361 $211 #
plane-surface $-1 0 307.12851344340345 0 0 -1 0 0 0 -1 forward_v I I I I #
coedge $-1 $460 $359 $362 $461 forward $212 $-1 #
coedge $-1 $365 $214 $215 $353 reversed $124 $-1 #
coedge $-1 $359 $460 $214 $351 reversed $212 $-1 #
edge $-1 $366 -153.56425672170172 $462 153.56425672170172 $350 $463 forward 7 unknown #
coedge $-1 $216 $215 $460 $464 forward $77 $-1 #
edge $-1 $357 -9.1555252898385646 $462 9.1555252898385646 $349 $465 forward 7 unknown #
coedge $-1 $362 $361 $216 $355 reversed $346 $-1 #
edge $-1 $466 -9.1555252898385646 $356 9.1555252898385646 $354 $467 forward 7 unknown #
vertex $-1 $218 $468 #
vertex $-1 $368 $469 #
straight-curve $-1 9.1555252898385646 0 -153.56425672170172 0 -1 0 I I #
coedge $-1 $348 $350 $219 $360 reversed $212 $-1 #
edge $-1 $363 -307.12851344340345 $366 307.12851344340345 $359 $470 forward 7 unknown #
coedge $-1 $354 $220 $225 $369 forward $346 $-1 #
coedge $-1 $220 $354 $348 $461 reversed $346 $-1 #
vertex $-1 $221 $471 #
straight-curve $-1 0 307.12851344340345 153.56425672170172 -1 0 0 I I #
coedge $-1 $222 $349 $224 $368 reversed $124 $-1 #
vertex $-1 $360 $472 #
straight-curve $-1 0 -307.12851344340345 153.56425672170172 1 0 0 I I #
edge $-1 $227 -153.56425672170172 $357 153.56425672170172 $224 $473 forward 7 unknown #
edge $-1 $228 -153.56425672170172 $356 153.56425672170172 $225 $474 forward 7 unknown #
point $-1 9.1555252898385646 -307.12851344340345 153.56425672170172 #
point $-1 9.1555252898385646 307.12851344340345 153.56425672170172 #
coedge $-1 $372 $372 $-1 $475 reversed $230 $-1 #
vertex $-1 $232 $476 #
ellipse-curve $-1 0 0 -1 0 0 -1 2 0 0 1 I I #
point $-1 2 0 -3.8668477431562245 #
face $-1 $-1 $250 $29 $-1 $477 reversed single #
loop $-1 $-1 $392 $235 #
plane-surface $-1 0 307.12851344340345 0 0 -1 0 0 0 -1 forward_v I I I I #
coedge $-1 $478 $390 $393 $479 forward $236 $-1 #
coedge $-1 $396 $238 $239 $384 reversed $137 $-1 #
coedge $-1 $390 $478 $238 $382 reversed $236 $-1 #
edge $-1 $397 -153.56425672170172 $480 153.56425672170172 $381 $481 forward 7 unknown #
coedge $-1 $240 $239 $478 $482 forward $86 $-1 #
edge $-1 $388 -17.863810353358879 $480 17.863810353358879 $380 $483 forward 7 unknown #
coedge $-1 $393 $392 $240 $386 reversed $377 $-1 #
edge $-1 $484 -17.863810353358879 $387 17.863810353358879 $385 $485 forward 7 unknown #
vertex $-1 $242 $486 #
vertex $-1 $399 $487 #
straight-curve $-1 17.863810353358879 0 -153.56425672170172 0 -1 0 I I #
coedge $-1 $379 $381 $243 $391 reversed $236 $-1 #
edge $-1 $394 -307.12851344340345 $397 307.12851344340345 $390 $488 forward 7 unknown #
coedge $-1 $385 $244 $249 $400 forward $377 $-1 #
coedge $-1 $244 $385 $379 $479 reversed $377 $-1 #
vertex $-1 $245 $489 #
straight-curve $-1 0 307.12851344340345 153.56425672170172 -1 0 0 I I #
coedge $-1 $246 $380 $248 $399 reversed $137 $-1 #
vertex $-1 $391 $490 #
straight-curve $-1 0 -307.12851344340345 153.56425672170172 1 0 0 I I #
edge $-1 $251 -153.56425672170172 $388 153.56425672170172 $248 $491 forward 7 unknown #
edge $-1 $252 -153.56425672170172 $387 153.56425672170172 $249 $492 forward 7 unknown #
point $-1 17.863810353358879 -307.12851344340345 153.56425672170172 #
point $-1 17.863810353358879 307.12851344340345 153.56425672170172 #
coedge $-1 $403 $403 $-1 $493 reversed $254 $-1 #
vertex $-1 $256 $494 #
ellipse-curve $-1 0 0 -0.50000000000000178 0 0 -1 1 0 0 1 I I #
point $-1 1 0 -3.9280526139103369 #
coedge $-1 $407 $407 $-1 $495 reversed $259 $-1 #
vertex $-1 $261 $496 #
ellipse-curve $-1 0 0 -0.50000000000000178 0 0 -1 1 0 0 1 I I #
point $-1 1 0 -3.9280526139103369 #
plane-surface $-1 76.782128360850862 0 0 -1 0 0 0 0 1 forward_v I I I I #
coedge $-1 $269 $267 $271 $416 reversed $155 $-1 #
edge $-1 $282 -14.494144817415794 $418 14.494144817415794 $281 $497 forward 7 unknown #
vertex $-1 $416 $498 #
straight-curve $-1 -76.782128360850862 -46.163008060989235 0 0 0 -1 I I #
edge $-1 $414 -46.163008060989235 $418 46.163008060989235 $412 $499 forward 7 unknown #
straight-curve $-1 0 -46.163008060989235 -14.494144817415794 -1 0 0 I I #
vertex $-1 $274 $500 #
straight-curve $-1 0 46.163008060989235 -14.494144817415794 1 0 0 I I #
point $-1 76.782128360850862 46.163008060989235 -14.494144817415794 #
point $-1 76.782128360850862 -46.163008060989235 -14.494144817415794 #
straight-curve $-1 -76.782128360850862 0 14.494144817415794 0 -1 0 I I #
point $-1 -76.782128360850862 46.163008060989235 14.494144817415794 #
point $-1 -76.782128360850862 -46.163008060989235 14.494144817415794 #
straight-curve $-1 76.782128360850862 -46.163008060989235 0 0 0 -1 I I #
straight-curve $-1 76.782128360850862 46.163008060989235 0 0 0 -1 I I #
plane-surface $-1 7.5390210314363326 0 0 -1 0 0 0 0 1 forward_v I I I I #
coedge $-1 $296 $294 $298 $432 reversed $174 $-1 #
edge $-1 $309 -2.0164055040189801 $434 2.0164055040189801 $308 $501 forward 7 unknown #
vertex $-1 $432 $502 #
straight-curve $-1 -7.5390210314363326 -46.163008060989235 0 0 0 -1 I I #
edge $-1 $430 -46.163008060989235 $434 46.163008060989235 $428 $503 forward 7 unknown #
straight-curve $-1 0 -46.163008060989235 -2.0164055040189801 -1 0 0 I I #
vertex $-1 $301 $504 #
straight-curve $-1 0 46.163008060989235 -2.0164055040189801 1 0 0 I I #
point $-1 7.5390210314363326 46.163008060989235 -2.0164055040189801 #
point $-1 7.5390210314363326 -46.163008060989235 -2.0164055040189801 #
straight-curve $-1 -7.5390210314363326 0 2.0164055040189801 0 -1 0 I I #
point $-1 -7.5390210314363326 46.163008060989235 2.0164055040189801 #
point $-1 -7.5390210314363326 -46.163008060989235 2.0164055040189801 #
straight-curve $-1 7.5390210314363326 -46.163008060989235 0 0 0 -1 I I #
straight-curve $-1 7.5390210314363326 46.163008060989235 0 0 0 -1 I I #
plane-surface $-1 7.5390210314363344 0 0 -1 0 0 0 0 1 forward_v I I I I #
coedge $-1 $323 $321 $325 $448 reversed $193 $-1 #
edge $-1 $336 -2.0164055040189801 $450 2.0164055040189801 $335 $505 forward 7 unknown #
vertex $-1 $448 $506 #
straight-curve $-1 -7.5390210314363344 -46.163008060989235 0 0 0 -1 I I #
edge $-1 $446 -46.163008060989235 $450 46.163008060989235 $444 $507 forward 7 unknown #
straight-curve $-1 0 -46.163008060989235 -2.0164055040189801 -1 0 0 I I #
vertex $-1 $328 $508 #
straight-curve $-1 0 46.163008060989235 -2.0164055040189801 1 0 0 I I #
point $-1 7.5390210314363344 46.163008060989235 -2.0164055040189801 #
point $-1 7.5390210314363344 -46.163008060989235 -2.0164055040189801 #
straight-curve $-1 -7.5390210314363344 0 2.0164055040189801 0 -1 0 I I #
point $-1 -7.5390210314363344 46.163008060989235 2.0164055040189801 #
point $-1 -7.5390210314363344 -46.163008060989235 2.0164055040189801 #
straight-curve $-1 7.5390210314363344 -46.163008060989235 0 0 0 -1 I I #
straight-curve $-1 7.5390210314363344 46.163008060989235 0 0 0 -1 I I #
plane-surface $-1 9.1555252898385646 0 0 -1 0 0 0 0 1 forward_v I I I I #
coedge $-1 $350 $348 $352 $464 reversed $212 $-1 #
edge $-1 $363 -153.56425672170172 $466 153.56425672170172 $362 $509 forward 7 unknown #
vertex $-1 $464 $510 #
straight-curve $-1 -9.1555252898385646 -307.12851344340345 0 0 0 -1 I I #
edge $-1 $462 -307.12851344340345 $466 307.12851344340345 $460 $511 forward 7 unknown #
straight-curve $-1 0 -307.12851344340345 -153.56425672170172 -1 0 0 I I #
vertex $-1 $355 $512 #
straight-curve $-1 0 307.12851344340345 -153.56425672170172 1 0 0 I I #
point $-1 9.1555252898385646 307.12851344340345 -153.56425672170172 #
point $-1 9.1555252898385646 -307.12851344340345 -153.56425672170172 #
straight-curve $-1 -9.1555252898385646 0 153.56425672170172 0 -1 0 I I #
point $-1 -9.1555252898385646 307.12851344340345 153.56425672170172 #
point $-1 -9.1555252898385646 -307.12851344340345 153.56425672170172 #
straight-curve $-1 9.1555252898385646 -307.12851344340345 0 0 0 -1 I I #
straight-curve $-1 9.1555252898385646 307.12851344340345 0 0 0 -1 I I #
edge $-1 $513 1 $513 0 $372 $-1 forward 7 unknown #
point $-1 2 0 -1 #
plane-surface $-1 17.863810353358879 0 0 -1 0 0 0 0 1 forward_v I I I I #
coedge $-1 $381 $379 $383 $482 reversed $236 $-1 #
edge $-1 $394 -153.56425672170172 $484 153.56425672170172 $393 $514 forward 7 unknown #
vertex $-1 $482 $515 #
straight-curve $-1 -17.863810353358879 -307.12851344340345 0 0 0 -1 I I #
edge $-1 $480 -307.12851344340345 $484 307.12851344340345 $478 $516 forward 7 unknown #
straight-curve $-1 0 -307.12851344340345 -153.56425672170172 -1 0 0 I I #
vertex $-1 $386 $517 #
straight-curve $-1 0 307.12851344340345 -153.56425672170172 1 0 0 I I #
point $-1 17.863810353358879 307.12851344340345 -153.56425672170172 #
point $-1 17.863810353358879 -307.12851344340345 -153.56425672170172 #
straight-curve $-1 -17.863810353358879 0 153.56425672170172 0 -1 0 I I #
point $-1 -17.863810353358879 307.12851344340345 153.56425672170172 #
point $-1 -17.863810353358879 -307.12851344340345 153.56425672170172 #
straight-curve $-1 17.863810353358879 -307.12851344340345 0 0 0 -1 I I #
straight-curve $-1 17.863810353358879 307.12851344340345 0 0 0 -1 I I #
edge $-1 $518 1 $518 0 $403 $-1 forward 7 unknown #
point $-1 1 0 -0.50000000000000178 #
edge $-1 $519 1 $519 0 $407 $-1 forward 7 unknown #
point $-1 1 0 -0.50000000000000178 #
straight-curve $-1 -76.782128360850862 46.163008060989235 0 0 0 -1 I I #
point $-1 -76.782128360850862 -46.163008060989235 -14.494144817415794 #
straight-curve $-1 -76.782128360850862 0 -14.494144817415794 0 1 0 I I #
point $-1 -76.782128360850862 46.163008060989235 -14.494144817415794 #
straight-curve $-1 -7.5390210314363326 46.163008060989235 0 0 0 -1 I I #
point $-1 -7.5390210314363326 -46.163008060989235 -2.0164055040189801 #
straight-curve $-1 -7.5390210314363326 0 -2.0164055040189801 0 1 0 I I #
point $-1 -7.5390210314363326 46.163008060989235 -2.0164055040189801 #
straight-curve $-1 -7.5390210314363344 46.163008060989235 0 0 0 -1 I I #
point $-1 -7.5390210314363344 -46.163008060989235 -2.0164055040189801 #
straight-curve $-1 -7.5390210314363344 0 -2.0164055040189801 0 1 0 I I #
point $-1 -7.5390210314363344 46.163008060989235 -2.0164055040189801 #
straight-curve $-1 -9.1555252898385646 307.12851344340345 0 0 0 -1 I I #
point $-1 -9.1555252898385646 -307.12851344340345 -153.56425672170172 #
straight-curve $-1 -9.1555252898385646 0 -153.56425672170172 0 1 0 I I #
point $-1 -9.1555252898385646 307.12851344340345 -153.56425672170172 #
vertex $-1 $475 $520 #
straight-curve $-1 -17.863810353358879 307.12851344340345 0 0 0 -1 I I #
point $-1 -17.863810353358879 -307.12851344340345 -153.56425672170172 #
straight-curve $-1 -17.863810353358879 0 -153.56425672170172 0 1 0 I I #
point $-1 -17.863810353358879 307.12851344340345 -153.56425672170172 #
vertex $-1 $493 $521 #
vertex $-1 $495 $522 #
point $-1 0 0 1 #
point $-1 0 0 0.50000000000000178 #
point $-1 0 0 0.50000000000000178 #
End-of-ACIS-data 