500 0 15 0           
7 Unknown 11 ACIS 5.0 NT 24 Fri Mar 26 17:17:49 1999 
-1 9.9999999999999995e-007 1e-010 
body $-1 $15 $-1 $16 #
body $-1 $17 $-1 $18 #
body $-1 $19 $-1 $20 #
body $-1 $21 $-1 $22 #
body $-1 $23 $-1 $24 #
body $-1 $25 $-1 $26 #
body $-1 $27 $-1 $28 #
body $-1 $29 $-1 $30 #
body $-1 $31 $-1 $32 #
body $-1 $33 $-1 $34 #
body $-1 $35 $-1 $36 #
body $-1 $37 $-1 $38 #
body $-1 $39 $-1 $40 #
body $-1 $41 $-1 $42 #
body $-1 $43 $-1 $44 #
lump $-1 $-1 $45 $0 #
transform $-1 1 0 0 0 1 0 0 0 1 44.832911160618913 28.936636092556942 11.776620093761805 1 rotate no_reflect no_shear #
lump $-1 $-1 $46 $1 #
transform $-1 1 0 0 0 1 0 0 0 1 44.832911160618913 28.936636092556942 11.776620093761805 1 rotate no_reflect no_shear #
lump $-1 $-1 $47 $2 #
transform $-1 1 0 0 0 1 0 0 0 1 44.832911160618913 28.936636092556942 11.776620093761805 1 rotate no_reflect no_shear #
lump $-1 $-1 $48 $3 #
transform $-1 1 0 0 0 1 0 0 0 1 44.832911160618913 28.936636092556942 11.776620093761805 1 rotate no_reflect no_shear #
lump $-1 $-1 $49 $4 #
transform $-1 1 0 0 0 1 0 0 0 1 44.832911160618913 28.936636092556942 11.776620093761805 1 rotate no_reflect no_shear #
lump $-1 $-1 $50 $5 #
transform $-1 1 0 0 0 1 0 0 0 1 44.832911160618913 28.936636092556942 11.776620093761805 1 rotate no_reflect no_shear #
lump $-1 $-1 $51 $6 #
transform $-1 1 0 0 0 1 0 0 0 1 44.832911160618913 28.936636092556942 11.776620093761805 1 rotate no_reflect no_shear #
lump $-1 $-1 $52 $7 #
transform $-1 1 0 0 0 1 0 0 0 1 44.832911160618913 28.936636092556942 11.776620093761805 1 rotate no_reflect no_shear #
lump $-1 $-1 $53 $8 #
transform $-1 1 0 0 0 1 0 0 0 1 44.832911160618913 28.936636092556942 11.776620093761805 1 rotate no_reflect no_shear #
lump $-1 $-1 $54 $9 #
transform $-1 1 0 0 0 1 0 0 0 1 44.832911160618913 28.936636092556942 11.776620093761805 1 rotate no_reflect no_shear #
lump $-1 $-1 $55 $10 #
transform $-1 1 0 0 0 1 0 0 0 1 44.832911160618913 28.936636092556942 11.776620093761805 1 rotate no_reflect no_shear #
lump $-1 $-1 $56 $11 #
transform $-1 1 0 0 0 1 0 0 0 1 44.832911160618913 28.936636092556942 11.776620093761805 1 rotate no_reflect no_shear #
lump $-1 $-1 $57 $12 #
transform $-1 1 0 0 0 1 0 0 0 1 44.832911160618913 28.936636092556942 11.776620093761805 1 rotate no_reflect no_shear #
lump $-1 $-1 $58 $13 #
transform $-1 1 0 0 0 1 0 0 0 1 44.832911160618913 28.936636092556942 11.776620093761805 1 rotate no_reflect no_shear #
lump $-1 $-1 $59 $14 #
transform $-1 1 0 0 0 1 0 0 0 1 44.832911160618913 28.936636092556942 11.776620093761805 1 rotate no_reflect no_shear #
shell $-1 $-1 $-1 $60 $-1 $15 #
shell $-1 $-1 $-1 $61 $-1 $17 #
shell $-1 $-1 $-1 $62 $-1 $19 #
shell $-1 $-1 $-1 $63 $-1 $21 #
shell $-1 $-1 $-1 $64 $-1 $23 #
shell $-1 $-1 $-1 $65 $-1 $25 #
shell $-1 $-1 $-1 $66 $-1 $27 #
shell $-1 $-1 $-1 $67 $-1 $29 #
shell $-1 $-1 $-1 $68 $-1 $31 #
shell $-1 $-1 $-1 $69 $-1 $33 #
shell $-1 $-1 $-1 $70 $-1 $35 #
shell $-1 $-1 $-1 $71 $-1 $37 #
shell $-1 $-1 $-1 $72 $-1 $39 #
shell $-1 $-1 $-1 $73 $-1 $41 #
shell $-1 $-1 $-1 $74 $-1 $43 #
face $-1 $75 $76 $45 $-1 $77 forward single #
face $-1 $78 $79 $46 $-1 $80 forward single #
face $-1 $81 $82 $47 $-1 $83 forward single #
face $-1 $84 $85 $48 $-1 $86 reversed single #
face $-1 $87 $88 $49 $-1 $89 forward single #
face $-1 $90 $91 $50 $-1 $92 forward single #
face $-1 $93 $94 $51 $-1 $95 reversed single #
face $-1 $96 $97 $52 $-1 $98 forward single #
face $-1 $99 $100 $53 $-1 $101 forward single #
face $-1 $102 $103 $54 $-1 $104 reversed single #
face $-1 $105 $106 $55 $-1 $107 forward single #
face $-1 $108 $109 $56 $-1 $110 forward single #
face $-1 $111 $112 $57 $-1 $113 reversed single #
face $-1 $114 $115 $58 $-1 $116 forward single #
face $-1 $117 $118 $59 $-1 $119 forward single #
face $-1 $120 $121 $45 $-1 $122 reversed single #
loop $-1 $-1 $123 $60 #
plane-surface $-1 0 0 11.776620093761805 0 0 1 1 0 0 forward_v I I I I #
face $-1 $124 $125 $46 $-1 $126 reversed single #
loop $-1 $-1 $127 $61 #
plane-surface $-1 0 -24.647217776488137 5.7765200843854583 0 0 1 1 0 0 forward_v I I I I #
face $-1 $128 $129 $47 $-1 $130 reversed single #
loop $-1 $-1 $131 $62 #
plane-surface $-1 0 24.647217776488137 5.7765200843854583 0 0 1 1 0 0 forward_v I I I I #
face $-1 $132 $133 $48 $-1 $134 reversed single #
loop $-1 $-1 $135 $63 #
plane-surface $-1 -115.4905441208829 -12.75278670048743 60.374355622225806 0 -1 0 0.78801076186113728 0 -0.61566146476048833 forward_v I I I I #
face $-1 $136 $137 $49 $-1 $138 forward single #
loop $-1 $139 $140 $64 #
cone-surface $-1 -41.831464982475666 -18.184938671867361 8.1447974658627746 0.78801076186113728 0 -0.61566146476048833 0.30783073238024417 0 0.39400538093056864 1 I I 0 1 0.5 forward I I I I #
face $-1 $141 $142 $50 $-1 $143 forward single #
loop $-1 $144 $145 $65 #
cone-surface $-1 -41.831464982475666 -14.925647489039402 8.1447974658627746 0.78801076186113728 0 -0.61566146476048833 0.30783073238024417 0 0.39400538093056864 1 I I 0 1 0.5 forward I I I I #
face $-1 $146 $147 $51 $-1 $148 reversed single #
loop $-1 $-1 $149 $66 #
plane-surface $-1 -115.4905441208829 0 60.374355622225806 0 1 0 -0.78801076186113728 0 0.61566146476048833 forward_v I I I I #
face $-1 $150 $151 $52 $-1 $152 forward single #
loop $-1 $153 $154 $67 #
cone-surface $-1 -41.831464982475666 2.1728607885519722 8.1447974658627746 0.78801076186113728 0 -0.61566146476048833 0.30783073238024417 0 0.39400538093056864 1 I I 0 1 0.5 forward I I I I #
face $-1 $155 $156 $53 $-1 $157 forward single #
loop $-1 $158 $159 $68 #
cone-surface $-1 -41.831464982475666 5.432151971379934 8.1447974658627746 0.78801076186113728 0 -0.61566146476048833 0.30783073238024417 0 0.39400538093056864 1 I I 0 1 0.5 forward I I I I #
face $-1 $160 $161 $54 $-1 $162 reversed single #
loop $-1 $-1 $163 $69 #
plane-surface $-1 60.286752611635926 -12.75278670048743 131.03198858248979 0 -1 0 -0.78801076186113728 0 -0.61566146476048833 forward_v I I I I #
face $-1 $164 $165 $55 $-1 $166 forward single #
loop $-1 $167 $168 $70 #
cone-surface $-1 41.831464982475666 -18.184938671867361 8.1447974658627746 -0.78801076186113728 0 -0.61566146476048833 0.30783073238024417 0 -0.39400538093056864 1 I I 0 1 0.5 forward I I I I #
face $-1 $169 $170 $56 $-1 $171 forward single #
loop $-1 $172 $173 $71 #
cone-surface $-1 41.831464982475666 -14.925647489039402 8.1447974658627746 -0.78801076186113728 0 -0.61566146476048833 0.30783073238024417 0 -0.39400538093056864 1 I I 0 1 0.5 forward I I I I #
face $-1 $174 $175 $57 $-1 $176 reversed single #
loop $-1 $-1 $177 $72 #
plane-surface $-1 60.286752611635926 7.6050127599319026 131.03198858248979 0 -1 0 -0.78801076186113728 0 -0.61566146476048833 forward_v I I I I #
face $-1 $178 $179 $58 $-1 $180 forward single #
loop $-1 $181 $182 $73 #
cone-surface $-1 41.831464982475666 2.1728607885519722 8.1447974658627746 -0.78801076186113728 0 -0.61566146476048833 0.30783073238024417 0 -0.39400538093056864 1 I I 0 1 0.5 forward I I I I #
face $-1 $183 $184 $59 $-1 $185 forward single #
loop $-1 $186 $187 $74 #
cone-surface $-1 41.831464982475666 5.432151971379934 8.1447974658627746 -0.78801076186113728 0 -0.61566146476048833 0.30783073238024417 0 -0.39400538093056864 1 I I 0 1 0.5 forward I I I I #
face $-1 $188 $189 $45 $-1 $190 reversed single #
loop $-1 $-1 $191 $75 #
plane-surface $-1 0 0 -11.776620093761805 0 0 1 1 0 0 forward_v I I I I #
coedge $-1 $192 $193 $194 $195 forward $76 $-1 #
face $-1 $196 $197 $46 $-1 $198 reversed single #
loop $-1 $-1 $199 $78 #
plane-surface $-1 0 -24.647217776488137 0.99765699839304922 0 0 1 1 0 0 forward_v I I I I #
coedge $-1 $200 $201 $202 $203 reversed $79 $-1 #
face $-1 $204 $205 $47 $-1 $206 reversed single #
loop $-1 $-1 $207 $81 #
plane-surface $-1 0 24.647217776488137 0.99765699839304922 0 0 1 1 0 0 forward_v I I I I #
coedge $-1 $208 $209 $210 $211 reversed $82 $-1 #
face $-1 $212 $213 $48 $-1 $214 forward single #
loop $-1 $-1 $215 $84 #
plane-surface $-1 -44.83291116061892 -16.555293080453382 5.1705641129788376 -0.78801076186113728 0 0.61566146476048833 0.61566146476048833 0 0.78801076186113728 forward_v I I I I #
coedge $-1 $216 $217 $218 $219 reversed $85 $-1 #
face $-1 $-1 $220 $49 $-1 $221 forward single #
loop $-1 $222 $223 $87 #
cone-surface $-1 -41.213624335392488 -18.184938671867361 7.6620874621650987 0.78801076186113728 0 -0.61566146476048833 0.15391536619012208 0 0.19700269046528432 1 I I -0.70710678118654746 0.70710678118654746 0.25 forward I I I I #
loop $-1 $-1 $224 $64 #
coedge $-1 $140 $140 $225 $226 reversed $88 $-1 #
face $-1 $-1 $227 $50 $-1 $228 forward single #
loop $-1 $229 $230 $90 #
cone-surface $-1 -41.213624335392488 -14.925647489039402 7.6620874621650987 0.78801076186113728 0 -0.61566146476048833 0.15391536619012208 0 0.19700269046528432 1 I I -0.70710678118654746 0.70710678118654746 0.25 forward I I I I #
loop $-1 $-1 $231 $65 #
coedge $-1 $145 $145 $232 $233 reversed $91 $-1 #
face $-1 $234 $235 $51 $-1 $236 reversed single #
loop $-1 $-1 $237 $93 #
plane-surface $-1 -44.83291116061892 3.8025063799659513 5.1705641129788376 -0.78801076186113728 0 0.61566146476048833 0.61566146476048833 0 0.78801076186113728 forward_v I I I I #
coedge $-1 $238 $239 $240 $241 reversed $94 $-1 #
face $-1 $-1 $242 $52 $-1 $243 forward single #
loop $-1 $244 $245 $96 #
cone-surface $-1 -41.213624335392488 2.1728607885519722 7.6620874621650987 0.78801076186113728 0 -0.61566146476048833 0.15391536619012208 0 0.19700269046528432 1 I I -0.70710678118654746 0.70710678118654746 0.25 forward I I I I #
loop $-1 $-1 $246 $67 #
coedge $-1 $154 $154 $247 $248 reversed $97 $-1 #
face $-1 $-1 $249 $53 $-1 $250 forward single #
loop $-1 $251 $252 $99 #
cone-surface $-1 -41.213624335392488 5.432151971379934 7.6620874621650987 0.78801076186113728 0 -0.61566146476048833 0.15391536619012208 0 0.19700269046528432 1 I I -0.70710678118654746 0.70710678118654746 0.25 forward I I I I #
loop $-1 $-1 $253 $68 #
coedge $-1 $159 $159 $254 $255 reversed $100 $-1 #
face $-1 $256 $257 $54 $-1 $258 reversed single #
loop $-1 $-1 $259 $102 #
plane-surface $-1 -10.370880348628056 -16.555293080453382 75.828197073242819 0.78801076186113728 0 0.61566146476048833 0.61566146476048833 0 -0.78801076186113728 forward_v I I I I #
coedge $-1 $260 $261 $262 $263 reversed $103 $-1 #
face $-1 $-1 $264 $55 $-1 $265 forward single #
loop $-1 $266 $267 $105 #
cone-surface $-1 41.213624335392488 -18.184938671867361 7.6620874621650987 -0.78801076186113728 0 -0.61566146476048833 0.15391536619012208 0 -0.19700269046528432 1 I I -0.70710678118654746 0.70710678118654746 0.25 forward I I I I #
loop $-1 $-1 $268 $70 #
coedge $-1 $168 $168 $269 $270 reversed $106 $-1 #
face $-1 $-1 $271 $56 $-1 $272 forward single #
loop $-1 $273 $274 $108 #
cone-surface $-1 41.213624335392488 -14.925647489039402 7.6620874621650987 -0.78801076186113728 0 -0.61566146476048833 0.15391536619012208 0 -0.19700269046528432 1 I I -0.70710678118654746 0.70710678118654746 0.25 forward I I I I #
loop $-1 $-1 $275 $71 #
coedge $-1 $173 $173 $276 $277 reversed $109 $-1 #
face $-1 $278 $279 $57 $-1 $280 reversed single #
loop $-1 $-1 $281 $111 #
plane-surface $-1 -10.370880348628056 3.8025063799659513 75.828197073242819 0.78801076186113728 0 0.61566146476048833 0.61566146476048833 0 -0.78801076186113728 forward_v I I I I #
coedge $-1 $282 $283 $284 $285 reversed $112 $-1 #
face $-1 $-1 $286 $58 $-1 $287 forward single #
loop $-1 $288 $289 $114 #
cone-surface $-1 41.213624335392488 2.1728607885519722 7.6620874621650987 -0.78801076186113728 0 -0.61566146476048833 0.15391536619012208 0 -0.19700269046528432 1 I I -0.70710678118654746 0.70710678118654746 0.25 forward I I I I #
loop $-1 $-1 $290 $73 #
coedge $-1 $182 $182 $291 $292 reversed $115 $-1 #
face $-1 $-1 $293 $59 $-1 $294 forward single #
loop $-1 $295 $296 $117 #
cone-surface $-1 41.213624335392488 5.432151971379934 7.6620874621650987 -0.78801076186113728 0 -0.61566146476048833 0.15391536619012208 0 -0.19700269046528432 1 I I -0.70710678118654746 0.70710678118654746 0.25 forward I I I I #
loop $-1 $-1 $297 $74 #
coedge $-1 $187 $187 $298 $299 reversed $118 $-1 #
face $-1 $300 $301 $45 $-1 $302 reversed single #
loop $-1 $-1 $303 $120 #
plane-surface $-1 0 -28.936636092556942 0 0 1 0 0 0 1 forward_v I I I I #
coedge $-1 $304 $305 $306 $307 forward $121 $-1 #
coedge $-1 $308 $123 $309 $310 forward $76 $-1 #
coedge $-1 $123 $308 $311 $312 forward $76 $-1 #
coedge $-1 $313 $314 $123 $195 reversed $315 $-1 #
edge $-1 $316 -28.936636092556942 $317 28.936636092556942 $194 $318 forward 7 unknown #
face $-1 $319 $320 $46 $-1 $321 reversed single #
loop $-1 $-1 $322 $124 #
plane-surface $-1 0 -20.357799460419333 3.3870885413892537 0 -1 0 0 0 -1 forward_v I I I I #
coedge $-1 $323 $324 $325 $326 reversed $125 $-1 #
coedge $-1 $327 $127 $328 $329 forward $79 $-1 #
coedge $-1 $127 $327 $330 $331 reversed $79 $-1 #
coedge $-1 $332 $333 $127 $203 forward $334 $-1 #
edge $-1 $335 8.0341905721752642 $336 16.613027204312871 $202 $337 forward 7 unknown #
face $-1 $338 $339 $47 $-1 $340 reversed single #
loop $-1 $-1 $341 $128 #
plane-surface $-1 0 20.357799460419333 3.3870885413892537 0 1 0 0 0 1 forward_v I I I I #
coedge $-1 $342 $343 $344 $345 reversed $129 $-1 #
coedge $-1 $346 $131 $347 $348 reversed $82 $-1 #
coedge $-1 $131 $346 $349 $350 forward $82 $-1 #
coedge $-1 $351 $352 $131 $211 forward $339 $-1 #
edge $-1 $353 -16.613027204312871 $354 -8.0341905721752642 $210 $355 forward 7 unknown #
face $-1 $356 $357 $48 $-1 $358 reversed single #
loop $-1 $-1 $359 $132 #
plane-surface $-1 0 0 11.776620093761805 0 0 1 1 0 0 forward_v I I I I #
coedge $-1 $360 $361 $362 $363 reversed $133 $-1 #
coedge $-1 $217 $135 $364 $365 reversed $85 $-1 #
coedge $-1 $135 $216 $360 $366 reversed $85 $-1 #
coedge $-1 $362 $367 $135 $219 forward $357 $-1 #
edge $-1 $368 18.410557717351097 $369 25.016613698134059 $218 $370 forward 7 unknown #
loop $-1 $-1 $225 $136 #
plane-surface $-1 -44.83291116061892 -16.555293080453382 5.1705641129788376 -0.78801076186113728 0 0.61566146476048833 0.61566146476048833 0 0.78801076186113728 forward_v I I I I #
loop $-1 $-1 $371 $87 #
coedge $-1 $223 $223 $224 $372 reversed $137 $-1 #
coedge $-1 $224 $224 $223 $372 forward $139 $-1 #
coedge $-1 $225 $225 $140 $226 forward $220 $-1 #
edge $-1 $373 0 $373 6.2831853071796004 $225 $374 forward 7 unknown #
loop $-1 $-1 $232 $141 #
plane-surface $-1 -44.83291116061892 -16.555293080453382 5.1705641129788376 -0.78801076186113728 0 0.61566146476048833 0.61566146476048833 0 0.78801076186113728 forward_v I I I I #
loop $-1 $-1 $375 $90 #
coedge $-1 $230 $230 $231 $376 reversed $142 $-1 #
coedge $-1 $231 $231 $230 $376 forward $144 $-1 #
coedge $-1 $232 $232 $145 $233 forward $227 $-1 #
edge $-1 $377 0 $377 6.2831853071796004 $232 $378 forward 7 unknown #
face $-1 $379 $380 $51 $-1 $381 reversed single #
loop $-1 $-1 $382 $146 #
plane-surface $-1 -115.4905441208829 7.6050127599319026 60.374355622225806 0 -1 0 0.78801076186113728 0 -0.61566146476048833 forward_v I I I I #
coedge $-1 $383 $384 $385 $386 reversed $147 $-1 #
coedge $-1 $239 $149 $387 $388 reversed $94 $-1 #
coedge $-1 $149 $238 $383 $389 reversed $94 $-1 #
coedge $-1 $385 $390 $149 $241 forward $391 $-1 #
edge $-1 $392 12.912360899822538 $393 18.07357734287325 $240 $394 forward 7 unknown #
loop $-1 $-1 $247 $150 #
plane-surface $-1 -44.83291116061892 3.8025063799659513 5.1705641129788376 -0.78801076186113728 0 0.61566146476048833 0.61566146476048833 0 0.78801076186113728 forward_v I I I I #
loop $-1 $-1 $395 $96 #
coedge $-1 $245 $245 $246 $396 reversed $151 $-1 #
coedge $-1 $246 $246 $245 $396 forward $153 $-1 #
coedge $-1 $247 $247 $154 $248 forward $242 $-1 #
edge $-1 $397 0 $397 6.2831853071796004 $247 $398 forward 7 unknown #
loop $-1 $-1 $254 $155 #
plane-surface $-1 -44.83291116061892 3.8025063799659513 5.1705641129788376 -0.78801076186113728 0 0.61566146476048833 0.61566146476048833 0 0.78801076186113728 forward_v I I I I #
loop $-1 $-1 $399 $99 #
coedge $-1 $252 $252 $253 $400 reversed $156 $-1 #
coedge $-1 $253 $253 $252 $400 forward $158 $-1 #
coedge $-1 $254 $254 $159 $255 forward $249 $-1 #
edge $-1 $401 0 $401 6.2831853071796004 $254 $402 forward 7 unknown #
face $-1 $403 $404 $54 $-1 $405 forward single #
loop $-1 $-1 $406 $160 #
plane-surface $-1 44.832911160618913 0 0 -1 0 0 0 0 1 forward_v I I I I #
coedge $-1 $407 $408 $409 $410 reversed $161 $-1 #
coedge $-1 $261 $163 $411 $412 reversed $103 $-1 #
coedge $-1 $163 $260 $407 $413 reversed $103 $-1 #
coedge $-1 $409 $414 $163 $263 forward $415 $-1 #
edge $-1 $416 -14.68953485480095 $417 -9.5283184117502238 $262 $418 forward 7 unknown #
loop $-1 $-1 $269 $164 #
plane-surface $-1 -10.370880348628056 -16.555293080453382 75.828197073242819 0.78801076186113728 0 0.61566146476048833 0.61566146476048833 0 -0.78801076186113728 forward_v I I I I #
loop $-1 $-1 $419 $105 #
coedge $-1 $267 $267 $268 $420 reversed $165 $-1 #
coedge $-1 $268 $268 $267 $420 forward $167 $-1 #
coedge $-1 $269 $269 $168 $270 forward $264 $-1 #
edge $-1 $421 0 $421 6.2831853071796004 $269 $422 forward 7 unknown #
loop $-1 $-1 $276 $169 #
plane-surface $-1 -10.370880348628056 -16.555293080453382 75.828197073242819 0.78801076186113728 0 0.61566146476048833 0.61566146476048833 0 -0.78801076186113728 forward_v I I I I #
loop $-1 $-1 $423 $108 #
coedge $-1 $274 $274 $275 $424 reversed $170 $-1 #
coedge $-1 $275 $275 $274 $424 forward $172 $-1 #
coedge $-1 $276 $276 $173 $277 forward $271 $-1 #
edge $-1 $425 0 $425 6.2831853071796004 $276 $426 forward 7 unknown #
face $-1 $427 $428 $57 $-1 $429 forward single #
loop $-1 $-1 $430 $174 #
plane-surface $-1 60.286752611635926 0 131.03198858248979 0 1 0 0.78801076186113728 0 0.61566146476048833 forward_v I I I I #
coedge $-1 $431 $432 $433 $434 reversed $175 $-1 #
coedge $-1 $283 $177 $435 $436 reversed $112 $-1 #
coedge $-1 $177 $282 $431 $437 reversed $112 $-1 #
coedge $-1 $433 $438 $177 $285 forward $428 $-1 #
edge $-1 $439 -14.68953485480095 $440 -9.5283184117502238 $284 $441 forward 7 unknown #
loop $-1 $-1 $291 $178 #
plane-surface $-1 -10.370880348628056 3.8025063799659513 75.828197073242819 0.78801076186113728 0 0.61566146476048833 0.61566146476048833 0 -0.78801076186113728 forward_v I I I I #
loop $-1 $-1 $442 $114 #
coedge $-1 $289 $289 $290 $443 reversed $179 $-1 #
coedge $-1 $290 $290 $289 $443 forward $181 $-1 #
coedge $-1 $291 $291 $182 $292 forward $286 $-1 #
edge $-1 $444 0 $444 6.2831853071796004 $291 $445 forward 7 unknown #
loop $-1 $-1 $298 $183 #
plane-surface $-1 -10.370880348628056 3.8025063799659513 75.828197073242819 0.78801076186113728 0 0.61566146476048833 0.61566146476048833 0 -0.78801076186113728 forward_v I I I I #
loop $-1 $-1 $446 $117 #
coedge $-1 $296 $296 $297 $447 reversed $184 $-1 #
coedge $-1 $297 $297 $296 $447 forward $186 $-1 #
coedge $-1 $298 $298 $187 $299 forward $293 $-1 #
edge $-1 $448 0 $448 6.2831853071796004 $298 $449 forward 7 unknown #
face $-1 $450 $451 $45 $-1 $452 reversed single #
loop $-1 $-1 $453 $188 #
plane-surface $-1 -44.832911160618913 0 0 1 0 0 0 0 -1 forward_v I I I I #
coedge $-1 $454 $311 $455 $456 forward $189 $-1 #
coedge $-1 $457 $191 $454 $458 forward $121 $-1 #
coedge $-1 $191 $457 $459 $460 forward $121 $-1 #
coedge $-1 $314 $313 $191 $307 reversed $315 $-1 #
edge $-1 $461 -28.936636092556942 $462 28.936636092556942 $306 $463 forward 7 unknown #
coedge $-1 $193 $192 $464 $465 forward $76 $-1 #
coedge $-1 $466 $467 $192 $310 reversed $451 $-1 #
edge $-1 $317 -44.832911160618913 $468 44.832911160618913 $309 $469 forward 7 unknown #
coedge $-1 $303 $470 $193 $312 reversed $189 $-1 #
edge $-1 $471 -44.832911160618913 $316 44.832911160618913 $311 $472 forward 7 unknown #
coedge $-1 $306 $194 $470 $473 forward $315 $-1 #
coedge $-1 $194 $306 $466 $474 reversed $315 $-1 #
loop $-1 $-1 $313 $450 #
vertex $-1 $195 $475 #
vertex $-1 $195 $476 #
straight-curve $-1 44.832911160618913 0 11.776620093761805 0 1 0 I I #
face $-1 $477 $478 $46 $-1 $479 reversed single #
loop $-1 $-1 $480 $196 #
plane-surface $-1 -44.832911160618913 0 0 1 0 0 0 0 -1 forward_v I I I I #
coedge $-1 $481 $328 $333 $482 reversed $197 $-1 #
coedge $-1 $483 $199 $484 $485 reversed $125 $-1 #
coedge $-1 $199 $483 $481 $486 forward $125 $-1 #
coedge $-1 $333 $332 $199 $326 forward $334 $-1 #
edge $-1 $487 -16.613027204312871 $488 -8.0341905721752642 $325 $489 forward 7 unknown #
coedge $-1 $201 $200 $480 $490 reversed $79 $-1 #
coedge $-1 $322 $491 $200 $329 reversed $197 $-1 #
edge $-1 $335 -44.832911160618913 $492 44.832911160618913 $328 $493 forward 7 unknown #
coedge $-1 $494 $495 $201 $331 forward $478 $-1 #
edge $-1 $336 -44.832911160618913 $496 44.832911160618913 $330 $497 forward 7 unknown #
coedge $-1 $325 $202 $495 $498 forward $334 $-1 #
coedge $-1 $202 $325 $322 $482 forward $334 $-1 #
loop $-1 $-1 $202 $477 #
vertex $-1 $203 $499 #
vertex $-1 $498 $500 #
straight-curve $-1 44.832911160618913 -12.323608888244069 5.7765200843854583 0 -1 0 I I #
face $-1 $501 $502 $47 $-1 $503 reversed single #
loop $-1 $-1 $210 $204 #
plane-surface $-1 44.832911160618913 0 0 -1 0 0 0 0 1 forward_v I I I I #
coedge $-1 $504 $349 $505 $506 reversed $205 $-1 #
coedge $-1 $507 $207 $504 $508 forward $129 $-1 #
coedge $-1 $207 $507 $509 $510 reversed $129 $-1 #
coedge $-1 $352 $351 $207 $345 forward $339 $-1 #
edge $-1 $511 8.0341905721752642 $512 16.613027204312871 $344 $513 forward 7 unknown #
coedge $-1 $209 $208 $514 $515 reversed $82 $-1 #
coedge $-1 $516 $517 $208 $348 forward $518 $-1 #
edge $-1 $519 -44.832911160618913 $353 44.832911160618913 $347 $520 forward 7 unknown #
coedge $-1 $341 $521 $209 $350 reversed $205 $-1 #
edge $-1 $522 -44.832911160618913 $354 44.832911160618913 $349 $523 forward 7 unknown #
coedge $-1 $344 $210 $521 $524 forward $339 $-1 #
coedge $-1 $210 $344 $516 $525 reversed $339 $-1 #
vertex $-1 $525 $526 #
vertex $-1 $211 $527 #
straight-curve $-1 44.832911160618913 12.323608888244069 5.7765200843854583 0 -1 0 I I #
face $-1 $-1 $528 $48 $-1 $529 forward single #
loop $-1 $-1 $530 $212 #
plane-surface $-1 -44.832911160618913 0 0 1 0 0 0 0 -1 forward_v I I I I #
coedge $-1 $531 $532 $533 $534 forward $213 $-1 #
coedge $-1 $535 $215 $217 $366 forward $133 $-1 #
coedge $-1 $215 $535 $536 $537 forward $133 $-1 #
coedge $-1 $530 $218 $215 $363 forward $357 $-1 #
edge $-1 $369 4.4751401602607395 $538 12.080152920192642 $362 $539 forward 7 unknown #
coedge $-1 $532 $531 $216 $365 forward $213 $-1 #
edge $-1 $540 -18.07357734287325 $368 -12.912360899822538 $364 $541 forward 7 unknown #
edge $-1 $369 1.1373479346495045e-014 $540 8.3832052815886318 $217 $542 forward 7 unknown #
coedge $-1 $218 $530 $532 $543 reversed $357 $-1 #
vertex $-1 $543 $544 #
vertex $-1 $219 $545 #
straight-curve $-1 -44.832911160618913 -12.75278670048743 30.187177811112903 0 0 -1 I I #
coedge $-1 $371 $371 $-1 $546 reversed $222 $-1 #
edge $-1 $547 0 $547 6.2831853071796004 $223 $548 forward 7 unknown #
vertex $-1 $226 $549 #
ellipse-curve $-1 -42.252302939093553 -18.184938671867361 8.4735921033703256 -0.78801076186113728 0 0.61566146476048833 0.30783073238024417 0 0.39400538093056864 1 I I #
coedge $-1 $375 $375 $-1 $550 reversed $229 $-1 #
edge $-1 $551 0 $551 6.2831853071796004 $230 $552 forward 7 unknown #
vertex $-1 $233 $553 #
ellipse-curve $-1 -42.252302939093553 -14.925647489039402 8.4735921033703256 -0.78801076186113728 0 0.61566146476048833 0.30783073238024417 0 0.39400538093056864 1 I I #
face $-1 $-1 $391 $51 $-1 $554 forward single #
loop $-1 $-1 $555 $234 #
plane-surface $-1 -44.832911160618913 0 0 1 0 0 0 0 -1 forward_v I I I I #
coedge $-1 $556 $557 $558 $559 reversed $235 $-1 #
coedge $-1 $560 $237 $239 $389 forward $147 $-1 #
coedge $-1 $237 $560 $556 $561 forward $147 $-1 #
coedge $-1 $558 $240 $237 $386 forward $391 $-1 #
edge $-1 $393 -1.9012531899829757 $562 5.703759569948927 $385 $563 forward 7 unknown #
coedge $-1 $564 $565 $238 $388 forward $380 $-1 #
edge $-1 $566 -25.016613698134059 $392 -18.410557717351097 $387 $567 forward 7 unknown #
edge $-1 $393 -8.3832052815886318 $566 -1.1373479346495045e-014 $239 $568 forward 7 unknown #
coedge $-1 $240 $558 $564 $569 forward $391 $-1 #
loop $-1 $-1 $558 $379 #
vertex $-1 $388 $570 #
vertex $-1 $241 $571 #
straight-curve $-1 -57.745272060441451 0 11.776620093761807 1 0 0 I I #
coedge $-1 $395 $395 $-1 $572 reversed $244 $-1 #
edge $-1 $573 0 $573 6.2831853071796004 $245 $574 forward 7 unknown #
vertex $-1 $248 $575 #
ellipse-curve $-1 -42.252302939093553 2.1728607885519722 8.4735921033703256 -0.78801076186113728 0 0.61566146476048833 0.30783073238024417 0 0.39400538093056864 1 I I #
coedge $-1 $399 $399 $-1 $576 reversed $251 $-1 #
edge $-1 $577 0 $577 6.2831853071796004 $252 $578 forward 7 unknown #
vertex $-1 $255 $579 #
ellipse-curve $-1 -42.252302939093553 5.432151971379934 8.4735921033703256 -0.78801076186113728 0 0.61566146476048833 0.30783073238024417 0 0.39400538093056864 1 I I #
face $-1 $-1 $415 $54 $-1 $580 forward single #
loop $-1 $-1 $581 $256 #
plane-surface $-1 0 -20.357799460419333 3.3870885413892537 0 -1 0 0 0 -1 forward_v I I I I #
coedge $-1 $582 $583 $584 $585 forward $257 $-1 #
coedge $-1 $586 $259 $261 $413 forward $161 $-1 #
coedge $-1 $259 $586 $581 $587 reversed $161 $-1 #
coedge $-1 $588 $262 $259 $410 forward $415 $-1 #
edge $-1 $417 4.4751401602607395 $589 12.080152920192642 $409 $590 forward 7 unknown #
coedge $-1 $583 $582 $260 $412 forward $257 $-1 #
edge $-1 $591 -60.345430178266056 $416 -53.739374197483087 $411 $592 forward 7 unknown #
edge $-1 $417 81.282617039649182 $591 89.665822321237826 $261 $593 forward 7 unknown #
coedge $-1 $262 $588 $583 $594 forward $415 $-1 #
loop $-1 $-1 $588 $403 #
vertex $-1 $412 $595 #
vertex $-1 $263 $596 #
straight-curve $-1 30.143376305817963 -12.75278670048743 11.776620093761807 -1 0 0 I I #
coedge $-1 $419 $419 $-1 $597 reversed $266 $-1 #
edge $-1 $598 0 $598 6.2831853071796004 $267 $599 forward 7 unknown #
vertex $-1 $270 $600 #
ellipse-curve $-1 42.252302939093553 -18.184938671867361 8.4735921033703221 0.78801076186113728 0 0.61566146476048833 0.30783073238024417 0 -0.39400538093056864 1 I I #
coedge $-1 $423 $423 $-1 $601 reversed $273 $-1 #
edge $-1 $602 0 $602 6.2831853071796004 $274 $603 forward 7 unknown #
vertex $-1 $277 $604 #
ellipse-curve $-1 42.252302939093553 -14.925647489039402 8.4735921033703221 0.78801076186113728 0 0.61566146476048833 0.30783073238024417 0 -0.39400538093056864 1 I I #
face $-1 $-1 $605 $57 $-1 $606 reversed single #
loop $-1 $-1 $284 $278 #
plane-surface $-1 0 0 11.776620093761805 0 0 1 1 0 0 forward_v I I I I #
coedge $-1 $607 $608 $609 $610 reversed $279 $-1 #
coedge $-1 $611 $281 $283 $437 forward $175 $-1 #
coedge $-1 $281 $611 $607 $612 forward $175 $-1 #
coedge $-1 $609 $284 $281 $434 forward $428 $-1 #
edge $-1 $440 -5.703759569948927 $613 1.9012531899829757 $433 $614 forward 7 unknown #
coedge $-1 $615 $616 $282 $436 forward $605 $-1 #
edge $-1 $617 -60.345430178266056 $439 -53.739374197483087 $435 $618 forward 7 unknown #
edge $-1 $440 81.282617039649182 $617 89.665822321237826 $283 $619 forward 7 unknown #
coedge $-1 $284 $609 $615 $620 forward $428 $-1 #
vertex $-1 $285 $621 #
vertex $-1 $285 $622 #
straight-curve $-1 30.143376305817963 7.6050127599319026 11.776620093761807 -1 0 0 I I #
coedge $-1 $442 $442 $-1 $623 reversed $288 $-1 #
edge $-1 $624 0 $624 6.2831853071796004 $289 $625 forward 7 unknown #
vertex $-1 $292 $626 #
ellipse-curve $-1 42.252302939093553 2.1728607885519722 8.4735921033703221 0.78801076186113728 0 0.61566146476048833 0.30783073238024417 0 -0.39400538093056864 1 I I #
coedge $-1 $446 $446 $-1 $627 reversed $295 $-1 #
edge $-1 $628 0 $628 6.2831853071796004 $296 $629 forward 7 unknown #
vertex $-1 $299 $630 #
ellipse-curve $-1 42.252302939093553 5.432151971379934 8.4735921033703221 0.78801076186113728 0 0.61566146476048833 0.30783073238024417 0 -0.39400538093056864 1 I I #
face $-1 $-1 $315 $45 $-1 $631 reversed single #
loop $-1 $-1 $466 $300 #
plane-surface $-1 0 28.936636092556942 0 0 -1 0 0 0 -1 forward_v I I I I #
coedge $-1 $632 $464 $467 $633 forward $301 $-1 #
coedge $-1 $470 $303 $304 $458 reversed $189 $-1 #
coedge $-1 $464 $632 $303 $456 reversed $301 $-1 #
edge $-1 $471 -11.776620093761805 $634 11.776620093761805 $455 $635 forward 7 unknown #
coedge $-1 $305 $304 $632 $636 forward $121 $-1 #
edge $-1 $462 -44.832911160618913 $634 44.832911160618913 $454 $637 forward 7 unknown #
coedge $-1 $467 $466 $305 $460 reversed $451 $-1 #
edge $-1 $638 -44.832911160618913 $461 44.832911160618913 $459 $639 forward 7 unknown #
vertex $-1 $307 $640 #
vertex $-1 $473 $641 #
straight-curve $-1 44.832911160618913 0 -11.776620093761805 0 -1 0 I I #
coedge $-1 $453 $455 $308 $465 reversed $301 $-1 #
edge $-1 $468 -28.936636092556942 $471 28.936636092556942 $464 $642 forward 7 unknown #
coedge $-1 $459 $309 $314 $474 forward $451 $-1 #
coedge $-1 $309 $459 $453 $633 reversed $451 $-1 #
vertex $-1 $310 $643 #
straight-curve $-1 0 28.936636092556942 11.776620093761805 -1 0 0 I I #
coedge $-1 $311 $454 $313 $473 reversed $189 $-1 #
vertex $-1 $465 $644 #
straight-curve $-1 0 -28.936636092556942 11.776620093761805 1 0 0 I I #
edge $-1 $316 -11.776620093761805 $462 11.776620093761805 $313 $645 forward 7 unknown #
edge $-1 $317 -11.776620093761805 $461 11.776620093761805 $314 $646 forward 7 unknown #
point $-1 44.832911160618913 -28.936636092556942 11.776620093761805 #
point $-1 44.832911160618913 28.936636092556942 11.776620093761805 #
face $-1 $-1 $334 $46 $-1 $647 reversed single #
loop $-1 $-1 $330 $319 #
plane-surface $-1 0 -28.936636092556942 0 0 1 0 0 0 1 forward_v I I I I #
coedge $-1 $648 $649 $327 $490 forward $320 $-1 #
coedge $-1 $491 $322 $324 $486 reversed $197 $-1 #
edge $-1 $488 -0.69588727230157765 $335 4.0829758136908314 $333 $650 forward 7 unknown #
coedge $-1 $324 $323 $651 $652 reversed $125 $-1 #
coedge $-1 $495 $494 $323 $485 forward $478 $-1 #
edge $-1 $653 -44.832911160618913 $487 44.832911160618913 $484 $654 forward 7 unknown #
edge $-1 $655 -44.832911160618913 $488 44.832911160618913 $481 $656 forward 7 unknown #
vertex $-1 $485 $657 #
vertex $-1 $326 $658 #
straight-curve $-1 44.832911160618913 -12.323608888244069 0.99765699839304922 0 1 0 I I #
edge $-1 $496 -16.613027204312871 $492 -8.0341905721752642 $480 $659 forward 7 unknown #
coedge $-1 $328 $481 $648 $660 reversed $197 $-1 #
vertex $-1 $490 $661 #
straight-curve $-1 0 -20.357799460419333 5.7765200843854583 -1 0 0 I I #
coedge $-1 $484 $330 $649 $662 forward $478 $-1 #
coedge $-1 $330 $484 $332 $498 reversed $478 $-1 #
vertex $-1 $662 $663 #
straight-curve $-1 0 -28.936636092556942 5.7765200843854583 -1 0 0 I I #
edge $-1 $336 -5.7765200843854583 $487 -0.99765699839304922 $332 $664 forward 7 unknown #
point $-1 44.832911160618913 -20.357799460419333 5.7765200843854583 #
point $-1 44.832911160618913 -28.936636092556942 5.7765200843854583 #
face $-1 $-1 $518 $47 $-1 $665 reversed single #
loop $-1 $-1 $514 $338 #
plane-surface $-1 -44.832911160618913 0 0 1 0 0 0 0 -1 forward_v I I I I #
coedge $-1 $521 $341 $342 $508 reversed $205 $-1 #
coedge $-1 $514 $666 $341 $506 forward $502 $-1 #
edge $-1 $667 -0.69588727230157765 $522 4.0829758136908314 $505 $668 forward 7 unknown #
coedge $-1 $343 $342 $666 $669 reversed $129 $-1 #
edge $-1 $511 -44.832911160618913 $667 44.832911160618913 $504 $670 forward 7 unknown #
coedge $-1 $517 $516 $343 $510 forward $518 $-1 #
edge $-1 $512 -44.832911160618913 $671 44.832911160618913 $509 $672 forward 7 unknown #
vertex $-1 $345 $673 #
vertex $-1 $510 $674 #
straight-curve $-1 44.832911160618913 12.323608888244069 0.99765699839304922 0 1 0 I I #
coedge $-1 $675 $505 $346 $515 forward $502 $-1 #
edge $-1 $522 8.0341905721752642 $519 16.613027204312871 $514 $676 forward 7 unknown #
coedge $-1 $509 $347 $352 $525 forward $518 $-1 #
coedge $-1 $347 $509 $675 $677 reversed $518 $-1 #
loop $-1 $-1 $347 $501 #
vertex $-1 $677 $678 #
straight-curve $-1 0 28.936636092556942 5.7765200843854583 1 0 0 I I #
coedge $-1 $349 $504 $351 $524 reversed $205 $-1 #
vertex $-1 $515 $679 #
straight-curve $-1 0 20.357799460419333 5.7765200843854583 1 0 0 I I #
edge $-1 $354 -4.0829758136908314 $511 0.69588727230157765 $351 $680 forward 7 unknown #
edge $-1 $353 -5.7765200843854583 $512 -0.99765699839304922 $352 $681 forward 7 unknown #
point $-1 44.832911160618913 28.936636092556942 5.7765200843854583 #
point $-1 44.832911160618913 20.357799460419333 5.7765200843854583 #
loop $-1 $-1 $536 $356 #
plane-surface $-1 0 -20.357799460419333 3.3870885413892537 0 -1 0 0 0 -1 forward_v I I I I #
coedge $-1 $367 $362 $682 $683 forward $357 $-1 #
coedge $-1 $364 $359 $535 $684 forward $213 $-1 #
coedge $-1 $359 $364 $367 $543 forward $213 $-1 #
coedge $-1 $682 $536 $359 $534 reversed $528 $-1 #
edge $-1 $685 12.912360899822538 $686 18.07357734287325 $359 $687 forward 7 unknown #
coedge $-1 $361 $360 $531 $684 reversed $133 $-1 #
coedge $-1 $533 $682 $361 $537 reversed $528 $-1 #
edge $-1 $686 -8.3832052815886318 $538 -1.1373479346495045e-014 $536 $688 forward 7 unknown #
vertex $-1 $683 $689 #
straight-curve $-1 -44.832911160618913 -8.2776465402266908 5.1705641129788491 0 -1 0 I I #
vertex $-1 $365 $690 #
straight-curve $-1 -57.745272060441451 -12.75278670048743 11.776620093761807 -1 0 0 I I #
straight-curve $-1 -44.83291116061892 -12.75278670048743 5.1705641129788376 0.61566146476048833 0 0.78801076186113728 I I #
edge $-1 $368 12.75278670048743 $685 20.357799460419333 $367 $691 forward 7 unknown #
point $-1 -44.832911160618913 -12.75278670048743 11.776620093761805 #
point $-1 -44.832911160618913 -12.75278670048743 5.1705641129788464 #
edge $-1 $692 1 $692 0 $371 $-1 forward 7 unknown #
vertex $-1 $372 $693 #
ellipse-curve $-1 -41.410627025857771 -18.184938671867361 7.816002828355221 -0.78801076186113728 0 0.61566146476048833 0.30783073238024417 0 0.39400538093056864 1 I I #
point $-1 -41.944472206713314 -18.184938671867361 8.8675974843008945 #
edge $-1 $694 1 $694 0 $375 $-1 forward 7 unknown #
vertex $-1 $376 $695 #
ellipse-curve $-1 -41.410627025857771 -14.925647489039402 7.816002828355221 -0.78801076186113728 0 0.61566146476048833 0.30783073238024417 0 0.39400538093056864 1 I I #
point $-1 -41.944472206713314 -14.925647489039402 8.8675974843008945 #
plane-surface $-1 0 0 11.776620093761805 0 0 1 1 0 0 forward_v I I I I #
coedge $-1 $565 $564 $557 $696 forward $380 $-1 #
coedge $-1 $557 $382 $384 $561 reversed $235 $-1 #
coedge $-1 $382 $556 $555 $696 reversed $235 $-1 #
coedge $-1 $390 $385 $382 $559 forward $391 $-1 #
edge $-1 $562 -18.07357734287325 $697 -12.912360899822538 $558 $698 forward 7 unknown #
coedge $-1 $384 $383 $565 $699 reversed $147 $-1 #
edge $-1 $700 1.1373479346495045e-014 $562 8.3832052815886318 $556 $701 forward 7 unknown #
vertex $-1 $386 $702 #
straight-curve $-1 -39.671694717568208 1.9012531899829757 11.776620093761805 0 1 0 I I #
coedge $-1 $555 $387 $390 $569 reversed $380 $-1 #
coedge $-1 $387 $555 $560 $699 forward $380 $-1 #
vertex $-1 $388 $703 #
straight-curve $-1 -44.832911160618913 0 30.187177811112903 0 0 1 I I #
straight-curve $-1 -44.83291116061892 0 5.1705641129788376 -0.61566146476048833 0 -0.78801076186113728 I I #
edge $-1 $697 -7.6050127599319026 $392 0 $564 $704 forward 7 unknown #
point $-1 -44.832911160618913 0 11.776620093761805 #
point $-1 -39.671694717568201 0 11.776620093761805 #
edge $-1 $705 1 $705 0 $395 $-1 forward 7 unknown #
vertex $-1 $396 $706 #
ellipse-curve $-1 -41.410627025857771 2.1728607885519722 7.816002828355221 -0.78801076186113728 0 0.61566146476048833 0.30783073238024417 0 0.39400538093056864 1 I I #
point $-1 -41.944472206713314 2.1728607885519722 8.8675974843008945 #
edge $-1 $707 1 $707 0 $399 $-1 forward 7 unknown #
vertex $-1 $400 $708 #
ellipse-curve $-1 -41.410627025857771 5.432151971379934 7.816002828355221 -0.78801076186113728 0 0.61566146476048833 0.30783073238024417 0 0.39400538093056864 1 I I #
point $-1 -41.944472206713314 5.432151971379934 8.8675974843008945 #
plane-surface $-1 0 0 11.776620093761805 0 0 1 1 0 0 forward_v I I I I #
coedge $-1 $584 $709 $408 $587 forward $404 $-1 #
coedge $-1 $411 $406 $586 $710 forward $257 $-1 #
coedge $-1 $406 $411 $414 $594 reversed $257 $-1 #
coedge $-1 $709 $581 $406 $585 reversed $404 $-1 #
edge $-1 $711 53.739374197483087 $712 60.345430178266071 $406 $713 forward 7 unknown #
coedge $-1 $408 $407 $582 $710 reversed $161 $-1 #
edge $-1 $589 49.547954784377495 $712 57.931160065966154 $581 $714 forward 7 unknown #
coedge $-1 $414 $409 $709 $715 forward $415 $-1 #
vertex $-1 $410 $716 #
straight-curve $-1 39.671694717568187 -8.2776465402266908 11.776620093761807 0 -1 0 I I #
vertex $-1 $412 $717 #
straight-curve $-1 44.832911160618913 -12.75278670048743 65.515994291244894 0 0 1 I I #
straight-curve $-1 -10.370880348628056 -12.75278670048743 75.828197073242819 0.61566146476048833 0 -0.78801076186113728 I I #
edge $-1 $711 -20.357799460419333 $416 -12.75278670048743 $583 $718 forward 7 unknown #
point $-1 44.832911160618913 -12.75278670048743 11.776620093761805 #
point $-1 39.671694717568187 -12.75278670048743 11.776620093761807 #
edge $-1 $719 1 $719 0 $419 $-1 forward 7 unknown #
vertex $-1 $420 $720 #
ellipse-curve $-1 41.410627025857771 -18.184938671867361 7.816002828355221 0.78801076186113728 0 0.61566146476048833 0.30783073238024417 0 -0.39400538093056864 1 I I #
point $-1 42.560133671473807 -18.184938671867361 8.0795867224397586 #
edge $-1 $721 1 $721 0 $423 $-1 forward 7 unknown #
vertex $-1 $424 $722 #
ellipse-curve $-1 41.410627025857771 -14.925647489039402 7.816002828355221 0.78801076186113728 0 0.61566146476048833 0.30783073238024417 0 -0.39400538093056864 1 I I #
point $-1 42.560133671473807 -14.925647489039402 8.0795867224397586 #
loop $-1 $-1 $435 $427 #
plane-surface $-1 44.832911160618913 0 0 -1 0 0 0 0 1 forward_v I I I I #
coedge $-1 $608 $430 $432 $612 reversed $279 $-1 #
coedge $-1 $430 $607 $723 $724 reversed $279 $-1 #
coedge $-1 $438 $433 $430 $610 forward $428 $-1 #
edge $-1 $613 9.5283184117502238 $725 14.68953485480095 $609 $726 forward 7 unknown #
coedge $-1 $432 $431 $616 $727 reversed $175 $-1 #
edge $-1 $728 -89.665822321237826 $613 -81.282617039649182 $607 $729 forward 7 unknown #
vertex $-1 $434 $730 #
straight-curve $-1 39.671694717568187 1.9012531899829757 11.776620093761807 0 -1 0 I I #
coedge $-1 $723 $435 $438 $620 reversed $605 $-1 #
coedge $-1 $435 $723 $611 $727 forward $605 $-1 #
vertex $-1 $436 $731 #
straight-curve $-1 44.832911160618913 7.6050127599319026 65.515994291244894 0 0 1 I I #
straight-curve $-1 -10.370880348628056 7.6050127599319026 75.828197073242819 0.61566146476048833 0 -0.78801076186113728 I I #
edge $-1 $725 0 $439 7.6050127599319026 $615 $732 forward 7 unknown #
point $-1 44.832911160618913 7.6050127599319026 11.776620093761805 #
point $-1 39.671694717568187 7.6050127599319026 11.776620093761807 #
edge $-1 $733 1 $733 0 $442 $-1 forward 7 unknown #
vertex $-1 $443 $734 #
ellipse-curve $-1 41.410627025857771 2.1728607885519722 7.816002828355221 0.78801076186113728 0 0.61566146476048833 0.30783073238024417 0 -0.39400538093056864 1 I I #
point $-1 42.560133671473807 2.1728607885519722 8.0795867224397586 #
edge $-1 $735 1 $735 0 $446 $-1 forward 7 unknown #
vertex $-1 $447 $736 #
ellipse-curve $-1 41.410627025857771 5.432151971379934 7.816002828355221 0.78801076186113728 0 0.61566146476048833 0.30783073238024417 0 -0.39400538093056864 1 I I #
point $-1 42.560133671473807 5.432151971379934 8.0795867224397586 #
plane-surface $-1 44.832911160618913 0 0 -1 0 0 0 0 1 forward_v I I I I #
coedge $-1 $455 $453 $457 $636 reversed $301 $-1 #
edge $-1 $468 -11.776620093761805 $638 11.776620093761805 $467 $737 forward 7 unknown #
vertex $-1 $636 $738 #
straight-curve $-1 -44.832911160618913 -28.936636092556942 0 0 0 -1 I I #
edge $-1 $634 -28.936636092556942 $638 28.936636092556942 $632 $739 forward 7 unknown #
straight-curve $-1 0 -28.936636092556942 -11.776620093761805 -1 0 0 I I #
vertex $-1 $460 $740 #
straight-curve $-1 0 28.936636092556942 -11.776620093761805 1 0 0 I I #
point $-1 44.832911160618913 28.936636092556942 -11.776620093761805 #
point $-1 44.832911160618913 -28.936636092556942 -11.776620093761805 #
straight-curve $-1 -44.832911160618913 0 11.776620093761805 0 -1 0 I I #
point $-1 -44.832911160618913 28.936636092556942 11.776620093761805 #
point $-1 -44.832911160618913 -28.936636092556942 11.776620093761805 #
straight-curve $-1 44.832911160618913 -28.936636092556942 0 0 0 -1 I I #
straight-curve $-1 44.832911160618913 28.936636092556942 0 0 0 -1 I I #
plane-surface $-1 44.832911160618913 0 0 -1 0 0 0 0 1 forward_v I I I I #
coedge $-1 $651 $480 $491 $660 forward $320 $-1 #
coedge $-1 $480 $651 $494 $662 reversed $320 $-1 #
straight-curve $-1 44.832911160618913 -20.357799460419333 1.6935442706946269 0 0 1 I I #
coedge $-1 $649 $648 $483 $652 forward $320 $-1 #
edge $-1 $655 8.0341905721752642 $653 16.613027204312871 $651 $741 forward 7 unknown #
vertex $-1 $485 $742 #
straight-curve $-1 0 -28.936636092556942 0.99765699839304922 1 0 0 I I #
vertex $-1 $652 $743 #
straight-curve $-1 0 -20.357799460419333 0.99765699839304922 1 0 0 I I #
point $-1 44.832911160618913 -28.936636092556942 0.99765699839304922 #
point $-1 44.832911160618913 -20.357799460419333 0.99765699839304922 #
straight-curve $-1 -44.832911160618913 -12.323608888244069 5.7765200843854583 0 1 0 I I #
edge $-1 $492 -4.0829758136908314 $655 0.69588727230157765 $648 $744 forward 7 unknown #
point $-1 -44.832911160618913 -20.357799460419333 5.7765200843854583 #
edge $-1 $496 -5.7765200843854583 $653 -0.99765699839304922 $649 $745 forward 7 unknown #
point $-1 -44.832911160618913 -28.936636092556942 5.7765200843854583 #
straight-curve $-1 44.832911160618913 -28.936636092556942 0 0 0 -1 I I #
plane-surface $-1 0 28.936636092556942 0 0 -1 0 0 0 -1 forward_v I I I I #
coedge $-1 $505 $675 $507 $669 forward $502 $-1 #
vertex $-1 $669 $746 #
straight-curve $-1 -44.832911160618913 20.357799460419333 1.6935442706946269 0 0 1 I I #
edge $-1 $671 -16.613027204312871 $667 -8.0341905721752642 $666 $747 forward 7 unknown #
straight-curve $-1 0 20.357799460419333 0.99765699839304922 -1 0 0 I I #
vertex $-1 $510 $748 #
straight-curve $-1 0 28.936636092556942 0.99765699839304922 -1 0 0 I I #
point $-1 44.832911160618913 20.357799460419333 0.99765699839304922 #
point $-1 44.832911160618913 28.936636092556942 0.99765699839304922 #
coedge $-1 $666 $514 $517 $677 forward $502 $-1 #
straight-curve $-1 -44.832911160618913 12.323608888244069 5.7765200843854583 0 1 0 I I #
edge $-1 $519 -5.7765200843854583 $671 -0.99765699839304922 $517 $749 forward 7 unknown #
point $-1 -44.832911160618913 28.936636092556942 5.7765200843854583 #
point $-1 -44.832911160618913 20.357799460419333 5.7765200843854583 #
straight-curve $-1 44.832911160618913 20.357799460419333 1.6935442706946269 0 0 -1 I I #
straight-curve $-1 44.832911160618913 28.936636092556942 0 0 0 -1 I I #
coedge $-1 $536 $533 $530 $683 reversed $528 $-1 #
edge $-1 $538 -25.016613698134059 $685 -18.410557717351097 $530 $750 forward 7 unknown #
edge $-1 $686 -12.080152920192642 $540 -4.4751401602607395 $531 $751 forward 7 unknown #
vertex $-1 $683 $752 #
vertex $-1 $534 $753 #
straight-curve $-1 -57.745272060441451 -20.357799460419333 11.776620093761807 1 0 0 I I #
straight-curve $-1 -44.83291116061892 -20.357799460419333 5.1705641129788376 -0.61566146476048833 0 -0.78801076186113728 I I #
point $-1 -44.832911160618913 -20.357799460419333 5.1705641129788464 #
point $-1 -39.671694717568201 -12.75278670048743 11.776620093761805 #
straight-curve $-1 -44.832911160618913 0 11.776620093761805 0 -1 0 I I #
vertex $-1 $546 $754 #
point $-1 -41.102796293477532 -18.184938671867361 8.2100082092857889 #
vertex $-1 $550 $755 #
point $-1 -41.102796293477532 -14.925647489039402 8.2100082092857889 #
edge $-1 $697 18.410557717351097 $700 25.016613698134059 $555 $756 forward 7 unknown #
vertex $-1 $569 $757 #
straight-curve $-1 -57.745272060441451 7.6050127599319026 11.776620093761807 -1 0 0 I I #
edge $-1 $700 -5.703759569948927 $566 1.9012531899829757 $565 $758 forward 7 unknown #
vertex $-1 $699 $759 #
straight-curve $-1 -44.83291116061892 7.6050127599319026 5.1705641129788376 0.61566146476048833 0 0.78801076186113728 I I #
point $-1 -39.671694717568201 7.6050127599319026 11.776620093761805 #
point $-1 -44.832911160618913 0 5.1705641129788464 #
straight-curve $-1 -44.832911160618913 0 11.776620093761805 0 -1 0 I I #
vertex $-1 $572 $760 #
point $-1 -41.102796293477532 2.1728607885519722 8.2100082092857889 #
vertex $-1 $576 $761 #
point $-1 -41.102796293477532 5.432151971379934 8.2100082092857889 #
coedge $-1 $581 $584 $588 $715 reversed $404 $-1 #
edge $-1 $712 -12.080152920192642 $591 -4.4751401602607395 $582 $762 forward 7 unknown #
vertex $-1 $594 $763 #
vertex $-1 $587 $764 #
straight-curve $-1 44.832911160618913 -20.357799460419333 65.515994291244894 0 0 -1 I I #
straight-curve $-1 9.1669282991318912 -20.357799460419333 50.820941692060302 0.61566146476048833 0 -0.78801076186113728 I I #
edge $-1 $589 9.5283184117502238 $711 14.68953485480095 $588 $765 forward 7 unknown #
point $-1 39.671694717568187 -20.357799460419333 11.776620093761807 #
point $-1 44.832911160618913 -12.75278670048743 5.1705641129788376 #
straight-curve $-1 44.832911160618913 0 11.776620093761805 0 1 0 I I #
vertex $-1 $597 $766 #
point $-1 41.718457758238017 -18.184938671867361 7.4219974474246522 #
vertex $-1 $601 $767 #
point $-1 41.718457758238017 -14.925647489039402 7.4219974474246522 #
coedge $-1 $616 $615 $608 $724 forward $605 $-1 #
edge $-1 $725 53.739374197483087 $728 60.345430178266056 $723 $768 forward 7 unknown #
vertex $-1 $620 $769 #
straight-curve $-1 30.143376305817963 0 11.776620093761807 1 0 0 I I #
edge $-1 $728 -1.9012531899829757 $617 5.703759569948927 $616 $770 forward 7 unknown #
vertex $-1 $727 $771 #
straight-curve $-1 -10.370880348628056 0 75.828197073242819 -0.61566146476048833 0 0.78801076186113728 I I #
point $-1 39.671694717568187 0 11.776620093761807 #
point $-1 44.832911160618913 7.6050127599319026 5.1705641129788376 #
straight-curve $-1 44.832911160618913 0 11.776620093761805 0 1 0 I I #
vertex $-1 $623 $772 #
point $-1 41.718457758238017 2.1728607885519722 7.4219974474246522 #
vertex $-1 $627 $773 #
point $-1 41.718457758238017 5.432151971379934 7.4219974474246522 #
straight-curve $-1 -44.832911160618913 28.936636092556942 0 0 0 -1 I I #
point $-1 -44.832911160618913 -28.936636092556942 -11.776620093761805 #
straight-curve $-1 -44.832911160618913 0 -11.776620093761805 0 1 0 I I #
point $-1 -44.832911160618913 28.936636092556942 -11.776620093761805 #
straight-curve $-1 -44.832911160618913 -12.323608888244069 0.99765699839304922 0 -1 0 I I #
point $-1 -44.832911160618913 -28.936636092556942 0.99765699839304922 #
point $-1 -44.832911160618913 -20.357799460419333 0.99765699839304922 #
straight-curve $-1 -44.832911160618913 -20.357799460419333 1.6935442706946269 0 0 -1 I I #
straight-curve $-1 -44.832911160618913 -28.936636092556942 0 0 0 -1 I I #
point $-1 -44.832911160618913 20.357799460419333 0.99765699839304922 #
straight-curve $-1 -44.832911160618913 12.323608888244069 0.99765699839304922 0 -1 0 I I #
point $-1 -44.832911160618913 28.936636092556942 0.99765699839304922 #
straight-curve $-1 -44.832911160618913 28.936636092556942 0 0 0 -1 I I #
straight-curve $-1 -44.832911160618913 -20.357799460419333 30.187177811112903 0 0 1 I I #
straight-curve $-1 -39.671694717568208 -8.2776465402266908 11.776620093761805 0 1 0 I I #
point $-1 -44.832911160618913 -20.357799460419333 11.776620093761805 #
point $-1 -39.671694717568201 -20.357799460419333 11.776620093761805 #
point $-1 -41.016621644927206 -18.184938671867361 7.5081720959749765 #
point $-1 -41.016621644927206 -14.925647489039402 7.5081720959749765 #
straight-curve $-1 -44.832911160618913 7.6050127599319026 30.187177811112903 0 0 -1 I I #
point $-1 -44.832911160618913 7.6050127599319026 11.776620093761805 #
straight-curve $-1 -44.832911160618913 1.9012531899829757 5.1705641129788491 0 -1 0 I I #
point $-1 -44.832911160618913 7.6050127599319026 5.1705641129788464 #
point $-1 -41.016621644927206 2.1728607885519722 7.5081720959749765 #
point $-1 -41.016621644927206 5.432151971379934 7.5081720959749765 #
straight-curve $-1 44.832911160618913 -8.2776465402266908 5.1705641129788305 0 1 0 I I #
point $-1 44.832911160618913 -20.357799460419333 11.776620093761805 #
point $-1 44.832911160618913 -20.357799460419333 5.1705641129788233 #
straight-curve $-1 30.143376305817963 -20.357799460419333 11.776620093761807 1 0 0 I I #
point $-1 41.016621644927206 -18.184938671867361 7.5081720959749765 #
point $-1 41.016621644927206 -14.925647489039402 7.5081720959749765 #
straight-curve $-1 44.832911160618913 0 65.515994291244894 0 0 -1 I I #
point $-1 44.832911160618913 0 11.776620093761805 #
straight-curve $-1 44.832911160618913 1.9012531899829757 5.1705641129788305 0 1 0 I I #
point $-1 44.832911160618913 0 5.1705641129788376 #
point $-1 41.016621644927206 2.1728607885519722 7.5081720959749765 #
point $-1 41.016621644927206 5.432151971379934 7.5081720959749765 #
End-of-ACIS-data 