500 0 10 0           
7 Unknown 11 ACIS 5.0 NT 24 Fri Mar 26 01:07:06 1999 
-1 9.9999999999999995e-007 1e-010 
body $-1 $10 $-1 $11 #
body $-1 $12 $-1 $13 #
body $-1 $14 $-1 $15 #
body $-1 $16 $-1 $17 #
body $-1 $18 $-1 $19 #
body $-1 $20 $-1 $21 #
body $-1 $22 $-1 $23 #
body $-1 $24 $-1 $25 #
body $-1 $26 $-1 $27 #
body $-1 $28 $-1 $29 #
lump $-1 $-1 $30 $0 #
transform $-1 1 0 0 0 1 0 0 0 1 69.211096530045467 41.985643216528175 19.658947448639896 1 rotate no_reflect no_shear #
lump $-1 $-1 $31 $1 #
transform $-1 1 0 0 0 1 0 0 0 1 69.211096530045467 41.985643216528175 19.658947448639896 1 rotate no_reflect no_shear #
lump $-1 $-1 $32 $2 #
transform $-1 1 0 0 0 1 0 0 0 1 69.211096530045467 41.985643216528175 19.658947448639896 1 rotate no_reflect no_shear #
lump $-1 $-1 $33 $3 #
transform $-1 1 0 0 0 1 0 0 0 1 69.211096530045467 41.985643216528175 19.658947448639896 1 rotate no_reflect no_shear #
lump $-1 $-1 $34 $4 #
transform $-1 1 0 0 0 1 0 0 0 1 69.211096530045467 41.985643216528175 19.658947448639896 1 rotate no_reflect no_shear #
lump $-1 $-1 $35 $5 #
transform $-1 1 0 0 0 1 0 0 0 1 69.211096530045467 41.985643216528175 19.658947448639896 1 rotate no_reflect no_shear #
lump $-1 $-1 $36 $6 #
transform $-1 1 0 0 0 1 0 0 0 1 69.211096530045467 41.985643216528175 19.658947448639896 1 rotate no_reflect no_shear #
lump $-1 $-1 $37 $7 #
transform $-1 1 0 0 0 1 0 0 0 1 69.211096530045467 41.985643216528175 19.658947448639896 1 rotate no_reflect no_shear #
lump $-1 $-1 $38 $8 #
transform $-1 1 0 0 0 1 0 0 0 1 69.211096530045467 41.985643216528175 19.658947448639896 1 rotate no_reflect no_shear #
lump $-1 $-1 $39 $9 #
transform $-1 1 0 0 0 1 0 0 0 1 69.211096530045467 41.985643216528175 19.658947448639896 1 rotate no_reflect no_shear #
shell $-1 $-1 $-1 $40 $-1 $10 #
shell $-1 $-1 $-1 $41 $-1 $12 #
shell $-1 $-1 $-1 $42 $-1 $14 #
shell $-1 $-1 $-1 $43 $-1 $16 #
shell $-1 $-1 $-1 $44 $-1 $18 #
shell $-1 $-1 $-1 $45 $-1 $20 #
shell $-1 $-1 $-1 $46 $-1 $22 #
shell $-1 $-1 $-1 $47 $-1 $24 #
shell $-1 $-1 $-1 $48 $-1 $26 #
shell $-1 $-1 $-1 $49 $-1 $28 #
face $-1 $50 $51 $30 $-1 $52 forward single #
face $-1 $53 $54 $31 $-1 $55 forward single #
face $-1 $56 $57 $32 $-1 $58 forward single #
face $-1 $59 $60 $33 $-1 $61 reversed single #
face $-1 $62 $63 $34 $-1 $64 forward single #
face $-1 $65 $66 $35 $-1 $67 forward single #
face $-1 $68 $69 $36 $-1 $70 reversed single #
face $-1 $71 $72 $37 $-1 $73 forward single #
face $-1 $74 $75 $38 $-1 $76 reversed single #
face $-1 $77 $78 $39 $-1 $79 forward single #
face $-1 $80 $81 $30 $-1 $82 reversed single #
loop $-1 $-1 $83 $40 #
plane-surface $-1 0 0 19.658947448639896 0 0 1 1 0 0 forward_v I I I I #
face $-1 $84 $85 $31 $-1 $86 reversed single #
loop $-1 $-1 $87 $41 #
plane-surface $-1 -58.655003101617048 0 4.0889948951465307 0 0 1 1 0 0 forward_v I I I I #
face $-1 $88 $89 $32 $-1 $90 reversed single #
loop $-1 $-1 $91 $42 #
plane-surface $-1 58.655003101617041 0 4.0889948951465307 0 0 1 1 0 0 forward_v I I I I #
face $-1 $92 $93 $33 $-1 $94 reversed single #
loop $-1 $-1 $95 $43 #
plane-surface $-1 0.59692907040297882 107.21051650992059 159.57027493886261 -1 0 0 0 0.81915205242281985 0.57357642473473569 forward_v I I I I #
face $-1 $96 $97 $34 $-1 $98 forward single #
loop $-1 $99 $100 $44 #
cone-surface $-1 -10.459136983420883 37.190542637024969 14.193827580994327 0 -0.81915205242281985 -0.57357642473473569 2 0 0 1 I I 0 1 2 forward I I I I #
face $-1 $101 $102 $35 $-1 $103 forward single #
loop $-1 $104 $105 $45 #
cone-surface $-1 -3.8254973511265717 37.190542637024969 14.193827580994327 0 -0.81915205242281985 -0.57357642473473569 2 0 0 1 I I 0 1 2 forward I I I I #
face $-1 $106 $107 $36 $-1 $108 reversed single #
loop $-1 $-1 $109 $46 #
plane-surface $-1 -11.429711303424654 -119.39035226459302 118.97595326947662 1 0 0 0 0.55919291073839883 -0.82903756765294845 forward_v I I I I #
face $-1 $110 $111 $37 $-1 $112 forward single #
loop $-1 $113 $114 $47 #
cone-surface $-1 -5.7148556517123197 -28.768557587255316 9.3123870018038204 0 0.55919291073839883 -0.82903756765294845 2.5 0 0 1 I I 0 1 2.5 forward I I I I #
face $-1 $115 $116 $38 $-1 $117 reversed single #
loop $-1 $-1 $118 $48 #
plane-surface $-1 11.429711303424661 -119.39035226459302 118.97595326947662 -1 0 0 0 -0.55919291073839883 0.82903756765294845 forward_v I I I I #
face $-1 $119 $120 $39 $-1 $121 forward single #
loop $-1 $122 $123 $49 #
cone-surface $-1 5.7148556517123268 -28.768557587255316 9.3123870018038204 0 0.55919291073839883 -0.82903756765294845 2.5 0 0 1 I I 0 1 2.5 forward I I I I #
face $-1 $124 $125 $30 $-1 $126 reversed single #
loop $-1 $-1 $127 $50 #
plane-surface $-1 0 0 -19.658947448639896 0 0 1 1 0 0 forward_v I I I I #
coedge $-1 $128 $129 $130 $131 forward $51 $-1 #
face $-1 $132 $133 $31 $-1 $134 reversed single #
loop $-1 $-1 $135 $53 #
plane-surface $-1 -58.655003101617048 0 -6.0005622582021765 0 0 1 1 0 0 forward_v I I I I #
coedge $-1 $136 $137 $138 $139 forward $54 $-1 #
face $-1 $140 $141 $32 $-1 $142 reversed single #
loop $-1 $-1 $143 $56 #
plane-surface $-1 58.655003101617041 0 -6.0005622582021765 0 0 1 1 0 0 forward_v I I I I #
coedge $-1 $144 $145 $146 $147 reversed $57 $-1 #
face $-1 $148 $149 $33 $-1 $150 reversed single #
loop $-1 $-1 $151 $59 #
plane-surface $-1 -7.142317167273724 -6.1783070361206995 80.174568339514309 0 0.81915205242281985 0.57357642473473569 1 0 0 forward_v I I I I #
coedge $-1 $152 $153 $154 $155 reversed $60 $-1 #
face $-1 $-1 $156 $34 $-1 $157 forward single #
loop $-1 $158 $159 $62 #
cone-surface $-1 -10.459136983420883 34.471518807265895 12.289946656288105 0 -0.81915205242281985 -0.57357642473473569 1 0 0 1 I I -0.70710678118654746 0.70710678118654746 1 forward I I I I #
loop $-1 $-1 $160 $44 #
coedge $-1 $100 $100 $161 $162 reversed $63 $-1 #
face $-1 $-1 $163 $35 $-1 $164 forward single #
loop $-1 $165 $166 $65 #
cone-surface $-1 -3.8254973511265717 34.471518807265895 12.289946656288105 0 -0.81915205242281985 -0.57357642473473569 1 0 0 1 I I -0.70710678118654746 0.70710678118654746 1 forward I I I I #
loop $-1 $-1 $167 $45 #
coedge $-1 $105 $105 $168 $169 reversed $66 $-1 #
face $-1 $170 $171 $36 $-1 $172 reversed single #
loop $-1 $-1 $173 $68 #
plane-surface $-1 -5.7148556517123197 -41.985643216528175 4.2187550257519888 0 -0.55919291073839883 0.82903756765294845 1 0 0 forward_v I I I I #
coedge $-1 $174 $175 $176 $177 reversed $69 $-1 #
face $-1 $-1 $178 $37 $-1 $179 forward single #
loop $-1 $180 $181 $71 #
cone-surface $-1 -5.7148556517123197 -26.297993919378456 5.6496258068455347 0 0.55919291073839883 -0.82903756765294845 1.25 0 0 1 I I -0.70710678118654724 0.70710678118654768 1.25 forward I I I I #
loop $-1 $-1 $182 $47 #
coedge $-1 $114 $114 $183 $184 reversed $72 $-1 #
face $-1 $185 $186 $38 $-1 $187 forward single #
loop $-1 $-1 $188 $74 #
plane-surface $-1 -5.7148556517123197 -41.985643216528175 4.2187550257519888 0 -0.55919291073839883 0.82903756765294845 1 0 0 forward_v I I I I #
coedge $-1 $189 $190 $191 $192 reversed $75 $-1 #
face $-1 $-1 $193 $39 $-1 $194 forward single #
loop $-1 $195 $196 $77 #
cone-surface $-1 5.7148556517123268 -26.297993919378456 5.6496258068455347 0 0.55919291073839883 -0.82903756765294845 1.25 0 0 1 I I -0.70710678118654724 0.70710678118654768 1.25 forward I I I I #
loop $-1 $-1 $197 $49 #
coedge $-1 $123 $123 $198 $199 reversed $78 $-1 #
face $-1 $200 $201 $30 $-1 $202 reversed single #
loop $-1 $-1 $203 $80 #
plane-surface $-1 0 -41.985643216528175 0 0 1 0 0 0 1 forward_v I I I I #
coedge $-1 $204 $205 $206 $207 forward $81 $-1 #
coedge $-1 $208 $83 $209 $210 forward $51 $-1 #
coedge $-1 $83 $208 $211 $212 forward $51 $-1 #
coedge $-1 $213 $214 $83 $131 reversed $215 $-1 #
edge $-1 $216 -41.985643216528175 $217 41.985643216528175 $130 $218 forward 7 unknown #
face $-1 $219 $220 $31 $-1 $221 reversed single #
loop $-1 $-1 $222 $84 #
plane-surface $-1 -48.098909673188629 0 -0.95578368152782289 -1 0 0 0 0 1 forward_v I I I I #
coedge $-1 $223 $224 $225 $226 forward $85 $-1 #
coedge $-1 $227 $87 $228 $229 reversed $54 $-1 #
coedge $-1 $87 $227 $230 $231 reversed $54 $-1 #
coedge $-1 $222 $232 $87 $139 reversed $133 $-1 #
edge $-1 $233 -41.985643216528175 $234 41.985643216528175 $138 $235 forward 7 unknown #
face $-1 $236 $237 $32 $-1 $238 reversed single #
loop $-1 $-1 $239 $88 #
plane-surface $-1 48.098909673188622 0 -0.95578368152782289 1 0 0 0 0 -1 forward_v I I I I #
coedge $-1 $240 $241 $242 $243 reversed $89 $-1 #
coedge $-1 $244 $91 $245 $246 reversed $57 $-1 #
coedge $-1 $91 $244 $247 $248 reversed $57 $-1 #
coedge $-1 $249 $250 $91 $147 forward $251 $-1 #
edge $-1 $252 -41.985643216528175 $253 41.985643216528175 $146 $254 forward 7 unknown #
face $-1 $255 $256 $33 $-1 $257 reversed single #
loop $-1 $-1 $258 $92 #
plane-surface $-1 -14.881563404950427 107.21051650992059 159.57027493886261 1 0 0 0 -0.81915205242281985 -0.57357642473473569 forward_v I I I I #
coedge $-1 $259 $260 $261 $262 reversed $93 $-1 #
coedge $-1 $153 $95 $263 $264 reversed $60 $-1 #
coedge $-1 $95 $152 $259 $265 reversed $60 $-1 #
coedge $-1 $261 $266 $95 $155 forward $256 $-1 #
edge $-1 $267 60.126190020791412 $268 68.395820756139585 $154 $269 forward 7 unknown #
loop $-1 $-1 $161 $96 #
plane-surface $-1 -7.142317167273724 -6.1783070361206995 80.174568339514309 0 0.81915205242281985 0.57357642473473569 1 0 0 forward_v I I I I #
loop $-1 $-1 $270 $62 #
coedge $-1 $159 $159 $160 $271 reversed $97 $-1 #
coedge $-1 $160 $160 $159 $271 forward $99 $-1 #
coedge $-1 $161 $161 $100 $162 forward $156 $-1 #
edge $-1 $272 -1.0173666079199377e-015 $272 6.2831853071795996 $161 $273 forward 7 unknown #
loop $-1 $-1 $168 $101 #
plane-surface $-1 -7.142317167273724 -6.1783070361206995 80.174568339514309 0 0.81915205242281985 0.57357642473473569 1 0 0 forward_v I I I I #
loop $-1 $-1 $274 $65 #
coedge $-1 $166 $166 $167 $275 reversed $102 $-1 #
coedge $-1 $167 $167 $166 $275 forward $104 $-1 #
coedge $-1 $168 $168 $105 $169 forward $163 $-1 #
edge $-1 $276 -1.0173666079199377e-015 $276 6.2831853071795996 $168 $277 forward 7 unknown #
face $-1 $278 $279 $36 $-1 $280 forward single #
loop $-1 $-1 $281 $106 #
plane-surface $-1 1.4210854715202004e-014 -119.39035226459302 118.97595326947662 -1 0 0 0 -0.55919291073839883 0.82903756765294845 forward_v I I I I #
coedge $-1 $282 $283 $284 $285 reversed $107 $-1 #
coedge $-1 $175 $109 $286 $287 reversed $69 $-1 #
coedge $-1 $109 $174 $282 $288 reversed $69 $-1 #
coedge $-1 $284 $289 $109 $177 forward $290 $-1 #
edge $-1 $291 39.82902918609841 $292 55.269221608986321 $176 $293 forward 7 unknown #
loop $-1 $-1 $183 $110 #
plane-surface $-1 -5.7148556517123197 -41.985643216528175 4.2187550257519888 0 -0.55919291073839883 0.82903756765294845 1 0 0 forward_v I I I I #
loop $-1 $-1 $294 $71 #
coedge $-1 $181 $181 $182 $295 reversed $111 $-1 #
coedge $-1 $182 $182 $181 $295 forward $113 $-1 #
coedge $-1 $183 $183 $114 $184 forward $178 $-1 #
edge $-1 $296 -4.6662115613919469e-016 $296 6.2831853071795996 $183 $297 forward 7 unknown #
face $-1 $298 $299 $38 $-1 $300 forward single #
loop $-1 $-1 $301 $115 #
plane-surface $-1 0 0 19.658947448639896 0 0 1 1 0 0 forward_v I I I I #
coedge $-1 $302 $303 $304 $305 reversed $116 $-1 #
coedge $-1 $190 $118 $306 $307 reversed $75 $-1 #
coedge $-1 $118 $189 $301 $308 reversed $75 $-1 #
coedge $-1 $309 $310 $118 $192 forward $311 $-1 #
edge $-1 $312 -55.269221608986321 $313 -39.82902918609841 $191 $314 forward 7 unknown #
loop $-1 $-1 $198 $119 #
plane-surface $-1 -5.7148556517123197 -41.985643216528175 4.2187550257519888 0 -0.55919291073839883 0.82903756765294845 1 0 0 forward_v I I I I #
loop $-1 $-1 $315 $77 #
coedge $-1 $196 $196 $197 $316 reversed $120 $-1 #
coedge $-1 $197 $197 $196 $316 forward $122 $-1 #
coedge $-1 $198 $198 $123 $199 forward $193 $-1 #
edge $-1 $317 -4.6662115613919469e-016 $317 6.2831853071795996 $198 $318 forward 7 unknown #
face $-1 $319 $320 $30 $-1 $321 reversed single #
loop $-1 $-1 $322 $124 #
plane-surface $-1 -69.211096530045467 0 0 1 0 0 0 0 -1 forward_v I I I I #
coedge $-1 $323 $211 $324 $325 forward $125 $-1 #
coedge $-1 $326 $127 $323 $327 forward $81 $-1 #
coedge $-1 $127 $326 $328 $329 forward $81 $-1 #
coedge $-1 $214 $213 $127 $207 reversed $215 $-1 #
edge $-1 $330 -41.985643216528175 $331 41.985643216528175 $206 $332 forward 7 unknown #
coedge $-1 $129 $128 $333 $334 forward $51 $-1 #
coedge $-1 $335 $336 $128 $210 reversed $320 $-1 #
edge $-1 $217 -69.211096530045467 $337 69.211096530045467 $209 $338 forward 7 unknown #
coedge $-1 $203 $339 $129 $212 reversed $125 $-1 #
edge $-1 $340 -69.211096530045467 $216 69.211096530045467 $211 $341 forward 7 unknown #
coedge $-1 $206 $130 $339 $342 forward $215 $-1 #
coedge $-1 $130 $206 $335 $343 reversed $215 $-1 #
loop $-1 $-1 $213 $319 #
vertex $-1 $131 $344 #
vertex $-1 $131 $345 #
straight-curve $-1 69.211096530045467 0 19.658947448639896 0 1 0 I I #
face $-1 $346 $347 $31 $-1 $348 reversed single #
loop $-1 $-1 $349 $132 #
plane-surface $-1 0 -41.985643216528175 0 0 1 0 0 0 1 forward_v I I I I #
coedge $-1 $225 $138 $350 $351 reversed $133 $-1 #
coedge $-1 $352 $135 $349 $353 reversed $85 $-1 #
coedge $-1 $135 $352 $354 $355 reversed $85 $-1 #
coedge $-1 $232 $222 $135 $226 reversed $133 $-1 #
edge $-1 $356 -41.985643216528175 $357 41.985643216528175 $225 $358 forward 7 unknown #
coedge $-1 $137 $136 $359 $360 reversed $54 $-1 #
coedge $-1 $361 $362 $136 $229 forward $363 $-1 #
edge $-1 $364 -39.883594979236946 $234 -18.771408122380105 $228 $365 forward 7 unknown #
coedge $-1 $366 $350 $137 $231 forward $220 $-1 #
edge $-1 $233 18.771408122380105 $367 39.883594979236946 $230 $368 forward 7 unknown #
coedge $-1 $138 $225 $361 $369 reversed $133 $-1 #
vertex $-1 $231 $370 #
vertex $-1 $229 $371 #
straight-curve $-1 -48.098909673188629 0 4.0889948951465307 0 1 0 I I #
face $-1 $372 $373 $32 $-1 $374 reversed single #
loop $-1 $-1 $247 $140 #
plane-surface $-1 0 -41.985643216528175 0 0 1 0 0 0 1 forward_v I I I I #
coedge $-1 $375 $376 $377 $378 reversed $141 $-1 #
coedge $-1 $379 $143 $380 $381 reversed $89 $-1 #
coedge $-1 $143 $379 $382 $383 reversed $89 $-1 #
coedge $-1 $250 $249 $143 $243 forward $251 $-1 #
edge $-1 $384 -41.985643216528175 $385 41.985643216528175 $242 $386 forward 7 unknown #
coedge $-1 $145 $144 $376 $387 forward $57 $-1 #
coedge $-1 $388 $377 $144 $246 forward $373 $-1 #
edge $-1 $389 18.771408122380102 $252 39.883594979236946 $245 $390 forward 7 unknown #
coedge $-1 $391 $392 $145 $248 forward $237 $-1 #
edge $-1 $253 -39.883594979236946 $393 -18.771408122380102 $247 $394 forward 7 unknown #
coedge $-1 $242 $146 $392 $395 forward $251 $-1 #
coedge $-1 $146 $242 $388 $396 reversed $251 $-1 #
loop $-1 $-1 $146 $372 #
vertex $-1 $396 $397 #
vertex $-1 $395 $398 #
straight-curve $-1 69.211096530045467 0 4.0889948951465307 0 -1 0 I I #
face $-1 $-1 $399 $33 $-1 $400 forward single #
loop $-1 $-1 $154 $148 #
plane-surface $-1 0 41.985643216528175 0 0 -1 0 0 0 -1 forward_v I I I I #
coedge $-1 $401 $402 $403 $404 reversed $149 $-1 #
coedge $-1 $405 $151 $153 $265 forward $93 $-1 #
coedge $-1 $151 $405 $401 $406 forward $93 $-1 #
coedge $-1 $403 $154 $151 $262 forward $256 $-1 #
edge $-1 $268 -4.1680876540398408 $407 11.310404821313565 $261 $408 forward 7 unknown #
coedge $-1 $409 $410 $152 $264 forward $399 $-1 #
edge $-1 $411 -17.410072642766089 $267 -11.619615038432123 $263 $412 forward 7 unknown #
edge $-1 $268 -83.971286433056349 $411 -73.87593147314513 $153 $413 forward 7 unknown #
coedge $-1 $154 $403 $409 $414 reversed $256 $-1 #
vertex $-1 $414 $415 #
vertex $-1 $155 $416 #
straight-curve $-1 0.59692907040297882 41.985643216528175 79.785137469431305 0 0 -1 I I #
coedge $-1 $270 $270 $-1 $417 reversed $158 $-1 #
edge $-1 $418 0 $418 6.2831853071796004 $159 $419 forward 7 unknown #
vertex $-1 $162 $420 #
ellipse-curve $-1 -10.459136983420883 39.090414414361206 15.524132080965801 0 0.81915205242281985 0.57357642473473569 2 0 0 1 I I #
coedge $-1 $274 $274 $-1 $421 reversed $165 $-1 #
edge $-1 $422 0 $422 6.2831853071796004 $166 $423 forward 7 unknown #
vertex $-1 $169 $424 #
ellipse-curve $-1 -3.8254973511265717 39.090414414361206 15.524132080965801 0 0.81915205242281985 0.57357642473473569 2 0 0 1 I I #
face $-1 $-1 $290 $36 $-1 $425 reversed single #
loop $-1 $-1 $426 $170 #
plane-surface $-1 0 0 19.658947448639896 0 0 1 1 0 0 forward_v I I I I #
coedge $-1 $427 $428 $429 $430 reversed $171 $-1 #
coedge $-1 $431 $173 $175 $288 forward $107 $-1 #
coedge $-1 $173 $431 $427 $432 forward $107 $-1 #
coedge $-1 $429 $176 $173 $285 forward $290 $-1 #
edge $-1 $292 -8.5722834775684937 $433 2.8574278258561741 $284 $434 forward 7 unknown #
coedge $-1 $435 $436 $174 $287 forward $279 $-1 #
edge $-1 $437 -40.600559115406256 $291 -17.709532915768335 $286 $438 forward 7 unknown #
edge $-1 $292 0 $437 27.611566824943395 $175 $439 forward 7 unknown #
coedge $-1 $176 $429 $435 $440 reversed $290 $-1 #
loop $-1 $-1 $429 $278 #
vertex $-1 $440 $441 #
vertex $-1 $177 $442 #
straight-curve $-1 -11.429711303424654 -41.985643216528175 59.48797663473831 0 0 -1 I I #
coedge $-1 $294 $294 $-1 $443 reversed $180 $-1 #
edge $-1 $444 0 $444 6.2831853071796004 $181 $445 forward 7 unknown #
vertex $-1 $184 $446 #
ellipse-curve $-1 -5.7148556517123197 -30.5401301167092 11.938851237195951 0 -0.55919291073839883 0.82903756765294845 2.5 0 0 1 I I #
face $-1 $-1 $311 $38 $-1 $447 reversed single #
loop $-1 $-1 $448 $185 #
plane-surface $-1 1.4210854715202004e-014 -119.39035226459302 118.97595326947662 -1 0 0 0 -0.55919291073839883 0.82903756765294845 forward_v I I I I #
coedge $-1 $449 $450 $190 $308 forward $186 $-1 #
coedge $-1 $306 $188 $449 $451 reversed $116 $-1 #
coedge $-1 $188 $306 $310 $452 reversed $116 $-1 #
coedge $-1 $448 $453 $188 $305 forward $299 $-1 #
edge $-1 $454 -27.611566824943395 $455 0 $304 $456 forward 7 unknown #
coedge $-1 $303 $302 $189 $307 forward $116 $-1 #
edge $-1 $457 -27.611566824943395 $312 0 $189 $458 forward 7 unknown #
edge $-1 $313 17.709532915768335 $457 40.600559115406256 $301 $459 forward 7 unknown #
coedge $-1 $460 $191 $450 $461 reversed $311 $-1 #
coedge $-1 $191 $460 $303 $452 forward $311 $-1 #
loop $-1 $-1 $191 $298 #
vertex $-1 $192 $462 #
vertex $-1 $308 $463 #
straight-curve $-1 11.429711303424661 -41.985643216528175 59.48797663473831 0 0 1 I I #
coedge $-1 $315 $315 $-1 $464 reversed $195 $-1 #
edge $-1 $465 0 $465 6.2831853071796004 $196 $466 forward 7 unknown #
vertex $-1 $199 $467 #
ellipse-curve $-1 5.7148556517123268 -30.5401301167092 11.938851237195951 0 -0.55919291073839883 0.82903756765294845 2.5 0 0 1 I I #
face $-1 $-1 $215 $30 $-1 $468 reversed single #
loop $-1 $-1 $335 $200 #
plane-surface $-1 0 41.985643216528175 0 0 -1 0 0 0 -1 forward_v I I I I #
coedge $-1 $469 $333 $336 $470 forward $201 $-1 #
coedge $-1 $339 $203 $204 $327 reversed $125 $-1 #
coedge $-1 $333 $469 $203 $325 reversed $201 $-1 #
edge $-1 $340 -19.658947448639896 $471 19.658947448639896 $324 $472 forward 7 unknown #
coedge $-1 $205 $204 $469 $473 forward $81 $-1 #
edge $-1 $331 -69.211096530045467 $471 69.211096530045467 $323 $474 forward 7 unknown #
coedge $-1 $336 $335 $205 $329 reversed $320 $-1 #
edge $-1 $475 -69.211096530045467 $330 69.211096530045467 $328 $476 forward 7 unknown #
vertex $-1 $207 $477 #
vertex $-1 $342 $478 #
straight-curve $-1 69.211096530045467 0 -19.658947448639896 0 -1 0 I I #
coedge $-1 $322 $324 $208 $334 reversed $201 $-1 #
edge $-1 $337 -41.985643216528175 $340 41.985643216528175 $333 $479 forward 7 unknown #
coedge $-1 $328 $209 $214 $343 forward $320 $-1 #
coedge $-1 $209 $328 $322 $470 reversed $320 $-1 #
vertex $-1 $210 $480 #
straight-curve $-1 0 41.985643216528175 19.658947448639896 -1 0 0 I I #
coedge $-1 $211 $323 $213 $342 reversed $125 $-1 #
vertex $-1 $334 $481 #
straight-curve $-1 0 -41.985643216528175 19.658947448639896 1 0 0 I I #
edge $-1 $216 -19.658947448639896 $331 19.658947448639896 $213 $482 forward 7 unknown #
edge $-1 $217 -19.658947448639896 $330 19.658947448639896 $214 $483 forward 7 unknown #
point $-1 69.211096530045467 -41.985643216528175 19.658947448639896 #
point $-1 69.211096530045467 41.985643216528175 19.658947448639896 #
face $-1 $-1 $363 $31 $-1 $484 reversed single #
loop $-1 $-1 $485 $219 #
plane-surface $-1 -69.211096530045467 0 0 1 0 0 0 0 -1 forward_v I I I I #
coedge $-1 $350 $366 $223 $353 forward $220 $-1 #
coedge $-1 $230 $349 $222 $351 forward $220 $-1 #
edge $-1 $357 -5.522670417438265 $233 4.5668867359104421 $350 $486 forward 7 unknown #
coedge $-1 $224 $223 $485 $487 reversed $85 $-1 #
edge $-1 $488 -39.883594979236946 $357 -18.771408122380105 $349 $489 forward 7 unknown #
coedge $-1 $362 $361 $224 $355 forward $363 $-1 #
edge $-1 $356 18.771408122380105 $490 39.883594979236946 $354 $491 forward 7 unknown #
vertex $-1 $355 $492 #
vertex $-1 $353 $493 #
straight-curve $-1 -48.098909673188629 0 -6.0005622582021765 0 -1 0 I I #
coedge $-1 $494 $495 $227 $360 forward $347 $-1 #
edge $-1 $367 -41.985643216528175 $364 41.985643216528175 $359 $496 forward 7 unknown #
coedge $-1 $354 $228 $232 $369 forward $363 $-1 #
coedge $-1 $228 $354 $494 $497 reversed $363 $-1 #
loop $-1 $-1 $354 $346 #
vertex $-1 $497 $498 #
straight-curve $-1 -29.327501550808524 41.985643216528175 4.0889948951465307 1 0 0 I I #
coedge $-1 $349 $230 $495 $499 forward $220 $-1 #
vertex $-1 $499 $500 #
straight-curve $-1 -29.327501550808524 -41.985643216528175 4.0889948951465307 -1 0 0 I I #
edge $-1 $234 -4.5668867359104421 $356 5.522670417438265 $361 $501 forward 7 unknown #
point $-1 -48.098909673188629 -41.985643216528175 4.0889948951465307 #
point $-1 -48.098909673188629 41.985643216528175 4.0889948951465307 #
face $-1 $-1 $251 $32 $-1 $502 reversed single #
loop $-1 $-1 $245 $236 #
plane-surface $-1 0 41.985643216528175 0 0 -1 0 0 0 -1 forward_v I I I I #
coedge $-1 $503 $239 $379 $504 reversed $141 $-1 #
coedge $-1 $239 $503 $244 $387 reversed $141 $-1 #
coedge $-1 $245 $382 $239 $378 forward $373 $-1 #
edge $-1 $505 -5.522670417438265 $389 4.5668867359104421 $377 $506 forward 7 unknown #
coedge $-1 $241 $240 $375 $504 forward $89 $-1 #
coedge $-1 $392 $391 $240 $381 forward $237 $-1 #
edge $-1 $507 18.771408122380102 $384 39.883594979236946 $380 $508 forward 7 unknown #
coedge $-1 $377 $388 $241 $383 forward $373 $-1 #
edge $-1 $385 -39.883594979236946 $505 -18.771408122380102 $382 $509 forward 7 unknown #
vertex $-1 $243 $510 #
vertex $-1 $243 $511 #
straight-curve $-1 69.211096530045467 0 -6.0005622582021765 0 1 0 I I #
edge $-1 $389 -41.985643216528175 $393 41.985643216528175 $376 $512 forward 7 unknown #
coedge $-1 $382 $245 $250 $396 forward $373 $-1 #
vertex $-1 $246 $513 #
straight-curve $-1 29.32750155080852 41.985643216528175 4.0889948951465307 1 0 0 I I #
coedge $-1 $380 $247 $503 $514 forward $237 $-1 #
coedge $-1 $247 $380 $249 $395 reversed $237 $-1 #
vertex $-1 $248 $515 #
straight-curve $-1 29.32750155080852 -41.985643216528175 4.0889948951465307 -1 0 0 I I #
edge $-1 $253 -4.0889948951465307 $384 6.0005622582021765 $249 $516 forward 7 unknown #
edge $-1 $252 -4.0889948951465307 $385 6.0005622582021765 $250 $517 forward 7 unknown #
point $-1 69.211096530045467 41.985643216528175 4.0889948951465307 #
point $-1 69.211096530045467 -41.985643216528175 4.0889948951465307 #
loop $-1 $-1 $263 $255 #
plane-surface $-1 0 0 19.658947448639896 0 0 1 1 0 0 forward_v I I I I #
coedge $-1 $402 $258 $260 $406 reversed $149 $-1 #
coedge $-1 $258 $401 $518 $519 reversed $149 $-1 #
coedge $-1 $266 $261 $258 $404 forward $256 $-1 #
edge $-1 $407 -68.395820756139585 $520 -60.126190020791412 $403 $521 forward 7 unknown #
coedge $-1 $260 $259 $410 $522 reversed $93 $-1 #
edge $-1 $523 73.87593147314513 $407 83.971286433056349 $401 $524 forward 7 unknown #
vertex $-1 $262 $525 #
straight-curve $-1 -3.571158583636862 41.985643216528175 11.389316713291713 -1 0 0 I I #
coedge $-1 $518 $263 $266 $414 forward $399 $-1 #
coedge $-1 $263 $518 $405 $522 forward $399 $-1 #
vertex $-1 $264 $526 #
straight-curve $-1 0.59692907040297882 53.605258254960297 19.658947448639893 0 1 0 I I #
straight-curve $-1 0.59692907040297882 -6.1783070361206995 80.174568339514309 0 -0.57357642473473569 0.81915205242281985 I I #
edge $-1 $267 -0.59692907040297882 $520 14.881563404950427 $266 $527 forward 7 unknown #
point $-1 0.59692907040297882 41.985643216528175 19.658947448639896 #
point $-1 0.59692907040297882 41.985643216528175 11.38931671329172 #
edge $-1 $528 1 $528 0 $270 $-1 forward 7 unknown #
vertex $-1 $271 $529 #
ellipse-curve $-1 -10.459136983420883 35.290670859688717 12.863523081022841 0 0.81915205242281985 0.57357642473473569 2 0 0 1 I I #
point $-1 -8.4591369834208834 39.09041441436122 15.524132080965813 #
edge $-1 $530 1 $530 0 $274 $-1 forward 7 unknown #
vertex $-1 $275 $531 #
ellipse-curve $-1 -3.8254973511265717 35.290670859688717 12.863523081022841 0 0.81915205242281985 0.57357642473473569 2 0 0 1 I I #
point $-1 -1.8254973511265717 39.09041441436122 15.524132080965813 #
plane-surface $-1 0 -41.985643216528175 0 0 1 0 0 0 1 forward_v I I I I #
coedge $-1 $436 $435 $428 $532 forward $279 $-1 #
coedge $-1 $428 $281 $283 $432 reversed $171 $-1 #
coedge $-1 $281 $427 $426 $532 reversed $171 $-1 #
coedge $-1 $289 $284 $281 $430 forward $290 $-1 #
edge $-1 $433 -55.269221608986321 $533 -39.82902918609841 $429 $534 forward 7 unknown #
coedge $-1 $283 $282 $436 $535 reversed $107 $-1 #
edge $-1 $536 -27.611566824943395 $433 0 $427 $537 forward 7 unknown #
vertex $-1 $285 $538 #
straight-curve $-1 -2.8574278258561598 -41.985643216528175 4.218755025751987 1 0 0 I I #
coedge $-1 $426 $286 $289 $440 forward $279 $-1 #
coedge $-1 $286 $426 $431 $535 forward $279 $-1 #
vertex $-1 $287 $539 #
straight-curve $-1 -11.429711303424654 -59.69517613229651 19.658947448639893 0 -1 0 I I #
straight-curve $-1 -11.429711303424654 -41.985643216528175 4.2187550257519888 0 0.82903756765294845 0.55919291073839883 I I #
edge $-1 $291 -11.429711303424654 $533 1.4210854715202004e-014 $289 $540 forward 7 unknown #
point $-1 -11.429711303424654 -41.985643216528175 19.658947448639896 #
point $-1 -11.429711303424654 -41.985643216528175 4.2187550257519888 #
edge $-1 $541 1 $541 0 $294 $-1 forward 7 unknown #
vertex $-1 $295 $542 #
ellipse-curve $-1 -5.7148556517123197 -26.996985057801457 6.6859227664117213 0 -0.55919291073839883 0.82903756765294845 2.5 0 0 1 I I #
point $-1 -3.2148556517123197 -30.540130116709182 11.938851237195923 #
plane-surface $-1 0 -41.985643216528175 0 0 1 0 0 0 1 forward_v I I I I #
coedge $-1 $453 $304 $460 $543 reversed $299 $-1 #
coedge $-1 $544 $301 $302 $451 forward $186 $-1 #
coedge $-1 $301 $544 $309 $461 forward $186 $-1 #
edge $-1 $457 -14.287139129280821 $454 -2.8574278258561741 $449 $545 forward 7 unknown #
edge $-1 $455 2.8574278258561741 $312 14.287139129280821 $310 $546 forward 7 unknown #
coedge $-1 $304 $448 $544 $547 reversed $299 $-1 #
vertex $-1 $451 $548 #
vertex $-1 $452 $549 #
straight-curve $-1 1.4210854715202004e-014 -41.985643216528175 4.2187550257519888 0 -0.82903756765294845 -0.55919291073839883 I I #
vertex $-1 $308 $550 #
straight-curve $-1 11.429711303424661 -41.985643216528175 4.2187550257519888 0 -0.82903756765294845 -0.55919291073839883 I I #
straight-curve $-1 11.429711303424661 -59.69517613229651 19.658947448639893 0 1 0 I I #
coedge $-1 $310 $309 $448 $543 forward $311 $-1 #
edge $-1 $551 1.4210854715202004e-014 $313 11.429711303424661 $309 $552 forward 7 unknown #
point $-1 11.429711303424661 -41.985643216528175 4.2187550257519888 #
point $-1 11.429711303424661 -41.985643216528175 19.658947448639896 #
edge $-1 $553 1 $553 0 $315 $-1 forward 7 unknown #
vertex $-1 $316 $554 #
ellipse-curve $-1 5.7148556517123268 -26.996985057801457 6.6859227664117213 0 -0.55919291073839883 0.82903756765294845 2.5 0 0 1 I I #
point $-1 8.2148556517123268 -30.540130116709182 11.938851237195923 #
plane-surface $-1 69.211096530045467 0 0 -1 0 0 0 0 1 forward_v I I I I #
coedge $-1 $324 $322 $326 $473 reversed $201 $-1 #
edge $-1 $337 -19.658947448639896 $475 19.658947448639896 $336 $555 forward 7 unknown #
vertex $-1 $473 $556 #
straight-curve $-1 -69.211096530045467 -41.985643216528175 0 0 0 -1 I I #
edge $-1 $471 -41.985643216528175 $475 41.985643216528175 $469 $557 forward 7 unknown #
straight-curve $-1 0 -41.985643216528175 -19.658947448639896 -1 0 0 I I #
vertex $-1 $329 $558 #
straight-curve $-1 0 41.985643216528175 -19.658947448639896 1 0 0 I I #
point $-1 69.211096530045467 41.985643216528175 -19.658947448639896 #
point $-1 69.211096530045467 -41.985643216528175 -19.658947448639896 #
straight-curve $-1 -69.211096530045467 0 19.658947448639896 0 -1 0 I I #
point $-1 -69.211096530045467 41.985643216528175 19.658947448639896 #
point $-1 -69.211096530045467 -41.985643216528175 19.658947448639896 #
straight-curve $-1 69.211096530045467 -41.985643216528175 0 0 0 -1 I I #
straight-curve $-1 69.211096530045467 41.985643216528175 0 0 0 -1 I I #
plane-surface $-1 0 41.985643216528175 0 0 -1 0 0 0 -1 forward_v I I I I #
coedge $-1 $495 $494 $352 $487 forward $347 $-1 #
straight-curve $-1 -48.098909673188629 -41.985643216528175 -0.47789184076391145 0 0 1 I I #
edge $-1 $490 -41.985643216528175 $488 41.985643216528175 $485 $559 forward 7 unknown #
vertex $-1 $353 $560 #
straight-curve $-1 -29.327501550808524 -41.985643216528175 -6.0005622582021765 1 0 0 I I #
vertex $-1 $355 $561 #
straight-curve $-1 -29.327501550808524 41.985643216528175 -6.0005622582021765 -1 0 0 I I #
point $-1 -48.098909673188629 41.985643216528175 -6.0005622582021765 #
point $-1 -48.098909673188629 -41.985643216528175 -6.0005622582021765 #
coedge $-1 $485 $359 $362 $497 forward $347 $-1 #
coedge $-1 $359 $485 $366 $499 reversed $347 $-1 #
straight-curve $-1 -69.211096530045467 0 4.0889948951465307 0 1 0 I I #
edge $-1 $364 -4.0889948951465307 $490 6.0005622582021765 $362 $562 forward 7 unknown #
point $-1 -69.211096530045467 41.985643216528175 4.0889948951465307 #
edge $-1 $367 -4.0889948951465307 $488 6.0005622582021765 $495 $563 forward 7 unknown #
point $-1 -69.211096530045467 -41.985643216528175 4.0889948951465307 #
straight-curve $-1 -48.098909673188629 41.985643216528175 -0.47789184076391145 0 0 -1 I I #
plane-surface $-1 69.211096530045467 0 0 -1 0 0 0 0 1 forward_v I I I I #
coedge $-1 $376 $375 $391 $514 reversed $141 $-1 #
edge $-1 $507 -41.985643216528175 $505 41.985643216528175 $375 $564 forward 7 unknown #
vertex $-1 $383 $565 #
straight-curve $-1 48.098909673188622 41.985643216528175 -0.47789184076391145 0 0 1 I I #
vertex $-1 $381 $566 #
straight-curve $-1 29.32750155080852 -41.985643216528175 -6.0005622582021765 1 0 0 I I #
straight-curve $-1 29.32750155080852 41.985643216528175 -6.0005622582021765 -1 0 0 I I #
point $-1 69.211096530045467 -41.985643216528175 -6.0005622582021765 #
point $-1 69.211096530045467 41.985643216528175 -6.0005622582021765 #
straight-curve $-1 48.098909673188622 0 4.0889948951465307 0 -1 0 I I #
point $-1 48.098909673188622 41.985643216528175 4.0889948951465307 #
edge $-1 $393 -4.5668867359104421 $507 5.522670417438265 $391 $567 forward 7 unknown #
point $-1 48.098909673188622 -41.985643216528175 4.0889948951465307 #
straight-curve $-1 69.211096530045467 -41.985643216528175 0 0 0 -1 I I #
straight-curve $-1 69.211096530045467 41.985643216528175 0 0 0 -1 I I #
coedge $-1 $410 $409 $402 $519 forward $399 $-1 #
edge $-1 $520 11.619615038432123 $523 17.410072642766089 $518 $568 forward 7 unknown #
vertex $-1 $519 $569 #
straight-curve $-1 -14.881563404950427 41.985643216528175 79.785137469431305 0 0 1 I I #
edge $-1 $523 -11.310404821313565 $411 4.1680876540398408 $410 $570 forward 7 unknown #
vertex $-1 $522 $571 #
straight-curve $-1 -14.881563404950427 -6.1783070361206995 80.174568339514309 0 0.57357642473473569 -0.81915205242281985 I I #
point $-1 -14.881563404950427 41.985643216528175 11.38931671329172 #
point $-1 0.59692907040297882 36.195185612194209 19.658947448639893 #
straight-curve $-1 0 41.985643216528175 19.658947448639896 -1 0 0 I I #
vertex $-1 $417 $572 #
point $-1 -8.4591369834208834 35.290670859688717 12.863523081022841 #
vertex $-1 $421 $573 #
point $-1 -1.8254973511265717 35.290670859688717 12.863523081022841 #
edge $-1 $533 17.709532915768335 $536 40.600559115406256 $426 $574 forward 7 unknown #
vertex $-1 $430 $575 #
straight-curve $-1 1.4210854715202004e-014 -41.985643216528175 59.48797663473831 0 0 1 I I #
edge $-1 $536 -2.8574278258561741 $437 8.5722834775684937 $436 $576 forward 7 unknown #
vertex $-1 $535 $577 #
straight-curve $-1 1.4210854715202004e-014 -41.985643216528175 4.2187550257519888 0 -0.82903756765294845 -0.55919291073839883 I I #
point $-1 1.4210854715202004e-014 -41.985643216528175 4.2187550257519888 #
point $-1 -11.429711303424654 -19.094617016890254 19.658947448639896 #
straight-curve $-1 0 -41.985643216528175 19.658947448639896 1 0 0 I I #
vertex $-1 $443 $578 #
point $-1 -3.2148556517123197 -26.996985057801457 6.6859227664117213 #
edge $-1 $551 39.82902918609841 $455 55.269221608986321 $460 $579 forward 7 unknown #
coedge $-1 $450 $449 $453 $547 forward $186 $-1 #
straight-curve $-1 -2.8574278258561598 -19.094617016890254 19.658947448639896 -1 0 0 I I #
straight-curve $-1 -2.8574278258561598 -41.985643216528175 4.218755025751987 1 0 0 I I #
edge $-1 $454 -40.600559115406256 $551 -17.709532915768335 $544 $580 forward 7 unknown #
point $-1 1.4210854715202004e-014 -19.094617016890254 19.658947448639896 #
point $-1 1.4210854715202004e-014 -41.985643216528175 4.2187550257519888 #
point $-1 11.429711303424661 -19.094617016890254 19.658947448639896 #
vertex $-1 $461 $581 #
straight-curve $-1 0 -41.985643216528175 19.658947448639896 1 0 0 I I #
vertex $-1 $464 $582 #
point $-1 8.2148556517123268 -26.996985057801457 6.6859227664117213 #
straight-curve $-1 -69.211096530045467 41.985643216528175 0 0 0 -1 I I #
point $-1 -69.211096530045467 -41.985643216528175 -19.658947448639896 #
straight-curve $-1 -69.211096530045467 0 -19.658947448639896 0 1 0 I I #
point $-1 -69.211096530045467 41.985643216528175 -19.658947448639896 #
straight-curve $-1 -69.211096530045467 0 -6.0005622582021765 0 -1 0 I I #
point $-1 -69.211096530045467 -41.985643216528175 -6.0005622582021765 #
point $-1 -69.211096530045467 41.985643216528175 -6.0005622582021765 #
straight-curve $-1 -69.211096530045467 41.985643216528175 0 0 0 -1 I I #
straight-curve $-1 -69.211096530045467 -41.985643216528175 0 0 0 -1 I I #
straight-curve $-1 48.098909673188622 0 -6.0005622582021765 0 1 0 I I #
point $-1 48.098909673188622 41.985643216528175 -6.0005622582021765 #
point $-1 48.098909673188622 -41.985643216528175 -6.0005622582021765 #
straight-curve $-1 48.098909673188622 -41.985643216528175 -0.47789184076391145 0 0 -1 I I #
straight-curve $-1 -14.881563404950427 53.605258254960297 19.658947448639893 0 -1 0 I I #
point $-1 -14.881563404950427 41.985643216528175 19.658947448639896 #
straight-curve $-1 -3.571158583636862 36.195185612194209 19.6589474486399 1 0 0 I I #
point $-1 -14.881563404950427 36.195185612194209 19.658947448639893 #
point $-1 -10.459136983420883 33.652366754843072 11.71637023155337 #
point $-1 -3.8254973511265717 33.652366754843072 11.71637023155337 #
straight-curve $-1 1.4210854715202004e-014 -59.69517613229651 19.658947448639893 0 1 0 I I #
point $-1 1.4210854715202004e-014 -41.985643216528175 19.658947448639896 #
straight-curve $-1 -2.8574278258561598 -19.094617016890254 19.658947448639896 -1 0 0 I I #
point $-1 1.4210854715202004e-014 -19.094617016890254 19.658947448639896 #
point $-1 -5.7148556517123197 -25.599002780955455 4.6133288472793481 #
straight-curve $-1 1.4210854715202004e-014 -41.985643216528175 59.48797663473831 0 0 -1 I I #
straight-curve $-1 1.4210854715202004e-014 -59.69517613229651 19.658947448639893 0 -1 0 I I #
point $-1 1.4210854715202004e-014 -41.985643216528175 19.658947448639896 #
point $-1 5.7148556517123268 -25.599002780955455 4.6133288472793481 #
End-of-ACIS-data 