500 0 18 0           
7 Unknown 11 ACIS 5.0 NT 24 Thu Mar 25 20:35:27 1999 
-1 9.9999999999999995e-007 1e-010 
body $-1 $18 $-1 $19 #
body $-1 $20 $-1 $21 #
body $-1 $22 $-1 $23 #
body $-1 $24 $-1 $25 #
body $-1 $26 $-1 $27 #
body $-1 $28 $-1 $29 #
body $-1 $30 $-1 $31 #
body $-1 $32 $-1 $33 #
body $-1 $34 $-1 $35 #
body $-1 $36 $-1 $37 #
body $-1 $38 $-1 $39 #
body $-1 $40 $-1 $41 #
body $-1 $42 $-1 $43 #
body $-1 $44 $-1 $45 #
body $-1 $46 $-1 $47 #
body $-1 $48 $-1 $49 #
body $-1 $50 $-1 $51 #
body $-1 $52 $-1 $53 #
lump $-1 $-1 $54 $0 #
transform $-1 1 0 0 0 1 0 0 0 1 69.955748161259805 29.975484068829989 11.748501593138096 1 rotate no_reflect no_shear #
lump $-1 $-1 $55 $1 #
transform $-1 1 0 0 0 1 0 0 0 1 69.955748161259805 29.975484068829989 11.748501593138096 1 rotate no_reflect no_shear #
lump $-1 $-1 $56 $2 #
transform $-1 1 0 0 0 1 0 0 0 1 69.955748161259805 29.975484068829989 11.748501593138096 1 rotate no_reflect no_shear #
lump $-1 $-1 $57 $3 #
transform $-1 1 0 0 0 1 0 0 0 1 69.955748161259805 29.975484068829989 11.748501593138096 1 rotate no_reflect no_shear #
lump $-1 $-1 $58 $4 #
transform $-1 1 0 0 0 1 0 0 0 1 69.955748161259805 29.975484068829989 11.748501593138096 1 rotate no_reflect no_shear #
lump $-1 $-1 $59 $5 #
transform $-1 1 0 0 0 1 0 0 0 1 69.955748161259805 29.975484068829989 11.748501593138096 1 rotate no_reflect no_shear #
lump $-1 $-1 $60 $6 #
transform $-1 1 0 0 0 1 0 0 0 1 69.955748161259805 29.975484068829989 11.748501593138096 1 rotate no_reflect no_shear #
lump $-1 $-1 $61 $7 #
transform $-1 1 0 0 0 1 0 0 0 1 69.955748161259805 29.975484068829989 11.748501593138096 1 rotate no_reflect no_shear #
lump $-1 $-1 $62 $8 #
transform $-1 1 0 0 0 1 0 0 0 1 69.955748161259805 29.975484068829989 11.748501593138096 1 rotate no_reflect no_shear #
lump $-1 $-1 $63 $9 #
transform $-1 1 0 0 0 1 0 0 0 1 69.955748161259805 29.975484068829989 11.748501593138096 1 rotate no_reflect no_shear #
lump $-1 $-1 $64 $10 #
transform $-1 1 0 0 0 1 0 0 0 1 69.955748161259805 29.975484068829989 11.748501593138096 1 rotate no_reflect no_shear #
lump $-1 $-1 $65 $11 #
transform $-1 1 0 0 0 1 0 0 0 1 69.955748161259805 29.975484068829989 11.748501593138096 1 rotate no_reflect no_shear #
lump $-1 $-1 $66 $12 #
transform $-1 1 0 0 0 1 0 0 0 1 69.955748161259805 29.975484068829989 11.748501593138096 1 rotate no_reflect no_shear #
lump $-1 $-1 $67 $13 #
transform $-1 1 0 0 0 1 0 0 0 1 69.955748161259805 29.975484068829989 11.748501593138096 1 rotate no_reflect no_shear #
lump $-1 $-1 $68 $14 #
transform $-1 1 0 0 0 1 0 0 0 1 69.955748161259805 29.975484068829989 11.748501593138096 1 rotate no_reflect no_shear #
lump $-1 $-1 $69 $15 #
transform $-1 1 0 0 0 1 0 0 0 1 69.955748161259805 29.975484068829989 11.748501593138096 1 rotate no_reflect no_shear #
lump $-1 $-1 $70 $16 #
transform $-1 1 0 0 0 1 0 0 0 1 69.955748161259805 29.975484068829989 11.748501593138096 1 rotate no_reflect no_shear #
lump $-1 $-1 $71 $17 #
transform $-1 1 0 0 0 1 0 0 0 1 69.955748161259805 29.975484068829989 11.748501593138096 1 rotate no_reflect no_shear #
shell $-1 $-1 $-1 $72 $-1 $18 #
shell $-1 $-1 $-1 $73 $-1 $20 #
shell $-1 $-1 $-1 $74 $-1 $22 #
shell $-1 $-1 $-1 $75 $-1 $24 #
shell $-1 $-1 $-1 $76 $-1 $26 #
shell $-1 $-1 $-1 $77 $-1 $28 #
shell $-1 $-1 $-1 $78 $-1 $30 #
shell $-1 $-1 $-1 $79 $-1 $32 #
shell $-1 $-1 $-1 $80 $-1 $34 #
shell $-1 $-1 $-1 $81 $-1 $36 #
shell $-1 $-1 $-1 $82 $-1 $38 #
shell $-1 $-1 $-1 $83 $-1 $40 #
shell $-1 $-1 $-1 $84 $-1 $42 #
shell $-1 $-1 $-1 $85 $-1 $44 #
shell $-1 $-1 $-1 $86 $-1 $46 #
shell $-1 $-1 $-1 $87 $-1 $48 #
shell $-1 $-1 $-1 $88 $-1 $50 #
shell $-1 $-1 $-1 $89 $-1 $52 #
face $-1 $90 $91 $54 $-1 $92 reversed single #
face $-1 $93 $94 $55 $-1 $95 forward single #
face $-1 $96 $97 $56 $-1 $98 forward single #
face $-1 $99 $100 $57 $-1 $101 reversed single #
face $-1 $102 $103 $58 $-1 $104 forward single #
face $-1 $105 $106 $59 $-1 $107 forward single #
face $-1 $108 $109 $60 $-1 $110 reversed single #
face $-1 $111 $112 $61 $-1 $113 forward single #
face $-1 $114 $115 $62 $-1 $116 forward single #
face $-1 $117 $118 $63 $-1 $119 forward single #
face $-1 $120 $121 $64 $-1 $122 reversed single #
face $-1 $123 $124 $65 $-1 $125 forward single #
face $-1 $126 $127 $66 $-1 $128 forward single #
face $-1 $129 $130 $67 $-1 $131 forward single #
face $-1 $132 $133 $68 $-1 $134 reversed single #
face $-1 $135 $136 $69 $-1 $137 forward single #
face $-1 $138 $139 $70 $-1 $140 forward single #
face $-1 $141 $142 $71 $-1 $143 forward single #
face $-1 $144 $145 $54 $-1 $146 forward single #
loop $-1 $-1 $147 $72 #
plane-surface $-1 0 -29.975484068829989 0 0 1 0 0 0 1 forward_v I I I I #
face $-1 $148 $149 $55 $-1 $150 reversed single #
loop $-1 $-1 $151 $73 #
plane-surface $-1 0 -29.975484068829989 0 0 1 0 0 0 1 forward_v I I I I #
face $-1 $152 $153 $56 $-1 $154 reversed single #
loop $-1 $-1 $155 $74 #
plane-surface $-1 0 29.975484068829989 0 0 -1 0 0 0 -1 forward_v I I I I #
face $-1 $156 $157 $57 $-1 $158 reversed single #
loop $-1 $-1 $159 $75 #
plane-surface $-1 39.002885906440312 19.91943073369811 196.24862274875733 0 -1 0 -0.5877852598018023 0 -0.80901698891910034 forward_v I I I I #
face $-1 $160 $161 $58 $-1 $162 forward single #
loop $-1 $163 $164 $76 #
cone-surface $-1 62.078396463093249 15.362064202851979 5.7936627095279398 -0.5877852598018023 0 -0.80901698891910034 0.40450849445955017 0 -0.29389262990090115 1 I I 0 1 0.5 forward I I I I #
face $-1 $165 $166 $59 $-1 $167 forward single #
loop $-1 $168 $169 $77 #
cone-surface $-1 62.078396463093249 18.096484121359655 5.7936627095279398 -0.5877852598018023 0 -0.80901698891910034 0.40450849445955017 0 -0.29389262990090115 1 I I 0 1 0.5 forward I I I I #
face $-1 $170 $171 $60 $-1 $172 reversed single #
loop $-1 $-1 $173 $78 #
plane-surface $-1 -180.20751297150019 -10.748928781730338 90.735438730961292 0 1 0 -0.78801076186113728 0 0.61566146476048833 forward_v I I I I #
face $-1 $174 $175 $61 $-1 $176 forward single #
loop $-1 $177 $178 $79 #
cone-surface $-1 -66.768185930767984 -9.3159090617317979 7.8650810482924003 0.78801076186113728 0 -0.61566146476048833 0.15391536619012208 0 0.19700269046528432 1 I I 0 1 0.25 forward I I I I #
face $-1 $179 $180 $62 $-1 $181 forward single #
loop $-1 $182 $183 $80 #
cone-surface $-1 -66.768185930767984 -7.166379481733987 7.8650810482924003 0.78801076186113728 0 -0.61566146476048833 0.15391536619012208 0 0.19700269046528432 1 I I 0 1 0.25 forward I I I I #
face $-1 $184 $185 $63 $-1 $186 forward single #
loop $-1 $187 $188 $81 #
cone-surface $-1 -66.768185930767984 -5.0168499017361761 7.8650810482924003 0.78801076186113728 0 -0.61566146476048833 0.15391536619012208 0 0.19700269046528432 1 I I 0 1 0.25 forward I I I I #
face $-1 $189 $190 $64 $-1 $191 reversed single #
loop $-1 $-1 $192 $82 #
plane-surface $-1 -180.20751297150019 1.0027016759875345 90.735438730961292 0 1 0 -0.78801076186113728 0 0.61566146476048833 forward_v I I I I #
face $-1 $193 $194 $65 $-1 $195 forward single #
loop $-1 $196 $197 $83 #
cone-surface $-1 -66.768185930767984 2.4357213959860751 7.8650810482924003 0.78801076186113728 0 -0.61566146476048833 0.15391536619012208 0 0.19700269046528432 1 I I 0 1 0.25 forward I I I I #
face $-1 $198 $199 $66 $-1 $200 forward single #
loop $-1 $201 $202 $84 #
cone-surface $-1 -66.768185930767984 4.585250975983886 7.8650810482924003 0.78801076186113728 0 -0.61566146476048833 0.15391536619012208 0 0.19700269046528432 1 I I 0 1 0.25 forward I I I I #
face $-1 $203 $204 $67 $-1 $205 forward single #
loop $-1 $206 $207 $85 #
cone-surface $-1 -66.768185930767984 6.7347805559816969 7.8650810482924003 0.78801076186113728 0 -0.61566146476048833 0.15391536619012208 0 0.19700269046528432 1 I I 0 1 0.25 forward I I I I #
face $-1 $208 $209 $68 $-1 $210 reversed single #
loop $-1 $-1 $211 $86 #
plane-surface $-1 -180.20751297150019 12.754332133705407 90.735438730961292 0 1 0 -0.78801076186113728 0 0.61566146476048833 forward_v I I I I #
face $-1 $212 $213 $69 $-1 $214 forward single #
loop $-1 $215 $216 $87 #
cone-surface $-1 -66.768185930767984 14.187351853703948 7.8650810482924003 0.78801076186113728 0 -0.61566146476048833 0.15391536619012208 0 0.19700269046528432 1 I I 0 1 0.25 forward I I I I #
face $-1 $217 $218 $70 $-1 $219 forward single #
loop $-1 $220 $221 $88 #
cone-surface $-1 -66.768185930767984 16.336881433701759 7.8650810482924003 0.78801076186113728 0 -0.61566146476048833 0.15391536619012208 0 0.19700269046528432 1 I I 0 1 0.25 forward I I I I #
face $-1 $222 $223 $71 $-1 $224 forward single #
loop $-1 $225 $226 $89 #
cone-surface $-1 -66.768185930767984 18.48641101369957 7.8650810482924003 0.78801076186113728 0 -0.61566146476048833 0.15391536619012208 0 0.19700269046528432 1 I I 0 1 0.25 forward I I I I #
face $-1 $227 $228 $54 $-1 $229 reversed single #
loop $-1 $-1 $230 $90 #
plane-surface $-1 0 0 11.748501593138096 0 0 1 1 0 0 forward_v I I I I #
coedge $-1 $231 $232 $233 $234 reversed $91 $-1 #
face $-1 $235 $236 $55 $-1 $237 reversed single #
loop $-1 $-1 $238 $93 #
plane-surface $-1 0 0 -11.748501593138096 0 0 1 1 0 0 forward_v I I I I #
coedge $-1 $239 $240 $241 $242 forward $94 $-1 #
face $-1 $243 $244 $56 $-1 $245 forward single #
loop $-1 $-1 $246 $96 #
plane-surface $-1 69.955748161259805 0 0 -1 0 0 0 0 1 forward_v I I I I #
coedge $-1 $247 $248 $249 $250 forward $97 $-1 #
face $-1 $251 $252 $57 $-1 $253 reversed single #
loop $-1 $-1 $254 $99 #
plane-surface $-1 -43.235029308750782 16.729274162105821 83.057845278746726 0.5877852598018023 0 0.80901698891910034 0.80901698891910034 0 -0.5877852598018023 forward_v I I I I #
coedge $-1 $255 $256 $257 $258 reversed $100 $-1 #
face $-1 $-1 $259 $58 $-1 $260 forward single #
loop $-1 $261 $262 $102 #
cone-surface $-1 61.575042438118317 15.362064202851979 5.1008553434792585 -0.5877852598018023 0 -0.80901698891910034 0.20225424722977509 0 -0.14694631495045057 1 I I -0.70710678118654746 0.70710678118654746 0.25 forward I I I I #
loop $-1 $-1 $263 $76 #
coedge $-1 $164 $164 $264 $265 reversed $103 $-1 #
face $-1 $-1 $266 $59 $-1 $267 forward single #
loop $-1 $268 $269 $105 #
cone-surface $-1 61.575042438118317 18.096484121359655 5.1008553434792585 -0.5877852598018023 0 -0.80901698891910034 0.20225424722977509 0 -0.14694631495045057 1 I I -0.70710678118654746 0.70710678118654746 0.25 forward I I I I #
loop $-1 $-1 $270 $77 #
coedge $-1 $169 $169 $271 $272 reversed $106 $-1 #
face $-1 $273 $274 $60 $-1 $275 reversed single #
loop $-1 $-1 $276 $108 #
plane-surface $-1 -69.955748161259805 -7.166379481733987 4.5973219682071971 -0.78801076186113728 0 0.61566146476048833 0.61566146476048833 0 0.78801076186113728 forward_v I I I I #
coedge $-1 $277 $278 $279 $280 reversed $109 $-1 #
face $-1 $-1 $281 $61 $-1 $282 forward single #
loop $-1 $283 $284 $111 #
cone-surface $-1 -66.275679204604771 -9.3159090617317979 7.4802926328170951 0.78801076186113728 0 -0.61566146476048833 0.076957683095061041 0 0.09850134523264216 1 I I -0.70710678118654746 0.70710678118654746 0.125 forward I I I I #
loop $-1 $-1 $285 $79 #
coedge $-1 $178 $178 $286 $287 reversed $112 $-1 #
face $-1 $-1 $288 $62 $-1 $289 forward single #
loop $-1 $290 $291 $114 #
cone-surface $-1 -66.275679204604771 -7.166379481733987 7.4802926328170951 0.78801076186113728 0 -0.61566146476048833 0.076957683095061041 0 0.09850134523264216 1 I I -0.70710678118654746 0.70710678118654746 0.125 forward I I I I #
loop $-1 $-1 $292 $80 #
coedge $-1 $183 $183 $293 $294 reversed $115 $-1 #
face $-1 $-1 $295 $63 $-1 $296 forward single #
loop $-1 $297 $298 $117 #
cone-surface $-1 -66.275679204604771 -5.0168499017361761 7.4802926328170951 0.78801076186113728 0 -0.61566146476048833 0.076957683095061041 0 0.09850134523264216 1 I I -0.70710678118654746 0.70710678118654746 0.125 forward I I I I #
loop $-1 $-1 $299 $81 #
coedge $-1 $188 $188 $300 $301 reversed $118 $-1 #
face $-1 $302 $303 $64 $-1 $304 reversed single #
loop $-1 $-1 $305 $120 #
plane-surface $-1 -69.955748161259805 4.585250975983886 4.5973219682071971 -0.78801076186113728 0 0.61566146476048833 0.61566146476048833 0 0.78801076186113728 forward_v I I I I #
coedge $-1 $306 $307 $308 $309 reversed $121 $-1 #
face $-1 $-1 $310 $65 $-1 $311 forward single #
loop $-1 $312 $313 $123 #
cone-surface $-1 -66.275679204604771 2.4357213959860751 7.4802926328170951 0.78801076186113728 0 -0.61566146476048833 0.076957683095061041 0 0.09850134523264216 1 I I -0.70710678118654746 0.70710678118654746 0.125 forward I I I I #
loop $-1 $-1 $314 $83 #
coedge $-1 $197 $197 $315 $316 reversed $124 $-1 #
face $-1 $-1 $317 $66 $-1 $318 forward single #
loop $-1 $319 $320 $126 #
cone-surface $-1 -66.275679204604771 4.585250975983886 7.4802926328170951 0.78801076186113728 0 -0.61566146476048833 0.076957683095061041 0 0.09850134523264216 1 I I -0.70710678118654746 0.70710678118654746 0.125 forward I I I I #
loop $-1 $-1 $321 $84 #
coedge $-1 $202 $202 $322 $323 reversed $127 $-1 #
face $-1 $-1 $324 $67 $-1 $325 forward single #
loop $-1 $326 $327 $129 #
cone-surface $-1 -66.275679204604771 6.7347805559816969 7.4802926328170951 0.78801076186113728 0 -0.61566146476048833 0.076957683095061041 0 0.09850134523264216 1 I I -0.70710678118654746 0.70710678118654746 0.125 forward I I I I #
loop $-1 $-1 $328 $85 #
coedge $-1 $207 $207 $329 $330 reversed $130 $-1 #
face $-1 $331 $332 $68 $-1 $333 reversed single #
loop $-1 $-1 $334 $132 #
plane-surface $-1 -69.955748161259805 16.336881433701759 4.5973219682071971 -0.78801076186113728 0 0.61566146476048833 0.61566146476048833 0 0.78801076186113728 forward_v I I I I #
coedge $-1 $335 $336 $337 $338 reversed $133 $-1 #
face $-1 $-1 $339 $69 $-1 $340 forward single #
loop $-1 $341 $342 $135 #
cone-surface $-1 -66.275679204604771 14.187351853703948 7.4802926328170951 0.78801076186113728 0 -0.61566146476048833 0.076957683095061041 0 0.09850134523264216 1 I I -0.70710678118654746 0.70710678118654746 0.125 forward I I I I #
loop $-1 $-1 $343 $87 #
coedge $-1 $216 $216 $344 $345 reversed $136 $-1 #
face $-1 $-1 $346 $70 $-1 $347 forward single #
loop $-1 $348 $349 $138 #
cone-surface $-1 -66.275679204604771 16.336881433701759 7.4802926328170951 0.78801076186113728 0 -0.61566146476048833 0.076957683095061041 0 0.09850134523264216 1 I I -0.70710678118654746 0.70710678118654746 0.125 forward I I I I #
loop $-1 $-1 $350 $88 #
coedge $-1 $221 $221 $351 $352 reversed $139 $-1 #
face $-1 $-1 $353 $71 $-1 $354 forward single #
loop $-1 $355 $356 $141 #
cone-surface $-1 -66.275679204604771 18.48641101369957 7.4802926328170951 0.78801076186113728 0 -0.61566146476048833 0.076957683095061041 0 0.09850134523264216 1 I I -0.70710678118654746 0.70710678118654746 0.125 forward I I I I #
loop $-1 $-1 $357 $89 #
coedge $-1 $226 $226 $358 $359 reversed $142 $-1 #
face $-1 $360 $361 $54 $-1 $362 reversed single #
loop $-1 $-1 $363 $144 #
plane-surface $-1 0 0 -11.748501593138096 0 0 1 1 0 0 forward_v I I I I #
coedge $-1 $364 $365 $366 $367 forward $145 $-1 #
coedge $-1 $368 $147 $369 $370 reversed $91 $-1 #
coedge $-1 $147 $368 $371 $372 forward $91 $-1 #
coedge $-1 $373 $363 $147 $234 forward $228 $-1 #
edge $-1 $374 -69.955748161259805 $375 69.955748161259805 $147 $376 forward 7 unknown #
face $-1 $377 $378 $55 $-1 $379 reversed single #
loop $-1 $-1 $380 $148 #
plane-surface $-1 -48.697188234852398 -44.615507498204472 0 0 1 0 0 0 1 forward_v I I I I #
coedge $-1 $381 $382 $240 $383 forward $149 $-1 #
coedge $-1 $384 $151 $385 $386 reversed $94 $-1 #
coedge $-1 $151 $384 $238 $383 reversed $94 $-1 #
coedge $-1 $387 $388 $151 $242 reversed $378 $-1 #
edge $-1 $389 -11.748501593138096 $390 11.748501593138096 $241 $391 forward 7 unknown #
face $-1 $392 $393 $56 $-1 $394 reversed single #
loop $-1 $-1 $395 $152 #
plane-surface $-1 0 35.003510736395924 -5.4837575233036677 0 0 1 1 0 0 forward_v I I I I #
coedge $-1 $396 $397 $248 $398 forward $153 $-1 #
coedge $-1 $399 $155 $400 $401 reversed $97 $-1 #
coedge $-1 $155 $399 $246 $398 reversed $97 $-1 #
coedge $-1 $395 $402 $155 $250 reversed $244 $-1 #
edge $-1 $403 -69.955748161259805 $404 69.955748161259805 $249 $405 forward 7 unknown #
face $-1 $406 $407 $57 $-1 $408 forward single #
loop $-1 $-1 $409 $156 #
plane-surface $-1 39.002885906440312 13.539117590513531 196.24862274875733 0 1 0 0.5877852598018023 0 0.80901698891910034 forward_v I I I I #
coedge $-1 $410 $411 $412 $413 reversed $157 $-1 #
coedge $-1 $256 $159 $414 $415 reversed $100 $-1 #
coedge $-1 $159 $255 $410 $416 reversed $100 $-1 #
coedge $-1 $412 $417 $159 $258 forward $407 $-1 #
edge $-1 $418 -50.454305208039649 $419 -35.412417231755462 $257 $420 forward 7 unknown #
loop $-1 $-1 $264 $160 #
plane-surface $-1 -43.235029308750782 16.729274162105821 83.057845278746726 0.5877852598018023 0 0.80901698891910034 0.80901698891910034 0 -0.5877852598018023 forward_v I I I I #
loop $-1 $-1 $421 $102 #
coedge $-1 $262 $262 $263 $422 reversed $161 $-1 #
coedge $-1 $263 $263 $262 $422 forward $163 $-1 #
coedge $-1 $264 $264 $164 $265 forward $259 $-1 #
edge $-1 $423 0 $423 6.2831853071796004 $264 $424 forward 7 unknown #
loop $-1 $-1 $271 $165 #
plane-surface $-1 -43.235029308750782 16.729274162105821 83.057845278746726 0.5877852598018023 0 0.80901698891910034 0.80901698891910034 0 -0.5877852598018023 forward_v I I I I #
loop $-1 $-1 $425 $105 #
coedge $-1 $269 $269 $270 $426 reversed $166 $-1 #
coedge $-1 $270 $270 $269 $426 forward $168 $-1 #
coedge $-1 $271 $271 $169 $272 forward $266 $-1 #
edge $-1 $427 0 $427 6.2831853071796004 $271 $428 forward 7 unknown #
face $-1 $429 $430 $60 $-1 $431 reversed single #
loop $-1 $-1 $432 $170 #
plane-surface $-1 -180.20751297150019 -3.5838301817376355 90.735438730961292 0 -1 0 0.78801076186113728 0 -0.61566146476048833 forward_v I I I I #
coedge $-1 $433 $434 $435 $436 reversed $171 $-1 #
coedge $-1 $278 $173 $437 $438 reversed $109 $-1 #
coedge $-1 $173 $277 $433 $439 reversed $109 $-1 #
coedge $-1 $435 $440 $173 $280 forward $441 $-1 #
edge $-1 $442 20.148008324490291 $443 25.735122023612789 $279 $444 forward 7 unknown #
loop $-1 $-1 $286 $174 #
plane-surface $-1 -69.955748161259805 -7.166379481733987 4.5973219682071971 -0.78801076186113728 0 0.61566146476048833 0.61566146476048833 0 0.78801076186113728 forward_v I I I I #
loop $-1 $-1 $445 $111 #
coedge $-1 $284 $284 $285 $446 reversed $175 $-1 #
coedge $-1 $285 $285 $284 $446 forward $177 $-1 #
coedge $-1 $286 $286 $178 $287 forward $281 $-1 #
edge $-1 $447 0 $447 6.2831853071796004 $286 $448 forward 7 unknown #
loop $-1 $-1 $293 $179 #
plane-surface $-1 -69.955748161259805 -7.166379481733987 4.5973219682071971 -0.78801076186113728 0 0.61566146476048833 0.61566146476048833 0 0.78801076186113728 forward_v I I I I #
loop $-1 $-1 $449 $114 #
coedge $-1 $291 $291 $292 $450 reversed $180 $-1 #
coedge $-1 $292 $292 $291 $450 forward $182 $-1 #
coedge $-1 $293 $293 $183 $294 forward $288 $-1 #
edge $-1 $451 0 $451 6.2831853071796004 $293 $452 forward 7 unknown #
loop $-1 $-1 $300 $184 #
plane-surface $-1 -69.955748161259805 -7.166379481733987 4.5973219682071971 -0.78801076186113728 0 0.61566146476048833 0.61566146476048833 0 0.78801076186113728 forward_v I I I I #
loop $-1 $-1 $453 $117 #
coedge $-1 $298 $298 $299 $454 reversed $185 $-1 #
coedge $-1 $299 $299 $298 $454 forward $187 $-1 #
coedge $-1 $300 $300 $188 $301 forward $295 $-1 #
edge $-1 $455 0 $455 6.2831853071796004 $300 $456 forward 7 unknown #
face $-1 $457 $458 $64 $-1 $459 forward single #
loop $-1 $-1 $460 $189 #
plane-surface $-1 -180.20751297150019 8.1678002759802375 90.735438730961292 0 -1 0 0.78801076186113728 0 -0.61566146476048833 forward_v I I I I #
coedge $-1 $461 $462 $463 $464 reversed $190 $-1 #
coedge $-1 $307 $192 $465 $466 reversed $121 $-1 #
coedge $-1 $192 $306 $461 $467 reversed $121 $-1 #
coedge $-1 $463 $468 $192 $309 forward $458 $-1 #
edge $-1 $469 20.148008324490291 $470 25.735122023612789 $308 $471 forward 7 unknown #
loop $-1 $-1 $315 $193 #
plane-surface $-1 -69.955748161259805 4.585250975983886 4.5973219682071971 -0.78801076186113728 0 0.61566146476048833 0.61566146476048833 0 0.78801076186113728 forward_v I I I I #
loop $-1 $-1 $472 $123 #
coedge $-1 $313 $313 $314 $473 reversed $194 $-1 #
coedge $-1 $314 $314 $313 $473 forward $196 $-1 #
coedge $-1 $315 $315 $197 $316 forward $310 $-1 #
edge $-1 $474 0 $474 6.2831853071796004 $315 $475 forward 7 unknown #
loop $-1 $-1 $322 $198 #
plane-surface $-1 -69.955748161259805 4.585250975983886 4.5973219682071971 -0.78801076186113728 0 0.61566146476048833 0.61566146476048833 0 0.78801076186113728 forward_v I I I I #
loop $-1 $-1 $476 $126 #
coedge $-1 $320 $320 $321 $477 reversed $199 $-1 #
coedge $-1 $321 $321 $320 $477 forward $201 $-1 #
coedge $-1 $322 $322 $202 $323 forward $317 $-1 #
edge $-1 $478 0 $478 6.2831853071796004 $322 $479 forward 7 unknown #
loop $-1 $-1 $329 $203 #
plane-surface $-1 -69.955748161259805 4.585250975983886 4.5973219682071971 -0.78801076186113728 0 0.61566146476048833 0.61566146476048833 0 0.78801076186113728 forward_v I I I I #
loop $-1 $-1 $480 $129 #
coedge $-1 $327 $327 $328 $481 reversed $204 $-1 #
coedge $-1 $328 $328 $327 $481 forward $206 $-1 #
coedge $-1 $329 $329 $207 $330 forward $324 $-1 #
edge $-1 $482 0 $482 6.2831853071796004 $329 $483 forward 7 unknown #
face $-1 $484 $485 $68 $-1 $486 forward single #
loop $-1 $-1 $487 $208 #
plane-surface $-1 -180.20751297150019 19.91943073369811 90.735438730961292 0 -1 0 0.78801076186113728 0 -0.61566146476048833 forward_v I I I I #
coedge $-1 $488 $489 $490 $491 reversed $209 $-1 #
coedge $-1 $336 $211 $492 $493 reversed $133 $-1 #
coedge $-1 $211 $335 $488 $494 reversed $133 $-1 #
coedge $-1 $490 $495 $211 $338 forward $485 $-1 #
edge $-1 $496 20.148008324490291 $497 25.735122023612789 $337 $498 forward 7 unknown #
loop $-1 $-1 $344 $212 #
plane-surface $-1 -69.955748161259805 16.336881433701759 4.5973219682071971 -0.78801076186113728 0 0.61566146476048833 0.61566146476048833 0 0.78801076186113728 forward_v I I I I #
loop $-1 $-1 $499 $135 #
coedge $-1 $342 $342 $343 $500 reversed $213 $-1 #
coedge $-1 $343 $343 $342 $500 forward $215 $-1 #
coedge $-1 $344 $344 $216 $345 forward $339 $-1 #
edge $-1 $501 0 $501 6.2831853071796004 $344 $502 forward 7 unknown #
loop $-1 $-1 $351 $217 #
plane-surface $-1 -69.955748161259805 16.336881433701759 4.5973219682071971 -0.78801076186113728 0 0.61566146476048833 0.61566146476048833 0 0.78801076186113728 forward_v I I I I #
loop $-1 $-1 $503 $138 #
coedge $-1 $349 $349 $350 $504 reversed $218 $-1 #
coedge $-1 $350 $350 $349 $504 forward $220 $-1 #
coedge $-1 $351 $351 $221 $352 forward $346 $-1 #
edge $-1 $505 0 $505 6.2831853071796004 $351 $506 forward 7 unknown #
loop $-1 $-1 $358 $222 #
plane-surface $-1 -69.955748161259805 16.336881433701759 4.5973219682071971 -0.78801076186113728 0 0.61566146476048833 0.61566146476048833 0 0.78801076186113728 forward_v I I I I #
loop $-1 $-1 $507 $141 #
coedge $-1 $356 $356 $357 $508 reversed $223 $-1 #
coedge $-1 $357 $357 $356 $508 forward $225 $-1 #
coedge $-1 $358 $358 $226 $359 forward $353 $-1 #
edge $-1 $509 0 $509 6.2831853071796004 $358 $510 forward 7 unknown #
face $-1 $511 $512 $54 $-1 $513 reversed single #
loop $-1 $-1 $514 $227 #
plane-surface $-1 -69.955748161259805 0 0 1 0 0 0 0 -1 forward_v I I I I #
coedge $-1 $233 $515 $516 $517 forward $228 $-1 #
coedge $-1 $518 $230 $519 $520 forward $145 $-1 #
coedge $-1 $230 $518 $368 $521 forward $145 $-1 #
coedge $-1 $369 $522 $230 $367 reversed $523 $-1 #
edge $-1 $524 -29.975484068829989 $525 29.975484068829989 $366 $526 forward 7 unknown #
coedge $-1 $232 $231 $365 $521 reversed $91 $-1 #
coedge $-1 $516 $366 $231 $370 forward $523 $-1 #
edge $-1 $524 -11.748501593138096 $374 11.748501593138096 $369 $527 forward 7 unknown #
coedge $-1 $528 $529 $232 $372 reversed $361 $-1 #
edge $-1 $530 -11.748501593138096 $375 11.748501593138096 $371 $531 forward 7 unknown #
coedge $-1 $515 $233 $529 $532 forward $228 $-1 #
vertex $-1 $370 $533 #
vertex $-1 $532 $534 #
straight-curve $-1 0 -29.975484068829989 -11.748501593138096 -1 0 0 I I #
face $-1 $535 $536 $55 $-1 $537 reversed single #
loop $-1 $-1 $241 $235 #
plane-surface $-1 -50.935631494721179 -37.295495783517232 0 1 0 0 0 0 -1 forward_v I I I I #
coedge $-1 $538 $539 $540 $541 forward $236 $-1 #
coedge $-1 $542 $238 $543 $544 forward $149 $-1 #
coedge $-1 $238 $542 $387 $545 forward $149 $-1 #
edge $-1 $389 -50.935631494721179 $546 -46.458744974983617 $238 $547 forward 7 unknown #
coedge $-1 $240 $239 $548 $549 forward $94 $-1 #
coedge $-1 $550 $551 $239 $386 forward $552 $-1 #
edge $-1 $553 46.458744974983617 $390 50.935631494721179 $385 $554 forward 7 unknown #
coedge $-1 $540 $241 $382 $545 reversed $378 $-1 #
coedge $-1 $241 $540 $550 $555 reversed $378 $-1 #
vertex $-1 $383 $556 #
vertex $-1 $555 $557 #
straight-curve $-1 -50.935631494721179 -29.975484068829989 0 0 0 1 I I #
face $-1 $558 $559 $56 $-1 $560 reversed single #
loop $-1 $-1 $561 $243 #
plane-surface $-1 0 40.031537403961863 -8.6161295582208819 0 -1 0 0 0 -1 forward_v I I I I #
coedge $-1 $562 $249 $397 $563 forward $244 $-1 #
coedge $-1 $564 $246 $565 $566 reversed $153 $-1 #
coedge $-1 $246 $564 $395 $563 reversed $153 $-1 #
edge $-1 $403 5.4837575233036677 $567 11.748501593138096 $246 $568 forward 7 unknown #
coedge $-1 $248 $247 $569 $570 reversed $97 $-1 #
coedge $-1 $571 $572 $247 $401 forward $573 $-1 #
edge $-1 $574 -11.748501593138096 $404 -5.4837575233036677 $400 $575 forward 7 unknown #
coedge $-1 $249 $562 $571 $576 forward $244 $-1 #
vertex $-1 $398 $577 #
vertex $-1 $576 $578 #
straight-curve $-1 0 29.975484068829989 -5.4837575233036677 -1 0 0 I I #
face $-1 $-1 $579 $57 $-1 $580 reversed single #
loop $-1 $-1 $257 $251 #
plane-surface $-1 0 0 11.748501593138096 0 0 1 1 0 0 forward_v I I I I #
coedge $-1 $581 $582 $583 $584 reversed $252 $-1 #
coedge $-1 $585 $254 $256 $416 forward $157 $-1 #
coedge $-1 $254 $585 $581 $586 forward $157 $-1 #
coedge $-1 $583 $257 $254 $413 forward $407 $-1 #
edge $-1 $419 -11.5547936526452 $587 -5.1744805094606203 $412 $588 forward 7 unknown #
coedge $-1 $589 $590 $255 $415 forward $579 $-1 #
edge $-1 $591 -97.304381310823032 $418 -86.375809781240562 $414 $592 forward 7 unknown #
edge $-1 $419 121.31870014850952 $591 139.91149632251961 $256 $593 forward 7 unknown #
coedge $-1 $257 $583 $589 $594 forward $407 $-1 #
vertex $-1 $415 $595 #
vertex $-1 $258 $596 #
straight-curve $-1 19.501442953220156 19.91943073369811 11.748501593138101 -1 0 0 I I #
coedge $-1 $421 $421 $-1 $597 reversed $261 $-1 #
edge $-1 $598 0 $598 6.2831853071796004 $262 $599 forward 7 unknown #
vertex $-1 $265 $600 #
ellipse-curve $-1 62.434804173117726 15.362064202851979 6.284215828346845 0.5877852598018023 0 0.80901698891910034 0.40450849445955017 0 -0.29389262990090115 1 I I #
coedge $-1 $425 $425 $-1 $601 reversed $268 $-1 #
edge $-1 $602 0 $602 6.2831853071796004 $269 $603 forward 7 unknown #
vertex $-1 $272 $604 #
ellipse-curve $-1 62.434804173117726 18.096484121359655 6.284215828346845 0.5877852598018023 0 0.80901698891910034 0.40450849445955017 0 -0.29389262990090115 1 I I #
face $-1 $-1 $441 $60 $-1 $605 forward single #
loop $-1 $-1 $606 $273 #
plane-surface $-1 -69.955748161259805 0 0 1 0 0 0 0 -1 forward_v I I I I #
coedge $-1 $607 $608 $609 $610 reversed $274 $-1 #
coedge $-1 $611 $276 $278 $439 forward $171 $-1 #
coedge $-1 $276 $611 $607 $612 forward $171 $-1 #
coedge $-1 $609 $279 $276 $436 forward $441 $-1 #
edge $-1 $443 -7.165739040863345 $613 -0.00064044087064196731 $435 $614 forward 7 unknown #
coedge $-1 $615 $616 $277 $438 forward $430 $-1 #
edge $-1 $617 -40.770397397273449 $442 -33.619217772342552 $437 $618 forward 7 unknown #
edge $-1 $443 -9.0749771082327868 $617 0 $278 $619 forward 7 unknown #
coedge $-1 $279 $609 $615 $620 forward $441 $-1 #
loop $-1 $-1 $609 $429 #
vertex $-1 $438 $621 #
vertex $-1 $280 $622 #
straight-curve $-1 -90.103756485750097 -10.748928781730338 11.748501593138094 1 0 0 I I #
coedge $-1 $445 $445 $-1 $623 reversed $283 $-1 #
edge $-1 $624 0 $624 6.2831853071796004 $284 $625 forward 7 unknown #
vertex $-1 $287 $626 #
ellipse-curve $-1 -67.16219131169855 -9.3159090617317979 8.1729117806726475 -0.78801076186113728 0 0.61566146476048833 0.15391536619012208 0 0.19700269046528432 1 I I #
coedge $-1 $449 $449 $-1 $627 reversed $290 $-1 #
edge $-1 $628 0 $628 6.2831853071796004 $291 $629 forward 7 unknown #
vertex $-1 $294 $630 #
ellipse-curve $-1 -67.16219131169855 -7.166379481733987 8.1729117806726475 -0.78801076186113728 0 0.61566146476048833 0.15391536619012208 0 0.19700269046528432 1 I I #
coedge $-1 $453 $453 $-1 $631 reversed $297 $-1 #
edge $-1 $632 0 $632 6.2831853071796004 $298 $633 forward 7 unknown #
vertex $-1 $301 $634 #
ellipse-curve $-1 -67.16219131169855 -5.0168499017361761 8.1729117806726475 -0.78801076186113728 0 0.61566146476048833 0.15391536619012208 0 0.19700269046528432 1 I I #
face $-1 $-1 $635 $64 $-1 $636 reversed single #
loop $-1 $-1 $308 $302 #
plane-surface $-1 0 0 11.748501593138096 0 0 1 1 0 0 forward_v I I I I #
coedge $-1 $637 $638 $639 $640 reversed $303 $-1 #
coedge $-1 $641 $305 $307 $467 forward $190 $-1 #
coedge $-1 $305 $641 $637 $642 forward $190 $-1 #
coedge $-1 $639 $308 $305 $464 forward $458 $-1 #
edge $-1 $470 -1.2899238120044085 $643 5.8751747879882945 $463 $644 forward 7 unknown #
coedge $-1 $645 $646 $306 $466 forward $635 $-1 #
edge $-1 $647 -40.770397397273449 $469 -33.619217772342552 $465 $648 forward 7 unknown #
edge $-1 $470 -9.0749771082327868 $647 0 $307 $649 forward 7 unknown #
coedge $-1 $308 $639 $645 $650 forward $458 $-1 #
vertex $-1 $309 $651 #
vertex $-1 $309 $652 #
straight-curve $-1 -90.103756485750097 1.0027016759875345 11.748501593138094 1 0 0 I I #
coedge $-1 $472 $472 $-1 $653 reversed $312 $-1 #
edge $-1 $654 0 $654 6.2831853071796004 $313 $655 forward 7 unknown #
vertex $-1 $316 $656 #
ellipse-curve $-1 -67.16219131169855 2.4357213959860751 8.1729117806726475 -0.78801076186113728 0 0.61566146476048833 0.15391536619012208 0 0.19700269046528432 1 I I #
coedge $-1 $476 $476 $-1 $657 reversed $319 $-1 #
edge $-1 $658 0 $658 6.2831853071796004 $320 $659 forward 7 unknown #
vertex $-1 $323 $660 #
ellipse-curve $-1 -67.16219131169855 4.585250975983886 8.1729117806726475 -0.78801076186113728 0 0.61566146476048833 0.15391536619012208 0 0.19700269046528432 1 I I #
coedge $-1 $480 $480 $-1 $661 reversed $326 $-1 #
edge $-1 $662 0 $662 6.2831853071796004 $327 $663 forward 7 unknown #
vertex $-1 $330 $664 #
ellipse-curve $-1 -67.16219131169855 6.7347805559816969 8.1729117806726475 -0.78801076186113728 0 0.61566146476048833 0.15391536619012208 0 0.19700269046528432 1 I I #
face $-1 $-1 $665 $68 $-1 $666 reversed single #
loop $-1 $-1 $337 $331 #
plane-surface $-1 0 0 11.748501593138096 0 0 1 1 0 0 forward_v I I I I #
coedge $-1 $667 $668 $669 $670 reversed $332 $-1 #
coedge $-1 $671 $334 $336 $494 forward $209 $-1 #
coedge $-1 $334 $671 $667 $672 forward $209 $-1 #
coedge $-1 $669 $337 $334 $491 forward $485 $-1 #
edge $-1 $497 4.5858914168545279 $673 11.750990016847231 $490 $674 forward 7 unknown #
coedge $-1 $675 $676 $335 $493 forward $665 $-1 #
edge $-1 $677 -40.770397397273449 $496 -33.619217772342552 $492 $678 forward 7 unknown #
edge $-1 $497 -9.0749771082327868 $677 0 $336 $679 forward 7 unknown #
coedge $-1 $337 $669 $675 $680 forward $485 $-1 #
vertex $-1 $338 $681 #
vertex $-1 $338 $682 #
straight-curve $-1 -90.103756485750097 12.754332133705407 11.748501593138094 1 0 0 I I #
coedge $-1 $499 $499 $-1 $683 reversed $341 $-1 #
edge $-1 $684 0 $684 6.2831853071796004 $342 $685 forward 7 unknown #
vertex $-1 $345 $686 #
ellipse-curve $-1 -67.16219131169855 14.187351853703948 8.1729117806726475 -0.78801076186113728 0 0.61566146476048833 0.15391536619012208 0 0.19700269046528432 1 I I #
coedge $-1 $503 $503 $-1 $687 reversed $348 $-1 #
edge $-1 $688 0 $688 6.2831853071796004 $349 $689 forward 7 unknown #
vertex $-1 $352 $690 #
ellipse-curve $-1 -67.16219131169855 16.336881433701759 8.1729117806726475 -0.78801076186113728 0 0.61566146476048833 0.15391536619012208 0 0.19700269046528432 1 I I #
coedge $-1 $507 $507 $-1 $691 reversed $355 $-1 #
edge $-1 $692 0 $692 6.2831853071796004 $356 $693 forward 7 unknown #
vertex $-1 $359 $694 #
ellipse-curve $-1 -67.16219131169855 18.48641101369957 8.1729117806726475 -0.78801076186113728 0 0.61566146476048833 0.15391536619012208 0 0.19700269046528432 1 I I #
face $-1 $-1 $523 $54 $-1 $695 reversed single #
loop $-1 $-1 $696 $360 #
plane-surface $-1 0 29.975484068829989 0 0 -1 0 0 0 -1 forward_v I I I I #
coedge $-1 $529 $528 $696 $697 forward $361 $-1 #
coedge $-1 $363 $373 $698 $699 forward $228 $-1 #
coedge $-1 $522 $369 $363 $517 reversed $523 $-1 #
edge $-1 $700 -29.975484068829989 $374 29.975484068829989 $516 $701 forward 7 unknown #
coedge $-1 $365 $364 $528 $702 forward $145 $-1 #
coedge $-1 $703 $696 $364 $520 reversed $512 $-1 #
edge $-1 $525 -69.955748161259805 $704 69.955748161259805 $519 $705 forward 7 unknown #
edge $-1 $530 -69.955748161259805 $524 69.955748161259805 $368 $706 forward 7 unknown #
coedge $-1 $366 $516 $703 $707 reversed $523 $-1 #
loop $-1 $-1 $369 $511 #
vertex $-1 $367 $708 #
vertex $-1 $367 $709 #
straight-curve $-1 69.955748161259805 0 11.748501593138096 0 1 0 I I #
straight-curve $-1 69.955748161259805 -29.975484068829989 0 0 0 -1 I I #
coedge $-1 $514 $371 $518 $702 reversed $361 $-1 #
coedge $-1 $371 $514 $373 $532 reversed $361 $-1 #
vertex $-1 $702 $710 #
straight-curve $-1 -69.955748161259805 -29.975484068829989 0 0 0 -1 I I #
edge $-1 $375 -29.975484068829989 $711 29.975484068829989 $529 $712 forward 7 unknown #
point $-1 69.955748161259805 -29.975484068829989 -11.748501593138096 #
point $-1 -69.955748161259805 -29.975484068829989 -11.748501593138096 #
face $-1 $-1 $552 $55 $-1 $713 forward single #
loop $-1 $-1 $714 $377 #
plane-surface $-1 -46.458744974983617 -37.295495783517232 0 -1 0 0 0 0 1 forward_v I I I I #
coedge $-1 $715 $380 $542 $716 reversed $236 $-1 #
coedge $-1 $380 $715 $717 $718 reversed $236 $-1 #
coedge $-1 $388 $387 $380 $541 reversed $378 $-1 #
edge $-1 $719 -11.748501593138096 $720 11.748501593138096 $540 $721 forward 7 unknown #
coedge $-1 $382 $381 $538 $716 forward $149 $-1 #
coedge $-1 $548 $714 $381 $544 reversed $536 $-1 #
edge $-1 $546 -7.3200117146872437 $722 7.3200117146872401 $543 $723 forward 7 unknown #
edge $-1 $720 -7.3200117146872401 $389 7.3200117146872437 $387 $724 forward 7 unknown #
vertex $-1 $544 $725 #
straight-curve $-1 0 -29.975484068829989 -11.748501593138096 1 0 0 I I #
coedge $-1 $726 $543 $384 $549 reversed $536 $-1 #
edge $-1 $553 -11.748501593138096 $546 11.748501593138096 $548 $727 forward 7 unknown #
coedge $-1 $717 $385 $388 $555 forward $552 $-1 #
coedge $-1 $385 $717 $726 $728 forward $552 $-1 #
loop $-1 $-1 $385 $535 #
vertex $-1 $386 $729 #
straight-curve $-1 0 -29.975484068829989 11.748501593138096 -1 0 0 I I #
edge $-1 $390 -7.3200117146872437 $719 7.3200117146872401 $388 $730 forward 7 unknown #
point $-1 -50.935631494721179 -29.975484068829989 -11.748501593138096 #
point $-1 -50.935631494721179 -29.975484068829989 11.748501593138096 #
face $-1 $-1 $573 $56 $-1 $731 reversed single #
loop $-1 $-1 $569 $392 #
plane-surface $-1 0 0 -11.748501593138096 0 0 1 1 0 0 forward_v I I I I #
coedge $-1 $732 $733 $564 $734 forward $393 $-1 #
coedge $-1 $402 $395 $733 $735 forward $244 $-1 #
edge $-1 $403 -5.0280266675659355 $736 5.0280266675659391 $397 $737 forward 7 unknown #
coedge $-1 $397 $396 $561 $734 reversed $153 $-1 #
coedge $-1 $569 $738 $396 $566 forward $559 $-1 #
edge $-1 $739 -40.031537403961863 $567 -29.975484068829989 $396 $740 forward 7 unknown #
vertex $-1 $398 $741 #
straight-curve $-1 69.955748161259805 29.975484068829989 0 0 0 -1 I I #
coedge $-1 $742 $565 $399 $570 forward $559 $-1 #
edge $-1 $567 -69.955748161259805 $574 69.955748161259805 $569 $743 forward 7 unknown #
coedge $-1 $744 $400 $402 $576 reversed $573 $-1 #
coedge $-1 $400 $744 $742 $745 reversed $573 $-1 #
loop $-1 $-1 $400 $558 #
vertex $-1 $745 $746 #
straight-curve $-1 -69.955748161259805 29.975484068829989 0 0 0 1 I I #
edge $-1 $747 -5.0280266675659391 $404 5.0280266675659355 $571 $748 forward 7 unknown #
point $-1 69.955748161259805 29.975484068829989 -5.4837575233036677 #
point $-1 -69.955748161259805 29.975484068829989 -5.4837575233036677 #
loop $-1 $-1 $414 $406 #
plane-surface $-1 69.955748161259805 0 0 -1 0 0 0 0 1 forward_v I I I I #
coedge $-1 $582 $409 $411 $586 reversed $252 $-1 #
coedge $-1 $409 $581 $749 $750 reversed $252 $-1 #
coedge $-1 $417 $412 $409 $584 forward $407 $-1 #
edge $-1 $587 35.412417231755462 $751 50.454305208039649 $583 $752 forward 7 unknown #
coedge $-1 $411 $410 $590 $753 reversed $157 $-1 #
edge $-1 $754 -139.91149632251961 $587 -121.31870014850952 $581 $755 forward 7 unknown #
vertex $-1 $413 $756 #
straight-curve $-1 54.913860184975618 8.3646370810529103 11.748501593138094 0 -1 0 I I #
coedge $-1 $749 $414 $417 $594 reversed $579 $-1 #
coedge $-1 $414 $749 $585 $753 forward $579 $-1 #
vertex $-1 $415 $757 #
straight-curve $-1 69.955748161259805 19.91943073369811 98.124311374378664 0 0 1 I I #
straight-curve $-1 -43.235029308750782 19.91943073369811 83.057845278746726 0.80901698891910034 0 -0.5877852598018023 I I #
edge $-1 $751 13.539117590513531 $418 19.91943073369811 $589 $758 forward 7 unknown #
point $-1 69.955748161259805 19.91943073369811 11.748501593138096 #
point $-1 54.913860184975618 19.91943073369811 11.748501593138101 #
edge $-1 $759 1 $759 0 $421 $-1 forward 7 unknown #
vertex $-1 $422 $760 #
ellipse-curve $-1 61.721988753068764 15.362064202851979 5.3031095907090338 0.5877852598018023 0 0.80901698891910034 0.40450849445955017 0 -0.29389262990090115 1 I I #
point $-1 62.839312667577275 15.362064202851979 5.990323198445946 #
edge $-1 $761 1 $761 0 $425 $-1 forward 7 unknown #
vertex $-1 $426 $762 #
ellipse-curve $-1 61.721988753068764 18.096484121359655 5.3031095907090338 0.5877852598018023 0 0.80901698891910034 0.40450849445955017 0 -0.29389262990090115 1 I I #
point $-1 62.839312667577275 18.096484121359655 5.990323198445946 #
plane-surface $-1 0 0 11.748501593138096 0 0 1 1 0 0 forward_v I I I I #
coedge $-1 $616 $615 $608 $763 forward $430 $-1 #
coedge $-1 $608 $432 $434 $612 reversed $274 $-1 #
coedge $-1 $432 $607 $606 $763 reversed $274 $-1 #
coedge $-1 $440 $435 $432 $610 forward $441 $-1 #
edge $-1 $613 -25.735122023612789 $764 -20.148008324490291 $609 $765 forward 7 unknown #
coedge $-1 $434 $433 $616 $766 reversed $171 $-1 #
edge $-1 $767 0 $613 9.0749771082327868 $607 $768 forward 7 unknown #
vertex $-1 $436 $769 #
straight-curve $-1 -64.368634462137308 -3.5831897408669935 11.748501593138096 0 1 0 I I #
coedge $-1 $606 $437 $440 $620 reversed $430 $-1 #
coedge $-1 $437 $606 $611 $766 forward $430 $-1 #
vertex $-1 $438 $770 #
straight-curve $-1 -69.955748161259805 -10.748928781730338 45.367719365480646 0 0 1 I I #
straight-curve $-1 -69.955748161259805 -10.748928781730338 4.5973219682071971 -0.61566146476048833 0 -0.78801076186113728 I I #
edge $-1 $764 3.5838301817376355 $442 10.748928781730338 $615 $771 forward 7 unknown #
point $-1 -69.955748161259805 -10.748928781730338 11.748501593138096 #
point $-1 -64.368634462137308 -10.748928781730338 11.748501593138096 #
edge $-1 $772 1 $772 0 $445 $-1 forward 7 unknown #
vertex $-1 $446 $773 #
ellipse-curve $-1 -66.374180549837419 -9.3159090617317979 7.5572503159121558 -0.78801076186113728 0 0.61566146476048833 0.15391536619012208 0 0.19700269046528432 1 I I #
point $-1 -67.00827594550843 -9.3159090617317979 8.3699144711379283 #
edge $-1 $774 1 $774 0 $449 $-1 forward 7 unknown #
vertex $-1 $450 $775 #
ellipse-curve $-1 -66.374180549837419 -7.166379481733987 7.5572503159121558 -0.78801076186113728 0 0.61566146476048833 0.15391536619012208 0 0.19700269046528432 1 I I #
point $-1 -67.00827594550843 -7.166379481733987 8.3699144711379283 #
edge $-1 $776 1 $776 0 $453 $-1 forward 7 unknown #
vertex $-1 $454 $777 #
ellipse-curve $-1 -66.374180549837419 -5.0168499017361761 7.5572503159121558 -0.78801076186113728 0 0.61566146476048833 0.15391536619012208 0 0.19700269046528432 1 I I #
point $-1 -67.00827594550843 -5.0168499017361761 8.3699144711379283 #
loop $-1 $-1 $465 $457 #
plane-surface $-1 -69.955748161259805 0 0 1 0 0 0 0 -1 forward_v I I I I #
coedge $-1 $638 $460 $462 $642 reversed $303 $-1 #
coedge $-1 $460 $637 $778 $779 reversed $303 $-1 #
coedge $-1 $468 $463 $460 $640 forward $458 $-1 #
edge $-1 $643 -25.735122023612789 $780 -20.148008324490291 $639 $781 forward 7 unknown #
coedge $-1 $462 $461 $646 $782 reversed $190 $-1 #
edge $-1 $783 0 $643 9.0749771082327868 $637 $784 forward 7 unknown #
vertex $-1 $464 $785 #
straight-curve $-1 -64.368634462137308 2.292625487991943 11.748501593138096 0 1 0 I I #
coedge $-1 $778 $465 $468 $650 reversed $635 $-1 #
coedge $-1 $465 $778 $641 $782 forward $635 $-1 #
vertex $-1 $466 $786 #
straight-curve $-1 -69.955748161259805 1.0027016759875345 45.367719365480646 0 0 1 I I #
straight-curve $-1 -69.955748161259805 1.0027016759875345 4.5973219682071971 -0.61566146476048833 0 -0.78801076186113728 I I #
edge $-1 $780 -8.1678002759802375 $469 -1.0027016759875345 $645 $787 forward 7 unknown #
point $-1 -69.955748161259805 1.0027016759875345 11.748501593138096 #
point $-1 -64.368634462137308 1.0027016759875345 11.748501593138096 #
edge $-1 $788 1 $788 0 $472 $-1 forward 7 unknown #
vertex $-1 $473 $789 #
ellipse-curve $-1 -66.374180549837419 2.4357213959860751 7.5572503159121558 -0.78801076186113728 0 0.61566146476048833 0.15391536619012208 0 0.19700269046528432 1 I I #
point $-1 -67.00827594550843 2.4357213959860751 8.3699144711379283 #
edge $-1 $790 1 $790 0 $476 $-1 forward 7 unknown #
vertex $-1 $477 $791 #
ellipse-curve $-1 -66.374180549837419 4.585250975983886 7.5572503159121558 -0.78801076186113728 0 0.61566146476048833 0.15391536619012208 0 0.19700269046528432 1 I I #
point $-1 -67.00827594550843 4.585250975983886 8.3699144711379283 #
edge $-1 $792 1 $792 0 $480 $-1 forward 7 unknown #
vertex $-1 $481 $793 #
ellipse-curve $-1 -66.374180549837419 6.7347805559816969 7.5572503159121558 -0.78801076186113728 0 0.61566146476048833 0.15391536619012208 0 0.19700269046528432 1 I I #
point $-1 -67.00827594550843 6.7347805559816969 8.3699144711379283 #
loop $-1 $-1 $492 $484 #
plane-surface $-1 -69.955748161259805 0 0 1 0 0 0 0 -1 forward_v I I I I #
coedge $-1 $668 $487 $489 $672 reversed $332 $-1 #
coedge $-1 $487 $667 $794 $795 reversed $332 $-1 #
coedge $-1 $495 $490 $487 $670 forward $485 $-1 #
edge $-1 $673 -25.735122023612789 $796 -20.148008324490291 $669 $797 forward 7 unknown #
coedge $-1 $489 $488 $676 $798 reversed $209 $-1 #
edge $-1 $799 0 $673 9.0749771082327868 $667 $800 forward 7 unknown #
vertex $-1 $491 $801 #
straight-curve $-1 -64.368634462137308 8.1684407168508795 11.748501593138096 0 1 0 I I #
coedge $-1 $794 $492 $495 $680 reversed $665 $-1 #
coedge $-1 $492 $794 $671 $798 forward $665 $-1 #
vertex $-1 $493 $802 #
straight-curve $-1 -69.955748161259805 12.754332133705407 45.367719365480646 0 0 1 I I #
straight-curve $-1 -69.955748161259805 12.754332133705407 4.5973219682071971 -0.61566146476048833 0 -0.78801076186113728 I I #
edge $-1 $796 -19.91943073369811 $496 -12.754332133705407 $675 $803 forward 7 unknown #
point $-1 -69.955748161259805 12.754332133705407 11.748501593138096 #
point $-1 -64.368634462137308 12.754332133705407 11.748501593138096 #
edge $-1 $804 1 $804 0 $499 $-1 forward 7 unknown #
vertex $-1 $500 $805 #
ellipse-curve $-1 -66.374180549837419 14.187351853703948 7.5572503159121558 -0.78801076186113728 0 0.61566146476048833 0.15391536619012208 0 0.19700269046528432 1 I I #
point $-1 -67.00827594550843 14.187351853703948 8.3699144711379283 #
edge $-1 $806 1 $806 0 $503 $-1 forward 7 unknown #
vertex $-1 $504 $807 #
ellipse-curve $-1 -66.374180549837419 16.336881433701759 7.5572503159121558 -0.78801076186113728 0 0.61566146476048833 0.15391536619012208 0 0.19700269046528432 1 I I #
point $-1 -67.00827594550843 16.336881433701759 8.3699144711379283 #
edge $-1 $808 1 $808 0 $507 $-1 forward 7 unknown #
vertex $-1 $508 $809 #
ellipse-curve $-1 -66.374180549837419 18.48641101369957 7.5572503159121558 -0.78801076186113728 0 0.61566146476048833 0.15391536619012208 0 0.19700269046528432 1 I I #
point $-1 -67.00827594550843 18.48641101369957 8.3699144711379283 #
plane-surface $-1 69.955748161259805 0 0 -1 0 0 0 0 1 forward_v I I I I #
coedge $-1 $519 $698 $514 $697 reversed $512 $-1 #
edge $-1 $704 -11.748501593138096 $711 11.748501593138096 $696 $810 forward 7 unknown #
coedge $-1 $696 $703 $515 $699 reversed $512 $-1 #
edge $-1 $711 -69.955748161259805 $700 69.955748161259805 $698 $811 forward 7 unknown #
vertex $-1 $517 $812 #
straight-curve $-1 69.955748161259805 0 -11.748501593138096 0 -1 0 I I #
edge $-1 $704 -29.975484068829989 $530 29.975484068829989 $528 $813 forward 7 unknown #
coedge $-1 $698 $519 $522 $707 forward $512 $-1 #
vertex $-1 $520 $814 #
straight-curve $-1 0 29.975484068829989 11.748501593138096 -1 0 0 I I #
straight-curve $-1 0 -29.975484068829989 11.748501593138096 1 0 0 I I #
edge $-1 $525 -11.748501593138096 $700 11.748501593138096 $522 $815 forward 7 unknown #
point $-1 69.955748161259805 -29.975484068829989 11.748501593138096 #
point $-1 69.955748161259805 29.975484068829989 11.748501593138096 #
point $-1 -69.955748161259805 -29.975484068829989 11.748501593138096 #
vertex $-1 $699 $816 #
straight-curve $-1 -69.955748161259805 0 -11.748501593138096 0 1 0 I I #
plane-surface $-1 0 0 11.748501593138096 0 0 1 1 0 0 forward_v I I I I #
coedge $-1 $543 $726 $715 $817 forward $536 $-1 #
coedge $-1 $539 $538 $714 $817 reversed $236 $-1 #
edge $-1 $722 -2.2384432598687809 $720 2.2384432598687809 $538 $818 forward 7 unknown #
coedge $-1 $551 $550 $539 $718 forward $552 $-1 #
edge $-1 $719 -2.2384432598687809 $819 2.2384432598687809 $539 $820 forward 7 unknown #
vertex $-1 $555 $821 #
vertex $-1 $545 $822 #
straight-curve $-1 -50.935631494721179 -44.615507498204472 0 0 0 -1 I I #
vertex $-1 $817 $823 #
straight-curve $-1 -46.458744974983617 -37.295495783517232 -11.748501593138096 0 -1 0 I I #
straight-curve $-1 -50.935631494721179 -37.295495783517232 -11.748501593138096 0 1 0 I I #
point $-1 -46.458744974983617 -29.975484068829989 -11.748501593138096 #
coedge $-1 $714 $548 $551 $728 reversed $536 $-1 #
straight-curve $-1 -46.458744974983617 -29.975484068829989 0 0 0 -1 I I #
edge $-1 $819 -7.3200117146872401 $553 7.3200117146872437 $726 $824 forward 7 unknown #
point $-1 -46.458744974983617 -29.975484068829989 11.748501593138096 #
straight-curve $-1 -50.935631494721179 -37.295495783517232 11.748501593138096 0 -1 0 I I #
plane-surface $-1 -69.955748161259805 0 0 1 0 0 0 0 -1 forward_v I I I I #
coedge $-1 $825 $561 $738 $826 reversed $393 $-1 #
coedge $-1 $561 $825 $562 $735 reversed $393 $-1 #
edge $-1 $736 -3.1323720349172142 $739 3.1323720349172142 $564 $827 forward 7 unknown #
edge $-1 $736 -69.955748161259805 $747 69.955748161259805 $733 $828 forward 7 unknown #
vertex $-1 $563 $829 #
straight-curve $-1 69.955748161259805 35.003510736395924 -5.4837575233036677 0 1 0 I I #
coedge $-1 $565 $742 $732 $826 forward $559 $-1 #
vertex $-1 $566 $830 #
straight-curve $-1 69.955748161259805 0 -11.748501593138096 0 -1 0 I I #
point $-1 69.955748161259805 29.975484068829989 -11.748501593138096 #
coedge $-1 $738 $569 $572 $745 forward $559 $-1 #
straight-curve $-1 0 29.975484068829989 -11.748501593138096 -1 0 0 I I #
coedge $-1 $572 $571 $825 $831 forward $573 $-1 #
edge $-1 $574 -5.0280266675659355 $832 5.0280266675659391 $572 $833 forward 7 unknown #
point $-1 -69.955748161259805 29.975484068829989 -11.748501593138096 #
vertex $-1 $735 $834 #
straight-curve $-1 -69.955748161259805 35.003510736395924 -5.4837575233036677 0 -1 0 I I #
coedge $-1 $590 $589 $582 $750 forward $579 $-1 #
edge $-1 $751 86.375809781240562 $754 97.304381310823032 $749 $835 forward 7 unknown #
vertex $-1 $594 $836 #
straight-curve $-1 19.501442953220156 13.539117590513531 11.748501593138101 1 0 0 I I #
edge $-1 $754 5.1744805094606203 $591 11.5547936526452 $590 $837 forward 7 unknown #
vertex $-1 $753 $838 #
straight-curve $-1 -43.235029308750782 13.539117590513531 83.057845278746726 -0.80901698891910034 0 0.5877852598018023 I I #
point $-1 54.913860184975618 13.539117590513531 11.748501593138101 #
point $-1 69.95574816125982 19.91943073369811 0.81993006355563125 #
straight-curve $-1 69.955748161259805 0 11.748501593138096 0 1 0 I I #
vertex $-1 $597 $839 #
point $-1 62.12649724752832 15.362064202851979 5.0092169608081321 #
vertex $-1 $601 $840 #
point $-1 62.12649724752832 18.096484121359655 5.0092169608081321 #
edge $-1 $764 33.619217772342552 $767 40.770397397273449 $606 $841 forward 7 unknown #
vertex $-1 $620 $842 #
straight-curve $-1 -90.103756485750097 -3.5838301817376355 11.748501593138094 -1 0 0 I I #
edge $-1 $767 0.00064044087064196731 $617 7.165739040863345 $616 $843 forward 7 unknown #
vertex $-1 $766 $844 #
straight-curve $-1 -69.955748161259805 -3.5838301817376355 4.5973219682071971 0.61566146476048833 0 0.78801076186113728 I I #
point $-1 -64.368634462137308 -3.5838301817376355 11.748501593138096 #
point $-1 -69.955748161259805 -10.748928781730338 4.5973219682071971 #
straight-curve $-1 -69.955748161259805 0 11.748501593138096 0 -1 0 I I #
vertex $-1 $623 $845 #
point $-1 -66.220265183647285 -9.3159090617317979 7.7542530063774402 #
vertex $-1 $627 $846 #
point $-1 -66.220265183647285 -7.166379481733987 7.7542530063774402 #
vertex $-1 $631 $847 #
point $-1 -66.220265183647285 -5.0168499017361761 7.7542530063774402 #
coedge $-1 $646 $645 $638 $779 forward $635 $-1 #
edge $-1 $780 33.619217772342552 $783 40.770397397273449 $778 $848 forward 7 unknown #
vertex $-1 $650 $849 #
straight-curve $-1 -90.103756485750097 8.1678002759802375 11.748501593138094 -1 0 0 I I #
edge $-1 $783 -5.8751747879882945 $647 1.2899238120044085 $646 $850 forward 7 unknown #
vertex $-1 $782 $851 #
straight-curve $-1 -69.955748161259805 8.1678002759802375 4.5973219682071971 0.61566146476048833 0 0.78801076186113728 I I #
point $-1 -64.368634462137308 8.1678002759802375 11.748501593138096 #
point $-1 -69.955748161259805 1.0027016759875345 4.5973219682071971 #
straight-curve $-1 -69.955748161259805 0 11.748501593138096 0 -1 0 I I #
vertex $-1 $653 $852 #
point $-1 -66.220265183647285 2.4357213959860751 7.7542530063774402 #
vertex $-1 $657 $853 #
point $-1 -66.220265183647285 4.585250975983886 7.7542530063774402 #
vertex $-1 $661 $854 #
point $-1 -66.220265183647285 6.7347805559816969 7.7542530063774402 #
coedge $-1 $676 $675 $668 $795 forward $665 $-1 #
edge $-1 $796 33.619217772342552 $799 40.770397397273449 $794 $855 forward 7 unknown #
vertex $-1 $680 $856 #
straight-curve $-1 -90.103756485750097 19.91943073369811 11.748501593138094 -1 0 0 I I #
edge $-1 $799 -11.750990016847231 $677 -4.5858914168545279 $676 $857 forward 7 unknown #
vertex $-1 $798 $858 #
straight-curve $-1 -69.955748161259805 19.91943073369811 4.5973219682071971 0.61566146476048833 0 0.78801076186113728 I I #
point $-1 -64.368634462137308 19.91943073369811 11.748501593138096 #
point $-1 -69.955748161259805 12.754332133705407 4.5973219682071971 #
straight-curve $-1 -69.955748161259805 0 11.748501593138096 0 -1 0 I I #
vertex $-1 $683 $859 #
point $-1 -66.220265183647285 14.187351853703948 7.7542530063774402 #
vertex $-1 $687 $860 #
point $-1 -66.220265183647285 16.336881433701759 7.7542530063774402 #
vertex $-1 $691 $861 #
point $-1 -66.220265183647285 18.48641101369957 7.7542530063774402 #
straight-curve $-1 -69.955748161259805 29.975484068829989 0 0 0 -1 I I #
straight-curve $-1 0 29.975484068829989 -11.748501593138096 1 0 0 I I #
point $-1 69.955748161259805 29.975484068829989 -11.748501593138096 #
straight-curve $-1 -69.955748161259805 0 11.748501593138096 0 -1 0 I I #
point $-1 -69.955748161259805 29.975484068829989 11.748501593138096 #
straight-curve $-1 69.955748161259805 29.975484068829989 0 0 0 -1 I I #
point $-1 -69.955748161259805 29.975484068829989 -11.748501593138096 #
edge $-1 $819 -11.748501593138096 $722 11.748501593138096 $714 $862 forward 7 unknown #
straight-curve $-1 -48.697188234852398 -44.615507498204472 -11.748501593138096 -1 0 0 I I #
vertex $-1 $728 $863 #
straight-curve $-1 -48.697188234852398 -44.615507498204472 11.748501593138096 1 0 0 I I #
point $-1 -50.935631494721179 -44.615507498204472 11.748501593138096 #
point $-1 -50.935631494721179 -44.615507498204472 -11.748501593138096 #
point $-1 -46.458744974983617 -44.615507498204472 -11.748501593138096 #
straight-curve $-1 -46.458744974983617 -37.295495783517232 11.748501593138096 0 1 0 I I #
coedge $-1 $733 $732 $744 $831 reversed $393 $-1 #
edge $-1 $832 -69.955748161259805 $739 69.955748161259805 $732 $864 forward 7 unknown #
straight-curve $-1 69.955748161259805 40.031537403961863 -8.6161295582208819 0 0 -1 I I #
straight-curve $-1 0 40.031537403961863 -5.4837575233036677 -1 0 0 I I #
point $-1 69.955748161259805 40.031537403961863 -5.4837575233036677 #
point $-1 69.955748161259805 40.031537403961863 -11.748501593138096 #
edge $-1 $747 -3.1323720349172142 $832 3.1323720349172142 $825 $865 forward 7 unknown #
vertex $-1 $826 $866 #
straight-curve $-1 -69.955748161259805 35.003510736395924 -11.748501593138096 0 1 0 I I #
point $-1 -69.955748161259805 40.031537403961863 -5.4837575233036677 #
straight-curve $-1 69.955748161259805 13.539117590513531 98.124311374378664 0 0 -1 I I #
point $-1 69.955748161259805 13.539117590513531 11.748501593138096 #
straight-curve $-1 69.955748161259791 8.3646370810529103 0.81993006355563836 0 1 0 I I #
point $-1 69.95574816125982 13.539117590513531 0.81993006355563125 #
point $-1 61.428096123167869 15.362064202851979 4.8986010962494833 #
point $-1 61.428096123167869 18.096484121359655 4.8986010962494833 #
straight-curve $-1 -69.955748161259805 -3.5838301817376355 45.367719365480646 0 0 -1 I I #
point $-1 -69.955748161259805 -3.5838301817376355 11.748501593138096 #
straight-curve $-1 -69.955748161259805 -3.5831897408669935 4.5973219682072015 0 -1 0 I I #
point $-1 -69.955748161259805 -3.5838301817376355 4.5973219682071971 #
point $-1 -66.177177859372122 -9.3159090617317979 7.4033349497220344 #
point $-1 -66.177177859372122 -7.166379481733987 7.4033349497220344 #
point $-1 -66.177177859372122 -5.0168499017361761 7.4033349497220344 #
straight-curve $-1 -69.955748161259805 8.1678002759802375 45.367719365480646 0 0 -1 I I #
point $-1 -69.955748161259805 8.1678002759802375 11.748501593138096 #
straight-curve $-1 -69.955748161259805 2.292625487991943 4.5973219682072015 0 -1 0 I I #
point $-1 -69.955748161259805 8.1678002759802375 4.5973219682071971 #
point $-1 -66.177177859372122 2.4357213959860751 7.4033349497220344 #
point $-1 -66.177177859372122 4.585250975983886 7.4033349497220344 #
point $-1 -66.177177859372122 6.7347805559816969 7.4033349497220344 #
straight-curve $-1 -69.955748161259805 19.91943073369811 45.367719365480646 0 0 -1 I I #
point $-1 -69.955748161259805 19.91943073369811 11.748501593138096 #
straight-curve $-1 -69.955748161259805 8.1684407168508795 4.5973219682072015 0 -1 0 I I #
point $-1 -69.955748161259805 19.91943073369811 4.5973219682071971 #
point $-1 -66.177177859372122 14.187351853703948 7.4033349497220344 #
point $-1 -66.177177859372122 16.336881433701759 7.4033349497220344 #
point $-1 -66.177177859372122 18.48641101369957 7.4033349497220344 #
straight-curve $-1 -46.458744974983617 -44.615507498204472 0 0 0 -1 I I #
point $-1 -46.458744974983617 -44.615507498204472 11.748501593138096 #
straight-curve $-1 0 40.031537403961863 -11.748501593138096 1 0 0 I I #
straight-curve $-1 -69.955748161259805 40.031537403961863 -8.6161295582208819 0 0 -1 I I #
point $-1 -69.955748161259805 40.031537403961863 -11.748501593138096 #
End-of-ACIS-data 