500 0 10 0           
7 Unknown 11 ACIS 5.0 NT 24 Fri Mar 26 17:28:14 1999 
-1 9.9999999999999995e-007 1e-010 
body $-1 $10 $-1 $11 #
body $-1 $12 $-1 $13 #
body $-1 $14 $-1 $15 #
body $-1 $16 $-1 $17 #
body $-1 $18 $-1 $19 #
body $-1 $20 $-1 $21 #
body $-1 $22 $-1 $23 #
body $-1 $24 $-1 $25 #
body $-1 $26 $-1 $27 #
body $-1 $28 $-1 $29 #
lump $-1 $-1 $30 $0 #
transform $-1 1 0 0 0 1 0 0 0 1 76.697897274697112 51.747615087735262 18.859050114237135 1 rotate no_reflect no_shear #
lump $-1 $-1 $31 $1 #
transform $-1 1 0 0 0 1 0 0 0 1 76.697897274697112 51.747615087735262 18.859050114237135 1 rotate no_reflect no_shear #
lump $-1 $-1 $32 $2 #
transform $-1 1 0 0 0 1 0 0 0 1 76.697897274697112 51.747615087735262 18.859050114237135 1 rotate no_reflect no_shear #
lump $-1 $-1 $33 $3 #
transform $-1 1 0 0 0 1 0 0 0 1 76.697897274697112 51.747615087735262 18.859050114237135 1 rotate no_reflect no_shear #
lump $-1 $-1 $34 $4 #
transform $-1 1 0 0 0 1 0 0 0 1 76.697897274697112 51.747615087735262 18.859050114237135 1 rotate no_reflect no_shear #
lump $-1 $-1 $35 $5 #
transform $-1 1 0 0 0 1 0 0 0 1 76.697897274697112 51.747615087735262 18.859050114237135 1 rotate no_reflect no_shear #
lump $-1 $-1 $36 $6 #
transform $-1 1 0 0 0 1 0 0 0 1 76.697897274697112 51.747615087735262 18.859050114237135 1 rotate no_reflect no_shear #
lump $-1 $-1 $37 $7 #
transform $-1 1 0 0 0 1 0 0 0 1 76.697897274697112 51.747615087735262 18.859050114237135 1 rotate no_reflect no_shear #
lump $-1 $-1 $38 $8 #
transform $-1 1 0 0 0 1 0 0 0 1 76.697897274697112 51.747615087735262 18.859050114237135 1 rotate no_reflect no_shear #
lump $-1 $-1 $39 $9 #
transform $-1 1 0 0 0 1 0 0 0 1 76.697897274697112 51.747615087735262 18.859050114237135 1 rotate no_reflect no_shear #
shell $-1 $-1 $-1 $40 $-1 $10 #
shell $-1 $-1 $-1 $41 $-1 $12 #
shell $-1 $-1 $-1 $42 $-1 $14 #
shell $-1 $-1 $-1 $43 $-1 $16 #
shell $-1 $-1 $-1 $44 $-1 $18 #
shell $-1 $-1 $-1 $45 $-1 $20 #
shell $-1 $-1 $-1 $46 $-1 $22 #
shell $-1 $-1 $-1 $47 $-1 $24 #
shell $-1 $-1 $-1 $48 $-1 $26 #
shell $-1 $-1 $-1 $49 $-1 $28 #
face $-1 $50 $51 $30 $-1 $52 forward single #
face $-1 $53 $54 $31 $-1 $55 forward single #
face $-1 $56 $57 $32 $-1 $58 reversed single #
face $-1 $59 $60 $33 $-1 $61 forward single #
face $-1 $62 $63 $34 $-1 $64 reversed single #
face $-1 $65 $66 $35 $-1 $67 forward single #
face $-1 $68 $69 $36 $-1 $70 reversed single #
face $-1 $71 $72 $37 $-1 $73 forward single #
face $-1 $74 $75 $38 $-1 $76 reversed single #
face $-1 $77 $78 $39 $-1 $79 forward single #
face $-1 $80 $81 $30 $-1 $82 reversed single #
loop $-1 $-1 $83 $40 #
plane-surface $-1 0 0 18.859050114237135 0 0 1 1 0 0 forward_v I I I I #
face $-1 $84 $85 $31 $-1 $86 forward single #
loop $-1 $-1 $87 $41 #
plane-surface $-1 0 -51.747615087735262 0 0 1 0 0 0 1 forward_v I I I I #
face $-1 $88 $89 $32 $-1 $90 reversed single #
loop $-1 $-1 $91 $42 #
plane-surface $-1 61.565319873361915 0.14059813558266754 223.98000294016285 0 -1 0 -0.6560590369687036 0 -0.75470957328743171 forward_v I I I I #
face $-1 $92 $93 $33 $-1 $94 forward single #
loop $-1 $95 $96 $43 #
cone-surface $-1 67.773565750641694 -9.5074799084548616 10.41727216943768 -0.6560590369687036 0 -0.75470957328743171 1.8867739332185793 0 -1.640147592421759 1 I I 0 1 2.5 forward I I I I #
face $-1 $97 $98 $34 $-1 $99 reversed single #
loop $-1 $-1 $100 $44 #
plane-surface $-1 61.565319873361915 34.13127945657979 223.98000294016285 0 -1 0 -0.6560590369687036 0 -0.75470957328743171 forward_v I I I I #
face $-1 $101 $102 $35 $-1 $103 forward single #
loop $-1 $104 $105 $45 #
cone-surface $-1 67.773565750641694 24.483201412542265 10.41727216943768 -0.6560590369687036 0 -0.75470957328743171 1.8867739332185793 0 -1.640147592421759 1 I I 0 1 2.5 forward I I I I #
face $-1 $106 $107 $36 $-1 $108 reversed single #
loop $-1 $-1 $109 $46 #
plane-surface $-1 -177.3345945218218 -19.155557952492391 123.34330569303816 0 1 0 -0.6560590369687036 0 0.75470957328743171 forward_v I I I I #
face $-1 $110 $111 $37 $-1 $112 forward single #
loop $-1 $113 $114 $47 #
cone-surface $-1 -67.773565750641723 -9.5074799084548616 10.41727216943768 0.6560590369687036 0 -0.75470957328743171 1.8867739332185793 0 1.640147592421759 1 I I 0 1 2.5 forward I I I I #
face $-1 $115 $116 $38 $-1 $117 reversed single #
loop $-1 $-1 $118 $48 #
plane-surface $-1 -177.3345945218218 14.835123368504735 123.34330569303816 0 1 0 -0.6560590369687036 0 0.75470957328743171 forward_v I I I I #
face $-1 $119 $120 $39 $-1 $121 forward single #
loop $-1 $122 $123 $49 #
cone-surface $-1 -67.773565750641723 24.483201412542265 10.41727216943768 0.6560590369687036 0 -0.75470957328743171 1.8867739332185793 0 1.640147592421759 1 I I 0 1 2.5 forward I I I I #
face $-1 $124 $125 $30 $-1 $126 reversed single #
loop $-1 $-1 $127 $50 #
plane-surface $-1 0 0 -18.859050114237135 0 0 1 1 0 0 forward_v I I I I #
coedge $-1 $128 $129 $130 $131 forward $51 $-1 #
face $-1 $132 $133 $31 $-1 $134 reversed single #
loop $-1 $-1 $135 $53 #
plane-surface $-1 0 0 18.859050114237135 0 0 1 1 0 0 forward_v I I I I #
coedge $-1 $136 $137 $138 $139 forward $54 $-1 #
face $-1 $140 $141 $32 $-1 $142 reversed single #
loop $-1 $-1 $143 $56 #
plane-surface $-1 -39.071377373762772 -9.5074799084548616 108.21072829170299 0.6560590369687036 0 0.75470957328743171 0.75470957328743171 0 -0.6560590369687036 forward_v I I I I #
coedge $-1 $144 $145 $146 $147 reversed $57 $-1 #
face $-1 $-1 $148 $33 $-1 $149 forward single #
loop $-1 $150 $151 $59 #
cone-surface $-1 64.520124998103057 -9.5074799084548616 6.6746167928583588 -0.6560590369687036 0 -0.75470957328743171 0.94338696660928967 0 -0.8200737962108795 1 I I -0.70710678118654746 0.70710678118654746 1.25 forward I I I I #
loop $-1 $-1 $152 $43 #
coedge $-1 $96 $96 $153 $154 reversed $60 $-1 #
face $-1 $155 $156 $34 $-1 $157 reversed single #
loop $-1 $-1 $158 $62 #
plane-surface $-1 -39.071377373762772 24.483201412542265 108.21072829170299 0.6560590369687036 0 0.75470957328743171 0.75470957328743171 0 -0.6560590369687036 forward_v I I I I #
coedge $-1 $159 $160 $161 $162 reversed $63 $-1 #
face $-1 $-1 $163 $35 $-1 $164 forward single #
loop $-1 $165 $166 $65 #
cone-surface $-1 64.520124998103057 24.483201412542265 6.6746167928583588 -0.6560590369687036 0 -0.75470957328743171 0.94338696660928967 0 -0.8200737962108795 1 I I -0.70710678118654746 0.70710678118654746 1.25 forward I I I I #
loop $-1 $-1 $167 $45 #
coedge $-1 $105 $105 $168 $169 reversed $66 $-1 #
face $-1 $170 $171 $36 $-1 $172 reversed single #
loop $-1 $-1 $173 $68 #
plane-surface $-1 -76.697897274697112 -9.5074799084548616 7.5740310445783052 -0.6560590369687036 0 0.75470957328743171 0.75470957328743171 0 0.6560590369687036 forward_v I I I I #
coedge $-1 $174 $175 $176 $177 reversed $69 $-1 #
face $-1 $-1 $178 $37 $-1 $179 forward single #
loop $-1 $180 $181 $71 #
cone-surface $-1 -64.520124998103086 -9.5074799084548616 6.6746167928583588 0.6560590369687036 0 -0.75470957328743171 0.94338696660928967 0 0.8200737962108795 1 I I -0.70710678118654746 0.70710678118654746 1.25 forward I I I I #
loop $-1 $-1 $182 $47 #
coedge $-1 $114 $114 $183 $184 reversed $72 $-1 #
face $-1 $185 $186 $38 $-1 $187 reversed single #
loop $-1 $-1 $188 $74 #
plane-surface $-1 -76.697897274697112 24.483201412542265 7.5740310445783052 -0.6560590369687036 0 0.75470957328743171 0.75470957328743171 0 0.6560590369687036 forward_v I I I I #
coedge $-1 $189 $190 $191 $192 reversed $75 $-1 #
face $-1 $-1 $193 $39 $-1 $194 forward single #
loop $-1 $195 $196 $77 #
cone-surface $-1 -64.520124998103086 24.483201412542265 6.6746167928583588 0.6560590369687036 0 -0.75470957328743171 0.94338696660928967 0 0.8200737962108795 1 I I -0.70710678118654746 0.70710678118654746 1.25 forward I I I I #
loop $-1 $-1 $197 $49 #
coedge $-1 $123 $123 $198 $199 reversed $78 $-1 #
face $-1 $200 $201 $30 $-1 $202 reversed single #
loop $-1 $-1 $203 $80 #
plane-surface $-1 0 -51.747615087735262 0 0 1 0 0 0 1 forward_v I I I I #
coedge $-1 $204 $205 $206 $207 forward $81 $-1 #
coedge $-1 $208 $83 $209 $210 forward $51 $-1 #
coedge $-1 $83 $208 $211 $212 forward $51 $-1 #
coedge $-1 $213 $214 $83 $131 reversed $215 $-1 #
edge $-1 $216 -51.747615087735262 $217 51.747615087735262 $130 $218 forward 7 unknown #
face $-1 $219 $220 $31 $-1 $221 reversed single #
loop $-1 $-1 $222 $84 #
plane-surface $-1 -76.697897274697112 0 0 1 0 0 0 0 -1 forward_v I I I I #
coedge $-1 $223 $224 $225 $226 forward $85 $-1 #
coedge $-1 $225 $87 $222 $227 reversed $54 $-1 #
coedge $-1 $87 $225 $228 $229 reversed $54 $-1 #
coedge $-1 $230 $231 $87 $139 reversed $220 $-1 #
edge $-1 $232 -76.697897274697112 $233 76.697897274697112 $138 $234 forward 7 unknown #
face $-1 $235 $236 $32 $-1 $237 reversed single #
loop $-1 $-1 $238 $88 #
plane-surface $-1 61.565319873361915 -19.155557952492391 223.98000294016285 0 1 0 0.6560590369687036 0 0.75470957328743171 forward_v I I I I #
coedge $-1 $239 $240 $241 $242 reversed $89 $-1 #
coedge $-1 $145 $91 $243 $244 reversed $57 $-1 #
coedge $-1 $91 $144 $239 $245 reversed $57 $-1 #
coedge $-1 $241 $246 $91 $147 forward $247 $-1 #
edge $-1 $248 -45.915237338016155 $249 -32.933308202560838 $146 $250 forward 7 unknown #
loop $-1 $-1 $153 $92 #
plane-surface $-1 -39.071377373762772 -9.5074799084548616 108.21072829170299 0.6560590369687036 0 0.75470957328743171 0.75470957328743171 0 -0.6560590369687036 forward_v I I I I #
loop $-1 $-1 $251 $59 #
coedge $-1 $151 $151 $152 $252 reversed $93 $-1 #
coedge $-1 $152 $152 $151 $252 forward $95 $-1 #
coedge $-1 $153 $153 $96 $154 forward $148 $-1 #
edge $-1 $253 0 $253 6.2831853071796004 $153 $254 forward 7 unknown #
face $-1 $255 $256 $34 $-1 $257 reversed single #
loop $-1 $-1 $258 $97 #
plane-surface $-1 61.565319873361915 14.835123368504735 223.98000294016285 0 1 0 0.6560590369687036 0 0.75470957328743171 forward_v I I I I #
coedge $-1 $259 $260 $261 $262 reversed $98 $-1 #
coedge $-1 $160 $100 $263 $264 reversed $63 $-1 #
coedge $-1 $100 $159 $259 $265 reversed $63 $-1 #
coedge $-1 $261 $266 $100 $162 forward $267 $-1 #
edge $-1 $268 -45.915237338016155 $269 -32.933308202560838 $161 $270 forward 7 unknown #
loop $-1 $-1 $168 $101 #
plane-surface $-1 -39.071377373762772 24.483201412542265 108.21072829170299 0.6560590369687036 0 0.75470957328743171 0.75470957328743171 0 -0.6560590369687036 forward_v I I I I #
loop $-1 $-1 $271 $65 #
coedge $-1 $166 $166 $167 $272 reversed $102 $-1 #
coedge $-1 $167 $167 $166 $272 forward $104 $-1 #
coedge $-1 $168 $168 $105 $169 forward $163 $-1 #
edge $-1 $273 0 $273 6.2831853071796004 $168 $274 forward 7 unknown #
face $-1 $275 $276 $36 $-1 $277 forward single #
loop $-1 $-1 $278 $106 #
plane-surface $-1 -177.3345945218218 0.14059813558266754 123.34330569303816 0 -1 0 0.6560590369687036 0 -0.75470957328743171 forward_v I I I I #
coedge $-1 $279 $280 $281 $282 reversed $107 $-1 #
coedge $-1 $175 $109 $283 $284 reversed $69 $-1 #
coedge $-1 $109 $174 $279 $285 reversed $69 $-1 #
coedge $-1 $281 $286 $109 $177 forward $276 $-1 #
edge $-1 $287 11.969399986213787 $288 24.951329121669069 $176 $289 forward 7 unknown #
loop $-1 $-1 $183 $110 #
plane-surface $-1 -76.697897274697112 -9.5074799084548616 7.5740310445783052 -0.6560590369687036 0 0.75470957328743171 0.75470957328743171 0 0.6560590369687036 forward_v I I I I #
loop $-1 $-1 $290 $71 #
coedge $-1 $181 $181 $182 $291 reversed $111 $-1 #
coedge $-1 $182 $182 $181 $291 forward $113 $-1 #
coedge $-1 $183 $183 $114 $184 forward $178 $-1 #
edge $-1 $292 0 $292 6.2831853071796004 $183 $293 forward 7 unknown #
face $-1 $294 $295 $38 $-1 $296 forward single #
loop $-1 $-1 $297 $115 #
plane-surface $-1 -177.3345945218218 34.13127945657979 123.34330569303816 0 -1 0 0.6560590369687036 0 -0.75470957328743171 forward_v I I I I #
coedge $-1 $298 $299 $300 $301 reversed $116 $-1 #
coedge $-1 $190 $118 $302 $303 reversed $75 $-1 #
coedge $-1 $118 $189 $298 $304 reversed $75 $-1 #
coedge $-1 $300 $305 $118 $192 forward $295 $-1 #
edge $-1 $306 11.969399986213787 $307 24.951329121669069 $191 $308 forward 7 unknown #
loop $-1 $-1 $198 $119 #
plane-surface $-1 -76.697897274697112 24.483201412542265 7.5740310445783052 -0.6560590369687036 0 0.75470957328743171 0.75470957328743171 0 0.6560590369687036 forward_v I I I I #
loop $-1 $-1 $309 $77 #
coedge $-1 $196 $196 $197 $310 reversed $120 $-1 #
coedge $-1 $197 $197 $196 $310 forward $122 $-1 #
coedge $-1 $198 $198 $123 $199 forward $193 $-1 #
edge $-1 $311 0 $311 6.2831853071796004 $198 $312 forward 7 unknown #
face $-1 $313 $314 $30 $-1 $315 reversed single #
loop $-1 $-1 $316 $124 #
plane-surface $-1 -76.697897274697112 0 0 1 0 0 0 0 -1 forward_v I I I I #
coedge $-1 $317 $211 $318 $319 forward $125 $-1 #
coedge $-1 $320 $127 $317 $321 forward $81 $-1 #
coedge $-1 $127 $320 $322 $323 forward $81 $-1 #
coedge $-1 $214 $213 $127 $207 reversed $215 $-1 #
edge $-1 $324 -51.747615087735262 $325 51.747615087735262 $206 $326 forward 7 unknown #
coedge $-1 $129 $128 $327 $328 forward $51 $-1 #
coedge $-1 $329 $330 $128 $210 reversed $314 $-1 #
edge $-1 $217 -76.697897274697112 $331 76.697897274697112 $209 $332 forward 7 unknown #
coedge $-1 $203 $333 $129 $212 reversed $125 $-1 #
edge $-1 $334 -76.697897274697112 $216 76.697897274697112 $211 $335 forward 7 unknown #
coedge $-1 $206 $130 $333 $336 forward $215 $-1 #
coedge $-1 $130 $206 $329 $337 reversed $215 $-1 #
loop $-1 $-1 $213 $313 #
vertex $-1 $131 $338 #
vertex $-1 $131 $339 #
straight-curve $-1 76.697897274697112 0 18.859050114237135 0 1 0 I I #
face $-1 $340 $341 $31 $-1 $342 reversed single #
loop $-1 $-1 $230 $132 #
plane-surface $-1 0 -59.235475839778964 15.042347183619373 0 0 1 1 0 0 forward_v I I I I #
coedge $-1 $343 $344 $136 $227 forward $133 $-1 #
coedge $-1 $345 $135 $344 $346 forward $85 $-1 #
coedge $-1 $135 $345 $347 $348 forward $85 $-1 #
coedge $-1 $137 $136 $135 $226 reversed $54 $-1 #
edge $-1 $349 -76.697897274697112 $350 76.697897274697112 $135 $351 forward 7 unknown #
edge $-1 $350 -18.859050114237135 $233 -15.042347183619373 $222 $352 forward 7 unknown #
coedge $-1 $347 $353 $137 $229 forward $354 $-1 #
edge $-1 $232 15.042347183619373 $349 18.859050114237135 $228 $355 forward 7 unknown #
coedge $-1 $356 $138 $353 $357 forward $220 $-1 #
coedge $-1 $138 $356 $343 $358 forward $220 $-1 #
vertex $-1 $229 $359 #
vertex $-1 $227 $360 #
straight-curve $-1 0 -51.747615087735262 15.042347183619373 -1 0 0 I I #
face $-1 $-1 $247 $32 $-1 $361 forward single #
loop $-1 $-1 $362 $140 #
plane-surface $-1 76.697897274697112 0 0 -1 0 0 0 0 1 forward_v I I I I #
coedge $-1 $363 $364 $365 $366 reversed $141 $-1 #
coedge $-1 $367 $143 $145 $245 forward $89 $-1 #
coedge $-1 $143 $367 $363 $368 forward $89 $-1 #
coedge $-1 $365 $146 $143 $242 forward $247 $-1 #
edge $-1 $249 -4.8943380898100983 $369 14.40181799826496 $241 $370 forward 7 unknown #
coedge $-1 $371 $372 $144 $244 forward $236 $-1 #
edge $-1 $373 -104.41597042550313 $248 -93.130951355844289 $243 $374 forward 7 unknown #
edge $-1 $249 136.19456960811326 $373 153.39579454939428 $145 $375 forward 7 unknown #
coedge $-1 $146 $365 $371 $376 forward $247 $-1 #
loop $-1 $-1 $365 $235 #
vertex $-1 $244 $377 #
vertex $-1 $147 $378 #
straight-curve $-1 30.782659936680957 0.14059813558266754 18.859050114237135 -1 0 0 I I #
coedge $-1 $251 $251 $-1 $379 reversed $150 $-1 #
edge $-1 $380 0 $380 6.2831853071796004 $151 $381 forward 7 unknown #
vertex $-1 $154 $382 #
ellipse-curve $-1 70.206932706969454 -9.5074799084548616 13.216540579407718 0.6560590369687036 0 0.75470957328743171 1.8867739332185793 0 -1.640147592421759 1 I I #
face $-1 $-1 $267 $34 $-1 $383 forward single #
loop $-1 $-1 $384 $155 #
plane-surface $-1 76.697897274697112 0 0 -1 0 0 0 0 1 forward_v I I I I #
coedge $-1 $385 $386 $387 $388 reversed $156 $-1 #
coedge $-1 $389 $158 $160 $265 forward $98 $-1 #
coedge $-1 $158 $389 $385 $390 forward $98 $-1 #
coedge $-1 $387 $161 $158 $262 forward $267 $-1 #
edge $-1 $269 -21.889678750308658 $391 -2.5935226622336032 $261 $392 forward 7 unknown #
coedge $-1 $393 $394 $159 $264 forward $256 $-1 #
edge $-1 $395 -104.41597042550313 $268 -93.130951355844289 $263 $396 forward 7 unknown #
edge $-1 $269 136.19456960811326 $395 153.39579454939428 $160 $397 forward 7 unknown #
coedge $-1 $161 $387 $393 $398 forward $267 $-1 #
loop $-1 $-1 $387 $255 #
vertex $-1 $264 $399 #
vertex $-1 $162 $400 #
straight-curve $-1 30.782659936680957 34.13127945657979 18.859050114237135 -1 0 0 I I #
coedge $-1 $271 $271 $-1 $401 reversed $165 $-1 #
edge $-1 $402 0 $402 6.2831853071796004 $166 $403 forward 7 unknown #
vertex $-1 $169 $404 #
ellipse-curve $-1 70.206932706969454 24.483201412542265 13.216540579407718 0.6560590369687036 0 0.75470957328743171 1.8867739332185793 0 -1.640147592421759 1 I I #
face $-1 $-1 $405 $36 $-1 $406 reversed single #
loop $-1 $-1 $176 $170 #
plane-surface $-1 0 0 18.859050114237135 0 0 1 1 0 0 forward_v I I I I #
coedge $-1 $407 $408 $409 $410 reversed $171 $-1 #
coedge $-1 $411 $173 $175 $285 forward $107 $-1 #
coedge $-1 $173 $411 $407 $412 forward $107 $-1 #
coedge $-1 $409 $176 $173 $282 forward $276 $-1 #
edge $-1 $288 -14.40181799826496 $413 4.8943380898100983 $281 $414 forward 7 unknown #
coedge $-1 $415 $416 $174 $284 forward $405 $-1 #
edge $-1 $417 -54.097621801940775 $287 -42.812602732281945 $283 $418 forward 7 unknown #
edge $-1 $288 -17.201224941280962 $417 0 $175 $419 forward 7 unknown #
coedge $-1 $176 $409 $415 $420 forward $276 $-1 #
vertex $-1 $284 $421 #
vertex $-1 $177 $422 #
straight-curve $-1 -88.6672972609109 -19.155557952492391 18.859050114237135 1 0 0 I I #
coedge $-1 $290 $290 $-1 $423 reversed $180 $-1 #
edge $-1 $424 0 $424 6.2831853071796004 $181 $425 forward 7 unknown #
vertex $-1 $184 $426 #
ellipse-curve $-1 -70.206932706969482 -9.5074799084548616 13.216540579407717 -0.6560590369687036 0 0.75470957328743171 1.8867739332185793 0 1.640147592421759 1 I I #
face $-1 $-1 $427 $38 $-1 $428 reversed single #
loop $-1 $-1 $191 $185 #
plane-surface $-1 0 0 18.859050114237135 0 0 1 1 0 0 forward_v I I I I #
coedge $-1 $429 $430 $431 $432 reversed $186 $-1 #
coedge $-1 $433 $188 $190 $304 forward $116 $-1 #
coedge $-1 $188 $433 $429 $434 forward $116 $-1 #
coedge $-1 $431 $191 $188 $301 forward $295 $-1 #
edge $-1 $307 2.5935226622336032 $435 21.889678750308658 $300 $436 forward 7 unknown #
coedge $-1 $437 $438 $189 $303 forward $427 $-1 #
edge $-1 $439 -54.097621801940775 $306 -42.812602732281945 $302 $440 forward 7 unknown #
edge $-1 $307 -17.201224941280962 $439 0 $190 $441 forward 7 unknown #
coedge $-1 $191 $431 $437 $442 forward $295 $-1 #
vertex $-1 $192 $443 #
vertex $-1 $192 $444 #
straight-curve $-1 -88.6672972609109 14.835123368504735 18.859050114237135 1 0 0 I I #
coedge $-1 $309 $309 $-1 $445 reversed $195 $-1 #
edge $-1 $446 0 $446 6.2831853071796004 $196 $447 forward 7 unknown #
vertex $-1 $199 $448 #
ellipse-curve $-1 -70.206932706969482 24.483201412542265 13.216540579407717 -0.6560590369687036 0 0.75470957328743171 1.8867739332185793 0 1.640147592421759 1 I I #
face $-1 $-1 $215 $30 $-1 $449 reversed single #
loop $-1 $-1 $329 $200 #
plane-surface $-1 0 51.747615087735262 0 0 -1 0 0 0 -1 forward_v I I I I #
coedge $-1 $450 $327 $330 $451 forward $201 $-1 #
coedge $-1 $333 $203 $204 $321 reversed $125 $-1 #
coedge $-1 $327 $450 $203 $319 reversed $201 $-1 #
edge $-1 $334 -18.859050114237135 $452 18.859050114237135 $318 $453 forward 7 unknown #
coedge $-1 $205 $204 $450 $454 forward $81 $-1 #
edge $-1 $325 -76.697897274697112 $452 76.697897274697112 $317 $455 forward 7 unknown #
coedge $-1 $330 $329 $205 $323 reversed $314 $-1 #
edge $-1 $456 -76.697897274697112 $324 76.697897274697112 $322 $457 forward 7 unknown #
vertex $-1 $207 $458 #
vertex $-1 $336 $459 #
straight-curve $-1 76.697897274697112 0 -18.859050114237135 0 -1 0 I I #
coedge $-1 $316 $318 $208 $328 reversed $201 $-1 #
edge $-1 $331 -51.747615087735262 $334 51.747615087735262 $327 $460 forward 7 unknown #
coedge $-1 $322 $209 $214 $337 forward $314 $-1 #
coedge $-1 $209 $322 $316 $451 reversed $314 $-1 #
vertex $-1 $210 $461 #
straight-curve $-1 0 51.747615087735262 18.859050114237135 -1 0 0 I I #
coedge $-1 $211 $317 $213 $336 reversed $125 $-1 #
vertex $-1 $328 $462 #
straight-curve $-1 0 -51.747615087735262 18.859050114237135 1 0 0 I I #
edge $-1 $216 -18.859050114237135 $325 18.859050114237135 $213 $463 forward 7 unknown #
edge $-1 $217 -18.859050114237135 $324 18.859050114237135 $214 $464 forward 7 unknown #
point $-1 76.697897274697112 -51.747615087735262 18.859050114237135 #
point $-1 76.697897274697112 51.747615087735262 18.859050114237135 #
face $-1 $-1 $354 $31 $-1 $465 reversed single #
loop $-1 $-1 $466 $219 #
plane-surface $-1 0 -66.723336591822672 16.950698648928253 0 1 0 0 0 1 forward_v I I I I #
coedge $-1 $467 $222 $231 $358 reversed $133 $-1 #
coedge $-1 $222 $467 $223 $346 reversed $133 $-1 #
coedge $-1 $224 $223 $468 $469 forward $85 $-1 #
edge $-1 $350 51.747615087735262 $470 66.723336591822672 $344 $471 forward 7 unknown #
coedge $-1 $472 $228 $224 $348 reversed $354 $-1 #
edge $-1 $473 -66.723336591822672 $349 -51.747615087735262 $347 $474 forward 7 unknown #
vertex $-1 $229 $475 #
vertex $-1 $346 $476 #
straight-curve $-1 0 -51.747615087735262 18.859050114237135 -1 0 0 I I #
straight-curve $-1 -76.697897274697112 -51.747615087735262 0 0 0 -1 I I #
coedge $-1 $228 $472 $230 $357 reversed $354 $-1 #
loop $-1 $-1 $228 $340 #
straight-curve $-1 76.697897274697112 -51.747615087735262 0 0 0 1 I I #
coedge $-1 $231 $230 $477 $478 forward $220 $-1 #
edge $-1 $232 -7.4878607520437015 $479 7.4878607520437086 $353 $480 forward 7 unknown #
edge $-1 $481 -7.4878607520437086 $233 7.4878607520437015 $343 $482 forward 7 unknown #
point $-1 76.697897274697112 -51.747615087735262 15.042347183619373 #
point $-1 -76.697897274697112 -51.747615087735262 15.042347183619373 #
plane-surface $-1 0 0 18.859050114237135 0 0 1 1 0 0 forward_v I I I I #
coedge $-1 $372 $371 $364 $483 forward $236 $-1 #
coedge $-1 $364 $238 $240 $368 reversed $141 $-1 #
coedge $-1 $238 $363 $362 $483 reversed $141 $-1 #
coedge $-1 $246 $241 $238 $366 forward $247 $-1 #
edge $-1 $369 32.933308202560838 $484 45.915237338016155 $365 $485 forward 7 unknown #
coedge $-1 $240 $239 $372 $486 reversed $89 $-1 #
edge $-1 $487 -153.39579454939428 $369 -136.19456960811326 $363 $488 forward 7 unknown #
vertex $-1 $242 $489 #
straight-curve $-1 63.715968139241795 -4.7537399542274308 18.859050114237142 0 -1 0 I I #
coedge $-1 $362 $243 $246 $376 reversed $236 $-1 #
coedge $-1 $243 $362 $367 $486 forward $236 $-1 #
vertex $-1 $244 $490 #
straight-curve $-1 76.697897274697112 0.14059813558266754 111.99000147008142 0 0 1 I I #
straight-curve $-1 -39.071377373762772 0.14059813558266754 108.21072829170299 0.75470957328743171 0 -0.6560590369687036 I I #
edge $-1 $484 -19.155557952492391 $248 0.14059813558266754 $371 $491 forward 7 unknown #
point $-1 76.697897274697112 0.14059813558266754 18.859050114237135 #
point $-1 63.715968139241795 0.14059813558266754 18.859050114237135 #
edge $-1 $492 1 $492 0 $251 $-1 forward 7 unknown #
vertex $-1 $252 $493 #
ellipse-curve $-1 65.340198794313935 -9.5074799084548616 7.6180037594676486 0.6560590369687036 0 0.75470957328743171 1.8867739332185793 0 -1.640147592421759 1 I I #
point $-1 72.093706640188017 -9.5074799084548616 11.576392986985955 #
plane-surface $-1 0 0 18.859050114237135 0 0 1 1 0 0 forward_v I I I I #
coedge $-1 $394 $393 $386 $494 forward $256 $-1 #
coedge $-1 $386 $258 $260 $390 reversed $156 $-1 #
coedge $-1 $258 $385 $384 $494 reversed $156 $-1 #
coedge $-1 $266 $261 $258 $388 forward $267 $-1 #
edge $-1 $391 32.933308202560838 $495 45.915237338016155 $387 $496 forward 7 unknown #
coedge $-1 $260 $259 $394 $497 reversed $98 $-1 #
edge $-1 $498 -153.39579454939428 $391 -136.19456960811326 $385 $499 forward 7 unknown #
vertex $-1 $262 $500 #
straight-curve $-1 63.715968139241795 12.241600706271132 18.859050114237142 0 -1 0 I I #
coedge $-1 $384 $263 $266 $398 reversed $256 $-1 #
coedge $-1 $263 $384 $389 $497 forward $256 $-1 #
vertex $-1 $264 $501 #
straight-curve $-1 76.697897274697112 34.13127945657979 111.99000147008142 0 0 1 I I #
straight-curve $-1 -39.071377373762772 34.13127945657979 108.21072829170299 0.75470957328743171 0 -0.6560590369687036 I I #
edge $-1 $495 14.835123368504735 $268 34.13127945657979 $393 $502 forward 7 unknown #
point $-1 76.697897274697112 34.13127945657979 18.859050114237135 #
point $-1 63.715968139241795 34.13127945657979 18.859050114237135 #
edge $-1 $503 1 $503 0 $271 $-1 forward 7 unknown #
vertex $-1 $272 $504 #
ellipse-curve $-1 65.340198794313935 24.483201412542265 7.6180037594676486 0.6560590369687036 0 0.75470957328743171 1.8867739332185793 0 -1.640147592421759 1 I I #
point $-1 72.093706640188017 24.483201412542265 11.576392986985955 #
loop $-1 $-1 $283 $275 #
plane-surface $-1 -76.697897274697112 0 0 1 0 0 0 0 -1 forward_v I I I I #
coedge $-1 $408 $278 $280 $412 reversed $171 $-1 #
coedge $-1 $278 $407 $505 $506 reversed $171 $-1 #
coedge $-1 $286 $281 $278 $410 forward $276 $-1 #
edge $-1 $413 -24.951329121669069 $507 -11.969399986213787 $409 $508 forward 7 unknown #
coedge $-1 $280 $279 $416 $509 reversed $107 $-1 #
edge $-1 $510 0 $413 17.201224941280962 $407 $511 forward 7 unknown #
vertex $-1 $282 $512 #
straight-curve $-1 -63.715968139241831 -4.7537399542274308 18.859050114237135 0 1 0 I I #
coedge $-1 $505 $283 $286 $420 reversed $405 $-1 #
coedge $-1 $283 $505 $411 $509 forward $405 $-1 #
vertex $-1 $284 $513 #
straight-curve $-1 -76.697897274697112 -19.155557952492391 61.671652846519081 0 0 1 I I #
straight-curve $-1 -76.697897274697112 -19.155557952492391 7.5740310445783052 -0.75470957328743171 0 -0.6560590369687036 I I #
edge $-1 $507 -0.14059813558266754 $287 19.155557952492391 $415 $514 forward 7 unknown #
point $-1 -76.697897274697112 -19.155557952492391 18.859050114237135 #
point $-1 -63.715968139241831 -19.155557952492391 18.859050114237135 #
edge $-1 $515 1 $515 0 $290 $-1 forward 7 unknown #
vertex $-1 $291 $516 #
ellipse-curve $-1 -65.340198794313963 -9.5074799084548616 7.6180037594676486 -0.6560590369687036 0 0.75470957328743171 1.8867739332185793 0 1.640147592421759 1 I I #
point $-1 -68.32015877375089 -9.5074799084548616 14.856688171829472 #
loop $-1 $-1 $302 $294 #
plane-surface $-1 -76.697897274697112 0 0 1 0 0 0 0 -1 forward_v I I I I #
coedge $-1 $430 $297 $299 $434 reversed $186 $-1 #
coedge $-1 $297 $429 $517 $518 reversed $186 $-1 #
coedge $-1 $305 $300 $297 $432 forward $295 $-1 #
edge $-1 $435 -24.951329121669069 $519 -11.969399986213787 $431 $520 forward 7 unknown #
coedge $-1 $299 $298 $438 $521 reversed $116 $-1 #
edge $-1 $522 0 $435 17.201224941280962 $429 $523 forward 7 unknown #
vertex $-1 $301 $524 #
straight-curve $-1 -63.715968139241831 12.241600706271132 18.859050114237135 0 1 0 I I #
coedge $-1 $517 $302 $305 $442 reversed $427 $-1 #
coedge $-1 $302 $517 $433 $521 forward $427 $-1 #
vertex $-1 $303 $525 #
straight-curve $-1 -76.697897274697112 14.835123368504735 61.671652846519081 0 0 1 I I #
straight-curve $-1 -76.697897274697112 14.835123368504735 7.5740310445783052 -0.75470957328743171 0 -0.6560590369687036 I I #
edge $-1 $519 -34.13127945657979 $306 -14.835123368504735 $437 $526 forward 7 unknown #
point $-1 -76.697897274697112 14.835123368504735 18.859050114237135 #
point $-1 -63.715968139241831 14.835123368504735 18.859050114237135 #
edge $-1 $527 1 $527 0 $309 $-1 forward 7 unknown #
vertex $-1 $310 $528 #
ellipse-curve $-1 -65.340198794313963 24.483201412542265 7.6180037594676486 -0.6560590369687036 0 0.75470957328743171 1.8867739332185793 0 1.640147592421759 1 I I #
point $-1 -68.32015877375089 24.483201412542265 14.856688171829472 #
plane-surface $-1 76.697897274697112 0 0 -1 0 0 0 0 1 forward_v I I I I #
coedge $-1 $318 $316 $320 $454 reversed $201 $-1 #
edge $-1 $331 -18.859050114237135 $456 18.859050114237135 $330 $529 forward 7 unknown #
vertex $-1 $454 $530 #
straight-curve $-1 -76.697897274697112 -51.747615087735262 0 0 0 -1 I I #
edge $-1 $452 -51.747615087735262 $456 51.747615087735262 $450 $531 forward 7 unknown #
straight-curve $-1 0 -51.747615087735262 -18.859050114237135 -1 0 0 I I #
vertex $-1 $323 $532 #
straight-curve $-1 0 51.747615087735262 -18.859050114237135 1 0 0 I I #
point $-1 76.697897274697112 51.747615087735262 -18.859050114237135 #
point $-1 76.697897274697112 -51.747615087735262 -18.859050114237135 #
straight-curve $-1 -76.697897274697112 0 18.859050114237135 0 -1 0 I I #
point $-1 -76.697897274697112 51.747615087735262 18.859050114237135 #
point $-1 -76.697897274697112 -51.747615087735262 18.859050114237135 #
straight-curve $-1 76.697897274697112 -51.747615087735262 0 0 0 -1 I I #
straight-curve $-1 76.697897274697112 51.747615087735262 0 0 0 -1 I I #
plane-surface $-1 76.697897274697112 0 0 -1 0 0 0 0 1 forward_v I I I I #
coedge $-1 $477 $468 $467 $533 forward $341 $-1 #
coedge $-1 $344 $343 $466 $533 reversed $133 $-1 #
coedge $-1 $466 $534 $345 $469 reversed $341 $-1 #
edge $-1 $470 -76.697897274697112 $473 76.697897274697112 $468 $535 forward 7 unknown #
vertex $-1 $346 $536 #
straight-curve $-1 -76.697897274697112 0 18.859050114237135 0 -1 0 I I #
coedge $-1 $353 $347 $534 $537 forward $354 $-1 #
vertex $-1 $348 $538 #
straight-curve $-1 76.697897274697112 0 18.859050114237135 0 1 0 I I #
point $-1 76.697897274697112 -51.747615087735262 18.859050114237135 #
point $-1 -76.697897274697112 -51.747615087735262 18.859050114237135 #
coedge $-1 $534 $466 $356 $478 reversed $341 $-1 #
edge $-1 $479 -76.697897274697112 $481 76.697897274697112 $477 $539 forward 7 unknown #
vertex $-1 $537 $540 #
straight-curve $-1 76.697897274697112 -59.235475839778964 15.042347183619373 0 -1 0 I I #
vertex $-1 $358 $541 #
straight-curve $-1 -76.697897274697112 -59.235475839778964 15.042347183619373 0 1 0 I I #
edge $-1 $484 93.130951355844289 $487 104.41597042550313 $362 $542 forward 7 unknown #
vertex $-1 $376 $543 #
straight-curve $-1 30.782659936680957 -19.155557952492391 18.859050114237135 1 0 0 I I #
edge $-1 $487 -14.40181799826496 $373 4.8943380898100983 $372 $544 forward 7 unknown #
vertex $-1 $486 $545 #
straight-curve $-1 -39.071377373762772 -19.155557952492391 108.21072829170299 -0.75470957328743171 0 0.6560590369687036 I I #
point $-1 63.715968139241795 -19.155557952492391 18.859050114237135 #
point $-1 76.697897274697112 0.14059813558266754 7.574031044578291 #
straight-curve $-1 76.697897274697112 0 18.859050114237135 0 1 0 I I #
vertex $-1 $379 $546 #
point $-1 67.226972727532512 -9.5074799084548616 5.9778561670458892 #
edge $-1 $495 93.130951355844289 $498 104.41597042550313 $384 $547 forward 7 unknown #
vertex $-1 $398 $548 #
straight-curve $-1 30.782659936680957 14.835123368504735 18.859050114237135 1 0 0 I I #
edge $-1 $498 2.5935226622336032 $395 21.889678750308658 $394 $549 forward 7 unknown #
vertex $-1 $497 $550 #
straight-curve $-1 -39.071377373762772 14.835123368504735 108.21072829170299 -0.75470957328743171 0 0.6560590369687036 I I #
point $-1 63.715968139241795 14.835123368504735 18.859050114237135 #
point $-1 76.697897274697112 34.13127945657979 7.574031044578291 #
straight-curve $-1 76.697897274697112 0 18.859050114237135 0 1 0 I I #
vertex $-1 $401 $551 #
point $-1 67.226972727532512 24.483201412542265 5.9778561670458892 #
coedge $-1 $416 $415 $408 $506 forward $405 $-1 #
edge $-1 $507 42.812602732281945 $510 54.097621801940775 $505 $552 forward 7 unknown #
vertex $-1 $420 $553 #
straight-curve $-1 -88.6672972609109 0.14059813558266754 18.859050114237135 -1 0 0 I I #
edge $-1 $510 -4.8943380898100983 $417 14.40181799826496 $416 $554 forward 7 unknown #
vertex $-1 $509 $555 #
straight-curve $-1 -76.697897274697112 0.14059813558266754 7.5740310445783052 0.75470957328743171 0 0.6560590369687036 I I #
point $-1 -63.715968139241831 0.14059813558266754 18.859050114237135 #
point $-1 -76.697897274697112 -19.155557952492391 7.5740310445783052 #
straight-curve $-1 -76.697897274697112 0 18.859050114237135 0 -1 0 I I #
vertex $-1 $423 $556 #
point $-1 -63.453424861095385 -9.5074799084548616 9.2581513518894081 #
coedge $-1 $438 $437 $430 $518 forward $427 $-1 #
edge $-1 $519 42.812602732281945 $522 54.097621801940775 $517 $557 forward 7 unknown #
vertex $-1 $442 $558 #
straight-curve $-1 -88.6672972609109 34.13127945657979 18.859050114237135 -1 0 0 I I #
edge $-1 $522 -21.889678750308658 $439 -2.5935226622336032 $438 $559 forward 7 unknown #
vertex $-1 $521 $560 #
straight-curve $-1 -76.697897274697112 34.13127945657979 7.5740310445783052 0.75470957328743171 0 0.6560590369687036 I I #
point $-1 -63.715968139241831 34.13127945657979 18.859050114237135 #
point $-1 -76.697897274697112 14.835123368504735 7.5740310445783052 #
straight-curve $-1 -76.697897274697112 0 18.859050114237135 0 -1 0 I I #
vertex $-1 $445 $561 #
point $-1 -63.453424861095385 24.483201412542265 9.2581513518894081 #
straight-curve $-1 -76.697897274697112 51.747615087735262 0 0 0 -1 I I #
point $-1 -76.697897274697112 -51.747615087735262 -18.859050114237135 #
straight-curve $-1 -76.697897274697112 0 -18.859050114237135 0 1 0 I I #
point $-1 -76.697897274697112 51.747615087735262 -18.859050114237135 #
edge $-1 $470 -1.9083514653088791 $481 1.9083514653088791 $467 $562 forward 7 unknown #
coedge $-1 $468 $477 $472 $537 reversed $341 $-1 #
straight-curve $-1 0 -66.723336591822672 18.859050114237132 1 0 0 I I #
point $-1 -76.697897274697112 -66.723336591822672 18.859050114237132 #
edge $-1 $473 -1.9083514653088791 $479 1.9083514653088791 $472 $563 forward 7 unknown #
point $-1 76.697897274697112 -66.723336591822672 18.859050114237132 #
straight-curve $-1 0 -66.723336591822672 15.042347183619373 -1 0 0 I I #
point $-1 76.697897274697112 -66.723336591822672 15.042347183619373 #
point $-1 -76.697897274697112 -66.723336591822672 15.042347183619373 #
straight-curve $-1 76.697897274697112 -19.155557952492391 111.99000147008142 0 0 -1 I I #
point $-1 76.697897274697112 -19.155557952492391 18.859050114237135 #
straight-curve $-1 76.697897274697112 -4.7537399542274308 7.574031044578291 0 1 0 I I #
point $-1 76.697897274697112 -19.155557952492391 7.574031044578291 #
point $-1 63.70005120189218 -9.5074799084548616 5.7312298262490691 #
straight-curve $-1 76.697897274697112 14.835123368504735 111.99000147008142 0 0 -1 I I #
point $-1 76.697897274697112 14.835123368504735 18.859050114237135 #
straight-curve $-1 76.697897274697112 12.241600706271132 7.574031044578291 0 1 0 I I #
point $-1 76.697897274697112 14.835123368504735 7.574031044578291 #
point $-1 63.70005120189218 24.483201412542265 5.7312298262490691 #
straight-curve $-1 -76.697897274697112 0.14059813558266754 61.671652846519081 0 0 -1 I I #
point $-1 -76.697897274697112 0.14059813558266754 18.859050114237135 #
straight-curve $-1 -76.697897274697112 -4.7537399542274308 7.574031044578299 0 -1 0 I I #
point $-1 -76.697897274697112 0.14059813558266754 7.5740310445783052 #
point $-1 -63.700051201892208 -9.5074799084548616 5.7312298262490691 #
straight-curve $-1 -76.697897274697112 34.13127945657979 61.671652846519081 0 0 -1 I I #
point $-1 -76.697897274697112 34.13127945657979 18.859050114237135 #
straight-curve $-1 -76.697897274697112 12.241600706271132 7.574031044578299 0 -1 0 I I #
point $-1 -76.697897274697112 34.13127945657979 7.5740310445783052 #
point $-1 -63.700051201892208 24.483201412542265 5.7312298262490691 #
straight-curve $-1 -76.697897274697112 -66.723336591822672 16.950698648928253 0 0 -1 I I #
straight-curve $-1 76.697897274697112 -66.723336591822672 16.950698648928253 0 0 -1 I I #
End-of-ACIS-data 