500 0 10 0           
7 Unknown 11 ACIS 5.0 NT 24 Thu Mar 25 15:11:05 1999 
-1 9.9999999999999995e-007 1e-010 
body $-1 $10 $-1 $11 #
body $-1 $12 $-1 $13 #
body $-1 $14 $-1 $15 #
body $-1 $16 $-1 $17 #
body $-1 $18 $-1 $19 #
body $-1 $20 $-1 $21 #
body $-1 $22 $-1 $23 #
body $-1 $24 $-1 $25 #
body $-1 $26 $-1 $27 #
body $-1 $28 $-1 $29 #
lump $-1 $-1 $30 $0 #
transform $-1 1 0 0 0 1 0 0 0 1 59.898068178350172 35.244749397646423 14.372935081821659 1 rotate no_reflect no_shear #
lump $-1 $-1 $31 $1 #
transform $-1 1 0 0 0 1 0 0 0 1 59.898068178350172 35.244749397646423 14.372935081821659 1 rotate no_reflect no_shear #
lump $-1 $-1 $32 $2 #
transform $-1 1 0 0 0 1 0 0 0 1 59.898068178350172 35.244749397646423 14.372935081821659 1 rotate no_reflect no_shear #
lump $-1 $-1 $33 $3 #
transform $-1 1 0 0 0 1 0 0 0 1 59.898068178350172 35.244749397646423 14.372935081821659 1 rotate no_reflect no_shear #
lump $-1 $-1 $34 $4 #
transform $-1 1 0 0 0 1 0 0 0 1 59.898068178350172 35.244749397646423 14.372935081821659 1 rotate no_reflect no_shear #
lump $-1 $-1 $35 $5 #
transform $-1 1 0 0 0 1 0 0 0 1 59.898068178350172 35.244749397646423 14.372935081821659 1 rotate no_reflect no_shear #
lump $-1 $-1 $36 $6 #
transform $-1 1 0 0 0 1 0 0 0 1 59.898068178350172 35.244749397646423 14.372935081821659 1 rotate no_reflect no_shear #
lump $-1 $-1 $37 $7 #
transform $-1 1 0 0 0 1 0 0 0 1 59.898068178350172 35.244749397646423 14.372935081821659 1 rotate no_reflect no_shear #
lump $-1 $-1 $38 $8 #
transform $-1 1 0 0 0 1 0 0 0 1 59.898068178350172 35.244749397646423 14.372935081821659 1 rotate no_reflect no_shear #
lump $-1 $-1 $39 $9 #
transform $-1 1 0 0 0 1 0 0 0 1 59.898068178350172 35.244749397646423 14.372935081821659 1 rotate no_reflect no_shear #
shell $-1 $-1 $-1 $40 $-1 $10 #
shell $-1 $-1 $-1 $41 $-1 $12 #
shell $-1 $-1 $-1 $42 $-1 $14 #
shell $-1 $-1 $-1 $43 $-1 $16 #
shell $-1 $-1 $-1 $44 $-1 $18 #
shell $-1 $-1 $-1 $45 $-1 $20 #
shell $-1 $-1 $-1 $46 $-1 $22 #
shell $-1 $-1 $-1 $47 $-1 $24 #
shell $-1 $-1 $-1 $48 $-1 $26 #
shell $-1 $-1 $-1 $49 $-1 $28 #
face $-1 $50 $51 $30 $-1 $52 forward single #
face $-1 $53 $54 $31 $-1 $55 reversed single #
face $-1 $56 $57 $32 $-1 $58 reversed single #
face $-1 $59 $60 $33 $-1 $61 forward single #
face $-1 $62 $63 $34 $-1 $64 reversed single #
face $-1 $65 $66 $35 $-1 $67 forward single #
face $-1 $68 $69 $36 $-1 $70 forward single #
face $-1 $71 $72 $37 $-1 $73 reversed single #
face $-1 $74 $75 $38 $-1 $76 forward single #
face $-1 $77 $78 $39 $-1 $79 forward single #
face $-1 $80 $81 $30 $-1 $82 reversed single #
loop $-1 $-1 $83 $40 #
plane-surface $-1 0 0 14.372935081821659 0 0 1 1 0 0 forward_v I I I I #
face $-1 $84 $85 $31 $-1 $86 reversed single #
loop $-1 $-1 $87 $41 #
plane-surface $-1 -51.452875101048242 -28.230242113705305 0 1 0 0 0 0 -1 forward_v I I I I #
face $-1 $88 $89 $32 $-1 $90 reversed single #
loop $-1 $-1 $91 $42 #
plane-surface $-1 -126.88721836286757 -18.692508105090681 103.59748547827422 0 1 0 -0.55919291073839883 0 0.82903756765294845 forward_v I I I I #
face $-1 $92 $93 $33 $-1 $94 forward single #
loop $-1 $95 $96 $43 #
cone-surface $-1 -50.960330074323615 -10.509181872834588 7.1666051045953019 0.55919291073839883 0 -0.82903756765294845 3.3161502706117938 0 2.2367716429535953 1 I I 0 1 4 forward I I I I #
face $-1 $97 $98 $34 $-1 $99 reversed single #
loop $-1 $-1 $100 $44 #
plane-surface $-1 68.76468775805364 0.87032360459870262 173.23041608617629 0 -1 0 -0.74314483375859142 0 -0.66913059716165679 forward_v I I I I #
face $-1 $101 $102 $35 $-1 $103 forward single #
loop $-1 $104 $105 $45 #
cone-surface $-1 54.000892475017572 -7.6710980187397695 8.085722930282996 -0.74314483375859142 0 -0.66913059716165679 0.66913059716165679 0 -0.74314483375859142 1 I I 0 1 1 forward I I I I #
face $-1 $106 $107 $36 $-1 $108 forward single #
loop $-1 $109 $110 $46 #
cone-surface $-1 54.000892475017572 -2.5462450447366862 8.085722930282996 -0.74314483375859142 0 -0.66913059716165679 0.66913059716165679 0 -0.74314483375859142 1 I I 0 1 1 forward I I I I #
face $-1 $111 $112 $37 $-1 $113 reversed single #
loop $-1 $-1 $114 $47 #
plane-surface $-1 68.76468775805364 25.11668123595739 173.23041608617629 0 -1 0 -0.74314483375859142 0 -0.66913059716165679 forward_v I I I I #
face $-1 $115 $116 $38 $-1 $117 forward single #
loop $-1 $118 $119 $48 #
cone-surface $-1 54.000892475017572 16.575259612618915 8.085722930282996 -0.74314483375859142 0 -0.66913059716165679 0.66913059716165679 0 -0.74314483375859142 1 I I 0 1 1 forward I I I I #
face $-1 $120 $121 $39 $-1 $122 forward single #
loop $-1 $123 $124 $49 #
cone-surface $-1 54.000892475017572 21.700112586622005 8.085722930282996 -0.74314483375859142 0 -0.66913059716165679 0.66913059716165679 0 -0.74314483375859142 1 I I 0 1 1 forward I I I I #
face $-1 $125 $126 $30 $-1 $127 reversed single #
loop $-1 $-1 $128 $50 #
plane-surface $-1 0 0 -14.372935081821659 0 0 1 1 0 0 forward_v I I I I #
coedge $-1 $129 $130 $131 $132 forward $51 $-1 #
face $-1 $133 $134 $31 $-1 $135 reversed single #
loop $-1 $-1 $136 $53 #
plane-surface $-1 -47.763425524745557 -21.215734829764187 0 0 -1 0 0 0 -1 forward_v I I I I #
coedge $-1 $137 $138 $139 $140 forward $54 $-1 #
face $-1 $141 $142 $32 $-1 $143 reversed single #
loop $-1 $-1 $144 $56 #
plane-surface $-1 -59.898068178350186 -10.509181872834585 4.2819879788944206 -0.55919291073839883 0 0.82903756765294845 0.82903756765294845 0 0.55919291073839883 forward_v I I I I #
coedge $-1 $145 $146 $147 $148 reversed $57 $-1 #
face $-1 $-1 $149 $33 $-1 $150 forward single #
loop $-1 $151 $152 $59 #
cone-surface $-1 -48.384428162435007 -10.509181872834588 3.347673543526664 0.55919291073839883 0 -0.82903756765294845 1.6580751353058969 0 1.1183858214767977 1 I I -0.70710678118654746 0.70710678118654746 2 forward I I I I #
loop $-1 $-1 $153 $43 #
coedge $-1 $96 $96 $154 $155 reversed $60 $-1 #
face $-1 $156 $157 $34 $-1 $158 reversed single #
loop $-1 $-1 $159 $62 #
plane-surface $-1 -20.261192079667993 -5.1086715317382279 93.071155828158112 0.74314483375859142 0 0.66913059716165679 0.66913059716165679 0 -0.74314483375859142 forward_v I I I I #
coedge $-1 $160 $161 $162 $163 reversed $63 $-1 #
face $-1 $-1 $164 $35 $-1 $165 forward single #
loop $-1 $166 $167 $65 #
cone-surface $-1 52.381677246092295 -7.6710980187397695 6.6277750258560886 -0.74314483375859142 0 -0.66913059716165679 0.3345652985808284 0 -0.37157241687929571 1 I I -0.70710678118654746 0.70710678118654746 0.5 forward I I I I #
loop $-1 $-1 $168 $45 #
coedge $-1 $105 $105 $169 $170 reversed $66 $-1 #
face $-1 $-1 $171 $36 $-1 $172 forward single #
loop $-1 $173 $174 $68 #
cone-surface $-1 52.381677246092295 -2.5462450447366862 6.6277750258560886 -0.74314483375859142 0 -0.66913059716165679 0.3345652985808284 0 -0.37157241687929571 1 I I -0.70710678118654746 0.70710678118654746 0.5 forward I I I I #
loop $-1 $-1 $175 $46 #
coedge $-1 $110 $110 $176 $177 reversed $69 $-1 #
face $-1 $178 $179 $37 $-1 $180 reversed single #
loop $-1 $-1 $181 $71 #
plane-surface $-1 -20.261192079667993 19.13768609962046 93.071155828158112 0.74314483375859142 0 0.66913059716165679 0.66913059716165679 0 -0.74314483375859142 forward_v I I I I #
coedge $-1 $182 $183 $184 $185 reversed $72 $-1 #
face $-1 $-1 $186 $38 $-1 $187 forward single #
loop $-1 $188 $189 $74 #
cone-surface $-1 52.381677246092295 16.575259612618915 6.6277750258560886 -0.74314483375859142 0 -0.66913059716165679 0.3345652985808284 0 -0.37157241687929571 1 I I -0.70710678118654746 0.70710678118654746 0.5 forward I I I I #
loop $-1 $-1 $190 $48 #
coedge $-1 $119 $119 $191 $192 reversed $75 $-1 #
face $-1 $-1 $193 $39 $-1 $194 forward single #
loop $-1 $195 $196 $77 #
cone-surface $-1 52.381677246092295 21.700112586622005 6.6277750258560886 -0.74314483375859142 0 -0.66913059716165679 0.3345652985808284 0 -0.37157241687929571 1 I I -0.70710678118654746 0.70710678118654746 0.5 forward I I I I #
loop $-1 $-1 $197 $49 #
coedge $-1 $124 $124 $198 $199 reversed $78 $-1 #
face $-1 $200 $201 $30 $-1 $202 reversed single #
loop $-1 $-1 $203 $80 #
plane-surface $-1 0 -35.244749397646423 0 0 1 0 0 0 1 forward_v I I I I #
coedge $-1 $204 $205 $206 $207 forward $81 $-1 #
coedge $-1 $208 $83 $209 $210 forward $51 $-1 #
coedge $-1 $83 $208 $211 $212 forward $51 $-1 #
coedge $-1 $213 $214 $83 $132 reversed $215 $-1 #
edge $-1 $216 -35.244749397646423 $217 35.244749397646423 $131 $218 forward 7 unknown #
face $-1 $219 $220 $31 $-1 $221 forward single #
loop $-1 $-1 $222 $84 #
plane-surface $-1 -44.073975948442872 -28.230242113705305 0 -1 0 0 0 0 1 forward_v I I I I #
coedge $-1 $223 $224 $225 $226 forward $85 $-1 #
coedge $-1 $227 $87 $228 $229 reversed $54 $-1 #
coedge $-1 $87 $227 $230 $231 reversed $54 $-1 #
coedge $-1 $224 $223 $87 $140 reversed $85 $-1 #
edge $-1 $232 -14.372935081821659 $233 14.372935081821659 $139 $234 forward 7 unknown #
face $-1 $235 $236 $32 $-1 $237 reversed single #
loop $-1 $-1 $238 $88 #
plane-surface $-1 -126.88721836286757 -2.3258556405784887 103.59748547827422 0 -1 0 0.55919291073839883 0 -0.82903756765294845 forward_v I I I I #
coedge $-1 $239 $240 $241 $242 reversed $89 $-1 #
coedge $-1 $146 $91 $243 $244 reversed $57 $-1 #
coedge $-1 $91 $145 $239 $245 reversed $57 $-1 #
coedge $-1 $241 $246 $91 $148 forward $247 $-1 #
edge $-1 $248 3.5455410030836134 $249 18.505985030313113 $147 $250 forward 7 unknown #
loop $-1 $-1 $154 $92 #
plane-surface $-1 -59.898068178350186 -10.509181872834585 4.2819879788944206 -0.55919291073839883 0 0.82903756765294845 0.82903756765294845 0 0.55919291073839883 forward_v I I I I #
loop $-1 $-1 $251 $59 #
coedge $-1 $152 $152 $153 $252 reversed $93 $-1 #
coedge $-1 $153 $153 $152 $252 forward $95 $-1 #
coedge $-1 $154 $154 $96 $155 forward $149 $-1 #
edge $-1 $253 0 $253 6.2831853071796004 $154 $254 forward 7 unknown #
face $-1 $255 $256 $34 $-1 $257 forward single #
loop $-1 $-1 $258 $97 #
plane-surface $-1 68.76468775805364 -11.087666668075158 173.23041608617629 0 1 0 0.74314483375859142 0 0.66913059716165679 forward_v I I I I #
coedge $-1 $259 $260 $261 $262 reversed $98 $-1 #
coedge $-1 $161 $100 $263 $264 reversed $63 $-1 #
coedge $-1 $100 $160 $259 $265 reversed $63 $-1 #
coedge $-1 $261 $266 $100 $163 forward $256 $-1 #
edge $-1 $267 -25.515724299323352 $268 -16.216658516750144 $162 $269 forward 7 unknown #
loop $-1 $-1 $169 $101 #
plane-surface $-1 -20.261192079667993 -5.1086715317382279 93.071155828158112 0.74314483375859142 0 0.66913059716165679 0.66913059716165679 0 -0.74314483375859142 forward_v I I I I #
loop $-1 $-1 $270 $65 #
coedge $-1 $167 $167 $168 $271 reversed $102 $-1 #
coedge $-1 $168 $168 $167 $271 forward $104 $-1 #
coedge $-1 $169 $169 $105 $170 forward $164 $-1 #
edge $-1 $272 0 $272 6.2831853071796004 $169 $273 forward 7 unknown #
loop $-1 $-1 $176 $106 #
plane-surface $-1 -20.261192079667993 -5.1086715317382279 93.071155828158112 0.74314483375859142 0 0.66913059716165679 0.66913059716165679 0 -0.74314483375859142 forward_v I I I I #
loop $-1 $-1 $274 $68 #
coedge $-1 $174 $174 $175 $275 reversed $107 $-1 #
coedge $-1 $175 $175 $174 $275 forward $109 $-1 #
coedge $-1 $176 $176 $110 $177 forward $171 $-1 #
edge $-1 $276 0 $276 6.2831853071796004 $176 $277 forward 7 unknown #
face $-1 $278 $279 $37 $-1 $280 reversed single #
loop $-1 $-1 $281 $111 #
plane-surface $-1 68.76468775805364 13.158690963283529 173.23041608617629 0 1 0 0.74314483375859142 0 0.66913059716165679 forward_v I I I I #
coedge $-1 $282 $283 $284 $285 reversed $112 $-1 #
coedge $-1 $183 $114 $286 $287 reversed $72 $-1 #
coedge $-1 $114 $182 $282 $288 reversed $72 $-1 #
coedge $-1 $284 $289 $114 $185 forward $290 $-1 #
edge $-1 $291 -25.515724299323352 $292 -16.216658516750144 $184 $293 forward 7 unknown #
loop $-1 $-1 $191 $115 #
plane-surface $-1 -20.261192079667993 19.13768609962046 93.071155828158112 0.74314483375859142 0 0.66913059716165679 0.66913059716165679 0 -0.74314483375859142 forward_v I I I I #
loop $-1 $-1 $294 $74 #
coedge $-1 $189 $189 $190 $295 reversed $116 $-1 #
coedge $-1 $190 $190 $189 $295 forward $118 $-1 #
coedge $-1 $191 $191 $119 $192 forward $186 $-1 #
edge $-1 $296 0 $296 6.2831853071796004 $191 $297 forward 7 unknown #
loop $-1 $-1 $198 $120 #
plane-surface $-1 -20.261192079667993 19.13768609962046 93.071155828158112 0.74314483375859142 0 0.66913059716165679 0.66913059716165679 0 -0.74314483375859142 forward_v I I I I #
loop $-1 $-1 $298 $77 #
coedge $-1 $196 $196 $197 $299 reversed $121 $-1 #
coedge $-1 $197 $197 $196 $299 forward $123 $-1 #
coedge $-1 $198 $198 $124 $199 forward $193 $-1 #
edge $-1 $300 0 $300 6.2831853071796004 $198 $301 forward 7 unknown #
face $-1 $302 $303 $30 $-1 $304 reversed single #
loop $-1 $-1 $305 $125 #
plane-surface $-1 -59.898068178350172 0 0 1 0 0 0 0 -1 forward_v I I I I #
coedge $-1 $306 $211 $307 $308 forward $126 $-1 #
coedge $-1 $309 $128 $306 $310 forward $81 $-1 #
coedge $-1 $128 $309 $311 $312 forward $81 $-1 #
coedge $-1 $214 $213 $128 $207 reversed $215 $-1 #
edge $-1 $313 -35.244749397646423 $314 35.244749397646423 $206 $315 forward 7 unknown #
coedge $-1 $130 $129 $316 $317 forward $51 $-1 #
coedge $-1 $318 $319 $129 $210 reversed $303 $-1 #
edge $-1 $217 -59.898068178350172 $320 59.898068178350172 $209 $321 forward 7 unknown #
coedge $-1 $203 $322 $130 $212 reversed $126 $-1 #
edge $-1 $323 -59.898068178350172 $216 59.898068178350172 $211 $324 forward 7 unknown #
coedge $-1 $206 $131 $322 $325 forward $215 $-1 #
coedge $-1 $131 $206 $318 $326 reversed $215 $-1 #
loop $-1 $-1 $213 $302 #
vertex $-1 $132 $327 #
vertex $-1 $132 $328 #
straight-curve $-1 59.898068178350172 0 14.372935081821659 0 1 0 I I #
face $-1 $329 $330 $31 $-1 $331 reversed single #
loop $-1 $-1 $332 $133 #
plane-surface $-1 0 0 14.372935081821659 0 0 1 1 0 0 forward_v I I I I #
coedge $-1 $333 $334 $335 $336 reversed $134 $-1 #
coedge $-1 $139 $136 $337 $338 reversed $85 $-1 #
coedge $-1 $136 $139 $339 $340 reversed $85 $-1 #
coedge $-1 $334 $333 $136 $226 reversed $134 $-1 #
edge $-1 $341 -14.372935081821659 $342 14.372935081821659 $225 $343 forward 7 unknown #
coedge $-1 $138 $137 $344 $345 reversed $54 $-1 #
coedge $-1 $337 $346 $137 $229 forward $330 $-1 #
edge $-1 $347 -21.129628340793772 $233 -7.1006137729115348 $228 $348 forward 7 unknown #
coedge $-1 $349 $339 $138 $231 forward $220 $-1 #
edge $-1 $232 7.1006137729115348 $350 21.129628340793772 $230 $351 forward 7 unknown #
vertex $-1 $231 $352 #
vertex $-1 $229 $353 #
straight-curve $-1 -51.452875101048242 -21.215734829764187 0 0 0 -1 I I #
face $-1 $-1 $247 $32 $-1 $354 forward single #
loop $-1 $-1 $355 $141 #
plane-surface $-1 -59.898068178350172 0 0 1 0 0 0 0 -1 forward_v I I I I #
coedge $-1 $356 $357 $358 $359 reversed $142 $-1 #
coedge $-1 $360 $144 $146 $245 forward $89 $-1 #
coedge $-1 $144 $360 $356 $361 forward $89 $-1 #
coedge $-1 $358 $147 $144 $242 forward $247 $-1 #
edge $-1 $249 -13.437917168673389 $362 2.9287352958388038 $241 $363 forward 7 unknown #
coedge $-1 $364 $365 $145 $244 forward $236 $-1 #
edge $-1 $366 -47.516754760242684 $248 -37.425807657315453 $243 $367 forward 7 unknown #
edge $-1 $249 -18.04555620993553 $366 -1.7244626260799089e-014 $146 $368 forward 7 unknown #
coedge $-1 $147 $358 $364 $369 forward $247 $-1 #
loop $-1 $-1 $358 $235 #
vertex $-1 $244 $370 #
vertex $-1 $148 $371 #
straight-curve $-1 -63.443609181433786 -18.692508105090681 14.372935081821659 1 0 0 I I #
coedge $-1 $251 $251 $-1 $372 reversed $151 $-1 #
edge $-1 $373 0 $373 6.2831853071796004 $152 $374 forward 7 unknown #
vertex $-1 $155 $375 #
ellipse-curve $-1 -52.417846164735423 -10.509181872834588 9.327461530358045 -0.55919291073839883 0 0.82903756765294845 3.3161502706117938 0 2.2367716429535953 1 I I #
face $-1 $-1 $376 $34 $-1 $377 reversed single #
loop $-1 $-1 $162 $156 #
plane-surface $-1 0 0 14.372935081821659 0 0 1 1 0 0 forward_v I I I I #
coedge $-1 $378 $379 $380 $381 reversed $157 $-1 #
coedge $-1 $382 $159 $161 $265 forward $98 $-1 #
coedge $-1 $159 $382 $378 $383 forward $98 $-1 #
coedge $-1 $380 $162 $159 $262 forward $256 $-1 #
edge $-1 $268 -3.4246593704678165 $384 8.5333309022060444 $261 $385 forward 7 unknown #
coedge $-1 $386 $387 $160 $264 forward $376 $-1 #
edge $-1 $388 -82.569932052651666 $267 -72.24227296126648 $263 $389 forward 7 unknown #
edge $-1 $268 105.89890041797875 $388 119.79613635670033 $161 $390 forward 7 unknown #
coedge $-1 $162 $380 $386 $391 forward $256 $-1 #
vertex $-1 $264 $392 #
vertex $-1 $163 $393 #
straight-curve $-1 34.38234387902682 0.87032360459870262 14.372935081821666 -1 0 0 I I #
coedge $-1 $270 $270 $-1 $394 reversed $166 $-1 #
edge $-1 $395 0 $395 6.2831853071796004 $167 $396 forward 7 unknown #
vertex $-1 $170 $397 #
ellipse-curve $-1 55.248535287063561 -7.6710980187397695 9.2091055361290763 0.74314483375859142 0 0.66913059716165679 0.66913059716165679 0 -0.74314483375859142 1 I I #
coedge $-1 $274 $274 $-1 $398 reversed $173 $-1 #
edge $-1 $399 0 $399 6.2831853071796004 $174 $400 forward 7 unknown #
vertex $-1 $177 $401 #
ellipse-curve $-1 55.248535287063561 -2.5462450447366862 9.2091055361290763 0.74314483375859142 0 0.66913059716165679 0.66913059716165679 0 -0.74314483375859142 1 I I #
face $-1 $-1 $290 $37 $-1 $402 forward single #
loop $-1 $-1 $403 $178 #
plane-surface $-1 59.898068178350172 0 0 -1 0 0 0 0 1 forward_v I I I I #
coedge $-1 $404 $405 $406 $407 reversed $179 $-1 #
coedge $-1 $408 $181 $183 $288 forward $112 $-1 #
coedge $-1 $181 $408 $404 $409 forward $112 $-1 #
coedge $-1 $406 $184 $181 $285 forward $290 $-1 #
edge $-1 $292 -15.54783818614716 $410 -3.5898479134732995 $284 $411 forward 7 unknown #
coedge $-1 $412 $413 $182 $287 forward $279 $-1 #
edge $-1 $414 -82.569932052651666 $291 -72.24227296126648 $286 $415 forward 7 unknown #
edge $-1 $292 105.89890041797875 $414 119.79613635670033 $183 $416 forward 7 unknown #
coedge $-1 $184 $406 $412 $417 forward $290 $-1 #
loop $-1 $-1 $406 $278 #
vertex $-1 $287 $418 #
vertex $-1 $185 $419 #
straight-curve $-1 34.38234387902682 25.11668123595739 14.372935081821666 -1 0 0 I I #
coedge $-1 $294 $294 $-1 $420 reversed $188 $-1 #
edge $-1 $421 0 $421 6.2831853071796004 $189 $422 forward 7 unknown #
vertex $-1 $192 $423 #
ellipse-curve $-1 55.248535287063561 16.575259612618915 9.2091055361290763 0.74314483375859142 0 0.66913059716165679 0.66913059716165679 0 -0.74314483375859142 1 I I #
coedge $-1 $298 $298 $-1 $424 reversed $195 $-1 #
edge $-1 $425 0 $425 6.2831853071796004 $196 $426 forward 7 unknown #
vertex $-1 $199 $427 #
ellipse-curve $-1 55.248535287063561 21.700112586622005 9.2091055361290763 0.74314483375859142 0 0.66913059716165679 0.66913059716165679 0 -0.74314483375859142 1 I I #
face $-1 $-1 $215 $30 $-1 $428 reversed single #
loop $-1 $-1 $318 $200 #
plane-surface $-1 0 35.244749397646423 0 0 -1 0 0 0 -1 forward_v I I I I #
coedge $-1 $429 $316 $319 $430 forward $201 $-1 #
coedge $-1 $322 $203 $204 $310 reversed $126 $-1 #
coedge $-1 $316 $429 $203 $308 reversed $201 $-1 #
edge $-1 $323 -14.372935081821659 $431 14.372935081821659 $307 $432 forward 7 unknown #
coedge $-1 $205 $204 $429 $433 forward $81 $-1 #
edge $-1 $314 -59.898068178350172 $431 59.898068178350172 $306 $434 forward 7 unknown #
coedge $-1 $319 $318 $205 $312 reversed $303 $-1 #
edge $-1 $435 -59.898068178350172 $313 59.898068178350172 $311 $436 forward 7 unknown #
vertex $-1 $207 $437 #
vertex $-1 $325 $438 #
straight-curve $-1 59.898068178350172 0 -14.372935081821659 0 -1 0 I I #
coedge $-1 $305 $307 $208 $317 reversed $201 $-1 #
edge $-1 $320 -35.244749397646423 $323 35.244749397646423 $316 $439 forward 7 unknown #
coedge $-1 $311 $209 $214 $326 forward $303 $-1 #
coedge $-1 $209 $311 $305 $430 reversed $303 $-1 #
vertex $-1 $210 $440 #
straight-curve $-1 0 35.244749397646423 14.372935081821659 -1 0 0 I I #
coedge $-1 $211 $306 $213 $325 reversed $126 $-1 #
vertex $-1 $317 $441 #
straight-curve $-1 0 -35.244749397646423 14.372935081821659 1 0 0 I I #
edge $-1 $216 -14.372935081821659 $314 14.372935081821659 $213 $442 forward 7 unknown #
edge $-1 $217 -14.372935081821659 $313 14.372935081821659 $214 $443 forward 7 unknown #
point $-1 59.898068178350172 -35.244749397646423 14.372935081821659 #
point $-1 59.898068178350172 35.244749397646423 14.372935081821659 #
face $-1 $-1 $444 $31 $-1 $445 reversed single #
loop $-1 $-1 $446 $219 #
plane-surface $-1 0 0 -14.372935081821659 0 0 1 1 0 0 forward_v I I I I #
coedge $-1 $339 $349 $334 $447 forward $220 $-1 #
coedge $-1 $225 $222 $446 $448 reversed $134 $-1 #
coedge $-1 $222 $225 $332 $447 reversed $134 $-1 #
coedge $-1 $449 $450 $222 $336 forward $444 $-1 #
edge $-1 $451 -14.372935081821659 $452 14.372935081821659 $335 $453 forward 7 unknown #
coedge $-1 $446 $228 $223 $338 forward $330 $-1 #
edge $-1 $233 -27.571162338675464 $342 -20.192263186070093 $337 $454 forward 7 unknown #
coedge $-1 $230 $332 $224 $340 forward $220 $-1 #
edge $-1 $341 20.192263186070093 $232 27.571162338675464 $339 $455 forward 7 unknown #
vertex $-1 $340 $456 #
vertex $-1 $338 $457 #
straight-curve $-1 -44.073975948442872 -21.215734829764187 0 0 0 -1 I I #
coedge $-1 $450 $449 $227 $345 forward $444 $-1 #
edge $-1 $350 -14.372935081821659 $347 14.372935081821659 $344 $458 forward 7 unknown #
coedge $-1 $228 $446 $450 $459 forward $330 $-1 #
vertex $-1 $229 $460 #
straight-curve $-1 -51.452875101048242 -14.115121056852653 -14.372935081821659 0 1 0 I I #
coedge $-1 $332 $230 $449 $461 forward $220 $-1 #
vertex $-1 $461 $462 #
straight-curve $-1 -51.452875101048242 -14.115121056852653 14.372935081821659 0 -1 0 I I #
point $-1 -51.452875101048242 -21.215734829764187 14.372935081821659 #
point $-1 -51.452875101048242 -21.215734829764187 -14.372935081821659 #
plane-surface $-1 0 0 14.372935081821659 0 0 1 1 0 0 forward_v I I I I #
coedge $-1 $365 $364 $357 $463 forward $236 $-1 #
coedge $-1 $357 $238 $240 $361 reversed $142 $-1 #
coedge $-1 $238 $356 $355 $463 reversed $142 $-1 #
coedge $-1 $246 $241 $238 $359 forward $247 $-1 #
edge $-1 $362 -18.505985030313113 $464 -3.5455410030836134 $358 $465 forward 7 unknown #
coedge $-1 $240 $239 $365 $466 reversed $89 $-1 #
edge $-1 $467 1.7244626260799089e-014 $362 18.04555620993553 $356 $468 forward 7 unknown #
vertex $-1 $242 $469 #
straight-curve $-1 -44.937624151120673 -5.2545909364172925 14.372935081821659 0 1 0 I I #
coedge $-1 $355 $243 $246 $369 reversed $236 $-1 #
coedge $-1 $243 $355 $360 $466 forward $236 $-1 #
vertex $-1 $244 $470 #
straight-curve $-1 -59.898068178350172 -18.692508105090681 51.798742739137111 0 0 1 I I #
straight-curve $-1 -59.898068178350186 -18.692508105090681 4.2819879788944206 -0.82903756765294845 0 -0.55919291073839883 I I #
edge $-1 $464 2.3258556405784887 $248 18.692508105090681 $364 $471 forward 7 unknown #
point $-1 -59.898068178350172 -18.692508105090681 14.372935081821659 #
point $-1 -44.937624151120673 -18.692508105090681 14.372935081821659 #
edge $-1 $472 1 $472 0 $251 $-1 forward 7 unknown #
vertex $-1 $252 $473 #
ellipse-curve $-1 -49.502813983911807 -10.509181872834588 5.0057486788325605 -0.55919291073839883 0 0.82903756765294845 3.3161502706117938 0 2.2367716429535953 1 I I #
point $-1 -49.101695894123623 -10.509181872834588 11.564233173311639 #
loop $-1 $-1 $263 $255 #
plane-surface $-1 59.898068178350172 0 0 -1 0 0 0 0 1 forward_v I I I I #
coedge $-1 $379 $258 $260 $383 reversed $157 $-1 #
coedge $-1 $258 $378 $474 $475 reversed $157 $-1 #
coedge $-1 $266 $261 $258 $381 forward $256 $-1 #
edge $-1 $384 16.216658516750144 $476 25.515724299323352 $380 $477 forward 7 unknown #
coedge $-1 $260 $259 $387 $478 reversed $98 $-1 #
edge $-1 $479 -119.79613635670033 $384 -105.89890041797875 $378 $480 forward 7 unknown #
vertex $-1 $262 $481 #
straight-curve $-1 50.599002395776957 -2.5543357658691139 14.372935081821666 0 -1 0 I I #
coedge $-1 $474 $263 $266 $391 reversed $376 $-1 #
coedge $-1 $263 $474 $382 $478 forward $376 $-1 #
vertex $-1 $264 $482 #
straight-curve $-1 59.898068178350172 0.87032360459870262 86.615208043088145 0 0 1 I I #
straight-curve $-1 -20.261192079667993 0.87032360459870262 93.071155828158112 0.66913059716165679 0 -0.74314483375859142 I I #
edge $-1 $476 -11.087666668075158 $267 0.87032360459870262 $386 $483 forward 7 unknown #
point $-1 59.898068178350172 0.87032360459870262 14.372935081821659 #
point $-1 50.599002395776964 0.87032360459870262 14.372935081821652 #
edge $-1 $484 1 $484 0 $270 $-1 forward 7 unknown #
vertex $-1 $271 $485 #
ellipse-curve $-1 52.753249662971591 -7.6710980187397695 6.9623403244369166 0.74314483375859142 0 0.66913059716165679 0.66913059716165679 0 -0.74314483375859142 1 I I #
point $-1 55.917665884225215 -7.6710980187397695 8.4659607023704844 #
edge $-1 $486 1 $486 0 $274 $-1 forward 7 unknown #
vertex $-1 $275 $487 #
ellipse-curve $-1 52.753249662971591 -2.5462450447366862 6.9623403244369166 0.74314483375859142 0 0.66913059716165679 0.66913059716165679 0 -0.74314483375859142 1 I I #
point $-1 55.917665884225215 -2.5462450447366862 8.4659607023704844 #
plane-surface $-1 0 0 14.372935081821659 0 0 1 1 0 0 forward_v I I I I #
coedge $-1 $413 $412 $405 $488 forward $279 $-1 #
coedge $-1 $405 $281 $283 $409 reversed $179 $-1 #
coedge $-1 $281 $404 $403 $488 reversed $179 $-1 #
coedge $-1 $289 $284 $281 $407 forward $290 $-1 #
edge $-1 $410 16.216658516750144 $489 25.515724299323352 $406 $490 forward 7 unknown #
coedge $-1 $283 $282 $413 $491 reversed $112 $-1 #
edge $-1 $492 -119.79613635670033 $410 -105.89890041797875 $404 $493 forward 7 unknown #
vertex $-1 $285 $494 #
straight-curve $-1 50.599002395776957 9.5688430498102299 14.372935081821666 0 -1 0 I I #
coedge $-1 $403 $286 $289 $417 reversed $279 $-1 #
coedge $-1 $286 $403 $408 $491 forward $279 $-1 #
vertex $-1 $287 $495 #
straight-curve $-1 59.898068178350172 25.11668123595739 86.615208043088145 0 0 1 I I #
straight-curve $-1 -20.261192079667993 25.11668123595739 93.071155828158112 0.66913059716165679 0 -0.74314483375859142 I I #
edge $-1 $489 13.158690963283529 $291 25.11668123595739 $412 $496 forward 7 unknown #
point $-1 59.898068178350172 25.11668123595739 14.372935081821659 #
point $-1 50.599002395776964 25.11668123595739 14.372935081821652 #
edge $-1 $497 1 $497 0 $294 $-1 forward 7 unknown #
vertex $-1 $295 $498 #
ellipse-curve $-1 52.753249662971591 16.575259612618915 6.9623403244369166 0.74314483375859142 0 0.66913059716165679 0.66913059716165679 0 -0.74314483375859142 1 I I #
point $-1 55.917665884225215 16.575259612618915 8.4659607023704844 #
edge $-1 $499 1 $499 0 $298 $-1 forward 7 unknown #
vertex $-1 $299 $500 #
ellipse-curve $-1 52.753249662971591 21.700112586622005 6.9623403244369166 0.74314483375859142 0 0.66913059716165679 0.66913059716165679 0 -0.74314483375859142 1 I I #
point $-1 55.917665884225215 21.700112586622005 8.4659607023704844 #
plane-surface $-1 59.898068178350172 0 0 -1 0 0 0 0 1 forward_v I I I I #
coedge $-1 $307 $305 $309 $433 reversed $201 $-1 #
edge $-1 $320 -14.372935081821659 $435 14.372935081821659 $319 $501 forward 7 unknown #
vertex $-1 $433 $502 #
straight-curve $-1 -59.898068178350172 -35.244749397646423 0 0 0 -1 I I #
edge $-1 $431 -35.244749397646423 $435 35.244749397646423 $429 $503 forward 7 unknown #
straight-curve $-1 0 -35.244749397646423 -14.372935081821659 -1 0 0 I I #
vertex $-1 $312 $504 #
straight-curve $-1 0 35.244749397646423 -14.372935081821659 1 0 0 I I #
point $-1 59.898068178350172 35.244749397646423 -14.372935081821659 #
point $-1 59.898068178350172 -35.244749397646423 -14.372935081821659 #
straight-curve $-1 -59.898068178350172 0 14.372935081821659 0 -1 0 I I #
point $-1 -59.898068178350172 35.244749397646423 14.372935081821659 #
point $-1 -59.898068178350172 -35.244749397646423 14.372935081821659 #
straight-curve $-1 59.898068178350172 -35.244749397646423 0 0 0 -1 I I #
straight-curve $-1 59.898068178350172 35.244749397646423 0 0 0 -1 I I #
loop $-1 $-1 $335 $329 #
plane-surface $-1 0 -35.244749397646423 0 0 1 0 0 0 1 forward_v I I I I #
coedge $-1 $346 $337 $333 $448 forward $330 $-1 #
edge $-1 $452 -21.129628340793772 $341 -7.1006137729115348 $332 $505 forward 7 unknown #
edge $-1 $342 7.1006137729115348 $451 21.129628340793772 $446 $506 forward 7 unknown #
coedge $-1 $344 $335 $349 $461 reversed $444 $-1 #
coedge $-1 $335 $344 $346 $459 reversed $444 $-1 #
vertex $-1 $459 $507 #
vertex $-1 $336 $508 #
straight-curve $-1 -44.073975948442872 -35.244749397646423 0 0 0 1 I I #
straight-curve $-1 -23.881712762372779 -21.215734829764187 -14.372935081821659 1 0 0 I I #
straight-curve $-1 -23.881712762372779 -21.215734829764187 14.372935081821659 -1 0 0 I I #
point $-1 -44.073975948442872 -21.215734829764187 14.372935081821659 #
point $-1 -44.073975948442872 -21.215734829764187 -14.372935081821659 #
straight-curve $-1 -51.452875101048242 -35.244749397646423 0 0 0 -1 I I #
edge $-1 $451 44.073975948442872 $347 51.452875101048242 $450 $509 forward 7 unknown #
point $-1 -51.452875101048242 -35.244749397646423 -14.372935081821659 #
edge $-1 $350 -51.452875101048242 $452 -44.073975948442872 $449 $510 forward 7 unknown #
point $-1 -51.452875101048242 -35.244749397646423 14.372935081821659 #
edge $-1 $464 37.425807657315453 $467 47.516754760242684 $355 $511 forward 7 unknown #
vertex $-1 $369 $512 #
straight-curve $-1 -63.443609181433786 -2.3258556405784887 14.372935081821659 -1 0 0 I I #
edge $-1 $467 -2.9287352958388038 $366 13.437917168673389 $365 $513 forward 7 unknown #
vertex $-1 $466 $514 #
straight-curve $-1 -59.898068178350186 -2.3258556405784887 4.2819879788944206 0.82903756765294845 0 0.55919291073839883 I I #
point $-1 -44.937624151120673 -2.3258556405784887 14.372935081821659 #
point $-1 -59.898068178350172 -18.692508105090681 4.2819879788944304 #
straight-curve $-1 -59.898068178350172 0 14.372935081821659 0 -1 0 I I #
vertex $-1 $372 $515 #
point $-1 -46.186663713300014 -10.509181872834588 7.2425203217861558 #
coedge $-1 $387 $386 $379 $475 forward $376 $-1 #
edge $-1 $476 72.24227296126648 $479 82.569932052651666 $474 $516 forward 7 unknown #
vertex $-1 $391 $517 #
straight-curve $-1 34.38234387902682 -11.087666668075158 14.372935081821666 1 0 0 I I #
edge $-1 $479 -8.5333309022060444 $388 3.4246593704678165 $387 $518 forward 7 unknown #
vertex $-1 $478 $519 #
straight-curve $-1 -20.261192079667993 -11.087666668075158 93.071155828158112 -0.66913059716165679 0 0.74314483375859142 I I #
point $-1 50.599002395776964 -11.087666668075158 14.372935081821652 #
point $-1 59.898068178350172 0.87032360459870262 4.0452759904364797 #
straight-curve $-1 59.898068178350172 0 14.372935081821659 0 1 0 I I #
vertex $-1 $394 $520 #
point $-1 53.422380260133245 -7.6710980187397695 6.2191954906783256 #
vertex $-1 $398 $521 #
point $-1 53.422380260133245 -2.5462450447366862 6.2191954906783256 #
edge $-1 $489 72.24227296126648 $492 82.569932052651666 $403 $522 forward 7 unknown #
vertex $-1 $417 $523 #
straight-curve $-1 34.38234387902682 13.158690963283529 14.372935081821666 1 0 0 I I #
edge $-1 $492 3.5898479134732995 $414 15.54783818614716 $413 $524 forward 7 unknown #
vertex $-1 $491 $525 #
straight-curve $-1 -20.261192079667993 13.158690963283529 93.071155828158112 -0.66913059716165679 0 0.74314483375859142 I I #
point $-1 50.599002395776964 13.158690963283529 14.372935081821652 #
point $-1 59.898068178350172 25.11668123595739 4.0452759904364797 #
straight-curve $-1 59.898068178350172 0 14.372935081821659 0 1 0 I I #
vertex $-1 $420 $526 #
point $-1 53.422380260133245 16.575259612618915 6.2191954906783256 #
vertex $-1 $424 $527 #
point $-1 53.422380260133245 21.700112586622005 6.2191954906783256 #
straight-curve $-1 -59.898068178350172 35.244749397646423 0 0 0 -1 I I #
point $-1 -59.898068178350172 -35.244749397646423 -14.372935081821659 #
straight-curve $-1 -59.898068178350172 0 -14.372935081821659 0 1 0 I I #
point $-1 -59.898068178350172 35.244749397646423 -14.372935081821659 #
straight-curve $-1 -44.073975948442872 -14.115121056852653 14.372935081821659 0 1 0 I I #
straight-curve $-1 -44.073975948442872 -14.115121056852653 -14.372935081821659 0 -1 0 I I #
point $-1 -44.073975948442872 -35.244749397646423 -14.372935081821659 #
point $-1 -44.073975948442872 -35.244749397646423 14.372935081821659 #
straight-curve $-1 0 -35.244749397646423 -14.372935081821659 -1 0 0 I I #
straight-curve $-1 0 -35.244749397646423 14.372935081821659 1 0 0 I I #
straight-curve $-1 -59.898068178350172 -2.3258556405784887 51.798742739137111 0 0 -1 I I #
point $-1 -59.898068178350172 -2.3258556405784887 14.372935081821659 #
straight-curve $-1 -59.898068178350172 -5.2545909364172925 4.2819879788944295 0 -1 0 I I #
point $-1 -59.898068178350172 -2.3258556405784887 4.2819879788944304 #
point $-1 -47.266042340958208 -10.509181872834588 1.6895984082207671 #
straight-curve $-1 59.898068178350172 -11.087666668075158 86.615208043088145 0 0 -1 I I #
point $-1 59.898068178350172 -11.087666668075158 14.372935081821659 #
straight-curve $-1 59.898068178350172 -2.5543357658691139 4.0452759904364868 0 1 0 I I #
point $-1 59.898068178350172 -11.087666668075158 4.0452759904364797 #
point $-1 52.010104829212999 -7.6710980187397695 6.2932097272752605 #
point $-1 52.010104829212999 -2.5462450447366862 6.2932097272752605 #
straight-curve $-1 59.898068178350172 13.158690963283529 86.615208043088145 0 0 -1 I I #
point $-1 59.898068178350172 13.158690963283529 14.372935081821659 #
straight-curve $-1 59.898068178350172 9.5688430498102299 4.0452759904364868 0 1 0 I I #
point $-1 59.898068178350172 13.158690963283529 4.0452759904364797 #
point $-1 52.010104829212999 16.575259612618915 6.2932097272752605 #
point $-1 52.010104829212999 21.700112586622005 6.2932097272752605 #
End-of-ACIS-data 