500 0 8 0           
7 Unknown 11 ACIS 5.0 NT 24 Thu Mar 25 18:37:40 1999 
-1 9.9999999999999995e-007 1e-010 
body $-1 $8 $-1 $9 #
body $-1 $10 $-1 $11 #
body $-1 $12 $-1 $13 #
body $-1 $14 $-1 $15 #
body $-1 $16 $-1 $17 #
body $-1 $18 $-1 $19 #
body $-1 $20 $-1 $21 #
body $-1 $22 $-1 $23 #
lump $-1 $-1 $24 $0 #
transform $-1 1 0 0 0 1 0 0 0 1 40.461439863277079 18.036439752279936 5.5385251363709065 1 rotate no_reflect no_shear #
lump $-1 $-1 $25 $1 #
transform $-1 1 0 0 0 1 0 0 0 1 40.461439863277079 18.036439752279936 5.5385251363709065 1 rotate no_reflect no_shear #
lump $-1 $-1 $26 $2 #
transform $-1 1 0 0 0 1 0 0 0 1 40.461439863277079 18.036439752279936 5.5385251363709065 1 rotate no_reflect no_shear #
lump $-1 $-1 $27 $3 #
transform $-1 1 0 0 0 1 0 0 0 1 40.461439863277079 18.036439752279936 5.5385251363709065 1 rotate no_reflect no_shear #
lump $-1 $-1 $28 $4 #
transform $-1 1 0 0 0 1 0 0 0 1 40.461439863277079 18.036439752279936 5.5385251363709065 1 rotate no_reflect no_shear #
lump $-1 $-1 $29 $5 #
transform $-1 1 0 0 0 1 0 0 0 1 40.461439863277079 18.036439752279936 5.5385251363709065 1 rotate no_reflect no_shear #
lump $-1 $-1 $30 $6 #
transform $-1 1 0 0 0 1 0 0 0 1 40.461439863277079 18.036439752279936 5.5385251363709065 1 rotate no_reflect no_shear #
lump $-1 $-1 $31 $7 #
transform $-1 1 0 0 0 1 0 0 0 1 40.461439863277079 18.036439752279936 5.5385251363709065 1 rotate no_reflect no_shear #
shell $-1 $-1 $-1 $32 $-1 $8 #
shell $-1 $-1 $-1 $33 $-1 $10 #
shell $-1 $-1 $-1 $34 $-1 $12 #
shell $-1 $-1 $-1 $35 $-1 $14 #
shell $-1 $-1 $-1 $36 $-1 $16 #
shell $-1 $-1 $-1 $37 $-1 $18 #
shell $-1 $-1 $-1 $38 $-1 $20 #
shell $-1 $-1 $-1 $39 $-1 $22 #
face $-1 $40 $41 $24 $-1 $42 forward single #
face $-1 $43 $44 $25 $-1 $45 reversed single #
face $-1 $46 $47 $26 $-1 $48 reversed single #
face $-1 $49 $50 $27 $-1 $51 forward single #
face $-1 $52 $53 $28 $-1 $54 forward single #
face $-1 $55 $56 $29 $-1 $57 reversed single #
face $-1 $58 $59 $30 $-1 $60 forward single #
face $-1 $61 $62 $31 $-1 $63 forward single #
face $-1 $64 $65 $24 $-1 $66 reversed single #
loop $-1 $-1 $67 $32 #
plane-surface $-1 0 0 5.5385251363709065 0 0 1 1 0 0 forward_v I I I I #
face $-1 $68 $69 $25 $-1 $70 reversed single #
loop $-1 $-1 $71 $33 #
plane-surface $-1 0 -14.653438215920321 2.3345406590014468 0 0 1 1 0 0 forward_v I I I I #
face $-1 $72 $73 $26 $-1 $74 reversed single #
loop $-1 $-1 $75 $34 #
plane-surface $-1 70.081271300691967 -4.4974151976765704 112.24608593504695 0 -1 0 -0.86602541151947299 0 -0.49999998660252726 forward_v I I I I #
face $-1 $76 $77 $27 $-1 $78 forward single #
loop $-1 $79 $80 $35 #
cone-surface $-1 38.522733997469196 -9.3352876847366666 3.1408300448612252 -0.86602541151947299 0 -0.49999998660252726 0.24999999330126363 0 -0.43301270575973649 1 I I 0 1 0.5 forward I I I I #
face $-1 $81 $82 $28 $-1 $83 forward single #
loop $-1 $84 $85 $36 #
cone-surface $-1 38.522733997469196 -6.4325641925006085 3.1408300448612252 -0.86602541151947299 0 -0.49999998660252726 0.24999999330126363 0 -0.43301270575973649 1 I I 0 1 0.5 forward I I I I #
face $-1 $86 $87 $29 $-1 $88 reversed single #
loop $-1 $-1 $89 $37 #
plane-surface $-1 -106.74958287924892 10.753779658937576 46.673825164232994 0 1 0 -0.81915205242281985 0 0.57357642473473569 forward_v I I I I #
face $-1 $90 $91 $30 $-1 $92 forward single #
loop $-1 $93 $94 $38 #
cone-surface $-1 -38.203261374071189 12.834539685606821 2.6116589215365966 0.81915205242281985 0 -0.57357642473473569 0.28678821236736785 0 0.40957602621140993 1 I I 0 1 0.5 forward I I I I #
face $-1 $95 $96 $31 $-1 $97 forward single #
loop $-1 $98 $99 $39 #
cone-surface $-1 -38.203261374071189 15.95567972561069 2.6116589215365966 0.81915205242281985 0 -0.57357642473473569 0.28678821236736785 0 0.40957602621140993 1 I I 0 1 0.5 forward I I I I #
face $-1 $100 $101 $24 $-1 $102 reversed single #
loop $-1 $-1 $103 $40 #
plane-surface $-1 0 0 -5.5385251363709065 0 0 1 1 0 0 forward_v I I I I #
coedge $-1 $104 $105 $106 $107 forward $41 $-1 #
face $-1 $108 $109 $25 $-1 $110 reversed single #
loop $-1 $-1 $111 $43 #
plane-surface $-1 0 -11.270436679560706 3.9365328976861766 0 -1 0 0 0 -1 forward_v I I I I #
coedge $-1 $112 $113 $114 $115 reversed $44 $-1 #
face $-1 $116 $117 $26 $-1 $118 forward single #
loop $-1 $-1 $119 $46 #
plane-surface $-1 1.0841620792234608e-006 -7.8839259386186384 71.784647155931935 0.86602541151947299 0 0.49999998660252726 0.49999998660252726 0 -0.86602541151947299 forward_v I I I I #
coedge $-1 $120 $121 $122 $123 reversed $47 $-1 #
face $-1 $-1 $124 $27 $-1 $125 forward single #
loop $-1 $126 $127 $49 #
cone-surface $-1 37.474633661179141 -9.3352876847366666 2.535709055185337 -0.86602541151947299 0 -0.49999998660252726 0.12499999665063181 0 -0.21650635287986825 1 I I -0.70710678118654746 0.70710678118654746 0.25 forward I I I I #
loop $-1 $-1 $128 $35 #
coedge $-1 $80 $80 $129 $130 reversed $50 $-1 #
face $-1 $-1 $131 $28 $-1 $132 forward single #
loop $-1 $133 $134 $52 #
cone-surface $-1 37.474633661179141 -6.4325641925006085 2.535709055185337 -0.86602541151947299 0 -0.49999998660252726 0.12499999665063181 0 -0.21650635287986825 1 I I -0.70710678118654746 0.70710678118654746 0.25 forward I I I I #
loop $-1 $-1 $135 $36 #
coedge $-1 $85 $85 $136 $137 reversed $53 $-1 #
face $-1 $138 $139 $29 $-1 $140 forward single #
loop $-1 $-1 $141 $55 #
plane-surface $-1 -40.461439863277079 14.395109705608757 0.25836913143703555 -0.81915205242281985 0 0.57357642473473569 0.57357642473473569 0 0.81915205242281985 forward_v I I I I #
coedge $-1 $142 $143 $144 $145 reversed $56 $-1 #
face $-1 $-1 $146 $30 $-1 $147 forward single #
loop $-1 $148 $149 $58 #
cone-surface $-1 -37.588897334754073 12.834539685606821 2.181476602985545 0.81915205242281985 0 -0.57357642473473569 0.14339410618368392 0 0.20478801310570496 1 I I -0.70710678118654746 0.70710678118654746 0.25 forward I I I I #
loop $-1 $-1 $150 $38 #
coedge $-1 $94 $94 $151 $152 reversed $59 $-1 #
face $-1 $-1 $153 $31 $-1 $154 forward single #
loop $-1 $155 $156 $61 #
cone-surface $-1 -37.588897334754073 15.95567972561069 2.181476602985545 0.81915205242281985 0 -0.57357642473473569 0.14339410618368392 0 0.20478801310570496 1 I I -0.70710678118654746 0.70710678118654746 0.25 forward I I I I #
loop $-1 $-1 $157 $39 #
coedge $-1 $99 $99 $158 $159 reversed $62 $-1 #
face $-1 $160 $161 $24 $-1 $162 reversed single #
loop $-1 $-1 $163 $64 #
plane-surface $-1 0 -18.036439752279936 0 0 1 0 0 0 1 forward_v I I I I #
coedge $-1 $164 $165 $166 $167 forward $65 $-1 #
coedge $-1 $168 $67 $169 $170 forward $41 $-1 #
coedge $-1 $67 $168 $171 $172 forward $41 $-1 #
coedge $-1 $173 $174 $67 $107 reversed $175 $-1 #
edge $-1 $176 -18.036439752279936 $177 18.036439752279936 $106 $178 forward 7 unknown #
face $-1 $179 $180 $25 $-1 $181 reversed single #
loop $-1 $-1 $182 $68 #
plane-surface $-1 -40.461439863277079 0 0 1 0 0 0 0 -1 forward_v I I I I #
coedge $-1 $183 $184 $185 $186 reversed $69 $-1 #
coedge $-1 $187 $71 $188 $189 reversed $44 $-1 #
coedge $-1 $71 $187 $183 $190 forward $44 $-1 #
coedge $-1 $185 $191 $71 $115 forward $192 $-1 #
edge $-1 $193 -10.709720644319775 $194 -3.9437175716005459 $114 $195 forward 7 unknown #
face $-1 $196 $197 $26 $-1 $198 forward single #
loop $-1 $-1 $199 $72 #
plane-surface $-1 0 -11.270436679560706 3.9365328976861766 0 -1 0 0 0 -1 forward_v I I I I #
coedge $-1 $200 $201 $202 $203 reversed $73 $-1 #
coedge $-1 $121 $75 $204 $205 reversed $47 $-1 #
coedge $-1 $75 $120 $200 $206 reversed $47 $-1 #
coedge $-1 $202 $207 $75 $123 forward $197 $-1 #
edge $-1 $208 -5.4208042129310954 $209 -3.2065804481357034 $122 $210 forward 7 unknown #
loop $-1 $-1 $129 $76 #
plane-surface $-1 1.0841620792234608e-006 -7.8839259386186384 71.784647155931935 0.86602541151947299 0 0.49999998660252726 0.49999998660252726 0 -0.86602541151947299 forward_v I I I I #
loop $-1 $-1 $211 $49 #
coedge $-1 $127 $127 $128 $212 reversed $77 $-1 #
coedge $-1 $128 $128 $127 $212 forward $79 $-1 #
coedge $-1 $129 $129 $80 $130 forward $124 $-1 #
edge $-1 $213 0 $213 6.2831853071796004 $129 $214 forward 7 unknown #
loop $-1 $-1 $136 $81 #
plane-surface $-1 1.0841620792234608e-006 -7.8839259386186384 71.784647155931935 0.86602541151947299 0 0.49999998660252726 0.49999998660252726 0 -0.86602541151947299 forward_v I I I I #
loop $-1 $-1 $215 $52 #
coedge $-1 $134 $134 $135 $216 reversed $82 $-1 #
coedge $-1 $135 $135 $134 $216 forward $84 $-1 #
coedge $-1 $136 $136 $85 $137 forward $131 $-1 #
edge $-1 $217 0 $217 6.2831853071796004 $136 $218 forward 7 unknown #
face $-1 $219 $220 $29 $-1 $221 reversed single #
loop $-1 $-1 $144 $86 #
plane-surface $-1 0 0 5.5385251363709065 0 0 1 1 0 0 forward_v I I I I #
coedge $-1 $222 $223 $224 $225 reversed $87 $-1 #
coedge $-1 $143 $89 $226 $227 reversed $56 $-1 #
coedge $-1 $89 $142 $222 $228 reversed $56 $-1 #
coedge $-1 $224 $229 $89 $145 forward $139 $-1 #
edge $-1 $230 12.913351576347381 $231 16.610556502336337 $144 $232 forward 7 unknown #
loop $-1 $-1 $151 $90 #
plane-surface $-1 -40.461439863277079 14.395109705608757 0.25836913143703555 -0.81915205242281985 0 0.57357642473473569 0.57357642473473569 0 0.81915205242281985 forward_v I I I I #
loop $-1 $-1 $233 $58 #
coedge $-1 $149 $149 $150 $234 reversed $91 $-1 #
coedge $-1 $150 $150 $149 $234 forward $93 $-1 #
coedge $-1 $151 $151 $94 $152 forward $146 $-1 #
edge $-1 $235 0 $235 6.2831853071796004 $151 $236 forward 7 unknown #
loop $-1 $-1 $158 $95 #
plane-surface $-1 -40.461439863277079 14.395109705608757 0.25836913143703555 -0.81915205242281985 0 0.57357642473473569 0.57357642473473569 0 0.81915205242281985 forward_v I I I I #
loop $-1 $-1 $237 $61 #
coedge $-1 $156 $156 $157 $238 reversed $96 $-1 #
coedge $-1 $157 $157 $156 $238 forward $98 $-1 #
coedge $-1 $158 $158 $99 $159 forward $153 $-1 #
edge $-1 $239 0 $239 6.2831853071796004 $158 $240 forward 7 unknown #
face $-1 $241 $242 $24 $-1 $243 reversed single #
loop $-1 $-1 $244 $100 #
plane-surface $-1 -40.461439863277079 0 0 1 0 0 0 0 -1 forward_v I I I I #
coedge $-1 $245 $171 $246 $247 forward $101 $-1 #
coedge $-1 $248 $103 $245 $249 forward $65 $-1 #
coedge $-1 $103 $248 $250 $251 forward $65 $-1 #
coedge $-1 $174 $173 $103 $167 reversed $175 $-1 #
edge $-1 $252 -18.036439752279936 $253 18.036439752279936 $166 $254 forward 7 unknown #
coedge $-1 $105 $104 $255 $256 forward $41 $-1 #
coedge $-1 $257 $258 $104 $170 reversed $242 $-1 #
edge $-1 $177 -40.461439863277079 $259 40.461439863277079 $169 $260 forward 7 unknown #
coedge $-1 $163 $261 $105 $172 reversed $101 $-1 #
edge $-1 $262 -40.461439863277079 $176 40.461439863277079 $171 $263 forward 7 unknown #
coedge $-1 $166 $106 $261 $264 forward $175 $-1 #
coedge $-1 $106 $166 $257 $265 reversed $175 $-1 #
loop $-1 $-1 $173 $241 #
vertex $-1 $107 $266 #
vertex $-1 $107 $267 #
straight-curve $-1 40.461439863277079 0 5.5385251363709065 0 1 0 I I #
face $-1 $268 $269 $25 $-1 $270 forward single #
loop $-1 $-1 $188 $108 #
plane-surface $-1 0 -18.036439752279936 0 0 1 0 0 0 1 forward_v I I I I #
coedge $-1 $271 $272 $273 $274 forward $109 $-1 #
coedge $-1 $273 $111 $113 $190 reversed $69 $-1 #
coedge $-1 $111 $273 $275 $276 reversed $69 $-1 #
coedge $-1 $277 $114 $111 $186 forward $192 $-1 #
edge $-1 $194 0.36627421015835848 $278 3.5702586875278182 $185 $279 forward 7 unknown #
coedge $-1 $113 $112 $271 $280 reversed $44 $-1 #
coedge $-1 $281 $282 $112 $189 forward $180 $-1 #
edge $-1 $283 -40.461439863277079 $193 40.461439863277079 $188 $284 forward 7 unknown #
edge $-1 $285 -40.461439863277079 $194 40.461439863277079 $183 $286 forward 7 unknown #
coedge $-1 $114 $277 $281 $287 forward $192 $-1 #
loop $-1 $-1 $185 $268 #
vertex $-1 $189 $288 #
vertex $-1 $115 $289 #
straight-curve $-1 40.461439863277079 -7.3267191079601606 2.3345406590014468 0 1 0 I I #
face $-1 $-1 $290 $26 $-1 $291 reversed single #
loop $-1 $-1 $202 $116 #
plane-surface $-1 0 0 5.5385251363709065 0 0 1 1 0 0 forward_v I I I I #
coedge $-1 $292 $293 $201 $294 reversed $117 $-1 #
coedge $-1 $295 $119 $121 $206 forward $73 $-1 #
coedge $-1 $119 $295 $199 $294 forward $73 $-1 #
coedge $-1 $296 $122 $119 $203 forward $197 $-1 #
edge $-1 $209 0.55545222836725117 $297 7.3284737102513873 $202 $298 forward 7 unknown #
coedge $-1 $299 $300 $120 $205 forward $290 $-1 #
edge $-1 $301 -54.419666028121412 $208 -50.584517831152567 $204 $302 forward 7 unknown #
edge $-1 $209 76.494432078303348 $301 80.922879726554143 $121 $303 forward 7 unknown #
coedge $-1 $122 $296 $299 $304 forward $197 $-1 #
vertex $-1 $205 $305 #
vertex $-1 $123 $306 #
straight-curve $-1 35.040635650345983 -4.4974151976765704 5.5385251363709074 -1 0 0 I I #
coedge $-1 $211 $211 $-1 $307 reversed $126 $-1 #
edge $-1 $308 0 $308 6.2831853071796004 $127 $309 forward 7 unknown #
vertex $-1 $130 $310 #
ellipse-curve $-1 39.35432798087939 -9.3352876847366666 3.6209510378864853 0.86602541151947299 0 0.49999998660252726 0.24999999330126363 0 -0.43301270575973649 1 I I #
coedge $-1 $215 $215 $-1 $311 reversed $133 $-1 #
edge $-1 $312 0 $312 6.2831853071796004 $134 $313 forward 7 unknown #
vertex $-1 $137 $314 #
ellipse-curve $-1 39.35432798087939 -6.4325641925006085 3.6209510378864853 0.86602541151947299 0 0.49999998660252726 0.24999999330126363 0 -0.43301270575973649 1 I I #
face $-1 $-1 $315 $29 $-1 $316 reversed single #
loop $-1 $-1 $317 $138 #
plane-surface $-1 0 18.036439752279936 0 0 -1 0 0 0 -1 forward_v I I I I #
coedge $-1 $318 $141 $143 $228 forward $87 $-1 #
coedge $-1 $141 $318 $317 $319 reversed $87 $-1 #
coedge $-1 $320 $144 $141 $225 forward $139 $-1 #
edge $-1 $231 3.5562248061331978 $321 10.838884899475561 $224 $322 forward 7 unknown #
coedge $-1 $323 $324 $142 $227 forward $315 $-1 #
edge $-1 $325 -23.078543450679462 $230 -17.79838744574559 $226 $326 forward 7 unknown #
edge $-1 $231 -6.4458802115146554 $325 0 $143 $327 forward 7 unknown #
coedge $-1 $144 $320 $323 $328 forward $139 $-1 #
vertex $-1 $227 $329 #
vertex $-1 $145 $330 #
straight-curve $-1 -53.37479143962446 10.753779658937576 5.5385251363709074 1 0 0 I I #
coedge $-1 $233 $233 $-1 $331 reversed $148 $-1 #
edge $-1 $332 0 $332 6.2831853071796004 $149 $333 forward 7 unknown #
vertex $-1 $152 $334 #
ellipse-curve $-1 -38.612837400282601 12.834539685606821 2.8984471339039666 -0.81915205242281985 0 0.57357642473473569 0.28678821236736785 0 0.40957602621140993 1 I I #
coedge $-1 $237 $237 $-1 $335 reversed $155 $-1 #
edge $-1 $336 0 $336 6.2831853071796004 $156 $337 forward 7 unknown #
vertex $-1 $159 $338 #
ellipse-curve $-1 -38.612837400282601 15.95567972561069 2.8984471339039666 -0.81915205242281985 0 0.57357642473473569 0.28678821236736785 0 0.40957602621140993 1 I I #
face $-1 $-1 $175 $24 $-1 $339 reversed single #
loop $-1 $-1 $257 $160 #
plane-surface $-1 0 18.036439752279936 0 0 -1 0 0 0 -1 forward_v I I I I #
coedge $-1 $340 $255 $258 $341 forward $161 $-1 #
coedge $-1 $261 $163 $164 $249 reversed $101 $-1 #
coedge $-1 $255 $340 $163 $247 reversed $161 $-1 #
edge $-1 $262 -5.5385251363709065 $342 5.5385251363709065 $246 $343 forward 7 unknown #
coedge $-1 $165 $164 $340 $344 forward $65 $-1 #
edge $-1 $253 -40.461439863277079 $342 40.461439863277079 $245 $345 forward 7 unknown #
coedge $-1 $258 $257 $165 $251 reversed $242 $-1 #
edge $-1 $346 -40.461439863277079 $252 40.461439863277079 $250 $347 forward 7 unknown #
vertex $-1 $167 $348 #
vertex $-1 $264 $349 #
straight-curve $-1 40.461439863277079 0 -5.5385251363709065 0 -1 0 I I #
coedge $-1 $244 $246 $168 $256 reversed $161 $-1 #
edge $-1 $259 -18.036439752279936 $262 18.036439752279936 $255 $350 forward 7 unknown #
coedge $-1 $250 $169 $174 $265 forward $242 $-1 #
coedge $-1 $169 $250 $244 $341 reversed $242 $-1 #
vertex $-1 $170 $351 #
straight-curve $-1 0 18.036439752279936 5.5385251363709065 -1 0 0 I I #
coedge $-1 $171 $245 $173 $264 reversed $101 $-1 #
vertex $-1 $256 $352 #
straight-curve $-1 0 -18.036439752279936 5.5385251363709065 1 0 0 I I #
edge $-1 $176 -5.5385251363709065 $253 5.5385251363709065 $173 $353 forward 7 unknown #
edge $-1 $177 -5.5385251363709065 $252 5.5385251363709065 $174 $354 forward 7 unknown #
point $-1 40.461439863277079 -18.036439752279936 5.5385251363709065 #
point $-1 40.461439863277079 18.036439752279936 5.5385251363709065 #
face $-1 $-1 $192 $25 $-1 $355 reversed single #
loop $-1 $-1 $275 $179 #
plane-surface $-1 0 0 5.5385251363709065 0 0 1 1 0 0 forward_v I I I I #
coedge $-1 $356 $182 $187 $280 forward $109 $-1 #
coedge $-1 $182 $356 $357 $358 reversed $109 $-1 #
coedge $-1 $184 $183 $182 $274 reversed $69 $-1 #
edge $-1 $359 -3.5702586875278182 $285 -0.36627421015835848 $182 $360 forward 7 unknown #
coedge $-1 $357 $361 $184 $276 forward $269 $-1 #
edge $-1 $278 -40.461439863277079 $359 40.461439863277079 $275 $362 forward 7 unknown #
coedge $-1 $191 $185 $361 $363 reversed $192 $-1 #
vertex $-1 $186 $364 #
straight-curve $-1 40.461439863277079 -11.270436679560706 1.9682664488430883 0 0 1 I I #
edge $-1 $285 3.9437175716005459 $283 10.709720644319775 $271 $365 forward 7 unknown #
coedge $-1 $366 $188 $191 $287 reversed $180 $-1 #
coedge $-1 $188 $366 $356 $367 forward $180 $-1 #
vertex $-1 $189 $368 #
straight-curve $-1 0 -18.036439752279936 2.3345406590014468 1 0 0 I I #
vertex $-1 $280 $369 #
straight-curve $-1 0 -11.270436679560706 2.3345406590014468 1 0 0 I I #
edge $-1 $370 -5.5385251363709065 $193 -2.3345406590014468 $191 $371 forward 7 unknown #
point $-1 40.461439863277079 -18.036439752279936 2.3345406590014468 #
point $-1 40.461439863277079 -11.270436679560706 2.3345406590014468 #
loop $-1 $-1 $204 $196 #
plane-surface $-1 40.461439863277079 0 0 -1 0 0 0 0 1 forward_v I I I I #
coedge $-1 $293 $199 $372 $373 reversed $117 $-1 #
coedge $-1 $199 $292 $296 $374 reversed $117 $-1 #
edge $-1 $375 -80.922879726554143 $297 -76.494432078303348 $199 $376 forward 7 unknown #
coedge $-1 $201 $200 $300 $377 reversed $73 $-1 #
coedge $-1 $207 $202 $293 $374 forward $197 $-1 #
vertex $-1 $374 $378 #
straight-curve $-1 38.24721609848168 -3.9419629693093192 5.5385251363709074 0 -1 0 I I #
coedge $-1 $372 $204 $207 $304 reversed $290 $-1 #
coedge $-1 $204 $372 $295 $377 forward $290 $-1 #
vertex $-1 $205 $379 #
straight-curve $-1 40.461439863277079 -4.4974151976765704 56.123042967523475 0 0 1 I I #
straight-curve $-1 1.0841620792234608e-006 -4.4974151976765704 71.784647155931935 0.49999998660252726 0 -0.86602541151947299 I I #
edge $-1 $380 -11.270436679560706 $208 -4.4974151976765704 $299 $381 forward 7 unknown #
point $-1 40.461439863277079 -4.4974151976765704 5.5385251363709065 #
point $-1 38.247216098481687 -4.4974151976765704 5.5385251363709074 #
edge $-1 $382 1 $382 0 $211 $-1 forward 7 unknown #
vertex $-1 $212 $383 #
ellipse-curve $-1 37.691140014059009 -9.3352876847366666 2.6607090518359686 0.86602541151947299 0 0.49999998660252726 0.24999999330126363 0 -0.43301270575973649 1 I I #
point $-1 39.604327974180649 -9.3352876847366666 3.1879383321267447 #
edge $-1 $384 1 $384 0 $215 $-1 forward 7 unknown #
vertex $-1 $216 $385 #
ellipse-curve $-1 37.691140014059009 -6.4325641925006085 2.6607090518359686 0.86602541151947299 0 0.49999998660252726 0.24999999330126363 0 -0.43301270575973649 1 I I #
point $-1 39.604327974180649 -6.4325641925006085 3.1879383321267447 #
loop $-1 $-1 $226 $219 #
plane-surface $-1 -40.461439863277079 0 0 1 0 0 0 0 -1 forward_v I I I I #
coedge $-1 $386 $387 $223 $319 forward $220 $-1 #
coedge $-1 $223 $222 $324 $388 reversed $87 $-1 #
edge $-1 $321 5.0521619945346599 $389 11.498042206049316 $317 $390 forward 7 unknown #
coedge $-1 $229 $224 $387 $391 forward $139 $-1 #
vertex $-1 $391 $392 #
straight-curve $-1 -36.764234937288123 7.1975548528043785 5.5385251363709074 0 1 0 I I #
coedge $-1 $393 $226 $229 $328 reversed $315 $-1 #
coedge $-1 $226 $393 $318 $388 forward $315 $-1 #
vertex $-1 $227 $394 #
straight-curve $-1 -40.461439863277079 10.753779658937576 23.336912582116497 0 0 1 I I #
straight-curve $-1 -40.461439863277079 10.753779658937576 0.25836913143703555 -0.57357642473473569 0 -0.81915205242281985 I I #
edge $-1 $395 -18.036439752279936 $230 -10.753779658937576 $323 $396 forward 7 unknown #
point $-1 -40.461439863277079 10.753779658937576 5.5385251363709065 #
point $-1 -36.764234937288123 10.753779658937576 5.5385251363709065 #
edge $-1 $397 1 $397 0 $233 $-1 forward 7 unknown #
vertex $-1 $234 $398 #
ellipse-curve $-1 -37.793685347859778 12.834539685606821 2.3248707091692289 -0.81915205242281985 0 0.57357642473473569 0.28678821236736785 0 0.40957602621140993 1 I I #
point $-1 -38.326049187915231 12.834539685606821 3.3080231601153747 #
edge $-1 $399 1 $399 0 $237 $-1 forward 7 unknown #
vertex $-1 $238 $400 #
ellipse-curve $-1 -37.793685347859778 15.95567972561069 2.3248707091692289 -0.81915205242281985 0 0.57357642473473569 0.28678821236736785 0 0.40957602621140993 1 I I #
point $-1 -38.326049187915231 15.95567972561069 3.3080231601153747 #
plane-surface $-1 40.461439863277079 0 0 -1 0 0 0 0 1 forward_v I I I I #
coedge $-1 $246 $244 $248 $344 reversed $161 $-1 #
edge $-1 $259 -5.5385251363709065 $346 5.5385251363709065 $258 $401 forward 7 unknown #
vertex $-1 $344 $402 #
straight-curve $-1 -40.461439863277079 -18.036439752279936 0 0 0 -1 I I #
edge $-1 $342 -18.036439752279936 $346 18.036439752279936 $340 $403 forward 7 unknown #
straight-curve $-1 0 -18.036439752279936 -5.5385251363709065 -1 0 0 I I #
vertex $-1 $251 $404 #
straight-curve $-1 0 18.036439752279936 -5.5385251363709065 1 0 0 I I #
point $-1 40.461439863277079 18.036439752279936 -5.5385251363709065 #
point $-1 40.461439863277079 -18.036439752279936 -5.5385251363709065 #
straight-curve $-1 -40.461439863277079 0 5.5385251363709065 0 -1 0 I I #
point $-1 -40.461439863277079 18.036439752279936 5.5385251363709065 #
point $-1 -40.461439863277079 -18.036439752279936 5.5385251363709065 #
straight-curve $-1 40.461439863277079 -18.036439752279936 0 0 0 -1 I I #
straight-curve $-1 40.461439863277079 18.036439752279936 0 0 0 -1 I I #
plane-surface $-1 40.461439863277079 0 0 -1 0 0 0 0 1 forward_v I I I I #
coedge $-1 $272 $271 $282 $367 reversed $109 $-1 #
coedge $-1 $405 $275 $272 $358 forward $269 $-1 #
edge $-1 $359 11.270436679560706 $406 18.036439752279936 $272 $407 forward 7 unknown #
vertex $-1 $358 $408 #
straight-curve $-1 -40.461439863277079 -11.270436679560706 1.9682664488430883 0 0 -1 I I #
coedge $-1 $275 $405 $277 $363 forward $269 $-1 #
straight-curve $-1 0 -11.270436679560706 5.5385251363709065 -1 0 0 I I #
edge $-1 $370 -18.036439752279936 $278 -11.270436679560706 $277 $409 forward 7 unknown #
point $-1 40.461439863277079 -11.270436679560706 5.5385251363709065 #
straight-curve $-1 -40.461439863277079 -7.3267191079601606 2.3345406590014468 0 -1 0 I I #
coedge $-1 $282 $281 $405 $410 reversed $180 $-1 #
edge $-1 $406 -5.5385251363709065 $283 -2.3345406590014468 $356 $411 forward 7 unknown #
point $-1 -40.461439863277079 -18.036439752279936 2.3345406590014468 #
point $-1 -40.461439863277079 -11.270436679560706 2.3345406590014468 #
vertex $-1 $363 $412 #
straight-curve $-1 40.461439863277079 -18.036439752279936 0 0 0 -1 I I #
coedge $-1 $300 $299 $292 $373 forward $290 $-1 #
edge $-1 $380 50.584517831152567 $375 54.419666028121412 $372 $413 forward 7 unknown #
edge $-1 $297 38.247216098481687 $380 40.461439863277079 $296 $414 forward 7 unknown #
vertex $-1 $373 $415 #
straight-curve $-1 1.0841620792234608e-006 -11.270436679560706 71.784647155931935 -0.49999998660252726 0 0.86602541151947299 I I #
edge $-1 $375 -7.3284737102513873 $301 -0.55545222836725117 $300 $416 forward 7 unknown #
point $-1 38.247216098481687 -11.270436679560706 5.5385251363709065 #
point $-1 40.461439863277079 -4.4974151976765704 1.7033769394020624 #
vertex $-1 $304 $417 #
straight-curve $-1 40.461439863277079 0 5.5385251363709065 0 1 0 I I #
vertex $-1 $307 $418 #
point $-1 37.941140007360275 -9.3352876847366666 2.2276963460762325 #
vertex $-1 $311 $419 #
point $-1 37.941140007360275 -6.4325641925006085 2.2276963460762325 #
coedge $-1 $387 $317 $393 $420 reversed $220 $-1 #
coedge $-1 $317 $386 $320 $391 reversed $220 $-1 #
edge $-1 $389 -10.838884899475561 $325 -3.5562248061331978 $324 $421 forward 7 unknown #
vertex $-1 $319 $422 #
straight-curve $-1 -33.866433923282223 18.036439752279936 9.6770140033665406 -0.57357642473473569 0 -0.81915205242281985 I I #
edge $-1 $321 36.764234937288123 $395 40.461439863277079 $387 $423 forward 7 unknown #
point $-1 -36.764234937288123 18.036439752279939 5.5385251363709065 #
coedge $-1 $324 $323 $386 $420 forward $315 $-1 #
point $-1 -40.461439863277079 10.753779658937576 0.25836913143703555 #
vertex $-1 $391 $424 #
straight-curve $-1 -40.461439863277079 0 5.5385251363709065 0 -1 0 I I #
vertex $-1 $331 $425 #
point $-1 -37.506897135492409 12.834539685606821 2.7344467353806388 #
vertex $-1 $335 $426 #
point $-1 -37.506897135492409 15.95567972561069 2.7344467353806388 #
straight-curve $-1 -40.461439863277079 18.036439752279936 0 0 0 -1 I I #
point $-1 -40.461439863277079 -18.036439752279936 -5.5385251363709065 #
straight-curve $-1 -40.461439863277079 0 -5.5385251363709065 0 1 0 I I #
point $-1 -40.461439863277079 18.036439752279936 -5.5385251363709065 #
coedge $-1 $361 $357 $366 $410 forward $269 $-1 #
vertex $-1 $358 $427 #
straight-curve $-1 -40.461439863277079 0 5.5385251363709065 0 -1 0 I I #
point $-1 -40.461439863277079 -11.270436679560706 5.5385251363709065 #
straight-curve $-1 40.461439863277079 0 5.5385251363709065 0 1 0 I I #
edge $-1 $406 -40.461439863277079 $370 40.461439863277079 $366 $428 forward 7 unknown #
straight-curve $-1 -40.461439863277079 -18.036439752279936 0 0 0 -1 I I #
point $-1 40.461439863277079 -18.036439752279936 5.5385251363709065 #
straight-curve $-1 40.461439863277079 -11.270436679560706 56.123042967523475 0 0 -1 I I #
straight-curve $-1 0 -11.270436679560706 5.5385251363709065 1 0 0 I I #
point $-1 40.461439863277079 -11.270436679560706 1.7033769394020624 #
straight-curve $-1 40.461439863277079 -3.9419629693093192 1.7033769394020624 0 1 0 I I #
point $-1 40.461439863277079 -11.270436679560706 5.5385251363709065 #
point $-1 37.258127308299272 -9.3352876847366666 2.4107090585347053 #
point $-1 37.258127308299272 -6.4325641925006085 2.4107090585347053 #
edge $-1 $395 -5.5385251363709065 $389 -0.25836913143703555 $386 $429 forward 7 unknown #
straight-curve $-1 -40.461439863277079 7.1975548528043785 0.25836913143703077 0 -1 0 I I #
point $-1 -40.461439863277079 18.036439752279939 0.25836913143703555 #
straight-curve $-1 0 18.036439752279936 5.5385251363709065 -1 0 0 I I #
point $-1 -40.461439863277079 18.036439752279936 5.5385251363709065 #
point $-1 -37.384109321648367 12.834539685606821 2.0380824968018612 #
point $-1 -37.384109321648367 15.95567972561069 2.0380824968018612 #
point $-1 -40.461439863277079 -18.036439752279936 5.5385251363709065 #
straight-curve $-1 0 -18.036439752279936 5.5385251363709065 1 0 0 I I #
straight-curve $-1 -40.461439863277079 18.036439752279936 0 0 0 -1 I I #
End-of-ACIS-data 