500 0 5 0           
7 Unknown 11 ACIS 5.0 NT 24 Thu Mar 25 23:32:23 1999 
-1 9.9999999999999995e-007 1e-010 
body $-1 $5 $-1 $6 #
body $-1 $7 $-1 $8 #
body $-1 $9 $-1 $10 #
body $-1 $11 $-1 $12 #
body $-1 $13 $-1 $14 #
lump $-1 $-1 $15 $0 #
transform $-1 1 0 0 0 1 0 0 0 1 59.679555650502031 25.006693659041957 5.679717893572434 1 rotate no_reflect no_shear #
lump $-1 $-1 $16 $1 #
transform $-1 1 0 0 0 1 0 0 0 1 59.679555650502031 25.006693659041957 5.679717893572434 1 rotate no_reflect no_shear #
lump $-1 $-1 $17 $2 #
transform $-1 1 0 0 0 1 0 0 0 1 59.679555650502031 25.006693659041957 5.679717893572434 1 rotate no_reflect no_shear #
lump $-1 $-1 $18 $3 #
transform $-1 1 0 0 0 1 0 0 0 1 59.679555650502031 25.006693659041957 5.679717893572434 1 rotate no_reflect no_shear #
lump $-1 $-1 $19 $4 #
transform $-1 1 0 0 0 1 0 0 0 1 59.679555650502031 25.006693659041957 5.679717893572434 1 rotate no_reflect no_shear #
shell $-1 $-1 $-1 $20 $-1 $5 #
shell $-1 $-1 $-1 $21 $-1 $7 #
shell $-1 $-1 $-1 $22 $-1 $9 #
shell $-1 $-1 $-1 $23 $-1 $11 #
shell $-1 $-1 $-1 $24 $-1 $13 #
face $-1 $25 $26 $15 $-1 $27 forward single #
face $-1 $28 $29 $16 $-1 $30 reversed single #
face $-1 $31 $32 $17 $-1 $33 forward single #
face $-1 $34 $35 $18 $-1 $36 reversed single #
face $-1 $37 $38 $19 $-1 $39 forward single #
face $-1 $40 $41 $15 $-1 $42 reversed single #
loop $-1 $-1 $43 $20 #
plane-surface $-1 0 0 5.679717893572434 0 0 1 1 0 0 forward_v I I I I #
face $-1 $44 $45 $16 $-1 $46 reversed single #
loop $-1 $-1 $47 $21 #
plane-surface $-1 33.079165232094354 43.611341383717672 129.7538054345539 1 0 0 0 -0.51503808176128008 -0.85716729658548041 forward_v I I I I #
face $-1 $48 $49 $17 $-1 $50 forward single #
loop $-1 $51 $52 $22 #
cone-surface $-1 42.249749376381068 21.410784025428701 3.2307348450776154 0 -0.51503808176128008 -0.85716729658548041 1 0 0 1 I I 0 1 1 forward I I I I #
face $-1 $53 $54 $18 $-1 $55 reversed single #
loop $-1 $-1 $56 $23 #
plane-surface $-1 51.420333520667782 -86.481181384242205 103.99500636786405 -1 0 0 0 -0.51503808176128008 0.85716729658548041 forward_v I I I I #
face $-1 $57 $58 $19 $-1 $59 forward single #
loop $-1 $60 $61 $24 #
cone-surface $-1 42.249749376381068 -21.410784025428697 3.230734845077619 0 0.51503808176128008 -0.85716729658548041 1 0 0 1 I I 0 1 1 forward I I I I #
face $-1 $62 $63 $15 $-1 $64 reversed single #
loop $-1 $-1 $65 $25 #
plane-surface $-1 0 0 -5.679717893572434 0 0 1 1 0 0 forward_v I I I I #
coedge $-1 $66 $67 $68 $69 forward $26 $-1 #
face $-1 $70 $71 $16 $-1 $72 reversed single #
loop $-1 $-1 $73 $28 #
plane-surface $-1 42.249749376381068 -17.86314634148259 27.443078677826776 0 0.51503808176128008 0.85716729658548041 1 0 0 forward_v I I I I #
coedge $-1 $74 $75 $76 $77 reversed $29 $-1 #
face $-1 $-1 $78 $17 $-1 $79 forward single #
loop $-1 $80 $81 $31 #
cone-surface $-1 42.249749376381068 20.882118268967659 2.3508872895078028 0 -0.51503808176128008 -0.85716729658548041 0.5 0 0 1 I I -0.70710678118654746 0.70710678118654746 0.5 forward I I I I #
loop $-1 $-1 $82 $22 #
coedge $-1 $52 $52 $83 $84 reversed $32 $-1 #
face $-1 $85 $86 $18 $-1 $87 reversed single #
loop $-1 $-1 $88 $34 #
plane-surface $-1 42.249749376381068 -25.006693659041943 1.6842796111369296 0 -0.51503808176128008 0.85716729658548041 1 0 0 forward_v I I I I #
coedge $-1 $89 $90 $91 $92 reversed $35 $-1 #
face $-1 $-1 $93 $19 $-1 $94 forward single #
loop $-1 $95 $96 $37 #
cone-surface $-1 42.249749376381068 -20.882118268967655 2.3508872895078063 0 0.51503808176128008 -0.85716729658548041 0.5 0 0 1 I I -0.70710678118654746 0.70710678118654746 0.5 forward I I I I #
loop $-1 $-1 $97 $24 #
coedge $-1 $61 $61 $98 $99 reversed $38 $-1 #
face $-1 $100 $101 $15 $-1 $102 reversed single #
loop $-1 $-1 $103 $40 #
plane-surface $-1 0 -25.006693659041957 0 0 1 0 0 0 1 forward_v I I I I #
coedge $-1 $104 $105 $106 $107 forward $41 $-1 #
coedge $-1 $108 $43 $109 $110 forward $26 $-1 #
coedge $-1 $43 $108 $111 $112 forward $26 $-1 #
coedge $-1 $113 $114 $43 $69 reversed $115 $-1 #
edge $-1 $116 -25.006693659041957 $117 25.006693659041957 $68 $118 forward 7 unknown #
face $-1 $119 $120 $16 $-1 $121 reversed single #
loop $-1 $-1 $122 $44 #
plane-surface $-1 51.420333520667782 43.611341383717672 129.7538054345539 -1 0 0 0 0.51503808176128008 0.85716729658548041 forward_v I I I I #
coedge $-1 $123 $124 $125 $126 reversed $45 $-1 #
coedge $-1 $75 $47 $127 $128 reversed $29 $-1 #
coedge $-1 $47 $74 $123 $129 reversed $29 $-1 #
coedge $-1 $125 $130 $47 $77 forward $131 $-1 #
edge $-1 $132 -3.2010229671831212 $133 3.4485028688826844 $76 $134 forward 7 unknown #
loop $-1 $-1 $83 $48 #
plane-surface $-1 42.249749376381068 -17.86314634148259 27.443078677826776 0 0.51503808176128008 0.85716729658548041 1 0 0 forward_v I I I I #
loop $-1 $-1 $135 $31 #
coedge $-1 $81 $81 $82 $136 reversed $49 $-1 #
coedge $-1 $82 $82 $81 $136 forward $51 $-1 #
coedge $-1 $83 $83 $52 $84 forward $78 $-1 #
edge $-1 $137 -2.3853099194501179e-015 $137 6.2831853071795978 $83 $138 forward 7 unknown #
face $-1 $139 $140 $18 $-1 $141 reversed single #
loop $-1 $-1 $142 $53 #
plane-surface $-1 33.079165232094354 -86.481181384242205 103.99500636786405 1 0 0 0 0.51503808176128008 -0.85716729658548041 forward_v I I I I #
coedge $-1 $143 $144 $145 $146 reversed $54 $-1 #
coedge $-1 $90 $56 $147 $148 reversed $35 $-1 #
coedge $-1 $56 $89 $143 $149 reversed $35 $-1 #
coedge $-1 $145 $150 $56 $92 forward $151 $-1 #
edge $-1 $152 18.233897033079145 $153 24.883422869144908 $91 $154 forward 7 unknown #
loop $-1 $-1 $98 $57 #
plane-surface $-1 42.249749376381068 -25.006693659041943 1.6842796111369296 0 -0.51503808176128008 0.85716729658548041 1 0 0 forward_v I I I I #
loop $-1 $-1 $155 $37 #
coedge $-1 $96 $96 $97 $156 reversed $58 $-1 #
coedge $-1 $97 $97 $96 $156 forward $60 $-1 #
coedge $-1 $98 $98 $61 $99 forward $93 $-1 #
edge $-1 $157 1.1567185259436004e-015 $157 6.2831853071796013 $98 $158 forward 7 unknown #
face $-1 $159 $160 $15 $-1 $161 reversed single #
loop $-1 $-1 $162 $62 #
plane-surface $-1 -59.679555650502031 0 0 1 0 0 0 0 -1 forward_v I I I I #
coedge $-1 $163 $111 $164 $165 forward $63 $-1 #
coedge $-1 $166 $65 $163 $167 forward $41 $-1 #
coedge $-1 $65 $166 $168 $169 forward $41 $-1 #
coedge $-1 $114 $113 $65 $107 reversed $115 $-1 #
edge $-1 $170 -25.006693659041957 $171 25.006693659041957 $106 $172 forward 7 unknown #
coedge $-1 $67 $66 $173 $174 forward $26 $-1 #
coedge $-1 $175 $176 $66 $110 reversed $160 $-1 #
edge $-1 $117 -59.679555650502031 $177 59.679555650502031 $109 $178 forward 7 unknown #
coedge $-1 $103 $179 $67 $112 reversed $63 $-1 #
edge $-1 $180 -59.679555650502031 $116 59.679555650502031 $111 $181 forward 7 unknown #
coedge $-1 $106 $68 $179 $182 forward $115 $-1 #
coedge $-1 $68 $106 $175 $183 reversed $115 $-1 #
loop $-1 $-1 $113 $159 #
vertex $-1 $69 $184 #
vertex $-1 $69 $185 #
straight-curve $-1 59.679555650502031 0 5.679717893572434 0 1 0 I I #
face $-1 $-1 $131 $16 $-1 $186 forward single #
loop $-1 $-1 $187 $70 #
plane-surface $-1 0 25.006693659041957 0 0 -1 0 0 0 -1 forward_v I I I I #
coedge $-1 $188 $189 $190 $191 reversed $71 $-1 #
coedge $-1 $192 $73 $75 $129 forward $45 $-1 #
coedge $-1 $73 $192 $188 $193 forward $45 $-1 #
coedge $-1 $190 $76 $73 $126 forward $131 $-1 #
edge $-1 $133 11.95429054390382 $194 30.295458832477248 $125 $195 forward 7 unknown #
coedge $-1 $196 $197 $74 $128 forward $120 $-1 #
edge $-1 $198 -63.192623106140047 $132 -59.197184823704518 $127 $199 forward 7 unknown #
edge $-1 $133 42.255828364826911 $198 50.013387318083922 $75 $200 forward 7 unknown #
coedge $-1 $76 $190 $196 $201 forward $131 $-1 #
loop $-1 $-1 $190 $119 #
vertex $-1 $128 $202 #
vertex $-1 $77 $203 #
straight-curve $-1 33.079165232094354 21.805670691858836 5.6797178935724304 0 -1 0 I I #
coedge $-1 $135 $135 $-1 $204 reversed $80 $-1 #
edge $-1 $205 0 $205 6.2831853071796004 $81 $206 forward 7 unknown #
vertex $-1 $84 $207 #
ellipse-curve $-1 42.249749376381068 21.681930741009079 3.6819987523546538 0 0.51503808176128008 0.85716729658548041 1 0 0 1 I I #
face $-1 $-1 $151 $18 $-1 $208 forward single #
loop $-1 $-1 $209 $85 #
plane-surface $-1 0 -25.006693659041957 0 0 1 0 0 0 1 forward_v I I I I #
coedge $-1 $210 $211 $212 $213 reversed $86 $-1 #
coedge $-1 $214 $88 $90 $149 forward $54 $-1 #
coedge $-1 $88 $214 $210 $215 forward $54 $-1 #
coedge $-1 $212 $91 $88 $146 forward $151 $-1 #
edge $-1 $153 -30.295458832477248 $216 -11.95429054390382 $145 $217 forward 7 unknown #
coedge $-1 $218 $219 $89 $148 forward $140 $-1 #
edge $-1 $220 -50.313223572795103 $152 -46.317785290359595 $147 $221 forward 7 unknown #
edge $-1 $153 -7.7575589532569502 $220 1.6526814159067847e-014 $90 $222 forward 7 unknown #
coedge $-1 $91 $212 $218 $223 forward $151 $-1 #
loop $-1 $-1 $212 $139 #
vertex $-1 $148 $224 #
vertex $-1 $92 $225 #
straight-curve $-1 51.420333520667782 -43.240590692121103 5.6797178935724375 0 1 0 I I #
coedge $-1 $155 $155 $-1 $226 reversed $95 $-1 #
edge $-1 $227 0 $227 6.2831853071796004 $96 $228 forward 7 unknown #
vertex $-1 $99 $229 #
ellipse-curve $-1 42.249749376381068 -21.681930741009086 3.6819987523546716 0 -0.51503808176128008 0.85716729658548041 1 0 0 1 I I #
face $-1 $-1 $115 $15 $-1 $230 reversed single #
loop $-1 $-1 $175 $100 #
plane-surface $-1 0 25.006693659041957 0 0 -1 0 0 0 -1 forward_v I I I I #
coedge $-1 $231 $173 $176 $232 forward $101 $-1 #
coedge $-1 $179 $103 $104 $167 reversed $63 $-1 #
coedge $-1 $173 $231 $103 $165 reversed $101 $-1 #
edge $-1 $180 -5.679717893572434 $233 5.679717893572434 $164 $234 forward 7 unknown #
coedge $-1 $105 $104 $231 $235 forward $41 $-1 #
edge $-1 $171 -59.679555650502031 $233 59.679555650502031 $163 $236 forward 7 unknown #
coedge $-1 $176 $175 $105 $169 reversed $160 $-1 #
edge $-1 $237 -59.679555650502031 $170 59.679555650502031 $168 $238 forward 7 unknown #
vertex $-1 $107 $239 #
vertex $-1 $182 $240 #
straight-curve $-1 59.679555650502031 0 -5.679717893572434 0 -1 0 I I #
coedge $-1 $162 $164 $108 $174 reversed $101 $-1 #
edge $-1 $177 -25.006693659041957 $180 25.006693659041957 $173 $241 forward 7 unknown #
coedge $-1 $168 $109 $114 $183 forward $160 $-1 #
coedge $-1 $109 $168 $162 $232 reversed $160 $-1 #
vertex $-1 $110 $242 #
straight-curve $-1 0 25.006693659041957 5.679717893572434 -1 0 0 I I #
coedge $-1 $111 $163 $113 $182 reversed $63 $-1 #
vertex $-1 $174 $243 #
straight-curve $-1 0 -25.006693659041957 5.679717893572434 1 0 0 I I #
edge $-1 $116 -5.679717893572434 $171 5.679717893572434 $113 $244 forward 7 unknown #
edge $-1 $117 -5.679717893572434 $170 5.679717893572434 $114 $245 forward 7 unknown #
point $-1 59.679555650502031 -25.006693659041957 5.679717893572434 #
point $-1 59.679555650502031 25.006693659041957 5.679717893572434 #
plane-surface $-1 0 0 5.679717893572434 0 0 1 1 0 0 forward_v I I I I #
coedge $-1 $197 $196 $189 $246 forward $120 $-1 #
coedge $-1 $189 $122 $124 $193 reversed $71 $-1 #
coedge $-1 $122 $188 $187 $246 reversed $71 $-1 #
coedge $-1 $130 $125 $122 $191 forward $131 $-1 #
edge $-1 $194 -3.4485028688826844 $247 3.2010229671831212 $190 $248 forward 7 unknown #
coedge $-1 $124 $123 $197 $249 reversed $45 $-1 #
edge $-1 $250 -50.013387318083922 $194 -42.255828364826911 $188 $251 forward 7 unknown #
vertex $-1 $126 $252 #
straight-curve $-1 21.124874688190534 18.357167822976155 5.679717893572434 1 0 0 I I #
coedge $-1 $187 $127 $130 $201 reversed $120 $-1 #
coedge $-1 $127 $187 $192 $249 forward $120 $-1 #
vertex $-1 $128 $253 #
straight-curve $-1 33.079165232094354 25.006693659041957 64.876902717276948 0 0 1 I I #
straight-curve $-1 33.079165232094354 -17.86314634148259 27.443078677826776 0 0.85716729658548041 -0.51503808176128008 I I #
edge $-1 $247 -51.420333520667782 $132 -33.079165232094354 $196 $254 forward 7 unknown #
point $-1 33.079165232094354 25.006693659041957 5.679717893572434 #
point $-1 33.079165232094354 18.357167822976152 5.679717893572434 #
edge $-1 $255 1 $255 0 $135 $-1 forward 7 unknown #
vertex $-1 $136 $256 #
ellipse-curve $-1 42.249749376381068 21.1396373098483 2.7794709378005429 0 0.51503808176128008 0.85716729658548041 1 0 0 1 I I #
point $-1 43.249749376381068 21.681930741009097 3.681998752354688 #
plane-surface $-1 0 0 5.679717893572434 0 0 1 1 0 0 forward_v I I I I #
coedge $-1 $219 $218 $211 $257 forward $140 $-1 #
coedge $-1 $211 $142 $144 $215 reversed $86 $-1 #
coedge $-1 $142 $210 $209 $257 reversed $86 $-1 #
coedge $-1 $150 $145 $142 $213 forward $151 $-1 #
edge $-1 $216 -24.883422869144908 $258 -18.233897033079145 $212 $259 forward 7 unknown #
coedge $-1 $144 $143 $219 $260 reversed $54 $-1 #
edge $-1 $261 -1.6526814159067847e-014 $216 7.7575589532569502 $210 $262 forward 7 unknown #
vertex $-1 $146 $263 #
straight-curve $-1 21.124874688190534 -18.357167822976194 5.679717893572434 -1 0 0 I I #
coedge $-1 $209 $147 $150 $223 reversed $140 $-1 #
coedge $-1 $147 $209 $214 $260 forward $140 $-1 #
vertex $-1 $148 $264 #
straight-curve $-1 51.420333520667782 -25.006693659041957 51.997503183932025 0 0 1 I I #
straight-curve $-1 51.420333520667782 -25.006693659041943 1.6842796111369296 0 -0.85716729658548041 -0.51503808176128008 I I #
edge $-1 $258 33.079165232094354 $152 51.420333520667782 $218 $265 forward 7 unknown #
point $-1 51.420333520667782 -25.006693659041957 5.679717893572434 #
point $-1 51.420333520667782 -18.357167822976194 5.679717893572434 #
edge $-1 $266 1 $266 0 $155 $-1 forward 7 unknown #
vertex $-1 $156 $267 #
ellipse-curve $-1 42.249749376381068 -21.139637309848297 2.7794709378005464 0 -0.51503808176128008 0.85716729658548041 1 0 0 1 I I #
point $-1 43.249749376381068 -21.681930741009097 3.6819987523546915 #
plane-surface $-1 59.679555650502031 0 0 -1 0 0 0 0 1 forward_v I I I I #
coedge $-1 $164 $162 $166 $235 reversed $101 $-1 #
edge $-1 $177 -5.679717893572434 $237 5.679717893572434 $176 $268 forward 7 unknown #
vertex $-1 $235 $269 #
straight-curve $-1 -59.679555650502031 -25.006693659041957 0 0 0 -1 I I #
edge $-1 $233 -25.006693659041957 $237 25.006693659041957 $231 $270 forward 7 unknown #
straight-curve $-1 0 -25.006693659041957 -5.679717893572434 -1 0 0 I I #
vertex $-1 $169 $271 #
straight-curve $-1 0 25.006693659041957 -5.679717893572434 1 0 0 I I #
point $-1 59.679555650502031 25.006693659041957 -5.679717893572434 #
point $-1 59.679555650502031 -25.006693659041957 -5.679717893572434 #
straight-curve $-1 -59.679555650502031 0 5.679717893572434 0 -1 0 I I #
point $-1 -59.679555650502031 25.006693659041957 5.679717893572434 #
point $-1 -59.679555650502031 -25.006693659041957 5.679717893572434 #
straight-curve $-1 59.679555650502031 -25.006693659041957 0 0 0 -1 I I #
straight-curve $-1 59.679555650502031 25.006693659041957 0 0 0 -1 I I #
edge $-1 $247 59.197184823704518 $250 63.192623106140047 $187 $272 forward 7 unknown #
vertex $-1 $201 $273 #
straight-curve $-1 51.420333520667782 21.805670691858836 5.6797178935724304 0 1 0 I I #
edge $-1 $250 -30.295458832477248 $198 -11.95429054390382 $197 $274 forward 7 unknown #
vertex $-1 $249 $275 #
straight-curve $-1 51.420333520667782 -17.86314634148259 27.443078677826776 0 -0.85716729658548041 0.51503808176128008 I I #
point $-1 51.420333520667782 18.357167822976152 5.679717893572434 #
point $-1 33.079165232094354 25.006693659041957 1.6842796111369012 #
straight-curve $-1 0 25.006693659041957 5.679717893572434 -1 0 0 I I #
vertex $-1 $204 $276 #
point $-1 43.249749376381068 21.1396373098483 2.7794709378005429 #
edge $-1 $258 46.317785290359595 $261 50.313223572795103 $209 $277 forward 7 unknown #
vertex $-1 $223 $278 #
straight-curve $-1 33.079165232094354 -43.240590692121103 5.6797178935724375 0 -1 0 I I #
edge $-1 $261 11.95429054390382 $220 30.295458832477248 $219 $279 forward 7 unknown #
vertex $-1 $260 $280 #
straight-curve $-1 33.079165232094354 -25.006693659041943 1.6842796111369296 0 0.85716729658548041 0.51503808176128008 I I #
point $-1 33.079165232094354 -18.357167822976194 5.679717893572434 #
point $-1 51.420333520667782 -25.006693659041957 1.6842796111369212 #
straight-curve $-1 0 -25.006693659041957 5.679717893572434 1 0 0 I I #
vertex $-1 $226 $281 #
point $-1 43.249749376381068 -21.139637309848297 2.7794709378005464 #
straight-curve $-1 -59.679555650502031 25.006693659041957 0 0 0 -1 I I #
point $-1 -59.679555650502031 -25.006693659041957 -5.679717893572434 #
straight-curve $-1 -59.679555650502031 0 -5.679717893572434 0 1 0 I I #
point $-1 -59.679555650502031 25.006693659041957 -5.679717893572434 #
straight-curve $-1 51.420333520667782 25.006693659041957 64.876902717276948 0 0 -1 I I #
point $-1 51.420333520667782 25.006693659041957 5.679717893572434 #
straight-curve $-1 21.124874688190534 25.006693659041957 1.6842796111369012 -1 0 0 I I #
point $-1 51.420333520667782 25.006693659041957 1.6842796111369012 #
point $-1 42.249749376381068 20.624599228087018 1.9223036412150627 #
straight-curve $-1 33.079165232094354 -25.006693659041957 51.997503183932025 0 0 -1 I I #
point $-1 33.079165232094354 -25.006693659041957 5.679717893572434 #
straight-curve $-1 21.124874688190534 -25.006693659041957 1.6842796111369207 1 0 0 I I #
point $-1 33.079165232094354 -25.006693659041957 1.6842796111369212 #
point $-1 42.249749376381068 -20.624599228087014 1.9223036412150662 #
End-of-ACIS-data 