500 0 11 0           
7 Unknown 11 ACIS 5.0 NT 24 Thu Mar 25 20:34:43 1999 
-1 9.9999999999999995e-007 1e-010 
body $-1 $11 $-1 $12 #
body $-1 $13 $-1 $14 #
body $-1 $15 $-1 $16 #
body $-1 $17 $-1 $18 #
body $-1 $19 $-1 $20 #
body $-1 $21 $-1 $22 #
body $-1 $23 $-1 $24 #
body $-1 $25 $-1 $26 #
body $-1 $27 $-1 $28 #
body $-1 $29 $-1 $30 #
body $-1 $31 $-1 $32 #
lump $-1 $-1 $33 $0 #
transform $-1 1 0 0 0 1 0 0 0 1 67.558214056825463 35.072871465824093 12.645586049120732 1 rotate no_reflect no_shear #
lump $-1 $-1 $34 $1 #
transform $-1 1 0 0 0 1 0 0 0 1 67.558214056825463 35.072871465824093 12.645586049120732 1 rotate no_reflect no_shear #
lump $-1 $-1 $35 $2 #
transform $-1 1 0 0 0 1 0 0 0 1 67.558214056825463 35.072871465824093 12.645586049120732 1 rotate no_reflect no_shear #
lump $-1 $-1 $36 $3 #
transform $-1 1 0 0 0 1 0 0 0 1 67.558214056825463 35.072871465824093 12.645586049120732 1 rotate no_reflect no_shear #
lump $-1 $-1 $37 $4 #
transform $-1 1 0 0 0 1 0 0 0 1 67.558214056825463 35.072871465824093 12.645586049120732 1 rotate no_reflect no_shear #
lump $-1 $-1 $38 $5 #
transform $-1 1 0 0 0 1 0 0 0 1 67.558214056825463 35.072871465824093 12.645586049120732 1 rotate no_reflect no_shear #
lump $-1 $-1 $39 $6 #
transform $-1 1 0 0 0 1 0 0 0 1 67.558214056825463 35.072871465824093 12.645586049120732 1 rotate no_reflect no_shear #
lump $-1 $-1 $40 $7 #
transform $-1 1 0 0 0 1 0 0 0 1 67.558214056825463 35.072871465824093 12.645586049120732 1 rotate no_reflect no_shear #
lump $-1 $-1 $41 $8 #
transform $-1 1 0 0 0 1 0 0 0 1 67.558214056825463 35.072871465824093 12.645586049120732 1 rotate no_reflect no_shear #
lump $-1 $-1 $42 $9 #
transform $-1 1 0 0 0 1 0 0 0 1 67.558214056825463 35.072871465824093 12.645586049120732 1 rotate no_reflect no_shear #
lump $-1 $-1 $43 $10 #
transform $-1 1 0 0 0 1 0 0 0 1 67.558214056825463 35.072871465824093 12.645586049120732 1 rotate no_reflect no_shear #
shell $-1 $-1 $-1 $44 $-1 $11 #
shell $-1 $-1 $-1 $45 $-1 $13 #
shell $-1 $-1 $-1 $46 $-1 $15 #
shell $-1 $-1 $-1 $47 $-1 $17 #
shell $-1 $-1 $-1 $48 $-1 $19 #
shell $-1 $-1 $-1 $49 $-1 $21 #
shell $-1 $-1 $-1 $50 $-1 $23 #
shell $-1 $-1 $-1 $51 $-1 $25 #
shell $-1 $-1 $-1 $52 $-1 $27 #
shell $-1 $-1 $-1 $53 $-1 $29 #
shell $-1 $-1 $-1 $54 $-1 $31 #
face $-1 $55 $56 $33 $-1 $57 forward single #
face $-1 $58 $59 $34 $-1 $60 forward single #
face $-1 $61 $62 $35 $-1 $63 forward single #
face $-1 $64 $65 $36 $-1 $66 reversed single #
face $-1 $67 $68 $37 $-1 $69 forward single #
face $-1 $70 $71 $38 $-1 $72 forward single #
face $-1 $73 $74 $39 $-1 $75 forward single #
face $-1 $76 $77 $40 $-1 $78 reversed single #
face $-1 $79 $80 $41 $-1 $81 forward single #
face $-1 $82 $83 $42 $-1 $84 forward single #
face $-1 $85 $86 $43 $-1 $87 forward single #
face $-1 $88 $89 $33 $-1 $90 reversed single #
loop $-1 $-1 $91 $44 #
plane-surface $-1 0 0 12.645586049120732 0 0 1 1 0 0 forward_v I I I I #
face $-1 $92 $93 $34 $-1 $94 reversed single #
loop $-1 $-1 $95 $45 #
plane-surface $-1 0 -30.196955469019684 -9.2200435554775719 0 0 1 1 0 0 forward_v I I I I #
face $-1 $96 $97 $35 $-1 $98 reversed single #
loop $-1 $-1 $99 $46 #
plane-surface $-1 0 30.196955469019684 -9.2200435554775719 0 0 1 1 0 0 forward_v I I I I #
face $-1 $100 $101 $36 $-1 $102 reversed single #
loop $-1 $-1 $103 $47 #
plane-surface $-1 -178.239113462163 -16.126471587390022 85.047805331129894 0 -1 0 0.81915205242281985 0 -0.57357642473473569 forward_v I I I I #
face $-1 $104 $105 $37 $-1 $106 forward single #
loop $-1 $107 $108 $48 #
cone-surface $-1 -65.140370432119269 -23.482125895250228 9.6535028209178613 0.81915205242281985 0 -0.57357642473473569 0.28678821236736785 0 0.40957602621140993 1 I I 0 1 0.5 forward I I I I #
face $-1 $109 $110 $38 $-1 $111 forward single #
loop $-1 $112 $113 $49 #
cone-surface $-1 -65.140370432119269 -20.723755529802652 9.6535028209178613 0.81915205242281985 0 -0.57357642473473569 0.28678821236736785 0 0.40957602621140993 1 I I 0 1 0.5 forward I I I I #
face $-1 $114 $115 $39 $-1 $116 forward single #
loop $-1 $117 $118 $50 #
cone-surface $-1 -65.140370432119269 -17.965385164355077 9.6535028209178613 0.81915205242281985 0 -0.57357642473473569 0.28678821236736785 0 0.40957602621140993 1 I I 0 1 0.5 forward I I I I #
face $-1 $119 $120 $40 $-1 $121 reversed single #
loop $-1 $-1 $122 $51 #
plane-surface $-1 100.73951570180721 -16.126471587390022 195.72870473646745 0 -1 0 -0.81915205242281985 0 -0.57357642473473569 forward_v I I I I #
face $-1 $123 $124 $41 $-1 $125 forward single #
loop $-1 $126 $127 $52 #
cone-surface $-1 65.140370432119255 -23.482125895250228 9.6535028209178542 -0.81915205242281985 0 -0.57357642473473569 0.28678821236736785 0 -0.40957602621140993 1 I I 0 1 0.5 forward I I I I #
face $-1 $128 $129 $42 $-1 $130 forward single #
loop $-1 $131 $132 $53 #
cone-surface $-1 65.140370432119255 -20.723755529802652 9.6535028209178542 -0.81915205242281985 0 -0.57357642473473569 0.28678821236736785 0 -0.40957602621140993 1 I I 0 1 0.5 forward I I I I #
face $-1 $133 $134 $43 $-1 $135 forward single #
loop $-1 $136 $137 $54 #
cone-surface $-1 65.140370432119255 -17.965385164355077 9.6535028209178542 -0.81915205242281985 0 -0.57357642473473569 0.28678821236736785 0 -0.40957602621140993 1 I I 0 1 0.5 forward I I I I #
face $-1 $138 $139 $33 $-1 $140 reversed single #
loop $-1 $-1 $141 $55 #
plane-surface $-1 0 0 -12.645586049120732 0 0 1 1 0 0 forward_v I I I I #
coedge $-1 $142 $143 $144 $145 forward $56 $-1 #
face $-1 $146 $147 $34 $-1 $148 reversed single #
loop $-1 $-1 $149 $58 #
plane-surface $-1 0 -25.321039472215276 -10.932814802299152 0 -1 0 0 0 -1 forward_v I I I I #
coedge $-1 $150 $151 $152 $153 reversed $59 $-1 #
face $-1 $154 $155 $35 $-1 $156 reversed single #
loop $-1 $-1 $157 $61 #
plane-surface $-1 0 25.321039472215276 -10.932814802299152 0 1 0 0 0 1 forward_v I I I I #
coedge $-1 $158 $159 $160 $161 reversed $62 $-1 #
face $-1 $162 $163 $36 $-1 $164 reversed single #
loop $-1 $-1 $165 $64 #
plane-surface $-1 -67.558214056825449 -20.723755529802652 7.5482075707740677 -0.81915205242281985 0 0.57357642473473569 0.57357642473473569 0 0.81915205242281985 forward_v I I I I #
coedge $-1 $166 $167 $168 $169 reversed $65 $-1 #
face $-1 $-1 $170 $37 $-1 $171 forward single #
loop $-1 $172 $173 $67 #
cone-surface $-1 -64.302350158267387 -23.482125895250228 9.0667147257046405 0.81915205242281985 0 -0.57357642473473569 0.14339410618368392 0 0.20478801310570496 1 I I -0.70710678118654746 0.70710678118654746 0.25 forward I I I I #
loop $-1 $-1 $174 $48 #
coedge $-1 $108 $108 $175 $176 reversed $68 $-1 #
face $-1 $-1 $177 $38 $-1 $178 forward single #
loop $-1 $179 $180 $70 #
cone-surface $-1 -64.302350158267387 -20.723755529802652 9.0667147257046405 0.81915205242281985 0 -0.57357642473473569 0.14339410618368392 0 0.20478801310570496 1 I I -0.70710678118654746 0.70710678118654746 0.25 forward I I I I #
loop $-1 $-1 $181 $49 #
coedge $-1 $113 $113 $182 $183 reversed $71 $-1 #
face $-1 $-1 $184 $39 $-1 $185 forward single #
loop $-1 $186 $187 $73 #
cone-surface $-1 -64.302350158267387 -17.965385164355077 9.0667147257046405 0.81915205242281985 0 -0.57357642473473569 0.14339410618368392 0 0.20478801310570496 1 I I -0.70710678118654746 0.70710678118654746 0.25 forward I I I I #
loop $-1 $-1 $188 $50 #
coedge $-1 $118 $118 $189 $190 reversed $74 $-1 #
face $-1 $191 $192 $40 $-1 $193 reversed single #
loop $-1 $-1 $194 $76 #
plane-surface $-1 -9.9413837035303487 -20.723755529802652 118.22910697611162 0.81915205242281985 0 0.57357642473473569 0.57357642473473569 0 -0.81915205242281985 forward_v I I I I #
coedge $-1 $195 $196 $197 $198 reversed $77 $-1 #
face $-1 $-1 $199 $41 $-1 $200 forward single #
loop $-1 $201 $202 $79 #
cone-surface $-1 64.302350158267373 -23.482125895250228 9.0667147257046334 -0.81915205242281985 0 -0.57357642473473569 0.14339410618368392 0 -0.20478801310570496 1 I I -0.70710678118654746 0.70710678118654746 0.25 forward I I I I #
loop $-1 $-1 $203 $52 #
coedge $-1 $127 $127 $204 $205 reversed $80 $-1 #
face $-1 $-1 $206 $42 $-1 $207 forward single #
loop $-1 $208 $209 $82 #
cone-surface $-1 64.302350158267373 -20.723755529802652 9.0667147257046334 -0.81915205242281985 0 -0.57357642473473569 0.14339410618368392 0 -0.20478801310570496 1 I I -0.70710678118654746 0.70710678118654746 0.25 forward I I I I #
loop $-1 $-1 $210 $53 #
coedge $-1 $132 $132 $211 $212 reversed $83 $-1 #
face $-1 $-1 $213 $43 $-1 $214 forward single #
loop $-1 $215 $216 $85 #
cone-surface $-1 64.302350158267373 -17.965385164355077 9.0667147257046334 -0.81915205242281985 0 -0.57357642473473569 0.14339410618368392 0 -0.20478801310570496 1 I I -0.70710678118654746 0.70710678118654746 0.25 forward I I I I #
loop $-1 $-1 $217 $54 #
coedge $-1 $137 $137 $218 $219 reversed $86 $-1 #
face $-1 $220 $221 $33 $-1 $222 reversed single #
loop $-1 $-1 $223 $88 #
plane-surface $-1 0 -35.072871465824093 0 0 1 0 0 0 1 forward_v I I I I #
coedge $-1 $224 $225 $226 $227 forward $89 $-1 #
coedge $-1 $228 $91 $229 $230 forward $56 $-1 #
coedge $-1 $91 $228 $231 $232 forward $56 $-1 #
coedge $-1 $233 $234 $91 $145 reversed $235 $-1 #
edge $-1 $236 -35.072871465824093 $237 35.072871465824093 $144 $238 forward 7 unknown #
face $-1 $239 $240 $34 $-1 $241 reversed single #
loop $-1 $-1 $242 $92 #
plane-surface $-1 0 0 -12.645586049120732 0 0 1 1 0 0 forward_v I I I I #
coedge $-1 $243 $244 $245 $246 reversed $93 $-1 #
coedge $-1 $247 $95 $244 $248 forward $59 $-1 #
coedge $-1 $95 $247 $249 $250 reversed $59 $-1 #
coedge $-1 $251 $245 $95 $153 forward $240 $-1 #
edge $-1 $252 10.222561737705433 $253 19.974393731314251 $152 $254 forward 7 unknown #
face $-1 $255 $256 $35 $-1 $257 reversed single #
loop $-1 $-1 $160 $96 #
plane-surface $-1 67.558214056825463 0 0 -1 0 0 0 0 1 forward_v I I I I #
coedge $-1 $258 $259 $260 $261 reversed $97 $-1 #
coedge $-1 $262 $99 $263 $264 reversed $62 $-1 #
coedge $-1 $99 $262 $259 $265 forward $62 $-1 #
coedge $-1 $266 $267 $99 $161 forward $155 $-1 #
edge $-1 $268 -19.974393731314251 $269 -10.222561737705433 $160 $270 forward 7 unknown #
face $-1 $271 $272 $36 $-1 $273 reversed single #
loop $-1 $-1 $274 $100 #
plane-surface $-1 -178.239113462163 -25.321039472215283 85.047805331129894 0 1 0 -0.81915205242281985 0 0.57357642473473569 forward_v I I I I #
coedge $-1 $275 $276 $277 $278 reversed $101 $-1 #
coedge $-1 $167 $103 $279 $280 reversed $65 $-1 #
coedge $-1 $103 $166 $275 $281 reversed $65 $-1 #
coedge $-1 $277 $282 $103 $169 forward $272 $-1 #
edge $-1 $283 29.878316616444216 $284 34.9756950947909 $168 $285 forward 7 unknown #
loop $-1 $-1 $175 $104 #
plane-surface $-1 -67.558214056825449 -20.723755529802652 7.5482075707740677 -0.81915205242281985 0 0.57357642473473569 0.57357642473473569 0 0.81915205242281985 forward_v I I I I #
loop $-1 $-1 $286 $67 #
coedge $-1 $173 $173 $174 $287 reversed $105 $-1 #
coedge $-1 $174 $174 $173 $287 forward $107 $-1 #
coedge $-1 $175 $175 $108 $176 forward $170 $-1 #
edge $-1 $288 0 $288 6.2831853071796004 $175 $289 forward 7 unknown #
loop $-1 $-1 $182 $109 #
plane-surface $-1 -67.558214056825449 -20.723755529802652 7.5482075707740677 -0.81915205242281985 0 0.57357642473473569 0.57357642473473569 0 0.81915205242281985 forward_v I I I I #
loop $-1 $-1 $290 $70 #
coedge $-1 $180 $180 $181 $291 reversed $110 $-1 #
coedge $-1 $181 $181 $180 $291 forward $112 $-1 #
coedge $-1 $182 $182 $113 $183 forward $177 $-1 #
edge $-1 $292 0 $292 6.2831853071796004 $182 $293 forward 7 unknown #
loop $-1 $-1 $189 $114 #
plane-surface $-1 -67.558214056825449 -20.723755529802652 7.5482075707740677 -0.81915205242281985 0 0.57357642473473569 0.57357642473473569 0 0.81915205242281985 forward_v I I I I #
loop $-1 $-1 $294 $73 #
coedge $-1 $187 $187 $188 $295 reversed $115 $-1 #
coedge $-1 $188 $188 $187 $295 forward $117 $-1 #
coedge $-1 $189 $189 $118 $190 forward $184 $-1 #
edge $-1 $296 0 $296 6.2831853071796004 $189 $297 forward 7 unknown #
face $-1 $298 $299 $40 $-1 $300 forward single #
loop $-1 $-1 $301 $119 #
plane-surface $-1 100.73951570180721 -25.321039472215283 195.72870473646745 0 1 0 0.81915205242281985 0 0.57357642473473569 forward_v I I I I #
coedge $-1 $302 $303 $304 $305 reversed $120 $-1 #
coedge $-1 $196 $122 $306 $307 reversed $77 $-1 #
coedge $-1 $122 $195 $302 $308 reversed $77 $-1 #
coedge $-1 $304 $309 $122 $198 forward $299 $-1 #
edge $-1 $310 -17.18845620592186 $311 -13.619233478001838 $197 $312 forward 7 unknown #
loop $-1 $-1 $204 $123 #
plane-surface $-1 -9.9413837035303487 -20.723755529802652 118.22910697611162 0.81915205242281985 0 0.57357642473473569 0.57357642473473569 0 -0.81915205242281985 forward_v I I I I #
loop $-1 $-1 $313 $79 #
coedge $-1 $202 $202 $203 $314 reversed $124 $-1 #
coedge $-1 $203 $203 $202 $314 forward $126 $-1 #
coedge $-1 $204 $204 $127 $205 forward $199 $-1 #
edge $-1 $315 0 $315 6.2831853071796004 $204 $316 forward 7 unknown #
loop $-1 $-1 $211 $128 #
plane-surface $-1 -9.9413837035303487 -20.723755529802652 118.22910697611162 0.81915205242281985 0 0.57357642473473569 0.57357642473473569 0 -0.81915205242281985 forward_v I I I I #
loop $-1 $-1 $317 $82 #
coedge $-1 $209 $209 $210 $318 reversed $129 $-1 #
coedge $-1 $210 $210 $209 $318 forward $131 $-1 #
coedge $-1 $211 $211 $132 $212 forward $206 $-1 #
edge $-1 $319 0 $319 6.2831853071796004 $211 $320 forward 7 unknown #
loop $-1 $-1 $218 $133 #
plane-surface $-1 -9.9413837035303487 -20.723755529802652 118.22910697611162 0.81915205242281985 0 0.57357642473473569 0.57357642473473569 0 -0.81915205242281985 forward_v I I I I #
loop $-1 $-1 $321 $85 #
coedge $-1 $216 $216 $217 $322 reversed $134 $-1 #
coedge $-1 $217 $217 $216 $322 forward $136 $-1 #
coedge $-1 $218 $218 $137 $219 forward $213 $-1 #
edge $-1 $323 0 $323 6.2831853071796004 $218 $324 forward 7 unknown #
face $-1 $325 $326 $33 $-1 $327 reversed single #
loop $-1 $-1 $328 $138 #
plane-surface $-1 -67.558214056825463 0 0 1 0 0 0 0 -1 forward_v I I I I #
coedge $-1 $329 $231 $330 $331 forward $139 $-1 #
coedge $-1 $332 $141 $329 $333 forward $89 $-1 #
coedge $-1 $141 $332 $334 $335 forward $89 $-1 #
coedge $-1 $234 $233 $141 $227 reversed $235 $-1 #
edge $-1 $336 -35.072871465824093 $337 35.072871465824093 $226 $338 forward 7 unknown #
coedge $-1 $143 $142 $339 $340 forward $56 $-1 #
coedge $-1 $341 $342 $142 $230 reversed $326 $-1 #
edge $-1 $237 -67.558214056825463 $343 67.558214056825463 $229 $344 forward 7 unknown #
coedge $-1 $223 $345 $143 $232 reversed $139 $-1 #
edge $-1 $346 -67.558214056825463 $236 67.558214056825463 $231 $347 forward 7 unknown #
coedge $-1 $226 $144 $345 $348 forward $235 $-1 #
coedge $-1 $144 $226 $341 $349 reversed $235 $-1 #
loop $-1 $-1 $233 $325 #
vertex $-1 $145 $350 #
vertex $-1 $145 $351 #
straight-curve $-1 67.558214056825463 0 12.645586049120732 0 1 0 I I #
face $-1 $352 $353 $34 $-1 $354 reversed single #
loop $-1 $-1 $245 $146 #
plane-surface $-1 67.558214056825463 0 0 -1 0 0 0 0 1 forward_v I I I I #
coedge $-1 $355 $356 $243 $357 forward $147 $-1 #
coedge $-1 $358 $149 $242 $357 reversed $93 $-1 #
coedge $-1 $149 $358 $150 $248 reversed $93 $-1 #
coedge $-1 $152 $359 $149 $246 forward $240 $-1 #
edge $-1 $360 -7.1791786479711561 $252 -3.7536361543279959 $245 $361 forward 7 unknown #
coedge $-1 $151 $150 $362 $363 reversed $59 $-1 #
edge $-1 $252 -67.558214056825463 $364 67.558214056825463 $244 $365 forward 7 unknown #
coedge $-1 $366 $367 $151 $250 forward $353 $-1 #
edge $-1 $253 -67.558214056825463 $368 67.558214056825463 $249 $369 forward 7 unknown #
coedge $-1 $359 $152 $367 $370 forward $240 $-1 #
vertex $-1 $153 $371 #
vertex $-1 $370 $372 #
straight-curve $-1 67.558214056825463 -15.098477734509842 -9.2200435554775719 0 -1 0 I I #
face $-1 $373 $374 $35 $-1 $375 reversed single #
loop $-1 $-1 $376 $154 #
plane-surface $-1 0 0 -12.645586049120732 0 0 1 1 0 0 forward_v I I I I #
coedge $-1 $377 $157 $376 $378 reversed $97 $-1 #
coedge $-1 $157 $377 $159 $265 reversed $97 $-1 #
coedge $-1 $379 $380 $157 $261 forward $374 $-1 #
edge $-1 $381 -7.1791786479711561 $382 -3.7536361543279959 $260 $383 forward 7 unknown #
coedge $-1 $159 $158 $379 $384 reversed $62 $-1 #
coedge $-1 $385 $386 $158 $264 forward $387 $-1 #
edge $-1 $388 -67.558214056825463 $268 67.558214056825463 $263 $389 forward 7 unknown #
edge $-1 $382 -67.558214056825463 $269 67.558214056825463 $259 $390 forward 7 unknown #
coedge $-1 $391 $160 $377 $392 forward $155 $-1 #
coedge $-1 $160 $391 $385 $393 reversed $155 $-1 #
vertex $-1 $393 $394 #
vertex $-1 $161 $395 #
straight-curve $-1 67.558214056825463 15.098477734509842 -9.2200435554775719 0 -1 0 I I #
face $-1 $-1 $396 $36 $-1 $397 forward single #
loop $-1 $-1 $168 $162 #
plane-surface $-1 -67.558214056825463 0 0 1 0 0 0 0 -1 forward_v I I I I #
coedge $-1 $398 $399 $400 $401 reversed $163 $-1 #
coedge $-1 $402 $165 $167 $281 forward $101 $-1 #
coedge $-1 $165 $402 $398 $403 forward $101 $-1 #
coedge $-1 $400 $168 $165 $278 forward $272 $-1 #
edge $-1 $284 5.7645938224886955 $404 14.959161707313957 $277 $405 forward 7 unknown #
coedge $-1 $406 $407 $166 $280 forward $396 $-1 #
edge $-1 $408 -25.130565402176082 $283 -21.561342674256039 $279 $409 forward 7 unknown #
edge $-1 $284 -2.4884734274515653e-014 $408 6.2227500538759113 $167 $410 forward 7 unknown #
coedge $-1 $168 $400 $406 $411 reversed $272 $-1 #
vertex $-1 $411 $412 #
vertex $-1 $169 $413 #
straight-curve $-1 -67.558214056825463 -16.126471587390022 42.523902665564947 0 0 -1 I I #
coedge $-1 $286 $286 $-1 $414 reversed $172 $-1 #
edge $-1 $415 0 $415 6.2831853071796004 $173 $416 forward 7 unknown #
vertex $-1 $176 $417 #
ellipse-curve $-1 -65.773602692865438 -23.482125895250228 10.096896809947394 -0.81915205242281985 0 0.57357642473473569 0.28678821236736785 0 0.40957602621140993 1 I I #
coedge $-1 $290 $290 $-1 $418 reversed $179 $-1 #
edge $-1 $419 0 $419 6.2831853071796004 $180 $420 forward 7 unknown #
vertex $-1 $183 $421 #
ellipse-curve $-1 -65.773602692865438 -20.723755529802652 10.096896809947394 -0.81915205242281985 0 0.57357642473473569 0.28678821236736785 0 0.40957602621140993 1 I I #
coedge $-1 $294 $294 $-1 $422 reversed $186 $-1 #
edge $-1 $423 0 $423 6.2831853071796004 $187 $424 forward 7 unknown #
vertex $-1 $190 $425 #
ellipse-curve $-1 -65.773602692865438 -17.965385164355077 10.096896809947394 -0.81915205242281985 0 0.57357642473473569 0.28678821236736785 0 0.40957602621140993 1 I I #
face $-1 $-1 $426 $40 $-1 $427 reversed single #
loop $-1 $-1 $197 $191 #
plane-surface $-1 0 0 12.645586049120732 0 0 1 1 0 0 forward_v I I I I #
coedge $-1 $428 $429 $430 $431 reversed $192 $-1 #
coedge $-1 $432 $194 $196 $308 forward $120 $-1 #
coedge $-1 $194 $432 $428 $433 forward $120 $-1 #
coedge $-1 $430 $197 $194 $305 forward $299 $-1 #
edge $-1 $311 5.7645938224886955 $434 14.959161707313957 $304 $435 forward 7 unknown #
coedge $-1 $436 $437 $195 $307 forward $426 $-1 #
edge $-1 $438 -90.316144797459629 $310 -85.218766319112987 $306 $439 forward 7 unknown #
edge $-1 $311 128.89367805977503 $438 135.1164281136509 $196 $440 forward 7 unknown #
coedge $-1 $197 $430 $436 $441 forward $299 $-1 #
vertex $-1 $198 $442 #
vertex $-1 $198 $443 #
straight-curve $-1 50.369757850903603 -16.126471587390022 12.645586049120737 -1 0 0 I I #
coedge $-1 $313 $313 $-1 $444 reversed $201 $-1 #
edge $-1 $445 0 $445 6.2831853071796004 $202 $446 forward 7 unknown #
vertex $-1 $205 $447 #
ellipse-curve $-1 65.773602692865467 -23.482125895250228 10.096896809947411 0.81915205242281985 0 0.57357642473473569 0.28678821236736785 0 -0.40957602621140993 1 I I #
coedge $-1 $317 $317 $-1 $448 reversed $208 $-1 #
edge $-1 $449 0 $449 6.2831853071796004 $209 $450 forward 7 unknown #
vertex $-1 $212 $451 #
ellipse-curve $-1 65.773602692865467 -20.723755529802652 10.096896809947411 0.81915205242281985 0 0.57357642473473569 0.28678821236736785 0 -0.40957602621140993 1 I I #
coedge $-1 $321 $321 $-1 $452 reversed $215 $-1 #
edge $-1 $453 0 $453 6.2831853071796004 $216 $454 forward 7 unknown #
vertex $-1 $219 $455 #
ellipse-curve $-1 65.773602692865467 -17.965385164355077 10.096896809947411 0.81915205242281985 0 0.57357642473473569 0.28678821236736785 0 -0.40957602621140993 1 I I #
face $-1 $-1 $235 $33 $-1 $456 reversed single #
loop $-1 $-1 $341 $220 #
plane-surface $-1 0 35.072871465824093 0 0 -1 0 0 0 -1 forward_v I I I I #
coedge $-1 $457 $339 $342 $458 forward $221 $-1 #
coedge $-1 $345 $223 $224 $333 reversed $139 $-1 #
coedge $-1 $339 $457 $223 $331 reversed $221 $-1 #
edge $-1 $346 -12.645586049120732 $459 12.645586049120732 $330 $460 forward 7 unknown #
coedge $-1 $225 $224 $457 $461 forward $89 $-1 #
edge $-1 $337 -67.558214056825463 $459 67.558214056825463 $329 $462 forward 7 unknown #
coedge $-1 $342 $341 $225 $335 reversed $326 $-1 #
edge $-1 $463 -67.558214056825463 $336 67.558214056825463 $334 $464 forward 7 unknown #
vertex $-1 $227 $465 #
vertex $-1 $348 $466 #
straight-curve $-1 67.558214056825463 0 -12.645586049120732 0 -1 0 I I #
coedge $-1 $328 $330 $228 $340 reversed $221 $-1 #
edge $-1 $343 -35.072871465824093 $346 35.072871465824093 $339 $467 forward 7 unknown #
coedge $-1 $334 $229 $234 $349 forward $326 $-1 #
coedge $-1 $229 $334 $328 $458 reversed $326 $-1 #
vertex $-1 $230 $468 #
straight-curve $-1 0 35.072871465824093 12.645586049120732 -1 0 0 I I #
coedge $-1 $231 $329 $233 $348 reversed $139 $-1 #
vertex $-1 $340 $469 #
straight-curve $-1 0 -35.072871465824093 12.645586049120732 1 0 0 I I #
edge $-1 $236 -12.645586049120732 $337 12.645586049120732 $233 $470 forward 7 unknown #
edge $-1 $237 -12.645586049120732 $336 12.645586049120732 $234 $471 forward 7 unknown #
point $-1 67.558214056825463 -35.072871465824093 12.645586049120732 #
point $-1 67.558214056825463 35.072871465824093 12.645586049120732 #
face $-1 $-1 $472 $34 $-1 $473 reversed single #
loop $-1 $-1 $249 $239 #
plane-surface $-1 0 -35.072871465824093 0 0 1 0 0 0 1 forward_v I I I I #
coedge $-1 $474 $242 $359 $475 forward $147 $-1 #
coedge $-1 $242 $474 $476 $477 forward $147 $-1 #
edge $-1 $478 -67.558214056825463 $360 67.558214056825463 $242 $479 forward 7 unknown #
coedge $-1 $244 $243 $480 $481 reversed $93 $-1 #
coedge $-1 $245 $251 $355 $475 reversed $240 $-1 #
vertex $-1 $475 $482 #
straight-curve $-1 67.558214056825463 -25.321039472215276 -5.466407401149576 0 0 1 I I #
coedge $-1 $480 $483 $247 $363 forward $472 $-1 #
edge $-1 $368 -19.974393731314251 $364 -10.222561737705433 $362 $484 forward 7 unknown #
vertex $-1 $363 $485 #
straight-curve $-1 0 -25.321039472215276 -9.2200435554775719 -1 0 0 I I #
coedge $-1 $486 $249 $483 $487 forward $353 $-1 #
coedge $-1 $249 $486 $251 $370 reversed $353 $-1 #
vertex $-1 $487 $488 #
straight-curve $-1 0 -35.072871465824093 -9.2200435554775719 -1 0 0 I I #
edge $-1 $253 9.2200435554775719 $489 12.645586049120732 $251 $490 forward 7 unknown #
point $-1 67.558214056825463 -25.321039472215276 -9.2200435554775719 #
point $-1 67.558214056825463 -35.072871465824093 -9.2200435554775719 #
face $-1 $-1 $387 $35 $-1 $491 reversed single #
loop $-1 $-1 $379 $255 #
plane-surface $-1 -67.558214056825463 0 0 1 0 0 0 0 -1 forward_v I I I I #
coedge $-1 $492 $493 $258 $378 forward $256 $-1 #
coedge $-1 $259 $258 $266 $392 reversed $97 $-1 #
edge $-1 $494 -67.558214056825463 $381 67.558214056825463 $376 $495 forward 7 unknown #
coedge $-1 $496 $260 $262 $384 forward $374 $-1 #
coedge $-1 $260 $496 $492 $497 reversed $374 $-1 #
vertex $-1 $497 $498 #
vertex $-1 $384 $499 #
straight-curve $-1 -67.558214056825463 25.321039472215276 -5.466407401149576 0 0 1 I I #
edge $-1 $382 10.222561737705433 $388 19.974393731314251 $379 $500 forward 7 unknown #
coedge $-1 $501 $263 $267 $393 forward $387 $-1 #
coedge $-1 $263 $501 $496 $502 reversed $387 $-1 #
loop $-1 $-1 $263 $373 #
vertex $-1 $502 $503 #
straight-curve $-1 0 35.072871465824093 -9.2200435554775719 1 0 0 I I #
straight-curve $-1 0 25.321039472215276 -9.2200435554775719 1 0 0 I I #
coedge $-1 $267 $266 $493 $504 reversed $155 $-1 #
edge $-1 $269 3.7536361543279959 $494 7.1791786479711561 $266 $505 forward 7 unknown #
edge $-1 $268 9.2200435554775719 $506 12.645586049120732 $267 $507 forward 7 unknown #
point $-1 67.558214056825463 35.072871465824093 -9.2200435554775719 #
point $-1 67.558214056825463 25.321039472215276 -9.2200435554775719 #
loop $-1 $-1 $279 $271 #
plane-surface $-1 0 0 12.645586049120732 0 0 1 1 0 0 forward_v I I I I #
coedge $-1 $399 $274 $276 $403 reversed $163 $-1 #
coedge $-1 $274 $398 $508 $509 reversed $163 $-1 #
coedge $-1 $282 $277 $274 $401 forward $272 $-1 #
edge $-1 $404 -34.9756950947909 $510 -29.878316616444216 $400 $511 forward 7 unknown #
coedge $-1 $276 $275 $407 $512 reversed $101 $-1 #
edge $-1 $513 -6.2227500538759113 $404 2.4884734274515653e-014 $398 $514 forward 7 unknown #
vertex $-1 $278 $515 #
straight-curve $-1 -67.558214056825463 -10.361877764901326 7.5482075707740339 0 -1 0 I I #
coedge $-1 $508 $279 $282 $411 forward $396 $-1 #
coedge $-1 $279 $508 $402 $512 forward $396 $-1 #
vertex $-1 $280 $516 #
straight-curve $-1 -89.119556731081502 -16.126471587390022 12.64558604912073 -1 0 0 I I #
straight-curve $-1 -67.558214056825449 -16.126471587390022 7.5482075707740677 0.57357642473473569 0 0.81915205242281985 I I #
edge $-1 $283 16.126471587390022 $510 25.321039472215283 $282 $517 forward 7 unknown #
point $-1 -67.558214056825463 -16.126471587390022 12.645586049120732 #
point $-1 -67.558214056825463 -16.126471587390022 7.5482075707740472 #
edge $-1 $518 1 $518 0 $286 $-1 forward 7 unknown #
vertex $-1 $287 $519 #
ellipse-curve $-1 -64.507138171373086 -23.482125895250228 9.2101088318883253 -0.81915205242281985 0 0.57357642473473569 0.28678821236736785 0 0.40957602621140993 1 I I #
point $-1 -65.486814480498083 -23.482125895250228 10.506472836158808 #
edge $-1 $520 1 $520 0 $290 $-1 forward 7 unknown #
vertex $-1 $291 $521 #
ellipse-curve $-1 -64.507138171373086 -20.723755529802652 9.2101088318883253 -0.81915205242281985 0 0.57357642473473569 0.28678821236736785 0 0.40957602621140993 1 I I #
point $-1 -65.486814480498083 -20.723755529802652 10.506472836158808 #
edge $-1 $522 1 $522 0 $294 $-1 forward 7 unknown #
vertex $-1 $295 $523 #
ellipse-curve $-1 -64.507138171373086 -17.965385164355077 9.2101088318883253 -0.81915205242281985 0 0.57357642473473569 0.28678821236736785 0 0.40957602621140993 1 I I #
point $-1 -65.486814480498083 -17.965385164355077 10.506472836158808 #
loop $-1 $-1 $306 $298 #
plane-surface $-1 67.558214056825463 0 0 -1 0 0 0 0 1 forward_v I I I I #
coedge $-1 $429 $301 $303 $433 reversed $192 $-1 #
coedge $-1 $301 $428 $524 $525 reversed $192 $-1 #
coedge $-1 $309 $304 $301 $431 forward $299 $-1 #
edge $-1 $434 13.619233478001838 $526 17.18845620592186 $430 $527 forward 7 unknown #
coedge $-1 $303 $302 $437 $528 reversed $120 $-1 #
edge $-1 $529 -135.1164281136509 $434 -128.89367805977503 $428 $530 forward 7 unknown #
vertex $-1 $305 $531 #
straight-curve $-1 63.988991328905449 -10.361877764901326 12.645586049120737 0 -1 0 I I #
coedge $-1 $524 $306 $309 $441 reversed $426 $-1 #
coedge $-1 $306 $524 $432 $528 forward $426 $-1 #
vertex $-1 $307 $532 #
straight-curve $-1 67.558214056825463 -16.126471587390022 97.864352368233725 0 0 1 I I #
straight-curve $-1 -9.9413837035303487 -16.126471587390022 118.22910697611162 0.57357642473473569 0 -0.81915205242281985 I I #
edge $-1 $526 -25.321039472215283 $310 -16.126471587390022 $436 $533 forward 7 unknown #
point $-1 67.558214056825463 -16.126471587390022 12.645586049120732 #
point $-1 63.988991328905442 -16.126471587390022 12.645586049120752 #
edge $-1 $534 1 $534 0 $313 $-1 forward 7 unknown #
vertex $-1 $314 $535 #
ellipse-curve $-1 64.507138171373072 -23.482125895250228 9.2101088318883182 0.81915205242281985 0 0.57357642473473569 0.28678821236736785 0 -0.40957602621140993 1 I I #
point $-1 66.060390905232808 -23.482125895250228 9.6873207837359825 #
edge $-1 $536 1 $536 0 $317 $-1 forward 7 unknown #
vertex $-1 $318 $537 #
ellipse-curve $-1 64.507138171373072 -20.723755529802652 9.2101088318883182 0.81915205242281985 0 0.57357642473473569 0.28678821236736785 0 -0.40957602621140993 1 I I #
point $-1 66.060390905232808 -20.723755529802652 9.6873207837359825 #
edge $-1 $538 1 $538 0 $321 $-1 forward 7 unknown #
vertex $-1 $322 $539 #
ellipse-curve $-1 64.507138171373072 -17.965385164355077 9.2101088318883182 0.81915205242281985 0 0.57357642473473569 0.28678821236736785 0 -0.40957602621140993 1 I I #
point $-1 66.060390905232808 -17.965385164355077 9.6873207837359825 #
plane-surface $-1 67.558214056825463 0 0 -1 0 0 0 0 1 forward_v I I I I #
coedge $-1 $330 $328 $332 $461 reversed $221 $-1 #
edge $-1 $343 -12.645586049120732 $463 12.645586049120732 $342 $540 forward 7 unknown #
vertex $-1 $461 $541 #
straight-curve $-1 -67.558214056825463 -35.072871465824093 0 0 0 -1 I I #
edge $-1 $459 -35.072871465824093 $463 35.072871465824093 $457 $542 forward 7 unknown #
straight-curve $-1 0 -35.072871465824093 -12.645586049120732 -1 0 0 I I #
vertex $-1 $335 $543 #
straight-curve $-1 0 35.072871465824093 -12.645586049120732 1 0 0 I I #
point $-1 67.558214056825463 35.072871465824093 -12.645586049120732 #
point $-1 67.558214056825463 -35.072871465824093 -12.645586049120732 #
straight-curve $-1 -67.558214056825463 0 12.645586049120732 0 -1 0 I I #
point $-1 -67.558214056825463 35.072871465824093 12.645586049120732 #
point $-1 -67.558214056825463 -35.072871465824093 12.645586049120732 #
straight-curve $-1 67.558214056825463 -35.072871465824093 0 0 0 -1 I I #
straight-curve $-1 67.558214056825463 35.072871465824093 0 0 0 -1 I I #
loop $-1 $-1 $480 $352 #
plane-surface $-1 -67.558214056825463 0 0 1 0 0 0 0 -1 forward_v I I I I #
coedge $-1 $356 $355 $486 $544 forward $147 $-1 #
edge $-1 $360 25.321039472215276 $489 35.072871465824093 $359 $545 forward 7 unknown #
coedge $-1 $483 $480 $356 $477 reversed $472 $-1 #
edge $-1 $546 -35.072871465824093 $478 -25.321039472215276 $476 $547 forward 7 unknown #
vertex $-1 $481 $548 #
straight-curve $-1 0 -25.321039472215276 -12.645586049120732 1 0 0 I I #
coedge $-1 $476 $362 $358 $481 forward $472 $-1 #
edge $-1 $364 3.7536361543279959 $478 7.1791786479711561 $480 $549 forward 7 unknown #
point $-1 67.558214056825463 -25.321039472215276 -12.645586049120732 #
coedge $-1 $362 $476 $366 $487 reversed $472 $-1 #
straight-curve $-1 -67.558214056825463 -15.098477734509842 -9.2200435554775719 0 1 0 I I #
point $-1 -67.558214056825463 -25.321039472215276 -9.2200435554775719 #
coedge $-1 $367 $366 $474 $544 reversed $353 $-1 #
edge $-1 $368 9.2200435554775719 $546 12.645586049120732 $483 $550 forward 7 unknown #
point $-1 -67.558214056825463 -35.072871465824093 -9.2200435554775719 #
vertex $-1 $370 $551 #
straight-curve $-1 67.558214056825463 -35.072871465824093 0 0 0 -1 I I #
plane-surface $-1 0 35.072871465824093 0 0 -1 0 0 0 -1 forward_v I I I I #
coedge $-1 $552 $376 $380 $497 forward $256 $-1 #
coedge $-1 $376 $552 $391 $504 forward $256 $-1 #
vertex $-1 $378 $553 #
straight-curve $-1 0 25.321039472215276 -12.645586049120732 -1 0 0 I I #
coedge $-1 $380 $379 $386 $502 forward $374 $-1 #
edge $-1 $381 25.321039472215276 $554 35.072871465824093 $380 $555 forward 7 unknown #
point $-1 -67.558214056825463 25.321039472215276 -12.645586049120732 #
point $-1 -67.558214056825463 25.321039472215276 -9.2200435554775719 #
straight-curve $-1 -67.558214056825463 15.098477734509842 -9.2200435554775719 0 1 0 I I #
coedge $-1 $386 $385 $552 $556 reversed $387 $-1 #
edge $-1 $388 9.2200435554775719 $554 12.645586049120732 $386 $557 forward 7 unknown #
point $-1 -67.558214056825463 35.072871465824093 -9.2200435554775719 #
edge $-1 $506 -35.072871465824093 $494 -25.321039472215276 $391 $558 forward 7 unknown #
straight-curve $-1 67.558214056825463 25.321039472215276 -5.466407401149576 0 0 -1 I I #
vertex $-1 $504 $559 #
straight-curve $-1 67.558214056825463 35.072871465824093 0 0 0 -1 I I #
coedge $-1 $407 $406 $399 $509 forward $396 $-1 #
edge $-1 $510 21.561342674256039 $513 25.130565402176082 $508 $560 forward 7 unknown #
vertex $-1 $509 $561 #
straight-curve $-1 -67.558214056825463 -25.321039472215283 42.523902665564947 0 0 1 I I #
edge $-1 $513 -14.959161707313957 $408 -5.7645938224886955 $407 $562 forward 7 unknown #
vertex $-1 $512 $563 #
straight-curve $-1 -67.558214056825449 -25.321039472215283 7.5482075707740677 -0.57357642473473569 0 -0.81915205242281985 I I #
point $-1 -67.558214056825463 -25.321039472215283 7.5482075707740472 #
point $-1 -63.988991328905421 -16.126471587390022 12.645586049120732 #
straight-curve $-1 -67.558214056825463 0 12.645586049120732 0 -1 0 I I #
vertex $-1 $414 $564 #
point $-1 -64.220349959005731 -23.482125895250228 9.6196848580997347 #
vertex $-1 $418 $565 #
point $-1 -64.220349959005731 -20.723755529802652 9.6196848580997347 #
vertex $-1 $422 $566 #
point $-1 -64.220349959005731 -17.965385164355077 9.6196848580997347 #
coedge $-1 $437 $436 $429 $525 forward $426 $-1 #
edge $-1 $526 85.218766319112987 $529 90.316144797459629 $524 $567 forward 7 unknown #
vertex $-1 $441 $568 #
straight-curve $-1 50.369757850903603 -25.321039472215283 12.645586049120737 1 0 0 I I #
edge $-1 $529 -14.959161707313957 $438 -5.7645938224886955 $437 $569 forward 7 unknown #
vertex $-1 $528 $570 #
straight-curve $-1 -9.9413837035303487 -25.321039472215283 118.22910697611162 -0.57357642473473569 0 0.81915205242281985 I I #
point $-1 63.988991328905442 -25.321039472215283 12.645586049120752 #
point $-1 67.558214056825463 -16.126471587390022 7.5482075707740961 #
straight-curve $-1 67.558214056825463 0 12.645586049120732 0 1 0 I I #
vertex $-1 $444 $571 #
point $-1 64.793926383740441 -23.482125895250228 8.800532805676907 #
vertex $-1 $448 $572 #
point $-1 64.793926383740441 -20.723755529802652 8.800532805676907 #
vertex $-1 $452 $573 #
point $-1 64.793926383740441 -17.965385164355077 8.800532805676907 #
straight-curve $-1 -67.558214056825463 35.072871465824093 0 0 0 -1 I I #
point $-1 -67.558214056825463 -35.072871465824093 -12.645586049120732 #
straight-curve $-1 -67.558214056825463 0 -12.645586049120732 0 1 0 I I #
point $-1 -67.558214056825463 35.072871465824093 -12.645586049120732 #
edge $-1 $489 -67.558214056825463 $546 67.558214056825463 $486 $574 forward 7 unknown #
straight-curve $-1 67.558214056825463 0 -12.645586049120732 0 -1 0 I I #
vertex $-1 $477 $575 #
straight-curve $-1 -67.558214056825463 0 -12.645586049120732 0 1 0 I I #
point $-1 -67.558214056825463 -25.321039472215276 -12.645586049120732 #
straight-curve $-1 -67.558214056825463 -25.321039472215276 -5.466407401149576 0 0 -1 I I #
straight-curve $-1 -67.558214056825463 -35.072871465824093 0 0 0 -1 I I #
point $-1 67.558214056825463 -35.072871465824093 -12.645586049120732 #
coedge $-1 $493 $492 $501 $556 forward $256 $-1 #
point $-1 67.558214056825463 25.321039472215276 -12.645586049120732 #
vertex $-1 $556 $576 #
straight-curve $-1 -67.558214056825463 0 -12.645586049120732 0 1 0 I I #
edge $-1 $554 -67.558214056825463 $506 67.558214056825463 $501 $577 forward 7 unknown #
straight-curve $-1 -67.558214056825463 35.072871465824093 0 0 0 -1 I I #
straight-curve $-1 67.558214056825463 0 -12.645586049120732 0 -1 0 I I #
point $-1 67.558214056825463 35.072871465824093 -12.645586049120732 #
straight-curve $-1 -89.119556731081502 -25.321039472215283 12.64558604912073 1 0 0 I I #
point $-1 -67.558214056825463 -25.321039472215283 12.645586049120732 #
straight-curve $-1 -63.988991328905421 -10.361877764901326 12.645586049120732 0 1 0 I I #
point $-1 -63.988991328905421 -25.321039472215283 12.645586049120732 #
point $-1 -64.097562145161689 -23.482125895250228 8.9233206195209558 #
point $-1 -64.097562145161689 -20.723755529802652 8.9233206195209558 #
point $-1 -64.097562145161689 -17.965385164355077 8.9233206195209558 #
straight-curve $-1 67.558214056825463 -25.321039472215283 97.864352368233725 0 0 -1 I I #
point $-1 67.558214056825463 -25.321039472215283 12.645586049120732 #
straight-curve $-1 67.558214056825477 -10.361877764901326 7.548207570774089 0 1 0 I I #
point $-1 67.558214056825463 -25.321039472215283 7.5482075707740961 #
point $-1 64.097562145161675 -23.482125895250228 8.9233206195209487 #
point $-1 64.097562145161675 -20.723755529802652 8.9233206195209487 #
point $-1 64.097562145161675 -17.965385164355077 8.9233206195209487 #
straight-curve $-1 0 -35.072871465824093 -12.645586049120732 -1 0 0 I I #
point $-1 -67.558214056825463 -35.072871465824093 -12.645586049120732 #
point $-1 -67.558214056825463 35.072871465824093 -12.645586049120732 #
straight-curve $-1 0 35.072871465824093 -12.645586049120732 1 0 0 I I #
End-of-ACIS-data 