500 0 13 0           
7 Unknown 11 ACIS 5.0 NT 24 Thu Mar 25 16:30:24 1999 
-1 9.9999999999999995e-007 1e-010 
body $-1 $13 $-1 $14 #
body $-1 $15 $-1 $16 #
body $-1 $17 $-1 $18 #
body $-1 $19 $-1 $20 #
body $-1 $21 $-1 $22 #
body $-1 $23 $-1 $24 #
body $-1 $25 $-1 $26 #
body $-1 $27 $-1 $28 #
body $-1 $29 $-1 $30 #
body $-1 $31 $-1 $32 #
body $-1 $33 $-1 $34 #
body $-1 $35 $-1 $36 #
body $-1 $37 $-1 $38 #
lump $-1 $-1 $39 $0 #
transform $-1 1 0 0 0 1 0 0 0 1 48.745384075441756 20.625930834912943 7.0618649939768003 1 rotate no_reflect no_shear #
lump $-1 $-1 $40 $1 #
transform $-1 1 0 0 0 1 0 0 0 1 48.745384075441756 20.625930834912943 7.0618649939768003 1 rotate no_reflect no_shear #
lump $-1 $-1 $41 $2 #
transform $-1 1 0 0 0 1 0 0 0 1 48.745384075441756 20.625930834912943 7.0618649939768003 1 rotate no_reflect no_shear #
lump $-1 $-1 $42 $3 #
transform $-1 1 0 0 0 1 0 0 0 1 48.745384075441756 20.625930834912943 7.0618649939768003 1 rotate no_reflect no_shear #
lump $-1 $-1 $43 $4 #
transform $-1 1 0 0 0 1 0 0 0 1 48.745384075441756 20.625930834912943 7.0618649939768003 1 rotate no_reflect no_shear #
lump $-1 $-1 $44 $5 #
transform $-1 1 0 0 0 1 0 0 0 1 48.745384075441756 20.625930834912943 7.0618649939768003 1 rotate no_reflect no_shear #
lump $-1 $-1 $45 $6 #
transform $-1 1 0 0 0 1 0 0 0 1 48.745384075441756 20.625930834912943 7.0618649939768003 1 rotate no_reflect no_shear #
lump $-1 $-1 $46 $7 #
transform $-1 1 0 0 0 1 0 0 0 1 48.745384075441756 20.625930834912943 7.0618649939768003 1 rotate no_reflect no_shear #
lump $-1 $-1 $47 $8 #
transform $-1 1 0 0 0 1 0 0 0 1 48.745384075441756 20.625930834912943 7.0618649939768003 1 rotate no_reflect no_shear #
lump $-1 $-1 $48 $9 #
transform $-1 1 0 0 0 1 0 0 0 1 48.745384075441756 20.625930834912943 7.0618649939768003 1 rotate no_reflect no_shear #
lump $-1 $-1 $49 $10 #
transform $-1 1 0 0 0 1 0 0 0 1 48.745384075441756 20.625930834912943 7.0618649939768003 1 rotate no_reflect no_shear #
lump $-1 $-1 $50 $11 #
transform $-1 1 0 0 0 1 0 0 0 1 48.745384075441756 20.625930834912943 7.0618649939768003 1 rotate no_reflect no_shear #
lump $-1 $-1 $51 $12 #
transform $-1 1 0 0 0 1 0 0 0 1 48.745384075441756 20.625930834912943 7.0618649939768003 1 rotate no_reflect no_shear #
shell $-1 $-1 $-1 $52 $-1 $13 #
shell $-1 $-1 $-1 $53 $-1 $15 #
shell $-1 $-1 $-1 $54 $-1 $17 #
shell $-1 $-1 $-1 $55 $-1 $19 #
shell $-1 $-1 $-1 $56 $-1 $21 #
shell $-1 $-1 $-1 $57 $-1 $23 #
shell $-1 $-1 $-1 $58 $-1 $25 #
shell $-1 $-1 $-1 $59 $-1 $27 #
shell $-1 $-1 $-1 $60 $-1 $29 #
shell $-1 $-1 $-1 $61 $-1 $31 #
shell $-1 $-1 $-1 $62 $-1 $33 #
shell $-1 $-1 $-1 $63 $-1 $35 #
shell $-1 $-1 $-1 $64 $-1 $37 #
face $-1 $65 $66 $39 $-1 $67 forward single #
face $-1 $68 $69 $40 $-1 $70 forward single #
face $-1 $71 $72 $41 $-1 $73 forward single #
face $-1 $74 $75 $42 $-1 $76 reversed single #
face $-1 $77 $78 $43 $-1 $79 forward single #
face $-1 $80 $81 $44 $-1 $82 forward single #
face $-1 $83 $84 $45 $-1 $85 forward single #
face $-1 $86 $87 $46 $-1 $88 reversed single #
face $-1 $89 $90 $47 $-1 $91 forward single #
face $-1 $92 $93 $48 $-1 $94 forward single #
face $-1 $95 $96 $49 $-1 $97 reversed single #
face $-1 $98 $99 $50 $-1 $100 forward single #
face $-1 $101 $102 $51 $-1 $103 forward single #
face $-1 $104 $105 $39 $-1 $106 reversed single #
loop $-1 $-1 $107 $52 #
plane-surface $-1 0 0 7.0618649939768003 0 0 1 1 0 0 forward_v I I I I #
face $-1 $108 $109 $40 $-1 $110 reversed single #
loop $-1 $-1 $111 $53 #
plane-surface $-1 0 -17.748240785244818 -4.0618649939768003 0 0 1 1 0 0 forward_v I I I I #
face $-1 $112 $113 $41 $-1 $114 reversed single #
loop $-1 $-1 $115 $54 #
plane-surface $-1 0 20.625930834912943 0 0 -1 0 0 0 -1 forward_v I I I I #
face $-1 $116 $117 $42 $-1 $118 reversed single #
loop $-1 $-1 $119 $55 #
plane-surface $-1 58.362903831209529 -3.051874814792221 138.06139877217149 0 -1 0 -0.75470958851134928 0 -0.65605901945558964 forward_v I I I I #
face $-1 $120 $121 $43 $-1 $122 forward single #
loop $-1 $123 $124 $56 #
cone-surface $-1 45.231626936323934 -10.025146557830762 3.2087287127571447 -0.75470958851134928 0 -0.65605901945558964 0.32802950972779482 0 -0.37735479425567464 1 I I 0 1 0.5 forward I I I I #
face $-1 $125 $126 $44 $-1 $127 forward single #
loop $-1 $128 $129 $57 #
cone-surface $-1 45.231626936323934 -7.4101696541913107 3.2087287127571447 -0.75470958851134928 0 -0.65605901945558964 0.32802950972779482 0 -0.37735479425567464 1 I I 0 1 0.5 forward I I I I #
face $-1 $130 $131 $45 $-1 $132 forward single #
loop $-1 $133 $134 $58 #
cone-surface $-1 45.231626936323934 -4.795192750551859 3.2087287127571447 -0.75470958851134928 0 -0.65605901945558964 0.32802950972779482 0 -0.37735479425567464 1 I I 0 1 0.5 forward I I I I #
face $-1 $135 $136 $46 $-1 $137 reversed single #
loop $-1 $-1 $138 $59 #
plane-surface $-1 -100.40762088563018 -10.749369619342612 84.702895892343193 0 1 0 -0.52991927123019833 0 0.84804809178421925 forward_v I I I I #
face $-1 $139 $140 $47 $-1 $141 forward single #
loop $-1 $142 $143 $60 #
cone-surface $-1 -44.398803613475451 -8.9089850549831251 4.0365243986961232 0.52991927123019833 0 -0.84804809178421925 0.42402404589210962 0 0.26495963561509916 1 I I 0 1 0.5 forward I I I I #
face $-1 $144 $145 $48 $-1 $146 forward single #
loop $-1 $147 $148 $61 #
cone-surface $-1 -44.398803613475451 -6.1484082084438931 4.0365243986961232 0.52991927123019833 0 -0.84804809178421925 0.42402404589210962 0 0.26495963561509916 1 I I 0 1 0.5 forward I I I I #
face $-1 $149 $150 $49 $-1 $151 reversed single #
loop $-1 $-1 $152 $62 #
plane-surface $-1 -100.40762088563018 4.4686062532176392 84.702895892343193 0 1 0 -0.52991927123019833 0 0.84804809178421925 forward_v I I I I #
face $-1 $153 $154 $50 $-1 $155 forward single #
loop $-1 $156 $157 $63 #
cone-surface $-1 -44.398803613475451 6.3089908175771257 4.0365243986961232 0.52991927123019833 0 -0.84804809178421925 0.42402404589210962 0 0.26495963561509916 1 I I 0 1 0.5 forward I I I I #
face $-1 $158 $159 $51 $-1 $160 forward single #
loop $-1 $161 $162 $64 #
cone-surface $-1 -44.398803613475451 9.0695676641163594 4.0365243986961232 0.52991927123019833 0 -0.84804809178421925 0.42402404589210962 0 0.26495963561509916 1 I I 0 1 0.5 forward I I I I #
face $-1 $163 $164 $39 $-1 $165 reversed single #
loop $-1 $-1 $166 $65 #
plane-surface $-1 0 0 -7.0618649939768003 0 0 1 1 0 0 forward_v I I I I #
coedge $-1 $167 $168 $169 $170 forward $66 $-1 #
face $-1 $171 $172 $40 $-1 $173 reversed single #
loop $-1 $-1 $174 $68 #
plane-surface $-1 0 -14.870550735576693 -5.5618649939768003 0 -1 0 0 0 -1 forward_v I I I I #
coedge $-1 $175 $176 $177 $178 reversed $69 $-1 #
face $-1 $179 $180 $41 $-1 $181 reversed single #
loop $-1 $-1 $182 $71 #
plane-surface $-1 -48.745384075441756 0 0 1 0 0 0 0 -1 forward_v I I I I #
coedge $-1 $183 $184 $185 $186 forward $72 $-1 #
face $-1 $187 $188 $42 $-1 $189 reversed single #
loop $-1 $-1 $190 $74 #
plane-surface $-1 -15.214313683599123 -7.4101696541913089 74.101701013130622 0.75470958851134928 0 0.65605901945558964 0.65605901945558964 0 -0.75470958851134928 forward_v I I I I #
coedge $-1 $191 $192 $193 $194 reversed $75 $-1 #
face $-1 $-1 $195 $43 $-1 $196 forward single #
loop $-1 $197 $198 $77 #
cone-surface $-1 44.370621844685054 -10.025146557830762 2.4602684245010069 -0.75470958851134928 0 -0.65605901945558964 0.16401475486389741 0 -0.18867739712783732 1 I I -0.70710678118654746 0.70710678118654746 0.25 forward I I I I #
loop $-1 $-1 $199 $56 #
coedge $-1 $124 $124 $200 $201 reversed $78 $-1 #
face $-1 $-1 $202 $44 $-1 $203 forward single #
loop $-1 $204 $205 $80 #
cone-surface $-1 44.370621844685054 -7.4101696541913107 2.4602684245010069 -0.75470958851134928 0 -0.65605901945558964 0.16401475486389741 0 -0.18867739712783732 1 I I -0.70710678118654746 0.70710678118654746 0.25 forward I I I I #
loop $-1 $-1 $206 $57 #
coedge $-1 $129 $129 $207 $208 reversed $81 $-1 #
face $-1 $-1 $209 $45 $-1 $210 forward single #
loop $-1 $211 $212 $83 #
cone-surface $-1 44.370621844685054 -4.795192750551859 2.4602684245010069 -0.75470958851134928 0 -0.65605901945558964 0.16401475486389741 0 -0.18867739712783732 1 I I -0.70710678118654746 0.70710678118654746 0.25 forward I I I I #
loop $-1 $-1 $213 $58 #
coedge $-1 $134 $134 $214 $215 reversed $84 $-1 #
face $-1 $216 $217 $46 $-1 $218 reversed single #
loop $-1 $-1 $219 $86 #
plane-surface $-1 -48.745384075441763 -7.5286966317135082 2.0260359954086908 -0.52991927123019833 0 0.84804809178421925 0.84804809178421925 0 0.52991927123019833 forward_v I I I I #
coedge $-1 $220 $221 $222 $223 reversed $87 $-1 #
face $-1 $-1 $224 $47 $-1 $225 forward single #
loop $-1 $226 $227 $89 #
cone-surface $-1 -43.949248774099274 -8.9089850549831251 3.3170862797534442 0.52991927123019833 0 -0.84804809178421925 0.21201202294605481 0 0.13247981780754958 1 I I -0.70710678118654746 0.70710678118654746 0.25 forward I I I I #
loop $-1 $-1 $228 $60 #
coedge $-1 $143 $143 $229 $230 reversed $90 $-1 #
face $-1 $-1 $231 $48 $-1 $232 forward single #
loop $-1 $233 $234 $92 #
cone-surface $-1 -43.949248774099274 -6.1484082084438931 3.3170862797534442 0.52991927123019833 0 -0.84804809178421925 0.21201202294605481 0 0.13247981780754958 1 I I -0.70710678118654746 0.70710678118654746 0.25 forward I I I I #
loop $-1 $-1 $235 $61 #
coedge $-1 $148 $148 $236 $237 reversed $93 $-1 #
face $-1 $238 $239 $49 $-1 $240 reversed single #
loop $-1 $-1 $241 $95 #
plane-surface $-1 -48.745384075441763 7.6892792408467443 2.0260359954086908 -0.52991927123019833 0 0.84804809178421925 0.84804809178421925 0 0.52991927123019833 forward_v I I I I #
coedge $-1 $242 $243 $244 $245 reversed $96 $-1 #
face $-1 $-1 $246 $50 $-1 $247 forward single #
loop $-1 $248 $249 $98 #
cone-surface $-1 -43.949248774099274 6.3089908175771257 3.3170862797534442 0.52991927123019833 0 -0.84804809178421925 0.21201202294605481 0 0.13247981780754958 1 I I -0.70710678118654746 0.70710678118654746 0.25 forward I I I I #
loop $-1 $-1 $250 $63 #
coedge $-1 $157 $157 $251 $252 reversed $99 $-1 #
face $-1 $-1 $253 $51 $-1 $254 forward single #
loop $-1 $255 $256 $101 #
cone-surface $-1 -43.949248774099274 9.0695676641163594 3.3170862797534442 0.52991927123019833 0 -0.84804809178421925 0.21201202294605481 0 0.13247981780754958 1 I I -0.70710678118654746 0.70710678118654746 0.25 forward I I I I #
loop $-1 $-1 $257 $64 #
coedge $-1 $162 $162 $258 $259 reversed $102 $-1 #
face $-1 $260 $261 $39 $-1 $262 reversed single #
loop $-1 $-1 $263 $104 #
plane-surface $-1 0 -20.625930834912943 0 0 1 0 0 0 1 forward_v I I I I #
coedge $-1 $264 $265 $266 $267 forward $105 $-1 #
coedge $-1 $268 $107 $269 $270 forward $66 $-1 #
coedge $-1 $107 $268 $271 $272 forward $66 $-1 #
coedge $-1 $273 $274 $107 $170 reversed $275 $-1 #
edge $-1 $276 -20.625930834912943 $277 20.625930834912943 $169 $278 forward 7 unknown #
face $-1 $279 $280 $40 $-1 $281 reversed single #
loop $-1 $-1 $282 $108 #
plane-surface $-1 0 0 -7.0618649939768003 0 0 1 1 0 0 forward_v I I I I #
coedge $-1 $283 $284 $285 $286 reversed $109 $-1 #
coedge $-1 $287 $111 $284 $288 forward $69 $-1 #
coedge $-1 $111 $287 $289 $290 reversed $69 $-1 #
coedge $-1 $291 $285 $111 $178 forward $280 $-1 #
edge $-1 $292 5.9964303429542838 $293 11.751810442290534 $177 $294 forward 7 unknown #
face $-1 $295 $296 $41 $-1 $297 reversed single #
loop $-1 $-1 $298 $112 #
plane-surface $-1 0 23.156195747597508 4.0618649939768003 0 0 1 1 0 0 forward_v I I I I #
coedge $-1 $299 $300 $184 $301 forward $113 $-1 #
coedge $-1 $302 $115 $303 $304 reversed $72 $-1 #
coedge $-1 $115 $302 $182 $301 reversed $72 $-1 #
coedge $-1 $305 $298 $115 $186 reversed $180 $-1 #
edge $-1 $306 -48.745384075441756 $307 48.745384075441756 $185 $308 forward 7 unknown #
face $-1 $309 $310 $42 $-1 $311 forward single #
loop $-1 $-1 $312 $116 #
plane-surface $-1 58.362903831209529 -11.768464493590397 138.06139877217149 0 1 0 0.75470958851134928 0 0.65605901945558964 forward_v I I I I #
coedge $-1 $313 $314 $315 $316 reversed $117 $-1 #
coedge $-1 $192 $119 $317 $318 reversed $75 $-1 #
coedge $-1 $119 $191 $313 $319 reversed $75 $-1 #
coedge $-1 $315 $320 $119 $194 forward $310 $-1 #
edge $-1 $321 -19.563932159836991 $322 -13.881073270623428 $193 $323 forward 7 unknown #
loop $-1 $-1 $200 $120 #
plane-surface $-1 -15.214313683599123 -7.4101696541913089 74.101701013130622 0.75470958851134928 0 0.65605901945558964 0.65605901945558964 0 -0.75470958851134928 forward_v I I I I #
loop $-1 $-1 $324 $77 #
coedge $-1 $198 $198 $199 $325 reversed $121 $-1 #
coedge $-1 $199 $199 $198 $325 forward $123 $-1 #
coedge $-1 $200 $200 $124 $201 forward $195 $-1 #
edge $-1 $326 0 $326 6.2831853071796004 $200 $327 forward 7 unknown #
loop $-1 $-1 $207 $125 #
plane-surface $-1 -15.214313683599123 -7.4101696541913089 74.101701013130622 0.75470958851134928 0 0.65605901945558964 0.65605901945558964 0 -0.75470958851134928 forward_v I I I I #
loop $-1 $-1 $328 $80 #
coedge $-1 $205 $205 $206 $329 reversed $126 $-1 #
coedge $-1 $206 $206 $205 $329 forward $128 $-1 #
coedge $-1 $207 $207 $129 $208 forward $202 $-1 #
edge $-1 $330 0 $330 6.2831853071796004 $207 $331 forward 7 unknown #
loop $-1 $-1 $214 $130 #
plane-surface $-1 -15.214313683599123 -7.4101696541913089 74.101701013130622 0.75470958851134928 0 0.65605901945558964 0.65605901945558964 0 -0.75470958851134928 forward_v I I I I #
loop $-1 $-1 $332 $83 #
coedge $-1 $212 $212 $213 $333 reversed $131 $-1 #
coedge $-1 $213 $213 $212 $333 forward $133 $-1 #
coedge $-1 $214 $214 $134 $215 forward $209 $-1 #
edge $-1 $334 0 $334 6.2831853071796004 $214 $335 forward 7 unknown #
face $-1 $336 $337 $46 $-1 $338 reversed single #
loop $-1 $-1 $339 $135 #
plane-surface $-1 -100.40762088563018 -4.3080236440844031 84.702895892343193 0 -1 0 0.52991927123019833 0 -0.84804809178421925 forward_v I I I I #
coedge $-1 $340 $341 $342 $343 reversed $136 $-1 #
coedge $-1 $221 $138 $344 $345 reversed $87 $-1 #
coedge $-1 $138 $220 $340 $346 reversed $87 $-1 #
coedge $-1 $342 $347 $138 $223 forward $348 $-1 #
edge $-1 $349 1.4584263673733346 $350 9.5174372481686973 $222 $351 forward 7 unknown #
loop $-1 $-1 $229 $139 #
plane-surface $-1 -48.745384075441763 -7.5286966317135082 2.0260359954086908 -0.52991927123019833 0 0.84804809178421925 0.84804809178421925 0 0.52991927123019833 forward_v I I I I #
loop $-1 $-1 $352 $89 #
coedge $-1 $227 $227 $228 $353 reversed $140 $-1 #
coedge $-1 $228 $228 $227 $353 forward $142 $-1 #
coedge $-1 $229 $229 $143 $230 forward $224 $-1 #
edge $-1 $354 0 $354 6.2831853071796004 $229 $355 forward 7 unknown #
loop $-1 $-1 $236 $144 #
plane-surface $-1 -48.745384075441763 -7.5286966317135082 2.0260359954086908 -0.52991927123019833 0 0.84804809178421925 0.84804809178421925 0 0.52991927123019833 forward_v I I I I #
loop $-1 $-1 $356 $92 #
coedge $-1 $234 $234 $235 $357 reversed $145 $-1 #
coedge $-1 $235 $235 $234 $357 forward $147 $-1 #
coedge $-1 $236 $236 $148 $237 forward $231 $-1 #
edge $-1 $358 0 $358 6.2831853071796004 $236 $359 forward 7 unknown #
face $-1 $360 $361 $49 $-1 $362 forward single #
loop $-1 $-1 $363 $149 #
plane-surface $-1 -100.40762088563018 10.909952228475849 84.702895892343193 0 -1 0 0.52991927123019833 0 -0.84804809178421925 forward_v I I I I #
coedge $-1 $364 $365 $366 $367 reversed $150 $-1 #
coedge $-1 $243 $152 $368 $369 reversed $96 $-1 #
coedge $-1 $152 $242 $364 $370 reversed $96 $-1 #
coedge $-1 $366 $371 $152 $245 forward $361 $-1 #
edge $-1 $372 1.4584263673733346 $373 9.5174372481686973 $244 $374 forward 7 unknown #
loop $-1 $-1 $251 $153 #
plane-surface $-1 -48.745384075441763 7.6892792408467443 2.0260359954086908 -0.52991927123019833 0 0.84804809178421925 0.84804809178421925 0 0.52991927123019833 forward_v I I I I #
loop $-1 $-1 $375 $98 #
coedge $-1 $249 $249 $250 $376 reversed $154 $-1 #
coedge $-1 $250 $250 $249 $376 forward $156 $-1 #
coedge $-1 $251 $251 $157 $252 forward $246 $-1 #
edge $-1 $377 0 $377 6.2831853071796004 $251 $378 forward 7 unknown #
loop $-1 $-1 $258 $158 #
plane-surface $-1 -48.745384075441763 7.6892792408467443 2.0260359954086908 -0.52991927123019833 0 0.84804809178421925 0.84804809178421925 0 0.52991927123019833 forward_v I I I I #
loop $-1 $-1 $379 $101 #
coedge $-1 $256 $256 $257 $380 reversed $159 $-1 #
coedge $-1 $257 $257 $256 $380 forward $161 $-1 #
coedge $-1 $258 $258 $162 $259 forward $253 $-1 #
edge $-1 $381 0 $381 6.2831853071796004 $258 $382 forward 7 unknown #
face $-1 $383 $384 $39 $-1 $385 reversed single #
loop $-1 $-1 $386 $163 #
plane-surface $-1 -48.745384075441756 0 0 1 0 0 0 0 -1 forward_v I I I I #
coedge $-1 $387 $271 $388 $389 forward $164 $-1 #
coedge $-1 $390 $166 $387 $391 forward $105 $-1 #
coedge $-1 $166 $390 $392 $393 forward $105 $-1 #
coedge $-1 $274 $273 $166 $267 reversed $275 $-1 #
edge $-1 $394 -20.625930834912943 $395 20.625930834912943 $266 $396 forward 7 unknown #
coedge $-1 $168 $167 $397 $398 forward $66 $-1 #
coedge $-1 $399 $400 $167 $270 reversed $384 $-1 #
edge $-1 $277 -48.745384075441756 $401 48.745384075441756 $269 $402 forward 7 unknown #
coedge $-1 $263 $403 $168 $272 reversed $164 $-1 #
edge $-1 $404 -48.745384075441756 $276 48.745384075441756 $271 $405 forward 7 unknown #
coedge $-1 $266 $169 $403 $406 forward $275 $-1 #
coedge $-1 $169 $266 $399 $407 reversed $275 $-1 #
loop $-1 $-1 $273 $383 #
vertex $-1 $170 $408 #
vertex $-1 $170 $409 #
straight-curve $-1 48.745384075441756 0 7.0618649939768003 0 1 0 I I #
face $-1 $410 $411 $40 $-1 $412 reversed single #
loop $-1 $-1 $285 $171 #
plane-surface $-1 48.745384075441756 0 0 -1 0 0 0 0 1 forward_v I I I I #
coedge $-1 $413 $414 $283 $415 forward $172 $-1 #
coedge $-1 $416 $174 $282 $415 reversed $109 $-1 #
coedge $-1 $174 $416 $175 $288 reversed $109 $-1 #
coedge $-1 $177 $417 $174 $286 forward $280 $-1 #
edge $-1 $418 -4.2809324969884006 $292 -1.2809324969884002 $285 $419 forward 7 unknown #
coedge $-1 $176 $175 $420 $421 reversed $69 $-1 #
edge $-1 $292 -48.745384075441756 $422 48.745384075441756 $284 $423 forward 7 unknown #
coedge $-1 $424 $425 $176 $290 forward $411 $-1 #
edge $-1 $293 -48.745384075441756 $426 48.745384075441756 $289 $427 forward 7 unknown #
coedge $-1 $417 $177 $425 $428 forward $280 $-1 #
vertex $-1 $178 $429 #
vertex $-1 $428 $430 #
straight-curve $-1 48.745384075441756 -8.8741203926224088 -4.0618649939768003 0 -1 0 I I #
face $-1 $431 $432 $41 $-1 $433 forward single #
loop $-1 $-1 $434 $179 #
plane-surface $-1 0 25.686460660282073 5.5618649939768003 0 -1 0 0 0 -1 forward_v I I I I #
coedge $-1 $185 $435 $436 $437 forward $180 $-1 #
coedge $-1 $438 $182 $439 $440 reversed $113 $-1 #
coedge $-1 $182 $438 $305 $441 reversed $113 $-1 #
edge $-1 $306 4.0618649939768003 $442 7.0618649939768003 $182 $443 forward 7 unknown #
coedge $-1 $184 $183 $444 $445 reversed $72 $-1 #
coedge $-1 $436 $446 $183 $304 forward $447 $-1 #
edge $-1 $448 -7.0618649939768003 $307 -4.0618649939768003 $303 $449 forward 7 unknown #
coedge $-1 $435 $185 $300 $441 forward $180 $-1 #
vertex $-1 $301 $450 #
vertex $-1 $304 $451 #
straight-curve $-1 0 20.625930834912943 4.0618649939768003 1 0 0 I I #
face $-1 $-1 $452 $42 $-1 $453 reversed single #
loop $-1 $-1 $193 $187 #
plane-surface $-1 0 0 7.0618649939768003 0 0 1 1 0 0 forward_v I I I I #
coedge $-1 $454 $455 $456 $457 reversed $188 $-1 #
coedge $-1 $458 $190 $192 $319 forward $117 $-1 #
coedge $-1 $190 $458 $454 $459 forward $117 $-1 #
coedge $-1 $456 $193 $190 $316 forward $310 $-1 #
edge $-1 $322 -0.65321001230343345 $460 8.0633796664947432 $315 $461 forward 7 unknown #
coedge $-1 $462 $463 $191 $318 forward $452 $-1 #
edge $-1 $464 -68.506215887763787 $321 -61.968834392108946 $317 $465 forward 7 unknown #
edge $-1 $322 88.82865282179425 $464 97.490768150883554 $192 $466 forward 7 unknown #
coedge $-1 $193 $456 $462 $467 forward $310 $-1 #
vertex $-1 $318 $468 #
vertex $-1 $194 $469 #
straight-curve $-1 29.181451915604764 -3.051874814792221 7.0618649939767977 -1 0 0 I I #
coedge $-1 $324 $324 $-1 $470 reversed $197 $-1 #
edge $-1 $471 0 $471 6.2831853071796004 $198 $472 forward 7 unknown #
vertex $-1 $201 $473 #
ellipse-curve $-1 45.903954630834967 -10.025146557830762 3.7931742461493725 0.75470958851134928 0 0.65605901945558964 0.32802950972779482 0 -0.37735479425567464 1 I I #
coedge $-1 $328 $328 $-1 $474 reversed $204 $-1 #
edge $-1 $475 0 $475 6.2831853071796004 $205 $476 forward 7 unknown #
vertex $-1 $208 $477 #
ellipse-curve $-1 45.903954630834967 -7.4101696541913107 3.7931742461493725 0.75470958851134928 0 0.65605901945558964 0.32802950972779482 0 -0.37735479425567464 1 I I #
coedge $-1 $332 $332 $-1 $478 reversed $211 $-1 #
edge $-1 $479 0 $479 6.2831853071796004 $212 $480 forward 7 unknown #
vertex $-1 $215 $481 #
ellipse-curve $-1 45.903954630834967 -4.795192750551859 3.7931742461493725 0.75470958851134928 0 0.65605901945558964 0.32802950972779482 0 -0.37735479425567464 1 I I #
face $-1 $-1 $348 $46 $-1 $482 forward single #
loop $-1 $-1 $483 $216 #
plane-surface $-1 -48.745384075441756 0 0 1 0 0 0 0 -1 forward_v I I I I #
coedge $-1 $484 $485 $486 $487 reversed $217 $-1 #
coedge $-1 $488 $219 $221 $346 forward $136 $-1 #
coedge $-1 $219 $488 $484 $489 forward $136 $-1 #
coedge $-1 $486 $222 $219 $343 forward $348 $-1 #
edge $-1 $350 -6.9850213034858584 $490 -0.54367532822764897 $342 $491 forward 7 unknown #
coedge $-1 $492 $493 $220 $345 forward $337 $-1 #
edge $-1 $494 -40.325411950762899 $349 -35.289582952194799 $344 $495 forward 7 unknown #
edge $-1 $350 -9.503011632087885 $494 -8.3790584163743152e-015 $221 $496 forward 7 unknown #
coedge $-1 $222 $486 $492 $497 forward $348 $-1 #
loop $-1 $-1 $486 $336 #
vertex $-1 $345 $498 #
vertex $-1 $223 $499 #
straight-curve $-1 -50.20381044281509 -10.749369619342612 7.0618649939767977 1 0 0 I I #
coedge $-1 $352 $352 $-1 $500 reversed $226 $-1 #
edge $-1 $501 0 $501 6.2831853071796004 $227 $502 forward 7 unknown #
vertex $-1 $230 $503 #
ellipse-curve $-1 -44.715878635044078 -8.9089850549831251 4.5439504946927451 -0.52991927123019833 0 0.84804809178421925 0.42402404589210962 0 0.26495963561509916 1 I I #
coedge $-1 $356 $356 $-1 $504 reversed $233 $-1 #
edge $-1 $505 0 $505 6.2831853071796004 $234 $506 forward 7 unknown #
vertex $-1 $237 $507 #
ellipse-curve $-1 -44.715878635044078 -6.1484082084438931 4.5439504946927451 -0.52991927123019833 0 0.84804809178421925 0.42402404589210962 0 0.26495963561509916 1 I I #
face $-1 $-1 $508 $49 $-1 $509 reversed single #
loop $-1 $-1 $244 $238 #
plane-surface $-1 0 0 7.0618649939768003 0 0 1 1 0 0 forward_v I I I I #
coedge $-1 $510 $511 $512 $513 reversed $239 $-1 #
coedge $-1 $514 $241 $243 $370 forward $150 $-1 #
coedge $-1 $241 $514 $510 $515 forward $150 $-1 #
coedge $-1 $512 $244 $241 $367 forward $361 $-1 #
edge $-1 $373 0.62396663279426701 $516 7.0653126080524764 $366 $517 forward 7 unknown #
coedge $-1 $518 $519 $242 $369 forward $508 $-1 #
edge $-1 $520 -40.325411950762899 $372 -35.289582952194799 $368 $521 forward 7 unknown #
edge $-1 $373 -9.503011632087885 $520 -8.3790584163743152e-015 $243 $522 forward 7 unknown #
coedge $-1 $244 $512 $518 $523 forward $361 $-1 #
vertex $-1 $245 $524 #
vertex $-1 $245 $525 #
straight-curve $-1 -50.20381044281509 4.4686062532176392 7.0618649939767977 1 0 0 I I #
coedge $-1 $375 $375 $-1 $526 reversed $248 $-1 #
edge $-1 $527 0 $527 6.2831853071796004 $249 $528 forward 7 unknown #
vertex $-1 $252 $529 #
ellipse-curve $-1 -44.715878635044078 6.3089908175771257 4.5439504946927451 -0.52991927123019833 0 0.84804809178421925 0.42402404589210962 0 0.26495963561509916 1 I I #
coedge $-1 $379 $379 $-1 $530 reversed $255 $-1 #
edge $-1 $531 0 $531 6.2831853071796004 $256 $532 forward 7 unknown #
vertex $-1 $259 $533 #
ellipse-curve $-1 -44.715878635044078 9.0695676641163594 4.5439504946927451 -0.52991927123019833 0 0.84804809178421925 0.42402404589210962 0 0.26495963561509916 1 I I #
face $-1 $-1 $275 $39 $-1 $534 reversed single #
loop $-1 $-1 $399 $260 #
plane-surface $-1 0 20.625930834912943 0 0 -1 0 0 0 -1 forward_v I I I I #
coedge $-1 $535 $397 $400 $536 forward $261 $-1 #
coedge $-1 $403 $263 $264 $391 reversed $164 $-1 #
coedge $-1 $397 $535 $263 $389 reversed $261 $-1 #
edge $-1 $404 -7.0618649939768003 $537 7.0618649939768003 $388 $538 forward 7 unknown #
coedge $-1 $265 $264 $535 $539 forward $105 $-1 #
edge $-1 $395 -48.745384075441756 $537 48.745384075441756 $387 $540 forward 7 unknown #
coedge $-1 $400 $399 $265 $393 reversed $384 $-1 #
edge $-1 $541 -48.745384075441756 $394 48.745384075441756 $392 $542 forward 7 unknown #
vertex $-1 $267 $543 #
vertex $-1 $406 $544 #
straight-curve $-1 48.745384075441756 0 -7.0618649939768003 0 -1 0 I I #
coedge $-1 $386 $388 $268 $398 reversed $261 $-1 #
edge $-1 $401 -20.625930834912943 $404 20.625930834912943 $397 $545 forward 7 unknown #
coedge $-1 $392 $269 $274 $407 forward $384 $-1 #
coedge $-1 $269 $392 $386 $536 reversed $384 $-1 #
vertex $-1 $270 $546 #
straight-curve $-1 0 20.625930834912943 7.0618649939768003 -1 0 0 I I #
coedge $-1 $271 $387 $273 $406 reversed $164 $-1 #
vertex $-1 $398 $547 #
straight-curve $-1 0 -20.625930834912943 7.0618649939768003 1 0 0 I I #
edge $-1 $276 -7.0618649939768003 $395 7.0618649939768003 $273 $548 forward 7 unknown #
edge $-1 $277 -7.0618649939768003 $394 7.0618649939768003 $274 $549 forward 7 unknown #
point $-1 48.745384075441756 -20.625930834912943 7.0618649939768003 #
point $-1 48.745384075441756 20.625930834912943 7.0618649939768003 #
face $-1 $-1 $550 $40 $-1 $551 reversed single #
loop $-1 $-1 $289 $279 #
plane-surface $-1 0 -20.625930834912943 0 0 1 0 0 0 1 forward_v I I I I #
coedge $-1 $552 $282 $417 $553 forward $172 $-1 #
coedge $-1 $282 $552 $554 $555 forward $172 $-1 #
edge $-1 $556 -48.745384075441756 $418 48.745384075441756 $282 $557 forward 7 unknown #
coedge $-1 $284 $283 $558 $559 reversed $109 $-1 #
coedge $-1 $285 $291 $413 $553 reversed $280 $-1 #
vertex $-1 $553 $560 #
straight-curve $-1 48.745384075441756 -14.870550735576693 -2.7809324969884002 0 0 1 I I #
coedge $-1 $558 $561 $287 $421 forward $550 $-1 #
edge $-1 $426 -11.751810442290534 $422 -5.9964303429542838 $420 $562 forward 7 unknown #
vertex $-1 $421 $563 #
straight-curve $-1 0 -14.870550735576693 -4.0618649939768003 -1 0 0 I I #
coedge $-1 $564 $289 $561 $565 forward $411 $-1 #
coedge $-1 $289 $564 $291 $428 reversed $411 $-1 #
vertex $-1 $565 $566 #
straight-curve $-1 0 -20.625930834912943 -4.0618649939768003 -1 0 0 I I #
edge $-1 $293 4.0618649939768003 $567 7.0618649939768003 $291 $568 forward 7 unknown #
point $-1 48.745384075441756 -14.870550735576693 -4.0618649939768003 #
point $-1 48.745384075441756 -20.625930834912943 -4.0618649939768003 #
face $-1 $-1 $447 $41 $-1 $569 reversed single #
loop $-1 $-1 $444 $295 #
plane-surface $-1 0 0 7.0618649939768003 0 0 1 1 0 0 forward_v I I I I #
coedge $-1 $570 $571 $572 $573 forward $296 $-1 #
coedge $-1 $298 $305 $570 $574 forward $180 $-1 #
coedge $-1 $572 $303 $298 $437 reversed $447 $-1 #
edge $-1 $575 -2.5302649126845651 $307 2.5302649126845651 $436 $576 forward 7 unknown #
coedge $-1 $300 $299 $577 $578 forward $113 $-1 #
coedge $-1 $444 $579 $299 $440 forward $432 $-1 #
edge $-1 $580 -25.686460660282073 $442 -20.625930834912943 $299 $581 forward 7 unknown #
edge $-1 $306 -2.5302649126845651 $582 2.5302649126845651 $300 $583 forward 7 unknown #
vertex $-1 $301 $584 #
straight-curve $-1 -48.745384075441756 20.625930834912943 0 0 0 1 I I #
coedge $-1 $585 $439 $302 $445 forward $432 $-1 #
edge $-1 $442 -48.745384075441756 $448 48.745384075441756 $444 $586 forward 7 unknown #
coedge $-1 $303 $572 $585 $587 reversed $447 $-1 #
loop $-1 $-1 $303 $431 #
vertex $-1 $587 $588 #
straight-curve $-1 48.745384075441756 20.625930834912943 0 0 0 -1 I I #
point $-1 -48.745384075441756 20.625930834912943 4.0618649939768003 #
point $-1 48.745384075441756 20.625930834912943 4.0618649939768003 #
loop $-1 $-1 $317 $309 #
plane-surface $-1 48.745384075441756 0 0 -1 0 0 0 0 1 forward_v I I I I #
coedge $-1 $455 $312 $314 $459 reversed $188 $-1 #
coedge $-1 $312 $454 $589 $590 reversed $188 $-1 #
coedge $-1 $320 $315 $312 $457 forward $310 $-1 #
edge $-1 $460 13.881073270623428 $591 19.563932159836991 $456 $592 forward 7 unknown #
coedge $-1 $314 $313 $463 $593 reversed $117 $-1 #
edge $-1 $594 -97.490768150883554 $460 -88.82865282179425 $454 $595 forward 7 unknown #
vertex $-1 $316 $596 #
straight-curve $-1 43.062525186228193 -3.7050848270956545 7.0618649939767977 0 -1 0 I I #
coedge $-1 $589 $317 $320 $467 reversed $452 $-1 #
coedge $-1 $317 $589 $458 $593 forward $452 $-1 #
vertex $-1 $318 $597 #
straight-curve $-1 48.745384075441756 -3.051874814792221 69.030699386085743 0 0 1 I I #
straight-curve $-1 -15.214313683599123 -3.051874814792221 74.101701013130622 0.65605901945558964 0 -0.75470958851134928 I I #
edge $-1 $591 -11.768464493590397 $321 -3.051874814792221 $462 $598 forward 7 unknown #
point $-1 48.745384075441756 -3.051874814792221 7.0618649939768003 #
point $-1 43.062525186228193 -3.051874814792221 7.0618649939767977 #
edge $-1 $599 1 $599 0 $324 $-1 forward 7 unknown #
vertex $-1 $325 $600 #
ellipse-curve $-1 44.559299241812894 -10.025146557830762 2.6242831793649044 0.75470958851134928 0 0.65605901945558964 0.32802950972779482 0 -0.37735479425567464 1 I I #
point $-1 46.23198414056278 -10.025146557830762 3.4158194518937099 #
edge $-1 $601 1 $601 0 $328 $-1 forward 7 unknown #
vertex $-1 $329 $602 #
ellipse-curve $-1 44.559299241812894 -7.4101696541913107 2.6242831793649044 0.75470958851134928 0 0.65605901945558964 0.32802950972779482 0 -0.37735479425567464 1 I I #
point $-1 46.23198414056278 -7.4101696541913107 3.4158194518937099 #
edge $-1 $603 1 $603 0 $332 $-1 forward 7 unknown #
vertex $-1 $333 $604 #
ellipse-curve $-1 44.559299241812894 -4.795192750551859 2.6242831793649044 0.75470958851134928 0 0.65605901945558964 0.32802950972779482 0 -0.37735479425567464 1 I I #
point $-1 46.23198414056278 -4.795192750551859 3.4158194518937099 #
plane-surface $-1 0 0 7.0618649939768003 0 0 1 1 0 0 forward_v I I I I #
coedge $-1 $493 $492 $485 $605 forward $337 $-1 #
coedge $-1 $485 $339 $341 $489 reversed $217 $-1 #
coedge $-1 $339 $484 $483 $605 reversed $217 $-1 #
coedge $-1 $347 $342 $339 $487 forward $348 $-1 #
edge $-1 $490 -9.5174372481686973 $606 -1.4584263673733346 $486 $607 forward 7 unknown #
coedge $-1 $341 $340 $493 $608 reversed $136 $-1 #
edge $-1 $609 8.3790584163743152e-015 $490 9.503011632087885 $484 $610 forward 7 unknown #
vertex $-1 $343 $611 #
straight-curve $-1 -40.686373194646393 -3.7643483158567541 7.0618649939768003 0 1 0 I I #
coedge $-1 $483 $344 $347 $497 reversed $337 $-1 #
coedge $-1 $344 $483 $488 $608 forward $337 $-1 #
vertex $-1 $345 $612 #
straight-curve $-1 -48.745384075441756 -10.749369619342612 42.351447946171596 0 0 1 I I #
straight-curve $-1 -48.745384075441763 -10.749369619342612 2.0260359954086908 -0.84804809178421925 0 -0.52991927123019833 I I #
edge $-1 $606 4.3080236440844031 $349 10.749369619342612 $492 $613 forward 7 unknown #
point $-1 -48.745384075441756 -10.749369619342612 7.0618649939768003 #
point $-1 -40.686373194646393 -10.749369619342612 7.0618649939768003 #
edge $-1 $614 1 $614 0 $352 $-1 forward 7 unknown #
vertex $-1 $353 $615 #
ellipse-curve $-1 -44.081728591906824 -8.9089850549831251 3.5290983026994991 -0.52991927123019833 0 0.84804809178421925 0.42402404589210962 0 0.26495963561509916 1 I I #
point $-1 -44.291854589151974 -8.9089850549831251 4.8089101303078463 #
edge $-1 $616 1 $616 0 $356 $-1 forward 7 unknown #
vertex $-1 $357 $617 #
ellipse-curve $-1 -44.081728591906824 -6.1484082084438931 3.5290983026994991 -0.52991927123019833 0 0.84804809178421925 0.42402404589210962 0 0.26495963561509916 1 I I #
point $-1 -44.291854589151974 -6.1484082084438931 4.8089101303078463 #
loop $-1 $-1 $368 $360 #
plane-surface $-1 -48.745384075441756 0 0 1 0 0 0 0 -1 forward_v I I I I #
coedge $-1 $511 $363 $365 $515 reversed $239 $-1 #
coedge $-1 $363 $510 $618 $619 reversed $239 $-1 #
coedge $-1 $371 $366 $363 $513 forward $361 $-1 #
edge $-1 $516 -9.5174372481686973 $620 -1.4584263673733346 $512 $621 forward 7 unknown #
coedge $-1 $365 $364 $519 $622 reversed $150 $-1 #
edge $-1 $623 8.3790584163743152e-015 $516 9.503011632087885 $510 $624 forward 7 unknown #
vertex $-1 $367 $625 #
straight-curve $-1 -40.686373194646393 3.8446396204233722 7.0618649939768003 0 1 0 I I #
coedge $-1 $618 $368 $371 $523 reversed $508 $-1 #
coedge $-1 $368 $618 $514 $622 forward $508 $-1 #
vertex $-1 $369 $626 #
straight-curve $-1 -48.745384075441756 4.4686062532176392 42.351447946171596 0 0 1 I I #
straight-curve $-1 -48.745384075441763 4.4686062532176392 2.0260359954086908 -0.84804809178421925 0 -0.52991927123019833 I I #
edge $-1 $620 -10.909952228475849 $372 -4.4686062532176392 $518 $627 forward 7 unknown #
point $-1 -48.745384075441756 4.4686062532176392 7.0618649939768003 #
point $-1 -40.686373194646393 4.4686062532176392 7.0618649939768003 #
edge $-1 $628 1 $628 0 $375 $-1 forward 7 unknown #
vertex $-1 $376 $629 #
ellipse-curve $-1 -44.081728591906824 6.3089908175771257 3.5290983026994991 -0.52991927123019833 0 0.84804809178421925 0.42402404589210962 0 0.26495963561509916 1 I I #
point $-1 -44.291854589151974 6.3089908175771257 4.8089101303078463 #
edge $-1 $630 1 $630 0 $379 $-1 forward 7 unknown #
vertex $-1 $380 $631 #
ellipse-curve $-1 -44.081728591906824 9.0695676641163594 3.5290983026994991 -0.52991927123019833 0 0.84804809178421925 0.42402404589210962 0 0.26495963561509916 1 I I #
point $-1 -44.291854589151974 9.0695676641163594 4.8089101303078463 #
plane-surface $-1 48.745384075441756 0 0 -1 0 0 0 0 1 forward_v I I I I #
coedge $-1 $388 $386 $390 $539 reversed $261 $-1 #
edge $-1 $401 -7.0618649939768003 $541 7.0618649939768003 $400 $632 forward 7 unknown #
vertex $-1 $539 $633 #
straight-curve $-1 -48.745384075441756 -20.625930834912943 0 0 0 -1 I I #
edge $-1 $537 -20.625930834912943 $541 20.625930834912943 $535 $634 forward 7 unknown #
straight-curve $-1 0 -20.625930834912943 -7.0618649939768003 -1 0 0 I I #
vertex $-1 $393 $635 #
straight-curve $-1 0 20.625930834912943 -7.0618649939768003 1 0 0 I I #
point $-1 48.745384075441756 20.625930834912943 -7.0618649939768003 #
point $-1 48.745384075441756 -20.625930834912943 -7.0618649939768003 #
straight-curve $-1 -48.745384075441756 0 7.0618649939768003 0 -1 0 I I #
point $-1 -48.745384075441756 20.625930834912943 7.0618649939768003 #
point $-1 -48.745384075441756 -20.625930834912943 7.0618649939768003 #
straight-curve $-1 48.745384075441756 -20.625930834912943 0 0 0 -1 I I #
straight-curve $-1 48.745384075441756 20.625930834912943 0 0 0 -1 I I #
loop $-1 $-1 $558 $410 #
plane-surface $-1 -48.745384075441756 0 0 1 0 0 0 0 -1 forward_v I I I I #
coedge $-1 $414 $413 $564 $636 forward $172 $-1 #
edge $-1 $418 14.870550735576693 $567 20.625930834912943 $417 $637 forward 7 unknown #
coedge $-1 $561 $558 $414 $555 reversed $550 $-1 #
edge $-1 $638 -20.625930834912943 $556 -14.870550735576693 $554 $639 forward 7 unknown #
vertex $-1 $559 $640 #
straight-curve $-1 0 -14.870550735576693 -7.0618649939768003 1 0 0 I I #
coedge $-1 $554 $420 $416 $559 forward $550 $-1 #
edge $-1 $422 1.2809324969884002 $556 4.2809324969884006 $558 $641 forward 7 unknown #
point $-1 48.745384075441756 -14.870550735576693 -7.0618649939768003 #
coedge $-1 $420 $554 $424 $565 reversed $550 $-1 #
straight-curve $-1 -48.745384075441756 -8.8741203926224088 -4.0618649939768003 0 1 0 I I #
point $-1 -48.745384075441756 -14.870550735576693 -4.0618649939768003 #
coedge $-1 $425 $424 $552 $636 reversed $411 $-1 #
edge $-1 $426 4.0618649939768003 $638 7.0618649939768003 $561 $642 forward 7 unknown #
point $-1 -48.745384075441756 -20.625930834912943 -4.0618649939768003 #
vertex $-1 $428 $643 #
straight-curve $-1 48.745384075441756 -20.625930834912943 0 0 0 -1 I I #
plane-surface $-1 48.745384075441756 0 0 -1 0 0 0 0 1 forward_v I I I I #
coedge $-1 $577 $434 $435 $574 reversed $296 $-1 #
coedge $-1 $434 $577 $579 $644 reversed $296 $-1 #
coedge $-1 $446 $436 $434 $573 reversed $447 $-1 #
edge $-1 $645 -1.5 $575 1.5 $572 $646 forward 7 unknown #
edge $-1 $582 -48.745384075441756 $575 48.745384075441756 $570 $647 forward 7 unknown #
vertex $-1 $437 $648 #
straight-curve $-1 48.745384075441756 23.156195747597508 4.0618649939768003 0 -1 0 I I #
coedge $-1 $571 $570 $438 $578 reversed $296 $-1 #
edge $-1 $580 -1.5 $582 1.5 $577 $649 forward 7 unknown #
coedge $-1 $439 $585 $571 $644 forward $432 $-1 #
vertex $-1 $644 $650 #
straight-curve $-1 -48.745384075441756 0 7.0618649939768003 0 -1 0 I I #
vertex $-1 $574 $651 #
straight-curve $-1 -48.745384075441756 23.156195747597508 4.0618649939768003 0 1 0 I I #
point $-1 -48.745384075441756 20.625930834912943 7.0618649939768003 #
coedge $-1 $579 $444 $446 $587 forward $432 $-1 #
straight-curve $-1 0 20.625930834912943 7.0618649939768003 1 0 0 I I #
edge $-1 $448 20.625930834912943 $645 25.686460660282073 $446 $652 forward 7 unknown #
point $-1 48.745384075441756 20.625930834912943 7.0618649939768003 #
coedge $-1 $463 $462 $455 $590 forward $452 $-1 #
edge $-1 $591 61.968834392108946 $594 68.506215887763787 $589 $653 forward 7 unknown #
vertex $-1 $467 $654 #
straight-curve $-1 29.181451915604764 -11.768464493590397 7.0618649939767977 1 0 0 I I #
edge $-1 $594 -8.0633796664947432 $464 0.65321001230343345 $463 $655 forward 7 unknown #
vertex $-1 $593 $656 #
straight-curve $-1 -15.214313683599123 -11.768464493590397 74.101701013130622 -0.65605901945558964 0 0.75470958851134928 I I #
point $-1 43.062525186228193 -11.768464493590397 7.0618649939767977 #
point $-1 48.745384075441756 -3.051874814792221 0.52448349832195618 #
straight-curve $-1 48.745384075441756 0 7.0618649939768003 0 1 0 I I #
vertex $-1 $470 $657 #
point $-1 44.887328751540686 -10.025146557830762 2.2469283851092299 #
vertex $-1 $474 $658 #
point $-1 44.887328751540686 -7.4101696541913107 2.2469283851092299 #
vertex $-1 $478 $659 #
point $-1 44.887328751540686 -4.795192750551859 2.2469283851092299 #
edge $-1 $606 35.289582952194799 $609 40.325411950762899 $483 $660 forward 7 unknown #
vertex $-1 $497 $661 #
straight-curve $-1 -50.20381044281509 -4.3080236440844031 7.0618649939767977 -1 0 0 I I #
edge $-1 $609 0.54367532822764897 $494 6.9850213034858584 $493 $662 forward 7 unknown #
vertex $-1 $608 $663 #
straight-curve $-1 -48.745384075441763 -4.3080236440844031 2.0260359954086908 0.84804809178421925 0 0.52991927123019833 I I #
point $-1 -40.686373194646393 -4.3080236440844031 7.0618649939768003 #
point $-1 -48.745384075441756 -10.749369619342612 2.0260359954086953 #
straight-curve $-1 -48.745384075441756 0 7.0618649939768003 0 -1 0 I I #
vertex $-1 $500 $664 #
point $-1 -43.657704546014713 -8.9089850549831251 3.794057938314598 #
vertex $-1 $504 $665 #
point $-1 -43.657704546014713 -6.1484082084438931 3.794057938314598 #
coedge $-1 $519 $518 $511 $619 forward $508 $-1 #
edge $-1 $620 35.289582952194799 $623 40.325411950762899 $618 $666 forward 7 unknown #
vertex $-1 $523 $667 #
straight-curve $-1 -50.20381044281509 10.909952228475849 7.0618649939767977 -1 0 0 I I #
edge $-1 $623 -7.0653126080524764 $520 -0.62396663279426701 $519 $668 forward 7 unknown #
vertex $-1 $622 $669 #
straight-curve $-1 -48.745384075441763 10.909952228475849 2.0260359954086908 0.84804809178421925 0 0.52991927123019833 I I #
point $-1 -40.686373194646393 10.909952228475849 7.0618649939768003 #
point $-1 -48.745384075441756 4.4686062532176392 2.0260359954086953 #
straight-curve $-1 -48.745384075441756 0 7.0618649939768003 0 -1 0 I I #
vertex $-1 $526 $670 #
point $-1 -43.657704546014713 6.3089908175771257 3.794057938314598 #
vertex $-1 $530 $671 #
point $-1 -43.657704546014713 9.0695676641163594 3.794057938314598 #
straight-curve $-1 -48.745384075441756 20.625930834912943 0 0 0 -1 I I #
point $-1 -48.745384075441756 -20.625930834912943 -7.0618649939768003 #
straight-curve $-1 -48.745384075441756 0 -7.0618649939768003 0 1 0 I I #
point $-1 -48.745384075441756 20.625930834912943 -7.0618649939768003 #
edge $-1 $567 -48.745384075441756 $638 48.745384075441756 $564 $672 forward 7 unknown #
straight-curve $-1 48.745384075441756 0 -7.0618649939768003 0 -1 0 I I #
vertex $-1 $555 $673 #
straight-curve $-1 -48.745384075441756 0 -7.0618649939768003 0 1 0 I I #
point $-1 -48.745384075441756 -14.870550735576693 -7.0618649939768003 #
straight-curve $-1 -48.745384075441756 -14.870550735576693 -2.7809324969884002 0 0 -1 I I #
straight-curve $-1 -48.745384075441756 -20.625930834912943 0 0 0 -1 I I #
point $-1 48.745384075441756 -20.625930834912943 -7.0618649939768003 #
edge $-1 $645 -48.745384075441756 $580 48.745384075441756 $571 $674 forward 7 unknown #
vertex $-1 $587 $675 #
straight-curve $-1 48.745384075441756 25.686460660282073 5.5618649939768003 0 0 -1 I I #
straight-curve $-1 0 25.686460660282073 4.0618649939768003 1 0 0 I I #
point $-1 48.745384075441756 25.686460660282073 4.0618649939768003 #
straight-curve $-1 -48.745384075441756 25.686460660282073 5.5618649939768003 0 0 -1 I I #
point $-1 -48.745384075441756 25.686460660282073 7.0618649939768003 #
point $-1 -48.745384075441756 25.686460660282073 4.0618649939768003 #
straight-curve $-1 48.745384075441756 0 7.0618649939768003 0 1 0 I I #
straight-curve $-1 48.745384075441756 -11.768464493590397 69.030699386085743 0 0 -1 I I #
point $-1 48.745384075441756 -11.768464493590397 7.0618649939768003 #
straight-curve $-1 48.745384075441763 -3.7050848270956545 0.52448349832195618 0 1 0 I I #
point $-1 48.745384075441756 -11.768464493590397 0.52448349832195618 #
point $-1 44.181944447557214 -10.025146557830762 2.2962536696371094 #
point $-1 44.181944447557214 -7.4101696541913107 2.2962536696371094 #
point $-1 44.181944447557214 -4.795192750551859 2.2962536696371094 #
straight-curve $-1 -48.745384075441756 -4.3080236440844031 42.351447946171596 0 0 -1 I I #
point $-1 -48.745384075441756 -4.3080236440844031 7.0618649939768003 #
straight-curve $-1 -48.745384075441756 -3.7643483158567541 2.0260359954086953 0 -1 0 I I #
point $-1 -48.745384075441756 -4.3080236440844031 2.0260359954086953 #
point $-1 -43.816768956291725 -8.9089850549831251 3.1050742568073892 #
point $-1 -43.816768956291725 -6.1484082084438931 3.1050742568073892 #
straight-curve $-1 -48.745384075441756 10.909952228475849 42.351447946171596 0 0 -1 I I #
point $-1 -48.745384075441756 10.909952228475849 7.0618649939768003 #
straight-curve $-1 -48.745384075441756 3.8446396204233722 2.0260359954086953 0 -1 0 I I #
point $-1 -48.745384075441756 10.909952228475849 2.0260359954086953 #
point $-1 -43.816768956291725 6.3089908175771257 3.1050742568073892 #
point $-1 -43.816768956291725 9.0695676641163594 3.1050742568073892 #
straight-curve $-1 0 -20.625930834912943 -7.0618649939768003 -1 0 0 I I #
point $-1 -48.745384075441756 -20.625930834912943 -7.0618649939768003 #
straight-curve $-1 0 25.686460660282073 7.0618649939768003 -1 0 0 I I #
point $-1 48.745384075441756 25.686460660282073 7.0618649939768003 #
End-of-ACIS-data 