500 0 17 0           
7 Unknown 11 ACIS 5.0 NT 24 Fri Mar 26 17:39:57 1999 
-1 9.9999999999999995e-007 1e-010 
body $-1 $17 $-1 $18 #
body $-1 $19 $-1 $20 #
body $-1 $21 $-1 $22 #
body $-1 $23 $-1 $24 #
body $-1 $25 $-1 $26 #
body $-1 $27 $-1 $28 #
body $-1 $29 $-1 $30 #
body $-1 $31 $-1 $32 #
body $-1 $33 $-1 $34 #
body $-1 $35 $-1 $36 #
body $-1 $37 $-1 $38 #
body $-1 $39 $-1 $40 #
body $-1 $41 $-1 $42 #
body $-1 $43 $-1 $44 #
body $-1 $45 $-1 $46 #
body $-1 $47 $-1 $48 #
body $-1 $49 $-1 $50 #
lump $-1 $-1 $51 $0 #
transform $-1 1 0 0 0 1 0 0 0 1 73.506881923886837 33.633879512822141 9.1314540706813894 1 rotate no_reflect no_shear #
lump $-1 $-1 $52 $1 #
transform $-1 1 0 0 0 1 0 0 0 1 73.506881923886837 33.633879512822141 9.1314540706813894 1 rotate no_reflect no_shear #
lump $-1 $-1 $53 $2 #
transform $-1 1 0 0 0 1 0 0 0 1 73.506881923886837 33.633879512822141 9.1314540706813894 1 rotate no_reflect no_shear #
lump $-1 $-1 $54 $3 #
transform $-1 1 0 0 0 1 0 0 0 1 73.506881923886837 33.633879512822141 9.1314540706813894 1 rotate no_reflect no_shear #
lump $-1 $-1 $55 $4 #
transform $-1 1 0 0 0 1 0 0 0 1 73.506881923886837 33.633879512822141 9.1314540706813894 1 rotate no_reflect no_shear #
lump $-1 $-1 $56 $5 #
transform $-1 1 0 0 0 1 0 0 0 1 73.506881923886837 33.633879512822141 9.1314540706813894 1 rotate no_reflect no_shear #
lump $-1 $-1 $57 $6 #
transform $-1 1 0 0 0 1 0 0 0 1 73.506881923886837 33.633879512822141 9.1314540706813894 1 rotate no_reflect no_shear #
lump $-1 $-1 $58 $7 #
transform $-1 1 0 0 0 1 0 0 0 1 73.506881923886837 33.633879512822141 9.1314540706813894 1 rotate no_reflect no_shear #
lump $-1 $-1 $59 $8 #
transform $-1 1 0 0 0 1 0 0 0 1 73.506881923886837 33.633879512822141 9.1314540706813894 1 rotate no_reflect no_shear #
lump $-1 $-1 $60 $9 #
transform $-1 1 0 0 0 1 0 0 0 1 73.506881923886837 33.633879512822141 9.1314540706813894 1 rotate no_reflect no_shear #
lump $-1 $-1 $61 $10 #
transform $-1 1 0 0 0 1 0 0 0 1 73.506881923886837 33.633879512822141 9.1314540706813894 1 rotate no_reflect no_shear #
lump $-1 $-1 $62 $11 #
transform $-1 1 0 0 0 1 0 0 0 1 73.506881923886837 33.633879512822141 9.1314540706813894 1 rotate no_reflect no_shear #
lump $-1 $-1 $63 $12 #
transform $-1 1 0 0 0 1 0 0 0 1 73.506881923886837 33.633879512822141 9.1314540706813894 1 rotate no_reflect no_shear #
lump $-1 $-1 $64 $13 #
transform $-1 1 0 0 0 1 0 0 0 1 73.506881923886837 33.633879512822141 9.1314540706813894 1 rotate no_reflect no_shear #
lump $-1 $-1 $65 $14 #
transform $-1 1 0 0 0 1 0 0 0 1 73.506881923886837 33.633879512822141 9.1314540706813894 1 rotate no_reflect no_shear #
lump $-1 $-1 $66 $15 #
transform $-1 1 0 0 0 1 0 0 0 1 73.506881923886837 33.633879512822141 9.1314540706813894 1 rotate no_reflect no_shear #
lump $-1 $-1 $67 $16 #
transform $-1 1 0 0 0 1 0 0 0 1 73.506881923886837 33.633879512822141 9.1314540706813894 1 rotate no_reflect no_shear #
shell $-1 $-1 $-1 $68 $-1 $17 #
shell $-1 $-1 $-1 $69 $-1 $19 #
shell $-1 $-1 $-1 $70 $-1 $21 #
shell $-1 $-1 $-1 $71 $-1 $23 #
shell $-1 $-1 $-1 $72 $-1 $25 #
shell $-1 $-1 $-1 $73 $-1 $27 #
shell $-1 $-1 $-1 $74 $-1 $29 #
shell $-1 $-1 $-1 $75 $-1 $31 #
shell $-1 $-1 $-1 $76 $-1 $33 #
shell $-1 $-1 $-1 $77 $-1 $35 #
shell $-1 $-1 $-1 $78 $-1 $37 #
shell $-1 $-1 $-1 $79 $-1 $39 #
shell $-1 $-1 $-1 $80 $-1 $41 #
shell $-1 $-1 $-1 $81 $-1 $43 #
shell $-1 $-1 $-1 $82 $-1 $45 #
shell $-1 $-1 $-1 $83 $-1 $47 #
shell $-1 $-1 $-1 $84 $-1 $49 #
face $-1 $85 $86 $51 $-1 $87 forward single #
face $-1 $88 $89 $52 $-1 $90 forward single #
face $-1 $91 $92 $53 $-1 $93 forward single #
face $-1 $94 $95 $54 $-1 $96 reversed single #
face $-1 $97 $98 $55 $-1 $99 forward single #
face $-1 $100 $101 $56 $-1 $102 forward single #
face $-1 $103 $104 $57 $-1 $105 reversed single #
face $-1 $106 $107 $58 $-1 $108 forward single #
face $-1 $109 $110 $59 $-1 $111 forward single #
face $-1 $112 $113 $60 $-1 $114 reversed single #
face $-1 $115 $116 $61 $-1 $117 forward single #
face $-1 $118 $119 $62 $-1 $120 forward single #
face $-1 $121 $122 $63 $-1 $123 reversed single #
face $-1 $124 $125 $64 $-1 $126 forward single #
face $-1 $127 $128 $65 $-1 $129 forward single #
face $-1 $130 $131 $66 $-1 $132 reversed single #
face $-1 $133 $134 $67 $-1 $135 forward single #
face $-1 $136 $137 $51 $-1 $138 reversed single #
loop $-1 $-1 $139 $68 #
plane-surface $-1 0 0 9.1314540706813894 0 0 1 1 0 0 forward_v I I I I #
face $-1 $140 $141 $52 $-1 $142 reversed single #
loop $-1 $-1 $143 $69 #
plane-surface $-1 -70.374592807896832 0 6.0972283027599214 0 0 1 1 0 0 forward_v I I I I #
face $-1 $144 $145 $53 $-1 $146 reversed single #
loop $-1 $-1 $147 $70 #
plane-surface $-1 73.506881923886837 0 0 -1 0 0 0 0 1 forward_v I I I I #
face $-1 $148 $149 $54 $-1 $150 reversed single #
loop $-1 $-1 $151 $71 #
plane-surface $-1 -64.471223170032786 -162.21501571580791 72.017124039685839 1 0 0 0 0.87461971476443456 -0.48480960649040278 forward_v I I I I #
face $-1 $152 $153 $55 $-1 $154 forward single #
loop $-1 $155 $156 $72 #
cone-surface $-1 -58.252925457801787 -27.825198293542343 3.0062865633129907 0 0.87461971476443456 -0.48480960649040278 2 0 0 1 I I 0 1 2 forward I I I I #
face $-1 $157 $158 $56 $-1 $159 forward single #
loop $-1 $160 $161 $73 #
cone-surface $-1 -48.925478889455277 -27.825198293542343 3.0062865633129907 0 0.87461971476443456 -0.48480960649040278 2 0 0 1 I I 0 1 2 forward I I I I #
face $-1 $162 $163 $57 $-1 $164 reversed single #
loop $-1 $-1 $165 $74 #
plane-surface $-1 -30.833701756767397 -162.21501571580791 72.017124039685839 1 0 0 0 0.87461971476443456 -0.48480960649040278 forward_v I I I I #
face $-1 $166 $167 $58 $-1 $168 forward single #
loop $-1 $169 $170 $75 #
cone-surface $-1 -24.61540404453639 -27.825198293542343 3.0062865633129907 0 0.87461971476443456 -0.48480960649040278 2 0 0 1 I I 0 1 2 forward I I I I #
face $-1 $171 $172 $59 $-1 $173 forward single #
loop $-1 $174 $175 $76 #
cone-surface $-1 -15.287957476189881 -27.825198293542343 3.0062865633129907 0 0.87461971476443456 -0.48480960649040278 2 0 0 1 I I 0 1 2 forward I I I I #
face $-1 $176 $177 $60 $-1 $178 reversed single #
loop $-1 $-1 $179 $77 #
plane-surface $-1 2.8038196564979945 -162.21501571580791 72.017124039685839 1 0 0 0 0.87461971476443456 -0.48480960649040278 forward_v I I I I #
face $-1 $180 $181 $61 $-1 $182 forward single #
loop $-1 $183 $184 $78 #
cone-surface $-1 9.0221173687290133 -27.825198293542343 3.0062865633129907 0 0.87461971476443456 -0.48480960649040278 2 0 0 1 I I 0 1 2 forward I I I I #
face $-1 $185 $186 $62 $-1 $187 forward single #
loop $-1 $188 $189 $79 #
cone-surface $-1 18.349563937075516 -27.825198293542343 3.0062865633129907 0 0.87461971476443456 -0.48480960649040278 2 0 0 1 I I 0 1 2 forward I I I I #
face $-1 $190 $191 $63 $-1 $192 reversed single #
loop $-1 $-1 $193 $80 #
plane-surface $-1 36.441341069763396 -162.21501571580791 72.017124039685839 1 0 0 0 0.87461971476443456 -0.48480960649040278 forward_v I I I I #
face $-1 $194 $195 $64 $-1 $196 forward single #
loop $-1 $197 $198 $81 #
cone-surface $-1 42.659638781994417 -27.825198293542343 3.0062865633129907 0 0.87461971476443456 -0.48480960649040278 2 0 0 1 I I 0 1 2 forward I I I I #
face $-1 $199 $200 $65 $-1 $201 forward single #
loop $-1 $202 $203 $82 #
cone-surface $-1 51.987085350340905 -27.825198293542343 3.0062865633129907 0 0.87461971476443456 -0.48480960649040278 2 0 0 1 I I 0 1 2 forward I I I I #
face $-1 $204 $205 $66 $-1 $206 reversed single #
loop $-1 $-1 $207 $83 #
plane-surface $-1 -53.064591947336794 90.022822053102658 153.1097128940026 -1 0 0 0 0.70710678939079041 0.70710677298230451 forward_v I I I I #
face $-1 $208 $209 $67 $-1 $210 forward single #
loop $-1 $211 $212 $84 #
cone-surface $-1 -60.153447819621803 28.365517024424239 3.8630915295314132 0 -0.70710678939079041 -0.70710677298230451 2.5 0 0 1 I I 0 1 2.5 forward I I I I #
face $-1 $213 $214 $51 $-1 $215 reversed single #
loop $-1 $-1 $216 $85 #
plane-surface $-1 0 0 -9.1314540706813894 0 0 1 1 0 0 forward_v I I I I #
coedge $-1 $217 $218 $219 $220 forward $86 $-1 #
face $-1 $221 $222 $52 $-1 $223 reversed single #
loop $-1 $-1 $224 $88 #
plane-surface $-1 -70.374592807896832 0 0.90762400590506864 0 0 1 1 0 0 forward_v I I I I #
coedge $-1 $225 $226 $227 $228 forward $89 $-1 #
face $-1 $229 $230 $53 $-1 $231 forward single #
loop $-1 $-1 $232 $91 #
plane-surface $-1 0 33.633879512822141 0 0 -1 0 0 0 -1 forward_v I I I I #
coedge $-1 $233 $234 $235 $236 forward $92 $-1 #
face $-1 $237 $238 $54 $-1 $239 reversed single #
loop $-1 $-1 $240 $94 #
plane-surface $-1 -53.589202173628529 -33.633879512822148 0.74343903997367988 0 -0.87461971476443456 0.48480960649040278 1 0 0 forward_v I I I I #
coedge $-1 $241 $242 $243 $244 reversed $95 $-1 #
face $-1 $-1 $245 $55 $-1 $246 forward single #
loop $-1 $247 $248 $97 #
cone-surface $-1 -58.252925457801787 -23.46667360088907 0.59031696480804996 0 0.87461971476443456 -0.48480960649040278 1 0 0 1 I I -0.70710678118654735 0.70710678118654768 1 forward I I I I #
loop $-1 $-1 $249 $72 #
coedge $-1 $156 $156 $250 $251 reversed $98 $-1 #
face $-1 $-1 $252 $56 $-1 $253 forward single #
loop $-1 $254 $255 $100 #
cone-surface $-1 -48.925478889455277 -23.46667360088907 0.59031696480804996 0 0.87461971476443456 -0.48480960649040278 1 0 0 1 I I -0.70710678118654735 0.70710678118654768 1 forward I I I I #
loop $-1 $-1 $256 $73 #
coedge $-1 $161 $161 $257 $258 reversed $101 $-1 #
face $-1 $259 $260 $57 $-1 $261 reversed single #
loop $-1 $-1 $262 $103 #
plane-surface $-1 -19.951680760363132 -33.633879512822148 0.74343903997367988 0 -0.87461971476443456 0.48480960649040278 1 0 0 forward_v I I I I #
coedge $-1 $263 $264 $265 $266 reversed $104 $-1 #
face $-1 $-1 $267 $58 $-1 $268 forward single #
loop $-1 $269 $270 $106 #
cone-surface $-1 -24.61540404453639 -23.46667360088907 0.59031696480804996 0 0.87461971476443456 -0.48480960649040278 1 0 0 1 I I -0.70710678118654735 0.70710678118654768 1 forward I I I I #
loop $-1 $-1 $271 $75 #
coedge $-1 $170 $170 $272 $273 reversed $107 $-1 #
face $-1 $-1 $274 $59 $-1 $275 forward single #
loop $-1 $276 $277 $109 #
cone-surface $-1 -15.287957476189881 -23.46667360088907 0.59031696480804996 0 0.87461971476443456 -0.48480960649040278 1 0 0 1 I I -0.70710678118654735 0.70710678118654768 1 forward I I I I #
loop $-1 $-1 $278 $76 #
coedge $-1 $175 $175 $279 $280 reversed $110 $-1 #
face $-1 $281 $282 $60 $-1 $283 reversed single #
loop $-1 $-1 $284 $112 #
plane-surface $-1 13.685840652902257 -33.633879512822148 0.74343903997367988 0 -0.87461971476443456 0.48480960649040278 1 0 0 forward_v I I I I #
coedge $-1 $285 $286 $287 $288 reversed $113 $-1 #
face $-1 $-1 $289 $61 $-1 $290 forward single #
loop $-1 $291 $292 $115 #
cone-surface $-1 9.0221173687290133 -23.46667360088907 0.59031696480804996 0 0.87461971476443456 -0.48480960649040278 1 0 0 1 I I -0.70710678118654735 0.70710678118654768 1 forward I I I I #
loop $-1 $-1 $293 $78 #
coedge $-1 $184 $184 $294 $295 reversed $116 $-1 #
face $-1 $-1 $296 $62 $-1 $297 forward single #
loop $-1 $298 $299 $118 #
cone-surface $-1 18.349563937075516 -23.46667360088907 0.59031696480804996 0 0.87461971476443456 -0.48480960649040278 1 0 0 1 I I -0.70710678118654735 0.70710678118654768 1 forward I I I I #
loop $-1 $-1 $300 $79 #
coedge $-1 $189 $189 $301 $302 reversed $119 $-1 #
face $-1 $303 $304 $63 $-1 $305 reversed single #
loop $-1 $-1 $306 $121 #
plane-surface $-1 47.323362066167661 -33.633879512822148 0.74343903997367988 0 -0.87461971476443456 0.48480960649040278 1 0 0 forward_v I I I I #
coedge $-1 $307 $308 $309 $310 reversed $122 $-1 #
face $-1 $-1 $311 $64 $-1 $312 forward single #
loop $-1 $313 $314 $124 #
cone-surface $-1 42.659638781994417 -23.46667360088907 0.59031696480804996 0 0.87461971476443456 -0.48480960649040278 1 0 0 1 I I -0.70710678118654735 0.70710678118654768 1 forward I I I I #
loop $-1 $-1 $315 $81 #
coedge $-1 $198 $198 $316 $317 reversed $125 $-1 #
face $-1 $-1 $318 $65 $-1 $319 forward single #
loop $-1 $320 $321 $127 #
cone-surface $-1 51.987085350340905 -23.46667360088907 0.59031696480804996 0 0.87461971476443456 -0.48480960649040278 1 0 0 1 I I -0.70710678118654735 0.70710678118654768 1 forward I I I I #
loop $-1 $-1 $322 $82 #
coedge $-1 $203 $203 $323 $324 reversed $128 $-1 #
face $-1 $325 $326 $66 $-1 $327 forward single #
loop $-1 $-1 $328 $130 #
plane-surface $-1 -60.153447819621803 -13.931608497552446 49.155284755620769 0 0.70710678939079041 0.70710677298230451 1 0 0 forward_v I I I I #
coedge $-1 $329 $330 $331 $332 reversed $131 $-1 #
face $-1 $-1 $333 $67 $-1 $334 forward single #
loop $-1 $335 $336 $133 #
cone-surface $-1 -60.153447819621803 25.984100176384018 1.4816747367522147 0 -0.70710678939079041 -0.70710677298230451 1.25 0 0 1 I I -0.70710678118654746 0.70710678118654746 1.25 forward I I I I #
loop $-1 $-1 $337 $84 #
coedge $-1 $212 $212 $338 $339 reversed $134 $-1 #
face $-1 $340 $341 $51 $-1 $342 reversed single #
loop $-1 $-1 $343 $136 #
plane-surface $-1 0 -33.633879512822141 0 0 1 0 0 0 1 forward_v I I I I #
coedge $-1 $344 $345 $346 $347 forward $137 $-1 #
coedge $-1 $348 $139 $349 $350 forward $86 $-1 #
coedge $-1 $139 $348 $351 $352 forward $86 $-1 #
coedge $-1 $353 $354 $139 $220 reversed $355 $-1 #
edge $-1 $356 -33.633879512822141 $357 33.633879512822141 $219 $358 forward 7 unknown #
face $-1 $359 $360 $52 $-1 $361 reversed single #
loop $-1 $-1 $362 $140 #
plane-surface $-1 -67.242303691906827 0 3.502426154332495 -1 0 0 0 0 1 forward_v I I I I #
coedge $-1 $363 $364 $365 $366 forward $141 $-1 #
coedge $-1 $367 $143 $368 $369 reversed $89 $-1 #
coedge $-1 $143 $367 $370 $371 reversed $89 $-1 #
coedge $-1 $362 $372 $143 $228 reversed $222 $-1 #
edge $-1 $373 -33.633879512822141 $374 33.633879512822141 $227 $375 forward 7 unknown #
face $-1 $376 $377 $53 $-1 $378 reversed single #
loop $-1 $-1 $379 $144 #
plane-surface $-1 76.606431905252876 0 7.1363512554342998 0 0 1 1 0 0 forward_v I I I I #
coedge $-1 $380 $381 $234 $382 forward $145 $-1 #
coedge $-1 $383 $147 $384 $385 reversed $92 $-1 #
coedge $-1 $147 $383 $232 $382 reversed $92 $-1 #
coedge $-1 $386 $387 $147 $236 reversed $377 $-1 #
edge $-1 $388 -33.633879512822141 $389 33.633879512822141 $235 $390 forward 7 unknown #
face $-1 $391 $392 $54 $-1 $393 forward single #
loop $-1 $-1 $394 $148 #
plane-surface $-1 -42.707181177224264 -162.21501571580791 72.017124039685839 -1 0 0 0 -0.87461971476443456 0.48480960649040278 forward_v I I I I #
coedge $-1 $395 $396 $397 $398 reversed $149 $-1 #
coedge $-1 $242 $151 $399 $400 reversed $95 $-1 #
coedge $-1 $151 $241 $395 $401 reversed $95 $-1 #
coedge $-1 $397 $402 $151 $244 forward $403 $-1 #
edge $-1 $404 26.87710794916153 $405 35.265122979869226 $243 $406 forward 7 unknown #
loop $-1 $-1 $250 $152 #
plane-surface $-1 -53.589202173628529 -33.633879512822148 0.74343903997367988 0 -0.87461971476443456 0.48480960649040278 1 0 0 forward_v I I I I #
loop $-1 $-1 $407 $97 #
coedge $-1 $248 $248 $249 $408 reversed $153 $-1 #
coedge $-1 $249 $249 $248 $408 forward $155 $-1 #
coedge $-1 $250 $250 $156 $251 forward $245 $-1 #
edge $-1 $409 2.5312951259436396e-016 $409 6.2831853071796004 $250 $410 forward 7 unknown #
loop $-1 $-1 $257 $157 #
plane-surface $-1 -53.589202173628529 -33.633879512822148 0.74343903997367988 0 -0.87461971476443456 0.48480960649040278 1 0 0 forward_v I I I I #
loop $-1 $-1 $411 $100 #
coedge $-1 $255 $255 $256 $412 reversed $158 $-1 #
coedge $-1 $256 $256 $255 $412 forward $160 $-1 #
coedge $-1 $257 $257 $161 $258 forward $252 $-1 #
edge $-1 $413 2.5312951259436396e-016 $413 6.2831853071796004 $257 $414 forward 7 unknown #
face $-1 $415 $416 $57 $-1 $417 reversed single #
loop $-1 $-1 $418 $162 #
plane-surface $-1 -9.0696597639588692 -162.21501571580791 72.017124039685839 -1 0 0 0 -0.87461971476443456 0.48480960649040278 forward_v I I I I #
coedge $-1 $419 $420 $421 $422 reversed $163 $-1 #
coedge $-1 $264 $165 $423 $424 reversed $104 $-1 #
coedge $-1 $165 $263 $419 $425 reversed $104 $-1 #
coedge $-1 $421 $426 $165 $266 forward $416 $-1 #
edge $-1 $427 26.87710794916153 $428 35.265122979869226 $265 $429 forward 7 unknown #
loop $-1 $-1 $272 $166 #
plane-surface $-1 -19.951680760363132 -33.633879512822148 0.74343903997367988 0 -0.87461971476443456 0.48480960649040278 1 0 0 forward_v I I I I #
loop $-1 $-1 $430 $106 #
coedge $-1 $270 $270 $271 $431 reversed $167 $-1 #
coedge $-1 $271 $271 $270 $431 forward $169 $-1 #
coedge $-1 $272 $272 $170 $273 forward $267 $-1 #
edge $-1 $432 2.5312951259436396e-016 $432 6.2831853071796004 $272 $433 forward 7 unknown #
loop $-1 $-1 $279 $171 #
plane-surface $-1 -19.951680760363132 -33.633879512822148 0.74343903997367988 0 -0.87461971476443456 0.48480960649040278 1 0 0 forward_v I I I I #
loop $-1 $-1 $434 $109 #
coedge $-1 $277 $277 $278 $435 reversed $172 $-1 #
coedge $-1 $278 $278 $277 $435 forward $174 $-1 #
coedge $-1 $279 $279 $175 $280 forward $274 $-1 #
edge $-1 $436 2.5312951259436396e-016 $436 6.2831853071796004 $279 $437 forward 7 unknown #
face $-1 $438 $439 $60 $-1 $440 reversed single #
loop $-1 $-1 $441 $176 #
plane-surface $-1 24.567861649306522 -162.21501571580791 72.017124039685839 -1 0 0 0 -0.87461971476443456 0.48480960649040278 forward_v I I I I #
coedge $-1 $442 $443 $444 $445 reversed $177 $-1 #
coedge $-1 $286 $179 $446 $447 reversed $113 $-1 #
coedge $-1 $179 $285 $442 $448 reversed $113 $-1 #
coedge $-1 $444 $449 $179 $288 forward $439 $-1 #
edge $-1 $450 26.87710794916153 $451 35.265122979869226 $287 $452 forward 7 unknown #
loop $-1 $-1 $294 $180 #
plane-surface $-1 13.685840652902257 -33.633879512822148 0.74343903997367988 0 -0.87461971476443456 0.48480960649040278 1 0 0 forward_v I I I I #
loop $-1 $-1 $453 $115 #
coedge $-1 $292 $292 $293 $454 reversed $181 $-1 #
coedge $-1 $293 $293 $292 $454 forward $183 $-1 #
coedge $-1 $294 $294 $184 $295 forward $289 $-1 #
edge $-1 $455 2.5312951259436396e-016 $455 6.2831853071796004 $294 $456 forward 7 unknown #
loop $-1 $-1 $301 $185 #
plane-surface $-1 13.685840652902257 -33.633879512822148 0.74343903997367988 0 -0.87461971476443456 0.48480960649040278 1 0 0 forward_v I I I I #
loop $-1 $-1 $457 $118 #
coedge $-1 $299 $299 $300 $458 reversed $186 $-1 #
coedge $-1 $300 $300 $299 $458 forward $188 $-1 #
coedge $-1 $301 $301 $189 $302 forward $296 $-1 #
edge $-1 $459 2.5312951259436396e-016 $459 6.2831853071796004 $301 $460 forward 7 unknown #
face $-1 $461 $462 $63 $-1 $463 reversed single #
loop $-1 $-1 $464 $190 #
plane-surface $-1 58.205383062571926 -162.21501571580791 72.017124039685839 -1 0 0 0 -0.87461971476443456 0.48480960649040278 forward_v I I I I #
coedge $-1 $465 $466 $467 $468 reversed $191 $-1 #
coedge $-1 $308 $193 $469 $470 reversed $122 $-1 #
coedge $-1 $193 $307 $465 $471 reversed $122 $-1 #
coedge $-1 $467 $472 $193 $310 forward $462 $-1 #
edge $-1 $473 26.87710794916153 $474 35.265122979869226 $309 $475 forward 7 unknown #
loop $-1 $-1 $316 $194 #
plane-surface $-1 47.323362066167661 -33.633879512822148 0.74343903997367988 0 -0.87461971476443456 0.48480960649040278 1 0 0 forward_v I I I I #
loop $-1 $-1 $476 $124 #
coedge $-1 $314 $314 $315 $477 reversed $195 $-1 #
coedge $-1 $315 $315 $314 $477 forward $197 $-1 #
coedge $-1 $316 $316 $198 $317 forward $311 $-1 #
edge $-1 $478 2.5312951259436396e-016 $478 6.2831853071796004 $316 $479 forward 7 unknown #
loop $-1 $-1 $323 $199 #
plane-surface $-1 47.323362066167661 -33.633879512822148 0.74343903997367988 0 -0.87461971476443456 0.48480960649040278 1 0 0 forward_v I I I I #
loop $-1 $-1 $480 $127 #
coedge $-1 $321 $321 $322 $481 reversed $200 $-1 #
coedge $-1 $322 $322 $321 $481 forward $202 $-1 #
coedge $-1 $323 $323 $203 $324 forward $318 $-1 #
edge $-1 $482 2.5312951259436396e-016 $482 6.2831853071796004 $323 $483 forward 7 unknown #
face $-1 $484 $485 $66 $-1 $486 forward single #
loop $-1 $-1 $487 $204 #
plane-surface $-1 0 0 9.1314540706813894 0 0 1 1 0 0 forward_v I I I I #
coedge $-1 $488 $489 $490 $491 reversed $205 $-1 #
coedge $-1 $330 $207 $492 $493 reversed $131 $-1 #
coedge $-1 $207 $329 $488 $494 reversed $131 $-1 #
coedge $-1 $490 $495 $207 $332 forward $496 $-1 #
edge $-1 $497 67.423402376319913 $498 74.965060805517197 $331 $499 forward 7 unknown #
loop $-1 $-1 $338 $208 #
plane-surface $-1 -60.153447819621803 -13.931608497552446 49.155284755620769 0 0.70710678939079041 0.70710677298230451 1 0 0 forward_v I I I I #
loop $-1 $-1 $500 $133 #
coedge $-1 $336 $336 $337 $501 reversed $209 $-1 #
coedge $-1 $337 $337 $336 $501 forward $211 $-1 #
coedge $-1 $338 $338 $212 $339 forward $333 $-1 #
edge $-1 $502 7.5364445886599247e-016 $502 6.2831853071796013 $338 $503 forward 7 unknown #
face $-1 $504 $505 $51 $-1 $506 reversed single #
loop $-1 $-1 $507 $213 #
plane-surface $-1 -73.506881923886837 0 0 1 0 0 0 0 -1 forward_v I I I I #
coedge $-1 $508 $351 $509 $510 forward $214 $-1 #
coedge $-1 $511 $216 $508 $512 forward $137 $-1 #
coedge $-1 $216 $511 $513 $514 forward $137 $-1 #
coedge $-1 $354 $353 $216 $347 reversed $355 $-1 #
edge $-1 $515 -33.633879512822141 $516 33.633879512822141 $346 $517 forward 7 unknown #
coedge $-1 $218 $217 $518 $519 forward $86 $-1 #
coedge $-1 $520 $521 $217 $350 reversed $505 $-1 #
edge $-1 $357 -73.506881923886837 $522 73.506881923886837 $349 $523 forward 7 unknown #
coedge $-1 $343 $524 $218 $352 reversed $214 $-1 #
edge $-1 $525 -73.506881923886837 $356 73.506881923886837 $351 $526 forward 7 unknown #
coedge $-1 $346 $219 $524 $527 forward $355 $-1 #
coedge $-1 $219 $346 $520 $528 reversed $355 $-1 #
loop $-1 $-1 $353 $504 #
vertex $-1 $220 $529 #
vertex $-1 $220 $530 #
straight-curve $-1 73.506881923886837 0 9.1314540706813894 0 1 0 I I #
face $-1 $531 $532 $52 $-1 $533 reversed single #
loop $-1 $-1 $534 $221 #
plane-surface $-1 0 -33.633879512822141 0 0 1 0 0 0 1 forward_v I I I I #
coedge $-1 $365 $227 $535 $536 reversed $222 $-1 #
coedge $-1 $537 $224 $534 $538 reversed $141 $-1 #
coedge $-1 $224 $537 $539 $540 reversed $141 $-1 #
coedge $-1 $372 $362 $224 $366 reversed $222 $-1 #
edge $-1 $541 -33.633879512822141 $542 33.633879512822141 $365 $543 forward 7 unknown #
coedge $-1 $226 $225 $544 $545 reversed $89 $-1 #
coedge $-1 $546 $547 $225 $369 forward $548 $-1 #
edge $-1 $549 -38.319585519938421 $374 -32.055007287958411 $368 $550 forward 7 unknown #
coedge $-1 $551 $535 $226 $371 forward $360 $-1 #
edge $-1 $373 32.055007287958411 $552 38.319585519938421 $370 $553 forward 7 unknown #
coedge $-1 $227 $365 $546 $554 reversed $222 $-1 #
vertex $-1 $371 $555 #
vertex $-1 $369 $556 #
straight-curve $-1 -67.242303691906827 0 6.0972283027599214 0 1 0 I I #
face $-1 $557 $558 $53 $-1 $559 reversed single #
loop $-1 $-1 $560 $229 #
plane-surface $-1 76.606431905252876 0 1.8521077849473349 0 0 1 1 0 0 forward_v I I I I #
coedge $-1 $561 $562 $563 $564 forward $230 $-1 #
coedge $-1 $565 $232 $561 $566 reversed $145 $-1 #
coedge $-1 $232 $565 $386 $567 reversed $145 $-1 #
edge $-1 $388 1.8521077849473349 $568 7.1363512554342998 $232 $569 forward 7 unknown #
coedge $-1 $234 $233 $570 $571 forward $92 $-1 #
coedge $-1 $572 $573 $233 $385 forward $574 $-1 #
edge $-1 $575 -7.1363512554342998 $389 -1.8521077849473349 $384 $576 forward 7 unknown #
coedge $-1 $560 $235 $381 $567 forward $377 $-1 #
coedge $-1 $235 $560 $572 $577 forward $377 $-1 #
vertex $-1 $382 $578 #
vertex $-1 $385 $579 #
straight-curve $-1 73.506881923886837 0 1.8521077849473349 0 -1 0 I I #
face $-1 $-1 $403 $54 $-1 $580 reversed single #
loop $-1 $-1 $581 $237 #
plane-surface $-1 0 0 9.1314540706813894 0 0 1 1 0 0 forward_v I I I I #
coedge $-1 $582 $583 $584 $585 reversed $238 $-1 #
coedge $-1 $586 $240 $242 $401 forward $149 $-1 #
coedge $-1 $240 $586 $582 $587 forward $149 $-1 #
coedge $-1 $584 $243 $240 $398 forward $403 $-1 #
edge $-1 $405 -37.676622083218518 $588 -15.91258009041 $397 $589 forward 7 unknown #
coedge $-1 $590 $591 $241 $400 forward $392 $-1 #
edge $-1 $592 -52.12318082786372 $404 -47.473628345081814 $399 $593 forward 7 unknown #
edge $-1 $405 1.4611543310094151e-014 $592 9.590471023131343 $242 $594 forward 7 unknown #
coedge $-1 $243 $584 $590 $595 reversed $403 $-1 #
loop $-1 $-1 $584 $391 #
vertex $-1 $595 $596 #
vertex $-1 $244 $597 #
straight-curve $-1 -64.471223170032786 -33.633879512822148 36.00856201984292 0 0 -1 I I #
coedge $-1 $407 $407 $-1 $598 reversed $247 $-1 #
edge $-1 $599 0 $599 6.2831853071796004 $248 $600 forward 7 unknown #
vertex $-1 $251 $601 #
ellipse-curve $-1 -58.252925457801787 -31.309103271431191 4.9374465553275337 0 -0.87461971476443456 0.48480960649040278 2 0 0 1 I I #
coedge $-1 $411 $411 $-1 $602 reversed $254 $-1 #
edge $-1 $603 0 $603 6.2831853071796004 $255 $604 forward 7 unknown #
vertex $-1 $258 $605 #
ellipse-curve $-1 -48.925478889455277 -31.309103271431191 4.9374465553275337 0 -0.87461971476443456 0.48480960649040278 2 0 0 1 I I #
face $-1 $-1 $606 $57 $-1 $607 forward single #
loop $-1 $-1 $265 $259 #
plane-surface $-1 0 -33.633879512822141 0 0 1 0 0 0 1 forward_v I I I I #
coedge $-1 $608 $609 $610 $611 reversed $260 $-1 #
coedge $-1 $612 $262 $264 $425 forward $163 $-1 #
coedge $-1 $262 $612 $608 $613 forward $163 $-1 #
coedge $-1 $610 $265 $262 $422 forward $416 $-1 #
edge $-1 $428 -20.857861376585831 $614 0.90618061622269686 $421 $615 forward 7 unknown #
coedge $-1 $616 $617 $263 $424 forward $606 $-1 #
edge $-1 $618 -52.12318082786372 $427 -47.473628345081814 $423 $619 forward 7 unknown #
edge $-1 $428 1.4611543310094151e-014 $618 9.590471023131343 $264 $620 forward 7 unknown #
coedge $-1 $265 $610 $616 $621 reversed $416 $-1 #
vertex $-1 $621 $622 #
vertex $-1 $266 $623 #
straight-curve $-1 -30.833701756767397 -33.633879512822148 36.00856201984292 0 0 -1 I I #
coedge $-1 $430 $430 $-1 $624 reversed $269 $-1 #
edge $-1 $625 0 $625 6.2831853071796004 $270 $626 forward 7 unknown #
vertex $-1 $273 $627 #
ellipse-curve $-1 -24.61540404453639 -31.309103271431191 4.9374465553275337 0 -0.87461971476443456 0.48480960649040278 2 0 0 1 I I #
coedge $-1 $434 $434 $-1 $628 reversed $276 $-1 #
edge $-1 $629 0 $629 6.2831853071796004 $277 $630 forward 7 unknown #
vertex $-1 $280 $631 #
ellipse-curve $-1 -15.287957476189881 -31.309103271431191 4.9374465553275337 0 -0.87461971476443456 0.48480960649040278 2 0 0 1 I I #
face $-1 $-1 $632 $60 $-1 $633 forward single #
loop $-1 $-1 $287 $281 #
plane-surface $-1 0 -33.633879512822141 0 0 1 0 0 0 1 forward_v I I I I #
coedge $-1 $634 $635 $636 $637 reversed $282 $-1 #
coedge $-1 $638 $284 $286 $448 forward $177 $-1 #
coedge $-1 $284 $638 $634 $639 forward $177 $-1 #
coedge $-1 $636 $287 $284 $445 forward $439 $-1 #
edge $-1 $451 -4.0391006699531342 $640 17.724941322855393 $444 $641 forward 7 unknown #
coedge $-1 $642 $643 $285 $447 forward $632 $-1 #
edge $-1 $644 -52.12318082786372 $450 -47.473628345081814 $446 $645 forward 7 unknown #
edge $-1 $451 1.4611543310094151e-014 $644 9.590471023131343 $286 $646 forward 7 unknown #
coedge $-1 $287 $636 $642 $647 reversed $439 $-1 #
vertex $-1 $647 $648 #
vertex $-1 $288 $649 #
straight-curve $-1 2.8038196564979945 -33.633879512822148 36.00856201984292 0 0 -1 I I #
coedge $-1 $453 $453 $-1 $650 reversed $291 $-1 #
edge $-1 $651 0 $651 6.2831853071796004 $292 $652 forward 7 unknown #
vertex $-1 $295 $653 #
ellipse-curve $-1 9.0221173687290133 -31.309103271431191 4.9374465553275337 0 -0.87461971476443456 0.48480960649040278 2 0 0 1 I I #
coedge $-1 $457 $457 $-1 $654 reversed $298 $-1 #
edge $-1 $655 0 $655 6.2831853071796004 $299 $656 forward 7 unknown #
vertex $-1 $302 $657 #
ellipse-curve $-1 18.349563937075516 -31.309103271431191 4.9374465553275337 0 -0.87461971476443456 0.48480960649040278 2 0 0 1 I I #
face $-1 $-1 $658 $63 $-1 $659 forward single #
loop $-1 $-1 $309 $303 #
plane-surface $-1 0 -33.633879512822141 0 0 1 0 0 0 1 forward_v I I I I #
coedge $-1 $660 $661 $662 $663 reversed $304 $-1 #
coedge $-1 $664 $306 $308 $471 forward $191 $-1 #
coedge $-1 $306 $664 $660 $665 forward $191 $-1 #
coedge $-1 $662 $309 $306 $468 forward $462 $-1 #
edge $-1 $474 12.779660036679566 $666 34.543702029488095 $467 $667 forward 7 unknown #
coedge $-1 $668 $669 $307 $470 forward $658 $-1 #
edge $-1 $670 -52.12318082786372 $473 -47.473628345081814 $469 $671 forward 7 unknown #
edge $-1 $474 1.4611543310094151e-014 $670 9.590471023131343 $308 $672 forward 7 unknown #
coedge $-1 $309 $662 $668 $673 reversed $462 $-1 #
vertex $-1 $673 $674 #
vertex $-1 $310 $675 #
straight-curve $-1 36.441341069763396 -33.633879512822148 36.00856201984292 0 0 -1 I I #
coedge $-1 $476 $476 $-1 $676 reversed $313 $-1 #
edge $-1 $677 0 $677 6.2831853071796004 $314 $678 forward 7 unknown #
vertex $-1 $317 $679 #
ellipse-curve $-1 42.659638781994417 -31.309103271431191 4.9374465553275337 0 -0.87461971476443456 0.48480960649040278 2 0 0 1 I I #
coedge $-1 $480 $480 $-1 $680 reversed $320 $-1 #
edge $-1 $681 0 $681 6.2831853071796004 $321 $682 forward 7 unknown #
vertex $-1 $324 $683 #
ellipse-curve $-1 51.987085350340905 -31.309103271431191 4.9374465553275337 0 -0.87461971476443456 0.48480960649040278 2 0 0 1 I I #
face $-1 $-1 $496 $66 $-1 $684 reversed single #
loop $-1 $-1 $685 $325 #
plane-surface $-1 -67.242303691906827 0 3.502426154332495 -1 0 0 0 0 1 forward_v I I I I #
coedge $-1 $686 $687 $688 $689 forward $326 $-1 #
coedge $-1 $690 $328 $330 $494 forward $205 $-1 #
coedge $-1 $328 $690 $685 $691 forward $205 $-1 #
coedge $-1 $692 $331 $328 $491 forward $496 $-1 #
edge $-1 $498 22.987868037525892 $693 37.165579782095925 $490 $694 forward 7 unknown #
coedge $-1 $687 $686 $329 $493 forward $326 $-1 #
edge $-1 $695 -18.919189767921509 $497 -11.377531513729188 $492 $696 forward 7 unknown #
edge $-1 $498 -67.267759025644253 $695 -56.60224351603528 $330 $697 forward 7 unknown #
coedge $-1 $331 $692 $687 $698 reversed $496 $-1 #
loop $-1 $-1 $692 $484 #
vertex $-1 $698 $699 #
vertex $-1 $332 $700 #
straight-curve $-1 -53.064591947336794 33.633879512822141 76.554856447001299 0 0 -1 I I #
coedge $-1 $500 $500 $-1 $701 reversed $335 $-1 #
edge $-1 $702 0 $702 6.2831853071796004 $336 $703 forward 7 unknown #
vertex $-1 $339 $704 #
ellipse-curve $-1 -60.153447819621803 29.863050385725984 5.3606248560827439 0 0.70710678939079041 0.70710677298230451 2.5 0 0 1 I I #
face $-1 $-1 $355 $51 $-1 $705 reversed single #
loop $-1 $-1 $520 $340 #
plane-surface $-1 0 33.633879512822141 0 0 -1 0 0 0 -1 forward_v I I I I #
coedge $-1 $706 $518 $521 $707 forward $341 $-1 #
coedge $-1 $524 $343 $344 $512 reversed $214 $-1 #
coedge $-1 $518 $706 $343 $510 reversed $341 $-1 #
edge $-1 $525 -9.1314540706813894 $708 9.1314540706813894 $509 $709 forward 7 unknown #
coedge $-1 $345 $344 $706 $710 forward $137 $-1 #
edge $-1 $516 -73.506881923886837 $708 73.506881923886837 $508 $711 forward 7 unknown #
coedge $-1 $521 $520 $345 $514 reversed $505 $-1 #
edge $-1 $712 -73.506881923886837 $515 73.506881923886837 $513 $713 forward 7 unknown #
vertex $-1 $347 $714 #
vertex $-1 $527 $715 #
straight-curve $-1 73.506881923886837 0 -9.1314540706813894 0 -1 0 I I #
coedge $-1 $507 $509 $348 $519 reversed $341 $-1 #
edge $-1 $522 -33.633879512822141 $525 33.633879512822141 $518 $716 forward 7 unknown #
coedge $-1 $513 $349 $354 $528 forward $505 $-1 #
coedge $-1 $349 $513 $507 $707 reversed $505 $-1 #
vertex $-1 $350 $717 #
straight-curve $-1 0 33.633879512822141 9.1314540706813894 -1 0 0 I I #
coedge $-1 $351 $508 $353 $527 reversed $214 $-1 #
vertex $-1 $519 $718 #
straight-curve $-1 0 -33.633879512822141 9.1314540706813894 1 0 0 I I #
edge $-1 $356 -9.1314540706813894 $516 9.1314540706813894 $353 $719 forward 7 unknown #
edge $-1 $357 -9.1314540706813894 $515 9.1314540706813894 $354 $720 forward 7 unknown #
point $-1 73.506881923886837 -33.633879512822141 9.1314540706813894 #
point $-1 73.506881923886837 33.633879512822141 9.1314540706813894 #
face $-1 $-1 $548 $52 $-1 $721 reversed single #
loop $-1 $-1 $722 $359 #
plane-surface $-1 -73.506881923886837 0 0 1 0 0 0 0 -1 forward_v I I I I #
coedge $-1 $535 $551 $363 $538 forward $360 $-1 #
coedge $-1 $370 $534 $362 $536 forward $360 $-1 #
edge $-1 $542 -0.84358907126117888 $373 4.3460152255936739 $535 $723 forward 7 unknown #
coedge $-1 $364 $363 $722 $724 reversed $141 $-1 #
edge $-1 $725 -38.319585519938421 $542 -32.055007287958411 $534 $726 forward 7 unknown #
coedge $-1 $547 $546 $364 $540 forward $548 $-1 #
edge $-1 $541 32.055007287958411 $727 38.319585519938421 $539 $728 forward 7 unknown #
vertex $-1 $540 $729 #
vertex $-1 $538 $730 #
straight-curve $-1 -67.242303691906827 0 0.90762400590506864 0 -1 0 I I #
coedge $-1 $731 $732 $367 $545 forward $532 $-1 #
edge $-1 $552 -33.633879512822141 $549 33.633879512822141 $544 $733 forward 7 unknown #
coedge $-1 $539 $368 $372 $554 forward $548 $-1 #
coedge $-1 $368 $539 $731 $734 reversed $548 $-1 #
loop $-1 $-1 $539 $531 #
vertex $-1 $734 $735 #
straight-curve $-1 -35.187296403948416 33.633879512822141 6.0972283027599214 1 0 0 I I #
coedge $-1 $534 $370 $732 $736 forward $360 $-1 #
vertex $-1 $736 $737 #
straight-curve $-1 -35.187296403948416 -33.633879512822141 6.0972283027599214 -1 0 0 I I #
edge $-1 $374 -4.3460152255936739 $541 0.84358907126117888 $546 $738 forward 7 unknown #
point $-1 -67.242303691906827 -33.633879512822141 6.0972283027599214 #
point $-1 -67.242303691906827 33.633879512822141 6.0972283027599214 #
face $-1 $-1 $574 $53 $-1 $739 reversed single #
loop $-1 $-1 $740 $376 #
plane-surface $-1 79.705981886618915 0 4.4942295201908173 -1 0 0 0 0 1 forward_v I I I I #
coedge $-1 $387 $386 $741 $742 forward $377 $-1 #
coedge $-1 $570 $379 $380 $566 forward $230 $-1 #
coedge $-1 $379 $570 $573 $743 forward $230 $-1 #
coedge $-1 $740 $744 $379 $564 reversed $558 $-1 #
edge $-1 $745 -33.633879512822141 $746 33.633879512822141 $563 $747 forward 7 unknown #
coedge $-1 $381 $380 $744 $748 forward $145 $-1 #
edge $-1 $746 -3.0995499813660388 $568 3.0995499813660388 $380 $749 forward 7 unknown #
edge $-1 $388 -3.0995499813660388 $750 3.0995499813660388 $381 $751 forward 7 unknown #
vertex $-1 $566 $752 #
straight-curve $-1 73.506881923886837 33.633879512822141 0 0 0 1 I I #
coedge $-1 $562 $561 $383 $571 reversed $230 $-1 #
edge $-1 $575 -33.633879512822141 $568 33.633879512822141 $570 $753 forward 7 unknown #
coedge $-1 $754 $384 $387 $577 reversed $574 $-1 #
coedge $-1 $384 $754 $562 $743 reversed $574 $-1 #
loop $-1 $-1 $384 $557 #
vertex $-1 $385 $755 #
straight-curve $-1 73.506881923886837 -33.633879512822141 0 0 0 -1 I I #
edge $-1 $756 -3.0995499813660388 $389 3.0995499813660388 $572 $757 forward 7 unknown #
point $-1 73.506881923886837 33.633879512822141 1.8521077849473349 #
point $-1 73.506881923886837 -33.633879512822141 1.8521077849473349 #
plane-surface $-1 0 -33.633879512822141 0 0 1 0 0 0 1 forward_v I I I I #
coedge $-1 $591 $590 $583 $758 forward $392 $-1 #
coedge $-1 $583 $394 $396 $587 reversed $238 $-1 #
coedge $-1 $394 $582 $581 $758 reversed $238 $-1 #
coedge $-1 $402 $397 $394 $585 forward $403 $-1 #
edge $-1 $588 -35.265122979869226 $759 -26.87710794916153 $584 $760 forward 7 unknown #
coedge $-1 $396 $395 $591 $761 reversed $149 $-1 #
edge $-1 $762 -9.590471023131343 $588 -1.4611543310094151e-014 $582 $763 forward 7 unknown #
vertex $-1 $398 $764 #
straight-curve $-1 -26.794601086814264 -33.633879512822141 0.74343903997369776 1 0 0 I I #
coedge $-1 $581 $399 $402 $595 forward $392 $-1 #
coedge $-1 $399 $581 $586 $761 forward $392 $-1 #
vertex $-1 $400 $765 #
straight-curve $-1 -64.471223170032786 -81.107507857903954 9.1314540706813894 0 -1 0 I I #
straight-curve $-1 -64.471223170032786 -33.633879512822148 0.74343903997367988 0 0.48480960649040278 0.87461971476443456 I I #
edge $-1 $404 -64.471223170032786 $759 -42.707181177224264 $402 $766 forward 7 unknown #
point $-1 -64.471223170032786 -33.633879512822141 9.1314540706813894 #
point $-1 -64.471223170032786 -33.633879512822141 0.74343903997369265 #
edge $-1 $767 1 $767 0 $407 $-1 forward 7 unknown #
vertex $-1 $408 $768 #
ellipse-curve $-1 -58.252925457801787 -24.341293315653505 1.075126571298453 0 -0.87461971476443456 0.48480960649040278 2 0 0 1 I I #
point $-1 -56.252925457801787 -31.30910327143118 4.9374465553275284 #
edge $-1 $769 1 $769 0 $411 $-1 forward 7 unknown #
vertex $-1 $412 $770 #
ellipse-curve $-1 -48.925478889455277 -24.341293315653505 1.075126571298453 0 -0.87461971476443456 0.48480960649040278 2 0 0 1 I I #
point $-1 -46.925478889455277 -31.30910327143118 4.9374465553275284 #
loop $-1 $-1 $423 $415 #
plane-surface $-1 0 0 9.1314540706813894 0 0 1 1 0 0 forward_v I I I I #
coedge $-1 $609 $418 $420 $613 reversed $260 $-1 #
coedge $-1 $418 $608 $771 $772 reversed $260 $-1 #
coedge $-1 $426 $421 $418 $611 forward $416 $-1 #
edge $-1 $614 -35.265122979869226 $773 -26.87710794916153 $610 $774 forward 7 unknown #
coedge $-1 $420 $419 $617 $775 reversed $163 $-1 #
edge $-1 $776 -9.590471023131343 $614 -1.4611543310094151e-014 $608 $777 forward 7 unknown #
vertex $-1 $422 $778 #
straight-curve $-1 -9.975840380181566 -33.633879512822141 0.74343903997369776 1 0 0 I I #
coedge $-1 $771 $423 $426 $621 forward $606 $-1 #
coedge $-1 $423 $771 $612 $775 forward $606 $-1 #
vertex $-1 $424 $779 #
straight-curve $-1 -30.833701756767397 -81.107507857903954 9.1314540706813894 0 -1 0 I I #
straight-curve $-1 -30.833701756767397 -33.633879512822148 0.74343903997367988 0 0.48480960649040278 0.87461971476443456 I I #
edge $-1 $427 -30.833701756767397 $773 -9.0696597639588692 $426 $780 forward 7 unknown #
point $-1 -30.833701756767397 -33.633879512822141 9.1314540706813894 #
point $-1 -30.833701756767397 -33.633879512822141 0.74343903997369265 #
edge $-1 $781 1 $781 0 $430 $-1 forward 7 unknown #
vertex $-1 $431 $782 #
ellipse-curve $-1 -24.61540404453639 -24.341293315653505 1.075126571298453 0 -0.87461971476443456 0.48480960649040278 2 0 0 1 I I #
point $-1 -22.61540404453639 -31.30910327143118 4.9374465553275284 #
edge $-1 $783 1 $783 0 $434 $-1 forward 7 unknown #
vertex $-1 $435 $784 #
ellipse-curve $-1 -15.287957476189881 -24.341293315653505 1.075126571298453 0 -0.87461971476443456 0.48480960649040278 2 0 0 1 I I #
point $-1 -13.287957476189881 -31.30910327143118 4.9374465553275284 #
loop $-1 $-1 $446 $438 #
plane-surface $-1 0 0 9.1314540706813894 0 0 1 1 0 0 forward_v I I I I #
coedge $-1 $635 $441 $443 $639 reversed $282 $-1 #
coedge $-1 $441 $634 $785 $786 reversed $282 $-1 #
coedge $-1 $449 $444 $441 $637 forward $439 $-1 #
edge $-1 $640 -35.265122979869226 $787 -26.87710794916153 $636 $788 forward 7 unknown #
coedge $-1 $443 $442 $643 $789 reversed $177 $-1 #
edge $-1 $790 -9.590471023131343 $640 -1.4611543310094151e-014 $634 $791 forward 7 unknown #
vertex $-1 $445 $792 #
straight-curve $-1 6.8429203264511287 -33.633879512822141 0.74343903997369776 1 0 0 I I #
coedge $-1 $785 $446 $449 $647 forward $632 $-1 #
coedge $-1 $446 $785 $638 $789 forward $632 $-1 #
vertex $-1 $447 $793 #
straight-curve $-1 2.8038196564979945 -81.107507857903954 9.1314540706813894 0 -1 0 I I #
straight-curve $-1 2.8038196564979945 -33.633879512822148 0.74343903997367988 0 0.48480960649040278 0.87461971476443456 I I #
edge $-1 $450 2.8038196564979945 $787 24.567861649306522 $449 $794 forward 7 unknown #
point $-1 2.8038196564979945 -33.633879512822141 9.1314540706813894 #
point $-1 2.8038196564979945 -33.633879512822141 0.74343903997369265 #
edge $-1 $795 1 $795 0 $453 $-1 forward 7 unknown #
vertex $-1 $454 $796 #
ellipse-curve $-1 9.0221173687290133 -24.341293315653505 1.075126571298453 0 -0.87461971476443456 0.48480960649040278 2 0 0 1 I I #
point $-1 11.022117368729013 -31.30910327143118 4.9374465553275284 #
edge $-1 $797 1 $797 0 $457 $-1 forward 7 unknown #
vertex $-1 $458 $798 #
ellipse-curve $-1 18.349563937075516 -24.341293315653505 1.075126571298453 0 -0.87461971476443456 0.48480960649040278 2 0 0 1 I I #
point $-1 20.349563937075516 -31.30910327143118 4.9374465553275284 #
loop $-1 $-1 $469 $461 #
plane-surface $-1 0 0 9.1314540706813894 0 0 1 1 0 0 forward_v I I I I #
coedge $-1 $661 $464 $466 $665 reversed $304 $-1 #
coedge $-1 $464 $660 $799 $800 reversed $304 $-1 #
coedge $-1 $472 $467 $464 $663 forward $462 $-1 #
edge $-1 $666 -35.265122979869226 $801 -26.87710794916153 $662 $802 forward 7 unknown #
coedge $-1 $466 $465 $669 $803 reversed $191 $-1 #
edge $-1 $804 -9.590471023131343 $666 -1.4611543310094151e-014 $660 $805 forward 7 unknown #
vertex $-1 $468 $806 #
straight-curve $-1 23.661681033083831 -33.633879512822141 0.74343903997369776 1 0 0 I I #
coedge $-1 $799 $469 $472 $673 forward $658 $-1 #
coedge $-1 $469 $799 $664 $803 forward $658 $-1 #
vertex $-1 $470 $807 #
straight-curve $-1 36.441341069763396 -81.107507857903954 9.1314540706813894 0 -1 0 I I #
straight-curve $-1 36.441341069763396 -33.633879512822148 0.74343903997367988 0 0.48480960649040278 0.87461971476443456 I I #
edge $-1 $473 36.441341069763396 $801 58.205383062571926 $472 $808 forward 7 unknown #
point $-1 36.441341069763396 -33.633879512822141 9.1314540706813894 #
point $-1 36.441341069763396 -33.633879512822141 0.74343903997369265 #
edge $-1 $809 1 $809 0 $476 $-1 forward 7 unknown #
vertex $-1 $477 $810 #
ellipse-curve $-1 42.659638781994417 -24.341293315653505 1.075126571298453 0 -0.87461971476443456 0.48480960649040278 2 0 0 1 I I #
point $-1 44.659638781994417 -31.30910327143118 4.9374465553275284 #
edge $-1 $811 1 $811 0 $480 $-1 forward 7 unknown #
vertex $-1 $481 $812 #
ellipse-curve $-1 51.987085350340905 -24.341293315653505 1.075126571298453 0 -0.87461971476443456 0.48480960649040278 2 0 0 1 I I #
point $-1 53.987085350340905 -31.30910327143118 4.9374465553275284 #
plane-surface $-1 0 33.633879512822141 0 0 -1 0 0 0 -1 forward_v I I I I #
coedge $-1 $688 $813 $489 $691 reversed $485 $-1 #
coedge $-1 $492 $487 $690 $814 forward $326 $-1 #
coedge $-1 $487 $492 $495 $698 forward $326 $-1 #
coedge $-1 $813 $685 $487 $689 reversed $485 $-1 #
edge $-1 $815 11.377531513729188 $816 18.919189767921509 $487 $817 forward 7 unknown #
coedge $-1 $489 $488 $686 $814 reversed $205 $-1 #
edge $-1 $816 56.60224351603528 $693 67.267759025644253 $685 $818 forward 7 unknown #
coedge $-1 $495 $490 $813 $819 forward $496 $-1 #
vertex $-1 $819 $820 #
straight-curve $-1 -30.076723909810902 33.633879512822141 1.5897956414841055 -1 0 0 I I #
vertex $-1 $493 $821 #
straight-curve $-1 -53.064591947336794 45.011411026551329 9.1314540706813858 0 1 0 I I #
straight-curve $-1 -53.064591947336794 -13.931608497552446 49.155284755620769 0 -0.70710677298230451 0.70710678939079041 I I #
edge $-1 $497 53.064591947336794 $815 67.242303691906812 $495 $822 forward 7 unknown #
point $-1 -53.064591947336794 33.633879512822141 9.1314540706813894 #
point $-1 -53.064591947336794 33.633879512822141 1.589795641484109 #
edge $-1 $823 1 $823 0 $500 $-1 forward 7 unknown #
vertex $-1 $501 $824 #
ellipse-curve $-1 -60.153447819621803 26.867983663122505 2.3655582029800954 0 0.70710678939079041 0.70710677298230451 2.5 0 0 1 I I #
point $-1 -57.653447819621803 29.863050385725973 5.3606248560827305 #
plane-surface $-1 73.506881923886837 0 0 -1 0 0 0 0 1 forward_v I I I I #
coedge $-1 $509 $507 $511 $710 reversed $341 $-1 #
edge $-1 $522 -9.1314540706813894 $712 9.1314540706813894 $521 $825 forward 7 unknown #
vertex $-1 $710 $826 #
straight-curve $-1 -73.506881923886837 -33.633879512822141 0 0 0 -1 I I #
edge $-1 $708 -33.633879512822141 $712 33.633879512822141 $706 $827 forward 7 unknown #
straight-curve $-1 0 -33.633879512822141 -9.1314540706813894 -1 0 0 I I #
vertex $-1 $514 $828 #
straight-curve $-1 0 33.633879512822141 -9.1314540706813894 1 0 0 I I #
point $-1 73.506881923886837 33.633879512822141 -9.1314540706813894 #
point $-1 73.506881923886837 -33.633879512822141 -9.1314540706813894 #
straight-curve $-1 -73.506881923886837 0 9.1314540706813894 0 -1 0 I I #
point $-1 -73.506881923886837 33.633879512822141 9.1314540706813894 #
point $-1 -73.506881923886837 -33.633879512822141 9.1314540706813894 #
straight-curve $-1 73.506881923886837 -33.633879512822141 0 0 0 -1 I I #
straight-curve $-1 73.506881923886837 33.633879512822141 0 0 0 -1 I I #
plane-surface $-1 0 33.633879512822141 0 0 -1 0 0 0 -1 forward_v I I I I #
coedge $-1 $732 $731 $537 $724 forward $532 $-1 #
straight-curve $-1 -67.242303691906827 -33.633879512822141 1.7512130771662475 0 0 1 I I #
edge $-1 $727 -33.633879512822141 $725 33.633879512822141 $722 $829 forward 7 unknown #
vertex $-1 $538 $830 #
straight-curve $-1 -35.187296403948416 -33.633879512822141 0.90762400590506864 1 0 0 I I #
vertex $-1 $540 $831 #
straight-curve $-1 -35.187296403948416 33.633879512822141 0.90762400590506864 -1 0 0 I I #
point $-1 -67.242303691906827 33.633879512822141 0.90762400590506864 #
point $-1 -67.242303691906827 -33.633879512822141 0.90762400590506864 #
coedge $-1 $722 $544 $547 $734 forward $532 $-1 #
coedge $-1 $544 $722 $551 $736 reversed $532 $-1 #
straight-curve $-1 -73.506881923886837 0 6.0972283027599214 0 1 0 I I #
edge $-1 $549 -6.0972283027599214 $727 -0.90762400590506864 $547 $832 forward 7 unknown #
point $-1 -73.506881923886837 33.633879512822141 6.0972283027599214 #
edge $-1 $552 -6.0972283027599214 $725 -0.90762400590506864 $732 $833 forward 7 unknown #
point $-1 -73.506881923886837 -33.633879512822141 6.0972283027599214 #
straight-curve $-1 -67.242303691906827 33.633879512822141 1.7512130771662475 0 0 -1 I I #
plane-surface $-1 0 -33.633879512822141 0 0 1 0 0 0 1 forward_v I I I I #
coedge $-1 $741 $563 $754 $834 forward $558 $-1 #
coedge $-1 $744 $740 $560 $742 reversed $558 $-1 #
edge $-1 $750 -33.633879512822141 $756 33.633879512822141 $741 $835 forward 7 unknown #
edge $-1 $575 -3.0995499813660388 $745 3.0995499813660388 $573 $836 forward 7 unknown #
coedge $-1 $563 $741 $565 $748 reversed $558 $-1 #
vertex $-1 $564 $837 #
vertex $-1 $564 $838 #
straight-curve $-1 79.705981886618915 0 7.1363512554342998 0 1 0 I I #
edge $-1 $746 -2.6421217352434825 $750 2.6421217352434825 $744 $839 forward 7 unknown #
straight-curve $-1 76.606431905252876 33.633879512822141 7.1363512554342998 -1 0 0 I I #
vertex $-1 $742 $840 #
straight-curve $-1 76.606431905252876 33.633879512822141 1.8521077849473349 1 0 0 I I #
point $-1 73.506881923886837 33.633879512822141 7.1363512554342998 #
straight-curve $-1 73.506881923886837 0 7.1363512554342998 0 1 0 I I #
coedge $-1 $573 $572 $740 $834 reversed $574 $-1 #
point $-1 73.506881923886837 -33.633879512822141 7.1363512554342998 #
vertex $-1 $834 $841 #
straight-curve $-1 76.606431905252876 -33.633879512822141 1.8521077849473349 -1 0 0 I I #
edge $-1 $759 47.473628345081814 $762 52.12318082786372 $581 $842 forward 7 unknown #
vertex $-1 $585 $843 #
straight-curve $-1 -42.707181177224264 -33.633879512822148 36.00856201984292 0 0 1 I I #
edge $-1 $762 15.91258009041 $592 37.676622083218518 $591 $844 forward 7 unknown #
vertex $-1 $761 $845 #
straight-curve $-1 -42.707181177224264 -33.633879512822148 0.74343903997367988 0 -0.48480960649040278 -0.87461971476443456 I I #
point $-1 -42.707181177224264 -33.633879512822141 0.74343903997369265 #
point $-1 -64.471223170032786 -28.98432703004023 9.1314540706813894 #
straight-curve $-1 0 -33.633879512822141 9.1314540706813894 1 0 0 I I #
vertex $-1 $598 $846 #
point $-1 -56.252925457801787 -24.341293315653505 1.075126571298453 #
vertex $-1 $602 $847 #
point $-1 -46.925478889455277 -24.341293315653505 1.075126571298453 #
coedge $-1 $617 $616 $609 $772 forward $606 $-1 #
edge $-1 $773 47.473628345081814 $776 52.12318082786372 $771 $848 forward 7 unknown #
vertex $-1 $772 $849 #
straight-curve $-1 -9.0696597639588692 -33.633879512822148 36.00856201984292 0 0 1 I I #
edge $-1 $776 -0.90618061622269686 $618 20.857861376585831 $617 $850 forward 7 unknown #
vertex $-1 $775 $851 #
straight-curve $-1 -9.0696597639588692 -33.633879512822148 0.74343903997367988 0 -0.48480960649040278 -0.87461971476443456 I I #
point $-1 -9.0696597639588692 -33.633879512822141 0.74343903997369265 #
point $-1 -30.833701756767397 -28.98432703004023 9.1314540706813894 #
straight-curve $-1 0 -33.633879512822141 9.1314540706813894 1 0 0 I I #
vertex $-1 $624 $852 #
point $-1 -22.61540404453639 -24.341293315653505 1.075126571298453 #
vertex $-1 $628 $853 #
point $-1 -13.287957476189881 -24.341293315653505 1.075126571298453 #
coedge $-1 $643 $642 $635 $786 forward $632 $-1 #
edge $-1 $787 47.473628345081814 $790 52.12318082786372 $785 $854 forward 7 unknown #
vertex $-1 $786 $855 #
straight-curve $-1 24.567861649306522 -33.633879512822148 36.00856201984292 0 0 1 I I #
edge $-1 $790 -17.724941322855393 $644 4.0391006699531342 $643 $856 forward 7 unknown #
vertex $-1 $789 $857 #
straight-curve $-1 24.567861649306522 -33.633879512822148 0.74343903997367988 0 -0.48480960649040278 -0.87461971476443456 I I #
point $-1 24.567861649306522 -33.633879512822141 0.74343903997369265 #
point $-1 2.8038196564979945 -28.98432703004023 9.1314540706813894 #
straight-curve $-1 0 -33.633879512822141 9.1314540706813894 1 0 0 I I #
vertex $-1 $650 $858 #
point $-1 11.022117368729013 -24.341293315653505 1.075126571298453 #
vertex $-1 $654 $859 #
point $-1 20.349563937075516 -24.341293315653505 1.075126571298453 #
coedge $-1 $669 $668 $661 $800 forward $658 $-1 #
edge $-1 $801 47.473628345081814 $804 52.12318082786372 $799 $860 forward 7 unknown #
vertex $-1 $800 $861 #
straight-curve $-1 58.205383062571926 -33.633879512822148 36.00856201984292 0 0 1 I I #
edge $-1 $804 -34.543702029488095 $670 -12.779660036679566 $669 $862 forward 7 unknown #
vertex $-1 $803 $863 #
straight-curve $-1 58.205383062571926 -33.633879512822148 0.74343903997367988 0 -0.48480960649040278 -0.87461971476443456 I I #
point $-1 58.205383062571926 -33.633879512822141 0.74343903997369265 #
point $-1 36.441341069763396 -28.98432703004023 9.1314540706813894 #
straight-curve $-1 0 -33.633879512822141 9.1314540706813894 1 0 0 I I #
vertex $-1 $676 $864 #
point $-1 44.659638781994417 -24.341293315653505 1.075126571298453 #
vertex $-1 $680 $865 #
point $-1 53.987085350340905 -24.341293315653505 1.075126571298453 #
coedge $-1 $685 $688 $692 $819 reversed $485 $-1 #
edge $-1 $816 -37.165579782095911 $695 -22.987868037525892 $686 $866 forward 7 unknown #
vertex $-1 $819 $867 #
vertex $-1 $814 $868 #
straight-curve $-1 -67.242303691906812 45.011411026551329 9.1314540706813858 0 -1 0 I I #
straight-curve $-1 -67.242303691906812 -13.931608497552446 49.155284755620769 0 0.70710677298230451 -0.70710678939079041 I I #
edge $-1 $693 -74.965060805517197 $815 -67.423402376319913 $692 $869 forward 7 unknown #
point $-1 -67.242303691906827 33.633879512822141 1.5897956414841066 #
point $-1 -53.064591947336794 26.09222125862982 9.1314540706813858 #
straight-curve $-1 0 33.633879512822141 9.1314540706813894 -1 0 0 I I #
vertex $-1 $701 $870 #
point $-1 -57.653447819621803 26.867983663122505 2.3655582029800954 #
straight-curve $-1 -73.506881923886837 33.633879512822141 0 0 0 -1 I I #
point $-1 -73.506881923886837 -33.633879512822141 -9.1314540706813894 #
straight-curve $-1 -73.506881923886837 0 -9.1314540706813894 0 1 0 I I #
point $-1 -73.506881923886837 33.633879512822141 -9.1314540706813894 #
straight-curve $-1 -73.506881923886837 0 0.90762400590506864 0 -1 0 I I #
point $-1 -73.506881923886837 -33.633879512822141 0.90762400590506864 #
point $-1 -73.506881923886837 33.633879512822141 0.90762400590506864 #
straight-curve $-1 -73.506881923886837 33.633879512822141 0 0 0 -1 I I #
straight-curve $-1 -73.506881923886837 -33.633879512822141 0 0 0 -1 I I #
edge $-1 $745 -2.6421217352434825 $756 2.6421217352434825 $740 $871 forward 7 unknown #
straight-curve $-1 79.705981886618915 0 1.8521077849473349 0 -1 0 I I #
straight-curve $-1 76.606431905252876 -33.633879512822141 7.1363512554342998 1 0 0 I I #
point $-1 79.705981886618915 -33.633879512822141 7.1363512554342998 #
point $-1 79.705981886618915 33.633879512822141 7.1363512554342998 #
straight-curve $-1 79.705981886618915 33.633879512822141 4.4942295201908173 0 0 -1 I I #
point $-1 79.705981886618915 33.633879512822141 1.8521077849473349 #
point $-1 79.705981886618915 -33.633879512822141 1.8521077849473349 #
straight-curve $-1 -42.707181177224264 -81.107507857903954 9.1314540706813894 0 1 0 I I #
point $-1 -42.707181177224264 -33.633879512822141 9.1314540706813894 #
straight-curve $-1 -26.794601086814264 -28.984327030040234 9.1314540706813894 -1 0 0 I I #
point $-1 -42.707181177224264 -28.98432703004023 9.1314540706813894 #
point $-1 -58.252925457801787 -22.592053886124635 0.10550735831764696 #
point $-1 -48.925478889455277 -22.592053886124635 0.10550735831764696 #
straight-curve $-1 -9.0696597639588692 -81.107507857903954 9.1314540706813894 0 1 0 I I #
point $-1 -9.0696597639588692 -33.633879512822141 9.1314540706813894 #
straight-curve $-1 -9.975840380181566 -28.984327030040234 9.1314540706813894 -1 0 0 I I #
point $-1 -9.0696597639588692 -28.98432703004023 9.1314540706813894 #
point $-1 -24.61540404453639 -22.592053886124635 0.10550735831764696 #
point $-1 -15.287957476189881 -22.592053886124635 0.10550735831764696 #
straight-curve $-1 24.567861649306522 -81.107507857903954 9.1314540706813894 0 1 0 I I #
point $-1 24.567861649306522 -33.633879512822141 9.1314540706813894 #
straight-curve $-1 6.8429203264511287 -28.984327030040234 9.1314540706813894 -1 0 0 I I #
point $-1 24.567861649306522 -28.98432703004023 9.1314540706813894 #
point $-1 9.0221173687290133 -22.592053886124635 0.10550735831764696 #
point $-1 18.349563937075516 -22.592053886124635 0.10550735831764696 #
straight-curve $-1 58.205383062571926 -81.107507857903954 9.1314540706813894 0 1 0 I I #
point $-1 58.205383062571926 -33.633879512822141 9.1314540706813894 #
straight-curve $-1 23.661681033083831 -28.984327030040234 9.1314540706813894 -1 0 0 I I #
point $-1 58.205383062571926 -28.98432703004023 9.1314540706813894 #
point $-1 42.659638781994417 -22.592053886124635 0.10550735831764696 #
point $-1 51.987085350340905 -22.592053886124635 0.10550735831764696 #
straight-curve $-1 -30.076723909810902 26.09222125862982 9.1314540706813894 1 0 0 I I #
point $-1 -67.242303691906812 33.633879512822141 9.1314540706813894 #
point $-1 -67.242303691906812 26.09222125862982 9.1314540706813858 #
straight-curve $-1 -67.242303691906812 33.633879512822141 76.554856447001299 0 0 1 I I #
point $-1 -60.153447819621803 25.100216689645531 0.59779127052433412 #
straight-curve $-1 79.705981886618915 -33.633879512822141 4.4942295201908173 0 0 -1 I I #
End-of-ACIS-data 