500 0 3 0           
7 Unknown 11 ACIS 5.0 NT 24 Fri Mar 26 17:23:53 1999 
-1 9.9999999999999995e-007 1e-010 
body $-1 $3 $-1 $4 #
body $-1 $5 $-1 $6 #
body $-1 $7 $-1 $8 #
lump $-1 $-1 $9 $0 #
transform $-1 1 0 0 0 1 0 0 0 1 46.128116702780233 20.567112015267757 7.9452058656715847 1 rotate no_reflect no_shear #
lump $-1 $-1 $10 $1 #
transform $-1 1 0 0 0 1 0 0 0 1 46.128116702780233 20.567112015267757 7.9452058656715847 1 rotate no_reflect no_shear #
lump $-1 $-1 $11 $2 #
transform $-1 1 0 0 0 1 0 0 0 1 46.128116702780233 20.567112015267757 7.9452058656715847 1 rotate no_reflect no_shear #
shell $-1 $-1 $-1 $12 $-1 $3 #
shell $-1 $-1 $-1 $13 $-1 $5 #
shell $-1 $-1 $-1 $14 $-1 $7 #
face $-1 $15 $16 $9 $-1 $17 forward single #
face $-1 $18 $19 $10 $-1 $20 reversed single #
face $-1 $21 $22 $11 $-1 $23 forward single #
face $-1 $24 $25 $9 $-1 $26 reversed single #
loop $-1 $-1 $27 $12 #
plane-surface $-1 0 0 7.9452058656715847 0 0 1 1 0 0 forward_v I I I I #
face $-1 $28 $29 $10 $-1 $30 reversed single #
loop $-1 $-1 $31 $13 #
plane-surface $-1 -1.5430683518737176 61.602687363303204 94.957559484477102 1 0 0 0 -0.74314483375859142 -0.66913059716165679 forward_v I I I I #
face $-1 $32 $33 $11 $-1 $34 forward single #
loop $-1 $35 $36 $14 #
cone-surface $-1 11.02669211528697 17.401737314194605 4.5946718382128218 0 -0.74314483375859142 -0.66913059716165679 1.5 0 0 1 I I 0 1 1.5 forward I I I I #
face $-1 $37 $38 $9 $-1 $39 reversed single #
loop $-1 $-1 $40 $15 #
plane-surface $-1 0 0 -7.9452058656715847 0 0 1 1 0 0 forward_v I I I I #
coedge $-1 $41 $42 $43 $44 forward $16 $-1 #
face $-1 $45 $46 $10 $-1 $47 reversed single #
loop $-1 $-1 $48 $18 #
plane-surface $-1 11.026692115286977 -6.9570558740658299 33.226090933929235 0 0.74314483375859142 0.66913059716165679 1 0 0 forward_v I I I I #
coedge $-1 $49 $50 $51 $52 reversed $19 $-1 #
face $-1 $-1 $53 $11 $-1 $54 forward single #
loop $-1 $55 $56 $21 #
cone-surface $-1 11.02669211528697 16.059582636293324 3.3861903682344776 0 -0.74314483375859142 -0.66913059716165679 0.75 0 0 1 I I -0.70710678118654757 0.70710678118654757 0.75 forward I I I I #
loop $-1 $-1 $57 $14 #
coedge $-1 $36 $36 $58 $59 reversed $22 $-1 #
face $-1 $60 $61 $9 $-1 $62 reversed single #
loop $-1 $-1 $63 $24 #
plane-surface $-1 0 -20.567112015267757 0 0 1 0 0 0 1 forward_v I I I I #
coedge $-1 $64 $65 $66 $67 forward $25 $-1 #
coedge $-1 $68 $27 $69 $70 forward $16 $-1 #
coedge $-1 $27 $68 $71 $72 forward $16 $-1 #
coedge $-1 $73 $74 $27 $44 reversed $75 $-1 #
edge $-1 $76 -20.567112015267757 $77 20.567112015267757 $43 $78 forward 7 unknown #
face $-1 $79 $80 $10 $-1 $81 reversed single #
loop $-1 $-1 $82 $28 #
plane-surface $-1 23.596452582447672 61.602687363303204 94.957559484477102 -1 0 0 0 0.74314483375859142 0.66913059716165679 forward_v I I I I #
coedge $-1 $83 $84 $85 $86 reversed $29 $-1 #
coedge $-1 $50 $31 $87 $88 reversed $19 $-1 #
coedge $-1 $31 $49 $83 $89 reversed $19 $-1 #
coedge $-1 $85 $90 $31 $52 forward $91 $-1 #
edge $-1 $92 10.234231666383845 $93 14.995388963365471 $51 $94 forward 7 unknown #
loop $-1 $-1 $58 $32 #
plane-surface $-1 11.026692115286977 -6.9570558740658299 33.226090933929235 0 0.74314483375859142 0.66913059716165679 1 0 0 forward_v I I I I #
loop $-1 $-1 $95 $21 #
coedge $-1 $56 $56 $57 $96 reversed $33 $-1 #
coedge $-1 $57 $57 $56 $96 forward $35 $-1 #
coedge $-1 $58 $58 $36 $59 forward $53 $-1 #
edge $-1 $97 1.7530092718927081e-016 $97 6.2831853071796004 $58 $98 forward 7 unknown #
face $-1 $99 $100 $9 $-1 $101 reversed single #
loop $-1 $-1 $102 $37 #
plane-surface $-1 -46.128116702780233 0 0 1 0 0 0 0 -1 forward_v I I I I #
coedge $-1 $103 $71 $104 $105 forward $38 $-1 #
coedge $-1 $106 $40 $103 $107 forward $25 $-1 #
coedge $-1 $40 $106 $108 $109 forward $25 $-1 #
coedge $-1 $74 $73 $40 $67 reversed $75 $-1 #
edge $-1 $110 -20.567112015267757 $111 20.567112015267757 $66 $112 forward 7 unknown #
coedge $-1 $42 $41 $113 $114 forward $16 $-1 #
coedge $-1 $115 $116 $41 $70 reversed $100 $-1 #
edge $-1 $77 -46.128116702780233 $117 46.128116702780233 $69 $118 forward 7 unknown #
coedge $-1 $63 $119 $42 $72 reversed $38 $-1 #
edge $-1 $120 -46.128116702780233 $76 46.128116702780233 $71 $121 forward 7 unknown #
coedge $-1 $66 $43 $119 $122 forward $75 $-1 #
coedge $-1 $43 $66 $115 $123 reversed $75 $-1 #
loop $-1 $-1 $73 $99 #
vertex $-1 $44 $124 #
vertex $-1 $44 $125 #
straight-curve $-1 46.128116702780233 0 7.9452058656715847 0 1 0 I I #
face $-1 $-1 $91 $10 $-1 $126 forward single #
loop $-1 $-1 $127 $45 #
plane-surface $-1 0 20.567112015267757 0 0 -1 0 0 0 -1 forward_v I I I I #
coedge $-1 $128 $129 $130 $131 reversed $46 $-1 #
coedge $-1 $132 $48 $50 $89 forward $29 $-1 #
coedge $-1 $48 $132 $128 $133 forward $29 $-1 #
coedge $-1 $130 $51 $48 $86 forward $91 $-1 #
edge $-1 $93 -7.0564144095172061 $134 18.083106524804183 $85 $135 forward 7 unknown #
coedge $-1 $136 $137 $49 $88 forward $80 $-1 #
edge $-1 $138 -44.821374887270267 $92 -39.533573876566969 $87 $139 forward 7 unknown #
edge $-1 $93 34.018786002177976 $138 41.134224030535492 $50 $140 forward 7 unknown #
coedge $-1 $51 $130 $136 $141 forward $91 $-1 #
loop $-1 $-1 $130 $79 #
vertex $-1 $88 $142 #
vertex $-1 $52 $143 #
straight-curve $-1 -1.5430683518737176 30.801343681651602 7.945205865671582 0 -1 0 I I #
coedge $-1 $95 $95 $-1 $144 reversed $55 $-1 #
edge $-1 $145 0 $145 6.2831853071796004 $56 $146 forward 7 unknown #
vertex $-1 $59 $147 #
ellipse-curve $-1 11.02669211528697 18.186533366776946 5.3013053603199269 0 0.74314483375859142 0.66913059716165679 1.5 0 0 1 I I #
face $-1 $-1 $75 $9 $-1 $148 reversed single #
loop $-1 $-1 $115 $60 #
plane-surface $-1 0 20.567112015267757 0 0 -1 0 0 0 -1 forward_v I I I I #
coedge $-1 $149 $113 $116 $150 forward $61 $-1 #
coedge $-1 $119 $63 $64 $107 reversed $38 $-1 #
coedge $-1 $113 $149 $63 $105 reversed $61 $-1 #
edge $-1 $120 -7.9452058656715847 $151 7.9452058656715847 $104 $152 forward 7 unknown #
coedge $-1 $65 $64 $149 $153 forward $25 $-1 #
edge $-1 $111 -46.128116702780233 $151 46.128116702780233 $103 $154 forward 7 unknown #
coedge $-1 $116 $115 $65 $109 reversed $100 $-1 #
edge $-1 $155 -46.128116702780233 $110 46.128116702780233 $108 $156 forward 7 unknown #
vertex $-1 $67 $157 #
vertex $-1 $122 $158 #
straight-curve $-1 46.128116702780233 0 -7.9452058656715847 0 -1 0 I I #
coedge $-1 $102 $104 $68 $114 reversed $61 $-1 #
edge $-1 $117 -20.567112015267757 $120 20.567112015267757 $113 $159 forward 7 unknown #
coedge $-1 $108 $69 $74 $123 forward $100 $-1 #
coedge $-1 $69 $108 $102 $150 reversed $100 $-1 #
vertex $-1 $70 $160 #
straight-curve $-1 0 20.567112015267757 7.9452058656715847 -1 0 0 I I #
coedge $-1 $71 $103 $73 $122 reversed $38 $-1 #
vertex $-1 $114 $161 #
straight-curve $-1 0 -20.567112015267757 7.9452058656715847 1 0 0 I I #
edge $-1 $76 -7.9452058656715847 $111 7.9452058656715847 $73 $162 forward 7 unknown #
edge $-1 $77 -7.9452058656715847 $110 7.9452058656715847 $74 $163 forward 7 unknown #
point $-1 46.128116702780233 -20.567112015267757 7.9452058656715847 #
point $-1 46.128116702780233 20.567112015267757 7.9452058656715847 #
plane-surface $-1 0 0 7.9452058656715847 0 0 1 1 0 0 forward_v I I I I #
coedge $-1 $137 $136 $129 $164 forward $80 $-1 #
coedge $-1 $129 $82 $84 $133 reversed $46 $-1 #
coedge $-1 $82 $128 $127 $164 reversed $46 $-1 #
coedge $-1 $90 $85 $82 $131 forward $91 $-1 #
edge $-1 $134 -14.995388963365471 $165 -10.234231666383845 $130 $166 forward 7 unknown #
coedge $-1 $84 $83 $137 $167 reversed $29 $-1 #
edge $-1 $168 -41.134224030535492 $134 -34.018786002177976 $128 $169 forward 7 unknown #
vertex $-1 $86 $170 #
straight-curve $-1 5.5133460576434885 15.805954718286129 7.9452058656715856 1 0 0 I I #
coedge $-1 $127 $87 $90 $141 reversed $80 $-1 #
coedge $-1 $87 $127 $132 $167 forward $80 $-1 #
vertex $-1 $88 $171 #
straight-curve $-1 -1.5430683518737176 20.567112015267757 47.478779742238551 0 0 1 I I #
straight-curve $-1 -1.5430683518737176 -6.9570558740658299 33.226090933929235 0 0.66913059716165679 -0.74314483375859142 I I #
edge $-1 $165 -23.596452582447672 $92 1.5430683518737176 $136 $172 forward 7 unknown #
point $-1 -1.5430683518737176 20.567112015267757 7.9452058656715847 #
point $-1 -1.5430683518737176 15.805954718286131 7.9452058656715856 #
edge $-1 $173 1 $173 0 $95 $-1 forward 7 unknown #
vertex $-1 $96 $174 #
ellipse-curve $-1 11.02669211528697 16.616941261612268 3.8880383161057201 0 0.74314483375859142 0.66913059716165679 1.5 0 0 1 I I #
point $-1 12.52669211528697 18.186533366776942 5.3013053603199234 #
plane-surface $-1 46.128116702780233 0 0 -1 0 0 0 0 1 forward_v I I I I #
coedge $-1 $104 $102 $106 $153 reversed $61 $-1 #
edge $-1 $117 -7.9452058656715847 $155 7.9452058656715847 $116 $175 forward 7 unknown #
vertex $-1 $153 $176 #
straight-curve $-1 -46.128116702780233 -20.567112015267757 0 0 0 -1 I I #
edge $-1 $151 -20.567112015267757 $155 20.567112015267757 $149 $177 forward 7 unknown #
straight-curve $-1 0 -20.567112015267757 -7.9452058656715847 -1 0 0 I I #
vertex $-1 $109 $178 #
straight-curve $-1 0 20.567112015267757 -7.9452058656715847 1 0 0 I I #
point $-1 46.128116702780233 20.567112015267757 -7.9452058656715847 #
point $-1 46.128116702780233 -20.567112015267757 -7.9452058656715847 #
straight-curve $-1 -46.128116702780233 0 7.9452058656715847 0 -1 0 I I #
point $-1 -46.128116702780233 20.567112015267757 7.9452058656715847 #
point $-1 -46.128116702780233 -20.567112015267757 7.9452058656715847 #
straight-curve $-1 46.128116702780233 -20.567112015267757 0 0 0 -1 I I #
straight-curve $-1 46.128116702780233 20.567112015267757 0 0 0 -1 I I #
edge $-1 $165 39.533573876566969 $168 44.821374887270267 $127 $179 forward 7 unknown #
vertex $-1 $141 $180 #
straight-curve $-1 23.596452582447672 30.801343681651602 7.945205865671582 0 1 0 I I #
edge $-1 $168 -18.083106524804183 $138 7.0564144095172061 $137 $181 forward 7 unknown #
vertex $-1 $167 $182 #
straight-curve $-1 23.596452582447672 -6.9570558740658299 33.226090933929235 0 -0.66913059716165679 0.74314483375859142 I I #
point $-1 23.596452582447672 15.805954718286131 7.9452058656715856 #
point $-1 -1.5430683518737176 20.567112015267757 2.6574048549682807 #
straight-curve $-1 0 20.567112015267757 7.9452058656715847 -1 0 0 I I #
vertex $-1 $144 $183 #
point $-1 12.52669211528697 16.616941261612268 3.8880383161057201 #
straight-curve $-1 -46.128116702780233 20.567112015267757 0 0 0 -1 I I #
point $-1 -46.128116702780233 -20.567112015267757 -7.9452058656715847 #
straight-curve $-1 -46.128116702780233 0 -7.9452058656715847 0 1 0 I I #
point $-1 -46.128116702780233 20.567112015267757 -7.9452058656715847 #
straight-curve $-1 23.596452582447672 20.567112015267757 47.478779742238551 0 0 -1 I I #
point $-1 23.596452582447672 20.567112015267757 7.9452058656715847 #
straight-curve $-1 5.5133460576434885 20.567112015267757 2.6574048549682789 -1 0 0 I I #
point $-1 23.596452582447672 20.567112015267757 2.6574048549682807 #
point $-1 11.02669211528697 15.502224010974381 2.8843424203632351 #
End-of-ACIS-data 