500 0 8 0           
7 Unknown 11 ACIS 5.0 NT 24 Fri Mar 26 15:17:01 1999 
-1 9.9999999999999995e-007 1e-010 
body $-1 $8 $-1 $9 #
body $-1 $10 $-1 $11 #
body $-1 $12 $-1 $13 #
body $-1 $14 $-1 $15 #
body $-1 $16 $-1 $17 #
body $-1 $18 $-1 $19 #
body $-1 $20 $-1 $21 #
body $-1 $22 $-1 $23 #
lump $-1 $-1 $24 $0 #
transform $-1 1 0 0 0 1 0 0 0 1 43.516953032013916 18.63710761707992 4.0519655343509431 1 rotate no_reflect no_shear #
lump $-1 $-1 $25 $1 #
transform $-1 1 0 0 0 1 0 0 0 1 43.516953032013916 18.63710761707992 4.0519655343509431 1 rotate no_reflect no_shear #
lump $-1 $-1 $26 $2 #
transform $-1 1 0 0 0 1 0 0 0 1 43.516953032013916 18.63710761707992 4.0519655343509431 1 rotate no_reflect no_shear #
lump $-1 $-1 $27 $3 #
transform $-1 1 0 0 0 1 0 0 0 1 43.516953032013916 18.63710761707992 4.0519655343509431 1 rotate no_reflect no_shear #
lump $-1 $-1 $28 $4 #
transform $-1 1 0 0 0 1 0 0 0 1 43.516953032013916 18.63710761707992 4.0519655343509431 1 rotate no_reflect no_shear #
lump $-1 $-1 $29 $5 #
transform $-1 1 0 0 0 1 0 0 0 1 43.516953032013916 18.63710761707992 4.0519655343509431 1 rotate no_reflect no_shear #
lump $-1 $-1 $30 $6 #
transform $-1 1 0 0 0 1 0 0 0 1 43.516953032013916 18.63710761707992 4.0519655343509431 1 rotate no_reflect no_shear #
lump $-1 $-1 $31 $7 #
transform $-1 1 0 0 0 1 0 0 0 1 43.516953032013916 18.63710761707992 4.0519655343509431 1 rotate no_reflect no_shear #
shell $-1 $-1 $-1 $32 $-1 $8 #
shell $-1 $-1 $-1 $33 $-1 $10 #
shell $-1 $-1 $-1 $34 $-1 $12 #
shell $-1 $-1 $-1 $35 $-1 $14 #
shell $-1 $-1 $-1 $36 $-1 $16 #
shell $-1 $-1 $-1 $37 $-1 $18 #
shell $-1 $-1 $-1 $38 $-1 $20 #
shell $-1 $-1 $-1 $39 $-1 $22 #
face $-1 $40 $41 $24 $-1 $42 forward single #
face $-1 $43 $44 $25 $-1 $45 reversed single #
face $-1 $46 $47 $26 $-1 $48 reversed single #
face $-1 $49 $50 $27 $-1 $51 forward single #
face $-1 $52 $53 $28 $-1 $54 reversed single #
face $-1 $55 $56 $29 $-1 $57 forward single #
face $-1 $58 $59 $30 $-1 $60 reversed single #
face $-1 $61 $62 $31 $-1 $63 forward single #
face $-1 $64 $65 $24 $-1 $66 reversed single #
loop $-1 $-1 $67 $32 #
plane-surface $-1 0 0 4.0519655343509431 0 0 1 1 0 0 forward_v I I I I #
face $-1 $68 $69 $25 $-1 $70 reversed single #
loop $-1 $-1 $71 $33 #
plane-surface $-1 -42.016953032013916 0 1.0519655343509431 0 0 1 1 0 0 forward_v I I I I #
face $-1 $72 $73 $26 $-1 $74 reversed single #
loop $-1 $-1 $75 $34 #
plane-surface $-1 -12.427362549050358 -14.588425089019207 66.754156557715845 0.7660444514056185 0 0.64278759981090561 0.64278759981090561 0 -0.7660444514056185 forward_v I I I I #
face $-1 $76 $77 $27 $-1 $78 forward single #
loop $-1 $79 $80 $35 #
cone-surface $-1 41.286533249697705 -14.588425089019207 1.5930879666690889 -0.7660444514056185 0 -0.64278759981090561 0.64278759981090561 0 -0.7660444514056185 1 I I 0 1 1 forward I I I I #
face $-1 $81 $82 $28 $-1 $83 reversed single #
loop $-1 $-1 $84 $36 #
plane-surface $-1 54.244478275455975 -6.2123692056933066 122.69847213878012 0 1 0 0.7660444514056185 0 0.64278759981090561 forward_v I I I I #
face $-1 $85 $86 $29 $-1 $87 forward single #
loop $-1 $88 $89 $37 #
cone-surface $-1 41.286533249697705 -2.1636866776325938 1.5930879666690889 -0.7660444514056185 0 -0.64278759981090561 0.64278759981090561 0 -0.7660444514056185 1 I I 0 1 1 forward I I I I #
face $-1 $90 $91 $30 $-1 $92 reversed single #
loop $-1 $-1 $93 $38 #
plane-surface $-1 54.244478275455975 6.2123692056933066 122.69847213878012 0 1 0 0.7660444514056185 0 0.64278759981090561 forward_v I I I I #
face $-1 $94 $95 $31 $-1 $96 forward single #
loop $-1 $97 $98 $39 #
cone-surface $-1 41.286533249697705 10.261051733754019 1.5930879666690889 -0.7660444514056185 0 -0.64278759981090561 0.64278759981090561 0 -0.7660444514056185 1 I I 0 1 1 forward I I I I #
face $-1 $99 $100 $24 $-1 $101 reversed single #
loop $-1 $-1 $102 $40 #
plane-surface $-1 0 0 -4.0519655343509431 0 0 1 1 0 0 forward_v I I I I #
coedge $-1 $103 $104 $105 $106 forward $41 $-1 #
face $-1 $107 $108 $25 $-1 $109 reversed single #
loop $-1 $-1 $110 $43 #
plane-surface $-1 -40.516953032013916 0 2.5519655343509431 -1 0 0 0 0 1 forward_v I I I I #
coedge $-1 $111 $112 $113 $114 forward $44 $-1 #
face $-1 $115 $116 $26 $-1 $117 forward single #
loop $-1 $-1 $118 $46 #
plane-surface $-1 54.244478275455975 -10.539742560958494 122.69847213878012 0 -1 0 -0.7660444514056185 0 -0.64278759981090561 forward_v I I I I #
coedge $-1 $119 $120 $121 $122 reversed $47 $-1 #
face $-1 $-1 $123 $27 $-1 $124 forward single #
loop $-1 $125 $126 $49 #
cone-surface $-1 40.338557040095168 -14.588425089019207 0.79764149965250475 -0.7660444514056185 0 -0.64278759981090561 0.3213937999054528 0 -0.38302222570280925 1 I I -0.70710678118654746 0.70710678118654746 0.5 forward I I I I #
loop $-1 $-1 $127 $35 #
coedge $-1 $80 $80 $128 $129 reversed $50 $-1 #
face $-1 $130 $131 $28 $-1 $132 reversed single #
loop $-1 $-1 $133 $52 #
plane-surface $-1 -12.427362549050358 -2.1636866776325938 66.754156557715845 0.7660444514056185 0 0.64278759981090561 0.64278759981090561 0 -0.7660444514056185 forward_v I I I I #
coedge $-1 $134 $135 $136 $137 reversed $53 $-1 #
face $-1 $-1 $138 $29 $-1 $139 forward single #
loop $-1 $140 $141 $55 #
cone-surface $-1 40.338557040095168 -2.1636866776325938 0.79764149965250475 -0.7660444514056185 0 -0.64278759981090561 0.3213937999054528 0 -0.38302222570280925 1 I I -0.70710678118654746 0.70710678118654746 0.5 forward I I I I #
loop $-1 $-1 $142 $37 #
coedge $-1 $89 $89 $143 $144 reversed $56 $-1 #
face $-1 $145 $146 $30 $-1 $147 reversed single #
loop $-1 $-1 $148 $58 #
plane-surface $-1 -12.427362549050358 10.261051733754019 66.754156557715845 0.7660444514056185 0 0.64278759981090561 0.64278759981090561 0 -0.7660444514056185 forward_v I I I I #
coedge $-1 $149 $150 $151 $152 reversed $59 $-1 #
face $-1 $-1 $153 $31 $-1 $154 forward single #
loop $-1 $155 $156 $61 #
cone-surface $-1 40.338557040095168 10.261051733754019 0.79764149965250475 -0.7660444514056185 0 -0.64278759981090561 0.3213937999054528 0 -0.38302222570280925 1 I I -0.70710678118654746 0.70710678118654746 0.5 forward I I I I #
loop $-1 $-1 $157 $39 #
coedge $-1 $98 $98 $158 $159 reversed $62 $-1 #
face $-1 $160 $161 $24 $-1 $162 reversed single #
loop $-1 $-1 $163 $64 #
plane-surface $-1 0 -18.63710761707992 0 0 1 0 0 0 1 forward_v I I I I #
coedge $-1 $164 $165 $166 $167 forward $65 $-1 #
coedge $-1 $168 $67 $169 $170 forward $41 $-1 #
coedge $-1 $67 $168 $171 $172 forward $41 $-1 #
coedge $-1 $173 $174 $67 $106 reversed $175 $-1 #
edge $-1 $176 -18.63710761707992 $177 18.63710761707992 $105 $178 forward 7 unknown #
face $-1 $179 $180 $25 $-1 $181 reversed single #
loop $-1 $-1 $182 $68 #
plane-surface $-1 0 18.63710761707992 0 0 -1 0 0 0 -1 forward_v I I I I #
coedge $-1 $113 $183 $184 $185 reversed $69 $-1 #
coedge $-1 $186 $71 $187 $188 reversed $44 $-1 #
coedge $-1 $71 $186 $189 $190 reversed $44 $-1 #
coedge $-1 $191 $110 $71 $114 reversed $69 $-1 #
edge $-1 $192 -18.63710761707992 $193 18.63710761707992 $113 $194 forward 7 unknown #
face $-1 $195 $196 $26 $-1 $197 reversed single #
loop $-1 $-1 $198 $72 #
plane-surface $-1 0 0 4.0519655343509431 0 0 1 1 0 0 forward_v I I I I #
coedge $-1 $199 $200 $201 $202 reversed $73 $-1 #
coedge $-1 $203 $75 $204 $205 reversed $47 $-1 #
coedge $-1 $75 $203 $199 $206 forward $47 $-1 #
coedge $-1 $201 $207 $75 $122 forward $208 $-1 #
edge $-1 $209 -11.342895072570316 $210 -3.2455300164488907 $121 $211 forward 7 unknown #
loop $-1 $-1 $128 $76 #
plane-surface $-1 -12.427362549050358 -14.588425089019207 66.754156557715845 0.7660444514056185 0 0.64278759981090561 0.64278759981090561 0 -0.7660444514056185 forward_v I I I I #
loop $-1 $-1 $212 $49 #
coedge $-1 $126 $126 $127 $213 reversed $77 $-1 #
coedge $-1 $127 $127 $126 $213 forward $79 $-1 #
coedge $-1 $128 $128 $80 $129 forward $123 $-1 #
edge $-1 $214 0 $214 6.2831853071796004 $128 $215 forward 7 unknown #
face $-1 $216 $217 $28 $-1 $218 reversed single #
loop $-1 $-1 $219 $81 #
plane-surface $-1 54.244478275455975 1.884995850428119 122.69847213878012 0 -1 0 -0.7660444514056185 0 -0.64278759981090561 forward_v I I I I #
coedge $-1 $220 $221 $222 $223 reversed $82 $-1 #
coedge $-1 $135 $84 $224 $225 reversed $53 $-1 #
coedge $-1 $84 $134 $220 $226 reversed $53 $-1 #
coedge $-1 $222 $227 $84 $137 forward $217 $-1 #
edge $-1 $228 57.297270535039118 $229 61.266920336180547 $136 $230 forward 7 unknown #
loop $-1 $-1 $143 $85 #
plane-surface $-1 -12.427362549050358 -2.1636866776325938 66.754156557715845 0.7660444514056185 0 0.64278759981090561 0.64278759981090561 0 -0.7660444514056185 forward_v I I I I #
loop $-1 $-1 $231 $55 #
coedge $-1 $141 $141 $142 $232 reversed $86 $-1 #
coedge $-1 $142 $142 $141 $232 forward $88 $-1 #
coedge $-1 $143 $143 $89 $144 forward $138 $-1 #
edge $-1 $233 0 $233 6.2831853071796004 $143 $234 forward 7 unknown #
face $-1 $235 $236 $30 $-1 $237 reversed single #
loop $-1 $-1 $238 $90 #
plane-surface $-1 54.244478275455975 14.309734261814732 122.69847213878012 0 -1 0 -0.7660444514056185 0 -0.64278759981090561 forward_v I I I I #
coedge $-1 $239 $240 $241 $242 reversed $91 $-1 #
coedge $-1 $150 $93 $243 $244 reversed $59 $-1 #
coedge $-1 $93 $149 $239 $245 reversed $59 $-1 #
coedge $-1 $241 $246 $93 $152 forward $236 $-1 #
edge $-1 $247 57.297270535039118 $248 61.266920336180547 $151 $249 forward 7 unknown #
loop $-1 $-1 $158 $94 #
plane-surface $-1 -12.427362549050358 10.261051733754019 66.754156557715845 0.7660444514056185 0 0.64278759981090561 0.64278759981090561 0 -0.7660444514056185 forward_v I I I I #
loop $-1 $-1 $250 $61 #
coedge $-1 $156 $156 $157 $251 reversed $95 $-1 #
coedge $-1 $157 $157 $156 $251 forward $97 $-1 #
coedge $-1 $158 $158 $98 $159 forward $153 $-1 #
edge $-1 $252 0 $252 6.2831853071796004 $158 $253 forward 7 unknown #
face $-1 $254 $255 $24 $-1 $256 reversed single #
loop $-1 $-1 $257 $99 #
plane-surface $-1 -43.516953032013916 0 0 1 0 0 0 0 -1 forward_v I I I I #
coedge $-1 $258 $171 $259 $260 forward $100 $-1 #
coedge $-1 $261 $102 $258 $262 forward $65 $-1 #
coedge $-1 $102 $261 $263 $264 forward $65 $-1 #
coedge $-1 $174 $173 $102 $167 reversed $175 $-1 #
edge $-1 $265 -18.63710761707992 $266 18.63710761707992 $166 $267 forward 7 unknown #
coedge $-1 $104 $103 $268 $269 forward $41 $-1 #
coedge $-1 $270 $271 $103 $170 reversed $255 $-1 #
edge $-1 $177 -43.516953032013916 $272 43.516953032013916 $169 $273 forward 7 unknown #
coedge $-1 $163 $274 $104 $172 reversed $100 $-1 #
edge $-1 $275 -43.516953032013916 $176 43.516953032013916 $171 $276 forward 7 unknown #
coedge $-1 $166 $105 $274 $277 forward $175 $-1 #
coedge $-1 $105 $166 $270 $278 reversed $175 $-1 #
loop $-1 $-1 $173 $254 #
vertex $-1 $106 $279 #
vertex $-1 $106 $280 #
straight-curve $-1 43.516953032013916 0 4.0519655343509431 0 1 0 I I #
face $-1 $281 $282 $25 $-1 $283 forward single #
loop $-1 $-1 $284 $107 #
plane-surface $-1 -43.516953032013916 0 0 1 0 0 0 0 -1 forward_v I I I I #
coedge $-1 $189 $285 $191 $286 forward $108 $-1 #
coedge $-1 $110 $191 $287 $288 reversed $69 $-1 #
coedge $-1 $289 $187 $110 $185 forward $290 $-1 #
edge $-1 $193 -0.22401723282452846 $291 2.7759827671754715 $184 $292 forward 7 unknown #
coedge $-1 $112 $111 $284 $293 reversed $44 $-1 #
coedge $-1 $184 $294 $111 $188 forward $290 $-1 #
edge $-1 $295 -22.508476516006958 $193 -19.508476516006958 $187 $296 forward 7 unknown #
coedge $-1 $297 $182 $112 $190 forward $108 $-1 #
edge $-1 $192 19.508476516006958 $298 22.508476516006958 $189 $299 forward 7 unknown #
coedge $-1 $183 $113 $182 $286 reversed $69 $-1 #
vertex $-1 $190 $300 #
vertex $-1 $188 $301 #
straight-curve $-1 -40.516953032013916 0 1.0519655343509431 0 -1 0 I I #
face $-1 $-1 $208 $26 $-1 $302 reversed single #
loop $-1 $-1 $204 $115 #
plane-surface $-1 0 -18.63710761707992 0 0 1 0 0 0 1 forward_v I I I I #
coedge $-1 $303 $304 $200 $305 forward $116 $-1 #
coedge $-1 $200 $118 $120 $206 reversed $73 $-1 #
coedge $-1 $118 $199 $198 $305 reversed $73 $-1 #
coedge $-1 $306 $121 $118 $202 forward $208 $-1 #
edge $-1 $210 -61.266920336180547 $307 -57.297270535039118 $201 $308 forward 7 unknown #
coedge $-1 $120 $119 $303 $309 reversed $47 $-1 #
coedge $-1 $310 $311 $119 $205 forward $196 $-1 #
edge $-1 $312 52.289493441485362 $209 57.471503171935723 $204 $313 forward 7 unknown #
edge $-1 $314 81.8518963335775 $210 87.03390606402786 $199 $315 forward 7 unknown #
coedge $-1 $121 $306 $310 $316 forward $208 $-1 #
loop $-1 $-1 $201 $195 #
vertex $-1 $205 $317 #
vertex $-1 $122 $318 #
straight-curve $-1 43.516953032013909 -7.2942125445096035 0.082315733209512132 0 1 0 I I #
coedge $-1 $212 $212 $-1 $319 reversed $125 $-1 #
edge $-1 $320 0 $320 6.2831853071796004 $126 $321 forward 7 unknown #
vertex $-1 $129 $322 #
ellipse-curve $-1 41.851487233597439 -14.588425089019207 2.0671406337802249 0.7660444514056185 0 0.64278759981090561 0.64278759981090561 0 -0.7660444514056185 1 I I #
face $-1 $-1 $323 $28 $-1 $324 forward single #
loop $-1 $-1 $136 $130 #
plane-surface $-1 43.516953032013916 0 0 -1 0 0 0 0 1 forward_v I I I I #
coedge $-1 $325 $326 $327 $328 reversed $131 $-1 #
coedge $-1 $329 $133 $135 $226 forward $82 $-1 #
coedge $-1 $133 $329 $325 $330 forward $82 $-1 #
coedge $-1 $327 $136 $133 $223 forward $217 $-1 #
edge $-1 $229 -5.1305258668770097 $331 2.9668391892444159 $222 $332 forward 7 unknown #
coedge $-1 $333 $334 $134 $225 forward $323 $-1 #
edge $-1 $335 13.063782297452981 $228 16.394713894285928 $224 $336 forward 7 unknown #
edge $-1 $229 -87.03390606402786 $335 -81.8518963335775 $135 $337 forward 7 unknown #
coedge $-1 $136 $327 $333 $338 reversed $217 $-1 #
vertex $-1 $338 $339 #
vertex $-1 $137 $340 #
straight-curve $-1 43.516953032013916 -6.2123692056933066 61.349236069390059 0 0 -1 I I #
coedge $-1 $231 $231 $-1 $341 reversed $140 $-1 #
edge $-1 $342 0 $342 6.2831853071796004 $141 $343 forward 7 unknown #
vertex $-1 $144 $344 #
ellipse-curve $-1 41.851487233597439 -2.1636866776325938 2.0671406337802249 0.7660444514056185 0 0.64278759981090561 0.64278759981090561 0 -0.7660444514056185 1 I I #
face $-1 $-1 $345 $30 $-1 $346 forward single #
loop $-1 $-1 $151 $145 #
plane-surface $-1 43.516953032013916 0 0 -1 0 0 0 0 1 forward_v I I I I #
coedge $-1 $347 $348 $349 $350 reversed $146 $-1 #
coedge $-1 $351 $148 $150 $245 forward $91 $-1 #
coedge $-1 $148 $351 $347 $352 forward $91 $-1 #
coedge $-1 $349 $151 $148 $242 forward $236 $-1 #
edge $-1 $248 1.0818433388162969 $353 9.1792083949377226 $241 $354 forward 7 unknown #
coedge $-1 $355 $356 $149 $244 forward $345 $-1 #
edge $-1 $357 13.063782297452981 $247 16.394713894285928 $243 $358 forward 7 unknown #
edge $-1 $248 -87.03390606402786 $357 -81.8518963335775 $150 $359 forward 7 unknown #
coedge $-1 $151 $349 $355 $360 reversed $236 $-1 #
vertex $-1 $360 $361 #
vertex $-1 $152 $362 #
straight-curve $-1 43.516953032013916 6.2123692056933066 61.349236069390059 0 0 -1 I I #
coedge $-1 $250 $250 $-1 $363 reversed $155 $-1 #
edge $-1 $364 0 $364 6.2831853071796004 $156 $365 forward 7 unknown #
vertex $-1 $159 $366 #
ellipse-curve $-1 41.851487233597439 10.261051733754019 2.0671406337802249 0.7660444514056185 0 0.64278759981090561 0.64278759981090561 0 -0.7660444514056185 1 I I #
face $-1 $-1 $175 $24 $-1 $367 reversed single #
loop $-1 $-1 $270 $160 #
plane-surface $-1 0 18.63710761707992 0 0 -1 0 0 0 -1 forward_v I I I I #
coedge $-1 $368 $268 $271 $369 forward $161 $-1 #
coedge $-1 $274 $163 $164 $262 reversed $100 $-1 #
coedge $-1 $268 $368 $163 $260 reversed $161 $-1 #
edge $-1 $275 -4.0519655343509431 $370 4.0519655343509431 $259 $371 forward 7 unknown #
coedge $-1 $165 $164 $368 $372 forward $65 $-1 #
edge $-1 $266 -43.516953032013916 $370 43.516953032013916 $258 $373 forward 7 unknown #
coedge $-1 $271 $270 $165 $264 reversed $255 $-1 #
edge $-1 $374 -43.516953032013916 $265 43.516953032013916 $263 $375 forward 7 unknown #
vertex $-1 $167 $376 #
vertex $-1 $277 $377 #
straight-curve $-1 43.516953032013916 0 -4.0519655343509431 0 -1 0 I I #
coedge $-1 $257 $259 $168 $269 reversed $161 $-1 #
edge $-1 $272 -18.63710761707992 $275 18.63710761707992 $268 $378 forward 7 unknown #
coedge $-1 $263 $169 $174 $278 forward $255 $-1 #
coedge $-1 $169 $263 $257 $369 reversed $255 $-1 #
vertex $-1 $170 $379 #
straight-curve $-1 0 18.63710761707992 4.0519655343509431 -1 0 0 I I #
coedge $-1 $171 $258 $173 $277 reversed $100 $-1 #
vertex $-1 $269 $380 #
straight-curve $-1 0 -18.63710761707992 4.0519655343509431 1 0 0 I I #
edge $-1 $176 -4.0519655343509431 $266 4.0519655343509431 $173 $381 forward 7 unknown #
edge $-1 $177 -4.0519655343509431 $265 4.0519655343509431 $174 $382 forward 7 unknown #
point $-1 43.516953032013916 -18.63710761707992 4.0519655343509431 #
point $-1 43.516953032013916 18.63710761707992 4.0519655343509431 #
face $-1 $-1 $290 $25 $-1 $383 reversed single #
loop $-1 $-1 $287 $179 #
plane-surface $-1 0 0 4.0519655343509431 0 0 1 1 0 0 forward_v I I I I #
coedge $-1 $384 $385 $186 $293 forward $180 $-1 #
coedge $-1 $182 $297 $386 $387 reversed $108 $-1 #
edge $-1 $388 -2.7759827671754715 $192 0.22401723282452846 $182 $389 forward 7 unknown #
coedge $-1 $386 $390 $183 $288 forward $282 $-1 #
edge $-1 $291 -18.63710761707992 $388 18.63710761707992 $287 $391 forward 7 unknown #
coedge $-1 $294 $184 $390 $392 reversed $290 $-1 #
loop $-1 $-1 $184 $281 #
vertex $-1 $185 $393 #
straight-curve $-1 -40.516953032013916 -18.63710761707992 1.2759827671754715 0 0 1 I I #
edge $-1 $298 -18.63710761707992 $295 18.63710761707992 $284 $394 forward 7 unknown #
coedge $-1 $187 $289 $384 $395 forward $290 $-1 #
vertex $-1 $293 $396 #
straight-curve $-1 -21.008476516006958 -18.63710761707992 1.0519655343509431 1 0 0 I I #
coedge $-1 $285 $189 $385 $397 reversed $108 $-1 #
vertex $-1 $293 $398 #
straight-curve $-1 -21.008476516006958 18.63710761707992 1.0519655343509431 -1 0 0 I I #
point $-1 -40.516953032013916 18.63710761707992 1.0519655343509431 #
point $-1 -40.516953032013916 -18.63710761707992 1.0519655343509431 #
plane-surface $-1 43.516953032013916 0 0 -1 0 0 0 0 1 forward_v I I I I #
coedge $-1 $399 $198 $203 $309 forward $116 $-1 #
coedge $-1 $198 $399 $306 $400 forward $116 $-1 #
edge $-1 $307 -16.394713894285928 $314 -13.063782297452981 $198 $401 forward 7 unknown #
coedge $-1 $207 $201 $304 $400 reversed $208 $-1 #
vertex $-1 $305 $402 #
straight-curve $-1 43.516953032013916 -10.539742560958494 61.349236069390059 0 0 1 I I #
edge $-1 $314 3.2455300164488907 $312 11.342895072570316 $303 $403 forward 7 unknown #
coedge $-1 $311 $204 $207 $316 reversed $196 $-1 #
coedge $-1 $204 $310 $399 $404 reversed $196 $-1 #
vertex $-1 $404 $405 #
straight-curve $-1 6.5749834506005058 -18.63710761707992 44.108041852011269 0.64278759981090572 0 -0.76604445140561861 I I #
vertex $-1 $309 $406 #
straight-curve $-1 -12.427362549050358 -10.539742560958494 66.754156557715845 0.64278759981090561 0 -0.7660444514056185 I I #
edge $-1 $407 -4.0519655343509431 $209 -0.082315733209511383 $207 $408 forward 7 unknown #
point $-1 43.516953032013916 -18.63710761707992 0.082315733209511383 #
point $-1 43.516953032013916 -10.539742560958494 0.082315733209512132 #
edge $-1 $409 1 $409 0 $212 $-1 forward 7 unknown #
vertex $-1 $213 $410 #
ellipse-curve $-1 40.721579265797978 -14.588425089019207 1.1190352995579576 0.7660444514056185 0 0.64278759981090561 0.64278759981090561 0 -0.7660444514056185 1 I I #
point $-1 42.49427483340834 -14.588425089019207 1.3010961823746015 #
loop $-1 $-1 $224 $216 #
plane-surface $-1 0 0 4.0519655343509431 0 0 1 1 0 0 forward_v I I I I #
coedge $-1 $326 $219 $221 $330 reversed $131 $-1 #
coedge $-1 $219 $325 $411 $412 reversed $131 $-1 #
coedge $-1 $227 $222 $219 $328 forward $217 $-1 #
edge $-1 $331 -61.266920336180547 $413 -57.297270535039118 $327 $414 forward 7 unknown #
coedge $-1 $221 $220 $334 $415 reversed $82 $-1 #
edge $-1 $416 81.8518963335775 $331 87.03390606402786 $325 $417 forward 7 unknown #
vertex $-1 $223 $418 #
straight-curve $-1 43.516953032013909 -1.0818433388162969 0.082315733209512132 0 1 0 I I #
coedge $-1 $411 $224 $227 $338 forward $323 $-1 #
coedge $-1 $224 $411 $329 $415 forward $323 $-1 #
vertex $-1 $225 $419 #
straight-curve $-1 27.122239137727988 -6.2123692056933066 4.0519655343509413 1 0 0 I I #
straight-curve $-1 -12.427362549050358 -6.2123692056933066 66.754156557715845 -0.64278759981090561 0 0.7660444514056185 I I #
edge $-1 $228 -6.2123692056933066 $413 1.884995850428119 $227 $420 forward 7 unknown #
point $-1 43.516953032013916 -6.2123692056933066 4.0519655343509431 #
point $-1 43.516953032013916 -6.2123692056933066 0.082315733209512132 #
edge $-1 $421 1 $421 0 $231 $-1 forward 7 unknown #
vertex $-1 $232 $422 #
ellipse-curve $-1 40.721579265797978 -2.1636866776325938 1.1190352995579576 0.7660444514056185 0 0.64278759981090561 0.64278759981090561 0 -0.7660444514056185 1 I I #
point $-1 42.49427483340834 -2.1636866776325938 1.3010961823746015 #
loop $-1 $-1 $243 $235 #
plane-surface $-1 0 0 4.0519655343509431 0 0 1 1 0 0 forward_v I I I I #
coedge $-1 $348 $238 $240 $352 reversed $146 $-1 #
coedge $-1 $238 $347 $423 $424 reversed $146 $-1 #
coedge $-1 $246 $241 $238 $350 forward $236 $-1 #
edge $-1 $353 -61.266920336180547 $425 -57.297270535039118 $349 $426 forward 7 unknown #
coedge $-1 $240 $239 $356 $427 reversed $91 $-1 #
edge $-1 $428 81.8518963335775 $353 87.03390606402786 $347 $429 forward 7 unknown #
vertex $-1 $242 $430 #
straight-curve $-1 43.516953032013909 5.1305258668770097 0.082315733209512132 0 1 0 I I #
coedge $-1 $423 $243 $246 $360 forward $345 $-1 #
coedge $-1 $243 $423 $351 $427 forward $345 $-1 #
vertex $-1 $244 $431 #
straight-curve $-1 27.122239137727988 6.2123692056933066 4.0519655343509413 1 0 0 I I #
straight-curve $-1 -12.427362549050358 6.2123692056933066 66.754156557715845 -0.64278759981090561 0 0.7660444514056185 I I #
edge $-1 $247 6.2123692056933066 $425 14.309734261814732 $246 $432 forward 7 unknown #
point $-1 43.516953032013916 6.2123692056933066 4.0519655343509431 #
point $-1 43.516953032013916 6.2123692056933066 0.082315733209512132 #
edge $-1 $433 1 $433 0 $250 $-1 forward 7 unknown #
vertex $-1 $251 $434 #
ellipse-curve $-1 40.721579265797978 10.261051733754019 1.1190352995579576 0.7660444514056185 0 0.64278759981090561 0.64278759981090561 0 -0.7660444514056185 1 I I #
point $-1 42.49427483340834 10.261051733754019 1.3010961823746015 #
plane-surface $-1 43.516953032013916 0 0 -1 0 0 0 0 1 forward_v I I I I #
coedge $-1 $259 $257 $261 $372 reversed $161 $-1 #
edge $-1 $272 -4.0519655343509431 $374 4.0519655343509431 $271 $435 forward 7 unknown #
vertex $-1 $372 $436 #
straight-curve $-1 -43.516953032013916 -18.63710761707992 0 0 0 -1 I I #
edge $-1 $370 -18.63710761707992 $374 18.63710761707992 $368 $437 forward 7 unknown #
straight-curve $-1 0 -18.63710761707992 -4.0519655343509431 -1 0 0 I I #
vertex $-1 $264 $438 #
straight-curve $-1 0 18.63710761707992 -4.0519655343509431 1 0 0 I I #
point $-1 43.516953032013916 18.63710761707992 -4.0519655343509431 #
point $-1 43.516953032013916 -18.63710761707992 -4.0519655343509431 #
straight-curve $-1 -43.516953032013916 0 4.0519655343509431 0 -1 0 I I #
point $-1 -43.516953032013916 18.63710761707992 4.0519655343509431 #
point $-1 -43.516953032013916 -18.63710761707992 4.0519655343509431 #
straight-curve $-1 43.516953032013916 -18.63710761707992 0 0 0 -1 I I #
straight-curve $-1 43.516953032013916 18.63710761707992 0 0 0 -1 I I #
plane-surface $-1 0 -18.63710761707992 0 0 1 0 0 0 1 forward_v I I I I #
coedge $-1 $439 $284 $294 $395 reversed $180 $-1 #
coedge $-1 $284 $439 $297 $397 forward $180 $-1 #
coedge $-1 $440 $287 $285 $387 forward $282 $-1 #
edge $-1 $388 40.516953032013916 $441 43.516953032013916 $285 $442 forward 7 unknown #
vertex $-1 $387 $443 #
straight-curve $-1 -40.516953032013916 18.63710761707992 1.2759827671754715 0 0 -1 I I #
coedge $-1 $287 $440 $289 $392 forward $282 $-1 #
straight-curve $-1 -40.516953032013916 0 4.0519655343509431 0 1 0 I I #
edge $-1 $444 -43.516953032013916 $291 -40.516953032013916 $289 $445 forward 7 unknown #
point $-1 -40.516953032013916 -18.63710761707992 4.0519655343509431 #
straight-curve $-1 -43.516953032013916 0 1.0519655343509431 0 -1 0 I I #
edge $-1 $444 -4.0519655343509431 $295 -1.0519655343509431 $384 $446 forward 7 unknown #
point $-1 -43.516953032013916 -18.63710761707992 1.0519655343509431 #
edge $-1 $441 -4.0519655343509431 $298 -1.0519655343509431 $297 $447 forward 7 unknown #
point $-1 -43.516953032013916 18.63710761707992 1.0519655343509431 #
coedge $-1 $304 $303 $311 $404 forward $116 $-1 #
edge $-1 $407 -18.63710761707992 $307 -10.539742560958494 $306 $448 forward 7 unknown #
straight-curve $-1 27.122239137727988 -10.539742560958494 4.0519655343509413 -1 0 0 I I #
point $-1 43.516953032013916 -10.539742560958494 4.0519655343509431 #
straight-curve $-1 40.186021435180969 -7.2942125445096035 4.0519655343509413 0 -1 0 I I #
edge $-1 $312 40.186021435180969 $407 43.516953032013916 $311 $449 forward 7 unknown #
point $-1 40.186021435180969 -18.63710761707992 4.0519655343509342 #
point $-1 40.186021435180969 -10.539742560958494 4.0519655343509342 #
vertex $-1 $400 $450 #
straight-curve $-1 43.516953032013916 -18.63710761707992 0 0 0 -1 I I #
vertex $-1 $319 $451 #
point $-1 41.364366865608886 -14.588425089019207 0.35299084815233905 #
coedge $-1 $334 $333 $326 $412 forward $323 $-1 #
edge $-1 $413 -16.394713894285928 $416 -13.063782297452981 $411 $452 forward 7 unknown #
vertex $-1 $412 $453 #
straight-curve $-1 43.516953032013916 1.884995850428119 61.349236069390059 0 0 1 I I #
edge $-1 $416 -2.9668391892444159 $335 5.1305258668770097 $334 $454 forward 7 unknown #
vertex $-1 $415 $455 #
straight-curve $-1 -12.427362549050358 1.884995850428119 66.754156557715845 0.64278759981090561 0 -0.7660444514056185 I I #
point $-1 43.516953032013916 1.884995850428119 0.082315733209512132 #
point $-1 40.186021435180969 -6.2123692056933066 4.0519655343509342 #
straight-curve $-1 43.516953032013916 0 4.0519655343509431 0 1 0 I I #
vertex $-1 $341 $456 #
point $-1 41.364366865608886 -2.1636866776325938 0.35299084815233905 #
coedge $-1 $356 $355 $348 $424 forward $345 $-1 #
edge $-1 $425 -16.394713894285928 $428 -13.063782297452981 $423 $457 forward 7 unknown #
vertex $-1 $424 $458 #
straight-curve $-1 43.516953032013916 14.309734261814732 61.349236069390059 0 0 1 I I #
edge $-1 $428 -9.1792083949377226 $357 -1.0818433388162969 $356 $459 forward 7 unknown #
vertex $-1 $427 $460 #
straight-curve $-1 -12.427362549050358 14.309734261814732 66.754156557715845 0.64278759981090561 0 -0.7660444514056185 I I #
point $-1 43.516953032013916 14.309734261814732 0.082315733209512132 #
point $-1 40.186021435180969 6.2123692056933066 4.0519655343509342 #
straight-curve $-1 43.516953032013916 0 4.0519655343509431 0 1 0 I I #
vertex $-1 $363 $461 #
point $-1 41.364366865608886 10.261051733754019 0.35299084815233905 #
straight-curve $-1 -43.516953032013916 18.63710761707992 0 0 0 -1 I I #
point $-1 -43.516953032013916 -18.63710761707992 -4.0519655343509431 #
straight-curve $-1 -43.516953032013916 0 -4.0519655343509431 0 1 0 I I #
point $-1 -43.516953032013916 18.63710761707992 -4.0519655343509431 #
coedge $-1 $385 $384 $440 $462 reversed $180 $-1 #
coedge $-1 $390 $386 $439 $462 forward $282 $-1 #
vertex $-1 $387 $463 #
straight-curve $-1 0 18.63710761707992 4.0519655343509431 -1 0 0 I I #
point $-1 -40.516953032013916 18.63710761707992 4.0519655343509431 #
vertex $-1 $462 $464 #
straight-curve $-1 0 -18.63710761707992 4.0519655343509431 1 0 0 I I #
straight-curve $-1 -43.516953032013916 -18.63710761707992 0 0 0 -1 I I #
straight-curve $-1 -43.516953032013916 18.63710761707992 0 0 0 -1 I I #
straight-curve $-1 43.516953032013916 0 4.0519655343509431 0 1 0 I I #
straight-curve $-1 0 -18.63710761707992 4.0519655343509431 1 0 0 I I #
point $-1 43.516953032013916 -18.63710761707992 4.0519655343509431 #
point $-1 39.955534814392358 -14.588425089019207 0.47624769974705194 #
straight-curve $-1 27.122239137727988 1.884995850428119 4.0519655343509413 -1 0 0 I I #
point $-1 43.516953032013916 1.884995850428119 4.0519655343509431 #
straight-curve $-1 40.186021435180969 -1.0818433388162969 4.0519655343509413 0 -1 0 I I #
point $-1 40.186021435180969 1.884995850428119 4.0519655343509342 #
point $-1 39.955534814392358 -2.1636866776325938 0.47624769974705194 #
straight-curve $-1 27.122239137727988 14.309734261814732 4.0519655343509413 -1 0 0 I I #
point $-1 43.516953032013916 14.309734261814732 4.0519655343509431 #
straight-curve $-1 40.186021435180969 5.1305258668770097 4.0519655343509413 0 -1 0 I I #
point $-1 40.186021435180969 14.309734261814732 4.0519655343509342 #
point $-1 39.955534814392358 10.261051733754019 0.47624769974705194 #
edge $-1 $441 -18.63710761707992 $444 18.63710761707992 $439 $465 forward 7 unknown #
point $-1 -43.516953032013916 18.63710761707992 4.0519655343509431 #
point $-1 -43.516953032013916 -18.63710761707992 4.0519655343509431 #
straight-curve $-1 -43.516953032013916 0 4.0519655343509431 0 -1 0 I I #
End-of-ACIS-data 