500 0 8 0           
7 Unknown 11 ACIS 5.0 NT 24 Fri Mar 26 15:51:28 1999 
-1 9.9999999999999995e-007 1e-010 
body $-1 $8 $-1 $9 #
body $-1 $10 $-1 $11 #
body $-1 $12 $-1 $13 #
body $-1 $14 $-1 $15 #
body $-1 $16 $-1 $17 #
body $-1 $18 $-1 $19 #
body $-1 $20 $-1 $21 #
body $-1 $22 $-1 $23 #
lump $-1 $-1 $24 $0 #
transform $-1 1 0 0 0 1 0 0 0 1 40.151371807000949 20.020789774561184 8.8715432969365082 1 rotate no_reflect no_shear #
lump $-1 $-1 $25 $1 #
transform $-1 1 0 0 0 1 0 0 0 1 40.151371807000949 20.020789774561184 8.8715432969365082 1 rotate no_reflect no_shear #
lump $-1 $-1 $26 $2 #
transform $-1 1 0 0 0 1 0 0 0 1 40.151371807000949 20.020789774561184 8.8715432969365082 1 rotate no_reflect no_shear #
lump $-1 $-1 $27 $3 #
transform $-1 1 0 0 0 1 0 0 0 1 40.151371807000949 20.020789774561184 8.8715432969365082 1 rotate no_reflect no_shear #
lump $-1 $-1 $28 $4 #
transform $-1 1 0 0 0 1 0 0 0 1 40.151371807000949 20.020789774561184 8.8715432969365082 1 rotate no_reflect no_shear #
lump $-1 $-1 $29 $5 #
transform $-1 1 0 0 0 1 0 0 0 1 40.151371807000949 20.020789774561184 8.8715432969365082 1 rotate no_reflect no_shear #
lump $-1 $-1 $30 $6 #
transform $-1 1 0 0 0 1 0 0 0 1 40.151371807000949 20.020789774561184 8.8715432969365082 1 rotate no_reflect no_shear #
lump $-1 $-1 $31 $7 #
transform $-1 1 0 0 0 1 0 0 0 1 40.151371807000949 20.020789774561184 8.8715432969365082 1 rotate no_reflect no_shear #
shell $-1 $-1 $-1 $32 $-1 $8 #
shell $-1 $-1 $-1 $33 $-1 $10 #
shell $-1 $-1 $-1 $34 $-1 $12 #
shell $-1 $-1 $-1 $35 $-1 $14 #
shell $-1 $-1 $-1 $36 $-1 $16 #
shell $-1 $-1 $-1 $37 $-1 $18 #
shell $-1 $-1 $-1 $38 $-1 $20 #
shell $-1 $-1 $-1 $39 $-1 $22 #
face $-1 $40 $41 $24 $-1 $42 forward single #
face $-1 $43 $44 $25 $-1 $45 forward single #
face $-1 $46 $47 $26 $-1 $48 forward single #
face $-1 $49 $50 $27 $-1 $51 reversed single #
face $-1 $52 $53 $28 $-1 $54 forward single #
face $-1 $55 $56 $29 $-1 $57 reversed single #
face $-1 $58 $59 $30 $-1 $60 forward single #
face $-1 $61 $62 $31 $-1 $63 forward single #
face $-1 $64 $65 $24 $-1 $66 reversed single #
loop $-1 $-1 $67 $32 #
plane-surface $-1 0 0 8.8715432969365082 0 0 1 1 0 0 forward_v I I I I #
face $-1 $68 $69 $25 $-1 $70 reversed single #
loop $-1 $-1 $71 $33 #
plane-surface $-1 -35.04701929920914 0 7.2243238377193313 0 0 1 1 0 0 forward_v I I I I #
face $-1 $72 $73 $26 $-1 $74 reversed single #
loop $-1 $-1 $75 $34 #
plane-surface $-1 35.047019299209147 0 7.2243238377193313 0 0 1 1 0 0 forward_v I I I I #
face $-1 $76 $77 $27 $-1 $78 reversed single #
loop $-1 $-1 $79 $35 #
plane-surface $-1 22.785435838409704 -60.172162119489045 71.127365926750429 1 0 0 0 0.50000000669873634 -0.8660253999169214 forward_v I I I I #
face $-1 $80 $81 $28 $-1 $82 forward single #
loop $-1 $83 $84 $36 #
cone-surface $-1 26.364051314913517 -13.010714944565903 4.0181303757615083 0 0.50000000669873634 -0.8660253999169214 1 0 0 1 I I 0 1 1 forward I I I I #
face $-1 $85 $86 $29 $-1 $87 reversed single #
loop $-1 $-1 $88 $37 #
plane-surface $-1 -18.481778450112063 61.451225223960293 79.619276926167473 -1 0 0 0 0.80901700255871778 0.5877852410284794 forward_v I I I I #
face $-1 $89 $90 $30 $-1 $91 forward single #
loop $-1 $92 $93 $38 #
cone-surface $-1 -23.969170371968023 15.665555377144383 3.618703621992954 0 -0.80901700255871778 -0.5877852410284794 1 0 0 1 I I 0 1 1 forward I I I I #
face $-1 $94 $95 $31 $-1 $96 forward single #
loop $-1 $97 $98 $39 #
cone-surface $-1 -20.67673521885445 15.665555377144383 3.618703621992954 0 -0.80901700255871778 -0.5877852410284794 1 0 0 1 I I 0 1 1 forward I I I I #
face $-1 $99 $100 $24 $-1 $101 reversed single #
loop $-1 $-1 $102 $40 #
plane-surface $-1 0 0 -8.8715432969365082 0 0 1 1 0 0 forward_v I I I I #
coedge $-1 $103 $104 $105 $106 forward $41 $-1 #
face $-1 $107 $108 $25 $-1 $109 reversed single #
loop $-1 $-1 $110 $43 #
plane-surface $-1 -35.04701929920914 0 4.2243238377193331 0 0 1 1 0 0 forward_v I I I I #
coedge $-1 $111 $112 $113 $114 forward $44 $-1 #
face $-1 $115 $116 $26 $-1 $117 reversed single #
loop $-1 $-1 $118 $46 #
plane-surface $-1 35.047019299209147 0 4.2243238377193331 0 0 1 1 0 0 forward_v I I I I #
coedge $-1 $119 $120 $121 $122 reversed $47 $-1 #
face $-1 $123 $124 $27 $-1 $125 forward single #
loop $-1 $-1 $126 $49 #
plane-surface $-1 26.364051314913517 -20.020789774561187 1.5831502740084318 0 -0.50000000669873634 0.8660253999169214 1 0 0 forward_v I I I I #
coedge $-1 $127 $128 $129 $130 reversed $50 $-1 #
face $-1 $-1 $131 $28 $-1 $132 forward single #
loop $-1 $133 $134 $52 #
cone-surface $-1 26.364051314913517 -12.062573509090292 2.3759012660920877 0 0.50000000669873634 -0.8660253999169214 0.5 0 0 1 I I -0.70710678118654746 0.70710678118654746 0.5 forward I I I I #
loop $-1 $-1 $135 $36 #
coedge $-1 $84 $84 $136 $137 reversed $53 $-1 #
face $-1 $138 $139 $29 $-1 $140 reversed single #
loop $-1 $-1 $141 $55 #
plane-surface $-1 -22.322952795411233 -3.5150597118807383 32.418509415763182 0 0.80901700255871778 0.5877852410284794 1 0 0 forward_v I I I I #
coedge $-1 $142 $143 $144 $145 reversed $56 $-1 #
face $-1 $-1 $146 $30 $-1 $147 forward single #
loop $-1 $148 $149 $58 #
cone-surface $-1 -23.969170371968023 14.119801326706675 2.4956475993955394 0 -0.80901700255871778 -0.5877852410284794 0.5 0 0 1 I I -0.70710678118654746 0.70710678118654746 0.5 forward I I I I #
loop $-1 $-1 $150 $38 #
coedge $-1 $93 $93 $151 $152 reversed $59 $-1 #
face $-1 $-1 $153 $31 $-1 $154 forward single #
loop $-1 $155 $156 $61 #
cone-surface $-1 -20.67673521885445 14.119801326706675 2.4956475993955394 0 -0.80901700255871778 -0.5877852410284794 0.5 0 0 1 I I -0.70710678118654746 0.70710678118654746 0.5 forward I I I I #
loop $-1 $-1 $157 $39 #
coedge $-1 $98 $98 $158 $159 reversed $62 $-1 #
face $-1 $160 $161 $24 $-1 $162 reversed single #
loop $-1 $-1 $163 $64 #
plane-surface $-1 0 -20.020789774561184 0 0 1 0 0 0 1 forward_v I I I I #
coedge $-1 $164 $165 $166 $167 forward $65 $-1 #
coedge $-1 $168 $67 $169 $170 forward $41 $-1 #
coedge $-1 $67 $168 $171 $172 forward $41 $-1 #
coedge $-1 $173 $174 $67 $106 reversed $175 $-1 #
edge $-1 $176 -20.020789774561184 $177 20.020789774561184 $105 $178 forward 7 unknown #
face $-1 $179 $180 $25 $-1 $181 reversed single #
loop $-1 $-1 $182 $68 #
plane-surface $-1 -29.942666791417327 0 5.7243238377193322 -1 0 0 0 0 1 forward_v I I I I #
coedge $-1 $183 $184 $185 $186 forward $69 $-1 #
coedge $-1 $187 $71 $188 $189 reversed $44 $-1 #
coedge $-1 $71 $187 $190 $191 reversed $44 $-1 #
coedge $-1 $182 $192 $71 $114 reversed $108 $-1 #
edge $-1 $193 -20.020789774561184 $194 20.020789774561184 $113 $195 forward 7 unknown #
face $-1 $196 $197 $26 $-1 $198 reversed single #
loop $-1 $-1 $199 $72 #
plane-surface $-1 29.942666791417338 0 5.7243238377193322 1 0 0 0 0 -1 forward_v I I I I #
coedge $-1 $200 $201 $202 $203 reversed $73 $-1 #
coedge $-1 $204 $75 $205 $206 reversed $47 $-1 #
coedge $-1 $75 $204 $207 $208 reversed $47 $-1 #
coedge $-1 $209 $210 $75 $122 forward $211 $-1 #
edge $-1 $212 -20.020789774561184 $213 20.020789774561184 $121 $214 forward 7 unknown #
face $-1 $215 $216 $27 $-1 $217 reversed single #
loop $-1 $-1 $218 $76 #
plane-surface $-1 0 0 8.8715432969365082 0 0 1 1 0 0 forward_v I I I I #
coedge $-1 $219 $220 $221 $222 reversed $77 $-1 #
coedge $-1 $128 $79 $223 $224 reversed $50 $-1 #
coedge $-1 $79 $127 $219 $225 reversed $50 $-1 #
coedge $-1 $221 $226 $79 $130 forward $216 $-1 #
edge $-1 $227 26.692139666438706 $228 33.980532689366783 $129 $229 forward 7 unknown #
loop $-1 $-1 $136 $80 #
plane-surface $-1 26.364051314913517 -20.020789774561187 1.5831502740084318 0 -0.50000000669873634 0.8660253999169214 1 0 0 forward_v I I I I #
loop $-1 $-1 $230 $52 #
coedge $-1 $134 $134 $135 $231 reversed $81 $-1 #
coedge $-1 $135 $135 $134 $231 forward $83 $-1 #
coedge $-1 $136 $136 $84 $137 forward $131 $-1 #
edge $-1 $232 -1.5702543683613894e-015 $232 6.2831853071795987 $136 $233 forward 7 unknown #
face $-1 $234 $235 $29 $-1 $236 reversed single #
loop $-1 $-1 $237 $85 #
plane-surface $-1 -26.164127140710402 61.451225223960293 79.619276926167473 1 0 0 0 -0.80901700255871778 -0.5877852410284794 forward_v I I I I #
coedge $-1 $238 $239 $240 $241 reversed $86 $-1 #
coedge $-1 $143 $88 $242 $243 reversed $56 $-1 #
coedge $-1 $88 $142 $238 $244 reversed $56 $-1 #
coedge $-1 $240 $245 $88 $145 forward $235 $-1 #
edge $-1 $246 30.938095166147228 $247 39.785447711867988 $144 $248 forward 7 unknown #
loop $-1 $-1 $151 $89 #
plane-surface $-1 -22.322952795411233 -3.5150597118807383 32.418509415763182 0 0.80901700255871778 0.5877852410284794 1 0 0 forward_v I I I I #
loop $-1 $-1 $249 $58 #
coedge $-1 $149 $149 $150 $250 reversed $90 $-1 #
coedge $-1 $150 $150 $149 $250 forward $92 $-1 #
coedge $-1 $151 $151 $93 $152 forward $146 $-1 #
edge $-1 $251 6.5112978031266002e-016 $251 6.2831853071796013 $151 $252 forward 7 unknown #
loop $-1 $-1 $158 $94 #
plane-surface $-1 -22.322952795411233 -3.5150597118807383 32.418509415763182 0 0.80901700255871778 0.5877852410284794 1 0 0 forward_v I I I I #
loop $-1 $-1 $253 $61 #
coedge $-1 $156 $156 $157 $254 reversed $95 $-1 #
coedge $-1 $157 $157 $156 $254 forward $97 $-1 #
coedge $-1 $158 $158 $98 $159 forward $153 $-1 #
edge $-1 $255 6.5112978031266002e-016 $255 6.2831853071796013 $158 $256 forward 7 unknown #
face $-1 $257 $258 $24 $-1 $259 reversed single #
loop $-1 $-1 $260 $99 #
plane-surface $-1 -40.151371807000949 0 0 1 0 0 0 0 -1 forward_v I I I I #
coedge $-1 $261 $171 $262 $263 forward $100 $-1 #
coedge $-1 $264 $102 $261 $265 forward $65 $-1 #
coedge $-1 $102 $264 $266 $267 forward $65 $-1 #
coedge $-1 $174 $173 $102 $167 reversed $175 $-1 #
edge $-1 $268 -20.020789774561184 $269 20.020789774561184 $166 $270 forward 7 unknown #
coedge $-1 $104 $103 $271 $272 forward $41 $-1 #
coedge $-1 $273 $274 $103 $170 reversed $258 $-1 #
edge $-1 $177 -40.151371807000949 $275 40.151371807000949 $169 $276 forward 7 unknown #
coedge $-1 $163 $277 $104 $172 reversed $100 $-1 #
edge $-1 $278 -40.151371807000949 $176 40.151371807000949 $171 $279 forward 7 unknown #
coedge $-1 $166 $105 $277 $280 forward $175 $-1 #
coedge $-1 $105 $166 $273 $281 reversed $175 $-1 #
loop $-1 $-1 $173 $257 #
vertex $-1 $106 $282 #
vertex $-1 $106 $283 #
straight-curve $-1 40.151371807000949 0 8.8715432969365082 0 1 0 I I #
face $-1 $284 $285 $25 $-1 $286 reversed single #
loop $-1 $-1 $287 $107 #
plane-surface $-1 0 -20.020789774561184 0 0 1 0 0 0 1 forward_v I I I I #
coedge $-1 $185 $113 $288 $289 reversed $108 $-1 #
coedge $-1 $290 $110 $287 $291 reversed $69 $-1 #
coedge $-1 $110 $290 $292 $293 reversed $69 $-1 #
coedge $-1 $192 $182 $110 $186 reversed $108 $-1 #
edge $-1 $294 -20.020789774561184 $295 20.020789774561184 $185 $296 forward 7 unknown #
coedge $-1 $112 $111 $297 $298 reversed $44 $-1 #
coedge $-1 $299 $300 $111 $189 forward $301 $-1 #
edge $-1 $302 -22.627862157396379 $194 -12.419157141812757 $188 $303 forward 7 unknown #
coedge $-1 $304 $288 $112 $191 forward $180 $-1 #
edge $-1 $193 12.419157141812757 $305 22.627862157396379 $190 $306 forward 7 unknown #
coedge $-1 $113 $185 $299 $307 reversed $108 $-1 #
vertex $-1 $191 $308 #
vertex $-1 $189 $309 #
straight-curve $-1 -29.942666791417327 0 7.2243238377193313 0 1 0 I I #
face $-1 $310 $311 $26 $-1 $312 reversed single #
loop $-1 $-1 $207 $115 #
plane-surface $-1 0 -20.020789774561184 0 0 1 0 0 0 1 forward_v I I I I #
coedge $-1 $313 $314 $315 $316 reversed $116 $-1 #
coedge $-1 $317 $118 $318 $319 reversed $73 $-1 #
coedge $-1 $118 $317 $320 $321 reversed $73 $-1 #
coedge $-1 $210 $209 $118 $203 forward $211 $-1 #
edge $-1 $322 -20.020789774561184 $323 20.020789774561184 $202 $324 forward 7 unknown #
coedge $-1 $120 $119 $314 $325 forward $47 $-1 #
coedge $-1 $326 $315 $119 $206 forward $311 $-1 #
edge $-1 $327 12.419157141812764 $212 22.627862157396383 $205 $328 forward 7 unknown #
coedge $-1 $329 $330 $120 $208 forward $197 $-1 #
edge $-1 $213 -22.627862157396383 $331 -12.419157141812764 $207 $332 forward 7 unknown #
coedge $-1 $202 $121 $330 $333 forward $211 $-1 #
coedge $-1 $121 $202 $326 $334 reversed $211 $-1 #
loop $-1 $-1 $121 $310 #
vertex $-1 $334 $335 #
vertex $-1 $333 $336 #
straight-curve $-1 40.151371807000949 0 7.2243238377193313 0 -1 0 I I #
face $-1 $-1 $337 $27 $-1 $338 forward single #
loop $-1 $-1 $339 $123 #
plane-surface $-1 0 -20.020789774561184 0 0 1 0 0 0 1 forward_v I I I I #
coedge $-1 $340 $341 $342 $343 forward $124 $-1 #
coedge $-1 $344 $126 $128 $225 forward $77 $-1 #
coedge $-1 $126 $344 $345 $346 forward $77 $-1 #
coedge $-1 $339 $129 $126 $222 forward $216 $-1 #
edge $-1 $228 9.6034101809529453 $347 16.760641133960572 $221 $348 forward 7 unknown #
coedge $-1 $341 $340 $127 $224 forward $124 $-1 #
edge $-1 $349 -22.689158080921398 $227 -10.065291285183338 $223 $350 forward 7 unknown #
edge $-1 $228 4.0759410200229262e-015 $349 14.576785850564063 $128 $351 forward 7 unknown #
coedge $-1 $129 $339 $341 $352 reversed $216 $-1 #
vertex $-1 $352 $353 #
vertex $-1 $130 $354 #
straight-curve $-1 22.785435838409704 -20.020789774561184 35.563682963375214 0 0 -1 I I #
coedge $-1 $230 $230 $-1 $355 reversed $133 $-1 #
edge $-1 $356 0 $356 6.2831853071796004 $134 $357 forward 7 unknown #
vertex $-1 $137 $358 #
ellipse-curve $-1 26.364051314913517 -13.708856376692149 5.2273467854724736 0 -0.50000000669873634 0.8660253999169214 1 0 0 1 I I #
face $-1 $-1 $359 $29 $-1 $360 forward single #
loop $-1 $-1 $144 $138 #
plane-surface $-1 0 20.020789774561184 0 0 -1 0 0 0 -1 forward_v I I I I #
coedge $-1 $361 $362 $363 $364 reversed $139 $-1 #
coedge $-1 $365 $141 $143 $244 forward $86 $-1 #
coedge $-1 $141 $365 $361 $366 forward $86 $-1 #
coedge $-1 $363 $144 $141 $241 forward $235 $-1 #
edge $-1 $247 7.320302052406447 $367 15.002650743004786 $240 $368 forward 7 unknown #
coedge $-1 $369 $370 $142 $243 forward $359 $-1 #
edge $-1 $371 -17.132800533935878 $246 -10.704822837418963 $242 $372 forward 7 unknown #
edge $-1 $247 -40.041579549122368 $371 -29.105650492330234 $143 $373 forward 7 unknown #
coedge $-1 $144 $363 $369 $374 reversed $235 $-1 #
vertex $-1 $374 $375 #
vertex $-1 $145 $376 #
straight-curve $-1 -18.481778450112063 20.020789774561184 39.809638463083736 0 0 -1 I I #
coedge $-1 $249 $249 $-1 $377 reversed $148 $-1 #
edge $-1 $378 0 $378 6.2831853071796004 $149 $379 forward 7 unknown #
vertex $-1 $152 $380 #
ellipse-curve $-1 -23.969170371968023 16.806800926302728 4.4478670240761273 0 0.80901700255871778 0.5877852410284794 1 0 0 1 I I #
coedge $-1 $253 $253 $-1 $381 reversed $155 $-1 #
edge $-1 $382 0 $382 6.2831853071796004 $156 $383 forward 7 unknown #
vertex $-1 $159 $384 #
ellipse-curve $-1 -20.67673521885445 16.806800926302728 4.4478670240761273 0 0.80901700255871778 0.5877852410284794 1 0 0 1 I I #
face $-1 $-1 $175 $24 $-1 $385 reversed single #
loop $-1 $-1 $273 $160 #
plane-surface $-1 0 20.020789774561184 0 0 -1 0 0 0 -1 forward_v I I I I #
coedge $-1 $386 $271 $274 $387 forward $161 $-1 #
coedge $-1 $277 $163 $164 $265 reversed $100 $-1 #
coedge $-1 $271 $386 $163 $263 reversed $161 $-1 #
edge $-1 $278 -8.8715432969365082 $388 8.8715432969365082 $262 $389 forward 7 unknown #
coedge $-1 $165 $164 $386 $390 forward $65 $-1 #
edge $-1 $269 -40.151371807000949 $388 40.151371807000949 $261 $391 forward 7 unknown #
coedge $-1 $274 $273 $165 $267 reversed $258 $-1 #
edge $-1 $392 -40.151371807000949 $268 40.151371807000949 $266 $393 forward 7 unknown #
vertex $-1 $167 $394 #
vertex $-1 $280 $395 #
straight-curve $-1 40.151371807000949 0 -8.8715432969365082 0 -1 0 I I #
coedge $-1 $260 $262 $168 $272 reversed $161 $-1 #
edge $-1 $275 -20.020789774561184 $278 20.020789774561184 $271 $396 forward 7 unknown #
coedge $-1 $266 $169 $174 $281 forward $258 $-1 #
coedge $-1 $169 $266 $260 $387 reversed $258 $-1 #
vertex $-1 $170 $397 #
straight-curve $-1 0 20.020789774561184 8.8715432969365082 -1 0 0 I I #
coedge $-1 $171 $261 $173 $280 reversed $100 $-1 #
vertex $-1 $272 $398 #
straight-curve $-1 0 -20.020789774561184 8.8715432969365082 1 0 0 I I #
edge $-1 $176 -8.8715432969365082 $269 8.8715432969365082 $173 $399 forward 7 unknown #
edge $-1 $177 -8.8715432969365082 $268 8.8715432969365082 $174 $400 forward 7 unknown #
point $-1 40.151371807000949 -20.020789774561184 8.8715432969365082 #
point $-1 40.151371807000949 20.020789774561184 8.8715432969365082 #
face $-1 $-1 $301 $25 $-1 $401 reversed single #
loop $-1 $-1 $402 $179 #
plane-surface $-1 -40.151371807000949 0 0 1 0 0 0 0 -1 forward_v I I I I #
coedge $-1 $288 $304 $183 $291 forward $180 $-1 #
coedge $-1 $190 $287 $182 $289 forward $180 $-1 #
edge $-1 $295 1.362161918859667 $193 4.3621619188596652 $288 $403 forward 7 unknown #
coedge $-1 $184 $183 $402 $404 reversed $69 $-1 #
edge $-1 $405 -22.627862157396379 $295 -12.419157141812757 $287 $406 forward 7 unknown #
coedge $-1 $300 $299 $184 $293 forward $301 $-1 #
edge $-1 $294 12.419157141812757 $407 22.627862157396379 $292 $408 forward 7 unknown #
vertex $-1 $293 $409 #
vertex $-1 $291 $410 #
straight-curve $-1 -29.942666791417327 0 4.2243238377193331 0 -1 0 I I #
coedge $-1 $411 $412 $187 $298 forward $285 $-1 #
edge $-1 $305 -20.020789774561184 $302 20.020789774561184 $297 $413 forward 7 unknown #
coedge $-1 $292 $188 $192 $307 forward $301 $-1 #
coedge $-1 $188 $292 $411 $414 reversed $301 $-1 #
loop $-1 $-1 $292 $284 #
vertex $-1 $414 $415 #
straight-curve $-1 -17.52350964960457 20.020789774561184 7.2243238377193313 1 0 0 I I #
coedge $-1 $287 $190 $412 $416 forward $180 $-1 #
vertex $-1 $416 $417 #
straight-curve $-1 -17.52350964960457 -20.020789774561184 7.2243238377193313 -1 0 0 I I #
edge $-1 $194 -4.3621619188596652 $294 -1.362161918859667 $299 $418 forward 7 unknown #
point $-1 -29.942666791417327 -20.020789774561184 7.2243238377193313 #
point $-1 -29.942666791417327 20.020789774561184 7.2243238377193313 #
face $-1 $-1 $211 $26 $-1 $419 reversed single #
loop $-1 $-1 $205 $196 #
plane-surface $-1 0 20.020789774561184 0 0 -1 0 0 0 -1 forward_v I I I I #
coedge $-1 $420 $199 $317 $421 reversed $116 $-1 #
coedge $-1 $199 $420 $204 $325 reversed $116 $-1 #
coedge $-1 $205 $320 $199 $316 forward $311 $-1 #
edge $-1 $422 1.362161918859667 $327 4.3621619188596652 $315 $423 forward 7 unknown #
coedge $-1 $201 $200 $313 $421 forward $73 $-1 #
coedge $-1 $330 $329 $200 $319 forward $197 $-1 #
edge $-1 $424 12.419157141812764 $322 22.627862157396383 $318 $425 forward 7 unknown #
coedge $-1 $315 $326 $201 $321 forward $311 $-1 #
edge $-1 $323 -22.627862157396383 $422 -12.419157141812764 $320 $426 forward 7 unknown #
vertex $-1 $203 $427 #
vertex $-1 $203 $428 #
straight-curve $-1 40.151371807000949 0 4.2243238377193331 0 1 0 I I #
edge $-1 $327 -20.020789774561184 $331 20.020789774561184 $314 $429 forward 7 unknown #
coedge $-1 $320 $205 $210 $334 forward $311 $-1 #
vertex $-1 $206 $430 #
straight-curve $-1 17.523509649604573 20.020789774561184 7.2243238377193313 1 0 0 I I #
coedge $-1 $318 $207 $420 $431 forward $197 $-1 #
coedge $-1 $207 $318 $209 $333 reversed $197 $-1 #
vertex $-1 $208 $432 #
straight-curve $-1 17.523509649604573 -20.020789774561184 7.2243238377193313 -1 0 0 I I #
edge $-1 $213 -7.2243238377193313 $322 -4.2243238377193331 $209 $433 forward 7 unknown #
edge $-1 $212 -7.2243238377193313 $323 -4.2243238377193331 $210 $434 forward 7 unknown #
point $-1 40.151371807000956 20.020789774561184 7.2243238377193313 #
point $-1 40.151371807000956 -20.020789774561184 7.2243238377193313 #
loop $-1 $-1 $345 $215 #
plane-surface $-1 29.942666791417338 0 5.7243238377193322 1 0 0 0 0 -1 forward_v I I I I #
coedge $-1 $226 $221 $435 $436 forward $216 $-1 #
coedge $-1 $223 $218 $344 $437 forward $124 $-1 #
coedge $-1 $218 $223 $226 $352 forward $124 $-1 #
coedge $-1 $435 $345 $218 $343 reversed $337 $-1 #
edge $-1 $438 10.065291285183338 $439 22.689158080921398 $218 $440 forward 7 unknown #
coedge $-1 $220 $219 $340 $437 reversed $77 $-1 #
coedge $-1 $342 $435 $220 $346 reversed $337 $-1 #
edge $-1 $439 -14.576785850564063 $347 -4.0759410200229262e-015 $345 $441 forward 7 unknown #
vertex $-1 $436 $442 #
straight-curve $-1 13.182025657456759 -20.020789774561184 1.5831502740084338 1 0 0 I I #
vertex $-1 $224 $443 #
straight-curve $-1 22.785435838409704 -30.086081059744522 8.8715432969365082 0 -1 0 I I #
straight-curve $-1 22.785435838409704 -20.020789774561187 1.5831502740084318 0 0.8660253999169214 0.50000000669873634 I I #
edge $-1 $227 22.785435838409704 $438 29.942666791417331 $226 $444 forward 7 unknown #
point $-1 22.785435838409704 -20.020789774561184 8.8715432969365082 #
point $-1 22.785435838409704 -20.020789774561184 1.5831502740084338 #
edge $-1 $445 1 $445 0 $230 $-1 forward 7 unknown #
vertex $-1 $231 $446 #
ellipse-curve $-1 26.364051314913517 -12.312573512439661 2.8089139660505484 0 -0.50000000669873634 0.8660253999169214 1 0 0 1 I I #
point $-1 27.364051314913517 -13.708856376692147 5.2273467854724673 #
loop $-1 $-1 $242 $234 #
plane-surface $-1 0 0 8.8715432969365082 0 0 1 1 0 0 forward_v I I I I #
coedge $-1 $362 $237 $239 $366 reversed $139 $-1 #
coedge $-1 $237 $361 $447 $448 reversed $139 $-1 #
coedge $-1 $245 $240 $237 $364 forward $235 $-1 #
edge $-1 $367 -39.785447711867988 $449 -30.938095166147228 $363 $450 forward 7 unknown #
coedge $-1 $239 $238 $370 $451 reversed $86 $-1 #
edge $-1 $452 29.105650492330234 $367 40.041579549122368 $361 $453 forward 7 unknown #
vertex $-1 $241 $454 #
straight-curve $-1 -11.161476397705616 20.020789774561187 0.024190751215748207 -1 0 0 I I #
coedge $-1 $447 $242 $245 $374 forward $359 $-1 #
coedge $-1 $242 $447 $365 $451 forward $359 $-1 #
vertex $-1 $243 $455 #
straight-curve $-1 -18.481778450112063 30.725612611980146 8.8715432969365082 0 1 0 I I #
straight-curve $-1 -18.481778450112063 -3.5150597118807383 32.418509415763182 0 -0.5877852410284794 0.80901700255871778 I I #
edge $-1 $246 18.481778450112063 $449 26.164127140710402 $245 $456 forward 7 unknown #
point $-1 -18.481778450112063 20.020789774561184 8.8715432969365082 #
point $-1 -18.481778450112063 20.020789774561184 0.024190751215748207 #
edge $-1 $457 1 $457 0 $249 $-1 forward 7 unknown #
vertex $-1 $250 $458 #
ellipse-curve $-1 -23.969170371968023 14.524309827986034 2.789540219909779 0 0.80901700255871778 0.5877852410284794 1 0 0 1 I I #
point $-1 -22.969170371968023 16.806800926302731 4.4478670240761291 #
edge $-1 $459 1 $459 0 $253 $-1 forward 7 unknown #
vertex $-1 $254 $460 #
ellipse-curve $-1 -20.67673521885445 14.524309827986034 2.789540219909779 0 0.80901700255871778 0.5877852410284794 1 0 0 1 I I #
point $-1 -19.67673521885445 16.806800926302731 4.4478670240761291 #
plane-surface $-1 40.151371807000949 0 0 -1 0 0 0 0 1 forward_v I I I I #
coedge $-1 $262 $260 $264 $390 reversed $161 $-1 #
edge $-1 $275 -8.8715432969365082 $392 8.8715432969365082 $274 $461 forward 7 unknown #
vertex $-1 $390 $462 #
straight-curve $-1 -40.151371807000949 -20.020789774561184 0 0 0 -1 I I #
edge $-1 $388 -20.020789774561184 $392 20.020789774561184 $386 $463 forward 7 unknown #
straight-curve $-1 0 -20.020789774561184 -8.8715432969365082 -1 0 0 I I #
vertex $-1 $267 $464 #
straight-curve $-1 0 20.020789774561184 -8.8715432969365082 1 0 0 I I #
point $-1 40.151371807000949 20.020789774561184 -8.8715432969365082 #
point $-1 40.151371807000949 -20.020789774561184 -8.8715432969365082 #
straight-curve $-1 -40.151371807000949 0 8.8715432969365082 0 -1 0 I I #
point $-1 -40.151371807000949 20.020789774561184 8.8715432969365082 #
point $-1 -40.151371807000949 -20.020789774561184 8.8715432969365082 #
straight-curve $-1 40.151371807000949 -20.020789774561184 0 0 0 -1 I I #
straight-curve $-1 40.151371807000949 20.020789774561184 0 0 0 -1 I I #
plane-surface $-1 0 20.020789774561184 0 0 -1 0 0 0 -1 forward_v I I I I #
coedge $-1 $412 $411 $290 $404 forward $285 $-1 #
straight-curve $-1 -29.942666791417327 -20.020789774561184 2.8621619188596661 0 0 1 I I #
edge $-1 $407 -20.020789774561184 $405 20.020789774561184 $402 $465 forward 7 unknown #
vertex $-1 $291 $466 #
straight-curve $-1 -17.52350964960457 -20.020789774561184 4.2243238377193331 1 0 0 I I #
vertex $-1 $293 $467 #
straight-curve $-1 -17.52350964960457 20.020789774561184 4.2243238377193331 -1 0 0 I I #
point $-1 -29.942666791417327 20.020789774561184 4.2243238377193331 #
point $-1 -29.942666791417327 -20.020789774561184 4.2243238377193331 #
coedge $-1 $402 $297 $300 $414 forward $285 $-1 #
coedge $-1 $297 $402 $304 $416 reversed $285 $-1 #
straight-curve $-1 -40.151371807000949 0 7.2243238377193313 0 1 0 I I #
edge $-1 $302 -7.2243238377193313 $407 -4.2243238377193331 $300 $468 forward 7 unknown #
point $-1 -40.151371807000949 20.020789774561184 7.2243238377193313 #
edge $-1 $305 -7.2243238377193313 $405 -4.2243238377193331 $412 $469 forward 7 unknown #
point $-1 -40.151371807000949 -20.020789774561184 7.2243238377193313 #
straight-curve $-1 -29.942666791417327 20.020789774561184 2.8621619188596661 0 0 -1 I I #
plane-surface $-1 40.151371807000949 0 0 -1 0 0 0 0 1 forward_v I I I I #
coedge $-1 $314 $313 $329 $431 reversed $116 $-1 #
edge $-1 $424 -20.020789774561184 $422 20.020789774561184 $313 $470 forward 7 unknown #
vertex $-1 $321 $471 #
straight-curve $-1 29.942666791417338 20.020789774561184 2.8621619188596661 0 0 1 I I #
vertex $-1 $319 $472 #
straight-curve $-1 17.523509649604573 -20.020789774561184 4.2243238377193331 1 0 0 I I #
straight-curve $-1 17.523509649604573 20.020789774561184 4.2243238377193331 -1 0 0 I I #
point $-1 40.151371807000956 -20.020789774561184 4.2243238377193331 #
point $-1 40.151371807000956 20.020789774561184 4.2243238377193331 #
straight-curve $-1 29.942666791417338 0 7.2243238377193313 0 -1 0 I I #
point $-1 29.942666791417338 20.020789774561184 7.2243238377193313 #
edge $-1 $331 -4.3621619188596652 $424 -1.362161918859667 $329 $473 forward 7 unknown #
point $-1 29.942666791417338 -20.020789774561184 7.2243238377193313 #
straight-curve $-1 40.151371807000949 -20.020789774561184 0 0 0 -1 I I #
straight-curve $-1 40.151371807000949 20.020789774561184 0 0 0 -1 I I #
coedge $-1 $345 $342 $339 $436 reversed $337 $-1 #
edge $-1 $347 -33.980532689366783 $438 -26.692139666438706 $339 $474 forward 7 unknown #
edge $-1 $439 -16.760641133960572 $349 -9.6034101809529453 $340 $475 forward 7 unknown #
vertex $-1 $343 $476 #
vertex $-1 $343 $477 #
straight-curve $-1 29.942666791417331 -30.086081059744522 8.8715432969365082 0 1 0 I I #
straight-curve $-1 29.942666791417331 -20.020789774561187 1.5831502740084318 0 -0.8660253999169214 -0.50000000669873634 I I #
point $-1 29.942666791417331 -20.020789774561184 1.5831502740084338 #
point $-1 22.785435838409704 -7.3969229788231239 8.8715432969365082 #
straight-curve $-1 0 -20.020789774561184 8.8715432969365082 1 0 0 I I #
vertex $-1 $355 $478 #
point $-1 27.364051314913517 -12.312573512439661 2.8089139660505484 #
coedge $-1 $370 $369 $362 $448 forward $359 $-1 #
edge $-1 $449 10.704822837418963 $452 17.132800533935878 $447 $479 forward 7 unknown #
vertex $-1 $448 $480 #
straight-curve $-1 -26.164127140710402 20.020789774561184 39.809638463083736 0 0 1 I I #
edge $-1 $452 -15.002650743004786 $371 -7.320302052406447 $370 $481 forward 7 unknown #
vertex $-1 $451 $482 #
straight-curve $-1 -26.164127140710402 -3.5150597118807383 32.418509415763182 0 0.5877852410284794 -0.80901700255871778 I I #
point $-1 -26.164127140710402 20.020789774561184 0.024190751215748207 #
point $-1 -18.481778450112063 13.592812078044268 8.8715432969365082 #
straight-curve $-1 0 20.020789774561184 8.8715432969365082 -1 0 0 I I #
vertex $-1 $377 $483 #
point $-1 -22.969170371968023 14.524309827986034 2.789540219909779 #
vertex $-1 $381 $484 #
point $-1 -19.67673521885445 14.524309827986034 2.789540219909779 #
straight-curve $-1 -40.151371807000949 20.020789774561184 0 0 0 -1 I I #
point $-1 -40.151371807000949 -20.020789774561184 -8.8715432969365082 #
straight-curve $-1 -40.151371807000949 0 -8.8715432969365082 0 1 0 I I #
point $-1 -40.151371807000949 20.020789774561184 -8.8715432969365082 #
straight-curve $-1 -40.151371807000949 0 4.2243238377193331 0 -1 0 I I #
point $-1 -40.151371807000949 -20.020789774561184 4.2243238377193331 #
point $-1 -40.151371807000949 20.020789774561184 4.2243238377193331 #
straight-curve $-1 -40.151371807000949 20.020789774561184 0 0 0 -1 I I #
straight-curve $-1 -40.151371807000949 -20.020789774561184 0 0 0 -1 I I #
straight-curve $-1 29.942666791417338 0 4.2243238377193331 0 1 0 I I #
point $-1 29.942666791417338 20.020789774561184 4.2243238377193331 #
point $-1 29.942666791417338 -20.020789774561184 4.2243238377193331 #
straight-curve $-1 29.942666791417338 -20.020789774561184 2.8621619188596661 0 0 -1 I I #
straight-curve $-1 29.942666791417331 -20.020789774561184 35.563682963375214 0 0 1 I I #
straight-curve $-1 13.182025657456759 -7.3969229788231257 8.8715432969365082 -1 0 0 I I #
point $-1 29.942666791417331 -20.020789774561184 8.8715432969365082 #
point $-1 29.942666791417331 -7.3969229788231239 8.8715432969365082 #
point $-1 26.364051314913517 -11.812573505740923 1.942888566133627 #
straight-curve $-1 -26.164127140710402 30.725612611980146 8.8715432969365082 0 -1 0 I I #
point $-1 -26.164127140710402 20.020789774561184 8.8715432969365082 #
straight-curve $-1 -11.161476397705616 13.592812078044268 8.8715432969365082 1 0 0 I I #
point $-1 -26.164127140710402 13.592812078044268 8.8715432969365082 #
point $-1 -23.969170371968023 13.715292825427316 2.2017549788812998 #
point $-1 -20.67673521885445 13.715292825427316 2.2017549788812998 #
End-of-ACIS-data 