500 0 18 0           
7 Unknown 11 ACIS 5.0 NT 24 Fri Mar 26 00:32:35 1999 
-1 9.9999999999999995e-007 1e-010 
body $-1 $18 $-1 $19 #
body $-1 $20 $-1 $21 #
body $-1 $22 $-1 $23 #
body $-1 $24 $-1 $25 #
body $-1 $26 $-1 $27 #
body $-1 $28 $-1 $29 #
body $-1 $30 $-1 $31 #
body $-1 $32 $-1 $33 #
body $-1 $34 $-1 $35 #
body $-1 $36 $-1 $37 #
body $-1 $38 $-1 $39 #
body $-1 $40 $-1 $41 #
body $-1 $42 $-1 $43 #
body $-1 $44 $-1 $45 #
body $-1 $46 $-1 $47 #
body $-1 $48 $-1 $49 #
body $-1 $50 $-1 $51 #
body $-1 $52 $-1 $53 #
lump $-1 $-1 $54 $0 #
transform $-1 1 0 0 0 1 0 0 0 1 74.440748313852353 31.558542651210583 12.544055998609183 1 rotate no_reflect no_shear #
lump $-1 $-1 $55 $1 #
transform $-1 1 0 0 0 1 0 0 0 1 74.440748313852353 31.558542651210583 12.544055998609183 1 rotate no_reflect no_shear #
lump $-1 $-1 $56 $2 #
transform $-1 1 0 0 0 1 0 0 0 1 74.440748313852353 31.558542651210583 12.544055998609183 1 rotate no_reflect no_shear #
lump $-1 $-1 $57 $3 #
transform $-1 1 0 0 0 1 0 0 0 1 74.440748313852353 31.558542651210583 12.544055998609183 1 rotate no_reflect no_shear #
lump $-1 $-1 $58 $4 #
transform $-1 1 0 0 0 1 0 0 0 1 74.440748313852353 31.558542651210583 12.544055998609183 1 rotate no_reflect no_shear #
lump $-1 $-1 $59 $5 #
transform $-1 1 0 0 0 1 0 0 0 1 74.440748313852353 31.558542651210583 12.544055998609183 1 rotate no_reflect no_shear #
lump $-1 $-1 $60 $6 #
transform $-1 1 0 0 0 1 0 0 0 1 74.440748313852353 31.558542651210583 12.544055998609183 1 rotate no_reflect no_shear #
lump $-1 $-1 $61 $7 #
transform $-1 1 0 0 0 1 0 0 0 1 74.440748313852353 31.558542651210583 12.544055998609183 1 rotate no_reflect no_shear #
lump $-1 $-1 $62 $8 #
transform $-1 1 0 0 0 1 0 0 0 1 74.440748313852353 31.558542651210583 12.544055998609183 1 rotate no_reflect no_shear #
lump $-1 $-1 $63 $9 #
transform $-1 1 0 0 0 1 0 0 0 1 74.440748313852353 31.558542651210583 12.544055998609183 1 rotate no_reflect no_shear #
lump $-1 $-1 $64 $10 #
transform $-1 1 0 0 0 1 0 0 0 1 74.440748313852353 31.558542651210583 12.544055998609183 1 rotate no_reflect no_shear #
lump $-1 $-1 $65 $11 #
transform $-1 1 0 0 0 1 0 0 0 1 74.440748313852353 31.558542651210583 12.544055998609183 1 rotate no_reflect no_shear #
lump $-1 $-1 $66 $12 #
transform $-1 1 0 0 0 1 0 0 0 1 74.440748313852353 31.558542651210583 12.544055998609183 1 rotate no_reflect no_shear #
lump $-1 $-1 $67 $13 #
transform $-1 1 0 0 0 1 0 0 0 1 74.440748313852353 31.558542651210583 12.544055998609183 1 rotate no_reflect no_shear #
lump $-1 $-1 $68 $14 #
transform $-1 1 0 0 0 1 0 0 0 1 74.440748313852353 31.558542651210583 12.544055998609183 1 rotate no_reflect no_shear #
lump $-1 $-1 $69 $15 #
transform $-1 1 0 0 0 1 0 0 0 1 74.440748313852353 31.558542651210583 12.544055998609183 1 rotate no_reflect no_shear #
lump $-1 $-1 $70 $16 #
transform $-1 1 0 0 0 1 0 0 0 1 74.440748313852353 31.558542651210583 12.544055998609183 1 rotate no_reflect no_shear #
lump $-1 $-1 $71 $17 #
transform $-1 1 0 0 0 1 0 0 0 1 74.440748313852353 31.558542651210583 12.544055998609183 1 rotate no_reflect no_shear #
shell $-1 $-1 $-1 $72 $-1 $18 #
shell $-1 $-1 $-1 $73 $-1 $20 #
shell $-1 $-1 $-1 $74 $-1 $22 #
shell $-1 $-1 $-1 $75 $-1 $24 #
shell $-1 $-1 $-1 $76 $-1 $26 #
shell $-1 $-1 $-1 $77 $-1 $28 #
shell $-1 $-1 $-1 $78 $-1 $30 #
shell $-1 $-1 $-1 $79 $-1 $32 #
shell $-1 $-1 $-1 $80 $-1 $34 #
shell $-1 $-1 $-1 $81 $-1 $36 #
shell $-1 $-1 $-1 $82 $-1 $38 #
shell $-1 $-1 $-1 $83 $-1 $40 #
shell $-1 $-1 $-1 $84 $-1 $42 #
shell $-1 $-1 $-1 $85 $-1 $44 #
shell $-1 $-1 $-1 $86 $-1 $46 #
shell $-1 $-1 $-1 $87 $-1 $48 #
shell $-1 $-1 $-1 $88 $-1 $50 #
shell $-1 $-1 $-1 $89 $-1 $52 #
face $-1 $90 $91 $54 $-1 $92 forward single #
face $-1 $93 $94 $55 $-1 $95 forward single #
face $-1 $96 $97 $56 $-1 $98 reversed single #
face $-1 $99 $100 $57 $-1 $101 forward single #
face $-1 $102 $103 $58 $-1 $104 reversed single #
face $-1 $105 $106 $59 $-1 $107 forward single #
face $-1 $108 $109 $60 $-1 $110 reversed single #
face $-1 $111 $112 $61 $-1 $113 forward single #
face $-1 $114 $115 $62 $-1 $116 reversed single #
face $-1 $117 $118 $63 $-1 $119 forward single #
face $-1 $120 $121 $64 $-1 $122 reversed single #
face $-1 $123 $124 $65 $-1 $125 forward single #
face $-1 $126 $127 $66 $-1 $128 forward single #
face $-1 $129 $130 $67 $-1 $131 forward single #
face $-1 $132 $133 $68 $-1 $134 reversed single #
face $-1 $135 $136 $69 $-1 $137 forward single #
face $-1 $138 $139 $70 $-1 $140 forward single #
face $-1 $141 $142 $71 $-1 $143 forward single #
face $-1 $144 $145 $54 $-1 $146 reversed single #
loop $-1 $-1 $147 $72 #
plane-surface $-1 0 0 12.544055998609183 0 0 1 1 0 0 forward_v I I I I #
face $-1 $148 $149 $55 $-1 $150 reversed single #
loop $-1 $-1 $151 $73 #
plane-surface $-1 0 -31.558542651210583 0 0 1 0 0 0 1 forward_v I I I I #
face $-1 $152 $153 $56 $-1 $154 reversed single #
loop $-1 $-1 $155 $74 #
plane-surface $-1 78.115359030073691 -5.8925495738537954 218.92597416446546 0 -1 0 -0.71933980857756763 0 -0.69465836192734942 forward_v I I I I #
face $-1 $156 $157 $57 $-1 $158 forward single #
loop $-1 $159 $160 $75 #
cone-surface $-1 71.992195060835272 -9.3363891128601573 10.040030633636588 -0.71933980857756763 0 -0.69465836192734942 0.34732918096367471 0 -0.35966990428878381 1 I I 0 1 0.5 forward I I I I #
face $-1 $161 $162 $58 $-1 $163 reversed single #
loop $-1 $-1 $164 $76 #
plane-surface $-1 78.115359030073691 4.7258083910536435 218.92597416446546 0 -1 0 -0.71933980857756763 0 -0.69465836192734942 forward_v I I I I #
face $-1 $165 $166 $59 $-1 $167 forward single #
loop $-1 $168 $169 $77 #
cone-surface $-1 71.992195060835272 1.2819688520472816 10.040030633636588 -0.71933980857756763 0 -0.69465836192734942 0.34732918096367471 0 -0.35966990428878381 1 I I 0 1 0.5 forward I I I I #
face $-1 $170 $171 $60 $-1 $172 reversed single #
loop $-1 $-1 $173 $78 #
plane-surface $-1 78.115359030073691 15.344166355961082 218.92597416446546 0 -1 0 -0.71933980857756763 0 -0.69465836192734942 forward_v I I I I #
face $-1 $174 $175 $61 $-1 $176 forward single #
loop $-1 $177 $178 $79 #
cone-surface $-1 71.992195060835272 11.90032681695472 10.040030633636588 -0.71933980857756763 0 -0.69465836192734942 0.34732918096367471 0 -0.35966990428878381 1 I I 0 1 0.5 forward I I I I #
face $-1 $179 $180 $62 $-1 $181 reversed single #
loop $-1 $-1 $182 $80 #
plane-surface $-1 78.115359030073691 25.962524320868521 218.92597416446546 0 -1 0 -0.71933980857756763 0 -0.69465836192734942 forward_v I I I I #
face $-1 $183 $184 $63 $-1 $185 forward single #
loop $-1 $186 $187 $81 #
cone-surface $-1 71.992195060835272 22.518684781862159 10.040030633636588 -0.71933980857756763 0 -0.69465836192734942 0.34732918096367471 0 -0.35966990428878381 1 I I 0 1 0.5 forward I I I I #
face $-1 $188 $189 $64 $-1 $190 reversed single #
loop $-1 $-1 $191 $82 #
plane-surface $-1 -157.69422576818766 -10.959969171402516 126.26124938751234 0 1 0 -0.55919291073839883 0 0.82903756765294845 forward_v I I I I #
face $-1 $192 $193 $65 $-1 $194 forward single #
loop $-1 $195 $196 $83 #
cone-surface $-1 -66.962458278092399 -9.0532467475101868 7.2739569928528063 0.55919291073839883 0 -0.82903756765294845 0.41451878382647422 0 0.27959645536919941 1 I I 0 1 0.5 forward I I I I #
face $-1 $197 $198 $66 $-1 $199 forward single #
loop $-1 $200 $201 $84 #
cone-surface $-1 -66.962458278092399 -6.1931631116716908 7.2739569928528063 0.55919291073839883 0 -0.82903756765294845 0.41451878382647422 0 0.27959645536919941 1 I I 0 1 0.5 forward I I I I #
face $-1 $202 $203 $67 $-1 $204 forward single #
loop $-1 $205 $206 $85 #
cone-surface $-1 -66.962458278092399 -3.3330794758331947 7.2739569928528063 0.55919291073839883 0 -0.82903756765294845 0.41451878382647422 0 0.27959645536919941 1 I I 0 1 0.5 forward I I I I #
face $-1 $207 $208 $68 $-1 $209 reversed single #
loop $-1 $-1 $210 $86 #
plane-surface $-1 -157.69422576818766 14.00742564530707 126.26124938751234 0 1 0 -0.55919291073839883 0 0.82903756765294845 forward_v I I I I #
face $-1 $211 $212 $69 $-1 $213 forward single #
loop $-1 $214 $215 $87 #
cone-surface $-1 -66.962458278092399 15.914148069199396 7.2739569928528063 0.55919291073839883 0 -0.82903756765294845 0.41451878382647422 0 0.27959645536919941 1 I I 0 1 0.5 forward I I I I #
face $-1 $216 $217 $70 $-1 $218 forward single #
loop $-1 $219 $220 $88 #
cone-surface $-1 -66.962458278092399 18.774231705037895 7.2739569928528063 0.55919291073839883 0 -0.82903756765294845 0.41451878382647422 0 0.27959645536919941 1 I I 0 1 0.5 forward I I I I #
face $-1 $221 $222 $71 $-1 $223 forward single #
loop $-1 $224 $225 $89 #
cone-surface $-1 -66.962458278092399 21.634315340876388 7.2739569928528063 0.55919291073839883 0 -0.82903756765294845 0.41451878382647422 0 0.27959645536919941 1 I I 0 1 0.5 forward I I I I #
face $-1 $226 $227 $54 $-1 $228 reversed single #
loop $-1 $-1 $229 $90 #
plane-surface $-1 0 0 -12.544055998609183 0 0 1 1 0 0 forward_v I I I I #
coedge $-1 $230 $231 $232 $233 forward $91 $-1 #
face $-1 $234 $235 $55 $-1 $236 forward single #
loop $-1 $-1 $237 $93 #
plane-surface $-1 -74.440748313852353 0 0 1 0 0 0 0 -1 forward_v I I I I #
coedge $-1 $238 $239 $240 $241 forward $94 $-1 #
face $-1 $242 $243 $56 $-1 $244 reversed single #
loop $-1 $-1 $245 $96 #
plane-surface $-1 -28.981028254841178 -9.3363891128601573 115.50419759577193 0.71933980857756763 0 0.69465836192734942 0.69465836192734942 0 -0.71933980857756763 forward_v I I I I #
coedge $-1 $246 $247 $248 $249 reversed $97 $-1 #
face $-1 $-1 $250 $57 $-1 $251 forward single #
loop $-1 $252 $253 $99 #
cone-surface $-1 71.36096982352386 -9.3363891128601573 9.4304635220582451 -0.71933980857756763 0 -0.69465836192734942 0.17366459048183736 0 -0.17983495214439191 1 I I -0.70710678118654746 0.70710678118654746 0.25 forward I I I I #
loop $-1 $-1 $254 $75 #
coedge $-1 $160 $160 $255 $256 reversed $100 $-1 #
face $-1 $257 $258 $58 $-1 $259 reversed single #
loop $-1 $-1 $260 $102 #
plane-surface $-1 -28.981028254841178 1.2819688520472816 115.50419759577193 0.71933980857756763 0 0.69465836192734942 0.69465836192734942 0 -0.71933980857756763 forward_v I I I I #
coedge $-1 $261 $262 $263 $264 reversed $103 $-1 #
face $-1 $-1 $265 $59 $-1 $266 forward single #
loop $-1 $267 $268 $105 #
cone-surface $-1 71.36096982352386 1.2819688520472816 9.4304635220582451 -0.71933980857756763 0 -0.69465836192734942 0.17366459048183736 0 -0.17983495214439191 1 I I -0.70710678118654746 0.70710678118654746 0.25 forward I I I I #
loop $-1 $-1 $269 $77 #
coedge $-1 $169 $169 $270 $271 reversed $106 $-1 #
face $-1 $272 $273 $60 $-1 $274 reversed single #
loop $-1 $-1 $275 $108 #
plane-surface $-1 -28.981028254841178 11.90032681695472 115.50419759577193 0.71933980857756763 0 0.69465836192734942 0.69465836192734942 0 -0.71933980857756763 forward_v I I I I #
coedge $-1 $276 $277 $278 $279 reversed $109 $-1 #
face $-1 $-1 $280 $61 $-1 $281 forward single #
loop $-1 $282 $283 $111 #
cone-surface $-1 71.36096982352386 11.90032681695472 9.4304635220582451 -0.71933980857756763 0 -0.69465836192734942 0.17366459048183736 0 -0.17983495214439191 1 I I -0.70710678118654746 0.70710678118654746 0.25 forward I I I I #
loop $-1 $-1 $284 $79 #
coedge $-1 $178 $178 $285 $286 reversed $112 $-1 #
face $-1 $287 $288 $62 $-1 $289 reversed single #
loop $-1 $-1 $290 $114 #
plane-surface $-1 -28.981028254841178 22.518684781862159 115.50419759577193 0.71933980857756763 0 0.69465836192734942 0.69465836192734942 0 -0.71933980857756763 forward_v I I I I #
coedge $-1 $291 $292 $293 $294 reversed $115 $-1 #
face $-1 $-1 $295 $63 $-1 $296 forward single #
loop $-1 $297 $298 $117 #
cone-surface $-1 71.36096982352386 22.518684781862159 9.4304635220582451 -0.71933980857756763 0 -0.69465836192734942 0.17366459048183736 0 -0.17983495214439191 1 I I -0.70710678118654746 0.70710678118654746 0.25 forward I I I I #
loop $-1 $-1 $299 $81 #
coedge $-1 $187 $187 $300 $301 reversed $118 $-1 #
face $-1 $302 $303 $64 $-1 $304 reversed single #
loop $-1 $-1 $305 $120 #
plane-surface $-1 -74.440748313852353 -6.1931631116716908 2.8328955547493848 -0.55919291073839883 0 0.82903756765294845 0.82903756765294845 0 0.55919291073839883 forward_v I I I I #
coedge $-1 $306 $307 $308 $309 reversed $121 $-1 #
face $-1 $-1 $310 $65 $-1 $311 forward single #
loop $-1 $312 $313 $123 #
cone-surface $-1 -66.543063595038603 -9.0532467475101868 6.6521788171130947 0.55919291073839883 0 -0.82903756765294845 0.20725939191323711 0 0.13979822768459971 1 I I -0.70710678118654746 0.70710678118654746 0.25 forward I I I I #
loop $-1 $-1 $314 $83 #
coedge $-1 $196 $196 $315 $316 reversed $124 $-1 #
face $-1 $-1 $317 $66 $-1 $318 forward single #
loop $-1 $319 $320 $126 #
cone-surface $-1 -66.543063595038603 -6.1931631116716908 6.6521788171130947 0.55919291073839883 0 -0.82903756765294845 0.20725939191323711 0 0.13979822768459971 1 I I -0.70710678118654746 0.70710678118654746 0.25 forward I I I I #
loop $-1 $-1 $321 $84 #
coedge $-1 $201 $201 $322 $323 reversed $127 $-1 #
face $-1 $-1 $324 $67 $-1 $325 forward single #
loop $-1 $326 $327 $129 #
cone-surface $-1 -66.543063595038603 -3.3330794758331947 6.6521788171130947 0.55919291073839883 0 -0.82903756765294845 0.20725939191323711 0 0.13979822768459971 1 I I -0.70710678118654746 0.70710678118654746 0.25 forward I I I I #
loop $-1 $-1 $328 $85 #
coedge $-1 $206 $206 $329 $330 reversed $130 $-1 #
face $-1 $331 $332 $68 $-1 $333 reversed single #
loop $-1 $-1 $334 $132 #
plane-surface $-1 -74.440748313852353 18.774231705037895 2.8328955547493848 -0.55919291073839883 0 0.82903756765294845 0.82903756765294845 0 0.55919291073839883 forward_v I I I I #
coedge $-1 $335 $336 $337 $338 reversed $133 $-1 #
face $-1 $-1 $339 $69 $-1 $340 forward single #
loop $-1 $341 $342 $135 #
cone-surface $-1 -66.543063595038603 15.914148069199396 6.6521788171130947 0.55919291073839883 0 -0.82903756765294845 0.20725939191323711 0 0.13979822768459971 1 I I -0.70710678118654746 0.70710678118654746 0.25 forward I I I I #
loop $-1 $-1 $343 $87 #
coedge $-1 $215 $215 $344 $345 reversed $136 $-1 #
face $-1 $-1 $346 $70 $-1 $347 forward single #
loop $-1 $348 $349 $138 #
cone-surface $-1 -66.543063595038603 18.774231705037895 6.6521788171130947 0.55919291073839883 0 -0.82903756765294845 0.20725939191323711 0 0.13979822768459971 1 I I -0.70710678118654746 0.70710678118654746 0.25 forward I I I I #
loop $-1 $-1 $350 $88 #
coedge $-1 $220 $220 $351 $352 reversed $139 $-1 #
face $-1 $-1 $353 $71 $-1 $354 forward single #
loop $-1 $355 $356 $141 #
cone-surface $-1 -66.543063595038603 21.634315340876388 6.6521788171130947 0.55919291073839883 0 -0.82903756765294845 0.20725939191323711 0 0.13979822768459971 1 I I -0.70710678118654746 0.70710678118654746 0.25 forward I I I I #
loop $-1 $-1 $357 $89 #
coedge $-1 $225 $225 $358 $359 reversed $142 $-1 #
face $-1 $360 $361 $54 $-1 $362 reversed single #
loop $-1 $-1 $363 $144 #
plane-surface $-1 0 -31.558542651210583 0 0 1 0 0 0 1 forward_v I I I I #
coedge $-1 $364 $365 $366 $367 forward $145 $-1 #
coedge $-1 $368 $147 $369 $370 forward $91 $-1 #
coedge $-1 $147 $368 $371 $372 forward $91 $-1 #
coedge $-1 $373 $374 $147 $233 reversed $375 $-1 #
edge $-1 $376 -31.558542651210583 $377 31.558542651210583 $232 $378 forward 7 unknown #
face $-1 $379 $380 $55 $-1 $381 reversed single #
loop $-1 $-1 $382 $148 #
plane-surface $-1 0 -38.149690485711581 3.707154086343313 0 0 1 1 0 0 forward_v I I I I #
coedge $-1 $383 $384 $239 $385 forward $149 $-1 #
coedge $-1 $386 $151 $387 $388 reversed $94 $-1 #
coedge $-1 $151 $386 $237 $385 reversed $94 $-1 #
coedge $-1 $389 $382 $151 $241 reversed $235 $-1 #
edge $-1 $390 -74.440748313852353 $391 74.440748313852353 $240 $392 forward 7 unknown #
face $-1 $393 $394 $56 $-1 $395 reversed single #
loop $-1 $-1 $396 $152 #
plane-surface $-1 78.115359030073691 -12.780228651866519 218.92597416446546 0 1 0 0.71933980857756763 0 0.69465836192734942 forward_v I I I I #
coedge $-1 $397 $398 $399 $400 reversed $153 $-1 #
coedge $-1 $247 $155 $401 $402 reversed $97 $-1 #
coedge $-1 $155 $246 $397 $403 reversed $97 $-1 #
coedge $-1 $399 $404 $155 $249 forward $405 $-1 #
edge $-1 $406 -35.383068798815508 $407 -31.388742863115361 $248 $408 forward 7 unknown #
loop $-1 $-1 $255 $156 #
plane-surface $-1 -28.981028254841178 -9.3363891128601573 115.50419759577193 0.71933980857756763 0 0.69465836192734942 0.69465836192734942 0 -0.71933980857756763 forward_v I I I I #
loop $-1 $-1 $409 $99 #
coedge $-1 $253 $253 $254 $410 reversed $157 $-1 #
coedge $-1 $254 $254 $253 $410 forward $159 $-1 #
coedge $-1 $255 $255 $160 $256 forward $250 $-1 #
edge $-1 $411 0 $411 6.2831853071796004 $255 $412 forward 7 unknown #
face $-1 $413 $414 $58 $-1 $415 reversed single #
loop $-1 $-1 $416 $161 #
plane-surface $-1 78.115359030073691 -2.1618706869590802 218.92597416446546 0 1 0 0.71933980857756763 0 0.69465836192734942 forward_v I I I I #
coedge $-1 $417 $418 $419 $420 reversed $162 $-1 #
coedge $-1 $262 $164 $421 $422 reversed $103 $-1 #
coedge $-1 $164 $261 $417 $423 reversed $103 $-1 #
coedge $-1 $419 $424 $164 $264 forward $425 $-1 #
edge $-1 $426 -35.383068798815508 $427 -31.388742863115361 $263 $428 forward 7 unknown #
loop $-1 $-1 $270 $165 #
plane-surface $-1 -28.981028254841178 1.2819688520472816 115.50419759577193 0.71933980857756763 0 0.69465836192734942 0.69465836192734942 0 -0.71933980857756763 forward_v I I I I #
loop $-1 $-1 $429 $105 #
coedge $-1 $268 $268 $269 $430 reversed $166 $-1 #
coedge $-1 $269 $269 $268 $430 forward $168 $-1 #
coedge $-1 $270 $270 $169 $271 forward $265 $-1 #
edge $-1 $431 0 $431 6.2831853071796004 $270 $432 forward 7 unknown #
face $-1 $433 $434 $60 $-1 $435 reversed single #
loop $-1 $-1 $436 $170 #
plane-surface $-1 78.115359030073691 8.4564872779483586 218.92597416446546 0 1 0 0.71933980857756763 0 0.69465836192734942 forward_v I I I I #
coedge $-1 $437 $438 $439 $440 reversed $171 $-1 #
coedge $-1 $277 $173 $441 $442 reversed $109 $-1 #
coedge $-1 $173 $276 $437 $443 reversed $109 $-1 #
coedge $-1 $439 $444 $173 $279 forward $445 $-1 #
edge $-1 $446 -35.383068798815508 $447 -31.388742863115361 $278 $448 forward 7 unknown #
loop $-1 $-1 $285 $174 #
plane-surface $-1 -28.981028254841178 11.90032681695472 115.50419759577193 0.71933980857756763 0 0.69465836192734942 0.69465836192734942 0 -0.71933980857756763 forward_v I I I I #
loop $-1 $-1 $449 $111 #
coedge $-1 $283 $283 $284 $450 reversed $175 $-1 #
coedge $-1 $284 $284 $283 $450 forward $177 $-1 #
coedge $-1 $285 $285 $178 $286 forward $280 $-1 #
edge $-1 $451 0 $451 6.2831853071796004 $285 $452 forward 7 unknown #
face $-1 $453 $454 $62 $-1 $455 reversed single #
loop $-1 $-1 $456 $179 #
plane-surface $-1 78.115359030073691 19.074845242855798 218.92597416446546 0 1 0 0.71933980857756763 0 0.69465836192734942 forward_v I I I I #
coedge $-1 $457 $458 $459 $460 reversed $180 $-1 #
coedge $-1 $292 $182 $461 $462 reversed $115 $-1 #
coedge $-1 $182 $291 $457 $463 reversed $115 $-1 #
coedge $-1 $459 $464 $182 $294 forward $465 $-1 #
edge $-1 $466 -35.383068798815508 $467 -31.388742863115361 $293 $468 forward 7 unknown #
loop $-1 $-1 $300 $183 #
plane-surface $-1 -28.981028254841178 22.518684781862159 115.50419759577193 0.71933980857756763 0 0.69465836192734942 0.69465836192734942 0 -0.71933980857756763 forward_v I I I I #
loop $-1 $-1 $469 $117 #
coedge $-1 $298 $298 $299 $470 reversed $184 $-1 #
coedge $-1 $299 $299 $298 $470 forward $186 $-1 #
coedge $-1 $300 $300 $187 $301 forward $295 $-1 #
edge $-1 $471 0 $471 6.2831853071796004 $300 $472 forward 7 unknown #
face $-1 $473 $474 $64 $-1 $475 forward single #
loop $-1 $-1 $476 $188 #
plane-surface $-1 -157.69422576818766 -1.4263570519408653 126.26124938751234 0 -1 0 0.55919291073839883 0 -0.82903756765294845 forward_v I I I I #
coedge $-1 $477 $478 $479 $480 reversed $189 $-1 #
coedge $-1 $307 $191 $481 $482 reversed $121 $-1 #
coedge $-1 $191 $306 $477 $483 reversed $121 $-1 #
coedge $-1 $479 $484 $191 $309 forward $474 $-1 #
edge $-1 $485 4.4063645702414789 $486 18.80375173102297 $308 $487 forward 7 unknown #
loop $-1 $-1 $315 $192 #
plane-surface $-1 -74.440748313852353 -6.1931631116716908 2.8328955547493848 -0.55919291073839883 0 0.82903756765294845 0.82903756765294845 0 0.55919291073839883 forward_v I I I I #
loop $-1 $-1 $488 $123 #
coedge $-1 $313 $313 $314 $489 reversed $193 $-1 #
coedge $-1 $314 $314 $313 $489 forward $195 $-1 #
coedge $-1 $315 $315 $196 $316 forward $310 $-1 #
edge $-1 $490 0 $490 6.2831853071796004 $315 $491 forward 7 unknown #
loop $-1 $-1 $322 $197 #
plane-surface $-1 -74.440748313852353 -6.1931631116716908 2.8328955547493848 -0.55919291073839883 0 0.82903756765294845 0.82903756765294845 0 0.55919291073839883 forward_v I I I I #
loop $-1 $-1 $492 $126 #
coedge $-1 $320 $320 $321 $493 reversed $198 $-1 #
coedge $-1 $321 $321 $320 $493 forward $200 $-1 #
coedge $-1 $322 $322 $201 $323 forward $317 $-1 #
edge $-1 $494 0 $494 6.2831853071796004 $322 $495 forward 7 unknown #
loop $-1 $-1 $329 $202 #
plane-surface $-1 -74.440748313852353 -6.1931631116716908 2.8328955547493848 -0.55919291073839883 0 0.82903756765294845 0.82903756765294845 0 0.55919291073839883 forward_v I I I I #
loop $-1 $-1 $496 $129 #
coedge $-1 $327 $327 $328 $497 reversed $203 $-1 #
coedge $-1 $328 $328 $327 $497 forward $205 $-1 #
coedge $-1 $329 $329 $206 $330 forward $324 $-1 #
edge $-1 $498 0 $498 6.2831853071796004 $329 $499 forward 7 unknown #
face $-1 $500 $501 $68 $-1 $502 forward single #
loop $-1 $-1 $503 $207 #
plane-surface $-1 -157.69422576818766 23.541037764768721 126.26124938751234 0 -1 0 0.55919291073839883 0 -0.82903756765294845 forward_v I I I I #
coedge $-1 $504 $505 $506 $507 reversed $208 $-1 #
coedge $-1 $336 $210 $508 $509 reversed $133 $-1 #
coedge $-1 $210 $335 $504 $510 reversed $133 $-1 #
coedge $-1 $506 $511 $210 $338 forward $501 $-1 #
edge $-1 $512 4.4063645702414789 $513 18.80375173102297 $337 $514 forward 7 unknown #
loop $-1 $-1 $344 $211 #
plane-surface $-1 -74.440748313852353 18.774231705037895 2.8328955547493848 -0.55919291073839883 0 0.82903756765294845 0.82903756765294845 0 0.55919291073839883 forward_v I I I I #
loop $-1 $-1 $515 $135 #
coedge $-1 $342 $342 $343 $516 reversed $212 $-1 #
coedge $-1 $343 $343 $342 $516 forward $214 $-1 #
coedge $-1 $344 $344 $215 $345 forward $339 $-1 #
edge $-1 $517 0 $517 6.2831853071796004 $344 $518 forward 7 unknown #
loop $-1 $-1 $351 $216 #
plane-surface $-1 -74.440748313852353 18.774231705037895 2.8328955547493848 -0.55919291073839883 0 0.82903756765294845 0.82903756765294845 0 0.55919291073839883 forward_v I I I I #
loop $-1 $-1 $519 $138 #
coedge $-1 $349 $349 $350 $520 reversed $217 $-1 #
coedge $-1 $350 $350 $349 $520 forward $219 $-1 #
coedge $-1 $351 $351 $220 $352 forward $346 $-1 #
edge $-1 $521 0 $521 6.2831853071796004 $351 $522 forward 7 unknown #
loop $-1 $-1 $358 $221 #
plane-surface $-1 -74.440748313852353 18.774231705037895 2.8328955547493848 -0.55919291073839883 0 0.82903756765294845 0.82903756765294845 0 0.55919291073839883 forward_v I I I I #
loop $-1 $-1 $523 $141 #
coedge $-1 $356 $356 $357 $524 reversed $222 $-1 #
coedge $-1 $357 $357 $356 $524 forward $224 $-1 #
coedge $-1 $358 $358 $225 $359 forward $353 $-1 #
edge $-1 $525 0 $525 6.2831853071796004 $358 $526 forward 7 unknown #
face $-1 $527 $528 $54 $-1 $529 reversed single #
loop $-1 $-1 $530 $226 #
plane-surface $-1 -74.440748313852353 0 0 1 0 0 0 0 -1 forward_v I I I I #
coedge $-1 $531 $371 $532 $533 forward $227 $-1 #
coedge $-1 $534 $229 $531 $535 forward $145 $-1 #
coedge $-1 $229 $534 $536 $537 forward $145 $-1 #
coedge $-1 $374 $373 $229 $367 reversed $375 $-1 #
edge $-1 $538 -31.558542651210583 $539 31.558542651210583 $366 $540 forward 7 unknown #
coedge $-1 $231 $230 $541 $542 forward $91 $-1 #
coedge $-1 $543 $544 $230 $370 reversed $528 $-1 #
edge $-1 $377 -74.440748313852353 $545 74.440748313852353 $369 $546 forward 7 unknown #
coedge $-1 $363 $547 $231 $372 reversed $227 $-1 #
edge $-1 $548 -74.440748313852353 $376 74.440748313852353 $371 $549 forward 7 unknown #
coedge $-1 $366 $232 $547 $550 forward $375 $-1 #
coedge $-1 $232 $366 $543 $551 reversed $375 $-1 #
loop $-1 $-1 $373 $527 #
vertex $-1 $233 $552 #
vertex $-1 $233 $553 #
straight-curve $-1 74.440748313852353 0 12.544055998609183 0 1 0 I I #
face $-1 $554 $555 $55 $-1 $556 reversed single #
loop $-1 $-1 $557 $234 #
plane-surface $-1 0 -38.149690485711581 -3.7978412628779816 0 0 1 1 0 0 forward_v I I I I #
coedge $-1 $240 $558 $559 $560 forward $235 $-1 #
coedge $-1 $561 $237 $562 $563 reversed $149 $-1 #
coedge $-1 $237 $561 $389 $564 reversed $149 $-1 #
edge $-1 $390 -3.707154086343313 $565 3.7978412628779816 $237 $566 forward 7 unknown #
coedge $-1 $239 $238 $567 $568 forward $94 $-1 #
coedge $-1 $559 $569 $238 $388 forward $570 $-1 #
edge $-1 $571 -3.7978412628779816 $391 3.707154086343313 $387 $572 forward 7 unknown #
coedge $-1 $558 $240 $384 $564 forward $235 $-1 #
vertex $-1 $385 $573 #
vertex $-1 $560 $574 #
straight-curve $-1 0 -31.558542651210583 3.707154086343313 1 0 0 I I #
face $-1 $-1 $405 $56 $-1 $575 forward single #
loop $-1 $-1 $576 $242 #
plane-surface $-1 74.440748313852353 0 0 -1 0 0 0 0 1 forward_v I I I I #
coedge $-1 $577 $578 $579 $580 reversed $243 $-1 #
coedge $-1 $581 $245 $247 $403 forward $153 $-1 #
coedge $-1 $245 $581 $577 $582 forward $153 $-1 #
coedge $-1 $579 $248 $245 $400 forward $405 $-1 #
edge $-1 $407 1.2243550174237168 $583 8.1120340954364405 $399 $584 forward 7 unknown #
coedge $-1 $585 $586 $246 $402 forward $394 $-1 #
edge $-1 $587 -101.05517677137567 $406 -96.918931083623548 $401 $588 forward 7 unknown #
edge $-1 $407 143.13143853494989 $587 148.88149662770468 $247 $589 forward 7 unknown #
coedge $-1 $248 $579 $585 $590 forward $405 $-1 #
loop $-1 $-1 $579 $393 #
vertex $-1 $402 $591 #
vertex $-1 $249 $592 #
straight-curve $-1 39.057679515036845 -5.8925495738537954 12.544055998609181 -1 0 0 I I #
coedge $-1 $409 $409 $-1 $593 reversed $252 $-1 #
edge $-1 $594 0 $594 6.2831853071796004 $253 $595 forward 7 unknown #
vertex $-1 $256 $596 #
ellipse-curve $-1 72.443585346002294 -9.3363891128601573 10.4759331547331 0.71933980857756763 0 0.69465836192734942 0.34732918096367471 0 -0.35966990428878381 1 I I #
face $-1 $-1 $425 $58 $-1 $597 forward single #
loop $-1 $-1 $598 $257 #
plane-surface $-1 74.440748313852353 0 0 -1 0 0 0 0 1 forward_v I I I I #
coedge $-1 $599 $600 $601 $602 reversed $258 $-1 #
coedge $-1 $603 $260 $262 $423 forward $162 $-1 #
coedge $-1 $260 $603 $599 $604 forward $162 $-1 #
coedge $-1 $601 $263 $260 $420 forward $425 $-1 #
edge $-1 $427 -4.0848239650300027 $605 2.8028551129827211 $419 $606 forward 7 unknown #
coedge $-1 $607 $608 $261 $422 forward $414 $-1 #
edge $-1 $609 -101.05517677137567 $426 -96.918931083623548 $421 $610 forward 7 unknown #
edge $-1 $427 143.13143853494989 $609 148.88149662770468 $262 $611 forward 7 unknown #
coedge $-1 $263 $601 $607 $612 forward $425 $-1 #
loop $-1 $-1 $601 $413 #
vertex $-1 $422 $613 #
vertex $-1 $264 $614 #
straight-curve $-1 39.057679515036845 4.7258083910536435 12.544055998609181 -1 0 0 I I #
coedge $-1 $429 $429 $-1 $615 reversed $267 $-1 #
edge $-1 $616 0 $616 6.2831853071796004 $268 $617 forward 7 unknown #
vertex $-1 $271 $618 #
ellipse-curve $-1 72.443585346002294 1.2819688520472816 10.4759331547331 0.71933980857756763 0 0.69465836192734942 0.34732918096367471 0 -0.35966990428878381 1 I I #
face $-1 $-1 $445 $60 $-1 $619 forward single #
loop $-1 $-1 $620 $272 #
plane-surface $-1 74.440748313852353 0 0 -1 0 0 0 0 1 forward_v I I I I #
coedge $-1 $621 $622 $623 $624 reversed $273 $-1 #
coedge $-1 $625 $275 $277 $443 forward $171 $-1 #
coedge $-1 $275 $625 $621 $626 forward $171 $-1 #
coedge $-1 $623 $278 $275 $440 forward $445 $-1 #
edge $-1 $447 -9.3940029474837221 $627 -2.5063238694709984 $439 $628 forward 7 unknown #
coedge $-1 $629 $630 $276 $442 forward $434 $-1 #
edge $-1 $631 -101.05517677137567 $446 -96.918931083623548 $441 $632 forward 7 unknown #
edge $-1 $447 143.13143853494989 $631 148.88149662770468 $277 $633 forward 7 unknown #
coedge $-1 $278 $623 $629 $634 forward $445 $-1 #
loop $-1 $-1 $623 $433 #
vertex $-1 $442 $635 #
vertex $-1 $279 $636 #
straight-curve $-1 39.057679515036845 15.344166355961082 12.544055998609181 -1 0 0 I I #
coedge $-1 $449 $449 $-1 $637 reversed $282 $-1 #
edge $-1 $638 0 $638 6.2831853071796004 $283 $639 forward 7 unknown #
vertex $-1 $286 $640 #
ellipse-curve $-1 72.443585346002294 11.90032681695472 10.4759331547331 0.71933980857756763 0 0.69465836192734942 0.34732918096367471 0 -0.35966990428878381 1 I I #
face $-1 $-1 $465 $62 $-1 $641 forward single #
loop $-1 $-1 $642 $287 #
plane-surface $-1 74.440748313852353 0 0 -1 0 0 0 0 1 forward_v I I I I #
coedge $-1 $643 $644 $645 $646 reversed $288 $-1 #
coedge $-1 $647 $290 $292 $463 forward $180 $-1 #
coedge $-1 $290 $647 $643 $648 forward $180 $-1 #
coedge $-1 $645 $293 $290 $460 forward $465 $-1 #
edge $-1 $467 -14.703181929937442 $649 -7.8155028519247178 $459 $650 forward 7 unknown #
coedge $-1 $651 $652 $291 $462 forward $454 $-1 #
edge $-1 $653 -101.05517677137567 $466 -96.918931083623548 $461 $654 forward 7 unknown #
edge $-1 $467 143.13143853494989 $653 148.88149662770468 $292 $655 forward 7 unknown #
coedge $-1 $293 $645 $651 $656 forward $465 $-1 #
loop $-1 $-1 $645 $453 #
vertex $-1 $462 $657 #
vertex $-1 $294 $658 #
straight-curve $-1 39.057679515036845 25.962524320868521 12.544055998609181 -1 0 0 I I #
coedge $-1 $469 $469 $-1 $659 reversed $297 $-1 #
edge $-1 $660 0 $660 6.2831853071796004 $298 $661 forward 7 unknown #
vertex $-1 $301 $662 #
ellipse-curve $-1 72.443585346002294 22.518684781862159 10.4759331547331 0.71933980857756763 0 0.69465836192734942 0.34732918096367471 0 -0.35966990428878381 1 I I #
face $-1 $-1 $663 $64 $-1 $664 reversed single #
loop $-1 $-1 $308 $302 #
plane-surface $-1 0 0 12.544055998609183 0 0 1 1 0 0 forward_v I I I I #
coedge $-1 $665 $666 $667 $668 reversed $303 $-1 #
coedge $-1 $669 $305 $307 $483 forward $189 $-1 #
coedge $-1 $305 $669 $665 $670 forward $189 $-1 #
coedge $-1 $667 $308 $305 $480 forward $474 $-1 #
edge $-1 $486 -7.8633876155666709 $671 1.6702245038949801 $479 $672 forward 7 unknown #
coedge $-1 $673 $674 $306 $482 forward $663 $-1 #
edge $-1 $675 -60.297729139006783 $485 -50.586568695146987 $481 $676 forward 7 unknown #
edge $-1 $486 -17.366386907581639 $675 0 $307 $677 forward 7 unknown #
coedge $-1 $308 $667 $673 $678 forward $474 $-1 #
vertex $-1 $309 $679 #
vertex $-1 $309 $680 #
straight-curve $-1 -78.847112884093832 -10.959969171402516 12.544055998609181 1 0 0 I I #
coedge $-1 $488 $488 $-1 $681 reversed $312 $-1 #
edge $-1 $682 0 $682 6.2831853071796004 $313 $683 forward 7 unknown #
vertex $-1 $316 $684 #
ellipse-curve $-1 -67.2420547334616 -9.0532467475101868 7.6884757766792875 -0.55919291073839883 0 0.82903756765294845 0.41451878382647422 0 0.27959645536919941 1 I I #
coedge $-1 $492 $492 $-1 $685 reversed $319 $-1 #
edge $-1 $686 0 $686 6.2831853071796004 $320 $687 forward 7 unknown #
vertex $-1 $323 $688 #
ellipse-curve $-1 -67.2420547334616 -6.1931631116716908 7.6884757766792875 -0.55919291073839883 0 0.82903756765294845 0.41451878382647422 0 0.27959645536919941 1 I I #
coedge $-1 $496 $496 $-1 $689 reversed $326 $-1 #
edge $-1 $690 0 $690 6.2831853071796004 $327 $691 forward 7 unknown #
vertex $-1 $330 $692 #
ellipse-curve $-1 -67.2420547334616 -3.3330794758331947 7.6884757766792875 -0.55919291073839883 0 0.82903756765294845 0.41451878382647422 0 0.27959645536919941 1 I I #
face $-1 $-1 $693 $68 $-1 $694 reversed single #
loop $-1 $-1 $337 $331 #
plane-surface $-1 0 0 12.544055998609183 0 0 1 1 0 0 forward_v I I I I #
coedge $-1 $695 $696 $697 $698 reversed $332 $-1 #
coedge $-1 $699 $334 $336 $510 forward $208 $-1 #
coedge $-1 $334 $699 $695 $700 forward $208 $-1 #
coedge $-1 $697 $337 $334 $507 forward $501 $-1 #
edge $-1 $513 4.620309792788122 $701 14.153921912249773 $506 $702 forward 7 unknown #
coedge $-1 $703 $704 $335 $509 forward $693 $-1 #
edge $-1 $705 -60.297729139006783 $512 -50.586568695146987 $508 $706 forward 7 unknown #
edge $-1 $513 -17.366386907581639 $705 0 $336 $707 forward 7 unknown #
coedge $-1 $337 $697 $703 $708 forward $501 $-1 #
vertex $-1 $338 $709 #
vertex $-1 $338 $710 #
straight-curve $-1 -78.847112884093832 14.00742564530707 12.544055998609181 1 0 0 I I #
coedge $-1 $515 $515 $-1 $711 reversed $341 $-1 #
edge $-1 $712 0 $712 6.2831853071796004 $342 $713 forward 7 unknown #
vertex $-1 $345 $714 #
ellipse-curve $-1 -67.2420547334616 15.914148069199396 7.6884757766792875 -0.55919291073839883 0 0.82903756765294845 0.41451878382647422 0 0.27959645536919941 1 I I #
coedge $-1 $519 $519 $-1 $715 reversed $348 $-1 #
edge $-1 $716 0 $716 6.2831853071796004 $349 $717 forward 7 unknown #
vertex $-1 $352 $718 #
ellipse-curve $-1 -67.2420547334616 18.774231705037895 7.6884757766792875 -0.55919291073839883 0 0.82903756765294845 0.41451878382647422 0 0.27959645536919941 1 I I #
coedge $-1 $523 $523 $-1 $719 reversed $355 $-1 #
edge $-1 $720 0 $720 6.2831853071796004 $356 $721 forward 7 unknown #
vertex $-1 $359 $722 #
ellipse-curve $-1 -67.2420547334616 21.634315340876388 7.6884757766792875 -0.55919291073839883 0 0.82903756765294845 0.41451878382647422 0 0.27959645536919941 1 I I #
face $-1 $-1 $375 $54 $-1 $723 reversed single #
loop $-1 $-1 $543 $360 #
plane-surface $-1 0 31.558542651210583 0 0 -1 0 0 0 -1 forward_v I I I I #
coedge $-1 $724 $541 $544 $725 forward $361 $-1 #
coedge $-1 $547 $363 $364 $535 reversed $227 $-1 #
coedge $-1 $541 $724 $363 $533 reversed $361 $-1 #
edge $-1 $548 -12.544055998609183 $726 12.544055998609183 $532 $727 forward 7 unknown #
coedge $-1 $365 $364 $724 $728 forward $145 $-1 #
edge $-1 $539 -74.440748313852353 $726 74.440748313852353 $531 $729 forward 7 unknown #
coedge $-1 $544 $543 $365 $537 reversed $528 $-1 #
edge $-1 $730 -74.440748313852353 $538 74.440748313852353 $536 $731 forward 7 unknown #
vertex $-1 $367 $732 #
vertex $-1 $550 $733 #
straight-curve $-1 74.440748313852353 0 -12.544055998609183 0 -1 0 I I #
coedge $-1 $530 $532 $368 $542 reversed $361 $-1 #
edge $-1 $545 -31.558542651210583 $548 31.558542651210583 $541 $734 forward 7 unknown #
coedge $-1 $536 $369 $374 $551 forward $528 $-1 #
coedge $-1 $369 $536 $530 $725 reversed $528 $-1 #
vertex $-1 $370 $735 #
straight-curve $-1 0 31.558542651210583 12.544055998609183 -1 0 0 I I #
coedge $-1 $371 $531 $373 $550 reversed $227 $-1 #
vertex $-1 $542 $736 #
straight-curve $-1 0 -31.558542651210583 12.544055998609183 1 0 0 I I #
edge $-1 $376 -12.544055998609183 $539 12.544055998609183 $373 $737 forward 7 unknown #
edge $-1 $377 -12.544055998609183 $538 12.544055998609183 $374 $738 forward 7 unknown #
point $-1 74.440748313852353 -31.558542651210583 12.544055998609183 #
point $-1 74.440748313852353 31.558542651210583 12.544055998609183 #
face $-1 $-1 $570 $55 $-1 $739 reversed single #
loop $-1 $-1 $740 $379 #
plane-surface $-1 0 -44.740838320212582 -0.045343588267334312 0 1 0 0 0 1 forward_v I I I I #
coedge $-1 $741 $567 $569 $742 forward $380 $-1 #
coedge $-1 $382 $389 $743 $744 forward $235 $-1 #
coedge $-1 $745 $387 $382 $560 reversed $570 $-1 #
edge $-1 $746 -6.5911478345010011 $391 6.5911478345009975 $559 $747 forward 7 unknown #
coedge $-1 $384 $383 $740 $748 reversed $149 $-1 #
coedge $-1 $567 $741 $383 $563 forward $380 $-1 #
edge $-1 $749 -6.5911478345010011 $565 6.5911478345009975 $383 $750 forward 7 unknown #
edge $-1 $390 -6.5911478345009975 $751 6.5911478345010011 $384 $752 forward 7 unknown #
vertex $-1 $385 $753 #
straight-curve $-1 -74.440748313852353 -31.558542651210583 0 0 0 -1 I I #
coedge $-1 $557 $562 $386 $568 reversed $380 $-1 #
edge $-1 $571 -74.440748313852353 $565 74.440748313852353 $567 $754 forward 7 unknown #
coedge $-1 $387 $745 $557 $742 reversed $570 $-1 #
loop $-1 $-1 $387 $554 #
vertex $-1 $388 $755 #
straight-curve $-1 74.440748313852353 -31.558542651210583 0 0 0 1 I I #
point $-1 -74.440748313852353 -31.558542651210583 3.707154086343313 #
point $-1 74.440748313852353 -31.558542651210583 3.707154086343313 #
plane-surface $-1 0 0 12.544055998609183 0 0 1 1 0 0 forward_v I I I I #
coedge $-1 $586 $585 $578 $756 forward $394 $-1 #
coedge $-1 $578 $396 $398 $582 reversed $243 $-1 #
coedge $-1 $396 $577 $576 $756 reversed $243 $-1 #
coedge $-1 $404 $399 $396 $580 forward $405 $-1 #
edge $-1 $583 31.388742863115361 $757 35.383068798815508 $579 $758 forward 7 unknown #
coedge $-1 $398 $397 $586 $759 reversed $153 $-1 #
edge $-1 $760 -148.88149662770468 $583 -143.13143853494989 $577 $761 forward 7 unknown #
vertex $-1 $400 $762 #
straight-curve $-1 70.446422378152221 -4.6681945564300786 12.544055998609196 0 -1 0 I I #
coedge $-1 $576 $401 $404 $590 reversed $394 $-1 #
coedge $-1 $401 $576 $581 $759 forward $394 $-1 #
vertex $-1 $402 $763 #
straight-curve $-1 74.440748313852353 -5.8925495738537954 109.46298708223273 0 0 1 I I #
straight-curve $-1 -28.981028254841178 -5.8925495738537954 115.50419759577193 0.69465836192734942 0 -0.71933980857756763 I I #
edge $-1 $757 -12.780228651866519 $406 -5.8925495738537954 $585 $764 forward 7 unknown #
point $-1 74.440748313852353 -5.8925495738537954 12.544055998609183 #
point $-1 70.446422378152207 -5.8925495738537954 12.544055998609181 #
edge $-1 $765 1 $765 0 $409 $-1 forward 7 unknown #
vertex $-1 $410 $766 #
ellipse-curve $-1 71.540804775668249 -9.3363891128601573 9.6041281125400833 0.71933980857756763 0 0.69465836192734942 0.34732918096367471 0 -0.35966990428878381 1 I I #
point $-1 72.790914526965963 -9.3363891128601573 10.116263250444309 #
plane-surface $-1 0 0 12.544055998609183 0 0 1 1 0 0 forward_v I I I I #
coedge $-1 $608 $607 $600 $767 forward $414 $-1 #
coedge $-1 $600 $416 $418 $604 reversed $258 $-1 #
coedge $-1 $416 $599 $598 $767 reversed $258 $-1 #
coedge $-1 $424 $419 $416 $602 forward $425 $-1 #
edge $-1 $605 31.388742863115361 $768 35.383068798815508 $601 $769 forward 7 unknown #
coedge $-1 $418 $417 $608 $770 reversed $162 $-1 #
edge $-1 $771 -148.88149662770468 $605 -143.13143853494989 $599 $772 forward 7 unknown #
vertex $-1 $420 $773 #
straight-curve $-1 70.446422378152221 0.64098442602364081 12.544055998609196 0 -1 0 I I #
coedge $-1 $598 $421 $424 $612 reversed $414 $-1 #
coedge $-1 $421 $598 $603 $770 forward $414 $-1 #
vertex $-1 $422 $774 #
straight-curve $-1 74.440748313852353 4.7258083910536435 109.46298708223273 0 0 1 I I #
straight-curve $-1 -28.981028254841178 4.7258083910536435 115.50419759577193 0.69465836192734942 0 -0.71933980857756763 I I #
edge $-1 $768 -2.1618706869590802 $426 4.7258083910536435 $607 $775 forward 7 unknown #
point $-1 74.440748313852353 4.7258083910536435 12.544055998609183 #
point $-1 70.446422378152207 4.7258083910536435 12.544055998609181 #
edge $-1 $776 1 $776 0 $429 $-1 forward 7 unknown #
vertex $-1 $430 $777 #
ellipse-curve $-1 71.540804775668249 1.2819688520472816 9.6041281125400833 0.71933980857756763 0 0.69465836192734942 0.34732918096367471 0 -0.35966990428878381 1 I I #
point $-1 72.790914526965963 1.2819688520472816 10.116263250444309 #
plane-surface $-1 0 0 12.544055998609183 0 0 1 1 0 0 forward_v I I I I #
coedge $-1 $630 $629 $622 $778 forward $434 $-1 #
coedge $-1 $622 $436 $438 $626 reversed $273 $-1 #
coedge $-1 $436 $621 $620 $778 reversed $273 $-1 #
coedge $-1 $444 $439 $436 $624 forward $445 $-1 #
edge $-1 $627 31.388742863115361 $779 35.383068798815508 $623 $780 forward 7 unknown #
coedge $-1 $438 $437 $630 $781 reversed $171 $-1 #
edge $-1 $782 -148.88149662770468 $627 -143.13143853494989 $621 $783 forward 7 unknown #
vertex $-1 $440 $784 #
straight-curve $-1 70.446422378152221 5.9501634084773602 12.544055998609196 0 -1 0 I I #
coedge $-1 $620 $441 $444 $634 reversed $434 $-1 #
coedge $-1 $441 $620 $625 $781 forward $434 $-1 #
vertex $-1 $442 $785 #
straight-curve $-1 74.440748313852353 15.344166355961082 109.46298708223273 0 0 1 I I #
straight-curve $-1 -28.981028254841178 15.344166355961082 115.50419759577193 0.69465836192734942 0 -0.71933980857756763 I I #
edge $-1 $779 8.4564872779483586 $446 15.344166355961082 $629 $786 forward 7 unknown #
point $-1 74.440748313852353 15.344166355961082 12.544055998609183 #
point $-1 70.446422378152207 15.344166355961082 12.544055998609181 #
edge $-1 $787 1 $787 0 $449 $-1 forward 7 unknown #
vertex $-1 $450 $788 #
ellipse-curve $-1 71.540804775668249 11.90032681695472 9.6041281125400833 0.71933980857756763 0 0.69465836192734942 0.34732918096367471 0 -0.35966990428878381 1 I I #
point $-1 72.790914526965963 11.90032681695472 10.116263250444309 #
plane-surface $-1 0 0 12.544055998609183 0 0 1 1 0 0 forward_v I I I I #
coedge $-1 $652 $651 $644 $789 forward $454 $-1 #
coedge $-1 $644 $456 $458 $648 reversed $288 $-1 #
coedge $-1 $456 $643 $642 $789 reversed $288 $-1 #
coedge $-1 $464 $459 $456 $646 forward $465 $-1 #
edge $-1 $649 31.388742863115361 $790 35.383068798815508 $645 $791 forward 7 unknown #
coedge $-1 $458 $457 $652 $792 reversed $180 $-1 #
edge $-1 $793 -148.88149662770468 $649 -143.13143853494989 $643 $794 forward 7 unknown #
vertex $-1 $460 $795 #
straight-curve $-1 70.446422378152221 11.25934239093108 12.544055998609196 0 -1 0 I I #
coedge $-1 $642 $461 $464 $656 reversed $454 $-1 #
coedge $-1 $461 $642 $647 $792 forward $454 $-1 #
vertex $-1 $462 $796 #
straight-curve $-1 74.440748313852353 25.962524320868521 109.46298708223273 0 0 1 I I #
straight-curve $-1 -28.981028254841178 25.962524320868521 115.50419759577193 0.69465836192734942 0 -0.71933980857756763 I I #
edge $-1 $790 19.074845242855798 $466 25.962524320868521 $651 $797 forward 7 unknown #
point $-1 74.440748313852353 25.962524320868521 12.544055998609183 #
point $-1 70.446422378152207 25.962524320868521 12.544055998609181 #
edge $-1 $798 1 $798 0 $469 $-1 forward 7 unknown #
vertex $-1 $470 $799 #
ellipse-curve $-1 71.540804775668249 22.518684781862159 9.6041281125400833 0.71933980857756763 0 0.69465836192734942 0.34732918096367471 0 -0.35966990428878381 1 I I #
point $-1 72.790914526965963 22.518684781862159 10.116263250444309 #
loop $-1 $-1 $481 $473 #
plane-surface $-1 -74.440748313852353 0 0 1 0 0 0 0 -1 forward_v I I I I #
coedge $-1 $666 $476 $478 $670 reversed $303 $-1 #
coedge $-1 $476 $665 $800 $801 reversed $303 $-1 #
coedge $-1 $484 $479 $476 $668 forward $474 $-1 #
edge $-1 $671 -18.80375173102297 $802 -4.4063645702414789 $667 $803 forward 7 unknown #
coedge $-1 $478 $477 $674 $804 reversed $189 $-1 #
edge $-1 $805 0 $671 17.366386907581639 $665 $806 forward 7 unknown #
vertex $-1 $480 $807 #
straight-curve $-1 -60.043361153070869 -3.0965815558358454 12.544055998609183 0 1 0 I I #
coedge $-1 $800 $481 $484 $678 reversed $663 $-1 #
coedge $-1 $481 $800 $669 $804 forward $663 $-1 #
vertex $-1 $482 $808 #
straight-curve $-1 -74.440748313852353 -10.959969171402516 63.130624693756168 0 0 1 I I #
straight-curve $-1 -74.440748313852353 -10.959969171402516 2.8328955547493848 -0.82903756765294845 0 -0.55919291073839883 I I #
edge $-1 $802 1.4263570519408653 $485 10.959969171402516 $673 $809 forward 7 unknown #
point $-1 -74.440748313852353 -10.959969171402516 12.544055998609183 #
point $-1 -60.043361153070862 -10.959969171402516 12.544055998609181 #
edge $-1 $810 1 $810 0 $488 $-1 forward 7 unknown #
vertex $-1 $489 $811 #
ellipse-curve $-1 -66.682861822723197 -9.0532467475101868 6.8594382090263322 -0.55919291073839883 0 0.82903756765294845 0.41451878382647422 0 0.27959645536919941 1 I I #
point $-1 -66.827535949635134 -9.0532467475101868 7.9680722320484794 #
edge $-1 $812 1 $812 0 $492 $-1 forward 7 unknown #
vertex $-1 $493 $813 #
ellipse-curve $-1 -66.682861822723197 -6.1931631116716908 6.8594382090263322 -0.55919291073839883 0 0.82903756765294845 0.41451878382647422 0 0.27959645536919941 1 I I #
point $-1 -66.827535949635134 -6.1931631116716908 7.9680722320484794 #
edge $-1 $814 1 $814 0 $496 $-1 forward 7 unknown #
vertex $-1 $497 $815 #
ellipse-curve $-1 -66.682861822723197 -3.3330794758331947 6.8594382090263322 -0.55919291073839883 0 0.82903756765294845 0.41451878382647422 0 0.27959645536919941 1 I I #
point $-1 -66.827535949635134 -3.3330794758331947 7.9680722320484794 #
loop $-1 $-1 $508 $500 #
plane-surface $-1 -74.440748313852353 0 0 1 0 0 0 0 -1 forward_v I I I I #
coedge $-1 $696 $503 $505 $700 reversed $332 $-1 #
coedge $-1 $503 $695 $816 $817 reversed $332 $-1 #
coedge $-1 $511 $506 $503 $698 forward $501 $-1 #
edge $-1 $701 -18.80375173102297 $818 -4.4063645702414789 $697 $819 forward 7 unknown #
coedge $-1 $505 $504 $704 $820 reversed $208 $-1 #
edge $-1 $821 0 $701 17.366386907581639 $695 $822 forward 7 unknown #
vertex $-1 $507 $823 #
straight-curve $-1 -60.043361153070869 9.3871158525189475 12.544055998609183 0 1 0 I I #
coedge $-1 $816 $508 $511 $708 reversed $693 $-1 #
coedge $-1 $508 $816 $699 $820 forward $693 $-1 #
vertex $-1 $509 $824 #
straight-curve $-1 -74.440748313852353 14.00742564530707 63.130624693756168 0 0 1 I I #
straight-curve $-1 -74.440748313852353 14.00742564530707 2.8328955547493848 -0.82903756765294845 0 -0.55919291073839883 I I #
edge $-1 $818 -23.541037764768721 $512 -14.00742564530707 $703 $825 forward 7 unknown #
point $-1 -74.440748313852353 14.00742564530707 12.544055998609183 #
point $-1 -60.043361153070862 14.00742564530707 12.544055998609181 #
edge $-1 $826 1 $826 0 $515 $-1 forward 7 unknown #
vertex $-1 $516 $827 #
ellipse-curve $-1 -66.682861822723197 15.914148069199396 6.8594382090263322 -0.55919291073839883 0 0.82903756765294845 0.41451878382647422 0 0.27959645536919941 1 I I #
point $-1 -66.827535949635134 15.914148069199396 7.9680722320484794 #
edge $-1 $828 1 $828 0 $519 $-1 forward 7 unknown #
vertex $-1 $520 $829 #
ellipse-curve $-1 -66.682861822723197 18.774231705037895 6.8594382090263322 -0.55919291073839883 0 0.82903756765294845 0.41451878382647422 0 0.27959645536919941 1 I I #
point $-1 -66.827535949635134 18.774231705037895 7.9680722320484794 #
edge $-1 $830 1 $830 0 $523 $-1 forward 7 unknown #
vertex $-1 $524 $831 #
ellipse-curve $-1 -66.682861822723197 21.634315340876388 6.8594382090263322 -0.55919291073839883 0 0.82903756765294845 0.41451878382647422 0 0.27959645536919941 1 I I #
point $-1 -66.827535949635134 21.634315340876388 7.9680722320484794 #
plane-surface $-1 74.440748313852353 0 0 -1 0 0 0 0 1 forward_v I I I I #
coedge $-1 $532 $530 $534 $728 reversed $361 $-1 #
edge $-1 $545 -12.544055998609183 $730 12.544055998609183 $544 $832 forward 7 unknown #
vertex $-1 $728 $833 #
straight-curve $-1 -74.440748313852353 -31.558542651210583 0 0 0 -1 I I #
edge $-1 $726 -31.558542651210583 $730 31.558542651210583 $724 $834 forward 7 unknown #
straight-curve $-1 0 -31.558542651210583 -12.544055998609183 -1 0 0 I I #
vertex $-1 $537 $835 #
straight-curve $-1 0 31.558542651210583 -12.544055998609183 1 0 0 I I #
point $-1 74.440748313852353 31.558542651210583 -12.544055998609183 #
point $-1 74.440748313852353 -31.558542651210583 -12.544055998609183 #
straight-curve $-1 -74.440748313852353 0 12.544055998609183 0 -1 0 I I #
point $-1 -74.440748313852353 31.558542651210583 12.544055998609183 #
point $-1 -74.440748313852353 -31.558542651210583 12.544055998609183 #
straight-curve $-1 74.440748313852353 -31.558542651210583 0 0 0 -1 I I #
straight-curve $-1 74.440748313852353 31.558542651210583 0 0 0 -1 I I #
plane-surface $-1 74.440748313852353 0 0 -1 0 0 0 0 1 forward_v I I I I #
coedge $-1 $836 $743 $561 $748 forward $555 $-1 #
coedge $-1 $562 $557 $836 $837 forward $380 $-1 #
edge $-1 $571 -6.5911478345009975 $838 6.5911478345010011 $569 $839 forward 7 unknown #
coedge $-1 $740 $840 $558 $744 reversed $555 $-1 #
edge $-1 $751 -74.440748313852353 $746 74.440748313852353 $743 $841 forward 7 unknown #
coedge $-1 $569 $559 $840 $842 forward $570 $-1 #
vertex $-1 $560 $843 #
straight-curve $-1 74.440748313852353 -38.149690485711581 3.707154086343313 0 1 0 I I #
edge $-1 $751 -3.7524976746106473 $749 3.7524976746106473 $561 $844 forward 7 unknown #
vertex $-1 $563 $845 #
straight-curve $-1 -74.440748313852353 -38.149690485711581 -3.7978412628779816 0 1 0 I I #
vertex $-1 $564 $846 #
straight-curve $-1 -74.440748313852353 -38.149690485711581 3.707154086343313 0 -1 0 I I #
point $-1 -74.440748313852353 -31.558542651210583 -3.7978412628779816 #
straight-curve $-1 0 -31.558542651210583 -3.7978412628779816 -1 0 0 I I #
point $-1 74.440748313852353 -31.558542651210583 -3.7978412628779816 #
edge $-1 $757 96.918931083623548 $760 101.05517677137567 $576 $847 forward 7 unknown #
vertex $-1 $590 $848 #
straight-curve $-1 39.057679515036845 -12.780228651866519 12.544055998609181 1 0 0 I I #
edge $-1 $760 -8.1120340954364405 $587 -1.2243550174237168 $586 $849 forward 7 unknown #
vertex $-1 $759 $850 #
straight-curve $-1 -28.981028254841178 -12.780228651866519 115.50419759577193 -0.69465836192734942 0 0.71933980857756763 I I #
point $-1 70.446422378152207 -12.780228651866519 12.544055998609181 #
point $-1 74.440748313852353 -5.8925495738537954 8.4078103108570588 #
straight-curve $-1 74.440748313852353 0 12.544055998609183 0 1 0 I I #
vertex $-1 $593 $851 #
point $-1 71.888133956631933 -9.3363891128601573 9.2444582082512987 #
edge $-1 $768 96.918931083623548 $771 101.05517677137567 $598 $852 forward 7 unknown #
vertex $-1 $612 $853 #
straight-curve $-1 39.057679515036845 -2.1618706869590802 12.544055998609181 1 0 0 I I #
edge $-1 $771 -2.8028551129827211 $609 4.0848239650300027 $608 $854 forward 7 unknown #
vertex $-1 $770 $855 #
straight-curve $-1 -28.981028254841178 -2.1618706869590802 115.50419759577193 -0.69465836192734942 0 0.71933980857756763 I I #
point $-1 70.446422378152207 -2.1618706869590802 12.544055998609181 #
point $-1 74.440748313852353 4.7258083910536435 8.4078103108570588 #
straight-curve $-1 74.440748313852353 0 12.544055998609183 0 1 0 I I #
vertex $-1 $615 $856 #
point $-1 71.888133956631933 1.2819688520472816 9.2444582082512987 #
edge $-1 $779 96.918931083623548 $782 101.05517677137567 $620 $857 forward 7 unknown #
vertex $-1 $634 $858 #
straight-curve $-1 39.057679515036845 8.4564872779483586 12.544055998609181 1 0 0 I I #
edge $-1 $782 2.5063238694709984 $631 9.3940029474837221 $630 $859 forward 7 unknown #
vertex $-1 $781 $860 #
straight-curve $-1 -28.981028254841178 8.4564872779483586 115.50419759577193 -0.69465836192734942 0 0.71933980857756763 I I #
point $-1 70.446422378152207 8.4564872779483586 12.544055998609181 #
point $-1 74.440748313852353 15.344166355961082 8.4078103108570588 #
straight-curve $-1 74.440748313852353 0 12.544055998609183 0 1 0 I I #
vertex $-1 $637 $861 #
point $-1 71.888133956631933 11.90032681695472 9.2444582082512987 #
edge $-1 $790 96.918931083623548 $793 101.05517677137567 $642 $862 forward 7 unknown #
vertex $-1 $656 $863 #
straight-curve $-1 39.057679515036845 19.074845242855798 12.544055998609181 1 0 0 I I #
edge $-1 $793 7.8155028519247178 $653 14.703181929937442 $652 $864 forward 7 unknown #
vertex $-1 $792 $865 #
straight-curve $-1 -28.981028254841178 19.074845242855798 115.50419759577193 -0.69465836192734942 0 0.71933980857756763 I I #
point $-1 70.446422378152207 19.074845242855798 12.544055998609181 #
point $-1 74.440748313852353 25.962524320868521 8.4078103108570588 #
straight-curve $-1 74.440748313852353 0 12.544055998609183 0 1 0 I I #
vertex $-1 $659 $866 #
point $-1 71.888133956631933 22.518684781862159 9.2444582082512987 #
coedge $-1 $674 $673 $666 $801 forward $663 $-1 #
edge $-1 $802 50.586568695146987 $805 60.297729139006783 $800 $867 forward 7 unknown #
vertex $-1 $678 $868 #
straight-curve $-1 -78.847112884093832 -1.4263570519408653 12.544055998609181 -1 0 0 I I #
edge $-1 $805 -1.6702245038949801 $675 7.8633876155666709 $674 $869 forward 7 unknown #
vertex $-1 $804 $870 #
straight-curve $-1 -74.440748313852353 -1.4263570519408653 2.8328955547493848 0.82903756765294845 0 0.55919291073839883 I I #
point $-1 -60.043361153070862 -1.4263570519408653 12.544055998609181 #
point $-1 -74.440748313852353 -10.959969171402516 2.8328955547493848 #
straight-curve $-1 -74.440748313852353 0 12.544055998609183 0 -1 0 I I #
vertex $-1 $681 $871 #
point $-1 -66.268343038896731 -9.0532467475101868 7.1390346643955311 #
vertex $-1 $685 $872 #
point $-1 -66.268343038896731 -6.1931631116716908 7.1390346643955311 #
vertex $-1 $689 $873 #
point $-1 -66.268343038896731 -3.3330794758331947 7.1390346643955311 #
coedge $-1 $704 $703 $696 $817 forward $693 $-1 #
edge $-1 $818 50.586568695146987 $821 60.297729139006783 $816 $874 forward 7 unknown #
vertex $-1 $708 $875 #
straight-curve $-1 -78.847112884093832 23.541037764768721 12.544055998609181 -1 0 0 I I #
edge $-1 $821 -14.153921912249773 $705 -4.620309792788122 $704 $876 forward 7 unknown #
vertex $-1 $820 $877 #
straight-curve $-1 -74.440748313852353 23.541037764768721 2.8328955547493848 0.82903756765294845 0 0.55919291073839883 I I #
point $-1 -60.043361153070862 23.541037764768721 12.544055998609181 #
point $-1 -74.440748313852353 14.00742564530707 2.8328955547493848 #
straight-curve $-1 -74.440748313852353 0 12.544055998609183 0 -1 0 I I #
vertex $-1 $711 $878 #
point $-1 -66.268343038896731 15.914148069199396 7.1390346643955311 #
vertex $-1 $715 $879 #
point $-1 -66.268343038896731 18.774231705037895 7.1390346643955311 #
vertex $-1 $719 $880 #
point $-1 -66.268343038896731 21.634315340876388 7.1390346643955311 #
straight-curve $-1 -74.440748313852353 31.558542651210583 0 0 0 -1 I I #
point $-1 -74.440748313852353 -31.558542651210583 -12.544055998609183 #
straight-curve $-1 -74.440748313852353 0 -12.544055998609183 0 1 0 I I #
point $-1 -74.440748313852353 31.558542651210583 -12.544055998609183 #
coedge $-1 $840 $740 $741 $837 reversed $555 $-1 #
edge $-1 $838 -74.440748313852353 $749 74.440748313852353 $836 $881 forward 7 unknown #
vertex $-1 $842 $882 #
straight-curve $-1 74.440748313852353 -38.149690485711581 -3.7978412628779816 0 -1 0 I I #
coedge $-1 $743 $836 $745 $842 reversed $555 $-1 #
straight-curve $-1 0 -44.740838320212582 3.707154086343313 1 0 0 I I #
edge $-1 $746 -3.7524976746106473 $838 3.7524976746106473 $745 $883 forward 7 unknown #
point $-1 74.440748313852353 -44.740838320212582 3.707154086343313 #
straight-curve $-1 -74.440748313852353 -44.740838320212582 -0.045343588267334312 0 0 -1 I I #
point $-1 -74.440748313852353 -44.740838320212582 -3.7978412628779816 #
point $-1 -74.440748313852353 -44.740838320212582 3.707154086343313 #
straight-curve $-1 74.440748313852353 -12.780228651866519 109.46298708223273 0 0 -1 I I #
point $-1 74.440748313852353 -12.780228651866519 12.544055998609183 #
straight-curve $-1 74.440748313852353 -4.6681945564300786 8.4078103108570659 0 1 0 I I #
point $-1 74.440748313852353 -12.780228651866519 8.4078103108570588 #
point $-1 71.18113487137947 -9.3363891128601573 9.256798931576407 #
straight-curve $-1 74.440748313852353 -2.1618706869590802 109.46298708223273 0 0 -1 I I #
point $-1 74.440748313852353 -2.1618706869590802 12.544055998609183 #
straight-curve $-1 74.440748313852353 0.64098442602364081 8.4078103108570659 0 1 0 I I #
point $-1 74.440748313852353 -2.1618706869590802 8.4078103108570588 #
point $-1 71.18113487137947 1.2819688520472816 9.256798931576407 #
straight-curve $-1 74.440748313852353 8.4564872779483586 109.46298708223273 0 0 -1 I I #
point $-1 74.440748313852353 8.4564872779483586 12.544055998609183 #
straight-curve $-1 74.440748313852353 5.9501634084773602 8.4078103108570659 0 1 0 I I #
point $-1 74.440748313852353 8.4564872779483586 8.4078103108570588 #
point $-1 71.18113487137947 11.90032681695472 9.256798931576407 #
straight-curve $-1 74.440748313852353 19.074845242855798 109.46298708223273 0 0 -1 I I #
point $-1 74.440748313852353 19.074845242855798 12.544055998609183 #
straight-curve $-1 74.440748313852353 11.25934239093108 8.4078103108570659 0 1 0 I I #
point $-1 74.440748313852353 19.074845242855798 8.4078103108570588 #
point $-1 71.18113487137947 22.518684781862159 9.256798931576407 #
straight-curve $-1 -74.440748313852353 -1.4263570519408653 63.130624693756168 0 0 -1 I I #
point $-1 -74.440748313852353 -1.4263570519408653 12.544055998609183 #
straight-curve $-1 -74.440748313852353 -3.0965815558358454 2.832895554749383 0 -1 0 I I #
point $-1 -74.440748313852353 -1.4263570519408653 2.8328955547493848 #
point $-1 -66.40326536735401 -9.0532467475101868 6.4449194251998572 #
point $-1 -66.40326536735401 -6.1931631116716908 6.4449194251998572 #
point $-1 -66.40326536735401 -3.3330794758331947 6.4449194251998572 #
straight-curve $-1 -74.440748313852353 23.541037764768721 63.130624693756168 0 0 -1 I I #
point $-1 -74.440748313852353 23.541037764768721 12.544055998609183 #
straight-curve $-1 -74.440748313852353 9.3871158525189475 2.832895554749383 0 -1 0 I I #
point $-1 -74.440748313852353 23.541037764768721 2.8328955547493848 #
point $-1 -66.40326536735401 15.914148069199396 6.4449194251998572 #
point $-1 -66.40326536735401 18.774231705037895 6.4449194251998572 #
point $-1 -66.40326536735401 21.634315340876388 6.4449194251998572 #
straight-curve $-1 0 -44.740838320212582 -3.7978412628779816 -1 0 0 I I #
point $-1 74.440748313852353 -44.740838320212582 -3.7978412628779816 #
straight-curve $-1 74.440748313852353 -44.740838320212582 -0.045343588267334312 0 0 -1 I I #
End-of-ACIS-data 