500 0 13 0           
7 Unknown 11 ACIS 5.0 NT 24 Fri Mar 26 17:07:24 1999 
-1 9.9999999999999995e-007 1e-010 
body $-1 $13 $-1 $14 #
body $-1 $15 $-1 $16 #
body $-1 $17 $-1 $18 #
body $-1 $19 $-1 $20 #
body $-1 $21 $-1 $22 #
body $-1 $23 $-1 $24 #
body $-1 $25 $-1 $26 #
body $-1 $27 $-1 $28 #
body $-1 $29 $-1 $30 #
body $-1 $31 $-1 $32 #
body $-1 $33 $-1 $34 #
body $-1 $35 $-1 $36 #
body $-1 $37 $-1 $38 #
lump $-1 $-1 $39 $0 #
transform $-1 1 0 0 0 1 0 0 0 1 42.730796227912229 26.535684920951066 9.7054832454490825 1 rotate no_reflect no_shear #
lump $-1 $-1 $40 $1 #
transform $-1 1 0 0 0 1 0 0 0 1 42.730796227912229 26.535684920951066 9.7054832454490825 1 rotate no_reflect no_shear #
lump $-1 $-1 $41 $2 #
transform $-1 1 0 0 0 1 0 0 0 1 42.730796227912229 26.535684920951066 9.7054832454490825 1 rotate no_reflect no_shear #
lump $-1 $-1 $42 $3 #
transform $-1 1 0 0 0 1 0 0 0 1 42.730796227912229 26.535684920951066 9.7054832454490825 1 rotate no_reflect no_shear #
lump $-1 $-1 $43 $4 #
transform $-1 1 0 0 0 1 0 0 0 1 42.730796227912229 26.535684920951066 9.7054832454490825 1 rotate no_reflect no_shear #
lump $-1 $-1 $44 $5 #
transform $-1 1 0 0 0 1 0 0 0 1 42.730796227912229 26.535684920951066 9.7054832454490825 1 rotate no_reflect no_shear #
lump $-1 $-1 $45 $6 #
transform $-1 1 0 0 0 1 0 0 0 1 42.730796227912229 26.535684920951066 9.7054832454490825 1 rotate no_reflect no_shear #
lump $-1 $-1 $46 $7 #
transform $-1 1 0 0 0 1 0 0 0 1 42.730796227912229 26.535684920951066 9.7054832454490825 1 rotate no_reflect no_shear #
lump $-1 $-1 $47 $8 #
transform $-1 1 0 0 0 1 0 0 0 1 42.730796227912229 26.535684920951066 9.7054832454490825 1 rotate no_reflect no_shear #
lump $-1 $-1 $48 $9 #
transform $-1 1 0 0 0 1 0 0 0 1 42.730796227912229 26.535684920951066 9.7054832454490825 1 rotate no_reflect no_shear #
lump $-1 $-1 $49 $10 #
transform $-1 1 0 0 0 1 0 0 0 1 42.730796227912229 26.535684920951066 9.7054832454490825 1 rotate no_reflect no_shear #
lump $-1 $-1 $50 $11 #
transform $-1 1 0 0 0 1 0 0 0 1 42.730796227912229 26.535684920951066 9.7054832454490825 1 rotate no_reflect no_shear #
lump $-1 $-1 $51 $12 #
transform $-1 1 0 0 0 1 0 0 0 1 42.730796227912229 26.535684920951066 9.7054832454490825 1 rotate no_reflect no_shear #
shell $-1 $-1 $-1 $52 $-1 $13 #
shell $-1 $-1 $-1 $53 $-1 $15 #
shell $-1 $-1 $-1 $54 $-1 $17 #
shell $-1 $-1 $-1 $55 $-1 $19 #
shell $-1 $-1 $-1 $56 $-1 $21 #
shell $-1 $-1 $-1 $57 $-1 $23 #
shell $-1 $-1 $-1 $58 $-1 $25 #
shell $-1 $-1 $-1 $59 $-1 $27 #
shell $-1 $-1 $-1 $60 $-1 $29 #
shell $-1 $-1 $-1 $61 $-1 $31 #
shell $-1 $-1 $-1 $62 $-1 $33 #
shell $-1 $-1 $-1 $63 $-1 $35 #
shell $-1 $-1 $-1 $64 $-1 $37 #
face $-1 $65 $66 $39 $-1 $67 forward single #
face $-1 $68 $69 $40 $-1 $70 forward single #
face $-1 $71 $72 $41 $-1 $73 reversed single #
face $-1 $74 $75 $42 $-1 $76 forward single #
face $-1 $77 $78 $43 $-1 $79 forward single #
face $-1 $80 $81 $44 $-1 $82 forward single #
face $-1 $83 $84 $45 $-1 $85 reversed single #
face $-1 $86 $87 $46 $-1 $88 forward single #
face $-1 $89 $90 $47 $-1 $91 forward single #
face $-1 $92 $93 $48 $-1 $94 forward single #
face $-1 $95 $96 $49 $-1 $97 reversed single #
face $-1 $98 $99 $50 $-1 $100 forward single #
face $-1 $101 $102 $51 $-1 $103 forward single #
face $-1 $104 $105 $39 $-1 $106 reversed single #
loop $-1 $-1 $107 $52 #
plane-surface $-1 0 0 9.7054832454490825 0 0 1 1 0 0 forward_v I I I I #
face $-1 $108 $109 $40 $-1 $110 reversed single #
loop $-1 $-1 $111 $53 #
plane-surface $-1 -39.069367352088335 0 6.341352811800502 0 0 1 1 0 0 forward_v I I I I #
face $-1 $112 $113 $41 $-1 $114 reversed single #
loop $-1 $-1 $115 $54 #
plane-surface $-1 -26.429907694944305 37.330285851879523 102.8674639127814 1 0 0 0 -0.61566148304635926 -0.78801074757464917 forward_v I I I I #
face $-1 $116 $117 $42 $-1 $118 forward single #
loop $-1 $119 $120 $55 #
cone-surface $-1 -24.095713606669843 21.581205070396013 5.5521752338653148 0 -0.61566148304635926 -0.78801074757464917 0.5 0 0 1 I I 0 1 0.5 forward I I I I #
face $-1 $121 $122 $43 $-1 $123 forward single #
loop $-1 $124 $125 $56 #
cone-surface $-1 -20.594422474258153 21.581205070396013 5.5521752338653148 0 -0.61566148304635926 -0.78801074757464917 0.5 0 0 1 I I 0 1 0.5 forward I I I I #
face $-1 $126 $127 $44 $-1 $128 forward single #
loop $-1 $129 $130 $57 #
cone-surface $-1 -17.093131341846462 21.581205070396013 5.5521752338653148 0 -0.61566148304635926 -0.78801074757464917 0.5 0 0 1 I I 0 1 0.5 forward I I I I #
face $-1 $131 $132 $45 $-1 $133 reversed single #
loop $-1 $-1 $134 $58 #
plane-surface $-1 12.639459657144037 37.330285851879523 102.8674639127814 1 0 0 0 -0.61566148304635926 -0.78801074757464917 forward_v I I I I #
face $-1 $135 $136 $46 $-1 $137 forward single #
loop $-1 $138 $139 $59 #
cone-surface $-1 14.973653745418495 21.581205070396013 5.5521752338653148 0 -0.61566148304635926 -0.78801074757464917 0.5 0 0 1 I I 0 1 0.5 forward I I I I #
face $-1 $140 $141 $47 $-1 $142 forward single #
loop $-1 $143 $144 $60 #
cone-surface $-1 18.47494487783019 21.581205070396013 5.5521752338653148 0 -0.61566148304635926 -0.78801074757464917 0.5 0 0 1 I I 0 1 0.5 forward I I I I #
face $-1 $145 $146 $48 $-1 $147 forward single #
loop $-1 $148 $149 $61 #
cone-surface $-1 21.976236010241884 21.581205070396013 5.5521752338653148 0 -0.61566148304635926 -0.78801074757464917 0.5 0 0 1 I I 0 1 0.5 forward I I I I #
face $-1 $150 $151 $49 $-1 $152 reversed single #
loop $-1 $-1 $153 $62 #
plane-surface $-1 -24.745805942439429 -83.720652789067046 68.624736309697809 -1 0 0 0 -0.66913061440640931 0.74314481823134659 forward_v I I I I #
face $-1 $154 $155 $50 $-1 $156 forward single #
loop $-1 $157 $158 $63 #
cone-surface $-1 -32.361614895171584 -23.421798185798782 6.7830795128402634 0 0.66913061440640931 -0.74314481823134659 1.5 0 0 1 I I 0 1 1.5 forward I I I I #
face $-1 $159 $160 $51 $-1 $161 forward single #
loop $-1 $162 $163 $64 #
cone-surface $-1 -27.792129523532292 -23.421798185798782 6.7830795128402634 0 0.66913061440640931 -0.74314481823134659 1.5 0 0 1 I I 0 1 1.5 forward I I I I #
face $-1 $164 $165 $39 $-1 $166 reversed single #
loop $-1 $-1 $167 $65 #
plane-surface $-1 0 0 -9.7054832454490825 0 0 1 1 0 0 forward_v I I I I #
coedge $-1 $168 $169 $170 $171 forward $66 $-1 #
face $-1 $172 $173 $40 $-1 $174 reversed single #
loop $-1 $-1 $175 $68 #
plane-surface $-1 -39.069367352088335 0 3.3413528118005038 0 0 1 1 0 0 forward_v I I I I #
coedge $-1 $176 $177 $178 $179 forward $69 $-1 #
face $-1 $180 $181 $41 $-1 $182 reversed single #
loop $-1 $-1 $183 $71 #
plane-surface $-1 -20.594422474258153 -15.285124902976911 35.522810552747174 0 0.61566148304635926 0.78801074757464917 1 0 0 forward_v I I I I #
coedge $-1 $184 $185 $186 $187 reversed $72 $-1 #
face $-1 $-1 $188 $42 $-1 $189 forward single #
loop $-1 $190 $191 $74 #
cone-surface $-1 -24.095713606669843 20.860879068433984 4.6302000138224937 0 -0.61566148304635926 -0.78801074757464917 0.25 0 0 1 I I -0.70710678118654746 0.70710678118654746 0.25 forward I I I I #
loop $-1 $-1 $192 $55 #
coedge $-1 $120 $120 $193 $194 reversed $75 $-1 #
face $-1 $-1 $195 $43 $-1 $196 forward single #
loop $-1 $197 $198 $77 #
cone-surface $-1 -20.594422474258153 20.860879068433984 4.6302000138224937 0 -0.61566148304635926 -0.78801074757464917 0.25 0 0 1 I I -0.70710678118654746 0.70710678118654746 0.25 forward I I I I #
loop $-1 $-1 $199 $56 #
coedge $-1 $125 $125 $200 $201 reversed $78 $-1 #
face $-1 $-1 $202 $44 $-1 $203 forward single #
loop $-1 $204 $205 $80 #
cone-surface $-1 -17.093131341846462 20.860879068433984 4.6302000138224937 0 -0.61566148304635926 -0.78801074757464917 0.25 0 0 1 I I -0.70710678118654746 0.70710678118654746 0.25 forward I I I I #
loop $-1 $-1 $206 $57 #
coedge $-1 $130 $130 $207 $208 reversed $81 $-1 #
face $-1 $209 $210 $45 $-1 $211 reversed single #
loop $-1 $-1 $212 $83 #
plane-surface $-1 18.47494487783019 -15.285124902976911 35.522810552747174 0 0.61566148304635926 0.78801074757464917 1 0 0 forward_v I I I I #
coedge $-1 $213 $214 $215 $216 reversed $84 $-1 #
face $-1 $-1 $217 $46 $-1 $218 forward single #
loop $-1 $219 $220 $86 #
cone-surface $-1 14.973653745418495 20.860879068433984 4.6302000138224937 0 -0.61566148304635926 -0.78801074757464917 0.25 0 0 1 I I -0.70710678118654746 0.70710678118654746 0.25 forward I I I I #
loop $-1 $-1 $221 $59 #
coedge $-1 $139 $139 $222 $223 reversed $87 $-1 #
face $-1 $-1 $224 $47 $-1 $225 forward single #
loop $-1 $226 $227 $89 #
cone-surface $-1 18.47494487783019 20.860879068433984 4.6302000138224937 0 -0.61566148304635926 -0.78801074757464917 0.25 0 0 1 I I -0.70710678118654746 0.70710678118654746 0.25 forward I I I I #
loop $-1 $-1 $228 $60 #
coedge $-1 $144 $144 $229 $230 reversed $90 $-1 #
face $-1 $-1 $231 $48 $-1 $232 forward single #
loop $-1 $233 $234 $92 #
cone-surface $-1 21.976236010241884 20.860879068433984 4.6302000138224937 0 -0.61566148304635926 -0.78801074757464917 0.25 0 0 1 I I -0.70710678118654746 0.70710678118654746 0.25 forward I I I I #
loop $-1 $-1 $235 $61 #
coedge $-1 $149 $149 $236 $237 reversed $93 $-1 #
face $-1 $238 $239 $49 $-1 $240 forward single #
loop $-1 $-1 $241 $95 #
plane-surface $-1 -30.076872209351937 -26.53568492095107 5.1143967183527224 0 -0.66913061440640931 0.74314481823134659 1 0 0 forward_v I I I I #
coedge $-1 $242 $243 $244 $245 reversed $96 $-1 #
face $-1 $-1 $246 $50 $-1 $247 forward single #
loop $-1 $248 $249 $98 #
cone-surface $-1 -32.361614895171584 -22.355522511149573 5.598860430106118 0 0.66913061440640931 -0.74314481823134659 0.75 0 0 1 I I -0.70710678118654757 0.70710678118654757 0.75 forward I I I I #
loop $-1 $-1 $250 $63 #
coedge $-1 $158 $158 $251 $252 reversed $99 $-1 #
face $-1 $-1 $253 $51 $-1 $254 forward single #
loop $-1 $255 $256 $101 #
cone-surface $-1 -27.792129523532292 -22.355522511149573 5.598860430106118 0 0.66913061440640931 -0.74314481823134659 0.75 0 0 1 I I -0.70710678118654757 0.70710678118654757 0.75 forward I I I I #
loop $-1 $-1 $257 $64 #
coedge $-1 $163 $163 $258 $259 reversed $102 $-1 #
face $-1 $260 $261 $39 $-1 $262 reversed single #
loop $-1 $-1 $263 $104 #
plane-surface $-1 0 -26.535684920951066 0 0 1 0 0 0 1 forward_v I I I I #
coedge $-1 $264 $265 $266 $267 forward $105 $-1 #
coedge $-1 $268 $107 $269 $270 forward $66 $-1 #
coedge $-1 $107 $268 $271 $272 forward $66 $-1 #
coedge $-1 $273 $274 $107 $171 reversed $275 $-1 #
edge $-1 $276 -26.535684920951066 $277 26.535684920951066 $170 $278 forward 7 unknown #
face $-1 $279 $280 $40 $-1 $281 reversed single #
loop $-1 $-1 $282 $108 #
plane-surface $-1 -35.407938476264441 0 4.8413528118005029 -1 0 0 0 0 1 forward_v I I I I #
coedge $-1 $283 $284 $285 $286 forward $109 $-1 #
coedge $-1 $287 $111 $288 $289 reversed $69 $-1 #
coedge $-1 $111 $287 $290 $291 reversed $69 $-1 #
coedge $-1 $282 $292 $111 $179 reversed $173 $-1 #
edge $-1 $293 -26.535684920951066 $294 26.535684920951066 $178 $295 forward 7 unknown #
face $-1 $296 $297 $41 $-1 $298 forward single #
loop $-1 $-1 $299 $112 #
plane-surface $-1 -14.758937253572 37.330285851879523 102.8674639127814 -1 0 0 0 0.61566148304635926 0.78801074757464917 forward_v I I I I #
coedge $-1 $300 $301 $302 $303 reversed $113 $-1 #
coedge $-1 $185 $115 $304 $305 reversed $72 $-1 #
coedge $-1 $115 $184 $300 $306 reversed $72 $-1 #
coedge $-1 $302 $307 $115 $187 forward $297 $-1 #
edge $-1 $308 -7.8705419950113047 $309 0.90559644369790249 $186 $310 forward 7 unknown #
loop $-1 $-1 $193 $116 #
plane-surface $-1 -20.594422474258153 -15.285124902976911 35.522810552747174 0 0.61566148304635926 0.78801074757464917 1 0 0 forward_v I I I I #
loop $-1 $-1 $311 $74 #
coedge $-1 $191 $191 $192 $312 reversed $117 $-1 #
coedge $-1 $192 $192 $191 $312 forward $119 $-1 #
coedge $-1 $193 $193 $120 $194 forward $188 $-1 #
edge $-1 $313 -2.6196138615404312e-016 $313 6.2831853071796004 $193 $314 forward 7 unknown #
loop $-1 $-1 $200 $121 #
plane-surface $-1 -20.594422474258153 -15.285124902976911 35.522810552747174 0 0.61566148304635926 0.78801074757464917 1 0 0 forward_v I I I I #
loop $-1 $-1 $315 $77 #
coedge $-1 $198 $198 $199 $316 reversed $122 $-1 #
coedge $-1 $199 $199 $198 $316 forward $124 $-1 #
coedge $-1 $200 $200 $125 $201 forward $195 $-1 #
edge $-1 $317 -2.6196138615404312e-016 $317 6.2831853071796004 $200 $318 forward 7 unknown #
loop $-1 $-1 $207 $126 #
plane-surface $-1 -20.594422474258153 -15.285124902976911 35.522810552747174 0 0.61566148304635926 0.78801074757464917 1 0 0 forward_v I I I I #
loop $-1 $-1 $319 $80 #
coedge $-1 $205 $205 $206 $320 reversed $127 $-1 #
coedge $-1 $206 $206 $205 $320 forward $129 $-1 #
coedge $-1 $207 $207 $130 $208 forward $202 $-1 #
edge $-1 $321 -2.6196138615404312e-016 $321 6.2831853071796004 $207 $322 forward 7 unknown #
face $-1 $323 $324 $45 $-1 $325 forward single #
loop $-1 $-1 $326 $131 #
plane-surface $-1 24.310430098516342 37.330285851879523 102.8674639127814 -1 0 0 0 0.61566148304635926 0.78801074757464917 forward_v I I I I #
coedge $-1 $327 $328 $329 $330 reversed $132 $-1 #
coedge $-1 $214 $134 $331 $332 reversed $84 $-1 #
coedge $-1 $134 $213 $327 $333 reversed $84 $-1 #
coedge $-1 $329 $334 $134 $216 forward $324 $-1 #
edge $-1 $335 -7.8705419950113047 $336 0.90559644369790249 $215 $337 forward 7 unknown #
loop $-1 $-1 $222 $135 #
plane-surface $-1 18.47494487783019 -15.285124902976911 35.522810552747174 0 0.61566148304635926 0.78801074757464917 1 0 0 forward_v I I I I #
loop $-1 $-1 $338 $86 #
coedge $-1 $220 $220 $221 $339 reversed $136 $-1 #
coedge $-1 $221 $221 $220 $339 forward $138 $-1 #
coedge $-1 $222 $222 $139 $223 forward $217 $-1 #
edge $-1 $340 -2.6196138615404312e-016 $340 6.2831853071796004 $222 $341 forward 7 unknown #
loop $-1 $-1 $229 $140 #
plane-surface $-1 18.47494487783019 -15.285124902976911 35.522810552747174 0 0.61566148304635926 0.78801074757464917 1 0 0 forward_v I I I I #
loop $-1 $-1 $342 $89 #
coedge $-1 $227 $227 $228 $343 reversed $141 $-1 #
coedge $-1 $228 $228 $227 $343 forward $143 $-1 #
coedge $-1 $229 $229 $144 $230 forward $224 $-1 #
edge $-1 $344 -2.6196138615404312e-016 $344 6.2831853071796004 $229 $345 forward 7 unknown #
loop $-1 $-1 $236 $145 #
plane-surface $-1 18.47494487783019 -15.285124902976911 35.522810552747174 0 0.61566148304635926 0.78801074757464917 1 0 0 forward_v I I I I #
loop $-1 $-1 $346 $92 #
coedge $-1 $234 $234 $235 $347 reversed $146 $-1 #
coedge $-1 $235 $235 $234 $347 forward $148 $-1 #
coedge $-1 $236 $236 $149 $237 forward $231 $-1 #
edge $-1 $348 -2.6196138615404312e-016 $348 6.2831853071796004 $236 $349 forward 7 unknown #
face $-1 $350 $351 $49 $-1 $352 forward single #
loop $-1 $-1 $244 $150 #
plane-surface $-1 0 0 9.7054832454490825 0 0 1 1 0 0 forward_v I I I I #
coedge $-1 $353 $354 $355 $356 reversed $151 $-1 #
coedge $-1 $243 $153 $357 $358 reversed $96 $-1 #
coedge $-1 $153 $242 $353 $359 reversed $96 $-1 #
coedge $-1 $355 $360 $153 $245 forward $239 $-1 #
edge $-1 $361 15.324641473582457 $362 20.42355951619821 $244 $363 forward 7 unknown #
loop $-1 $-1 $251 $154 #
plane-surface $-1 -30.076872209351937 -26.53568492095107 5.1143967183527224 0 -0.66913061440640931 0.74314481823134659 1 0 0 forward_v I I I I #
loop $-1 $-1 $364 $98 #
coedge $-1 $249 $249 $250 $365 reversed $155 $-1 #
coedge $-1 $250 $250 $249 $365 forward $157 $-1 #
coedge $-1 $251 $251 $158 $252 forward $246 $-1 #
edge $-1 $366 -2.2090406488138358e-016 $366 6.2831853071796004 $251 $367 forward 7 unknown #
loop $-1 $-1 $258 $159 #
plane-surface $-1 -30.076872209351937 -26.53568492095107 5.1143967183527224 0 -0.66913061440640931 0.74314481823134659 1 0 0 forward_v I I I I #
loop $-1 $-1 $368 $101 #
coedge $-1 $256 $256 $257 $369 reversed $160 $-1 #
coedge $-1 $257 $257 $256 $369 forward $162 $-1 #
coedge $-1 $258 $258 $163 $259 forward $253 $-1 #
edge $-1 $370 -2.2090406488138358e-016 $370 6.2831853071796004 $258 $371 forward 7 unknown #
face $-1 $372 $373 $39 $-1 $374 reversed single #
loop $-1 $-1 $375 $164 #
plane-surface $-1 -42.730796227912229 0 0 1 0 0 0 0 -1 forward_v I I I I #
coedge $-1 $376 $271 $377 $378 forward $165 $-1 #
coedge $-1 $379 $167 $376 $380 forward $105 $-1 #
coedge $-1 $167 $379 $381 $382 forward $105 $-1 #
coedge $-1 $274 $273 $167 $267 reversed $275 $-1 #
edge $-1 $383 -26.535684920951066 $384 26.535684920951066 $266 $385 forward 7 unknown #
coedge $-1 $169 $168 $386 $387 forward $66 $-1 #
coedge $-1 $388 $389 $168 $270 reversed $373 $-1 #
edge $-1 $277 -42.730796227912229 $390 42.730796227912229 $269 $391 forward 7 unknown #
coedge $-1 $263 $392 $169 $272 reversed $165 $-1 #
edge $-1 $393 -42.730796227912229 $276 42.730796227912229 $271 $394 forward 7 unknown #
coedge $-1 $266 $170 $392 $395 forward $275 $-1 #
coedge $-1 $170 $266 $388 $396 reversed $275 $-1 #
loop $-1 $-1 $273 $372 #
vertex $-1 $171 $397 #
vertex $-1 $171 $398 #
straight-curve $-1 42.730796227912229 0 9.7054832454490825 0 1 0 I I #
face $-1 $399 $400 $40 $-1 $401 reversed single #
loop $-1 $-1 $402 $172 #
plane-surface $-1 0 -26.535684920951066 0 0 1 0 0 0 1 forward_v I I I I #
coedge $-1 $285 $178 $403 $404 reversed $173 $-1 #
coedge $-1 $405 $175 $402 $406 reversed $109 $-1 #
coedge $-1 $175 $405 $407 $408 reversed $109 $-1 #
coedge $-1 $292 $282 $175 $286 reversed $173 $-1 #
edge $-1 $409 -26.535684920951066 $410 26.535684920951066 $285 $411 forward 7 unknown #
coedge $-1 $177 $176 $412 $413 reversed $69 $-1 #
coedge $-1 $414 $415 $176 $289 forward $416 $-1 #
edge $-1 $417 -23.196112551868062 $294 -15.873254800220273 $288 $418 forward 7 unknown #
coedge $-1 $419 $403 $177 $291 forward $280 $-1 #
edge $-1 $293 15.873254800220273 $420 23.196112551868062 $290 $421 forward 7 unknown #
coedge $-1 $178 $285 $414 $422 reversed $173 $-1 #
vertex $-1 $291 $423 #
vertex $-1 $289 $424 #
straight-curve $-1 -35.407938476264441 0 6.341352811800502 0 1 0 I I #
face $-1 $-1 $425 $41 $-1 $426 reversed single #
loop $-1 $-1 $186 $180 #
plane-surface $-1 0 0 9.7054832454490825 0 0 1 1 0 0 forward_v I I I I #
coedge $-1 $427 $428 $429 $430 reversed $181 $-1 #
coedge $-1 $431 $183 $185 $306 forward $113 $-1 #
coedge $-1 $183 $431 $427 $432 forward $113 $-1 #
coedge $-1 $429 $186 $183 $303 forward $297 $-1 #
edge $-1 $309 -16.132696457815229 $433 -4.461726016442924 $302 $434 forward 7 unknown #
coedge $-1 $435 $436 $184 $305 forward $425 $-1 #
edge $-1 $437 -48.584919667810809 $308 -41.728248710941621 $304 $438 forward 7 unknown #
edge $-1 $309 41.934290219929281 $437 53.071369841902111 $185 $439 forward 7 unknown #
coedge $-1 $186 $429 $435 $440 forward $297 $-1 #
vertex $-1 $305 $441 #
vertex $-1 $187 $442 #
straight-curve $-1 -26.429907694944305 18.665142925939762 9.7054832454490807 0 -1 0 I I #
coedge $-1 $311 $311 $-1 $443 reversed $190 $-1 #
edge $-1 $444 0 $444 6.2831853071796004 $191 $445 forward 7 unknown #
vertex $-1 $194 $446 #
ellipse-curve $-1 -24.095713606669843 22.147615701596461 6.2771477670144833 0 0.61566148304635926 0.78801074757464917 0.5 0 0 1 I I #
coedge $-1 $315 $315 $-1 $447 reversed $197 $-1 #
edge $-1 $448 0 $448 6.2831853071796004 $198 $449 forward 7 unknown #
vertex $-1 $201 $450 #
ellipse-curve $-1 -20.594422474258153 22.147615701596461 6.2771477670144833 0 0.61566148304635926 0.78801074757464917 0.5 0 0 1 I I #
coedge $-1 $319 $319 $-1 $451 reversed $204 $-1 #
edge $-1 $452 0 $452 6.2831853071796004 $205 $453 forward 7 unknown #
vertex $-1 $208 $454 #
ellipse-curve $-1 -17.093131341846462 22.147615701596461 6.2771477670144833 0 0.61566148304635926 0.78801074757464917 0.5 0 0 1 I I #
face $-1 $-1 $455 $45 $-1 $456 reversed single #
loop $-1 $-1 $215 $209 #
plane-surface $-1 0 0 9.7054832454490825 0 0 1 1 0 0 forward_v I I I I #
coedge $-1 $457 $458 $459 $460 reversed $210 $-1 #
coedge $-1 $461 $212 $214 $333 forward $132 $-1 #
coedge $-1 $212 $461 $457 $462 forward $132 $-1 #
coedge $-1 $459 $215 $212 $330 forward $324 $-1 #
edge $-1 $336 3.4019872182289426 $463 15.072957659601247 $329 $464 forward 7 unknown #
coedge $-1 $465 $466 $213 $332 forward $455 $-1 #
edge $-1 $467 -48.584919667810809 $335 -41.728248710941621 $331 $468 forward 7 unknown #
edge $-1 $336 41.934290219929281 $467 53.071369841902111 $214 $469 forward 7 unknown #
coedge $-1 $215 $459 $465 $470 forward $324 $-1 #
vertex $-1 $216 $471 #
vertex $-1 $216 $472 #
straight-curve $-1 12.639459657144037 18.665142925939762 9.7054832454490807 0 -1 0 I I #
coedge $-1 $338 $338 $-1 $473 reversed $219 $-1 #
edge $-1 $474 0 $474 6.2831853071796004 $220 $475 forward 7 unknown #
vertex $-1 $223 $476 #
ellipse-curve $-1 14.973653745418495 22.147615701596461 6.2771477670144833 0 0.61566148304635926 0.78801074757464917 0.5 0 0 1 I I #
coedge $-1 $342 $342 $-1 $477 reversed $226 $-1 #
edge $-1 $478 0 $478 6.2831853071796004 $227 $479 forward 7 unknown #
vertex $-1 $230 $480 #
ellipse-curve $-1 18.47494487783019 22.147615701596461 6.2771477670144833 0 0.61566148304635926 0.78801074757464917 0.5 0 0 1 I I #
coedge $-1 $346 $346 $-1 $481 reversed $233 $-1 #
edge $-1 $482 0 $482 6.2831853071796004 $234 $483 forward 7 unknown #
vertex $-1 $237 $484 #
ellipse-curve $-1 21.976236010241884 22.147615701596461 6.2771477670144833 0 0.61566148304635926 0.78801074757464917 0.5 0 0 1 I I #
face $-1 $-1 $485 $49 $-1 $486 reversed single #
loop $-1 $-1 $487 $238 #
plane-surface $-1 -35.407938476264441 0 4.8413528118005029 -1 0 0 0 0 1 forward_v I I I I #
coedge $-1 $488 $241 $243 $359 forward $151 $-1 #
coedge $-1 $241 $488 $487 $489 reversed $151 $-1 #
coedge $-1 $490 $244 $241 $356 forward $239 $-1 #
edge $-1 $362 9.7073698377634603 $491 20.369502371588482 $355 $492 forward 7 unknown #
coedge $-1 $493 $494 $242 $358 forward $485 $-1 #
edge $-1 $495 -29.197971436496179 $361 -24.606884909399824 $357 $496 forward 7 unknown #
edge $-1 $362 -6.8612710706251958 $495 -5.0174102477660512e-015 $243 $497 forward 7 unknown #
coedge $-1 $244 $490 $493 $498 forward $239 $-1 #
vertex $-1 $358 $499 #
vertex $-1 $245 $500 #
straight-curve $-1 -24.745805942439429 -41.860326394533523 9.7054832454490807 0 1 0 I I #
coedge $-1 $364 $364 $-1 $501 reversed $248 $-1 #
edge $-1 $502 0 $502 6.2831853071796004 $249 $503 forward 7 unknown #
vertex $-1 $252 $504 #
ellipse-curve $-1 -32.361614895171584 -23.986225899643188 7.4099399819009042 0 -0.66913061440640931 0.74314481823134659 1.5 0 0 1 I I #
coedge $-1 $368 $368 $-1 $505 reversed $255 $-1 #
edge $-1 $506 0 $506 6.2831853071796004 $256 $507 forward 7 unknown #
vertex $-1 $259 $508 #
ellipse-curve $-1 -27.792129523532292 -23.986225899643188 7.4099399819009042 0 -0.66913061440640931 0.74314481823134659 1.5 0 0 1 I I #
face $-1 $-1 $275 $39 $-1 $509 reversed single #
loop $-1 $-1 $388 $260 #
plane-surface $-1 0 26.535684920951066 0 0 -1 0 0 0 -1 forward_v I I I I #
coedge $-1 $510 $386 $389 $511 forward $261 $-1 #
coedge $-1 $392 $263 $264 $380 reversed $165 $-1 #
coedge $-1 $386 $510 $263 $378 reversed $261 $-1 #
edge $-1 $393 -9.7054832454490825 $512 9.7054832454490825 $377 $513 forward 7 unknown #
coedge $-1 $265 $264 $510 $514 forward $105 $-1 #
edge $-1 $384 -42.730796227912229 $512 42.730796227912229 $376 $515 forward 7 unknown #
coedge $-1 $389 $388 $265 $382 reversed $373 $-1 #
edge $-1 $516 -42.730796227912229 $383 42.730796227912229 $381 $517 forward 7 unknown #
vertex $-1 $267 $518 #
vertex $-1 $395 $519 #
straight-curve $-1 42.730796227912229 0 -9.7054832454490825 0 -1 0 I I #
coedge $-1 $375 $377 $268 $387 reversed $261 $-1 #
edge $-1 $390 -26.535684920951066 $393 26.535684920951066 $386 $520 forward 7 unknown #
coedge $-1 $381 $269 $274 $396 forward $373 $-1 #
coedge $-1 $269 $381 $375 $511 reversed $373 $-1 #
vertex $-1 $270 $521 #
straight-curve $-1 0 26.535684920951066 9.7054832454490825 -1 0 0 I I #
coedge $-1 $271 $376 $273 $395 reversed $165 $-1 #
vertex $-1 $387 $522 #
straight-curve $-1 0 -26.535684920951066 9.7054832454490825 1 0 0 I I #
edge $-1 $276 -9.7054832454490825 $384 9.7054832454490825 $273 $523 forward 7 unknown #
edge $-1 $277 -9.7054832454490825 $383 9.7054832454490825 $274 $524 forward 7 unknown #
point $-1 42.730796227912229 -26.535684920951066 9.7054832454490825 #
point $-1 42.730796227912229 26.535684920951066 9.7054832454490825 #
face $-1 $-1 $416 $40 $-1 $525 reversed single #
loop $-1 $-1 $526 $279 #
plane-surface $-1 -42.730796227912229 0 0 1 0 0 0 0 -1 forward_v I I I I #
coedge $-1 $403 $419 $283 $406 forward $280 $-1 #
coedge $-1 $290 $402 $282 $404 forward $280 $-1 #
edge $-1 $410 0.92067640590025235 $293 3.9206764059002506 $403 $527 forward 7 unknown #
coedge $-1 $284 $283 $526 $528 reversed $109 $-1 #
edge $-1 $529 -23.196112551868062 $410 -15.873254800220273 $402 $530 forward 7 unknown #
coedge $-1 $415 $414 $284 $408 forward $416 $-1 #
edge $-1 $409 15.873254800220273 $531 23.196112551868062 $407 $532 forward 7 unknown #
vertex $-1 $408 $533 #
vertex $-1 $406 $534 #
straight-curve $-1 -35.407938476264441 0 3.3413528118005038 0 -1 0 I I #
coedge $-1 $535 $536 $287 $413 forward $400 $-1 #
edge $-1 $420 -26.535684920951066 $417 26.535684920951066 $412 $537 forward 7 unknown #
coedge $-1 $407 $288 $292 $422 forward $416 $-1 #
coedge $-1 $288 $407 $535 $538 reversed $416 $-1 #
loop $-1 $-1 $407 $399 #
vertex $-1 $538 $539 #
straight-curve $-1 -19.534683676044168 26.535684920951066 6.341352811800502 1 0 0 I I #
coedge $-1 $402 $290 $536 $540 forward $280 $-1 #
vertex $-1 $540 $541 #
straight-curve $-1 -19.534683676044168 -26.535684920951066 6.341352811800502 -1 0 0 I I #
edge $-1 $294 -3.9206764059002506 $409 -0.92067640590025235 $414 $542 forward 7 unknown #
point $-1 -35.407938476264441 -26.535684920951066 6.341352811800502 #
point $-1 -35.407938476264441 26.535684920951066 6.341352811800502 #
loop $-1 $-1 $304 $296 #
plane-surface $-1 0 26.535684920951066 0 0 -1 0 0 0 -1 forward_v I I I I #
coedge $-1 $428 $299 $301 $432 reversed $181 $-1 #
coedge $-1 $299 $427 $543 $544 reversed $181 $-1 #
coedge $-1 $307 $302 $299 $430 forward $297 $-1 #
edge $-1 $433 -0.90559644369790249 $545 7.8705419950113047 $429 $546 forward 7 unknown #
coedge $-1 $301 $300 $436 $547 reversed $113 $-1 #
edge $-1 $548 -53.071369841902111 $433 -41.934290219929281 $427 $549 forward 7 unknown #
vertex $-1 $303 $550 #
straight-curve $-1 -10.297211237129076 17.759546482241859 9.7054832454490807 1 0 0 I I #
coedge $-1 $543 $304 $307 $440 reversed $425 $-1 #
coedge $-1 $304 $543 $431 $547 forward $425 $-1 #
vertex $-1 $305 $551 #
straight-curve $-1 -26.429907694944305 26.535684920951066 51.433731956390702 0 0 1 I I #
straight-curve $-1 -26.429907694944305 -15.285124902976911 35.522810552747174 0 0.78801074757464917 -0.61566148304635926 I I #
edge $-1 $545 14.758937253572 $308 26.429907694944305 $435 $552 forward 7 unknown #
point $-1 -26.429907694944305 26.535684920951066 9.7054832454490825 #
point $-1 -26.429907694944305 17.759546482241859 9.7054832454490771 #
edge $-1 $553 1 $553 0 $311 $-1 forward 7 unknown #
vertex $-1 $312 $554 #
ellipse-curve $-1 -24.095713606669843 21.014794439195573 4.827202700716156 0 0.61566148304635926 0.78801074757464917 0.5 0 0 1 I I #
point $-1 -23.595713606669843 22.147615701596454 6.2771477670144744 #
edge $-1 $555 1 $555 0 $315 $-1 forward 7 unknown #
vertex $-1 $316 $556 #
ellipse-curve $-1 -20.594422474258153 21.014794439195573 4.827202700716156 0 0.61566148304635926 0.78801074757464917 0.5 0 0 1 I I #
point $-1 -20.094422474258153 22.147615701596454 6.2771477670144744 #
edge $-1 $557 1 $557 0 $319 $-1 forward 7 unknown #
vertex $-1 $320 $558 #
ellipse-curve $-1 -17.093131341846462 21.014794439195573 4.827202700716156 0 0.61566148304635926 0.78801074757464917 0.5 0 0 1 I I #
point $-1 -16.593131341846462 22.147615701596454 6.2771477670144744 #
loop $-1 $-1 $331 $323 #
plane-surface $-1 0 26.535684920951066 0 0 -1 0 0 0 -1 forward_v I I I I #
coedge $-1 $458 $326 $328 $462 reversed $210 $-1 #
coedge $-1 $326 $457 $559 $560 reversed $210 $-1 #
coedge $-1 $334 $329 $326 $460 forward $324 $-1 #
edge $-1 $463 -0.90559644369790249 $561 7.8705419950113047 $459 $562 forward 7 unknown #
coedge $-1 $328 $327 $466 $563 reversed $132 $-1 #
edge $-1 $564 -53.071369841902111 $463 -41.934290219929281 $457 $565 forward 7 unknown #
vertex $-1 $330 $566 #
straight-curve $-1 9.2374724389150948 17.759546482241859 9.7054832454490807 1 0 0 I I #
coedge $-1 $559 $331 $334 $470 reversed $455 $-1 #
coedge $-1 $331 $559 $461 $563 forward $455 $-1 #
vertex $-1 $332 $567 #
straight-curve $-1 12.639459657144037 26.535684920951066 51.433731956390702 0 0 1 I I #
straight-curve $-1 12.639459657144037 -15.285124902976911 35.522810552747174 0 0.78801074757464917 -0.61566148304635926 I I #
edge $-1 $561 -24.310430098516342 $335 -12.639459657144037 $465 $568 forward 7 unknown #
point $-1 12.639459657144037 26.535684920951066 9.7054832454490825 #
point $-1 12.639459657144037 17.759546482241859 9.7054832454490771 #
edge $-1 $569 1 $569 0 $338 $-1 forward 7 unknown #
vertex $-1 $339 $570 #
ellipse-curve $-1 14.973653745418495 21.014794439195573 4.827202700716156 0 0.61566148304635926 0.78801074757464917 0.5 0 0 1 I I #
point $-1 15.473653745418495 22.147615701596454 6.2771477670144744 #
edge $-1 $571 1 $571 0 $342 $-1 forward 7 unknown #
vertex $-1 $343 $572 #
ellipse-curve $-1 18.47494487783019 21.014794439195573 4.827202700716156 0 0.61566148304635926 0.78801074757464917 0.5 0 0 1 I I #
point $-1 18.97494487783019 22.147615701596454 6.2771477670144744 #
edge $-1 $573 1 $573 0 $346 $-1 forward 7 unknown #
vertex $-1 $347 $574 #
ellipse-curve $-1 21.976236010241884 21.014794439195573 4.827202700716156 0 0.61566148304635926 0.78801074757464917 0.5 0 0 1 I I #
point $-1 22.476236010241884 22.147615701596454 6.2771477670144744 #
loop $-1 $-1 $357 $350 #
plane-surface $-1 0 -26.535684920951066 0 0 1 0 0 0 1 forward_v I I I I #
coedge $-1 $575 $576 $354 $489 forward $351 $-1 #
coedge $-1 $354 $353 $494 $577 reversed $151 $-1 #
edge $-1 $491 2.9073062845114315 $578 9.7685773551366228 $487 $579 forward 7 unknown #
coedge $-1 $360 $355 $576 $580 forward $239 $-1 #
vertex $-1 $356 $581 #
straight-curve $-1 -15.038436104675968 -21.436766878335309 9.7054832454490825 -1 0 0 I I #
coedge $-1 $582 $357 $360 $498 reversed $485 $-1 #
coedge $-1 $357 $582 $488 $577 forward $485 $-1 #
vertex $-1 $358 $583 #
straight-curve $-1 -24.745805942439429 -26.535684920951066 34.312368154848905 0 0 1 I I #
straight-curve $-1 -24.745805942439429 -26.53568492095107 5.1143967183527224 0 -0.74314481823134659 -0.66913061440640931 I I #
edge $-1 $584 -35.407938476264448 $361 -24.745805942439429 $493 $585 forward 7 unknown #
point $-1 -24.745805942439429 -26.535684920951066 9.7054832454490825 #
point $-1 -24.745805942439429 -21.436766878335312 9.7054832454490825 #
edge $-1 $586 1 $586 0 $364 $-1 forward 7 unknown #
vertex $-1 $365 $587 #
ellipse-curve $-1 -32.361614895171584 -22.857370471954379 6.156219043779628 0 -0.66913061440640931 0.74314481823134659 1.5 0 0 1 I I #
point $-1 -30.861614895171584 -23.986225899643184 7.4099399819008998 #
edge $-1 $588 1 $588 0 $368 $-1 forward 7 unknown #
vertex $-1 $369 $589 #
ellipse-curve $-1 -27.792129523532292 -22.857370471954379 6.156219043779628 0 -0.66913061440640931 0.74314481823134659 1.5 0 0 1 I I #
point $-1 -26.292129523532292 -23.986225899643184 7.4099399819008998 #
plane-surface $-1 42.730796227912229 0 0 -1 0 0 0 0 1 forward_v I I I I #
coedge $-1 $377 $375 $379 $514 reversed $261 $-1 #
edge $-1 $390 -9.7054832454490825 $516 9.7054832454490825 $389 $590 forward 7 unknown #
vertex $-1 $514 $591 #
straight-curve $-1 -42.730796227912229 -26.535684920951066 0 0 0 -1 I I #
edge $-1 $512 -26.535684920951066 $516 26.535684920951066 $510 $592 forward 7 unknown #
straight-curve $-1 0 -26.535684920951066 -9.7054832454490825 -1 0 0 I I #
vertex $-1 $382 $593 #
straight-curve $-1 0 26.535684920951066 -9.7054832454490825 1 0 0 I I #
point $-1 42.730796227912229 26.535684920951066 -9.7054832454490825 #
point $-1 42.730796227912229 -26.535684920951066 -9.7054832454490825 #
straight-curve $-1 -42.730796227912229 0 9.7054832454490825 0 -1 0 I I #
point $-1 -42.730796227912229 26.535684920951066 9.7054832454490825 #
point $-1 -42.730796227912229 -26.535684920951066 9.7054832454490825 #
straight-curve $-1 42.730796227912229 -26.535684920951066 0 0 0 -1 I I #
straight-curve $-1 42.730796227912229 26.535684920951066 0 0 0 -1 I I #
plane-surface $-1 0 26.535684920951066 0 0 -1 0 0 0 -1 forward_v I I I I #
coedge $-1 $536 $535 $405 $528 forward $400 $-1 #
straight-curve $-1 -35.407938476264441 -26.535684920951066 2.4206764059002515 0 0 1 I I #
edge $-1 $531 -26.535684920951066 $529 26.535684920951066 $526 $594 forward 7 unknown #
vertex $-1 $406 $595 #
straight-curve $-1 -19.534683676044168 -26.535684920951066 3.3413528118005038 1 0 0 I I #
vertex $-1 $408 $596 #
straight-curve $-1 -19.534683676044168 26.535684920951066 3.3413528118005038 -1 0 0 I I #
point $-1 -35.407938476264441 26.535684920951066 3.3413528118005038 #
point $-1 -35.407938476264441 -26.535684920951066 3.3413528118005038 #
coedge $-1 $526 $412 $415 $538 forward $400 $-1 #
coedge $-1 $412 $526 $419 $540 reversed $400 $-1 #
straight-curve $-1 -42.730796227912229 0 6.341352811800502 0 1 0 I I #
edge $-1 $417 -6.341352811800502 $531 -3.3413528118005038 $415 $597 forward 7 unknown #
point $-1 -42.730796227912229 26.535684920951066 6.341352811800502 #
edge $-1 $420 -6.341352811800502 $529 -3.3413528118005038 $536 $598 forward 7 unknown #
point $-1 -42.730796227912229 -26.535684920951066 6.341352811800502 #
straight-curve $-1 -35.407938476264441 26.535684920951066 2.4206764059002515 0 0 -1 I I #
coedge $-1 $436 $435 $428 $544 forward $425 $-1 #
edge $-1 $545 41.728248710941621 $548 48.584919667810809 $543 $599 forward 7 unknown #
vertex $-1 $440 $600 #
straight-curve $-1 -14.758937253572 18.665142925939762 9.7054832454490807 0 1 0 I I #
edge $-1 $548 4.461726016442924 $437 16.132696457815229 $436 $601 forward 7 unknown #
vertex $-1 $547 $602 #
straight-curve $-1 -14.758937253572 -15.285124902976911 35.522810552747174 0 -0.78801074757464917 0.61566148304635926 I I #
point $-1 -14.758937253572 17.759546482241859 9.7054832454490771 #
point $-1 -26.429907694944305 26.535684920951063 2.848812288579893 #
straight-curve $-1 0 26.535684920951066 9.7054832454490825 -1 0 0 I I #
vertex $-1 $443 $603 #
point $-1 -23.595713606669843 21.014794439195573 4.827202700716156 #
vertex $-1 $447 $604 #
point $-1 -20.094422474258153 21.014794439195573 4.827202700716156 #
vertex $-1 $451 $605 #
point $-1 -16.593131341846462 21.014794439195573 4.827202700716156 #
coedge $-1 $466 $465 $458 $560 forward $455 $-1 #
edge $-1 $561 41.728248710941621 $564 48.584919667810809 $559 $606 forward 7 unknown #
vertex $-1 $470 $607 #
straight-curve $-1 24.310430098516342 18.665142925939762 9.7054832454490807 0 1 0 I I #
edge $-1 $564 -15.072957659601247 $467 -3.4019872182289426 $466 $608 forward 7 unknown #
vertex $-1 $563 $609 #
straight-curve $-1 24.310430098516342 -15.285124902976911 35.522810552747174 0 -0.78801074757464917 0.61566148304635926 I I #
point $-1 24.310430098516342 17.759546482241859 9.7054832454490771 #
point $-1 12.639459657144037 26.535684920951063 2.848812288579893 #
straight-curve $-1 0 26.535684920951066 9.7054832454490825 -1 0 0 I I #
vertex $-1 $473 $610 #
point $-1 15.473653745418495 21.014794439195573 4.827202700716156 #
vertex $-1 $477 $611 #
point $-1 18.97494487783019 21.014794439195573 4.827202700716156 #
vertex $-1 $481 $612 #
point $-1 22.476236010241884 21.014794439195573 4.827202700716156 #
coedge $-1 $576 $487 $582 $613 reversed $351 $-1 #
coedge $-1 $487 $575 $490 $580 reversed $351 $-1 #
edge $-1 $578 -20.369502371588474 $495 -9.7073698377634603 $494 $614 forward 7 unknown #
vertex $-1 $489 $615 #
straight-curve $-1 -35.407938476264441 -19.276217277989211 11.650850885871829 0 -0.74314481823134659 -0.66913061440640931 I I #
edge $-1 $491 -20.42355951619821 $584 -15.324641473582457 $490 $616 forward 7 unknown #
point $-1 -35.407938476264448 -21.436766878335312 9.7054832454490825 #
coedge $-1 $494 $493 $575 $613 forward $485 $-1 #
point $-1 -24.745805942439429 -26.535684920951066 5.1143967183527259 #
vertex $-1 $498 $617 #
straight-curve $-1 0 -26.535684920951066 9.7054832454490825 1 0 0 I I #
vertex $-1 $501 $618 #
point $-1 -30.861614895171584 -22.857370471954379 6.156219043779628 #
vertex $-1 $505 $619 #
point $-1 -26.292129523532292 -22.857370471954379 6.156219043779628 #
straight-curve $-1 -42.730796227912229 26.535684920951066 0 0 0 -1 I I #
point $-1 -42.730796227912229 -26.535684920951066 -9.7054832454490825 #
straight-curve $-1 -42.730796227912229 0 -9.7054832454490825 0 1 0 I I #
point $-1 -42.730796227912229 26.535684920951066 -9.7054832454490825 #
straight-curve $-1 -42.730796227912229 0 3.3413528118005038 0 -1 0 I I #
point $-1 -42.730796227912229 -26.535684920951066 3.3413528118005038 #
point $-1 -42.730796227912229 26.535684920951066 3.3413528118005038 #
straight-curve $-1 -42.730796227912229 26.535684920951066 0 0 0 -1 I I #
straight-curve $-1 -42.730796227912229 -26.535684920951066 0 0 0 -1 I I #
straight-curve $-1 -14.758937253572 26.535684920951066 51.433731956390702 0 0 -1 I I #
point $-1 -14.758937253572 26.535684920951066 9.7054832454490825 #
straight-curve $-1 -10.297211237129076 26.53568492095107 2.8488122885798894 -1 0 0 I I #
point $-1 -14.758937253572 26.535684920951063 2.848812288579893 #
point $-1 -24.095713606669843 20.706963697672396 4.4331973269288314 #
point $-1 -20.594422474258153 20.706963697672396 4.4331973269288314 #
point $-1 -17.093131341846462 20.706963697672396 4.4331973269288314 #
straight-curve $-1 24.310430098516342 26.535684920951066 51.433731956390702 0 0 -1 I I #
point $-1 24.310430098516342 26.535684920951066 9.7054832454490825 #
straight-curve $-1 9.2374724389150948 26.53568492095107 2.8488122885798894 -1 0 0 I I #
point $-1 24.310430098516342 26.535684920951063 2.848812288579893 #
point $-1 14.973653745418495 20.706963697672396 4.4331973269288314 #
point $-1 18.47494487783019 20.706963697672396 4.4331973269288314 #
point $-1 21.976236010241884 20.706963697672396 4.4331973269288314 #
edge $-1 $584 24.606884909399824 $578 29.197971436496179 $582 $620 forward 7 unknown #
straight-curve $-1 -15.038436104675968 -26.535684920951066 5.1143967183527259 1 0 0 I I #
point $-1 -35.407938476264441 -26.535684920951066 5.1143967183527259 #
straight-curve $-1 -35.407938476264448 -41.860326394533523 9.7054832454490807 0 -1 0 I I #
point $-1 -35.407938476264448 -26.535684920951066 9.7054832454490825 #
point $-1 -32.361614895171584 -21.853674550344767 5.041501816432608 #
point $-1 -27.792129523532292 -21.853674550344767 5.041501816432608 #
straight-curve $-1 -35.407938476264448 -26.535684920951066 34.312368154848905 0 0 -1 I I #
End-of-ACIS-data 