500 0 14 0           
7 Unknown 11 ACIS 5.0 NT 24 Fri Mar 26 14:52:18 1999 
-1 9.9999999999999995e-007 1e-010 
body $-1 $14 $-1 $15 #
body $-1 $16 $-1 $17 #
body $-1 $18 $-1 $19 #
body $-1 $20 $-1 $21 #
body $-1 $22 $-1 $23 #
body $-1 $24 $-1 $25 #
body $-1 $26 $-1 $27 #
body $-1 $28 $-1 $29 #
body $-1 $30 $-1 $31 #
body $-1 $32 $-1 $33 #
body $-1 $34 $-1 $35 #
body $-1 $36 $-1 $37 #
body $-1 $38 $-1 $39 #
body $-1 $40 $-1 $41 #
lump $-1 $-1 $42 $0 #
transform $-1 1 0 0 0 1 0 0 0 1 62.349314859462268 33.123894105106757 14.752956040221198 1 rotate no_reflect no_shear #
lump $-1 $-1 $43 $1 #
transform $-1 1 0 0 0 1 0 0 0 1 62.349314859462268 33.123894105106757 14.752956040221198 1 rotate no_reflect no_shear #
lump $-1 $-1 $44 $2 #
transform $-1 1 0 0 0 1 0 0 0 1 62.349314859462268 33.123894105106757 14.752956040221198 1 rotate no_reflect no_shear #
lump $-1 $-1 $45 $3 #
transform $-1 1 0 0 0 1 0 0 0 1 62.349314859462268 33.123894105106757 14.752956040221198 1 rotate no_reflect no_shear #
lump $-1 $-1 $46 $4 #
transform $-1 1 0 0 0 1 0 0 0 1 62.349314859462268 33.123894105106757 14.752956040221198 1 rotate no_reflect no_shear #
lump $-1 $-1 $47 $5 #
transform $-1 1 0 0 0 1 0 0 0 1 62.349314859462268 33.123894105106757 14.752956040221198 1 rotate no_reflect no_shear #
lump $-1 $-1 $48 $6 #
transform $-1 1 0 0 0 1 0 0 0 1 62.349314859462268 33.123894105106757 14.752956040221198 1 rotate no_reflect no_shear #
lump $-1 $-1 $49 $7 #
transform $-1 1 0 0 0 1 0 0 0 1 62.349314859462268 33.123894105106757 14.752956040221198 1 rotate no_reflect no_shear #
lump $-1 $-1 $50 $8 #
transform $-1 1 0 0 0 1 0 0 0 1 62.349314859462268 33.123894105106757 14.752956040221198 1 rotate no_reflect no_shear #
lump $-1 $-1 $51 $9 #
transform $-1 1 0 0 0 1 0 0 0 1 62.349314859462268 33.123894105106757 14.752956040221198 1 rotate no_reflect no_shear #
lump $-1 $-1 $52 $10 #
transform $-1 1 0 0 0 1 0 0 0 1 62.349314859462268 33.123894105106757 14.752956040221198 1 rotate no_reflect no_shear #
lump $-1 $-1 $53 $11 #
transform $-1 1 0 0 0 1 0 0 0 1 62.349314859462268 33.123894105106757 14.752956040221198 1 rotate no_reflect no_shear #
lump $-1 $-1 $54 $12 #
transform $-1 1 0 0 0 1 0 0 0 1 62.349314859462268 33.123894105106757 14.752956040221198 1 rotate no_reflect no_shear #
lump $-1 $-1 $55 $13 #
transform $-1 1 0 0 0 1 0 0 0 1 62.349314859462268 33.123894105106757 14.752956040221198 1 rotate no_reflect no_shear #
shell $-1 $-1 $-1 $56 $-1 $14 #
shell $-1 $-1 $-1 $57 $-1 $16 #
shell $-1 $-1 $-1 $58 $-1 $18 #
shell $-1 $-1 $-1 $59 $-1 $20 #
shell $-1 $-1 $-1 $60 $-1 $22 #
shell $-1 $-1 $-1 $61 $-1 $24 #
shell $-1 $-1 $-1 $62 $-1 $26 #
shell $-1 $-1 $-1 $63 $-1 $28 #
shell $-1 $-1 $-1 $64 $-1 $30 #
shell $-1 $-1 $-1 $65 $-1 $32 #
shell $-1 $-1 $-1 $66 $-1 $34 #
shell $-1 $-1 $-1 $67 $-1 $36 #
shell $-1 $-1 $-1 $68 $-1 $38 #
shell $-1 $-1 $-1 $69 $-1 $40 #
face $-1 $70 $71 $42 $-1 $72 forward single #
face $-1 $73 $74 $43 $-1 $75 forward single #
face $-1 $76 $77 $44 $-1 $78 reversed single #
face $-1 $79 $80 $45 $-1 $81 forward single #
face $-1 $82 $83 $46 $-1 $84 forward single #
face $-1 $85 $86 $47 $-1 $87 reversed single #
face $-1 $88 $89 $48 $-1 $90 forward single #
face $-1 $91 $92 $49 $-1 $93 forward single #
face $-1 $94 $95 $50 $-1 $96 reversed single #
face $-1 $97 $98 $51 $-1 $99 forward single #
face $-1 $100 $101 $52 $-1 $102 forward single #
face $-1 $103 $104 $53 $-1 $105 reversed single #
face $-1 $106 $107 $54 $-1 $108 forward single #
face $-1 $109 $110 $55 $-1 $111 forward single #
face $-1 $112 $113 $42 $-1 $114 reversed single #
loop $-1 $-1 $115 $56 #
plane-surface $-1 0 0 14.752956040221198 0 0 1 1 0 0 forward_v I I I I #
face $-1 $116 $117 $43 $-1 $118 reversed single #
loop $-1 $-1 $119 $57 #
plane-surface $-1 0 -33.123894105106757 0 0 1 0 0 0 1 forward_v I I I I #
face $-1 $120 $121 $44 $-1 $122 reversed single #
loop $-1 $-1 $123 $58 #
plane-surface $-1 -44.888671514659855 40.56299962888562 146.44965501351629 1 0 0 0 -0.51503808176128008 -0.85716729658548041 forward_v I I I I #
face $-1 $124 $125 $45 $-1 $126 forward single #
loop $-1 $127 $128 $59 #
cone-surface $-1 -40.970381776108795 23.997175939391116 7.8029914832223124 0 -0.51503808176128008 -0.85716729658548041 1.5 0 0 1 I I 0 1 1.5 forward I I I I #
face $-1 $129 $130 $46 $-1 $131 forward single #
loop $-1 $132 $133 $60 #
cone-surface $-1 -35.092947168282194 23.997175939391116 7.8029914832223124 0 -0.51503808176128008 -0.85716729658548041 1.5 0 0 1 I I 0 1 1.5 forward I I I I #
face $-1 $134 $135 $47 $-1 $136 reversed single #
loop $-1 $-1 $137 $61 #
plane-surface $-1 -19.534228533196192 40.56299962888562 146.44965501351629 1 0 0 0 -0.51503808176128008 -0.85716729658548041 forward_v I I I I #
face $-1 $138 $139 $48 $-1 $140 forward single #
loop $-1 $141 $142 $62 #
cone-surface $-1 -15.615938794645132 23.997175939391116 7.8029914832223124 0 -0.51503808176128008 -0.85716729658548041 1.5 0 0 1 I I 0 1 1.5 forward I I I I #
face $-1 $143 $144 $49 $-1 $145 forward single #
loop $-1 $146 $147 $63 #
cone-surface $-1 -9.7385041868185311 23.997175939391116 7.8029914832223124 0 -0.51503808176128008 -0.85716729658548041 1.5 0 0 1 I I 0 1 1.5 forward I I I I #
face $-1 $148 $149 $50 $-1 $150 reversed single #
loop $-1 $-1 $151 $64 #
plane-surface $-1 5.8202144482674782 40.56299962888562 146.44965501351629 1 0 0 0 -0.51503808176128008 -0.85716729658548041 forward_v I I I I #
face $-1 $152 $153 $51 $-1 $154 forward single #
loop $-1 $155 $156 $65 #
cone-surface $-1 9.7385041868185311 23.997175939391116 7.8029914832223124 0 -0.51503808176128008 -0.85716729658548041 1.5 0 0 1 I I 0 1 1.5 forward I I I I #
face $-1 $157 $158 $52 $-1 $159 forward single #
loop $-1 $160 $161 $66 #
cone-surface $-1 15.615938794645132 23.997175939391116 7.8029914832223124 0 -0.51503808176128008 -0.85716729658548041 1.5 0 0 1 I I 0 1 1.5 forward I I I I #
face $-1 $162 $163 $53 $-1 $164 reversed single #
loop $-1 $-1 $165 $67 #
plane-surface $-1 31.174657429731141 40.56299962888562 146.44965501351629 1 0 0 0 -0.51503808176128008 -0.85716729658548041 forward_v I I I I #
face $-1 $166 $167 $54 $-1 $168 forward single #
loop $-1 $169 $170 $68 #
cone-surface $-1 35.092947168282194 23.997175939391116 7.8029914832223124 0 -0.51503808176128008 -0.85716729658548041 1.5 0 0 1 I I 0 1 1.5 forward I I I I #
face $-1 $171 $172 $55 $-1 $173 forward single #
loop $-1 $174 $175 $69 #
cone-surface $-1 40.970381776108795 23.997175939391116 7.8029914832223124 0 -0.51503808176128008 -0.85716729658548041 1.5 0 0 1 I I 0 1 1.5 forward I I I I #
face $-1 $176 $177 $42 $-1 $178 reversed single #
loop $-1 $-1 $179 $70 #
plane-surface $-1 0 0 -14.752956040221198 0 0 1 1 0 0 forward_v I I I I #
coedge $-1 $180 $181 $182 $183 forward $71 $-1 #
face $-1 $184 $185 $43 $-1 $186 reversed single #
loop $-1 $-1 $187 $73 #
plane-surface $-1 0 0 -14.752956040221198 0 0 1 1 0 0 forward_v I I I I #
coedge $-1 $188 $189 $190 $191 forward $74 $-1 #
face $-1 $192 $193 $44 $-1 $194 reversed single #
loop $-1 $-1 $195 $76 #
plane-surface $-1 -38.031664472195494 -23.661543419809419 39.562067689431899 0 0.51503808176128008 0.85716729658548041 1 0 0 forward_v I I I I #
coedge $-1 $196 $197 $198 $199 reversed $77 $-1 #
face $-1 $-1 $200 $45 $-1 $201 forward single #
loop $-1 $202 $203 $79 #
cone-surface $-1 -40.970381776108795 22.232250602021011 4.8656625095369268 0 -0.51503808176128008 -0.85716729658548041 0.75 0 0 1 I I -0.70710678118654757 0.70710678118654757 0.75 forward I I I I #
loop $-1 $-1 $204 $59 #
coedge $-1 $128 $128 $205 $206 reversed $80 $-1 #
face $-1 $-1 $207 $46 $-1 $208 forward single #
loop $-1 $209 $210 $82 #
cone-surface $-1 -35.092947168282194 22.232250602021011 4.8656625095369268 0 -0.51503808176128008 -0.85716729658548041 0.75 0 0 1 I I -0.70710678118654757 0.70710678118654757 0.75 forward I I I I #
loop $-1 $-1 $211 $60 #
coedge $-1 $133 $133 $212 $213 reversed $83 $-1 #
face $-1 $214 $215 $47 $-1 $216 reversed single #
loop $-1 $-1 $217 $85 #
plane-surface $-1 -12.677221490731831 -23.661543419809419 39.562067689431899 0 0.51503808176128008 0.85716729658548041 1 0 0 forward_v I I I I #
coedge $-1 $218 $219 $220 $221 reversed $86 $-1 #
face $-1 $-1 $222 $48 $-1 $223 forward single #
loop $-1 $224 $225 $88 #
cone-surface $-1 -15.615938794645132 22.232250602021011 4.8656625095369268 0 -0.51503808176128008 -0.85716729658548041 0.75 0 0 1 I I -0.70710678118654757 0.70710678118654757 0.75 forward I I I I #
loop $-1 $-1 $226 $62 #
coedge $-1 $142 $142 $227 $228 reversed $89 $-1 #
face $-1 $-1 $229 $49 $-1 $230 forward single #
loop $-1 $231 $232 $91 #
cone-surface $-1 -9.7385041868185311 22.232250602021011 4.8656625095369268 0 -0.51503808176128008 -0.85716729658548041 0.75 0 0 1 I I -0.70710678118654757 0.70710678118654757 0.75 forward I I I I #
loop $-1 $-1 $233 $63 #
coedge $-1 $147 $147 $234 $235 reversed $92 $-1 #
face $-1 $236 $237 $50 $-1 $238 reversed single #
loop $-1 $-1 $239 $94 #
plane-surface $-1 12.677221490731839 -23.661543419809419 39.562067689431899 0 0.51503808176128008 0.85716729658548041 1 0 0 forward_v I I I I #
coedge $-1 $240 $241 $242 $243 reversed $95 $-1 #
face $-1 $-1 $244 $51 $-1 $245 forward single #
loop $-1 $246 $247 $97 #
cone-surface $-1 9.7385041868185311 22.232250602021011 4.8656625095369268 0 -0.51503808176128008 -0.85716729658548041 0.75 0 0 1 I I -0.70710678118654757 0.70710678118654757 0.75 forward I I I I #
loop $-1 $-1 $248 $65 #
coedge $-1 $156 $156 $249 $250 reversed $98 $-1 #
face $-1 $-1 $251 $52 $-1 $252 forward single #
loop $-1 $253 $254 $100 #
cone-surface $-1 15.615938794645132 22.232250602021011 4.8656625095369268 0 -0.51503808176128008 -0.85716729658548041 0.75 0 0 1 I I -0.70710678118654757 0.70710678118654757 0.75 forward I I I I #
loop $-1 $-1 $255 $66 #
coedge $-1 $161 $161 $256 $257 reversed $101 $-1 #
face $-1 $258 $259 $53 $-1 $260 reversed single #
loop $-1 $-1 $261 $103 #
plane-surface $-1 38.031664472195502 -23.661543419809419 39.562067689431899 0 0.51503808176128008 0.85716729658548041 1 0 0 forward_v I I I I #
coedge $-1 $262 $263 $264 $265 reversed $104 $-1 #
face $-1 $-1 $266 $54 $-1 $267 forward single #
loop $-1 $268 $269 $106 #
cone-surface $-1 35.092947168282194 22.232250602021011 4.8656625095369268 0 -0.51503808176128008 -0.85716729658548041 0.75 0 0 1 I I -0.70710678118654757 0.70710678118654757 0.75 forward I I I I #
loop $-1 $-1 $270 $68 #
coedge $-1 $170 $170 $271 $272 reversed $107 $-1 #
face $-1 $-1 $273 $55 $-1 $274 forward single #
loop $-1 $275 $276 $109 #
cone-surface $-1 40.970381776108795 22.232250602021011 4.8656625095369268 0 -0.51503808176128008 -0.85716729658548041 0.75 0 0 1 I I -0.70710678118654757 0.70710678118654757 0.75 forward I I I I #
loop $-1 $-1 $277 $69 #
coedge $-1 $175 $175 $278 $279 reversed $110 $-1 #
face $-1 $280 $281 $42 $-1 $282 reversed single #
loop $-1 $-1 $283 $112 #
plane-surface $-1 0 -33.123894105106757 0 0 1 0 0 0 1 forward_v I I I I #
coedge $-1 $284 $285 $286 $287 forward $113 $-1 #
coedge $-1 $288 $115 $289 $290 forward $71 $-1 #
coedge $-1 $115 $288 $291 $292 forward $71 $-1 #
coedge $-1 $293 $294 $115 $183 reversed $295 $-1 #
edge $-1 $296 -33.123894105106757 $297 33.123894105106757 $182 $298 forward 7 unknown #
face $-1 $299 $300 $43 $-1 $301 reversed single #
loop $-1 $-1 $302 $116 #
plane-surface $-1 -35.840323500798625 -46.94913427506593 0 0 1 0 0 0 1 forward_v I I I I #
coedge $-1 $303 $304 $189 $305 forward $117 $-1 #
coedge $-1 $306 $119 $307 $308 reversed $74 $-1 #
coedge $-1 $119 $306 $187 $305 reversed $74 $-1 #
coedge $-1 $309 $310 $119 $191 reversed $300 $-1 #
edge $-1 $311 -14.752956040221198 $312 14.752956040221198 $190 $313 forward 7 unknown #
face $-1 $314 $315 $44 $-1 $316 forward single #
loop $-1 $-1 $317 $120 #
plane-surface $-1 -31.174657429731134 40.56299962888562 146.44965501351629 -1 0 0 0 0.51503808176128008 0.85716729658548041 forward_v I I I I #
coedge $-1 $318 $319 $320 $321 reversed $121 $-1 #
coedge $-1 $197 $123 $322 $323 reversed $77 $-1 #
coedge $-1 $123 $196 $318 $324 reversed $77 $-1 #
coedge $-1 $320 $325 $123 $199 forward $315 $-1 #
edge $-1 $326 -12.842394290663947 $327 2.6537484886690095 $198 $328 forward 7 unknown #
loop $-1 $-1 $205 $124 #
plane-surface $-1 -38.031664472195494 -23.661543419809419 39.562067689431899 0 0.51503808176128008 0.85716729658548041 1 0 0 forward_v I I I I #
loop $-1 $-1 $329 $79 #
coedge $-1 $203 $203 $204 $330 reversed $125 $-1 #
coedge $-1 $204 $204 $203 $330 forward $127 $-1 #
coedge $-1 $205 $205 $128 $206 forward $200 $-1 #
edge $-1 $331 8.19060929004345e-016 $331 6.2831853071796013 $205 $332 forward 7 unknown #
loop $-1 $-1 $212 $129 #
plane-surface $-1 -38.031664472195494 -23.661543419809419 39.562067689431899 0 0.51503808176128008 0.85716729658548041 1 0 0 forward_v I I I I #
loop $-1 $-1 $333 $82 #
coedge $-1 $210 $210 $211 $334 reversed $130 $-1 #
coedge $-1 $211 $211 $210 $334 forward $132 $-1 #
coedge $-1 $212 $212 $133 $213 forward $207 $-1 #
edge $-1 $335 8.19060929004345e-016 $335 6.2831853071796013 $212 $336 forward 7 unknown #
face $-1 $337 $338 $47 $-1 $339 forward single #
loop $-1 $-1 $340 $134 #
plane-surface $-1 -5.8202144482674711 40.56299962888562 146.44965501351629 -1 0 0 0 0.51503808176128008 0.85716729658548041 forward_v I I I I #
coedge $-1 $341 $342 $343 $344 reversed $135 $-1 #
coedge $-1 $219 $137 $345 $346 reversed $86 $-1 #
coedge $-1 $137 $218 $341 $347 reversed $86 $-1 #
coedge $-1 $343 $348 $137 $221 forward $338 $-1 #
edge $-1 $349 -12.842394290663947 $350 2.6537484886690095 $220 $351 forward 7 unknown #
loop $-1 $-1 $227 $138 #
plane-surface $-1 -12.677221490731831 -23.661543419809419 39.562067689431899 0 0.51503808176128008 0.85716729658548041 1 0 0 forward_v I I I I #
loop $-1 $-1 $352 $88 #
coedge $-1 $225 $225 $226 $353 reversed $139 $-1 #
coedge $-1 $226 $226 $225 $353 forward $141 $-1 #
coedge $-1 $227 $227 $142 $228 forward $222 $-1 #
edge $-1 $354 8.19060929004345e-016 $354 6.2831853071796013 $227 $355 forward 7 unknown #
loop $-1 $-1 $234 $143 #
plane-surface $-1 -12.677221490731831 -23.661543419809419 39.562067689431899 0 0.51503808176128008 0.85716729658548041 1 0 0 forward_v I I I I #
loop $-1 $-1 $356 $91 #
coedge $-1 $232 $232 $233 $357 reversed $144 $-1 #
coedge $-1 $233 $233 $232 $357 forward $146 $-1 #
coedge $-1 $234 $234 $147 $235 forward $229 $-1 #
edge $-1 $358 8.19060929004345e-016 $358 6.2831853071796013 $234 $359 forward 7 unknown #
face $-1 $360 $361 $50 $-1 $362 forward single #
loop $-1 $-1 $363 $148 #
plane-surface $-1 19.534228533196199 40.56299962888562 146.44965501351629 -1 0 0 0 0.51503808176128008 0.85716729658548041 forward_v I I I I #
coedge $-1 $364 $365 $366 $367 reversed $149 $-1 #
coedge $-1 $241 $151 $368 $369 reversed $95 $-1 #
coedge $-1 $151 $240 $364 $370 reversed $95 $-1 #
coedge $-1 $366 $371 $151 $243 forward $361 $-1 #
edge $-1 $372 -12.842394290663947 $373 2.6537484886690095 $242 $374 forward 7 unknown #
loop $-1 $-1 $249 $152 #
plane-surface $-1 12.677221490731839 -23.661543419809419 39.562067689431899 0 0.51503808176128008 0.85716729658548041 1 0 0 forward_v I I I I #
loop $-1 $-1 $375 $97 #
coedge $-1 $247 $247 $248 $376 reversed $153 $-1 #
coedge $-1 $248 $248 $247 $376 forward $155 $-1 #
coedge $-1 $249 $249 $156 $250 forward $244 $-1 #
edge $-1 $377 8.19060929004345e-016 $377 6.2831853071796013 $249 $378 forward 7 unknown #
loop $-1 $-1 $256 $157 #
plane-surface $-1 12.677221490731839 -23.661543419809419 39.562067689431899 0 0.51503808176128008 0.85716729658548041 1 0 0 forward_v I I I I #
loop $-1 $-1 $379 $100 #
coedge $-1 $254 $254 $255 $380 reversed $158 $-1 #
coedge $-1 $255 $255 $254 $380 forward $160 $-1 #
coedge $-1 $256 $256 $161 $257 forward $251 $-1 #
edge $-1 $381 8.19060929004345e-016 $381 6.2831853071796013 $256 $382 forward 7 unknown #
face $-1 $383 $384 $53 $-1 $385 forward single #
loop $-1 $-1 $386 $162 #
plane-surface $-1 44.888671514659862 40.56299962888562 146.44965501351629 -1 0 0 0 0.51503808176128008 0.85716729658548041 forward_v I I I I #
coedge $-1 $387 $388 $389 $390 reversed $163 $-1 #
coedge $-1 $263 $165 $391 $392 reversed $104 $-1 #
coedge $-1 $165 $262 $387 $393 reversed $104 $-1 #
coedge $-1 $389 $394 $165 $265 forward $384 $-1 #
edge $-1 $395 -12.842394290663947 $396 2.6537484886690095 $264 $397 forward 7 unknown #
loop $-1 $-1 $271 $166 #
plane-surface $-1 38.031664472195502 -23.661543419809419 39.562067689431899 0 0.51503808176128008 0.85716729658548041 1 0 0 forward_v I I I I #
loop $-1 $-1 $398 $106 #
coedge $-1 $269 $269 $270 $399 reversed $167 $-1 #
coedge $-1 $270 $270 $269 $399 forward $169 $-1 #
coedge $-1 $271 $271 $170 $272 forward $266 $-1 #
edge $-1 $400 8.19060929004345e-016 $400 6.2831853071796013 $271 $401 forward 7 unknown #
loop $-1 $-1 $278 $171 #
plane-surface $-1 38.031664472195502 -23.661543419809419 39.562067689431899 0 0.51503808176128008 0.85716729658548041 1 0 0 forward_v I I I I #
loop $-1 $-1 $402 $109 #
coedge $-1 $276 $276 $277 $403 reversed $172 $-1 #
coedge $-1 $277 $277 $276 $403 forward $174 $-1 #
coedge $-1 $278 $278 $175 $279 forward $273 $-1 #
edge $-1 $404 8.19060929004345e-016 $404 6.2831853071796013 $278 $405 forward 7 unknown #
face $-1 $406 $407 $42 $-1 $408 reversed single #
loop $-1 $-1 $409 $176 #
plane-surface $-1 -62.349314859462268 0 0 1 0 0 0 0 -1 forward_v I I I I #
coedge $-1 $410 $291 $411 $412 forward $177 $-1 #
coedge $-1 $413 $179 $410 $414 forward $113 $-1 #
coedge $-1 $179 $413 $415 $416 forward $113 $-1 #
coedge $-1 $294 $293 $179 $287 reversed $295 $-1 #
edge $-1 $417 -33.123894105106757 $418 33.123894105106757 $286 $419 forward 7 unknown #
coedge $-1 $181 $180 $420 $421 forward $71 $-1 #
coedge $-1 $422 $423 $180 $290 reversed $407 $-1 #
edge $-1 $297 -62.349314859462268 $424 62.349314859462268 $289 $425 forward 7 unknown #
coedge $-1 $283 $426 $181 $292 reversed $177 $-1 #
edge $-1 $427 -62.349314859462268 $296 62.349314859462268 $291 $428 forward 7 unknown #
coedge $-1 $286 $182 $426 $429 forward $295 $-1 #
coedge $-1 $182 $286 $422 $430 reversed $295 $-1 #
loop $-1 $-1 $293 $406 #
vertex $-1 $183 $431 #
vertex $-1 $183 $432 #
straight-curve $-1 62.349314859462268 0 14.752956040221198 0 1 0 I I #
face $-1 $433 $434 $43 $-1 $435 reversed single #
loop $-1 $-1 $190 $184 #
plane-surface $-1 -38.837244222577375 -40.036514190086343 0 1 0 0 0 0 -1 forward_v I I I I #
coedge $-1 $436 $437 $438 $439 forward $185 $-1 #
coedge $-1 $440 $187 $441 $442 forward $117 $-1 #
coedge $-1 $187 $440 $309 $443 forward $117 $-1 #
edge $-1 $311 -38.837244222577375 $444 -32.843402779019875 $187 $445 forward 7 unknown #
coedge $-1 $189 $188 $446 $447 forward $74 $-1 #
coedge $-1 $448 $449 $188 $308 forward $450 $-1 #
edge $-1 $451 32.843402779019875 $312 38.837244222577375 $307 $452 forward 7 unknown #
coedge $-1 $438 $190 $304 $443 reversed $300 $-1 #
coedge $-1 $190 $438 $448 $453 reversed $300 $-1 #
vertex $-1 $305 $454 #
vertex $-1 $453 $455 #
straight-curve $-1 -38.837244222577375 -33.123894105106757 0 0 0 1 I I #
face $-1 $-1 $456 $44 $-1 $457 reversed single #
loop $-1 $-1 $198 $192 #
plane-surface $-1 0 0 14.752956040221198 0 0 1 1 0 0 forward_v I I I I #
coedge $-1 $458 $459 $460 $461 reversed $193 $-1 #
coedge $-1 $462 $195 $197 $324 forward $121 $-1 #
coedge $-1 $195 $462 $458 $463 forward $121 $-1 #
coedge $-1 $460 $198 $195 $321 forward $315 $-1 #
edge $-1 $327 -25.872839278562108 $464 -12.158825193633387 $320 $465 forward 7 unknown #
coedge $-1 $466 $467 $196 $323 forward $456 $-1 #
edge $-1 $468 -67.782893578042163 $326 -58.471871466536946 $322 $469 forward 7 unknown #
edge $-1 $327 48.169470429003553 $468 66.247788210213514 $197 $470 forward 7 unknown #
coedge $-1 $198 $460 $466 $471 forward $315 $-1 #
vertex $-1 $323 $472 #
vertex $-1 $199 $473 #
straight-curve $-1 -44.888671514659855 20.28149981444281 14.752956040221193 0 -1 0 I I #
coedge $-1 $329 $329 $-1 $474 reversed $202 $-1 #
edge $-1 $475 0 $475 6.2831853071796004 $203 $476 forward 7 unknown #
vertex $-1 $206 $477 #
ellipse-curve $-1 -40.970381776108795 25.375822715440268 10.097444984468599 0 0.51503808176128008 0.85716729658548041 1.5 0 0 1 I I #
coedge $-1 $333 $333 $-1 $478 reversed $209 $-1 #
edge $-1 $479 0 $479 6.2831853071796004 $210 $480 forward 7 unknown #
vertex $-1 $213 $481 #
ellipse-curve $-1 -35.092947168282194 25.375822715440268 10.097444984468599 0 0.51503808176128008 0.85716729658548041 1.5 0 0 1 I I #
face $-1 $-1 $482 $47 $-1 $483 reversed single #
loop $-1 $-1 $220 $214 #
plane-surface $-1 0 0 14.752956040221198 0 0 1 1 0 0 forward_v I I I I #
coedge $-1 $484 $485 $486 $487 reversed $215 $-1 #
coedge $-1 $488 $217 $219 $347 forward $135 $-1 #
coedge $-1 $217 $488 $484 $489 forward $135 $-1 #
coedge $-1 $486 $220 $217 $344 forward $338 $-1 #
edge $-1 $350 -13.195617787830276 $490 0.51839629709844459 $343 $491 forward 7 unknown #
coedge $-1 $492 $493 $218 $346 forward $482 $-1 #
edge $-1 $494 -67.782893578042163 $349 -58.471871466536946 $345 $495 forward 7 unknown #
edge $-1 $350 48.169470429003553 $494 66.247788210213514 $219 $496 forward 7 unknown #
coedge $-1 $220 $486 $492 $497 forward $338 $-1 #
vertex $-1 $221 $498 #
vertex $-1 $221 $499 #
straight-curve $-1 -19.534228533196192 20.28149981444281 14.752956040221193 0 -1 0 I I #
coedge $-1 $352 $352 $-1 $500 reversed $224 $-1 #
edge $-1 $501 0 $501 6.2831853071796004 $225 $502 forward 7 unknown #
vertex $-1 $228 $503 #
ellipse-curve $-1 -15.615938794645132 25.375822715440268 10.097444984468599 0 0.51503808176128008 0.85716729658548041 1.5 0 0 1 I I #
coedge $-1 $356 $356 $-1 $504 reversed $231 $-1 #
edge $-1 $505 0 $505 6.2831853071796004 $232 $506 forward 7 unknown #
vertex $-1 $235 $507 #
ellipse-curve $-1 -9.7385041868185311 25.375822715440268 10.097444984468599 0 0.51503808176128008 0.85716729658548041 1.5 0 0 1 I I #
face $-1 $-1 $508 $50 $-1 $509 reversed single #
loop $-1 $-1 $242 $236 #
plane-surface $-1 0 0 14.752956040221198 0 0 1 1 0 0 forward_v I I I I #
coedge $-1 $510 $511 $512 $513 reversed $237 $-1 #
coedge $-1 $514 $239 $241 $370 forward $149 $-1 #
coedge $-1 $239 $514 $510 $515 forward $149 $-1 #
coedge $-1 $512 $242 $239 $367 forward $361 $-1 #
edge $-1 $373 -0.51839629709844104 $516 13.19561778783028 $366 $517 forward 7 unknown #
coedge $-1 $518 $519 $240 $369 forward $508 $-1 #
edge $-1 $520 -67.782893578042163 $372 -58.471871466536946 $368 $521 forward 7 unknown #
edge $-1 $373 48.169470429003553 $520 66.247788210213514 $241 $522 forward 7 unknown #
coedge $-1 $242 $512 $518 $523 forward $361 $-1 #
vertex $-1 $243 $524 #
vertex $-1 $243 $525 #
straight-curve $-1 5.8202144482674782 20.28149981444281 14.752956040221193 0 -1 0 I I #
coedge $-1 $375 $375 $-1 $526 reversed $246 $-1 #
edge $-1 $527 0 $527 6.2831853071796004 $247 $528 forward 7 unknown #
vertex $-1 $250 $529 #
ellipse-curve $-1 9.7385041868185311 25.375822715440268 10.097444984468599 0 0.51503808176128008 0.85716729658548041 1.5 0 0 1 I I #
coedge $-1 $379 $379 $-1 $530 reversed $253 $-1 #
edge $-1 $531 0 $531 6.2831853071796004 $254 $532 forward 7 unknown #
vertex $-1 $257 $533 #
ellipse-curve $-1 15.615938794645132 25.375822715440268 10.097444984468599 0 0.51503808176128008 0.85716729658548041 1.5 0 0 1 I I #
face $-1 $-1 $534 $53 $-1 $535 reversed single #
loop $-1 $-1 $264 $258 #
plane-surface $-1 0 0 14.752956040221198 0 0 1 1 0 0 forward_v I I I I #
coedge $-1 $536 $537 $538 $539 reversed $259 $-1 #
coedge $-1 $540 $261 $263 $393 forward $163 $-1 #
coedge $-1 $261 $540 $536 $541 forward $163 $-1 #
coedge $-1 $538 $264 $261 $390 forward $384 $-1 #
edge $-1 $396 12.15882519363339 $542 25.872839278562111 $389 $543 forward 7 unknown #
coedge $-1 $544 $545 $262 $392 forward $534 $-1 #
edge $-1 $546 -67.782893578042163 $395 -58.471871466536946 $391 $547 forward 7 unknown #
edge $-1 $396 48.169470429003553 $546 66.247788210213514 $263 $548 forward 7 unknown #
coedge $-1 $264 $538 $544 $549 forward $384 $-1 #
vertex $-1 $265 $550 #
vertex $-1 $265 $551 #
straight-curve $-1 31.174657429731141 20.28149981444281 14.752956040221193 0 -1 0 I I #
coedge $-1 $398 $398 $-1 $552 reversed $268 $-1 #
edge $-1 $553 0 $553 6.2831853071796004 $269 $554 forward 7 unknown #
vertex $-1 $272 $555 #
ellipse-curve $-1 35.092947168282194 25.375822715440268 10.097444984468599 0 0.51503808176128008 0.85716729658548041 1.5 0 0 1 I I #
coedge $-1 $402 $402 $-1 $556 reversed $275 $-1 #
edge $-1 $557 0 $557 6.2831853071796004 $276 $558 forward 7 unknown #
vertex $-1 $279 $559 #
ellipse-curve $-1 40.970381776108795 25.375822715440268 10.097444984468599 0 0.51503808176128008 0.85716729658548041 1.5 0 0 1 I I #
face $-1 $-1 $295 $42 $-1 $560 reversed single #
loop $-1 $-1 $422 $280 #
plane-surface $-1 0 33.123894105106757 0 0 -1 0 0 0 -1 forward_v I I I I #
coedge $-1 $561 $420 $423 $562 forward $281 $-1 #
coedge $-1 $426 $283 $284 $414 reversed $177 $-1 #
coedge $-1 $420 $561 $283 $412 reversed $281 $-1 #
edge $-1 $427 -14.752956040221198 $563 14.752956040221198 $411 $564 forward 7 unknown #
coedge $-1 $285 $284 $561 $565 forward $113 $-1 #
edge $-1 $418 -62.349314859462268 $563 62.349314859462268 $410 $566 forward 7 unknown #
coedge $-1 $423 $422 $285 $416 reversed $407 $-1 #
edge $-1 $567 -62.349314859462268 $417 62.349314859462268 $415 $568 forward 7 unknown #
vertex $-1 $287 $569 #
vertex $-1 $429 $570 #
straight-curve $-1 62.349314859462268 0 -14.752956040221198 0 -1 0 I I #
coedge $-1 $409 $411 $288 $421 reversed $281 $-1 #
edge $-1 $424 -33.123894105106757 $427 33.123894105106757 $420 $571 forward 7 unknown #
coedge $-1 $415 $289 $294 $430 forward $407 $-1 #
coedge $-1 $289 $415 $409 $562 reversed $407 $-1 #
vertex $-1 $290 $572 #
straight-curve $-1 0 33.123894105106757 14.752956040221198 -1 0 0 I I #
coedge $-1 $291 $410 $293 $429 reversed $177 $-1 #
vertex $-1 $421 $573 #
straight-curve $-1 0 -33.123894105106757 14.752956040221198 1 0 0 I I #
edge $-1 $296 -14.752956040221198 $418 14.752956040221198 $293 $574 forward 7 unknown #
edge $-1 $297 -14.752956040221198 $417 14.752956040221198 $294 $575 forward 7 unknown #
point $-1 62.349314859462268 -33.123894105106757 14.752956040221198 #
point $-1 62.349314859462268 33.123894105106757 14.752956040221198 #
face $-1 $-1 $450 $43 $-1 $576 forward single #
loop $-1 $-1 $577 $299 #
plane-surface $-1 -32.843402779019875 -40.036514190086343 0 -1 0 0 0 0 1 forward_v I I I I #
coedge $-1 $578 $302 $440 $579 reversed $185 $-1 #
coedge $-1 $302 $578 $580 $581 reversed $185 $-1 #
coedge $-1 $310 $309 $302 $439 reversed $300 $-1 #
edge $-1 $582 -14.752956040221198 $583 14.752956040221198 $438 $584 forward 7 unknown #
coedge $-1 $304 $303 $436 $579 forward $117 $-1 #
coedge $-1 $446 $577 $303 $442 reversed $434 $-1 #
edge $-1 $444 -6.9126200849795865 $585 6.9126200849795865 $441 $586 forward 7 unknown #
edge $-1 $583 -6.9126200849795865 $311 6.9126200849795865 $309 $587 forward 7 unknown #
vertex $-1 $442 $588 #
straight-curve $-1 0 -33.123894105106757 -14.752956040221198 1 0 0 I I #
coedge $-1 $589 $441 $306 $447 reversed $434 $-1 #
edge $-1 $451 -14.752956040221198 $444 14.752956040221198 $446 $590 forward 7 unknown #
coedge $-1 $580 $307 $310 $453 forward $450 $-1 #
coedge $-1 $307 $580 $589 $591 forward $450 $-1 #
loop $-1 $-1 $307 $433 #
vertex $-1 $308 $592 #
straight-curve $-1 0 -33.123894105106757 14.752956040221198 -1 0 0 I I #
edge $-1 $312 -6.9126200849795865 $582 6.9126200849795865 $310 $593 forward 7 unknown #
point $-1 -38.837244222577375 -33.123894105106757 -14.752956040221198 #
point $-1 -38.837244222577375 -33.123894105106757 14.752956040221198 #
loop $-1 $-1 $322 $314 #
plane-surface $-1 0 33.123894105106757 0 0 -1 0 0 0 -1 forward_v I I I I #
coedge $-1 $459 $317 $319 $463 reversed $193 $-1 #
coedge $-1 $317 $458 $594 $595 reversed $193 $-1 #
coedge $-1 $325 $320 $317 $461 forward $315 $-1 #
edge $-1 $464 -2.6537484886690095 $596 12.842394290663947 $460 $597 forward 7 unknown #
coedge $-1 $319 $318 $467 $598 reversed $121 $-1 #
edge $-1 $599 -66.247788210213514 $464 -48.169470429003553 $458 $600 forward 7 unknown #
vertex $-1 $321 $601 #
straight-curve $-1 -19.015832236097747 17.627751325773808 14.752956040221196 1 0 0 I I #
coedge $-1 $594 $322 $325 $471 reversed $456 $-1 #
coedge $-1 $322 $594 $462 $598 forward $456 $-1 #
vertex $-1 $323 $602 #
straight-curve $-1 -44.888671514659855 33.123894105106757 73.224827506758146 0 0 1 I I #
straight-curve $-1 -44.888671514659855 -23.661543419809419 39.562067689431899 0 0.85716729658548041 -0.51503808176128008 I I #
edge $-1 $596 31.174657429731134 $326 44.888671514659855 $466 $603 forward 7 unknown #
point $-1 -44.888671514659855 33.123894105106757 14.752956040221198 #
point $-1 -44.888671514659855 17.627751325773801 14.7529560402212 #
edge $-1 $604 1 $604 0 $329 $-1 forward 7 unknown #
vertex $-1 $330 $605 #
ellipse-curve $-1 -40.970381776108795 22.618529163341972 5.5085379819760369 0 0.51503808176128008 0.85716729658548041 1.5 0 0 1 I I #
point $-1 -39.470381776108795 25.375822715440261 10.097444984468584 #
edge $-1 $606 1 $606 0 $333 $-1 forward 7 unknown #
vertex $-1 $334 $607 #
ellipse-curve $-1 -35.092947168282194 22.618529163341972 5.5085379819760369 0 0.51503808176128008 0.85716729658548041 1.5 0 0 1 I I #
point $-1 -33.592947168282194 25.375822715440261 10.097444984468584 #
loop $-1 $-1 $345 $337 #
plane-surface $-1 0 33.123894105106757 0 0 -1 0 0 0 -1 forward_v I I I I #
coedge $-1 $485 $340 $342 $489 reversed $215 $-1 #
coedge $-1 $340 $484 $608 $609 reversed $215 $-1 #
coedge $-1 $348 $343 $340 $487 forward $338 $-1 #
edge $-1 $490 -2.6537484886690095 $610 12.842394290663947 $486 $611 forward 7 unknown #
coedge $-1 $342 $341 $493 $612 reversed $135 $-1 #
edge $-1 $613 -66.247788210213514 $490 -48.169470429003553 $484 $614 forward 7 unknown #
vertex $-1 $344 $615 #
straight-curve $-1 -6.3386107453659157 17.627751325773808 14.752956040221196 1 0 0 I I #
coedge $-1 $608 $345 $348 $497 reversed $482 $-1 #
coedge $-1 $345 $608 $488 $612 forward $482 $-1 #
vertex $-1 $346 $616 #
straight-curve $-1 -19.534228533196192 33.123894105106757 73.224827506758146 0 0 1 I I #
straight-curve $-1 -19.534228533196192 -23.661543419809419 39.562067689431899 0 0.85716729658548041 -0.51503808176128008 I I #
edge $-1 $610 5.8202144482674711 $349 19.534228533196192 $492 $617 forward 7 unknown #
point $-1 -19.534228533196192 33.123894105106757 14.752956040221198 #
point $-1 -19.534228533196192 17.627751325773801 14.7529560402212 #
edge $-1 $618 1 $618 0 $352 $-1 forward 7 unknown #
vertex $-1 $353 $619 #
ellipse-curve $-1 -15.615938794645132 22.618529163341972 5.5085379819760369 0 0.51503808176128008 0.85716729658548041 1.5 0 0 1 I I #
point $-1 -14.115938794645132 25.375822715440261 10.097444984468584 #
edge $-1 $620 1 $620 0 $356 $-1 forward 7 unknown #
vertex $-1 $357 $621 #
ellipse-curve $-1 -9.7385041868185311 22.618529163341972 5.5085379819760369 0 0.51503808176128008 0.85716729658548041 1.5 0 0 1 I I #
point $-1 -8.2385041868185311 25.375822715440261 10.097444984468584 #
loop $-1 $-1 $368 $360 #
plane-surface $-1 0 33.123894105106757 0 0 -1 0 0 0 -1 forward_v I I I I #
coedge $-1 $511 $363 $365 $515 reversed $237 $-1 #
coedge $-1 $363 $510 $622 $623 reversed $237 $-1 #
coedge $-1 $371 $366 $363 $513 forward $361 $-1 #
edge $-1 $516 -2.6537484886690095 $624 12.842394290663947 $512 $625 forward 7 unknown #
coedge $-1 $365 $364 $519 $626 reversed $149 $-1 #
edge $-1 $627 -66.247788210213514 $516 -48.169470429003553 $510 $628 forward 7 unknown #
vertex $-1 $367 $629 #
straight-curve $-1 6.3386107453659193 17.627751325773808 14.752956040221196 1 0 0 I I #
coedge $-1 $622 $368 $371 $523 reversed $508 $-1 #
coedge $-1 $368 $622 $514 $626 forward $508 $-1 #
vertex $-1 $369 $630 #
straight-curve $-1 5.8202144482674782 33.123894105106757 73.224827506758146 0 0 1 I I #
straight-curve $-1 5.8202144482674782 -23.661543419809419 39.562067689431899 0 0.85716729658548041 -0.51503808176128008 I I #
edge $-1 $624 -19.534228533196199 $372 -5.8202144482674782 $518 $631 forward 7 unknown #
point $-1 5.8202144482674782 33.123894105106757 14.752956040221198 #
point $-1 5.8202144482674782 17.627751325773801 14.7529560402212 #
edge $-1 $632 1 $632 0 $375 $-1 forward 7 unknown #
vertex $-1 $376 $633 #
ellipse-curve $-1 9.7385041868185311 22.618529163341972 5.5085379819760369 0 0.51503808176128008 0.85716729658548041 1.5 0 0 1 I I #
point $-1 11.238504186818531 25.375822715440261 10.097444984468584 #
edge $-1 $634 1 $634 0 $379 $-1 forward 7 unknown #
vertex $-1 $380 $635 #
ellipse-curve $-1 15.615938794645132 22.618529163341972 5.5085379819760369 0 0.51503808176128008 0.85716729658548041 1.5 0 0 1 I I #
point $-1 17.115938794645132 25.375822715440261 10.097444984468584 #
loop $-1 $-1 $391 $383 #
plane-surface $-1 0 33.123894105106757 0 0 -1 0 0 0 -1 forward_v I I I I #
coedge $-1 $537 $386 $388 $541 reversed $259 $-1 #
coedge $-1 $386 $536 $636 $637 reversed $259 $-1 #
coedge $-1 $394 $389 $386 $539 forward $384 $-1 #
edge $-1 $542 -2.6537484886690095 $638 12.842394290663947 $538 $639 forward 7 unknown #
coedge $-1 $388 $387 $545 $640 reversed $163 $-1 #
edge $-1 $641 -66.247788210213514 $542 -48.169470429003553 $536 $642 forward 7 unknown #
vertex $-1 $390 $643 #
straight-curve $-1 19.015832236097751 17.627751325773808 14.752956040221196 1 0 0 I I #
coedge $-1 $636 $391 $394 $549 reversed $534 $-1 #
coedge $-1 $391 $636 $540 $640 forward $534 $-1 #
vertex $-1 $392 $644 #
straight-curve $-1 31.174657429731141 33.123894105106757 73.224827506758146 0 0 1 I I #
straight-curve $-1 31.174657429731141 -23.661543419809419 39.562067689431899 0 0.85716729658548041 -0.51503808176128008 I I #
edge $-1 $638 -44.888671514659862 $395 -31.174657429731141 $544 $645 forward 7 unknown #
point $-1 31.174657429731141 33.123894105106757 14.752956040221198 #
point $-1 31.174657429731141 17.627751325773801 14.7529560402212 #
edge $-1 $646 1 $646 0 $398 $-1 forward 7 unknown #
vertex $-1 $399 $647 #
ellipse-curve $-1 35.092947168282194 22.618529163341972 5.5085379819760369 0 0.51503808176128008 0.85716729658548041 1.5 0 0 1 I I #
point $-1 36.592947168282194 25.375822715440261 10.097444984468584 #
edge $-1 $648 1 $648 0 $402 $-1 forward 7 unknown #
vertex $-1 $403 $649 #
ellipse-curve $-1 40.970381776108795 22.618529163341972 5.5085379819760369 0 0.51503808176128008 0.85716729658548041 1.5 0 0 1 I I #
point $-1 42.470381776108795 25.375822715440261 10.097444984468584 #
plane-surface $-1 62.349314859462268 0 0 -1 0 0 0 0 1 forward_v I I I I #
coedge $-1 $411 $409 $413 $565 reversed $281 $-1 #
edge $-1 $424 -14.752956040221198 $567 14.752956040221198 $423 $650 forward 7 unknown #
vertex $-1 $565 $651 #
straight-curve $-1 -62.349314859462268 -33.123894105106757 0 0 0 -1 I I #
edge $-1 $563 -33.123894105106757 $567 33.123894105106757 $561 $652 forward 7 unknown #
straight-curve $-1 0 -33.123894105106757 -14.752956040221198 -1 0 0 I I #
vertex $-1 $416 $653 #
straight-curve $-1 0 33.123894105106757 -14.752956040221198 1 0 0 I I #
point $-1 62.349314859462268 33.123894105106757 -14.752956040221198 #
point $-1 62.349314859462268 -33.123894105106757 -14.752956040221198 #
straight-curve $-1 -62.349314859462268 0 14.752956040221198 0 -1 0 I I #
point $-1 -62.349314859462268 33.123894105106757 14.752956040221198 #
point $-1 -62.349314859462268 -33.123894105106757 14.752956040221198 #
straight-curve $-1 62.349314859462268 -33.123894105106757 0 0 0 -1 I I #
straight-curve $-1 62.349314859462268 33.123894105106757 0 0 0 -1 I I #
plane-surface $-1 0 0 14.752956040221198 0 0 1 1 0 0 forward_v I I I I #
coedge $-1 $441 $589 $578 $654 forward $434 $-1 #
coedge $-1 $437 $436 $577 $654 reversed $185 $-1 #
edge $-1 $585 -2.9969207217787499 $583 2.9969207217787499 $436 $655 forward 7 unknown #
coedge $-1 $449 $448 $437 $581 forward $450 $-1 #
edge $-1 $582 -2.9969207217787499 $656 2.9969207217787499 $437 $657 forward 7 unknown #
vertex $-1 $453 $658 #
vertex $-1 $443 $659 #
straight-curve $-1 -38.837244222577375 -46.94913427506593 0 0 0 -1 I I #
vertex $-1 $654 $660 #
straight-curve $-1 -32.843402779019875 -40.036514190086343 -14.752956040221198 0 -1 0 I I #
straight-curve $-1 -38.837244222577375 -40.036514190086343 -14.752956040221198 0 1 0 I I #
point $-1 -32.843402779019875 -33.123894105106757 -14.752956040221198 #
coedge $-1 $577 $446 $449 $591 reversed $434 $-1 #
straight-curve $-1 -32.843402779019875 -33.123894105106757 0 0 0 -1 I I #
edge $-1 $656 -6.9126200849795865 $451 6.9126200849795865 $589 $661 forward 7 unknown #
point $-1 -32.843402779019875 -33.123894105106757 14.752956040221198 #
straight-curve $-1 -38.837244222577375 -40.036514190086343 14.752956040221198 0 -1 0 I I #
coedge $-1 $467 $466 $459 $595 forward $456 $-1 #
edge $-1 $596 58.471871466536946 $599 67.782893578042163 $594 $662 forward 7 unknown #
vertex $-1 $471 $663 #
straight-curve $-1 -31.174657429731134 20.28149981444281 14.752956040221193 0 1 0 I I #
edge $-1 $599 12.158825193633387 $468 25.872839278562108 $467 $664 forward 7 unknown #
vertex $-1 $598 $665 #
straight-curve $-1 -31.174657429731134 -23.661543419809419 39.562067689431899 0 -0.85716729658548041 0.51503808176128008 I I #
point $-1 -31.174657429731134 17.627751325773801 14.7529560402212 #
point $-1 -44.888671514659855 33.123894105106757 5.4419339287159829 #
straight-curve $-1 0 33.123894105106757 14.752956040221198 -1 0 0 I I #
vertex $-1 $474 $666 #
point $-1 -39.470381776108795 22.618529163341972 5.5085379819760369 #
vertex $-1 $478 $667 #
point $-1 -33.592947168282194 22.618529163341972 5.5085379819760369 #
coedge $-1 $493 $492 $485 $609 forward $482 $-1 #
edge $-1 $610 58.471871466536946 $613 67.782893578042163 $608 $668 forward 7 unknown #
vertex $-1 $497 $669 #
straight-curve $-1 -5.8202144482674711 20.28149981444281 14.752956040221193 0 1 0 I I #
edge $-1 $613 -0.51839629709844459 $494 13.195617787830276 $493 $670 forward 7 unknown #
vertex $-1 $612 $671 #
straight-curve $-1 -5.8202144482674711 -23.661543419809419 39.562067689431899 0 -0.85716729658548041 0.51503808176128008 I I #
point $-1 -5.8202144482674711 17.627751325773801 14.7529560402212 #
point $-1 -19.534228533196192 33.123894105106757 5.4419339287159829 #
straight-curve $-1 0 33.123894105106757 14.752956040221198 -1 0 0 I I #
vertex $-1 $500 $672 #
point $-1 -14.115938794645132 22.618529163341972 5.5085379819760369 #
vertex $-1 $504 $673 #
point $-1 -8.2385041868185311 22.618529163341972 5.5085379819760369 #
coedge $-1 $519 $518 $511 $623 forward $508 $-1 #
edge $-1 $624 58.471871466536946 $627 67.782893578042163 $622 $674 forward 7 unknown #
vertex $-1 $523 $675 #
straight-curve $-1 19.534228533196199 20.28149981444281 14.752956040221193 0 1 0 I I #
edge $-1 $627 -13.19561778783028 $520 0.51839629709844104 $519 $676 forward 7 unknown #
vertex $-1 $626 $677 #
straight-curve $-1 19.534228533196199 -23.661543419809419 39.562067689431899 0 -0.85716729658548041 0.51503808176128008 I I #
point $-1 19.534228533196199 17.627751325773801 14.7529560402212 #
point $-1 5.8202144482674782 33.123894105106757 5.4419339287159829 #
straight-curve $-1 0 33.123894105106757 14.752956040221198 -1 0 0 I I #
vertex $-1 $526 $678 #
point $-1 11.238504186818531 22.618529163341972 5.5085379819760369 #
vertex $-1 $530 $679 #
point $-1 17.115938794645132 22.618529163341972 5.5085379819760369 #
coedge $-1 $545 $544 $537 $637 forward $534 $-1 #
edge $-1 $638 58.471871466536946 $641 67.782893578042163 $636 $680 forward 7 unknown #
vertex $-1 $549 $681 #
straight-curve $-1 44.888671514659862 20.28149981444281 14.752956040221193 0 1 0 I I #
edge $-1 $641 -25.872839278562111 $546 -12.15882519363339 $545 $682 forward 7 unknown #
vertex $-1 $640 $683 #
straight-curve $-1 44.888671514659862 -23.661543419809419 39.562067689431899 0 -0.85716729658548041 0.51503808176128008 I I #
point $-1 44.888671514659862 17.627751325773801 14.7529560402212 #
point $-1 31.174657429731141 33.123894105106757 5.4419339287159829 #
straight-curve $-1 0 33.123894105106757 14.752956040221198 -1 0 0 I I #
vertex $-1 $552 $684 #
point $-1 36.592947168282194 22.618529163341972 5.5085379819760369 #
vertex $-1 $556 $685 #
point $-1 42.470381776108795 22.618529163341972 5.5085379819760369 #
straight-curve $-1 -62.349314859462268 33.123894105106757 0 0 0 -1 I I #
point $-1 -62.349314859462268 -33.123894105106757 -14.752956040221198 #
straight-curve $-1 -62.349314859462268 0 -14.752956040221198 0 1 0 I I #
point $-1 -62.349314859462268 33.123894105106757 -14.752956040221198 #
edge $-1 $656 -14.752956040221198 $585 14.752956040221198 $577 $686 forward 7 unknown #
straight-curve $-1 -35.840323500798625 -46.94913427506593 -14.752956040221198 -1 0 0 I I #
vertex $-1 $591 $687 #
straight-curve $-1 -35.840323500798625 -46.94913427506593 14.752956040221198 1 0 0 I I #
point $-1 -38.837244222577375 -46.94913427506593 14.752956040221198 #
point $-1 -38.837244222577375 -46.94913427506593 -14.752956040221198 #
point $-1 -32.843402779019875 -46.94913427506593 -14.752956040221198 #
straight-curve $-1 -32.843402779019875 -40.036514190086343 14.752956040221198 0 1 0 I I #
straight-curve $-1 -31.174657429731134 33.123894105106757 73.224827506758146 0 0 -1 I I #
point $-1 -31.174657429731134 33.123894105106757 14.752956040221198 #
straight-curve $-1 -19.015832236097747 33.12389410510675 5.44193392871599 -1 0 0 I I #
point $-1 -31.174657429731134 33.123894105106757 5.4419339287159829 #
point $-1 -40.970381776108795 21.845972040700051 4.2227870370978167 #
point $-1 -35.092947168282194 21.845972040700051 4.2227870370978167 #
straight-curve $-1 -5.8202144482674711 33.123894105106757 73.224827506758146 0 0 -1 I I #
point $-1 -5.8202144482674711 33.123894105106757 14.752956040221198 #
straight-curve $-1 -6.3386107453659157 33.12389410510675 5.44193392871599 -1 0 0 I I #
point $-1 -5.8202144482674711 33.123894105106757 5.4419339287159829 #
point $-1 -15.615938794645132 21.845972040700051 4.2227870370978167 #
point $-1 -9.7385041868185311 21.845972040700051 4.2227870370978167 #
straight-curve $-1 19.534228533196199 33.123894105106757 73.224827506758146 0 0 -1 I I #
point $-1 19.534228533196199 33.123894105106757 14.752956040221198 #
straight-curve $-1 6.3386107453659193 33.12389410510675 5.44193392871599 -1 0 0 I I #
point $-1 19.534228533196199 33.123894105106757 5.4419339287159829 #
point $-1 9.7385041868185311 21.845972040700051 4.2227870370978167 #
point $-1 15.615938794645132 21.845972040700051 4.2227870370978167 #
straight-curve $-1 44.888671514659862 33.123894105106757 73.224827506758146 0 0 -1 I I #
point $-1 44.888671514659862 33.123894105106757 14.752956040221198 #
straight-curve $-1 19.015832236097751 33.12389410510675 5.44193392871599 -1 0 0 I I #
point $-1 44.888671514659862 33.123894105106757 5.4419339287159829 #
point $-1 35.092947168282194 21.845972040700051 4.2227870370978167 #
point $-1 40.970381776108795 21.845972040700051 4.2227870370978167 #
straight-curve $-1 -32.843402779019875 -46.94913427506593 0 0 0 -1 I I #
point $-1 -32.843402779019875 -46.94913427506593 14.752956040221198 #
End-of-ACIS-data 