500 0 16 0           
7 Unknown 11 ACIS 5.0 NT 24 Thu Mar 25 16:59:04 1999 
-1 9.9999999999999995e-007 1e-010 
body $-1 $16 $-1 $17 #
body $-1 $18 $-1 $19 #
body $-1 $20 $-1 $21 #
body $-1 $22 $-1 $23 #
body $-1 $24 $-1 $25 #
body $-1 $26 $-1 $27 #
body $-1 $28 $-1 $29 #
body $-1 $30 $-1 $31 #
body $-1 $32 $-1 $33 #
body $-1 $34 $-1 $35 #
body $-1 $36 $-1 $37 #
body $-1 $38 $-1 $39 #
body $-1 $40 $-1 $41 #
body $-1 $42 $-1 $43 #
body $-1 $44 $-1 $45 #
body $-1 $46 $-1 $47 #
lump $-1 $-1 $48 $0 #
transform $-1 1 0 0 0 1 0 0 0 1 61.60100100711081 40.749117625340418 17.076152346478906 1 rotate no_reflect no_shear #
lump $-1 $-1 $49 $1 #
transform $-1 1 0 0 0 1 0 0 0 1 61.60100100711081 40.749117625340418 17.076152346478906 1 rotate no_reflect no_shear #
lump $-1 $-1 $50 $2 #
transform $-1 1 0 0 0 1 0 0 0 1 61.60100100711081 40.749117625340418 17.076152346478906 1 rotate no_reflect no_shear #
lump $-1 $-1 $51 $3 #
transform $-1 1 0 0 0 1 0 0 0 1 61.60100100711081 40.749117625340418 17.076152346478906 1 rotate no_reflect no_shear #
lump $-1 $-1 $52 $4 #
transform $-1 1 0 0 0 1 0 0 0 1 61.60100100711081 40.749117625340418 17.076152346478906 1 rotate no_reflect no_shear #
lump $-1 $-1 $53 $5 #
transform $-1 1 0 0 0 1 0 0 0 1 61.60100100711081 40.749117625340418 17.076152346478906 1 rotate no_reflect no_shear #
lump $-1 $-1 $54 $6 #
transform $-1 1 0 0 0 1 0 0 0 1 61.60100100711081 40.749117625340418 17.076152346478906 1 rotate no_reflect no_shear #
lump $-1 $-1 $55 $7 #
transform $-1 1 0 0 0 1 0 0 0 1 61.60100100711081 40.749117625340418 17.076152346478906 1 rotate no_reflect no_shear #
lump $-1 $-1 $56 $8 #
transform $-1 1 0 0 0 1 0 0 0 1 61.60100100711081 40.749117625340418 17.076152346478906 1 rotate no_reflect no_shear #
lump $-1 $-1 $57 $9 #
transform $-1 1 0 0 0 1 0 0 0 1 61.60100100711081 40.749117625340418 17.076152346478906 1 rotate no_reflect no_shear #
lump $-1 $-1 $58 $10 #
transform $-1 1 0 0 0 1 0 0 0 1 61.60100100711081 40.749117625340418 17.076152346478906 1 rotate no_reflect no_shear #
lump $-1 $-1 $59 $11 #
transform $-1 1 0 0 0 1 0 0 0 1 61.60100100711081 40.749117625340418 17.076152346478906 1 rotate no_reflect no_shear #
lump $-1 $-1 $60 $12 #
transform $-1 1 0 0 0 1 0 0 0 1 61.60100100711081 40.749117625340418 17.076152346478906 1 rotate no_reflect no_shear #
lump $-1 $-1 $61 $13 #
transform $-1 1 0 0 0 1 0 0 0 1 61.60100100711081 40.749117625340418 17.076152346478906 1 rotate no_reflect no_shear #
lump $-1 $-1 $62 $14 #
transform $-1 1 0 0 0 1 0 0 0 1 61.60100100711081 40.749117625340418 17.076152346478906 1 rotate no_reflect no_shear #
lump $-1 $-1 $63 $15 #
transform $-1 1 0 0 0 1 0 0 0 1 61.60100100711081 40.749117625340418 17.076152346478906 1 rotate no_reflect no_shear #
shell $-1 $-1 $-1 $64 $-1 $16 #
shell $-1 $-1 $-1 $65 $-1 $18 #
shell $-1 $-1 $-1 $66 $-1 $20 #
shell $-1 $-1 $-1 $67 $-1 $22 #
shell $-1 $-1 $-1 $68 $-1 $24 #
shell $-1 $-1 $-1 $69 $-1 $26 #
shell $-1 $-1 $-1 $70 $-1 $28 #
shell $-1 $-1 $-1 $71 $-1 $30 #
shell $-1 $-1 $-1 $72 $-1 $32 #
shell $-1 $-1 $-1 $73 $-1 $34 #
shell $-1 $-1 $-1 $74 $-1 $36 #
shell $-1 $-1 $-1 $75 $-1 $38 #
shell $-1 $-1 $-1 $76 $-1 $40 #
shell $-1 $-1 $-1 $77 $-1 $42 #
shell $-1 $-1 $-1 $78 $-1 $44 #
shell $-1 $-1 $-1 $79 $-1 $46 #
face $-1 $80 $81 $48 $-1 $82 forward single #
face $-1 $83 $84 $49 $-1 $85 forward single #
face $-1 $86 $87 $50 $-1 $88 reversed single #
face $-1 $89 $90 $51 $-1 $91 forward single #
face $-1 $92 $93 $52 $-1 $94 reversed single #
face $-1 $95 $96 $53 $-1 $97 forward single #
face $-1 $98 $99 $54 $-1 $100 reversed single #
face $-1 $101 $102 $55 $-1 $103 forward single #
face $-1 $104 $105 $56 $-1 $106 reversed single #
face $-1 $107 $108 $57 $-1 $109 forward single #
face $-1 $110 $111 $58 $-1 $112 reversed single #
face $-1 $113 $114 $59 $-1 $115 forward single #
face $-1 $116 $117 $60 $-1 $118 forward single #
face $-1 $119 $120 $61 $-1 $121 reversed single #
face $-1 $122 $123 $62 $-1 $124 forward single #
face $-1 $125 $126 $63 $-1 $127 forward single #
face $-1 $128 $129 $48 $-1 $130 reversed single #
loop $-1 $-1 $131 $64 #
plane-surface $-1 0 0 17.076152346478906 0 0 1 1 0 0 forward_v I I I I #
face $-1 $132 $133 $49 $-1 $134 reversed single #
loop $-1 $-1 $135 $65 #
plane-surface $-1 0 -33.774296050697394 -10.751925557775024 0 0 1 1 0 0 forward_v I I I I #
face $-1 $136 $137 $50 $-1 $138 reversed single #
loop $-1 $-1 $139 $66 #
plane-surface $-1 58.560201409697541 -19.944736446147672 182.51554439205722 0 -1 0 -0.69465837861970381 0 -0.71933979245794832 forward_v I I I I #
face $-1 $140 $141 $51 $-1 $142 forward single #
loop $-1 $143 $144 $67 #
cone-surface $-1 55.757804030131219 -23.372105461101025 11.3424093255163 -0.69465837861970381 0 -0.71933979245794832 0.71933979245794832 0 -0.69465837861970381 1 I I 0 1 1 forward I I I I #
face $-1 $145 $146 $52 $-1 $147 reversed single #
loop $-1 $-1 $148 $68 #
plane-surface $-1 58.560201409697541 0.28654824434835557 182.51554439205722 0 -1 0 -0.69465837861970381 0 -0.71933979245794832 forward_v I I I I #
face $-1 $149 $150 $53 $-1 $151 forward single #
loop $-1 $152 $153 $69 #
cone-surface $-1 55.757804030131219 -3.1408207706049964 11.3424093255163 -0.69465837861970381 0 -0.71933979245794832 0.71933979245794832 0 -0.69465837861970381 1 I I 0 1 1 forward I I I I #
face $-1 $154 $155 $54 $-1 $156 reversed single #
loop $-1 $-1 $157 $70 #
plane-surface $-1 58.560201409697541 20.517832934844389 182.51554439205722 0 -1 0 -0.69465837861970381 0 -0.71933979245794832 forward_v I I I I #
face $-1 $158 $159 $55 $-1 $160 forward single #
loop $-1 $161 $162 $71 #
cone-surface $-1 55.757804030131219 17.090463919891036 11.3424093255163 -0.69465837861970381 0 -0.71933979245794832 0.71933979245794832 0 -0.69465837861970381 1 I I 0 1 1 forward I I I I #
face $-1 $163 $164 $56 $-1 $165 reversed single #
loop $-1 $-1 $166 $72 #
plane-surface $-1 58.560201409697541 33.894379595433712 182.51554439205722 0 1 0 0.69465837861970381 0 0.71933979245794832 forward_v I I I I #
face $-1 $167 $168 $57 $-1 $169 forward single #
loop $-1 $170 $171 $73 #
cone-surface $-1 55.757804030131219 37.321748610387061 11.3424093255163 -0.69465837861970381 0 -0.71933979245794832 0.71933979245794832 0 -0.69465837861970381 1 I I 0 1 1 forward I I I I #
face $-1 $172 $173 $58 $-1 $174 reversed single #
loop $-1 $-1 $175 $74 #
plane-surface $-1 -144.03923231098662 -17.467117539494325 103.17930256481226 0 1 0 -0.66913061440640931 0 0.74314481823134659 forward_v I I I I #
face $-1 $176 $177 $59 $-1 $178 forward single #
loop $-1 $179 $180 $75 #
cone-surface $-1 -57.462946085420008 -14.490307579037118 13.116996791105617 0.66913061440640931 0 -0.74314481823134659 0.74314481823134659 0 0.66913061440640931 1 I I 0 1 1 forward I I I I #
face $-1 $181 $182 $60 $-1 $183 forward single #
loop $-1 $184 $185 $76 #
cone-surface $-1 -57.462946085420008 -10.02509263835131 13.116996791105617 0.66913061440640931 0 -0.74314481823134659 0.74314481823134659 0 0.66913061440640931 1 I I 0 1 1 forward I I I I #
face $-1 $186 $187 $61 $-1 $188 reversed single #
loop $-1 $-1 $189 $77 #
plane-surface $-1 -144.03923231098662 16.30717851120307 103.17930256481226 0 1 0 -0.66913061440640931 0 0.74314481823134659 forward_v I I I I #
face $-1 $190 $191 $62 $-1 $192 forward single #
loop $-1 $193 $194 $78 #
cone-surface $-1 -57.462946085420008 19.28398847166028 13.116996791105617 0.66913061440640931 0 -0.74314481823134659 0.74314481823134659 0 0.66913061440640931 1 I I 0 1 1 forward I I I I #
face $-1 $195 $196 $63 $-1 $197 forward single #
loop $-1 $198 $199 $79 #
cone-surface $-1 -57.462946085420008 23.749203412346091 13.116996791105617 0.66913061440640931 0 -0.74314481823134659 0.74314481823134659 0 0.66913061440640931 1 I I 0 1 1 forward I I I I #
face $-1 $200 $201 $48 $-1 $202 reversed single #
loop $-1 $-1 $203 $80 #
plane-surface $-1 0 0 -17.076152346478906 0 0 1 1 0 0 forward_v I I I I #
coedge $-1 $204 $205 $206 $207 forward $81 $-1 #
face $-1 $208 $209 $49 $-1 $210 reversed single #
loop $-1 $-1 $211 $83 #
plane-surface $-1 0 -26.799474476054375 -13.914038952126965 0 -1 0 0 0 -1 forward_v I I I I #
coedge $-1 $212 $213 $214 $215 reversed $84 $-1 #
face $-1 $216 $217 $50 $-1 $218 reversed single #
loop $-1 $-1 $219 $86 #
plane-surface $-1 -27.023101552203116 -23.372105461101025 93.891441832743325 0.69465837861970381 0 0.71933979245794832 0.71933979245794832 0 -0.69465837861970381 forward_v I I I I #
coedge $-1 $220 $221 $222 $223 reversed $87 $-1 #
face $-1 $-1 $224 $51 $-1 $225 forward single #
loop $-1 $226 $227 $89 #
cone-surface $-1 54.107049633646895 -23.372105461101025 9.6330031461428263 -0.69465837861970381 0 -0.71933979245794832 0.35966989622897416 0 -0.3473291893098519 1 I I -0.70710678118654746 0.70710678118654746 0.5 forward I I I I #
loop $-1 $-1 $228 $67 #
coedge $-1 $144 $144 $229 $230 reversed $90 $-1 #
face $-1 $231 $232 $52 $-1 $233 reversed single #
loop $-1 $-1 $234 $92 #
plane-surface $-1 -27.023101552203116 -3.1408207706049964 93.891441832743325 0.69465837861970381 0 0.71933979245794832 0.71933979245794832 0 -0.69465837861970381 forward_v I I I I #
coedge $-1 $235 $236 $237 $238 reversed $93 $-1 #
face $-1 $-1 $239 $53 $-1 $240 forward single #
loop $-1 $241 $242 $95 #
cone-surface $-1 54.107049633646895 -3.1408207706049964 9.6330031461428263 -0.69465837861970381 0 -0.71933979245794832 0.35966989622897416 0 -0.3473291893098519 1 I I -0.70710678118654746 0.70710678118654746 0.5 forward I I I I #
loop $-1 $-1 $243 $69 #
coedge $-1 $153 $153 $244 $245 reversed $96 $-1 #
face $-1 $246 $247 $54 $-1 $248 reversed single #
loop $-1 $-1 $249 $98 #
plane-surface $-1 -27.023101552203116 17.090463919891036 93.891441832743325 0.69465837861970381 0 0.71933979245794832 0.71933979245794832 0 -0.69465837861970381 forward_v I I I I #
coedge $-1 $250 $251 $252 $253 reversed $99 $-1 #
face $-1 $-1 $254 $55 $-1 $255 forward single #
loop $-1 $256 $257 $101 #
cone-surface $-1 54.107049633646895 17.090463919891036 9.6330031461428263 -0.69465837861970381 0 -0.71933979245794832 0.35966989622897416 0 -0.3473291893098519 1 I I -0.70710678118654746 0.70710678118654746 0.5 forward I I I I #
loop $-1 $-1 $258 $71 #
coedge $-1 $162 $162 $259 $260 reversed $102 $-1 #
face $-1 $261 $262 $56 $-1 $263 reversed single #
loop $-1 $-1 $264 $104 #
plane-surface $-1 -27.023101552203116 37.321748610387061 93.891441832743325 0.69465837861970381 0 0.71933979245794832 0.71933979245794832 0 -0.69465837861970381 forward_v I I I I #
coedge $-1 $265 $266 $267 $268 reversed $105 $-1 #
face $-1 $-1 $269 $57 $-1 $270 forward single #
loop $-1 $271 $272 $107 #
cone-surface $-1 54.107049633646895 37.321748610387061 9.6330031461428263 -0.69465837861970381 0 -0.71933979245794832 0.35966989622897416 0 -0.3473291893098519 1 I I -0.70710678118654746 0.70710678118654746 0.5 forward I I I I #
loop $-1 $-1 $273 $73 #
coedge $-1 $171 $171 $274 $275 reversed $108 $-1 #
face $-1 $276 $277 $58 $-1 $278 reversed single #
loop $-1 $-1 $279 $110 #
plane-surface $-1 -61.601001007110824 -12.257700108694216 11.622373172215532 -0.66913061440640931 0 0.74314481823134659 0.74314481823134659 0 0.66913061440640931 forward_v I I I I #
coedge $-1 $280 $281 $282 $283 reversed $111 $-1 #
face $-1 $-1 $284 $59 $-1 $285 forward single #
loop $-1 $286 $287 $113 #
cone-surface $-1 -56.018843492598634 -14.490307579037118 11.513158413748332 0.66913061440640931 0 -0.74314481823134659 0.3715724091156733 0 0.33456530720320465 1 I I -0.70710678118654746 0.70710678118654746 0.5 forward I I I I #
loop $-1 $-1 $288 $75 #
coedge $-1 $180 $180 $289 $290 reversed $114 $-1 #
face $-1 $-1 $291 $60 $-1 $292 forward single #
loop $-1 $293 $294 $116 #
cone-surface $-1 -56.018843492598634 -10.02509263835131 11.513158413748332 0.66913061440640931 0 -0.74314481823134659 0.3715724091156733 0 0.33456530720320465 1 I I -0.70710678118654746 0.70710678118654746 0.5 forward I I I I #
loop $-1 $-1 $295 $76 #
coedge $-1 $185 $185 $296 $297 reversed $117 $-1 #
face $-1 $298 $299 $61 $-1 $300 reversed single #
loop $-1 $-1 $301 $119 #
plane-surface $-1 -61.601001007110824 21.516595942003178 11.622373172215532 -0.66913061440640931 0 0.74314481823134659 0.74314481823134659 0 0.66913061440640931 forward_v I I I I #
coedge $-1 $302 $303 $304 $305 reversed $120 $-1 #
face $-1 $-1 $306 $62 $-1 $307 forward single #
loop $-1 $308 $309 $122 #
cone-surface $-1 -56.018843492598634 19.28398847166028 11.513158413748332 0.66913061440640931 0 -0.74314481823134659 0.3715724091156733 0 0.33456530720320465 1 I I -0.70710678118654746 0.70710678118654746 0.5 forward I I I I #
loop $-1 $-1 $310 $78 #
coedge $-1 $194 $194 $311 $312 reversed $123 $-1 #
face $-1 $-1 $313 $63 $-1 $314 forward single #
loop $-1 $315 $316 $125 #
cone-surface $-1 -56.018843492598634 23.749203412346091 11.513158413748332 0.66913061440640931 0 -0.74314481823134659 0.3715724091156733 0 0.33456530720320465 1 I I -0.70710678118654746 0.70710678118654746 0.5 forward I I I I #
loop $-1 $-1 $317 $79 #
coedge $-1 $199 $199 $318 $319 reversed $126 $-1 #
face $-1 $320 $321 $48 $-1 $322 reversed single #
loop $-1 $-1 $323 $128 #
plane-surface $-1 0 -40.749117625340418 0 0 1 0 0 0 1 forward_v I I I I #
coedge $-1 $324 $325 $326 $327 forward $129 $-1 #
coedge $-1 $328 $131 $329 $330 forward $81 $-1 #
coedge $-1 $131 $328 $331 $332 forward $81 $-1 #
coedge $-1 $333 $334 $131 $207 reversed $335 $-1 #
edge $-1 $336 -40.749117625340418 $337 40.749117625340418 $206 $338 forward 7 unknown #
face $-1 $339 $340 $49 $-1 $341 reversed single #
loop $-1 $-1 $342 $132 #
plane-surface $-1 0 0 -17.076152346478906 0 0 1 1 0 0 forward_v I I I I #
coedge $-1 $343 $344 $345 $346 reversed $133 $-1 #
coedge $-1 $347 $135 $344 $348 forward $84 $-1 #
coedge $-1 $135 $347 $349 $350 reversed $84 $-1 #
coedge $-1 $351 $345 $135 $215 forward $340 $-1 #
edge $-1 $352 9.9123264507056774 $353 23.861969599991721 $214 $354 forward 7 unknown #
face $-1 $355 $356 $50 $-1 $357 reversed single #
loop $-1 $-1 $358 $136 #
plane-surface $-1 58.560201409697541 -26.799474476054378 182.51554439205722 0 1 0 0.69465837861970381 0 0.71933979245794832 forward_v I I I I #
coedge $-1 $359 $360 $361 $362 reversed $137 $-1 #
coedge $-1 $221 $139 $363 $364 reversed $87 $-1 #
coedge $-1 $139 $220 $359 $365 reversed $87 $-1 #
coedge $-1 $361 $366 $139 $223 forward $367 $-1 #
edge $-1 $368 -32.320900302262039 $369 -23.241356762651755 $222 $370 forward 7 unknown #
loop $-1 $-1 $229 $140 #
plane-surface $-1 -27.023101552203116 -23.372105461101025 93.891441832743325 0.69465837861970381 0 0.71933979245794832 0.71933979245794832 0 -0.69465837861970381 forward_v I I I I #
loop $-1 $-1 $371 $89 #
coedge $-1 $227 $227 $228 $372 reversed $141 $-1 #
coedge $-1 $228 $228 $227 $372 forward $143 $-1 #
coedge $-1 $229 $229 $144 $230 forward $224 $-1 #
edge $-1 $373 0 $373 6.2831853071796004 $229 $374 forward 7 unknown #
face $-1 $375 $376 $52 $-1 $377 reversed single #
loop $-1 $-1 $378 $145 #
plane-surface $-1 58.560201409697541 -6.5681897855583484 182.51554439205722 0 1 0 0.69465837861970381 0 0.71933979245794832 forward_v I I I I #
coedge $-1 $379 $380 $381 $382 reversed $146 $-1 #
coedge $-1 $236 $148 $383 $384 reversed $93 $-1 #
coedge $-1 $148 $235 $379 $385 reversed $93 $-1 #
coedge $-1 $381 $386 $148 $238 forward $387 $-1 #
edge $-1 $388 -32.320900302262039 $389 -23.241356762651755 $237 $390 forward 7 unknown #
loop $-1 $-1 $244 $149 #
plane-surface $-1 -27.023101552203116 -3.1408207706049964 93.891441832743325 0.69465837861970381 0 0.71933979245794832 0.71933979245794832 0 -0.69465837861970381 forward_v I I I I #
loop $-1 $-1 $391 $95 #
coedge $-1 $242 $242 $243 $392 reversed $150 $-1 #
coedge $-1 $243 $243 $242 $392 forward $152 $-1 #
coedge $-1 $244 $244 $153 $245 forward $239 $-1 #
edge $-1 $393 0 $393 6.2831853071796004 $244 $394 forward 7 unknown #
face $-1 $395 $396 $54 $-1 $397 reversed single #
loop $-1 $-1 $398 $154 #
plane-surface $-1 58.560201409697541 13.663094904937683 182.51554439205722 0 1 0 0.69465837861970381 0 0.71933979245794832 forward_v I I I I #
coedge $-1 $399 $400 $401 $402 reversed $155 $-1 #
coedge $-1 $251 $157 $403 $404 reversed $99 $-1 #
coedge $-1 $157 $250 $399 $405 reversed $99 $-1 #
coedge $-1 $401 $406 $157 $253 forward $407 $-1 #
edge $-1 $408 -32.320900302262039 $409 -23.241356762651755 $252 $410 forward 7 unknown #
loop $-1 $-1 $259 $158 #
plane-surface $-1 -27.023101552203116 17.090463919891036 93.891441832743325 0.69465837861970381 0 0.71933979245794832 0.71933979245794832 0 -0.69465837861970381 forward_v I I I I #
loop $-1 $-1 $411 $101 #
coedge $-1 $257 $257 $258 $412 reversed $159 $-1 #
coedge $-1 $258 $258 $257 $412 forward $161 $-1 #
coedge $-1 $259 $259 $162 $260 forward $254 $-1 #
edge $-1 $413 0 $413 6.2831853071796004 $259 $414 forward 7 unknown #
face $-1 $415 $416 $56 $-1 $417 forward single #
loop $-1 $-1 $267 $163 #
plane-surface $-1 61.60100100711081 0 0 -1 0 0 0 0 1 forward_v I I I I #
coedge $-1 $418 $419 $420 $421 reversed $164 $-1 #
coedge $-1 $266 $166 $422 $423 reversed $105 $-1 #
coedge $-1 $166 $265 $418 $424 reversed $105 $-1 #
coedge $-1 $420 $425 $166 $268 forward $262 $-1 #
edge $-1 $426 74.181619849549705 $427 82.949633325185971 $267 $428 forward 7 unknown #
loop $-1 $-1 $274 $167 #
plane-surface $-1 -27.023101552203116 37.321748610387061 93.891441832743325 0.69465837861970381 0 0.71933979245794832 0.71933979245794832 0 -0.69465837861970381 forward_v I I I I #
loop $-1 $-1 $429 $107 #
coedge $-1 $272 $272 $273 $430 reversed $168 $-1 #
coedge $-1 $273 $273 $272 $430 forward $170 $-1 #
coedge $-1 $274 $274 $171 $275 forward $269 $-1 #
edge $-1 $431 0 $431 6.2831853071796004 $274 $432 forward 7 unknown #
face $-1 $433 $434 $58 $-1 $435 reversed single #
loop $-1 $-1 $436 $172 #
plane-surface $-1 -144.03923231098662 -7.0482826778941075 103.17930256481226 0 -1 0 0.66913061440640931 0 -0.74314481823134659 forward_v I I I I #
coedge $-1 $437 $438 $439 $440 reversed $173 $-1 #
coedge $-1 $281 $175 $441 $442 reversed $111 $-1 #
coedge $-1 $175 $280 $437 $443 reversed $111 $-1 #
coedge $-1 $439 $444 $175 $283 forward $445 $-1 #
edge $-1 $446 10.4186151483825 $447 16.475650420527757 $282 $448 forward 7 unknown #
loop $-1 $-1 $289 $176 #
plane-surface $-1 -61.601001007110824 -12.257700108694216 11.622373172215532 -0.66913061440640931 0 0.74314481823134659 0.74314481823134659 0 0.66913061440640931 forward_v I I I I #
loop $-1 $-1 $449 $113 #
coedge $-1 $287 $287 $288 $450 reversed $177 $-1 #
coedge $-1 $288 $288 $287 $450 forward $179 $-1 #
coedge $-1 $289 $289 $180 $290 forward $284 $-1 #
edge $-1 $451 0 $451 6.2831853071796004 $289 $452 forward 7 unknown #
loop $-1 $-1 $296 $181 #
plane-surface $-1 -61.601001007110824 -12.257700108694216 11.622373172215532 -0.66913061440640931 0 0.74314481823134659 0.74314481823134659 0 0.66913061440640931 forward_v I I I I #
loop $-1 $-1 $453 $116 #
coedge $-1 $294 $294 $295 $454 reversed $182 $-1 #
coedge $-1 $295 $295 $294 $454 forward $184 $-1 #
coedge $-1 $296 $296 $185 $297 forward $291 $-1 #
edge $-1 $455 0 $455 6.2831853071796004 $296 $456 forward 7 unknown #
face $-1 $457 $458 $61 $-1 $459 forward single #
loop $-1 $-1 $460 $186 #
plane-surface $-1 -144.03923231098662 26.726013372803287 103.17930256481226 0 -1 0 0.66913061440640931 0 -0.74314481823134659 forward_v I I I I #
coedge $-1 $461 $462 $463 $464 reversed $187 $-1 #
coedge $-1 $303 $189 $465 $466 reversed $120 $-1 #
coedge $-1 $189 $302 $461 $467 reversed $120 $-1 #
coedge $-1 $463 $468 $189 $305 forward $458 $-1 #
edge $-1 $469 10.4186151483825 $470 16.475650420527757 $304 $471 forward 7 unknown #
loop $-1 $-1 $311 $190 #
plane-surface $-1 -61.601001007110824 21.516595942003178 11.622373172215532 -0.66913061440640931 0 0.74314481823134659 0.74314481823134659 0 0.66913061440640931 forward_v I I I I #
loop $-1 $-1 $472 $122 #
coedge $-1 $309 $309 $310 $473 reversed $191 $-1 #
coedge $-1 $310 $310 $309 $473 forward $193 $-1 #
coedge $-1 $311 $311 $194 $312 forward $306 $-1 #
edge $-1 $474 0 $474 6.2831853071796004 $311 $475 forward 7 unknown #
loop $-1 $-1 $318 $195 #
plane-surface $-1 -61.601001007110824 21.516595942003178 11.622373172215532 -0.66913061440640931 0 0.74314481823134659 0.74314481823134659 0 0.66913061440640931 forward_v I I I I #
loop $-1 $-1 $476 $125 #
coedge $-1 $316 $316 $317 $477 reversed $196 $-1 #
coedge $-1 $317 $317 $316 $477 forward $198 $-1 #
coedge $-1 $318 $318 $199 $319 forward $313 $-1 #
edge $-1 $478 0 $478 6.2831853071796004 $318 $479 forward 7 unknown #
face $-1 $480 $481 $48 $-1 $482 reversed single #
loop $-1 $-1 $483 $200 #
plane-surface $-1 -61.60100100711081 0 0 1 0 0 0 0 -1 forward_v I I I I #
coedge $-1 $484 $331 $485 $486 forward $201 $-1 #
coedge $-1 $487 $203 $484 $488 forward $129 $-1 #
coedge $-1 $203 $487 $489 $490 forward $129 $-1 #
coedge $-1 $334 $333 $203 $327 reversed $335 $-1 #
edge $-1 $491 -40.749117625340418 $492 40.749117625340418 $326 $493 forward 7 unknown #
coedge $-1 $205 $204 $494 $495 forward $81 $-1 #
coedge $-1 $496 $497 $204 $330 reversed $481 $-1 #
edge $-1 $337 -61.60100100711081 $498 61.60100100711081 $329 $499 forward 7 unknown #
coedge $-1 $323 $500 $205 $332 reversed $201 $-1 #
edge $-1 $501 -61.60100100711081 $336 61.60100100711081 $331 $502 forward 7 unknown #
coedge $-1 $326 $206 $500 $503 forward $335 $-1 #
coedge $-1 $206 $326 $496 $504 reversed $335 $-1 #
loop $-1 $-1 $333 $480 #
vertex $-1 $207 $505 #
vertex $-1 $207 $506 #
straight-curve $-1 61.60100100711081 0 17.076152346478906 0 1 0 I I #
face $-1 $507 $508 $49 $-1 $509 reversed single #
loop $-1 $-1 $345 $208 #
plane-surface $-1 61.60100100711081 0 0 -1 0 0 0 0 1 forward_v I I I I #
coedge $-1 $510 $511 $343 $512 forward $209 $-1 #
coedge $-1 $513 $211 $342 $512 reversed $133 $-1 #
coedge $-1 $211 $513 $212 $348 reversed $133 $-1 #
coedge $-1 $214 $514 $211 $346 forward $340 $-1 #
edge $-1 $515 -10.119132870415424 $352 -3.7949060817115416 $345 $516 forward 7 unknown #
coedge $-1 $213 $212 $517 $518 reversed $84 $-1 #
edge $-1 $352 -61.60100100711081 $519 61.60100100711081 $344 $520 forward 7 unknown #
coedge $-1 $521 $522 $213 $350 forward $508 $-1 #
edge $-1 $353 -61.60100100711081 $523 61.60100100711081 $349 $524 forward 7 unknown #
coedge $-1 $514 $214 $522 $525 forward $340 $-1 #
vertex $-1 $215 $526 #
vertex $-1 $525 $527 #
straight-curve $-1 61.60100100711081 -16.887148025348697 -10.751925557775024 0 -1 0 I I #
face $-1 $-1 $367 $50 $-1 $528 forward single #
loop $-1 $-1 $529 $216 #
plane-surface $-1 61.60100100711081 0 0 -1 0 0 0 0 1 forward_v I I I I #
coedge $-1 $530 $531 $532 $533 reversed $217 $-1 #
coedge $-1 $534 $219 $221 $365 forward $137 $-1 #
coedge $-1 $219 $534 $530 $535 forward $137 $-1 #
coedge $-1 $532 $222 $219 $362 forward $367 $-1 #
edge $-1 $369 8.2586837155971597 $536 15.113421745503866 $361 $537 forward 7 unknown #
coedge $-1 $538 $539 $220 $364 forward $356 $-1 #
edge $-1 $540 -82.949633325185971 $368 -74.181619849549705 $363 $541 forward 7 unknown #
edge $-1 $369 110.57995102412426 $540 123.20200201422162 $221 $542 forward 7 unknown #
coedge $-1 $222 $532 $538 $543 forward $367 $-1 #
loop $-1 $-1 $532 $355 #
vertex $-1 $364 $544 #
vertex $-1 $223 $545 #
straight-curve $-1 29.28010070484877 -19.944736446147672 17.076152346478906 -1 0 0 I I #
coedge $-1 $371 $371 $-1 $546 reversed $226 $-1 #
edge $-1 $547 0 $547 6.2831853071796004 $227 $548 forward 7 unknown #
vertex $-1 $230 $549 #
ellipse-curve $-1 57.061229237305668 -23.372105461101025 12.692145608660777 0.69465837861970381 0 0.71933979245794832 0.71933979245794832 0 -0.69465837861970381 1 I I #
face $-1 $-1 $387 $52 $-1 $550 forward single #
loop $-1 $-1 $551 $231 #
plane-surface $-1 61.60100100711081 0 0 -1 0 0 0 0 1 forward_v I I I I #
coedge $-1 $552 $553 $554 $555 reversed $232 $-1 #
coedge $-1 $556 $234 $236 $385 forward $146 $-1 #
coedge $-1 $234 $556 $552 $557 forward $146 $-1 #
coedge $-1 $554 $237 $234 $382 forward $387 $-1 #
edge $-1 $389 -1.8569586296508538 $558 4.9977794002558502 $381 $559 forward 7 unknown #
coedge $-1 $560 $561 $235 $384 forward $376 $-1 #
edge $-1 $562 -82.949633325185971 $388 -74.181619849549705 $383 $563 forward 7 unknown #
edge $-1 $389 110.57995102412426 $562 123.20200201422162 $236 $564 forward 7 unknown #
coedge $-1 $237 $554 $560 $565 forward $387 $-1 #
loop $-1 $-1 $554 $375 #
vertex $-1 $384 $566 #
vertex $-1 $238 $567 #
straight-curve $-1 29.28010070484877 0.28654824434835557 17.076152346478906 -1 0 0 I I #
coedge $-1 $391 $391 $-1 $568 reversed $241 $-1 #
edge $-1 $569 0 $569 6.2831853071796004 $242 $570 forward 7 unknown #
vertex $-1 $245 $571 #
ellipse-curve $-1 57.061229237305668 -3.1408207706049964 12.692145608660777 0.69465837861970381 0 0.71933979245794832 0.71933979245794832 0 -0.69465837861970381 1 I I #
face $-1 $-1 $407 $54 $-1 $572 forward single #
loop $-1 $-1 $573 $246 #
plane-surface $-1 61.60100100711081 0 0 -1 0 0 0 0 1 forward_v I I I I #
coedge $-1 $574 $575 $576 $577 reversed $247 $-1 #
coedge $-1 $578 $249 $251 $405 forward $155 $-1 #
coedge $-1 $249 $578 $574 $579 forward $155 $-1 #
coedge $-1 $576 $252 $249 $402 forward $407 $-1 #
edge $-1 $409 -11.972600974898871 $580 -5.1178629449921651 $401 $581 forward 7 unknown #
coedge $-1 $582 $583 $250 $404 forward $396 $-1 #
edge $-1 $584 -82.949633325185971 $408 -74.181619849549705 $403 $585 forward 7 unknown #
edge $-1 $409 110.57995102412426 $584 123.20200201422162 $251 $586 forward 7 unknown #
coedge $-1 $252 $576 $582 $587 forward $407 $-1 #
loop $-1 $-1 $576 $395 #
vertex $-1 $404 $588 #
vertex $-1 $253 $589 #
straight-curve $-1 29.28010070484877 20.517832934844389 17.076152346478906 -1 0 0 I I #
coedge $-1 $411 $411 $-1 $590 reversed $256 $-1 #
edge $-1 $591 0 $591 6.2831853071796004 $257 $592 forward 7 unknown #
vertex $-1 $260 $593 #
ellipse-curve $-1 57.061229237305668 17.090463919891036 12.692145608660777 0.69465837861970381 0 0.71933979245794832 0.71933979245794832 0 -0.69465837861970381 1 I I #
face $-1 $-1 $594 $56 $-1 $595 reversed single #
loop $-1 $-1 $422 $261 #
plane-surface $-1 0 0 17.076152346478906 0 0 1 1 0 0 forward_v I I I I #
coedge $-1 $596 $264 $266 $424 forward $164 $-1 #
coedge $-1 $264 $596 $597 $598 reversed $164 $-1 #
coedge $-1 $599 $267 $264 $421 forward $262 $-1 #
edge $-1 $427 15.233505290240181 $600 22.088243320146887 $420 $601 forward 7 unknown #
coedge $-1 $602 $603 $265 $423 forward $416 $-1 #
edge $-1 $604 23.241356762651755 $426 32.320900302262039 $422 $605 forward 7 unknown #
edge $-1 $427 -123.20200201422162 $604 -110.57995102412426 $266 $606 forward 7 unknown #
coedge $-1 $267 $599 $602 $607 reversed $262 $-1 #
vertex $-1 $607 $608 #
vertex $-1 $268 $609 #
straight-curve $-1 61.60100100711081 33.894379595433712 91.257772196028611 0 0 -1 I I #
coedge $-1 $429 $429 $-1 $610 reversed $271 $-1 #
edge $-1 $611 0 $611 6.2831853071796004 $272 $612 forward 7 unknown #
vertex $-1 $275 $613 #
ellipse-curve $-1 57.061229237305668 37.321748610387061 12.692145608660777 0.69465837861970381 0 0.71933979245794832 0.71933979245794832 0 -0.69465837861970381 1 I I #
face $-1 $-1 $445 $58 $-1 $614 forward single #
loop $-1 $-1 $615 $276 #
plane-surface $-1 -61.60100100711081 0 0 1 0 0 0 0 -1 forward_v I I I I #
coedge $-1 $616 $617 $618 $619 reversed $277 $-1 #
coedge $-1 $620 $279 $281 $443 forward $173 $-1 #
coedge $-1 $279 $620 $616 $621 forward $173 $-1 #
coedge $-1 $618 $282 $279 $440 forward $445 $-1 #
edge $-1 $447 -11.338267485147217 $622 -0.91943262354699939 $439 $623 forward 7 unknown #
coedge $-1 $624 $625 $280 $442 forward $434 $-1 #
edge $-1 $626 -39.967278110190584 $446 -34.513498935927224 $441 $627 forward 7 unknown #
edge $-1 $447 -8.1505449860509849 $626 -1.8881026247711288e-014 $281 $628 forward 7 unknown #
coedge $-1 $282 $618 $624 $629 forward $445 $-1 #
loop $-1 $-1 $618 $433 #
vertex $-1 $442 $630 #
vertex $-1 $283 $631 #
straight-curve $-1 -72.01961615549331 -17.467117539494325 17.076152346478906 1 0 0 I I #
coedge $-1 $449 $449 $-1 $632 reversed $286 $-1 #
edge $-1 $633 0 $633 6.2831853071796004 $287 $634 forward 7 unknown #
vertex $-1 $290 $635 #
ellipse-curve $-1 -58.572483371038182 -14.490307579037118 14.349262759347226 -0.66913061440640931 0 0.74314481823134659 0.74314481823134659 0 0.66913061440640931 1 I I #
coedge $-1 $453 $453 $-1 $636 reversed $293 $-1 #
edge $-1 $637 0 $637 6.2831853071796004 $294 $638 forward 7 unknown #
vertex $-1 $297 $639 #
ellipse-curve $-1 -58.572483371038182 -10.02509263835131 14.349262759347226 -0.66913061440640931 0 0.74314481823134659 0.74314481823134659 0 0.66913061440640931 1 I I #
face $-1 $-1 $640 $61 $-1 $641 reversed single #
loop $-1 $-1 $304 $298 #
plane-surface $-1 0 0 17.076152346478906 0 0 1 1 0 0 forward_v I I I I #
coedge $-1 $642 $643 $644 $645 reversed $299 $-1 #
coedge $-1 $646 $301 $303 $467 forward $187 $-1 #
coedge $-1 $301 $646 $642 $647 forward $187 $-1 #
coedge $-1 $644 $304 $301 $464 forward $458 $-1 #
edge $-1 $470 5.5488805402014805 $648 15.967715401801698 $463 $649 forward 7 unknown #
coedge $-1 $650 $651 $302 $466 forward $640 $-1 #
edge $-1 $652 -39.967278110190584 $469 -34.513498935927224 $465 $653 forward 7 unknown #
edge $-1 $470 -8.1505449860509849 $652 -1.8881026247711288e-014 $303 $654 forward 7 unknown #
coedge $-1 $304 $644 $650 $655 forward $458 $-1 #
vertex $-1 $466 $656 #
vertex $-1 $305 $657 #
straight-curve $-1 -72.01961615549331 16.30717851120307 17.076152346478906 1 0 0 I I #
coedge $-1 $472 $472 $-1 $658 reversed $308 $-1 #
edge $-1 $659 0 $659 6.2831853071796004 $309 $660 forward 7 unknown #
vertex $-1 $312 $661 #
ellipse-curve $-1 -58.572483371038182 19.28398847166028 14.349262759347226 -0.66913061440640931 0 0.74314481823134659 0.74314481823134659 0 0.66913061440640931 1 I I #
coedge $-1 $476 $476 $-1 $662 reversed $315 $-1 #
edge $-1 $663 0 $663 6.2831853071796004 $316 $664 forward 7 unknown #
vertex $-1 $319 $665 #
ellipse-curve $-1 -58.572483371038182 23.749203412346091 14.349262759347226 -0.66913061440640931 0 0.74314481823134659 0.74314481823134659 0 0.66913061440640931 1 I I #
face $-1 $-1 $335 $48 $-1 $666 reversed single #
loop $-1 $-1 $496 $320 #
plane-surface $-1 0 40.749117625340418 0 0 -1 0 0 0 -1 forward_v I I I I #
coedge $-1 $667 $494 $497 $668 forward $321 $-1 #
coedge $-1 $500 $323 $324 $488 reversed $201 $-1 #
coedge $-1 $494 $667 $323 $486 reversed $321 $-1 #
edge $-1 $501 -17.076152346478906 $669 17.076152346478906 $485 $670 forward 7 unknown #
coedge $-1 $325 $324 $667 $671 forward $129 $-1 #
edge $-1 $492 -61.60100100711081 $669 61.60100100711081 $484 $672 forward 7 unknown #
coedge $-1 $497 $496 $325 $490 reversed $481 $-1 #
edge $-1 $673 -61.60100100711081 $491 61.60100100711081 $489 $674 forward 7 unknown #
vertex $-1 $327 $675 #
vertex $-1 $503 $676 #
straight-curve $-1 61.60100100711081 0 -17.076152346478906 0 -1 0 I I #
coedge $-1 $483 $485 $328 $495 reversed $321 $-1 #
edge $-1 $498 -40.749117625340418 $501 40.749117625340418 $494 $677 forward 7 unknown #
coedge $-1 $489 $329 $334 $504 forward $481 $-1 #
coedge $-1 $329 $489 $483 $668 reversed $481 $-1 #
vertex $-1 $330 $678 #
straight-curve $-1 0 40.749117625340418 17.076152346478906 -1 0 0 I I #
coedge $-1 $331 $484 $333 $503 reversed $201 $-1 #
vertex $-1 $495 $679 #
straight-curve $-1 0 -40.749117625340418 17.076152346478906 1 0 0 I I #
edge $-1 $336 -17.076152346478906 $492 17.076152346478906 $333 $680 forward 7 unknown #
edge $-1 $337 -17.076152346478906 $491 17.076152346478906 $334 $681 forward 7 unknown #
point $-1 61.60100100711081 -40.749117625340418 17.076152346478906 #
point $-1 61.60100100711081 40.749117625340418 17.076152346478906 #
face $-1 $-1 $682 $49 $-1 $683 reversed single #
loop $-1 $-1 $349 $339 #
plane-surface $-1 0 -40.749117625340418 0 0 1 0 0 0 1 forward_v I I I I #
coedge $-1 $684 $342 $514 $685 forward $209 $-1 #
coedge $-1 $342 $684 $686 $687 forward $209 $-1 #
edge $-1 $688 -61.60100100711081 $515 61.60100100711081 $342 $689 forward 7 unknown #
coedge $-1 $344 $343 $690 $691 reversed $133 $-1 #
coedge $-1 $345 $351 $510 $685 reversed $340 $-1 #
vertex $-1 $685 $692 #
straight-curve $-1 61.60100100711081 -26.799474476054375 -6.9570194760634827 0 0 1 I I #
coedge $-1 $690 $693 $347 $518 forward $682 $-1 #
edge $-1 $523 -23.861969599991721 $519 -9.9123264507056774 $517 $694 forward 7 unknown #
vertex $-1 $518 $695 #
straight-curve $-1 0 -26.799474476054375 -10.751925557775024 -1 0 0 I I #
coedge $-1 $696 $349 $693 $697 forward $508 $-1 #
coedge $-1 $349 $696 $351 $525 reversed $508 $-1 #
vertex $-1 $697 $698 #
straight-curve $-1 0 -40.749117625340418 -10.751925557775024 -1 0 0 I I #
edge $-1 $353 10.751925557775024 $699 17.076152346478906 $351 $700 forward 7 unknown #
point $-1 61.60100100711081 -26.799474476054375 -10.751925557775024 #
point $-1 61.60100100711081 -40.749117625340418 -10.751925557775024 #
plane-surface $-1 0 0 17.076152346478906 0 0 1 1 0 0 forward_v I I I I #
coedge $-1 $539 $538 $531 $701 forward $356 $-1 #
coedge $-1 $531 $358 $360 $535 reversed $217 $-1 #
coedge $-1 $358 $530 $529 $701 reversed $217 $-1 #
coedge $-1 $366 $361 $358 $533 forward $367 $-1 #
edge $-1 $536 23.241356762651755 $702 32.320900302262039 $532 $703 forward 7 unknown #
coedge $-1 $360 $359 $539 $704 reversed $137 $-1 #
edge $-1 $705 -123.20200201422162 $536 -110.57995102412426 $530 $706 forward 7 unknown #
vertex $-1 $362 $707 #
straight-curve $-1 52.521457467500525 -11.686052730550513 17.076152346478914 0 -1 0 I I #
coedge $-1 $529 $363 $366 $543 reversed $356 $-1 #
coedge $-1 $363 $529 $534 $704 forward $356 $-1 #
vertex $-1 $364 $708 #
straight-curve $-1 61.60100100711081 -19.944736446147672 91.257772196028611 0 0 1 I I #
straight-curve $-1 -27.023101552203116 -19.944736446147672 93.891441832743325 0.71933979245794832 0 -0.69465837861970381 I I #
edge $-1 $702 -26.799474476054378 $368 -19.944736446147672 $538 $709 forward 7 unknown #
point $-1 61.60100100711081 -19.944736446147672 17.076152346478906 #
point $-1 52.521457467500525 -19.944736446147672 17.076152346478906 #
edge $-1 $710 1 $710 0 $371 $-1 forward 7 unknown #
vertex $-1 $372 $711 #
ellipse-curve $-1 54.454378822956748 -23.372105461101025 9.9926730423718002 0.69465837861970381 0 0.71933979245794832 0.71933979245794832 0 -0.69465837861970381 1 I I #
point $-1 57.78056902976364 -23.372105461101025 11.997487230041095 #
plane-surface $-1 0 0 17.076152346478906 0 0 1 1 0 0 forward_v I I I I #
coedge $-1 $561 $560 $553 $712 forward $376 $-1 #
coedge $-1 $553 $378 $380 $557 reversed $232 $-1 #
coedge $-1 $378 $552 $551 $712 reversed $232 $-1 #
coedge $-1 $386 $381 $378 $555 forward $387 $-1 #
edge $-1 $558 23.241356762651755 $713 32.320900302262039 $554 $714 forward 7 unknown #
coedge $-1 $380 $379 $561 $715 reversed $146 $-1 #
edge $-1 $716 -123.20200201422162 $558 -110.57995102412426 $552 $717 forward 7 unknown #
vertex $-1 $382 $718 #
straight-curve $-1 52.521457467500525 -1.5704103853024982 17.076152346478914 0 -1 0 I I #
coedge $-1 $551 $383 $386 $565 reversed $376 $-1 #
coedge $-1 $383 $551 $556 $715 forward $376 $-1 #
vertex $-1 $384 $719 #
straight-curve $-1 61.60100100711081 0.28654824434835557 91.257772196028611 0 0 1 I I #
straight-curve $-1 -27.023101552203116 0.28654824434835557 93.891441832743325 0.71933979245794832 0 -0.69465837861970381 I I #
edge $-1 $713 -6.5681897855583484 $388 0.28654824434835557 $560 $720 forward 7 unknown #
point $-1 61.60100100711081 0.28654824434835557 17.076152346478906 #
point $-1 52.521457467500525 0.28654824434835557 17.076152346478906 #
edge $-1 $721 1 $721 0 $391 $-1 forward 7 unknown #
vertex $-1 $392 $722 #
ellipse-curve $-1 54.454378822956748 -3.1408207706049964 9.9926730423718002 0.69465837861970381 0 0.71933979245794832 0.71933979245794832 0 -0.69465837861970381 1 I I #
point $-1 57.78056902976364 -3.1408207706049964 11.997487230041095 #
plane-surface $-1 0 0 17.076152346478906 0 0 1 1 0 0 forward_v I I I I #
coedge $-1 $583 $582 $575 $723 forward $396 $-1 #
coedge $-1 $575 $398 $400 $579 reversed $247 $-1 #
coedge $-1 $398 $574 $573 $723 reversed $247 $-1 #
coedge $-1 $406 $401 $398 $577 forward $407 $-1 #
edge $-1 $580 23.241356762651755 $724 32.320900302262039 $576 $725 forward 7 unknown #
coedge $-1 $400 $399 $583 $726 reversed $155 $-1 #
edge $-1 $727 -123.20200201422162 $580 -110.57995102412426 $574 $728 forward 7 unknown #
vertex $-1 $402 $729 #
straight-curve $-1 52.521457467500525 8.545231959945518 17.076152346478914 0 -1 0 I I #
coedge $-1 $573 $403 $406 $587 reversed $396 $-1 #
coedge $-1 $403 $573 $578 $726 forward $396 $-1 #
vertex $-1 $404 $730 #
straight-curve $-1 61.60100100711081 20.517832934844389 91.257772196028611 0 0 1 I I #
straight-curve $-1 -27.023101552203116 20.517832934844389 93.891441832743325 0.71933979245794832 0 -0.69465837861970381 I I #
edge $-1 $724 13.663094904937683 $408 20.517832934844389 $582 $731 forward 7 unknown #
point $-1 61.60100100711081 20.517832934844389 17.076152346478906 #
point $-1 52.521457467500525 20.517832934844389 17.076152346478906 #
edge $-1 $732 1 $732 0 $411 $-1 forward 7 unknown #
vertex $-1 $412 $733 #
ellipse-curve $-1 54.454378822956748 17.090463919891036 9.9926730423718002 0.69465837861970381 0 0.71933979245794832 0.71933979245794832 0 -0.69465837861970381 1 I I #
point $-1 57.78056902976364 17.090463919891036 11.997487230041095 #
loop $-1 $-1 $597 $415 #
plane-surface $-1 0 40.749117625340418 0 0 -1 0 0 0 -1 forward_v I I I I #
coedge $-1 $419 $418 $603 $734 reversed $164 $-1 #
coedge $-1 $735 $736 $419 $598 forward $594 $-1 #
edge $-1 $600 -80.871367508255844 $737 -68.24931651815848 $597 $738 forward 7 unknown #
coedge $-1 $425 $420 $736 $739 reversed $262 $-1 #
vertex $-1 $421 $740 #
straight-curve $-1 61.60100100711081 18.660874305193531 8.3081388708426402 0 1 0 I I #
coedge $-1 $741 $422 $425 $607 forward $416 $-1 #
coedge $-1 $422 $741 $596 $734 forward $416 $-1 #
vertex $-1 $423 $742 #
straight-curve $-1 29.28010070484877 33.894379595433712 17.076152346478906 1 0 0 I I #
straight-curve $-1 -27.023101552203116 33.894379595433712 93.891441832743325 -0.71933979245794832 0 0.69465837861970381 I I #
edge $-1 $426 33.894379595433712 $743 40.749117625340418 $425 $744 forward 7 unknown #
point $-1 61.60100100711081 33.894379595433712 17.076152346478906 #
point $-1 61.60100100711081 33.894379595433712 8.3081388708426402 #
edge $-1 $745 1 $745 0 $429 $-1 forward 7 unknown #
vertex $-1 $430 $746 #
ellipse-curve $-1 54.454378822956748 37.321748610387061 9.9926730423718002 0.69465837861970381 0 0.71933979245794832 0.71933979245794832 0 -0.69465837861970381 1 I I #
point $-1 57.78056902976364 37.321748610387061 11.997487230041095 #
plane-surface $-1 0 0 17.076152346478906 0 0 1 1 0 0 forward_v I I I I #
coedge $-1 $625 $624 $617 $747 forward $434 $-1 #
coedge $-1 $617 $436 $438 $621 reversed $277 $-1 #
coedge $-1 $436 $616 $615 $747 reversed $277 $-1 #
coedge $-1 $444 $439 $436 $619 forward $445 $-1 #
edge $-1 $622 -16.475650420527757 $748 -10.4186151483825 $618 $749 forward 7 unknown #
coedge $-1 $438 $437 $625 $750 reversed $173 $-1 #
edge $-1 $751 1.8881026247711288e-014 $622 8.1505449860509849 $616 $752 forward 7 unknown #
vertex $-1 $440 $753 #
straight-curve $-1 -55.543965734965553 -6.1288500543471081 17.076152346478906 0 1 0 I I #
coedge $-1 $615 $441 $444 $629 reversed $434 $-1 #
coedge $-1 $441 $615 $620 $750 forward $434 $-1 #
vertex $-1 $442 $754 #
straight-curve $-1 -61.60100100711081 -17.467117539494325 51.58965128240613 0 0 1 I I #
straight-curve $-1 -61.601001007110824 -17.467117539494325 11.622373172215532 -0.74314481823134659 0 -0.66913061440640931 I I #
edge $-1 $748 7.0482826778941075 $446 17.467117539494325 $624 $755 forward 7 unknown #
point $-1 -61.60100100711081 -17.467117539494325 17.076152346478906 #
point $-1 -55.543965734965553 -17.467117539494325 17.076152346478906 #
edge $-1 $756 1 $756 0 $449 $-1 forward 7 unknown #
vertex $-1 $450 $757 #
ellipse-curve $-1 -56.353408799801841 -14.490307579037118 11.884730822864006 -0.66913061440640931 0 0.74314481823134659 0.74314481823134659 0 0.66913061440640931 1 I I #
point $-1 -57.829338552806831 -14.490307579037118 15.018393373753636 #
edge $-1 $758 1 $758 0 $453 $-1 forward 7 unknown #
vertex $-1 $454 $759 #
ellipse-curve $-1 -56.353408799801841 -10.02509263835131 11.884730822864006 -0.66913061440640931 0 0.74314481823134659 0.74314481823134659 0 0.66913061440640931 1 I I #
point $-1 -57.829338552806831 -10.02509263835131 15.018393373753636 #
loop $-1 $-1 $465 $457 #
plane-surface $-1 -61.60100100711081 0 0 1 0 0 0 0 -1 forward_v I I I I #
coedge $-1 $643 $460 $462 $647 reversed $299 $-1 #
coedge $-1 $460 $642 $760 $761 reversed $299 $-1 #
coedge $-1 $468 $463 $460 $645 forward $458 $-1 #
edge $-1 $648 -16.475650420527757 $762 -10.4186151483825 $644 $763 forward 7 unknown #
coedge $-1 $462 $461 $651 $764 reversed $187 $-1 #
edge $-1 $765 1.8881026247711288e-014 $648 8.1505449860509849 $642 $766 forward 7 unknown #
vertex $-1 $464 $767 #
straight-curve $-1 -55.543965734965553 10.758297971001589 17.076152346478906 0 1 0 I I #
coedge $-1 $760 $465 $468 $655 reversed $640 $-1 #
coedge $-1 $465 $760 $646 $764 forward $640 $-1 #
vertex $-1 $466 $768 #
straight-curve $-1 -61.60100100711081 16.30717851120307 51.58965128240613 0 0 1 I I #
straight-curve $-1 -61.601001007110824 16.30717851120307 11.622373172215532 -0.74314481823134659 0 -0.66913061440640931 I I #
edge $-1 $762 -26.726013372803287 $469 -16.30717851120307 $650 $769 forward 7 unknown #
point $-1 -61.60100100711081 16.30717851120307 17.076152346478906 #
point $-1 -55.543965734965553 16.30717851120307 17.076152346478906 #
edge $-1 $770 1 $770 0 $472 $-1 forward 7 unknown #
vertex $-1 $473 $771 #
ellipse-curve $-1 -56.353408799801841 19.28398847166028 11.884730822864006 -0.66913061440640931 0 0.74314481823134659 0.74314481823134659 0 0.66913061440640931 1 I I #
point $-1 -57.829338552806831 19.28398847166028 15.018393373753636 #
edge $-1 $772 1 $772 0 $476 $-1 forward 7 unknown #
vertex $-1 $477 $773 #
ellipse-curve $-1 -56.353408799801841 23.749203412346091 11.884730822864006 -0.66913061440640931 0 0.74314481823134659 0.74314481823134659 0 0.66913061440640931 1 I I #
point $-1 -57.829338552806831 23.749203412346091 15.018393373753636 #
plane-surface $-1 61.60100100711081 0 0 -1 0 0 0 0 1 forward_v I I I I #
coedge $-1 $485 $483 $487 $671 reversed $321 $-1 #
edge $-1 $498 -17.076152346478906 $673 17.076152346478906 $497 $774 forward 7 unknown #
vertex $-1 $671 $775 #
straight-curve $-1 -61.60100100711081 -40.749117625340418 0 0 0 -1 I I #
edge $-1 $669 -40.749117625340418 $673 40.749117625340418 $667 $776 forward 7 unknown #
straight-curve $-1 0 -40.749117625340418 -17.076152346478906 -1 0 0 I I #
vertex $-1 $490 $777 #
straight-curve $-1 0 40.749117625340418 -17.076152346478906 1 0 0 I I #
point $-1 61.60100100711081 40.749117625340418 -17.076152346478906 #
point $-1 61.60100100711081 -40.749117625340418 -17.076152346478906 #
straight-curve $-1 -61.60100100711081 0 17.076152346478906 0 -1 0 I I #
point $-1 -61.60100100711081 40.749117625340418 17.076152346478906 #
point $-1 -61.60100100711081 -40.749117625340418 17.076152346478906 #
straight-curve $-1 61.60100100711081 -40.749117625340418 0 0 0 -1 I I #
straight-curve $-1 61.60100100711081 40.749117625340418 0 0 0 -1 I I #
loop $-1 $-1 $690 $507 #
plane-surface $-1 -61.60100100711081 0 0 1 0 0 0 0 -1 forward_v I I I I #
coedge $-1 $511 $510 $696 $778 forward $209 $-1 #
edge $-1 $515 26.799474476054375 $699 40.749117625340418 $514 $779 forward 7 unknown #
coedge $-1 $693 $690 $511 $687 reversed $682 $-1 #
edge $-1 $780 -40.749117625340418 $688 -26.799474476054375 $686 $781 forward 7 unknown #
vertex $-1 $691 $782 #
straight-curve $-1 0 -26.799474476054375 -17.076152346478906 1 0 0 I I #
coedge $-1 $686 $517 $513 $691 forward $682 $-1 #
edge $-1 $519 3.7949060817115416 $688 10.119132870415424 $690 $783 forward 7 unknown #
point $-1 61.60100100711081 -26.799474476054375 -17.076152346478906 #
coedge $-1 $517 $686 $521 $697 reversed $682 $-1 #
straight-curve $-1 -61.60100100711081 -16.887148025348697 -10.751925557775024 0 1 0 I I #
point $-1 -61.60100100711081 -26.799474476054375 -10.751925557775024 #
coedge $-1 $522 $521 $684 $778 reversed $508 $-1 #
edge $-1 $523 10.751925557775024 $780 17.076152346478906 $693 $784 forward 7 unknown #
point $-1 -61.60100100711081 -40.749117625340418 -10.751925557775024 #
vertex $-1 $525 $785 #
straight-curve $-1 61.60100100711081 -40.749117625340418 0 0 0 -1 I I #
edge $-1 $702 74.181619849549705 $705 82.949633325185971 $529 $786 forward 7 unknown #
vertex $-1 $543 $787 #
straight-curve $-1 29.28010070484877 -26.799474476054378 17.076152346478906 1 0 0 I I #
edge $-1 $705 -15.113421745503866 $540 -8.2586837155971597 $539 $788 forward 7 unknown #
vertex $-1 $704 $789 #
straight-curve $-1 -27.023101552203116 -26.799474476054378 93.891441832743325 -0.71933979245794832 0 0.69465837861970381 I I #
point $-1 52.521457467500525 -26.799474476054378 17.076152346478906 #
point $-1 61.60100100711081 -19.944736446147672 8.3081388708426402 #
straight-curve $-1 61.60100100711081 0 17.076152346478906 0 1 0 I I #
vertex $-1 $546 $790 #
point $-1 55.173718615414693 -23.372105461101025 9.2980146637520971 #
edge $-1 $713 74.181619849549705 $716 82.949633325185971 $551 $791 forward 7 unknown #
vertex $-1 $565 $792 #
straight-curve $-1 29.28010070484877 -6.5681897855583484 17.076152346478906 1 0 0 I I #
edge $-1 $716 -4.9977794002558502 $562 1.8569586296508538 $561 $793 forward 7 unknown #
vertex $-1 $715 $794 #
straight-curve $-1 -27.023101552203116 -6.5681897855583484 93.891441832743325 -0.71933979245794832 0 0.69465837861970381 I I #
point $-1 52.521457467500525 -6.5681897855583484 17.076152346478906 #
point $-1 61.60100100711081 0.28654824434835557 8.3081388708426402 #
straight-curve $-1 61.60100100711081 0 17.076152346478906 0 1 0 I I #
vertex $-1 $568 $795 #
point $-1 55.173718615414693 -3.1408207706049964 9.2980146637520971 #
edge $-1 $724 74.181619849549705 $727 82.949633325185971 $573 $796 forward 7 unknown #
vertex $-1 $587 $797 #
straight-curve $-1 29.28010070484877 13.663094904937683 17.076152346478906 1 0 0 I I #
edge $-1 $727 5.1178629449921651 $584 11.972600974898871 $583 $798 forward 7 unknown #
vertex $-1 $726 $799 #
straight-curve $-1 -27.023101552203116 13.663094904937683 93.891441832743325 -0.71933979245794832 0 0.69465837861970381 I I #
point $-1 52.521457467500525 13.663094904937683 17.076152346478906 #
point $-1 61.60100100711081 20.517832934844389 8.3081388708426402 #
straight-curve $-1 61.60100100711081 0 17.076152346478906 0 1 0 I I #
vertex $-1 $590 $800 #
point $-1 55.173718615414693 17.090463919891036 9.2980146637520971 #
edge $-1 $737 -22.08824332014688 $604 -15.233505290240181 $603 $801 forward 7 unknown #
coedge $-1 $736 $597 $741 $802 reversed $594 $-1 #
coedge $-1 $597 $735 $599 $739 forward $594 $-1 #
vertex $-1 $598 $803 #
straight-curve $-1 3.4270082879315744 40.749117625340418 64.486111900885845 -0.71933979245794832 0 0.69465837861970381 I I #
edge $-1 $743 -17.076152346478906 $600 -8.3081388708426367 $599 $804 forward 7 unknown #
point $-1 61.60100100711081 40.749117625340418 8.3081388708426367 #
coedge $-1 $603 $602 $735 $802 forward $416 $-1 #
point $-1 52.521457467500525 33.894379595433712 17.076152346478906 #
vertex $-1 $607 $805 #
straight-curve $-1 61.60100100711081 0 17.076152346478906 0 1 0 I I #
vertex $-1 $610 $806 #
point $-1 55.173718615414693 37.321748610387061 9.2980146637520971 #
edge $-1 $748 34.513498935927224 $751 39.967278110190584 $615 $807 forward 7 unknown #
vertex $-1 $629 $808 #
straight-curve $-1 -72.01961615549331 -7.0482826778941075 17.076152346478906 -1 0 0 I I #
edge $-1 $751 0.91943262354699939 $626 11.338267485147217 $625 $809 forward 7 unknown #
vertex $-1 $750 $810 #
straight-curve $-1 -61.601001007110824 -7.0482826778941075 11.622373172215532 0.74314481823134659 0 0.66913061440640931 I I #
point $-1 -55.543965734965553 -7.0482826778941075 17.076152346478906 #
point $-1 -61.60100100711081 -17.467117539494325 11.622373172215545 #
straight-curve $-1 -61.60100100711081 0 17.076152346478906 0 -1 0 I I #
vertex $-1 $632 $811 #
point $-1 -55.61026398157049 -14.490307579037118 12.553861437270415 #
vertex $-1 $636 $812 #
point $-1 -55.61026398157049 -10.02509263835131 12.553861437270415 #
coedge $-1 $651 $650 $643 $761 forward $640 $-1 #
edge $-1 $762 34.513498935927224 $765 39.967278110190584 $760 $813 forward 7 unknown #
vertex $-1 $655 $814 #
straight-curve $-1 -72.01961615549331 26.726013372803287 17.076152346478906 -1 0 0 I I #
edge $-1 $765 -15.967715401801698 $652 -5.5488805402014805 $651 $815 forward 7 unknown #
vertex $-1 $764 $816 #
straight-curve $-1 -61.601001007110824 26.726013372803287 11.622373172215532 0.74314481823134659 0 0.66913061440640931 I I #
point $-1 -55.543965734965553 26.726013372803287 17.076152346478906 #
point $-1 -61.60100100711081 16.30717851120307 11.622373172215545 #
straight-curve $-1 -61.60100100711081 0 17.076152346478906 0 -1 0 I I #
vertex $-1 $658 $817 #
point $-1 -55.61026398157049 19.28398847166028 12.553861437270415 #
vertex $-1 $662 $818 #
point $-1 -55.61026398157049 23.749203412346091 12.553861437270415 #
straight-curve $-1 -61.60100100711081 40.749117625340418 0 0 0 -1 I I #
point $-1 -61.60100100711081 -40.749117625340418 -17.076152346478906 #
straight-curve $-1 -61.60100100711081 0 -17.076152346478906 0 1 0 I I #
point $-1 -61.60100100711081 40.749117625340418 -17.076152346478906 #
edge $-1 $699 -61.60100100711081 $780 61.60100100711081 $696 $819 forward 7 unknown #
straight-curve $-1 61.60100100711081 0 -17.076152346478906 0 -1 0 I I #
vertex $-1 $687 $820 #
straight-curve $-1 -61.60100100711081 0 -17.076152346478906 0 1 0 I I #
point $-1 -61.60100100711081 -26.799474476054375 -17.076152346478906 #
straight-curve $-1 -61.60100100711081 -26.799474476054375 -6.9570194760634827 0 0 -1 I I #
straight-curve $-1 -61.60100100711081 -40.749117625340418 0 0 0 -1 I I #
point $-1 61.60100100711081 -40.749117625340418 -17.076152346478906 #
straight-curve $-1 61.60100100711081 -26.799474476054378 91.257772196028611 0 0 -1 I I #
point $-1 61.60100100711081 -26.799474476054378 17.076152346478906 #
straight-curve $-1 61.60100100711081 -11.686052730550513 8.3081388708426402 0 1 0 I I #
point $-1 61.60100100711081 -26.799474476054378 8.3081388708426402 #
point $-1 53.759720444337042 -23.372105461101025 9.2733332499138523 #
straight-curve $-1 61.60100100711081 -6.5681897855583484 91.257772196028611 0 0 -1 I I #
point $-1 61.60100100711081 -6.5681897855583484 17.076152346478906 #
straight-curve $-1 61.60100100711081 -1.5704103853024982 8.3081388708426402 0 1 0 I I #
point $-1 61.60100100711081 -6.5681897855583484 8.3081388708426402 #
point $-1 53.759720444337042 -3.1408207706049964 9.2733332499138523 #
straight-curve $-1 61.60100100711081 13.663094904937683 91.257772196028611 0 0 -1 I I #
point $-1 61.60100100711081 13.663094904937683 17.076152346478906 #
straight-curve $-1 61.60100100711081 8.545231959945518 8.3081388708426402 0 1 0 I I #
point $-1 61.60100100711081 13.663094904937683 8.3081388708426402 #
point $-1 53.759720444337042 17.090463919891036 9.2733332499138523 #
straight-curve $-1 52.521457467500525 18.660874305193531 17.076152346478914 0 -1 0 I I #
edge $-1 $743 -61.60100100711081 $737 -52.521457467500525 $735 $821 forward 7 unknown #
point $-1 52.521457467500525 40.749117625340411 17.076152346478906 #
straight-curve $-1 61.60100100711081 40.749117625340418 0 0 0 -1 I I #
point $-1 61.60100100711081 40.749117625340418 17.076152346478906 #
point $-1 53.759720444337042 37.321748610387061 9.2733332499138523 #
straight-curve $-1 -61.60100100711081 -7.0482826778941075 51.58965128240613 0 0 -1 I I #
point $-1 -61.60100100711081 -7.0482826778941075 17.076152346478906 #
straight-curve $-1 -61.60100100711081 -6.1288500543471081 11.622373172215543 0 -1 0 I I #
point $-1 -61.60100100711081 -7.0482826778941075 11.622373172215545 #
point $-1 -55.684278185395428 -14.490307579037118 11.141586004632659 #
point $-1 -55.684278185395428 -10.02509263835131 11.141586004632659 #
straight-curve $-1 -61.60100100711081 26.726013372803287 51.58965128240613 0 0 -1 I I #
point $-1 -61.60100100711081 26.726013372803287 17.076152346478906 #
straight-curve $-1 -61.60100100711081 10.758297971001589 11.622373172215543 0 -1 0 I I #
point $-1 -61.60100100711081 26.726013372803287 11.622373172215545 #
point $-1 -55.684278185395428 19.28398847166028 11.141586004632659 #
point $-1 -55.684278185395428 23.749203412346091 11.141586004632659 #
straight-curve $-1 0 -40.749117625340418 -17.076152346478906 -1 0 0 I I #
point $-1 -61.60100100711081 -40.749117625340418 -17.076152346478906 #
straight-curve $-1 0 40.749117625340418 17.076152346478906 -1 0 0 I I #
End-of-ACIS-data 