500 0 9 0           
7 Unknown 11 ACIS 5.0 NT 24 Fri Mar 26 02:57:50 1999 
-1 9.9999999999999995e-007 1e-010 
body $-1 $9 $-1 $10 #
body $-1 $11 $-1 $12 #
body $-1 $13 $-1 $14 #
body $-1 $15 $-1 $16 #
body $-1 $17 $-1 $18 #
body $-1 $19 $-1 $20 #
body $-1 $21 $-1 $22 #
body $-1 $23 $-1 $24 #
body $-1 $25 $-1 $26 #
lump $-1 $-1 $27 $0 #
transform $-1 1 0 0 0 1 0 0 0 1 74.54573198644978 37.309493889736068 16.249960083235216 1 rotate no_reflect no_shear #
lump $-1 $-1 $28 $1 #
transform $-1 1 0 0 0 1 0 0 0 1 74.54573198644978 37.309493889736068 16.249960083235216 1 rotate no_reflect no_shear #
lump $-1 $-1 $29 $2 #
transform $-1 1 0 0 0 1 0 0 0 1 74.54573198644978 37.309493889736068 16.249960083235216 1 rotate no_reflect no_shear #
lump $-1 $-1 $30 $3 #
transform $-1 1 0 0 0 1 0 0 0 1 74.54573198644978 37.309493889736068 16.249960083235216 1 rotate no_reflect no_shear #
lump $-1 $-1 $31 $4 #
transform $-1 1 0 0 0 1 0 0 0 1 74.54573198644978 37.309493889736068 16.249960083235216 1 rotate no_reflect no_shear #
lump $-1 $-1 $32 $5 #
transform $-1 1 0 0 0 1 0 0 0 1 74.54573198644978 37.309493889736068 16.249960083235216 1 rotate no_reflect no_shear #
lump $-1 $-1 $33 $6 #
transform $-1 1 0 0 0 1 0 0 0 1 74.54573198644978 37.309493889736068 16.249960083235216 1 rotate no_reflect no_shear #
lump $-1 $-1 $34 $7 #
transform $-1 1 0 0 0 1 0 0 0 1 74.54573198644978 37.309493889736068 16.249960083235216 1 rotate no_reflect no_shear #
lump $-1 $-1 $35 $8 #
transform $-1 1 0 0 0 1 0 0 0 1 74.54573198644978 37.309493889736068 16.249960083235216 1 rotate no_reflect no_shear #
shell $-1 $-1 $-1 $36 $-1 $9 #
shell $-1 $-1 $-1 $37 $-1 $11 #
shell $-1 $-1 $-1 $38 $-1 $13 #
shell $-1 $-1 $-1 $39 $-1 $15 #
shell $-1 $-1 $-1 $40 $-1 $17 #
shell $-1 $-1 $-1 $41 $-1 $19 #
shell $-1 $-1 $-1 $42 $-1 $21 #
shell $-1 $-1 $-1 $43 $-1 $23 #
shell $-1 $-1 $-1 $44 $-1 $25 #
face $-1 $45 $46 $27 $-1 $47 reversed single #
face $-1 $48 $49 $28 $-1 $50 forward single #
face $-1 $51 $52 $29 $-1 $53 reversed single #
face $-1 $54 $55 $30 $-1 $56 reversed single #
face $-1 $57 $58 $31 $-1 $59 forward single #
face $-1 $60 $61 $32 $-1 $62 forward single #
face $-1 $63 $64 $33 $-1 $65 reversed single #
face $-1 $66 $67 $34 $-1 $68 forward single #
face $-1 $69 $70 $35 $-1 $71 forward single #
face $-1 $72 $73 $27 $-1 $74 forward single #
loop $-1 $-1 $75 $36 #
plane-surface $-1 -74.54573198644978 0 0 1 0 0 0 0 -1 forward_v I I I I #
face $-1 $76 $77 $28 $-1 $78 reversed single #
loop $-1 $-1 $79 $37 #
plane-surface $-1 -74.54573198644978 0 0 1 0 0 0 0 -1 forward_v I I I I #
face $-1 $80 $81 $29 $-1 $82 reversed single #
loop $-1 $-1 $83 $38 #
plane-surface $-1 60.241621183874628 -34.93485831533026 0 1 0 0 0 0 -1 forward_v I I I I #
face $-1 $84 $85 $30 $-1 $86 reversed single #
loop $-1 $-1 $87 $39 #
plane-surface $-1 -6.6944531319737877 -131.135793464448 121.46755237601056 -1 0 0 0 -0.62932039886446345 0.77714595512881146 forward_v I I I I #
face $-1 $88 $89 $31 $-1 $90 forward single #
loop $-1 $91 $92 $40 #
cone-surface $-1 -17.271426596588341 -29.775352968485702 9.741078190578504 0 0.62932039886446345 -0.77714595512881146 1 0 0 1 I I 0 1 1 forward I I I I #
face $-1 $93 $94 $32 $-1 $95 forward single #
loop $-1 $96 $97 $41 #
cone-surface $-1 -10.925242517819605 -29.775352968485702 9.741078190578504 0 0.62932039886446345 -0.77714595512881146 1 0 0 1 I I 0 1 1 forward I I I I #
face $-1 $98 $99 $33 $-1 $100 reversed single #
loop $-1 $-1 $101 $42 #
plane-surface $-1 28.041873980591056 -131.135793464448 121.46755237601056 -1 0 0 0 -0.62932039886446345 0.77714595512881146 forward_v I I I I #
face $-1 $102 $103 $34 $-1 $104 forward single #
loop $-1 $105 $106 $43 #
cone-surface $-1 17.464900515976495 -29.775352968485702 9.741078190578504 0 0.62932039886446345 -0.77714595512881146 1 0 0 1 I I 0 1 1 forward I I I I #
face $-1 $107 $108 $35 $-1 $109 forward single #
loop $-1 $110 $111 $44 #
cone-surface $-1 23.811084594745225 -29.775352968485702 9.741078190578504 0 0.62932039886446345 -0.77714595512881146 1 0 0 1 I I 0 1 1 forward I I I I #
face $-1 $112 $113 $27 $-1 $114 reversed single #
loop $-1 $-1 $115 $45 #
plane-surface $-1 0 0 16.249960083235216 0 0 1 1 0 0 forward_v I I I I #
coedge $-1 $116 $117 $118 $119 reversed $46 $-1 #
face $-1 $120 $121 $28 $-1 $122 reversed single #
loop $-1 $-1 $123 $48 #
plane-surface $-1 0 0 -16.249960083235216 0 0 1 1 0 0 forward_v I I I I #
coedge $-1 $124 $125 $126 $127 forward $49 $-1 #
face $-1 $128 $129 $29 $-1 $130 forward single #
loop $-1 $-1 $131 $51 #
plane-surface $-1 67.393676585162197 -32.560222740924452 0 0 -1 0 0 0 -1 forward_v I I I I #
coedge $-1 $132 $133 $134 $135 forward $52 $-1 #
face $-1 $136 $137 $30 $-1 $138 reversed single #
loop $-1 $-1 $139 $54 #
plane-surface $-1 -14.098334557203977 -37.309493889736061 5.601724205238753 0 -0.62932039886446345 0.77714595512881146 1 0 0 forward_v I I I I #
coedge $-1 $140 $141 $142 $143 reversed $55 $-1 #
face $-1 $-1 $144 $31 $-1 $145 forward single #
loop $-1 $146 $147 $57 #
cone-surface $-1 -17.271426596588341 -28.501289816550159 8.1677412593556262 0 0.62932039886446345 -0.77714595512881146 0.5 0 0 1 I I -0.70710678118654624 0.70710678118654879 0.5 forward I I I I #
loop $-1 $-1 $148 $40 #
coedge $-1 $92 $92 $149 $150 reversed $58 $-1 #
face $-1 $-1 $151 $32 $-1 $152 forward single #
loop $-1 $153 $154 $60 #
cone-surface $-1 -10.925242517819605 -28.501289816550159 8.1677412593556262 0 0.62932039886446345 -0.77714595512881146 0.5 0 0 1 I I -0.70710678118654624 0.70710678118654879 0.5 forward I I I I #
loop $-1 $-1 $155 $41 #
coedge $-1 $97 $97 $156 $157 reversed $61 $-1 #
face $-1 $158 $159 $33 $-1 $160 reversed single #
loop $-1 $-1 $161 $63 #
plane-surface $-1 20.637992555360867 -37.309493889736061 5.601724205238753 0 -0.62932039886446345 0.77714595512881146 1 0 0 forward_v I I I I #
coedge $-1 $162 $163 $164 $165 reversed $64 $-1 #
face $-1 $-1 $166 $34 $-1 $167 forward single #
loop $-1 $168 $169 $66 #
cone-surface $-1 17.464900515976495 -28.501289816550159 8.1677412593556262 0 0.62932039886446345 -0.77714595512881146 0.5 0 0 1 I I -0.70710678118654624 0.70710678118654879 0.5 forward I I I I #
loop $-1 $-1 $170 $43 #
coedge $-1 $106 $106 $171 $172 reversed $67 $-1 #
face $-1 $-1 $173 $35 $-1 $174 forward single #
loop $-1 $175 $176 $69 #
cone-surface $-1 23.811084594745225 -28.501289816550159 8.1677412593556262 0 0.62932039886446345 -0.77714595512881146 0.5 0 0 1 I I -0.70710678118654624 0.70710678118654879 0.5 forward I I I I #
loop $-1 $-1 $177 $44 #
coedge $-1 $111 $111 $178 $179 reversed $70 $-1 #
face $-1 $180 $181 $27 $-1 $182 reversed single #
loop $-1 $-1 $183 $72 #
plane-surface $-1 0 0 -16.249960083235216 0 0 1 1 0 0 forward_v I I I I #
coedge $-1 $184 $185 $186 $187 forward $73 $-1 #
coedge $-1 $188 $75 $189 $190 reversed $46 $-1 #
coedge $-1 $75 $188 $191 $192 forward $46 $-1 #
coedge $-1 $193 $194 $75 $119 forward $113 $-1 #
edge $-1 $195 -37.309493889736068 $196 37.309493889736068 $75 $197 forward 7 unknown #
face $-1 $198 $199 $28 $-1 $200 reversed single #
loop $-1 $-1 $201 $76 #
plane-surface $-1 -84.967616386815791 -16.994053727762662 0 0 1 0 0 0 1 forward_v I I I I #
coedge $-1 $202 $203 $125 $204 forward $77 $-1 #
coedge $-1 $205 $79 $206 $207 reversed $49 $-1 #
coedge $-1 $79 $205 $123 $204 reversed $49 $-1 #
coedge $-1 $208 $209 $79 $127 reversed $210 $-1 #
edge $-1 $211 -16.249960083235216 $212 16.249960083235216 $126 $213 forward 7 unknown #
face $-1 $214 $215 $29 $-1 $216 reversed single #
loop $-1 $-1 $217 $80 #
plane-surface $-1 0 0 16.249960083235216 0 0 1 1 0 0 forward_v I I I I #
coedge $-1 $218 $219 $220 $221 reversed $81 $-1 #
coedge $-1 $222 $83 $223 $224 reversed $52 $-1 #
coedge $-1 $83 $222 $225 $226 reversed $52 $-1 #
coedge $-1 $219 $218 $83 $135 reversed $81 $-1 #
edge $-1 $227 -16.249960083235216 $228 16.249960083235216 $134 $229 forward 7 unknown #
face $-1 $230 $231 $30 $-1 $232 forward single #
loop $-1 $-1 $233 $84 #
plane-surface $-1 -21.502215982434166 -131.135793464448 121.46755237601056 1 0 0 0 0.62932039886446345 -0.77714595512881146 forward_v I I I I #
coedge $-1 $234 $235 $236 $237 reversed $85 $-1 #
coedge $-1 $141 $87 $238 $239 reversed $55 $-1 #
coedge $-1 $87 $140 $234 $240 reversed $55 $-1 #
coedge $-1 $236 $241 $87 $143 forward $231 $-1 #
edge $-1 $242 28.258402842487932 $243 41.40787877998202 $142 $244 forward 7 unknown #
loop $-1 $-1 $149 $88 #
plane-surface $-1 -14.098334557203977 -37.309493889736061 5.601724205238753 0 -0.62932039886446345 0.77714595512881146 1 0 0 forward_v I I I I #
loop $-1 $-1 $245 $57 #
coedge $-1 $147 $147 $148 $246 reversed $89 $-1 #
coedge $-1 $148 $148 $147 $246 forward $91 $-1 #
coedge $-1 $149 $149 $92 $150 forward $144 $-1 #
edge $-1 $247 -1.1854314377606828e-015 $247 6.2831853071795996 $149 $248 forward 7 unknown #
loop $-1 $-1 $156 $93 #
plane-surface $-1 -14.098334557203977 -37.309493889736061 5.601724205238753 0 -0.62932039886446345 0.77714595512881146 1 0 0 forward_v I I I I #
loop $-1 $-1 $249 $60 #
coedge $-1 $154 $154 $155 $250 reversed $94 $-1 #
coedge $-1 $155 $155 $154 $250 forward $96 $-1 #
coedge $-1 $156 $156 $97 $157 forward $151 $-1 #
edge $-1 $251 -1.1854314377606828e-015 $251 6.2831853071795996 $156 $252 forward 7 unknown #
face $-1 $253 $254 $33 $-1 $255 reversed single #
loop $-1 $-1 $256 $98 #
plane-surface $-1 13.234111130130678 -131.135793464448 121.46755237601056 1 0 0 0 0.62932039886446345 -0.77714595512881146 forward_v I I I I #
coedge $-1 $257 $258 $259 $260 reversed $99 $-1 #
coedge $-1 $163 $101 $261 $262 reversed $64 $-1 #
coedge $-1 $101 $162 $257 $263 reversed $64 $-1 #
coedge $-1 $259 $264 $101 $165 forward $265 $-1 #
edge $-1 $266 28.258402842487932 $267 41.40787877998202 $164 $268 forward 7 unknown #
loop $-1 $-1 $171 $102 #
plane-surface $-1 20.637992555360867 -37.309493889736061 5.601724205238753 0 -0.62932039886446345 0.77714595512881146 1 0 0 forward_v I I I I #
loop $-1 $-1 $269 $66 #
coedge $-1 $169 $169 $170 $270 reversed $103 $-1 #
coedge $-1 $170 $170 $169 $270 forward $105 $-1 #
coedge $-1 $171 $171 $106 $172 forward $166 $-1 #
edge $-1 $271 -1.1854314377606828e-015 $271 6.2831853071795996 $171 $272 forward 7 unknown #
loop $-1 $-1 $178 $107 #
plane-surface $-1 20.637992555360867 -37.309493889736061 5.601724205238753 0 -0.62932039886446345 0.77714595512881146 1 0 0 forward_v I I I I #
loop $-1 $-1 $273 $69 #
coedge $-1 $176 $176 $177 $274 reversed $108 $-1 #
coedge $-1 $177 $177 $176 $274 forward $110 $-1 #
coedge $-1 $178 $178 $111 $179 forward $173 $-1 #
edge $-1 $275 -1.1854314377606828e-015 $275 6.2831853071795996 $178 $276 forward 7 unknown #
face $-1 $277 $278 $27 $-1 $279 reversed single #
loop $-1 $-1 $189 $112 #
plane-surface $-1 0 -37.309493889736068 0 0 1 0 0 0 1 forward_v I I I I #
coedge $-1 $194 $193 $280 $281 forward $113 $-1 #
coedge $-1 $282 $115 $283 $284 forward $73 $-1 #
coedge $-1 $115 $282 $285 $286 forward $73 $-1 #
coedge $-1 $287 $288 $115 $187 reversed $289 $-1 #
edge $-1 $290 -37.309493889736068 $291 37.309493889736068 $186 $292 forward 7 unknown #
coedge $-1 $117 $116 $282 $293 reversed $46 $-1 #
coedge $-1 $294 $285 $116 $190 forward $181 $-1 #
edge $-1 $295 -16.249960083235216 $195 16.249960083235216 $116 $296 forward 7 unknown #
coedge $-1 $283 $297 $117 $192 reversed $278 $-1 #
edge $-1 $298 -16.249960083235216 $196 16.249960083235216 $191 $299 forward 7 unknown #
coedge $-1 $183 $118 $297 $300 forward $113 $-1 #
coedge $-1 $118 $183 $294 $301 forward $113 $-1 #
vertex $-1 $119 $302 #
vertex $-1 $300 $303 #
straight-curve $-1 -74.54573198644978 0 -16.249960083235216 0 1 0 I I #
face $-1 $304 $210 $28 $-1 $305 reversed single #
loop $-1 $-1 $306 $120 #
plane-surface $-1 -95.389500787181802 -12.170046747640775 0 1 0 0 0 0 -1 forward_v I I I I #
coedge $-1 $307 $308 $309 $310 forward $121 $-1 #
coedge $-1 $311 $123 $307 $312 forward $77 $-1 #
coedge $-1 $123 $311 $208 $313 forward $77 $-1 #
edge $-1 $211 7.3460397675188887 $314 16.994053727762662 $123 $315 forward 7 unknown #
coedge $-1 $125 $124 $316 $317 forward $49 $-1 #
coedge $-1 $318 $319 $124 $207 forward $320 $-1 #
edge $-1 $321 -16.994053727762662 $212 -7.3460397675188887 $206 $322 forward 7 unknown #
coedge $-1 $323 $126 $203 $313 reversed $210 $-1 #
coedge $-1 $126 $323 $318 $324 reversed $210 $-1 #
loop $-1 $-1 $126 $198 #
vertex $-1 $204 $325 #
vertex $-1 $324 $326 #
straight-curve $-1 -74.54573198644978 -7.3460397675188887 0 0 0 1 I I #
face $-1 $327 $328 $29 $-1 $329 reversed single #
loop $-1 $-1 $330 $128 #
plane-surface $-1 0 -37.309493889736068 0 0 1 0 0 0 1 forward_v I I I I #
coedge $-1 $225 $331 $219 $332 forward $129 $-1 #
coedge $-1 $134 $131 $333 $334 reversed $81 $-1 #
coedge $-1 $131 $134 $217 $332 reversed $81 $-1 #
coedge $-1 $335 $336 $131 $221 forward $337 $-1 #
edge $-1 $338 -16.249960083235216 $339 16.249960083235216 $220 $340 forward 7 unknown #
coedge $-1 $133 $132 $330 $341 reversed $52 $-1 #
coedge $-1 $333 $342 $132 $224 forward $328 $-1 #
edge $-1 $343 -19.842064732070938 $228 -15.092793583259322 $223 $344 forward 7 unknown #
coedge $-1 $345 $217 $133 $226 forward $129 $-1 #
edge $-1 $227 15.092793583259322 $346 19.842064732070938 $225 $347 forward 7 unknown #
vertex $-1 $226 $348 #
vertex $-1 $224 $349 #
straight-curve $-1 60.241621183874628 -32.560222740924452 0 0 0 -1 I I #
face $-1 $-1 $350 $30 $-1 $351 reversed single #
loop $-1 $-1 $142 $136 #
plane-surface $-1 0 0 16.249960083235216 0 0 1 1 0 0 forward_v I I I I #
coedge $-1 $352 $353 $354 $355 reversed $137 $-1 #
coedge $-1 $356 $139 $141 $240 forward $85 $-1 #
coedge $-1 $139 $356 $352 $357 forward $85 $-1 #
coedge $-1 $354 $142 $139 $237 forward $231 $-1 #
edge $-1 $243 -0.35471414662820067 $358 14.453048703832177 $236 $359 forward 7 unknown #
coedge $-1 $360 $361 $140 $239 forward $350 $-1 #
edge $-1 $362 -55.132051982766534 $242 -44.483816104770064 $238 $363 forward 7 unknown #
edge $-1 $243 -16.920214086830786 $362 8.8756469145121664e-015 $141 $364 forward 7 unknown #
coedge $-1 $142 $354 $360 $365 forward $231 $-1 #
vertex $-1 $239 $366 #
vertex $-1 $143 $367 #
straight-curve $-1 -6.6944531319737877 -65.567896732224 16.249960083235216 0 1 0 I I #
coedge $-1 $245 $245 $-1 $368 reversed $146 $-1 #
edge $-1 $369 0 $369 6.2831853071796004 $147 $370 forward 7 unknown #
vertex $-1 $150 $371 #
ellipse-curve $-1 -17.271426596588341 -30.73475592098902 10.925842144236984 0 -0.62932039886446345 0.77714595512881146 1 0 0 1 I I #
coedge $-1 $249 $249 $-1 $372 reversed $153 $-1 #
edge $-1 $373 0 $373 6.2831853071796004 $154 $374 forward 7 unknown #
vertex $-1 $157 $375 #
ellipse-curve $-1 -10.925242517819605 -30.73475592098902 10.925842144236984 0 -0.62932039886446345 0.77714595512881146 1 0 0 1 I I #
face $-1 $-1 $265 $33 $-1 $376 forward single #
loop $-1 $-1 $377 $158 #
plane-surface $-1 0 -37.309493889736068 0 0 1 0 0 0 1 forward_v I I I I #
coedge $-1 $378 $379 $380 $381 reversed $159 $-1 #
coedge $-1 $382 $161 $163 $263 forward $99 $-1 #
coedge $-1 $161 $382 $378 $383 forward $99 $-1 #
coedge $-1 $380 $164 $161 $260 forward $265 $-1 #
edge $-1 $267 -17.722877702910623 $384 -2.9151148524502446 $259 $385 forward 7 unknown #
coedge $-1 $386 $387 $162 $262 forward $254 $-1 #
edge $-1 $388 -55.132051982766534 $266 -44.483816104770064 $261 $389 forward 7 unknown #
edge $-1 $267 -16.920214086830786 $388 8.8756469145121664e-015 $163 $390 forward 7 unknown #
coedge $-1 $164 $380 $386 $391 forward $265 $-1 #
loop $-1 $-1 $380 $253 #
vertex $-1 $262 $392 #
vertex $-1 $165 $393 #
straight-curve $-1 28.041873980591056 -65.567896732224 16.249960083235216 0 1 0 I I #
coedge $-1 $269 $269 $-1 $394 reversed $168 $-1 #
edge $-1 $395 0 $395 6.2831853071796004 $169 $396 forward 7 unknown #
vertex $-1 $172 $397 #
ellipse-curve $-1 17.464900515976495 -30.73475592098902 10.925842144236984 0 -0.62932039886446345 0.77714595512881146 1 0 0 1 I I #
coedge $-1 $273 $273 $-1 $398 reversed $175 $-1 #
edge $-1 $399 0 $399 6.2831853071796004 $176 $400 forward 7 unknown #
vertex $-1 $179 $401 #
ellipse-curve $-1 23.811084594745225 -30.73475592098902 10.925842144236984 0 -0.62932039886446345 0.77714595512881146 1 0 0 1 I I #
face $-1 $-1 $289 $27 $-1 $402 reversed single #
loop $-1 $-1 $403 $180 #
plane-surface $-1 0 37.309493889736068 0 0 -1 0 0 0 -1 forward_v I I I I #
coedge $-1 $288 $287 $183 $281 reversed $289 $-1 #
edge $-1 $404 -37.309493889736068 $405 37.309493889736068 $280 $406 forward 7 unknown #
coedge $-1 $185 $184 $188 $293 forward $73 $-1 #
coedge $-1 $403 $191 $184 $284 reversed $278 $-1 #
edge $-1 $291 -74.54573198644978 $298 74.54573198644978 $283 $407 forward 7 unknown #
coedge $-1 $189 $408 $185 $286 reversed $181 $-1 #
edge $-1 $295 -74.54573198644978 $290 74.54573198644978 $285 $409 forward 7 unknown #
coedge $-1 $280 $186 $408 $410 forward $289 $-1 #
coedge $-1 $186 $280 $403 $411 reversed $289 $-1 #
loop $-1 $-1 $287 $277 #
vertex $-1 $187 $412 #
vertex $-1 $187 $413 #
straight-curve $-1 74.54573198644978 0 16.249960083235216 0 1 0 I I #
edge $-1 $298 -37.309493889736068 $295 37.309493889736068 $188 $414 forward 7 unknown #
coedge $-1 $408 $189 $194 $301 reversed $181 $-1 #
vertex $-1 $293 $415 #
straight-curve $-1 -74.54573198644978 -37.309493889736068 0 0 0 -1 I I #
coedge $-1 $191 $403 $193 $300 reversed $278 $-1 #
vertex $-1 $284 $416 #
straight-curve $-1 -74.54573198644978 37.309493889736068 0 0 0 -1 I I #
edge $-1 $196 -74.54573198644978 $404 74.54573198644978 $297 $417 forward 7 unknown #
edge $-1 $405 -74.54573198644978 $195 74.54573198644978 $294 $418 forward 7 unknown #
point $-1 -74.54573198644978 -37.309493889736068 -16.249960083235216 #
point $-1 -74.54573198644978 37.309493889736068 -16.249960083235216 #
face $-1 $-1 $320 $28 $-1 $419 forward single #
plane-surface $-1 -84.967616386815791 -7.3460397675188887 0 0 -1 0 0 0 -1 forward_v I I I I #
coedge $-1 $420 $421 $323 $422 forward $199 $-1 #
coedge $-1 $316 $201 $202 $312 reversed $121 $-1 #
coedge $-1 $201 $316 $319 $423 reversed $121 $-1 #
coedge $-1 $421 $420 $201 $310 reversed $199 $-1 #
edge $-1 $424 -16.249960083235216 $425 16.249960083235216 $309 $426 forward 7 unknown #
coedge $-1 $203 $202 $420 $427 forward $77 $-1 #
edge $-1 $314 -10.421884400366011 $425 10.421884400366011 $307 $428 forward 7 unknown #
edge $-1 $429 -10.421884400366011 $211 10.421884400366011 $208 $430 forward 7 unknown #
vertex $-1 $312 $431 #
straight-curve $-1 -74.54573198644978 0 -16.249960083235216 0 -1 0 I I #
coedge $-1 $308 $307 $205 $317 reversed $121 $-1 #
edge $-1 $321 -16.249960083235216 $314 16.249960083235216 $316 $432 forward 7 unknown #
coedge $-1 $433 $206 $209 $324 forward $320 $-1 #
coedge $-1 $206 $433 $308 $423 forward $320 $-1 #
loop $-1 $-1 $206 $304 #
vertex $-1 $207 $434 #
straight-curve $-1 -74.54573198644978 0 16.249960083235216 0 1 0 I I #
coedge $-1 $209 $208 $306 $422 reversed $210 $-1 #
edge $-1 $212 -10.421884400366011 $435 10.421884400366011 $209 $436 forward 7 unknown #
point $-1 -74.54573198644978 -7.3460397675188887 -16.249960083235216 #
point $-1 -74.54573198644978 -7.3460397675188887 16.249960083235216 #
face $-1 $-1 $337 $29 $-1 $437 reversed single #
loop $-1 $-1 $333 $214 #
plane-surface $-1 0 0 -16.249960083235216 0 0 1 1 0 0 forward_v I I I I #
coedge $-1 $438 $439 $222 $341 forward $215 $-1 #
coedge $-1 $217 $345 $335 $440 forward $129 $-1 #
edge $-1 $339 -40.848893693868668 $227 -26.544782891293529 $217 $441 forward 7 unknown #
coedge $-1 $442 $223 $218 $334 forward $328 $-1 #
edge $-1 $228 26.544782891293529 $338 40.848893693868668 $333 $443 forward 7 unknown #
coedge $-1 $444 $220 $331 $440 reversed $337 $-1 #
coedge $-1 $220 $444 $442 $445 reversed $337 $-1 #
loop $-1 $-1 $220 $327 #
vertex $-1 $445 $446 #
vertex $-1 $332 $447 #
straight-curve $-1 74.54573198644978 -32.560222740924452 0 0 0 1 I I #
edge $-1 $346 -16.249960083235216 $343 16.249960083235216 $330 $448 forward 7 unknown #
coedge $-1 $223 $442 $438 $449 forward $328 $-1 #
vertex $-1 $341 $450 #
straight-curve $-1 60.241621183874628 -17.46742915766513 -16.249960083235216 0 1 0 I I #
coedge $-1 $331 $225 $439 $451 forward $129 $-1 #
vertex $-1 $451 $452 #
straight-curve $-1 60.241621183874628 -17.46742915766513 16.249960083235216 0 -1 0 I I #
point $-1 60.241621183874628 -32.560222740924452 16.249960083235216 #
point $-1 60.241621183874628 -32.560222740924452 -16.249960083235216 #
loop $-1 $-1 $238 $230 #
plane-surface $-1 0 -37.309493889736068 0 0 1 0 0 0 1 forward_v I I I I #
coedge $-1 $353 $233 $235 $357 reversed $137 $-1 #
coedge $-1 $233 $352 $453 $454 reversed $137 $-1 #
coedge $-1 $241 $236 $233 $355 forward $231 $-1 #
edge $-1 $358 -41.40787877998202 $455 -28.258402842487932 $354 $456 forward 7 unknown #
coedge $-1 $235 $234 $361 $457 reversed $85 $-1 #
edge $-1 $458 -8.8756469145121664e-015 $358 16.920214086830786 $352 $459 forward 7 unknown #
vertex $-1 $237 $460 #
straight-curve $-1 -7.0491672786019883 -24.160017952241979 16.249960083235216 -1 0 0 I I #
coedge $-1 $453 $238 $241 $365 reversed $350 $-1 #
coedge $-1 $238 $453 $356 $457 forward $350 $-1 #
vertex $-1 $239 $461 #
straight-curve $-1 -6.6944531319737877 -37.309493889736068 60.73377618800528 0 0 1 I I #
straight-curve $-1 -6.6944531319737877 -37.309493889736061 5.601724205238753 0 -0.77714595512881146 -0.62932039886446345 I I #
edge $-1 $455 -21.502215982434166 $242 -6.6944531319737877 $360 $462 forward 7 unknown #
point $-1 -6.6944531319737877 -37.309493889736068 16.249960083235216 #
point $-1 -6.6944531319737877 -24.160017952241979 16.249960083235216 #
edge $-1 $463 1 $463 0 $245 $-1 forward 7 unknown #
vertex $-1 $246 $464 #
ellipse-curve $-1 -17.271426596588341 -28.815950015982391 8.5563142369200342 0 -0.62932039886446345 0.77714595512881146 1 0 0 1 I I #
point $-1 -16.271426596588341 -30.734755920989013 10.925842144236974 #
edge $-1 $465 1 $465 0 $249 $-1 forward 7 unknown #
vertex $-1 $250 $466 #
ellipse-curve $-1 -10.925242517819605 -28.815950015982391 8.5563142369200342 0 -0.62932039886446345 0.77714595512881146 1 0 0 1 I I #
point $-1 -9.9252425178196049 -30.734755920989013 10.925842144236974 #
plane-surface $-1 0 0 16.249960083235216 0 0 1 1 0 0 forward_v I I I I #
coedge $-1 $387 $386 $379 $467 forward $254 $-1 #
coedge $-1 $379 $256 $258 $383 reversed $159 $-1 #
coedge $-1 $256 $378 $377 $467 reversed $159 $-1 #
coedge $-1 $264 $259 $256 $381 forward $265 $-1 #
edge $-1 $384 -41.40787877998202 $468 -28.258402842487932 $380 $469 forward 7 unknown #
coedge $-1 $258 $257 $387 $470 reversed $99 $-1 #
edge $-1 $471 -8.8756469145121664e-015 $384 16.920214086830786 $378 $472 forward 7 unknown #
vertex $-1 $260 $473 #
straight-curve $-1 10.318996277680434 -24.160017952241979 16.249960083235216 -1 0 0 I I #
coedge $-1 $377 $261 $264 $391 reversed $254 $-1 #
coedge $-1 $261 $377 $382 $470 forward $254 $-1 #
vertex $-1 $262 $474 #
straight-curve $-1 28.041873980591056 -37.309493889736068 60.73377618800528 0 0 1 I I #
straight-curve $-1 28.041873980591056 -37.309493889736061 5.601724205238753 0 -0.77714595512881146 -0.62932039886446345 I I #
edge $-1 $468 13.234111130130678 $266 28.041873980591056 $386 $475 forward 7 unknown #
point $-1 28.041873980591056 -37.309493889736068 16.249960083235216 #
point $-1 28.041873980591056 -24.160017952241979 16.249960083235216 #
edge $-1 $476 1 $476 0 $269 $-1 forward 7 unknown #
vertex $-1 $270 $477 #
ellipse-curve $-1 17.464900515976495 -28.815950015982391 8.5563142369200342 0 -0.62932039886446345 0.77714595512881146 1 0 0 1 I I #
point $-1 18.464900515976495 -30.734755920989013 10.925842144236974 #
edge $-1 $478 1 $478 0 $273 $-1 forward 7 unknown #
vertex $-1 $274 $479 #
ellipse-curve $-1 23.811084594745225 -28.815950015982391 8.5563142369200342 0 -0.62932039886446345 0.77714595512881146 1 0 0 1 I I #
point $-1 24.811084594745225 -30.734755920989013 10.925842144236974 #
plane-surface $-1 74.54573198644978 0 0 -1 0 0 0 0 1 forward_v I I I I #
coedge $-1 $297 $283 $288 $411 forward $278 $-1 #
vertex $-1 $281 $480 #
vertex $-1 $410 $481 #
straight-curve $-1 74.54573198644978 0 -16.249960083235216 0 -1 0 I I #
straight-curve $-1 0 37.309493889736068 16.249960083235216 -1 0 0 I I #
coedge $-1 $285 $294 $287 $410 reversed $181 $-1 #
straight-curve $-1 0 -37.309493889736068 16.249960083235216 1 0 0 I I #
edge $-1 $290 -16.249960083235216 $405 16.249960083235216 $287 $482 forward 7 unknown #
edge $-1 $291 -16.249960083235216 $404 16.249960083235216 $288 $483 forward 7 unknown #
point $-1 74.54573198644978 -37.309493889736068 16.249960083235216 #
point $-1 74.54573198644978 37.309493889736068 16.249960083235216 #
straight-curve $-1 -74.54573198644978 0 16.249960083235216 0 -1 0 I I #
point $-1 -74.54573198644978 -37.309493889736068 16.249960083235216 #
point $-1 -74.54573198644978 37.309493889736068 16.249960083235216 #
straight-curve $-1 0 37.309493889736068 -16.249960083235216 1 0 0 I I #
straight-curve $-1 0 -37.309493889736068 -16.249960083235216 -1 0 0 I I #
plane-surface $-1 0 0 16.249960083235216 0 0 1 1 0 0 forward_v I I I I #
coedge $-1 $309 $306 $311 $427 reversed $199 $-1 #
coedge $-1 $306 $309 $433 $484 reversed $199 $-1 #
edge $-1 $435 -16.249960083235216 $429 16.249960083235216 $323 $485 forward 7 unknown #
edge $-1 $424 -10.421884400366011 $321 10.421884400366011 $308 $486 forward 7 unknown #
vertex $-1 $484 $487 #
vertex $-1 $427 $488 #
straight-curve $-1 -95.389500787181802 -16.994053727762662 0 0 0 -1 I I #
edge $-1 $425 -4.8240069801218866 $429 4.8240069801218866 $420 $489 forward 7 unknown #
straight-curve $-1 -84.967616386815791 -16.994053727762662 -16.249960083235216 -1 0 0 I I #
vertex $-1 $313 $490 #
straight-curve $-1 -84.967616386815791 -7.3460397675188887 -16.249960083235216 1 0 0 I I #
point $-1 -74.54573198644978 -16.994053727762662 -16.249960083235216 #
straight-curve $-1 -74.54573198644978 -16.994053727762662 0 0 0 -1 I I #
coedge $-1 $319 $318 $421 $484 forward $320 $-1 #
point $-1 -74.54573198644978 -16.994053727762662 16.249960083235216 #
vertex $-1 $324 $491 #
straight-curve $-1 -84.967616386815791 -7.3460397675188887 16.249960083235216 -1 0 0 I I #
plane-surface $-1 74.54573198644978 0 0 -1 0 0 0 0 1 forward_v I I I I #
coedge $-1 $492 $330 $342 $449 reversed $215 $-1 #
coedge $-1 $330 $492 $345 $451 reversed $215 $-1 #
edge $-1 $493 -37.309493889736068 $339 -32.560222740924452 $335 $494 forward 7 unknown #
straight-curve $-1 33.696838292581099 -32.560222740924452 16.249960083235216 -1 0 0 I I #
coedge $-1 $342 $333 $336 $445 forward $328 $-1 #
straight-curve $-1 33.696838292581099 -32.560222740924452 -16.249960083235216 1 0 0 I I #
coedge $-1 $336 $335 $492 $495 forward $337 $-1 #
edge $-1 $338 32.560222740924452 $496 37.309493889736068 $336 $497 forward 7 unknown #
point $-1 74.545731986449766 -32.560222740924452 -16.249960083235216 #
point $-1 74.545731986449766 -32.560222740924452 16.249960083235216 #
straight-curve $-1 60.241621183874628 -37.309493889736068 0 0 0 -1 I I #
edge $-1 $496 -74.54573198644978 $343 -60.241621183874628 $438 $498 forward 7 unknown #
point $-1 60.241621183874628 -37.309493889736068 -16.249960083235216 #
edge $-1 $346 60.241621183874628 $493 74.54573198644978 $439 $499 forward 7 unknown #
point $-1 60.241621183874628 -37.309493889736068 16.249960083235216 #
coedge $-1 $361 $360 $353 $454 forward $350 $-1 #
edge $-1 $455 44.483816104770064 $458 55.132051982766534 $453 $500 forward 7 unknown #
vertex $-1 $365 $501 #
straight-curve $-1 -21.502215982434166 -65.567896732224 16.249960083235216 0 -1 0 I I #
edge $-1 $458 -14.453048703832177 $362 0.35471414662820067 $361 $502 forward 7 unknown #
vertex $-1 $457 $503 #
straight-curve $-1 -21.502215982434166 -37.309493889736061 5.601724205238753 0 0.77714595512881146 0.62932039886446345 I I #
point $-1 -21.502215982434166 -24.160017952241979 16.249960083235216 #
point $-1 -6.6944531319737877 -37.309493889736068 5.6017242052387477 #
straight-curve $-1 0 -37.309493889736068 16.249960083235216 1 0 0 I I #
vertex $-1 $368 $504 #
point $-1 -16.271426596588341 -28.815950015982391 8.5563142369200342 #
vertex $-1 $372 $505 #
point $-1 -9.9252425178196049 -28.815950015982391 8.5563142369200342 #
edge $-1 $468 44.483816104770064 $471 55.132051982766534 $377 $506 forward 7 unknown #
vertex $-1 $391 $507 #
straight-curve $-1 13.234111130130678 -65.567896732224 16.249960083235216 0 -1 0 I I #
edge $-1 $471 2.9151148524502446 $388 17.722877702910623 $387 $508 forward 7 unknown #
vertex $-1 $470 $509 #
straight-curve $-1 13.234111130130678 -37.309493889736061 5.601724205238753 0 0.77714595512881146 0.62932039886446345 I I #
point $-1 13.234111130130678 -24.160017952241979 16.249960083235216 #
point $-1 28.041873980591056 -37.309493889736068 5.6017242052387477 #
straight-curve $-1 0 -37.309493889736068 16.249960083235216 1 0 0 I I #
vertex $-1 $394 $510 #
point $-1 18.464900515976495 -28.815950015982391 8.5563142369200342 #
vertex $-1 $398 $511 #
point $-1 24.811084594745225 -28.815950015982391 8.5563142369200342 #
point $-1 74.54573198644978 37.309493889736068 -16.249960083235216 #
point $-1 74.54573198644978 -37.309493889736068 -16.249960083235216 #
straight-curve $-1 74.54573198644978 -37.309493889736068 0 0 0 -1 I I #
straight-curve $-1 74.54573198644978 37.309493889736068 0 0 0 -1 I I #
edge $-1 $435 -4.8240069801218866 $424 4.8240069801218866 $421 $512 forward 7 unknown #
straight-curve $-1 -95.389500787181802 -7.3460397675188887 0 0 0 -1 I I #
straight-curve $-1 -84.967616386815791 -16.994053727762662 16.249960083235216 1 0 0 I I #
point $-1 -95.389500787181802 -16.994053727762662 16.249960083235216 #
point $-1 -95.389500787181802 -16.994053727762662 -16.249960083235216 #
straight-curve $-1 -95.389500787181802 -12.170046747640775 -16.249960083235216 0 1 0 I I #
point $-1 -95.389500787181802 -7.3460397675188887 -16.249960083235216 #
point $-1 -95.389500787181802 -7.3460397675188887 16.249960083235216 #
coedge $-1 $439 $438 $444 $495 reversed $215 $-1 #
vertex $-1 $440 $513 #
straight-curve $-1 74.54573198644978 0 16.249960083235216 0 1 0 I I #
edge $-1 $493 -16.249960083235216 $496 16.249960083235216 $444 $514 forward 7 unknown #
vertex $-1 $495 $515 #
straight-curve $-1 74.54573198644978 0 -16.249960083235216 0 -1 0 I I #
straight-curve $-1 0 -37.309493889736068 -16.249960083235216 -1 0 0 I I #
straight-curve $-1 0 -37.309493889736068 16.249960083235216 1 0 0 I I #
straight-curve $-1 -21.502215982434166 -37.309493889736068 60.73377618800528 0 0 -1 I I #
point $-1 -21.502215982434166 -37.309493889736068 16.249960083235216 #
straight-curve $-1 -7.0491672786019883 -37.309493889736068 5.6017242052387459 1 0 0 I I #
point $-1 -21.502215982434166 -37.309493889736068 5.6017242052387477 #
point $-1 -17.271426596588341 -28.186629617117926 7.7791682817912191 #
point $-1 -10.925242517819605 -28.186629617117926 7.7791682817912191 #
straight-curve $-1 13.234111130130678 -37.309493889736068 60.73377618800528 0 0 -1 I I #
point $-1 13.234111130130678 -37.309493889736068 16.249960083235216 #
straight-curve $-1 10.318996277680434 -37.309493889736068 5.6017242052387459 1 0 0 I I #
point $-1 13.234111130130678 -37.309493889736068 5.6017242052387477 #
point $-1 17.464900515976495 -28.186629617117926 7.7791682817912191 #
point $-1 23.811084594745225 -28.186629617117926 7.7791682817912191 #
straight-curve $-1 -95.389500787181802 -12.170046747640775 16.249960083235216 0 -1 0 I I #
point $-1 74.54573198644978 -37.309493889736068 16.249960083235216 #
straight-curve $-1 74.54573198644978 -37.309493889736068 0 0 0 -1 I I #
point $-1 74.54573198644978 -37.309493889736068 -16.249960083235216 #
End-of-ACIS-data 