500 0 16 0           
7 Unknown 11 ACIS 5.0 NT 24 Thu Mar 25 19:17:56 1999 
-1 9.9999999999999995e-007 1e-010 
body $-1 $16 $-1 $17 #
body $-1 $18 $-1 $19 #
body $-1 $20 $-1 $21 #
body $-1 $22 $-1 $23 #
body $-1 $24 $-1 $25 #
body $-1 $26 $-1 $27 #
body $-1 $28 $-1 $29 #
body $-1 $30 $-1 $31 #
body $-1 $32 $-1 $33 #
body $-1 $34 $-1 $35 #
body $-1 $36 $-1 $37 #
body $-1 $38 $-1 $39 #
body $-1 $40 $-1 $41 #
body $-1 $42 $-1 $43 #
body $-1 $44 $-1 $45 #
body $-1 $46 $-1 $47 #
lump $-1 $-1 $48 $0 #
transform $-1 1 0 0 0 1 0 0 0 1 65.126499221778005 41.785545102970971 9.1979973668236035 1 rotate no_reflect no_shear #
lump $-1 $-1 $49 $1 #
transform $-1 1 0 0 0 1 0 0 0 1 65.126499221778005 41.785545102970971 9.1979973668236035 1 rotate no_reflect no_shear #
lump $-1 $-1 $50 $2 #
transform $-1 1 0 0 0 1 0 0 0 1 65.126499221778005 41.785545102970971 9.1979973668236035 1 rotate no_reflect no_shear #
lump $-1 $-1 $51 $3 #
transform $-1 1 0 0 0 1 0 0 0 1 65.126499221778005 41.785545102970971 9.1979973668236035 1 rotate no_reflect no_shear #
lump $-1 $-1 $52 $4 #
transform $-1 1 0 0 0 1 0 0 0 1 65.126499221778005 41.785545102970971 9.1979973668236035 1 rotate no_reflect no_shear #
lump $-1 $-1 $53 $5 #
transform $-1 1 0 0 0 1 0 0 0 1 65.126499221778005 41.785545102970971 9.1979973668236035 1 rotate no_reflect no_shear #
lump $-1 $-1 $54 $6 #
transform $-1 1 0 0 0 1 0 0 0 1 65.126499221778005 41.785545102970971 9.1979973668236035 1 rotate no_reflect no_shear #
lump $-1 $-1 $55 $7 #
transform $-1 1 0 0 0 1 0 0 0 1 65.126499221778005 41.785545102970971 9.1979973668236035 1 rotate no_reflect no_shear #
lump $-1 $-1 $56 $8 #
transform $-1 1 0 0 0 1 0 0 0 1 65.126499221778005 41.785545102970971 9.1979973668236035 1 rotate no_reflect no_shear #
lump $-1 $-1 $57 $9 #
transform $-1 1 0 0 0 1 0 0 0 1 65.126499221778005 41.785545102970971 9.1979973668236035 1 rotate no_reflect no_shear #
lump $-1 $-1 $58 $10 #
transform $-1 1 0 0 0 1 0 0 0 1 65.126499221778005 41.785545102970971 9.1979973668236035 1 rotate no_reflect no_shear #
lump $-1 $-1 $59 $11 #
transform $-1 1 0 0 0 1 0 0 0 1 65.126499221778005 41.785545102970971 9.1979973668236035 1 rotate no_reflect no_shear #
lump $-1 $-1 $60 $12 #
transform $-1 1 0 0 0 1 0 0 0 1 65.126499221778005 41.785545102970971 9.1979973668236035 1 rotate no_reflect no_shear #
lump $-1 $-1 $61 $13 #
transform $-1 1 0 0 0 1 0 0 0 1 65.126499221778005 41.785545102970971 9.1979973668236035 1 rotate no_reflect no_shear #
lump $-1 $-1 $62 $14 #
transform $-1 1 0 0 0 1 0 0 0 1 65.126499221778005 41.785545102970971 9.1979973668236035 1 rotate no_reflect no_shear #
lump $-1 $-1 $63 $15 #
transform $-1 1 0 0 0 1 0 0 0 1 65.126499221778005 41.785545102970971 9.1979973668236035 1 rotate no_reflect no_shear #
shell $-1 $-1 $-1 $64 $-1 $16 #
shell $-1 $-1 $-1 $65 $-1 $18 #
shell $-1 $-1 $-1 $66 $-1 $20 #
shell $-1 $-1 $-1 $67 $-1 $22 #
shell $-1 $-1 $-1 $68 $-1 $24 #
shell $-1 $-1 $-1 $69 $-1 $26 #
shell $-1 $-1 $-1 $70 $-1 $28 #
shell $-1 $-1 $-1 $71 $-1 $30 #
shell $-1 $-1 $-1 $72 $-1 $32 #
shell $-1 $-1 $-1 $73 $-1 $34 #
shell $-1 $-1 $-1 $74 $-1 $36 #
shell $-1 $-1 $-1 $75 $-1 $38 #
shell $-1 $-1 $-1 $76 $-1 $40 #
shell $-1 $-1 $-1 $77 $-1 $42 #
shell $-1 $-1 $-1 $78 $-1 $44 #
shell $-1 $-1 $-1 $79 $-1 $46 #
face $-1 $80 $81 $48 $-1 $82 forward single #
face $-1 $83 $84 $49 $-1 $85 reversed single #
face $-1 $86 $87 $50 $-1 $88 forward single #
face $-1 $89 $90 $51 $-1 $91 forward single #
face $-1 $92 $93 $52 $-1 $94 reversed single #
face $-1 $95 $96 $53 $-1 $97 forward single #
face $-1 $98 $99 $54 $-1 $100 forward single #
face $-1 $101 $102 $55 $-1 $103 reversed single #
face $-1 $104 $105 $56 $-1 $106 forward single #
face $-1 $107 $108 $57 $-1 $109 forward single #
face $-1 $110 $111 $58 $-1 $112 reversed single #
face $-1 $113 $114 $59 $-1 $115 forward single #
face $-1 $116 $117 $60 $-1 $118 forward single #
face $-1 $119 $120 $61 $-1 $121 reversed single #
face $-1 $122 $123 $62 $-1 $124 forward single #
face $-1 $125 $126 $63 $-1 $127 forward single #
face $-1 $128 $129 $48 $-1 $130 reversed single #
loop $-1 $-1 $131 $64 #
plane-surface $-1 0 0 9.1979973668236035 0 0 1 1 0 0 forward_v I I I I #
face $-1 $132 $133 $49 $-1 $134 reversed single #
loop $-1 $-1 $135 $65 #
plane-surface $-1 55.485927246167392 -24.106752659461613 186.12062130571528 0 -1 0 -0.66913061440640931 0 -0.74314481823134659 forward_v I I I I #
face $-1 $136 $137 $50 $-1 $138 forward single #
loop $-1 $139 $140 $66 #
cone-surface $-1 60.706768981291169 -33.779118318834016 5.110058729667097 -0.66913061440640931 0 -0.74314481823134659 0.74314481823134659 0 -0.66913061440640931 1 I I 0 1 1 forward I I I I #
face $-1 $141 $142 $51 $-1 $143 forward single #
loop $-1 $144 $145 $67 #
cone-surface $-1 60.706768981291169 -27.975698923210572 5.110058729667097 -0.66913061440640931 0 -0.74314481823134659 0.74314481823134659 0 -0.66913061440640931 1 I I 0 1 1 forward I I I I #
face $-1 $146 $147 $52 $-1 $148 reversed single #
loop $-1 $-1 $149 $68 #
plane-surface $-1 55.485927246167392 -3.5218135787800851 186.12062130571528 0 -1 0 -0.66913061440640931 0 -0.74314481823134659 forward_v I I I I #
face $-1 $150 $151 $53 $-1 $152 forward single #
loop $-1 $153 $154 $69 #
cone-surface $-1 60.706768981291169 -13.194179238152486 5.110058729667097 -0.66913061440640931 0 -0.74314481823134659 0.74314481823134659 0 -0.66913061440640931 1 I I 0 1 1 forward I I I I #
face $-1 $155 $156 $54 $-1 $157 forward single #
loop $-1 $158 $159 $70 #
cone-surface $-1 60.706768981291169 -7.3907598425290431 5.110058729667097 -0.66913061440640931 0 -0.74314481823134659 0.74314481823134659 0 -0.66913061440640931 1 I I 0 1 1 forward I I I I #
face $-1 $160 $161 $55 $-1 $162 reversed single #
loop $-1 $-1 $163 $71 #
plane-surface $-1 55.485927246167392 17.063125501901446 186.12062130571528 0 -1 0 -0.66913061440640931 0 -0.74314481823134659 forward_v I I I I #
face $-1 $164 $165 $56 $-1 $166 forward single #
loop $-1 $167 $168 $72 #
cone-surface $-1 60.706768981291169 7.3907598425290431 5.110058729667097 -0.66913061440640931 0 -0.74314481823134659 0.74314481823134659 0 -0.66913061440640931 1 I I 0 1 1 forward I I I I #
face $-1 $169 $170 $57 $-1 $171 forward single #
loop $-1 $172 $173 $73 #
cone-surface $-1 60.706768981291169 13.194179238152486 5.110058729667097 -0.66913061440640931 0 -0.74314481823134659 0.74314481823134659 0 -0.66913061440640931 1 I I 0 1 1 forward I I I I #
face $-1 $174 $175 $58 $-1 $176 reversed single #
loop $-1 $-1 $177 $74 #
plane-surface $-1 55.485927246167392 37.648064582582982 186.12062130571528 0 -1 0 -0.66913061440640931 0 -0.74314481823134659 forward_v I I I I #
face $-1 $178 $179 $59 $-1 $180 forward single #
loop $-1 $181 $182 $75 #
cone-surface $-1 60.706768981291169 27.975698923210572 5.110058729667097 -0.66913061440640931 0 -0.74314481823134659 0.74314481823134659 0 -0.66913061440640931 1 I I 0 1 1 forward I I I I #
face $-1 $183 $184 $60 $-1 $185 forward single #
loop $-1 $186 $187 $76 #
cone-surface $-1 60.706768981291169 33.779118318834023 5.110058729667097 -0.66913061440640931 0 -0.74314481823134659 0.74314481823134659 0 -0.66913061440640931 1 I I 0 1 1 forward I I I I #
face $-1 $188 $189 $61 $-1 $190 reversed single #
loop $-1 $-1 $191 $77 #
plane-surface $-1 -145.31825341477284 19.14175073133443 105.87396586931118 0 1 0 -0.61566148304635926 0 0.78801074757464917 forward_v I I I I #
face $-1 $192 $193 $62 $-1 $194 forward single #
loop $-1 $195 $196 $78 #
cone-surface $-1 -60.083857061360334 25.611406266087727 4.6472263387275037 0.61566148304635926 0 -0.78801074757464917 0.78801074757464917 0 0.61566148304635926 1 I I 0 1 1 forward I I I I #
face $-1 $197 $198 $63 $-1 $199 forward single #
loop $-1 $200 $201 $79 #
cone-surface $-1 -60.083857061360334 35.315889568217671 4.6472263387275037 0.61566148304635926 0 -0.78801074757464917 0.78801074757464917 0 0.61566148304635926 1 I I 0 1 1 forward I I I I #
face $-1 $202 $203 $48 $-1 $204 reversed single #
loop $-1 $-1 $205 $80 #
plane-surface $-1 0 0 -9.1979973668236035 0 0 1 1 0 0 forward_v I I I I #
coedge $-1 $206 $207 $208 $209 forward $81 $-1 #
face $-1 $210 $211 $49 $-1 $212 reversed single #
loop $-1 $-1 $213 $83 #
plane-surface $-1 -31.67034163064632 -30.877408621022298 89.323780453290979 0.66913061440640931 0 0.74314481823134659 0.74314481823134659 0 -0.66913061440640931 forward_v I I I I #
coedge $-1 $214 $215 $216 $217 reversed $84 $-1 #
face $-1 $-1 $218 $50 $-1 $219 forward single #
loop $-1 $220 $221 $86 #
cone-surface $-1 59.856546100624314 -33.779118318834016 4.1657905785680605 -0.66913061440640931 0 -0.74314481823134659 0.3715724091156733 0 -0.33456530720320465 1 I I -0.70710678118654746 0.70710678118654746 0.5 forward I I I I #
loop $-1 $-1 $222 $66 #
coedge $-1 $140 $140 $223 $224 reversed $87 $-1 #
face $-1 $-1 $225 $51 $-1 $226 forward single #
loop $-1 $227 $228 $89 #
cone-surface $-1 59.856546100624314 -27.975698923210572 4.1657905785680605 -0.66913061440640931 0 -0.74314481823134659 0.3715724091156733 0 -0.33456530720320465 1 I I -0.70710678118654746 0.70710678118654746 0.5 forward I I I I #
loop $-1 $-1 $229 $67 #
coedge $-1 $145 $145 $230 $231 reversed $90 $-1 #
face $-1 $232 $233 $52 $-1 $234 reversed single #
loop $-1 $-1 $235 $92 #
plane-surface $-1 -31.67034163064632 -10.292469540340768 89.323780453290979 0.66913061440640931 0 0.74314481823134659 0.74314481823134659 0 -0.66913061440640931 forward_v I I I I #
coedge $-1 $236 $237 $238 $239 reversed $93 $-1 #
face $-1 $-1 $240 $53 $-1 $241 forward single #
loop $-1 $242 $243 $95 #
cone-surface $-1 59.856546100624314 -13.194179238152486 4.1657905785680605 -0.66913061440640931 0 -0.74314481823134659 0.3715724091156733 0 -0.33456530720320465 1 I I -0.70710678118654746 0.70710678118654746 0.5 forward I I I I #
loop $-1 $-1 $244 $69 #
coedge $-1 $154 $154 $245 $246 reversed $96 $-1 #
face $-1 $-1 $247 $54 $-1 $248 forward single #
loop $-1 $249 $250 $98 #
cone-surface $-1 59.856546100624314 -7.3907598425290431 4.1657905785680605 -0.66913061440640931 0 -0.74314481823134659 0.3715724091156733 0 -0.33456530720320465 1 I I -0.70710678118654746 0.70710678118654746 0.5 forward I I I I #
loop $-1 $-1 $251 $70 #
coedge $-1 $159 $159 $252 $253 reversed $99 $-1 #
face $-1 $254 $255 $55 $-1 $256 reversed single #
loop $-1 $-1 $257 $101 #
plane-surface $-1 -31.67034163064632 10.292469540340761 89.323780453290979 0.66913061440640931 0 0.74314481823134659 0.74314481823134659 0 -0.66913061440640931 forward_v I I I I #
coedge $-1 $258 $259 $260 $261 reversed $102 $-1 #
face $-1 $-1 $262 $56 $-1 $263 forward single #
loop $-1 $264 $265 $104 #
cone-surface $-1 59.856546100624314 7.3907598425290431 4.1657905785680605 -0.66913061440640931 0 -0.74314481823134659 0.3715724091156733 0 -0.33456530720320465 1 I I -0.70710678118654746 0.70710678118654746 0.5 forward I I I I #
loop $-1 $-1 $266 $72 #
coedge $-1 $168 $168 $267 $268 reversed $105 $-1 #
face $-1 $-1 $269 $57 $-1 $270 forward single #
loop $-1 $271 $272 $107 #
cone-surface $-1 59.856546100624314 13.194179238152486 4.1657905785680605 -0.66913061440640931 0 -0.74314481823134659 0.3715724091156733 0 -0.33456530720320465 1 I I -0.70710678118654746 0.70710678118654746 0.5 forward I I I I #
loop $-1 $-1 $273 $73 #
coedge $-1 $173 $173 $274 $275 reversed $108 $-1 #
face $-1 $276 $277 $58 $-1 $278 reversed single #
loop $-1 $-1 $279 $110 #
plane-surface $-1 -31.67034163064632 30.877408621022298 89.323780453290979 0.66913061440640931 0 0.74314481823134659 0.74314481823134659 0 -0.66913061440640931 forward_v I I I I #
coedge $-1 $280 $281 $282 $283 reversed $111 $-1 #
face $-1 $-1 $284 $59 $-1 $285 forward single #
loop $-1 $286 $287 $113 #
cone-surface $-1 59.856546100624314 27.975698923210572 4.1657905785680605 -0.66913061440640931 0 -0.74314481823134659 0.3715724091156733 0 -0.33456530720320465 1 I I -0.70710678118654746 0.70710678118654746 0.5 forward I I I I #
loop $-1 $-1 $288 $75 #
coedge $-1 $182 $182 $289 $290 reversed $114 $-1 #
face $-1 $-1 $291 $60 $-1 $292 forward single #
loop $-1 $293 $294 $116 #
cone-surface $-1 59.856546100624314 33.779118318834023 4.1657905785680605 -0.66913061440640931 0 -0.74314481823134659 0.3715724091156733 0 -0.33456530720320465 1 I I -0.70710678118654746 0.70710678118654746 0.5 forward I I I I #
loop $-1 $-1 $295 $76 #
coedge $-1 $187 $187 $296 $297 reversed $117 $-1 #
face $-1 $298 $299 $61 $-1 $300 forward single #
loop $-1 $-1 $301 $119 #
plane-surface $-1 -65.126499221778019 30.463647917152699 3.2332031919649893 -0.61566148304635926 0 0.78801074757464917 0.78801074757464917 0 0.61566148304635926 forward_v I I I I #
coedge $-1 $302 $303 $304 $305 reversed $120 $-1 #
face $-1 $-1 $306 $62 $-1 $307 forward single #
loop $-1 $308 $309 $122 #
cone-surface $-1 -58.550678278260222 25.611406266087727 2.6848470242734006 0.61566148304635926 0 -0.78801074757464917 0.39400537378732459 0 0.30783074152317963 1 I I -0.70710678118654779 0.70710678118654713 0.5 forward I I I I #
loop $-1 $-1 $310 $78 #
coedge $-1 $196 $196 $311 $312 reversed $123 $-1 #
face $-1 $-1 $313 $63 $-1 $314 forward single #
loop $-1 $315 $316 $125 #
cone-surface $-1 -58.550678278260222 35.315889568217671 2.6848470242734006 0.61566148304635926 0 -0.78801074757464917 0.39400537378732459 0 0.30783074152317963 1 I I -0.70710678118654779 0.70710678118654713 0.5 forward I I I I #
loop $-1 $-1 $317 $79 #
coedge $-1 $201 $201 $318 $319 reversed $126 $-1 #
face $-1 $320 $321 $48 $-1 $322 reversed single #
loop $-1 $-1 $323 $128 #
plane-surface $-1 0 -41.785545102970971 0 0 1 0 0 0 1 forward_v I I I I #
coedge $-1 $324 $325 $326 $327 forward $129 $-1 #
coedge $-1 $328 $131 $329 $330 forward $81 $-1 #
coedge $-1 $131 $328 $331 $332 forward $81 $-1 #
coedge $-1 $333 $334 $131 $209 reversed $335 $-1 #
edge $-1 $336 -41.785545102970971 $337 41.785545102970971 $208 $338 forward 7 unknown #
face $-1 $339 $340 $49 $-1 $341 forward single #
loop $-1 $-1 $342 $132 #
plane-surface $-1 55.485927246167392 -37.648064582582982 186.12062130571528 0 1 0 0.66913061440640931 0 0.74314481823134659 forward_v I I I I #
coedge $-1 $343 $344 $345 $346 reversed $133 $-1 #
coedge $-1 $215 $135 $347 $348 reversed $84 $-1 #
coedge $-1 $135 $214 $343 $349 reversed $84 $-1 #
coedge $-1 $345 $350 $135 $217 forward $340 $-1 #
edge $-1 $351 -37.383535598694309 $352 -29.575390264647908 $216 $353 forward 7 unknown #
loop $-1 $-1 $223 $136 #
plane-surface $-1 -31.67034163064632 -30.877408621022298 89.323780453290979 0.66913061440640931 0 0.74314481823134659 0.74314481823134659 0 -0.66913061440640931 forward_v I I I I #
loop $-1 $-1 $354 $86 #
coedge $-1 $221 $221 $222 $355 reversed $137 $-1 #
coedge $-1 $222 $222 $221 $355 forward $139 $-1 #
coedge $-1 $223 $223 $140 $224 forward $218 $-1 #
edge $-1 $356 0 $356 6.2831853071796004 $223 $357 forward 7 unknown #
loop $-1 $-1 $230 $141 #
plane-surface $-1 -31.67034163064632 -30.877408621022298 89.323780453290979 0.66913061440640931 0 0.74314481823134659 0.74314481823134659 0 -0.66913061440640931 forward_v I I I I #
loop $-1 $-1 $358 $89 #
coedge $-1 $228 $228 $229 $359 reversed $142 $-1 #
coedge $-1 $229 $229 $228 $359 forward $144 $-1 #
coedge $-1 $230 $230 $145 $231 forward $225 $-1 #
edge $-1 $360 0 $360 6.2831853071796004 $230 $361 forward 7 unknown #
face $-1 $362 $363 $52 $-1 $364 reversed single #
loop $-1 $-1 $365 $146 #
plane-surface $-1 55.485927246167392 -17.063125501901453 186.12062130571528 0 1 0 0.66913061440640931 0 0.74314481823134659 forward_v I I I I #
coedge $-1 $366 $367 $368 $369 reversed $147 $-1 #
coedge $-1 $237 $149 $370 $371 reversed $93 $-1 #
coedge $-1 $149 $236 $366 $372 reversed $93 $-1 #
coedge $-1 $368 $373 $149 $239 forward $374 $-1 #
edge $-1 $375 -37.383535598694309 $376 -29.575390264647908 $238 $377 forward 7 unknown #
loop $-1 $-1 $245 $150 #
plane-surface $-1 -31.67034163064632 -10.292469540340768 89.323780453290979 0.66913061440640931 0 0.74314481823134659 0.74314481823134659 0 -0.66913061440640931 forward_v I I I I #
loop $-1 $-1 $378 $95 #
coedge $-1 $243 $243 $244 $379 reversed $151 $-1 #
coedge $-1 $244 $244 $243 $379 forward $153 $-1 #
coedge $-1 $245 $245 $154 $246 forward $240 $-1 #
edge $-1 $380 0 $380 6.2831853071796004 $245 $381 forward 7 unknown #
loop $-1 $-1 $252 $155 #
plane-surface $-1 -31.67034163064632 -10.292469540340768 89.323780453290979 0.66913061440640931 0 0.74314481823134659 0.74314481823134659 0 -0.66913061440640931 forward_v I I I I #
loop $-1 $-1 $382 $98 #
coedge $-1 $250 $250 $251 $383 reversed $156 $-1 #
coedge $-1 $251 $251 $250 $383 forward $158 $-1 #
coedge $-1 $252 $252 $159 $253 forward $247 $-1 #
edge $-1 $384 0 $384 6.2831853071796004 $252 $385 forward 7 unknown #
face $-1 $386 $387 $55 $-1 $388 reversed single #
loop $-1 $-1 $389 $160 #
plane-surface $-1 55.485927246167392 3.5218135787800779 186.12062130571528 0 1 0 0.66913061440640931 0 0.74314481823134659 forward_v I I I I #
coedge $-1 $390 $391 $392 $393 reversed $161 $-1 #
coedge $-1 $259 $163 $394 $395 reversed $102 $-1 #
coedge $-1 $163 $258 $390 $396 reversed $102 $-1 #
coedge $-1 $392 $397 $163 $261 forward $398 $-1 #
edge $-1 $399 -37.383535598694309 $400 -29.575390264647908 $260 $401 forward 7 unknown #
loop $-1 $-1 $267 $164 #
plane-surface $-1 -31.67034163064632 10.292469540340761 89.323780453290979 0.66913061440640931 0 0.74314481823134659 0.74314481823134659 0 -0.66913061440640931 forward_v I I I I #
loop $-1 $-1 $402 $104 #
coedge $-1 $265 $265 $266 $403 reversed $165 $-1 #
coedge $-1 $266 $266 $265 $403 forward $167 $-1 #
coedge $-1 $267 $267 $168 $268 forward $262 $-1 #
edge $-1 $404 0 $404 6.2831853071796004 $267 $405 forward 7 unknown #
loop $-1 $-1 $274 $169 #
plane-surface $-1 -31.67034163064632 10.292469540340761 89.323780453290979 0.66913061440640931 0 0.74314481823134659 0.74314481823134659 0 -0.66913061440640931 forward_v I I I I #
loop $-1 $-1 $406 $107 #
coedge $-1 $272 $272 $273 $407 reversed $170 $-1 #
coedge $-1 $273 $273 $272 $407 forward $172 $-1 #
coedge $-1 $274 $274 $173 $275 forward $269 $-1 #
edge $-1 $408 0 $408 6.2831853071796004 $274 $409 forward 7 unknown #
face $-1 $410 $411 $58 $-1 $412 reversed single #
loop $-1 $-1 $413 $174 #
plane-surface $-1 55.485927246167392 24.106752659461613 186.12062130571528 0 1 0 0.66913061440640931 0 0.74314481823134659 forward_v I I I I #
coedge $-1 $414 $415 $416 $417 reversed $175 $-1 #
coedge $-1 $281 $177 $418 $419 reversed $111 $-1 #
coedge $-1 $177 $280 $414 $420 reversed $111 $-1 #
coedge $-1 $416 $421 $177 $283 forward $422 $-1 #
edge $-1 $423 -37.383535598694309 $424 -29.575390264647908 $282 $425 forward 7 unknown #
loop $-1 $-1 $289 $178 #
plane-surface $-1 -31.67034163064632 30.877408621022298 89.323780453290979 0.66913061440640931 0 0.74314481823134659 0.74314481823134659 0 -0.66913061440640931 forward_v I I I I #
loop $-1 $-1 $426 $113 #
coedge $-1 $287 $287 $288 $427 reversed $179 $-1 #
coedge $-1 $288 $288 $287 $427 forward $181 $-1 #
coedge $-1 $289 $289 $182 $290 forward $284 $-1 #
edge $-1 $428 0 $428 6.2831853071796004 $289 $429 forward 7 unknown #
loop $-1 $-1 $296 $183 #
plane-surface $-1 -31.67034163064632 30.877408621022298 89.323780453290979 0.66913061440640931 0 0.74314481823134659 0.74314481823134659 0 -0.66913061440640931 forward_v I I I I #
loop $-1 $-1 $430 $116 #
coedge $-1 $294 $294 $295 $431 reversed $184 $-1 #
coedge $-1 $295 $295 $294 $431 forward $186 $-1 #
coedge $-1 $296 $296 $187 $297 forward $291 $-1 #
edge $-1 $432 0 $432 6.2831853071796004 $296 $433 forward 7 unknown #
face $-1 $434 $435 $61 $-1 $436 reversed single #
loop $-1 $-1 $304 $188 #
plane-surface $-1 0 0 9.1979973668236035 0 0 1 1 0 0 forward_v I I I I #
coedge $-1 $437 $438 $439 $440 reversed $189 $-1 #
coedge $-1 $303 $191 $441 $442 reversed $120 $-1 #
coedge $-1 $191 $302 $437 $443 reversed $120 $-1 #
coedge $-1 $439 $444 $191 $305 forward $299 $-1 #
edge $-1 $445 7.5326274856084154 $446 15.167215723289843 $304 $447 forward 7 unknown #
loop $-1 $-1 $311 $192 #
plane-surface $-1 -65.126499221778019 30.463647917152699 3.2332031919649893 -0.61566148304635926 0 0.78801074757464917 0.78801074757464917 0 0.61566148304635926 forward_v I I I I #
loop $-1 $-1 $448 $122 #
coedge $-1 $309 $309 $310 $449 reversed $193 $-1 #
coedge $-1 $310 $310 $309 $449 forward $195 $-1 #
coedge $-1 $311 $311 $196 $312 forward $306 $-1 #
edge $-1 $450 0 $450 6.2831853071796004 $311 $451 forward 7 unknown #
loop $-1 $-1 $318 $197 #
plane-surface $-1 -65.126499221778019 30.463647917152699 3.2332031919649893 -0.61566148304635926 0 0.78801074757464917 0.78801074757464917 0 0.61566148304635926 forward_v I I I I #
loop $-1 $-1 $452 $125 #
coedge $-1 $316 $316 $317 $453 reversed $198 $-1 #
coedge $-1 $317 $317 $316 $453 forward $200 $-1 #
coedge $-1 $318 $318 $201 $319 forward $313 $-1 #
edge $-1 $454 0 $454 6.2831853071796004 $318 $455 forward 7 unknown #
face $-1 $456 $457 $48 $-1 $458 reversed single #
loop $-1 $-1 $459 $202 #
plane-surface $-1 -65.126499221778005 0 0 1 0 0 0 0 -1 forward_v I I I I #
coedge $-1 $460 $331 $461 $462 forward $203 $-1 #
coedge $-1 $463 $205 $460 $464 forward $129 $-1 #
coedge $-1 $205 $463 $465 $466 forward $129 $-1 #
coedge $-1 $334 $333 $205 $327 reversed $335 $-1 #
edge $-1 $467 -41.785545102970971 $468 41.785545102970971 $326 $469 forward 7 unknown #
coedge $-1 $207 $206 $470 $471 forward $81 $-1 #
coedge $-1 $472 $473 $206 $330 reversed $457 $-1 #
edge $-1 $337 -65.126499221778005 $474 65.126499221778005 $329 $475 forward 7 unknown #
coedge $-1 $323 $476 $207 $332 reversed $203 $-1 #
edge $-1 $477 -65.126499221778005 $336 65.126499221778005 $331 $478 forward 7 unknown #
coedge $-1 $326 $208 $476 $479 forward $335 $-1 #
coedge $-1 $208 $326 $472 $480 reversed $335 $-1 #
loop $-1 $-1 $333 $456 #
vertex $-1 $209 $481 #
vertex $-1 $209 $482 #
straight-curve $-1 65.126499221778005 0 9.1979973668236035 0 1 0 I I #
face $-1 $-1 $483 $49 $-1 $484 reversed single #
loop $-1 $-1 $216 $210 #
plane-surface $-1 0 0 9.1979973668236035 0 0 1 1 0 0 forward_v I I I I #
coedge $-1 $485 $486 $487 $488 reversed $211 $-1 #
coedge $-1 $489 $213 $215 $349 forward $133 $-1 #
coedge $-1 $213 $489 $485 $490 forward $133 $-1 #
coedge $-1 $487 $216 $213 $346 forward $340 $-1 #
edge $-1 $352 8.6680483489504638 $491 22.209360272071834 $345 $492 forward 7 unknown #
coedge $-1 $493 $494 $214 $348 forward $483 $-1 #
edge $-1 $495 -90.892799076380385 $351 -83.862313286034038 $347 $496 forward 7 unknown #
edge $-1 $352 119.74610242209221 $495 130.25299844355604 $215 $497 forward 7 unknown #
coedge $-1 $216 $487 $493 $498 forward $340 $-1 #
vertex $-1 $348 $499 #
vertex $-1 $217 $500 #
straight-curve $-1 27.742963623083696 -24.106752659461613 9.1979973668235999 -1 0 0 I I #
coedge $-1 $354 $354 $-1 $501 reversed $220 $-1 #
edge $-1 $502 0 $502 6.2831853071796004 $221 $503 forward 7 unknown #
vertex $-1 $224 $504 #
ellipse-curve $-1 61.22242655475479 -33.779118318834016 5.6827544716504272 0.66913061440640931 0 0.74314481823134659 0.74314481823134659 0 -0.66913061440640931 1 I I #
coedge $-1 $358 $358 $-1 $505 reversed $227 $-1 #
edge $-1 $506 0 $506 6.2831853071796004 $228 $507 forward 7 unknown #
vertex $-1 $231 $508 #
ellipse-curve $-1 61.22242655475479 -27.975698923210572 5.6827544716504272 0.66913061440640931 0 0.74314481823134659 0.74314481823134659 0 -0.66913061440640931 1 I I #
face $-1 $-1 $374 $52 $-1 $509 forward single #
loop $-1 $-1 $510 $232 #
plane-surface $-1 65.126499221778005 0 0 -1 0 0 0 0 1 forward_v I I I I #
coedge $-1 $511 $512 $513 $514 reversed $233 $-1 #
coedge $-1 $515 $235 $237 $372 forward $147 $-1 #
coedge $-1 $235 $515 $511 $516 forward $147 $-1 #
coedge $-1 $513 $238 $235 $369 forward $374 $-1 #
edge $-1 $376 -1.6244211913902991 $517 11.916890731731069 $368 $518 forward 7 unknown #
coedge $-1 $519 $520 $236 $371 forward $363 $-1 #
edge $-1 $521 -90.892799076380385 $375 -83.862313286034038 $370 $522 forward 7 unknown #
edge $-1 $376 119.74610242209221 $521 130.25299844355604 $237 $523 forward 7 unknown #
coedge $-1 $238 $513 $519 $524 forward $374 $-1 #
loop $-1 $-1 $513 $362 #
vertex $-1 $371 $525 #
vertex $-1 $239 $526 #
straight-curve $-1 27.742963623083696 -3.5218135787800851 9.1979973668235999 -1 0 0 I I #
coedge $-1 $378 $378 $-1 $527 reversed $242 $-1 #
edge $-1 $528 0 $528 6.2831853071796004 $243 $529 forward 7 unknown #
vertex $-1 $246 $530 #
ellipse-curve $-1 61.22242655475479 -13.194179238152486 5.6827544716504272 0.66913061440640931 0 0.74314481823134659 0.74314481823134659 0 -0.66913061440640931 1 I I #
coedge $-1 $382 $382 $-1 $531 reversed $249 $-1 #
edge $-1 $532 0 $532 6.2831853071796004 $250 $533 forward 7 unknown #
vertex $-1 $253 $534 #
ellipse-curve $-1 61.22242655475479 -7.3907598425290431 5.6827544716504272 0.66913061440640931 0 0.74314481823134659 0.74314481823134659 0 -0.66913061440640931 1 I I #
face $-1 $-1 $398 $55 $-1 $535 forward single #
loop $-1 $-1 $536 $254 #
plane-surface $-1 65.126499221778005 0 0 -1 0 0 0 0 1 forward_v I I I I #
coedge $-1 $537 $538 $539 $540 reversed $255 $-1 #
coedge $-1 $541 $257 $259 $396 forward $161 $-1 #
coedge $-1 $257 $541 $537 $542 forward $161 $-1 #
coedge $-1 $539 $260 $257 $393 forward $398 $-1 #
edge $-1 $400 -11.916890731731066 $543 1.6244211913903026 $392 $544 forward 7 unknown #
coedge $-1 $545 $546 $258 $395 forward $387 $-1 #
edge $-1 $547 -90.892799076380385 $399 -83.862313286034038 $394 $548 forward 7 unknown #
edge $-1 $400 119.74610242209221 $547 130.25299844355604 $259 $549 forward 7 unknown #
coedge $-1 $260 $539 $545 $550 forward $398 $-1 #
loop $-1 $-1 $539 $386 #
vertex $-1 $395 $551 #
vertex $-1 $261 $552 #
straight-curve $-1 27.742963623083696 17.063125501901446 9.1979973668235999 -1 0 0 I I #
coedge $-1 $402 $402 $-1 $553 reversed $264 $-1 #
edge $-1 $554 0 $554 6.2831853071796004 $265 $555 forward 7 unknown #
vertex $-1 $268 $556 #
ellipse-curve $-1 61.22242655475479 7.3907598425290431 5.6827544716504272 0.66913061440640931 0 0.74314481823134659 0.74314481823134659 0 -0.66913061440640931 1 I I #
coedge $-1 $406 $406 $-1 $557 reversed $271 $-1 #
edge $-1 $558 0 $558 6.2831853071796004 $272 $559 forward 7 unknown #
vertex $-1 $275 $560 #
ellipse-curve $-1 61.22242655475479 13.194179238152486 5.6827544716504272 0.66913061440640931 0 0.74314481823134659 0.74314481823134659 0 -0.66913061440640931 1 I I #
face $-1 $-1 $422 $58 $-1 $561 forward single #
loop $-1 $-1 $562 $276 #
plane-surface $-1 65.126499221778005 0 0 -1 0 0 0 0 1 forward_v I I I I #
coedge $-1 $563 $564 $565 $566 reversed $277 $-1 #
coedge $-1 $567 $279 $281 $420 forward $175 $-1 #
coedge $-1 $279 $567 $563 $568 forward $175 $-1 #
coedge $-1 $565 $282 $279 $417 forward $422 $-1 #
edge $-1 $424 -22.209360272071834 $569 -8.6680483489504638 $416 $570 forward 7 unknown #
coedge $-1 $571 $572 $280 $419 forward $411 $-1 #
edge $-1 $573 -90.892799076380385 $423 -83.862313286034038 $418 $574 forward 7 unknown #
edge $-1 $424 119.74610242209221 $573 130.25299844355604 $281 $575 forward 7 unknown #
coedge $-1 $282 $565 $571 $576 forward $422 $-1 #
loop $-1 $-1 $565 $410 #
vertex $-1 $419 $577 #
vertex $-1 $283 $578 #
straight-curve $-1 27.742963623083696 37.648064582582982 9.1979973668235999 -1 0 0 I I #
coedge $-1 $426 $426 $-1 $579 reversed $286 $-1 #
edge $-1 $580 0 $580 6.2831853071796004 $287 $581 forward 7 unknown #
vertex $-1 $290 $582 #
ellipse-curve $-1 61.22242655475479 27.975698923210572 5.6827544716504272 0.66913061440640931 0 0.74314481823134659 0.74314481823134659 0 -0.66913061440640931 1 I I #
coedge $-1 $430 $430 $-1 $583 reversed $293 $-1 #
edge $-1 $584 0 $584 6.2831853071796004 $294 $585 forward 7 unknown #
vertex $-1 $297 $586 #
ellipse-curve $-1 61.22242655475479 33.779118318834023 5.6827544716504272 0.66913061440640931 0 0.74314481823134659 0.74314481823134659 0 -0.66913061440640931 1 I I #
face $-1 $-1 $587 $61 $-1 $588 reversed single #
loop $-1 $-1 $589 $298 #
plane-surface $-1 0 41.785545102970971 0 0 -1 0 0 0 -1 forward_v I I I I #
coedge $-1 $590 $301 $303 $443 forward $189 $-1 #
coedge $-1 $301 $590 $589 $591 reversed $189 $-1 #
coedge $-1 $592 $304 $301 $440 forward $299 $-1 #
edge $-1 $446 3.9099267727580802 $593 26.553721144394622 $439 $594 forward 7 unknown #
coedge $-1 $595 $596 $302 $442 forward $587 $-1 #
edge $-1 $597 -49.703779742690585 $445 -43.738985567831989 $441 $598 forward 7 unknown #
edge $-1 $446 -9.6884316123597145 $597 -1.8033521786330445e-014 $303 $599 forward 7 unknown #
coedge $-1 $304 $592 $595 $600 forward $299 $-1 #
vertex $-1 $442 $601 #
vertex $-1 $305 $602 #
straight-curve $-1 -72.65912670738642 19.14175073133443 9.197997366823607 1 0 0 I I #
coedge $-1 $448 $448 $-1 $603 reversed $308 $-1 #
edge $-1 $604 0 $604 6.2831853071796004 $309 $605 forward 7 unknown #
vertex $-1 $312 $606 #
ellipse-curve $-1 -61.309205102937284 25.611406266087727 6.2156002793943053 -0.61566148304635926 0 0.78801074757464917 0.78801074757464917 0 0.61566148304635926 1 I I #
coedge $-1 $452 $452 $-1 $607 reversed $315 $-1 #
edge $-1 $608 0 $608 6.2831853071796004 $316 $609 forward 7 unknown #
vertex $-1 $319 $610 #
ellipse-curve $-1 -61.309205102937284 35.315889568217671 6.2156002793943053 -0.61566148304635926 0 0.78801074757464917 0.78801074757464917 0 0.61566148304635926 1 I I #
face $-1 $-1 $335 $48 $-1 $611 reversed single #
loop $-1 $-1 $472 $320 #
plane-surface $-1 0 41.785545102970971 0 0 -1 0 0 0 -1 forward_v I I I I #
coedge $-1 $612 $470 $473 $613 forward $321 $-1 #
coedge $-1 $476 $323 $324 $464 reversed $203 $-1 #
coedge $-1 $470 $612 $323 $462 reversed $321 $-1 #
edge $-1 $477 -9.1979973668236035 $614 9.1979973668236035 $461 $615 forward 7 unknown #
coedge $-1 $325 $324 $612 $616 forward $129 $-1 #
edge $-1 $468 -65.126499221778005 $614 65.126499221778005 $460 $617 forward 7 unknown #
coedge $-1 $473 $472 $325 $466 reversed $457 $-1 #
edge $-1 $618 -65.126499221778005 $467 65.126499221778005 $465 $619 forward 7 unknown #
vertex $-1 $327 $620 #
vertex $-1 $479 $621 #
straight-curve $-1 65.126499221778005 0 -9.1979973668236035 0 -1 0 I I #
coedge $-1 $459 $461 $328 $471 reversed $321 $-1 #
edge $-1 $474 -41.785545102970971 $477 41.785545102970971 $470 $622 forward 7 unknown #
coedge $-1 $465 $329 $334 $480 forward $457 $-1 #
coedge $-1 $329 $465 $459 $613 reversed $457 $-1 #
vertex $-1 $330 $623 #
straight-curve $-1 0 41.785545102970971 9.1979973668236035 -1 0 0 I I #
coedge $-1 $331 $460 $333 $479 reversed $203 $-1 #
vertex $-1 $471 $624 #
straight-curve $-1 0 -41.785545102970971 9.1979973668236035 1 0 0 I I #
edge $-1 $336 -9.1979973668236035 $468 9.1979973668236035 $333 $625 forward 7 unknown #
edge $-1 $337 -9.1979973668236035 $467 9.1979973668236035 $334 $626 forward 7 unknown #
point $-1 65.126499221778005 -41.785545102970971 9.1979973668236035 #
point $-1 65.126499221778005 41.785545102970971 9.1979973668236035 #
loop $-1 $-1 $347 $339 #
plane-surface $-1 65.126499221778005 0 0 -1 0 0 0 0 1 forward_v I I I I #
coedge $-1 $486 $342 $344 $490 reversed $211 $-1 #
coedge $-1 $342 $485 $627 $628 reversed $211 $-1 #
coedge $-1 $350 $345 $342 $488 forward $340 $-1 #
edge $-1 $491 29.575390264647908 $629 37.383535598694309 $487 $630 forward 7 unknown #
coedge $-1 $344 $343 $494 $631 reversed $133 $-1 #
edge $-1 $632 -130.25299844355604 $491 -119.74610242209221 $485 $633 forward 7 unknown #
vertex $-1 $346 $634 #
straight-curve $-1 57.318353887731618 -15.438704310511149 9.1979973668235857 0 -1 0 I I #
coedge $-1 $627 $347 $350 $498 reversed $483 $-1 #
coedge $-1 $347 $627 $489 $631 forward $483 $-1 #
vertex $-1 $348 $635 #
straight-curve $-1 65.126499221778005 -24.106752659461613 93.060310652857638 0 0 1 I I #
straight-curve $-1 -31.67034163064632 -24.106752659461613 89.323780453290979 0.74314481823134659 0 -0.66913061440640931 I I #
edge $-1 $629 -37.648064582582982 $351 -24.106752659461613 $493 $636 forward 7 unknown #
point $-1 65.126499221778005 -24.106752659461613 9.1979973668236035 #
point $-1 57.318353887731604 -24.106752659461613 9.1979973668235999 #
edge $-1 $637 1 $637 0 $354 $-1 forward 7 unknown #
vertex $-1 $355 $638 #
ellipse-curve $-1 60.19111140782752 -33.779118318834016 4.5373629876837338 0.66913061440640931 0 0.74314481823134659 0.74314481823134659 0 -0.66913061440640931 1 I I #
point $-1 61.965571372986169 -33.779118318834016 5.0136238572440508 #
edge $-1 $639 1 $639 0 $358 $-1 forward 7 unknown #
vertex $-1 $359 $640 #
ellipse-curve $-1 60.19111140782752 -27.975698923210572 4.5373629876837338 0.66913061440640931 0 0.74314481823134659 0.74314481823134659 0 -0.66913061440640931 1 I I #
point $-1 61.965571372986169 -27.975698923210572 5.0136238572440508 #
plane-surface $-1 0 0 9.1979973668236035 0 0 1 1 0 0 forward_v I I I I #
coedge $-1 $520 $519 $512 $641 forward $363 $-1 #
coedge $-1 $512 $365 $367 $516 reversed $233 $-1 #
coedge $-1 $365 $511 $510 $641 reversed $233 $-1 #
coedge $-1 $373 $368 $365 $514 forward $374 $-1 #
edge $-1 $517 29.575390264647908 $642 37.383535598694309 $513 $643 forward 7 unknown #
coedge $-1 $367 $366 $520 $644 reversed $147 $-1 #
edge $-1 $645 -130.25299844355604 $517 -119.74610242209221 $511 $646 forward 7 unknown #
vertex $-1 $369 $647 #
straight-curve $-1 57.318353887731618 -5.1462347701703841 9.1979973668235857 0 -1 0 I I #
coedge $-1 $510 $370 $373 $524 reversed $363 $-1 #
coedge $-1 $370 $510 $515 $644 forward $363 $-1 #
vertex $-1 $371 $648 #
straight-curve $-1 65.126499221778005 -3.5218135787800851 93.060310652857638 0 0 1 I I #
straight-curve $-1 -31.67034163064632 -3.5218135787800851 89.323780453290979 0.74314481823134659 0 -0.66913061440640931 I I #
edge $-1 $642 -17.063125501901453 $375 -3.5218135787800851 $519 $649 forward 7 unknown #
point $-1 65.126499221778005 -3.5218135787800851 9.1979973668236035 #
point $-1 57.318353887731604 -3.5218135787800851 9.1979973668235999 #
edge $-1 $650 1 $650 0 $378 $-1 forward 7 unknown #
vertex $-1 $379 $651 #
ellipse-curve $-1 60.19111140782752 -13.194179238152486 4.5373629876837338 0.66913061440640931 0 0.74314481823134659 0.74314481823134659 0 -0.66913061440640931 1 I I #
point $-1 61.965571372986169 -13.194179238152486 5.0136238572440508 #
edge $-1 $652 1 $652 0 $382 $-1 forward 7 unknown #
vertex $-1 $383 $653 #
ellipse-curve $-1 60.19111140782752 -7.3907598425290431 4.5373629876837338 0.66913061440640931 0 0.74314481823134659 0.74314481823134659 0 -0.66913061440640931 1 I I #
point $-1 61.965571372986169 -7.3907598425290431 5.0136238572440508 #
plane-surface $-1 0 0 9.1979973668236035 0 0 1 1 0 0 forward_v I I I I #
coedge $-1 $546 $545 $538 $654 forward $387 $-1 #
coedge $-1 $538 $389 $391 $542 reversed $255 $-1 #
coedge $-1 $389 $537 $536 $654 reversed $255 $-1 #
coedge $-1 $397 $392 $389 $540 forward $398 $-1 #
edge $-1 $543 29.575390264647908 $655 37.383535598694309 $539 $656 forward 7 unknown #
coedge $-1 $391 $390 $546 $657 reversed $161 $-1 #
edge $-1 $658 -130.25299844355604 $543 -119.74610242209221 $537 $659 forward 7 unknown #
vertex $-1 $393 $660 #
straight-curve $-1 57.318353887731618 5.1462347701703806 9.1979973668235857 0 -1 0 I I #
coedge $-1 $536 $394 $397 $550 reversed $387 $-1 #
coedge $-1 $394 $536 $541 $657 forward $387 $-1 #
vertex $-1 $395 $661 #
straight-curve $-1 65.126499221778005 17.063125501901446 93.060310652857638 0 0 1 I I #
straight-curve $-1 -31.67034163064632 17.063125501901446 89.323780453290979 0.74314481823134659 0 -0.66913061440640931 I I #
edge $-1 $655 3.5218135787800779 $399 17.063125501901446 $545 $662 forward 7 unknown #
point $-1 65.126499221778005 17.063125501901446 9.1979973668236035 #
point $-1 57.318353887731604 17.063125501901446 9.1979973668235999 #
edge $-1 $663 1 $663 0 $402 $-1 forward 7 unknown #
vertex $-1 $403 $664 #
ellipse-curve $-1 60.19111140782752 7.3907598425290431 4.5373629876837338 0.66913061440640931 0 0.74314481823134659 0.74314481823134659 0 -0.66913061440640931 1 I I #
point $-1 61.965571372986169 7.3907598425290431 5.0136238572440508 #
edge $-1 $665 1 $665 0 $406 $-1 forward 7 unknown #
vertex $-1 $407 $666 #
ellipse-curve $-1 60.19111140782752 13.194179238152486 4.5373629876837338 0.66913061440640931 0 0.74314481823134659 0.74314481823134659 0 -0.66913061440640931 1 I I #
point $-1 61.965571372986169 13.194179238152486 5.0136238572440508 #
plane-surface $-1 0 0 9.1979973668236035 0 0 1 1 0 0 forward_v I I I I #
coedge $-1 $572 $571 $564 $667 forward $411 $-1 #
coedge $-1 $564 $413 $415 $568 reversed $277 $-1 #
coedge $-1 $413 $563 $562 $667 reversed $277 $-1 #
coedge $-1 $421 $416 $413 $566 forward $422 $-1 #
edge $-1 $569 29.575390264647908 $668 37.383535598694309 $565 $669 forward 7 unknown #
coedge $-1 $415 $414 $572 $670 reversed $175 $-1 #
edge $-1 $671 -130.25299844355604 $569 -119.74610242209221 $563 $672 forward 7 unknown #
vertex $-1 $417 $673 #
straight-curve $-1 57.318353887731618 15.438704310511149 9.1979973668235857 0 -1 0 I I #
coedge $-1 $562 $418 $421 $576 reversed $411 $-1 #
coedge $-1 $418 $562 $567 $670 forward $411 $-1 #
vertex $-1 $419 $674 #
straight-curve $-1 65.126499221778005 37.648064582582982 93.060310652857638 0 0 1 I I #
straight-curve $-1 -31.67034163064632 37.648064582582982 89.323780453290979 0.74314481823134659 0 -0.66913061440640931 I I #
edge $-1 $668 24.106752659461613 $423 37.648064582582982 $571 $675 forward 7 unknown #
point $-1 65.126499221778005 37.648064582582982 9.1979973668236035 #
point $-1 57.318353887731604 37.648064582582982 9.1979973668235999 #
edge $-1 $676 1 $676 0 $426 $-1 forward 7 unknown #
vertex $-1 $427 $677 #
ellipse-curve $-1 60.19111140782752 27.975698923210572 4.5373629876837338 0.66913061440640931 0 0.74314481823134659 0.74314481823134659 0 -0.66913061440640931 1 I I #
point $-1 61.965571372986169 27.975698923210572 5.0136238572440508 #
edge $-1 $678 1 $678 0 $430 $-1 forward 7 unknown #
vertex $-1 $431 $679 #
ellipse-curve $-1 60.19111140782752 33.779118318834023 4.5373629876837338 0.66913061440640931 0 0.74314481823134659 0.74314481823134659 0 -0.66913061440640931 1 I I #
point $-1 61.965571372986169 33.779118318834023 5.0136238572440508 #
loop $-1 $-1 $441 $434 #
plane-surface $-1 -65.126499221778005 0 0 1 0 0 0 0 -1 forward_v I I I I #
coedge $-1 $680 $681 $438 $591 forward $435 $-1 #
coedge $-1 $438 $437 $596 $682 reversed $189 $-1 #
edge $-1 $593 14.976479720899146 $683 24.664911333258843 $589 $684 forward 7 unknown #
coedge $-1 $444 $439 $681 $685 forward $299 $-1 #
vertex $-1 $685 $686 #
straight-curve $-1 -57.49191098409657 15.231823958576349 9.1979973668236017 0 1 0 I I #
coedge $-1 $687 $441 $444 $600 reversed $587 $-1 #
coedge $-1 $441 $687 $590 $682 forward $587 $-1 #
vertex $-1 $442 $688 #
straight-curve $-1 -65.126499221778005 19.14175073133443 52.936982934655589 0 0 1 I I #
straight-curve $-1 -65.126499221778019 19.14175073133443 3.2332031919649893 -0.78801074757464917 0 -0.61566148304635926 I I #
edge $-1 $689 -41.785545102970971 $445 -19.14175073133443 $595 $690 forward 7 unknown #
point $-1 -65.126499221778005 19.14175073133443 9.1979973668236035 #
point $-1 -57.491910984096577 19.14175073133443 9.1979973668236035 #
edge $-1 $691 1 $691 0 $448 $-1 forward 7 unknown #
vertex $-1 $449 $692 #
ellipse-curve $-1 -58.858509019783398 25.611406266087727 3.0788523980607247 -0.61566148304635926 0 0.78801074757464917 0.78801074757464917 0 0.61566148304635926 1 I I #
point $-1 -60.521194355362617 25.611406266087727 6.8312617624406418 #
edge $-1 $693 1 $693 0 $452 $-1 forward 7 unknown #
vertex $-1 $453 $694 #
ellipse-curve $-1 -58.858509019783398 35.315889568217671 3.0788523980607247 -0.61566148304635926 0 0.78801074757464917 0.78801074757464917 0 0.61566148304635926 1 I I #
point $-1 -60.521194355362617 35.315889568217671 6.8312617624406418 #
plane-surface $-1 65.126499221778005 0 0 -1 0 0 0 0 1 forward_v I I I I #
coedge $-1 $461 $459 $463 $616 reversed $321 $-1 #
edge $-1 $474 -9.1979973668236035 $618 9.1979973668236035 $473 $695 forward 7 unknown #
vertex $-1 $616 $696 #
straight-curve $-1 -65.126499221778005 -41.785545102970971 0 0 0 -1 I I #
edge $-1 $614 -41.785545102970971 $618 41.785545102970971 $612 $697 forward 7 unknown #
straight-curve $-1 0 -41.785545102970971 -9.1979973668236035 -1 0 0 I I #
vertex $-1 $466 $698 #
straight-curve $-1 0 41.785545102970971 -9.1979973668236035 1 0 0 I I #
point $-1 65.126499221778005 41.785545102970971 -9.1979973668236035 #
point $-1 65.126499221778005 -41.785545102970971 -9.1979973668236035 #
straight-curve $-1 -65.126499221778005 0 9.1979973668236035 0 -1 0 I I #
point $-1 -65.126499221778005 41.785545102970971 9.1979973668236035 #
point $-1 -65.126499221778005 -41.785545102970971 9.1979973668236035 #
straight-curve $-1 65.126499221778005 -41.785545102970971 0 0 0 -1 I I #
straight-curve $-1 65.126499221778005 41.785545102970971 0 0 0 -1 I I #
coedge $-1 $494 $493 $486 $628 forward $483 $-1 #
edge $-1 $629 83.862313286034038 $632 90.892799076380385 $627 $699 forward 7 unknown #
vertex $-1 $498 $700 #
straight-curve $-1 27.742963623083696 -37.648064582582982 9.1979973668235999 1 0 0 I I #
edge $-1 $632 -22.209360272071834 $495 -8.6680483489504638 $494 $701 forward 7 unknown #
vertex $-1 $631 $702 #
straight-curve $-1 -31.67034163064632 -37.648064582582982 89.323780453290979 -0.74314481823134659 0 0.66913061440640931 I I #
point $-1 57.318353887731604 -37.648064582582982 9.1979973668235999 #
point $-1 65.126499221778005 -24.106752659461613 2.1675115764772528 #
straight-curve $-1 65.126499221778005 0 9.1979973668236035 0 1 0 I I #
vertex $-1 $501 $703 #
point $-1 60.934256226058864 -33.779118318834016 3.8682323732773245 #
vertex $-1 $505 $704 #
point $-1 60.934256226058864 -27.975698923210572 3.8682323732773245 #
edge $-1 $642 83.862313286034038 $645 90.892799076380385 $510 $705 forward 7 unknown #
vertex $-1 $524 $706 #
straight-curve $-1 27.742963623083696 -17.063125501901453 9.1979973668235999 1 0 0 I I #
edge $-1 $645 -11.916890731731069 $521 1.6244211913902991 $520 $707 forward 7 unknown #
vertex $-1 $644 $708 #
straight-curve $-1 -31.67034163064632 -17.063125501901453 89.323780453290979 -0.74314481823134659 0 0.66913061440640931 I I #
point $-1 57.318353887731604 -17.063125501901453 9.1979973668235999 #
point $-1 65.126499221778005 -3.5218135787800851 2.1675115764772528 #
straight-curve $-1 65.126499221778005 0 9.1979973668236035 0 1 0 I I #
vertex $-1 $527 $709 #
point $-1 60.934256226058864 -13.194179238152486 3.8682323732773245 #
vertex $-1 $531 $710 #
point $-1 60.934256226058864 -7.3907598425290431 3.8682323732773245 #
edge $-1 $655 83.862313286034038 $658 90.892799076380385 $536 $711 forward 7 unknown #
vertex $-1 $550 $712 #
straight-curve $-1 27.742963623083696 3.5218135787800779 9.1979973668235999 1 0 0 I I #
edge $-1 $658 -1.6244211913903026 $547 11.916890731731066 $546 $713 forward 7 unknown #
vertex $-1 $657 $714 #
straight-curve $-1 -31.67034163064632 3.5218135787800779 89.323780453290979 -0.74314481823134659 0 0.66913061440640931 I I #
point $-1 57.318353887731604 3.5218135787800779 9.1979973668235999 #
point $-1 65.126499221778005 17.063125501901446 2.1675115764772528 #
straight-curve $-1 65.126499221778005 0 9.1979973668236035 0 1 0 I I #
vertex $-1 $553 $715 #
point $-1 60.934256226058864 7.3907598425290431 3.8682323732773245 #
vertex $-1 $557 $716 #
point $-1 60.934256226058864 13.194179238152486 3.8682323732773245 #
edge $-1 $668 83.862313286034038 $671 90.892799076380385 $562 $717 forward 7 unknown #
vertex $-1 $576 $718 #
straight-curve $-1 27.742963623083696 24.106752659461613 9.1979973668235999 1 0 0 I I #
edge $-1 $671 8.6680483489504638 $573 22.209360272071834 $572 $719 forward 7 unknown #
vertex $-1 $670 $720 #
straight-curve $-1 -31.67034163064632 24.106752659461613 89.323780453290979 -0.74314481823134659 0 0.66913061440640931 I I #
point $-1 57.318353887731604 24.106752659461613 9.1979973668235999 #
point $-1 65.126499221778005 37.648064582582982 2.1675115764772528 #
straight-curve $-1 65.126499221778005 0 9.1979973668236035 0 1 0 I I #
vertex $-1 $579 $721 #
point $-1 60.934256226058864 27.975698923210572 3.8682323732773245 #
vertex $-1 $583 $722 #
point $-1 60.934256226058864 33.779118318834023 3.8682323732773245 #
coedge $-1 $681 $589 $687 $723 reversed $435 $-1 #
coedge $-1 $589 $680 $592 $685 reversed $435 $-1 #
edge $-1 $683 -26.553721144394622 $597 -3.9099267727580802 $596 $724 forward 7 unknown #
vertex $-1 $591 $725 #
straight-curve $-1 -45.690284003194265 41.785545102970971 18.418439082606092 -0.78801074757464917 0 -0.61566148304635926 I I #
edge $-1 $593 57.491910984096577 $689 65.126499221778005 $681 $726 forward 7 unknown #
point $-1 -57.491910984096577 41.785545102970971 9.1979973668236035 #
coedge $-1 $596 $595 $680 $723 forward $587 $-1 #
point $-1 -65.126499221778005 19.14175073133443 3.2332031919650004 #
vertex $-1 $685 $727 #
straight-curve $-1 -65.126499221778005 0 9.1979973668236035 0 -1 0 I I #
vertex $-1 $603 $728 #
point $-1 -58.070498272208752 25.611406266087727 3.6945138811070839 #
vertex $-1 $607 $729 #
point $-1 -58.070498272208752 35.315889568217671 3.6945138811070839 #
straight-curve $-1 -65.126499221778005 41.785545102970971 0 0 0 -1 I I #
point $-1 -65.126499221778005 -41.785545102970971 -9.1979973668236035 #
straight-curve $-1 -65.126499221778005 0 -9.1979973668236035 0 1 0 I I #
point $-1 -65.126499221778005 41.785545102970971 -9.1979973668236035 #
straight-curve $-1 65.126499221778005 -37.648064582582982 93.060310652857638 0 0 -1 I I #
point $-1 65.126499221778005 -37.648064582582982 9.1979973668236035 #
straight-curve $-1 65.126499221778005 -15.438704310511149 2.1675115764772599 0 1 0 I I #
point $-1 65.126499221778005 -37.648064582582982 2.1675115764772528 #
point $-1 59.521980793421108 -33.779118318834016 3.7942181694523871 #
point $-1 59.521980793421108 -27.975698923210572 3.7942181694523871 #
straight-curve $-1 65.126499221778005 -17.063125501901453 93.060310652857638 0 0 -1 I I #
point $-1 65.126499221778005 -17.063125501901453 9.1979973668236035 #
straight-curve $-1 65.126499221778005 -5.1462347701703841 2.1675115764772599 0 1 0 I I #
point $-1 65.126499221778005 -17.063125501901453 2.1675115764772528 #
point $-1 59.521980793421108 -13.194179238152486 3.7942181694523871 #
point $-1 59.521980793421108 -7.3907598425290431 3.7942181694523871 #
straight-curve $-1 65.126499221778005 3.5218135787800779 93.060310652857638 0 0 -1 I I #
point $-1 65.126499221778005 3.5218135787800779 9.1979973668236035 #
straight-curve $-1 65.126499221778005 5.1462347701703806 2.1675115764772599 0 1 0 I I #
point $-1 65.126499221778005 3.5218135787800779 2.1675115764772528 #
point $-1 59.521980793421108 7.3907598425290431 3.7942181694523871 #
point $-1 59.521980793421108 13.194179238152486 3.7942181694523871 #
straight-curve $-1 65.126499221778005 24.106752659461613 93.060310652857638 0 0 -1 I I #
point $-1 65.126499221778005 24.106752659461613 9.1979973668236035 #
straight-curve $-1 65.126499221778005 15.438704310511149 2.1675115764772599 0 1 0 I I #
point $-1 65.126499221778005 24.106752659461613 2.1675115764772528 #
point $-1 59.521980793421108 27.975698923210572 3.7942181694523871 #
point $-1 59.521980793421108 33.779118318834023 3.7942181694523871 #
edge $-1 $689 -9.1979973668236035 $683 -3.2332031919650004 $680 $730 forward 7 unknown #
straight-curve $-1 -65.126499221778005 15.231823958576349 3.2332031919649995 0 -1 0 I I #
point $-1 -65.126499221778005 41.785545102970971 3.2332031919650004 #
straight-curve $-1 0 41.785545102970971 9.1979973668236035 -1 0 0 I I #
point $-1 -65.126499221778005 41.785545102970971 9.1979973668236035 #
point $-1 -58.242847536737045 25.611406266087727 2.2908416504860765 #
point $-1 -58.242847536737045 35.315889568217671 2.2908416504860765 #
straight-curve $-1 -65.126499221778005 41.785545102970971 0 0 0 -1 I I #
End-of-ACIS-data 