500 0 8 0           
7 Unknown 11 ACIS 5.0 NT 24 Fri Mar 26 15:04:19 1999 
-1 9.9999999999999995e-007 1e-010 
body $-1 $8 $-1 $9 #
body $-1 $10 $-1 $11 #
body $-1 $12 $-1 $13 #
body $-1 $14 $-1 $15 #
body $-1 $16 $-1 $17 #
body $-1 $18 $-1 $19 #
body $-1 $20 $-1 $21 #
body $-1 $22 $-1 $23 #
lump $-1 $-1 $24 $0 #
transform $-1 1 0 0 0 1 0 0 0 1 45.652027954954683 31.715251135624175 15.591646045363602 1 rotate no_reflect no_shear #
lump $-1 $-1 $25 $1 #
transform $-1 1 0 0 0 1 0 0 0 1 45.652027954954683 31.715251135624175 15.591646045363602 1 rotate no_reflect no_shear #
lump $-1 $-1 $26 $2 #
transform $-1 1 0 0 0 1 0 0 0 1 45.652027954954683 31.715251135624175 15.591646045363602 1 rotate no_reflect no_shear #
lump $-1 $-1 $27 $3 #
transform $-1 1 0 0 0 1 0 0 0 1 45.652027954954683 31.715251135624175 15.591646045363602 1 rotate no_reflect no_shear #
lump $-1 $-1 $28 $4 #
transform $-1 1 0 0 0 1 0 0 0 1 45.652027954954683 31.715251135624175 15.591646045363602 1 rotate no_reflect no_shear #
lump $-1 $-1 $29 $5 #
transform $-1 1 0 0 0 1 0 0 0 1 45.652027954954683 31.715251135624175 15.591646045363602 1 rotate no_reflect no_shear #
lump $-1 $-1 $30 $6 #
transform $-1 1 0 0 0 1 0 0 0 1 45.652027954954683 31.715251135624175 15.591646045363602 1 rotate no_reflect no_shear #
lump $-1 $-1 $31 $7 #
transform $-1 1 0 0 0 1 0 0 0 1 45.652027954954683 31.715251135624175 15.591646045363602 1 rotate no_reflect no_shear #
shell $-1 $-1 $-1 $32 $-1 $8 #
shell $-1 $-1 $-1 $33 $-1 $10 #
shell $-1 $-1 $-1 $34 $-1 $12 #
shell $-1 $-1 $-1 $35 $-1 $14 #
shell $-1 $-1 $-1 $36 $-1 $16 #
shell $-1 $-1 $-1 $37 $-1 $18 #
shell $-1 $-1 $-1 $38 $-1 $20 #
shell $-1 $-1 $-1 $39 $-1 $22 #
face $-1 $40 $41 $24 $-1 $42 reversed single #
face $-1 $43 $44 $25 $-1 $45 forward single #
face $-1 $46 $47 $26 $-1 $48 reversed single #
face $-1 $49 $50 $27 $-1 $51 forward single #
face $-1 $52 $53 $28 $-1 $54 forward single #
face $-1 $55 $56 $29 $-1 $57 reversed single #
face $-1 $58 $59 $30 $-1 $60 forward single #
face $-1 $61 $62 $31 $-1 $63 forward single #
face $-1 $64 $65 $24 $-1 $66 forward single #
loop $-1 $-1 $67 $32 #
plane-surface $-1 0 -31.715251135624175 0 0 1 0 0 0 1 forward_v I I I I #
face $-1 $68 $69 $25 $-1 $70 reversed single #
loop $-1 $-1 $71 $33 #
plane-surface $-1 0 -31.715251135624175 0 0 1 0 0 0 1 forward_v I I I I #
face $-1 $72 $73 $26 $-1 $74 reversed single #
loop $-1 $-1 $75 $34 #
plane-surface $-1 -122.22605311146629 10.396915767679086 56.816533009436682 0 1 0 -0.83867057594974714 0 0.54463902268945019 forward_v I I I I #
face $-1 $76 $77 $27 $-1 $78 forward single #
loop $-1 $79 $80 $35 #
cone-surface $-1 -42.052560158064722 13.97965538807092 10.795649412603003 0.83867057594974714 0 -0.54463902268945019 0.2723195113447251 0 0.41933528797487357 1 I I 0 1 0.5 forward I I I I #
face $-1 $81 $82 $28 $-1 $83 forward single #
loop $-1 $84 $85 $36 #
cone-surface $-1 -42.052560158064722 19.353764818658671 10.795649412603003 0.83867057594974714 0 -0.54463902268945019 0.2723195113447251 0 0.41933528797487357 1 I I 0 1 0.5 forward I I I I #
face $-1 $86 $87 $29 $-1 $88 reversed single #
loop $-1 $-1 $89 $37 #
plane-surface $-1 72.498301333110334 22.936504439050506 133.39055816594828 0 -1 0 -0.83867057594974714 0 -0.54463902268945019 forward_v I I I I #
face $-1 $90 $91 $30 $-1 $92 forward single #
loop $-1 $93 $94 $38 #
cone-surface $-1 42.052560158064729 13.97965538807092 10.795649412602989 -0.83867057594974714 0 -0.54463902268945019 0.2723195113447251 0 -0.41933528797487357 1 I I 0 1 0.5 forward I I I I #
face $-1 $95 $96 $31 $-1 $97 forward single #
loop $-1 $98 $99 $39 #
cone-surface $-1 42.052560158064729 19.353764818658671 10.795649412602989 -0.83867057594974714 0 -0.54463902268945019 0.2723195113447251 0 -0.41933528797487357 1 I I 0 1 0.5 forward I I I I #
face $-1 $100 $101 $24 $-1 $102 reversed single #
loop $-1 $-1 $103 $40 #
plane-surface $-1 0 0 15.591646045363602 0 0 1 1 0 0 forward_v I I I I #
coedge $-1 $104 $105 $106 $107 reversed $41 $-1 #
face $-1 $108 $109 $25 $-1 $110 reversed single #
loop $-1 $-1 $111 $43 #
plane-surface $-1 0 0 -15.591646045363602 0 0 1 1 0 0 forward_v I I I I #
coedge $-1 $112 $113 $114 $115 forward $44 $-1 #
face $-1 $116 $117 $26 $-1 $118 reversed single #
loop $-1 $-1 $119 $46 #
plane-surface $-1 -45.65202795495469 16.666710103364796 7.0887812310807234 -0.83867057594974714 0 0.54463902268945019 0.54463902268945019 0 0.83867057594974714 forward_v I I I I #
coedge $-1 $120 $121 $122 $123 reversed $47 $-1 #
face $-1 $-1 $124 $27 $-1 $125 forward single #
loop $-1 $126 $127 $49 #
cone-surface $-1 -41.004337115519178 13.97965538807092 10.114925431311478 0.83867057594974714 0 -0.54463902268945019 0.13615975567236255 0 0.20966764398743679 1 I I -0.70710678118654746 0.70710678118654746 0.25 forward I I I I #
loop $-1 $-1 $128 $35 #
coedge $-1 $80 $80 $129 $130 reversed $50 $-1 #
face $-1 $-1 $131 $28 $-1 $132 forward single #
loop $-1 $133 $134 $52 #
cone-surface $-1 -41.004337115519178 19.353764818658671 10.114925431311478 0.83867057594974714 0 -0.54463902268945019 0.13615975567236255 0 0.20966764398743679 1 I I -0.70710678118654746 0.70710678118654746 0.25 forward I I I I #
loop $-1 $-1 $135 $36 #
coedge $-1 $85 $85 $136 $137 reversed $53 $-1 #
face $-1 $138 $139 $29 $-1 $140 reversed single #
loop $-1 $-1 $141 $55 #
plane-surface $-1 -4.0757238234012618 16.666710103364796 83.662806387592326 0.83867057594974714 0 0.54463902268945019 0.54463902268945019 0 -0.83867057594974714 forward_v I I I I #
coedge $-1 $142 $143 $144 $145 reversed $56 $-1 #
face $-1 $-1 $146 $30 $-1 $147 forward single #
loop $-1 $148 $149 $58 #
cone-surface $-1 41.004337115519185 13.97965538807092 10.114925431311464 -0.83867057594974714 0 -0.54463902268945019 0.13615975567236255 0 -0.20966764398743679 1 I I -0.70710678118654746 0.70710678118654746 0.25 forward I I I I #
loop $-1 $-1 $150 $38 #
coedge $-1 $94 $94 $151 $152 reversed $59 $-1 #
face $-1 $-1 $153 $31 $-1 $154 forward single #
loop $-1 $155 $156 $61 #
cone-surface $-1 41.004337115519185 19.353764818658671 10.114925431311464 -0.83867057594974714 0 -0.54463902268945019 0.13615975567236255 0 -0.20966764398743679 1 I I -0.70710678118654746 0.70710678118654746 0.25 forward I I I I #
loop $-1 $-1 $157 $39 #
coedge $-1 $99 $99 $158 $159 reversed $62 $-1 #
face $-1 $160 $161 $24 $-1 $162 reversed single #
loop $-1 $-1 $163 $64 #
plane-surface $-1 0 0 -15.591646045363602 0 0 1 1 0 0 forward_v I I I I #
coedge $-1 $164 $165 $166 $167 forward $65 $-1 #
coedge $-1 $168 $67 $169 $170 reversed $41 $-1 #
coedge $-1 $67 $168 $171 $172 forward $41 $-1 #
coedge $-1 $173 $163 $67 $107 forward $101 $-1 #
edge $-1 $174 -45.652027954954683 $175 45.652027954954683 $67 $176 forward 7 unknown #
face $-1 $177 $178 $25 $-1 $179 reversed single #
loop $-1 $-1 $180 $68 #
plane-surface $-1 -18.8752865386415 -51.548156085649794 0 0 1 0 0 0 1 forward_v I I I I #
coedge $-1 $181 $182 $113 $183 forward $69 $-1 #
coedge $-1 $184 $71 $185 $186 reversed $44 $-1 #
coedge $-1 $71 $184 $111 $183 reversed $44 $-1 #
coedge $-1 $187 $188 $71 $115 reversed $178 $-1 #
edge $-1 $189 -15.591646045363602 $190 15.591646045363602 $114 $191 forward 7 unknown #
face $-1 $192 $193 $26 $-1 $194 reversed single #
loop $-1 $-1 $195 $72 #
plane-surface $-1 -122.22605311146629 22.936504439050506 56.816533009436682 0 -1 0 0.83867057594974714 0 -0.54463902268945019 forward_v I I I I #
coedge $-1 $196 $197 $198 $199 reversed $73 $-1 #
coedge $-1 $121 $75 $200 $201 reversed $47 $-1 #
coedge $-1 $75 $120 $196 $202 reversed $47 $-1 #
coedge $-1 $198 $203 $75 $123 forward $204 $-1 #
edge $-1 $205 15.46099860077846 $206 20.982823397442154 $122 $207 forward 7 unknown #
loop $-1 $-1 $129 $76 #
plane-surface $-1 -45.65202795495469 16.666710103364796 7.0887812310807234 -0.83867057594974714 0 0.54463902268945019 0.54463902268945019 0 0.83867057594974714 forward_v I I I I #
loop $-1 $-1 $208 $49 #
coedge $-1 $127 $127 $128 $209 reversed $77 $-1 #
coedge $-1 $128 $128 $127 $209 forward $79 $-1 #
coedge $-1 $129 $129 $80 $130 forward $124 $-1 #
edge $-1 $210 0 $210 6.2831853071796004 $129 $211 forward 7 unknown #
loop $-1 $-1 $136 $81 #
plane-surface $-1 -45.65202795495469 16.666710103364796 7.0887812310807234 -0.83867057594974714 0 0.54463902268945019 0.54463902268945019 0 0.83867057594974714 forward_v I I I I #
loop $-1 $-1 $212 $52 #
coedge $-1 $134 $134 $135 $213 reversed $82 $-1 #
coedge $-1 $135 $135 $134 $213 forward $84 $-1 #
coedge $-1 $136 $136 $85 $137 forward $131 $-1 #
edge $-1 $214 0 $214 6.2831853071796004 $136 $215 forward 7 unknown #
face $-1 $216 $217 $29 $-1 $218 forward single #
loop $-1 $-1 $219 $86 #
plane-surface $-1 72.498301333110334 10.396915767679086 133.39055816594828 0 1 0 0.83867057594974714 0 0.54463902268945019 forward_v I I I I #
coedge $-1 $220 $221 $222 $223 reversed $87 $-1 #
coedge $-1 $143 $89 $224 $225 reversed $56 $-1 #
coedge $-1 $89 $142 $220 $226 reversed $56 $-1 #
coedge $-1 $222 $227 $89 $145 forward $217 $-1 #
edge $-1 $228 -9.402877288399516 $229 -3.8810524917358293 $144 $230 forward 7 unknown #
loop $-1 $-1 $151 $90 #
plane-surface $-1 -4.0757238234012618 16.666710103364796 83.662806387592326 0.83867057594974714 0 0.54463902268945019 0.54463902268945019 0 -0.83867057594974714 forward_v I I I I #
loop $-1 $-1 $231 $58 #
coedge $-1 $149 $149 $150 $232 reversed $91 $-1 #
coedge $-1 $150 $150 $149 $232 forward $93 $-1 #
coedge $-1 $151 $151 $94 $152 forward $146 $-1 #
edge $-1 $233 0 $233 6.2831853071796004 $151 $234 forward 7 unknown #
loop $-1 $-1 $158 $95 #
plane-surface $-1 -4.0757238234012618 16.666710103364796 83.662806387592326 0.83867057594974714 0 0.54463902268945019 0.54463902268945019 0 -0.83867057594974714 forward_v I I I I #
loop $-1 $-1 $235 $61 #
coedge $-1 $156 $156 $157 $236 reversed $96 $-1 #
coedge $-1 $157 $157 $156 $236 forward $98 $-1 #
coedge $-1 $158 $158 $99 $159 forward $153 $-1 #
edge $-1 $237 0 $237 6.2831853071796004 $158 $238 forward 7 unknown #
face $-1 $239 $240 $24 $-1 $241 reversed single #
loop $-1 $-1 $242 $100 #
plane-surface $-1 -45.652027954954683 0 0 1 0 0 0 0 -1 forward_v I I I I #
coedge $-1 $106 $243 $244 $245 forward $101 $-1 #
coedge $-1 $246 $103 $247 $248 forward $65 $-1 #
coedge $-1 $103 $246 $168 $249 forward $65 $-1 #
coedge $-1 $169 $250 $103 $167 reversed $251 $-1 #
edge $-1 $252 -31.715251135624175 $253 31.715251135624175 $166 $254 forward 7 unknown #
coedge $-1 $105 $104 $165 $249 reversed $41 $-1 #
coedge $-1 $244 $166 $104 $170 forward $251 $-1 #
edge $-1 $252 -15.591646045363602 $174 15.591646045363602 $169 $255 forward 7 unknown #
coedge $-1 $256 $257 $105 $172 reversed $161 $-1 #
edge $-1 $258 -15.591646045363602 $175 15.591646045363602 $171 $259 forward 7 unknown #
coedge $-1 $243 $106 $257 $260 forward $101 $-1 #
vertex $-1 $170 $261 #
vertex $-1 $260 $262 #
straight-curve $-1 0 -31.715251135624175 -15.591646045363602 -1 0 0 I I #
face $-1 $263 $264 $25 $-1 $265 reversed single #
loop $-1 $-1 $114 $108 #
plane-surface $-1 -22.52136301261222 -41.631703610636983 0 1 0 0 0 0 -1 forward_v I I I I #
coedge $-1 $266 $267 $268 $269 forward $109 $-1 #
coedge $-1 $270 $111 $271 $272 forward $69 $-1 #
coedge $-1 $111 $270 $187 $273 forward $69 $-1 #
edge $-1 $189 -22.52136301261222 $274 -15.229210064670781 $111 $275 forward 7 unknown #
coedge $-1 $113 $112 $276 $277 forward $44 $-1 #
coedge $-1 $278 $279 $112 $186 forward $280 $-1 #
edge $-1 $281 15.229210064670781 $190 22.52136301261222 $185 $282 forward 7 unknown #
coedge $-1 $268 $114 $182 $273 reversed $178 $-1 #
coedge $-1 $114 $268 $278 $283 reversed $178 $-1 #
vertex $-1 $183 $284 #
vertex $-1 $283 $285 #
straight-curve $-1 -22.52136301261222 -31.715251135624175 0 0 0 1 I I #
face $-1 $-1 $204 $26 $-1 $286 forward single #
loop $-1 $-1 $287 $116 #
plane-surface $-1 -45.652027954954683 0 0 1 0 0 0 0 -1 forward_v I I I I #
coedge $-1 $288 $289 $290 $291 reversed $117 $-1 #
coedge $-1 $292 $119 $121 $202 forward $73 $-1 #
coedge $-1 $119 $292 $288 $293 forward $73 $-1 #
coedge $-1 $290 $122 $119 $199 forward $204 $-1 #
edge $-1 $206 2.0635607159966884 $294 14.603149387368108 $198 $295 forward 7 unknown #
coedge $-1 $296 $297 $120 $201 forward $193 $-1 #
edge $-1 $298 -21.319485273637607 $205 -12.816620459354739 $200 $299 forward 7 unknown #
edge $-1 $206 -10.138503791734752 $298 -1.2808562293387176e-014 $121 $300 forward 7 unknown #
coedge $-1 $122 $290 $296 $301 forward $204 $-1 #
loop $-1 $-1 $290 $192 #
vertex $-1 $201 $302 #
vertex $-1 $123 $303 #
straight-curve $-1 -61.113026555733143 10.396915767679086 15.591646045363603 1 0 0 I I #
coedge $-1 $208 $208 $-1 $304 reversed $126 $-1 #
edge $-1 $305 0 $305 6.2831853071796004 $127 $306 forward 7 unknown #
vertex $-1 $130 $307 #
ellipse-curve $-1 -42.891115556622836 13.97965538807092 11.340213638222169 -0.83867057594974714 0 0.54463902268945019 0.2723195113447251 0 0.41933528797487357 1 I I #
coedge $-1 $212 $212 $-1 $308 reversed $133 $-1 #
edge $-1 $309 0 $309 6.2831853071796004 $134 $310 forward 7 unknown #
vertex $-1 $137 $311 #
ellipse-curve $-1 -42.891115556622836 19.353764818658671 11.340213638222169 -0.83867057594974714 0 0.54463902268945019 0.2723195113447251 0 0.41933528797487357 1 I I #
face $-1 $-1 $312 $29 $-1 $313 reversed single #
loop $-1 $-1 $144 $138 #
plane-surface $-1 0 0 15.591646045363602 0 0 1 1 0 0 forward_v I I I I #
coedge $-1 $314 $315 $316 $317 reversed $139 $-1 #
coedge $-1 $318 $141 $143 $226 forward $87 $-1 #
coedge $-1 $141 $318 $314 $319 forward $87 $-1 #
coedge $-1 $316 $144 $141 $223 forward $217 $-1 #
edge $-1 $229 -14.603149387368108 $320 -2.0635607159966884 $222 $321 forward 7 unknown #
coedge $-1 $322 $323 $142 $225 forward $312 $-1 #
edge $-1 $324 -59.606497851893408 $228 -51.103633037610535 $224 $325 forward 7 unknown #
edge $-1 $229 81.165552118174617 $324 91.304055909909351 $143 $326 forward 7 unknown #
coedge $-1 $144 $316 $322 $327 forward $217 $-1 #
vertex $-1 $145 $328 #
vertex $-1 $145 $329 #
straight-curve $-1 36.249150666555167 22.936504439050506 15.591646045363603 -1 0 0 I I #
coedge $-1 $231 $231 $-1 $330 reversed $148 $-1 #
edge $-1 $331 0 $331 6.2831853071796004 $149 $332 forward 7 unknown #
vertex $-1 $152 $333 #
ellipse-curve $-1 42.89111555662285 13.97965538807092 11.34021363822216 0.83867057594974714 0 0.54463902268945019 0.2723195113447251 0 -0.41933528797487357 1 I I #
coedge $-1 $235 $235 $-1 $334 reversed $155 $-1 #
edge $-1 $335 0 $335 6.2831853071796004 $156 $336 forward 7 unknown #
vertex $-1 $159 $337 #
ellipse-curve $-1 42.89111555662285 19.353764818658671 11.34021363822216 0.83867057594974714 0 0.54463902268945019 0.2723195113447251 0 -0.41933528797487357 1 I I #
face $-1 $-1 $251 $24 $-1 $338 reversed single #
loop $-1 $-1 $339 $160 #
plane-surface $-1 0 31.715251135624175 0 0 -1 0 0 0 -1 forward_v I I I I #
coedge $-1 $257 $256 $340 $341 forward $161 $-1 #
coedge $-1 $163 $173 $342 $343 forward $101 $-1 #
coedge $-1 $250 $169 $163 $245 reversed $251 $-1 #
edge $-1 $344 -31.715251135624175 $174 31.715251135624175 $244 $345 forward 7 unknown #
coedge $-1 $165 $164 $256 $346 forward $65 $-1 #
coedge $-1 $339 $340 $164 $248 reversed $240 $-1 #
edge $-1 $253 -45.652027954954683 $347 45.652027954954683 $247 $348 forward 7 unknown #
edge $-1 $258 -45.652027954954683 $252 45.652027954954683 $168 $349 forward 7 unknown #
coedge $-1 $166 $244 $339 $350 reversed $251 $-1 #
loop $-1 $-1 $169 $239 #
vertex $-1 $167 $351 #
vertex $-1 $167 $352 #
straight-curve $-1 45.652027954954683 0 15.591646045363602 0 1 0 I I #
straight-curve $-1 45.652027954954683 -31.715251135624175 0 0 0 -1 I I #
coedge $-1 $242 $171 $246 $346 reversed $161 $-1 #
coedge $-1 $171 $242 $173 $260 reversed $161 $-1 #
vertex $-1 $346 $353 #
straight-curve $-1 -45.652027954954683 -31.715251135624175 0 0 0 -1 I I #
edge $-1 $175 -31.715251135624175 $354 31.715251135624175 $257 $355 forward 7 unknown #
point $-1 45.652027954954683 -31.715251135624175 -15.591646045363602 #
point $-1 -45.652027954954683 -31.715251135624175 -15.591646045363602 #
face $-1 $-1 $280 $25 $-1 $356 forward single #
loop $-1 $-1 $357 $177 #
plane-surface $-1 -15.229210064670781 -41.631703610636983 0 -1 0 0 0 0 1 forward_v I I I I #
coedge $-1 $358 $180 $270 $359 reversed $109 $-1 #
coedge $-1 $180 $358 $360 $361 reversed $109 $-1 #
coedge $-1 $188 $187 $180 $269 reversed $178 $-1 #
edge $-1 $362 -15.591646045363602 $363 15.591646045363602 $268 $364 forward 7 unknown #
coedge $-1 $182 $181 $266 $359 forward $69 $-1 #
coedge $-1 $276 $357 $181 $272 reversed $264 $-1 #
edge $-1 $274 -9.9164524750128109 $365 9.9164524750128109 $271 $366 forward 7 unknown #
edge $-1 $363 -9.9164524750128109 $189 9.9164524750128109 $187 $367 forward 7 unknown #
vertex $-1 $272 $368 #
straight-curve $-1 0 -31.715251135624175 -15.591646045363602 1 0 0 I I #
coedge $-1 $369 $271 $184 $277 reversed $264 $-1 #
edge $-1 $281 -15.591646045363602 $274 15.591646045363602 $276 $370 forward 7 unknown #
coedge $-1 $360 $185 $188 $283 forward $280 $-1 #
coedge $-1 $185 $360 $369 $371 forward $280 $-1 #
loop $-1 $-1 $185 $263 #
vertex $-1 $186 $372 #
straight-curve $-1 0 -31.715251135624175 15.591646045363602 -1 0 0 I I #
edge $-1 $190 -9.9164524750128109 $362 9.9164524750128109 $188 $373 forward 7 unknown #
point $-1 -22.52136301261222 -31.715251135624172 -15.591646045363602 #
point $-1 -22.52136301261222 -31.715251135624172 15.591646045363602 #
plane-surface $-1 0 0 15.591646045363602 0 0 1 1 0 0 forward_v I I I I #
coedge $-1 $297 $296 $289 $374 forward $193 $-1 #
coedge $-1 $289 $195 $197 $293 reversed $117 $-1 #
coedge $-1 $195 $288 $287 $374 reversed $117 $-1 #
coedge $-1 $203 $198 $195 $291 forward $204 $-1 #
edge $-1 $294 -20.982823397442154 $375 -15.46099860077846 $290 $376 forward 7 unknown #
coedge $-1 $197 $196 $297 $377 reversed $73 $-1 #
edge $-1 $378 1.2808562293387176e-014 $294 10.138503791734752 $288 $379 forward 7 unknown #
vertex $-1 $199 $380 #
straight-curve $-1 -40.130203158290989 8.333355051682398 15.591646045363602 0 1 0 I I #
coedge $-1 $287 $200 $203 $301 reversed $193 $-1 #
coedge $-1 $200 $287 $292 $377 forward $193 $-1 #
vertex $-1 $201 $381 #
straight-curve $-1 -45.652027954954683 10.396915767679086 28.408266504718341 0 0 1 I I #
straight-curve $-1 -45.65202795495469 10.396915767679086 7.0887812310807234 -0.54463902268945019 0 -0.83867057594974714 I I #
edge $-1 $375 -22.936504439050506 $205 -10.396915767679086 $296 $382 forward 7 unknown #
point $-1 -45.652027954954683 10.396915767679086 15.591646045363602 #
point $-1 -40.130203158290989 10.396915767679086 15.591646045363602 #
edge $-1 $383 1 $383 0 $208 $-1 forward 7 unknown #
vertex $-1 $209 $384 #
ellipse-curve $-1 -41.214004759506615 13.97965538807092 10.251085186983842 -0.83867057594974714 0 0.54463902268945019 0.2723195113447251 0 0.41933528797487357 1 I I #
point $-1 -42.61879604527811 13.97965538807092 11.759548926197041 #
edge $-1 $385 1 $385 0 $212 $-1 forward 7 unknown #
vertex $-1 $213 $386 #
ellipse-curve $-1 -41.214004759506615 19.353764818658671 10.251085186983842 -0.83867057594974714 0 0.54463902268945019 0.2723195113447251 0 0.41933528797487357 1 I I #
point $-1 -42.61879604527811 19.353764818658671 11.759548926197041 #
loop $-1 $-1 $224 $216 #
plane-surface $-1 45.652027954954683 0 0 -1 0 0 0 0 1 forward_v I I I I #
coedge $-1 $315 $219 $221 $319 reversed $139 $-1 #
coedge $-1 $219 $314 $387 $388 reversed $139 $-1 #
coedge $-1 $227 $222 $219 $317 forward $217 $-1 #
edge $-1 $320 3.8810524917358293 $389 9.402877288399516 $316 $390 forward 7 unknown #
coedge $-1 $221 $220 $323 $391 reversed $87 $-1 #
edge $-1 $392 -91.304055909909351 $320 -81.165552118174617 $314 $393 forward 7 unknown #
vertex $-1 $223 $394 #
straight-curve $-1 40.130203158290989 8.333355051682398 15.591646045363603 0 -1 0 I I #
coedge $-1 $387 $224 $227 $327 reversed $312 $-1 #
coedge $-1 $224 $387 $318 $391 forward $312 $-1 #
vertex $-1 $225 $395 #
straight-curve $-1 45.652027954954683 22.936504439050506 66.695279082974139 0 0 1 I I #
straight-curve $-1 -4.0757238234012618 22.936504439050506 83.662806387592326 0.54463902268945019 0 -0.83867057594974714 I I #
edge $-1 $389 10.396915767679086 $228 22.936504439050506 $322 $396 forward 7 unknown #
point $-1 45.652027954954683 22.936504439050506 15.591646045363602 #
point $-1 40.130203158290996 22.936504439050506 15.591646045363603 #
edge $-1 $397 1 $397 0 $231 $-1 forward 7 unknown #
vertex $-1 $232 $398 #
ellipse-curve $-1 41.214004759506622 13.97965538807092 10.251085186983827 0.83867057594974714 0 0.54463902268945019 0.2723195113447251 0 -0.41933528797487357 1 I I #
point $-1 43.163435067967569 13.97965538807092 10.920878350247278 #
edge $-1 $399 1 $399 0 $235 $-1 forward 7 unknown #
vertex $-1 $236 $400 #
ellipse-curve $-1 41.214004759506622 19.353764818658671 10.251085186983827 0.83867057594974714 0 0.54463902268945019 0.2723195113447251 0 -0.41933528797487357 1 I I #
point $-1 43.163435067967569 19.353764818658671 10.920878350247278 #
plane-surface $-1 45.652027954954683 0 0 -1 0 0 0 0 1 forward_v I I I I #
coedge $-1 $342 $247 $250 $350 forward $240 $-1 #
coedge $-1 $247 $342 $242 $341 reversed $240 $-1 #
edge $-1 $347 -15.591646045363602 $354 15.591646045363602 $340 $401 forward 7 unknown #
coedge $-1 $340 $339 $243 $343 reversed $240 $-1 #
edge $-1 $354 -45.652027954954683 $344 45.652027954954683 $342 $402 forward 7 unknown #
vertex $-1 $245 $403 #
straight-curve $-1 45.652027954954683 0 -15.591646045363602 0 -1 0 I I #
edge $-1 $347 -31.715251135624175 $258 31.715251135624175 $256 $404 forward 7 unknown #
vertex $-1 $248 $405 #
straight-curve $-1 0 31.715251135624175 15.591646045363602 -1 0 0 I I #
straight-curve $-1 0 -31.715251135624175 15.591646045363602 1 0 0 I I #
edge $-1 $253 -15.591646045363602 $344 15.591646045363602 $250 $406 forward 7 unknown #
point $-1 45.652027954954683 -31.715251135624175 15.591646045363602 #
point $-1 45.652027954954683 31.715251135624175 15.591646045363602 #
point $-1 -45.652027954954683 -31.715251135624175 15.591646045363602 #
vertex $-1 $343 $407 #
straight-curve $-1 -45.652027954954683 0 -15.591646045363602 0 1 0 I I #
plane-surface $-1 0 0 15.591646045363602 0 0 1 1 0 0 forward_v I I I I #
coedge $-1 $271 $369 $358 $408 forward $264 $-1 #
coedge $-1 $267 $266 $357 $408 reversed $109 $-1 #
edge $-1 $365 -3.6460764739707194 $363 3.6460764739707194 $266 $409 forward 7 unknown #
coedge $-1 $279 $278 $267 $361 forward $280 $-1 #
edge $-1 $362 -3.6460764739707194 $410 3.6460764739707194 $267 $411 forward 7 unknown #
vertex $-1 $283 $412 #
vertex $-1 $273 $413 #
straight-curve $-1 -22.52136301261222 -51.548156085649794 0 0 0 -1 I I #
vertex $-1 $408 $414 #
straight-curve $-1 -15.229210064670781 -41.631703610636983 -15.591646045363602 0 -1 0 I I #
straight-curve $-1 -22.52136301261222 -41.631703610636983 -15.591646045363602 0 1 0 I I #
point $-1 -15.229210064670781 -31.715251135624172 -15.591646045363602 #
coedge $-1 $357 $276 $279 $371 reversed $264 $-1 #
straight-curve $-1 -15.229210064670781 -31.715251135624175 0 0 0 -1 I I #
edge $-1 $410 -9.9164524750128109 $281 9.9164524750128109 $369 $415 forward 7 unknown #
point $-1 -15.229210064670781 -31.715251135624172 15.591646045363602 #
straight-curve $-1 -22.52136301261222 -41.631703610636983 15.591646045363602 0 -1 0 I I #
edge $-1 $375 12.816620459354739 $378 21.319485273637607 $287 $416 forward 7 unknown #
vertex $-1 $301 $417 #
straight-curve $-1 -61.113026555733143 22.936504439050506 15.591646045363603 -1 0 0 I I #
edge $-1 $378 -14.603149387368108 $298 -2.0635607159966884 $297 $418 forward 7 unknown #
vertex $-1 $377 $419 #
straight-curve $-1 -45.65202795495469 22.936504439050506 7.0887812310807234 0.54463902268945019 0 0.83867057594974714 I I #
point $-1 -40.130203158290989 22.936504439050506 15.591646045363602 #
point $-1 -45.652027954954683 10.396915767679086 7.0887812310807341 #
straight-curve $-1 -45.652027954954683 0 15.591646045363602 0 -1 0 I I #
vertex $-1 $304 $420 #
point $-1 -40.941685248161889 13.97965538807092 10.670420474958714 #
vertex $-1 $308 $421 #
point $-1 -40.941685248161889 19.353764818658671 10.670420474958714 #
coedge $-1 $323 $322 $315 $388 forward $312 $-1 #
edge $-1 $389 51.103633037610535 $392 59.606497851893408 $387 $422 forward 7 unknown #
vertex $-1 $327 $423 #
straight-curve $-1 36.249150666555167 10.396915767679086 15.591646045363603 1 0 0 I I #
edge $-1 $392 2.0635607159966884 $324 14.603149387368108 $323 $424 forward 7 unknown #
vertex $-1 $391 $425 #
straight-curve $-1 -4.0757238234012618 10.396915767679086 83.662806387592326 -0.54463902268945019 0 0.83867057594974714 I I #
point $-1 40.130203158290996 10.396915767679086 15.591646045363603 #
point $-1 45.652027954954683 22.936504439050506 7.0887812310807305 #
straight-curve $-1 45.652027954954683 0 15.591646045363602 0 1 0 I I #
vertex $-1 $330 $426 #
point $-1 41.486324270851348 13.97965538807092 9.8317498990089529 #
vertex $-1 $334 $427 #
point $-1 41.486324270851348 19.353764818658671 9.8317498990089529 #
straight-curve $-1 -45.652027954954683 31.715251135624175 0 0 0 -1 I I #
straight-curve $-1 0 31.715251135624175 -15.591646045363602 1 0 0 I I #
point $-1 45.652027954954683 31.715251135624175 -15.591646045363602 #
straight-curve $-1 -45.652027954954683 0 15.591646045363602 0 -1 0 I I #
point $-1 -45.652027954954683 31.715251135624175 15.591646045363602 #
straight-curve $-1 45.652027954954683 31.715251135624175 0 0 0 -1 I I #
point $-1 -45.652027954954683 31.715251135624175 -15.591646045363602 #
edge $-1 $410 -15.591646045363602 $365 15.591646045363602 $357 $428 forward 7 unknown #
straight-curve $-1 -18.8752865386415 -51.548156085649794 -15.591646045363602 -1 0 0 I I #
vertex $-1 $371 $429 #
straight-curve $-1 -18.8752865386415 -51.548156085649794 15.591646045363602 1 0 0 I I #
point $-1 -22.52136301261222 -51.548156085649794 15.591646045363602 #
point $-1 -22.52136301261222 -51.548156085649794 -15.591646045363602 #
point $-1 -15.229210064670781 -51.548156085649794 -15.591646045363602 #
straight-curve $-1 -15.229210064670781 -41.631703610636983 15.591646045363602 0 1 0 I I #
straight-curve $-1 -45.652027954954683 22.936504439050506 28.408266504718341 0 0 -1 I I #
point $-1 -45.652027954954683 22.936504439050506 15.591646045363602 #
straight-curve $-1 -45.652027954954683 8.333355051682398 7.0887812310807448 0 -1 0 I I #
point $-1 -45.652027954954683 22.936504439050506 7.0887812310807341 #
point $-1 -40.794669471531741 13.97965538807092 9.9787656756391154 #
point $-1 -40.794669471531741 19.353764818658671 9.9787656756391154 #
straight-curve $-1 45.652027954954683 10.396915767679086 66.695279082974139 0 0 -1 I I #
point $-1 45.652027954954683 10.396915767679086 15.591646045363602 #
straight-curve $-1 45.652027954954683 8.333355051682398 7.0887812310807448 0 1 0 I I #
point $-1 45.652027954954683 10.396915767679086 7.0887812310807305 #
point $-1 40.794669471531748 13.97965538807092 9.9787656756391012 #
point $-1 40.794669471531748 19.353764818658671 9.9787656756391012 #
straight-curve $-1 -15.229210064670781 -51.548156085649794 0 0 0 -1 I I #
point $-1 -15.229210064670781 -51.548156085649794 15.591646045363602 #
End-of-ACIS-data 