500 0 12 0           
7 Unknown 11 ACIS 5.0 NT 24 Thu Mar 25 21:44:51 1999 
-1 9.9999999999999995e-007 1e-010 
body $-1 $12 $-1 $13 #
body $-1 $14 $-1 $15 #
body $-1 $16 $-1 $17 #
body $-1 $18 $-1 $19 #
body $-1 $20 $-1 $21 #
body $-1 $22 $-1 $23 #
body $-1 $24 $-1 $25 #
body $-1 $26 $-1 $27 #
body $-1 $28 $-1 $29 #
body $-1 $30 $-1 $31 #
body $-1 $32 $-1 $33 #
body $-1 $34 $-1 $35 #
lump $-1 $-1 $36 $0 #
transform $-1 1 0 0 0 1 0 0 0 1 65.744193853572199 35.841791476872224 7.8768372021883177 1 rotate no_reflect no_shear #
lump $-1 $-1 $37 $1 #
transform $-1 1 0 0 0 1 0 0 0 1 65.744193853572199 35.841791476872224 7.8768372021883177 1 rotate no_reflect no_shear #
lump $-1 $-1 $38 $2 #
transform $-1 1 0 0 0 1 0 0 0 1 65.744193853572199 35.841791476872224 7.8768372021883177 1 rotate no_reflect no_shear #
lump $-1 $-1 $39 $3 #
transform $-1 1 0 0 0 1 0 0 0 1 65.744193853572199 35.841791476872224 7.8768372021883177 1 rotate no_reflect no_shear #
lump $-1 $-1 $40 $4 #
transform $-1 1 0 0 0 1 0 0 0 1 65.744193853572199 35.841791476872224 7.8768372021883177 1 rotate no_reflect no_shear #
lump $-1 $-1 $41 $5 #
transform $-1 1 0 0 0 1 0 0 0 1 65.744193853572199 35.841791476872224 7.8768372021883177 1 rotate no_reflect no_shear #
lump $-1 $-1 $42 $6 #
transform $-1 1 0 0 0 1 0 0 0 1 65.744193853572199 35.841791476872224 7.8768372021883177 1 rotate no_reflect no_shear #
lump $-1 $-1 $43 $7 #
transform $-1 1 0 0 0 1 0 0 0 1 65.744193853572199 35.841791476872224 7.8768372021883177 1 rotate no_reflect no_shear #
lump $-1 $-1 $44 $8 #
transform $-1 1 0 0 0 1 0 0 0 1 65.744193853572199 35.841791476872224 7.8768372021883177 1 rotate no_reflect no_shear #
lump $-1 $-1 $45 $9 #
transform $-1 1 0 0 0 1 0 0 0 1 65.744193853572199 35.841791476872224 7.8768372021883177 1 rotate no_reflect no_shear #
lump $-1 $-1 $46 $10 #
transform $-1 1 0 0 0 1 0 0 0 1 65.744193853572199 35.841791476872224 7.8768372021883177 1 rotate no_reflect no_shear #
lump $-1 $-1 $47 $11 #
transform $-1 1 0 0 0 1 0 0 0 1 65.744193853572199 35.841791476872224 7.8768372021883177 1 rotate no_reflect no_shear #
shell $-1 $-1 $-1 $48 $-1 $12 #
shell $-1 $-1 $-1 $49 $-1 $14 #
shell $-1 $-1 $-1 $50 $-1 $16 #
shell $-1 $-1 $-1 $51 $-1 $18 #
shell $-1 $-1 $-1 $52 $-1 $20 #
shell $-1 $-1 $-1 $53 $-1 $22 #
shell $-1 $-1 $-1 $54 $-1 $24 #
shell $-1 $-1 $-1 $55 $-1 $26 #
shell $-1 $-1 $-1 $56 $-1 $28 #
shell $-1 $-1 $-1 $57 $-1 $30 #
shell $-1 $-1 $-1 $58 $-1 $32 #
shell $-1 $-1 $-1 $59 $-1 $34 #
face $-1 $60 $61 $36 $-1 $62 forward single #
face $-1 $63 $64 $37 $-1 $65 forward single #
face $-1 $66 $67 $38 $-1 $68 reversed single #
face $-1 $69 $70 $39 $-1 $71 forward single #
face $-1 $72 $73 $40 $-1 $74 reversed single #
face $-1 $75 $76 $41 $-1 $77 forward single #
face $-1 $78 $79 $42 $-1 $80 forward single #
face $-1 $81 $82 $43 $-1 $83 forward single #
face $-1 $84 $85 $44 $-1 $86 reversed single #
face $-1 $87 $88 $45 $-1 $89 forward single #
face $-1 $90 $91 $46 $-1 $92 forward single #
face $-1 $93 $94 $47 $-1 $95 forward single #
face $-1 $96 $97 $36 $-1 $98 reversed single #
loop $-1 $-1 $99 $48 #
plane-surface $-1 0 0 7.8768372021883177 0 0 1 1 0 0 forward_v I I I I #
face $-1 $100 $101 $37 $-1 $102 forward single #
loop $-1 $-1 $103 $49 #
plane-surface $-1 0 -35.841791476872224 0 0 1 0 0 0 1 forward_v I I I I #
face $-1 $104 $105 $38 $-1 $106 reversed single #
loop $-1 $-1 $107 $50 #
plane-surface $-1 -146.69652963272739 1.0456339083169937 104.37882193725598 0 1 0 -0.61566148304635926 0 0.78801074757464917 forward_v I I I I #
face $-1 $108 $109 $39 $-1 $110 forward single #
loop $-1 $111 $112 $51 #
cone-surface $-1 -59.854597369856094 5.2820997360116664 2.6082051556296491 0.61566148304635926 0 -0.78801074757464917 1.1820161213619738 0 0.92349222456953894 1 I I 0 1 1.5 forward I I I I #
face $-1 $113 $114 $40 $-1 $115 reversed single #
loop $-1 $-1 $116 $52 #
plane-surface $-1 110.73021688519282 -0.18523296446127091 183.74270753390084 0 -1 0 -0.85716730853699208 0 -0.51503806187062418 forward_v I I I I #
face $-1 $117 $118 $41 $-1 $119 forward single #
loop $-1 $120 $121 $53 #
cone-surface $-1 63.22476457329514 -10.273105201172488 4.9051449009199821 -0.85716730853699208 0 -0.51503806187062418 0.51503806187062418 0 -0.85716730853699208 1 I I 0 1 1 forward I I I I #
face $-1 $122 $123 $42 $-1 $124 forward single #
loop $-1 $125 $126 $54 #
cone-surface $-1 63.22476457329514 -6.4901531124057819 4.9051449009199821 -0.85716730853699208 0 -0.51503806187062418 0.51503806187062418 0 -0.85716730853699208 1 I I 0 1 1 forward I I I I #
face $-1 $127 $128 $43 $-1 $129 forward single #
loop $-1 $130 $131 $55 #
cone-surface $-1 63.22476457329514 -2.7072010236390724 4.9051449009199821 -0.85716730853699208 0 -0.51503806187062418 0.51503806187062418 0 -0.85716730853699208 1 I I 0 1 1 forward I I I I #
face $-1 $132 $133 $44 $-1 $134 reversed single #
loop $-1 $-1 $135 $56 #
plane-surface $-1 110.73021688519282 21.502008476283056 183.74270753390084 0 -1 0 -0.85716730853699208 0 -0.51503806187062418 forward_v I I I I #
face $-1 $136 $137 $45 $-1 $138 forward single #
loop $-1 $139 $140 $57 #
cone-surface $-1 63.22476457329514 11.414136239571839 4.9051449009199821 -0.85716730853699208 0 -0.51503806187062418 0.51503806187062418 0 -0.85716730853699208 1 I I 0 1 1 forward I I I I #
face $-1 $141 $142 $46 $-1 $143 forward single #
loop $-1 $144 $145 $58 #
cone-surface $-1 63.22476457329514 15.197088328338545 4.9051449009199821 -0.85716730853699208 0 -0.51503806187062418 0.51503806187062418 0 -0.85716730853699208 1 I I 0 1 1 forward I I I I #
face $-1 $146 $147 $47 $-1 $148 forward single #
loop $-1 $149 $150 $59 #
cone-surface $-1 63.22476457329514 18.980040417105258 4.9051449009199821 -0.85716730853699208 0 -0.51503806187062418 0.51503806187062418 0 -0.85716730853699208 1 I I 0 1 1 forward I I I I #
face $-1 $151 $152 $36 $-1 $153 reversed single #
loop $-1 $-1 $154 $60 #
plane-surface $-1 0 0 -7.8768372021883177 0 0 1 1 0 0 forward_v I I I I #
coedge $-1 $155 $156 $157 $158 forward $61 $-1 #
face $-1 $159 $160 $37 $-1 $161 reversed single #
loop $-1 $-1 $162 $63 #
plane-surface $-1 0 0 7.8768372021883177 0 0 1 1 0 0 forward_v I I I I #
coedge $-1 $163 $164 $165 $166 forward $64 $-1 #
face $-1 $167 $168 $38 $-1 $169 reversed single #
loop $-1 $-1 $170 $66 #
plane-surface $-1 -65.744193853572199 5.2820997360116664 0.76455924276380927 -0.61566148304635926 0 0.78801074757464917 0.78801074757464917 0 0.61566148304635926 forward_v I I I I #
coedge $-1 $171 $172 $173 $174 reversed $67 $-1 #
face $-1 $-1 $175 $39 $-1 $176 forward single #
loop $-1 $177 $178 $69 #
cone-surface $-1 -58.054905011931581 5.2820997360116664 0.30470402810225217 0.61566148304635926 0 -0.78801074757464917 0.59100806068098688 0 0.46174611228476947 1 I I -0.70710678118654757 0.70710678118654757 0.75 forward I I I I #
loop $-1 $-1 $179 $51 #
coedge $-1 $112 $112 $180 $181 reversed $70 $-1 #
face $-1 $182 $183 $40 $-1 $184 reversed single #
loop $-1 $-1 $185 $72 #
plane-surface $-1 -1.9773305096086631 -6.4901531124057819 116.02118317071998 0.85716730853699208 0 0.51503806187062418 0.51503806187062418 0 -0.85716730853699208 forward_v I I I I #
coedge $-1 $186 $187 $188 $189 reversed $73 $-1 #
face $-1 $-1 $190 $41 $-1 $191 forward single #
loop $-1 $192 $193 $75 #
cone-surface $-1 61.647675608378492 -10.273105201172488 3.9575342818512471 -0.85716730853699208 0 -0.51503806187062418 0.25751903093531209 0 -0.42858365426849604 1 I I -0.70710678118654746 0.70710678118654746 0.5 forward I I I I #
loop $-1 $-1 $194 $53 #
coedge $-1 $121 $121 $195 $196 reversed $76 $-1 #
face $-1 $-1 $197 $42 $-1 $198 forward single #
loop $-1 $199 $200 $78 #
cone-surface $-1 61.647675608378492 -6.4901531124057819 3.9575342818512471 -0.85716730853699208 0 -0.51503806187062418 0.25751903093531209 0 -0.42858365426849604 1 I I -0.70710678118654746 0.70710678118654746 0.5 forward I I I I #
loop $-1 $-1 $201 $54 #
coedge $-1 $126 $126 $202 $203 reversed $79 $-1 #
face $-1 $-1 $204 $43 $-1 $205 forward single #
loop $-1 $206 $207 $81 #
cone-surface $-1 61.647675608378492 -2.7072010236390724 3.9575342818512471 -0.85716730853699208 0 -0.51503806187062418 0.25751903093531209 0 -0.42858365426849604 1 I I -0.70710678118654746 0.70710678118654746 0.5 forward I I I I #
loop $-1 $-1 $208 $55 #
coedge $-1 $131 $131 $209 $210 reversed $82 $-1 #
face $-1 $211 $212 $44 $-1 $213 reversed single #
loop $-1 $-1 $214 $84 #
plane-surface $-1 -1.9773305096086631 15.197088328338545 116.02118317071998 0.85716730853699208 0 0.51503806187062418 0.51503806187062418 0 -0.85716730853699208 forward_v I I I I #
coedge $-1 $215 $216 $217 $218 reversed $85 $-1 #
face $-1 $-1 $219 $45 $-1 $220 forward single #
loop $-1 $221 $222 $87 #
cone-surface $-1 61.647675608378492 11.414136239571839 3.9575342818512471 -0.85716730853699208 0 -0.51503806187062418 0.25751903093531209 0 -0.42858365426849604 1 I I -0.70710678118654746 0.70710678118654746 0.5 forward I I I I #
loop $-1 $-1 $223 $57 #
coedge $-1 $140 $140 $224 $225 reversed $88 $-1 #
face $-1 $-1 $226 $46 $-1 $227 forward single #
loop $-1 $228 $229 $90 #
cone-surface $-1 61.647675608378492 15.197088328338545 3.9575342818512471 -0.85716730853699208 0 -0.51503806187062418 0.25751903093531209 0 -0.42858365426849604 1 I I -0.70710678118654746 0.70710678118654746 0.5 forward I I I I #
loop $-1 $-1 $230 $58 #
coedge $-1 $145 $145 $231 $232 reversed $91 $-1 #
face $-1 $-1 $233 $47 $-1 $234 forward single #
loop $-1 $235 $236 $93 #
cone-surface $-1 61.647675608378492 18.980040417105258 3.9575342818512471 -0.85716730853699208 0 -0.51503806187062418 0.25751903093531209 0 -0.42858365426849604 1 I I -0.70710678118654746 0.70710678118654746 0.5 forward I I I I #
loop $-1 $-1 $237 $59 #
coedge $-1 $150 $150 $238 $239 reversed $94 $-1 #
face $-1 $240 $241 $36 $-1 $242 reversed single #
loop $-1 $-1 $243 $96 #
plane-surface $-1 0 -35.841791476872224 0 0 1 0 0 0 1 forward_v I I I I #
coedge $-1 $244 $245 $246 $247 forward $97 $-1 #
coedge $-1 $248 $99 $249 $250 forward $61 $-1 #
coedge $-1 $99 $248 $251 $252 forward $61 $-1 #
coedge $-1 $253 $254 $99 $158 reversed $255 $-1 #
edge $-1 $256 -35.841791476872224 $257 35.841791476872224 $157 $258 forward 7 unknown #
face $-1 $259 $260 $37 $-1 $261 reversed single #
loop $-1 $-1 $262 $100 #
plane-surface $-1 -65.744193853572199 0 0 1 0 0 0 0 -1 forward_v I I I I #
coedge $-1 $263 $264 $265 $266 forward $101 $-1 #
coedge $-1 $265 $103 $262 $267 reversed $64 $-1 #
coedge $-1 $103 $265 $268 $269 reversed $64 $-1 #
coedge $-1 $270 $271 $103 $166 reversed $260 $-1 #
edge $-1 $272 -65.744193853572199 $273 65.744193853572199 $165 $274 forward 7 unknown #
face $-1 $275 $276 $38 $-1 $277 forward single #
loop $-1 $-1 $278 $104 #
plane-surface $-1 -146.69652963272739 9.5185655637063391 104.37882193725598 0 -1 0 0.61566148304635926 0 -0.78801074757464917 forward_v I I I I #
coedge $-1 $279 $280 $281 $282 reversed $105 $-1 #
coedge $-1 $172 $107 $283 $284 reversed $67 $-1 #
coedge $-1 $107 $171 $279 $285 reversed $67 $-1 #
coedge $-1 $281 $286 $107 $174 forward $276 $-1 #
edge $-1 $287 7.6040709627914964 $288 16.707371438944207 $173 $289 forward 7 unknown #
loop $-1 $-1 $180 $108 #
plane-surface $-1 -65.744193853572199 5.2820997360116664 0.76455924276380927 -0.61566148304635926 0 0.78801074757464917 0.78801074757464917 0 0.61566148304635926 forward_v I I I I #
loop $-1 $-1 $290 $69 #
coedge $-1 $178 $178 $179 $291 reversed $109 $-1 #
coedge $-1 $179 $179 $178 $291 forward $111 $-1 #
coedge $-1 $180 $180 $112 $181 forward $175 $-1 #
edge $-1 $292 0 $292 6.2831853071796004 $180 $293 forward 7 unknown #
face $-1 $294 $295 $40 $-1 $296 reversed single #
loop $-1 $-1 $297 $113 #
plane-surface $-1 110.73021688519282 -12.795073260350293 183.74270753390084 0 1 0 0.85716730853699208 0 0.51503806187062418 forward_v I I I I #
coedge $-1 $298 $299 $300 $301 reversed $114 $-1 #
coedge $-1 $187 $116 $302 $303 reversed $73 $-1 #
coedge $-1 $116 $186 $298 $304 reversed $73 $-1 #
coedge $-1 $300 $305 $116 $189 forward $306 $-1 #
edge $-1 $307 -10.37908541097579 $308 -7.6372374717180236 $188 $309 forward 7 unknown #
loop $-1 $-1 $195 $117 #
plane-surface $-1 -1.9773305096086631 -6.4901531124057819 116.02118317071998 0.85716730853699208 0 0.51503806187062418 0.51503806187062418 0 -0.85716730853699208 forward_v I I I I #
loop $-1 $-1 $310 $75 #
coedge $-1 $193 $193 $194 $311 reversed $118 $-1 #
coedge $-1 $194 $194 $193 $311 forward $120 $-1 #
coedge $-1 $195 $195 $121 $196 forward $190 $-1 #
edge $-1 $312 0 $312 6.2831853071796004 $195 $313 forward 7 unknown #
loop $-1 $-1 $202 $122 #
plane-surface $-1 -1.9773305096086631 -6.4901531124057819 116.02118317071998 0.85716730853699208 0 0.51503806187062418 0.51503806187062418 0 -0.85716730853699208 forward_v I I I I #
loop $-1 $-1 $314 $78 #
coedge $-1 $200 $200 $201 $315 reversed $123 $-1 #
coedge $-1 $201 $201 $200 $315 forward $125 $-1 #
coedge $-1 $202 $202 $126 $203 forward $197 $-1 #
edge $-1 $316 0 $316 6.2831853071796004 $202 $317 forward 7 unknown #
loop $-1 $-1 $209 $127 #
plane-surface $-1 -1.9773305096086631 -6.4901531124057819 116.02118317071998 0.85716730853699208 0 0.51503806187062418 0.51503806187062418 0 -0.85716730853699208 forward_v I I I I #
loop $-1 $-1 $318 $81 #
coedge $-1 $207 $207 $208 $319 reversed $128 $-1 #
coedge $-1 $208 $208 $207 $319 forward $130 $-1 #
coedge $-1 $209 $209 $131 $210 forward $204 $-1 #
edge $-1 $320 0 $320 6.2831853071796004 $209 $321 forward 7 unknown #
face $-1 $322 $323 $44 $-1 $324 reversed single #
loop $-1 $-1 $325 $132 #
plane-surface $-1 110.73021688519282 8.8921681803940338 183.74270753390084 0 1 0 0.85716730853699208 0 0.51503806187062418 forward_v I I I I #
coedge $-1 $326 $327 $328 $329 reversed $133 $-1 #
coedge $-1 $216 $135 $330 $331 reversed $85 $-1 #
coedge $-1 $135 $215 $326 $332 reversed $85 $-1 #
coedge $-1 $328 $333 $135 $218 forward $334 $-1 #
edge $-1 $335 -10.37908541097579 $336 -7.6372374717180236 $217 $337 forward 7 unknown #
loop $-1 $-1 $224 $136 #
plane-surface $-1 -1.9773305096086631 15.197088328338545 116.02118317071998 0.85716730853699208 0 0.51503806187062418 0.51503806187062418 0 -0.85716730853699208 forward_v I I I I #
loop $-1 $-1 $338 $87 #
coedge $-1 $222 $222 $223 $339 reversed $137 $-1 #
coedge $-1 $223 $223 $222 $339 forward $139 $-1 #
coedge $-1 $224 $224 $140 $225 forward $219 $-1 #
edge $-1 $340 0 $340 6.2831853071796004 $224 $341 forward 7 unknown #
loop $-1 $-1 $231 $141 #
plane-surface $-1 -1.9773305096086631 15.197088328338545 116.02118317071998 0.85716730853699208 0 0.51503806187062418 0.51503806187062418 0 -0.85716730853699208 forward_v I I I I #
loop $-1 $-1 $342 $90 #
coedge $-1 $229 $229 $230 $343 reversed $142 $-1 #
coedge $-1 $230 $230 $229 $343 forward $144 $-1 #
coedge $-1 $231 $231 $145 $232 forward $226 $-1 #
edge $-1 $344 0 $344 6.2831853071796004 $231 $345 forward 7 unknown #
loop $-1 $-1 $238 $146 #
plane-surface $-1 -1.9773305096086631 15.197088328338545 116.02118317071998 0.85716730853699208 0 0.51503806187062418 0.51503806187062418 0 -0.85716730853699208 forward_v I I I I #
loop $-1 $-1 $346 $93 #
coedge $-1 $236 $236 $237 $347 reversed $147 $-1 #
coedge $-1 $237 $237 $236 $347 forward $149 $-1 #
coedge $-1 $238 $238 $150 $239 forward $233 $-1 #
edge $-1 $348 0 $348 6.2831853071796004 $238 $349 forward 7 unknown #
face $-1 $350 $351 $36 $-1 $352 reversed single #
loop $-1 $-1 $353 $151 #
plane-surface $-1 -65.744193853572199 0 0 1 0 0 0 0 -1 forward_v I I I I #
coedge $-1 $354 $251 $355 $356 forward $152 $-1 #
coedge $-1 $357 $154 $354 $358 forward $97 $-1 #
coedge $-1 $154 $357 $359 $360 forward $97 $-1 #
coedge $-1 $254 $253 $154 $247 reversed $255 $-1 #
edge $-1 $361 -35.841791476872224 $362 35.841791476872224 $246 $363 forward 7 unknown #
coedge $-1 $156 $155 $364 $365 forward $61 $-1 #
coedge $-1 $366 $367 $155 $250 reversed $351 $-1 #
edge $-1 $257 -65.744193853572199 $368 65.744193853572199 $249 $369 forward 7 unknown #
coedge $-1 $243 $370 $156 $252 reversed $152 $-1 #
edge $-1 $371 -65.744193853572199 $256 65.744193853572199 $251 $372 forward 7 unknown #
coedge $-1 $246 $157 $370 $373 forward $255 $-1 #
coedge $-1 $157 $246 $366 $374 reversed $255 $-1 #
loop $-1 $-1 $253 $350 #
vertex $-1 $158 $375 #
vertex $-1 $158 $376 #
straight-curve $-1 65.744193853572199 0 7.8768372021883177 0 1 0 I I #
face $-1 $377 $378 $37 $-1 $379 reversed single #
loop $-1 $-1 $270 $159 #
plane-surface $-1 0 -40.195259084838611 4.5401852128754632 0 0 1 1 0 0 forward_v I I I I #
coedge $-1 $380 $381 $163 $267 forward $160 $-1 #
coedge $-1 $382 $162 $381 $383 forward $101 $-1 #
coedge $-1 $162 $382 $384 $385 forward $101 $-1 #
coedge $-1 $164 $163 $162 $266 reversed $64 $-1 #
edge $-1 $386 -65.744193853572199 $387 65.744193853572199 $162 $388 forward 7 unknown #
edge $-1 $387 -7.8768372021883177 $273 -4.5401852128754632 $262 $389 forward 7 unknown #
coedge $-1 $384 $390 $164 $269 forward $391 $-1 #
edge $-1 $272 4.5401852128754632 $386 7.8768372021883177 $268 $392 forward 7 unknown #
coedge $-1 $393 $165 $390 $394 forward $260 $-1 #
coedge $-1 $165 $393 $380 $395 forward $260 $-1 #
vertex $-1 $269 $396 #
vertex $-1 $267 $397 #
straight-curve $-1 0 -35.841791476872224 4.5401852128754632 -1 0 0 I I #
face $-1 $-1 $398 $38 $-1 $399 reversed single #
loop $-1 $-1 $173 $167 #
plane-surface $-1 0 0 7.8768372021883177 0 0 1 1 0 0 forward_v I I I I #
coedge $-1 $400 $401 $402 $403 reversed $168 $-1 #
coedge $-1 $404 $170 $172 $285 forward $105 $-1 #
coedge $-1 $170 $404 $400 $405 forward $105 $-1 #
coedge $-1 $402 $173 $170 $282 forward $276 $-1 #
edge $-1 $288 -1.5954159596888395 $406 6.8775156957005059 $281 $407 forward 7 unknown #
coedge $-1 $408 $409 $171 $284 forward $398 $-1 #
edge $-1 $410 -51.42485172586418 $287 -44.312573766439669 $283 $411 forward 7 unknown #
edge $-1 $288 -11.552254209946984 $410 0 $172 $412 forward 7 unknown #
coedge $-1 $173 $402 $408 $413 forward $276 $-1 #
vertex $-1 $284 $414 #
vertex $-1 $174 $415 #
straight-curve $-1 -73.348264816363695 1.0456339083169937 7.8768372021883195 1 0 0 I I #
coedge $-1 $290 $290 $-1 $416 reversed $177 $-1 #
edge $-1 $417 0 $417 6.2831853071796004 $178 $418 forward 7 unknown #
vertex $-1 $181 $419 #
ellipse-curve $-1 -61.192543615495843 5.2820997360116664 4.3206982224760644 -0.61566148304635926 0 0.78801074757464917 1.1820161213619738 0 0.92349222456953894 1 I I #
face $-1 $-1 $306 $40 $-1 $420 forward single #
loop $-1 $-1 $421 $182 #
plane-surface $-1 65.744193853572199 0 0 -1 0 0 0 0 1 forward_v I I I I #
coedge $-1 $422 $423 $424 $425 reversed $183 $-1 #
coedge $-1 $426 $185 $187 $304 forward $114 $-1 #
coedge $-1 $185 $426 $422 $427 forward $114 $-1 #
coedge $-1 $424 $188 $185 $301 forward $306 $-1 #
edge $-1 $308 -3.05984359174162 $428 9.5499967041474019 $300 $429 forward 7 unknown #
coedge $-1 $430 $431 $186 $303 forward $295 $-1 #
edge $-1 $432 -88.557717991031907 $307 -83.994516564762108 $302 $433 forward 7 unknown #
edge $-1 $308 126.16480457369728 $432 131.48838770714443 $187 $434 forward 7 unknown #
coedge $-1 $188 $424 $430 $435 forward $306 $-1 #
loop $-1 $-1 $424 $294 #
vertex $-1 $303 $436 #
vertex $-1 $189 $437 #
straight-curve $-1 55.365108442596409 -0.18523296446127091 7.8768372021883124 -1 0 0 I I #
coedge $-1 $310 $310 $-1 $438 reversed $192 $-1 #
edge $-1 $439 0 $439 6.2831853071796004 $193 $440 forward 7 unknown #
vertex $-1 $196 $441 #
ellipse-curve $-1 64.373269883943308 -10.273105201172488 5.5952364890534119 0.85716730853699208 0 0.51503806187062418 0.51503806187062418 0 -0.85716730853699208 1 I I #
coedge $-1 $314 $314 $-1 $442 reversed $199 $-1 #
edge $-1 $443 0 $443 6.2831853071796004 $200 $444 forward 7 unknown #
vertex $-1 $203 $445 #
ellipse-curve $-1 64.373269883943308 -6.4901531124057819 5.5952364890534119 0.85716730853699208 0 0.51503806187062418 0.51503806187062418 0 -0.85716730853699208 1 I I #
coedge $-1 $318 $318 $-1 $446 reversed $206 $-1 #
edge $-1 $447 0 $447 6.2831853071796004 $207 $448 forward 7 unknown #
vertex $-1 $210 $449 #
ellipse-curve $-1 64.373269883943308 -2.7072010236390724 5.5952364890534119 0.85716730853699208 0 0.51503806187062418 0.51503806187062418 0 -0.85716730853699208 1 I I #
face $-1 $-1 $334 $44 $-1 $450 forward single #
loop $-1 $-1 $451 $211 #
plane-surface $-1 65.744193853572199 0 0 -1 0 0 0 0 1 forward_v I I I I #
coedge $-1 $452 $453 $454 $455 reversed $212 $-1 #
coedge $-1 $456 $214 $216 $332 forward $133 $-1 #
coedge $-1 $214 $456 $452 $457 forward $133 $-1 #
coedge $-1 $454 $217 $214 $329 forward $334 $-1 #
edge $-1 $336 -13.903464312113783 $458 -1.2936240162247614 $328 $459 forward 7 unknown #
coedge $-1 $460 $461 $215 $331 forward $323 $-1 #
edge $-1 $462 -88.557717991031907 $335 -83.994516564762108 $330 $463 forward 7 unknown #
edge $-1 $336 126.16480457369728 $462 131.48838770714443 $216 $464 forward 7 unknown #
coedge $-1 $217 $454 $460 $465 forward $334 $-1 #
loop $-1 $-1 $454 $322 #
vertex $-1 $331 $466 #
vertex $-1 $218 $467 #
straight-curve $-1 55.365108442596409 21.502008476283056 7.8768372021883124 -1 0 0 I I #
coedge $-1 $338 $338 $-1 $468 reversed $221 $-1 #
edge $-1 $469 0 $469 6.2831853071796004 $222 $470 forward 7 unknown #
vertex $-1 $225 $471 #
ellipse-curve $-1 64.373269883943308 11.414136239571839 5.5952364890534119 0.85716730853699208 0 0.51503806187062418 0.51503806187062418 0 -0.85716730853699208 1 I I #
coedge $-1 $342 $342 $-1 $472 reversed $228 $-1 #
edge $-1 $473 0 $473 6.2831853071796004 $229 $474 forward 7 unknown #
vertex $-1 $232 $475 #
ellipse-curve $-1 64.373269883943308 15.197088328338545 5.5952364890534119 0.85716730853699208 0 0.51503806187062418 0.51503806187062418 0 -0.85716730853699208 1 I I #
coedge $-1 $346 $346 $-1 $476 reversed $235 $-1 #
edge $-1 $477 0 $477 6.2831853071796004 $236 $478 forward 7 unknown #
vertex $-1 $239 $479 #
ellipse-curve $-1 64.373269883943308 18.980040417105258 5.5952364890534119 0.85716730853699208 0 0.51503806187062418 0.51503806187062418 0 -0.85716730853699208 1 I I #
face $-1 $-1 $255 $36 $-1 $480 reversed single #
loop $-1 $-1 $366 $240 #
plane-surface $-1 0 35.841791476872224 0 0 -1 0 0 0 -1 forward_v I I I I #
coedge $-1 $481 $364 $367 $482 forward $241 $-1 #
coedge $-1 $370 $243 $244 $358 reversed $152 $-1 #
coedge $-1 $364 $481 $243 $356 reversed $241 $-1 #
edge $-1 $371 -7.8768372021883177 $483 7.8768372021883177 $355 $484 forward 7 unknown #
coedge $-1 $245 $244 $481 $485 forward $97 $-1 #
edge $-1 $362 -65.744193853572199 $483 65.744193853572199 $354 $486 forward 7 unknown #
coedge $-1 $367 $366 $245 $360 reversed $351 $-1 #
edge $-1 $487 -65.744193853572199 $361 65.744193853572199 $359 $488 forward 7 unknown #
vertex $-1 $247 $489 #
vertex $-1 $373 $490 #
straight-curve $-1 65.744193853572199 0 -7.8768372021883177 0 -1 0 I I #
coedge $-1 $353 $355 $248 $365 reversed $241 $-1 #
edge $-1 $368 -35.841791476872224 $371 35.841791476872224 $364 $491 forward 7 unknown #
coedge $-1 $359 $249 $254 $374 forward $351 $-1 #
coedge $-1 $249 $359 $353 $482 reversed $351 $-1 #
vertex $-1 $250 $492 #
straight-curve $-1 0 35.841791476872224 7.8768372021883177 -1 0 0 I I #
coedge $-1 $251 $354 $253 $373 reversed $152 $-1 #
vertex $-1 $365 $493 #
straight-curve $-1 0 -35.841791476872224 7.8768372021883177 1 0 0 I I #
edge $-1 $256 -7.8768372021883177 $362 7.8768372021883177 $253 $494 forward 7 unknown #
edge $-1 $257 -7.8768372021883177 $361 7.8768372021883177 $254 $495 forward 7 unknown #
point $-1 65.744193853572199 -35.841791476872224 7.8768372021883177 #
point $-1 65.744193853572199 35.841791476872224 7.8768372021883177 #
face $-1 $-1 $391 $37 $-1 $496 reversed single #
loop $-1 $-1 $497 $259 #
plane-surface $-1 0 -44.548726692804998 6.20851120753189 0 1 0 0 0 1 forward_v I I I I #
coedge $-1 $498 $262 $271 $395 reversed $160 $-1 #
coedge $-1 $262 $498 $263 $383 reversed $160 $-1 #
coedge $-1 $264 $263 $499 $500 forward $101 $-1 #
edge $-1 $387 35.841791476872224 $501 44.548726692804998 $381 $502 forward 7 unknown #
coedge $-1 $503 $268 $264 $385 reversed $391 $-1 #
edge $-1 $504 -44.548726692804998 $386 -35.841791476872224 $384 $505 forward 7 unknown #
vertex $-1 $269 $506 #
vertex $-1 $383 $507 #
straight-curve $-1 0 -35.841791476872224 7.8768372021883177 -1 0 0 I I #
straight-curve $-1 -65.744193853572199 -35.841791476872224 0 0 0 -1 I I #
coedge $-1 $268 $503 $270 $394 reversed $391 $-1 #
loop $-1 $-1 $268 $377 #
straight-curve $-1 65.744193853572199 -35.841791476872224 0 0 0 1 I I #
coedge $-1 $271 $270 $508 $509 forward $260 $-1 #
edge $-1 $272 -4.3534676079663868 $510 4.3534676079663868 $390 $511 forward 7 unknown #
edge $-1 $512 -4.3534676079663868 $273 4.3534676079663868 $380 $513 forward 7 unknown #
point $-1 65.744193853572199 -35.841791476872224 4.5401852128754632 #
point $-1 -65.744193853572199 -35.841791476872224 4.5401852128754632 #
loop $-1 $-1 $283 $275 #
plane-surface $-1 -65.744193853572199 0 0 1 0 0 0 0 -1 forward_v I I I I #
coedge $-1 $401 $278 $280 $405 reversed $168 $-1 #
coedge $-1 $278 $400 $514 $515 reversed $168 $-1 #
coedge $-1 $286 $281 $278 $403 forward $276 $-1 #
edge $-1 $406 -16.707371438944207 $516 -7.6040709627914964 $402 $517 forward 7 unknown #
coedge $-1 $280 $279 $409 $518 reversed $105 $-1 #
edge $-1 $519 0 $406 11.552254209946984 $400 $520 forward 7 unknown #
vertex $-1 $282 $521 #
straight-curve $-1 -56.640893377419488 2.6410498680058332 7.8768372021883177 0 1 0 I I #
coedge $-1 $514 $283 $286 $413 reversed $398 $-1 #
coedge $-1 $283 $514 $404 $518 forward $398 $-1 #
vertex $-1 $284 $522 #
straight-curve $-1 -65.744193853572199 1.0456339083169937 52.189410968627989 0 0 1 I I #
straight-curve $-1 -65.744193853572199 1.0456339083169937 0.76455924276380927 -0.78801074757464917 0 -0.61566148304635926 I I #
edge $-1 $516 -9.5185655637063391 $287 -1.0456339083169937 $408 $523 forward 7 unknown #
point $-1 -65.744193853572199 1.0456339083169937 7.8768372021883177 #
point $-1 -56.640893377419488 1.0456339083169937 7.8768372021883177 #
edge $-1 $524 1 $524 0 $290 $-1 forward 7 unknown #
vertex $-1 $291 $525 #
ellipse-curve $-1 -58.516651124216352 5.2820997360116664 0.89571208878323905 -0.61566148304635926 0 0.78801074757464917 1.1820161213619738 0 0.92349222456953894 1 I I #
point $-1 -60.010527494133861 5.2820997360116664 5.2441904470455984 #
plane-surface $-1 0 0 7.8768372021883177 0 0 1 1 0 0 forward_v I I I I #
coedge $-1 $431 $430 $423 $526 forward $295 $-1 #
coedge $-1 $423 $297 $299 $427 reversed $183 $-1 #
coedge $-1 $297 $422 $421 $526 reversed $183 $-1 #
coedge $-1 $305 $300 $297 $425 forward $306 $-1 #
edge $-1 $428 7.6372374717180236 $527 10.37908541097579 $424 $528 forward 7 unknown #
coedge $-1 $299 $298 $431 $529 reversed $114 $-1 #
edge $-1 $530 -131.48838770714443 $428 -126.16480457369728 $422 $531 forward 7 unknown #
vertex $-1 $301 $532 #
straight-curve $-1 63.002345914314432 -3.2450765562028909 7.8768372021883124 0 -1 0 I I #
coedge $-1 $421 $302 $305 $435 reversed $295 $-1 #
coedge $-1 $302 $421 $426 $529 forward $295 $-1 #
vertex $-1 $303 $533 #
straight-curve $-1 65.744193853572199 -0.18523296446127091 91.871353766950421 0 0 1 I I #
straight-curve $-1 -1.9773305096086631 -0.18523296446127091 116.02118317071998 0.51503806187062418 0 -0.85716730853699208 I I #
edge $-1 $527 -12.795073260350293 $307 -0.18523296446127091 $430 $534 forward 7 unknown #
point $-1 65.744193853572199 -0.18523296446127091 7.8768372021883177 #
point $-1 63.002345914314432 -0.18523296446127091 7.8768372021883124 #
edge $-1 $535 1 $535 0 $310 $-1 forward 7 unknown #
vertex $-1 $311 $536 #
ellipse-curve $-1 62.076259262646985 -10.273105201172488 4.2150533127865595 0.85716730853699208 0 0.51503806187062418 0.51503806187062418 0 -0.85716730853699208 1 I I #
point $-1 64.888307945813921 -10.273105201172488 4.7380691805164137 #
edge $-1 $537 1 $537 0 $314 $-1 forward 7 unknown #
vertex $-1 $315 $538 #
ellipse-curve $-1 62.076259262646985 -6.4901531124057819 4.2150533127865595 0.85716730853699208 0 0.51503806187062418 0.51503806187062418 0 -0.85716730853699208 1 I I #
point $-1 64.888307945813921 -6.4901531124057819 4.7380691805164137 #
edge $-1 $539 1 $539 0 $318 $-1 forward 7 unknown #
vertex $-1 $319 $540 #
ellipse-curve $-1 62.076259262646985 -2.7072010236390724 4.2150533127865595 0.85716730853699208 0 0.51503806187062418 0.51503806187062418 0 -0.85716730853699208 1 I I #
point $-1 64.888307945813921 -2.7072010236390724 4.7380691805164137 #
plane-surface $-1 0 0 7.8768372021883177 0 0 1 1 0 0 forward_v I I I I #
coedge $-1 $461 $460 $453 $541 forward $323 $-1 #
coedge $-1 $453 $325 $327 $457 reversed $212 $-1 #
coedge $-1 $325 $452 $451 $541 reversed $212 $-1 #
coedge $-1 $333 $328 $325 $455 forward $334 $-1 #
edge $-1 $458 7.6372374717180236 $542 10.37908541097579 $454 $543 forward 7 unknown #
coedge $-1 $327 $326 $461 $544 reversed $133 $-1 #
edge $-1 $545 -131.48838770714443 $458 -126.16480457369728 $452 $546 forward 7 unknown #
vertex $-1 $329 $547 #
straight-curve $-1 63.002345914314432 7.5985441641692724 7.8768372021883124 0 -1 0 I I #
coedge $-1 $451 $330 $333 $465 reversed $323 $-1 #
coedge $-1 $330 $451 $456 $544 forward $323 $-1 #
vertex $-1 $331 $548 #
straight-curve $-1 65.744193853572199 21.502008476283056 91.871353766950421 0 0 1 I I #
straight-curve $-1 -1.9773305096086631 21.502008476283056 116.02118317071998 0.51503806187062418 0 -0.85716730853699208 I I #
edge $-1 $542 8.8921681803940338 $335 21.502008476283056 $460 $549 forward 7 unknown #
point $-1 65.744193853572199 21.502008476283056 7.8768372021883177 #
point $-1 63.002345914314432 21.502008476283056 7.8768372021883124 #
edge $-1 $550 1 $550 0 $338 $-1 forward 7 unknown #
vertex $-1 $339 $551 #
ellipse-curve $-1 62.076259262646985 11.414136239571839 4.2150533127865595 0.85716730853699208 0 0.51503806187062418 0.51503806187062418 0 -0.85716730853699208 1 I I #
point $-1 64.888307945813921 11.414136239571839 4.7380691805164137 #
edge $-1 $552 1 $552 0 $342 $-1 forward 7 unknown #
vertex $-1 $343 $553 #
ellipse-curve $-1 62.076259262646985 15.197088328338545 4.2150533127865595 0.85716730853699208 0 0.51503806187062418 0.51503806187062418 0 -0.85716730853699208 1 I I #
point $-1 64.888307945813921 15.197088328338545 4.7380691805164137 #
edge $-1 $554 1 $554 0 $346 $-1 forward 7 unknown #
vertex $-1 $347 $555 #
ellipse-curve $-1 62.076259262646985 18.980040417105258 4.2150533127865595 0.85716730853699208 0 0.51503806187062418 0.51503806187062418 0 -0.85716730853699208 1 I I #
point $-1 64.888307945813921 18.980040417105258 4.7380691805164137 #
plane-surface $-1 65.744193853572199 0 0 -1 0 0 0 0 1 forward_v I I I I #
coedge $-1 $355 $353 $357 $485 reversed $241 $-1 #
edge $-1 $368 -7.8768372021883177 $487 7.8768372021883177 $367 $556 forward 7 unknown #
vertex $-1 $485 $557 #
straight-curve $-1 -65.744193853572199 -35.841791476872224 0 0 0 -1 I I #
edge $-1 $483 -35.841791476872224 $487 35.841791476872224 $481 $558 forward 7 unknown #
straight-curve $-1 0 -35.841791476872224 -7.8768372021883177 -1 0 0 I I #
vertex $-1 $360 $559 #
straight-curve $-1 0 35.841791476872224 -7.8768372021883177 1 0 0 I I #
point $-1 65.744193853572199 35.841791476872224 -7.8768372021883177 #
point $-1 65.744193853572199 -35.841791476872224 -7.8768372021883177 #
straight-curve $-1 -65.744193853572199 0 7.8768372021883177 0 -1 0 I I #
point $-1 -65.744193853572199 35.841791476872224 7.8768372021883177 #
point $-1 -65.744193853572199 -35.841791476872224 7.8768372021883177 #
straight-curve $-1 65.744193853572199 -35.841791476872224 0 0 0 -1 I I #
straight-curve $-1 65.744193853572199 35.841791476872224 0 0 0 -1 I I #
plane-surface $-1 65.744193853572199 0 0 -1 0 0 0 0 1 forward_v I I I I #
coedge $-1 $508 $499 $498 $560 forward $378 $-1 #
coedge $-1 $381 $380 $497 $560 reversed $160 $-1 #
coedge $-1 $497 $561 $382 $500 reversed $378 $-1 #
edge $-1 $501 -65.744193853572199 $504 65.744193853572199 $499 $562 forward 7 unknown #
vertex $-1 $383 $563 #
straight-curve $-1 -65.744193853572199 0 7.8768372021883177 0 -1 0 I I #
coedge $-1 $390 $384 $561 $564 forward $391 $-1 #
vertex $-1 $385 $565 #
straight-curve $-1 65.744193853572199 0 7.8768372021883177 0 1 0 I I #
point $-1 65.744193853572199 -35.841791476872224 7.8768372021883177 #
point $-1 -65.744193853572199 -35.841791476872224 7.8768372021883177 #
coedge $-1 $561 $497 $393 $509 reversed $378 $-1 #
edge $-1 $510 -65.744193853572199 $512 65.744193853572199 $508 $566 forward 7 unknown #
vertex $-1 $564 $567 #
straight-curve $-1 65.744193853572199 -40.195259084838611 4.5401852128754632 0 -1 0 I I #
vertex $-1 $395 $568 #
straight-curve $-1 -65.744193853572199 -40.195259084838611 4.5401852128754632 0 1 0 I I #
coedge $-1 $409 $408 $401 $515 forward $398 $-1 #
edge $-1 $516 44.312573766439669 $519 51.42485172586418 $514 $569 forward 7 unknown #
vertex $-1 $413 $570 #
straight-curve $-1 -73.348264816363695 9.5185655637063391 7.8768372021883195 -1 0 0 I I #
edge $-1 $519 -6.8775156957005059 $410 1.5954159596888395 $409 $571 forward 7 unknown #
vertex $-1 $518 $572 #
straight-curve $-1 -65.744193853572199 9.5185655637063391 0.76455924276380927 0.78801074757464917 0 0.61566148304635926 I I #
point $-1 -56.640893377419488 9.5185655637063391 7.8768372021883177 #
point $-1 -65.744193853572199 1.0456339083169937 0.76455924276380927 #
straight-curve $-1 -65.744193853572199 0 7.8768372021883177 0 -1 0 I I #
vertex $-1 $416 $573 #
point $-1 -57.334635002854377 5.2820997360116664 1.819204313352778 #
edge $-1 $527 83.994516564762108 $530 88.557717991031907 $421 $574 forward 7 unknown #
vertex $-1 $435 $575 #
straight-curve $-1 55.365108442596409 -12.795073260350293 7.8768372021883124 1 0 0 I I #
edge $-1 $530 -9.5499967041474019 $432 3.05984359174162 $431 $576 forward 7 unknown #
vertex $-1 $529 $577 #
straight-curve $-1 -1.9773305096086631 -12.795073260350293 116.02118317071998 -0.51503806187062418 0 0.85716730853699208 I I #
point $-1 63.002345914314432 -12.795073260350293 7.8768372021883124 #
point $-1 65.744193853572199 -0.18523296446127091 3.3136357759185131 #
straight-curve $-1 65.744193853572199 0 7.8768372021883177 0 1 0 I I #
vertex $-1 $438 $578 #
point $-1 62.591297324517612 -10.273105201172488 3.3578860042495671 #
vertex $-1 $442 $579 #
point $-1 62.591297324517612 -6.4901531124057819 3.3578860042495671 #
vertex $-1 $446 $580 #
point $-1 62.591297324517612 -2.7072010236390724 3.3578860042495671 #
edge $-1 $542 83.994516564762108 $545 88.557717991031907 $451 $581 forward 7 unknown #
vertex $-1 $465 $582 #
straight-curve $-1 55.365108442596409 8.8921681803940338 7.8768372021883124 1 0 0 I I #
edge $-1 $545 1.2936240162247614 $462 13.903464312113783 $461 $583 forward 7 unknown #
vertex $-1 $544 $584 #
straight-curve $-1 -1.9773305096086631 8.8921681803940338 116.02118317071998 -0.51503806187062418 0 0.85716730853699208 I I #
point $-1 63.002345914314432 8.8921681803940338 7.8768372021883124 #
point $-1 65.744193853572199 21.502008476283056 3.3136357759185131 #
straight-curve $-1 65.744193853572199 0 7.8768372021883177 0 1 0 I I #
vertex $-1 $468 $585 #
point $-1 62.591297324517612 11.414136239571839 3.3578860042495671 #
vertex $-1 $472 $586 #
point $-1 62.591297324517612 15.197088328338545 3.3578860042495671 #
vertex $-1 $476 $587 #
point $-1 62.591297324517612 18.980040417105258 3.3578860042495671 #
straight-curve $-1 -65.744193853572199 35.841791476872224 0 0 0 -1 I I #
point $-1 -65.744193853572199 -35.841791476872224 -7.8768372021883177 #
straight-curve $-1 -65.744193853572199 0 -7.8768372021883177 0 1 0 I I #
point $-1 -65.744193853572199 35.841791476872224 -7.8768372021883177 #
edge $-1 $501 -1.6683259946564268 $512 1.6683259946564268 $498 $588 forward 7 unknown #
coedge $-1 $499 $508 $503 $564 reversed $378 $-1 #
straight-curve $-1 0 -44.548726692804998 7.8768372021883168 1 0 0 I I #
point $-1 -65.744193853572199 -44.548726692804998 7.8768372021883168 #
edge $-1 $504 -1.6683259946564268 $510 1.6683259946564268 $503 $589 forward 7 unknown #
point $-1 65.744193853572199 -44.548726692804998 7.8768372021883168 #
straight-curve $-1 0 -44.548726692804998 4.5401852128754632 -1 0 0 I I #
point $-1 65.744193853572199 -44.548726692804998 4.5401852128754632 #
point $-1 -65.744193853572199 -44.548726692804998 4.5401852128754632 #
straight-curve $-1 -65.744193853572199 9.5185655637063391 52.189410968627989 0 0 -1 I I #
point $-1 -65.744193853572199 9.5185655637063391 7.8768372021883177 #
straight-curve $-1 -65.744193853572199 2.6410498680058332 0.7645592427638056 0 -1 0 I I #
point $-1 -65.744193853572199 9.5185655637063391 0.76455924276380927 #
point $-1 -57.593158899646809 5.2820997360116664 -0.28630403257873471 #
straight-curve $-1 65.744193853572199 -12.795073260350293 91.871353766950421 0 0 -1 I I #
point $-1 65.744193853572199 -12.795073260350293 7.8768372021883177 #
straight-curve $-1 65.744193853572199 -3.2450765562028909 3.3136357759184918 0 1 0 I I #
point $-1 65.744193853572199 -12.795073260350293 3.3136357759185131 #
point $-1 61.219091954109999 -10.273105201172488 3.7000152509159352 #
point $-1 61.219091954109999 -6.4901531124057819 3.7000152509159352 #
point $-1 61.219091954109999 -2.7072010236390724 3.7000152509159352 #
straight-curve $-1 65.744193853572199 8.8921681803940338 91.871353766950421 0 0 -1 I I #
point $-1 65.744193853572199 8.8921681803940338 7.8768372021883177 #
straight-curve $-1 65.744193853572199 7.5985441641692724 3.3136357759184918 0 1 0 I I #
point $-1 65.744193853572199 8.8921681803940338 3.3136357759185131 #
point $-1 61.219091954109999 11.414136239571839 3.7000152509159352 #
point $-1 61.219091954109999 15.197088328338545 3.7000152509159352 #
point $-1 61.219091954109999 18.980040417105258 3.7000152509159352 #
straight-curve $-1 -65.744193853572199 -44.548726692804998 6.20851120753189 0 0 -1 I I #
straight-curve $-1 65.744193853572199 -44.548726692804998 6.20851120753189 0 0 -1 I I #
End-of-ACIS-data 