500 0 14 0           
7 Unknown 11 ACIS 5.0 NT 24 Thu Mar 25 15:19:38 1999 
-1 9.9999999999999995e-007 1e-010 
body $-1 $14 $-1 $15 #
body $-1 $16 $-1 $17 #
body $-1 $18 $-1 $19 #
body $-1 $20 $-1 $21 #
body $-1 $22 $-1 $23 #
body $-1 $24 $-1 $25 #
body $-1 $26 $-1 $27 #
body $-1 $28 $-1 $29 #
body $-1 $30 $-1 $31 #
body $-1 $32 $-1 $33 #
body $-1 $34 $-1 $35 #
body $-1 $36 $-1 $37 #
body $-1 $38 $-1 $39 #
body $-1 $40 $-1 $41 #
lump $-1 $-1 $42 $0 #
transform $-1 1 0 0 0 1 0 0 0 1 74.01715140232551 48.270513322288707 16.066699011145651 1 rotate no_reflect no_shear #
lump $-1 $-1 $43 $1 #
transform $-1 1 0 0 0 1 0 0 0 1 74.01715140232551 48.270513322288707 16.066699011145651 1 rotate no_reflect no_shear #
lump $-1 $-1 $44 $2 #
transform $-1 1 0 0 0 1 0 0 0 1 74.01715140232551 48.270513322288707 16.066699011145651 1 rotate no_reflect no_shear #
lump $-1 $-1 $45 $3 #
transform $-1 1 0 0 0 1 0 0 0 1 74.01715140232551 48.270513322288707 16.066699011145651 1 rotate no_reflect no_shear #
lump $-1 $-1 $46 $4 #
transform $-1 1 0 0 0 1 0 0 0 1 74.01715140232551 48.270513322288707 16.066699011145651 1 rotate no_reflect no_shear #
lump $-1 $-1 $47 $5 #
transform $-1 1 0 0 0 1 0 0 0 1 74.01715140232551 48.270513322288707 16.066699011145651 1 rotate no_reflect no_shear #
lump $-1 $-1 $48 $6 #
transform $-1 1 0 0 0 1 0 0 0 1 74.01715140232551 48.270513322288707 16.066699011145651 1 rotate no_reflect no_shear #
lump $-1 $-1 $49 $7 #
transform $-1 1 0 0 0 1 0 0 0 1 74.01715140232551 48.270513322288707 16.066699011145651 1 rotate no_reflect no_shear #
lump $-1 $-1 $50 $8 #
transform $-1 1 0 0 0 1 0 0 0 1 74.01715140232551 48.270513322288707 16.066699011145651 1 rotate no_reflect no_shear #
lump $-1 $-1 $51 $9 #
transform $-1 1 0 0 0 1 0 0 0 1 74.01715140232551 48.270513322288707 16.066699011145651 1 rotate no_reflect no_shear #
lump $-1 $-1 $52 $10 #
transform $-1 1 0 0 0 1 0 0 0 1 74.01715140232551 48.270513322288707 16.066699011145651 1 rotate no_reflect no_shear #
lump $-1 $-1 $53 $11 #
transform $-1 1 0 0 0 1 0 0 0 1 74.01715140232551 48.270513322288707 16.066699011145651 1 rotate no_reflect no_shear #
lump $-1 $-1 $54 $12 #
transform $-1 1 0 0 0 1 0 0 0 1 74.01715140232551 48.270513322288707 16.066699011145651 1 rotate no_reflect no_shear #
lump $-1 $-1 $55 $13 #
transform $-1 1 0 0 0 1 0 0 0 1 74.01715140232551 48.270513322288707 16.066699011145651 1 rotate no_reflect no_shear #
shell $-1 $-1 $-1 $56 $-1 $14 #
shell $-1 $-1 $-1 $57 $-1 $16 #
shell $-1 $-1 $-1 $58 $-1 $18 #
shell $-1 $-1 $-1 $59 $-1 $20 #
shell $-1 $-1 $-1 $60 $-1 $22 #
shell $-1 $-1 $-1 $61 $-1 $24 #
shell $-1 $-1 $-1 $62 $-1 $26 #
shell $-1 $-1 $-1 $63 $-1 $28 #
shell $-1 $-1 $-1 $64 $-1 $30 #
shell $-1 $-1 $-1 $65 $-1 $32 #
shell $-1 $-1 $-1 $66 $-1 $34 #
shell $-1 $-1 $-1 $67 $-1 $36 #
shell $-1 $-1 $-1 $68 $-1 $38 #
shell $-1 $-1 $-1 $69 $-1 $40 #
face $-1 $70 $71 $42 $-1 $72 forward single #
face $-1 $73 $74 $43 $-1 $75 reversed single #
face $-1 $76 $77 $44 $-1 $78 reversed single #
face $-1 $79 $80 $45 $-1 $81 forward single #
face $-1 $82 $83 $46 $-1 $84 forward single #
face $-1 $85 $86 $47 $-1 $87 forward single #
face $-1 $88 $89 $48 $-1 $90 reversed single #
face $-1 $91 $92 $49 $-1 $93 forward single #
face $-1 $94 $95 $50 $-1 $96 forward single #
face $-1 $97 $98 $51 $-1 $99 forward single #
face $-1 $100 $101 $52 $-1 $102 reversed single #
face $-1 $103 $104 $53 $-1 $105 forward single #
face $-1 $106 $107 $54 $-1 $108 forward single #
face $-1 $109 $110 $55 $-1 $111 forward single #
face $-1 $112 $113 $42 $-1 $114 reversed single #
loop $-1 $-1 $115 $56 #
plane-surface $-1 0 0 16.066699011145651 0 0 1 1 0 0 forward_v I I I I #
face $-1 $116 $117 $43 $-1 $118 reversed single #
loop $-1 $-1 $119 $57 #
plane-surface $-1 0 -38.912586649391478 12.7629420423265 0 0 1 1 0 0 forward_v I I I I #
face $-1 $120 $121 $44 $-1 $122 reversed single #
loop $-1 $-1 $123 $58 #
plane-surface $-1 -182.28258794856546 -2.1922965299068409 102.04980327949605 0 1 0 -0.73135370988377701 0 0.68199835119979291 forward_v I I I I #
face $-1 $124 $125 $45 $-1 $126 forward single #
loop $-1 $127 $128 $59 #
cone-surface $-1 -65.83637350891361 1.3869441591339609 7.461444949221594 0.73135370988377701 0 -0.68199835119979291 0.68199835119979291 0 0.73135370988377701 1 I I 0 1 1 forward I I I I #
face $-1 $129 $130 $46 $-1 $131 forward single #
loop $-1 $132 $133 $60 #
cone-surface $-1 -65.83637350891361 6.7558051926951634 7.461444949221594 0.73135370988377701 0 -0.68199835119979291 0.68199835119979291 0 0.73135370988377701 1 I I 0 1 1 forward I I I I #
face $-1 $134 $135 $47 $-1 $136 forward single #
loop $-1 $137 $138 $61 #
cone-surface $-1 -65.83637350891361 12.124666226256366 7.461444949221594 0.73135370988377701 0 -0.68199835119979291 0.68199835119979291 0 0.73135370988377701 1 I I 0 1 1 forward I I I I #
face $-1 $139 $140 $48 $-1 $141 reversed single #
loop $-1 $-1 $142 $62 #
plane-surface $-1 81.323437514782597 3.2891248829129935 219.33196797726083 0 -1 0 -0.73135370988377701 0 -0.68199835119979291 forward_v I I I I #
face $-1 $143 $144 $49 $-1 $145 forward single #
loop $-1 $146 $147 $63 #
cone-surface $-1 69.805742160465144 -12.238858087538475 11.750902269445096 -0.73135370988377701 0 -0.68199835119979291 1.0229975267996894 0 -1.0970305648256655 1 I I 0 1 1.5 forward I I I I #
face $-1 $148 $149 $50 $-1 $150 forward single #
loop $-1 $151 $152 $64 #
cone-surface $-1 69.805742160465144 -6.4158644736191732 11.750902269445096 -0.73135370988377701 0 -0.68199835119979291 1.0229975267996894 0 -1.0970305648256655 1 I I 0 1 1.5 forward I I I I #
face $-1 $153 $154 $51 $-1 $155 forward single #
loop $-1 $156 $157 $65 #
cone-surface $-1 69.805742160465144 -0.59287085969987174 11.750902269445096 -0.73135370988377701 0 -0.68199835119979291 1.0229975267996894 0 -1.0970305648256655 1 I I 0 1 1.5 forward I I I I #
face $-1 $158 $159 $52 $-1 $160 reversed single #
loop $-1 $-1 $161 $66 #
plane-surface $-1 81.323437514782597 42.201711532304472 219.33196797726083 0 -1 0 -0.73135370988377701 0 -0.68199835119979291 forward_v I I I I #
face $-1 $162 $163 $53 $-1 $164 forward single #
loop $-1 $165 $166 $67 #
cone-surface $-1 69.805742160465144 26.673728561853011 11.750902269445096 -0.73135370988377701 0 -0.68199835119979291 1.0229975267996894 0 -1.0970305648256655 1 I I 0 1 1.5 forward I I I I #
face $-1 $167 $168 $54 $-1 $169 forward single #
loop $-1 $170 $171 $68 #
cone-surface $-1 69.805742160465144 32.496722175772305 11.750902269445096 -0.73135370988377701 0 -0.68199835119979291 1.0229975267996894 0 -1.0970305648256655 1 I I 0 1 1.5 forward I I I I #
face $-1 $172 $173 $55 $-1 $174 forward single #
loop $-1 $175 $176 $69 #
cone-surface $-1 69.805742160465144 38.3197157896916 11.750902269445096 -0.73135370988377701 0 -0.68199835119979291 1.0229975267996894 0 -1.0970305648256655 1 I I 0 1 1.5 forward I I I I #
face $-1 $177 $178 $42 $-1 $179 reversed single #
loop $-1 $-1 $180 $70 #
plane-surface $-1 0 0 -16.066699011145651 0 0 1 1 0 0 forward_v I I I I #
coedge $-1 $181 $182 $183 $184 forward $71 $-1 #
face $-1 $185 $186 $43 $-1 $187 reversed single #
loop $-1 $-1 $188 $73 #
plane-surface $-1 0 -29.55465997649425 14.414820526736076 0 -1 0 0 0 -1 forward_v I I I I #
coedge $-1 $189 $190 $191 $192 reversed $74 $-1 #
face $-1 $193 $194 $44 $-1 $195 reversed single #
loop $-1 $-1 $196 $76 #
plane-surface $-1 -74.017151402325524 6.7558051926951634 1.0906528457131657 -0.73135370988377701 0 0.68199835119979291 0.68199835119979291 0 0.73135370988377701 forward_v I I I I #
coedge $-1 $197 $198 $199 $200 reversed $77 $-1 #
face $-1 $-1 $201 $45 $-1 $202 forward single #
loop $-1 $203 $204 $79 #
cone-surface $-1 -64.272613080890835 1.3869441591339609 6.0032147944138821 0.73135370988377701 0 -0.68199835119979291 0.34099917559989645 0 0.36567685494188851 1 I I -0.70710678118654746 0.70710678118654746 0.5 forward I I I I #
loop $-1 $-1 $205 $59 #
coedge $-1 $128 $128 $206 $207 reversed $80 $-1 #
face $-1 $-1 $208 $46 $-1 $209 forward single #
loop $-1 $210 $211 $82 #
cone-surface $-1 -64.272613080890835 6.7558051926951634 6.0032147944138821 0.73135370988377701 0 -0.68199835119979291 0.34099917559989645 0 0.36567685494188851 1 I I -0.70710678118654746 0.70710678118654746 0.5 forward I I I I #
loop $-1 $-1 $212 $60 #
coedge $-1 $133 $133 $213 $214 reversed $83 $-1 #
face $-1 $-1 $215 $47 $-1 $216 forward single #
loop $-1 $217 $218 $85 #
cone-surface $-1 -64.272613080890835 12.124666226256366 6.0032147944138821 0.73135370988377701 0 -0.68199835119979291 0.34099917559989645 0 0.36567685494188851 1 I I -0.70710678118654746 0.70710678118654746 0.5 forward I I I I #
loop $-1 $-1 $219 $61 #
coedge $-1 $138 $138 $220 $221 reversed $86 $-1 #
face $-1 $222 $223 $48 $-1 $224 reversed single #
loop $-1 $-1 $225 $88 #
plane-surface $-1 -26.941999031457343 -6.4158644736191732 118.37281754347795 0.73135370988377701 0 0.68199835119979291 0.68199835119979291 0 -0.73135370988377701 forward_v I I I I #
coedge $-1 $226 $227 $228 $229 reversed $89 $-1 #
face $-1 $-1 $230 $49 $-1 $231 forward single #
loop $-1 $232 $233 $91 #
cone-surface $-1 67.824394544215096 -12.238858087538475 9.9032657712985142 -0.73135370988377701 0 -0.68199835119979291 0.51149876339984468 0 -0.54851528241283276 1 I I -0.70710678118654757 0.70710678118654757 0.75 forward I I I I #
loop $-1 $-1 $234 $63 #
coedge $-1 $147 $147 $235 $236 reversed $92 $-1 #
face $-1 $-1 $237 $50 $-1 $238 forward single #
loop $-1 $239 $240 $94 #
cone-surface $-1 67.824394544215096 -6.4158644736191732 9.9032657712985142 -0.73135370988377701 0 -0.68199835119979291 0.51149876339984468 0 -0.54851528241283276 1 I I -0.70710678118654757 0.70710678118654757 0.75 forward I I I I #
loop $-1 $-1 $241 $64 #
coedge $-1 $152 $152 $242 $243 reversed $95 $-1 #
face $-1 $-1 $244 $51 $-1 $245 forward single #
loop $-1 $246 $247 $97 #
cone-surface $-1 67.824394544215096 -0.59287085969987174 9.9032657712985142 -0.73135370988377701 0 -0.68199835119979291 0.51149876339984468 0 -0.54851528241283276 1 I I -0.70710678118654757 0.70710678118654757 0.75 forward I I I I #
loop $-1 $-1 $248 $65 #
coedge $-1 $157 $157 $249 $250 reversed $98 $-1 #
face $-1 $251 $252 $52 $-1 $253 reversed single #
loop $-1 $-1 $254 $100 #
plane-surface $-1 -26.941999031457343 32.496722175772305 118.37281754347795 0.73135370988377701 0 0.68199835119979291 0.68199835119979291 0 -0.73135370988377701 forward_v I I I I #
coedge $-1 $255 $256 $257 $258 reversed $101 $-1 #
face $-1 $-1 $259 $53 $-1 $260 forward single #
loop $-1 $261 $262 $103 #
cone-surface $-1 67.824394544215096 26.673728561853011 9.9032657712985142 -0.73135370988377701 0 -0.68199835119979291 0.51149876339984468 0 -0.54851528241283276 1 I I -0.70710678118654757 0.70710678118654757 0.75 forward I I I I #
loop $-1 $-1 $263 $67 #
coedge $-1 $166 $166 $264 $265 reversed $104 $-1 #
face $-1 $-1 $266 $54 $-1 $267 forward single #
loop $-1 $268 $269 $106 #
cone-surface $-1 67.824394544215096 32.496722175772305 9.9032657712985142 -0.73135370988377701 0 -0.68199835119979291 0.51149876339984468 0 -0.54851528241283276 1 I I -0.70710678118654757 0.70710678118654757 0.75 forward I I I I #
loop $-1 $-1 $270 $68 #
coedge $-1 $171 $171 $271 $272 reversed $107 $-1 #
face $-1 $-1 $273 $55 $-1 $274 forward single #
loop $-1 $275 $276 $109 #
cone-surface $-1 67.824394544215096 38.3197157896916 9.9032657712985142 -0.73135370988377701 0 -0.68199835119979291 0.51149876339984468 0 -0.54851528241283276 1 I I -0.70710678118654757 0.70710678118654757 0.75 forward I I I I #
loop $-1 $-1 $277 $69 #
coedge $-1 $176 $176 $278 $279 reversed $110 $-1 #
face $-1 $280 $281 $42 $-1 $282 reversed single #
loop $-1 $-1 $283 $112 #
plane-surface $-1 0 -48.270513322288707 0 0 1 0 0 0 1 forward_v I I I I #
coedge $-1 $284 $285 $286 $287 forward $113 $-1 #
coedge $-1 $288 $115 $289 $290 forward $71 $-1 #
coedge $-1 $115 $288 $291 $292 forward $71 $-1 #
coedge $-1 $293 $294 $115 $184 reversed $295 $-1 #
edge $-1 $296 -48.270513322288707 $297 48.270513322288707 $183 $298 forward 7 unknown #
face $-1 $299 $300 $43 $-1 $301 reversed single #
loop $-1 $-1 $302 $116 #
plane-surface $-1 -74.01715140232551 0 0 1 0 0 0 0 -1 forward_v I I I I #
coedge $-1 $303 $304 $305 $306 reversed $117 $-1 #
coedge $-1 $307 $119 $308 $309 reversed $74 $-1 #
coedge $-1 $119 $307 $303 $310 forward $74 $-1 #
coedge $-1 $305 $311 $119 $192 forward $312 $-1 #
edge $-1 $313 -28.814219997592968 $314 -10.098366651798511 $191 $315 forward 7 unknown #
face $-1 $316 $317 $44 $-1 $318 forward single #
loop $-1 $-1 $319 $120 #
plane-surface $-1 -182.28258794856546 15.703906915297168 102.04980327949605 0 -1 0 0.73135370988377701 0 -0.68199835119979291 forward_v I I I I #
coedge $-1 $320 $321 $322 $323 reversed $121 $-1 #
coedge $-1 $198 $123 $324 $325 reversed $77 $-1 #
coedge $-1 $123 $197 $320 $326 reversed $77 $-1 #
coedge $-1 $322 $327 $123 $200 forward $317 $-1 #
edge $-1 $328 17.124142571957222 $329 31.089531212619242 $199 $330 forward 7 unknown #
loop $-1 $-1 $206 $124 #
plane-surface $-1 -74.017151402325524 6.7558051926951634 1.0906528457131657 -0.73135370988377701 0 0.68199835119979291 0.68199835119979291 0 0.73135370988377701 forward_v I I I I #
loop $-1 $-1 $331 $79 #
coedge $-1 $204 $204 $205 $332 reversed $125 $-1 #
coedge $-1 $205 $205 $204 $332 forward $127 $-1 #
coedge $-1 $206 $206 $128 $207 forward $201 $-1 #
edge $-1 $333 0 $333 6.2831853071796004 $206 $334 forward 7 unknown #
loop $-1 $-1 $213 $129 #
plane-surface $-1 -74.017151402325524 6.7558051926951634 1.0906528457131657 -0.73135370988377701 0 0.68199835119979291 0.68199835119979291 0 0.73135370988377701 forward_v I I I I #
loop $-1 $-1 $335 $82 #
coedge $-1 $211 $211 $212 $336 reversed $130 $-1 #
coedge $-1 $212 $212 $211 $336 forward $132 $-1 #
coedge $-1 $213 $213 $133 $214 forward $208 $-1 #
edge $-1 $337 0 $337 6.2831853071796004 $213 $338 forward 7 unknown #
loop $-1 $-1 $220 $134 #
plane-surface $-1 -74.017151402325524 6.7558051926951634 1.0906528457131657 -0.73135370988377701 0 0.68199835119979291 0.68199835119979291 0 0.73135370988377701 forward_v I I I I #
loop $-1 $-1 $339 $85 #
coedge $-1 $218 $218 $219 $340 reversed $135 $-1 #
coedge $-1 $219 $219 $218 $340 forward $137 $-1 #
coedge $-1 $220 $220 $138 $221 forward $215 $-1 #
edge $-1 $341 0 $341 6.2831853071796004 $220 $342 forward 7 unknown #
face $-1 $343 $344 $48 $-1 $345 reversed single #
loop $-1 $-1 $346 $139 #
plane-surface $-1 81.323437514782597 -16.12085383015134 219.33196797726083 0 1 0 0.73135370988377701 0 0.68199835119979291 forward_v I I I I #
coedge $-1 $347 $348 $349 $350 reversed $140 $-1 #
coedge $-1 $227 $142 $351 $352 reversed $89 $-1 #
coedge $-1 $142 $226 $347 $353 reversed $89 $-1 #
coedge $-1 $349 $354 $142 $229 forward $355 $-1 #
edge $-1 $356 -33.355432644934211 $357 -27.798278828887959 $228 $358 forward 7 unknown #
loop $-1 $-1 $235 $143 #
plane-surface $-1 -26.941999031457343 -6.4158644736191732 118.37281754347795 0.73135370988377701 0 0.68199835119979291 0.68199835119979291 0 -0.73135370988377701 forward_v I I I I #
loop $-1 $-1 $359 $91 #
coedge $-1 $233 $233 $234 $360 reversed $144 $-1 #
coedge $-1 $234 $234 $233 $360 forward $146 $-1 #
coedge $-1 $235 $235 $147 $236 forward $230 $-1 #
edge $-1 $361 0 $361 6.2831853071796004 $235 $362 forward 7 unknown #
loop $-1 $-1 $242 $148 #
plane-surface $-1 -26.941999031457343 -6.4158644736191732 118.37281754347795 0.73135370988377701 0 0.68199835119979291 0.68199835119979291 0 -0.73135370988377701 forward_v I I I I #
loop $-1 $-1 $363 $94 #
coedge $-1 $240 $240 $241 $364 reversed $149 $-1 #
coedge $-1 $241 $241 $240 $364 forward $151 $-1 #
coedge $-1 $242 $242 $152 $243 forward $237 $-1 #
edge $-1 $365 0 $365 6.2831853071796004 $242 $366 forward 7 unknown #
loop $-1 $-1 $249 $153 #
plane-surface $-1 -26.941999031457343 -6.4158644736191732 118.37281754347795 0.73135370988377701 0 0.68199835119979291 0.68199835119979291 0 -0.73135370988377701 forward_v I I I I #
loop $-1 $-1 $367 $97 #
coedge $-1 $247 $247 $248 $368 reversed $154 $-1 #
coedge $-1 $248 $248 $247 $368 forward $156 $-1 #
coedge $-1 $249 $249 $157 $250 forward $244 $-1 #
edge $-1 $369 0 $369 6.2831853071796004 $249 $370 forward 7 unknown #
face $-1 $371 $372 $52 $-1 $373 reversed single #
loop $-1 $-1 $374 $158 #
plane-surface $-1 81.323437514782597 22.791732819240138 219.33196797726083 0 1 0 0.73135370988377701 0 0.68199835119979291 forward_v I I I I #
coedge $-1 $375 $376 $377 $378 reversed $159 $-1 #
coedge $-1 $256 $161 $379 $380 reversed $101 $-1 #
coedge $-1 $161 $255 $375 $381 reversed $101 $-1 #
coedge $-1 $377 $382 $161 $258 forward $383 $-1 #
edge $-1 $384 -33.355432644934211 $385 -27.798278828887959 $257 $386 forward 7 unknown #
loop $-1 $-1 $264 $162 #
plane-surface $-1 -26.941999031457343 32.496722175772305 118.37281754347795 0.73135370988377701 0 0.68199835119979291 0.68199835119979291 0 -0.73135370988377701 forward_v I I I I #
loop $-1 $-1 $387 $103 #
coedge $-1 $262 $262 $263 $388 reversed $163 $-1 #
coedge $-1 $263 $263 $262 $388 forward $165 $-1 #
coedge $-1 $264 $264 $166 $265 forward $259 $-1 #
edge $-1 $389 0 $389 6.2831853071796004 $264 $390 forward 7 unknown #
loop $-1 $-1 $271 $167 #
plane-surface $-1 -26.941999031457343 32.496722175772305 118.37281754347795 0.73135370988377701 0 0.68199835119979291 0.68199835119979291 0 -0.73135370988377701 forward_v I I I I #
loop $-1 $-1 $391 $106 #
coedge $-1 $269 $269 $270 $392 reversed $168 $-1 #
coedge $-1 $270 $270 $269 $392 forward $170 $-1 #
coedge $-1 $271 $271 $171 $272 forward $266 $-1 #
edge $-1 $393 0 $393 6.2831853071796004 $271 $394 forward 7 unknown #
loop $-1 $-1 $278 $172 #
plane-surface $-1 -26.941999031457343 32.496722175772305 118.37281754347795 0.73135370988377701 0 0.68199835119979291 0.68199835119979291 0 -0.73135370988377701 forward_v I I I I #
loop $-1 $-1 $395 $109 #
coedge $-1 $276 $276 $277 $396 reversed $173 $-1 #
coedge $-1 $277 $277 $276 $396 forward $175 $-1 #
coedge $-1 $278 $278 $176 $279 forward $273 $-1 #
edge $-1 $397 0 $397 6.2831853071796004 $278 $398 forward 7 unknown #
face $-1 $399 $400 $42 $-1 $401 reversed single #
loop $-1 $-1 $402 $177 #
plane-surface $-1 -74.01715140232551 0 0 1 0 0 0 0 -1 forward_v I I I I #
coedge $-1 $403 $291 $404 $405 forward $178 $-1 #
coedge $-1 $406 $180 $403 $407 forward $113 $-1 #
coedge $-1 $180 $406 $408 $409 forward $113 $-1 #
coedge $-1 $294 $293 $180 $287 reversed $295 $-1 #
edge $-1 $410 -48.270513322288707 $411 48.270513322288707 $286 $412 forward 7 unknown #
coedge $-1 $182 $181 $413 $414 forward $71 $-1 #
coedge $-1 $415 $416 $181 $290 reversed $400 $-1 #
edge $-1 $297 -74.01715140232551 $417 74.01715140232551 $289 $418 forward 7 unknown #
coedge $-1 $283 $419 $182 $292 reversed $178 $-1 #
edge $-1 $420 -74.01715140232551 $296 74.01715140232551 $291 $421 forward 7 unknown #
coedge $-1 $286 $183 $419 $422 forward $295 $-1 #
coedge $-1 $183 $286 $415 $423 reversed $295 $-1 #
loop $-1 $-1 $293 $399 #
vertex $-1 $184 $424 #
vertex $-1 $184 $425 #
straight-curve $-1 74.01715140232551 0 16.066699011145651 0 1 0 I I #
face $-1 $426 $427 $43 $-1 $428 forward single #
loop $-1 $-1 $308 $185 #
plane-surface $-1 0 -48.270513322288707 0 0 1 0 0 0 1 forward_v I I I I #
coedge $-1 $429 $430 $431 $432 forward $186 $-1 #
coedge $-1 $431 $188 $190 $310 reversed $117 $-1 #
coedge $-1 $188 $431 $433 $434 reversed $117 $-1 #
coedge $-1 $435 $191 $188 $306 forward $312 $-1 #
edge $-1 $314 5.5555317789584624 $436 8.8592887477776134 $305 $437 forward 7 unknown #
coedge $-1 $190 $189 $429 $438 reversed $74 $-1 #
coedge $-1 $439 $440 $189 $309 forward $300 $-1 #
edge $-1 $441 -74.01715140232551 $313 74.01715140232551 $308 $442 forward 7 unknown #
edge $-1 $443 -74.01715140232551 $314 74.01715140232551 $303 $444 forward 7 unknown #
coedge $-1 $191 $435 $439 $445 forward $312 $-1 #
loop $-1 $-1 $305 $426 #
vertex $-1 $309 $446 #
vertex $-1 $192 $447 #
straight-curve $-1 74.01715140232551 -19.456293324695739 12.7629420423265 0 1 0 I I #
face $-1 $-1 $448 $44 $-1 $449 reversed single #
loop $-1 $-1 $199 $193 #
plane-surface $-1 0 0 16.066699011145651 0 0 1 1 0 0 forward_v I I I I #
coedge $-1 $450 $451 $452 $453 reversed $194 $-1 #
coedge $-1 $454 $196 $198 $326 forward $121 $-1 #
coedge $-1 $196 $454 $450 $455 forward $121 $-1 #
coedge $-1 $452 $199 $196 $323 forward $317 $-1 #
edge $-1 $329 -5.5701991262544226 $456 12.326004318949586 $322 $457 forward 7 unknown #
coedge $-1 $458 $459 $197 $325 forward $448 $-1 #
edge $-1 $460 -49.934248794034843 $328 -34.958202628602372 $324 $461 forward 7 unknown #
edge $-1 $329 -20.477158949275584 $460 -2.0896906529347916e-014 $198 $462 forward 7 unknown #
coedge $-1 $199 $452 $458 $463 forward $317 $-1 #
vertex $-1 $325 $464 #
vertex $-1 $200 $465 #
straight-curve $-1 -91.141293974282732 -2.1922965299068409 16.066699011145651 1 0 0 I I #
coedge $-1 $331 $331 $-1 $466 reversed $203 $-1 #
edge $-1 $467 0 $467 6.2831853071796004 $204 $468 forward 7 unknown #
vertex $-1 $207 $469 #
ellipse-curve $-1 -67.034457081994503 1.3869441591339609 8.5786759284294138 -0.73135370988377701 0 0.68199835119979291 0.68199835119979291 0 0.73135370988377701 1 I I #
coedge $-1 $335 $335 $-1 $470 reversed $210 $-1 #
edge $-1 $471 0 $471 6.2831853071796004 $211 $472 forward 7 unknown #
vertex $-1 $214 $473 #
ellipse-curve $-1 -67.034457081994503 6.7558051926951634 8.5786759284294138 -0.73135370988377701 0 0.68199835119979291 0.68199835119979291 0 0.73135370988377701 1 I I #
coedge $-1 $339 $339 $-1 $474 reversed $217 $-1 #
edge $-1 $475 0 $475 6.2831853071796004 $218 $476 forward 7 unknown #
vertex $-1 $221 $477 #
ellipse-curve $-1 -67.034457081994503 12.124666226256366 8.5786759284294138 -0.73135370988377701 0 0.68199835119979291 0.68199835119979291 0 0.73135370988377701 1 I I #
face $-1 $-1 $355 $48 $-1 $478 forward single #
loop $-1 $-1 $479 $222 #
plane-surface $-1 74.01715140232551 0 0 -1 0 0 0 0 1 forward_v I I I I #
coedge $-1 $480 $481 $482 $483 reversed $223 $-1 #
coedge $-1 $484 $225 $227 $353 forward $140 $-1 #
coedge $-1 $225 $484 $480 $485 forward $140 $-1 #
coedge $-1 $482 $228 $225 $350 forward $355 $-1 #
edge $-1 $357 -6.4970571197225802 $486 12.912921593341753 $349 $487 forward 7 unknown #
coedge $-1 $488 $489 $226 $352 forward $344 $-1 #
edge $-1 $490 -99.558602991392391 $356 -93.599284977484757 $351 $491 forward 7 unknown #
edge $-1 $357 139.88596372689523 $490 148.03430280465099 $227 $492 forward 7 unknown #
coedge $-1 $228 $482 $488 $493 forward $355 $-1 #
loop $-1 $-1 $482 $343 #
vertex $-1 $352 $494 #
vertex $-1 $229 $495 #
straight-curve $-1 40.661718757391299 3.2891248829129935 16.066699011145658 -1 0 0 I I #
coedge $-1 $359 $359 $-1 $496 reversed $232 $-1 #
edge $-1 $497 0 $497 6.2831853071796004 $233 $498 forward 7 unknown #
vertex $-1 $236 $499 #
ellipse-curve $-1 71.238574494302384 -12.238858087538475 13.087040004191852 0.73135370988377701 0 0.68199835119979291 1.0229975267996894 0 -1.0970305648256655 1 I I #
coedge $-1 $363 $363 $-1 $500 reversed $239 $-1 #
edge $-1 $501 0 $501 6.2831853071796004 $240 $502 forward 7 unknown #
vertex $-1 $243 $503 #
ellipse-curve $-1 71.238574494302384 -6.4158644736191732 13.087040004191852 0.73135370988377701 0 0.68199835119979291 1.0229975267996894 0 -1.0970305648256655 1 I I #
coedge $-1 $367 $367 $-1 $504 reversed $246 $-1 #
edge $-1 $505 0 $505 6.2831853071796004 $247 $506 forward 7 unknown #
vertex $-1 $250 $507 #
ellipse-curve $-1 71.238574494302384 -0.59287085969987174 13.087040004191852 0.73135370988377701 0 0.68199835119979291 1.0229975267996894 0 -1.0970305648256655 1 I I #
face $-1 $-1 $383 $52 $-1 $508 forward single #
loop $-1 $-1 $509 $251 #
plane-surface $-1 74.01715140232551 0 0 -1 0 0 0 0 1 forward_v I I I I #
coedge $-1 $510 $511 $512 $513 reversed $252 $-1 #
coedge $-1 $514 $254 $256 $381 forward $159 $-1 #
coedge $-1 $254 $514 $510 $515 forward $159 $-1 #
coedge $-1 $512 $257 $254 $378 forward $383 $-1 #
edge $-1 $385 -25.953350444418319 $516 -6.5433717313539859 $377 $517 forward 7 unknown #
coedge $-1 $518 $519 $255 $380 forward $372 $-1 #
edge $-1 $520 -99.558602991392391 $384 -93.599284977484757 $379 $521 forward 7 unknown #
edge $-1 $385 139.88596372689523 $520 148.03430280465099 $256 $522 forward 7 unknown #
coedge $-1 $257 $512 $518 $523 forward $383 $-1 #
loop $-1 $-1 $512 $371 #
vertex $-1 $380 $524 #
vertex $-1 $258 $525 #
straight-curve $-1 40.661718757391299 42.201711532304472 16.066699011145658 -1 0 0 I I #
coedge $-1 $387 $387 $-1 $526 reversed $261 $-1 #
edge $-1 $527 0 $527 6.2831853071796004 $262 $528 forward 7 unknown #
vertex $-1 $265 $529 #
ellipse-curve $-1 71.238574494302384 26.673728561853011 13.087040004191852 0.73135370988377701 0 0.68199835119979291 1.0229975267996894 0 -1.0970305648256655 1 I I #
coedge $-1 $391 $391 $-1 $530 reversed $268 $-1 #
edge $-1 $531 0 $531 6.2831853071796004 $269 $532 forward 7 unknown #
vertex $-1 $272 $533 #
ellipse-curve $-1 71.238574494302384 32.496722175772305 13.087040004191852 0.73135370988377701 0 0.68199835119979291 1.0229975267996894 0 -1.0970305648256655 1 I I #
coedge $-1 $395 $395 $-1 $534 reversed $275 $-1 #
edge $-1 $535 0 $535 6.2831853071796004 $276 $536 forward 7 unknown #
vertex $-1 $279 $537 #
ellipse-curve $-1 71.238574494302384 38.3197157896916 13.087040004191852 0.73135370988377701 0 0.68199835119979291 1.0229975267996894 0 -1.0970305648256655 1 I I #
face $-1 $-1 $295 $42 $-1 $538 reversed single #
loop $-1 $-1 $415 $280 #
plane-surface $-1 0 48.270513322288707 0 0 -1 0 0 0 -1 forward_v I I I I #
coedge $-1 $539 $413 $416 $540 forward $281 $-1 #
coedge $-1 $419 $283 $284 $407 reversed $178 $-1 #
coedge $-1 $413 $539 $283 $405 reversed $281 $-1 #
edge $-1 $420 -16.066699011145651 $541 16.066699011145651 $404 $542 forward 7 unknown #
coedge $-1 $285 $284 $539 $543 forward $113 $-1 #
edge $-1 $411 -74.01715140232551 $541 74.01715140232551 $403 $544 forward 7 unknown #
coedge $-1 $416 $415 $285 $409 reversed $400 $-1 #
edge $-1 $545 -74.01715140232551 $410 74.01715140232551 $408 $546 forward 7 unknown #
vertex $-1 $287 $547 #
vertex $-1 $422 $548 #
straight-curve $-1 74.01715140232551 0 -16.066699011145651 0 -1 0 I I #
coedge $-1 $402 $404 $288 $414 reversed $281 $-1 #
edge $-1 $417 -48.270513322288707 $420 48.270513322288707 $413 $549 forward 7 unknown #
coedge $-1 $408 $289 $294 $423 forward $400 $-1 #
coedge $-1 $289 $408 $402 $540 reversed $400 $-1 #
vertex $-1 $290 $550 #
straight-curve $-1 0 48.270513322288707 16.066699011145651 -1 0 0 I I #
coedge $-1 $291 $403 $293 $422 reversed $178 $-1 #
vertex $-1 $414 $551 #
straight-curve $-1 0 -48.270513322288707 16.066699011145651 1 0 0 I I #
edge $-1 $296 -16.066699011145651 $411 16.066699011145651 $293 $552 forward 7 unknown #
edge $-1 $297 -16.066699011145651 $410 16.066699011145651 $294 $553 forward 7 unknown #
point $-1 74.01715140232551 -48.270513322288707 16.066699011145651 #
point $-1 74.01715140232551 48.270513322288707 16.066699011145651 #
face $-1 $-1 $312 $43 $-1 $554 reversed single #
loop $-1 $-1 $433 $299 #
plane-surface $-1 0 0 16.066699011145651 0 0 1 1 0 0 forward_v I I I I #
coedge $-1 $555 $302 $307 $438 forward $186 $-1 #
coedge $-1 $302 $555 $556 $557 reversed $186 $-1 #
coedge $-1 $304 $303 $302 $432 reversed $117 $-1 #
edge $-1 $558 -8.8592887477776134 $443 -5.5555317789584624 $302 $559 forward 7 unknown #
coedge $-1 $556 $560 $304 $434 forward $427 $-1 #
edge $-1 $436 -74.01715140232551 $558 74.01715140232551 $433 $561 forward 7 unknown #
coedge $-1 $311 $305 $560 $562 reversed $312 $-1 #
vertex $-1 $306 $563 #
straight-curve $-1 74.01715140232551 -29.55465997649425 7.2074102633680379 0 0 1 I I #
edge $-1 $443 10.098366651798511 $441 28.814219997592968 $429 $564 forward 7 unknown #
coedge $-1 $565 $308 $311 $445 reversed $300 $-1 #
coedge $-1 $308 $565 $555 $566 forward $300 $-1 #
vertex $-1 $309 $567 #
straight-curve $-1 0 -48.270513322288707 12.7629420423265 1 0 0 I I #
vertex $-1 $438 $568 #
straight-curve $-1 0 -29.55465997649425 12.7629420423265 1 0 0 I I #
edge $-1 $569 -16.066699011145651 $313 -12.7629420423265 $311 $570 forward 7 unknown #
point $-1 74.01715140232551 -48.270513322288707 12.7629420423265 #
point $-1 74.01715140232551 -29.55465997649425 12.7629420423265 #
loop $-1 $-1 $324 $316 #
plane-surface $-1 -74.01715140232551 0 0 1 0 0 0 0 -1 forward_v I I I I #
coedge $-1 $451 $319 $321 $455 reversed $194 $-1 #
coedge $-1 $319 $450 $571 $572 reversed $194 $-1 #
coedge $-1 $327 $322 $319 $453 forward $317 $-1 #
edge $-1 $456 -31.089531212619242 $573 -17.124142571957222 $452 $574 forward 7 unknown #
coedge $-1 $321 $320 $459 $575 reversed $121 $-1 #
edge $-1 $576 2.0896906529347916e-014 $456 20.477158949275584 $450 $577 forward 7 unknown #
vertex $-1 $323 $578 #
straight-curve $-1 -60.051762761663483 3.3779025963475817 16.066699011145651 0 1 0 I I #
coedge $-1 $571 $324 $327 $463 reversed $448 $-1 #
coedge $-1 $324 $571 $454 $575 forward $448 $-1 #
vertex $-1 $325 $579 #
straight-curve $-1 -74.01715140232551 -2.1922965299068409 51.024901639748023 0 0 1 I I #
straight-curve $-1 -74.017151402325524 -2.1922965299068409 1.0906528457131657 -0.68199835119979291 0 -0.73135370988377701 I I #
edge $-1 $573 -15.703906915297168 $328 2.1922965299068409 $458 $580 forward 7 unknown #
point $-1 -74.01715140232551 -2.1922965299068409 16.066699011145651 #
point $-1 -60.05176276166349 -2.1922965299068409 16.066699011145651 #
edge $-1 $581 1 $581 0 $331 $-1 forward 7 unknown #
vertex $-1 $332 $582 #
ellipse-curve $-1 -64.638289935832717 1.3869441591339609 6.3442139700137785 -0.73135370988377701 0 0.68199835119979291 0.68199835119979291 0 0.73135370988377701 1 I I #
point $-1 -66.352458730794694 1.3869441591339609 9.3100296383131855 #
edge $-1 $583 1 $583 0 $335 $-1 forward 7 unknown #
vertex $-1 $336 $584 #
ellipse-curve $-1 -64.638289935832717 6.7558051926951634 6.3442139700137785 -0.73135370988377701 0 0.68199835119979291 0.68199835119979291 0 0.73135370988377701 1 I I #
point $-1 -66.352458730794694 6.7558051926951634 9.3100296383131855 #
edge $-1 $585 1 $585 0 $339 $-1 forward 7 unknown #
vertex $-1 $340 $586 #
ellipse-curve $-1 -64.638289935832717 12.124666226256366 6.3442139700137785 -0.73135370988377701 0 0.68199835119979291 0.68199835119979291 0 0.73135370988377701 1 I I #
point $-1 -66.352458730794694 12.124666226256366 9.3100296383131855 #
plane-surface $-1 0 0 16.066699011145651 0 0 1 1 0 0 forward_v I I I I #
coedge $-1 $489 $488 $481 $587 forward $344 $-1 #
coedge $-1 $481 $346 $348 $485 reversed $223 $-1 #
coedge $-1 $346 $480 $479 $587 reversed $223 $-1 #
coedge $-1 $354 $349 $346 $483 forward $355 $-1 #
edge $-1 $486 27.798278828887959 $588 33.355432644934211 $482 $589 forward 7 unknown #
coedge $-1 $348 $347 $489 $590 reversed $140 $-1 #
edge $-1 $591 -148.03430280465099 $486 -139.88596372689523 $480 $592 forward 7 unknown #
vertex $-1 $350 $593 #
straight-curve $-1 68.459997586279258 -3.2079322368095866 16.066699011145658 0 -1 0 I I #
coedge $-1 $479 $351 $354 $493 reversed $344 $-1 #
coedge $-1 $351 $479 $484 $590 forward $344 $-1 #
vertex $-1 $352 $594 #
straight-curve $-1 74.01715140232551 3.2891248829129935 109.66598398863042 0 0 1 I I #
straight-curve $-1 -26.941999031457343 3.2891248829129935 118.37281754347795 0.68199835119979291 0 -0.73135370988377701 I I #
edge $-1 $588 -16.12085383015134 $356 3.2891248829129935 $488 $595 forward 7 unknown #
point $-1 74.01715140232551 3.2891248829129935 16.066699011145651 #
point $-1 68.459997586279258 3.2891248829129935 16.066699011145644 #
edge $-1 $596 1 $596 0 $359 $-1 forward 7 unknown #
vertex $-1 $360 $597 #
ellipse-curve $-1 68.372909826627932 -12.238858087538475 10.414764534698358 0.73135370988377701 0 0.68199835119979291 1.0229975267996894 0 -1.0970305648256655 1 I I #
point $-1 72.261572021102054 -12.238858087538475 11.990009439366167 #
edge $-1 $598 1 $598 0 $363 $-1 forward 7 unknown #
vertex $-1 $364 $599 #
ellipse-curve $-1 68.372909826627932 -6.4158644736191732 10.414764534698358 0.73135370988377701 0 0.68199835119979291 1.0229975267996894 0 -1.0970305648256655 1 I I #
point $-1 72.261572021102054 -6.4158644736191732 11.990009439366167 #
edge $-1 $600 1 $600 0 $367 $-1 forward 7 unknown #
vertex $-1 $368 $601 #
ellipse-curve $-1 68.372909826627932 -0.59287085969987174 10.414764534698358 0.73135370988377701 0 0.68199835119979291 1.0229975267996894 0 -1.0970305648256655 1 I I #
point $-1 72.261572021102054 -0.59287085969987174 11.990009439366167 #
plane-surface $-1 0 0 16.066699011145651 0 0 1 1 0 0 forward_v I I I I #
coedge $-1 $519 $518 $511 $602 forward $372 $-1 #
coedge $-1 $511 $374 $376 $515 reversed $252 $-1 #
coedge $-1 $374 $510 $509 $602 reversed $252 $-1 #
coedge $-1 $382 $377 $374 $513 forward $383 $-1 #
edge $-1 $516 27.798278828887959 $603 33.355432644934211 $512 $604 forward 7 unknown #
coedge $-1 $376 $375 $519 $605 reversed $159 $-1 #
edge $-1 $606 -148.03430280465099 $516 -139.88596372689523 $510 $607 forward 7 unknown #
vertex $-1 $378 $608 #
straight-curve $-1 68.459997586279258 16.248361087886153 16.066699011145658 0 -1 0 I I #
coedge $-1 $509 $379 $382 $523 reversed $372 $-1 #
coedge $-1 $379 $509 $514 $605 forward $372 $-1 #
vertex $-1 $380 $609 #
straight-curve $-1 74.01715140232551 42.201711532304472 109.66598398863042 0 0 1 I I #
straight-curve $-1 -26.941999031457343 42.201711532304472 118.37281754347795 0.68199835119979291 0 -0.73135370988377701 I I #
edge $-1 $603 22.791732819240138 $384 42.201711532304472 $518 $610 forward 7 unknown #
point $-1 74.01715140232551 42.201711532304472 16.066699011145651 #
point $-1 68.459997586279258 42.201711532304472 16.066699011145644 #
edge $-1 $611 1 $611 0 $387 $-1 forward 7 unknown #
vertex $-1 $388 $612 #
ellipse-curve $-1 68.372909826627932 26.673728561853011 10.414764534698358 0.73135370988377701 0 0.68199835119979291 1.0229975267996894 0 -1.0970305648256655 1 I I #
point $-1 72.261572021102054 26.673728561853011 11.990009439366167 #
edge $-1 $613 1 $613 0 $391 $-1 forward 7 unknown #
vertex $-1 $392 $614 #
ellipse-curve $-1 68.372909826627932 32.496722175772305 10.414764534698358 0.73135370988377701 0 0.68199835119979291 1.0229975267996894 0 -1.0970305648256655 1 I I #
point $-1 72.261572021102054 32.496722175772305 11.990009439366167 #
edge $-1 $615 1 $615 0 $395 $-1 forward 7 unknown #
vertex $-1 $396 $616 #
ellipse-curve $-1 68.372909826627932 38.3197157896916 10.414764534698358 0.73135370988377701 0 0.68199835119979291 1.0229975267996894 0 -1.0970305648256655 1 I I #
point $-1 72.261572021102054 38.3197157896916 11.990009439366167 #
plane-surface $-1 74.01715140232551 0 0 -1 0 0 0 0 1 forward_v I I I I #
coedge $-1 $404 $402 $406 $543 reversed $281 $-1 #
edge $-1 $417 -16.066699011145651 $545 16.066699011145651 $416 $617 forward 7 unknown #
vertex $-1 $543 $618 #
straight-curve $-1 -74.01715140232551 -48.270513322288707 0 0 0 -1 I I #
edge $-1 $541 -48.270513322288707 $545 48.270513322288707 $539 $619 forward 7 unknown #
straight-curve $-1 0 -48.270513322288707 -16.066699011145651 -1 0 0 I I #
vertex $-1 $409 $620 #
straight-curve $-1 0 48.270513322288707 -16.066699011145651 1 0 0 I I #
point $-1 74.01715140232551 48.270513322288707 -16.066699011145651 #
point $-1 74.01715140232551 -48.270513322288707 -16.066699011145651 #
straight-curve $-1 -74.01715140232551 0 16.066699011145651 0 -1 0 I I #
point $-1 -74.01715140232551 48.270513322288707 16.066699011145651 #
point $-1 -74.01715140232551 -48.270513322288707 16.066699011145651 #
straight-curve $-1 74.01715140232551 -48.270513322288707 0 0 0 -1 I I #
straight-curve $-1 74.01715140232551 48.270513322288707 0 0 0 -1 I I #
plane-surface $-1 74.01715140232551 0 0 -1 0 0 0 0 1 forward_v I I I I #
coedge $-1 $430 $429 $440 $566 reversed $186 $-1 #
coedge $-1 $621 $433 $430 $557 forward $427 $-1 #
edge $-1 $558 29.55465997649425 $622 48.270513322288707 $430 $623 forward 7 unknown #
vertex $-1 $557 $624 #
straight-curve $-1 -74.01715140232551 -29.55465997649425 7.2074102633680379 0 0 -1 I I #
coedge $-1 $433 $621 $435 $562 forward $427 $-1 #
straight-curve $-1 0 -29.55465997649425 16.066699011145651 -1 0 0 I I #
edge $-1 $569 -48.270513322288707 $436 -29.55465997649425 $435 $625 forward 7 unknown #
point $-1 74.01715140232551 -29.55465997649425 16.066699011145651 #
straight-curve $-1 -74.01715140232551 -19.456293324695739 12.7629420423265 0 -1 0 I I #
coedge $-1 $440 $439 $621 $626 reversed $300 $-1 #
edge $-1 $622 -16.066699011145651 $441 -12.7629420423265 $555 $627 forward 7 unknown #
point $-1 -74.01715140232551 -48.270513322288707 12.7629420423265 #
point $-1 -74.01715140232551 -29.55465997649425 12.7629420423265 #
vertex $-1 $562 $628 #
straight-curve $-1 74.01715140232551 -48.270513322288707 0 0 0 -1 I I #
coedge $-1 $459 $458 $451 $572 forward $448 $-1 #
edge $-1 $573 34.958202628602372 $576 49.934248794034843 $571 $629 forward 7 unknown #
vertex $-1 $463 $630 #
straight-curve $-1 -91.141293974282732 15.703906915297168 16.066699011145651 -1 0 0 I I #
edge $-1 $576 -12.326004318949586 $460 5.5701991262544226 $459 $631 forward 7 unknown #
vertex $-1 $575 $632 #
straight-curve $-1 -74.017151402325524 15.703906915297168 1.0906528457131657 0.68199835119979291 0 0.73135370988377701 I I #
point $-1 -60.05176276166349 15.703906915297168 16.066699011145651 #
point $-1 -74.01715140232551 -2.1922965299068409 1.090652845713181 #
straight-curve $-1 -74.01715140232551 0 16.066699011145651 0 -1 0 I I #
vertex $-1 $466 $633 #
point $-1 -63.956291584632929 1.3869441591339609 7.0755676798975555 #
vertex $-1 $470 $634 #
point $-1 -63.956291584632929 6.7558051926951634 7.0755676798975555 #
vertex $-1 $474 $635 #
point $-1 -63.956291584632929 12.124666226256366 7.0755676798975555 #
edge $-1 $588 93.599284977484757 $591 99.558602991392391 $479 $636 forward 7 unknown #
vertex $-1 $493 $637 #
straight-curve $-1 40.661718757391299 -16.12085383015134 16.066699011145658 1 0 0 I I #
edge $-1 $591 -12.912921593341753 $490 6.4970571197225802 $489 $638 forward 7 unknown #
vertex $-1 $590 $639 #
straight-curve $-1 -26.941999031457343 -16.12085383015134 118.37281754347795 -0.68199835119979291 0 0.73135370988377701 I I #
point $-1 68.459997586279258 -16.12085383015134 16.066699011145644 #
point $-1 74.01715140232551 3.2891248829129935 10.107380997238025 #
straight-curve $-1 74.01715140232551 0 16.066699011145651 0 1 0 I I #
vertex $-1 $496 $640 #
point $-1 69.395907353427617 -12.238858087538475 9.3177339698726929 #
vertex $-1 $500 $641 #
point $-1 69.395907353427617 -6.4158644736191732 9.3177339698726929 #
vertex $-1 $504 $642 #
point $-1 69.395907353427617 -0.59287085969987174 9.3177339698726929 #
edge $-1 $603 93.599284977484757 $606 99.558602991392391 $509 $643 forward 7 unknown #
vertex $-1 $523 $644 #
straight-curve $-1 40.661718757391299 22.791732819240138 16.066699011145658 1 0 0 I I #
edge $-1 $606 6.5433717313539859 $520 25.953350444418319 $519 $645 forward 7 unknown #
vertex $-1 $605 $646 #
straight-curve $-1 -26.941999031457343 22.791732819240138 118.37281754347795 -0.68199835119979291 0 0.73135370988377701 I I #
point $-1 68.459997586279258 22.791732819240138 16.066699011145644 #
point $-1 74.01715140232551 42.201711532304472 10.107380997238025 #
straight-curve $-1 74.01715140232551 0 16.066699011145651 0 1 0 I I #
vertex $-1 $526 $647 #
point $-1 69.395907353427617 26.673728561853011 9.3177339698726929 #
vertex $-1 $530 $648 #
point $-1 69.395907353427617 32.496722175772305 9.3177339698726929 #
vertex $-1 $534 $649 #
point $-1 69.395907353427617 38.3197157896916 9.3177339698726929 #
straight-curve $-1 -74.01715140232551 48.270513322288707 0 0 0 -1 I I #
point $-1 -74.01715140232551 -48.270513322288707 -16.066699011145651 #
straight-curve $-1 -74.01715140232551 0 -16.066699011145651 0 1 0 I I #
point $-1 -74.01715140232551 48.270513322288707 -16.066699011145651 #
coedge $-1 $560 $556 $565 $626 forward $427 $-1 #
vertex $-1 $557 $650 #
straight-curve $-1 -74.01715140232551 0 16.066699011145651 0 -1 0 I I #
point $-1 -74.01715140232551 -29.55465997649425 16.066699011145651 #
straight-curve $-1 74.01715140232551 0 16.066699011145651 0 1 0 I I #
edge $-1 $622 -74.01715140232551 $569 74.01715140232551 $565 $651 forward 7 unknown #
straight-curve $-1 -74.01715140232551 -48.270513322288707 0 0 0 -1 I I #
point $-1 74.01715140232551 -48.270513322288707 16.066699011145651 #
straight-curve $-1 -74.01715140232551 15.703906915297168 51.024901639748023 0 0 -1 I I #
point $-1 -74.01715140232551 15.703906915297168 16.066699011145651 #
straight-curve $-1 -74.01715140232551 3.3779025963475817 1.0906528457131663 0 -1 0 I I #
point $-1 -74.01715140232551 15.703906915297168 1.090652845713181 #
point $-1 -63.906936225948947 1.3869441591339609 5.6622156188139856 #
point $-1 -63.906936225948947 6.7558051926951634 5.6622156188139856 #
point $-1 -63.906936225948947 12.124666226256366 5.6622156188139856 #
straight-curve $-1 74.01715140232551 -16.12085383015134 109.66598398863042 0 0 -1 I I #
point $-1 74.01715140232551 -16.12085383015134 16.066699011145651 #
straight-curve $-1 74.01715140232551 -3.2079322368095866 10.107380997238032 0 1 0 I I #
point $-1 74.01715140232551 -16.12085383015134 10.107380997238025 #
point $-1 67.27587926180226 -12.238858087538475 9.3917670078986699 #
point $-1 67.27587926180226 -6.4158644736191732 9.3917670078986699 #
point $-1 67.27587926180226 -0.59287085969987174 9.3917670078986699 #
straight-curve $-1 74.01715140232551 22.791732819240138 109.66598398863042 0 0 -1 I I #
point $-1 74.01715140232551 22.791732819240138 16.066699011145651 #
straight-curve $-1 74.01715140232551 16.248361087886153 10.107380997238032 0 1 0 I I #
point $-1 74.01715140232551 22.791732819240138 10.107380997238025 #
point $-1 67.27587926180226 26.673728561853011 9.3917670078986699 #
point $-1 67.27587926180226 32.496722175772305 9.3917670078986699 #
point $-1 67.27587926180226 38.3197157896916 9.3917670078986699 #
point $-1 -74.01715140232551 -48.270513322288707 16.066699011145651 #
straight-curve $-1 0 -48.270513322288707 16.066699011145651 1 0 0 I I #
End-of-ACIS-data 