500 0 7 0           
7 Unknown 11 ACIS 5.0 NT 24 Fri Mar 26 18:24:49 1999 
-1 9.9999999999999995e-007 1e-010 
body $-1 $7 $-1 $8 #
body $-1 $9 $-1 $10 #
body $-1 $11 $-1 $12 #
body $-1 $13 $-1 $14 #
body $-1 $15 $-1 $16 #
body $-1 $17 $-1 $18 #
body $-1 $19 $-1 $20 #
lump $-1 $-1 $21 $0 #
transform $-1 1 0 0 0 1 0 0 0 1 65.318155461287262 31.382695549123738 8.3444238096786574 1 rotate no_reflect no_shear #
lump $-1 $-1 $22 $1 #
transform $-1 1 0 0 0 1 0 0 0 1 65.318155461287262 31.382695549123738 8.3444238096786574 1 rotate no_reflect no_shear #
lump $-1 $-1 $23 $2 #
transform $-1 1 0 0 0 1 0 0 0 1 65.318155461287262 31.382695549123738 8.3444238096786574 1 rotate no_reflect no_shear #
lump $-1 $-1 $24 $3 #
transform $-1 1 0 0 0 1 0 0 0 1 65.318155461287262 31.382695549123738 8.3444238096786574 1 rotate no_reflect no_shear #
lump $-1 $-1 $25 $4 #
transform $-1 1 0 0 0 1 0 0 0 1 65.318155461287262 31.382695549123738 8.3444238096786574 1 rotate no_reflect no_shear #
lump $-1 $-1 $26 $5 #
transform $-1 1 0 0 0 1 0 0 0 1 65.318155461287262 31.382695549123738 8.3444238096786574 1 rotate no_reflect no_shear #
lump $-1 $-1 $27 $6 #
transform $-1 1 0 0 0 1 0 0 0 1 65.318155461287262 31.382695549123738 8.3444238096786574 1 rotate no_reflect no_shear #
shell $-1 $-1 $-1 $28 $-1 $7 #
shell $-1 $-1 $-1 $29 $-1 $9 #
shell $-1 $-1 $-1 $30 $-1 $11 #
shell $-1 $-1 $-1 $31 $-1 $13 #
shell $-1 $-1 $-1 $32 $-1 $15 #
shell $-1 $-1 $-1 $33 $-1 $17 #
shell $-1 $-1 $-1 $34 $-1 $19 #
face $-1 $35 $36 $21 $-1 $37 forward single #
face $-1 $38 $39 $22 $-1 $40 reversed single #
face $-1 $41 $42 $23 $-1 $43 forward single #
face $-1 $44 $45 $24 $-1 $46 reversed single #
face $-1 $47 $48 $25 $-1 $49 forward single #
face $-1 $50 $51 $26 $-1 $52 forward single #
face $-1 $53 $54 $27 $-1 $55 forward single #
face $-1 $56 $57 $21 $-1 $58 reversed single #
loop $-1 $-1 $59 $28 #
plane-surface $-1 0 0 8.3444238096786574 0 0 1 1 0 0 forward_v I I I I #
face $-1 $60 $61 $22 $-1 $62 reversed single #
loop $-1 $-1 $63 $29 #
plane-surface $-1 -56.278267120858942 59.874921254078473 144.93625016179212 1 0 0 0 -0.6018150307709319 -0.79863550430605224 forward_v I I I I #
face $-1 $64 $65 $23 $-1 $66 forward single #
loop $-1 $67 $68 $30 #
cone-surface $-1 -40.056073531930764 26.928694280455915 4.5312603362649977 0 -0.6018150307709319 -0.79863550430605224 1 0 0 1 I I 0 1 1 forward I I I I #
face $-1 $69 $70 $24 $-1 $71 reversed single #
loop $-1 $-1 $72 $31 #
plane-surface $-1 -29.994294838283178 -128.46439511251606 87.916580527188913 -1 0 0 0 -0.74314483375859142 0.66913059716165679 forward_v I I I I #
face $-1 $73 $74 $25 $-1 $75 forward single #
loop $-1 $76 $77 $32 #
cone-surface $-1 -47.78032072676212 -25.266385545271341 2.0952686961825053 0 0.74314483375859142 -0.66913059716165679 2 0 0 1 I I 0 1 2 forward I I I I #
face $-1 $78 $79 $26 $-1 $80 forward single #
loop $-1 $81 $82 $33 #
cone-surface $-1 -41.110561018582516 -25.266385545271341 2.0952686961825053 0 0.74314483375859142 -0.66913059716165679 2 0 0 1 I I 0 1 2 forward I I I I #
face $-1 $83 $84 $27 $-1 $85 forward single #
loop $-1 $86 $87 $34 #
cone-surface $-1 -34.440801310402918 -25.266385545271341 2.0952686961825053 0 0.74314483375859142 -0.66913059716165679 2 0 0 1 I I 0 1 2 forward I I I I #
face $-1 $88 $89 $21 $-1 $90 reversed single #
loop $-1 $-1 $91 $35 #
plane-surface $-1 0 0 -8.3444238096786574 0 0 1 1 0 0 forward_v I I I I #
coedge $-1 $92 $93 $94 $95 forward $36 $-1 #
face $-1 $96 $97 $22 $-1 $98 reversed single #
loop $-1 $-1 $99 $38 #
plane-surface $-1 -40.056073531930764 -18.743974223591735 40.605454107459579 0 0.6018150307709319 0.79863550430605224 1 0 0 forward_v I I I I #
coedge $-1 $100 $101 $102 $103 reversed $39 $-1 #
face $-1 $-1 $104 $23 $-1 $105 forward single #
loop $-1 $106 $107 $41 #
cone-surface $-1 -40.056073531930764 25.83120420923435 3.0748418493785525 0 -0.6018150307709319 -0.79863550430605224 0.5 0 0 1 I I -0.70710678118654724 0.70710678118654791 0.5 forward I I I I #
loop $-1 $-1 $108 $30 #
coedge $-1 $68 $68 $109 $110 reversed $42 $-1 #
face $-1 $111 $112 $24 $-1 $113 reversed single #
loop $-1 $-1 $114 $44 #
plane-surface $-1 -41.110561018582516 -31.382695549123753 0.50382778857076005 0 -0.74314483375859142 0.66913059716165679 1 0 0 forward_v I I I I #
coedge $-1 $115 $116 $117 $118 reversed $45 $-1 #
face $-1 $-1 $119 $25 $-1 $120 forward single #
loop $-1 $121 $122 $47 #
cone-surface $-1 -47.78032072676212 -21.936782803363361 -0.90271900392134441 0 0.74314483375859142 -0.66913059716165679 1 0 0 1 I I -0.70710678118654735 0.70710678118654768 1 forward I I I I #
loop $-1 $-1 $123 $32 #
coedge $-1 $77 $77 $124 $125 reversed $48 $-1 #
face $-1 $-1 $126 $26 $-1 $127 forward single #
loop $-1 $128 $129 $50 #
cone-surface $-1 -41.110561018582516 -21.936782803363361 -0.90271900392134441 0 0.74314483375859142 -0.66913059716165679 1 0 0 1 I I -0.70710678118654735 0.70710678118654768 1 forward I I I I #
loop $-1 $-1 $130 $33 #
coedge $-1 $82 $82 $131 $132 reversed $51 $-1 #
face $-1 $-1 $133 $27 $-1 $134 forward single #
loop $-1 $135 $136 $53 #
cone-surface $-1 -34.440801310402918 -21.936782803363361 -0.90271900392134441 0 0.74314483375859142 -0.66913059716165679 1 0 0 1 I I -0.70710678118654735 0.70710678118654768 1 forward I I I I #
loop $-1 $-1 $137 $34 #
coedge $-1 $87 $87 $138 $139 reversed $54 $-1 #
face $-1 $140 $141 $21 $-1 $142 reversed single #
loop $-1 $-1 $143 $56 #
plane-surface $-1 0 -31.382695549123738 0 0 1 0 0 0 1 forward_v I I I I #
coedge $-1 $144 $145 $146 $147 forward $57 $-1 #
coedge $-1 $148 $59 $149 $150 forward $36 $-1 #
coedge $-1 $59 $148 $151 $152 forward $36 $-1 #
coedge $-1 $153 $154 $59 $95 reversed $155 $-1 #
edge $-1 $156 -31.382695549123738 $157 31.382695549123738 $94 $158 forward 7 unknown #
face $-1 $159 $160 $22 $-1 $161 reversed single #
loop $-1 $-1 $162 $60 #
plane-surface $-1 -23.833879943002586 59.874921254078473 144.93625016179212 -1 0 0 0 0.6018150307709319 0.79863550430605224 forward_v I I I I #
coedge $-1 $163 $164 $165 $166 reversed $61 $-1 #
coedge $-1 $101 $63 $167 $168 reversed $39 $-1 #
coedge $-1 $63 $100 $163 $169 reversed $39 $-1 #
coedge $-1 $165 $170 $63 $103 forward $171 $-1 #
edge $-1 $172 -1.4452349220845022 $173 5.869602503578939 $102 $174 forward 7 unknown #
loop $-1 $-1 $109 $64 #
plane-surface $-1 -40.056073531930764 -18.743974223591735 40.605454107459579 0 0.6018150307709319 0.79863550430605224 1 0 0 forward_v I I I I #
loop $-1 $-1 $175 $41 #
coedge $-1 $107 $107 $108 $176 reversed $65 $-1 #
coedge $-1 $108 $108 $107 $176 forward $67 $-1 #
coedge $-1 $109 $109 $68 $110 forward $104 $-1 #
edge $-1 $177 1.4388297033314205e-015 $177 6.2831853071796022 $109 $178 forward 7 unknown #
face $-1 $179 $180 $24 $-1 $181 reversed single #
loop $-1 $-1 $182 $69 #
plane-surface $-1 -52.22682719888185 -128.46439511251606 87.916580527188913 1 0 0 0 0.74314483375859142 -0.66913059716165679 forward_v I I I I #
coedge $-1 $183 $184 $185 $186 reversed $70 $-1 #
coedge $-1 $116 $72 $187 $188 reversed $45 $-1 #
coedge $-1 $72 $115 $183 $189 reversed $45 $-1 #
coedge $-1 $185 $190 $72 $118 forward $191 $-1 #
edge $-1 $192 32.849502007134291 $193 39.909206198540268 $117 $194 forward 7 unknown #
loop $-1 $-1 $124 $73 #
plane-surface $-1 -41.110561018582516 -31.382695549123753 0.50382778857076005 0 -0.74314483375859142 0.66913059716165679 1 0 0 forward_v I I I I #
loop $-1 $-1 $195 $47 #
coedge $-1 $122 $122 $123 $196 reversed $74 $-1 #
coedge $-1 $123 $123 $122 $196 forward $76 $-1 #
coedge $-1 $124 $124 $77 $125 forward $119 $-1 #
edge $-1 $197 -6.573784769597652e-016 $197 6.2831853071795996 $124 $198 forward 7 unknown #
loop $-1 $-1 $131 $78 #
plane-surface $-1 -41.110561018582516 -31.382695549123753 0.50382778857076005 0 -0.74314483375859142 0.66913059716165679 1 0 0 forward_v I I I I #
loop $-1 $-1 $199 $50 #
coedge $-1 $129 $129 $130 $200 reversed $79 $-1 #
coedge $-1 $130 $130 $129 $200 forward $81 $-1 #
coedge $-1 $131 $131 $82 $132 forward $126 $-1 #
edge $-1 $201 -6.573784769597652e-016 $201 6.2831853071795996 $131 $202 forward 7 unknown #
loop $-1 $-1 $138 $83 #
plane-surface $-1 -41.110561018582516 -31.382695549123753 0.50382778857076005 0 -0.74314483375859142 0.66913059716165679 1 0 0 forward_v I I I I #
loop $-1 $-1 $203 $53 #
coedge $-1 $136 $136 $137 $204 reversed $84 $-1 #
coedge $-1 $137 $137 $136 $204 forward $86 $-1 #
coedge $-1 $138 $138 $87 $139 forward $133 $-1 #
edge $-1 $205 -6.573784769597652e-016 $205 6.2831853071795996 $138 $206 forward 7 unknown #
face $-1 $207 $208 $21 $-1 $209 reversed single #
loop $-1 $-1 $210 $88 #
plane-surface $-1 -65.318155461287262 0 0 1 0 0 0 0 -1 forward_v I I I I #
coedge $-1 $211 $151 $212 $213 forward $89 $-1 #
coedge $-1 $214 $91 $211 $215 forward $57 $-1 #
coedge $-1 $91 $214 $216 $217 forward $57 $-1 #
coedge $-1 $154 $153 $91 $147 reversed $155 $-1 #
edge $-1 $218 -31.382695549123738 $219 31.382695549123738 $146 $220 forward 7 unknown #
coedge $-1 $93 $92 $221 $222 forward $36 $-1 #
coedge $-1 $223 $224 $92 $150 reversed $208 $-1 #
edge $-1 $157 -65.318155461287262 $225 65.318155461287262 $149 $226 forward 7 unknown #
coedge $-1 $143 $227 $93 $152 reversed $89 $-1 #
edge $-1 $228 -65.318155461287262 $156 65.318155461287262 $151 $229 forward 7 unknown #
coedge $-1 $146 $94 $227 $230 forward $155 $-1 #
coedge $-1 $94 $146 $223 $231 reversed $155 $-1 #
loop $-1 $-1 $153 $207 #
vertex $-1 $95 $232 #
vertex $-1 $95 $233 #
straight-curve $-1 65.318155461287262 0 8.3444238096786574 0 1 0 I I #
face $-1 $-1 $171 $22 $-1 $234 forward single #
loop $-1 $-1 $235 $96 #
plane-surface $-1 0 31.382695549123738 0 0 -1 0 0 0 -1 forward_v I I I I #
coedge $-1 $236 $237 $238 $239 reversed $97 $-1 #
coedge $-1 $240 $99 $101 $169 forward $61 $-1 #
coedge $-1 $99 $240 $236 $241 forward $61 $-1 #
coedge $-1 $238 $102 $99 $166 forward $171 $-1 #
edge $-1 $173 -36.25023035489356 $242 -3.8058431770372039 $165 $243 forward 7 unknown #
coedge $-1 $244 $245 $100 $168 forward $160 $-1 #
edge $-1 $246 -69.63582674857787 $172 -64.123701271217399 $167 $247 forward 7 unknown #
edge $-1 $173 53.606222258115054 $246 62.765391098247484 $101 $248 forward 7 unknown #
coedge $-1 $102 $238 $244 $249 forward $171 $-1 #
loop $-1 $-1 $238 $159 #
vertex $-1 $168 $250 #
vertex $-1 $103 $251 #
straight-curve $-1 -56.278267120858942 29.937460627039236 8.3444238096786592 0 -1 0 I I #
coedge $-1 $175 $175 $-1 $252 reversed $106 $-1 #
edge $-1 $253 0 $253 6.2831853071796004 $107 $254 forward 7 unknown #
vertex $-1 $110 $255 #
ellipse-curve $-1 -40.056073531930764 27.725276836292018 5.5883610709984239 0 0.6018150307709319 0.79863550430605224 1 0 0 1 I I #
face $-1 $-1 $191 $24 $-1 $256 forward single #
loop $-1 $-1 $257 $111 #
plane-surface $-1 0 -31.382695549123738 0 0 1 0 0 0 1 forward_v I I I I #
coedge $-1 $258 $259 $260 $261 reversed $112 $-1 #
coedge $-1 $262 $114 $116 $189 forward $70 $-1 #
coedge $-1 $114 $262 $258 $263 forward $70 $-1 #
coedge $-1 $260 $117 $114 $186 forward $191 $-1 #
edge $-1 $193 9.4390143289919202 $264 31.671546689590592 $185 $265 forward 7 unknown #
coedge $-1 $266 $267 $115 $188 forward $180 $-1 #
edge $-1 $268 -43.454462475023682 $192 -35.613866453915797 $187 $269 forward 7 unknown #
edge $-1 $193 -10.550562508054643 $268 -2.1224720073754982e-014 $116 $270 forward 7 unknown #
coedge $-1 $117 $260 $266 $271 forward $191 $-1 #
loop $-1 $-1 $260 $179 #
vertex $-1 $188 $272 #
vertex $-1 $118 $273 #
straight-curve $-1 -29.994294838283178 -64.232197556258029 8.3444238096786592 0 1 0 I I #
coedge $-1 $195 $195 $-1 $274 reversed $121 $-1 #
edge $-1 $275 0 $275 6.2831853071796004 $122 $276 forward 7 unknown #
vertex $-1 $125 $277 #
ellipse-curve $-1 -47.78032072676212 -27.85284345342075 4.4241257991247158 0 -0.74314483375859142 0.66913059716165679 2 0 0 1 I I #
coedge $-1 $199 $199 $-1 $278 reversed $128 $-1 #
edge $-1 $279 0 $279 6.2831853071796004 $129 $280 forward 7 unknown #
vertex $-1 $132 $281 #
ellipse-curve $-1 -41.110561018582516 -27.85284345342075 4.4241257991247158 0 -0.74314483375859142 0.66913059716165679 2 0 0 1 I I #
coedge $-1 $203 $203 $-1 $282 reversed $135 $-1 #
edge $-1 $283 0 $283 6.2831853071796004 $136 $284 forward 7 unknown #
vertex $-1 $139 $285 #
ellipse-curve $-1 -34.440801310402918 -27.85284345342075 4.4241257991247158 0 -0.74314483375859142 0.66913059716165679 2 0 0 1 I I #
face $-1 $-1 $155 $21 $-1 $286 reversed single #
loop $-1 $-1 $223 $140 #
plane-surface $-1 0 31.382695549123738 0 0 -1 0 0 0 -1 forward_v I I I I #
coedge $-1 $287 $221 $224 $288 forward $141 $-1 #
coedge $-1 $227 $143 $144 $215 reversed $89 $-1 #
coedge $-1 $221 $287 $143 $213 reversed $141 $-1 #
edge $-1 $228 -8.3444238096786574 $289 8.3444238096786574 $212 $290 forward 7 unknown #
coedge $-1 $145 $144 $287 $291 forward $57 $-1 #
edge $-1 $219 -65.318155461287262 $289 65.318155461287262 $211 $292 forward 7 unknown #
coedge $-1 $224 $223 $145 $217 reversed $208 $-1 #
edge $-1 $293 -65.318155461287262 $218 65.318155461287262 $216 $294 forward 7 unknown #
vertex $-1 $147 $295 #
vertex $-1 $230 $296 #
straight-curve $-1 65.318155461287262 0 -8.3444238096786574 0 -1 0 I I #
coedge $-1 $210 $212 $148 $222 reversed $141 $-1 #
edge $-1 $225 -31.382695549123738 $228 31.382695549123738 $221 $297 forward 7 unknown #
coedge $-1 $216 $149 $154 $231 forward $208 $-1 #
coedge $-1 $149 $216 $210 $288 reversed $208 $-1 #
vertex $-1 $150 $298 #
straight-curve $-1 0 31.382695549123738 8.3444238096786574 -1 0 0 I I #
coedge $-1 $151 $211 $153 $230 reversed $89 $-1 #
vertex $-1 $222 $299 #
straight-curve $-1 0 -31.382695549123738 8.3444238096786574 1 0 0 I I #
edge $-1 $156 -8.3444238096786574 $219 8.3444238096786574 $153 $300 forward 7 unknown #
edge $-1 $157 -8.3444238096786574 $218 8.3444238096786574 $154 $301 forward 7 unknown #
point $-1 65.318155461287262 -31.382695549123738 8.3444238096786574 #
point $-1 65.318155461287262 31.382695549123738 8.3444238096786574 #
plane-surface $-1 0 0 8.3444238096786574 0 0 1 1 0 0 forward_v I I I I #
coedge $-1 $245 $244 $237 $302 forward $160 $-1 #
coedge $-1 $237 $162 $164 $241 reversed $97 $-1 #
coedge $-1 $162 $236 $235 $302 reversed $97 $-1 #
coedge $-1 $170 $165 $162 $239 forward $171 $-1 #
edge $-1 $242 -5.869602503578939 $303 1.4452349220845022 $238 $304 forward 7 unknown #
coedge $-1 $164 $163 $245 $305 reversed $61 $-1 #
edge $-1 $306 -62.765391098247484 $242 -53.606222258115054 $236 $307 forward 7 unknown #
vertex $-1 $166 $308 #
straight-curve $-1 -20.028036765965382 24.067858123460304 8.344423809678652 1 0 0 I I #
coedge $-1 $235 $167 $170 $249 reversed $160 $-1 #
coedge $-1 $167 $235 $240 $305 forward $160 $-1 #
vertex $-1 $168 $309 #
straight-curve $-1 -56.278267120858942 31.382695549123738 72.468125080896058 0 0 1 I I #
straight-curve $-1 -56.278267120858942 -18.743974223591735 40.605454107459579 0 0.79863550430605224 -0.6018150307709319 I I #
edge $-1 $303 23.833879943002586 $172 56.278267120858942 $244 $310 forward 7 unknown #
point $-1 -56.278267120858942 31.382695549123738 8.3444238096786574 #
point $-1 -56.278267120858942 24.067858123460297 8.3444238096786592 #
edge $-1 $311 1 $311 0 $175 $-1 forward 7 unknown #
vertex $-1 $176 $312 #
ellipse-curve $-1 -40.056073531930764 26.132111724619815 3.474159601531579 0 0.6018150307709319 0.79863550430605224 1 0 0 1 I I #
point $-1 -39.056073531930764 27.725276836292014 5.5883610709984168 #
plane-surface $-1 0 0 8.3444238096786574 0 0 1 1 0 0 forward_v I I I I #
coedge $-1 $267 $266 $259 $313 forward $180 $-1 #
coedge $-1 $259 $182 $184 $263 reversed $112 $-1 #
coedge $-1 $182 $258 $257 $313 reversed $112 $-1 #
coedge $-1 $190 $185 $182 $261 forward $191 $-1 #
edge $-1 $264 -39.909206198540268 $314 -32.849502007134291 $260 $315 forward 7 unknown #
coedge $-1 $184 $183 $267 $316 reversed $70 $-1 #
edge $-1 $317 2.1224720073754982e-014 $264 10.550562508054643 $258 $318 forward 7 unknown #
vertex $-1 $186 $319 #
straight-curve $-1 -20.555280509291258 -24.322991357717758 8.3444238096786574 -1 0 0 I I #
coedge $-1 $257 $187 $190 $271 reversed $180 $-1 #
coedge $-1 $187 $257 $262 $316 forward $180 $-1 #
vertex $-1 $188 $320 #
straight-curve $-1 -29.994294838283178 -31.382695549123738 43.958290263594456 0 0 1 I I #
straight-curve $-1 -29.994294838283178 -31.382695549123753 0.50382778857076005 0 -0.66913059716165679 -0.74314483375859142 I I #
edge $-1 $314 -52.22682719888185 $192 -29.994294838283178 $266 $321 forward 7 unknown #
point $-1 -29.994294838283178 -31.382695549123738 8.3444238096786574 #
point $-1 -29.994294838283178 -24.322991357717761 8.3444238096786574 #
edge $-1 $322 1 $322 0 $195 $-1 forward 7 unknown #
vertex $-1 $196 $323 #
ellipse-curve $-1 -47.78032072676212 -22.679927637121953 -0.23358840675968728 0 -0.74314483375859142 0.66913059716165679 2 0 0 1 I I #
point $-1 -45.78032072676212 -27.852843453420732 4.4241257991246981 #
edge $-1 $324 1 $324 0 $199 $-1 forward 7 unknown #
vertex $-1 $200 $325 #
ellipse-curve $-1 -41.110561018582516 -22.679927637121953 -0.23358840675968728 0 -0.74314483375859142 0.66913059716165679 2 0 0 1 I I #
point $-1 -39.110561018582516 -27.852843453420732 4.4241257991246981 #
edge $-1 $326 1 $326 0 $203 $-1 forward 7 unknown #
vertex $-1 $204 $327 #
ellipse-curve $-1 -34.440801310402918 -22.679927637121953 -0.23358840675968728 0 -0.74314483375859142 0.66913059716165679 2 0 0 1 I I #
point $-1 -32.440801310402918 -27.852843453420732 4.4241257991246981 #
plane-surface $-1 65.318155461287262 0 0 -1 0 0 0 0 1 forward_v I I I I #
coedge $-1 $212 $210 $214 $291 reversed $141 $-1 #
edge $-1 $225 -8.3444238096786574 $293 8.3444238096786574 $224 $328 forward 7 unknown #
vertex $-1 $291 $329 #
straight-curve $-1 -65.318155461287262 -31.382695549123738 0 0 0 -1 I I #
edge $-1 $289 -31.382695549123738 $293 31.382695549123738 $287 $330 forward 7 unknown #
straight-curve $-1 0 -31.382695549123738 -8.3444238096786574 -1 0 0 I I #
vertex $-1 $217 $331 #
straight-curve $-1 0 31.382695549123738 -8.3444238096786574 1 0 0 I I #
point $-1 65.318155461287262 31.382695549123738 -8.3444238096786574 #
point $-1 65.318155461287262 -31.382695549123738 -8.3444238096786574 #
straight-curve $-1 -65.318155461287262 0 8.3444238096786574 0 -1 0 I I #
point $-1 -65.318155461287262 31.382695549123738 8.3444238096786574 #
point $-1 -65.318155461287262 -31.382695549123738 8.3444238096786574 #
straight-curve $-1 65.318155461287262 -31.382695549123738 0 0 0 -1 I I #
straight-curve $-1 65.318155461287262 31.382695549123738 0 0 0 -1 I I #
edge $-1 $303 64.123701271217399 $306 69.63582674857787 $235 $332 forward 7 unknown #
vertex $-1 $249 $333 #
straight-curve $-1 -23.833879943002586 29.937460627039236 8.3444238096786592 0 1 0 I I #
edge $-1 $306 3.8058431770372039 $246 36.25023035489356 $245 $334 forward 7 unknown #
vertex $-1 $305 $335 #
straight-curve $-1 -23.833879943002586 -18.743974223591735 40.605454107459579 0 -0.79863550430605224 0.6018150307709319 I I #
point $-1 -23.833879943002586 24.067858123460297 8.3444238096786592 #
point $-1 -56.278267120858942 31.382695549123738 2.8322983323181958 #
straight-curve $-1 0 31.382695549123738 8.3444238096786574 -1 0 0 I I #
vertex $-1 $252 $336 #
point $-1 -39.056073531930764 26.132111724619815 3.474159601531579 #
edge $-1 $314 35.613866453915797 $317 43.454462475023682 $257 $337 forward 7 unknown #
vertex $-1 $271 $338 #
straight-curve $-1 -52.22682719888185 -64.232197556258029 8.3444238096786592 0 -1 0 I I #
edge $-1 $317 -31.671546689590592 $268 -9.4390143289919202 $267 $339 forward 7 unknown #
vertex $-1 $316 $340 #
straight-curve $-1 -52.22682719888185 -31.382695549123753 0.50382778857076005 0 0.66913059716165679 0.74314483375859142 I I #
point $-1 -52.22682719888185 -24.322991357717761 8.3444238096786574 #
point $-1 -29.994294838283178 -31.382695549123738 0.50382778857077581 #
straight-curve $-1 0 -31.382695549123738 8.3444238096786574 1 0 0 I I #
vertex $-1 $274 $341 #
point $-1 -45.78032072676212 -22.679927637121953 -0.23358840675968728 #
vertex $-1 $278 $342 #
point $-1 -39.110561018582516 -22.679927637121953 -0.23358840675968728 #
vertex $-1 $282 $343 #
point $-1 -32.440801310402918 -22.679927637121953 -0.23358840675968728 #
straight-curve $-1 -65.318155461287262 31.382695549123738 0 0 0 -1 I I #
point $-1 -65.318155461287262 -31.382695549123738 -8.3444238096786574 #
straight-curve $-1 -65.318155461287262 0 -8.3444238096786574 0 1 0 I I #
point $-1 -65.318155461287262 31.382695549123738 -8.3444238096786574 #
straight-curve $-1 -23.833879943002586 31.382695549123738 72.468125080896058 0 0 -1 I I #
point $-1 -23.833879943002586 31.382695549123738 8.3444238096786574 #
straight-curve $-1 -20.028036765965382 31.382695549123738 2.8322983323181994 -1 0 0 I I #
point $-1 -23.833879943002586 31.382695549123738 2.8322983323181958 #
point $-1 -40.056073531930764 25.530296693848886 2.6755240972255261 #
straight-curve $-1 -52.22682719888185 -31.382695549123738 43.958290263594456 0 0 -1 I I #
point $-1 -52.22682719888185 -31.382695549123738 8.3444238096786574 #
straight-curve $-1 -20.555280509291258 -31.382695549123738 0.50382778857077515 1 0 0 I I #
point $-1 -52.22682719888185 -31.382695549123738 0.50382778857077581 #
point $-1 -47.78032072676212 -21.193637969604769 -1.5718496010830014 #
point $-1 -41.110561018582516 -21.193637969604769 -1.5718496010830014 #
point $-1 -34.440801310402918 -21.193637969604769 -1.5718496010830014 #
End-of-ACIS-data 