500 0 7 0           
7 Unknown 11 ACIS 5.0 NT 24 Fri Mar 26 00:08:22 1999 
-1 9.9999999999999995e-007 1e-010 
body $-1 $7 $-1 $8 #
body $-1 $9 $-1 $10 #
body $-1 $11 $-1 $12 #
body $-1 $13 $-1 $14 #
body $-1 $15 $-1 $16 #
body $-1 $17 $-1 $18 #
body $-1 $19 $-1 $20 #
lump $-1 $-1 $21 $0 #
transform $-1 1 0 0 0 1 0 0 0 1 72.164067506942956 30.851036312677664 14.714288174021357 1 rotate no_reflect no_shear #
lump $-1 $-1 $22 $1 #
transform $-1 1 0 0 0 1 0 0 0 1 72.164067506942956 30.851036312677664 14.714288174021357 1 rotate no_reflect no_shear #
lump $-1 $-1 $23 $2 #
transform $-1 1 0 0 0 1 0 0 0 1 72.164067506942956 30.851036312677664 14.714288174021357 1 rotate no_reflect no_shear #
lump $-1 $-1 $24 $3 #
transform $-1 1 0 0 0 1 0 0 0 1 72.164067506942956 30.851036312677664 14.714288174021357 1 rotate no_reflect no_shear #
lump $-1 $-1 $25 $4 #
transform $-1 1 0 0 0 1 0 0 0 1 72.164067506942956 30.851036312677664 14.714288174021357 1 rotate no_reflect no_shear #
lump $-1 $-1 $26 $5 #
transform $-1 1 0 0 0 1 0 0 0 1 72.164067506942956 30.851036312677664 14.714288174021357 1 rotate no_reflect no_shear #
lump $-1 $-1 $27 $6 #
transform $-1 1 0 0 0 1 0 0 0 1 72.164067506942956 30.851036312677664 14.714288174021357 1 rotate no_reflect no_shear #
shell $-1 $-1 $-1 $28 $-1 $7 #
shell $-1 $-1 $-1 $29 $-1 $9 #
shell $-1 $-1 $-1 $30 $-1 $11 #
shell $-1 $-1 $-1 $31 $-1 $13 #
shell $-1 $-1 $-1 $32 $-1 $15 #
shell $-1 $-1 $-1 $33 $-1 $17 #
shell $-1 $-1 $-1 $34 $-1 $19 #
face $-1 $35 $36 $21 $-1 $37 reversed single #
face $-1 $38 $39 $22 $-1 $40 forward single #
face $-1 $41 $42 $23 $-1 $43 reversed single #
face $-1 $44 $45 $24 $-1 $46 forward single #
face $-1 $47 $48 $25 $-1 $49 forward single #
face $-1 $50 $51 $26 $-1 $52 reversed single #
face $-1 $53 $54 $27 $-1 $55 forward single #
face $-1 $56 $57 $21 $-1 $58 forward single #
loop $-1 $-1 $59 $28 #
plane-surface $-1 0 -30.851036312677664 0 0 1 0 0 0 1 forward_v I I I I #
face $-1 $60 $61 $22 $-1 $62 reversed single #
loop $-1 $-1 $63 $29 #
plane-surface $-1 0 -30.851036312677664 0 0 1 0 0 0 1 forward_v I I I I #
face $-1 $64 $65 $23 $-1 $66 reversed single #
loop $-1 $-1 $67 $30 #
plane-surface $-1 -190.39075552592544 -14.396701721231702 91.851269490327581 0 1 0 -0.81915205242281985 0 0.57357642473473569 forward_v I I I I #
face $-1 $68 $69 $24 $-1 $70 forward single #
loop $-1 $71 $72 $31 #
cone-surface $-1 -68.816850529677353 -11.990596129180815 10.931572229693256 0.81915205242281985 0 -0.57357642473473569 0.57357642473473569 0 0.81915205242281985 1 I I 0 1 1 forward I I I I #
face $-1 $73 $74 $25 $-1 $75 forward single #
loop $-1 $76 $77 $32 #
cone-surface $-1 -68.816850529677353 -8.3814377411044809 10.931572229693256 0.81915205242281985 0 -0.57357642473473569 0.57357642473473569 0 0.81915205242281985 1 I I 0 1 1 forward I I I I #
face $-1 $78 $79 $26 $-1 $80 reversed single #
loop $-1 $-1 $81 $33 #
plane-surface $-1 89.953499025291165 -6.3796257415824211 205.93850904754572 0 -1 0 -0.7660444514056185 0 -0.64278759981090561 forward_v I I I I #
face $-1 $82 $83 $27 $-1 $84 forward single #
loop $-1 $85 $86 $34 #
cone-surface $-1 64.207575465021719 -10.388163731407065 6.2462700985812614 -0.7660444514056185 0 -0.64278759981090561 1.2855751996218112 0 -1.532088902811237 1 I I 0 1 2 forward I I I I #
face $-1 $87 $88 $21 $-1 $89 reversed single #
loop $-1 $-1 $90 $35 #
plane-surface $-1 0 0 14.714288174021357 0 0 1 1 0 0 forward_v I I I I #
coedge $-1 $91 $92 $93 $94 reversed $36 $-1 #
face $-1 $95 $96 $22 $-1 $97 reversed single #
loop $-1 $-1 $98 $38 #
plane-surface $-1 0 0 -14.714288174021357 0 0 1 1 0 0 forward_v I I I I #
coedge $-1 $99 $100 $101 $102 forward $39 $-1 #
face $-1 $103 $104 $23 $-1 $105 reversed single #
loop $-1 $-1 $106 $41 #
plane-surface $-1 -72.164067506942942 -10.186016935142646 9.0680538204306771 -0.81915205242281985 0 0.57357642473473569 0.57357642473473569 0 0.81915205242281985 forward_v I I I I #
coedge $-1 $107 $108 $109 $110 reversed $42 $-1 #
face $-1 $-1 $111 $24 $-1 $112 forward single #
loop $-1 $113 $114 $44 #
cone-surface $-1 -67.036825394978962 -11.990596129180815 9.6851852497931308 0.81915205242281985 0 -0.57357642473473569 0.28678821236736785 0 0.40957602621140993 1 I I -0.70710678118654746 0.70710678118654746 0.5 forward I I I I #
loop $-1 $-1 $115 $31 #
coedge $-1 $72 $72 $116 $117 reversed $45 $-1 #
face $-1 $-1 $118 $25 $-1 $119 forward single #
loop $-1 $120 $121 $47 #
cone-surface $-1 -67.036825394978962 -8.3814377411044809 9.6851852497931308 0.81915205242281985 0 -0.57357642473473569 0.28678821236736785 0 0.40957602621140993 1 I I -0.70710678118654746 0.70710678118654746 0.5 forward I I I I #
loop $-1 $-1 $122 $32 #
coedge $-1 $77 $77 $123 $124 reversed $48 $-1 #
face $-1 $125 $126 $26 $-1 $127 reversed single #
loop $-1 $-1 $128 $50 #
plane-surface $-1 -20.6082679838171 -10.388163731407062 113.16617355678567 0.7660444514056185 0 0.64278759981090561 0.64278759981090561 0 -0.7660444514056185 forward_v I I I I #
coedge $-1 $129 $130 $131 $132 reversed $51 $-1 #
face $-1 $-1 $133 $27 $-1 $134 forward single #
loop $-1 $135 $136 $53 #
cone-surface $-1 60.565737441808949 -10.388163731407065 3.1904052365022348 -0.7660444514056185 0 -0.64278759981090561 0.64278759981090561 0 -0.7660444514056185 1 I I -0.70710678118654746 0.70710678118654746 1 forward I I I I #
loop $-1 $-1 $137 $34 #
coedge $-1 $86 $86 $138 $139 reversed $54 $-1 #
face $-1 $140 $141 $21 $-1 $142 reversed single #
loop $-1 $-1 $143 $56 #
plane-surface $-1 0 0 -14.714288174021357 0 0 1 1 0 0 forward_v I I I I #
coedge $-1 $144 $145 $146 $147 forward $57 $-1 #
coedge $-1 $148 $59 $149 $150 reversed $36 $-1 #
coedge $-1 $59 $148 $151 $152 forward $36 $-1 #
coedge $-1 $153 $143 $59 $94 forward $88 $-1 #
edge $-1 $154 -72.164067506942956 $155 72.164067506942956 $59 $156 forward 7 unknown #
face $-1 $157 $158 $22 $-1 $159 reversed single #
loop $-1 $-1 $160 $60 #
plane-surface $-1 -47.08439474547545 -47.30537090412362 0 0 1 0 0 0 1 forward_v I I I I #
coedge $-1 $161 $162 $100 $163 forward $61 $-1 #
coedge $-1 $164 $63 $165 $166 reversed $39 $-1 #
coedge $-1 $63 $164 $98 $163 reversed $39 $-1 #
coedge $-1 $167 $168 $63 $102 reversed $158 $-1 #
edge $-1 $169 -14.714288174021357 $170 14.714288174021357 $101 $171 forward 7 unknown #
face $-1 $172 $173 $23 $-1 $174 reversed single #
loop $-1 $-1 $175 $64 #
plane-surface $-1 -190.39075552592544 -5.9753321490535907 91.851269490327581 0 -1 0 0.81915205242281985 0 -0.57357642473473569 forward_v I I I I #
coedge $-1 $176 $177 $178 $179 reversed $65 $-1 #
coedge $-1 $108 $67 $180 $181 reversed $42 $-1 #
coedge $-1 $67 $107 $176 $182 reversed $42 $-1 #
coedge $-1 $178 $183 $67 $110 forward $184 $-1 #
edge $-1 $185 23.031310256019765 $186 26.984845993577025 $109 $187 forward 7 unknown #
loop $-1 $-1 $116 $68 #
plane-surface $-1 -72.164067506942942 -10.186016935142646 9.0680538204306771 -0.81915205242281985 0 0.57357642473473569 0.57357642473473569 0 0.81915205242281985 forward_v I I I I #
loop $-1 $-1 $188 $44 #
coedge $-1 $114 $114 $115 $189 reversed $69 $-1 #
coedge $-1 $115 $115 $114 $189 forward $71 $-1 #
coedge $-1 $116 $116 $72 $117 forward $111 $-1 #
edge $-1 $190 0 $190 6.2831853071796004 $116 $191 forward 7 unknown #
loop $-1 $-1 $123 $73 #
plane-surface $-1 -72.164067506942942 -10.186016935142646 9.0680538204306771 -0.81915205242281985 0 0.57357642473473569 0.57357642473473569 0 0.81915205242281985 forward_v I I I I #
loop $-1 $-1 $192 $47 #
coedge $-1 $121 $121 $122 $193 reversed $74 $-1 #
coedge $-1 $122 $122 $121 $193 forward $76 $-1 #
coedge $-1 $123 $123 $77 $124 forward $118 $-1 #
edge $-1 $194 0 $194 6.2831853071796004 $123 $195 forward 7 unknown #
face $-1 $196 $197 $26 $-1 $198 forward single #
loop $-1 $-1 $199 $78 #
plane-surface $-1 89.953499025291165 -14.396701721231702 205.93850904754572 0 1 0 0.7660444514056185 0 0.64278759981090561 forward_v I I I I #
coedge $-1 $200 $201 $202 $203 reversed $79 $-1 #
coedge $-1 $130 $81 $204 $205 reversed $51 $-1 #
coedge $-1 $81 $129 $200 $206 reversed $51 $-1 #
coedge $-1 $202 $207 $81 $132 forward $197 $-1 #
edge $-1 $208 -27.187317994297374 $209 -17.025921054069187 $131 $210 forward 7 unknown #
loop $-1 $-1 $138 $82 #
plane-surface $-1 -20.6082679838171 -10.388163731407062 113.16617355678567 0.7660444514056185 0 0.64278759981090561 0.64278759981090561 0 -0.7660444514056185 forward_v I I I I #
loop $-1 $-1 $211 $53 #
coedge $-1 $136 $136 $137 $212 reversed $83 $-1 #
coedge $-1 $137 $137 $136 $212 forward $85 $-1 #
coedge $-1 $138 $138 $86 $139 forward $133 $-1 #
edge $-1 $213 0 $213 6.2831853071796004 $138 $214 forward 7 unknown #
face $-1 $215 $216 $21 $-1 $217 reversed single #
loop $-1 $-1 $218 $87 #
plane-surface $-1 -72.164067506942956 0 0 1 0 0 0 0 -1 forward_v I I I I #
coedge $-1 $93 $219 $220 $221 forward $88 $-1 #
coedge $-1 $222 $90 $223 $224 forward $57 $-1 #
coedge $-1 $90 $222 $148 $225 forward $57 $-1 #
coedge $-1 $149 $226 $90 $147 reversed $227 $-1 #
edge $-1 $228 -30.851036312677664 $229 30.851036312677664 $146 $230 forward 7 unknown #
coedge $-1 $92 $91 $145 $225 reversed $36 $-1 #
coedge $-1 $220 $146 $91 $150 forward $227 $-1 #
edge $-1 $228 -14.714288174021357 $154 14.714288174021357 $149 $231 forward 7 unknown #
coedge $-1 $232 $233 $92 $152 reversed $141 $-1 #
edge $-1 $234 -14.714288174021357 $155 14.714288174021357 $151 $235 forward 7 unknown #
coedge $-1 $219 $93 $233 $236 forward $88 $-1 #
vertex $-1 $150 $237 #
vertex $-1 $236 $238 #
straight-curve $-1 0 -30.851036312677664 -14.714288174021357 -1 0 0 I I #
face $-1 $239 $240 $22 $-1 $241 reversed single #
loop $-1 $-1 $101 $95 #
plane-surface $-1 -51.433298332050654 -39.078203608400642 0 1 0 0 0 0 -1 forward_v I I I I #
coedge $-1 $242 $243 $244 $245 forward $96 $-1 #
coedge $-1 $246 $98 $247 $248 forward $61 $-1 #
coedge $-1 $98 $246 $167 $249 forward $61 $-1 #
edge $-1 $169 -51.433298332050654 $250 -42.735491158900246 $98 $251 forward 7 unknown #
coedge $-1 $100 $99 $252 $253 forward $39 $-1 #
coedge $-1 $254 $255 $99 $166 forward $256 $-1 #
edge $-1 $257 42.735491158900246 $170 51.433298332050654 $165 $258 forward 7 unknown #
coedge $-1 $244 $101 $162 $249 reversed $158 $-1 #
coedge $-1 $101 $244 $254 $259 reversed $158 $-1 #
vertex $-1 $163 $260 #
vertex $-1 $259 $261 #
straight-curve $-1 -51.433298332050654 -30.851036312677664 0 0 0 1 I I #
face $-1 $-1 $184 $23 $-1 $262 forward single #
loop $-1 $-1 $263 $103 #
plane-surface $-1 -72.164067506942956 0 0 1 0 0 0 0 -1 forward_v I I I I #
coedge $-1 $264 $265 $266 $267 reversed $104 $-1 #
coedge $-1 $268 $106 $108 $182 forward $65 $-1 #
coedge $-1 $106 $268 $264 $269 forward $65 $-1 #
coedge $-1 $266 $109 $106 $179 forward $184 $-1 #
edge $-1 $186 -9.3036932536603789 $270 -0.88232368148226747 $178 $271 forward 7 unknown #
coedge $-1 $272 $273 $107 $181 forward $173 $-1 #
edge $-1 $274 -36.857580924733135 $185 -31.211346571142435 $180 $275 forward 7 unknown #
edge $-1 $186 -6.8927793526131307 $274 2.4157181099100639e-014 $108 $276 forward 7 unknown #
coedge $-1 $109 $266 $272 $277 forward $184 $-1 #
loop $-1 $-1 $266 $172 #
vertex $-1 $181 $278 #
vertex $-1 $110 $279 #
straight-curve $-1 -95.195377762962721 -14.396701721231702 14.714288174021355 1 0 0 I I #
coedge $-1 $188 $188 $-1 $280 reversed $113 $-1 #
edge $-1 $281 0 $281 6.2831853071796004 $114 $282 forward 7 unknown #
vertex $-1 $117 $283 #
ellipse-curve $-1 -70.187299638164319 -11.990596129180815 11.891170997226009 -0.81915205242281985 0 0.57357642473473569 0.57357642473473569 0 0.81915205242281985 1 I I #
coedge $-1 $192 $192 $-1 $284 reversed $120 $-1 #
edge $-1 $285 0 $285 6.2831853071796004 $121 $286 forward 7 unknown #
vertex $-1 $124 $287 #
ellipse-curve $-1 -70.187299638164319 -8.3814377411044809 11.891170997226009 -0.81915205242281985 0 0.57357642473473569 0.57357642473473569 0 0.81915205242281985 1 I I #
face $-1 $-1 $288 $26 $-1 $289 reversed single #
loop $-1 $-1 $131 $125 #
plane-surface $-1 0 0 14.714288174021357 0 0 1 1 0 0 forward_v I I I I #
coedge $-1 $290 $291 $292 $293 reversed $126 $-1 #
coedge $-1 $294 $128 $130 $206 forward $79 $-1 #
coedge $-1 $128 $294 $290 $295 forward $79 $-1 #
coedge $-1 $292 $131 $128 $203 forward $197 $-1 #
edge $-1 $209 1.1855438758788903 $296 9.2026198555281713 $202 $297 forward 7 unknown #
coedge $-1 $298 $299 $129 $205 forward $288 $-1 #
edge $-1 $300 -100.36484797609546 $208 -88.254966349751498 $204 $301 forward 7 unknown #
edge $-1 $209 128.51980743691115 $300 144.32813501388594 $130 $302 forward 7 unknown #
coedge $-1 $131 $292 $298 $303 forward $197 $-1 #
vertex $-1 $132 $304 #
vertex $-1 $132 $305 #
straight-curve $-1 44.976749512645583 -6.3796257415824211 14.714288174021362 -1 0 0 I I #
coedge $-1 $211 $211 $-1 $306 reversed $135 $-1 #
edge $-1 $307 0 $307 6.2831853071796004 $136 $308 forward 7 unknown #
vertex $-1 $139 $309 #
ellipse-curve $-1 67.083369036828856 -10.388163731407065 8.6593473608493685 0.7660444514056185 0 0.64278759981090561 1.2855751996218112 0 -1.532088902811237 1 I I #
face $-1 $-1 $227 $21 $-1 $310 reversed single #
loop $-1 $-1 $311 $140 #
plane-surface $-1 0 30.851036312677664 0 0 -1 0 0 0 -1 forward_v I I I I #
coedge $-1 $233 $232 $312 $313 forward $141 $-1 #
coedge $-1 $143 $153 $314 $315 forward $88 $-1 #
coedge $-1 $226 $149 $143 $221 reversed $227 $-1 #
edge $-1 $316 -30.851036312677664 $154 30.851036312677664 $220 $317 forward 7 unknown #
coedge $-1 $145 $144 $232 $318 forward $57 $-1 #
coedge $-1 $311 $312 $144 $224 reversed $216 $-1 #
edge $-1 $229 -72.164067506942956 $319 72.164067506942956 $223 $320 forward 7 unknown #
edge $-1 $234 -72.164067506942956 $228 72.164067506942956 $148 $321 forward 7 unknown #
coedge $-1 $146 $220 $311 $322 reversed $227 $-1 #
loop $-1 $-1 $149 $215 #
vertex $-1 $147 $323 #
vertex $-1 $147 $324 #
straight-curve $-1 72.164067506942956 0 14.714288174021357 0 1 0 I I #
straight-curve $-1 72.164067506942956 -30.851036312677664 0 0 0 -1 I I #
coedge $-1 $218 $151 $222 $318 reversed $141 $-1 #
coedge $-1 $151 $218 $153 $236 reversed $141 $-1 #
vertex $-1 $318 $325 #
straight-curve $-1 -72.164067506942956 -30.851036312677664 0 0 0 -1 I I #
edge $-1 $155 -30.851036312677664 $326 30.851036312677664 $233 $327 forward 7 unknown #
point $-1 72.164067506942956 -30.851036312677664 -14.714288174021357 #
point $-1 -72.164067506942956 -30.851036312677664 -14.714288174021357 #
face $-1 $-1 $256 $22 $-1 $328 forward single #
loop $-1 $-1 $329 $157 #
plane-surface $-1 -42.735491158900246 -39.078203608400642 0 -1 0 0 0 0 1 forward_v I I I I #
coedge $-1 $330 $160 $246 $331 reversed $96 $-1 #
coedge $-1 $160 $330 $332 $333 reversed $96 $-1 #
coedge $-1 $168 $167 $160 $245 reversed $158 $-1 #
edge $-1 $334 -14.714288174021357 $335 14.714288174021357 $244 $336 forward 7 unknown #
coedge $-1 $162 $161 $242 $331 forward $61 $-1 #
coedge $-1 $252 $329 $161 $248 reversed $240 $-1 #
edge $-1 $250 -8.2271672957229782 $337 8.2271672957229782 $247 $338 forward 7 unknown #
edge $-1 $335 -8.2271672957229782 $169 8.2271672957229782 $167 $339 forward 7 unknown #
vertex $-1 $248 $340 #
straight-curve $-1 0 -30.851036312677664 -14.714288174021357 1 0 0 I I #
coedge $-1 $341 $247 $164 $253 reversed $240 $-1 #
edge $-1 $257 -14.714288174021357 $250 14.714288174021357 $252 $342 forward 7 unknown #
coedge $-1 $332 $165 $168 $259 forward $256 $-1 #
coedge $-1 $165 $332 $341 $343 forward $256 $-1 #
loop $-1 $-1 $165 $239 #
vertex $-1 $166 $344 #
straight-curve $-1 0 -30.851036312677664 14.714288174021357 -1 0 0 I I #
edge $-1 $170 -8.2271672957229782 $334 8.2271672957229782 $168 $345 forward 7 unknown #
point $-1 -51.433298332050654 -30.851036312677664 -14.714288174021357 #
point $-1 -51.433298332050654 -30.851036312677664 14.714288174021357 #
plane-surface $-1 0 0 14.714288174021357 0 0 1 1 0 0 forward_v I I I I #
coedge $-1 $273 $272 $265 $346 forward $173 $-1 #
coedge $-1 $265 $175 $177 $269 reversed $104 $-1 #
coedge $-1 $175 $264 $263 $346 reversed $104 $-1 #
coedge $-1 $183 $178 $175 $267 forward $184 $-1 #
edge $-1 $270 -26.984845993577025 $347 -23.031310256019765 $266 $348 forward 7 unknown #
coedge $-1 $177 $176 $273 $349 reversed $65 $-1 #
edge $-1 $350 -2.4157181099100639e-014 $270 6.8927793526131307 $264 $351 forward 7 unknown #
vertex $-1 $179 $352 #
straight-curve $-1 -68.210531769385696 -5.0930084675713232 14.714288174021357 0 1 0 I I #
coedge $-1 $263 $180 $183 $277 reversed $173 $-1 #
coedge $-1 $180 $263 $268 $349 forward $173 $-1 #
vertex $-1 $181 $353 #
straight-curve $-1 -72.164067506942956 -14.396701721231702 45.925634745163791 0 0 1 I I #
straight-curve $-1 -72.164067506942942 -14.396701721231702 9.0680538204306771 -0.57357642473473569 0 -0.81915205242281985 I I #
edge $-1 $347 5.9753321490535907 $185 14.396701721231702 $272 $354 forward 7 unknown #
point $-1 -72.164067506942956 -14.396701721231702 14.714288174021357 #
point $-1 -68.210531769385696 -14.396701721231702 14.714288174021357 #
edge $-1 $355 1 $355 0 $188 $-1 forward 7 unknown #
vertex $-1 $189 $356 #
ellipse-curve $-1 -67.446401421190373 -11.990596129180815 9.9719734621604985 -0.81915205242281985 0 0.57357642473473569 0.57357642473473569 0 0.81915205242281985 1 I I #
point $-1 -69.613723213429594 -11.990596129180815 12.710323049648832 #
edge $-1 $357 1 $357 0 $192 $-1 forward 7 unknown #
vertex $-1 $193 $358 #
ellipse-curve $-1 -67.446401421190373 -8.3814377411044809 9.9719734621604985 -0.81915205242281985 0 0.57357642473473569 0.57357642473473569 0 0.81915205242281985 1 I I #
point $-1 -69.613723213429594 -8.3814377411044809 12.710323049648832 #
loop $-1 $-1 $204 $196 #
plane-surface $-1 72.164067506942956 0 0 -1 0 0 0 0 1 forward_v I I I I #
coedge $-1 $291 $199 $201 $295 reversed $126 $-1 #
coedge $-1 $199 $290 $359 $360 reversed $126 $-1 #
coedge $-1 $207 $202 $199 $293 forward $197 $-1 #
edge $-1 $296 17.025921054069187 $361 27.187317994297374 $292 $362 forward 7 unknown #
coedge $-1 $201 $200 $299 $363 reversed $79 $-1 #
edge $-1 $364 -144.32813501388594 $296 -128.51980743691115 $290 $365 forward 7 unknown #
vertex $-1 $203 $366 #
straight-curve $-1 62.00267056671477 -5.1940818657035308 14.714288174021362 0 -1 0 I I #
coedge $-1 $359 $204 $207 $303 reversed $288 $-1 #
coedge $-1 $204 $359 $294 $363 forward $288 $-1 #
vertex $-1 $205 $367 #
straight-curve $-1 72.164067506942956 -6.3796257415824211 102.96925452377286 0 0 1 I I #
straight-curve $-1 -20.6082679838171 -6.3796257415824211 113.16617355678567 0.64278759981090561 0 -0.7660444514056185 I I #
edge $-1 $361 -14.396701721231702 $208 -6.3796257415824211 $298 $368 forward 7 unknown #
point $-1 72.164067506942956 -6.3796257415824211 14.714288174021357 #
point $-1 62.00267056671477 -6.3796257415824211 14.714288174021362 #
edge $-1 $369 1 $369 0 $211 $-1 forward 7 unknown #
vertex $-1 $212 $370 #
ellipse-curve $-1 61.331781893214568 -10.388163731407065 3.8331928363131405 0.7660444514056185 0 0.64278759981090561 1.2855751996218112 0 -1.532088902811237 1 I I #
point $-1 68.368944236450687 -10.388163731407065 7.1272584580381437 #
plane-surface $-1 72.164067506942956 0 0 -1 0 0 0 0 1 forward_v I I I I #
coedge $-1 $314 $223 $226 $322 forward $216 $-1 #
coedge $-1 $223 $314 $218 $313 reversed $216 $-1 #
edge $-1 $319 -14.714288174021357 $326 14.714288174021357 $312 $371 forward 7 unknown #
coedge $-1 $312 $311 $219 $315 reversed $216 $-1 #
edge $-1 $326 -72.164067506942956 $316 72.164067506942956 $314 $372 forward 7 unknown #
vertex $-1 $221 $373 #
straight-curve $-1 72.164067506942956 0 -14.714288174021357 0 -1 0 I I #
edge $-1 $319 -30.851036312677664 $234 30.851036312677664 $232 $374 forward 7 unknown #
vertex $-1 $224 $375 #
straight-curve $-1 0 30.851036312677664 14.714288174021357 -1 0 0 I I #
straight-curve $-1 0 -30.851036312677664 14.714288174021357 1 0 0 I I #
edge $-1 $229 -14.714288174021357 $316 14.714288174021357 $226 $376 forward 7 unknown #
point $-1 72.164067506942956 -30.851036312677664 14.714288174021357 #
point $-1 72.164067506942956 30.851036312677664 14.714288174021357 #
point $-1 -72.164067506942956 -30.851036312677664 14.714288174021357 #
vertex $-1 $315 $377 #
straight-curve $-1 -72.164067506942956 0 -14.714288174021357 0 1 0 I I #
plane-surface $-1 0 0 14.714288174021357 0 0 1 1 0 0 forward_v I I I I #
coedge $-1 $247 $341 $330 $378 forward $240 $-1 #
coedge $-1 $243 $242 $329 $378 reversed $96 $-1 #
edge $-1 $337 -4.3489035865752044 $335 4.3489035865752044 $242 $379 forward 7 unknown #
coedge $-1 $255 $254 $243 $333 forward $256 $-1 #
edge $-1 $334 -4.3489035865752044 $380 4.3489035865752044 $243 $381 forward 7 unknown #
vertex $-1 $259 $382 #
vertex $-1 $249 $383 #
straight-curve $-1 -51.433298332050654 -47.30537090412362 0 0 0 -1 I I #
vertex $-1 $378 $384 #
straight-curve $-1 -42.735491158900246 -39.078203608400642 -14.714288174021357 0 -1 0 I I #
straight-curve $-1 -51.433298332050654 -39.078203608400642 -14.714288174021357 0 1 0 I I #
point $-1 -42.735491158900246 -30.851036312677664 -14.714288174021357 #
coedge $-1 $329 $252 $255 $343 reversed $240 $-1 #
straight-curve $-1 -42.735491158900246 -30.851036312677664 0 0 0 -1 I I #
edge $-1 $380 -8.2271672957229782 $257 8.2271672957229782 $341 $385 forward 7 unknown #
point $-1 -42.735491158900246 -30.851036312677664 14.714288174021357 #
straight-curve $-1 -51.433298332050654 -39.078203608400642 14.714288174021357 0 -1 0 I I #
edge $-1 $347 31.211346571142435 $350 36.857580924733135 $263 $386 forward 7 unknown #
vertex $-1 $277 $387 #
straight-curve $-1 -95.195377762962721 -5.9753321490535907 14.714288174021355 -1 0 0 I I #
edge $-1 $350 0.88232368148226747 $274 9.3036932536603789 $273 $388 forward 7 unknown #
vertex $-1 $349 $389 #
straight-curve $-1 -72.164067506942942 -5.9753321490535907 9.0680538204306771 0.57357642473473569 0 0.81915205242281985 I I #
point $-1 -68.210531769385696 -5.9753321490535907 14.714288174021357 #
point $-1 -72.164067506942956 -14.396701721231702 9.0680538204306576 #
straight-curve $-1 -72.164067506942956 0 14.714288174021357 0 -1 0 I I #
vertex $-1 $280 $390 #
point $-1 -66.872824996455634 -11.990596129180815 10.791125514583319 #
vertex $-1 $284 $391 #
point $-1 -66.872824996455634 -8.3814377411044809 10.791125514583319 #
coedge $-1 $299 $298 $291 $360 forward $288 $-1 #
edge $-1 $361 88.254966349751498 $364 100.36484797609546 $359 $392 forward 7 unknown #
vertex $-1 $303 $393 #
straight-curve $-1 44.976749512645583 -14.396701721231702 14.714288174021362 1 0 0 I I #
edge $-1 $364 -9.2026198555281713 $300 -1.1855438758788903 $299 $394 forward 7 unknown #
vertex $-1 $363 $395 #
straight-curve $-1 -20.6082679838171 -14.396701721231702 113.16617355678567 -0.64278759981090561 0 0.7660444514056185 I I #
point $-1 62.00267056671477 -14.396701721231702 14.714288174021362 #
point $-1 72.164067506942942 -6.3796257415824211 2.6044065476773994 #
straight-curve $-1 72.164067506942956 0 14.714288174021357 0 1 0 I I #
vertex $-1 $306 $396 #
point $-1 62.617357092836379 -10.388163731407065 2.3011039335019037 #
straight-curve $-1 -72.164067506942956 30.851036312677664 0 0 0 -1 I I #
straight-curve $-1 0 30.851036312677664 -14.714288174021357 1 0 0 I I #
point $-1 72.164067506942956 30.851036312677664 -14.714288174021357 #
straight-curve $-1 -72.164067506942956 0 14.714288174021357 0 -1 0 I I #
point $-1 -72.164067506942956 30.851036312677664 14.714288174021357 #
straight-curve $-1 72.164067506942956 30.851036312677664 0 0 0 -1 I I #
point $-1 -72.164067506942956 30.851036312677664 -14.714288174021357 #
edge $-1 $380 -14.714288174021357 $337 14.714288174021357 $329 $397 forward 7 unknown #
straight-curve $-1 -47.08439474547545 -47.30537090412362 -14.714288174021357 -1 0 0 I I #
vertex $-1 $343 $398 #
straight-curve $-1 -47.08439474547545 -47.30537090412362 14.714288174021357 1 0 0 I I #
point $-1 -51.433298332050654 -47.30537090412362 14.714288174021357 #
point $-1 -51.433298332050654 -47.30537090412362 -14.714288174021357 #
point $-1 -42.735491158900246 -47.30537090412362 -14.714288174021357 #
straight-curve $-1 -42.735491158900246 -39.078203608400642 14.714288174021357 0 1 0 I I #
straight-curve $-1 -72.164067506942956 -5.9753321490535907 45.925634745163791 0 0 -1 I I #
point $-1 -72.164067506942956 -5.9753321490535907 14.714288174021357 #
straight-curve $-1 -72.164067506942956 -5.0930084675713232 9.0680538204306753 0 -1 0 I I #
point $-1 -72.164067506942956 -5.9753321490535907 9.0680538204306576 #
point $-1 -66.627249368767551 -11.990596129180815 9.398397037425763 #
point $-1 -66.627249368767551 -8.3814377411044809 9.398397037425763 #
straight-curve $-1 72.164067506942956 -14.396701721231702 102.96925452377286 0 0 -1 I I #
point $-1 72.164067506942956 -14.396701721231702 14.714288174021357 #
straight-curve $-1 72.164067506942956 -5.1940818657035308 2.6044065476773781 0 1 0 I I #
point $-1 72.164067506942942 -14.396701721231702 2.6044065476773994 #
point $-1 59.799692990403329 -10.388163731407065 2.5476176366913292 #
straight-curve $-1 -42.735491158900246 -47.30537090412362 0 0 0 -1 I I #
point $-1 -42.735491158900246 -47.30537090412362 14.714288174021357 #
End-of-ACIS-data 