500 0 10 0           
7 Unknown 11 ACIS 5.0 NT 24 Fri Mar 26 19:16:39 1999 
-1 9.9999999999999995e-007 1e-010 
body $-1 $10 $-1 $11 #
body $-1 $12 $-1 $13 #
body $-1 $14 $-1 $15 #
body $-1 $16 $-1 $17 #
body $-1 $18 $-1 $19 #
body $-1 $20 $-1 $21 #
body $-1 $22 $-1 $23 #
body $-1 $24 $-1 $25 #
body $-1 $26 $-1 $27 #
body $-1 $28 $-1 $29 #
lump $-1 $-1 $30 $0 #
transform $-1 1 0 0 0 1 0 0 0 1 52.94717246009705 36.049386233581991 12.873240554758331 1 rotate no_reflect no_shear #
lump $-1 $-1 $31 $1 #
transform $-1 1 0 0 0 1 0 0 0 1 52.94717246009705 36.049386233581991 12.873240554758331 1 rotate no_reflect no_shear #
lump $-1 $-1 $32 $2 #
transform $-1 1 0 0 0 1 0 0 0 1 52.94717246009705 36.049386233581991 12.873240554758331 1 rotate no_reflect no_shear #
lump $-1 $-1 $33 $3 #
transform $-1 1 0 0 0 1 0 0 0 1 52.94717246009705 36.049386233581991 12.873240554758331 1 rotate no_reflect no_shear #
lump $-1 $-1 $34 $4 #
transform $-1 1 0 0 0 1 0 0 0 1 52.94717246009705 36.049386233581991 12.873240554758331 1 rotate no_reflect no_shear #
lump $-1 $-1 $35 $5 #
transform $-1 1 0 0 0 1 0 0 0 1 52.94717246009705 36.049386233581991 12.873240554758331 1 rotate no_reflect no_shear #
lump $-1 $-1 $36 $6 #
transform $-1 1 0 0 0 1 0 0 0 1 52.94717246009705 36.049386233581991 12.873240554758331 1 rotate no_reflect no_shear #
lump $-1 $-1 $37 $7 #
transform $-1 1 0 0 0 1 0 0 0 1 52.94717246009705 36.049386233581991 12.873240554758331 1 rotate no_reflect no_shear #
lump $-1 $-1 $38 $8 #
transform $-1 1 0 0 0 1 0 0 0 1 52.94717246009705 36.049386233581991 12.873240554758331 1 rotate no_reflect no_shear #
lump $-1 $-1 $39 $9 #
transform $-1 1 0 0 0 1 0 0 0 1 52.94717246009705 36.049386233581991 12.873240554758331 1 rotate no_reflect no_shear #
shell $-1 $-1 $-1 $40 $-1 $10 #
shell $-1 $-1 $-1 $41 $-1 $12 #
shell $-1 $-1 $-1 $42 $-1 $14 #
shell $-1 $-1 $-1 $43 $-1 $16 #
shell $-1 $-1 $-1 $44 $-1 $18 #
shell $-1 $-1 $-1 $45 $-1 $20 #
shell $-1 $-1 $-1 $46 $-1 $22 #
shell $-1 $-1 $-1 $47 $-1 $24 #
shell $-1 $-1 $-1 $48 $-1 $26 #
shell $-1 $-1 $-1 $49 $-1 $28 #
face $-1 $50 $51 $30 $-1 $52 forward single #
face $-1 $53 $54 $31 $-1 $55 reversed single #
face $-1 $56 $57 $32 $-1 $58 reversed single #
face $-1 $59 $60 $33 $-1 $61 reversed single #
face $-1 $62 $63 $34 $-1 $64 forward single #
face $-1 $65 $66 $35 $-1 $67 forward single #
face $-1 $68 $69 $36 $-1 $70 forward single #
face $-1 $71 $72 $37 $-1 $73 reversed single #
face $-1 $74 $75 $38 $-1 $76 forward single #
face $-1 $77 $78 $39 $-1 $79 forward single #
face $-1 $80 $81 $30 $-1 $82 reversed single #
loop $-1 $-1 $83 $40 #
plane-surface $-1 0 0 12.873240554758331 0 0 1 1 0 0 forward_v I I I I #
face $-1 $84 $85 $31 $-1 $86 reversed single #
loop $-1 $-1 $87 $41 #
plane-surface $-1 -51.339579057404841 -23.519704484949493 0 0 -1 0 0 0 -1 forward_v I I I I #
face $-1 $88 $89 $32 $-1 $90 reversed single #
loop $-1 $-1 $91 $42 #
plane-surface $-1 -51.339579057404841 23.519704484949493 0 0 1 0 0 0 1 forward_v I I I I #
face $-1 $92 $93 $33 $-1 $94 reversed single #
loop $-1 $-1 $95 $43 #
plane-surface $-1 -119.58864384276467 2.203657498119604 83.824844813382626 0 1 0 -0.62932039886446345 0 0.77714595512881146 forward_v I I I I #
face $-1 $96 $97 $34 $-1 $98 forward single #
loop $-1 $99 $100 $44 #
cone-surface $-1 -45.628325422644004 4.5254047126135148 6.8127887936340503 0.62932039886446345 0 -0.77714595512881146 0.38857297756440573 0 0.31466019943223172 1 I I 0 1 0.5 forward I I I I #
face $-1 $101 $102 $35 $-1 $103 forward single #
loop $-1 $104 $105 $45 #
cone-surface $-1 -45.628325422644004 8.008025534354374 6.8127887936340503 0.62932039886446345 0 -0.77714595512881146 0.38857297756440573 0 0.31466019943223172 1 I I 0 1 0.5 forward I I I I #
face $-1 $106 $107 $36 $-1 $108 forward single #
loop $-1 $109 $110 $46 #
cone-surface $-1 -45.628325422644004 11.490646356095233 6.8127887936340503 0.62932039886446345 0 -0.77714595512881146 0.38857297756440573 0 0.31466019943223172 1 I I 0 1 0.5 forward I I I I #
face $-1 $111 $112 $37 $-1 $113 reversed single #
loop $-1 $-1 $114 $47 #
plane-surface $-1 94.225858519045573 -6.7815668636319018 148.71306369034119 0 -1 0 -0.87461971476443456 0 -0.48480960649040278 forward_v I I I I #
face $-1 $115 $116 $38 $-1 $117 forward single #
loop $-1 $118 $119 $48 #
cone-surface $-1 49.015395618190247 -14.571326561853009 7.8826573345335591 -0.87461971476443456 0 -0.48480960649040278 0.48480960649040278 0 -0.87461971476443456 1 I I 0 1 1 forward I I I I #
face $-1 $120 $121 $39 $-1 $122 forward single #
loop $-1 $123 $124 $49 #
cone-surface $-1 49.015395618190247 -9.8974707429203441 7.8826573345335591 -0.87461971476443456 0 -0.48480960649040278 0.48480960649040278 0 -0.87461971476443456 1 I I 0 1 1 forward I I I I #
face $-1 $125 $126 $30 $-1 $127 reversed single #
loop $-1 $-1 $128 $50 #
plane-surface $-1 0 0 -12.873240554758331 0 0 1 1 0 0 forward_v I I I I #
coedge $-1 $129 $130 $131 $132 forward $51 $-1 #
face $-1 $133 $134 $31 $-1 $135 forward single #
loop $-1 $-1 $136 $53 #
plane-surface $-1 -49.731985654712631 -29.784545359265742 0 -1 0 0 0 0 1 forward_v I I I I #
coedge $-1 $137 $138 $139 $140 forward $54 $-1 #
face $-1 $141 $142 $32 $-1 $143 reversed single #
loop $-1 $-1 $144 $56 #
plane-surface $-1 -49.731985654712631 29.784545359265742 0 -1 0 0 0 0 1 forward_v I I I I #
coedge $-1 $145 $146 $147 $148 reversed $57 $-1 #
face $-1 $149 $150 $33 $-1 $151 reversed single #
loop $-1 $-1 $152 $59 #
plane-surface $-1 -52.94717246009705 8.008025534354374 1.5294829876385734 -0.62932039886446345 0 0.77714595512881146 0.77714595512881146 0 0.62932039886446345 forward_v I I I I #
coedge $-1 $153 $154 $155 $156 reversed $60 $-1 #
face $-1 $-1 $157 $34 $-1 $158 forward single #
loop $-1 $159 $160 $62 #
cone-surface $-1 -45.156335123495658 4.5254047126135148 6.2299293272874419 0.62932039886446345 0 -0.77714595512881146 0.19428648878220287 0 0.15733009971611586 1 I I -0.70710678118654746 0.70710678118654746 0.25 forward I I I I #
loop $-1 $-1 $161 $44 #
coedge $-1 $100 $100 $162 $163 reversed $63 $-1 #
face $-1 $-1 $164 $35 $-1 $165 forward single #
loop $-1 $166 $167 $65 #
cone-surface $-1 -45.156335123495658 8.008025534354374 6.2299293272874419 0.62932039886446345 0 -0.77714595512881146 0.19428648878220287 0 0.15733009971611586 1 I I -0.70710678118654746 0.70710678118654746 0.25 forward I I I I #
loop $-1 $-1 $168 $45 #
coedge $-1 $105 $105 $169 $170 reversed $66 $-1 #
face $-1 $-1 $171 $36 $-1 $172 forward single #
loop $-1 $173 $174 $68 #
cone-surface $-1 -45.156335123495658 11.490646356095233 6.2299293272874419 0.62932039886446345 0 -0.77714595512881146 0.19428648878220287 0 0.15733009971611586 1 I I -0.70710678118654746 0.70710678118654746 0.25 forward I I I I #
loop $-1 $-1 $175 $46 #
coedge $-1 $110 $110 $176 $177 reversed $69 $-1 #
face $-1 $178 $179 $37 $-1 $180 reversed single #
loop $-1 $-1 $181 $71 #
plane-surface $-1 1.6085767697787645 -12.234398652386677 97.374468000022901 0.87461971476443456 0 0.48480960649040278 0.48480960649040278 0 -0.87461971476443456 forward_v I I I I #
coedge $-1 $182 $183 $184 $185 reversed $72 $-1 #
face $-1 $-1 $186 $38 $-1 $187 forward single #
loop $-1 $188 $189 $74 #
cone-surface $-1 46.895710016861756 -14.571326561853009 6.70769646306473 -0.87461971476443456 0 -0.48480960649040278 0.24240480324520139 0 -0.43730985738221728 1 I I -0.70710678118654746 0.70710678118654746 0.5 forward I I I I #
loop $-1 $-1 $190 $48 #
coedge $-1 $119 $119 $191 $192 reversed $75 $-1 #
face $-1 $-1 $193 $39 $-1 $194 forward single #
loop $-1 $195 $196 $77 #
cone-surface $-1 46.895710016861756 -9.8974707429203441 6.70769646306473 -0.87461971476443456 0 -0.48480960649040278 0.24240480324520139 0 -0.43730985738221728 1 I I -0.70710678118654746 0.70710678118654746 0.5 forward I I I I #
loop $-1 $-1 $197 $49 #
coedge $-1 $124 $124 $198 $199 reversed $78 $-1 #
face $-1 $200 $201 $30 $-1 $202 reversed single #
loop $-1 $-1 $203 $80 #
plane-surface $-1 0 -36.049386233581991 0 0 1 0 0 0 1 forward_v I I I I #
coedge $-1 $204 $205 $206 $207 forward $81 $-1 #
coedge $-1 $208 $83 $209 $210 forward $51 $-1 #
coedge $-1 $83 $208 $211 $212 forward $51 $-1 #
coedge $-1 $213 $214 $83 $132 reversed $215 $-1 #
edge $-1 $216 -36.049386233581991 $217 36.049386233581991 $131 $218 forward 7 unknown #
face $-1 $219 $220 $31 $-1 $221 reversed single #
loop $-1 $-1 $222 $84 #
plane-surface $-1 0 0 12.873240554758331 0 0 1 1 0 0 forward_v I I I I #
coedge $-1 $223 $224 $225 $226 reversed $85 $-1 #
coedge $-1 $227 $87 $228 $229 reversed $54 $-1 #
coedge $-1 $87 $227 $230 $231 reversed $54 $-1 #
coedge $-1 $224 $223 $87 $140 reversed $85 $-1 #
edge $-1 $232 -12.873240554758331 $233 12.873240554758331 $139 $234 forward 7 unknown #
face $-1 $235 $236 $32 $-1 $237 reversed single #
loop $-1 $-1 $238 $88 #
plane-surface $-1 0 0 -12.873240554758331 0 0 1 1 0 0 forward_v I I I I #
coedge $-1 $239 $240 $241 $242 forward $89 $-1 #
coedge $-1 $241 $91 $243 $244 reversed $57 $-1 #
coedge $-1 $91 $241 $245 $246 reversed $57 $-1 #
coedge $-1 $247 $248 $91 $148 forward $236 $-1 #
edge $-1 $249 -12.873240554758331 $250 12.873240554758331 $147 $251 forward 7 unknown #
face $-1 $252 $253 $33 $-1 $254 forward single #
loop $-1 $-1 $255 $92 #
plane-surface $-1 -119.58864384276467 13.812393570589144 83.824844813382626 0 -1 0 0.62932039886446345 0 -0.77714595512881146 forward_v I I I I #
coedge $-1 $256 $257 $258 $259 reversed $93 $-1 #
coedge $-1 $154 $95 $260 $261 reversed $60 $-1 #
coedge $-1 $95 $153 $256 $262 reversed $60 $-1 #
coedge $-1 $258 $263 $95 $156 forward $253 $-1 #
edge $-1 $264 6.8471494612852837 $265 20.855523137326912 $155 $266 forward 7 unknown #
loop $-1 $-1 $162 $96 #
plane-surface $-1 -52.94717246009705 8.008025534354374 1.5294829876385734 -0.62932039886446345 0 0.77714595512881146 0.77714595512881146 0 0.62932039886446345 forward_v I I I I #
loop $-1 $-1 $267 $62 #
coedge $-1 $160 $160 $161 $268 reversed $97 $-1 #
coedge $-1 $161 $161 $160 $268 forward $99 $-1 #
coedge $-1 $162 $162 $100 $163 forward $157 $-1 #
edge $-1 $269 0 $269 6.2831853071796004 $162 $270 forward 7 unknown #
loop $-1 $-1 $169 $101 #
plane-surface $-1 -52.94717246009705 8.008025534354374 1.5294829876385734 -0.62932039886446345 0 0.77714595512881146 0.77714595512881146 0 0.62932039886446345 forward_v I I I I #
loop $-1 $-1 $271 $65 #
coedge $-1 $167 $167 $168 $272 reversed $102 $-1 #
coedge $-1 $168 $168 $167 $272 forward $104 $-1 #
coedge $-1 $169 $169 $105 $170 forward $164 $-1 #
edge $-1 $273 0 $273 6.2831853071796004 $169 $274 forward 7 unknown #
loop $-1 $-1 $176 $106 #
plane-surface $-1 -52.94717246009705 8.008025534354374 1.5294829876385734 -0.62932039886446345 0 0.77714595512881146 0.77714595512881146 0 0.62932039886446345 forward_v I I I I #
loop $-1 $-1 $275 $68 #
coedge $-1 $174 $174 $175 $276 reversed $107 $-1 #
coedge $-1 $175 $175 $174 $276 forward $109 $-1 #
coedge $-1 $176 $176 $110 $177 forward $171 $-1 #
edge $-1 $277 0 $277 6.2831853071796004 $176 $278 forward 7 unknown #
face $-1 $279 $280 $37 $-1 $281 reversed single #
loop $-1 $-1 $282 $111 #
plane-surface $-1 94.225858519045573 -17.687230441141452 148.71306369034119 0 1 0 0.87461971476443456 0 0.48480960649040278 forward_v I I I I #
coedge $-1 $283 $284 $285 $286 reversed $112 $-1 #
coedge $-1 $183 $114 $287 $288 reversed $72 $-1 #
coedge $-1 $114 $182 $283 $289 reversed $72 $-1 #
coedge $-1 $285 $290 $114 $185 forward $291 $-1 #
edge $-1 $292 -5.8342432005742637 $293 -1.3354410046532266 $184 $294 forward 7 unknown #
loop $-1 $-1 $191 $115 #
plane-surface $-1 1.6085767697787645 -12.234398652386677 97.374468000022901 0.87461971476443456 0 0.48480960649040278 0.48480960649040278 0 -0.87461971476443456 forward_v I I I I #
loop $-1 $-1 $295 $74 #
coedge $-1 $189 $189 $190 $296 reversed $116 $-1 #
coedge $-1 $190 $190 $189 $296 forward $118 $-1 #
coedge $-1 $191 $191 $119 $192 forward $186 $-1 #
edge $-1 $297 0 $297 6.2831853071796004 $191 $298 forward 7 unknown #
loop $-1 $-1 $198 $120 #
plane-surface $-1 1.6085767697787645 -12.234398652386677 97.374468000022901 0.87461971476443456 0 0.48480960649040278 0.48480960649040278 0 -0.87461971476443456 forward_v I I I I #
loop $-1 $-1 $299 $77 #
coedge $-1 $196 $196 $197 $300 reversed $121 $-1 #
coedge $-1 $197 $197 $196 $300 forward $123 $-1 #
coedge $-1 $198 $198 $124 $199 forward $193 $-1 #
edge $-1 $301 0 $301 6.2831853071796004 $198 $302 forward 7 unknown #
face $-1 $303 $304 $30 $-1 $305 reversed single #
loop $-1 $-1 $306 $125 #
plane-surface $-1 -52.94717246009705 0 0 1 0 0 0 0 -1 forward_v I I I I #
coedge $-1 $307 $211 $308 $309 forward $126 $-1 #
coedge $-1 $310 $128 $307 $311 forward $81 $-1 #
coedge $-1 $128 $310 $312 $313 forward $81 $-1 #
coedge $-1 $214 $213 $128 $207 reversed $215 $-1 #
edge $-1 $314 -36.049386233581991 $315 36.049386233581991 $206 $316 forward 7 unknown #
coedge $-1 $130 $129 $317 $318 forward $51 $-1 #
coedge $-1 $319 $320 $129 $210 reversed $304 $-1 #
edge $-1 $217 -52.94717246009705 $321 52.94717246009705 $209 $322 forward 7 unknown #
coedge $-1 $203 $323 $130 $212 reversed $126 $-1 #
edge $-1 $324 -52.94717246009705 $216 52.94717246009705 $211 $325 forward 7 unknown #
coedge $-1 $206 $131 $323 $326 forward $215 $-1 #
coedge $-1 $131 $206 $319 $327 reversed $215 $-1 #
loop $-1 $-1 $213 $303 #
vertex $-1 $132 $328 #
vertex $-1 $132 $329 #
straight-curve $-1 52.94717246009705 0 12.873240554758331 0 1 0 I I #
face $-1 $330 $331 $31 $-1 $332 reversed single #
loop $-1 $-1 $333 $133 #
plane-surface $-1 -52.94717246009705 0 0 1 0 0 0 0 -1 forward_v I I I I #
coedge $-1 $230 $334 $224 $335 forward $134 $-1 #
coedge $-1 $139 $136 $336 $337 reversed $85 $-1 #
coedge $-1 $136 $139 $222 $335 reversed $85 $-1 #
coedge $-1 $338 $339 $136 $226 forward $340 $-1 #
edge $-1 $341 -12.873240554758331 $342 12.873240554758331 $225 $343 forward 7 unknown #
coedge $-1 $138 $137 $333 $344 reversed $54 $-1 #
coedge $-1 $336 $345 $137 $229 forward $331 $-1 #
edge $-1 $346 -27.27738293139463 $233 -24.06219612601021 $228 $347 forward 7 unknown #
coedge $-1 $348 $222 $138 $231 forward $134 $-1 #
edge $-1 $232 24.06219612601021 $349 27.27738293139463 $230 $350 forward 7 unknown #
vertex $-1 $231 $351 #
vertex $-1 $229 $352 #
straight-curve $-1 -49.731985654712631 -23.519704484949493 0 0 0 -1 I I #
face $-1 $353 $354 $32 $-1 $355 forward single #
loop $-1 $-1 $147 $141 #
plane-surface $-1 -52.94717246009705 0 0 1 0 0 0 0 -1 forward_v I I I I #
coedge $-1 $243 $356 $239 $357 forward $142 $-1 #
coedge $-1 $358 $144 $238 $357 reversed $89 $-1 #
coedge $-1 $144 $358 $359 $360 reversed $89 $-1 #
coedge $-1 $146 $145 $144 $242 reversed $57 $-1 #
edge $-1 $361 -12.873240554758331 $362 12.873240554758331 $144 $363 forward 7 unknown #
coedge $-1 $364 $238 $145 $244 forward $142 $-1 #
edge $-1 $362 24.06219612601021 $249 27.27738293139463 $243 $365 forward 7 unknown #
coedge $-1 $359 $366 $146 $246 forward $354 $-1 #
edge $-1 $250 -27.27738293139463 $361 -24.06219612601021 $245 $367 forward 7 unknown #
coedge $-1 $368 $147 $366 $369 reversed $236 $-1 #
coedge $-1 $147 $368 $364 $370 reversed $236 $-1 #
vertex $-1 $370 $371 #
vertex $-1 $148 $372 #
straight-curve $-1 -52.94717246009705 23.519704484949493 0 0 0 1 I I #
face $-1 $-1 $373 $33 $-1 $374 reversed single #
loop $-1 $-1 $155 $149 #
plane-surface $-1 0 0 12.873240554758331 0 0 1 1 0 0 forward_v I I I I #
coedge $-1 $375 $376 $377 $378 reversed $150 $-1 #
coedge $-1 $379 $152 $154 $262 forward $93 $-1 #
coedge $-1 $152 $379 $375 $380 forward $93 $-1 #
coedge $-1 $377 $155 $152 $259 forward $253 $-1 #
edge $-1 $265 -1.800355269057583 $381 9.8083808034119571 $258 $382 forward 7 unknown #
coedge $-1 $383 $384 $153 $261 forward $373 $-1 #
edge $-1 $385 -40.38293941905274 $264 -29.03918185193298 $260 $386 forward 7 unknown #
edge $-1 $265 -18.025408977030253 $385 0 $154 $387 forward 7 unknown #
coedge $-1 $155 $377 $383 $388 forward $253 $-1 #
vertex $-1 $156 $389 #
vertex $-1 $156 $390 #
straight-curve $-1 -59.794321921382334 2.203657498119604 12.873240554758333 1 0 0 I I #
coedge $-1 $267 $267 $-1 $391 reversed $159 $-1 #
edge $-1 $392 0 $392 6.2831853071796004 $160 $393 forward 7 unknown #
vertex $-1 $163 $394 #
ellipse-curve $-1 -45.942985622076236 4.5254047126135148 7.2013617711984548 -0.62932039886446345 0 0.77714595512881146 0.38857297756440573 0 0.31466019943223172 1 I I #
coedge $-1 $271 $271 $-1 $395 reversed $166 $-1 #
edge $-1 $396 0 $396 6.2831853071796004 $167 $397 forward 7 unknown #
vertex $-1 $170 $398 #
ellipse-curve $-1 -45.942985622076236 8.008025534354374 7.2013617711984548 -0.62932039886446345 0 0.77714595512881146 0.38857297756440573 0 0.31466019943223172 1 I I #
coedge $-1 $275 $275 $-1 $399 reversed $173 $-1 #
edge $-1 $400 0 $400 6.2831853071796004 $174 $401 forward 7 unknown #
vertex $-1 $177 $402 #
ellipse-curve $-1 -45.942985622076236 11.490646356095233 7.2013617711984548 -0.62932039886446345 0 0.77714595512881146 0.38857297756440573 0 0.31466019943223172 1 I I #
face $-1 $-1 $291 $37 $-1 $403 forward single #
loop $-1 $-1 $404 $178 #
plane-surface $-1 52.94717246009705 0 0 -1 0 0 0 0 1 forward_v I I I I #
coedge $-1 $405 $406 $407 $408 reversed $179 $-1 #
coedge $-1 $409 $181 $183 $289 forward $112 $-1 #
coedge $-1 $181 $409 $405 $410 forward $112 $-1 #
coedge $-1 $407 $184 $181 $286 forward $291 $-1 #
edge $-1 $293 0.66436753743856336 $411 11.570031114948113 $285 $412 forward 7 unknown #
coedge $-1 $413 $414 $182 $288 forward $280 $-1 #
edge $-1 $415 -69.599345594414501 $292 -61.483291290412261 $287 $416 forward 7 unknown #
edge $-1 $293 96.614821297532373 $415 105.8943449201941 $183 $417 forward 7 unknown #
coedge $-1 $184 $407 $413 $418 forward $291 $-1 #
loop $-1 $-1 $407 $279 #
vertex $-1 $288 $419 #
vertex $-1 $185 $420 #
straight-curve $-1 47.112929259522787 -6.7815668636319018 12.873240554758326 -1 0 0 I I #
coedge $-1 $295 $295 $-1 $421 reversed $188 $-1 #
edge $-1 $422 0 $422 6.2831853071796004 $189 $423 forward 7 unknown #
vertex $-1 $192 $424 #
ellipse-curve $-1 50.697771362136535 -14.571326561853009 8.8152134027571947 0.87461971476443456 0 0.48480960649040278 0.48480960649040278 0 -0.87461971476443456 1 I I #
coedge $-1 $299 $299 $-1 $425 reversed $195 $-1 #
edge $-1 $426 0 $426 6.2831853071796004 $196 $427 forward 7 unknown #
vertex $-1 $199 $428 #
ellipse-curve $-1 50.697771362136535 -9.8974707429203441 8.8152134027571947 0.87461971476443456 0 0.48480960649040278 0.48480960649040278 0 -0.87461971476443456 1 I I #
face $-1 $-1 $215 $30 $-1 $429 reversed single #
loop $-1 $-1 $319 $200 #
plane-surface $-1 0 36.049386233581991 0 0 -1 0 0 0 -1 forward_v I I I I #
coedge $-1 $430 $317 $320 $431 forward $201 $-1 #
coedge $-1 $323 $203 $204 $311 reversed $126 $-1 #
coedge $-1 $317 $430 $203 $309 reversed $201 $-1 #
edge $-1 $324 -12.873240554758331 $432 12.873240554758331 $308 $433 forward 7 unknown #
coedge $-1 $205 $204 $430 $434 forward $81 $-1 #
edge $-1 $315 -52.94717246009705 $432 52.94717246009705 $307 $435 forward 7 unknown #
coedge $-1 $320 $319 $205 $313 reversed $304 $-1 #
edge $-1 $436 -52.94717246009705 $314 52.94717246009705 $312 $437 forward 7 unknown #
vertex $-1 $207 $438 #
vertex $-1 $326 $439 #
straight-curve $-1 52.94717246009705 0 -12.873240554758331 0 -1 0 I I #
coedge $-1 $306 $308 $208 $318 reversed $201 $-1 #
edge $-1 $321 -36.049386233581991 $324 36.049386233581991 $317 $440 forward 7 unknown #
coedge $-1 $312 $209 $214 $327 forward $304 $-1 #
coedge $-1 $209 $312 $306 $431 reversed $304 $-1 #
vertex $-1 $210 $441 #
straight-curve $-1 0 36.049386233581991 12.873240554758331 -1 0 0 I I #
coedge $-1 $211 $307 $213 $326 reversed $126 $-1 #
vertex $-1 $318 $442 #
straight-curve $-1 0 -36.049386233581991 12.873240554758331 1 0 0 I I #
edge $-1 $216 -12.873240554758331 $315 12.873240554758331 $213 $443 forward 7 unknown #
edge $-1 $217 -12.873240554758331 $314 12.873240554758331 $214 $444 forward 7 unknown #
point $-1 52.94717246009705 -36.049386233581991 12.873240554758331 #
point $-1 52.94717246009705 36.049386233581991 12.873240554758331 #
face $-1 $-1 $340 $31 $-1 $445 reversed single #
loop $-1 $-1 $336 $219 #
plane-surface $-1 0 0 -12.873240554758331 0 0 1 1 0 0 forward_v I I I I #
coedge $-1 $446 $447 $227 $344 forward $220 $-1 #
coedge $-1 $222 $348 $338 $448 forward $134 $-1 #
edge $-1 $342 -21.15711355394912 $232 -8.6274318053166219 $222 $449 forward 7 unknown #
coedge $-1 $450 $228 $223 $337 forward $331 $-1 #
edge $-1 $233 8.6274318053166219 $341 21.15711355394912 $336 $451 forward 7 unknown #
coedge $-1 $452 $225 $334 $448 reversed $340 $-1 #
coedge $-1 $225 $452 $450 $453 reversed $340 $-1 #
loop $-1 $-1 $225 $330 #
vertex $-1 $453 $454 #
vertex $-1 $226 $455 #
straight-curve $-1 -49.731985654712631 -36.049386233581991 0 0 0 1 I I #
edge $-1 $349 -12.873240554758331 $346 12.873240554758331 $333 $456 forward 7 unknown #
coedge $-1 $228 $450 $446 $457 forward $331 $-1 #
vertex $-1 $229 $458 #
straight-curve $-1 -25.66978952870242 -23.519704484949493 -12.873240554758331 1 0 0 I I #
coedge $-1 $334 $230 $447 $459 forward $134 $-1 #
vertex $-1 $459 $460 #
straight-curve $-1 -25.66978952870242 -23.519704484949493 12.873240554758331 -1 0 0 I I #
point $-1 -49.731985654712631 -23.519704484949493 12.873240554758331 #
point $-1 -49.731985654712631 -23.519704484949493 -12.873240554758331 #
face $-1 $-1 $461 $32 $-1 $462 reversed single #
loop $-1 $-1 $359 $235 #
plane-surface $-1 0 0 12.873240554758331 0 0 1 1 0 0 forward_v I I I I #
coedge $-1 $238 $364 $463 $464 forward $142 $-1 #
edge $-1 $465 -21.15711355394912 $362 -8.6274318053166219 $238 $466 forward 7 unknown #
coedge $-1 $240 $239 $467 $468 reversed $89 $-1 #
coedge $-1 $469 $245 $240 $360 forward $354 $-1 #
edge $-1 $361 8.6274318053166219 $470 21.15711355394912 $359 $471 forward 7 unknown #
vertex $-1 $246 $472 #
vertex $-1 $244 $473 #
straight-curve $-1 -49.731985654712631 23.519704484949493 0 0 0 -1 I I #
coedge $-1 $356 $243 $248 $370 forward $142 $-1 #
straight-curve $-1 -25.66978952870242 23.519704484949493 -12.873240554758331 -1 0 0 I I #
coedge $-1 $245 $469 $247 $369 forward $354 $-1 #
straight-curve $-1 -25.66978952870242 23.519704484949493 12.873240554758331 1 0 0 I I #
coedge $-1 $248 $247 $474 $475 forward $236 $-1 #
edge $-1 $476 -36.049386233581991 $250 -23.519704484949493 $247 $477 forward 7 unknown #
edge $-1 $249 23.519704484949493 $478 36.049386233581991 $248 $479 forward 7 unknown #
point $-1 -52.94717246009705 23.519704484949493 -12.873240554758331 #
point $-1 -52.94717246009705 23.519704484949493 12.873240554758331 #
loop $-1 $-1 $260 $252 #
plane-surface $-1 -52.94717246009705 0 0 1 0 0 0 0 -1 forward_v I I I I #
coedge $-1 $376 $255 $257 $380 reversed $150 $-1 #
coedge $-1 $255 $375 $480 $481 reversed $150 $-1 #
coedge $-1 $263 $258 $255 $378 forward $253 $-1 #
edge $-1 $381 -20.855523137326912 $482 -6.8471494612852837 $377 $483 forward 7 unknown #
coedge $-1 $257 $256 $384 $484 reversed $93 $-1 #
edge $-1 $485 0 $381 18.025408977030253 $375 $486 forward 7 unknown #
vertex $-1 $259 $487 #
straight-curve $-1 -38.938798784055422 4.004012767177187 12.873240554758329 0 1 0 I I #
coedge $-1 $480 $260 $263 $388 reversed $373 $-1 #
coedge $-1 $260 $480 $379 $484 forward $373 $-1 #
vertex $-1 $261 $488 #
straight-curve $-1 -52.94717246009705 2.203657498119604 41.912422406691313 0 0 1 I I #
straight-curve $-1 -52.94717246009705 2.203657498119604 1.5294829876385734 -0.77714595512881146 0 -0.62932039886446345 I I #
edge $-1 $482 -13.812393570589144 $264 -2.203657498119604 $383 $489 forward 7 unknown #
point $-1 -52.94717246009705 2.203657498119604 12.873240554758331 #
point $-1 -38.938798784055422 2.203657498119604 12.873240554758329 #
edge $-1 $490 1 $490 0 $267 $-1 forward 7 unknown #
vertex $-1 $268 $491 #
ellipse-curve $-1 -45.313665223211771 4.5254047126135148 6.424215816069645 -0.62932039886446345 0 0.77714595512881146 0.38857297756440573 0 0.31466019943223172 1 I I #
point $-1 -45.554412644511835 4.5254047126135148 7.5160219706306881 #
edge $-1 $492 1 $492 0 $271 $-1 forward 7 unknown #
vertex $-1 $272 $493 #
ellipse-curve $-1 -45.313665223211771 8.008025534354374 6.424215816069645 -0.62932039886446345 0 0.77714595512881146 0.38857297756440573 0 0.31466019943223172 1 I I #
point $-1 -45.554412644511835 8.008025534354374 7.5160219706306881 #
edge $-1 $494 1 $494 0 $275 $-1 forward 7 unknown #
vertex $-1 $276 $495 #
ellipse-curve $-1 -45.313665223211771 11.490646356095233 6.424215816069645 -0.62932039886446345 0 0.77714595512881146 0.38857297756440573 0 0.31466019943223172 1 I I #
point $-1 -45.554412644511835 11.490646356095233 7.5160219706306881 #
plane-surface $-1 0 0 12.873240554758331 0 0 1 1 0 0 forward_v I I I I #
coedge $-1 $414 $413 $406 $496 forward $280 $-1 #
coedge $-1 $406 $282 $284 $410 reversed $179 $-1 #
coedge $-1 $282 $405 $404 $496 reversed $179 $-1 #
coedge $-1 $290 $285 $282 $408 forward $291 $-1 #
edge $-1 $411 1.3354410046532266 $497 5.8342432005742637 $407 $498 forward 7 unknown #
coedge $-1 $284 $283 $414 $499 reversed $112 $-1 #
edge $-1 $500 -105.8943449201941 $411 -96.614821297532373 $405 $501 forward 7 unknown #
vertex $-1 $286 $502 #
straight-curve $-1 48.448370264176006 -6.1171993261933384 12.87324055475834 0 -1 0 I I #
coedge $-1 $404 $287 $290 $418 reversed $280 $-1 #
coedge $-1 $287 $404 $409 $499 forward $280 $-1 #
vertex $-1 $288 $503 #
straight-curve $-1 52.94717246009705 -6.7815668636319018 74.356531845170593 0 0 1 I I #
straight-curve $-1 1.6085767697787645 -6.7815668636319018 97.374468000022901 0.48480960649040278 0 -0.87461971476443456 I I #
edge $-1 $497 -17.687230441141452 $292 -6.7815668636319018 $413 $504 forward 7 unknown #
point $-1 52.94717246009705 -6.7815668636319018 12.873240554758331 #
point $-1 48.448370264176013 -6.7815668636319018 12.873240554758326 #
edge $-1 $505 1 $505 0 $295 $-1 forward 7 unknown #
vertex $-1 $296 $506 #
ellipse-curve $-1 47.333019874243973 -14.571326561853009 6.9501012663099315 0.87461971476443456 0 0.48480960649040278 0.48480960649040278 0 -0.87461971476443456 1 I I #
point $-1 51.182580968626922 -14.571326561853009 7.9405936879927514 #
edge $-1 $507 1 $507 0 $299 $-1 forward 7 unknown #
vertex $-1 $300 $508 #
ellipse-curve $-1 47.333019874243973 -9.8974707429203441 6.9501012663099315 0.87461971476443456 0 0.48480960649040278 0.48480960649040278 0 -0.87461971476443456 1 I I #
point $-1 51.182580968626922 -9.8974707429203441 7.9405936879927514 #
plane-surface $-1 52.94717246009705 0 0 -1 0 0 0 0 1 forward_v I I I I #
coedge $-1 $308 $306 $310 $434 reversed $201 $-1 #
edge $-1 $321 -12.873240554758331 $436 12.873240554758331 $320 $509 forward 7 unknown #
vertex $-1 $434 $510 #
straight-curve $-1 -52.94717246009705 -36.049386233581991 0 0 0 -1 I I #
edge $-1 $432 -36.049386233581991 $436 36.049386233581991 $430 $511 forward 7 unknown #
straight-curve $-1 0 -36.049386233581991 -12.873240554758331 -1 0 0 I I #
vertex $-1 $313 $512 #
straight-curve $-1 0 36.049386233581991 -12.873240554758331 1 0 0 I I #
point $-1 52.94717246009705 36.049386233581991 -12.873240554758331 #
point $-1 52.94717246009705 -36.049386233581991 -12.873240554758331 #
straight-curve $-1 -52.94717246009705 0 12.873240554758331 0 -1 0 I I #
point $-1 -52.94717246009705 36.049386233581991 12.873240554758331 #
point $-1 -52.94717246009705 -36.049386233581991 12.873240554758331 #
straight-curve $-1 52.94717246009705 -36.049386233581991 0 0 0 -1 I I #
straight-curve $-1 52.94717246009705 36.049386233581991 0 0 0 -1 I I #
plane-surface $-1 0 -36.049386233581991 0 0 1 0 0 0 1 forward_v I I I I #
coedge $-1 $513 $333 $345 $457 reversed $220 $-1 #
coedge $-1 $333 $513 $348 $459 reversed $220 $-1 #
edge $-1 $514 -52.94717246009705 $342 -49.731985654712631 $338 $515 forward 7 unknown #
straight-curve $-1 -49.731985654712631 -14.892272679632871 12.873240554758331 0 1 0 I I #
coedge $-1 $345 $336 $339 $453 forward $331 $-1 #
straight-curve $-1 -49.731985654712631 -14.892272679632871 -12.873240554758331 0 -1 0 I I #
coedge $-1 $339 $338 $513 $516 forward $340 $-1 #
edge $-1 $341 49.731985654712631 $517 52.94717246009705 $339 $518 forward 7 unknown #
point $-1 -49.731985654712631 -36.049386233581991 -12.873240554758331 #
point $-1 -49.731985654712631 -36.049386233581991 12.873240554758331 #
straight-curve $-1 -52.94717246009705 -23.519704484949493 0 0 0 -1 I I #
edge $-1 $517 -36.049386233581991 $346 -23.519704484949493 $446 $519 forward 7 unknown #
point $-1 -52.94717246009705 -23.519704484949493 -12.873240554758331 #
edge $-1 $349 23.519704484949493 $514 36.049386233581991 $447 $520 forward 7 unknown #
point $-1 -52.94717246009705 -23.519704484949493 12.873240554758331 #
loop $-1 $-1 $467 $353 #
plane-surface $-1 0 36.049386233581991 0 0 -1 0 0 0 -1 forward_v I I I I #
coedge $-1 $474 $467 $356 $464 reversed $461 $-1 #
edge $-1 $478 -52.94717246009705 $465 -49.731985654712631 $463 $521 forward 7 unknown #
vertex $-1 $357 $522 #
straight-curve $-1 -49.731985654712631 14.892272679632871 -12.873240554758331 0 -1 0 I I #
coedge $-1 $463 $523 $358 $468 forward $461 $-1 #
edge $-1 $470 -12.873240554758331 $465 12.873240554758331 $467 $524 forward 7 unknown #
coedge $-1 $366 $359 $523 $525 forward $354 $-1 #
vertex $-1 $525 $526 #
straight-curve $-1 -49.731985654712631 14.892272679632871 12.873240554758331 0 1 0 I I #
point $-1 -49.731985654712631 23.519704484949493 12.873240554758331 #
point $-1 -49.731985654712631 23.519704484949493 -12.873240554758331 #
coedge $-1 $523 $463 $368 $475 reversed $461 $-1 #
edge $-1 $476 -12.873240554758331 $478 12.873240554758331 $474 $527 forward 7 unknown #
vertex $-1 $525 $528 #
straight-curve $-1 -52.94717246009705 0 12.873240554758331 0 -1 0 I I #
vertex $-1 $464 $529 #
straight-curve $-1 -52.94717246009705 0 -12.873240554758331 0 1 0 I I #
coedge $-1 $384 $383 $376 $481 forward $373 $-1 #
edge $-1 $482 29.03918185193298 $485 40.38293941905274 $480 $530 forward 7 unknown #
vertex $-1 $388 $531 #
straight-curve $-1 -59.794321921382334 13.812393570589144 12.873240554758333 -1 0 0 I I #
edge $-1 $485 -9.8083808034119571 $385 1.800355269057583 $384 $532 forward 7 unknown #
vertex $-1 $484 $533 #
straight-curve $-1 -52.94717246009705 13.812393570589144 1.5294829876385734 0.77714595512881146 0 0.62932039886446345 I I #
point $-1 -38.938798784055422 13.812393570589144 12.873240554758329 #
point $-1 -52.94717246009705 2.203657498119604 1.5294829876385734 #
straight-curve $-1 -52.94717246009705 0 12.873240554758331 0 -1 0 I I #
vertex $-1 $391 $534 #
point $-1 -44.92509224564737 4.5254047126135148 6.7388760155018765 #
vertex $-1 $395 $535 #
point $-1 -44.92509224564737 8.008025534354374 6.7388760155018765 #
vertex $-1 $399 $536 #
point $-1 -44.92509224564737 11.490646356095233 6.7388760155018765 #
edge $-1 $497 61.483291290412261 $500 69.599345594414501 $404 $537 forward 7 unknown #
vertex $-1 $418 $538 #
straight-curve $-1 47.112929259522787 -17.687230441141452 12.873240554758326 1 0 0 I I #
edge $-1 $500 -11.570031114948113 $415 -0.66436753743856336 $414 $539 forward 7 unknown #
vertex $-1 $499 $540 #
straight-curve $-1 1.6085767697787645 -17.687230441141452 97.374468000022901 -0.48480960649040278 0 0.87461971476443456 I I #
point $-1 48.448370264176013 -17.687230441141452 12.873240554758326 #
point $-1 52.94717246009705 -6.7815668636319018 4.7571862507560922 #
straight-curve $-1 52.94717246009705 0 12.873240554758331 0 1 0 I I #
vertex $-1 $421 $541 #
point $-1 47.817829480734375 -14.571326561853009 6.0754815515454972 #
vertex $-1 $425 $542 #
point $-1 47.817829480734375 -9.8974707429203441 6.0754815515454972 #
straight-curve $-1 -52.94717246009705 36.049386233581991 0 0 0 -1 I I #
point $-1 -52.94717246009705 -36.049386233581991 -12.873240554758331 #
straight-curve $-1 -52.94717246009705 0 -12.873240554758331 0 1 0 I I #
point $-1 -52.94717246009705 36.049386233581991 -12.873240554758331 #
coedge $-1 $447 $446 $452 $516 reversed $220 $-1 #
vertex $-1 $459 $543 #
straight-curve $-1 0 -36.049386233581991 12.873240554758331 1 0 0 I I #
edge $-1 $514 -12.873240554758331 $517 12.873240554758331 $513 $544 forward 7 unknown #
vertex $-1 $457 $545 #
straight-curve $-1 0 -36.049386233581991 -12.873240554758331 -1 0 0 I I #
straight-curve $-1 -52.94717246009705 0 -12.873240554758331 0 1 0 I I #
straight-curve $-1 -52.94717246009705 0 12.873240554758331 0 -1 0 I I #
straight-curve $-1 0 36.049386233581991 -12.873240554758331 1 0 0 I I #
point $-1 -49.731985654712631 36.049386233581991 -12.873240554758331 #
coedge $-1 $467 $474 $469 $525 reversed $461 $-1 #
straight-curve $-1 -49.731985654712631 36.049386233581991 0 0 0 -1 I I #
edge $-1 $470 49.731985654712631 $476 52.94717246009705 $523 $546 forward 7 unknown #
point $-1 -49.731985654712631 36.049386233581991 12.873240554758331 #
straight-curve $-1 -52.94717246009705 36.049386233581991 0 0 0 -1 I I #
point $-1 -52.94717246009705 36.049386233581991 12.873240554758331 #
point $-1 -52.94717246009705 36.049386233581991 -12.873240554758331 #
straight-curve $-1 -52.94717246009705 13.812393570589144 41.912422406691313 0 0 -1 I I #
point $-1 -52.94717246009705 13.812393570589144 12.873240554758331 #
straight-curve $-1 -52.94717246009705 4.004012767177187 1.5294829876385749 0 -1 0 I I #
point $-1 -52.94717246009705 13.812393570589144 1.5294829876385734 #
point $-1 -44.999005023779546 4.5254047126135148 6.0356428385052387 #
point $-1 -44.999005023779546 8.008025534354374 6.0356428385052387 #
point $-1 -44.999005023779546 11.490646356095233 6.0356428385052387 #
straight-curve $-1 52.94717246009705 -17.687230441141452 74.356531845170593 0 0 -1 I I #
point $-1 52.94717246009705 -17.687230441141452 12.873240554758331 #
straight-curve $-1 52.94717246009705 -6.1171993261933384 4.7571862507560851 0 1 0 I I #
point $-1 52.94717246009705 -17.687230441141452 4.7571862507560922 #
point $-1 46.458400159479538 -14.571326561853009 6.4652916598195285 #
point $-1 46.458400159479538 -9.8974707429203441 6.4652916598195285 #
point $-1 -52.94717246009705 -36.049386233581991 12.873240554758331 #
straight-curve $-1 -52.94717246009705 -36.049386233581991 0 0 0 -1 I I #
point $-1 -52.94717246009705 -36.049386233581991 -12.873240554758331 #
straight-curve $-1 0 36.049386233581991 12.873240554758331 -1 0 0 I I #
End-of-ACIS-data 