500 0 10 0           
7 Unknown 11 ACIS 5.0 NT 24 Fri Mar 26 18:34:13 1999 
-1 9.9999999999999995e-007 1e-010 
body $-1 $10 $-1 $11 #
body $-1 $12 $-1 $13 #
body $-1 $14 $-1 $15 #
body $-1 $16 $-1 $17 #
body $-1 $18 $-1 $19 #
body $-1 $20 $-1 $21 #
body $-1 $22 $-1 $23 #
body $-1 $24 $-1 $25 #
body $-1 $26 $-1 $27 #
body $-1 $28 $-1 $29 #
lump $-1 $-1 $30 $0 #
transform $-1 1 0 0 0 1 0 0 0 1 61.568041016876734 31.194198533707208 13.278311786505979 1 rotate no_reflect no_shear #
lump $-1 $-1 $31 $1 #
transform $-1 1 0 0 0 1 0 0 0 1 61.568041016876734 31.194198533707208 13.278311786505979 1 rotate no_reflect no_shear #
lump $-1 $-1 $32 $2 #
transform $-1 1 0 0 0 1 0 0 0 1 61.568041016876734 31.194198533707208 13.278311786505979 1 rotate no_reflect no_shear #
lump $-1 $-1 $33 $3 #
transform $-1 1 0 0 0 1 0 0 0 1 61.568041016876734 31.194198533707208 13.278311786505979 1 rotate no_reflect no_shear #
lump $-1 $-1 $34 $4 #
transform $-1 1 0 0 0 1 0 0 0 1 61.568041016876734 31.194198533707208 13.278311786505979 1 rotate no_reflect no_shear #
lump $-1 $-1 $35 $5 #
transform $-1 1 0 0 0 1 0 0 0 1 61.568041016876734 31.194198533707208 13.278311786505979 1 rotate no_reflect no_shear #
lump $-1 $-1 $36 $6 #
transform $-1 1 0 0 0 1 0 0 0 1 61.568041016876734 31.194198533707208 13.278311786505979 1 rotate no_reflect no_shear #
lump $-1 $-1 $37 $7 #
transform $-1 1 0 0 0 1 0 0 0 1 61.568041016876734 31.194198533707208 13.278311786505979 1 rotate no_reflect no_shear #
lump $-1 $-1 $38 $8 #
transform $-1 1 0 0 0 1 0 0 0 1 61.568041016876734 31.194198533707208 13.278311786505979 1 rotate no_reflect no_shear #
lump $-1 $-1 $39 $9 #
transform $-1 1 0 0 0 1 0 0 0 1 61.568041016876734 31.194198533707208 13.278311786505979 1 rotate no_reflect no_shear #
shell $-1 $-1 $-1 $40 $-1 $10 #
shell $-1 $-1 $-1 $41 $-1 $12 #
shell $-1 $-1 $-1 $42 $-1 $14 #
shell $-1 $-1 $-1 $43 $-1 $16 #
shell $-1 $-1 $-1 $44 $-1 $18 #
shell $-1 $-1 $-1 $45 $-1 $20 #
shell $-1 $-1 $-1 $46 $-1 $22 #
shell $-1 $-1 $-1 $47 $-1 $24 #
shell $-1 $-1 $-1 $48 $-1 $26 #
shell $-1 $-1 $-1 $49 $-1 $28 #
face $-1 $50 $51 $30 $-1 $52 forward single #
face $-1 $53 $54 $31 $-1 $55 forward single #
face $-1 $56 $57 $32 $-1 $58 reversed single #
face $-1 $59 $60 $33 $-1 $61 forward single #
face $-1 $62 $63 $34 $-1 $64 forward single #
face $-1 $65 $66 $35 $-1 $67 forward single #
face $-1 $68 $69 $36 $-1 $70 reversed single #
face $-1 $71 $72 $37 $-1 $73 forward single #
face $-1 $74 $75 $38 $-1 $76 forward single #
face $-1 $77 $78 $39 $-1 $79 forward single #
face $-1 $80 $81 $30 $-1 $82 reversed single #
loop $-1 $-1 $83 $40 #
plane-surface $-1 0 0 13.278311786505979 0 0 1 1 0 0 forward_v I I I I #
face $-1 $84 $85 $31 $-1 $86 forward single #
loop $-1 $-1 $87 $41 #
plane-surface $-1 0 -31.194198533707208 0 0 1 0 0 0 1 forward_v I I I I #
face $-1 $88 $89 $32 $-1 $90 reversed single #
loop $-1 $-1 $91 $42 #
plane-surface $-1 97.773934479648645 -8.5244982165553171 171.78608846101332 0 -1 0 -0.83867057594974714 0 -0.54463902268945019 forward_v I I I I #
face $-1 $92 $93 $33 $-1 $94 forward single #
loop $-1 $95 $96 $43 #
cone-surface $-1 56.296269305867575 -17.161125956500047 6.435026512456921 -0.83867057594974714 0 -0.54463902268945019 0.54463902268945019 0 -0.83867057594974714 1 I I 0 1 1 forward I I I I #
face $-1 $97 $98 $34 $-1 $99 forward single #
loop $-1 $100 $101 $44 #
cone-surface $-1 56.296269305867575 -13.922390554020772 6.435026512456921 -0.83867057594974714 0 -0.54463902268945019 0.54463902268945019 0 -0.83867057594974714 1 I I 0 1 1 forward I I I I #
face $-1 $102 $103 $35 $-1 $104 forward single #
loop $-1 $105 $106 $45 #
cone-surface $-1 56.296269305867575 -10.683655151541501 6.435026512456921 -0.83867057594974714 0 -0.54463902268945019 0.54463902268945019 0 -0.83867057594974714 1 I I 0 1 1 forward I I I I #
face $-1 $107 $108 $36 $-1 $109 reversed single #
loop $-1 $-1 $110 $46 #
plane-surface $-1 -164.8386498563201 -19.320282891486229 68.515479621569995 0 1 0 -0.83867057594974714 0 0.54463902268945019 forward_v I I I I #
face $-1 $111 $112 $37 $-1 $113 forward single #
loop $-1 $114 $115 $47 #
cone-surface $-1 -56.296269305867582 -17.161125956500047 6.4350265124569352 0.83867057594974714 0 -0.54463902268945019 0.54463902268945019 0 0.83867057594974714 1 I I 0 1 1 forward I I I I #
face $-1 $116 $117 $38 $-1 $118 forward single #
loop $-1 $119 $120 $48 #
cone-surface $-1 -56.296269305867582 -13.922390554020772 6.4350265124569352 0.83867057594974714 0 -0.54463902268945019 0.54463902268945019 0 0.83867057594974714 1 I I 0 1 1 forward I I I I #
face $-1 $121 $122 $39 $-1 $123 forward single #
loop $-1 $124 $125 $49 #
cone-surface $-1 -56.296269305867582 -10.683655151541501 6.4350265124569352 0.83867057594974714 0 -0.54463902268945019 0.54463902268945019 0 0.83867057594974714 1 I I 0 1 1 forward I I I I #
face $-1 $126 $127 $30 $-1 $128 reversed single #
loop $-1 $-1 $129 $50 #
plane-surface $-1 0 0 -13.278311786505979 0 0 1 1 0 0 forward_v I I I I #
coedge $-1 $130 $131 $132 $133 forward $51 $-1 #
face $-1 $134 $135 $31 $-1 $136 reversed single #
loop $-1 $-1 $137 $53 #
plane-surface $-1 0 0 13.278311786505979 0 0 1 1 0 0 forward_v I I I I #
coedge $-1 $138 $139 $140 $141 forward $54 $-1 #
face $-1 $142 $143 $32 $-1 $144 reversed single #
loop $-1 $-1 $145 $56 #
plane-surface $-1 -5.4966743597946959 -13.922390554020772 104.72137308434186 0.83867057594974714 0 0.54463902268945019 0.54463902268945019 0 -0.83867057594974714 forward_v I I I I #
coedge $-1 $146 $147 $148 $149 reversed $57 $-1 #
face $-1 $-1 $150 $33 $-1 $151 forward single #
loop $-1 $152 $153 $59 #
cone-surface $-1 54.445611774530121 -17.161125956500047 5.2331954978668751 -0.83867057594974714 0 -0.54463902268945019 0.2723195113447251 0 -0.41933528797487357 1 I I -0.70710678118654746 0.70710678118654746 0.5 forward I I I I #
loop $-1 $-1 $154 $43 #
coedge $-1 $96 $96 $155 $156 reversed $60 $-1 #
face $-1 $-1 $157 $34 $-1 $158 forward single #
loop $-1 $159 $160 $62 #
cone-surface $-1 54.445611774530121 -13.922390554020772 5.2331954978668751 -0.83867057594974714 0 -0.54463902268945019 0.2723195113447251 0 -0.41933528797487357 1 I I -0.70710678118654746 0.70710678118654746 0.5 forward I I I I #
loop $-1 $-1 $161 $44 #
coedge $-1 $101 $101 $162 $163 reversed $63 $-1 #
face $-1 $-1 $164 $35 $-1 $165 forward single #
loop $-1 $166 $167 $65 #
cone-surface $-1 54.445611774530121 -10.683655151541501 5.2331954978668751 -0.83867057594974714 0 -0.54463902268945019 0.2723195113447251 0 -0.41933528797487357 1 I I -0.70710678118654746 0.70710678118654746 0.5 forward I I I I #
loop $-1 $-1 $168 $45 #
coedge $-1 $106 $106 $169 $170 reversed $66 $-1 #
face $-1 $171 $172 $36 $-1 $173 reversed single #
loop $-1 $-1 $174 $68 #
plane-surface $-1 -61.568041016876762 -13.922390554020772 1.4507642448985365 -0.83867057594974714 0 0.54463902268945019 0.54463902268945019 0 0.83867057594974714 forward_v I I I I #
coedge $-1 $175 $176 $177 $178 reversed $69 $-1 #
face $-1 $-1 $179 $37 $-1 $180 forward single #
loop $-1 $181 $182 $71 #
cone-surface $-1 -54.445611774530128 -17.161125956500047 5.2331954978668893 0.83867057594974714 0 -0.54463902268945019 0.2723195113447251 0 0.41933528797487357 1 I I -0.70710678118654746 0.70710678118654746 0.5 forward I I I I #
loop $-1 $-1 $183 $47 #
coedge $-1 $115 $115 $184 $185 reversed $72 $-1 #
face $-1 $-1 $186 $38 $-1 $187 forward single #
loop $-1 $188 $189 $74 #
cone-surface $-1 -54.445611774530128 -13.922390554020772 5.2331954978668893 0.83867057594974714 0 -0.54463902268945019 0.2723195113447251 0 0.41933528797487357 1 I I -0.70710678118654746 0.70710678118654746 0.5 forward I I I I #
loop $-1 $-1 $190 $48 #
coedge $-1 $120 $120 $191 $192 reversed $75 $-1 #
face $-1 $-1 $193 $39 $-1 $194 forward single #
loop $-1 $195 $196 $77 #
cone-surface $-1 -54.445611774530128 -10.683655151541501 5.2331954978668893 0.83867057594974714 0 -0.54463902268945019 0.2723195113447251 0 0.41933528797487357 1 I I -0.70710678118654746 0.70710678118654746 0.5 forward I I I I #
loop $-1 $-1 $197 $49 #
coedge $-1 $125 $125 $198 $199 reversed $78 $-1 #
face $-1 $200 $201 $30 $-1 $202 reversed single #
loop $-1 $-1 $203 $80 #
plane-surface $-1 0 -31.194198533707208 0 0 1 0 0 0 1 forward_v I I I I #
coedge $-1 $204 $205 $206 $207 forward $81 $-1 #
coedge $-1 $208 $83 $209 $210 forward $51 $-1 #
coedge $-1 $83 $208 $211 $212 forward $51 $-1 #
coedge $-1 $213 $214 $83 $133 reversed $215 $-1 #
edge $-1 $216 -31.194198533707208 $217 31.194198533707208 $132 $218 forward 7 unknown #
face $-1 $219 $220 $31 $-1 $221 reversed single #
loop $-1 $-1 $222 $84 #
plane-surface $-1 -61.568041016876734 0 0 1 0 0 0 0 -1 forward_v I I I I #
coedge $-1 $223 $224 $225 $226 forward $85 $-1 #
coedge $-1 $225 $87 $222 $227 reversed $54 $-1 #
coedge $-1 $87 $225 $228 $229 reversed $54 $-1 #
coedge $-1 $230 $231 $87 $141 reversed $220 $-1 #
edge $-1 $232 -61.568041016876734 $233 61.568041016876734 $140 $234 forward 7 unknown #
face $-1 $235 $236 $32 $-1 $237 reversed single #
loop $-1 $-1 $238 $88 #
plane-surface $-1 97.773934479648645 -19.320282891486229 171.78608846101332 0 1 0 0.83867057594974714 0 0.54463902268945019 forward_v I I I I #
coedge $-1 $239 $240 $241 $242 reversed $89 $-1 #
coedge $-1 $147 $91 $243 $244 reversed $57 $-1 #
coedge $-1 $91 $146 $239 $245 reversed $57 $-1 #
coedge $-1 $241 $246 $91 $149 forward $247 $-1 #
edge $-1 $248 -12.681073777052411 $249 -5.0001748417593035 $148 $250 forward 7 unknown #
loop $-1 $-1 $155 $92 #
plane-surface $-1 -5.4966743597946959 -13.922390554020772 104.72137308434186 0.83867057594974714 0 0.54463902268945019 0.54463902268945019 0 -0.83867057594974714 forward_v I I I I #
loop $-1 $-1 $251 $59 #
coedge $-1 $153 $153 $154 $252 reversed $93 $-1 #
coedge $-1 $154 $154 $153 $252 forward $95 $-1 #
coedge $-1 $155 $155 $96 $156 forward $150 $-1 #
edge $-1 $253 0 $253 6.2831853071796004 $155 $254 forward 7 unknown #
loop $-1 $-1 $162 $97 #
plane-surface $-1 -5.4966743597946959 -13.922390554020772 104.72137308434186 0.83867057594974714 0 0.54463902268945019 0.54463902268945019 0 -0.83867057594974714 forward_v I I I I #
loop $-1 $-1 $255 $62 #
coedge $-1 $160 $160 $161 $256 reversed $98 $-1 #
coedge $-1 $161 $161 $160 $256 forward $100 $-1 #
coedge $-1 $162 $162 $101 $163 forward $157 $-1 #
edge $-1 $257 0 $257 6.2831853071796004 $162 $258 forward 7 unknown #
loop $-1 $-1 $169 $102 #
plane-surface $-1 -5.4966743597946959 -13.922390554020772 104.72137308434186 0.83867057594974714 0 0.54463902268945019 0.54463902268945019 0 -0.83867057594974714 forward_v I I I I #
loop $-1 $-1 $259 $65 #
coedge $-1 $167 $167 $168 $260 reversed $103 $-1 #
coedge $-1 $168 $168 $167 $260 forward $105 $-1 #
coedge $-1 $169 $169 $106 $170 forward $164 $-1 #
edge $-1 $261 0 $261 6.2831853071796004 $169 $262 forward 7 unknown #
face $-1 $263 $264 $36 $-1 $265 forward single #
loop $-1 $-1 $266 $107 #
plane-surface $-1 -164.8386498563201 -8.5244982165553171 68.515479621569995 0 -1 0 0.83867057594974714 0 -0.54463902268945019 forward_v I I I I #
coedge $-1 $267 $268 $269 $270 reversed $108 $-1 #
coedge $-1 $176 $110 $271 $272 reversed $69 $-1 #
coedge $-1 $110 $175 $267 $273 reversed $69 $-1 #
coedge $-1 $269 $274 $110 $178 forward $264 $-1 #
edge $-1 $275 20.851283911283318 $276 28.532182846576418 $177 $277 forward 7 unknown #
loop $-1 $-1 $184 $111 #
plane-surface $-1 -61.568041016876762 -13.922390554020772 1.4507642448985365 -0.83867057594974714 0 0.54463902268945019 0.54463902268945019 0 0.83867057594974714 forward_v I I I I #
loop $-1 $-1 $278 $71 #
coedge $-1 $182 $182 $183 $279 reversed $112 $-1 #
coedge $-1 $183 $183 $182 $279 forward $114 $-1 #
coedge $-1 $184 $184 $115 $185 forward $179 $-1 #
edge $-1 $280 0 $280 6.2831853071796004 $184 $281 forward 7 unknown #
loop $-1 $-1 $191 $116 #
plane-surface $-1 -61.568041016876762 -13.922390554020772 1.4507642448985365 -0.83867057594974714 0 0.54463902268945019 0.54463902268945019 0 0.83867057594974714 forward_v I I I I #
loop $-1 $-1 $282 $74 #
coedge $-1 $189 $189 $190 $283 reversed $117 $-1 #
coedge $-1 $190 $190 $189 $283 forward $119 $-1 #
coedge $-1 $191 $191 $120 $192 forward $186 $-1 #
edge $-1 $284 0 $284 6.2831853071796004 $191 $285 forward 7 unknown #
loop $-1 $-1 $198 $121 #
plane-surface $-1 -61.568041016876762 -13.922390554020772 1.4507642448985365 -0.83867057594974714 0 0.54463902268945019 0.54463902268945019 0 0.83867057594974714 forward_v I I I I #
loop $-1 $-1 $286 $77 #
coedge $-1 $196 $196 $197 $287 reversed $122 $-1 #
coedge $-1 $197 $197 $196 $287 forward $124 $-1 #
coedge $-1 $198 $198 $125 $199 forward $193 $-1 #
edge $-1 $288 0 $288 6.2831853071796004 $198 $289 forward 7 unknown #
face $-1 $290 $291 $30 $-1 $292 reversed single #
loop $-1 $-1 $293 $126 #
plane-surface $-1 -61.568041016876734 0 0 1 0 0 0 0 -1 forward_v I I I I #
coedge $-1 $294 $211 $295 $296 forward $127 $-1 #
coedge $-1 $297 $129 $294 $298 forward $81 $-1 #
coedge $-1 $129 $297 $299 $300 forward $81 $-1 #
coedge $-1 $214 $213 $129 $207 reversed $215 $-1 #
edge $-1 $301 -31.194198533707208 $302 31.194198533707208 $206 $303 forward 7 unknown #
coedge $-1 $131 $130 $304 $305 forward $51 $-1 #
coedge $-1 $306 $307 $130 $210 reversed $291 $-1 #
edge $-1 $217 -61.568041016876734 $308 61.568041016876734 $209 $309 forward 7 unknown #
coedge $-1 $203 $310 $131 $212 reversed $127 $-1 #
edge $-1 $311 -61.568041016876734 $216 61.568041016876734 $211 $312 forward 7 unknown #
coedge $-1 $206 $132 $310 $313 forward $215 $-1 #
coedge $-1 $132 $206 $306 $314 reversed $215 $-1 #
loop $-1 $-1 $213 $290 #
vertex $-1 $133 $315 #
vertex $-1 $133 $316 #
straight-curve $-1 61.568041016876734 0 13.278311786505979 0 1 0 I I #
face $-1 $317 $318 $31 $-1 $319 reversed single #
loop $-1 $-1 $230 $134 #
plane-surface $-1 0 -37.131156354817698 7.4903505069666565 0 0 1 1 0 0 forward_v I I I I #
coedge $-1 $320 $321 $138 $227 forward $135 $-1 #
coedge $-1 $322 $137 $321 $323 forward $85 $-1 #
coedge $-1 $137 $322 $324 $325 forward $85 $-1 #
coedge $-1 $139 $138 $137 $226 reversed $54 $-1 #
edge $-1 $326 -61.568041016876734 $327 61.568041016876734 $137 $328 forward 7 unknown #
edge $-1 $327 -13.278311786505979 $233 -7.4903505069666565 $222 $329 forward 7 unknown #
coedge $-1 $324 $330 $139 $229 forward $331 $-1 #
edge $-1 $232 7.4903505069666565 $326 13.278311786505979 $228 $332 forward 7 unknown #
coedge $-1 $333 $140 $330 $334 forward $220 $-1 #
coedge $-1 $140 $333 $320 $335 forward $220 $-1 #
vertex $-1 $229 $336 #
vertex $-1 $227 $337 #
straight-curve $-1 0 -31.194198533707208 7.4903505069666565 -1 0 0 I I #
face $-1 $-1 $247 $32 $-1 $338 forward single #
loop $-1 $-1 $339 $142 #
plane-surface $-1 61.568041016876734 0 0 -1 0 0 0 0 1 forward_v I I I I #
coedge $-1 $340 $341 $342 $343 reversed $143 $-1 #
coedge $-1 $344 $145 $147 $245 forward $89 $-1 #
coedge $-1 $145 $344 $340 $345 forward $89 $-1 #
coedge $-1 $342 $148 $145 $242 forward $247 $-1 #
edge $-1 $249 1.5633029395449309 $346 12.359087614475843 $241 $347 forward 7 unknown #
coedge $-1 $348 $349 $146 $244 forward $236 $-1 #
edge $-1 $350 -84.442279985608096 $248 -72.61473244400068 $243 $351 forward 7 unknown #
edge $-1 $249 109.03334863546604 $350 123.13608203375342 $147 $352 forward 7 unknown #
coedge $-1 $148 $342 $348 $353 forward $247 $-1 #
loop $-1 $-1 $342 $235 #
vertex $-1 $244 $354 #
vertex $-1 $149 $355 #
straight-curve $-1 48.886967239824322 -8.5244982165553171 13.278311786505981 -1 0 0 I I #
coedge $-1 $251 $251 $-1 $356 reversed $152 $-1 #
edge $-1 $357 0 $357 6.2831853071796004 $153 $358 forward 7 unknown #
vertex $-1 $156 $359 #
ellipse-curve $-1 57.727591549230198 -17.161125956500047 7.3645380157022657 0.83867057594974714 0 0.54463902268945019 0.54463902268945019 0 -0.83867057594974714 1 I I #
coedge $-1 $255 $255 $-1 $360 reversed $159 $-1 #
edge $-1 $361 0 $361 6.2831853071796004 $160 $362 forward 7 unknown #
vertex $-1 $163 $363 #
ellipse-curve $-1 57.727591549230198 -13.922390554020772 7.3645380157022657 0.83867057594974714 0 0.54463902268945019 0.54463902268945019 0 -0.83867057594974714 1 I I #
coedge $-1 $259 $259 $-1 $364 reversed $166 $-1 #
edge $-1 $365 0 $365 6.2831853071796004 $167 $366 forward 7 unknown #
vertex $-1 $170 $367 #
ellipse-curve $-1 57.727591549230198 -10.683655151541501 7.3645380157022657 0.83867057594974714 0 0.54463902268945019 0.54463902268945019 0 -0.83867057594974714 1 I I #
face $-1 $-1 $368 $36 $-1 $369 reversed single #
loop $-1 $-1 $177 $171 #
plane-surface $-1 0 0 13.278311786505979 0 0 1 1 0 0 forward_v I I I I #
coedge $-1 $370 $371 $372 $373 reversed $172 $-1 #
coedge $-1 $374 $174 $176 $273 forward $108 $-1 #
coedge $-1 $174 $374 $370 $375 forward $108 $-1 #
coedge $-1 $372 $177 $174 $270 forward $264 $-1 #
edge $-1 $276 -12.359087614475843 $376 -1.5633029395449309 $269 $377 forward 7 unknown #
coedge $-1 $378 $379 $175 $272 forward $368 $-1 #
edge $-1 $380 -32.806975565886418 $275 -20.979428024279017 $271 $381 forward 7 unknown #
edge $-1 $276 -14.10273339828742 $380 -5.2165360557043749e-014 $176 $382 forward 7 unknown #
coedge $-1 $177 $372 $378 $383 forward $264 $-1 #
vertex $-1 $272 $384 #
vertex $-1 $178 $385 #
straight-curve $-1 -82.419324928160052 -19.320282891486229 13.278311786505981 1 0 0 I I #
coedge $-1 $278 $278 $-1 $386 reversed $181 $-1 #
edge $-1 $387 0 $387 6.2831853071796004 $182 $388 forward 7 unknown #
vertex $-1 $185 $389 #
ellipse-curve $-1 -57.727591549230191 -17.161125956500047 7.364538015702272 -0.83867057594974714 0 0.54463902268945019 0.54463902268945019 0 0.83867057594974714 1 I I #
coedge $-1 $282 $282 $-1 $390 reversed $188 $-1 #
edge $-1 $391 0 $391 6.2831853071796004 $189 $392 forward 7 unknown #
vertex $-1 $192 $393 #
ellipse-curve $-1 -57.727591549230191 -13.922390554020772 7.364538015702272 -0.83867057594974714 0 0.54463902268945019 0.54463902268945019 0 0.83867057594974714 1 I I #
coedge $-1 $286 $286 $-1 $394 reversed $195 $-1 #
edge $-1 $395 0 $395 6.2831853071796004 $196 $396 forward 7 unknown #
vertex $-1 $199 $397 #
ellipse-curve $-1 -57.727591549230191 -10.683655151541501 7.364538015702272 -0.83867057594974714 0 0.54463902268945019 0.54463902268945019 0 0.83867057594974714 1 I I #
face $-1 $-1 $215 $30 $-1 $398 reversed single #
loop $-1 $-1 $306 $200 #
plane-surface $-1 0 31.194198533707208 0 0 -1 0 0 0 -1 forward_v I I I I #
coedge $-1 $399 $304 $307 $400 forward $201 $-1 #
coedge $-1 $310 $203 $204 $298 reversed $127 $-1 #
coedge $-1 $304 $399 $203 $296 reversed $201 $-1 #
edge $-1 $311 -13.278311786505979 $401 13.278311786505979 $295 $402 forward 7 unknown #
coedge $-1 $205 $204 $399 $403 forward $81 $-1 #
edge $-1 $302 -61.568041016876734 $401 61.568041016876734 $294 $404 forward 7 unknown #
coedge $-1 $307 $306 $205 $300 reversed $291 $-1 #
edge $-1 $405 -61.568041016876734 $301 61.568041016876734 $299 $406 forward 7 unknown #
vertex $-1 $207 $407 #
vertex $-1 $313 $408 #
straight-curve $-1 61.568041016876734 0 -13.278311786505979 0 -1 0 I I #
coedge $-1 $293 $295 $208 $305 reversed $201 $-1 #
edge $-1 $308 -31.194198533707208 $311 31.194198533707208 $304 $409 forward 7 unknown #
coedge $-1 $299 $209 $214 $314 forward $291 $-1 #
coedge $-1 $209 $299 $293 $400 reversed $291 $-1 #
vertex $-1 $210 $410 #
straight-curve $-1 0 31.194198533707208 13.278311786505979 -1 0 0 I I #
coedge $-1 $211 $294 $213 $313 reversed $127 $-1 #
vertex $-1 $305 $411 #
straight-curve $-1 0 -31.194198533707208 13.278311786505979 1 0 0 I I #
edge $-1 $216 -13.278311786505979 $302 13.278311786505979 $213 $412 forward 7 unknown #
edge $-1 $217 -13.278311786505979 $301 13.278311786505979 $214 $413 forward 7 unknown #
point $-1 61.568041016876734 -31.194198533707208 13.278311786505979 #
point $-1 61.568041016876734 31.194198533707208 13.278311786505979 #
face $-1 $-1 $331 $31 $-1 $414 reversed single #
loop $-1 $-1 $415 $219 #
plane-surface $-1 0 -43.068114175928187 10.384331146736317 0 1 0 0 0 1 forward_v I I I I #
coedge $-1 $416 $222 $231 $335 reversed $135 $-1 #
coedge $-1 $222 $416 $223 $323 reversed $135 $-1 #
coedge $-1 $224 $223 $417 $418 forward $85 $-1 #
edge $-1 $327 31.194198533707208 $419 43.068114175928187 $321 $420 forward 7 unknown #
coedge $-1 $421 $228 $224 $325 reversed $331 $-1 #
edge $-1 $422 -43.068114175928187 $326 -31.194198533707208 $324 $423 forward 7 unknown #
vertex $-1 $229 $424 #
vertex $-1 $323 $425 #
straight-curve $-1 0 -31.194198533707208 13.278311786505979 -1 0 0 I I #
straight-curve $-1 -61.568041016876734 -31.194198533707208 0 0 0 -1 I I #
coedge $-1 $228 $421 $230 $334 reversed $331 $-1 #
loop $-1 $-1 $228 $317 #
straight-curve $-1 61.568041016876734 -31.194198533707208 0 0 0 1 I I #
coedge $-1 $231 $230 $426 $427 forward $220 $-1 #
edge $-1 $232 -5.9369578211104894 $428 5.9369578211104894 $330 $429 forward 7 unknown #
edge $-1 $430 -5.9369578211104894 $233 5.9369578211104894 $320 $431 forward 7 unknown #
point $-1 61.568041016876734 -31.194198533707208 7.4903505069666565 #
point $-1 -61.568041016876734 -31.194198533707208 7.4903505069666565 #
plane-surface $-1 0 0 13.278311786505979 0 0 1 1 0 0 forward_v I I I I #
coedge $-1 $349 $348 $341 $432 forward $236 $-1 #
coedge $-1 $341 $238 $240 $345 reversed $143 $-1 #
coedge $-1 $238 $340 $339 $432 reversed $143 $-1 #
coedge $-1 $246 $241 $238 $343 forward $247 $-1 #
edge $-1 $346 5.0001748417593035 $433 12.681073777052411 $342 $434 forward 7 unknown #
coedge $-1 $240 $239 $349 $435 reversed $89 $-1 #
edge $-1 $436 -123.13608203375342 $346 -109.03334863546604 $340 $437 forward 7 unknown #
vertex $-1 $242 $438 #
straight-curve $-1 53.887142081583626 -6.9611952770103862 13.278311786505988 0 -1 0 I I #
coedge $-1 $339 $243 $246 $353 reversed $236 $-1 #
coedge $-1 $243 $339 $344 $435 forward $236 $-1 #
vertex $-1 $244 $439 #
straight-curve $-1 61.568041016876734 -8.5244982165553171 85.893044230506661 0 0 1 I I #
straight-curve $-1 -5.4966743597946959 -8.5244982165553171 104.72137308434186 0.54463902268945019 0 -0.83867057594974714 I I #
edge $-1 $433 -19.320282891486229 $248 -8.5244982165553171 $348 $440 forward 7 unknown #
point $-1 61.568041016876734 -8.5244982165553171 13.278311786505979 #
point $-1 53.887142081583626 -8.5244982165553171 13.278311786505981 #
edge $-1 $441 1 $441 0 $251 $-1 forward 7 unknown #
vertex $-1 $252 $442 #
ellipse-curve $-1 54.864947062504996 -17.161125956500047 5.5055150092116003 0.83867057594974714 0 0.54463902268945019 0.54463902268945019 0 -0.83867057594974714 1 I I #
point $-1 58.272230571919607 -17.161125956500047 6.5258674397524947 #
edge $-1 $443 1 $443 0 $255 $-1 forward 7 unknown #
vertex $-1 $256 $444 #
ellipse-curve $-1 54.864947062504996 -13.922390554020772 5.5055150092116003 0.83867057594974714 0 0.54463902268945019 0.54463902268945019 0 -0.83867057594974714 1 I I #
point $-1 58.272230571919607 -13.922390554020772 6.5258674397524947 #
edge $-1 $445 1 $445 0 $259 $-1 forward 7 unknown #
vertex $-1 $260 $446 #
ellipse-curve $-1 54.864947062504996 -10.683655151541501 5.5055150092116003 0.83867057594974714 0 0.54463902268945019 0.54463902268945019 0 -0.83867057594974714 1 I I #
point $-1 58.272230571919607 -10.683655151541501 6.5258674397524947 #
loop $-1 $-1 $271 $263 #
plane-surface $-1 -61.568041016876734 0 0 1 0 0 0 0 -1 forward_v I I I I #
coedge $-1 $371 $266 $268 $375 reversed $172 $-1 #
coedge $-1 $266 $370 $447 $448 reversed $172 $-1 #
coedge $-1 $274 $269 $266 $373 forward $264 $-1 #
edge $-1 $376 -28.532182846576418 $449 -20.851283911283318 $372 $450 forward 7 unknown #
coedge $-1 $268 $267 $379 $451 reversed $108 $-1 #
edge $-1 $452 5.2165360557043749e-014 $376 14.10273339828742 $370 $453 forward 7 unknown #
vertex $-1 $270 $454 #
straight-curve $-1 -53.88714208158364 -6.9611952770103862 13.278311786505979 0 1 0 I I #
coedge $-1 $447 $271 $274 $383 reversed $368 $-1 #
coedge $-1 $271 $447 $374 $451 forward $368 $-1 #
vertex $-1 $272 $455 #
straight-curve $-1 -61.568041016876734 -19.320282891486229 34.257739810784997 0 0 1 I I #
straight-curve $-1 -61.568041016876762 -19.320282891486229 1.4507642448985365 -0.54463902268945019 0 -0.83867057594974714 I I #
edge $-1 $449 8.5244982165553171 $275 19.320282891486229 $378 $456 forward 7 unknown #
point $-1 -61.568041016876734 -19.320282891486229 13.278311786505979 #
point $-1 -53.887142081583633 -19.320282891486229 13.278311786505979 #
edge $-1 $457 1 $457 0 $278 $-1 forward 7 unknown #
vertex $-1 $279 $458 #
ellipse-curve $-1 -54.864947062505003 -17.161125956500047 5.5055150092116145 -0.83867057594974714 0 0.54463902268945019 0.54463902268945019 0 0.83867057594974714 1 I I #
point $-1 -57.182952526540717 -17.161125956500047 8.2032085916520039 #
edge $-1 $459 1 $459 0 $282 $-1 forward 7 unknown #
vertex $-1 $283 $460 #
ellipse-curve $-1 -54.864947062505003 -13.922390554020772 5.5055150092116145 -0.83867057594974714 0 0.54463902268945019 0.54463902268945019 0 0.83867057594974714 1 I I #
point $-1 -57.182952526540717 -13.922390554020772 8.2032085916520039 #
edge $-1 $461 1 $461 0 $286 $-1 forward 7 unknown #
vertex $-1 $287 $462 #
ellipse-curve $-1 -54.864947062505003 -10.683655151541501 5.5055150092116145 -0.83867057594974714 0 0.54463902268945019 0.54463902268945019 0 0.83867057594974714 1 I I #
point $-1 -57.182952526540717 -10.683655151541501 8.2032085916520039 #
plane-surface $-1 61.568041016876734 0 0 -1 0 0 0 0 1 forward_v I I I I #
coedge $-1 $295 $293 $297 $403 reversed $201 $-1 #
edge $-1 $308 -13.278311786505979 $405 13.278311786505979 $307 $463 forward 7 unknown #
vertex $-1 $403 $464 #
straight-curve $-1 -61.568041016876734 -31.194198533707208 0 0 0 -1 I I #
edge $-1 $401 -31.194198533707208 $405 31.194198533707208 $399 $465 forward 7 unknown #
straight-curve $-1 0 -31.194198533707208 -13.278311786505979 -1 0 0 I I #
vertex $-1 $300 $466 #
straight-curve $-1 0 31.194198533707208 -13.278311786505979 1 0 0 I I #
point $-1 61.568041016876734 31.194198533707208 -13.278311786505979 #
point $-1 61.568041016876734 -31.194198533707208 -13.278311786505979 #
straight-curve $-1 -61.568041016876734 0 13.278311786505979 0 -1 0 I I #
point $-1 -61.568041016876734 31.194198533707208 13.278311786505979 #
point $-1 -61.568041016876734 -31.194198533707208 13.278311786505979 #
straight-curve $-1 61.568041016876734 -31.194198533707208 0 0 0 -1 I I #
straight-curve $-1 61.568041016876734 31.194198533707208 0 0 0 -1 I I #
plane-surface $-1 61.568041016876734 0 0 -1 0 0 0 0 1 forward_v I I I I #
coedge $-1 $426 $417 $416 $467 forward $318 $-1 #
coedge $-1 $321 $320 $415 $467 reversed $135 $-1 #
coedge $-1 $415 $468 $322 $418 reversed $318 $-1 #
edge $-1 $419 -61.568041016876734 $422 61.568041016876734 $417 $469 forward 7 unknown #
vertex $-1 $323 $470 #
straight-curve $-1 -61.568041016876734 0 13.278311786505979 0 -1 0 I I #
coedge $-1 $330 $324 $468 $471 forward $331 $-1 #
vertex $-1 $325 $472 #
straight-curve $-1 61.568041016876734 0 13.278311786505979 0 1 0 I I #
point $-1 61.568041016876734 -31.194198533707208 13.278311786505979 #
point $-1 -61.568041016876734 -31.194198533707208 13.278311786505979 #
coedge $-1 $468 $415 $333 $427 reversed $318 $-1 #
edge $-1 $428 -61.568041016876734 $430 61.568041016876734 $426 $473 forward 7 unknown #
vertex $-1 $471 $474 #
straight-curve $-1 61.568041016876734 -37.131156354817698 7.4903505069666565 0 -1 0 I I #
vertex $-1 $335 $475 #
straight-curve $-1 -61.568041016876734 -37.131156354817698 7.4903505069666565 0 1 0 I I #
edge $-1 $433 72.61473244400068 $436 84.442279985608096 $339 $476 forward 7 unknown #
vertex $-1 $353 $477 #
straight-curve $-1 48.886967239824322 -19.320282891486229 13.278311786505981 1 0 0 I I #
edge $-1 $436 -12.359087614475843 $350 -1.5633029395449309 $349 $478 forward 7 unknown #
vertex $-1 $435 $479 #
straight-curve $-1 -5.4966743597946959 -19.320282891486229 104.72137308434186 -0.54463902268945019 0 0.83867057594974714 I I #
point $-1 53.887142081583626 -19.320282891486229 13.278311786505981 #
point $-1 61.568041016876734 -8.5244982165553171 1.4507642448985649 #
straight-curve $-1 61.568041016876734 0 13.278311786505979 0 1 0 I I #
vertex $-1 $356 $480 #
point $-1 55.409586085194448 -17.161125956500047 4.6668444332618533 #
vertex $-1 $360 $481 #
point $-1 55.409586085194448 -13.922390554020772 4.6668444332618533 #
vertex $-1 $364 $482 #
point $-1 55.409586085194448 -10.683655151541501 4.6668444332618533 #
coedge $-1 $379 $378 $371 $448 forward $368 $-1 #
edge $-1 $449 20.979428024279017 $452 32.806975565886418 $447 $483 forward 7 unknown #
vertex $-1 $383 $484 #
straight-curve $-1 -82.419324928160052 -8.5244982165553171 13.278311786505981 -1 0 0 I I #
edge $-1 $452 1.5633029395449309 $380 12.359087614475843 $379 $485 forward 7 unknown #
vertex $-1 $451 $486 #
straight-curve $-1 -61.568041016876762 -8.5244982165553171 1.4507642448985365 0.54463902268945019 0 0.83867057594974714 I I #
point $-1 -53.887142081583633 -8.5244982165553171 13.278311786505979 #
point $-1 -61.568041016876734 -19.320282891486229 1.4507642448985802 #
straight-curve $-1 -61.568041016876734 0 13.278311786505979 0 -1 0 I I #
vertex $-1 $386 $487 #
point $-1 -54.320308039815551 -17.161125956500047 6.3441855851613616 #
vertex $-1 $390 $488 #
point $-1 -54.320308039815551 -13.922390554020772 6.3441855851613616 #
vertex $-1 $394 $489 #
point $-1 -54.320308039815551 -10.683655151541501 6.3441855851613616 #
straight-curve $-1 -61.568041016876734 31.194198533707208 0 0 0 -1 I I #
point $-1 -61.568041016876734 -31.194198533707208 -13.278311786505979 #
straight-curve $-1 -61.568041016876734 0 -13.278311786505979 0 1 0 I I #
point $-1 -61.568041016876734 31.194198533707208 -13.278311786505979 #
edge $-1 $419 -2.8939806397696604 $430 2.8939806397696604 $416 $490 forward 7 unknown #
coedge $-1 $417 $426 $421 $471 reversed $318 $-1 #
straight-curve $-1 0 -43.068114175928187 13.278311786505977 1 0 0 I I #
point $-1 -61.568041016876734 -43.068114175928187 13.278311786505977 #
edge $-1 $422 -2.8939806397696604 $428 2.8939806397696604 $421 $491 forward 7 unknown #
point $-1 61.568041016876734 -43.068114175928187 13.278311786505977 #
straight-curve $-1 0 -43.068114175928187 7.4903505069666565 -1 0 0 I I #
point $-1 61.568041016876734 -43.068114175928187 7.4903505069666565 #
point $-1 -61.568041016876734 -43.068114175928187 7.4903505069666565 #
straight-curve $-1 61.568041016876734 -19.320282891486229 85.893044230506661 0 0 -1 I I #
point $-1 61.568041016876734 -19.320282891486229 13.278311786505979 #
straight-curve $-1 61.568041016876734 -6.9611952770103862 1.4507642448985791 0 1 0 I I #
point $-1 61.568041016876734 -19.320282891486229 1.4507642448985649 #
point $-1 54.026276486555247 -17.161125956500047 4.9608759865221499 #
point $-1 54.026276486555247 -13.922390554020772 4.9608759865221499 #
point $-1 54.026276486555247 -10.683655151541501 4.9608759865221499 #
straight-curve $-1 -61.568041016876734 -8.5244982165553171 34.257739810784997 0 0 -1 I I #
point $-1 -61.568041016876734 -8.5244982165553171 13.278311786505979 #
straight-curve $-1 -61.568041016876734 -6.9611952770103862 1.4507642448985798 0 -1 0 I I #
point $-1 -61.568041016876734 -8.5244982165553171 1.4507642448985802 #
point $-1 -54.026276486555254 -17.161125956500047 4.9608759865221641 #
point $-1 -54.026276486555254 -13.922390554020772 4.9608759865221641 #
point $-1 -54.026276486555254 -10.683655151541501 4.9608759865221641 #
straight-curve $-1 -61.568041016876734 -43.068114175928187 10.384331146736317 0 0 -1 I I #
straight-curve $-1 61.568041016876734 -43.068114175928187 10.384331146736317 0 0 -1 I I #
End-of-ACIS-data 