500 0 2 0           
7 Unknown 11 ACIS 5.0 NT 24 Thu Mar 25 17:26:29 1999 
-1 9.9999999999999995e-007 1e-010 
body $-1 $2 $-1 $3 #
body $-1 $4 $-1 $5 #
lump $-1 $-1 $6 $0 #
transform $-1 1 0 0 0 1 0 0 0 1 50.2249214148381 31.604285093791429 12.917854875016266 1 rotate no_reflect no_shear #
lump $-1 $-1 $7 $1 #
transform $-1 1 0 0 0 1 0 0 0 1 50.2249214148381 31.604285093791429 12.917854875016266 1 rotate no_reflect no_shear #
shell $-1 $-1 $-1 $8 $-1 $2 #
shell $-1 $-1 $-1 $9 $-1 $4 #
face $-1 $10 $11 $6 $-1 $12 reversed single #
face $-1 $13 $14 $7 $-1 $15 forward single #
face $-1 $16 $17 $6 $-1 $18 forward single #
loop $-1 $-1 $19 $8 #
plane-surface $-1 -50.2249214148381 0 0 1 0 0 0 0 -1 forward_v I I I I #
face $-1 $20 $21 $7 $-1 $22 reversed single #
loop $-1 $-1 $23 $9 #
plane-surface $-1 -50.2249214148381 0 0 1 0 0 0 0 -1 forward_v I I I I #
face $-1 $24 $25 $6 $-1 $26 reversed single #
loop $-1 $-1 $27 $10 #
plane-surface $-1 0 0 12.917854875016266 0 0 1 1 0 0 forward_v I I I I #
coedge $-1 $28 $29 $30 $31 reversed $11 $-1 #
face $-1 $32 $33 $7 $-1 $34 reversed single #
loop $-1 $-1 $35 $13 #
plane-surface $-1 0 0 -12.917854875016266 0 0 1 1 0 0 forward_v I I I I #
coedge $-1 $36 $37 $38 $39 forward $14 $-1 #
face $-1 $40 $41 $6 $-1 $42 reversed single #
loop $-1 $-1 $43 $16 #
plane-surface $-1 0 0 -12.917854875016266 0 0 1 1 0 0 forward_v I I I I #
coedge $-1 $44 $45 $46 $47 forward $17 $-1 #
coedge $-1 $48 $19 $49 $50 reversed $11 $-1 #
coedge $-1 $19 $48 $51 $52 forward $11 $-1 #
coedge $-1 $53 $54 $19 $31 forward $25 $-1 #
edge $-1 $55 -31.604285093791429 $56 31.604285093791429 $19 $57 forward 7 unknown #
face $-1 $58 $59 $7 $-1 $60 reversed single #
loop $-1 $-1 $61 $20 #
plane-surface $-1 -58.629194928604903 -9.4509544216597394 0 0 1 0 0 0 1 forward_v I I I I #
coedge $-1 $62 $63 $37 $64 forward $21 $-1 #
coedge $-1 $65 $23 $66 $67 reversed $14 $-1 #
coedge $-1 $23 $65 $35 $64 reversed $14 $-1 #
coedge $-1 $68 $69 $23 $39 reversed $70 $-1 #
edge $-1 $71 -12.917854875016266 $72 12.917854875016266 $38 $73 forward 7 unknown #
face $-1 $74 $75 $6 $-1 $76 reversed single #
loop $-1 $-1 $49 $24 #
plane-surface $-1 0 -31.604285093791429 0 0 1 0 0 0 1 forward_v I I I I #
coedge $-1 $54 $53 $77 $78 forward $25 $-1 #
coedge $-1 $79 $27 $80 $81 forward $17 $-1 #
coedge $-1 $27 $79 $82 $83 forward $17 $-1 #
coedge $-1 $84 $85 $27 $47 reversed $86 $-1 #
edge $-1 $87 -31.604285093791429 $88 31.604285093791429 $46 $89 forward 7 unknown #
coedge $-1 $29 $28 $79 $90 reversed $11 $-1 #
coedge $-1 $91 $82 $28 $50 forward $41 $-1 #
edge $-1 $92 -12.917854875016266 $55 12.917854875016266 $28 $93 forward 7 unknown #
coedge $-1 $80 $94 $29 $52 reversed $75 $-1 #
edge $-1 $95 -12.917854875016266 $56 12.917854875016266 $51 $96 forward 7 unknown #
coedge $-1 $43 $30 $94 $97 forward $25 $-1 #
coedge $-1 $30 $43 $91 $98 forward $25 $-1 #
vertex $-1 $31 $99 #
vertex $-1 $97 $100 #
straight-curve $-1 -50.2249214148381 0 -12.917854875016266 0 1 0 I I #
face $-1 $101 $70 $7 $-1 $102 reversed single #
loop $-1 $-1 $103 $32 #
plane-surface $-1 -67.033468442371699 -7.6097648827093174 0 1 0 0 0 0 -1 forward_v I I I I #
coedge $-1 $104 $105 $106 $107 forward $33 $-1 #
coedge $-1 $108 $35 $104 $109 forward $21 $-1 #
coedge $-1 $35 $108 $68 $110 forward $21 $-1 #
edge $-1 $71 5.7685753437588954 $111 9.4509544216597394 $35 $112 forward 7 unknown #
coedge $-1 $37 $36 $113 $114 forward $14 $-1 #
coedge $-1 $115 $116 $36 $67 forward $117 $-1 #
edge $-1 $118 -9.4509544216597394 $72 -5.7685753437588954 $66 $119 forward 7 unknown #
coedge $-1 $120 $38 $63 $110 reversed $70 $-1 #
coedge $-1 $38 $120 $115 $121 reversed $70 $-1 #
loop $-1 $-1 $38 $58 #
vertex $-1 $64 $122 #
vertex $-1 $121 $123 #
straight-curve $-1 -50.2249214148381 -5.7685753437588954 0 0 0 1 I I #
face $-1 $-1 $86 $6 $-1 $124 reversed single #
loop $-1 $-1 $125 $40 #
plane-surface $-1 0 31.604285093791429 0 0 -1 0 0 0 -1 forward_v I I I I #
coedge $-1 $85 $84 $43 $78 reversed $86 $-1 #
edge $-1 $126 -31.604285093791429 $127 31.604285093791429 $77 $128 forward 7 unknown #
coedge $-1 $45 $44 $48 $90 forward $17 $-1 #
coedge $-1 $125 $51 $44 $81 reversed $75 $-1 #
edge $-1 $88 -50.2249214148381 $95 50.2249214148381 $80 $129 forward 7 unknown #
coedge $-1 $49 $130 $45 $83 reversed $41 $-1 #
edge $-1 $92 -50.2249214148381 $87 50.2249214148381 $82 $131 forward 7 unknown #
coedge $-1 $77 $46 $130 $132 forward $86 $-1 #
coedge $-1 $46 $77 $125 $133 reversed $86 $-1 #
loop $-1 $-1 $84 $74 #
vertex $-1 $47 $134 #
vertex $-1 $47 $135 #
straight-curve $-1 50.2249214148381 0 12.917854875016266 0 1 0 I I #
edge $-1 $95 -31.604285093791429 $92 31.604285093791429 $48 $136 forward 7 unknown #
coedge $-1 $130 $49 $54 $98 reversed $41 $-1 #
vertex $-1 $90 $137 #
straight-curve $-1 -50.2249214148381 -31.604285093791429 0 0 0 -1 I I #
coedge $-1 $51 $125 $53 $97 reversed $75 $-1 #
vertex $-1 $81 $138 #
straight-curve $-1 -50.2249214148381 31.604285093791429 0 0 0 -1 I I #
edge $-1 $56 -50.2249214148381 $126 50.2249214148381 $94 $139 forward 7 unknown #
edge $-1 $127 -50.2249214148381 $55 50.2249214148381 $91 $140 forward 7 unknown #
point $-1 -50.2249214148381 -31.604285093791429 -12.917854875016266 #
point $-1 -50.2249214148381 31.604285093791429 -12.917854875016266 #
face $-1 $-1 $117 $7 $-1 $141 forward single #
plane-surface $-1 -58.629194928604903 -5.7685753437588954 0 0 -1 0 0 0 -1 forward_v I I I I #
coedge $-1 $142 $143 $120 $144 forward $59 $-1 #
coedge $-1 $113 $61 $62 $109 reversed $33 $-1 #
coedge $-1 $61 $113 $116 $145 reversed $33 $-1 #
coedge $-1 $143 $142 $61 $107 reversed $59 $-1 #
edge $-1 $146 -12.917854875016266 $147 12.917854875016266 $106 $148 forward 7 unknown #
coedge $-1 $63 $62 $142 $149 forward $21 $-1 #
edge $-1 $111 -8.4042735137668032 $147 8.4042735137667961 $104 $150 forward 7 unknown #
edge $-1 $151 -8.4042735137667961 $71 8.4042735137668032 $68 $152 forward 7 unknown #
vertex $-1 $109 $153 #
straight-curve $-1 -50.2249214148381 0 -12.917854875016266 0 -1 0 I I #
coedge $-1 $105 $104 $65 $114 reversed $33 $-1 #
edge $-1 $118 -12.917854875016266 $111 12.917854875016266 $113 $154 forward 7 unknown #
coedge $-1 $155 $66 $69 $121 forward $117 $-1 #
coedge $-1 $66 $155 $105 $145 forward $117 $-1 #
loop $-1 $-1 $66 $101 #
vertex $-1 $67 $156 #
straight-curve $-1 -50.2249214148381 0 12.917854875016266 0 1 0 I I #
coedge $-1 $69 $68 $103 $144 reversed $70 $-1 #
edge $-1 $72 -8.4042735137668032 $157 8.4042735137667961 $69 $158 forward 7 unknown #
point $-1 -50.2249214148381 -5.7685753437588954 -12.917854875016266 #
point $-1 -50.2249214148381 -5.7685753437588954 12.917854875016266 #
plane-surface $-1 50.2249214148381 0 0 -1 0 0 0 0 1 forward_v I I I I #
coedge $-1 $94 $80 $85 $133 forward $75 $-1 #
vertex $-1 $78 $159 #
vertex $-1 $132 $160 #
straight-curve $-1 50.2249214148381 0 -12.917854875016266 0 -1 0 I I #
straight-curve $-1 0 31.604285093791429 12.917854875016266 -1 0 0 I I #
coedge $-1 $82 $91 $84 $132 reversed $41 $-1 #
straight-curve $-1 0 -31.604285093791429 12.917854875016266 1 0 0 I I #
edge $-1 $87 -12.917854875016266 $127 12.917854875016266 $84 $161 forward 7 unknown #
edge $-1 $88 -12.917854875016266 $126 12.917854875016266 $85 $162 forward 7 unknown #
point $-1 50.2249214148381 -31.604285093791429 12.917854875016266 #
point $-1 50.2249214148381 31.604285093791429 12.917854875016266 #
straight-curve $-1 -50.2249214148381 0 12.917854875016266 0 -1 0 I I #
point $-1 -50.2249214148381 -31.604285093791429 12.917854875016266 #
point $-1 -50.2249214148381 31.604285093791429 12.917854875016266 #
straight-curve $-1 0 31.604285093791429 -12.917854875016266 1 0 0 I I #
straight-curve $-1 0 -31.604285093791429 -12.917854875016266 -1 0 0 I I #
plane-surface $-1 0 0 12.917854875016266 0 0 1 1 0 0 forward_v I I I I #
coedge $-1 $106 $103 $108 $149 reversed $59 $-1 #
coedge $-1 $103 $106 $155 $163 reversed $59 $-1 #
edge $-1 $157 -12.917854875016266 $151 12.917854875016266 $120 $164 forward 7 unknown #
edge $-1 $146 -8.4042735137667961 $118 8.4042735137668032 $105 $165 forward 7 unknown #
vertex $-1 $163 $166 #
vertex $-1 $149 $167 #
straight-curve $-1 -67.033468442371699 -9.4509544216597394 0 0 0 -1 I I #
edge $-1 $147 -1.841189538950422 $151 1.841189538950422 $142 $168 forward 7 unknown #
straight-curve $-1 -58.629194928604903 -9.4509544216597394 -12.917854875016266 -1 0 0 I I #
vertex $-1 $110 $169 #
straight-curve $-1 -58.629194928604903 -5.7685753437588954 -12.917854875016266 1 0 0 I I #
point $-1 -50.2249214148381 -9.4509544216597394 -12.917854875016266 #
straight-curve $-1 -50.2249214148381 -9.4509544216597394 0 0 0 -1 I I #
coedge $-1 $116 $115 $143 $163 forward $117 $-1 #
point $-1 -50.2249214148381 -9.4509544216597394 12.917854875016266 #
vertex $-1 $121 $170 #
straight-curve $-1 -58.629194928604903 -5.7685753437588954 12.917854875016266 -1 0 0 I I #
point $-1 50.2249214148381 31.604285093791429 -12.917854875016266 #
point $-1 50.2249214148381 -31.604285093791429 -12.917854875016266 #
straight-curve $-1 50.2249214148381 -31.604285093791429 0 0 0 -1 I I #
straight-curve $-1 50.2249214148381 31.604285093791429 0 0 0 -1 I I #
edge $-1 $157 -1.841189538950422 $146 1.841189538950422 $143 $171 forward 7 unknown #
straight-curve $-1 -67.033468442371699 -5.7685753437588954 0 0 0 -1 I I #
straight-curve $-1 -58.629194928604903 -9.4509544216597394 12.917854875016266 1 0 0 I I #
point $-1 -67.033468442371699 -9.4509544216597394 12.917854875016266 #
point $-1 -67.033468442371699 -9.4509544216597394 -12.917854875016266 #
straight-curve $-1 -67.033468442371699 -7.6097648827093174 -12.917854875016266 0 1 0 I I #
point $-1 -67.033468442371699 -5.7685753437588954 -12.917854875016266 #
point $-1 -67.033468442371699 -5.7685753437588954 12.917854875016266 #
straight-curve $-1 -67.033468442371699 -7.6097648827093174 12.917854875016266 0 -1 0 I I #
End-of-ACIS-data 