500 0 8 0           
7 Unknown 11 ACIS 5.0 NT 24 Thu Mar 25 15:50:17 1999 
-1 9.9999999999999995e-007 1e-010 
body $-1 $8 $-1 $9 #
body $-1 $10 $-1 $11 #
body $-1 $12 $-1 $13 #
body $-1 $14 $-1 $15 #
body $-1 $16 $-1 $17 #
body $-1 $18 $-1 $19 #
body $-1 $20 $-1 $21 #
body $-1 $22 $-1 $23 #
lump $-1 $-1 $24 $0 #
transform $-1 1 0 0 0 1 0 0 0 1 43.812372203741567 28.942613260969566 8.548347937813574 1 rotate no_reflect no_shear #
lump $-1 $-1 $25 $1 #
transform $-1 1 0 0 0 1 0 0 0 1 43.812372203741567 28.942613260969566 8.548347937813574 1 rotate no_reflect no_shear #
lump $-1 $-1 $26 $2 #
transform $-1 1 0 0 0 1 0 0 0 1 43.812372203741567 28.942613260969566 8.548347937813574 1 rotate no_reflect no_shear #
lump $-1 $-1 $27 $3 #
transform $-1 1 0 0 0 1 0 0 0 1 43.812372203741567 28.942613260969566 8.548347937813574 1 rotate no_reflect no_shear #
lump $-1 $-1 $28 $4 #
transform $-1 1 0 0 0 1 0 0 0 1 43.812372203741567 28.942613260969566 8.548347937813574 1 rotate no_reflect no_shear #
lump $-1 $-1 $29 $5 #
transform $-1 1 0 0 0 1 0 0 0 1 43.812372203741567 28.942613260969566 8.548347937813574 1 rotate no_reflect no_shear #
lump $-1 $-1 $30 $6 #
transform $-1 1 0 0 0 1 0 0 0 1 43.812372203741567 28.942613260969566 8.548347937813574 1 rotate no_reflect no_shear #
lump $-1 $-1 $31 $7 #
transform $-1 1 0 0 0 1 0 0 0 1 43.812372203741567 28.942613260969566 8.548347937813574 1 rotate no_reflect no_shear #
shell $-1 $-1 $-1 $32 $-1 $8 #
shell $-1 $-1 $-1 $33 $-1 $10 #
shell $-1 $-1 $-1 $34 $-1 $12 #
shell $-1 $-1 $-1 $35 $-1 $14 #
shell $-1 $-1 $-1 $36 $-1 $16 #
shell $-1 $-1 $-1 $37 $-1 $18 #
shell $-1 $-1 $-1 $38 $-1 $20 #
shell $-1 $-1 $-1 $39 $-1 $22 #
face $-1 $40 $41 $24 $-1 $42 forward single #
face $-1 $43 $44 $25 $-1 $45 forward single #
face $-1 $46 $47 $26 $-1 $48 reversed single #
face $-1 $49 $50 $27 $-1 $51 forward single #
face $-1 $52 $53 $28 $-1 $54 forward single #
face $-1 $55 $56 $29 $-1 $57 reversed single #
face $-1 $58 $59 $30 $-1 $60 forward single #
face $-1 $61 $62 $31 $-1 $63 forward single #
face $-1 $64 $65 $24 $-1 $66 reversed single #
loop $-1 $-1 $67 $32 #
plane-surface $-1 0 0 8.548347937813574 0 0 1 1 0 0 forward_v I I I I #
face $-1 $68 $69 $25 $-1 $70 reversed single #
loop $-1 $-1 $71 $33 #
plane-surface $-1 0 -28.942613260969566 0 0 1 0 0 0 1 forward_v I I I I #
face $-1 $72 $73 $26 $-1 $74 reversed single #
loop $-1 $-1 $75 $34 #
plane-surface $-1 -105.77242389290558 -22.193224670696612 63.154485089880964 0 1 0 -0.70710678939079041 0 0.70710677298230451 forward_v I I I I #
face $-1 $76 $77 $27 $-1 $78 forward single #
loop $-1 $79 $80 $35 #
cone-surface $-1 -38.735347749193579 -17.967427727445717 3.4713234304301501 0.70710678939079041 0 -0.70710677298230451 0.70710677298230451 0 0.70710678939079041 1 I I 0 1 1 forward I I I I #
face $-1 $81 $82 $28 $-1 $83 forward single #
loop $-1 $84 $85 $36 #
cone-surface $-1 -38.735347749193579 -11.628732312569372 3.4713234304301501 0.70710678939079041 0 -0.70710677298230451 0.70710677298230451 0 0.70710678939079041 1 I I 0 1 1 forward I I I I #
face $-1 $86 $87 $29 $-1 $88 reversed single #
loop $-1 $-1 $89 $37 #
plane-surface $-1 77.969383308706909 16.197386076859772 123.52198752470791 0 1 0 0.87461971476443456 0 0.48480960649040278 forward_v I I I I #
face $-1 $90 $91 $30 $-1 $92 forward single #
loop $-1 $93 $94 $38 #
cone-surface $-1 41.912585892707767 19.838879558033994 6.0592235993235963 -0.87461971476443456 0 -0.48480960649040278 0.24240480324520139 0 -0.43730985738221728 1 I I 0 1 0.5 forward I I I I #
face $-1 $95 $96 $31 $-1 $97 forward single #
loop $-1 $98 $99 $39 #
cone-surface $-1 41.912585892707767 25.301119779795336 6.0592235993235963 -0.87461971476443456 0 -0.48480960649040278 0.24240480324520139 0 -0.43730985738221728 1 I I 0 1 0.5 forward I I I I #
face $-1 $100 $101 $24 $-1 $102 reversed single #
loop $-1 $-1 $103 $40 #
plane-surface $-1 0 0 -8.548347937813574 0 0 1 1 0 0 forward_v I I I I #
coedge $-1 $104 $105 $106 $107 forward $41 $-1 #
face $-1 $108 $109 $25 $-1 $110 reversed single #
loop $-1 $-1 $111 $43 #
plane-surface $-1 0 0 -8.548347937813574 0 0 1 1 0 0 forward_v I I I I #
coedge $-1 $112 $113 $114 $115 forward $44 $-1 #
face $-1 $116 $117 $26 $-1 $118 reversed single #
loop $-1 $-1 $119 $46 #
plane-surface $-1 -43.81237220374156 -14.798080020007543 1.1944348385063321 -0.70710678939079041 0 0.70710677298230451 0.70710677298230451 0 0.70710678939079041 forward_v I I I I #
coedge $-1 $120 $121 $122 $123 reversed $47 $-1 #
face $-1 $-1 $124 $27 $-1 $125 forward single #
loop $-1 $126 $127 $49 #
cone-surface $-1 -36.981726364279659 -17.967427727445717 1.7177020862091954 0.70710678939079041 0 -0.70710677298230451 0.35355338649115226 0 0.35355339469539521 1 I I -0.70710678118654746 0.70710678118654746 0.5 forward I I I I #
loop $-1 $-1 $128 $35 #
coedge $-1 $80 $80 $129 $130 reversed $50 $-1 #
face $-1 $-1 $131 $28 $-1 $132 forward single #
loop $-1 $133 $134 $52 #
cone-surface $-1 -36.981726364279659 -11.628732312569372 1.7177020862091954 0.70710678939079041 0 -0.70710677298230451 0.35355338649115226 0 0.35355339469539521 1 I I -0.70710678118654746 0.70710678118654746 0.5 forward I I I I #
loop $-1 $-1 $135 $36 #
coedge $-1 $85 $85 $136 $137 reversed $53 $-1 #
face $-1 $138 $139 $29 $-1 $140 reversed single #
loop $-1 $-1 $141 $55 #
plane-surface $-1 1.3310543487275339 22.569999668914669 81.040669669693898 0.87461971476443456 0 0.48480960649040278 0.48480960649040278 0 -0.87461971476443456 forward_v I I I I #
coedge $-1 $142 $143 $144 $145 reversed $56 $-1 #
face $-1 $-1 $146 $30 $-1 $147 forward single #
loop $-1 $148 $149 $58 #
cone-surface $-1 40.943229277322963 19.838879558033994 5.5219004732605725 -0.87461971476443456 0 -0.48480960649040278 0.12120240162260069 0 -0.21865492869110864 1 I I -0.70710678118654746 0.70710678118654746 0.25 forward I I I I #
loop $-1 $-1 $150 $38 #
coedge $-1 $94 $94 $151 $152 reversed $59 $-1 #
face $-1 $-1 $153 $31 $-1 $154 forward single #
loop $-1 $155 $156 $61 #
cone-surface $-1 40.943229277322963 25.301119779795336 5.5219004732605725 -0.87461971476443456 0 -0.48480960649040278 0.12120240162260069 0 -0.21865492869110864 1 I I -0.70710678118654746 0.70710678118654746 0.25 forward I I I I #
loop $-1 $-1 $157 $39 #
coedge $-1 $99 $99 $158 $159 reversed $62 $-1 #
face $-1 $160 $161 $24 $-1 $162 reversed single #
loop $-1 $-1 $163 $64 #
plane-surface $-1 0 -28.942613260969566 0 0 1 0 0 0 1 forward_v I I I I #
coedge $-1 $164 $165 $166 $167 forward $65 $-1 #
coedge $-1 $168 $67 $169 $170 forward $41 $-1 #
coedge $-1 $67 $168 $171 $172 forward $41 $-1 #
coedge $-1 $173 $174 $67 $107 reversed $175 $-1 #
edge $-1 $176 -28.942613260969566 $177 28.942613260969566 $106 $178 forward 7 unknown #
face $-1 $179 $180 $25 $-1 $181 forward single #
loop $-1 $-1 $182 $68 #
plane-surface $-1 43.812372203741567 0 0 -1 0 0 0 0 1 forward_v I I I I #
coedge $-1 $183 $184 $185 $186 forward $69 $-1 #
coedge $-1 $185 $71 $182 $187 reversed $44 $-1 #
coedge $-1 $71 $185 $188 $189 reversed $44 $-1 #
coedge $-1 $190 $191 $71 $115 reversed $180 $-1 #
edge $-1 $192 -43.812372203741567 $193 43.812372203741567 $114 $194 forward 7 unknown #
face $-1 $195 $196 $26 $-1 $197 forward single #
loop $-1 $-1 $198 $72 #
plane-surface $-1 -105.77242389290558 -7.4029353693184738 63.154485089880964 0 -1 0 0.70710678939079041 0 -0.70710677298230451 forward_v I I I I #
coedge $-1 $199 $200 $201 $202 reversed $73 $-1 #
coedge $-1 $121 $75 $203 $204 reversed $47 $-1 #
coedge $-1 $75 $120 $199 $205 reversed $47 $-1 #
coedge $-1 $201 $206 $75 $123 forward $196 $-1 #
edge $-1 $207 9.0738397427112218 $208 16.427752671370158 $122 $209 forward 7 unknown #
loop $-1 $-1 $129 $76 #
plane-surface $-1 -43.81237220374156 -14.798080020007543 1.1944348385063321 -0.70710678939079041 0 0.70710677298230451 0.70710677298230451 0 0.70710678939079041 forward_v I I I I #
loop $-1 $-1 $210 $49 #
coedge $-1 $127 $127 $128 $211 reversed $77 $-1 #
coedge $-1 $128 $128 $127 $211 forward $79 $-1 #
coedge $-1 $129 $129 $80 $130 forward $124 $-1 #
edge $-1 $212 0 $212 6.2831853071796004 $129 $213 forward 7 unknown #
loop $-1 $-1 $136 $81 #
plane-surface $-1 -43.81237220374156 -14.798080020007543 1.1944348385063321 -0.70710678939079041 0 0.70710677298230451 0.70710677298230451 0 0.70710678939079041 forward_v I I I I #
loop $-1 $-1 $214 $52 #
coedge $-1 $134 $134 $135 $215 reversed $82 $-1 #
coedge $-1 $135 $135 $134 $215 forward $84 $-1 #
coedge $-1 $136 $136 $85 $137 forward $131 $-1 #
edge $-1 $216 0 $216 6.2831853071796004 $136 $217 forward 7 unknown #
face $-1 $218 $219 $29 $-1 $220 forward single #
loop $-1 $-1 $221 $86 #
plane-surface $-1 0 28.942613260969566 0 0 -1 0 0 0 -1 forward_v I I I I #
coedge $-1 $222 $223 $224 $225 reversed $87 $-1 #
coedge $-1 $143 $89 $226 $227 reversed $56 $-1 #
coedge $-1 $89 $142 $222 $228 reversed $56 $-1 #
coedge $-1 $224 $229 $89 $145 forward $230 $-1 #
edge $-1 $231 53.212645824540381 $232 57.358653052639461 $144 $233 forward 7 unknown #
loop $-1 $-1 $151 $90 #
plane-surface $-1 1.3310543487275339 22.569999668914669 81.040669669693898 0.87461971476443456 0 0.48480960649040278 0.48480960649040278 0 -0.87461971476443456 forward_v I I I I #
loop $-1 $-1 $234 $58 #
coedge $-1 $149 $149 $150 $235 reversed $91 $-1 #
coedge $-1 $150 $150 $149 $235 forward $93 $-1 #
coedge $-1 $151 $151 $94 $152 forward $146 $-1 #
edge $-1 $236 0 $236 6.2831853071796004 $151 $237 forward 7 unknown #
loop $-1 $-1 $158 $95 #
plane-surface $-1 1.3310543487275339 22.569999668914669 81.040669669693898 0.87461971476443456 0 0.48480960649040278 0.48480960649040278 0 -0.87461971476443456 forward_v I I I I #
loop $-1 $-1 $238 $61 #
coedge $-1 $156 $156 $157 $239 reversed $96 $-1 #
coedge $-1 $157 $157 $156 $239 forward $98 $-1 #
coedge $-1 $158 $158 $99 $159 forward $153 $-1 #
edge $-1 $240 0 $240 6.2831853071796004 $158 $241 forward 7 unknown #
face $-1 $242 $243 $24 $-1 $244 reversed single #
loop $-1 $-1 $245 $100 #
plane-surface $-1 -43.812372203741567 0 0 1 0 0 0 0 -1 forward_v I I I I #
coedge $-1 $246 $171 $247 $248 forward $101 $-1 #
coedge $-1 $249 $103 $246 $250 forward $65 $-1 #
coedge $-1 $103 $249 $251 $252 forward $65 $-1 #
coedge $-1 $174 $173 $103 $167 reversed $175 $-1 #
edge $-1 $253 -28.942613260969566 $254 28.942613260969566 $166 $255 forward 7 unknown #
coedge $-1 $105 $104 $256 $257 forward $41 $-1 #
coedge $-1 $258 $259 $104 $170 reversed $243 $-1 #
edge $-1 $177 -43.812372203741567 $260 43.812372203741567 $169 $261 forward 7 unknown #
coedge $-1 $163 $262 $105 $172 reversed $101 $-1 #
edge $-1 $263 -43.812372203741567 $176 43.812372203741567 $171 $264 forward 7 unknown #
coedge $-1 $166 $106 $262 $265 forward $175 $-1 #
coedge $-1 $106 $166 $258 $266 reversed $175 $-1 #
loop $-1 $-1 $173 $242 #
vertex $-1 $107 $267 #
vertex $-1 $107 $268 #
straight-curve $-1 43.812372203741567 0 8.548347937813574 0 1 0 I I #
face $-1 $269 $270 $25 $-1 $271 reversed single #
loop $-1 $-1 $191 $108 #
plane-surface $-1 0 -32.317307556106044 -5.548347937813574 0 0 1 1 0 0 forward_v I I I I #
coedge $-1 $272 $273 $112 $187 forward $109 $-1 #
coedge $-1 $274 $111 $273 $275 forward $69 $-1 #
coedge $-1 $111 $274 $276 $277 forward $69 $-1 #
coedge $-1 $113 $112 $111 $186 reversed $44 $-1 #
edge $-1 $278 -43.812372203741567 $279 43.812372203741567 $111 $280 forward 7 unknown #
edge $-1 $279 -8.548347937813574 $193 -5.548347937813574 $182 $281 forward 7 unknown #
coedge $-1 $276 $282 $113 $189 forward $283 $-1 #
edge $-1 $192 5.548347937813574 $278 8.548347937813574 $188 $284 forward 7 unknown #
coedge $-1 $285 $114 $282 $286 forward $180 $-1 #
coedge $-1 $114 $285 $272 $287 forward $180 $-1 #
vertex $-1 $189 $288 #
vertex $-1 $287 $289 #
straight-curve $-1 0 -28.942613260969566 -5.548347937813574 1 0 0 I I #
face $-1 $-1 $290 $26 $-1 $291 reversed single #
loop $-1 $-1 $122 $116 #
plane-surface $-1 0 0 8.548347937813574 0 0 1 1 0 0 forward_v I I I I #
coedge $-1 $292 $293 $294 $295 reversed $117 $-1 #
coedge $-1 $296 $119 $121 $205 forward $73 $-1 #
coedge $-1 $119 $296 $292 $297 forward $73 $-1 #
coedge $-1 $294 $122 $119 $202 forward $196 $-1 #
edge $-1 $208 -14.79418466069284 $298 -0.0038953593147024179 $201 $299 forward 7 unknown #
coedge $-1 $300 $301 $120 $204 forward $290 $-1 #
edge $-1 $302 -30.382807706434157 $207 -23.028894607126908 $203 $303 forward 7 unknown #
edge $-1 $208 -10.400003520886887 $302 1.0048591735576163e-014 $121 $304 forward 7 unknown #
coedge $-1 $122 $294 $300 $305 forward $196 $-1 #
vertex $-1 $204 $306 #
vertex $-1 $123 $307 #
straight-curve $-1 -52.886211946452789 -22.193224670696612 8.548347937813574 1 0 0 I I #
coedge $-1 $210 $210 $-1 $308 reversed $126 $-1 #
edge $-1 $309 0 $309 6.2831853071796004 $127 $310 forward 7 unknown #
vertex $-1 $130 $311 #
ellipse-curve $-1 -40.135415739412096 -17.967427727445717 4.8713913881599487 -0.70710678939079041 0 0.70710677298230451 0.70710677298230451 0 0.70710678939079041 1 I I #
coedge $-1 $214 $214 $-1 $312 reversed $133 $-1 #
edge $-1 $313 0 $313 6.2831853071796004 $134 $314 forward 7 unknown #
vertex $-1 $137 $315 #
ellipse-curve $-1 -40.135415739412096 -11.628732312569372 4.8713913881599487 -0.70710678939079041 0 0.70710677298230451 0.70710677298230451 0 0.70710678939079041 1 I I #
face $-1 $-1 $230 $29 $-1 $316 reversed single #
loop $-1 $-1 $317 $138 #
plane-surface $-1 0 0 8.548347937813574 0 0 1 1 0 0 forward_v I I I I #
coedge $-1 $318 $319 $223 $320 forward $139 $-1 #
coedge $-1 $321 $141 $143 $228 forward $87 $-1 #
coedge $-1 $141 $321 $221 $320 reversed $87 $-1 #
coedge $-1 $322 $144 $141 $225 forward $230 $-1 #
edge $-1 $232 4.9123862424024374 $323 17.657613426512231 $224 $324 forward 7 unknown #
coedge $-1 $325 $317 $142 $227 forward $219 $-1 #
edge $-1 $326 2.5295113007079024 $231 4.8276805493881128 $226 $327 forward 7 unknown #
edge $-1 $232 -87.624744407483163 $326 -82.884390219130864 $143 $328 forward 7 unknown #
coedge $-1 $144 $322 $325 $329 reversed $230 $-1 #
loop $-1 $-1 $224 $218 #
vertex $-1 $329 $330 #
vertex $-1 $145 $331 #
straight-curve $-1 43.812372203741567 16.197386076859772 61.760993762353955 0 0 -1 I I #
coedge $-1 $234 $234 $-1 $332 reversed $148 $-1 #
edge $-1 $333 0 $333 6.2831853071796004 $149 $334 forward 7 unknown #
vertex $-1 $152 $335 #
ellipse-curve $-1 42.663287579401469 19.838879558033994 6.4753443237640207 0.87461971476443456 0 0.48480960649040278 0.24240480324520139 0 -0.43730985738221728 1 I I #
coedge $-1 $238 $238 $-1 $336 reversed $155 $-1 #
edge $-1 $337 0 $337 6.2831853071796004 $156 $338 forward 7 unknown #
vertex $-1 $159 $339 #
ellipse-curve $-1 42.663287579401469 25.301119779795336 6.4753443237640207 0.87461971476443456 0 0.48480960649040278 0.24240480324520139 0 -0.43730985738221728 1 I I #
face $-1 $-1 $175 $24 $-1 $340 reversed single #
loop $-1 $-1 $258 $160 #
plane-surface $-1 0 28.942613260969566 0 0 -1 0 0 0 -1 forward_v I I I I #
coedge $-1 $341 $256 $259 $342 forward $161 $-1 #
coedge $-1 $262 $163 $164 $250 reversed $101 $-1 #
coedge $-1 $256 $341 $163 $248 reversed $161 $-1 #
edge $-1 $263 -8.548347937813574 $343 8.548347937813574 $247 $344 forward 7 unknown #
coedge $-1 $165 $164 $341 $345 forward $65 $-1 #
edge $-1 $254 -43.812372203741567 $343 43.812372203741567 $246 $346 forward 7 unknown #
coedge $-1 $259 $258 $165 $252 reversed $243 $-1 #
edge $-1 $347 -43.812372203741567 $253 43.812372203741567 $251 $348 forward 7 unknown #
vertex $-1 $167 $349 #
vertex $-1 $265 $350 #
straight-curve $-1 43.812372203741567 0 -8.548347937813574 0 -1 0 I I #
coedge $-1 $245 $247 $168 $257 reversed $161 $-1 #
edge $-1 $260 -28.942613260969566 $263 28.942613260969566 $256 $351 forward 7 unknown #
coedge $-1 $251 $169 $174 $266 forward $243 $-1 #
coedge $-1 $169 $251 $245 $342 reversed $243 $-1 #
vertex $-1 $170 $352 #
straight-curve $-1 0 28.942613260969566 8.548347937813574 -1 0 0 I I #
coedge $-1 $171 $246 $173 $265 reversed $101 $-1 #
vertex $-1 $257 $353 #
straight-curve $-1 0 -28.942613260969566 8.548347937813574 1 0 0 I I #
edge $-1 $176 -8.548347937813574 $254 8.548347937813574 $173 $354 forward 7 unknown #
edge $-1 $177 -8.548347937813574 $253 8.548347937813574 $174 $355 forward 7 unknown #
point $-1 43.812372203741567 -28.942613260969566 8.548347937813574 #
point $-1 43.812372203741567 28.942613260969566 8.548347937813574 #
face $-1 $-1 $283 $25 $-1 $356 reversed single #
loop $-1 $-1 $357 $179 #
plane-surface $-1 0 -35.692001851242523 -7.048347937813574 0 1 0 0 0 1 forward_v I I I I #
coedge $-1 $358 $182 $191 $287 reversed $109 $-1 #
coedge $-1 $182 $358 $183 $275 reversed $109 $-1 #
coedge $-1 $184 $183 $359 $360 forward $69 $-1 #
edge $-1 $279 28.942613260969566 $361 35.692001851242523 $273 $362 forward 7 unknown #
coedge $-1 $363 $188 $184 $277 reversed $283 $-1 #
edge $-1 $364 -35.692001851242523 $278 -28.942613260969566 $276 $365 forward 7 unknown #
vertex $-1 $189 $366 #
vertex $-1 $275 $367 #
straight-curve $-1 0 -28.942613260969566 -8.548347937813574 1 0 0 I I #
straight-curve $-1 43.812372203741567 -28.942613260969566 0 0 0 1 I I #
coedge $-1 $188 $363 $190 $286 reversed $283 $-1 #
loop $-1 $-1 $188 $269 #
straight-curve $-1 -43.812372203741567 -28.942613260969566 0 0 0 -1 I I #
coedge $-1 $191 $190 $368 $369 forward $180 $-1 #
edge $-1 $192 -3.3746942951364751 $370 3.3746942951364787 $282 $371 forward 7 unknown #
edge $-1 $372 -3.3746942951364787 $193 3.3746942951364751 $272 $373 forward 7 unknown #
point $-1 -43.812372203741567 -28.942613260969569 -5.548347937813574 #
point $-1 43.812372203741567 -28.942613260969569 -5.548347937813574 #
loop $-1 $-1 $203 $195 #
plane-surface $-1 -43.812372203741567 0 0 1 0 0 0 0 -1 forward_v I I I I #
coedge $-1 $293 $198 $200 $297 reversed $117 $-1 #
coedge $-1 $198 $292 $374 $375 reversed $117 $-1 #
coedge $-1 $206 $201 $198 $295 forward $196 $-1 #
edge $-1 $298 -16.427752671370158 $376 -9.0738397427112218 $294 $377 forward 7 unknown #
coedge $-1 $200 $199 $301 $378 reversed $73 $-1 #
edge $-1 $379 -1.0048591735576163e-014 $298 10.400003520886887 $292 $380 forward 7 unknown #
vertex $-1 $202 $381 #
straight-curve $-1 -36.458459275082625 -7.3990400100037714 8.548347937813574 0 1 0 I I #
coedge $-1 $374 $203 $206 $305 reversed $290 $-1 #
coedge $-1 $203 $374 $296 $378 forward $290 $-1 #
vertex $-1 $204 $382 #
straight-curve $-1 -43.812372203741567 -22.193224670696612 31.577242544940482 0 0 1 I I #
straight-curve $-1 -43.81237220374156 -22.193224670696612 1.1944348385063321 -0.70710677298230451 0 -0.70710678939079041 I I #
edge $-1 $376 7.4029353693184738 $207 22.193224670696612 $300 $383 forward 7 unknown #
point $-1 -43.812372203741567 -22.193224670696612 8.548347937813574 #
point $-1 -36.458459275082632 -22.193224670696612 8.548347937813574 #
edge $-1 $384 1 $384 0 $210 $-1 forward 7 unknown #
vertex $-1 $211 $385 #
ellipse-curve $-1 -37.335279758975055 -17.967427727445717 2.0712554727003476 -0.70710678939079041 0 0.70710677298230451 0.70710677298230451 0 0.70710678939079041 1 I I #
point $-1 -39.428308966429796 -17.967427727445717 5.5784981775507436 #
edge $-1 $386 1 $386 0 $214 $-1 forward 7 unknown #
vertex $-1 $215 $387 #
ellipse-curve $-1 -37.335279758975055 -11.628732312569372 2.0712554727003476 -0.70710678939079041 0 0.70710677298230451 0.70710677298230451 0 0.70710678939079041 1 I I #
point $-1 -39.428308966429796 -11.628732312569372 5.5784981775507436 #
plane-surface $-1 43.812372203741567 0 0 -1 0 0 0 0 1 forward_v I I I I #
coedge $-1 $226 $388 $321 $389 forward $219 $-1 #
coedge $-1 $319 $221 $388 $390 reversed $139 $-1 #
coedge $-1 $221 $318 $322 $391 forward $139 $-1 #
edge $-1 $323 -52.507514679581909 $392 -47.76716049122961 $221 $393 forward 7 unknown #
coedge $-1 $223 $222 $317 $389 reversed $87 $-1 #
coedge $-1 $229 $224 $319 $391 reversed $230 $-1 #
vertex $-1 $320 $394 #
straight-curve $-1 43.81237220374156 11.284999834457334 4.4023407097145011 0 1 0 I I #
coedge $-1 $388 $226 $229 $329 forward $219 $-1 #
vertex $-1 $227 $395 #
straight-curve $-1 38.984691654353455 16.197386076859772 8.548347937813574 1 0 0 I I #
straight-curve $-1 1.3310543487275339 16.197386076859772 81.040669669693898 -0.48480960649040278 0 0.87461971476443456 I I #
edge $-1 $231 16.197386076859772 $396 28.942613260969566 $229 $397 forward 7 unknown #
point $-1 43.812372203741567 16.197386076859772 8.548347937813574 #
point $-1 43.812372203741567 16.197386076859772 4.402340709714494 #
edge $-1 $398 1 $398 0 $234 $-1 forward 7 unknown #
vertex $-1 $235 $399 #
ellipse-curve $-1 41.161884206014072 19.838879558033994 5.6431028748831729 0.87461971476443456 0 0.48480960649040278 0.24240480324520139 0 -0.43730985738221728 1 I I #
point $-1 42.905692382646663 19.838879558033994 6.0380344663818022 #
edge $-1 $400 1 $400 0 $238 $-1 forward 7 unknown #
vertex $-1 $239 $401 #
ellipse-curve $-1 41.161884206014072 25.301119779795336 5.6431028748831729 0.87461971476443456 0 0.48480960649040278 0.24240480324520139 0 -0.43730985738221728 1 I I #
point $-1 42.905692382646663 25.301119779795336 6.0380344663818022 #
plane-surface $-1 43.812372203741567 0 0 -1 0 0 0 0 1 forward_v I I I I #
coedge $-1 $247 $245 $249 $345 reversed $161 $-1 #
edge $-1 $260 -8.548347937813574 $347 8.548347937813574 $259 $402 forward 7 unknown #
vertex $-1 $345 $403 #
straight-curve $-1 -43.812372203741567 -28.942613260969566 0 0 0 -1 I I #
edge $-1 $343 -28.942613260969566 $347 28.942613260969566 $341 $404 forward 7 unknown #
straight-curve $-1 0 -28.942613260969566 -8.548347937813574 -1 0 0 I I #
vertex $-1 $252 $405 #
straight-curve $-1 0 28.942613260969566 -8.548347937813574 1 0 0 I I #
point $-1 43.812372203741567 28.942613260969566 -8.548347937813574 #
point $-1 43.812372203741567 -28.942613260969566 -8.548347937813574 #
straight-curve $-1 -43.812372203741567 0 8.548347937813574 0 -1 0 I I #
point $-1 -43.812372203741567 28.942613260969566 8.548347937813574 #
point $-1 -43.812372203741567 -28.942613260969566 8.548347937813574 #
straight-curve $-1 43.812372203741567 -28.942613260969566 0 0 0 -1 I I #
straight-curve $-1 43.812372203741567 28.942613260969566 0 0 0 -1 I I #
plane-surface $-1 -43.812372203741567 0 0 1 0 0 0 0 -1 forward_v I I I I #
coedge $-1 $359 $368 $363 $406 forward $270 $-1 #
coedge $-1 $273 $272 $407 $408 forward $109 $-1 #
coedge $-1 $407 $357 $274 $360 reversed $270 $-1 #
edge $-1 $361 -43.812372203741567 $364 43.812372203741567 $359 $409 forward 7 unknown #
vertex $-1 $408 $410 #
straight-curve $-1 43.812372203741567 0 -8.548347937813574 0 -1 0 I I #
coedge $-1 $282 $276 $357 $406 reversed $283 $-1 #
vertex $-1 $277 $411 #
straight-curve $-1 -43.812372203741567 0 -8.548347937813574 0 1 0 I I #
point $-1 -43.812372203741567 -28.942613260969566 -8.548347937813574 #
point $-1 43.812372203741567 -28.942613260969566 -8.548347937813574 #
coedge $-1 $357 $407 $285 $369 reversed $270 $-1 #
edge $-1 $370 -43.812372203741567 $372 43.812372203741567 $368 $412 forward 7 unknown #
vertex $-1 $286 $413 #
straight-curve $-1 -43.812372203741567 -32.317307556106044 -5.548347937813574 0 -1 0 I I #
vertex $-1 $287 $414 #
straight-curve $-1 43.812372203741567 -32.317307556106044 -5.548347937813574 0 1 0 I I #
coedge $-1 $301 $300 $293 $375 forward $290 $-1 #
edge $-1 $376 23.028894607126908 $379 30.382807706434157 $374 $415 forward 7 unknown #
vertex $-1 $305 $416 #
straight-curve $-1 -52.886211946452789 -7.4029353693184738 8.548347937813574 -1 0 0 I I #
edge $-1 $379 0.0038953593147024179 $302 14.79418466069284 $301 $417 forward 7 unknown #
vertex $-1 $378 $418 #
straight-curve $-1 -43.81237220374156 -7.4029353693184738 1.1944348385063321 0.70710677298230451 0 0.70710678939079041 I I #
point $-1 -36.458459275082632 -7.4029353693184738 8.548347937813574 #
point $-1 -43.812372203741567 -22.193224670696612 1.194434838506325 #
straight-curve $-1 -43.812372203741567 0 8.548347937813574 0 -1 0 I I #
vertex $-1 $308 $419 #
point $-1 -36.628172985992748 -17.967427727445717 2.7783622620911381 #
vertex $-1 $312 $420 #
point $-1 -36.628172985992748 -11.628732312569372 2.7783622620911381 #
coedge $-1 $317 $325 $318 $390 forward $219 $-1 #
edge $-1 $392 -17.657613426512231 $326 -4.9123862424024374 $317 $421 forward 7 unknown #
edge $-1 $396 -43.812372203741567 $392 -41.514202955061357 $318 $422 forward 7 unknown #
edge $-1 $396 -8.548347937813574 $323 -4.4023407097144966 $322 $423 forward 7 unknown #
vertex $-1 $320 $424 #
straight-curve $-1 18.356224674144414 28.942613260969566 50.326448221759783 -0.48480960649040278 0 0.87461971476443456 I I #
point $-1 43.812372203741567 28.942613260969566 4.4023407097144966 #
point $-1 41.514202955061357 16.197386076859772 8.548347937813574 #
vertex $-1 $329 $425 #
straight-curve $-1 43.812372203741567 0 8.548347937813574 0 1 0 I I #
vertex $-1 $332 $426 #
point $-1 41.404289009259273 19.838879558033994 5.2057930175009561 #
vertex $-1 $336 $427 #
point $-1 41.404289009259273 25.301119779795336 5.2057930175009561 #
straight-curve $-1 -43.812372203741567 28.942613260969566 0 0 0 -1 I I #
point $-1 -43.812372203741567 -28.942613260969566 -8.548347937813574 #
straight-curve $-1 -43.812372203741567 0 -8.548347937813574 0 1 0 I I #
point $-1 -43.812372203741567 28.942613260969566 -8.548347937813574 #
edge $-1 $370 -1.5 $364 1.5 $363 $428 forward 7 unknown #
coedge $-1 $368 $359 $358 $408 reversed $270 $-1 #
edge $-1 $372 -1.5 $361 1.5 $358 $429 forward 7 unknown #
straight-curve $-1 0 -35.692001851242523 -8.548347937813574 -1 0 0 I I #
point $-1 43.812372203741567 -35.692001851242523 -8.548347937813574 #
point $-1 -43.812372203741567 -35.692001851242523 -8.548347937813574 #
straight-curve $-1 0 -35.692001851242523 -5.548347937813574 1 0 0 I I #
point $-1 -43.812372203741567 -35.692001851242523 -5.548347937813574 #
point $-1 43.812372203741567 -35.692001851242523 -5.548347937813574 #
straight-curve $-1 -43.812372203741567 -7.4029353693184738 31.577242544940482 0 0 -1 I I #
point $-1 -43.812372203741567 -7.4029353693184738 8.548347937813574 #
straight-curve $-1 -43.812372203741567 -7.3990400100037714 1.1944348385063179 0 -1 0 I I #
point $-1 -43.812372203741567 -7.4029353693184738 1.194434838506325 #
point $-1 -36.628172969584263 -17.967427727445717 1.3641486997180432 #
point $-1 -36.628172969584263 -11.628732312569372 1.3641486997180432 #
straight-curve $-1 41.514202955061357 11.284999834457334 8.5483479378135812 0 -1 0 I I #
straight-curve $-1 0 28.942613260969566 8.548347937813574 -1 0 0 I I #
straight-curve $-1 43.812372203741567 28.942613260969566 0 0 0 -1 I I #
point $-1 41.514202955061357 28.942613260969566 8.548347937813574 #
point $-1 43.812372203741567 28.942613260969566 8.548347937813574 #
point $-1 40.724574348631855 19.838879558033994 5.4006980716379722 #
point $-1 40.724574348631855 25.301119779795336 5.4006980716379722 #
straight-curve $-1 -43.812372203741567 -35.692001851242523 -7.048347937813574 0 0 -1 I I #
straight-curve $-1 43.812372203741567 -35.692001851242523 -7.048347937813574 0 0 -1 I I #
End-of-ACIS-data 