500 0 13 0           
7 Unknown 11 ACIS 5.0 NT 24 Fri Mar 26 14:53:51 1999 
-1 9.9999999999999995e-007 1e-010 
body $-1 $13 $-1 $14 #
body $-1 $15 $-1 $16 #
body $-1 $17 $-1 $18 #
body $-1 $19 $-1 $20 #
body $-1 $21 $-1 $22 #
body $-1 $23 $-1 $24 #
body $-1 $25 $-1 $26 #
body $-1 $27 $-1 $28 #
body $-1 $29 $-1 $30 #
body $-1 $31 $-1 $32 #
body $-1 $33 $-1 $34 #
body $-1 $35 $-1 $36 #
body $-1 $37 $-1 $38 #
lump $-1 $-1 $39 $0 #
transform $-1 1 0 0 0 1 0 0 0 1 60.936918240913116 32.752361500645932 15.444797027482856 1 rotate no_reflect no_shear #
lump $-1 $-1 $40 $1 #
transform $-1 1 0 0 0 1 0 0 0 1 60.936918240913116 32.752361500645932 15.444797027482856 1 rotate no_reflect no_shear #
lump $-1 $-1 $41 $2 #
transform $-1 1 0 0 0 1 0 0 0 1 60.936918240913116 32.752361500645932 15.444797027482856 1 rotate no_reflect no_shear #
lump $-1 $-1 $42 $3 #
transform $-1 1 0 0 0 1 0 0 0 1 60.936918240913116 32.752361500645932 15.444797027482856 1 rotate no_reflect no_shear #
lump $-1 $-1 $43 $4 #
transform $-1 1 0 0 0 1 0 0 0 1 60.936918240913116 32.752361500645932 15.444797027482856 1 rotate no_reflect no_shear #
lump $-1 $-1 $44 $5 #
transform $-1 1 0 0 0 1 0 0 0 1 60.936918240913116 32.752361500645932 15.444797027482856 1 rotate no_reflect no_shear #
lump $-1 $-1 $45 $6 #
transform $-1 1 0 0 0 1 0 0 0 1 60.936918240913116 32.752361500645932 15.444797027482856 1 rotate no_reflect no_shear #
lump $-1 $-1 $46 $7 #
transform $-1 1 0 0 0 1 0 0 0 1 60.936918240913116 32.752361500645932 15.444797027482856 1 rotate no_reflect no_shear #
lump $-1 $-1 $47 $8 #
transform $-1 1 0 0 0 1 0 0 0 1 60.936918240913116 32.752361500645932 15.444797027482856 1 rotate no_reflect no_shear #
lump $-1 $-1 $48 $9 #
transform $-1 1 0 0 0 1 0 0 0 1 60.936918240913116 32.752361500645932 15.444797027482856 1 rotate no_reflect no_shear #
lump $-1 $-1 $49 $10 #
transform $-1 1 0 0 0 1 0 0 0 1 60.936918240913116 32.752361500645932 15.444797027482856 1 rotate no_reflect no_shear #
lump $-1 $-1 $50 $11 #
transform $-1 1 0 0 0 1 0 0 0 1 60.936918240913116 32.752361500645932 15.444797027482856 1 rotate no_reflect no_shear #
lump $-1 $-1 $51 $12 #
transform $-1 1 0 0 0 1 0 0 0 1 60.936918240913116 32.752361500645932 15.444797027482856 1 rotate no_reflect no_shear #
shell $-1 $-1 $-1 $52 $-1 $13 #
shell $-1 $-1 $-1 $53 $-1 $15 #
shell $-1 $-1 $-1 $54 $-1 $17 #
shell $-1 $-1 $-1 $55 $-1 $19 #
shell $-1 $-1 $-1 $56 $-1 $21 #
shell $-1 $-1 $-1 $57 $-1 $23 #
shell $-1 $-1 $-1 $58 $-1 $25 #
shell $-1 $-1 $-1 $59 $-1 $27 #
shell $-1 $-1 $-1 $60 $-1 $29 #
shell $-1 $-1 $-1 $61 $-1 $31 #
shell $-1 $-1 $-1 $62 $-1 $33 #
shell $-1 $-1 $-1 $63 $-1 $35 #
shell $-1 $-1 $-1 $64 $-1 $37 #
face $-1 $65 $66 $39 $-1 $67 forward single #
face $-1 $68 $69 $40 $-1 $70 reversed single #
face $-1 $71 $72 $41 $-1 $73 reversed single #
face $-1 $74 $75 $42 $-1 $76 forward single #
face $-1 $77 $78 $43 $-1 $79 forward single #
face $-1 $80 $81 $44 $-1 $82 forward single #
face $-1 $83 $84 $45 $-1 $85 reversed single #
face $-1 $86 $87 $46 $-1 $88 forward single #
face $-1 $89 $90 $47 $-1 $91 forward single #
face $-1 $92 $93 $48 $-1 $94 forward single #
face $-1 $95 $96 $49 $-1 $97 reversed single #
face $-1 $98 $99 $50 $-1 $100 forward single #
face $-1 $101 $102 $51 $-1 $103 forward single #
face $-1 $104 $105 $39 $-1 $106 reversed single #
loop $-1 $-1 $107 $52 #
plane-surface $-1 0 0 15.444797027482856 0 0 1 1 0 0 forward_v I I I I #
face $-1 $108 $109 $40 $-1 $110 reversed single #
loop $-1 $-1 $111 $53 #
plane-surface $-1 0 -26.122359382514531 6.8351722969736155 0 0 1 1 0 0 forward_v I I I I #
face $-1 $112 $113 $41 $-1 $114 reversed single #
loop $-1 $-1 $115 $54 #
plane-surface $-1 -151.50683019272162 -1.9469071731694321 86.843498571591226 0 1 0 -0.74314483375859142 0 0.66913059716165679 forward_v I I I I #
face $-1 $116 $117 $42 $-1 $118 forward single #
loop $-1 $119 $120 $55 #
cone-surface $-1 -55.814451983482925 -0.23152531490926265 9.8718725840482318 0.74314483375859142 0 -0.66913059716165679 0.3345652985808284 0 0.37157241687929571 1 I I 0 1 0.5 forward I I I I #
face $-1 $121 $122 $43 $-1 $123 forward single #
loop $-1 $124 $125 $56 #
cone-surface $-1 -55.814451983482925 2.3415474724809897 9.8718725840482318 0.74314483375859142 0 -0.66913059716165679 0.3345652985808284 0 0.37157241687929571 1 I I 0 1 0.5 forward I I I I #
face $-1 $126 $127 $44 $-1 $128 forward single #
loop $-1 $129 $130 $57 #
cone-surface $-1 -55.814451983482925 4.9146202598712421 9.8718725840482318 0.74314483375859142 0 -0.66913059716165679 0.3345652985808284 0 0.37157241687929571 1 I I 0 1 0.5 forward I I I I #
face $-1 $131 $132 $45 $-1 $133 reversed single #
loop $-1 $-1 $134 $58 #
plane-surface $-1 -151.50683019272162 24.175452209345099 86.843498571591226 0 1 0 -0.74314483375859142 0 0.66913059716165679 forward_v I I I I #
face $-1 $135 $136 $46 $-1 $137 forward single #
loop $-1 $138 $139 $59 #
cone-surface $-1 -55.814451983482925 25.890834067605269 9.8718725840482318 0.74314483375859142 0 -0.66913059716165679 0.3345652985808284 0 0.37157241687929571 1 I I 0 1 0.5 forward I I I I #
face $-1 $140 $141 $47 $-1 $142 forward single #
loop $-1 $143 $144 $60 #
cone-surface $-1 -55.814451983482925 28.463906854995528 9.8718725840482318 0.74314483375859142 0 -0.66913059716165679 0.3345652985808284 0 0.37157241687929571 1 I I 0 1 0.5 forward I I I I #
face $-1 $145 $146 $48 $-1 $147 forward single #
loop $-1 $148 $149 $61 #
cone-surface $-1 -55.814451983482925 31.036979642385774 9.8718725840482318 0.74314483375859142 0 -0.66913059716165679 0.3345652985808284 0 0.37157241687929571 1 I I 0 1 0.5 forward I I I I #
face $-1 $150 $151 $49 $-1 $152 reversed single #
loop $-1 $-1 $153 $62 #
plane-surface $-1 -28.195962279083176 -11.779936323008179 91.961702535187513 0.68199836817093118 0 0.7313536940579346 0.7313536940579346 0 -0.68199836817093118 forward_v I I I I #
face $-1 $154 $155 $50 $-1 $156 forward single #
loop $-1 $157 $158 $63 #
cone-surface $-1 56.262514015797123 -15.085259583597441 10.927092383319081 -0.68199836817093118 0 -0.7313536940579346 1.4627073881158692 0 -1.3639967363418624 1 I I 0 1 2 forward I I I I #
face $-1 $159 $160 $51 $-1 $161 forward single #
loop $-1 $162 $163 $64 #
cone-surface $-1 56.262514015797123 -8.4746130624189142 10.927092383319081 -0.68199836817093118 0 -0.7313536940579346 1.4627073881158692 0 -1.3639967363418624 1 I I 0 1 2 forward I I I I #
face $-1 $164 $165 $39 $-1 $166 reversed single #
loop $-1 $-1 $167 $65 #
plane-surface $-1 0 0 -15.444797027482856 0 0 1 1 0 0 forward_v I I I I #
coedge $-1 $168 $169 $170 $171 forward $66 $-1 #
face $-1 $172 $173 $40 $-1 $174 reversed single #
loop $-1 $-1 $175 $68 #
plane-surface $-1 0 -19.492357264383131 11.139984662228237 0 -1 0 0 0 -1 forward_v I I I I #
coedge $-1 $176 $177 $178 $179 reversed $69 $-1 #
face $-1 $180 $181 $41 $-1 $182 reversed single #
loop $-1 $-1 $183 $71 #
plane-surface $-1 -60.936918240913116 2.3415474724809826 5.2939855881247269 -0.74314483375859142 0 0.66913059716165679 0.66913059716165679 0 0.74314483375859142 forward_v I I I I #
coedge $-1 $184 $185 $186 $187 reversed $72 $-1 #
face $-1 $-1 $188 $42 $-1 $189 forward single #
loop $-1 $190 $191 $74 #
cone-surface $-1 -55.076115240326367 -0.23152531490926265 9.2070712110022477 0.74314483375859142 0 -0.66913059716165679 0.1672826492904142 0 0.18578620843964785 1 I I -0.70710678118654746 0.70710678118654746 0.25 forward I I I I #
loop $-1 $-1 $192 $55 #
coedge $-1 $120 $120 $193 $194 reversed $75 $-1 #
face $-1 $-1 $195 $43 $-1 $196 forward single #
loop $-1 $197 $198 $77 #
cone-surface $-1 -55.076115240326367 2.3415474724809897 9.2070712110022477 0.74314483375859142 0 -0.66913059716165679 0.1672826492904142 0 0.18578620843964785 1 I I -0.70710678118654746 0.70710678118654746 0.25 forward I I I I #
loop $-1 $-1 $199 $56 #
coedge $-1 $125 $125 $200 $201 reversed $78 $-1 #
face $-1 $-1 $202 $44 $-1 $203 forward single #
loop $-1 $204 $205 $80 #
cone-surface $-1 -55.076115240326367 4.9146202598712421 9.2070712110022477 0.74314483375859142 0 -0.66913059716165679 0.1672826492904142 0 0.18578620843964785 1 I I -0.70710678118654746 0.70710678118654746 0.25 forward I I I I #
loop $-1 $-1 $206 $57 #
coedge $-1 $130 $130 $207 $208 reversed $81 $-1 #
face $-1 $209 $210 $45 $-1 $211 forward single #
loop $-1 $-1 $212 $83 #
plane-surface $-1 -60.936918240913116 28.463906854995514 5.2939855881247269 -0.74314483375859142 0 0.66913059716165679 0.66913059716165679 0 0.74314483375859142 forward_v I I I I #
coedge $-1 $213 $214 $215 $216 reversed $84 $-1 #
face $-1 $-1 $217 $46 $-1 $218 forward single #
loop $-1 $219 $220 $86 #
cone-surface $-1 -55.076115240326367 25.890834067605269 9.2070712110022477 0.74314483375859142 0 -0.66913059716165679 0.1672826492904142 0 0.18578620843964785 1 I I -0.70710678118654746 0.70710678118654746 0.25 forward I I I I #
loop $-1 $-1 $221 $59 #
coedge $-1 $139 $139 $222 $223 reversed $87 $-1 #
face $-1 $-1 $224 $47 $-1 $225 forward single #
loop $-1 $226 $227 $89 #
cone-surface $-1 -55.076115240326367 28.463906854995528 9.2070712110022477 0.74314483375859142 0 -0.66913059716165679 0.1672826492904142 0 0.18578620843964785 1 I I -0.70710678118654746 0.70710678118654746 0.25 forward I I I I #
loop $-1 $-1 $228 $60 #
coedge $-1 $144 $144 $229 $230 reversed $90 $-1 #
face $-1 $-1 $231 $48 $-1 $232 forward single #
loop $-1 $233 $234 $92 #
cone-surface $-1 -55.076115240326367 31.036979642385774 9.2070712110022477 0.74314483375859142 0 -0.66913059716165679 0.1672826492904142 0 0.18578620843964785 1 I I -0.70710678118654746 0.70710678118654746 0.25 forward I I I I #
loop $-1 $-1 $235 $61 #
coedge $-1 $149 $149 $236 $237 reversed $93 $-1 #
face $-1 $238 $239 $49 $-1 $240 forward single #
loop $-1 $-1 $241 $95 #
plane-surface $-1 54.921795324253225 -4.0675153816332301 181.09458305518382 0 -1 0 -0.68199836817093118 0 -0.7313536940579346 forward_v I I I I #
coedge $-1 $242 $243 $244 $245 reversed $96 $-1 #
face $-1 $-1 $246 $50 $-1 $247 forward single #
loop $-1 $248 $249 $98 #
cone-surface $-1 54.445384967267714 -15.085259583597441 8.9784600929132452 -0.68199836817093118 0 -0.7313536940579346 0.7313536940579346 0 -0.68199836817093118 1 I I -0.70710678118654746 0.70710678118654746 1 forward I I I I #
loop $-1 $-1 $250 $63 #
coedge $-1 $158 $158 $251 $252 reversed $99 $-1 #
face $-1 $-1 $253 $51 $-1 $254 forward single #
loop $-1 $255 $256 $101 #
cone-surface $-1 54.445384967267714 -8.4746130624189142 8.9784600929132452 -0.68199836817093118 0 -0.7313536940579346 0.7313536940579346 0 -0.68199836817093118 1 I I -0.70710678118654746 0.70710678118654746 1 forward I I I I #
loop $-1 $-1 $257 $64 #
coedge $-1 $163 $163 $258 $259 reversed $102 $-1 #
face $-1 $260 $261 $39 $-1 $262 reversed single #
loop $-1 $-1 $263 $104 #
plane-surface $-1 0 -32.752361500645932 0 0 1 0 0 0 1 forward_v I I I I #
coedge $-1 $264 $265 $266 $267 forward $105 $-1 #
coedge $-1 $268 $107 $269 $270 forward $66 $-1 #
coedge $-1 $107 $268 $271 $272 forward $66 $-1 #
coedge $-1 $273 $274 $107 $171 reversed $275 $-1 #
edge $-1 $276 -32.752361500645932 $277 32.752361500645932 $170 $278 forward 7 unknown #
face $-1 $279 $280 $40 $-1 $281 reversed single #
loop $-1 $-1 $282 $108 #
plane-surface $-1 -60.936918240913116 0 0 1 0 0 0 0 -1 forward_v I I I I #
coedge $-1 $283 $284 $285 $286 reversed $109 $-1 #
coedge $-1 $287 $111 $288 $289 reversed $69 $-1 #
coedge $-1 $111 $287 $283 $290 forward $69 $-1 #
coedge $-1 $285 $291 $111 $179 forward $292 $-1 #
edge $-1 $293 -19.691181809388667 $294 -6.4311775731258649 $178 $295 forward 7 unknown #
face $-1 $296 $297 $41 $-1 $298 forward single #
loop $-1 $-1 $299 $112 #
plane-surface $-1 -151.50683019272162 6.6300021181313973 86.843498571591226 0 -1 0 0.74314483375859142 0 -0.66913059716165679 forward_v I I I I #
coedge $-1 $300 $301 $302 $303 reversed $113 $-1 #
coedge $-1 $185 $115 $304 $305 reversed $72 $-1 #
coedge $-1 $115 $184 $300 $306 reversed $72 $-1 #
coedge $-1 $302 $307 $115 $187 forward $297 $-1 #
edge $-1 $308 14.816496855447696 $309 23.956328300874276 $186 $310 forward 7 unknown #
loop $-1 $-1 $193 $116 #
plane-surface $-1 -60.936918240913116 2.3415474724809826 5.2939855881247269 -0.74314483375859142 0 0.66913059716165679 0.66913059716165679 0 0.74314483375859142 forward_v I I I I #
loop $-1 $-1 $311 $74 #
coedge $-1 $191 $191 $192 $312 reversed $117 $-1 #
coedge $-1 $192 $192 $191 $312 forward $119 $-1 #
coedge $-1 $193 $193 $120 $194 forward $188 $-1 #
edge $-1 $313 0 $313 6.2831853071796004 $193 $314 forward 7 unknown #
loop $-1 $-1 $200 $121 #
plane-surface $-1 -60.936918240913116 2.3415474724809826 5.2939855881247269 -0.74314483375859142 0 0.66913059716165679 0.66913059716165679 0 0.74314483375859142 forward_v I I I I #
loop $-1 $-1 $315 $77 #
coedge $-1 $198 $198 $199 $316 reversed $122 $-1 #
coedge $-1 $199 $199 $198 $316 forward $124 $-1 #
coedge $-1 $200 $200 $125 $201 forward $195 $-1 #
edge $-1 $317 0 $317 6.2831853071796004 $200 $318 forward 7 unknown #
loop $-1 $-1 $207 $126 #
plane-surface $-1 -60.936918240913116 2.3415474724809826 5.2939855881247269 -0.74314483375859142 0 0.66913059716165679 0.66913059716165679 0 0.74314483375859142 forward_v I I I I #
loop $-1 $-1 $319 $80 #
coedge $-1 $205 $205 $206 $320 reversed $127 $-1 #
coedge $-1 $206 $206 $205 $320 forward $129 $-1 #
coedge $-1 $207 $207 $130 $208 forward $202 $-1 #
edge $-1 $321 0 $321 6.2831853071796004 $207 $322 forward 7 unknown #
face $-1 $323 $324 $45 $-1 $325 reversed single #
loop $-1 $-1 $215 $131 #
plane-surface $-1 0 0 15.444797027482856 0 0 1 1 0 0 forward_v I I I I #
coedge $-1 $326 $327 $328 $329 reversed $132 $-1 #
coedge $-1 $214 $134 $330 $331 reversed $84 $-1 #
coedge $-1 $134 $213 $326 $332 reversed $84 $-1 #
coedge $-1 $328 $333 $134 $216 forward $210 $-1 #
edge $-1 $334 14.816496855447696 $335 23.956328300874276 $215 $336 forward 7 unknown #
loop $-1 $-1 $222 $135 #
plane-surface $-1 -60.936918240913116 28.463906854995514 5.2939855881247269 -0.74314483375859142 0 0.66913059716165679 0.66913059716165679 0 0.74314483375859142 forward_v I I I I #
loop $-1 $-1 $337 $86 #
coedge $-1 $220 $220 $221 $338 reversed $136 $-1 #
coedge $-1 $221 $221 $220 $338 forward $138 $-1 #
coedge $-1 $222 $222 $139 $223 forward $217 $-1 #
edge $-1 $339 0 $339 6.2831853071796004 $222 $340 forward 7 unknown #
loop $-1 $-1 $229 $140 #
plane-surface $-1 -60.936918240913116 28.463906854995514 5.2939855881247269 -0.74314483375859142 0 0.66913059716165679 0.66913059716165679 0 0.74314483375859142 forward_v I I I I #
loop $-1 $-1 $341 $89 #
coedge $-1 $227 $227 $228 $342 reversed $141 $-1 #
coedge $-1 $228 $228 $227 $342 forward $143 $-1 #
coedge $-1 $229 $229 $144 $230 forward $224 $-1 #
edge $-1 $343 0 $343 6.2831853071796004 $229 $344 forward 7 unknown #
loop $-1 $-1 $236 $145 #
plane-surface $-1 -60.936918240913116 28.463906854995514 5.2939855881247269 -0.74314483375859142 0 0.66913059716165679 0.66913059716165679 0 0.74314483375859142 forward_v I I I I #
loop $-1 $-1 $345 $92 #
coedge $-1 $234 $234 $235 $346 reversed $146 $-1 #
coedge $-1 $235 $235 $234 $346 forward $148 $-1 #
coedge $-1 $236 $236 $149 $237 forward $231 $-1 #
edge $-1 $347 0 $347 6.2831853071796004 $236 $348 forward 7 unknown #
face $-1 $349 $350 $49 $-1 $351 reversed single #
loop $-1 $-1 $352 $150 #
plane-surface $-1 0 -19.492357264383131 11.139984662228237 0 -1 0 0 0 -1 forward_v I I I I #
coedge $-1 $353 $354 $355 $356 reversed $151 $-1 #
coedge $-1 $357 $153 $352 $358 reversed $96 $-1 #
coedge $-1 $153 $357 $353 $359 forward $96 $-1 #
coedge $-1 $355 $360 $153 $245 forward $350 $-1 #
edge $-1 $361 -13.602389102879041 $362 1.8224527798708596 $244 $363 forward 7 unknown #
loop $-1 $-1 $251 $154 #
plane-surface $-1 -28.195962279083176 -11.779936323008179 91.961702535187513 0.68199836817093118 0 0.7313536940579346 0.7313536940579346 0 -0.68199836817093118 forward_v I I I I #
loop $-1 $-1 $364 $98 #
coedge $-1 $249 $249 $250 $365 reversed $155 $-1 #
coedge $-1 $250 $250 $249 $365 forward $157 $-1 #
coedge $-1 $251 $251 $158 $252 forward $246 $-1 #
edge $-1 $366 0 $366 6.2831853071796004 $251 $367 forward 7 unknown #
loop $-1 $-1 $258 $159 #
plane-surface $-1 -28.195962279083176 -11.779936323008179 91.961702535187513 0.68199836817093118 0 0.7313536940579346 0.7313536940579346 0 -0.68199836817093118 forward_v I I I I #
loop $-1 $-1 $368 $101 #
coedge $-1 $256 $256 $257 $369 reversed $160 $-1 #
coedge $-1 $257 $257 $256 $369 forward $162 $-1 #
coedge $-1 $258 $258 $163 $259 forward $253 $-1 #
edge $-1 $370 0 $370 6.2831853071796004 $258 $371 forward 7 unknown #
face $-1 $372 $373 $39 $-1 $374 reversed single #
loop $-1 $-1 $375 $164 #
plane-surface $-1 -60.936918240913116 0 0 1 0 0 0 0 -1 forward_v I I I I #
coedge $-1 $376 $271 $377 $378 forward $165 $-1 #
coedge $-1 $379 $167 $376 $380 forward $105 $-1 #
coedge $-1 $167 $379 $381 $382 forward $105 $-1 #
coedge $-1 $274 $273 $167 $267 reversed $275 $-1 #
edge $-1 $383 -32.752361500645932 $384 32.752361500645932 $266 $385 forward 7 unknown #
coedge $-1 $169 $168 $386 $387 forward $66 $-1 #
coedge $-1 $388 $389 $168 $270 reversed $373 $-1 #
edge $-1 $277 -60.936918240913116 $390 60.936918240913116 $269 $391 forward 7 unknown #
coedge $-1 $263 $392 $169 $272 reversed $165 $-1 #
edge $-1 $393 -60.936918240913116 $276 60.936918240913116 $271 $394 forward 7 unknown #
coedge $-1 $266 $170 $392 $395 forward $275 $-1 #
coedge $-1 $170 $266 $388 $396 reversed $275 $-1 #
loop $-1 $-1 $273 $372 #
vertex $-1 $171 $397 #
vertex $-1 $171 $398 #
straight-curve $-1 60.936918240913116 0 15.444797027482856 0 1 0 I I #
face $-1 $399 $400 $40 $-1 $401 forward single #
loop $-1 $-1 $288 $172 #
plane-surface $-1 0 -32.752361500645932 0 0 1 0 0 0 1 forward_v I I I I #
coedge $-1 $402 $403 $404 $405 forward $173 $-1 #
coedge $-1 $404 $175 $177 $290 reversed $109 $-1 #
coedge $-1 $175 $404 $406 $407 reversed $109 $-1 #
coedge $-1 $408 $178 $175 $286 forward $292 $-1 #
edge $-1 $294 1.2651799658594971 $409 9.8748046963687397 $285 $410 forward 7 unknown #
coedge $-1 $177 $176 $402 $411 reversed $69 $-1 #
coedge $-1 $412 $413 $176 $289 forward $280 $-1 #
edge $-1 $414 -60.936918240913116 $293 60.936918240913116 $288 $415 forward 7 unknown #
edge $-1 $416 -60.936918240913116 $294 60.936918240913116 $283 $417 forward 7 unknown #
coedge $-1 $178 $408 $412 $418 forward $292 $-1 #
loop $-1 $-1 $285 $399 #
vertex $-1 $289 $419 #
vertex $-1 $179 $420 #
straight-curve $-1 60.936918240913116 -13.061179691257266 6.8351722969736155 0 1 0 I I #
face $-1 $-1 $421 $41 $-1 $422 reversed single #
loop $-1 $-1 $186 $180 #
plane-surface $-1 0 0 15.444797027482856 0 0 1 1 0 0 forward_v I I I I #
coedge $-1 $423 $424 $425 $426 reversed $181 $-1 #
coedge $-1 $427 $183 $185 $306 forward $113 $-1 #
coedge $-1 $183 $427 $423 $428 forward $113 $-1 #
coedge $-1 $425 $186 $183 $303 forward $297 $-1 #
edge $-1 $309 -3.1176809094099234 $429 5.459228381890906 $302 $430 forward 7 unknown #
coedge $-1 $431 $432 $184 $305 forward $421 $-1 #
edge $-1 $433 -38.127763697670886 $308 -27.976952258312757 $304 $434 forward 7 unknown #
edge $-1 $309 -13.659263952651781 $433 0 $185 $435 forward 7 unknown #
coedge $-1 $186 $425 $431 $436 forward $297 $-1 #
vertex $-1 $305 $437 #
vertex $-1 $187 $438 #
straight-curve $-1 -75.753415096360811 -1.9469071731694321 15.444797027482856 1 0 0 I I #
coedge $-1 $311 $311 $-1 $439 reversed $190 $-1 #
edge $-1 $440 0 $440 6.2831853071796004 $191 $441 forward 7 unknown #
vertex $-1 $194 $442 #
ellipse-curve $-1 -56.367002518199826 -0.23152531490926265 10.369391307803792 -0.74314483375859142 0 0.66913059716165679 0.3345652985808284 0 0.37157241687929571 1 I I #
coedge $-1 $315 $315 $-1 $443 reversed $197 $-1 #
edge $-1 $444 0 $444 6.2831853071796004 $198 $445 forward 7 unknown #
vertex $-1 $201 $446 #
ellipse-curve $-1 -56.367002518199826 2.3415474724809897 10.369391307803792 -0.74314483375859142 0 0.66913059716165679 0.3345652985808284 0 0.37157241687929571 1 I I #
coedge $-1 $319 $319 $-1 $447 reversed $204 $-1 #
edge $-1 $448 0 $448 6.2831853071796004 $205 $449 forward 7 unknown #
vertex $-1 $208 $450 #
ellipse-curve $-1 -56.367002518199826 4.9146202598712421 10.369391307803792 -0.74314483375859142 0 0.66913059716165679 0.3345652985808284 0 0.37157241687929571 1 I I #
face $-1 $-1 $451 $45 $-1 $452 reversed single #
loop $-1 $-1 $453 $209 #
plane-surface $-1 0 32.752361500645932 0 0 -1 0 0 0 -1 forward_v I I I I #
coedge $-1 $454 $212 $214 $332 forward $132 $-1 #
coedge $-1 $212 $454 $453 $455 reversed $132 $-1 #
coedge $-1 $456 $215 $212 $329 forward $210 $-1 #
edge $-1 $335 9.9434987818473424 $457 18.520408073148175 $328 $458 forward 7 unknown #
coedge $-1 $459 $460 $213 $331 forward $451 $-1 #
edge $-1 $461 -38.127763697670886 $334 -27.976952258312757 $330 $462 forward 7 unknown #
edge $-1 $335 -13.659263952651781 $461 0 $214 $463 forward 7 unknown #
coedge $-1 $215 $456 $459 $464 forward $210 $-1 #
vertex $-1 $331 $465 #
vertex $-1 $216 $466 #
straight-curve $-1 -75.753415096360811 24.175452209345099 15.444797027482856 1 0 0 I I #
coedge $-1 $337 $337 $-1 $467 reversed $219 $-1 #
edge $-1 $468 0 $468 6.2831853071796004 $220 $469 forward 7 unknown #
vertex $-1 $223 $470 #
ellipse-curve $-1 -56.367002518199826 25.890834067605269 10.369391307803792 -0.74314483375859142 0 0.66913059716165679 0.3345652985808284 0 0.37157241687929571 1 I I #
coedge $-1 $341 $341 $-1 $471 reversed $226 $-1 #
edge $-1 $472 0 $472 6.2831853071796004 $227 $473 forward 7 unknown #
vertex $-1 $230 $474 #
ellipse-curve $-1 -56.367002518199826 28.463906854995528 10.369391307803792 -0.74314483375859142 0 0.66913059716165679 0.3345652985808284 0 0.37157241687929571 1 I I #
coedge $-1 $345 $345 $-1 $475 reversed $233 $-1 #
edge $-1 $476 0 $476 6.2831853071796004 $234 $477 forward 7 unknown #
vertex $-1 $237 $478 #
ellipse-curve $-1 -56.367002518199826 31.036979642385774 10.369391307803792 -0.74314483375859142 0 0.66913059716165679 0.3345652985808284 0 0.37157241687929571 1 I I #
face $-1 $-1 $479 $49 $-1 $480 forward single #
loop $-1 $-1 $244 $238 #
plane-surface $-1 60.936918240913116 0 0 -1 0 0 0 0 1 forward_v I I I I #
coedge $-1 $481 $482 $242 $358 forward $239 $-1 #
coedge $-1 $354 $241 $243 $359 reversed $151 $-1 #
coedge $-1 $241 $353 $483 $484 reversed $151 $-1 #
coedge $-1 $485 $244 $241 $356 forward $350 $-1 #
edge $-1 $362 -81.703346595740783 $486 -75.10249450010906 $355 $487 forward 7 unknown #
coedge $-1 $243 $242 $488 $489 reversed $96 $-1 #
edge $-1 $490 74.324394125360229 $361 84.003086045598593 $352 $491 forward 7 unknown #
edge $-1 $492 112.19514456158787 $362 121.87383648182623 $353 $493 forward 7 unknown #
coedge $-1 $244 $485 $481 $494 forward $350 $-1 #
vertex $-1 $358 $495 #
vertex $-1 $245 $496 #
straight-curve $-1 60.936918240913116 -5.8899681615040897 8.8439449318511265 0 1 0 I I #
coedge $-1 $364 $364 $-1 $497 reversed $248 $-1 #
edge $-1 $498 0 $498 6.2831853071796004 $249 $499 forward 7 unknown #
vertex $-1 $252 $500 #
ellipse-curve $-1 57.397644696155609 -15.085259583597441 12.144370979666993 0.68199836817093118 0 0.7313536940579346 1.4627073881158692 0 -1.3639967363418624 1 I I #
coedge $-1 $368 $368 $-1 $501 reversed $255 $-1 #
edge $-1 $502 0 $502 6.2831853071796004 $256 $503 forward 7 unknown #
vertex $-1 $259 $504 #
ellipse-curve $-1 57.397644696155609 -8.4746130624189142 12.144370979666993 0.68199836817093118 0 0.7313536940579346 1.4627073881158692 0 -1.3639967363418624 1 I I #
face $-1 $-1 $275 $39 $-1 $505 reversed single #
loop $-1 $-1 $388 $260 #
plane-surface $-1 0 32.752361500645932 0 0 -1 0 0 0 -1 forward_v I I I I #
coedge $-1 $506 $386 $389 $507 forward $261 $-1 #
coedge $-1 $392 $263 $264 $380 reversed $165 $-1 #
coedge $-1 $386 $506 $263 $378 reversed $261 $-1 #
edge $-1 $393 -15.444797027482856 $508 15.444797027482856 $377 $509 forward 7 unknown #
coedge $-1 $265 $264 $506 $510 forward $105 $-1 #
edge $-1 $384 -60.936918240913116 $508 60.936918240913116 $376 $511 forward 7 unknown #
coedge $-1 $389 $388 $265 $382 reversed $373 $-1 #
edge $-1 $512 -60.936918240913116 $383 60.936918240913116 $381 $513 forward 7 unknown #
vertex $-1 $267 $514 #
vertex $-1 $395 $515 #
straight-curve $-1 60.936918240913116 0 -15.444797027482856 0 -1 0 I I #
coedge $-1 $375 $377 $268 $387 reversed $261 $-1 #
edge $-1 $390 -32.752361500645932 $393 32.752361500645932 $386 $516 forward 7 unknown #
coedge $-1 $381 $269 $274 $396 forward $373 $-1 #
coedge $-1 $269 $381 $375 $507 reversed $373 $-1 #
vertex $-1 $270 $517 #
straight-curve $-1 0 32.752361500645932 15.444797027482856 -1 0 0 I I #
coedge $-1 $271 $376 $273 $395 reversed $165 $-1 #
vertex $-1 $387 $518 #
straight-curve $-1 0 -32.752361500645932 15.444797027482856 1 0 0 I I #
edge $-1 $276 -15.444797027482856 $384 15.444797027482856 $273 $519 forward 7 unknown #
edge $-1 $277 -15.444797027482856 $383 15.444797027482856 $274 $520 forward 7 unknown #
point $-1 60.936918240913116 -32.752361500645932 15.444797027482856 #
point $-1 60.936918240913116 32.752361500645932 15.444797027482856 #
face $-1 $-1 $292 $40 $-1 $521 reversed single #
loop $-1 $-1 $406 $279 #
plane-surface $-1 0 0 15.444797027482856 0 0 1 1 0 0 forward_v I I I I #
coedge $-1 $522 $282 $287 $411 forward $173 $-1 #
coedge $-1 $282 $522 $523 $524 reversed $173 $-1 #
coedge $-1 $284 $283 $282 $405 reversed $109 $-1 #
edge $-1 $525 -9.8748046963687397 $416 -1.2651799658594971 $282 $526 forward 7 unknown #
coedge $-1 $523 $527 $284 $407 forward $400 $-1 #
edge $-1 $409 -60.936918240913116 $525 60.936918240913116 $406 $528 forward 7 unknown #
coedge $-1 $291 $285 $527 $529 reversed $292 $-1 #
vertex $-1 $286 $530 #
straight-curve $-1 60.936918240913116 -19.492357264383131 5.5699923311141184 0 0 1 I I #
edge $-1 $416 6.4311775731258649 $414 19.691181809388667 $402 $531 forward 7 unknown #
coedge $-1 $532 $288 $291 $418 reversed $280 $-1 #
coedge $-1 $288 $532 $522 $533 forward $280 $-1 #
vertex $-1 $289 $534 #
straight-curve $-1 0 -32.752361500645932 6.8351722969736155 1 0 0 I I #
vertex $-1 $411 $535 #
straight-curve $-1 0 -19.492357264383131 6.8351722969736155 1 0 0 I I #
edge $-1 $536 -15.444797027482856 $293 -6.8351722969736155 $291 $537 forward 7 unknown #
point $-1 60.936918240913116 -32.752361500645932 6.8351722969736155 #
point $-1 60.936918240913116 -19.492357264383131 6.8351722969736155 #
loop $-1 $-1 $304 $296 #
plane-surface $-1 -60.936918240913116 0 0 1 0 0 0 0 -1 forward_v I I I I #
coedge $-1 $424 $299 $301 $428 reversed $181 $-1 #
coedge $-1 $299 $423 $538 $539 reversed $181 $-1 #
coedge $-1 $307 $302 $299 $426 forward $297 $-1 #
edge $-1 $429 -23.956328300874276 $540 -14.816496855447696 $425 $541 forward 7 unknown #
coedge $-1 $301 $300 $432 $542 reversed $113 $-1 #
edge $-1 $543 0 $429 13.659263952651781 $423 $544 forward 7 unknown #
vertex $-1 $303 $545 #
straight-curve $-1 -51.797086795486535 1.1707737362404913 15.444797027482856 0 1 0 I I #
coedge $-1 $538 $304 $307 $436 reversed $421 $-1 #
coedge $-1 $304 $538 $427 $542 forward $421 $-1 #
vertex $-1 $305 $546 #
straight-curve $-1 -60.936918240913116 -1.9469071731694321 43.421749285795613 0 0 1 I I #
straight-curve $-1 -60.936918240913116 -1.9469071731694321 5.2939855881247269 -0.66913059716165679 0 -0.74314483375859142 I I #
edge $-1 $540 -6.6300021181313973 $308 1.9469071731694321 $431 $547 forward 7 unknown #
point $-1 -60.936918240913116 -1.9469071731694321 15.444797027482856 #
point $-1 -51.797086795486535 -1.9469071731694321 15.444797027482856 #
edge $-1 $548 1 $548 0 $311 $-1 forward 7 unknown #
vertex $-1 $312 $549 #
ellipse-curve $-1 -55.261901448766011 -0.23152531490926265 9.3743538602926613 -0.74314483375859142 0 0.66913059716165679 0.3345652985808284 0 0.37157241687929571 1 I I #
point $-1 -56.032437219619005 -0.23152531490926265 10.740963724683096 #
edge $-1 $550 1 $550 0 $315 $-1 forward 7 unknown #
vertex $-1 $316 $551 #
ellipse-curve $-1 -55.261901448766011 2.3415474724809897 9.3743538602926613 -0.74314483375859142 0 0.66913059716165679 0.3345652985808284 0 0.37157241687929571 1 I I #
point $-1 -56.032437219619005 2.3415474724809897 10.740963724683096 #
edge $-1 $552 1 $552 0 $319 $-1 forward 7 unknown #
vertex $-1 $320 $553 #
ellipse-curve $-1 -55.261901448766011 4.9146202598712421 9.3743538602926613 -0.74314483375859142 0 0.66913059716165679 0.3345652985808284 0 0.37157241687929571 1 I I #
point $-1 -56.032437219619005 4.9146202598712421 10.740963724683096 #
loop $-1 $-1 $330 $323 #
plane-surface $-1 -60.936918240913116 0 0 1 0 0 0 0 -1 forward_v I I I I #
coedge $-1 $554 $555 $327 $455 forward $324 $-1 #
coedge $-1 $327 $326 $460 $556 reversed $132 $-1 #
edge $-1 $457 4.7610152733111804 $557 18.420279225962965 $453 $558 forward 7 unknown #
coedge $-1 $333 $328 $555 $559 forward $210 $-1 #
vertex $-1 $559 $560 #
straight-curve $-1 -51.797086795486535 14.231953427497757 15.444797027482856 0 1 0 I I #
coedge $-1 $561 $330 $333 $464 reversed $451 $-1 #
coedge $-1 $330 $561 $454 $556 forward $451 $-1 #
vertex $-1 $331 $562 #
straight-curve $-1 -60.936918240913116 24.175452209345099 43.421749285795613 0 0 1 I I #
straight-curve $-1 -60.936918240913116 24.175452209345099 5.2939855881247269 -0.66913059716165679 0 -0.74314483375859142 I I #
edge $-1 $563 -32.752361500645932 $334 -24.175452209345099 $459 $564 forward 7 unknown #
point $-1 -60.936918240913116 24.175452209345099 15.444797027482856 #
point $-1 -51.797086795486535 24.175452209345099 15.444797027482856 #
edge $-1 $565 1 $565 0 $337 $-1 forward 7 unknown #
vertex $-1 $338 $566 #
ellipse-curve $-1 -55.261901448766011 25.890834067605269 9.3743538602926613 -0.74314483375859142 0 0.66913059716165679 0.3345652985808284 0 0.37157241687929571 1 I I #
point $-1 -56.032437219619005 25.890834067605269 10.740963724683096 #
edge $-1 $567 1 $567 0 $341 $-1 forward 7 unknown #
vertex $-1 $342 $568 #
ellipse-curve $-1 -55.261901448766011 28.463906854995528 9.3743538602926613 -0.74314483375859142 0 0.66913059716165679 0.3345652985808284 0 0.37157241687929571 1 I I #
point $-1 -56.032437219619005 28.463906854995528 10.740963724683096 #
edge $-1 $569 1 $569 0 $345 $-1 forward 7 unknown #
vertex $-1 $346 $570 #
ellipse-curve $-1 -55.261901448766011 31.036979642385774 9.3743538602926613 -0.74314483375859142 0 0.66913059716165679 0.3345652985808284 0 0.37157241687929571 1 I I #
point $-1 -56.032437219619005 31.036979642385774 10.740963724683096 #
loop $-1 $-1 $488 $349 #
plane-surface $-1 0 0 15.444797027482856 0 0 1 1 0 0 forward_v I I I I #
coedge $-1 $482 $352 $360 $494 reversed $239 $-1 #
coedge $-1 $352 $481 $571 $572 reversed $239 $-1 #
coedge $-1 $488 $573 $354 $484 forward $479 $-1 #
edge $-1 $486 -33.476020578786503 $492 -26.397473489271491 $483 $574 forward 7 unknown #
coedge $-1 $360 $355 $573 $575 reversed $350 $-1 #
vertex $-1 $356 $576 #
straight-curve $-1 60.936918240913116 -4.0675153816332301 90.547291527591909 0 0 1 I I #
coedge $-1 $571 $483 $357 $489 forward $479 $-1 #
edge $-1 $492 -1.8224527798708596 $490 13.602389102879041 $488 $577 forward 7 unknown #
vertex $-1 $572 $578 #
straight-curve $-1 -0.49904905080195405 -19.492357264383131 66.13391253627168 0.7313536940579346 0 -0.68199836817093118 I I #
vertex $-1 $489 $579 #
straight-curve $-1 -28.195962279083176 -4.0675153816332301 91.961702535187513 0.7313536940579346 0 -0.68199836817093118 I I #
edge $-1 $580 -9.8748046963687397 $361 -3.2739526007370046 $360 $581 forward 7 unknown #
point $-1 60.936918240913116 -19.492357264383131 8.843944931851123 #
point $-1 60.936918240913116 -4.0675153816332301 8.8439449318511265 #
edge $-1 $582 1 $582 0 $364 $-1 forward 7 unknown #
vertex $-1 $365 $583 #
ellipse-curve $-1 55.127383335438644 -15.085259583597441 9.7098137869711802 0.68199836817093118 0 0.7313536940579346 1.4627073881158692 0 -1.3639967363418624 1 I I #
point $-1 58.860352084271469 -15.085259583597441 10.78037424332512 #
edge $-1 $584 1 $584 0 $368 $-1 forward 7 unknown #
vertex $-1 $369 $585 #
ellipse-curve $-1 55.127383335438644 -8.4746130624189142 9.7098137869711802 0.68199836817093118 0 0.7313536940579346 1.4627073881158692 0 -1.3639967363418624 1 I I #
point $-1 58.860352084271469 -8.4746130624189142 10.78037424332512 #
plane-surface $-1 60.936918240913116 0 0 -1 0 0 0 0 1 forward_v I I I I #
coedge $-1 $377 $375 $379 $510 reversed $261 $-1 #
edge $-1 $390 -15.444797027482856 $512 15.444797027482856 $389 $586 forward 7 unknown #
vertex $-1 $510 $587 #
straight-curve $-1 -60.936918240913116 -32.752361500645932 0 0 0 -1 I I #
edge $-1 $508 -32.752361500645932 $512 32.752361500645932 $506 $588 forward 7 unknown #
straight-curve $-1 0 -32.752361500645932 -15.444797027482856 -1 0 0 I I #
vertex $-1 $382 $589 #
straight-curve $-1 0 32.752361500645932 -15.444797027482856 1 0 0 I I #
point $-1 60.936918240913116 32.752361500645932 -15.444797027482856 #
point $-1 60.936918240913116 -32.752361500645932 -15.444797027482856 #
straight-curve $-1 -60.936918240913116 0 15.444797027482856 0 -1 0 I I #
point $-1 -60.936918240913116 32.752361500645932 15.444797027482856 #
point $-1 -60.936918240913116 -32.752361500645932 15.444797027482856 #
straight-curve $-1 60.936918240913116 -32.752361500645932 0 0 0 -1 I I #
straight-curve $-1 60.936918240913116 32.752361500645932 0 0 0 -1 I I #
plane-surface $-1 60.936918240913116 0 0 -1 0 0 0 0 1 forward_v I I I I #
coedge $-1 $403 $402 $413 $533 reversed $173 $-1 #
coedge $-1 $590 $406 $403 $524 forward $400 $-1 #
edge $-1 $525 19.492357264383131 $591 32.752361500645932 $403 $592 forward 7 unknown #
vertex $-1 $524 $593 #
straight-curve $-1 -60.936918240913116 -19.492357264383131 5.5699923311141184 0 0 -1 I I #
coedge $-1 $406 $590 $408 $529 forward $400 $-1 #
straight-curve $-1 0 -19.492357264383131 15.444797027482856 -1 0 0 I I #
edge $-1 $536 -32.752361500645932 $409 -19.492357264383131 $408 $594 forward 7 unknown #
point $-1 60.936918240913116 -19.492357264383131 15.444797027482858 #
straight-curve $-1 -60.936918240913116 -13.061179691257266 6.8351722969736155 0 -1 0 I I #
coedge $-1 $413 $412 $590 $595 reversed $280 $-1 #
edge $-1 $591 -15.444797027482856 $414 -6.8351722969736155 $522 $596 forward 7 unknown #
point $-1 -60.936918240913116 -32.752361500645932 6.8351722969736155 #
point $-1 -60.936918240913116 -19.492357264383131 6.8351722969736155 #
vertex $-1 $529 $597 #
straight-curve $-1 60.936918240913116 -32.752361500645932 0 0 0 -1 I I #
coedge $-1 $432 $431 $424 $539 forward $421 $-1 #
edge $-1 $540 27.976952258312757 $543 38.127763697670886 $538 $598 forward 7 unknown #
vertex $-1 $436 $599 #
straight-curve $-1 -75.753415096360811 6.6300021181313973 15.444797027482856 -1 0 0 I I #
edge $-1 $543 -5.459228381890906 $433 3.1176809094099234 $432 $600 forward 7 unknown #
vertex $-1 $542 $601 #
straight-curve $-1 -60.936918240913116 6.6300021181313973 5.2939855881247269 0.66913059716165679 0 0.74314483375859142 I I #
point $-1 -51.797086795486535 6.6300021181313973 15.444797027482856 #
point $-1 -60.936918240913116 -1.9469071731694321 5.2939855881247269 #
straight-curve $-1 -60.936918240913116 0 15.444797027482856 0 -1 0 I I #
vertex $-1 $439 $602 #
point $-1 -54.927336150185184 -0.23152531490926265 9.7459262771719573 #
vertex $-1 $443 $603 #
point $-1 -54.927336150185184 2.3415474724809897 9.7459262771719573 #
vertex $-1 $447 $604 #
point $-1 -54.927336150185184 4.9146202598712421 9.7459262771719573 #
coedge $-1 $555 $453 $561 $605 reversed $324 $-1 #
coedge $-1 $453 $554 $456 $559 reversed $324 $-1 #
edge $-1 $557 -18.520408073148175 $461 -9.9434987818473424 $460 $606 forward 7 unknown #
vertex $-1 $455 $607 #
straight-curve $-1 -48.611345802560052 32.752361500645932 18.982920931289804 -0.66913059716165679 0 -0.74314483375859142 I I #
edge $-1 $457 51.797086795486535 $563 60.936918240913116 $555 $608 forward 7 unknown #
point $-1 -51.797086795486535 32.752361500645932 15.444797027482856 #
coedge $-1 $460 $459 $554 $605 forward $451 $-1 #
point $-1 -60.936918240913116 24.175452209345099 5.2939855881247269 #
vertex $-1 $559 $609 #
straight-curve $-1 -60.936918240913116 0 15.444797027482856 0 -1 0 I I #
vertex $-1 $467 $610 #
point $-1 -54.927336150185184 25.890834067605269 9.7459262771719573 #
vertex $-1 $471 $611 #
point $-1 -54.927336150185184 28.463906854995528 9.7459262771719573 #
vertex $-1 $475 $612 #
point $-1 -54.927336150185184 31.036979642385774 9.7459262771719573 #
coedge $-1 $573 $488 $482 $572 forward $479 $-1 #
edge $-1 $490 53.858371151398103 $580 60.936918240913116 $571 $613 forward 7 unknown #
coedge $-1 $483 $571 $485 $575 forward $479 $-1 #
straight-curve $-1 27.460897662126612 -4.0675153816332301 15.444797027482863 -1 0 0 I I #
edge $-1 $580 -19.492357264383131 $486 -4.0675153816332301 $485 $614 forward 7 unknown #
point $-1 60.936918240913116 -4.0675153816332301 15.444797027482856 #
straight-curve $-1 53.858371151398103 -5.8899681615040897 15.444797027482856 0 -1 0 I I #
point $-1 53.858371151398103 -19.492357264383131 15.444797027482863 #
point $-1 53.858371151398103 -4.0675153816332301 15.444797027482863 #
vertex $-1 $575 $615 #
straight-curve $-1 60.936918240913116 -19.492357264383131 5.5699923311141184 0 0 -1 I I #
vertex $-1 $497 $616 #
point $-1 56.590090723554511 -15.085259583597441 8.3458170506293179 #
vertex $-1 $501 $617 #
point $-1 56.590090723554511 -8.4746130624189142 8.3458170506293179 #
straight-curve $-1 -60.936918240913116 32.752361500645932 0 0 0 -1 I I #
point $-1 -60.936918240913116 -32.752361500645932 -15.444797027482856 #
straight-curve $-1 -60.936918240913116 0 -15.444797027482856 0 1 0 I I #
point $-1 -60.936918240913116 32.752361500645932 -15.444797027482856 #
coedge $-1 $527 $523 $532 $595 forward $400 $-1 #
vertex $-1 $524 $618 #
straight-curve $-1 -60.936918240913116 0 15.444797027482856 0 -1 0 I I #
point $-1 -60.936918240913116 -19.492357264383131 15.444797027482858 #
straight-curve $-1 60.936918240913116 0 15.444797027482856 0 1 0 I I #
edge $-1 $591 -60.936918240913116 $536 60.936918240913116 $532 $619 forward 7 unknown #
straight-curve $-1 -60.936918240913116 -32.752361500645932 0 0 0 -1 I I #
point $-1 60.936918240913116 -32.752361500645932 15.444797027482856 #
straight-curve $-1 -60.936918240913116 6.6300021181313973 43.421749285795613 0 0 -1 I I #
point $-1 -60.936918240913116 6.6300021181313973 15.444797027482856 #
straight-curve $-1 -60.936918240913116 1.1707737362404913 5.2939855881247251 0 -1 0 I I #
point $-1 -60.936918240913116 6.6300021181313973 5.2939855881247269 #
point $-1 -54.890329031886722 -0.23152531490926265 9.0397885617118341 #
point $-1 -54.890329031886722 2.3415474724809897 9.0397885617118341 #
point $-1 -54.890329031886722 4.9146202598712421 9.0397885617118341 #
edge $-1 $563 -15.444797027482856 $557 -5.2939855881247269 $554 $620 forward 7 unknown #
straight-curve $-1 -60.936918240913116 14.231953427497757 5.2939855881247251 0 -1 0 I I #
point $-1 -60.936918240913116 32.752361500645932 5.2939855881247269 #
straight-curve $-1 0 32.752361500645932 15.444797027482856 -1 0 0 I I #
point $-1 -60.936918240913116 32.752361500645932 15.444797027482856 #
point $-1 -54.890329031886722 25.890834067605269 9.0397885617118341 #
point $-1 -54.890329031886722 28.463906854995528 9.0397885617118341 #
point $-1 -54.890329031886722 31.036979642385774 9.0397885617118341 #
straight-curve $-1 0 -19.492357264383131 15.444797027482856 1 0 0 I I #
straight-curve $-1 60.936918240913116 0 15.444797027482856 0 1 0 I I #
point $-1 60.936918240913116 -19.492357264383131 15.444797027482858 #
point $-1 53.763386599096783 -15.085259583597441 8.2471063988553102 #
point $-1 53.763386599096783 -8.4746130624189142 8.2471063988553102 #
point $-1 -60.936918240913116 -32.752361500645932 15.444797027482856 #
straight-curve $-1 0 -32.752361500645932 15.444797027482856 1 0 0 I I #
straight-curve $-1 -60.936918240913116 32.752361500645932 0 0 0 -1 I I #
End-of-ACIS-data 