500 0 18 0           
7 Unknown 11 ACIS 5.0 NT 24 Fri Mar 26 02:42:46 1999 
-1 9.9999999999999995e-007 1e-010 
body $-1 $18 $-1 $19 #
body $-1 $20 $-1 $21 #
body $-1 $22 $-1 $23 #
body $-1 $24 $-1 $25 #
body $-1 $26 $-1 $27 #
body $-1 $28 $-1 $29 #
body $-1 $30 $-1 $31 #
body $-1 $32 $-1 $33 #
body $-1 $34 $-1 $35 #
body $-1 $36 $-1 $37 #
body $-1 $38 $-1 $39 #
body $-1 $40 $-1 $41 #
body $-1 $42 $-1 $43 #
body $-1 $44 $-1 $45 #
body $-1 $46 $-1 $47 #
body $-1 $48 $-1 $49 #
body $-1 $50 $-1 $51 #
body $-1 $52 $-1 $53 #
lump $-1 $-1 $54 $0 #
transform $-1 1 0 0 0 1 0 0 0 1 43.635364848780782 25.637225057505201 11.115227944485058 1 rotate no_reflect no_shear #
lump $-1 $-1 $55 $1 #
transform $-1 1 0 0 0 1 0 0 0 1 43.635364848780782 25.637225057505201 11.115227944485058 1 rotate no_reflect no_shear #
lump $-1 $-1 $56 $2 #
transform $-1 1 0 0 0 1 0 0 0 1 43.635364848780782 25.637225057505201 11.115227944485058 1 rotate no_reflect no_shear #
lump $-1 $-1 $57 $3 #
transform $-1 1 0 0 0 1 0 0 0 1 43.635364848780782 25.637225057505201 11.115227944485058 1 rotate no_reflect no_shear #
lump $-1 $-1 $58 $4 #
transform $-1 1 0 0 0 1 0 0 0 1 43.635364848780782 25.637225057505201 11.115227944485058 1 rotate no_reflect no_shear #
lump $-1 $-1 $59 $5 #
transform $-1 1 0 0 0 1 0 0 0 1 43.635364848780782 25.637225057505201 11.115227944485058 1 rotate no_reflect no_shear #
lump $-1 $-1 $60 $6 #
transform $-1 1 0 0 0 1 0 0 0 1 43.635364848780782 25.637225057505201 11.115227944485058 1 rotate no_reflect no_shear #
lump $-1 $-1 $61 $7 #
transform $-1 1 0 0 0 1 0 0 0 1 43.635364848780782 25.637225057505201 11.115227944485058 1 rotate no_reflect no_shear #
lump $-1 $-1 $62 $8 #
transform $-1 1 0 0 0 1 0 0 0 1 43.635364848780782 25.637225057505201 11.115227944485058 1 rotate no_reflect no_shear #
lump $-1 $-1 $63 $9 #
transform $-1 1 0 0 0 1 0 0 0 1 43.635364848780782 25.637225057505201 11.115227944485058 1 rotate no_reflect no_shear #
lump $-1 $-1 $64 $10 #
transform $-1 1 0 0 0 1 0 0 0 1 43.635364848780782 25.637225057505201 11.115227944485058 1 rotate no_reflect no_shear #
lump $-1 $-1 $65 $11 #
transform $-1 1 0 0 0 1 0 0 0 1 43.635364848780782 25.637225057505201 11.115227944485058 1 rotate no_reflect no_shear #
lump $-1 $-1 $66 $12 #
transform $-1 1 0 0 0 1 0 0 0 1 43.635364848780782 25.637225057505201 11.115227944485058 1 rotate no_reflect no_shear #
lump $-1 $-1 $67 $13 #
transform $-1 1 0 0 0 1 0 0 0 1 43.635364848780782 25.637225057505201 11.115227944485058 1 rotate no_reflect no_shear #
lump $-1 $-1 $68 $14 #
transform $-1 1 0 0 0 1 0 0 0 1 43.635364848780782 25.637225057505201 11.115227944485058 1 rotate no_reflect no_shear #
lump $-1 $-1 $69 $15 #
transform $-1 1 0 0 0 1 0 0 0 1 43.635364848780782 25.637225057505201 11.115227944485058 1 rotate no_reflect no_shear #
lump $-1 $-1 $70 $16 #
transform $-1 1 0 0 0 1 0 0 0 1 43.635364848780782 25.637225057505201 11.115227944485058 1 rotate no_reflect no_shear #
lump $-1 $-1 $71 $17 #
transform $-1 1 0 0 0 1 0 0 0 1 43.635364848780782 25.637225057505201 11.115227944485058 1 rotate no_reflect no_shear #
shell $-1 $-1 $-1 $72 $-1 $18 #
shell $-1 $-1 $-1 $73 $-1 $20 #
shell $-1 $-1 $-1 $74 $-1 $22 #
shell $-1 $-1 $-1 $75 $-1 $24 #
shell $-1 $-1 $-1 $76 $-1 $26 #
shell $-1 $-1 $-1 $77 $-1 $28 #
shell $-1 $-1 $-1 $78 $-1 $30 #
shell $-1 $-1 $-1 $79 $-1 $32 #
shell $-1 $-1 $-1 $80 $-1 $34 #
shell $-1 $-1 $-1 $81 $-1 $36 #
shell $-1 $-1 $-1 $82 $-1 $38 #
shell $-1 $-1 $-1 $83 $-1 $40 #
shell $-1 $-1 $-1 $84 $-1 $42 #
shell $-1 $-1 $-1 $85 $-1 $44 #
shell $-1 $-1 $-1 $86 $-1 $46 #
shell $-1 $-1 $-1 $87 $-1 $48 #
shell $-1 $-1 $-1 $88 $-1 $50 #
shell $-1 $-1 $-1 $89 $-1 $52 #
face $-1 $90 $91 $54 $-1 $92 forward single #
face $-1 $93 $94 $55 $-1 $95 forward single #
face $-1 $96 $97 $56 $-1 $98 reversed single #
face $-1 $99 $100 $57 $-1 $101 forward single #
face $-1 $102 $103 $58 $-1 $104 forward single #
face $-1 $105 $106 $59 $-1 $107 forward single #
face $-1 $108 $109 $60 $-1 $110 reversed single #
face $-1 $111 $112 $61 $-1 $113 forward single #
face $-1 $114 $115 $62 $-1 $116 forward single #
face $-1 $117 $118 $63 $-1 $119 forward single #
face $-1 $120 $121 $64 $-1 $122 reversed single #
face $-1 $123 $124 $65 $-1 $125 forward single #
face $-1 $126 $127 $66 $-1 $128 forward single #
face $-1 $129 $130 $67 $-1 $131 forward single #
face $-1 $132 $133 $68 $-1 $134 reversed single #
face $-1 $135 $136 $69 $-1 $137 forward single #
face $-1 $138 $139 $70 $-1 $140 forward single #
face $-1 $141 $142 $71 $-1 $143 forward single #
face $-1 $144 $145 $54 $-1 $146 reversed single #
loop $-1 $-1 $147 $72 #
plane-surface $-1 0 0 11.115227944485058 0 0 1 1 0 0 forward_v I I I I #
face $-1 $148 $149 $55 $-1 $150 reversed single #
loop $-1 $-1 $151 $73 #
plane-surface $-1 0 -25.637225057505201 0 0 1 0 0 0 1 forward_v I I I I #
face $-1 $152 $153 $56 $-1 $154 reversed single #
loop $-1 $-1 $155 $74 #
plane-surface $-1 -31.428861925812718 52.796309526955056 101.40929966407715 1 0 0 0 -0.71933980857756763 -0.69465836192734942 forward_v I I I I #
face $-1 $156 $157 $57 $-1 $158 forward single #
loop $-1 $159 $160 $75 #
cone-surface $-1 -29.506626025528256 21.484577907483406 6.8618212689374403 0 -0.71933980857756763 -0.69465836192734942 0.5 0 0 1 I I 0 1 0.5 forward I I I I #
face $-1 $161 $162 $58 $-1 $163 forward single #
loop $-1 $164 $165 $76 #
cone-surface $-1 -26.623272175101555 21.484577907483406 6.8618212689374403 0 -0.71933980857756763 -0.69465836192734942 0.5 0 0 1 I I 0 1 0.5 forward I I I I #
face $-1 $166 $167 $59 $-1 $168 forward single #
loop $-1 $169 $170 $77 #
cone-surface $-1 -23.739918324674854 21.484577907483406 6.8618212689374403 0 -0.71933980857756763 -0.69465836192734942 0.5 0 0 1 I I 0 1 0.5 forward I I I I #
face $-1 $171 $172 $60 $-1 $173 reversed single #
loop $-1 $-1 $174 $78 #
plane-surface $-1 -13.680013809078348 52.796309526955056 101.40929966407715 1 0 0 0 -0.71933980857756763 -0.69465836192734942 forward_v I I I I #
face $-1 $175 $176 $61 $-1 $177 forward single #
loop $-1 $178 $179 $79 #
cone-surface $-1 -11.757777908793884 21.484577907483406 6.8618212689374403 0 -0.71933980857756763 -0.69465836192734942 0.5 0 0 1 I I 0 1 0.5 forward I I I I #
face $-1 $180 $181 $62 $-1 $182 forward single #
loop $-1 $183 $184 $80 #
cone-surface $-1 -8.8744240583671825 21.484577907483406 6.8618212689374403 0 -0.71933980857756763 -0.69465836192734942 0.5 0 0 1 I I 0 1 0.5 forward I I I I #
face $-1 $185 $186 $63 $-1 $187 forward single #
loop $-1 $188 $189 $81 #
cone-surface $-1 -5.9910702079404814 21.484577907483406 6.8618212689374403 0 -0.71933980857756763 -0.69465836192734942 0.5 0 0 1 I I 0 1 0.5 forward I I I I #
face $-1 $190 $191 $64 $-1 $192 reversed single #
loop $-1 $-1 $193 $82 #
plane-surface $-1 4.0688343076560241 52.796309526955056 101.40929966407715 1 0 0 0 -0.71933980857756763 -0.69465836192734942 forward_v I I I I #
face $-1 $194 $195 $65 $-1 $196 forward single #
loop $-1 $197 $198 $83 #
cone-surface $-1 5.9910702079404885 21.484577907483406 6.8618212689374403 0 -0.71933980857756763 -0.69465836192734942 0.5 0 0 1 I I 0 1 0.5 forward I I I I #
face $-1 $199 $200 $66 $-1 $201 forward single #
loop $-1 $202 $203 $84 #
cone-surface $-1 8.8744240583671896 21.484577907483406 6.8618212689374403 0 -0.71933980857756763 -0.69465836192734942 0.5 0 0 1 I I 0 1 0.5 forward I I I I #
face $-1 $204 $205 $67 $-1 $206 forward single #
loop $-1 $207 $208 $85 #
cone-surface $-1 11.757777908793891 21.484577907483406 6.8618212689374403 0 -0.71933980857756763 -0.69465836192734942 0.5 0 0 1 I I 0 1 0.5 forward I I I I #
face $-1 $209 $210 $68 $-1 $211 reversed single #
loop $-1 $-1 $212 $86 #
plane-surface $-1 21.817682424390398 52.796309526955056 101.40929966407715 1 0 0 0 -0.71933980857756763 -0.69465836192734942 forward_v I I I I #
face $-1 $213 $214 $69 $-1 $215 forward single #
loop $-1 $216 $217 $87 #
cone-surface $-1 23.739918324674861 21.484577907483406 6.8618212689374403 0 -0.71933980857756763 -0.69465836192734942 0.5 0 0 1 I I 0 1 0.5 forward I I I I #
face $-1 $218 $219 $70 $-1 $220 forward single #
loop $-1 $221 $222 $88 #
cone-surface $-1 26.623272175101562 21.484577907483406 6.8618212689374403 0 -0.71933980857756763 -0.69465836192734942 0.5 0 0 1 I I 0 1 0.5 forward I I I I #
face $-1 $223 $224 $71 $-1 $225 forward single #
loop $-1 $226 $227 $89 #
cone-surface $-1 29.506626025528263 21.484577907483406 6.8618212689374403 0 -0.71933980857756763 -0.69465836192734942 0.5 0 0 1 I I 0 1 0.5 forward I I I I #
face $-1 $228 $229 $54 $-1 $230 reversed single #
loop $-1 $-1 $231 $90 #
plane-surface $-1 0 0 -11.115227944485058 0 0 1 1 0 0 forward_v I I I I #
coedge $-1 $232 $233 $234 $235 forward $91 $-1 #
face $-1 $236 $237 $55 $-1 $238 forward single #
loop $-1 $-1 $239 $93 #
plane-surface $-1 -43.635364848780782 0 0 1 0 0 0 0 -1 forward_v I I I I #
coedge $-1 $240 $241 $242 $243 forward $94 $-1 #
face $-1 $244 $245 $56 $-1 $246 reversed single #
loop $-1 $-1 $247 $96 #
plane-surface $-1 -26.623272175101555 -9.9810004681135283 40.785957528164552 0 0.71933980857756763 0.69465836192734942 1 0 0 forward_v I I I I #
coedge $-1 $248 $249 $250 $251 reversed $97 $-1 #
face $-1 $-1 $252 $57 $-1 $253 forward single #
loop $-1 $254 $255 $99 #
cone-surface $-1 -29.506626025528256 20.634863658517947 6.0412617763940428 0 -0.71933980857756763 -0.69465836192734942 0.25 0 0 1 I I -0.70710678118654746 0.70710678118654746 0.25 forward I I I I #
loop $-1 $-1 $256 $75 #
coedge $-1 $160 $160 $257 $258 reversed $100 $-1 #
face $-1 $-1 $259 $58 $-1 $260 forward single #
loop $-1 $261 $262 $102 #
cone-surface $-1 -26.623272175101555 20.634863658517947 6.0412617763940428 0 -0.71933980857756763 -0.69465836192734942 0.25 0 0 1 I I -0.70710678118654746 0.70710678118654746 0.25 forward I I I I #
loop $-1 $-1 $263 $76 #
coedge $-1 $165 $165 $264 $265 reversed $103 $-1 #
face $-1 $-1 $266 $59 $-1 $267 forward single #
loop $-1 $268 $269 $105 #
cone-surface $-1 -23.739918324674854 20.634863658517947 6.0412617763940428 0 -0.71933980857756763 -0.69465836192734942 0.25 0 0 1 I I -0.70710678118654746 0.70710678118654746 0.25 forward I I I I #
loop $-1 $-1 $270 $77 #
coedge $-1 $170 $170 $271 $272 reversed $106 $-1 #
face $-1 $273 $274 $60 $-1 $275 reversed single #
loop $-1 $-1 $276 $108 #
plane-surface $-1 -8.8744240583671825 -9.9810004681135283 40.785957528164552 0 0.71933980857756763 0.69465836192734942 1 0 0 forward_v I I I I #
coedge $-1 $277 $278 $279 $280 reversed $109 $-1 #
face $-1 $-1 $281 $61 $-1 $282 forward single #
loop $-1 $283 $284 $111 #
cone-surface $-1 -11.757777908793884 20.634863658517947 6.0412617763940428 0 -0.71933980857756763 -0.69465836192734942 0.25 0 0 1 I I -0.70710678118654746 0.70710678118654746 0.25 forward I I I I #
loop $-1 $-1 $285 $79 #
coedge $-1 $179 $179 $286 $287 reversed $112 $-1 #
face $-1 $-1 $288 $62 $-1 $289 forward single #
loop $-1 $290 $291 $114 #
cone-surface $-1 -8.8744240583671825 20.634863658517947 6.0412617763940428 0 -0.71933980857756763 -0.69465836192734942 0.25 0 0 1 I I -0.70710678118654746 0.70710678118654746 0.25 forward I I I I #
loop $-1 $-1 $292 $80 #
coedge $-1 $184 $184 $293 $294 reversed $115 $-1 #
face $-1 $-1 $295 $63 $-1 $296 forward single #
loop $-1 $297 $298 $117 #
cone-surface $-1 -5.9910702079404814 20.634863658517947 6.0412617763940428 0 -0.71933980857756763 -0.69465836192734942 0.25 0 0 1 I I -0.70710678118654746 0.70710678118654746 0.25 forward I I I I #
loop $-1 $-1 $299 $81 #
coedge $-1 $189 $189 $300 $301 reversed $118 $-1 #
face $-1 $302 $303 $64 $-1 $304 reversed single #
loop $-1 $-1 $305 $120 #
plane-surface $-1 8.8744240583671896 -9.9810004681135283 40.785957528164552 0 0.71933980857756763 0.69465836192734942 1 0 0 forward_v I I I I #
coedge $-1 $306 $307 $308 $309 reversed $121 $-1 #
face $-1 $-1 $310 $65 $-1 $311 forward single #
loop $-1 $312 $313 $123 #
cone-surface $-1 5.9910702079404885 20.634863658517947 6.0412617763940428 0 -0.71933980857756763 -0.69465836192734942 0.25 0 0 1 I I -0.70710678118654746 0.70710678118654746 0.25 forward I I I I #
loop $-1 $-1 $314 $83 #
coedge $-1 $198 $198 $315 $316 reversed $124 $-1 #
face $-1 $-1 $317 $66 $-1 $318 forward single #
loop $-1 $319 $320 $126 #
cone-surface $-1 8.8744240583671896 20.634863658517947 6.0412617763940428 0 -0.71933980857756763 -0.69465836192734942 0.25 0 0 1 I I -0.70710678118654746 0.70710678118654746 0.25 forward I I I I #
loop $-1 $-1 $321 $84 #
coedge $-1 $203 $203 $322 $323 reversed $127 $-1 #
face $-1 $-1 $324 $67 $-1 $325 forward single #
loop $-1 $326 $327 $129 #
cone-surface $-1 11.757777908793891 20.634863658517947 6.0412617763940428 0 -0.71933980857756763 -0.69465836192734942 0.25 0 0 1 I I -0.70710678118654746 0.70710678118654746 0.25 forward I I I I #
loop $-1 $-1 $328 $85 #
coedge $-1 $208 $208 $329 $330 reversed $130 $-1 #
face $-1 $331 $332 $68 $-1 $333 reversed single #
loop $-1 $-1 $334 $132 #
plane-surface $-1 26.623272175101562 -9.9810004681135283 40.785957528164552 0 0.71933980857756763 0.69465836192734942 1 0 0 forward_v I I I I #
coedge $-1 $335 $336 $337 $338 reversed $133 $-1 #
face $-1 $-1 $339 $69 $-1 $340 forward single #
loop $-1 $341 $342 $135 #
cone-surface $-1 23.739918324674861 20.634863658517947 6.0412617763940428 0 -0.71933980857756763 -0.69465836192734942 0.25 0 0 1 I I -0.70710678118654746 0.70710678118654746 0.25 forward I I I I #
loop $-1 $-1 $343 $87 #
coedge $-1 $217 $217 $344 $345 reversed $136 $-1 #
face $-1 $-1 $346 $70 $-1 $347 forward single #
loop $-1 $348 $349 $138 #
cone-surface $-1 26.623272175101562 20.634863658517947 6.0412617763940428 0 -0.71933980857756763 -0.69465836192734942 0.25 0 0 1 I I -0.70710678118654746 0.70710678118654746 0.25 forward I I I I #
loop $-1 $-1 $350 $88 #
coedge $-1 $222 $222 $351 $352 reversed $139 $-1 #
face $-1 $-1 $353 $71 $-1 $354 forward single #
loop $-1 $355 $356 $141 #
cone-surface $-1 29.506626025528263 20.634863658517947 6.0412617763940428 0 -0.71933980857756763 -0.69465836192734942 0.25 0 0 1 I I -0.70710678118654746 0.70710678118654746 0.25 forward I I I I #
loop $-1 $-1 $357 $89 #
coedge $-1 $227 $227 $358 $359 reversed $142 $-1 #
face $-1 $360 $361 $54 $-1 $362 reversed single #
loop $-1 $-1 $363 $144 #
plane-surface $-1 0 -25.637225057505201 0 0 1 0 0 0 1 forward_v I I I I #
coedge $-1 $364 $365 $366 $367 forward $145 $-1 #
coedge $-1 $368 $147 $369 $370 forward $91 $-1 #
coedge $-1 $147 $368 $371 $372 forward $91 $-1 #
coedge $-1 $373 $374 $147 $235 reversed $375 $-1 #
edge $-1 $376 -25.637225057505201 $377 25.637225057505201 $234 $378 forward 7 unknown #
face $-1 $379 $380 $55 $-1 $381 reversed single #
loop $-1 $-1 $382 $148 #
plane-surface $-1 0 -31.519140315171683 8.4372209126122755 0 0 1 1 0 0 forward_v I I I I #
coedge $-1 $383 $384 $241 $385 forward $149 $-1 #
coedge $-1 $386 $151 $387 $388 reversed $94 $-1 #
coedge $-1 $151 $386 $239 $385 reversed $94 $-1 #
coedge $-1 $389 $382 $151 $243 reversed $237 $-1 #
edge $-1 $390 -43.635364848780782 $391 43.635364848780782 $242 $392 forward 7 unknown #
face $-1 $393 $394 $56 $-1 $395 forward single #
loop $-1 $-1 $396 $152 #
plane-surface $-1 -21.817682424390391 52.796309526955056 101.40929966407715 -1 0 0 0 0.71933980857756763 0.69465836192734942 forward_v I I I I #
coedge $-1 $397 $398 $399 $400 reversed $153 $-1 #
coedge $-1 $249 $155 $401 $402 reversed $97 $-1 #
coedge $-1 $155 $248 $397 $403 reversed $97 $-1 #
coedge $-1 $399 $404 $155 $251 forward $394 $-1 #
edge $-1 $405 0.76092970597232679 $406 7.7264654123738232 $250 $407 forward 7 unknown #
loop $-1 $-1 $257 $156 #
plane-surface $-1 -26.623272175101555 -9.9810004681135283 40.785957528164552 0 0.71933980857756763 0.69465836192734942 1 0 0 forward_v I I I I #
loop $-1 $-1 $408 $99 #
coedge $-1 $255 $255 $256 $409 reversed $157 $-1 #
coedge $-1 $256 $256 $255 $409 forward $159 $-1 #
coedge $-1 $257 $257 $160 $258 forward $252 $-1 #
edge $-1 $410 1.6787472463711089e-015 $410 6.2831853071796022 $257 $411 forward 7 unknown #
loop $-1 $-1 $264 $161 #
plane-surface $-1 -26.623272175101555 -9.9810004681135283 40.785957528164552 0 0.71933980857756763 0.69465836192734942 1 0 0 forward_v I I I I #
loop $-1 $-1 $412 $102 #
coedge $-1 $262 $262 $263 $413 reversed $162 $-1 #
coedge $-1 $263 $263 $262 $413 forward $164 $-1 #
coedge $-1 $264 $264 $165 $265 forward $259 $-1 #
edge $-1 $414 1.6787472463711089e-015 $414 6.2831853071796022 $264 $415 forward 7 unknown #
loop $-1 $-1 $271 $166 #
plane-surface $-1 -26.623272175101555 -9.9810004681135283 40.785957528164552 0 0.71933980857756763 0.69465836192734942 1 0 0 forward_v I I I I #
loop $-1 $-1 $416 $105 #
coedge $-1 $269 $269 $270 $417 reversed $167 $-1 #
coedge $-1 $270 $270 $269 $417 forward $169 $-1 #
coedge $-1 $271 $271 $170 $272 forward $266 $-1 #
edge $-1 $418 1.6787472463711089e-015 $418 6.2831853071796022 $271 $419 forward 7 unknown #
face $-1 $420 $421 $60 $-1 $422 forward single #
loop $-1 $-1 $423 $171 #
plane-surface $-1 -4.0688343076560169 52.796309526955056 101.40929966407715 -1 0 0 0 0.71933980857756763 0.69465836192734942 forward_v I I I I #
coedge $-1 $424 $425 $426 $427 reversed $172 $-1 #
coedge $-1 $278 $174 $428 $429 reversed $109 $-1 #
coedge $-1 $174 $277 $424 $430 reversed $109 $-1 #
coedge $-1 $426 $431 $174 $280 forward $421 $-1 #
edge $-1 $432 0.76092970597232679 $433 7.7264654123738232 $279 $434 forward 7 unknown #
loop $-1 $-1 $286 $175 #
plane-surface $-1 -8.8744240583671825 -9.9810004681135283 40.785957528164552 0 0.71933980857756763 0.69465836192734942 1 0 0 forward_v I I I I #
loop $-1 $-1 $435 $111 #
coedge $-1 $284 $284 $285 $436 reversed $176 $-1 #
coedge $-1 $285 $285 $284 $436 forward $178 $-1 #
coedge $-1 $286 $286 $179 $287 forward $281 $-1 #
edge $-1 $437 1.6787472463711089e-015 $437 6.2831853071796022 $286 $438 forward 7 unknown #
loop $-1 $-1 $293 $180 #
plane-surface $-1 -8.8744240583671825 -9.9810004681135283 40.785957528164552 0 0.71933980857756763 0.69465836192734942 1 0 0 forward_v I I I I #
loop $-1 $-1 $439 $114 #
coedge $-1 $291 $291 $292 $440 reversed $181 $-1 #
coedge $-1 $292 $292 $291 $440 forward $183 $-1 #
coedge $-1 $293 $293 $184 $294 forward $288 $-1 #
edge $-1 $441 1.6787472463711089e-015 $441 6.2831853071796022 $293 $442 forward 7 unknown #
loop $-1 $-1 $300 $185 #
plane-surface $-1 -8.8744240583671825 -9.9810004681135283 40.785957528164552 0 0.71933980857756763 0.69465836192734942 1 0 0 forward_v I I I I #
loop $-1 $-1 $443 $117 #
coedge $-1 $298 $298 $299 $444 reversed $186 $-1 #
coedge $-1 $299 $299 $298 $444 forward $188 $-1 #
coedge $-1 $300 $300 $189 $301 forward $295 $-1 #
edge $-1 $445 1.6787472463711089e-015 $445 6.2831853071796022 $300 $446 forward 7 unknown #
face $-1 $447 $448 $64 $-1 $449 forward single #
loop $-1 $-1 $450 $190 #
plane-surface $-1 13.680013809078355 52.796309526955056 101.40929966407715 -1 0 0 0 0.71933980857756763 0.69465836192734942 forward_v I I I I #
coedge $-1 $451 $452 $453 $454 reversed $191 $-1 #
coedge $-1 $307 $193 $455 $456 reversed $121 $-1 #
coedge $-1 $193 $306 $451 $457 reversed $121 $-1 #
coedge $-1 $453 $458 $193 $309 forward $448 $-1 #
edge $-1 $459 0.76092970597232679 $460 7.7264654123738232 $308 $461 forward 7 unknown #
loop $-1 $-1 $315 $194 #
plane-surface $-1 8.8744240583671896 -9.9810004681135283 40.785957528164552 0 0.71933980857756763 0.69465836192734942 1 0 0 forward_v I I I I #
loop $-1 $-1 $462 $123 #
coedge $-1 $313 $313 $314 $463 reversed $195 $-1 #
coedge $-1 $314 $314 $313 $463 forward $197 $-1 #
coedge $-1 $315 $315 $198 $316 forward $310 $-1 #
edge $-1 $464 1.6787472463711089e-015 $464 6.2831853071796022 $315 $465 forward 7 unknown #
loop $-1 $-1 $322 $199 #
plane-surface $-1 8.8744240583671896 -9.9810004681135283 40.785957528164552 0 0.71933980857756763 0.69465836192734942 1 0 0 forward_v I I I I #
loop $-1 $-1 $466 $126 #
coedge $-1 $320 $320 $321 $467 reversed $200 $-1 #
coedge $-1 $321 $321 $320 $467 forward $202 $-1 #
coedge $-1 $322 $322 $203 $323 forward $317 $-1 #
edge $-1 $468 1.6787472463711089e-015 $468 6.2831853071796022 $322 $469 forward 7 unknown #
loop $-1 $-1 $329 $204 #
plane-surface $-1 8.8744240583671896 -9.9810004681135283 40.785957528164552 0 0.71933980857756763 0.69465836192734942 1 0 0 forward_v I I I I #
loop $-1 $-1 $470 $129 #
coedge $-1 $327 $327 $328 $471 reversed $205 $-1 #
coedge $-1 $328 $328 $327 $471 forward $207 $-1 #
coedge $-1 $329 $329 $208 $330 forward $324 $-1 #
edge $-1 $472 1.6787472463711089e-015 $472 6.2831853071796022 $329 $473 forward 7 unknown #
face $-1 $474 $475 $68 $-1 $476 forward single #
loop $-1 $-1 $477 $209 #
plane-surface $-1 31.428861925812726 52.796309526955056 101.40929966407715 -1 0 0 0 0.71933980857756763 0.69465836192734942 forward_v I I I I #
coedge $-1 $478 $479 $480 $481 reversed $210 $-1 #
coedge $-1 $336 $212 $482 $483 reversed $133 $-1 #
coedge $-1 $212 $335 $478 $484 reversed $133 $-1 #
coedge $-1 $480 $485 $212 $338 forward $475 $-1 #
edge $-1 $486 0.76092970597232679 $487 7.7264654123738232 $337 $488 forward 7 unknown #
loop $-1 $-1 $344 $213 #
plane-surface $-1 26.623272175101562 -9.9810004681135283 40.785957528164552 0 0.71933980857756763 0.69465836192734942 1 0 0 forward_v I I I I #
loop $-1 $-1 $489 $135 #
coedge $-1 $342 $342 $343 $490 reversed $214 $-1 #
coedge $-1 $343 $343 $342 $490 forward $216 $-1 #
coedge $-1 $344 $344 $217 $345 forward $339 $-1 #
edge $-1 $491 1.6787472463711089e-015 $491 6.2831853071796022 $344 $492 forward 7 unknown #
loop $-1 $-1 $351 $218 #
plane-surface $-1 26.623272175101562 -9.9810004681135283 40.785957528164552 0 0.71933980857756763 0.69465836192734942 1 0 0 forward_v I I I I #
loop $-1 $-1 $493 $138 #
coedge $-1 $349 $349 $350 $494 reversed $219 $-1 #
coedge $-1 $350 $350 $349 $494 forward $221 $-1 #
coedge $-1 $351 $351 $222 $352 forward $346 $-1 #
edge $-1 $495 1.6787472463711089e-015 $495 6.2831853071796022 $351 $496 forward 7 unknown #
loop $-1 $-1 $358 $223 #
plane-surface $-1 26.623272175101562 -9.9810004681135283 40.785957528164552 0 0.71933980857756763 0.69465836192734942 1 0 0 forward_v I I I I #
loop $-1 $-1 $497 $141 #
coedge $-1 $356 $356 $357 $498 reversed $224 $-1 #
coedge $-1 $357 $357 $356 $498 forward $226 $-1 #
coedge $-1 $358 $358 $227 $359 forward $353 $-1 #
edge $-1 $499 1.6787472463711089e-015 $499 6.2831853071796022 $358 $500 forward 7 unknown #
face $-1 $501 $502 $54 $-1 $503 reversed single #
loop $-1 $-1 $504 $228 #
plane-surface $-1 -43.635364848780782 0 0 1 0 0 0 0 -1 forward_v I I I I #
coedge $-1 $505 $371 $506 $507 forward $229 $-1 #
coedge $-1 $508 $231 $505 $509 forward $145 $-1 #
coedge $-1 $231 $508 $510 $511 forward $145 $-1 #
coedge $-1 $374 $373 $231 $367 reversed $375 $-1 #
edge $-1 $512 -25.637225057505201 $513 25.637225057505201 $366 $514 forward 7 unknown #
coedge $-1 $233 $232 $515 $516 forward $91 $-1 #
coedge $-1 $517 $518 $232 $370 reversed $502 $-1 #
edge $-1 $377 -43.635364848780782 $519 43.635364848780782 $369 $520 forward 7 unknown #
coedge $-1 $363 $521 $233 $372 reversed $229 $-1 #
edge $-1 $522 -43.635364848780782 $376 43.635364848780782 $371 $523 forward 7 unknown #
coedge $-1 $366 $234 $521 $524 forward $375 $-1 #
coedge $-1 $234 $366 $517 $525 reversed $375 $-1 #
loop $-1 $-1 $373 $501 #
vertex $-1 $235 $526 #
vertex $-1 $235 $527 #
straight-curve $-1 43.635364848780782 0 11.115227944485058 0 1 0 I I #
face $-1 $528 $529 $55 $-1 $530 reversed single #
loop $-1 $-1 $531 $236 #
plane-surface $-1 0 -31.519140315171683 4.8969154844249907 0 0 1 1 0 0 forward_v I I I I #
coedge $-1 $242 $532 $533 $534 forward $237 $-1 #
coedge $-1 $535 $239 $536 $537 reversed $149 $-1 #
coedge $-1 $239 $535 $389 $538 reversed $149 $-1 #
edge $-1 $390 -8.4372209126122755 $539 -4.8969154844249907 $239 $540 forward 7 unknown #
coedge $-1 $241 $240 $541 $542 forward $94 $-1 #
coedge $-1 $533 $543 $240 $388 forward $544 $-1 #
edge $-1 $545 4.8969154844249907 $391 8.4372209126122755 $387 $546 forward 7 unknown #
coedge $-1 $532 $242 $384 $538 forward $237 $-1 #
vertex $-1 $385 $547 #
vertex $-1 $534 $548 #
straight-curve $-1 0 -25.637225057505201 8.4372209126122755 1 0 0 I I #
face $-1 $-1 $549 $56 $-1 $550 reversed single #
loop $-1 $-1 $250 $244 #
plane-surface $-1 0 0 11.115227944485058 0 0 1 1 0 0 forward_v I I I I #
coedge $-1 $551 $552 $553 $554 reversed $245 $-1 #
coedge $-1 $555 $247 $249 $403 forward $153 $-1 #
coedge $-1 $247 $555 $551 $556 forward $153 $-1 #
coedge $-1 $553 $250 $247 $400 forward $394 $-1 #
edge $-1 $406 -18.117225838261941 $557 -8.5060463368396135 $399 $558 forward 7 unknown #
coedge $-1 $559 $560 $248 $402 forward $549 $-1 #
edge $-1 $561 -46.802445434525652 $405 -39.58942188755352 $401 $562 forward 7 unknown #
edge $-1 $406 41.247167513710664 $561 51.27445011501041 $249 $563 forward 7 unknown #
coedge $-1 $250 $553 $559 $564 forward $394 $-1 #
vertex $-1 $402 $565 #
vertex $-1 $251 $566 #
straight-curve $-1 -31.428861925812718 26.398154763477528 11.115227944485056 0 -1 0 I I #
coedge $-1 $408 $408 $-1 $567 reversed $254 $-1 #
edge $-1 $568 0 $568 6.2831853071796004 $255 $569 forward 7 unknown #
vertex $-1 $258 $570 #
ellipse-curve $-1 -29.506626025528256 22.154457204304457 7.5087161709989845 0 0.71933980857756763 0.69465836192734942 0.5 0 0 1 I I #
coedge $-1 $412 $412 $-1 $571 reversed $261 $-1 #
edge $-1 $572 0 $572 6.2831853071796004 $262 $573 forward 7 unknown #
vertex $-1 $265 $574 #
ellipse-curve $-1 -26.623272175101555 22.154457204304457 7.5087161709989845 0 0.71933980857756763 0.69465836192734942 0.5 0 0 1 I I #
coedge $-1 $416 $416 $-1 $575 reversed $268 $-1 #
edge $-1 $576 0 $576 6.2831853071796004 $269 $577 forward 7 unknown #
vertex $-1 $272 $578 #
ellipse-curve $-1 -23.739918324674854 22.154457204304457 7.5087161709989845 0 0.71933980857756763 0.69465836192734942 0.5 0 0 1 I I #
face $-1 $-1 $579 $60 $-1 $580 reversed single #
loop $-1 $-1 $279 $273 #
plane-surface $-1 0 0 11.115227944485058 0 0 1 1 0 0 forward_v I I I I #
coedge $-1 $581 $582 $583 $584 reversed $274 $-1 #
coedge $-1 $585 $276 $278 $430 forward $172 $-1 #
coedge $-1 $276 $585 $581 $586 forward $172 $-1 #
coedge $-1 $583 $279 $276 $427 forward $421 $-1 #
edge $-1 $433 -9.2428017798947568 $587 0.36837772152757431 $426 $588 forward 7 unknown #
coedge $-1 $589 $590 $277 $429 forward $579 $-1 #
edge $-1 $591 -46.802445434525652 $432 -39.58942188755352 $428 $592 forward 7 unknown #
edge $-1 $433 41.247167513710664 $591 51.27445011501041 $278 $593 forward 7 unknown #
coedge $-1 $279 $583 $589 $594 forward $421 $-1 #
vertex $-1 $280 $595 #
vertex $-1 $280 $596 #
straight-curve $-1 -13.680013809078348 26.398154763477528 11.115227944485056 0 -1 0 I I #
coedge $-1 $435 $435 $-1 $597 reversed $283 $-1 #
edge $-1 $598 0 $598 6.2831853071796004 $284 $599 forward 7 unknown #
vertex $-1 $287 $600 #
ellipse-curve $-1 -11.757777908793884 22.154457204304457 7.5087161709989845 0 0.71933980857756763 0.69465836192734942 0.5 0 0 1 I I #
coedge $-1 $439 $439 $-1 $601 reversed $290 $-1 #
edge $-1 $602 0 $602 6.2831853071796004 $291 $603 forward 7 unknown #
vertex $-1 $294 $604 #
ellipse-curve $-1 -8.8744240583671825 22.154457204304457 7.5087161709989845 0 0.71933980857756763 0.69465836192734942 0.5 0 0 1 I I #
coedge $-1 $443 $443 $-1 $605 reversed $297 $-1 #
edge $-1 $606 0 $606 6.2831853071796004 $298 $607 forward 7 unknown #
vertex $-1 $301 $608 #
ellipse-curve $-1 -5.9910702079404814 22.154457204304457 7.5087161709989845 0 0.71933980857756763 0.69465836192734942 0.5 0 0 1 I I #
face $-1 $-1 $609 $64 $-1 $610 reversed single #
loop $-1 $-1 $308 $302 #
plane-surface $-1 0 0 11.115227944485058 0 0 1 1 0 0 forward_v I I I I #
coedge $-1 $611 $612 $613 $614 reversed $303 $-1 #
coedge $-1 $615 $305 $307 $457 forward $191 $-1 #
coedge $-1 $305 $615 $611 $616 forward $191 $-1 #
coedge $-1 $613 $308 $305 $454 forward $448 $-1 #
edge $-1 $460 -0.36837772152757076 $617 9.2428017798947604 $453 $618 forward 7 unknown #
coedge $-1 $619 $620 $306 $456 forward $609 $-1 #
edge $-1 $621 -46.802445434525652 $459 -39.58942188755352 $455 $622 forward 7 unknown #
edge $-1 $460 41.247167513710664 $621 51.27445011501041 $307 $623 forward 7 unknown #
coedge $-1 $308 $613 $619 $624 forward $448 $-1 #
vertex $-1 $309 $625 #
vertex $-1 $309 $626 #
straight-curve $-1 4.0688343076560241 26.398154763477528 11.115227944485056 0 -1 0 I I #
coedge $-1 $462 $462 $-1 $627 reversed $312 $-1 #
edge $-1 $628 0 $628 6.2831853071796004 $313 $629 forward 7 unknown #
vertex $-1 $316 $630 #
ellipse-curve $-1 5.9910702079404885 22.154457204304457 7.5087161709989845 0 0.71933980857756763 0.69465836192734942 0.5 0 0 1 I I #
coedge $-1 $466 $466 $-1 $631 reversed $319 $-1 #
edge $-1 $632 0 $632 6.2831853071796004 $320 $633 forward 7 unknown #
vertex $-1 $323 $634 #
ellipse-curve $-1 8.8744240583671896 22.154457204304457 7.5087161709989845 0 0.71933980857756763 0.69465836192734942 0.5 0 0 1 I I #
coedge $-1 $470 $470 $-1 $635 reversed $326 $-1 #
edge $-1 $636 0 $636 6.2831853071796004 $327 $637 forward 7 unknown #
vertex $-1 $330 $638 #
ellipse-curve $-1 11.757777908793891 22.154457204304457 7.5087161709989845 0 0.71933980857756763 0.69465836192734942 0.5 0 0 1 I I #
face $-1 $-1 $639 $68 $-1 $640 reversed single #
loop $-1 $-1 $337 $331 #
plane-surface $-1 0 0 11.115227944485058 0 0 1 1 0 0 forward_v I I I I #
coedge $-1 $641 $642 $643 $644 reversed $332 $-1 #
coedge $-1 $645 $334 $336 $484 forward $210 $-1 #
coedge $-1 $334 $645 $641 $646 forward $210 $-1 #
coedge $-1 $643 $337 $334 $481 forward $475 $-1 #
edge $-1 $487 8.5060463368396171 $647 18.117225838261945 $480 $648 forward 7 unknown #
coedge $-1 $649 $650 $335 $483 forward $639 $-1 #
edge $-1 $651 -46.802445434525652 $486 -39.58942188755352 $482 $652 forward 7 unknown #
edge $-1 $487 41.247167513710664 $651 51.27445011501041 $336 $653 forward 7 unknown #
coedge $-1 $337 $643 $649 $654 forward $475 $-1 #
vertex $-1 $338 $655 #
vertex $-1 $338 $656 #
straight-curve $-1 21.817682424390398 26.398154763477528 11.115227944485056 0 -1 0 I I #
coedge $-1 $489 $489 $-1 $657 reversed $341 $-1 #
edge $-1 $658 0 $658 6.2831853071796004 $342 $659 forward 7 unknown #
vertex $-1 $345 $660 #
ellipse-curve $-1 23.739918324674861 22.154457204304457 7.5087161709989845 0 0.71933980857756763 0.69465836192734942 0.5 0 0 1 I I #
coedge $-1 $493 $493 $-1 $661 reversed $348 $-1 #
edge $-1 $662 0 $662 6.2831853071796004 $349 $663 forward 7 unknown #
vertex $-1 $352 $664 #
ellipse-curve $-1 26.623272175101562 22.154457204304457 7.5087161709989845 0 0.71933980857756763 0.69465836192734942 0.5 0 0 1 I I #
coedge $-1 $497 $497 $-1 $665 reversed $355 $-1 #
edge $-1 $666 0 $666 6.2831853071796004 $356 $667 forward 7 unknown #
vertex $-1 $359 $668 #
ellipse-curve $-1 29.506626025528263 22.154457204304457 7.5087161709989845 0 0.71933980857756763 0.69465836192734942 0.5 0 0 1 I I #
face $-1 $-1 $375 $54 $-1 $669 reversed single #
loop $-1 $-1 $517 $360 #
plane-surface $-1 0 25.637225057505201 0 0 -1 0 0 0 -1 forward_v I I I I #
coedge $-1 $670 $515 $518 $671 forward $361 $-1 #
coedge $-1 $521 $363 $364 $509 reversed $229 $-1 #
coedge $-1 $515 $670 $363 $507 reversed $361 $-1 #
edge $-1 $522 -11.115227944485058 $672 11.115227944485058 $506 $673 forward 7 unknown #
coedge $-1 $365 $364 $670 $674 forward $145 $-1 #
edge $-1 $513 -43.635364848780782 $672 43.635364848780782 $505 $675 forward 7 unknown #
coedge $-1 $518 $517 $365 $511 reversed $502 $-1 #
edge $-1 $676 -43.635364848780782 $512 43.635364848780782 $510 $677 forward 7 unknown #
vertex $-1 $367 $678 #
vertex $-1 $524 $679 #
straight-curve $-1 43.635364848780782 0 -11.115227944485058 0 -1 0 I I #
coedge $-1 $504 $506 $368 $516 reversed $361 $-1 #
edge $-1 $519 -25.637225057505201 $522 25.637225057505201 $515 $680 forward 7 unknown #
coedge $-1 $510 $369 $374 $525 forward $502 $-1 #
coedge $-1 $369 $510 $504 $671 reversed $502 $-1 #
vertex $-1 $370 $681 #
straight-curve $-1 0 25.637225057505201 11.115227944485058 -1 0 0 I I #
coedge $-1 $371 $505 $373 $524 reversed $229 $-1 #
vertex $-1 $516 $682 #
straight-curve $-1 0 -25.637225057505201 11.115227944485058 1 0 0 I I #
edge $-1 $376 -11.115227944485058 $513 11.115227944485058 $373 $683 forward 7 unknown #
edge $-1 $377 -11.115227944485058 $512 11.115227944485058 $374 $684 forward 7 unknown #
point $-1 43.635364848780782 -25.637225057505201 11.115227944485058 #
point $-1 43.635364848780782 25.637225057505201 11.115227944485058 #
face $-1 $-1 $544 $55 $-1 $685 reversed single #
loop $-1 $-1 $686 $379 #
plane-surface $-1 0 -37.40105557283816 6.6670681985186331 0 1 0 0 0 1 forward_v I I I I #
coedge $-1 $687 $541 $543 $688 forward $380 $-1 #
coedge $-1 $382 $389 $689 $690 forward $237 $-1 #
coedge $-1 $691 $387 $382 $534 reversed $544 $-1 #
edge $-1 $692 -5.8819152576664777 $391 5.8819152576664813 $533 $693 forward 7 unknown #
coedge $-1 $384 $383 $686 $694 reversed $149 $-1 #
coedge $-1 $541 $687 $383 $537 forward $380 $-1 #
edge $-1 $695 -5.8819152576664777 $539 5.8819152576664813 $383 $696 forward 7 unknown #
edge $-1 $390 -5.8819152576664813 $697 5.8819152576664777 $384 $698 forward 7 unknown #
vertex $-1 $385 $699 #
straight-curve $-1 -43.635364848780782 -25.637225057505201 0 0 0 -1 I I #
coedge $-1 $531 $536 $386 $542 reversed $380 $-1 #
edge $-1 $545 -43.635364848780782 $539 43.635364848780782 $541 $700 forward 7 unknown #
coedge $-1 $387 $691 $531 $688 reversed $544 $-1 #
loop $-1 $-1 $387 $528 #
vertex $-1 $388 $701 #
straight-curve $-1 43.635364848780782 -25.637225057505201 0 0 0 1 I I #
point $-1 -43.635364848780782 -25.637225057505201 8.4372209126122755 #
point $-1 43.635364848780782 -25.637225057505201 8.4372209126122755 #
loop $-1 $-1 $401 $393 #
plane-surface $-1 0 25.637225057505201 0 0 -1 0 0 0 -1 forward_v I I I I #
coedge $-1 $552 $396 $398 $556 reversed $245 $-1 #
coedge $-1 $396 $551 $702 $703 reversed $245 $-1 #
coedge $-1 $404 $399 $396 $554 forward $394 $-1 #
edge $-1 $557 -7.7264654123738232 $704 -0.76092970597232679 $553 $705 forward 7 unknown #
coedge $-1 $398 $397 $560 $706 reversed $153 $-1 #
edge $-1 $707 -51.27445011501041 $557 -41.247167513710664 $551 $708 forward 7 unknown #
vertex $-1 $400 $709 #
straight-curve $-1 -13.311636087550777 18.671689351103694 11.115227944485056 1 0 0 I I #
coedge $-1 $702 $401 $404 $564 reversed $549 $-1 #
coedge $-1 $401 $702 $555 $706 forward $549 $-1 #
vertex $-1 $402 $710 #
straight-curve $-1 -31.428861925812718 25.637225057505201 50.704649832038577 0 0 1 I I #
straight-curve $-1 -31.428861925812718 -9.9810004681135283 40.785957528164552 0 0.69465836192734942 -0.71933980857756763 I I #
edge $-1 $704 21.817682424390391 $405 31.428861925812718 $559 $711 forward 7 unknown #
point $-1 -31.428861925812718 25.637225057505201 11.115227944485058 #
point $-1 -31.428861925812718 18.671689351103705 11.115227944485056 #
edge $-1 $712 1 $712 0 $408 $-1 forward 7 unknown #
vertex $-1 $409 $713 #
ellipse-curve $-1 -29.506626025528256 20.81469861066234 6.2149263668758801 0 0.71933980857756763 0.69465836192734942 0.5 0 0 1 I I #
point $-1 -29.006626025528256 22.154457204304475 7.5087161709990005 #
edge $-1 $714 1 $714 0 $412 $-1 forward 7 unknown #
vertex $-1 $413 $715 #
ellipse-curve $-1 -26.623272175101555 20.81469861066234 6.2149263668758801 0 0.71933980857756763 0.69465836192734942 0.5 0 0 1 I I #
point $-1 -26.123272175101555 22.154457204304475 7.5087161709990005 #
edge $-1 $716 1 $716 0 $416 $-1 forward 7 unknown #
vertex $-1 $417 $717 #
ellipse-curve $-1 -23.739918324674854 20.81469861066234 6.2149263668758801 0 0.71933980857756763 0.69465836192734942 0.5 0 0 1 I I #
point $-1 -23.239918324674854 22.154457204304475 7.5087161709990005 #
loop $-1 $-1 $428 $420 #
plane-surface $-1 0 25.637225057505201 0 0 -1 0 0 0 -1 forward_v I I I I #
coedge $-1 $582 $423 $425 $586 reversed $274 $-1 #
coedge $-1 $423 $581 $718 $719 reversed $274 $-1 #
coedge $-1 $431 $426 $423 $584 forward $421 $-1 #
edge $-1 $587 -7.7264654123738232 $720 -0.76092970597232679 $583 $721 forward 7 unknown #
coedge $-1 $425 $424 $590 $722 reversed $172 $-1 #
edge $-1 $723 -51.27445011501041 $587 -41.247167513710664 $581 $724 forward 7 unknown #
vertex $-1 $427 $725 #
straight-curve $-1 -4.4372120291835913 18.671689351103694 11.115227944485056 1 0 0 I I #
coedge $-1 $718 $428 $431 $594 reversed $579 $-1 #
coedge $-1 $428 $718 $585 $722 forward $579 $-1 #
vertex $-1 $429 $726 #
straight-curve $-1 -13.680013809078348 25.637225057505201 50.704649832038577 0 0 1 I I #
straight-curve $-1 -13.680013809078348 -9.9810004681135283 40.785957528164552 0 0.69465836192734942 -0.71933980857756763 I I #
edge $-1 $720 4.0688343076560169 $432 13.680013809078348 $589 $727 forward 7 unknown #
point $-1 -13.680013809078348 25.637225057505201 11.115227944485058 #
point $-1 -13.680013809078348 18.671689351103705 11.115227944485056 #
edge $-1 $728 1 $728 0 $435 $-1 forward 7 unknown #
vertex $-1 $436 $729 #
ellipse-curve $-1 -11.757777908793884 20.81469861066234 6.2149263668758801 0 0.71933980857756763 0.69465836192734942 0.5 0 0 1 I I #
point $-1 -11.257777908793884 22.154457204304475 7.5087161709990005 #
edge $-1 $730 1 $730 0 $439 $-1 forward 7 unknown #
vertex $-1 $440 $731 #
ellipse-curve $-1 -8.8744240583671825 20.81469861066234 6.2149263668758801 0 0.71933980857756763 0.69465836192734942 0.5 0 0 1 I I #
point $-1 -8.3744240583671825 22.154457204304475 7.5087161709990005 #
edge $-1 $732 1 $732 0 $443 $-1 forward 7 unknown #
vertex $-1 $444 $733 #
ellipse-curve $-1 -5.9910702079404814 20.81469861066234 6.2149263668758801 0 0.71933980857756763 0.69465836192734942 0.5 0 0 1 I I #
point $-1 -5.4910702079404814 22.154457204304475 7.5087161709990005 #
loop $-1 $-1 $455 $447 #
plane-surface $-1 0 25.637225057505201 0 0 -1 0 0 0 -1 forward_v I I I I #
coedge $-1 $612 $450 $452 $616 reversed $303 $-1 #
coedge $-1 $450 $611 $734 $735 reversed $303 $-1 #
coedge $-1 $458 $453 $450 $614 forward $448 $-1 #
edge $-1 $617 -7.7264654123738232 $736 -0.76092970597232679 $613 $737 forward 7 unknown #
coedge $-1 $452 $451 $620 $738 reversed $191 $-1 #
edge $-1 $739 -51.27445011501041 $617 -41.247167513710664 $611 $740 forward 7 unknown #
vertex $-1 $454 $741 #
straight-curve $-1 4.4372120291835948 18.671689351103694 11.115227944485056 1 0 0 I I #
coedge $-1 $734 $455 $458 $624 reversed $609 $-1 #
coedge $-1 $455 $734 $615 $738 forward $609 $-1 #
vertex $-1 $456 $742 #
straight-curve $-1 4.0688343076560241 25.637225057505201 50.704649832038577 0 0 1 I I #
straight-curve $-1 4.0688343076560241 -9.9810004681135283 40.785957528164552 0 0.69465836192734942 -0.71933980857756763 I I #
edge $-1 $736 -13.680013809078355 $459 -4.0688343076560241 $619 $743 forward 7 unknown #
point $-1 4.0688343076560241 25.637225057505201 11.115227944485058 #
point $-1 4.0688343076560241 18.671689351103705 11.115227944485056 #
edge $-1 $744 1 $744 0 $462 $-1 forward 7 unknown #
vertex $-1 $463 $745 #
ellipse-curve $-1 5.9910702079404885 20.81469861066234 6.2149263668758801 0 0.71933980857756763 0.69465836192734942 0.5 0 0 1 I I #
point $-1 6.4910702079404885 22.154457204304475 7.5087161709990005 #
edge $-1 $746 1 $746 0 $466 $-1 forward 7 unknown #
vertex $-1 $467 $747 #
ellipse-curve $-1 8.8744240583671896 20.81469861066234 6.2149263668758801 0 0.71933980857756763 0.69465836192734942 0.5 0 0 1 I I #
point $-1 9.3744240583671896 22.154457204304475 7.5087161709990005 #
edge $-1 $748 1 $748 0 $470 $-1 forward 7 unknown #
vertex $-1 $471 $749 #
ellipse-curve $-1 11.757777908793891 20.81469861066234 6.2149263668758801 0 0.71933980857756763 0.69465836192734942 0.5 0 0 1 I I #
point $-1 12.257777908793891 22.154457204304475 7.5087161709990005 #
loop $-1 $-1 $482 $474 #
plane-surface $-1 0 25.637225057505201 0 0 -1 0 0 0 -1 forward_v I I I I #
coedge $-1 $642 $477 $479 $646 reversed $332 $-1 #
coedge $-1 $477 $641 $750 $751 reversed $332 $-1 #
coedge $-1 $485 $480 $477 $644 forward $475 $-1 #
edge $-1 $647 -7.7264654123738232 $752 -0.76092970597232679 $643 $753 forward 7 unknown #
coedge $-1 $479 $478 $650 $754 reversed $210 $-1 #
edge $-1 $755 -51.27445011501041 $647 -41.247167513710664 $641 $756 forward 7 unknown #
vertex $-1 $481 $757 #
straight-curve $-1 13.311636087550781 18.671689351103694 11.115227944485056 1 0 0 I I #
coedge $-1 $750 $482 $485 $654 reversed $639 $-1 #
coedge $-1 $482 $750 $645 $754 forward $639 $-1 #
vertex $-1 $483 $758 #
straight-curve $-1 21.817682424390398 25.637225057505201 50.704649832038577 0 0 1 I I #
straight-curve $-1 21.817682424390398 -9.9810004681135283 40.785957528164552 0 0.69465836192734942 -0.71933980857756763 I I #
edge $-1 $752 -31.428861925812726 $486 -21.817682424390398 $649 $759 forward 7 unknown #
point $-1 21.817682424390398 25.637225057505201 11.115227944485058 #
point $-1 21.817682424390398 18.671689351103705 11.115227944485056 #
edge $-1 $760 1 $760 0 $489 $-1 forward 7 unknown #
vertex $-1 $490 $761 #
ellipse-curve $-1 23.739918324674861 20.81469861066234 6.2149263668758801 0 0.71933980857756763 0.69465836192734942 0.5 0 0 1 I I #
point $-1 24.239918324674861 22.154457204304475 7.5087161709990005 #
edge $-1 $762 1 $762 0 $493 $-1 forward 7 unknown #
vertex $-1 $494 $763 #
ellipse-curve $-1 26.623272175101562 20.81469861066234 6.2149263668758801 0 0.71933980857756763 0.69465836192734942 0.5 0 0 1 I I #
point $-1 27.123272175101562 22.154457204304475 7.5087161709990005 #
edge $-1 $764 1 $764 0 $497 $-1 forward 7 unknown #
vertex $-1 $498 $765 #
ellipse-curve $-1 29.506626025528263 20.81469861066234 6.2149263668758801 0 0.71933980857756763 0.69465836192734942 0.5 0 0 1 I I #
point $-1 30.006626025528263 22.154457204304475 7.5087161709990005 #
plane-surface $-1 43.635364848780782 0 0 -1 0 0 0 0 1 forward_v I I I I #
coedge $-1 $506 $504 $508 $674 reversed $361 $-1 #
edge $-1 $519 -11.115227944485058 $676 11.115227944485058 $518 $766 forward 7 unknown #
vertex $-1 $674 $767 #
straight-curve $-1 -43.635364848780782 -25.637225057505201 0 0 0 -1 I I #
edge $-1 $672 -25.637225057505201 $676 25.637225057505201 $670 $768 forward 7 unknown #
straight-curve $-1 0 -25.637225057505201 -11.115227944485058 -1 0 0 I I #
vertex $-1 $511 $769 #
straight-curve $-1 0 25.637225057505201 -11.115227944485058 1 0 0 I I #
point $-1 43.635364848780782 25.637225057505201 -11.115227944485058 #
point $-1 43.635364848780782 -25.637225057505201 -11.115227944485058 #
straight-curve $-1 -43.635364848780782 0 11.115227944485058 0 -1 0 I I #
point $-1 -43.635364848780782 25.637225057505201 11.115227944485058 #
point $-1 -43.635364848780782 -25.637225057505201 11.115227944485058 #
straight-curve $-1 43.635364848780782 -25.637225057505201 0 0 0 -1 I I #
straight-curve $-1 43.635364848780782 25.637225057505201 0 0 0 -1 I I #
plane-surface $-1 43.635364848780782 0 0 -1 0 0 0 0 1 forward_v I I I I #
coedge $-1 $770 $689 $535 $694 forward $529 $-1 #
coedge $-1 $536 $531 $770 $771 forward $380 $-1 #
edge $-1 $545 -5.8819152576664813 $772 5.8819152576664777 $543 $773 forward 7 unknown #
coedge $-1 $686 $774 $532 $690 reversed $529 $-1 #
edge $-1 $697 -43.635364848780782 $692 43.635364848780782 $689 $775 forward 7 unknown #
coedge $-1 $543 $533 $774 $776 forward $544 $-1 #
vertex $-1 $534 $777 #
straight-curve $-1 43.635364848780782 -31.519140315171683 8.4372209126122755 0 1 0 I I #
edge $-1 $697 -1.7701527140936424 $695 1.7701527140936424 $535 $778 forward 7 unknown #
vertex $-1 $537 $779 #
straight-curve $-1 -43.635364848780782 -31.519140315171683 4.8969154844249907 0 1 0 I I #
vertex $-1 $538 $780 #
straight-curve $-1 -43.635364848780782 -31.519140315171683 8.4372209126122755 0 -1 0 I I #
point $-1 -43.635364848780782 -25.637225057505201 4.8969154844249907 #
straight-curve $-1 0 -25.637225057505201 4.8969154844249907 -1 0 0 I I #
point $-1 43.635364848780782 -25.637225057505201 4.8969154844249907 #
coedge $-1 $560 $559 $552 $703 forward $549 $-1 #
edge $-1 $704 39.58942188755352 $707 46.802445434525652 $702 $781 forward 7 unknown #
vertex $-1 $564 $782 #
straight-curve $-1 -21.817682424390391 26.398154763477528 11.115227944485056 0 1 0 I I #
edge $-1 $707 8.5060463368396135 $561 18.117225838261941 $560 $783 forward 7 unknown #
vertex $-1 $706 $784 #
straight-curve $-1 -21.817682424390391 -9.9810004681135283 40.785957528164552 0 -0.69465836192734942 0.71933980857756763 I I #
point $-1 -21.817682424390391 18.671689351103705 11.115227944485056 #
point $-1 -31.428861925812718 25.637225057505198 3.902204397512925 #
straight-curve $-1 0 25.637225057505201 11.115227944485058 -1 0 0 I I #
vertex $-1 $567 $785 #
point $-1 -29.006626025528256 20.81469861066234 6.2149263668758801 #
vertex $-1 $571 $786 #
point $-1 -26.123272175101555 20.81469861066234 6.2149263668758801 #
vertex $-1 $575 $787 #
point $-1 -23.239918324674854 20.81469861066234 6.2149263668758801 #
coedge $-1 $590 $589 $582 $719 forward $579 $-1 #
edge $-1 $720 39.58942188755352 $723 46.802445434525652 $718 $788 forward 7 unknown #
vertex $-1 $594 $789 #
straight-curve $-1 -4.0688343076560169 26.398154763477528 11.115227944485056 0 1 0 I I #
edge $-1 $723 -0.36837772152757431 $591 9.2428017798947568 $590 $790 forward 7 unknown #
vertex $-1 $722 $791 #
straight-curve $-1 -4.0688343076560169 -9.9810004681135283 40.785957528164552 0 -0.69465836192734942 0.71933980857756763 I I #
point $-1 -4.0688343076560169 18.671689351103705 11.115227944485056 #
point $-1 -13.680013809078348 25.637225057505198 3.902204397512925 #
straight-curve $-1 0 25.637225057505201 11.115227944485058 -1 0 0 I I #
vertex $-1 $597 $792 #
point $-1 -11.257777908793884 20.81469861066234 6.2149263668758801 #
vertex $-1 $601 $793 #
point $-1 -8.3744240583671825 20.81469861066234 6.2149263668758801 #
vertex $-1 $605 $794 #
point $-1 -5.4910702079404814 20.81469861066234 6.2149263668758801 #
coedge $-1 $620 $619 $612 $735 forward $609 $-1 #
edge $-1 $736 39.58942188755352 $739 46.802445434525652 $734 $795 forward 7 unknown #
vertex $-1 $624 $796 #
straight-curve $-1 13.680013809078355 26.398154763477528 11.115227944485056 0 1 0 I I #
edge $-1 $739 -9.2428017798947604 $621 0.36837772152757076 $620 $797 forward 7 unknown #
vertex $-1 $738 $798 #
straight-curve $-1 13.680013809078355 -9.9810004681135283 40.785957528164552 0 -0.69465836192734942 0.71933980857756763 I I #
point $-1 13.680013809078355 18.671689351103705 11.115227944485056 #
point $-1 4.0688343076560241 25.637225057505198 3.902204397512925 #
straight-curve $-1 0 25.637225057505201 11.115227944485058 -1 0 0 I I #
vertex $-1 $627 $799 #
point $-1 6.4910702079404885 20.81469861066234 6.2149263668758801 #
vertex $-1 $631 $800 #
point $-1 9.3744240583671896 20.81469861066234 6.2149263668758801 #
vertex $-1 $635 $801 #
point $-1 12.257777908793891 20.81469861066234 6.2149263668758801 #
coedge $-1 $650 $649 $642 $751 forward $639 $-1 #
edge $-1 $752 39.58942188755352 $755 46.802445434525652 $750 $802 forward 7 unknown #
vertex $-1 $654 $803 #
straight-curve $-1 31.428861925812726 26.398154763477528 11.115227944485056 0 1 0 I I #
edge $-1 $755 -18.117225838261945 $651 -8.5060463368396171 $650 $804 forward 7 unknown #
vertex $-1 $754 $805 #
straight-curve $-1 31.428861925812726 -9.9810004681135283 40.785957528164552 0 -0.69465836192734942 0.71933980857756763 I I #
point $-1 31.428861925812726 18.671689351103705 11.115227944485056 #
point $-1 21.817682424390398 25.637225057505198 3.902204397512925 #
straight-curve $-1 0 25.637225057505201 11.115227944485058 -1 0 0 I I #
vertex $-1 $657 $806 #
point $-1 24.239918324674861 20.81469861066234 6.2149263668758801 #
vertex $-1 $661 $807 #
point $-1 27.123272175101562 20.81469861066234 6.2149263668758801 #
vertex $-1 $665 $808 #
point $-1 30.006626025528263 20.81469861066234 6.2149263668758801 #
straight-curve $-1 -43.635364848780782 25.637225057505201 0 0 0 -1 I I #
point $-1 -43.635364848780782 -25.637225057505201 -11.115227944485058 #
straight-curve $-1 -43.635364848780782 0 -11.115227944485058 0 1 0 I I #
point $-1 -43.635364848780782 25.637225057505201 -11.115227944485058 #
coedge $-1 $774 $686 $687 $771 reversed $529 $-1 #
edge $-1 $772 -43.635364848780782 $695 43.635364848780782 $770 $809 forward 7 unknown #
vertex $-1 $776 $810 #
straight-curve $-1 43.635364848780782 -31.519140315171683 4.8969154844249907 0 -1 0 I I #
coedge $-1 $689 $770 $691 $776 reversed $529 $-1 #
straight-curve $-1 0 -37.40105557283816 8.4372209126122755 1 0 0 I I #
edge $-1 $692 -1.7701527140936424 $772 1.7701527140936424 $691 $811 forward 7 unknown #
point $-1 43.635364848780782 -37.40105557283816 8.4372209126122755 #
straight-curve $-1 -43.635364848780782 -37.40105557283816 6.6670681985186331 0 0 -1 I I #
point $-1 -43.635364848780782 -37.40105557283816 4.8969154844249907 #
point $-1 -43.635364848780782 -37.40105557283816 8.4372209126122755 #
straight-curve $-1 -21.817682424390391 25.637225057505201 50.704649832038577 0 0 -1 I I #
point $-1 -21.817682424390391 25.637225057505201 11.115227944485058 #
straight-curve $-1 -13.311636087550777 25.637225057505201 3.9022043975129179 -1 0 0 I I #
point $-1 -21.817682424390391 25.637225057505198 3.902204397512925 #
point $-1 -29.506626025528256 20.455028706373554 5.8675971859122056 #
point $-1 -26.623272175101555 20.455028706373554 5.8675971859122056 #
point $-1 -23.739918324674854 20.455028706373554 5.8675971859122056 #
straight-curve $-1 -4.0688343076560169 25.637225057505201 50.704649832038577 0 0 -1 I I #
point $-1 -4.0688343076560169 25.637225057505201 11.115227944485058 #
straight-curve $-1 -4.4372120291835913 25.637225057505201 3.9022043975129179 -1 0 0 I I #
point $-1 -4.0688343076560169 25.637225057505198 3.902204397512925 #
point $-1 -11.757777908793884 20.455028706373554 5.8675971859122056 #
point $-1 -8.8744240583671825 20.455028706373554 5.8675971859122056 #
point $-1 -5.9910702079404814 20.455028706373554 5.8675971859122056 #
straight-curve $-1 13.680013809078355 25.637225057505201 50.704649832038577 0 0 -1 I I #
point $-1 13.680013809078355 25.637225057505201 11.115227944485058 #
straight-curve $-1 4.4372120291835948 25.637225057505201 3.9022043975129179 -1 0 0 I I #
point $-1 13.680013809078355 25.637225057505198 3.902204397512925 #
point $-1 5.9910702079404885 20.455028706373554 5.8675971859122056 #
point $-1 8.8744240583671896 20.455028706373554 5.8675971859122056 #
point $-1 11.757777908793891 20.455028706373554 5.8675971859122056 #
straight-curve $-1 31.428861925812726 25.637225057505201 50.704649832038577 0 0 -1 I I #
point $-1 31.428861925812726 25.637225057505201 11.115227944485058 #
straight-curve $-1 13.311636087550781 25.637225057505201 3.9022043975129179 -1 0 0 I I #
point $-1 31.428861925812726 25.637225057505198 3.902204397512925 #
point $-1 23.739918324674861 20.455028706373554 5.8675971859122056 #
point $-1 26.623272175101562 20.455028706373554 5.8675971859122056 #
point $-1 29.506626025528263 20.455028706373554 5.8675971859122056 #
straight-curve $-1 0 -37.40105557283816 4.8969154844249907 -1 0 0 I I #
point $-1 43.635364848780782 -37.40105557283816 4.8969154844249907 #
straight-curve $-1 43.635364848780782 -37.40105557283816 6.6670681985186331 0 0 -1 I I #
End-of-ACIS-data 