500 0 7 0           
7 Unknown 11 ACIS 5.0 NT 24 Thu Mar 25 15:20:48 1999 
-1 9.9999999999999995e-007 1e-010 
body $-1 $7 $-1 $8 #
body $-1 $9 $-1 $10 #
body $-1 $11 $-1 $12 #
body $-1 $13 $-1 $14 #
body $-1 $15 $-1 $16 #
body $-1 $17 $-1 $18 #
body $-1 $19 $-1 $20 #
lump $-1 $-1 $21 $0 #
transform $-1 1 0 0 0 1 0 0 0 1 59.111911374248479 32.232561507186269 10.448162138506065 1 rotate no_reflect no_shear #
lump $-1 $-1 $22 $1 #
transform $-1 1 0 0 0 1 0 0 0 1 59.111911374248479 32.232561507186269 10.448162138506065 1 rotate no_reflect no_shear #
lump $-1 $-1 $23 $2 #
transform $-1 1 0 0 0 1 0 0 0 1 59.111911374248479 32.232561507186269 10.448162138506065 1 rotate no_reflect no_shear #
lump $-1 $-1 $24 $3 #
transform $-1 1 0 0 0 1 0 0 0 1 59.111911374248479 32.232561507186269 10.448162138506065 1 rotate no_reflect no_shear #
lump $-1 $-1 $25 $4 #
transform $-1 1 0 0 0 1 0 0 0 1 59.111911374248479 32.232561507186269 10.448162138506065 1 rotate no_reflect no_shear #
lump $-1 $-1 $26 $5 #
transform $-1 1 0 0 0 1 0 0 0 1 59.111911374248479 32.232561507186269 10.448162138506065 1 rotate no_reflect no_shear #
lump $-1 $-1 $27 $6 #
transform $-1 1 0 0 0 1 0 0 0 1 59.111911374248479 32.232561507186269 10.448162138506065 1 rotate no_reflect no_shear #
shell $-1 $-1 $-1 $28 $-1 $7 #
shell $-1 $-1 $-1 $29 $-1 $9 #
shell $-1 $-1 $-1 $30 $-1 $11 #
shell $-1 $-1 $-1 $31 $-1 $13 #
shell $-1 $-1 $-1 $32 $-1 $15 #
shell $-1 $-1 $-1 $33 $-1 $17 #
shell $-1 $-1 $-1 $34 $-1 $19 #
face $-1 $35 $36 $21 $-1 $37 forward single #
face $-1 $38 $39 $22 $-1 $40 reversed single #
face $-1 $41 $42 $23 $-1 $43 reversed single #
face $-1 $44 $45 $24 $-1 $46 forward single #
face $-1 $47 $48 $25 $-1 $49 forward single #
face $-1 $50 $51 $26 $-1 $52 reversed single #
face $-1 $53 $54 $27 $-1 $55 forward single #
face $-1 $56 $57 $21 $-1 $58 reversed single #
loop $-1 $-1 $59 $28 #
plane-surface $-1 0 0 10.448162138506065 0 0 1 1 0 0 forward_v I I I I #
face $-1 $60 $61 $22 $-1 $62 reversed single #
loop $-1 $-1 $63 $29 #
plane-surface $-1 0 -27.068244805425536 6.1935819995221344 0 0 1 1 0 0 forward_v I I I I #
face $-1 $64 $65 $23 $-1 $66 reversed single #
loop $-1 $-1 $67 $30 #
plane-surface $-1 -145.57534273800383 18.331902421465536 85.829686540272277 0 1 0 -0.73135370988377701 0 0.68199835119979291 forward_v I I I I #
face $-1 $68 $69 $24 $-1 $70 forward single #
loop $-1 $71 $72 $31 #
cone-surface $-1 -56.186151211484763 22.303519303100032 7.3777059490492043 0.73135370988377701 0 -0.68199835119979291 0.68199835119979291 0 0.73135370988377701 1 I I 0 1 1 forward I I I I #
face $-1 $73 $74 $25 $-1 $75 forward single #
loop $-1 $76 $77 $32 #
cone-surface $-1 -56.186151211484763 28.260944625551772 7.3777059490492043 0.73135370988377701 0 -0.68199835119979291 0.68199835119979291 0 0.73135370988377701 1 I I 0 1 1 forward I I I I #
face $-1 $78 $79 $26 $-1 $80 reversed single #
loop $-1 $-1 $81 $33 #
plane-surface $-1 53.276936074889079 -9.4390705860362019 170.43215721213465 0 -1 0 -0.68199836817093118 0 -0.7313536940579346 forward_v I I I I #
face $-1 $82 $83 $27 $-1 $84 forward single #
loop $-1 $85 $86 $34 #
cone-surface $-1 53.532425552488121 -15.671499344850503 4.9978976308361318 -0.68199836817093118 0 -0.7313536940579346 1.8283842351448365 0 -1.7049959204273279 1 I I 0 1 2.5 forward I I I I #
face $-1 $87 $88 $21 $-1 $89 reversed single #
loop $-1 $-1 $90 $35 #
plane-surface $-1 0 0 -10.448162138506065 0 0 1 1 0 0 forward_v I I I I #
coedge $-1 $91 $92 $93 $94 forward $36 $-1 #
face $-1 $95 $96 $22 $-1 $97 reversed single #
loop $-1 $-1 $98 $38 #
plane-surface $-1 0 -21.903928103664803 8.3208720690140989 0 -1 0 0 0 -1 forward_v I I I I #
coedge $-1 $99 $100 $101 $102 reversed $39 $-1 #
face $-1 $103 $104 $23 $-1 $105 forward single #
loop $-1 $-1 $106 $41 #
plane-surface $-1 -59.111911374248507 25.282231964325902 5.2012343532607872 -0.73135370988377701 0 0.68199835119979291 0.68199835119979291 0 0.73135370988377701 forward_v I I I I #
coedge $-1 $107 $108 $109 $110 reversed $42 $-1 #
face $-1 $-1 $111 $24 $-1 $112 forward single #
loop $-1 $113 $114 $44 #
cone-surface $-1 -55.341133792149918 22.303519303100032 6.5897144766150912 0.73135370988377701 0 -0.68199835119979291 0.34099917559989645 0 0.36567685494188851 1 I I -0.70710678118654746 0.70710678118654746 0.5 forward I I I I #
loop $-1 $-1 $115 $31 #
coedge $-1 $72 $72 $116 $117 reversed $45 $-1 #
face $-1 $-1 $118 $25 $-1 $119 forward single #
loop $-1 $120 $121 $47 #
cone-surface $-1 -55.341133792149918 28.260944625551772 6.5897144766150912 0.73135370988377701 0 -0.68199835119979291 0.34099917559989645 0 0.36567685494188851 1 I I -0.70710678118654746 0.70710678118654746 0.5 forward I I I I #
loop $-1 $-1 $122 $32 #
coedge $-1 $77 $77 $123 $124 reversed $48 $-1 #
face $-1 $125 $126 $26 $-1 $127 forward single #
loop $-1 $-1 $128 $50 #
plane-surface $-1 -27.351518118515258 -15.671499344850503 83.968727719370918 0.68199836817093118 0 0.7313536940579346 0.7313536940579346 0 -0.68199836817093118 forward_v I I I I #
coedge $-1 $129 $130 $131 $132 reversed $51 $-1 #
face $-1 $-1 $133 $27 $-1 $134 forward single #
loop $-1 $135 $136 $53 #
cone-surface $-1 50.911580357014515 -15.671499344850503 2.1873853118635349 -0.68199836817093118 0 -0.7313536940579346 0.91419211757241825 0 -0.85249796021366397 1 I I -0.70710678118654746 0.70710678118654768 1.25 forward I I I I #
loop $-1 $-1 $137 $34 #
coedge $-1 $86 $86 $138 $139 reversed $54 $-1 #
face $-1 $140 $141 $21 $-1 $142 reversed single #
loop $-1 $-1 $143 $56 #
plane-surface $-1 0 -32.232561507186269 0 0 1 0 0 0 1 forward_v I I I I #
coedge $-1 $144 $145 $146 $147 forward $57 $-1 #
coedge $-1 $148 $59 $149 $150 forward $36 $-1 #
coedge $-1 $59 $148 $151 $152 forward $36 $-1 #
coedge $-1 $153 $154 $59 $94 reversed $155 $-1 #
edge $-1 $156 -32.232561507186269 $157 32.232561507186269 $93 $158 forward 7 unknown #
face $-1 $159 $160 $22 $-1 $161 reversed single #
loop $-1 $-1 $162 $60 #
plane-surface $-1 -59.111911374248479 0 0 1 0 0 0 0 -1 forward_v I I I I #
coedge $-1 $163 $164 $100 $165 reversed $61 $-1 #
coedge $-1 $166 $63 $167 $168 reversed $39 $-1 #
coedge $-1 $63 $166 $98 $165 forward $39 $-1 #
coedge $-1 $169 $170 $63 $102 forward $171 $-1 #
edge $-1 $172 -18.698439104473501 $173 -8.3698057009520355 $101 $174 forward 7 unknown #
face $-1 $175 $176 $23 $-1 $177 reversed single #
loop $-1 $-1 $109 $64 #
plane-surface $-1 0 0 10.448162138506065 0 0 1 1 0 0 forward_v I I I I #
coedge $-1 $178 $179 $180 $181 reversed $65 $-1 #
coedge $-1 $108 $67 $182 $183 reversed $42 $-1 #
coedge $-1 $67 $107 $178 $184 reversed $42 $-1 #
coedge $-1 $180 $185 $67 $110 forward $104 $-1 #
edge $-1 $186 13.675759994753435 $187 18.568599191494911 $109 $188 forward 7 unknown #
loop $-1 $-1 $116 $68 #
plane-surface $-1 -59.111911374248507 25.282231964325902 5.2012343532607872 -0.73135370988377701 0 0.68199835119979291 0.68199835119979291 0 0.73135370988377701 forward_v I I I I #
loop $-1 $-1 $189 $44 #
coedge $-1 $114 $114 $115 $190 reversed $69 $-1 #
coedge $-1 $115 $115 $114 $190 forward $71 $-1 #
coedge $-1 $116 $116 $72 $117 forward $111 $-1 #
edge $-1 $191 0 $191 6.2831853071796004 $116 $192 forward 7 unknown #
loop $-1 $-1 $123 $73 #
plane-surface $-1 -59.111911374248507 25.282231964325902 5.2012343532607872 -0.73135370988377701 0 0.68199835119979291 0.68199835119979291 0 0.73135370988377701 forward_v I I I I #
loop $-1 $-1 $193 $47 #
coedge $-1 $121 $121 $122 $194 reversed $74 $-1 #
coedge $-1 $122 $122 $121 $194 forward $76 $-1 #
coedge $-1 $123 $123 $77 $124 forward $118 $-1 #
edge $-1 $195 0 $195 6.2831853071796004 $123 $196 forward 7 unknown #
face $-1 $197 $198 $26 $-1 $199 forward single #
loop $-1 $-1 $200 $78 #
plane-surface $-1 0 -21.903928103664803 8.3208720690140989 0 -1 0 0 0 -1 forward_v I I I I #
coedge $-1 $201 $202 $203 $204 reversed $79 $-1 #
coedge $-1 $130 $81 $205 $206 reversed $51 $-1 #
coedge $-1 $81 $129 $201 $207 reversed $51 $-1 #
coedge $-1 $203 $208 $81 $132 forward $198 $-1 #
edge $-1 $209 -32.473443336803939 $210 -24.851166163803143 $131 $211 forward 7 unknown #
loop $-1 $-1 $138 $82 #
plane-surface $-1 -27.351518118515258 -15.671499344850503 83.968727719370918 0.68199836817093118 0 0.7313536940579346 0.7313536940579346 0 -0.68199836817093118 forward_v I I I I #
loop $-1 $-1 $212 $53 #
coedge $-1 $136 $136 $137 $213 reversed $83 $-1 #
coedge $-1 $137 $137 $136 $213 forward $85 $-1 #
coedge $-1 $138 $138 $86 $139 forward $133 $-1 #
edge $-1 $214 0 $214 6.2831853071796004 $138 $215 forward 7 unknown #
face $-1 $216 $217 $21 $-1 $218 reversed single #
loop $-1 $-1 $219 $87 #
plane-surface $-1 -59.111911374248479 0 0 1 0 0 0 0 -1 forward_v I I I I #
coedge $-1 $220 $151 $221 $222 forward $88 $-1 #
coedge $-1 $223 $90 $220 $224 forward $57 $-1 #
coedge $-1 $90 $223 $225 $226 forward $57 $-1 #
coedge $-1 $154 $153 $90 $147 reversed $155 $-1 #
edge $-1 $227 -32.232561507186269 $228 32.232561507186269 $146 $229 forward 7 unknown #
coedge $-1 $92 $91 $230 $231 forward $36 $-1 #
coedge $-1 $232 $233 $91 $150 reversed $217 $-1 #
edge $-1 $157 -59.111911374248479 $234 59.111911374248479 $149 $235 forward 7 unknown #
coedge $-1 $143 $236 $92 $152 reversed $88 $-1 #
edge $-1 $237 -59.111911374248479 $156 59.111911374248479 $151 $238 forward 7 unknown #
coedge $-1 $146 $93 $236 $239 forward $155 $-1 #
coedge $-1 $93 $146 $232 $240 reversed $155 $-1 #
loop $-1 $-1 $153 $216 #
vertex $-1 $94 $241 #
vertex $-1 $94 $242 #
straight-curve $-1 59.111911374248479 0 10.448162138506065 0 1 0 I I #
face $-1 $243 $244 $22 $-1 $245 forward single #
loop $-1 $-1 $167 $95 #
plane-surface $-1 0 -32.232561507186269 0 0 1 0 0 0 1 forward_v I I I I #
coedge $-1 $246 $247 $163 $248 forward $96 $-1 #
coedge $-1 $249 $98 $162 $248 reversed $61 $-1 #
coedge $-1 $98 $249 $169 $250 reversed $61 $-1 #
edge $-1 $251 -59.111911374248479 $173 59.111911374248479 $98 $252 forward 7 unknown #
coedge $-1 $100 $99 $246 $253 reversed $39 $-1 #
coedge $-1 $254 $255 $99 $168 forward $160 $-1 #
edge $-1 $256 -59.111911374248479 $172 59.111911374248479 $167 $257 forward 7 unknown #
coedge $-1 $258 $101 $164 $250 forward $171 $-1 #
coedge $-1 $101 $258 $254 $259 forward $171 $-1 #
loop $-1 $-1 $169 $243 #
vertex $-1 $168 $260 #
vertex $-1 $102 $261 #
straight-curve $-1 59.111911374248479 -13.534122402712768 6.1935819995221344 0 1 0 I I #
face $-1 $-1 $262 $23 $-1 $263 reversed single #
loop $-1 $-1 $264 $103 #
plane-surface $-1 0 32.232561507186269 0 0 -1 0 0 0 -1 forward_v I I I I #
coedge $-1 $265 $106 $108 $184 forward $65 $-1 #
coedge $-1 $106 $265 $264 $266 reversed $65 $-1 #
coedge $-1 $267 $109 $106 $181 forward $104 $-1 #
edge $-1 $187 5.6907864393025847 $268 19.591445525023317 $180 $269 forward 7 unknown #
coedge $-1 $270 $271 $107 $183 forward $262 $-1 #
edge $-1 $272 -37.713608916875323 $186 -32.466681131630075 $182 $273 forward 7 unknown #
edge $-1 $187 -7.1742683660948288 $272 -4.1469026767552634e-014 $108 $274 forward 7 unknown #
coedge $-1 $109 $267 $270 $275 forward $104 $-1 #
vertex $-1 $183 $276 #
vertex $-1 $110 $277 #
straight-curve $-1 -72.787671369001913 18.331902421465536 10.448162138506063 1 0 0 I I #
coedge $-1 $189 $189 $-1 $278 reversed $113 $-1 #
edge $-1 $279 0 $279 6.2831853071796004 $114 $280 forward 7 unknown #
vertex $-1 $117 $281 #
ellipse-curve $-1 -56.66549177587774 22.303519303100032 7.8246982458834404 -0.73135370988377701 0 0.68199835119979291 0.68199835119979291 0 0.73135370988377701 1 I I #
coedge $-1 $193 $193 $-1 $282 reversed $120 $-1 #
edge $-1 $283 0 $283 6.2831853071796004 $121 $284 forward 7 unknown #
vertex $-1 $124 $285 #
ellipse-curve $-1 -56.66549177587774 28.260944625551772 7.8246982458834404 -0.73135370988377701 0 0.68199835119979291 0.68199835119979291 0 0.73135370988377701 1 I I #
face $-1 $-1 $286 $26 $-1 $287 reversed single #
loop $-1 $-1 $203 $125 #
plane-surface $-1 0 0 10.448162138506065 0 0 1 1 0 0 forward_v I I I I #
coedge $-1 $288 $289 $202 $290 reversed $126 $-1 #
coedge $-1 $291 $128 $130 $207 forward $79 $-1 #
coedge $-1 $128 $291 $200 $290 forward $79 $-1 #
coedge $-1 $292 $131 $128 $204 forward $198 $-1 #
edge $-1 $210 1.6033209136109505 $293 14.068178431239552 $203 $294 forward 7 unknown #
coedge $-1 $295 $296 $129 $206 forward $286 $-1 #
edge $-1 $297 -81.875805080100747 $209 -74.767916467561264 $205 $298 forward 7 unknown #
edge $-1 $210 107.80167374599668 $297 118.22382274849696 $130 $299 forward 7 unknown #
coedge $-1 $131 $292 $295 $300 forward $198 $-1 #
vertex $-1 $206 $301 #
vertex $-1 $132 $302 #
straight-curve $-1 26.63846803744454 -9.4390705860362019 10.448162138506063 -1 0 0 I I #
coedge $-1 $212 $212 $-1 $303 reversed $135 $-1 #
edge $-1 $304 0 $304 6.2831853071796004 $136 $305 forward 7 unknown #
vertex $-1 $139 $306 #
ellipse-curve $-1 55.300772787748073 -15.671499344850503 6.8942178322363201 0.68199836817093118 0 0.7313536940579346 1.8283842351448365 0 -1.7049959204273279 1 I I #
face $-1 $-1 $155 $21 $-1 $307 reversed single #
loop $-1 $-1 $232 $140 #
plane-surface $-1 0 32.232561507186269 0 0 -1 0 0 0 -1 forward_v I I I I #
coedge $-1 $308 $230 $233 $309 forward $141 $-1 #
coedge $-1 $236 $143 $144 $224 reversed $88 $-1 #
coedge $-1 $230 $308 $143 $222 reversed $141 $-1 #
edge $-1 $237 -10.448162138506065 $310 10.448162138506065 $221 $311 forward 7 unknown #
coedge $-1 $145 $144 $308 $312 forward $57 $-1 #
edge $-1 $228 -59.111911374248479 $310 59.111911374248479 $220 $313 forward 7 unknown #
coedge $-1 $233 $232 $145 $226 reversed $217 $-1 #
edge $-1 $314 -59.111911374248479 $227 59.111911374248479 $225 $315 forward 7 unknown #
vertex $-1 $147 $316 #
vertex $-1 $239 $317 #
straight-curve $-1 59.111911374248479 0 -10.448162138506065 0 -1 0 I I #
coedge $-1 $219 $221 $148 $231 reversed $141 $-1 #
edge $-1 $234 -32.232561507186269 $237 32.232561507186269 $230 $318 forward 7 unknown #
coedge $-1 $225 $149 $154 $240 forward $217 $-1 #
coedge $-1 $149 $225 $219 $309 reversed $217 $-1 #
vertex $-1 $150 $319 #
straight-curve $-1 0 32.232561507186269 10.448162138506065 -1 0 0 I I #
coedge $-1 $151 $220 $153 $239 reversed $88 $-1 #
vertex $-1 $231 $320 #
straight-curve $-1 0 -32.232561507186269 10.448162138506065 1 0 0 I I #
edge $-1 $156 -10.448162138506065 $228 10.448162138506065 $153 $321 forward 7 unknown #
edge $-1 $157 -10.448162138506065 $227 10.448162138506065 $154 $322 forward 7 unknown #
point $-1 59.111911374248479 -32.232561507186269 10.448162138506065 #
point $-1 59.111911374248479 32.232561507186269 10.448162138506065 #
face $-1 $-1 $171 $22 $-1 $323 reversed single #
loop $-1 $-1 $324 $159 #
plane-surface $-1 0 0 10.448162138506065 0 0 1 1 0 0 forward_v I I I I #
coedge $-1 $325 $162 $166 $253 forward $96 $-1 #
coedge $-1 $162 $325 $326 $327 reversed $96 $-1 #
edge $-1 $328 -6.287726103999014 $251 -2.0331459650150849 $162 $329 forward 7 unknown #
coedge $-1 $164 $163 $324 $330 reversed $61 $-1 #
edge $-1 $173 2.0331459650150849 $331 6.287726103999014 $169 $332 forward 7 unknown #
vertex $-1 $253 $333 #
straight-curve $-1 0 -21.903928103664803 6.1935819995221344 1 0 0 I I #
edge $-1 $251 8.3698057009520355 $256 18.698439104473501 $246 $334 forward 7 unknown #
coedge $-1 $335 $167 $170 $259 reversed $160 $-1 #
coedge $-1 $167 $335 $325 $336 forward $160 $-1 #
vertex $-1 $168 $337 #
straight-curve $-1 0 -32.232561507186269 6.1935819995221344 1 0 0 I I #
coedge $-1 $170 $169 $338 $339 reversed $171 $-1 #
edge $-1 $340 -10.448162138506065 $172 -6.1935819995221344 $170 $341 forward 7 unknown #
point $-1 59.111911374248479 -32.232561507186269 6.1935819995221344 #
point $-1 59.111911374248479 -21.903928103664803 6.1935819995221344 #
loop $-1 $-1 $182 $175 #
plane-surface $-1 -59.111911374248479 0 0 1 0 0 0 0 -1 forward_v I I I I #
coedge $-1 $342 $343 $179 $266 forward $176 $-1 #
coedge $-1 $179 $178 $271 $344 reversed $65 $-1 #
edge $-1 $268 11.08087366054194 $345 18.255142026636726 $264 $346 forward 7 unknown #
coedge $-1 $185 $180 $343 $347 forward $104 $-1 #
vertex $-1 $347 $348 #
straight-curve $-1 -54.219072177507002 12.641115982162951 10.448162138506065 0 1 0 I I #
coedge $-1 $349 $182 $185 $275 reversed $262 $-1 #
coedge $-1 $182 $349 $265 $344 forward $262 $-1 #
vertex $-1 $183 $350 #
straight-curve $-1 -59.111911374248479 18.331902421465536 42.914843270136139 0 0 1 I I #
straight-curve $-1 -59.111911374248507 18.331902421465536 5.2012343532607872 -0.68199835119979291 0 -0.73135370988377701 I I #
edge $-1 $351 -32.232561507186269 $186 -18.331902421465536 $270 $352 forward 7 unknown #
point $-1 -59.111911374248479 18.331902421465536 10.448162138506065 #
point $-1 -54.219072177507002 18.331902421465536 10.448162138506065 #
edge $-1 $353 1 $353 0 $189 $-1 forward 7 unknown #
vertex $-1 $190 $354 #
ellipse-curve $-1 -55.706810647091807 22.303519303100032 6.9307136522149877 -0.73135370988377701 0 0.68199835119979291 0.68199835119979291 0 0.73135370988377701 1 I I #
point $-1 -55.983493424677924 22.303519303100032 8.556051955767197 #
edge $-1 $355 1 $355 0 $193 $-1 forward 7 unknown #
vertex $-1 $194 $356 #
ellipse-curve $-1 -55.706810647091807 28.260944625551772 6.9307136522149877 -0.73135370988377701 0 0.68199835119979291 0.68199835119979291 0 0.73135370988377701 1 I I #
point $-1 -55.983493424677924 28.260944625551772 8.556051955767197 #
loop $-1 $-1 $205 $197 #
plane-surface $-1 59.111911374248479 0 0 -1 0 0 0 0 1 forward_v I I I I #
coedge $-1 $289 $200 $357 $358 reversed $126 $-1 #
coedge $-1 $200 $288 $292 $359 reversed $126 $-1 #
edge $-1 $360 -118.22382274849696 $293 -107.80167374599668 $200 $361 forward 7 unknown #
coedge $-1 $202 $201 $296 $362 reversed $79 $-1 #
coedge $-1 $208 $203 $289 $359 forward $198 $-1 #
vertex $-1 $359 $363 #
straight-curve $-1 51.489634201247682 -7.8357496724252513 10.448162138506063 0 -1 0 I I #
coedge $-1 $357 $205 $208 $300 reversed $286 $-1 #
coedge $-1 $205 $357 $291 $362 forward $286 $-1 #
vertex $-1 $206 $364 #
straight-curve $-1 59.111911374248479 -9.4390705860362019 85.216078606067327 0 0 1 I I #
straight-curve $-1 -27.351518118515258 -9.4390705860362019 83.968727719370918 0.7313536940579346 0 -0.68199836817093118 I I #
edge $-1 $365 -21.903928103664803 $209 -9.4390705860362019 $295 $366 forward 7 unknown #
point $-1 59.111911374248479 -9.4390705860362019 10.448162138506065 #
point $-1 51.489634201247682 -9.4390705860362019 10.448162138506063 #
edge $-1 $367 1 $367 0 $212 $-1 forward 7 unknown #
vertex $-1 $213 $368 #
ellipse-curve $-1 51.764078317228176 -15.671499344850503 3.1015774294359533 0.68199836817093118 0 0.7313536940579346 1.8283842351448365 0 -1.7049959204273279 1 I I #
point $-1 57.129157022892898 -15.671499344850503 5.1892219118089837 #
plane-surface $-1 59.111911374248479 0 0 -1 0 0 0 0 1 forward_v I I I I #
coedge $-1 $221 $219 $223 $312 reversed $141 $-1 #
edge $-1 $234 -10.448162138506065 $314 10.448162138506065 $233 $369 forward 7 unknown #
vertex $-1 $312 $370 #
straight-curve $-1 -59.111911374248479 -32.232561507186269 0 0 0 -1 I I #
edge $-1 $310 -32.232561507186269 $314 32.232561507186269 $308 $371 forward 7 unknown #
straight-curve $-1 0 -32.232561507186269 -10.448162138506065 -1 0 0 I I #
vertex $-1 $226 $372 #
straight-curve $-1 0 32.232561507186269 -10.448162138506065 1 0 0 I I #
point $-1 59.111911374248479 32.232561507186269 -10.448162138506065 #
point $-1 59.111911374248479 -32.232561507186269 -10.448162138506065 #
straight-curve $-1 -59.111911374248479 0 10.448162138506065 0 -1 0 I I #
point $-1 -59.111911374248479 32.232561507186269 10.448162138506065 #
point $-1 -59.111911374248479 -32.232561507186269 10.448162138506065 #
straight-curve $-1 59.111911374248479 -32.232561507186269 0 0 0 -1 I I #
straight-curve $-1 59.111911374248479 32.232561507186269 0 0 0 -1 I I #
plane-surface $-1 59.111911374248479 0 0 -1 0 0 0 0 1 forward_v I I I I #
coedge $-1 $326 $338 $249 $330 forward $244 $-1 #
coedge $-1 $247 $246 $255 $336 reversed $96 $-1 #
coedge $-1 $373 $324 $247 $327 forward $244 $-1 #
edge $-1 $328 21.903928103664803 $374 32.232561507186269 $247 $375 forward 7 unknown #
vertex $-1 $327 $376 #
straight-curve $-1 -59.111911374248479 -21.903928103664803 4.1604360345070495 0 0 -1 I I #
edge $-1 $331 -59.111911374248479 $328 59.111911374248479 $324 $377 forward 7 unknown #
vertex $-1 $250 $378 #
straight-curve $-1 59.111911374248479 -21.903928103664803 4.1604360345070495 0 0 1 I I #
point $-1 -59.111911374248479 -21.903928103664803 6.1935819995221344 #
straight-curve $-1 -59.111911374248479 -13.534122402712768 6.1935819995221344 0 -1 0 I I #
coedge $-1 $255 $254 $373 $379 reversed $160 $-1 #
edge $-1 $374 -10.448162138506065 $256 -6.1935819995221344 $325 $380 forward 7 unknown #
point $-1 -59.111911374248479 -32.232561507186269 6.1935819995221344 #
coedge $-1 $324 $373 $258 $339 forward $244 $-1 #
edge $-1 $340 -32.232561507186269 $331 -21.903928103664803 $258 $381 forward 7 unknown #
vertex $-1 $339 $382 #
straight-curve $-1 59.111911374248479 -32.232561507186269 0 0 0 -1 I I #
coedge $-1 $343 $264 $349 $383 reversed $176 $-1 #
coedge $-1 $264 $342 $267 $347 reversed $176 $-1 #
edge $-1 $345 -19.591445525023317 $272 -5.6907864393025847 $271 $384 forward 7 unknown #
vertex $-1 $266 $385 #
straight-curve $-1 -46.661934611164185 32.232561507186269 18.552200198896841 -0.68199835119979291 0 -0.73135370988377701 I I #
edge $-1 $268 54.219072177507002 $351 59.111911374248479 $343 $386 forward 7 unknown #
point $-1 -54.219072177507002 32.232561507186269 10.448162138506065 #
coedge $-1 $271 $270 $342 $383 forward $262 $-1 #
point $-1 -59.111911374248479 18.331902421465536 5.2012343532608174 #
vertex $-1 $347 $387 #
straight-curve $-1 -59.111911374248479 0 10.448162138506065 0 -1 0 I I #
vertex $-1 $278 $388 #
point $-1 -55.024812295892012 22.303519303100032 7.6620673620987647 #
vertex $-1 $282 $389 #
point $-1 -55.024812295892012 28.260944625551772 7.6620673620987647 #
coedge $-1 $296 $295 $288 $358 forward $286 $-1 #
edge $-1 $365 74.767916467561264 $360 81.875805080100747 $357 $390 forward 7 unknown #
edge $-1 $293 51.489634201247682 $365 59.111911374248479 $292 $391 forward 7 unknown #
vertex $-1 $358 $392 #
straight-curve $-1 -27.351518118515258 -21.903928103664803 83.968727719370918 -0.7313536940579346 0 0.68199836817093118 I I #
edge $-1 $360 -14.068178431239552 $297 -1.6033209136109505 $296 $393 forward 7 unknown #
point $-1 51.489634201247682 -21.903928103664803 10.448162138506063 #
point $-1 59.111911374248479 -9.4390705860362019 3.3402735259665803 #
vertex $-1 $300 $394 #
straight-curve $-1 59.111911374248479 0 10.448162138506065 0 1 0 I I #
vertex $-1 $303 $395 #
point $-1 53.592462552373014 -15.671499344850503 1.3965815090086255 #
straight-curve $-1 -59.111911374248479 32.232561507186269 0 0 0 -1 I I #
point $-1 -59.111911374248479 -32.232561507186269 -10.448162138506065 #
straight-curve $-1 -59.111911374248479 0 -10.448162138506065 0 1 0 I I #
point $-1 -59.111911374248479 32.232561507186269 -10.448162138506065 #
coedge $-1 $338 $326 $335 $379 forward $244 $-1 #
vertex $-1 $327 $396 #
straight-curve $-1 -59.111911374248479 0 10.448162138506065 0 -1 0 I I #
point $-1 -59.111911374248479 -21.903928103664803 10.448162138506063 #
straight-curve $-1 0 -21.903928103664803 10.448162138506065 -1 0 0 I I #
point $-1 59.111911374248479 -21.903928103664803 10.448162138506063 #
edge $-1 $374 -59.111911374248479 $340 59.111911374248479 $335 $397 forward 7 unknown #
straight-curve $-1 -59.111911374248479 -32.232561507186269 0 0 0 -1 I I #
straight-curve $-1 59.111911374248479 0 10.448162138506065 0 1 0 I I #
point $-1 59.111911374248479 -32.232561507186269 10.448162138506065 #
edge $-1 $351 -10.448162138506065 $345 -5.2012343532608174 $342 $398 forward 7 unknown #
straight-curve $-1 -59.111911374248479 12.641115982162951 5.2012343532608174 0 -1 0 I I #
point $-1 -59.111911374248479 32.232561507186269 5.2012343532608174 #
straight-curve $-1 0 32.232561507186269 10.448162138506065 -1 0 0 I I #
point $-1 -59.111911374248479 32.232561507186269 10.448162138506065 #
point $-1 -54.97545693720803 22.303519303100032 6.2487153010151948 #
point $-1 -54.97545693720803 28.260944625551772 6.2487153010151948 #
straight-curve $-1 59.111911374248479 -21.903928103664803 85.216078606067327 0 0 -1 I I #
straight-curve $-1 0 -21.903928103664803 10.448162138506065 1 0 0 I I #
point $-1 59.111911374248479 -21.903928103664803 3.3402735259665803 #
straight-curve $-1 59.111911374248464 -7.8357496724252513 3.3402735259665874 0 1 0 I I #
point $-1 59.111911374248479 -21.903928103664803 10.448162138506063 #
point $-1 50.059082396800854 -15.671499344850503 1.2731931942911163 #
point $-1 -59.111911374248479 -32.232561507186269 10.448162138506065 #
straight-curve $-1 0 -32.232561507186269 10.448162138506065 1 0 0 I I #
straight-curve $-1 -59.111911374248479 32.232561507186269 0 0 0 -1 I I #
End-of-ACIS-data 