500 0 5 0           
7 Unknown 11 ACIS 5.0 NT 24 Fri Mar 26 20:42:46 1999 
-1 9.9999999999999995e-007 1e-010 
body $-1 $5 $-1 $6 #
body $-1 $7 $-1 $8 #
body $-1 $9 $-1 $10 #
body $-1 $11 $-1 $12 #
body $-1 $13 $-1 $14 #
lump $-1 $-1 $15 $0 #
transform $-1 1 0 0 0 1 0 0 0 1 63.919186986907562 26.928300818609213 7.8160858005196854 1 rotate no_reflect no_shear #
lump $-1 $-1 $16 $1 #
transform $-1 1 0 0 0 1 0 0 0 1 63.919186986907562 26.928300818609213 7.8160858005196854 1 rotate no_reflect no_shear #
lump $-1 $-1 $17 $2 #
transform $-1 1 0 0 0 1 0 0 0 1 63.919186986907562 26.928300818609213 7.8160858005196854 1 rotate no_reflect no_shear #
lump $-1 $-1 $18 $3 #
transform $-1 1 0 0 0 1 0 0 0 1 63.919186986907562 26.928300818609213 7.8160858005196854 1 rotate no_reflect no_shear #
lump $-1 $-1 $19 $4 #
transform $-1 1 0 0 0 1 0 0 0 1 63.919186986907562 26.928300818609213 7.8160858005196854 1 rotate no_reflect no_shear #
shell $-1 $-1 $-1 $20 $-1 $5 #
shell $-1 $-1 $-1 $21 $-1 $7 #
shell $-1 $-1 $-1 $22 $-1 $9 #
shell $-1 $-1 $-1 $23 $-1 $11 #
shell $-1 $-1 $-1 $24 $-1 $13 #
face $-1 $25 $26 $15 $-1 $27 reversed single #
face $-1 $28 $29 $16 $-1 $30 forward single #
face $-1 $31 $32 $17 $-1 $33 forward single #
face $-1 $34 $35 $18 $-1 $36 reversed single #
face $-1 $37 $38 $19 $-1 $39 forward single #
face $-1 $40 $41 $15 $-1 $42 reversed single #
loop $-1 $-1 $43 $20 #
plane-surface $-1 63.919186986907562 0 0 -1 0 0 0 0 1 forward_v I I I I #
face $-1 $44 $45 $16 $-1 $46 reversed single #
loop $-1 $-1 $47 $21 #
plane-surface $-1 -63.919186986907562 0 0 1 0 0 0 0 -1 forward_v I I I I #
face $-1 $48 $49 $17 $-1 $50 reversed single #
loop $-1 $-1 $51 $22 #
plane-surface $-1 63.919186986907562 0 0 -1 0 0 0 0 1 forward_v I I I I #
face $-1 $52 $53 $18 $-1 $54 reversed single #
loop $-1 $-1 $55 $23 #
plane-surface $-1 -35.65122381928056 -115.73229840863895 95.143986845207394 -1 0 0 0 -0.69465837861970381 0.71933979245794832 forward_v I I I I #
face $-1 $56 $57 $19 $-1 $58 forward single #
loop $-1 $59 $60 $24 #
cone-surface $-1 -44.560090762742938 -23.703228926104053 4.6439019064318776 0 0.69465837861970381 -0.71933979245794832 1.5 0 0 1 I I 0 1 1.5 forward I I I I #
face $-1 $61 $62 $15 $-1 $63 forward single #
loop $-1 $-1 $64 $25 #
plane-surface $-1 -63.919186986907562 0 0 1 0 0 0 0 -1 forward_v I I I I #
coedge $-1 $65 $66 $67 $68 reversed $26 $-1 #
face $-1 $69 $70 $16 $-1 $71 reversed single #
loop $-1 $-1 $72 $28 #
plane-surface $-1 0 0 -7.8160858005196854 0 0 1 1 0 0 forward_v I I I I #
coedge $-1 $73 $74 $75 $76 forward $29 $-1 #
face $-1 $77 $78 $17 $-1 $79 reversed single #
loop $-1 $-1 $80 $31 #
plane-surface $-1 0 0 -7.8160858005196854 0 0 1 1 0 0 forward_v I I I I #
coedge $-1 $81 $82 $83 $84 forward $32 $-1 #
face $-1 $85 $86 $18 $-1 $87 reversed single #
loop $-1 $-1 $88 $34 #
plane-surface $-1 -44.560090762742938 -26.928300818609202 3.1847574427216472 0 -0.69465837861970381 0.71933979245794832 1 0 0 forward_v I I I I #
coedge $-1 $89 $90 $91 $92 reversed $35 $-1 #
face $-1 $-1 $93 $19 $-1 $94 forward single #
loop $-1 $95 $96 $37 #
cone-surface $-1 -44.560090762742938 -22.355103649001922 3.2478773468996227 0 0.69465837861970381 -0.71933979245794832 0.75 0 0 1 I I -0.70710678118654757 0.70710678118654757 0.75 forward I I I I #
loop $-1 $-1 $97 $24 #
coedge $-1 $60 $60 $98 $99 reversed $38 $-1 #
face $-1 $100 $101 $15 $-1 $102 reversed single #
loop $-1 $-1 $103 $40 #
plane-surface $-1 0 0 7.8160858005196854 0 0 1 1 0 0 forward_v I I I I #
coedge $-1 $104 $105 $106 $107 reversed $41 $-1 #
coedge $-1 $108 $43 $109 $110 reversed $26 $-1 #
coedge $-1 $43 $108 $111 $112 forward $26 $-1 #
coedge $-1 $113 $114 $43 $68 forward $101 $-1 #
edge $-1 $115 -26.928300818609213 $116 26.928300818609213 $43 $117 forward 7 unknown #
face $-1 $118 $119 $16 $-1 $120 reversed single #
loop $-1 $-1 $121 $44 #
plane-surface $-1 -68.134778205424368 -14.296129217569842 0 0 1 0 0 0 1 forward_v I I I I #
coedge $-1 $122 $123 $74 $124 forward $45 $-1 #
coedge $-1 $125 $47 $126 $127 reversed $29 $-1 #
coedge $-1 $47 $125 $72 $124 reversed $29 $-1 #
coedge $-1 $128 $129 $47 $76 reversed $130 $-1 #
edge $-1 $131 -7.8160858005196854 $132 7.8160858005196854 $75 $133 forward 7 unknown #
face $-1 $134 $135 $17 $-1 $136 reversed single #
loop $-1 $-1 $83 $48 #
plane-surface $-1 68.134778205424368 -14.296129217569842 0 0 1 0 0 0 1 forward_v I I I I #
coedge $-1 $137 $138 $82 $139 forward $49 $-1 #
coedge $-1 $140 $51 $141 $142 reversed $32 $-1 #
coedge $-1 $51 $140 $80 $139 reversed $32 $-1 #
coedge $-1 $143 $144 $51 $84 reversed $78 $-1 #
edge $-1 $145 -7.8160858005196854 $146 7.8160858005196854 $83 $147 forward 7 unknown #
face $-1 $148 $149 $18 $-1 $150 forward single #
loop $-1 $-1 $151 $52 #
plane-surface $-1 -53.468957706205316 -115.73229840863895 95.143986845207394 1 0 0 0 0.69465837861970381 -0.71933979245794832 forward_v I I I I #
coedge $-1 $152 $153 $154 $155 reversed $53 $-1 #
coedge $-1 $90 $55 $156 $157 reversed $35 $-1 #
coedge $-1 $55 $89 $152 $158 reversed $35 $-1 #
coedge $-1 $154 $159 $55 $92 forward $149 $-1 #
edge $-1 $160 30.937848385710264 $161 35.733729184445892 $91 $162 forward 7 unknown #
loop $-1 $-1 $98 $56 #
plane-surface $-1 -44.560090762742938 -26.928300818609202 3.1847574427216472 0 -0.69465837861970381 0.71933979245794832 1 0 0 forward_v I I I I #
loop $-1 $-1 $163 $37 #
coedge $-1 $96 $96 $97 $164 reversed $57 $-1 #
coedge $-1 $97 $97 $96 $164 forward $59 $-1 #
coedge $-1 $98 $98 $60 $99 forward $93 $-1 #
edge $-1 $165 -9.9801276771573405e-016 $165 6.2831853071795996 $98 $166 forward 7 unknown #
face $-1 $167 $168 $15 $-1 $169 reversed single #
loop $-1 $-1 $67 $61 #
plane-surface $-1 0 0 -7.8160858005196854 0 0 1 1 0 0 forward_v I I I I #
coedge $-1 $170 $171 $108 $172 forward $62 $-1 #
coedge $-1 $173 $64 $174 $175 reversed $41 $-1 #
coedge $-1 $64 $173 $176 $177 forward $41 $-1 #
coedge $-1 $114 $113 $64 $107 forward $101 $-1 #
edge $-1 $178 -26.928300818609213 $179 26.928300818609213 $64 $180 forward 7 unknown #
coedge $-1 $66 $65 $103 $172 reversed $26 $-1 #
coedge $-1 $181 $182 $65 $110 forward $183 $-1 #
edge $-1 $184 -7.8160858005196854 $115 7.8160858005196854 $65 $185 forward 7 unknown #
coedge $-1 $186 $187 $66 $112 reversed $168 $-1 #
edge $-1 $188 -7.8160858005196854 $116 7.8160858005196854 $66 $189 forward 7 unknown #
coedge $-1 $106 $67 $187 $190 forward $101 $-1 #
coedge $-1 $67 $106 $181 $191 forward $101 $-1 #
vertex $-1 $68 $192 #
vertex $-1 $112 $193 #
straight-curve $-1 63.919186986907562 0 -7.8160858005196854 0 -1 0 I I #
face $-1 $194 $130 $16 $-1 $195 reversed single #
loop $-1 $-1 $196 $69 #
plane-surface $-1 -72.350369423941174 -12.796129217569842 0 1 0 0 0 0 -1 forward_v I I I I #
coedge $-1 $197 $198 $199 $200 forward $70 $-1 #
coedge $-1 $201 $72 $197 $202 forward $45 $-1 #
coedge $-1 $72 $201 $128 $203 forward $45 $-1 #
edge $-1 $131 11.296129217569842 $204 14.296129217569842 $72 $205 forward 7 unknown #
coedge $-1 $74 $73 $206 $207 forward $29 $-1 #
coedge $-1 $208 $209 $73 $127 forward $210 $-1 #
edge $-1 $211 -14.296129217569842 $132 -11.296129217569842 $126 $212 forward 7 unknown #
coedge $-1 $213 $75 $123 $203 reversed $130 $-1 #
coedge $-1 $75 $213 $208 $214 reversed $130 $-1 #
loop $-1 $-1 $75 $118 #
vertex $-1 $124 $215 #
vertex $-1 $214 $216 #
straight-curve $-1 -63.919186986907562 -11.296129217569842 0 0 0 1 I I #
face $-1 $217 $218 $17 $-1 $219 reversed single #
loop $-1 $-1 $220 $77 #
plane-surface $-1 68.134778205424368 -11.296129217569842 0 0 -1 0 0 0 -1 forward_v I I I I #
coedge $-1 $221 $80 $222 $223 forward $49 $-1 #
coedge $-1 $80 $221 $143 $224 forward $49 $-1 #
edge $-1 $145 -14.296129217569842 $225 -11.296129217569842 $80 $226 forward 7 unknown #
coedge $-1 $82 $81 $227 $228 forward $32 $-1 #
coedge $-1 $229 $230 $81 $142 forward $231 $-1 #
edge $-1 $232 11.296129217569842 $146 14.296129217569842 $141 $233 forward 7 unknown #
coedge $-1 $234 $83 $138 $224 reversed $78 $-1 #
coedge $-1 $83 $234 $229 $235 reversed $78 $-1 #
vertex $-1 $139 $236 #
vertex $-1 $235 $237 #
straight-curve $-1 63.919186986907562 -14.296129217569842 0 0 0 1 I I #
face $-1 $-1 $238 $18 $-1 $239 reversed single #
loop $-1 $-1 $91 $85 #
plane-surface $-1 0 0 7.8160858005196854 0 0 1 1 0 0 forward_v I I I I #
coedge $-1 $240 $241 $242 $243 reversed $86 $-1 #
coedge $-1 $244 $88 $90 $158 forward $53 $-1 #
coedge $-1 $88 $244 $240 $245 forward $53 $-1 #
coedge $-1 $242 $91 $88 $155 forward $149 $-1 #
edge $-1 $161 13.371178437909091 $246 31.188912324833847 $154 $247 forward 7 unknown #
coedge $-1 $248 $249 $89 $157 forward $238 $-1 #
edge $-1 $250 -44.387235979882057 $160 -39.75590762208401 $156 $251 forward 7 unknown #
edge $-1 $161 -6.667058946298976 $250 1.4762101642082446e-014 $90 $252 forward 7 unknown #
coedge $-1 $91 $242 $248 $253 forward $149 $-1 #
vertex $-1 $92 $254 #
vertex $-1 $92 $255 #
straight-curve $-1 -35.65122381928056 -57.866149204319477 7.8160858005196872 0 1 0 I I #
coedge $-1 $163 $163 $-1 $256 reversed $95 $-1 #
edge $-1 $257 0 $257 6.2831853071796004 $96 $258 forward 7 unknown #
vertex $-1 $99 $259 #
ellipse-curve $-1 -44.560090762742938 -24.530360419241401 5.5004216216206618 0 -0.69465837861970381 0.71933979245794832 1.5 0 0 1 I I #
face $-1 $-1 $183 $15 $-1 $260 reversed single #
loop $-1 $-1 $174 $100 #
plane-surface $-1 0 -26.928300818609213 0 0 1 0 0 0 1 forward_v I I I I #
coedge $-1 $261 $103 $182 $262 forward $62 $-1 #
coedge $-1 $103 $261 $186 $263 forward $62 $-1 #
edge $-1 $188 -26.928300818609213 $184 26.928300818609213 $108 $264 forward 7 unknown #
coedge $-1 $105 $104 $261 $265 reversed $41 $-1 #
coedge $-1 $187 $186 $104 $175 forward $168 $-1 #
edge $-1 $266 -7.8160858005196854 $178 7.8160858005196854 $104 $267 forward 7 unknown #
coedge $-1 $182 $181 $105 $177 reversed $183 $-1 #
edge $-1 $268 -7.8160858005196854 $179 7.8160858005196854 $176 $269 forward 7 unknown #
vertex $-1 $107 $270 #
vertex $-1 $191 $271 #
straight-curve $-1 -63.919186986907562 0 -7.8160858005196854 0 1 0 I I #
coedge $-1 $176 $109 $114 $191 reversed $183 $-1 #
coedge $-1 $109 $176 $170 $262 reversed $183 $-1 #
loop $-1 $-1 $109 $167 #
vertex $-1 $172 $272 #
straight-curve $-1 63.919186986907562 26.928300818609213 0 0 0 -1 I I #
coedge $-1 $174 $111 $171 $263 reversed $168 $-1 #
coedge $-1 $111 $174 $113 $190 reversed $168 $-1 #
vertex $-1 $172 $273 #
straight-curve $-1 63.919186986907562 -26.928300818609213 0 0 0 -1 I I #
edge $-1 $116 -63.919186986907562 $178 63.919186986907562 $187 $274 forward 7 unknown #
edge $-1 $179 -63.919186986907562 $115 63.919186986907562 $181 $275 forward 7 unknown #
point $-1 63.919186986907562 26.928300818609213 -7.8160858005196854 #
point $-1 63.919186986907562 -26.928300818609213 -7.8160858005196854 #
face $-1 $-1 $210 $16 $-1 $276 forward single #
plane-surface $-1 -68.134778205424368 -11.296129217569842 0 0 -1 0 0 0 -1 forward_v I I I I #
coedge $-1 $277 $278 $213 $279 forward $119 $-1 #
coedge $-1 $206 $121 $122 $202 reversed $70 $-1 #
coedge $-1 $121 $206 $209 $280 reversed $70 $-1 #
coedge $-1 $278 $277 $121 $200 reversed $119 $-1 #
edge $-1 $281 -7.8160858005196854 $282 7.8160858005196854 $199 $283 forward 7 unknown #
coedge $-1 $123 $122 $277 $284 forward $45 $-1 #
edge $-1 $204 -4.2155912185168063 $282 4.2155912185168063 $197 $285 forward 7 unknown #
edge $-1 $286 -4.2155912185168063 $131 4.2155912185168063 $128 $287 forward 7 unknown #
vertex $-1 $202 $288 #
straight-curve $-1 -63.919186986907562 0 -7.8160858005196854 0 -1 0 I I #
coedge $-1 $198 $197 $125 $207 reversed $70 $-1 #
edge $-1 $211 -7.8160858005196854 $204 7.8160858005196854 $206 $289 forward 7 unknown #
coedge $-1 $290 $126 $129 $214 forward $210 $-1 #
coedge $-1 $126 $290 $198 $280 forward $210 $-1 #
loop $-1 $-1 $126 $194 #
vertex $-1 $127 $291 #
straight-curve $-1 -63.919186986907562 0 7.8160858005196854 0 1 0 I I #
coedge $-1 $129 $128 $196 $279 reversed $130 $-1 #
edge $-1 $132 -4.2155912185168063 $292 4.2155912185168063 $129 $293 forward 7 unknown #
point $-1 -63.919186986907562 -11.296129217569842 -7.8160858005196854 #
point $-1 -63.919186986907562 -11.296129217569842 7.8160858005196854 #
face $-1 $-1 $231 $17 $-1 $294 forward single #
loop $-1 $-1 $295 $134 #
plane-surface $-1 72.350369423941174 -12.796129217569842 0 -1 0 0 0 0 1 forward_v I I I I #
coedge $-1 $222 $296 $297 $298 forward $135 $-1 #
coedge $-1 $138 $137 $299 $300 forward $49 $-1 #
coedge $-1 $227 $220 $137 $223 reversed $135 $-1 #
edge $-1 $225 -4.2155912185168063 $301 4.2155912185168063 $222 $302 forward 7 unknown #
edge $-1 $303 -4.2155912185168063 $145 4.2155912185168063 $143 $304 forward 7 unknown #
vertex $-1 $223 $305 #
straight-curve $-1 63.919186986907562 0 -7.8160858005196854 0 1 0 I I #
coedge $-1 $296 $222 $140 $228 reversed $135 $-1 #
edge $-1 $232 -7.8160858005196854 $225 7.8160858005196854 $227 $306 forward 7 unknown #
coedge $-1 $307 $141 $144 $235 forward $231 $-1 #
coedge $-1 $141 $307 $296 $308 forward $231 $-1 #
loop $-1 $-1 $141 $217 #
vertex $-1 $142 $309 #
straight-curve $-1 63.919186986907562 0 7.8160858005196854 0 -1 0 I I #
coedge $-1 $144 $143 $295 $310 reversed $78 $-1 #
edge $-1 $146 -4.2155912185168063 $311 4.2155912185168063 $144 $312 forward 7 unknown #
point $-1 63.919186986907562 -14.296129217569842 -7.8160858005196854 #
point $-1 63.919186986907562 -14.296129217569842 7.8160858005196854 #
loop $-1 $-1 $156 $148 #
plane-surface $-1 0 -26.928300818609213 0 0 1 0 0 0 1 forward_v I I I I #
coedge $-1 $241 $151 $153 $245 reversed $86 $-1 #
coedge $-1 $151 $240 $313 $314 reversed $86 $-1 #
coedge $-1 $159 $154 $151 $243 forward $149 $-1 #
edge $-1 $246 -35.733729184445892 $315 -30.937848385710264 $242 $316 forward 7 unknown #
coedge $-1 $153 $152 $249 $317 reversed $53 $-1 #
edge $-1 $318 -1.4762101642082446e-014 $246 6.667058946298976 $240 $319 forward 7 unknown #
vertex $-1 $155 $320 #
straight-curve $-1 -22.280045381371469 -22.132420019873585 7.8160858005196854 -1 0 0 I I #
coedge $-1 $313 $156 $159 $253 reversed $238 $-1 #
coedge $-1 $156 $313 $244 $317 forward $238 $-1 #
vertex $-1 $157 $321 #
straight-curve $-1 -35.65122381928056 -26.928300818609216 47.571993422603697 0 0 1 I I #
straight-curve $-1 -35.65122381928056 -26.928300818609202 3.1847574427216472 0 -0.71933979245794832 -0.69465837861970381 I I #
edge $-1 $315 -53.468957706205316 $160 -35.65122381928056 $248 $322 forward 7 unknown #
point $-1 -35.65122381928056 -26.928300818609213 7.8160858005196854 #
point $-1 -35.65122381928056 -22.132420019873589 7.8160858005196854 #
edge $-1 $323 1 $323 0 $163 $-1 forward 7 unknown #
vertex $-1 $164 $324 #
ellipse-curve $-1 -44.560090762742938 -22.876097432966699 3.7873821912430841 0 -0.69465837861970381 0.71933979245794832 1.5 0 0 1 I I #
point $-1 -43.060090762742938 -24.530360419241411 5.5004216216206707 #
plane-surface $-1 0 26.928300818609213 0 0 -1 0 0 0 -1 forward_v I I I I #
coedge $-1 $171 $170 $173 $265 forward $62 $-1 #
edge $-1 $184 -63.919186986907562 $268 63.919186986907562 $182 $325 forward 7 unknown #
edge $-1 $266 -63.919186986907562 $188 63.919186986907562 $186 $326 forward 7 unknown #
straight-curve $-1 63.919186986907562 0 7.8160858005196854 0 1 0 I I #
edge $-1 $268 -26.928300818609213 $266 26.928300818609213 $173 $327 forward 7 unknown #
vertex $-1 $265 $328 #
straight-curve $-1 -63.919186986907562 -26.928300818609213 0 0 0 -1 I I #
vertex $-1 $262 $329 #
straight-curve $-1 -63.919186986907562 26.928300818609213 0 0 0 -1 I I #
point $-1 -63.919186986907562 -26.928300818609213 -7.8160858005196854 #
point $-1 -63.919186986907562 26.928300818609213 -7.8160858005196854 #
point $-1 63.919186986907562 26.928300818609213 7.8160858005196854 #
point $-1 63.919186986907562 -26.928300818609213 7.8160858005196854 #
straight-curve $-1 0 -26.928300818609213 -7.8160858005196854 -1 0 0 I I #
straight-curve $-1 0 26.928300818609213 -7.8160858005196854 1 0 0 I I #
plane-surface $-1 0 0 7.8160858005196854 0 0 1 1 0 0 forward_v I I I I #
coedge $-1 $199 $196 $201 $284 reversed $119 $-1 #
coedge $-1 $196 $199 $290 $330 reversed $119 $-1 #
edge $-1 $292 -7.8160858005196854 $286 7.8160858005196854 $213 $331 forward 7 unknown #
edge $-1 $281 -4.2155912185168063 $211 4.2155912185168063 $198 $332 forward 7 unknown #
vertex $-1 $330 $333 #
vertex $-1 $284 $334 #
straight-curve $-1 -72.350369423941174 -14.296129217569842 0 0 0 -1 I I #
edge $-1 $282 -1.5 $286 1.5 $277 $335 forward 7 unknown #
straight-curve $-1 -68.134778205424368 -14.296129217569842 -7.8160858005196854 -1 0 0 I I #
vertex $-1 $203 $336 #
straight-curve $-1 -68.134778205424368 -11.296129217569842 -7.8160858005196854 1 0 0 I I #
point $-1 -63.919186986907562 -14.296129217569842 -7.8160858005196854 #
straight-curve $-1 -63.919186986907562 -14.296129217569842 0 0 0 -1 I I #
coedge $-1 $209 $208 $278 $330 forward $210 $-1 #
point $-1 -63.919186986907562 -14.296129217569842 7.8160858005196854 #
vertex $-1 $214 $337 #
straight-curve $-1 -68.134778205424368 -11.296129217569842 7.8160858005196854 -1 0 0 I I #
plane-surface $-1 0 0 7.8160858005196854 0 0 1 1 0 0 forward_v I I I I #
coedge $-1 $299 $338 $234 $310 forward $218 $-1 #
coedge $-1 $220 $227 $230 $308 reversed $135 $-1 #
coedge $-1 $338 $299 $220 $298 reversed $218 $-1 #
edge $-1 $339 -7.8160858005196854 $301 7.8160858005196854 $297 $340 forward 7 unknown #
coedge $-1 $297 $295 $221 $300 reversed $218 $-1 #
edge $-1 $301 -1.5 $303 1.5 $299 $341 forward 7 unknown #
vertex $-1 $300 $342 #
straight-curve $-1 68.134778205424368 -11.296129217569842 -7.8160858005196854 1 0 0 I I #
vertex $-1 $310 $343 #
straight-curve $-1 68.134778205424368 -14.296129217569842 -7.8160858005196854 -1 0 0 I I #
point $-1 63.919186986907562 -11.296129217569842 -7.8160858005196854 #
straight-curve $-1 63.919186986907562 -11.296129217569842 0 0 0 -1 I I #
coedge $-1 $230 $229 $338 $344 forward $231 $-1 #
edge $-1 $339 -4.2155912185168063 $232 4.2155912185168063 $296 $345 forward 7 unknown #
point $-1 63.919186986907562 -11.296129217569842 7.8160858005196854 #
edge $-1 $311 -7.8160858005196854 $303 7.8160858005196854 $295 $346 forward 7 unknown #
vertex $-1 $344 $347 #
straight-curve $-1 68.134778205424368 -14.296129217569842 7.8160858005196854 1 0 0 I I #
coedge $-1 $249 $248 $241 $314 forward $238 $-1 #
edge $-1 $315 39.75590762208401 $318 44.387235979882057 $313 $348 forward 7 unknown #
vertex $-1 $253 $349 #
straight-curve $-1 -53.468957706205316 -57.866149204319477 7.8160858005196872 0 -1 0 I I #
edge $-1 $318 -31.188912324833847 $250 -13.371178437909091 $249 $350 forward 7 unknown #
vertex $-1 $317 $351 #
straight-curve $-1 -53.468957706205316 -26.928300818609202 3.1847574427216472 0 0.71933979245794832 0.69465837861970381 I I #
point $-1 -53.468957706205316 -22.132420019873589 7.8160858005196854 #
point $-1 -35.65122381928056 -26.928300818609213 3.184757442721637 #
straight-curve $-1 0 -26.928300818609213 7.8160858005196854 1 0 0 I I #
vertex $-1 $256 $352 #
point $-1 -43.060090762742938 -22.876097432966699 3.7873821912430841 #
straight-curve $-1 0 26.928300818609213 7.8160858005196854 -1 0 0 I I #
straight-curve $-1 0 -26.928300818609213 7.8160858005196854 1 0 0 I I #
straight-curve $-1 -63.919186986907562 0 7.8160858005196854 0 -1 0 I I #
point $-1 -63.919186986907562 -26.928300818609213 7.8160858005196854 #
point $-1 -63.919186986907562 26.928300818609213 7.8160858005196854 #
edge $-1 $292 -1.5 $281 1.5 $278 $353 forward 7 unknown #
straight-curve $-1 -72.350369423941174 -11.296129217569842 0 0 0 -1 I I #
straight-curve $-1 -68.134778205424368 -14.296129217569842 7.8160858005196854 1 0 0 I I #
point $-1 -72.350369423941174 -14.296129217569842 7.8160858005196854 #
point $-1 -72.350369423941174 -14.296129217569842 -7.8160858005196854 #
straight-curve $-1 -72.350369423941174 -12.796129217569842 -7.8160858005196854 0 1 0 I I #
point $-1 -72.350369423941174 -11.296129217569842 -7.8160858005196854 #
point $-1 -72.350369423941174 -11.296129217569842 7.8160858005196854 #
coedge $-1 $295 $297 $307 $344 reversed $218 $-1 #
vertex $-1 $344 $354 #
straight-curve $-1 72.350369423941174 -11.296129217569842 0 0 0 -1 I I #
straight-curve $-1 72.350369423941174 -12.796129217569842 -7.8160858005196854 0 -1 0 I I #
point $-1 72.350369423941174 -11.296129217569842 -7.8160858005196854 #
point $-1 72.350369423941174 -14.296129217569842 -7.8160858005196854 #
edge $-1 $311 -1.5 $339 1.5 $338 $355 forward 7 unknown #
straight-curve $-1 68.134778205424368 -11.296129217569842 7.8160858005196854 -1 0 0 I I #
straight-curve $-1 72.350369423941174 -14.296129217569842 0 0 0 -1 I I #
point $-1 72.350369423941174 -14.296129217569842 7.8160858005196854 #
straight-curve $-1 -53.468957706205316 -26.928300818609216 47.571993422603697 0 0 -1 I I #
point $-1 -53.468957706205316 -26.928300818609213 7.8160858005196854 #
straight-curve $-1 -22.280045381371469 -26.928300818609213 3.184757442721637 1 0 0 I I #
point $-1 -53.468957706205316 -26.928300818609213 3.184757442721637 #
point $-1 -44.560090762742938 -21.834109865037146 2.7083725025561614 #
straight-curve $-1 -72.350369423941174 -12.796129217569842 7.8160858005196854 0 -1 0 I I #
point $-1 72.350369423941174 -11.296129217569842 7.8160858005196854 #
straight-curve $-1 72.350369423941174 -12.796129217569842 7.8160858005196854 0 1 0 I I #
End-of-ACIS-data 