500 0 9 0           
7 Unknown 11 ACIS 5.0 NT 24 Fri Mar 26 01:50:28 1999 
-1 9.9999999999999995e-007 1e-010 
body $-1 $9 $-1 $10 #
body $-1 $11 $-1 $12 #
body $-1 $13 $-1 $14 #
body $-1 $15 $-1 $16 #
body $-1 $17 $-1 $18 #
body $-1 $19 $-1 $20 #
body $-1 $21 $-1 $22 #
body $-1 $23 $-1 $24 #
body $-1 $25 $-1 $26 #
lump $-1 $-1 $27 $0 #
transform $-1 1 0 0 0 1 0 0 0 1 71.395001068147835 43.645796819864394 13.770930217052769 1 rotate no_reflect no_shear #
lump $-1 $-1 $28 $1 #
transform $-1 1 0 0 0 1 0 0 0 1 71.395001068147835 43.645796819864394 13.770930217052769 1 rotate no_reflect no_shear #
lump $-1 $-1 $29 $2 #
transform $-1 1 0 0 0 1 0 0 0 1 71.395001068147835 43.645796819864394 13.770930217052769 1 rotate no_reflect no_shear #
lump $-1 $-1 $30 $3 #
transform $-1 1 0 0 0 1 0 0 0 1 71.395001068147835 43.645796819864394 13.770930217052769 1 rotate no_reflect no_shear #
lump $-1 $-1 $31 $4 #
transform $-1 1 0 0 0 1 0 0 0 1 71.395001068147835 43.645796819864394 13.770930217052769 1 rotate no_reflect no_shear #
lump $-1 $-1 $32 $5 #
transform $-1 1 0 0 0 1 0 0 0 1 71.395001068147835 43.645796819864394 13.770930217052769 1 rotate no_reflect no_shear #
lump $-1 $-1 $33 $6 #
transform $-1 1 0 0 0 1 0 0 0 1 71.395001068147835 43.645796819864394 13.770930217052769 1 rotate no_reflect no_shear #
lump $-1 $-1 $34 $7 #
transform $-1 1 0 0 0 1 0 0 0 1 71.395001068147835 43.645796819864394 13.770930217052769 1 rotate no_reflect no_shear #
lump $-1 $-1 $35 $8 #
transform $-1 1 0 0 0 1 0 0 0 1 71.395001068147835 43.645796819864394 13.770930217052769 1 rotate no_reflect no_shear #
shell $-1 $-1 $-1 $36 $-1 $9 #
shell $-1 $-1 $-1 $37 $-1 $11 #
shell $-1 $-1 $-1 $38 $-1 $13 #
shell $-1 $-1 $-1 $39 $-1 $15 #
shell $-1 $-1 $-1 $40 $-1 $17 #
shell $-1 $-1 $-1 $41 $-1 $19 #
shell $-1 $-1 $-1 $42 $-1 $21 #
shell $-1 $-1 $-1 $43 $-1 $23 #
shell $-1 $-1 $-1 $44 $-1 $25 #
face $-1 $45 $46 $27 $-1 $47 reversed single #
face $-1 $48 $49 $28 $-1 $50 forward single #
face $-1 $51 $52 $29 $-1 $53 forward single #
face $-1 $54 $55 $30 $-1 $56 reversed single #
face $-1 $57 $58 $31 $-1 $59 forward single #
face $-1 $60 $61 $32 $-1 $62 reversed single #
face $-1 $63 $64 $33 $-1 $65 forward single #
face $-1 $66 $67 $34 $-1 $68 reversed single #
face $-1 $69 $70 $35 $-1 $71 forward single #
face $-1 $72 $73 $27 $-1 $74 reversed single #
loop $-1 $-1 $75 $36 #
plane-surface $-1 71.395001068147835 0 0 -1 0 0 0 0 1 forward_v I I I I #
face $-1 $76 $77 $28 $-1 $78 reversed single #
loop $-1 $-1 $79 $37 #
plane-surface $-1 -71.395001068147835 0 0 1 0 0 0 0 -1 forward_v I I I I #
face $-1 $80 $81 $29 $-1 $82 reversed single #
loop $-1 $-1 $83 $38 #
plane-surface $-1 71.395001068147835 0 0 -1 0 0 0 0 1 forward_v I I I I #
face $-1 $84 $85 $30 $-1 $86 reversed single #
loop $-1 $-1 $87 $39 #
plane-surface $-1 54.642940987126586 -149.75944921983074 105.70468392646288 -1 0 0 0 -0.74314483375859142 0.66913059716165679 forward_v I I I I #
face $-1 $88 $89 $31 $-1 $90 forward single #
loop $-1 $91 $92 $40 #
cone-surface $-1 46.400183018791083 -41.329962375219992 11.343973501637574 0 0.74314483375859142 -0.66913059716165679 0.5 0 0 1 I I 0 1 0.5 forward I I I I #
face $-1 $93 $94 $32 $-1 $95 reversed single #
loop $-1 $-1 $96 $41 #
plane-surface $-1 -34.560554691602221 68.560202448272207 167.20800786433989 1 0 0 0 -0.64278761758704617 -0.76604443648966558 forward_v I I I I #
face $-1 $97 $98 $33 $-1 $99 forward single #
loop $-1 $100 $101 $42 #
cone-surface $-1 -22.347780715880177 35.663878737591553 6.7919546192004479 0 -0.64278761758704617 -0.76604443648966558 1.5 0 0 1 I I 0 1 1.5 forward I I I I #
face $-1 $102 $103 $34 $-1 $104 reversed single #
loop $-1 $-1 $105 $43 #
plane-surface $-1 10.135006740158133 68.560202448272207 167.20800786433989 1 0 0 0 -0.64278761758704617 -0.76604443648966558 forward_v I I I I #
face $-1 $106 $107 $35 $-1 $108 forward single #
loop $-1 $109 $110 $44 #
cone-surface $-1 22.347780715880177 35.663878737591553 6.7919546192004479 0 -0.64278761758704617 -0.76604443648966558 1.5 0 0 1 I I 0 1 1.5 forward I I I I #
face $-1 $111 $112 $27 $-1 $113 forward single #
loop $-1 $-1 $114 $45 #
plane-surface $-1 -71.395001068147835 0 0 1 0 0 0 0 -1 forward_v I I I I #
coedge $-1 $115 $116 $117 $118 reversed $46 $-1 #
face $-1 $119 $120 $28 $-1 $121 reversed single #
loop $-1 $-1 $122 $48 #
plane-surface $-1 0 0 -13.770930217052769 0 0 1 1 0 0 forward_v I I I I #
coedge $-1 $123 $124 $125 $126 forward $49 $-1 #
face $-1 $127 $128 $29 $-1 $129 reversed single #
loop $-1 $-1 $130 $51 #
plane-surface $-1 0 0 -13.770930217052769 0 0 1 1 0 0 forward_v I I I I #
coedge $-1 $131 $132 $133 $134 forward $52 $-1 #
face $-1 $135 $136 $30 $-1 $137 reversed single #
loop $-1 $-1 $138 $54 #
plane-surface $-1 46.400183018791083 -43.645796819864387 10.159524528289111 0 -0.74314483375859142 0.66913059716165679 1 0 0 forward_v I I I I #
coedge $-1 $139 $140 $141 $142 reversed $55 $-1 #
face $-1 $-1 $143 $31 $-1 $144 forward single #
loop $-1 $145 $146 $57 #
cone-surface $-1 46.400183018791083 -40.454203825552256 10.55543698131379 0 0.74314483375859142 -0.66913059716165679 0.25 0 0 1 I I -0.70710678118654746 0.70710678118654746 0.25 forward I I I I #
loop $-1 $-1 $147 $40 #
coedge $-1 $92 $92 $148 $149 reversed $58 $-1 #
face $-1 $150 $151 $32 $-1 $152 reversed single #
loop $-1 $-1 $153 $60 #
plane-surface $-1 -22.347780715880177 -23.223442840166513 57.824521141483132 0 0.64278761758704617 0.76604443648966558 1 0 0 forward_v I I I I #
coedge $-1 $154 $155 $156 $157 reversed $61 $-1 #
face $-1 $-1 $158 $33 $-1 $159 forward single #
loop $-1 $160 $161 $63 #
cone-surface $-1 -22.347780715880177 34.383977696526991 5.2666279872945942 0 -0.64278761758704617 -0.76604443648966558 0.75 0 0 1 I I -0.70710678118654757 0.70710678118654757 0.75 forward I I I I #
loop $-1 $-1 $162 $42 #
coedge $-1 $101 $101 $163 $164 reversed $64 $-1 #
face $-1 $165 $166 $34 $-1 $167 reversed single #
loop $-1 $-1 $168 $66 #
plane-surface $-1 22.347780715880177 -23.223442840166513 57.824521141483132 0 0.64278761758704617 0.76604443648966558 1 0 0 forward_v I I I I #
coedge $-1 $169 $170 $171 $172 reversed $67 $-1 #
face $-1 $-1 $173 $35 $-1 $174 forward single #
loop $-1 $175 $176 $69 #
cone-surface $-1 22.347780715880177 34.383977696526991 5.2666279872945942 0 -0.64278761758704617 -0.76604443648966558 0.75 0 0 1 I I -0.70710678118654757 0.70710678118654757 0.75 forward I I I I #
loop $-1 $-1 $177 $44 #
coedge $-1 $110 $110 $178 $179 reversed $70 $-1 #
face $-1 $180 $181 $27 $-1 $182 reversed single #
loop $-1 $-1 $183 $72 #
plane-surface $-1 0 0 13.770930217052769 0 0 1 1 0 0 forward_v I I I I #
coedge $-1 $184 $185 $186 $187 reversed $73 $-1 #
coedge $-1 $188 $75 $189 $190 reversed $46 $-1 #
coedge $-1 $75 $188 $191 $192 forward $46 $-1 #
coedge $-1 $193 $194 $75 $118 forward $181 $-1 #
edge $-1 $195 -43.645796819864394 $196 43.645796819864394 $75 $197 forward 7 unknown #
face $-1 $198 $199 $28 $-1 $200 reversed single #
loop $-1 $-1 $201 $76 #
plane-surface $-1 -76.55241133011593 -40.424636241563775 0 0 1 0 0 0 1 forward_v I I I I #
coedge $-1 $202 $203 $124 $204 forward $77 $-1 #
coedge $-1 $205 $79 $206 $207 reversed $49 $-1 #
coedge $-1 $79 $205 $122 $204 reversed $49 $-1 #
coedge $-1 $208 $209 $79 $126 reversed $210 $-1 #
edge $-1 $211 -13.770930217052769 $212 13.770930217052769 $125 $213 forward 7 unknown #
face $-1 $214 $215 $29 $-1 $216 reversed single #
loop $-1 $-1 $133 $80 #
plane-surface $-1 76.55241133011593 -40.424636241563775 0 0 1 0 0 0 1 forward_v I I I I #
coedge $-1 $217 $218 $132 $219 forward $81 $-1 #
coedge $-1 $220 $83 $221 $222 reversed $52 $-1 #
coedge $-1 $83 $220 $130 $219 reversed $52 $-1 #
coedge $-1 $223 $224 $83 $134 reversed $128 $-1 #
edge $-1 $225 -13.770930217052769 $226 13.770930217052769 $133 $227 forward 7 unknown #
face $-1 $228 $229 $30 $-1 $230 forward single #
loop $-1 $-1 $231 $84 #
plane-surface $-1 38.157425050455579 -149.75944921983074 105.70468392646288 1 0 0 0 0.74314483375859142 -0.66913059716165679 forward_v I I I I #
coedge $-1 $232 $233 $234 $235 reversed $85 $-1 #
coedge $-1 $140 $87 $236 $237 reversed $55 $-1 #
coedge $-1 $87 $139 $232 $238 reversed $55 $-1 #
coedge $-1 $234 $239 $87 $142 forward $229 $-1 #
edge $-1 $240 31.233927790050977 $241 34.485651996883625 $141 $242 forward 7 unknown #
loop $-1 $-1 $148 $88 #
plane-surface $-1 46.400183018791083 -43.645796819864387 10.159524528289111 0 -0.74314483375859142 0.66913059716165679 1 0 0 forward_v I I I I #
loop $-1 $-1 $243 $57 #
coedge $-1 $146 $146 $147 $244 reversed $89 $-1 #
coedge $-1 $147 $147 $146 $244 forward $91 $-1 #
coedge $-1 $148 $148 $92 $149 forward $143 $-1 #
edge $-1 $245 6.3321671955837691e-015 $245 6.2831853071796067 $148 $246 forward 7 unknown #
face $-1 $247 $248 $32 $-1 $249 reversed single #
loop $-1 $-1 $250 $93 #
plane-surface $-1 -10.135006740158133 68.560202448272207 167.20800786433989 -1 0 0 0 0.64278761758704617 0.76604443648966558 forward_v I I I I #
coedge $-1 $251 $252 $253 $254 reversed $94 $-1 #
coedge $-1 $155 $96 $255 $256 reversed $61 $-1 #
coedge $-1 $96 $154 $251 $257 reversed $61 $-1 #
coedge $-1 $253 $258 $96 $157 forward $259 $-1 #
edge $-1 $260 -9.3656955957282904 $261 5.0025199130688733 $156 $262 forward 7 unknown #
loop $-1 $-1 $163 $97 #
plane-surface $-1 -22.347780715880177 -23.223442840166513 57.824521141483132 0 0.64278761758704617 0.76604443648966558 1 0 0 forward_v I I I I #
loop $-1 $-1 $263 $63 #
coedge $-1 $161 $161 $162 $264 reversed $98 $-1 #
coedge $-1 $162 $162 $161 $264 forward $100 $-1 #
coedge $-1 $163 $163 $101 $164 forward $158 $-1 #
edge $-1 $265 2.5902983272850485e-017 $265 6.2831853071796004 $163 $266 forward 7 unknown #
face $-1 $267 $268 $34 $-1 $269 forward single #
loop $-1 $-1 $270 $102 #
plane-surface $-1 34.560554691602221 68.560202448272207 167.20800786433989 -1 0 0 0 0.64278761758704617 0.76604443648966558 forward_v I I I I #
coedge $-1 $271 $272 $273 $274 reversed $103 $-1 #
coedge $-1 $170 $105 $275 $276 reversed $67 $-1 #
coedge $-1 $105 $169 $271 $277 reversed $67 $-1 #
coedge $-1 $273 $278 $105 $172 forward $268 $-1 #
edge $-1 $279 -9.3656955957282904 $280 5.0025199130688733 $171 $281 forward 7 unknown #
loop $-1 $-1 $178 $106 #
plane-surface $-1 22.347780715880177 -23.223442840166513 57.824521141483132 0 0.64278761758704617 0.76604443648966558 1 0 0 forward_v I I I I #
loop $-1 $-1 $282 $69 #
coedge $-1 $176 $176 $177 $283 reversed $107 $-1 #
coedge $-1 $177 $177 $176 $283 forward $109 $-1 #
coedge $-1 $178 $178 $110 $179 forward $173 $-1 #
edge $-1 $284 2.5902983272850485e-017 $284 6.2831853071796004 $178 $285 forward 7 unknown #
face $-1 $286 $287 $27 $-1 $288 reversed single #
loop $-1 $-1 $117 $111 #
plane-surface $-1 0 0 -13.770930217052769 0 0 1 1 0 0 forward_v I I I I #
coedge $-1 $289 $290 $188 $291 forward $112 $-1 #
coedge $-1 $292 $114 $293 $294 reversed $73 $-1 #
coedge $-1 $114 $292 $295 $296 forward $73 $-1 #
coedge $-1 $194 $193 $114 $187 forward $181 $-1 #
edge $-1 $297 -43.645796819864394 $298 43.645796819864394 $114 $299 forward 7 unknown #
coedge $-1 $116 $115 $183 $291 reversed $46 $-1 #
coedge $-1 $300 $301 $115 $190 forward $302 $-1 #
edge $-1 $303 -13.770930217052769 $195 13.770930217052769 $115 $304 forward 7 unknown #
coedge $-1 $305 $306 $116 $192 reversed $287 $-1 #
edge $-1 $307 -13.770930217052769 $196 13.770930217052769 $116 $308 forward 7 unknown #
coedge $-1 $186 $117 $306 $309 forward $181 $-1 #
coedge $-1 $117 $186 $300 $310 forward $181 $-1 #
vertex $-1 $118 $311 #
vertex $-1 $192 $312 #
straight-curve $-1 71.395001068147835 0 -13.770930217052769 0 -1 0 I I #
face $-1 $313 $210 $28 $-1 $314 reversed single #
loop $-1 $-1 $315 $119 #
plane-surface $-1 -81.709821592084026 -37.505831119018133 0 1 0 0 0 0 -1 forward_v I I I I #
coedge $-1 $316 $317 $318 $319 forward $120 $-1 #
coedge $-1 $320 $122 $316 $321 forward $77 $-1 #
coedge $-1 $122 $320 $208 $322 forward $77 $-1 #
edge $-1 $211 34.587025996472491 $323 40.424636241563775 $122 $324 forward 7 unknown #
coedge $-1 $124 $123 $325 $326 forward $49 $-1 #
coedge $-1 $327 $328 $123 $207 forward $329 $-1 #
edge $-1 $330 -40.424636241563775 $212 -34.587025996472491 $206 $331 forward 7 unknown #
coedge $-1 $332 $125 $203 $322 reversed $210 $-1 #
coedge $-1 $125 $332 $327 $333 reversed $210 $-1 #
loop $-1 $-1 $125 $198 #
vertex $-1 $204 $334 #
vertex $-1 $333 $335 #
straight-curve $-1 -71.395001068147835 -34.587025996472491 0 0 0 1 I I #
face $-1 $336 $337 $29 $-1 $338 reversed single #
loop $-1 $-1 $339 $127 #
plane-surface $-1 76.55241133011593 -34.587025996472491 0 0 -1 0 0 0 -1 forward_v I I I I #
coedge $-1 $340 $130 $341 $342 forward $81 $-1 #
coedge $-1 $130 $340 $223 $343 forward $81 $-1 #
edge $-1 $225 -40.424636241563775 $344 -34.587025996472491 $130 $345 forward 7 unknown #
coedge $-1 $132 $131 $346 $347 forward $52 $-1 #
coedge $-1 $348 $349 $131 $222 forward $350 $-1 #
edge $-1 $351 34.587025996472491 $226 40.424636241563775 $221 $352 forward 7 unknown #
coedge $-1 $353 $133 $218 $343 reversed $128 $-1 #
coedge $-1 $133 $353 $348 $354 reversed $128 $-1 #
vertex $-1 $219 $355 #
vertex $-1 $354 $356 #
straight-curve $-1 71.395001068147835 -40.424636241563775 0 0 0 1 I I #
face $-1 $-1 $357 $30 $-1 $358 reversed single #
loop $-1 $-1 $141 $135 #
plane-surface $-1 0 0 13.770930217052769 0 0 1 1 0 0 forward_v I I I I #
coedge $-1 $359 $360 $361 $362 reversed $136 $-1 #
coedge $-1 $363 $138 $140 $238 forward $85 $-1 #
coedge $-1 $138 $363 $359 $364 forward $85 $-1 #
coedge $-1 $361 $141 $138 $235 forward $229 $-1 #
edge $-1 $241 -31.442849477731045 $365 -14.957333541060038 $234 $366 forward 7 unknown #
coedge $-1 $367 $368 $139 $237 forward $357 $-1 #
edge $-1 $369 -42.692817434942334 $240 -39.081411746178674 $236 $370 forward 7 unknown #
edge $-1 $241 -4.8596256405340394 $369 1.0034820483328475e-014 $140 $371 forward 7 unknown #
coedge $-1 $141 $361 $367 $372 forward $229 $-1 #
vertex $-1 $142 $373 #
vertex $-1 $142 $374 #
straight-curve $-1 54.642940987126586 -74.879724609915371 13.770930217052772 0 1 0 I I #
coedge $-1 $243 $243 $-1 $375 reversed $145 $-1 #
edge $-1 $376 0 $376 6.2831853071796004 $146 $377 forward 7 unknown #
vertex $-1 $149 $378 #
ellipse-curve $-1 46.400183018791083 -42.01993471644807 11.965227372670936 0 -0.74314483375859142 0.66913059716165679 0.5 0 0 1 I I #
face $-1 $-1 $259 $32 $-1 $379 forward single #
loop $-1 $-1 $380 $150 #
plane-surface $-1 0 43.645796819864394 0 0 -1 0 0 0 -1 forward_v I I I I #
coedge $-1 $381 $382 $383 $384 reversed $151 $-1 #
coedge $-1 $385 $153 $155 $257 forward $94 $-1 #
coedge $-1 $153 $385 $381 $386 forward $94 $-1 #
coedge $-1 $383 $156 $153 $254 forward $259 $-1 #
edge $-1 $261 -23.386664333662132 $387 1.0388836177819556 $253 $388 forward 7 unknown #
coedge $-1 $389 $390 $154 $256 forward $248 $-1 #
edge $-1 $391 -81.889438301744633 $260 -69.83307371511718 $255 $392 forward 7 unknown #
edge $-1 $261 68.535220217531091 $391 87.291593639728774 $155 $393 forward 7 unknown #
coedge $-1 $156 $383 $389 $394 forward $259 $-1 #
loop $-1 $-1 $383 $247 #
vertex $-1 $256 $395 #
vertex $-1 $157 $396 #
straight-curve $-1 -34.560554691602221 34.280101224136104 13.770930217052765 0 -1 0 I I #
coedge $-1 $263 $263 $-1 $397 reversed $160 $-1 #
edge $-1 $398 0 $398 6.2831853071796004 $161 $399 forward 7 unknown #
vertex $-1 $164 $400 #
ellipse-curve $-1 -22.347780715880177 36.461689065465812 7.742747923739036 0 0.64278761758704617 0.76604443648966558 1.5 0 0 1 I I #
face $-1 $-1 $401 $34 $-1 $402 reversed single #
loop $-1 $-1 $171 $165 #
plane-surface $-1 0 0 13.770930217052769 0 0 1 1 0 0 forward_v I I I I #
coedge $-1 $403 $404 $405 $406 reversed $166 $-1 #
coedge $-1 $407 $168 $170 $277 forward $103 $-1 #
coedge $-1 $168 $407 $403 $408 forward $103 $-1 #
coedge $-1 $405 $171 $168 $274 forward $268 $-1 #
edge $-1 $280 -1.0388836177819556 $409 23.386664333662132 $273 $410 forward 7 unknown #
coedge $-1 $411 $412 $169 $276 forward $401 $-1 #
edge $-1 $413 -81.889438301744633 $279 -69.83307371511718 $275 $414 forward 7 unknown #
edge $-1 $280 68.535220217531091 $413 87.291593639728774 $170 $415 forward 7 unknown #
coedge $-1 $171 $405 $411 $416 forward $268 $-1 #
vertex $-1 $276 $417 #
vertex $-1 $172 $418 #
straight-curve $-1 10.135006740158133 34.280101224136104 13.770930217052765 0 -1 0 I I #
coedge $-1 $282 $282 $-1 $419 reversed $175 $-1 #
edge $-1 $420 0 $420 6.2831853071796004 $176 $421 forward 7 unknown #
vertex $-1 $179 $422 #
ellipse-curve $-1 22.347780715880177 36.461689065465812 7.742747923739036 0 0.64278761758704617 0.76604443648966558 1.5 0 0 1 I I #
face $-1 $-1 $302 $27 $-1 $423 reversed single #
loop $-1 $-1 $293 $180 #
plane-surface $-1 0 -43.645796819864394 0 0 1 0 0 0 1 forward_v I I I I #
coedge $-1 $424 $183 $301 $425 forward $112 $-1 #
coedge $-1 $183 $424 $305 $426 forward $112 $-1 #
edge $-1 $307 -43.645796819864394 $303 43.645796819864394 $188 $427 forward 7 unknown #
coedge $-1 $185 $184 $424 $428 reversed $73 $-1 #
coedge $-1 $306 $305 $184 $294 forward $287 $-1 #
edge $-1 $429 -13.770930217052769 $297 13.770930217052769 $184 $430 forward 7 unknown #
coedge $-1 $301 $300 $185 $296 reversed $302 $-1 #
edge $-1 $431 -13.770930217052769 $298 13.770930217052769 $295 $432 forward 7 unknown #
vertex $-1 $187 $433 #
vertex $-1 $310 $434 #
straight-curve $-1 -71.395001068147835 0 -13.770930217052769 0 1 0 I I #
coedge $-1 $295 $189 $194 $310 reversed $302 $-1 #
coedge $-1 $189 $295 $289 $425 reversed $302 $-1 #
loop $-1 $-1 $189 $286 #
vertex $-1 $291 $435 #
straight-curve $-1 71.395001068147835 43.645796819864394 0 0 0 -1 I I #
coedge $-1 $293 $191 $290 $426 reversed $287 $-1 #
coedge $-1 $191 $293 $193 $309 reversed $287 $-1 #
vertex $-1 $291 $436 #
straight-curve $-1 71.395001068147835 -43.645796819864394 0 0 0 -1 I I #
edge $-1 $196 -71.395001068147835 $297 71.395001068147835 $306 $437 forward 7 unknown #
edge $-1 $298 -71.395001068147835 $195 71.395001068147835 $300 $438 forward 7 unknown #
point $-1 71.395001068147835 43.645796819864394 -13.770930217052769 #
point $-1 71.395001068147835 -43.645796819864394 -13.770930217052769 #
face $-1 $-1 $329 $28 $-1 $439 forward single #
plane-surface $-1 -76.55241133011593 -34.587025996472491 0 0 -1 0 0 0 -1 forward_v I I I I #
coedge $-1 $440 $441 $332 $442 forward $199 $-1 #
coedge $-1 $325 $201 $202 $321 reversed $120 $-1 #
coedge $-1 $201 $325 $328 $443 reversed $120 $-1 #
coedge $-1 $441 $440 $201 $319 reversed $199 $-1 #
edge $-1 $444 -13.770930217052769 $445 13.770930217052769 $318 $446 forward 7 unknown #
coedge $-1 $203 $202 $440 $447 forward $77 $-1 #
edge $-1 $323 -5.1574102619680957 $445 5.1574102619680957 $316 $448 forward 7 unknown #
edge $-1 $449 -5.1574102619680957 $211 5.1574102619680957 $208 $450 forward 7 unknown #
vertex $-1 $321 $451 #
straight-curve $-1 -71.395001068147835 0 -13.770930217052769 0 -1 0 I I #
coedge $-1 $317 $316 $205 $326 reversed $120 $-1 #
edge $-1 $330 -13.770930217052769 $323 13.770930217052769 $325 $452 forward 7 unknown #
coedge $-1 $453 $206 $209 $333 forward $329 $-1 #
coedge $-1 $206 $453 $317 $443 forward $329 $-1 #
loop $-1 $-1 $206 $313 #
vertex $-1 $207 $454 #
straight-curve $-1 -71.395001068147835 0 13.770930217052769 0 1 0 I I #
coedge $-1 $209 $208 $315 $442 reversed $210 $-1 #
edge $-1 $212 -5.1574102619680957 $455 5.1574102619680957 $209 $456 forward 7 unknown #
point $-1 -71.395001068147835 -34.587025996472491 -13.770930217052769 #
point $-1 -71.395001068147835 -34.587025996472491 13.770930217052769 #
face $-1 $-1 $350 $29 $-1 $457 forward single #
loop $-1 $-1 $458 $214 #
plane-surface $-1 81.709821592084026 -37.505831119018133 0 -1 0 0 0 0 1 forward_v I I I I #
coedge $-1 $341 $459 $460 $461 forward $215 $-1 #
coedge $-1 $218 $217 $462 $463 forward $81 $-1 #
coedge $-1 $346 $339 $217 $342 reversed $215 $-1 #
edge $-1 $344 -5.1574102619680957 $464 5.1574102619680957 $341 $465 forward 7 unknown #
edge $-1 $466 -5.1574102619680957 $225 5.1574102619680957 $223 $467 forward 7 unknown #
vertex $-1 $342 $468 #
straight-curve $-1 71.395001068147835 0 -13.770930217052769 0 1 0 I I #
coedge $-1 $459 $341 $220 $347 reversed $215 $-1 #
edge $-1 $351 -13.770930217052769 $344 13.770930217052769 $346 $469 forward 7 unknown #
coedge $-1 $470 $221 $224 $354 forward $350 $-1 #
coedge $-1 $221 $470 $459 $471 forward $350 $-1 #
loop $-1 $-1 $221 $336 #
vertex $-1 $222 $472 #
straight-curve $-1 71.395001068147835 0 13.770930217052769 0 -1 0 I I #
coedge $-1 $224 $223 $458 $473 reversed $128 $-1 #
edge $-1 $226 -5.1574102619680957 $474 5.1574102619680957 $224 $475 forward 7 unknown #
point $-1 71.395001068147835 -40.424636241563775 -13.770930217052769 #
point $-1 71.395001068147835 -40.424636241563775 13.770930217052769 #
loop $-1 $-1 $236 $228 #
plane-surface $-1 0 -43.645796819864394 0 0 1 0 0 0 1 forward_v I I I I #
coedge $-1 $360 $231 $233 $364 reversed $136 $-1 #
coedge $-1 $231 $359 $476 $477 reversed $136 $-1 #
coedge $-1 $239 $234 $231 $362 forward $229 $-1 #
edge $-1 $365 -34.485651996883625 $478 -31.233927790050977 $361 $479 forward 7 unknown #
coedge $-1 $233 $232 $368 $480 reversed $85 $-1 #
edge $-1 $481 -1.0034820483328475e-014 $365 4.8596256405340394 $359 $482 forward 7 unknown #
vertex $-1 $235 $483 #
straight-curve $-1 23.200091509395541 -40.394072613031746 13.770930217052769 -1 0 0 I I #
coedge $-1 $476 $236 $239 $372 reversed $357 $-1 #
coedge $-1 $236 $476 $363 $480 forward $357 $-1 #
vertex $-1 $237 $484 #
straight-curve $-1 54.642940987126586 -43.645796819864394 52.852341963231439 0 0 1 I I #
straight-curve $-1 54.642940987126586 -43.645796819864387 10.159524528289111 0 -0.66913059716165679 -0.74314483375859142 I I #
edge $-1 $478 38.157425050455579 $240 54.642940987126586 $367 $485 forward 7 unknown #
point $-1 54.642940987126586 -43.645796819864394 13.770930217052769 #
point $-1 54.642940987126586 -40.394072613031746 13.770930217052769 #
edge $-1 $486 1 $486 0 $243 $-1 forward 7 unknown #
vertex $-1 $244 $487 #
ellipse-curve $-1 46.400183018791083 -40.6399900339919 10.722719630604203 0 -0.74314483375859142 0.66913059716165679 0.5 0 0 1 I I #
point $-1 46.900183018791083 -42.019934716448077 11.965227372670947 #
plane-surface $-1 0 0 13.770930217052769 0 0 1 1 0 0 forward_v I I I I #
coedge $-1 $390 $389 $382 $488 forward $248 $-1 #
coedge $-1 $382 $250 $252 $386 reversed $151 $-1 #
coedge $-1 $250 $381 $380 $488 reversed $151 $-1 #
coedge $-1 $258 $253 $250 $384 forward $259 $-1 #
edge $-1 $387 -5.0025199130688733 $489 9.3656955957282904 $383 $490 forward 7 unknown #
coedge $-1 $252 $251 $390 $491 reversed $94 $-1 #
edge $-1 $492 -87.291593639728774 $387 -68.535220217531091 $381 $493 forward 7 unknown #
vertex $-1 $254 $494 #
straight-curve $-1 -11.173890357940088 29.277581311067216 13.770930217052776 1 0 0 I I #
coedge $-1 $380 $255 $258 $394 reversed $248 $-1 #
coedge $-1 $255 $380 $385 $491 forward $248 $-1 #
vertex $-1 $256 $495 #
straight-curve $-1 -34.560554691602221 43.645796819864394 83.604003932169945 0 0 1 I I #
straight-curve $-1 -34.560554691602221 -23.223442840166513 57.824521141483132 0 0.76604443648966558 -0.64278761758704617 I I #
edge $-1 $489 10.135006740158133 $260 34.560554691602221 $389 $496 forward 7 unknown #
point $-1 -34.560554691602221 43.645796819864394 13.770930217052769 #
point $-1 -34.560554691602221 29.27758131106723 13.770930217052765 #
edge $-1 $497 1 $497 0 $263 $-1 forward 7 unknown #
vertex $-1 $264 $498 #
ellipse-curve $-1 -22.347780715880177 34.866068409717272 5.8411613146618437 0 0.64278761758704617 0.76604443648966558 1.5 0 0 1 I I #
point $-1 -20.847780715880177 36.461689065465826 7.7427479237390529 #
loop $-1 $-1 $275 $267 #
plane-surface $-1 0 43.645796819864394 0 0 -1 0 0 0 -1 forward_v I I I I #
coedge $-1 $404 $270 $272 $408 reversed $166 $-1 #
coedge $-1 $270 $403 $499 $500 reversed $166 $-1 #
coedge $-1 $278 $273 $270 $406 forward $268 $-1 #
edge $-1 $409 -5.0025199130688733 $501 9.3656955957282904 $405 $502 forward 7 unknown #
coedge $-1 $272 $271 $412 $503 reversed $103 $-1 #
edge $-1 $504 -87.291593639728774 $409 -68.535220217531091 $403 $505 forward 7 unknown #
vertex $-1 $274 $506 #
straight-curve $-1 11.173890357940088 29.277581311067216 13.770930217052776 1 0 0 I I #
coedge $-1 $499 $275 $278 $416 reversed $401 $-1 #
coedge $-1 $275 $499 $407 $503 forward $401 $-1 #
vertex $-1 $276 $507 #
straight-curve $-1 10.135006740158133 43.645796819864394 83.604003932169945 0 0 1 I I #
straight-curve $-1 10.135006740158133 -23.223442840166513 57.824521141483132 0 0.76604443648966558 -0.64278761758704617 I I #
edge $-1 $501 -34.560554691602221 $279 -10.135006740158133 $411 $508 forward 7 unknown #
point $-1 10.135006740158133 43.645796819864394 13.770930217052769 #
point $-1 10.135006740158133 29.27758131106723 13.770930217052765 #
edge $-1 $509 1 $509 0 $282 $-1 forward 7 unknown #
vertex $-1 $283 $510 #
ellipse-curve $-1 22.347780715880177 34.866068409717272 5.8411613146618437 0 0.64278761758704617 0.76604443648966558 1.5 0 0 1 I I #
point $-1 23.847780715880177 36.461689065465826 7.7427479237390529 #
plane-surface $-1 0 43.645796819864394 0 0 -1 0 0 0 -1 forward_v I I I I #
coedge $-1 $290 $289 $292 $428 forward $112 $-1 #
edge $-1 $303 -71.395001068147835 $431 71.395001068147835 $301 $511 forward 7 unknown #
edge $-1 $429 -71.395001068147835 $307 71.395001068147835 $305 $512 forward 7 unknown #
straight-curve $-1 71.395001068147835 0 13.770930217052769 0 1 0 I I #
edge $-1 $431 -43.645796819864394 $429 43.645796819864394 $292 $513 forward 7 unknown #
vertex $-1 $428 $514 #
straight-curve $-1 -71.395001068147835 -43.645796819864394 0 0 0 -1 I I #
vertex $-1 $425 $515 #
straight-curve $-1 -71.395001068147835 43.645796819864394 0 0 0 -1 I I #
point $-1 -71.395001068147835 -43.645796819864394 -13.770930217052769 #
point $-1 -71.395001068147835 43.645796819864394 -13.770930217052769 #
point $-1 71.395001068147835 43.645796819864394 13.770930217052769 #
point $-1 71.395001068147835 -43.645796819864394 13.770930217052769 #
straight-curve $-1 0 -43.645796819864394 -13.770930217052769 -1 0 0 I I #
straight-curve $-1 0 43.645796819864394 -13.770930217052769 1 0 0 I I #
plane-surface $-1 0 0 13.770930217052769 0 0 1 1 0 0 forward_v I I I I #
coedge $-1 $318 $315 $320 $447 reversed $199 $-1 #
coedge $-1 $315 $318 $453 $516 reversed $199 $-1 #
edge $-1 $455 -13.770930217052769 $449 13.770930217052769 $332 $517 forward 7 unknown #
edge $-1 $444 -5.1574102619680957 $330 5.1574102619680957 $317 $518 forward 7 unknown #
vertex $-1 $516 $519 #
vertex $-1 $447 $520 #
straight-curve $-1 -81.709821592084026 -40.424636241563775 0 0 0 -1 I I #
edge $-1 $445 -2.918805122545642 $449 2.918805122545642 $440 $521 forward 7 unknown #
straight-curve $-1 -76.55241133011593 -40.424636241563775 -13.770930217052769 -1 0 0 I I #
vertex $-1 $322 $522 #
straight-curve $-1 -76.55241133011593 -34.587025996472491 -13.770930217052769 1 0 0 I I #
point $-1 -71.395001068147835 -40.424636241563775 -13.770930217052769 #
straight-curve $-1 -71.395001068147835 -40.424636241563775 0 0 0 -1 I I #
coedge $-1 $328 $327 $441 $516 forward $329 $-1 #
point $-1 -71.395001068147835 -40.424636241563775 13.770930217052769 #
vertex $-1 $333 $523 #
straight-curve $-1 -76.55241133011593 -34.587025996472491 13.770930217052769 -1 0 0 I I #
plane-surface $-1 0 0 13.770930217052769 0 0 1 1 0 0 forward_v I I I I #
coedge $-1 $462 $524 $353 $473 forward $337 $-1 #
coedge $-1 $339 $346 $349 $471 reversed $215 $-1 #
coedge $-1 $524 $462 $339 $461 reversed $337 $-1 #
edge $-1 $525 -13.770930217052769 $464 13.770930217052769 $460 $526 forward 7 unknown #
coedge $-1 $460 $458 $340 $463 reversed $337 $-1 #
edge $-1 $464 -2.918805122545642 $466 2.918805122545642 $462 $527 forward 7 unknown #
vertex $-1 $463 $528 #
straight-curve $-1 76.55241133011593 -34.587025996472491 -13.770930217052769 1 0 0 I I #
vertex $-1 $473 $529 #
straight-curve $-1 76.55241133011593 -40.424636241563775 -13.770930217052769 -1 0 0 I I #
point $-1 71.395001068147835 -34.587025996472491 -13.770930217052769 #
straight-curve $-1 71.395001068147835 -34.587025996472491 0 0 0 -1 I I #
coedge $-1 $349 $348 $524 $530 forward $350 $-1 #
edge $-1 $525 -5.1574102619680957 $351 5.1574102619680957 $459 $531 forward 7 unknown #
point $-1 71.395001068147835 -34.587025996472491 13.770930217052769 #
edge $-1 $474 -13.770930217052769 $466 13.770930217052769 $458 $532 forward 7 unknown #
vertex $-1 $530 $533 #
straight-curve $-1 76.55241133011593 -40.424636241563775 13.770930217052769 1 0 0 I I #
coedge $-1 $368 $367 $360 $477 forward $357 $-1 #
edge $-1 $478 39.081411746178674 $481 42.692817434942334 $476 $534 forward 7 unknown #
vertex $-1 $372 $535 #
straight-curve $-1 38.157425050455579 -74.879724609915371 13.770930217052772 0 -1 0 I I #
edge $-1 $481 14.957333541060038 $369 31.442849477731045 $368 $536 forward 7 unknown #
vertex $-1 $480 $537 #
straight-curve $-1 38.157425050455579 -43.645796819864387 10.159524528289111 0 0.66913059716165679 0.74314483375859142 I I #
point $-1 38.157425050455579 -40.394072613031746 13.770930217052769 #
point $-1 54.642940987126586 -43.645796819864394 10.159524528289104 #
straight-curve $-1 0 -43.645796819864394 13.770930217052769 1 0 0 I I #
vertex $-1 $375 $538 #
point $-1 46.900183018791083 -40.6399900339919 10.722719630604203 #
edge $-1 $489 69.83307371511718 $492 81.889438301744633 $380 $539 forward 7 unknown #
vertex $-1 $394 $540 #
straight-curve $-1 -10.135006740158133 34.280101224136104 13.770930217052765 0 1 0 I I #
edge $-1 $492 -1.0388836177819556 $391 23.386664333662132 $390 $541 forward 7 unknown #
vertex $-1 $491 $542 #
straight-curve $-1 -10.135006740158133 -23.223442840166513 57.824521141483132 0 -0.76604443648966558 0.64278761758704617 I I #
point $-1 -10.135006740158133 29.27758131106723 13.770930217052765 #
point $-1 -34.560554691602221 43.645796819864387 1.7145656304253194 #
straight-curve $-1 0 43.645796819864394 13.770930217052769 -1 0 0 I I #
vertex $-1 $397 $543 #
point $-1 -20.847780715880177 34.866068409717272 5.8411613146618437 #
coedge $-1 $412 $411 $404 $500 forward $401 $-1 #
edge $-1 $501 69.83307371511718 $504 81.889438301744633 $499 $544 forward 7 unknown #
vertex $-1 $416 $545 #
straight-curve $-1 34.560554691602221 34.280101224136104 13.770930217052765 0 1 0 I I #
edge $-1 $504 -23.386664333662132 $413 1.0388836177819556 $412 $546 forward 7 unknown #
vertex $-1 $503 $547 #
straight-curve $-1 34.560554691602221 -23.223442840166513 57.824521141483132 0 -0.76604443648966558 0.64278761758704617 I I #
point $-1 34.560554691602221 29.27758131106723 13.770930217052765 #
point $-1 10.135006740158133 43.645796819864387 1.7145656304253194 #
straight-curve $-1 0 43.645796819864394 13.770930217052769 -1 0 0 I I #
vertex $-1 $419 $548 #
point $-1 23.847780715880177 34.866068409717272 5.8411613146618437 #
straight-curve $-1 0 43.645796819864394 13.770930217052769 -1 0 0 I I #
straight-curve $-1 0 -43.645796819864394 13.770930217052769 1 0 0 I I #
straight-curve $-1 -71.395001068147835 0 13.770930217052769 0 -1 0 I I #
point $-1 -71.395001068147835 -43.645796819864394 13.770930217052769 #
point $-1 -71.395001068147835 43.645796819864394 13.770930217052769 #
edge $-1 $455 -2.918805122545642 $444 2.918805122545642 $441 $549 forward 7 unknown #
straight-curve $-1 -81.709821592084026 -34.587025996472491 0 0 0 -1 I I #
straight-curve $-1 -76.55241133011593 -40.424636241563775 13.770930217052769 1 0 0 I I #
point $-1 -81.709821592084026 -40.424636241563775 13.770930217052769 #
point $-1 -81.709821592084026 -40.424636241563775 -13.770930217052769 #
straight-curve $-1 -81.709821592084026 -37.505831119018133 -13.770930217052769 0 1 0 I I #
point $-1 -81.709821592084026 -34.587025996472491 -13.770930217052769 #
point $-1 -81.709821592084026 -34.587025996472491 13.770930217052769 #
coedge $-1 $458 $460 $470 $530 reversed $337 $-1 #
vertex $-1 $530 $550 #
straight-curve $-1 81.709821592084026 -34.587025996472491 0 0 0 -1 I I #
straight-curve $-1 81.709821592084026 -37.505831119018133 -13.770930217052769 0 -1 0 I I #
point $-1 81.709821592084026 -34.587025996472491 -13.770930217052769 #
point $-1 81.709821592084026 -40.424636241563775 -13.770930217052769 #
edge $-1 $474 -2.918805122545642 $525 2.918805122545642 $524 $551 forward 7 unknown #
straight-curve $-1 76.55241133011593 -34.587025996472491 13.770930217052769 -1 0 0 I I #
straight-curve $-1 81.709821592084026 -40.424636241563775 0 0 0 -1 I I #
point $-1 81.709821592084026 -40.424636241563775 13.770930217052769 #
straight-curve $-1 38.157425050455579 -43.645796819864394 52.852341963231439 0 0 -1 I I #
point $-1 38.157425050455579 -43.645796819864394 13.770930217052769 #
straight-curve $-1 23.200091509395541 -43.645796819864394 10.159524528289097 1 0 0 I I #
point $-1 38.157425050455579 -43.645796819864394 10.159524528289104 #
point $-1 46.400183018791083 -40.268417617112611 10.388154332023376 #
straight-curve $-1 -10.135006740158133 43.645796819864394 83.604003932169945 0 0 -1 I I #
point $-1 -10.135006740158133 43.645796819864394 13.770930217052769 #
straight-curve $-1 -11.173890357940088 43.645796819864387 1.7145656304253265 -1 0 0 I I #
point $-1 -10.135006740158133 43.645796819864387 1.7145656304253194 #
point $-1 -22.347780715880177 33.901886983336709 4.6920946599273448 #
straight-curve $-1 34.560554691602221 43.645796819864394 83.604003932169945 0 0 -1 I I #
point $-1 34.560554691602221 43.645796819864394 13.770930217052769 #
straight-curve $-1 11.173890357940088 43.645796819864387 1.7145656304253265 -1 0 0 I I #
point $-1 34.560554691602221 43.645796819864387 1.7145656304253194 #
point $-1 22.347780715880177 33.901886983336709 4.6920946599273448 #
straight-curve $-1 -81.709821592084026 -37.505831119018133 13.770930217052769 0 -1 0 I I #
point $-1 81.709821592084026 -34.587025996472491 13.770930217052769 #
straight-curve $-1 81.709821592084026 -37.505831119018133 13.770930217052769 0 1 0 I I #
End-of-ACIS-data 