500 0 9 0           
7 Unknown 11 ACIS 5.0 NT 24 Fri Mar 26 02:18:09 1999 
-1 9.9999999999999995e-007 1e-010 
body $-1 $9 $-1 $10 #
body $-1 $11 $-1 $12 #
body $-1 $13 $-1 $14 #
body $-1 $15 $-1 $16 #
body $-1 $17 $-1 $18 #
body $-1 $19 $-1 $20 #
body $-1 $21 $-1 $22 #
body $-1 $23 $-1 $24 #
body $-1 $25 $-1 $26 #
lump $-1 $-1 $27 $0 #
transform $-1 1 0 0 0 1 0 0 0 1 69.406414990691857 34.750019280718234 13.934156417412547 1 rotate no_reflect no_shear #
lump $-1 $-1 $28 $1 #
transform $-1 1 0 0 0 1 0 0 0 1 69.406414990691857 34.750019280718234 13.934156417412547 1 rotate no_reflect no_shear #
lump $-1 $-1 $29 $2 #
transform $-1 1 0 0 0 1 0 0 0 1 69.406414990691857 34.750019280718234 13.934156417412547 1 rotate no_reflect no_shear #
lump $-1 $-1 $30 $3 #
transform $-1 1 0 0 0 1 0 0 0 1 69.406414990691857 34.750019280718234 13.934156417412547 1 rotate no_reflect no_shear #
lump $-1 $-1 $31 $4 #
transform $-1 1 0 0 0 1 0 0 0 1 69.406414990691857 34.750019280718234 13.934156417412547 1 rotate no_reflect no_shear #
lump $-1 $-1 $32 $5 #
transform $-1 1 0 0 0 1 0 0 0 1 69.406414990691857 34.750019280718234 13.934156417412547 1 rotate no_reflect no_shear #
lump $-1 $-1 $33 $6 #
transform $-1 1 0 0 0 1 0 0 0 1 69.406414990691857 34.750019280718234 13.934156417412547 1 rotate no_reflect no_shear #
lump $-1 $-1 $34 $7 #
transform $-1 1 0 0 0 1 0 0 0 1 69.406414990691857 34.750019280718234 13.934156417412547 1 rotate no_reflect no_shear #
lump $-1 $-1 $35 $8 #
transform $-1 1 0 0 0 1 0 0 0 1 69.406414990691857 34.750019280718234 13.934156417412547 1 rotate no_reflect no_shear #
shell $-1 $-1 $-1 $36 $-1 $9 #
shell $-1 $-1 $-1 $37 $-1 $11 #
shell $-1 $-1 $-1 $38 $-1 $13 #
shell $-1 $-1 $-1 $39 $-1 $15 #
shell $-1 $-1 $-1 $40 $-1 $17 #
shell $-1 $-1 $-1 $41 $-1 $19 #
shell $-1 $-1 $-1 $42 $-1 $21 #
shell $-1 $-1 $-1 $43 $-1 $23 #
shell $-1 $-1 $-1 $44 $-1 $25 #
face $-1 $45 $46 $27 $-1 $47 forward single #
face $-1 $48 $49 $28 $-1 $50 forward single #
face $-1 $51 $52 $29 $-1 $53 reversed single #
face $-1 $54 $55 $30 $-1 $56 forward single #
face $-1 $57 $58 $31 $-1 $59 forward single #
face $-1 $60 $61 $32 $-1 $62 forward single #
face $-1 $63 $64 $33 $-1 $65 reversed single #
face $-1 $66 $67 $34 $-1 $68 forward single #
face $-1 $69 $70 $35 $-1 $71 forward single #
face $-1 $72 $73 $27 $-1 $74 reversed single #
loop $-1 $-1 $75 $36 #
plane-surface $-1 0 0 13.934156417412547 0 0 1 1 0 0 forward_v I I I I #
face $-1 $76 $77 $28 $-1 $78 reversed single #
loop $-1 $-1 $79 $37 #
plane-surface $-1 0 -28.83571045385245 -5.9975916428676141 0 0 1 1 0 0 forward_v I I I I #
face $-1 $80 $81 $29 $-1 $82 reversed single #
loop $-1 $-1 $83 $38 #
plane-surface $-1 -152.94606253733843 12.24218311715795 119.89662483891384 0 1 0 -0.6018150307709319 0 0.79863550430605224 forward_v I I I I #
face $-1 $84 $85 $30 $-1 $86 forward single #
loop $-1 $87 $88 $39 #
cone-surface $-1 -65.855318615637458 14.695490493125398 11.085645637843825 0.6018150307709319 0 -0.79863550430605224 0.19965887607651306 0 0.15045375769273298 1 I I 0 1 0.25 forward I I I I #
face $-1 $89 $90 $31 $-1 $91 forward single #
loop $-1 $92 $93 $40 #
cone-surface $-1 -65.855318615637458 18.375451557076573 11.085645637843825 0.6018150307709319 0 -0.79863550430605224 0.19965887607651306 0 0.15045375769273298 1 I I 0 1 0.25 forward I I I I #
face $-1 $94 $95 $32 $-1 $96 forward single #
loop $-1 $97 $98 $41 #
cone-surface $-1 -65.855318615637458 22.055412621027749 11.085645637843825 0.6018150307709319 0 -0.79863550430605224 0.19965887607651306 0 0.15045375769273298 1 I I 0 1 0.25 forward I I I I #
face $-1 $99 $100 $33 $-1 $101 reversed single #
loop $-1 $-1 $102 $42 #
plane-surface $-1 -36.930381129932996 27.080209380087688 95.761233547522906 0.64278761758704617 0 0.76604443648966558 0.76604443648966558 0 -0.64278761758704617 forward_v I I I I #
face $-1 $103 $104 $34 $-1 $105 forward single #
loop $-1 $106 $107 $43 #
cone-surface $-1 64.483948872575695 23.793147994103165 9.6228323065419854 -0.64278761758704617 0 -0.76604443648966558 0.76604443648966558 0 -0.64278761758704617 1 I I 0 1 1 forward I I I I #
face $-1 $108 $109 $35 $-1 $110 forward single #
loop $-1 $111 $112 $44 #
cone-surface $-1 64.483948872575695 30.36727076607221 9.6228323065419854 -0.64278761758704617 0 -0.76604443648966558 0.76604443648966558 0 -0.64278761758704617 1 I I 0 1 1 forward I I I I #
face $-1 $113 $114 $27 $-1 $115 reversed single #
loop $-1 $-1 $116 $45 #
plane-surface $-1 0 0 -13.934156417412547 0 0 1 1 0 0 forward_v I I I I #
coedge $-1 $117 $118 $119 $120 forward $46 $-1 #
face $-1 $121 $122 $28 $-1 $123 reversed single #
loop $-1 $-1 $124 $48 #
plane-surface $-1 0 -28.83571045385245 -10.370434150276079 0 0 1 1 0 0 forward_v I I I I #
coedge $-1 $125 $126 $127 $128 reversed $49 $-1 #
face $-1 $129 $130 $29 $-1 $131 reversed single #
loop $-1 $-1 $132 $51 #
plane-surface $-1 -69.406414990691857 18.375451557076573 9.035770362581161 -0.6018150307709319 0 0.79863550430605224 0.79863550430605224 0 0.6018150307709319 forward_v I I I I #
coedge $-1 $133 $134 $135 $136 reversed $52 $-1 #
face $-1 $-1 $137 $30 $-1 $138 forward single #
loop $-1 $139 $140 $54 #
cone-surface $-1 -65.479184221405632 14.695490493125398 10.586498447652543 0.6018150307709319 0 -0.79863550430605224 0.099829438038256529 0 0.075226878846366488 1 I I -0.70710678118654746 0.70710678118654746 0.125 forward I I I I #
loop $-1 $-1 $141 $39 #
coedge $-1 $88 $88 $142 $143 reversed $55 $-1 #
face $-1 $-1 $144 $31 $-1 $145 forward single #
loop $-1 $146 $147 $57 #
cone-surface $-1 -65.479184221405632 18.375451557076573 10.586498447652543 0.6018150307709319 0 -0.79863550430605224 0.099829438038256529 0 0.075226878846366488 1 I I -0.70710678118654746 0.70710678118654746 0.125 forward I I I I #
loop $-1 $-1 $148 $40 #
coedge $-1 $93 $93 $149 $150 reversed $58 $-1 #
face $-1 $-1 $151 $32 $-1 $152 forward single #
loop $-1 $153 $154 $60 #
cone-surface $-1 -65.479184221405632 22.055412621027749 10.586498447652543 0.6018150307709319 0 -0.79863550430605224 0.099829438038256529 0 0.075226878846366488 1 I I -0.70710678118654746 0.70710678118654746 0.125 forward I I I I #
loop $-1 $-1 $155 $41 #
coedge $-1 $98 $98 $156 $157 reversed $61 $-1 #
face $-1 $158 $159 $33 $-1 $160 forward single #
loop $-1 $-1 $161 $63 #
plane-surface $-1 52.29678714431634 19.410399479457141 202.09802966814775 0 1 0 0.64278761758704617 0 0.76604443648966558 forward_v I I I I #
coedge $-1 $162 $163 $164 $165 reversed $64 $-1 #
face $-1 $-1 $166 $34 $-1 $167 forward single #
loop $-1 $168 $169 $66 #
cone-surface $-1 63.64963145658443 23.793147994103165 8.6285315494960653 -0.64278761758704617 0 -0.76604443648966558 0.38302221824483279 0 -0.32139380879352308 1 I I -0.70710678118654746 0.70710678118654746 0.5 forward I I I I #
loop $-1 $-1 $170 $43 #
coedge $-1 $107 $107 $171 $172 reversed $67 $-1 #
face $-1 $-1 $173 $35 $-1 $174 forward single #
loop $-1 $175 $176 $69 #
cone-surface $-1 63.64963145658443 30.36727076607221 8.6285315494960653 -0.64278761758704617 0 -0.76604443648966558 0.38302221824483279 0 -0.32139380879352308 1 I I -0.70710678118654746 0.70710678118654746 0.5 forward I I I I #
loop $-1 $-1 $177 $44 #
coedge $-1 $112 $112 $178 $179 reversed $70 $-1 #
face $-1 $180 $181 $27 $-1 $182 reversed single #
loop $-1 $-1 $183 $72 #
plane-surface $-1 0 -34.750019280718234 0 0 1 0 0 0 1 forward_v I I I I #
coedge $-1 $184 $185 $186 $187 forward $73 $-1 #
coedge $-1 $188 $75 $189 $190 forward $46 $-1 #
coedge $-1 $75 $188 $191 $192 forward $46 $-1 #
coedge $-1 $193 $194 $75 $120 reversed $195 $-1 #
edge $-1 $196 -34.750019280718234 $197 34.750019280718234 $119 $198 forward 7 unknown #
face $-1 $199 $200 $28 $-1 $201 reversed single #
loop $-1 $-1 $202 $76 #
plane-surface $-1 0 -22.921401626986665 -8.1840128965718471 0 -1 0 0 0 -1 forward_v I I I I #
coedge $-1 $203 $204 $205 $206 reversed $77 $-1 #
coedge $-1 $207 $79 $208 $209 forward $49 $-1 #
coedge $-1 $79 $207 $210 $211 reversed $49 $-1 #
coedge $-1 $212 $213 $79 $128 forward $214 $-1 #
edge $-1 $215 8.5035464000604399 $216 20.33216405379201 $127 $217 forward 7 unknown #
face $-1 $218 $219 $29 $-1 $220 reversed single #
loop $-1 $-1 $221 $80 #
plane-surface $-1 -152.94606253733843 24.508719996995197 119.89662483891384 0 -1 0 0.6018150307709319 0 -0.79863550430605224 forward_v I I I I #
coedge $-1 $222 $223 $224 $225 reversed $81 $-1 #
coedge $-1 $134 $83 $226 $227 reversed $52 $-1 #
coedge $-1 $83 $133 $222 $228 reversed $52 $-1 #
coedge $-1 $224 $229 $83 $136 forward $230 $-1 #
edge $-1 $231 7.06661627797736 $232 13.566993997315222 $135 $233 forward 7 unknown #
loop $-1 $-1 $142 $84 #
plane-surface $-1 -69.406414990691857 18.375451557076573 9.035770362581161 -0.6018150307709319 0 0.79863550430605224 0.79863550430605224 0 0.6018150307709319 forward_v I I I I #
loop $-1 $-1 $234 $54 #
coedge $-1 $140 $140 $141 $235 reversed $85 $-1 #
coedge $-1 $141 $141 $140 $235 forward $87 $-1 #
coedge $-1 $142 $142 $88 $143 forward $137 $-1 #
edge $-1 $236 0 $236 6.2831853071796004 $142 $237 forward 7 unknown #
loop $-1 $-1 $149 $89 #
plane-surface $-1 -69.406414990691857 18.375451557076573 9.035770362581161 -0.6018150307709319 0 0.79863550430605224 0.79863550430605224 0 0.6018150307709319 forward_v I I I I #
loop $-1 $-1 $238 $57 #
coedge $-1 $147 $147 $148 $239 reversed $90 $-1 #
coedge $-1 $148 $148 $147 $239 forward $92 $-1 #
coedge $-1 $149 $149 $93 $150 forward $144 $-1 #
edge $-1 $240 0 $240 6.2831853071796004 $149 $241 forward 7 unknown #
loop $-1 $-1 $156 $94 #
plane-surface $-1 -69.406414990691857 18.375451557076573 9.035770362581161 -0.6018150307709319 0 0.79863550430605224 0.79863550430605224 0 0.6018150307709319 forward_v I I I I #
loop $-1 $-1 $242 $60 #
coedge $-1 $154 $154 $155 $243 reversed $95 $-1 #
coedge $-1 $155 $155 $154 $243 forward $97 $-1 #
coedge $-1 $156 $156 $98 $157 forward $151 $-1 #
edge $-1 $244 0 $244 6.2831853071796004 $156 $245 forward 7 unknown #
face $-1 $246 $247 $33 $-1 $248 reversed single #
loop $-1 $-1 $164 $99 #
plane-surface $-1 0 0 13.934156417412547 0 0 1 1 0 0 forward_v I I I I #
coedge $-1 $249 $250 $251 $252 reversed $100 $-1 #
coedge $-1 $253 $102 $254 $255 reversed $64 $-1 #
coedge $-1 $102 $253 $249 $256 forward $64 $-1 #
coedge $-1 $251 $257 $102 $165 forward $159 $-1 #
edge $-1 $258 -21.209914590674391 $259 -5.8702947894132969 $164 $260 forward 7 unknown #
loop $-1 $-1 $171 $103 #
plane-surface $-1 -36.930381129932996 27.080209380087688 95.761233547522906 0.64278761758704617 0 0.76604443648966558 0.76604443648966558 0 -0.64278761758704617 forward_v I I I I #
loop $-1 $-1 $261 $66 #
coedge $-1 $169 $169 $170 $262 reversed $104 $-1 #
coedge $-1 $170 $170 $169 $262 forward $106 $-1 #
coedge $-1 $171 $171 $107 $172 forward $166 $-1 #
edge $-1 $263 0 $263 6.2831853071796004 $171 $264 forward 7 unknown #
loop $-1 $-1 $178 $108 #
plane-surface $-1 -36.930381129932996 27.080209380087688 95.761233547522906 0.64278761758704617 0 0.76604443648966558 0.76604443648966558 0 -0.64278761758704617 forward_v I I I I #
loop $-1 $-1 $265 $69 #
coedge $-1 $176 $176 $177 $266 reversed $109 $-1 #
coedge $-1 $177 $177 $176 $266 forward $111 $-1 #
coedge $-1 $178 $178 $112 $179 forward $173 $-1 #
edge $-1 $267 0 $267 6.2831853071796004 $178 $268 forward 7 unknown #
face $-1 $269 $270 $27 $-1 $271 reversed single #
loop $-1 $-1 $272 $113 #
plane-surface $-1 -69.406414990691857 0 0 1 0 0 0 0 -1 forward_v I I I I #
coedge $-1 $273 $191 $274 $275 forward $114 $-1 #
coedge $-1 $276 $116 $273 $277 forward $73 $-1 #
coedge $-1 $116 $276 $278 $279 forward $73 $-1 #
coedge $-1 $194 $193 $116 $187 reversed $195 $-1 #
edge $-1 $280 -34.750019280718234 $281 34.750019280718234 $186 $282 forward 7 unknown #
coedge $-1 $118 $117 $283 $284 forward $46 $-1 #
coedge $-1 $285 $286 $117 $190 reversed $270 $-1 #
edge $-1 $197 -69.406414990691857 $287 69.406414990691857 $189 $288 forward 7 unknown #
coedge $-1 $183 $289 $118 $192 reversed $114 $-1 #
edge $-1 $290 -69.406414990691857 $196 69.406414990691857 $191 $291 forward 7 unknown #
coedge $-1 $186 $119 $289 $292 forward $195 $-1 #
coedge $-1 $119 $186 $285 $293 reversed $195 $-1 #
loop $-1 $-1 $193 $269 #
vertex $-1 $120 $294 #
vertex $-1 $120 $295 #
straight-curve $-1 69.406414990691857 0 13.934156417412547 0 1 0 I I #
face $-1 $296 $297 $28 $-1 $298 reversed single #
loop $-1 $-1 $299 $121 #
plane-surface $-1 -69.406414990691857 0 0 1 0 0 0 0 -1 forward_v I I I I #
coedge $-1 $300 $208 $213 $301 reversed $122 $-1 #
coedge $-1 $302 $124 $303 $304 reversed $77 $-1 #
coedge $-1 $124 $302 $300 $305 forward $77 $-1 #
coedge $-1 $213 $212 $124 $206 forward $214 $-1 #
edge $-1 $306 -20.33216405379201 $307 -8.5035464000604399 $205 $308 forward 7 unknown #
coedge $-1 $126 $125 $299 $309 reversed $49 $-1 #
coedge $-1 $202 $310 $125 $209 reversed $122 $-1 #
edge $-1 $215 -69.406414990691857 $311 69.406414990691857 $208 $312 forward 7 unknown #
coedge $-1 $313 $314 $126 $211 forward $297 $-1 #
edge $-1 $216 -69.406414990691857 $315 69.406414990691857 $210 $316 forward 7 unknown #
coedge $-1 $205 $127 $314 $317 forward $214 $-1 #
coedge $-1 $127 $205 $202 $301 forward $214 $-1 #
loop $-1 $-1 $127 $296 #
vertex $-1 $128 $318 #
vertex $-1 $317 $319 #
straight-curve $-1 69.406414990691857 -14.417855226926225 -5.9975916428676141 0 -1 0 I I #
face $-1 $-1 $230 $29 $-1 $320 forward single #
loop $-1 $-1 $321 $129 #
plane-surface $-1 -69.406414990691857 0 0 1 0 0 0 0 -1 forward_v I I I I #
coedge $-1 $322 $323 $324 $325 reversed $130 $-1 #
coedge $-1 $326 $132 $134 $228 forward $81 $-1 #
coedge $-1 $132 $326 $322 $327 forward $81 $-1 #
coedge $-1 $324 $135 $132 $225 forward $230 $-1 #
edge $-1 $232 3.0544573386196632 $328 15.32099421845691 $224 $329 forward 7 unknown #
coedge $-1 $330 $331 $133 $227 forward $219 $-1 #
edge $-1 $332 -50.912542056875758 $231 -46.014156002044373 $226 $333 forward 7 unknown #
edge $-1 $232 -8.1393547923794731 $332 0 $134 $334 forward 7 unknown #
coedge $-1 $135 $324 $330 $335 forward $230 $-1 #
loop $-1 $-1 $324 $218 #
vertex $-1 $227 $336 #
vertex $-1 $136 $337 #
straight-curve $-1 -76.473031268669217 12.24218311715795 13.934156417412545 1 0 0 I I #
coedge $-1 $234 $234 $-1 $338 reversed $139 $-1 #
edge $-1 $339 0 $339 6.2831853071796004 $140 $340 forward 7 unknown #
vertex $-1 $143 $341 #
ellipse-curve $-1 -66.156226131022919 14.695490493125398 11.484963389996853 -0.6018150307709319 0 0.79863550430605224 0.19965887607651306 0 0.15045375769273298 1 I I #
coedge $-1 $238 $238 $-1 $342 reversed $146 $-1 #
edge $-1 $343 0 $343 6.2831853071796004 $147 $344 forward 7 unknown #
vertex $-1 $150 $345 #
ellipse-curve $-1 -66.156226131022919 18.375451557076573 11.484963389996853 -0.6018150307709319 0 0.79863550430605224 0.19965887607651306 0 0.15045375769273298 1 I I #
coedge $-1 $242 $242 $-1 $346 reversed $153 $-1 #
edge $-1 $347 0 $347 6.2831853071796004 $154 $348 forward 7 unknown #
vertex $-1 $157 $349 #
ellipse-curve $-1 -66.156226131022919 22.055412621027749 11.484963389996853 -0.6018150307709319 0 0.79863550430605224 0.19965887607651306 0 0.15045375769273298 1 I I #
face $-1 $-1 $350 $33 $-1 $351 reversed single #
loop $-1 $-1 $352 $158 #
plane-surface $-1 69.406414990691857 0 0 -1 0 0 0 0 1 forward_v I I I I #
coedge $-1 $250 $161 $163 $256 reversed $100 $-1 #
coedge $-1 $161 $249 $353 $354 reversed $100 $-1 #
coedge $-1 $355 $164 $161 $252 forward $159 $-1 #
edge $-1 $259 34.438936396696832 $356 43.258021418533687 $251 $357 forward 7 unknown #
coedge $-1 $163 $162 $352 $358 reversed $64 $-1 #
coedge $-1 $359 $360 $162 $255 forward $350 $-1 #
edge $-1 $361 -93.890605895765191 $258 -82.378107923389635 $254 $362 forward 7 unknown #
edge $-1 $363 -138.81282998138371 $259 -127.30033200900817 $249 $364 forward 7 unknown #
coedge $-1 $164 $355 $359 $365 forward $159 $-1 #
vertex $-1 $255 $366 #
vertex $-1 $165 $367 #
straight-curve $-1 60.587329968855002 13.540104690043844 13.934156417412552 0 -1 0 I I #
coedge $-1 $261 $261 $-1 $368 reversed $168 $-1 #
edge $-1 $369 0 $369 6.2831853071796004 $169 $370 forward 7 unknown #
vertex $-1 $172 $371 #
ellipse-curve $-1 64.99687247977343 23.793147994103165 10.234110845343057 0.64278761758704617 0 0.76604443648966558 0.76604443648966558 0 -0.64278761758704617 1 I I #
coedge $-1 $265 $265 $-1 $372 reversed $175 $-1 #
edge $-1 $373 0 $373 6.2831853071796004 $176 $374 forward 7 unknown #
vertex $-1 $179 $375 #
ellipse-curve $-1 64.99687247977343 30.36727076607221 10.234110845343057 0.64278761758704617 0 0.76604443648966558 0.76604443648966558 0 -0.64278761758704617 1 I I #
face $-1 $-1 $195 $27 $-1 $376 reversed single #
loop $-1 $-1 $285 $180 #
plane-surface $-1 0 34.750019280718234 0 0 -1 0 0 0 -1 forward_v I I I I #
coedge $-1 $377 $283 $286 $378 forward $181 $-1 #
coedge $-1 $289 $183 $184 $277 reversed $114 $-1 #
coedge $-1 $283 $377 $183 $275 reversed $181 $-1 #
edge $-1 $290 -13.934156417412547 $379 13.934156417412547 $274 $380 forward 7 unknown #
coedge $-1 $185 $184 $377 $381 forward $73 $-1 #
edge $-1 $281 -69.406414990691857 $379 69.406414990691857 $273 $382 forward 7 unknown #
coedge $-1 $286 $285 $185 $279 reversed $270 $-1 #
edge $-1 $383 -69.406414990691857 $280 69.406414990691857 $278 $384 forward 7 unknown #
vertex $-1 $187 $385 #
vertex $-1 $292 $386 #
straight-curve $-1 69.406414990691857 0 -13.934156417412547 0 -1 0 I I #
coedge $-1 $272 $274 $188 $284 reversed $181 $-1 #
edge $-1 $287 -34.750019280718234 $290 34.750019280718234 $283 $387 forward 7 unknown #
coedge $-1 $278 $189 $194 $293 forward $270 $-1 #
coedge $-1 $189 $278 $272 $378 reversed $270 $-1 #
vertex $-1 $190 $388 #
straight-curve $-1 0 34.750019280718234 13.934156417412547 -1 0 0 I I #
coedge $-1 $191 $273 $193 $292 reversed $114 $-1 #
vertex $-1 $284 $389 #
straight-curve $-1 0 -34.750019280718234 13.934156417412547 1 0 0 I I #
edge $-1 $196 -13.934156417412547 $281 13.934156417412547 $193 $390 forward 7 unknown #
edge $-1 $197 -13.934156417412547 $280 13.934156417412547 $194 $391 forward 7 unknown #
point $-1 69.406414990691857 -34.750019280718234 13.934156417412547 #
point $-1 69.406414990691857 34.750019280718234 13.934156417412547 #
face $-1 $-1 $214 $28 $-1 $392 reversed single #
loop $-1 $-1 $210 $199 #
plane-surface $-1 0 -34.750019280718234 0 0 1 0 0 0 1 forward_v I I I I #
coedge $-1 $393 $394 $207 $309 forward $200 $-1 #
coedge $-1 $310 $202 $204 $305 reversed $122 $-1 #
edge $-1 $307 -6.2784277019901555 $215 -1.9055851945816906 $213 $395 forward 7 unknown #
coedge $-1 $204 $203 $396 $397 reversed $77 $-1 #
coedge $-1 $314 $313 $203 $304 forward $297 $-1 #
edge $-1 $398 -69.406414990691857 $306 69.406414990691857 $303 $399 forward 7 unknown #
edge $-1 $400 -69.406414990691857 $307 69.406414990691857 $300 $401 forward 7 unknown #
vertex $-1 $304 $402 #
vertex $-1 $206 $403 #
straight-curve $-1 69.406414990691857 -14.417855226926225 -10.370434150276079 0 1 0 I I #
edge $-1 $315 -20.33216405379201 $311 -8.5035464000604399 $299 $404 forward 7 unknown #
coedge $-1 $208 $300 $393 $405 reversed $122 $-1 #
vertex $-1 $309 $406 #
straight-curve $-1 0 -22.921401626986665 -5.9975916428676141 -1 0 0 I I #
coedge $-1 $303 $210 $394 $407 forward $297 $-1 #
coedge $-1 $210 $303 $212 $317 reversed $297 $-1 #
vertex $-1 $407 $408 #
straight-curve $-1 0 -34.750019280718234 -5.9975916428676141 -1 0 0 I I #
edge $-1 $216 5.9975916428676141 $306 10.370434150276079 $212 $409 forward 7 unknown #
point $-1 69.406414990691857 -22.921401626986665 -5.9975916428676141 #
point $-1 69.406414990691857 -34.750019280718234 -5.9975916428676141 #
plane-surface $-1 0 0 13.934156417412547 0 0 1 1 0 0 forward_v I I I I #
coedge $-1 $331 $330 $323 $410 forward $219 $-1 #
coedge $-1 $323 $221 $223 $327 reversed $130 $-1 #
coedge $-1 $221 $322 $321 $410 reversed $130 $-1 #
coedge $-1 $229 $224 $221 $325 forward $230 $-1 #
edge $-1 $328 -13.566993997315222 $411 -7.06661627797736 $324 $412 forward 7 unknown #
coedge $-1 $223 $222 $331 $413 reversed $81 $-1 #
edge $-1 $414 0 $328 8.1393547923794731 $322 $415 forward 7 unknown #
vertex $-1 $225 $416 #
straight-curve $-1 -62.906037271353995 9.1877257785382866 13.934156417412549 0 1 0 I I #
coedge $-1 $321 $226 $229 $335 reversed $219 $-1 #
coedge $-1 $226 $321 $326 $413 forward $219 $-1 #
vertex $-1 $227 $417 #
straight-curve $-1 -69.406414990691857 12.24218311715795 59.948312419456919 0 0 1 I I #
straight-curve $-1 -69.406414990691857 12.24218311715795 9.035770362581161 -0.79863550430605224 0 -0.6018150307709319 I I #
edge $-1 $411 -24.508719996995197 $231 -12.24218311715795 $330 $418 forward 7 unknown #
point $-1 -69.406414990691857 12.24218311715795 13.934156417412547 #
point $-1 -62.906037271353995 12.24218311715795 13.934156417412547 #
edge $-1 $419 1 $419 0 $234 $-1 forward 7 unknown #
vertex $-1 $235 $420 #
ellipse-curve $-1 -65.554411100251997 14.695490493125398 10.686327885690799 -0.6018150307709319 0 0.79863550430605224 0.19965887607651306 0 0.15045375769273298 1 I I #
point $-1 -65.956567254946421 14.695490493125398 11.635417147689585 #
edge $-1 $421 1 $421 0 $238 $-1 forward 7 unknown #
vertex $-1 $239 $422 #
ellipse-curve $-1 -65.554411100251997 18.375451557076573 10.686327885690799 -0.6018150307709319 0 0.79863550430605224 0.19965887607651306 0 0.15045375769273298 1 I I #
point $-1 -65.956567254946421 18.375451557076573 11.635417147689585 #
edge $-1 $423 1 $423 0 $242 $-1 forward 7 unknown #
vertex $-1 $243 $424 #
ellipse-curve $-1 -65.554411100251997 22.055412621027749 10.686327885690799 -0.6018150307709319 0 0.79863550430605224 0.19965887607651306 0 0.15045375769273298 1 I I #
point $-1 -65.956567254946421 22.055412621027749 11.635417147689585 #
loop $-1 $-1 $254 $246 #
plane-surface $-1 0 34.750019280718234 0 0 -1 0 0 0 -1 forward_v I I I I #
coedge $-1 $425 $353 $253 $358 forward $247 $-1 #
coedge $-1 $352 $426 $250 $354 forward $247 $-1 #
edge $-1 $356 87.11485841666132 $363 94.514949560800304 $353 $427 forward 7 unknown #
coedge $-1 $257 $251 $426 $428 forward $159 $-1 #
vertex $-1 $428 $429 #
straight-curve $-1 26.14839357215817 19.410399479457141 13.934156417412552 1 0 0 I I #
edge $-1 $363 5.8702947894132969 $361 21.209914590674391 $352 $430 forward 7 unknown #
coedge $-1 $360 $254 $257 $365 reversed $350 $-1 #
coedge $-1 $254 $359 $425 $431 forward $350 $-1 #
vertex $-1 $255 $432 #
straight-curve $-1 -2.5179612944028626 34.750019280718234 66.885784150816747 -0.76604443648966558 0 0.64278761758704617 I I #
vertex $-1 $358 $433 #
straight-curve $-1 -36.930381129932996 19.410399479457141 95.761233547522906 -0.76604443648966558 0 0.64278761758704617 I I #
edge $-1 $434 -69.406414990691857 $258 -60.587329968855002 $359 $435 forward 7 unknown #
point $-1 60.587329968855002 34.750019280718234 13.934156417412552 #
point $-1 60.587329968855002 19.410399479457141 13.934156417412552 #
edge $-1 $436 1 $436 0 $261 $-1 forward 7 unknown #
vertex $-1 $262 $437 #
ellipse-curve $-1 63.971025265377953 23.793147994103165 9.0115537677408977 0.64278761758704617 0 0.76604443648966558 0.76604443648966558 0 -0.64278761758704617 1 I I #
point $-1 65.762916916263109 23.793147994103165 9.5913232277560301 #
edge $-1 $438 1 $438 0 $265 $-1 forward 7 unknown #
vertex $-1 $266 $439 #
ellipse-curve $-1 63.971025265377953 30.36727076607221 9.0115537677408977 0.64278761758704617 0 0.76604443648966558 0.76604443648966558 0 -0.64278761758704617 1 I I #
point $-1 65.762916916263109 30.36727076607221 9.5913232277560301 #
plane-surface $-1 69.406414990691857 0 0 -1 0 0 0 0 1 forward_v I I I I #
coedge $-1 $274 $272 $276 $381 reversed $181 $-1 #
edge $-1 $287 -13.934156417412547 $383 13.934156417412547 $286 $440 forward 7 unknown #
vertex $-1 $381 $441 #
straight-curve $-1 -69.406414990691857 -34.750019280718234 0 0 0 -1 I I #
edge $-1 $379 -34.750019280718234 $383 34.750019280718234 $377 $442 forward 7 unknown #
straight-curve $-1 0 -34.750019280718234 -13.934156417412547 -1 0 0 I I #
vertex $-1 $279 $443 #
straight-curve $-1 0 34.750019280718234 -13.934156417412547 1 0 0 I I #
point $-1 69.406414990691857 34.750019280718234 -13.934156417412547 #
point $-1 69.406414990691857 -34.750019280718234 -13.934156417412547 #
straight-curve $-1 -69.406414990691857 0 13.934156417412547 0 -1 0 I I #
point $-1 -69.406414990691857 34.750019280718234 13.934156417412547 #
point $-1 -69.406414990691857 -34.750019280718234 13.934156417412547 #
straight-curve $-1 69.406414990691857 -34.750019280718234 0 0 0 -1 I I #
straight-curve $-1 69.406414990691857 34.750019280718234 0 0 0 -1 I I #
plane-surface $-1 69.406414990691857 0 0 -1 0 0 0 0 1 forward_v I I I I #
coedge $-1 $396 $299 $310 $405 forward $200 $-1 #
coedge $-1 $299 $396 $313 $407 reversed $200 $-1 #
straight-curve $-1 69.406414990691857 -22.921401626986665 -4.0920064482859235 0 0 1 I I #
coedge $-1 $394 $393 $302 $397 forward $200 $-1 #
edge $-1 $400 8.5035464000604399 $398 20.33216405379201 $396 $444 forward 7 unknown #
vertex $-1 $304 $445 #
straight-curve $-1 0 -34.750019280718234 -10.370434150276079 1 0 0 I I #
vertex $-1 $397 $446 #
straight-curve $-1 0 -22.921401626986665 -10.370434150276079 1 0 0 I I #
point $-1 69.406414990691857 -34.750019280718234 -10.370434150276079 #
point $-1 69.406414990691857 -22.921401626986665 -10.370434150276079 #
straight-curve $-1 -69.406414990691857 -14.417855226926225 -5.9975916428676141 0 1 0 I I #
edge $-1 $311 1.9055851945816906 $400 6.2784277019901555 $393 $447 forward 7 unknown #
point $-1 -69.406414990691857 -22.921401626986665 -5.9975916428676141 #
edge $-1 $315 5.9975916428676141 $398 10.370434150276079 $394 $448 forward 7 unknown #
point $-1 -69.406414990691857 -34.750019280718234 -5.9975916428676141 #
straight-curve $-1 69.406414990691857 -34.750019280718234 0 0 0 -1 I I #
edge $-1 $411 46.014156002044373 $414 50.912542056875758 $321 $449 forward 7 unknown #
vertex $-1 $335 $450 #
straight-curve $-1 -76.473031268669217 24.508719996995197 13.934156417412545 -1 0 0 I I #
edge $-1 $414 -15.32099421845691 $332 -3.0544573386196632 $331 $451 forward 7 unknown #
vertex $-1 $413 $452 #
straight-curve $-1 -69.406414990691857 24.508719996995197 9.035770362581161 0.79863550430605224 0 0.6018150307709319 I I #
point $-1 -62.906037271353995 24.508719996995197 13.934156417412547 #
point $-1 -69.406414990691857 12.24218311715795 9.035770362581161 #
straight-curve $-1 -69.406414990691857 0 13.934156417412547 0 -1 0 I I #
vertex $-1 $338 $453 #
point $-1 -65.354752224175485 14.695490493125398 10.836781643383533 #
vertex $-1 $342 $454 #
point $-1 -65.354752224175485 18.375451557076573 10.836781643383533 #
vertex $-1 $346 $455 #
point $-1 -65.354752224175485 22.055412621027749 10.836781643383533 #
coedge $-1 $426 $352 $360 $431 reversed $247 $-1 #
coedge $-1 $353 $425 $355 $428 reversed $247 $-1 #
straight-curve $-1 69.406414990691857 19.410399479457141 101.04901483407387 0 0 -1 I I #
edge $-1 $356 19.410399479457141 $434 34.750019280718234 $426 $456 forward 7 unknown #
point $-1 69.406414990691857 19.410399479457141 13.934156417412547 #
straight-curve $-1 69.406414990691843 13.540104690043844 6.5340652732735691 0 1 0 I I #
edge $-1 $434 -13.934156417412547 $361 -6.5340652732735691 $425 $457 forward 7 unknown #
point $-1 69.406414990691843 34.750019280718234 6.5340652732735691 #
point $-1 69.406414990691843 19.410399479457141 6.5340652732735691 #
vertex $-1 $428 $458 #
straight-curve $-1 0 34.750019280718234 13.934156417412547 -1 0 0 I I #
vertex $-1 $368 $459 #
point $-1 64.737069701867625 23.793147994103165 8.3687661501538511 #
vertex $-1 $372 $460 #
point $-1 64.737069701867625 30.36727076607221 8.3687661501538511 #
straight-curve $-1 -69.406414990691857 34.750019280718234 0 0 0 -1 I I #
point $-1 -69.406414990691857 -34.750019280718234 -13.934156417412547 #
straight-curve $-1 -69.406414990691857 0 -13.934156417412547 0 1 0 I I #
point $-1 -69.406414990691857 34.750019280718234 -13.934156417412547 #
straight-curve $-1 -69.406414990691857 -14.417855226926225 -10.370434150276079 0 -1 0 I I #
point $-1 -69.406414990691857 -34.750019280718234 -10.370434150276079 #
point $-1 -69.406414990691857 -22.921401626986665 -10.370434150276079 #
straight-curve $-1 -69.406414990691857 -22.921401626986665 -4.0920064482859235 0 0 -1 I I #
straight-curve $-1 -69.406414990691857 -34.750019280718234 0 0 0 -1 I I #
straight-curve $-1 -69.406414990691857 24.508719996995197 59.948312419456919 0 0 -1 I I #
point $-1 -69.406414990691857 24.508719996995197 13.934156417412547 #
straight-curve $-1 -69.406414990691857 9.1877257785382866 9.035770362581161 0 -1 0 I I #
point $-1 -69.406414990691857 24.508719996995197 9.035770362581161 #
point $-1 -65.403957342559266 14.695490493125398 10.486669009614287 #
point $-1 -65.403957342559266 18.375451557076573 10.486669009614287 #
point $-1 -65.403957342559266 22.055412621027749 10.486669009614287 #
straight-curve $-1 69.406414990691857 0 13.934156417412547 0 1 0 I I #
straight-curve $-1 69.406414990691857 34.750019280718234 0 0 0 -1 I I #
point $-1 69.406414990691857 34.750019280718234 13.934156417412547 #
point $-1 63.328237647790907 23.793147994103165 8.2455093312512329 #
point $-1 63.328237647790907 30.36727076607221 8.2455093312512329 #
End-of-ACIS-data 