500 0 8 0           
7 Unknown 11 ACIS 5.0 NT 24 Thu Mar 25 18:33:02 1999 
-1 9.9999999999999995e-007 1e-010 
body $-1 $8 $-1 $9 #
body $-1 $10 $-1 $11 #
body $-1 $12 $-1 $13 #
body $-1 $14 $-1 $15 #
body $-1 $16 $-1 $17 #
body $-1 $18 $-1 $19 #
body $-1 $20 $-1 $21 #
body $-1 $22 $-1 $23 #
lump $-1 $-1 $24 $0 #
transform $-1 1 0 0 0 1 0 0 0 1 49.886776329844054 30.189819978412508 8.2956358873754255 1 rotate no_reflect no_shear #
lump $-1 $-1 $25 $1 #
transform $-1 1 0 0 0 1 0 0 0 1 49.886776329844054 30.189819978412508 8.2956358873754255 1 rotate no_reflect no_shear #
lump $-1 $-1 $26 $2 #
transform $-1 1 0 0 0 1 0 0 0 1 49.886776329844054 30.189819978412508 8.2956358873754255 1 rotate no_reflect no_shear #
lump $-1 $-1 $27 $3 #
transform $-1 1 0 0 0 1 0 0 0 1 49.886776329844054 30.189819978412508 8.2956358873754255 1 rotate no_reflect no_shear #
lump $-1 $-1 $28 $4 #
transform $-1 1 0 0 0 1 0 0 0 1 49.886776329844054 30.189819978412508 8.2956358873754255 1 rotate no_reflect no_shear #
lump $-1 $-1 $29 $5 #
transform $-1 1 0 0 0 1 0 0 0 1 49.886776329844054 30.189819978412508 8.2956358873754255 1 rotate no_reflect no_shear #
lump $-1 $-1 $30 $6 #
transform $-1 1 0 0 0 1 0 0 0 1 49.886776329844054 30.189819978412508 8.2956358873754255 1 rotate no_reflect no_shear #
lump $-1 $-1 $31 $7 #
transform $-1 1 0 0 0 1 0 0 0 1 49.886776329844054 30.189819978412508 8.2956358873754255 1 rotate no_reflect no_shear #
shell $-1 $-1 $-1 $32 $-1 $8 #
shell $-1 $-1 $-1 $33 $-1 $10 #
shell $-1 $-1 $-1 $34 $-1 $12 #
shell $-1 $-1 $-1 $35 $-1 $14 #
shell $-1 $-1 $-1 $36 $-1 $16 #
shell $-1 $-1 $-1 $37 $-1 $18 #
shell $-1 $-1 $-1 $38 $-1 $20 #
shell $-1 $-1 $-1 $39 $-1 $22 #
face $-1 $40 $41 $24 $-1 $42 forward single #
face $-1 $43 $44 $25 $-1 $45 reversed single #
face $-1 $46 $47 $26 $-1 $48 forward single #
face $-1 $49 $50 $27 $-1 $51 forward single #
face $-1 $52 $53 $28 $-1 $54 reversed single #
face $-1 $55 $56 $29 $-1 $57 forward single #
face $-1 $58 $59 $30 $-1 $60 forward single #
face $-1 $61 $62 $31 $-1 $63 forward single #
face $-1 $64 $65 $24 $-1 $66 reversed single #
loop $-1 $-1 $67 $32 #
plane-surface $-1 0 0 8.2956358873754255 0 0 1 1 0 0 forward_v I I I I #
face $-1 $68 $69 $25 $-1 $70 reversed single #
loop $-1 $-1 $71 $33 #
plane-surface $-1 -105.67943965632597 -11.233171329536066 82.983011251026198 0 1 0 -0.55919291073839883 0 0.82903756765294845 forward_v I I I I #
face $-1 $72 $73 $26 $-1 $74 forward single #
loop $-1 $75 $76 $34 #
cone-surface $-1 -43.328165770426374 -8.4357999237872647 3.3812038116692418 0.55919291073839883 0 -0.82903756765294845 0.82903756765294845 0 0.55919291073839883 1 I I 0 1 1 forward I I I I #
face $-1 $77 $78 $27 $-1 $79 forward single #
loop $-1 $80 $81 $35 #
cone-surface $-1 -43.328165770426374 -4.2397428151640639 3.3812038116692418 0.55919291073839883 0 -0.82903756765294845 0.82903756765294845 0 0.55919291073839883 1 I I 0 1 1 forward I I I I #
face $-1 $82 $83 $28 $-1 $84 reversed single #
loop $-1 $-1 $85 $36 #
plane-surface $-1 20.550206869733216 2.8491313461770247 140.99401402165179 0 -1 0 -0.54463904215088732 0 -0.83867056331134215 forward_v I I I I #
face $-1 $86 $87 $29 $-1 $88 forward single #
loop $-1 $89 $90 $37 #
cone-surface $-1 45.25417089469321 -8.0279382280026859 4.8089432224510045 -0.54463904215088732 0 -0.83867056331134215 0.83867056331134215 0 -0.54463904215088732 1 I I 0 1 1 forward I I I I #
face $-1 $91 $92 $30 $-1 $93 forward single #
loop $-1 $94 $95 $38 #
cone-surface $-1 45.25417089469321 -3.9490371376852949 4.8089432224510045 -0.54463904215088732 0 -0.83867056331134215 0.83867056331134215 0 -0.54463904215088732 1 I I 0 1 1 forward I I I I #
face $-1 $96 $97 $31 $-1 $98 forward single #
loop $-1 $99 $100 $39 #
cone-surface $-1 45.25417089469321 0.12986395263209971 4.8089432224510045 -0.54463904215088732 0 -0.83867056331134215 0.83867056331134215 0 -0.54463904215088732 1 I I 0 1 1 forward I I I I #
face $-1 $101 $102 $24 $-1 $103 reversed single #
loop $-1 $-1 $104 $40 #
plane-surface $-1 0 0 -8.2956358873754255 0 0 1 1 0 0 forward_v I I I I #
coedge $-1 $105 $106 $107 $108 forward $41 $-1 #
face $-1 $109 $110 $25 $-1 $111 reversed single #
loop $-1 $-1 $112 $43 #
plane-surface $-1 -49.886776329844061 -6.3377713694756643 0.26698783794500969 -0.55919291073839883 0 0.82903756765294845 0.82903756765294845 0 0.55919291073839883 forward_v I I I I #
coedge $-1 $113 $114 $115 $116 reversed $44 $-1 #
face $-1 $-1 $117 $26 $-1 $118 forward single #
loop $-1 $119 $120 $46 #
cone-surface $-1 -42.441438757104684 -8.4357999237872647 2.0665769768517919 0.55919291073839883 0 -0.82903756765294845 0.41451878382647422 0 0.27959645536919941 1 I I -0.70710678118654746 0.70710678118654746 0.5 forward I I I I #
loop $-1 $-1 $121 $34 #
coedge $-1 $76 $76 $122 $123 reversed $47 $-1 #
face $-1 $-1 $124 $27 $-1 $125 forward single #
loop $-1 $126 $127 $49 #
cone-surface $-1 -42.441438757104684 -4.2397428151640639 2.0665769768517919 0.55919291073839883 0 -0.82903756765294845 0.41451878382647422 0 0.27959645536919941 1 I I -0.70710678118654746 0.70710678118654746 0.5 forward I I I I #
loop $-1 $-1 $128 $35 #
coedge $-1 $81 $81 $129 $130 reversed $50 $-1 #
face $-1 $131 $132 $28 $-1 $133 reversed single #
loop $-1 $-1 $134 $52 #
plane-surface $-1 -33.790365282830429 -3.9490371376852949 57.316872408977304 0.54463904215088732 0 0.83867056331134215 0.83867056331134215 0 -0.54463904215088732 forward_v I I I I #
coedge $-1 $135 $136 $137 $138 reversed $53 $-1 #
face $-1 $-1 $139 $29 $-1 $140 forward single #
loop $-1 $141 $142 $55 #
cone-surface $-1 44.444775146621723 -8.0279382280026859 3.5625830913518044 -0.54463904215088732 0 -0.83867056331134215 0.41933528165567108 0 -0.27231952107544366 1 I I -0.70710678118654746 0.70710678118654746 0.5 forward I I I I #
loop $-1 $-1 $143 $37 #
coedge $-1 $90 $90 $144 $145 reversed $56 $-1 #
face $-1 $-1 $146 $30 $-1 $147 forward single #
loop $-1 $148 $149 $58 #
cone-surface $-1 44.444775146621723 -3.9490371376852949 3.5625830913518044 -0.54463904215088732 0 -0.83867056331134215 0.41933528165567108 0 -0.27231952107544366 1 I I -0.70710678118654746 0.70710678118654746 0.5 forward I I I I #
loop $-1 $-1 $150 $38 #
coedge $-1 $95 $95 $151 $152 reversed $59 $-1 #
face $-1 $-1 $153 $31 $-1 $154 forward single #
loop $-1 $155 $156 $61 #
cone-surface $-1 44.444775146621723 0.12986395263209971 3.5625830913518044 -0.54463904215088732 0 -0.83867056331134215 0.41933528165567108 0 -0.27231952107544366 1 I I -0.70710678118654746 0.70710678118654746 0.5 forward I I I I #
loop $-1 $-1 $157 $39 #
coedge $-1 $100 $100 $158 $159 reversed $62 $-1 #
face $-1 $160 $161 $24 $-1 $162 reversed single #
loop $-1 $-1 $163 $64 #
plane-surface $-1 0 -30.189819978412508 0 0 1 0 0 0 1 forward_v I I I I #
coedge $-1 $164 $165 $166 $167 forward $65 $-1 #
coedge $-1 $168 $67 $169 $170 forward $41 $-1 #
coedge $-1 $67 $168 $171 $172 forward $41 $-1 #
coedge $-1 $173 $174 $67 $108 reversed $175 $-1 #
edge $-1 $176 -30.189819978412508 $177 30.189819978412508 $107 $178 forward 7 unknown #
face $-1 $179 $180 $25 $-1 $181 reversed single #
loop $-1 $-1 $182 $68 #
plane-surface $-1 -105.67943965632597 -1.4423714094152622 82.983011251026198 0 -1 0 0.55919291073839883 0 -0.82903756765294845 forward_v I I I I #
coedge $-1 $183 $184 $185 $186 reversed $69 $-1 #
coedge $-1 $114 $71 $187 $188 reversed $44 $-1 #
coedge $-1 $71 $113 $183 $189 reversed $44 $-1 #
coedge $-1 $185 $190 $71 $116 forward $191 $-1 #
edge $-1 $192 2.9529434983189304 $193 14.855903501249308 $115 $194 forward 7 unknown #
loop $-1 $-1 $122 $72 #
plane-surface $-1 -49.886776329844061 -6.3377713694756643 0.26698783794500969 -0.55919291073839883 0 0.82903756765294845 0.82903756765294845 0 0.55919291073839883 forward_v I I I I #
loop $-1 $-1 $195 $46 #
coedge $-1 $120 $120 $121 $196 reversed $73 $-1 #
coedge $-1 $121 $121 $120 $196 forward $75 $-1 #
coedge $-1 $122 $122 $76 $123 forward $117 $-1 #
edge $-1 $197 0 $197 6.2831853071796004 $122 $198 forward 7 unknown #
loop $-1 $-1 $129 $77 #
plane-surface $-1 -49.886776329844061 -6.3377713694756643 0.26698783794500969 -0.55919291073839883 0 0.82903756765294845 0.82903756765294845 0 0.55919291073839883 forward_v I I I I #
loop $-1 $-1 $199 $49 #
coedge $-1 $127 $127 $128 $200 reversed $78 $-1 #
coedge $-1 $128 $128 $127 $200 forward $80 $-1 #
coedge $-1 $129 $129 $81 $130 forward $124 $-1 #
edge $-1 $201 0 $201 6.2831853071796004 $129 $202 forward 7 unknown #
face $-1 $203 $204 $28 $-1 $205 forward single #
loop $-1 $-1 $206 $82 #
plane-surface $-1 20.550206869733216 -10.747205621547614 140.99401402165179 0 1 0 0.54463904215088732 0 0.83867056331134215 forward_v I I I I #
coedge $-1 $207 $208 $209 $210 reversed $83 $-1 #
coedge $-1 $136 $85 $211 $212 reversed $53 $-1 #
coedge $-1 $85 $135 $207 $213 reversed $53 $-1 #
coedge $-1 $209 $214 $85 $138 forward $204 $-1 #
edge $-1 $215 -39.611672894977445 $216 -31.420614478667893 $137 $217 forward 7 unknown #
loop $-1 $-1 $144 $86 #
plane-surface $-1 -33.790365282830429 -3.9490371376852949 57.316872408977304 0.54463904215088732 0 0.83867056331134215 0.83867056331134215 0 -0.54463904215088732 forward_v I I I I #
loop $-1 $-1 $218 $55 #
coedge $-1 $142 $142 $143 $219 reversed $87 $-1 #
coedge $-1 $143 $143 $142 $219 forward $89 $-1 #
coedge $-1 $144 $144 $90 $145 forward $139 $-1 #
edge $-1 $220 0 $220 6.2831853071796004 $144 $221 forward 7 unknown #
loop $-1 $-1 $151 $91 #
plane-surface $-1 -33.790365282830429 -3.9490371376852949 57.316872408977304 0.54463904215088732 0 0.83867056331134215 0.83867056331134215 0 -0.54463904215088732 forward_v I I I I #
loop $-1 $-1 $222 $58 #
coedge $-1 $149 $149 $150 $223 reversed $92 $-1 #
coedge $-1 $150 $150 $149 $223 forward $94 $-1 #
coedge $-1 $151 $151 $95 $152 forward $146 $-1 #
edge $-1 $224 0 $224 6.2831853071796004 $151 $225 forward 7 unknown #
loop $-1 $-1 $158 $96 #
plane-surface $-1 -33.790365282830429 -3.9490371376852949 57.316872408977304 0.54463904215088732 0 0.83867056331134215 0.83867056331134215 0 -0.54463904215088732 forward_v I I I I #
loop $-1 $-1 $226 $61 #
coedge $-1 $156 $156 $157 $227 reversed $97 $-1 #
coedge $-1 $157 $157 $156 $227 forward $99 $-1 #
coedge $-1 $158 $158 $100 $159 forward $153 $-1 #
edge $-1 $228 0 $228 6.2831853071796004 $158 $229 forward 7 unknown #
face $-1 $230 $231 $24 $-1 $232 reversed single #
loop $-1 $-1 $233 $101 #
plane-surface $-1 -49.886776329844054 0 0 1 0 0 0 0 -1 forward_v I I I I #
coedge $-1 $234 $171 $235 $236 forward $102 $-1 #
coedge $-1 $237 $104 $234 $238 forward $65 $-1 #
coedge $-1 $104 $237 $239 $240 forward $65 $-1 #
coedge $-1 $174 $173 $104 $167 reversed $175 $-1 #
edge $-1 $241 -30.189819978412508 $242 30.189819978412508 $166 $243 forward 7 unknown #
coedge $-1 $106 $105 $244 $245 forward $41 $-1 #
coedge $-1 $246 $247 $105 $170 reversed $231 $-1 #
edge $-1 $177 -49.886776329844054 $248 49.886776329844054 $169 $249 forward 7 unknown #
coedge $-1 $163 $250 $106 $172 reversed $102 $-1 #
edge $-1 $251 -49.886776329844054 $176 49.886776329844054 $171 $252 forward 7 unknown #
coedge $-1 $166 $107 $250 $253 forward $175 $-1 #
coedge $-1 $107 $166 $246 $254 reversed $175 $-1 #
loop $-1 $-1 $173 $230 #
vertex $-1 $108 $255 #
vertex $-1 $108 $256 #
straight-curve $-1 49.886776329844054 0 8.2956358873754255 0 1 0 I I #
face $-1 $-1 $191 $25 $-1 $257 forward single #
loop $-1 $-1 $258 $109 #
plane-surface $-1 -49.886776329844054 0 0 1 0 0 0 0 -1 forward_v I I I I #
coedge $-1 $259 $260 $261 $262 reversed $110 $-1 #
coedge $-1 $263 $112 $114 $189 forward $69 $-1 #
coedge $-1 $112 $263 $259 $264 forward $69 $-1 #
coedge $-1 $261 $115 $112 $186 forward $191 $-1 #
edge $-1 $193 -8.0642856447982343 $265 1.72651427532257 $185 $266 forward 7 unknown #
coedge $-1 $267 $268 $113 $188 forward $180 $-1 #
edge $-1 $269 -41.224517787568082 $192 -33.195869738137674 $187 $270 forward 7 unknown #
edge $-1 $193 -14.357564080754901 $269 -8.5602302459286524e-015 $114 $271 forward 7 unknown #
coedge $-1 $115 $261 $267 $272 forward $191 $-1 #
loop $-1 $-1 $261 $179 #
vertex $-1 $188 $273 #
vertex $-1 $116 $274 #
straight-curve $-1 -52.839719828162984 -11.233171329536066 8.2956358873754255 1 0 0 I I #
coedge $-1 $195 $195 $-1 $275 reversed $119 $-1 #
edge $-1 $276 0 $276 6.2831853071796004 $120 $277 forward 7 unknown #
vertex $-1 $123 $278 #
ellipse-curve $-1 -43.935296328378868 -8.4357999237872647 4.2813118626602193 -0.55919291073839883 0 0.82903756765294845 0.82903756765294845 0 0.55919291073839883 1 I I #
coedge $-1 $199 $199 $-1 $279 reversed $126 $-1 #
edge $-1 $280 0 $280 6.2831853071796004 $127 $281 forward 7 unknown #
vertex $-1 $130 $282 #
ellipse-curve $-1 -43.935296328378868 -4.2397428151640639 4.2813118626602193 -0.55919291073839883 0 0.82903756765294845 0.82903756765294845 0 0.55919291073839883 1 I I #
face $-1 $-1 $283 $28 $-1 $284 reversed single #
loop $-1 $-1 $137 $131 #
plane-surface $-1 0 0 8.2956358873754255 0 0 1 1 0 0 forward_v I I I I #
coedge $-1 $285 $286 $287 $288 reversed $132 $-1 #
coedge $-1 $289 $134 $136 $213 forward $83 $-1 #
coedge $-1 $134 $289 $285 $290 forward $83 $-1 #
coedge $-1 $287 $137 $134 $210 forward $204 $-1 #
edge $-1 $216 -4.8236499150196721 $291 8.772687052704967 $209 $292 forward 7 unknown #
coedge $-1 $293 $294 $135 $212 forward $283 $-1 #
edge $-1 $295 -67.520706754412231 $215 -62.201371123450471 $211 $296 forward 7 unknown #
edge $-1 $216 90.006835220639559 $295 99.773552659688107 $136 $297 forward 7 unknown #
coedge $-1 $137 $287 $293 $298 forward $204 $-1 #
vertex $-1 $212 $299 #
vertex $-1 $138 $300 #
straight-curve $-1 10.275103434866608 2.8491313461770247 8.2956358873754255 -1 0 0 I I #
coedge $-1 $218 $218 $-1 $301 reversed $141 $-1 #
edge $-1 $302 0 $302 6.2831853071796004 $142 $303 forward 7 unknown #
vertex $-1 $145 $304 #
ellipse-curve $-1 45.791247121689267 -8.0279382280026859 5.6359680718945508 0.54463904215088732 0 0.83867056331134215 0.83867056331134215 0 -0.54463904215088732 1 I I #
coedge $-1 $222 $222 $-1 $305 reversed $148 $-1 #
edge $-1 $306 0 $306 6.2831853071796004 $149 $307 forward 7 unknown #
vertex $-1 $152 $308 #
ellipse-curve $-1 45.791247121689267 -3.9490371376852949 5.6359680718945508 0.54463904215088732 0 0.83867056331134215 0.83867056331134215 0 -0.54463904215088732 1 I I #
coedge $-1 $226 $226 $-1 $309 reversed $155 $-1 #
edge $-1 $310 0 $310 6.2831853071796004 $156 $311 forward 7 unknown #
vertex $-1 $159 $312 #
ellipse-curve $-1 45.791247121689267 0.12986395263209971 5.6359680718945508 0.54463904215088732 0 0.83867056331134215 0.83867056331134215 0 -0.54463904215088732 1 I I #
face $-1 $-1 $175 $24 $-1 $313 reversed single #
loop $-1 $-1 $246 $160 #
plane-surface $-1 0 30.189819978412508 0 0 -1 0 0 0 -1 forward_v I I I I #
coedge $-1 $314 $244 $247 $315 forward $161 $-1 #
coedge $-1 $250 $163 $164 $238 reversed $102 $-1 #
coedge $-1 $244 $314 $163 $236 reversed $161 $-1 #
edge $-1 $251 -8.2956358873754255 $316 8.2956358873754255 $235 $317 forward 7 unknown #
coedge $-1 $165 $164 $314 $318 forward $65 $-1 #
edge $-1 $242 -49.886776329844054 $316 49.886776329844054 $234 $319 forward 7 unknown #
coedge $-1 $247 $246 $165 $240 reversed $231 $-1 #
edge $-1 $320 -49.886776329844054 $241 49.886776329844054 $239 $321 forward 7 unknown #
vertex $-1 $167 $322 #
vertex $-1 $253 $323 #
straight-curve $-1 49.886776329844054 0 -8.2956358873754255 0 -1 0 I I #
coedge $-1 $233 $235 $168 $245 reversed $161 $-1 #
edge $-1 $248 -30.189819978412508 $251 30.189819978412508 $244 $324 forward 7 unknown #
coedge $-1 $239 $169 $174 $254 forward $231 $-1 #
coedge $-1 $169 $239 $233 $315 reversed $231 $-1 #
vertex $-1 $170 $325 #
straight-curve $-1 0 30.189819978412508 8.2956358873754255 -1 0 0 I I #
coedge $-1 $171 $234 $173 $253 reversed $102 $-1 #
vertex $-1 $245 $326 #
straight-curve $-1 0 -30.189819978412508 8.2956358873754255 1 0 0 I I #
edge $-1 $176 -8.2956358873754255 $242 8.2956358873754255 $173 $327 forward 7 unknown #
edge $-1 $177 -8.2956358873754255 $241 8.2956358873754255 $174 $328 forward 7 unknown #
point $-1 49.886776329844054 -30.189819978412508 8.2956358873754255 #
point $-1 49.886776329844054 30.189819978412508 8.2956358873754255 #
plane-surface $-1 0 0 8.2956358873754255 0 0 1 1 0 0 forward_v I I I I #
coedge $-1 $268 $267 $260 $329 forward $180 $-1 #
coedge $-1 $260 $182 $184 $264 reversed $110 $-1 #
coedge $-1 $182 $259 $258 $329 reversed $110 $-1 #
coedge $-1 $190 $185 $182 $262 forward $191 $-1 #
edge $-1 $265 -14.855903501249308 $330 -2.9529434983189304 $261 $331 forward 7 unknown #
coedge $-1 $184 $183 $268 $332 reversed $69 $-1 #
edge $-1 $333 8.5602302459286524e-015 $265 14.357564080754901 $259 $334 forward 7 unknown #
vertex $-1 $186 $335 #
straight-curve $-1 -37.983816326913676 -3.1688856847378322 8.2956358873754255 0 1 0 I I #
coedge $-1 $258 $187 $190 $272 reversed $180 $-1 #
coedge $-1 $187 $258 $263 $332 forward $180 $-1 #
vertex $-1 $188 $336 #
straight-curve $-1 -49.886776329844054 -11.233171329536066 41.491505625513099 0 0 1 I I #
straight-curve $-1 -49.886776329844061 -11.233171329536066 0.26698783794500969 -0.82903756765294845 0 -0.55919291073839883 I I #
edge $-1 $330 1.4423714094152622 $192 11.233171329536066 $267 $337 forward 7 unknown #
point $-1 -49.886776329844054 -11.233171329536066 8.2956358873754255 #
point $-1 -37.983816326913676 -11.233171329536066 8.2956358873754255 #
edge $-1 $338 1 $338 0 $195 $-1 forward 7 unknown #
vertex $-1 $196 $339 #
ellipse-curve $-1 -42.721035212473886 -8.4357999237872647 2.481095760678266 -0.55919291073839883 0 0.82903756765294845 0.82903756765294845 0 0.55919291073839883 1 I I #
point $-1 -43.106258760725915 -8.4357999237872647 4.8405047733986164 #
edge $-1 $340 1 $340 0 $199 $-1 forward 7 unknown #
vertex $-1 $200 $341 #
ellipse-curve $-1 -42.721035212473886 -4.2397428151640639 2.481095760678266 -0.55919291073839883 0 0.82903756765294845 0.82903756765294845 0 0.55919291073839883 1 I I #
point $-1 -43.106258760725915 -4.2397428151640639 4.8405047733986164 #
loop $-1 $-1 $211 $203 #
plane-surface $-1 49.886776329844054 0 0 -1 0 0 0 0 1 forward_v I I I I #
coedge $-1 $286 $206 $208 $290 reversed $132 $-1 #
coedge $-1 $206 $285 $342 $343 reversed $132 $-1 #
coedge $-1 $214 $209 $206 $288 forward $204 $-1 #
edge $-1 $291 31.420614478667893 $344 39.611672894977445 $287 $345 forward 7 unknown #
coedge $-1 $208 $207 $294 $346 reversed $83 $-1 #
edge $-1 $347 -99.773552659688107 $291 -90.006835220639559 $285 $348 forward 7 unknown #
vertex $-1 $210 $349 #
straight-curve $-1 41.695717913534516 -1.9745185688426474 8.2956358873754183 0 -1 0 I I #
coedge $-1 $342 $211 $214 $298 reversed $283 $-1 #
coedge $-1 $211 $342 $289 $346 forward $283 $-1 #
vertex $-1 $212 $350 #
straight-curve $-1 49.886776329844054 2.8491313461770247 70.497007010825897 0 0 1 I I #
straight-curve $-1 -33.790365282830429 2.8491313461770247 57.316872408977304 0.83867056331134215 0 -0.54463904215088732 I I #
edge $-1 $344 -10.747205621547614 $215 2.8491313461770247 $293 $351 forward 7 unknown #
point $-1 49.886776329844054 2.8491313461770247 8.2956358873754255 #
point $-1 41.695717913534502 2.8491313461770247 8.2956358873754255 #
edge $-1 $352 1 $352 0 $218 $-1 forward 7 unknown #
vertex $-1 $219 $353 #
ellipse-curve $-1 44.717094667697168 -8.0279382280026859 3.9819183730074754 0.54463904215088732 0 0.83867056331134215 0.83867056331134215 0 -0.54463904215088732 1 I I #
point $-1 46.629917685000606 -8.0279382280026859 5.0913290297436458 #
edge $-1 $354 1 $354 0 $222 $-1 forward 7 unknown #
vertex $-1 $223 $355 #
ellipse-curve $-1 44.717094667697168 -3.9490371376852949 3.9819183730074754 0.54463904215088732 0 0.83867056331134215 0.83867056331134215 0 -0.54463904215088732 1 I I #
point $-1 46.629917685000606 -3.9490371376852949 5.0913290297436458 #
edge $-1 $356 1 $356 0 $226 $-1 forward 7 unknown #
vertex $-1 $227 $357 #
ellipse-curve $-1 44.717094667697168 0.12986395263209971 3.9819183730074754 0.54463904215088732 0 0.83867056331134215 0.83867056331134215 0 -0.54463904215088732 1 I I #
point $-1 46.629917685000606 0.12986395263209971 5.0913290297436458 #
plane-surface $-1 49.886776329844054 0 0 -1 0 0 0 0 1 forward_v I I I I #
coedge $-1 $235 $233 $237 $318 reversed $161 $-1 #
edge $-1 $248 -8.2956358873754255 $320 8.2956358873754255 $247 $358 forward 7 unknown #
vertex $-1 $318 $359 #
straight-curve $-1 -49.886776329844054 -30.189819978412508 0 0 0 -1 I I #
edge $-1 $316 -30.189819978412508 $320 30.189819978412508 $314 $360 forward 7 unknown #
straight-curve $-1 0 -30.189819978412508 -8.2956358873754255 -1 0 0 I I #
vertex $-1 $240 $361 #
straight-curve $-1 0 30.189819978412508 -8.2956358873754255 1 0 0 I I #
point $-1 49.886776329844054 30.189819978412508 -8.2956358873754255 #
point $-1 49.886776329844054 -30.189819978412508 -8.2956358873754255 #
straight-curve $-1 -49.886776329844054 0 8.2956358873754255 0 -1 0 I I #
point $-1 -49.886776329844054 30.189819978412508 8.2956358873754255 #
point $-1 -49.886776329844054 -30.189819978412508 8.2956358873754255 #
straight-curve $-1 49.886776329844054 -30.189819978412508 0 0 0 -1 I I #
straight-curve $-1 49.886776329844054 30.189819978412508 0 0 0 -1 I I #
edge $-1 $330 33.195869738137674 $333 41.224517787568082 $258 $362 forward 7 unknown #
vertex $-1 $272 $363 #
straight-curve $-1 -52.839719828162984 -1.4423714094152622 8.2956358873754255 -1 0 0 I I #
edge $-1 $333 -1.72651427532257 $269 8.0642856447982343 $268 $364 forward 7 unknown #
vertex $-1 $332 $365 #
straight-curve $-1 -49.886776329844061 -1.4423714094152622 0.26698783794500969 0.82903756765294845 0 0.55919291073839883 I I #
point $-1 -37.983816326913676 -1.4423714094152622 8.2956358873754255 #
point $-1 -49.886776329844054 -11.233171329536066 0.26698783794501446 #
straight-curve $-1 -49.886776329844054 0 8.2956358873754255 0 -1 0 I I #
vertex $-1 $275 $366 #
point $-1 -41.891997644820933 -8.4357999237872647 3.0402886714166648 #
vertex $-1 $279 $367 #
point $-1 -41.891997644820933 -4.2397428151640639 3.0402886714166648 #
coedge $-1 $294 $293 $286 $343 forward $283 $-1 #
edge $-1 $344 62.201371123450471 $347 67.520706754412231 $342 $368 forward 7 unknown #
vertex $-1 $298 $369 #
straight-curve $-1 10.275103434866608 -10.747205621547614 8.2956358873754255 1 0 0 I I #
edge $-1 $347 -8.772687052704967 $295 4.8236499150196721 $294 $370 forward 7 unknown #
vertex $-1 $346 $371 #
straight-curve $-1 -33.790365282830429 -10.747205621547614 57.316872408977304 -0.83867056331134215 0 0.54463904215088732 I I #
point $-1 41.695717913534502 -10.747205621547614 8.2956358873754255 #
point $-1 49.886776329844061 2.8491313461770247 2.9763002564136585 #
straight-curve $-1 49.886776329844054 0 8.2956358873754255 0 1 0 I I #
vertex $-1 $301 $372 #
point $-1 45.555765231008507 -8.0279382280026859 3.4372793308565881 #
vertex $-1 $305 $373 #
point $-1 45.555765231008507 -3.9490371376852949 3.4372793308565881 #
vertex $-1 $309 $374 #
point $-1 45.555765231008507 0.12986395263209971 3.4372793308565881 #
straight-curve $-1 -49.886776329844054 30.189819978412508 0 0 0 -1 I I #
point $-1 -49.886776329844054 -30.189819978412508 -8.2956358873754255 #
straight-curve $-1 -49.886776329844054 0 -8.2956358873754255 0 1 0 I I #
point $-1 -49.886776329844054 30.189819978412508 -8.2956358873754255 #
straight-curve $-1 -49.886776329844054 -1.4423714094152622 41.491505625513099 0 0 -1 I I #
point $-1 -49.886776329844054 -1.4423714094152622 8.2956358873754255 #
straight-curve $-1 -49.886776329844054 -3.1688856847378322 0.26698783794501213 0 -1 0 I I #
point $-1 -49.886776329844054 -1.4423714094152622 0.26698783794501446 #
point $-1 -42.161842301735483 -8.4357999237872647 1.6520581930253178 #
point $-1 -42.161842301735483 -4.2397428151640639 1.6520581930253178 #
straight-curve $-1 49.886776329844054 -10.747205621547614 70.497007010825897 0 0 -1 I I #
point $-1 49.886776329844054 -10.747205621547614 8.2956358873754255 #
straight-curve $-1 49.886776329844054 -1.9745185688426474 2.9763002564136549 0 1 0 I I #
point $-1 49.886776329844061 -10.747205621547614 2.9763002564136585 #
point $-1 44.172455625546277 -8.0279382280026859 3.1432478096961334 #
point $-1 44.172455625546277 -3.9490371376852949 3.1432478096961334 #
point $-1 44.172455625546277 0.12986395263209971 3.1432478096961334 #
End-of-ACIS-data 