500 0 4 0           
7 Unknown 11 ACIS 5.0 NT 24 Thu Mar 25 15:14:07 1999 
-1 9.9999999999999995e-007 1e-010 
body $-1 $4 $-1 $5 #
body $-1 $6 $-1 $7 #
body $-1 $8 $-1 $9 #
body $-1 $10 $-1 $11 #
lump $-1 $-1 $12 $0 #
transform $-1 1 0 0 0 1 0 0 0 1 63.592028565324867 28.866088274023529 11.54123770467711 1 rotate no_reflect no_shear #
lump $-1 $-1 $13 $1 #
transform $-1 1 0 0 0 1 0 0 0 1 63.592028565324867 28.866088274023529 11.54123770467711 1 rotate no_reflect no_shear #
lump $-1 $-1 $14 $2 #
transform $-1 1 0 0 0 1 0 0 0 1 63.592028565324867 28.866088274023529 11.54123770467711 1 rotate no_reflect no_shear #
lump $-1 $-1 $15 $3 #
transform $-1 1 0 0 0 1 0 0 0 1 63.592028565324867 28.866088274023529 11.54123770467711 1 rotate no_reflect no_shear #
shell $-1 $-1 $-1 $16 $-1 $4 #
shell $-1 $-1 $-1 $17 $-1 $6 #
shell $-1 $-1 $-1 $18 $-1 $8 #
shell $-1 $-1 $-1 $19 $-1 $10 #
face $-1 $20 $21 $12 $-1 $22 forward single #
face $-1 $23 $24 $13 $-1 $25 forward single #
face $-1 $26 $27 $14 $-1 $28 reversed single #
face $-1 $29 $30 $15 $-1 $31 forward single #
face $-1 $32 $33 $12 $-1 $34 reversed single #
loop $-1 $-1 $35 $16 #
plane-surface $-1 0 0 11.54123770467711 0 0 1 1 0 0 forward_v I I I I #
face $-1 $36 $37 $13 $-1 $38 reversed single #
loop $-1 $-1 $39 $17 #
plane-surface $-1 0 -28.866088274023529 0 0 1 0 0 0 1 forward_v I I I I #
face $-1 $40 $41 $14 $-1 $42 reversed single #
loop $-1 $-1 $43 $18 #
plane-surface $-1 44.682681627143587 99.935354291473033 124.40795119599929 1 0 0 0 -0.81915205242281985 -0.57357642473473569 forward_v I I I I #
face $-1 $44 $45 $15 $-1 $46 forward single #
loop $-1 $47 $48 $19 #
cone-surface $-1 54.137355096234231 25.219167477434063 7.1082117222082557 0 -0.81915205242281985 -0.57357642473473569 1.5 0 0 1 I I 0 1 1.5 forward I I I I #
face $-1 $49 $50 $12 $-1 $51 reversed single #
loop $-1 $-1 $52 $20 #
plane-surface $-1 0 0 -11.54123770467711 0 0 1 1 0 0 forward_v I I I I #
coedge $-1 $53 $54 $55 $56 forward $21 $-1 #
face $-1 $57 $58 $13 $-1 $59 reversed single #
loop $-1 $-1 $60 $23 #
plane-surface $-1 0 0 -11.54123770467711 0 0 1 1 0 0 forward_v I I I I #
coedge $-1 $61 $62 $63 $64 forward $24 $-1 #
face $-1 $65 $66 $14 $-1 $67 forward single #
loop $-1 $-1 $68 $26 #
plane-surface $-1 54.137355096234231 -4.2477271425598673 51.458174423742861 0 0.81915205242281985 0.57357642473473569 1 0 0 forward_v I I I I #
coedge $-1 $69 $70 $71 $72 reversed $27 $-1 #
face $-1 $-1 $73 $15 $-1 $74 forward single #
loop $-1 $75 $76 $29 #
cone-surface $-1 54.137355096234231 23.539720775149693 5.9322505167401527 0 -0.81915205242281985 -0.57357642473473569 0.75 0 0 1 I I -0.70710678118654757 0.70710678118654757 0.75 forward I I I I #
loop $-1 $-1 $77 $19 #
coedge $-1 $48 $48 $78 $79 reversed $30 $-1 #
face $-1 $80 $81 $12 $-1 $82 reversed single #
loop $-1 $-1 $83 $32 #
plane-surface $-1 0 -28.866088274023529 0 0 1 0 0 0 1 forward_v I I I I #
coedge $-1 $84 $85 $86 $87 forward $33 $-1 #
coedge $-1 $88 $35 $89 $90 forward $21 $-1 #
coedge $-1 $35 $88 $91 $92 forward $21 $-1 #
coedge $-1 $93 $94 $35 $56 reversed $95 $-1 #
edge $-1 $96 -28.866088274023529 $97 28.866088274023529 $55 $98 forward 7 unknown #
face $-1 $99 $100 $13 $-1 $101 forward single #
loop $-1 $-1 $102 $36 #
plane-surface $-1 63.592028565324867 0 0 -1 0 0 0 0 1 forward_v I I I I #
coedge $-1 $103 $104 $105 $106 forward $37 $-1 #
coedge $-1 $105 $39 $102 $107 reversed $24 $-1 #
coedge $-1 $39 $105 $108 $109 reversed $24 $-1 #
coedge $-1 $110 $111 $39 $64 reversed $100 $-1 #
edge $-1 $112 -63.592028565324867 $113 63.592028565324867 $63 $114 forward 7 unknown #
face $-1 $115 $116 $14 $-1 $117 reversed single #
loop $-1 $-1 $71 $40 #
plane-surface $-1 0 0 11.54123770467711 0 0 1 1 0 0 forward_v I I I I #
coedge $-1 $118 $119 $120 $121 reversed $41 $-1 #
coedge $-1 $70 $43 $122 $123 reversed $27 $-1 #
coedge $-1 $43 $69 $118 $124 reversed $27 $-1 #
coedge $-1 $120 $125 $43 $72 forward $66 $-1 #
edge $-1 $126 21.101588871712988 $127 26.265265138957414 $71 $128 forward 7 unknown #
loop $-1 $-1 $78 $44 #
plane-surface $-1 54.137355096234231 -4.2477271425598673 51.458174423742861 0 0.81915205242281985 0.57357642473473569 1 0 0 forward_v I I I I #
loop $-1 $-1 $129 $29 #
coedge $-1 $76 $76 $77 $130 reversed $45 $-1 #
coedge $-1 $77 $77 $76 $130 forward $47 $-1 #
coedge $-1 $78 $78 $48 $79 forward $73 $-1 #
edge $-1 $131 -4.8503545027667632e-016 $131 6.2831853071795996 $78 $132 forward 7 unknown #
face $-1 $133 $134 $12 $-1 $135 reversed single #
loop $-1 $-1 $136 $49 #
plane-surface $-1 -63.592028565324867 0 0 1 0 0 0 0 -1 forward_v I I I I #
coedge $-1 $137 $91 $138 $139 forward $50 $-1 #
coedge $-1 $140 $52 $137 $141 forward $33 $-1 #
coedge $-1 $52 $140 $142 $143 forward $33 $-1 #
coedge $-1 $94 $93 $52 $87 reversed $95 $-1 #
edge $-1 $144 -28.866088274023529 $145 28.866088274023529 $86 $146 forward 7 unknown #
coedge $-1 $54 $53 $147 $148 forward $21 $-1 #
coedge $-1 $149 $150 $53 $90 reversed $134 $-1 #
edge $-1 $97 -63.592028565324867 $151 63.592028565324867 $89 $152 forward 7 unknown #
coedge $-1 $83 $153 $54 $92 reversed $50 $-1 #
edge $-1 $154 -63.592028565324867 $96 63.592028565324867 $91 $155 forward 7 unknown #
coedge $-1 $86 $55 $153 $156 forward $95 $-1 #
coedge $-1 $55 $86 $149 $157 reversed $95 $-1 #
loop $-1 $-1 $93 $133 #
vertex $-1 $56 $158 #
vertex $-1 $56 $159 #
straight-curve $-1 63.592028565324867 0 11.54123770467711 0 1 0 I I #
face $-1 $160 $161 $13 $-1 $162 reversed single #
loop $-1 $-1 $111 $57 #
plane-surface $-1 0 -34.619043224543503 -7.8529868272468937 0 0 1 1 0 0 forward_v I I I I #
coedge $-1 $163 $164 $61 $107 forward $58 $-1 #
coedge $-1 $165 $60 $164 $166 forward $37 $-1 #
coedge $-1 $60 $165 $167 $168 forward $37 $-1 #
coedge $-1 $62 $61 $60 $106 reversed $24 $-1 #
edge $-1 $169 -63.592028565324867 $170 63.592028565324867 $60 $171 forward 7 unknown #
edge $-1 $170 -11.54123770467711 $113 -7.8529868272468937 $102 $172 forward 7 unknown #
coedge $-1 $167 $173 $62 $109 forward $174 $-1 #
edge $-1 $112 7.8529868272468937 $169 11.54123770467711 $108 $175 forward 7 unknown #
coedge $-1 $176 $63 $173 $177 forward $100 $-1 #
coedge $-1 $63 $176 $163 $178 forward $100 $-1 #
vertex $-1 $109 $179 #
vertex $-1 $178 $180 #
straight-curve $-1 0 -28.866088274023529 -7.8529868272468937 1 0 0 I I #
face $-1 $-1 $181 $14 $-1 $182 reversed single #
loop $-1 $-1 $183 $65 #
plane-surface $-1 63.592028565324867 0 0 -1 0 0 0 0 1 forward_v I I I I #
coedge $-1 $184 $68 $70 $124 forward $41 $-1 #
coedge $-1 $68 $184 $183 $185 reversed $41 $-1 #
coedge $-1 $186 $71 $68 $121 forward $66 $-1 #
edge $-1 $127 17.614004079026472 $187 36.523351017207759 $120 $188 forward 7 unknown #
coedge $-1 $189 $190 $69 $123 forward $181 $-1 #
edge $-1 $191 -58.03723208442613 $126 -50.662737893322536 $122 $192 forward 7 unknown #
edge $-1 $127 48.729581523970751 $191 57.732176548047079 $70 $193 forward 7 unknown #
coedge $-1 $71 $186 $189 $194 forward $66 $-1 #
vertex $-1 $123 $195 #
vertex $-1 $72 $196 #
straight-curve $-1 44.682681627143587 49.967677145736516 11.541237704677108 0 -1 0 I I #
coedge $-1 $129 $129 $-1 $197 reversed $75 $-1 #
edge $-1 $198 0 $198 6.2831853071796004 $76 $199 forward 7 unknown #
vertex $-1 $79 $200 #
ellipse-curve $-1 54.137355096234231 26.284250140401316 7.8539906091253071 0 0.81915205242281985 0.57357642473473569 1.5 0 0 1 I I #
face $-1 $-1 $95 $12 $-1 $201 reversed single #
loop $-1 $-1 $149 $80 #
plane-surface $-1 0 28.866088274023529 0 0 -1 0 0 0 -1 forward_v I I I I #
coedge $-1 $202 $147 $150 $203 forward $81 $-1 #
coedge $-1 $153 $83 $84 $141 reversed $50 $-1 #
coedge $-1 $147 $202 $83 $139 reversed $81 $-1 #
edge $-1 $154 -11.54123770467711 $204 11.54123770467711 $138 $205 forward 7 unknown #
coedge $-1 $85 $84 $202 $206 forward $33 $-1 #
edge $-1 $145 -63.592028565324867 $204 63.592028565324867 $137 $207 forward 7 unknown #
coedge $-1 $150 $149 $85 $143 reversed $134 $-1 #
edge $-1 $208 -63.592028565324867 $144 63.592028565324867 $142 $209 forward 7 unknown #
vertex $-1 $87 $210 #
vertex $-1 $156 $211 #
straight-curve $-1 63.592028565324867 0 -11.54123770467711 0 -1 0 I I #
coedge $-1 $136 $138 $88 $148 reversed $81 $-1 #
edge $-1 $151 -28.866088274023529 $154 28.866088274023529 $147 $212 forward 7 unknown #
coedge $-1 $142 $89 $94 $157 forward $134 $-1 #
coedge $-1 $89 $142 $136 $203 reversed $134 $-1 #
vertex $-1 $90 $213 #
straight-curve $-1 0 28.866088274023529 11.54123770467711 -1 0 0 I I #
coedge $-1 $91 $137 $93 $156 reversed $50 $-1 #
vertex $-1 $148 $214 #
straight-curve $-1 0 -28.866088274023529 11.54123770467711 1 0 0 I I #
edge $-1 $96 -11.54123770467711 $145 11.54123770467711 $93 $215 forward 7 unknown #
edge $-1 $97 -11.54123770467711 $144 11.54123770467711 $94 $216 forward 7 unknown #
point $-1 63.592028565324867 -28.866088274023529 11.54123770467711 #
point $-1 63.592028565324867 28.866088274023529 11.54123770467711 #
face $-1 $-1 $174 $13 $-1 $217 reversed single #
loop $-1 $-1 $218 $99 #
plane-surface $-1 0 -40.371998175063474 -9.6971122659620015 0 1 0 0 0 1 forward_v I I I I #
coedge $-1 $219 $102 $111 $178 reversed $58 $-1 #
coedge $-1 $102 $219 $103 $166 reversed $58 $-1 #
coedge $-1 $104 $103 $220 $221 forward $37 $-1 #
edge $-1 $170 28.866088274023529 $222 40.371998175063474 $164 $223 forward 7 unknown #
coedge $-1 $224 $108 $104 $168 reversed $174 $-1 #
edge $-1 $225 -40.371998175063474 $169 -28.866088274023529 $167 $226 forward 7 unknown #
vertex $-1 $109 $227 #
vertex $-1 $166 $228 #
straight-curve $-1 0 -28.866088274023529 -11.54123770467711 1 0 0 I I #
straight-curve $-1 63.592028565324867 -28.866088274023529 0 0 0 1 I I #
coedge $-1 $108 $224 $110 $177 reversed $174 $-1 #
loop $-1 $-1 $108 $160 #
straight-curve $-1 -63.592028565324867 -28.866088274023529 0 0 0 -1 I I #
coedge $-1 $111 $110 $229 $230 forward $100 $-1 #
edge $-1 $112 -5.7529549505199711 $231 5.7529549505199711 $173 $232 forward 7 unknown #
edge $-1 $233 -5.7529549505199711 $113 5.7529549505199711 $163 $234 forward 7 unknown #
point $-1 -63.592028565324867 -28.866088274023532 -7.8529868272468937 #
point $-1 63.592028565324867 -28.866088274023532 -7.8529868272468937 #
loop $-1 $-1 $122 $115 #
plane-surface $-1 0 28.866088274023529 0 0 -1 0 0 0 -1 forward_v I I I I #
coedge $-1 $235 $236 $119 $185 forward $116 $-1 #
coedge $-1 $119 $118 $190 $237 reversed $41 $-1 #
edge $-1 $187 26.435348853561443 $238 35.437943877637778 $183 $239 forward 7 unknown #
coedge $-1 $125 $120 $236 $240 forward $66 $-1 #
vertex $-1 $240 $241 #
straight-curve $-1 27.068677548117115 23.702412006779102 11.541237704677105 1 0 0 I I #
coedge $-1 $242 $122 $125 $194 reversed $181 $-1 #
coedge $-1 $122 $242 $184 $237 forward $181 $-1 #
vertex $-1 $123 $243 #
straight-curve $-1 44.682681627143587 28.866088274023525 62.203975597999644 0 0 1 I I #
straight-curve $-1 44.682681627143587 -4.2477271425598673 51.458174423742861 0 0.57357642473473569 -0.81915205242281985 I I #
edge $-1 $244 -63.592028565324867 $126 -44.682681627143587 $189 $245 forward 7 unknown #
point $-1 44.682681627143587 28.866088274023529 11.54123770467711 #
point $-1 44.682681627143587 23.702412006779102 11.541237704677108 #
edge $-1 $246 1 $246 0 $129 $-1 forward 7 unknown #
vertex $-1 $130 $247 #
ellipse-curve $-1 54.137355096234231 24.154084814466806 6.3624328352912043 0 0.81915205242281985 0.57357642473473569 1.5 0 0 1 I I #
point $-1 55.637355096234231 26.284250140401316 7.853990609125308 #
plane-surface $-1 63.592028565324867 0 0 -1 0 0 0 0 1 forward_v I I I I #
coedge $-1 $138 $136 $140 $206 reversed $81 $-1 #
edge $-1 $151 -11.54123770467711 $208 11.54123770467711 $150 $248 forward 7 unknown #
vertex $-1 $206 $249 #
straight-curve $-1 -63.592028565324867 -28.866088274023529 0 0 0 -1 I I #
edge $-1 $204 -28.866088274023529 $208 28.866088274023529 $202 $250 forward 7 unknown #
straight-curve $-1 0 -28.866088274023529 -11.54123770467711 -1 0 0 I I #
vertex $-1 $143 $251 #
straight-curve $-1 0 28.866088274023529 -11.54123770467711 1 0 0 I I #
point $-1 63.592028565324867 28.866088274023529 -11.54123770467711 #
point $-1 63.592028565324867 -28.866088274023529 -11.54123770467711 #
straight-curve $-1 -63.592028565324867 0 11.54123770467711 0 -1 0 I I #
point $-1 -63.592028565324867 28.866088274023529 11.54123770467711 #
point $-1 -63.592028565324867 -28.866088274023529 11.54123770467711 #
straight-curve $-1 63.592028565324867 -28.866088274023529 0 0 0 -1 I I #
straight-curve $-1 63.592028565324867 28.866088274023529 0 0 0 -1 I I #
plane-surface $-1 -63.592028565324867 0 0 1 0 0 0 0 -1 forward_v I I I I #
coedge $-1 $220 $229 $224 $252 forward $161 $-1 #
coedge $-1 $164 $163 $253 $254 forward $58 $-1 #
coedge $-1 $253 $218 $165 $221 reversed $161 $-1 #
edge $-1 $222 -63.592028565324867 $225 63.592028565324867 $220 $255 forward 7 unknown #
vertex $-1 $254 $256 #
straight-curve $-1 63.592028565324867 0 -11.54123770467711 0 -1 0 I I #
coedge $-1 $173 $167 $218 $252 reversed $174 $-1 #
vertex $-1 $168 $257 #
straight-curve $-1 -63.592028565324867 0 -11.54123770467711 0 1 0 I I #
point $-1 -63.592028565324867 -28.866088274023529 -11.54123770467711 #
point $-1 63.592028565324867 -28.866088274023529 -11.54123770467711 #
coedge $-1 $218 $253 $176 $230 reversed $161 $-1 #
edge $-1 $231 -63.592028565324867 $233 63.592028565324867 $229 $258 forward 7 unknown #
vertex $-1 $177 $259 #
straight-curve $-1 -63.592028565324867 -34.619043224543503 -7.8529868272468937 0 -1 0 I I #
vertex $-1 $178 $260 #
straight-curve $-1 63.592028565324867 -34.619043224543503 -7.8529868272468937 0 1 0 I I #
coedge $-1 $236 $183 $242 $261 reversed $116 $-1 #
coedge $-1 $183 $235 $186 $240 reversed $116 $-1 #
edge $-1 $238 -36.523351017207759 $191 -17.614004079026472 $190 $262 forward 7 unknown #
vertex $-1 $185 $263 #
straight-curve $-1 63.592028565324867 8.5397191247378395 33.1958079745852 0 0.57357642473473569 -0.81915205242281985 I I #
edge $-1 $187 23.702412006779102 $244 28.866088274023529 $236 $264 forward 7 unknown #
point $-1 63.592028565324874 23.702412006779102 11.541237704677108 #
coedge $-1 $190 $189 $235 $261 forward $181 $-1 #
point $-1 44.682681627143587 28.866088274023525 4.1667435135735147 #
vertex $-1 $240 $265 #
straight-curve $-1 0 28.866088274023529 11.54123770467711 -1 0 0 I I #
vertex $-1 $197 $266 #
point $-1 55.637355096234231 24.154084814466806 6.3624328352912043 #
straight-curve $-1 -63.592028565324867 28.866088274023529 0 0 0 -1 I I #
point $-1 -63.592028565324867 -28.866088274023529 -11.54123770467711 #
straight-curve $-1 -63.592028565324867 0 -11.54123770467711 0 1 0 I I #
point $-1 -63.592028565324867 28.866088274023529 -11.54123770467711 #
edge $-1 $231 -1.8441254387151078 $225 1.8441254387151087 $224 $267 forward 7 unknown #
coedge $-1 $229 $220 $219 $254 reversed $161 $-1 #
edge $-1 $233 -1.8441254387151078 $222 1.8441254387151087 $219 $268 forward 7 unknown #
straight-curve $-1 0 -40.371998175063474 -11.54123770467711 -1 0 0 I I #
point $-1 63.592028565324867 -40.371998175063474 -11.54123770467711 #
point $-1 -63.592028565324867 -40.371998175063474 -11.54123770467711 #
straight-curve $-1 0 -40.371998175063474 -7.8529868272468937 1 0 0 I I #
point $-1 -63.592028565324867 -40.371998175063474 -7.8529868272468937 #
point $-1 63.592028565324867 -40.371998175063474 -7.8529868272468937 #
edge $-1 $244 -11.54123770467711 $238 -4.1667435135735147 $235 $269 forward 7 unknown #
straight-curve $-1 27.068677548117115 28.866088274023532 4.1667435135735111 -1 0 0 I I #
point $-1 63.592028565324874 28.866088274023525 4.1667435135735147 #
straight-curve $-1 63.592028565324867 0 11.54123770467711 0 1 0 I I #
point $-1 63.592028565324867 28.866088274023529 11.54123770467711 #
point $-1 54.137355096234231 22.92535673583258 5.5020681981891011 #
straight-curve $-1 -63.592028565324867 -40.371998175063474 -9.6971122659620015 0 0 -1 I I #
straight-curve $-1 63.592028565324867 -40.371998175063474 -9.6971122659620015 0 0 -1 I I #
straight-curve $-1 63.592028565324867 28.866088274023529 0 0 0 -1 I I #
End-of-ACIS-data 