500 0 11 0           
7 Unknown 11 ACIS 5.0 NT 24 Fri Mar 26 15:35:06 1999 
-1 9.9999999999999995e-007 1e-010 
body $-1 $11 $-1 $12 #
body $-1 $13 $-1 $14 #
body $-1 $15 $-1 $16 #
body $-1 $17 $-1 $18 #
body $-1 $19 $-1 $20 #
body $-1 $21 $-1 $22 #
body $-1 $23 $-1 $24 #
body $-1 $25 $-1 $26 #
body $-1 $27 $-1 $28 #
body $-1 $29 $-1 $30 #
body $-1 $31 $-1 $32 #
lump $-1 $-1 $33 $0 #
transform $-1 1 0 0 0 1 0 0 0 1 46.568803979613634 30.528596076689549 6.5945755147073672 1 rotate no_reflect no_shear #
lump $-1 $-1 $34 $1 #
transform $-1 1 0 0 0 1 0 0 0 1 46.568803979613634 30.528596076689549 6.5945755147073672 1 rotate no_reflect no_shear #
lump $-1 $-1 $35 $2 #
transform $-1 1 0 0 0 1 0 0 0 1 46.568803979613634 30.528596076689549 6.5945755147073672 1 rotate no_reflect no_shear #
lump $-1 $-1 $36 $3 #
transform $-1 1 0 0 0 1 0 0 0 1 46.568803979613634 30.528596076689549 6.5945755147073672 1 rotate no_reflect no_shear #
lump $-1 $-1 $37 $4 #
transform $-1 1 0 0 0 1 0 0 0 1 46.568803979613634 30.528596076689549 6.5945755147073672 1 rotate no_reflect no_shear #
lump $-1 $-1 $38 $5 #
transform $-1 1 0 0 0 1 0 0 0 1 46.568803979613634 30.528596076689549 6.5945755147073672 1 rotate no_reflect no_shear #
lump $-1 $-1 $39 $6 #
transform $-1 1 0 0 0 1 0 0 0 1 46.568803979613634 30.528596076689549 6.5945755147073672 1 rotate no_reflect no_shear #
lump $-1 $-1 $40 $7 #
transform $-1 1 0 0 0 1 0 0 0 1 46.568803979613634 30.528596076689549 6.5945755147073672 1 rotate no_reflect no_shear #
lump $-1 $-1 $41 $8 #
transform $-1 1 0 0 0 1 0 0 0 1 46.568803979613634 30.528596076689549 6.5945755147073672 1 rotate no_reflect no_shear #
lump $-1 $-1 $42 $9 #
transform $-1 1 0 0 0 1 0 0 0 1 46.568803979613634 30.528596076689549 6.5945755147073672 1 rotate no_reflect no_shear #
lump $-1 $-1 $43 $10 #
transform $-1 1 0 0 0 1 0 0 0 1 46.568803979613634 30.528596076689549 6.5945755147073672 1 rotate no_reflect no_shear #
shell $-1 $-1 $-1 $44 $-1 $11 #
shell $-1 $-1 $-1 $45 $-1 $13 #
shell $-1 $-1 $-1 $46 $-1 $15 #
shell $-1 $-1 $-1 $47 $-1 $17 #
shell $-1 $-1 $-1 $48 $-1 $19 #
shell $-1 $-1 $-1 $49 $-1 $21 #
shell $-1 $-1 $-1 $50 $-1 $23 #
shell $-1 $-1 $-1 $51 $-1 $25 #
shell $-1 $-1 $-1 $52 $-1 $27 #
shell $-1 $-1 $-1 $53 $-1 $29 #
shell $-1 $-1 $-1 $54 $-1 $31 #
face $-1 $55 $56 $33 $-1 $57 forward single #
face $-1 $58 $59 $34 $-1 $60 reversed single #
face $-1 $61 $62 $35 $-1 $63 reversed single #
face $-1 $64 $65 $36 $-1 $66 reversed single #
face $-1 $67 $68 $37 $-1 $69 forward single #
face $-1 $70 $71 $38 $-1 $72 forward single #
face $-1 $73 $74 $39 $-1 $75 forward single #
face $-1 $76 $77 $40 $-1 $78 reversed single #
face $-1 $79 $80 $41 $-1 $81 forward single #
face $-1 $82 $83 $42 $-1 $84 forward single #
face $-1 $85 $86 $43 $-1 $87 forward single #
face $-1 $88 $89 $33 $-1 $90 reversed single #
loop $-1 $-1 $91 $44 #
plane-surface $-1 0 0 6.5945755147073672 0 0 1 1 0 0 forward_v I I I I #
face $-1 $92 $93 $34 $-1 $94 reversed single #
loop $-1 $-1 $95 $45 #
plane-surface $-1 -44.33421555334975 0 2.7548810533622348 0 0 1 1 0 0 forward_v I I I I #
face $-1 $96 $97 $35 $-1 $98 reversed single #
loop $-1 $-1 $99 $46 #
plane-surface $-1 44.33421555334975 0 2.7548810533622348 0 0 1 1 0 0 forward_v I I I I #
face $-1 $100 $101 $36 $-1 $102 reversed single #
loop $-1 $-1 $103 $47 #
plane-surface $-1 -18.433783088376252 -85.273509168322349 77.4475016290654 -1 0 0 0 -0.5877852598018023 0.80901698891910034 forward_v I I I I #
face $-1 $104 $105 $37 $-1 $106 forward single #
loop $-1 $107 $108 $48 #
cone-surface $-1 -28.885622277914152 -26.68120283736263 3.3102040124201988 0 0.5877852598018023 -0.80901698891910034 1 0 0 1 I I 0 1 1 forward I I I I #
face $-1 $109 $110 $38 $-1 $111 forward single #
loop $-1 $112 $113 $49 #
cone-surface $-1 -24.96618258183744 -26.68120283736263 3.3102040124201988 0 0.5877852598018023 -0.80901698891910034 1 0 0 1 I I 0 1 1 forward I I I I #
face $-1 $114 $115 $39 $-1 $116 forward single #
loop $-1 $117 $118 $50 #
cone-surface $-1 -21.046742885760729 -26.68120283736263 3.3102040124201988 0 0.5877852598018023 -0.80901698891910034 1 0 0 1 I I 0 1 1 forward I I I I #
face $-1 $119 $120 $40 $-1 $121 reversed single #
loop $-1 $-1 $122 $51 #
plane-surface $-1 7.6951447566047158 68.166463036714788 107.24799098867123 1 0 0 0 -0.79863551827123203 -0.60181501223851219 forward_v I I I I #
face $-1 $123 $124 $41 $-1 $125 forward single #
loop $-1 $126 $127 $52 #
cone-surface $-1 10.960483675362795 27.420689113175758 3.3535767940823238 0 -0.79863551827123203 -0.60181501223851219 1 0 0 1 I I 0 1 1 forward I I I I #
face $-1 $128 $129 $42 $-1 $130 forward single #
loop $-1 $131 $132 $53 #
cone-surface $-1 15.858492053499923 27.420689113175758 3.3535767940823238 0 -0.79863551827123203 -0.60181501223851219 1 0 0 1 I I 0 1 1 forward I I I I #
face $-1 $133 $134 $43 $-1 $135 forward single #
loop $-1 $136 $137 $54 #
cone-surface $-1 20.75650043163705 27.420689113175758 3.3535767940823238 0 -0.79863551827123203 -0.60181501223851219 1 0 0 1 I I 0 1 1 forward I I I I #
face $-1 $138 $139 $33 $-1 $140 reversed single #
loop $-1 $-1 $141 $55 #
plane-surface $-1 0 0 -6.5945755147073672 0 0 1 1 0 0 forward_v I I I I #
coedge $-1 $142 $143 $144 $145 forward $56 $-1 #
face $-1 $146 $147 $34 $-1 $148 reversed single #
loop $-1 $-1 $149 $58 #
plane-surface $-1 -42.099627127085867 0 4.674728284034801 -1 0 0 0 0 1 forward_v I I I I #
coedge $-1 $150 $151 $152 $153 forward $59 $-1 #
face $-1 $154 $155 $35 $-1 $156 forward single #
loop $-1 $-1 $157 $61 #
plane-surface $-1 42.099627127085867 0 4.674728284034801 1 0 0 0 0 -1 forward_v I I I I #
coedge $-1 $158 $159 $160 $161 reversed $62 $-1 #
face $-1 $162 $163 $36 $-1 $164 reversed single #
loop $-1 $-1 $165 $64 #
plane-surface $-1 -24.966182581837437 -30.528596076689539 2.097594482763725 0 -0.5877852598018023 0.80901698891910034 1 0 0 forward_v I I I I #
coedge $-1 $166 $167 $168 $169 reversed $65 $-1 #
face $-1 $-1 $170 $37 $-1 $171 forward single #
loop $-1 $172 $173 $67 #
cone-surface $-1 -28.885622277914152 -25.634698602260933 1.8698145316452912 0 0.5877852598018023 -0.80901698891910034 0.5 0 0 1 I I -0.70710678118654746 0.70710678118654746 0.5 forward I I I I #
loop $-1 $-1 $174 $48 #
coedge $-1 $108 $108 $175 $176 reversed $68 $-1 #
face $-1 $-1 $177 $38 $-1 $178 forward single #
loop $-1 $179 $180 $70 #
cone-surface $-1 -24.96618258183744 -25.634698602260933 1.8698145316452912 0 0.5877852598018023 -0.80901698891910034 0.5 0 0 1 I I -0.70710678118654746 0.70710678118654746 0.5 forward I I I I #
loop $-1 $-1 $181 $49 #
coedge $-1 $113 $113 $182 $183 reversed $71 $-1 #
face $-1 $-1 $184 $39 $-1 $185 forward single #
loop $-1 $186 $187 $73 #
cone-surface $-1 -21.046742885760729 -25.634698602260933 1.8698145316452912 0 0.5877852598018023 -0.80901698891910034 0.5 0 0 1 I I -0.70710678118654746 0.70710678118654746 0.5 forward I I I I #
loop $-1 $-1 $188 $50 #
coedge $-1 $118 $118 $189 $190 reversed $74 $-1 #
face $-1 $191 $192 $40 $-1 $193 reversed single #
loop $-1 $-1 $194 $76 #
plane-surface $-1 15.85849205349993 -6.2165387663455078 51.196380314823124 0 0.79863551827123203 0.60181501223851219 1 0 0 forward_v I I I I #
coedge $-1 $195 $196 $197 $198 reversed $77 $-1 #
face $-1 $-1 $199 $41 $-1 $200 forward single #
loop $-1 $201 $202 $79 #
cone-surface $-1 10.960483675362795 25.481096965328643 1.8919893170802009 0 -0.79863551827123203 -0.60181501223851219 0.5 0 0 1 I I -0.70710678118654746 0.70710678118654746 0.5 forward I I I I #
loop $-1 $-1 $203 $52 #
coedge $-1 $127 $127 $204 $205 reversed $80 $-1 #
face $-1 $-1 $206 $42 $-1 $207 forward single #
loop $-1 $208 $209 $82 #
cone-surface $-1 15.858492053499923 25.481096965328643 1.8919893170802009 0 -0.79863551827123203 -0.60181501223851219 0.5 0 0 1 I I -0.70710678118654746 0.70710678118654746 0.5 forward I I I I #
loop $-1 $-1 $210 $53 #
coedge $-1 $132 $132 $211 $212 reversed $83 $-1 #
face $-1 $-1 $213 $43 $-1 $214 forward single #
loop $-1 $215 $216 $85 #
cone-surface $-1 20.75650043163705 25.481096965328643 1.8919893170802009 0 -0.79863551827123203 -0.60181501223851219 0.5 0 0 1 I I -0.70710678118654746 0.70710678118654746 0.5 forward I I I I #
loop $-1 $-1 $217 $54 #
coedge $-1 $137 $137 $218 $219 reversed $86 $-1 #
face $-1 $220 $221 $33 $-1 $222 reversed single #
loop $-1 $-1 $223 $88 #
plane-surface $-1 0 -30.528596076689549 0 0 1 0 0 0 1 forward_v I I I I #
coedge $-1 $224 $225 $226 $227 forward $89 $-1 #
coedge $-1 $228 $91 $229 $230 forward $56 $-1 #
coedge $-1 $91 $228 $231 $232 forward $56 $-1 #
coedge $-1 $233 $234 $91 $145 reversed $235 $-1 #
edge $-1 $236 -30.528596076689549 $237 30.528596076689549 $144 $238 forward 7 unknown #
face $-1 $239 $240 $34 $-1 $241 reversed single #
loop $-1 $-1 $242 $92 #
plane-surface $-1 0 30.528596076689549 0 0 -1 0 0 0 -1 forward_v I I I I #
coedge $-1 $152 $243 $244 $245 reversed $93 $-1 #
coedge $-1 $246 $95 $247 $248 reversed $59 $-1 #
coedge $-1 $95 $246 $249 $250 reversed $59 $-1 #
coedge $-1 $251 $149 $95 $153 reversed $93 $-1 #
edge $-1 $252 -30.528596076689549 $253 30.528596076689549 $152 $254 forward 7 unknown #
face $-1 $255 $256 $35 $-1 $257 reversed single #
loop $-1 $-1 $258 $96 #
plane-surface $-1 0 0 6.5945755147073672 0 0 1 1 0 0 forward_v I I I I #
coedge $-1 $259 $260 $261 $262 reversed $97 $-1 #
coedge $-1 $263 $99 $264 $265 reversed $62 $-1 #
coedge $-1 $99 $263 $266 $267 reversed $62 $-1 #
coedge $-1 $268 $269 $99 $161 forward $270 $-1 #
edge $-1 $271 -30.528596076689549 $272 30.528596076689549 $160 $273 forward 7 unknown #
face $-1 $274 $275 $36 $-1 $276 forward single #
loop $-1 $-1 $277 $100 #
plane-surface $-1 -31.498582075298621 -85.273509168322349 77.4475016290654 1 0 0 0 0.5877852598018023 -0.80901698891910034 forward_v I I I I #
coedge $-1 $278 $279 $280 $281 reversed $101 $-1 #
coedge $-1 $167 $103 $282 $283 reversed $65 $-1 #
coedge $-1 $103 $166 $278 $284 reversed $65 $-1 #
coedge $-1 $280 $285 $103 $169 forward $275 $-1 #
edge $-1 $286 12.108158507471625 $287 18.297721775723907 $168 $288 forward 7 unknown #
loop $-1 $-1 $175 $104 #
plane-surface $-1 -24.966182581837437 -30.528596076689539 2.097594482763725 0 -0.5877852598018023 0.80901698891910034 1 0 0 forward_v I I I I #
loop $-1 $-1 $289 $67 #
coedge $-1 $173 $173 $174 $290 reversed $105 $-1 #
coedge $-1 $174 $174 $173 $290 forward $107 $-1 #
coedge $-1 $175 $175 $108 $176 forward $170 $-1 #
edge $-1 $291 -1.0556592281836782e-015 $291 6.2831853071795996 $175 $292 forward 7 unknown #
loop $-1 $-1 $182 $109 #
plane-surface $-1 -24.966182581837437 -30.528596076689539 2.097594482763725 0 -0.5877852598018023 0.80901698891910034 1 0 0 forward_v I I I I #
loop $-1 $-1 $293 $70 #
coedge $-1 $180 $180 $181 $294 reversed $110 $-1 #
coedge $-1 $181 $181 $180 $294 forward $112 $-1 #
coedge $-1 $182 $182 $113 $183 forward $177 $-1 #
edge $-1 $295 -1.0556592281836782e-015 $295 6.2831853071795996 $182 $296 forward 7 unknown #
loop $-1 $-1 $189 $114 #
plane-surface $-1 -24.966182581837437 -30.528596076689539 2.097594482763725 0 -0.5877852598018023 0.80901698891910034 1 0 0 forward_v I I I I #
loop $-1 $-1 $297 $73 #
coedge $-1 $187 $187 $188 $298 reversed $115 $-1 #
coedge $-1 $188 $188 $187 $298 forward $117 $-1 #
coedge $-1 $189 $189 $118 $190 forward $184 $-1 #
edge $-1 $299 -1.0556592281836782e-015 $299 6.2831853071795996 $189 $300 forward 7 unknown #
face $-1 $301 $302 $40 $-1 $303 reversed single #
loop $-1 $-1 $304 $119 #
plane-surface $-1 24.021839350395144 68.166463036714788 107.24799098867123 -1 0 0 0 0.79863551827123203 0.60181501223851219 forward_v I I I I #
coedge $-1 $305 $306 $307 $308 reversed $120 $-1 #
coedge $-1 $196 $122 $309 $310 reversed $77 $-1 #
coedge $-1 $122 $195 $305 $311 reversed $77 $-1 #
coedge $-1 $307 $312 $122 $198 forward $313 $-1 #
edge $-1 $314 3.5546354416678447 $315 6.6899005912724547 $197 $316 forward 7 unknown #
loop $-1 $-1 $204 $123 #
plane-surface $-1 15.85849205349993 -6.2165387663455078 51.196380314823124 0 0.79863551827123203 0.60181501223851219 1 0 0 forward_v I I I I #
loop $-1 $-1 $317 $79 #
coedge $-1 $202 $202 $203 $318 reversed $124 $-1 #
coedge $-1 $203 $203 $202 $318 forward $126 $-1 #
coedge $-1 $204 $204 $127 $205 forward $199 $-1 #
edge $-1 $319 -1.3783259511344542e-015 $319 6.2831853071795987 $204 $320 forward 7 unknown #
loop $-1 $-1 $211 $128 #
plane-surface $-1 15.85849205349993 -6.2165387663455078 51.196380314823124 0 0.79863551827123203 0.60181501223851219 1 0 0 forward_v I I I I #
loop $-1 $-1 $321 $82 #
coedge $-1 $209 $209 $210 $322 reversed $129 $-1 #
coedge $-1 $210 $210 $209 $322 forward $131 $-1 #
coedge $-1 $211 $211 $132 $212 forward $206 $-1 #
edge $-1 $323 -1.3783259511344542e-015 $323 6.2831853071795987 $211 $324 forward 7 unknown #
loop $-1 $-1 $218 $133 #
plane-surface $-1 15.85849205349993 -6.2165387663455078 51.196380314823124 0 0.79863551827123203 0.60181501223851219 1 0 0 forward_v I I I I #
loop $-1 $-1 $325 $85 #
coedge $-1 $216 $216 $217 $326 reversed $134 $-1 #
coedge $-1 $217 $217 $216 $326 forward $136 $-1 #
coedge $-1 $218 $218 $137 $219 forward $213 $-1 #
edge $-1 $327 -1.3783259511344542e-015 $327 6.2831853071795987 $218 $328 forward 7 unknown #
face $-1 $329 $330 $33 $-1 $331 reversed single #
loop $-1 $-1 $332 $138 #
plane-surface $-1 -46.568803979613634 0 0 1 0 0 0 0 -1 forward_v I I I I #
coedge $-1 $333 $231 $334 $335 forward $139 $-1 #
coedge $-1 $336 $141 $333 $337 forward $89 $-1 #
coedge $-1 $141 $336 $338 $339 forward $89 $-1 #
coedge $-1 $234 $233 $141 $227 reversed $235 $-1 #
edge $-1 $340 -30.528596076689549 $341 30.528596076689549 $226 $342 forward 7 unknown #
coedge $-1 $143 $142 $343 $344 forward $56 $-1 #
coedge $-1 $345 $346 $142 $230 reversed $330 $-1 #
edge $-1 $237 -46.568803979613634 $347 46.568803979613634 $229 $348 forward 7 unknown #
coedge $-1 $223 $349 $143 $232 reversed $139 $-1 #
edge $-1 $350 -46.568803979613634 $236 46.568803979613634 $231 $351 forward 7 unknown #
coedge $-1 $226 $144 $349 $352 forward $235 $-1 #
coedge $-1 $144 $226 $345 $353 reversed $235 $-1 #
loop $-1 $-1 $233 $329 #
vertex $-1 $145 $354 #
vertex $-1 $145 $355 #
straight-curve $-1 46.568803979613634 0 6.5945755147073672 0 1 0 I I #
face $-1 $356 $357 $34 $-1 $358 forward single #
loop $-1 $-1 $359 $146 #
plane-surface $-1 -46.568803979613634 0 0 1 0 0 0 0 -1 forward_v I I I I #
coedge $-1 $249 $360 $251 $361 forward $147 $-1 #
coedge $-1 $149 $251 $362 $363 reversed $93 $-1 #
coedge $-1 $364 $247 $149 $245 forward $365 $-1 #
edge $-1 $253 0.41751691134483426 $366 4.2572113726899667 $244 $367 forward 7 unknown #
coedge $-1 $151 $150 $359 $368 reversed $59 $-1 #
coedge $-1 $244 $369 $150 $248 forward $365 $-1 #
edge $-1 $370 -24.401696202938759 $253 -19.932519350410992 $247 $371 forward 7 unknown #
coedge $-1 $372 $242 $151 $250 forward $147 $-1 #
edge $-1 $252 19.932519350410992 $373 24.401696202938759 $249 $374 forward 7 unknown #
coedge $-1 $243 $152 $242 $361 reversed $93 $-1 #
vertex $-1 $250 $375 #
vertex $-1 $248 $376 #
straight-curve $-1 -42.099627127085867 0 2.7548810533622348 0 -1 0 I I #
face $-1 $377 $378 $35 $-1 $379 reversed single #
loop $-1 $-1 $380 $154 #
plane-surface $-1 0 -30.528596076689549 0 0 1 0 0 0 1 forward_v I I I I #
coedge $-1 $381 $382 $260 $383 forward $155 $-1 #
coedge $-1 $384 $157 $263 $385 reversed $97 $-1 #
coedge $-1 $157 $384 $258 $383 reversed $97 $-1 #
coedge $-1 $386 $266 $157 $262 forward $378 $-1 #
edge $-1 $387 0.41751691134483426 $388 4.2572113726899667 $261 $389 forward 7 unknown #
coedge $-1 $159 $158 $259 $385 forward $62 $-1 #
coedge $-1 $390 $380 $158 $265 forward $256 $-1 #
edge $-1 $391 19.932519350410992 $271 24.401696202938759 $264 $392 forward 7 unknown #
coedge $-1 $261 $393 $159 $267 forward $378 $-1 #
edge $-1 $272 -24.401696202938759 $387 -19.932519350410992 $266 $394 forward 7 unknown #
coedge $-1 $395 $160 $393 $396 reversed $270 $-1 #
coedge $-1 $160 $395 $390 $397 forward $270 $-1 #
loop $-1 $-1 $160 $377 #
vertex $-1 $265 $398 #
vertex $-1 $161 $399 #
straight-curve $-1 46.568803979613634 0 2.7548810533622348 0 1 0 I I #
face $-1 $-1 $400 $36 $-1 $401 reversed single #
loop $-1 $-1 $168 $162 #
plane-surface $-1 0 0 6.5945755147073672 0 0 1 1 0 0 forward_v I I I I #
coedge $-1 $402 $403 $404 $405 reversed $163 $-1 #
coedge $-1 $406 $165 $167 $284 forward $101 $-1 #
coedge $-1 $165 $406 $402 $407 forward $101 $-1 #
coedge $-1 $404 $168 $165 $281 forward $275 $-1 #
edge $-1 $287 5.9506917974575337 $408 19.015490784379903 $280 $409 forward 7 unknown #
coedge $-1 $410 $411 $166 $283 forward $400 $-1 #
edge $-1 $412 -36.626156331768982 $286 -32.129175299825334 $282 $413 forward 7 unknown #
edge $-1 $287 -7.6507210021904886 $412 1.3060111725721878e-014 $167 $414 forward 7 unknown #
coedge $-1 $168 $404 $410 $415 forward $275 $-1 #
vertex $-1 $283 $416 #
vertex $-1 $169 $417 #
straight-curve $-1 -18.433783088376252 -42.636754584161174 6.5945755147073655 0 1 0 I I #
coedge $-1 $289 $289 $-1 $418 reversed $172 $-1 #
edge $-1 $419 0 $419 6.2831853071796004 $173 $420 forward 7 unknown #
vertex $-1 $176 $421 #
ellipse-curve $-1 -28.885622277914152 -27.433814442563413 4.3460849987355381 0 -0.5877852598018023 0.80901698891910034 1 0 0 1 I I #
coedge $-1 $293 $293 $-1 $422 reversed $179 $-1 #
edge $-1 $423 0 $423 6.2831853071796004 $180 $424 forward 7 unknown #
vertex $-1 $183 $425 #
ellipse-curve $-1 -24.96618258183744 -27.433814442563413 4.3460849987355381 0 -0.5877852598018023 0.80901698891910034 1 0 0 1 I I #
coedge $-1 $297 $297 $-1 $426 reversed $186 $-1 #
edge $-1 $427 0 $427 6.2831853071796004 $187 $428 forward 7 unknown #
vertex $-1 $190 $429 #
ellipse-curve $-1 -21.046742885760729 -27.433814442563413 4.3460849987355381 0 -0.5877852598018023 0.80901698891910034 1 0 0 1 I I #
face $-1 $-1 $313 $40 $-1 $430 forward single #
loop $-1 $-1 $431 $191 #
plane-surface $-1 0 30.528596076689549 0 0 -1 0 0 0 -1 forward_v I I I I #
coedge $-1 $432 $433 $434 $435 reversed $192 $-1 #
coedge $-1 $436 $194 $196 $311 forward $120 $-1 #
coedge $-1 $194 $436 $432 $437 forward $120 $-1 #
coedge $-1 $434 $197 $194 $308 forward $313 $-1 #
edge $-1 $315 -0.23410127014524917 $438 16.092593323645179 $307 $439 forward 7 unknown #
coedge $-1 $440 $441 $195 $310 forward $302 $-1 #
edge $-1 $442 -51.190057479112653 $314 -47.029419979628251 $309 $443 forward 7 unknown #
edge $-1 $315 55.847509633259421 $442 61.057192153379148 $196 $444 forward 7 unknown #
coedge $-1 $197 $434 $440 $445 forward $313 $-1 #
loop $-1 $-1 $434 $301 #
vertex $-1 $310 $446 #
vertex $-1 $198 $447 #
straight-curve $-1 7.6951447566047158 34.083231518357394 6.5945755147073655 0 -1 0 I I #
coedge $-1 $317 $317 $-1 $448 reversed $201 $-1 #
edge $-1 $449 0 $449 6.2831853071796004 $202 $450 forward 7 unknown #
vertex $-1 $205 $451 #
ellipse-curve $-1 10.960483675362795 28.960963501887239 4.5142567649651788 0 0.79863551827123203 0.60181501223851219 1 0 0 1 I I #
coedge $-1 $321 $321 $-1 $452 reversed $208 $-1 #
edge $-1 $453 0 $453 6.2831853071796004 $209 $454 forward 7 unknown #
vertex $-1 $212 $455 #
ellipse-curve $-1 15.858492053499923 28.960963501887239 4.5142567649651788 0 0.79863551827123203 0.60181501223851219 1 0 0 1 I I #
coedge $-1 $325 $325 $-1 $456 reversed $215 $-1 #
edge $-1 $457 0 $457 6.2831853071796004 $216 $458 forward 7 unknown #
vertex $-1 $219 $459 #
ellipse-curve $-1 20.75650043163705 28.960963501887239 4.5142567649651788 0 0.79863551827123203 0.60181501223851219 1 0 0 1 I I #
face $-1 $-1 $235 $33 $-1 $460 reversed single #
loop $-1 $-1 $345 $220 #
plane-surface $-1 0 30.528596076689549 0 0 -1 0 0 0 -1 forward_v I I I I #
coedge $-1 $461 $343 $346 $462 forward $221 $-1 #
coedge $-1 $349 $223 $224 $337 reversed $139 $-1 #
coedge $-1 $343 $461 $223 $335 reversed $221 $-1 #
edge $-1 $350 -6.5945755147073672 $463 6.5945755147073672 $334 $464 forward 7 unknown #
coedge $-1 $225 $224 $461 $465 forward $89 $-1 #
edge $-1 $341 -46.568803979613634 $463 46.568803979613634 $333 $466 forward 7 unknown #
coedge $-1 $346 $345 $225 $339 reversed $330 $-1 #
edge $-1 $467 -46.568803979613634 $340 46.568803979613634 $338 $468 forward 7 unknown #
vertex $-1 $227 $469 #
vertex $-1 $352 $470 #
straight-curve $-1 46.568803979613634 0 -6.5945755147073672 0 -1 0 I I #
coedge $-1 $332 $334 $228 $344 reversed $221 $-1 #
edge $-1 $347 -30.528596076689549 $350 30.528596076689549 $343 $471 forward 7 unknown #
coedge $-1 $338 $229 $234 $353 forward $330 $-1 #
coedge $-1 $229 $338 $332 $462 reversed $330 $-1 #
vertex $-1 $230 $472 #
straight-curve $-1 0 30.528596076689549 6.5945755147073672 -1 0 0 I I #
coedge $-1 $231 $333 $233 $352 reversed $139 $-1 #
vertex $-1 $344 $473 #
straight-curve $-1 0 -30.528596076689549 6.5945755147073672 1 0 0 I I #
edge $-1 $236 -6.5945755147073672 $341 6.5945755147073672 $233 $474 forward 7 unknown #
edge $-1 $237 -6.5945755147073672 $340 6.5945755147073672 $234 $475 forward 7 unknown #
point $-1 46.568803979613634 -30.528596076689549 6.5945755147073672 #
point $-1 46.568803979613634 30.528596076689549 6.5945755147073672 #
face $-1 $-1 $365 $34 $-1 $476 reversed single #
loop $-1 $-1 $362 $239 #
plane-surface $-1 0 0 6.5945755147073672 0 0 1 1 0 0 forward_v I I I I #
coedge $-1 $477 $478 $246 $368 forward $240 $-1 #
coedge $-1 $242 $372 $479 $480 reversed $147 $-1 #
edge $-1 $481 -4.2572113726899667 $252 -0.41751691134483426 $242 $482 forward 7 unknown #
coedge $-1 $479 $483 $243 $363 forward $357 $-1 #
edge $-1 $366 -30.528596076689549 $481 30.528596076689549 $362 $484 forward 7 unknown #
coedge $-1 $369 $244 $483 $485 reversed $365 $-1 #
loop $-1 $-1 $244 $356 #
vertex $-1 $245 $486 #
straight-curve $-1 -42.099627127085867 -30.528596076689549 2.3373641420174005 0 0 1 I I #
edge $-1 $373 -30.528596076689549 $370 30.528596076689549 $359 $487 forward 7 unknown #
coedge $-1 $247 $364 $477 $488 forward $365 $-1 #
vertex $-1 $368 $489 #
straight-curve $-1 -22.167107776674875 -30.528596076689549 2.7548810533622348 1 0 0 I I #
coedge $-1 $360 $249 $478 $490 reversed $147 $-1 #
vertex $-1 $368 $491 #
straight-curve $-1 -22.167107776674875 30.528596076689549 2.7548810533622348 -1 0 0 I I #
point $-1 -42.099627127085867 30.528596076689549 2.7548810533622348 #
point $-1 -42.099627127085867 -30.528596076689549 2.7548810533622348 #
face $-1 $-1 $270 $35 $-1 $492 reversed single #
loop $-1 $-1 $261 $255 #
plane-surface $-1 0 30.528596076689549 0 0 -1 0 0 0 -1 forward_v I I I I #
coedge $-1 $264 $493 $384 $494 forward $256 $-1 #
coedge $-1 $495 $258 $493 $496 forward $155 $-1 #
coedge $-1 $258 $495 $386 $497 forward $155 $-1 #
edge $-1 $388 -30.528596076689549 $498 30.528596076689549 $258 $499 forward 7 unknown #
coedge $-1 $260 $259 $380 $494 reversed $97 $-1 #
edge $-1 $391 -30.528596076689549 $387 30.528596076689549 $259 $500 forward 7 unknown #
coedge $-1 $393 $261 $382 $497 reversed $378 $-1 #
vertex $-1 $267 $501 #
vertex $-1 $262 $502 #
straight-curve $-1 42.099627127085867 30.528596076689549 2.3373641420174005 0 0 1 I I #
coedge $-1 $493 $264 $269 $397 reversed $256 $-1 #
vertex $-1 $265 $503 #
straight-curve $-1 22.167107776674875 -30.528596076689549 2.7548810533622348 1 0 0 I I #
coedge $-1 $266 $386 $268 $396 forward $378 $-1 #
straight-curve $-1 22.167107776674875 30.528596076689549 2.7548810533622348 -1 0 0 I I #
coedge $-1 $269 $268 $495 $504 reversed $270 $-1 #
edge $-1 $505 -6.5945755147073672 $272 -2.7548810533622348 $268 $506 forward 7 unknown #
edge $-1 $507 -6.5945755147073672 $271 -2.7548810533622348 $269 $508 forward 7 unknown #
point $-1 46.568803979613634 -30.528596076689549 2.7548810533622348 #
point $-1 46.568803979613634 30.528596076689549 2.7548810533622348 #
loop $-1 $-1 $282 $274 #
plane-surface $-1 0 -30.528596076689549 0 0 1 0 0 0 1 forward_v I I I I #
coedge $-1 $403 $277 $279 $407 reversed $163 $-1 #
coedge $-1 $277 $402 $509 $510 reversed $163 $-1 #
coedge $-1 $285 $280 $277 $405 forward $275 $-1 #
edge $-1 $408 -18.297721775723907 $511 -12.108158507471625 $404 $512 forward 7 unknown #
coedge $-1 $279 $278 $411 $513 reversed $101 $-1 #
edge $-1 $514 -1.3060111725721878e-014 $408 7.6507210021904886 $402 $515 forward 7 unknown #
vertex $-1 $281 $516 #
straight-curve $-1 -12.483091290918718 -24.339032808437267 6.5945755147073672 -1 0 0 I I #
coedge $-1 $509 $282 $285 $415 reversed $400 $-1 #
coedge $-1 $282 $509 $406 $513 forward $400 $-1 #
vertex $-1 $283 $517 #
straight-curve $-1 -18.433783088376252 -30.528596076689549 38.7237508145327 0 0 1 I I #
straight-curve $-1 -18.433783088376252 -30.528596076689539 2.097594482763725 0 -0.80901698891910034 -0.5877852598018023 I I #
edge $-1 $511 -31.498582075298621 $286 -18.433783088376252 $410 $518 forward 7 unknown #
point $-1 -18.433783088376252 -30.528596076689549 6.5945755147073672 #
point $-1 -18.433783088376252 -24.339032808437267 6.5945755147073672 #
edge $-1 $519 1 $519 0 $289 $-1 forward 7 unknown #
vertex $-1 $290 $520 #
ellipse-curve $-1 -28.885622277914152 -25.928591232161835 2.2743230261048413 0 -0.5877852598018023 0.80901698891910034 1 0 0 1 I I #
point $-1 -27.885622277914152 -27.433814442563428 4.3460849987355559 #
edge $-1 $521 1 $521 0 $293 $-1 forward 7 unknown #
vertex $-1 $294 $522 #
ellipse-curve $-1 -24.96618258183744 -25.928591232161835 2.2743230261048413 0 -0.5877852598018023 0.80901698891910034 1 0 0 1 I I #
point $-1 -23.96618258183744 -27.433814442563428 4.3460849987355559 #
edge $-1 $523 1 $523 0 $297 $-1 forward 7 unknown #
vertex $-1 $298 $524 #
ellipse-curve $-1 -21.046742885760729 -25.928591232161835 2.2743230261048413 0 -0.5877852598018023 0.80901698891910034 1 0 0 1 I I #
point $-1 -20.046742885760729 -27.433814442563428 4.3460849987355559 #
plane-surface $-1 0 0 6.5945755147073672 0 0 1 1 0 0 forward_v I I I I #
coedge $-1 $441 $440 $433 $525 forward $302 $-1 #
coedge $-1 $433 $304 $306 $437 reversed $192 $-1 #
coedge $-1 $304 $432 $431 $525 reversed $192 $-1 #
coedge $-1 $312 $307 $304 $435 forward $313 $-1 #
edge $-1 $438 -6.6899005912724547 $526 -3.5546354416678447 $434 $527 forward 7 unknown #
coedge $-1 $306 $305 $441 $528 reversed $120 $-1 #
edge $-1 $529 -61.057192153379148 $438 -55.847509633259421 $432 $530 forward 7 unknown #
vertex $-1 $308 $531 #
straight-curve $-1 7.9292460267499649 27.393330927084936 6.5945755147073655 1 0 0 I I #
coedge $-1 $431 $309 $312 $445 reversed $302 $-1 #
coedge $-1 $309 $431 $436 $528 forward $302 $-1 #
vertex $-1 $310 $532 #
straight-curve $-1 7.6951447566047158 30.528596076689549 53.623995494335617 0 0 1 I I #
straight-curve $-1 7.6951447566047158 -6.2165387663455078 51.196380314823124 0 0.60181501223851219 -0.79863551827123203 I I #
edge $-1 $526 -24.021839350395144 $314 -7.6951447566047158 $440 $533 forward 7 unknown #
point $-1 7.6951447566047158 30.528596076689549 6.5945755147073672 #
point $-1 7.6951447566047158 27.393330927084939 6.5945755147073655 #
edge $-1 $534 1 $534 0 $317 $-1 forward 7 unknown #
vertex $-1 $318 $535 #
ellipse-curve $-1 10.960483675362795 25.880414724464259 2.1928968231994572 0 0.79863551827123203 0.60181501223851219 1 0 0 1 I I #
point $-1 11.960483675362795 28.960963501887253 4.5142567649651912 #
edge $-1 $536 1 $536 0 $321 $-1 forward 7 unknown #
vertex $-1 $322 $537 #
ellipse-curve $-1 15.858492053499923 25.880414724464259 2.1928968231994572 0 0.79863551827123203 0.60181501223851219 1 0 0 1 I I #
point $-1 16.858492053499923 28.960963501887253 4.5142567649651912 #
edge $-1 $538 1 $538 0 $325 $-1 forward 7 unknown #
vertex $-1 $326 $539 #
ellipse-curve $-1 20.75650043163705 25.880414724464259 2.1928968231994572 0 0.79863551827123203 0.60181501223851219 1 0 0 1 I I #
point $-1 21.75650043163705 28.960963501887253 4.5142567649651912 #
plane-surface $-1 46.568803979613634 0 0 -1 0 0 0 0 1 forward_v I I I I #
coedge $-1 $334 $332 $336 $465 reversed $221 $-1 #
edge $-1 $347 -6.5945755147073672 $467 6.5945755147073672 $346 $540 forward 7 unknown #
vertex $-1 $465 $541 #
straight-curve $-1 -46.568803979613634 -30.528596076689549 0 0 0 -1 I I #
edge $-1 $463 -30.528596076689549 $467 30.528596076689549 $461 $542 forward 7 unknown #
straight-curve $-1 0 -30.528596076689549 -6.5945755147073672 -1 0 0 I I #
vertex $-1 $339 $543 #
straight-curve $-1 0 30.528596076689549 -6.5945755147073672 1 0 0 I I #
point $-1 46.568803979613634 30.528596076689549 -6.5945755147073672 #
point $-1 46.568803979613634 -30.528596076689549 -6.5945755147073672 #
straight-curve $-1 -46.568803979613634 0 6.5945755147073672 0 -1 0 I I #
point $-1 -46.568803979613634 30.528596076689549 6.5945755147073672 #
point $-1 -46.568803979613634 -30.528596076689549 6.5945755147073672 #
straight-curve $-1 46.568803979613634 -30.528596076689549 0 0 0 -1 I I #
straight-curve $-1 46.568803979613634 30.528596076689549 0 0 0 -1 I I #
plane-surface $-1 0 -30.528596076689549 0 0 1 0 0 0 1 forward_v I I I I #
coedge $-1 $544 $359 $369 $488 reversed $240 $-1 #
coedge $-1 $359 $544 $372 $490 forward $240 $-1 #
coedge $-1 $545 $362 $360 $480 forward $357 $-1 #
edge $-1 $481 42.099627127085867 $546 46.568803979613634 $360 $547 forward 7 unknown #
vertex $-1 $480 $548 #
straight-curve $-1 -42.099627127085867 30.528596076689549 2.3373641420174005 0 0 -1 I I #
coedge $-1 $362 $545 $364 $485 forward $357 $-1 #
straight-curve $-1 -42.099627127085867 0 6.5945755147073672 0 1 0 I I #
edge $-1 $549 -46.568803979613634 $366 -42.099627127085867 $364 $550 forward 7 unknown #
point $-1 -42.099627127085867 -30.528596076689549 6.5945755147073672 #
straight-curve $-1 -46.568803979613634 0 2.7548810533622348 0 -1 0 I I #
edge $-1 $549 -6.5945755147073672 $370 -2.7548810533622348 $477 $551 forward 7 unknown #
point $-1 -46.568803979613634 -30.528596076689549 2.7548810533622348 #
edge $-1 $546 -6.5945755147073672 $373 -2.7548810533622348 $372 $552 forward 7 unknown #
point $-1 -46.568803979613634 30.528596076689549 2.7548810533622348 #
plane-surface $-1 46.568803979613634 0 0 -1 0 0 0 0 1 forward_v I I I I #
coedge $-1 $380 $390 $381 $496 reversed $256 $-1 #
edge $-1 $498 -4.2572113726899667 $391 -0.41751691134483426 $380 $553 forward 7 unknown #
coedge $-1 $382 $381 $395 $504 forward $155 $-1 #
edge $-1 $498 42.099627127085867 $507 46.568803979613634 $493 $554 forward 7 unknown #
edge $-1 $505 -46.568803979613634 $388 -42.099627127085867 $386 $555 forward 7 unknown #
vertex $-1 $496 $556 #
straight-curve $-1 42.099627127085867 0 6.5945755147073672 0 -1 0 I I #
straight-curve $-1 42.099627127085867 0 2.7548810533622348 0 1 0 I I #
point $-1 42.099627127085867 30.528596076689549 2.7548810533622348 #
point $-1 42.099627127085867 30.528596076689549 6.5945755147073672 #
point $-1 42.099627127085867 -30.528596076689549 2.7548810533622348 #
edge $-1 $507 -30.528596076689549 $505 30.528596076689549 $395 $557 forward 7 unknown #
vertex $-1 $504 $558 #
straight-curve $-1 46.568803979613634 30.528596076689549 0 0 0 -1 I I #
vertex $-1 $504 $559 #
straight-curve $-1 46.568803979613634 -30.528596076689549 0 0 0 -1 I I #
coedge $-1 $411 $410 $403 $510 forward $400 $-1 #
edge $-1 $511 32.129175299825334 $514 36.626156331768982 $509 $560 forward 7 unknown #
vertex $-1 $415 $561 #
straight-curve $-1 -31.498582075298621 -42.636754584161174 6.5945755147073655 0 -1 0 I I #
edge $-1 $514 -19.015490784379903 $412 -5.9506917974575337 $411 $562 forward 7 unknown #
vertex $-1 $513 $563 #
straight-curve $-1 -31.498582075298621 -30.528596076689539 2.097594482763725 0 0.80901698891910034 0.5877852598018023 I I #
point $-1 -31.498582075298621 -24.339032808437267 6.5945755147073672 #
point $-1 -18.433783088376252 -30.528596076689549 2.0975944827637174 #
straight-curve $-1 0 -30.528596076689549 6.5945755147073672 1 0 0 I I #
vertex $-1 $418 $564 #
point $-1 -27.885622277914152 -25.928591232161835 2.2743230261048413 #
vertex $-1 $422 $565 #
point $-1 -23.96618258183744 -25.928591232161835 2.2743230261048413 #
vertex $-1 $426 $566 #
point $-1 -20.046742885760729 -25.928591232161835 2.2743230261048413 #
edge $-1 $526 47.029419979628251 $529 51.190057479112653 $431 $567 forward 7 unknown #
vertex $-1 $445 $568 #
straight-curve $-1 24.021839350395144 34.083231518357394 6.5945755147073655 0 1 0 I I #
edge $-1 $529 -16.092593323645179 $442 0.23410127014524917 $441 $569 forward 7 unknown #
vertex $-1 $528 $570 #
straight-curve $-1 24.021839350395144 -6.2165387663455078 51.196380314823124 0 -0.60181501223851219 0.79863551827123203 I I #
point $-1 24.021839350395144 27.393330927084939 6.5945755147073655 #
point $-1 7.6951447566047158 30.528596076689553 2.4339380152229637 #
straight-curve $-1 0 30.528596076689549 6.5945755147073672 -1 0 0 I I #
vertex $-1 $448 $571 #
point $-1 11.960483675362795 25.880414724464259 2.1928968231994572 #
vertex $-1 $452 $572 #
point $-1 16.858492053499923 25.880414724464259 2.1928968231994572 #
vertex $-1 $456 $573 #
point $-1 21.75650043163705 25.880414724464259 2.1928968231994572 #
straight-curve $-1 -46.568803979613634 30.528596076689549 0 0 0 -1 I I #
point $-1 -46.568803979613634 -30.528596076689549 -6.5945755147073672 #
straight-curve $-1 -46.568803979613634 0 -6.5945755147073672 0 1 0 I I #
point $-1 -46.568803979613634 30.528596076689549 -6.5945755147073672 #
coedge $-1 $478 $477 $545 $574 reversed $240 $-1 #
coedge $-1 $483 $479 $544 $574 forward $357 $-1 #
vertex $-1 $480 $575 #
straight-curve $-1 0 30.528596076689549 6.5945755147073672 -1 0 0 I I #
point $-1 -42.099627127085867 30.528596076689549 6.5945755147073672 #
vertex $-1 $574 $576 #
straight-curve $-1 0 -30.528596076689549 6.5945755147073672 1 0 0 I I #
straight-curve $-1 -46.568803979613634 -30.528596076689549 0 0 0 -1 I I #
straight-curve $-1 -46.568803979613634 30.528596076689549 0 0 0 -1 I I #
straight-curve $-1 42.099627127085867 -30.528596076689549 2.3373641420174005 0 0 -1 I I #
straight-curve $-1 0 -30.528596076689549 6.5945755147073672 1 0 0 I I #
straight-curve $-1 0 30.528596076689549 6.5945755147073672 -1 0 0 I I #
point $-1 42.099627127085867 -30.528596076689549 6.5945755147073672 #
straight-curve $-1 46.568803979613634 0 6.5945755147073672 0 1 0 I I #
point $-1 46.568803979613634 30.528596076689549 6.5945755147073672 #
point $-1 46.568803979613634 -30.528596076689549 6.5945755147073672 #
straight-curve $-1 -31.498582075298621 -30.528596076689549 38.7237508145327 0 0 -1 I I #
point $-1 -31.498582075298621 -30.528596076689549 6.5945755147073672 #
straight-curve $-1 -12.483091290918718 -30.528596076689549 2.0975944827637174 1 0 0 I I #
point $-1 -31.498582075298621 -30.528596076689549 2.0975944827637174 #
point $-1 -28.885622277914152 -25.34080597236003 1.4653060371857412 #
point $-1 -24.96618258183744 -25.34080597236003 1.4653060371857412 #
point $-1 -21.046742885760729 -25.34080597236003 1.4653060371857412 #
straight-curve $-1 24.021839350395144 30.528596076689549 53.623995494335617 0 0 -1 I I #
point $-1 24.021839350395144 30.528596076689549 6.5945755147073672 #
straight-curve $-1 7.9292460267499649 30.528596076689549 2.4339380152229708 -1 0 0 I I #
point $-1 24.021839350395144 30.528596076689553 2.4339380152229637 #
point $-1 10.960483675362795 25.081779206193026 1.5910818109609448 #
point $-1 15.858492053499923 25.081779206193026 1.5910818109609448 #
point $-1 20.75650043163705 25.081779206193026 1.5910818109609448 #
edge $-1 $546 -30.528596076689549 $549 30.528596076689549 $544 $577 forward 7 unknown #
point $-1 -46.568803979613634 30.528596076689549 6.5945755147073672 #
point $-1 -46.568803979613634 -30.528596076689549 6.5945755147073672 #
straight-curve $-1 -46.568803979613634 0 6.5945755147073672 0 -1 0 I I #
End-of-ACIS-data 