500 0 6 0           
7 Unknown 11 ACIS 5.0 NT 24 Thu Mar 25 22:23:32 1999 
-1 9.9999999999999995e-007 1e-010 
body $-1 $6 $-1 $7 #
body $-1 $8 $-1 $9 #
body $-1 $10 $-1 $11 #
body $-1 $12 $-1 $13 #
body $-1 $14 $-1 $15 #
body $-1 $16 $-1 $17 #
lump $-1 $-1 $18 $0 #
transform $-1 1 0 0 0 1 0 0 0 1 55.281228064821313 33.693256441094789 14.287783387219218 1 rotate no_reflect no_shear #
lump $-1 $-1 $19 $1 #
transform $-1 1 0 0 0 1 0 0 0 1 55.281228064821313 33.693256441094789 14.287783387219218 1 rotate no_reflect no_shear #
lump $-1 $-1 $20 $2 #
transform $-1 1 0 0 0 1 0 0 0 1 55.281228064821313 33.693256441094789 14.287783387219218 1 rotate no_reflect no_shear #
lump $-1 $-1 $21 $3 #
transform $-1 1 0 0 0 1 0 0 0 1 55.281228064821313 33.693256441094789 14.287783387219218 1 rotate no_reflect no_shear #
lump $-1 $-1 $22 $4 #
transform $-1 1 0 0 0 1 0 0 0 1 55.281228064821313 33.693256441094789 14.287783387219218 1 rotate no_reflect no_shear #
lump $-1 $-1 $23 $5 #
transform $-1 1 0 0 0 1 0 0 0 1 55.281228064821313 33.693256441094789 14.287783387219218 1 rotate no_reflect no_shear #
shell $-1 $-1 $-1 $24 $-1 $6 #
shell $-1 $-1 $-1 $25 $-1 $8 #
shell $-1 $-1 $-1 $26 $-1 $10 #
shell $-1 $-1 $-1 $27 $-1 $12 #
shell $-1 $-1 $-1 $28 $-1 $14 #
shell $-1 $-1 $-1 $29 $-1 $16 #
face $-1 $30 $31 $18 $-1 $32 forward single #
face $-1 $33 $34 $19 $-1 $35 forward single #
face $-1 $36 $37 $20 $-1 $38 forward single #
face $-1 $39 $40 $21 $-1 $41 reversed single #
face $-1 $42 $43 $22 $-1 $44 forward single #
face $-1 $45 $46 $23 $-1 $47 forward single #
face $-1 $48 $49 $18 $-1 $50 reversed single #
loop $-1 $-1 $51 $24 #
plane-surface $-1 0 0 14.287783387219218 0 0 1 1 0 0 forward_v I I I I #
face $-1 $52 $53 $19 $-1 $54 reversed single #
loop $-1 $-1 $55 $25 #
plane-surface $-1 0 -33.693256441094789 0 0 1 0 0 0 1 forward_v I I I I #
face $-1 $56 $57 $20 $-1 $58 reversed single #
loop $-1 $-1 $59 $26 #
plane-surface $-1 0 33.693256441094789 0 0 -1 0 0 0 -1 forward_v I I I I #
face $-1 $60 $61 $21 $-1 $62 reversed single #
loop $-1 $-1 $63 $27 #
plane-surface $-1 14.812561584800527 14.963453348576849 152.22924752671753 0 -1 0 -0.50000000669873634 0 -0.8660253999169214 forward_v I I I I #
face $-1 $64 $65 $22 $-1 $66 forward single #
loop $-1 $67 $68 $28 #
cone-surface $-1 43.394604748634848 9.8112403416670944 6.7892074908742908 -0.50000000669873634 0 -0.8660253999169214 0.8660253999169214 0 -0.50000000669873634 1 I I 0 1 1 forward I I I I #
face $-1 $69 $70 $23 $-1 $71 forward single #
loop $-1 $72 $73 $29 #
cone-surface $-1 43.394604748634848 12.90256814581295 6.7892074908742908 -0.50000000669873634 0 -0.8660253999169214 0.8660253999169214 0 -0.50000000669873634 1 I I 0 1 1 forward I I I I #
face $-1 $74 $75 $18 $-1 $76 reversed single #
loop $-1 $-1 $77 $30 #
plane-surface $-1 0 0 -14.287783387219218 0 0 1 1 0 0 forward_v I I I I #
coedge $-1 $78 $79 $80 $81 forward $31 $-1 #
face $-1 $82 $83 $19 $-1 $84 reversed single #
loop $-1 $-1 $85 $33 #
plane-surface $-1 0 0 -14.287783387219218 0 0 1 1 0 0 forward_v I I I I #
coedge $-1 $86 $87 $88 $89 forward $34 $-1 #
face $-1 $90 $91 $20 $-1 $92 forward single #
loop $-1 $-1 $93 $36 #
plane-surface $-1 -55.281228064821313 0 0 1 0 0 0 0 -1 forward_v I I I I #
coedge $-1 $94 $95 $96 $97 forward $37 $-1 #
face $-1 $98 $99 $21 $-1 $100 reversed single #
loop $-1 $-1 $101 $39 #
plane-surface $-1 -40.468667220649529 11.356904243740019 56.479352241246701 0.50000000669873634 0 0.8660253999169214 0.8660253999169214 0 -0.50000000669873634 forward_v I I I I #
coedge $-1 $102 $103 $104 $105 reversed $40 $-1 #
face $-1 $-1 $106 $22 $-1 $107 forward single #
loop $-1 $108 $109 $42 #
cone-surface $-1 42.593959271432801 9.8112403416670944 5.4024488702822033 -0.50000000669873634 0 -0.8660253999169214 0.4330126999584607 0 -0.25000000334936817 1 I I -0.70710678118654746 0.70710678118654746 0.5 forward I I I I #
loop $-1 $-1 $110 $28 #
coedge $-1 $68 $68 $111 $112 reversed $43 $-1 #
face $-1 $-1 $113 $23 $-1 $114 forward single #
loop $-1 $115 $116 $45 #
cone-surface $-1 42.593959271432801 12.90256814581295 5.4024488702822033 -0.50000000669873634 0 -0.8660253999169214 0.4330126999584607 0 -0.25000000334936817 1 I I -0.70710678118654746 0.70710678118654746 0.5 forward I I I I #
loop $-1 $-1 $117 $29 #
coedge $-1 $73 $73 $118 $119 reversed $46 $-1 #
face $-1 $120 $121 $18 $-1 $122 reversed single #
loop $-1 $-1 $123 $48 #
plane-surface $-1 0 -33.693256441094789 0 0 1 0 0 0 1 forward_v I I I I #
coedge $-1 $124 $125 $126 $127 forward $49 $-1 #
coedge $-1 $128 $51 $129 $130 forward $31 $-1 #
coedge $-1 $51 $128 $131 $132 forward $31 $-1 #
coedge $-1 $133 $134 $51 $81 reversed $135 $-1 #
edge $-1 $136 -33.693256441094789 $137 33.693256441094789 $80 $138 forward 7 unknown #
face $-1 $139 $140 $19 $-1 $141 forward single #
loop $-1 $-1 $142 $52 #
plane-surface $-1 55.281228064821313 0 0 -1 0 0 0 0 1 forward_v I I I I #
coedge $-1 $143 $144 $145 $146 forward $53 $-1 #
coedge $-1 $145 $55 $142 $147 reversed $34 $-1 #
coedge $-1 $55 $145 $148 $149 reversed $34 $-1 #
coedge $-1 $150 $151 $55 $89 reversed $140 $-1 #
edge $-1 $152 -55.281228064821313 $153 55.281228064821313 $88 $154 forward 7 unknown #
face $-1 $155 $156 $20 $-1 $157 reversed single #
loop $-1 $-1 $158 $56 #
plane-surface $-1 0 38.670399483227825 -10.539654829833466 0 0 1 1 0 0 forward_v I I I I #
coedge $-1 $159 $160 $94 $161 forward $57 $-1 #
coedge $-1 $162 $59 $93 $161 reversed $37 $-1 #
coedge $-1 $59 $162 $163 $164 reversed $37 $-1 #
coedge $-1 $158 $165 $59 $97 reversed $91 $-1 #
edge $-1 $166 -55.281228064821313 $167 55.281228064821313 $96 $168 forward 7 unknown #
face $-1 $169 $170 $21 $-1 $171 forward single #
loop $-1 $-1 $172 $60 #
plane-surface $-1 14.812561584800527 7.7503551389031884 152.22924752671753 0 1 0 0.50000000669873634 0 0.8660253999169214 forward_v I I I I #
coedge $-1 $173 $174 $175 $176 reversed $61 $-1 #
coedge $-1 $103 $63 $177 $178 reversed $40 $-1 #
coedge $-1 $63 $102 $173 $179 reversed $40 $-1 #
coedge $-1 $175 $180 $63 $105 forward $170 $-1 #
edge $-1 $181 -47.874947272421053 $182 -25.202991587753456 $104 $183 forward 7 unknown #
loop $-1 $-1 $111 $64 #
plane-surface $-1 -40.468667220649529 11.356904243740019 56.479352241246701 0.50000000669873634 0 0.8660253999169214 0.8660253999169214 0 -0.50000000669873634 forward_v I I I I #
loop $-1 $-1 $184 $42 #
coedge $-1 $109 $109 $110 $185 reversed $65 $-1 #
coedge $-1 $110 $110 $109 $185 forward $67 $-1 #
coedge $-1 $111 $111 $68 $112 forward $106 $-1 #
edge $-1 $186 0 $186 6.2831853071796004 $111 $187 forward 7 unknown #
loop $-1 $-1 $118 $69 #
plane-surface $-1 -40.468667220649529 11.356904243740019 56.479352241246701 0.50000000669873634 0 0.8660253999169214 0.8660253999169214 0 -0.50000000669873634 forward_v I I I I #
loop $-1 $-1 $188 $45 #
coedge $-1 $116 $116 $117 $189 reversed $70 $-1 #
coedge $-1 $117 $117 $116 $189 forward $72 $-1 #
coedge $-1 $118 $118 $73 $119 forward $113 $-1 #
edge $-1 $190 0 $190 6.2831853071796004 $118 $191 forward 7 unknown #
face $-1 $192 $193 $18 $-1 $194 reversed single #
loop $-1 $-1 $195 $74 #
plane-surface $-1 -55.281228064821313 0 0 1 0 0 0 0 -1 forward_v I I I I #
coedge $-1 $196 $131 $197 $198 forward $75 $-1 #
coedge $-1 $199 $77 $196 $200 forward $49 $-1 #
coedge $-1 $77 $199 $201 $202 forward $49 $-1 #
coedge $-1 $134 $133 $77 $127 reversed $135 $-1 #
edge $-1 $203 -33.693256441094789 $204 33.693256441094789 $126 $205 forward 7 unknown #
coedge $-1 $79 $78 $206 $207 forward $31 $-1 #
coedge $-1 $208 $209 $78 $130 reversed $193 $-1 #
edge $-1 $137 -55.281228064821313 $210 55.281228064821313 $129 $211 forward 7 unknown #
coedge $-1 $123 $212 $79 $132 reversed $75 $-1 #
edge $-1 $213 -55.281228064821313 $136 55.281228064821313 $131 $214 forward 7 unknown #
coedge $-1 $126 $80 $212 $215 forward $135 $-1 #
coedge $-1 $80 $126 $208 $216 reversed $135 $-1 #
loop $-1 $-1 $133 $192 #
vertex $-1 $81 $217 #
vertex $-1 $81 $218 #
straight-curve $-1 55.281228064821313 0 14.287783387219218 0 1 0 I I #
face $-1 $219 $220 $19 $-1 $221 reversed single #
loop $-1 $-1 $151 $82 #
plane-surface $-1 0 -38.670399483227833 -10.539654829833466 0 0 1 1 0 0 forward_v I I I I #
coedge $-1 $222 $223 $86 $147 forward $83 $-1 #
coedge $-1 $224 $85 $223 $225 forward $53 $-1 #
coedge $-1 $85 $224 $226 $227 forward $53 $-1 #
coedge $-1 $87 $86 $85 $146 reversed $34 $-1 #
edge $-1 $228 -55.281228064821313 $229 55.281228064821313 $85 $230 forward 7 unknown #
edge $-1 $229 -14.287783387219218 $153 -10.539654829833466 $142 $231 forward 7 unknown #
coedge $-1 $226 $232 $87 $149 forward $233 $-1 #
edge $-1 $152 10.539654829833466 $228 14.287783387219218 $148 $234 forward 7 unknown #
coedge $-1 $235 $88 $232 $236 forward $140 $-1 #
coedge $-1 $88 $235 $222 $237 forward $140 $-1 #
vertex $-1 $149 $238 #
vertex $-1 $237 $239 #
straight-curve $-1 0 -33.693256441094789 -10.539654829833466 1 0 0 I I #
face $-1 $240 $241 $20 $-1 $242 reversed single #
loop $-1 $-1 $243 $90 #
plane-surface $-1 0 43.647542525360869 -12.413719108526342 0 -1 0 0 0 -1 forward_v I I I I #
coedge $-1 $244 $96 $245 $246 forward $91 $-1 #
coedge $-1 $247 $93 $165 $248 reversed $57 $-1 #
coedge $-1 $93 $247 $249 $250 reversed $57 $-1 #
edge $-1 $251 -14.287783387219218 $167 -10.539654829833466 $93 $252 forward 7 unknown #
coedge $-1 $95 $94 $253 $254 reversed $37 $-1 #
coedge $-1 $255 $245 $95 $164 forward $256 $-1 #
edge $-1 $166 10.539654829833466 $257 14.287783387219218 $163 $258 forward 7 unknown #
coedge $-1 $96 $244 $159 $248 forward $91 $-1 #
vertex $-1 $164 $259 #
vertex $-1 $248 $260 #
straight-curve $-1 0 33.693256441094789 -10.539654829833466 -1 0 0 I I #
face $-1 $-1 $261 $21 $-1 $262 reversed single #
loop $-1 $-1 $104 $98 #
plane-surface $-1 0 0 14.287783387219218 0 0 1 1 0 0 forward_v I I I I #
coedge $-1 $263 $264 $265 $266 reversed $99 $-1 #
coedge $-1 $267 $101 $103 $179 forward $61 $-1 #
coedge $-1 $101 $267 $263 $268 forward $61 $-1 #
coedge $-1 $265 $104 $101 $176 forward $170 $-1 #
edge $-1 $182 -9.2850012267068394 $269 -2.0719030170331791 $175 $270 forward 7 unknown #
coedge $-1 $271 $272 $102 $178 forward $261 $-1 #
edge $-1 $273 -74.916500327562119 $181 -61.826840376139543 $177 $274 forward 7 unknown #
edge $-1 $182 84.383136577534202 $273 110.56245612964264 $103 $275 forward 7 unknown #
coedge $-1 $104 $265 $271 $276 forward $170 $-1 #
vertex $-1 $178 $277 #
vertex $-1 $105 $278 #
straight-curve $-1 7.4062807924002634 14.963453348576849 14.287783387219221 -1 0 0 I I #
coedge $-1 $184 $184 $-1 $279 reversed $108 $-1 #
edge $-1 $280 0 $280 6.2831853071796004 $109 $281 forward 7 unknown #
vertex $-1 $112 $282 #
ellipse-curve $-1 43.94525022248753 9.8112403416670944 7.7429534115079326 0.50000000669873634 0 0.8660253999169214 0.8660253999169214 0 -0.50000000669873634 1 I I #
coedge $-1 $188 $188 $-1 $283 reversed $115 $-1 #
edge $-1 $284 0 $284 6.2831853071796004 $116 $285 forward 7 unknown #
vertex $-1 $119 $286 #
ellipse-curve $-1 43.94525022248753 12.90256814581295 7.7429534115079326 0.50000000669873634 0 0.8660253999169214 0.8660253999169214 0 -0.50000000669873634 1 I I #
face $-1 $-1 $135 $18 $-1 $287 reversed single #
loop $-1 $-1 $208 $120 #
plane-surface $-1 0 33.693256441094789 0 0 -1 0 0 0 -1 forward_v I I I I #
coedge $-1 $288 $206 $209 $289 forward $121 $-1 #
coedge $-1 $212 $123 $124 $200 reversed $75 $-1 #
coedge $-1 $206 $288 $123 $198 reversed $121 $-1 #
edge $-1 $213 -14.287783387219218 $290 14.287783387219218 $197 $291 forward 7 unknown #
coedge $-1 $125 $124 $288 $292 forward $49 $-1 #
edge $-1 $204 -55.281228064821313 $290 55.281228064821313 $196 $293 forward 7 unknown #
coedge $-1 $209 $208 $125 $202 reversed $193 $-1 #
edge $-1 $294 -55.281228064821313 $203 55.281228064821313 $201 $295 forward 7 unknown #
vertex $-1 $127 $296 #
vertex $-1 $215 $297 #
straight-curve $-1 55.281228064821313 0 -14.287783387219218 0 -1 0 I I #
coedge $-1 $195 $197 $128 $207 reversed $121 $-1 #
edge $-1 $210 -33.693256441094789 $213 33.693256441094789 $206 $298 forward 7 unknown #
coedge $-1 $201 $129 $134 $216 forward $193 $-1 #
coedge $-1 $129 $201 $195 $289 reversed $193 $-1 #
vertex $-1 $130 $299 #
straight-curve $-1 0 33.693256441094789 14.287783387219218 -1 0 0 I I #
coedge $-1 $131 $196 $133 $215 reversed $75 $-1 #
vertex $-1 $207 $300 #
straight-curve $-1 0 -33.693256441094789 14.287783387219218 1 0 0 I I #
edge $-1 $136 -14.287783387219218 $204 14.287783387219218 $133 $301 forward 7 unknown #
edge $-1 $137 -14.287783387219218 $203 14.287783387219218 $134 $302 forward 7 unknown #
point $-1 55.281228064821313 -33.693256441094789 14.287783387219218 #
point $-1 55.281228064821313 33.693256441094789 14.287783387219218 #
face $-1 $-1 $233 $19 $-1 $303 reversed single #
loop $-1 $-1 $304 $139 #
plane-surface $-1 0 -43.647542525360876 -12.413719108526342 0 1 0 0 0 1 forward_v I I I I #
coedge $-1 $305 $142 $151 $237 reversed $83 $-1 #
coedge $-1 $142 $305 $143 $225 reversed $83 $-1 #
coedge $-1 $144 $143 $306 $307 forward $53 $-1 #
edge $-1 $229 33.693256441094789 $308 43.647542525360876 $223 $309 forward 7 unknown #
coedge $-1 $310 $148 $144 $227 reversed $233 $-1 #
edge $-1 $311 -43.647542525360876 $228 -33.693256441094789 $226 $312 forward 7 unknown #
vertex $-1 $149 $313 #
vertex $-1 $225 $314 #
straight-curve $-1 0 -33.693256441094789 -14.287783387219218 1 0 0 I I #
straight-curve $-1 55.281228064821313 -33.693256441094789 0 0 0 1 I I #
coedge $-1 $148 $310 $150 $236 reversed $233 $-1 #
loop $-1 $-1 $148 $219 #
straight-curve $-1 -55.281228064821313 -33.693256441094789 0 0 0 -1 I I #
coedge $-1 $151 $150 $315 $316 forward $140 $-1 #
edge $-1 $152 -4.9771430421330436 $317 4.9771430421330436 $232 $318 forward 7 unknown #
edge $-1 $319 -4.9771430421330436 $153 4.9771430421330436 $222 $320 forward 7 unknown #
point $-1 -55.281228064821313 -33.693256441094789 -10.539654829833466 #
point $-1 55.281228064821313 -33.693256441094789 -10.539654829833466 #
face $-1 $-1 $256 $20 $-1 $321 reversed single #
loop $-1 $-1 $253 $155 #
plane-surface $-1 0 0 -14.287783387219218 0 0 1 1 0 0 forward_v I I I I #
coedge $-1 $322 $323 $324 $325 forward $156 $-1 #
coedge $-1 $165 $158 $323 $326 forward $91 $-1 #
coedge $-1 $163 $324 $158 $246 reversed $256 $-1 #
edge $-1 $166 -4.9771430421330436 $327 4.9771430421330436 $245 $328 forward 7 unknown #
coedge $-1 $160 $159 $329 $330 forward $57 $-1 #
edge $-1 $331 -4.9771430421330436 $167 4.9771430421330436 $159 $332 forward 7 unknown #
coedge $-1 $333 $253 $160 $250 forward $241 $-1 #
edge $-1 $251 -4.9771430421330365 $334 4.9771430421330436 $160 $335 forward 7 unknown #
vertex $-1 $250 $336 #
straight-curve $-1 -55.281228064821313 33.693256441094789 0 0 0 1 I I #
coedge $-1 $249 $337 $162 $254 forward $241 $-1 #
edge $-1 $257 -55.281228064821313 $251 55.281228064821313 $253 $338 forward 7 unknown #
coedge $-1 $324 $163 $337 $339 reversed $256 $-1 #
loop $-1 $-1 $163 $240 #
vertex $-1 $164 $340 #
straight-curve $-1 55.281228064821313 33.693256441094789 0 0 0 -1 I I #
point $-1 55.281228064821313 33.693256441094782 -10.539654829833466 #
point $-1 -55.281228064821313 33.693256441094782 -10.539654829833466 #
loop $-1 $-1 $177 $169 #
plane-surface $-1 55.281228064821313 0 0 -1 0 0 0 0 1 forward_v I I I I #
coedge $-1 $264 $172 $174 $268 reversed $99 $-1 #
coedge $-1 $172 $263 $341 $342 reversed $99 $-1 #
coedge $-1 $180 $175 $172 $266 forward $170 $-1 #
edge $-1 $269 25.202991587753456 $343 47.874947272421053 $265 $344 forward 7 unknown #
coedge $-1 $174 $173 $272 $345 reversed $61 $-1 #
edge $-1 $346 -110.56245612964264 $269 -84.383136577534202 $263 $347 forward 7 unknown #
vertex $-1 $176 $348 #
straight-curve $-1 32.609272380153726 5.6784521218700093 14.287783387219221 0 -1 0 I I #
coedge $-1 $341 $177 $180 $276 reversed $261 $-1 #
coedge $-1 $177 $341 $267 $345 forward $261 $-1 #
vertex $-1 $178 $349 #
straight-curve $-1 55.281228064821313 14.963453348576849 76.114623763358765 0 0 1 I I #
straight-curve $-1 -40.468667220649529 14.963453348576849 56.479352241246701 0.8660253999169214 0 -0.50000000669873634 I I #
edge $-1 $343 7.7503551389031884 $181 14.963453348576849 $271 $350 forward 7 unknown #
point $-1 55.281228064821313 14.963453348576849 14.287783387219218 #
point $-1 32.609272380153719 14.963453348576849 14.287783387219221 #
edge $-1 $351 1 $351 0 $184 $-1 forward 7 unknown #
vertex $-1 $185 $352 #
ellipse-curve $-1 42.843959274782172 9.8112403416670944 5.835461570240664 0.50000000669873634 0 0.8660253999169214 0.8660253999169214 0 -0.50000000669873634 1 I I #
point $-1 44.811275622404438 9.8112403416670944 7.2429534048091799 #
edge $-1 $353 1 $353 0 $188 $-1 forward 7 unknown #
vertex $-1 $189 $354 #
ellipse-curve $-1 42.843959274782172 12.90256814581295 5.835461570240664 0.50000000669873634 0 0.8660253999169214 0.8660253999169214 0 -0.50000000669873634 1 I I #
point $-1 44.811275622404438 12.90256814581295 7.2429534048091799 #
plane-surface $-1 55.281228064821313 0 0 -1 0 0 0 0 1 forward_v I I I I #
coedge $-1 $197 $195 $199 $292 reversed $121 $-1 #
edge $-1 $210 -14.287783387219218 $294 14.287783387219218 $209 $355 forward 7 unknown #
vertex $-1 $292 $356 #
straight-curve $-1 -55.281228064821313 -33.693256441094789 0 0 0 -1 I I #
edge $-1 $290 -33.693256441094789 $294 33.693256441094789 $288 $357 forward 7 unknown #
straight-curve $-1 0 -33.693256441094789 -14.287783387219218 -1 0 0 I I #
vertex $-1 $202 $358 #
straight-curve $-1 0 33.693256441094789 -14.287783387219218 1 0 0 I I #
point $-1 55.281228064821313 33.693256441094789 -14.287783387219218 #
point $-1 55.281228064821313 -33.693256441094789 -14.287783387219218 #
straight-curve $-1 -55.281228064821313 0 14.287783387219218 0 -1 0 I I #
point $-1 -55.281228064821313 33.693256441094789 14.287783387219218 #
point $-1 -55.281228064821313 -33.693256441094789 14.287783387219218 #
straight-curve $-1 55.281228064821313 -33.693256441094789 0 0 0 -1 I I #
straight-curve $-1 55.281228064821313 33.693256441094789 0 0 0 -1 I I #
plane-surface $-1 -55.281228064821313 0 0 1 0 0 0 0 -1 forward_v I I I I #
coedge $-1 $306 $315 $310 $359 forward $220 $-1 #
coedge $-1 $223 $222 $360 $361 forward $83 $-1 #
coedge $-1 $360 $304 $224 $307 reversed $220 $-1 #
edge $-1 $308 -55.281228064821313 $311 55.281228064821313 $306 $362 forward 7 unknown #
vertex $-1 $361 $363 #
straight-curve $-1 55.281228064821313 0 -14.287783387219218 0 -1 0 I I #
coedge $-1 $232 $226 $304 $359 reversed $233 $-1 #
vertex $-1 $227 $364 #
straight-curve $-1 -55.281228064821313 0 -14.287783387219218 0 1 0 I I #
point $-1 -55.281228064821313 -33.693256441094789 -14.287783387219218 #
point $-1 55.281228064821313 -33.693256441094789 -14.287783387219218 #
coedge $-1 $304 $360 $235 $316 reversed $220 $-1 #
edge $-1 $317 -55.281228064821313 $319 55.281228064821313 $315 $365 forward 7 unknown #
vertex $-1 $236 $366 #
straight-curve $-1 -55.281228064821313 -38.670399483227833 -10.539654829833466 0 -1 0 I I #
vertex $-1 $237 $367 #
straight-curve $-1 55.281228064821313 -38.670399483227833 -10.539654829833466 0 1 0 I I #
plane-surface $-1 55.281228064821313 0 0 -1 0 0 0 0 1 forward_v I I I I #
coedge $-1 $329 $243 $333 $368 reversed $156 $-1 #
coedge $-1 $243 $329 $244 $326 reversed $156 $-1 #
coedge $-1 $245 $255 $243 $325 reversed $256 $-1 #
edge $-1 $327 -1.8740642786928756 $369 1.8740642786928756 $324 $370 forward 7 unknown #
edge $-1 $327 -55.281228064821313 $331 55.281228064821313 $323 $371 forward 7 unknown #
vertex $-1 $246 $372 #
straight-curve $-1 55.281228064821313 38.670399483227825 -10.539654829833466 0 1 0 I I #
coedge $-1 $323 $322 $247 $330 reversed $156 $-1 #
edge $-1 $331 -1.8740642786928756 $334 1.8740642786928756 $329 $373 forward 7 unknown #
vertex $-1 $326 $374 #
straight-curve $-1 -55.281228064821313 38.670399483227825 -10.539654829833466 0 -1 0 I I #
coedge $-1 $337 $249 $322 $368 forward $241 $-1 #
vertex $-1 $368 $375 #
straight-curve $-1 -55.281228064821313 38.670399483227825 -14.287783387219218 0 1 0 I I #
point $-1 -55.281228064821313 33.693256441094789 -14.287783387219218 #
coedge $-1 $253 $333 $255 $339 forward $241 $-1 #
straight-curve $-1 0 33.693256441094789 -14.287783387219218 -1 0 0 I I #
edge $-1 $369 -43.647542525360869 $257 -33.693256441094789 $255 $376 forward 7 unknown #
point $-1 55.281228064821313 33.693256441094789 -14.287783387219218 #
coedge $-1 $272 $271 $264 $342 forward $261 $-1 #
edge $-1 $343 61.826840376139543 $346 74.916500327562119 $341 $377 forward 7 unknown #
vertex $-1 $276 $378 #
straight-curve $-1 7.4062807924002634 7.7503551389031884 14.287783387219221 1 0 0 I I #
edge $-1 $346 2.0719030170331791 $273 9.2850012267068394 $272 $379 forward 7 unknown #
vertex $-1 $345 $380 #
straight-curve $-1 -40.468667220649529 7.7503551389031884 56.479352241246701 -0.8660253999169214 0 0.50000000669873634 I I #
point $-1 32.609272380153719 7.7503551389031884 14.287783387219221 #
point $-1 55.281228064821313 14.963453348576849 1.1981234357966386 #
straight-curve $-1 55.281228064821313 0 14.287783387219218 0 1 0 I I #
vertex $-1 $279 $381 #
point $-1 43.709984674699093 9.8112403416670944 5.3354615635419274 #
vertex $-1 $283 $382 #
point $-1 43.709984674699093 12.90256814581295 5.3354615635419274 #
straight-curve $-1 -55.281228064821313 33.693256441094789 0 0 0 -1 I I #
point $-1 -55.281228064821313 -33.693256441094789 -14.287783387219218 #
straight-curve $-1 -55.281228064821313 0 -14.287783387219218 0 1 0 I I #
point $-1 -55.281228064821313 33.693256441094789 -14.287783387219218 #
edge $-1 $317 -1.8740642786928756 $311 1.8740642786928756 $310 $383 forward 7 unknown #
coedge $-1 $315 $306 $305 $361 reversed $220 $-1 #
edge $-1 $319 -1.8740642786928756 $308 1.8740642786928756 $305 $384 forward 7 unknown #
straight-curve $-1 0 -43.647542525360876 -14.287783387219218 -1 0 0 I I #
point $-1 55.281228064821313 -43.647542525360876 -14.287783387219218 #
point $-1 -55.281228064821313 -43.647542525360876 -14.287783387219218 #
straight-curve $-1 0 -43.647542525360876 -10.539654829833466 1 0 0 I I #
point $-1 -55.281228064821313 -43.647542525360876 -10.539654829833466 #
point $-1 55.281228064821313 -43.647542525360876 -10.539654829833466 #
edge $-1 $334 -55.281228064821313 $369 55.281228064821313 $322 $385 forward 7 unknown #
vertex $-1 $339 $386 #
straight-curve $-1 55.281228064821313 43.647542525360869 -12.413719108526342 0 0 -1 I I #
straight-curve $-1 0 43.647542525360869 -10.539654829833466 -1 0 0 I I #
point $-1 55.281228064821313 43.647542525360869 -10.539654829833466 #
straight-curve $-1 -55.281228064821313 43.647542525360869 -12.413719108526342 0 0 -1 I I #
point $-1 -55.281228064821313 43.647542525360869 -10.539654829833466 #
point $-1 -55.281228064821313 43.647542525360869 -14.287783387219218 #
straight-curve $-1 55.281228064821313 0 -14.287783387219218 0 -1 0 I I #
straight-curve $-1 55.281228064821313 7.7503551389031884 76.114623763358765 0 0 -1 I I #
point $-1 55.281228064821313 7.7503551389031884 14.287783387219218 #
straight-curve $-1 55.281228064821313 5.6784521218700093 1.1981234357966386 0 1 0 I I #
point $-1 55.281228064821313 7.7503551389031884 1.1981234357966386 #
point $-1 42.343959268083431 9.8112403416670944 4.9694361703237426 #
point $-1 42.343959268083431 12.90256814581295 4.9694361703237426 #
straight-curve $-1 -55.281228064821313 -43.647542525360876 -12.413719108526342 0 0 -1 I I #
straight-curve $-1 55.281228064821313 -43.647542525360876 -12.413719108526342 0 0 -1 I I #
straight-curve $-1 0 43.647542525360869 -14.287783387219218 1 0 0 I I #
point $-1 55.281228064821313 43.647542525360869 -14.287783387219218 #
End-of-ACIS-data 