500 0 11 0           
7 Unknown 11 ACIS 5.0 NT 24 Thu Mar 25 15:25:16 1999 
-1 9.9999999999999995e-007 1e-010 
body $-1 $11 $-1 $12 #
body $-1 $13 $-1 $14 #
body $-1 $15 $-1 $16 #
body $-1 $17 $-1 $18 #
body $-1 $19 $-1 $20 #
body $-1 $21 $-1 $22 #
body $-1 $23 $-1 $24 #
body $-1 $25 $-1 $26 #
body $-1 $27 $-1 $28 #
body $-1 $29 $-1 $30 #
body $-1 $31 $-1 $32 #
lump $-1 $-1 $33 $0 #
transform $-1 1 0 0 0 1 0 0 0 1 77.984557634205146 33.617111013615762 13.458950546074394 1 rotate no_reflect no_shear #
lump $-1 $-1 $34 $1 #
transform $-1 1 0 0 0 1 0 0 0 1 77.984557634205146 33.617111013615762 13.458950546074394 1 rotate no_reflect no_shear #
lump $-1 $-1 $35 $2 #
transform $-1 1 0 0 0 1 0 0 0 1 77.984557634205146 33.617111013615762 13.458950546074394 1 rotate no_reflect no_shear #
lump $-1 $-1 $36 $3 #
transform $-1 1 0 0 0 1 0 0 0 1 77.984557634205146 33.617111013615762 13.458950546074394 1 rotate no_reflect no_shear #
lump $-1 $-1 $37 $4 #
transform $-1 1 0 0 0 1 0 0 0 1 77.984557634205146 33.617111013615762 13.458950546074394 1 rotate no_reflect no_shear #
lump $-1 $-1 $38 $5 #
transform $-1 1 0 0 0 1 0 0 0 1 77.984557634205146 33.617111013615762 13.458950546074394 1 rotate no_reflect no_shear #
lump $-1 $-1 $39 $6 #
transform $-1 1 0 0 0 1 0 0 0 1 77.984557634205146 33.617111013615762 13.458950546074394 1 rotate no_reflect no_shear #
lump $-1 $-1 $40 $7 #
transform $-1 1 0 0 0 1 0 0 0 1 77.984557634205146 33.617111013615762 13.458950546074394 1 rotate no_reflect no_shear #
lump $-1 $-1 $41 $8 #
transform $-1 1 0 0 0 1 0 0 0 1 77.984557634205146 33.617111013615762 13.458950546074394 1 rotate no_reflect no_shear #
lump $-1 $-1 $42 $9 #
transform $-1 1 0 0 0 1 0 0 0 1 77.984557634205146 33.617111013615762 13.458950546074394 1 rotate no_reflect no_shear #
lump $-1 $-1 $43 $10 #
transform $-1 1 0 0 0 1 0 0 0 1 77.984557634205146 33.617111013615762 13.458950546074394 1 rotate no_reflect no_shear #
shell $-1 $-1 $-1 $44 $-1 $11 #
shell $-1 $-1 $-1 $45 $-1 $13 #
shell $-1 $-1 $-1 $46 $-1 $15 #
shell $-1 $-1 $-1 $47 $-1 $17 #
shell $-1 $-1 $-1 $48 $-1 $19 #
shell $-1 $-1 $-1 $49 $-1 $21 #
shell $-1 $-1 $-1 $50 $-1 $23 #
shell $-1 $-1 $-1 $51 $-1 $25 #
shell $-1 $-1 $-1 $52 $-1 $27 #
shell $-1 $-1 $-1 $53 $-1 $29 #
shell $-1 $-1 $-1 $54 $-1 $31 #
face $-1 $55 $56 $33 $-1 $57 forward single #
face $-1 $58 $59 $34 $-1 $60 reversed single #
face $-1 $61 $62 $35 $-1 $63 reversed single #
face $-1 $64 $65 $36 $-1 $66 reversed single #
face $-1 $67 $68 $37 $-1 $69 forward single #
face $-1 $70 $71 $38 $-1 $72 reversed single #
face $-1 $73 $74 $39 $-1 $75 forward single #
face $-1 $76 $77 $40 $-1 $78 reversed single #
face $-1 $79 $80 $41 $-1 $81 forward single #
face $-1 $82 $83 $42 $-1 $84 reversed single #
face $-1 $85 $86 $43 $-1 $87 forward single #
face $-1 $88 $89 $33 $-1 $90 reversed single #
loop $-1 $-1 $91 $44 #
plane-surface $-1 0 0 13.458950546074394 0 0 1 1 0 0 forward_v I I I I #
face $-1 $92 $93 $34 $-1 $94 reversed single #
loop $-1 $-1 $95 $45 #
plane-surface $-1 0 -25.93460386658877 10.150382576817849 0 0 1 1 0 0 forward_v I I I I #
face $-1 $96 $97 $35 $-1 $98 reversed single #
loop $-1 $-1 $99 $46 #
plane-surface $-1 -73.908697736539608 18.844164033479238 0 0 1 0 0 0 1 forward_v I I I I #
face $-1 $100 $101 $36 $-1 $102 reversed single #
loop $-1 $-1 $103 $47 #
plane-surface $-1 116.28677101620019 0.29603365695873407 225.39329449076519 0 -1 0 -0.81915205242281985 0 -0.57357642473473569 forward_v I I I I #
face $-1 $104 $105 $37 $-1 $106 forward single #
loop $-1 $107 $108 $48 #
cone-surface $-1 73.703383689094608 -3.5379951563720056 9.1134961342846061 -0.81915205242281985 0 -0.57357642473473569 0.86036463710210354 0 -1.2287280786342298 1 I I 0 1 1.5 forward I I I I #
face $-1 $109 $110 $38 $-1 $111 reversed single #
loop $-1 $-1 $112 $49 #
plane-surface $-1 116.28677101620019 18.844164033479245 225.39329449076519 0 -1 0 -0.81915205242281985 0 -0.57357642473473569 forward_v I I I I #
face $-1 $113 $114 $39 $-1 $115 forward single #
loop $-1 $116 $117 $50 #
cone-surface $-1 73.703383689094608 15.010135220148506 9.1134961342846061 -0.81915205242281985 0 -0.57357642473473569 0.86036463710210354 0 -1.2287280786342298 1 I I 0 1 1.5 forward I I I I #
face $-1 $118 $119 $40 $-1 $120 reversed single #
loop $-1 $-1 $121 $51 #
plane-surface $-1 -205.74697852089483 -7.3720239697027452 97.630873604075504 0 1 0 -0.81915205242281985 0 0.57357642473473569 forward_v I I I I #
face $-1 $122 $123 $41 $-1 $124 forward single #
loop $-1 $125 $126 $52 #
cone-surface $-1 -73.703383689094636 -3.5379951563720056 9.1134961342846061 0.81915205242281985 0 -0.57357642473473569 0.86036463710210354 0 1.2287280786342298 1 I I 0 1 1.5 forward I I I I #
face $-1 $127 $128 $42 $-1 $129 reversed single #
loop $-1 $-1 $130 $53 #
plane-surface $-1 -205.74697852089483 11.176106406817766 97.630873604075504 0 1 0 -0.81915205242281985 0 0.57357642473473569 forward_v I I I I #
face $-1 $131 $132 $43 $-1 $133 forward single #
loop $-1 $134 $135 $54 #
cone-surface $-1 -73.703383689094636 15.010135220148506 9.1134961342846061 0.81915205242281985 0 -0.57357642473473569 0.86036463710210354 0 1.2287280786342298 1 I I 0 1 1.5 forward I I I I #
face $-1 $136 $137 $33 $-1 $138 reversed single #
loop $-1 $-1 $139 $55 #
plane-surface $-1 0 0 -13.458950546074394 0 0 1 1 0 0 forward_v I I I I #
coedge $-1 $140 $141 $142 $143 forward $56 $-1 #
face $-1 $144 $145 $34 $-1 $146 reversed single #
loop $-1 $-1 $147 $58 #
plane-surface $-1 0 -18.252096719561777 11.804666561446123 0 -1 0 0 0 -1 forward_v I I I I #
coedge $-1 $148 $149 $150 $151 reversed $59 $-1 #
face $-1 $152 $153 $35 $-1 $154 reversed single #
loop $-1 $-1 $155 $61 #
plane-surface $-1 -77.003389685735087 26.2306375235475 0 1 0 0 0 0 -1 forward_v I I I I #
coedge $-1 $156 $157 $158 $159 forward $62 $-1 #
face $-1 $160 $161 $36 $-1 $162 reversed single #
loop $-1 $-1 $163 $64 #
plane-surface $-1 -11.475649870489463 -3.5379951563720056 135.93308698607052 0.81915205242281985 0 0.57357642473473569 0.57357642473473569 0 -0.81915205242281985 forward_v I I I I #
coedge $-1 $164 $165 $166 $167 reversed $65 $-1 #
face $-1 $-1 $168 $37 $-1 $169 forward single #
loop $-1 $170 $171 $67 #
cone-surface $-1 70.659293965672589 -3.5379951563720056 6.9820016272905399 -0.81915205242281985 0 -0.57357642473473569 0.43018231855105177 0 -0.61436403931711492 1 I I -0.70710678118654757 0.70710678118654757 0.75 forward I I I I #
loop $-1 $-1 $172 $48 #
coedge $-1 $108 $108 $173 $174 reversed $68 $-1 #
face $-1 $175 $176 $38 $-1 $177 reversed single #
loop $-1 $-1 $178 $70 #
plane-surface $-1 -11.475649870489463 15.010135220148506 135.93308698607052 0.81915205242281985 0 0.57357642473473569 0.57357642473473569 0 -0.81915205242281985 forward_v I I I I #
coedge $-1 $179 $180 $181 $182 reversed $71 $-1 #
face $-1 $-1 $183 $39 $-1 $184 forward single #
loop $-1 $185 $186 $73 #
cone-surface $-1 70.659293965672589 15.010135220148506 6.9820016272905399 -0.81915205242281985 0 -0.57357642473473569 0.43018231855105177 0 -0.61436403931711492 1 I I -0.70710678118654757 0.70710678118654757 0.75 forward I I I I #
loop $-1 $-1 $187 $50 #
coedge $-1 $117 $117 $188 $189 reversed $74 $-1 #
face $-1 $190 $191 $40 $-1 $192 reversed single #
loop $-1 $-1 $193 $76 #
plane-surface $-1 -77.984557634205174 -3.5379951563720056 8.1706660993808526 -0.81915205242281985 0 0.57357642473473569 0.57357642473473569 0 0.81915205242281985 forward_v I I I I #
coedge $-1 $194 $195 $196 $197 reversed $77 $-1 #
face $-1 $-1 $198 $41 $-1 $199 forward single #
loop $-1 $200 $201 $79 #
cone-surface $-1 -70.659293965672617 -3.5379951563720056 6.9820016272905399 0.81915205242281985 0 -0.57357642473473569 0.43018231855105177 0 0.61436403931711492 1 I I -0.70710678118654757 0.70710678118654757 0.75 forward I I I I #
loop $-1 $-1 $202 $52 #
coedge $-1 $126 $126 $203 $204 reversed $80 $-1 #
face $-1 $205 $206 $42 $-1 $207 forward single #
loop $-1 $-1 $208 $82 #
plane-surface $-1 -77.984557634205174 15.010135220148506 8.1706660993808526 -0.81915205242281985 0 0.57357642473473569 0.57357642473473569 0 0.81915205242281985 forward_v I I I I #
coedge $-1 $209 $210 $211 $212 reversed $83 $-1 #
face $-1 $-1 $213 $43 $-1 $214 forward single #
loop $-1 $215 $216 $85 #
cone-surface $-1 -70.659293965672617 15.010135220148506 6.9820016272905399 0.81915205242281985 0 -0.57357642473473569 0.43018231855105177 0 0.61436403931711492 1 I I -0.70710678118654757 0.70710678118654757 0.75 forward I I I I #
loop $-1 $-1 $217 $54 #
coedge $-1 $135 $135 $218 $219 reversed $86 $-1 #
face $-1 $220 $221 $33 $-1 $222 reversed single #
loop $-1 $-1 $223 $88 #
plane-surface $-1 0 -33.617111013615762 0 0 1 0 0 0 1 forward_v I I I I #
coedge $-1 $224 $225 $226 $227 forward $89 $-1 #
coedge $-1 $228 $91 $229 $230 forward $56 $-1 #
coedge $-1 $91 $228 $231 $232 forward $56 $-1 #
coedge $-1 $233 $234 $91 $143 reversed $235 $-1 #
edge $-1 $236 -33.617111013615762 $237 33.617111013615762 $142 $238 forward 7 unknown #
face $-1 $239 $240 $34 $-1 $241 reversed single #
loop $-1 $-1 $242 $92 #
plane-surface $-1 -77.984557634205146 0 0 1 0 0 0 0 -1 forward_v I I I I #
coedge $-1 $243 $244 $245 $246 reversed $93 $-1 #
coedge $-1 $247 $95 $248 $249 reversed $59 $-1 #
coedge $-1 $95 $247 $243 $250 forward $59 $-1 #
coedge $-1 $245 $251 $95 $151 forward $252 $-1 #
edge $-1 $253 -20.649809080321376 $254 -5.2847947862673923 $150 $255 forward 7 unknown #
face $-1 $256 $257 $35 $-1 $258 forward single #
loop $-1 $-1 $259 $96 #
plane-surface $-1 -70.814005787344129 26.2306375235475 0 -1 0 0 0 0 1 forward_v I I I I #
coedge $-1 $260 $261 $262 $263 reversed $97 $-1 #
coedge $-1 $264 $99 $265 $266 reversed $62 $-1 #
coedge $-1 $99 $264 $267 $268 reversed $62 $-1 #
coedge $-1 $261 $260 $99 $159 reversed $97 $-1 #
edge $-1 $269 -13.458950546074394 $270 13.458950546074394 $158 $271 forward 7 unknown #
face $-1 $272 $273 $36 $-1 $274 reversed single #
loop $-1 $-1 $275 $100 #
plane-surface $-1 116.28677101620019 -7.3720239697027452 225.39329449076519 0 1 0 0.81915205242281985 0 0.57357642473473569 forward_v I I I I #
coedge $-1 $276 $277 $278 $279 reversed $101 $-1 #
coedge $-1 $165 $103 $280 $281 reversed $65 $-1 #
coedge $-1 $103 $164 $276 $282 reversed $65 $-1 #
coedge $-1 $278 $283 $103 $167 forward $284 $-1 #
edge $-1 $285 -19.84117212610505 $286 -16.138275604093906 $166 $287 forward 7 unknown #
loop $-1 $-1 $173 $104 #
plane-surface $-1 -11.475649870489463 -3.5379951563720056 135.93308698607052 0.81915205242281985 0 0.57357642473473569 0.57357642473473569 0 -0.81915205242281985 forward_v I I I I #
loop $-1 $-1 $288 $67 #
coedge $-1 $171 $171 $172 $289 reversed $105 $-1 #
coedge $-1 $172 $172 $171 $289 forward $107 $-1 #
coedge $-1 $173 $173 $108 $174 forward $168 $-1 #
edge $-1 $290 0 $290 6.2831853071796004 $173 $291 forward 7 unknown #
face $-1 $292 $293 $38 $-1 $294 reversed single #
loop $-1 $-1 $295 $109 #
plane-surface $-1 116.28677101620019 11.176106406817766 225.39329449076519 0 1 0 0.81915205242281985 0 0.57357642473473569 forward_v I I I I #
coedge $-1 $296 $297 $298 $299 reversed $110 $-1 #
coedge $-1 $180 $112 $300 $301 reversed $71 $-1 #
coedge $-1 $112 $179 $296 $302 reversed $71 $-1 #
coedge $-1 $298 $303 $112 $182 forward $304 $-1 #
edge $-1 $305 -19.84117212610505 $306 -16.138275604093906 $181 $307 forward 7 unknown #
loop $-1 $-1 $188 $113 #
plane-surface $-1 -11.475649870489463 15.010135220148506 135.93308698607052 0.81915205242281985 0 0.57357642473473569 0.57357642473473569 0 -0.81915205242281985 forward_v I I I I #
loop $-1 $-1 $308 $73 #
coedge $-1 $186 $186 $187 $309 reversed $114 $-1 #
coedge $-1 $187 $187 $186 $309 forward $116 $-1 #
coedge $-1 $188 $188 $117 $189 forward $183 $-1 #
edge $-1 $310 0 $310 6.2831853071796004 $188 $311 forward 7 unknown #
face $-1 $312 $313 $40 $-1 $314 forward single #
loop $-1 $-1 $315 $118 #
plane-surface $-1 -205.74697852089483 0.29603365695873407 97.630873604075504 0 -1 0 0.81915205242281985 0 -0.57357642473473569 forward_v I I I I #
coedge $-1 $316 $317 $318 $319 reversed $119 $-1 #
coedge $-1 $195 $121 $320 $321 reversed $77 $-1 #
coedge $-1 $121 $194 $316 $322 reversed $77 $-1 #
coedge $-1 $318 $323 $121 $197 forward $313 $-1 #
edge $-1 $324 24.888931626242268 $325 28.591828148253441 $196 $326 forward 7 unknown #
loop $-1 $-1 $203 $122 #
plane-surface $-1 -77.984557634205174 -3.5379951563720056 8.1706660993808526 -0.81915205242281985 0 0.57357642473473569 0.57357642473473569 0 0.81915205242281985 forward_v I I I I #
loop $-1 $-1 $327 $79 #
coedge $-1 $201 $201 $202 $328 reversed $123 $-1 #
coedge $-1 $202 $202 $201 $328 forward $125 $-1 #
coedge $-1 $203 $203 $126 $204 forward $198 $-1 #
edge $-1 $329 0 $329 6.2831853071796004 $203 $330 forward 7 unknown #
face $-1 $331 $332 $42 $-1 $333 forward single #
loop $-1 $-1 $211 $127 #
plane-surface $-1 0 0 13.458950546074394 0 0 1 1 0 0 forward_v I I I I #
coedge $-1 $334 $335 $336 $337 reversed $128 $-1 #
coedge $-1 $210 $130 $338 $339 reversed $83 $-1 #
coedge $-1 $130 $209 $334 $340 reversed $83 $-1 #
coedge $-1 $336 $341 $130 $212 forward $206 $-1 #
edge $-1 $342 24.888931626242268 $343 28.591828148253441 $211 $344 forward 7 unknown #
loop $-1 $-1 $218 $131 #
plane-surface $-1 -77.984557634205174 15.010135220148506 8.1706660993808526 -0.81915205242281985 0 0.57357642473473569 0.57357642473473569 0 0.81915205242281985 forward_v I I I I #
loop $-1 $-1 $345 $85 #
coedge $-1 $216 $216 $217 $346 reversed $132 $-1 #
coedge $-1 $217 $217 $216 $346 forward $134 $-1 #
coedge $-1 $218 $218 $135 $219 forward $213 $-1 #
edge $-1 $347 0 $347 6.2831853071796004 $218 $348 forward 7 unknown #
face $-1 $349 $350 $33 $-1 $351 reversed single #
loop $-1 $-1 $352 $136 #
plane-surface $-1 -77.984557634205146 0 0 1 0 0 0 0 -1 forward_v I I I I #
coedge $-1 $353 $231 $354 $355 forward $137 $-1 #
coedge $-1 $356 $139 $353 $357 forward $89 $-1 #
coedge $-1 $139 $356 $358 $359 forward $89 $-1 #
coedge $-1 $234 $233 $139 $227 reversed $235 $-1 #
edge $-1 $360 -33.617111013615762 $361 33.617111013615762 $226 $362 forward 7 unknown #
coedge $-1 $141 $140 $363 $364 forward $56 $-1 #
coedge $-1 $365 $366 $140 $230 reversed $350 $-1 #
edge $-1 $237 -77.984557634205146 $367 77.984557634205146 $229 $368 forward 7 unknown #
coedge $-1 $223 $369 $141 $232 reversed $137 $-1 #
edge $-1 $370 -77.984557634205146 $236 77.984557634205146 $231 $371 forward 7 unknown #
coedge $-1 $226 $142 $369 $372 forward $235 $-1 #
coedge $-1 $142 $226 $365 $373 reversed $235 $-1 #
loop $-1 $-1 $233 $349 #
vertex $-1 $143 $374 #
vertex $-1 $143 $375 #
straight-curve $-1 77.984557634205146 0 13.458950546074394 0 1 0 I I #
face $-1 $376 $377 $34 $-1 $378 forward single #
loop $-1 $-1 $248 $144 #
plane-surface $-1 0 -33.617111013615762 0 0 1 0 0 0 1 forward_v I I I I #
coedge $-1 $379 $380 $381 $382 forward $145 $-1 #
coedge $-1 $381 $147 $149 $250 reversed $93 $-1 #
coedge $-1 $147 $381 $383 $384 reversed $93 $-1 #
coedge $-1 $385 $150 $147 $246 forward $252 $-1 #
edge $-1 $254 4.2480492960947878 $386 7.5566172653513348 $245 $387 forward 7 unknown #
coedge $-1 $149 $148 $379 $388 reversed $59 $-1 #
coedge $-1 $389 $390 $148 $249 forward $240 $-1 #
edge $-1 $391 -77.984557634205146 $253 77.984557634205146 $248 $392 forward 7 unknown #
edge $-1 $393 -77.984557634205146 $254 77.984557634205146 $243 $394 forward 7 unknown #
coedge $-1 $150 $385 $389 $395 forward $252 $-1 #
loop $-1 $-1 $245 $376 #
vertex $-1 $249 $396 #
vertex $-1 $151 $397 #
straight-curve $-1 77.984557634205146 -12.967301933294385 10.150382576817849 0 1 0 I I #
face $-1 $398 $399 $35 $-1 $400 reversed single #
loop $-1 $-1 $401 $152 #
plane-surface $-1 0 0 13.458950546074394 0 0 1 1 0 0 forward_v I I I I #
coedge $-1 $402 $403 $264 $404 forward $153 $-1 #
coedge $-1 $158 $155 $405 $406 reversed $97 $-1 #
coedge $-1 $155 $158 $401 $407 reversed $97 $-1 #
coedge $-1 $408 $409 $155 $263 forward $410 $-1 #
edge $-1 $411 -13.458950546074394 $412 13.458950546074394 $262 $413 forward 7 unknown #
coedge $-1 $157 $156 $259 $404 reversed $62 $-1 #
coedge $-1 $405 $414 $156 $266 forward $399 $-1 #
edge $-1 $415 33.859656919074325 $270 40.049040817465283 $265 $416 forward 7 unknown #
coedge $-1 $417 $401 $157 $268 forward $257 $-1 #
edge $-1 $269 -40.049040817465283 $418 -33.859656919074325 $267 $419 forward 7 unknown #
vertex $-1 $268 $420 #
vertex $-1 $266 $421 #
straight-curve $-1 -77.003389685735087 18.844164033479238 0 0 0 -1 I I #
face $-1 $-1 $284 $36 $-1 $422 forward single #
loop $-1 $-1 $423 $160 #
plane-surface $-1 77.984557634205146 0 0 -1 0 0 0 0 1 forward_v I I I I #
coedge $-1 $424 $425 $426 $427 reversed $161 $-1 #
coedge $-1 $428 $163 $165 $282 forward $101 $-1 #
coedge $-1 $163 $428 $424 $429 forward $101 $-1 #
coedge $-1 $426 $166 $163 $279 forward $284 $-1 #
edge $-1 $286 -2.0650312351447369 $430 5.6030263915167424 $278 $431 forward 7 unknown #
coedge $-1 $432 $433 $164 $281 forward $273 $-1 #
edge $-1 $434 -104.52598114600167 $285 -99.237696699308202 $280 $435 forward 7 unknown #
edge $-1 $286 149.51331206184778 $434 155.96911526841023 $165 $436 forward 7 unknown #
coedge $-1 $166 $426 $432 $437 forward $284 $-1 #
loop $-1 $-1 $426 $272 #
vertex $-1 $281 $438 #
vertex $-1 $167 $439 #
straight-curve $-1 58.143385508100096 0.29603365695873407 13.458950546074391 -1 0 0 I I #
coedge $-1 $288 $288 $-1 $440 reversed $170 $-1 #
edge $-1 $441 0 $441 6.2831853071796004 $171 $442 forward 7 unknown #
vertex $-1 $174 $443 #
ellipse-curve $-1 76.133109373199574 -3.5379951563720056 10.814808322727657 0.81915205242281985 0 0.57357642473473569 0.86036463710210354 0 -1.2287280786342298 1 I I #
face $-1 $-1 $304 $38 $-1 $444 forward single #
loop $-1 $-1 $445 $175 #
plane-surface $-1 77.984557634205146 0 0 -1 0 0 0 0 1 forward_v I I I I #
coedge $-1 $446 $447 $448 $449 reversed $176 $-1 #
coedge $-1 $450 $178 $180 $302 forward $110 $-1 #
coedge $-1 $178 $450 $446 $451 forward $110 $-1 #
coedge $-1 $448 $181 $178 $299 forward $304 $-1 #
edge $-1 $306 -11.339096423404992 $452 -3.6710387967435132 $298 $453 forward 7 unknown #
coedge $-1 $454 $455 $179 $301 forward $293 $-1 #
edge $-1 $456 -104.52598114600167 $305 -99.237696699308202 $300 $457 forward 7 unknown #
edge $-1 $306 149.51331206184778 $456 155.96911526841023 $180 $458 forward 7 unknown #
coedge $-1 $181 $448 $454 $459 forward $304 $-1 #
loop $-1 $-1 $448 $292 #
vertex $-1 $301 $460 #
vertex $-1 $182 $461 #
straight-curve $-1 58.143385508100096 18.844164033479245 13.458950546074391 -1 0 0 I I #
coedge $-1 $308 $308 $-1 $462 reversed $185 $-1 #
edge $-1 $463 0 $463 6.2831853071796004 $186 $464 forward 7 unknown #
vertex $-1 $189 $465 #
ellipse-curve $-1 76.133109373199574 15.010135220148506 10.814808322727657 0.81915205242281985 0 0.57357642473473569 0.86036463710210354 0 -1.2287280786342298 1 I I #
face $-1 $-1 $466 $40 $-1 $467 reversed single #
loop $-1 $-1 $196 $190 #
plane-surface $-1 0 0 13.458950546074394 0 0 1 1 0 0 forward_v I I I I #
coedge $-1 $468 $469 $470 $471 reversed $191 $-1 #
coedge $-1 $472 $193 $195 $322 forward $119 $-1 #
coedge $-1 $193 $472 $468 $473 forward $119 $-1 #
coedge $-1 $470 $196 $193 $319 forward $313 $-1 #
edge $-1 $325 -5.6030263915167424 $474 2.0650312351447369 $318 $475 forward 7 unknown #
coedge $-1 $476 $477 $194 $321 forward $466 $-1 #
edge $-1 $478 -40.644770702656857 $324 -35.356486255963361 $320 $479 forward 7 unknown #
edge $-1 $325 -6.4558032065625639 $478 -4.9769468549031306e-014 $195 $480 forward 7 unknown #
coedge $-1 $196 $470 $476 $481 forward $313 $-1 #
vertex $-1 $321 $482 #
vertex $-1 $197 $483 #
straight-curve $-1 -102.87348926044741 -7.3720239697027452 13.458950546074391 1 0 0 I I #
coedge $-1 $327 $327 $-1 $484 reversed $200 $-1 #
edge $-1 $485 0 $485 6.2831853071796004 $201 $486 forward 7 unknown #
vertex $-1 $204 $487 #
ellipse-curve $-1 -76.133109373199574 -3.5379951563720056 10.814808322727636 -0.81915205242281985 0 0.57357642473473569 0.86036463710210354 0 1.2287280786342298 1 I I #
face $-1 $-1 $488 $42 $-1 $489 reversed single #
loop $-1 $-1 $490 $205 #
plane-surface $-1 -73.908697736539608 18.844164033479238 0 0 1 0 0 0 1 forward_v I I I I #
coedge $-1 $491 $208 $210 $340 forward $128 $-1 #
coedge $-1 $208 $491 $490 $492 reversed $128 $-1 #
coedge $-1 $493 $211 $208 $337 forward $206 $-1 #
edge $-1 $343 3.6710387967435132 $494 11.339096423404992 $336 $495 forward 7 unknown #
coedge $-1 $496 $497 $209 $339 forward $488 $-1 #
edge $-1 $498 -40.644770702656857 $342 -35.356486255963361 $338 $499 forward 7 unknown #
edge $-1 $343 -6.4558032065625639 $498 -4.9769468549031306e-014 $210 $500 forward 7 unknown #
coedge $-1 $211 $493 $496 $501 forward $206 $-1 #
vertex $-1 $212 $502 #
vertex $-1 $212 $503 #
straight-curve $-1 -102.87348926044741 11.176106406817766 13.458950546074391 1 0 0 I I #
coedge $-1 $345 $345 $-1 $504 reversed $215 $-1 #
edge $-1 $505 0 $505 6.2831853071796004 $216 $506 forward 7 unknown #
vertex $-1 $219 $507 #
ellipse-curve $-1 -76.133109373199574 15.010135220148506 10.814808322727636 -0.81915205242281985 0 0.57357642473473569 0.86036463710210354 0 1.2287280786342298 1 I I #
face $-1 $-1 $235 $33 $-1 $508 reversed single #
loop $-1 $-1 $365 $220 #
plane-surface $-1 0 33.617111013615762 0 0 -1 0 0 0 -1 forward_v I I I I #
coedge $-1 $509 $363 $366 $510 forward $221 $-1 #
coedge $-1 $369 $223 $224 $357 reversed $137 $-1 #
coedge $-1 $363 $509 $223 $355 reversed $221 $-1 #
edge $-1 $370 -13.458950546074394 $511 13.458950546074394 $354 $512 forward 7 unknown #
coedge $-1 $225 $224 $509 $513 forward $89 $-1 #
edge $-1 $361 -77.984557634205146 $511 77.984557634205146 $353 $514 forward 7 unknown #
coedge $-1 $366 $365 $225 $359 reversed $350 $-1 #
edge $-1 $515 -77.984557634205146 $360 77.984557634205146 $358 $516 forward 7 unknown #
vertex $-1 $227 $517 #
vertex $-1 $372 $518 #
straight-curve $-1 77.984557634205146 0 -13.458950546074394 0 -1 0 I I #
coedge $-1 $352 $354 $228 $364 reversed $221 $-1 #
edge $-1 $367 -33.617111013615762 $370 33.617111013615762 $363 $519 forward 7 unknown #
coedge $-1 $358 $229 $234 $373 forward $350 $-1 #
coedge $-1 $229 $358 $352 $510 reversed $350 $-1 #
vertex $-1 $230 $520 #
straight-curve $-1 0 33.617111013615762 13.458950546074394 -1 0 0 I I #
coedge $-1 $231 $353 $233 $372 reversed $137 $-1 #
vertex $-1 $364 $521 #
straight-curve $-1 0 -33.617111013615762 13.458950546074394 1 0 0 I I #
edge $-1 $236 -13.458950546074394 $361 13.458950546074394 $233 $522 forward 7 unknown #
edge $-1 $237 -13.458950546074394 $360 13.458950546074394 $234 $523 forward 7 unknown #
point $-1 77.984557634205146 -33.617111013615762 13.458950546074394 #
point $-1 77.984557634205146 33.617111013615762 13.458950546074394 #
face $-1 $-1 $252 $34 $-1 $524 reversed single #
loop $-1 $-1 $383 $239 #
plane-surface $-1 0 0 13.458950546074394 0 0 1 1 0 0 forward_v I I I I #
coedge $-1 $525 $242 $247 $388 forward $145 $-1 #
coedge $-1 $242 $525 $526 $527 reversed $145 $-1 #
coedge $-1 $244 $243 $242 $382 reversed $93 $-1 #
edge $-1 $528 -7.5566172653513348 $393 -4.2480492960947878 $242 $529 forward 7 unknown #
coedge $-1 $526 $530 $244 $384 forward $377 $-1 #
edge $-1 $386 -77.984557634205146 $528 77.984557634205146 $383 $531 forward 7 unknown #
coedge $-1 $251 $245 $530 $532 reversed $252 $-1 #
vertex $-1 $246 $533 #
straight-curve $-1 77.984557634205146 -18.252096719561777 5.9023332807230613 0 0 1 I I #
edge $-1 $393 5.2847947862673923 $391 20.649809080321376 $379 $534 forward 7 unknown #
coedge $-1 $535 $248 $251 $395 reversed $240 $-1 #
coedge $-1 $248 $535 $525 $536 forward $240 $-1 #
vertex $-1 $249 $537 #
straight-curve $-1 0 -33.617111013615762 10.150382576817849 1 0 0 I I #
vertex $-1 $388 $538 #
straight-curve $-1 0 -18.252096719561777 10.150382576817849 1 0 0 I I #
edge $-1 $539 -13.458950546074394 $253 -10.150382576817849 $251 $540 forward 7 unknown #
point $-1 77.984557634205146 -33.617111013615762 10.150382576817849 #
point $-1 77.984557634205146 -18.252096719561777 10.150382576817849 #
face $-1 $-1 $410 $35 $-1 $541 reversed single #
loop $-1 $-1 $405 $256 #
plane-surface $-1 0 0 -13.458950546074394 0 0 1 1 0 0 forward_v I I I I #
coedge $-1 $267 $542 $261 $407 forward $257 $-1 #
coedge $-1 $543 $259 $414 $544 reversed $153 $-1 #
coedge $-1 $259 $543 $417 $545 reversed $153 $-1 #
edge $-1 $418 -13.458950546074394 $415 13.458950546074394 $259 $546 forward 7 unknown #
coedge $-1 $547 $265 $260 $406 forward $399 $-1 #
edge $-1 $270 5.7288452717054881 $411 20.501792251842012 $405 $548 forward 7 unknown #
edge $-1 $412 -20.501792251842012 $269 -5.7288452717054881 $401 $549 forward 7 unknown #
coedge $-1 $550 $262 $542 $551 reversed $410 $-1 #
coedge $-1 $262 $550 $547 $552 reversed $410 $-1 #
loop $-1 $-1 $262 $398 #
vertex $-1 $552 $553 #
vertex $-1 $263 $554 #
straight-curve $-1 -77.003389685735087 33.617111013615762 0 0 0 1 I I #
coedge $-1 $265 $547 $402 $544 forward $399 $-1 #
vertex $-1 $266 $555 #
straight-curve $-1 -36.954348868269804 18.844164033479238 -13.458950546074394 -1 0 0 I I #
coedge $-1 $542 $267 $403 $545 forward $257 $-1 #
vertex $-1 $268 $556 #
straight-curve $-1 -36.954348868269804 18.844164033479238 13.458950546074394 1 0 0 I I #
point $-1 -77.003389685735087 18.844164033479238 13.458950546074394 #
point $-1 -77.003389685735087 18.844164033479238 -13.458950546074394 #
plane-surface $-1 0 0 13.458950546074394 0 0 1 1 0 0 forward_v I I I I #
coedge $-1 $433 $432 $425 $557 forward $273 $-1 #
coedge $-1 $425 $275 $277 $429 reversed $161 $-1 #
coedge $-1 $275 $424 $423 $557 reversed $161 $-1 #
coedge $-1 $283 $278 $275 $427 forward $284 $-1 #
edge $-1 $430 16.138275604093906 $558 19.84117212610505 $426 $559 forward 7 unknown #
coedge $-1 $277 $276 $433 $560 reversed $101 $-1 #
edge $-1 $561 -155.96911526841023 $430 -149.51331206184778 $424 $562 forward 7 unknown #
vertex $-1 $279 $563 #
straight-curve $-1 74.281661112194001 -1.7689975781860028 13.458950546074391 0 -1 0 I I #
coedge $-1 $423 $280 $283 $437 reversed $273 $-1 #
coedge $-1 $280 $423 $428 $560 forward $273 $-1 #
vertex $-1 $281 $564 #
straight-curve $-1 77.984557634205146 0.29603365695873407 112.69664724538259 0 0 1 I I #
straight-curve $-1 -11.475649870489463 0.29603365695873407 135.93308698607052 0.57357642473473569 0 -0.81915205242281985 I I #
edge $-1 $558 -7.3720239697027452 $285 0.29603365695873407 $432 $565 forward 7 unknown #
point $-1 77.984557634205146 0.29603365695873407 13.458950546074394 #
point $-1 74.281661112194001 0.29603365695873407 13.458950546074377 #
edge $-1 $566 1 $566 0 $288 $-1 forward 7 unknown #
vertex $-1 $289 $567 #
ellipse-curve $-1 71.273658004989699 -3.5379951563720056 7.4121839458415915 0.81915205242281985 0 0.57357642473473569 0.86036463710210354 0 -1.2287280786342298 1 I I #
point $-1 76.993474010301625 -3.5379951563720056 9.5860802440933899 #
plane-surface $-1 0 0 13.458950546074394 0 0 1 1 0 0 forward_v I I I I #
coedge $-1 $455 $454 $447 $568 forward $293 $-1 #
coedge $-1 $447 $295 $297 $451 reversed $176 $-1 #
coedge $-1 $295 $446 $445 $568 reversed $176 $-1 #
coedge $-1 $303 $298 $295 $449 forward $304 $-1 #
edge $-1 $452 16.138275604093906 $569 19.84117212610505 $448 $570 forward 7 unknown #
coedge $-1 $297 $296 $455 $571 reversed $110 $-1 #
edge $-1 $572 -155.96911526841023 $452 -149.51331206184778 $446 $573 forward 7 unknown #
vertex $-1 $299 $574 #
straight-curve $-1 74.281661112194001 7.5050676100742528 13.458950546074391 0 -1 0 I I #
coedge $-1 $445 $300 $303 $459 reversed $293 $-1 #
coedge $-1 $300 $445 $450 $571 forward $293 $-1 #
vertex $-1 $301 $575 #
straight-curve $-1 77.984557634205146 18.844164033479245 112.69664724538259 0 0 1 I I #
straight-curve $-1 -11.475649870489463 18.844164033479245 135.93308698607052 0.57357642473473569 0 -0.81915205242281985 I I #
edge $-1 $569 11.176106406817766 $305 18.844164033479245 $454 $576 forward 7 unknown #
point $-1 77.984557634205146 18.844164033479245 13.458950546074394 #
point $-1 74.281661112194001 18.844164033479245 13.458950546074377 #
edge $-1 $577 1 $577 0 $308 $-1 forward 7 unknown #
vertex $-1 $309 $578 #
ellipse-curve $-1 71.273658004989699 15.010135220148506 7.4121839458415915 0.81915205242281985 0 0.57357642473473569 0.86036463710210354 0 -1.2287280786342298 1 I I #
point $-1 76.993474010301625 15.010135220148506 9.5860802440933899 #
loop $-1 $-1 $320 $312 #
plane-surface $-1 -77.984557634205146 0 0 1 0 0 0 0 -1 forward_v I I I I #
coedge $-1 $469 $315 $317 $473 reversed $191 $-1 #
coedge $-1 $315 $468 $579 $580 reversed $191 $-1 #
coedge $-1 $323 $318 $315 $471 forward $313 $-1 #
edge $-1 $474 -28.591828148253441 $581 -24.888931626242268 $470 $582 forward 7 unknown #
coedge $-1 $317 $316 $477 $583 reversed $119 $-1 #
edge $-1 $584 4.9769468549031306e-014 $474 6.4558032065625639 $468 $585 forward 7 unknown #
vertex $-1 $319 $586 #
straight-curve $-1 -74.281661112193987 -1.7689975781860028 13.458950546074394 0 1 0 I I #
coedge $-1 $579 $320 $323 $481 reversed $466 $-1 #
coedge $-1 $320 $579 $472 $583 forward $466 $-1 #
vertex $-1 $321 $587 #
straight-curve $-1 -77.984557634205146 -7.3720239697027452 48.815436802037752 0 0 1 I I #
straight-curve $-1 -77.984557634205174 -7.3720239697027452 8.1706660993808526 -0.57357642473473569 0 -0.81915205242281985 I I #
edge $-1 $581 -0.29603365695873407 $324 7.3720239697027452 $476 $588 forward 7 unknown #
point $-1 -77.984557634205146 -7.3720239697027452 13.458950546074394 #
point $-1 -74.281661112193973 -7.3720239697027452 13.458950546074394 #
edge $-1 $589 1 $589 0 $327 $-1 forward 7 unknown #
vertex $-1 $328 $590 #
ellipse-curve $-1 -71.273658004989727 -3.5379951563720056 7.4121839458415915 -0.81915205242281985 0 0.57357642473473569 0.86036463710210354 0 1.2287280786342298 1 I I #
point $-1 -75.272744736097451 -3.5379951563720056 12.043536401361848 #
loop $-1 $-1 $338 $331 #
plane-surface $-1 -77.984557634205146 0 0 1 0 0 0 0 -1 forward_v I I I I #
coedge $-1 $591 $592 $335 $492 forward $332 $-1 #
coedge $-1 $335 $334 $497 $593 reversed $128 $-1 #
edge $-1 $494 -8.6334035851359019 $594 -2.1776003785733891 $490 $595 forward 7 unknown #
coedge $-1 $341 $336 $592 $596 forward $206 $-1 #
vertex $-1 $596 $597 #
straight-curve $-1 -74.281661112193987 7.5050676100742528 13.458950546074394 0 1 0 I I #
coedge $-1 $598 $338 $341 $501 reversed $488 $-1 #
coedge $-1 $338 $598 $491 $593 forward $488 $-1 #
vertex $-1 $339 $599 #
straight-curve $-1 -77.984557634205146 11.176106406817766 48.815436802037752 0 0 1 I I #
straight-curve $-1 -77.984557634205174 11.176106406817766 8.1706660993808526 -0.57357642473473569 0 -0.81915205242281985 I I #
edge $-1 $600 -18.844164033479245 $342 -11.176106406817766 $496 $601 forward 7 unknown #
point $-1 -77.984557634205146 11.176106406817766 13.458950546074394 #
point $-1 -74.281661112193973 11.176106406817766 13.458950546074394 #
edge $-1 $602 1 $602 0 $345 $-1 forward 7 unknown #
vertex $-1 $346 $603 #
ellipse-curve $-1 -71.273658004989727 15.010135220148506 7.4121839458415915 -0.81915205242281985 0 0.57357642473473569 0.86036463710210354 0 1.2287280786342298 1 I I #
point $-1 -75.272744736097451 15.010135220148506 12.043536401361848 #
plane-surface $-1 77.984557634205146 0 0 -1 0 0 0 0 1 forward_v I I I I #
coedge $-1 $354 $352 $356 $513 reversed $221 $-1 #
edge $-1 $367 -13.458950546074394 $515 13.458950546074394 $366 $604 forward 7 unknown #
vertex $-1 $513 $605 #
straight-curve $-1 -77.984557634205146 -33.617111013615762 0 0 0 -1 I I #
edge $-1 $511 -33.617111013615762 $515 33.617111013615762 $509 $606 forward 7 unknown #
straight-curve $-1 0 -33.617111013615762 -13.458950546074394 -1 0 0 I I #
vertex $-1 $359 $607 #
straight-curve $-1 0 33.617111013615762 -13.458950546074394 1 0 0 I I #
point $-1 77.984557634205146 33.617111013615762 -13.458950546074394 #
point $-1 77.984557634205146 -33.617111013615762 -13.458950546074394 #
straight-curve $-1 -77.984557634205146 0 13.458950546074394 0 -1 0 I I #
point $-1 -77.984557634205146 33.617111013615762 13.458950546074394 #
point $-1 -77.984557634205146 -33.617111013615762 13.458950546074394 #
straight-curve $-1 77.984557634205146 -33.617111013615762 0 0 0 -1 I I #
straight-curve $-1 77.984557634205146 33.617111013615762 0 0 0 -1 I I #
plane-surface $-1 77.984557634205146 0 0 -1 0 0 0 0 1 forward_v I I I I #
coedge $-1 $380 $379 $390 $536 reversed $145 $-1 #
coedge $-1 $608 $383 $380 $527 forward $377 $-1 #
edge $-1 $528 18.252096719561777 $609 33.617111013615762 $380 $610 forward 7 unknown #
vertex $-1 $527 $611 #
straight-curve $-1 -77.984557634205146 -18.252096719561777 5.9023332807230613 0 0 -1 I I #
coedge $-1 $383 $608 $385 $532 forward $377 $-1 #
straight-curve $-1 0 -18.252096719561777 13.458950546074394 -1 0 0 I I #
edge $-1 $539 -33.617111013615762 $386 -18.252096719561777 $385 $612 forward 7 unknown #
point $-1 77.984557634205146 -18.252096719561777 13.458950546074396 #
straight-curve $-1 -77.984557634205146 -12.967301933294385 10.150382576817849 0 -1 0 I I #
coedge $-1 $390 $389 $608 $613 reversed $240 $-1 #
edge $-1 $609 -13.458950546074394 $391 -10.150382576817849 $525 $614 forward 7 unknown #
point $-1 -77.984557634205146 -33.617111013615762 10.150382576817849 #
point $-1 -77.984557634205146 -18.252096719561777 10.150382576817849 #
vertex $-1 $532 $615 #
straight-curve $-1 77.984557634205146 -33.617111013615762 0 0 0 -1 I I #
plane-surface $-1 0 33.617111013615762 0 0 -1 0 0 0 -1 forward_v I I I I #
coedge $-1 $401 $417 $408 $551 forward $257 $-1 #
coedge $-1 $403 $402 $550 $616 reversed $153 $-1 #
edge $-1 $617 -20.501792251842012 $415 -5.7288452717054881 $414 $618 forward 7 unknown #
edge $-1 $418 5.7288452717054881 $619 20.501792251842012 $417 $620 forward 7 unknown #
straight-curve $-1 -70.814005787344129 18.844164033479238 0 0 0 -1 I I #
coedge $-1 $414 $405 $409 $552 forward $399 $-1 #
straight-curve $-1 -77.003389685735087 13.11531876177375 -13.458950546074394 0 1 0 I I #
straight-curve $-1 -77.003389685735087 13.11531876177375 13.458950546074394 0 -1 0 I I #
coedge $-1 $409 $408 $543 $616 forward $410 $-1 #
edge $-1 $619 70.814005787344129 $412 77.003389685735087 $408 $621 forward 7 unknown #
edge $-1 $411 -77.003389685735087 $617 -70.814005787344129 $409 $622 forward 7 unknown #
point $-1 -77.003389685735087 33.617111013615762 -13.458950546074394 #
point $-1 -77.003389685735087 33.617111013615762 13.458950546074394 #
point $-1 -70.814005787344129 18.844164033479238 -13.458950546074394 #
point $-1 -70.814005787344129 18.844164033479238 13.458950546074394 #
edge $-1 $558 99.237696699308202 $561 104.52598114600167 $423 $623 forward 7 unknown #
vertex $-1 $437 $624 #
straight-curve $-1 58.143385508100096 -7.3720239697027452 13.458950546074391 1 0 0 I I #
edge $-1 $561 -5.6030263915167424 $434 2.0650312351447369 $433 $625 forward 7 unknown #
vertex $-1 $560 $626 #
straight-curve $-1 -11.475649870489463 -7.3720239697027452 135.93308698607052 -0.57357642473473569 0 0.81915205242281985 I I #
point $-1 74.281661112194001 -7.3720239697027452 13.458950546074377 #
point $-1 77.984557634205146 0.29603365695873407 8.1706660993809237 #
straight-curve $-1 77.984557634205146 0 13.458950546074394 0 1 0 I I #
vertex $-1 $440 $627 #
point $-1 72.134022642091807 -3.5379951563720056 6.1834558672073623 #
edge $-1 $569 99.237696699308202 $572 104.52598114600167 $445 $628 forward 7 unknown #
vertex $-1 $459 $629 #
straight-curve $-1 58.143385508100096 11.176106406817766 13.458950546074391 1 0 0 I I #
edge $-1 $572 3.6710387967435132 $456 11.339096423404992 $455 $630 forward 7 unknown #
vertex $-1 $571 $631 #
straight-curve $-1 -11.475649870489463 11.176106406817766 135.93308698607052 -0.57357642473473569 0 0.81915205242281985 I I #
point $-1 74.281661112194001 11.176106406817766 13.458950546074377 #
point $-1 77.984557634205146 18.844164033479245 8.1706660993809237 #
straight-curve $-1 77.984557634205146 0 13.458950546074394 0 1 0 I I #
vertex $-1 $462 $632 #
point $-1 72.134022642091807 15.010135220148506 6.1834558672073623 #
coedge $-1 $477 $476 $469 $580 forward $466 $-1 #
edge $-1 $581 35.356486255963361 $584 40.644770702656857 $579 $633 forward 7 unknown #
vertex $-1 $481 $634 #
straight-curve $-1 -102.87348926044741 0.29603365695873407 13.458950546074391 -1 0 0 I I #
edge $-1 $584 -2.0650312351447369 $478 5.6030263915167424 $477 $635 forward 7 unknown #
vertex $-1 $583 $636 #
straight-curve $-1 -77.984557634205174 0.29603365695873407 8.1706660993808526 0.57357642473473569 0 0.81915205242281985 I I #
point $-1 -74.281661112193973 0.29603365695873407 13.458950546074394 #
point $-1 -77.984557634205146 -7.3720239697027452 8.1706660993808935 #
straight-curve $-1 -77.984557634205146 0 13.458950546074394 0 -1 0 I I #
vertex $-1 $484 $637 #
point $-1 -70.413293367887633 -3.5379951563720056 8.6409120244758206 #
coedge $-1 $592 $490 $598 $638 reversed $332 $-1 #
coedge $-1 $490 $591 $493 $596 reversed $332 $-1 #
edge $-1 $594 -11.339096423404992 $498 -3.6710387967435132 $497 $639 forward 7 unknown #
vertex $-1 $638 $640 #
straight-curve $-1 -79.233577873848276 18.844164033479238 6.3868802799157915 -0.57357642473473569 0 -0.81915205242281985 I I #
edge $-1 $494 37.327312243924169 $600 41.030208765935342 $493 $641 forward 7 unknown #
point $-1 -74.281661112193973 18.844164033479245 13.458950546074394 #
coedge $-1 $497 $496 $591 $638 forward $488 $-1 #
point $-1 -77.984557634205146 11.176106406817766 8.1706660993808935 #
vertex $-1 $501 $642 #
straight-curve $-1 -77.984557634205146 0 13.458950546074394 0 -1 0 I I #
vertex $-1 $504 $643 #
point $-1 -70.413293367887633 15.010135220148506 8.6409120244758206 #
straight-curve $-1 -77.984557634205146 33.617111013615762 0 0 0 -1 I I #
point $-1 -77.984557634205146 -33.617111013615762 -13.458950546074394 #
straight-curve $-1 -77.984557634205146 0 -13.458950546074394 0 1 0 I I #
point $-1 -77.984557634205146 33.617111013615762 -13.458950546074394 #
coedge $-1 $530 $526 $535 $613 forward $377 $-1 #
vertex $-1 $527 $644 #
straight-curve $-1 -77.984557634205146 0 13.458950546074394 0 -1 0 I I #
point $-1 -77.984557634205146 -18.252096719561777 13.458950546074396 #
straight-curve $-1 77.984557634205146 0 13.458950546074394 0 1 0 I I #
edge $-1 $609 -77.984557634205146 $539 77.984557634205146 $535 $645 forward 7 unknown #
straight-curve $-1 -77.984557634205146 -33.617111013615762 0 0 0 -1 I I #
point $-1 77.984557634205146 -33.617111013615762 13.458950546074394 #
edge $-1 $619 -13.458950546074394 $617 13.458950546074394 $550 $646 forward 7 unknown #
vertex $-1 $616 $647 #
straight-curve $-1 -70.814005787344129 13.11531876177375 -13.458950546074394 0 -1 0 I I #
vertex $-1 $551 $648 #
straight-curve $-1 -70.814005787344129 13.11531876177375 13.458950546074394 0 1 0 I I #
straight-curve $-1 0 33.617111013615762 13.458950546074394 -1 0 0 I I #
straight-curve $-1 0 33.617111013615762 -13.458950546074394 1 0 0 I I #
straight-curve $-1 77.984557634205146 -7.3720239697027452 112.69664724538259 0 0 -1 I I #
point $-1 77.984557634205146 -7.3720239697027452 13.458950546074394 #
straight-curve $-1 77.984557634205146 -1.7689975781860028 8.1706660993809166 0 1 0 I I #
point $-1 77.984557634205146 -7.3720239697027452 8.1706660993809237 #
point $-1 70.044929926355479 -3.5379951563720056 6.5518193087394883 #
straight-curve $-1 77.984557634205146 11.176106406817766 112.69664724538259 0 0 -1 I I #
point $-1 77.984557634205146 11.176106406817766 13.458950546074394 #
straight-curve $-1 77.984557634205146 7.5050676100742528 8.1706660993809166 0 1 0 I I #
point $-1 77.984557634205146 11.176106406817766 8.1706660993809237 #
point $-1 70.044929926355479 15.010135220148506 6.5518193087394883 #
straight-curve $-1 -77.984557634205146 0.29603365695873407 48.815436802037752 0 0 -1 I I #
point $-1 -77.984557634205146 0.29603365695873407 13.458950546074394 #
straight-curve $-1 -77.984557634205146 -1.7689975781860028 8.1706660993808971 0 -1 0 I I #
point $-1 -77.984557634205146 0.29603365695873407 8.1706660993808935 #
point $-1 -70.044929926355508 -3.5379951563720056 6.5518193087394883 #
edge $-1 $600 35.356486255963361 $594 40.644770702656857 $598 $649 forward 7 unknown #
straight-curve $-1 -77.984557634205146 7.5050676100742528 8.1706660993808971 0 -1 0 I I #
point $-1 -77.984557634205146 18.844164033479245 8.1706660993808935 #
straight-curve $-1 -36.954348868269804 18.844164033479238 13.458950546074394 -1 0 0 I I #
point $-1 -77.984557634205146 18.844164033479245 13.458950546074394 #
point $-1 -70.044929926355508 15.010135220148506 6.5518193087394883 #
point $-1 -77.984557634205146 -33.617111013615762 13.458950546074394 #
straight-curve $-1 0 -33.617111013615762 13.458950546074394 1 0 0 I I #
straight-curve $-1 -70.814005787344129 33.617111013615762 0 0 0 -1 I I #
point $-1 -70.814005787344129 33.617111013615762 -13.458950546074394 #
point $-1 -70.814005787344129 33.617111013615762 13.458950546074394 #
straight-curve $-1 -77.984557634205146 18.844164033479245 48.815436802037752 0 0 -1 I I #
End-of-ACIS-data 