500 0 5 0           
7 Unknown 11 ACIS 5.0 NT 24 Thu Mar 25 19:26:00 1999 
-1 9.9999999999999995e-007 1e-010 
body $-1 $5 $-1 $6 #
body $-1 $7 $-1 $8 #
body $-1 $9 $-1 $10 #
body $-1 $11 $-1 $12 #
body $-1 $13 $-1 $14 #
lump $-1 $-1 $15 $0 #
transform $-1 1 0 0 0 1 0 0 0 1 43.581652272103028 20.5437740052393 9.8913817246332698 1 rotate no_reflect no_shear #
lump $-1 $-1 $16 $1 #
transform $-1 1 0 0 0 1 0 0 0 1 43.581652272103028 20.5437740052393 9.8913817246332698 1 rotate no_reflect no_shear #
lump $-1 $-1 $17 $2 #
transform $-1 1 0 0 0 1 0 0 0 1 43.581652272103028 20.5437740052393 9.8913817246332698 1 rotate no_reflect no_shear #
lump $-1 $-1 $18 $3 #
transform $-1 1 0 0 0 1 0 0 0 1 43.581652272103028 20.5437740052393 9.8913817246332698 1 rotate no_reflect no_shear #
lump $-1 $-1 $19 $4 #
transform $-1 1 0 0 0 1 0 0 0 1 43.581652272103028 20.5437740052393 9.8913817246332698 1 rotate no_reflect no_shear #
shell $-1 $-1 $-1 $20 $-1 $5 #
shell $-1 $-1 $-1 $21 $-1 $7 #
shell $-1 $-1 $-1 $22 $-1 $9 #
shell $-1 $-1 $-1 $23 $-1 $11 #
shell $-1 $-1 $-1 $24 $-1 $13 #
face $-1 $25 $26 $15 $-1 $27 forward single #
face $-1 $28 $29 $16 $-1 $30 reversed single #
face $-1 $31 $32 $17 $-1 $33 reversed single #
face $-1 $34 $35 $18 $-1 $36 forward single #
face $-1 $37 $38 $19 $-1 $39 forward single #
face $-1 $40 $41 $15 $-1 $42 reversed single #
loop $-1 $-1 $43 $20 #
plane-surface $-1 0 0 9.8913817246332698 0 0 1 1 0 0 forward_v I I I I #
face $-1 $44 $45 $16 $-1 $46 reversed single #
loop $-1 $-1 $47 $21 #
plane-surface $-1 -39.389064233139088 -5.8615910317086684 0 0 1 0 0 0 1 forward_v I I I I #
face $-1 $48 $49 $17 $-1 $50 reversed single #
loop $-1 $-1 $51 $22 #
plane-surface $-1 45.732968723067572 8.4837021303561766 123.49503167257387 0 -1 0 -0.71933980857756763 0 -0.69465836192734942 forward_v I I I I #
face $-1 $52 $53 $18 $-1 $54 forward single #
loop $-1 $55 $56 $23 #
cone-surface $-1 38.443491959294285 1.1899859097385743 4.604259981280447 -0.71933980857756763 0 -0.69465836192734942 0.34732918096367471 0 -0.35966990428878381 1 I I 0 1 0.5 forward I I I I #
face $-1 $57 $58 $19 $-1 $59 forward single #
loop $-1 $60 $61 $24 #
cone-surface $-1 38.443491959294285 5.5662156421091353 4.604259981280447 -0.71933980857756763 0 -0.69465836192734942 0.34732918096367471 0 -0.35966990428878381 1 I I 0 1 0.5 forward I I I I #
face $-1 $62 $63 $15 $-1 $64 reversed single #
loop $-1 $-1 $65 $25 #
plane-surface $-1 0 0 -9.8913817246332698 0 0 1 1 0 0 forward_v I I I I #
coedge $-1 $66 $67 $68 $69 forward $26 $-1 #
face $-1 $70 $71 $16 $-1 $72 reversed single #
loop $-1 $-1 $73 $28 #
plane-surface $-1 -39.389064233139088 -0.76101055597276179 0 0 -1 0 0 0 -1 forward_v I I I I #
coedge $-1 $74 $75 $76 $77 reversed $29 $-1 #
face $-1 $78 $79 $17 $-1 $80 reversed single #
loop $-1 $-1 $81 $31 #
plane-surface $-1 -16.967066082749845 3.3781007759238548 62.946313317721 0.71933980857756763 0 0.69465836192734942 0.69465836192734942 0 -0.71933980857756763 forward_v I I I I #
coedge $-1 $82 $83 $84 $85 reversed $32 $-1 #
face $-1 $-1 $86 $18 $-1 $87 forward single #
loop $-1 $88 $89 $34 #
cone-surface $-1 37.782580535998534 1.1899859097385743 3.9660252538106207 -0.71933980857756763 0 -0.69465836192734942 0.17366459048183736 0 -0.17983495214439191 1 I I -0.70710678118654746 0.70710678118654746 0.25 forward I I I I #
loop $-1 $-1 $90 $23 #
coedge $-1 $56 $56 $91 $92 reversed $35 $-1 #
face $-1 $-1 $93 $19 $-1 $94 forward single #
loop $-1 $95 $96 $37 #
cone-surface $-1 37.782580535998534 5.5662156421091353 3.9660252538106207 -0.71933980857756763 0 -0.69465836192734942 0.17366459048183736 0 -0.17983495214439191 1 I I -0.70710678118654746 0.70710678118654746 0.25 forward I I I I #
loop $-1 $-1 $97 $24 #
coedge $-1 $61 $61 $98 $99 reversed $38 $-1 #
face $-1 $100 $101 $15 $-1 $102 reversed single #
loop $-1 $-1 $103 $40 #
plane-surface $-1 0 -20.5437740052393 0 0 1 0 0 0 1 forward_v I I I I #
coedge $-1 $104 $105 $106 $107 forward $41 $-1 #
coedge $-1 $108 $43 $109 $110 forward $26 $-1 #
coedge $-1 $43 $108 $111 $112 forward $26 $-1 #
coedge $-1 $113 $114 $43 $69 reversed $115 $-1 #
edge $-1 $116 -20.5437740052393 $117 20.5437740052393 $68 $118 forward 7 unknown #
face $-1 $119 $120 $16 $-1 $121 reversed single #
loop $-1 $-1 $122 $44 #
plane-surface $-1 -35.196476194175148 -3.3113007938407151 0 -1 0 0 0 0 1 forward_v I I I I #
coedge $-1 $123 $124 $125 $126 forward $45 $-1 #
coedge $-1 $127 $47 $128 $129 reversed $29 $-1 #
coedge $-1 $47 $127 $130 $131 reversed $29 $-1 #
coedge $-1 $132 $133 $47 $77 forward $134 $-1 #
edge $-1 $135 -9.8913817246332698 $136 9.8913817246332698 $76 $137 forward 7 unknown #
face $-1 $138 $139 $17 $-1 $140 reversed single #
loop $-1 $-1 $141 $48 #
plane-surface $-1 45.732968723067572 -1.7275005785084669 123.49503167257387 0 1 0 0.71933980857756763 0 0.69465836192734942 forward_v I I I I #
coedge $-1 $142 $143 $144 $145 reversed $49 $-1 #
coedge $-1 $83 $51 $146 $147 reversed $32 $-1 #
coedge $-1 $51 $82 $142 $148 reversed $32 $-1 #
coedge $-1 $144 $149 $51 $85 forward $150 $-1 #
edge $-1 $151 -20.715167910569242 $152 -11.401000227254464 $84 $153 forward 7 unknown #
loop $-1 $-1 $91 $52 #
plane-surface $-1 -16.967066082749845 3.3781007759238548 62.946313317721 0.71933980857756763 0 0.69465836192734942 0.69465836192734942 0 -0.71933980857756763 forward_v I I I I #
loop $-1 $-1 $154 $34 #
coedge $-1 $89 $89 $90 $155 reversed $53 $-1 #
coedge $-1 $90 $90 $89 $155 forward $55 $-1 #
coedge $-1 $91 $91 $56 $92 forward $86 $-1 #
edge $-1 $156 0 $156 6.2831853071796004 $91 $157 forward 7 unknown #
loop $-1 $-1 $98 $57 #
plane-surface $-1 -16.967066082749845 3.3781007759238548 62.946313317721 0.71933980857756763 0 0.69465836192734942 0.69465836192734942 0 -0.71933980857756763 forward_v I I I I #
loop $-1 $-1 $158 $37 #
coedge $-1 $96 $96 $97 $159 reversed $58 $-1 #
coedge $-1 $97 $97 $96 $159 forward $60 $-1 #
coedge $-1 $98 $98 $61 $99 forward $93 $-1 #
edge $-1 $160 0 $160 6.2831853071796004 $98 $161 forward 7 unknown #
face $-1 $162 $163 $15 $-1 $164 reversed single #
loop $-1 $-1 $165 $62 #
plane-surface $-1 -43.581652272103028 0 0 1 0 0 0 0 -1 forward_v I I I I #
coedge $-1 $166 $111 $167 $168 forward $63 $-1 #
coedge $-1 $169 $65 $166 $170 forward $41 $-1 #
coedge $-1 $65 $169 $171 $172 forward $41 $-1 #
coedge $-1 $114 $113 $65 $107 reversed $115 $-1 #
edge $-1 $173 -20.5437740052393 $174 20.5437740052393 $106 $175 forward 7 unknown #
coedge $-1 $67 $66 $176 $177 forward $26 $-1 #
coedge $-1 $178 $179 $66 $110 reversed $163 $-1 #
edge $-1 $117 -43.581652272103028 $180 43.581652272103028 $109 $181 forward 7 unknown #
coedge $-1 $103 $182 $67 $112 reversed $63 $-1 #
edge $-1 $183 -43.581652272103028 $116 43.581652272103028 $111 $184 forward 7 unknown #
coedge $-1 $106 $68 $182 $185 forward $115 $-1 #
coedge $-1 $68 $106 $178 $186 reversed $115 $-1 #
loop $-1 $-1 $113 $162 #
vertex $-1 $69 $187 #
vertex $-1 $69 $188 #
straight-curve $-1 43.581652272103028 0 9.8913817246332698 0 1 0 I I #
face $-1 $189 $190 $16 $-1 $191 forward single #
loop $-1 $-1 $192 $70 #
plane-surface $-1 0 0 -9.8913817246332698 0 0 1 1 0 0 forward_v I I I I #
coedge $-1 $193 $194 $127 $195 forward $71 $-1 #
coedge $-1 $196 $73 $192 $197 reversed $45 $-1 #
coedge $-1 $73 $196 $198 $199 reversed $45 $-1 #
coedge $-1 $194 $193 $73 $126 reversed $71 $-1 #
edge $-1 $200 -9.8913817246332698 $201 9.8913817246332698 $125 $202 forward 7 unknown #
coedge $-1 $75 $74 $122 $195 reversed $29 $-1 #
coedge $-1 $203 $204 $74 $129 forward $120 $-1 #
edge $-1 $205 15.501944077605604 $135 23.887120155533484 $128 $206 forward 7 unknown #
coedge $-1 $207 $208 $75 $131 forward $190 $-1 #
edge $-1 $136 -23.887120155533484 $209 -15.501944077605604 $130 $210 forward 7 unknown #
coedge $-1 $211 $76 $208 $212 reversed $134 $-1 #
coedge $-1 $76 $211 $203 $213 reversed $134 $-1 #
loop $-1 $-1 $211 $189 #
vertex $-1 $213 $214 #
vertex $-1 $77 $215 #
straight-curve $-1 -43.581652272103028 -5.8615910317086684 0 0 0 1 I I #
face $-1 $-1 $150 $17 $-1 $216 forward single #
loop $-1 $-1 $217 $78 #
plane-surface $-1 43.581652272103028 0 0 -1 0 0 0 0 1 forward_v I I I I #
coedge $-1 $218 $219 $220 $221 reversed $79 $-1 #
coedge $-1 $222 $81 $83 $148 forward $49 $-1 #
coedge $-1 $81 $222 $218 $223 forward $49 $-1 #
coedge $-1 $220 $84 $81 $145 forward $150 $-1 #
edge $-1 $152 -6.7946517423942492 $224 3.4165509664703944 $144 $225 forward 7 unknown #
coedge $-1 $226 $227 $82 $147 forward $139 $-1 #
edge $-1 $228 -61.501237324383354 $151 -51.856134111653667 $146 $229 forward 7 unknown #
edge $-1 $152 73.755033379842104 $228 87.163304544206056 $83 $230 forward 7 unknown #
coedge $-1 $84 $220 $226 $231 forward $150 $-1 #
loop $-1 $-1 $220 $138 #
vertex $-1 $147 $232 #
vertex $-1 $85 $233 #
straight-curve $-1 22.866484361533786 8.4837021303561766 9.8913817246332698 -1 0 0 I I #
coedge $-1 $154 $154 $-1 $234 reversed $88 $-1 #
edge $-1 $235 0 $235 6.2831853071796004 $89 $236 forward 7 unknown #
vertex $-1 $92 $237 #
ellipse-curve $-1 38.924568430445632 1.1899859097385743 5.0688301182684237 0.71933980857756763 0 0.69465836192734942 0.34732918096367471 0 -0.35966990428878381 1 I I #
coedge $-1 $158 $158 $-1 $238 reversed $95 $-1 #
edge $-1 $239 0 $239 6.2831853071796004 $96 $240 forward 7 unknown #
vertex $-1 $99 $241 #
ellipse-curve $-1 38.924568430445632 5.5662156421091353 5.0688301182684237 0.71933980857756763 0 0.69465836192734942 0.34732918096367471 0 -0.35966990428878381 1 I I #
face $-1 $-1 $115 $15 $-1 $242 reversed single #
loop $-1 $-1 $178 $100 #
plane-surface $-1 0 20.5437740052393 0 0 -1 0 0 0 -1 forward_v I I I I #
coedge $-1 $243 $176 $179 $244 forward $101 $-1 #
coedge $-1 $182 $103 $104 $170 reversed $63 $-1 #
coedge $-1 $176 $243 $103 $168 reversed $101 $-1 #
edge $-1 $183 -9.8913817246332698 $245 9.8913817246332698 $167 $246 forward 7 unknown #
coedge $-1 $105 $104 $243 $247 forward $41 $-1 #
edge $-1 $174 -43.581652272103028 $245 43.581652272103028 $166 $248 forward 7 unknown #
coedge $-1 $179 $178 $105 $172 reversed $163 $-1 #
edge $-1 $249 -43.581652272103028 $173 43.581652272103028 $171 $250 forward 7 unknown #
vertex $-1 $107 $251 #
vertex $-1 $185 $252 #
straight-curve $-1 43.581652272103028 0 -9.8913817246332698 0 -1 0 I I #
coedge $-1 $165 $167 $108 $177 reversed $101 $-1 #
edge $-1 $180 -20.5437740052393 $183 20.5437740052393 $176 $253 forward 7 unknown #
coedge $-1 $171 $109 $114 $186 forward $163 $-1 #
coedge $-1 $109 $171 $165 $244 reversed $163 $-1 #
vertex $-1 $110 $254 #
straight-curve $-1 0 20.5437740052393 9.8913817246332698 -1 0 0 I I #
coedge $-1 $111 $166 $113 $185 reversed $63 $-1 #
vertex $-1 $177 $255 #
straight-curve $-1 0 -20.5437740052393 9.8913817246332698 1 0 0 I I #
edge $-1 $116 -9.8913817246332698 $174 9.8913817246332698 $113 $256 forward 7 unknown #
edge $-1 $117 -9.8913817246332698 $173 9.8913817246332698 $114 $257 forward 7 unknown #
point $-1 43.581652272103028 -20.5437740052393 9.8913817246332698 #
point $-1 43.581652272103028 20.5437740052393 9.8913817246332698 #
face $-1 $-1 $134 $16 $-1 $258 reversed single #
loop $-1 $-1 $198 $119 #
plane-surface $-1 0 0 9.8913817246332698 0 0 1 1 0 0 forward_v I I I I #
coedge $-1 $204 $203 $123 $197 forward $120 $-1 #
coedge $-1 $125 $122 $204 $259 reversed $71 $-1 #
coedge $-1 $122 $125 $207 $260 reversed $71 $-1 #
edge $-1 $209 -9.8913817246332698 $205 9.8913817246332698 $122 $261 forward 7 unknown #
coedge $-1 $124 $123 $211 $262 reversed $45 $-1 #
edge $-1 $263 -23.887120155533484 $201 -15.501944077605604 $192 $264 forward 7 unknown #
coedge $-1 $208 $207 $124 $199 forward $190 $-1 #
edge $-1 $200 15.501944077605604 $265 23.887120155533484 $198 $266 forward 7 unknown #
vertex $-1 $199 $267 #
vertex $-1 $197 $268 #
straight-curve $-1 -35.196476194175148 -0.76101055597276179 0 0 0 -1 I I #
coedge $-1 $192 $128 $133 $213 forward $120 $-1 #
coedge $-1 $128 $192 $193 $259 forward $120 $-1 #
vertex $-1 $129 $269 #
straight-curve $-1 -19.694532116569544 -5.8615910317086684 -9.8913817246332698 -1 0 0 I I #
coedge $-1 $198 $130 $194 $260 forward $190 $-1 #
coedge $-1 $130 $198 $132 $212 forward $190 $-1 #
vertex $-1 $131 $270 #
straight-curve $-1 -19.694532116569544 -5.8615910317086684 9.8913817246332698 1 0 0 I I #
coedge $-1 $133 $132 $196 $262 forward $134 $-1 #
edge $-1 $265 0.76101055597276179 $136 5.8615910317086684 $132 $271 forward 7 unknown #
edge $-1 $135 -5.8615910317086684 $263 -0.76101055597276179 $133 $272 forward 7 unknown #
point $-1 -43.581652272103028 -5.8615910317086684 -9.8913817246332698 #
point $-1 -43.581652272103028 -5.8615910317086684 9.8913817246332698 #
plane-surface $-1 0 0 9.8913817246332698 0 0 1 1 0 0 forward_v I I I I #
coedge $-1 $227 $226 $219 $273 forward $139 $-1 #
coedge $-1 $219 $141 $143 $223 reversed $79 $-1 #
coedge $-1 $141 $218 $217 $273 reversed $79 $-1 #
coedge $-1 $149 $144 $141 $221 forward $150 $-1 #
edge $-1 $224 11.401000227254464 $274 20.715167910569242 $220 $275 forward 7 unknown #
coedge $-1 $143 $142 $227 $276 reversed $49 $-1 #
edge $-1 $277 -87.163304544206056 $224 -73.755033379842104 $218 $278 forward 7 unknown #
vertex $-1 $145 $279 #
straight-curve $-1 34.267484588788243 1.6890503879619274 9.8913817246332769 0 -1 0 I I #
coedge $-1 $217 $146 $149 $231 reversed $139 $-1 #
coedge $-1 $146 $217 $222 $276 forward $139 $-1 #
vertex $-1 $147 $280 #
straight-curve $-1 43.581652272103028 8.4837021303561766 61.747515836286937 0 0 1 I I #
straight-curve $-1 -16.967066082749845 8.4837021303561766 62.946313317721 0.69465836192734942 0 -0.71933980857756763 I I #
edge $-1 $274 -1.7275005785084669 $151 8.4837021303561766 $226 $281 forward 7 unknown #
point $-1 43.581652272103028 8.4837021303561766 9.8913817246332698 #
point $-1 34.26748458878825 8.4837021303561766 9.8913817246332698 #
edge $-1 $282 1 $282 0 $154 $-1 forward 7 unknown #
vertex $-1 $155 $283 #
ellipse-curve $-1 37.962415488142923 1.1899859097385743 4.1396898442924579 0.71933980857756763 0 0.69465836192734942 0.34732918096367471 0 -0.35966990428878381 1 I I #
point $-1 39.271897611409322 1.1899859097385743 4.7091602139796525 #
edge $-1 $284 1 $284 0 $158 $-1 forward 7 unknown #
vertex $-1 $159 $285 #
ellipse-curve $-1 37.962415488142923 5.5662156421091353 4.1396898442924579 0.71933980857756763 0 0.69465836192734942 0.34732918096367471 0 -0.35966990428878381 1 I I #
point $-1 39.271897611409322 5.5662156421091353 4.7091602139796525 #
plane-surface $-1 43.581652272103028 0 0 -1 0 0 0 0 1 forward_v I I I I #
coedge $-1 $167 $165 $169 $247 reversed $101 $-1 #
edge $-1 $180 -9.8913817246332698 $249 9.8913817246332698 $179 $286 forward 7 unknown #
vertex $-1 $247 $287 #
straight-curve $-1 -43.581652272103028 -20.5437740052393 0 0 0 -1 I I #
edge $-1 $245 -20.5437740052393 $249 20.5437740052393 $243 $288 forward 7 unknown #
straight-curve $-1 0 -20.5437740052393 -9.8913817246332698 -1 0 0 I I #
vertex $-1 $172 $289 #
straight-curve $-1 0 20.5437740052393 -9.8913817246332698 1 0 0 I I #
point $-1 43.581652272103028 20.5437740052393 -9.8913817246332698 #
point $-1 43.581652272103028 -20.5437740052393 -9.8913817246332698 #
straight-curve $-1 -43.581652272103028 0 9.8913817246332698 0 -1 0 I I #
point $-1 -43.581652272103028 20.5437740052393 9.8913817246332698 #
point $-1 -43.581652272103028 -20.5437740052393 9.8913817246332698 #
straight-curve $-1 43.581652272103028 -20.5437740052393 0 0 0 -1 I I #
straight-curve $-1 43.581652272103028 20.5437740052393 0 0 0 -1 I I #
plane-surface $-1 -43.581652272103028 0 0 1 0 0 0 0 -1 forward_v I I I I #
edge $-1 $201 -0.89463984094759574 $205 4.2059406347883108 $204 $290 forward 7 unknown #
edge $-1 $209 -4.2059406347883108 $200 0.89463984094759574 $207 $291 forward 7 unknown #
straight-curve $-1 -35.196476194175148 -5.8615910317086684 0 0 0 -1 I I #
edge $-1 $265 -9.8913817246332698 $263 9.8913817246332698 $211 $292 forward 7 unknown #
vertex $-1 $262 $293 #
straight-curve $-1 -19.694532116569544 -0.76101055597276179 -9.8913817246332698 1 0 0 I I #
vertex $-1 $212 $294 #
straight-curve $-1 -19.694532116569544 -0.76101055597276179 9.8913817246332698 -1 0 0 I I #
point $-1 -35.196476194175148 -0.76101055597276179 9.8913817246332698 #
point $-1 -35.196476194175148 -0.76101055597276179 -9.8913817246332698 #
point $-1 -35.196476194175148 -5.8615910317086684 -9.8913817246332698 #
point $-1 -35.196476194175148 -5.8615910317086684 9.8913817246332698 #
straight-curve $-1 -43.581652272103028 0 9.8913817246332698 0 -1 0 I I #
straight-curve $-1 -43.581652272103028 0 -9.8913817246332698 0 1 0 I I #
edge $-1 $274 51.856134111653667 $277 61.501237324383354 $217 $295 forward 7 unknown #
vertex $-1 $231 $296 #
straight-curve $-1 22.866484361533786 -1.7275005785084669 9.8913817246332698 1 0 0 I I #
edge $-1 $277 -3.4165509664703944 $228 6.7946517423942492 $227 $297 forward 7 unknown #
vertex $-1 $276 $298 #
straight-curve $-1 -16.967066082749845 -1.7275005785084669 62.946313317721 -0.69465836192734942 0 0.71933980857756763 I I #
point $-1 34.26748458878825 -1.7275005785084669 9.8913817246332698 #
point $-1 43.581652272103028 8.4837021303561766 0.24627851190358285 #
straight-curve $-1 43.581652272103028 0 9.8913817246332698 0 1 0 I I #
vertex $-1 $234 $299 #
point $-1 38.3097446691066 1.1899859097385743 3.7800199400036743 #
vertex $-1 $238 $300 #
point $-1 38.3097446691066 5.5662156421091353 3.7800199400036743 #
straight-curve $-1 -43.581652272103028 20.5437740052393 0 0 0 -1 I I #
point $-1 -43.581652272103028 -20.5437740052393 -9.8913817246332698 #
straight-curve $-1 -43.581652272103028 0 -9.8913817246332698 0 1 0 I I #
point $-1 -43.581652272103028 20.5437740052393 -9.8913817246332698 #
straight-curve $-1 -35.196476194175148 -1.6556503969203575 -9.8913817246332698 0 -1 0 I I #
straight-curve $-1 -35.196476194175148 -1.6556503969203575 9.8913817246332698 0 1 0 I I #
straight-curve $-1 -43.581652272103028 -0.76101055597276179 0 0 0 -1 I I #
point $-1 -43.581652272103028 -0.76101055597276179 -9.8913817246332698 #
point $-1 -43.581652272103028 -0.76101055597276179 9.8913817246332698 #
straight-curve $-1 43.581652272103028 -1.7275005785084669 61.747515836286937 0 0 -1 I I #
point $-1 43.581652272103028 -1.7275005785084669 9.8913817246332698 #
straight-curve $-1 43.581652272103028 1.6890503879619274 0.24627851190358641 0 1 0 I I #
point $-1 43.581652272103028 -1.7275005785084669 0.24627851190358285 #
point $-1 37.602745583854144 1.1899859097385743 3.7923606633287834 #
point $-1 37.602745583854144 5.5662156421091353 3.7923606633287834 #
End-of-ACIS-data 