500 0 7 0           
7 Unknown 11 ACIS 5.0 NT 24 Fri Mar 26 03:15:32 1999 
-1 9.9999999999999995e-007 1e-010 
body $-1 $7 $-1 $8 #
body $-1 $9 $-1 $10 #
body $-1 $11 $-1 $12 #
body $-1 $13 $-1 $14 #
body $-1 $15 $-1 $16 #
body $-1 $17 $-1 $18 #
body $-1 $19 $-1 $20 #
lump $-1 $-1 $21 $0 #
transform $-1 1 0 0 0 1 0 0 0 1 41.814020203253271 26.473620378143604 12.801979338291538 1 rotate no_reflect no_shear #
lump $-1 $-1 $22 $1 #
transform $-1 1 0 0 0 1 0 0 0 1 41.814020203253271 26.473620378143604 12.801979338291538 1 rotate no_reflect no_shear #
lump $-1 $-1 $23 $2 #
transform $-1 1 0 0 0 1 0 0 0 1 41.814020203253271 26.473620378143604 12.801979338291538 1 rotate no_reflect no_shear #
lump $-1 $-1 $24 $3 #
transform $-1 1 0 0 0 1 0 0 0 1 41.814020203253271 26.473620378143604 12.801979338291538 1 rotate no_reflect no_shear #
lump $-1 $-1 $25 $4 #
transform $-1 1 0 0 0 1 0 0 0 1 41.814020203253271 26.473620378143604 12.801979338291538 1 rotate no_reflect no_shear #
lump $-1 $-1 $26 $5 #
transform $-1 1 0 0 0 1 0 0 0 1 41.814020203253271 26.473620378143604 12.801979338291538 1 rotate no_reflect no_shear #
lump $-1 $-1 $27 $6 #
transform $-1 1 0 0 0 1 0 0 0 1 41.814020203253271 26.473620378143604 12.801979338291538 1 rotate no_reflect no_shear #
shell $-1 $-1 $-1 $28 $-1 $7 #
shell $-1 $-1 $-1 $29 $-1 $9 #
shell $-1 $-1 $-1 $30 $-1 $11 #
shell $-1 $-1 $-1 $31 $-1 $13 #
shell $-1 $-1 $-1 $32 $-1 $15 #
shell $-1 $-1 $-1 $33 $-1 $17 #
shell $-1 $-1 $-1 $34 $-1 $19 #
face $-1 $35 $36 $21 $-1 $37 forward single #
face $-1 $38 $39 $22 $-1 $40 reversed single #
face $-1 $41 $42 $23 $-1 $43 reversed single #
face $-1 $44 $45 $24 $-1 $46 forward single #
face $-1 $47 $48 $25 $-1 $49 reversed single #
face $-1 $50 $51 $26 $-1 $52 forward single #
face $-1 $53 $54 $27 $-1 $55 forward single #
face $-1 $56 $57 $21 $-1 $58 reversed single #
loop $-1 $-1 $59 $28 #
plane-surface $-1 0 0 12.801979338291538 0 0 1 1 0 0 forward_v I I I I #
face $-1 $60 $61 $22 $-1 $62 reversed single #
loop $-1 $-1 $63 $29 #
plane-surface $-1 0 -21.498207118481712 7.6642313389506942 0 0 1 1 0 0 forward_v I I I I #
face $-1 $64 $65 $23 $-1 $66 reversed single #
loop $-1 $-1 $67 $30 #
plane-surface $-1 -15.22016546805385 21.513236947005272 63.28678094397241 0.73135370988377701 0 0.68199835119979291 0.68199835119979291 0 -0.73135370988377701 forward_v I I I I #
face $-1 $68 $69 $24 $-1 $70 forward single #
loop $-1 $71 $72 $31 #
cone-surface $-1 35.110133275556464 21.513236947005272 5.8542878987890514 -0.73135370988377701 0 -0.68199835119979291 1.0229975267996894 0 -1.0970305648256655 1 I I 0 1 1.5 forward I I I I #
face $-1 $73 $74 $25 $-1 $75 reversed single #
loop $-1 $-1 $76 $32 #
plane-surface $-1 -41.814020203253278 20.47651392961453 4.2523006773221255 -0.84804810408105047 0 0.52991925155115449 0.52991925155115449 0 0.84804810408105047 forward_v I I I I #
face $-1 $77 $78 $26 $-1 $79 forward single #
loop $-1 $80 $81 $33 #
cone-surface $-1 -38.569355257210987 17.906325451673492 8.1688093441324394 0.84804810408105047 0 -0.52991925155115449 0.52991925155115449 0 0.84804810408105047 1 I I 0 1 1 forward I I I I #
face $-1 $82 $83 $27 $-1 $84 forward single #
loop $-1 $85 $86 $34 #
cone-surface $-1 -38.569355257210987 23.046702407555561 8.1688093441324394 0.84804810408105047 0 -0.52991925155115449 0.52991925155115449 0 0.84804810408105047 1 I I 0 1 1 forward I I I I #
face $-1 $87 $88 $21 $-1 $89 reversed single #
loop $-1 $-1 $90 $35 #
plane-surface $-1 0 0 -12.801979338291538 0 0 1 1 0 0 forward_v I I I I #
coedge $-1 $91 $92 $93 $94 forward $36 $-1 #
face $-1 $95 $96 $22 $-1 $97 reversed single #
loop $-1 $-1 $98 $38 #
plane-surface $-1 0 -16.522793858819821 10.233105338621115 0 -1 0 0 0 -1 forward_v I I I I #
coedge $-1 $99 $100 $101 $102 reversed $39 $-1 #
face $-1 $103 $104 $23 $-1 $105 reversed single #
loop $-1 $-1 $106 $41 #
plane-surface $-1 45.941512133555115 16.552853515866932 120.32096661527953 0 1 0 0.73135370988377701 0 0.68199835119979291 forward_v I I I I #
coedge $-1 $107 $108 $109 $110 reversed $42 $-1 #
face $-1 $-1 $111 $24 $-1 $112 forward single #
loop $-1 $113 $114 $44 #
cone-surface $-1 32.835904914011003 21.513236947005272 3.7335356938507687 -0.73135370988377701 0 -0.68199835119979291 0.51149876339984468 0 -0.54851528241283276 1 I I -0.70710678118654757 0.70710678118654757 0.75 forward I I I I #
loop $-1 $-1 $115 $31 #
coedge $-1 $72 $72 $116 $117 reversed $45 $-1 #
face $-1 $118 $119 $25 $-1 $120 forward single #
loop $-1 $-1 $121 $47 #
plane-surface $-1 -112.73462131800463 14.479407481085453 48.568409258227781 0 1 0 -0.84804810408105047 0 0.52991925155115449 forward_v I I I I #
coedge $-1 $122 $123 $124 $125 reversed $48 $-1 #
face $-1 $-1 $126 $26 $-1 $127 forward single #
loop $-1 $128 $129 $50 #
cone-surface $-1 -37.571882252195707 17.906325451673492 7.5455190546824653 0.84804810408105047 0 -0.52991925155115449 0.26495962577557725 0 0.42402405204052523 1 I I -0.70710678118654746 0.70710678118654746 0.5 forward I I I I #
loop $-1 $-1 $130 $33 #
coedge $-1 $81 $81 $131 $132 reversed $51 $-1 #
face $-1 $-1 $133 $27 $-1 $134 forward single #
loop $-1 $135 $136 $53 #
cone-surface $-1 -37.571882252195707 23.046702407555561 7.5455190546824653 0.84804810408105047 0 -0.52991925155115449 0.26495962577557725 0 0.42402405204052523 1 I I -0.70710678118654746 0.70710678118654746 0.5 forward I I I I #
loop $-1 $-1 $137 $34 #
coedge $-1 $86 $86 $138 $139 reversed $54 $-1 #
face $-1 $140 $141 $21 $-1 $142 reversed single #
loop $-1 $-1 $143 $56 #
plane-surface $-1 0 -26.473620378143604 0 0 1 0 0 0 1 forward_v I I I I #
coedge $-1 $144 $145 $146 $147 forward $57 $-1 #
coedge $-1 $148 $59 $149 $150 forward $36 $-1 #
coedge $-1 $59 $148 $151 $152 forward $36 $-1 #
coedge $-1 $153 $154 $59 $94 reversed $155 $-1 #
edge $-1 $156 -26.473620378143604 $157 26.473620378143604 $93 $158 forward 7 unknown #
face $-1 $159 $160 $22 $-1 $161 reversed single #
loop $-1 $-1 $162 $60 #
plane-surface $-1 -41.814020203253271 0 0 1 0 0 0 0 -1 forward_v I I I I #
coedge $-1 $163 $164 $165 $166 reversed $61 $-1 #
coedge $-1 $167 $63 $168 $169 reversed $39 $-1 #
coedge $-1 $63 $167 $163 $170 forward $39 $-1 #
coedge $-1 $165 $171 $63 $102 forward $172 $-1 #
edge $-1 $173 -15.724516818902748 $174 -5.7736902995789645 $101 $175 forward 7 unknown #
face $-1 $176 $177 $23 $-1 $178 forward single #
loop $-1 $-1 $179 $64 #
plane-surface $-1 0 26.473620378143604 0 0 -1 0 0 0 -1 forward_v I I I I #
coedge $-1 $180 $181 $182 $183 reversed $65 $-1 #
coedge $-1 $184 $67 $179 $185 reversed $42 $-1 #
coedge $-1 $67 $184 $180 $186 forward $42 $-1 #
coedge $-1 $182 $187 $67 $110 forward $177 $-1 #
edge $-1 $188 -15.717001904640975 $189 -5.7962350423642963 $109 $190 forward 7 unknown #
loop $-1 $-1 $116 $68 #
plane-surface $-1 -15.22016546805385 21.513236947005272 63.28678094397241 0.73135370988377701 0 0.68199835119979291 0.68199835119979291 0 -0.73135370988377701 forward_v I I I I #
loop $-1 $-1 $191 $44 #
coedge $-1 $114 $114 $115 $192 reversed $69 $-1 #
coedge $-1 $115 $115 $114 $192 forward $71 $-1 #
coedge $-1 $116 $116 $72 $117 forward $111 $-1 #
edge $-1 $193 0 $193 6.2831853071796004 $116 $194 forward 7 unknown #
face $-1 $195 $196 $25 $-1 $197 reversed single #
loop $-1 $-1 $198 $73 #
plane-surface $-1 0 0 12.801979338291538 0 0 1 1 0 0 forward_v I I I I #
coedge $-1 $199 $200 $201 $202 reversed $74 $-1 #
coedge $-1 $203 $76 $204 $205 reversed $48 $-1 #
coedge $-1 $76 $203 $199 $206 forward $48 $-1 #
coedge $-1 $201 $207 $76 $125 forward $208 $-1 #
edge $-1 $209 -16.235363413336337 $210 -4.2411505162781875 $124 $211 forward 7 unknown #
loop $-1 $-1 $131 $77 #
plane-surface $-1 -41.814020203253278 20.47651392961453 4.2523006773221255 -0.84804810408105047 0 0.52991925155115449 0.52991925155115449 0 0.84804810408105047 forward_v I I I I #
loop $-1 $-1 $212 $50 #
coedge $-1 $129 $129 $130 $213 reversed $78 $-1 #
coedge $-1 $130 $130 $129 $213 forward $80 $-1 #
coedge $-1 $131 $131 $81 $132 forward $126 $-1 #
edge $-1 $214 0 $214 6.2831853071796004 $131 $215 forward 7 unknown #
loop $-1 $-1 $138 $82 #
plane-surface $-1 -41.814020203253278 20.47651392961453 4.2523006773221255 -0.84804810408105047 0 0.52991925155115449 0.52991925155115449 0 0.84804810408105047 forward_v I I I I #
loop $-1 $-1 $216 $53 #
coedge $-1 $136 $136 $137 $217 reversed $83 $-1 #
coedge $-1 $137 $137 $136 $217 forward $85 $-1 #
coedge $-1 $138 $138 $86 $139 forward $133 $-1 #
edge $-1 $218 0 $218 6.2831853071796004 $138 $219 forward 7 unknown #
face $-1 $220 $221 $21 $-1 $222 reversed single #
loop $-1 $-1 $223 $87 #
plane-surface $-1 -41.814020203253271 0 0 1 0 0 0 0 -1 forward_v I I I I #
coedge $-1 $224 $151 $225 $226 forward $88 $-1 #
coedge $-1 $227 $90 $224 $228 forward $57 $-1 #
coedge $-1 $90 $227 $229 $230 forward $57 $-1 #
coedge $-1 $154 $153 $90 $147 reversed $155 $-1 #
edge $-1 $231 -26.473620378143604 $232 26.473620378143604 $146 $233 forward 7 unknown #
coedge $-1 $92 $91 $234 $235 forward $36 $-1 #
coedge $-1 $236 $237 $91 $150 reversed $221 $-1 #
edge $-1 $157 -41.814020203253271 $238 41.814020203253271 $149 $239 forward 7 unknown #
coedge $-1 $143 $240 $92 $152 reversed $88 $-1 #
edge $-1 $241 -41.814020203253271 $156 41.814020203253271 $151 $242 forward 7 unknown #
coedge $-1 $146 $93 $240 $243 forward $155 $-1 #
coedge $-1 $93 $146 $236 $244 reversed $155 $-1 #
loop $-1 $-1 $153 $220 #
vertex $-1 $94 $245 #
vertex $-1 $94 $246 #
straight-curve $-1 41.814020203253271 0 12.801979338291538 0 1 0 I I #
face $-1 $247 $248 $22 $-1 $249 forward single #
loop $-1 $-1 $168 $95 #
plane-surface $-1 0 -26.473620378143604 0 0 1 0 0 0 1 forward_v I I I I #
coedge $-1 $250 $251 $252 $253 forward $96 $-1 #
coedge $-1 $252 $98 $100 $170 reversed $61 $-1 #
coedge $-1 $98 $252 $254 $255 reversed $61 $-1 #
coedge $-1 $256 $101 $98 $166 forward $172 $-1 #
edge $-1 $174 2.5476786696401366 $257 7.6854266689809787 $165 $258 forward 7 unknown #
coedge $-1 $100 $99 $250 $259 reversed $39 $-1 #
coedge $-1 $260 $261 $99 $169 forward $160 $-1 #
edge $-1 $262 -41.814020203253271 $173 41.814020203253271 $168 $263 forward 7 unknown #
edge $-1 $264 -41.814020203253271 $174 41.814020203253271 $163 $265 forward 7 unknown #
coedge $-1 $101 $256 $260 $266 forward $172 $-1 #
loop $-1 $-1 $165 $247 #
vertex $-1 $169 $267 #
vertex $-1 $102 $268 #
straight-curve $-1 41.814020203253271 -10.749103559240856 7.6642313389506942 0 1 0 I I #
face $-1 $-1 $269 $23 $-1 $270 reversed single #
loop $-1 $-1 $109 $103 #
plane-surface $-1 0 0 12.801979338291538 0 0 1 1 0 0 forward_v I I I I #
coedge $-1 $271 $272 $107 $185 forward $104 $-1 #
coedge $-1 $181 $106 $108 $186 reversed $65 $-1 #
coedge $-1 $106 $180 $273 $274 reversed $65 $-1 #
coedge $-1 $275 $109 $106 $183 forward $177 $-1 #
edge $-1 $189 8.8869164393473774 $276 18.843264136475714 $182 $277 forward 7 unknown #
coedge $-1 $108 $107 $278 $279 reversed $42 $-1 #
edge $-1 $280 -55.295465514418083 $188 -40.696679931413648 $179 $281 forward 7 unknown #
edge $-1 $282 -83.628040406506543 $189 -69.0292548235021 $180 $283 forward 7 unknown #
coedge $-1 $109 $275 $271 $284 forward $177 $-1 #
vertex $-1 $110 $285 #
vertex $-1 $110 $286 #
straight-curve $-1 31.857672506124935 10.756618473502636 12.801979338291538 0 -1 0 I I #
coedge $-1 $191 $191 $-1 $287 reversed $113 $-1 #
edge $-1 $288 0 $288 6.2831853071796004 $114 $289 forward 7 unknown #
vertex $-1 $117 $290 #
ellipse-curve $-1 36.835846354689096 21.513236947005272 7.4635413403274917 0.73135370988377701 0 0.68199835119979291 1.0229975267996894 0 -1.0970305648256655 1 I I #
face $-1 $-1 $208 $25 $-1 $291 reversed single #
loop $-1 $-1 $204 $118 #
plane-surface $-1 0 26.473620378143604 0 0 -1 0 0 0 -1 forward_v I I I I #
coedge $-1 $292 $293 $200 $294 forward $119 $-1 #
coedge $-1 $200 $121 $123 $206 reversed $74 $-1 #
coedge $-1 $121 $199 $198 $294 reversed $74 $-1 #
coedge $-1 $295 $124 $121 $202 forward $208 $-1 #
edge $-1 $210 -20.031903951791755 $296 -11.482225290822353 $201 $297 forward 7 unknown #
coedge $-1 $123 $122 $292 $298 reversed $48 $-1 #
coedge $-1 $299 $300 $122 $205 forward $196 $-1 #
edge $-1 $301 -0.80564695695934041 $209 9.2759493815336018 $204 $302 forward 7 unknown #
edge $-1 $303 -10.081596338492957 $210 -1.3557137071152151e-014 $199 $304 forward 7 unknown #
coedge $-1 $124 $295 $299 $305 forward $208 $-1 #
loop $-1 $-1 $201 $195 #
vertex $-1 $205 $306 #
vertex $-1 $125 $307 #
straight-curve $-1 -41.814020203253271 10.238256964807265 4.252300677322145 0 -1 0 I I #
coedge $-1 $212 $212 $-1 $308 reversed $128 $-1 #
edge $-1 $309 0 $309 6.2831853071796004 $129 $310 forward 7 unknown #
vertex $-1 $132 $311 #
ellipse-curve $-1 -39.142804210185751 17.906325451673492 8.5271400078068389 -0.84804810408105047 0 0.52991925155115449 0.52991925155115449 0 0.84804810408105047 1 I I #
coedge $-1 $216 $216 $-1 $312 reversed $135 $-1 #
edge $-1 $313 0 $313 6.2831853071796004 $136 $314 forward 7 unknown #
vertex $-1 $139 $315 #
ellipse-curve $-1 -39.142804210185751 23.046702407555561 8.5271400078068389 -0.84804810408105047 0 0.52991925155115449 0.52991925155115449 0 0.84804810408105047 1 I I #
face $-1 $-1 $155 $21 $-1 $316 reversed single #
loop $-1 $-1 $236 $140 #
plane-surface $-1 0 26.473620378143604 0 0 -1 0 0 0 -1 forward_v I I I I #
coedge $-1 $317 $234 $237 $318 forward $141 $-1 #
coedge $-1 $240 $143 $144 $228 reversed $88 $-1 #
coedge $-1 $234 $317 $143 $226 reversed $141 $-1 #
edge $-1 $241 -12.801979338291538 $319 12.801979338291538 $225 $320 forward 7 unknown #
coedge $-1 $145 $144 $317 $321 forward $57 $-1 #
edge $-1 $232 -41.814020203253271 $319 41.814020203253271 $224 $322 forward 7 unknown #
coedge $-1 $237 $236 $145 $230 reversed $221 $-1 #
edge $-1 $323 -41.814020203253271 $231 41.814020203253271 $229 $324 forward 7 unknown #
vertex $-1 $147 $325 #
vertex $-1 $243 $326 #
straight-curve $-1 41.814020203253271 0 -12.801979338291538 0 -1 0 I I #
coedge $-1 $223 $225 $148 $235 reversed $141 $-1 #
edge $-1 $238 -26.473620378143604 $241 26.473620378143604 $234 $327 forward 7 unknown #
coedge $-1 $229 $149 $154 $244 forward $221 $-1 #
coedge $-1 $149 $229 $223 $318 reversed $221 $-1 #
vertex $-1 $150 $328 #
straight-curve $-1 0 26.473620378143604 12.801979338291538 -1 0 0 I I #
coedge $-1 $151 $224 $153 $243 reversed $88 $-1 #
vertex $-1 $235 $329 #
straight-curve $-1 0 -26.473620378143604 12.801979338291538 1 0 0 I I #
edge $-1 $156 -12.801979338291538 $232 12.801979338291538 $153 $330 forward 7 unknown #
edge $-1 $157 -12.801979338291538 $231 12.801979338291538 $154 $331 forward 7 unknown #
point $-1 41.814020203253271 -26.473620378143604 12.801979338291538 #
point $-1 41.814020203253271 26.473620378143604 12.801979338291538 #
face $-1 $-1 $172 $22 $-1 $332 reversed single #
loop $-1 $-1 $254 $159 #
plane-surface $-1 0 0 12.801979338291538 0 0 1 1 0 0 forward_v I I I I #
coedge $-1 $333 $162 $167 $259 forward $96 $-1 #
coedge $-1 $162 $333 $334 $335 reversed $96 $-1 #
coedge $-1 $164 $163 $162 $253 reversed $61 $-1 #
edge $-1 $336 -7.6854266689809787 $264 -2.5476786696401366 $162 $337 forward 7 unknown #
coedge $-1 $334 $338 $164 $255 forward $248 $-1 #
edge $-1 $257 -41.814020203253271 $336 41.814020203253271 $254 $339 forward 7 unknown #
coedge $-1 $171 $165 $338 $340 reversed $172 $-1 #
vertex $-1 $166 $341 #
straight-curve $-1 41.814020203253271 -16.522793858819821 5.1165526693105576 0 0 1 I I #
edge $-1 $264 5.7736902995789645 $262 15.724516818902748 $250 $342 forward 7 unknown #
coedge $-1 $343 $168 $171 $266 reversed $160 $-1 #
coedge $-1 $168 $343 $333 $344 forward $160 $-1 #
vertex $-1 $169 $345 #
straight-curve $-1 0 -26.473620378143604 7.6642313389506942 1 0 0 I I #
vertex $-1 $259 $346 #
straight-curve $-1 0 -16.522793858819821 7.6642313389506942 1 0 0 I I #
edge $-1 $347 -12.801979338291538 $173 -7.6642313389506942 $171 $348 forward 7 unknown #
point $-1 41.814020203253271 -26.473620378143604 7.6642313389506942 #
point $-1 41.814020203253271 -16.522793858819821 7.6642313389506942 #
loop $-1 $-1 $278 $176 #
plane-surface $-1 41.814020203253271 0 0 -1 0 0 0 0 1 forward_v I I I I #
coedge $-1 $272 $179 $187 $284 reversed $104 $-1 #
coedge $-1 $179 $271 $349 $350 forward $104 $-1 #
coedge $-1 $278 $351 $181 $274 forward $269 $-1 #
edge $-1 $276 47.358503969348227 $282 58.03537996527632 $273 $352 forward 7 unknown #
coedge $-1 $187 $182 $351 $353 forward $177 $-1 #
vertex $-1 $353 $354 #
straight-curve $-1 22.970756066777557 16.552853515866932 12.801979338291538 1 0 0 I I #
coedge $-1 $349 $273 $184 $279 forward $269 $-1 #
edge $-1 $282 5.7962350423642963 $280 15.717001904640975 $278 $355 forward 7 unknown #
vertex $-1 $279 $356 #
straight-curve $-1 4.1026038935951217 26.473620378143604 42.565647186083567 -0.68199835119979291 0 0.73135370988377701 I I #
vertex $-1 $279 $357 #
straight-curve $-1 -15.22016546805385 16.552853515866932 63.28678094397241 -0.68199835119979291 0 0.73135370988377701 I I #
edge $-1 $358 -41.814020203253271 $188 -31.857672506124935 $271 $359 forward 7 unknown #
point $-1 31.857672506124935 26.473620378143611 12.801979338291538 #
point $-1 31.857672506124935 16.552853515866932 12.801979338291538 #
edge $-1 $360 1 $360 0 $191 $-1 forward 7 unknown #
vertex $-1 $192 $361 #
ellipse-curve $-1 33.384420196423832 21.513236947005272 4.2450344572506129 0.73135370988377701 0 0.68199835119979291 1.0229975267996894 0 -1.0970305648256655 1 I I #
point $-1 37.858843881488788 21.513236947005272 6.3665107755018244 #
plane-surface $-1 -41.814020203253271 0 0 1 0 0 0 0 -1 forward_v I I I I #
coedge $-1 $362 $198 $203 $298 forward $119 $-1 #
coedge $-1 $198 $362 $295 $363 forward $119 $-1 #
edge $-1 $296 14.553290455749043 $303 19.895722441884082 $198 $364 forward 7 unknown #
coedge $-1 $207 $201 $293 $363 reversed $208 $-1 #
vertex $-1 $294 $365 #
straight-curve $-1 -41.814020203253271 14.479407481085453 24.284204629113891 0 0 1 I I #
edge $-1 $303 4.2411505162781875 $301 16.235363413336344 $292 $366 forward 7 unknown #
coedge $-1 $300 $204 $207 $305 reversed $196 $-1 #
coedge $-1 $204 $299 $362 $367 reversed $196 $-1 #
vertex $-1 $367 $368 #
straight-curve $-1 -36.898516049564591 26.473620378143604 12.118751963883502 -0.52991925155115449 0 -0.84804810408105047 I I #
vertex $-1 $298 $369 #
straight-curve $-1 -41.814020203253278 14.479407481085453 4.2523006773221255 -0.52991925155115449 0 -0.84804810408105047 I I #
edge $-1 $370 -12.801979338291538 $209 -4.2523006773221379 $299 $371 forward 7 unknown #
point $-1 -41.814020203253271 26.473620378143604 4.2523006773221379 #
point $-1 -41.814020203253271 14.479407481085453 4.252300677322137 #
edge $-1 $372 1 $372 0 $212 $-1 forward 7 unknown #
vertex $-1 $213 $373 #
ellipse-curve $-1 -37.995906304236229 17.906325451673492 7.8104786804580426 -0.84804810408105047 0 0.52991925155115449 0.52991925155115449 0 0.84804810408105047 1 I I #
point $-1 -38.612884958634595 17.906325451673492 9.375188111887887 #
edge $-1 $374 1 $374 0 $216 $-1 forward 7 unknown #
vertex $-1 $217 $375 #
ellipse-curve $-1 -37.995906304236229 23.046702407555561 7.8104786804580426 -0.84804810408105047 0 0.52991925155115449 0.52991925155115449 0 0.84804810408105047 1 I I #
point $-1 -38.612884958634595 23.046702407555561 9.375188111887887 #
plane-surface $-1 41.814020203253271 0 0 -1 0 0 0 0 1 forward_v I I I I #
coedge $-1 $225 $223 $227 $321 reversed $141 $-1 #
edge $-1 $238 -12.801979338291538 $323 12.801979338291538 $237 $376 forward 7 unknown #
vertex $-1 $321 $377 #
straight-curve $-1 -41.814020203253271 -26.473620378143604 0 0 0 -1 I I #
edge $-1 $319 -26.473620378143604 $323 26.473620378143604 $317 $378 forward 7 unknown #
straight-curve $-1 0 -26.473620378143604 -12.801979338291538 -1 0 0 I I #
vertex $-1 $230 $379 #
straight-curve $-1 0 26.473620378143604 -12.801979338291538 1 0 0 I I #
point $-1 41.814020203253271 26.473620378143604 -12.801979338291538 #
point $-1 41.814020203253271 -26.473620378143604 -12.801979338291538 #
straight-curve $-1 -41.814020203253271 0 12.801979338291538 0 -1 0 I I #
point $-1 -41.814020203253271 26.473620378143604 12.801979338291538 #
point $-1 -41.814020203253271 -26.473620378143604 12.801979338291538 #
straight-curve $-1 41.814020203253271 -26.473620378143604 0 0 0 -1 I I #
straight-curve $-1 41.814020203253271 26.473620378143604 0 0 0 -1 I I #
plane-surface $-1 41.814020203253271 0 0 -1 0 0 0 0 1 forward_v I I I I #
coedge $-1 $251 $250 $261 $344 reversed $96 $-1 #
coedge $-1 $380 $254 $251 $335 forward $248 $-1 #
edge $-1 $336 16.522793858819821 $381 26.473620378143604 $251 $382 forward 7 unknown #
vertex $-1 $335 $383 #
straight-curve $-1 -41.814020203253271 -16.522793858819821 5.1165526693105576 0 0 -1 I I #
coedge $-1 $254 $380 $256 $340 forward $248 $-1 #
straight-curve $-1 0 -16.522793858819821 12.801979338291538 -1 0 0 I I #
edge $-1 $347 -26.473620378143604 $257 -16.522793858819821 $256 $384 forward 7 unknown #
point $-1 41.814020203253271 -16.522793858819821 12.801979338291536 #
straight-curve $-1 -41.814020203253271 -10.749103559240856 7.6642313389506942 0 -1 0 I I #
coedge $-1 $261 $260 $380 $385 reversed $160 $-1 #
edge $-1 $381 -12.801979338291538 $262 -7.6642313389506942 $333 $386 forward 7 unknown #
point $-1 -41.814020203253271 -26.473620378143604 7.6642313389506942 #
point $-1 -41.814020203253271 -16.522793858819821 7.6642313389506942 #
vertex $-1 $340 $387 #
straight-curve $-1 41.814020203253271 -26.473620378143604 0 0 0 -1 I I #
coedge $-1 $351 $278 $272 $350 reversed $269 $-1 #
edge $-1 $358 -12.801979338291538 $280 -2.1251033423634453 $349 $388 forward 7 unknown #
coedge $-1 $273 $349 $275 $353 reversed $269 $-1 #
straight-curve $-1 41.814020203253271 16.552853515866932 60.160483307639765 0 0 -1 I I #
edge $-1 $276 16.552853515866932 $358 26.473620378143604 $351 $389 forward 7 unknown #
point $-1 41.814020203253271 16.552853515866932 12.801979338291538 #
straight-curve $-1 41.814020203253264 10.756618473502636 2.1251033423634382 0 1 0 I I #
point $-1 41.814020203253271 26.473620378143611 2.1251033423634453 #
point $-1 41.814020203253271 16.552853515866932 2.1251033423634453 #
vertex $-1 $353 $390 #
straight-curve $-1 0 26.473620378143604 12.801979338291538 -1 0 0 I I #
vertex $-1 $287 $391 #
point $-1 34.407417723223524 21.513236947005272 3.1480038924249478 #
coedge $-1 $293 $292 $300 $367 forward $119 $-1 #
edge $-1 $370 -26.473620378143604 $296 -14.479407481085453 $295 $392 forward 7 unknown #
straight-curve $-1 -56.367310659002314 14.479407481085453 12.801979338291538 1 0 0 I I #
point $-1 -41.814020203253271 14.479407481085453 12.801979338291538 #
straight-curve $-1 -36.471588217118224 10.238256964807265 12.801979338291538 0 1 0 I I #
edge $-1 $301 36.471588217118232 $370 41.814020203253271 $300 $393 forward 7 unknown #
point $-1 -36.471588217118232 26.473620378143607 12.801979338291538 #
point $-1 -36.471588217118232 14.479407481085453 12.801979338291538 #
vertex $-1 $367 $394 #
straight-curve $-1 -41.814020203253271 26.473620378143604 0 0 0 -1 I I #
vertex $-1 $308 $395 #
point $-1 -37.46598705268508 17.906325451673492 8.6585267845390934 #
vertex $-1 $312 $396 #
point $-1 -37.46598705268508 23.046702407555561 8.6585267845390934 #
straight-curve $-1 -41.814020203253271 26.473620378143604 0 0 0 -1 I I #
point $-1 -41.814020203253271 -26.473620378143604 -12.801979338291538 #
straight-curve $-1 -41.814020203253271 0 -12.801979338291538 0 1 0 I I #
point $-1 -41.814020203253271 26.473620378143604 -12.801979338291538 #
coedge $-1 $338 $334 $343 $385 forward $248 $-1 #
vertex $-1 $335 $397 #
straight-curve $-1 -41.814020203253271 0 12.801979338291538 0 -1 0 I I #
point $-1 -41.814020203253271 -16.522793858819821 12.801979338291536 #
straight-curve $-1 41.814020203253271 0 12.801979338291538 0 1 0 I I #
edge $-1 $381 -41.814020203253271 $347 41.814020203253271 $343 $398 forward 7 unknown #
straight-curve $-1 -41.814020203253271 -26.473620378143604 0 0 0 -1 I I #
point $-1 41.814020203253271 -26.473620378143604 12.801979338291538 #
straight-curve $-1 41.814020203253271 26.473620378143604 0 0 0 -1 I I #
straight-curve $-1 41.814020203253271 0 12.801979338291538 0 1 0 I I #
point $-1 41.814020203253271 26.473620378143604 12.801979338291538 #
point $-1 32.287389631598174 21.513236947005272 3.222036930450924 #
straight-curve $-1 -41.814020203253271 0 12.801979338291538 0 -1 0 I I #
straight-curve $-1 0 26.473620378143604 12.801979338291538 -1 0 0 I I #
point $-1 -41.814020203253271 26.473620378143604 12.801979338291538 #
point $-1 -37.147858200155184 17.906325451673492 7.280559428906888 #
point $-1 -37.147858200155184 23.046702407555561 7.280559428906888 #
point $-1 -41.814020203253271 -26.473620378143604 12.801979338291538 #
straight-curve $-1 0 -26.473620378143604 12.801979338291538 1 0 0 I I #
End-of-ACIS-data 