500 0 10 0           
7 Unknown 11 ACIS 5.0 NT 24 Thu Mar 25 22:48:29 1999 
-1 9.9999999999999995e-007 1e-010 
body $-1 $10 $-1 $11 #
body $-1 $12 $-1 $13 #
body $-1 $14 $-1 $15 #
body $-1 $16 $-1 $17 #
body $-1 $18 $-1 $19 #
body $-1 $20 $-1 $21 #
body $-1 $22 $-1 $23 #
body $-1 $24 $-1 $25 #
body $-1 $26 $-1 $27 #
body $-1 $28 $-1 $29 #
lump $-1 $-1 $30 $0 #
transform $-1 1 0 0 0 1 0 0 0 1 77.714774010437338 51.041959288345616 10.577105251130577 1 rotate no_reflect no_shear #
lump $-1 $-1 $31 $1 #
transform $-1 1 0 0 0 1 0 0 0 1 77.714774010437338 51.041959288345616 10.577105251130577 1 rotate no_reflect no_shear #
lump $-1 $-1 $32 $2 #
transform $-1 1 0 0 0 1 0 0 0 1 77.714774010437338 51.041959288345616 10.577105251130577 1 rotate no_reflect no_shear #
lump $-1 $-1 $33 $3 #
transform $-1 1 0 0 0 1 0 0 0 1 77.714774010437338 51.041959288345616 10.577105251130577 1 rotate no_reflect no_shear #
lump $-1 $-1 $34 $4 #
transform $-1 1 0 0 0 1 0 0 0 1 77.714774010437338 51.041959288345616 10.577105251130577 1 rotate no_reflect no_shear #
lump $-1 $-1 $35 $5 #
transform $-1 1 0 0 0 1 0 0 0 1 77.714774010437338 51.041959288345616 10.577105251130577 1 rotate no_reflect no_shear #
lump $-1 $-1 $36 $6 #
transform $-1 1 0 0 0 1 0 0 0 1 77.714774010437338 51.041959288345616 10.577105251130577 1 rotate no_reflect no_shear #
lump $-1 $-1 $37 $7 #
transform $-1 1 0 0 0 1 0 0 0 1 77.714774010437338 51.041959288345616 10.577105251130577 1 rotate no_reflect no_shear #
lump $-1 $-1 $38 $8 #
transform $-1 1 0 0 0 1 0 0 0 1 77.714774010437338 51.041959288345616 10.577105251130577 1 rotate no_reflect no_shear #
lump $-1 $-1 $39 $9 #
transform $-1 1 0 0 0 1 0 0 0 1 77.714774010437338 51.041959288345616 10.577105251130577 1 rotate no_reflect no_shear #
shell $-1 $-1 $-1 $40 $-1 $10 #
shell $-1 $-1 $-1 $41 $-1 $12 #
shell $-1 $-1 $-1 $42 $-1 $14 #
shell $-1 $-1 $-1 $43 $-1 $16 #
shell $-1 $-1 $-1 $44 $-1 $18 #
shell $-1 $-1 $-1 $45 $-1 $20 #
shell $-1 $-1 $-1 $46 $-1 $22 #
shell $-1 $-1 $-1 $47 $-1 $24 #
shell $-1 $-1 $-1 $48 $-1 $26 #
shell $-1 $-1 $-1 $49 $-1 $28 #
face $-1 $50 $51 $30 $-1 $52 reversed single #
face $-1 $53 $54 $31 $-1 $55 forward single #
face $-1 $56 $57 $32 $-1 $58 reversed single #
face $-1 $59 $60 $33 $-1 $61 forward single #
face $-1 $62 $63 $34 $-1 $64 forward single #
face $-1 $65 $66 $35 $-1 $67 forward single #
face $-1 $68 $69 $36 $-1 $70 reversed single #
face $-1 $71 $72 $37 $-1 $73 forward single #
face $-1 $74 $75 $38 $-1 $76 forward single #
face $-1 $77 $78 $39 $-1 $79 forward single #
face $-1 $80 $81 $30 $-1 $82 forward single #
loop $-1 $-1 $83 $40 #
plane-surface $-1 0 -51.041959288345616 0 0 1 0 0 0 1 forward_v I I I I #
face $-1 $84 $85 $31 $-1 $86 reversed single #
loop $-1 $-1 $87 $41 #
plane-surface $-1 0 -51.041959288345616 0 0 1 0 0 0 1 forward_v I I I I #
face $-1 $88 $89 $32 $-1 $90 reversed single #
loop $-1 $-1 $91 $42 #
plane-surface $-1 -200.19493056209905 32.209673907112219 100.66946635630858 0 1 0 -0.78801076186113728 0 0.61566146476048833 forward_v I I I I #
face $-1 $92 $93 $33 $-1 $94 forward single #
loop $-1 $95 $96 $43 #
cone-surface $-1 -75.014677256547316 34.196048499887134 7.3767722897505896 0.78801076186113728 0 -0.61566146476048833 0.30783073238024417 0 0.39400538093056864 1 I I 0 1 0.5 forward I I I I #
face $-1 $97 $98 $34 $-1 $99 forward single #
loop $-1 $100 $101 $44 #
cone-surface $-1 -75.014677256547316 37.175610389049517 7.3767722897505896 0.78801076186113728 0 -0.61566146476048833 0.30783073238024417 0 0.39400538093056864 1 I I 0 1 0.5 forward I I I I #
face $-1 $102 $103 $35 $-1 $104 forward single #
loop $-1 $105 $106 $45 #
cone-surface $-1 -75.014677256547316 40.1551722782119 7.3767722897505896 0.78801076186113728 0 -0.61566146476048833 0.30783073238024417 0 0.39400538093056864 1 I I 0 1 0.5 forward I I I I #
face $-1 $107 $108 $36 $-1 $109 reversed single #
loop $-1 $-1 $110 $46 #
plane-surface $-1 134.60594036942683 -29.722214116250807 216.66435916185978 0 -1 0 -0.86602541151947299 0 -0.49999998660252726 forward_v I I I I #
face $-1 $111 $112 $37 $-1 $113 forward single #
loop $-1 $114 $115 $47 #
cone-surface $-1 75.392006888544273 -40.354407407782475 7.1582362335823531 -0.86602541151947299 0 -0.49999998660252726 0.49999998660252726 0 -0.86602541151947299 1 I I 0 1 1 forward I I I I #
face $-1 $116 $117 $38 $-1 $118 forward single #
loop $-1 $119 $120 $48 #
cone-surface $-1 75.392006888544273 -36.367334923458102 7.1582362335823531 -0.86602541151947299 0 -0.49999998660252726 0.49999998660252726 0 -0.86602541151947299 1 I I 0 1 1 forward I I I I #
face $-1 $121 $122 $39 $-1 $123 forward single #
loop $-1 $124 $125 $49 #
cone-surface $-1 75.392006888544273 -32.380262439133723 7.1582362335823531 -0.86602541151947299 0 -0.49999998660252726 0.49999998660252726 0 -0.86602541151947299 1 I I 0 1 1 forward I I I I #
face $-1 $126 $127 $30 $-1 $128 reversed single #
loop $-1 $-1 $129 $50 #
plane-surface $-1 0 0 10.577105251130577 0 0 1 1 0 0 forward_v I I I I #
coedge $-1 $130 $131 $132 $133 reversed $51 $-1 #
face $-1 $134 $135 $31 $-1 $136 reversed single #
loop $-1 $-1 $137 $53 #
plane-surface $-1 0 0 -10.577105251130577 0 0 1 1 0 0 forward_v I I I I #
coedge $-1 $138 $139 $140 $141 forward $54 $-1 #
face $-1 $142 $143 $32 $-1 $144 reversed single #
loop $-1 $-1 $145 $56 #
plane-surface $-1 -77.714774010437367 37.175610389049531 4.9774831547162108 -0.78801076186113728 0 0.61566146476048833 0.61566146476048833 0 0.78801076186113728 forward_v I I I I #
coedge $-1 $146 $147 $148 $149 reversed $57 $-1 #
face $-1 $-1 $150 $33 $-1 $151 forward single #
loop $-1 $152 $153 $59 #
cone-surface $-1 -74.305029880639253 34.196048499887134 6.8223350103876665 0.78801076186113728 0 -0.61566146476048833 0.15391536619012208 0 0.19700269046528432 1 I I -0.70710678118654746 0.70710678118654746 0.25 forward I I I I #
loop $-1 $-1 $154 $43 #
coedge $-1 $96 $96 $155 $156 reversed $60 $-1 #
face $-1 $-1 $157 $34 $-1 $158 forward single #
loop $-1 $159 $160 $62 #
cone-surface $-1 -74.305029880639253 37.175610389049517 6.8223350103876665 0.78801076186113728 0 -0.61566146476048833 0.15391536619012208 0 0.19700269046528432 1 I I -0.70710678118654746 0.70710678118654746 0.25 forward I I I I #
loop $-1 $-1 $161 $44 #
coedge $-1 $101 $101 $162 $163 reversed $63 $-1 #
face $-1 $-1 $164 $35 $-1 $165 forward single #
loop $-1 $166 $167 $65 #
cone-surface $-1 -74.305029880639253 40.1551722782119 6.8223350103876665 0.78801076186113728 0 -0.61566146476048833 0.15391536619012208 0 0.19700269046528432 1 I I -0.70710678118654746 0.70710678118654746 0.25 forward I I I I #
loop $-1 $-1 $168 $45 #
coedge $-1 $106 $106 $169 $170 reversed $66 $-1 #
face $-1 $171 $172 $36 $-1 $173 reversed single #
loop $-1 $-1 $174 $68 #
plane-surface $-1 2.0823631530220155e-006 -36.367334923458102 138.94958723378556 0.86602541151947299 0 0.49999998660252726 0.49999998660252726 0 -0.86602541151947299 forward_v I I I I #
coedge $-1 $175 $176 $177 $178 reversed $69 $-1 #
face $-1 $-1 $179 $37 $-1 $180 forward single #
loop $-1 $181 $182 $71 #
cone-surface $-1 74.43567083426953 -40.354407407782475 6.6060953749371958 -0.86602541151947299 0 -0.49999998660252726 0.24999999330126363 0 -0.43301270575973649 1 I I -0.70710678118654691 0.70710678118654813 0.5 forward I I I I #
loop $-1 $-1 $183 $47 #
coedge $-1 $115 $115 $184 $185 reversed $72 $-1 #
face $-1 $-1 $186 $38 $-1 $187 forward single #
loop $-1 $188 $189 $74 #
cone-surface $-1 74.43567083426953 -36.367334923458102 6.6060953749371958 -0.86602541151947299 0 -0.49999998660252726 0.24999999330126363 0 -0.43301270575973649 1 I I -0.70710678118654691 0.70710678118654813 0.5 forward I I I I #
loop $-1 $-1 $190 $48 #
coedge $-1 $120 $120 $191 $192 reversed $75 $-1 #
face $-1 $-1 $193 $39 $-1 $194 forward single #
loop $-1 $195 $196 $77 #
cone-surface $-1 74.43567083426953 -32.380262439133723 6.6060953749371958 -0.86602541151947299 0 -0.49999998660252726 0.24999999330126363 0 -0.43301270575973649 1 I I -0.70710678118654691 0.70710678118654813 0.5 forward I I I I #
loop $-1 $-1 $197 $49 #
coedge $-1 $125 $125 $198 $199 reversed $78 $-1 #
face $-1 $200 $201 $30 $-1 $202 reversed single #
loop $-1 $-1 $203 $80 #
plane-surface $-1 0 0 -10.577105251130577 0 0 1 1 0 0 forward_v I I I I #
coedge $-1 $204 $205 $206 $207 forward $81 $-1 #
coedge $-1 $208 $83 $209 $210 reversed $51 $-1 #
coedge $-1 $83 $208 $211 $212 forward $51 $-1 #
coedge $-1 $213 $203 $83 $133 forward $127 $-1 #
edge $-1 $214 -77.714774010437338 $215 77.714774010437338 $83 $216 forward 7 unknown #
face $-1 $217 $218 $31 $-1 $219 reversed single #
loop $-1 $-1 $220 $84 #
plane-surface $-1 -69.358608988091845 -59.071462846025838 0 0 1 0 0 0 1 forward_v I I I I #
coedge $-1 $221 $222 $139 $223 forward $85 $-1 #
coedge $-1 $224 $87 $225 $226 reversed $54 $-1 #
coedge $-1 $87 $224 $137 $223 reversed $54 $-1 #
coedge $-1 $227 $228 $87 $141 reversed $218 $-1 #
edge $-1 $229 -10.577105251130577 $230 10.577105251130577 $140 $231 forward 7 unknown #
face $-1 $232 $233 $32 $-1 $234 reversed single #
loop $-1 $-1 $235 $88 #
plane-surface $-1 -200.19493056209905 42.141546870986843 100.66946635630858 0 -1 0 0.78801076186113728 0 -0.61566146476048833 forward_v I I I I #
coedge $-1 $236 $237 $238 $239 reversed $89 $-1 #
coedge $-1 $147 $91 $240 $241 reversed $57 $-1 #
coedge $-1 $91 $146 $236 $242 reversed $57 $-1 #
coedge $-1 $238 $243 $91 $149 forward $244 $-1 #
edge $-1 $245 22.382691270612185 $246 26.757595407506642 $148 $247 forward 7 unknown #
loop $-1 $-1 $155 $92 #
plane-surface $-1 -77.714774010437367 37.175610389049531 4.9774831547162108 -0.78801076186113728 0 0.61566146476048833 0.61566146476048833 0 0.78801076186113728 forward_v I I I I #
loop $-1 $-1 $248 $59 #
coedge $-1 $153 $153 $154 $249 reversed $93 $-1 #
coedge $-1 $154 $154 $153 $249 forward $95 $-1 #
coedge $-1 $155 $155 $96 $156 forward $150 $-1 #
edge $-1 $250 0 $250 6.2831853071796004 $155 $251 forward 7 unknown #
loop $-1 $-1 $162 $97 #
plane-surface $-1 -77.714774010437367 37.175610389049531 4.9774831547162108 -0.78801076186113728 0 0.61566146476048833 0.61566146476048833 0 0.78801076186113728 forward_v I I I I #
loop $-1 $-1 $252 $62 #
coedge $-1 $160 $160 $161 $253 reversed $98 $-1 #
coedge $-1 $161 $161 $160 $253 forward $100 $-1 #
coedge $-1 $162 $162 $101 $163 forward $157 $-1 #
edge $-1 $254 0 $254 6.2831853071796004 $162 $255 forward 7 unknown #
loop $-1 $-1 $169 $102 #
plane-surface $-1 -77.714774010437367 37.175610389049531 4.9774831547162108 -0.78801076186113728 0 0.61566146476048833 0.61566146476048833 0 0.78801076186113728 forward_v I I I I #
loop $-1 $-1 $256 $65 #
coedge $-1 $167 $167 $168 $257 reversed $103 $-1 #
coedge $-1 $168 $168 $167 $257 forward $105 $-1 #
coedge $-1 $169 $169 $106 $170 forward $164 $-1 #
edge $-1 $258 0 $258 6.2831853071796004 $169 $259 forward 7 unknown #
face $-1 $260 $261 $36 $-1 $262 forward single #
loop $-1 $-1 $263 $107 #
plane-surface $-1 134.60594036942683 -43.012455730665394 216.66435916185978 0 1 0 0.86602541151947299 0 0.49999998660252726 forward_v I I I I #
coedge $-1 $264 $265 $266 $267 reversed $108 $-1 #
coedge $-1 $176 $110 $268 $269 reversed $69 $-1 #
coedge $-1 $110 $175 $264 $270 reversed $69 $-1 #
coedge $-1 $266 $271 $110 $178 forward $261 $-1 #
edge $-1 $272 -10.411803825723922 $273 -6.8129162789678048 $177 $274 forward 7 unknown #
loop $-1 $-1 $184 $111 #
plane-surface $-1 2.0823631530220155e-006 -36.367334923458102 138.94958723378556 0.86602541151947299 0 0.49999998660252726 0.49999998660252726 0 -0.86602541151947299 forward_v I I I I #
loop $-1 $-1 $275 $71 #
coedge $-1 $182 $182 $183 $276 reversed $112 $-1 #
coedge $-1 $183 $183 $182 $276 forward $114 $-1 #
coedge $-1 $184 $184 $115 $185 forward $179 $-1 #
edge $-1 $277 0 $277 6.2831853071796004 $184 $278 forward 7 unknown #
loop $-1 $-1 $191 $116 #
plane-surface $-1 2.0823631530220155e-006 -36.367334923458102 138.94958723378556 0.86602541151947299 0 0.49999998660252726 0.49999998660252726 0 -0.86602541151947299 forward_v I I I I #
loop $-1 $-1 $279 $74 #
coedge $-1 $189 $189 $190 $280 reversed $117 $-1 #
coedge $-1 $190 $190 $189 $280 forward $119 $-1 #
coedge $-1 $191 $191 $120 $192 forward $186 $-1 #
edge $-1 $281 0 $281 6.2831853071796004 $191 $282 forward 7 unknown #
loop $-1 $-1 $198 $121 #
plane-surface $-1 2.0823631530220155e-006 -36.367334923458102 138.94958723378556 0.86602541151947299 0 0.49999998660252726 0.49999998660252726 0 -0.86602541151947299 forward_v I I I I #
loop $-1 $-1 $283 $77 #
coedge $-1 $196 $196 $197 $284 reversed $122 $-1 #
coedge $-1 $197 $197 $196 $284 forward $124 $-1 #
coedge $-1 $198 $198 $125 $199 forward $193 $-1 #
edge $-1 $285 0 $285 6.2831853071796004 $198 $286 forward 7 unknown #
face $-1 $287 $288 $30 $-1 $289 reversed single #
loop $-1 $-1 $290 $126 #
plane-surface $-1 -77.714774010437338 0 0 1 0 0 0 0 -1 forward_v I I I I #
coedge $-1 $132 $291 $292 $293 forward $127 $-1 #
coedge $-1 $294 $129 $295 $296 forward $81 $-1 #
coedge $-1 $129 $294 $208 $297 forward $81 $-1 #
coedge $-1 $209 $298 $129 $207 reversed $299 $-1 #
edge $-1 $300 -51.041959288345616 $301 51.041959288345616 $206 $302 forward 7 unknown #
coedge $-1 $131 $130 $205 $297 reversed $51 $-1 #
coedge $-1 $292 $206 $130 $210 forward $299 $-1 #
edge $-1 $300 -10.577105251130577 $214 10.577105251130577 $209 $303 forward 7 unknown #
coedge $-1 $304 $305 $131 $212 reversed $201 $-1 #
edge $-1 $306 -10.577105251130577 $215 10.577105251130577 $211 $307 forward 7 unknown #
coedge $-1 $291 $132 $305 $308 forward $127 $-1 #
vertex $-1 $210 $309 #
vertex $-1 $308 $310 #
straight-curve $-1 0 -51.041959288345616 -10.577105251130577 -1 0 0 I I #
face $-1 $311 $312 $31 $-1 $313 reversed single #
loop $-1 $-1 $140 $134 #
plane-surface $-1 -72.512114476231432 -55.056711067185731 0 1 0 0 0 0 -1 forward_v I I I I #
coedge $-1 $314 $315 $316 $317 forward $135 $-1 #
coedge $-1 $318 $137 $319 $320 forward $85 $-1 #
coedge $-1 $137 $318 $227 $321 forward $85 $-1 #
edge $-1 $229 -72.512114476231432 $322 -66.205103499952259 $137 $323 forward 7 unknown #
coedge $-1 $139 $138 $324 $325 forward $54 $-1 #
coedge $-1 $326 $327 $138 $226 forward $328 $-1 #
edge $-1 $329 66.205103499952259 $230 72.512114476231432 $225 $330 forward 7 unknown #
coedge $-1 $316 $140 $222 $321 reversed $218 $-1 #
coedge $-1 $140 $316 $326 $331 reversed $218 $-1 #
vertex $-1 $223 $332 #
vertex $-1 $331 $333 #
straight-curve $-1 -72.512114476231432 -51.041959288345616 0 0 0 1 I I #
face $-1 $-1 $244 $32 $-1 $334 forward single #
loop $-1 $-1 $335 $142 #
plane-surface $-1 -77.714774010437338 0 0 1 0 0 0 0 -1 forward_v I I I I #
coedge $-1 $336 $337 $338 $339 reversed $143 $-1 #
coedge $-1 $340 $145 $147 $242 forward $89 $-1 #
coedge $-1 $145 $340 $336 $341 forward $89 $-1 #
coedge $-1 $338 $148 $145 $239 forward $244 $-1 #
edge $-1 $246 13.621868712587453 $342 23.553741676462078 $238 $343 forward 7 unknown #
coedge $-1 $344 $345 $146 $241 forward $233 $-1 #
edge $-1 $346 -45.357250023438041 $245 -39.757627927023712 $240 $347 forward 7 unknown #
edge $-1 $246 -7.1060223634371233 $346 -4.6193811539156697e-014 $147 $348 forward 7 unknown #
coedge $-1 $148 $338 $344 $349 forward $244 $-1 #
loop $-1 $-1 $338 $232 #
vertex $-1 $241 $350 #
vertex $-1 $149 $351 #
straight-curve $-1 -100.09746528104952 32.209673907112219 10.577105251130575 1 0 0 I I #
coedge $-1 $248 $248 $-1 $352 reversed $152 $-1 #
edge $-1 $353 0 $353 6.2831853071796004 $153 $354 forward 7 unknown #
vertex $-1 $156 $355 #
ellipse-curve $-1 -75.52732194199011 34.196048499887134 7.7772942029234073 -0.78801076186113728 0 0.61566146476048833 0.30783073238024417 0 0.39400538093056864 1 I I #
coedge $-1 $252 $252 $-1 $356 reversed $159 $-1 #
edge $-1 $357 0 $357 6.2831853071796004 $160 $358 forward 7 unknown #
vertex $-1 $163 $359 #
ellipse-curve $-1 -75.52732194199011 37.175610389049517 7.7772942029234073 -0.78801076186113728 0 0.61566146476048833 0.30783073238024417 0 0.39400538093056864 1 I I #
coedge $-1 $256 $256 $-1 $360 reversed $166 $-1 #
edge $-1 $361 0 $361 6.2831853071796004 $167 $362 forward 7 unknown #
vertex $-1 $170 $363 #
ellipse-curve $-1 -75.52732194199011 40.1551722782119 7.7772942029234073 -0.78801076186113728 0 0.61566146476048833 0.30783073238024417 0 0.39400538093056864 1 I I #
face $-1 $-1 $364 $36 $-1 $365 reversed single #
loop $-1 $-1 $177 $171 #
plane-surface $-1 0 0 10.577105251130577 0 0 1 1 0 0 forward_v I I I I #
coedge $-1 $366 $367 $368 $369 reversed $172 $-1 #
coedge $-1 $370 $174 $176 $270 forward $108 $-1 #
coedge $-1 $174 $370 $366 $371 forward $108 $-1 #
coedge $-1 $368 $177 $174 $267 forward $261 $-1 #
edge $-1 $273 11.538546654521756 $372 24.828788268936343 $266 $373 forward 7 unknown #
coedge $-1 $374 $375 $175 $269 forward $364 $-1 #
edge $-1 $376 -103.98853063420798 $272 -97.755074329799314 $268 $377 forward 7 unknown #
edge $-1 $273 148.23177273449841 $376 155.42954802087465 $176 $378 forward 7 unknown #
coedge $-1 $177 $368 $374 $379 forward $261 $-1 #
vertex $-1 $178 $380 #
vertex $-1 $178 $381 #
straight-curve $-1 67.302970184713416 -29.722214116250807 10.577105251130575 -1 0 0 I I #
coedge $-1 $275 $275 $-1 $382 reversed $181 $-1 #
edge $-1 $383 0 $383 6.2831853071796004 $182 $384 forward 7 unknown #
vertex $-1 $185 $385 #
ellipse-curve $-1 75.91533023705928 -40.354407407782475 7.4603770989262443 0.86602541151947299 0 0.49999998660252726 0.49999998660252726 0 -0.86602541151947299 1 I I #
coedge $-1 $279 $279 $-1 $386 reversed $188 $-1 #
edge $-1 $387 0 $387 6.2831853071796004 $189 $388 forward 7 unknown #
vertex $-1 $192 $389 #
ellipse-curve $-1 75.91533023705928 -36.367334923458102 7.4603770989262443 0.86602541151947299 0 0.49999998660252726 0.49999998660252726 0 -0.86602541151947299 1 I I #
coedge $-1 $283 $283 $-1 $390 reversed $195 $-1 #
edge $-1 $391 0 $391 6.2831853071796004 $196 $392 forward 7 unknown #
vertex $-1 $199 $393 #
ellipse-curve $-1 75.91533023705928 -32.380262439133723 7.4603770989262443 0.86602541151947299 0 0.49999998660252726 0.49999998660252726 0 -0.86602541151947299 1 I I #
face $-1 $-1 $299 $30 $-1 $394 reversed single #
loop $-1 $-1 $395 $200 #
plane-surface $-1 0 51.041959288345616 0 0 -1 0 0 0 -1 forward_v I I I I #
coedge $-1 $305 $304 $396 $397 forward $201 $-1 #
coedge $-1 $203 $213 $398 $399 forward $127 $-1 #
coedge $-1 $298 $209 $203 $293 reversed $299 $-1 #
edge $-1 $400 -51.041959288345616 $214 51.041959288345616 $292 $401 forward 7 unknown #
coedge $-1 $205 $204 $304 $402 forward $81 $-1 #
coedge $-1 $395 $396 $204 $296 reversed $288 $-1 #
edge $-1 $301 -77.714774010437338 $403 77.714774010437338 $295 $404 forward 7 unknown #
edge $-1 $306 -77.714774010437338 $300 77.714774010437338 $208 $405 forward 7 unknown #
coedge $-1 $206 $292 $395 $406 reversed $299 $-1 #
loop $-1 $-1 $209 $287 #
vertex $-1 $207 $407 #
vertex $-1 $207 $408 #
straight-curve $-1 77.714774010437338 0 10.577105251130577 0 1 0 I I #
straight-curve $-1 77.714774010437338 -51.041959288345616 0 0 0 -1 I I #
coedge $-1 $290 $211 $294 $402 reversed $201 $-1 #
coedge $-1 $211 $290 $213 $308 reversed $201 $-1 #
vertex $-1 $402 $409 #
straight-curve $-1 -77.714774010437338 -51.041959288345616 0 0 0 -1 I I #
edge $-1 $215 -51.041959288345616 $410 51.041959288345616 $305 $411 forward 7 unknown #
point $-1 77.714774010437338 -51.041959288345616 -10.577105251130577 #
point $-1 -77.714774010437338 -51.041959288345616 -10.577105251130577 #
face $-1 $-1 $328 $31 $-1 $412 forward single #
loop $-1 $-1 $413 $217 #
plane-surface $-1 -66.205103499952259 -55.056711067185731 0 -1 0 0 0 0 1 forward_v I I I I #
coedge $-1 $414 $220 $318 $415 reversed $135 $-1 #
coedge $-1 $220 $414 $416 $417 reversed $135 $-1 #
coedge $-1 $228 $227 $220 $317 reversed $218 $-1 #
edge $-1 $418 -10.577105251130577 $419 10.577105251130577 $316 $420 forward 7 unknown #
coedge $-1 $222 $221 $314 $415 forward $85 $-1 #
coedge $-1 $324 $413 $221 $320 reversed $312 $-1 #
edge $-1 $322 -4.0147517788401075 $421 4.0147517788401075 $319 $422 forward 7 unknown #
edge $-1 $419 -4.0147517788401075 $229 4.0147517788401075 $227 $423 forward 7 unknown #
vertex $-1 $320 $424 #
straight-curve $-1 0 -51.041959288345616 -10.577105251130577 1 0 0 I I #
coedge $-1 $425 $319 $224 $325 reversed $312 $-1 #
edge $-1 $329 -10.577105251130577 $322 10.577105251130577 $324 $426 forward 7 unknown #
coedge $-1 $416 $225 $228 $331 forward $328 $-1 #
coedge $-1 $225 $416 $425 $427 forward $328 $-1 #
loop $-1 $-1 $225 $311 #
vertex $-1 $226 $428 #
straight-curve $-1 0 -51.041959288345616 10.577105251130577 -1 0 0 I I #
edge $-1 $230 -4.0147517788401075 $418 4.0147517788401075 $228 $429 forward 7 unknown #
point $-1 -72.512114476231432 -51.041959288345623 -10.577105251130577 #
point $-1 -72.512114476231432 -51.041959288345623 10.577105251130577 #
plane-surface $-1 0 0 10.577105251130577 0 0 1 1 0 0 forward_v I I I I #
coedge $-1 $345 $344 $337 $430 forward $233 $-1 #
coedge $-1 $337 $235 $237 $341 reversed $143 $-1 #
coedge $-1 $235 $336 $335 $430 reversed $143 $-1 #
coedge $-1 $243 $238 $235 $339 forward $244 $-1 #
edge $-1 $342 -26.757595407506642 $431 -22.382691270612185 $338 $432 forward 7 unknown #
coedge $-1 $237 $236 $345 $433 reversed $89 $-1 #
edge $-1 $434 4.6193811539156697e-014 $342 7.1060223634371233 $336 $435 forward 7 unknown #
vertex $-1 $239 $436 #
straight-curve $-1 -73.339869873542881 18.587805194524766 10.577105251130575 0 1 0 I I #
coedge $-1 $335 $240 $243 $349 reversed $233 $-1 #
coedge $-1 $240 $335 $340 $433 forward $233 $-1 #
vertex $-1 $241 $437 #
straight-curve $-1 -77.714774010437338 32.209673907112219 50.334733178154288 0 0 1 I I #
straight-curve $-1 -77.714774010437367 32.209673907112219 4.9774831547162108 -0.61566146476048833 0 -0.78801076186113728 I I #
edge $-1 $431 -42.141546870986843 $245 -32.209673907112219 $344 $438 forward 7 unknown #
point $-1 -77.714774010437338 32.209673907112219 10.577105251130577 #
point $-1 -73.339869873542881 32.209673907112219 10.577105251130577 #
edge $-1 $439 1 $439 0 $248 $-1 forward 7 unknown #
vertex $-1 $249 $440 #
ellipse-curve $-1 -74.502032571104536 34.196048499887134 6.9762503765777888 -0.78801076186113728 0 0.61566146476048833 0.30783073238024417 0 0.39400538093056864 1 I I #
point $-1 -75.219491209609842 34.196048499887134 8.1712995838539584 #
edge $-1 $441 1 $441 0 $252 $-1 forward 7 unknown #
vertex $-1 $253 $442 #
ellipse-curve $-1 -74.502032571104536 37.175610389049517 6.9762503765777888 -0.78801076186113728 0 0.61566146476048833 0.30783073238024417 0 0.39400538093056864 1 I I #
point $-1 -75.219491209609842 37.175610389049517 8.1712995838539584 #
edge $-1 $443 1 $443 0 $256 $-1 forward 7 unknown #
vertex $-1 $257 $444 #
ellipse-curve $-1 -74.502032571104536 40.1551722782119 6.9762503765777888 -0.78801076186113728 0 0.61566146476048833 0.30783073238024417 0 0.39400538093056864 1 I I #
point $-1 -75.219491209609842 40.1551722782119 8.1712995838539584 #
loop $-1 $-1 $268 $260 #
plane-surface $-1 77.714774010437338 0 0 -1 0 0 0 0 1 forward_v I I I I #
coedge $-1 $367 $263 $265 $371 reversed $172 $-1 #
coedge $-1 $263 $366 $445 $446 reversed $172 $-1 #
coedge $-1 $271 $266 $263 $369 forward $261 $-1 #
edge $-1 $372 6.8129162789678048 $447 10.411803825723922 $368 $448 forward 7 unknown #
coedge $-1 $265 $264 $375 $449 reversed $108 $-1 #
edge $-1 $450 -155.42954802087465 $372 -148.23177273449841 $366 $451 forward 7 unknown #
vertex $-1 $267 $452 #
straight-curve $-1 74.115886463681221 -18.183667461729051 10.57710525113059 0 -1 0 I I #
coedge $-1 $445 $268 $271 $379 reversed $364 $-1 #
coedge $-1 $268 $445 $370 $449 forward $364 $-1 #
vertex $-1 $269 $453 #
straight-curve $-1 77.714774010437338 -29.722214116250807 108.33217958092989 0 0 1 I I #
straight-curve $-1 2.0823631530220155e-006 -29.722214116250807 138.94958723378556 0.49999998660252726 0 -0.86602541151947299 I I #
edge $-1 $447 -43.012455730665394 $272 -29.722214116250807 $374 $454 forward 7 unknown #
point $-1 77.714774010437338 -29.722214116250807 10.577105251130577 #
point $-1 74.115886463681221 -29.722214116250807 10.577105251130575 #
edge $-1 $455 1 $455 0 $275 $-1 forward 7 unknown #
vertex $-1 $276 $456 #
ellipse-curve $-1 74.868683540029267 -40.354407407782475 6.85609536823846 0.86602541151947299 0 0.49999998660252726 0.49999998660252726 0 -0.86602541151947299 1 I I #
point $-1 76.415330223661812 -40.354407407782475 6.5943516874067729 #
edge $-1 $457 1 $457 0 $279 $-1 forward 7 unknown #
vertex $-1 $280 $458 #
ellipse-curve $-1 74.868683540029267 -36.367334923458102 6.85609536823846 0.86602541151947299 0 0.49999998660252726 0.49999998660252726 0 -0.86602541151947299 1 I I #
point $-1 76.415330223661812 -36.367334923458102 6.5943516874067729 #
edge $-1 $459 1 $459 0 $283 $-1 forward 7 unknown #
vertex $-1 $284 $460 #
ellipse-curve $-1 74.868683540029267 -32.380262439133723 6.85609536823846 0.86602541151947299 0 0.49999998660252726 0.49999998660252726 0 -0.86602541151947299 1 I I #
point $-1 76.415330223661812 -32.380262439133723 6.5943516874067729 #
plane-surface $-1 77.714774010437338 0 0 -1 0 0 0 0 1 forward_v I I I I #
coedge $-1 $398 $295 $298 $406 forward $288 $-1 #
coedge $-1 $295 $398 $290 $397 reversed $288 $-1 #
edge $-1 $403 -10.577105251130577 $410 10.577105251130577 $396 $461 forward 7 unknown #
coedge $-1 $396 $395 $291 $399 reversed $288 $-1 #
edge $-1 $410 -77.714774010437338 $400 77.714774010437338 $398 $462 forward 7 unknown #
vertex $-1 $293 $463 #
straight-curve $-1 77.714774010437338 0 -10.577105251130577 0 -1 0 I I #
edge $-1 $403 -51.041959288345616 $306 51.041959288345616 $304 $464 forward 7 unknown #
vertex $-1 $296 $465 #
straight-curve $-1 0 51.041959288345616 10.577105251130577 -1 0 0 I I #
straight-curve $-1 0 -51.041959288345616 10.577105251130577 1 0 0 I I #
edge $-1 $301 -10.577105251130577 $400 10.577105251130577 $298 $466 forward 7 unknown #
point $-1 77.714774010437338 -51.041959288345616 10.577105251130577 #
point $-1 77.714774010437338 51.041959288345616 10.577105251130577 #
point $-1 -77.714774010437338 -51.041959288345616 10.577105251130577 #
vertex $-1 $399 $467 #
straight-curve $-1 -77.714774010437338 0 -10.577105251130577 0 1 0 I I #
plane-surface $-1 0 0 10.577105251130577 0 0 1 1 0 0 forward_v I I I I #
coedge $-1 $319 $425 $414 $468 forward $312 $-1 #
coedge $-1 $315 $314 $413 $468 reversed $135 $-1 #
edge $-1 $421 -3.1535054881395865 $419 3.1535054881395865 $314 $469 forward 7 unknown #
coedge $-1 $327 $326 $315 $417 forward $328 $-1 #
edge $-1 $418 -3.1535054881395865 $470 3.1535054881395865 $315 $471 forward 7 unknown #
vertex $-1 $331 $472 #
vertex $-1 $321 $473 #
straight-curve $-1 -72.512114476231432 -59.071462846025838 0 0 0 -1 I I #
vertex $-1 $468 $474 #
straight-curve $-1 -66.205103499952259 -55.056711067185731 -10.577105251130577 0 -1 0 I I #
straight-curve $-1 -72.512114476231432 -55.056711067185731 -10.577105251130577 0 1 0 I I #
point $-1 -66.205103499952259 -51.041959288345623 -10.577105251130577 #
coedge $-1 $413 $324 $327 $427 reversed $312 $-1 #
straight-curve $-1 -66.205103499952259 -51.041959288345616 0 0 0 -1 I I #
edge $-1 $470 -4.0147517788401075 $329 4.0147517788401075 $425 $475 forward 7 unknown #
point $-1 -66.205103499952259 -51.041959288345623 10.577105251130577 #
straight-curve $-1 -72.512114476231432 -55.056711067185731 10.577105251130577 0 -1 0 I I #
edge $-1 $431 39.757627927023712 $434 45.357250023438041 $335 $476 forward 7 unknown #
vertex $-1 $349 $477 #
straight-curve $-1 -100.09746528104952 42.141546870986843 10.577105251130575 -1 0 0 I I #
edge $-1 $434 -23.553741676462078 $346 -13.621868712587453 $345 $478 forward 7 unknown #
vertex $-1 $433 $479 #
straight-curve $-1 -77.714774010437367 42.141546870986843 4.9774831547162108 0.61566146476048833 0 0.78801076186113728 I I #
point $-1 -73.339869873542881 42.141546870986843 10.577105251130577 #
point $-1 -77.714774010437338 32.209673907112219 4.9774831547162472 #
straight-curve $-1 -77.714774010437338 0 10.577105251130577 0 -1 0 I I #
vertex $-1 $352 $480 #
point $-1 -74.194201838724297 34.196048499887134 7.3702557575083576 #
vertex $-1 $356 $481 #
point $-1 -74.194201838724297 37.175610389049517 7.3702557575083576 #
vertex $-1 $360 $482 #
point $-1 -74.194201838724297 40.1551722782119 7.3702557575083576 #
coedge $-1 $375 $374 $367 $446 forward $364 $-1 #
edge $-1 $447 97.755074329799314 $450 103.98853063420798 $445 $483 forward 7 unknown #
vertex $-1 $379 $484 #
straight-curve $-1 67.302970184713416 -43.012455730665394 10.577105251130575 1 0 0 I I #
edge $-1 $450 -24.828788268936343 $376 -11.538546654521756 $375 $485 forward 7 unknown #
vertex $-1 $449 $486 #
straight-curve $-1 2.0823631530220155e-006 -43.012455730665394 138.94958723378556 -0.49999998660252726 0 0.86602541151947299 I I #
point $-1 74.115886463681221 -43.012455730665394 10.577105251130575 #
point $-1 77.714774010437338 -29.722214116250807 4.3436489467219133 #
straight-curve $-1 77.714774010437338 0 10.577105251130577 0 1 0 I I #
vertex $-1 $382 $487 #
point $-1 75.368683526631798 -40.354407407782475 5.9900699567189868 #
vertex $-1 $386 $488 #
point $-1 75.368683526631798 -36.367334923458102 5.9900699567189868 #
vertex $-1 $390 $489 #
point $-1 75.368683526631798 -32.380262439133723 5.9900699567189868 #
straight-curve $-1 -77.714774010437338 51.041959288345616 0 0 0 -1 I I #
straight-curve $-1 0 51.041959288345616 -10.577105251130577 1 0 0 I I #
point $-1 77.714774010437338 51.041959288345616 -10.577105251130577 #
straight-curve $-1 -77.714774010437338 0 10.577105251130577 0 -1 0 I I #
point $-1 -77.714774010437338 51.041959288345616 10.577105251130577 #
straight-curve $-1 77.714774010437338 51.041959288345616 0 0 0 -1 I I #
point $-1 -77.714774010437338 51.041959288345616 -10.577105251130577 #
edge $-1 $470 -10.577105251130577 $421 10.577105251130577 $413 $490 forward 7 unknown #
straight-curve $-1 -69.358608988091845 -59.071462846025838 -10.577105251130577 -1 0 0 I I #
vertex $-1 $427 $491 #
straight-curve $-1 -69.358608988091845 -59.071462846025838 10.577105251130577 1 0 0 I I #
point $-1 -72.512114476231432 -59.071462846025838 10.577105251130577 #
point $-1 -72.512114476231432 -59.071462846025838 -10.577105251130577 #
point $-1 -66.205103499952259 -59.071462846025838 -10.577105251130577 #
straight-curve $-1 -66.205103499952259 -55.056711067185731 10.577105251130577 0 1 0 I I #
straight-curve $-1 -77.714774010437338 42.141546870986843 50.334733178154288 0 0 -1 I I #
point $-1 -77.714774010437338 42.141546870986843 10.577105251130577 #
straight-curve $-1 -77.714774010437338 18.587805194524766 4.977483154716241 0 -1 0 I I #
point $-1 -77.714774010437338 42.141546870986843 4.9774831547162472 #
point $-1 -74.108027190173971 34.196048499887134 6.6684196441975443 #
point $-1 -74.108027190173971 37.175610389049517 6.6684196441975443 #
point $-1 -74.108027190173971 40.1551722782119 6.6684196441975443 #
straight-curve $-1 77.714774010437338 -43.012455730665394 108.33217958092989 0 0 -1 I I #
point $-1 77.714774010437338 -43.012455730665394 10.577105251130577 #
straight-curve $-1 77.714774010437338 -18.183667461729051 4.3436489467219133 0 1 0 I I #
point $-1 77.714774010437338 -43.012455730665394 4.3436489467219133 #
point $-1 74.002658128509793 -40.354407407782475 6.3560953816359316 #
point $-1 74.002658128509793 -36.367334923458102 6.3560953816359316 #
point $-1 74.002658128509793 -32.380262439133723 6.3560953816359316 #
straight-curve $-1 -66.205103499952259 -59.071462846025838 0 0 0 -1 I I #
point $-1 -66.205103499952259 -59.071462846025838 10.577105251130577 #
End-of-ACIS-data 