500 0 4 0           
7 Unknown 11 ACIS 5.0 NT 24 Thu Mar 25 21:11:56 1999 
-1 9.9999999999999995e-007 1e-010 
body $-1 $4 $-1 $5 #
body $-1 $6 $-1 $7 #
body $-1 $8 $-1 $9 #
body $-1 $10 $-1 $11 #
lump $-1 $-1 $12 $0 #
transform $-1 1 0 0 0 1 0 0 0 1 48.587908566545607 32.661863631785948 12.729624185799301 1 rotate no_reflect no_shear #
lump $-1 $-1 $13 $1 #
transform $-1 1 0 0 0 1 0 0 0 1 48.587908566545607 32.661863631785948 12.729624185799301 1 rotate no_reflect no_shear #
lump $-1 $-1 $14 $2 #
transform $-1 1 0 0 0 1 0 0 0 1 48.587908566545607 32.661863631785948 12.729624185799301 1 rotate no_reflect no_shear #
lump $-1 $-1 $15 $3 #
transform $-1 1 0 0 0 1 0 0 0 1 48.587908566545607 32.661863631785948 12.729624185799301 1 rotate no_reflect no_shear #
shell $-1 $-1 $-1 $16 $-1 $4 #
shell $-1 $-1 $-1 $17 $-1 $6 #
shell $-1 $-1 $-1 $18 $-1 $8 #
shell $-1 $-1 $-1 $19 $-1 $10 #
face $-1 $20 $21 $12 $-1 $22 forward single #
face $-1 $23 $24 $13 $-1 $25 reversed single #
face $-1 $26 $27 $14 $-1 $28 forward single #
face $-1 $29 $30 $15 $-1 $31 reversed single #
face $-1 $32 $33 $12 $-1 $34 reversed single #
loop $-1 $-1 $35 $16 #
plane-surface $-1 0 0 12.729624185799301 0 0 1 1 0 0 forward_v I I I I #
face $-1 $36 $37 $13 $-1 $38 reversed single #
loop $-1 $-1 $39 $17 #
plane-surface $-1 -45.879789506613712 -42.544654819490532 0 0 1 0 0 0 1 forward_v I I I I #
face $-1 $40 $41 $14 $-1 $42 forward single #
loop $-1 $-1 $43 $18 #
plane-surface $-1 -129.15031289821718 1.8944213162732098 56.47052494684683 0 1 0 -0.82903758062907751 0 0.55919289150049634 forward_v I I I I #
face $-1 $44 $45 $15 $-1 $46 reversed single #
loop $-1 $47 $48 $19 #
cone-surface $-1 -42.562344548698611 10.018793242096152 5.7768654753544384 0.82903758062907751 0 -0.55919289150049634 0.83878933725074445 0 1.2435563709436162 1 I I 0 1 1.5 forward I I I I #
face $-1 $49 $50 $12 $-1 $51 reversed single #
loop $-1 $-1 $52 $20 #
plane-surface $-1 0 0 -12.729624185799301 0 0 1 1 0 0 forward_v I I I I #
coedge $-1 $53 $54 $55 $56 forward $21 $-1 #
face $-1 $57 $58 $13 $-1 $59 reversed single #
loop $-1 $-1 $60 $23 #
plane-surface $-1 -43.171670446681816 -37.60325922563824 0 -1 0 0 0 0 1 forward_v I I I I #
coedge $-1 $61 $62 $63 $64 forward $24 $-1 #
face $-1 $65 $66 $14 $-1 $67 forward single #
loop $-1 $-1 $68 $26 #
plane-surface $-1 -48.587908566545579 10.018793242096152 2.1304987802700808 -0.82903758062907751 0 0.55919289150049634 0.55919289150049634 0 0.82903758062907751 forward_v I I I I #
coedge $-1 $69 $70 $71 $72 reversed $27 $-1 #
face $-1 $73 $74 $15 $-1 $75 forward single #
loop $-1 $76 $77 $29 #
cone-surface $-1 -39.489602412602849 10.018793242096152 3.7042747990488092 0.82903758062907751 0 -0.55919289150049634 0.41939466862537222 0 0.62177818547180808 1 I I -0.70710678118654768 0.70710678118654735 0.75 forward I I I I #
loop $-1 $-1 $78 $19 #
coedge $-1 $48 $48 $79 $80 reversed $30 $-1 #
face $-1 $81 $82 $12 $-1 $83 reversed single #
loop $-1 $-1 $84 $32 #
plane-surface $-1 0 -32.661863631785948 0 0 1 0 0 0 1 forward_v I I I I #
coedge $-1 $85 $86 $87 $88 forward $33 $-1 #
coedge $-1 $89 $35 $90 $91 forward $21 $-1 #
coedge $-1 $35 $89 $92 $93 forward $21 $-1 #
coedge $-1 $94 $95 $35 $56 reversed $96 $-1 #
edge $-1 $97 -32.661863631785948 $98 32.661863631785948 $55 $99 forward 7 unknown #
face $-1 $100 $101 $13 $-1 $102 forward single #
loop $-1 $-1 $103 $36 #
plane-surface $-1 0 -32.661863631785948 0 0 1 0 0 0 1 forward_v I I I I #
coedge $-1 $104 $105 $106 $107 forward $37 $-1 #
coedge $-1 $106 $39 $108 $109 reversed $24 $-1 #
coedge $-1 $39 $106 $110 $111 reversed $24 $-1 #
coedge $-1 $112 $113 $39 $64 reversed $114 $-1 #
edge $-1 $115 -12.729624185799301 $116 12.729624185799301 $63 $117 forward 7 unknown #
face $-1 $118 $119 $14 $-1 $120 forward single #
loop $-1 $-1 $121 $40 #
plane-surface $-1 -129.15031289821718 18.143165167919094 56.47052494684683 0 -1 0 0.82903758062907751 0 -0.55919289150049634 forward_v I I I I #
coedge $-1 $122 $123 $124 $125 reversed $41 $-1 #
coedge $-1 $70 $43 $123 $126 forward $27 $-1 #
coedge $-1 $43 $69 $127 $128 reversed $27 $-1 #
coedge $-1 $129 $124 $43 $72 forward $119 $-1 #
edge $-1 $130 -23.136448017009094 $131 -15.987247882562983 $71 $132 forward 7 unknown #
face $-1 $133 $134 $15 $-1 $135 forward single #
loop $-1 $-1 $136 $44 #
plane-surface $-1 -129.15031289821718 1.8944213162732098 56.47052494684683 0 1 0 -0.82903758062907751 0 0.55919289150049634 forward_v I I I I #
loop $-1 $-1 $137 $29 #
coedge $-1 $77 $77 $78 $138 forward $45 $-1 #
coedge $-1 $78 $78 $77 $138 reversed $47 $-1 #
coedge $-1 $79 $79 $48 $80 forward $134 $-1 #
edge $-1 $139 0 $139 6.2831853071796004 $79 $140 forward 7 unknown #
face $-1 $141 $142 $12 $-1 $143 reversed single #
loop $-1 $-1 $144 $49 #
plane-surface $-1 -48.587908566545607 0 0 1 0 0 0 0 -1 forward_v I I I I #
coedge $-1 $145 $92 $146 $147 forward $50 $-1 #
coedge $-1 $148 $52 $145 $149 forward $33 $-1 #
coedge $-1 $52 $148 $150 $151 forward $33 $-1 #
coedge $-1 $95 $94 $52 $88 reversed $96 $-1 #
edge $-1 $152 -32.661863631785948 $153 32.661863631785948 $87 $154 forward 7 unknown #
coedge $-1 $54 $53 $155 $156 forward $21 $-1 #
coedge $-1 $157 $158 $53 $91 reversed $142 $-1 #
edge $-1 $98 -48.587908566545607 $159 48.587908566545607 $90 $160 forward 7 unknown #
coedge $-1 $84 $161 $54 $93 reversed $50 $-1 #
edge $-1 $162 -48.587908566545607 $97 48.587908566545607 $92 $163 forward 7 unknown #
coedge $-1 $87 $55 $161 $164 forward $96 $-1 #
coedge $-1 $55 $87 $157 $165 reversed $96 $-1 #
loop $-1 $-1 $94 $141 #
vertex $-1 $56 $166 #
vertex $-1 $56 $167 #
straight-curve $-1 48.587908566545607 0 12.729624185799301 0 1 0 I I #
face $-1 $168 $169 $13 $-1 $170 reversed single #
loop $-1 $-1 $171 $57 #
plane-surface $-1 0 0 12.729624185799301 0 0 1 1 0 0 forward_v I I I I #
coedge $-1 $172 $173 $174 $175 forward $58 $-1 #
coedge $-1 $174 $60 $176 $177 reversed $37 $-1 #
coedge $-1 $60 $174 $178 $179 reversed $37 $-1 #
coedge $-1 $62 $61 $60 $107 reversed $24 $-1 #
edge $-1 $180 -12.729624185799301 $181 12.729624185799301 $60 $182 forward 7 unknown #
coedge $-1 $183 $176 $61 $109 forward $169 $-1 #
edge $-1 $181 -2.7081190599318958 $116 2.7081190599318958 $61 $184 forward 7 unknown #
coedge $-1 $178 $185 $62 $111 forward $101 $-1 #
edge $-1 $115 -2.7081190599318958 $180 2.7081190599318958 $62 $186 forward 7 unknown #
coedge $-1 $187 $63 $185 $188 reversed $114 $-1 #
coedge $-1 $63 $187 $183 $189 reversed $114 $-1 #
loop $-1 $-1 $187 $168 #
vertex $-1 $188 $190 #
vertex $-1 $189 $191 #
straight-curve $-1 -48.587908566545607 -42.544654819490532 0 0 0 -1 I I #
face $-1 $192 $193 $14 $-1 $194 reversed single #
loop $-1 $-1 $195 $65 #
plane-surface $-1 0 0 12.729624185799301 0 0 1 1 0 0 forward_v I I I I #
coedge $-1 $196 $197 $195 $198 reversed $66 $-1 #
coedge $-1 $199 $68 $197 $200 reversed $41 $-1 #
coedge $-1 $68 $199 $69 $126 reversed $41 $-1 #
coedge $-1 $71 $195 $68 $125 forward $119 $-1 #
edge $-1 $201 -13.133768546871018 $130 3.1149753047748661 $124 $202 forward 7 unknown #
edge $-1 $130 -12.784855178080777 $203 5.0869049068944123e-014 $69 $204 forward 7 unknown #
coedge $-1 $205 $206 $70 $128 forward $207 $-1 #
edge $-1 $131 15.505638287624114 $203 26.104763693153377 $127 $208 forward 7 unknown #
coedge $-1 $209 $71 $206 $210 forward $119 $-1 #
vertex $-1 $125 $211 #
vertex $-1 $210 $212 #
straight-curve $-1 -64.57515644910859 1.8944213162732098 12.729624185799302 -1 0 0 I I #
face $-1 $213 $214 $15 $-1 $215 forward single #
loop $-1 $216 $79 $73 #
plane-surface $-1 -48.587908566545579 10.018793242096152 2.1304987802700808 -0.82903758062907751 0 0.55919289150049634 0.55919289150049634 0 0.82903758062907751 forward_v I I I I #
coedge $-1 $217 $218 $219 $220 reversed $74 $-1 #
coedge $-1 $137 $137 $-1 $221 forward $76 $-1 #
edge $-1 $222 0 $222 6.2831853071796004 $77 $223 forward 7 unknown #
vertex $-1 $80 $224 #
ellipse-curve $-1 -45.013308499322548 10.018793242096152 7.4300614830346801 0.82903758062907751 0 -0.55919289150049634 0.83878933725074445 0 1.2435563709436162 1 I I #
face $-1 $-1 $96 $12 $-1 $225 reversed single #
loop $-1 $-1 $157 $81 #
plane-surface $-1 0 32.661863631785948 0 0 -1 0 0 0 -1 forward_v I I I I #
coedge $-1 $226 $155 $158 $227 forward $82 $-1 #
coedge $-1 $161 $84 $85 $149 reversed $50 $-1 #
coedge $-1 $155 $226 $84 $147 reversed $82 $-1 #
edge $-1 $162 -12.729624185799301 $228 12.729624185799301 $146 $229 forward 7 unknown #
coedge $-1 $86 $85 $226 $230 forward $33 $-1 #
edge $-1 $153 -48.587908566545607 $228 48.587908566545607 $145 $231 forward 7 unknown #
coedge $-1 $158 $157 $86 $151 reversed $142 $-1 #
edge $-1 $232 -48.587908566545607 $152 48.587908566545607 $150 $233 forward 7 unknown #
vertex $-1 $88 $234 #
vertex $-1 $164 $235 #
straight-curve $-1 48.587908566545607 0 -12.729624185799301 0 -1 0 I I #
coedge $-1 $144 $146 $89 $156 reversed $82 $-1 #
edge $-1 $159 -32.661863631785948 $162 32.661863631785948 $155 $236 forward 7 unknown #
coedge $-1 $150 $90 $95 $165 forward $142 $-1 #
coedge $-1 $90 $150 $144 $227 reversed $142 $-1 #
vertex $-1 $91 $237 #
straight-curve $-1 0 32.661863631785948 12.729624185799301 -1 0 0 I I #
coedge $-1 $92 $145 $94 $164 reversed $50 $-1 #
vertex $-1 $156 $238 #
straight-curve $-1 0 -32.661863631785948 12.729624185799301 1 0 0 I I #
edge $-1 $97 -12.729624185799301 $153 12.729624185799301 $94 $239 forward 7 unknown #
edge $-1 $98 -12.729624185799301 $152 12.729624185799301 $95 $240 forward 7 unknown #
point $-1 48.587908566545607 -32.661863631785948 12.729624185799301 #
point $-1 48.587908566545607 32.661863631785948 12.729624185799301 #
face $-1 $241 $114 $13 $-1 $242 reversed single #
loop $-1 $-1 $243 $100 #
plane-surface $-1 0 0 -12.729624185799301 0 0 1 1 0 0 forward_v I I I I #
coedge $-1 $244 $245 $246 $247 forward $101 $-1 #
coedge $-1 $248 $103 $249 $250 reversed $58 $-1 #
coedge $-1 $103 $248 $245 $251 reversed $58 $-1 #
coedge $-1 $105 $104 $103 $175 reversed $37 $-1 #
edge $-1 $252 -12.729624185799301 $253 12.729624185799301 $103 $254 forward 7 unknown #
coedge $-1 $108 $249 $104 $177 forward $169 $-1 #
edge $-1 $253 -4.9413955938522918 $181 4.9413955938522918 $104 $255 forward 7 unknown #
coedge $-1 $245 $110 $105 $179 forward $101 $-1 #
edge $-1 $180 -4.9413955938522918 $252 4.9413955938522918 $105 $256 forward 7 unknown #
vertex $-1 $179 $257 #
vertex $-1 $107 $258 #
straight-curve $-1 -43.171670446681816 -42.544654819490532 0 0 0 -1 I I #
coedge $-1 $259 $108 $113 $189 forward $169 $-1 #
straight-curve $-1 -45.879789506613712 -42.544654819490532 -12.729624185799301 -1 0 0 I I #
coedge $-1 $110 $244 $112 $188 forward $101 $-1 #
straight-curve $-1 -45.879789506613712 -42.544654819490532 12.729624185799301 1 0 0 I I #
coedge $-1 $113 $112 $260 $261 forward $114 $-1 #
edge $-1 $262 -32.661863631785948 $115 42.544654819490532 $112 $263 forward 7 unknown #
edge $-1 $116 -42.544654819490532 $264 32.661863631785948 $113 $265 forward 7 unknown #
point $-1 -48.587908566545607 -42.544654819490532 12.729624185799301 #
point $-1 -48.587908566545607 -42.544654819490532 -12.729624185799301 #
face $-1 $266 $267 $14 $-1 $268 reversed single #
loop $-1 $-1 $269 $118 #
plane-surface $-1 -45.879789506613712 -42.544654819490532 0 0 1 0 0 0 1 forward_v I I I I #
coedge $-1 $124 $270 $121 $198 forward $119 $-1 #
coedge $-1 $197 $121 $271 $272 reversed $66 $-1 #
coedge $-1 $121 $196 $122 $200 forward $66 $-1 #
edge $-1 $273 15.987247882562983 $201 23.136448017009094 $195 $274 forward 7 unknown #
coedge $-1 $123 $122 $205 $275 reversed $41 $-1 #
edge $-1 $276 -5.0869049068944123e-014 $201 12.784855178080777 $197 $277 forward 7 unknown #
vertex $-1 $125 $278 #
straight-curve $-1 -41.438708432099503 5.0093966210480758 12.729624185799301 0 -1 0 I I #
vertex $-1 $275 $279 #
straight-curve $-1 -48.587908566545579 1.8944213162732098 2.1304987802700808 -0.55919289150049634 0 -0.82903758062907751 I I #
coedge $-1 $271 $127 $199 $275 forward $207 $-1 #
coedge $-1 $127 $280 $129 $210 reversed $207 $-1 #
loop $-1 $-1 $271 $281 #
straight-curve $-1 -48.587908566545607 1.8944213162732098 28.235262473423415 0 0 -1 I I #
coedge $-1 $282 $129 $283 $284 forward $119 $-1 #
edge $-1 $131 -1.8944213162732098 $285 42.544654819490532 $206 $286 forward 7 unknown #
point $-1 -41.438708432099496 1.8944213162732098 12.729624185799301 #
point $-1 -48.587908566545607 1.8944213162732098 12.729624185799301 #
face $-1 $287 $288 $15 $-1 $289 forward single #
loop $-1 $-1 $290 $133 #
plane-surface $-1 -129.15031289821718 18.143165167919094 56.47052494684683 0 -1 0 0.82903758062907751 0 -0.55919289150049634 forward_v I I I I #
loop $-1 $-1 $291 $73 #
coedge $-1 $218 $136 $292 $293 forward $74 $-1 #
coedge $-1 $136 $217 $294 $295 reversed $74 $-1 #
coedge $-1 $296 $297 $136 $220 forward $288 $-1 #
edge $-1 $298 -23.136448017009094 $299 -15.987247882562983 $219 $300 forward 7 unknown #
edge $-1 $301 1 $301 0 $137 $-1 forward 7 unknown #
vertex $-1 $138 $302 #
ellipse-curve $-1 -40.11138059807466 10.018793242096152 4.1236694676741816 -0.82903758062907751 0 0.55919289150049634 0.83878933725074445 0 1.2435563709436162 1 I I #
point $-1 -44.174519162071824 10.018793242096152 8.6736178539783104 #
plane-surface $-1 48.587908566545607 0 0 -1 0 0 0 0 1 forward_v I I I I #
coedge $-1 $146 $144 $148 $230 reversed $82 $-1 #
edge $-1 $159 -12.729624185799301 $232 12.729624185799301 $158 $303 forward 7 unknown #
vertex $-1 $230 $304 #
straight-curve $-1 -48.587908566545607 -32.661863631785948 0 0 0 -1 I I #
edge $-1 $228 -32.661863631785948 $232 32.661863631785948 $226 $305 forward 7 unknown #
straight-curve $-1 0 -32.661863631785948 -12.729624185799301 -1 0 0 I I #
vertex $-1 $151 $306 #
straight-curve $-1 0 32.661863631785948 -12.729624185799301 1 0 0 I I #
point $-1 48.587908566545607 32.661863631785948 -12.729624185799301 #
point $-1 48.587908566545607 -32.661863631785948 -12.729624185799301 #
straight-curve $-1 -48.587908566545607 0 12.729624185799301 0 -1 0 I I #
point $-1 -48.587908566545607 32.661863631785948 12.729624185799301 #
point $-1 -48.587908566545607 -32.661863631785948 12.729624185799301 #
straight-curve $-1 48.587908566545607 -32.661863631785948 0 0 0 -1 I I #
straight-curve $-1 48.587908566545607 32.661863631785948 0 0 0 -1 I I #
face $-1 $307 $308 $13 $-1 $309 reversed single #
plane-surface $-1 -48.587908566545607 0 0 1 0 0 0 0 -1 forward_v I I I I #
coedge $-1 $249 $259 $310 $311 forward $169 $-1 #
coedge $-1 $185 $171 $312 $313 forward $101 $-1 #
coedge $-1 $171 $178 $173 $251 forward $101 $-1 #
coedge $-1 $314 $315 $171 $247 reversed $316 $-1 #
edge $-1 $317 -32.661863631785948 $318 32.661863631785948 $246 $319 forward 7 unknown #
coedge $-1 $173 $172 $314 $320 reversed $58 $-1 #
coedge $-1 $176 $243 $172 $250 forward $169 $-1 #
edge $-1 $321 -48.587908566545607 $253 43.171670446681816 $172 $322 forward 7 unknown #
edge $-1 $252 -43.171670446681816 $317 48.587908566545607 $173 $323 forward 7 unknown #
vertex $-1 $251 $324 #
vertex $-1 $177 $325 #
straight-curve $-1 -43.171670446681816 -32.661863631785948 0 0 0 -1 I I #
straight-curve $-1 -43.171670446681816 -37.60325922563824 -12.729624185799301 0 -1 0 I I #
straight-curve $-1 -43.171670446681816 -37.60325922563824 12.729624185799301 0 1 0 I I #
point $-1 -43.171670446681816 -42.544654819490532 12.729624185799301 #
point $-1 -43.171670446681816 -42.544654819490532 -12.729624185799301 #
coedge $-1 $243 $183 $326 $327 forward $169 $-1 #
coedge $-1 $312 $326 $187 $261 reversed $308 $-1 #
edge $-1 $262 -12.729624185799301 $264 12.729624185799301 $260 $328 forward 7 unknown #
vertex $-1 $313 $329 #
straight-curve $-1 -48.587908566545607 0 12.729624185799301 0 -1 0 I I #
vertex $-1 $327 $330 #
straight-curve $-1 -48.587908566545607 0 -12.729624185799301 0 1 0 I I #
face $-1 $331 $332 $14 $-1 $333 reversed single #
loop $-1 $-1 $334 $192 #
plane-surface $-1 -43.171670446681816 -37.60325922563824 0 -1 0 0 0 0 1 forward_v I I I I #
coedge $-1 $335 $283 $280 $336 forward $193 $-1 #
coedge $-1 $195 $337 $338 $339 forward $119 $-1 #
coedge $-1 $338 $205 $196 $272 forward $207 $-1 #
edge $-1 $276 -26.104763693153377 $273 -15.505638287624114 $271 $340 forward 7 unknown #
vertex $-1 $272 $341 #
straight-curve $-1 -64.57515644910859 18.143165167919094 12.729624185799302 1 0 0 I I #
edge $-1 $203 -3.1149753047748661 $276 13.133768546871018 $205 $342 forward 7 unknown #
vertex $-1 $275 $343 #
straight-curve $-1 -48.587908566545579 18.143165167919094 2.1304987802700808 0.55919289150049634 0 0.82903758062907751 I I #
point $-1 -41.438708432099496 18.143165167919094 12.729624185799301 #
point $-1 -48.587908566545607 1.8944213162732098 2.1304987802700386 #
coedge $-1 $206 $344 $269 $336 reversed $207 $-1 #
face $-1 $345 $207 $14 $-1 $346 reversed single #
coedge $-1 $347 $209 $348 $349 forward $119 $-1 #
coedge $-1 $269 $350 $209 $284 reversed $193 $-1 #
edge $-1 $285 -2.7081190599318958 $351 2.7081190599318958 $283 $352 forward 7 unknown #
vertex $-1 $210 $353 #
straight-curve $-1 -48.587908566545607 0 12.729624185799301 0 -1 0 I I #
face $-1 $354 $355 $15 $-1 $356 reversed single #
loop $-1 $-1 $357 $213 #
plane-surface $-1 0 0 12.729624185799301 0 0 1 1 0 0 forward_v I I I I #
coedge $-1 $358 $359 $357 $360 reversed $214 $-1 #
coedge $-1 $361 $292 $297 $362 reversed $216 $-1 #
coedge $-1 $291 $363 $217 $293 reversed $216 $-1 #
edge $-1 $298 -12.784855178080777 $364 5.0869049068944123e-014 $217 $365 forward 7 unknown #
coedge $-1 $366 $367 $218 $295 forward $368 $-1 #
edge $-1 $299 15.505638287624114 $364 26.104763693153377 $294 $369 forward 7 unknown #
coedge $-1 $370 $219 $367 $371 forward $288 $-1 #
coedge $-1 $219 $357 $291 $362 forward $288 $-1 #
vertex $-1 $362 $372 #
vertex $-1 $371 $373 #
straight-curve $-1 -64.57515644910859 1.8944213162732098 12.729624185799302 -1 0 0 I I #
vertex $-1 $221 $374 #
point $-1 -39.272591260823916 10.018793242096152 5.3672258386177969 #
straight-curve $-1 -48.587908566545607 32.661863631785948 0 0 0 -1 I I #
point $-1 -48.587908566545607 -32.661863631785948 -12.729624185799301 #
straight-curve $-1 -48.587908566545607 0 -12.729624185799301 0 1 0 I I #
point $-1 -48.587908566545607 32.661863631785948 -12.729624185799301 #
face $-1 $-1 $316 $13 $-1 $375 reversed single #
loop $-1 $-1 $376 $241 #
plane-surface $-1 0 32.661863631785948 0 0 -1 0 0 0 -1 forward_v I I I I #
coedge $-1 $315 $314 $243 $311 reversed $316 $-1 #
edge $-1 $377 -32.661863631785948 $321 32.661863631785948 $310 $378 forward 7 unknown #
coedge $-1 $376 $260 $244 $313 reversed $308 $-1 #
edge $-1 $318 -48.587908566545607 $262 48.587908566545607 $312 $379 forward 7 unknown #
coedge $-1 $310 $246 $248 $320 forward $316 $-1 #
coedge $-1 $246 $310 $376 $380 reversed $316 $-1 #
loop $-1 $-1 $314 $307 #
vertex $-1 $247 $381 #
vertex $-1 $247 $382 #
straight-curve $-1 48.587908566545607 0 12.729624185799301 0 1 0 I I #
edge $-1 $317 -12.729624185799301 $321 12.729624185799301 $314 $383 forward 7 unknown #
vertex $-1 $320 $384 #
straight-curve $-1 0 -32.661863631785948 -12.729624185799301 -1 0 0 I I #
straight-curve $-1 0 -32.661863631785948 12.729624185799301 1 0 0 I I #
point $-1 -43.171670446681816 -32.661863631785948 12.729624185799301 #
point $-1 -43.171670446681816 -32.661863631785948 -12.729624185799301 #
coedge $-1 $260 $376 $259 $327 reversed $308 $-1 #
edge $-1 $264 -48.587908566545607 $377 48.587908566545607 $326 $385 forward 7 unknown #
straight-curve $-1 -48.587908566545607 32.661863631785948 0 0 0 -1 I I #
point $-1 -48.587908566545607 32.661863631785948 12.729624185799301 #
point $-1 -48.587908566545607 32.661863631785948 -12.729624185799301 #
face $-1 $281 $386 $14 $-1 $387 reversed single #
loop $-1 $-1 $388 $266 #
plane-surface $-1 0 -32.661863631785948 0 0 1 0 0 0 1 forward_v I I I I #
coedge $-1 $389 $348 $350 $390 forward $267 $-1 #
coedge $-1 $350 $269 $391 $392 reversed $193 $-1 #
edge $-1 $285 -12.729624185799301 $393 12.729624185799301 $280 $394 forward 7 unknown #
coedge $-1 $270 $395 $396 $397 forward $119 $-1 #
coedge $-1 $398 $271 $270 $339 reversed $207 $-1 #
edge $-1 $399 -32.661863631785948 $273 -18.143165167919094 $338 $286 forward 7 unknown #
straight-curve $-1 -48.587908566545607 18.143165167919094 28.235262473423415 0 0 1 I I #
point $-1 -48.587908566545607 18.143165167919094 12.729624185799301 #
straight-curve $-1 -48.587908566545607 5.0093966210480758 2.1304987802700381 0 1 0 I I #
point $-1 -48.587908566545607 18.143165167919094 2.1304987802700386 #
coedge $-1 $280 $398 $400 $401 reversed $207 $-1 #
face $-1 $402 $403 $14 $-1 $404 reversed single #
plane-surface $-1 -48.587908566545607 0 0 1 0 0 0 0 -1 forward_v I I I I #
coedge $-1 $395 $282 $405 $406 forward $119 $-1 #
coedge $-1 $334 $407 $282 $349 reversed $267 $-1 #
edge $-1 $351 -4.9413955938522918 $408 4.9413955938522918 $348 $409 forward 7 unknown #
coedge $-1 $283 $335 $334 $390 reversed $193 $-1 #
vertex $-1 $349 $410 #
straight-curve $-1 -45.879789506613712 -42.544654819490532 12.729624185799301 1 0 0 I I #
point $-1 -48.587908566545607 -42.544654819490532 12.729624185799301 #
face $-1 $411 $412 $15 $-1 $413 reversed single #
loop $-1 $-1 $414 $287 #
plane-surface $-1 -45.879789506613712 -42.544654819490532 0 0 1 0 0 0 1 forward_v I I I I #
coedge $-1 $297 $415 $290 $360 forward $288 $-1 #
coedge $-1 $359 $290 $416 $417 reversed $214 $-1 #
coedge $-1 $290 $358 $361 $418 forward $214 $-1 #
edge $-1 $419 15.987247882562983 $420 23.136448017009094 $357 $421 forward 7 unknown #
coedge $-1 $363 $291 $359 $418 reversed $216 $-1 #
edge $-1 $420 -13.133768546871018 $298 3.1149753047748661 $297 $422 forward 7 unknown #
coedge $-1 $292 $361 $366 $423 reversed $216 $-1 #
vertex $-1 $423 $424 #
straight-curve $-1 -48.587908566545579 1.8944213162732098 2.1304987802700808 -0.55919289150049634 0 -0.82903758062907751 I I #
coedge $-1 $416 $294 $363 $423 forward $368 $-1 #
coedge $-1 $294 $425 $296 $371 reversed $368 $-1 #
loop $-1 $-1 $416 $426 #
straight-curve $-1 -48.587908566545607 1.8944213162732098 28.235262473423415 0 0 -1 I I #
coedge $-1 $427 $296 $428 $429 forward $288 $-1 #
edge $-1 $299 -1.8944213162732098 $430 42.544654819490532 $367 $431 forward 7 unknown #
point $-1 -41.438708432099496 1.8944213162732098 12.729624185799301 #
point $-1 -48.587908566545607 1.8944213162732098 12.729624185799301 #
point $-1 -38.867824227131038 10.018793242096152 3.2848801304234372 #
plane-surface $-1 48.587908566545607 0 0 -1 0 0 0 0 1 forward_v I I I I #
coedge $-1 $326 $312 $315 $380 forward $308 $-1 #
vertex $-1 $311 $432 #
straight-curve $-1 48.587908566545607 0 -12.729624185799301 0 -1 0 I I #
straight-curve $-1 0 32.661863631785948 12.729624185799301 -1 0 0 I I #
edge $-1 $318 -12.729624185799301 $377 12.729624185799301 $315 $433 forward 7 unknown #
point $-1 48.587908566545607 -32.661863631785948 12.729624185799301 #
point $-1 48.587908566545607 32.661863631785948 12.729624185799301 #
straight-curve $-1 48.587908566545607 -32.661863631785948 0 0 0 -1 I I #
point $-1 48.587908566545607 -32.661863631785948 -12.729624185799301 #
straight-curve $-1 0 32.661863631785948 -12.729624185799301 1 0 0 I I #
loop $-1 $-1 $434 $331 #
plane-surface $-1 0 0 -12.729624185799301 0 0 1 1 0 0 forward_v I I I I #
coedge $-1 $435 $405 $407 $436 forward $332 $-1 #
coedge $-1 $407 $334 $437 $438 reversed $267 $-1 #
edge $-1 $351 -12.729624185799301 $439 12.729624185799301 $334 $440 forward 7 unknown #
coedge $-1 $400 $437 $335 $392 forward $386 $-1 #
edge $-1 $439 -2.7081190599318958 $393 2.7081190599318958 $335 $441 forward 7 unknown #
vertex $-1 $401 $442 #
straight-curve $-1 -48.587908566545607 -42.544654819490532 0 0 0 -1 I I #
coedge $-1 $337 $347 $443 $444 forward $119 $-1 #
coedge $-1 $445 $446 $337 $397 reversed $403 $-1 #
edge $-1 $447 -48.587908566545607 $399 48.587908566545607 $396 $448 forward 7 unknown #
coedge $-1 $344 $338 $446 $449 forward $207 $-1 #
vertex $-1 $397 $450 #
coedge $-1 $451 $391 $344 $401 forward $386 $-1 #
edge $-1 $393 -42.544654819490532 $452 32.661863631785948 $344 $453 forward 7 unknown #
face $-1 $-1 $454 $14 $-1 $455 reversed single #
loop $-1 $-1 $445 $345 #
plane-surface $-1 0 32.661863631785948 0 0 -1 0 0 0 -1 forward_v I I I I #
coedge $-1 $388 $456 $347 $406 reversed $332 $-1 #
edge $-1 $408 -43.171670446681816 $457 48.587908566545607 $405 $458 forward 7 unknown #
coedge $-1 $348 $389 $388 $436 reversed $267 $-1 #
vertex $-1 $406 $459 #
straight-curve $-1 -43.171670446681816 -37.60325922563824 12.729624185799301 0 1 0 I I #
point $-1 -43.171670446681816 -42.544654819490532 12.729624185799301 #
face $-1 $460 $461 $15 $-1 $462 reversed single #
loop $-1 $-1 $463 $354 #
plane-surface $-1 -43.171670446681816 -37.60325922563824 0 -1 0 0 0 0 1 forward_v I I I I #
coedge $-1 $464 $428 $425 $465 forward $355 $-1 #
coedge $-1 $357 $466 $467 $468 forward $288 $-1 #
coedge $-1 $467 $366 $358 $417 forward $368 $-1 #
edge $-1 $469 -26.104763693153377 $419 -15.505638287624114 $416 $470 forward 7 unknown #
edge $-1 $469 -5.0869049068944123e-014 $420 12.784855178080777 $359 $471 forward 7 unknown #
vertex $-1 $417 $472 #
vertex $-1 $362 $473 #
straight-curve $-1 -64.57515644910859 18.143165167919094 12.729624185799302 1 0 0 I I #
straight-curve $-1 -41.438708432099503 5.0093966210480758 12.729624185799301 0 -1 0 I I #
edge $-1 $364 -3.1149753047748661 $469 13.133768546871018 $366 $474 forward 7 unknown #
point $-1 -48.587908566545607 1.8944213162732098 2.1304987802700386 #
coedge $-1 $367 $475 $414 $465 reversed $368 $-1 #
face $-1 $476 $368 $15 $-1 $477 reversed single #
coedge $-1 $478 $370 $479 $480 forward $288 $-1 #
coedge $-1 $414 $481 $370 $429 reversed $355 $-1 #
edge $-1 $430 -2.7081190599318958 $482 2.7081190599318958 $428 $483 forward 7 unknown #
vertex $-1 $371 $484 #
straight-curve $-1 -48.587908566545607 0 12.729624185799301 0 -1 0 I I #
point $-1 48.587908566545607 32.661863631785948 -12.729624185799301 #
straight-curve $-1 48.587908566545607 32.661863631785948 0 0 0 -1 I I #
coedge $-1 $485 $451 $486 $487 forward $386 $-1 #
coedge $-1 $456 $388 $485 $488 reversed $332 $-1 #
edge $-1 $408 -12.729624185799301 $489 12.729624185799301 $388 $490 forward 7 unknown #
coedge $-1 $391 $485 $389 $438 forward $386 $-1 #
edge $-1 $489 -4.9413955938522918 $439 4.9413955938522918 $389 $491 forward 7 unknown #
vertex $-1 $390 $492 #
straight-curve $-1 -43.171670446681816 -42.544654819490532 0 0 0 -1 I I #
straight-curve $-1 -45.879789506613712 -42.544654819490532 -12.729624185799301 -1 0 0 I I #
point $-1 -48.587908566545607 -42.544654819490532 -12.729624185799301 #
coedge $-1 $493 $494 $395 $444 reversed $454 $-1 #
edge $-1 $457 -32.661863631785948 $447 32.661863631785948 $443 $495 forward 7 unknown #
coedge $-1 $496 $396 $494 $497 forward $403 $-1 #
coedge $-1 $396 $496 $398 $449 reversed $403 $-1 #
vertex $-1 $444 $498 #
straight-curve $-1 0 32.661863631785948 12.729624185799301 -1 0 0 I I #
edge $-1 $399 -12.729624185799301 $452 12.729624185799301 $446 $499 forward 7 unknown #
point $-1 -48.587908566545607 32.661863631785948 12.729624185799301 #
coedge $-1 $434 $400 $496 $500 forward $386 $-1 #
vertex $-1 $500 $501 #
straight-curve $-1 -48.587908566545607 0 -12.729624185799301 0 1 0 I I #
loop $-1 $-1 $493 $402 #
plane-surface $-1 48.587908566545607 0 0 -1 0 0 0 0 1 forward_v I I I I #
coedge $-1 $405 $435 $493 $502 reversed $332 $-1 #
vertex $-1 $444 $503 #
straight-curve $-1 0 -32.661863631785948 12.729624185799301 1 0 0 I I #
point $-1 -43.171670446681816 -32.661863631785948 12.729624185799301 #
face $-1 $426 $504 $15 $-1 $505 reversed single #
loop $-1 $-1 $506 $411 #
plane-surface $-1 0 -32.661863631785948 0 0 1 0 0 0 1 forward_v I I I I #
coedge $-1 $507 $479 $481 $508 forward $412 $-1 #
coedge $-1 $481 $414 $509 $510 reversed $355 $-1 #
edge $-1 $430 -12.729624185799301 $511 12.729624185799301 $425 $512 forward 7 unknown #
coedge $-1 $415 $513 $514 $515 forward $288 $-1 #
coedge $-1 $516 $416 $415 $468 reversed $368 $-1 #
edge $-1 $517 -32.661863631785948 $419 -18.143165167919094 $467 $431 forward 7 unknown #
vertex $-1 $423 $518 #
straight-curve $-1 -48.587908566545607 18.143165167919094 28.235262473423415 0 0 1 I I #
straight-curve $-1 -48.587908566545579 18.143165167919094 2.1304987802700808 0.55919289150049634 0 0.82903758062907751 I I #
point $-1 -48.587908566545607 18.143165167919094 12.729624185799301 #
point $-1 -41.438708432099496 18.143165167919094 12.729624185799301 #
straight-curve $-1 -48.587908566545607 5.0093966210480758 2.1304987802700381 0 1 0 I I #
coedge $-1 $425 $516 $519 $520 reversed $368 $-1 #
face $-1 $521 $522 $15 $-1 $523 reversed single #
plane-surface $-1 -48.587908566545607 0 0 1 0 0 0 0 -1 forward_v I I I I #
coedge $-1 $513 $427 $524 $525 forward $288 $-1 #
coedge $-1 $463 $526 $427 $480 reversed $412 $-1 #
edge $-1 $482 -4.9413955938522918 $527 4.9413955938522918 $479 $528 forward 7 unknown #
coedge $-1 $428 $464 $463 $508 reversed $355 $-1 #
vertex $-1 $480 $529 #
straight-curve $-1 -45.879789506613712 -42.544654819490532 12.729624185799301 1 0 0 I I #
point $-1 -48.587908566545607 -42.544654819490532 12.729624185799301 #
coedge $-1 $437 $434 $435 $488 forward $386 $-1 #
coedge $-1 $494 $493 $434 $487 reversed $454 $-1 #
edge $-1 $530 -32.661863631785948 $531 32.661863631785948 $486 $532 forward 7 unknown #
edge $-1 $531 -48.587908566545607 $489 43.171670446681816 $435 $533 forward 7 unknown #
vertex $-1 $438 $534 #
straight-curve $-1 -43.171670446681816 -32.661863631785948 0 0 0 -1 I I #
straight-curve $-1 -43.171670446681816 -37.60325922563824 -12.729624185799301 0 -1 0 I I #
point $-1 -43.171670446681816 -42.544654819490532 -12.729624185799301 #
coedge $-1 $486 $443 $456 $502 forward $454 $-1 #
coedge $-1 $443 $486 $445 $497 reversed $454 $-1 #
straight-curve $-1 48.587908566545607 0 12.729624185799301 0 1 0 I I #
coedge $-1 $446 $445 $451 $500 reversed $403 $-1 #
edge $-1 $447 -12.729624185799301 $530 12.729624185799301 $494 $535 forward 7 unknown #
point $-1 48.587908566545607 32.661863631785948 12.729624185799301 #
straight-curve $-1 -48.587908566545607 32.661863631785948 0 0 0 -1 I I #
edge $-1 $452 -48.587908566545607 $530 48.587908566545607 $496 $536 forward 7 unknown #
point $-1 -48.587908566545607 32.661863631785948 -12.729624185799301 #
edge $-1 $457 -12.729624185799301 $531 12.729624185799301 $493 $537 forward 7 unknown #
point $-1 48.587908566545607 -32.661863631785948 12.729624185799301 #
loop $-1 $-1 $538 $460 #
plane-surface $-1 0 0 -12.729624185799301 0 0 1 1 0 0 forward_v I I I I #
coedge $-1 $539 $524 $526 $540 forward $461 $-1 #
coedge $-1 $526 $463 $541 $542 reversed $412 $-1 #
edge $-1 $482 -12.729624185799301 $543 12.729624185799301 $463 $544 forward 7 unknown #
coedge $-1 $519 $541 $464 $510 forward $504 $-1 #
edge $-1 $543 -2.7081190599318958 $511 2.7081190599318958 $464 $545 forward 7 unknown #
vertex $-1 $520 $546 #
straight-curve $-1 -48.587908566545607 -42.544654819490532 0 0 0 -1 I I #
coedge $-1 $466 $478 $547 $548 forward $288 $-1 #
coedge $-1 $549 $550 $466 $515 reversed $522 $-1 #
edge $-1 $551 -48.587908566545607 $517 48.587908566545607 $514 $552 forward 7 unknown #
coedge $-1 $475 $467 $550 $553 forward $368 $-1 #
vertex $-1 $515 $554 #
point $-1 -48.587908566545607 18.143165167919094 2.1304987802700386 #
coedge $-1 $555 $509 $475 $520 forward $504 $-1 #
edge $-1 $511 -42.544654819490532 $556 32.661863631785948 $475 $557 forward 7 unknown #
face $-1 $-1 $558 $15 $-1 $559 reversed single #
loop $-1 $-1 $549 $476 #
plane-surface $-1 0 32.661863631785948 0 0 -1 0 0 0 -1 forward_v I I I I #
coedge $-1 $506 $560 $478 $525 reversed $461 $-1 #
edge $-1 $527 -43.171670446681816 $561 48.587908566545607 $524 $562 forward 7 unknown #
coedge $-1 $479 $507 $506 $540 reversed $412 $-1 #
vertex $-1 $525 $563 #
straight-curve $-1 -43.171670446681816 -37.60325922563824 12.729624185799301 0 1 0 I I #
point $-1 -43.171670446681816 -42.544654819490532 12.729624185799301 #
vertex $-1 $487 $564 #
vertex $-1 $502 $565 #
straight-curve $-1 48.587908566545607 0 -12.729624185799301 0 -1 0 I I #
straight-curve $-1 0 -32.661863631785948 -12.729624185799301 -1 0 0 I I #
point $-1 -43.171670446681816 -32.661863631785948 -12.729624185799301 #
straight-curve $-1 48.587908566545607 32.661863631785948 0 0 0 -1 I I #
straight-curve $-1 0 32.661863631785948 -12.729624185799301 1 0 0 I I #
straight-curve $-1 48.587908566545607 -32.661863631785948 0 0 0 -1 I I #
coedge $-1 $566 $555 $567 $568 forward $504 $-1 #
coedge $-1 $560 $506 $566 $569 reversed $461 $-1 #
edge $-1 $527 -12.729624185799301 $570 12.729624185799301 $506 $571 forward 7 unknown #
coedge $-1 $509 $566 $507 $542 forward $504 $-1 #
edge $-1 $570 -4.9413955938522918 $543 4.9413955938522918 $507 $572 forward 7 unknown #
vertex $-1 $508 $573 #
straight-curve $-1 -43.171670446681816 -42.544654819490532 0 0 0 -1 I I #
straight-curve $-1 -45.879789506613712 -42.544654819490532 -12.729624185799301 -1 0 0 I I #
point $-1 -48.587908566545607 -42.544654819490532 -12.729624185799301 #
coedge $-1 $574 $575 $513 $548 reversed $558 $-1 #
edge $-1 $561 -32.661863631785948 $551 32.661863631785948 $547 $576 forward 7 unknown #
coedge $-1 $577 $514 $575 $578 forward $522 $-1 #
coedge $-1 $514 $577 $516 $553 reversed $522 $-1 #
vertex $-1 $548 $579 #
straight-curve $-1 0 32.661863631785948 12.729624185799301 -1 0 0 I I #
edge $-1 $517 -12.729624185799301 $556 12.729624185799301 $550 $580 forward 7 unknown #
point $-1 -48.587908566545607 32.661863631785948 12.729624185799301 #
coedge $-1 $538 $519 $577 $581 forward $504 $-1 #
vertex $-1 $581 $582 #
straight-curve $-1 -48.587908566545607 0 -12.729624185799301 0 1 0 I I #
loop $-1 $-1 $574 $521 #
plane-surface $-1 48.587908566545607 0 0 -1 0 0 0 0 1 forward_v I I I I #
coedge $-1 $524 $539 $574 $583 reversed $461 $-1 #
vertex $-1 $548 $584 #
straight-curve $-1 0 -32.661863631785948 12.729624185799301 1 0 0 I I #
point $-1 -43.171670446681816 -32.661863631785948 12.729624185799301 #
point $-1 48.587908566545607 32.661863631785948 -12.729624185799301 #
point $-1 48.587908566545607 -32.661863631785948 -12.729624185799301 #
coedge $-1 $541 $538 $539 $569 forward $504 $-1 #
coedge $-1 $575 $574 $538 $568 reversed $558 $-1 #
edge $-1 $585 -32.661863631785948 $586 32.661863631785948 $567 $587 forward 7 unknown #
edge $-1 $586 -48.587908566545607 $570 43.171670446681816 $539 $588 forward 7 unknown #
vertex $-1 $542 $589 #
straight-curve $-1 -43.171670446681816 -32.661863631785948 0 0 0 -1 I I #
straight-curve $-1 -43.171670446681816 -37.60325922563824 -12.729624185799301 0 -1 0 I I #
point $-1 -43.171670446681816 -42.544654819490532 -12.729624185799301 #
coedge $-1 $567 $547 $560 $583 forward $558 $-1 #
coedge $-1 $547 $567 $549 $578 reversed $558 $-1 #
straight-curve $-1 48.587908566545607 0 12.729624185799301 0 1 0 I I #
coedge $-1 $550 $549 $555 $581 reversed $522 $-1 #
edge $-1 $551 -12.729624185799301 $585 12.729624185799301 $575 $590 forward 7 unknown #
point $-1 48.587908566545607 32.661863631785948 12.729624185799301 #
straight-curve $-1 -48.587908566545607 32.661863631785948 0 0 0 -1 I I #
edge $-1 $556 -48.587908566545607 $585 48.587908566545607 $577 $591 forward 7 unknown #
point $-1 -48.587908566545607 32.661863631785948 -12.729624185799301 #
edge $-1 $561 -12.729624185799301 $586 12.729624185799301 $574 $592 forward 7 unknown #
point $-1 48.587908566545607 -32.661863631785948 12.729624185799301 #
vertex $-1 $568 $593 #
vertex $-1 $583 $594 #
straight-curve $-1 48.587908566545607 0 -12.729624185799301 0 -1 0 I I #
straight-curve $-1 0 -32.661863631785948 -12.729624185799301 -1 0 0 I I #
point $-1 -43.171670446681816 -32.661863631785948 -12.729624185799301 #
straight-curve $-1 48.587908566545607 32.661863631785948 0 0 0 -1 I I #
straight-curve $-1 0 32.661863631785948 -12.729624185799301 1 0 0 I I #
straight-curve $-1 48.587908566545607 -32.661863631785948 0 0 0 -1 I I #
point $-1 48.587908566545607 32.661863631785948 -12.729624185799301 #
point $-1 48.587908566545607 -32.661863631785948 -12.729624185799301 #
End-of-ACIS-data 