500 0 18 0           
7 Unknown 11 ACIS 5.0 NT 24 Fri Mar 26 00:34:25 1999 
-1 9.9999999999999995e-007 1e-010 
body $-1 $18 $-1 $19 #
body $-1 $20 $-1 $21 #
body $-1 $22 $-1 $23 #
body $-1 $24 $-1 $25 #
body $-1 $26 $-1 $27 #
body $-1 $28 $-1 $29 #
body $-1 $30 $-1 $31 #
body $-1 $32 $-1 $33 #
body $-1 $34 $-1 $35 #
body $-1 $36 $-1 $37 #
body $-1 $38 $-1 $39 #
body $-1 $40 $-1 $41 #
body $-1 $42 $-1 $43 #
body $-1 $44 $-1 $45 #
body $-1 $46 $-1 $47 #
body $-1 $48 $-1 $49 #
body $-1 $50 $-1 $51 #
body $-1 $52 $-1 $53 #
lump $-1 $-1 $54 $0 #
transform $-1 1 0 0 0 1 0 0 0 1 65.646534623248996 34.329849972126929 12.918928007944052 1 rotate no_reflect no_shear #
lump $-1 $-1 $55 $1 #
transform $-1 1 0 0 0 1 0 0 0 1 65.646534623248996 34.329849972126929 12.918928007944052 1 rotate no_reflect no_shear #
lump $-1 $-1 $56 $2 #
transform $-1 1 0 0 0 1 0 0 0 1 65.646534623248996 34.329849972126929 12.918928007944052 1 rotate no_reflect no_shear #
lump $-1 $-1 $57 $3 #
transform $-1 1 0 0 0 1 0 0 0 1 65.646534623248996 34.329849972126929 12.918928007944052 1 rotate no_reflect no_shear #
lump $-1 $-1 $58 $4 #
transform $-1 1 0 0 0 1 0 0 0 1 65.646534623248996 34.329849972126929 12.918928007944052 1 rotate no_reflect no_shear #
lump $-1 $-1 $59 $5 #
transform $-1 1 0 0 0 1 0 0 0 1 65.646534623248996 34.329849972126929 12.918928007944052 1 rotate no_reflect no_shear #
lump $-1 $-1 $60 $6 #
transform $-1 1 0 0 0 1 0 0 0 1 65.646534623248996 34.329849972126929 12.918928007944052 1 rotate no_reflect no_shear #
lump $-1 $-1 $61 $7 #
transform $-1 1 0 0 0 1 0 0 0 1 65.646534623248996 34.329849972126929 12.918928007944052 1 rotate no_reflect no_shear #
lump $-1 $-1 $62 $8 #
transform $-1 1 0 0 0 1 0 0 0 1 65.646534623248996 34.329849972126929 12.918928007944052 1 rotate no_reflect no_shear #
lump $-1 $-1 $63 $9 #
transform $-1 1 0 0 0 1 0 0 0 1 65.646534623248996 34.329849972126929 12.918928007944052 1 rotate no_reflect no_shear #
lump $-1 $-1 $64 $10 #
transform $-1 1 0 0 0 1 0 0 0 1 65.646534623248996 34.329849972126929 12.918928007944052 1 rotate no_reflect no_shear #
lump $-1 $-1 $65 $11 #
transform $-1 1 0 0 0 1 0 0 0 1 65.646534623248996 34.329849972126929 12.918928007944052 1 rotate no_reflect no_shear #
lump $-1 $-1 $66 $12 #
transform $-1 1 0 0 0 1 0 0 0 1 65.646534623248996 34.329849972126929 12.918928007944052 1 rotate no_reflect no_shear #
lump $-1 $-1 $67 $13 #
transform $-1 1 0 0 0 1 0 0 0 1 65.646534623248996 34.329849972126929 12.918928007944052 1 rotate no_reflect no_shear #
lump $-1 $-1 $68 $14 #
transform $-1 1 0 0 0 1 0 0 0 1 65.646534623248996 34.329849972126929 12.918928007944052 1 rotate no_reflect no_shear #
lump $-1 $-1 $69 $15 #
transform $-1 1 0 0 0 1 0 0 0 1 65.646534623248996 34.329849972126929 12.918928007944052 1 rotate no_reflect no_shear #
lump $-1 $-1 $70 $16 #
transform $-1 1 0 0 0 1 0 0 0 1 65.646534623248996 34.329849972126929 12.918928007944052 1 rotate no_reflect no_shear #
lump $-1 $-1 $71 $17 #
transform $-1 1 0 0 0 1 0 0 0 1 65.646534623248996 34.329849972126929 12.918928007944052 1 rotate no_reflect no_shear #
shell $-1 $-1 $-1 $72 $-1 $18 #
shell $-1 $-1 $-1 $73 $-1 $20 #
shell $-1 $-1 $-1 $74 $-1 $22 #
shell $-1 $-1 $-1 $75 $-1 $24 #
shell $-1 $-1 $-1 $76 $-1 $26 #
shell $-1 $-1 $-1 $77 $-1 $28 #
shell $-1 $-1 $-1 $78 $-1 $30 #
shell $-1 $-1 $-1 $79 $-1 $32 #
shell $-1 $-1 $-1 $80 $-1 $34 #
shell $-1 $-1 $-1 $81 $-1 $36 #
shell $-1 $-1 $-1 $82 $-1 $38 #
shell $-1 $-1 $-1 $83 $-1 $40 #
shell $-1 $-1 $-1 $84 $-1 $42 #
shell $-1 $-1 $-1 $85 $-1 $44 #
shell $-1 $-1 $-1 $86 $-1 $46 #
shell $-1 $-1 $-1 $87 $-1 $48 #
shell $-1 $-1 $-1 $88 $-1 $50 #
shell $-1 $-1 $-1 $89 $-1 $52 #
face $-1 $90 $91 $54 $-1 $92 forward single #
face $-1 $93 $94 $55 $-1 $95 reversed single #
face $-1 $96 $97 $56 $-1 $98 forward single #
face $-1 $99 $100 $57 $-1 $101 reversed single #
face $-1 $102 $103 $58 $-1 $104 forward single #
face $-1 $105 $106 $59 $-1 $107 forward single #
face $-1 $108 $109 $60 $-1 $110 reversed single #
face $-1 $111 $112 $61 $-1 $113 forward single #
face $-1 $114 $115 $62 $-1 $116 forward single #
face $-1 $117 $118 $63 $-1 $119 forward single #
face $-1 $120 $121 $64 $-1 $122 reversed single #
face $-1 $123 $124 $65 $-1 $125 forward single #
face $-1 $126 $127 $66 $-1 $128 forward single #
face $-1 $129 $130 $67 $-1 $131 forward single #
face $-1 $132 $133 $68 $-1 $134 reversed single #
face $-1 $135 $136 $69 $-1 $137 forward single #
face $-1 $138 $139 $70 $-1 $140 forward single #
face $-1 $141 $142 $71 $-1 $143 forward single #
face $-1 $144 $145 $54 $-1 $146 reversed single #
loop $-1 $-1 $147 $72 #
plane-surface $-1 0 0 12.918928007944052 0 0 1 1 0 0 forward_v I I I I #
face $-1 $148 $149 $55 $-1 $150 reversed single #
loop $-1 $-1 $151 $73 #
plane-surface $-1 -58.522670297032782 -26.078405631569115 0 1 0 0 0 0 -1 forward_v I I I I #
face $-1 $152 $153 $56 $-1 $154 reversed single #
loop $-1 $-1 $155 $74 #
plane-surface $-1 0 34.329849972126929 0 0 -1 0 0 0 -1 forward_v I I I I #
face $-1 $156 $157 $57 $-1 $158 reversed single #
loop $-1 $-1 $159 $75 #
plane-surface $-1 23.878425356943197 1.1411246092271341 181.49210969683347 0 -1 0 -0.52991927123019833 0 -0.84804809178421925 forward_v I I I I #
face $-1 $160 $161 $58 $-1 $162 forward single #
loop $-1 $163 $164 $76 #
cone-surface $-1 55.504004213502455 -5.7287011127936509 6.3227126006635785 -0.52991927123019833 0 -0.84804809178421925 0.42402404589210962 0 -0.26495963561509916 1 I I 0 1 0.5 forward I I I I #
face $-1 $165 $166 $59 $-1 $167 forward single #
loop $-1 $168 $169 $77 #
cone-surface $-1 55.504004213502455 -1.6068056795811785 6.3227126006635785 -0.52991927123019833 0 -0.84804809178421925 0.42402404589210962 0 -0.26495963561509916 1 I I 0 1 0.5 forward I I I I #
face $-1 $170 $171 $60 $-1 $172 reversed single #
loop $-1 $-1 $173 $78 #
plane-surface $-1 -142.81866544047784 -11.561339964652532 109.65711935359744 0 1 0 -0.5877852598018023 0 0.80901698891910034 forward_v I I I I #
face $-1 $174 $175 $61 $-1 $176 forward single #
loop $-1 $177 $178 $79 #
cone-surface $-1 -58.828500837375316 -10.360633602703366 7.7743534124368274 0.5877852598018023 0 -0.80901698891910034 0.40450849445955017 0 0.29389262990090115 1 I I 0 1 0.5 forward I I I I #
face $-1 $179 $180 $62 $-1 $181 forward single #
loop $-1 $182 $183 $80 #
cone-surface $-1 -58.828500837375316 -8.5595740597796208 7.7743534124368274 0.5877852598018023 0 -0.80901698891910034 0.40450849445955017 0 0.29389262990090115 1 I I 0 1 0.5 forward I I I I #
face $-1 $184 $185 $63 $-1 $186 forward single #
loop $-1 $187 $188 $81 #
cone-surface $-1 -58.828500837375316 -6.7585145168558753 7.7743534124368274 0.5877852598018023 0 -0.80901698891910034 0.40450849445955017 0 0.29389262990090115 1 I I 0 1 0.5 forward I I I I #
face $-1 $189 $190 $64 $-1 $191 reversed single #
loop $-1 $-1 $192 $82 #
plane-surface $-1 -142.81866544047784 -2.424997491727332 109.65711935359744 0 1 0 -0.5877852598018023 0 0.80901698891910034 forward_v I I I I #
face $-1 $193 $194 $65 $-1 $195 forward single #
loop $-1 $196 $197 $83 #
cone-surface $-1 -58.828500837375316 -1.2242911297781589 7.7743534124368274 0.5877852598018023 0 -0.80901698891910034 0.40450849445955017 0 0.29389262990090115 1 I I 0 1 0.5 forward I I I I #
face $-1 $198 $199 $66 $-1 $200 forward single #
loop $-1 $201 $202 $84 #
cone-surface $-1 -58.828500837375316 0.57676841314557947 7.7743534124368274 0.5877852598018023 0 -0.80901698891910034 0.40450849445955017 0 0.29389262990090115 1 I I 0 1 0.5 forward I I I I #
face $-1 $203 $204 $67 $-1 $205 forward single #
loop $-1 $206 $207 $85 #
cone-surface $-1 -58.828500837375316 2.3778279560693321 7.7743534124368274 0.5877852598018023 0 -0.80901698891910034 0.40450849445955017 0 0.29389262990090115 1 I I 0 1 0.5 forward I I I I #
face $-1 $208 $209 $68 $-1 $210 reversed single #
loop $-1 $-1 $211 $86 #
plane-surface $-1 -142.81866544047784 6.7113449811978754 109.65711935359744 0 1 0 -0.5877852598018023 0 0.80901698891910034 forward_v I I I I #
face $-1 $212 $213 $69 $-1 $214 forward single #
loop $-1 $215 $216 $87 #
cone-surface $-1 -58.828500837375316 7.9120513431470485 7.7743534124368274 0.5877852598018023 0 -0.80901698891910034 0.40450849445955017 0 0.29389262990090115 1 I I 0 1 0.5 forward I I I I #
face $-1 $217 $218 $70 $-1 $219 forward single #
loop $-1 $220 $221 $88 #
cone-surface $-1 -58.828500837375316 9.7131108860707869 7.7743534124368274 0.5877852598018023 0 -0.80901698891910034 0.40450849445955017 0 0.29389262990090115 1 I I 0 1 0.5 forward I I I I #
face $-1 $222 $223 $71 $-1 $224 forward single #
loop $-1 $225 $226 $89 #
cone-surface $-1 -58.828500837375316 11.514170428994539 7.7743534124368274 0.5877852598018023 0 -0.80901698891910034 0.40450849445955017 0 0.29389262990090115 1 I I 0 1 0.5 forward I I I I #
face $-1 $227 $228 $54 $-1 $229 reversed single #
loop $-1 $-1 $230 $90 #
plane-surface $-1 0 0 -12.918928007944052 0 0 1 1 0 0 forward_v I I I I #
coedge $-1 $231 $232 $233 $234 forward $91 $-1 #
face $-1 $235 $236 $55 $-1 $237 reversed single #
loop $-1 $-1 $238 $93 #
plane-surface $-1 -55.475503363990477 -17.826961291011301 0 0 -1 0 0 0 -1 forward_v I I I I #
coedge $-1 $239 $240 $241 $242 forward $94 $-1 #
face $-1 $243 $244 $56 $-1 $245 forward single #
loop $-1 $-1 $246 $96 #
plane-surface $-1 65.646534623248996 0 0 -1 0 0 0 0 1 forward_v I I I I #
coedge $-1 $247 $248 $249 $250 forward $97 $-1 #
face $-1 $251 $252 $57 $-1 $253 reversed single #
loop $-1 $-1 $254 $99 #
plane-surface $-1 -45.696302215736978 -3.6677533961874147 70.149272857847478 0.52991927123019833 0 0.84804809178421925 0.84804809178421925 0 -0.52991927123019833 forward_v I I I I #
coedge $-1 $255 $256 $257 $258 reversed $100 $-1 #
face $-1 $-1 $259 $58 $-1 $260 forward single #
loop $-1 $261 $262 $102 #
cone-surface $-1 55.106564760079806 -5.7287011127936509 5.6866765318254142 -0.52991927123019833 0 -0.84804809178421925 0.21201202294605481 0 -0.13247981780754958 1 I I -0.70710678118654746 0.70710678118654746 0.25 forward I I I I #
loop $-1 $-1 $263 $76 #
coedge $-1 $164 $164 $264 $265 reversed $103 $-1 #
face $-1 $-1 $266 $59 $-1 $267 forward single #
loop $-1 $268 $269 $105 #
cone-surface $-1 55.106564760079806 -1.6068056795811785 5.6866765318254142 -0.52991927123019833 0 -0.84804809178421925 0.21201202294605481 0 -0.13247981780754958 1 I I -0.70710678118654746 0.70710678118654746 0.25 forward I I I I #
loop $-1 $-1 $270 $77 #
coedge $-1 $169 $169 $271 $272 reversed $106 $-1 #
face $-1 $273 $274 $60 $-1 $275 reversed single #
loop $-1 $-1 $276 $108 #
plane-surface $-1 -65.646534623248996 -8.5595740597796208 3.4387958058486987 -0.5877852598018023 0 0.80901698891910034 0.80901698891910034 0 0.5877852598018023 forward_v I I I I #
coedge $-1 $277 $278 $279 $280 reversed $109 $-1 #
face $-1 $-1 $281 $61 $-1 $282 forward single #
loop $-1 $283 $284 $111 #
cone-surface $-1 -58.387661892523965 -10.360633602703366 7.1675906707475026 0.5877852598018023 0 -0.80901698891910034 0.20225424722977509 0 0.14694631495045057 1 I I -0.70710678118654746 0.70710678118654746 0.25 forward I I I I #
loop $-1 $-1 $285 $79 #
coedge $-1 $178 $178 $286 $287 reversed $112 $-1 #
face $-1 $-1 $288 $62 $-1 $289 forward single #
loop $-1 $290 $291 $114 #
cone-surface $-1 -58.387661892523965 -8.5595740597796208 7.1675906707475026 0.5877852598018023 0 -0.80901698891910034 0.20225424722977509 0 0.14694631495045057 1 I I -0.70710678118654746 0.70710678118654746 0.25 forward I I I I #
loop $-1 $-1 $292 $80 #
coedge $-1 $183 $183 $293 $294 reversed $115 $-1 #
face $-1 $-1 $295 $63 $-1 $296 forward single #
loop $-1 $297 $298 $117 #
cone-surface $-1 -58.387661892523965 -6.7585145168558753 7.1675906707475026 0.5877852598018023 0 -0.80901698891910034 0.20225424722977509 0 0.14694631495045057 1 I I -0.70710678118654746 0.70710678118654746 0.25 forward I I I I #
loop $-1 $-1 $299 $81 #
coedge $-1 $188 $188 $300 $301 reversed $118 $-1 #
face $-1 $302 $303 $64 $-1 $304 reversed single #
loop $-1 $-1 $305 $120 #
plane-surface $-1 -65.646534623248996 0.57676841314557947 3.4387958058486987 -0.5877852598018023 0 0.80901698891910034 0.80901698891910034 0 0.5877852598018023 forward_v I I I I #
coedge $-1 $306 $307 $308 $309 reversed $121 $-1 #
face $-1 $-1 $310 $65 $-1 $311 forward single #
loop $-1 $312 $313 $123 #
cone-surface $-1 -58.387661892523965 -1.2242911297781589 7.1675906707475026 0.5877852598018023 0 -0.80901698891910034 0.20225424722977509 0 0.14694631495045057 1 I I -0.70710678118654746 0.70710678118654746 0.25 forward I I I I #
loop $-1 $-1 $314 $83 #
coedge $-1 $197 $197 $315 $316 reversed $124 $-1 #
face $-1 $-1 $317 $66 $-1 $318 forward single #
loop $-1 $319 $320 $126 #
cone-surface $-1 -58.387661892523965 0.57676841314557947 7.1675906707475026 0.5877852598018023 0 -0.80901698891910034 0.20225424722977509 0 0.14694631495045057 1 I I -0.70710678118654746 0.70710678118654746 0.25 forward I I I I #
loop $-1 $-1 $321 $84 #
coedge $-1 $202 $202 $322 $323 reversed $127 $-1 #
face $-1 $-1 $324 $67 $-1 $325 forward single #
loop $-1 $326 $327 $129 #
cone-surface $-1 -58.387661892523965 2.3778279560693321 7.1675906707475026 0.5877852598018023 0 -0.80901698891910034 0.20225424722977509 0 0.14694631495045057 1 I I -0.70710678118654746 0.70710678118654746 0.25 forward I I I I #
loop $-1 $-1 $328 $85 #
coedge $-1 $207 $207 $329 $330 reversed $130 $-1 #
face $-1 $331 $332 $68 $-1 $333 reversed single #
loop $-1 $-1 $334 $132 #
plane-surface $-1 -65.646534623248996 9.7131108860707869 3.4387958058486987 -0.5877852598018023 0 0.80901698891910034 0.80901698891910034 0 0.5877852598018023 forward_v I I I I #
coedge $-1 $335 $336 $337 $338 reversed $133 $-1 #
face $-1 $-1 $339 $69 $-1 $340 forward single #
loop $-1 $341 $342 $135 #
cone-surface $-1 -58.387661892523965 7.9120513431470485 7.1675906707475026 0.5877852598018023 0 -0.80901698891910034 0.20225424722977509 0 0.14694631495045057 1 I I -0.70710678118654746 0.70710678118654746 0.25 forward I I I I #
loop $-1 $-1 $343 $87 #
coedge $-1 $216 $216 $344 $345 reversed $136 $-1 #
face $-1 $-1 $346 $70 $-1 $347 forward single #
loop $-1 $348 $349 $138 #
cone-surface $-1 -58.387661892523965 9.7131108860707869 7.1675906707475026 0.5877852598018023 0 -0.80901698891910034 0.20225424722977509 0 0.14694631495045057 1 I I -0.70710678118654746 0.70710678118654746 0.25 forward I I I I #
loop $-1 $-1 $350 $88 #
coedge $-1 $221 $221 $351 $352 reversed $139 $-1 #
face $-1 $-1 $353 $71 $-1 $354 forward single #
loop $-1 $355 $356 $141 #
cone-surface $-1 -58.387661892523965 11.514170428994539 7.1675906707475026 0.5877852598018023 0 -0.80901698891910034 0.20225424722977509 0 0.14694631495045057 1 I I -0.70710678118654746 0.70710678118654746 0.25 forward I I I I #
loop $-1 $-1 $357 $89 #
coedge $-1 $226 $226 $358 $359 reversed $142 $-1 #
face $-1 $360 $361 $54 $-1 $362 reversed single #
loop $-1 $-1 $363 $144 #
plane-surface $-1 0 -34.329849972126929 0 0 1 0 0 0 1 forward_v I I I I #
coedge $-1 $364 $365 $366 $367 forward $145 $-1 #
coedge $-1 $368 $147 $369 $370 forward $91 $-1 #
coedge $-1 $147 $368 $371 $372 forward $91 $-1 #
coedge $-1 $373 $374 $147 $234 reversed $375 $-1 #
edge $-1 $376 -34.329849972126929 $377 34.329849972126929 $233 $378 forward 7 unknown #
face $-1 $379 $380 $55 $-1 $381 forward single #
loop $-1 $-1 $382 $148 #
plane-surface $-1 -52.428336430948171 -26.078405631569115 0 -1 0 0 0 0 1 forward_v I I I I #
coedge $-1 $383 $384 $385 $386 forward $149 $-1 #
coedge $-1 $387 $151 $388 $389 reversed $94 $-1 #
coedge $-1 $151 $387 $390 $391 reversed $94 $-1 #
coedge $-1 $384 $383 $151 $242 reversed $149 $-1 #
edge $-1 $392 -12.918928007944052 $393 12.918928007944052 $241 $394 forward 7 unknown #
face $-1 $395 $396 $56 $-1 $397 reversed single #
loop $-1 $-1 $398 $152 #
plane-surface $-1 0 42.004525899539153 -3.8954292829352504 0 0 1 1 0 0 forward_v I I I I #
coedge $-1 $399 $400 $248 $401 forward $153 $-1 #
coedge $-1 $402 $155 $403 $404 reversed $97 $-1 #
coedge $-1 $155 $402 $246 $401 reversed $97 $-1 #
coedge $-1 $398 $405 $155 $250 reversed $244 $-1 #
edge $-1 $406 -65.646534623248996 $407 65.646534623248996 $249 $408 forward 7 unknown #
face $-1 $409 $410 $57 $-1 $411 forward single #
loop $-1 $-1 $412 $156 #
plane-surface $-1 23.878425356943197 -8.4766314016019635 181.49210969683347 0 1 0 0.52991927123019833 0 0.84804809178421925 forward_v I I I I #
coedge $-1 $413 $414 $415 $416 reversed $157 $-1 #
coedge $-1 $256 $159 $417 $418 reversed $100 $-1 #
coedge $-1 $159 $255 $413 $419 reversed $100 $-1 #
coedge $-1 $415 $420 $159 $258 forward $410 $-1 #
edge $-1 $421 -53.707321944777398 $422 -33.952180396514457 $257 $423 forward 7 unknown #
loop $-1 $-1 $264 $160 #
plane-surface $-1 -45.696302215736978 -3.6677533961874147 70.149272857847478 0.52991927123019833 0 0.84804809178421925 0.84804809178421925 0 -0.52991927123019833 forward_v I I I I #
loop $-1 $-1 $424 $102 #
coedge $-1 $262 $262 $263 $425 reversed $161 $-1 #
coedge $-1 $263 $263 $262 $425 forward $163 $-1 #
coedge $-1 $264 $264 $164 $265 forward $259 $-1 #
edge $-1 $426 0 $426 6.2831853071796004 $264 $427 forward 7 unknown #
loop $-1 $-1 $271 $165 #
plane-surface $-1 -45.696302215736978 -3.6677533961874147 70.149272857847478 0.52991927123019833 0 0.84804809178421925 0.84804809178421925 0 -0.52991927123019833 forward_v I I I I #
loop $-1 $-1 $428 $105 #
coedge $-1 $269 $269 $270 $429 reversed $166 $-1 #
coedge $-1 $270 $270 $269 $429 forward $168 $-1 #
coedge $-1 $271 $271 $169 $272 forward $266 $-1 #
edge $-1 $430 0 $430 6.2831853071796004 $271 $431 forward 7 unknown #
face $-1 $432 $433 $60 $-1 $434 reversed single #
loop $-1 $-1 $435 $170 #
plane-surface $-1 -142.81866544047784 -5.5578081549067093 109.65711935359744 0 -1 0 0.5877852598018023 0 -0.80901698891910034 forward_v I I I I #
coedge $-1 $436 $437 $438 $439 reversed $171 $-1 #
coedge $-1 $278 $173 $440 $441 reversed $109 $-1 #
coedge $-1 $173 $277 $436 $442 reversed $109 $-1 #
coedge $-1 $438 $443 $173 $280 forward $444 $-1 #
edge $-1 $445 5.7627980969899255 $446 18.811080408935489 $279 $447 forward 7 unknown #
loop $-1 $-1 $286 $174 #
plane-surface $-1 -65.646534623248996 -8.5595740597796208 3.4387958058486987 -0.5877852598018023 0 0.80901698891910034 0.80901698891910034 0 0.5877852598018023 forward_v I I I I #
loop $-1 $-1 $448 $111 #
coedge $-1 $284 $284 $285 $449 reversed $175 $-1 #
coedge $-1 $285 $285 $284 $449 forward $177 $-1 #
coedge $-1 $286 $286 $178 $287 forward $281 $-1 #
edge $-1 $450 0 $450 6.2831853071796004 $286 $451 forward 7 unknown #
loop $-1 $-1 $293 $179 #
plane-surface $-1 -65.646534623248996 -8.5595740597796208 3.4387958058486987 -0.5877852598018023 0 0.80901698891910034 0.80901698891910034 0 0.5877852598018023 forward_v I I I I #
loop $-1 $-1 $452 $114 #
coedge $-1 $291 $291 $292 $453 reversed $180 $-1 #
coedge $-1 $292 $292 $291 $453 forward $182 $-1 #
coedge $-1 $293 $293 $183 $294 forward $288 $-1 #
edge $-1 $454 0 $454 6.2831853071796004 $293 $455 forward 7 unknown #
loop $-1 $-1 $300 $184 #
plane-surface $-1 -65.646534623248996 -8.5595740597796208 3.4387958058486987 -0.5877852598018023 0 0.80901698891910034 0.80901698891910034 0 0.5877852598018023 forward_v I I I I #
loop $-1 $-1 $456 $117 #
coedge $-1 $298 $298 $299 $457 reversed $185 $-1 #
coedge $-1 $299 $299 $298 $457 forward $187 $-1 #
coedge $-1 $300 $300 $188 $301 forward $295 $-1 #
edge $-1 $458 0 $458 6.2831853071796004 $300 $459 forward 7 unknown #
face $-1 $460 $461 $64 $-1 $462 forward single #
loop $-1 $-1 $463 $189 #
plane-surface $-1 -142.81866544047784 3.578534318018491 109.65711935359744 0 -1 0 0.5877852598018023 0 -0.80901698891910034 forward_v I I I I #
coedge $-1 $464 $465 $466 $467 reversed $190 $-1 #
coedge $-1 $307 $192 $468 $469 reversed $121 $-1 #
coedge $-1 $192 $306 $464 $470 reversed $121 $-1 #
coedge $-1 $466 $471 $192 $309 forward $461 $-1 #
edge $-1 $472 5.7627980969899255 $473 18.811080408935489 $308 $474 forward 7 unknown #
loop $-1 $-1 $315 $193 #
plane-surface $-1 -65.646534623248996 0.57676841314557947 3.4387958058486987 -0.5877852598018023 0 0.80901698891910034 0.80901698891910034 0 0.5877852598018023 forward_v I I I I #
loop $-1 $-1 $475 $123 #
coedge $-1 $313 $313 $314 $476 reversed $194 $-1 #
coedge $-1 $314 $314 $313 $476 forward $196 $-1 #
coedge $-1 $315 $315 $197 $316 forward $310 $-1 #
edge $-1 $477 0 $477 6.2831853071796004 $315 $478 forward 7 unknown #
loop $-1 $-1 $322 $198 #
plane-surface $-1 -65.646534623248996 0.57676841314557947 3.4387958058486987 -0.5877852598018023 0 0.80901698891910034 0.80901698891910034 0 0.5877852598018023 forward_v I I I I #
loop $-1 $-1 $479 $126 #
coedge $-1 $320 $320 $321 $480 reversed $199 $-1 #
coedge $-1 $321 $321 $320 $480 forward $201 $-1 #
coedge $-1 $322 $322 $202 $323 forward $317 $-1 #
edge $-1 $481 0 $481 6.2831853071796004 $322 $482 forward 7 unknown #
loop $-1 $-1 $329 $203 #
plane-surface $-1 -65.646534623248996 0.57676841314557947 3.4387958058486987 -0.5877852598018023 0 0.80901698891910034 0.80901698891910034 0 0.5877852598018023 forward_v I I I I #
loop $-1 $-1 $483 $129 #
coedge $-1 $327 $327 $328 $484 reversed $204 $-1 #
coedge $-1 $328 $328 $327 $484 forward $206 $-1 #
coedge $-1 $329 $329 $207 $330 forward $324 $-1 #
edge $-1 $485 0 $485 6.2831853071796004 $329 $486 forward 7 unknown #
face $-1 $487 $488 $68 $-1 $489 forward single #
loop $-1 $-1 $490 $208 #
plane-surface $-1 -142.81866544047784 12.714876790943698 109.65711935359744 0 -1 0 0.5877852598018023 0 -0.80901698891910034 forward_v I I I I #
coedge $-1 $491 $492 $493 $494 reversed $209 $-1 #
coedge $-1 $336 $211 $495 $496 reversed $133 $-1 #
coedge $-1 $211 $335 $491 $497 reversed $133 $-1 #
coedge $-1 $493 $498 $211 $338 forward $488 $-1 #
edge $-1 $499 5.7627980969899255 $500 18.811080408935489 $337 $501 forward 7 unknown #
loop $-1 $-1 $344 $212 #
plane-surface $-1 -65.646534623248996 9.7131108860707869 3.4387958058486987 -0.5877852598018023 0 0.80901698891910034 0.80901698891910034 0 0.5877852598018023 forward_v I I I I #
loop $-1 $-1 $502 $135 #
coedge $-1 $342 $342 $343 $503 reversed $213 $-1 #
coedge $-1 $343 $343 $342 $503 forward $215 $-1 #
coedge $-1 $344 $344 $216 $345 forward $339 $-1 #
edge $-1 $504 0 $504 6.2831853071796004 $344 $505 forward 7 unknown #
loop $-1 $-1 $351 $217 #
plane-surface $-1 -65.646534623248996 9.7131108860707869 3.4387958058486987 -0.5877852598018023 0 0.80901698891910034 0.80901698891910034 0 0.5877852598018023 forward_v I I I I #
loop $-1 $-1 $506 $138 #
coedge $-1 $349 $349 $350 $507 reversed $218 $-1 #
coedge $-1 $350 $350 $349 $507 forward $220 $-1 #
coedge $-1 $351 $351 $221 $352 forward $346 $-1 #
edge $-1 $508 0 $508 6.2831853071796004 $351 $509 forward 7 unknown #
loop $-1 $-1 $358 $222 #
plane-surface $-1 -65.646534623248996 9.7131108860707869 3.4387958058486987 -0.5877852598018023 0 0.80901698891910034 0.80901698891910034 0 0.5877852598018023 forward_v I I I I #
loop $-1 $-1 $510 $141 #
coedge $-1 $356 $356 $357 $511 reversed $223 $-1 #
coedge $-1 $357 $357 $356 $511 forward $225 $-1 #
coedge $-1 $358 $358 $226 $359 forward $353 $-1 #
edge $-1 $512 0 $512 6.2831853071796004 $358 $513 forward 7 unknown #
face $-1 $514 $515 $54 $-1 $516 reversed single #
loop $-1 $-1 $517 $227 #
plane-surface $-1 -65.646534623248996 0 0 1 0 0 0 0 -1 forward_v I I I I #
coedge $-1 $518 $371 $519 $520 forward $228 $-1 #
coedge $-1 $521 $230 $518 $522 forward $145 $-1 #
coedge $-1 $230 $521 $523 $524 forward $145 $-1 #
coedge $-1 $374 $373 $230 $367 reversed $375 $-1 #
edge $-1 $525 -34.329849972126929 $526 34.329849972126929 $366 $527 forward 7 unknown #
coedge $-1 $232 $231 $528 $529 forward $91 $-1 #
coedge $-1 $530 $531 $231 $370 reversed $515 $-1 #
edge $-1 $377 -65.646534623248996 $532 65.646534623248996 $369 $533 forward 7 unknown #
coedge $-1 $363 $534 $232 $372 reversed $228 $-1 #
edge $-1 $535 -65.646534623248996 $376 65.646534623248996 $371 $536 forward 7 unknown #
coedge $-1 $366 $233 $534 $537 forward $375 $-1 #
coedge $-1 $233 $366 $530 $538 reversed $375 $-1 #
loop $-1 $-1 $373 $514 #
vertex $-1 $234 $539 #
vertex $-1 $234 $540 #
straight-curve $-1 65.646534623248996 0 12.918928007944052 0 1 0 I I #
face $-1 $541 $542 $55 $-1 $543 reversed single #
loop $-1 $-1 $544 $235 #
plane-surface $-1 0 0 12.918928007944052 0 0 1 1 0 0 forward_v I I I I #
coedge $-1 $545 $546 $547 $548 reversed $236 $-1 #
coedge $-1 $241 $238 $549 $550 reversed $149 $-1 #
coedge $-1 $238 $241 $551 $552 reversed $149 $-1 #
coedge $-1 $546 $545 $238 $386 reversed $236 $-1 #
edge $-1 $553 -12.918928007944052 $554 12.918928007944052 $385 $555 forward 7 unknown #
coedge $-1 $240 $239 $556 $557 reversed $94 $-1 #
coedge $-1 $549 $558 $239 $389 forward $542 $-1 #
edge $-1 $559 -21.290647156342374 $393 -4.7877584752267435 $388 $560 forward 7 unknown #
coedge $-1 $561 $551 $240 $391 forward $380 $-1 #
edge $-1 $392 4.7877584752267435 $562 21.290647156342374 $390 $563 forward 7 unknown #
vertex $-1 $391 $564 #
vertex $-1 $389 $565 #
straight-curve $-1 -58.522670297032782 -17.826961291011301 0 0 0 -1 I I #
face $-1 $566 $567 $56 $-1 $568 reversed single #
loop $-1 $-1 $569 $243 #
plane-surface $-1 0 42.004525899539153 -9.6224645457848776 0 0 1 1 0 0 forward_v I I I I #
coedge $-1 $570 $249 $400 $571 forward $244 $-1 #
coedge $-1 $572 $246 $569 $573 reversed $153 $-1 #
coedge $-1 $246 $572 $398 $571 reversed $153 $-1 #
edge $-1 $406 3.8954292829352504 $574 9.6224645457848776 $246 $575 forward 7 unknown #
coedge $-1 $248 $247 $576 $577 forward $97 $-1 #
coedge $-1 $578 $579 $247 $404 forward $580 $-1 #
edge $-1 $581 -9.6224645457848776 $407 -3.8954292829352504 $403 $582 forward 7 unknown #
coedge $-1 $249 $570 $578 $583 forward $244 $-1 #
vertex $-1 $401 $584 #
vertex $-1 $583 $585 #
straight-curve $-1 0 34.329849972126929 -3.8954292829352504 -1 0 0 I I #
face $-1 $-1 $586 $57 $-1 $587 reversed single #
loop $-1 $-1 $257 $251 #
plane-surface $-1 0 0 12.918928007944052 0 0 1 1 0 0 forward_v I I I I #
coedge $-1 $588 $589 $590 $591 reversed $252 $-1 #
coedge $-1 $592 $254 $256 $419 forward $157 $-1 #
coedge $-1 $254 $592 $588 $593 forward $157 $-1 #
coedge $-1 $590 $257 $254 $416 forward $410 $-1 #
edge $-1 $422 -2.9750013073208414 $594 6.6427547035082561 $415 $595 forward 7 unknown #
coedge $-1 $596 $597 $255 $418 forward $586 $-1 #
edge $-1 $598 -90.17150956324943 $421 -77.827126840472687 $417 $599 forward 7 unknown #
edge $-1 $422 107.99823285732596 $598 131.29306924649802 $256 $600 forward 7 unknown #
coedge $-1 $257 $590 $596 $601 forward $410 $-1 #
vertex $-1 $418 $602 #
vertex $-1 $258 $603 #
straight-curve $-1 11.939212678471598 1.1411246092271341 12.918928007944046 -1 0 0 I I #
coedge $-1 $424 $424 $-1 $604 reversed $261 $-1 #
edge $-1 $605 0 $605 6.2831853071796004 $262 $606 forward 7 unknown #
vertex $-1 $265 $607 #
ellipse-curve $-1 55.76896384911754 -5.7287011127936509 6.7467366465556644 0.52991927123019833 0 0.84804809178421925 0.42402404589210962 0 -0.26495963561509916 1 I I #
coedge $-1 $428 $428 $-1 $608 reversed $268 $-1 #
edge $-1 $609 0 $609 6.2831853071796004 $269 $610 forward 7 unknown #
vertex $-1 $272 $611 #
ellipse-curve $-1 55.76896384911754 -1.6068056795811785 6.7467366465556644 0.52991927123019833 0 0.84804809178421925 0.42402404589210962 0 -0.26495963561509916 1 I I #
face $-1 $-1 $444 $60 $-1 $612 forward single #
loop $-1 $-1 $613 $273 #
plane-surface $-1 -65.646534623248996 0 0 1 0 0 0 0 -1 forward_v I I I I #
coedge $-1 $614 $615 $616 $617 reversed $274 $-1 #
coedge $-1 $618 $276 $278 $442 forward $171 $-1 #
coedge $-1 $276 $618 $614 $619 forward $171 $-1 #
coedge $-1 $616 $279 $276 $439 forward $444 $-1 #
edge $-1 $446 -7.2815529347627219 $620 -1.2780211250168989 $438 $621 forward 7 unknown #
coedge $-1 $622 $623 $277 $441 forward $433 $-1 #
edge $-1 $624 -51.38976387095002 $445 -41.909631668854665 $440 $625 forward 7 unknown #
edge $-1 $446 -16.128564035940606 $624 0 $278 $626 forward 7 unknown #
coedge $-1 $279 $616 $622 $627 forward $444 $-1 #
loop $-1 $-1 $616 $432 #
vertex $-1 $441 $628 #
vertex $-1 $280 $629 #
straight-curve $-1 -71.409332720238922 -11.561339964652532 12.918928007944054 1 0 0 I I #
coedge $-1 $448 $448 $-1 $630 reversed $283 $-1 #
edge $-1 $631 0 $631 6.2831853071796004 $284 $632 forward 7 unknown #
vertex $-1 $287 $633 #
ellipse-curve $-1 -59.122393467276218 -10.360633602703366 8.1788619068963762 -0.5877852598018023 0 0.80901698891910034 0.40450849445955017 0 0.29389262990090115 1 I I #
coedge $-1 $452 $452 $-1 $634 reversed $290 $-1 #
edge $-1 $635 0 $635 6.2831853071796004 $291 $636 forward 7 unknown #
vertex $-1 $294 $637 #
ellipse-curve $-1 -59.122393467276218 -8.5595740597796208 8.1788619068963762 -0.5877852598018023 0 0.80901698891910034 0.40450849445955017 0 0.29389262990090115 1 I I #
coedge $-1 $456 $456 $-1 $638 reversed $297 $-1 #
edge $-1 $639 0 $639 6.2831853071796004 $298 $640 forward 7 unknown #
vertex $-1 $301 $641 #
ellipse-curve $-1 -59.122393467276218 -6.7585145168558753 8.1788619068963762 -0.5877852598018023 0 0.80901698891910034 0.40450849445955017 0 0.29389262990090115 1 I I #
face $-1 $-1 $642 $64 $-1 $643 reversed single #
loop $-1 $-1 $308 $302 #
plane-surface $-1 0 0 12.918928007944052 0 0 1 1 0 0 forward_v I I I I #
coedge $-1 $644 $645 $646 $647 reversed $303 $-1 #
coedge $-1 $648 $305 $307 $470 forward $190 $-1 #
coedge $-1 $305 $648 $644 $649 forward $190 $-1 #
coedge $-1 $646 $308 $305 $467 forward $461 $-1 #
edge $-1 $473 -2.7133816983001218 $650 3.2901501114457012 $466 $651 forward 7 unknown #
coedge $-1 $652 $653 $306 $469 forward $642 $-1 #
edge $-1 $654 -51.38976387095002 $472 -41.909631668854665 $468 $655 forward 7 unknown #
edge $-1 $473 -16.128564035940606 $654 0 $307 $656 forward 7 unknown #
coedge $-1 $308 $646 $652 $657 forward $461 $-1 #
vertex $-1 $469 $658 #
vertex $-1 $309 $659 #
straight-curve $-1 -71.409332720238922 -2.424997491727332 12.918928007944054 1 0 0 I I #
coedge $-1 $475 $475 $-1 $660 reversed $312 $-1 #
edge $-1 $661 0 $661 6.2831853071796004 $313 $662 forward 7 unknown #
vertex $-1 $316 $663 #
ellipse-curve $-1 -59.122393467276218 -1.2242911297781589 8.1788619068963762 -0.5877852598018023 0 0.80901698891910034 0.40450849445955017 0 0.29389262990090115 1 I I #
coedge $-1 $479 $479 $-1 $664 reversed $319 $-1 #
edge $-1 $665 0 $665 6.2831853071796004 $320 $666 forward 7 unknown #
vertex $-1 $323 $667 #
ellipse-curve $-1 -59.122393467276218 0.57676841314557947 8.1788619068963762 -0.5877852598018023 0 0.80901698891910034 0.40450849445955017 0 0.29389262990090115 1 I I #
coedge $-1 $483 $483 $-1 $668 reversed $326 $-1 #
edge $-1 $669 0 $669 6.2831853071796004 $327 $670 forward 7 unknown #
vertex $-1 $330 $671 #
ellipse-curve $-1 -59.122393467276218 2.3778279560693321 8.1788619068963762 -0.5877852598018023 0 0.80901698891910034 0.40450849445955017 0 0.29389262990090115 1 I I #
face $-1 $-1 $672 $68 $-1 $673 reversed single #
loop $-1 $-1 $337 $331 #
plane-surface $-1 0 0 12.918928007944052 0 0 1 1 0 0 forward_v I I I I #
coedge $-1 $674 $675 $676 $677 reversed $332 $-1 #
coedge $-1 $678 $334 $336 $497 forward $209 $-1 #
coedge $-1 $334 $678 $674 $679 forward $209 $-1 #
coedge $-1 $676 $337 $334 $494 forward $488 $-1 #
edge $-1 $500 1.8547895381624819 $680 7.8583213479083049 $493 $681 forward 7 unknown #
coedge $-1 $682 $683 $335 $496 forward $672 $-1 #
edge $-1 $684 -51.38976387095002 $499 -41.909631668854665 $495 $685 forward 7 unknown #
edge $-1 $500 -16.128564035940606 $684 0 $336 $686 forward 7 unknown #
coedge $-1 $337 $676 $682 $687 forward $488 $-1 #
vertex $-1 $338 $688 #
vertex $-1 $338 $689 #
straight-curve $-1 -71.409332720238922 6.7113449811978754 12.918928007944054 1 0 0 I I #
coedge $-1 $502 $502 $-1 $690 reversed $341 $-1 #
edge $-1 $691 0 $691 6.2831853071796004 $342 $692 forward 7 unknown #
vertex $-1 $345 $693 #
ellipse-curve $-1 -59.122393467276218 7.9120513431470485 8.1788619068963762 -0.5877852598018023 0 0.80901698891910034 0.40450849445955017 0 0.29389262990090115 1 I I #
coedge $-1 $506 $506 $-1 $694 reversed $348 $-1 #
edge $-1 $695 0 $695 6.2831853071796004 $349 $696 forward 7 unknown #
vertex $-1 $352 $697 #
ellipse-curve $-1 -59.122393467276218 9.7131108860707869 8.1788619068963762 -0.5877852598018023 0 0.80901698891910034 0.40450849445955017 0 0.29389262990090115 1 I I #
coedge $-1 $510 $510 $-1 $698 reversed $355 $-1 #
edge $-1 $699 0 $699 6.2831853071796004 $356 $700 forward 7 unknown #
vertex $-1 $359 $701 #
ellipse-curve $-1 -59.122393467276218 11.514170428994539 8.1788619068963762 -0.5877852598018023 0 0.80901698891910034 0.40450849445955017 0 0.29389262990090115 1 I I #
face $-1 $-1 $375 $54 $-1 $702 reversed single #
loop $-1 $-1 $530 $360 #
plane-surface $-1 0 34.329849972126929 0 0 -1 0 0 0 -1 forward_v I I I I #
coedge $-1 $703 $528 $531 $704 forward $361 $-1 #
coedge $-1 $534 $363 $364 $522 reversed $228 $-1 #
coedge $-1 $528 $703 $363 $520 reversed $361 $-1 #
edge $-1 $535 -12.918928007944052 $705 12.918928007944052 $519 $706 forward 7 unknown #
coedge $-1 $365 $364 $703 $707 forward $145 $-1 #
edge $-1 $526 -65.646534623248996 $705 65.646534623248996 $518 $708 forward 7 unknown #
coedge $-1 $531 $530 $365 $524 reversed $515 $-1 #
edge $-1 $709 -65.646534623248996 $525 65.646534623248996 $523 $710 forward 7 unknown #
vertex $-1 $367 $711 #
vertex $-1 $537 $712 #
straight-curve $-1 65.646534623248996 0 -12.918928007944052 0 -1 0 I I #
coedge $-1 $517 $519 $368 $529 reversed $361 $-1 #
edge $-1 $532 -34.329849972126929 $535 34.329849972126929 $528 $713 forward 7 unknown #
coedge $-1 $523 $369 $374 $538 forward $515 $-1 #
coedge $-1 $369 $523 $517 $704 reversed $515 $-1 #
vertex $-1 $370 $714 #
straight-curve $-1 0 34.329849972126929 12.918928007944052 -1 0 0 I I #
coedge $-1 $371 $518 $373 $537 reversed $228 $-1 #
vertex $-1 $529 $715 #
straight-curve $-1 0 -34.329849972126929 12.918928007944052 1 0 0 I I #
edge $-1 $376 -12.918928007944052 $526 12.918928007944052 $373 $716 forward 7 unknown #
edge $-1 $377 -12.918928007944052 $525 12.918928007944052 $374 $717 forward 7 unknown #
point $-1 65.646534623248996 -34.329849972126929 12.918928007944052 #
point $-1 65.646534623248996 34.329849972126929 12.918928007944052 #
face $-1 $-1 $718 $55 $-1 $719 reversed single #
loop $-1 $-1 $720 $379 #
plane-surface $-1 0 0 -12.918928007944052 0 0 1 1 0 0 forward_v I I I I #
coedge $-1 $551 $561 $546 $721 forward $380 $-1 #
coedge $-1 $385 $382 $720 $722 reversed $236 $-1 #
coedge $-1 $382 $385 $544 $721 reversed $236 $-1 #
coedge $-1 $723 $724 $382 $548 forward $718 $-1 #
edge $-1 $725 -12.918928007944052 $726 12.918928007944052 $547 $727 forward 7 unknown #
coedge $-1 $720 $388 $383 $550 forward $542 $-1 #
edge $-1 $393 -30.784918615037544 $554 -24.690584748952933 $549 $728 forward 7 unknown #
coedge $-1 $390 $544 $384 $552 forward $380 $-1 #
edge $-1 $553 24.690584748952933 $392 30.784918615037544 $551 $729 forward 7 unknown #
vertex $-1 $552 $730 #
vertex $-1 $550 $731 #
straight-curve $-1 -52.428336430948171 -17.826961291011301 0 0 0 -1 I I #
coedge $-1 $724 $723 $387 $557 forward $718 $-1 #
edge $-1 $562 -12.918928007944052 $559 12.918928007944052 $556 $732 forward 7 unknown #
coedge $-1 $388 $720 $724 $733 forward $542 $-1 #
vertex $-1 $389 $734 #
straight-curve $-1 -58.522670297032782 -13.039202815784558 -12.918928007944052 0 1 0 I I #
coedge $-1 $544 $390 $723 $735 forward $380 $-1 #
vertex $-1 $735 $736 #
straight-curve $-1 -58.522670297032782 -13.039202815784558 12.918928007944052 0 -1 0 I I #
point $-1 -58.522670297032782 -17.826961291011301 12.918928007944052 #
point $-1 -58.522670297032782 -17.826961291011301 -12.918928007944052 #
face $-1 $-1 $580 $56 $-1 $737 reversed single #
loop $-1 $-1 $738 $395 #
plane-surface $-1 0 49.679201826951385 -6.758946914360064 0 -1 0 0 0 -1 forward_v I I I I #
coedge $-1 $576 $739 $399 $573 forward $396 $-1 #
coedge $-1 $405 $398 $740 $741 forward $244 $-1 #
edge $-1 $406 -7.6746759274122311 $742 7.6746759274122311 $400 $743 forward 7 unknown #
coedge $-1 $400 $399 $738 $744 reversed $153 $-1 #
edge $-1 $745 -7.6746759274122311 $574 7.6746759274122311 $399 $746 forward 7 unknown #
vertex $-1 $401 $747 #
straight-curve $-1 65.646534623248996 34.329849972126929 0 0 0 -1 I I #
coedge $-1 $748 $569 $402 $577 reversed $396 $-1 #
edge $-1 $581 -65.646534623248996 $574 65.646534623248996 $576 $749 forward 7 unknown #
coedge $-1 $750 $403 $405 $583 reversed $580 $-1 #
coedge $-1 $403 $750 $748 $751 reversed $580 $-1 #
loop $-1 $-1 $403 $566 #
vertex $-1 $404 $752 #
straight-curve $-1 -65.646534623248996 34.329849972126929 0 0 0 1 I I #
edge $-1 $753 -7.6746759274122311 $407 7.6746759274122311 $578 $754 forward 7 unknown #
point $-1 65.646534623248996 34.329849972126922 -3.8954292829352504 #
point $-1 -65.646534623248996 34.329849972126922 -3.8954292829352504 #
loop $-1 $-1 $417 $409 #
plane-surface $-1 65.646534623248996 0 0 -1 0 0 0 0 1 forward_v I I I I #
coedge $-1 $589 $412 $414 $593 reversed $252 $-1 #
coedge $-1 $412 $588 $755 $756 reversed $252 $-1 #
coedge $-1 $420 $415 $412 $591 forward $410 $-1 #
edge $-1 $594 33.952180396514457 $757 53.707321944777398 $590 $758 forward 7 unknown #
coedge $-1 $414 $413 $597 $759 reversed $157 $-1 #
edge $-1 $760 -131.29306924649802 $594 -107.99823285732596 $588 $761 forward 7 unknown #
vertex $-1 $416 $762 #
straight-curve $-1 45.89139307498607 -1.8338766980937073 12.918928007944046 0 -1 0 I I #
coedge $-1 $755 $417 $420 $601 reversed $586 $-1 #
coedge $-1 $417 $755 $592 $759 forward $586 $-1 #
vertex $-1 $418 $763 #
straight-curve $-1 65.646534623248996 1.1411246092271341 90.746054848416733 0 0 1 I I #
straight-curve $-1 -45.696302215736978 1.1411246092271341 70.149272857847478 0.84804809178421925 0 -0.52991927123019833 I I #
edge $-1 $757 -8.4766314016019635 $421 1.1411246092271341 $596 $764 forward 7 unknown #
point $-1 65.646534623248996 1.1411246092271341 12.918928007944052 #
point $-1 45.891393074986055 1.1411246092271341 12.918928007944054 #
edge $-1 $765 1 $765 0 $424 $-1 forward 7 unknown #
vertex $-1 $425 $766 #
ellipse-curve $-1 55.239044577887356 -5.7287011127936509 5.8986885547714687 0.52991927123019833 0 0.84804809178421925 0.42402404589210962 0 -0.26495963561509916 1 I I #
point $-1 56.192987895009665 -5.7287011127936509 6.481777010940589 #
edge $-1 $767 1 $767 0 $428 $-1 forward 7 unknown #
vertex $-1 $429 $768 #
ellipse-curve $-1 55.239044577887356 -1.6068056795811785 5.8986885547714687 0.52991927123019833 0 0.84804809178421925 0.42402404589210962 0 -0.26495963561509916 1 I I #
point $-1 56.192987895009665 -1.6068056795811785 6.481777010940589 #
plane-surface $-1 0 0 12.918928007944052 0 0 1 1 0 0 forward_v I I I I #
coedge $-1 $623 $622 $615 $769 forward $433 $-1 #
coedge $-1 $615 $435 $437 $619 reversed $274 $-1 #
coedge $-1 $435 $614 $613 $769 reversed $274 $-1 #
coedge $-1 $443 $438 $435 $617 forward $444 $-1 #
edge $-1 $620 -18.811080408935489 $770 -5.7627980969899255 $616 $771 forward 7 unknown #
coedge $-1 $437 $436 $623 $772 reversed $171 $-1 #
edge $-1 $773 0 $620 16.128564035940606 $614 $774 forward 7 unknown #
vertex $-1 $439 $775 #
straight-curve $-1 -52.59825231130344 -4.2797870298898104 12.918928007944052 0 1 0 I I #
coedge $-1 $613 $440 $443 $627 reversed $433 $-1 #
coedge $-1 $440 $613 $618 $772 forward $433 $-1 #
vertex $-1 $441 $776 #
straight-curve $-1 -65.646534623248996 -11.561339964652532 54.828559676798719 0 0 1 I I #
straight-curve $-1 -65.646534623248996 -11.561339964652532 3.4387958058486987 -0.80901698891910034 0 -0.5877852598018023 I I #
edge $-1 $770 5.5578081549067093 $445 11.561339964652532 $622 $777 forward 7 unknown #
point $-1 -65.646534623248996 -11.561339964652532 12.918928007944052 #
point $-1 -52.598252311303433 -11.561339964652532 12.918928007944054 #
edge $-1 $778 1 $778 0 $448 $-1 forward 7 unknown #
vertex $-1 $449 $779 #
ellipse-curve $-1 -58.534608207474413 -10.360633602703366 7.3698449179772778 -0.5877852598018023 0 0.80901698891910034 0.40450849445955017 0 0.29389262990090115 1 I I #
point $-1 -58.71788497281667 -10.360633602703366 8.4727545367972787 #
edge $-1 $780 1 $780 0 $452 $-1 forward 7 unknown #
vertex $-1 $453 $781 #
ellipse-curve $-1 -58.534608207474413 -8.5595740597796208 7.3698449179772778 -0.5877852598018023 0 0.80901698891910034 0.40450849445955017 0 0.29389262990090115 1 I I #
point $-1 -58.71788497281667 -8.5595740597796208 8.4727545367972787 #
edge $-1 $782 1 $782 0 $456 $-1 forward 7 unknown #
vertex $-1 $457 $783 #
ellipse-curve $-1 -58.534608207474413 -6.7585145168558753 7.3698449179772778 -0.5877852598018023 0 0.80901698891910034 0.40450849445955017 0 0.29389262990090115 1 I I #
point $-1 -58.71788497281667 -6.7585145168558753 8.4727545367972787 #
loop $-1 $-1 $468 $460 #
plane-surface $-1 -65.646534623248996 0 0 1 0 0 0 0 -1 forward_v I I I I #
coedge $-1 $645 $463 $465 $649 reversed $303 $-1 #
coedge $-1 $463 $644 $784 $785 reversed $303 $-1 #
coedge $-1 $471 $466 $463 $647 forward $461 $-1 #
edge $-1 $650 -18.811080408935489 $786 -5.7627980969899255 $646 $787 forward 7 unknown #
coedge $-1 $465 $464 $653 $788 reversed $190 $-1 #
edge $-1 $789 0 $650 16.128564035940606 $644 $790 forward 7 unknown #
vertex $-1 $467 $791 #
straight-curve $-1 -52.59825231130344 0.28838420657278974 12.918928007944052 0 1 0 I I #
coedge $-1 $784 $468 $471 $657 reversed $642 $-1 #
coedge $-1 $468 $784 $648 $788 forward $642 $-1 #
vertex $-1 $469 $792 #
straight-curve $-1 -65.646534623248996 -2.424997491727332 54.828559676798719 0 0 1 I I #
straight-curve $-1 -65.646534623248996 -2.424997491727332 3.4387958058486987 -0.80901698891910034 0 -0.5877852598018023 I I #
edge $-1 $786 -3.578534318018491 $472 2.424997491727332 $652 $793 forward 7 unknown #
point $-1 -65.646534623248996 -2.424997491727332 12.918928007944052 #
point $-1 -52.598252311303433 -2.424997491727332 12.918928007944054 #
edge $-1 $794 1 $794 0 $475 $-1 forward 7 unknown #
vertex $-1 $476 $795 #
ellipse-curve $-1 -58.534608207474413 -1.2242911297781589 7.3698449179772778 -0.5877852598018023 0 0.80901698891910034 0.40450849445955017 0 0.29389262990090115 1 I I #
point $-1 -58.71788497281667 -1.2242911297781589 8.4727545367972787 #
edge $-1 $796 1 $796 0 $479 $-1 forward 7 unknown #
vertex $-1 $480 $797 #
ellipse-curve $-1 -58.534608207474413 0.57676841314557947 7.3698449179772778 -0.5877852598018023 0 0.80901698891910034 0.40450849445955017 0 0.29389262990090115 1 I I #
point $-1 -58.71788497281667 0.57676841314557947 8.4727545367972787 #
edge $-1 $798 1 $798 0 $483 $-1 forward 7 unknown #
vertex $-1 $484 $799 #
ellipse-curve $-1 -58.534608207474413 2.3778279560693321 7.3698449179772778 -0.5877852598018023 0 0.80901698891910034 0.40450849445955017 0 0.29389262990090115 1 I I #
point $-1 -58.71788497281667 2.3778279560693321 8.4727545367972787 #
loop $-1 $-1 $495 $487 #
plane-surface $-1 -65.646534623248996 0 0 1 0 0 0 0 -1 forward_v I I I I #
coedge $-1 $675 $490 $492 $679 reversed $332 $-1 #
coedge $-1 $490 $674 $800 $801 reversed $332 $-1 #
coedge $-1 $498 $493 $490 $677 forward $488 $-1 #
edge $-1 $680 -18.811080408935489 $802 -5.7627980969899255 $676 $803 forward 7 unknown #
coedge $-1 $492 $491 $683 $804 reversed $209 $-1 #
edge $-1 $805 0 $680 16.128564035940606 $674 $806 forward 7 unknown #
vertex $-1 $494 $807 #
straight-curve $-1 -52.59825231130344 4.8565554430353934 12.918928007944052 0 1 0 I I #
coedge $-1 $800 $495 $498 $687 reversed $672 $-1 #
coedge $-1 $495 $800 $678 $804 forward $672 $-1 #
vertex $-1 $496 $808 #
straight-curve $-1 -65.646534623248996 6.7113449811978754 54.828559676798719 0 0 1 I I #
straight-curve $-1 -65.646534623248996 6.7113449811978754 3.4387958058486987 -0.80901698891910034 0 -0.5877852598018023 I I #
edge $-1 $802 -12.714876790943698 $499 -6.7113449811978754 $682 $809 forward 7 unknown #
point $-1 -65.646534623248996 6.7113449811978754 12.918928007944052 #
point $-1 -52.598252311303433 6.7113449811978754 12.918928007944054 #
edge $-1 $810 1 $810 0 $502 $-1 forward 7 unknown #
vertex $-1 $503 $811 #
ellipse-curve $-1 -58.534608207474413 7.9120513431470485 7.3698449179772778 -0.5877852598018023 0 0.80901698891910034 0.40450849445955017 0 0.29389262990090115 1 I I #
point $-1 -58.71788497281667 7.9120513431470485 8.4727545367972787 #
edge $-1 $812 1 $812 0 $506 $-1 forward 7 unknown #
vertex $-1 $507 $813 #
ellipse-curve $-1 -58.534608207474413 9.7131108860707869 7.3698449179772778 -0.5877852598018023 0 0.80901698891910034 0.40450849445955017 0 0.29389262990090115 1 I I #
point $-1 -58.71788497281667 9.7131108860707869 8.4727545367972787 #
edge $-1 $814 1 $814 0 $510 $-1 forward 7 unknown #
vertex $-1 $511 $815 #
ellipse-curve $-1 -58.534608207474413 11.514170428994539 7.3698449179772778 -0.5877852598018023 0 0.80901698891910034 0.40450849445955017 0 0.29389262990090115 1 I I #
point $-1 -58.71788497281667 11.514170428994539 8.4727545367972787 #
plane-surface $-1 65.646534623248996 0 0 -1 0 0 0 0 1 forward_v I I I I #
coedge $-1 $519 $517 $521 $707 reversed $361 $-1 #
edge $-1 $532 -12.918928007944052 $709 12.918928007944052 $531 $816 forward 7 unknown #
vertex $-1 $707 $817 #
straight-curve $-1 -65.646534623248996 -34.329849972126929 0 0 0 -1 I I #
edge $-1 $705 -34.329849972126929 $709 34.329849972126929 $703 $818 forward 7 unknown #
straight-curve $-1 0 -34.329849972126929 -12.918928007944052 -1 0 0 I I #
vertex $-1 $524 $819 #
straight-curve $-1 0 34.329849972126929 -12.918928007944052 1 0 0 I I #
point $-1 65.646534623248996 34.329849972126929 -12.918928007944052 #
point $-1 65.646534623248996 -34.329849972126929 -12.918928007944052 #
straight-curve $-1 -65.646534623248996 0 12.918928007944052 0 -1 0 I I #
point $-1 -65.646534623248996 34.329849972126929 12.918928007944052 #
point $-1 -65.646534623248996 -34.329849972126929 12.918928007944052 #
straight-curve $-1 65.646534623248996 -34.329849972126929 0 0 0 -1 I I #
straight-curve $-1 65.646534623248996 34.329849972126929 0 0 0 -1 I I #
loop $-1 $-1 $547 $541 #
plane-surface $-1 0 -34.329849972126929 0 0 1 0 0 0 1 forward_v I I I I #
coedge $-1 $558 $549 $545 $722 forward $542 $-1 #
edge $-1 $726 -21.290647156342374 $553 -4.7877584752267435 $544 $820 forward 7 unknown #
edge $-1 $554 4.7877584752267435 $725 21.290647156342374 $720 $821 forward 7 unknown #
coedge $-1 $556 $547 $561 $735 reversed $718 $-1 #
coedge $-1 $547 $556 $558 $733 reversed $718 $-1 #
vertex $-1 $733 $822 #
vertex $-1 $548 $823 #
straight-curve $-1 -52.428336430948171 -34.329849972126929 0 0 0 1 I I #
straight-curve $-1 -27.737751681995238 -17.826961291011301 -12.918928007944052 1 0 0 I I #
straight-curve $-1 -27.737751681995238 -17.826961291011301 12.918928007944052 -1 0 0 I I #
point $-1 -52.428336430948171 -17.826961291011301 12.918928007944052 #
point $-1 -52.428336430948171 -17.826961291011301 -12.918928007944052 #
straight-curve $-1 -58.522670297032782 -34.329849972126929 0 0 0 -1 I I #
edge $-1 $725 52.428336430948171 $559 58.522670297032782 $724 $824 forward 7 unknown #
point $-1 -58.522670297032782 -34.329849972126929 -12.918928007944052 #
edge $-1 $562 -58.522670297032782 $726 -52.428336430948171 $723 $825 forward 7 unknown #
point $-1 -58.522670297032782 -34.329849972126929 12.918928007944052 #
plane-surface $-1 -65.646534623248996 0 0 1 0 0 0 0 -1 forward_v I I I I #
coedge $-1 $826 $740 $572 $744 forward $567 $-1 #
coedge $-1 $569 $748 $826 $827 forward $396 $-1 #
coedge $-1 $738 $828 $570 $741 reversed $567 $-1 #
edge $-1 $742 -65.646534623248996 $753 65.646534623248996 $740 $829 forward 7 unknown #
vertex $-1 $571 $830 #
straight-curve $-1 65.646534623248996 42.004525899539153 -3.8954292829352504 0 1 0 I I #
edge $-1 $742 -2.8635176314248136 $745 2.8635176314248136 $572 $831 forward 7 unknown #
vertex $-1 $573 $832 #
straight-curve $-1 65.646534623248996 42.004525899539153 -9.6224645457848776 0 -1 0 I I #
point $-1 65.646534623248996 34.329849972126922 -9.6224645457848776 #
coedge $-1 $739 $576 $579 $751 forward $396 $-1 #
straight-curve $-1 0 34.329849972126929 -9.6224645457848776 1 0 0 I I #
coedge $-1 $579 $578 $828 $833 forward $580 $-1 #
edge $-1 $581 -7.6746759274122311 $834 7.6746759274122311 $579 $835 forward 7 unknown #
point $-1 -65.646534623248996 34.329849972126922 -9.6224645457848776 #
vertex $-1 $741 $836 #
straight-curve $-1 -65.646534623248996 42.004525899539153 -3.8954292829352504 0 -1 0 I I #
coedge $-1 $597 $596 $589 $756 forward $586 $-1 #
edge $-1 $757 77.827126840472687 $760 90.17150956324943 $755 $837 forward 7 unknown #
vertex $-1 $601 $838 #
straight-curve $-1 11.939212678471598 -8.4766314016019635 12.918928007944046 1 0 0 I I #
edge $-1 $760 -6.6427547035082561 $598 2.9750013073208414 $597 $839 forward 7 unknown #
vertex $-1 $759 $840 #
straight-curve $-1 -45.696302215736978 -8.4766314016019635 70.149272857847478 -0.84804809178421925 0 0.52991927123019833 I I #
point $-1 45.891393074986055 -8.4766314016019635 12.918928007944054 #
point $-1 65.646534623249011 1.1411246092271341 0.57454528516730363 #
straight-curve $-1 65.646534623248996 0 12.918928007944052 0 1 0 I I #
vertex $-1 $604 $841 #
point $-1 55.663068623779466 -5.7287011127936509 5.6337289191563702 #
vertex $-1 $608 $842 #
point $-1 55.663068623779466 -1.6068056795811785 5.6337289191563702 #
edge $-1 $770 41.909631668854665 $773 51.38976387095002 $613 $843 forward 7 unknown #
vertex $-1 $627 $844 #
straight-curve $-1 -71.409332720238922 -5.5578081549067093 12.918928007944054 -1 0 0 I I #
edge $-1 $773 1.2780211250168989 $624 7.2815529347627219 $623 $845 forward 7 unknown #
vertex $-1 $772 $846 #
straight-curve $-1 -65.646534623248996 -5.5578081549067093 3.4387958058486987 0.80901698891910034 0 0.5877852598018023 I I #
point $-1 -52.598252311303433 -5.5578081549067093 12.918928007944054 #
point $-1 -65.646534623248996 -11.561339964652532 3.4387958058486987 #
straight-curve $-1 -65.646534623248996 0 12.918928007944052 0 -1 0 I I #
vertex $-1 $630 $847 #
point $-1 -58.130099713014864 -10.360633602703366 7.6637375478781786 #
vertex $-1 $634 $848 #
point $-1 -58.130099713014864 -8.5595740597796208 7.6637375478781786 #
vertex $-1 $638 $849 #
point $-1 -58.130099713014864 -6.7585145168558753 7.6637375478781786 #
coedge $-1 $653 $652 $645 $785 forward $642 $-1 #
edge $-1 $786 41.909631668854665 $789 51.38976387095002 $784 $850 forward 7 unknown #
vertex $-1 $657 $851 #
straight-curve $-1 -71.409332720238922 3.578534318018491 12.918928007944054 -1 0 0 I I #
edge $-1 $789 -3.2901501114457012 $654 2.7133816983001218 $653 $852 forward 7 unknown #
vertex $-1 $788 $853 #
straight-curve $-1 -65.646534623248996 3.578534318018491 3.4387958058486987 0.80901698891910034 0 0.5877852598018023 I I #
point $-1 -52.598252311303433 3.578534318018491 12.918928007944054 #
point $-1 -65.646534623248996 -2.424997491727332 3.4387958058486987 #
straight-curve $-1 -65.646534623248996 0 12.918928007944052 0 -1 0 I I #
vertex $-1 $660 $854 #
point $-1 -58.130099713014864 -1.2242911297781589 7.6637375478781786 #
vertex $-1 $664 $855 #
point $-1 -58.130099713014864 0.57676841314557947 7.6637375478781786 #
vertex $-1 $668 $856 #
point $-1 -58.130099713014864 2.3778279560693321 7.6637375478781786 #
coedge $-1 $683 $682 $675 $801 forward $672 $-1 #
edge $-1 $802 41.909631668854665 $805 51.38976387095002 $800 $857 forward 7 unknown #
vertex $-1 $687 $858 #
straight-curve $-1 -71.409332720238922 12.714876790943698 12.918928007944054 -1 0 0 I I #
edge $-1 $805 -7.8583213479083049 $684 -1.8547895381624819 $683 $859 forward 7 unknown #
vertex $-1 $804 $860 #
straight-curve $-1 -65.646534623248996 12.714876790943698 3.4387958058486987 0.80901698891910034 0 0.5877852598018023 I I #
point $-1 -52.598252311303433 12.714876790943698 12.918928007944054 #
point $-1 -65.646534623248996 6.7113449811978754 3.4387958058486987 #
straight-curve $-1 -65.646534623248996 0 12.918928007944052 0 -1 0 I I #
vertex $-1 $690 $861 #
point $-1 -58.130099713014864 7.9120513431470485 7.6637375478781786 #
vertex $-1 $694 $862 #
point $-1 -58.130099713014864 9.7131108860707869 7.6637375478781786 #
vertex $-1 $698 $863 #
point $-1 -58.130099713014864 11.514170428994539 7.6637375478781786 #
straight-curve $-1 -65.646534623248996 34.329849972126929 0 0 0 -1 I I #
point $-1 -65.646534623248996 -34.329849972126929 -12.918928007944052 #
straight-curve $-1 -65.646534623248996 0 -12.918928007944052 0 1 0 I I #
point $-1 -65.646534623248996 34.329849972126929 -12.918928007944052 #
straight-curve $-1 -52.428336430948171 -13.039202815784558 12.918928007944052 0 1 0 I I #
straight-curve $-1 -52.428336430948171 -13.039202815784558 -12.918928007944052 0 -1 0 I I #
point $-1 -52.428336430948171 -34.329849972126929 -12.918928007944052 #
point $-1 -52.428336430948171 -34.329849972126929 12.918928007944052 #
straight-curve $-1 0 -34.329849972126929 -12.918928007944052 -1 0 0 I I #
straight-curve $-1 0 -34.329849972126929 12.918928007944052 1 0 0 I I #
coedge $-1 $828 $738 $739 $827 reversed $567 $-1 #
edge $-1 $834 -65.646534623248996 $745 65.646534623248996 $826 $864 forward 7 unknown #
coedge $-1 $740 $826 $750 $833 reversed $567 $-1 #
straight-curve $-1 0 49.679201826951385 -3.8954292829352504 -1 0 0 I I #
point $-1 65.646534623248996 49.679201826951385 -3.8954292829352504 #
straight-curve $-1 65.646534623248996 49.679201826951385 -6.758946914360064 0 0 -1 I I #
point $-1 65.646534623248996 49.679201826951385 -9.6224645457848776 #
edge $-1 $753 -2.8635176314248136 $834 2.8635176314248136 $828 $865 forward 7 unknown #
vertex $-1 $827 $866 #
straight-curve $-1 -65.646534623248996 42.004525899539153 -9.6224645457848776 0 1 0 I I #
point $-1 -65.646534623248996 49.679201826951385 -3.8954292829352504 #
straight-curve $-1 65.646534623248996 -8.4766314016019635 90.746054848416733 0 0 -1 I I #
point $-1 65.646534623248996 -8.4766314016019635 12.918928007944052 #
straight-curve $-1 65.646534623248996 -1.8338766980937073 0.57454528516729653 0 1 0 I I #
point $-1 65.646534623249011 -8.4766314016019635 0.57454528516730363 #
point $-1 54.974084942272256 -5.7287011127936509 5.4746645088793597 #
point $-1 54.974084942272256 -1.6068056795811785 5.4746645088793597 #
straight-curve $-1 -65.646534623248996 -5.5578081549067093 54.828559676798719 0 0 -1 I I #
point $-1 -65.646534623248996 -5.5578081549067093 12.918928007944052 #
straight-curve $-1 -65.646534623248996 -4.2797870298898104 3.4387958058487014 0 -1 0 I I #
point $-1 -65.646534623248996 -5.5578081549067093 3.4387958058486987 #
point $-1 -58.240715577573518 -10.360633602703366 6.9653364235177273 #
point $-1 -58.240715577573518 -8.5595740597796208 6.9653364235177273 #
point $-1 -58.240715577573518 -6.7585145168558753 6.9653364235177273 #
straight-curve $-1 -65.646534623248996 3.578534318018491 54.828559676798719 0 0 -1 I I #
point $-1 -65.646534623248996 3.578534318018491 12.918928007944052 #
straight-curve $-1 -65.646534623248996 0.28838420657278974 3.4387958058487014 0 -1 0 I I #
point $-1 -65.646534623248996 3.578534318018491 3.4387958058486987 #
point $-1 -58.240715577573518 -1.2242911297781589 6.9653364235177273 #
point $-1 -58.240715577573518 0.57676841314557947 6.9653364235177273 #
point $-1 -58.240715577573518 2.3778279560693321 6.9653364235177273 #
straight-curve $-1 -65.646534623248996 12.714876790943698 54.828559676798719 0 0 -1 I I #
point $-1 -65.646534623248996 12.714876790943698 12.918928007944052 #
straight-curve $-1 -65.646534623248996 4.8565554430353934 3.4387958058487014 0 -1 0 I I #
point $-1 -65.646534623248996 12.714876790943698 3.4387958058486987 #
point $-1 -58.240715577573518 7.9120513431470485 6.9653364235177273 #
point $-1 -58.240715577573518 9.7131108860707869 6.9653364235177273 #
point $-1 -58.240715577573518 11.514170428994539 6.9653364235177273 #
straight-curve $-1 0 49.679201826951385 -9.6224645457848776 1 0 0 I I #
straight-curve $-1 -65.646534623248996 49.679201826951385 -6.758946914360064 0 0 -1 I I #
point $-1 -65.646534623248996 49.679201826951385 -9.6224645457848776 #
End-of-ACIS-data 