500 0 8 0           
7 Unknown 11 ACIS 5.0 NT 24 Thu Mar 25 18:52:10 1999 
-1 9.9999999999999995e-007 1e-010 
body $-1 $8 $-1 $9 #
body $-1 $10 $-1 $11 #
body $-1 $12 $-1 $13 #
body $-1 $14 $-1 $15 #
body $-1 $16 $-1 $17 #
body $-1 $18 $-1 $19 #
body $-1 $20 $-1 $21 #
body $-1 $22 $-1 $23 #
lump $-1 $-1 $24 $0 #
transform $-1 1 0 0 0 1 0 0 0 1 47.257301553392132 20.760358857100549 6.6593189440390255 1 rotate no_reflect no_shear #
lump $-1 $-1 $25 $1 #
transform $-1 1 0 0 0 1 0 0 0 1 47.257301553392132 20.760358857100549 6.6593189440390255 1 rotate no_reflect no_shear #
lump $-1 $-1 $26 $2 #
transform $-1 1 0 0 0 1 0 0 0 1 47.257301553392132 20.760358857100549 6.6593189440390255 1 rotate no_reflect no_shear #
lump $-1 $-1 $27 $3 #
transform $-1 1 0 0 0 1 0 0 0 1 47.257301553392132 20.760358857100549 6.6593189440390255 1 rotate no_reflect no_shear #
lump $-1 $-1 $28 $4 #
transform $-1 1 0 0 0 1 0 0 0 1 47.257301553392132 20.760358857100549 6.6593189440390255 1 rotate no_reflect no_shear #
lump $-1 $-1 $29 $5 #
transform $-1 1 0 0 0 1 0 0 0 1 47.257301553392132 20.760358857100549 6.6593189440390255 1 rotate no_reflect no_shear #
lump $-1 $-1 $30 $6 #
transform $-1 1 0 0 0 1 0 0 0 1 47.257301553392132 20.760358857100549 6.6593189440390255 1 rotate no_reflect no_shear #
lump $-1 $-1 $31 $7 #
transform $-1 1 0 0 0 1 0 0 0 1 47.257301553392132 20.760358857100549 6.6593189440390255 1 rotate no_reflect no_shear #
shell $-1 $-1 $-1 $32 $-1 $8 #
shell $-1 $-1 $-1 $33 $-1 $10 #
shell $-1 $-1 $-1 $34 $-1 $12 #
shell $-1 $-1 $-1 $35 $-1 $14 #
shell $-1 $-1 $-1 $36 $-1 $16 #
shell $-1 $-1 $-1 $37 $-1 $18 #
shell $-1 $-1 $-1 $38 $-1 $20 #
shell $-1 $-1 $-1 $39 $-1 $22 #
face $-1 $40 $41 $24 $-1 $42 forward single #
face $-1 $43 $44 $25 $-1 $45 reversed single #
face $-1 $46 $47 $26 $-1 $48 reversed single #
face $-1 $49 $50 $27 $-1 $51 forward single #
face $-1 $52 $53 $28 $-1 $54 forward single #
face $-1 $55 $56 $29 $-1 $57 reversed single #
face $-1 $58 $59 $30 $-1 $60 forward single #
face $-1 $61 $62 $31 $-1 $63 forward single #
face $-1 $64 $65 $24 $-1 $66 reversed single #
loop $-1 $-1 $67 $32 #
plane-surface $-1 0 0 6.6593189440390255 0 0 1 1 0 0 forward_v I I I I #
face $-1 $68 $69 $25 $-1 $70 reversed single #
loop $-1 $-1 $71 $33 #
plane-surface $-1 0 -17.062635187150132 3.6593189440390255 0 0 1 1 0 0 forward_v I I I I #
face $-1 $72 $73 $26 $-1 $74 reversed single #
loop $-1 $-1 $75 $34 #
plane-surface $-1 63.546826964593215 5.5691492955674118 132.69655940072511 0 -1 0 -0.78801076186113728 0 -0.61566146476048833 forward_v I I I I #
face $-1 $76 $77 $27 $-1 $78 forward single #
loop $-1 $79 $80 $35 #
cone-surface $-1 44.273223865851726 0.87984969798458224 3.0363467444222847 -0.78801076186113728 0 -0.61566146476048833 0.15391536619012208 0 -0.19700269046528432 1 I I 0 1 0.25 forward I I I I #
face $-1 $81 $82 $28 $-1 $83 forward single #
loop $-1 $84 $85 $36 #
cone-surface $-1 44.273223865851726 3.6934294565342825 3.0363467444222847 -0.78801076186113728 0 -0.61566146476048833 0.15391536619012208 0 -0.19700269046528432 1 I I 0 1 0.25 forward I I I I #
face $-1 $86 $87 $29 $-1 $88 reversed single #
loop $-1 $-1 $89 $37 #
plane-surface $-1 -47.257301553392132 -9.7332898810284263 1.0504334845311121 -0.54463904215088732 0 0.83867056331134215 0.83867056331134215 0 0.54463904215088732 forward_v I I I I #
face $-1 $90 $91 $30 $-1 $92 forward single #
loop $-1 $93 $94 $38 #
cone-surface $-1 -42.441733028976863 -11.289699153673265 3.089400882256105 0.54463904215088732 0 -0.83867056331134215 0.41933528165567108 0 0.27231952107544366 1 I I 0 1 0.5 forward I I I I #
face $-1 $95 $96 $31 $-1 $97 forward single #
loop $-1 $98 $99 $39 #
cone-surface $-1 -42.441733028976863 -8.1768806083835859 3.089400882256105 0.54463904215088732 0 -0.83867056331134215 0.41933528165567108 0 0.27231952107544366 1 I I 0 1 0.5 forward I I I I #
face $-1 $100 $101 $24 $-1 $102 reversed single #
loop $-1 $-1 $103 $40 #
plane-surface $-1 0 0 -6.6593189440390255 0 0 1 1 0 0 forward_v I I I I #
coedge $-1 $104 $105 $106 $107 forward $41 $-1 #
face $-1 $108 $109 $25 $-1 $110 reversed single #
loop $-1 $-1 $111 $43 #
plane-surface $-1 0 -13.364911517199717 5.1593189440390255 0 -1 0 0 0 -1 forward_v I I I I #
coedge $-1 $112 $113 $114 $115 reversed $44 $-1 #
face $-1 $116 $117 $26 $-1 $118 reversed single #
loop $-1 $-1 $119 $46 #
plane-surface $-1 -10.931697436586866 2.2866395772594288 74.507560410746109 0.78801076186113728 0 0.61566146476048833 0.61566146476048833 0 -0.78801076186113728 forward_v I I I I #
coedge $-1 $120 $121 $122 $123 reversed $47 $-1 #
face $-1 $-1 $124 $27 $-1 $125 forward single #
loop $-1 $126 $127 $49 #
cone-surface $-1 43.780717139688512 0.87984969798458224 2.6515583289469795 -0.78801076186113728 0 -0.61566146476048833 0.076957683095061041 0 -0.09850134523264216 1 I I -0.70710678118654746 0.70710678118654746 0.125 forward I I I I #
loop $-1 $-1 $128 $35 #
coedge $-1 $80 $80 $129 $130 reversed $50 $-1 #
face $-1 $-1 $131 $28 $-1 $132 forward single #
loop $-1 $133 $134 $52 #
cone-surface $-1 43.780717139688512 3.6934294565342825 2.6515583289469795 -0.78801076186113728 0 -0.61566146476048833 0.076957683095061041 0 -0.09850134523264216 1 I I -0.70710678118654746 0.70710678118654746 0.125 forward I I I I #
loop $-1 $-1 $135 $36 #
coedge $-1 $85 $85 $136 $137 reversed $53 $-1 #
face $-1 $138 $139 $29 $-1 $140 forward single #
loop $-1 $-1 $141 $55 #
plane-surface $-1 -98.73364445874239 -6.1016682448571338 80.317048913245799 0 -1 0 0.54463904215088732 0 -0.83867056331134215 forward_v I I I I #
coedge $-1 $142 $143 $144 $145 reversed $56 $-1 #
face $-1 $-1 $146 $30 $-1 $147 forward single #
loop $-1 $148 $149 $58 #
cone-surface $-1 -41.808467766154308 -11.289699153673265 2.1142579093993028 0.54463904215088732 0 -0.83867056331134215 0.20966764082783554 0 0.13615976053772183 1 I I -0.70710678118654746 0.70710678118654746 0.25 forward I I I I #
loop $-1 $-1 $150 $38 #
coedge $-1 $94 $94 $151 $152 reversed $59 $-1 #
face $-1 $-1 $153 $31 $-1 $154 forward single #
loop $-1 $155 $156 $61 #
cone-surface $-1 -41.808467766154308 -8.1768806083835859 2.1142579093993028 0.54463904215088732 0 -0.83867056331134215 0.20966764082783554 0 0.13615976053772183 1 I I -0.70710678118654746 0.70710678118654746 0.25 forward I I I I #
loop $-1 $-1 $157 $39 #
coedge $-1 $99 $99 $158 $159 reversed $62 $-1 #
face $-1 $160 $161 $24 $-1 $162 reversed single #
loop $-1 $-1 $163 $64 #
plane-surface $-1 0 -20.760358857100549 0 0 1 0 0 0 1 forward_v I I I I #
coedge $-1 $164 $165 $166 $167 forward $65 $-1 #
coedge $-1 $168 $67 $169 $170 forward $41 $-1 #
coedge $-1 $67 $168 $171 $172 forward $41 $-1 #
coedge $-1 $173 $174 $67 $107 reversed $175 $-1 #
edge $-1 $176 -20.760358857100549 $177 20.760358857100549 $106 $178 forward 7 unknown #
face $-1 $179 $180 $25 $-1 $181 reversed single #
loop $-1 $-1 $182 $68 #
plane-surface $-1 -47.257301553392132 0 0 1 0 0 0 0 -1 forward_v I I I I #
coedge $-1 $183 $184 $185 $186 reversed $69 $-1 #
coedge $-1 $187 $71 $188 $189 reversed $44 $-1 #
coedge $-1 $71 $187 $183 $190 forward $44 $-1 #
coedge $-1 $185 $191 $71 $115 forward $192 $-1 #
edge $-1 $193 -12.229041263525483 $194 -4.833593923624651 $114 $195 forward 7 unknown #
face $-1 $196 $197 $26 $-1 $198 reversed single #
loop $-1 $-1 $199 $72 #
plane-surface $-1 63.546826964593215 -0.9958701410485542 132.69655940072511 0 1 0 0.78801076186113728 0 0.61566146476048833 forward_v I I I I #
coedge $-1 $200 $201 $202 $203 reversed $73 $-1 #
coedge $-1 $121 $75 $204 $205 reversed $47 $-1 #
coedge $-1 $75 $120 $200 $206 reversed $47 $-1 #
coedge $-1 $202 $207 $75 $123 forward $208 $-1 #
edge $-1 $209 -15.483888071095524 $210 -10.303743457875836 $122 $211 forward 7 unknown #
loop $-1 $-1 $129 $76 #
plane-surface $-1 -10.931697436586866 2.2866395772594288 74.507560410746109 0.78801076186113728 0 0.61566146476048833 0.61566146476048833 0 -0.78801076186113728 forward_v I I I I #
loop $-1 $-1 $212 $49 #
coedge $-1 $127 $127 $128 $213 reversed $77 $-1 #
coedge $-1 $128 $128 $127 $213 forward $79 $-1 #
coedge $-1 $129 $129 $80 $130 forward $124 $-1 #
edge $-1 $214 0 $214 6.2831853071796004 $129 $215 forward 7 unknown #
loop $-1 $-1 $136 $81 #
plane-surface $-1 -10.931697436586866 2.2866395772594288 74.507560410746109 0.78801076186113728 0 0.61566146476048833 0.61566146476048833 0 -0.78801076186113728 forward_v I I I I #
loop $-1 $-1 $216 $52 #
coedge $-1 $134 $134 $135 $217 reversed $82 $-1 #
coedge $-1 $135 $135 $134 $217 forward $84 $-1 #
coedge $-1 $136 $136 $85 $137 forward $131 $-1 #
edge $-1 $218 0 $218 6.2831853071796004 $136 $219 forward 7 unknown #
face $-1 $220 $221 $29 $-1 $222 reversed single #
loop $-1 $-1 $144 $86 #
plane-surface $-1 0 0 6.6593189440390255 0 0 1 1 0 0 forward_v I I I I #
coedge $-1 $223 $224 $225 $226 reversed $87 $-1 #
coedge $-1 $227 $89 $228 $229 reversed $56 $-1 #
coedge $-1 $89 $227 $223 $230 forward $56 $-1 #
coedge $-1 $225 $231 $89 $145 forward $139 $-1 #
edge $-1 $232 -8.4982665766855057 $233 -1.2350233043429206 $144 $234 forward 7 unknown #
loop $-1 $-1 $151 $90 #
plane-surface $-1 -47.257301553392132 -9.7332898810284263 1.0504334845311121 -0.54463904215088732 0 0.83867056331134215 0.83867056331134215 0 0.54463904215088732 forward_v I I I I #
loop $-1 $-1 $235 $58 #
coedge $-1 $149 $149 $150 $236 reversed $91 $-1 #
coedge $-1 $150 $150 $149 $236 forward $93 $-1 #
coedge $-1 $151 $151 $94 $152 forward $146 $-1 #
edge $-1 $237 0 $237 6.2831853071796004 $151 $238 forward 7 unknown #
loop $-1 $-1 $158 $95 #
plane-surface $-1 -47.257301553392132 -9.7332898810284263 1.0504334845311121 -0.54463904215088732 0 0.83867056331134215 0.83867056331134215 0 0.54463904215088732 forward_v I I I I #
loop $-1 $-1 $239 $61 #
coedge $-1 $156 $156 $157 $240 reversed $96 $-1 #
coedge $-1 $157 $157 $156 $240 forward $98 $-1 #
coedge $-1 $158 $158 $99 $159 forward $153 $-1 #
edge $-1 $241 0 $241 6.2831853071796004 $158 $242 forward 7 unknown #
face $-1 $243 $244 $24 $-1 $245 reversed single #
loop $-1 $-1 $246 $100 #
plane-surface $-1 -47.257301553392132 0 0 1 0 0 0 0 -1 forward_v I I I I #
coedge $-1 $247 $171 $248 $249 forward $101 $-1 #
coedge $-1 $250 $103 $247 $251 forward $65 $-1 #
coedge $-1 $103 $250 $252 $253 forward $65 $-1 #
coedge $-1 $174 $173 $103 $167 reversed $175 $-1 #
edge $-1 $254 -20.760358857100549 $255 20.760358857100549 $166 $256 forward 7 unknown #
coedge $-1 $105 $104 $257 $258 forward $41 $-1 #
coedge $-1 $259 $260 $104 $170 reversed $244 $-1 #
edge $-1 $177 -47.257301553392132 $261 47.257301553392132 $169 $262 forward 7 unknown #
coedge $-1 $163 $263 $105 $172 reversed $101 $-1 #
edge $-1 $264 -47.257301553392132 $176 47.257301553392132 $171 $265 forward 7 unknown #
coedge $-1 $166 $106 $263 $266 forward $175 $-1 #
coedge $-1 $106 $166 $259 $267 reversed $175 $-1 #
loop $-1 $-1 $173 $243 #
vertex $-1 $107 $268 #
vertex $-1 $107 $269 #
straight-curve $-1 47.257301553392132 0 6.6593189440390255 0 1 0 I I #
face $-1 $270 $271 $25 $-1 $272 forward single #
loop $-1 $-1 $188 $108 #
plane-surface $-1 0 -20.760358857100549 0 0 1 0 0 0 1 forward_v I I I I #
coedge $-1 $273 $274 $275 $276 forward $109 $-1 #
coedge $-1 $275 $111 $113 $190 reversed $69 $-1 #
coedge $-1 $111 $275 $277 $278 reversed $69 $-1 #
coedge $-1 $279 $114 $111 $186 forward $192 $-1 #
edge $-1 $194 1.0796594720195127 $280 4.0796594720195127 $185 $281 forward 7 unknown #
coedge $-1 $113 $112 $273 $282 reversed $44 $-1 #
coedge $-1 $283 $284 $112 $189 forward $180 $-1 #
edge $-1 $285 -47.257301553392132 $193 47.257301553392132 $188 $286 forward 7 unknown #
edge $-1 $287 -47.257301553392132 $194 47.257301553392132 $183 $288 forward 7 unknown #
coedge $-1 $114 $279 $283 $289 forward $192 $-1 #
loop $-1 $-1 $185 $270 #
vertex $-1 $189 $290 #
vertex $-1 $115 $291 #
straight-curve $-1 47.257301553392132 -8.531317593575066 3.6593189440390255 0 1 0 I I #
face $-1 $-1 $208 $26 $-1 $292 forward single #
loop $-1 $-1 $293 $116 #
plane-surface $-1 47.257301553392132 0 0 -1 0 0 0 0 1 forward_v I I I I #
coedge $-1 $294 $295 $296 $297 reversed $117 $-1 #
coedge $-1 $298 $119 $121 $206 forward $73 $-1 #
coedge $-1 $119 $298 $294 $299 forward $73 $-1 #
coedge $-1 $296 $122 $119 $203 forward $208 $-1 #
edge $-1 $210 -4.4258295069376974 $300 2.1391899296782686 $202 $301 forward 7 unknown #
coedge $-1 $302 $303 $120 $205 forward $197 $-1 #
edge $-1 $304 -66.319243690796526 $209 -59.688960756323524 $204 $305 forward 7 unknown #
edge $-1 $210 86.100653379989311 $304 94.514603106784264 $121 $306 forward 7 unknown #
coedge $-1 $122 $296 $302 $307 forward $208 $-1 #
loop $-1 $-1 $296 $196 #
vertex $-1 $205 $308 #
vertex $-1 $123 $309 #
straight-curve $-1 31.773413482296608 5.5691492955674118 6.659318944039029 -1 0 0 I I #
coedge $-1 $212 $212 $-1 $310 reversed $126 $-1 #
edge $-1 $311 0 $311 6.2831853071796004 $127 $312 forward 7 unknown #
vertex $-1 $130 $313 #
ellipse-curve $-1 44.667229246782291 0.87984969798458224 3.3441774768025243 0.78801076186113728 0 0.61566146476048833 0.15391536619012208 0 -0.19700269046528432 1 I I #
coedge $-1 $216 $216 $-1 $314 reversed $133 $-1 #
edge $-1 $315 0 $315 6.2831853071796004 $134 $316 forward 7 unknown #
vertex $-1 $137 $317 #
ellipse-curve $-1 44.667229246782291 3.6934294565342825 3.3441774768025243 0.78801076186113728 0 0.61566146476048833 0.15391536619012208 0 -0.19700269046528432 1 I I #
face $-1 $-1 $318 $29 $-1 $319 forward single #
loop $-1 $-1 $320 $138 #
plane-surface $-1 -47.257301553392132 0 0 1 0 0 0 0 -1 forward_v I I I I #
coedge $-1 $224 $141 $143 $230 reversed $87 $-1 #
coedge $-1 $141 $223 $320 $321 reversed $87 $-1 #
coedge $-1 $322 $144 $141 $226 forward $139 $-1 #
edge $-1 $233 -10.746446720239945 $323 -2.1095206759790628 $225 $324 forward 7 unknown #
coedge $-1 $143 $142 $325 $326 reversed $56 $-1 #
coedge $-1 $327 $328 $142 $229 forward $318 $-1 #
edge $-1 $329 -20.935583577665721 $232 -10.637229942646615 $228 $330 forward 7 unknown #
edge $-1 $331 0 $233 10.298353635019105 $223 $332 forward 7 unknown #
coedge $-1 $144 $322 $327 $333 forward $139 $-1 #
vertex $-1 $229 $334 #
vertex $-1 $145 $335 #
straight-curve $-1 -38.62037550913125 -4.8666449405142131 6.6593189440390255 0 1 0 I I #
coedge $-1 $235 $235 $-1 $336 reversed $148 $-1 #
edge $-1 $337 0 $337 6.2831853071796004 $149 $338 forward 7 unknown #
vertex $-1 $152 $339 #
ellipse-curve $-1 -42.938838531261695 -11.289699153673265 3.8548762142850679 -0.54463904215088732 0 0.83867056331134215 0.41933528165567108 0 0.27231952107544366 1 I I #
coedge $-1 $239 $239 $-1 $340 reversed $155 $-1 #
edge $-1 $341 0 $341 6.2831853071796004 $156 $342 forward 7 unknown #
vertex $-1 $159 $343 #
ellipse-curve $-1 -42.938838531261695 -8.1768806083835859 3.8548762142850679 -0.54463904215088732 0 0.83867056331134215 0.41933528165567108 0 0.27231952107544366 1 I I #
face $-1 $-1 $175 $24 $-1 $344 reversed single #
loop $-1 $-1 $259 $160 #
plane-surface $-1 0 20.760358857100549 0 0 -1 0 0 0 -1 forward_v I I I I #
coedge $-1 $345 $257 $260 $346 forward $161 $-1 #
coedge $-1 $263 $163 $164 $251 reversed $101 $-1 #
coedge $-1 $257 $345 $163 $249 reversed $161 $-1 #
edge $-1 $264 -6.6593189440390255 $347 6.6593189440390255 $248 $348 forward 7 unknown #
coedge $-1 $165 $164 $345 $349 forward $65 $-1 #
edge $-1 $255 -47.257301553392132 $347 47.257301553392132 $247 $350 forward 7 unknown #
coedge $-1 $260 $259 $165 $253 reversed $244 $-1 #
edge $-1 $351 -47.257301553392132 $254 47.257301553392132 $252 $352 forward 7 unknown #
vertex $-1 $167 $353 #
vertex $-1 $266 $354 #
straight-curve $-1 47.257301553392132 0 -6.6593189440390255 0 -1 0 I I #
coedge $-1 $246 $248 $168 $258 reversed $161 $-1 #
edge $-1 $261 -20.760358857100549 $264 20.760358857100549 $257 $355 forward 7 unknown #
coedge $-1 $252 $169 $174 $267 forward $244 $-1 #
coedge $-1 $169 $252 $246 $346 reversed $244 $-1 #
vertex $-1 $170 $356 #
straight-curve $-1 0 20.760358857100549 6.6593189440390255 -1 0 0 I I #
coedge $-1 $171 $247 $173 $266 reversed $101 $-1 #
vertex $-1 $258 $357 #
straight-curve $-1 0 -20.760358857100549 6.6593189440390255 1 0 0 I I #
edge $-1 $176 -6.6593189440390255 $255 6.6593189440390255 $173 $358 forward 7 unknown #
edge $-1 $177 -6.6593189440390255 $254 6.6593189440390255 $174 $359 forward 7 unknown #
point $-1 47.257301553392132 -20.760358857100549 6.6593189440390255 #
point $-1 47.257301553392132 20.760358857100549 6.6593189440390255 #
face $-1 $-1 $192 $25 $-1 $360 reversed single #
loop $-1 $-1 $277 $179 #
plane-surface $-1 0 0 6.6593189440390255 0 0 1 1 0 0 forward_v I I I I #
coedge $-1 $361 $182 $187 $282 forward $109 $-1 #
coedge $-1 $182 $361 $362 $363 reversed $109 $-1 #
coedge $-1 $184 $183 $182 $276 reversed $69 $-1 #
edge $-1 $364 -4.0796594720195127 $287 -1.0796594720195127 $182 $365 forward 7 unknown #
coedge $-1 $362 $366 $184 $278 forward $271 $-1 #
edge $-1 $280 -47.257301553392132 $364 47.257301553392132 $277 $367 forward 7 unknown #
coedge $-1 $191 $185 $366 $368 reversed $192 $-1 #
vertex $-1 $186 $369 #
straight-curve $-1 47.257301553392132 -13.364911517199717 2.5796594720195127 0 0 1 I I #
edge $-1 $287 4.833593923624651 $285 12.229041263525483 $273 $370 forward 7 unknown #
coedge $-1 $371 $188 $191 $289 reversed $180 $-1 #
coedge $-1 $188 $371 $361 $372 forward $180 $-1 #
vertex $-1 $189 $373 #
straight-curve $-1 0 -20.760358857100549 3.6593189440390255 1 0 0 I I #
vertex $-1 $282 $374 #
straight-curve $-1 0 -13.364911517199717 3.6593189440390255 1 0 0 I I #
edge $-1 $375 -6.6593189440390255 $193 -3.6593189440390255 $191 $376 forward 7 unknown #
point $-1 47.257301553392132 -20.760358857100549 3.6593189440390255 #
point $-1 47.257301553392132 -13.364911517199717 3.6593189440390255 #
plane-surface $-1 0 0 6.6593189440390255 0 0 1 1 0 0 forward_v I I I I #
coedge $-1 $303 $302 $295 $377 forward $197 $-1 #
coedge $-1 $295 $199 $201 $299 reversed $117 $-1 #
coedge $-1 $199 $294 $293 $377 reversed $117 $-1 #
coedge $-1 $207 $202 $199 $297 forward $208 $-1 #
edge $-1 $300 10.303743457875836 $378 15.483888071095524 $296 $379 forward 7 unknown #
coedge $-1 $201 $200 $303 $380 reversed $73 $-1 #
edge $-1 $381 -94.514603106784264 $300 -86.100653379989311 $294 $382 forward 7 unknown #
vertex $-1 $203 $383 #
straight-curve $-1 42.077156940172436 1.1433197886297144 6.659318944039029 0 -1 0 I I #
coedge $-1 $293 $204 $207 $307 reversed $197 $-1 #
coedge $-1 $204 $293 $298 $380 forward $197 $-1 #
vertex $-1 $205 $384 #
straight-curve $-1 47.257301553392132 5.5691492955674118 66.348279700362554 0 0 1 I I #
straight-curve $-1 -10.931697436586866 5.5691492955674118 74.507560410746109 0.61566146476048833 0 -0.78801076186113728 I I #
edge $-1 $378 -0.9958701410485542 $209 5.5691492955674118 $302 $385 forward 7 unknown #
point $-1 47.257301553392132 5.5691492955674118 6.6593189440390255 #
point $-1 42.077156940172443 5.5691492955674118 6.659318944039029 #
edge $-1 $386 1 $386 0 $212 $-1 forward 7 unknown #
vertex $-1 $213 $387 #
ellipse-curve $-1 43.879218484921154 0.87984969798458224 2.7285160120420406 0.78801076186113728 0 0.61566146476048833 0.15391536619012208 0 -0.19700269046528432 1 I I #
point $-1 44.821144612972411 0.87984969798458224 3.1471747863372448 #
edge $-1 $388 1 $388 0 $216 $-1 forward 7 unknown #
vertex $-1 $217 $389 #
ellipse-curve $-1 43.879218484921154 3.6934294565342825 2.7285160120420406 0.78801076186113728 0 0.61566146476048833 0.15391536619012208 0 -0.19700269046528432 1 I I #
point $-1 44.821144612972411 3.6934294565342825 3.1471747863372448 #
loop $-1 $-1 $228 $220 #
plane-surface $-1 0 -13.364911517199717 5.1593189440390255 0 -1 0 0 0 -1 forward_v I I I I #
coedge $-1 $325 $390 $224 $321 forward $221 $-1 #
edge $-1 $323 33.49920551258387 $331 39.108090972091787 $320 $391 forward 7 unknown #
coedge $-1 $231 $225 $390 $392 forward $139 $-1 #
vertex $-1 $392 $393 #
straight-curve $-1 -49.366822229371195 -6.1016682448571338 6.659318944039029 -1 0 0 I I #
coedge $-1 $394 $320 $227 $326 forward $221 $-1 #
edge $-1 $331 1.2350233043429206 $329 8.4982665766855057 $325 $395 forward 7 unknown #
coedge $-1 $328 $228 $231 $333 reversed $318 $-1 #
coedge $-1 $228 $327 $394 $396 reversed $318 $-1 #
vertex $-1 $396 $397 #
straight-curve $-1 -29.699243881059537 -13.364911517199717 12.452769671140816 0.83867056331134215 0 0.54463904215088732 I I #
vertex $-1 $326 $398 #
straight-curve $-1 -47.257301553392132 -6.1016682448571338 1.0504334845311121 0.83867056331134215 0 0.54463904215088732 I I #
edge $-1 $399 -47.257301553392132 $232 -38.62037550913125 $231 $400 forward 7 unknown #
point $-1 -38.62037550913125 -13.364911517199719 6.6593189440390255 #
point $-1 -38.62037550913125 -6.1016682448571338 6.6593189440390255 #
edge $-1 $401 1 $401 0 $235 $-1 forward 7 unknown #
vertex $-1 $236 $402 #
ellipse-curve $-1 -41.944627526692031 -11.289699153673265 2.3239255502271385 -0.54463904215088732 0 0.83867056331134215 0.41933528165567108 0 0.27231952107544366 1 I I #
point $-1 -42.519503249606025 -11.289699153673265 4.1271957353605151 #
edge $-1 $403 1 $403 0 $239 $-1 forward 7 unknown #
vertex $-1 $240 $404 #
ellipse-curve $-1 -41.944627526692031 -8.1768806083835859 2.3239255502271385 -0.54463904215088732 0 0.83867056331134215 0.41933528165567108 0 0.27231952107544366 1 I I #
point $-1 -42.519503249606025 -8.1768806083835859 4.1271957353605151 #
plane-surface $-1 47.257301553392132 0 0 -1 0 0 0 0 1 forward_v I I I I #
coedge $-1 $248 $246 $250 $349 reversed $161 $-1 #
edge $-1 $261 -6.6593189440390255 $351 6.6593189440390255 $260 $405 forward 7 unknown #
vertex $-1 $349 $406 #
straight-curve $-1 -47.257301553392132 -20.760358857100549 0 0 0 -1 I I #
edge $-1 $347 -20.760358857100549 $351 20.760358857100549 $345 $407 forward 7 unknown #
straight-curve $-1 0 -20.760358857100549 -6.6593189440390255 -1 0 0 I I #
vertex $-1 $253 $408 #
straight-curve $-1 0 20.760358857100549 -6.6593189440390255 1 0 0 I I #
point $-1 47.257301553392132 20.760358857100549 -6.6593189440390255 #
point $-1 47.257301553392132 -20.760358857100549 -6.6593189440390255 #
straight-curve $-1 -47.257301553392132 0 6.6593189440390255 0 -1 0 I I #
point $-1 -47.257301553392132 20.760358857100549 6.6593189440390255 #
point $-1 -47.257301553392132 -20.760358857100549 6.6593189440390255 #
straight-curve $-1 47.257301553392132 -20.760358857100549 0 0 0 -1 I I #
straight-curve $-1 47.257301553392132 20.760358857100549 0 0 0 -1 I I #
plane-surface $-1 47.257301553392132 0 0 -1 0 0 0 0 1 forward_v I I I I #
coedge $-1 $274 $273 $284 $372 reversed $109 $-1 #
coedge $-1 $409 $277 $274 $363 forward $271 $-1 #
edge $-1 $364 13.364911517199717 $410 20.760358857100549 $274 $411 forward 7 unknown #
vertex $-1 $363 $412 #
straight-curve $-1 -47.257301553392132 -13.364911517199717 2.5796594720195127 0 0 -1 I I #
coedge $-1 $277 $409 $279 $368 forward $271 $-1 #
straight-curve $-1 0 -13.364911517199717 6.6593189440390255 -1 0 0 I I #
edge $-1 $375 -20.760358857100549 $280 -13.364911517199717 $279 $413 forward 7 unknown #
point $-1 47.257301553392132 -13.364911517199717 6.6593189440390255 #
straight-curve $-1 -47.257301553392132 -8.531317593575066 3.6593189440390255 0 -1 0 I I #
coedge $-1 $284 $283 $409 $414 reversed $180 $-1 #
edge $-1 $410 -6.6593189440390255 $285 -3.6593189440390255 $361 $415 forward 7 unknown #
point $-1 -47.257301553392132 -20.760358857100549 3.6593189440390255 #
point $-1 -47.257301553392132 -13.364911517199717 3.6593189440390255 #
vertex $-1 $368 $416 #
straight-curve $-1 47.257301553392132 -20.760358857100549 0 0 0 -1 I I #
edge $-1 $378 59.688960756323524 $381 66.319243690796526 $293 $417 forward 7 unknown #
vertex $-1 $307 $418 #
straight-curve $-1 31.773413482296608 -0.9958701410485542 6.659318944039029 1 0 0 I I #
edge $-1 $381 -2.1391899296782686 $304 4.4258295069376974 $303 $419 forward 7 unknown #
vertex $-1 $380 $420 #
straight-curve $-1 -10.931697436586866 -0.9958701410485542 74.507560410746109 -0.61566146476048833 0 0.78801076186113728 I I #
point $-1 42.077156940172443 -0.9958701410485542 6.659318944039029 #
point $-1 47.257301553392132 5.5691492955674118 0.029036009566027587 #
straight-curve $-1 47.257301553392132 0 6.6593189440390255 0 1 0 I I #
vertex $-1 $310 $421 #
point $-1 44.033133851111273 0.87984969798458224 2.5315133215767562 #
vertex $-1 $314 $422 #
point $-1 44.033133851111273 3.6934294565342825 2.5315133215767562 #
coedge $-1 $320 $394 $322 $392 reversed $221 $-1 #
straight-curve $-1 -47.257301553392132 -6.1016682448571338 40.158524456622899 0 0 -1 I I #
edge $-1 $323 6.1016682448571338 $399 13.364911517199717 $390 $423 forward 7 unknown #
point $-1 -47.257301553392132 -6.1016682448571338 6.6593189440390255 #
coedge $-1 $390 $325 $328 $396 forward $221 $-1 #
straight-curve $-1 -47.257301553392132 -4.8666449405142131 1.050433484531111 0 -1 0 I I #
edge $-1 $329 -39.108090972091787 $399 -33.49920551258387 $394 $424 forward 7 unknown #
point $-1 -47.257301553392132 -13.364911517199719 1.0504334845311121 #
point $-1 -47.257301553392132 -6.1016682448571338 1.0504334845311121 #
vertex $-1 $396 $425 #
straight-curve $-1 0 -13.364911517199717 6.6593189440390255 1 0 0 I I #
vertex $-1 $336 $426 #
point $-1 -41.525292245036361 -11.289699153673265 2.5962450713025822 #
vertex $-1 $340 $427 #
point $-1 -41.525292245036361 -8.1768806083835859 2.5962450713025822 #
straight-curve $-1 -47.257301553392132 20.760358857100549 0 0 0 -1 I I #
point $-1 -47.257301553392132 -20.760358857100549 -6.6593189440390255 #
straight-curve $-1 -47.257301553392132 0 -6.6593189440390255 0 1 0 I I #
point $-1 -47.257301553392132 20.760358857100549 -6.6593189440390255 #
coedge $-1 $366 $362 $371 $414 forward $271 $-1 #
vertex $-1 $363 $428 #
straight-curve $-1 -47.257301553392132 0 6.6593189440390255 0 -1 0 I I #
point $-1 -47.257301553392132 -13.364911517199717 6.6593189440390255 #
straight-curve $-1 47.257301553392132 0 6.6593189440390255 0 1 0 I I #
edge $-1 $410 -47.257301553392132 $375 47.257301553392132 $371 $429 forward 7 unknown #
straight-curve $-1 -47.257301553392132 -20.760358857100549 0 0 0 -1 I I #
point $-1 47.257301553392132 -20.760358857100549 6.6593189440390255 #
straight-curve $-1 47.257301553392132 -0.9958701410485542 66.348279700362554 0 0 -1 I I #
point $-1 47.257301553392132 -0.9958701410485542 6.6593189440390255 #
straight-curve $-1 47.257301553392125 1.1433197886297144 0.029036009566034693 0 1 0 I I #
point $-1 47.257301553392132 -0.9958701410485542 0.029036009566027587 #
point $-1 43.682215794455871 0.87984969798458224 2.5746006458519184 #
point $-1 43.682215794455871 3.6934294565342825 2.5746006458519184 #
straight-curve $-1 -47.257301553392132 0 6.6593189440390255 0 -1 0 I I #
straight-curve $-1 -47.257301553392132 -13.364911517199719 40.158524456622899 0 0 1 I I #
point $-1 -47.257301553392132 -13.364911517199717 6.6593189440390255 #
point $-1 -41.672308005616586 -11.289699153673265 1.9045902685714673 #
point $-1 -41.672308005616586 -8.1768806083835859 1.9045902685714673 #
point $-1 -47.257301553392132 -20.760358857100549 6.6593189440390255 #
straight-curve $-1 0 -20.760358857100549 6.6593189440390255 1 0 0 I I #
End-of-ACIS-data 