500 0 12 0           
7 Unknown 11 ACIS 5.0 NT 24 Thu Mar 25 23:53:05 1999 
-1 9.9999999999999995e-007 1e-010 
body $-1 $12 $-1 $13 #
body $-1 $14 $-1 $15 #
body $-1 $16 $-1 $17 #
body $-1 $18 $-1 $19 #
body $-1 $20 $-1 $21 #
body $-1 $22 $-1 $23 #
body $-1 $24 $-1 $25 #
body $-1 $26 $-1 $27 #
body $-1 $28 $-1 $29 #
body $-1 $30 $-1 $31 #
body $-1 $32 $-1 $33 #
body $-1 $34 $-1 $35 #
lump $-1 $-1 $36 $0 #
transform $-1 1 0 0 0 1 0 0 0 1 61.904965361491747 34.366541425969778 8.1375506337417001 1 rotate no_reflect no_shear #
lump $-1 $-1 $37 $1 #
transform $-1 1 0 0 0 1 0 0 0 1 61.904965361491747 34.366541425969778 8.1375506337417001 1 rotate no_reflect no_shear #
lump $-1 $-1 $38 $2 #
transform $-1 1 0 0 0 1 0 0 0 1 61.904965361491747 34.366541425969778 8.1375506337417001 1 rotate no_reflect no_shear #
lump $-1 $-1 $39 $3 #
transform $-1 1 0 0 0 1 0 0 0 1 61.904965361491747 34.366541425969778 8.1375506337417001 1 rotate no_reflect no_shear #
lump $-1 $-1 $40 $4 #
transform $-1 1 0 0 0 1 0 0 0 1 61.904965361491747 34.366541425969778 8.1375506337417001 1 rotate no_reflect no_shear #
lump $-1 $-1 $41 $5 #
transform $-1 1 0 0 0 1 0 0 0 1 61.904965361491747 34.366541425969778 8.1375506337417001 1 rotate no_reflect no_shear #
lump $-1 $-1 $42 $6 #
transform $-1 1 0 0 0 1 0 0 0 1 61.904965361491747 34.366541425969778 8.1375506337417001 1 rotate no_reflect no_shear #
lump $-1 $-1 $43 $7 #
transform $-1 1 0 0 0 1 0 0 0 1 61.904965361491747 34.366541425969778 8.1375506337417001 1 rotate no_reflect no_shear #
lump $-1 $-1 $44 $8 #
transform $-1 1 0 0 0 1 0 0 0 1 61.904965361491747 34.366541425969778 8.1375506337417001 1 rotate no_reflect no_shear #
lump $-1 $-1 $45 $9 #
transform $-1 1 0 0 0 1 0 0 0 1 61.904965361491747 34.366541425969778 8.1375506337417001 1 rotate no_reflect no_shear #
lump $-1 $-1 $46 $10 #
transform $-1 1 0 0 0 1 0 0 0 1 61.904965361491747 34.366541425969778 8.1375506337417001 1 rotate no_reflect no_shear #
lump $-1 $-1 $47 $11 #
transform $-1 1 0 0 0 1 0 0 0 1 61.904965361491747 34.366541425969778 8.1375506337417001 1 rotate no_reflect no_shear #
shell $-1 $-1 $-1 $48 $-1 $12 #
shell $-1 $-1 $-1 $49 $-1 $14 #
shell $-1 $-1 $-1 $50 $-1 $16 #
shell $-1 $-1 $-1 $51 $-1 $18 #
shell $-1 $-1 $-1 $52 $-1 $20 #
shell $-1 $-1 $-1 $53 $-1 $22 #
shell $-1 $-1 $-1 $54 $-1 $24 #
shell $-1 $-1 $-1 $55 $-1 $26 #
shell $-1 $-1 $-1 $56 $-1 $28 #
shell $-1 $-1 $-1 $57 $-1 $30 #
shell $-1 $-1 $-1 $58 $-1 $32 #
shell $-1 $-1 $-1 $59 $-1 $34 #
face $-1 $60 $61 $36 $-1 $62 forward single #
face $-1 $63 $64 $37 $-1 $65 forward single #
face $-1 $66 $67 $38 $-1 $68 forward single #
face $-1 $69 $70 $39 $-1 $71 reversed single #
face $-1 $72 $73 $40 $-1 $74 forward single #
face $-1 $75 $76 $41 $-1 $77 forward single #
face $-1 $78 $79 $42 $-1 $80 reversed single #
face $-1 $81 $82 $43 $-1 $83 forward single #
face $-1 $84 $85 $44 $-1 $86 forward single #
face $-1 $87 $88 $45 $-1 $89 reversed single #
face $-1 $90 $91 $46 $-1 $92 forward single #
face $-1 $93 $94 $47 $-1 $95 forward single #
face $-1 $96 $97 $36 $-1 $98 reversed single #
loop $-1 $-1 $99 $48 #
plane-surface $-1 0 0 8.1375506337417001 0 0 1 1 0 0 forward_v I I I I #
face $-1 $100 $101 $37 $-1 $102 reversed single #
loop $-1 $-1 $103 $49 #
plane-surface $-1 0 -29.647211564507781 -4.682611917762582 0 0 1 1 0 0 forward_v I I I I #
face $-1 $104 $105 $38 $-1 $106 reversed single #
loop $-1 $-1 $107 $50 #
plane-surface $-1 0 29.647211564507778 -4.682611917762582 0 0 1 1 0 0 forward_v I I I I #
face $-1 $108 $109 $39 $-1 $110 reversed single #
loop $-1 $-1 $111 $51 #
plane-surface $-1 -127.5142336212765 10.184971412660492 106.31757771954111 0 -1 0 0.52991927123019833 0 -0.84804809178421925 forward_v I I I I #
face $-1 $112 $113 $40 $-1 $114 forward single #
loop $-1 $115 $116 $52 #
cone-surface $-1 -55.763441436768709 3.7452904930767446 3.6297704759766014 0.52991927123019833 0 -0.84804809178421925 0.84804809178421925 0 0.52991927123019833 1 I I 0 1 1 forward I I I I #
face $-1 $117 $118 $41 $-1 $119 forward single #
loop $-1 $120 $121 $53 #
cone-surface $-1 -55.763441436768709 7.6090990448269906 3.6297704759766014 0.52991927123019833 0 -0.84804809178421925 0.84804809178421925 0 0.52991927123019833 1 I I 0 1 1 forward I I I I #
face $-1 $122 $123 $42 $-1 $124 reversed single #
loop $-1 $-1 $125 $54 #
plane-surface $-1 107.22254786330942 -18.024385835252737 169.93027669234104 0 -1 0 -0.86602541151947299 0 -0.49999998660252726 forward_v I I I I #
face $-1 $126 $127 $43 $-1 $128 forward single #
loop $-1 $129 $130 $55 #
cone-surface $-1 59.354583016624886 -22.955454312247774 4.2201587160797045 -0.86602541151947299 0 -0.49999998660252726 0.12499999665063181 0 -0.21650635287986825 1 I I 0 1 0.25 forward I I I I #
face $-1 $131 $132 $44 $-1 $133 forward single #
loop $-1 $134 $135 $56 #
cone-surface $-1 59.354583016624886 -19.996813226050751 4.2201587160797045 -0.86602541151947299 0 -0.49999998660252726 0.12499999665063181 0 -0.21650635287986825 1 I I 0 1 0.25 forward I I I I #
face $-1 $136 $137 $45 $-1 $138 reversed single #
loop $-1 $-1 $139 $57 #
plane-surface $-1 107.22254786330942 6.9034958677930449 169.93027669234104 0 -1 0 -0.86602541151947299 0 -0.49999998660252726 forward_v I I I I #
face $-1 $140 $141 $46 $-1 $142 forward single #
loop $-1 $143 $144 $58 #
cone-surface $-1 59.354583016624886 1.9724273907980105 4.2201587160797045 -0.86602541151947299 0 -0.49999998660252726 0.12499999665063181 0 -0.21650635287986825 1 I I 0 1 0.25 forward I I I I #
face $-1 $145 $146 $47 $-1 $147 forward single #
loop $-1 $148 $149 $59 #
cone-surface $-1 59.354583016624886 4.9310684769950299 4.2201587160797045 -0.86602541151947299 0 -0.49999998660252726 0.12499999665063181 0 -0.21650635287986825 1 I I 0 1 0.25 forward I I I I #
face $-1 $150 $151 $36 $-1 $152 reversed single #
loop $-1 $-1 $153 $60 #
plane-surface $-1 0 0 -8.1375506337417001 0 0 1 1 0 0 forward_v I I I I #
coedge $-1 $154 $155 $156 $157 forward $61 $-1 #
face $-1 $158 $159 $37 $-1 $160 reversed single #
loop $-1 $-1 $161 $63 #
plane-surface $-1 0 -24.927881703045784 -6.410081275752141 0 -1 0 0 0 -1 forward_v I I I I #
coedge $-1 $162 $163 $164 $165 reversed $64 $-1 #
face $-1 $166 $167 $38 $-1 $168 reversed single #
loop $-1 $-1 $169 $66 #
plane-surface $-1 0 24.927881703045781 -6.410081275752141 0 1 0 0 0 1 forward_v I I I I #
coedge $-1 $170 $171 $172 $173 reversed $67 $-1 #
face $-1 $174 $175 $39 $-1 $176 reversed single #
loop $-1 $-1 $177 $69 #
plane-surface $-1 -61.904965361491747 5.6771947689518711 1.3208022259785679 -0.52991927123019833 0 0.84804809178421925 0.84804809178421925 0 0.52991927123019833 forward_v I I I I #
coedge $-1 $178 $179 $180 $181 reversed $70 $-1 #
face $-1 $-1 $182 $40 $-1 $183 forward single #
loop $-1 $184 $185 $72 #
cone-surface $-1 -54.811496702652448 3.7452904930767446 2.1063404762009554 0.52991927123019833 0 -0.84804809178421925 0.42402404589210962 0 0.26495963561509916 1 I I -0.70710678118654746 0.70710678118654746 0.5 forward I I I I #
loop $-1 $-1 $186 $52 #
coedge $-1 $116 $116 $187 $188 reversed $73 $-1 #
face $-1 $-1 $189 $41 $-1 $190 forward single #
loop $-1 $191 $192 $75 #
cone-surface $-1 -54.811496702652448 7.6090990448269906 2.1063404762009554 0.52991927123019833 0 -0.84804809178421925 0.42402404589210962 0 0.26495963561509916 1 I I -0.70710678118654746 0.70710678118654746 0.5 forward I I I I #
loop $-1 $-1 $193 $53 #
coedge $-1 $121 $121 $194 $195 reversed $76 $-1 #
face $-1 $196 $197 $42 $-1 $198 reversed single #
loop $-1 $-1 $199 $78 #
plane-surface $-1 1.6587401745482566e-006 -21.476133769149261 108.02531298958945 0.86602541151947299 0 0.49999998660252726 0.49999998660252726 0 -0.86602541151947299 forward_v I I I I #
coedge $-1 $200 $201 $202 $203 reversed $79 $-1 #
face $-1 $-1 $204 $43 $-1 $205 forward single #
loop $-1 $206 $207 $81 #
cone-surface $-1 58.813317134425219 -22.955454312247774 3.9076587244531247 -0.86602541151947299 0 -0.49999998660252726 0.062499998325315907 0 -0.10825317643993412 1 I I -0.70710678118654746 0.70710678118654746 0.125 forward I I I I #
loop $-1 $-1 $208 $55 #
coedge $-1 $130 $130 $209 $210 reversed $82 $-1 #
face $-1 $-1 $211 $44 $-1 $212 forward single #
loop $-1 $213 $214 $84 #
cone-surface $-1 58.813317134425219 -19.996813226050751 3.9076587244531247 -0.86602541151947299 0 -0.49999998660252726 0.062499998325315907 0 -0.10825317643993412 1 I I -0.70710678118654746 0.70710678118654746 0.125 forward I I I I #
loop $-1 $-1 $215 $56 #
coedge $-1 $135 $135 $216 $217 reversed $85 $-1 #
face $-1 $218 $219 $45 $-1 $220 reversed single #
loop $-1 $-1 $221 $87 #
plane-surface $-1 1.6587401745482566e-006 3.4517479338965202 108.02531298958945 0.86602541151947299 0 0.49999998660252726 0.49999998660252726 0 -0.86602541151947299 forward_v I I I I #
coedge $-1 $222 $223 $224 $225 reversed $88 $-1 #
face $-1 $-1 $226 $46 $-1 $227 forward single #
loop $-1 $228 $229 $90 #
cone-surface $-1 58.813317134425219 1.9724273907980105 3.9076587244531247 -0.86602541151947299 0 -0.49999998660252726 0.062499998325315907 0 -0.10825317643993412 1 I I -0.70710678118654746 0.70710678118654746 0.125 forward I I I I #
loop $-1 $-1 $230 $58 #
coedge $-1 $144 $144 $231 $232 reversed $91 $-1 #
face $-1 $-1 $233 $47 $-1 $234 forward single #
loop $-1 $235 $236 $93 #
cone-surface $-1 58.813317134425219 4.9310684769950299 3.9076587244531247 -0.86602541151947299 0 -0.49999998660252726 0.062499998325315907 0 -0.10825317643993412 1 I I -0.70710678118654746 0.70710678118654746 0.125 forward I I I I #
loop $-1 $-1 $237 $59 #
coedge $-1 $149 $149 $238 $239 reversed $94 $-1 #
face $-1 $240 $241 $36 $-1 $242 reversed single #
loop $-1 $-1 $243 $96 #
plane-surface $-1 0 -34.366541425969778 0 0 1 0 0 0 1 forward_v I I I I #
coedge $-1 $244 $245 $246 $247 forward $97 $-1 #
coedge $-1 $248 $99 $249 $250 forward $61 $-1 #
coedge $-1 $99 $248 $251 $252 forward $61 $-1 #
coedge $-1 $253 $254 $99 $157 reversed $255 $-1 #
edge $-1 $256 -34.366541425969778 $257 34.366541425969778 $156 $258 forward 7 unknown #
face $-1 $259 $260 $37 $-1 $261 reversed single #
loop $-1 $-1 $262 $100 #
plane-surface $-1 0 0 -8.1375506337417001 0 0 1 1 0 0 forward_v I I I I #
coedge $-1 $263 $264 $265 $266 reversed $101 $-1 #
coedge $-1 $267 $103 $264 $268 forward $64 $-1 #
coedge $-1 $103 $267 $269 $270 reversed $64 $-1 #
coedge $-1 $271 $265 $103 $165 forward $260 $-1 #
edge $-1 $272 10.104275920791894 $273 19.542935643715886 $164 $274 forward 7 unknown #
face $-1 $275 $276 $38 $-1 $277 reversed single #
loop $-1 $-1 $172 $104 #
plane-surface $-1 61.904965361491747 0 0 -1 0 0 0 0 1 forward_v I I I I #
coedge $-1 $278 $279 $280 $281 reversed $105 $-1 #
coedge $-1 $282 $107 $283 $284 reversed $67 $-1 #
coedge $-1 $107 $282 $279 $285 forward $67 $-1 #
coedge $-1 $286 $287 $107 $173 forward $167 $-1 #
edge $-1 $288 -19.542935643715882 $289 -10.104275920791892 $172 $290 forward 7 unknown #
face $-1 $291 $292 $39 $-1 $293 reversed single #
loop $-1 $-1 $294 $108 #
plane-surface $-1 -127.5142336212765 1.1694181252432507 106.31757771954111 0 1 0 -0.52991927123019833 0 0.84804809178421925 forward_v I I I I #
coedge $-1 $295 $296 $297 $298 reversed $109 $-1 #
coedge $-1 $179 $111 $299 $300 reversed $70 $-1 #
coedge $-1 $111 $178 $295 $301 reversed $70 $-1 #
coedge $-1 $297 $302 $111 $181 forward $292 $-1 #
edge $-1 $303 45.021238226028856 $304 51.837986633791985 $180 $305 forward 7 unknown #
loop $-1 $-1 $187 $112 #
plane-surface $-1 -61.904965361491747 5.6771947689518711 1.3208022259785679 -0.52991927123019833 0 0.84804809178421925 0.84804809178421925 0 0.52991927123019833 forward_v I I I I #
loop $-1 $-1 $306 $72 #
coedge $-1 $185 $185 $186 $307 reversed $113 $-1 #
coedge $-1 $186 $186 $185 $307 forward $115 $-1 #
coedge $-1 $187 $187 $116 $188 forward $182 $-1 #
edge $-1 $308 0 $308 6.2831853071796004 $187 $309 forward 7 unknown #
loop $-1 $-1 $194 $117 #
plane-surface $-1 -61.904965361491747 5.6771947689518711 1.3208022259785679 -0.52991927123019833 0 0.84804809178421925 0.84804809178421925 0 0.52991927123019833 forward_v I I I I #
loop $-1 $-1 $310 $75 #
coedge $-1 $192 $192 $193 $311 reversed $118 $-1 #
coedge $-1 $193 $193 $192 $311 forward $120 $-1 #
coedge $-1 $194 $194 $121 $195 forward $189 $-1 #
edge $-1 $312 0 $312 6.2831853071796004 $194 $313 forward 7 unknown #
face $-1 $314 $315 $42 $-1 $316 forward single #
loop $-1 $-1 $317 $122 #
plane-surface $-1 107.22254786330942 -24.927881703045784 169.93027669234104 0 1 0 0.86602541151947299 0 0.49999998660252726 forward_v I I I I #
coedge $-1 $318 $319 $320 $321 reversed $123 $-1 #
coedge $-1 $201 $125 $322 $323 reversed $79 $-1 #
coedge $-1 $125 $200 $318 $324 reversed $79 $-1 #
coedge $-1 $320 $325 $125 $203 forward $315 $-1 #
edge $-1 $326 -8.2936914298370397 $327 -4.0589521516227975 $202 $328 forward 7 unknown #
loop $-1 $-1 $209 $126 #
plane-surface $-1 1.6587401745482566e-006 -21.476133769149261 108.02531298958945 0.86602541151947299 0 0.49999998660252726 0.49999998660252726 0 -0.86602541151947299 forward_v I I I I #
loop $-1 $-1 $329 $81 #
coedge $-1 $207 $207 $208 $330 reversed $127 $-1 #
coedge $-1 $208 $208 $207 $330 forward $129 $-1 #
coedge $-1 $209 $209 $130 $210 forward $204 $-1 #
edge $-1 $331 0 $331 6.2831853071796004 $209 $332 forward 7 unknown #
loop $-1 $-1 $216 $131 #
plane-surface $-1 1.6587401745482566e-006 -21.476133769149261 108.02531298958945 0.86602541151947299 0 0.49999998660252726 0.49999998660252726 0 -0.86602541151947299 forward_v I I I I #
loop $-1 $-1 $333 $84 #
coedge $-1 $214 $214 $215 $334 reversed $132 $-1 #
coedge $-1 $215 $215 $214 $334 forward $134 $-1 #
coedge $-1 $216 $216 $135 $217 forward $211 $-1 #
edge $-1 $335 0 $335 6.2831853071796004 $216 $336 forward 7 unknown #
face $-1 $337 $338 $45 $-1 $339 reversed single #
loop $-1 $-1 $340 $136 #
plane-surface $-1 107.22254786330942 -4.4408920985006262e-015 169.93027669234104 0 1 0 0.86602541151947299 0 0.49999998660252726 forward_v I I I I #
coedge $-1 $341 $342 $343 $344 reversed $137 $-1 #
coedge $-1 $223 $139 $345 $346 reversed $88 $-1 #
coedge $-1 $139 $222 $341 $347 reversed $88 $-1 #
coedge $-1 $343 $348 $139 $225 forward $349 $-1 #
edge $-1 $350 -8.2936914298370397 $351 -4.0589521516227975 $224 $352 forward 7 unknown #
loop $-1 $-1 $231 $140 #
plane-surface $-1 1.6587401745482566e-006 3.4517479338965202 108.02531298958945 0.86602541151947299 0 0.49999998660252726 0.49999998660252726 0 -0.86602541151947299 forward_v I I I I #
loop $-1 $-1 $353 $90 #
coedge $-1 $229 $229 $230 $354 reversed $141 $-1 #
coedge $-1 $230 $230 $229 $354 forward $143 $-1 #
coedge $-1 $231 $231 $144 $232 forward $226 $-1 #
edge $-1 $355 0 $355 6.2831853071796004 $231 $356 forward 7 unknown #
loop $-1 $-1 $238 $145 #
plane-surface $-1 1.6587401745482566e-006 3.4517479338965202 108.02531298958945 0.86602541151947299 0 0.49999998660252726 0.49999998660252726 0 -0.86602541151947299 forward_v I I I I #
loop $-1 $-1 $357 $93 #
coedge $-1 $236 $236 $237 $358 reversed $146 $-1 #
coedge $-1 $237 $237 $236 $358 forward $148 $-1 #
coedge $-1 $238 $238 $149 $239 forward $233 $-1 #
edge $-1 $359 0 $359 6.2831853071796004 $238 $360 forward 7 unknown #
face $-1 $361 $362 $36 $-1 $363 reversed single #
loop $-1 $-1 $364 $150 #
plane-surface $-1 -61.904965361491747 0 0 1 0 0 0 0 -1 forward_v I I I I #
coedge $-1 $365 $251 $366 $367 forward $151 $-1 #
coedge $-1 $368 $153 $365 $369 forward $97 $-1 #
coedge $-1 $153 $368 $370 $371 forward $97 $-1 #
coedge $-1 $254 $253 $153 $247 reversed $255 $-1 #
edge $-1 $372 -34.366541425969778 $373 34.366541425969778 $246 $374 forward 7 unknown #
coedge $-1 $155 $154 $375 $376 forward $61 $-1 #
coedge $-1 $377 $378 $154 $250 reversed $362 $-1 #
edge $-1 $257 -61.904965361491747 $379 61.904965361491747 $249 $380 forward 7 unknown #
coedge $-1 $243 $381 $155 $252 reversed $151 $-1 #
edge $-1 $382 -61.904965361491747 $256 61.904965361491747 $251 $383 forward 7 unknown #
coedge $-1 $246 $156 $381 $384 forward $255 $-1 #
coedge $-1 $156 $246 $377 $385 reversed $255 $-1 #
loop $-1 $-1 $253 $361 #
vertex $-1 $157 $386 #
vertex $-1 $157 $387 #
straight-curve $-1 61.904965361491747 0 8.1375506337417001 0 1 0 I I #
face $-1 $388 $389 $37 $-1 $390 reversed single #
loop $-1 $-1 $265 $158 #
plane-surface $-1 61.904965361491747 0 0 -1 0 0 0 0 1 forward_v I I I I #
coedge $-1 $391 $392 $263 $393 forward $159 $-1 #
coedge $-1 $394 $161 $262 $393 reversed $101 $-1 #
coedge $-1 $161 $394 $162 $268 reversed $101 $-1 #
coedge $-1 $164 $395 $161 $266 forward $260 $-1 #
edge $-1 $396 -4.9325099958656295 $272 -1.4775712798865115 $265 $397 forward 7 unknown #
coedge $-1 $163 $162 $398 $399 reversed $64 $-1 #
edge $-1 $272 -61.904965361491747 $400 61.904965361491747 $264 $401 forward 7 unknown #
coedge $-1 $402 $403 $163 $270 forward $389 $-1 #
edge $-1 $273 -61.904965361491747 $404 61.904965361491747 $269 $405 forward 7 unknown #
coedge $-1 $395 $164 $403 $406 forward $260 $-1 #
vertex $-1 $165 $407 #
vertex $-1 $406 $408 #
straight-curve $-1 61.904965361491747 -14.823605782253891 -4.682611917762582 0 -1 0 I I #
face $-1 $409 $410 $38 $-1 $411 reversed single #
loop $-1 $-1 $412 $166 #
plane-surface $-1 0 0 -8.1375506337417001 0 0 1 1 0 0 forward_v I I I I #
coedge $-1 $413 $169 $412 $414 reversed $105 $-1 #
coedge $-1 $169 $413 $171 $285 reversed $105 $-1 #
coedge $-1 $415 $416 $169 $281 forward $410 $-1 #
edge $-1 $417 -4.9325099958656295 $418 -1.4775712798865115 $280 $419 forward 7 unknown #
coedge $-1 $171 $170 $415 $420 reversed $67 $-1 #
coedge $-1 $421 $422 $170 $284 forward $423 $-1 #
edge $-1 $424 -61.904965361491747 $288 61.904965361491747 $283 $425 forward 7 unknown #
edge $-1 $418 -61.904965361491747 $289 61.904965361491747 $279 $426 forward 7 unknown #
coedge $-1 $427 $172 $413 $428 forward $167 $-1 #
coedge $-1 $172 $427 $421 $429 reversed $167 $-1 #
vertex $-1 $429 $430 #
vertex $-1 $173 $431 #
straight-curve $-1 61.904965361491747 14.823605782253889 -4.682611917762582 0 -1 0 I I #
face $-1 $-1 $432 $39 $-1 $433 forward single #
loop $-1 $-1 $180 $174 #
plane-surface $-1 -61.904965361491747 0 0 1 0 0 0 0 -1 forward_v I I I I #
coedge $-1 $434 $435 $436 $437 reversed $175 $-1 #
coedge $-1 $438 $177 $179 $301 forward $109 $-1 #
coedge $-1 $177 $438 $434 $439 forward $109 $-1 #
coedge $-1 $436 $180 $177 $298 forward $292 $-1 #
edge $-1 $304 -7.346374028184556 $440 1.6691792592326848 $297 $441 forward 7 unknown #
coedge $-1 $442 $443 $178 $300 forward $432 $-1 #
edge $-1 $444 -12.76122910159026 $303 -1.8521514491465041 $299 $445 forward 7 unknown #
edge $-1 $304 0 $444 12.863748834682251 $179 $446 forward 7 unknown #
coedge $-1 $180 $436 $442 $447 reversed $292 $-1 #
vertex $-1 $447 $448 #
vertex $-1 $181 $449 #
straight-curve $-1 -61.904965361491747 10.184971412660492 53.158788859770553 0 0 -1 I I #
coedge $-1 $306 $306 $-1 $450 reversed $184 $-1 #
edge $-1 $451 0 $451 6.2831853071796004 $185 $452 forward 7 unknown #
vertex $-1 $188 $453 #
ellipse-curve $-1 -56.45042653526987 3.7452904930767446 4.729176429860134 -0.52991927123019833 0 0.84804809178421925 0.84804809178421925 0 0.52991927123019833 1 I I #
coedge $-1 $310 $310 $-1 $454 reversed $191 $-1 #
edge $-1 $455 0 $455 6.2831853071796004 $192 $456 forward 7 unknown #
vertex $-1 $195 $457 #
ellipse-curve $-1 -56.45042653526987 7.6090990448269906 4.729176429860134 -0.52991927123019833 0 0.84804809178421925 0.84804809178421925 0 0.52991927123019833 1 I I #
face $-1 $-1 $458 $42 $-1 $459 reversed single #
loop $-1 $-1 $202 $196 #
plane-surface $-1 0 0 8.1375506337417001 0 0 1 1 0 0 forward_v I I I I #
coedge $-1 $460 $461 $462 $463 reversed $197 $-1 #
coedge $-1 $464 $199 $201 $324 forward $123 $-1 #
coedge $-1 $199 $464 $460 $465 forward $123 $-1 #
coedge $-1 $462 $202 $199 $321 forward $315 $-1 #
edge $-1 $327 7.2863189506781065 $466 14.189814818471154 $320 $467 forward 7 unknown #
coedge $-1 $468 $469 $200 $323 forward $458 $-1 #
edge $-1 $470 -84.162371561150294 $326 -76.827587712428823 $322 $471 forward 7 unknown #
edge $-1 $327 115.34045193961579 $470 123.80993072298349 $201 $472 forward 7 unknown #
coedge $-1 $202 $462 $468 $473 forward $315 $-1 #
vertex $-1 $203 $474 #
vertex $-1 $203 $475 #
straight-curve $-1 53.611273931654708 -18.024385835252737 8.1375506337416965 -1 0 0 I I #
coedge $-1 $329 $329 $-1 $476 reversed $206 $-1 #
edge $-1 $477 0 $477 6.2831853071796004 $207 $478 forward 7 unknown #
vertex $-1 $210 $479 #
ellipse-curve $-1 59.787595722384623 -22.955454312247774 4.4701587093809678 0.86602541151947299 0 0.49999998660252726 0.12499999665063181 0 -0.21650635287986825 1 I I #
coedge $-1 $333 $333 $-1 $480 reversed $213 $-1 #
edge $-1 $481 0 $481 6.2831853071796004 $214 $482 forward 7 unknown #
vertex $-1 $217 $483 #
ellipse-curve $-1 59.787595722384623 -19.996813226050751 4.4701587093809678 0.86602541151947299 0 0.49999998660252726 0.12499999665063181 0 -0.21650635287986825 1 I I #
face $-1 $-1 $349 $45 $-1 $484 forward single #
loop $-1 $-1 $485 $218 #
plane-surface $-1 61.904965361491747 0 0 -1 0 0 0 0 1 forward_v I I I I #
coedge $-1 $486 $487 $488 $489 reversed $219 $-1 #
coedge $-1 $490 $221 $223 $347 forward $137 $-1 #
coedge $-1 $221 $490 $486 $491 forward $137 $-1 #
coedge $-1 $488 $224 $221 $344 forward $349 $-1 #
edge $-1 $351 -5.1776219008447848 $492 1.7258739669482646 $343 $493 forward 7 unknown #
coedge $-1 $494 $495 $222 $346 forward $338 $-1 #
edge $-1 $496 -84.162371561150294 $350 -76.827587712428823 $345 $497 forward 7 unknown #
edge $-1 $351 115.34045193961579 $496 123.80993072298349 $223 $498 forward 7 unknown #
coedge $-1 $224 $488 $494 $499 forward $349 $-1 #
loop $-1 $-1 $488 $337 #
vertex $-1 $346 $500 #
vertex $-1 $225 $501 #
straight-curve $-1 53.611273931654708 6.9034958677930449 8.1375506337416965 -1 0 0 I I #
coedge $-1 $353 $353 $-1 $502 reversed $228 $-1 #
edge $-1 $503 0 $503 6.2831853071796004 $229 $504 forward 7 unknown #
vertex $-1 $232 $505 #
ellipse-curve $-1 59.787595722384623 1.9724273907980105 4.4701587093809678 0.86602541151947299 0 0.49999998660252726 0.12499999665063181 0 -0.21650635287986825 1 I I #
coedge $-1 $357 $357 $-1 $506 reversed $235 $-1 #
edge $-1 $507 0 $507 6.2831853071796004 $236 $508 forward 7 unknown #
vertex $-1 $239 $509 #
ellipse-curve $-1 59.787595722384623 4.9310684769950299 4.4701587093809678 0.86602541151947299 0 0.49999998660252726 0.12499999665063181 0 -0.21650635287986825 1 I I #
face $-1 $-1 $255 $36 $-1 $510 reversed single #
loop $-1 $-1 $377 $240 #
plane-surface $-1 0 34.366541425969778 0 0 -1 0 0 0 -1 forward_v I I I I #
coedge $-1 $511 $375 $378 $512 forward $241 $-1 #
coedge $-1 $381 $243 $244 $369 reversed $151 $-1 #
coedge $-1 $375 $511 $243 $367 reversed $241 $-1 #
edge $-1 $382 -8.1375506337417001 $513 8.1375506337417001 $366 $514 forward 7 unknown #
coedge $-1 $245 $244 $511 $515 forward $97 $-1 #
edge $-1 $373 -61.904965361491747 $513 61.904965361491747 $365 $516 forward 7 unknown #
coedge $-1 $378 $377 $245 $371 reversed $362 $-1 #
edge $-1 $517 -61.904965361491747 $372 61.904965361491747 $370 $518 forward 7 unknown #
vertex $-1 $247 $519 #
vertex $-1 $384 $520 #
straight-curve $-1 61.904965361491747 0 -8.1375506337417001 0 -1 0 I I #
coedge $-1 $364 $366 $248 $376 reversed $241 $-1 #
edge $-1 $379 -34.366541425969778 $382 34.366541425969778 $375 $521 forward 7 unknown #
coedge $-1 $370 $249 $254 $385 forward $362 $-1 #
coedge $-1 $249 $370 $364 $512 reversed $362 $-1 #
vertex $-1 $250 $522 #
straight-curve $-1 0 34.366541425969778 8.1375506337417001 -1 0 0 I I #
coedge $-1 $251 $365 $253 $384 reversed $151 $-1 #
vertex $-1 $376 $523 #
straight-curve $-1 0 -34.366541425969778 8.1375506337417001 1 0 0 I I #
edge $-1 $256 -8.1375506337417001 $373 8.1375506337417001 $253 $524 forward 7 unknown #
edge $-1 $257 -8.1375506337417001 $372 8.1375506337417001 $254 $525 forward 7 unknown #
point $-1 61.904965361491747 -34.366541425969778 8.1375506337417001 #
point $-1 61.904965361491747 34.366541425969778 8.1375506337417001 #
face $-1 $-1 $526 $37 $-1 $527 reversed single #
loop $-1 $-1 $269 $259 #
plane-surface $-1 0 -34.366541425969778 0 0 1 0 0 0 1 forward_v I I I I #
coedge $-1 $528 $262 $395 $529 forward $159 $-1 #
coedge $-1 $262 $528 $530 $531 forward $159 $-1 #
edge $-1 $532 -61.904965361491747 $396 61.904965361491747 $262 $533 forward 7 unknown #
coedge $-1 $264 $263 $534 $535 reversed $101 $-1 #
coedge $-1 $265 $271 $391 $529 reversed $260 $-1 #
vertex $-1 $529 $536 #
straight-curve $-1 61.904965361491747 -24.927881703045784 -3.2050406378760705 0 0 1 I I #
coedge $-1 $534 $537 $267 $399 forward $526 $-1 #
edge $-1 $404 -19.542935643715886 $400 -10.104275920791894 $398 $538 forward 7 unknown #
vertex $-1 $399 $539 #
straight-curve $-1 0 -24.927881703045784 -4.682611917762582 -1 0 0 I I #
coedge $-1 $540 $269 $537 $541 forward $389 $-1 #
coedge $-1 $269 $540 $271 $406 reversed $389 $-1 #
vertex $-1 $541 $542 #
straight-curve $-1 0 -34.366541425969778 -4.682611917762582 -1 0 0 I I #
edge $-1 $273 4.682611917762582 $543 8.1375506337417001 $271 $544 forward 7 unknown #
point $-1 61.904965361491747 -24.927881703045784 -4.682611917762582 #
point $-1 61.904965361491747 -34.366541425969778 -4.682611917762582 #
face $-1 $-1 $423 $38 $-1 $545 reversed single #
loop $-1 $-1 $415 $275 #
plane-surface $-1 -61.904965361491747 0 0 1 0 0 0 0 -1 forward_v I I I I #
coedge $-1 $546 $547 $278 $414 forward $276 $-1 #
coedge $-1 $279 $278 $286 $428 reversed $105 $-1 #
edge $-1 $548 -61.904965361491747 $417 61.904965361491747 $412 $549 forward 7 unknown #
coedge $-1 $550 $280 $282 $420 forward $410 $-1 #
coedge $-1 $280 $550 $546 $551 reversed $410 $-1 #
vertex $-1 $551 $552 #
vertex $-1 $420 $553 #
straight-curve $-1 -61.904965361491747 24.927881703045781 -3.2050406378760705 0 0 1 I I #
edge $-1 $418 10.104275920791892 $424 19.542935643715882 $415 $554 forward 7 unknown #
coedge $-1 $555 $283 $287 $429 forward $423 $-1 #
coedge $-1 $283 $555 $550 $556 reversed $423 $-1 #
loop $-1 $-1 $283 $409 #
vertex $-1 $556 $557 #
straight-curve $-1 0 34.366541425969778 -4.682611917762582 1 0 0 I I #
straight-curve $-1 0 24.927881703045781 -4.682611917762582 1 0 0 I I #
coedge $-1 $287 $286 $547 $558 reversed $167 $-1 #
edge $-1 $289 1.4775712798865115 $548 4.9325099958656295 $286 $559 forward 7 unknown #
edge $-1 $288 4.682611917762582 $560 8.1375506337417001 $287 $561 forward 7 unknown #
point $-1 61.904965361491747 34.366541425969771 -4.682611917762582 #
point $-1 61.904965361491747 24.927881703045781 -4.682611917762582 #
loop $-1 $-1 $299 $291 #
plane-surface $-1 0 0 8.1375506337417001 0 0 1 1 0 0 forward_v I I I I #
coedge $-1 $435 $294 $296 $439 reversed $175 $-1 #
coedge $-1 $294 $434 $562 $563 reversed $175 $-1 #
coedge $-1 $302 $297 $294 $437 forward $292 $-1 #
edge $-1 $440 -51.837986633791985 $564 -45.021238226028856 $436 $565 forward 7 unknown #
coedge $-1 $296 $295 $443 $566 reversed $109 $-1 #
edge $-1 $567 -12.863748834682251 $440 0 $434 $568 forward 7 unknown #
vertex $-1 $298 $569 #
straight-curve $-1 -61.904965361491747 2.8385973844759356 1.3208022259785674 0 -1 0 I I #
coedge $-1 $562 $299 $302 $447 forward $432 $-1 #
coedge $-1 $299 $562 $438 $566 forward $432 $-1 #
vertex $-1 $300 $570 #
straight-curve $-1 -63.757116810638252 10.184971412660492 8.1375506337417036 -1 0 0 I I #
straight-curve $-1 -61.904965361491747 10.184971412660492 1.3208022259785679 0.84804809178421925 0 0.52991927123019833 I I #
edge $-1 $303 -10.184971412660492 $564 -1.1694181252432507 $302 $571 forward 7 unknown #
point $-1 -61.904965361491747 10.184971412660492 8.1375506337417001 #
point $-1 -61.904965361491747 10.184971412660492 1.3208022259785679 #
edge $-1 $572 1 $572 0 $306 $-1 forward 7 unknown #
vertex $-1 $307 $573 #
ellipse-curve $-1 -55.076456338267548 3.7452904930767446 2.5303645220930653 -0.52991927123019833 0 0.84804809178421925 0.84804809178421925 0 0.52991927123019833 1 I I #
point $-1 -55.602378443485655 3.7452904930767446 5.2590957010903363 #
edge $-1 $574 1 $574 0 $310 $-1 forward 7 unknown #
vertex $-1 $311 $575 #
ellipse-curve $-1 -55.076456338267548 7.6090990448269906 2.5303645220930653 -0.52991927123019833 0 0.84804809178421925 0.84804809178421925 0 0.52991927123019833 1 I I #
point $-1 -55.602378443485655 7.6090990448269906 5.2590957010903363 #
loop $-1 $-1 $322 $314 #
plane-surface $-1 61.904965361491747 0 0 -1 0 0 0 0 1 forward_v I I I I #
coedge $-1 $461 $317 $319 $465 reversed $197 $-1 #
coedge $-1 $317 $460 $576 $577 reversed $197 $-1 #
coedge $-1 $325 $320 $317 $463 forward $315 $-1 #
edge $-1 $466 4.0589521516227975 $578 8.2936914298370397 $462 $579 forward 7 unknown #
coedge $-1 $319 $318 $469 $580 reversed $123 $-1 #
edge $-1 $581 -123.80993072298349 $466 -115.34045193961579 $460 $582 forward 7 unknown #
vertex $-1 $321 $583 #
straight-curve $-1 57.670226083277505 -10.73806688457463 8.1375506337416894 0 -1 0 I I #
coedge $-1 $576 $322 $325 $473 reversed $458 $-1 #
coedge $-1 $322 $576 $464 $580 forward $458 $-1 #
vertex $-1 $323 $584 #
straight-curve $-1 61.904965361491747 -18.024385835252737 84.965138346170519 0 0 1 I I #
straight-curve $-1 1.6587401745482566e-006 -18.024385835252737 108.02531298958945 0.49999998660252726 0 -0.86602541151947299 I I #
edge $-1 $578 -24.927881703045784 $326 -18.024385835252737 $468 $585 forward 7 unknown #
point $-1 61.904965361491747 -18.024385835252737 8.1375506337417001 #
point $-1 57.670226083277505 -18.024385835252737 8.1375506337416965 #
edge $-1 $586 1 $586 0 $329 $-1 forward 7 unknown #
vertex $-1 $330 $587 #
ellipse-curve $-1 58.92157031086515 -22.955454312247774 3.9701587227784407 0.86602541151947299 0 0.49999998660252726 0.12499999665063181 0 -0.21650635287986825 1 I I #
point $-1 59.912595719035259 -22.955454312247774 4.2536523565010995 #
edge $-1 $588 1 $588 0 $333 $-1 forward 7 unknown #
vertex $-1 $334 $589 #
ellipse-curve $-1 58.92157031086515 -19.996813226050751 3.9701587227784407 0.86602541151947299 0 0.49999998660252726 0.12499999665063181 0 -0.21650635287986825 1 I I #
point $-1 59.912595719035259 -19.996813226050751 4.2536523565010995 #
plane-surface $-1 0 0 8.1375506337417001 0 0 1 1 0 0 forward_v I I I I #
coedge $-1 $495 $494 $487 $590 forward $338 $-1 #
coedge $-1 $487 $340 $342 $491 reversed $219 $-1 #
coedge $-1 $340 $486 $485 $590 reversed $219 $-1 #
coedge $-1 $348 $343 $340 $489 forward $349 $-1 #
edge $-1 $492 4.0589521516227975 $591 8.2936914298370397 $488 $592 forward 7 unknown #
coedge $-1 $342 $341 $495 $593 reversed $137 $-1 #
edge $-1 $594 -123.80993072298349 $492 -115.34045193961579 $486 $595 forward 7 unknown #
vertex $-1 $344 $596 #
straight-curve $-1 57.670226083277505 1.7258739669482601 8.1375506337416894 0 -1 0 I I #
coedge $-1 $485 $345 $348 $499 reversed $338 $-1 #
coedge $-1 $345 $485 $490 $593 forward $338 $-1 #
vertex $-1 $346 $597 #
straight-curve $-1 61.904965361491747 6.9034958677930449 84.965138346170519 0 0 1 I I #
straight-curve $-1 1.6587401745482566e-006 6.9034958677930449 108.02531298958945 0.49999998660252726 0 -0.86602541151947299 I I #
edge $-1 $591 -4.4408920985006262e-015 $350 6.9034958677930449 $494 $598 forward 7 unknown #
point $-1 61.904965361491747 6.9034958677930449 8.1375506337417001 #
point $-1 57.670226083277505 6.9034958677930449 8.1375506337416965 #
edge $-1 $599 1 $599 0 $353 $-1 forward 7 unknown #
vertex $-1 $354 $600 #
ellipse-curve $-1 58.92157031086515 1.9724273907980105 3.9701587227784407 0.86602541151947299 0 0.49999998660252726 0.12499999665063181 0 -0.21650635287986825 1 I I #
point $-1 59.912595719035259 1.9724273907980105 4.2536523565010995 #
edge $-1 $601 1 $601 0 $357 $-1 forward 7 unknown #
vertex $-1 $358 $602 #
ellipse-curve $-1 58.92157031086515 4.9310684769950299 3.9701587227784407 0.86602541151947299 0 0.49999998660252726 0.12499999665063181 0 -0.21650635287986825 1 I I #
point $-1 59.912595719035259 4.9310684769950299 4.2536523565010995 #
plane-surface $-1 61.904965361491747 0 0 -1 0 0 0 0 1 forward_v I I I I #
coedge $-1 $366 $364 $368 $515 reversed $241 $-1 #
edge $-1 $379 -8.1375506337417001 $517 8.1375506337417001 $378 $603 forward 7 unknown #
vertex $-1 $515 $604 #
straight-curve $-1 -61.904965361491747 -34.366541425969778 0 0 0 -1 I I #
edge $-1 $513 -34.366541425969778 $517 34.366541425969778 $511 $605 forward 7 unknown #
straight-curve $-1 0 -34.366541425969778 -8.1375506337417001 -1 0 0 I I #
vertex $-1 $371 $606 #
straight-curve $-1 0 34.366541425969778 -8.1375506337417001 1 0 0 I I #
point $-1 61.904965361491747 34.366541425969778 -8.1375506337417001 #
point $-1 61.904965361491747 -34.366541425969778 -8.1375506337417001 #
straight-curve $-1 -61.904965361491747 0 8.1375506337417001 0 -1 0 I I #
point $-1 -61.904965361491747 34.366541425969778 8.1375506337417001 #
point $-1 -61.904965361491747 -34.366541425969778 8.1375506337417001 #
straight-curve $-1 61.904965361491747 -34.366541425969778 0 0 0 -1 I I #
straight-curve $-1 61.904965361491747 34.366541425969778 0 0 0 -1 I I #
loop $-1 $-1 $534 $388 #
plane-surface $-1 -61.904965361491747 0 0 1 0 0 0 0 -1 forward_v I I I I #
coedge $-1 $392 $391 $540 $607 forward $159 $-1 #
edge $-1 $396 24.927881703045784 $543 34.366541425969778 $395 $608 forward 7 unknown #
coedge $-1 $537 $534 $392 $531 reversed $526 $-1 #
edge $-1 $609 -34.366541425969778 $532 -24.927881703045784 $530 $610 forward 7 unknown #
vertex $-1 $535 $611 #
straight-curve $-1 0 -24.927881703045784 -8.1375506337417001 1 0 0 I I #
coedge $-1 $530 $398 $394 $535 forward $526 $-1 #
edge $-1 $400 1.4775712798865115 $532 4.9325099958656295 $534 $612 forward 7 unknown #
point $-1 61.904965361491747 -24.927881703045784 -8.1375506337417001 #
coedge $-1 $398 $530 $402 $541 reversed $526 $-1 #
straight-curve $-1 -61.904965361491747 -14.823605782253891 -4.682611917762582 0 1 0 I I #
point $-1 -61.904965361491747 -24.927881703045784 -4.682611917762582 #
coedge $-1 $403 $402 $528 $607 reversed $389 $-1 #
edge $-1 $404 4.682611917762582 $609 8.1375506337417001 $537 $613 forward 7 unknown #
point $-1 -61.904965361491747 -34.366541425969778 -4.682611917762582 #
vertex $-1 $406 $614 #
straight-curve $-1 61.904965361491747 -34.366541425969778 0 0 0 -1 I I #
plane-surface $-1 0 34.366541425969778 0 0 -1 0 0 0 -1 forward_v I I I I #
coedge $-1 $615 $412 $416 $551 forward $276 $-1 #
coedge $-1 $412 $615 $427 $558 forward $276 $-1 #
vertex $-1 $414 $616 #
straight-curve $-1 0 24.927881703045781 -8.1375506337417001 -1 0 0 I I #
coedge $-1 $416 $415 $422 $556 forward $410 $-1 #
edge $-1 $417 24.927881703045781 $617 34.366541425969778 $416 $618 forward 7 unknown #
point $-1 -61.904965361491747 24.927881703045781 -8.1375506337417001 #
point $-1 -61.904965361491747 24.927881703045781 -4.682611917762582 #
straight-curve $-1 -61.904965361491747 14.823605782253889 -4.682611917762582 0 1 0 I I #
coedge $-1 $422 $421 $615 $619 reversed $423 $-1 #
edge $-1 $424 4.682611917762582 $617 8.1375506337417001 $422 $620 forward 7 unknown #
point $-1 -61.904965361491747 34.366541425969771 -4.682611917762582 #
edge $-1 $560 -34.366541425969778 $548 -24.927881703045781 $427 $621 forward 7 unknown #
straight-curve $-1 61.904965361491747 24.927881703045781 -3.2050406378760705 0 0 -1 I I #
vertex $-1 $558 $622 #
straight-curve $-1 61.904965361491747 34.366541425969778 0 0 0 -1 I I #
coedge $-1 $443 $442 $435 $563 forward $432 $-1 #
edge $-1 $564 1.8521514491465041 $567 12.76122910159026 $562 $623 forward 7 unknown #
vertex $-1 $563 $624 #
straight-curve $-1 -61.904965361491747 1.1694181252432507 53.158788859770553 0 0 1 I I #
edge $-1 $567 -1.6691792592326848 $444 7.346374028184556 $443 $625 forward 7 unknown #
vertex $-1 $566 $626 #
straight-curve $-1 -61.904965361491747 1.1694181252432507 1.3208022259785679 -0.84804809178421925 0 -0.52991927123019833 I I #
point $-1 -61.904965361491747 1.1694181252432507 1.3208022259785679 #
point $-1 -50.995887709047992 10.184971412660492 8.1375506337417001 #
straight-curve $-1 -61.904965361491747 0 8.1375506337417001 0 -1 0 I I #
vertex $-1 $450 $627 #
point $-1 -54.228408246483326 3.7452904930767446 3.0602837933232632 #
vertex $-1 $454 $628 #
point $-1 -54.228408246483326 7.6090990448269906 3.0602837933232632 #
coedge $-1 $469 $468 $461 $577 forward $458 $-1 #
edge $-1 $578 76.827587712428823 $581 84.162371561150294 $576 $629 forward 7 unknown #
vertex $-1 $473 $630 #
straight-curve $-1 53.611273931654708 -24.927881703045784 8.1375506337416965 1 0 0 I I #
edge $-1 $581 -14.189814818471154 $470 -7.2863189506781065 $469 $631 forward 7 unknown #
vertex $-1 $580 $632 #
straight-curve $-1 1.6587401745482566e-006 -24.927881703045784 108.02531298958945 -0.49999998660252726 0 0.86602541151947299 I I #
point $-1 57.670226083277505 -24.927881703045784 8.1375506337416965 #
point $-1 61.904965361491747 -18.024385835252737 0.80276678502022492 #
straight-curve $-1 61.904965361491747 0 8.1375506337417001 0 1 0 I I #
vertex $-1 $476 $633 #
point $-1 59.046570307515786 -22.955454312247774 3.7536523698985724 #
vertex $-1 $480 $634 #
point $-1 59.046570307515786 -19.996813226050751 3.7536523698985724 #
edge $-1 $591 76.827587712428823 $594 84.162371561150294 $485 $635 forward 7 unknown #
vertex $-1 $499 $636 #
straight-curve $-1 53.611273931654708 -4.4408920985006262e-015 8.1375506337416965 1 0 0 I I #
edge $-1 $594 -1.7258739669482646 $496 5.1776219008447848 $495 $637 forward 7 unknown #
vertex $-1 $593 $638 #
straight-curve $-1 1.6587401745482566e-006 -4.4408920985006262e-015 108.02531298958945 -0.49999998660252726 0 0.86602541151947299 I I #
point $-1 57.670226083277505 -4.4408920985006262e-015 8.1375506337416965 #
point $-1 61.904965361491747 6.9034958677930449 0.80276678502022492 #
straight-curve $-1 61.904965361491747 0 8.1375506337417001 0 1 0 I I #
vertex $-1 $502 $639 #
point $-1 59.046570307515786 1.9724273907980105 3.7536523698985724 #
vertex $-1 $506 $640 #
point $-1 59.046570307515786 4.9310684769950299 3.7536523698985724 #
straight-curve $-1 -61.904965361491747 34.366541425969778 0 0 0 -1 I I #
point $-1 -61.904965361491747 -34.366541425969778 -8.1375506337417001 #
straight-curve $-1 -61.904965361491747 0 -8.1375506337417001 0 1 0 I I #
point $-1 -61.904965361491747 34.366541425969778 -8.1375506337417001 #
edge $-1 $543 -61.904965361491747 $609 61.904965361491747 $540 $641 forward 7 unknown #
straight-curve $-1 61.904965361491747 0 -8.1375506337417001 0 -1 0 I I #
vertex $-1 $531 $642 #
straight-curve $-1 -61.904965361491747 0 -8.1375506337417001 0 1 0 I I #
point $-1 -61.904965361491747 -24.927881703045784 -8.1375506337417001 #
straight-curve $-1 -61.904965361491747 -24.927881703045784 -3.2050406378760705 0 0 -1 I I #
straight-curve $-1 -61.904965361491747 -34.366541425969778 0 0 0 -1 I I #
point $-1 61.904965361491747 -34.366541425969778 -8.1375506337417001 #
coedge $-1 $547 $546 $555 $619 forward $276 $-1 #
point $-1 61.904965361491747 24.927881703045781 -8.1375506337417001 #
vertex $-1 $619 $643 #
straight-curve $-1 -61.904965361491747 0 -8.1375506337417001 0 1 0 I I #
edge $-1 $617 -61.904965361491747 $560 61.904965361491747 $555 $644 forward 7 unknown #
straight-curve $-1 -61.904965361491747 34.366541425969778 0 0 0 -1 I I #
straight-curve $-1 61.904965361491747 0 -8.1375506337417001 0 -1 0 I I #
point $-1 61.904965361491747 34.366541425969778 -8.1375506337417001 #
straight-curve $-1 -63.757116810638252 1.1694181252432507 8.1375506337417036 1 0 0 I I #
point $-1 -61.904965361491747 1.1694181252432507 8.1375506337417001 #
straight-curve $-1 -50.995887709047992 2.8385973844759356 8.1375506337417001 0 1 0 I I #
point $-1 -50.995887709047992 1.1694181252432507 8.1375506337417001 #
point $-1 -54.546537067037349 3.7452904930767446 1.6823164303088458 #
point $-1 -54.546537067037349 7.6090990448269906 1.6823164303088458 #
straight-curve $-1 61.904965361491747 -24.927881703045784 84.965138346170519 0 0 -1 I I #
point $-1 61.904965361491747 -24.927881703045784 8.1375506337417001 #
straight-curve $-1 61.904965361491747 -10.73806688457463 0.80276678502021781 0 1 0 I I #
point $-1 61.904965361491747 -24.927881703045784 0.80276678502022492 #
point $-1 58.705063957985288 -22.955454312247774 3.8451587261278086 #
point $-1 58.705063957985288 -19.996813226050751 3.8451587261278086 #
straight-curve $-1 61.904965361491747 -4.4408920985006262e-015 84.965138346170519 0 0 -1 I I #
point $-1 61.904965361491747 -4.4408920985006262e-015 8.1375506337417001 #
straight-curve $-1 61.904965361491747 1.7258739669482601 0.80276678502021781 0 1 0 I I #
point $-1 61.904965361491747 -4.4408920985006262e-015 0.80276678502022492 #
point $-1 58.705063957985288 1.9724273907980105 3.8451587261278086 #
point $-1 58.705063957985288 4.9310684769950299 3.8451587261278086 #
straight-curve $-1 0 -34.366541425969778 -8.1375506337417001 -1 0 0 I I #
point $-1 -61.904965361491747 -34.366541425969778 -8.1375506337417001 #
point $-1 -61.904965361491747 34.366541425969778 -8.1375506337417001 #
straight-curve $-1 0 34.366541425969778 -8.1375506337417001 1 0 0 I I #
End-of-ACIS-data 