500 0 12 0           
7 Unknown 11 ACIS 5.0 NT 24 Fri Mar 26 02:44:41 1999 
-1 9.9999999999999995e-007 1e-010 
body $-1 $12 $-1 $13 #
body $-1 $14 $-1 $15 #
body $-1 $16 $-1 $17 #
body $-1 $18 $-1 $19 #
body $-1 $20 $-1 $21 #
body $-1 $22 $-1 $23 #
body $-1 $24 $-1 $25 #
body $-1 $26 $-1 $27 #
body $-1 $28 $-1 $29 #
body $-1 $30 $-1 $31 #
body $-1 $32 $-1 $33 #
body $-1 $34 $-1 $35 #
lump $-1 $-1 $36 $0 #
transform $-1 1 0 0 0 1 0 0 0 1 49.187292092654197 31.108969508033905 10.531972150134969 1 rotate no_reflect no_shear #
lump $-1 $-1 $37 $1 #
transform $-1 1 0 0 0 1 0 0 0 1 49.187292092654197 31.108969508033905 10.531972150134969 1 rotate no_reflect no_shear #
lump $-1 $-1 $38 $2 #
transform $-1 1 0 0 0 1 0 0 0 1 49.187292092654197 31.108969508033905 10.531972150134969 1 rotate no_reflect no_shear #
lump $-1 $-1 $39 $3 #
transform $-1 1 0 0 0 1 0 0 0 1 49.187292092654197 31.108969508033905 10.531972150134969 1 rotate no_reflect no_shear #
lump $-1 $-1 $40 $4 #
transform $-1 1 0 0 0 1 0 0 0 1 49.187292092654197 31.108969508033905 10.531972150134969 1 rotate no_reflect no_shear #
lump $-1 $-1 $41 $5 #
transform $-1 1 0 0 0 1 0 0 0 1 49.187292092654197 31.108969508033905 10.531972150134969 1 rotate no_reflect no_shear #
lump $-1 $-1 $42 $6 #
transform $-1 1 0 0 0 1 0 0 0 1 49.187292092654197 31.108969508033905 10.531972150134969 1 rotate no_reflect no_shear #
lump $-1 $-1 $43 $7 #
transform $-1 1 0 0 0 1 0 0 0 1 49.187292092654197 31.108969508033905 10.531972150134969 1 rotate no_reflect no_shear #
lump $-1 $-1 $44 $8 #
transform $-1 1 0 0 0 1 0 0 0 1 49.187292092654197 31.108969508033905 10.531972150134969 1 rotate no_reflect no_shear #
lump $-1 $-1 $45 $9 #
transform $-1 1 0 0 0 1 0 0 0 1 49.187292092654197 31.108969508033905 10.531972150134969 1 rotate no_reflect no_shear #
lump $-1 $-1 $46 $10 #
transform $-1 1 0 0 0 1 0 0 0 1 49.187292092654197 31.108969508033905 10.531972150134969 1 rotate no_reflect no_shear #
lump $-1 $-1 $47 $11 #
transform $-1 1 0 0 0 1 0 0 0 1 49.187292092654197 31.108969508033905 10.531972150134969 1 rotate no_reflect no_shear #
shell $-1 $-1 $-1 $48 $-1 $12 #
shell $-1 $-1 $-1 $49 $-1 $14 #
shell $-1 $-1 $-1 $50 $-1 $16 #
shell $-1 $-1 $-1 $51 $-1 $18 #
shell $-1 $-1 $-1 $52 $-1 $20 #
shell $-1 $-1 $-1 $53 $-1 $22 #
shell $-1 $-1 $-1 $54 $-1 $24 #
shell $-1 $-1 $-1 $55 $-1 $26 #
shell $-1 $-1 $-1 $56 $-1 $28 #
shell $-1 $-1 $-1 $57 $-1 $30 #
shell $-1 $-1 $-1 $58 $-1 $32 #
shell $-1 $-1 $-1 $59 $-1 $34 #
face $-1 $60 $61 $36 $-1 $62 reversed single #
face $-1 $63 $64 $37 $-1 $65 forward single #
face $-1 $66 $67 $38 $-1 $68 reversed single #
face $-1 $69 $70 $39 $-1 $71 forward single #
face $-1 $72 $73 $40 $-1 $74 reversed single #
face $-1 $75 $76 $41 $-1 $77 forward single #
face $-1 $78 $79 $42 $-1 $80 reversed single #
face $-1 $81 $82 $43 $-1 $83 forward single #
face $-1 $84 $85 $44 $-1 $86 reversed single #
face $-1 $87 $88 $45 $-1 $89 forward single #
face $-1 $90 $91 $46 $-1 $92 reversed single #
face $-1 $93 $94 $47 $-1 $95 forward single #
face $-1 $96 $97 $36 $-1 $98 forward single #
loop $-1 $-1 $99 $48 #
plane-surface $-1 0 -31.108969508033905 0 0 1 0 0 0 1 forward_v I I I I #
face $-1 $100 $101 $37 $-1 $102 forward single #
loop $-1 $-1 $103 $49 #
plane-surface $-1 0 -31.108969508033905 0 0 1 0 0 0 1 forward_v I I I I #
face $-1 $104 $105 $38 $-1 $106 reversed single #
loop $-1 $-1 $107 $50 #
plane-surface $-1 25.028895012102801 -3.6917477325562835 142.06518632136718 0 -1 0 -0.57357644374324357 0 -0.81915203911291934 forward_v I I I I #
face $-1 $108 $109 $39 $-1 $110 forward single #
loop $-1 $111 $112 $51 #
cone-surface $-1 44.586677080419932 -8.3120503743201759 6.8079891827201067 -0.57357644374324357 0 -0.81915203911291934 0.81915203911291934 0 -0.57357644374324357 1 I I 0 1 1 forward I I I I #
face $-1 $113 $114 $40 $-1 $115 reversed single #
loop $-1 $-1 $116 $52 #
plane-surface $-1 -123.43153404312338 -20.0126148278047 69.496562550480263 0 1 0 -0.75470958851134928 0 0.65605901945558964 forward_v I I I I #
face $-1 $117 $118 $41 $-1 $119 forward single #
loop $-1 $120 $121 $53 #
cone-surface $-1 -46.231942625375474 -15.904731394193083 7.281833662190218 0.75470958851134928 0 -0.65605901945558964 0.65605901945558964 0 0.75470958851134928 1 I I 0 1 1 forward I I I I #
face $-1 $122 $123 $42 $-1 $124 reversed single #
loop $-1 $-1 $125 $54 #
plane-surface $-1 -123.43153404312338 -6.5246121639074248 69.496562550480263 0 1 0 -0.75470958851134928 0 0.65605901945558964 forward_v I I I I #
face $-1 $126 $127 $43 $-1 $128 forward single #
loop $-1 $129 $130 $55 #
cone-surface $-1 -46.231942625375474 -2.4167287302958087 7.281833662190218 0.75470958851134928 0 -0.65605901945558964 0.65605901945558964 0 0.75470958851134928 1 I I 0 1 1 forward I I I I #
face $-1 $131 $132 $44 $-1 $133 reversed single #
loop $-1 $-1 $134 $56 #
plane-surface $-1 -123.43153404312338 6.9633904999898517 69.496562550480263 0 1 0 -0.75470958851134928 0 0.65605901945558964 forward_v I I I I #
face $-1 $135 $136 $45 $-1 $137 forward single #
loop $-1 $138 $139 $57 #
cone-surface $-1 -46.231942625375474 11.071273933601464 7.281833662190218 0.75470958851134928 0 -0.65605901945558964 0.65605901945558964 0 0.75470958851134928 1 I I 0 1 1 forward I I I I #
face $-1 $140 $141 $46 $-1 $142 reversed single #
loop $-1 $-1 $143 $58 #
plane-surface $-1 -123.43153404312338 20.451393163887129 69.496562550480263 0 1 0 -0.75470958851134928 0 0.65605901945558964 forward_v I I I I #
face $-1 $144 $145 $47 $-1 $146 forward single #
loop $-1 $147 $148 $59 #
cone-surface $-1 -46.231942625375474 24.559276597498741 7.281833662190218 0.75470958851134928 0 -0.65605901945558964 0.65605901945558964 0 0.75470958851134928 1 I I 0 1 1 forward I I I I #
face $-1 $149 $150 $36 $-1 $151 reversed single #
loop $-1 $-1 $152 $60 #
plane-surface $-1 0 0 10.531972150134969 0 0 1 1 0 0 forward_v I I I I #
coedge $-1 $153 $154 $155 $156 reversed $61 $-1 #
face $-1 $157 $158 $37 $-1 $159 reversed single #
loop $-1 $-1 $160 $63 #
plane-surface $-1 0 0 10.531972150134969 0 0 1 1 0 0 forward_v I I I I #
coedge $-1 $161 $162 $163 $164 forward $64 $-1 #
face $-1 $165 $166 $38 $-1 $167 reversed single #
loop $-1 $-1 $168 $66 #
plane-surface $-1 -31.396449139626718 -8.3120503743201759 61.481445089086264 0.57357644374324357 0 0.81915203911291934 0.81915203911291934 0 -0.57357644374324357 forward_v I I I I #
coedge $-1 $169 $170 $171 $172 reversed $67 $-1 #
face $-1 $-1 $173 $39 $-1 $174 forward single #
loop $-1 $175 $176 $69 #
cone-surface $-1 43.609451050065239 -8.3120503743201759 5.4123658021378915 -0.57357644374324357 0 -0.81915203911291934 0.40957601955645967 0 -0.28678822187162178 1 I I -0.70710678118654746 0.70710678118654746 0.5 forward I I I I #
loop $-1 $-1 $177 $51 #
coedge $-1 $112 $112 $178 $179 reversed $70 $-1 #
face $-1 $180 $181 $40 $-1 $182 reversed single #
loop $-1 $-1 $183 $72 #
plane-surface $-1 -49.187292092654189 -15.904731394193082 4.9570293105154803 -0.75470958851134928 0 0.65605901945558964 0.65605901945558964 0 0.75470958851134928 forward_v I I I I #
coedge $-1 $184 $185 $186 $187 reversed $73 $-1 #
face $-1 $-1 $188 $41 $-1 $189 forward single #
loop $-1 $190 $191 $75 #
cone-surface $-1 -45.322350239295091 -15.904731394193083 6.4911370843274163 0.75470958851134928 0 -0.65605901945558964 0.32802950972779482 0 0.37735479425567464 1 I I -0.70710678118654746 0.70710678118654746 0.5 forward I I I I #
loop $-1 $-1 $192 $53 #
coedge $-1 $121 $121 $193 $194 reversed $76 $-1 #
face $-1 $195 $196 $42 $-1 $197 reversed single #
loop $-1 $-1 $198 $78 #
plane-surface $-1 -49.187292092654189 -2.4167287302958051 4.9570293105154803 -0.75470958851134928 0 0.65605901945558964 0.65605901945558964 0 0.75470958851134928 forward_v I I I I #
coedge $-1 $199 $200 $201 $202 reversed $79 $-1 #
face $-1 $-1 $203 $43 $-1 $204 forward single #
loop $-1 $205 $206 $81 #
cone-surface $-1 -45.322350239295091 -2.4167287302958087 6.4911370843274163 0.75470958851134928 0 -0.65605901945558964 0.32802950972779482 0 0.37735479425567464 1 I I -0.70710678118654746 0.70710678118654746 0.5 forward I I I I #
loop $-1 $-1 $207 $55 #
coedge $-1 $130 $130 $208 $209 reversed $82 $-1 #
face $-1 $210 $211 $44 $-1 $212 reversed single #
loop $-1 $-1 $213 $84 #
plane-surface $-1 -49.187292092654189 11.071273933601471 4.9570293105154803 -0.75470958851134928 0 0.65605901945558964 0.65605901945558964 0 0.75470958851134928 forward_v I I I I #
coedge $-1 $214 $215 $216 $217 reversed $85 $-1 #
face $-1 $-1 $218 $45 $-1 $219 forward single #
loop $-1 $220 $221 $87 #
cone-surface $-1 -45.322350239295091 11.071273933601464 6.4911370843274163 0.75470958851134928 0 -0.65605901945558964 0.32802950972779482 0 0.37735479425567464 1 I I -0.70710678118654746 0.70710678118654746 0.5 forward I I I I #
loop $-1 $-1 $222 $57 #
coedge $-1 $139 $139 $223 $224 reversed $88 $-1 #
face $-1 $225 $226 $46 $-1 $227 reversed single #
loop $-1 $-1 $228 $90 #
plane-surface $-1 -49.187292092654189 24.559276597498748 4.9570293105154803 -0.75470958851134928 0 0.65605901945558964 0.65605901945558964 0 0.75470958851134928 forward_v I I I I #
coedge $-1 $229 $230 $231 $232 reversed $91 $-1 #
face $-1 $-1 $233 $47 $-1 $234 forward single #
loop $-1 $235 $236 $93 #
cone-surface $-1 -45.322350239295091 24.559276597498741 6.4911370843274163 0.75470958851134928 0 -0.65605901945558964 0.32802950972779482 0 0.37735479425567464 1 I I -0.70710678118654746 0.70710678118654746 0.5 forward I I I I #
loop $-1 $-1 $237 $59 #
coedge $-1 $148 $148 $238 $239 reversed $94 $-1 #
face $-1 $240 $241 $36 $-1 $242 reversed single #
loop $-1 $-1 $243 $96 #
plane-surface $-1 0 0 -10.531972150134969 0 0 1 1 0 0 forward_v I I I I #
coedge $-1 $244 $245 $246 $247 forward $97 $-1 #
coedge $-1 $248 $99 $249 $250 reversed $61 $-1 #
coedge $-1 $99 $248 $251 $252 forward $61 $-1 #
coedge $-1 $253 $243 $99 $156 forward $150 $-1 #
edge $-1 $254 -49.187292092654197 $255 49.187292092654197 $99 $256 forward 7 unknown #
face $-1 $257 $258 $37 $-1 $259 reversed single #
loop $-1 $-1 $260 $100 #
plane-surface $-1 -49.187292092654197 0 0 1 0 0 0 0 -1 forward_v I I I I #
coedge $-1 $261 $262 $162 $263 forward $101 $-1 #
coedge $-1 $264 $103 $265 $266 reversed $64 $-1 #
coedge $-1 $103 $264 $160 $263 reversed $64 $-1 #
coedge $-1 $267 $268 $103 $164 reversed $269 $-1 #
edge $-1 $270 -10.531972150134969 $271 10.531972150134969 $163 $272 forward 7 unknown #
face $-1 $273 $274 $38 $-1 $275 forward single #
loop $-1 $-1 $276 $104 #
plane-surface $-1 25.028895012102801 -12.932353016084068 142.06518632136718 0 1 0 0.57357644374324357 0 0.81915203911291934 forward_v I I I I #
coedge $-1 $277 $278 $279 $280 reversed $105 $-1 #
coedge $-1 $170 $107 $281 $282 reversed $67 $-1 #
coedge $-1 $107 $169 $277 $283 reversed $67 $-1 #
coedge $-1 $279 $284 $107 $172 forward $274 $-1 #
edge $-1 $285 -36.672844586602793 $286 -28.852490179100418 $171 $287 forward 7 unknown #
loop $-1 $-1 $178 $108 #
plane-surface $-1 -31.396449139626718 -8.3120503743201759 61.481445089086264 0.57357644374324357 0 0.81915203911291934 0.81915203911291934 0 -0.57357644374324357 forward_v I I I I #
loop $-1 $-1 $288 $69 #
coedge $-1 $176 $176 $177 $289 reversed $109 $-1 #
coedge $-1 $177 $177 $176 $289 forward $111 $-1 #
coedge $-1 $178 $178 $112 $179 forward $173 $-1 #
edge $-1 $290 0 $290 6.2831853071796004 $178 $291 forward 7 unknown #
face $-1 $292 $293 $40 $-1 $294 reversed single #
loop $-1 $-1 $295 $113 #
plane-surface $-1 -123.43153404312338 -11.796847960581463 69.496562550480263 0 -1 0 0.75470958851134928 0 -0.65605901945558964 forward_v I I I I #
coedge $-1 $296 $297 $298 $299 reversed $114 $-1 #
coedge $-1 $185 $116 $300 $301 reversed $73 $-1 #
coedge $-1 $116 $184 $296 $302 reversed $73 $-1 #
coedge $-1 $298 $303 $116 $187 forward $304 $-1 #
edge $-1 $305 12.528474928907492 $306 17.374698679815523 $186 $307 forward 7 unknown #
loop $-1 $-1 $193 $117 #
plane-surface $-1 -49.187292092654189 -15.904731394193082 4.9570293105154803 -0.75470958851134928 0 0.65605901945558964 0.65605901945558964 0 0.75470958851134928 forward_v I I I I #
loop $-1 $-1 $308 $75 #
coedge $-1 $191 $191 $192 $309 reversed $118 $-1 #
coedge $-1 $192 $192 $191 $309 forward $120 $-1 #
coedge $-1 $193 $193 $121 $194 forward $188 $-1 #
edge $-1 $310 0 $310 6.2831853071796004 $193 $311 forward 7 unknown #
face $-1 $312 $313 $42 $-1 $314 forward single #
loop $-1 $-1 $315 $122 #
plane-surface $-1 -123.43153404312338 1.6911547033158145 69.496562550480263 0 -1 0 0.75470958851134928 0 -0.65605901945558964 forward_v I I I I #
coedge $-1 $316 $317 $318 $319 reversed $123 $-1 #
coedge $-1 $200 $125 $320 $321 reversed $79 $-1 #
coedge $-1 $125 $199 $316 $322 reversed $79 $-1 #
coedge $-1 $318 $323 $125 $202 forward $313 $-1 #
edge $-1 $324 12.528474928907492 $325 17.374698679815523 $201 $326 forward 7 unknown #
loop $-1 $-1 $208 $126 #
plane-surface $-1 -49.187292092654189 -2.4167287302958051 4.9570293105154803 -0.75470958851134928 0 0.65605901945558964 0.65605901945558964 0 0.75470958851134928 forward_v I I I I #
loop $-1 $-1 $327 $81 #
coedge $-1 $206 $206 $207 $328 reversed $127 $-1 #
coedge $-1 $207 $207 $206 $328 forward $129 $-1 #
coedge $-1 $208 $208 $130 $209 forward $203 $-1 #
edge $-1 $329 0 $329 6.2831853071796004 $208 $330 forward 7 unknown #
face $-1 $331 $332 $44 $-1 $333 forward single #
loop $-1 $-1 $334 $131 #
plane-surface $-1 -123.43153404312338 15.17915736721309 69.496562550480263 0 -1 0 0.75470958851134928 0 -0.65605901945558964 forward_v I I I I #
coedge $-1 $335 $336 $337 $338 reversed $132 $-1 #
coedge $-1 $215 $134 $339 $340 reversed $85 $-1 #
coedge $-1 $134 $214 $335 $341 reversed $85 $-1 #
coedge $-1 $337 $342 $134 $217 forward $332 $-1 #
edge $-1 $343 12.528474928907492 $344 17.374698679815523 $216 $345 forward 7 unknown #
loop $-1 $-1 $223 $135 #
plane-surface $-1 -49.187292092654189 11.071273933601471 4.9570293105154803 -0.75470958851134928 0 0.65605901945558964 0.65605901945558964 0 0.75470958851134928 forward_v I I I I #
loop $-1 $-1 $346 $87 #
coedge $-1 $221 $221 $222 $347 reversed $136 $-1 #
coedge $-1 $222 $222 $221 $347 forward $138 $-1 #
coedge $-1 $223 $223 $139 $224 forward $218 $-1 #
edge $-1 $348 0 $348 6.2831853071796004 $223 $349 forward 7 unknown #
face $-1 $350 $351 $46 $-1 $352 forward single #
loop $-1 $-1 $353 $140 #
plane-surface $-1 -123.43153404312338 28.667160031110367 69.496562550480263 0 -1 0 0.75470958851134928 0 -0.65605901945558964 forward_v I I I I #
coedge $-1 $354 $355 $356 $357 reversed $141 $-1 #
coedge $-1 $230 $143 $358 $359 reversed $91 $-1 #
coedge $-1 $143 $229 $354 $360 reversed $91 $-1 #
coedge $-1 $356 $361 $143 $232 forward $351 $-1 #
edge $-1 $362 12.528474928907492 $363 17.374698679815523 $231 $364 forward 7 unknown #
loop $-1 $-1 $238 $144 #
plane-surface $-1 -49.187292092654189 24.559276597498748 4.9570293105154803 -0.75470958851134928 0 0.65605901945558964 0.65605901945558964 0 0.75470958851134928 forward_v I I I I #
loop $-1 $-1 $365 $93 #
coedge $-1 $236 $236 $237 $366 reversed $145 $-1 #
coedge $-1 $237 $237 $236 $366 forward $147 $-1 #
coedge $-1 $238 $238 $148 $239 forward $233 $-1 #
edge $-1 $367 0 $367 6.2831853071796004 $238 $368 forward 7 unknown #
face $-1 $369 $370 $36 $-1 $371 reversed single #
loop $-1 $-1 $372 $149 #
plane-surface $-1 -49.187292092654197 0 0 1 0 0 0 0 -1 forward_v I I I I #
coedge $-1 $155 $373 $374 $375 forward $150 $-1 #
coedge $-1 $376 $152 $377 $378 forward $97 $-1 #
coedge $-1 $152 $376 $248 $379 forward $97 $-1 #
coedge $-1 $249 $380 $152 $247 reversed $381 $-1 #
edge $-1 $382 -31.108969508033905 $383 31.108969508033905 $246 $384 forward 7 unknown #
coedge $-1 $154 $153 $245 $379 reversed $61 $-1 #
coedge $-1 $374 $246 $153 $250 forward $381 $-1 #
edge $-1 $382 -10.531972150134969 $254 10.531972150134969 $249 $385 forward 7 unknown #
coedge $-1 $386 $387 $154 $252 reversed $241 $-1 #
edge $-1 $388 -10.531972150134969 $255 10.531972150134969 $251 $389 forward 7 unknown #
coedge $-1 $373 $155 $387 $390 forward $150 $-1 #
vertex $-1 $250 $391 #
vertex $-1 $390 $392 #
straight-curve $-1 0 -31.108969508033905 -10.531972150134969 -1 0 0 I I #
face $-1 $393 $269 $37 $-1 $394 reversed single #
loop $-1 $-1 $395 $157 #
plane-surface $-1 -47.553867327806302 -39.374897868512619 0 0 1 0 0 0 1 forward_v I I I I #
coedge $-1 $396 $397 $264 $398 forward $158 $-1 #
coedge $-1 $399 $160 $397 $400 forward $101 $-1 #
coedge $-1 $160 $399 $267 $401 forward $101 $-1 #
edge $-1 $270 45.920442562958407 $402 49.187292092654197 $160 $403 forward 7 unknown #
coedge $-1 $162 $161 $260 $398 reversed $64 $-1 #
coedge $-1 $404 $405 $161 $266 forward $406 $-1 #
edge $-1 $407 -49.187292092654197 $271 -45.920442562958407 $265 $408 forward 7 unknown #
coedge $-1 $409 $163 $262 $401 reversed $269 $-1 #
coedge $-1 $163 $409 $404 $410 reversed $269 $-1 #
loop $-1 $-1 $409 $257 #
vertex $-1 $263 $411 #
vertex $-1 $410 $412 #
straight-curve $-1 -45.920442562958407 -31.108969508033905 0 0 0 -1 I I #
face $-1 $-1 $413 $38 $-1 $414 reversed single #
loop $-1 $-1 $171 $165 #
plane-surface $-1 0 0 10.531972150134969 0 0 1 1 0 0 forward_v I I I I #
coedge $-1 $415 $416 $417 $418 reversed $166 $-1 #
coedge $-1 $419 $168 $170 $283 forward $105 $-1 #
coedge $-1 $168 $419 $415 $420 forward $105 $-1 #
coedge $-1 $417 $171 $168 $280 forward $274 $-1 #
edge $-1 $286 -0.46427745460380443 $421 8.7763278289239803 $279 $422 forward 7 unknown #
coedge $-1 $423 $424 $169 $282 forward $413 $-1 #
edge $-1 $425 -65.976492223326844 $285 -60.50062101054862 $281 $426 forward 7 unknown #
edge $-1 $286 88.827694189195782 $425 98.374584185308393 $170 $427 forward 7 unknown #
coedge $-1 $171 $417 $423 $428 forward $274 $-1 #
vertex $-1 $282 $429 #
vertex $-1 $172 $430 #
straight-curve $-1 12.5144475060514 -3.6917477325562835 10.531972150134976 -1 0 0 I I #
coedge $-1 $288 $288 $-1 $431 reversed $175 $-1 #
edge $-1 $432 0 $432 6.2831853071796004 $176 $433 forward 7 unknown #
vertex $-1 $179 $434 #
ellipse-curve $-1 45.277114888903 -8.3120503743201759 7.7940365437458619 0.57357644374324357 0 0.81915203911291934 0.81915203911291934 0 -0.57357644374324357 1 I I #
face $-1 $-1 $304 $40 $-1 $435 forward single #
loop $-1 $-1 $436 $180 #
plane-surface $-1 -49.187292092654197 0 0 1 0 0 0 0 -1 forward_v I I I I #
coedge $-1 $437 $438 $439 $440 reversed $181 $-1 #
coedge $-1 $441 $183 $185 $302 forward $114 $-1 #
coedge $-1 $183 $441 $437 $442 forward $114 $-1 #
coedge $-1 $439 $186 $183 $299 forward $304 $-1 #
edge $-1 $306 -12.06024913070816 $443 -3.8444822634849221 $298 $444 forward 7 unknown #
coedge $-1 $445 $446 $184 $301 forward $293 $-1 #
edge $-1 $447 -29.791251964724658 $305 -24.216309125105163 $300 $448 forward 7 unknown #
edge $-1 $306 -7.3868716185466274 $447 1.0694430631949516e-014 $185 $449 forward 7 unknown #
coedge $-1 $186 $439 $445 $450 forward $304 $-1 #
loop $-1 $-1 $439 $292 #
vertex $-1 $301 $451 #
vertex $-1 $187 $452 #
straight-curve $-1 -61.715767021561689 -20.0126148278047 10.531972150134969 1 0 0 I I #
coedge $-1 $308 $308 $-1 $453 reversed $190 $-1 #
edge $-1 $454 0 $454 6.2831853071796004 $191 $455 forward 7 unknown #
vertex $-1 $194 $456 #
ellipse-curve $-1 -46.764180217200177 -15.904731394193083 7.744500730325222 -0.75470958851134928 0 0.65605901945558964 0.65605901945558964 0 0.75470958851134928 1 I I #
face $-1 $-1 $457 $42 $-1 $458 reversed single #
loop $-1 $-1 $201 $195 #
plane-surface $-1 0 0 10.531972150134969 0 0 1 1 0 0 forward_v I I I I #
coedge $-1 $459 $460 $461 $462 reversed $196 $-1 #
coedge $-1 $463 $198 $200 $322 forward $123 $-1 #
coedge $-1 $198 $463 $459 $464 forward $123 $-1 #
coedge $-1 $461 $201 $198 $319 forward $313 $-1 #
edge $-1 $325 -5.3162477987595222 $465 2.8995190684637171 $318 $466 forward 7 unknown #
coedge $-1 $467 $468 $199 $321 forward $457 $-1 #
edge $-1 $469 -29.791251964724658 $324 -24.216309125105163 $320 $470 forward 7 unknown #
edge $-1 $325 -7.3868716185466274 $469 1.0694430631949516e-014 $200 $471 forward 7 unknown #
coedge $-1 $201 $461 $467 $472 forward $313 $-1 #
vertex $-1 $321 $473 #
vertex $-1 $202 $474 #
straight-curve $-1 -61.715767021561689 -6.5246121639074248 10.531972150134969 1 0 0 I I #
coedge $-1 $327 $327 $-1 $475 reversed $205 $-1 #
edge $-1 $476 0 $476 6.2831853071796004 $206 $477 forward 7 unknown #
vertex $-1 $209 $478 #
ellipse-curve $-1 -46.764180217200177 -2.4167287302958087 7.744500730325222 -0.75470958851134928 0 0.65605901945558964 0.65605901945558964 0 0.75470958851134928 1 I I #
face $-1 $-1 $479 $44 $-1 $480 reversed single #
loop $-1 $-1 $216 $210 #
plane-surface $-1 0 0 10.531972150134969 0 0 1 1 0 0 forward_v I I I I #
coedge $-1 $481 $482 $483 $484 reversed $211 $-1 #
coedge $-1 $485 $213 $215 $341 forward $132 $-1 #
coedge $-1 $213 $485 $481 $486 forward $132 $-1 #
coedge $-1 $483 $216 $213 $338 forward $332 $-1 #
edge $-1 $344 1.427753533189116 $487 9.6435204004123545 $337 $488 forward 7 unknown #
coedge $-1 $489 $490 $214 $340 forward $479 $-1 #
edge $-1 $491 -29.791251964724658 $343 -24.216309125105163 $339 $492 forward 7 unknown #
edge $-1 $344 -7.3868716185466274 $491 1.0694430631949516e-014 $215 $493 forward 7 unknown #
coedge $-1 $216 $483 $489 $494 forward $332 $-1 #
vertex $-1 $217 $495 #
vertex $-1 $217 $496 #
straight-curve $-1 -61.715767021561689 6.9633904999898517 10.531972150134969 1 0 0 I I #
coedge $-1 $346 $346 $-1 $497 reversed $220 $-1 #
edge $-1 $498 0 $498 6.2831853071796004 $221 $499 forward 7 unknown #
vertex $-1 $224 $500 #
ellipse-curve $-1 -46.764180217200177 11.071273933601464 7.744500730325222 -0.75470958851134928 0 0.65605901945558964 0.65605901945558964 0 0.75470958851134928 1 I I #
face $-1 $-1 $501 $46 $-1 $502 reversed single #
loop $-1 $-1 $231 $225 #
plane-surface $-1 0 0 10.531972150134969 0 0 1 1 0 0 forward_v I I I I #
coedge $-1 $503 $504 $505 $506 reversed $226 $-1 #
coedge $-1 $507 $228 $230 $360 forward $141 $-1 #
coedge $-1 $228 $507 $503 $508 forward $141 $-1 #
coedge $-1 $505 $231 $228 $357 forward $351 $-1 #
edge $-1 $363 8.1717548651377552 $509 16.387521732360995 $356 $510 forward 7 unknown #
coedge $-1 $511 $512 $229 $359 forward $501 $-1 #
edge $-1 $513 -29.791251964724658 $362 -24.216309125105163 $358 $514 forward 7 unknown #
edge $-1 $363 -7.3868716185466274 $513 1.0694430631949516e-014 $230 $515 forward 7 unknown #
coedge $-1 $231 $505 $511 $516 forward $351 $-1 #
vertex $-1 $232 $517 #
vertex $-1 $232 $518 #
straight-curve $-1 -61.715767021561689 20.451393163887129 10.531972150134969 1 0 0 I I #
coedge $-1 $365 $365 $-1 $519 reversed $235 $-1 #
edge $-1 $520 0 $520 6.2831853071796004 $236 $521 forward 7 unknown #
vertex $-1 $239 $522 #
ellipse-curve $-1 -46.764180217200177 24.559276597498741 7.744500730325222 -0.75470958851134928 0 0.65605901945558964 0.65605901945558964 0 0.75470958851134928 1 I I #
face $-1 $-1 $381 $36 $-1 $523 reversed single #
loop $-1 $-1 $524 $240 #
plane-surface $-1 0 31.108969508033905 0 0 -1 0 0 0 -1 forward_v I I I I #
coedge $-1 $387 $386 $525 $526 forward $241 $-1 #
coedge $-1 $243 $253 $527 $528 forward $150 $-1 #
coedge $-1 $380 $249 $243 $375 reversed $381 $-1 #
edge $-1 $529 -31.108969508033905 $254 31.108969508033905 $374 $530 forward 7 unknown #
coedge $-1 $245 $244 $386 $531 forward $97 $-1 #
coedge $-1 $524 $525 $244 $378 reversed $370 $-1 #
edge $-1 $383 -49.187292092654197 $532 49.187292092654197 $377 $533 forward 7 unknown #
edge $-1 $388 -49.187292092654197 $382 49.187292092654197 $248 $534 forward 7 unknown #
coedge $-1 $246 $374 $524 $535 reversed $381 $-1 #
loop $-1 $-1 $249 $369 #
vertex $-1 $247 $536 #
vertex $-1 $247 $537 #
straight-curve $-1 49.187292092654197 0 10.531972150134969 0 1 0 I I #
straight-curve $-1 49.187292092654197 -31.108969508033905 0 0 0 -1 I I #
coedge $-1 $372 $251 $376 $531 reversed $241 $-1 #
coedge $-1 $251 $372 $253 $390 reversed $241 $-1 #
vertex $-1 $531 $538 #
straight-curve $-1 -49.187292092654197 -31.108969508033905 0 0 0 -1 I I #
edge $-1 $255 -31.108969508033905 $539 31.108969508033905 $387 $540 forward 7 unknown #
point $-1 49.187292092654197 -31.108969508033905 -10.531972150134969 #
point $-1 -49.187292092654197 -31.108969508033905 -10.531972150134969 #
face $-1 $-1 $406 $37 $-1 $541 reversed single #
plane-surface $-1 -45.920442562958407 -35.241933688273264 0 -1 0 0 0 0 1 forward_v I I I I #
coedge $-1 $542 $543 $544 $545 forward $258 $-1 #
coedge $-1 $544 $260 $405 $546 reversed $158 $-1 #
coedge $-1 $260 $544 $261 $400 reversed $158 $-1 #
edge $-1 $402 -10.531972150134969 $407 10.531972150134969 $260 $547 forward 7 unknown #
coedge $-1 $262 $261 $543 $548 forward $101 $-1 #
edge $-1 $402 31.108969508033905 $549 39.374897868512619 $397 $550 forward 7 unknown #
edge $-1 $551 -4.1329641802393553 $270 4.1329641802393553 $267 $552 forward 7 unknown #
vertex $-1 $400 $553 #
straight-curve $-1 0 -31.108969508033905 10.531972150134969 -1 0 0 I I #
coedge $-1 $554 $265 $268 $410 forward $406 $-1 #
coedge $-1 $265 $554 $396 $546 forward $406 $-1 #
loop $-1 $-1 $265 $393 #
vertex $-1 $398 $555 #
straight-curve $-1 0 -31.108969508033905 -10.531972150134969 1 0 0 I I #
coedge $-1 $268 $267 $556 $557 forward $269 $-1 #
edge $-1 $271 -4.1329641802393553 $558 4.1329641802393553 $268 $559 forward 7 unknown #
point $-1 -45.920442562958407 -31.108969508033908 10.531972150134969 #
point $-1 -45.920442562958407 -31.108969508033908 -10.531972150134969 #
loop $-1 $-1 $281 $273 #
plane-surface $-1 49.187292092654197 0 0 -1 0 0 0 0 1 forward_v I I I I #
coedge $-1 $416 $276 $278 $420 reversed $166 $-1 #
coedge $-1 $276 $415 $560 $561 reversed $166 $-1 #
coedge $-1 $284 $279 $276 $418 forward $274 $-1 #
edge $-1 $421 28.852490179100418 $562 36.672844586602793 $417 $563 forward 7 unknown #
coedge $-1 $278 $277 $424 $564 reversed $105 $-1 #
edge $-1 $565 -98.374584185308393 $421 -88.827694189195782 $415 $566 forward 7 unknown #
vertex $-1 $280 $567 #
straight-curve $-1 41.366937685151825 -4.156025187160088 10.531972150134976 0 -1 0 I I #
coedge $-1 $560 $281 $284 $428 reversed $413 $-1 #
coedge $-1 $281 $560 $419 $564 forward $413 $-1 #
vertex $-1 $282 $568 #
straight-curve $-1 49.187292092654197 -3.6917477325562835 71.032593160683589 0 0 1 I I #
straight-curve $-1 -31.396449139626718 -3.6917477325562835 61.481445089086264 0.81915203911291934 0 -0.57357644374324357 I I #
edge $-1 $562 -12.932353016084068 $285 -3.6917477325562835 $423 $569 forward 7 unknown #
point $-1 49.187292092654197 -3.6917477325562835 10.531972150134969 #
point $-1 41.366937685151818 -3.6917477325562835 10.531972150134969 #
edge $-1 $570 1 $570 0 $288 $-1 forward 7 unknown #
vertex $-1 $289 $571 #
ellipse-curve $-1 43.896239271936864 -8.3120503743201759 5.8219418216943515 0.57357644374324357 0 0.81915203911291934 0.81915203911291934 0 -0.57357644374324357 1 I I #
point $-1 46.096266928015922 -8.3120503743201759 7.220460100002617 #
plane-surface $-1 0 0 10.531972150134969 0 0 1 1 0 0 forward_v I I I I #
coedge $-1 $446 $445 $438 $572 forward $293 $-1 #
coedge $-1 $438 $295 $297 $442 reversed $181 $-1 #
coedge $-1 $295 $437 $436 $572 reversed $181 $-1 #
coedge $-1 $303 $298 $295 $440 forward $304 $-1 #
edge $-1 $443 -17.374698679815523 $573 -12.528474928907492 $439 $574 forward 7 unknown #
coedge $-1 $297 $296 $446 $575 reversed $114 $-1 #
edge $-1 $576 -1.0694430631949516e-014 $443 7.3868716185466274 $437 $577 forward 7 unknown #
vertex $-1 $299 $578 #
straight-curve $-1 -44.341068341746166 -7.9523656970965408 10.531972150134969 0 1 0 I I #
coedge $-1 $436 $300 $303 $450 reversed $293 $-1 #
coedge $-1 $300 $436 $441 $575 forward $293 $-1 #
vertex $-1 $301 $579 #
straight-curve $-1 -49.187292092654197 -20.0126148278047 34.748281275240132 0 0 1 I I #
straight-curve $-1 -49.187292092654189 -20.0126148278047 4.9570293105154803 -0.65605901945558964 0 -0.75470958851134928 I I #
edge $-1 $573 11.796847960581463 $305 20.0126148278047 $445 $580 forward 7 unknown #
point $-1 -49.187292092654197 -20.0126148278047 10.531972150134969 #
point $-1 -44.341068341746166 -20.0126148278047 10.531972150134969 #
edge $-1 $581 1 $581 0 $308 $-1 forward 7 unknown #
vertex $-1 $309 $582 #
ellipse-curve $-1 -45.699705033550764 -15.904731394193083 6.8191665940552113 -0.75470958851134928 0 0.65605901945558964 0.65605901945558964 0 0.75470958851134928 1 I I #
point $-1 -46.108121197744595 -15.904731394193083 8.4992103188365729 #
loop $-1 $-1 $320 $312 #
plane-surface $-1 -49.187292092654197 0 0 1 0 0 0 0 -1 forward_v I I I I #
coedge $-1 $460 $315 $317 $464 reversed $196 $-1 #
coedge $-1 $315 $459 $583 $584 reversed $196 $-1 #
coedge $-1 $323 $318 $315 $462 forward $313 $-1 #
edge $-1 $465 -17.374698679815523 $585 -12.528474928907492 $461 $586 forward 7 unknown #
coedge $-1 $317 $316 $468 $587 reversed $123 $-1 #
edge $-1 $588 -1.0694430631949516e-014 $465 7.3868716185466274 $459 $589 forward 7 unknown #
vertex $-1 $319 $590 #
straight-curve $-1 -44.341068341746166 -1.2083643651479026 10.531972150134969 0 1 0 I I #
coedge $-1 $583 $320 $323 $472 reversed $457 $-1 #
coedge $-1 $320 $583 $463 $587 forward $457 $-1 #
vertex $-1 $321 $591 #
straight-curve $-1 -49.187292092654197 -6.5246121639074248 34.748281275240132 0 0 1 I I #
straight-curve $-1 -49.187292092654189 -6.5246121639074248 4.9570293105154803 -0.65605901945558964 0 -0.75470958851134928 I I #
edge $-1 $585 -1.6911547033158145 $324 6.5246121639074248 $467 $592 forward 7 unknown #
point $-1 -49.187292092654197 -6.5246121639074248 10.531972150134969 #
point $-1 -44.341068341746166 -6.5246121639074248 10.531972150134969 #
edge $-1 $593 1 $593 0 $327 $-1 forward 7 unknown #
vertex $-1 $328 $594 #
ellipse-curve $-1 -45.699705033550764 -2.4167287302958087 6.8191665940552113 -0.75470958851134928 0 0.65605901945558964 0.65605901945558964 0 0.75470958851134928 1 I I #
point $-1 -46.108121197744595 -2.4167287302958087 8.4992103188365729 #
loop $-1 $-1 $339 $331 #
plane-surface $-1 -49.187292092654197 0 0 1 0 0 0 0 -1 forward_v I I I I #
coedge $-1 $482 $334 $336 $486 reversed $211 $-1 #
coedge $-1 $334 $481 $595 $596 reversed $211 $-1 #
coedge $-1 $342 $337 $334 $484 forward $332 $-1 #
edge $-1 $487 -17.374698679815523 $597 -12.528474928907492 $483 $598 forward 7 unknown #
coedge $-1 $336 $335 $490 $599 reversed $132 $-1 #
edge $-1 $600 -1.0694430631949516e-014 $487 7.3868716185466274 $481 $601 forward 7 unknown #
vertex $-1 $338 $602 #
straight-curve $-1 -44.341068341746166 5.5356369668007357 10.531972150134969 0 1 0 I I #
coedge $-1 $595 $339 $342 $494 reversed $479 $-1 #
coedge $-1 $339 $595 $485 $599 forward $479 $-1 #
vertex $-1 $340 $603 #
straight-curve $-1 -49.187292092654197 6.9633904999898517 34.748281275240132 0 0 1 I I #
straight-curve $-1 -49.187292092654189 6.9633904999898517 4.9570293105154803 -0.65605901945558964 0 -0.75470958851134928 I I #
edge $-1 $597 -15.17915736721309 $343 -6.9633904999898517 $489 $604 forward 7 unknown #
point $-1 -49.187292092654197 6.9633904999898517 10.531972150134969 #
point $-1 -44.341068341746166 6.9633904999898517 10.531972150134969 #
edge $-1 $605 1 $605 0 $346 $-1 forward 7 unknown #
vertex $-1 $347 $606 #
ellipse-curve $-1 -45.699705033550764 11.071273933601464 6.8191665940552113 -0.75470958851134928 0 0.65605901945558964 0.65605901945558964 0 0.75470958851134928 1 I I #
point $-1 -46.108121197744595 11.071273933601464 8.4992103188365729 #
loop $-1 $-1 $358 $350 #
plane-surface $-1 -49.187292092654197 0 0 1 0 0 0 0 -1 forward_v I I I I #
coedge $-1 $504 $353 $355 $508 reversed $226 $-1 #
coedge $-1 $353 $503 $607 $608 reversed $226 $-1 #
coedge $-1 $361 $356 $353 $506 forward $351 $-1 #
edge $-1 $509 -17.374698679815523 $609 -12.528474928907492 $505 $610 forward 7 unknown #
coedge $-1 $355 $354 $512 $611 reversed $141 $-1 #
edge $-1 $612 -1.0694430631949516e-014 $509 7.3868716185466274 $503 $613 forward 7 unknown #
vertex $-1 $357 $614 #
straight-curve $-1 -44.341068341746166 12.279638298749374 10.531972150134969 0 1 0 I I #
coedge $-1 $607 $358 $361 $516 reversed $501 $-1 #
coedge $-1 $358 $607 $507 $611 forward $501 $-1 #
vertex $-1 $359 $615 #
straight-curve $-1 -49.187292092654197 20.451393163887129 34.748281275240132 0 0 1 I I #
straight-curve $-1 -49.187292092654189 20.451393163887129 4.9570293105154803 -0.65605901945558964 0 -0.75470958851134928 I I #
edge $-1 $609 -28.667160031110367 $362 -20.451393163887129 $511 $616 forward 7 unknown #
point $-1 -49.187292092654197 20.451393163887129 10.531972150134969 #
point $-1 -44.341068341746166 20.451393163887129 10.531972150134969 #
edge $-1 $617 1 $617 0 $365 $-1 forward 7 unknown #
vertex $-1 $366 $618 #
ellipse-curve $-1 -45.699705033550764 24.559276597498741 6.8191665940552113 -0.75470958851134928 0 0.65605901945558964 0.65605901945558964 0 0.75470958851134928 1 I I #
point $-1 -46.108121197744595 24.559276597498741 8.4992103188365729 #
plane-surface $-1 49.187292092654197 0 0 -1 0 0 0 0 1 forward_v I I I I #
coedge $-1 $527 $377 $380 $535 forward $370 $-1 #
coedge $-1 $377 $527 $372 $526 reversed $370 $-1 #
edge $-1 $532 -10.531972150134969 $539 10.531972150134969 $525 $619 forward 7 unknown #
coedge $-1 $525 $524 $373 $528 reversed $370 $-1 #
edge $-1 $539 -49.187292092654197 $529 49.187292092654197 $527 $620 forward 7 unknown #
vertex $-1 $375 $621 #
straight-curve $-1 49.187292092654197 0 -10.531972150134969 0 -1 0 I I #
edge $-1 $532 -31.108969508033905 $388 31.108969508033905 $386 $622 forward 7 unknown #
vertex $-1 $378 $623 #
straight-curve $-1 0 31.108969508033905 10.531972150134969 -1 0 0 I I #
straight-curve $-1 0 -31.108969508033905 10.531972150134969 1 0 0 I I #
edge $-1 $383 -10.531972150134969 $529 10.531972150134969 $380 $624 forward 7 unknown #
point $-1 49.187292092654197 -31.108969508033905 10.531972150134969 #
point $-1 49.187292092654197 31.108969508033905 10.531972150134969 #
point $-1 -49.187292092654197 -31.108969508033905 10.531972150134969 #
vertex $-1 $528 $625 #
straight-curve $-1 -49.187292092654197 0 -10.531972150134969 0 1 0 I I #
plane-surface $-1 0 0 -10.531972150134969 0 0 1 1 0 0 forward_v I I I I #
coedge $-1 $556 $395 $554 $626 reversed $258 $-1 #
coedge $-1 $395 $556 $399 $548 reversed $258 $-1 #
coedge $-1 $397 $396 $395 $545 reversed $158 $-1 #
edge $-1 $549 -10.531972150134969 $627 10.531972150134969 $544 $628 forward 7 unknown #
edge $-1 $627 -39.374897868512619 $407 -31.108969508033905 $396 $629 forward 7 unknown #
straight-curve $-1 -49.187292092654197 -31.108969508033905 0 0 0 -1 I I #
edge $-1 $549 -1.633424764847895 $551 1.633424764847895 $543 $630 forward 7 unknown #
vertex $-1 $400 $631 #
straight-curve $-1 -49.187292092654197 0 10.531972150134969 0 -1 0 I I #
vertex $-1 $401 $632 #
straight-curve $-1 -45.920442562958407 -35.241933688273264 10.531972150134969 0 1 0 I I #
point $-1 -49.187292092654197 -31.108969508033905 10.531972150134969 #
coedge $-1 $405 $404 $542 $626 forward $406 $-1 #
point $-1 -49.187292092654197 -31.108969508033905 -10.531972150134969 #
coedge $-1 $543 $542 $409 $557 reversed $258 $-1 #
edge $-1 $551 -10.531972150134969 $558 10.531972150134969 $409 $633 forward 7 unknown #
vertex $-1 $557 $634 #
straight-curve $-1 -45.920442562958407 -35.241933688273264 -10.531972150134969 0 -1 0 I I #
coedge $-1 $424 $423 $416 $561 forward $413 $-1 #
edge $-1 $562 60.50062101054862 $565 65.976492223326844 $560 $635 forward 7 unknown #
vertex $-1 $428 $636 #
straight-curve $-1 12.5144475060514 -12.932353016084068 10.531972150134976 1 0 0 I I #
edge $-1 $565 -8.7763278289239803 $425 0.46427745460380443 $424 $637 forward 7 unknown #
vertex $-1 $564 $638 #
straight-curve $-1 -31.396449139626718 -12.932353016084068 61.481445089086264 -0.81915203911291934 0 0.57357644374324357 I I #
point $-1 41.366937685151818 -12.932353016084068 10.531972150134969 #
point $-1 49.187292092654197 -3.6917477325562835 5.0561009373567458 #
straight-curve $-1 49.187292092654197 0 10.531972150134969 0 1 0 I I #
vertex $-1 $431 $639 #
point $-1 44.715391311049778 -8.3120503743201759 5.2483653779511075 #
edge $-1 $573 24.216309125105163 $576 29.791251964724658 $436 $640 forward 7 unknown #
vertex $-1 $450 $641 #
straight-curve $-1 -61.715767021561689 -11.796847960581463 10.531972150134969 -1 0 0 I I #
edge $-1 $576 3.8444822634849221 $447 12.06024913070816 $446 $642 forward 7 unknown #
vertex $-1 $575 $643 #
straight-curve $-1 -49.187292092654189 -11.796847960581463 4.9570293105154803 0.65605901945558964 0 0.75470958851134928 I I #
point $-1 -44.341068341746166 -11.796847960581463 10.531972150134969 #
point $-1 -49.187292092654197 -20.0126148278047 4.9570293105154724 #
straight-curve $-1 -49.187292092654197 0 10.531972150134969 0 -1 0 I I #
vertex $-1 $453 $644 #
point $-1 -45.043646014095174 -15.904731394193083 7.5738761825665604 #
coedge $-1 $468 $467 $460 $584 forward $457 $-1 #
edge $-1 $585 24.216309125105163 $588 29.791251964724658 $583 $645 forward 7 unknown #
vertex $-1 $472 $646 #
straight-curve $-1 -61.715767021561689 1.6911547033158145 10.531972150134969 -1 0 0 I I #
edge $-1 $588 -2.8995190684637171 $469 5.3162477987595222 $468 $647 forward 7 unknown #
vertex $-1 $587 $648 #
straight-curve $-1 -49.187292092654189 1.6911547033158145 4.9570293105154803 0.65605901945558964 0 0.75470958851134928 I I #
point $-1 -44.341068341746166 1.6911547033158145 10.531972150134969 #
point $-1 -49.187292092654197 -6.5246121639074248 4.9570293105154724 #
straight-curve $-1 -49.187292092654197 0 10.531972150134969 0 -1 0 I I #
vertex $-1 $475 $649 #
point $-1 -45.043646014095174 -2.4167287302958087 7.5738761825665604 #
coedge $-1 $490 $489 $482 $596 forward $479 $-1 #
edge $-1 $597 24.216309125105163 $600 29.791251964724658 $595 $650 forward 7 unknown #
vertex $-1 $494 $651 #
straight-curve $-1 -61.715767021561689 15.17915736721309 10.531972150134969 -1 0 0 I I #
edge $-1 $600 -9.6435204004123545 $491 -1.427753533189116 $490 $652 forward 7 unknown #
vertex $-1 $599 $653 #
straight-curve $-1 -49.187292092654189 15.17915736721309 4.9570293105154803 0.65605901945558964 0 0.75470958851134928 I I #
point $-1 -44.341068341746166 15.17915736721309 10.531972150134969 #
point $-1 -49.187292092654197 6.9633904999898517 4.9570293105154724 #
straight-curve $-1 -49.187292092654197 0 10.531972150134969 0 -1 0 I I #
vertex $-1 $497 $654 #
point $-1 -45.043646014095174 11.071273933601464 7.5738761825665604 #
coedge $-1 $512 $511 $504 $608 forward $501 $-1 #
edge $-1 $609 24.216309125105163 $612 29.791251964724658 $607 $655 forward 7 unknown #
vertex $-1 $516 $656 #
straight-curve $-1 -61.715767021561689 28.667160031110367 10.531972150134969 -1 0 0 I I #
edge $-1 $612 -16.387521732360995 $513 -8.1717548651377552 $512 $657 forward 7 unknown #
vertex $-1 $611 $658 #
straight-curve $-1 -49.187292092654189 28.667160031110367 4.9570293105154803 0.65605901945558964 0 0.75470958851134928 I I #
point $-1 -44.341068341746166 28.667160031110367 10.531972150134969 #
point $-1 -49.187292092654197 20.451393163887129 4.9570293105154724 #
straight-curve $-1 -49.187292092654197 0 10.531972150134969 0 -1 0 I I #
vertex $-1 $519 $659 #
point $-1 -45.043646014095174 24.559276597498741 7.5738761825665604 #
straight-curve $-1 -49.187292092654197 31.108969508033905 0 0 0 -1 I I #
straight-curve $-1 0 31.108969508033905 -10.531972150134969 1 0 0 I I #
point $-1 49.187292092654197 31.108969508033905 -10.531972150134969 #
straight-curve $-1 -49.187292092654197 0 10.531972150134969 0 -1 0 I I #
point $-1 -49.187292092654197 31.108969508033905 10.531972150134969 #
straight-curve $-1 49.187292092654197 31.108969508033905 0 0 0 -1 I I #
point $-1 -49.187292092654197 31.108969508033905 -10.531972150134969 #
edge $-1 $558 -1.633424764847895 $627 1.633424764847895 $542 $660 forward 7 unknown #
vertex $-1 $546 $661 #
straight-curve $-1 -49.187292092654197 -39.374897868512619 0 0 0 -1 I I #
straight-curve $-1 -49.187292092654197 0 -10.531972150134969 0 1 0 I I #
straight-curve $-1 -47.553867327806302 -39.374897868512619 10.531972150134969 1 0 0 I I #
point $-1 -49.187292092654197 -39.374897868512619 10.531972150134969 #
point $-1 -45.920442562958407 -39.374897868512619 10.531972150134969 #
straight-curve $-1 -45.920442562958407 -39.374897868512619 0 0 0 -1 I I #
point $-1 -45.920442562958407 -39.374897868512619 -10.531972150134969 #
straight-curve $-1 49.187292092654197 -12.932353016084068 71.032593160683589 0 0 -1 I I #
point $-1 49.187292092654197 -12.932353016084068 10.531972150134969 #
straight-curve $-1 49.187292092654204 -4.156025187160088 5.0561009373567494 0 1 0 I I #
point $-1 49.187292092654197 -12.932353016084068 5.0561009373567458 #
point $-1 43.322662828193614 -8.3120503743201759 5.0027897825814316 #
straight-curve $-1 -49.187292092654197 -11.796847960581463 34.748281275240132 0 0 -1 I I #
point $-1 -49.187292092654197 -11.796847960581463 10.531972150134969 #
straight-curve $-1 -49.187292092654197 -7.9523656970965408 4.9570293105154688 0 -1 0 I I #
point $-1 -49.187292092654197 -11.796847960581463 4.9570293105154724 #
point $-1 -44.944995445039417 -15.904731394193083 6.1631075745996213 #
straight-curve $-1 -49.187292092654197 1.6911547033158145 34.748281275240132 0 0 -1 I I #
point $-1 -49.187292092654197 1.6911547033158145 10.531972150134969 #
straight-curve $-1 -49.187292092654197 -1.2083643651479026 4.9570293105154688 0 -1 0 I I #
point $-1 -49.187292092654197 1.6911547033158145 4.9570293105154724 #
point $-1 -44.944995445039417 -2.4167287302958087 6.1631075745996213 #
straight-curve $-1 -49.187292092654197 15.17915736721309 34.748281275240132 0 0 -1 I I #
point $-1 -49.187292092654197 15.17915736721309 10.531972150134969 #
straight-curve $-1 -49.187292092654197 5.5356369668007357 4.9570293105154688 0 -1 0 I I #
point $-1 -49.187292092654197 15.17915736721309 4.9570293105154724 #
point $-1 -44.944995445039417 11.071273933601464 6.1631075745996213 #
straight-curve $-1 -49.187292092654197 28.667160031110367 34.748281275240132 0 0 -1 I I #
point $-1 -49.187292092654197 28.667160031110367 10.531972150134969 #
straight-curve $-1 -49.187292092654197 12.279638298749374 4.9570293105154688 0 -1 0 I I #
point $-1 -49.187292092654197 28.667160031110367 4.9570293105154724 #
point $-1 -44.944995445039417 24.559276597498741 6.1631075745996213 #
straight-curve $-1 -47.553867327806302 -39.374897868512619 -10.531972150134969 -1 0 0 I I #
point $-1 -49.187292092654197 -39.374897868512619 -10.531972150134969 #
End-of-ACIS-data 