500 0 4 0           
7 Unknown 11 ACIS 5.0 NT 24 Fri Mar 26 18:31:49 1999 
-1 9.9999999999999995e-007 1e-010 
body $-1 $4 $-1 $5 #
body $-1 $6 $-1 $7 #
body $-1 $8 $-1 $9 #
body $-1 $10 $-1 $11 #
lump $-1 $-1 $12 $0 #
transform $-1 1 0 0 0 1 0 0 0 1 66.508377330851161 40.947093140100066 10.211967846662306 1 rotate no_reflect no_shear #
lump $-1 $-1 $13 $1 #
transform $-1 1 0 0 0 1 0 0 0 1 66.508377330851161 40.947093140100066 10.211967846662306 1 rotate no_reflect no_shear #
lump $-1 $-1 $14 $2 #
transform $-1 1 0 0 0 1 0 0 0 1 66.508377330851161 40.947093140100066 10.211967846662306 1 rotate no_reflect no_shear #
lump $-1 $-1 $15 $3 #
transform $-1 1 0 0 0 1 0 0 0 1 66.508377330851161 40.947093140100066 10.211967846662306 1 rotate no_reflect no_shear #
shell $-1 $-1 $-1 $16 $-1 $4 #
shell $-1 $-1 $-1 $17 $-1 $6 #
shell $-1 $-1 $-1 $18 $-1 $8 #
shell $-1 $-1 $-1 $19 $-1 $10 #
face $-1 $20 $21 $12 $-1 $22 forward single #
face $-1 $23 $24 $13 $-1 $25 forward single #
face $-1 $26 $27 $14 $-1 $28 reversed single #
face $-1 $29 $30 $15 $-1 $31 forward single #
face $-1 $32 $33 $12 $-1 $34 reversed single #
loop $-1 $-1 $35 $16 #
plane-surface $-1 0 0 10.211967846662306 0 0 1 1 0 0 forward_v I I I I #
face $-1 $36 $37 $13 $-1 $38 reversed single #
loop $-1 $-1 $39 $17 #
plane-surface $-1 0 -40.947093140100066 0 0 1 0 0 0 1 forward_v I I I I #
face $-1 $40 $41 $14 $-1 $42 reversed single #
loop $-1 $-1 $43 $18 #
plane-surface $-1 -1.5222727547300821 77.096209677514807 152.02396967220935 1 0 0 0 -0.70710678939079041 -0.70710677298230451 forward_v I I I I #
face $-1 $44 $45 $15 $-1 $46 forward single #
loop $-1 $47 $48 $19 #
cone-surface $-1 6.4170417363623073 34.577149770036399 3.8420243888128658 0 -0.70710678939079041 -0.70710677298230451 2 0 0 1 I I 0 1 2 forward I I I I #
face $-1 $49 $50 $12 $-1 $51 reversed single #
loop $-1 $-1 $52 $20 #
plane-surface $-1 0 0 -10.211967846662306 0 0 1 1 0 0 forward_v I I I I #
coedge $-1 $53 $54 $55 $56 forward $21 $-1 #
face $-1 $57 $58 $13 $-1 $59 reversed single #
loop $-1 $-1 $60 $23 #
plane-surface $-1 0 0 -10.211967846662306 0 0 1 1 0 0 forward_v I I I I #
coedge $-1 $61 $62 $63 $64 forward $24 $-1 #
face $-1 $65 $66 $14 $-1 $67 reversed single #
loop $-1 $-1 $68 $26 #
plane-surface $-1 6.4170417363623073 -16.960840646503982 57.96692153079411 0 0.70710678939079041 0.70710677298230451 1 0 0 forward_v I I I I #
coedge $-1 $69 $70 $71 $72 reversed $27 $-1 #
face $-1 $-1 $73 $15 $-1 $74 forward single #
loop $-1 $75 $76 $29 #
cone-surface $-1 6.4170417363623073 32.576590215897383 1.8414648810970373 0 -0.70710678939079041 -0.70710677298230451 1 0 0 1 I I -0.70710678118654746 0.70710678118654746 1 forward I I I I #
loop $-1 $-1 $77 $19 #
coedge $-1 $48 $48 $78 $79 reversed $30 $-1 #
face $-1 $80 $81 $12 $-1 $82 reversed single #
loop $-1 $-1 $83 $32 #
plane-surface $-1 0 -40.947093140100066 0 0 1 0 0 0 1 forward_v I I I I #
coedge $-1 $84 $85 $86 $87 forward $33 $-1 #
coedge $-1 $88 $35 $89 $90 forward $21 $-1 #
coedge $-1 $35 $88 $91 $92 forward $21 $-1 #
coedge $-1 $93 $94 $35 $56 reversed $95 $-1 #
edge $-1 $96 -40.947093140100066 $97 40.947093140100066 $55 $98 forward 7 unknown #
face $-1 $99 $100 $13 $-1 $101 forward single #
loop $-1 $-1 $102 $36 #
plane-surface $-1 66.508377330851161 0 0 -1 0 0 0 0 1 forward_v I I I I #
coedge $-1 $103 $104 $105 $106 forward $37 $-1 #
coedge $-1 $105 $39 $102 $107 reversed $24 $-1 #
coedge $-1 $39 $105 $108 $109 reversed $24 $-1 #
coedge $-1 $110 $111 $39 $64 reversed $100 $-1 #
edge $-1 $112 -66.508377330851161 $113 66.508377330851161 $63 $114 forward 7 unknown #
face $-1 $115 $116 $14 $-1 $117 forward single #
loop $-1 $-1 $118 $40 #
plane-surface $-1 14.356356227454697 77.096209677514807 152.02396967220935 -1 0 0 0 0.70710678939079041 0.70710677298230451 forward_v I I I I #
coedge $-1 $119 $120 $121 $122 reversed $41 $-1 #
coedge $-1 $70 $43 $123 $124 reversed $27 $-1 #
coedge $-1 $43 $69 $119 $125 reversed $27 $-1 #
coedge $-1 $121 $126 $43 $72 forward $116 $-1 #
edge $-1 $127 -2.3989883013426621 $128 7.7539929092882005 $71 $129 forward 7 unknown #
loop $-1 $-1 $78 $44 #
plane-surface $-1 6.4170417363623073 -16.960840646503982 57.96692153079411 0 0.70710678939079041 0.70710677298230451 1 0 0 forward_v I I I I #
loop $-1 $-1 $130 $29 #
coedge $-1 $76 $76 $77 $131 reversed $45 $-1 #
coedge $-1 $77 $77 $76 $131 forward $47 $-1 #
coedge $-1 $78 $78 $48 $79 forward $73 $-1 #
edge $-1 $132 2.1981294093665429e-015 $132 6.2831853071796022 $78 $133 forward 7 unknown #
face $-1 $134 $135 $12 $-1 $136 reversed single #
loop $-1 $-1 $137 $49 #
plane-surface $-1 -66.508377330851161 0 0 1 0 0 0 0 -1 forward_v I I I I #
coedge $-1 $138 $91 $139 $140 forward $50 $-1 #
coedge $-1 $141 $52 $138 $142 forward $33 $-1 #
coedge $-1 $52 $141 $143 $144 forward $33 $-1 #
coedge $-1 $94 $93 $52 $87 reversed $95 $-1 #
edge $-1 $145 -40.947093140100066 $146 40.947093140100066 $86 $147 forward 7 unknown #
coedge $-1 $54 $53 $148 $149 forward $21 $-1 #
coedge $-1 $150 $151 $53 $90 reversed $135 $-1 #
edge $-1 $97 -66.508377330851161 $152 66.508377330851161 $89 $153 forward 7 unknown #
coedge $-1 $83 $154 $54 $92 reversed $50 $-1 #
edge $-1 $155 -66.508377330851161 $96 66.508377330851161 $91 $156 forward 7 unknown #
coedge $-1 $86 $55 $154 $157 forward $95 $-1 #
coedge $-1 $55 $86 $150 $158 reversed $95 $-1 #
loop $-1 $-1 $93 $134 #
vertex $-1 $56 $159 #
vertex $-1 $56 $160 #
straight-curve $-1 66.508377330851161 0 10.211967846662306 0 1 0 I I #
face $-1 $161 $162 $13 $-1 $163 reversed single #
loop $-1 $-1 $111 $57 #
plane-surface $-1 0 -45.060103668400714 -7.2119678466623061 0 0 1 1 0 0 forward_v I I I I #
coedge $-1 $164 $165 $61 $107 forward $58 $-1 #
coedge $-1 $166 $60 $165 $167 forward $37 $-1 #
coedge $-1 $60 $166 $168 $169 forward $37 $-1 #
coedge $-1 $62 $61 $60 $106 reversed $24 $-1 #
edge $-1 $170 -66.508377330851161 $171 66.508377330851161 $60 $172 forward 7 unknown #
edge $-1 $171 -10.211967846662306 $113 -7.2119678466623061 $102 $173 forward 7 unknown #
coedge $-1 $168 $174 $62 $109 forward $175 $-1 #
edge $-1 $112 7.2119678466623061 $170 10.211967846662306 $108 $176 forward 7 unknown #
coedge $-1 $177 $63 $174 $178 forward $100 $-1 #
coedge $-1 $63 $177 $164 $179 forward $100 $-1 #
vertex $-1 $109 $180 #
vertex $-1 $179 $181 #
straight-curve $-1 0 -40.947093140100066 -7.2119678466623061 1 0 0 I I #
face $-1 $-1 $182 $14 $-1 $183 reversed single #
loop $-1 $-1 $71 $65 #
plane-surface $-1 0 0 10.211967846662306 0 0 1 1 0 0 forward_v I I I I #
coedge $-1 $184 $185 $186 $187 reversed $66 $-1 #
coedge $-1 $188 $68 $70 $125 forward $41 $-1 #
coedge $-1 $68 $188 $184 $189 forward $41 $-1 #
coedge $-1 $186 $71 $68 $122 forward $116 $-1 #
edge $-1 $128 -4.7307936229112357 $190 11.147835359273543 $121 $191 forward 7 unknown #
coedge $-1 $192 $193 $69 $124 forward $182 $-1 #
edge $-1 $194 -75.952998435674218 $127 -65.800016989442369 $123 $195 forward 7 unknown #
edge $-1 $128 67.535702387011753 $194 81.894186280200174 $70 $196 forward 7 unknown #
coedge $-1 $71 $186 $192 $197 forward $116 $-1 #
vertex $-1 $124 $198 #
vertex $-1 $72 $199 #
straight-curve $-1 -1.5222727547300821 38.548104838757403 10.211967846662304 0 -1 0 I I #
coedge $-1 $130 $130 $-1 $200 reversed $75 $-1 #
edge $-1 $201 0 $201 6.2831853071796004 $76 $202 forward 7 unknown #
vertex $-1 $79 $203 #
ellipse-curve $-1 6.4170417363623073 35.870602534784624 5.1354771235463881 0 0.70710678939079041 0.70710677298230451 2 0 0 1 I I #
face $-1 $-1 $95 $12 $-1 $204 reversed single #
loop $-1 $-1 $150 $80 #
plane-surface $-1 0 40.947093140100066 0 0 -1 0 0 0 -1 forward_v I I I I #
coedge $-1 $205 $148 $151 $206 forward $81 $-1 #
coedge $-1 $154 $83 $84 $142 reversed $50 $-1 #
coedge $-1 $148 $205 $83 $140 reversed $81 $-1 #
edge $-1 $155 -10.211967846662306 $207 10.211967846662306 $139 $208 forward 7 unknown #
coedge $-1 $85 $84 $205 $209 forward $33 $-1 #
edge $-1 $146 -66.508377330851161 $207 66.508377330851161 $138 $210 forward 7 unknown #
coedge $-1 $151 $150 $85 $144 reversed $135 $-1 #
edge $-1 $211 -66.508377330851161 $145 66.508377330851161 $143 $212 forward 7 unknown #
vertex $-1 $87 $213 #
vertex $-1 $157 $214 #
straight-curve $-1 66.508377330851161 0 -10.211967846662306 0 -1 0 I I #
coedge $-1 $137 $139 $88 $149 reversed $81 $-1 #
edge $-1 $152 -40.947093140100066 $155 40.947093140100066 $148 $215 forward 7 unknown #
coedge $-1 $143 $89 $94 $158 forward $135 $-1 #
coedge $-1 $89 $143 $137 $206 reversed $135 $-1 #
vertex $-1 $90 $216 #
straight-curve $-1 0 40.947093140100066 10.211967846662306 -1 0 0 I I #
coedge $-1 $91 $138 $93 $157 reversed $50 $-1 #
vertex $-1 $149 $217 #
straight-curve $-1 0 -40.947093140100066 10.211967846662306 1 0 0 I I #
edge $-1 $96 -10.211967846662306 $146 10.211967846662306 $93 $218 forward 7 unknown #
edge $-1 $97 -10.211967846662306 $145 10.211967846662306 $94 $219 forward 7 unknown #
point $-1 66.508377330851161 -40.947093140100066 10.211967846662306 #
point $-1 66.508377330851161 40.947093140100066 10.211967846662306 #
face $-1 $-1 $175 $13 $-1 $220 reversed single #
loop $-1 $-1 $221 $99 #
plane-surface $-1 0 -49.173114196701363 -8.7119678466623061 0 1 0 0 0 1 forward_v I I I I #
coedge $-1 $222 $102 $111 $179 reversed $58 $-1 #
coedge $-1 $102 $222 $103 $167 reversed $58 $-1 #
coedge $-1 $104 $103 $223 $224 forward $37 $-1 #
edge $-1 $171 40.947093140100066 $225 49.173114196701363 $165 $226 forward 7 unknown #
coedge $-1 $227 $108 $104 $169 reversed $175 $-1 #
edge $-1 $228 -49.173114196701363 $170 -40.947093140100066 $168 $229 forward 7 unknown #
vertex $-1 $109 $230 #
vertex $-1 $167 $231 #
straight-curve $-1 0 -40.947093140100066 -10.211967846662306 1 0 0 I I #
straight-curve $-1 66.508377330851161 -40.947093140100066 0 0 0 1 I I #
coedge $-1 $108 $227 $110 $178 reversed $175 $-1 #
loop $-1 $-1 $108 $161 #
straight-curve $-1 -66.508377330851161 -40.947093140100066 0 0 0 -1 I I #
coedge $-1 $111 $110 $232 $233 forward $100 $-1 #
edge $-1 $112 -4.1130105283006486 $234 4.1130105283006486 $174 $235 forward 7 unknown #
edge $-1 $236 -4.1130105283006486 $113 4.1130105283006486 $164 $237 forward 7 unknown #
point $-1 -66.508377330851161 -40.947093140100066 -7.2119678466623061 #
point $-1 66.508377330851161 -40.947093140100066 -7.2119678466623061 #
loop $-1 $-1 $123 $115 #
plane-surface $-1 0 40.947093140100066 0 0 -1 0 0 0 -1 forward_v I I I I #
coedge $-1 $185 $118 $120 $189 reversed $66 $-1 #
coedge $-1 $118 $184 $238 $239 reversed $66 $-1 #
coedge $-1 $126 $121 $118 $187 forward $116 $-1 #
edge $-1 $190 -7.7539929092882005 $240 2.3989883013426621 $186 $241 forward 7 unknown #
coedge $-1 $120 $119 $193 $242 reversed $41 $-1 #
edge $-1 $243 -81.894186280200174 $190 -67.535702387011753 $184 $244 forward 7 unknown #
vertex $-1 $122 $245 #
straight-curve $-1 3.2085208681811537 30.794111929469203 10.211967846662301 1 0 0 I I #
coedge $-1 $238 $123 $126 $197 reversed $182 $-1 #
coedge $-1 $123 $238 $188 $242 forward $182 $-1 #
vertex $-1 $124 $246 #
straight-curve $-1 -1.5222727547300821 40.947093140100066 76.011984836104673 0 0 1 I I #
straight-curve $-1 -1.5222727547300821 -16.960840646503982 57.96692153079411 0 0.70710677298230451 -0.70710678939079041 I I #
edge $-1 $240 -14.356356227454697 $127 1.5222727547300821 $192 $247 forward 7 unknown #
point $-1 -1.5222727547300821 40.947093140100066 10.211967846662306 #
point $-1 -1.5222727547300821 30.794111929469203 10.211967846662304 #
edge $-1 $248 1 $248 0 $130 $-1 forward 7 unknown #
vertex $-1 $131 $249 #
ellipse-curve $-1 6.4170417363623073 33.283697005288175 2.5485716540793417 0 0.70710678939079041 0.70710677298230451 2 0 0 1 I I #
point $-1 8.4170417363623073 35.870602534784631 5.135477123546389 #
plane-surface $-1 66.508377330851161 0 0 -1 0 0 0 0 1 forward_v I I I I #
coedge $-1 $139 $137 $141 $209 reversed $81 $-1 #
edge $-1 $152 -10.211967846662306 $211 10.211967846662306 $151 $250 forward 7 unknown #
vertex $-1 $209 $251 #
straight-curve $-1 -66.508377330851161 -40.947093140100066 0 0 0 -1 I I #
edge $-1 $207 -40.947093140100066 $211 40.947093140100066 $205 $252 forward 7 unknown #
straight-curve $-1 0 -40.947093140100066 -10.211967846662306 -1 0 0 I I #
vertex $-1 $144 $253 #
straight-curve $-1 0 40.947093140100066 -10.211967846662306 1 0 0 I I #
point $-1 66.508377330851161 40.947093140100066 -10.211967846662306 #
point $-1 66.508377330851161 -40.947093140100066 -10.211967846662306 #
straight-curve $-1 -66.508377330851161 0 10.211967846662306 0 -1 0 I I #
point $-1 -66.508377330851161 40.947093140100066 10.211967846662306 #
point $-1 -66.508377330851161 -40.947093140100066 10.211967846662306 #
straight-curve $-1 66.508377330851161 -40.947093140100066 0 0 0 -1 I I #
straight-curve $-1 66.508377330851161 40.947093140100066 0 0 0 -1 I I #
plane-surface $-1 -66.508377330851161 0 0 1 0 0 0 0 -1 forward_v I I I I #
coedge $-1 $223 $232 $227 $254 forward $162 $-1 #
coedge $-1 $165 $164 $255 $256 forward $58 $-1 #
coedge $-1 $255 $221 $166 $224 reversed $162 $-1 #
edge $-1 $225 -66.508377330851161 $228 66.508377330851161 $223 $257 forward 7 unknown #
vertex $-1 $256 $258 #
straight-curve $-1 66.508377330851161 0 -10.211967846662306 0 -1 0 I I #
coedge $-1 $174 $168 $221 $254 reversed $175 $-1 #
vertex $-1 $169 $259 #
straight-curve $-1 -66.508377330851161 0 -10.211967846662306 0 1 0 I I #
point $-1 -66.508377330851161 -40.947093140100066 -10.211967846662306 #
point $-1 66.508377330851161 -40.947093140100066 -10.211967846662306 #
coedge $-1 $221 $255 $177 $233 reversed $162 $-1 #
edge $-1 $234 -66.508377330851161 $236 66.508377330851161 $232 $260 forward 7 unknown #
vertex $-1 $178 $261 #
straight-curve $-1 -66.508377330851161 -45.060103668400714 -7.2119678466623061 0 -1 0 I I #
vertex $-1 $179 $262 #
straight-curve $-1 66.508377330851161 -45.060103668400714 -7.2119678466623061 0 1 0 I I #
coedge $-1 $193 $192 $185 $239 forward $182 $-1 #
edge $-1 $240 65.800016989442369 $243 75.952998435674218 $238 $263 forward 7 unknown #
vertex $-1 $197 $264 #
straight-curve $-1 14.356356227454697 38.548104838757403 10.211967846662304 0 1 0 I I #
edge $-1 $243 -11.147835359273543 $194 4.7307936229112357 $193 $265 forward 7 unknown #
vertex $-1 $242 $266 #
straight-curve $-1 14.356356227454697 -16.960840646503982 57.96692153079411 0 -0.70710677298230451 0.70710678939079041 I I #
point $-1 14.356356227454697 30.794111929469203 10.211967846662304 #
point $-1 -1.5222727547300821 40.947093140100066 0.058986400430455888 #
straight-curve $-1 0 40.947093140100066 10.211967846662306 -1 0 0 I I #
vertex $-1 $200 $267 #
point $-1 8.4170417363623073 33.283697005288175 2.5485716540793417 #
straight-curve $-1 -66.508377330851161 40.947093140100066 0 0 0 -1 I I #
point $-1 -66.508377330851161 -40.947093140100066 -10.211967846662306 #
straight-curve $-1 -66.508377330851161 0 -10.211967846662306 0 1 0 I I #
point $-1 -66.508377330851161 40.947093140100066 -10.211967846662306 #
edge $-1 $234 -1.5 $228 1.5 $227 $268 forward 7 unknown #
coedge $-1 $232 $223 $222 $256 reversed $162 $-1 #
edge $-1 $236 -1.5 $225 1.5 $222 $269 forward 7 unknown #
straight-curve $-1 0 -49.173114196701363 -10.211967846662306 -1 0 0 I I #
point $-1 66.508377330851161 -49.173114196701363 -10.211967846662306 #
point $-1 -66.508377330851161 -49.173114196701363 -10.211967846662306 #
straight-curve $-1 0 -49.173114196701363 -7.2119678466623061 1 0 0 I I #
point $-1 -66.508377330851161 -49.173114196701363 -7.2119678466623061 #
point $-1 66.508377330851161 -49.173114196701363 -7.2119678466623061 #
straight-curve $-1 14.356356227454697 40.947093140100066 76.011984836104673 0 0 -1 I I #
point $-1 14.356356227454697 40.947093140100066 10.211967846662306 #
straight-curve $-1 3.2085208681811537 40.947093140100066 0.05898640043045944 -1 0 0 I I #
point $-1 14.356356227454697 40.947093140100066 0.058986400430455888 #
point $-1 6.4170417363623073 31.869483426506594 1.1343581081147329 #
straight-curve $-1 -66.508377330851161 -49.173114196701363 -8.7119678466623061 0 0 -1 I I #
straight-curve $-1 66.508377330851161 -49.173114196701363 -8.7119678466623061 0 0 -1 I I #
End-of-ACIS-data 