500 0 18 0           
7 Unknown 11 ACIS 5.0 NT 24 Fri Mar 26 14:51:06 1999 
-1 9.9999999999999995e-007 1e-010 
body $-1 $18 $-1 $19 #
body $-1 $20 $-1 $21 #
body $-1 $22 $-1 $23 #
body $-1 $24 $-1 $25 #
body $-1 $26 $-1 $27 #
body $-1 $28 $-1 $29 #
body $-1 $30 $-1 $31 #
body $-1 $32 $-1 $33 #
body $-1 $34 $-1 $35 #
body $-1 $36 $-1 $37 #
body $-1 $38 $-1 $39 #
body $-1 $40 $-1 $41 #
body $-1 $42 $-1 $43 #
body $-1 $44 $-1 $45 #
body $-1 $46 $-1 $47 #
body $-1 $48 $-1 $49 #
body $-1 $50 $-1 $51 #
body $-1 $52 $-1 $53 #
lump $-1 $-1 $54 $0 #
transform $-1 1 0 0 0 1 0 0 0 1 74.640949736014903 31.985105976388013 12.582415724223807 1 rotate no_reflect no_shear #
lump $-1 $-1 $55 $1 #
transform $-1 1 0 0 0 1 0 0 0 1 74.640949736014903 31.985105976388013 12.582415724223807 1 rotate no_reflect no_shear #
lump $-1 $-1 $56 $2 #
transform $-1 1 0 0 0 1 0 0 0 1 74.640949736014903 31.985105976388013 12.582415724223807 1 rotate no_reflect no_shear #
lump $-1 $-1 $57 $3 #
transform $-1 1 0 0 0 1 0 0 0 1 74.640949736014903 31.985105976388013 12.582415724223807 1 rotate no_reflect no_shear #
lump $-1 $-1 $58 $4 #
transform $-1 1 0 0 0 1 0 0 0 1 74.640949736014903 31.985105976388013 12.582415724223807 1 rotate no_reflect no_shear #
lump $-1 $-1 $59 $5 #
transform $-1 1 0 0 0 1 0 0 0 1 74.640949736014903 31.985105976388013 12.582415724223807 1 rotate no_reflect no_shear #
lump $-1 $-1 $60 $6 #
transform $-1 1 0 0 0 1 0 0 0 1 74.640949736014903 31.985105976388013 12.582415724223807 1 rotate no_reflect no_shear #
lump $-1 $-1 $61 $7 #
transform $-1 1 0 0 0 1 0 0 0 1 74.640949736014903 31.985105976388013 12.582415724223807 1 rotate no_reflect no_shear #
lump $-1 $-1 $62 $8 #
transform $-1 1 0 0 0 1 0 0 0 1 74.640949736014903 31.985105976388013 12.582415724223807 1 rotate no_reflect no_shear #
lump $-1 $-1 $63 $9 #
transform $-1 1 0 0 0 1 0 0 0 1 74.640949736014903 31.985105976388013 12.582415724223807 1 rotate no_reflect no_shear #
lump $-1 $-1 $64 $10 #
transform $-1 1 0 0 0 1 0 0 0 1 74.640949736014903 31.985105976388013 12.582415724223807 1 rotate no_reflect no_shear #
lump $-1 $-1 $65 $11 #
transform $-1 1 0 0 0 1 0 0 0 1 74.640949736014903 31.985105976388013 12.582415724223807 1 rotate no_reflect no_shear #
lump $-1 $-1 $66 $12 #
transform $-1 1 0 0 0 1 0 0 0 1 74.640949736014903 31.985105976388013 12.582415724223807 1 rotate no_reflect no_shear #
lump $-1 $-1 $67 $13 #
transform $-1 1 0 0 0 1 0 0 0 1 74.640949736014903 31.985105976388013 12.582415724223807 1 rotate no_reflect no_shear #
lump $-1 $-1 $68 $14 #
transform $-1 1 0 0 0 1 0 0 0 1 74.640949736014903 31.985105976388013 12.582415724223807 1 rotate no_reflect no_shear #
lump $-1 $-1 $69 $15 #
transform $-1 1 0 0 0 1 0 0 0 1 74.640949736014903 31.985105976388013 12.582415724223807 1 rotate no_reflect no_shear #
lump $-1 $-1 $70 $16 #
transform $-1 1 0 0 0 1 0 0 0 1 74.640949736014903 31.985105976388013 12.582415724223807 1 rotate no_reflect no_shear #
lump $-1 $-1 $71 $17 #
transform $-1 1 0 0 0 1 0 0 0 1 74.640949736014903 31.985105976388013 12.582415724223807 1 rotate no_reflect no_shear #
shell $-1 $-1 $-1 $72 $-1 $18 #
shell $-1 $-1 $-1 $73 $-1 $20 #
shell $-1 $-1 $-1 $74 $-1 $22 #
shell $-1 $-1 $-1 $75 $-1 $24 #
shell $-1 $-1 $-1 $76 $-1 $26 #
shell $-1 $-1 $-1 $77 $-1 $28 #
shell $-1 $-1 $-1 $78 $-1 $30 #
shell $-1 $-1 $-1 $79 $-1 $32 #
shell $-1 $-1 $-1 $80 $-1 $34 #
shell $-1 $-1 $-1 $81 $-1 $36 #
shell $-1 $-1 $-1 $82 $-1 $38 #
shell $-1 $-1 $-1 $83 $-1 $40 #
shell $-1 $-1 $-1 $84 $-1 $42 #
shell $-1 $-1 $-1 $85 $-1 $44 #
shell $-1 $-1 $-1 $86 $-1 $46 #
shell $-1 $-1 $-1 $87 $-1 $48 #
shell $-1 $-1 $-1 $88 $-1 $50 #
shell $-1 $-1 $-1 $89 $-1 $52 #
face $-1 $90 $91 $54 $-1 $92 forward single #
face $-1 $93 $94 $55 $-1 $95 forward single #
face $-1 $96 $97 $56 $-1 $98 reversed single #
face $-1 $99 $100 $57 $-1 $101 forward single #
face $-1 $102 $103 $58 $-1 $104 forward single #
face $-1 $105 $106 $59 $-1 $107 forward single #
face $-1 $108 $109 $60 $-1 $110 reversed single #
face $-1 $111 $112 $61 $-1 $113 forward single #
face $-1 $114 $115 $62 $-1 $116 forward single #
face $-1 $117 $118 $63 $-1 $119 forward single #
face $-1 $120 $121 $64 $-1 $122 reversed single #
face $-1 $123 $124 $65 $-1 $125 forward single #
face $-1 $126 $127 $66 $-1 $128 forward single #
face $-1 $129 $130 $67 $-1 $131 forward single #
face $-1 $132 $133 $68 $-1 $134 reversed single #
face $-1 $135 $136 $69 $-1 $137 forward single #
face $-1 $138 $139 $70 $-1 $140 forward single #
face $-1 $141 $142 $71 $-1 $143 forward single #
face $-1 $144 $145 $54 $-1 $146 reversed single #
loop $-1 $-1 $147 $72 #
plane-surface $-1 0 0 12.582415724223807 0 0 1 1 0 0 forward_v I I I I #
face $-1 $148 $149 $55 $-1 $150 reversed single #
loop $-1 $-1 $151 $73 #
plane-surface $-1 -74.640949736014903 0 0 1 0 0 0 0 -1 forward_v I I I I #
face $-1 $152 $153 $56 $-1 $154 reversed single #
loop $-1 $-1 $155 $74 #
plane-surface $-1 -35.982520693005092 -133.79511781376937 115.41212683392658 -1 0 0 0 -0.68199836817093118 0.7313536940579346 forward_v I I I I #
face $-1 $156 $157 $57 $-1 $158 forward single #
loop $-1 $159 $160 $75 #
cone-surface $-1 -53.034914401545734 -26.729123383757639 7.4220957667197709 0 0.68199836817093118 -0.7313536940579346 2 0 0 1 I I 0 1 2 forward I I I I #
face $-1 $161 $162 $58 $-1 $163 forward single #
loop $-1 $164 $165 $76 #
cone-surface $-1 -46.640266760842991 -26.729123383757639 7.4220957667197709 0 0.68199836817093118 -0.7313536940579346 2 0 0 1 I I 0 1 2 forward I I I I #
face $-1 $166 $167 $59 $-1 $168 forward single #
loop $-1 $169 $170 $77 #
cone-surface $-1 -40.245619120140248 -26.729123383757639 7.4220957667197709 0 0.68199836817093118 -0.7313536940579346 2 0 0 1 I I 0 1 2 forward I I I I #
face $-1 $171 $172 $60 $-1 $173 reversed single #
loop $-1 $-1 $174 $78 #
plane-surface $-1 -1.1230936832389631 -133.79511781376937 115.41212683392658 -1 0 0 0 -0.68199836817093118 0.7313536940579346 forward_v I I I I #
face $-1 $175 $176 $61 $-1 $177 forward single #
loop $-1 $178 $179 $79 #
cone-surface $-1 -18.175487391779598 -26.729123383757639 7.4220957667197709 0 0.68199836817093118 -0.7313536940579346 2 0 0 1 I I 0 1 2 forward I I I I #
face $-1 $180 $181 $62 $-1 $182 forward single #
loop $-1 $183 $184 $80 #
cone-surface $-1 -11.780839751076861 -26.729123383757639 7.4220957667197709 0 0.68199836817093118 -0.7313536940579346 2 0 0 1 I I 0 1 2 forward I I I I #
face $-1 $185 $186 $63 $-1 $187 forward single #
loop $-1 $188 $189 $81 #
cone-surface $-1 -5.3861921103741111 -26.729123383757639 7.4220957667197709 0 0.68199836817093118 -0.7313536940579346 2 0 0 1 I I 0 1 2 forward I I I I #
face $-1 $190 $191 $64 $-1 $192 reversed single #
loop $-1 $-1 $193 $82 #
plane-surface $-1 33.736333326527166 -133.79511781376937 115.41212683392658 -1 0 0 0 -0.68199836817093118 0.7313536940579346 forward_v I I I I #
face $-1 $194 $195 $65 $-1 $196 forward single #
loop $-1 $197 $198 $83 #
cone-surface $-1 16.683939617986539 -26.729123383757639 7.4220957667197709 0 0.68199836817093118 -0.7313536940579346 2 0 0 1 I I 0 1 2 forward I I I I #
face $-1 $199 $200 $66 $-1 $201 forward single #
loop $-1 $202 $203 $84 #
cone-surface $-1 23.078587258689268 -26.729123383757639 7.4220957667197709 0 0.68199836817093118 -0.7313536940579346 2 0 0 1 I I 0 1 2 forward I I I I #
face $-1 $204 $205 $67 $-1 $206 forward single #
loop $-1 $207 $208 $85 #
cone-surface $-1 29.473234899392025 -26.729123383757639 7.4220957667197709 0 0.68199836817093118 -0.7313536940579346 2 0 0 1 I I 0 1 2 forward I I I I #
face $-1 $209 $210 $68 $-1 $211 reversed single #
loop $-1 $-1 $212 $86 #
plane-surface $-1 68.595760336293296 -133.79511781376937 115.41212683392658 -1 0 0 0 -0.68199836817093118 0.7313536940579346 forward_v I I I I #
face $-1 $213 $214 $69 $-1 $215 forward single #
loop $-1 $216 $217 $87 #
cone-surface $-1 51.543366627752675 -26.729123383757639 7.4220957667197709 0 0.68199836817093118 -0.7313536940579346 2 0 0 1 I I 0 1 2 forward I I I I #
face $-1 $218 $219 $70 $-1 $220 forward single #
loop $-1 $221 $222 $88 #
cone-surface $-1 57.93801426845539 -26.729123383757639 7.4220957667197709 0 0.68199836817093118 -0.7313536940579346 2 0 0 1 I I 0 1 2 forward I I I I #
face $-1 $223 $224 $71 $-1 $225 forward single #
loop $-1 $226 $227 $89 #
cone-surface $-1 64.332661909158162 -26.729123383757639 7.4220957667197709 0 0.68199836817093118 -0.7313536940579346 2 0 0 1 I I 0 1 2 forward I I I I #
face $-1 $228 $229 $54 $-1 $230 reversed single #
loop $-1 $-1 $231 $90 #
plane-surface $-1 0 0 -12.582415724223807 0 0 1 1 0 0 forward_v I I I I #
coedge $-1 $232 $233 $234 $235 forward $91 $-1 #
face $-1 $236 $237 $55 $-1 $238 forward single #
loop $-1 $-1 $239 $93 #
plane-surface $-1 0 31.985105976388013 0 0 -1 0 0 0 -1 forward_v I I I I #
coedge $-1 $240 $241 $242 $243 forward $94 $-1 #
face $-1 $244 $245 $56 $-1 $246 reversed single #
loop $-1 $-1 $247 $96 #
plane-surface $-1 -46.640266760842991 -31.985105976388041 6.2342581990723431 0 -0.68199836817093118 0.7313536940579346 1 0 0 forward_v I I I I #
coedge $-1 $248 $249 $250 $251 reversed $97 $-1 #
face $-1 $-1 $252 $57 $-1 $253 forward single #
loop $-1 $254 $255 $99 #
cone-surface $-1 -53.034914401545734 -24.194925095437437 4.7045008777335369 0 0.68199836817093118 -0.7313536940579346 1 0 0 1 I I -0.70710678118654746 0.70710678118654746 1 forward I I I I #
loop $-1 $-1 $256 $75 #
coedge $-1 $160 $160 $257 $258 reversed $100 $-1 #
face $-1 $-1 $259 $58 $-1 $260 forward single #
loop $-1 $261 $262 $102 #
cone-surface $-1 -46.640266760842991 -24.194925095437437 4.7045008777335369 0 0.68199836817093118 -0.7313536940579346 1 0 0 1 I I -0.70710678118654746 0.70710678118654746 1 forward I I I I #
loop $-1 $-1 $263 $76 #
coedge $-1 $165 $165 $264 $265 reversed $103 $-1 #
face $-1 $-1 $266 $59 $-1 $267 forward single #
loop $-1 $268 $269 $105 #
cone-surface $-1 -40.245619120140248 -24.194925095437437 4.7045008777335369 0 0.68199836817093118 -0.7313536940579346 1 0 0 1 I I -0.70710678118654746 0.70710678118654746 1 forward I I I I #
loop $-1 $-1 $270 $77 #
coedge $-1 $170 $170 $271 $272 reversed $106 $-1 #
face $-1 $273 $274 $60 $-1 $275 reversed single #
loop $-1 $-1 $276 $108 #
plane-surface $-1 -11.780839751076861 -31.985105976388041 6.2342581990723431 0 -0.68199836817093118 0.7313536940579346 1 0 0 forward_v I I I I #
coedge $-1 $277 $278 $279 $280 reversed $109 $-1 #
face $-1 $-1 $281 $61 $-1 $282 forward single #
loop $-1 $283 $284 $111 #
cone-surface $-1 -18.175487391779598 -24.194925095437437 4.7045008777335369 0 0.68199836817093118 -0.7313536940579346 1 0 0 1 I I -0.70710678118654746 0.70710678118654746 1 forward I I I I #
loop $-1 $-1 $285 $79 #
coedge $-1 $179 $179 $286 $287 reversed $112 $-1 #
face $-1 $-1 $288 $62 $-1 $289 forward single #
loop $-1 $290 $291 $114 #
cone-surface $-1 -11.780839751076861 -24.194925095437437 4.7045008777335369 0 0.68199836817093118 -0.7313536940579346 1 0 0 1 I I -0.70710678118654746 0.70710678118654746 1 forward I I I I #
loop $-1 $-1 $292 $80 #
coedge $-1 $184 $184 $293 $294 reversed $115 $-1 #
face $-1 $-1 $295 $63 $-1 $296 forward single #
loop $-1 $297 $298 $117 #
cone-surface $-1 -5.3861921103741111 -24.194925095437437 4.7045008777335369 0 0.68199836817093118 -0.7313536940579346 1 0 0 1 I I -0.70710678118654746 0.70710678118654746 1 forward I I I I #
loop $-1 $-1 $299 $81 #
coedge $-1 $189 $189 $300 $301 reversed $118 $-1 #
face $-1 $302 $303 $64 $-1 $304 reversed single #
loop $-1 $-1 $305 $120 #
plane-surface $-1 23.078587258689268 -31.985105976388041 6.2342581990723431 0 -0.68199836817093118 0.7313536940579346 1 0 0 forward_v I I I I #
coedge $-1 $306 $307 $308 $309 reversed $121 $-1 #
face $-1 $-1 $310 $65 $-1 $311 forward single #
loop $-1 $312 $313 $123 #
cone-surface $-1 16.683939617986539 -24.194925095437437 4.7045008777335369 0 0.68199836817093118 -0.7313536940579346 1 0 0 1 I I -0.70710678118654746 0.70710678118654746 1 forward I I I I #
loop $-1 $-1 $314 $83 #
coedge $-1 $198 $198 $315 $316 reversed $124 $-1 #
face $-1 $-1 $317 $66 $-1 $318 forward single #
loop $-1 $319 $320 $126 #
cone-surface $-1 23.078587258689268 -24.194925095437437 4.7045008777335369 0 0.68199836817093118 -0.7313536940579346 1 0 0 1 I I -0.70710678118654746 0.70710678118654746 1 forward I I I I #
loop $-1 $-1 $321 $84 #
coedge $-1 $203 $203 $322 $323 reversed $127 $-1 #
face $-1 $-1 $324 $67 $-1 $325 forward single #
loop $-1 $326 $327 $129 #
cone-surface $-1 29.473234899392025 -24.194925095437437 4.7045008777335369 0 0.68199836817093118 -0.7313536940579346 1 0 0 1 I I -0.70710678118654746 0.70710678118654746 1 forward I I I I #
loop $-1 $-1 $328 $85 #
coedge $-1 $208 $208 $329 $330 reversed $130 $-1 #
face $-1 $331 $332 $68 $-1 $333 reversed single #
loop $-1 $-1 $334 $132 #
plane-surface $-1 57.93801426845539 -31.985105976388041 6.2342581990723431 0 -0.68199836817093118 0.7313536940579346 1 0 0 forward_v I I I I #
coedge $-1 $335 $336 $337 $338 reversed $133 $-1 #
face $-1 $-1 $339 $69 $-1 $340 forward single #
loop $-1 $341 $342 $135 #
cone-surface $-1 51.543366627752675 -24.194925095437437 4.7045008777335369 0 0.68199836817093118 -0.7313536940579346 1 0 0 1 I I -0.70710678118654746 0.70710678118654746 1 forward I I I I #
loop $-1 $-1 $343 $87 #
coedge $-1 $217 $217 $344 $345 reversed $136 $-1 #
face $-1 $-1 $346 $70 $-1 $347 forward single #
loop $-1 $348 $349 $138 #
cone-surface $-1 57.93801426845539 -24.194925095437437 4.7045008777335369 0 0.68199836817093118 -0.7313536940579346 1 0 0 1 I I -0.70710678118654746 0.70710678118654746 1 forward I I I I #
loop $-1 $-1 $350 $88 #
coedge $-1 $222 $222 $351 $352 reversed $139 $-1 #
face $-1 $-1 $353 $71 $-1 $354 forward single #
loop $-1 $355 $356 $141 #
cone-surface $-1 64.332661909158162 -24.194925095437437 4.7045008777335369 0 0.68199836817093118 -0.7313536940579346 1 0 0 1 I I -0.70710678118654746 0.70710678118654746 1 forward I I I I #
loop $-1 $-1 $357 $89 #
coedge $-1 $227 $227 $358 $359 reversed $142 $-1 #
face $-1 $360 $361 $54 $-1 $362 reversed single #
loop $-1 $-1 $363 $144 #
plane-surface $-1 0 -31.985105976388013 0 0 1 0 0 0 1 forward_v I I I I #
coedge $-1 $364 $365 $366 $367 forward $145 $-1 #
coedge $-1 $368 $147 $369 $370 forward $91 $-1 #
coedge $-1 $147 $368 $371 $372 forward $91 $-1 #
coedge $-1 $373 $374 $147 $235 reversed $375 $-1 #
edge $-1 $376 -31.985105976388013 $377 31.985105976388013 $234 $378 forward 7 unknown #
face $-1 $379 $380 $55 $-1 $381 reversed single #
loop $-1 $-1 $242 $148 #
plane-surface $-1 -80.289823489821117 0 10.547525950299354 0 0 1 1 0 0 forward_v I I I I #
coedge $-1 $382 $383 $241 $384 forward $149 $-1 #
coedge $-1 $385 $151 $386 $387 reversed $94 $-1 #
coedge $-1 $151 $385 $239 $384 reversed $94 $-1 #
coedge $-1 $388 $389 $151 $243 reversed $237 $-1 #
edge $-1 $390 -31.985105976388013 $391 31.985105976388013 $242 $392 forward 7 unknown #
face $-1 $393 $394 $56 $-1 $395 reversed single #
loop $-1 $-1 $396 $152 #
plane-surface $-1 -57.298012828680889 -133.79511781376937 115.41212683392658 1 0 0 0 0.68199836817093118 -0.7313536940579346 forward_v I I I I #
coedge $-1 $397 $398 $399 $400 reversed $153 $-1 #
coedge $-1 $249 $155 $401 $402 reversed $97 $-1 #
coedge $-1 $155 $248 $397 $403 reversed $97 $-1 #
coedge $-1 $399 $404 $155 $251 forward $405 $-1 #
edge $-1 $406 34.91245293049667 $407 41.720018275458834 $250 $408 forward 7 unknown #
loop $-1 $-1 $257 $156 #
plane-surface $-1 -46.640266760842991 -31.985105976388041 6.2342581990723431 0 -0.68199836817093118 0.7313536940579346 1 0 0 forward_v I I I I #
loop $-1 $-1 $409 $99 #
coedge $-1 $255 $255 $256 $410 reversed $157 $-1 #
coedge $-1 $256 $256 $255 $410 forward $159 $-1 #
coedge $-1 $257 $257 $160 $258 forward $252 $-1 #
edge $-1 $411 4.383633535010333e-016 $411 6.2831853071796004 $257 $412 forward 7 unknown #
loop $-1 $-1 $264 $161 #
plane-surface $-1 -46.640266760842991 -31.985105976388041 6.2342581990723431 0 -0.68199836817093118 0.7313536940579346 1 0 0 forward_v I I I I #
loop $-1 $-1 $413 $102 #
coedge $-1 $262 $262 $263 $414 reversed $162 $-1 #
coedge $-1 $263 $263 $262 $414 forward $164 $-1 #
coedge $-1 $264 $264 $165 $265 forward $259 $-1 #
edge $-1 $415 4.383633535010333e-016 $415 6.2831853071796004 $264 $416 forward 7 unknown #
loop $-1 $-1 $271 $166 #
plane-surface $-1 -46.640266760842991 -31.985105976388041 6.2342581990723431 0 -0.68199836817093118 0.7313536940579346 1 0 0 forward_v I I I I #
loop $-1 $-1 $417 $105 #
coedge $-1 $269 $269 $270 $418 reversed $167 $-1 #
coedge $-1 $270 $270 $269 $418 forward $169 $-1 #
coedge $-1 $271 $271 $170 $272 forward $266 $-1 #
edge $-1 $419 4.383633535010333e-016 $419 6.2831853071796004 $271 $420 forward 7 unknown #
face $-1 $421 $422 $60 $-1 $423 reversed single #
loop $-1 $-1 $424 $171 #
plane-surface $-1 -22.43858581891476 -133.79511781376937 115.41212683392658 1 0 0 0 0.68199836817093118 -0.7313536940579346 forward_v I I I I #
coedge $-1 $425 $426 $427 $428 reversed $172 $-1 #
coedge $-1 $278 $174 $429 $430 reversed $109 $-1 #
coedge $-1 $174 $277 $425 $431 reversed $109 $-1 #
coedge $-1 $427 $432 $174 $280 forward $433 $-1 #
edge $-1 $434 34.91245293049667 $435 41.720018275458834 $279 $436 forward 7 unknown #
loop $-1 $-1 $286 $175 #
plane-surface $-1 -11.780839751076861 -31.985105976388041 6.2342581990723431 0 -0.68199836817093118 0.7313536940579346 1 0 0 forward_v I I I I #
loop $-1 $-1 $437 $111 #
coedge $-1 $284 $284 $285 $438 reversed $176 $-1 #
coedge $-1 $285 $285 $284 $438 forward $178 $-1 #
coedge $-1 $286 $286 $179 $287 forward $281 $-1 #
edge $-1 $439 4.383633535010333e-016 $439 6.2831853071796004 $286 $440 forward 7 unknown #
loop $-1 $-1 $293 $180 #
plane-surface $-1 -11.780839751076861 -31.985105976388041 6.2342581990723431 0 -0.68199836817093118 0.7313536940579346 1 0 0 forward_v I I I I #
loop $-1 $-1 $441 $114 #
coedge $-1 $291 $291 $292 $442 reversed $181 $-1 #
coedge $-1 $292 $292 $291 $442 forward $183 $-1 #
coedge $-1 $293 $293 $184 $294 forward $288 $-1 #
edge $-1 $443 4.383633535010333e-016 $443 6.2831853071796004 $293 $444 forward 7 unknown #
loop $-1 $-1 $300 $185 #
plane-surface $-1 -11.780839751076861 -31.985105976388041 6.2342581990723431 0 -0.68199836817093118 0.7313536940579346 1 0 0 forward_v I I I I #
loop $-1 $-1 $445 $117 #
coedge $-1 $298 $298 $299 $446 reversed $186 $-1 #
coedge $-1 $299 $299 $298 $446 forward $188 $-1 #
coedge $-1 $300 $300 $189 $301 forward $295 $-1 #
edge $-1 $447 4.383633535010333e-016 $447 6.2831853071796004 $300 $448 forward 7 unknown #
face $-1 $449 $450 $64 $-1 $451 reversed single #
loop $-1 $-1 $452 $190 #
plane-surface $-1 12.42084119085137 -133.79511781376937 115.41212683392658 1 0 0 0 0.68199836817093118 -0.7313536940579346 forward_v I I I I #
coedge $-1 $453 $454 $455 $456 reversed $191 $-1 #
coedge $-1 $307 $193 $457 $458 reversed $121 $-1 #
coedge $-1 $193 $306 $453 $459 reversed $121 $-1 #
coedge $-1 $455 $460 $193 $309 forward $461 $-1 #
edge $-1 $462 34.91245293049667 $463 41.720018275458834 $308 $464 forward 7 unknown #
loop $-1 $-1 $315 $194 #
plane-surface $-1 23.078587258689268 -31.985105976388041 6.2342581990723431 0 -0.68199836817093118 0.7313536940579346 1 0 0 forward_v I I I I #
loop $-1 $-1 $465 $123 #
coedge $-1 $313 $313 $314 $466 reversed $195 $-1 #
coedge $-1 $314 $314 $313 $466 forward $197 $-1 #
coedge $-1 $315 $315 $198 $316 forward $310 $-1 #
edge $-1 $467 4.383633535010333e-016 $467 6.2831853071796004 $315 $468 forward 7 unknown #
loop $-1 $-1 $322 $199 #
plane-surface $-1 23.078587258689268 -31.985105976388041 6.2342581990723431 0 -0.68199836817093118 0.7313536940579346 1 0 0 forward_v I I I I #
loop $-1 $-1 $469 $126 #
coedge $-1 $320 $320 $321 $470 reversed $200 $-1 #
coedge $-1 $321 $321 $320 $470 forward $202 $-1 #
coedge $-1 $322 $322 $203 $323 forward $317 $-1 #
edge $-1 $471 4.383633535010333e-016 $471 6.2831853071796004 $322 $472 forward 7 unknown #
loop $-1 $-1 $329 $204 #
plane-surface $-1 23.078587258689268 -31.985105976388041 6.2342581990723431 0 -0.68199836817093118 0.7313536940579346 1 0 0 forward_v I I I I #
loop $-1 $-1 $473 $129 #
coedge $-1 $327 $327 $328 $474 reversed $205 $-1 #
coedge $-1 $328 $328 $327 $474 forward $207 $-1 #
coedge $-1 $329 $329 $208 $330 forward $324 $-1 #
edge $-1 $475 4.383633535010333e-016 $475 6.2831853071796004 $329 $476 forward 7 unknown #
face $-1 $477 $478 $68 $-1 $479 reversed single #
loop $-1 $-1 $480 $209 #
plane-surface $-1 47.280268200617492 -133.79511781376937 115.41212683392658 1 0 0 0 0.68199836817093118 -0.7313536940579346 forward_v I I I I #
coedge $-1 $481 $482 $483 $484 reversed $210 $-1 #
coedge $-1 $336 $212 $485 $486 reversed $133 $-1 #
coedge $-1 $212 $335 $481 $487 reversed $133 $-1 #
coedge $-1 $483 $488 $212 $338 forward $489 $-1 #
edge $-1 $490 34.91245293049667 $491 41.720018275458834 $337 $492 forward 7 unknown #
loop $-1 $-1 $344 $213 #
plane-surface $-1 57.93801426845539 -31.985105976388041 6.2342581990723431 0 -0.68199836817093118 0.7313536940579346 1 0 0 forward_v I I I I #
loop $-1 $-1 $493 $135 #
coedge $-1 $342 $342 $343 $494 reversed $214 $-1 #
coedge $-1 $343 $343 $342 $494 forward $216 $-1 #
coedge $-1 $344 $344 $217 $345 forward $339 $-1 #
edge $-1 $495 4.383633535010333e-016 $495 6.2831853071796004 $344 $496 forward 7 unknown #
loop $-1 $-1 $351 $218 #
plane-surface $-1 57.93801426845539 -31.985105976388041 6.2342581990723431 0 -0.68199836817093118 0.7313536940579346 1 0 0 forward_v I I I I #
loop $-1 $-1 $497 $138 #
coedge $-1 $349 $349 $350 $498 reversed $219 $-1 #
coedge $-1 $350 $350 $349 $498 forward $221 $-1 #
coedge $-1 $351 $351 $222 $352 forward $346 $-1 #
edge $-1 $499 4.383633535010333e-016 $499 6.2831853071796004 $351 $500 forward 7 unknown #
loop $-1 $-1 $358 $223 #
plane-surface $-1 57.93801426845539 -31.985105976388041 6.2342581990723431 0 -0.68199836817093118 0.7313536940579346 1 0 0 forward_v I I I I #
loop $-1 $-1 $501 $141 #
coedge $-1 $356 $356 $357 $502 reversed $224 $-1 #
coedge $-1 $357 $357 $356 $502 forward $226 $-1 #
coedge $-1 $358 $358 $227 $359 forward $353 $-1 #
edge $-1 $503 4.383633535010333e-016 $503 6.2831853071796004 $358 $504 forward 7 unknown #
face $-1 $505 $506 $54 $-1 $507 reversed single #
loop $-1 $-1 $508 $228 #
plane-surface $-1 -74.640949736014903 0 0 1 0 0 0 0 -1 forward_v I I I I #
coedge $-1 $509 $371 $508 $510 forward $229 $-1 #
coedge $-1 $511 $231 $509 $512 forward $145 $-1 #
coedge $-1 $231 $511 $513 $514 forward $145 $-1 #
coedge $-1 $374 $373 $231 $367 reversed $375 $-1 #
edge $-1 $515 -31.985105976388013 $516 31.985105976388013 $366 $517 forward 7 unknown #
coedge $-1 $233 $232 $518 $519 forward $91 $-1 #
coedge $-1 $520 $521 $232 $370 reversed $506 $-1 #
edge $-1 $377 -74.640949736014903 $522 74.640949736014903 $369 $523 forward 7 unknown #
coedge $-1 $363 $524 $233 $372 reversed $229 $-1 #
edge $-1 $525 -74.640949736014903 $376 74.640949736014903 $371 $526 forward 7 unknown #
coedge $-1 $366 $234 $524 $527 forward $375 $-1 #
coedge $-1 $234 $366 $520 $528 reversed $375 $-1 #
loop $-1 $-1 $373 $505 #
vertex $-1 $235 $529 #
vertex $-1 $235 $530 #
straight-curve $-1 74.640949736014903 0 12.582415724223807 0 1 0 I I #
face $-1 $531 $532 $55 $-1 $533 reversed single #
loop $-1 $-1 $534 $236 #
plane-surface $-1 -80.289823489821117 0 6.3767855667706694 0 0 1 1 0 0 forward_v I I I I #
coedge $-1 $535 $239 $536 $537 reversed $149 $-1 #
coedge $-1 $239 $535 $388 $538 reversed $149 $-1 #
edge $-1 $390 -10.547525950299354 $539 -6.3767855667706694 $239 $540 forward 7 unknown #
coedge $-1 $241 $240 $534 $541 forward $94 $-1 #
coedge $-1 $542 $543 $240 $387 forward $544 $-1 #
edge $-1 $545 6.3767855667706694 $391 10.547525950299354 $386 $546 forward 7 unknown #
coedge $-1 $547 $242 $383 $538 forward $237 $-1 #
coedge $-1 $242 $547 $542 $548 forward $237 $-1 #
vertex $-1 $384 $549 #
vertex $-1 $548 $550 #
straight-curve $-1 -74.640949736014903 0 10.547525950299354 0 -1 0 I I #
face $-1 $-1 $405 $56 $-1 $551 forward single #
loop $-1 $-1 $552 $244 #
plane-surface $-1 0 -31.985105976388013 0 0 1 0 0 0 1 forward_v I I I I #
coedge $-1 $553 $554 $555 $556 reversed $245 $-1 #
coedge $-1 $557 $247 $249 $403 forward $153 $-1 #
coedge $-1 $247 $557 $553 $558 forward $153 $-1 #
coedge $-1 $555 $250 $247 $400 forward $405 $-1 #
edge $-1 $407 12.662387312583597 $559 33.977879448259394 $399 $560 forward 7 unknown #
coedge $-1 $561 $562 $248 $402 forward $394 $-1 #
edge $-1 $563 -51.471805217890918 $406 -45.123647692739482 $401 $564 forward 7 unknown #
edge $-1 $407 -9.3081711356241925 $563 -3.8958409169770864e-014 $249 $565 forward 7 unknown #
coedge $-1 $250 $555 $561 $566 forward $405 $-1 #
loop $-1 $-1 $555 $393 #
vertex $-1 $402 $567 #
vertex $-1 $251 $568 #
straight-curve $-1 -35.982520693005092 -66.897558906884683 12.582415724223807 0 1 0 I I #
coedge $-1 $409 $409 $-1 $569 reversed $254 $-1 #
edge $-1 $570 0 $570 6.2831853071796004 $255 $571 forward 7 unknown #
vertex $-1 $258 $572 #
ellipse-curve $-1 -53.034914401545734 -28.581323303906927 9.4083369616480894 0 -0.68199836817093118 0.7313536940579346 2 0 0 1 I I #
coedge $-1 $413 $413 $-1 $573 reversed $261 $-1 #
edge $-1 $574 0 $574 6.2831853071796004 $262 $575 forward 7 unknown #
vertex $-1 $265 $576 #
ellipse-curve $-1 -46.640266760842991 -28.581323303906927 9.4083369616480894 0 -0.68199836817093118 0.7313536940579346 2 0 0 1 I I #
coedge $-1 $417 $417 $-1 $577 reversed $268 $-1 #
edge $-1 $578 0 $578 6.2831853071796004 $269 $579 forward 7 unknown #
vertex $-1 $272 $580 #
ellipse-curve $-1 -40.245619120140248 -28.581323303906927 9.4083369616480894 0 -0.68199836817093118 0.7313536940579346 2 0 0 1 I I #
face $-1 $-1 $433 $60 $-1 $581 forward single #
loop $-1 $-1 $582 $273 #
plane-surface $-1 0 -31.985105976388013 0 0 1 0 0 0 1 forward_v I I I I #
coedge $-1 $583 $584 $585 $586 reversed $274 $-1 #
coedge $-1 $587 $276 $278 $431 forward $172 $-1 #
coedge $-1 $276 $587 $583 $588 forward $172 $-1 #
coedge $-1 $585 $279 $276 $428 forward $433 $-1 #
edge $-1 $435 -4.7673261922994676 $589 16.548165943376329 $427 $590 forward 7 unknown #
coedge $-1 $591 $592 $277 $430 forward $422 $-1 #
edge $-1 $593 -51.471805217890918 $434 -45.123647692739482 $429 $594 forward 7 unknown #
edge $-1 $435 -9.3081711356241925 $593 -3.8958409169770864e-014 $278 $595 forward 7 unknown #
coedge $-1 $279 $585 $591 $596 forward $433 $-1 #
loop $-1 $-1 $585 $421 #
vertex $-1 $430 $597 #
vertex $-1 $280 $598 #
straight-curve $-1 -1.1230936832389631 -66.897558906884683 12.582415724223807 0 1 0 I I #
coedge $-1 $437 $437 $-1 $599 reversed $283 $-1 #
edge $-1 $600 0 $600 6.2831853071796004 $284 $601 forward 7 unknown #
vertex $-1 $287 $602 #
ellipse-curve $-1 -18.175487391779598 -28.581323303906927 9.4083369616480894 0 -0.68199836817093118 0.7313536940579346 2 0 0 1 I I #
coedge $-1 $441 $441 $-1 $603 reversed $290 $-1 #
edge $-1 $604 0 $604 6.2831853071796004 $291 $605 forward 7 unknown #
vertex $-1 $294 $606 #
ellipse-curve $-1 -11.780839751076861 -28.581323303906927 9.4083369616480894 0 -0.68199836817093118 0.7313536940579346 2 0 0 1 I I #
coedge $-1 $445 $445 $-1 $607 reversed $297 $-1 #
edge $-1 $608 0 $608 6.2831853071796004 $298 $609 forward 7 unknown #
vertex $-1 $301 $610 #
ellipse-curve $-1 -5.3861921103741111 -28.581323303906927 9.4083369616480894 0 -0.68199836817093118 0.7313536940579346 2 0 0 1 I I #
face $-1 $-1 $461 $64 $-1 $611 forward single #
loop $-1 $-1 $612 $302 #
plane-surface $-1 0 -31.985105976388013 0 0 1 0 0 0 1 forward_v I I I I #
coedge $-1 $613 $614 $615 $616 reversed $303 $-1 #
coedge $-1 $617 $305 $307 $459 forward $191 $-1 #
coedge $-1 $305 $617 $613 $618 forward $191 $-1 #
coedge $-1 $615 $308 $305 $456 forward $461 $-1 #
edge $-1 $463 -22.197039697182532 $619 -0.88154756150673563 $455 $620 forward 7 unknown #
coedge $-1 $621 $622 $306 $458 forward $450 $-1 #
edge $-1 $623 -51.471805217890918 $462 -45.123647692739482 $457 $624 forward 7 unknown #
edge $-1 $463 -9.3081711356241925 $623 -3.8958409169770864e-014 $307 $625 forward 7 unknown #
coedge $-1 $308 $615 $621 $626 forward $461 $-1 #
loop $-1 $-1 $615 $449 #
vertex $-1 $458 $627 #
vertex $-1 $309 $628 #
straight-curve $-1 33.736333326527166 -66.897558906884683 12.582415724223807 0 1 0 I I #
coedge $-1 $465 $465 $-1 $629 reversed $312 $-1 #
edge $-1 $630 0 $630 6.2831853071796004 $313 $631 forward 7 unknown #
vertex $-1 $316 $632 #
ellipse-curve $-1 16.683939617986539 -28.581323303906927 9.4083369616480894 0 -0.68199836817093118 0.7313536940579346 2 0 0 1 I I #
coedge $-1 $469 $469 $-1 $633 reversed $319 $-1 #
edge $-1 $634 0 $634 6.2831853071796004 $320 $635 forward 7 unknown #
vertex $-1 $323 $636 #
ellipse-curve $-1 23.078587258689268 -28.581323303906927 9.4083369616480894 0 -0.68199836817093118 0.7313536940579346 2 0 0 1 I I #
coedge $-1 $473 $473 $-1 $637 reversed $326 $-1 #
edge $-1 $638 0 $638 6.2831853071796004 $327 $639 forward 7 unknown #
vertex $-1 $330 $640 #
ellipse-curve $-1 29.473234899392025 -28.581323303906927 9.4083369616480894 0 -0.68199836817093118 0.7313536940579346 2 0 0 1 I I #
face $-1 $-1 $489 $68 $-1 $641 forward single #
loop $-1 $-1 $642 $331 #
plane-surface $-1 0 -31.985105976388013 0 0 1 0 0 0 1 forward_v I I I I #
coedge $-1 $643 $644 $645 $646 reversed $332 $-1 #
coedge $-1 $647 $334 $336 $487 forward $210 $-1 #
coedge $-1 $334 $647 $643 $648 forward $210 $-1 #
coedge $-1 $645 $337 $334 $484 forward $489 $-1 #
edge $-1 $491 -39.626753202065601 $649 -18.311261066389797 $483 $650 forward 7 unknown #
coedge $-1 $651 $652 $335 $486 forward $478 $-1 #
edge $-1 $653 -51.471805217890918 $490 -45.123647692739482 $485 $654 forward 7 unknown #
edge $-1 $491 -9.3081711356241925 $653 -3.8958409169770864e-014 $336 $655 forward 7 unknown #
coedge $-1 $337 $645 $651 $656 forward $489 $-1 #
loop $-1 $-1 $645 $477 #
vertex $-1 $486 $657 #
vertex $-1 $338 $658 #
straight-curve $-1 68.595760336293296 -66.897558906884683 12.582415724223807 0 1 0 I I #
coedge $-1 $493 $493 $-1 $659 reversed $341 $-1 #
edge $-1 $660 0 $660 6.2831853071796004 $342 $661 forward 7 unknown #
vertex $-1 $345 $662 #
ellipse-curve $-1 51.543366627752675 -28.581323303906927 9.4083369616480894 0 -0.68199836817093118 0.7313536940579346 2 0 0 1 I I #
coedge $-1 $497 $497 $-1 $663 reversed $348 $-1 #
edge $-1 $664 0 $664 6.2831853071796004 $349 $665 forward 7 unknown #
vertex $-1 $352 $666 #
ellipse-curve $-1 57.93801426845539 -28.581323303906927 9.4083369616480894 0 -0.68199836817093118 0.7313536940579346 2 0 0 1 I I #
coedge $-1 $501 $501 $-1 $667 reversed $355 $-1 #
edge $-1 $668 0 $668 6.2831853071796004 $356 $669 forward 7 unknown #
vertex $-1 $359 $670 #
ellipse-curve $-1 64.332661909158162 -28.581323303906927 9.4083369616480894 0 -0.68199836817093118 0.7313536940579346 2 0 0 1 I I #
face $-1 $-1 $375 $54 $-1 $671 reversed single #
loop $-1 $-1 $520 $360 #
plane-surface $-1 0 31.985105976388013 0 0 -1 0 0 0 -1 forward_v I I I I #
coedge $-1 $518 $672 $363 $510 reversed $361 $-1 #
coedge $-1 $524 $363 $364 $512 reversed $229 $-1 #
edge $-1 $525 -12.582415724223807 $673 12.582415724223807 $508 $674 forward 7 unknown #
coedge $-1 $365 $364 $672 $675 forward $145 $-1 #
edge $-1 $516 -74.640949736014903 $673 74.640949736014903 $509 $676 forward 7 unknown #
coedge $-1 $521 $520 $365 $514 reversed $506 $-1 #
edge $-1 $677 -74.640949736014903 $515 74.640949736014903 $513 $678 forward 7 unknown #
vertex $-1 $367 $679 #
vertex $-1 $527 $680 #
straight-curve $-1 74.640949736014903 0 -12.582415724223807 0 -1 0 I I #
coedge $-1 $681 $508 $368 $519 reversed $361 $-1 #
edge $-1 $522 -31.985105976388013 $525 31.985105976388013 $518 $682 forward 7 unknown #
coedge $-1 $513 $369 $374 $528 forward $506 $-1 #
coedge $-1 $369 $513 $681 $683 reversed $506 $-1 #
vertex $-1 $370 $684 #
straight-curve $-1 0 31.985105976388013 12.582415724223807 -1 0 0 I I #
coedge $-1 $371 $509 $373 $527 reversed $229 $-1 #
vertex $-1 $519 $685 #
straight-curve $-1 0 -31.985105976388013 12.582415724223807 1 0 0 I I #
edge $-1 $376 -12.582415724223807 $516 12.582415724223807 $373 $686 forward 7 unknown #
edge $-1 $377 -12.582415724223807 $515 12.582415724223807 $374 $687 forward 7 unknown #
point $-1 74.640949736014903 -31.985105976388013 12.582415724223807 #
point $-1 74.640949736014903 31.985105976388013 12.582415724223807 #
face $-1 $-1 $544 $55 $-1 $688 reversed single #
loop $-1 $-1 $689 $379 #
plane-surface $-1 -85.938697243627331 0 8.4621557585350118 1 0 0 0 0 -1 forward_v I I I I #
coedge $-1 $690 $536 $385 $541 reversed $380 $-1 #
coedge $-1 $383 $382 $689 $691 reversed $149 $-1 #
coedge $-1 $534 $692 $382 $537 forward $380 $-1 #
edge $-1 $693 -5.6488737538062139 $539 5.6488737538062139 $382 $694 forward 7 unknown #
edge $-1 $390 -5.6488737538062139 $695 5.6488737538062139 $383 $696 forward 7 unknown #
vertex $-1 $384 $697 #
straight-curve $-1 -74.640949736014903 31.985105976388013 0 0 0 -1 I I #
edge $-1 $545 -31.985105976388013 $539 31.985105976388013 $534 $698 forward 7 unknown #
coedge $-1 $699 $386 $389 $548 reversed $544 $-1 #
coedge $-1 $386 $699 $690 $700 reversed $544 $-1 #
loop $-1 $-1 $386 $531 #
vertex $-1 $387 $701 #
straight-curve $-1 -74.640949736014903 -31.985105976388013 0 0 0 1 I I #
coedge $-1 $389 $388 $702 $703 forward $237 $-1 #
edge $-1 $704 -5.6488737538062139 $391 5.6488737538062139 $542 $705 forward 7 unknown #
point $-1 -74.640949736014903 31.985105976388013 10.547525950299354 #
point $-1 -74.640949736014903 -31.985105976388013 10.547525950299354 #
plane-surface $-1 0 0 12.582415724223807 0 0 1 1 0 0 forward_v I I I I #
coedge $-1 $562 $561 $554 $706 forward $394 $-1 #
coedge $-1 $554 $396 $398 $558 reversed $245 $-1 #
coedge $-1 $396 $553 $552 $706 reversed $245 $-1 #
coedge $-1 $404 $399 $396 $556 forward $405 $-1 #
edge $-1 $559 -41.720018275458834 $707 -34.91245293049667 $555 $708 forward 7 unknown #
coedge $-1 $398 $397 $562 $709 reversed $153 $-1 #
edge $-1 $710 3.8958409169770864e-014 $559 9.3081711356241925 $553 $711 forward 7 unknown #
vertex $-1 $400 $712 #
straight-curve $-1 -23.320133380421495 -25.177540631425845 12.582415724223807 -1 0 0 I I #
coedge $-1 $552 $401 $404 $566 reversed $394 $-1 #
coedge $-1 $401 $552 $557 $709 forward $394 $-1 #
vertex $-1 $402 $713 #
straight-curve $-1 -35.982520693005092 -31.985105976388013 57.706063416963289 0 0 1 I I #
straight-curve $-1 -35.982520693005092 -31.985105976388041 6.2342581990723431 0 -0.7313536940579346 -0.68199836817093118 I I #
edge $-1 $707 -57.298012828680889 $406 -35.982520693005092 $561 $714 forward 7 unknown #
point $-1 -35.982520693005092 -31.985105976388013 12.582415724223807 #
point $-1 -35.982520693005092 -25.177540631425849 12.582415724223807 #
edge $-1 $715 1 $715 0 $409 $-1 forward 7 unknown #
vertex $-1 $410 $716 #
ellipse-curve $-1 -53.034914401545734 -24.876923463608367 5.4358545717914719 0 -0.68199836817093118 0.7313536940579346 2 0 0 1 I I #
point $-1 -51.034914401545734 -28.58132330390691 9.4083369616480717 #
edge $-1 $717 1 $717 0 $413 $-1 forward 7 unknown #
vertex $-1 $414 $718 #
ellipse-curve $-1 -46.640266760842991 -24.876923463608367 5.4358545717914719 0 -0.68199836817093118 0.7313536940579346 2 0 0 1 I I #
point $-1 -44.640266760842991 -28.58132330390691 9.4083369616480717 #
edge $-1 $719 1 $719 0 $417 $-1 forward 7 unknown #
vertex $-1 $418 $720 #
ellipse-curve $-1 -40.245619120140248 -24.876923463608367 5.4358545717914719 0 -0.68199836817093118 0.7313536940579346 2 0 0 1 I I #
point $-1 -38.245619120140248 -28.58132330390691 9.4083369616480717 #
plane-surface $-1 0 0 12.582415724223807 0 0 1 1 0 0 forward_v I I I I #
coedge $-1 $592 $591 $584 $721 forward $422 $-1 #
coedge $-1 $584 $424 $426 $588 reversed $274 $-1 #
coedge $-1 $424 $583 $582 $721 reversed $274 $-1 #
coedge $-1 $432 $427 $424 $586 forward $433 $-1 #
edge $-1 $589 -41.720018275458834 $722 -34.91245293049667 $585 $723 forward 7 unknown #
coedge $-1 $426 $425 $592 $724 reversed $172 $-1 #
edge $-1 $725 3.8958409169770864e-014 $589 9.3081711356241925 $583 $726 forward 7 unknown #
vertex $-1 $428 $727 #
straight-curve $-1 -5.8904198755384307 -25.177540631425845 12.582415724223807 -1 0 0 I I #
coedge $-1 $582 $429 $432 $596 reversed $422 $-1 #
coedge $-1 $429 $582 $587 $724 forward $422 $-1 #
vertex $-1 $430 $728 #
straight-curve $-1 -1.1230936832389631 -31.985105976388013 57.706063416963289 0 0 1 I I #
straight-curve $-1 -1.1230936832389631 -31.985105976388041 6.2342581990723431 0 -0.7313536940579346 -0.68199836817093118 I I #
edge $-1 $722 -22.43858581891476 $434 -1.1230936832389631 $591 $729 forward 7 unknown #
point $-1 -1.1230936832389631 -31.985105976388013 12.582415724223807 #
point $-1 -1.1230936832389631 -25.177540631425849 12.582415724223807 #
edge $-1 $730 1 $730 0 $437 $-1 forward 7 unknown #
vertex $-1 $438 $731 #
ellipse-curve $-1 -18.175487391779598 -24.876923463608367 5.4358545717914719 0 -0.68199836817093118 0.7313536940579346 2 0 0 1 I I #
point $-1 -16.175487391779598 -28.58132330390691 9.4083369616480717 #
edge $-1 $732 1 $732 0 $441 $-1 forward 7 unknown #
vertex $-1 $442 $733 #
ellipse-curve $-1 -11.780839751076861 -24.876923463608367 5.4358545717914719 0 -0.68199836817093118 0.7313536940579346 2 0 0 1 I I #
point $-1 -9.7808397510768614 -28.58132330390691 9.4083369616480717 #
edge $-1 $734 1 $734 0 $445 $-1 forward 7 unknown #
vertex $-1 $446 $735 #
ellipse-curve $-1 -5.3861921103741111 -24.876923463608367 5.4358545717914719 0 -0.68199836817093118 0.7313536940579346 2 0 0 1 I I #
point $-1 -3.3861921103741111 -28.58132330390691 9.4083369616480717 #
plane-surface $-1 0 0 12.582415724223807 0 0 1 1 0 0 forward_v I I I I #
coedge $-1 $622 $621 $614 $736 forward $450 $-1 #
coedge $-1 $614 $452 $454 $618 reversed $303 $-1 #
coedge $-1 $452 $613 $612 $736 reversed $303 $-1 #
coedge $-1 $460 $455 $452 $616 forward $461 $-1 #
edge $-1 $619 -41.720018275458834 $737 -34.91245293049667 $615 $738 forward 7 unknown #
coedge $-1 $454 $453 $622 $739 reversed $191 $-1 #
edge $-1 $740 3.8958409169770864e-014 $619 9.3081711356241925 $613 $741 forward 7 unknown #
vertex $-1 $456 $742 #
straight-curve $-1 11.539293629344634 -25.177540631425845 12.582415724223807 -1 0 0 I I #
coedge $-1 $612 $457 $460 $626 reversed $450 $-1 #
coedge $-1 $457 $612 $617 $739 forward $450 $-1 #
vertex $-1 $458 $743 #
straight-curve $-1 33.736333326527166 -31.985105976388013 57.706063416963289 0 0 1 I I #
straight-curve $-1 33.736333326527166 -31.985105976388041 6.2342581990723431 0 -0.7313536940579346 -0.68199836817093118 I I #
edge $-1 $737 12.42084119085137 $462 33.736333326527166 $621 $744 forward 7 unknown #
point $-1 33.736333326527166 -31.985105976388013 12.582415724223807 #
point $-1 33.736333326527166 -25.177540631425849 12.582415724223807 #
edge $-1 $745 1 $745 0 $465 $-1 forward 7 unknown #
vertex $-1 $466 $746 #
ellipse-curve $-1 16.683939617986539 -24.876923463608367 5.4358545717914719 0 -0.68199836817093118 0.7313536940579346 2 0 0 1 I I #
point $-1 18.683939617986539 -28.58132330390691 9.4083369616480717 #
edge $-1 $747 1 $747 0 $469 $-1 forward 7 unknown #
vertex $-1 $470 $748 #
ellipse-curve $-1 23.078587258689268 -24.876923463608367 5.4358545717914719 0 -0.68199836817093118 0.7313536940579346 2 0 0 1 I I #
point $-1 25.078587258689268 -28.58132330390691 9.4083369616480717 #
edge $-1 $749 1 $749 0 $473 $-1 forward 7 unknown #
vertex $-1 $474 $750 #
ellipse-curve $-1 29.473234899392025 -24.876923463608367 5.4358545717914719 0 -0.68199836817093118 0.7313536940579346 2 0 0 1 I I #
point $-1 31.473234899392025 -28.58132330390691 9.4083369616480717 #
plane-surface $-1 0 0 12.582415724223807 0 0 1 1 0 0 forward_v I I I I #
coedge $-1 $652 $651 $644 $751 forward $478 $-1 #
coedge $-1 $644 $480 $482 $648 reversed $332 $-1 #
coedge $-1 $480 $643 $642 $751 reversed $332 $-1 #
coedge $-1 $488 $483 $480 $646 forward $489 $-1 #
edge $-1 $649 -41.720018275458834 $752 -34.91245293049667 $645 $753 forward 7 unknown #
coedge $-1 $482 $481 $652 $754 reversed $210 $-1 #
edge $-1 $755 3.8958409169770864e-014 $649 9.3081711356241925 $643 $756 forward 7 unknown #
vertex $-1 $484 $757 #
straight-curve $-1 28.969007134227695 -25.177540631425845 12.582415724223807 -1 0 0 I I #
coedge $-1 $642 $485 $488 $656 reversed $478 $-1 #
coedge $-1 $485 $642 $647 $754 forward $478 $-1 #
vertex $-1 $486 $758 #
straight-curve $-1 68.595760336293296 -31.985105976388013 57.706063416963289 0 0 1 I I #
straight-curve $-1 68.595760336293296 -31.985105976388041 6.2342581990723431 0 -0.7313536940579346 -0.68199836817093118 I I #
edge $-1 $752 47.280268200617492 $490 68.595760336293296 $651 $759 forward 7 unknown #
point $-1 68.595760336293296 -31.985105976388013 12.582415724223807 #
point $-1 68.595760336293296 -25.177540631425849 12.582415724223807 #
edge $-1 $760 1 $760 0 $493 $-1 forward 7 unknown #
vertex $-1 $494 $761 #
ellipse-curve $-1 51.543366627752675 -24.876923463608367 5.4358545717914719 0 -0.68199836817093118 0.7313536940579346 2 0 0 1 I I #
point $-1 53.543366627752675 -28.58132330390691 9.4083369616480717 #
edge $-1 $762 1 $762 0 $497 $-1 forward 7 unknown #
vertex $-1 $498 $763 #
ellipse-curve $-1 57.93801426845539 -24.876923463608367 5.4358545717914719 0 -0.68199836817093118 0.7313536940579346 2 0 0 1 I I #
point $-1 59.93801426845539 -28.58132330390691 9.4083369616480717 #
edge $-1 $764 1 $764 0 $501 $-1 forward 7 unknown #
vertex $-1 $502 $765 #
ellipse-curve $-1 64.332661909158162 -24.876923463608367 5.4358545717914719 0 -0.68199836817093118 0.7313536940579346 2 0 0 1 I I #
point $-1 66.332661909158162 -28.58132330390691 9.4083369616480717 #
plane-surface $-1 74.640949736014903 0 0 -1 0 0 0 0 1 forward_v I I I I #
coedge $-1 $508 $681 $511 $675 reversed $361 $-1 #
vertex $-1 $675 $766 #
straight-curve $-1 -74.640949736014903 -31.985105976388013 0 0 0 -1 I I #
edge $-1 $673 -31.985105976388013 $677 31.985105976388013 $672 $767 forward 7 unknown #
straight-curve $-1 0 -31.985105976388013 -12.582415724223807 -1 0 0 I I #
vertex $-1 $514 $768 #
straight-curve $-1 0 31.985105976388013 -12.582415724223807 1 0 0 I I #
point $-1 74.640949736014903 31.985105976388013 -12.582415724223807 #
point $-1 74.640949736014903 -31.985105976388013 -12.582415724223807 #
coedge $-1 $672 $518 $521 $683 forward $361 $-1 #
straight-curve $-1 -74.640949736014903 0 12.582415724223807 0 -1 0 I I #
edge $-1 $522 -12.582415724223807 $677 12.582415724223807 $521 $769 forward 7 unknown #
point $-1 -74.640949736014903 31.985105976388013 12.582415724223807 #
point $-1 -74.640949736014903 -31.985105976388013 12.582415724223807 #
straight-curve $-1 74.640949736014903 -31.985105976388013 0 0 0 -1 I I #
straight-curve $-1 74.640949736014903 31.985105976388013 0 0 0 -1 I I #
plane-surface $-1 0 -31.985105976388013 0 0 1 0 0 0 1 forward_v I I I I #
coedge $-1 $770 $702 $535 $691 forward $532 $-1 #
coedge $-1 $692 $534 $543 $700 forward $380 $-1 #
edge $-1 $695 -2.0853701917643424 $693 2.0853701917643424 $535 $771 forward 7 unknown #
coedge $-1 $536 $690 $770 $772 forward $380 $-1 #
vertex $-1 $537 $773 #
straight-curve $-1 -80.289823489821117 31.985105976388013 6.3767855667706694 1 0 0 I I #
vertex $-1 $538 $774 #
straight-curve $-1 -80.289823489821117 31.985105976388013 10.547525950299354 -1 0 0 I I #
point $-1 -74.640949736014903 31.985105976388013 6.3767855667706694 #
straight-curve $-1 -74.640949736014903 0 6.3767855667706694 0 1 0 I I #
coedge $-1 $543 $542 $775 $776 forward $544 $-1 #
edge $-1 $545 -5.6488737538062139 $777 5.6488737538062139 $543 $778 forward 7 unknown #
point $-1 -74.640949736014903 -31.985105976388013 6.3767855667706694 #
coedge $-1 $689 $775 $547 $703 reversed $532 $-1 #
edge $-1 $695 -31.985105976388013 $704 31.985105976388013 $702 $779 forward 7 unknown #
vertex $-1 $703 $780 #
straight-curve $-1 -80.289823489821117 -31.985105976388013 10.547525950299354 1 0 0 I I #
edge $-1 $707 45.123647692739482 $710 51.471805217890918 $552 $781 forward 7 unknown #
vertex $-1 $566 $782 #
straight-curve $-1 -57.298012828680889 -66.897558906884683 12.582415724223807 0 -1 0 I I #
edge $-1 $710 -33.977879448259394 $563 -12.662387312583597 $562 $783 forward 7 unknown #
vertex $-1 $709 $784 #
straight-curve $-1 -57.298012828680889 -31.985105976388041 6.2342581990723431 0 0.7313536940579346 0.68199836817093118 I I #
point $-1 -57.298012828680889 -25.177540631425849 12.582415724223807 #
point $-1 -35.982520693005092 -31.985105976388013 6.2342581990723698 #
straight-curve $-1 0 -31.985105976388013 12.582415724223807 1 0 0 I I #
vertex $-1 $569 $785 #
point $-1 -51.034914401545734 -24.876923463608367 5.4358545717914719 #
vertex $-1 $573 $786 #
point $-1 -44.640266760842991 -24.876923463608367 5.4358545717914719 #
vertex $-1 $577 $787 #
point $-1 -38.245619120140248 -24.876923463608367 5.4358545717914719 #
edge $-1 $722 45.123647692739482 $725 51.471805217890918 $582 $788 forward 7 unknown #
vertex $-1 $596 $789 #
straight-curve $-1 -22.43858581891476 -66.897558906884683 12.582415724223807 0 -1 0 I I #
edge $-1 $725 -16.548165943376329 $593 4.7673261922994676 $592 $790 forward 7 unknown #
vertex $-1 $724 $791 #
straight-curve $-1 -22.43858581891476 -31.985105976388041 6.2342581990723431 0 0.7313536940579346 0.68199836817093118 I I #
point $-1 -22.43858581891476 -25.177540631425849 12.582415724223807 #
point $-1 -1.1230936832389631 -31.985105976388013 6.2342581990723698 #
straight-curve $-1 0 -31.985105976388013 12.582415724223807 1 0 0 I I #
vertex $-1 $599 $792 #
point $-1 -16.175487391779598 -24.876923463608367 5.4358545717914719 #
vertex $-1 $603 $793 #
point $-1 -9.7808397510768614 -24.876923463608367 5.4358545717914719 #
vertex $-1 $607 $794 #
point $-1 -3.3861921103741111 -24.876923463608367 5.4358545717914719 #
edge $-1 $737 45.123647692739482 $740 51.471805217890918 $612 $795 forward 7 unknown #
vertex $-1 $626 $796 #
straight-curve $-1 12.42084119085137 -66.897558906884683 12.582415724223807 0 -1 0 I I #
edge $-1 $740 0.88154756150673563 $623 22.197039697182532 $622 $797 forward 7 unknown #
vertex $-1 $739 $798 #
straight-curve $-1 12.42084119085137 -31.985105976388041 6.2342581990723431 0 0.7313536940579346 0.68199836817093118 I I #
point $-1 12.42084119085137 -25.177540631425849 12.582415724223807 #
point $-1 33.736333326527166 -31.985105976388013 6.2342581990723698 #
straight-curve $-1 0 -31.985105976388013 12.582415724223807 1 0 0 I I #
vertex $-1 $629 $799 #
point $-1 18.683939617986539 -24.876923463608367 5.4358545717914719 #
vertex $-1 $633 $800 #
point $-1 25.078587258689268 -24.876923463608367 5.4358545717914719 #
vertex $-1 $637 $801 #
point $-1 31.473234899392025 -24.876923463608367 5.4358545717914719 #
edge $-1 $752 45.123647692739482 $755 51.471805217890918 $642 $802 forward 7 unknown #
vertex $-1 $656 $803 #
straight-curve $-1 47.280268200617492 -66.897558906884683 12.582415724223807 0 -1 0 I I #
edge $-1 $755 18.311261066389797 $653 39.626753202065601 $652 $804 forward 7 unknown #
vertex $-1 $754 $805 #
straight-curve $-1 47.280268200617492 -31.985105976388041 6.2342581990723431 0 0.7313536940579346 0.68199836817093118 I I #
point $-1 47.280268200617492 -25.177540631425849 12.582415724223807 #
point $-1 68.595760336293296 -31.985105976388013 6.2342581990723698 #
straight-curve $-1 0 -31.985105976388013 12.582415724223807 1 0 0 I I #
vertex $-1 $659 $806 #
point $-1 53.543366627752675 -24.876923463608367 5.4358545717914719 #
vertex $-1 $663 $807 #
point $-1 59.93801426845539 -24.876923463608367 5.4358545717914719 #
vertex $-1 $667 $808 #
point $-1 66.332661909158162 -24.876923463608367 5.4358545717914719 #
point $-1 -74.640949736014903 -31.985105976388013 -12.582415724223807 #
straight-curve $-1 -74.640949736014903 0 -12.582415724223807 0 1 0 I I #
point $-1 -74.640949736014903 31.985105976388013 -12.582415724223807 #
straight-curve $-1 -74.640949736014903 31.985105976388013 0 0 0 -1 I I #
coedge $-1 $775 $689 $692 $772 reversed $532 $-1 #
straight-curve $-1 -85.938697243627331 31.985105976388013 8.4621557585350118 0 0 -1 I I #
edge $-1 $777 -31.985105976388013 $693 31.985105976388013 $770 $809 forward 7 unknown #
point $-1 -85.938697243627331 31.985105976388013 6.3767855667706694 #
point $-1 -85.938697243627331 31.985105976388013 10.547525950299354 #
coedge $-1 $702 $770 $699 $776 reversed $532 $-1 #
edge $-1 $704 -2.0853701917643424 $777 2.0853701917643424 $775 $810 forward 7 unknown #
vertex $-1 $772 $811 #
straight-curve $-1 -80.289823489821117 -31.985105976388013 6.3767855667706694 -1 0 0 I I #
straight-curve $-1 -85.938697243627331 0 10.547525950299354 0 -1 0 I I #
point $-1 -85.938697243627331 -31.985105976388013 10.547525950299354 #
straight-curve $-1 -57.298012828680889 -31.985105976388013 57.706063416963289 0 0 -1 I I #
point $-1 -57.298012828680889 -31.985105976388013 12.582415724223807 #
straight-curve $-1 -23.320133380421495 -31.985105976388013 6.234258199072368 1 0 0 I I #
point $-1 -57.298012828680889 -31.985105976388013 6.2342581990723698 #
point $-1 -53.034914401545734 -23.512926727266507 3.9731471836756023 #
point $-1 -46.640266760842991 -23.512926727266507 3.9731471836756023 #
point $-1 -40.245619120140248 -23.512926727266507 3.9731471836756023 #
straight-curve $-1 -22.43858581891476 -31.985105976388013 57.706063416963289 0 0 -1 I I #
point $-1 -22.43858581891476 -31.985105976388013 12.582415724223807 #
straight-curve $-1 -5.8904198755384307 -31.985105976388013 6.234258199072368 1 0 0 I I #
point $-1 -22.43858581891476 -31.985105976388013 6.2342581990723698 #
point $-1 -18.175487391779598 -23.512926727266507 3.9731471836756023 #
point $-1 -11.780839751076861 -23.512926727266507 3.9731471836756023 #
point $-1 -5.3861921103741111 -23.512926727266507 3.9731471836756023 #
straight-curve $-1 12.42084119085137 -31.985105976388013 57.706063416963289 0 0 -1 I I #
point $-1 12.42084119085137 -31.985105976388013 12.582415724223807 #
straight-curve $-1 11.539293629344634 -31.985105976388013 6.234258199072368 1 0 0 I I #
point $-1 12.42084119085137 -31.985105976388013 6.2342581990723698 #
point $-1 16.683939617986539 -23.512926727266507 3.9731471836756023 #
point $-1 23.078587258689268 -23.512926727266507 3.9731471836756023 #
point $-1 29.473234899392025 -23.512926727266507 3.9731471836756023 #
straight-curve $-1 47.280268200617492 -31.985105976388013 57.706063416963289 0 0 -1 I I #
point $-1 47.280268200617492 -31.985105976388013 12.582415724223807 #
straight-curve $-1 28.969007134227695 -31.985105976388013 6.234258199072368 1 0 0 I I #
point $-1 47.280268200617492 -31.985105976388013 6.2342581990723698 #
point $-1 51.543366627752675 -23.512926727266507 3.9731471836756023 #
point $-1 57.93801426845539 -23.512926727266507 3.9731471836756023 #
point $-1 64.332661909158162 -23.512926727266507 3.9731471836756023 #
straight-curve $-1 -85.938697243627331 0 6.3767855667706694 0 1 0 I I #
straight-curve $-1 -85.938697243627331 -31.985105976388013 8.4621557585350118 0 0 -1 I I #
point $-1 -85.938697243627331 -31.985105976388013 6.3767855667706694 #
End-of-ACIS-data 