500 0 12 0           
7 Unknown 11 ACIS 5.0 NT 24 Thu Mar 25 23:03:41 1999 
-1 9.9999999999999995e-007 1e-010 
body $-1 $12 $-1 $13 #
body $-1 $14 $-1 $15 #
body $-1 $16 $-1 $17 #
body $-1 $18 $-1 $19 #
body $-1 $20 $-1 $21 #
body $-1 $22 $-1 $23 #
body $-1 $24 $-1 $25 #
body $-1 $26 $-1 $27 #
body $-1 $28 $-1 $29 #
body $-1 $30 $-1 $31 #
body $-1 $32 $-1 $33 #
body $-1 $34 $-1 $35 #
lump $-1 $-1 $36 $0 #
transform $-1 1 0 0 0 1 0 0 0 1 43.682973723563343 20.089608576612612 7.9178207355250185 1 rotate no_reflect no_shear #
lump $-1 $-1 $37 $1 #
transform $-1 1 0 0 0 1 0 0 0 1 43.682973723563343 20.089608576612612 7.9178207355250185 1 rotate no_reflect no_shear #
lump $-1 $-1 $38 $2 #
transform $-1 1 0 0 0 1 0 0 0 1 43.682973723563343 20.089608576612612 7.9178207355250185 1 rotate no_reflect no_shear #
lump $-1 $-1 $39 $3 #
transform $-1 1 0 0 0 1 0 0 0 1 43.682973723563343 20.089608576612612 7.9178207355250185 1 rotate no_reflect no_shear #
lump $-1 $-1 $40 $4 #
transform $-1 1 0 0 0 1 0 0 0 1 43.682973723563343 20.089608576612612 7.9178207355250185 1 rotate no_reflect no_shear #
lump $-1 $-1 $41 $5 #
transform $-1 1 0 0 0 1 0 0 0 1 43.682973723563343 20.089608576612612 7.9178207355250185 1 rotate no_reflect no_shear #
lump $-1 $-1 $42 $6 #
transform $-1 1 0 0 0 1 0 0 0 1 43.682973723563343 20.089608576612612 7.9178207355250185 1 rotate no_reflect no_shear #
lump $-1 $-1 $43 $7 #
transform $-1 1 0 0 0 1 0 0 0 1 43.682973723563343 20.089608576612612 7.9178207355250185 1 rotate no_reflect no_shear #
lump $-1 $-1 $44 $8 #
transform $-1 1 0 0 0 1 0 0 0 1 43.682973723563343 20.089608576612612 7.9178207355250185 1 rotate no_reflect no_shear #
lump $-1 $-1 $45 $9 #
transform $-1 1 0 0 0 1 0 0 0 1 43.682973723563343 20.089608576612612 7.9178207355250185 1 rotate no_reflect no_shear #
lump $-1 $-1 $46 $10 #
transform $-1 1 0 0 0 1 0 0 0 1 43.682973723563343 20.089608576612612 7.9178207355250185 1 rotate no_reflect no_shear #
lump $-1 $-1 $47 $11 #
transform $-1 1 0 0 0 1 0 0 0 1 43.682973723563343 20.089608576612612 7.9178207355250185 1 rotate no_reflect no_shear #
shell $-1 $-1 $-1 $48 $-1 $12 #
shell $-1 $-1 $-1 $49 $-1 $14 #
shell $-1 $-1 $-1 $50 $-1 $16 #
shell $-1 $-1 $-1 $51 $-1 $18 #
shell $-1 $-1 $-1 $52 $-1 $20 #
shell $-1 $-1 $-1 $53 $-1 $22 #
shell $-1 $-1 $-1 $54 $-1 $24 #
shell $-1 $-1 $-1 $55 $-1 $26 #
shell $-1 $-1 $-1 $56 $-1 $28 #
shell $-1 $-1 $-1 $57 $-1 $30 #
shell $-1 $-1 $-1 $58 $-1 $32 #
shell $-1 $-1 $-1 $59 $-1 $34 #
face $-1 $60 $61 $36 $-1 $62 forward single #
face $-1 $63 $64 $37 $-1 $65 forward single #
face $-1 $66 $67 $38 $-1 $68 reversed single #
face $-1 $69 $70 $39 $-1 $71 forward single #
face $-1 $72 $73 $40 $-1 $74 reversed single #
face $-1 $75 $76 $41 $-1 $77 forward single #
face $-1 $78 $79 $42 $-1 $80 forward single #
face $-1 $81 $82 $43 $-1 $83 forward single #
face $-1 $84 $85 $44 $-1 $86 reversed single #
face $-1 $87 $88 $45 $-1 $89 forward single #
face $-1 $90 $91 $46 $-1 $92 forward single #
face $-1 $93 $94 $47 $-1 $95 forward single #
face $-1 $96 $97 $36 $-1 $98 reversed single #
loop $-1 $-1 $99 $48 #
plane-surface $-1 0 0 7.9178207355250185 0 0 1 1 0 0 forward_v I I I I #
face $-1 $100 $101 $37 $-1 $102 reversed single #
loop $-1 $-1 $103 $49 #
plane-surface $-1 0 -15.494121563271712 0.072982256042563698 0 0 1 1 0 0 forward_v I I I I #
face $-1 $104 $105 $38 $-1 $106 reversed single #
loop $-1 $-1 $107 $50 #
plane-surface $-1 -116.95422318744042 13.458422590322137 48.603929486902054 0 1 0 -0.83867057594974714 0 0.54463902268945019 forward_v I I I I #
face $-1 $108 $109 $39 $-1 $110 forward single #
loop $-1 $111 $112 $51 #
cone-surface $-1 -40.47513381168946 16.774015583467374 3.8405209164822267 0.83867057594974714 0 -0.54463902268945019 0.54463902268945019 0 0.83867057594974714 1 I I 0 1 1 forward I I I I #
face $-1 $113 $114 $40 $-1 $115 reversed single #
loop $-1 $-1 $116 $52 #
plane-surface $-1 28.625516936233829 1.4387083675153214 125.88758790467539 0 -1 0 -0.61566148304635926 0 -0.78801074757464917 forward_v I I I I #
face $-1 $117 $118 $41 $-1 $119 forward single #
loop $-1 $120 $121 $53 #
cone-surface $-1 40.390711353015995 -4.4946124727951045 5.1921217795998125 -0.61566148304635926 0 -0.78801074757464917 0.39400537378732459 0 -0.30783074152317963 1 I I 0 1 0.5 forward I I I I #
face $-1 $122 $123 $42 $-1 $124 forward single #
loop $-1 $125 $126 $54 #
cone-surface $-1 40.390711353015995 -2.2696171576786952 5.1921217795998125 -0.61566148304635926 0 -0.78801074757464917 0.39400537378732459 0 -0.30783074152317963 1 I I 0 1 0.5 forward I I I I #
face $-1 $127 $128 $43 $-1 $129 forward single #
loop $-1 $130 $131 $55 #
cone-surface $-1 40.390711353015995 -0.044621842562285963 5.1921217795998125 -0.61566148304635926 0 -0.78801074757464917 0.39400537378732459 0 -0.30783074152317963 1 I I 0 1 0.5 forward I I I I #
face $-1 $132 $133 $44 $-1 $134 reversed single #
loop $-1 $-1 $135 $56 #
plane-surface $-1 28.625516936233829 15.168916709554509 125.88758790467539 0 -1 0 -0.61566148304635926 0 -0.78801074757464917 forward_v I I I I #
face $-1 $136 $137 $45 $-1 $138 forward single #
loop $-1 $139 $140 $57 #
cone-surface $-1 40.390711353015995 9.2355958692440829 5.1921217795998125 -0.61566148304635926 0 -0.78801074757464917 0.39400537378732459 0 -0.30783074152317963 1 I I 0 1 0.5 forward I I I I #
face $-1 $141 $142 $46 $-1 $143 forward single #
loop $-1 $144 $145 $58 #
cone-surface $-1 40.390711353015995 11.460591184360492 5.1921217795998125 -0.61566148304635926 0 -0.78801074757464917 0.39400537378732459 0 -0.30783074152317963 1 I I 0 1 0.5 forward I I I I #
face $-1 $146 $147 $47 $-1 $148 forward single #
loop $-1 $149 $150 $59 #
cone-surface $-1 40.390711353015995 13.685586499476905 5.1921217795998125 -0.61566148304635926 0 -0.78801074757464917 0.39400537378732459 0 -0.30783074152317963 1 I I 0 1 0.5 forward I I I I #
face $-1 $151 $152 $36 $-1 $153 reversed single #
loop $-1 $-1 $154 $60 #
plane-surface $-1 0 0 -7.9178207355250185 0 0 1 1 0 0 forward_v I I I I #
coedge $-1 $155 $156 $157 $158 forward $61 $-1 #
face $-1 $159 $160 $37 $-1 $161 reversed single #
loop $-1 $-1 $162 $63 #
plane-surface $-1 0 -15.494121563271712 -4.3750801401303372 0 0 1 1 0 0 forward_v I I I I #
coedge $-1 $163 $164 $165 $166 reversed $64 $-1 #
face $-1 $167 $168 $38 $-1 $169 forward single #
loop $-1 $-1 $170 $66 #
plane-surface $-1 -43.682973723563336 16.774015583467374 1.0210252529611097 -0.83867057594974714 0 0.54463902268945019 0.54463902268945019 0 0.83867057594974714 forward_v I I I I #
coedge $-1 $171 $172 $173 $174 reversed $67 $-1 #
face $-1 $-1 $175 $39 $-1 $176 forward single #
loop $-1 $177 $178 $69 #
cone-surface $-1 -39.087374217341633 16.774015583467374 2.9392993273766637 0.83867057594974714 0 -0.54463902268945019 0.2723195113447251 0 0.41933528797487357 1 I I -0.70710678118654746 0.70710678118654746 0.5 forward I I I I #
loop $-1 $-1 $179 $51 #
coedge $-1 $112 $112 $180 $181 reversed $70 $-1 #
face $-1 $182 $183 $40 $-1 $184 reversed single #
loop $-1 $-1 $185 $72 #
plane-surface $-1 -25.162331836814474 -2.2696171576786952 57.042282344297575 0.61566148304635926 0 0.78801074757464917 0.78801074757464917 0 -0.61566148304635926 forward_v I I I I #
coedge $-1 $186 $187 $188 $189 reversed $73 $-1 #
face $-1 $-1 $190 $41 $-1 $191 forward single #
loop $-1 $192 $193 $75 #
cone-surface $-1 39.928965240731223 -4.4946124727951045 4.6011137189188256 -0.61566148304635926 0 -0.78801074757464917 0.19700268689366229 0 -0.15391537076158981 1 I I -0.70710678118654746 0.70710678118654746 0.25 forward I I I I #
loop $-1 $-1 $194 $53 #
coedge $-1 $121 $121 $195 $196 reversed $76 $-1 #
face $-1 $-1 $197 $42 $-1 $198 forward single #
loop $-1 $199 $200 $78 #
cone-surface $-1 39.928965240731223 -2.2696171576786952 4.6011137189188256 -0.61566148304635926 0 -0.78801074757464917 0.19700268689366229 0 -0.15391537076158981 1 I I -0.70710678118654746 0.70710678118654746 0.25 forward I I I I #
loop $-1 $-1 $201 $54 #
coedge $-1 $126 $126 $202 $203 reversed $79 $-1 #
face $-1 $-1 $204 $43 $-1 $205 forward single #
loop $-1 $206 $207 $81 #
cone-surface $-1 39.928965240731223 -0.044621842562285963 4.6011137189188256 -0.61566148304635926 0 -0.78801074757464917 0.19700268689366229 0 -0.15391537076158981 1 I I -0.70710678118654746 0.70710678118654746 0.25 forward I I I I #
loop $-1 $-1 $208 $55 #
coedge $-1 $131 $131 $209 $210 reversed $82 $-1 #
face $-1 $211 $212 $44 $-1 $213 reversed single #
loop $-1 $-1 $214 $84 #
plane-surface $-1 -25.162331836814474 11.460591184360492 57.042282344297575 0.61566148304635926 0 0.78801074757464917 0.78801074757464917 0 -0.61566148304635926 forward_v I I I I #
coedge $-1 $215 $216 $217 $218 reversed $85 $-1 #
face $-1 $-1 $219 $45 $-1 $220 forward single #
loop $-1 $221 $222 $87 #
cone-surface $-1 39.928965240731223 9.2355958692440829 4.6011137189188256 -0.61566148304635926 0 -0.78801074757464917 0.19700268689366229 0 -0.15391537076158981 1 I I -0.70710678118654746 0.70710678118654746 0.25 forward I I I I #
loop $-1 $-1 $223 $57 #
coedge $-1 $140 $140 $224 $225 reversed $88 $-1 #
face $-1 $-1 $226 $46 $-1 $227 forward single #
loop $-1 $228 $229 $90 #
cone-surface $-1 39.928965240731223 11.460591184360492 4.6011137189188256 -0.61566148304635926 0 -0.78801074757464917 0.19700268689366229 0 -0.15391537076158981 1 I I -0.70710678118654746 0.70710678118654746 0.25 forward I I I I #
loop $-1 $-1 $230 $58 #
coedge $-1 $145 $145 $231 $232 reversed $91 $-1 #
face $-1 $-1 $233 $47 $-1 $234 forward single #
loop $-1 $235 $236 $93 #
cone-surface $-1 39.928965240731223 13.685586499476905 4.6011137189188256 -0.61566148304635926 0 -0.78801074757464917 0.19700268689366229 0 -0.15391537076158981 1 I I -0.70710678118654746 0.70710678118654746 0.25 forward I I I I #
loop $-1 $-1 $237 $59 #
coedge $-1 $150 $150 $238 $239 reversed $94 $-1 #
face $-1 $240 $241 $36 $-1 $242 reversed single #
loop $-1 $-1 $243 $96 #
plane-surface $-1 0 -20.089608576612612 0 0 1 0 0 0 1 forward_v I I I I #
coedge $-1 $244 $245 $246 $247 forward $97 $-1 #
coedge $-1 $248 $99 $249 $250 forward $61 $-1 #
coedge $-1 $99 $248 $251 $252 forward $61 $-1 #
coedge $-1 $253 $254 $99 $158 reversed $255 $-1 #
edge $-1 $256 -20.089608576612612 $257 20.089608576612612 $157 $258 forward 7 unknown #
face $-1 $259 $260 $37 $-1 $261 reversed single #
loop $-1 $-1 $262 $100 #
plane-surface $-1 0 -10.898634549930811 -2.1510489420438867 0 -1 0 0 0 -1 forward_v I I I I #
coedge $-1 $263 $264 $265 $266 reversed $101 $-1 #
coedge $-1 $267 $103 $268 $269 forward $64 $-1 #
coedge $-1 $103 $267 $270 $271 reversed $64 $-1 #
coedge $-1 $272 $273 $103 $166 forward $274 $-1 #
edge $-1 $275 3.1515737682949556 $276 12.342547794976756 $165 $277 forward 7 unknown #
face $-1 $278 $279 $38 $-1 $280 reversed single #
loop $-1 $-1 $173 $104 #
plane-surface $-1 0 0 7.9178207355250185 0 0 1 1 0 0 forward_v I I I I #
coedge $-1 $281 $282 $283 $284 reversed $105 $-1 #
coedge $-1 $172 $107 $285 $286 reversed $67 $-1 #
coedge $-1 $107 $171 $281 $287 reversed $67 $-1 #
coedge $-1 $283 $288 $107 $174 forward $168 $-1 #
edge $-1 $289 14.794137870156867 $290 19.27296908115872 $173 $291 forward 7 unknown #
loop $-1 $-1 $180 $108 #
plane-surface $-1 -43.682973723563336 16.774015583467374 1.0210252529611097 -0.83867057594974714 0 0.54463902268945019 0.54463902268945019 0 0.83867057594974714 forward_v I I I I #
loop $-1 $-1 $292 $69 #
coedge $-1 $178 $178 $179 $293 reversed $109 $-1 #
coedge $-1 $179 $179 $178 $293 forward $111 $-1 #
coedge $-1 $180 $180 $112 $181 forward $175 $-1 #
edge $-1 $294 0 $294 6.2831853071796004 $180 $295 forward 7 unknown #
face $-1 $296 $297 $40 $-1 $298 reversed single #
loop $-1 $-1 $299 $113 #
plane-surface $-1 28.625516936233829 -5.9779426828727118 125.88758790467539 0 1 0 0.61566148304635926 0 0.78801074757464917 forward_v I I I I #
coedge $-1 $300 $301 $302 $303 reversed $114 $-1 #
coedge $-1 $187 $116 $304 $305 reversed $73 $-1 #
coedge $-1 $116 $186 $300 $306 reversed $73 $-1 #
coedge $-1 $302 $307 $116 $189 forward $308 $-1 #
edge $-1 $309 -29.370215255446428 $310 -23.401351997398113 $188 $311 forward 7 unknown #
loop $-1 $-1 $195 $117 #
plane-surface $-1 -25.162331836814474 -2.2696171576786952 57.042282344297575 0.61566148304635926 0 0.78801074757464917 0.78801074757464917 0 -0.61566148304635926 forward_v I I I I #
loop $-1 $-1 $312 $75 #
coedge $-1 $193 $193 $194 $313 reversed $118 $-1 #
coedge $-1 $194 $194 $193 $313 forward $120 $-1 #
coedge $-1 $195 $195 $121 $196 forward $190 $-1 #
edge $-1 $314 0 $314 6.2831853071796004 $195 $315 forward 7 unknown #
loop $-1 $-1 $202 $122 #
plane-surface $-1 -25.162331836814474 -2.2696171576786952 57.042282344297575 0.61566148304635926 0 0.78801074757464917 0.78801074757464917 0 -0.61566148304635926 forward_v I I I I #
loop $-1 $-1 $316 $78 #
coedge $-1 $200 $200 $201 $317 reversed $123 $-1 #
coedge $-1 $201 $201 $200 $317 forward $125 $-1 #
coedge $-1 $202 $202 $126 $203 forward $197 $-1 #
edge $-1 $318 0 $318 6.2831853071796004 $202 $319 forward 7 unknown #
loop $-1 $-1 $209 $127 #
plane-surface $-1 -25.162331836814474 -2.2696171576786952 57.042282344297575 0.61566148304635926 0 0.78801074757464917 0.78801074757464917 0 -0.61566148304635926 forward_v I I I I #
loop $-1 $-1 $320 $81 #
coedge $-1 $207 $207 $208 $321 reversed $128 $-1 #
coedge $-1 $208 $208 $207 $321 forward $130 $-1 #
coedge $-1 $209 $209 $131 $210 forward $204 $-1 #
edge $-1 $322 0 $322 6.2831853071796004 $209 $323 forward 7 unknown #
face $-1 $324 $325 $44 $-1 $326 reversed single #
loop $-1 $-1 $327 $132 #
plane-surface $-1 28.625516936233829 7.7522656591664756 125.88758790467539 0 1 0 0.61566148304635926 0 0.78801074757464917 forward_v I I I I #
coedge $-1 $328 $329 $330 $331 reversed $133 $-1 #
coedge $-1 $216 $135 $332 $333 reversed $85 $-1 #
coedge $-1 $135 $215 $328 $334 reversed $85 $-1 #
coedge $-1 $330 $335 $135 $218 forward $336 $-1 #
edge $-1 $337 -29.370215255446428 $338 -23.401351997398113 $217 $339 forward 7 unknown #
loop $-1 $-1 $224 $136 #
plane-surface $-1 -25.162331836814474 11.460591184360492 57.042282344297575 0.61566148304635926 0 0.78801074757464917 0.78801074757464917 0 -0.61566148304635926 forward_v I I I I #
loop $-1 $-1 $340 $87 #
coedge $-1 $222 $222 $223 $341 reversed $137 $-1 #
coedge $-1 $223 $223 $222 $341 forward $139 $-1 #
coedge $-1 $224 $224 $140 $225 forward $219 $-1 #
edge $-1 $342 0 $342 6.2831853071796004 $224 $343 forward 7 unknown #
loop $-1 $-1 $231 $141 #
plane-surface $-1 -25.162331836814474 11.460591184360492 57.042282344297575 0.61566148304635926 0 0.78801074757464917 0.78801074757464917 0 -0.61566148304635926 forward_v I I I I #
loop $-1 $-1 $344 $90 #
coedge $-1 $229 $229 $230 $345 reversed $142 $-1 #
coedge $-1 $230 $230 $229 $345 forward $144 $-1 #
coedge $-1 $231 $231 $145 $232 forward $226 $-1 #
edge $-1 $346 0 $346 6.2831853071796004 $231 $347 forward 7 unknown #
loop $-1 $-1 $238 $146 #
plane-surface $-1 -25.162331836814474 11.460591184360492 57.042282344297575 0.61566148304635926 0 0.78801074757464917 0.78801074757464917 0 -0.61566148304635926 forward_v I I I I #
loop $-1 $-1 $348 $93 #
coedge $-1 $236 $236 $237 $349 reversed $147 $-1 #
coedge $-1 $237 $237 $236 $349 forward $149 $-1 #
coedge $-1 $238 $238 $150 $239 forward $233 $-1 #
edge $-1 $350 0 $350 6.2831853071796004 $238 $351 forward 7 unknown #
face $-1 $352 $353 $36 $-1 $354 reversed single #
loop $-1 $-1 $355 $151 #
plane-surface $-1 -43.682973723563343 0 0 1 0 0 0 0 -1 forward_v I I I I #
coedge $-1 $356 $251 $357 $358 forward $152 $-1 #
coedge $-1 $359 $154 $356 $360 forward $97 $-1 #
coedge $-1 $154 $359 $361 $362 forward $97 $-1 #
coedge $-1 $254 $253 $154 $247 reversed $255 $-1 #
edge $-1 $363 -20.089608576612612 $364 20.089608576612612 $246 $365 forward 7 unknown #
coedge $-1 $156 $155 $366 $367 forward $61 $-1 #
coedge $-1 $368 $369 $155 $250 reversed $353 $-1 #
edge $-1 $257 -43.682973723563343 $370 43.682973723563343 $249 $371 forward 7 unknown #
coedge $-1 $243 $372 $156 $252 reversed $152 $-1 #
edge $-1 $373 -43.682973723563343 $256 43.682973723563343 $251 $374 forward 7 unknown #
coedge $-1 $246 $157 $372 $375 forward $255 $-1 #
coedge $-1 $157 $246 $368 $376 reversed $255 $-1 #
loop $-1 $-1 $253 $352 #
vertex $-1 $158 $377 #
vertex $-1 $158 $378 #
straight-curve $-1 43.682973723563343 0 7.9178207355250185 0 1 0 I I #
face $-1 $379 $380 $37 $-1 $381 reversed single #
loop $-1 $-1 $382 $159 #
plane-surface $-1 -43.682973723563343 0 0 1 0 0 0 0 -1 forward_v I I I I #
coedge $-1 $383 $268 $273 $384 reversed $160 $-1 #
coedge $-1 $385 $162 $386 $387 reversed $101 $-1 #
coedge $-1 $162 $385 $383 $388 forward $101 $-1 #
coedge $-1 $273 $272 $162 $266 forward $274 $-1 #
edge $-1 $389 -12.342547794976756 $390 -3.1515737682949556 $265 $391 forward 7 unknown #
coedge $-1 $164 $163 $382 $392 reversed $64 $-1 #
coedge $-1 $262 $393 $163 $269 reversed $160 $-1 #
edge $-1 $275 -43.682973723563343 $394 43.682973723563343 $268 $395 forward 7 unknown #
coedge $-1 $396 $397 $164 $271 forward $380 $-1 #
edge $-1 $276 -43.682973723563343 $398 43.682973723563343 $270 $399 forward 7 unknown #
coedge $-1 $265 $165 $397 $400 forward $274 $-1 #
coedge $-1 $165 $265 $262 $384 forward $274 $-1 #
loop $-1 $-1 $165 $379 #
vertex $-1 $166 $401 #
vertex $-1 $400 $402 #
straight-curve $-1 43.682973723563343 -7.7470607816358559 0.072982256042563698 0 -1 0 I I #
face $-1 $-1 $403 $38 $-1 $404 reversed single #
loop $-1 $-1 $405 $167 #
plane-surface $-1 0 20.089608576612612 0 0 -1 0 0 0 -1 forward_v I I I I #
coedge $-1 $406 $170 $172 $287 forward $105 $-1 #
coedge $-1 $170 $406 $405 $407 reversed $105 $-1 #
coedge $-1 $408 $173 $170 $284 forward $168 $-1 #
edge $-1 $290 5.0714147985884495 $409 11.702600784878925 $283 $410 forward 7 unknown #
coedge $-1 $411 $412 $171 $286 forward $403 $-1 #
edge $-1 $413 -23.280939490489928 $289 -16.384144007926007 $285 $414 forward 7 unknown #
edge $-1 $290 -8.2234856931205407 $413 1.2994784570086186e-014 $172 $415 forward 7 unknown #
coedge $-1 $173 $408 $411 $416 forward $168 $-1 #
vertex $-1 $286 $417 #
vertex $-1 $174 $418 #
straight-curve $-1 -58.47711159372021 13.458422590322137 7.9178207355250194 1 0 0 I I #
coedge $-1 $292 $292 $-1 $419 reversed $177 $-1 #
edge $-1 $420 0 $420 6.2831853071796004 $178 $421 forward 7 unknown #
vertex $-1 $181 $422 #
ellipse-curve $-1 -41.443558118062413 16.774015583467374 4.4694229942430637 -0.83867057594974714 0 0.54463902268945019 0.54463902268945019 0 0.83867057594974714 1 I I #
face $-1 $-1 $308 $40 $-1 $423 forward single #
loop $-1 $-1 $424 $182 #
plane-surface $-1 43.682973723563343 0 0 -1 0 0 0 0 1 forward_v I I I I #
coedge $-1 $425 $426 $427 $428 reversed $183 $-1 #
coedge $-1 $429 $185 $187 $306 forward $114 $-1 #
coedge $-1 $185 $429 $425 $430 forward $114 $-1 #
coedge $-1 $427 $188 $185 $303 forward $308 $-1 #
edge $-1 $310 -2.573516946354669 $431 4.8431341040333642 $302 $432 forward 7 unknown #
coedge $-1 $433 $434 $186 $305 forward $297 $-1 #
edge $-1 $435 -59.689360381088427 $309 -55.025973216812673 $304 $436 forward 7 unknown #
edge $-1 $310 79.79135119140382 $435 87.3659474471267 $187 $437 forward 7 unknown #
coedge $-1 $188 $427 $433 $438 forward $308 $-1 #
loop $-1 $-1 $427 $296 #
vertex $-1 $305 $439 #
vertex $-1 $189 $440 #
straight-curve $-1 14.312758468116915 1.4387083675153214 7.9178207355250194 -1 0 0 I I #
coedge $-1 $312 $312 $-1 $441 reversed $192 $-1 #
edge $-1 $442 0 $442 6.2831853071796004 $193 $443 forward 7 unknown #
vertex $-1 $196 $444 #
ellipse-curve $-1 40.698542094539178 -4.4946124727951045 5.5861271533871424 0.61566148304635926 0 0.78801074757464917 0.39400537378732459 0 -0.30783074152317963 1 I I #
coedge $-1 $316 $316 $-1 $445 reversed $199 $-1 #
edge $-1 $446 0 $446 6.2831853071796004 $200 $447 forward 7 unknown #
vertex $-1 $203 $448 #
ellipse-curve $-1 40.698542094539178 -2.2696171576786952 5.5861271533871424 0.61566148304635926 0 0.78801074757464917 0.39400537378732459 0 -0.30783074152317963 1 I I #
coedge $-1 $320 $320 $-1 $449 reversed $206 $-1 #
edge $-1 $450 0 $450 6.2831853071796004 $207 $451 forward 7 unknown #
vertex $-1 $210 $452 #
ellipse-curve $-1 40.698542094539178 -0.044621842562285963 5.5861271533871424 0.61566148304635926 0 0.78801074757464917 0.39400537378732459 0 -0.30783074152317963 1 I I #
face $-1 $-1 $336 $44 $-1 $453 forward single #
loop $-1 $-1 $454 $211 #
plane-surface $-1 43.682973723563343 0 0 -1 0 0 0 0 1 forward_v I I I I #
coedge $-1 $455 $456 $457 $458 reversed $212 $-1 #
coedge $-1 $459 $214 $216 $334 forward $133 $-1 #
coedge $-1 $214 $459 $455 $460 forward $133 $-1 #
coedge $-1 $457 $217 $214 $331 forward $336 $-1 #
edge $-1 $338 -9.4386211173742627 $461 -2.0219700669862295 $330 $462 forward 7 unknown #
coedge $-1 $463 $464 $215 $333 forward $325 $-1 #
edge $-1 $465 -59.689360381088427 $337 -55.025973216812673 $332 $466 forward 7 unknown #
edge $-1 $338 79.79135119140382 $465 87.3659474471267 $216 $467 forward 7 unknown #
coedge $-1 $217 $457 $463 $468 forward $336 $-1 #
loop $-1 $-1 $457 $324 #
vertex $-1 $333 $469 #
vertex $-1 $218 $470 #
straight-curve $-1 14.312758468116915 15.168916709554509 7.9178207355250194 -1 0 0 I I #
coedge $-1 $340 $340 $-1 $471 reversed $221 $-1 #
edge $-1 $472 0 $472 6.2831853071796004 $222 $473 forward 7 unknown #
vertex $-1 $225 $474 #
ellipse-curve $-1 40.698542094539178 9.2355958692440829 5.5861271533871424 0.61566148304635926 0 0.78801074757464917 0.39400537378732459 0 -0.30783074152317963 1 I I #
coedge $-1 $344 $344 $-1 $475 reversed $228 $-1 #
edge $-1 $476 0 $476 6.2831853071796004 $229 $477 forward 7 unknown #
vertex $-1 $232 $478 #
ellipse-curve $-1 40.698542094539178 11.460591184360492 5.5861271533871424 0.61566148304635926 0 0.78801074757464917 0.39400537378732459 0 -0.30783074152317963 1 I I #
coedge $-1 $348 $348 $-1 $479 reversed $235 $-1 #
edge $-1 $480 0 $480 6.2831853071796004 $236 $481 forward 7 unknown #
vertex $-1 $239 $482 #
ellipse-curve $-1 40.698542094539178 13.685586499476905 5.5861271533871424 0.61566148304635926 0 0.78801074757464917 0.39400537378732459 0 -0.30783074152317963 1 I I #
face $-1 $-1 $255 $36 $-1 $483 reversed single #
loop $-1 $-1 $368 $240 #
plane-surface $-1 0 20.089608576612612 0 0 -1 0 0 0 -1 forward_v I I I I #
coedge $-1 $484 $366 $369 $485 forward $241 $-1 #
coedge $-1 $372 $243 $244 $360 reversed $152 $-1 #
coedge $-1 $366 $484 $243 $358 reversed $241 $-1 #
edge $-1 $373 -7.9178207355250185 $486 7.9178207355250185 $357 $487 forward 7 unknown #
coedge $-1 $245 $244 $484 $488 forward $97 $-1 #
edge $-1 $364 -43.682973723563343 $486 43.682973723563343 $356 $489 forward 7 unknown #
coedge $-1 $369 $368 $245 $362 reversed $353 $-1 #
edge $-1 $490 -43.682973723563343 $363 43.682973723563343 $361 $491 forward 7 unknown #
vertex $-1 $247 $492 #
vertex $-1 $375 $493 #
straight-curve $-1 43.682973723563343 0 -7.9178207355250185 0 -1 0 I I #
coedge $-1 $355 $357 $248 $367 reversed $241 $-1 #
edge $-1 $370 -20.089608576612612 $373 20.089608576612612 $366 $494 forward 7 unknown #
coedge $-1 $361 $249 $254 $376 forward $353 $-1 #
coedge $-1 $249 $361 $355 $485 reversed $353 $-1 #
vertex $-1 $250 $495 #
straight-curve $-1 0 20.089608576612612 7.9178207355250185 -1 0 0 I I #
coedge $-1 $251 $356 $253 $375 reversed $152 $-1 #
vertex $-1 $367 $496 #
straight-curve $-1 0 -20.089608576612612 7.9178207355250185 1 0 0 I I #
edge $-1 $256 -7.9178207355250185 $364 7.9178207355250185 $253 $497 forward 7 unknown #
edge $-1 $257 -7.9178207355250185 $363 7.9178207355250185 $254 $498 forward 7 unknown #
point $-1 43.682973723563343 -20.089608576612612 7.9178207355250185 #
point $-1 43.682973723563343 20.089608576612612 7.9178207355250185 #
face $-1 $-1 $274 $37 $-1 $499 reversed single #
loop $-1 $-1 $270 $259 #
plane-surface $-1 0 -20.089608576612612 0 0 1 0 0 0 1 forward_v I I I I #
coedge $-1 $500 $501 $267 $392 forward $260 $-1 #
coedge $-1 $393 $262 $264 $388 reversed $160 $-1 #
edge $-1 $390 -3.2995556691083938 $275 1.1485067270645071 $273 $502 forward 7 unknown #
coedge $-1 $264 $263 $503 $504 reversed $101 $-1 #
coedge $-1 $397 $396 $263 $387 forward $380 $-1 #
edge $-1 $505 -43.682973723563343 $389 43.682973723563343 $386 $506 forward 7 unknown #
edge $-1 $507 -43.682973723563343 $390 43.682973723563343 $383 $508 forward 7 unknown #
vertex $-1 $387 $509 #
vertex $-1 $266 $510 #
straight-curve $-1 43.682973723563343 -7.7470607816358559 -4.3750801401303372 0 1 0 I I #
edge $-1 $398 -12.342547794976756 $394 -3.1515737682949556 $382 $511 forward 7 unknown #
coedge $-1 $268 $383 $500 $512 reversed $160 $-1 #
vertex $-1 $392 $513 #
straight-curve $-1 0 -10.898634549930811 0.072982256042563698 -1 0 0 I I #
coedge $-1 $386 $270 $501 $514 forward $380 $-1 #
coedge $-1 $270 $386 $272 $400 reversed $380 $-1 #
vertex $-1 $514 $515 #
straight-curve $-1 0 -20.089608576612612 0.072982256042563698 -1 0 0 I I #
edge $-1 $276 -0.072982256042563698 $389 4.3750801401303372 $272 $516 forward 7 unknown #
point $-1 43.682973723563343 -10.898634549930811 0.072982256042563698 #
point $-1 43.682973723563343 -20.089608576612612 0.072982256042563698 #
loop $-1 $-1 $285 $278 #
plane-surface $-1 -43.682973723563343 0 0 1 0 0 0 0 -1 forward_v I I I I #
coedge $-1 $517 $518 $282 $407 forward $279 $-1 #
coedge $-1 $282 $281 $412 $519 reversed $105 $-1 #
edge $-1 $409 3.2440884468846294 $520 11.467574140005183 $405 $521 forward 7 unknown #
coedge $-1 $288 $283 $518 $522 forward $168 $-1 #
vertex $-1 $522 $523 #
straight-curve $-1 -39.204142512561489 8.3870077917336872 7.9178207355250185 0 1 0 I I #
coedge $-1 $524 $285 $288 $416 reversed $403 $-1 #
coedge $-1 $285 $524 $406 $519 forward $403 $-1 #
vertex $-1 $286 $525 #
straight-curve $-1 -43.682973723563343 13.458422590322137 24.301964743451027 0 0 1 I I #
straight-curve $-1 -43.682973723563336 13.458422590322137 1.0210252529611097 -0.54463902268945019 0 -0.83867057594974714 I I #
edge $-1 $526 -20.089608576612612 $289 -13.458422590322137 $411 $527 forward 7 unknown #
point $-1 -43.682973723563343 13.458422590322137 7.9178207355250185 #
point $-1 -39.204142512561489 13.458422590322137 7.9178207355250194 #
edge $-1 $528 1 $528 0 $292 $-1 forward 7 unknown #
vertex $-1 $293 $529 #
ellipse-curve $-1 -39.506709505316508 16.774015583467374 3.2116188387213889 -0.83867057594974714 0 0.54463902268945019 0.54463902268945019 0 0.83867057594974714 1 I I #
point $-1 -40.898919095372968 16.774015583467374 5.3080935701928116 #
plane-surface $-1 0 0 7.9178207355250185 0 0 1 1 0 0 forward_v I I I I #
coedge $-1 $434 $433 $426 $530 forward $297 $-1 #
coedge $-1 $426 $299 $301 $430 reversed $183 $-1 #
coedge $-1 $299 $425 $424 $530 reversed $183 $-1 #
coedge $-1 $307 $302 $299 $428 forward $308 $-1 #
edge $-1 $431 23.401351997398113 $531 29.370215255446428 $427 $532 forward 7 unknown #
coedge $-1 $301 $300 $434 $533 reversed $114 $-1 #
edge $-1 $534 -87.3659474471267 $431 -79.79135119140382 $425 $535 forward 7 unknown #
vertex $-1 $303 $536 #
straight-curve $-1 37.71411046551502 -1.1348085788393476 7.9178207355250123 0 -1 0 I I #
coedge $-1 $424 $304 $307 $438 reversed $297 $-1 #
coedge $-1 $304 $424 $429 $533 forward $297 $-1 #
vertex $-1 $305 $537 #
straight-curve $-1 43.682973723563343 1.4387083675153214 62.943793952337693 0 0 1 I I #
straight-curve $-1 -25.162331836814474 1.4387083675153214 57.042282344297575 0.78801074757464917 0 -0.61566148304635926 I I #
edge $-1 $531 -5.9779426828727118 $309 1.4387083675153214 $433 $538 forward 7 unknown #
point $-1 43.682973723563343 1.4387083675153214 7.9178207355250185 #
point $-1 37.714110465515027 1.4387083675153214 7.9178207355250123 #
edge $-1 $539 1 $539 0 $312 $-1 forward 7 unknown #
vertex $-1 $313 $540 #
ellipse-curve $-1 40.082880611492811 -4.4946124727951045 4.7981164058124879 0.61566148304635926 0 0.78801074757464917 0.39400537378732459 0 -0.30783074152317963 1 I I #
point $-1 41.092547468326494 -4.4946124727951045 5.2782964118639573 #
edge $-1 $541 1 $541 0 $316 $-1 forward 7 unknown #
vertex $-1 $317 $542 #
ellipse-curve $-1 40.082880611492811 -2.2696171576786952 4.7981164058124879 0.61566148304635926 0 0.78801074757464917 0.39400537378732459 0 -0.30783074152317963 1 I I #
point $-1 41.092547468326494 -2.2696171576786952 5.2782964118639573 #
edge $-1 $543 1 $543 0 $320 $-1 forward 7 unknown #
vertex $-1 $321 $544 #
ellipse-curve $-1 40.082880611492811 -0.044621842562285963 4.7981164058124879 0.61566148304635926 0 0.78801074757464917 0.39400537378732459 0 -0.30783074152317963 1 I I #
point $-1 41.092547468326494 -0.044621842562285963 5.2782964118639573 #
plane-surface $-1 0 0 7.9178207355250185 0 0 1 1 0 0 forward_v I I I I #
coedge $-1 $464 $463 $456 $545 forward $325 $-1 #
coedge $-1 $456 $327 $329 $460 reversed $212 $-1 #
coedge $-1 $327 $455 $454 $545 reversed $212 $-1 #
coedge $-1 $335 $330 $327 $458 forward $336 $-1 #
edge $-1 $461 23.401351997398113 $546 29.370215255446428 $457 $547 forward 7 unknown #
coedge $-1 $329 $328 $464 $548 reversed $133 $-1 #
edge $-1 $549 -87.3659474471267 $461 -79.79135119140382 $455 $550 forward 7 unknown #
vertex $-1 $331 $551 #
straight-curve $-1 37.71411046551502 5.7302955921802461 7.9178207355250123 0 -1 0 I I #
coedge $-1 $454 $332 $335 $468 reversed $325 $-1 #
coedge $-1 $332 $454 $459 $548 forward $325 $-1 #
vertex $-1 $333 $552 #
straight-curve $-1 43.682973723563343 15.168916709554509 62.943793952337693 0 0 1 I I #
straight-curve $-1 -25.162331836814474 15.168916709554509 57.042282344297575 0.78801074757464917 0 -0.61566148304635926 I I #
edge $-1 $546 7.7522656591664756 $337 15.168916709554509 $463 $553 forward 7 unknown #
point $-1 43.682973723563343 15.168916709554509 7.9178207355250185 #
point $-1 37.714110465515027 15.168916709554509 7.9178207355250123 #
edge $-1 $554 1 $554 0 $340 $-1 forward 7 unknown #
vertex $-1 $341 $555 #
ellipse-curve $-1 40.082880611492811 9.2355958692440829 4.7981164058124879 0.61566148304635926 0 0.78801074757464917 0.39400537378732459 0 -0.30783074152317963 1 I I #
point $-1 41.092547468326494 9.2355958692440829 5.2782964118639573 #
edge $-1 $556 1 $556 0 $344 $-1 forward 7 unknown #
vertex $-1 $345 $557 #
ellipse-curve $-1 40.082880611492811 11.460591184360492 4.7981164058124879 0.61566148304635926 0 0.78801074757464917 0.39400537378732459 0 -0.30783074152317963 1 I I #
point $-1 41.092547468326494 11.460591184360492 5.2782964118639573 #
edge $-1 $558 1 $558 0 $348 $-1 forward 7 unknown #
vertex $-1 $349 $559 #
ellipse-curve $-1 40.082880611492811 13.685586499476905 4.7981164058124879 0.61566148304635926 0 0.78801074757464917 0.39400537378732459 0 -0.30783074152317963 1 I I #
point $-1 41.092547468326494 13.685586499476905 5.2782964118639573 #
plane-surface $-1 43.682973723563343 0 0 -1 0 0 0 0 1 forward_v I I I I #
coedge $-1 $357 $355 $359 $488 reversed $241 $-1 #
edge $-1 $370 -7.9178207355250185 $490 7.9178207355250185 $369 $560 forward 7 unknown #
vertex $-1 $488 $561 #
straight-curve $-1 -43.682973723563343 -20.089608576612612 0 0 0 -1 I I #
edge $-1 $486 -20.089608576612612 $490 20.089608576612612 $484 $562 forward 7 unknown #
straight-curve $-1 0 -20.089608576612612 -7.9178207355250185 -1 0 0 I I #
vertex $-1 $362 $563 #
straight-curve $-1 0 20.089608576612612 -7.9178207355250185 1 0 0 I I #
point $-1 43.682973723563343 20.089608576612612 -7.9178207355250185 #
point $-1 43.682973723563343 -20.089608576612612 -7.9178207355250185 #
straight-curve $-1 -43.682973723563343 0 7.9178207355250185 0 -1 0 I I #
point $-1 -43.682973723563343 20.089608576612612 7.9178207355250185 #
point $-1 -43.682973723563343 -20.089608576612612 7.9178207355250185 #
straight-curve $-1 43.682973723563343 -20.089608576612612 0 0 0 -1 I I #
straight-curve $-1 43.682973723563343 20.089608576612612 0 0 0 -1 I I #
plane-surface $-1 43.682973723563343 0 0 -1 0 0 0 0 1 forward_v I I I I #
coedge $-1 $503 $382 $393 $512 forward $260 $-1 #
coedge $-1 $382 $503 $396 $514 reversed $260 $-1 #
straight-curve $-1 43.682973723563343 -10.898634549930811 -1.0755244710219434 0 0 1 I I #
coedge $-1 $501 $500 $385 $504 forward $260 $-1 #
edge $-1 $507 3.1515737682949556 $505 12.342547794976756 $503 $564 forward 7 unknown #
vertex $-1 $387 $565 #
straight-curve $-1 0 -20.089608576612612 -4.3750801401303372 1 0 0 I I #
vertex $-1 $504 $566 #
straight-curve $-1 0 -10.898634549930811 -4.3750801401303372 1 0 0 I I #
point $-1 43.682973723563343 -20.089608576612612 -4.3750801401303372 #
point $-1 43.682973723563343 -10.898634549930811 -4.3750801401303372 #
straight-curve $-1 -43.682973723563343 -7.7470607816358559 0.072982256042563698 0 1 0 I I #
edge $-1 $394 -1.1485067270645071 $507 3.2995556691083938 $500 $567 forward 7 unknown #
point $-1 -43.682973723563343 -10.898634549930811 0.072982256042563698 #
edge $-1 $398 -0.072982256042563698 $505 4.3750801401303372 $501 $568 forward 7 unknown #
point $-1 -43.682973723563343 -20.089608576612612 0.072982256042563698 #
straight-curve $-1 43.682973723563343 -20.089608576612612 0 0 0 -1 I I #
coedge $-1 $518 $405 $524 $569 reversed $279 $-1 #
coedge $-1 $405 $517 $408 $522 reversed $279 $-1 #
edge $-1 $520 -11.702600784878925 $413 -5.0714147985884495 $412 $570 forward 7 unknown #
vertex $-1 $407 $571 #
straight-curve $-1 -37.437285351332108 20.089608576612612 10.638542261705672 -0.54463902268945019 0 -0.83867057594974714 I I #
edge $-1 $409 39.204142512561489 $526 43.682973723563343 $518 $572 forward 7 unknown #
point $-1 -39.204142512561489 20.089608576612612 7.9178207355250194 #
coedge $-1 $412 $411 $517 $569 forward $403 $-1 #
point $-1 -43.682973723563343 13.458422590322137 1.0210252529610988 #
vertex $-1 $522 $573 #
straight-curve $-1 -43.682973723563343 0 7.9178207355250185 0 -1 0 I I #
vertex $-1 $419 $574 #
point $-1 -38.962070482627055 16.774015583467374 4.0502894146711359 #
edge $-1 $531 55.025973216812673 $534 59.689360381088427 $424 $575 forward 7 unknown #
vertex $-1 $438 $576 #
straight-curve $-1 14.312758468116915 -5.9779426828727118 7.9178207355250194 1 0 0 I I #
edge $-1 $534 -4.8431341040333642 $435 2.573516946354669 $434 $577 forward 7 unknown #
vertex $-1 $533 $578 #
straight-curve $-1 -25.162331836814474 -5.9779426828727118 57.042282344297575 -0.78801074757464917 0 0.61566148304635926 I I #
point $-1 37.714110465515027 -5.9779426828727118 7.9178207355250123 #
point $-1 43.68297372356335 1.4387083675153214 3.2544335712492654 #
straight-curve $-1 43.682973723563343 0 7.9178207355250185 0 1 0 I I #
vertex $-1 $441 $579 #
point $-1 40.476885985280134 -4.4946124727951045 4.4902856642893081 #
vertex $-1 $445 $580 #
point $-1 40.476885985280134 -2.2696171576786952 4.4902856642893081 #
vertex $-1 $449 $581 #
point $-1 40.476885985280134 -0.044621842562285963 4.4902856642893081 #
edge $-1 $546 55.025973216812673 $549 59.689360381088427 $454 $582 forward 7 unknown #
vertex $-1 $468 $583 #
straight-curve $-1 14.312758468116915 7.7522656591664756 7.9178207355250194 1 0 0 I I #
edge $-1 $549 2.0219700669862295 $465 9.4386211173742627 $464 $584 forward 7 unknown #
vertex $-1 $548 $585 #
straight-curve $-1 -25.162331836814474 7.7522656591664756 57.042282344297575 -0.78801074757464917 0 0.61566148304635926 I I #
point $-1 37.714110465515027 7.7522656591664756 7.9178207355250123 #
point $-1 43.68297372356335 15.168916709554509 3.2544335712492654 #
straight-curve $-1 43.682973723563343 0 7.9178207355250185 0 1 0 I I #
vertex $-1 $471 $586 #
point $-1 40.476885985280134 9.2355958692440829 4.4902856642893081 #
vertex $-1 $475 $587 #
point $-1 40.476885985280134 11.460591184360492 4.4902856642893081 #
vertex $-1 $479 $588 #
point $-1 40.476885985280134 13.685586499476905 4.4902856642893081 #
straight-curve $-1 -43.682973723563343 20.089608576612612 0 0 0 -1 I I #
point $-1 -43.682973723563343 -20.089608576612612 -7.9178207355250185 #
straight-curve $-1 -43.682973723563343 0 -7.9178207355250185 0 1 0 I I #
point $-1 -43.682973723563343 20.089608576612612 -7.9178207355250185 #
straight-curve $-1 -43.682973723563343 -7.7470607816358559 -4.3750801401303372 0 -1 0 I I #
point $-1 -43.682973723563343 -20.089608576612612 -4.3750801401303372 #
point $-1 -43.682973723563343 -10.898634549930811 -4.3750801401303372 #
straight-curve $-1 -43.682973723563343 -10.898634549930811 -1.0755244710219434 0 0 -1 I I #
straight-curve $-1 -43.682973723563343 -20.089608576612612 0 0 0 -1 I I #
edge $-1 $526 -7.9178207355250185 $520 -1.0210252529610988 $517 $589 forward 7 unknown #
straight-curve $-1 -43.682973723563343 8.3870077917336872 1.0210252529610977 0 -1 0 I I #
point $-1 -43.682973723563343 20.089608576612612 1.0210252529610988 #
straight-curve $-1 0 20.089608576612612 7.9178207355250185 -1 0 0 I I #
point $-1 -43.682973723563343 20.089608576612612 7.9178207355250185 #
point $-1 -38.668038929366759 16.774015583467374 2.6669798160319385 #
straight-curve $-1 43.682973723563343 -5.9779426828727118 62.943793952337693 0 0 -1 I I #
point $-1 43.682973723563343 -5.9779426828727118 7.9178207355250185 #
straight-curve $-1 43.68297372356335 -1.1348085788393476 3.2544335712492654 0 1 0 I I #
point $-1 43.68297372356335 -5.9779426828727118 3.2544335712492654 #
point $-1 39.775049869969635 -4.4946124727951045 4.4041110320251633 #
point $-1 39.775049869969635 -2.2696171576786952 4.4041110320251633 #
point $-1 39.775049869969635 -0.044621842562285963 4.4041110320251633 #
straight-curve $-1 43.682973723563343 7.7522656591664756 62.943793952337693 0 0 -1 I I #
point $-1 43.682973723563343 7.7522656591664756 7.9178207355250185 #
straight-curve $-1 43.68297372356335 5.7302955921802461 3.2544335712492654 0 1 0 I I #
point $-1 43.68297372356335 7.7522656591664756 3.2544335712492654 #
point $-1 39.775049869969635 9.2355958692440829 4.4041110320251633 #
point $-1 39.775049869969635 11.460591184360492 4.4041110320251633 #
point $-1 39.775049869969635 13.685586499476905 4.4041110320251633 #
straight-curve $-1 -43.682973723563343 20.089608576612612 0 0 0 -1 I I #
End-of-ACIS-data 