500 0 10 0           
7 Unknown 11 ACIS 5.0 NT 24 Thu Mar 25 22:00:42 1999 
-1 9.9999999999999995e-007 1e-010 
body $-1 $10 $-1 $11 #
body $-1 $12 $-1 $13 #
body $-1 $14 $-1 $15 #
body $-1 $16 $-1 $17 #
body $-1 $18 $-1 $19 #
body $-1 $20 $-1 $21 #
body $-1 $22 $-1 $23 #
body $-1 $24 $-1 $25 #
body $-1 $26 $-1 $27 #
body $-1 $28 $-1 $29 #
lump $-1 $-1 $30 $0 #
transform $-1 1 0 0 0 1 0 0 0 1 46.622516556291387 28.647656127944906 13.647919285246472 1 rotate no_reflect no_shear #
lump $-1 $-1 $31 $1 #
transform $-1 1 0 0 0 1 0 0 0 1 46.622516556291387 28.647656127944906 13.647919285246472 1 rotate no_reflect no_shear #
lump $-1 $-1 $32 $2 #
transform $-1 1 0 0 0 1 0 0 0 1 46.622516556291387 28.647656127944906 13.647919285246472 1 rotate no_reflect no_shear #
lump $-1 $-1 $33 $3 #
transform $-1 1 0 0 0 1 0 0 0 1 46.622516556291387 28.647656127944906 13.647919285246472 1 rotate no_reflect no_shear #
lump $-1 $-1 $34 $4 #
transform $-1 1 0 0 0 1 0 0 0 1 46.622516556291387 28.647656127944906 13.647919285246472 1 rotate no_reflect no_shear #
lump $-1 $-1 $35 $5 #
transform $-1 1 0 0 0 1 0 0 0 1 46.622516556291387 28.647656127944906 13.647919285246472 1 rotate no_reflect no_shear #
lump $-1 $-1 $36 $6 #
transform $-1 1 0 0 0 1 0 0 0 1 46.622516556291387 28.647656127944906 13.647919285246472 1 rotate no_reflect no_shear #
lump $-1 $-1 $37 $7 #
transform $-1 1 0 0 0 1 0 0 0 1 46.622516556291387 28.647656127944906 13.647919285246472 1 rotate no_reflect no_shear #
lump $-1 $-1 $38 $8 #
transform $-1 1 0 0 0 1 0 0 0 1 46.622516556291387 28.647656127944906 13.647919285246472 1 rotate no_reflect no_shear #
lump $-1 $-1 $39 $9 #
transform $-1 1 0 0 0 1 0 0 0 1 46.622516556291387 28.647656127944906 13.647919285246472 1 rotate no_reflect no_shear #
shell $-1 $-1 $-1 $40 $-1 $10 #
shell $-1 $-1 $-1 $41 $-1 $12 #
shell $-1 $-1 $-1 $42 $-1 $14 #
shell $-1 $-1 $-1 $43 $-1 $16 #
shell $-1 $-1 $-1 $44 $-1 $18 #
shell $-1 $-1 $-1 $45 $-1 $20 #
shell $-1 $-1 $-1 $46 $-1 $22 #
shell $-1 $-1 $-1 $47 $-1 $24 #
shell $-1 $-1 $-1 $48 $-1 $26 #
shell $-1 $-1 $-1 $49 $-1 $28 #
face $-1 $50 $51 $30 $-1 $52 forward single #
face $-1 $53 $54 $31 $-1 $55 reversed single #
face $-1 $56 $57 $32 $-1 $58 reversed single #
face $-1 $59 $60 $33 $-1 $61 forward single #
face $-1 $62 $63 $34 $-1 $64 forward single #
face $-1 $65 $66 $35 $-1 $67 forward single #
face $-1 $68 $69 $36 $-1 $70 reversed single #
face $-1 $71 $72 $37 $-1 $73 forward single #
face $-1 $74 $75 $38 $-1 $76 forward single #
face $-1 $77 $78 $39 $-1 $79 forward single #
face $-1 $80 $81 $30 $-1 $82 reversed single #
loop $-1 $-1 $83 $40 #
plane-surface $-1 0 0 13.647919285246472 0 0 1 1 0 0 forward_v I I I I #
face $-1 $84 $85 $31 $-1 $86 reversed single #
loop $-1 $-1 $87 $41 #
plane-surface $-1 -44.99132217484631 -14.421340297556972 0 0 -1 0 0 0 -1 forward_v I I I I #
face $-1 $88 $89 $32 $-1 $90 reversed single #
loop $-1 $-1 $91 $42 #
plane-surface $-1 44.321097305678919 3.653242998537868 141.06640761584526 0 -1 0 -0.69465837861970381 0 -0.71933979245794832 forward_v I I I I #
face $-1 $92 $93 $33 $-1 $94 forward single #
loop $-1 $95 $96 $43 #
cone-surface $-1 43.704467038147456 -5.1005972653135245 10.786379442893157 -0.69465837861970381 0 -0.71933979245794832 0.35966989622897416 0 -0.3473291893098519 1 I I 0 1 0.5 forward I I I I #
face $-1 $97 $98 $34 $-1 $99 forward single #
loop $-1 $100 $101 $44 #
cone-surface $-1 43.704467038147456 -1.8179071663692525 10.786379442893157 -0.69465837861970381 0 -0.71933979245794832 0.35966989622897416 0 -0.3473291893098519 1 I I 0 1 0.5 forward I I I I #
face $-1 $102 $103 $35 $-1 $104 forward single #
loop $-1 $105 $106 $45 #
cone-surface $-1 43.704467038147456 1.4647829325750195 10.786379442893157 -0.69465837861970381 0 -0.71933979245794832 0.35966989622897416 0 -0.3473291893098519 1 I I 0 1 0.5 forward I I I I #
face $-1 $107 $108 $36 $-1 $109 reversed single #
loop $-1 $-1 $110 $46 #
plane-surface $-1 -123.00437680869736 20.200372627023643 61.039090679588384 0 1 0 -0.81915205242281985 0 0.57357642473473569 forward_v I I I I #
face $-1 $111 $112 $37 $-1 $113 forward single #
loop $-1 $114 $115 $47 #
cone-surface $-1 -44.080114972078384 21.889829327207899 10.315140411556428 0.81915205242281985 0 -0.57357642473473569 0.28678821236736785 0 0.40957602621140993 1 I I 0 1 0.5 forward I I I I #
face $-1 $116 $117 $38 $-1 $118 forward single #
loop $-1 $119 $120 $48 #
cone-surface $-1 -44.080114972078384 24.424014377484276 10.315140411556428 0.81915205242281985 0 -0.57357642473473569 0.28678821236736785 0 0.40957602621140993 1 I I 0 1 0.5 forward I I I I #
face $-1 $121 $122 $39 $-1 $123 forward single #
loop $-1 $124 $125 $49 #
cone-surface $-1 -44.080114972078384 26.958199427760654 10.315140411556428 0.81915205242281985 0 -0.57357642473473569 0.28678821236736785 0 0.40957602621140993 1 I I 0 1 0.5 forward I I I I #
face $-1 $126 $127 $30 $-1 $128 reversed single #
loop $-1 $-1 $129 $50 #
plane-surface $-1 0 0 -13.647919285246472 0 0 1 1 0 0 forward_v I I I I #
coedge $-1 $130 $131 $132 $133 forward $51 $-1 #
face $-1 $134 $135 $31 $-1 $136 forward single #
loop $-1 $-1 $137 $53 #
plane-surface $-1 -43.360127793401233 -21.53449821275094 0 -1 0 0 0 0 1 forward_v I I I I #
coedge $-1 $138 $139 $140 $141 forward $54 $-1 #
face $-1 $142 $143 $32 $-1 $144 reversed single #
loop $-1 $-1 $145 $56 #
plane-surface $-1 -20.452346210648429 -1.8179071663692525 73.991544848905448 0.69465837861970381 0 0.71933979245794832 0.71933979245794832 0 -0.69465837861970381 forward_v I I I I #
coedge $-1 $146 $147 $148 $149 reversed $57 $-1 #
face $-1 $-1 $150 $33 $-1 $151 forward single #
loop $-1 $152 $153 $59 #
cone-surface $-1 42.906358260557155 -5.1005972653135245 9.9599136287595389 -0.69465837861970381 0 -0.71933979245794832 0.17983494811448708 0 -0.17366459465492595 1 I I -0.70710678118654746 0.70710678118654746 0.25 forward I I I I #
loop $-1 $-1 $154 $43 #
coedge $-1 $96 $96 $155 $156 reversed $60 $-1 #
face $-1 $-1 $157 $34 $-1 $158 forward single #
loop $-1 $159 $160 $62 #
cone-surface $-1 42.906358260557155 -1.8179071663692525 9.9599136287595389 -0.69465837861970381 0 -0.71933979245794832 0.17983494811448708 0 -0.17366459465492595 1 I I -0.70710678118654746 0.70710678118654746 0.25 forward I I I I #
loop $-1 $-1 $161 $44 #
coedge $-1 $101 $101 $162 $163 reversed $63 $-1 #
face $-1 $-1 $164 $35 $-1 $165 forward single #
loop $-1 $166 $167 $65 #
cone-surface $-1 42.906358260557155 1.4647829325750195 9.9599136287595389 -0.69465837861970381 0 -0.71933979245794832 0.17983494811448708 0 -0.17366459465492595 1 I I -0.70710678118654746 0.70710678118654746 0.25 forward I I I I #
loop $-1 $-1 $168 $45 #
coedge $-1 $106 $106 $169 $170 reversed $66 $-1 #
face $-1 $171 $172 $36 $-1 $173 reversed single #
loop $-1 $-1 $174 $68 #
plane-surface $-1 -46.622516556291387 24.424014377484276 7.5559379626011136 -0.81915205242281985 0 0.57357642473473569 0.57357642473473569 0 0.81915205242281985 forward_v I I I I #
coedge $-1 $175 $176 $177 $178 reversed $69 $-1 #
face $-1 $-1 $179 $37 $-1 $180 forward single #
loop $-1 $181 $182 $71 #
cone-surface $-1 -43.465750932761267 21.889829327207899 9.8849580930053751 0.81915205242281985 0 -0.57357642473473569 0.14339410618368392 0 0.20478801310570496 1 I I -0.70710678118654746 0.70710678118654746 0.25 forward I I I I #
loop $-1 $-1 $183 $47 #
coedge $-1 $115 $115 $184 $185 reversed $72 $-1 #
face $-1 $-1 $186 $38 $-1 $187 forward single #
loop $-1 $188 $189 $74 #
cone-surface $-1 -43.465750932761267 24.424014377484276 9.8849580930053751 0.81915205242281985 0 -0.57357642473473569 0.14339410618368392 0 0.20478801310570496 1 I I -0.70710678118654746 0.70710678118654746 0.25 forward I I I I #
loop $-1 $-1 $190 $48 #
coedge $-1 $120 $120 $191 $192 reversed $75 $-1 #
face $-1 $-1 $193 $39 $-1 $194 forward single #
loop $-1 $195 $196 $77 #
cone-surface $-1 -43.465750932761267 26.958199427760654 9.8849580930053751 0.81915205242281985 0 -0.57357642473473569 0.14339410618368392 0 0.20478801310570496 1 I I -0.70710678118654746 0.70710678118654746 0.25 forward I I I I #
loop $-1 $-1 $197 $49 #
coedge $-1 $125 $125 $198 $199 reversed $78 $-1 #
face $-1 $200 $201 $30 $-1 $202 reversed single #
loop $-1 $-1 $203 $80 #
plane-surface $-1 0 -28.647656127944906 0 0 1 0 0 0 1 forward_v I I I I #
coedge $-1 $204 $205 $206 $207 forward $81 $-1 #
coedge $-1 $208 $83 $209 $210 forward $51 $-1 #
coedge $-1 $83 $208 $211 $212 forward $51 $-1 #
coedge $-1 $213 $214 $83 $133 reversed $215 $-1 #
edge $-1 $216 -28.647656127944906 $217 28.647656127944906 $132 $218 forward 7 unknown #
face $-1 $219 $220 $31 $-1 $221 reversed single #
loop $-1 $-1 $222 $84 #
plane-surface $-1 0 0 13.647919285246472 0 0 1 1 0 0 forward_v I I I I #
coedge $-1 $223 $224 $225 $226 reversed $85 $-1 #
coedge $-1 $227 $87 $228 $229 reversed $54 $-1 #
coedge $-1 $87 $227 $230 $231 reversed $54 $-1 #
coedge $-1 $224 $223 $87 $141 reversed $85 $-1 #
edge $-1 $232 -13.647919285246472 $233 13.647919285246472 $140 $234 forward 7 unknown #
face $-1 $235 $236 $32 $-1 $237 reversed single #
loop $-1 $-1 $238 $88 #
plane-surface $-1 44.321097305678919 -7.2890573312763731 141.06640761584526 0 1 0 0.69465837861970381 0 0.71933979245794832 forward_v I I I I #
coedge $-1 $239 $240 $241 $242 reversed $89 $-1 #
coedge $-1 $147 $91 $243 $244 reversed $57 $-1 #
coedge $-1 $91 $146 $239 $245 reversed $57 $-1 #
coedge $-1 $241 $246 $91 $149 forward $247 $-1 #
edge $-1 $248 -24.461967903451928 $249 -19.874757233034813 $148 $250 forward 7 unknown #
loop $-1 $-1 $155 $92 #
plane-surface $-1 -20.452346210648429 -1.8179071663692525 73.991544848905448 0.69465837861970381 0 0.71933979245794832 0.71933979245794832 0 -0.69465837861970381 forward_v I I I I #
loop $-1 $-1 $251 $59 #
coedge $-1 $153 $153 $154 $252 reversed $93 $-1 #
coedge $-1 $154 $154 $153 $252 forward $95 $-1 #
coedge $-1 $155 $155 $96 $156 forward $150 $-1 #
edge $-1 $253 0 $253 6.2831853071796004 $155 $254 forward 7 unknown #
loop $-1 $-1 $162 $97 #
plane-surface $-1 -20.452346210648429 -1.8179071663692525 73.991544848905448 0.69465837861970381 0 0.71933979245794832 0.71933979245794832 0 -0.69465837861970381 forward_v I I I I #
loop $-1 $-1 $255 $62 #
coedge $-1 $160 $160 $161 $256 reversed $98 $-1 #
coedge $-1 $161 $161 $160 $256 forward $100 $-1 #
coedge $-1 $162 $162 $101 $163 forward $157 $-1 #
edge $-1 $257 0 $257 6.2831853071796004 $162 $258 forward 7 unknown #
loop $-1 $-1 $169 $102 #
plane-surface $-1 -20.452346210648429 -1.8179071663692525 73.991544848905448 0.69465837861970381 0 0.71933979245794832 0.71933979245794832 0 -0.69465837861970381 forward_v I I I I #
loop $-1 $-1 $259 $65 #
coedge $-1 $167 $167 $168 $260 reversed $103 $-1 #
coedge $-1 $168 $168 $167 $260 forward $105 $-1 #
coedge $-1 $169 $169 $106 $170 forward $164 $-1 #
edge $-1 $261 0 $261 6.2831853071796004 $169 $262 forward 7 unknown #
face $-1 $263 $264 $36 $-1 $265 reversed single #
loop $-1 $-1 $266 $107 #
plane-surface $-1 0 28.647656127944906 0 0 -1 0 0 0 -1 forward_v I I I I #
coedge $-1 $267 $268 $269 $270 reversed $108 $-1 #
coedge $-1 $176 $110 $271 $272 reversed $69 $-1 #
coedge $-1 $110 $175 $267 $273 reversed $69 $-1 #
coedge $-1 $269 $274 $110 $178 forward $275 $-1 #
edge $-1 $276 14.879671848057292 $277 19.14532296406049 $177 $278 forward 7 unknown #
loop $-1 $-1 $184 $111 #
plane-surface $-1 -46.622516556291387 24.424014377484276 7.5559379626011136 -0.81915205242281985 0 0.57357642473473569 0.57357642473473569 0 0.81915205242281985 forward_v I I I I #
loop $-1 $-1 $279 $71 #
coedge $-1 $182 $182 $183 $280 reversed $112 $-1 #
coedge $-1 $183 $183 $182 $280 forward $114 $-1 #
coedge $-1 $184 $184 $115 $185 forward $179 $-1 #
edge $-1 $281 0 $281 6.2831853071796004 $184 $282 forward 7 unknown #
loop $-1 $-1 $191 $116 #
plane-surface $-1 -46.622516556291387 24.424014377484276 7.5559379626011136 -0.81915205242281985 0 0.57357642473473569 0.57357642473473569 0 0.81915205242281985 forward_v I I I I #
loop $-1 $-1 $283 $74 #
coedge $-1 $189 $189 $190 $284 reversed $117 $-1 #
coedge $-1 $190 $190 $189 $284 forward $119 $-1 #
coedge $-1 $191 $191 $120 $192 forward $186 $-1 #
edge $-1 $285 0 $285 6.2831853071796004 $191 $286 forward 7 unknown #
loop $-1 $-1 $198 $121 #
plane-surface $-1 -46.622516556291387 24.424014377484276 7.5559379626011136 -0.81915205242281985 0 0.57357642473473569 0.57357642473473569 0 0.81915205242281985 forward_v I I I I #
loop $-1 $-1 $287 $77 #
coedge $-1 $196 $196 $197 $288 reversed $122 $-1 #
coedge $-1 $197 $197 $196 $288 forward $124 $-1 #
coedge $-1 $198 $198 $125 $199 forward $193 $-1 #
edge $-1 $289 0 $289 6.2831853071796004 $198 $290 forward 7 unknown #
face $-1 $291 $292 $30 $-1 $293 reversed single #
loop $-1 $-1 $294 $126 #
plane-surface $-1 -46.622516556291387 0 0 1 0 0 0 0 -1 forward_v I I I I #
coedge $-1 $295 $211 $296 $297 forward $127 $-1 #
coedge $-1 $298 $129 $295 $299 forward $81 $-1 #
coedge $-1 $129 $298 $300 $301 forward $81 $-1 #
coedge $-1 $214 $213 $129 $207 reversed $215 $-1 #
edge $-1 $302 -28.647656127944906 $303 28.647656127944906 $206 $304 forward 7 unknown #
coedge $-1 $131 $130 $305 $306 forward $51 $-1 #
coedge $-1 $307 $308 $130 $210 reversed $292 $-1 #
edge $-1 $217 -46.622516556291387 $309 46.622516556291387 $209 $310 forward 7 unknown #
coedge $-1 $203 $311 $131 $212 reversed $127 $-1 #
edge $-1 $312 -46.622516556291387 $216 46.622516556291387 $211 $313 forward 7 unknown #
coedge $-1 $206 $132 $311 $314 forward $215 $-1 #
coedge $-1 $132 $206 $307 $315 reversed $215 $-1 #
loop $-1 $-1 $213 $291 #
vertex $-1 $133 $316 #
vertex $-1 $133 $317 #
straight-curve $-1 46.622516556291387 0 13.647919285246472 0 1 0 I I #
face $-1 $318 $319 $31 $-1 $320 reversed single #
loop $-1 $-1 $321 $134 #
plane-surface $-1 -46.622516556291387 0 0 1 0 0 0 0 -1 forward_v I I I I #
coedge $-1 $230 $322 $224 $323 forward $135 $-1 #
coedge $-1 $140 $137 $324 $325 reversed $85 $-1 #
coedge $-1 $137 $140 $222 $323 reversed $85 $-1 #
coedge $-1 $326 $327 $137 $226 forward $328 $-1 #
edge $-1 $329 -13.647919285246472 $330 13.647919285246472 $225 $331 forward 7 unknown #
coedge $-1 $139 $138 $321 $332 reversed $54 $-1 #
coedge $-1 $324 $333 $138 $229 forward $319 $-1 #
edge $-1 $334 -24.126855468868232 $233 -20.864466705978078 $228 $335 forward 7 unknown #
coedge $-1 $336 $222 $139 $231 forward $135 $-1 #
edge $-1 $232 20.864466705978078 $337 24.126855468868232 $230 $338 forward 7 unknown #
vertex $-1 $231 $339 #
vertex $-1 $229 $340 #
straight-curve $-1 -43.360127793401233 -14.421340297556972 0 0 0 -1 I I #
face $-1 $-1 $247 $32 $-1 $341 forward single #
loop $-1 $-1 $342 $142 #
plane-surface $-1 46.622516556291387 0 0 -1 0 0 0 0 1 forward_v I I I I #
coedge $-1 $343 $344 $345 $346 reversed $143 $-1 #
coedge $-1 $347 $145 $147 $245 forward $89 $-1 #
coedge $-1 $145 $347 $343 $348 forward $89 $-1 #
coedge $-1 $345 $148 $145 $242 forward $247 $-1 #
edge $-1 $249 -4.5621965817224943 $349 6.3801037480917469 $241 $350 forward 7 unknown #
coedge $-1 $351 $352 $146 $244 forward $236 $-1 #
edge $-1 $353 -61.315102475344531 $248 -56.885284522676159 $243 $354 forward 7 unknown #
edge $-1 $249 86.868059784382979 $353 93.245033112582774 $147 $355 forward 7 unknown #
coedge $-1 $148 $345 $351 $356 forward $247 $-1 #
loop $-1 $-1 $345 $235 #
vertex $-1 $244 $357 #
vertex $-1 $149 $358 #
straight-curve $-1 22.160548652839459 3.653242998537868 13.647919285246473 -1 0 0 I I #
coedge $-1 $251 $251 $-1 $359 reversed $152 $-1 #
edge $-1 $360 0 $360 6.2831853071796004 $153 $361 forward 7 unknown #
vertex $-1 $156 $362 #
ellipse-curve $-1 44.328911221082826 -5.1005972653135245 11.433010308912285 0.69465837861970381 0 0.71933979245794832 0.35966989622897416 0 -0.3473291893098519 1 I I #
coedge $-1 $255 $255 $-1 $363 reversed $159 $-1 #
edge $-1 $364 0 $364 6.2831853071796004 $160 $365 forward 7 unknown #
vertex $-1 $163 $366 #
ellipse-curve $-1 44.328911221082826 -1.8179071663692525 11.433010308912285 0.69465837861970381 0 0.71933979245794832 0.35966989622897416 0 -0.3473291893098519 1 I I #
coedge $-1 $259 $259 $-1 $367 reversed $166 $-1 #
edge $-1 $368 0 $368 6.2831853071796004 $167 $369 forward 7 unknown #
vertex $-1 $170 $370 #
ellipse-curve $-1 44.328911221082826 1.4647829325750195 11.433010308912285 0.69465837861970381 0 0.71933979245794832 0.35966989622897416 0 -0.3473291893098519 1 I I #
face $-1 $-1 $275 $36 $-1 $371 forward single #
loop $-1 $-1 $372 $171 #
plane-surface $-1 -46.622516556291387 0 0 1 0 0 0 0 -1 forward_v I I I I #
coedge $-1 $373 $374 $268 $375 forward $172 $-1 #
coedge $-1 $376 $174 $176 $273 forward $108 $-1 #
coedge $-1 $174 $376 $266 $375 reversed $108 $-1 #
coedge $-1 $377 $177 $174 $270 forward $275 $-1 #
edge $-1 $277 7.9883654382815052 $378 16.435648939202771 $269 $379 forward 7 unknown #
coedge $-1 $380 $372 $175 $272 forward $264 $-1 #
edge $-1 $381 -22.963607377193078 $276 -16.871626054547718 $271 $382 forward 7 unknown #
edge $-1 $277 -7.4369359200492795 $381 0 $176 $383 forward 7 unknown #
coedge $-1 $177 $377 $380 $384 forward $275 $-1 #
loop $-1 $-1 $269 $263 #
vertex $-1 $272 $385 #
vertex $-1 $178 $386 #
straight-curve $-1 -61.502188404348679 20.200372627023643 13.647919285246473 1 0 0 I I #
coedge $-1 $279 $279 $-1 $387 reversed $181 $-1 #
edge $-1 $388 0 $388 6.2831853071796004 $182 $389 forward 7 unknown #
vertex $-1 $185 $390 #
ellipse-curve $-1 -44.489690998289788 21.889829327207899 10.601928623923792 -0.81915205242281985 0 0.57357642473473569 0.28678821236736785 0 0.40957602621140993 1 I I #
coedge $-1 $283 $283 $-1 $391 reversed $188 $-1 #
edge $-1 $392 0 $392 6.2831853071796004 $189 $393 forward 7 unknown #
vertex $-1 $192 $394 #
ellipse-curve $-1 -44.489690998289788 24.424014377484276 10.601928623923792 -0.81915205242281985 0 0.57357642473473569 0.28678821236736785 0 0.40957602621140993 1 I I #
coedge $-1 $287 $287 $-1 $395 reversed $195 $-1 #
edge $-1 $396 0 $396 6.2831853071796004 $196 $397 forward 7 unknown #
vertex $-1 $199 $398 #
ellipse-curve $-1 -44.489690998289788 26.958199427760654 10.601928623923792 -0.81915205242281985 0 0.57357642473473569 0.28678821236736785 0 0.40957602621140993 1 I I #
face $-1 $-1 $215 $30 $-1 $399 reversed single #
loop $-1 $-1 $307 $200 #
plane-surface $-1 0 28.647656127944906 0 0 -1 0 0 0 -1 forward_v I I I I #
coedge $-1 $400 $305 $308 $401 forward $201 $-1 #
coedge $-1 $311 $203 $204 $299 reversed $127 $-1 #
coedge $-1 $305 $400 $203 $297 reversed $201 $-1 #
edge $-1 $312 -13.647919285246472 $402 13.647919285246472 $296 $403 forward 7 unknown #
coedge $-1 $205 $204 $400 $404 forward $81 $-1 #
edge $-1 $303 -46.622516556291387 $402 46.622516556291387 $295 $405 forward 7 unknown #
coedge $-1 $308 $307 $205 $301 reversed $292 $-1 #
edge $-1 $406 -46.622516556291387 $302 46.622516556291387 $300 $407 forward 7 unknown #
vertex $-1 $207 $408 #
vertex $-1 $314 $409 #
straight-curve $-1 46.622516556291387 0 -13.647919285246472 0 -1 0 I I #
coedge $-1 $294 $296 $208 $306 reversed $201 $-1 #
edge $-1 $309 -28.647656127944906 $312 28.647656127944906 $305 $410 forward 7 unknown #
coedge $-1 $300 $209 $214 $315 forward $292 $-1 #
coedge $-1 $209 $300 $294 $401 reversed $292 $-1 #
vertex $-1 $210 $411 #
straight-curve $-1 0 28.647656127944906 13.647919285246472 -1 0 0 I I #
coedge $-1 $211 $295 $213 $314 reversed $127 $-1 #
vertex $-1 $306 $412 #
straight-curve $-1 0 -28.647656127944906 13.647919285246472 1 0 0 I I #
edge $-1 $216 -13.647919285246472 $303 13.647919285246472 $213 $413 forward 7 unknown #
edge $-1 $217 -13.647919285246472 $302 13.647919285246472 $214 $414 forward 7 unknown #
point $-1 46.622516556291387 -28.647656127944906 13.647919285246472 #
point $-1 46.622516556291387 28.647656127944906 13.647919285246472 #
face $-1 $-1 $328 $31 $-1 $415 reversed single #
loop $-1 $-1 $324 $219 #
plane-surface $-1 0 0 -13.647919285246472 0 0 1 1 0 0 forward_v I I I I #
coedge $-1 $416 $417 $227 $332 forward $220 $-1 #
coedge $-1 $222 $336 $326 $418 forward $135 $-1 #
edge $-1 $330 -17.880407021569436 $232 -3.6540911911815019 $222 $419 forward 7 unknown #
coedge $-1 $420 $228 $223 $325 forward $319 $-1 #
edge $-1 $233 3.6540911911815019 $329 17.880407021569436 $324 $421 forward 7 unknown #
coedge $-1 $422 $225 $322 $418 reversed $328 $-1 #
coedge $-1 $225 $422 $420 $423 reversed $328 $-1 #
loop $-1 $-1 $225 $318 #
vertex $-1 $423 $424 #
vertex $-1 $226 $425 #
straight-curve $-1 -43.360127793401233 -28.647656127944906 0 0 0 1 I I #
edge $-1 $337 -13.647919285246472 $334 13.647919285246472 $321 $426 forward 7 unknown #
coedge $-1 $228 $420 $416 $427 forward $319 $-1 #
vertex $-1 $229 $428 #
straight-curve $-1 -22.495661087423155 -14.421340297556972 -13.647919285246472 1 0 0 I I #
coedge $-1 $322 $230 $417 $429 forward $135 $-1 #
vertex $-1 $429 $430 #
straight-curve $-1 -22.495661087423155 -14.421340297556972 13.647919285246472 -1 0 0 I I #
point $-1 -43.360127793401233 -14.421340297556972 13.647919285246472 #
point $-1 -43.360127793401233 -14.421340297556972 -13.647919285246472 #
plane-surface $-1 0 0 13.647919285246472 0 0 1 1 0 0 forward_v I I I I #
coedge $-1 $352 $351 $344 $431 forward $236 $-1 #
coedge $-1 $344 $238 $240 $348 reversed $143 $-1 #
coedge $-1 $238 $343 $342 $431 reversed $143 $-1 #
coedge $-1 $246 $241 $238 $346 forward $247 $-1 #
edge $-1 $349 19.874757233034813 $432 24.461967903451928 $345 $433 forward 7 unknown #
coedge $-1 $240 $239 $352 $434 reversed $89 $-1 #
edge $-1 $435 -93.245033112582774 $349 -86.868059784382979 $343 $436 forward 7 unknown #
vertex $-1 $242 $437 #
straight-curve $-1 42.035305885874259 -0.90895358318462627 13.647919285246473 0 -1 0 I I #
coedge $-1 $342 $243 $246 $356 reversed $236 $-1 #
coedge $-1 $243 $342 $347 $434 forward $236 $-1 #
vertex $-1 $244 $438 #
straight-curve $-1 46.622516556291387 3.653242998537868 70.533203807922632 0 0 1 I I #
straight-curve $-1 -20.452346210648429 3.653242998537868 73.991544848905448 0.71933979245794832 0 -0.69465837861970381 I I #
edge $-1 $432 -7.2890573312763731 $248 3.653242998537868 $351 $439 forward 7 unknown #
point $-1 46.622516556291387 3.653242998537868 13.647919285246472 #
point $-1 42.035305885874273 3.653242998537868 13.647919285246473 #
edge $-1 $440 1 $440 0 $251 $-1 forward 7 unknown #
vertex $-1 $252 $441 #
ellipse-curve $-1 43.080022855212079 -5.1005972653135245 10.139748576874027 0.69465837861970381 0 0.71933979245794832 0.35966989622897416 0 -0.3473291893098519 1 I I #
point $-1 44.688581117311799 -5.1005972653135245 11.085681119602436 #
edge $-1 $442 1 $442 0 $255 $-1 forward 7 unknown #
vertex $-1 $256 $443 #
ellipse-curve $-1 43.080022855212079 -1.8179071663692525 10.139748576874027 0.69465837861970381 0 0.71933979245794832 0.35966989622897416 0 -0.3473291893098519 1 I I #
point $-1 44.688581117311799 -1.8179071663692525 11.085681119602436 #
edge $-1 $444 1 $444 0 $259 $-1 forward 7 unknown #
vertex $-1 $260 $445 #
ellipse-curve $-1 43.080022855212079 1.4647829325750195 10.139748576874027 0.69465837861970381 0 0.71933979245794832 0.35966989622897416 0 -0.3473291893098519 1 I I #
point $-1 44.688581117311799 1.4647829325750195 11.085681119602436 #
plane-surface $-1 0 0 13.647919285246472 0 0 1 1 0 0 forward_v I I I I #
coedge $-1 $271 $446 $376 $447 forward $264 $-1 #
coedge $-1 $374 $266 $446 $448 reversed $172 $-1 #
coedge $-1 $266 $373 $377 $449 reversed $172 $-1 #
edge $-1 $378 2.8391212141754369 $450 10.276057134224716 $266 $451 forward 7 unknown #
coedge $-1 $268 $267 $372 $447 reversed $108 $-1 #
coedge $-1 $274 $269 $374 $449 forward $275 $-1 #
vertex $-1 $449 $452 #
straight-curve $-1 -42.356865440288189 12.212007188742138 13.647919285246473 0 1 0 I I #
coedge $-1 $446 $271 $274 $384 reversed $264 $-1 #
vertex $-1 $272 $453 #
straight-curve $-1 -46.622516556291387 20.200372627023643 30.519545339794192 0 0 1 I I #
straight-curve $-1 -46.622516556291387 20.200372627023643 7.5559379626011136 -0.57357642473473569 0 -0.81915205242281985 I I #
edge $-1 $454 -28.647656127944906 $276 -20.200372627023643 $380 $455 forward 7 unknown #
point $-1 -46.622516556291387 20.200372627023643 13.647919285246472 #
point $-1 -42.356865440288189 20.200372627023643 13.647919285246472 #
edge $-1 $456 1 $456 0 $279 $-1 forward 7 unknown #
vertex $-1 $280 $457 #
ellipse-curve $-1 -43.670538945866973 21.889829327207899 10.02835219918906 -0.81915205242281985 0 0.57357642473473569 0.28678821236736785 0 0.40957602621140993 1 I I #
point $-1 -44.202902785922426 21.889829327207899 11.011504650135205 #
edge $-1 $458 1 $458 0 $283 $-1 forward 7 unknown #
vertex $-1 $284 $459 #
ellipse-curve $-1 -43.670538945866973 24.424014377484276 10.02835219918906 -0.81915205242281985 0 0.57357642473473569 0.28678821236736785 0 0.40957602621140993 1 I I #
point $-1 -44.202902785922426 24.424014377484276 11.011504650135205 #
edge $-1 $460 1 $460 0 $287 $-1 forward 7 unknown #
vertex $-1 $288 $461 #
ellipse-curve $-1 -43.670538945866973 26.958199427760654 10.02835219918906 -0.81915205242281985 0 0.57357642473473569 0.28678821236736785 0 0.40957602621140993 1 I I #
point $-1 -44.202902785922426 26.958199427760654 11.011504650135205 #
plane-surface $-1 46.622516556291387 0 0 -1 0 0 0 0 1 forward_v I I I I #
coedge $-1 $296 $294 $298 $404 reversed $201 $-1 #
edge $-1 $309 -13.647919285246472 $406 13.647919285246472 $308 $462 forward 7 unknown #
vertex $-1 $404 $463 #
straight-curve $-1 -46.622516556291387 -28.647656127944906 0 0 0 -1 I I #
edge $-1 $402 -28.647656127944906 $406 28.647656127944906 $400 $464 forward 7 unknown #
straight-curve $-1 0 -28.647656127944906 -13.647919285246472 -1 0 0 I I #
vertex $-1 $301 $465 #
straight-curve $-1 0 28.647656127944906 -13.647919285246472 1 0 0 I I #
point $-1 46.622516556291387 28.647656127944906 -13.647919285246472 #
point $-1 46.622516556291387 -28.647656127944906 -13.647919285246472 #
straight-curve $-1 -46.622516556291387 0 13.647919285246472 0 -1 0 I I #
point $-1 -46.622516556291387 28.647656127944906 13.647919285246472 #
point $-1 -46.622516556291387 -28.647656127944906 13.647919285246472 #
straight-curve $-1 46.622516556291387 -28.647656127944906 0 0 0 -1 I I #
straight-curve $-1 46.622516556291387 28.647656127944906 0 0 0 -1 I I #
plane-surface $-1 0 -28.647656127944906 0 0 1 0 0 0 1 forward_v I I I I #
coedge $-1 $466 $321 $333 $427 reversed $220 $-1 #
coedge $-1 $321 $466 $336 $429 reversed $220 $-1 #
edge $-1 $467 -46.622516556291387 $330 -43.360127793401233 $326 $468 forward 7 unknown #
straight-curve $-1 -43.360127793401233 -10.76724910637547 13.647919285246472 0 1 0 I I #
coedge $-1 $333 $324 $327 $423 forward $319 $-1 #
straight-curve $-1 -43.360127793401233 -10.76724910637547 -13.647919285246472 0 -1 0 I I #
coedge $-1 $327 $326 $466 $469 forward $328 $-1 #
edge $-1 $329 43.360127793401233 $470 46.622516556291387 $327 $471 forward 7 unknown #
point $-1 -43.360127793401233 -28.647656127944906 -13.647919285246472 #
point $-1 -43.360127793401233 -28.647656127944906 13.647919285246472 #
straight-curve $-1 -46.622516556291387 -14.421340297556972 0 0 0 -1 I I #
edge $-1 $470 -28.647656127944906 $334 -14.421340297556972 $416 $472 forward 7 unknown #
point $-1 -46.622516556291387 -14.421340297556972 -13.647919285246472 #
edge $-1 $337 14.421340297556972 $467 28.647656127944906 $417 $473 forward 7 unknown #
point $-1 -46.622516556291387 -14.421340297556972 13.647919285246472 #
edge $-1 $432 56.885284522676159 $435 61.315102475344531 $342 $474 forward 7 unknown #
vertex $-1 $356 $475 #
straight-curve $-1 22.160548652839459 -7.2890573312763731 13.647919285246473 1 0 0 I I #
edge $-1 $435 -6.3801037480917469 $353 4.5621965817224943 $352 $476 forward 7 unknown #
vertex $-1 $434 $477 #
straight-curve $-1 -20.452346210648429 -7.2890573312763731 73.991544848905448 -0.71933979245794832 0 0.69465837861970381 I I #
point $-1 42.035305885874273 -7.2890573312763731 13.647919285246473 #
point $-1 46.622516556291387 3.653242998537868 9.2181013325781009 #
straight-curve $-1 46.622516556291387 0 13.647919285246472 0 1 0 I I #
vertex $-1 $359 $478 #
point $-1 43.439692751441058 -5.1005972653135245 9.7924193875641734 #
vertex $-1 $363 $479 #
point $-1 43.439692751441058 -1.8179071663692525 9.7924193875641734 #
vertex $-1 $367 $480 #
point $-1 43.439692751441058 1.4647829325750195 9.7924193875641734 #
coedge $-1 $372 $380 $373 $448 forward $264 $-1 #
edge $-1 $450 -16.435648939202771 $381 -7.9883654382815052 $372 $481 forward 7 unknown #
edge $-1 $454 -13.647919285246472 $450 -7.5559379626011136 $373 $482 forward 7 unknown #
edge $-1 $378 42.356865440288189 $454 46.622516556291387 $374 $483 forward 7 unknown #
vertex $-1 $447 $484 #
straight-curve $-1 -40.728412444872902 28.647656127944906 15.97359125491545 -0.57357642473473569 0 -0.81915205242281985 I I #
point $-1 -42.356865440288189 28.647656127944909 13.647919285246472 #
point $-1 -46.622516556291387 20.200372627023643 7.5559379626011136 #
vertex $-1 $449 $485 #
straight-curve $-1 -46.622516556291387 0 13.647919285246472 0 -1 0 I I #
vertex $-1 $387 $486 #
point $-1 -43.383750733499603 21.889829327207899 10.437928225400469 #
vertex $-1 $391 $487 #
point $-1 -43.383750733499603 24.424014377484276 10.437928225400469 #
vertex $-1 $395 $488 #
point $-1 -43.383750733499603 26.958199427760654 10.437928225400469 #
straight-curve $-1 -46.622516556291387 28.647656127944906 0 0 0 -1 I I #
point $-1 -46.622516556291387 -28.647656127944906 -13.647919285246472 #
straight-curve $-1 -46.622516556291387 0 -13.647919285246472 0 1 0 I I #
point $-1 -46.622516556291387 28.647656127944906 -13.647919285246472 #
coedge $-1 $417 $416 $422 $469 reversed $220 $-1 #
vertex $-1 $429 $489 #
straight-curve $-1 0 -28.647656127944906 13.647919285246472 1 0 0 I I #
edge $-1 $467 -13.647919285246472 $470 13.647919285246472 $466 $490 forward 7 unknown #
vertex $-1 $427 $491 #
straight-curve $-1 0 -28.647656127944906 -13.647919285246472 -1 0 0 I I #
straight-curve $-1 -46.622516556291387 0 -13.647919285246472 0 1 0 I I #
straight-curve $-1 -46.622516556291387 0 13.647919285246472 0 -1 0 I I #
straight-curve $-1 46.622516556291387 -7.2890573312763731 70.533203807922632 0 0 -1 I I #
point $-1 46.622516556291387 -7.2890573312763731 13.647919285246472 #
straight-curve $-1 46.622516556291387 -0.90895358318462627 9.2181013325781045 0 1 0 I I #
point $-1 46.622516556291387 -7.2890573312763731 9.2181013325781009 #
point $-1 42.732693665902232 -5.1005972653135245 9.780078680645051 #
point $-1 42.732693665902232 -1.8179071663692525 9.780078680645051 #
point $-1 42.732693665902232 1.4647829325750195 9.780078680645051 #
straight-curve $-1 -46.622516556291387 12.212007188742138 7.5559379626011118 0 -1 0 I I #
straight-curve $-1 -46.622516556291387 28.647656127944906 0 0 0 -1 I I #
straight-curve $-1 0 28.647656127944906 13.647919285246472 -1 0 0 I I #
point $-1 -46.622516556291387 28.647656127944909 7.5559379626011136 #
point $-1 -46.622516556291387 28.647656127944906 13.647919285246472 #
point $-1 -43.260962919655562 21.889829327207899 9.7415639868216903 #
point $-1 -43.260962919655562 24.424014377484276 9.7415639868216903 #
point $-1 -43.260962919655562 26.958199427760654 9.7415639868216903 #
point $-1 -46.622516556291387 -28.647656127944906 13.647919285246472 #
straight-curve $-1 -46.622516556291387 -28.647656127944906 0 0 0 -1 I I #
point $-1 -46.622516556291387 -28.647656127944906 -13.647919285246472 #
End-of-ACIS-data 