500 0 10 0           
7 Unknown 11 ACIS 5.0 NT 24 Thu Mar 25 21:37:33 1999 
-1 9.9999999999999995e-007 1e-010 
body $-1 $10 $-1 $11 #
body $-1 $12 $-1 $13 #
body $-1 $14 $-1 $15 #
body $-1 $16 $-1 $17 #
body $-1 $18 $-1 $19 #
body $-1 $20 $-1 $21 #
body $-1 $22 $-1 $23 #
body $-1 $24 $-1 $25 #
body $-1 $26 $-1 $27 #
body $-1 $28 $-1 $29 #
lump $-1 $-1 $30 $0 #
transform $-1 1 0 0 0 1 0 0 0 1 64.728537858211013 43.187784410502154 18.272464649647407 1 rotate no_reflect no_shear #
lump $-1 $-1 $31 $1 #
transform $-1 1 0 0 0 1 0 0 0 1 64.728537858211013 43.187784410502154 18.272464649647407 1 rotate no_reflect no_shear #
lump $-1 $-1 $32 $2 #
transform $-1 1 0 0 0 1 0 0 0 1 64.728537858211013 43.187784410502154 18.272464649647407 1 rotate no_reflect no_shear #
lump $-1 $-1 $33 $3 #
transform $-1 1 0 0 0 1 0 0 0 1 64.728537858211013 43.187784410502154 18.272464649647407 1 rotate no_reflect no_shear #
lump $-1 $-1 $34 $4 #
transform $-1 1 0 0 0 1 0 0 0 1 64.728537858211013 43.187784410502154 18.272464649647407 1 rotate no_reflect no_shear #
lump $-1 $-1 $35 $5 #
transform $-1 1 0 0 0 1 0 0 0 1 64.728537858211013 43.187784410502154 18.272464649647407 1 rotate no_reflect no_shear #
lump $-1 $-1 $36 $6 #
transform $-1 1 0 0 0 1 0 0 0 1 64.728537858211013 43.187784410502154 18.272464649647407 1 rotate no_reflect no_shear #
lump $-1 $-1 $37 $7 #
transform $-1 1 0 0 0 1 0 0 0 1 64.728537858211013 43.187784410502154 18.272464649647407 1 rotate no_reflect no_shear #
lump $-1 $-1 $38 $8 #
transform $-1 1 0 0 0 1 0 0 0 1 64.728537858211013 43.187784410502154 18.272464649647407 1 rotate no_reflect no_shear #
lump $-1 $-1 $39 $9 #
transform $-1 1 0 0 0 1 0 0 0 1 64.728537858211013 43.187784410502154 18.272464649647407 1 rotate no_reflect no_shear #
shell $-1 $-1 $-1 $40 $-1 $10 #
shell $-1 $-1 $-1 $41 $-1 $12 #
shell $-1 $-1 $-1 $42 $-1 $14 #
shell $-1 $-1 $-1 $43 $-1 $16 #
shell $-1 $-1 $-1 $44 $-1 $18 #
shell $-1 $-1 $-1 $45 $-1 $20 #
shell $-1 $-1 $-1 $46 $-1 $22 #
shell $-1 $-1 $-1 $47 $-1 $24 #
shell $-1 $-1 $-1 $48 $-1 $26 #
shell $-1 $-1 $-1 $49 $-1 $28 #
face $-1 $50 $51 $30 $-1 $52 forward single #
face $-1 $53 $54 $31 $-1 $55 forward single #
face $-1 $56 $57 $32 $-1 $58 forward single #
face $-1 $59 $60 $33 $-1 $61 reversed single #
face $-1 $62 $63 $34 $-1 $64 forward single #
face $-1 $65 $66 $35 $-1 $67 forward single #
face $-1 $68 $69 $36 $-1 $70 reversed single #
face $-1 $71 $72 $37 $-1 $73 forward single #
face $-1 $74 $75 $38 $-1 $76 forward single #
face $-1 $77 $78 $39 $-1 $79 forward single #
face $-1 $80 $81 $30 $-1 $82 reversed single #
loop $-1 $-1 $83 $40 #
plane-surface $-1 0 0 18.272464649647407 0 0 1 1 0 0 forward_v I I I I #
face $-1 $84 $85 $31 $-1 $86 reversed single #
loop $-1 $-1 $87 $41 #
plane-surface $-1 -54.151208269487505 0 15.823239988858948 0 0 1 1 0 0 forward_v I I I I #
face $-1 $88 $89 $32 $-1 $90 reversed single #
loop $-1 $-1 $91 $42 #
plane-surface $-1 54.151208269487512 0 15.823239988858948 0 0 1 1 0 0 forward_v I I I I #
face $-1 $92 $93 $33 $-1 $94 reversed single #
loop $-1 $-1 $95 $43 #
plane-surface $-1 -12.934467668929756 -134.72776158426177 94.874403349488048 1 0 0 0 0.70710678939079041 -0.70710677298230451 forward_v I I I I #
face $-1 $96 $97 $34 $-1 $98 forward single #
loop $-1 $99 $100 $44 #
cone-surface $-1 -9.9031851600390937 -34.865207999761971 9.9498880853948037 0 0.70710678939079041 -0.70710677298230451 1.5 0 0 1 I I 0 1 1.5 forward I I I I #
face $-1 $101 $102 $35 $-1 $103 forward single #
loop $-1 $104 $105 $45 #
cone-surface $-1 -5.356261396703097 -34.865207999761971 9.9498880853948037 0 0.70710678939079041 -0.70710677298230451 1.5 0 0 1 I I 0 1 1.5 forward I I I I #
face $-1 $106 $107 $36 $-1 $108 reversed single #
loop $-1 $-1 $109 $46 #
plane-surface $-1 -5.5893250426515806 92.023244054254917 149.15556736626417 -1 0 0 0 0.78801076186113728 0.61566146476048833 forward_v I I I I #
face $-1 $110 $111 $37 $-1 $112 forward single #
loop $-1 $113 $114 $47 #
cone-surface $-1 -21.070651922456605 35.904720935616723 9.2934654018629672 0 -0.78801076186113728 -0.61566146476048833 1 0 0 1 I I 0 1 1 forward I I I I #
face $-1 $115 $116 $38 $-1 $117 forward single #
loop $-1 $118 $119 $48 #
cone-surface $-1 -15.265154342529726 35.904720935616723 9.2934654018629672 0 -0.78801076186113728 -0.61566146476048833 1 0 0 1 I I 0 1 1 forward I I I I #
face $-1 $120 $121 $39 $-1 $122 forward single #
loop $-1 $123 $124 $49 #
cone-surface $-1 -9.4596567626028474 35.904720935616723 9.2934654018629672 0 -0.78801076186113728 -0.61566146476048833 1 0 0 1 I I 0 1 1 forward I I I I #
face $-1 $125 $126 $30 $-1 $127 reversed single #
loop $-1 $-1 $128 $50 #
plane-surface $-1 0 0 -18.272464649647407 0 0 1 1 0 0 forward_v I I I I #
coedge $-1 $129 $130 $131 $132 forward $51 $-1 #
face $-1 $133 $134 $31 $-1 $135 reversed single #
loop $-1 $-1 $136 $53 #
plane-surface $-1 -54.151208269487505 0 4.9266790053377143 0 0 1 1 0 0 forward_v I I I I #
coedge $-1 $137 $138 $139 $140 forward $54 $-1 #
face $-1 $141 $142 $32 $-1 $143 reversed single #
loop $-1 $-1 $144 $56 #
plane-surface $-1 54.151208269487512 0 4.9266790053377143 0 0 1 1 0 0 forward_v I I I I #
coedge $-1 $145 $146 $147 $148 reversed $57 $-1 #
face $-1 $149 $150 $33 $-1 $151 reversed single #
loop $-1 $-1 $152 $59 #
plane-surface $-1 -7.6297232783710953 -43.187784410502132 3.3344282999230188 0 -0.70710678939079041 0.70710677298230451 1 0 0 forward_v I I I I #
coedge $-1 $153 $154 $155 $156 reversed $60 $-1 #
face $-1 $-1 $157 $34 $-1 $158 forward single #
loop $-1 $159 $160 $62 #
cone-surface $-1 -9.9031851600390937 -33.481319498521557 8.5659996162676642 0 0.70710678939079041 -0.70710677298230451 0.75 0 0 1 I I -0.70710678118654757 0.70710678118654757 0.75 forward I I I I #
loop $-1 $-1 $161 $44 #
coedge $-1 $100 $100 $162 $163 reversed $63 $-1 #
face $-1 $-1 $164 $35 $-1 $165 forward single #
loop $-1 $166 $167 $65 #
cone-surface $-1 -5.356261396703097 -33.481319498521557 8.5659996162676642 0 0.70710678939079041 -0.70710677298230451 0.75 0 0 1 I I -0.70710678118654757 0.70710678118654757 0.75 forward I I I I #
loop $-1 $-1 $168 $45 #
coedge $-1 $105 $105 $169 $170 reversed $66 $-1 #
face $-1 $171 $172 $36 $-1 $173 reversed single #
loop $-1 $-1 $174 $68 #
plane-surface $-1 -15.265154342529719 -9.9903248093577304 69.453834507082334 0 0.78801076186113728 0.61566146476048833 1 0 0 forward_v I I I I #
coedge $-1 $175 $176 $177 $178 reversed $69 $-1 #
face $-1 $-1 $179 $37 $-1 $180 forward single #
loop $-1 $181 $182 $71 #
cone-surface $-1 -21.070651922456605 34.823072934999381 8.4483893893951638 0 -0.78801076186113728 -0.61566146476048833 0.5 0 0 1 I I -0.70710678118654746 0.70710678118654746 0.5 forward I I I I #
loop $-1 $-1 $183 $47 #
coedge $-1 $114 $114 $184 $185 reversed $72 $-1 #
face $-1 $-1 $186 $38 $-1 $187 forward single #
loop $-1 $188 $189 $74 #
cone-surface $-1 -15.265154342529726 34.823072934999381 8.4483893893951638 0 -0.78801076186113728 -0.61566146476048833 0.5 0 0 1 I I -0.70710678118654746 0.70710678118654746 0.5 forward I I I I #
loop $-1 $-1 $190 $48 #
coedge $-1 $119 $119 $191 $192 reversed $75 $-1 #
face $-1 $-1 $193 $39 $-1 $194 forward single #
loop $-1 $195 $196 $77 #
cone-surface $-1 -9.4596567626028474 34.823072934999381 8.4483893893951638 0 -0.78801076186113728 -0.61566146476048833 0.5 0 0 1 I I -0.70710678118654746 0.70710678118654746 0.5 forward I I I I #
loop $-1 $-1 $197 $49 #
coedge $-1 $124 $124 $198 $199 reversed $78 $-1 #
face $-1 $200 $201 $30 $-1 $202 reversed single #
loop $-1 $-1 $203 $80 #
plane-surface $-1 0 -43.187784410502154 0 0 1 0 0 0 1 forward_v I I I I #
coedge $-1 $204 $205 $206 $207 forward $81 $-1 #
coedge $-1 $208 $83 $209 $210 forward $51 $-1 #
coedge $-1 $83 $208 $211 $212 forward $51 $-1 #
coedge $-1 $213 $214 $83 $132 reversed $215 $-1 #
edge $-1 $216 -43.187784410502154 $217 43.187784410502154 $131 $218 forward 7 unknown #
face $-1 $219 $220 $31 $-1 $221 reversed single #
loop $-1 $-1 $222 $84 #
plane-surface $-1 -43.573878680763997 0 10.374959497098331 -1 0 0 0 0 1 forward_v I I I I #
coedge $-1 $223 $224 $225 $226 forward $85 $-1 #
coedge $-1 $227 $87 $228 $229 reversed $54 $-1 #
coedge $-1 $87 $227 $230 $231 reversed $54 $-1 #
coedge $-1 $222 $232 $87 $140 reversed $134 $-1 #
edge $-1 $233 -43.187784410502154 $234 43.187784410502154 $139 $235 forward 7 unknown #
face $-1 $236 $237 $32 $-1 $238 reversed single #
loop $-1 $-1 $239 $88 #
plane-surface $-1 43.573878680764004 0 10.374959497098331 1 0 0 0 0 -1 forward_v I I I I #
coedge $-1 $240 $241 $242 $243 reversed $89 $-1 #
coedge $-1 $244 $91 $245 $246 reversed $57 $-1 #
coedge $-1 $91 $244 $247 $248 reversed $57 $-1 #
coedge $-1 $249 $250 $91 $148 forward $251 $-1 #
edge $-1 $252 -43.187784410502154 $253 43.187784410502154 $147 $254 forward 7 unknown #
face $-1 $255 $256 $33 $-1 $257 forward single #
loop $-1 $-1 $258 $92 #
plane-surface $-1 -2.3249788878124349 -134.72776158426177 94.874403349488048 -1 0 0 0 -0.70710678939079041 0.70710677298230451 forward_v I I I I #
coedge $-1 $259 $260 $261 $262 reversed $93 $-1 #
coedge $-1 $154 $95 $263 $264 reversed $60 $-1 #
coedge $-1 $95 $153 $259 $265 reversed $60 $-1 #
coedge $-1 $261 $266 $95 $156 forward $267 $-1 #
edge $-1 $268 29.164737025096617 $269 44.102773374821027 $155 $270 forward 7 unknown #
loop $-1 $-1 $162 $96 #
plane-surface $-1 -7.6297232783710953 -43.187784410502132 3.3344282999230188 0 -0.70710678939079041 0.70710677298230451 1 0 0 forward_v I I I I #
loop $-1 $-1 $271 $62 #
coedge $-1 $160 $160 $161 $272 reversed $97 $-1 #
coedge $-1 $161 $161 $160 $272 forward $99 $-1 #
coedge $-1 $162 $162 $100 $163 forward $157 $-1 #
edge $-1 $273 -1.6747651532418378e-015 $273 6.2831853071795987 $162 $274 forward 7 unknown #
loop $-1 $-1 $169 $101 #
plane-surface $-1 -7.6297232783710953 -43.187784410502132 3.3344282999230188 0 -0.70710678939079041 0.70710677298230451 1 0 0 forward_v I I I I #
loop $-1 $-1 $275 $65 #
coedge $-1 $167 $167 $168 $276 reversed $102 $-1 #
coedge $-1 $168 $168 $167 $276 forward $104 $-1 #
coedge $-1 $169 $169 $105 $170 forward $164 $-1 #
edge $-1 $277 -1.6747651532418378e-015 $277 6.2831853071795987 $169 $278 forward 7 unknown #
face $-1 $279 $280 $36 $-1 $281 reversed single #
loop $-1 $-1 $282 $106 #
plane-surface $-1 -24.940983642407858 92.023244054254917 149.15556736626417 1 0 0 0 -0.78801076186113728 -0.61566146476048833 forward_v I I I I #
coedge $-1 $283 $284 $285 $286 reversed $107 $-1 #
coedge $-1 $176 $109 $287 $288 reversed $69 $-1 #
coedge $-1 $109 $175 $283 $289 reversed $69 $-1 #
coedge $-1 $285 $290 $109 $178 forward $280 $-1 #
edge $-1 $291 56.305319033484679 $292 73.188826968878459 $177 $293 forward 7 unknown #
loop $-1 $-1 $184 $110 #
plane-surface $-1 -15.265154342529719 -9.9903248093577304 69.453834507082334 0 0.78801076186113728 0.61566146476048833 1 0 0 forward_v I I I I #
loop $-1 $-1 $294 $71 #
coedge $-1 $182 $182 $183 $295 reversed $111 $-1 #
coedge $-1 $183 $183 $182 $295 forward $113 $-1 #
coedge $-1 $184 $184 $114 $185 forward $179 $-1 #
edge $-1 $296 1.7517289567077944e-016 $296 6.2831853071796004 $184 $297 forward 7 unknown #
loop $-1 $-1 $191 $115 #
plane-surface $-1 -15.265154342529719 -9.9903248093577304 69.453834507082334 0 0.78801076186113728 0.61566146476048833 1 0 0 forward_v I I I I #
loop $-1 $-1 $298 $74 #
coedge $-1 $189 $189 $190 $299 reversed $116 $-1 #
coedge $-1 $190 $190 $189 $299 forward $118 $-1 #
coedge $-1 $191 $191 $119 $192 forward $186 $-1 #
edge $-1 $300 1.7517289567077944e-016 $300 6.2831853071796004 $191 $301 forward 7 unknown #
loop $-1 $-1 $198 $120 #
plane-surface $-1 -15.265154342529719 -9.9903248093577304 69.453834507082334 0 0.78801076186113728 0.61566146476048833 1 0 0 forward_v I I I I #
loop $-1 $-1 $302 $77 #
coedge $-1 $196 $196 $197 $303 reversed $121 $-1 #
coedge $-1 $197 $197 $196 $303 forward $123 $-1 #
coedge $-1 $198 $198 $124 $199 forward $193 $-1 #
edge $-1 $304 1.7517289567077944e-016 $304 6.2831853071796004 $198 $305 forward 7 unknown #
face $-1 $306 $307 $30 $-1 $308 reversed single #
loop $-1 $-1 $309 $125 #
plane-surface $-1 -64.728537858211013 0 0 1 0 0 0 0 -1 forward_v I I I I #
coedge $-1 $310 $211 $311 $312 forward $126 $-1 #
coedge $-1 $313 $128 $310 $314 forward $81 $-1 #
coedge $-1 $128 $313 $315 $316 forward $81 $-1 #
coedge $-1 $214 $213 $128 $207 reversed $215 $-1 #
edge $-1 $317 -43.187784410502154 $318 43.187784410502154 $206 $319 forward 7 unknown #
coedge $-1 $130 $129 $320 $321 forward $51 $-1 #
coedge $-1 $322 $323 $129 $210 reversed $307 $-1 #
edge $-1 $217 -64.728537858211013 $324 64.728537858211013 $209 $325 forward 7 unknown #
coedge $-1 $203 $326 $130 $212 reversed $126 $-1 #
edge $-1 $327 -64.728537858211013 $216 64.728537858211013 $211 $328 forward 7 unknown #
coedge $-1 $206 $131 $326 $329 forward $215 $-1 #
coedge $-1 $131 $206 $322 $330 reversed $215 $-1 #
loop $-1 $-1 $213 $306 #
vertex $-1 $132 $331 #
vertex $-1 $132 $332 #
straight-curve $-1 64.728537858211013 0 18.272464649647407 0 1 0 I I #
face $-1 $333 $334 $31 $-1 $335 reversed single #
loop $-1 $-1 $336 $133 #
plane-surface $-1 0 -43.187784410502154 0 0 1 0 0 0 1 forward_v I I I I #
coedge $-1 $225 $139 $337 $338 reversed $134 $-1 #
coedge $-1 $339 $136 $336 $340 reversed $85 $-1 #
coedge $-1 $136 $339 $341 $342 reversed $85 $-1 #
coedge $-1 $232 $222 $136 $226 reversed $134 $-1 #
edge $-1 $343 -43.187784410502154 $344 43.187784410502154 $225 $345 forward 7 unknown #
coedge $-1 $138 $137 $346 $347 reversed $54 $-1 #
coedge $-1 $348 $349 $137 $229 forward $350 $-1 #
edge $-1 $351 -37.652933723467257 $234 -16.498274546020244 $228 $352 forward 7 unknown #
coedge $-1 $353 $337 $138 $231 forward $220 $-1 #
edge $-1 $233 16.498274546020244 $354 37.652933723467257 $230 $355 forward 7 unknown #
coedge $-1 $139 $225 $348 $356 reversed $134 $-1 #
vertex $-1 $231 $357 #
vertex $-1 $229 $358 #
straight-curve $-1 -43.573878680763997 0 15.823239988858948 0 1 0 I I #
face $-1 $359 $360 $32 $-1 $361 reversed single #
loop $-1 $-1 $247 $141 #
plane-surface $-1 0 -43.187784410502154 0 0 1 0 0 0 1 forward_v I I I I #
coedge $-1 $362 $363 $364 $365 reversed $142 $-1 #
coedge $-1 $366 $144 $367 $368 reversed $89 $-1 #
coedge $-1 $144 $366 $369 $370 reversed $89 $-1 #
coedge $-1 $250 $249 $144 $243 forward $251 $-1 #
edge $-1 $371 -43.187784410502154 $372 43.187784410502154 $242 $373 forward 7 unknown #
coedge $-1 $146 $145 $363 $374 forward $57 $-1 #
coedge $-1 $375 $364 $145 $246 forward $360 $-1 #
edge $-1 $376 16.498274546020248 $252 37.652933723467257 $245 $377 forward 7 unknown #
coedge $-1 $378 $379 $146 $248 forward $237 $-1 #
edge $-1 $253 -37.652933723467257 $380 -16.498274546020248 $247 $381 forward 7 unknown #
coedge $-1 $242 $147 $379 $382 forward $251 $-1 #
coedge $-1 $147 $242 $375 $383 reversed $251 $-1 #
loop $-1 $-1 $147 $359 #
vertex $-1 $383 $384 #
vertex $-1 $382 $385 #
straight-curve $-1 64.728537858211013 0 15.823239988858948 0 -1 0 I I #
face $-1 $-1 $267 $33 $-1 $386 reversed single #
loop $-1 $-1 $387 $149 #
plane-surface $-1 0 0 18.272464649647407 0 0 1 1 0 0 forward_v I I I I #
coedge $-1 $388 $389 $390 $391 reversed $150 $-1 #
coedge $-1 $392 $152 $154 $265 forward $93 $-1 #
coedge $-1 $152 $392 $388 $393 forward $93 $-1 #
coedge $-1 $390 $155 $152 $262 forward $267 $-1 #
edge $-1 $269 -9.1196060297442081 $394 1.4898827513731128 $261 $395 forward 7 unknown #
coedge $-1 $396 $397 $153 $264 forward $256 $-1 #
edge $-1 $398 -39.114132384714466 $268 -24.176096381628732 $263 $399 forward 7 unknown #
edge $-1 $269 -3.0145775206728491e-014 $398 21.125573355891962 $154 $400 forward 7 unknown #
coedge $-1 $155 $390 $396 $401 reversed $267 $-1 #
loop $-1 $-1 $390 $255 #
vertex $-1 $401 $402 #
vertex $-1 $156 $403 #
straight-curve $-1 -12.934467668929756 -43.187784410502154 47.437201674744024 0 0 -1 I I #
coedge $-1 $271 $271 $-1 $404 reversed $159 $-1 #
edge $-1 $405 0 $405 6.2831853071796004 $160 $406 forward 7 unknown #
vertex $-1 $163 $407 #
ellipse-curve $-1 -9.9031851600390937 -35.718766408959283 10.803446474785204 0 -0.70710678939079041 0.70710677298230451 1.5 0 0 1 I I #
coedge $-1 $275 $275 $-1 $408 reversed $166 $-1 #
edge $-1 $409 0 $409 6.2831853071796004 $167 $410 forward 7 unknown #
vertex $-1 $170 $411 #
ellipse-curve $-1 -5.356261396703097 -35.718766408959283 10.803446474785204 0 -0.70710678939079041 0.70710677298230451 1.5 0 0 1 I I #
face $-1 $-1 $412 $36 $-1 $413 forward single #
loop $-1 $-1 $177 $171 #
plane-surface $-1 0 43.187784410502154 0 0 -1 0 0 0 -1 forward_v I I I I #
coedge $-1 $414 $415 $416 $417 reversed $172 $-1 #
coedge $-1 $418 $174 $176 $289 forward $107 $-1 #
coedge $-1 $174 $418 $414 $419 forward $107 $-1 #
coedge $-1 $416 $177 $174 $286 forward $280 $-1 #
edge $-1 $292 -2.043252128613279 $420 17.308406471142998 $285 $421 forward 7 unknown #
coedge $-1 $422 $423 $175 $288 forward $412 $-1 #
edge $-1 $424 -16.014679327022627 $291 -2.8238376166253047 $287 $425 forward 7 unknown #
edge $-1 $292 -86.375568821004322 $424 -64.950089941099151 $176 $426 forward 7 unknown #
coedge $-1 $177 $416 $422 $427 reversed $280 $-1 #
vertex $-1 $427 $428 #
vertex $-1 $178 $429 #
straight-curve $-1 -5.5893250426515806 43.187784410502154 74.577783683132083 0 0 -1 I I #
coedge $-1 $294 $294 $-1 $430 reversed $181 $-1 #
edge $-1 $431 0 $431 6.2831853071796004 $182 $432 forward 7 unknown #
vertex $-1 $185 $433 #
ellipse-curve $-1 -21.070651922456605 36.592363555303486 9.830710681950519 0 0.78801076186113728 0.61566146476048833 1 0 0 1 I I #
coedge $-1 $298 $298 $-1 $434 reversed $188 $-1 #
edge $-1 $435 0 $435 6.2831853071796004 $189 $436 forward 7 unknown #
vertex $-1 $192 $437 #
ellipse-curve $-1 -15.265154342529726 36.592363555303486 9.830710681950519 0 0.78801076186113728 0.61566146476048833 1 0 0 1 I I #
coedge $-1 $302 $302 $-1 $438 reversed $195 $-1 #
edge $-1 $439 0 $439 6.2831853071796004 $196 $440 forward 7 unknown #
vertex $-1 $199 $441 #
ellipse-curve $-1 -9.4596567626028474 36.592363555303486 9.830710681950519 0 0.78801076186113728 0.61566146476048833 1 0 0 1 I I #
face $-1 $-1 $215 $30 $-1 $442 reversed single #
loop $-1 $-1 $322 $200 #
plane-surface $-1 0 43.187784410502154 0 0 -1 0 0 0 -1 forward_v I I I I #
coedge $-1 $443 $320 $323 $444 forward $201 $-1 #
coedge $-1 $326 $203 $204 $314 reversed $126 $-1 #
coedge $-1 $320 $443 $203 $312 reversed $201 $-1 #
edge $-1 $327 -18.272464649647407 $445 18.272464649647407 $311 $446 forward 7 unknown #
coedge $-1 $205 $204 $443 $447 forward $81 $-1 #
edge $-1 $318 -64.728537858211013 $445 64.728537858211013 $310 $448 forward 7 unknown #
coedge $-1 $323 $322 $205 $316 reversed $307 $-1 #
edge $-1 $449 -64.728537858211013 $317 64.728537858211013 $315 $450 forward 7 unknown #
vertex $-1 $207 $451 #
vertex $-1 $329 $452 #
straight-curve $-1 64.728537858211013 0 -18.272464649647407 0 -1 0 I I #
coedge $-1 $309 $311 $208 $321 reversed $201 $-1 #
edge $-1 $324 -43.187784410502154 $327 43.187784410502154 $320 $453 forward 7 unknown #
coedge $-1 $315 $209 $214 $330 forward $307 $-1 #
coedge $-1 $209 $315 $309 $444 reversed $307 $-1 #
vertex $-1 $210 $454 #
straight-curve $-1 0 43.187784410502154 18.272464649647407 -1 0 0 I I #
coedge $-1 $211 $310 $213 $329 reversed $126 $-1 #
vertex $-1 $321 $455 #
straight-curve $-1 0 -43.187784410502154 18.272464649647407 1 0 0 I I #
edge $-1 $216 -18.272464649647407 $318 18.272464649647407 $213 $456 forward 7 unknown #
edge $-1 $217 -18.272464649647407 $317 18.272464649647407 $214 $457 forward 7 unknown #
point $-1 64.728537858211013 -43.187784410502154 18.272464649647407 #
point $-1 64.728537858211013 43.187784410502154 18.272464649647407 #
face $-1 $-1 $350 $31 $-1 $458 reversed single #
loop $-1 $-1 $459 $219 #
plane-surface $-1 -64.728537858211013 0 0 1 0 0 0 0 -1 forward_v I I I I #
coedge $-1 $337 $353 $223 $340 forward $220 $-1 #
coedge $-1 $230 $336 $222 $338 forward $220 $-1 #
edge $-1 $344 -0.26080074321145119 $233 10.635760240309782 $337 $460 forward 7 unknown #
coedge $-1 $224 $223 $459 $461 reversed $85 $-1 #
edge $-1 $462 -37.652933723467257 $344 -16.498274546020244 $336 $463 forward 7 unknown #
coedge $-1 $349 $348 $224 $342 forward $350 $-1 #
edge $-1 $343 16.498274546020244 $464 37.652933723467257 $341 $465 forward 7 unknown #
vertex $-1 $342 $466 #
vertex $-1 $340 $467 #
straight-curve $-1 -43.573878680763997 0 4.9266790053377143 0 -1 0 I I #
coedge $-1 $468 $469 $227 $347 forward $334 $-1 #
edge $-1 $354 -43.187784410502154 $351 43.187784410502154 $346 $470 forward 7 unknown #
coedge $-1 $341 $228 $232 $356 forward $350 $-1 #
coedge $-1 $228 $341 $468 $471 reversed $350 $-1 #
loop $-1 $-1 $341 $333 #
vertex $-1 $471 $472 #
straight-curve $-1 -27.075604134743752 43.187784410502154 15.823239988858948 1 0 0 I I #
coedge $-1 $336 $230 $469 $473 forward $220 $-1 #
vertex $-1 $473 $474 #
straight-curve $-1 -27.075604134743752 -43.187784410502154 15.823239988858948 -1 0 0 I I #
edge $-1 $234 -10.635760240309782 $343 0.26080074321145119 $348 $475 forward 7 unknown #
point $-1 -43.573878680763997 -43.187784410502154 15.823239988858948 #
point $-1 -43.573878680763997 43.187784410502154 15.823239988858948 #
face $-1 $-1 $251 $32 $-1 $476 reversed single #
loop $-1 $-1 $245 $236 #
plane-surface $-1 0 43.187784410502154 0 0 -1 0 0 0 -1 forward_v I I I I #
coedge $-1 $477 $239 $366 $478 reversed $142 $-1 #
coedge $-1 $239 $477 $244 $374 reversed $142 $-1 #
coedge $-1 $245 $369 $239 $365 forward $360 $-1 #
edge $-1 $479 -0.26080074321145119 $376 10.635760240309782 $364 $480 forward 7 unknown #
coedge $-1 $241 $240 $362 $478 forward $89 $-1 #
coedge $-1 $379 $378 $240 $368 forward $237 $-1 #
edge $-1 $481 16.498274546020248 $371 37.652933723467257 $367 $482 forward 7 unknown #
coedge $-1 $364 $375 $241 $370 forward $360 $-1 #
edge $-1 $372 -37.652933723467257 $479 -16.498274546020248 $369 $483 forward 7 unknown #
vertex $-1 $243 $484 #
vertex $-1 $243 $485 #
straight-curve $-1 64.728537858211013 0 4.9266790053377143 0 1 0 I I #
edge $-1 $376 -43.187784410502154 $380 43.187784410502154 $363 $486 forward 7 unknown #
coedge $-1 $369 $245 $250 $383 forward $360 $-1 #
vertex $-1 $246 $487 #
straight-curve $-1 27.075604134743756 43.187784410502154 15.823239988858948 1 0 0 I I #
coedge $-1 $367 $247 $477 $488 forward $237 $-1 #
coedge $-1 $247 $367 $249 $382 reversed $237 $-1 #
vertex $-1 $248 $489 #
straight-curve $-1 27.075604134743756 -43.187784410502154 15.823239988858948 -1 0 0 I I #
edge $-1 $253 -15.823239988858948 $371 -4.9266790053377143 $249 $490 forward 7 unknown #
edge $-1 $252 -15.823239988858948 $372 -4.9266790053377143 $250 $491 forward 7 unknown #
point $-1 64.728537858211013 43.187784410502154 15.823239988858948 #
point $-1 64.728537858211013 -43.187784410502154 15.823239988858948 #
plane-surface $-1 0 -43.187784410502154 0 0 1 0 0 0 1 forward_v I I I I #
coedge $-1 $397 $396 $389 $492 forward $256 $-1 #
coedge $-1 $389 $258 $260 $393 reversed $150 $-1 #
coedge $-1 $258 $388 $387 $492 reversed $150 $-1 #
coedge $-1 $266 $261 $258 $391 forward $267 $-1 #
edge $-1 $394 -44.102773374821027 $493 -29.164737025096617 $390 $494 forward 7 unknown #
coedge $-1 $260 $259 $397 $495 reversed $93 $-1 #
edge $-1 $496 -21.125573355891962 $394 3.0145775206728491e-014 $388 $497 forward 7 unknown #
vertex $-1 $262 $498 #
straight-curve $-1 -3.8148616391855477 -43.187784410502154 3.3344282999229993 1 0 0 I I #
coedge $-1 $387 $263 $266 $401 forward $256 $-1 #
coedge $-1 $263 $387 $392 $495 forward $256 $-1 #
vertex $-1 $264 $499 #
straight-curve $-1 -12.934467668929756 -67.363880792130885 18.272464649647404 0 -1 0 I I #
straight-curve $-1 -12.934467668929756 -43.187784410502132 3.3344282999230188 0 0.70710677298230451 0.70710678939079041 I I #
edge $-1 $268 -12.934467668929756 $493 -2.3249788878124349 $266 $500 forward 7 unknown #
point $-1 -12.934467668929756 -43.187784410502154 18.272464649647407 #
point $-1 -12.934467668929756 -43.187784410502154 3.3344282999229975 #
edge $-1 $501 1 $501 0 $271 $-1 forward 7 unknown #
vertex $-1 $272 $502 #
ellipse-curve $-1 -9.9031851600390937 -34.011649590564652 9.0963296960043927 0 -0.70710678939079041 0.70710677298230451 1.5 0 0 1 I I #
point $-1 -8.4031851600390937 -35.718766408959297 10.803446474785215 #
edge $-1 $503 1 $503 0 $275 $-1 forward 7 unknown #
vertex $-1 $276 $504 #
ellipse-curve $-1 -5.356261396703097 -34.011649590564652 9.0963296960043927 0 -0.70710678939079041 0.70710677298230451 1.5 0 0 1 I I #
point $-1 -3.856261396703097 -35.718766408959297 10.803446474785215 #
loop $-1 $-1 $287 $279 #
plane-surface $-1 0 0 18.272464649647407 0 0 1 1 0 0 forward_v I I I I #
coedge $-1 $415 $282 $284 $419 reversed $172 $-1 #
coedge $-1 $282 $414 $505 $506 reversed $172 $-1 #
coedge $-1 $290 $285 $282 $417 forward $280 $-1 #
edge $-1 $420 -73.188826968878459 $507 -56.305319033484679 $416 $508 forward 7 unknown #
coedge $-1 $284 $283 $423 $509 reversed $107 $-1 #
edge $-1 $510 64.950089941099151 $420 86.375568821004322 $414 $511 forward 7 unknown #
vertex $-1 $286 $512 #
straight-curve $-1 -7.6325771712648596 43.187784410502154 1.3889567142536166 -1 0 0 I I #
coedge $-1 $505 $287 $290 $427 forward $412 $-1 #
coedge $-1 $287 $505 $418 $509 forward $412 $-1 #
vertex $-1 $288 $513 #
straight-curve $-1 -5.5893250426515806 46.011622027127459 18.272464649647404 0 1 0 I I #
straight-curve $-1 -5.5893250426515806 -9.9903248093577304 69.453834507082334 0 -0.61566146476048833 0.78801076186113728 I I #
edge $-1 $291 5.5893250426515806 $507 24.940983642407858 $290 $514 forward 7 unknown #
point $-1 -5.5893250426515806 43.187784410502154 18.272464649647407 #
point $-1 -5.5893250426515806 43.187784410502154 1.3889567142536237 #
edge $-1 $515 1 $515 0 $294 $-1 forward 7 unknown #
vertex $-1 $295 $516 #
ellipse-curve $-1 -21.070651922456605 35.217078315929946 8.7562201217754083 0 0.78801076186113728 0.61566146476048833 1 0 0 1 I I #
point $-1 -20.070651922456605 36.592363555303493 9.8307106819505243 #
edge $-1 $517 1 $517 0 $298 $-1 forward 7 unknown #
vertex $-1 $299 $518 #
ellipse-curve $-1 -15.265154342529726 35.217078315929946 8.7562201217754083 0 0.78801076186113728 0.61566146476048833 1 0 0 1 I I #
point $-1 -14.265154342529726 36.592363555303493 9.8307106819505243 #
edge $-1 $519 1 $519 0 $302 $-1 forward 7 unknown #
vertex $-1 $303 $520 #
ellipse-curve $-1 -9.4596567626028474 35.217078315929946 8.7562201217754083 0 0.78801076186113728 0.61566146476048833 1 0 0 1 I I #
point $-1 -8.4596567626028474 36.592363555303493 9.8307106819505243 #
plane-surface $-1 64.728537858211013 0 0 -1 0 0 0 0 1 forward_v I I I I #
coedge $-1 $311 $309 $313 $447 reversed $201 $-1 #
edge $-1 $324 -18.272464649647407 $449 18.272464649647407 $323 $521 forward 7 unknown #
vertex $-1 $447 $522 #
straight-curve $-1 -64.728537858211013 -43.187784410502154 0 0 0 -1 I I #
edge $-1 $445 -43.187784410502154 $449 43.187784410502154 $443 $523 forward 7 unknown #
straight-curve $-1 0 -43.187784410502154 -18.272464649647407 -1 0 0 I I #
vertex $-1 $316 $524 #
straight-curve $-1 0 43.187784410502154 -18.272464649647407 1 0 0 I I #
point $-1 64.728537858211013 43.187784410502154 -18.272464649647407 #
point $-1 64.728537858211013 -43.187784410502154 -18.272464649647407 #
straight-curve $-1 -64.728537858211013 0 18.272464649647407 0 -1 0 I I #
point $-1 -64.728537858211013 43.187784410502154 18.272464649647407 #
point $-1 -64.728537858211013 -43.187784410502154 18.272464649647407 #
straight-curve $-1 64.728537858211013 -43.187784410502154 0 0 0 -1 I I #
straight-curve $-1 64.728537858211013 43.187784410502154 0 0 0 -1 I I #
plane-surface $-1 0 43.187784410502154 0 0 -1 0 0 0 -1 forward_v I I I I #
coedge $-1 $469 $468 $339 $461 forward $334 $-1 #
straight-curve $-1 -43.573878680763997 -43.187784410502154 5.1874797485491655 0 0 1 I I #
edge $-1 $464 -43.187784410502154 $462 43.187784410502154 $459 $525 forward 7 unknown #
vertex $-1 $340 $526 #
straight-curve $-1 -27.075604134743752 -43.187784410502154 4.9266790053377143 1 0 0 I I #
vertex $-1 $342 $527 #
straight-curve $-1 -27.075604134743752 43.187784410502154 4.9266790053377143 -1 0 0 I I #
point $-1 -43.573878680763997 43.187784410502154 4.9266790053377143 #
point $-1 -43.573878680763997 -43.187784410502154 4.9266790053377143 #
coedge $-1 $459 $346 $349 $471 forward $334 $-1 #
coedge $-1 $346 $459 $353 $473 reversed $334 $-1 #
straight-curve $-1 -64.728537858211013 0 15.823239988858948 0 1 0 I I #
edge $-1 $351 -15.823239988858948 $464 -4.9266790053377143 $349 $528 forward 7 unknown #
point $-1 -64.728537858211013 43.187784410502154 15.823239988858948 #
edge $-1 $354 -15.823239988858948 $462 -4.9266790053377143 $469 $529 forward 7 unknown #
point $-1 -64.728537858211013 -43.187784410502154 15.823239988858948 #
straight-curve $-1 -43.573878680763997 43.187784410502154 5.1874797485491655 0 0 -1 I I #
plane-surface $-1 64.728537858211013 0 0 -1 0 0 0 0 1 forward_v I I I I #
coedge $-1 $363 $362 $378 $488 reversed $142 $-1 #
edge $-1 $481 -43.187784410502154 $479 43.187784410502154 $362 $530 forward 7 unknown #
vertex $-1 $370 $531 #
straight-curve $-1 43.573878680764004 43.187784410502154 5.1874797485491655 0 0 1 I I #
vertex $-1 $368 $532 #
straight-curve $-1 27.075604134743756 -43.187784410502154 4.9266790053377143 1 0 0 I I #
straight-curve $-1 27.075604134743756 43.187784410502154 4.9266790053377143 -1 0 0 I I #
point $-1 64.728537858211013 -43.187784410502154 4.9266790053377143 #
point $-1 64.728537858211013 43.187784410502154 4.9266790053377143 #
straight-curve $-1 43.573878680764004 0 15.823239988858948 0 -1 0 I I #
point $-1 43.573878680764004 43.187784410502154 15.823239988858948 #
edge $-1 $380 -10.635760240309782 $481 0.26080074321145119 $378 $533 forward 7 unknown #
point $-1 43.573878680764004 -43.187784410502154 15.823239988858948 #
straight-curve $-1 64.728537858211013 -43.187784410502154 0 0 0 -1 I I #
straight-curve $-1 64.728537858211013 43.187784410502154 0 0 0 -1 I I #
edge $-1 $493 24.176096381628732 $496 39.114132384714466 $387 $534 forward 7 unknown #
vertex $-1 $492 $535 #
straight-curve $-1 -2.3249788878124349 -43.187784410502154 47.437201674744024 0 0 1 I I #
edge $-1 $496 -1.4898827513731128 $398 9.1196060297442081 $397 $536 forward 7 unknown #
vertex $-1 $495 $537 #
straight-curve $-1 -2.3249788878124349 -43.187784410502132 3.3344282999230188 0 -0.70710677298230451 -0.70710678939079041 I I #
point $-1 -2.3249788878124349 -43.187784410502154 3.3344282999229975 #
point $-1 -12.934467668929756 -28.249748407416419 18.272464649647407 #
straight-curve $-1 0 -43.187784410502154 18.272464649647407 1 0 0 I I #
vertex $-1 $404 $538 #
point $-1 -8.4031851600390937 -34.011649590564652 9.0963296960043927 #
vertex $-1 $408 $539 #
point $-1 -3.856261396703097 -34.011649590564652 9.0963296960043927 #
coedge $-1 $423 $422 $415 $506 forward $412 $-1 #
edge $-1 $507 2.8238376166253047 $510 16.014679327022627 $505 $540 forward 7 unknown #
vertex $-1 $506 $541 #
straight-curve $-1 -24.940983642407858 43.187784410502154 74.577783683132083 0 0 1 I I #
edge $-1 $510 -17.308406471142998 $424 2.043252128613279 $423 $542 forward 7 unknown #
vertex $-1 $509 $543 #
straight-curve $-1 -24.940983642407858 -9.9903248093577304 69.453834507082334 0 0.61566146476048833 -0.78801076186113728 I I #
point $-1 -24.940983642407858 43.187784410502154 1.3889567142536237 #
point $-1 -5.5893250426515806 29.996942700104832 18.272464649647404 #
straight-curve $-1 0 43.187784410502154 18.272464649647407 -1 0 0 I I #
vertex $-1 $430 $544 #
point $-1 -20.070651922456605 35.217078315929946 8.7562201217754083 #
vertex $-1 $434 $545 #
point $-1 -14.265154342529726 35.217078315929946 8.7562201217754083 #
vertex $-1 $438 $546 #
point $-1 -8.4596567626028474 35.217078315929946 8.7562201217754083 #
straight-curve $-1 -64.728537858211013 43.187784410502154 0 0 0 -1 I I #
point $-1 -64.728537858211013 -43.187784410502154 -18.272464649647407 #
straight-curve $-1 -64.728537858211013 0 -18.272464649647407 0 1 0 I I #
point $-1 -64.728537858211013 43.187784410502154 -18.272464649647407 #
straight-curve $-1 -64.728537858211013 0 4.9266790053377143 0 -1 0 I I #
point $-1 -64.728537858211013 -43.187784410502154 4.9266790053377143 #
point $-1 -64.728537858211013 43.187784410502154 4.9266790053377143 #
straight-curve $-1 -64.728537858211013 43.187784410502154 0 0 0 -1 I I #
straight-curve $-1 -64.728537858211013 -43.187784410502154 0 0 0 -1 I I #
straight-curve $-1 43.573878680764004 0 4.9266790053377143 0 1 0 I I #
point $-1 43.573878680764004 43.187784410502154 4.9266790053377143 #
point $-1 43.573878680764004 -43.187784410502154 4.9266790053377143 #
straight-curve $-1 43.573878680764004 -43.187784410502154 5.1874797485491655 0 0 -1 I I #
straight-curve $-1 -2.3249788878124349 -67.363880792130885 18.272464649647404 0 1 0 I I #
point $-1 -2.3249788878124349 -43.187784410502154 18.272464649647407 #
straight-curve $-1 -3.8148616391855477 -28.249748407416416 18.272464649647407 -1 0 0 I I #
point $-1 -2.3249788878124349 -28.249748407416419 18.272464649647407 #
point $-1 -9.9031851600390937 -32.950989406478463 8.0356695365309356 #
point $-1 -5.356261396703097 -32.950989406478463 8.0356695365309356 #
straight-curve $-1 -24.940983642407858 46.011622027127459 18.272464649647404 0 -1 0 I I #
point $-1 -24.940983642407858 43.187784410502154 18.272464649647407 #
straight-curve $-1 -7.6325771712648596 29.996942700104825 18.272464649647411 1 0 0 I I #
point $-1 -24.940983642407858 29.996942700104832 18.272464649647404 #
point $-1 -21.070651922456605 34.429067554068816 8.1405586570149193 #
point $-1 -15.265154342529726 34.429067554068816 8.1405586570149193 #
point $-1 -9.4596567626028474 34.429067554068816 8.1405586570149193 #
End-of-ACIS-data 