500 0 10 0           
7 Unknown 11 ACIS 5.0 NT 24 Fri Mar 26 20:07:44 1999 
-1 9.9999999999999995e-007 1e-010 
body $-1 $10 $-1 $11 #
body $-1 $12 $-1 $13 #
body $-1 $14 $-1 $15 #
body $-1 $16 $-1 $17 #
body $-1 $18 $-1 $19 #
body $-1 $20 $-1 $21 #
body $-1 $22 $-1 $23 #
body $-1 $24 $-1 $25 #
body $-1 $26 $-1 $27 #
body $-1 $28 $-1 $29 #
lump $-1 $-1 $30 $0 #
transform $-1 1 0 0 0 1 0 0 0 1 40.358897671437724 22.971697775846106 8.8158543513676797 1 rotate no_reflect no_shear #
lump $-1 $-1 $31 $1 #
transform $-1 1 0 0 0 1 0 0 0 1 40.358897671437724 22.971697775846106 8.8158543513676797 1 rotate no_reflect no_shear #
lump $-1 $-1 $32 $2 #
transform $-1 1 0 0 0 1 0 0 0 1 40.358897671437724 22.971697775846106 8.8158543513676797 1 rotate no_reflect no_shear #
lump $-1 $-1 $33 $3 #
transform $-1 1 0 0 0 1 0 0 0 1 40.358897671437724 22.971697775846106 8.8158543513676797 1 rotate no_reflect no_shear #
lump $-1 $-1 $34 $4 #
transform $-1 1 0 0 0 1 0 0 0 1 40.358897671437724 22.971697775846106 8.8158543513676797 1 rotate no_reflect no_shear #
lump $-1 $-1 $35 $5 #
transform $-1 1 0 0 0 1 0 0 0 1 40.358897671437724 22.971697775846106 8.8158543513676797 1 rotate no_reflect no_shear #
lump $-1 $-1 $36 $6 #
transform $-1 1 0 0 0 1 0 0 0 1 40.358897671437724 22.971697775846106 8.8158543513676797 1 rotate no_reflect no_shear #
lump $-1 $-1 $37 $7 #
transform $-1 1 0 0 0 1 0 0 0 1 40.358897671437724 22.971697775846106 8.8158543513676797 1 rotate no_reflect no_shear #
lump $-1 $-1 $38 $8 #
transform $-1 1 0 0 0 1 0 0 0 1 40.358897671437724 22.971697775846106 8.8158543513676797 1 rotate no_reflect no_shear #
lump $-1 $-1 $39 $9 #
transform $-1 1 0 0 0 1 0 0 0 1 40.358897671437724 22.971697775846106 8.8158543513676797 1 rotate no_reflect no_shear #
shell $-1 $-1 $-1 $40 $-1 $10 #
shell $-1 $-1 $-1 $41 $-1 $12 #
shell $-1 $-1 $-1 $42 $-1 $14 #
shell $-1 $-1 $-1 $43 $-1 $16 #
shell $-1 $-1 $-1 $44 $-1 $18 #
shell $-1 $-1 $-1 $45 $-1 $20 #
shell $-1 $-1 $-1 $46 $-1 $22 #
shell $-1 $-1 $-1 $47 $-1 $24 #
shell $-1 $-1 $-1 $48 $-1 $26 #
shell $-1 $-1 $-1 $49 $-1 $28 #
face $-1 $50 $51 $30 $-1 $52 forward single #
face $-1 $53 $54 $31 $-1 $55 reversed single #
face $-1 $56 $57 $32 $-1 $58 reversed single #
face $-1 $59 $60 $33 $-1 $61 forward single #
face $-1 $62 $63 $34 $-1 $64 forward single #
face $-1 $65 $66 $35 $-1 $67 forward single #
face $-1 $68 $69 $36 $-1 $70 reversed single #
face $-1 $71 $72 $37 $-1 $73 forward single #
face $-1 $74 $75 $38 $-1 $76 reversed single #
face $-1 $77 $78 $39 $-1 $79 forward single #
face $-1 $80 $81 $30 $-1 $82 reversed single #
loop $-1 $-1 $83 $40 #
plane-surface $-1 0 0 8.8158543513676797 0 0 1 1 0 0 forward_v I I I I #
face $-1 $84 $85 $31 $-1 $86 reversed single #
loop $-1 $-1 $87 $41 #
plane-surface $-1 -37.641267764371243 -19.496636342906402 0 1 0 0 0 0 -1 forward_v I I I I #
face $-1 $88 $89 $32 $-1 $90 reversed single #
loop $-1 $-1 $91 $42 #
plane-surface $-1 -83.132812954842578 1.1630569219863478 72.255321404959204 0 1 0 -0.52991927123019833 0 0.84804809178421925 forward_v I I I I #
face $-1 $92 $93 $33 $-1 $94 forward single #
loop $-1 $95 $96 $43 #
cone-surface $-1 -36.082615386850328 2.7072625308699614 5.8852776754940006 0.52991927123019833 0 -0.84804809178421925 0.21201202294605481 0 0.13247981780754958 1 I I 0 1 0.25 forward I I I I #
face $-1 $97 $98 $34 $-1 $99 forward single #
loop $-1 $100 $101 $44 #
cone-surface $-1 -36.082615386850328 5.0235709441953809 5.8852776754940006 0.52991927123019833 0 -0.84804809178421925 0.21201202294605481 0 0.13247981780754958 1 I I 0 1 0.25 forward I I I I #
face $-1 $102 $103 $35 $-1 $104 forward single #
loop $-1 $105 $106 $45 #
cone-surface $-1 -36.082615386850328 7.3398793575208003 5.8852776754940006 0.52991927123019833 0 -0.84804809178421925 0.21201202294605481 0 0.13247981780754958 1 I I 0 1 0.25 forward I I I I #
face $-1 $107 $108 $36 $-1 $109 reversed single #
loop $-1 $-1 $110 $46 #
plane-surface $-1 18.577631880240673 -7.9864075590244745 114.63420585106302 0 -1 0 -0.55919291073839883 0 -0.82903756765294845 forward_v I I I I #
face $-1 $111 $112 $37 $-1 $113 forward single #
loop $-1 $114 $115 $47 #
cone-surface $-1 35.263791027655586 -12.003991234495588 4.9977022701575988 -0.55919291073839883 0 -0.82903756765294845 0.82903756765294845 0 -0.55919291073839883 1 I I 0 1 1 forward I I I I #
face $-1 $116 $117 $38 $-1 $118 reversed single #
loop $-1 $-1 $119 $48 #
plane-surface $-1 18.577631880240673 11.51022878388193 114.63420585106302 0 -1 0 -0.55919291073839883 0 -0.82903756765294845 forward_v I I I I #
face $-1 $120 $121 $39 $-1 $122 forward single #
loop $-1 $123 $124 $49 #
cone-surface $-1 35.263791027655586 7.4926451084108159 4.9977022701575988 -0.55919291073839883 0 -0.82903756765294845 0.82903756765294845 0 -0.55919291073839883 1 I I 0 1 1 forward I I I I #
face $-1 $125 $126 $30 $-1 $127 reversed single #
loop $-1 $-1 $128 $50 #
plane-surface $-1 0 0 -8.8158543513676797 0 0 1 1 0 0 forward_v I I I I #
coedge $-1 $129 $130 $131 $132 forward $51 $-1 #
face $-1 $133 $134 $31 $-1 $135 reversed single #
loop $-1 $-1 $136 $53 #
plane-surface $-1 -36.141267764371243 -16.021574909966699 0 0 -1 0 0 0 -1 forward_v I I I I #
coedge $-1 $137 $138 $139 $140 forward $54 $-1 #
face $-1 $141 $142 $32 $-1 $143 reversed single #
loop $-1 $-1 $144 $56 #
plane-surface $-1 -40.358897671437724 5.0235709441953809 3.8027490914045359 -0.52991927123019833 0 0.84804809178421925 0.84804809178421925 0 0.52991927123019833 forward_v I I I I #
coedge $-1 $145 $146 $147 $148 reversed $57 $-1 #
face $-1 $-1 $149 $33 $-1 $150 forward single #
loop $-1 $151 $152 $59 #
cone-surface $-1 -35.751415842331454 2.7072625308699614 5.355247618128864 0.52991927123019833 0 -0.84804809178421925 0.10600601147302741 0 0.066239908903774791 1 I I -0.70710678118654746 0.70710678118654746 0.125 forward I I I I #
loop $-1 $-1 $153 $43 #
coedge $-1 $96 $96 $154 $155 reversed $60 $-1 #
face $-1 $-1 $156 $34 $-1 $157 forward single #
loop $-1 $158 $159 $62 #
cone-surface $-1 -35.751415842331454 5.0235709441953809 5.355247618128864 0.52991927123019833 0 -0.84804809178421925 0.10600601147302741 0 0.066239908903774791 1 I I -0.70710678118654746 0.70710678118654746 0.125 forward I I I I #
loop $-1 $-1 $160 $44 #
coedge $-1 $101 $101 $161 $162 reversed $63 $-1 #
face $-1 $-1 $163 $35 $-1 $164 forward single #
loop $-1 $165 $166 $65 #
cone-surface $-1 -35.751415842331454 7.3398793575208003 5.355247618128864 0.52991927123019833 0 -0.84804809178421925 0.10600601147302741 0 0.066239908903774791 1 I I -0.70710678118654746 0.70710678118654746 0.125 forward I I I I #
loop $-1 $-1 $167 $45 #
coedge $-1 $106 $106 $168 $169 reversed $66 $-1 #
face $-1 $170 $171 $36 $-1 $172 reversed single #
loop $-1 $-1 $173 $68 #
plane-surface $-1 -26.559187045928219 -12.003991234495588 47.716121133697058 0.55919291073839883 0 0.82903756765294845 0.82903756765294845 0 -0.55919291073839883 forward_v I I I I #
coedge $-1 $174 $175 $176 $177 reversed $69 $-1 #
face $-1 $-1 $178 $37 $-1 $179 forward single #
loop $-1 $180 $181 $71 #
cone-surface $-1 34.512122234359644 -12.003991234495588 3.8833074770408054 -0.55919291073839883 0 -0.82903756765294845 0.41451878382647422 0 -0.27959645536919941 1 I I -0.70710678118654746 0.70710678118654746 0.5 forward I I I I #
loop $-1 $-1 $182 $47 #
coedge $-1 $115 $115 $183 $184 reversed $72 $-1 #
face $-1 $185 $186 $38 $-1 $187 reversed single #
loop $-1 $-1 $188 $74 #
plane-surface $-1 -26.559187045928219 7.4926451084108159 47.716121133697058 0.55919291073839883 0 0.82903756765294845 0.82903756765294845 0 -0.55919291073839883 forward_v I I I I #
coedge $-1 $189 $190 $191 $192 reversed $75 $-1 #
face $-1 $-1 $193 $39 $-1 $194 forward single #
loop $-1 $195 $196 $77 #
cone-surface $-1 34.512122234359644 7.4926451084108159 3.8833074770408054 -0.55919291073839883 0 -0.82903756765294845 0.41451878382647422 0 -0.27959645536919941 1 I I -0.70710678118654746 0.70710678118654746 0.5 forward I I I I #
loop $-1 $-1 $197 $49 #
coedge $-1 $124 $124 $198 $199 reversed $78 $-1 #
face $-1 $200 $201 $30 $-1 $202 reversed single #
loop $-1 $-1 $203 $80 #
plane-surface $-1 0 -22.971697775846106 0 0 1 0 0 0 1 forward_v I I I I #
coedge $-1 $204 $205 $206 $207 forward $81 $-1 #
coedge $-1 $208 $83 $209 $210 forward $51 $-1 #
coedge $-1 $83 $208 $211 $212 forward $51 $-1 #
coedge $-1 $213 $214 $83 $132 reversed $215 $-1 #
edge $-1 $216 -22.971697775846106 $217 22.971697775846106 $131 $218 forward 7 unknown #
face $-1 $219 $220 $31 $-1 $221 forward single #
loop $-1 $-1 $222 $84 #
plane-surface $-1 -34.641267764371243 -19.496636342906402 0 -1 0 0 0 0 1 forward_v I I I I #
coedge $-1 $223 $224 $225 $226 forward $85 $-1 #
coedge $-1 $227 $87 $228 $229 reversed $54 $-1 #
coedge $-1 $87 $227 $230 $231 reversed $54 $-1 #
coedge $-1 $224 $223 $87 $140 reversed $85 $-1 #
edge $-1 $232 -8.8158543513676797 $233 8.8158543513676797 $139 $234 forward 7 unknown #
face $-1 $235 $236 $32 $-1 $237 reversed single #
loop $-1 $-1 $238 $88 #
plane-surface $-1 -83.132812954842578 8.8840849664044139 72.255321404959204 0 -1 0 0.52991927123019833 0 -0.84804809178421925 forward_v I I I I #
coedge $-1 $239 $240 $241 $242 reversed $89 $-1 #
coedge $-1 $146 $91 $243 $244 reversed $57 $-1 #
coedge $-1 $91 $145 $239 $245 reversed $57 $-1 #
coedge $-1 $241 $246 $91 $148 forward $247 $-1 #
edge $-1 $248 1.207508805983565 $249 9.2301541039281574 $147 $250 forward 7 unknown #
loop $-1 $-1 $154 $92 #
plane-surface $-1 -40.358897671437724 5.0235709441953809 3.8027490914045359 -0.52991927123019833 0 0.84804809178421925 0.84804809178421925 0 0.52991927123019833 forward_v I I I I #
loop $-1 $-1 $251 $59 #
coedge $-1 $152 $152 $153 $252 reversed $93 $-1 #
coedge $-1 $153 $153 $152 $252 forward $95 $-1 #
coedge $-1 $154 $154 $96 $155 forward $149 $-1 #
edge $-1 $253 0 $253 6.2831853071796004 $154 $254 forward 7 unknown #
loop $-1 $-1 $161 $97 #
plane-surface $-1 -40.358897671437724 5.0235709441953809 3.8027490914045359 -0.52991927123019833 0 0.84804809178421925 0.84804809178421925 0 0.52991927123019833 forward_v I I I I #
loop $-1 $-1 $255 $62 #
coedge $-1 $159 $159 $160 $256 reversed $98 $-1 #
coedge $-1 $160 $160 $159 $256 forward $100 $-1 #
coedge $-1 $161 $161 $101 $162 forward $156 $-1 #
edge $-1 $257 0 $257 6.2831853071796004 $161 $258 forward 7 unknown #
loop $-1 $-1 $168 $102 #
plane-surface $-1 -40.358897671437724 5.0235709441953809 3.8027490914045359 -0.52991927123019833 0 0.84804809178421925 0.84804809178421925 0 0.52991927123019833 forward_v I I I I #
loop $-1 $-1 $259 $65 #
coedge $-1 $166 $166 $167 $260 reversed $103 $-1 #
coedge $-1 $167 $167 $166 $260 forward $105 $-1 #
coedge $-1 $168 $168 $106 $169 forward $163 $-1 #
edge $-1 $261 0 $261 6.2831853071796004 $168 $262 forward 7 unknown #
face $-1 $263 $264 $36 $-1 $265 forward single #
loop $-1 $-1 $266 $107 #
plane-surface $-1 18.577631880240673 -16.021574909966702 114.63420585106302 0 1 0 0.55919291073839883 0 0.82903756765294845 forward_v I I I I #
coedge $-1 $267 $268 $269 $270 reversed $108 $-1 #
coedge $-1 $175 $110 $271 $272 reversed $69 $-1 #
coedge $-1 $110 $174 $267 $273 reversed $69 $-1 #
coedge $-1 $269 $274 $110 $177 forward $264 $-1 #
edge $-1 $275 -31.070081731317387 $276 -21.824013119606626 $176 $277 forward 7 unknown #
loop $-1 $-1 $183 $111 #
plane-surface $-1 -26.559187045928219 -12.003991234495588 47.716121133697058 0.55919291073839883 0 0.82903756765294845 0.82903756765294845 0 -0.55919291073839883 forward_v I I I I #
loop $-1 $-1 $278 $71 #
coedge $-1 $181 $181 $182 $279 reversed $112 $-1 #
coedge $-1 $182 $182 $181 $279 forward $114 $-1 #
coedge $-1 $183 $183 $115 $184 forward $178 $-1 #
edge $-1 $280 0 $280 6.2831853071796004 $183 $281 forward 7 unknown #
face $-1 $282 $283 $38 $-1 $284 reversed single #
loop $-1 $-1 $285 $116 #
plane-surface $-1 18.577631880240673 3.475061432939702 114.63420585106302 0 1 0 0.55919291073839883 0 0.82903756765294845 forward_v I I I I #
coedge $-1 $286 $287 $288 $289 reversed $117 $-1 #
coedge $-1 $190 $119 $290 $291 reversed $75 $-1 #
coedge $-1 $119 $189 $286 $292 reversed $75 $-1 #
coedge $-1 $288 $293 $119 $192 forward $294 $-1 #
edge $-1 $295 -31.070081731317387 $296 -21.824013119606626 $191 $297 forward 7 unknown #
loop $-1 $-1 $198 $120 #
plane-surface $-1 -26.559187045928219 7.4926451084108159 47.716121133697058 0.55919291073839883 0 0.82903756765294845 0.82903756765294845 0 -0.55919291073839883 forward_v I I I I #
loop $-1 $-1 $298 $77 #
coedge $-1 $196 $196 $197 $299 reversed $121 $-1 #
coedge $-1 $197 $197 $196 $299 forward $123 $-1 #
coedge $-1 $198 $198 $124 $199 forward $193 $-1 #
edge $-1 $300 0 $300 6.2831853071796004 $198 $301 forward 7 unknown #
face $-1 $302 $303 $30 $-1 $304 reversed single #
loop $-1 $-1 $305 $125 #
plane-surface $-1 -40.358897671437724 0 0 1 0 0 0 0 -1 forward_v I I I I #
coedge $-1 $306 $211 $307 $308 forward $126 $-1 #
coedge $-1 $309 $128 $306 $310 forward $81 $-1 #
coedge $-1 $128 $309 $311 $312 forward $81 $-1 #
coedge $-1 $214 $213 $128 $207 reversed $215 $-1 #
edge $-1 $313 -22.971697775846106 $314 22.971697775846106 $206 $315 forward 7 unknown #
coedge $-1 $130 $129 $316 $317 forward $51 $-1 #
coedge $-1 $318 $319 $129 $210 reversed $303 $-1 #
edge $-1 $217 -40.358897671437724 $320 40.358897671437724 $209 $321 forward 7 unknown #
coedge $-1 $203 $322 $130 $212 reversed $126 $-1 #
edge $-1 $323 -40.358897671437724 $216 40.358897671437724 $211 $324 forward 7 unknown #
coedge $-1 $206 $131 $322 $325 forward $215 $-1 #
coedge $-1 $131 $206 $318 $326 reversed $215 $-1 #
loop $-1 $-1 $213 $302 #
vertex $-1 $132 $327 #
vertex $-1 $132 $328 #
straight-curve $-1 40.358897671437724 0 8.8158543513676797 0 1 0 I I #
face $-1 $329 $330 $31 $-1 $331 reversed single #
loop $-1 $-1 $332 $133 #
plane-surface $-1 0 0 8.8158543513676797 0 0 1 1 0 0 forward_v I I I I #
coedge $-1 $333 $334 $335 $336 reversed $134 $-1 #
coedge $-1 $139 $136 $337 $338 reversed $85 $-1 #
coedge $-1 $136 $139 $339 $340 reversed $85 $-1 #
coedge $-1 $334 $333 $136 $226 reversed $134 $-1 #
edge $-1 $341 -8.8158543513676797 $342 8.8158543513676797 $225 $343 forward 7 unknown #
coedge $-1 $138 $137 $344 $345 reversed $54 $-1 #
coedge $-1 $337 $346 $137 $229 forward $330 $-1 #
edge $-1 $347 -13.223379604392905 $233 -6.2732567385134974 $228 $348 forward 7 unknown #
coedge $-1 $349 $339 $138 $231 forward $220 $-1 #
edge $-1 $232 6.2732567385134974 $350 13.223379604392905 $230 $351 forward 7 unknown #
vertex $-1 $231 $352 #
vertex $-1 $229 $353 #
straight-curve $-1 -37.641267764371243 -16.021574909966699 0 0 0 -1 I I #
face $-1 $-1 $247 $32 $-1 $354 forward single #
loop $-1 $-1 $355 $141 #
plane-surface $-1 -40.358897671437724 0 0 1 0 0 0 0 -1 forward_v I I I I #
coedge $-1 $356 $357 $358 $359 reversed $142 $-1 #
coedge $-1 $360 $144 $146 $245 forward $89 $-1 #
coedge $-1 $144 $360 $356 $361 forward $89 $-1 #
coedge $-1 $358 $147 $144 $242 forward $247 $-1 #
edge $-1 $249 -1.3487285501113426 $362 6.3722994943067235 $241 $363 forward 7 unknown #
coedge $-1 $364 $365 $145 $244 forward $236 $-1 #
edge $-1 $366 -32.324911611075066 $248 -27.311806351111922 $243 $367 forward 7 unknown #
edge $-1 $249 -9.460130121943493 $366 0 $146 $368 forward 7 unknown #
coedge $-1 $147 $358 $364 $369 forward $247 $-1 #
loop $-1 $-1 $358 $235 #
vertex $-1 $244 $370 #
vertex $-1 $148 $371 #
straight-curve $-1 -41.566406477421289 1.1630569219863478 8.8158543513676797 1 0 0 I I #
coedge $-1 $251 $251 $-1 $372 reversed $151 $-1 #
edge $-1 $373 0 $373 6.2831853071796004 $152 $374 forward 7 unknown #
vertex $-1 $155 $375 #
ellipse-curve $-1 -36.347575022465428 2.7072625308699614 6.3093017213861087 -0.52991927123019833 0 0.84804809178421925 0.21201202294605481 0 0.13247981780754958 1 I I #
coedge $-1 $255 $255 $-1 $376 reversed $158 $-1 #
edge $-1 $377 0 $377 6.2831853071796004 $159 $378 forward 7 unknown #
vertex $-1 $162 $379 #
ellipse-curve $-1 -36.347575022465428 5.0235709441953809 6.3093017213861087 -0.52991927123019833 0 0.84804809178421925 0.21201202294605481 0 0.13247981780754958 1 I I #
coedge $-1 $259 $259 $-1 $380 reversed $165 $-1 #
edge $-1 $381 0 $381 6.2831853071796004 $166 $382 forward 7 unknown #
vertex $-1 $169 $383 #
ellipse-curve $-1 -36.347575022465428 7.3398793575208003 6.3093017213861087 -0.52991927123019833 0 0.84804809178421925 0.21201202294605481 0 0.13247981780754958 1 I I #
face $-1 $-1 $384 $36 $-1 $385 reversed single #
loop $-1 $-1 $176 $170 #
plane-surface $-1 0 0 8.8158543513676797 0 0 1 1 0 0 forward_v I I I I #
coedge $-1 $386 $387 $388 $389 reversed $171 $-1 #
coedge $-1 $390 $173 $175 $273 forward $108 $-1 #
coedge $-1 $173 $390 $386 $391 forward $108 $-1 #
coedge $-1 $388 $176 $173 $270 forward $264 $-1 #
edge $-1 $276 1.9844119417766803 $392 10.019579292718909 $269 $393 forward 7 unknown #
coedge $-1 $394 $395 $174 $272 forward $384 $-1 #
edge $-1 $396 -54.737800718003335 $275 -48.501248574163824 $271 $397 forward 7 unknown #
edge $-1 $276 69.565021364385061 $396 80.717795342875434 $175 $398 forward 7 unknown #
coedge $-1 $176 $388 $394 $399 forward $264 $-1 #
vertex $-1 $272 $400 #
vertex $-1 $177 $401 #
straight-curve $-1 9.2888159401203367 -7.9864075590244745 8.8158543513676833 -1 0 0 I I #
coedge $-1 $278 $278 $-1 $402 reversed $180 $-1 #
edge $-1 $403 0 $403 6.2831853071796004 $181 $404 forward 7 unknown #
vertex $-1 $184 $405 #
ellipse-curve $-1 35.735863365582333 -12.003991234495588 5.6975782794479271 0.55919291073839883 0 0.82903756765294845 0.82903756765294845 0 -0.55919291073839883 1 I I #
face $-1 $-1 $294 $38 $-1 $406 forward single #
loop $-1 $-1 $407 $185 #
plane-surface $-1 40.358897671437724 0 0 -1 0 0 0 0 1 forward_v I I I I #
coedge $-1 $408 $409 $410 $411 reversed $186 $-1 #
coedge $-1 $412 $188 $190 $292 forward $117 $-1 #
coedge $-1 $188 $412 $408 $413 forward $117 $-1 #
coedge $-1 $410 $191 $188 $289 forward $294 $-1 #
edge $-1 $296 -7.7639062296765218 $414 0.2712611212657059 $288 $415 forward 7 unknown #
coedge $-1 $416 $417 $189 $291 forward $283 $-1 #
edge $-1 $418 -54.737800718003335 $295 -48.501248574163824 $290 $419 forward 7 unknown #
edge $-1 $296 69.565021364385061 $418 80.717795342875434 $190 $420 forward 7 unknown #
coedge $-1 $191 $410 $416 $421 forward $294 $-1 #
loop $-1 $-1 $410 $282 #
vertex $-1 $291 $422 #
vertex $-1 $192 $423 #
straight-curve $-1 9.2888159401203367 11.51022878388193 8.8158543513676833 -1 0 0 I I #
coedge $-1 $298 $298 $-1 $424 reversed $195 $-1 #
edge $-1 $425 0 $425 6.2831853071796004 $196 $426 forward 7 unknown #
vertex $-1 $199 $427 #
ellipse-curve $-1 35.735863365582333 7.4926451084108159 5.6975782794479271 0.55919291073839883 0 0.82903756765294845 0.82903756765294845 0 -0.55919291073839883 1 I I #
face $-1 $-1 $215 $30 $-1 $428 reversed single #
loop $-1 $-1 $318 $200 #
plane-surface $-1 0 22.971697775846106 0 0 -1 0 0 0 -1 forward_v I I I I #
coedge $-1 $429 $316 $319 $430 forward $201 $-1 #
coedge $-1 $322 $203 $204 $310 reversed $126 $-1 #
coedge $-1 $316 $429 $203 $308 reversed $201 $-1 #
edge $-1 $323 -8.8158543513676797 $431 8.8158543513676797 $307 $432 forward 7 unknown #
coedge $-1 $205 $204 $429 $433 forward $81 $-1 #
edge $-1 $314 -40.358897671437724 $431 40.358897671437724 $306 $434 forward 7 unknown #
coedge $-1 $319 $318 $205 $312 reversed $303 $-1 #
edge $-1 $435 -40.358897671437724 $313 40.358897671437724 $311 $436 forward 7 unknown #
vertex $-1 $207 $437 #
vertex $-1 $325 $438 #
straight-curve $-1 40.358897671437724 0 -8.8158543513676797 0 -1 0 I I #
coedge $-1 $305 $307 $208 $317 reversed $201 $-1 #
edge $-1 $320 -22.971697775846106 $323 22.971697775846106 $316 $439 forward 7 unknown #
coedge $-1 $311 $209 $214 $326 forward $303 $-1 #
coedge $-1 $209 $311 $305 $430 reversed $303 $-1 #
vertex $-1 $210 $440 #
straight-curve $-1 0 22.971697775846106 8.8158543513676797 -1 0 0 I I #
coedge $-1 $211 $306 $213 $325 reversed $126 $-1 #
vertex $-1 $317 $441 #
straight-curve $-1 0 -22.971697775846106 8.8158543513676797 1 0 0 I I #
edge $-1 $216 -8.8158543513676797 $314 8.8158543513676797 $213 $442 forward 7 unknown #
edge $-1 $217 -8.8158543513676797 $313 8.8158543513676797 $214 $443 forward 7 unknown #
point $-1 40.358897671437724 -22.971697775846106 8.8158543513676797 #
point $-1 40.358897671437724 22.971697775846106 8.8158543513676797 #
face $-1 $-1 $444 $31 $-1 $445 reversed single #
loop $-1 $-1 $446 $219 #
plane-surface $-1 0 0 -8.8158543513676797 0 0 1 1 0 0 forward_v I I I I #
coedge $-1 $339 $349 $334 $447 forward $220 $-1 #
coedge $-1 $225 $222 $446 $448 reversed $134 $-1 #
coedge $-1 $222 $225 $332 $447 reversed $134 $-1 #
coedge $-1 $449 $450 $222 $336 forward $444 $-1 #
edge $-1 $451 -8.8158543513676797 $452 8.8158543513676797 $335 $453 forward 7 unknown #
coedge $-1 $446 $228 $223 $338 forward $330 $-1 #
edge $-1 $233 -19.570633882185621 $342 -16.570633882185621 $337 $454 forward 7 unknown #
coedge $-1 $230 $332 $224 $340 forward $220 $-1 #
edge $-1 $341 16.570633882185621 $232 19.570633882185621 $339 $455 forward 7 unknown #
vertex $-1 $340 $456 #
vertex $-1 $338 $457 #
straight-curve $-1 -34.641267764371243 -16.021574909966699 0 0 0 -1 I I #
coedge $-1 $450 $449 $227 $345 forward $444 $-1 #
edge $-1 $350 -8.8158543513676797 $347 8.8158543513676797 $344 $458 forward 7 unknown #
coedge $-1 $228 $446 $450 $459 forward $330 $-1 #
vertex $-1 $229 $460 #
straight-curve $-1 -37.641267764371243 -9.7483181714532012 -8.8158543513676797 0 1 0 I I #
coedge $-1 $332 $230 $449 $461 forward $220 $-1 #
vertex $-1 $461 $462 #
straight-curve $-1 -37.641267764371243 -9.7483181714532012 8.8158543513676797 0 -1 0 I I #
point $-1 -37.641267764371243 -16.021574909966699 8.8158543513676797 #
point $-1 -37.641267764371243 -16.021574909966699 -8.8158543513676797 #
plane-surface $-1 0 0 8.8158543513676797 0 0 1 1 0 0 forward_v I I I I #
coedge $-1 $365 $364 $357 $463 forward $236 $-1 #
coedge $-1 $357 $238 $240 $361 reversed $142 $-1 #
coedge $-1 $238 $356 $355 $463 reversed $142 $-1 #
coedge $-1 $246 $241 $238 $359 forward $247 $-1 #
edge $-1 $362 -9.2301541039281574 $464 -1.207508805983565 $358 $465 forward 7 unknown #
coedge $-1 $240 $239 $365 $466 reversed $89 $-1 #
edge $-1 $467 0 $362 9.460130121943493 $356 $468 forward 7 unknown #
vertex $-1 $242 $469 #
straight-curve $-1 -32.336252373493132 2.5117854720976904 8.8158543513676797 0 1 0 I I #
coedge $-1 $355 $243 $246 $369 reversed $236 $-1 #
coedge $-1 $243 $355 $360 $466 forward $236 $-1 #
vertex $-1 $244 $470 #
straight-curve $-1 -40.358897671437724 1.1630569219863478 36.127660702479602 0 0 1 I I #
straight-curve $-1 -40.358897671437724 1.1630569219863478 3.8027490914045359 -0.84804809178421925 0 -0.52991927123019833 I I #
edge $-1 $464 -8.8840849664044139 $248 -1.1630569219863478 $364 $471 forward 7 unknown #
point $-1 -40.358897671437724 1.1630569219863478 8.8158543513676797 #
point $-1 -32.336252373493132 1.1630569219863478 8.8158543513676797 #
edge $-1 $472 1 $472 0 $251 $-1 forward 7 unknown #
vertex $-1 $252 $473 #
ellipse-curve $-1 -35.817655751235229 2.7072625308699614 5.4612536296018916 -0.52991927123019833 0 0.84804809178421925 0.21201202294605481 0 0.13247981780754958 1 I I #
point $-1 -36.135562999519372 2.7072625308699614 6.4417815391936601 #
edge $-1 $474 1 $474 0 $255 $-1 forward 7 unknown #
vertex $-1 $256 $475 #
ellipse-curve $-1 -35.817655751235229 5.0235709441953809 5.4612536296018916 -0.52991927123019833 0 0.84804809178421925 0.21201202294605481 0 0.13247981780754958 1 I I #
point $-1 -36.135562999519372 5.0235709441953809 6.4417815391936601 #
edge $-1 $476 1 $476 0 $259 $-1 forward 7 unknown #
vertex $-1 $260 $477 #
ellipse-curve $-1 -35.817655751235229 7.3398793575208003 5.4612536296018916 -0.52991927123019833 0 0.84804809178421925 0.21201202294605481 0 0.13247981780754958 1 I I #
point $-1 -36.135562999519372 7.3398793575208003 6.4417815391936601 #
loop $-1 $-1 $271 $263 #
plane-surface $-1 40.358897671437724 0 0 -1 0 0 0 0 1 forward_v I I I I #
coedge $-1 $387 $266 $268 $391 reversed $171 $-1 #
coedge $-1 $266 $386 $478 $479 reversed $171 $-1 #
coedge $-1 $274 $269 $266 $389 forward $264 $-1 #
edge $-1 $392 21.824013119606626 $480 31.070081731317387 $388 $481 forward 7 unknown #
coedge $-1 $268 $267 $395 $482 reversed $108 $-1 #
edge $-1 $483 -80.717795342875434 $392 -69.565021364385061 $386 $484 forward 7 unknown #
vertex $-1 $270 $485 #
straight-curve $-1 31.112829059726959 -6.0019956172477942 8.8158543513676797 0 -1 0 I I #
coedge $-1 $478 $271 $274 $399 reversed $384 $-1 #
coedge $-1 $271 $478 $390 $482 forward $384 $-1 #
vertex $-1 $272 $486 #
straight-curve $-1 40.358897671437724 -7.9864075590244745 57.317102925531508 0 0 1 I I #
straight-curve $-1 -26.559187045928219 -7.9864075590244745 47.716121133697058 0.82903756765294845 0 -0.55919291073839883 I I #
edge $-1 $480 -16.021574909966702 $275 -7.9864075590244745 $394 $487 forward 7 unknown #
point $-1 40.358897671437724 -7.9864075590244745 8.8158543513676797 #
point $-1 31.112829059726963 -7.9864075590244745 8.8158543513676761 #
edge $-1 $488 1 $488 0 $278 $-1 forward 7 unknown #
vertex $-1 $279 $489 #
ellipse-curve $-1 34.791718689728846 -12.003991234495588 4.2978262608672795 0.55919291073839883 0 0.82903756765294845 0.82903756765294845 0 -0.55919291073839883 1 I I #
point $-1 36.564900933235279 -12.003991234495588 5.1383853687095176 #
plane-surface $-1 0 0 8.8158543513676797 0 0 1 1 0 0 forward_v I I I I #
coedge $-1 $417 $416 $409 $490 forward $283 $-1 #
coedge $-1 $409 $285 $287 $413 reversed $186 $-1 #
coedge $-1 $285 $408 $407 $490 reversed $186 $-1 #
coedge $-1 $293 $288 $285 $411 forward $294 $-1 #
edge $-1 $414 21.824013119606626 $491 31.070081731317387 $410 $492 forward 7 unknown #
coedge $-1 $287 $286 $417 $493 reversed $117 $-1 #
edge $-1 $494 -80.717795342875434 $414 -69.565021364385061 $408 $495 forward 7 unknown #
vertex $-1 $289 $496 #
straight-curve $-1 31.112829059726959 3.7463225542054079 8.8158543513676797 0 -1 0 I I #
coedge $-1 $407 $290 $293 $421 reversed $283 $-1 #
coedge $-1 $290 $407 $412 $493 forward $283 $-1 #
vertex $-1 $291 $497 #
straight-curve $-1 40.358897671437724 11.51022878388193 57.317102925531508 0 0 1 I I #
straight-curve $-1 -26.559187045928219 11.51022878388193 47.716121133697058 0.82903756765294845 0 -0.55919291073839883 I I #
edge $-1 $491 3.475061432939702 $295 11.51022878388193 $416 $498 forward 7 unknown #
point $-1 40.358897671437724 11.51022878388193 8.8158543513676797 #
point $-1 31.112829059726963 11.51022878388193 8.8158543513676761 #
edge $-1 $499 1 $499 0 $298 $-1 forward 7 unknown #
vertex $-1 $299 $500 #
ellipse-curve $-1 34.791718689728846 7.4926451084108159 4.2978262608672795 0.55919291073839883 0 0.82903756765294845 0.82903756765294845 0 -0.55919291073839883 1 I I #
point $-1 36.564900933235279 7.4926451084108159 5.1383853687095176 #
plane-surface $-1 40.358897671437724 0 0 -1 0 0 0 0 1 forward_v I I I I #
coedge $-1 $307 $305 $309 $433 reversed $201 $-1 #
edge $-1 $320 -8.8158543513676797 $435 8.8158543513676797 $319 $501 forward 7 unknown #
vertex $-1 $433 $502 #
straight-curve $-1 -40.358897671437724 -22.971697775846106 0 0 0 -1 I I #
edge $-1 $431 -22.971697775846106 $435 22.971697775846106 $429 $503 forward 7 unknown #
straight-curve $-1 0 -22.971697775846106 -8.8158543513676797 -1 0 0 I I #
vertex $-1 $312 $504 #
straight-curve $-1 0 22.971697775846106 -8.8158543513676797 1 0 0 I I #
point $-1 40.358897671437724 22.971697775846106 -8.8158543513676797 #
point $-1 40.358897671437724 -22.971697775846106 -8.8158543513676797 #
straight-curve $-1 -40.358897671437724 0 8.8158543513676797 0 -1 0 I I #
point $-1 -40.358897671437724 22.971697775846106 8.8158543513676797 #
point $-1 -40.358897671437724 -22.971697775846106 8.8158543513676797 #
straight-curve $-1 40.358897671437724 -22.971697775846106 0 0 0 -1 I I #
straight-curve $-1 40.358897671437724 22.971697775846106 0 0 0 -1 I I #
loop $-1 $-1 $335 $329 #
plane-surface $-1 0 -22.971697775846106 0 0 1 0 0 0 1 forward_v I I I I #
coedge $-1 $346 $337 $333 $448 forward $330 $-1 #
edge $-1 $452 -13.223379604392905 $341 -6.2732567385134974 $332 $505 forward 7 unknown #
edge $-1 $342 6.2732567385134974 $451 13.223379604392905 $446 $506 forward 7 unknown #
coedge $-1 $344 $335 $349 $461 reversed $444 $-1 #
coedge $-1 $335 $344 $346 $459 reversed $444 $-1 #
vertex $-1 $459 $507 #
vertex $-1 $336 $508 #
straight-curve $-1 -34.641267764371243 -22.971697775846106 0 0 0 1 I I #
straight-curve $-1 -18.070633882185621 -16.021574909966699 -8.8158543513676797 1 0 0 I I #
straight-curve $-1 -18.070633882185621 -16.021574909966699 8.8158543513676797 -1 0 0 I I #
point $-1 -34.641267764371243 -16.021574909966699 8.8158543513676797 #
point $-1 -34.641267764371243 -16.021574909966699 -8.8158543513676797 #
straight-curve $-1 -37.641267764371243 -22.971697775846106 0 0 0 -1 I I #
edge $-1 $451 34.641267764371243 $347 37.641267764371243 $450 $509 forward 7 unknown #
point $-1 -37.641267764371243 -22.971697775846106 -8.8158543513676797 #
edge $-1 $350 -37.641267764371243 $452 -34.641267764371243 $449 $510 forward 7 unknown #
point $-1 -37.641267764371243 -22.971697775846106 8.8158543513676797 #
edge $-1 $464 27.311806351111922 $467 32.324911611075066 $355 $511 forward 7 unknown #
vertex $-1 $369 $512 #
straight-curve $-1 -41.566406477421289 8.8840849664044139 8.8158543513676797 -1 0 0 I I #
edge $-1 $467 -6.3722994943067235 $366 1.3487285501113426 $365 $513 forward 7 unknown #
vertex $-1 $466 $514 #
straight-curve $-1 -40.358897671437724 8.8840849664044139 3.8027490914045359 0.84804809178421925 0 0.52991927123019833 I I #
point $-1 -32.336252373493132 8.8840849664044139 8.8158543513676797 #
point $-1 -40.358897671437724 1.1630569219863478 3.8027490914045359 #
straight-curve $-1 -40.358897671437724 0 8.8158543513676797 0 -1 0 I I #
vertex $-1 $372 $515 #
point $-1 -35.605643728289174 2.7072625308699614 5.5937334474094413 #
vertex $-1 $376 $516 #
point $-1 -35.605643728289174 5.0235709441953809 5.5937334474094413 #
vertex $-1 $380 $517 #
point $-1 -35.605643728289174 7.3398793575208003 5.5937334474094413 #
coedge $-1 $395 $394 $387 $479 forward $384 $-1 #
edge $-1 $480 48.501248574163824 $483 54.737800718003335 $478 $518 forward 7 unknown #
vertex $-1 $399 $519 #
straight-curve $-1 9.2888159401203367 -16.021574909966702 8.8158543513676833 1 0 0 I I #
edge $-1 $483 -10.019579292718909 $396 -1.9844119417766803 $395 $520 forward 7 unknown #
vertex $-1 $482 $521 #
straight-curve $-1 -26.559187045928219 -16.021574909966702 47.716121133697058 -0.82903756765294845 0 0.55919291073839883 I I #
point $-1 31.112829059726963 -16.021574909966702 8.8158543513676761 #
point $-1 40.358897671437724 -7.9864075590244745 2.5793022075281726 #
straight-curve $-1 40.358897671437724 0 8.8158543513676797 0 1 0 I I #
vertex $-1 $402 $522 #
point $-1 35.620756257381792 -12.003991234495588 3.7386333501288807 #
edge $-1 $491 48.501248574163824 $494 54.737800718003335 $407 $523 forward 7 unknown #
vertex $-1 $421 $524 #
straight-curve $-1 9.2888159401203367 3.475061432939702 8.8158543513676833 1 0 0 I I #
edge $-1 $494 -0.2712611212657059 $418 7.7639062296765218 $417 $525 forward 7 unknown #
vertex $-1 $493 $526 #
straight-curve $-1 -26.559187045928219 3.475061432939702 47.716121133697058 -0.82903756765294845 0 0.55919291073839883 I I #
point $-1 31.112829059726963 3.475061432939702 8.8158543513676761 #
point $-1 40.358897671437724 11.51022878388193 2.5793022075281726 #
straight-curve $-1 40.358897671437724 0 8.8158543513676797 0 1 0 I I #
vertex $-1 $424 $527 #
point $-1 35.620756257381792 7.4926451084108159 3.7386333501288807 #
straight-curve $-1 -40.358897671437724 22.971697775846106 0 0 0 -1 I I #
point $-1 -40.358897671437724 -22.971697775846106 -8.8158543513676797 #
straight-curve $-1 -40.358897671437724 0 -8.8158543513676797 0 1 0 I I #
point $-1 -40.358897671437724 22.971697775846106 -8.8158543513676797 #
straight-curve $-1 -34.641267764371243 -9.7483181714532012 8.8158543513676797 0 1 0 I I #
straight-curve $-1 -34.641267764371243 -9.7483181714532012 -8.8158543513676797 0 -1 0 I I #
point $-1 -34.641267764371243 -22.971697775846106 -8.8158543513676797 #
point $-1 -34.641267764371243 -22.971697775846106 8.8158543513676797 #
straight-curve $-1 0 -22.971697775846106 -8.8158543513676797 -1 0 0 I I #
straight-curve $-1 0 -22.971697775846106 8.8158543513676797 1 0 0 I I #
straight-curve $-1 -40.358897671437724 8.8840849664044139 36.127660702479602 0 0 -1 I I #
point $-1 -40.358897671437724 8.8840849664044139 8.8158543513676797 #
straight-curve $-1 -40.358897671437724 2.5117854720976904 3.8027490914045354 0 -1 0 I I #
point $-1 -40.358897671437724 8.8840849664044139 3.8027490914045359 #
point $-1 -35.685175933427679 2.7072625308699614 5.2492416066558363 #
point $-1 -35.685175933427679 5.0235709441953809 5.2492416066558363 #
point $-1 -35.685175933427679 7.3398793575208003 5.2492416066558363 #
straight-curve $-1 40.358897671437724 -16.021574909966702 57.317102925531508 0 0 -1 I I #
point $-1 40.358897671437724 -16.021574909966702 8.8158543513676797 #
straight-curve $-1 40.358897671437731 -6.0019956172477942 2.5793022075281655 0 1 0 I I #
point $-1 40.358897671437724 -16.021574909966702 2.5793022075281726 #
point $-1 34.232525778990443 -12.003991234495588 3.4687886932143313 #
straight-curve $-1 40.358897671437724 3.475061432939702 57.317102925531508 0 0 -1 I I #
point $-1 40.358897671437724 3.475061432939702 8.8158543513676797 #
straight-curve $-1 40.358897671437731 3.7463225542054079 2.5793022075281655 0 1 0 I I #
point $-1 40.358897671437724 3.475061432939702 2.5793022075281726 #
point $-1 34.232525778990443 7.4926451084108159 3.4687886932143313 #
End-of-ACIS-data 