500 0 10 0           
7 Unknown 11 ACIS 5.0 NT 24 Thu Mar 25 18:11:28 1999 
-1 9.9999999999999995e-007 1e-010 
body $-1 $10 $-1 $11 #
body $-1 $12 $-1 $13 #
body $-1 $14 $-1 $15 #
body $-1 $16 $-1 $17 #
body $-1 $18 $-1 $19 #
body $-1 $20 $-1 $21 #
body $-1 $22 $-1 $23 #
body $-1 $24 $-1 $25 #
body $-1 $26 $-1 $27 #
body $-1 $28 $-1 $29 #
lump $-1 $-1 $30 $0 #
transform $-1 1 0 0 0 1 0 0 0 1 66.118961149937434 43.251046390575546 12.374469277230345 1 rotate no_reflect no_shear #
lump $-1 $-1 $31 $1 #
transform $-1 1 0 0 0 1 0 0 0 1 66.118961149937434 43.251046390575546 12.374469277230345 1 rotate no_reflect no_shear #
lump $-1 $-1 $32 $2 #
transform $-1 1 0 0 0 1 0 0 0 1 66.118961149937434 43.251046390575546 12.374469277230345 1 rotate no_reflect no_shear #
lump $-1 $-1 $33 $3 #
transform $-1 1 0 0 0 1 0 0 0 1 66.118961149937434 43.251046390575546 12.374469277230345 1 rotate no_reflect no_shear #
lump $-1 $-1 $34 $4 #
transform $-1 1 0 0 0 1 0 0 0 1 66.118961149937434 43.251046390575546 12.374469277230345 1 rotate no_reflect no_shear #
lump $-1 $-1 $35 $5 #
transform $-1 1 0 0 0 1 0 0 0 1 66.118961149937434 43.251046390575546 12.374469277230345 1 rotate no_reflect no_shear #
lump $-1 $-1 $36 $6 #
transform $-1 1 0 0 0 1 0 0 0 1 66.118961149937434 43.251046390575546 12.374469277230345 1 rotate no_reflect no_shear #
lump $-1 $-1 $37 $7 #
transform $-1 1 0 0 0 1 0 0 0 1 66.118961149937434 43.251046390575546 12.374469277230345 1 rotate no_reflect no_shear #
lump $-1 $-1 $38 $8 #
transform $-1 1 0 0 0 1 0 0 0 1 66.118961149937434 43.251046390575546 12.374469277230345 1 rotate no_reflect no_shear #
lump $-1 $-1 $39 $9 #
transform $-1 1 0 0 0 1 0 0 0 1 66.118961149937434 43.251046390575546 12.374469277230345 1 rotate no_reflect no_shear #
shell $-1 $-1 $-1 $40 $-1 $10 #
shell $-1 $-1 $-1 $41 $-1 $12 #
shell $-1 $-1 $-1 $42 $-1 $14 #
shell $-1 $-1 $-1 $43 $-1 $16 #
shell $-1 $-1 $-1 $44 $-1 $18 #
shell $-1 $-1 $-1 $45 $-1 $20 #
shell $-1 $-1 $-1 $46 $-1 $22 #
shell $-1 $-1 $-1 $47 $-1 $24 #
shell $-1 $-1 $-1 $48 $-1 $26 #
shell $-1 $-1 $-1 $49 $-1 $28 #
face $-1 $50 $51 $30 $-1 $52 forward single #
face $-1 $53 $54 $31 $-1 $55 forward single #
face $-1 $56 $57 $32 $-1 $58 reversed single #
face $-1 $59 $60 $33 $-1 $61 forward single #
face $-1 $62 $63 $34 $-1 $64 reversed single #
face $-1 $65 $66 $35 $-1 $67 forward single #
face $-1 $68 $69 $36 $-1 $70 reversed single #
face $-1 $71 $72 $37 $-1 $73 forward single #
face $-1 $74 $75 $38 $-1 $76 reversed single #
face $-1 $77 $78 $39 $-1 $79 forward single #
face $-1 $80 $81 $30 $-1 $82 reversed single #
loop $-1 $-1 $83 $40 #
plane-surface $-1 0 0 12.374469277230345 0 0 1 1 0 0 forward_v I I I I #
face $-1 $84 $85 $31 $-1 $86 reversed single #
loop $-1 $-1 $87 $41 #
plane-surface $-1 0 -36.993768940081111 -5.8037307001701688 0 0 1 1 0 0 forward_v I I I I #
face $-1 $88 $89 $32 $-1 $90 reversed single #
loop $-1 $-1 $91 $42 #
plane-surface $-1 -157.9791418468069 -26.912344695114641 103.33806823116393 0 1 0 -0.69465837861970381 0 0.71933979245794832 forward_v I I I I #
face $-1 $92 $93 $33 $-1 $94 forward single #
loop $-1 $95 $96 $43 #
cone-surface $-1 -63.225174267146912 -17.669321634596528 9.5283115965462084 0.69465837861970381 0 -0.71933979245794832 0.71933979245794832 0 0.69465837861970381 1 I I 0 1 1 forward I I I I #
face $-1 $97 $98 $34 $-1 $99 reversed single #
loop $-1 $-1 $100 $44 #
plane-surface $-1 -157.9791418468069 10.081424244966474 103.33806823116393 0 1 0 -0.69465837861970381 0 0.71933979245794832 forward_v I I I I #
face $-1 $101 $102 $35 $-1 $103 forward single #
loop $-1 $104 $105 $45 #
cone-surface $-1 -63.225174267146912 19.324447305484583 9.5283115965462084 0.69465837861970381 0 -0.71933979245794832 0.71933979245794832 0 0.69465837861970381 1 I I 0 1 1 forward I I I I #
face $-1 $106 $107 $36 $-1 $108 reversed single #
loop $-1 $-1 $109 $46 #
plane-surface $-1 62.855142264544611 -8.4262985740784089 195.19824892803342 0 -1 0 -0.69465837861970381 0 -0.71933979245794832 forward_v I I I I #
face $-1 $110 $111 $37 $-1 $112 forward single #
loop $-1 $113 $114 $47 #
cone-surface $-1 63.225174267146912 -17.669321634596528 9.5283115965462368 -0.69465837861970381 0 -0.71933979245794832 0.71933979245794832 0 -0.69465837861970381 1 I I 0 1 1 forward I I I I #
face $-1 $115 $116 $38 $-1 $117 reversed single #
loop $-1 $-1 $118 $48 #
plane-surface $-1 62.855142264544611 28.567470366002706 195.19824892803342 0 -1 0 -0.69465837861970381 0 -0.71933979245794832 forward_v I I I I #
face $-1 $119 $120 $39 $-1 $121 forward single #
loop $-1 $122 $123 $49 #
cone-surface $-1 63.225174267146912 19.324447305484583 9.5283115965462368 -0.69465837861970381 0 -0.71933979245794832 0.71933979245794832 0 -0.69465837861970381 1 I I 0 1 1 forward I I I I #
face $-1 $124 $125 $30 $-1 $126 reversed single #
loop $-1 $-1 $127 $50 #
plane-surface $-1 0 0 -12.374469277230345 0 0 1 1 0 0 forward_v I I I I #
coedge $-1 $128 $129 $130 $131 forward $51 $-1 #
face $-1 $132 $133 $31 $-1 $134 reversed single #
loop $-1 $-1 $135 $53 #
plane-surface $-1 0 -30.736491489586673 -9.0890999887002568 0 -1 0 0 0 -1 forward_v I I I I #
coedge $-1 $136 $137 $138 $139 reversed $54 $-1 #
face $-1 $140 $141 $32 $-1 $142 reversed single #
loop $-1 $-1 $143 $56 #
plane-surface $-1 -66.118961149937448 -17.669321634596525 8.2140686489016446 -0.69465837861970381 0 0.71933979245794832 0.71933979245794832 0 0.69465837861970381 forward_v I I I I #
coedge $-1 $144 $145 $146 $147 reversed $57 $-1 #
face $-1 $-1 $148 $33 $-1 $149 forward single #
loop $-1 $150 $151 $59 #
cone-surface $-1 -62.138168630215034 -17.669321634596528 8.4026843337974402 0.69465837861970381 0 -0.71933979245794832 0.35966989622897416 0 0.3473291893098519 1 I I -0.70710678118654746 0.70710678118654746 0.5 forward I I I I #
loop $-1 $-1 $152 $43 #
coedge $-1 $96 $96 $153 $154 reversed $60 $-1 #
face $-1 $155 $156 $34 $-1 $157 reversed single #
loop $-1 $-1 $158 $62 #
plane-surface $-1 -66.118961149937448 19.32444730548459 8.2140686489016446 -0.69465837861970381 0 0.71933979245794832 0.71933979245794832 0 0.69465837861970381 forward_v I I I I #
coedge $-1 $159 $160 $161 $162 reversed $63 $-1 #
face $-1 $-1 $163 $35 $-1 $164 forward single #
loop $-1 $165 $166 $65 #
cone-surface $-1 -62.138168630215034 19.324447305484583 8.4026843337974402 0.69465837861970381 0 -0.71933979245794832 0.35966989622897416 0 0.3473291893098519 1 I I -0.70710678118654746 0.70710678118654746 0.5 forward I I I I #
loop $-1 $-1 $167 $45 #
coedge $-1 $105 $105 $168 $169 reversed $66 $-1 #
face $-1 $170 $171 $36 $-1 $172 reversed single #
loop $-1 $-1 $173 $68 #
plane-surface $-1 -29.005038432324838 -17.669321634596525 100.07424934577114 0.69465837861970381 0 0.71933979245794832 0.71933979245794832 0 -0.69465837861970381 forward_v I I I I #
coedge $-1 $174 $175 $176 $177 reversed $69 $-1 #
face $-1 $-1 $178 $37 $-1 $179 forward single #
loop $-1 $180 $181 $71 #
cone-surface $-1 62.138168630215034 -17.669321634596528 8.4026843337974686 -0.69465837861970381 0 -0.71933979245794832 0.35966989622897416 0 -0.3473291893098519 1 I I -0.70710678118654746 0.70710678118654746 0.5 forward I I I I #
loop $-1 $-1 $182 $47 #
coedge $-1 $114 $114 $183 $184 reversed $72 $-1 #
face $-1 $185 $186 $38 $-1 $187 reversed single #
loop $-1 $-1 $188 $74 #
plane-surface $-1 -29.005038432324838 19.32444730548459 100.07424934577114 0.69465837861970381 0 0.71933979245794832 0.71933979245794832 0 -0.69465837861970381 forward_v I I I I #
coedge $-1 $189 $190 $191 $192 reversed $75 $-1 #
face $-1 $-1 $193 $39 $-1 $194 forward single #
loop $-1 $195 $196 $77 #
cone-surface $-1 62.138168630215034 19.324447305484583 8.4026843337974686 -0.69465837861970381 0 -0.71933979245794832 0.35966989622897416 0 -0.3473291893098519 1 I I -0.70710678118654746 0.70710678118654746 0.5 forward I I I I #
loop $-1 $-1 $197 $49 #
coedge $-1 $123 $123 $198 $199 reversed $78 $-1 #
face $-1 $200 $201 $30 $-1 $202 reversed single #
loop $-1 $-1 $203 $80 #
plane-surface $-1 0 -43.251046390575546 0 0 1 0 0 0 1 forward_v I I I I #
coedge $-1 $204 $205 $206 $207 forward $81 $-1 #
coedge $-1 $208 $83 $209 $210 forward $51 $-1 #
coedge $-1 $83 $208 $211 $212 forward $51 $-1 #
coedge $-1 $213 $214 $83 $131 reversed $215 $-1 #
edge $-1 $216 -43.251046390575546 $217 43.251046390575546 $130 $218 forward 7 unknown #
face $-1 $219 $220 $31 $-1 $221 reversed single #
loop $-1 $-1 $222 $84 #
plane-surface $-1 0 0 -12.374469277230345 0 0 1 1 0 0 forward_v I I I I #
coedge $-1 $223 $224 $225 $226 reversed $85 $-1 #
coedge $-1 $227 $87 $224 $228 forward $54 $-1 #
coedge $-1 $87 $227 $229 $230 reversed $54 $-1 #
coedge $-1 $231 $225 $87 $139 forward $220 $-1 #
edge $-1 $232 12.239607019546117 $233 24.754161920534997 $138 $234 forward 7 unknown #
face $-1 $235 $236 $32 $-1 $237 forward single #
loop $-1 $-1 $238 $88 #
plane-surface $-1 -157.9791418468069 -8.4262985740784089 103.33806823116393 0 -1 0 0.69465837861970381 0 -0.71933979245794832 forward_v I I I I #
coedge $-1 $239 $240 $241 $242 reversed $89 $-1 #
coedge $-1 $145 $91 $243 $244 reversed $57 $-1 #
coedge $-1 $91 $144 $239 $245 reversed $57 $-1 #
coedge $-1 $241 $246 $91 $147 forward $236 $-1 #
edge $-1 $247 12.870609773466015 $248 17.178830643803025 $146 $249 forward 7 unknown #
loop $-1 $-1 $153 $92 #
plane-surface $-1 -66.118961149937448 -17.669321634596525 8.2140686489016446 -0.69465837861970381 0 0.71933979245794832 0.71933979245794832 0 0.69465837861970381 forward_v I I I I #
loop $-1 $-1 $250 $59 #
coedge $-1 $151 $151 $152 $251 reversed $93 $-1 #
coedge $-1 $152 $152 $151 $251 forward $95 $-1 #
coedge $-1 $153 $153 $96 $154 forward $148 $-1 #
edge $-1 $252 0 $252 6.2831853071796004 $153 $253 forward 7 unknown #
face $-1 $254 $255 $34 $-1 $256 forward single #
loop $-1 $-1 $257 $97 #
plane-surface $-1 -157.9791418468069 28.567470366002706 103.33806823116393 0 -1 0 0.69465837861970381 0 -0.71933979245794832 forward_v I I I I #
coedge $-1 $258 $259 $260 $261 reversed $98 $-1 #
coedge $-1 $160 $100 $262 $263 reversed $63 $-1 #
coedge $-1 $100 $159 $258 $264 reversed $63 $-1 #
coedge $-1 $260 $265 $100 $162 forward $255 $-1 #
edge $-1 $266 12.870609773466015 $267 17.178830643803025 $161 $268 forward 7 unknown #
loop $-1 $-1 $168 $101 #
plane-surface $-1 -66.118961149937448 19.32444730548459 8.2140686489016446 -0.69465837861970381 0 0.71933979245794832 0.71933979245794832 0 0.69465837861970381 forward_v I I I I #
loop $-1 $-1 $269 $65 #
coedge $-1 $166 $166 $167 $270 reversed $102 $-1 #
coedge $-1 $167 $167 $166 $270 forward $104 $-1 #
coedge $-1 $168 $168 $105 $169 forward $163 $-1 #
edge $-1 $271 0 $271 6.2831853071796004 $168 $272 forward 7 unknown #
face $-1 $273 $274 $36 $-1 $275 reversed single #
loop $-1 $-1 $276 $106 #
plane-surface $-1 62.855142264544611 -26.912344695114641 195.19824892803342 0 1 0 0.69465837861970381 0 0.71933979245794832 forward_v I I I I #
coedge $-1 $277 $278 $279 $280 reversed $107 $-1 #
coedge $-1 $175 $109 $281 $282 reversed $69 $-1 #
coedge $-1 $109 $174 $277 $283 reversed $69 $-1 #
coedge $-1 $279 $284 $109 $177 forward $285 $-1 #
edge $-1 $286 -34.691390017665128 $287 -30.383169147328161 $176 $288 forward 7 unknown #
loop $-1 $-1 $183 $110 #
plane-surface $-1 -29.005038432324838 -17.669321634596525 100.07424934577114 0.69465837861970381 0 0.71933979245794832 0.71933979245794832 0 -0.69465837861970381 forward_v I I I I #
loop $-1 $-1 $289 $71 #
coedge $-1 $181 $181 $182 $290 reversed $111 $-1 #
coedge $-1 $182 $182 $181 $290 forward $113 $-1 #
coedge $-1 $183 $183 $114 $184 forward $178 $-1 #
edge $-1 $291 0 $291 6.2831853071796004 $183 $292 forward 7 unknown #
face $-1 $293 $294 $38 $-1 $295 reversed single #
loop $-1 $-1 $296 $115 #
plane-surface $-1 62.855142264544611 10.081424244966474 195.19824892803342 0 1 0 0.69465837861970381 0 0.71933979245794832 forward_v I I I I #
coedge $-1 $297 $298 $299 $300 reversed $116 $-1 #
coedge $-1 $190 $118 $301 $302 reversed $75 $-1 #
coedge $-1 $118 $189 $297 $303 reversed $75 $-1 #
coedge $-1 $299 $304 $118 $192 forward $305 $-1 #
edge $-1 $306 -34.691390017665128 $307 -30.383169147328161 $191 $308 forward 7 unknown #
loop $-1 $-1 $198 $119 #
plane-surface $-1 -29.005038432324838 19.32444730548459 100.07424934577114 0.69465837861970381 0 0.71933979245794832 0.71933979245794832 0 -0.69465837861970381 forward_v I I I I #
loop $-1 $-1 $309 $77 #
coedge $-1 $196 $196 $197 $310 reversed $120 $-1 #
coedge $-1 $197 $197 $196 $310 forward $122 $-1 #
coedge $-1 $198 $198 $123 $199 forward $193 $-1 #
edge $-1 $311 0 $311 6.2831853071796004 $198 $312 forward 7 unknown #
face $-1 $313 $314 $30 $-1 $315 reversed single #
loop $-1 $-1 $316 $124 #
plane-surface $-1 -66.118961149937434 0 0 1 0 0 0 0 -1 forward_v I I I I #
coedge $-1 $317 $211 $318 $319 forward $125 $-1 #
coedge $-1 $320 $127 $317 $321 forward $81 $-1 #
coedge $-1 $127 $320 $322 $323 forward $81 $-1 #
coedge $-1 $214 $213 $127 $207 reversed $215 $-1 #
edge $-1 $324 -43.251046390575546 $325 43.251046390575546 $206 $326 forward 7 unknown #
coedge $-1 $129 $128 $327 $328 forward $51 $-1 #
coedge $-1 $329 $330 $128 $210 reversed $314 $-1 #
edge $-1 $217 -66.118961149937434 $331 66.118961149937434 $209 $332 forward 7 unknown #
coedge $-1 $203 $333 $129 $212 reversed $125 $-1 #
edge $-1 $334 -66.118961149937434 $216 66.118961149937434 $211 $335 forward 7 unknown #
coedge $-1 $206 $130 $333 $336 forward $215 $-1 #
coedge $-1 $130 $206 $329 $337 reversed $215 $-1 #
loop $-1 $-1 $213 $313 #
vertex $-1 $131 $338 #
vertex $-1 $131 $339 #
straight-curve $-1 66.118961149937434 0 12.374469277230345 0 1 0 I I #
face $-1 $340 $341 $31 $-1 $342 reversed single #
loop $-1 $-1 $225 $132 #
plane-surface $-1 66.118961149937434 0 0 -1 0 0 0 0 1 forward_v I I I I #
coedge $-1 $343 $344 $223 $345 forward $133 $-1 #
coedge $-1 $346 $135 $222 $345 reversed $85 $-1 #
coedge $-1 $135 $346 $136 $228 reversed $85 $-1 #
coedge $-1 $138 $347 $135 $226 forward $220 $-1 #
edge $-1 $348 -7.8299192828802164 $232 -1.2591807058200404 $225 $349 forward 7 unknown #
coedge $-1 $137 $136 $350 $351 reversed $54 $-1 #
edge $-1 $232 -66.118961149937434 $352 66.118961149937434 $224 $353 forward 7 unknown #
coedge $-1 $354 $355 $137 $230 forward $341 $-1 #
edge $-1 $233 -66.118961149937434 $356 66.118961149937434 $229 $357 forward 7 unknown #
coedge $-1 $347 $138 $355 $358 forward $220 $-1 #
vertex $-1 $139 $359 #
vertex $-1 $358 $360 #
straight-curve $-1 66.118961149937434 -18.496884470040555 -5.8037307001701688 0 -1 0 I I #
face $-1 $-1 $361 $32 $-1 $362 reversed single #
loop $-1 $-1 $146 $140 #
plane-surface $-1 0 0 12.374469277230345 0 0 1 1 0 0 forward_v I I I I #
coedge $-1 $363 $364 $365 $366 reversed $141 $-1 #
coedge $-1 $367 $143 $145 $245 forward $89 $-1 #
coedge $-1 $143 $367 $363 $368 forward $89 $-1 #
coedge $-1 $365 $146 $143 $242 forward $236 $-1 #
edge $-1 $248 -18.077683877816376 $369 0.40836224321985348 $241 $370 forward 7 unknown #
coedge $-1 $371 $372 $144 $244 forward $361 $-1 #
edge $-1 $373 -43.454965466680306 $247 -39.294564838351619 $243 $374 forward 7 unknown #
edge $-1 $248 -5.9891318616144478 $373 -2.0094122576745862e-014 $145 $375 forward 7 unknown #
coedge $-1 $146 $365 $371 $376 forward $236 $-1 #
vertex $-1 $244 $377 #
vertex $-1 $147 $378 #
straight-curve $-1 -78.989570923403448 -26.912344695114641 12.374469277230347 1 0 0 I I #
coedge $-1 $250 $250 $-1 $379 reversed $150 $-1 #
edge $-1 $380 0 $380 6.2831853071796004 $151 $381 forward 7 unknown #
vertex $-1 $154 $382 #
ellipse-curve $-1 -63.964850714768929 -17.669321634596528 10.294268963065999 -0.69465837861970381 0 0.71933979245794832 0.71933979245794832 0 0.69465837861970381 1 I I #
face $-1 $-1 $383 $34 $-1 $384 reversed single #
loop $-1 $-1 $161 $155 #
plane-surface $-1 0 0 12.374469277230345 0 0 1 1 0 0 forward_v I I I I #
coedge $-1 $385 $386 $387 $388 reversed $156 $-1 #
coedge $-1 $389 $158 $160 $264 forward $98 $-1 #
coedge $-1 $158 $389 $385 $390 forward $98 $-1 #
coedge $-1 $387 $161 $158 $261 forward $255 $-1 #
edge $-1 $267 0.41920059222417905 $391 18.905246713260411 $260 $392 forward 7 unknown #
coedge $-1 $393 $394 $159 $263 forward $383 $-1 #
edge $-1 $395 -43.454965466680306 $266 -39.294564838351619 $262 $396 forward 7 unknown #
edge $-1 $267 -5.9891318616144478 $395 -2.0094122576745862e-014 $160 $397 forward 7 unknown #
coedge $-1 $161 $387 $393 $398 forward $255 $-1 #
vertex $-1 $162 $399 #
vertex $-1 $162 $400 #
straight-curve $-1 -78.989570923403448 10.081424244966474 12.374469277230347 1 0 0 I I #
coedge $-1 $269 $269 $-1 $401 reversed $165 $-1 #
edge $-1 $402 0 $402 6.2831853071796004 $166 $403 forward 7 unknown #
vertex $-1 $169 $404 #
ellipse-curve $-1 -63.964850714768929 19.324447305484583 10.294268963065999 -0.69465837861970381 0 0.71933979245794832 0.71933979245794832 0 0.69465837861970381 1 I I #
face $-1 $-1 $285 $36 $-1 $405 forward single #
loop $-1 $-1 $406 $170 #
plane-surface $-1 66.118961149937434 0 0 -1 0 0 0 0 1 forward_v I I I I #
coedge $-1 $407 $408 $409 $410 reversed $171 $-1 #
coedge $-1 $411 $173 $175 $283 forward $107 $-1 #
coedge $-1 $173 $411 $407 $412 forward $107 $-1 #
coedge $-1 $409 $176 $173 $280 forward $285 $-1 #
edge $-1 $287 -0.40836224321985348 $413 18.077683877816376 $279 $414 forward 7 unknown #
coedge $-1 $415 $416 $174 $282 forward $274 $-1 #
edge $-1 $417 -89.38505581511501 $286 -85.224655186786364 $281 $418 forward 7 unknown #
edge $-1 $287 126.24879043826047 $417 132.23792229987484 $175 $419 forward 7 unknown #
coedge $-1 $176 $409 $415 $420 forward $285 $-1 #
loop $-1 $-1 $409 $273 #
vertex $-1 $282 $421 #
vertex $-1 $177 $422 #
straight-curve $-1 31.427571132272305 -8.4262985740784089 12.374469277230347 -1 0 0 I I #
coedge $-1 $289 $289 $-1 $423 reversed $180 $-1 #
edge $-1 $424 0 $424 6.2831853071796004 $181 $425 forward 7 unknown #
vertex $-1 $184 $426 #
ellipse-curve $-1 63.964850714768943 -17.669321634596528 10.294268963066038 0.69465837861970381 0 0.71933979245794832 0.71933979245794832 0 -0.69465837861970381 1 I I #
face $-1 $-1 $305 $38 $-1 $427 forward single #
loop $-1 $-1 $428 $185 #
plane-surface $-1 66.118961149937434 0 0 -1 0 0 0 0 1 forward_v I I I I #
coedge $-1 $429 $430 $431 $432 reversed $186 $-1 #
coedge $-1 $433 $188 $190 $303 forward $116 $-1 #
coedge $-1 $188 $433 $429 $434 forward $116 $-1 #
coedge $-1 $431 $191 $188 $300 forward $305 $-1 #
edge $-1 $307 -18.905246713260411 $435 -0.41920059222417905 $299 $436 forward 7 unknown #
coedge $-1 $437 $438 $189 $302 forward $294 $-1 #
edge $-1 $439 -89.38505581511501 $306 -85.224655186786364 $301 $440 forward 7 unknown #
edge $-1 $307 126.24879043826047 $439 132.23792229987484 $190 $441 forward 7 unknown #
coedge $-1 $191 $431 $437 $442 forward $305 $-1 #
loop $-1 $-1 $431 $293 #
vertex $-1 $302 $443 #
vertex $-1 $192 $444 #
straight-curve $-1 31.427571132272305 28.567470366002706 12.374469277230347 -1 0 0 I I #
coedge $-1 $309 $309 $-1 $445 reversed $195 $-1 #
edge $-1 $446 0 $446 6.2831853071796004 $196 $447 forward 7 unknown #
vertex $-1 $199 $448 #
ellipse-curve $-1 63.964850714768943 19.324447305484583 10.294268963066038 0.69465837861970381 0 0.71933979245794832 0.71933979245794832 0 -0.69465837861970381 1 I I #
face $-1 $-1 $215 $30 $-1 $449 reversed single #
loop $-1 $-1 $329 $200 #
plane-surface $-1 0 43.251046390575546 0 0 -1 0 0 0 -1 forward_v I I I I #
coedge $-1 $450 $327 $330 $451 forward $201 $-1 #
coedge $-1 $333 $203 $204 $321 reversed $125 $-1 #
coedge $-1 $327 $450 $203 $319 reversed $201 $-1 #
edge $-1 $334 -12.374469277230345 $452 12.374469277230345 $318 $453 forward 7 unknown #
coedge $-1 $205 $204 $450 $454 forward $81 $-1 #
edge $-1 $325 -66.118961149937434 $452 66.118961149937434 $317 $455 forward 7 unknown #
coedge $-1 $330 $329 $205 $323 reversed $314 $-1 #
edge $-1 $456 -66.118961149937434 $324 66.118961149937434 $322 $457 forward 7 unknown #
vertex $-1 $207 $458 #
vertex $-1 $336 $459 #
straight-curve $-1 66.118961149937434 0 -12.374469277230345 0 -1 0 I I #
coedge $-1 $316 $318 $208 $328 reversed $201 $-1 #
edge $-1 $331 -43.251046390575546 $334 43.251046390575546 $327 $460 forward 7 unknown #
coedge $-1 $322 $209 $214 $337 forward $314 $-1 #
coedge $-1 $209 $322 $316 $451 reversed $314 $-1 #
vertex $-1 $210 $461 #
straight-curve $-1 0 43.251046390575546 12.374469277230345 -1 0 0 I I #
coedge $-1 $211 $317 $213 $336 reversed $125 $-1 #
vertex $-1 $328 $462 #
straight-curve $-1 0 -43.251046390575546 12.374469277230345 1 0 0 I I #
edge $-1 $216 -12.374469277230345 $325 12.374469277230345 $213 $463 forward 7 unknown #
edge $-1 $217 -12.374469277230345 $324 12.374469277230345 $214 $464 forward 7 unknown #
point $-1 66.118961149937434 -43.251046390575546 12.374469277230345 #
point $-1 66.118961149937434 43.251046390575546 12.374469277230345 #
face $-1 $-1 $465 $31 $-1 $466 reversed single #
loop $-1 $-1 $229 $219 #
plane-surface $-1 0 -43.251046390575546 0 0 1 0 0 0 1 forward_v I I I I #
coedge $-1 $467 $222 $347 $468 forward $133 $-1 #
coedge $-1 $222 $467 $469 $470 forward $133 $-1 #
edge $-1 $471 -66.118961149937434 $348 66.118961149937434 $222 $472 forward 7 unknown #
coedge $-1 $224 $223 $473 $474 reversed $85 $-1 #
coedge $-1 $225 $231 $343 $468 reversed $220 $-1 #
vertex $-1 $468 $475 #
straight-curve $-1 66.118961149937434 -30.736491489586673 -4.5445499943501284 0 0 1 I I #
coedge $-1 $473 $476 $227 $351 forward $465 $-1 #
edge $-1 $356 -24.754161920534997 $352 -12.239607019546117 $350 $477 forward 7 unknown #
vertex $-1 $351 $478 #
straight-curve $-1 0 -30.736491489586673 -5.8037307001701688 -1 0 0 I I #
coedge $-1 $479 $229 $476 $480 forward $341 $-1 #
coedge $-1 $229 $479 $231 $358 reversed $341 $-1 #
vertex $-1 $480 $481 #
straight-curve $-1 0 -43.251046390575546 -5.8037307001701688 -1 0 0 I I #
edge $-1 $233 5.8037307001701688 $482 12.374469277230345 $231 $483 forward 7 unknown #
point $-1 66.118961149937434 -30.736491489586673 -5.8037307001701688 #
point $-1 66.118961149937434 -43.251046390575553 -5.8037307001701688 #
loop $-1 $-1 $243 $235 #
plane-surface $-1 -66.118961149937434 0 0 1 0 0 0 0 -1 forward_v I I I I #
coedge $-1 $364 $238 $240 $368 reversed $141 $-1 #
coedge $-1 $238 $363 $484 $485 reversed $141 $-1 #
coedge $-1 $246 $241 $238 $366 forward $236 $-1 #
edge $-1 $369 -17.178830643803025 $486 -12.870609773466015 $365 $487 forward 7 unknown #
coedge $-1 $240 $239 $372 $488 reversed $89 $-1 #
edge $-1 $489 2.0094122576745862e-014 $369 5.9891318616144478 $363 $490 forward 7 unknown #
vertex $-1 $242 $491 #
straight-curve $-1 -61.810740279600424 -8.8346608172982624 12.374469277230347 0 1 0 I I #
coedge $-1 $484 $243 $246 $376 reversed $361 $-1 #
coedge $-1 $243 $484 $367 $488 forward $361 $-1 #
vertex $-1 $244 $492 #
straight-curve $-1 -66.118961149937434 -26.912344695114641 51.669034115581965 0 0 1 I I #
straight-curve $-1 -66.118961149937448 -26.912344695114641 8.2140686489016446 -0.71933979245794832 0 -0.69465837861970381 I I #
edge $-1 $486 8.4262985740784089 $247 26.912344695114641 $371 $493 forward 7 unknown #
point $-1 -66.118961149937434 -26.912344695114641 12.374469277230345 #
point $-1 -61.810740279600424 -26.912344695114641 12.374469277230345 #
edge $-1 $494 1 $494 0 $250 $-1 forward 7 unknown #
vertex $-1 $251 $495 #
ellipse-curve $-1 -62.485497819524888 -17.669321634596528 8.7623542300264141 -0.69465837861970381 0 0.71933979245794832 0.71933979245794832 0 0.69465837861970381 1 I I #
point $-1 -63.245510922310984 -17.669321634596528 10.988927341685706 #
loop $-1 $-1 $262 $254 #
plane-surface $-1 -66.118961149937434 0 0 1 0 0 0 0 -1 forward_v I I I I #
coedge $-1 $386 $257 $259 $390 reversed $156 $-1 #
coedge $-1 $257 $385 $496 $497 reversed $156 $-1 #
coedge $-1 $265 $260 $257 $388 forward $255 $-1 #
edge $-1 $391 -17.178830643803025 $498 -12.870609773466015 $387 $499 forward 7 unknown #
coedge $-1 $259 $258 $394 $500 reversed $98 $-1 #
edge $-1 $501 2.0094122576745862e-014 $391 5.9891318616144478 $385 $502 forward 7 unknown #
vertex $-1 $261 $503 #
straight-curve $-1 -61.810740279600424 9.6622236527422949 12.374469277230347 0 1 0 I I #
coedge $-1 $496 $262 $265 $398 reversed $383 $-1 #
coedge $-1 $262 $496 $389 $500 forward $383 $-1 #
vertex $-1 $263 $504 #
straight-curve $-1 -66.118961149937434 10.081424244966474 51.669034115581965 0 0 1 I I #
straight-curve $-1 -66.118961149937448 10.081424244966474 8.2140686489016446 -0.71933979245794832 0 -0.69465837861970381 I I #
edge $-1 $498 -28.567470366002706 $266 -10.081424244966474 $393 $505 forward 7 unknown #
point $-1 -66.118961149937434 10.081424244966474 12.374469277230345 #
point $-1 -61.810740279600424 10.081424244966474 12.374469277230345 #
edge $-1 $506 1 $506 0 $269 $-1 forward 7 unknown #
vertex $-1 $270 $507 #
ellipse-curve $-1 -62.485497819524888 19.324447305484583 8.7623542300264141 -0.69465837861970381 0 0.71933979245794832 0.71933979245794832 0 0.69465837861970381 1 I I #
point $-1 -63.245510922310984 19.324447305484583 10.988927341685706 #
plane-surface $-1 0 0 12.374469277230345 0 0 1 1 0 0 forward_v I I I I #
coedge $-1 $416 $415 $408 $508 forward $274 $-1 #
coedge $-1 $408 $276 $278 $412 reversed $171 $-1 #
coedge $-1 $276 $407 $406 $508 reversed $171 $-1 #
coedge $-1 $284 $279 $276 $410 forward $285 $-1 #
edge $-1 $413 30.383169147328161 $509 34.691390017665128 $409 $510 forward 7 unknown #
coedge $-1 $278 $277 $416 $511 reversed $107 $-1 #
edge $-1 $512 -132.23792229987484 $413 -126.24879043826047 $407 $513 forward 7 unknown #
vertex $-1 $280 $514 #
straight-curve $-1 61.810740279600459 -8.8346608172982624 12.374469277230354 0 -1 0 I I #
coedge $-1 $406 $281 $284 $420 reversed $274 $-1 #
coedge $-1 $281 $406 $411 $511 forward $274 $-1 #
vertex $-1 $282 $515 #
straight-curve $-1 66.118961149937434 -8.4262985740784089 97.599124464016711 0 0 1 I I #
straight-curve $-1 -29.005038432324838 -8.4262985740784089 100.07424934577114 0.71933979245794832 0 -0.69465837861970381 I I #
edge $-1 $509 -26.912344695114641 $286 -8.4262985740784089 $415 $516 forward 7 unknown #
point $-1 66.118961149937434 -8.4262985740784089 12.374469277230345 #
point $-1 61.810740279600466 -8.4262985740784089 12.374469277230347 #
edge $-1 $517 1 $517 0 $289 $-1 forward 7 unknown #
vertex $-1 $290 $518 #
ellipse-curve $-1 62.485497819524888 -17.669321634596528 8.7623542300264425 0.69465837861970381 0 0.71933979245794832 0.71933979245794832 0 -0.69465837861970381 1 I I #
point $-1 64.684190507226873 -17.669321634596528 9.5996105844463262 #
plane-surface $-1 0 0 12.374469277230345 0 0 1 1 0 0 forward_v I I I I #
coedge $-1 $438 $437 $430 $519 forward $294 $-1 #
coedge $-1 $430 $296 $298 $434 reversed $186 $-1 #
coedge $-1 $296 $429 $428 $519 reversed $186 $-1 #
coedge $-1 $304 $299 $296 $432 forward $305 $-1 #
edge $-1 $435 30.383169147328161 $520 34.691390017665128 $431 $521 forward 7 unknown #
coedge $-1 $298 $297 $438 $522 reversed $116 $-1 #
edge $-1 $523 -132.23792229987484 $435 -126.24879043826047 $429 $524 forward 7 unknown #
vertex $-1 $300 $525 #
straight-curve $-1 61.810740279600459 9.6622236527422949 12.374469277230354 0 -1 0 I I #
coedge $-1 $428 $301 $304 $442 reversed $294 $-1 #
coedge $-1 $301 $428 $433 $522 forward $294 $-1 #
vertex $-1 $302 $526 #
straight-curve $-1 66.118961149937434 28.567470366002706 97.599124464016711 0 0 1 I I #
straight-curve $-1 -29.005038432324838 28.567470366002706 100.07424934577114 0.71933979245794832 0 -0.69465837861970381 I I #
edge $-1 $520 10.081424244966474 $306 28.567470366002706 $437 $527 forward 7 unknown #
point $-1 66.118961149937434 28.567470366002706 12.374469277230345 #
point $-1 61.810740279600466 28.567470366002706 12.374469277230347 #
edge $-1 $528 1 $528 0 $309 $-1 forward 7 unknown #
vertex $-1 $310 $529 #
ellipse-curve $-1 62.485497819524888 19.324447305484583 8.7623542300264425 0.69465837861970381 0 0.71933979245794832 0.71933979245794832 0 -0.69465837861970381 1 I I #
point $-1 64.684190507226873 19.324447305484583 9.5996105844463262 #
plane-surface $-1 66.118961149937434 0 0 -1 0 0 0 0 1 forward_v I I I I #
coedge $-1 $318 $316 $320 $454 reversed $201 $-1 #
edge $-1 $331 -12.374469277230345 $456 12.374469277230345 $330 $530 forward 7 unknown #
vertex $-1 $454 $531 #
straight-curve $-1 -66.118961149937434 -43.251046390575546 0 0 0 -1 I I #
edge $-1 $452 -43.251046390575546 $456 43.251046390575546 $450 $532 forward 7 unknown #
straight-curve $-1 0 -43.251046390575546 -12.374469277230345 -1 0 0 I I #
vertex $-1 $323 $533 #
straight-curve $-1 0 43.251046390575546 -12.374469277230345 1 0 0 I I #
point $-1 66.118961149937434 43.251046390575546 -12.374469277230345 #
point $-1 66.118961149937434 -43.251046390575546 -12.374469277230345 #
straight-curve $-1 -66.118961149937434 0 12.374469277230345 0 -1 0 I I #
point $-1 -66.118961149937434 43.251046390575546 12.374469277230345 #
point $-1 -66.118961149937434 -43.251046390575546 12.374469277230345 #
straight-curve $-1 66.118961149937434 -43.251046390575546 0 0 0 -1 I I #
straight-curve $-1 66.118961149937434 43.251046390575546 0 0 0 -1 I I #
loop $-1 $-1 $473 $340 #
plane-surface $-1 -66.118961149937434 0 0 1 0 0 0 0 -1 forward_v I I I I #
coedge $-1 $344 $343 $479 $534 forward $133 $-1 #
edge $-1 $348 30.736491489586673 $482 43.251046390575546 $347 $535 forward 7 unknown #
coedge $-1 $476 $473 $344 $470 reversed $465 $-1 #
edge $-1 $536 -43.251046390575546 $471 -30.736491489586673 $469 $537 forward 7 unknown #
vertex $-1 $474 $538 #
straight-curve $-1 0 -30.736491489586673 -12.374469277230345 1 0 0 I I #
coedge $-1 $469 $350 $346 $474 forward $465 $-1 #
edge $-1 $352 1.2591807058200404 $471 7.8299192828802164 $473 $539 forward 7 unknown #
point $-1 66.118961149937434 -30.736491489586673 -12.374469277230345 #
coedge $-1 $350 $469 $354 $480 reversed $465 $-1 #
straight-curve $-1 -66.118961149937434 -18.496884470040555 -5.8037307001701688 0 1 0 I I #
point $-1 -66.118961149937434 -30.736491489586673 -5.8037307001701688 #
coedge $-1 $355 $354 $467 $534 reversed $341 $-1 #
edge $-1 $356 5.8037307001701688 $536 12.374469277230345 $476 $540 forward 7 unknown #
point $-1 -66.118961149937434 -43.251046390575553 -5.8037307001701688 #
vertex $-1 $358 $541 #
straight-curve $-1 66.118961149937434 -43.251046390575546 0 0 0 -1 I I #
coedge $-1 $372 $371 $364 $485 forward $361 $-1 #
edge $-1 $486 39.294564838351619 $489 43.454965466680306 $484 $542 forward 7 unknown #
vertex $-1 $376 $543 #
straight-curve $-1 -78.989570923403448 -8.4262985740784089 12.374469277230347 -1 0 0 I I #
edge $-1 $489 -0.40836224321985348 $373 18.077683877816376 $372 $544 forward 7 unknown #
vertex $-1 $488 $545 #
straight-curve $-1 -66.118961149937448 -8.4262985740784089 8.2140686489016446 0.71933979245794832 0 0.69465837861970381 I I #
point $-1 -61.810740279600424 -8.4262985740784089 12.374469277230345 #
point $-1 -66.118961149937434 -26.912344695114641 8.2140686489016588 #
straight-curve $-1 -66.118961149937434 0 12.374469277230345 0 -1 0 I I #
vertex $-1 $379 $546 #
point $-1 -61.766158027066936 -17.669321634596528 9.4570126086461173 #
coedge $-1 $394 $393 $386 $497 forward $383 $-1 #
edge $-1 $498 39.294564838351619 $501 43.454965466680306 $496 $547 forward 7 unknown #
vertex $-1 $398 $548 #
straight-curve $-1 -78.989570923403448 28.567470366002706 12.374469277230347 -1 0 0 I I #
edge $-1 $501 -18.905246713260411 $395 -0.41920059222417905 $394 $549 forward 7 unknown #
vertex $-1 $500 $550 #
straight-curve $-1 -66.118961149937448 28.567470366002706 8.2140686489016446 0.71933979245794832 0 0.69465837861970381 I I #
point $-1 -61.810740279600424 28.567470366002706 12.374469277230345 #
point $-1 -66.118961149937434 10.081424244966474 8.2140686489016588 #
straight-curve $-1 -66.118961149937434 0 12.374469277230345 0 -1 0 I I #
vertex $-1 $401 $551 #
point $-1 -61.766158027066936 19.324447305484583 9.4570126086461173 #
edge $-1 $509 85.224655186786364 $512 89.38505581511501 $406 $552 forward 7 unknown #
vertex $-1 $420 $553 #
straight-curve $-1 31.427571132272305 -26.912344695114641 12.374469277230347 1 0 0 I I #
edge $-1 $512 -18.077683877816376 $417 0.40836224321985348 $416 $554 forward 7 unknown #
vertex $-1 $511 $555 #
straight-curve $-1 -29.005038432324838 -26.912344695114641 100.07424934577114 -0.71933979245794832 0 0.69465837861970381 I I #
point $-1 61.810740279600466 -26.912344695114641 12.374469277230347 #
point $-1 66.118961149937419 -8.4262985740784089 8.2140686489017014 #
straight-curve $-1 66.118961149937434 0 12.374469277230345 0 1 0 I I #
vertex $-1 $423 $556 #
point $-1 63.204837611982832 -17.669321634596528 8.0676958514067394 #
edge $-1 $520 85.224655186786364 $523 89.38505581511501 $428 $557 forward 7 unknown #
vertex $-1 $442 $558 #
straight-curve $-1 31.427571132272305 10.081424244966474 12.374469277230347 1 0 0 I I #
edge $-1 $523 0.41920059222417905 $439 18.905246713260411 $438 $559 forward 7 unknown #
vertex $-1 $522 $560 #
straight-curve $-1 -29.005038432324838 10.081424244966474 100.07424934577114 -0.71933979245794832 0 0.69465837861970381 I I #
point $-1 61.810740279600466 10.081424244966474 12.374469277230347 #
point $-1 66.118961149937419 28.567470366002706 8.2140686489017014 #
straight-curve $-1 66.118961149937434 0 12.374469277230345 0 1 0 I I #
vertex $-1 $445 $561 #
point $-1 63.204837611982832 19.324447305484583 8.0676958514067394 #
straight-curve $-1 -66.118961149937434 43.251046390575546 0 0 0 -1 I I #
point $-1 -66.118961149937434 -43.251046390575546 -12.374469277230345 #
straight-curve $-1 -66.118961149937434 0 -12.374469277230345 0 1 0 I I #
point $-1 -66.118961149937434 43.251046390575546 -12.374469277230345 #
edge $-1 $482 -66.118961149937434 $536 66.118961149937434 $479 $562 forward 7 unknown #
straight-curve $-1 66.118961149937434 0 -12.374469277230345 0 -1 0 I I #
vertex $-1 $470 $563 #
straight-curve $-1 -66.118961149937434 0 -12.374469277230345 0 1 0 I I #
point $-1 -66.118961149937434 -30.736491489586673 -12.374469277230345 #
straight-curve $-1 -66.118961149937434 -30.736491489586673 -4.5445499943501284 0 0 -1 I I #
straight-curve $-1 -66.118961149937434 -43.251046390575546 0 0 0 -1 I I #
point $-1 66.118961149937434 -43.251046390575546 -12.374469277230345 #
straight-curve $-1 -66.118961149937434 -8.4262985740784089 51.669034115581965 0 0 -1 I I #
point $-1 -66.118961149937434 -8.4262985740784089 12.374469277230345 #
straight-curve $-1 -66.118961149937434 -8.8346608172982624 8.2140686489016481 0 -1 0 I I #
point $-1 -66.118961149937434 -8.4262985740784089 8.2140686489016588 #
point $-1 -61.790839440905181 -17.669321634596528 8.0430144375684662 #
straight-curve $-1 -66.118961149937434 28.567470366002706 51.669034115581965 0 0 -1 I I #
point $-1 -66.118961149937434 28.567470366002706 12.374469277230345 #
straight-curve $-1 -66.118961149937434 9.6622236527422949 8.2140686489016481 0 -1 0 I I #
point $-1 -66.118961149937434 28.567470366002706 8.2140686489016588 #
point $-1 -61.790839440905181 19.324447305484583 8.0430144375684662 #
straight-curve $-1 66.118961149937434 -26.912344695114641 97.599124464016711 0 0 -1 I I #
point $-1 66.118961149937434 -26.912344695114641 12.374469277230345 #
straight-curve $-1 66.118961149937434 -8.8346608172982624 8.2140686489017014 0 1 0 I I #
point $-1 66.118961149937419 -26.912344695114641 8.2140686489017014 #
point $-1 61.790839440905181 -17.669321634596528 8.0430144375684947 #
straight-curve $-1 66.118961149937434 10.081424244966474 97.599124464016711 0 0 -1 I I #
point $-1 66.118961149937434 10.081424244966474 12.374469277230345 #
straight-curve $-1 66.118961149937434 9.6622236527422949 8.2140686489017014 0 1 0 I I #
point $-1 66.118961149937419 10.081424244966474 8.2140686489017014 #
point $-1 61.790839440905181 19.324447305484583 8.0430144375684947 #
straight-curve $-1 0 -43.251046390575546 -12.374469277230345 -1 0 0 I I #
point $-1 -66.118961149937434 -43.251046390575546 -12.374469277230345 #
End-of-ACIS-data 