500 0 10 0           
7 Unknown 11 ACIS 5.0 NT 24 Fri Mar 26 14:45:58 1999 
-1 9.9999999999999995e-007 1e-010 
body $-1 $10 $-1 $11 #
body $-1 $12 $-1 $13 #
body $-1 $14 $-1 $15 #
body $-1 $16 $-1 $17 #
body $-1 $18 $-1 $19 #
body $-1 $20 $-1 $21 #
body $-1 $22 $-1 $23 #
body $-1 $24 $-1 $25 #
body $-1 $26 $-1 $27 #
body $-1 $28 $-1 $29 #
lump $-1 $-1 $30 $0 #
transform $-1 1 0 0 0 1 0 0 0 1 58.743247779778436 36.294890416454002 17.392460091864351 1 rotate no_reflect no_shear #
lump $-1 $-1 $31 $1 #
transform $-1 1 0 0 0 1 0 0 0 1 58.743247779778436 36.294890416454002 17.392460091864351 1 rotate no_reflect no_shear #
lump $-1 $-1 $32 $2 #
transform $-1 1 0 0 0 1 0 0 0 1 58.743247779778436 36.294890416454002 17.392460091864351 1 rotate no_reflect no_shear #
lump $-1 $-1 $33 $3 #
transform $-1 1 0 0 0 1 0 0 0 1 58.743247779778436 36.294890416454002 17.392460091864351 1 rotate no_reflect no_shear #
lump $-1 $-1 $34 $4 #
transform $-1 1 0 0 0 1 0 0 0 1 58.743247779778436 36.294890416454002 17.392460091864351 1 rotate no_reflect no_shear #
lump $-1 $-1 $35 $5 #
transform $-1 1 0 0 0 1 0 0 0 1 58.743247779778436 36.294890416454002 17.392460091864351 1 rotate no_reflect no_shear #
lump $-1 $-1 $36 $6 #
transform $-1 1 0 0 0 1 0 0 0 1 58.743247779778436 36.294890416454002 17.392460091864351 1 rotate no_reflect no_shear #
lump $-1 $-1 $37 $7 #
transform $-1 1 0 0 0 1 0 0 0 1 58.743247779778436 36.294890416454002 17.392460091864351 1 rotate no_reflect no_shear #
lump $-1 $-1 $38 $8 #
transform $-1 1 0 0 0 1 0 0 0 1 58.743247779778436 36.294890416454002 17.392460091864351 1 rotate no_reflect no_shear #
lump $-1 $-1 $39 $9 #
transform $-1 1 0 0 0 1 0 0 0 1 58.743247779778436 36.294890416454002 17.392460091864351 1 rotate no_reflect no_shear #
shell $-1 $-1 $-1 $40 $-1 $10 #
shell $-1 $-1 $-1 $41 $-1 $12 #
shell $-1 $-1 $-1 $42 $-1 $14 #
shell $-1 $-1 $-1 $43 $-1 $16 #
shell $-1 $-1 $-1 $44 $-1 $18 #
shell $-1 $-1 $-1 $45 $-1 $20 #
shell $-1 $-1 $-1 $46 $-1 $22 #
shell $-1 $-1 $-1 $47 $-1 $24 #
shell $-1 $-1 $-1 $48 $-1 $26 #
shell $-1 $-1 $-1 $49 $-1 $28 #
face $-1 $50 $51 $30 $-1 $52 forward single #
face $-1 $53 $54 $31 $-1 $55 reversed single #
face $-1 $56 $57 $32 $-1 $58 reversed single #
face $-1 $59 $60 $33 $-1 $61 forward single #
face $-1 $62 $63 $34 $-1 $64 forward single #
face $-1 $65 $66 $35 $-1 $67 reversed single #
face $-1 $68 $69 $36 $-1 $70 forward single #
face $-1 $71 $72 $37 $-1 $73 forward single #
face $-1 $74 $75 $38 $-1 $76 reversed single #
face $-1 $77 $78 $39 $-1 $79 forward single #
face $-1 $80 $81 $30 $-1 $82 reversed single #
loop $-1 $-1 $83 $40 #
plane-surface $-1 0 0 17.392460091864351 0 0 1 1 0 0 forward_v I I I I #
face $-1 $84 $85 $31 $-1 $86 reversed single #
loop $-1 $-1 $87 $41 #
plane-surface $-1 -34.270688521041301 -24.974212612771222 0 1 0 0 0 0 -1 forward_v I I I I #
face $-1 $88 $89 $32 $-1 $90 reversed single #
loop $-1 $-1 $91 $42 #
plane-surface $-1 -161.49925301475108 0.53399436376483678 66.547991413298632 0 1 0 -0.87461971476443456 0 0.48480960649040278 forward_v I I I I #
face $-1 $92 $93 $33 $-1 $94 forward single #
loop $-1 $95 $96 $43 #
cone-surface $-1 -55.744874472067529 3.6159039180271009 13.02768629111722 0.87461971476443456 0 -0.48480960649040278 0.24240480324520139 0 0.43730985738221728 1 I I 0 1 0.5 forward I I I I #
face $-1 $97 $98 $34 $-1 $99 forward single #
loop $-1 $100 $101 $44 #
cone-surface $-1 -55.744874472067529 8.2387682494205094 13.02768629111722 0.87461971476443456 0 -0.48480960649040278 0.24240480324520139 0 0.43730985738221728 1 I I 0 1 0.5 forward I I I I #
face $-1 $102 $103 $35 $-1 $104 reversed single #
loop $-1 $-1 $105 $45 #
plane-surface $-1 -58.743247779778443 5.9273360837238087 9.5894097331334223 -0.87461971476443456 0 0.48480960649040278 0.48480960649040278 0 0.87461971476443456 forward_v I I I I #
face $-1 $106 $107 $36 $-1 $108 forward single #
loop $-1 $109 $110 $46 #
cone-surface $-1 -55.744874472067529 14.402587357945045 13.02768629111722 0.87461971476443456 0 -0.48480960649040278 0.24240480324520139 0 0.43730985738221728 1 I I 0 1 0.5 forward I I I I #
face $-1 $111 $112 $37 $-1 $113 forward single #
loop $-1 $114 $115 $47 #
cone-surface $-1 -55.744874472067529 19.02545168933846 13.02768629111722 0.87461971476443456 0 -0.48480960649040278 0.24240480324520139 0 0.43730985738221728 1 I I 0 1 0.5 forward I I I I #
face $-1 $116 $117 $38 $-1 $118 reversed single #
loop $-1 $-1 $119 $48 #
plane-surface $-1 15.740207044765079 -2.9186739356181874 171.15463761805239 0 -1 0 -0.50000000669873634 0 -0.8660253999169214 forward_v I I I I #
face $-1 $120 $121 $39 $-1 $122 forward single #
loop $-1 $123 $124 $49 #
cone-surface $-1 51.778094804719323 -7.2405650884152699 12.05582145396102 -0.50000000669873634 0 -0.8660253999169214 1.2990380998753821 0 -0.75000001004810457 1 I I 0 1 1.5 forward I I I I #
face $-1 $125 $126 $30 $-1 $127 reversed single #
loop $-1 $-1 $128 $50 #
plane-surface $-1 0 0 -17.392460091864351 0 0 1 1 0 0 forward_v I I I I #
coedge $-1 $129 $130 $131 $132 forward $51 $-1 #
face $-1 $133 $134 $31 $-1 $135 reversed single #
loop $-1 $-1 $136 $53 #
plane-surface $-1 -30.752758660179783 -13.653534809088441 0 0 -1 0 0 0 -1 forward_v I I I I #
coedge $-1 $137 $138 $139 $140 forward $54 $-1 #
face $-1 $141 $142 $32 $-1 $143 reversed single #
loop $-1 $-1 $144 $56 #
plane-surface $-1 -58.743247779778443 5.9273360837238087 9.5894097331334223 -0.87461971476443456 0 0.48480960649040278 0.48480960649040278 0 0.87461971476443456 forward_v I I I I #
coedge $-1 $145 $146 $147 $148 reversed $57 $-1 #
face $-1 $-1 $149 $33 $-1 $150 forward single #
loop $-1 $151 $152 $59 #
cone-surface $-1 -54.690496876841621 3.6159039180271009 12.443235268112957 0.87461971476443456 0 -0.48480960649040278 0.12120240162260069 0 0.21865492869110864 1 I I -0.70710678118654746 0.70710678118654746 0.25 forward I I I I #
loop $-1 $-1 $153 $43 #
coedge $-1 $96 $96 $154 $155 reversed $60 $-1 #
face $-1 $-1 $156 $34 $-1 $157 forward single #
loop $-1 $158 $159 $62 #
cone-surface $-1 -54.690496876841621 8.2387682494205094 12.443235268112957 0.87461971476443456 0 -0.48480960649040278 0.12120240162260069 0 0.21865492869110864 1 I I -0.70710678118654746 0.70710678118654746 0.25 forward I I I I #
loop $-1 $-1 $160 $44 #
coedge $-1 $101 $101 $161 $162 reversed $63 $-1 #
face $-1 $163 $164 $35 $-1 $165 reversed single #
loop $-1 $-1 $166 $65 #
plane-surface $-1 -161.49925301475108 22.107361243600732 66.547991413298632 0 -1 0 0.87461971476443456 0 -0.48480960649040278 forward_v I I I I #
coedge $-1 $167 $168 $169 $170 reversed $66 $-1 #
face $-1 $-1 $171 $36 $-1 $172 forward single #
loop $-1 $173 $174 $68 #
cone-surface $-1 -54.690496876841621 14.402587357945045 12.443235268112957 0.87461971476443456 0 -0.48480960649040278 0.12120240162260069 0 0.21865492869110864 1 I I -0.70710678118654746 0.70710678118654746 0.25 forward I I I I #
loop $-1 $-1 $175 $46 #
coedge $-1 $110 $110 $176 $177 reversed $69 $-1 #
face $-1 $-1 $178 $37 $-1 $179 forward single #
loop $-1 $180 $181 $71 #
cone-surface $-1 -54.690496876841621 19.02545168933846 12.443235268112957 0.87461971476443456 0 -0.48480960649040278 0.12120240162260069 0 0.21865492869110864 1 I I -0.70710678118654746 0.70710678118654746 0.25 forward I I I I #
loop $-1 $-1 $182 $47 #
coedge $-1 $115 $115 $183 $184 reversed $72 $-1 #
face $-1 $185 $186 $38 $-1 $187 reversed single #
loop $-1 $-1 $188 $74 #
plane-surface $-1 -43.003041522024418 -7.2405650884152699 69.408348316249544 0.50000000669873634 0 0.8660253999169214 0.8660253999169214 0 -0.50000000669873634 forward_v I I I I #
coedge $-1 $189 $190 $191 $192 reversed $75 $-1 #
face $-1 $-1 $193 $39 $-1 $194 forward single #
loop $-1 $195 $196 $77 #
cone-surface $-1 50.264006677497512 -7.2405650884152699 9.4333439373221282 -0.50000000669873634 0 -0.8660253999169214 0.64951904993769105 0 -0.37500000502405229 1 I I -0.70710678118654757 0.70710678118654757 0.75 forward I I I I #
loop $-1 $-1 $197 $49 #
coedge $-1 $124 $124 $198 $199 reversed $78 $-1 #
face $-1 $200 $201 $30 $-1 $202 reversed single #
loop $-1 $-1 $203 $80 #
plane-surface $-1 0 -36.294890416454002 0 0 1 0 0 0 1 forward_v I I I I #
coedge $-1 $204 $205 $206 $207 forward $81 $-1 #
coedge $-1 $208 $83 $209 $210 forward $51 $-1 #
coedge $-1 $83 $208 $211 $212 forward $51 $-1 #
coedge $-1 $213 $214 $83 $132 reversed $215 $-1 #
edge $-1 $216 -36.294890416454002 $217 36.294890416454002 $131 $218 forward 7 unknown #
face $-1 $219 $220 $31 $-1 $221 forward single #
loop $-1 $-1 $222 $84 #
plane-surface $-1 -27.234828799318265 -24.974212612771222 0 -1 0 0 0 0 1 forward_v I I I I #
coedge $-1 $223 $224 $225 $226 forward $85 $-1 #
coedge $-1 $227 $87 $228 $229 reversed $54 $-1 #
coedge $-1 $87 $227 $230 $231 reversed $54 $-1 #
coedge $-1 $224 $223 $87 $140 reversed $85 $-1 #
edge $-1 $232 -17.392460091864351 $233 17.392460091864351 $139 $234 forward 7 unknown #
face $-1 $235 $236 $32 $-1 $237 reversed single #
loop $-1 $-1 $238 $88 #
plane-surface $-1 -161.49925301475108 11.320677803682781 66.547991413298632 0 -1 0 0.87461971476443456 0 -0.48480960649040278 forward_v I I I I #
coedge $-1 $239 $240 $241 $242 reversed $89 $-1 #
coedge $-1 $146 $91 $243 $244 reversed $57 $-1 #
coedge $-1 $91 $145 $239 $245 reversed $57 $-1 #
coedge $-1 $241 $246 $91 $148 forward $247 $-1 #
edge $-1 $248 22.006378727597102 $249 26.331680009949309 $147 $250 forward 7 unknown #
loop $-1 $-1 $154 $92 #
plane-surface $-1 -58.743247779778443 5.9273360837238087 9.5894097331334223 -0.87461971476443456 0 0.48480960649040278 0.48480960649040278 0 0.87461971476443456 forward_v I I I I #
loop $-1 $-1 $251 $59 #
coedge $-1 $152 $152 $153 $252 reversed $93 $-1 #
coedge $-1 $153 $153 $152 $252 forward $95 $-1 #
coedge $-1 $154 $154 $96 $155 forward $149 $-1 #
edge $-1 $253 0 $253 6.2831853071796004 $154 $254 forward 7 unknown #
loop $-1 $-1 $161 $97 #
plane-surface $-1 -58.743247779778443 5.9273360837238087 9.5894097331334223 -0.87461971476443456 0 0.48480960649040278 0.48480960649040278 0 0.87461971476443456 forward_v I I I I #
loop $-1 $-1 $255 $62 #
coedge $-1 $159 $159 $160 $256 reversed $98 $-1 #
coedge $-1 $160 $160 $159 $256 forward $100 $-1 #
coedge $-1 $161 $161 $101 $162 forward $156 $-1 #
edge $-1 $257 0 $257 6.2831853071796004 $161 $258 forward 7 unknown #
face $-1 $259 $260 $35 $-1 $261 forward single #
loop $-1 $-1 $262 $102 #
plane-surface $-1 -58.743247779778436 0 0 1 0 0 0 0 -1 forward_v I I I I #
coedge $-1 $263 $264 $265 $266 reversed $103 $-1 #
coedge $-1 $267 $105 $268 $269 reversed $66 $-1 #
coedge $-1 $105 $267 $270 $271 reversed $66 $-1 #
coedge $-1 $272 $273 $105 $170 forward $260 $-1 #
edge $-1 $274 1.4320236426557382e-014 $275 8.9216492916953758 $169 $276 forward 7 unknown #
loop $-1 $-1 $176 $106 #
plane-surface $-1 -58.743247779778443 5.9273360837238087 9.5894097331334223 -0.87461971476443456 0 0.48480960649040278 0.48480960649040278 0 0.87461971476443456 forward_v I I I I #
loop $-1 $-1 $277 $68 #
coedge $-1 $174 $174 $175 $278 reversed $107 $-1 #
coedge $-1 $175 $175 $174 $278 forward $109 $-1 #
coedge $-1 $176 $176 $110 $177 forward $171 $-1 #
edge $-1 $279 0 $279 6.2831853071796004 $176 $280 forward 7 unknown #
loop $-1 $-1 $183 $111 #
plane-surface $-1 -58.743247779778443 5.9273360837238087 9.5894097331334223 -0.87461971476443456 0 0.48480960649040278 0.48480960649040278 0 0.87461971476443456 forward_v I I I I #
loop $-1 $-1 $281 $71 #
coedge $-1 $181 $181 $182 $282 reversed $112 $-1 #
coedge $-1 $182 $182 $181 $282 forward $114 $-1 #
coedge $-1 $183 $183 $115 $184 forward $178 $-1 #
edge $-1 $283 0 $283 6.2831853071796004 $183 $284 forward 7 unknown #
face $-1 $285 $286 $38 $-1 $287 forward single #
loop $-1 $-1 $288 $116 #
plane-surface $-1 15.740207044765079 -11.562456241212352 171.15463761805239 0 1 0 0.50000000669873634 0 0.8660253999169214 forward_v I I I I #
coedge $-1 $289 $290 $291 $292 reversed $117 $-1 #
coedge $-1 $190 $119 $293 $294 reversed $75 $-1 #
coedge $-1 $119 $189 $289 $295 reversed $75 $-1 #
coedge $-1 $291 $296 $119 $192 forward $286 $-1 #
edge $-1 $297 -50.873144257395893 $298 -39.22101455167315 $191 $299 forward 7 unknown #
loop $-1 $-1 $198 $120 #
plane-surface $-1 -43.003041522024418 -7.2405650884152699 69.408348316249544 0.50000000669873634 0 0.8660253999169214 0.8660253999169214 0 -0.50000000669873634 forward_v I I I I #
loop $-1 $-1 $300 $77 #
coedge $-1 $196 $196 $197 $301 reversed $121 $-1 #
coedge $-1 $197 $197 $196 $301 forward $123 $-1 #
coedge $-1 $198 $198 $124 $199 forward $193 $-1 #
edge $-1 $302 0 $302 6.2831853071796004 $198 $303 forward 7 unknown #
face $-1 $304 $305 $30 $-1 $306 reversed single #
loop $-1 $-1 $307 $125 #
plane-surface $-1 -58.743247779778436 0 0 1 0 0 0 0 -1 forward_v I I I I #
coedge $-1 $308 $211 $309 $310 forward $126 $-1 #
coedge $-1 $311 $128 $308 $312 forward $81 $-1 #
coedge $-1 $128 $311 $313 $314 forward $81 $-1 #
coedge $-1 $214 $213 $128 $207 reversed $215 $-1 #
edge $-1 $315 -36.294890416454002 $316 36.294890416454002 $206 $317 forward 7 unknown #
coedge $-1 $130 $129 $318 $319 forward $51 $-1 #
coedge $-1 $320 $321 $129 $210 reversed $305 $-1 #
edge $-1 $217 -58.743247779778436 $322 58.743247779778436 $209 $323 forward 7 unknown #
coedge $-1 $203 $324 $130 $212 reversed $126 $-1 #
edge $-1 $325 -58.743247779778436 $216 58.743247779778436 $211 $326 forward 7 unknown #
coedge $-1 $206 $131 $324 $327 forward $215 $-1 #
coedge $-1 $131 $206 $320 $328 reversed $215 $-1 #
loop $-1 $-1 $213 $304 #
vertex $-1 $132 $329 #
vertex $-1 $132 $330 #
straight-curve $-1 58.743247779778436 0 17.392460091864351 0 1 0 I I #
face $-1 $331 $332 $31 $-1 $333 reversed single #
loop $-1 $-1 $334 $133 #
plane-surface $-1 0 0 17.392460091864351 0 0 1 1 0 0 forward_v I I I I #
coedge $-1 $335 $336 $337 $338 reversed $134 $-1 #
coedge $-1 $139 $136 $339 $340 reversed $85 $-1 #
coedge $-1 $136 $139 $341 $342 reversed $85 $-1 #
coedge $-1 $336 $335 $136 $226 reversed $134 $-1 #
edge $-1 $343 -17.392460091864351 $344 17.392460091864351 $225 $345 forward 7 unknown #
coedge $-1 $138 $137 $346 $347 reversed $54 $-1 #
coedge $-1 $339 $348 $137 $229 forward $332 $-1 #
edge $-1 $349 -23.80778411006839 $233 -1.1664285027028303 $228 $350 forward 7 unknown #
coedge $-1 $351 $341 $138 $231 forward $220 $-1 #
edge $-1 $232 1.1664285027028303 $352 23.80778411006839 $230 $353 forward 7 unknown #
vertex $-1 $231 $354 #
vertex $-1 $229 $355 #
straight-curve $-1 -34.270688521041301 -13.653534809088441 0 0 0 -1 I I #
face $-1 $-1 $247 $32 $-1 $356 forward single #
loop $-1 $-1 $357 $141 #
plane-surface $-1 -58.743247779778436 0 0 1 0 0 0 0 -1 forward_v I I I I #
coedge $-1 $358 $359 $360 $361 reversed $142 $-1 #
coedge $-1 $362 $144 $146 $245 forward $89 $-1 #
coedge $-1 $144 $362 $358 $363 forward $89 $-1 #
coedge $-1 $360 $147 $144 $242 forward $247 $-1 #
edge $-1 $249 -2.4296736780970676 $364 8.3570097618208763 $241 $365 forward 7 unknown #
coedge $-1 $366 $367 $145 $244 forward $236 $-1 #
edge $-1 $368 -23.68458597351588 $248 -15.881535614784966 $243 $369 forward 7 unknown #
edge $-1 $249 -8.9216492916953758 $368 -1.4320236426557382e-014 $146 $370 forward 7 unknown #
coedge $-1 $147 $360 $366 $371 forward $247 $-1 #
loop $-1 $-1 $360 $235 #
vertex $-1 $244 $372 #
vertex $-1 $148 $373 #
straight-curve $-1 -80.749626507375538 0.53399436376483678 17.392460091864351 1 0 0 I I #
coedge $-1 $251 $251 $-1 $374 reversed $151 $-1 #
edge $-1 $375 0 $375 6.2831853071796004 $152 $376 forward 7 unknown #
vertex $-1 $155 $377 #
ellipse-curve $-1 -56.580597138602336 3.6159039180271009 13.490934912498886 -0.87461971476443456 0 0.48480960649040278 0.24240480324520139 0 0.43730985738221728 1 I I #
coedge $-1 $255 $255 $-1 $378 reversed $158 $-1 #
edge $-1 $379 0 $379 6.2831853071796004 $159 $380 forward 7 unknown #
vertex $-1 $162 $381 #
ellipse-curve $-1 -56.580597138602336 8.2387682494205094 13.490934912498886 -0.87461971476443456 0 0.48480960649040278 0.24240480324520139 0 0.43730985738221728 1 I I #
face $-1 $-1 $382 $35 $-1 $383 forward single #
loop $-1 $-1 $272 $163 #
plane-surface $-1 -161.49925301475108 11.320677803682781 66.547991413298632 0 -1 0 0.87461971476443456 0 -0.48480960649040278 forward_v I I I I #
coedge $-1 $268 $384 $264 $385 forward $164 $-1 #
coedge $-1 $264 $166 $267 $386 reversed $103 $-1 #
coedge $-1 $166 $263 $262 $385 reversed $103 $-1 #
coedge $-1 $387 $270 $166 $266 forward $382 $-1 #
edge $-1 $388 -26.331680009949309 $389 -22.006378727597102 $265 $390 forward 7 unknown #
coedge $-1 $168 $167 $263 $386 forward $66 $-1 #
coedge $-1 $391 $262 $167 $269 forward $164 $-1 #
edge $-1 $392 -19.143693201738827 $274 -8.3570097618208763 $268 $393 forward 7 unknown #
coedge $-1 $265 $394 $168 $271 forward $382 $-1 #
edge $-1 $275 8.3570097618208763 $388 19.143693201738827 $270 $395 forward 7 unknown #
coedge $-1 $273 $169 $394 $396 reversed $260 $-1 #
coedge $-1 $169 $272 $391 $397 reversed $260 $-1 #
vertex $-1 $269 $398 #
vertex $-1 $271 $399 #
straight-curve $-1 -58.743247779778443 11.320677803682781 9.5894097331334223 0.48480960649040278 0 0.87461971476443456 I I #
coedge $-1 $277 $277 $-1 $400 reversed $173 $-1 #
edge $-1 $401 0 $401 6.2831853071796004 $174 $402 forward 7 unknown #
vertex $-1 $177 $403 #
ellipse-curve $-1 -56.580597138602336 14.402587357945045 13.490934912498886 -0.87461971476443456 0 0.48480960649040278 0.24240480324520139 0 0.43730985738221728 1 I I #
coedge $-1 $281 $281 $-1 $404 reversed $180 $-1 #
edge $-1 $405 0 $405 6.2831853071796004 $181 $406 forward 7 unknown #
vertex $-1 $184 $407 #
ellipse-curve $-1 -56.580597138602336 19.02545168933846 13.490934912498886 -0.87461971476443456 0 0.48480960649040278 0.24240480324520139 0 0.43730985738221728 1 I I #
face $-1 $-1 $408 $38 $-1 $409 reversed single #
loop $-1 $-1 $191 $185 #
plane-surface $-1 0 0 17.392460091864351 0 0 1 1 0 0 forward_v I I I I #
coedge $-1 $410 $411 $412 $413 reversed $186 $-1 #
coedge $-1 $414 $188 $190 $295 forward $117 $-1 #
coedge $-1 $188 $414 $410 $415 forward $117 $-1 #
coedge $-1 $412 $191 $188 $292 forward $286 $-1 #
edge $-1 $298 -0.70160860858944751 $416 7.9421736970047174 $291 $417 forward 7 unknown #
coedge $-1 $418 $419 $189 $294 forward $408 $-1 #
edge $-1 $420 -74.912219059566155 $297 -68.184858717161845 $293 $421 forward 7 unknown #
edge $-1 $298 104.03177505500753 $420 117.48649555955687 $190 $422 forward 7 unknown #
coedge $-1 $191 $412 $418 $423 forward $286 $-1 #
vertex $-1 $294 $424 #
vertex $-1 $192 $425 #
straight-curve $-1 7.8701035223825393 -2.9186739356181874 17.392460091864351 -1 0 0 I I #
coedge $-1 $300 $300 $-1 $426 reversed $195 $-1 #
edge $-1 $427 0 $427 6.2831853071796004 $196 $428 forward 7 unknown #
vertex $-1 $199 $429 #
ellipse-curve $-1 52.917182926917064 -7.2405650884152699 14.028779920662195 0.50000000669873634 0 0.8660253999169214 1.2990380998753821 0 -0.75000001004810457 1 I I #
face $-1 $-1 $215 $30 $-1 $430 reversed single #
loop $-1 $-1 $320 $200 #
plane-surface $-1 0 36.294890416454002 0 0 -1 0 0 0 -1 forward_v I I I I #
coedge $-1 $431 $318 $321 $432 forward $201 $-1 #
coedge $-1 $324 $203 $204 $312 reversed $126 $-1 #
coedge $-1 $318 $431 $203 $310 reversed $201 $-1 #
edge $-1 $325 -17.392460091864351 $433 17.392460091864351 $309 $434 forward 7 unknown #
coedge $-1 $205 $204 $431 $435 forward $81 $-1 #
edge $-1 $316 -58.743247779778436 $433 58.743247779778436 $308 $436 forward 7 unknown #
coedge $-1 $321 $320 $205 $314 reversed $305 $-1 #
edge $-1 $437 -58.743247779778436 $315 58.743247779778436 $313 $438 forward 7 unknown #
vertex $-1 $207 $439 #
vertex $-1 $327 $440 #
straight-curve $-1 58.743247779778436 0 -17.392460091864351 0 -1 0 I I #
coedge $-1 $307 $309 $208 $319 reversed $201 $-1 #
edge $-1 $322 -36.294890416454002 $325 36.294890416454002 $318 $441 forward 7 unknown #
coedge $-1 $313 $209 $214 $328 forward $305 $-1 #
coedge $-1 $209 $313 $307 $432 reversed $305 $-1 #
vertex $-1 $210 $442 #
straight-curve $-1 0 36.294890416454002 17.392460091864351 -1 0 0 I I #
coedge $-1 $211 $308 $213 $327 reversed $126 $-1 #
vertex $-1 $319 $443 #
straight-curve $-1 0 -36.294890416454002 17.392460091864351 1 0 0 I I #
edge $-1 $216 -17.392460091864351 $316 17.392460091864351 $213 $444 forward 7 unknown #
edge $-1 $217 -17.392460091864351 $315 17.392460091864351 $214 $445 forward 7 unknown #
point $-1 58.743247779778436 -36.294890416454002 17.392460091864351 #
point $-1 58.743247779778436 36.294890416454002 17.392460091864351 #
face $-1 $-1 $446 $31 $-1 $447 reversed single #
loop $-1 $-1 $448 $219 #
plane-surface $-1 0 0 -17.392460091864351 0 0 1 1 0 0 forward_v I I I I #
coedge $-1 $341 $351 $336 $449 forward $220 $-1 #
coedge $-1 $225 $222 $448 $450 reversed $134 $-1 #
coedge $-1 $222 $225 $334 $449 reversed $134 $-1 #
coedge $-1 $451 $452 $222 $338 forward $446 $-1 #
edge $-1 $453 -17.392460091864351 $454 17.392460091864351 $337 $455 forward 7 unknown #
coedge $-1 $448 $228 $223 $340 forward $332 $-1 #
edge $-1 $233 -18.894309190951411 $344 -11.858449469228374 $339 $456 forward 7 unknown #
coedge $-1 $230 $334 $224 $342 forward $220 $-1 #
edge $-1 $343 11.858449469228374 $232 18.894309190951411 $341 $457 forward 7 unknown #
vertex $-1 $342 $458 #
vertex $-1 $340 $459 #
straight-curve $-1 -27.234828799318265 -13.653534809088441 0 0 0 -1 I I #
coedge $-1 $452 $451 $227 $347 forward $446 $-1 #
edge $-1 $352 -17.392460091864351 $349 17.392460091864351 $346 $460 forward 7 unknown #
coedge $-1 $228 $448 $452 $461 forward $332 $-1 #
vertex $-1 $229 $462 #
straight-curve $-1 -34.270688521041301 -12.487106306385611 -17.392460091864351 0 1 0 I I #
coedge $-1 $334 $230 $451 $463 forward $220 $-1 #
vertex $-1 $463 $464 #
straight-curve $-1 -34.270688521041301 -12.487106306385611 17.392460091864351 0 -1 0 I I #
point $-1 -34.270688521041301 -13.653534809088441 17.392460091864351 #
point $-1 -34.270688521041301 -13.653534809088441 -17.392460091864351 #
plane-surface $-1 0 0 17.392460091864351 0 0 1 1 0 0 forward_v I I I I #
coedge $-1 $367 $366 $359 $465 forward $236 $-1 #
coedge $-1 $359 $238 $240 $363 reversed $142 $-1 #
coedge $-1 $238 $358 $357 $465 reversed $142 $-1 #
coedge $-1 $246 $241 $238 $361 forward $247 $-1 #
edge $-1 $364 -26.331680009949309 $466 -22.006378727597102 $360 $467 forward 7 unknown #
coedge $-1 $240 $239 $367 $468 reversed $89 $-1 #
edge $-1 $469 1.4320236426557382e-014 $364 8.9216492916953758 $358 $470 forward 7 unknown #
vertex $-1 $242 $471 #
straight-curve $-1 -54.417946497426236 2.9636680418619044 17.392460091864351 0 1 0 I I #
coedge $-1 $357 $243 $246 $371 reversed $236 $-1 #
coedge $-1 $243 $357 $362 $468 forward $236 $-1 #
vertex $-1 $244 $472 #
straight-curve $-1 -58.743247779778436 0.53399436376483678 33.273995706649316 0 0 1 I I #
straight-curve $-1 -58.743247779778443 0.53399436376483678 9.5894097331334223 -0.48480960649040278 0 -0.87461971476443456 I I #
edge $-1 $466 -11.320677803682781 $248 -0.53399436376483678 $366 $473 forward 7 unknown #
point $-1 -58.743247779778436 0.53399436376483678 17.392460091864351 #
point $-1 -54.417946497426229 0.53399436376483678 17.392460091864351 #
edge $-1 $474 1 $474 0 $251 $-1 forward 7 unknown #
vertex $-1 $252 $475 #
ellipse-curve $-1 -54.90915180553273 3.6159039180271009 12.564437669735558 -0.87461971476443456 0 0.48480960649040278 0.24240480324520139 0 0.43730985738221728 1 I I #
point $-1 -56.338192335357128 3.6159039180271009 13.928244769881097 #
edge $-1 $476 1 $476 0 $255 $-1 forward 7 unknown #
vertex $-1 $256 $477 #
ellipse-curve $-1 -54.90915180553273 8.2387682494205094 12.564437669735558 -0.87461971476443456 0 0.48480960649040278 0.24240480324520139 0 0.43730985738221728 1 I I #
point $-1 -56.338192335357128 8.2387682494205094 13.928244769881097 #
loop $-1 $-1 $265 $259 #
plane-surface $-1 0 0 17.392460091864351 0 0 1 1 0 0 forward_v I I I I #
coedge $-1 $262 $391 $387 $478 reversed $164 $-1 #
edge $-1 $389 15.881535614784966 $392 23.68458597351588 $262 $479 forward 7 unknown #
edge $-1 $392 1.4320236426557382e-014 $388 8.9216492916953758 $263 $480 forward 7 unknown #
coedge $-1 $394 $265 $384 $478 forward $382 $-1 #
vertex $-1 $266 $481 #
vertex $-1 $478 $482 #
straight-curve $-1 -80.749626507375538 22.107361243600732 17.392460091864351 -1 0 0 I I #
coedge $-1 $384 $268 $273 $397 forward $164 $-1 #
vertex $-1 $385 $483 #
straight-curve $-1 -58.743247779778436 2.9636680418619044 9.5894097331334436 0 -1 0 I I #
coedge $-1 $270 $387 $272 $396 forward $382 $-1 #
straight-curve $-1 -54.417946497426236 2.9636680418619044 17.392460091864351 0 1 0 I I #
edge $-1 $484 22.006378727597102 $275 26.331680009949309 $394 $485 forward 7 unknown #
edge $-1 $274 -23.68458597351588 $484 -15.881535614784966 $391 $486 forward 7 unknown #
point $-1 -58.743247779778436 11.320677803682781 9.5894097331334347 #
point $-1 -54.417946497426229 11.320677803682781 17.392460091864351 #
edge $-1 $487 1 $487 0 $277 $-1 forward 7 unknown #
vertex $-1 $278 $488 #
ellipse-curve $-1 -54.90915180553273 14.402587357945045 12.564437669735558 -0.87461971476443456 0 0.48480960649040278 0.24240480324520139 0 0.43730985738221728 1 I I #
point $-1 -56.338192335357128 14.402587357945045 13.928244769881097 #
edge $-1 $489 1 $489 0 $281 $-1 forward 7 unknown #
vertex $-1 $282 $490 #
ellipse-curve $-1 -54.90915180553273 19.02545168933846 12.564437669735558 -0.87461971476443456 0 0.48480960649040278 0.24240480324520139 0 0.43730985738221728 1 I I #
point $-1 -56.338192335357128 19.02545168933846 13.928244769881097 #
loop $-1 $-1 $293 $285 #
plane-surface $-1 58.743247779778436 0 0 -1 0 0 0 0 1 forward_v I I I I #
coedge $-1 $411 $288 $290 $415 reversed $186 $-1 #
coedge $-1 $288 $410 $491 $492 reversed $186 $-1 #
coedge $-1 $296 $291 $288 $413 forward $286 $-1 #
edge $-1 $416 39.22101455167315 $493 50.873144257395893 $412 $494 forward 7 unknown #
coedge $-1 $290 $289 $419 $495 reversed $117 $-1 #
edge $-1 $496 -117.48649555955687 $416 -104.03177505500753 $410 $497 forward 7 unknown #
vertex $-1 $292 $498 #
straight-curve $-1 47.091118074055665 -3.620282544207635 17.392460091864358 0 -1 0 I I #
coedge $-1 $491 $293 $296 $423 reversed $408 $-1 #
coedge $-1 $293 $491 $414 $495 forward $408 $-1 #
vertex $-1 $294 $499 #
straight-curve $-1 58.743247779778436 -2.9186739356181874 85.577318809026195 0 0 1 I I #
straight-curve $-1 -43.003041522024418 -2.9186739356181874 69.408348316249544 0.8660253999169214 0 -0.50000000669873634 I I #
edge $-1 $493 -11.562456241212352 $297 -2.9186739356181874 $418 $500 forward 7 unknown #
point $-1 58.743247779778436 -2.9186739356181874 17.392460091864351 #
point $-1 47.091118074055686 -2.9186739356181874 17.392460091864351 #
edge $-1 $501 1 $501 0 $300 $-1 forward 7 unknown #
vertex $-1 $301 $502 #
ellipse-curve $-1 50.639006682521568 -7.2405650884152699 10.082862987259819 0.50000000669873634 0 0.8660253999169214 1.2990380998753821 0 -0.75000001004810457 1 I I #
point $-1 54.216221026792468 -7.2405650884152699 13.278779910614116 #
plane-surface $-1 58.743247779778436 0 0 -1 0 0 0 0 1 forward_v I I I I #
coedge $-1 $309 $307 $311 $435 reversed $201 $-1 #
edge $-1 $322 -17.392460091864351 $437 17.392460091864351 $321 $503 forward 7 unknown #
vertex $-1 $435 $504 #
straight-curve $-1 -58.743247779778436 -36.294890416454002 0 0 0 -1 I I #
edge $-1 $433 -36.294890416454002 $437 36.294890416454002 $431 $505 forward 7 unknown #
straight-curve $-1 0 -36.294890416454002 -17.392460091864351 -1 0 0 I I #
vertex $-1 $314 $506 #
straight-curve $-1 0 36.294890416454002 -17.392460091864351 1 0 0 I I #
point $-1 58.743247779778436 36.294890416454002 -17.392460091864351 #
point $-1 58.743247779778436 -36.294890416454002 -17.392460091864351 #
straight-curve $-1 -58.743247779778436 0 17.392460091864351 0 -1 0 I I #
point $-1 -58.743247779778436 36.294890416454002 17.392460091864351 #
point $-1 -58.743247779778436 -36.294890416454002 17.392460091864351 #
straight-curve $-1 58.743247779778436 -36.294890416454002 0 0 0 -1 I I #
straight-curve $-1 58.743247779778436 36.294890416454002 0 0 0 -1 I I #
loop $-1 $-1 $337 $331 #
plane-surface $-1 0 -36.294890416454002 0 0 1 0 0 0 1 forward_v I I I I #
coedge $-1 $348 $339 $335 $450 forward $332 $-1 #
edge $-1 $454 -23.80778411006839 $343 -1.1664285027028303 $334 $507 forward 7 unknown #
edge $-1 $344 1.1664285027028303 $453 23.80778411006839 $448 $508 forward 7 unknown #
coedge $-1 $346 $337 $351 $463 reversed $446 $-1 #
coedge $-1 $337 $346 $348 $461 reversed $446 $-1 #
vertex $-1 $461 $509 #
vertex $-1 $338 $510 #
straight-curve $-1 -27.234828799318265 -36.294890416454002 0 0 0 1 I I #
straight-curve $-1 -15.376379330089891 -13.653534809088441 -17.392460091864351 1 0 0 I I #
straight-curve $-1 -15.376379330089891 -13.653534809088441 17.392460091864351 -1 0 0 I I #
point $-1 -27.234828799318265 -13.653534809088441 17.392460091864351 #
point $-1 -27.234828799318265 -13.653534809088441 -17.392460091864351 #
straight-curve $-1 -34.270688521041301 -36.294890416454002 0 0 0 -1 I I #
edge $-1 $453 27.234828799318265 $349 34.270688521041301 $452 $511 forward 7 unknown #
point $-1 -34.270688521041301 -36.294890416454002 -17.392460091864351 #
edge $-1 $352 -34.270688521041301 $454 -27.234828799318265 $451 $512 forward 7 unknown #
point $-1 -34.270688521041301 -36.294890416454002 17.392460091864351 #
edge $-1 $466 15.881535614784966 $469 23.68458597351588 $357 $513 forward 7 unknown #
vertex $-1 $371 $514 #
straight-curve $-1 -80.749626507375538 11.320677803682781 17.392460091864351 -1 0 0 I I #
edge $-1 $469 -8.3570097618208763 $368 2.4296736780970676 $367 $515 forward 7 unknown #
vertex $-1 $468 $516 #
straight-curve $-1 -58.743247779778443 11.320677803682781 9.5894097331334223 0.48480960649040278 0 0.87461971476443456 I I #
point $-1 -54.417946497426229 11.320677803682781 17.392460091864351 #
point $-1 -58.743247779778436 0.53399436376483678 9.5894097331334347 #
straight-curve $-1 -58.743247779778436 0 17.392460091864351 0 -1 0 I I #
vertex $-1 $374 $517 #
point $-1 -54.666747002287529 3.6159039180271009 13.001747527117775 #
vertex $-1 $378 $518 #
point $-1 -54.666747002287529 8.2387682494205094 13.001747527117775 #
edge $-1 $389 -22.107361243600732 $484 -11.320677803682781 $384 $519 forward 7 unknown #
straight-curve $-1 -58.743247779778436 22.107361243600732 33.273995706649316 0 0 -1 I I #
straight-curve $-1 -58.743247779778443 22.107361243600732 9.5894097331334223 0.48480960649040278 0 0.87461971476443456 I I #
point $-1 -54.417946497426229 22.107361243600732 17.392460091864351 #
point $-1 -58.743247779778436 22.107361243600732 17.392460091864351 #
point $-1 -58.743247779778436 22.107361243600732 9.5894097331334347 #
vertex $-1 $397 $520 #
straight-curve $-1 -80.749626507375538 11.320677803682781 17.392460091864351 1 0 0 I I #
straight-curve $-1 -58.743247779778436 11.320677803682781 33.273995706649316 0 0 1 I I #
vertex $-1 $400 $521 #
point $-1 -54.666747002287529 14.402587357945045 13.001747527117775 #
vertex $-1 $404 $522 #
point $-1 -54.666747002287529 19.02545168933846 13.001747527117775 #
coedge $-1 $419 $418 $411 $492 forward $408 $-1 #
edge $-1 $493 68.184858717161845 $496 74.912219059566155 $491 $523 forward 7 unknown #
vertex $-1 $423 $524 #
straight-curve $-1 7.8701035223825393 -11.562456241212352 17.392460091864351 1 0 0 I I #
edge $-1 $496 -7.9421736970047174 $420 0.70160860858944751 $419 $525 forward 7 unknown #
vertex $-1 $495 $526 #
straight-curve $-1 -43.003041522024418 -11.562456241212352 69.408348316249544 -0.8660253999169214 0 0.50000000669873634 I I #
point $-1 47.091118074055686 -11.562456241212352 17.392460091864351 #
point $-1 58.743247779778429 -2.9186739356181874 10.665099749460047 #
straight-curve $-1 58.743247779778436 0 17.392460091864351 0 1 0 I I #
vertex $-1 $426 $527 #
point $-1 51.938044782396943 -7.2405650884152699 9.3328629772117147 #
straight-curve $-1 -58.743247779778436 36.294890416454002 0 0 0 -1 I I #
point $-1 -58.743247779778436 -36.294890416454002 -17.392460091864351 #
straight-curve $-1 -58.743247779778436 0 -17.392460091864351 0 1 0 I I #
point $-1 -58.743247779778436 36.294890416454002 -17.392460091864351 #
straight-curve $-1 -27.234828799318265 -12.487106306385611 17.392460091864351 0 1 0 I I #
straight-curve $-1 -27.234828799318265 -12.487106306385611 -17.392460091864351 0 -1 0 I I #
point $-1 -27.234828799318265 -36.294890416454002 -17.392460091864351 #
point $-1 -27.234828799318265 -36.294890416454002 17.392460091864351 #
straight-curve $-1 0 -36.294890416454002 -17.392460091864351 -1 0 0 I I #
straight-curve $-1 0 -36.294890416454002 17.392460091864351 1 0 0 I I #
straight-curve $-1 -58.743247779778436 11.320677803682781 33.273995706649316 0 0 -1 I I #
point $-1 -58.743247779778436 11.320677803682781 17.392460091864351 #
straight-curve $-1 -58.743247779778436 2.9636680418619044 9.5894097331334436 0 -1 0 I I #
point $-1 -58.743247779778436 11.320677803682781 9.5894097331334347 #
point $-1 -54.471841948150512 3.6159039180271009 12.322032866490357 #
point $-1 -54.471841948150512 8.2387682494205094 12.322032866490357 #
straight-curve $-1 -58.743247779778436 0 17.392460091864351 0 -1 0 I I #
point $-1 -58.743247779778436 11.320677803682781 17.392460091864351 #
point $-1 -54.471841948150512 14.402587357945045 12.322032866490357 #
point $-1 -54.471841948150512 19.02545168933846 12.322032866490357 #
straight-curve $-1 58.743247779778436 -11.562456241212352 85.577318809026195 0 0 -1 I I #
point $-1 58.743247779778436 -11.562456241212352 17.392460091864351 #
straight-curve $-1 58.743247779778429 -3.620282544207635 10.665099749460051 0 1 0 I I #
point $-1 58.743247779778429 -11.562456241212352 10.665099749460047 #
point $-1 49.889006672473457 -7.2405650884152699 8.7838248873844371 #
End-of-ACIS-data 