500 0 6 0           
7 Unknown 11 ACIS 5.0 NT 24 Fri Mar 26 01:37:56 1999 
-1 9.9999999999999995e-007 1e-010 
body $-1 $6 $-1 $7 #
body $-1 $8 $-1 $9 #
body $-1 $10 $-1 $11 #
body $-1 $12 $-1 $13 #
body $-1 $14 $-1 $15 #
body $-1 $16 $-1 $17 #
lump $-1 $-1 $18 $0 #
transform $-1 1 0 0 0 1 0 0 0 1 45.475020599993897 27.241850851751462 6.6515442953130517 1 rotate no_reflect no_shear #
lump $-1 $-1 $19 $1 #
transform $-1 1 0 0 0 1 0 0 0 1 45.475020599993897 27.241850851751462 6.6515442953130517 1 rotate no_reflect no_shear #
lump $-1 $-1 $20 $2 #
transform $-1 1 0 0 0 1 0 0 0 1 45.475020599993897 27.241850851751462 6.6515442953130517 1 rotate no_reflect no_shear #
lump $-1 $-1 $21 $3 #
transform $-1 1 0 0 0 1 0 0 0 1 45.475020599993897 27.241850851751462 6.6515442953130517 1 rotate no_reflect no_shear #
lump $-1 $-1 $22 $4 #
transform $-1 1 0 0 0 1 0 0 0 1 45.475020599993897 27.241850851751462 6.6515442953130517 1 rotate no_reflect no_shear #
lump $-1 $-1 $23 $5 #
transform $-1 1 0 0 0 1 0 0 0 1 45.475020599993897 27.241850851751462 6.6515442953130517 1 rotate no_reflect no_shear #
shell $-1 $-1 $-1 $24 $-1 $6 #
shell $-1 $-1 $-1 $25 $-1 $8 #
shell $-1 $-1 $-1 $26 $-1 $10 #
shell $-1 $-1 $-1 $27 $-1 $12 #
shell $-1 $-1 $-1 $28 $-1 $14 #
shell $-1 $-1 $-1 $29 $-1 $16 #
face $-1 $30 $31 $18 $-1 $32 forward single #
face $-1 $33 $34 $19 $-1 $35 reversed single #
face $-1 $36 $37 $20 $-1 $38 reversed single #
face $-1 $39 $40 $21 $-1 $41 forward single #
face $-1 $42 $43 $22 $-1 $44 reversed single #
face $-1 $45 $46 $23 $-1 $47 forward single #
face $-1 $48 $49 $18 $-1 $50 reversed single #
loop $-1 $-1 $51 $24 #
plane-surface $-1 0 0 6.6515442953130517 0 0 1 1 0 0 forward_v I I I I #
face $-1 $52 $53 $19 $-1 $54 reversed single #
loop $-1 $-1 $55 $25 #
plane-surface $-1 -42.287510525001352 0 3.4239609344128032 0 0 1 1 0 0 forward_v I I I I #
face $-1 $56 $57 $20 $-1 $58 reversed single #
loop $-1 $-1 $59 $26 #
plane-surface $-1 -31.891365312843362 -16.836389445582931 33.609500580565296 0 0.5877852598018023 0.80901698891910034 1 0 0 forward_v I I I I #
face $-1 $60 $61 $21 $-1 $62 forward single #
loop $-1 $63 $64 $27 #
cone-surface $-1 -31.891365312843366 22.58161496537619 2.5032039838062992 0 -0.5877852598018023 -0.80901698891910034 1 0 0 1 I I 0 1 1 forward I I I I #
face $-1 $65 $66 $22 $-1 $67 reversed single #
loop $-1 $-1 $68 $28 #
plane-surface $-1 34.904239937765638 -27.241850851751465 2.5848435904961136 0 -0.80901700255871778 0.5877852410284794 1 0 0 forward_v I I I I #
face $-1 $69 $70 $23 $-1 $71 forward single #
loop $-1 $72 $73 $29 #
cone-surface $-1 34.904239937765638 -25.255625252717934 4.2484490963187191 0 0.80901700255871778 -0.5877852410284794 1 0 0 1 I I 0 1 1 forward I I I I #
face $-1 $74 $75 $18 $-1 $76 reversed single #
loop $-1 $-1 $77 $30 #
plane-surface $-1 0 0 -6.6515442953130517 0 0 1 1 0 0 forward_v I I I I #
coedge $-1 $78 $79 $80 $81 forward $31 $-1 #
face $-1 $82 $83 $19 $-1 $84 reversed single #
loop $-1 $-1 $85 $33 #
plane-surface $-1 -39.100000450008807 0 5.0377526148629279 -1 0 0 0 0 1 forward_v I I I I #
coedge $-1 $86 $87 $88 $89 forward $34 $-1 #
face $-1 $90 $91 $20 $-1 $92 forward single #
loop $-1 $-1 $93 $36 #
plane-surface $-1 -24.682730175677918 36.622704150136514 107.18962905424755 -1 0 0 0 0.5877852598018023 0.80901698891910034 forward_v I I I I #
coedge $-1 $94 $95 $96 $97 reversed $37 $-1 #
face $-1 $-1 $98 $21 $-1 $99 forward single #
loop $-1 $100 $101 $39 #
cone-surface $-1 -31.891365312843366 21.114385137959314 0.48373541559254818 0 -0.5877852598018023 -0.80901698891910034 0.5 0 0 1 I I -0.70710678118654746 0.70710678118654746 0.5 forward I I I I #
loop $-1 $-1 $102 $27 #
coedge $-1 $64 $64 $103 $104 reversed $40 $-1 #
face $-1 $105 $106 $22 $-1 $107 reversed single #
loop $-1 $-1 $108 $42 #
plane-surface $-1 24.333459275537372 -100.82198056595747 56.043935478781073 1 0 0 0 0.80901700255871778 -0.5877852410284794 forward_v I I I I #
coedge $-1 $109 $110 $111 $112 reversed $43 $-1 #
face $-1 $-1 $113 $23 $-1 $114 forward single #
loop $-1 $115 $116 $45 #
cone-surface $-1 34.904239937765638 -24.342206614509948 3.5848116292186152 0 0.80901700255871778 -0.5877852410284794 0.5 0 0 1 I I -0.70710678118654746 0.70710678118654746 0.5 forward I I I I #
loop $-1 $-1 $117 $29 #
coedge $-1 $73 $73 $118 $119 reversed $46 $-1 #
face $-1 $120 $121 $18 $-1 $122 reversed single #
loop $-1 $-1 $123 $48 #
plane-surface $-1 0 -27.241850851751462 0 0 1 0 0 0 1 forward_v I I I I #
coedge $-1 $124 $125 $126 $127 forward $49 $-1 #
coedge $-1 $128 $51 $129 $130 forward $31 $-1 #
coedge $-1 $51 $128 $131 $132 forward $31 $-1 #
coedge $-1 $133 $134 $51 $81 reversed $135 $-1 #
edge $-1 $136 -27.241850851751462 $137 27.241850851751462 $80 $138 forward 7 unknown #
face $-1 $139 $140 $19 $-1 $141 reversed single #
loop $-1 $-1 $142 $52 #
plane-surface $-1 0 27.241850851751462 0 0 -1 0 0 0 -1 forward_v I I I I #
coedge $-1 $143 $144 $145 $146 reversed $53 $-1 #
coedge $-1 $147 $55 $148 $149 reversed $34 $-1 #
coedge $-1 $55 $147 $150 $151 reversed $34 $-1 #
coedge $-1 $144 $143 $55 $89 reversed $53 $-1 #
edge $-1 $152 -27.241850851751462 $153 27.241850851751462 $88 $154 forward 7 unknown #
face $-1 $155 $156 $20 $-1 $157 reversed single #
loop $-1 $-1 $96 $56 #
plane-surface $-1 0 0 6.6515442953130517 0 0 1 1 0 0 forward_v I I I I #
coedge $-1 $158 $159 $160 $161 reversed $57 $-1 #
coedge $-1 $162 $59 $163 $164 reversed $37 $-1 #
coedge $-1 $59 $162 $158 $165 forward $37 $-1 #
coedge $-1 $160 $166 $59 $97 forward $91 $-1 #
edge $-1 $167 -23.154317793587126 $168 -8.7370475192562367 $96 $169 forward 7 unknown #
loop $-1 $-1 $103 $60 #
plane-surface $-1 -31.891365312843362 -16.836389445582931 33.609500580565296 0 0.5877852598018023 0.80901698891910034 1 0 0 forward_v I I I I #
loop $-1 $-1 $170 $39 #
coedge $-1 $101 $101 $102 $171 reversed $61 $-1 #
coedge $-1 $102 $102 $101 $171 forward $63 $-1 #
coedge $-1 $103 $103 $64 $104 forward $98 $-1 #
edge $-1 $172 1.3138026043115513e-015 $172 6.2831853071796013 $103 $173 forward 7 unknown #
face $-1 $174 $175 $22 $-1 $176 forward single #
loop $-1 $-1 $177 $65 #
plane-surface $-1 45.475020599993897 0 0 -1 0 0 0 0 1 forward_v I I I I #
coedge $-1 $178 $179 $180 $181 reversed $66 $-1 #
coedge $-1 $182 $68 $177 $183 reversed $43 $-1 #
coedge $-1 $68 $182 $178 $184 forward $43 $-1 #
coedge $-1 $180 $185 $68 $112 forward $175 $-1 #
edge $-1 $186 -28.022900631111085 $187 -6.881339306654553 $111 $188 forward 7 unknown #
loop $-1 $-1 $118 $69 #
plane-surface $-1 34.904239937765638 -27.241850851751465 2.5848435904961136 0 -0.80901700255871778 0.5877852410284794 1 0 0 forward_v I I I I #
loop $-1 $-1 $189 $45 #
coedge $-1 $116 $116 $117 $190 reversed $70 $-1 #
coedge $-1 $117 $117 $116 $190 forward $72 $-1 #
coedge $-1 $118 $118 $73 $119 forward $113 $-1 #
edge $-1 $191 1.3696812231557939e-015 $191 6.2831853071796022 $118 $192 forward 7 unknown #
face $-1 $193 $194 $18 $-1 $195 reversed single #
loop $-1 $-1 $196 $74 #
plane-surface $-1 -45.475020599993897 0 0 1 0 0 0 0 -1 forward_v I I I I #
coedge $-1 $197 $131 $198 $199 forward $75 $-1 #
coedge $-1 $200 $77 $197 $201 forward $49 $-1 #
coedge $-1 $77 $200 $202 $203 forward $49 $-1 #
coedge $-1 $134 $133 $77 $127 reversed $135 $-1 #
edge $-1 $204 -27.241850851751462 $205 27.241850851751462 $126 $206 forward 7 unknown #
coedge $-1 $79 $78 $207 $208 forward $31 $-1 #
coedge $-1 $209 $210 $78 $130 reversed $194 $-1 #
edge $-1 $137 -45.475020599993897 $211 45.475020599993897 $129 $212 forward 7 unknown #
coedge $-1 $123 $213 $79 $132 reversed $75 $-1 #
edge $-1 $214 -45.475020599993897 $136 45.475020599993897 $131 $215 forward 7 unknown #
coedge $-1 $126 $80 $213 $216 forward $135 $-1 #
coedge $-1 $80 $126 $209 $217 reversed $135 $-1 #
loop $-1 $-1 $133 $193 #
vertex $-1 $81 $218 #
vertex $-1 $81 $219 #
straight-curve $-1 45.475020599993897 0 6.6515442953130517 0 1 0 I I #
face $-1 $220 $221 $19 $-1 $222 forward single #
loop $-1 $-1 $223 $82 #
plane-surface $-1 -45.475020599993897 0 0 1 0 0 0 0 -1 forward_v I I I I #
coedge $-1 $150 $224 $144 $225 forward $83 $-1 #
coedge $-1 $88 $85 $226 $227 reversed $53 $-1 #
coedge $-1 $85 $88 $142 $225 reversed $53 $-1 #
coedge $-1 $228 $229 $85 $146 forward $221 $-1 #
edge $-1 $230 -27.241850851751462 $231 27.241850851751462 $145 $232 forward 7 unknown #
coedge $-1 $87 $86 $223 $233 reversed $34 $-1 #
coedge $-1 $226 $234 $86 $149 forward $235 $-1 #
edge $-1 $236 -24.331265337493221 $153 -17.956245187508131 $148 $237 forward 7 unknown #
coedge $-1 $238 $142 $87 $151 forward $83 $-1 #
edge $-1 $152 17.956245187508131 $239 24.331265337493221 $150 $240 forward 7 unknown #
vertex $-1 $151 $241 #
vertex $-1 $149 $242 #
straight-curve $-1 -39.100000450008807 0 3.4239609344128032 0 -1 0 I I #
face $-1 $-1 $243 $20 $-1 $244 forward single #
loop $-1 $-1 $245 $90 #
plane-surface $-1 0 27.241850851751462 0 0 -1 0 0 0 -1 forward_v I I I I #
coedge $-1 $159 $93 $95 $165 reversed $57 $-1 #
coedge $-1 $93 $158 $245 $246 reversed $57 $-1 #
coedge $-1 $247 $96 $93 $161 forward $91 $-1 #
edge $-1 $168 1.9567013989645972 $248 8.9304987766832049 $160 $249 forward 7 unknown #
coedge $-1 $95 $94 $250 $251 reversed $37 $-1 #
coedge $-1 $252 $253 $94 $164 forward $243 $-1 #
edge $-1 $254 -39.276213006229511 $167 -30.656125327927409 $163 $255 forward 7 unknown #
edge $-1 $256 -54.483701703502916 $168 -45.863614025200818 $158 $257 forward 7 unknown #
coedge $-1 $96 $247 $252 $258 forward $91 $-1 #
vertex $-1 $164 $259 #
vertex $-1 $97 $260 #
straight-curve $-1 -15.945682656421681 20.26805347403285 6.6515442953130517 1 0 0 I I #
coedge $-1 $170 $170 $-1 $261 reversed $100 $-1 #
edge $-1 $262 0 $262 6.2831853071796004 $101 $263 forward 7 unknown #
vertex $-1 $104 $264 #
ellipse-curve $-1 -31.891365312843366 23.754952162892156 4.1181640575604881 0 0.5877852598018023 0.80901698891910034 1 0 0 1 I I #
face $-1 $-1 $265 $22 $-1 $266 reversed single #
loop $-1 $-1 $111 $105 #
plane-surface $-1 0 0 6.6515442953130517 0 0 1 1 0 0 forward_v I I I I #
coedge $-1 $267 $268 $109 $183 forward $106 $-1 #
coedge $-1 $179 $108 $110 $184 reversed $66 $-1 #
coedge $-1 $108 $178 $269 $270 reversed $66 $-1 #
coedge $-1 $271 $111 $108 $181 forward $175 $-1 #
edge $-1 $187 -26.123770355437077 $272 -23.169139431227276 $180 $273 forward 7 unknown #
coedge $-1 $110 $109 $274 $275 reversed $43 $-1 #
edge $-1 $276 -6.9605877276461641 $186 -1.9338692631948877 $177 $277 forward 7 unknown #
edge $-1 $278 6.040265601636166e-015 $187 5.0267184644512835 $178 $279 forward 7 unknown #
coedge $-1 $111 $271 $267 $280 forward $175 $-1 #
vertex $-1 $183 $281 #
vertex $-1 $112 $282 #
straight-curve $-1 17.452119968882819 -24.28721992754166 6.6515442953130517 -1 0 0 I I #
coedge $-1 $189 $189 $-1 $283 reversed $115 $-1 #
edge $-1 $284 0 $284 6.2831853071796004 $116 $285 forward 7 unknown #
vertex $-1 $119 $286 #
ellipse-curve $-1 34.904239937765638 -25.764535389646561 4.6181939429045844 0 -0.80901700255871778 0.5877852410284794 1 0 0 1 I I #
face $-1 $-1 $135 $18 $-1 $287 reversed single #
loop $-1 $-1 $209 $120 #
plane-surface $-1 0 27.241850851751462 0 0 -1 0 0 0 -1 forward_v I I I I #
coedge $-1 $288 $207 $210 $289 forward $121 $-1 #
coedge $-1 $213 $123 $124 $201 reversed $75 $-1 #
coedge $-1 $207 $288 $123 $199 reversed $121 $-1 #
edge $-1 $214 -6.6515442953130517 $290 6.6515442953130517 $198 $291 forward 7 unknown #
coedge $-1 $125 $124 $288 $292 forward $49 $-1 #
edge $-1 $205 -45.475020599993897 $290 45.475020599993897 $197 $293 forward 7 unknown #
coedge $-1 $210 $209 $125 $203 reversed $194 $-1 #
edge $-1 $294 -45.475020599993897 $204 45.475020599993897 $202 $295 forward 7 unknown #
vertex $-1 $127 $296 #
vertex $-1 $216 $297 #
straight-curve $-1 45.475020599993897 0 -6.6515442953130517 0 -1 0 I I #
coedge $-1 $196 $198 $128 $208 reversed $121 $-1 #
edge $-1 $211 -27.241850851751462 $214 27.241850851751462 $207 $298 forward 7 unknown #
coedge $-1 $202 $129 $134 $217 forward $194 $-1 #
coedge $-1 $129 $202 $196 $289 reversed $194 $-1 #
vertex $-1 $130 $299 #
straight-curve $-1 0 27.241850851751462 6.6515442953130517 -1 0 0 I I #
coedge $-1 $131 $197 $133 $216 reversed $75 $-1 #
vertex $-1 $208 $300 #
straight-curve $-1 0 -27.241850851751462 6.6515442953130517 1 0 0 I I #
edge $-1 $136 -6.6515442953130517 $205 6.6515442953130517 $133 $301 forward 7 unknown #
edge $-1 $137 -6.6515442953130517 $204 6.6515442953130517 $134 $302 forward 7 unknown #
point $-1 45.475020599993897 -27.241850851751462 6.6515442953130517 #
point $-1 45.475020599993897 27.241850851751462 6.6515442953130517 #
face $-1 $-1 $235 $19 $-1 $303 reversed single #
loop $-1 $-1 $145 $139 #
plane-surface $-1 0 0 6.6515442953130517 0 0 1 1 0 0 forward_v I I I I #
coedge $-1 $304 $305 $147 $233 forward $140 $-1 #
coedge $-1 $142 $238 $228 $306 reversed $83 $-1 #
edge $-1 $231 -4.1326679878815886 $152 -0.90508462698133929 $142 $307 forward 7 unknown #
coedge $-1 $308 $148 $143 $227 forward $235 $-1 #
edge $-1 $153 0.90508462698133929 $230 4.1326679878815886 $226 $309 forward 7 unknown #
coedge $-1 $310 $145 $224 $306 forward $221 $-1 #
coedge $-1 $145 $310 $308 $311 forward $221 $-1 #
vertex $-1 $227 $312 #
vertex $-1 $306 $313 #
straight-curve $-1 -39.100000450008807 0 6.6515442953130517 0 1 0 I I #
edge $-1 $239 -27.241850851751462 $236 27.241850851751462 $223 $314 forward 7 unknown #
coedge $-1 $148 $308 $304 $315 forward $235 $-1 #
loop $-1 $-1 $226 $220 #
vertex $-1 $233 $316 #
straight-curve $-1 -21.143755262500676 -27.241850851751462 3.4239609344128032 1 0 0 I I #
coedge $-1 $224 $150 $305 $317 reversed $83 $-1 #
vertex $-1 $233 $318 #
straight-curve $-1 -21.143755262500676 27.241850851751462 3.4239609344128032 -1 0 0 I I #
point $-1 -39.100000450008807 27.241850851751462 3.4239609344128032 #
point $-1 -39.100000450008807 -27.241850851751462 3.4239609344128032 #
loop $-1 $-1 $163 $155 #
plane-surface $-1 -39.100000450008807 0 5.0377526148629279 -1 0 0 0 0 1 forward_v I I I I #
coedge $-1 $250 $319 $159 $246 forward $156 $-1 #
edge $-1 $248 46.943270231810722 $256 52.010030707315835 $245 $320 forward 7 unknown #
coedge $-1 $166 $160 $319 $321 forward $91 $-1 #
vertex $-1 $321 $322 #
straight-curve $-1 -24.682730175677918 18.311352075068257 6.6515442953130517 0 1 0 I I #
coedge $-1 $323 $245 $162 $251 forward $156 $-1 #
edge $-1 $256 8.7370475192562367 $254 23.154317793587126 $250 $324 forward 7 unknown #
coedge $-1 $253 $163 $166 $258 reversed $243 $-1 #
coedge $-1 $163 $252 $323 $325 reversed $243 $-1 #
vertex $-1 $325 $326 #
straight-curve $-1 -39.100000450008807 -4.5332727306935503 24.670762885705475 0 -0.80901698891910034 0.5877852598018023 I I #
vertex $-1 $251 $327 #
straight-curve $-1 -24.682730175677918 -16.836389445582931 33.609500580565296 0 -0.80901698891910034 0.5877852598018023 I I #
edge $-1 $328 -27.241850851751462 $167 -20.26805347403285 $166 $329 forward 7 unknown #
point $-1 -39.100000450008807 20.26805347403285 6.6515442953130517 #
point $-1 -24.682730175677918 20.268053474032854 6.6515442953130517 #
edge $-1 $330 1 $330 0 $170 $-1 forward 7 unknown #
vertex $-1 $171 $331 #
ellipse-curve $-1 -31.891365312843366 21.408277767860216 0.88824391005209835 0 0.5877852598018023 0.80901698891910034 1 0 0 1 I I #
point $-1 -30.891365312843366 23.754952162892167 4.1181640575605005 #
loop $-1 $-1 $274 $174 #
plane-surface $-1 0 -27.241850851751462 0 0 1 0 0 0 1 forward_v I I I I #
coedge $-1 $268 $177 $185 $280 reversed $106 $-1 #
coedge $-1 $177 $267 $332 $333 forward $106 $-1 #
coedge $-1 $274 $334 $179 $270 forward $265 $-1 #
edge $-1 $272 21.370423444077485 $278 25.437124148894419 $269 $335 forward 7 unknown #
coedge $-1 $185 $180 $334 $336 forward $175 $-1 #
vertex $-1 $336 $337 #
straight-curve $-1 24.333459275537372 -50.410990282978737 6.6515442953130517 0 -1 0 I I #
coedge $-1 $332 $269 $182 $275 forward $265 $-1 #
edge $-1 $278 6.881339306654553 $276 28.022900631111085 $274 $338 forward 7 unknown #
vertex $-1 $183 $339 #
straight-curve $-1 45.475020599993897 -23.150520116557086 8.2160774099634164 0 0.5877852410284794 0.80901700255871778 I I #
vertex $-1 $275 $340 #
straight-curve $-1 24.333459275537372 -27.241850851751465 2.5848435904961136 0 0.5877852410284794 0.80901700255871778 I I #
edge $-1 $341 -27.241850851751462 $186 -24.28721992754166 $267 $342 forward 7 unknown #
point $-1 45.475020599993904 -24.28721992754166 6.6515442953130517 #
point $-1 24.333459275537372 -24.28721992754166 6.6515442953130517 #
edge $-1 $343 1 $343 0 $189 $-1 forward 7 unknown #
vertex $-1 $190 $344 #
ellipse-curve $-1 34.904239937765638 -24.746715115789307 3.8787042497328548 0 -0.80901700255871778 0.5877852410284794 1 0 0 1 I I #
point $-1 35.904239937765638 -25.764535389646557 4.6181939429045835 #
plane-surface $-1 45.475020599993897 0 0 -1 0 0 0 0 1 forward_v I I I I #
coedge $-1 $198 $196 $200 $292 reversed $121 $-1 #
edge $-1 $211 -6.6515442953130517 $294 6.6515442953130517 $210 $345 forward 7 unknown #
vertex $-1 $292 $346 #
straight-curve $-1 -45.475020599993897 -27.241850851751462 0 0 0 -1 I I #
edge $-1 $290 -27.241850851751462 $294 27.241850851751462 $288 $347 forward 7 unknown #
straight-curve $-1 0 -27.241850851751462 -6.6515442953130517 -1 0 0 I I #
vertex $-1 $203 $348 #
straight-curve $-1 0 27.241850851751462 -6.6515442953130517 1 0 0 I I #
point $-1 45.475020599993897 27.241850851751462 -6.6515442953130517 #
point $-1 45.475020599993897 -27.241850851751462 -6.6515442953130517 #
straight-curve $-1 -45.475020599993897 0 6.6515442953130517 0 -1 0 I I #
point $-1 -45.475020599993897 27.241850851751462 6.6515442953130517 #
point $-1 -45.475020599993897 -27.241850851751462 6.6515442953130517 #
straight-curve $-1 45.475020599993897 -27.241850851751462 0 0 0 -1 I I #
straight-curve $-1 45.475020599993897 27.241850851751462 0 0 0 -1 I I #
plane-surface $-1 0 -27.241850851751462 0 0 1 0 0 0 1 forward_v I I I I #
coedge $-1 $349 $223 $234 $315 reversed $140 $-1 #
coedge $-1 $223 $349 $238 $317 forward $140 $-1 #
edge $-1 $231 39.100000450008807 $350 45.475020599993897 $224 $351 forward 7 unknown #
straight-curve $-1 -39.100000450008807 27.241850851751462 2.518876307431464 0 0 -1 I I #
coedge $-1 $234 $226 $229 $311 reversed $235 $-1 #
straight-curve $-1 -39.100000450008807 -27.241850851751462 2.518876307431464 0 0 1 I I #
coedge $-1 $229 $228 $349 $352 forward $221 $-1 #
edge $-1 $353 -45.475020599993897 $230 -39.100000450008807 $308 $354 forward 7 unknown #
point $-1 -39.100000450008807 -27.241850851751462 6.6515442953130526 #
point $-1 -39.100000450008807 27.241850851751462 6.6515442953130526 #
straight-curve $-1 -45.475020599993897 0 3.4239609344128032 0 -1 0 I I #
edge $-1 $353 -6.6515442953130517 $236 -3.4239609344128032 $304 $355 forward 7 unknown #
point $-1 -45.475020599993897 -27.241850851751462 3.4239609344128032 #
edge $-1 $350 -6.6515442953130517 $239 -3.4239609344128032 $238 $356 forward 7 unknown #
point $-1 -45.475020599993897 27.241850851751462 3.4239609344128032 #
coedge $-1 $245 $323 $247 $321 reversed $156 $-1 #
straight-curve $-1 -24.682730175677918 27.241850851751462 53.594814527123773 0 0 -1 I I #
edge $-1 $248 24.682730175677918 $328 39.100000450008807 $319 $357 forward 7 unknown #
point $-1 -24.682730175677918 27.241850851751462 6.6515442953130517 #
coedge $-1 $319 $250 $253 $325 forward $156 $-1 #
straight-curve $-1 -15.945682656421681 27.241850851751462 1.5847838198079369 -1 0 0 I I #
edge $-1 $254 -52.010030707315835 $328 -46.943270231810722 $323 $358 forward 7 unknown #
point $-1 -39.100000450008807 27.241850851751458 1.5847838198079387 #
point $-1 -24.682730175677918 27.241850851751458 1.5847838198079387 #
vertex $-1 $258 $359 #
straight-curve $-1 -39.100000450008807 0 6.6515442953130517 0 -1 0 I I #
vertex $-1 $261 $360 #
point $-1 -30.891365312843366 21.408277767860216 0.88824391005209835 #
coedge $-1 $334 $274 $268 $333 reversed $265 $-1 #
edge $-1 $341 -6.6515442953130517 $276 -2.5848435904961184 $268 $361 forward 7 unknown #
coedge $-1 $269 $332 $271 $336 reversed $265 $-1 #
straight-curve $-1 24.333459275537372 -27.241850851751465 28.021967739390536 0 0 -1 I I #
edge $-1 $272 24.333459275537372 $341 45.475020599993897 $334 $362 forward 7 unknown #
point $-1 24.333459275537372 -27.241850851751462 6.6515442953130517 #
straight-curve $-1 17.452119968882819 -27.241850851751462 2.5848435904961202 1 0 0 I I #
point $-1 45.475020599993904 -27.241850851751462 2.5848435904961184 #
point $-1 24.333459275537372 -27.241850851751462 2.5848435904961184 #
vertex $-1 $280 $363 #
straight-curve $-1 45.475020599993897 0 6.6515442953130517 0 1 0 I I #
vertex $-1 $283 $364 #
point $-1 35.904239937765638 -24.746715115789307 3.8787042497328548 #
straight-curve $-1 -45.475020599993897 27.241850851751462 0 0 0 -1 I I #
point $-1 -45.475020599993897 -27.241850851751462 -6.6515442953130517 #
straight-curve $-1 -45.475020599993897 0 -6.6515442953130517 0 1 0 I I #
point $-1 -45.475020599993897 27.241850851751462 -6.6515442953130517 #
coedge $-1 $305 $304 $310 $352 reversed $140 $-1 #
vertex $-1 $306 $365 #
straight-curve $-1 0 27.241850851751462 6.6515442953130517 -1 0 0 I I #
edge $-1 $350 -27.241850851751462 $353 27.241850851751462 $349 $366 forward 7 unknown #
vertex $-1 $352 $367 #
straight-curve $-1 0 -27.241850851751462 6.6515442953130517 1 0 0 I I #
straight-curve $-1 -45.475020599993897 -27.241850851751462 0 0 0 -1 I I #
straight-curve $-1 -45.475020599993897 27.241850851751462 0 0 0 -1 I I #
straight-curve $-1 0 27.241850851751462 6.6515442953130517 -1 0 0 I I #
straight-curve $-1 -39.100000450008807 27.241850851751462 53.594814527123773 0 0 1 I I #
point $-1 -39.100000450008807 27.241850851751462 6.6515442953130526 #
point $-1 -31.891365312843366 20.820492508058411 0.079226921132998007 #
straight-curve $-1 45.475020599993897 -27.241850851751462 0 0 0 -1 I I #
straight-curve $-1 0 -27.241850851751462 6.6515442953130517 1 0 0 I I #
point $-1 45.475020599993897 -27.241850851751462 6.6515442953130517 #
point $-1 34.904239937765638 -23.937698113230589 3.2909190087043756 #
point $-1 -45.475020599993897 27.241850851751462 6.6515442953130517 #
straight-curve $-1 -45.475020599993897 0 6.6515442953130517 0 -1 0 I I #
point $-1 -45.475020599993897 -27.241850851751462 6.6515442953130517 #
End-of-ACIS-data 