500 0 4 0           
7 Unknown 11 ACIS 5.0 NT 24 Fri Mar 26 19:25:44 1999 
-1 9.9999999999999995e-007 1e-010 
body $-1 $4 $-1 $5 #
body $-1 $6 $-1 $7 #
body $-1 $8 $-1 $9 #
body $-1 $10 $-1 $11 #
lump $-1 $-1 $12 $0 #
transform $-1 1 0 0 0 1 0 0 0 1 68.571428571428569 28.792173310255528 8.9923808472699065 1 rotate no_reflect no_shear #
lump $-1 $-1 $13 $1 #
transform $-1 1 0 0 0 1 0 0 0 1 68.571428571428569 28.792173310255528 8.9923808472699065 1 rotate no_reflect no_shear #
lump $-1 $-1 $14 $2 #
transform $-1 1 0 0 0 1 0 0 0 1 68.571428571428569 28.792173310255528 8.9923808472699065 1 rotate no_reflect no_shear #
lump $-1 $-1 $15 $3 #
transform $-1 1 0 0 0 1 0 0 0 1 68.571428571428569 28.792173310255528 8.9923808472699065 1 rotate no_reflect no_shear #
shell $-1 $-1 $-1 $16 $-1 $4 #
shell $-1 $-1 $-1 $17 $-1 $6 #
shell $-1 $-1 $-1 $18 $-1 $8 #
shell $-1 $-1 $-1 $19 $-1 $10 #
face $-1 $20 $21 $12 $-1 $22 forward single #
face $-1 $23 $24 $13 $-1 $25 reversed single #
face $-1 $26 $27 $14 $-1 $28 forward single #
face $-1 $29 $30 $15 $-1 $31 reversed single #
face $-1 $32 $33 $12 $-1 $34 reversed single #
loop $-1 $-1 $35 $16 #
plane-surface $-1 0 0 8.9923808472699065 0 0 1 1 0 0 forward_v I I I I #
face $-1 $36 $37 $13 $-1 $38 reversed single #
loop $-1 $-1 $39 $17 #
plane-surface $-1 -61.788591765947601 -38.224334738834379 0 0 1 0 0 0 1 forward_v I I I I #
face $-1 $40 $41 $14 $-1 $42 forward single #
loop $-1 $-1 $43 $18 #
plane-surface $-1 -49.640126115729629 70.347528813944876 148.03252186783169 1 0 0 0 -0.62932039886446345 -0.77714595512881146 forward_v I I I I #
face $-1 $44 $45 $15 $-1 $46 reversed single #
loop $-1 $47 $48 $19 #
cone-surface $-1 -39.266832427393368 25.987298498555873 6.5205499651193737 0 -0.62932039886446345 -0.77714595512881146 1 0 0 1 I I 0 1 1 forward I I I I #
face $-1 $49 $50 $12 $-1 $51 reversed single #
loop $-1 $-1 $52 $20 #
plane-surface $-1 0 0 -8.9923808472699065 0 0 1 1 0 0 forward_v I I I I #
coedge $-1 $53 $54 $55 $56 forward $21 $-1 #
face $-1 $57 $58 $13 $-1 $59 reversed single #
loop $-1 $-1 $60 $23 #
plane-surface $-1 -64.319559885212314 -33.508254024544954 0 1 0 0 0 0 -1 forward_v I I I I #
coedge $-1 $61 $62 $63 $64 forward $24 $-1 #
face $-1 $65 $66 $14 $-1 $67 forward single #
loop $-1 $-1 $68 $26 #
plane-surface $-1 -39.266832427393368 -15.959268744610114 41.452505164451836 0 0.62932039886446345 0.77714595512881146 1 0 0 forward_v I I I I #
coedge $-1 $69 $70 $71 $72 reversed $27 $-1 #
face $-1 $73 $74 $15 $-1 $75 forward single #
loop $-1 $76 $77 $29 #
cone-surface $-1 -39.266832427393368 25.201027316906277 5.5495859385982271 0 -0.62932039886446345 -0.77714595512881146 0.5 0 0 1 I I -0.70710678118654746 0.70710678118654746 0.5 forward I I I I #
loop $-1 $-1 $78 $19 #
coedge $-1 $48 $48 $79 $80 reversed $30 $-1 #
face $-1 $81 $82 $12 $-1 $83 reversed single #
loop $-1 $-1 $84 $32 #
plane-surface $-1 0 -28.792173310255528 0 0 1 0 0 0 1 forward_v I I I I #
coedge $-1 $85 $86 $87 $88 forward $33 $-1 #
coedge $-1 $89 $35 $90 $91 forward $21 $-1 #
coedge $-1 $35 $89 $92 $93 forward $21 $-1 #
coedge $-1 $94 $95 $35 $56 reversed $96 $-1 #
edge $-1 $97 -28.792173310255528 $98 28.792173310255528 $55 $99 forward 7 unknown #
face $-1 $100 $101 $13 $-1 $102 reversed single #
loop $-1 $-1 $103 $36 #
plane-surface $-1 -59.257623646682895 -33.508254024544954 0 -1 0 0 0 0 1 forward_v I I I I #
coedge $-1 $104 $105 $106 $107 reversed $37 $-1 #
coedge $-1 $108 $39 $109 $110 reversed $24 $-1 #
coedge $-1 $39 $108 $111 $112 reversed $24 $-1 #
coedge $-1 $105 $104 $39 $64 reversed $37 $-1 #
edge $-1 $113 -8.9923808472699065 $114 8.9923808472699065 $63 $115 forward 7 unknown #
face $-1 $116 $117 $14 $-1 $118 forward single #
loop $-1 $-1 $119 $40 #
plane-surface $-1 -28.893538739057107 70.347528813944876 148.03252186783169 -1 0 0 0 0.62932039886446345 0.77714595512881146 forward_v I I I I #
coedge $-1 $120 $121 $122 $123 reversed $41 $-1 #
coedge $-1 $70 $43 $121 $124 forward $27 $-1 #
coedge $-1 $43 $69 $125 $126 reversed $27 $-1 #
coedge $-1 $127 $122 $43 $72 forward $117 $-1 #
edge $-1 $128 -11.048118755681521 $129 -6.3815910967169103 $71 $130 forward 7 unknown #
face $-1 $131 $132 $15 $-1 $133 forward single #
loop $-1 $-1 $134 $44 #
plane-surface $-1 -49.640126115729629 70.347528813944876 148.03252186783169 1 0 0 0 -0.62932039886446345 -0.77714595512881146 forward_v I I I I #
loop $-1 $-1 $135 $29 #
coedge $-1 $77 $77 $78 $136 forward $45 $-1 #
coedge $-1 $78 $78 $77 $136 reversed $47 $-1 #
coedge $-1 $79 $79 $48 $80 forward $132 $-1 #
edge $-1 $137 1.6883460765924571e-016 $137 6.2831853071796004 $79 $138 forward 7 unknown #
face $-1 $139 $140 $12 $-1 $141 reversed single #
loop $-1 $-1 $142 $49 #
plane-surface $-1 -68.571428571428569 0 0 1 0 0 0 0 -1 forward_v I I I I #
coedge $-1 $143 $92 $144 $145 forward $50 $-1 #
coedge $-1 $146 $52 $143 $147 forward $33 $-1 #
coedge $-1 $52 $146 $148 $149 forward $33 $-1 #
coedge $-1 $95 $94 $52 $88 reversed $96 $-1 #
edge $-1 $150 -28.792173310255528 $151 28.792173310255528 $87 $152 forward 7 unknown #
coedge $-1 $54 $53 $153 $154 forward $21 $-1 #
coedge $-1 $155 $156 $53 $91 reversed $140 $-1 #
edge $-1 $98 -68.571428571428569 $157 68.571428571428569 $90 $158 forward 7 unknown #
coedge $-1 $84 $159 $54 $93 reversed $50 $-1 #
edge $-1 $160 -68.571428571428569 $97 68.571428571428569 $92 $161 forward 7 unknown #
coedge $-1 $87 $55 $159 $162 forward $96 $-1 #
coedge $-1 $55 $87 $155 $163 reversed $96 $-1 #
loop $-1 $-1 $94 $139 #
vertex $-1 $56 $164 #
vertex $-1 $56 $165 #
straight-curve $-1 68.571428571428569 0 8.9923808472699065 0 1 0 I I #
face $-1 $166 $167 $13 $-1 $102 reversed single #
loop $-1 $-1 $106 $57 #
plane-surface $-1 0 -28.792173310255528 0 0 1 0 0 0 1 forward_v I I I I #
coedge $-1 $168 $169 $108 $170 forward $58 $-1 #
coedge $-1 $63 $60 $171 $172 reversed $37 $-1 #
coedge $-1 $60 $63 $173 $174 reversed $37 $-1 #
coedge $-1 $175 $176 $60 $107 forward $101 $-1 #
edge $-1 $177 -8.9923808472699065 $178 8.9923808472699065 $106 $179 forward 7 unknown #
coedge $-1 $62 $61 $103 $170 reversed $24 $-1 #
coedge $-1 $171 $180 $61 $110 forward $181 $-1 #
edge $-1 $182 -2.5309681192647062 $114 2.5309681192647133 $61 $183 forward 7 unknown #
coedge $-1 $184 $173 $62 $112 forward $185 $-1 #
edge $-1 $113 -2.5309681192647133 $186 2.5309681192647062 $62 $187 forward 7 unknown #
vertex $-1 $174 $188 #
vertex $-1 $172 $189 #
straight-curve $-1 -64.319559885212314 -38.224334738834379 0 0 0 -1 I I #
face $-1 $190 $191 $14 $-1 $192 reversed single #
loop $-1 $-1 $193 $65 #
plane-surface $-1 0 0 8.9923808472699065 0 0 1 1 0 0 forward_v I I I I #
coedge $-1 $194 $195 $193 $196 reversed $66 $-1 #
coedge $-1 $197 $68 $195 $198 reversed $41 $-1 #
coedge $-1 $68 $197 $69 $124 reversed $41 $-1 #
coedge $-1 $71 $193 $68 $123 forward $117 $-1 #
edge $-1 $199 9.2601225253604227 $128 30.006709902032945 $122 $200 forward 7 unknown #
edge $-1 $128 51.579647466938155 $201 57.584346620511099 $69 $202 forward 7 unknown #
coedge $-1 $203 $204 $70 $126 forward $205 $-1 #
edge $-1 $129 65.023880086645931 $201 68.80275975303357 $125 $206 forward 7 unknown #
coedge $-1 $207 $71 $204 $208 forward $117 $-1 #
vertex $-1 $123 $209 #
vertex $-1 $208 $210 #
straight-curve $-1 -49.640126115729629 35.173764406972438 8.9923808472698994 0 1 0 I I #
face $-1 $211 $212 $15 $-1 $213 forward single #
loop $-1 $214 $79 $73 #
plane-surface $-1 -39.266832427393368 -15.959268744610114 41.452505164451836 0 0.62932039886446345 0.77714595512881146 1 0 0 forward_v I I I I #
coedge $-1 $215 $216 $217 $218 reversed $74 $-1 #
coedge $-1 $135 $135 $-1 $219 forward $76 $-1 #
edge $-1 $220 0 $220 6.2831853071796004 $77 $221 forward 7 unknown #
vertex $-1 $80 $222 #
ellipse-curve $-1 -39.266832427393368 26.458909480773219 7.1029410140760927 0 -0.62932039886446345 -0.77714595512881146 1 0 0 1 I I #
face $-1 $-1 $96 $12 $-1 $223 reversed single #
loop $-1 $-1 $155 $81 #
plane-surface $-1 0 28.792173310255528 0 0 -1 0 0 0 -1 forward_v I I I I #
coedge $-1 $224 $153 $156 $225 forward $82 $-1 #
coedge $-1 $159 $84 $85 $147 reversed $50 $-1 #
coedge $-1 $153 $224 $84 $145 reversed $82 $-1 #
edge $-1 $160 -8.9923808472699065 $226 8.9923808472699065 $144 $227 forward 7 unknown #
coedge $-1 $86 $85 $224 $228 forward $33 $-1 #
edge $-1 $151 -68.571428571428569 $226 68.571428571428569 $143 $229 forward 7 unknown #
coedge $-1 $156 $155 $86 $149 reversed $140 $-1 #
edge $-1 $230 -68.571428571428569 $150 68.571428571428569 $148 $231 forward 7 unknown #
vertex $-1 $88 $232 #
vertex $-1 $162 $233 #
straight-curve $-1 68.571428571428569 0 -8.9923808472699065 0 -1 0 I I #
coedge $-1 $142 $144 $89 $154 reversed $82 $-1 #
edge $-1 $157 -28.792173310255528 $160 28.792173310255528 $153 $234 forward 7 unknown #
coedge $-1 $148 $90 $95 $163 forward $140 $-1 #
coedge $-1 $90 $148 $142 $225 reversed $140 $-1 #
vertex $-1 $91 $235 #
straight-curve $-1 0 28.792173310255528 8.9923808472699065 -1 0 0 I I #
coedge $-1 $92 $143 $94 $162 reversed $50 $-1 #
vertex $-1 $154 $236 #
straight-curve $-1 0 -28.792173310255528 8.9923808472699065 1 0 0 I I #
edge $-1 $97 -8.9923808472699065 $151 8.9923808472699065 $94 $237 forward 7 unknown #
edge $-1 $98 -8.9923808472699065 $150 8.9923808472699065 $95 $238 forward 7 unknown #
point $-1 68.571428571428569 -28.792173310255528 8.9923808472699065 #
point $-1 68.571428571428569 28.792173310255528 8.9923808472699065 #
face $-1 $239 $185 $13 $-1 $240 forward single #
loop $-1 $-1 $241 $100 #
coedge $-1 $242 $103 $180 $243 reversed $58 $-1 #
coedge $-1 $103 $242 $184 $244 reversed $58 $-1 #
edge $-1 $186 -8.9923808472699065 $182 8.9923808472699065 $103 $245 forward 7 unknown #
coedge $-1 $246 $109 $104 $172 forward $181 $-1 #
edge $-1 $114 -4.7160807142894257 $177 4.7160807142894221 $104 $247 forward 7 unknown #
coedge $-1 $111 $248 $105 $174 forward $185 $-1 #
edge $-1 $178 -4.7160807142894221 $113 4.7160807142894257 $105 $249 forward 7 unknown #
coedge $-1 $250 $106 $248 $251 reversed $101 $-1 #
coedge $-1 $106 $250 $246 $252 reversed $101 $-1 #
vertex $-1 $252 $253 #
vertex $-1 $174 $254 #
straight-curve $-1 -64.319559885212314 -28.792173310255528 0 0 0 1 I I #
coedge $-1 $109 $255 $168 $243 forward $181 $-1 #
loop $-1 $-1 $256 $239 #
vertex $-1 $170 $257 #
straight-curve $-1 -61.788591765947601 -38.224334738834379 -8.9923808472699065 -1 0 0 I I #
coedge $-1 $258 $111 $169 $244 forward $185 $-1 #
loop $-1 $-1 $259 $166 #
vertex $-1 $244 $260 #
straight-curve $-1 -61.788591765947601 -38.224334738834379 8.9923808472699065 1 0 0 I I #
point $-1 -64.319559885212314 -38.224334738834379 8.9923808472699065 #
point $-1 -64.319559885212314 -38.224334738834379 -8.9923808472699065 #
face $-1 $261 $262 $14 $-1 $263 reversed single #
loop $-1 $-1 $264 $116 #
plane-surface $-1 -61.788591765947601 -38.224334738834379 0 0 1 0 0 0 1 forward_v I I I I #
coedge $-1 $122 $265 $119 $196 forward $117 $-1 #
coedge $-1 $195 $119 $266 $267 reversed $66 $-1 #
coedge $-1 $119 $194 $120 $198 forward $66 $-1 #
edge $-1 $268 6.3815910967169103 $199 11.048118755681521 $193 $269 forward 7 unknown #
coedge $-1 $121 $120 $203 $270 reversed $41 $-1 #
edge $-1 $271 -57.584346620511099 $199 -51.579647466938155 $195 $272 forward 7 unknown #
vertex $-1 $123 $273 #
straight-curve $-1 -19.633416213696684 24.12564565129092 8.9923808472699065 -1 0 0 I I #
vertex $-1 $270 $274 #
straight-curve $-1 -49.640126115729629 -15.959268744610114 41.452505164451836 0 0.77714595512881146 -0.62932039886446345 I I #
coedge $-1 $266 $125 $197 $270 forward $205 $-1 #
coedge $-1 $125 $275 $127 $208 reversed $205 $-1 #
loop $-1 $-1 $266 $276 #
straight-curve $-1 -49.640126115729629 28.792173310255528 74.016260933915845 0 0 -1 I I #
coedge $-1 $277 $127 $278 $279 forward $117 $-1 #
edge $-1 $129 49.640126115729629 $280 68.571428571428569 $204 $281 forward 7 unknown #
point $-1 -49.640126115729629 24.125645651290917 8.9923808472699065 #
point $-1 -49.640126115729629 28.792173310255528 8.9923808472699065 #
face $-1 $282 $283 $15 $-1 $284 forward single #
loop $-1 $-1 $285 $131 #
plane-surface $-1 -28.893538739057107 70.347528813944876 148.03252186783169 -1 0 0 0 0.62932039886446345 0.77714595512881146 forward_v I I I I #
loop $-1 $-1 $286 $73 #
coedge $-1 $216 $134 $287 $288 forward $74 $-1 #
coedge $-1 $134 $215 $289 $290 reversed $74 $-1 #
coedge $-1 $291 $292 $134 $218 forward $283 $-1 #
edge $-1 $293 -11.048118755681521 $294 -6.3815910967169103 $217 $295 forward 7 unknown #
edge $-1 $296 1 $296 0 $135 $-1 forward 7 unknown #
vertex $-1 $136 $297 #
ellipse-curve $-1 -39.266832427393368 25.51568751633851 5.9381589161626325 0 0.62932039886446345 0.77714595512881146 1 0 0 1 I I #
point $-1 -38.266832427393368 26.458909480773237 7.1029410140761149 #
plane-surface $-1 68.571428571428569 0 0 -1 0 0 0 0 1 forward_v I I I I #
coedge $-1 $144 $142 $146 $228 reversed $82 $-1 #
edge $-1 $157 -8.9923808472699065 $230 8.9923808472699065 $156 $298 forward 7 unknown #
vertex $-1 $228 $299 #
straight-curve $-1 -68.571428571428569 -28.792173310255528 0 0 0 -1 I I #
edge $-1 $226 -28.792173310255528 $230 28.792173310255528 $224 $300 forward 7 unknown #
straight-curve $-1 0 -28.792173310255528 -8.9923808472699065 -1 0 0 I I #
vertex $-1 $149 $301 #
straight-curve $-1 0 28.792173310255528 -8.9923808472699065 1 0 0 I I #
point $-1 68.571428571428569 28.792173310255528 -8.9923808472699065 #
point $-1 68.571428571428569 -28.792173310255528 -8.9923808472699065 #
straight-curve $-1 -68.571428571428569 0 8.9923808472699065 0 -1 0 I I #
point $-1 -68.571428571428569 28.792173310255528 8.9923808472699065 #
point $-1 -68.571428571428569 -28.792173310255528 8.9923808472699065 #
straight-curve $-1 68.571428571428569 -28.792173310255528 0 0 0 -1 I I #
straight-curve $-1 68.571428571428569 28.792173310255528 0 0 0 -1 I I #
face $-1 $302 $181 $13 $-1 $303 reversed single #
plane-surface $-1 0 0 8.9923808472699065 0 0 1 1 0 0 forward_v I I I I #
coedge $-1 $304 $305 $242 $306 forward $167 $-1 #
coedge $-1 $169 $168 $241 $306 reversed $58 $-1 #
edge $-1 $307 -4.7160807142894221 $182 4.7160807142894257 $168 $308 forward 7 unknown #
edge $-1 $186 -4.7160807142894257 $309 4.7160807142894221 $169 $310 forward 7 unknown #
straight-curve $-1 -59.257623646682895 -38.224334738834379 0 0 0 -1 I I #
coedge $-1 $311 $171 $176 $252 forward $181 $-1 #
straight-curve $-1 -64.319559885212314 -33.508254024544954 -8.9923808472699065 0 1 0 I I #
coedge $-1 $173 $312 $175 $251 forward $185 $-1 #
straight-curve $-1 -64.319559885212314 -33.508254024544954 8.9923808472699065 0 -1 0 I I #
coedge $-1 $176 $175 $313 $314 forward $101 $-1 #
edge $-1 $315 -68.571428571428569 $178 -64.319559885212314 $175 $316 forward 7 unknown #
edge $-1 $177 64.319559885212314 $317 68.571428571428569 $176 $318 forward 7 unknown #
point $-1 -64.319559885212314 -28.792173310255532 -8.9923808472699065 #
point $-1 -64.319559885212314 -28.792173310255532 8.9923808472699065 #
coedge $-1 $180 $256 $304 $319 forward $181 $-1 #
coedge $-1 $255 $320 $321 $322 forward $181 $-1 #
point $-1 -59.257623646682895 -38.224334738834379 -8.9923808472699065 #
coedge $-1 $259 $184 $305 $323 forward $185 $-1 #
coedge $-1 $324 $258 $325 $326 forward $185 $-1 #
point $-1 -59.257623646682895 -38.224334738834379 8.9923808472699065 #
face $-1 $327 $328 $14 $-1 $329 reversed single #
loop $-1 $-1 $330 $190 #
plane-surface $-1 -64.319559885212314 -33.508254024544954 0 1 0 0 0 0 -1 forward_v I I I I #
coedge $-1 $331 $332 $333 $334 forward $191 $-1 #
coedge $-1 $193 $335 $336 $337 forward $117 $-1 #
coedge $-1 $336 $203 $194 $267 forward $205 $-1 #
edge $-1 $271 -68.80275975303357 $268 -65.023880086645931 $266 $338 forward 7 unknown #
vertex $-1 $267 $339 #
straight-curve $-1 -28.893538739057107 35.173764406972438 8.9923808472698994 0 -1 0 I I #
edge $-1 $201 -30.006709902032945 $271 -9.2601225253604227 $203 $340 forward 7 unknown #
vertex $-1 $270 $341 #
straight-curve $-1 -28.893538739057107 -15.959268744610114 41.452505164451836 0 -0.77714595512881146 0.62932039886446345 I I #
point $-1 -28.893538739057107 24.125645651290917 8.9923808472699065 #
point $-1 -49.640126115729629 28.792173310255528 5.2135011808822753 #
coedge $-1 $204 $342 $343 $344 reversed $205 $-1 #
face $-1 $345 $205 $14 $-1 $346 reversed single #
coedge $-1 $347 $207 $348 $349 forward $117 $-1 #
coedge $-1 $343 $350 $207 $279 reversed $351 $-1 #
edge $-1 $280 -28.792173310255528 $352 28.792173310255528 $278 $353 forward 7 unknown #
vertex $-1 $208 $354 #
straight-curve $-1 0 28.792173310255528 8.9923808472699065 -1 0 0 I I #
face $-1 $355 $356 $15 $-1 $357 reversed single #
loop $-1 $-1 $358 $211 #
plane-surface $-1 0 0 8.9923808472699065 0 0 1 1 0 0 forward_v I I I I #
coedge $-1 $359 $360 $358 $361 reversed $212 $-1 #
coedge $-1 $362 $287 $292 $363 reversed $214 $-1 #
coedge $-1 $286 $364 $215 $288 reversed $214 $-1 #
edge $-1 $293 51.579647466938155 $365 57.584346620511099 $215 $366 forward 7 unknown #
coedge $-1 $367 $368 $216 $290 forward $369 $-1 #
edge $-1 $294 65.023880086645931 $365 68.80275975303357 $289 $370 forward 7 unknown #
coedge $-1 $371 $217 $368 $372 forward $283 $-1 #
coedge $-1 $217 $358 $286 $363 forward $283 $-1 #
vertex $-1 $363 $373 #
vertex $-1 $372 $374 #
straight-curve $-1 -49.640126115729629 35.173764406972438 8.9923808472698994 0 1 0 I I #
vertex $-1 $219 $375 #
point $-1 -38.266832427393368 25.51568751633851 5.9381589161626325 #
straight-curve $-1 -68.571428571428569 28.792173310255528 0 0 0 -1 I I #
point $-1 -68.571428571428569 -28.792173310255528 -8.9923808472699065 #
straight-curve $-1 -68.571428571428569 0 -8.9923808472699065 0 1 0 I I #
point $-1 -68.571428571428569 28.792173310255528 -8.9923808472699065 #
face $-1 $376 $377 $13 $-1 $378 reversed single #
plane-surface $-1 0 0 -8.9923808472699065 0 0 1 1 0 0 forward_v I I I I #
coedge $-1 $379 $241 $255 $319 reversed $167 $-1 #
coedge $-1 $241 $379 $258 $323 reversed $167 $-1 #
edge $-1 $309 -8.9923808472699065 $307 8.9923808472699065 $241 $380 forward 7 unknown #
vertex $-1 $243 $381 #
straight-curve $-1 -59.257623646682895 -33.508254024544954 -8.9923808472699065 0 -1 0 I I #
vertex $-1 $323 $382 #
straight-curve $-1 -59.257623646682895 -33.508254024544954 8.9923808472699065 0 1 0 I I #
coedge $-1 $320 $246 $383 $384 forward $181 $-1 #
coedge $-1 $248 $324 $385 $386 forward $185 $-1 #
coedge $-1 $385 $383 $250 $314 reversed $377 $-1 #
edge $-1 $315 -8.9923808472699065 $317 8.9923808472699065 $313 $387 forward 7 unknown #
vertex $-1 $386 $388 #
straight-curve $-1 0 -28.792173310255528 8.9923808472699065 1 0 0 I I #
vertex $-1 $384 $389 #
straight-curve $-1 0 -28.792173310255528 -8.9923808472699065 -1 0 0 I I #
edge $-1 $390 -68.571428571428569 $307 59.257623646682895 $304 $318 forward 7 unknown #
coedge $-1 $256 $311 $391 $392 forward $181 $-1 #
coedge $-1 $393 $394 $256 $322 reversed $395 $-1 #
edge $-1 $396 -28.792173310255528 $390 28.792173310255528 $321 $397 forward 7 unknown #
edge $-1 $309 -59.257623646682895 $398 68.571428571428569 $305 $316 forward 7 unknown #
coedge $-1 $312 $259 $399 $400 forward $185 $-1 #
coedge $-1 $394 $393 $259 $326 reversed $395 $-1 #
edge $-1 $398 -28.792173310255528 $401 28.792173310255528 $325 $402 forward 7 unknown #
face $-1 $403 $404 $14 $-1 $405 reversed single #
loop $-1 $-1 $406 $261 #
plane-surface $-1 -59.257623646682895 -33.508254024544954 0 -1 0 0 0 0 1 forward_v I I I I #
coedge $-1 $407 $408 $409 $410 reversed $262 $-1 #
coedge $-1 $411 $264 $412 $413 reversed $191 $-1 #
coedge $-1 $264 $411 $414 $415 reversed $191 $-1 #
coedge $-1 $408 $407 $264 $334 reversed $262 $-1 #
edge $-1 $416 -8.9923808472699065 $417 8.9923808472699065 $333 $418 forward 7 unknown #
coedge $-1 $265 $419 $420 $421 forward $117 $-1 #
coedge $-1 $422 $266 $265 $337 reversed $205 $-1 #
edge $-1 $423 -68.571428571428569 $268 28.893538739057107 $336 $281 forward 7 unknown #
straight-curve $-1 -28.893538739057107 28.792173310255528 74.016260933915845 0 0 1 I I #
point $-1 -28.893538739057107 28.792173310255528 8.9923808472699065 #
straight-curve $-1 -19.633416213696684 28.792173310255524 5.2135011808822753 1 0 0 I I #
point $-1 -28.893538739057107 28.792173310255528 5.2135011808822753 #
coedge $-1 $275 $422 $424 $425 reversed $205 $-1 #
coedge $-1 $426 $278 $275 $344 forward $351 $-1 #
edge $-1 $280 -8.9923808472699065 $427 8.9923808472699065 $275 $428 forward 7 unknown #
face $-1 $-1 $429 $14 $-1 $430 reversed single #
plane-surface $-1 0 28.792173310255528 0 0 -1 0 0 0 -1 forward_v I I I I #
coedge $-1 $414 $277 $408 $431 forward $117 $-1 #
coedge $-1 $432 $409 $277 $349 reversed $404 $-1 #
edge $-1 $352 -68.571428571428569 $433 -64.319559885212314 $348 $434 forward 7 unknown #
coedge $-1 $278 $426 $432 $435 reversed $351 $-1 #
loop $-1 $-1 $343 $436 #
vertex $-1 $279 $437 #
straight-curve $-1 -68.571428571428569 0 8.9923808472699065 0 -1 0 I I #
point $-1 -68.571428571428569 28.792173310255528 8.9923808472699065 #
face $-1 $438 $439 $15 $-1 $440 reversed single #
loop $-1 $-1 $441 $282 #
plane-surface $-1 -61.788591765947601 -38.224334738834379 0 0 1 0 0 0 1 forward_v I I I I #
coedge $-1 $292 $442 $285 $361 forward $283 $-1 #
coedge $-1 $360 $285 $443 $444 reversed $212 $-1 #
coedge $-1 $285 $359 $362 $445 forward $212 $-1 #
edge $-1 $446 6.3815910967169103 $447 11.048118755681521 $358 $448 forward 7 unknown #
coedge $-1 $364 $286 $360 $445 reversed $214 $-1 #
edge $-1 $447 9.2601225253604227 $293 30.006709902032945 $292 $449 forward 7 unknown #
coedge $-1 $287 $362 $367 $450 reversed $214 $-1 #
vertex $-1 $450 $451 #
straight-curve $-1 -49.640126115729629 -15.959268744610114 41.452505164451836 0 0.77714595512881146 -0.62932039886446345 I I #
coedge $-1 $443 $289 $364 $450 forward $369 $-1 #
coedge $-1 $289 $452 $291 $372 reversed $369 $-1 #
loop $-1 $-1 $443 $453 #
straight-curve $-1 -49.640126115729629 28.792173310255528 74.016260933915845 0 0 -1 I I #
coedge $-1 $454 $291 $455 $456 forward $283 $-1 #
edge $-1 $294 49.640126115729629 $457 68.571428571428569 $368 $458 forward 7 unknown #
point $-1 -49.640126115729629 24.125645651290917 8.9923808472699065 #
point $-1 -49.640126115729629 28.792173310255528 8.9923808472699065 #
point $-1 -39.266832427393368 24.886367117474045 5.1610129610338218 #
face $-1 $459 $460 $13 $-1 $461 reversed single #
loop $-1 $-1 $462 $302 #
plane-surface $-1 -68.571428571428569 0 0 1 0 0 0 0 -1 forward_v I I I I #
coedge $-1 $305 $304 $394 $463 reversed $167 $-1 #
straight-curve $-1 -59.257623646682895 -28.792173310255528 0 0 0 -1 I I #
point $-1 -59.257623646682895 -28.792173310255532 -8.9923808472699065 #
point $-1 -59.257623646682895 -28.792173310255532 8.9923808472699065 #
coedge $-1 $313 $462 $311 $384 reversed $377 $-1 #
edge $-1 $317 -28.792173310255528 $464 28.792173310255528 $383 $465 forward 7 unknown #
coedge $-1 $462 $313 $312 $386 reversed $377 $-1 #
edge $-1 $466 -28.792173310255528 $315 28.792173310255528 $385 $467 forward 7 unknown #
straight-curve $-1 -68.571428571428569 -28.792173310255528 0 0 0 -1 I I #
point $-1 -68.571428571428569 -28.792173310255528 8.9923808472699065 #
point $-1 -68.571428571428569 -28.792173310255528 -8.9923808472699065 #
vertex $-1 $463 $468 #
coedge $-1 $469 $470 $320 $392 reversed $460 $-1 #
edge $-1 $464 -68.571428571428569 $396 68.571428571428569 $391 $471 forward 7 unknown #
coedge $-1 $325 $321 $470 $472 reversed $395 $-1 #
coedge $-1 $321 $325 $379 $463 forward $395 $-1 #
loop $-1 $-1 $394 $459 #
vertex $-1 $322 $473 #
straight-curve $-1 68.571428571428569 0 -8.9923808472699065 0 -1 0 I I #
vertex $-1 $326 $474 #
coedge $-1 $470 $469 $324 $400 reversed $460 $-1 #
edge $-1 $401 -68.571428571428569 $466 68.571428571428569 $399 $475 forward 7 unknown #
vertex $-1 $326 $476 #
straight-curve $-1 68.571428571428569 0 8.9923808472699065 0 1 0 I I #
face $-1 $477 $478 $14 $-1 $405 reversed single #
loop $-1 $-1 $409 $327 #
plane-surface $-1 0 -28.792173310255528 0 0 1 0 0 0 1 forward_v I I I I #
coedge $-1 $479 $480 $411 $481 forward $328 $-1 #
coedge $-1 $333 $330 $482 $483 reversed $262 $-1 #
coedge $-1 $330 $333 $347 $431 reversed $262 $-1 #
coedge $-1 $348 $484 $330 $410 forward $404 $-1 #
edge $-1 $485 -8.9923808472699065 $433 8.9923808472699065 $409 $486 forward 7 unknown #
coedge $-1 $332 $331 $406 $481 reversed $191 $-1 #
coedge $-1 $482 $487 $331 $413 forward $488 $-1 #
edge $-1 $489 -2.5309681192647062 $417 2.5309681192647133 $331 $490 forward 7 unknown #
coedge $-1 $491 $347 $332 $415 forward $117 $-1 #
edge $-1 $416 -2.5309681192647133 $492 2.5309681192647062 $332 $493 forward 7 unknown #
vertex $-1 $431 $494 #
vertex $-1 $483 $495 #
straight-curve $-1 -64.319559885212314 -38.224334738834379 0 0 0 -1 I I #
coedge $-1 $335 $491 $496 $497 forward $117 $-1 #
coedge $-1 $498 $499 $335 $421 reversed $429 $-1 #
edge $-1 $500 -28.792173310255528 $423 28.792173310255528 $420 $501 forward 7 unknown #
coedge $-1 $342 $336 $499 $502 forward $205 $-1 #
vertex $-1 $421 $503 #
coedge $-1 $504 $505 $342 $425 forward $488 $-1 #
edge $-1 $427 -68.571428571428569 $506 68.571428571428569 $342 $507 forward 7 unknown #
coedge $-1 $350 $343 $505 $508 reversed $351 $-1 #
vertex $-1 $425 $509 #
straight-curve $-1 -68.571428571428569 28.792173310255528 0 0 0 -1 I I #
loop $-1 $-1 $498 $345 #
plane-surface $-1 68.571428571428569 0 0 -1 0 0 0 0 1 forward_v I I I I #
edge $-1 $433 -4.7160807142894221 $416 4.7160807142894257 $408 $510 forward 7 unknown #
coedge $-1 $484 $348 $350 $435 forward $404 $-1 #
vertex $-1 $431 $511 #
straight-curve $-1 0 -28.792173310255528 8.9923808472699065 1 0 0 I I #
edge $-1 $352 -8.9923808472699065 $512 8.9923808472699065 $350 $513 forward 7 unknown #
face $-1 $276 $351 $14 $-1 $514 reversed single #
point $-1 -68.571428571428569 -28.792173310255528 8.9923808472699065 #
face $-1 $515 $516 $15 $-1 $517 reversed single #
loop $-1 $-1 $518 $355 #
plane-surface $-1 -64.319559885212314 -33.508254024544954 0 1 0 0 0 0 -1 forward_v I I I I #
coedge $-1 $519 $520 $521 $522 forward $356 $-1 #
coedge $-1 $358 $523 $524 $525 forward $283 $-1 #
coedge $-1 $524 $367 $359 $444 forward $369 $-1 #
edge $-1 $526 -68.80275975303357 $446 -65.023880086645931 $443 $527 forward 7 unknown #
edge $-1 $526 -57.584346620511099 $447 -51.579647466938155 $360 $528 forward 7 unknown #
vertex $-1 $444 $529 #
vertex $-1 $363 $530 #
straight-curve $-1 -28.893538739057107 35.173764406972438 8.9923808472698994 0 -1 0 I I #
straight-curve $-1 -19.633416213696684 24.12564565129092 8.9923808472699065 -1 0 0 I I #
edge $-1 $365 -30.006709902032945 $526 -9.2601225253604227 $367 $531 forward 7 unknown #
point $-1 -49.640126115729629 28.792173310255528 5.2135011808822753 #
coedge $-1 $368 $532 $533 $534 reversed $369 $-1 #
face $-1 $535 $369 $15 $-1 $536 reversed single #
coedge $-1 $537 $371 $538 $539 forward $283 $-1 #
coedge $-1 $533 $540 $371 $456 reversed $541 $-1 #
edge $-1 $457 -28.792173310255528 $542 28.792173310255528 $455 $543 forward 7 unknown #
vertex $-1 $372 $544 #
straight-curve $-1 0 28.792173310255528 8.9923808472699065 -1 0 0 I I #
face $-1 $-1 $395 $13 $-1 $545 reversed single #
loop $-1 $-1 $470 $376 #
plane-surface $-1 0 28.792173310255528 0 0 -1 0 0 0 -1 forward_v I I I I #
coedge $-1 $383 $385 $469 $546 forward $377 $-1 #
edge $-1 $398 -8.9923808472699065 $390 8.9923808472699065 $394 $547 forward 7 unknown #
vertex $-1 $392 $548 #
straight-curve $-1 -68.571428571428569 0 -8.9923808472699065 0 1 0 I I #
vertex $-1 $400 $549 #
straight-curve $-1 -68.571428571428569 0 8.9923808472699065 0 -1 0 I I #
point $-1 68.571428571428569 -28.792173310255528 -8.9923808472699065 #
coedge $-1 $399 $391 $462 $546 reversed $460 $-1 #
coedge $-1 $391 $399 $393 $472 forward $460 $-1 #
straight-curve $-1 0 28.792173310255528 -8.9923808472699065 1 0 0 I I #
edge $-1 $401 -8.9923808472699065 $396 8.9923808472699065 $393 $550 forward 7 unknown #
point $-1 68.571428571428569 28.792173310255528 -8.9923808472699065 #
point $-1 68.571428571428569 -28.792173310255528 8.9923808472699065 #
straight-curve $-1 0 28.792173310255528 8.9923808472699065 -1 0 0 I I #
point $-1 68.571428571428569 28.792173310255528 8.9923808472699065 #
face $-1 $436 $488 $14 $-1 $551 reversed single #
loop $-1 $-1 $552 $403 #
coedge $-1 $553 $406 $487 $554 reversed $328 $-1 #
coedge $-1 $406 $553 $491 $555 reversed $328 $-1 #
edge $-1 $492 -8.9923808472699065 $489 8.9923808472699065 $406 $556 forward 7 unknown #
coedge $-1 $557 $412 $407 $483 forward $488 $-1 #
edge $-1 $417 -4.7160807142894257 $485 4.7160807142894221 $407 $558 forward 7 unknown #
coedge $-1 $409 $432 $557 $559 reversed $404 $-1 #
vertex $-1 $559 $560 #
straight-curve $-1 -64.319559885212314 -28.792173310255528 0 0 0 1 I I #
coedge $-1 $412 $561 $479 $554 forward $488 $-1 #
loop $-1 $-1 $504 $477 #
vertex $-1 $481 $562 #
straight-curve $-1 -61.788591765947601 -38.224334738834379 -8.9923808472699065 -1 0 0 I I #
coedge $-1 $419 $414 $480 $555 forward $117 $-1 #
vertex $-1 $555 $563 #
straight-curve $-1 -61.788591765947601 -38.224334738834379 8.9923808472699065 1 0 0 I I #
point $-1 -64.319559885212314 -38.224334738834379 8.9923808472699065 #
point $-1 -64.319559885212314 -38.224334738834379 -8.9923808472699065 #
coedge $-1 $552 $564 $419 $497 reversed $478 $-1 #
edge $-1 $565 -59.257623646682895 $500 68.571428571428569 $496 $434 forward 7 unknown #
coedge $-1 $566 $420 $564 $567 forward $429 $-1 #
coedge $-1 $420 $566 $422 $502 reversed $429 $-1 #
vertex $-1 $421 $568 #
straight-curve $-1 68.571428571428569 0 8.9923808472699065 0 1 0 I I #
edge $-1 $423 -8.9923808472699065 $506 8.9923808472699065 $499 $569 forward 7 unknown #
point $-1 68.571428571428569 28.792173310255528 8.9923808472699065 #
coedge $-1 $561 $424 $566 $570 forward $488 $-1 #
coedge $-1 $424 $557 $426 $508 forward $488 $-1 #
vertex $-1 $570 $571 #
straight-curve $-1 0 28.792173310255528 -8.9923808472699065 1 0 0 I I #
edge $-1 $512 -28.792173310255528 $427 28.792173310255528 $426 $572 forward 7 unknown #
point $-1 -68.571428571428569 28.792173310255528 -8.9923808472699065 #
straight-curve $-1 -64.319559885212314 -33.508254024544954 8.9923808472699065 0 -1 0 I I #
point $-1 -64.319559885212314 -28.792173310255532 8.9923808472699065 #
vertex $-1 $508 $573 #
straight-curve $-1 -68.571428571428569 -28.792173310255528 0 0 0 -1 I I #
plane-surface $-1 -68.571428571428569 0 0 1 0 0 0 0 -1 forward_v I I I I #
face $-1 $574 $575 $15 $-1 $576 reversed single #
loop $-1 $-1 $577 $438 #
plane-surface $-1 -59.257623646682895 -33.508254024544954 0 -1 0 0 0 0 1 forward_v I I I I #
coedge $-1 $578 $579 $580 $581 reversed $439 $-1 #
coedge $-1 $582 $441 $583 $584 reversed $356 $-1 #
coedge $-1 $441 $582 $585 $586 reversed $356 $-1 #
coedge $-1 $579 $578 $441 $522 reversed $439 $-1 #
edge $-1 $587 -8.9923808472699065 $588 8.9923808472699065 $521 $589 forward 7 unknown #
coedge $-1 $442 $590 $591 $592 forward $283 $-1 #
coedge $-1 $593 $443 $442 $525 reversed $369 $-1 #
edge $-1 $594 -68.571428571428569 $446 28.893538739057107 $524 $458 forward 7 unknown #
vertex $-1 $450 $595 #
straight-curve $-1 -28.893538739057107 28.792173310255528 74.016260933915845 0 0 1 I I #
straight-curve $-1 -28.893538739057107 -15.959268744610114 41.452505164451836 0 -0.77714595512881146 0.62932039886446345 I I #
point $-1 -28.893538739057107 28.792173310255528 8.9923808472699065 #
point $-1 -28.893538739057107 24.125645651290917 8.9923808472699065 #
straight-curve $-1 -19.633416213696684 28.792173310255524 5.2135011808822753 1 0 0 I I #
coedge $-1 $452 $593 $596 $597 reversed $369 $-1 #
coedge $-1 $598 $455 $452 $534 forward $541 $-1 #
edge $-1 $457 -8.9923808472699065 $599 8.9923808472699065 $452 $600 forward 7 unknown #
face $-1 $-1 $601 $15 $-1 $602 reversed single #
plane-surface $-1 0 28.792173310255528 0 0 -1 0 0 0 -1 forward_v I I I I #
coedge $-1 $585 $454 $579 $603 forward $283 $-1 #
coedge $-1 $604 $580 $454 $539 reversed $575 $-1 #
edge $-1 $542 -68.571428571428569 $605 -64.319559885212314 $538 $606 forward 7 unknown #
coedge $-1 $455 $598 $604 $607 reversed $541 $-1 #
loop $-1 $-1 $533 $608 #
vertex $-1 $456 $609 #
straight-curve $-1 -68.571428571428569 0 8.9923808472699065 0 -1 0 I I #
point $-1 -68.571428571428569 28.792173310255528 8.9923808472699065 #
plane-surface $-1 68.571428571428569 0 0 -1 0 0 0 0 1 forward_v I I I I #
edge $-1 $466 -8.9923808472699065 $464 8.9923808472699065 $469 $610 forward 7 unknown #
straight-curve $-1 68.571428571428569 -28.792173310255528 0 0 0 -1 I I #
point $-1 -68.571428571428569 28.792173310255528 -8.9923808472699065 #
point $-1 -68.571428571428569 28.792173310255528 8.9923808472699065 #
straight-curve $-1 68.571428571428569 28.792173310255528 0 0 0 -1 I I #
plane-surface $-1 0 0 -8.9923808472699065 0 0 1 1 0 0 forward_v I I I I #
coedge $-1 $611 $496 $553 $612 forward $478 $-1 #
coedge $-1 $480 $479 $552 $612 reversed $328 $-1 #
edge $-1 $613 -4.7160807142894221 $489 4.7160807142894257 $479 $614 forward 7 unknown #
edge $-1 $492 -4.7160807142894257 $565 4.7160807142894221 $480 $615 forward 7 unknown #
straight-curve $-1 -59.257623646682895 -38.224334738834379 0 0 0 -1 I I #
coedge $-1 $505 $482 $484 $559 forward $488 $-1 #
straight-curve $-1 -64.319559885212314 -33.508254024544954 -8.9923808472699065 0 1 0 I I #
edge $-1 $485 64.319559885212314 $512 68.571428571428569 $484 $616 forward 7 unknown #
point $-1 -64.319559885212314 -28.792173310255532 -8.9923808472699065 #
coedge $-1 $487 $504 $611 $617 forward $488 $-1 #
point $-1 -59.257623646682895 -38.224334738834379 -8.9923808472699065 #
point $-1 -59.257623646682895 -38.224334738834379 8.9923808472699065 #
coedge $-1 $496 $611 $498 $567 reversed $478 $-1 #
vertex $-1 $497 $618 #
coedge $-1 $499 $498 $504 $570 reversed $429 $-1 #
edge $-1 $500 -8.9923808472699065 $619 8.9923808472699065 $498 $620 forward 7 unknown #
point $-1 68.571428571428569 -28.792173310255528 8.9923808472699065 #
straight-curve $-1 68.571428571428569 28.792173310255528 0 0 0 -1 I I #
edge $-1 $506 -28.792173310255528 $619 28.792173310255528 $566 $621 forward 7 unknown #
point $-1 68.571428571428569 28.792173310255528 -8.9923808472699065 #
straight-curve $-1 -68.571428571428569 0 -8.9923808472699065 0 1 0 I I #
point $-1 -68.571428571428569 -28.792173310255528 -8.9923808472699065 #
face $-1 $622 $623 $15 $-1 $576 reversed single #
loop $-1 $-1 $580 $515 #
plane-surface $-1 0 -28.792173310255528 0 0 1 0 0 0 1 forward_v I I I I #
coedge $-1 $624 $625 $582 $626 forward $516 $-1 #
coedge $-1 $521 $518 $627 $628 reversed $439 $-1 #
coedge $-1 $518 $521 $537 $603 reversed $439 $-1 #
coedge $-1 $538 $629 $518 $581 forward $575 $-1 #
edge $-1 $630 -8.9923808472699065 $605 8.9923808472699065 $580 $631 forward 7 unknown #
coedge $-1 $520 $519 $577 $626 reversed $356 $-1 #
coedge $-1 $627 $632 $519 $584 forward $633 $-1 #
edge $-1 $634 -2.5309681192647062 $588 2.5309681192647133 $519 $635 forward 7 unknown #
coedge $-1 $636 $537 $520 $586 forward $283 $-1 #
edge $-1 $587 -2.5309681192647133 $637 2.5309681192647062 $520 $638 forward 7 unknown #
vertex $-1 $603 $639 #
vertex $-1 $628 $640 #
straight-curve $-1 -64.319559885212314 -38.224334738834379 0 0 0 -1 I I #
coedge $-1 $523 $636 $641 $642 forward $283 $-1 #
coedge $-1 $643 $644 $523 $592 reversed $601 $-1 #
edge $-1 $645 -28.792173310255528 $594 28.792173310255528 $591 $646 forward 7 unknown #
coedge $-1 $532 $524 $644 $647 forward $369 $-1 #
vertex $-1 $592 $648 #
point $-1 -28.893538739057107 28.792173310255528 5.2135011808822753 #
coedge $-1 $649 $650 $532 $597 forward $633 $-1 #
edge $-1 $599 -68.571428571428569 $651 68.571428571428569 $532 $652 forward 7 unknown #
coedge $-1 $540 $533 $650 $653 reversed $541 $-1 #
vertex $-1 $597 $654 #
straight-curve $-1 -68.571428571428569 28.792173310255528 0 0 0 -1 I I #
loop $-1 $-1 $643 $535 #
plane-surface $-1 68.571428571428569 0 0 -1 0 0 0 0 1 forward_v I I I I #
edge $-1 $605 -4.7160807142894221 $587 4.7160807142894257 $579 $655 forward 7 unknown #
coedge $-1 $629 $538 $540 $607 forward $575 $-1 #
vertex $-1 $603 $656 #
straight-curve $-1 0 -28.792173310255528 8.9923808472699065 1 0 0 I I #
edge $-1 $542 -8.9923808472699065 $657 8.9923808472699065 $540 $658 forward 7 unknown #
face $-1 $453 $541 $15 $-1 $659 reversed single #
point $-1 -68.571428571428569 -28.792173310255528 8.9923808472699065 #
straight-curve $-1 -68.571428571428569 28.792173310255528 0 0 0 -1 I I #
coedge $-1 $564 $552 $561 $617 reversed $478 $-1 #
edge $-1 $565 -8.9923808472699065 $613 8.9923808472699065 $552 $660 forward 7 unknown #
vertex $-1 $554 $661 #
straight-curve $-1 -59.257623646682895 -33.508254024544954 -8.9923808472699065 0 -1 0 I I #
straight-curve $-1 -59.257623646682895 -33.508254024544954 8.9923808472699065 0 1 0 I I #
straight-curve $-1 0 -28.792173310255528 -8.9923808472699065 -1 0 0 I I #
edge $-1 $619 -68.571428571428569 $613 59.257623646682895 $611 $616 forward 7 unknown #
point $-1 -59.257623646682895 -28.792173310255532 8.9923808472699065 #
vertex $-1 $567 $662 #
straight-curve $-1 68.571428571428569 -28.792173310255528 0 0 0 -1 I I #
straight-curve $-1 68.571428571428569 0 -8.9923808472699065 0 -1 0 I I #
face $-1 $608 $633 $15 $-1 $663 reversed single #
loop $-1 $-1 $664 $574 #
coedge $-1 $665 $577 $632 $666 reversed $516 $-1 #
coedge $-1 $577 $665 $636 $667 reversed $516 $-1 #
edge $-1 $637 -8.9923808472699065 $634 8.9923808472699065 $577 $668 forward 7 unknown #
coedge $-1 $669 $583 $578 $628 forward $633 $-1 #
edge $-1 $588 -4.7160807142894257 $630 4.7160807142894221 $578 $670 forward 7 unknown #
coedge $-1 $580 $604 $669 $671 reversed $575 $-1 #
vertex $-1 $671 $672 #
straight-curve $-1 -64.319559885212314 -28.792173310255528 0 0 0 1 I I #
coedge $-1 $583 $673 $624 $666 forward $633 $-1 #
loop $-1 $-1 $649 $622 #
vertex $-1 $626 $674 #
straight-curve $-1 -61.788591765947601 -38.224334738834379 -8.9923808472699065 -1 0 0 I I #
coedge $-1 $590 $585 $625 $667 forward $283 $-1 #
vertex $-1 $667 $675 #
straight-curve $-1 -61.788591765947601 -38.224334738834379 8.9923808472699065 1 0 0 I I #
point $-1 -64.319559885212314 -38.224334738834379 8.9923808472699065 #
point $-1 -64.319559885212314 -38.224334738834379 -8.9923808472699065 #
coedge $-1 $664 $676 $590 $642 reversed $623 $-1 #
edge $-1 $677 -59.257623646682895 $645 68.571428571428569 $641 $606 forward 7 unknown #
coedge $-1 $678 $591 $676 $679 forward $601 $-1 #
coedge $-1 $591 $678 $593 $647 reversed $601 $-1 #
vertex $-1 $592 $680 #
straight-curve $-1 68.571428571428569 0 8.9923808472699065 0 1 0 I I #
edge $-1 $594 -8.9923808472699065 $651 8.9923808472699065 $644 $681 forward 7 unknown #
point $-1 68.571428571428569 28.792173310255528 8.9923808472699065 #
coedge $-1 $673 $596 $678 $682 forward $633 $-1 #
coedge $-1 $596 $669 $598 $653 forward $633 $-1 #
vertex $-1 $682 $683 #
straight-curve $-1 0 28.792173310255528 -8.9923808472699065 1 0 0 I I #
edge $-1 $657 -28.792173310255528 $599 28.792173310255528 $598 $684 forward 7 unknown #
point $-1 -68.571428571428569 28.792173310255528 -8.9923808472699065 #
straight-curve $-1 -64.319559885212314 -33.508254024544954 8.9923808472699065 0 -1 0 I I #
point $-1 -64.319559885212314 -28.792173310255532 8.9923808472699065 #
vertex $-1 $653 $685 #
straight-curve $-1 -68.571428571428569 -28.792173310255528 0 0 0 -1 I I #
plane-surface $-1 -68.571428571428569 0 0 1 0 0 0 0 -1 forward_v I I I I #
straight-curve $-1 -59.257623646682895 -28.792173310255528 0 0 0 -1 I I #
point $-1 -59.257623646682895 -28.792173310255532 -8.9923808472699065 #
point $-1 68.571428571428569 -28.792173310255528 -8.9923808472699065 #
plane-surface $-1 0 0 -8.9923808472699065 0 0 1 1 0 0 forward_v I I I I #
coedge $-1 $686 $641 $665 $687 forward $623 $-1 #
coedge $-1 $625 $624 $664 $687 reversed $516 $-1 #
edge $-1 $688 -4.7160807142894221 $634 4.7160807142894257 $624 $689 forward 7 unknown #
edge $-1 $637 -4.7160807142894257 $677 4.7160807142894221 $625 $690 forward 7 unknown #
straight-curve $-1 -59.257623646682895 -38.224334738834379 0 0 0 -1 I I #
coedge $-1 $650 $627 $629 $671 forward $633 $-1 #
straight-curve $-1 -64.319559885212314 -33.508254024544954 -8.9923808472699065 0 1 0 I I #
edge $-1 $630 64.319559885212314 $657 68.571428571428569 $629 $691 forward 7 unknown #
point $-1 -64.319559885212314 -28.792173310255532 -8.9923808472699065 #
coedge $-1 $632 $649 $686 $692 forward $633 $-1 #
point $-1 -59.257623646682895 -38.224334738834379 -8.9923808472699065 #
point $-1 -59.257623646682895 -38.224334738834379 8.9923808472699065 #
coedge $-1 $641 $686 $643 $679 reversed $623 $-1 #
vertex $-1 $642 $693 #
coedge $-1 $644 $643 $649 $682 reversed $601 $-1 #
edge $-1 $645 -8.9923808472699065 $694 8.9923808472699065 $643 $695 forward 7 unknown #
point $-1 68.571428571428569 -28.792173310255528 8.9923808472699065 #
straight-curve $-1 68.571428571428569 28.792173310255528 0 0 0 -1 I I #
edge $-1 $651 -28.792173310255528 $694 28.792173310255528 $678 $696 forward 7 unknown #
point $-1 68.571428571428569 28.792173310255528 -8.9923808472699065 #
straight-curve $-1 -68.571428571428569 0 -8.9923808472699065 0 1 0 I I #
point $-1 -68.571428571428569 -28.792173310255528 -8.9923808472699065 #
coedge $-1 $676 $664 $673 $692 reversed $623 $-1 #
edge $-1 $677 -8.9923808472699065 $688 8.9923808472699065 $664 $697 forward 7 unknown #
vertex $-1 $666 $698 #
straight-curve $-1 -59.257623646682895 -33.508254024544954 -8.9923808472699065 0 -1 0 I I #
straight-curve $-1 -59.257623646682895 -33.508254024544954 8.9923808472699065 0 1 0 I I #
straight-curve $-1 0 -28.792173310255528 -8.9923808472699065 -1 0 0 I I #
edge $-1 $694 -68.571428571428569 $688 59.257623646682895 $686 $691 forward 7 unknown #
point $-1 -59.257623646682895 -28.792173310255532 8.9923808472699065 #
vertex $-1 $679 $699 #
straight-curve $-1 68.571428571428569 -28.792173310255528 0 0 0 -1 I I #
straight-curve $-1 68.571428571428569 0 -8.9923808472699065 0 -1 0 I I #
straight-curve $-1 -59.257623646682895 -28.792173310255528 0 0 0 -1 I I #
point $-1 -59.257623646682895 -28.792173310255532 -8.9923808472699065 #
point $-1 68.571428571428569 -28.792173310255528 -8.9923808472699065 #
End-of-ACIS-data 