500 0 13 0           
7 Unknown 11 ACIS 5.0 NT 24 Fri Mar 26 03:16:01 1999 
-1 9.9999999999999995e-007 1e-010 
body $-1 $13 $-1 $14 #
body $-1 $15 $-1 $16 #
body $-1 $17 $-1 $18 #
body $-1 $19 $-1 $20 #
body $-1 $21 $-1 $22 #
body $-1 $23 $-1 $24 #
body $-1 $25 $-1 $26 #
body $-1 $27 $-1 $28 #
body $-1 $29 $-1 $30 #
body $-1 $31 $-1 $32 #
body $-1 $33 $-1 $34 #
body $-1 $35 $-1 $36 #
body $-1 $37 $-1 $38 #
lump $-1 $-1 $39 $0 #
transform $-1 1 0 0 0 1 0 0 0 1 57.054963835566269 24.308649803851633 4.9919270505428406 1 rotate no_reflect no_shear #
lump $-1 $-1 $40 $1 #
transform $-1 1 0 0 0 1 0 0 0 1 57.054963835566269 24.308649803851633 4.9919270505428406 1 rotate no_reflect no_shear #
lump $-1 $-1 $41 $2 #
transform $-1 1 0 0 0 1 0 0 0 1 57.054963835566269 24.308649803851633 4.9919270505428406 1 rotate no_reflect no_shear #
lump $-1 $-1 $42 $3 #
transform $-1 1 0 0 0 1 0 0 0 1 57.054963835566269 24.308649803851633 4.9919270505428406 1 rotate no_reflect no_shear #
lump $-1 $-1 $43 $4 #
transform $-1 1 0 0 0 1 0 0 0 1 57.054963835566269 24.308649803851633 4.9919270505428406 1 rotate no_reflect no_shear #
lump $-1 $-1 $44 $5 #
transform $-1 1 0 0 0 1 0 0 0 1 57.054963835566269 24.308649803851633 4.9919270505428406 1 rotate no_reflect no_shear #
lump $-1 $-1 $45 $6 #
transform $-1 1 0 0 0 1 0 0 0 1 57.054963835566269 24.308649803851633 4.9919270505428406 1 rotate no_reflect no_shear #
lump $-1 $-1 $46 $7 #
transform $-1 1 0 0 0 1 0 0 0 1 57.054963835566269 24.308649803851633 4.9919270505428406 1 rotate no_reflect no_shear #
lump $-1 $-1 $47 $8 #
transform $-1 1 0 0 0 1 0 0 0 1 57.054963835566269 24.308649803851633 4.9919270505428406 1 rotate no_reflect no_shear #
lump $-1 $-1 $48 $9 #
transform $-1 1 0 0 0 1 0 0 0 1 57.054963835566269 24.308649803851633 4.9919270505428406 1 rotate no_reflect no_shear #
lump $-1 $-1 $49 $10 #
transform $-1 1 0 0 0 1 0 0 0 1 57.054963835566269 24.308649803851633 4.9919270505428406 1 rotate no_reflect no_shear #
lump $-1 $-1 $50 $11 #
transform $-1 1 0 0 0 1 0 0 0 1 57.054963835566269 24.308649803851633 4.9919270505428406 1 rotate no_reflect no_shear #
lump $-1 $-1 $51 $12 #
transform $-1 1 0 0 0 1 0 0 0 1 57.054963835566269 24.308649803851633 4.9919270505428406 1 rotate no_reflect no_shear #
shell $-1 $-1 $-1 $52 $-1 $13 #
shell $-1 $-1 $-1 $53 $-1 $15 #
shell $-1 $-1 $-1 $54 $-1 $17 #
shell $-1 $-1 $-1 $55 $-1 $19 #
shell $-1 $-1 $-1 $56 $-1 $21 #
shell $-1 $-1 $-1 $57 $-1 $23 #
shell $-1 $-1 $-1 $58 $-1 $25 #
shell $-1 $-1 $-1 $59 $-1 $27 #
shell $-1 $-1 $-1 $60 $-1 $29 #
shell $-1 $-1 $-1 $61 $-1 $31 #
shell $-1 $-1 $-1 $62 $-1 $33 #
shell $-1 $-1 $-1 $63 $-1 $35 #
shell $-1 $-1 $-1 $64 $-1 $37 #
face $-1 $65 $66 $39 $-1 $67 reversed single #
face $-1 $68 $69 $40 $-1 $70 forward single #
face $-1 $71 $72 $41 $-1 $73 reversed single #
face $-1 $74 $75 $42 $-1 $76 forward single #
face $-1 $77 $78 $43 $-1 $79 forward single #
face $-1 $80 $81 $44 $-1 $82 reversed single #
face $-1 $83 $84 $45 $-1 $85 forward single #
face $-1 $86 $87 $46 $-1 $88 forward single #
face $-1 $89 $90 $47 $-1 $91 forward single #
face $-1 $92 $93 $48 $-1 $94 reversed single #
face $-1 $95 $96 $49 $-1 $97 forward single #
face $-1 $98 $99 $50 $-1 $100 forward single #
face $-1 $101 $102 $51 $-1 $103 forward single #
face $-1 $104 $105 $39 $-1 $106 forward single #
loop $-1 $-1 $107 $52 #
plane-surface $-1 0 -24.308649803851633 0 0 1 0 0 0 1 forward_v I I I I #
face $-1 $108 $109 $40 $-1 $110 reversed single #
loop $-1 $-1 $111 $53 #
plane-surface $-1 0 -24.308649803851633 0 0 1 0 0 0 1 forward_v I I I I #
face $-1 $112 $113 $41 $-1 $114 reversed single #
loop $-1 $-1 $115 $54 #
plane-surface $-1 23.503048222913691 18.25887738691608 158.04771889930163 0 -1 0 -0.54463904215088732 0 -0.83867056331134215 forward_v I I I I #
face $-1 $116 $117 $42 $-1 $118 forward single #
loop $-1 $119 $120 $55 #
cone-surface $-1 52.911552323167143 13.399454232648861 1.8980643032241238 -0.54463904215088732 0 -0.83867056331134215 0.41933528165567108 0 -0.27231952107544366 1 I I 0 1 0.5 forward I I I I #
face $-1 $121 $122 $43 $-1 $123 forward single #
loop $-1 $124 $125 $56 #
cone-surface $-1 52.911552323167143 16.315108125209196 1.8980643032241238 -0.54463904215088732 0 -0.83867056331134215 0.41933528165567108 0 -0.27231952107544366 1 I I 0 1 0.5 forward I I I I #
face $-1 $126 $127 $44 $-1 $128 reversed single #
loop $-1 $-1 $129 $57 #
plane-surface $-1 -150.52834528919402 -10.631167155642419 66.203474101382099 0 1 0 -0.81915205242281985 0 0.57357642473473569 forward_v I I I I #
face $-1 $130 $131 $45 $-1 $132 forward single #
loop $-1 $133 $134 $58 #
cone-surface $-1 -55.077305503857453 -8.9161243536033687 2.5267712999087353 0.81915205242281985 0 -0.57357642473473569 0.28678821236736785 0 0.40957602621140993 1 I I 0 1 0.5 forward I I I I #
face $-1 $135 $136 $46 $-1 $137 forward single #
loop $-1 $138 $139 $59 #
cone-surface $-1 -55.077305503857453 -6.3435601505447927 2.5267712999087353 0.81915205242281985 0 -0.57357642473473569 0.28678821236736785 0 0.40957602621140993 1 I I 0 1 0.5 forward I I I I #
face $-1 $140 $141 $47 $-1 $142 forward single #
loop $-1 $143 $144 $60 #
cone-surface $-1 -55.077305503857453 -3.7709959474862167 2.5267712999087353 0.81915205242281985 0 -0.57357642473473569 0.28678821236736785 0 0.40957602621140993 1 I I 0 1 0.5 forward I I I I #
face $-1 $145 $146 $48 $-1 $147 reversed single #
loop $-1 $-1 $148 $61 #
plane-surface $-1 -150.52834528919402 7.4649583137997348 66.203474101382099 0 1 0 -0.81915205242281985 0 0.57357642473473569 forward_v I I I I #
face $-1 $149 $150 $49 $-1 $151 forward single #
loop $-1 $152 $153 $62 #
cone-surface $-1 -55.077305503857453 9.1800011158387811 2.5267712999087353 0.81915205242281985 0 -0.57357642473473569 0.28678821236736785 0 0.40957602621140993 1 I I 0 1 0.5 forward I I I I #
face $-1 $154 $155 $50 $-1 $156 forward single #
loop $-1 $157 $158 $63 #
cone-surface $-1 -55.077305503857453 11.752565318897357 2.5267712999087353 0.81915205242281985 0 -0.57357642473473569 0.28678821236736785 0 0.40957602621140993 1 I I 0 1 0.5 forward I I I I #
face $-1 $159 $160 $51 $-1 $161 forward single #
loop $-1 $162 $163 $64 #
cone-surface $-1 -55.077305503857453 14.325129521955933 2.5267712999087353 0.81915205242281985 0 -0.57357642473473569 0.28678821236736785 0 0.40957602621140993 1 I I 0 1 0.5 forward I I I I #
face $-1 $164 $165 $39 $-1 $166 reversed single #
loop $-1 $-1 $167 $65 #
plane-surface $-1 0 0 4.9919270505428406 0 0 1 1 0 0 forward_v I I I I #
coedge $-1 $168 $169 $170 $171 reversed $66 $-1 #
face $-1 $172 $173 $40 $-1 $174 reversed single #
loop $-1 $-1 $175 $68 #
plane-surface $-1 0 0 -4.9919270505428406 0 0 1 1 0 0 forward_v I I I I #
coedge $-1 $176 $177 $178 $179 forward $69 $-1 #
face $-1 $180 $181 $41 $-1 $182 reversed single #
loop $-1 $-1 $183 $71 #
plane-surface $-1 -38.645673483798966 14.857281178929025 62.347081579936386 0.54463904215088732 0 0.83867056331134215 0.83867056331134215 0 -0.54463904215088732 forward_v I I I I #
coedge $-1 $184 $185 $186 $187 reversed $72 $-1 #
face $-1 $-1 $188 $42 $-1 $189 forward single #
loop $-1 $190 $191 $74 #
cone-surface $-1 52.322704055503976 13.399454232648861 0.9913175037371369 -0.54463904215088732 0 -0.83867056331134215 0.20966764082783554 0 -0.13615976053772183 1 I I -0.70710678118654746 0.70710678118654746 0.25 forward I I I I #
loop $-1 $-1 $192 $55 #
coedge $-1 $120 $120 $193 $194 reversed $75 $-1 #
face $-1 $-1 $195 $43 $-1 $196 forward single #
loop $-1 $197 $198 $77 #
cone-surface $-1 52.322704055503976 16.315108125209196 0.9913175037371369 -0.54463904215088732 0 -0.83867056331134215 0.20966764082783554 0 -0.13615976053772183 1 I I -0.70710678118654746 0.70710678118654746 0.25 forward I I I I #
loop $-1 $-1 $199 $56 #
coedge $-1 $125 $125 $200 $201 reversed $78 $-1 #
face $-1 $202 $203 $44 $-1 $204 reversed single #
loop $-1 $-1 $205 $80 #
plane-surface $-1 -57.054963835566284 -6.3435601505447963 0.75270976103460896 -0.81915205242281985 0 0.57357642473473569 0.57357642473473569 0 0.81915205242281985 forward_v I I I I #
coedge $-1 $206 $207 $208 $209 reversed $81 $-1 #
face $-1 $-1 $210 $45 $-1 $211 forward single #
loop $-1 $212 $213 $83 #
cone-surface $-1 -54.379025065359137 -8.9161243536033687 2.0378300878450544 0.81915205242281985 0 -0.57357642473473569 0.14339410618368392 0 0.20478801310570496 1 I I -0.70710678118654746 0.70710678118654746 0.25 forward I I I I #
loop $-1 $-1 $214 $58 #
coedge $-1 $134 $134 $215 $216 reversed $84 $-1 #
face $-1 $-1 $217 $46 $-1 $218 forward single #
loop $-1 $219 $220 $86 #
cone-surface $-1 -54.379025065359137 -6.3435601505447927 2.0378300878450544 0.81915205242281985 0 -0.57357642473473569 0.14339410618368392 0 0.20478801310570496 1 I I -0.70710678118654746 0.70710678118654746 0.25 forward I I I I #
loop $-1 $-1 $221 $59 #
coedge $-1 $139 $139 $222 $223 reversed $87 $-1 #
face $-1 $-1 $224 $47 $-1 $225 forward single #
loop $-1 $226 $227 $89 #
cone-surface $-1 -54.379025065359137 -3.7709959474862167 2.0378300878450544 0.81915205242281985 0 -0.57357642473473569 0.14339410618368392 0 0.20478801310570496 1 I I -0.70710678118654746 0.70710678118654746 0.25 forward I I I I #
loop $-1 $-1 $228 $60 #
coedge $-1 $144 $144 $229 $230 reversed $90 $-1 #
face $-1 $231 $232 $48 $-1 $233 reversed single #
loop $-1 $-1 $234 $92 #
plane-surface $-1 -57.054963835566284 11.752565318897357 0.75270976103460896 -0.81915205242281985 0 0.57357642473473569 0.57357642473473569 0 0.81915205242281985 forward_v I I I I #
coedge $-1 $235 $236 $237 $238 reversed $93 $-1 #
face $-1 $-1 $239 $49 $-1 $240 forward single #
loop $-1 $241 $242 $95 #
cone-surface $-1 -54.379025065359137 9.1800011158387811 2.0378300878450544 0.81915205242281985 0 -0.57357642473473569 0.14339410618368392 0 0.20478801310570496 1 I I -0.70710678118654746 0.70710678118654746 0.25 forward I I I I #
loop $-1 $-1 $243 $62 #
coedge $-1 $153 $153 $244 $245 reversed $96 $-1 #
face $-1 $-1 $246 $50 $-1 $247 forward single #
loop $-1 $248 $249 $98 #
cone-surface $-1 -54.379025065359137 11.752565318897357 2.0378300878450544 0.81915205242281985 0 -0.57357642473473569 0.14339410618368392 0 0.20478801310570496 1 I I -0.70710678118654746 0.70710678118654746 0.25 forward I I I I #
loop $-1 $-1 $250 $63 #
coedge $-1 $158 $158 $251 $252 reversed $99 $-1 #
face $-1 $-1 $253 $51 $-1 $254 forward single #
loop $-1 $255 $256 $101 #
cone-surface $-1 -54.379025065359137 14.325129521955933 2.0378300878450544 0.81915205242281985 0 -0.57357642473473569 0.14339410618368392 0 0.20478801310570496 1 I I -0.70710678118654746 0.70710678118654746 0.25 forward I I I I #
loop $-1 $-1 $257 $64 #
coedge $-1 $163 $163 $258 $259 reversed $102 $-1 #
face $-1 $260 $261 $39 $-1 $262 reversed single #
loop $-1 $-1 $263 $104 #
plane-surface $-1 0 0 -4.9919270505428406 0 0 1 1 0 0 forward_v I I I I #
coedge $-1 $264 $265 $266 $267 forward $105 $-1 #
coedge $-1 $268 $107 $269 $270 reversed $66 $-1 #
coedge $-1 $107 $268 $271 $272 forward $66 $-1 #
coedge $-1 $273 $263 $107 $171 forward $165 $-1 #
edge $-1 $274 -57.054963835566269 $275 57.054963835566269 $107 $276 forward 7 unknown #
face $-1 $277 $278 $40 $-1 $279 reversed single #
loop $-1 $-1 $280 $108 #
plane-surface $-1 -53.046982903302862 -29.717654972204198 0 0 1 0 0 0 1 forward_v I I I I #
coedge $-1 $281 $282 $177 $283 forward $109 $-1 #
coedge $-1 $284 $111 $285 $286 reversed $69 $-1 #
coedge $-1 $111 $284 $175 $283 reversed $69 $-1 #
coedge $-1 $287 $288 $111 $179 reversed $278 $-1 #
edge $-1 $289 -4.9919270505428406 $290 4.9919270505428406 $178 $291 forward 7 unknown #
face $-1 $292 $293 $41 $-1 $294 forward single #
loop $-1 $-1 $295 $112 #
plane-surface $-1 23.503048222913691 11.45568497094197 158.04771889930163 0 1 0 0.54463904215088732 0 0.83867056331134215 forward_v I I I I #
coedge $-1 $296 $297 $298 $299 reversed $113 $-1 #
coedge $-1 $185 $115 $300 $301 reversed $72 $-1 #
coedge $-1 $115 $184 $296 $302 reversed $72 $-1 #
coedge $-1 $298 $303 $115 $187 forward $293 $-1 #
edge $-1 $304 -45.303439724109424 $305 -37.921993713562095 $186 $306 forward 7 unknown #
loop $-1 $-1 $193 $116 #
plane-surface $-1 -38.645673483798966 14.857281178929025 62.347081579936386 0.54463904215088732 0 0.83867056331134215 0.83867056331134215 0 -0.54463904215088732 forward_v I I I I #
loop $-1 $-1 $307 $74 #
coedge $-1 $191 $191 $192 $308 reversed $117 $-1 #
coedge $-1 $192 $192 $191 $308 forward $119 $-1 #
coedge $-1 $193 $193 $120 $194 forward $188 $-1 #
edge $-1 $309 0 $309 6.2831853071796004 $193 $310 forward 7 unknown #
loop $-1 $-1 $200 $121 #
plane-surface $-1 -38.645673483798966 14.857281178929025 62.347081579936386 0.54463904215088732 0 0.83867056331134215 0.83867056331134215 0 -0.54463904215088732 forward_v I I I I #
loop $-1 $-1 $311 $77 #
coedge $-1 $198 $198 $199 $312 reversed $122 $-1 #
coedge $-1 $199 $199 $198 $312 forward $124 $-1 #
coedge $-1 $200 $200 $125 $201 forward $195 $-1 #
edge $-1 $313 0 $313 6.2831853071796004 $200 $314 forward 7 unknown #
face $-1 $315 $316 $44 $-1 $317 reversed single #
loop $-1 $-1 $318 $126 #
plane-surface $-1 -150.52834528919402 -2.055953145447174 66.203474101382099 0 -1 0 0.81915205242281985 0 -0.57357642473473569 forward_v I I I I #
coedge $-1 $319 $320 $321 $322 reversed $127 $-1 #
coedge $-1 $207 $129 $323 $324 reversed $81 $-1 #
coedge $-1 $129 $206 $319 $325 reversed $81 $-1 #
coedge $-1 $321 $326 $129 $209 forward $327 $-1 #
edge $-1 $328 18.209208809030741 $329 21.177540621663162 $208 $330 forward 7 unknown #
loop $-1 $-1 $215 $130 #
plane-surface $-1 -57.054963835566284 -6.3435601505447963 0.75270976103460896 -0.81915205242281985 0 0.57357642473473569 0.57357642473473569 0 0.81915205242281985 forward_v I I I I #
loop $-1 $-1 $331 $83 #
coedge $-1 $213 $213 $214 $332 reversed $131 $-1 #
coedge $-1 $214 $214 $213 $332 forward $133 $-1 #
coedge $-1 $215 $215 $134 $216 forward $210 $-1 #
edge $-1 $333 0 $333 6.2831853071796004 $215 $334 forward 7 unknown #
loop $-1 $-1 $222 $135 #
plane-surface $-1 -57.054963835566284 -6.3435601505447963 0.75270976103460896 -0.81915205242281985 0 0.57357642473473569 0.57357642473473569 0 0.81915205242281985 forward_v I I I I #
loop $-1 $-1 $335 $86 #
coedge $-1 $220 $220 $221 $336 reversed $136 $-1 #
coedge $-1 $221 $221 $220 $336 forward $138 $-1 #
coedge $-1 $222 $222 $139 $223 forward $217 $-1 #
edge $-1 $337 0 $337 6.2831853071796004 $222 $338 forward 7 unknown #
loop $-1 $-1 $229 $140 #
plane-surface $-1 -57.054963835566284 -6.3435601505447963 0.75270976103460896 -0.81915205242281985 0 0.57357642473473569 0.57357642473473569 0 0.81915205242281985 forward_v I I I I #
loop $-1 $-1 $339 $89 #
coedge $-1 $227 $227 $228 $340 reversed $141 $-1 #
coedge $-1 $228 $228 $227 $340 forward $143 $-1 #
coedge $-1 $229 $229 $144 $230 forward $224 $-1 #
edge $-1 $341 0 $341 6.2831853071796004 $229 $342 forward 7 unknown #
face $-1 $343 $344 $48 $-1 $345 forward single #
loop $-1 $-1 $346 $145 #
plane-surface $-1 -150.52834528919402 16.04017232399498 66.203474101382099 0 -1 0 0.81915205242281985 0 -0.57357642473473569 forward_v I I I I #
coedge $-1 $347 $348 $349 $350 reversed $146 $-1 #
coedge $-1 $236 $148 $351 $352 reversed $93 $-1 #
coedge $-1 $148 $235 $347 $353 reversed $93 $-1 #
coedge $-1 $349 $354 $148 $238 forward $344 $-1 #
edge $-1 $355 18.209208809030741 $356 21.177540621663162 $237 $357 forward 7 unknown #
loop $-1 $-1 $244 $149 #
plane-surface $-1 -57.054963835566284 11.752565318897357 0.75270976103460896 -0.81915205242281985 0 0.57357642473473569 0.57357642473473569 0 0.81915205242281985 forward_v I I I I #
loop $-1 $-1 $358 $95 #
coedge $-1 $242 $242 $243 $359 reversed $150 $-1 #
coedge $-1 $243 $243 $242 $359 forward $152 $-1 #
coedge $-1 $244 $244 $153 $245 forward $239 $-1 #
edge $-1 $360 0 $360 6.2831853071796004 $244 $361 forward 7 unknown #
loop $-1 $-1 $251 $154 #
plane-surface $-1 -57.054963835566284 11.752565318897357 0.75270976103460896 -0.81915205242281985 0 0.57357642473473569 0.57357642473473569 0 0.81915205242281985 forward_v I I I I #
loop $-1 $-1 $362 $98 #
coedge $-1 $249 $249 $250 $363 reversed $155 $-1 #
coedge $-1 $250 $250 $249 $363 forward $157 $-1 #
coedge $-1 $251 $251 $158 $252 forward $246 $-1 #
edge $-1 $364 0 $364 6.2831853071796004 $251 $365 forward 7 unknown #
loop $-1 $-1 $258 $159 #
plane-surface $-1 -57.054963835566284 11.752565318897357 0.75270976103460896 -0.81915205242281985 0 0.57357642473473569 0.57357642473473569 0 0.81915205242281985 forward_v I I I I #
loop $-1 $-1 $366 $101 #
coedge $-1 $256 $256 $257 $367 reversed $160 $-1 #
coedge $-1 $257 $257 $256 $367 forward $162 $-1 #
coedge $-1 $258 $258 $163 $259 forward $253 $-1 #
edge $-1 $368 0 $368 6.2831853071796004 $258 $369 forward 7 unknown #
face $-1 $370 $371 $39 $-1 $372 reversed single #
loop $-1 $-1 $373 $164 #
plane-surface $-1 -57.054963835566269 0 0 1 0 0 0 0 -1 forward_v I I I I #
coedge $-1 $170 $374 $375 $376 forward $165 $-1 #
coedge $-1 $377 $167 $378 $379 forward $105 $-1 #
coedge $-1 $167 $377 $268 $380 forward $105 $-1 #
coedge $-1 $269 $381 $167 $267 reversed $382 $-1 #
edge $-1 $383 -24.308649803851633 $384 24.308649803851633 $266 $385 forward 7 unknown #
coedge $-1 $169 $168 $265 $380 reversed $66 $-1 #
coedge $-1 $375 $266 $168 $270 forward $382 $-1 #
edge $-1 $383 -4.9919270505428406 $274 4.9919270505428406 $269 $386 forward 7 unknown #
coedge $-1 $387 $388 $169 $272 reversed $261 $-1 #
edge $-1 $389 -4.9919270505428406 $275 4.9919270505428406 $271 $390 forward 7 unknown #
coedge $-1 $374 $170 $388 $391 forward $165 $-1 #
vertex $-1 $270 $392 #
vertex $-1 $391 $393 #
straight-curve $-1 0 -24.308649803851633 -4.9919270505428406 -1 0 0 I I #
face $-1 $394 $395 $40 $-1 $396 reversed single #
loop $-1 $-1 $178 $172 #
plane-surface $-1 -54.546982903302862 -27.013152388027915 0 1 0 0 0 0 -1 forward_v I I I I #
coedge $-1 $397 $398 $399 $400 forward $173 $-1 #
coedge $-1 $401 $175 $402 $403 forward $109 $-1 #
coedge $-1 $175 $401 $287 $404 forward $109 $-1 #
edge $-1 $289 -54.546982903302862 $405 -51.546982903302862 $175 $406 forward 7 unknown #
coedge $-1 $177 $176 $407 $408 forward $69 $-1 #
coedge $-1 $409 $410 $176 $286 forward $411 $-1 #
edge $-1 $412 51.546982903302862 $290 54.546982903302862 $285 $413 forward 7 unknown #
coedge $-1 $399 $178 $282 $404 reversed $278 $-1 #
coedge $-1 $178 $399 $409 $414 reversed $278 $-1 #
vertex $-1 $283 $415 #
vertex $-1 $414 $416 #
straight-curve $-1 -54.546982903302862 -24.308649803851633 0 0 0 1 I I #
face $-1 $-1 $417 $41 $-1 $418 reversed single #
loop $-1 $-1 $186 $180 #
plane-surface $-1 0 0 4.9919270505428406 0 0 1 1 0 0 forward_v I I I I #
coedge $-1 $419 $420 $421 $422 reversed $181 $-1 #
coedge $-1 $423 $183 $185 $302 forward $113 $-1 #
coedge $-1 $183 $423 $419 $424 forward $113 $-1 #
coedge $-1 $421 $186 $183 $299 forward $293 $-1 #
edge $-1 $305 -10.830236797451567 $425 -4.0270443814774577 $298 $426 forward 7 unknown #
coedge $-1 $427 $428 $184 $301 forward $417 $-1 #
edge $-1 $429 -78.825499576427077 $304 -74.031932399107973 $300 $430 forward 7 unknown #
edge $-1 $305 105.30856235147354 $429 114.10992767113251 $185 $431 forward 7 unknown #
coedge $-1 $186 $421 $427 $432 forward $293 $-1 #
vertex $-1 $187 $433 #
vertex $-1 $187 $434 #
straight-curve $-1 11.751524111456845 18.25887738691608 4.9919270505428415 -1 0 0 I I #
coedge $-1 $307 $307 $-1 $435 reversed $190 $-1 #
edge $-1 $436 0 $436 6.2831853071796004 $191 $437 forward 7 unknown #
vertex $-1 $194 $438 #
ellipse-curve $-1 53.364240830292594 13.399454232648861 2.5951434618832909 0.54463904215088732 0 0.83867056331134215 0.41933528165567108 0 -0.27231952107544366 1 I I #
coedge $-1 $311 $311 $-1 $439 reversed $197 $-1 #
edge $-1 $440 0 $440 6.2831853071796004 $198 $441 forward 7 unknown #
vertex $-1 $201 $442 #
ellipse-curve $-1 53.364240830292594 16.315108125209196 2.5951434618832909 0.54463904215088732 0 0.83867056331134215 0.41933528165567108 0 -0.27231952107544366 1 I I #
face $-1 $-1 $327 $44 $-1 $443 forward single #
loop $-1 $-1 $444 $202 #
plane-surface $-1 -57.054963835566269 0 0 1 0 0 0 0 -1 forward_v I I I I #
coedge $-1 $445 $446 $447 $448 reversed $203 $-1 #
coedge $-1 $449 $205 $207 $325 forward $127 $-1 #
coedge $-1 $205 $449 $445 $450 forward $127 $-1 #
coedge $-1 $447 $208 $205 $322 forward $327 $-1 #
edge $-1 $329 -7.4593870803700213 $451 1.1158269298252241 $321 $452 forward 7 unknown #
coedge $-1 $453 $454 $206 $324 forward $316 $-1 #
edge $-1 $455 -32.349027289656419 $328 -28.109810000148208 $323 $456 forward 7 unknown #
edge $-1 $329 -5.1751286918830601 $455 -2.4793790127588779e-014 $207 $457 forward 7 unknown #
coedge $-1 $208 $447 $453 $458 forward $327 $-1 #
loop $-1 $-1 $447 $315 #
vertex $-1 $324 $459 #
vertex $-1 $209 $460 #
straight-curve $-1 -75.264172644597011 -10.631167155642419 4.9919270505428415 1 0 0 I I #
coedge $-1 $331 $331 $-1 $461 reversed $212 $-1 #
edge $-1 $462 0 $462 6.2831853071796004 $213 $463 forward 7 unknown #
vertex $-1 $216 $464 #
ellipse-curve $-1 -55.570797929250062 -8.9161243536033687 2.8723184057887328 -0.81915205242281985 0 0.57357642473473569 0.28678821236736785 0 0.40957602621140993 1 I I #
coedge $-1 $335 $335 $-1 $465 reversed $219 $-1 #
edge $-1 $466 0 $466 6.2831853071796004 $220 $467 forward 7 unknown #
vertex $-1 $223 $468 #
ellipse-curve $-1 -55.570797929250062 -6.3435601505447927 2.8723184057887328 -0.81915205242281985 0 0.57357642473473569 0.28678821236736785 0 0.40957602621140993 1 I I #
coedge $-1 $339 $339 $-1 $469 reversed $226 $-1 #
edge $-1 $470 0 $470 6.2831853071796004 $227 $471 forward 7 unknown #
vertex $-1 $230 $472 #
ellipse-curve $-1 -55.570797929250062 -3.7709959474862167 2.8723184057887328 -0.81915205242281985 0 0.57357642473473569 0.28678821236736785 0 0.40957602621140993 1 I I #
face $-1 $-1 $473 $48 $-1 $474 reversed single #
loop $-1 $-1 $237 $231 #
plane-surface $-1 0 0 4.9919270505428406 0 0 1 1 0 0 forward_v I I I I #
coedge $-1 $475 $476 $477 $478 reversed $232 $-1 #
coedge $-1 $479 $234 $236 $353 forward $146 $-1 #
coedge $-1 $234 $479 $475 $480 forward $146 $-1 #
coedge $-1 $477 $237 $234 $350 forward $344 $-1 #
edge $-1 $356 1.5886756543510563 $481 10.163889664546302 $349 $482 forward 7 unknown #
coedge $-1 $483 $484 $235 $352 forward $473 $-1 #
edge $-1 $485 -32.349027289656419 $355 -28.109810000148208 $351 $486 forward 7 unknown #
edge $-1 $356 -5.1751286918830601 $485 -2.4793790127588779e-014 $236 $487 forward 7 unknown #
coedge $-1 $237 $477 $483 $488 forward $344 $-1 #
vertex $-1 $352 $489 #
vertex $-1 $238 $490 #
straight-curve $-1 -75.264172644597011 7.4649583137997348 4.9919270505428415 1 0 0 I I #
coedge $-1 $358 $358 $-1 $491 reversed $241 $-1 #
edge $-1 $492 0 $492 6.2831853071796004 $242 $493 forward 7 unknown #
vertex $-1 $245 $494 #
ellipse-curve $-1 -55.570797929250062 9.1800011158387811 2.8723184057887328 -0.81915205242281985 0 0.57357642473473569 0.28678821236736785 0 0.40957602621140993 1 I I #
coedge $-1 $362 $362 $-1 $495 reversed $248 $-1 #
edge $-1 $496 0 $496 6.2831853071796004 $249 $497 forward 7 unknown #
vertex $-1 $252 $498 #
ellipse-curve $-1 -55.570797929250062 11.752565318897357 2.8723184057887328 -0.81915205242281985 0 0.57357642473473569 0.28678821236736785 0 0.40957602621140993 1 I I #
coedge $-1 $366 $366 $-1 $499 reversed $255 $-1 #
edge $-1 $500 0 $500 6.2831853071796004 $256 $501 forward 7 unknown #
vertex $-1 $259 $502 #
ellipse-curve $-1 -55.570797929250062 14.325129521955933 2.8723184057887328 -0.81915205242281985 0 0.57357642473473569 0.28678821236736785 0 0.40957602621140993 1 I I #
face $-1 $-1 $382 $39 $-1 $503 reversed single #
loop $-1 $-1 $504 $260 #
plane-surface $-1 0 24.308649803851633 0 0 -1 0 0 0 -1 forward_v I I I I #
coedge $-1 $388 $387 $505 $506 forward $261 $-1 #
coedge $-1 $263 $273 $507 $508 forward $165 $-1 #
coedge $-1 $381 $269 $263 $376 reversed $382 $-1 #
edge $-1 $509 -24.308649803851633 $274 24.308649803851633 $375 $510 forward 7 unknown #
coedge $-1 $265 $264 $387 $511 forward $105 $-1 #
coedge $-1 $504 $505 $264 $379 reversed $371 $-1 #
edge $-1 $384 -57.054963835566269 $512 57.054963835566269 $378 $513 forward 7 unknown #
edge $-1 $389 -57.054963835566269 $383 57.054963835566269 $268 $514 forward 7 unknown #
coedge $-1 $266 $375 $504 $515 reversed $382 $-1 #
loop $-1 $-1 $269 $370 #
vertex $-1 $267 $516 #
vertex $-1 $267 $517 #
straight-curve $-1 57.054963835566269 0 4.9919270505428406 0 1 0 I I #
straight-curve $-1 57.054963835566269 -24.308649803851633 0 0 0 -1 I I #
coedge $-1 $373 $271 $377 $511 reversed $261 $-1 #
coedge $-1 $271 $373 $273 $391 reversed $261 $-1 #
vertex $-1 $511 $518 #
straight-curve $-1 -57.054963835566269 -24.308649803851633 0 0 0 -1 I I #
edge $-1 $275 -24.308649803851633 $519 24.308649803851633 $388 $520 forward 7 unknown #
point $-1 57.054963835566269 -24.308649803851633 -4.9919270505428406 #
point $-1 -57.054963835566269 -24.308649803851633 -4.9919270505428406 #
face $-1 $-1 $411 $40 $-1 $521 forward single #
loop $-1 $-1 $522 $277 #
plane-surface $-1 -51.546982903302862 -27.013152388027915 0 -1 0 0 0 0 1 forward_v I I I I #
coedge $-1 $523 $280 $401 $524 reversed $173 $-1 #
coedge $-1 $280 $523 $525 $526 reversed $173 $-1 #
coedge $-1 $288 $287 $280 $400 reversed $278 $-1 #
edge $-1 $527 -4.9919270505428406 $528 4.9919270505428406 $399 $529 forward 7 unknown #
coedge $-1 $282 $281 $397 $524 forward $109 $-1 #
coedge $-1 $407 $522 $281 $403 reversed $395 $-1 #
edge $-1 $405 -2.7045025841762822 $530 2.7045025841762822 $402 $531 forward 7 unknown #
edge $-1 $528 -2.7045025841762822 $289 2.7045025841762822 $287 $532 forward 7 unknown #
vertex $-1 $403 $533 #
straight-curve $-1 0 -24.308649803851633 -4.9919270505428406 1 0 0 I I #
coedge $-1 $534 $402 $284 $408 reversed $395 $-1 #
edge $-1 $412 -4.9919270505428406 $405 4.9919270505428406 $407 $535 forward 7 unknown #
coedge $-1 $525 $285 $288 $414 forward $411 $-1 #
coedge $-1 $285 $525 $534 $536 forward $411 $-1 #
loop $-1 $-1 $285 $394 #
vertex $-1 $286 $537 #
straight-curve $-1 0 -24.308649803851633 4.9919270505428406 -1 0 0 I I #
edge $-1 $290 -2.7045025841762822 $527 2.7045025841762822 $288 $538 forward 7 unknown #
point $-1 -54.546982903302862 -24.308649803851633 -4.9919270505428406 #
point $-1 -54.546982903302862 -24.308649803851633 4.9919270505428406 #
loop $-1 $-1 $300 $292 #
plane-surface $-1 57.054963835566269 0 0 -1 0 0 0 0 1 forward_v I I I I #
coedge $-1 $420 $295 $297 $424 reversed $181 $-1 #
coedge $-1 $295 $419 $539 $540 reversed $181 $-1 #
coedge $-1 $303 $298 $295 $422 forward $293 $-1 #
edge $-1 $425 37.921993713562095 $541 45.303439724109424 $421 $542 forward 7 unknown #
coedge $-1 $297 $296 $428 $543 reversed $113 $-1 #
edge $-1 $544 -114.10992767113251 $425 -105.30856235147354 $419 $545 forward 7 unknown #
vertex $-1 $299 $546 #
straight-curve $-1 49.673517825018948 7.4286405894645124 4.9919270505428344 0 -1 0 I I #
coedge $-1 $539 $300 $303 $432 reversed $417 $-1 #
coedge $-1 $300 $539 $423 $543 forward $417 $-1 #
vertex $-1 $301 $547 #
straight-curve $-1 57.054963835566269 18.25887738691608 79.023859449650814 0 0 1 I I #
straight-curve $-1 -38.645673483798966 18.25887738691608 62.347081579936386 0.83867056331134215 0 -0.54463904215088732 I I #
edge $-1 $541 11.45568497094197 $304 18.25887738691608 $427 $548 forward 7 unknown #
point $-1 57.054963835566269 18.25887738691608 4.9919270505428406 #
point $-1 49.673517825018941 18.25887738691608 4.9919270505428415 #
edge $-1 $549 1 $549 0 $307 $-1 forward 7 unknown #
vertex $-1 $308 $550 #
ellipse-curve $-1 52.458863816041699 13.399454232648861 1.2009851445649724 0.54463904215088732 0 0.83867056331134215 0.41933528165567108 0 -0.27231952107544366 1 I I #
point $-1 53.783576111948257 13.399454232648861 2.3228239408078313 #
edge $-1 $551 1 $551 0 $311 $-1 forward 7 unknown #
vertex $-1 $312 $552 #
ellipse-curve $-1 52.458863816041699 16.315108125209196 1.2009851445649724 0.54463904215088732 0 0.83867056331134215 0.41933528165567108 0 -0.27231952107544366 1 I I #
point $-1 53.783576111948257 16.315108125209196 2.3228239408078313 #
plane-surface $-1 0 0 4.9919270505428406 0 0 1 1 0 0 forward_v I I I I #
coedge $-1 $454 $453 $446 $553 forward $316 $-1 #
coedge $-1 $446 $318 $320 $450 reversed $203 $-1 #
coedge $-1 $318 $445 $444 $553 reversed $203 $-1 #
coedge $-1 $326 $321 $318 $448 forward $327 $-1 #
edge $-1 $451 -21.177540621663162 $554 -18.209208809030741 $447 $555 forward 7 unknown #
coedge $-1 $320 $319 $454 $556 reversed $127 $-1 #
edge $-1 $557 2.4793790127588779e-014 $451 5.1751286918830601 $445 $558 forward 7 unknown #
vertex $-1 $322 $559 #
straight-curve $-1 -54.086632022933856 -3.1717800752723981 4.9919270505428415 0 1 0 I I #
coedge $-1 $444 $323 $326 $458 reversed $316 $-1 #
coedge $-1 $323 $444 $449 $556 forward $316 $-1 #
vertex $-1 $324 $560 #
straight-curve $-1 -57.054963835566269 -10.631167155642419 33.10173705069105 0 0 1 I I #
straight-curve $-1 -57.054963835566284 -10.631167155642419 0.75270976103460896 -0.57357642473473569 0 -0.81915205242281985 I I #
edge $-1 $554 2.055953145447174 $328 10.631167155642419 $453 $561 forward 7 unknown #
point $-1 -57.054963835566269 -10.631167155642419 4.9919270505428406 #
point $-1 -54.086632022933848 -10.631167155642419 4.9919270505428406 #
edge $-1 $562 1 $562 0 $331 $-1 forward 7 unknown #
vertex $-1 $332 $563 #
ellipse-curve $-1 -54.583813078464843 -8.9161243536033687 2.1812241940287382 -0.81915205242281985 0 0.57357642473473569 0.28678821236736785 0 0.40957602621140993 1 I I #
point $-1 -55.284009716882686 -8.9161243536033687 3.2818944320001422 #
edge $-1 $564 1 $564 0 $335 $-1 forward 7 unknown #
vertex $-1 $336 $565 #
ellipse-curve $-1 -54.583813078464843 -6.3435601505447927 2.1812241940287382 -0.81915205242281985 0 0.57357642473473569 0.28678821236736785 0 0.40957602621140993 1 I I #
point $-1 -55.284009716882686 -6.3435601505447927 3.2818944320001422 #
edge $-1 $566 1 $566 0 $339 $-1 forward 7 unknown #
vertex $-1 $340 $567 #
ellipse-curve $-1 -54.583813078464843 -3.7709959474862167 2.1812241940287382 -0.81915205242281985 0 0.57357642473473569 0.28678821236736785 0 0.40957602621140993 1 I I #
point $-1 -55.284009716882686 -3.7709959474862167 3.2818944320001422 #
loop $-1 $-1 $351 $343 #
plane-surface $-1 -57.054963835566269 0 0 1 0 0 0 0 -1 forward_v I I I I #
coedge $-1 $476 $346 $348 $480 reversed $232 $-1 #
coedge $-1 $346 $475 $568 $569 reversed $232 $-1 #
coedge $-1 $354 $349 $346 $478 forward $344 $-1 #
edge $-1 $481 -21.177540621663162 $570 -18.209208809030741 $477 $571 forward 7 unknown #
coedge $-1 $348 $347 $484 $572 reversed $146 $-1 #
edge $-1 $573 2.4793790127588779e-014 $481 5.1751286918830601 $475 $574 forward 7 unknown #
vertex $-1 $350 $575 #
straight-curve $-1 -54.086632022933856 5.8762826594486786 4.9919270505428415 0 1 0 I I #
coedge $-1 $568 $351 $354 $488 reversed $473 $-1 #
coedge $-1 $351 $568 $479 $572 forward $473 $-1 #
vertex $-1 $352 $576 #
straight-curve $-1 -57.054963835566269 7.4649583137997348 33.10173705069105 0 0 1 I I #
straight-curve $-1 -57.054963835566284 7.4649583137997348 0.75270976103460896 -0.57357642473473569 0 -0.81915205242281985 I I #
edge $-1 $570 -16.04017232399498 $355 -7.4649583137997348 $483 $577 forward 7 unknown #
point $-1 -57.054963835566269 7.4649583137997348 4.9919270505428406 #
point $-1 -54.086632022933848 7.4649583137997348 4.9919270505428406 #
edge $-1 $578 1 $578 0 $358 $-1 forward 7 unknown #
vertex $-1 $359 $579 #
ellipse-curve $-1 -54.583813078464843 9.1800011158387811 2.1812241940287382 -0.81915205242281985 0 0.57357642473473569 0.28678821236736785 0 0.40957602621140993 1 I I #
point $-1 -55.284009716882686 9.1800011158387811 3.2818944320001422 #
edge $-1 $580 1 $580 0 $362 $-1 forward 7 unknown #
vertex $-1 $363 $581 #
ellipse-curve $-1 -54.583813078464843 11.752565318897357 2.1812241940287382 -0.81915205242281985 0 0.57357642473473569 0.28678821236736785 0 0.40957602621140993 1 I I #
point $-1 -55.284009716882686 11.752565318897357 3.2818944320001422 #
edge $-1 $582 1 $582 0 $366 $-1 forward 7 unknown #
vertex $-1 $367 $583 #
ellipse-curve $-1 -54.583813078464843 14.325129521955933 2.1812241940287382 -0.81915205242281985 0 0.57357642473473569 0.28678821236736785 0 0.40957602621140993 1 I I #
point $-1 -55.284009716882686 14.325129521955933 3.2818944320001422 #
plane-surface $-1 57.054963835566269 0 0 -1 0 0 0 0 1 forward_v I I I I #
coedge $-1 $507 $378 $381 $515 forward $371 $-1 #
coedge $-1 $378 $507 $373 $506 reversed $371 $-1 #
edge $-1 $512 -4.9919270505428406 $519 4.9919270505428406 $505 $584 forward 7 unknown #
coedge $-1 $505 $504 $374 $508 reversed $371 $-1 #
edge $-1 $519 -57.054963835566269 $509 57.054963835566269 $507 $585 forward 7 unknown #
vertex $-1 $376 $586 #
straight-curve $-1 57.054963835566269 0 -4.9919270505428406 0 -1 0 I I #
edge $-1 $512 -24.308649803851633 $389 24.308649803851633 $387 $587 forward 7 unknown #
vertex $-1 $379 $588 #
straight-curve $-1 0 24.308649803851633 4.9919270505428406 -1 0 0 I I #
straight-curve $-1 0 -24.308649803851633 4.9919270505428406 1 0 0 I I #
edge $-1 $384 -4.9919270505428406 $509 4.9919270505428406 $381 $589 forward 7 unknown #
point $-1 57.054963835566269 -24.308649803851633 4.9919270505428406 #
point $-1 57.054963835566269 24.308649803851633 4.9919270505428406 #
point $-1 -57.054963835566269 -24.308649803851633 4.9919270505428406 #
vertex $-1 $508 $590 #
straight-curve $-1 -57.054963835566269 0 -4.9919270505428406 0 1 0 I I #
plane-surface $-1 0 0 4.9919270505428406 0 0 1 1 0 0 forward_v I I I I #
coedge $-1 $402 $534 $523 $591 forward $395 $-1 #
coedge $-1 $398 $397 $522 $591 reversed $173 $-1 #
edge $-1 $530 -1.5 $528 1.5 $397 $592 forward 7 unknown #
coedge $-1 $410 $409 $398 $526 forward $411 $-1 #
edge $-1 $527 -1.5 $593 1.5 $398 $594 forward 7 unknown #
vertex $-1 $414 $595 #
vertex $-1 $404 $596 #
straight-curve $-1 -54.546982903302862 -29.717654972204198 0 0 0 -1 I I #
vertex $-1 $591 $597 #
straight-curve $-1 -51.546982903302862 -27.013152388027915 -4.9919270505428406 0 -1 0 I I #
straight-curve $-1 -54.546982903302862 -27.013152388027915 -4.9919270505428406 0 1 0 I I #
point $-1 -51.546982903302862 -24.308649803851633 -4.9919270505428406 #
coedge $-1 $522 $407 $410 $536 reversed $395 $-1 #
straight-curve $-1 -51.546982903302862 -24.308649803851633 0 0 0 -1 I I #
edge $-1 $593 -2.7045025841762822 $412 2.7045025841762822 $534 $598 forward 7 unknown #
point $-1 -51.546982903302862 -24.308649803851633 4.9919270505428406 #
straight-curve $-1 -54.546982903302862 -27.013152388027915 4.9919270505428406 0 -1 0 I I #
coedge $-1 $428 $427 $420 $540 forward $417 $-1 #
edge $-1 $541 74.031932399107973 $544 78.825499576427077 $539 $599 forward 7 unknown #
vertex $-1 $432 $600 #
straight-curve $-1 11.751524111456845 11.45568497094197 4.9919270505428415 1 0 0 I I #
edge $-1 $544 4.0270443814774577 $429 10.830236797451567 $428 $601 forward 7 unknown #
vertex $-1 $543 $602 #
straight-curve $-1 -38.645673483798966 11.45568497094197 62.347081579936386 -0.83867056331134215 0 0.54463904215088732 I I #
point $-1 49.673517825018941 11.45568497094197 4.9919270505428415 #
point $-1 57.054963835566262 18.25887738691608 0.19835987322373683 #
straight-curve $-1 57.054963835566269 0 4.9919270505428406 0 1 0 I I #
vertex $-1 $435 $603 #
point $-1 52.878199097697369 13.399454232648861 0.92866562348952875 #
vertex $-1 $439 $604 #
point $-1 52.878199097697369 16.315108125209196 0.92866562348952875 #
edge $-1 $554 28.109810000148208 $557 32.349027289656419 $444 $605 forward 7 unknown #
vertex $-1 $458 $606 #
straight-curve $-1 -75.264172644597011 -2.055953145447174 4.9919270505428415 -1 0 0 I I #
edge $-1 $557 -1.1158269298252241 $455 7.4593870803700213 $454 $607 forward 7 unknown #
vertex $-1 $556 $608 #
straight-curve $-1 -57.054963835566284 -2.055953145447174 0.75270976103460896 0.57357642473473569 0 0.81915205242281985 I I #
point $-1 -54.086632022933848 -2.055953145447174 4.9919270505428406 #
point $-1 -57.054963835566269 -10.631167155642419 0.75270976103462928 #
straight-curve $-1 -57.054963835566269 0 4.9919270505428406 0 -1 0 I I #
vertex $-1 $461 $609 #
point $-1 -54.297024866097473 -8.9161243536033687 2.5908002202401481 #
vertex $-1 $465 $610 #
point $-1 -54.297024866097473 -6.3435601505447927 2.5908002202401481 #
vertex $-1 $469 $611 #
point $-1 -54.297024866097473 -3.7709959474862167 2.5908002202401481 #
coedge $-1 $484 $483 $476 $569 forward $473 $-1 #
edge $-1 $570 28.109810000148208 $573 32.349027289656419 $568 $612 forward 7 unknown #
vertex $-1 $488 $613 #
straight-curve $-1 -75.264172644597011 16.04017232399498 4.9919270505428415 -1 0 0 I I #
edge $-1 $573 -10.163889664546302 $485 -1.5886756543510563 $484 $614 forward 7 unknown #
vertex $-1 $572 $615 #
straight-curve $-1 -57.054963835566284 16.04017232399498 0.75270976103460896 0.57357642473473569 0 0.81915205242281985 I I #
point $-1 -54.086632022933848 16.04017232399498 4.9919270505428406 #
point $-1 -57.054963835566269 7.4649583137997348 0.75270976103462928 #
straight-curve $-1 -57.054963835566269 0 4.9919270505428406 0 -1 0 I I #
vertex $-1 $491 $616 #
point $-1 -54.297024866097473 9.1800011158387811 2.5908002202401481 #
vertex $-1 $495 $617 #
point $-1 -54.297024866097473 11.752565318897357 2.5908002202401481 #
vertex $-1 $499 $618 #
point $-1 -54.297024866097473 14.325129521955933 2.5908002202401481 #
straight-curve $-1 -57.054963835566269 24.308649803851633 0 0 0 -1 I I #
straight-curve $-1 0 24.308649803851633 -4.9919270505428406 1 0 0 I I #
point $-1 57.054963835566269 24.308649803851633 -4.9919270505428406 #
straight-curve $-1 -57.054963835566269 0 4.9919270505428406 0 -1 0 I I #
point $-1 -57.054963835566269 24.308649803851633 4.9919270505428406 #
straight-curve $-1 57.054963835566269 24.308649803851633 0 0 0 -1 I I #
point $-1 -57.054963835566269 24.308649803851633 -4.9919270505428406 #
edge $-1 $593 -4.9919270505428406 $530 4.9919270505428406 $522 $619 forward 7 unknown #
straight-curve $-1 -53.046982903302862 -29.717654972204198 -4.9919270505428406 -1 0 0 I I #
vertex $-1 $536 $620 #
straight-curve $-1 -53.046982903302862 -29.717654972204198 4.9919270505428406 1 0 0 I I #
point $-1 -54.546982903302862 -29.717654972204198 4.9919270505428406 #
point $-1 -54.546982903302862 -29.717654972204198 -4.9919270505428406 #
point $-1 -51.546982903302862 -29.717654972204198 -4.9919270505428406 #
straight-curve $-1 -51.546982903302862 -27.013152388027915 4.9919270505428406 0 1 0 I I #
straight-curve $-1 57.054963835566269 11.45568497094197 79.023859449650814 0 0 -1 I I #
point $-1 57.054963835566269 11.45568497094197 4.9919270505428406 #
straight-curve $-1 57.054963835566269 7.4286405894645124 0.19835987322372972 0 1 0 I I #
point $-1 57.054963835566262 11.45568497094197 0.19835987322373683 #
point $-1 52.186544294966254 13.399454232648861 0.78164986290930139 #
point $-1 52.186544294966254 16.315108125209196 0.78164986290930139 #
straight-curve $-1 -57.054963835566269 -2.055953145447174 33.10173705069105 0 0 -1 I I #
point $-1 -57.054963835566269 -2.055953145447174 4.9919270505428406 #
straight-curve $-1 -57.054963835566269 -3.1717800752723981 0.75270976103462506 0 -1 0 I I #
point $-1 -57.054963835566269 -2.055953145447174 0.75270976103462928 #
point $-1 -54.174237052253432 -8.9161243536033687 1.8944359816613705 #
point $-1 -54.174237052253432 -6.3435601505447927 1.8944359816613705 #
point $-1 -54.174237052253432 -3.7709959474862167 1.8944359816613705 #
straight-curve $-1 -57.054963835566269 16.04017232399498 33.10173705069105 0 0 -1 I I #
point $-1 -57.054963835566269 16.04017232399498 4.9919270505428406 #
straight-curve $-1 -57.054963835566269 5.8762826594486786 0.75270976103462506 0 -1 0 I I #
point $-1 -57.054963835566269 16.04017232399498 0.75270976103462928 #
point $-1 -54.174237052253432 9.1800011158387811 1.8944359816613705 #
point $-1 -54.174237052253432 11.752565318897357 1.8944359816613705 #
point $-1 -54.174237052253432 14.325129521955933 1.8944359816613705 #
straight-curve $-1 -51.546982903302862 -29.717654972204198 0 0 0 -1 I I #
point $-1 -51.546982903302862 -29.717654972204198 4.9919270505428406 #
End-of-ACIS-data 