500 0 8 0           
7 Unknown 11 ACIS 5.0 NT 24 Thu Mar 25 23:42:47 1999 
-1 9.9999999999999995e-007 1e-010 
body $-1 $8 $-1 $9 #
body $-1 $10 $-1 $11 #
body $-1 $12 $-1 $13 #
body $-1 $14 $-1 $15 #
body $-1 $16 $-1 $17 #
body $-1 $18 $-1 $19 #
body $-1 $20 $-1 $21 #
body $-1 $22 $-1 $23 #
lump $-1 $-1 $24 $0 #
transform $-1 1 0 0 0 1 0 0 0 1 72.193365276039913 37.918757075206301 11.50951793324341 1 rotate no_reflect no_shear #
lump $-1 $-1 $25 $1 #
transform $-1 1 0 0 0 1 0 0 0 1 72.193365276039913 37.918757075206301 11.50951793324341 1 rotate no_reflect no_shear #
lump $-1 $-1 $26 $2 #
transform $-1 1 0 0 0 1 0 0 0 1 72.193365276039913 37.918757075206301 11.50951793324341 1 rotate no_reflect no_shear #
lump $-1 $-1 $27 $3 #
transform $-1 1 0 0 0 1 0 0 0 1 72.193365276039913 37.918757075206301 11.50951793324341 1 rotate no_reflect no_shear #
lump $-1 $-1 $28 $4 #
transform $-1 1 0 0 0 1 0 0 0 1 72.193365276039913 37.918757075206301 11.50951793324341 1 rotate no_reflect no_shear #
lump $-1 $-1 $29 $5 #
transform $-1 1 0 0 0 1 0 0 0 1 72.193365276039913 37.918757075206301 11.50951793324341 1 rotate no_reflect no_shear #
lump $-1 $-1 $30 $6 #
transform $-1 1 0 0 0 1 0 0 0 1 72.193365276039913 37.918757075206301 11.50951793324341 1 rotate no_reflect no_shear #
lump $-1 $-1 $31 $7 #
transform $-1 1 0 0 0 1 0 0 0 1 72.193365276039913 37.918757075206301 11.50951793324341 1 rotate no_reflect no_shear #
shell $-1 $-1 $-1 $32 $-1 $8 #
shell $-1 $-1 $-1 $33 $-1 $10 #
shell $-1 $-1 $-1 $34 $-1 $12 #
shell $-1 $-1 $-1 $35 $-1 $14 #
shell $-1 $-1 $-1 $36 $-1 $16 #
shell $-1 $-1 $-1 $37 $-1 $18 #
shell $-1 $-1 $-1 $38 $-1 $20 #
shell $-1 $-1 $-1 $39 $-1 $22 #
face $-1 $40 $41 $24 $-1 $42 forward single #
face $-1 $43 $44 $25 $-1 $45 forward single #
face $-1 $46 $47 $26 $-1 $48 reversed single #
face $-1 $49 $50 $27 $-1 $51 forward single #
face $-1 $52 $53 $28 $-1 $54 forward single #
face $-1 $55 $56 $29 $-1 $57 reversed single #
face $-1 $58 $59 $30 $-1 $60 forward single #
face $-1 $61 $62 $31 $-1 $63 forward single #
face $-1 $64 $65 $24 $-1 $66 reversed single #
loop $-1 $-1 $67 $32 #
plane-surface $-1 0 0 11.50951793324341 0 0 1 1 0 0 forward_v I I I I #
face $-1 $68 $69 $25 $-1 $70 reversed single #
loop $-1 $-1 $71 $33 #
plane-surface $-1 0 -30.929978414749598 -4.876801263013137 0 0 1 1 0 0 forward_v I I I I #
face $-1 $72 $73 $26 $-1 $74 reversed single #
loop $-1 $-1 $75 $34 #
plane-surface $-1 -172.49281741554773 31.344992138654312 108.28863106155734 0 1 0 -0.69465837861970381 0 0.71933979245794832 forward_v I I I I #
face $-1 $76 $77 $27 $-1 $78 forward single #
loop $-1 $79 $80 $35 #
cone-surface $-1 -68.109056133266179 33.223210691954876 7.5362603806116484 0.69465837861970381 0 -0.71933979245794832 0.35966989622897416 0 0.3473291893098519 1 I I 0 1 0.5 forward I I I I #
face $-1 $81 $82 $28 $-1 $83 forward single #
loop $-1 $84 $85 $36 #
cone-surface $-1 -68.109056133266179 36.040538521905731 7.5362603806116484 0.69465837861970381 0 -0.71933979245794832 0.35966989622897416 0 0.3473291893098519 1 I I 0 1 0.5 forward I I I I #
face $-1 $86 $87 $29 $-1 $88 reversed single #
loop $-1 $-1 $89 $37 #
plane-surface $-1 82.88003891257938 32.744647257063875 208.00848738025613 0 -1 0 -0.74314483375859142 0 -0.66913059716165679 forward_v I I I I #
face $-1 $90 $91 $30 $-1 $92 forward single #
loop $-1 $93 $94 $38 #
cone-surface $-1 68.407561835188503 28.030222137025589 7.399050131386371 -0.74314483375859142 0 -0.66913059716165679 0.3345652985808284 0 -0.37157241687929571 1 I I 0 1 0.5 forward I I I I #
face $-1 $95 $96 $31 $-1 $97 forward single #
loop $-1 $98 $99 $39 #
cone-surface $-1 68.407561835188503 30.858877209048558 7.399050131386371 -0.74314483375859142 0 -0.66913059716165679 0.3345652985808284 0 -0.37157241687929571 1 I I 0 1 0.5 forward I I I I #
face $-1 $100 $101 $24 $-1 $102 reversed single #
loop $-1 $-1 $103 $40 #
plane-surface $-1 0 0 -11.50951793324341 0 0 1 1 0 0 forward_v I I I I #
coedge $-1 $104 $105 $106 $107 forward $41 $-1 #
face $-1 $108 $109 $25 $-1 $110 reversed single #
loop $-1 $-1 $111 $43 #
plane-surface $-1 0 -23.941199754292896 -8.1931595981282737 0 -1 0 0 0 -1 forward_v I I I I #
coedge $-1 $112 $113 $114 $115 reversed $44 $-1 #
face $-1 $116 $117 $26 $-1 $118 reversed single #
loop $-1 $-1 $119 $46 #
plane-surface $-1 -72.193365276039913 34.63187460693031 4.4255102725425246 -0.69465837861970381 0 0.71933979245794832 0.71933979245794832 0 0.69465837861970381 forward_v I I I I #
coedge $-1 $120 $121 $122 $123 reversed $47 $-1 #
face $-1 $-1 $124 $27 $-1 $125 forward single #
loop $-1 $126 $127 $49 #
cone-surface $-1 -67.518934650455478 33.223210691954876 6.9251717102158405 0.69465837861970381 0 -0.71933979245794832 0.17983494811448708 0 0.17366459465492595 1 I I -0.70710678118654746 0.70710678118654746 0.25 forward I I I I #
loop $-1 $-1 $128 $35 #
coedge $-1 $80 $80 $129 $130 reversed $50 $-1 #
face $-1 $-1 $131 $28 $-1 $132 forward single #
loop $-1 $133 $134 $52 #
cone-surface $-1 -67.518934650455478 36.040538521905731 6.9251717102158405 0.69465837861970381 0 -0.71933979245794832 0.17983494811448708 0 0.17366459465492595 1 I I -0.70710678118654746 0.70710678118654746 0.25 forward I I I I #
loop $-1 $-1 $135 $36 #
coedge $-1 $85 $85 $136 $137 reversed $53 $-1 #
face $-1 $138 $139 $29 $-1 $140 reversed single #
loop $-1 $-1 $141 $55 #
plane-surface $-1 -24.420213960492518 29.444549673037073 111.39490814372373 0.74314483375859142 0 0.66913059716165679 0.66913059716165679 0 -0.74314483375859142 forward_v I I I I #
coedge $-1 $142 $143 $144 $145 reversed $56 $-1 #
face $-1 $-1 $146 $30 $-1 $147 forward single #
loop $-1 $148 $149 $58 #
cone-surface $-1 67.774158267470426 28.030222137025589 6.8287310115346909 -0.74314483375859142 0 -0.66913059716165679 0.1672826492904142 0 -0.18578620843964785 1 I I -0.70710678118654746 0.70710678118654746 0.25 forward I I I I #
loop $-1 $-1 $150 $38 #
coedge $-1 $94 $94 $151 $152 reversed $59 $-1 #
face $-1 $-1 $153 $31 $-1 $154 forward single #
loop $-1 $155 $156 $61 #
cone-surface $-1 67.774158267470426 30.858877209048558 6.8287310115346909 -0.74314483375859142 0 -0.66913059716165679 0.1672826492904142 0 -0.18578620843964785 1 I I -0.70710678118654746 0.70710678118654746 0.25 forward I I I I #
loop $-1 $-1 $157 $39 #
coedge $-1 $99 $99 $158 $159 reversed $62 $-1 #
face $-1 $160 $161 $24 $-1 $162 reversed single #
loop $-1 $-1 $163 $64 #
plane-surface $-1 0 -37.918757075206301 0 0 1 0 0 0 1 forward_v I I I I #
coedge $-1 $164 $165 $166 $167 forward $65 $-1 #
coedge $-1 $168 $67 $169 $170 forward $41 $-1 #
coedge $-1 $67 $168 $171 $172 forward $41 $-1 #
coedge $-1 $173 $174 $67 $107 reversed $175 $-1 #
edge $-1 $176 -37.918757075206301 $177 37.918757075206301 $106 $178 forward 7 unknown #
face $-1 $179 $180 $25 $-1 $181 reversed single #
loop $-1 $-1 $182 $68 #
plane-surface $-1 0 0 -11.50951793324341 0 0 1 1 0 0 forward_v I I I I #
coedge $-1 $183 $184 $185 $186 reversed $69 $-1 #
coedge $-1 $187 $71 $184 $188 forward $44 $-1 #
coedge $-1 $71 $187 $189 $190 reversed $44 $-1 #
coedge $-1 $191 $185 $71 $115 forward $180 $-1 #
edge $-1 $192 8.4762105469180966 $193 22.453767867831502 $114 $194 forward 7 unknown #
face $-1 $195 $196 $26 $-1 $197 reversed single #
loop $-1 $-1 $198 $72 #
plane-surface $-1 0 37.918757075206301 0 0 -1 0 0 0 -1 forward_v I I I I #
coedge $-1 $199 $200 $201 $202 reversed $73 $-1 #
coedge $-1 $121 $75 $203 $204 reversed $47 $-1 #
coedge $-1 $75 $120 $199 $205 reversed $47 $-1 #
coedge $-1 $201 $206 $75 $123 forward $207 $-1 #
edge $-1 $208 14.053043431733954 $209 21.388747940969893 $122 $210 forward 7 unknown #
loop $-1 $-1 $129 $76 #
plane-surface $-1 -72.193365276039913 34.63187460693031 4.4255102725425246 -0.69465837861970381 0 0.71933979245794832 0.71933979245794832 0 0.69465837861970381 forward_v I I I I #
loop $-1 $-1 $211 $49 #
coedge $-1 $127 $127 $128 $212 reversed $77 $-1 #
coedge $-1 $128 $128 $127 $212 forward $79 $-1 #
coedge $-1 $129 $129 $80 $130 forward $124 $-1 #
edge $-1 $213 0 $213 6.2831853071796004 $129 $214 forward 7 unknown #
loop $-1 $-1 $136 $81 #
plane-surface $-1 -72.193365276039913 34.63187460693031 4.4255102725425246 -0.69465837861970381 0 0.71933979245794832 0.71933979245794832 0 0.69465837861970381 forward_v I I I I #
loop $-1 $-1 $215 $52 #
coedge $-1 $134 $134 $135 $216 reversed $82 $-1 #
coedge $-1 $135 $135 $134 $216 forward $84 $-1 #
coedge $-1 $136 $136 $85 $137 forward $131 $-1 #
edge $-1 $217 0 $217 6.2831853071796004 $136 $218 forward 7 unknown #
face $-1 $219 $220 $29 $-1 $221 forward single #
loop $-1 $-1 $222 $86 #
plane-surface $-1 82.88003891257938 26.144452089010272 208.00848738025613 0 1 0 0.74314483375859142 0 0.66913059716165679 forward_v I I I I #
coedge $-1 $223 $224 $225 $226 reversed $87 $-1 #
coedge $-1 $143 $89 $227 $228 reversed $56 $-1 #
coedge $-1 $89 $142 $223 $229 reversed $56 $-1 #
coedge $-1 $225 $230 $89 $145 forward $220 $-1 #
edge $-1 $231 -30.753345819750223 $232 -24.076973656604252 $144 $233 forward 7 unknown #
loop $-1 $-1 $151 $90 #
plane-surface $-1 -24.420213960492518 29.444549673037073 111.39490814372373 0.74314483375859142 0 0.66913059716165679 0.66913059716165679 0 -0.74314483375859142 forward_v I I I I #
loop $-1 $-1 $234 $58 #
coedge $-1 $149 $149 $150 $235 reversed $91 $-1 #
coedge $-1 $150 $150 $149 $235 forward $93 $-1 #
coedge $-1 $151 $151 $94 $152 forward $146 $-1 #
edge $-1 $236 0 $236 6.2831853071796004 $151 $237 forward 7 unknown #
loop $-1 $-1 $158 $95 #
plane-surface $-1 -24.420213960492518 29.444549673037073 111.39490814372373 0.74314483375859142 0 0.66913059716165679 0.66913059716165679 0 -0.74314483375859142 forward_v I I I I #
loop $-1 $-1 $238 $61 #
coedge $-1 $156 $156 $157 $239 reversed $96 $-1 #
coedge $-1 $157 $157 $156 $239 forward $98 $-1 #
coedge $-1 $158 $158 $99 $159 forward $153 $-1 #
edge $-1 $240 0 $240 6.2831853071796004 $158 $241 forward 7 unknown #
face $-1 $242 $243 $24 $-1 $244 reversed single #
loop $-1 $-1 $245 $100 #
plane-surface $-1 -72.193365276039913 0 0 1 0 0 0 0 -1 forward_v I I I I #
coedge $-1 $246 $171 $247 $248 forward $101 $-1 #
coedge $-1 $249 $103 $246 $250 forward $65 $-1 #
coedge $-1 $103 $249 $251 $252 forward $65 $-1 #
coedge $-1 $174 $173 $103 $167 reversed $175 $-1 #
edge $-1 $253 -37.918757075206301 $254 37.918757075206301 $166 $255 forward 7 unknown #
coedge $-1 $105 $104 $256 $257 forward $41 $-1 #
coedge $-1 $258 $259 $104 $170 reversed $243 $-1 #
edge $-1 $177 -72.193365276039913 $260 72.193365276039913 $169 $261 forward 7 unknown #
coedge $-1 $163 $262 $105 $172 reversed $101 $-1 #
edge $-1 $263 -72.193365276039913 $176 72.193365276039913 $171 $264 forward 7 unknown #
coedge $-1 $166 $106 $262 $265 forward $175 $-1 #
coedge $-1 $106 $166 $258 $266 reversed $175 $-1 #
loop $-1 $-1 $173 $242 #
vertex $-1 $107 $267 #
vertex $-1 $107 $268 #
straight-curve $-1 72.193365276039913 0 11.50951793324341 0 1 0 I I #
face $-1 $269 $270 $25 $-1 $271 reversed single #
loop $-1 $-1 $185 $108 #
plane-surface $-1 72.193365276039913 0 0 -1 0 0 0 0 1 forward_v I I I I #
coedge $-1 $272 $273 $183 $274 forward $109 $-1 #
coedge $-1 $275 $111 $182 $274 reversed $69 $-1 #
coedge $-1 $111 $275 $112 $188 reversed $69 $-1 #
coedge $-1 $114 $276 $111 $186 forward $180 $-1 #
edge $-1 $277 -7.4129381341792735 $192 -0.78022146394900016 $185 $278 forward 7 unknown #
coedge $-1 $113 $112 $279 $280 reversed $44 $-1 #
edge $-1 $192 -72.193365276039913 $281 72.193365276039913 $184 $282 forward 7 unknown #
coedge $-1 $283 $284 $113 $190 forward $270 $-1 #
edge $-1 $193 -72.193365276039913 $285 72.193365276039913 $189 $286 forward 7 unknown #
coedge $-1 $276 $114 $284 $287 forward $180 $-1 #
vertex $-1 $115 $288 #
vertex $-1 $287 $289 #
straight-curve $-1 72.193365276039913 -15.464989207374799 -4.876801263013137 0 -1 0 I I #
face $-1 $-1 $207 $26 $-1 $290 forward single #
loop $-1 $-1 $291 $116 #
plane-surface $-1 -72.193365276039913 0 0 1 0 0 0 0 -1 forward_v I I I I #
coedge $-1 $292 $293 $200 $294 forward $117 $-1 #
coedge $-1 $295 $119 $121 $205 forward $73 $-1 #
coedge $-1 $119 $295 $198 $294 reversed $73 $-1 #
coedge $-1 $296 $122 $119 $202 forward $207 $-1 #
edge $-1 $209 14.029054835189157 $297 20.602819771741153 $201 $298 forward 7 unknown #
coedge $-1 $299 $291 $120 $204 forward $196 $-1 #
edge $-1 $300 -49.718805258236145 $208 -42.634797597535261 $203 $301 forward 7 unknown #
edge $-1 $209 -10.197829434918653 $300 0 $121 $302 forward 7 unknown #
coedge $-1 $122 $296 $299 $303 forward $207 $-1 #
loop $-1 $-1 $201 $195 #
vertex $-1 $204 $304 #
vertex $-1 $123 $305 #
straight-curve $-1 -86.246408707773867 31.344992138654312 11.509517933243409 1 0 0 I I #
coedge $-1 $211 $211 $-1 $306 reversed $126 $-1 #
edge $-1 $307 0 $307 6.2831853071796004 $127 $308 forward 7 unknown #
vertex $-1 $130 $309 #
ellipse-curve $-1 -68.525513021421943 33.223210691954876 7.9675141028929639 -0.69465837861970381 0 0.71933979245794832 0.35966989622897416 0 0.3473291893098519 1 I I #
coedge $-1 $215 $215 $-1 $310 reversed $133 $-1 #
edge $-1 $311 0 $311 6.2831853071796004 $134 $312 forward 7 unknown #
vertex $-1 $137 $313 #
ellipse-curve $-1 -68.525513021421943 36.040538521905731 7.9675141028929639 -0.69465837861970381 0 0.71933979245794832 0.35966989622897416 0 0.3473291893098519 1 I I #
face $-1 $-1 $314 $29 $-1 $315 reversed single #
loop $-1 $-1 $144 $138 #
plane-surface $-1 0 0 11.50951793324341 0 0 1 1 0 0 forward_v I I I I #
coedge $-1 $316 $317 $318 $319 reversed $139 $-1 #
coedge $-1 $320 $141 $143 $229 forward $87 $-1 #
coedge $-1 $141 $320 $316 $321 forward $87 $-1 #
coedge $-1 $318 $144 $141 $226 forward $220 $-1 #
edge $-1 $232 -18.022372420545338 $322 -11.422177252491736 $225 $323 forward 7 unknown #
coedge $-1 $324 $325 $142 $228 forward $314 $-1 #
edge $-1 $326 -99.90958841947625 $231 -92.494725756884648 $227 $327 forward 7 unknown #
edge $-1 $232 134.4090487789461 $326 144.38673055207983 $143 $328 forward 7 unknown #
coedge $-1 $144 $318 $324 $329 forward $220 $-1 #
vertex $-1 $228 $330 #
vertex $-1 $145 $331 #
straight-curve $-1 41.44001945628969 32.744647257063875 11.509517933243416 -1 0 0 I I #
coedge $-1 $234 $234 $-1 $332 reversed $148 $-1 #
edge $-1 $333 0 $333 6.2831853071796004 $149 $334 forward 7 unknown #
vertex $-1 $152 $335 #
ellipse-curve $-1 68.855179194466913 28.030222137025589 7.8020866019476172 0.74314483375859142 0 0.66913059716165679 0.3345652985808284 0 -0.37157241687929571 1 I I #
coedge $-1 $238 $238 $-1 $336 reversed $155 $-1 #
edge $-1 $337 0 $337 6.2831853071796004 $156 $338 forward 7 unknown #
vertex $-1 $159 $339 #
ellipse-curve $-1 68.855179194466913 30.858877209048558 7.8020866019476172 0.74314483375859142 0 0.66913059716165679 0.3345652985808284 0 -0.37157241687929571 1 I I #
face $-1 $-1 $175 $24 $-1 $340 reversed single #
loop $-1 $-1 $258 $160 #
plane-surface $-1 0 37.918757075206301 0 0 -1 0 0 0 -1 forward_v I I I I #
coedge $-1 $341 $256 $259 $342 forward $161 $-1 #
coedge $-1 $262 $163 $164 $250 reversed $101 $-1 #
coedge $-1 $256 $341 $163 $248 reversed $161 $-1 #
edge $-1 $263 -11.50951793324341 $343 11.50951793324341 $247 $344 forward 7 unknown #
coedge $-1 $165 $164 $341 $345 forward $65 $-1 #
edge $-1 $254 -72.193365276039913 $343 72.193365276039913 $246 $346 forward 7 unknown #
coedge $-1 $259 $258 $165 $252 reversed $243 $-1 #
edge $-1 $347 -72.193365276039913 $253 72.193365276039913 $251 $348 forward 7 unknown #
vertex $-1 $167 $349 #
vertex $-1 $265 $350 #
straight-curve $-1 72.193365276039913 0 -11.50951793324341 0 -1 0 I I #
coedge $-1 $245 $247 $168 $257 reversed $161 $-1 #
edge $-1 $260 -37.918757075206301 $263 37.918757075206301 $256 $351 forward 7 unknown #
coedge $-1 $251 $169 $174 $266 forward $243 $-1 #
coedge $-1 $169 $251 $245 $342 reversed $243 $-1 #
vertex $-1 $170 $352 #
straight-curve $-1 0 37.918757075206301 11.50951793324341 -1 0 0 I I #
coedge $-1 $171 $246 $173 $265 reversed $101 $-1 #
vertex $-1 $257 $353 #
straight-curve $-1 0 -37.918757075206301 11.50951793324341 1 0 0 I I #
edge $-1 $176 -11.50951793324341 $254 11.50951793324341 $173 $354 forward 7 unknown #
edge $-1 $177 -11.50951793324341 $253 11.50951793324341 $174 $355 forward 7 unknown #
point $-1 72.193365276039913 -37.918757075206301 11.50951793324341 #
point $-1 72.193365276039913 37.918757075206301 11.50951793324341 #
face $-1 $-1 $356 $25 $-1 $357 reversed single #
loop $-1 $-1 $189 $179 #
plane-surface $-1 0 -37.918757075206301 0 0 1 0 0 0 1 forward_v I I I I #
coedge $-1 $358 $182 $276 $359 forward $109 $-1 #
coedge $-1 $182 $358 $360 $361 forward $109 $-1 #
edge $-1 $362 -72.193365276039913 $277 72.193365276039913 $182 $363 forward 7 unknown #
coedge $-1 $184 $183 $364 $365 reversed $69 $-1 #
coedge $-1 $185 $191 $272 $359 reversed $180 $-1 #
vertex $-1 $359 $366 #
straight-curve $-1 72.193365276039913 -23.941199754292896 -4.0965797990641368 0 0 1 I I #
coedge $-1 $364 $367 $187 $280 forward $356 $-1 #
edge $-1 $285 -22.453767867831502 $281 -8.4762105469180966 $279 $368 forward 7 unknown #
vertex $-1 $280 $369 #
straight-curve $-1 0 -23.941199754292896 -4.876801263013137 -1 0 0 I I #
coedge $-1 $370 $189 $367 $371 forward $270 $-1 #
coedge $-1 $189 $370 $191 $287 reversed $270 $-1 #
vertex $-1 $371 $372 #
straight-curve $-1 0 -37.918757075206301 -4.876801263013137 -1 0 0 I I #
edge $-1 $193 4.876801263013137 $373 11.50951793324341 $191 $374 forward 7 unknown #
point $-1 72.193365276039913 -23.941199754292896 -4.876801263013137 #
point $-1 72.193365276039913 -37.918757075206301 -4.876801263013137 #
plane-surface $-1 0 0 11.50951793324341 0 0 1 1 0 0 forward_v I I I I #
coedge $-1 $203 $375 $295 $376 forward $196 $-1 #
coedge $-1 $293 $198 $375 $377 reversed $117 $-1 #
coedge $-1 $198 $292 $296 $378 reversed $117 $-1 #
edge $-1 $297 14.230841867090433 $379 24.428671302009086 $198 $380 forward 7 unknown #
coedge $-1 $200 $199 $291 $376 reversed $73 $-1 #
coedge $-1 $206 $201 $293 $378 forward $207 $-1 #
vertex $-1 $378 $381 #
straight-curve $-1 -64.85766076680396 17.315937303465155 11.50951793324341 0 1 0 I I #
coedge $-1 $375 $203 $206 $303 reversed $196 $-1 #
vertex $-1 $204 $382 #
straight-curve $-1 -72.193365276039913 31.344992138654312 54.14431553077867 0 0 1 I I #
straight-curve $-1 -72.193365276039913 31.344992138654312 4.4255102725425246 -0.71933979245794832 0 -0.69465837861970381 I I #
edge $-1 $383 -37.918757075206301 $208 -31.344992138654312 $299 $384 forward 7 unknown #
point $-1 -72.193365276039913 31.344992138654312 11.50951793324341 #
point $-1 -64.857660766803974 31.344992138654312 11.50951793324341 #
edge $-1 $385 1 $385 0 $211 $-1 forward 7 unknown #
vertex $-1 $212 $386 #
ellipse-curve $-1 -67.692599245110401 33.223210691954876 7.1050066583303275 -0.69465837861970381 0 0.71933979245794832 0.35966989622897416 0 0.3473291893098519 1 I I #
point $-1 -68.165843125192964 33.223210691954876 8.3148432922028217 #
edge $-1 $387 1 $387 0 $215 $-1 forward 7 unknown #
vertex $-1 $216 $388 #
ellipse-curve $-1 -67.692599245110401 36.040538521905731 7.1050066583303275 -0.69465837861970381 0 0.71933979245794832 0.35966989622897416 0 0.3473291893098519 1 I I #
point $-1 -68.165843125192964 36.040538521905731 8.3148432922028217 #
loop $-1 $-1 $227 $219 #
plane-surface $-1 72.193365276039913 0 0 -1 0 0 0 0 1 forward_v I I I I #
coedge $-1 $317 $222 $224 $321 reversed $139 $-1 #
coedge $-1 $222 $316 $389 $390 reversed $139 $-1 #
coedge $-1 $230 $225 $222 $319 forward $220 $-1 #
edge $-1 $322 24.076973656604252 $391 30.753345819750223 $318 $392 forward 7 unknown #
coedge $-1 $224 $223 $325 $393 reversed $87 $-1 #
edge $-1 $394 -144.38673055207983 $322 -134.4090487789461 $316 $395 forward 7 unknown #
vertex $-1 $226 $396 #
straight-curve $-1 65.516993112893942 14.722274836518537 11.509517933243416 0 -1 0 I I #
coedge $-1 $389 $227 $230 $329 reversed $314 $-1 #
coedge $-1 $227 $389 $320 $393 forward $314 $-1 #
vertex $-1 $228 $397 #
straight-curve $-1 72.193365276039913 32.744647257063875 104.00424369012806 0 0 1 I I #
straight-curve $-1 -24.420213960492518 32.744647257063875 111.39490814372373 0.66913059716165679 0 -0.74314483375859142 I I #
edge $-1 $391 26.144452089010272 $231 32.744647257063875 $324 $398 forward 7 unknown #
point $-1 72.193365276039913 32.744647257063875 11.50951793324341 #
point $-1 65.516993112893942 32.744647257063875 11.509517933243416 #
edge $-1 $399 1 $399 0 $234 $-1 forward 7 unknown #
vertex $-1 $235 $400 #
ellipse-curve $-1 67.959944475910078 28.030222137025589 6.9960136608251053 0.74314483375859142 0 0.66913059716165679 0.3345652985808284 0 -0.37157241687929571 1 I I #
point $-1 69.189744493047769 28.030222137025589 7.4305141850683425 #
edge $-1 $401 1 $401 0 $238 $-1 forward 7 unknown #
vertex $-1 $239 $402 #
ellipse-curve $-1 67.959944475910078 30.858877209048558 6.9960136608251053 0.74314483375859142 0 0.66913059716165679 0.3345652985808284 0 -0.37157241687929571 1 I I #
point $-1 69.189744493047769 30.858877209048558 7.4305141850683425 #
plane-surface $-1 72.193365276039913 0 0 -1 0 0 0 0 1 forward_v I I I I #
coedge $-1 $247 $245 $249 $345 reversed $161 $-1 #
edge $-1 $260 -11.50951793324341 $347 11.50951793324341 $259 $403 forward 7 unknown #
vertex $-1 $345 $404 #
straight-curve $-1 -72.193365276039913 -37.918757075206301 0 0 0 -1 I I #
edge $-1 $343 -37.918757075206301 $347 37.918757075206301 $341 $405 forward 7 unknown #
straight-curve $-1 0 -37.918757075206301 -11.50951793324341 -1 0 0 I I #
vertex $-1 $252 $406 #
straight-curve $-1 0 37.918757075206301 -11.50951793324341 1 0 0 I I #
point $-1 72.193365276039913 37.918757075206301 -11.50951793324341 #
point $-1 72.193365276039913 -37.918757075206301 -11.50951793324341 #
straight-curve $-1 -72.193365276039913 0 11.50951793324341 0 -1 0 I I #
point $-1 -72.193365276039913 37.918757075206301 11.50951793324341 #
point $-1 -72.193365276039913 -37.918757075206301 11.50951793324341 #
straight-curve $-1 72.193365276039913 -37.918757075206301 0 0 0 -1 I I #
straight-curve $-1 72.193365276039913 37.918757075206301 0 0 0 -1 I I #
loop $-1 $-1 $364 $269 #
plane-surface $-1 -72.193365276039913 0 0 1 0 0 0 0 -1 forward_v I I I I #
coedge $-1 $273 $272 $370 $407 forward $109 $-1 #
edge $-1 $277 23.941199754292896 $373 37.918757075206301 $276 $408 forward 7 unknown #
coedge $-1 $367 $364 $273 $361 reversed $356 $-1 #
edge $-1 $409 -37.918757075206301 $362 -23.941199754292896 $360 $410 forward 7 unknown #
vertex $-1 $365 $411 #
straight-curve $-1 0 -23.941199754292896 -11.50951793324341 1 0 0 I I #
coedge $-1 $360 $279 $275 $365 forward $356 $-1 #
edge $-1 $281 0.78022146394900016 $362 7.4129381341792735 $364 $412 forward 7 unknown #
point $-1 72.193365276039913 -23.941199754292896 -11.50951793324341 #
coedge $-1 $279 $360 $283 $371 reversed $356 $-1 #
straight-curve $-1 -72.193365276039913 -15.464989207374799 -4.876801263013137 0 1 0 I I #
point $-1 -72.193365276039913 -23.941199754292896 -4.876801263013137 #
coedge $-1 $284 $283 $358 $407 reversed $270 $-1 #
edge $-1 $285 4.876801263013137 $409 11.50951793324341 $367 $413 forward 7 unknown #
point $-1 -72.193365276039913 -37.918757075206301 -4.876801263013137 #
vertex $-1 $287 $414 #
straight-curve $-1 72.193365276039913 -37.918757075206301 0 0 0 -1 I I #
coedge $-1 $291 $299 $292 $377 forward $196 $-1 #
edge $-1 $379 -20.602819771741153 $300 -14.029054835189157 $291 $415 forward 7 unknown #
edge $-1 $383 -11.50951793324341 $379 -4.4255102725425246 $292 $416 forward 7 unknown #
edge $-1 $297 64.857660766803974 $383 72.193365276039913 $293 $417 forward 7 unknown #
vertex $-1 $294 $418 #
straight-curve $-1 -54.620849931629252 37.918757075206301 21.395091471029843 -0.71933979245794832 0 -0.69465837861970381 I I #
point $-1 -64.857660766803974 37.918757075206308 11.50951793324341 #
point $-1 -72.193365276039913 31.344992138654312 4.4255102725425246 #
vertex $-1 $378 $419 #
straight-curve $-1 -72.193365276039913 0 11.50951793324341 0 -1 0 I I #
vertex $-1 $306 $420 #
point $-1 -67.332929348881436 33.223210691954876 7.45233584764018 #
vertex $-1 $310 $421 #
point $-1 -67.332929348881436 36.040538521905731 7.45233584764018 #
coedge $-1 $325 $324 $317 $390 forward $314 $-1 #
edge $-1 $391 92.494725756884648 $394 99.90958841947625 $389 $422 forward 7 unknown #
vertex $-1 $329 $423 #
straight-curve $-1 41.44001945628969 26.144452089010272 11.509517933243416 1 0 0 I I #
edge $-1 $394 11.422177252491736 $326 18.022372420545338 $325 $424 forward 7 unknown #
vertex $-1 $393 $425 #
straight-curve $-1 -24.420213960492518 26.144452089010272 111.39490814372373 -0.66913059716165679 0 0.74314483375859142 I I #
point $-1 65.516993112893942 26.144452089010272 11.509517933243416 #
point $-1 72.193365276039913 32.744647257063875 4.0946552706518133 #
straight-curve $-1 72.193365276039913 0 11.50951793324341 0 1 0 I I #
vertex $-1 $332 $426 #
point $-1 68.294509774490905 28.030222137025589 6.6244412439458094 #
vertex $-1 $336 $427 #
point $-1 68.294509774490905 30.858877209048558 6.6244412439458094 #
straight-curve $-1 -72.193365276039913 37.918757075206301 0 0 0 -1 I I #
point $-1 -72.193365276039913 -37.918757075206301 -11.50951793324341 #
straight-curve $-1 -72.193365276039913 0 -11.50951793324341 0 1 0 I I #
point $-1 -72.193365276039913 37.918757075206301 -11.50951793324341 #
edge $-1 $373 -72.193365276039913 $409 72.193365276039913 $370 $428 forward 7 unknown #
straight-curve $-1 72.193365276039913 0 -11.50951793324341 0 -1 0 I I #
vertex $-1 $361 $429 #
straight-curve $-1 -72.193365276039913 0 -11.50951793324341 0 1 0 I I #
point $-1 -72.193365276039913 -23.941199754292896 -11.50951793324341 #
straight-curve $-1 -72.193365276039913 -23.941199754292896 -4.0965797990641368 0 0 -1 I I #
straight-curve $-1 -72.193365276039913 -37.918757075206301 0 0 0 -1 I I #
point $-1 72.193365276039913 -37.918757075206301 -11.50951793324341 #
straight-curve $-1 -72.193365276039913 17.315937303465155 4.4255102725425299 0 -1 0 I I #
straight-curve $-1 -72.193365276039913 37.918757075206301 0 0 0 -1 I I #
straight-curve $-1 0 37.918757075206301 11.50951793324341 -1 0 0 I I #
point $-1 -72.193365276039913 37.918757075206308 4.4255102725425246 #
point $-1 -72.193365276039913 37.918757075206301 11.50951793324341 #
point $-1 -67.345270055800555 33.223210691954876 6.7453367621013536 #
point $-1 -67.345270055800555 36.040538521905731 6.7453367621013536 #
straight-curve $-1 72.193365276039913 26.144452089010272 104.00424369012806 0 0 -1 I I #
point $-1 72.193365276039913 26.144452089010272 11.50951793324341 #
straight-curve $-1 72.193365276039913 14.722274836518537 4.0946552706518062 0 1 0 I I #
point $-1 72.193365276039913 26.144452089010272 4.0946552706518133 #
point $-1 67.588372059030775 28.030222137025589 6.6614483622442764 #
point $-1 67.588372059030775 30.858877209048558 6.6614483622442764 #
straight-curve $-1 0 -37.918757075206301 -11.50951793324341 -1 0 0 I I #
point $-1 -72.193365276039913 -37.918757075206301 -11.50951793324341 #
End-of-ACIS-data 