500 0 8 0           
7 Unknown 11 ACIS 5.0 NT 24 Fri Mar 26 17:21:32 1999 
-1 9.9999999999999995e-007 1e-010 
body $-1 $8 $-1 $9 #
body $-1 $10 $-1 $11 #
body $-1 $12 $-1 $13 #
body $-1 $14 $-1 $15 #
body $-1 $16 $-1 $17 #
body $-1 $18 $-1 $19 #
body $-1 $20 $-1 $21 #
body $-1 $22 $-1 $23 #
lump $-1 $-1 $24 $0 #
transform $-1 1 0 0 0 1 0 0 0 1 72.520523697622608 36.453918449157449 12.989329821008415 1 rotate no_reflect no_shear #
lump $-1 $-1 $25 $1 #
transform $-1 1 0 0 0 1 0 0 0 1 72.520523697622608 36.453918449157449 12.989329821008415 1 rotate no_reflect no_shear #
lump $-1 $-1 $26 $2 #
transform $-1 1 0 0 0 1 0 0 0 1 72.520523697622608 36.453918449157449 12.989329821008415 1 rotate no_reflect no_shear #
lump $-1 $-1 $27 $3 #
transform $-1 1 0 0 0 1 0 0 0 1 72.520523697622608 36.453918449157449 12.989329821008415 1 rotate no_reflect no_shear #
lump $-1 $-1 $28 $4 #
transform $-1 1 0 0 0 1 0 0 0 1 72.520523697622608 36.453918449157449 12.989329821008415 1 rotate no_reflect no_shear #
lump $-1 $-1 $29 $5 #
transform $-1 1 0 0 0 1 0 0 0 1 72.520523697622608 36.453918449157449 12.989329821008415 1 rotate no_reflect no_shear #
lump $-1 $-1 $30 $6 #
transform $-1 1 0 0 0 1 0 0 0 1 72.520523697622608 36.453918449157449 12.989329821008415 1 rotate no_reflect no_shear #
lump $-1 $-1 $31 $7 #
transform $-1 1 0 0 0 1 0 0 0 1 72.520523697622608 36.453918449157449 12.989329821008415 1 rotate no_reflect no_shear #
shell $-1 $-1 $-1 $32 $-1 $8 #
shell $-1 $-1 $-1 $33 $-1 $10 #
shell $-1 $-1 $-1 $34 $-1 $12 #
shell $-1 $-1 $-1 $35 $-1 $14 #
shell $-1 $-1 $-1 $36 $-1 $16 #
shell $-1 $-1 $-1 $37 $-1 $18 #
shell $-1 $-1 $-1 $38 $-1 $20 #
shell $-1 $-1 $-1 $39 $-1 $22 #
face $-1 $40 $41 $24 $-1 $42 forward single #
face $-1 $43 $44 $25 $-1 $45 reversed single #
face $-1 $46 $47 $26 $-1 $48 reversed single #
face $-1 $49 $50 $27 $-1 $51 forward single #
face $-1 $52 $53 $28 $-1 $54 forward single #
face $-1 $55 $56 $29 $-1 $57 reversed single #
face $-1 $58 $59 $30 $-1 $60 forward single #
face $-1 $61 $62 $31 $-1 $63 forward single #
face $-1 $64 $65 $24 $-1 $66 reversed single #
loop $-1 $-1 $67 $32 #
plane-surface $-1 0 0 12.989329821008415 0 0 1 1 0 0 forward_v I I I I #
face $-1 $68 $69 $25 $-1 $70 reversed single #
loop $-1 $-1 $71 $33 #
plane-surface $-1 -64.060330222455377 0 6.3741943964930261 0 0 1 1 0 0 forward_v I I I I #
face $-1 $72 $73 $26 $-1 $74 reversed single #
loop $-1 $-1 $75 $34 #
plane-surface $-1 -42.331376677101545 84.762389003050316 161.97697095213599 -1 0 0 0 0.69465837861970381 0.71933979245794832 forward_v I I I I #
face $-1 $76 $77 $27 $-1 $78 forward single #
loop $-1 $79 $80 $35 #
cone-surface $-1 -51.809062441520553 32.660685050734848 9.278008465224163 0 -0.69465837861970381 -0.71933979245794832 0.5 0 0 1 I I 0 1 0.5 forward I I I I #
face $-1 $81 $82 $28 $-1 $83 forward single #
loop $-1 $84 $85 $36 #
cone-surface $-1 -46.122450982869147 32.660685050734848 9.278008465224163 0 -0.69465837861970381 -0.71933979245794832 0.5 0 0 1 I I 0 1 0.5 forward I I I I #
face $-1 $86 $87 $29 $-1 $88 reversed single #
loop $-1 $-1 $89 $37 #
plane-surface $-1 62.05468410962645 -36.45391844915747 1.10724954710237 0 -0.6560590369687036 0.75470957328743171 1 0 0 forward_v I I I I #
face $-1 $90 $91 $30 $-1 $92 forward single #
loop $-1 $93 $94 $38 #
cone-surface $-1 57.569324286199517 -27.180310340561036 4.2422842352906311 0 0.6560590369687036 -0.75470957328743171 2.5 0 0 1 I I 0 1 2.5 forward I I I I #
face $-1 $95 $96 $31 $-1 $97 forward single #
loop $-1 $98 $99 $39 #
cone-surface $-1 66.540043933053383 -27.180310340561036 4.2422842352906311 0 0.6560590369687036 -0.75470957328743171 2.5 0 0 1 I I 0 1 2.5 forward I I I I #
face $-1 $100 $101 $24 $-1 $102 reversed single #
loop $-1 $-1 $103 $40 #
plane-surface $-1 0 0 -12.989329821008415 0 0 1 1 0 0 forward_v I I I I #
coedge $-1 $104 $105 $106 $107 forward $41 $-1 #
face $-1 $108 $109 $25 $-1 $110 reversed single #
loop $-1 $-1 $111 $43 #
plane-surface $-1 -55.600136747288147 0 9.6817621087507213 -1 0 0 0 0 1 forward_v I I I I #
coedge $-1 $112 $113 $114 $115 forward $44 $-1 #
face $-1 $116 $117 $26 $-1 $118 forward single #
loop $-1 $-1 $119 $46 #
plane-surface $-1 -48.965756712194846 -15.991589813834338 57.643174020956849 0 0.69465837861970381 0.71933979245794832 1 0 0 forward_v I I I I #
coedge $-1 $120 $121 $122 $123 reversed $47 $-1 #
face $-1 $-1 $124 $27 $-1 $125 forward single #
loop $-1 $126 $127 $49 #
cone-surface $-1 -51.809062441520553 31.796337065893432 8.3829499455778382 0 -0.69465837861970381 -0.71933979245794832 0.25 0 0 1 I I -0.70710678118654746 0.70710678118654746 0.25 forward I I I I #
loop $-1 $-1 $128 $35 #
coedge $-1 $80 $80 $129 $130 reversed $50 $-1 #
face $-1 $-1 $131 $28 $-1 $132 forward single #
loop $-1 $133 $134 $52 #
cone-surface $-1 -46.122450982869147 31.796337065893432 8.3829499455778382 0 -0.69465837861970381 -0.71933979245794832 0.25 0 0 1 I I -0.70710678118654746 0.70710678118654746 0.25 forward I I I I #
loop $-1 $-1 $135 $36 #
coedge $-1 $85 $85 $136 $137 reversed $53 $-1 #
face $-1 $138 $139 $29 $-1 $140 reversed single #
loop $-1 $-1 $141 $55 #
plane-surface $-1 51.588844521630286 -131.60940832421414 110.57111653593005 1 0 0 0 0.6560590369687036 -0.75470957328743171 forward_v I I I I #
coedge $-1 $142 $143 $144 $145 reversed $56 $-1 #
face $-1 $-1 $146 $30 $-1 $147 forward single #
loop $-1 $148 $149 $58 #
cone-surface $-1 57.569324286199517 -23.921013169420966 0.49289181991658992 0 0.6560590369687036 -0.75470957328743171 1.25 0 0 1 I I -0.70710678118654746 0.70710678118654746 1.25 forward I I I I #
loop $-1 $-1 $150 $38 #
coedge $-1 $94 $94 $151 $152 reversed $59 $-1 #
face $-1 $-1 $153 $31 $-1 $154 forward single #
loop $-1 $155 $156 $61 #
cone-surface $-1 66.540043933053383 -23.921013169420966 0.49289181991658992 0 0.6560590369687036 -0.75470957328743171 1.25 0 0 1 I I -0.70710678118654746 0.70710678118654746 1.25 forward I I I I #
loop $-1 $-1 $157 $39 #
coedge $-1 $99 $99 $158 $159 reversed $62 $-1 #
face $-1 $160 $161 $24 $-1 $162 reversed single #
loop $-1 $-1 $163 $64 #
plane-surface $-1 0 -36.453918449157449 0 0 1 0 0 0 1 forward_v I I I I #
coedge $-1 $164 $165 $166 $167 forward $65 $-1 #
coedge $-1 $168 $67 $169 $170 forward $41 $-1 #
coedge $-1 $67 $168 $171 $172 forward $41 $-1 #
coedge $-1 $173 $174 $67 $107 reversed $175 $-1 #
edge $-1 $176 -36.453918449157449 $177 36.453918449157449 $106 $178 forward 7 unknown #
face $-1 $179 $180 $25 $-1 $181 reversed single #
loop $-1 $-1 $182 $68 #
plane-surface $-1 0 36.453918449157449 0 0 -1 0 0 0 -1 forward_v I I I I #
coedge $-1 $114 $183 $184 $185 reversed $69 $-1 #
coedge $-1 $186 $71 $187 $188 reversed $44 $-1 #
coedge $-1 $71 $186 $189 $190 reversed $44 $-1 #
coedge $-1 $191 $111 $71 $115 reversed $69 $-1 #
edge $-1 $192 -36.453918449157449 $193 36.453918449157449 $114 $194 forward 7 unknown #
face $-1 $195 $196 $26 $-1 $197 forward single #
loop $-1 $-1 $198 $72 #
plane-surface $-1 -55.600136747288147 0 9.6817621087507213 -1 0 0 0 0 1 forward_v I I I I #
coedge $-1 $199 $200 $201 $202 reversed $73 $-1 #
coedge $-1 $121 $75 $203 $204 reversed $47 $-1 #
coedge $-1 $75 $120 $199 $205 reversed $47 $-1 #
coedge $-1 $201 $206 $75 $123 forward $207 $-1 #
edge $-1 $208 67.999155655059582 $209 73.991351223564379 $122 $210 forward 7 unknown #
loop $-1 $-1 $129 $76 #
plane-surface $-1 -48.965756712194846 -15.991589813834338 57.643174020956849 0 0.69465837861970381 0.71933979245794832 1 0 0 forward_v I I I I #
loop $-1 $-1 $211 $49 #
coedge $-1 $127 $127 $128 $212 reversed $77 $-1 #
coedge $-1 $128 $128 $127 $212 forward $79 $-1 #
coedge $-1 $129 $129 $80 $130 forward $124 $-1 #
edge $-1 $213 -5.2865886338522674e-015 $213 6.2831853071795951 $129 $214 forward 7 unknown #
loop $-1 $-1 $136 $81 #
plane-surface $-1 -48.965756712194846 -15.991589813834338 57.643174020956849 0 0.69465837861970381 0.71933979245794832 1 0 0 forward_v I I I I #
loop $-1 $-1 $215 $52 #
coedge $-1 $134 $134 $135 $216 reversed $82 $-1 #
coedge $-1 $135 $135 $134 $216 forward $84 $-1 #
coedge $-1 $136 $136 $85 $137 forward $131 $-1 #
edge $-1 $217 -5.2865886338522674e-015 $217 6.2831853071795951 $136 $218 forward 7 unknown #
face $-1 $219 $220 $29 $-1 $221 forward single #
loop $-1 $-1 $222 $86 #
plane-surface $-1 72.520523697622608 0 0 -1 0 0 0 0 1 forward_v I I I I #
coedge $-1 $223 $224 $225 $226 reversed $87 $-1 #
coedge $-1 $227 $89 $222 $228 reversed $56 $-1 #
coedge $-1 $89 $227 $223 $229 forward $56 $-1 #
coedge $-1 $225 $230 $89 $145 forward $220 $-1 #
edge $-1 $231 -41.493181642809397 $232 -20.561502466817061 $144 $233 forward 7 unknown #
loop $-1 $-1 $151 $90 #
plane-surface $-1 62.05468410962645 -36.45391844915747 1.10724954710237 0 -0.6560590369687036 0.75470957328743171 1 0 0 forward_v I I I I #
loop $-1 $-1 $234 $58 #
coedge $-1 $149 $149 $150 $235 reversed $91 $-1 #
coedge $-1 $150 $150 $149 $235 forward $93 $-1 #
coedge $-1 $151 $151 $94 $152 forward $146 $-1 #
edge $-1 $236 6.0806607204738273e-016 $236 6.2831853071796013 $151 $237 forward 7 unknown #
loop $-1 $-1 $158 $95 #
plane-surface $-1 62.05468410962645 -36.45391844915747 1.10724954710237 0 -0.6560590369687036 0.75470957328743171 1 0 0 forward_v I I I I #
loop $-1 $-1 $238 $61 #
coedge $-1 $156 $156 $157 $239 reversed $96 $-1 #
coedge $-1 $157 $157 $156 $239 forward $98 $-1 #
coedge $-1 $158 $158 $99 $159 forward $153 $-1 #
edge $-1 $240 6.0806607204738273e-016 $240 6.2831853071796013 $158 $241 forward 7 unknown #
face $-1 $242 $243 $24 $-1 $244 reversed single #
loop $-1 $-1 $245 $100 #
plane-surface $-1 -72.520523697622608 0 0 1 0 0 0 0 -1 forward_v I I I I #
coedge $-1 $246 $171 $247 $248 forward $101 $-1 #
coedge $-1 $249 $103 $246 $250 forward $65 $-1 #
coedge $-1 $103 $249 $251 $252 forward $65 $-1 #
coedge $-1 $174 $173 $103 $167 reversed $175 $-1 #
edge $-1 $253 -36.453918449157449 $254 36.453918449157449 $166 $255 forward 7 unknown #
coedge $-1 $105 $104 $256 $257 forward $41 $-1 #
coedge $-1 $258 $259 $104 $170 reversed $243 $-1 #
edge $-1 $177 -72.520523697622608 $260 72.520523697622608 $169 $261 forward 7 unknown #
coedge $-1 $163 $262 $105 $172 reversed $101 $-1 #
edge $-1 $263 -72.520523697622608 $176 72.520523697622608 $171 $264 forward 7 unknown #
coedge $-1 $166 $106 $262 $265 forward $175 $-1 #
coedge $-1 $106 $166 $258 $266 reversed $175 $-1 #
loop $-1 $-1 $173 $242 #
vertex $-1 $107 $267 #
vertex $-1 $107 $268 #
straight-curve $-1 72.520523697622608 0 12.989329821008415 0 1 0 I I #
face $-1 $269 $270 $25 $-1 $271 forward single #
loop $-1 $-1 $272 $108 #
plane-surface $-1 -72.520523697622608 0 0 1 0 0 0 0 -1 forward_v I I I I #
coedge $-1 $189 $273 $191 $274 forward $109 $-1 #
coedge $-1 $111 $191 $275 $276 reversed $69 $-1 #
coedge $-1 $277 $187 $111 $185 forward $278 $-1 #
edge $-1 $193 1.5333133421176655 $279 8.1484487666330558 $184 $280 forward 7 unknown #
coedge $-1 $113 $112 $272 $281 reversed $44 $-1 #
coedge $-1 $184 $282 $112 $188 forward $278 $-1 #
edge $-1 $283 -40.490358586394919 $193 -23.569971636060458 $187 $284 forward 7 unknown #
coedge $-1 $285 $182 $113 $190 forward $109 $-1 #
edge $-1 $192 23.569971636060458 $286 40.490358586394919 $189 $287 forward 7 unknown #
coedge $-1 $183 $114 $182 $274 reversed $69 $-1 #
vertex $-1 $190 $288 #
vertex $-1 $188 $289 #
straight-curve $-1 -55.600136747288147 0 6.3741943964930261 0 -1 0 I I #
face $-1 $-1 $207 $26 $-1 $290 reversed single #
loop $-1 $-1 $291 $116 #
plane-surface $-1 0 0 12.989329821008415 0 0 1 1 0 0 forward_v I I I I #
coedge $-1 $292 $293 $200 $294 forward $117 $-1 #
coedge $-1 $295 $119 $121 $205 forward $73 $-1 #
coedge $-1 $119 $295 $198 $294 reversed $73 $-1 #
coedge $-1 $296 $122 $119 $202 forward $207 $-1 #
edge $-1 $209 17.848498321004122 $297 31.117258391190724 $201 $298 forward 7 unknown #
coedge $-1 $299 $291 $120 $204 forward $196 $-1 #
edge $-1 $300 -12.132376068839925 $208 -5.9272760523677093 $203 $301 forward 7 unknown #
edge $-1 $209 -72.907836898314898 $300 -64.281732682295242 $121 $302 forward 7 unknown #
coedge $-1 $122 $296 $299 $303 reversed $207 $-1 #
loop $-1 $-1 $201 $195 #
vertex $-1 $303 $304 #
vertex $-1 $123 $305 #
straight-curve $-1 -42.331376677101545 36.453918449157449 80.988485476067993 0 0 -1 I I #
coedge $-1 $211 $211 $-1 $306 reversed $126 $-1 #
edge $-1 $307 0 $307 6.2831853071796004 $127 $308 forward 7 unknown #
vertex $-1 $130 $309 #
ellipse-curve $-1 -51.809062441520553 33.351368440921341 9.9932320367560052 0 0.69465837861970381 0.71933979245794832 0.5 0 0 1 I I #
coedge $-1 $215 $215 $-1 $310 reversed $133 $-1 #
edge $-1 $311 0 $311 6.2831853071796004 $134 $312 forward 7 unknown #
vertex $-1 $137 $313 #
ellipse-curve $-1 -46.122450982869147 33.351368440921341 9.9932320367560052 0 0.69465837861970381 0.71933979245794832 0.5 0 0 1 I I #
face $-1 $-1 $314 $29 $-1 $315 reversed single #
loop $-1 $-1 $144 $138 #
plane-surface $-1 0 0 12.989329821008415 0 0 1 1 0 0 forward_v I I I I #
coedge $-1 $316 $317 $142 $228 forward $139 $-1 #
coedge $-1 $224 $141 $143 $229 reversed $87 $-1 #
coedge $-1 $141 $223 $318 $319 reversed $87 $-1 #
coedge $-1 $320 $144 $141 $226 forward $220 $-1 #
edge $-1 $232 -43.019555180284023 $321 -29.350785712949623 $225 $322 forward 7 unknown #
coedge $-1 $143 $142 $323 $324 reversed $56 $-1 #
edge $-1 $325 -13.392850082931201 $231 4.7184472308086365 $222 $326 forward 7 unknown #
edge $-1 $327 2.8178574829950307e-014 $232 18.111297313739865 $223 $328 forward 7 unknown #
coedge $-1 $144 $320 $316 $329 forward $220 $-1 #
vertex $-1 $145 $330 #
vertex $-1 $145 $331 #
straight-curve $-1 31.027342054813225 -22.785148981823045 12.989329821008415 -1 0 0 I I #
coedge $-1 $234 $234 $-1 $332 reversed $148 $-1 #
edge $-1 $333 0 $333 6.2831853071796004 $149 $334 forward 7 unknown #
vertex $-1 $152 $335 #
ellipse-curve $-1 57.569324286199517 -29.619533715490245 7.0482896840554048 0 -0.6560590369687036 0.75470957328743171 2.5 0 0 1 I I #
coedge $-1 $238 $238 $-1 $336 reversed $155 $-1 #
edge $-1 $337 0 $337 6.2831853071796004 $156 $338 forward 7 unknown #
vertex $-1 $159 $339 #
ellipse-curve $-1 66.540043933053383 -29.619533715490245 7.0482896840554048 0 -0.6560590369687036 0.75470957328743171 2.5 0 0 1 I I #
face $-1 $-1 $175 $24 $-1 $340 reversed single #
loop $-1 $-1 $258 $160 #
plane-surface $-1 0 36.453918449157449 0 0 -1 0 0 0 -1 forward_v I I I I #
coedge $-1 $341 $256 $259 $342 forward $161 $-1 #
coedge $-1 $262 $163 $164 $250 reversed $101 $-1 #
coedge $-1 $256 $341 $163 $248 reversed $161 $-1 #
edge $-1 $263 -12.989329821008415 $343 12.989329821008415 $247 $344 forward 7 unknown #
coedge $-1 $165 $164 $341 $345 forward $65 $-1 #
edge $-1 $254 -72.520523697622608 $343 72.520523697622608 $246 $346 forward 7 unknown #
coedge $-1 $259 $258 $165 $252 reversed $243 $-1 #
edge $-1 $347 -72.520523697622608 $253 72.520523697622608 $251 $348 forward 7 unknown #
vertex $-1 $167 $349 #
vertex $-1 $265 $350 #
straight-curve $-1 72.520523697622608 0 -12.989329821008415 0 -1 0 I I #
coedge $-1 $245 $247 $168 $257 reversed $161 $-1 #
edge $-1 $260 -36.453918449157449 $263 36.453918449157449 $256 $351 forward 7 unknown #
coedge $-1 $251 $169 $174 $266 forward $243 $-1 #
coedge $-1 $169 $251 $245 $342 reversed $243 $-1 #
vertex $-1 $170 $352 #
straight-curve $-1 0 36.453918449157449 12.989329821008415 -1 0 0 I I #
coedge $-1 $171 $246 $173 $265 reversed $101 $-1 #
vertex $-1 $257 $353 #
straight-curve $-1 0 -36.453918449157449 12.989329821008415 1 0 0 I I #
edge $-1 $176 -12.989329821008415 $254 12.989329821008415 $173 $354 forward 7 unknown #
edge $-1 $177 -12.989329821008415 $253 12.989329821008415 $174 $355 forward 7 unknown #
point $-1 72.520523697622608 -36.453918449157449 12.989329821008415 #
point $-1 72.520523697622608 36.453918449157449 12.989329821008415 #
face $-1 $-1 $278 $25 $-1 $356 reversed single #
loop $-1 $-1 $275 $179 #
plane-surface $-1 0 0 12.989329821008415 0 0 1 1 0 0 forward_v I I I I #
coedge $-1 $357 $358 $186 $281 forward $180 $-1 #
coedge $-1 $182 $285 $359 $360 reversed $109 $-1 #
edge $-1 $361 -8.1484487666330558 $192 -1.5333133421176655 $182 $362 forward 7 unknown #
coedge $-1 $359 $363 $183 $276 forward $270 $-1 #
edge $-1 $279 -36.453918449157449 $361 36.453918449157449 $275 $364 forward 7 unknown #
coedge $-1 $282 $184 $363 $365 reversed $278 $-1 #
loop $-1 $-1 $184 $269 #
vertex $-1 $185 $366 #
straight-curve $-1 -55.600136747288147 -36.453918449157449 4.8408810543753606 0 0 1 I I #
edge $-1 $286 -36.453918449157449 $283 36.453918449157449 $272 $367 forward 7 unknown #
coedge $-1 $187 $277 $357 $368 forward $278 $-1 #
vertex $-1 $281 $369 #
straight-curve $-1 -32.030165111227689 -36.453918449157449 6.3741943964930261 1 0 0 I I #
coedge $-1 $273 $189 $358 $370 reversed $109 $-1 #
vertex $-1 $281 $371 #
straight-curve $-1 -32.030165111227689 36.453918449157449 6.3741943964930261 -1 0 0 I I #
point $-1 -55.600136747288147 36.453918449157449 6.3741943964930261 #
point $-1 -55.600136747288147 -36.453918449157449 6.3741943964930261 #
plane-surface $-1 0 36.453918449157449 0 0 -1 0 0 0 -1 forward_v I I I I #
coedge $-1 $203 $372 $295 $373 forward $196 $-1 #
coedge $-1 $293 $198 $372 $374 reversed $117 $-1 #
coedge $-1 $198 $292 $296 $375 reversed $117 $-1 #
edge $-1 $297 -50.497745131814341 $376 -41.871640915794693 $198 $377 forward 7 unknown #
coedge $-1 $200 $199 $291 $373 reversed $73 $-1 #
coedge $-1 $206 $201 $293 $375 forward $207 $-1 #
vertex $-1 $375 $378 #
straight-curve $-1 -24.482878356097423 36.453918449157449 6.9971342525036029 -1 0 0 I I #
coedge $-1 $372 $203 $206 $303 forward $196 $-1 #
vertex $-1 $204 $379 #
straight-curve $-1 -42.331376677101545 42.381194501525158 12.989329821008411 0 1 0 I I #
straight-curve $-1 -42.331376677101545 -15.991589813834338 57.643174020956849 0 -0.71933979245794832 0.69465837861970381 I I #
edge $-1 $208 42.331376677101545 $380 55.600136747288147 $206 $381 forward 7 unknown #
point $-1 -42.331376677101545 36.453918449157449 12.989329821008415 #
point $-1 -42.331376677101545 36.453918449157449 6.9971342525036064 #
edge $-1 $382 1 $382 0 $211 $-1 forward 7 unknown #
vertex $-1 $212 $383 #
ellipse-curve $-1 -51.809062441520553 31.970001660548359 8.5627848936923261 0 0.69465837861970381 0.71933979245794832 0.5 0 0 1 I I #
point $-1 -51.309062441520553 33.351368440921334 9.9932320367560017 #
edge $-1 $384 1 $384 0 $215 $-1 forward 7 unknown #
vertex $-1 $216 $385 #
ellipse-curve $-1 -46.122450982869147 31.970001660548359 8.5627848936923261 0 0.69465837861970381 0.71933979245794832 0.5 0 0 1 I I #
point $-1 -45.622450982869147 33.351368440921334 9.9932320367560017 #
loop $-1 $-1 $323 $219 #
plane-surface $-1 0 -36.453918449157449 0 0 1 0 0 0 1 forward_v I I I I #
coedge $-1 $317 $222 $230 $329 reversed $139 $-1 #
coedge $-1 $222 $316 $386 $387 forward $139 $-1 #
coedge $-1 $323 $388 $224 $319 forward $314 $-1 #
edge $-1 $321 42.296228446956604 $327 54.178308720862631 $318 $389 forward 7 unknown #
coedge $-1 $230 $225 $388 $390 forward $220 $-1 #
vertex $-1 $390 $391 #
straight-curve $-1 51.588844521630286 -65.804704162107072 12.989329821008411 0 -1 0 I I #
coedge $-1 $386 $318 $227 $324 forward $314 $-1 #
edge $-1 $327 20.561502466817061 $325 41.493181642809397 $323 $392 forward 7 unknown #
vertex $-1 $324 $393 #
straight-curve $-1 72.520523697622608 -26.346206277965898 9.8937498747764536 0 0.75470957328743171 0.6560590369687036 I I #
vertex $-1 $324 $394 #
straight-curve $-1 51.588844521630286 -36.45391844915747 1.10724954710237 0 0.75470957328743171 0.6560590369687036 I I #
edge $-1 $395 -36.453918449157449 $231 -22.785148981823049 $316 $396 forward 7 unknown #
point $-1 72.520523697622622 -22.785148981823049 12.989329821008415 #
point $-1 51.588844521630286 -22.785148981823049 12.989329821008415 #
edge $-1 $397 1 $397 0 $234 $-1 forward 7 unknown #
vertex $-1 $235 $398 #
ellipse-curve $-1 57.569324286199517 -24.741086965631848 1.4362787865258797 0 -0.6560590369687036 0.75470957328743171 2.5 0 0 1 I I #
point $-1 60.069324286199517 -29.619533715490224 7.0482896840553826 #
edge $-1 $399 1 $399 0 $238 $-1 forward 7 unknown #
vertex $-1 $239 $400 #
ellipse-curve $-1 66.540043933053383 -24.741086965631848 1.4362787865258797 0 -0.6560590369687036 0.75470957328743171 2.5 0 0 1 I I #
point $-1 69.040043933053383 -29.619533715490224 7.0482896840553826 #
plane-surface $-1 72.520523697622608 0 0 -1 0 0 0 0 1 forward_v I I I I #
coedge $-1 $247 $245 $249 $345 reversed $161 $-1 #
edge $-1 $260 -12.989329821008415 $347 12.989329821008415 $259 $401 forward 7 unknown #
vertex $-1 $345 $402 #
straight-curve $-1 -72.520523697622608 -36.453918449157449 0 0 0 -1 I I #
edge $-1 $343 -36.453918449157449 $347 36.453918449157449 $341 $403 forward 7 unknown #
straight-curve $-1 0 -36.453918449157449 -12.989329821008415 -1 0 0 I I #
vertex $-1 $252 $404 #
straight-curve $-1 0 36.453918449157449 -12.989329821008415 1 0 0 I I #
point $-1 72.520523697622608 36.453918449157449 -12.989329821008415 #
point $-1 72.520523697622608 -36.453918449157449 -12.989329821008415 #
straight-curve $-1 -72.520523697622608 0 12.989329821008415 0 -1 0 I I #
point $-1 -72.520523697622608 36.453918449157449 12.989329821008415 #
point $-1 -72.520523697622608 -36.453918449157449 12.989329821008415 #
straight-curve $-1 72.520523697622608 -36.453918449157449 0 0 0 -1 I I #
straight-curve $-1 72.520523697622608 36.453918449157449 0 0 0 -1 I I #
plane-surface $-1 0 -36.453918449157449 0 0 1 0 0 0 1 forward_v I I I I #
coedge $-1 $405 $272 $282 $368 reversed $180 $-1 #
coedge $-1 $272 $405 $285 $370 forward $180 $-1 #
coedge $-1 $406 $275 $273 $360 forward $270 $-1 #
edge $-1 $361 55.600136747288147 $407 72.520523697622608 $273 $408 forward 7 unknown #
vertex $-1 $360 $409 #
straight-curve $-1 -55.600136747288147 36.453918449157449 4.8408810543753606 0 0 -1 I I #
coedge $-1 $275 $406 $277 $365 forward $270 $-1 #
straight-curve $-1 -55.600136747288147 0 12.989329821008415 0 1 0 I I #
edge $-1 $410 -72.520523697622608 $279 -55.600136747288147 $277 $411 forward 7 unknown #
point $-1 -55.600136747288147 -36.453918449157449 12.989329821008416 #
straight-curve $-1 -72.520523697622608 0 6.3741943964930261 0 -1 0 I I #
edge $-1 $410 -12.989329821008415 $283 -6.3741943964930261 $357 $412 forward 7 unknown #
point $-1 -72.520523697622608 -36.453918449157449 6.3741943964930261 #
edge $-1 $407 -12.989329821008415 $286 -6.3741943964930261 $285 $413 forward 7 unknown #
point $-1 -72.520523697622608 36.453918449157449 6.3741943964930261 #
coedge $-1 $291 $299 $292 $374 forward $196 $-1 #
edge $-1 $376 -31.117258391190724 $300 -17.848498321004122 $291 $414 forward 7 unknown #
edge $-1 $380 -36.453918449157449 $376 -30.248818432685241 $372 $415 forward 7 unknown #
edge $-1 $297 2.156253198128244 $380 8.1484487666330558 $296 $416 forward 7 unknown #
vertex $-1 $294 $417 #
straight-curve $-1 -55.600136747288147 0.12888094644374348 42.075816009720803 0 -0.71933979245794832 0.69465837861970381 I I #
point $-1 -55.600136747288147 36.453918449157449 6.9971342525036047 #
point $-1 -42.331376677101545 30.248818432685233 12.989329821008411 #
vertex $-1 $374 $418 #
straight-curve $-1 0 36.453918449157449 12.989329821008415 -1 0 0 I I #
vertex $-1 $306 $419 #
point $-1 -51.309062441520553 31.970001660548359 8.5627848936923261 #
vertex $-1 $310 $420 #
point $-1 -45.622450982869147 31.970001660548359 8.5627848936923261 #
coedge $-1 $388 $323 $317 $387 reversed $314 $-1 #
edge $-1 $395 -12.989329821008415 $325 -1.1072495471023884 $317 $421 forward 7 unknown #
coedge $-1 $318 $386 $320 $390 reversed $314 $-1 #
straight-curve $-1 51.588844521630286 -36.453918449157449 55.285558267965023 0 0 -1 I I #
edge $-1 $321 51.588844521630286 $395 72.520523697622608 $388 $422 forward 7 unknown #
point $-1 51.588844521630286 -36.453918449157449 12.989329821008415 #
straight-curve $-1 31.027342054813225 -36.453918449157449 1.1072495471023875 1 0 0 I I #
point $-1 72.520523697622622 -36.453918449157449 1.1072495471023884 #
point $-1 51.588844521630286 -36.453918449157449 1.1072495471023884 #
vertex $-1 $329 $423 #
straight-curve $-1 72.520523697622608 0 12.989329821008415 0 1 0 I I #
vertex $-1 $332 $424 #
point $-1 60.069324286199517 -24.741086965631848 1.4362787865258797 #
vertex $-1 $336 $425 #
point $-1 69.040043933053383 -24.741086965631848 1.4362787865258797 #
straight-curve $-1 -72.520523697622608 36.453918449157449 0 0 0 -1 I I #
point $-1 -72.520523697622608 -36.453918449157449 -12.989329821008415 #
straight-curve $-1 -72.520523697622608 0 -12.989329821008415 0 1 0 I I #
point $-1 -72.520523697622608 36.453918449157449 -12.989329821008415 #
coedge $-1 $358 $357 $406 $426 reversed $180 $-1 #
coedge $-1 $363 $359 $405 $426 forward $270 $-1 #
vertex $-1 $360 $427 #
straight-curve $-1 0 36.453918449157449 12.989329821008415 -1 0 0 I I #
point $-1 -55.600136747288147 36.453918449157449 12.989329821008416 #
vertex $-1 $426 $428 #
straight-curve $-1 0 -36.453918449157449 12.989329821008415 1 0 0 I I #
straight-curve $-1 -72.520523697622608 -36.453918449157449 0 0 0 -1 I I #
straight-curve $-1 -72.520523697622608 36.453918449157449 0 0 0 -1 I I #
straight-curve $-1 -24.482878356097423 30.248818432685233 12.989329821008415 1 0 0 I I #
straight-curve $-1 -55.600136747288147 0 12.989329821008415 0 -1 0 I I #
straight-curve $-1 -55.600136747288147 36.453918449157449 4.8408810543753606 0 0 1 I I #
point $-1 -55.600136747288147 30.248818432685241 12.989329821008415 #
point $-1 -55.600136747288147 36.453918449157449 12.989329821008416 #
point $-1 -51.809062441520553 31.622672471238506 8.2031149974633504 #
point $-1 -46.122450982869147 31.622672471238506 8.2031149974633504 #
straight-curve $-1 72.520523697622608 -36.453918449157449 0 0 0 -1 I I #
straight-curve $-1 0 -36.453918449157449 12.989329821008415 1 0 0 I I #
point $-1 72.520523697622608 -36.453918449157449 12.989329821008415 #
point $-1 57.569324286199517 -23.100939373210085 -0.45049514669269974 #
point $-1 66.540043933053383 -23.100939373210085 -0.45049514669269974 #
edge $-1 $407 -36.453918449157449 $410 36.453918449157449 $405 $429 forward 7 unknown #
point $-1 -72.520523697622608 36.453918449157449 12.989329821008415 #
point $-1 -72.520523697622608 -36.453918449157449 12.989329821008415 #
straight-curve $-1 -72.520523697622608 0 12.989329821008415 0 -1 0 I I #
End-of-ACIS-data 