500 0 6 0           
7 Unknown 11 ACIS 5.0 NT 24 Thu Mar 25 19:00:32 1999 
-1 9.9999999999999995e-007 1e-010 
body $-1 $6 $-1 $7 #
body $-1 $8 $-1 $9 #
body $-1 $10 $-1 $11 #
body $-1 $12 $-1 $13 #
body $-1 $14 $-1 $15 #
body $-1 $16 $-1 $17 #
lump $-1 $-1 $18 $0 #
transform $-1 1 0 0 0 1 0 0 0 1 70.315866573076562 46.971737072606608 11.355385541762933 1 rotate no_reflect no_shear #
lump $-1 $-1 $19 $1 #
transform $-1 1 0 0 0 1 0 0 0 1 70.315866573076562 46.971737072606608 11.355385541762933 1 rotate no_reflect no_shear #
lump $-1 $-1 $20 $2 #
transform $-1 1 0 0 0 1 0 0 0 1 70.315866573076562 46.971737072606608 11.355385541762933 1 rotate no_reflect no_shear #
lump $-1 $-1 $21 $3 #
transform $-1 1 0 0 0 1 0 0 0 1 70.315866573076562 46.971737072606608 11.355385541762933 1 rotate no_reflect no_shear #
lump $-1 $-1 $22 $4 #
transform $-1 1 0 0 0 1 0 0 0 1 70.315866573076562 46.971737072606608 11.355385541762933 1 rotate no_reflect no_shear #
lump $-1 $-1 $23 $5 #
transform $-1 1 0 0 0 1 0 0 0 1 70.315866573076562 46.971737072606608 11.355385541762933 1 rotate no_reflect no_shear #
shell $-1 $-1 $-1 $24 $-1 $6 #
shell $-1 $-1 $-1 $25 $-1 $8 #
shell $-1 $-1 $-1 $26 $-1 $10 #
shell $-1 $-1 $-1 $27 $-1 $12 #
shell $-1 $-1 $-1 $28 $-1 $14 #
shell $-1 $-1 $-1 $29 $-1 $16 #
face $-1 $30 $31 $18 $-1 $32 forward single #
face $-1 $33 $34 $19 $-1 $35 forward single #
face $-1 $36 $37 $20 $-1 $38 reversed single #
face $-1 $39 $40 $21 $-1 $41 forward single #
face $-1 $42 $43 $22 $-1 $44 reversed single #
face $-1 $45 $46 $23 $-1 $47 forward single #
face $-1 $48 $49 $18 $-1 $50 reversed single #
loop $-1 $-1 $51 $24 #
plane-surface $-1 0 0 11.355385541762933 0 0 1 1 0 0 forward_v I I I I #
face $-1 $52 $53 $19 $-1 $54 reversed single #
loop $-1 $-1 $55 $25 #
plane-surface $-1 -65.457912247034486 0 -5.0683548883141949 0 0 1 1 0 0 forward_v I I I I #
face $-1 $56 $57 $20 $-1 $58 reversed single #
loop $-1 $-1 $59 $26 #
plane-surface $-1 32.186188205842853 -146.41339038404536 104.85874168808587 1 0 0 0 0.70710678939079041 -0.70710677298230451 forward_v I I I I #
face $-1 $60 $61 $21 $-1 $62 forward single #
loop $-1 $63 $64 $27 #
cone-surface $-1 51.251027389459708 -43.08178850572066 7.4654369273449017 0 0.70710678939079041 -0.70710677298230451 1 0 0 1 I I 0 1 1 forward I I I I #
face $-1 $65 $66 $22 $-1 $67 reversed single #
loop $-1 $-1 $68 $28 #
plane-surface $-1 32.186188205842853 79.985323538477076 171.28681007512432 1 0 0 0 -0.70710678939079041 -0.70710677298230451 forward_v I I I I #
face $-1 $69 $70 $23 $-1 $71 forward single #
loop $-1 $72 $73 $29 #
cone-surface $-1 51.251027389459708 43.081788505720652 7.4654369273449088 0 -0.70710678939079041 -0.70710677298230451 1 0 0 1 I I 0 1 1 forward I I I I #
face $-1 $74 $75 $18 $-1 $76 reversed single #
loop $-1 $-1 $77 $30 #
plane-surface $-1 0 0 -11.355385541762933 0 0 1 1 0 0 forward_v I I I I #
coedge $-1 $78 $79 $80 $81 forward $31 $-1 #
face $-1 $82 $83 $19 $-1 $84 reversed single #
loop $-1 $-1 $85 $33 #
plane-surface $-1 -60.599957920992409 0 -8.2118702150385641 -1 0 0 0 0 1 forward_v I I I I #
coedge $-1 $86 $87 $88 $89 forward $34 $-1 #
face $-1 $90 $91 $20 $-1 $92 forward single #
loop $-1 $-1 $93 $36 #
plane-surface $-1 51.251027389459708 -46.971737072606615 5.417090684200943 0 -0.70710678939079041 0.70710677298230451 1 0 0 forward_v I I I I #
coedge $-1 $94 $95 $96 $97 reversed $37 $-1 #
face $-1 $-1 $98 $21 $-1 $99 forward single #
loop $-1 $100 $101 $39 #
cone-surface $-1 51.251027389459708 -41.807433904020954 6.1910823552167233 0 0.70710678939079041 -0.70710677298230451 0.5 0 0 1 I I -0.70710678118654746 0.70710678118654746 0.5 forward I I I I #
loop $-1 $-1 $102 $27 #
coedge $-1 $64 $64 $103 $104 reversed $40 $-1 #
face $-1 $105 $106 $22 $-1 $107 reversed single #
loop $-1 $-1 $108 $42 #
plane-surface $-1 51.251027389459708 -19.456329772961666 71.845159071239394 0 0.70710678939079041 0.70710677298230451 1 0 0 forward_v I I I I #
coedge $-1 $109 $110 $111 $112 reversed $43 $-1 #
face $-1 $-1 $113 $23 $-1 $114 forward single #
loop $-1 $115 $116 $45 #
cone-surface $-1 51.251027389459708 41.807433904020947 6.1910823552167304 0 -0.70710678939079041 -0.70710677298230451 0.5 0 0 1 I I -0.70710678118654746 0.70710678118654746 0.5 forward I I I I #
loop $-1 $-1 $117 $29 #
coedge $-1 $73 $73 $118 $119 reversed $46 $-1 #
face $-1 $120 $121 $18 $-1 $122 reversed single #
loop $-1 $-1 $123 $48 #
plane-surface $-1 0 -46.971737072606608 0 0 1 0 0 0 1 forward_v I I I I #
coedge $-1 $124 $125 $126 $127 forward $49 $-1 #
coedge $-1 $128 $51 $129 $130 forward $31 $-1 #
coedge $-1 $51 $128 $131 $132 forward $31 $-1 #
coedge $-1 $133 $134 $51 $81 reversed $135 $-1 #
edge $-1 $136 -46.971737072606608 $137 46.971737072606608 $80 $138 forward 7 unknown #
face $-1 $139 $140 $19 $-1 $141 reversed single #
loop $-1 $-1 $142 $52 #
plane-surface $-1 0 0 -11.355385541762933 0 0 1 1 0 0 forward_v I I I I #
coedge $-1 $143 $88 $144 $145 reversed $53 $-1 #
coedge $-1 $146 $55 $147 $148 reversed $34 $-1 #
coedge $-1 $55 $146 $149 $150 reversed $34 $-1 #
coedge $-1 $85 $151 $55 $89 reversed $53 $-1 #
edge $-1 $152 -46.971737072606608 $153 46.971737072606608 $88 $154 forward 7 unknown #
face $-1 $155 $156 $20 $-1 $157 reversed single #
loop $-1 $-1 $158 $56 #
plane-surface $-1 0 0 11.355385541762933 0 0 1 1 0 0 forward_v I I I I #
coedge $-1 $159 $160 $161 $162 reversed $57 $-1 #
coedge $-1 $95 $59 $163 $164 reversed $37 $-1 #
coedge $-1 $59 $94 $159 $165 reversed $37 $-1 #
coedge $-1 $161 $166 $59 $97 forward $156 $-1 #
edge $-1 $167 41.073985302280001 $168 47.012280159841985 $96 $169 forward 7 unknown #
loop $-1 $-1 $103 $60 #
plane-surface $-1 51.251027389459708 -46.971737072606615 5.417090684200943 0 -0.70710678939079041 0.70710677298230451 1 0 0 forward_v I I I I #
loop $-1 $-1 $170 $39 #
coedge $-1 $101 $101 $102 $171 reversed $61 $-1 #
coedge $-1 $102 $102 $101 $171 forward $63 $-1 #
coedge $-1 $103 $103 $64 $104 forward $98 $-1 #
edge $-1 $172 -2.3317860796066896e-022 $172 6.2831853071796004 $103 $173 forward 7 unknown #
face $-1 $174 $175 $22 $-1 $176 reversed single #
loop $-1 $-1 $177 $65 #
plane-surface $-1 70.315866573076562 0 0 -1 0 0 0 0 1 forward_v I I I I #
coedge $-1 $178 $179 $180 $181 reversed $66 $-1 #
coedge $-1 $110 $68 $182 $183 reversed $43 $-1 #
coedge $-1 $68 $109 $178 $184 reversed $43 $-1 #
coedge $-1 $180 $185 $68 $112 forward $186 $-1 #
edge $-1 $187 -6.9790753033680701 $188 -1.0407805836048283 $111 $189 forward 7 unknown #
loop $-1 $-1 $118 $69 #
plane-surface $-1 51.251027389459708 -19.456329772961666 71.845159071239394 0 0.70710678939079041 0.70710677298230451 1 0 0 forward_v I I I I #
loop $-1 $-1 $190 $45 #
coedge $-1 $116 $116 $117 $191 reversed $70 $-1 #
coedge $-1 $117 $117 $116 $191 forward $72 $-1 #
coedge $-1 $118 $118 $73 $119 forward $113 $-1 #
edge $-1 $192 5.0242960426720359e-015 $192 6.2831853071796058 $118 $193 forward 7 unknown #
face $-1 $194 $195 $18 $-1 $196 reversed single #
loop $-1 $-1 $197 $74 #
plane-surface $-1 -70.315866573076562 0 0 1 0 0 0 0 -1 forward_v I I I I #
coedge $-1 $198 $131 $199 $200 forward $75 $-1 #
coedge $-1 $201 $77 $198 $202 forward $49 $-1 #
coedge $-1 $77 $201 $203 $204 forward $49 $-1 #
coedge $-1 $134 $133 $77 $127 reversed $135 $-1 #
edge $-1 $205 -46.971737072606608 $206 46.971737072606608 $126 $207 forward 7 unknown #
coedge $-1 $79 $78 $208 $209 forward $31 $-1 #
coedge $-1 $210 $211 $78 $130 reversed $195 $-1 #
edge $-1 $137 -70.315866573076562 $212 70.315866573076562 $129 $213 forward 7 unknown #
coedge $-1 $123 $214 $79 $132 reversed $75 $-1 #
edge $-1 $215 -70.315866573076562 $136 70.315866573076562 $131 $216 forward 7 unknown #
coedge $-1 $126 $80 $214 $217 forward $135 $-1 #
coedge $-1 $80 $126 $210 $218 reversed $135 $-1 #
loop $-1 $-1 $133 $194 #
vertex $-1 $81 $219 #
vertex $-1 $81 $220 #
straight-curve $-1 70.315866573076562 0 11.355385541762933 0 1 0 I I #
face $-1 $221 $222 $19 $-1 $223 reversed single #
loop $-1 $-1 $144 $82 #
plane-surface $-1 0 -46.971737072606608 0 0 1 0 0 0 1 forward_v I I I I #
coedge $-1 $224 $225 $143 $226 forward $83 $-1 #
coedge $-1 $151 $85 $142 $226 reversed $53 $-1 #
coedge $-1 $149 $227 $85 $145 forward $140 $-1 #
edge $-1 $228 -7.2494504342436512 $152 -0.96241978079491286 $144 $229 forward 7 unknown #
coedge $-1 $87 $86 $230 $231 reversed $34 $-1 #
coedge $-1 $232 $233 $86 $148 forward $234 $-1 #
edge $-1 $235 -37.586910449559319 $153 -27.871001797475166 $147 $236 forward 7 unknown #
coedge $-1 $237 $144 $87 $150 forward $140 $-1 #
edge $-1 $152 27.871001797475166 $238 37.586910449559319 $149 $239 forward 7 unknown #
coedge $-1 $88 $143 $232 $240 reversed $53 $-1 #
vertex $-1 $150 $241 #
vertex $-1 $148 $242 #
straight-curve $-1 -60.599957920992409 0 -5.0683548883141949 0 1 0 I I #
face $-1 $-1 $243 $20 $-1 $244 reversed single #
loop $-1 $-1 $161 $90 #
plane-surface $-1 0 -46.971737072606608 0 0 1 0 0 0 1 forward_v I I I I #
coedge $-1 $163 $245 $246 $247 forward $91 $-1 #
coedge $-1 $246 $93 $95 $165 forward $57 $-1 #
coedge $-1 $93 $246 $248 $249 reversed $57 $-1 #
coedge $-1 $250 $96 $93 $162 forward $156 $-1 #
edge $-1 $168 6.5606745111129996 $251 44.690352878346708 $161 $252 forward 7 unknown #
coedge $-1 $253 $158 $94 $164 forward $91 $-1 #
edge $-1 $254 -32.173252839179312 $167 -26.234958119416071 $163 $255 forward 7 unknown #
edge $-1 $168 1.0048591735576163e-014 $254 8.3980170274961523 $95 $256 forward 7 unknown #
coedge $-1 $96 $250 $253 $257 reversed $156 $-1 #
vertex $-1 $257 $258 #
vertex $-1 $97 $259 #
straight-curve $-1 32.186188205842853 -46.971737072606608 52.429370844042936 0 0 -1 I I #
coedge $-1 $170 $170 $-1 $260 reversed $100 $-1 #
edge $-1 $261 0 $261 6.2831853071796004 $101 $262 forward 7 unknown #
vertex $-1 $104 $263 #
ellipse-curve $-1 51.251027389459708 -44.002589712724991 8.3862381129819425 0 -0.70710678939079041 0.70710677298230451 1 0 0 1 I I #
face $-1 $-1 $186 $22 $-1 $264 forward single #
loop $-1 $-1 $265 $105 #
plane-surface $-1 0 46.971737072606608 0 0 -1 0 0 0 -1 forward_v I I I I #
coedge $-1 $266 $267 $179 $268 forward $106 $-1 #
coedge $-1 $269 $108 $110 $184 forward $66 $-1 #
coedge $-1 $108 $269 $177 $268 reversed $66 $-1 #
coedge $-1 $270 $111 $108 $181 forward $186 $-1 #
edge $-1 $188 6.5606745111129996 $271 44.690352878346708 $180 $272 forward 7 unknown #
coedge $-1 $273 $265 $109 $183 forward $175 $-1 #
edge $-1 $274 -80.226314353361218 $187 -74.288019495799233 $182 $275 forward 7 unknown #
edge $-1 $188 85.545457117717106 $274 93.943474145213244 $110 $276 forward 7 unknown #
coedge $-1 $111 $270 $273 $277 forward $186 $-1 #
loop $-1 $-1 $180 $174 #
vertex $-1 $183 $278 #
vertex $-1 $112 $279 #
straight-curve $-1 32.186188205842853 39.992661769238538 11.355385541762928 0 -1 0 I I #
coedge $-1 $190 $190 $-1 $280 reversed $115 $-1 #
edge $-1 $281 0 $281 6.2831853071796004 $116 $282 forward 7 unknown #
vertex $-1 $119 $283 #
ellipse-curve $-1 51.251027389459708 44.002589712724976 8.3862381129819497 0 0.70710678939079041 0.70710677298230451 1 0 0 1 I I #
face $-1 $-1 $135 $18 $-1 $284 reversed single #
loop $-1 $-1 $210 $120 #
plane-surface $-1 0 46.971737072606608 0 0 -1 0 0 0 -1 forward_v I I I I #
coedge $-1 $285 $208 $211 $286 forward $121 $-1 #
coedge $-1 $214 $123 $124 $202 reversed $75 $-1 #
coedge $-1 $208 $285 $123 $200 reversed $121 $-1 #
edge $-1 $215 -11.355385541762933 $287 11.355385541762933 $199 $288 forward 7 unknown #
coedge $-1 $125 $124 $285 $289 forward $49 $-1 #
edge $-1 $206 -70.315866573076562 $287 70.315866573076562 $198 $290 forward 7 unknown #
coedge $-1 $211 $210 $125 $204 reversed $195 $-1 #
edge $-1 $291 -70.315866573076562 $205 70.315866573076562 $203 $292 forward 7 unknown #
vertex $-1 $127 $293 #
vertex $-1 $217 $294 #
straight-curve $-1 70.315866573076562 0 -11.355385541762933 0 -1 0 I I #
coedge $-1 $197 $199 $128 $209 reversed $121 $-1 #
edge $-1 $212 -46.971737072606608 $215 46.971737072606608 $208 $295 forward 7 unknown #
coedge $-1 $203 $129 $134 $218 forward $195 $-1 #
coedge $-1 $129 $203 $197 $286 reversed $195 $-1 #
vertex $-1 $130 $296 #
straight-curve $-1 0 46.971737072606608 11.355385541762933 -1 0 0 I I #
coedge $-1 $131 $198 $133 $217 reversed $75 $-1 #
vertex $-1 $209 $297 #
straight-curve $-1 0 -46.971737072606608 11.355385541762933 1 0 0 I I #
edge $-1 $136 -11.355385541762933 $206 11.355385541762933 $133 $298 forward 7 unknown #
edge $-1 $137 -11.355385541762933 $205 11.355385541762933 $134 $299 forward 7 unknown #
point $-1 70.315866573076562 -46.971737072606608 11.355385541762933 #
point $-1 70.315866573076562 46.971737072606608 11.355385541762933 #
face $-1 $-1 $234 $19 $-1 $300 reversed single #
loop $-1 $-1 $230 $139 #
plane-surface $-1 -70.315866573076562 0 0 1 0 0 0 0 -1 forward_v I I I I #
coedge $-1 $301 $142 $227 $302 forward $83 $-1 #
coedge $-1 $142 $301 $303 $304 forward $83 $-1 #
edge $-1 $305 -46.971737072606608 $228 46.971737072606608 $142 $306 forward 7 unknown #
coedge $-1 $144 $237 $224 $302 reversed $140 $-1 #
vertex $-1 $302 $307 #
straight-curve $-1 -60.599957920992409 -46.971737072606608 -4.105935107519282 0 0 1 I I #
coedge $-1 $308 $309 $146 $231 forward $222 $-1 #
edge $-1 $238 -46.971737072606608 $235 46.971737072606608 $230 $310 forward 7 unknown #
coedge $-1 $303 $147 $151 $240 forward $234 $-1 #
coedge $-1 $147 $303 $308 $311 reversed $234 $-1 #
loop $-1 $-1 $232 $221 #
vertex $-1 $311 $312 #
straight-curve $-1 -32.728956123517243 46.971737072606608 -5.0683548883141949 1 0 0 I I #
coedge $-1 $227 $149 $309 $313 forward $140 $-1 #
vertex $-1 $313 $314 #
straight-curve $-1 -32.728956123517243 -46.971737072606608 -5.0683548883141949 -1 0 0 I I #
edge $-1 $153 0.96241978079491286 $305 7.2494504342436512 $232 $315 forward 7 unknown #
point $-1 -60.599957920992409 -46.971737072606608 -5.0683548883141949 #
point $-1 -60.599957920992409 46.971737072606608 -5.0683548883141949 #
loop $-1 $-1 $248 $155 #
plane-surface $-1 70.315866573076562 0 0 -1 0 0 0 0 1 forward_v I I I I #
coedge $-1 $158 $253 $316 $317 forward $91 $-1 #
coedge $-1 $160 $159 $158 $247 reversed $57 $-1 #
edge $-1 $318 -44.690352878346708 $254 -6.5606745111129996 $158 $319 forward 7 unknown #
coedge $-1 $316 $320 $160 $249 forward $243 $-1 #
edge $-1 $251 -14.691785910620018 $318 -6.2937688831238772 $248 $321 forward 7 unknown #
coedge $-1 $166 $161 $320 $322 reversed $156 $-1 #
vertex $-1 $162 $323 #
straight-curve $-1 25.625513694729854 -46.971737072606608 5.4170906842009563 1 0 0 I I #
coedge $-1 $245 $163 $166 $257 forward $91 $-1 #
vertex $-1 $164 $324 #
straight-curve $-1 32.186188205842853 -73.206695192022678 11.355385541762935 0 -1 0 I I #
straight-curve $-1 32.186188205842853 -46.971737072606615 5.417090684200943 0 0.70710677298230451 0.70710678939079041 I I #
edge $-1 $167 32.186188205842853 $325 70.315866573076562 $166 $326 forward 7 unknown #
point $-1 32.186188205842853 -46.971737072606608 11.355385541762933 #
point $-1 32.186188205842853 -46.971737072606608 5.4170906842009501 #
edge $-1 $327 1 $327 0 $170 $-1 forward 7 unknown #
vertex $-1 $171 $328 #
ellipse-curve $-1 51.251027389459708 -42.16098729871635 6.544635741707876 0 -0.70710678939079041 0.70710677298230451 1 0 0 1 I I #
point $-1 52.251027389459708 -44.002589712724976 8.3862381129819283 #
plane-surface $-1 0 0 11.355385541762933 0 0 1 1 0 0 forward_v I I I I #
coedge $-1 $182 $329 $269 $330 forward $175 $-1 #
coedge $-1 $267 $177 $329 $331 reversed $106 $-1 #
coedge $-1 $177 $266 $270 $332 reversed $106 $-1 #
edge $-1 $271 53.26550595573049 $333 61.663522983226642 $177 $334 forward 7 unknown #
coedge $-1 $179 $178 $265 $330 reversed $66 $-1 #
coedge $-1 $185 $180 $267 $332 forward $186 $-1 #
vertex $-1 $332 $335 #
straight-curve $-1 25.625513694729854 41.033442352843366 11.355385541762935 1 0 0 I I #
coedge $-1 $329 $182 $185 $277 reversed $175 $-1 #
vertex $-1 $183 $336 #
straight-curve $-1 32.186188205842853 46.971737072606608 85.643405037562161 0 0 1 I I #
straight-curve $-1 32.186188205842853 -19.456329772961666 71.845159071239394 0 0.70710677298230451 -0.70710678939079041 I I #
edge $-1 $337 -70.315866573076562 $187 -32.186188205842853 $273 $338 forward 7 unknown #
point $-1 32.186188205842853 46.971737072606608 11.355385541762933 #
point $-1 32.186188205842853 41.033442352843366 11.355385541762935 #
edge $-1 $339 1 $339 0 $190 $-1 forward 7 unknown #
vertex $-1 $191 $340 #
ellipse-curve $-1 51.251027389459708 42.160987298716343 6.5446357417078831 0 0.70710678939079041 0.70710677298230451 1 0 0 1 I I #
point $-1 52.251027389459708 44.002589712724969 8.3862381129819354 #
plane-surface $-1 70.315866573076562 0 0 -1 0 0 0 0 1 forward_v I I I I #
coedge $-1 $199 $197 $201 $289 reversed $121 $-1 #
edge $-1 $212 -11.355385541762933 $291 11.355385541762933 $211 $341 forward 7 unknown #
vertex $-1 $289 $342 #
straight-curve $-1 -70.315866573076562 -46.971737072606608 0 0 0 -1 I I #
edge $-1 $287 -46.971737072606608 $291 46.971737072606608 $285 $343 forward 7 unknown #
straight-curve $-1 0 -46.971737072606608 -11.355385541762933 -1 0 0 I I #
vertex $-1 $204 $344 #
straight-curve $-1 0 46.971737072606608 -11.355385541762933 1 0 0 I I #
point $-1 70.315866573076562 46.971737072606608 -11.355385541762933 #
point $-1 70.315866573076562 -46.971737072606608 -11.355385541762933 #
straight-curve $-1 -70.315866573076562 0 11.355385541762933 0 -1 0 I I #
point $-1 -70.315866573076562 46.971737072606608 11.355385541762933 #
point $-1 -70.315866573076562 -46.971737072606608 11.355385541762933 #
straight-curve $-1 70.315866573076562 -46.971737072606608 0 0 0 -1 I I #
straight-curve $-1 70.315866573076562 46.971737072606608 0 0 0 -1 I I #
plane-surface $-1 0 46.971737072606608 0 0 -1 0 0 0 -1 forward_v I I I I #
coedge $-1 $225 $224 $345 $346 forward $83 $-1 #
edge $-1 $228 60.599957920992409 $347 70.315866573076562 $227 $348 forward 7 unknown #
coedge $-1 $233 $232 $225 $304 reversed $234 $-1 #
edge $-1 $349 -70.315866573076562 $305 -60.599957920992409 $303 $350 forward 7 unknown #
vertex $-1 $240 $351 #
straight-curve $-1 -60.599957920992409 0 -11.355385541762933 0 -1 0 I I #
point $-1 -60.599957920992409 -46.971737072606608 -11.355385541762933 #
coedge $-1 $345 $230 $233 $311 forward $222 $-1 #
coedge $-1 $230 $345 $237 $313 reversed $222 $-1 #
straight-curve $-1 -70.315866573076562 0 -5.0683548883141949 0 1 0 I I #
edge $-1 $235 5.0683548883141949 $349 11.355385541762933 $233 $352 forward 7 unknown #
point $-1 -70.315866573076562 46.971737072606608 -5.0683548883141949 #
edge $-1 $238 5.0683548883141949 $347 11.355385541762933 $309 $353 forward 7 unknown #
point $-1 -70.315866573076562 -46.971737072606608 -5.0683548883141949 #
straight-curve $-1 -60.599957920992409 46.971737072606608 -4.105935107519282 0 0 -1 I I #
coedge $-1 $320 $248 $245 $317 reversed $243 $-1 #
edge $-1 $325 -46.971737072606608 $318 -41.033442352843366 $316 $354 forward 7 unknown #
vertex $-1 $247 $355 #
straight-curve $-1 25.625513694729854 -41.033442352843373 11.355385541762931 -1 0 0 I I #
coedge $-1 $248 $316 $250 $322 forward $243 $-1 #
straight-curve $-1 70.315866573076562 -36.5830757480012 15.805752249876319 0 0.70710677298230462 0.70710678939079052 I I #
edge $-1 $325 -11.355385541762933 $251 -5.4170906842009501 $320 $356 forward 7 unknown #
point $-1 70.315866573076562 -46.971737072606608 5.4170906842009501 #
point $-1 32.186188205842853 -41.033442352843366 11.355385541762933 #
vertex $-1 $317 $357 #
straight-curve $-1 0 -46.971737072606608 11.355385541762933 1 0 0 I I #
vertex $-1 $260 $358 #
point $-1 52.251027389459708 -42.16098729871635 6.544635741707876 #
coedge $-1 $265 $273 $266 $331 forward $175 $-1 #
edge $-1 $333 -44.690352878346708 $274 -6.5606745111129996 $265 $359 forward 7 unknown #
edge $-1 $337 -11.355385541762933 $333 -5.417090684200943 $266 $360 forward 7 unknown #
edge $-1 $271 41.033442352843366 $337 46.971737072606608 $267 $361 forward 7 unknown #
vertex $-1 $330 $362 #
straight-curve $-1 70.315866573076562 3.3690423252170572 49.019786443395546 0 0.70710677298230462 -0.70710678939079052 I I #
point $-1 70.315866573076562 41.033442352843366 11.355385541762935 #
point $-1 32.186188205842853 46.971737072606615 5.417090684200943 #
vertex $-1 $332 $363 #
straight-curve $-1 0 46.971737072606608 11.355385541762933 -1 0 0 I I #
vertex $-1 $280 $364 #
point $-1 52.251027389459708 42.160987298716343 6.5446357417078831 #
straight-curve $-1 -70.315866573076562 46.971737072606608 0 0 0 -1 I I #
point $-1 -70.315866573076562 -46.971737072606608 -11.355385541762933 #
straight-curve $-1 -70.315866573076562 0 -11.355385541762933 0 1 0 I I #
point $-1 -70.315866573076562 46.971737072606608 -11.355385541762933 #
coedge $-1 $309 $308 $301 $346 reversed $222 $-1 #
edge $-1 $347 -46.971737072606608 $349 46.971737072606608 $345 $365 forward 7 unknown #
vertex $-1 $346 $366 #
straight-curve $-1 0 -46.971737072606608 -11.355385541762933 -1 0 0 I I #
vertex $-1 $304 $367 #
straight-curve $-1 0 46.971737072606608 -11.355385541762933 1 0 0 I I #
point $-1 -60.599957920992409 46.971737072606608 -11.355385541762933 #
straight-curve $-1 -70.315866573076562 46.971737072606608 0 0 0 -1 I I #
straight-curve $-1 -70.315866573076562 -46.971737072606608 0 0 0 -1 I I #
straight-curve $-1 70.315866573076562 0 11.355385541762933 0 1 0 I I #
point $-1 70.315866573076562 -41.033442352843366 11.355385541762933 #
straight-curve $-1 70.315866573076562 -46.971737072606608 0 0 0 -1 I I #
point $-1 70.315866573076562 -46.971737072606608 11.355385541762933 #
point $-1 51.251027389459708 -41.453880509325558 5.8375289687255707 #
straight-curve $-1 25.625513694729854 46.971737072606608 5.4170906842009465 -1 0 0 I I #
straight-curve $-1 70.315866573076562 46.971737072606608 0 0 0 -1 I I #
straight-curve $-1 70.315866573076562 0 11.355385541762933 0 1 0 I I #
point $-1 70.315866573076562 46.971737072606615 5.417090684200943 #
point $-1 70.315866573076562 46.971737072606608 11.355385541762933 #
point $-1 51.251027389459708 41.45388050932555 5.8375289687255778 #
straight-curve $-1 -70.315866573076562 0 -11.355385541762933 0 1 0 I I #
point $-1 -70.315866573076562 -46.971737072606608 -11.355385541762933 #
point $-1 -70.315866573076562 46.971737072606608 -11.355385541762933 #
End-of-ACIS-data 