500 0 10 0           
7 Unknown 11 ACIS 5.0 NT 24 Fri Mar 26 17:47:21 1999 
-1 9.9999999999999995e-007 1e-010 
body $-1 $10 $-1 $11 #
body $-1 $12 $-1 $13 #
body $-1 $14 $-1 $15 #
body $-1 $16 $-1 $17 #
body $-1 $18 $-1 $19 #
body $-1 $20 $-1 $21 #
body $-1 $22 $-1 $23 #
body $-1 $24 $-1 $25 #
body $-1 $26 $-1 $27 #
body $-1 $28 $-1 $29 #
lump $-1 $-1 $30 $0 #
transform $-1 1 0 0 0 1 0 0 0 1 73.333536790063164 50.872217721108669 19.166469381103877 1 rotate no_reflect no_shear #
lump $-1 $-1 $31 $1 #
transform $-1 1 0 0 0 1 0 0 0 1 73.333536790063164 50.872217721108669 19.166469381103877 1 rotate no_reflect no_shear #
lump $-1 $-1 $32 $2 #
transform $-1 1 0 0 0 1 0 0 0 1 73.333536790063164 50.872217721108669 19.166469381103877 1 rotate no_reflect no_shear #
lump $-1 $-1 $33 $3 #
transform $-1 1 0 0 0 1 0 0 0 1 73.333536790063164 50.872217721108669 19.166469381103877 1 rotate no_reflect no_shear #
lump $-1 $-1 $34 $4 #
transform $-1 1 0 0 0 1 0 0 0 1 73.333536790063164 50.872217721108669 19.166469381103877 1 rotate no_reflect no_shear #
lump $-1 $-1 $35 $5 #
transform $-1 1 0 0 0 1 0 0 0 1 73.333536790063164 50.872217721108669 19.166469381103877 1 rotate no_reflect no_shear #
lump $-1 $-1 $36 $6 #
transform $-1 1 0 0 0 1 0 0 0 1 73.333536790063164 50.872217721108669 19.166469381103877 1 rotate no_reflect no_shear #
lump $-1 $-1 $37 $7 #
transform $-1 1 0 0 0 1 0 0 0 1 73.333536790063164 50.872217721108669 19.166469381103877 1 rotate no_reflect no_shear #
lump $-1 $-1 $38 $8 #
transform $-1 1 0 0 0 1 0 0 0 1 73.333536790063164 50.872217721108669 19.166469381103877 1 rotate no_reflect no_shear #
lump $-1 $-1 $39 $9 #
transform $-1 1 0 0 0 1 0 0 0 1 73.333536790063164 50.872217721108669 19.166469381103877 1 rotate no_reflect no_shear #
shell $-1 $-1 $-1 $40 $-1 $10 #
shell $-1 $-1 $-1 $41 $-1 $12 #
shell $-1 $-1 $-1 $42 $-1 $14 #
shell $-1 $-1 $-1 $43 $-1 $16 #
shell $-1 $-1 $-1 $44 $-1 $18 #
shell $-1 $-1 $-1 $45 $-1 $20 #
shell $-1 $-1 $-1 $46 $-1 $22 #
shell $-1 $-1 $-1 $47 $-1 $24 #
shell $-1 $-1 $-1 $48 $-1 $26 #
shell $-1 $-1 $-1 $49 $-1 $28 #
face $-1 $50 $51 $30 $-1 $52 forward single #
face $-1 $53 $54 $31 $-1 $55 reversed single #
face $-1 $56 $57 $32 $-1 $58 reversed single #
face $-1 $59 $60 $33 $-1 $61 forward single #
face $-1 $62 $63 $34 $-1 $64 forward single #
face $-1 $65 $66 $35 $-1 $67 forward single #
face $-1 $68 $69 $36 $-1 $70 reversed single #
face $-1 $71 $72 $37 $-1 $73 forward single #
face $-1 $74 $75 $38 $-1 $76 forward single #
face $-1 $77 $78 $39 $-1 $79 forward single #
face $-1 $80 $81 $30 $-1 $82 reversed single #
loop $-1 $-1 $83 $40 #
plane-surface $-1 0 0 19.166469381103877 0 0 1 1 0 0 forward_v I I I I #
face $-1 $84 $85 $31 $-1 $86 reversed single #
loop $-1 $-1 $87 $41 #
plane-surface $-1 -64.111450862757209 -19.684381661356998 0 0 1 0 0 0 1 forward_v I I I I #
face $-1 $88 $89 $32 $-1 $90 reversed single #
loop $-1 $-1 $91 $42 #
plane-surface $-1 65.133680855106377 -50.872217721108683 6.0068594840827672 0 -0.55919291073839883 0.82903756765294845 1 0 0 forward_v I I I I #
face $-1 $92 $93 $33 $-1 $94 forward single #
loop $-1 $95 $96 $43 #
cone-surface $-1 60.21376729413231 -40.4994251352215 11.670692660330378 0 0.55919291073839883 -0.82903756765294845 1 0 0 1 I I 0 1 1 forward I I I I #
face $-1 $97 $98 $34 $-1 $99 forward single #
loop $-1 $100 $101 $44 #
cone-surface $-1 65.133680855106377 -40.4994251352215 11.670692660330378 0 0.55919291073839883 -0.82903756765294845 1 0 0 1 I I 0 1 1 forward I I I I #
face $-1 $102 $103 $35 $-1 $104 forward single #
loop $-1 $105 $106 $45 #
cone-surface $-1 70.053594416080443 -40.4994251352215 11.670692660330378 0 0.55919291073839883 -0.82903756765294845 1 0 0 1 I I 0 1 1 forward I I I I #
face $-1 $107 $108 $36 $-1 $109 reversed single #
loop $-1 $-1 $110 $46 #
plane-surface $-1 51.383255642281242 39.199343284736088 192.43431825843115 1 0 0 0 -0.51503808176128008 -0.85716729658548041 forward_v I I I I #
face $-1 $111 $112 $37 $-1 $113 forward single #
loop $-1 $114 $115 $47 #
cone-surface $-1 55.317793401884956 46.542163361228717 16.254203548160895 0 -0.51503808176128008 -0.85716729658548041 1 0 0 1 I I 0 1 1 forward I I I I #
face $-1 $116 $117 $38 $-1 $118 forward single #
loop $-1 $119 $120 $48 #
cone-surface $-1 61.219600041290562 46.542163361228717 16.254203548160895 0 -0.51503808176128008 -0.85716729658548041 1 0 0 1 I I 0 1 1 forward I I I I #
face $-1 $121 $122 $39 $-1 $123 forward single #
loop $-1 $124 $125 $49 #
cone-surface $-1 67.121406680696168 46.542163361228717 16.254203548160895 0 -0.51503808176128008 -0.85716729658548041 1 0 0 1 I I 0 1 1 forward I I I I #
face $-1 $126 $127 $30 $-1 $128 reversed single #
loop $-1 $-1 $129 $50 #
plane-surface $-1 0 0 -19.166469381103877 0 0 1 1 0 0 forward_v I I I I #
coedge $-1 $130 $131 $132 $133 forward $51 $-1 #
face $-1 $134 $135 $31 $-1 $136 reversed single #
loop $-1 $-1 $137 $53 #
plane-surface $-1 -64.111450862757209 -15.272239001312851 0 0 -1 0 0 0 -1 forward_v I I I I #
coedge $-1 $138 $139 $140 $141 reversed $54 $-1 #
face $-1 $142 $143 $32 $-1 $144 reversed single #
loop $-1 $-1 $145 $56 #
plane-surface $-1 56.93382492014959 -132.88740550586243 127.59937341972672 1 0 0 0 0.55919291073839883 -0.82903756765294845 forward_v I I I I #
coedge $-1 $146 $147 $148 $149 reversed $57 $-1 #
face $-1 $-1 $150 $33 $-1 $151 forward single #
loop $-1 $152 $153 $59 #
cone-surface $-1 60.21376729413231 -39.601997906590718 10.340202104240966 0 0.55919291073839883 -0.82903756765294845 0.5 0 0 1 I I -0.70710678118654746 0.70710678118654746 0.5 forward I I I I #
loop $-1 $-1 $154 $43 #
coedge $-1 $96 $96 $155 $156 reversed $60 $-1 #
face $-1 $-1 $157 $34 $-1 $158 forward single #
loop $-1 $159 $160 $62 #
cone-surface $-1 65.133680855106377 -39.601997906590718 10.340202104240966 0 0.55919291073839883 -0.82903756765294845 0.5 0 0 1 I I -0.70710678118654746 0.70710678118654746 0.5 forward I I I I #
loop $-1 $-1 $161 $44 #
coedge $-1 $101 $101 $162 $163 reversed $63 $-1 #
face $-1 $-1 $164 $35 $-1 $165 forward single #
loop $-1 $166 $167 $65 #
cone-surface $-1 70.053594416080443 -39.601997906590718 10.340202104240966 0 0.55919291073839883 -0.82903756765294845 0.5 0 0 1 I I -0.70710678118654746 0.70710678118654746 0.5 forward I I I I #
loop $-1 $-1 $168 $45 #
coedge $-1 $106 $106 $169 $170 reversed $66 $-1 #
face $-1 $171 $172 $36 $-1 $173 reversed single #
loop $-1 $-1 $174 $68 #
plane-surface $-1 61.21960004129059 -36.339784949512691 66.716099299650523 0 0.51503808176128008 0.85716729658548041 1 0 0 forward_v I I I I #
coedge $-1 $175 $176 $177 $178 reversed $69 $-1 #
face $-1 $-1 $179 $37 $-1 $180 forward single #
loop $-1 $181 $182 $71 #
cone-surface $-1 55.317793401884956 45.992655278756274 15.339668537673862 0 -0.51503808176128008 -0.85716729658548041 0.5 0 0 1 I I -0.70710678118654879 0.70710678118654635 0.5 forward I I I I #
loop $-1 $-1 $183 $47 #
coedge $-1 $115 $115 $184 $185 reversed $72 $-1 #
face $-1 $-1 $186 $38 $-1 $187 forward single #
loop $-1 $188 $189 $74 #
cone-surface $-1 61.219600041290562 45.992655278756274 15.339668537673862 0 -0.51503808176128008 -0.85716729658548041 0.5 0 0 1 I I -0.70710678118654879 0.70710678118654635 0.5 forward I I I I #
loop $-1 $-1 $190 $48 #
coedge $-1 $120 $120 $191 $192 reversed $75 $-1 #
face $-1 $-1 $193 $39 $-1 $194 forward single #
loop $-1 $195 $196 $77 #
cone-surface $-1 67.121406680696168 45.992655278756274 15.339668537673862 0 -0.51503808176128008 -0.85716729658548041 0.5 0 0 1 I I -0.70710678118654879 0.70710678118654635 0.5 forward I I I I #
loop $-1 $-1 $197 $49 #
coedge $-1 $125 $125 $198 $199 reversed $78 $-1 #
face $-1 $200 $201 $30 $-1 $202 reversed single #
loop $-1 $-1 $203 $80 #
plane-surface $-1 0 -50.872217721108669 0 0 1 0 0 0 1 forward_v I I I I #
coedge $-1 $204 $205 $206 $207 forward $81 $-1 #
coedge $-1 $208 $83 $209 $210 forward $51 $-1 #
coedge $-1 $83 $208 $211 $212 forward $51 $-1 #
coedge $-1 $213 $214 $83 $133 reversed $215 $-1 #
edge $-1 $216 -50.872217721108669 $217 50.872217721108669 $132 $218 forward 7 unknown #
face $-1 $219 $220 $31 $-1 $221 reversed single #
loop $-1 $-1 $222 $84 #
plane-surface $-1 -54.889364935451255 -17.478310331334924 0 -1 0 0 0 0 1 forward_v I I I I #
coedge $-1 $223 $224 $225 $226 forward $85 $-1 #
coedge $-1 $227 $87 $228 $229 reversed $54 $-1 #
coedge $-1 $87 $227 $230 $231 reversed $54 $-1 #
coedge $-1 $232 $233 $87 $141 forward $234 $-1 #
edge $-1 $235 -19.166469381103877 $236 19.166469381103877 $140 $237 forward 7 unknown #
face $-1 $238 $239 $32 $-1 $240 forward single #
loop $-1 $-1 $241 $88 #
plane-surface $-1 0 -50.872217721108669 0 0 1 0 0 0 1 forward_v I I I I #
coedge $-1 $242 $243 $244 $245 reversed $89 $-1 #
coedge $-1 $246 $91 $247 $248 reversed $57 $-1 #
coedge $-1 $91 $246 $242 $249 forward $57 $-1 #
coedge $-1 $244 $250 $91 $149 forward $239 $-1 #
edge $-1 $251 -40.766696362509975 $252 -24.366984492596401 $148 $253 forward 7 unknown #
loop $-1 $-1 $155 $92 #
plane-surface $-1 65.133680855106377 -50.872217721108683 6.0068594840827672 0 -0.55919291073839883 0.82903756765294845 1 0 0 forward_v I I I I #
loop $-1 $-1 $254 $59 #
coedge $-1 $153 $153 $154 $255 reversed $93 $-1 #
coedge $-1 $154 $154 $153 $255 forward $95 $-1 #
coedge $-1 $155 $155 $96 $156 forward $150 $-1 #
edge $-1 $256 3.8347232150861944e-015 $256 6.283185307179604 $155 $257 forward 7 unknown #
loop $-1 $-1 $162 $97 #
plane-surface $-1 65.133680855106377 -50.872217721108683 6.0068594840827672 0 -0.55919291073839883 0.82903756765294845 1 0 0 forward_v I I I I #
loop $-1 $-1 $258 $62 #
coedge $-1 $160 $160 $161 $259 reversed $98 $-1 #
coedge $-1 $161 $161 $160 $259 forward $100 $-1 #
coedge $-1 $162 $162 $101 $163 forward $157 $-1 #
edge $-1 $260 3.8347232150861944e-015 $260 6.283185307179604 $162 $261 forward 7 unknown #
loop $-1 $-1 $169 $102 #
plane-surface $-1 65.133680855106377 -50.872217721108683 6.0068594840827672 0 -0.55919291073839883 0.82903756765294845 1 0 0 forward_v I I I I #
loop $-1 $-1 $262 $65 #
coedge $-1 $167 $167 $168 $263 reversed $103 $-1 #
coedge $-1 $168 $168 $167 $263 forward $105 $-1 #
coedge $-1 $169 $169 $106 $170 forward $164 $-1 #
edge $-1 $264 3.8347232150861944e-015 $264 6.283185307179604 $169 $265 forward 7 unknown #
face $-1 $266 $267 $36 $-1 $268 forward single #
loop $-1 $-1 $269 $107 #
plane-surface $-1 71.055944440299939 39.199343284736088 192.43431825843115 -1 0 0 0 0.51503808176128008 0.85716729658548041 forward_v I I I I #
coedge $-1 $270 $271 $272 $273 reversed $108 $-1 #
coedge $-1 $176 $110 $274 $275 reversed $69 $-1 #
coedge $-1 $110 $175 $270 $276 reversed $69 $-1 #
coedge $-1 $272 $277 $110 $178 forward $267 $-1 #
edge $-1 $278 -31.272546078740625 $279 -23.196415442164344 $177 $280 forward 7 unknown #
loop $-1 $-1 $184 $111 #
plane-surface $-1 61.21960004129059 -36.339784949512691 66.716099299650523 0 0.51503808176128008 0.85716729658548041 1 0 0 forward_v I I I I #
loop $-1 $-1 $281 $71 #
coedge $-1 $182 $182 $183 $282 reversed $112 $-1 #
coedge $-1 $183 $183 $182 $282 forward $114 $-1 #
coedge $-1 $184 $184 $115 $185 forward $179 $-1 #
edge $-1 $283 3.0583742316829887e-015 $283 6.2831853071796031 $184 $284 forward 7 unknown #
loop $-1 $-1 $191 $116 #
plane-surface $-1 61.21960004129059 -36.339784949512691 66.716099299650523 0 0.51503808176128008 0.85716729658548041 1 0 0 forward_v I I I I #
loop $-1 $-1 $285 $74 #
coedge $-1 $189 $189 $190 $286 reversed $117 $-1 #
coedge $-1 $190 $190 $189 $286 forward $119 $-1 #
coedge $-1 $191 $191 $120 $192 forward $186 $-1 #
edge $-1 $287 3.0583742316829887e-015 $287 6.2831853071796031 $191 $288 forward 7 unknown #
loop $-1 $-1 $198 $121 #
plane-surface $-1 61.21960004129059 -36.339784949512691 66.716099299650523 0 0.51503808176128008 0.85716729658548041 1 0 0 forward_v I I I I #
loop $-1 $-1 $289 $77 #
coedge $-1 $196 $196 $197 $290 reversed $122 $-1 #
coedge $-1 $197 $197 $196 $290 forward $124 $-1 #
coedge $-1 $198 $198 $125 $199 forward $193 $-1 #
edge $-1 $291 3.0583742316829887e-015 $291 6.2831853071796031 $198 $292 forward 7 unknown #
face $-1 $293 $294 $30 $-1 $295 reversed single #
loop $-1 $-1 $296 $126 #
plane-surface $-1 -73.333536790063164 0 0 1 0 0 0 0 -1 forward_v I I I I #
coedge $-1 $297 $211 $298 $299 forward $127 $-1 #
coedge $-1 $300 $129 $297 $301 forward $81 $-1 #
coedge $-1 $129 $300 $302 $303 forward $81 $-1 #
coedge $-1 $214 $213 $129 $207 reversed $215 $-1 #
edge $-1 $304 -50.872217721108669 $305 50.872217721108669 $206 $306 forward 7 unknown #
coedge $-1 $131 $130 $307 $308 forward $51 $-1 #
coedge $-1 $309 $310 $130 $210 reversed $294 $-1 #
edge $-1 $217 -73.333536790063164 $311 73.333536790063164 $209 $312 forward 7 unknown #
coedge $-1 $203 $313 $131 $212 reversed $127 $-1 #
edge $-1 $314 -73.333536790063164 $216 73.333536790063164 $211 $315 forward 7 unknown #
coedge $-1 $206 $132 $313 $316 forward $215 $-1 #
coedge $-1 $132 $206 $309 $317 reversed $215 $-1 #
loop $-1 $-1 $213 $293 #
vertex $-1 $133 $318 #
vertex $-1 $133 $319 #
straight-curve $-1 73.333536790063164 0 19.166469381103877 0 1 0 I I #
face $-1 $320 $321 $31 $-1 $322 forward single #
loop $-1 $-1 $323 $134 #
plane-surface $-1 0 0 -19.166469381103877 0 0 1 1 0 0 forward_v I I I I #
coedge $-1 $324 $325 $227 $326 forward $135 $-1 #
coedge $-1 $327 $137 $323 $328 reversed $85 $-1 #
coedge $-1 $137 $327 $329 $330 reversed $85 $-1 #
coedge $-1 $325 $324 $137 $226 reversed $135 $-1 #
edge $-1 $331 -19.166469381103877 $332 19.166469381103877 $225 $333 forward 7 unknown #
coedge $-1 $139 $138 $222 $326 reversed $54 $-1 #
coedge $-1 $334 $335 $138 $229 forward $220 $-1 #
edge $-1 $336 22.83363950407265 $235 41.277811358684559 $228 $337 forward 7 unknown #
coedge $-1 $338 $339 $139 $231 forward $321 $-1 #
edge $-1 $236 -41.277811358684559 $340 -22.83363950407265 $230 $341 forward 7 unknown #
coedge $-1 $342 $140 $339 $343 reversed $234 $-1 #
coedge $-1 $140 $342 $334 $344 reversed $234 $-1 #
loop $-1 $-1 $342 $320 #
vertex $-1 $344 $345 #
vertex $-1 $141 $346 #
straight-curve $-1 -73.333536790063164 -19.684381661356998 0 0 0 1 I I #
face $-1 $-1 $347 $32 $-1 $348 reversed single #
loop $-1 $-1 $244 $142 #
plane-surface $-1 0 0 19.166469381103877 0 0 1 1 0 0 forward_v I I I I #
coedge $-1 $349 $350 $243 $351 forward $143 $-1 #
coedge $-1 $243 $145 $147 $249 reversed $89 $-1 #
coedge $-1 $145 $242 $241 $351 reversed $89 $-1 #
coedge $-1 $352 $148 $145 $245 forward $239 $-1 #
edge $-1 $252 -35.081408657073695 $353 -15.571485031822547 $244 $354 forward 7 unknown #
coedge $-1 $147 $146 $349 $355 reversed $57 $-1 #
coedge $-1 $356 $357 $146 $248 forward $347 $-1 #
edge $-1 $358 -19.40799320065916 $251 4.1252269892109101 $247 $359 forward 7 unknown #
edge $-1 $360 1.7244626260799089e-014 $252 23.533220189870089 $242 $361 forward 7 unknown #
coedge $-1 $148 $352 $356 $362 forward $239 $-1 #
vertex $-1 $248 $363 #
vertex $-1 $149 $364 #
straight-curve $-1 32.566840427553188 -31.362294095857521 19.166469381103877 -1 0 0 I I #
coedge $-1 $254 $254 $-1 $365 reversed $152 $-1 #
edge $-1 $366 0 $366 6.2831853071796004 $153 $367 forward 7 unknown #
vertex $-1 $156 $368 #
ellipse-curve $-1 60.21376729413231 -41.117255908483095 12.586664432593331 0 -0.55919291073839883 0.82903756765294845 1 0 0 1 I I #
coedge $-1 $258 $258 $-1 $369 reversed $159 $-1 #
edge $-1 $370 0 $370 6.2831853071796004 $160 $371 forward 7 unknown #
vertex $-1 $163 $372 #
ellipse-curve $-1 65.133680855106377 -41.117255908483095 12.586664432593331 0 -0.55919291073839883 0.82903756765294845 1 0 0 1 I I #
coedge $-1 $262 $262 $-1 $373 reversed $166 $-1 #
edge $-1 $374 0 $374 6.2831853071796004 $167 $375 forward 7 unknown #
vertex $-1 $170 $376 #
ellipse-curve $-1 70.053594416080443 -41.117255908483095 12.586664432593331 0 -0.55919291073839883 0.82903756765294845 1 0 0 1 I I #
face $-1 $-1 $377 $36 $-1 $378 reversed single #
loop $-1 $-1 $177 $171 #
plane-surface $-1 0 0 19.166469381103877 0 0 1 1 0 0 forward_v I I I I #
coedge $-1 $379 $380 $381 $382 reversed $172 $-1 #
coedge $-1 $383 $174 $176 $276 forward $108 $-1 #
coedge $-1 $174 $383 $379 $384 forward $108 $-1 #
coedge $-1 $381 $177 $174 $273 forward $267 $-1 #
edge $-1 $279 20.773455621635946 $385 40.446144419654644 $272 $386 forward 7 unknown #
coedge $-1 $387 $388 $175 $275 forward $377 $-1 #
edge $-1 $389 -81.903318689609051 $278 -77.050689748111694 $274 $390 forward 7 unknown #
edge $-1 $279 92.322551676063981 $389 101.74443544221731 $176 $391 forward 7 unknown #
coedge $-1 $177 $381 $387 $392 forward $267 $-1 #
vertex $-1 $275 $393 #
vertex $-1 $178 $394 #
straight-curve $-1 51.383255642281242 19.599671642368044 19.16646938110388 0 -1 0 I I #
coedge $-1 $281 $281 $-1 $395 reversed $181 $-1 #
edge $-1 $396 0 $396 6.2831853071796004 $182 $397 forward 7 unknown #
vertex $-1 $185 $398 #
ellipse-curve $-1 55.317793401884956 46.834152402820521 16.740154910355198 0 0.51503808176128008 0.85716729658548041 1 0 0 1 I I #
coedge $-1 $285 $285 $-1 $399 reversed $188 $-1 #
edge $-1 $400 0 $400 6.2831853071796004 $189 $401 forward 7 unknown #
vertex $-1 $192 $402 #
ellipse-curve $-1 61.219600041290562 46.834152402820521 16.740154910355198 0 0.51503808176128008 0.85716729658548041 1 0 0 1 I I #
coedge $-1 $289 $289 $-1 $403 reversed $195 $-1 #
edge $-1 $404 0 $404 6.2831853071796004 $196 $405 forward 7 unknown #
vertex $-1 $199 $406 #
ellipse-curve $-1 67.121406680696168 46.834152402820521 16.740154910355198 0 0.51503808176128008 0.85716729658548041 1 0 0 1 I I #
face $-1 $-1 $215 $30 $-1 $407 reversed single #
loop $-1 $-1 $309 $200 #
plane-surface $-1 0 50.872217721108669 0 0 -1 0 0 0 -1 forward_v I I I I #
coedge $-1 $408 $307 $310 $409 forward $201 $-1 #
coedge $-1 $313 $203 $204 $301 reversed $127 $-1 #
coedge $-1 $307 $408 $203 $299 reversed $201 $-1 #
edge $-1 $314 -19.166469381103877 $410 19.166469381103877 $298 $411 forward 7 unknown #
coedge $-1 $205 $204 $408 $412 forward $81 $-1 #
edge $-1 $305 -73.333536790063164 $410 73.333536790063164 $297 $413 forward 7 unknown #
coedge $-1 $310 $309 $205 $303 reversed $294 $-1 #
edge $-1 $414 -73.333536790063164 $304 73.333536790063164 $302 $415 forward 7 unknown #
vertex $-1 $207 $416 #
vertex $-1 $316 $417 #
straight-curve $-1 73.333536790063164 0 -19.166469381103877 0 -1 0 I I #
coedge $-1 $296 $298 $208 $308 reversed $201 $-1 #
edge $-1 $311 -50.872217721108669 $314 50.872217721108669 $307 $418 forward 7 unknown #
coedge $-1 $302 $209 $214 $317 forward $294 $-1 #
coedge $-1 $209 $302 $296 $409 reversed $294 $-1 #
vertex $-1 $210 $419 #
straight-curve $-1 0 50.872217721108669 19.166469381103877 -1 0 0 I I #
coedge $-1 $211 $297 $213 $316 reversed $127 $-1 #
vertex $-1 $308 $420 #
straight-curve $-1 0 -50.872217721108669 19.166469381103877 1 0 0 I I #
edge $-1 $216 -19.166469381103877 $305 19.166469381103877 $213 $421 forward 7 unknown #
edge $-1 $217 -19.166469381103877 $304 19.166469381103877 $214 $422 forward 7 unknown #
point $-1 73.333536790063164 -50.872217721108669 19.166469381103877 #
point $-1 73.333536790063164 50.872217721108669 19.166469381103877 #
face $-1 $-1 $234 $31 $-1 $423 reversed single #
loop $-1 $-1 $329 $219 #
plane-surface $-1 0 0 19.166469381103877 0 0 1 1 0 0 forward_v I I I I #
coedge $-1 $335 $334 $223 $328 forward $220 $-1 #
coedge $-1 $225 $222 $335 $424 reversed $135 $-1 #
coedge $-1 $222 $225 $338 $425 reversed $135 $-1 #
edge $-1 $340 -19.166469381103877 $336 19.166469381103877 $222 $426 forward 7 unknown #
coedge $-1 $224 $223 $342 $427 reversed $85 $-1 #
edge $-1 $428 -41.277811358684559 $332 -22.83363950407265 $323 $429 forward 7 unknown #
coedge $-1 $339 $338 $224 $330 forward $321 $-1 #
edge $-1 $331 22.83363950407265 $430 41.277811358684559 $329 $431 forward 7 unknown #
vertex $-1 $330 $432 #
vertex $-1 $328 $433 #
straight-curve $-1 -54.889364935451255 -15.272239001312851 0 0 0 -1 I I #
coedge $-1 $323 $228 $233 $344 forward $220 $-1 #
coedge $-1 $228 $323 $324 $424 forward $220 $-1 #
vertex $-1 $229 $434 #
straight-curve $-1 -32.055725431378605 -19.684381661356998 -19.166469381103877 -1 0 0 I I #
coedge $-1 $329 $230 $325 $425 forward $321 $-1 #
coedge $-1 $230 $329 $232 $343 forward $321 $-1 #
vertex $-1 $231 $435 #
straight-curve $-1 -32.055725431378605 -19.684381661356998 19.166469381103877 1 0 0 I I #
coedge $-1 $233 $232 $327 $427 forward $234 $-1 #
edge $-1 $430 15.272239001312851 $236 19.684381661356998 $232 $436 forward 7 unknown #
edge $-1 $235 -19.684381661356998 $428 -15.272239001312851 $233 $437 forward 7 unknown #
point $-1 -73.333536790063164 -19.684381661356998 -19.166469381103877 #
point $-1 -73.333536790063164 -19.684381661356998 19.166469381103877 #
loop $-1 $-1 $247 $238 #
plane-surface $-1 73.333536790063164 0 0 -1 0 0 0 0 1 forward_v I I I I #
coedge $-1 $438 $241 $246 $355 forward $143 $-1 #
coedge $-1 $241 $438 $352 $439 reversed $143 $-1 #
edge $-1 $353 44.633217328759486 $360 57.792827225780584 $241 $440 forward 7 unknown #
coedge $-1 $250 $244 $350 $439 forward $239 $-1 #
vertex $-1 $439 $441 #
straight-curve $-1 56.93382492014959 -66.443702752931216 19.16646938110388 0 -1 0 I I #
edge $-1 $360 24.366984492596401 $358 40.766696362509975 $349 $442 forward 7 unknown #
coedge $-1 $357 $247 $250 $362 reversed $347 $-1 #
coedge $-1 $247 $356 $438 $443 forward $347 $-1 #
vertex $-1 $355 $444 #
straight-curve $-1 73.333536790063164 -34.782262245009235 16.859671693550428 0 0.82903756765294845 0.55919291073839883 I I #
vertex $-1 $355 $445 #
straight-curve $-1 56.93382492014959 -50.872217721108683 6.0068594840827672 0 0.82903756765294845 0.55919291073839883 I I #
edge $-1 $446 -50.872217721108669 $251 -31.362294095857525 $356 $447 forward 7 unknown #
point $-1 73.333536790063164 -31.362294095857525 19.166469381103877 #
point $-1 56.93382492014959 -31.362294095857525 19.166469381103877 #
edge $-1 $448 1 $448 0 $254 $-1 forward 7 unknown #
vertex $-1 $255 $449 #
ellipse-curve $-1 60.21376729413231 -39.88159436195992 10.754720888067441 0 -0.55919291073839883 0.82903756765294845 1 0 0 1 I I #
point $-1 61.21376729413231 -41.117255908483081 12.586664432593317 #
edge $-1 $450 1 $450 0 $258 $-1 forward 7 unknown #
vertex $-1 $259 $451 #
ellipse-curve $-1 65.133680855106377 -39.88159436195992 10.754720888067441 0 -0.55919291073839883 0.82903756765294845 1 0 0 1 I I #
point $-1 66.133680855106377 -41.117255908483081 12.586664432593317 #
edge $-1 $452 1 $452 0 $262 $-1 forward 7 unknown #
vertex $-1 $263 $453 #
ellipse-curve $-1 70.053594416080443 -39.88159436195992 10.754720888067441 0 -0.55919291073839883 0.82903756765294845 1 0 0 1 I I #
point $-1 71.053594416080443 -41.117255908483081 12.586664432593317 #
loop $-1 $-1 $274 $266 #
plane-surface $-1 0 50.872217721108669 0 0 -1 0 0 0 -1 forward_v I I I I #
coedge $-1 $380 $269 $271 $384 reversed $172 $-1 #
coedge $-1 $269 $379 $454 $455 reversed $172 $-1 #
coedge $-1 $277 $272 $269 $382 forward $267 $-1 #
edge $-1 $385 23.196415442164344 $456 31.272546078740625 $381 $457 forward 7 unknown #
coedge $-1 $271 $270 $388 $458 reversed $108 $-1 #
edge $-1 $459 -101.74443544221731 $385 -92.322551676063981 $379 $460 forward 7 unknown #
vertex $-1 $273 $461 #
straight-curve $-1 30.609800020645295 42.796087084532395 19.166469381103866 1 0 0 I I #
coedge $-1 $454 $274 $277 $392 reversed $377 $-1 #
coedge $-1 $274 $454 $383 $458 forward $377 $-1 #
vertex $-1 $275 $462 #
straight-curve $-1 51.383255642281242 50.872217721108669 96.217159129215574 0 0 1 I I #
straight-curve $-1 51.383255642281242 -36.339784949512691 66.716099299650523 0 0.85716729658548041 -0.51503808176128008 I I #
edge $-1 $456 -71.055944440299939 $278 -51.383255642281242 $387 $463 forward 7 unknown #
point $-1 51.383255642281242 50.872217721108669 19.166469381103877 #
point $-1 51.383255642281242 42.796087084532388 19.16646938110388 #
edge $-1 $464 1 $464 0 $281 $-1 forward 7 unknown #
vertex $-1 $282 $465 #
ellipse-curve $-1 55.317793401884956 46.250174319636912 15.768252185966601 0 0.51503808176128008 0.85716729658548041 1 0 0 1 I I #
point $-1 56.317793401884956 46.834152402820514 16.74015491035518 #
edge $-1 $466 1 $466 0 $285 $-1 forward 7 unknown #
vertex $-1 $286 $467 #
ellipse-curve $-1 61.219600041290562 46.250174319636912 15.768252185966601 0 0.51503808176128008 0.85716729658548041 1 0 0 1 I I #
point $-1 62.219600041290562 46.834152402820514 16.74015491035518 #
edge $-1 $468 1 $468 0 $289 $-1 forward 7 unknown #
vertex $-1 $290 $469 #
ellipse-curve $-1 67.121406680696168 46.250174319636912 15.768252185966601 0 0.51503808176128008 0.85716729658548041 1 0 0 1 I I #
point $-1 68.121406680696168 46.834152402820514 16.74015491035518 #
plane-surface $-1 73.333536790063164 0 0 -1 0 0 0 0 1 forward_v I I I I #
coedge $-1 $298 $296 $300 $412 reversed $201 $-1 #
edge $-1 $311 -19.166469381103877 $414 19.166469381103877 $310 $470 forward 7 unknown #
vertex $-1 $412 $471 #
straight-curve $-1 -73.333536790063164 -50.872217721108669 0 0 0 -1 I I #
edge $-1 $410 -50.872217721108669 $414 50.872217721108669 $408 $472 forward 7 unknown #
straight-curve $-1 0 -50.872217721108669 -19.166469381103877 -1 0 0 I I #
vertex $-1 $303 $473 #
straight-curve $-1 0 50.872217721108669 -19.166469381103877 1 0 0 I I #
point $-1 73.333536790063164 50.872217721108669 -19.166469381103877 #
point $-1 73.333536790063164 -50.872217721108669 -19.166469381103877 #
straight-curve $-1 -73.333536790063164 0 19.166469381103877 0 -1 0 I I #
point $-1 -73.333536790063164 50.872217721108669 19.166469381103877 #
point $-1 -73.333536790063164 -50.872217721108669 19.166469381103877 #
straight-curve $-1 73.333536790063164 -50.872217721108669 0 0 0 -1 I I #
straight-curve $-1 73.333536790063164 50.872217721108669 0 0 0 -1 I I #
plane-surface $-1 -73.333536790063164 0 0 1 0 0 0 0 -1 forward_v I I I I #
edge $-1 $332 6.5330838356453889 $336 10.945226495689536 $335 $474 forward 7 unknown #
edge $-1 $340 -10.945226495689536 $331 -6.5330838356453889 $338 $475 forward 7 unknown #
straight-curve $-1 -54.889364935451255 -19.684381661356998 0 0 0 -1 I I #
edge $-1 $430 -19.166469381103877 $428 19.166469381103877 $342 $476 forward 7 unknown #
vertex $-1 $427 $477 #
straight-curve $-1 -32.055725431378605 -15.272239001312851 -19.166469381103877 1 0 0 I I #
vertex $-1 $343 $478 #
straight-curve $-1 -32.055725431378605 -15.272239001312851 19.166469381103877 -1 0 0 I I #
point $-1 -54.889364935451255 -15.272239001312851 19.166469381103877 #
point $-1 -54.889364935451255 -15.272239001312851 -19.166469381103877 #
point $-1 -54.889364935451255 -19.684381661356998 -19.166469381103877 #
point $-1 -54.889364935451255 -19.684381661356998 19.166469381103877 #
straight-curve $-1 -73.333536790063164 0 19.166469381103877 0 -1 0 I I #
straight-curve $-1 -73.333536790063164 0 -19.166469381103877 0 1 0 I I #
coedge $-1 $350 $349 $357 $443 reversed $143 $-1 #
edge $-1 $353 56.93382492014959 $446 73.333536790063164 $350 $479 forward 7 unknown #
straight-curve $-1 56.93382492014959 -50.872217721108669 63.799686709863359 0 0 -1 I I #
point $-1 56.93382492014959 -50.872217721108669 19.166469381103877 #
straight-curve $-1 32.566840427553188 -50.872217721108669 6.0068594840827743 1 0 0 I I #
edge $-1 $446 -19.166469381103877 $358 -6.0068594840827769 $357 $480 forward 7 unknown #
point $-1 73.333536790063164 -50.872217721108669 6.0068594840827769 #
point $-1 56.93382492014959 -50.872217721108669 6.0068594840827769 #
vertex $-1 $362 $481 #
straight-curve $-1 73.333536790063164 0 19.166469381103877 0 1 0 I I #
vertex $-1 $365 $482 #
point $-1 61.21376729413231 -39.88159436195992 10.754720888067441 #
vertex $-1 $369 $483 #
point $-1 66.133680855106377 -39.88159436195992 10.754720888067441 #
vertex $-1 $373 $484 #
point $-1 71.053594416080443 -39.88159436195992 10.754720888067441 #
coedge $-1 $388 $387 $380 $455 forward $377 $-1 #
edge $-1 $456 77.050689748111694 $459 81.903318689609051 $454 $485 forward 7 unknown #
vertex $-1 $392 $486 #
straight-curve $-1 71.055944440299939 19.599671642368044 19.16646938110388 0 1 0 I I #
edge $-1 $459 -40.446144419654644 $389 -20.773455621635946 $388 $487 forward 7 unknown #
vertex $-1 $458 $488 #
straight-curve $-1 71.055944440299939 -36.339784949512691 66.716099299650523 0 -0.85716729658548041 0.51503808176128008 I I #
point $-1 71.055944440299939 42.796087084532388 19.16646938110388 #
point $-1 51.383255642281242 50.872217721108669 14.313840439606516 #
straight-curve $-1 0 50.872217721108669 19.166469381103877 -1 0 0 I I #
vertex $-1 $395 $489 #
point $-1 56.317793401884956 46.250174319636912 15.768252185966601 #
vertex $-1 $399 $490 #
point $-1 62.219600041290562 46.250174319636912 15.768252185966601 #
vertex $-1 $403 $491 #
point $-1 68.121406680696168 46.250174319636912 15.768252185966601 #
straight-curve $-1 -73.333536790063164 50.872217721108669 0 0 0 -1 I I #
point $-1 -73.333536790063164 -50.872217721108669 -19.166469381103877 #
straight-curve $-1 -73.333536790063164 0 -19.166469381103877 0 1 0 I I #
point $-1 -73.333536790063164 50.872217721108669 -19.166469381103877 #
straight-curve $-1 -54.889364935451255 -8.7391551656674622 -19.166469381103877 0 -1 0 I I #
straight-curve $-1 -54.889364935451255 -8.7391551656674622 19.166469381103877 0 1 0 I I #
straight-curve $-1 -73.333536790063164 -15.272239001312851 0 0 0 -1 I I #
point $-1 -73.333536790063164 -15.272239001312851 -19.166469381103877 #
point $-1 -73.333536790063164 -15.272239001312851 19.166469381103877 #
straight-curve $-1 0 -50.872217721108669 19.166469381103877 1 0 0 I I #
straight-curve $-1 73.333536790063164 -50.872217721108669 0 0 0 -1 I I #
point $-1 73.333536790063164 -50.872217721108669 19.166469381103877 #
point $-1 60.21376729413231 -39.322401451221516 9.9256833204144908 #
point $-1 65.133680855106377 -39.322401451221516 9.9256833204144908 #
point $-1 70.053594416080443 -39.322401451221516 9.9256833204144908 #
straight-curve $-1 71.055944440299939 50.872217721108669 96.217159129215574 0 0 -1 I I #
point $-1 71.055944440299939 50.872217721108669 19.166469381103877 #
straight-curve $-1 30.609800020645295 50.872217721108669 14.313840439606512 -1 0 0 I I #
point $-1 71.055944440299939 50.872217721108669 14.313840439606516 #
point $-1 55.317793401884956 45.735136237875636 14.911084889381124 #
point $-1 61.219600041290562 45.735136237875636 14.911084889381124 #
point $-1 67.121406680696168 45.735136237875636 14.911084889381124 #
End-of-ACIS-data 