500 0 8 0           
7 Unknown 11 ACIS 5.0 NT 24 Fri Mar 26 18:49:01 1999 
-1 9.9999999999999995e-007 1e-010 
body $-1 $8 $-1 $9 #
body $-1 $10 $-1 $11 #
body $-1 $12 $-1 $13 #
body $-1 $14 $-1 $15 #
body $-1 $16 $-1 $17 #
body $-1 $18 $-1 $19 #
body $-1 $20 $-1 $21 #
body $-1 $22 $-1 $23 #
lump $-1 $-1 $24 $0 #
transform $-1 1 0 0 0 1 0 0 0 1 79.925534836878569 45.145596985424348 15.353526081926125 1 rotate no_reflect no_shear #
lump $-1 $-1 $25 $1 #
transform $-1 1 0 0 0 1 0 0 0 1 79.925534836878569 45.145596985424348 15.353526081926125 1 rotate no_reflect no_shear #
lump $-1 $-1 $26 $2 #
transform $-1 1 0 0 0 1 0 0 0 1 79.925534836878569 45.145596985424348 15.353526081926125 1 rotate no_reflect no_shear #
lump $-1 $-1 $27 $3 #
transform $-1 1 0 0 0 1 0 0 0 1 79.925534836878569 45.145596985424348 15.353526081926125 1 rotate no_reflect no_shear #
lump $-1 $-1 $28 $4 #
transform $-1 1 0 0 0 1 0 0 0 1 79.925534836878569 45.145596985424348 15.353526081926125 1 rotate no_reflect no_shear #
lump $-1 $-1 $29 $5 #
transform $-1 1 0 0 0 1 0 0 0 1 79.925534836878569 45.145596985424348 15.353526081926125 1 rotate no_reflect no_shear #
lump $-1 $-1 $30 $6 #
transform $-1 1 0 0 0 1 0 0 0 1 79.925534836878569 45.145596985424348 15.353526081926125 1 rotate no_reflect no_shear #
lump $-1 $-1 $31 $7 #
transform $-1 1 0 0 0 1 0 0 0 1 79.925534836878569 45.145596985424348 15.353526081926125 1 rotate no_reflect no_shear #
shell $-1 $-1 $-1 $32 $-1 $8 #
shell $-1 $-1 $-1 $33 $-1 $10 #
shell $-1 $-1 $-1 $34 $-1 $12 #
shell $-1 $-1 $-1 $35 $-1 $14 #
shell $-1 $-1 $-1 $36 $-1 $16 #
shell $-1 $-1 $-1 $37 $-1 $18 #
shell $-1 $-1 $-1 $38 $-1 $20 #
shell $-1 $-1 $-1 $39 $-1 $22 #
face $-1 $40 $41 $24 $-1 $42 forward single #
face $-1 $43 $44 $25 $-1 $45 reversed single #
face $-1 $46 $47 $26 $-1 $48 reversed single #
face $-1 $49 $50 $27 $-1 $51 forward single #
face $-1 $52 $53 $28 $-1 $54 forward single #
face $-1 $55 $56 $29 $-1 $57 reversed single #
face $-1 $58 $59 $30 $-1 $60 forward single #
face $-1 $61 $62 $31 $-1 $63 forward single #
face $-1 $64 $65 $24 $-1 $66 reversed single #
loop $-1 $-1 $67 $32 #
plane-surface $-1 0 0 15.353526081926125 0 0 1 1 0 0 forward_v I I I I #
face $-1 $68 $69 $25 $-1 $70 reversed single #
loop $-1 $-1 $71 $33 #
plane-surface $-1 0 -38.64322148559031 9.4472424348824919 0 0 1 1 0 0 forward_v I I I I #
face $-1 $72 $73 $26 $-1 $74 reversed single #
loop $-1 $-1 $75 $34 #
plane-surface $-1 -37.462335100519297 121.39599901778759 173.16934378626286 1 0 0 0 -0.80901700255871778 -0.5877852410284794 forward_v I I I I #
face $-1 $76 $77 $27 $-1 $78 forward single #
loop $-1 $79 $80 $35 #
cone-surface $-1 -26.758810786085213 39.108294041854123 8.7978473251817917 0 -0.80901700255871778 -0.5877852410284794 2 0 0 1 I I 0 1 2 forward I I I I #
face $-1 $81 $82 $28 $-1 $83 forward single #
loop $-1 $84 $85 $36 #
cone-surface $-1 -10.703524314434077 39.108294041854123 8.7978473251817917 0 -0.80901700255871778 -0.5877852410284794 2 0 0 1 I I 0 1 2 forward I I I I #
face $-1 $86 $87 $29 $-1 $88 reversed single #
loop $-1 $-1 $89 $37 #
plane-surface $-1 61.194367286618927 -7.9262342254801723 79.211244269413271 0 0.80901700255871778 0.5877852410284794 1 0 0 forward_v I I I I #
face $-1 $90 $91 $30 $-1 $92 forward single #
loop $-1 $93 $94 $38 #
cone-surface $-1 53.166724050793363 39.108294041854123 8.7978473251817917 0 -0.80901700255871778 -0.5877852410284794 2 0 0 1 I I 0 1 2 forward I I I I #
face $-1 $95 $96 $31 $-1 $97 forward single #
loop $-1 $98 $99 $39 #
cone-surface $-1 69.222010522444492 39.108294041854123 8.7978473251817917 0 -0.80901700255871778 -0.5877852410284794 2 0 0 1 I I 0 1 2 forward I I I I #
face $-1 $100 $101 $24 $-1 $102 reversed single #
loop $-1 $-1 $103 $40 #
plane-surface $-1 0 0 -15.353526081926125 0 0 1 1 0 0 forward_v I I I I #
coedge $-1 $104 $105 $106 $107 forward $41 $-1 #
face $-1 $108 $109 $25 $-1 $110 reversed single #
loop $-1 $-1 $111 $43 #
plane-surface $-1 0 -32.140845985756272 12.40038425840431 0 -1 0 0 0 -1 forward_v I I I I #
coedge $-1 $112 $113 $114 $115 reversed $44 $-1 #
face $-1 $116 $117 $26 $-1 $118 reversed single #
loop $-1 $-1 $119 $46 #
plane-surface $-1 -18.731167550259649 -7.9262342254801723 79.211244269413271 0 0.80901700255871778 0.5877852410284794 1 0 0 forward_v I I I I #
coedge $-1 $120 $121 $122 $123 reversed $47 $-1 #
face $-1 $-1 $124 $27 $-1 $125 forward single #
loop $-1 $126 $127 $49 #
cone-surface $-1 -26.758810786085213 35.60021637809011 6.249079785537285 0 -0.80901700255871778 -0.5877852410284794 1 0 0 1 I I -0.70710678118654746 0.70710678118654746 1 forward I I I I #
loop $-1 $-1 $128 $35 #
coedge $-1 $80 $80 $129 $130 reversed $50 $-1 #
face $-1 $-1 $131 $28 $-1 $132 forward single #
loop $-1 $133 $134 $52 #
cone-surface $-1 -10.703524314434077 35.60021637809011 6.249079785537285 0 -0.80901700255871778 -0.5877852410284794 1 0 0 1 I I -0.70710678118654746 0.70710678118654746 1 forward I I I I #
loop $-1 $-1 $135 $36 #
coedge $-1 $85 $85 $136 $137 reversed $53 $-1 #
face $-1 $138 $139 $29 $-1 $140 forward single #
loop $-1 $-1 $141 $55 #
plane-surface $-1 42.463199736359279 121.39599901778759 173.16934378626286 1 0 0 0 -0.80901700255871778 -0.5877852410284794 forward_v I I I I #
coedge $-1 $142 $143 $144 $145 reversed $56 $-1 #
face $-1 $-1 $146 $30 $-1 $147 forward single #
loop $-1 $148 $149 $58 #
cone-surface $-1 53.166724050793363 35.60021637809011 6.249079785537285 0 -0.80901700255871778 -0.5877852410284794 1 0 0 1 I I -0.70710678118654746 0.70710678118654746 1 forward I I I I #
loop $-1 $-1 $150 $38 #
coedge $-1 $94 $94 $151 $152 reversed $59 $-1 #
face $-1 $-1 $153 $31 $-1 $154 forward single #
loop $-1 $155 $156 $61 #
cone-surface $-1 69.222010522444492 35.60021637809011 6.249079785537285 0 -0.80901700255871778 -0.5877852410284794 1 0 0 1 I I -0.70710678118654746 0.70710678118654746 1 forward I I I I #
loop $-1 $-1 $157 $39 #
coedge $-1 $99 $99 $158 $159 reversed $62 $-1 #
face $-1 $160 $161 $24 $-1 $162 reversed single #
loop $-1 $-1 $163 $64 #
plane-surface $-1 0 -45.145596985424348 0 0 1 0 0 0 1 forward_v I I I I #
coedge $-1 $164 $165 $166 $167 forward $65 $-1 #
coedge $-1 $168 $67 $169 $170 forward $41 $-1 #
coedge $-1 $67 $168 $171 $172 forward $41 $-1 #
coedge $-1 $173 $174 $67 $107 reversed $175 $-1 #
edge $-1 $176 -45.145596985424348 $177 45.145596985424348 $106 $178 forward 7 unknown #
face $-1 $179 $180 $25 $-1 $181 reversed single #
loop $-1 $-1 $182 $68 #
plane-surface $-1 -79.925534836878569 0 0 1 0 0 0 0 -1 forward_v I I I I #
coedge $-1 $183 $184 $185 $186 reversed $69 $-1 #
coedge $-1 $187 $71 $188 $189 reversed $44 $-1 #
coedge $-1 $71 $187 $183 $190 forward $44 $-1 #
coedge $-1 $185 $191 $71 $115 forward $192 $-1 #
edge $-1 $193 -25.823986242629193 $194 -12.819235242961117 $114 $195 forward 7 unknown #
face $-1 $196 $197 $26 $-1 $198 forward single #
loop $-1 $-1 $199 $72 #
plane-surface $-1 0 121.39599901778759 173.16934378626286 -1 0 0 0 0.80901700255871778 0.5877852410284794 forward_v I I I I #
coedge $-1 $200 $201 $202 $203 reversed $73 $-1 #
coedge $-1 $121 $75 $204 $205 reversed $47 $-1 #
coedge $-1 $75 $120 $200 $206 reversed $47 $-1 #
coedge $-1 $202 $207 $75 $123 forward $197 $-1 #
edge $-1 $208 15.552402523469446 $209 22.228887088199357 $122 $210 forward 7 unknown #
loop $-1 $-1 $129 $76 #
plane-surface $-1 -18.731167550259649 -7.9262342254801723 79.211244269413271 0 0.80901700255871778 0.5877852410284794 1 0 0 forward_v I I I I #
loop $-1 $-1 $211 $49 #
coedge $-1 $127 $127 $128 $212 reversed $77 $-1 #
coedge $-1 $128 $128 $127 $212 forward $79 $-1 #
coedge $-1 $129 $129 $80 $130 forward $124 $-1 #
edge $-1 $213 -2.6968665012189657e-016 $213 6.2831853071796004 $129 $214 forward 7 unknown #
loop $-1 $-1 $136 $81 #
plane-surface $-1 -18.731167550259649 -7.9262342254801723 79.211244269413271 0 0.80901700255871778 0.5877852410284794 1 0 0 forward_v I I I I #
loop $-1 $-1 $215 $52 #
coedge $-1 $134 $134 $135 $216 reversed $82 $-1 #
coedge $-1 $135 $135 $134 $216 forward $84 $-1 #
coedge $-1 $136 $136 $85 $137 forward $131 $-1 #
edge $-1 $217 -2.6968665012189657e-016 $217 6.2831853071796004 $136 $218 forward 7 unknown #
face $-1 $219 $220 $29 $-1 $221 reversed single #
loop $-1 $-1 $222 $86 #
plane-surface $-1 0 0 15.353526081926125 0 0 1 1 0 0 forward_v I I I I #
coedge $-1 $223 $224 $225 $226 reversed $87 $-1 #
coedge $-1 $227 $89 $228 $229 reversed $56 $-1 #
coedge $-1 $89 $227 $223 $230 forward $56 $-1 #
coedge $-1 $225 $231 $89 $145 forward $232 $-1 #
edge $-1 $233 -49.328351193569105 $234 -11.866016093049815 $144 $235 forward 7 unknown #
loop $-1 $-1 $151 $90 #
plane-surface $-1 61.194367286618927 -7.9262342254801723 79.211244269413271 0 0.80901700255871778 0.5877852410284794 1 0 0 forward_v I I I I #
loop $-1 $-1 $236 $58 #
coedge $-1 $149 $149 $150 $237 reversed $91 $-1 #
coedge $-1 $150 $150 $149 $237 forward $93 $-1 #
coedge $-1 $151 $151 $94 $152 forward $146 $-1 #
edge $-1 $238 -2.6968665012189657e-016 $238 6.2831853071796004 $151 $239 forward 7 unknown #
loop $-1 $-1 $158 $95 #
plane-surface $-1 61.194367286618927 -7.9262342254801723 79.211244269413271 0 0.80901700255871778 0.5877852410284794 1 0 0 forward_v I I I I #
loop $-1 $-1 $240 $61 #
coedge $-1 $156 $156 $157 $241 reversed $96 $-1 #
coedge $-1 $157 $157 $156 $241 forward $98 $-1 #
coedge $-1 $158 $158 $99 $159 forward $153 $-1 #
edge $-1 $242 -2.6968665012189657e-016 $242 6.2831853071796004 $158 $243 forward 7 unknown #
face $-1 $244 $245 $24 $-1 $246 reversed single #
loop $-1 $-1 $247 $100 #
plane-surface $-1 -79.925534836878569 0 0 1 0 0 0 0 -1 forward_v I I I I #
coedge $-1 $248 $171 $249 $250 forward $101 $-1 #
coedge $-1 $251 $103 $248 $252 forward $65 $-1 #
coedge $-1 $103 $251 $253 $254 forward $65 $-1 #
coedge $-1 $174 $173 $103 $167 reversed $175 $-1 #
edge $-1 $255 -45.145596985424348 $256 45.145596985424348 $166 $257 forward 7 unknown #
coedge $-1 $105 $104 $258 $259 forward $41 $-1 #
coedge $-1 $260 $261 $104 $170 reversed $245 $-1 #
edge $-1 $177 -79.925534836878569 $262 79.925534836878569 $169 $263 forward 7 unknown #
coedge $-1 $163 $264 $105 $172 reversed $101 $-1 #
edge $-1 $265 -79.925534836878569 $176 79.925534836878569 $171 $266 forward 7 unknown #
coedge $-1 $166 $106 $264 $267 forward $175 $-1 #
coedge $-1 $106 $166 $260 $268 reversed $175 $-1 #
loop $-1 $-1 $173 $244 #
vertex $-1 $107 $269 #
vertex $-1 $107 $270 #
straight-curve $-1 79.925534836878569 0 15.353526081926125 0 1 0 I I #
face $-1 $271 $272 $25 $-1 $273 forward single #
loop $-1 $-1 $188 $108 #
plane-surface $-1 0 -45.145596985424348 0 0 1 0 0 0 1 forward_v I I I I #
coedge $-1 $274 $275 $276 $277 forward $109 $-1 #
coedge $-1 $276 $111 $113 $190 reversed $69 $-1 #
coedge $-1 $111 $276 $278 $279 reversed $69 $-1 #
coedge $-1 $280 $114 $111 $186 forward $192 $-1 #
edge $-1 $194 3.2470503056803368 $281 9.1533339527239725 $185 $282 forward 7 unknown #
coedge $-1 $113 $112 $274 $283 reversed $44 $-1 #
coedge $-1 $284 $285 $112 $189 forward $180 $-1 #
edge $-1 $286 -79.925534836878569 $193 79.925534836878569 $188 $287 forward 7 unknown #
edge $-1 $288 -79.925534836878569 $194 79.925534836878569 $183 $289 forward 7 unknown #
coedge $-1 $114 $280 $284 $290 forward $192 $-1 #
loop $-1 $-1 $185 $271 #
vertex $-1 $189 $291 #
vertex $-1 $115 $292 #
straight-curve $-1 79.925534836878569 -19.321610742795155 9.4472424348824919 0 1 0 I I #
face $-1 $-1 $293 $26 $-1 $294 reversed single #
loop $-1 $-1 $122 $116 #
plane-surface $-1 0 0 15.353526081926125 0 0 1 1 0 0 forward_v I I I I #
coedge $-1 $295 $296 $297 $298 reversed $117 $-1 #
coedge $-1 $299 $119 $121 $206 forward $73 $-1 #
coedge $-1 $119 $299 $295 $300 forward $73 $-1 #
coedge $-1 $297 $122 $119 $203 forward $197 $-1 #
edge $-1 $209 -28.096751325389473 $301 9.3655837751298243 $202 $302 forward 7 unknown #
coedge $-1 $303 $304 $120 $205 forward $293 $-1 #
edge $-1 $305 -80.420538727461988 $208 -71.231145811205309 $204 $306 forward 7 unknown #
edge $-1 $209 78.932479769301764 $305 90.291193970848752 $121 $307 forward 7 unknown #
coedge $-1 $122 $297 $303 $308 forward $197 $-1 #
vertex $-1 $205 $309 #
vertex $-1 $123 $310 #
straight-curve $-1 -37.462335100519297 60.697999508893794 15.35352608192612 0 -1 0 I I #
coedge $-1 $211 $211 $-1 $311 reversed $126 $-1 #
edge $-1 $312 0 $312 6.2831853071796004 $127 $313 forward 7 unknown #
vertex $-1 $130 $314 #
ellipse-curve $-1 -26.758810786085213 41.807354703059389 10.758829623797794 0 0.80901700255871778 0.5877852410284794 2 0 0 1 I I #
coedge $-1 $215 $215 $-1 $315 reversed $133 $-1 #
edge $-1 $316 0 $316 6.2831853071796004 $134 $317 forward 7 unknown #
vertex $-1 $137 $318 #
ellipse-curve $-1 -10.703524314434077 41.807354703059389 10.758829623797794 0 0.80901700255871778 0.5877852410284794 2 0 0 1 I I #
face $-1 $-1 $232 $29 $-1 $319 reversed single #
loop $-1 $-1 $228 $138 #
plane-surface $-1 79.925534836878569 0 0 -1 0 0 0 0 1 forward_v I I I I #
coedge $-1 $320 $321 $224 $322 forward $139 $-1 #
coedge $-1 $224 $141 $143 $230 reversed $87 $-1 #
coedge $-1 $141 $223 $222 $322 reversed $87 $-1 #
coedge $-1 $323 $144 $141 $226 forward $232 $-1 #
edge $-1 $234 -80.420538727461988 $324 -71.231145811205309 $225 $325 forward 7 unknown #
coedge $-1 $143 $142 $320 $326 reversed $56 $-1 #
coedge $-1 $327 $328 $142 $229 forward $220 $-1 #
edge $-1 $329 44.56139631807217 $233 55.920110519619165 $228 $330 forward 7 unknown #
edge $-1 $331 78.932479769301764 $234 90.291193970848752 $223 $332 forward 7 unknown #
coedge $-1 $144 $323 $327 $333 forward $232 $-1 #
loop $-1 $-1 $225 $219 #
vertex $-1 $229 $334 #
vertex $-1 $145 $335 #
straight-curve $-1 30.597183643309464 45.145596985424348 6.1641331656694476 -1 0 0 I I #
coedge $-1 $236 $236 $-1 $336 reversed $148 $-1 #
edge $-1 $337 0 $337 6.2831853071796004 $149 $338 forward 7 unknown #
vertex $-1 $152 $339 #
ellipse-curve $-1 53.166724050793363 41.807354703059389 10.758829623797794 0 0.80901700255871778 0.5877852410284794 2 0 0 1 I I #
coedge $-1 $240 $240 $-1 $340 reversed $155 $-1 #
edge $-1 $341 0 $341 6.2831853071796004 $156 $342 forward 7 unknown #
vertex $-1 $159 $343 #
ellipse-curve $-1 69.222010522444492 41.807354703059389 10.758829623797794 0 0.80901700255871778 0.5877852410284794 2 0 0 1 I I #
face $-1 $-1 $175 $24 $-1 $344 reversed single #
loop $-1 $-1 $260 $160 #
plane-surface $-1 0 45.145596985424348 0 0 -1 0 0 0 -1 forward_v I I I I #
coedge $-1 $345 $258 $261 $346 forward $161 $-1 #
coedge $-1 $264 $163 $164 $252 reversed $101 $-1 #
coedge $-1 $258 $345 $163 $250 reversed $161 $-1 #
edge $-1 $265 -15.353526081926125 $347 15.353526081926125 $249 $348 forward 7 unknown #
coedge $-1 $165 $164 $345 $349 forward $65 $-1 #
edge $-1 $256 -79.925534836878569 $347 79.925534836878569 $248 $350 forward 7 unknown #
coedge $-1 $261 $260 $165 $254 reversed $245 $-1 #
edge $-1 $351 -79.925534836878569 $255 79.925534836878569 $253 $352 forward 7 unknown #
vertex $-1 $167 $353 #
vertex $-1 $267 $354 #
straight-curve $-1 79.925534836878569 0 -15.353526081926125 0 -1 0 I I #
coedge $-1 $247 $249 $168 $259 reversed $161 $-1 #
edge $-1 $262 -45.145596985424348 $265 45.145596985424348 $258 $355 forward 7 unknown #
coedge $-1 $253 $169 $174 $268 forward $245 $-1 #
coedge $-1 $169 $253 $247 $346 reversed $245 $-1 #
vertex $-1 $170 $356 #
straight-curve $-1 0 45.145596985424348 15.353526081926125 -1 0 0 I I #
coedge $-1 $171 $248 $173 $267 reversed $101 $-1 #
vertex $-1 $259 $357 #
straight-curve $-1 0 -45.145596985424348 15.353526081926125 1 0 0 I I #
edge $-1 $176 -15.353526081926125 $256 15.353526081926125 $173 $358 forward 7 unknown #
edge $-1 $177 -15.353526081926125 $255 15.353526081926125 $174 $359 forward 7 unknown #
point $-1 79.925534836878569 -45.145596985424348 15.353526081926125 #
point $-1 79.925534836878569 45.145596985424348 15.353526081926125 #
face $-1 $-1 $192 $25 $-1 $360 reversed single #
loop $-1 $-1 $278 $179 #
plane-surface $-1 0 0 15.353526081926125 0 0 1 1 0 0 forward_v I I I I #
coedge $-1 $361 $182 $187 $283 forward $109 $-1 #
coedge $-1 $182 $361 $362 $363 reversed $109 $-1 #
coedge $-1 $184 $183 $182 $277 reversed $69 $-1 #
edge $-1 $364 -9.1533339527239725 $288 -3.2470503056803368 $182 $365 forward 7 unknown #
coedge $-1 $362 $366 $184 $279 forward $272 $-1 #
edge $-1 $281 -79.925534836878569 $364 79.925534836878569 $278 $367 forward 7 unknown #
coedge $-1 $191 $185 $366 $368 reversed $192 $-1 #
vertex $-1 $186 $369 #
straight-curve $-1 79.925534836878569 -32.140845985756272 6.2001921292021551 0 0 1 I I #
edge $-1 $288 12.819235242961117 $286 25.823986242629193 $274 $370 forward 7 unknown #
coedge $-1 $371 $188 $191 $290 reversed $180 $-1 #
coedge $-1 $188 $371 $361 $372 forward $180 $-1 #
vertex $-1 $189 $373 #
straight-curve $-1 0 -45.145596985424348 9.4472424348824919 1 0 0 I I #
vertex $-1 $283 $374 #
straight-curve $-1 0 -32.140845985756272 9.4472424348824919 1 0 0 I I #
edge $-1 $375 -15.353526081926125 $193 -9.4472424348824919 $191 $376 forward 7 unknown #
point $-1 79.925534836878569 -45.145596985424348 9.4472424348824919 #
point $-1 79.925534836878569 -32.140845985756272 9.4472424348824919 #
loop $-1 $-1 $204 $196 #
plane-surface $-1 0 45.145596985424348 0 0 -1 0 0 0 -1 forward_v I I I I #
coedge $-1 $296 $199 $201 $300 reversed $117 $-1 #
coedge $-1 $199 $295 $377 $378 reversed $117 $-1 #
coedge $-1 $207 $202 $199 $298 forward $197 $-1 #
edge $-1 $301 -22.228887088199357 $379 -15.552402523469446 $297 $380 forward 7 unknown #
coedge $-1 $201 $200 $304 $381 reversed $73 $-1 #
edge $-1 $382 -90.291193970848752 $301 -78.932479769301764 $295 $383 forward 7 unknown #
vertex $-1 $203 $384 #
straight-curve $-1 -9.3655837751298243 38.469112420694429 15.353526081926134 1 0 0 I I #
coedge $-1 $377 $204 $207 $308 reversed $293 $-1 #
coedge $-1 $204 $377 $299 $381 forward $293 $-1 #
vertex $-1 $205 $385 #
straight-curve $-1 -37.462335100519297 45.145596985424348 86.584671893131429 0 0 1 I I #
straight-curve $-1 -37.462335100519297 -7.9262342254801723 79.211244269413271 0 0.5877852410284794 -0.80901700255871778 I I #
edge $-1 $379 0 $208 37.462335100519297 $303 $386 forward 7 unknown #
point $-1 -37.462335100519297 45.145596985424348 15.353526081926125 #
point $-1 -37.462335100519297 38.469112420694437 15.353526081926127 #
edge $-1 $387 1 $387 0 $211 $-1 forward 7 unknown #
vertex $-1 $212 $388 #
ellipse-curve $-1 -26.758810786085213 36.409233380648828 6.8368650265657642 0 0.80901700255871778 0.5877852410284794 2 0 0 1 I I #
point $-1 -24.758810786085213 41.807354703059417 10.758829623797816 #
edge $-1 $389 1 $389 0 $215 $-1 forward 7 unknown #
vertex $-1 $216 $390 #
ellipse-curve $-1 -10.703524314434077 36.409233380648828 6.8368650265657642 0 0.80901700255871778 0.5877852410284794 2 0 0 1 I I #
point $-1 -8.7035243144340768 41.807354703059417 10.758829623797816 #
plane-surface $-1 0 45.145596985424348 0 0 -1 0 0 0 -1 forward_v I I I I #
coedge $-1 $391 $222 $227 $326 forward $139 $-1 #
coedge $-1 $222 $391 $323 $392 forward $139 $-1 #
edge $-1 $324 15.552402523469446 $331 22.228887088199357 $222 $393 forward 7 unknown #
coedge $-1 $231 $225 $321 $392 reversed $232 $-1 #
vertex $-1 $322 $394 #
straight-curve $-1 42.463199736359279 45.145596985424348 86.584671893131429 0 0 1 I I #
edge $-1 $331 11.866016093049815 $329 49.328351193569105 $320 $395 forward 7 unknown #
coedge $-1 $328 $228 $231 $333 reversed $220 $-1 #
coedge $-1 $228 $327 $391 $396 reversed $220 $-1 #
vertex $-1 $396 $397 #
straight-curve $-1 79.925534836878569 12.276581345310792 51.404453361003959 0 0.5877852410284794 -0.80901700255871778 I I #
vertex $-1 $326 $398 #
straight-curve $-1 42.463199736359279 -7.9262342254801723 79.211244269413271 0 0.5877852410284794 -0.80901700255871778 I I #
edge $-1 $399 -15.353526081926125 $233 -6.1641331656694405 $327 $400 forward 7 unknown #
point $-1 79.925534836878569 45.145596985424348 6.1641331656694405 #
point $-1 42.463199736359279 45.145596985424348 6.1641331656694405 #
edge $-1 $401 1 $401 0 $236 $-1 forward 7 unknown #
vertex $-1 $237 $402 #
ellipse-curve $-1 53.166724050793363 36.409233380648828 6.8368650265657642 0 0.80901700255871778 0.5877852410284794 2 0 0 1 I I #
point $-1 55.166724050793363 41.807354703059417 10.758829623797816 #
edge $-1 $403 1 $403 0 $240 $-1 forward 7 unknown #
vertex $-1 $241 $404 #
ellipse-curve $-1 69.222010522444492 36.409233380648828 6.8368650265657642 0 0.80901700255871778 0.5877852410284794 2 0 0 1 I I #
point $-1 71.222010522444492 41.807354703059417 10.758829623797816 #
plane-surface $-1 79.925534836878569 0 0 -1 0 0 0 0 1 forward_v I I I I #
coedge $-1 $249 $247 $251 $349 reversed $161 $-1 #
edge $-1 $262 -15.353526081926125 $351 15.353526081926125 $261 $405 forward 7 unknown #
vertex $-1 $349 $406 #
straight-curve $-1 -79.925534836878569 -45.145596985424348 0 0 0 -1 I I #
edge $-1 $347 -45.145596985424348 $351 45.145596985424348 $345 $407 forward 7 unknown #
straight-curve $-1 0 -45.145596985424348 -15.353526081926125 -1 0 0 I I #
vertex $-1 $254 $408 #
straight-curve $-1 0 45.145596985424348 -15.353526081926125 1 0 0 I I #
point $-1 79.925534836878569 45.145596985424348 -15.353526081926125 #
point $-1 79.925534836878569 -45.145596985424348 -15.353526081926125 #
straight-curve $-1 -79.925534836878569 0 15.353526081926125 0 -1 0 I I #
point $-1 -79.925534836878569 45.145596985424348 15.353526081926125 #
point $-1 -79.925534836878569 -45.145596985424348 15.353526081926125 #
straight-curve $-1 79.925534836878569 -45.145596985424348 0 0 0 -1 I I #
straight-curve $-1 79.925534836878569 45.145596985424348 0 0 0 -1 I I #
plane-surface $-1 79.925534836878569 0 0 -1 0 0 0 0 1 forward_v I I I I #
coedge $-1 $275 $274 $285 $372 reversed $109 $-1 #
coedge $-1 $409 $278 $275 $363 forward $272 $-1 #
edge $-1 $364 32.140845985756272 $410 45.145596985424348 $275 $411 forward 7 unknown #
vertex $-1 $363 $412 #
straight-curve $-1 -79.925534836878569 -32.140845985756272 6.2001921292021551 0 0 -1 I I #
coedge $-1 $278 $409 $280 $368 forward $272 $-1 #
straight-curve $-1 0 -32.140845985756272 15.353526081926125 -1 0 0 I I #
edge $-1 $375 -45.145596985424348 $281 -32.140845985756272 $280 $413 forward 7 unknown #
point $-1 79.925534836878569 -32.140845985756272 15.353526081926129 #
straight-curve $-1 -79.925534836878569 -19.321610742795155 9.4472424348824919 0 -1 0 I I #
coedge $-1 $285 $284 $409 $414 reversed $180 $-1 #
edge $-1 $410 -15.353526081926125 $286 -9.4472424348824919 $361 $415 forward 7 unknown #
point $-1 -79.925534836878569 -45.145596985424348 9.4472424348824919 #
point $-1 -79.925534836878569 -32.140845985756272 9.4472424348824919 #
vertex $-1 $368 $416 #
straight-curve $-1 79.925534836878569 -45.145596985424348 0 0 0 -1 I I #
coedge $-1 $304 $303 $296 $378 forward $293 $-1 #
edge $-1 $379 71.231145811205309 $382 80.420538727461988 $377 $417 forward 7 unknown #
vertex $-1 $308 $418 #
straight-curve $-1 0 60.697999508893794 15.35352608192612 0 1 0 I I #
edge $-1 $382 -9.3655837751298243 $305 28.096751325389473 $304 $419 forward 7 unknown #
vertex $-1 $381 $420 #
straight-curve $-1 0 -7.9262342254801723 79.211244269413271 0 -0.5877852410284794 0.80901700255871778 I I #
point $-1 0 38.469112420694437 15.353526081926127 #
point $-1 -37.462335100519297 45.145596985424348 6.1641331656694405 #
straight-curve $-1 0 45.145596985424348 15.353526081926125 -1 0 0 I I #
vertex $-1 $311 $421 #
point $-1 -24.758810786085213 36.409233380648828 6.8368650265657642 #
vertex $-1 $315 $422 #
point $-1 -8.7035243144340768 36.409233380648828 6.8368650265657642 #
coedge $-1 $321 $320 $328 $396 forward $139 $-1 #
edge $-1 $399 -79.925534836878569 $324 -42.463199736359279 $323 $423 forward 7 unknown #
straight-curve $-1 42.463199736359279 60.697999508893794 15.35352608192612 0 -1 0 I I #
point $-1 42.463199736359279 45.145596985424348 15.353526081926125 #
straight-curve $-1 30.597183643309464 38.469112420694429 15.353526081926134 1 0 0 I I #
edge $-1 $329 38.469112420694437 $399 45.145596985424348 $328 $424 forward 7 unknown #
point $-1 79.925534836878569 38.469112420694437 15.353526081926127 #
point $-1 42.463199736359279 38.469112420694437 15.353526081926127 #
vertex $-1 $396 $425 #
straight-curve $-1 79.925534836878569 45.145596985424348 0 0 0 -1 I I #
vertex $-1 $336 $426 #
point $-1 55.166724050793363 36.409233380648828 6.8368650265657642 #
vertex $-1 $340 $427 #
point $-1 71.222010522444492 36.409233380648828 6.8368650265657642 #
straight-curve $-1 -79.925534836878569 45.145596985424348 0 0 0 -1 I I #
point $-1 -79.925534836878569 -45.145596985424348 -15.353526081926125 #
straight-curve $-1 -79.925534836878569 0 -15.353526081926125 0 1 0 I I #
point $-1 -79.925534836878569 45.145596985424348 -15.353526081926125 #
coedge $-1 $366 $362 $371 $414 forward $272 $-1 #
vertex $-1 $363 $428 #
straight-curve $-1 -79.925534836878569 0 15.353526081926125 0 -1 0 I I #
point $-1 -79.925534836878569 -32.140845985756272 15.353526081926129 #
straight-curve $-1 79.925534836878569 0 15.353526081926125 0 1 0 I I #
edge $-1 $410 -79.925534836878569 $375 79.925534836878569 $371 $429 forward 7 unknown #
straight-curve $-1 -79.925534836878569 -45.145596985424348 0 0 0 -1 I I #
point $-1 79.925534836878569 -45.145596985424348 15.353526081926125 #
straight-curve $-1 0 45.145596985424348 86.584671893131429 0 0 -1 I I #
point $-1 0 45.145596985424348 15.353526081926125 #
straight-curve $-1 -9.3655837751298243 45.145596985424348 6.1641331656694476 -1 0 0 I I #
point $-1 0 45.145596985424348 6.1641331656694405 #
point $-1 -26.758810786085213 34.791199375531392 5.6612945445088059 #
point $-1 -10.703524314434077 34.791199375531392 5.6612945445088059 #
straight-curve $-1 0 45.145596985424348 15.353526081926125 -1 0 0 I I #
straight-curve $-1 79.925534836878569 0 15.353526081926125 0 1 0 I I #
point $-1 79.925534836878569 45.145596985424348 15.353526081926125 #
point $-1 53.166724050793363 34.791199375531392 5.6612945445088059 #
point $-1 69.222010522444492 34.791199375531392 5.6612945445088059 #
point $-1 -79.925534836878569 -45.145596985424348 15.353526081926125 #
straight-curve $-1 0 -45.145596985424348 15.353526081926125 1 0 0 I I #
End-of-ACIS-data 