500 0 8 0           
7 Unknown 11 ACIS 5.0 NT 24 Fri Mar 26 20:45:40 1999 
-1 9.9999999999999995e-007 1e-010 
body $-1 $8 $-1 $9 #
body $-1 $10 $-1 $11 #
body $-1 $12 $-1 $13 #
body $-1 $14 $-1 $15 #
body $-1 $16 $-1 $17 #
body $-1 $18 $-1 $19 #
body $-1 $20 $-1 $21 #
body $-1 $22 $-1 $23 #
lump $-1 $-1 $24 $0 #
transform $-1 1 0 0 0 1 0 0 0 1 74.461500900296031 50.666180357457812 18.111454730214515 1 rotate no_reflect no_shear #
lump $-1 $-1 $25 $1 #
transform $-1 1 0 0 0 1 0 0 0 1 74.461500900296031 50.666180357457812 18.111454730214515 1 rotate no_reflect no_shear #
lump $-1 $-1 $26 $2 #
transform $-1 1 0 0 0 1 0 0 0 1 74.461500900296031 50.666180357457812 18.111454730214515 1 rotate no_reflect no_shear #
lump $-1 $-1 $27 $3 #
transform $-1 1 0 0 0 1 0 0 0 1 74.461500900296031 50.666180357457812 18.111454730214515 1 rotate no_reflect no_shear #
lump $-1 $-1 $28 $4 #
transform $-1 1 0 0 0 1 0 0 0 1 74.461500900296031 50.666180357457812 18.111454730214515 1 rotate no_reflect no_shear #
lump $-1 $-1 $29 $5 #
transform $-1 1 0 0 0 1 0 0 0 1 74.461500900296031 50.666180357457812 18.111454730214515 1 rotate no_reflect no_shear #
lump $-1 $-1 $30 $6 #
transform $-1 1 0 0 0 1 0 0 0 1 74.461500900296031 50.666180357457812 18.111454730214515 1 rotate no_reflect no_shear #
lump $-1 $-1 $31 $7 #
transform $-1 1 0 0 0 1 0 0 0 1 74.461500900296031 50.666180357457812 18.111454730214515 1 rotate no_reflect no_shear #
shell $-1 $-1 $-1 $32 $-1 $8 #
shell $-1 $-1 $-1 $33 $-1 $10 #
shell $-1 $-1 $-1 $34 $-1 $12 #
shell $-1 $-1 $-1 $35 $-1 $14 #
shell $-1 $-1 $-1 $36 $-1 $16 #
shell $-1 $-1 $-1 $37 $-1 $18 #
shell $-1 $-1 $-1 $38 $-1 $20 #
shell $-1 $-1 $-1 $39 $-1 $22 #
face $-1 $40 $41 $24 $-1 $42 forward single #
face $-1 $43 $44 $25 $-1 $45 forward single #
face $-1 $46 $47 $26 $-1 $48 reversed single #
face $-1 $49 $50 $27 $-1 $51 forward single #
face $-1 $52 $53 $28 $-1 $54 forward single #
face $-1 $55 $56 $29 $-1 $57 reversed single #
face $-1 $58 $59 $30 $-1 $60 forward single #
face $-1 $61 $62 $31 $-1 $63 forward single #
face $-1 $64 $65 $24 $-1 $66 reversed single #
loop $-1 $-1 $67 $32 #
plane-surface $-1 0 0 18.111454730214515 0 0 1 1 0 0 forward_v I I I I #
face $-1 $68 $69 $25 $-1 $70 reversed single #
loop $-1 $-1 $71 $33 #
plane-surface $-1 -67.436818942591415 0 3.016047203979058 0 0 1 1 0 0 forward_v I I I I #
face $-1 $72 $73 $26 $-1 $74 reversed single #
loop $-1 $-1 $75 $34 #
plane-surface $-1 7.8795125070525316 111.58575481941784 183.5706222438582 1 0 0 0 -0.80901700255871778 -0.5877852410284794 forward_v I I I I #
face $-1 $76 $77 $27 $-1 $78 forward single #
loop $-1 $79 $80 $35 #
cone-surface $-1 13.875085520863891 48.779728034895932 15.783569264996373 0 -0.80901700255871778 -0.5877852410284794 1 0 0 1 I I 0 1 1 forward I I I I #
face $-1 $81 $82 $28 $-1 $83 forward single #
loop $-1 $84 $85 $36 #
cone-surface $-1 22.868445041580955 48.779728034895932 15.783569264996373 0 -0.80901700255871778 -0.5877852410284794 1 0 0 1 I I 0 1 1 forward I I I I #
face $-1 $86 $87 $29 $-1 $88 reversed single #
loop $-1 $-1 $89 $37 #
plane-surface $-1 -31.487592754930802 -169.60137908298128 97.222484580706706 -1 0 0 0 -0.79863551827123203 0.60181501223851219 forward_v I I I I #
face $-1 $90 $91 $30 $-1 $92 forward single #
loop $-1 $93 $94 $38 #
cone-surface $-1 -52.14798149061366 -44.914346552946142 11.505492709342802 0 0.79863551827123203 -0.60181501223851219 1.5 0 0 1 I I 0 1 1.5 forward I I I I #
face $-1 $95 $96 $31 $-1 $97 forward single #
loop $-1 $98 $99 $39 #
cone-surface $-1 -39.751748249203942 -44.914346552946142 11.505492709342802 0 0.79863551827123203 -0.60181501223851219 1.5 0 0 1 I I 0 1 1.5 forward I I I I #
face $-1 $100 $101 $24 $-1 $102 reversed single #
loop $-1 $-1 $103 $40 #
plane-surface $-1 0 0 -18.111454730214515 0 0 1 1 0 0 forward_v I I I I #
coedge $-1 $104 $105 $106 $107 forward $41 $-1 #
face $-1 $108 $109 $25 $-1 $110 reversed single #
loop $-1 $-1 $111 $43 #
plane-surface $-1 -67.436818942591415 0 -1.198111954750809 0 0 1 1 0 0 forward_v I I I I #
coedge $-1 $112 $113 $114 $115 forward $44 $-1 #
face $-1 $116 $117 $26 $-1 $118 reversed single #
loop $-1 $-1 $119 $46 #
plane-surface $-1 18.371765281222437 -8.8954857093436743 96.035879735812514 0 0.80901700255871778 0.5877852410284794 1 0 0 forward_v I I I I #
coedge $-1 $120 $121 $122 $123 reversed $47 $-1 #
face $-1 $-1 $124 $27 $-1 $125 forward single #
loop $-1 $126 $127 $49 #
cone-surface $-1 13.875085520863891 47.96189670481521 15.189380040354894 0 -0.80901700255871778 -0.5877852410284794 0.5 0 0 1 I I -0.70710678118654746 0.70710678118654746 0.5 forward I I I I #
loop $-1 $-1 $128 $35 #
coedge $-1 $80 $80 $129 $130 reversed $50 $-1 #
face $-1 $-1 $131 $28 $-1 $132 forward single #
loop $-1 $133 $134 $52 #
cone-surface $-1 22.868445041580955 47.96189670481521 15.189380040354894 0 -0.80901700255871778 -0.5877852410284794 0.5 0 0 1 I I -0.70710678118654746 0.70710678118654746 0.5 forward I I I I #
loop $-1 $-1 $135 $36 #
coedge $-1 $85 $85 $136 $137 reversed $53 $-1 #
face $-1 $138 $139 $29 $-1 $140 reversed single #
loop $-1 $-1 $141 $55 #
plane-surface $-1 -45.949864869908801 -50.666180357457804 7.5983864294874053 0 -0.79863551827123203 0.60181501223851219 1 0 0 forward_v I I I I #
coedge $-1 $142 $143 $144 $145 reversed $56 $-1 #
face $-1 $-1 $146 $30 $-1 $147 forward single #
loop $-1 $148 $149 $58 #
cone-surface $-1 -52.14798149061366 -42.524618595620218 9.704703579655753 0 0.79863551827123203 -0.60181501223851219 0.75 0 0 1 I I -0.70710678118654757 0.70710678118654757 0.75 forward I I I I #
loop $-1 $-1 $150 $38 #
coedge $-1 $94 $94 $151 $152 reversed $59 $-1 #
face $-1 $-1 $153 $31 $-1 $154 forward single #
loop $-1 $155 $156 $61 #
cone-surface $-1 -39.751748249203942 -42.524618595620218 9.704703579655753 0 0.79863551827123203 -0.60181501223851219 0.75 0 0 1 I I -0.70710678118654757 0.70710678118654757 0.75 forward I I I I #
loop $-1 $-1 $157 $39 #
coedge $-1 $99 $99 $158 $159 reversed $62 $-1 #
face $-1 $160 $161 $24 $-1 $162 reversed single #
loop $-1 $-1 $163 $64 #
plane-surface $-1 0 -50.666180357457812 0 0 1 0 0 0 1 forward_v I I I I #
coedge $-1 $164 $165 $166 $167 forward $65 $-1 #
coedge $-1 $168 $67 $169 $170 forward $41 $-1 #
coedge $-1 $67 $168 $171 $172 forward $41 $-1 #
coedge $-1 $173 $174 $67 $107 reversed $175 $-1 #
edge $-1 $176 -50.666180357457812 $177 50.666180357457812 $106 $178 forward 7 unknown #
face $-1 $179 $180 $25 $-1 $181 reversed single #
loop $-1 $-1 $182 $68 #
plane-surface $-1 -60.4121369848868 0 0.9089676246141245 -1 0 0 0 0 1 forward_v I I I I #
coedge $-1 $183 $184 $185 $186 forward $69 $-1 #
coedge $-1 $187 $71 $188 $189 reversed $44 $-1 #
coedge $-1 $71 $187 $190 $191 reversed $44 $-1 #
coedge $-1 $182 $192 $71 $115 reversed $109 $-1 #
edge $-1 $193 -50.666180357457812 $194 50.666180357457812 $114 $195 forward 7 unknown #
face $-1 $196 $197 $26 $-1 $198 forward single #
loop $-1 $-1 $199 $72 #
plane-surface $-1 28.864018055392343 111.58575481941784 183.5706222438582 -1 0 0 0 0.80901700255871778 0.5877852410284794 forward_v I I I I #
coedge $-1 $200 $201 $202 $203 reversed $73 $-1 #
coedge $-1 $121 $75 $204 $205 reversed $47 $-1 #
coedge $-1 $75 $120 $200 $206 reversed $47 $-1 #
coedge $-1 $202 $207 $75 $123 forward $197 $-1 #
edge $-1 $208 5.1266970522511102 $209 8.0729560397721372 $122 $210 forward 7 unknown #
loop $-1 $-1 $129 $76 #
plane-surface $-1 18.371765281222437 -8.8954857093436743 96.035879735812514 0 0.80901700255871778 0.5877852410284794 1 0 0 forward_v I I I I #
loop $-1 $-1 $211 $49 #
coedge $-1 $127 $127 $128 $212 reversed $77 $-1 #
coedge $-1 $128 $128 $127 $212 forward $79 $-1 #
coedge $-1 $129 $129 $80 $130 forward $124 $-1 #
edge $-1 $213 -1.30225956062532e-015 $213 6.2831853071795996 $129 $214 forward 7 unknown #
loop $-1 $-1 $136 $81 #
plane-surface $-1 18.371765281222437 -8.8954857093436743 96.035879735812514 0 0.80901700255871778 0.5877852410284794 1 0 0 forward_v I I I I #
loop $-1 $-1 $215 $52 #
coedge $-1 $134 $134 $135 $216 reversed $82 $-1 #
coedge $-1 $135 $135 $134 $216 forward $84 $-1 #
coedge $-1 $136 $136 $85 $137 forward $131 $-1 #
edge $-1 $217 -1.30225956062532e-015 $217 6.2831853071795996 $136 $218 forward 7 unknown #
face $-1 $219 $220 $29 $-1 $221 reversed single #
loop $-1 $-1 $222 $86 #
plane-surface $-1 -60.4121369848868 -169.60137908298128 97.222484580706706 1 0 0 0 0.79863551827123203 -0.60181501223851219 forward_v I I I I #
coedge $-1 $223 $224 $225 $226 reversed $87 $-1 #
coedge $-1 $143 $89 $227 $228 reversed $56 $-1 #
coedge $-1 $89 $142 $223 $229 reversed $56 $-1 #
coedge $-1 $225 $230 $89 $145 forward $231 $-1 #
edge $-1 $232 34.134509184032829 $233 42.05667415581118 $144 $234 forward 7 unknown #
loop $-1 $-1 $151 $90 #
plane-surface $-1 -45.949864869908801 -50.666180357457804 7.5983864294874053 0 -0.79863551827123203 0.60181501223851219 1 0 0 forward_v I I I I #
loop $-1 $-1 $235 $58 #
coedge $-1 $149 $149 $150 $236 reversed $91 $-1 #
coedge $-1 $150 $150 $149 $236 forward $93 $-1 #
coedge $-1 $151 $151 $94 $152 forward $146 $-1 #
edge $-1 $237 -2.6890475956407987e-017 $237 6.2831853071796004 $151 $238 forward 7 unknown #
loop $-1 $-1 $158 $95 #
plane-surface $-1 -45.949864869908801 -50.666180357457804 7.5983864294874053 0 -0.79863551827123203 0.60181501223851219 1 0 0 forward_v I I I I #
loop $-1 $-1 $239 $61 #
coedge $-1 $156 $156 $157 $240 reversed $96 $-1 #
coedge $-1 $157 $157 $156 $240 forward $98 $-1 #
coedge $-1 $158 $158 $99 $159 forward $153 $-1 #
edge $-1 $241 -2.6890475956407987e-017 $241 6.2831853071796004 $158 $242 forward 7 unknown #
face $-1 $243 $244 $24 $-1 $245 reversed single #
loop $-1 $-1 $246 $100 #
plane-surface $-1 -74.461500900296031 0 0 1 0 0 0 0 -1 forward_v I I I I #
coedge $-1 $247 $171 $248 $249 forward $101 $-1 #
coedge $-1 $250 $103 $247 $251 forward $65 $-1 #
coedge $-1 $103 $250 $252 $253 forward $65 $-1 #
coedge $-1 $174 $173 $103 $167 reversed $175 $-1 #
edge $-1 $254 -50.666180357457812 $255 50.666180357457812 $166 $256 forward 7 unknown #
coedge $-1 $105 $104 $257 $258 forward $41 $-1 #
coedge $-1 $259 $260 $104 $170 reversed $244 $-1 #
edge $-1 $177 -74.461500900296031 $261 74.461500900296031 $169 $262 forward 7 unknown #
coedge $-1 $163 $263 $105 $172 reversed $101 $-1 #
edge $-1 $264 -74.461500900296031 $176 74.461500900296031 $171 $265 forward 7 unknown #
coedge $-1 $166 $106 $263 $266 forward $175 $-1 #
coedge $-1 $106 $166 $259 $267 reversed $175 $-1 #
loop $-1 $-1 $173 $243 #
vertex $-1 $107 $268 #
vertex $-1 $107 $269 #
straight-curve $-1 74.461500900296031 0 18.111454730214515 0 1 0 I I #
face $-1 $270 $271 $25 $-1 $272 reversed single #
loop $-1 $-1 $273 $108 #
plane-surface $-1 0 -50.666180357457812 0 0 1 0 0 0 1 forward_v I I I I #
coedge $-1 $185 $114 $274 $275 reversed $109 $-1 #
coedge $-1 $276 $111 $273 $277 reversed $69 $-1 #
coedge $-1 $111 $276 $278 $279 reversed $69 $-1 #
coedge $-1 $192 $182 $111 $186 reversed $109 $-1 #
edge $-1 $280 -50.666180357457812 $281 50.666180357457812 $185 $282 forward 7 unknown #
coedge $-1 $113 $112 $283 $284 reversed $44 $-1 #
coedge $-1 $285 $286 $112 $189 forward $287 $-1 #
edge $-1 $288 -40.743091429000323 $194 -26.693727513591092 $188 $289 forward 7 unknown #
coedge $-1 $290 $274 $113 $191 forward $180 $-1 #
edge $-1 $193 26.693727513591092 $291 40.743091429000323 $190 $292 forward 7 unknown #
coedge $-1 $114 $185 $285 $293 reversed $109 $-1 #
vertex $-1 $191 $294 #
vertex $-1 $189 $295 #
straight-curve $-1 -60.4121369848868 0 3.016047203979058 0 1 0 I I #
face $-1 $-1 $296 $26 $-1 $297 reversed single #
loop $-1 $-1 $122 $116 #
plane-surface $-1 0 0 18.111454730214515 0 0 1 1 0 0 forward_v I I I I #
coedge $-1 $298 $299 $300 $301 reversed $117 $-1 #
coedge $-1 $302 $119 $121 $206 forward $73 $-1 #
coedge $-1 $119 $302 $298 $303 forward $73 $-1 #
coedge $-1 $300 $122 $119 $203 forward $197 $-1 #
edge $-1 $209 -1.306370133558687 $304 19.678135414781124 $202 $305 forward 7 unknown #
coedge $-1 $306 $307 $120 $205 forward $296 $-1 #
edge $-1 $308 -77.729034113896375 $208 -73.67385639171458 $204 $309 forward 7 unknown #
edge $-1 $209 96.319885440160832 $308 101.33236071491561 $121 $310 forward 7 unknown #
coedge $-1 $122 $300 $306 $311 forward $197 $-1 #
vertex $-1 $205 $312 #
vertex $-1 $123 $313 #
straight-curve $-1 7.8795125070525316 55.792877409708922 18.111454730214518 0 -1 0 I I #
coedge $-1 $211 $211 $-1 $314 reversed $126 $-1 #
edge $-1 $315 0 $315 6.2831853071796004 $127 $316 forward 7 unknown #
vertex $-1 $130 $317 #
ellipse-curve $-1 13.875085520863891 49.193050863697302 16.083865869123617 0 0.80901700255871778 0.5877852410284794 1 0 0 1 I I #
coedge $-1 $215 $215 $-1 $318 reversed $133 $-1 #
edge $-1 $319 0 $319 6.2831853071796004 $134 $320 forward 7 unknown #
vertex $-1 $137 $321 #
ellipse-curve $-1 22.868445041580955 49.193050863697302 16.083865869123617 0 0.80901700255871778 0.5877852410284794 1 0 0 1 I I #
face $-1 $-1 $231 $29 $-1 $322 forward single #
loop $-1 $-1 $323 $138 #
plane-surface $-1 0 -50.666180357457812 0 0 1 0 0 0 1 forward_v I I I I #
coedge $-1 $324 $325 $326 $327 reversed $139 $-1 #
coedge $-1 $328 $141 $143 $229 forward $87 $-1 #
coedge $-1 $141 $328 $324 $329 forward $87 $-1 #
coedge $-1 $326 $144 $141 $226 forward $231 $-1 #
edge $-1 $233 8.5126603199764013 $330 37.437204549932403 $225 $331 forward 7 unknown #
coedge $-1 $332 $333 $142 $228 forward $220 $-1 #
edge $-1 $334 -41.012855860865955 $232 -30.499787560138838 $227 $335 forward 7 unknown #
edge $-1 $233 -13.163787560418353 $334 1.2078792010054373e-014 $143 $336 forward 7 unknown #
coedge $-1 $144 $326 $332 $337 forward $231 $-1 #
loop $-1 $-1 $326 $219 #
vertex $-1 $228 $338 #
vertex $-1 $145 $339 #
straight-curve $-1 -31.487592754930802 -84.800689541490641 18.111454730214511 0 1 0 I I #
coedge $-1 $235 $235 $-1 $340 reversed $148 $-1 #
edge $-1 $341 0 $341 6.2831853071796004 $149 $342 forward 7 unknown #
vertex $-1 $152 $343 #
ellipse-curve $-1 -52.14798149061366 -46.705097871568633 12.854920579850956 0 -0.79863551827123203 0.60181501223851219 1.5 0 0 1 I I #
coedge $-1 $239 $239 $-1 $344 reversed $155 $-1 #
edge $-1 $345 0 $345 6.2831853071796004 $156 $346 forward 7 unknown #
vertex $-1 $159 $347 #
ellipse-curve $-1 -39.751748249203942 -46.705097871568633 12.854920579850956 0 -0.79863551827123203 0.60181501223851219 1.5 0 0 1 I I #
face $-1 $-1 $175 $24 $-1 $348 reversed single #
loop $-1 $-1 $259 $160 #
plane-surface $-1 0 50.666180357457812 0 0 -1 0 0 0 -1 forward_v I I I I #
coedge $-1 $349 $257 $260 $350 forward $161 $-1 #
coedge $-1 $263 $163 $164 $251 reversed $101 $-1 #
coedge $-1 $257 $349 $163 $249 reversed $161 $-1 #
edge $-1 $264 -18.111454730214515 $351 18.111454730214515 $248 $352 forward 7 unknown #
coedge $-1 $165 $164 $349 $353 forward $65 $-1 #
edge $-1 $255 -74.461500900296031 $351 74.461500900296031 $247 $354 forward 7 unknown #
coedge $-1 $260 $259 $165 $253 reversed $244 $-1 #
edge $-1 $355 -74.461500900296031 $254 74.461500900296031 $252 $356 forward 7 unknown #
vertex $-1 $167 $357 #
vertex $-1 $266 $358 #
straight-curve $-1 74.461500900296031 0 -18.111454730214515 0 -1 0 I I #
coedge $-1 $246 $248 $168 $258 reversed $161 $-1 #
edge $-1 $261 -50.666180357457812 $264 50.666180357457812 $257 $359 forward 7 unknown #
coedge $-1 $252 $169 $174 $267 forward $244 $-1 #
coedge $-1 $169 $252 $246 $350 reversed $244 $-1 #
vertex $-1 $170 $360 #
straight-curve $-1 0 50.666180357457812 18.111454730214515 -1 0 0 I I #
coedge $-1 $171 $247 $173 $266 reversed $101 $-1 #
vertex $-1 $258 $361 #
straight-curve $-1 0 -50.666180357457812 18.111454730214515 1 0 0 I I #
edge $-1 $176 -18.111454730214515 $255 18.111454730214515 $173 $362 forward 7 unknown #
edge $-1 $177 -18.111454730214515 $254 18.111454730214515 $174 $363 forward 7 unknown #
point $-1 74.461500900296031 -50.666180357457812 18.111454730214515 #
point $-1 74.461500900296031 50.666180357457812 18.111454730214515 #
face $-1 $-1 $287 $25 $-1 $364 reversed single #
loop $-1 $-1 $365 $179 #
plane-surface $-1 -74.461500900296031 0 0 1 0 0 0 0 -1 forward_v I I I I #
coedge $-1 $274 $290 $183 $277 forward $180 $-1 #
coedge $-1 $190 $273 $182 $275 forward $180 $-1 #
edge $-1 $281 -1.6525957670578713 $193 2.5615633916719958 $274 $366 forward 7 unknown #
coedge $-1 $184 $183 $365 $367 reversed $69 $-1 #
edge $-1 $368 -40.743091429000323 $281 -26.693727513591092 $273 $369 forward 7 unknown #
coedge $-1 $286 $285 $184 $279 forward $287 $-1 #
edge $-1 $280 26.693727513591092 $370 40.743091429000323 $278 $371 forward 7 unknown #
vertex $-1 $279 $372 #
vertex $-1 $277 $373 #
straight-curve $-1 -60.4121369848868 0 -1.198111954750809 0 -1 0 I I #
coedge $-1 $374 $375 $187 $284 forward $271 $-1 #
edge $-1 $291 -50.666180357457812 $288 50.666180357457812 $283 $376 forward 7 unknown #
coedge $-1 $278 $188 $192 $293 forward $287 $-1 #
coedge $-1 $188 $278 $374 $377 reversed $287 $-1 #
loop $-1 $-1 $278 $270 #
vertex $-1 $377 $378 #
straight-curve $-1 -33.718409471295708 50.666180357457812 3.016047203979058 1 0 0 I I #
coedge $-1 $273 $190 $375 $379 forward $180 $-1 #
vertex $-1 $379 $380 #
straight-curve $-1 -33.718409471295708 -50.666180357457812 3.016047203979058 -1 0 0 I I #
edge $-1 $194 -2.5615633916719958 $280 1.6525957670578713 $285 $381 forward 7 unknown #
point $-1 -60.4121369848868 -50.666180357457812 3.016047203979058 #
point $-1 -60.4121369848868 50.666180357457812 3.016047203979058 #
loop $-1 $-1 $204 $196 #
plane-surface $-1 0 50.666180357457812 0 0 -1 0 0 0 -1 forward_v I I I I #
coedge $-1 $299 $199 $201 $303 reversed $117 $-1 #
coedge $-1 $199 $298 $382 $383 reversed $117 $-1 #
coedge $-1 $207 $202 $199 $301 forward $197 $-1 #
edge $-1 $304 -8.0729560397721372 $384 -5.1266970522511102 $300 $385 forward 7 unknown #
coedge $-1 $201 $200 $307 $386 reversed $73 $-1 #
edge $-1 $387 -101.33236071491561 $304 -96.319885440160832 $298 $388 forward 7 unknown #
vertex $-1 $203 $389 #
straight-curve $-1 9.1858826406112186 47.71992136993677 18.111454730214518 1 0 0 I I #
coedge $-1 $382 $204 $207 $311 reversed $296 $-1 #
coedge $-1 $204 $382 $302 $386 forward $296 $-1 #
vertex $-1 $205 $390 #
straight-curve $-1 7.8795125070525316 50.666180357457812 91.785311121929098 0 0 1 I I #
straight-curve $-1 7.8795125070525316 -8.8954857093436743 96.035879735812514 0 0.5877852410284794 -0.80901700255871778 I I #
edge $-1 $384 -28.864018055392343 $208 -7.8795125070525316 $306 $391 forward 7 unknown #
point $-1 7.8795125070525316 50.666180357457812 18.111454730214515 #
point $-1 7.8795125070525316 47.719921369936785 18.111454730214518 #
edge $-1 $392 1 $392 0 $211 $-1 forward 7 unknown #
vertex $-1 $212 $393 #
ellipse-curve $-1 13.875085520863891 48.366405206094569 15.483272660869135 0 0.80901700255871778 0.5877852410284794 1 0 0 1 I I #
point $-1 14.875085520863891 49.193050863697295 16.083865869123613 #
edge $-1 $394 1 $394 0 $215 $-1 forward 7 unknown #
vertex $-1 $216 $395 #
ellipse-curve $-1 22.868445041580955 48.366405206094569 15.483272660869135 0 0.80901700255871778 0.5877852410284794 1 0 0 1 I I #
point $-1 23.868445041580955 49.193050863697295 16.083865869123613 #
plane-surface $-1 0 0 18.111454730214515 0 0 1 1 0 0 forward_v I I I I #
coedge $-1 $333 $332 $325 $396 forward $220 $-1 #
coedge $-1 $325 $222 $224 $329 reversed $139 $-1 #
coedge $-1 $222 $324 $323 $396 reversed $139 $-1 #
coedge $-1 $230 $225 $222 $327 forward $231 $-1 #
edge $-1 $330 -42.05667415581118 $397 -34.134509184032829 $326 $398 forward 7 unknown #
coedge $-1 $224 $223 $333 $399 reversed $87 $-1 #
edge $-1 $400 -1.2078792010054373e-014 $330 13.163787560418353 $324 $401 forward 7 unknown #
vertex $-1 $226 $402 #
straight-curve $-1 -22.9749324349544 -42.744015385679454 18.111454730214515 -1 0 0 I I #
coedge $-1 $323 $227 $230 $337 reversed $220 $-1 #
coedge $-1 $227 $323 $328 $399 forward $220 $-1 #
vertex $-1 $228 $403 #
straight-curve $-1 -31.487592754930802 -50.666180357457812 48.611242290353353 0 0 1 I I #
straight-curve $-1 -31.487592754930802 -50.666180357457804 7.5983864294874053 0 -0.60181501223851219 -0.79863551827123203 I I #
edge $-1 $397 -60.4121369848868 $232 -31.487592754930802 $332 $404 forward 7 unknown #
point $-1 -31.487592754930802 -50.666180357457812 18.111454730214515 #
point $-1 -31.487592754930802 -42.744015385679461 18.111454730214515 #
edge $-1 $405 1 $405 0 $235 $-1 forward 7 unknown #
vertex $-1 $236 $406 #
ellipse-curve $-1 -52.14798149061366 -43.123595234323645 10.156064838834638 0 -0.79863551827123203 0.60181501223851219 1.5 0 0 1 I I #
point $-1 -50.64798149061366 -46.705097871568647 12.854920579850967 #
edge $-1 $407 1 $407 0 $239 $-1 forward 7 unknown #
vertex $-1 $240 $408 #
ellipse-curve $-1 -39.751748249203942 -43.123595234323645 10.156064838834638 0 -0.79863551827123203 0.60181501223851219 1.5 0 0 1 I I #
point $-1 -38.251748249203942 -46.705097871568647 12.854920579850967 #
plane-surface $-1 74.461500900296031 0 0 -1 0 0 0 0 1 forward_v I I I I #
coedge $-1 $248 $246 $250 $353 reversed $161 $-1 #
edge $-1 $261 -18.111454730214515 $355 18.111454730214515 $260 $409 forward 7 unknown #
vertex $-1 $353 $410 #
straight-curve $-1 -74.461500900296031 -50.666180357457812 0 0 0 -1 I I #
edge $-1 $351 -50.666180357457812 $355 50.666180357457812 $349 $411 forward 7 unknown #
straight-curve $-1 0 -50.666180357457812 -18.111454730214515 -1 0 0 I I #
vertex $-1 $253 $412 #
straight-curve $-1 0 50.666180357457812 -18.111454730214515 1 0 0 I I #
point $-1 74.461500900296031 50.666180357457812 -18.111454730214515 #
point $-1 74.461500900296031 -50.666180357457812 -18.111454730214515 #
straight-curve $-1 -74.461500900296031 0 18.111454730214515 0 -1 0 I I #
point $-1 -74.461500900296031 50.666180357457812 18.111454730214515 #
point $-1 -74.461500900296031 -50.666180357457812 18.111454730214515 #
straight-curve $-1 74.461500900296031 -50.666180357457812 0 0 0 -1 I I #
straight-curve $-1 74.461500900296031 50.666180357457812 0 0 0 -1 I I #
plane-surface $-1 0 50.666180357457812 0 0 -1 0 0 0 -1 forward_v I I I I #
coedge $-1 $375 $374 $276 $367 forward $271 $-1 #
straight-curve $-1 -60.4121369848868 -50.666180357457812 0.45448381230706225 0 0 1 I I #
edge $-1 $370 -50.666180357457812 $368 50.666180357457812 $365 $413 forward 7 unknown #
vertex $-1 $277 $414 #
straight-curve $-1 -33.718409471295708 -50.666180357457812 -1.198111954750809 1 0 0 I I #
vertex $-1 $279 $415 #
straight-curve $-1 -33.718409471295708 50.666180357457812 -1.198111954750809 -1 0 0 I I #
point $-1 -60.4121369848868 50.666180357457812 -1.198111954750809 #
point $-1 -60.4121369848868 -50.666180357457812 -1.198111954750809 #
coedge $-1 $365 $283 $286 $377 forward $271 $-1 #
coedge $-1 $283 $365 $290 $379 reversed $271 $-1 #
straight-curve $-1 -74.461500900296031 0 3.016047203979058 0 1 0 I I #
edge $-1 $288 -3.016047203979058 $370 1.198111954750809 $286 $416 forward 7 unknown #
point $-1 -74.461500900296031 50.666180357457812 3.016047203979058 #
edge $-1 $291 -3.016047203979058 $368 1.198111954750809 $375 $417 forward 7 unknown #
point $-1 -74.461500900296031 -50.666180357457812 3.016047203979058 #
straight-curve $-1 -60.4121369848868 50.666180357457812 0.45448381230706225 0 0 -1 I I #
coedge $-1 $307 $306 $299 $383 forward $296 $-1 #
edge $-1 $384 73.67385639171458 $387 77.729034113896375 $382 $418 forward 7 unknown #
vertex $-1 $311 $419 #
straight-curve $-1 28.864018055392343 55.792877409708922 18.111454730214518 0 1 0 I I #
edge $-1 $387 -19.678135414781124 $308 1.306370133558687 $307 $420 forward 7 unknown #
vertex $-1 $386 $421 #
straight-curve $-1 28.864018055392343 -8.8954857093436743 96.035879735812514 0 -0.5877852410284794 0.80901700255871778 I I #
point $-1 28.864018055392343 47.719921369936785 18.111454730214518 #
point $-1 7.8795125070525316 50.666180357457812 14.056277008032723 #
straight-curve $-1 0 50.666180357457812 18.111454730214515 -1 0 0 I I #
vertex $-1 $314 $422 #
point $-1 14.875085520863891 48.366405206094569 15.483272660869135 #
vertex $-1 $318 $423 #
point $-1 23.868445041580955 48.366405206094569 15.483272660869135 #
edge $-1 $397 30.499787560138838 $400 41.012855860865955 $323 $424 forward 7 unknown #
vertex $-1 $337 $425 #
straight-curve $-1 -60.4121369848868 -84.800689541490641 18.111454730214511 0 -1 0 I I #
edge $-1 $400 -37.437204549932403 $334 -8.5126603199764013 $333 $426 forward 7 unknown #
vertex $-1 $399 $427 #
straight-curve $-1 -60.4121369848868 -50.666180357457804 7.5983864294874053 0 0.60181501223851219 0.79863551827123203 I I #
point $-1 -60.4121369848868 -42.744015385679461 18.111454730214515 #
point $-1 -31.487592754930802 -50.666180357457812 7.5983864294873955 #
straight-curve $-1 0 -50.666180357457812 18.111454730214515 1 0 0 I I #
vertex $-1 $340 $428 #
point $-1 -50.64798149061366 -43.123595234323645 10.156064838834638 #
vertex $-1 $344 $429 #
point $-1 -38.251748249203942 -43.123595234323645 10.156064838834638 #
straight-curve $-1 -74.461500900296031 50.666180357457812 0 0 0 -1 I I #
point $-1 -74.461500900296031 -50.666180357457812 -18.111454730214515 #
straight-curve $-1 -74.461500900296031 0 -18.111454730214515 0 1 0 I I #
point $-1 -74.461500900296031 50.666180357457812 -18.111454730214515 #
straight-curve $-1 -74.461500900296031 0 -1.198111954750809 0 -1 0 I I #
point $-1 -74.461500900296031 -50.666180357457812 -1.198111954750809 #
point $-1 -74.461500900296031 50.666180357457812 -1.198111954750809 #
straight-curve $-1 -74.461500900296031 50.666180357457812 0 0 0 -1 I I #
straight-curve $-1 -74.461500900296031 -50.666180357457812 0 0 0 -1 I I #
straight-curve $-1 28.864018055392343 50.666180357457812 91.785311121929098 0 0 -1 I I #
point $-1 28.864018055392343 50.666180357457812 18.111454730214515 #
straight-curve $-1 9.1858826406112186 50.666180357457812 14.056277008032723 -1 0 0 I I #
point $-1 28.864018055392343 50.666180357457812 14.056277008032723 #
point $-1 13.875085520863891 47.557388203535851 14.895487419840654 #
point $-1 22.868445041580955 47.557388203535851 14.895487419840654 #
straight-curve $-1 -60.4121369848868 -50.666180357457812 48.611242290353353 0 0 -1 I I #
point $-1 -60.4121369848868 -50.666180357457812 18.111454730214515 #
straight-curve $-1 -22.9749324349544 -50.666180357457812 7.5983864294873955 1 0 0 I I #
point $-1 -60.4121369848868 -50.666180357457812 7.5983864294873955 #
point $-1 -52.14798149061366 -41.925641956916792 9.2533423204768681 #
point $-1 -39.751748249203942 -41.925641956916792 9.2533423204768681 #
End-of-ACIS-data 