500 0 10 0           
7 Unknown 11 ACIS 5.0 NT 24 Fri Mar 26 02:25:18 1999 
-1 9.9999999999999995e-007 1e-010 
body $-1 $10 $-1 $11 #
body $-1 $12 $-1 $13 #
body $-1 $14 $-1 $15 #
body $-1 $16 $-1 $17 #
body $-1 $18 $-1 $19 #
body $-1 $20 $-1 $21 #
body $-1 $22 $-1 $23 #
body $-1 $24 $-1 $25 #
body $-1 $26 $-1 $27 #
body $-1 $28 $-1 $29 #
lump $-1 $-1 $30 $0 #
transform $-1 1 0 0 0 1 0 0 0 1 40.189214758751184 22.766202203055261 8.3505487544810499 1 rotate no_reflect no_shear #
lump $-1 $-1 $31 $1 #
transform $-1 1 0 0 0 1 0 0 0 1 40.189214758751184 22.766202203055261 8.3505487544810499 1 rotate no_reflect no_shear #
lump $-1 $-1 $32 $2 #
transform $-1 1 0 0 0 1 0 0 0 1 40.189214758751184 22.766202203055261 8.3505487544810499 1 rotate no_reflect no_shear #
lump $-1 $-1 $33 $3 #
transform $-1 1 0 0 0 1 0 0 0 1 40.189214758751184 22.766202203055261 8.3505487544810499 1 rotate no_reflect no_shear #
lump $-1 $-1 $34 $4 #
transform $-1 1 0 0 0 1 0 0 0 1 40.189214758751184 22.766202203055261 8.3505487544810499 1 rotate no_reflect no_shear #
lump $-1 $-1 $35 $5 #
transform $-1 1 0 0 0 1 0 0 0 1 40.189214758751184 22.766202203055261 8.3505487544810499 1 rotate no_reflect no_shear #
lump $-1 $-1 $36 $6 #
transform $-1 1 0 0 0 1 0 0 0 1 40.189214758751184 22.766202203055261 8.3505487544810499 1 rotate no_reflect no_shear #
lump $-1 $-1 $37 $7 #
transform $-1 1 0 0 0 1 0 0 0 1 40.189214758751184 22.766202203055261 8.3505487544810499 1 rotate no_reflect no_shear #
lump $-1 $-1 $38 $8 #
transform $-1 1 0 0 0 1 0 0 0 1 40.189214758751184 22.766202203055261 8.3505487544810499 1 rotate no_reflect no_shear #
lump $-1 $-1 $39 $9 #
transform $-1 1 0 0 0 1 0 0 0 1 40.189214758751184 22.766202203055261 8.3505487544810499 1 rotate no_reflect no_shear #
shell $-1 $-1 $-1 $40 $-1 $10 #
shell $-1 $-1 $-1 $41 $-1 $12 #
shell $-1 $-1 $-1 $42 $-1 $14 #
shell $-1 $-1 $-1 $43 $-1 $16 #
shell $-1 $-1 $-1 $44 $-1 $18 #
shell $-1 $-1 $-1 $45 $-1 $20 #
shell $-1 $-1 $-1 $46 $-1 $22 #
shell $-1 $-1 $-1 $47 $-1 $24 #
shell $-1 $-1 $-1 $48 $-1 $26 #
shell $-1 $-1 $-1 $49 $-1 $28 #
face $-1 $50 $51 $30 $-1 $52 forward single #
face $-1 $53 $54 $31 $-1 $55 forward single #
face $-1 $56 $57 $32 $-1 $58 reversed single #
face $-1 $59 $60 $33 $-1 $61 reversed single #
face $-1 $62 $63 $34 $-1 $64 forward single #
face $-1 $65 $66 $35 $-1 $67 forward single #
face $-1 $68 $69 $36 $-1 $70 reversed single #
face $-1 $71 $72 $37 $-1 $73 forward single #
face $-1 $74 $75 $38 $-1 $76 forward single #
face $-1 $77 $78 $39 $-1 $79 forward single #
face $-1 $80 $81 $30 $-1 $82 reversed single #
loop $-1 $-1 $83 $40 #
plane-surface $-1 0 0 8.3505487544810499 0 0 1 1 0 0 forward_v I I I I #
face $-1 $84 $85 $31 $-1 $86 reversed single #
loop $-1 $-1 $87 $41 #
plane-surface $-1 0 -22.766202203055261 0 0 1 0 0 0 1 forward_v I I I I #
face $-1 $88 $89 $32 $-1 $90 reversed single #
loop $-1 $-1 $91 $42 #
plane-surface $-1 -24.988117249789084 12.067428271492403 0 0 1 0 0 0 1 forward_v I I I I #
face $-1 $92 $93 $33 $-1 $94 reversed single #
loop $-1 $-1 $95 $43 #
plane-surface $-1 -93.972882686819815 0.26157217834601099 64.63480239492516 0 1 0 -0.66913061440640931 0 0.74314481823134659 forward_v I I I I #
face $-1 $96 $97 $34 $-1 $98 forward single #
loop $-1 $99 $100 $44 #
cone-surface $-1 -37.699437106520868 2.0463063905279562 5.9879211549319988 0.66913061440640931 0 -0.74314481823134659 0.3715724091156733 0 0.33456530720320465 1 I I 0 1 0.5 forward I I I I #
face $-1 $101 $102 $35 $-1 $103 forward single #
loop $-1 $104 $105 $45 #
cone-surface $-1 -37.699437106520868 4.7234077088008739 5.9879211549319988 0.66913061440640931 0 -0.74314481823134659 0.3715724091156733 0 0.33456530720320465 1 I I 0 1 0.5 forward I I I I #
face $-1 $106 $107 $36 $-1 $108 reversed single #
loop $-1 $-1 $109 $46 #
plane-surface $-1 65.759912309309328 7.6088346450111537 113.94122584447635 0 -1 0 -0.84804810408105047 0 -0.52991925155115449 forward_v I I I I #
face $-1 $110 $111 $37 $-1 $112 forward single #
loop $-1 $113 $114 $47 #
cone-surface $-1 37.873487027380236 2.5612443811204066 5.3284212008843923 -0.84804810408105047 0 -0.52991925155115449 0.26495962577557725 0 -0.42402405204052523 1 I I 0 1 0.5 forward I I I I #
face $-1 $115 $116 $38 $-1 $117 forward single #
loop $-1 $118 $119 $48 #
cone-surface $-1 37.873487027380236 4.4540907300794395 5.3284212008843923 -0.84804810408105047 0 -0.52991925155115449 0.26495962577557725 0 -0.42402405204052523 1 I I 0 1 0.5 forward I I I I #
face $-1 $120 $121 $39 $-1 $122 forward single #
loop $-1 $123 $124 $49 #
cone-surface $-1 37.873487027380236 6.3469370790384723 5.3284212008843923 -0.84804810408105047 0 -0.52991925155115449 0.26495962577557725 0 -0.42402405204052523 1 I I 0 1 0.5 forward I I I I #
face $-1 $125 $126 $30 $-1 $127 reversed single #
loop $-1 $-1 $128 $50 #
plane-surface $-1 0 0 -8.3505487544810499 0 0 1 1 0 0 forward_v I I I I #
coedge $-1 $129 $130 $131 $132 forward $51 $-1 #
face $-1 $133 $134 $31 $-1 $135 reversed single #
loop $-1 $-1 $136 $53 #
plane-surface $-1 0 0 -8.3505487544810499 0 0 1 1 0 0 forward_v I I I I #
coedge $-1 $137 $138 $139 $140 forward $54 $-1 #
face $-1 $141 $142 $32 $-1 $143 reversed single #
loop $-1 $-1 $144 $56 #
plane-surface $-1 -26.488117249789084 17.416815237273834 0 1 0 0 0 0 -1 forward_v I I I I #
coedge $-1 $145 $146 $147 $148 forward $57 $-1 #
face $-1 $149 $150 $33 $-1 $151 reversed single #
loop $-1 $-1 $152 $59 #
plane-surface $-1 -40.189214758751191 3.384857049664415 4.9019890014197571 -0.66913061440640931 0 0.74314481823134659 0.74314481823134659 0 0.66913061440640931 forward_v I I I I #
coedge $-1 $153 $154 $155 $156 reversed $60 $-1 #
face $-1 $-1 $157 $34 $-1 $158 forward single #
loop $-1 $159 $160 $62 #
cone-surface $-1 -36.957383568928165 2.0463063905279562 5.1637872273557583 0.66913061440640931 0 -0.74314481823134659 0.18578620455783665 0 0.16728265360160233 1 I I -0.70710678118654746 0.70710678118654746 0.25 forward I I I I #
loop $-1 $-1 $161 $44 #
coedge $-1 $100 $100 $162 $163 reversed $63 $-1 #
face $-1 $-1 $164 $35 $-1 $165 forward single #
loop $-1 $166 $167 $65 #
cone-surface $-1 -36.957383568928165 4.7234077088008739 5.1637872273557583 0.66913061440640931 0 -0.74314481823134659 0.18578620455783665 0 0.16728265360160233 1 I I -0.70710678118654746 0.70710678118654746 0.25 forward I I I I #
loop $-1 $-1 $168 $45 #
coedge $-1 $105 $105 $169 $170 reversed $66 $-1 #
face $-1 $171 $172 $36 $-1 $173 reversed single #
loop $-1 $-1 $174 $68 #
plane-surface $-1 -2.4048624520208932 4.4540907300794359 71.347148633704279 0.84804810408105047 0 0.52991925155115449 0.52991925155115449 0 -0.84804810408105047 forward_v I I I I #
coedge $-1 $175 $176 $177 $178 reversed $69 $-1 #
face $-1 $-1 $179 $37 $-1 $180 forward single #
loop $-1 $181 $182 $71 #
cone-surface $-1 36.960464260824885 2.5612443811204066 4.7579012754534453 -0.84804810408105047 0 -0.52991925155115449 0.13247981288778862 0 -0.21201202602026262 1 I I -0.70710678118654746 0.70710678118654746 0.25 forward I I I I #
loop $-1 $-1 $183 $47 #
coedge $-1 $114 $114 $184 $185 reversed $72 $-1 #
face $-1 $-1 $186 $38 $-1 $187 forward single #
loop $-1 $188 $189 $74 #
cone-surface $-1 36.960464260824885 4.4540907300794395 4.7579012754534453 -0.84804810408105047 0 -0.52991925155115449 0.13247981288778862 0 -0.21201202602026262 1 I I -0.70710678118654746 0.70710678118654746 0.25 forward I I I I #
loop $-1 $-1 $190 $48 #
coedge $-1 $119 $119 $191 $192 reversed $75 $-1 #
face $-1 $-1 $193 $39 $-1 $194 forward single #
loop $-1 $195 $196 $77 #
cone-surface $-1 36.960464260824885 6.3469370790384723 4.7579012754534453 -0.84804810408105047 0 -0.52991925155115449 0.13247981288778862 0 -0.21201202602026262 1 I I -0.70710678118654746 0.70710678118654746 0.25 forward I I I I #
loop $-1 $-1 $197 $49 #
coedge $-1 $124 $124 $198 $199 reversed $78 $-1 #
face $-1 $200 $201 $30 $-1 $202 reversed single #
loop $-1 $-1 $203 $80 #
plane-surface $-1 0 -22.766202203055261 0 0 1 0 0 0 1 forward_v I I I I #
coedge $-1 $204 $205 $206 $207 forward $81 $-1 #
coedge $-1 $208 $83 $209 $210 forward $51 $-1 #
coedge $-1 $83 $208 $211 $212 forward $51 $-1 #
coedge $-1 $213 $214 $83 $132 reversed $215 $-1 #
edge $-1 $216 -22.766202203055261 $217 22.766202203055261 $131 $218 forward 7 unknown #
face $-1 $219 $220 $31 $-1 $221 forward single #
loop $-1 $-1 $222 $84 #
plane-surface $-1 40.189214758751184 0 0 -1 0 0 0 0 1 forward_v I I I I #
coedge $-1 $223 $224 $225 $226 forward $85 $-1 #
coedge $-1 $225 $87 $222 $227 reversed $54 $-1 #
coedge $-1 $87 $225 $228 $229 reversed $54 $-1 #
coedge $-1 $230 $231 $87 $140 reversed $220 $-1 #
edge $-1 $232 -40.189214758751184 $233 40.189214758751184 $139 $234 forward 7 unknown #
face $-1 $235 $236 $32 $-1 $237 forward single #
loop $-1 $-1 $238 $88 #
plane-surface $-1 -23.488117249789084 17.416815237273834 0 -1 0 0 0 0 1 forward_v I I I I #
coedge $-1 $239 $240 $241 $242 reversed $89 $-1 #
coedge $-1 $243 $91 $244 $245 reversed $57 $-1 #
coedge $-1 $91 $243 $246 $247 reversed $57 $-1 #
coedge $-1 $240 $239 $91 $148 reversed $89 $-1 #
edge $-1 $248 -8.3505487544810499 $249 8.3505487544810499 $147 $250 forward 7 unknown #
face $-1 $251 $252 $33 $-1 $253 forward single #
loop $-1 $-1 $254 $92 #
plane-surface $-1 -93.972882686819815 6.5081419209828191 64.63480239492516 0 -1 0 0.66913061440640931 0 -0.74314481823134659 forward_v I I I I #
coedge $-1 $255 $256 $257 $258 reversed $93 $-1 #
coedge $-1 $154 $95 $259 $260 reversed $60 $-1 #
coedge $-1 $95 $153 $255 $261 reversed $60 $-1 #
coedge $-1 $257 $262 $95 $156 forward $252 $-1 #
edge $-1 $263 6.7972265846587234 $264 10.627240121137142 $155 $265 forward 7 unknown #
loop $-1 $-1 $162 $96 #
plane-surface $-1 -40.189214758751191 3.384857049664415 4.9019890014197571 -0.66913061440640931 0 0.74314481823134659 0.74314481823134659 0 0.66913061440640931 forward_v I I I I #
loop $-1 $-1 $266 $62 #
coedge $-1 $160 $160 $161 $267 reversed $97 $-1 #
coedge $-1 $161 $161 $160 $267 forward $99 $-1 #
coedge $-1 $162 $162 $100 $163 forward $157 $-1 #
edge $-1 $268 0 $268 6.2831853071796004 $162 $269 forward 7 unknown #
loop $-1 $-1 $169 $101 #
plane-surface $-1 -40.189214758751191 3.384857049664415 4.9019890014197571 -0.66913061440640931 0 0.74314481823134659 0.74314481823134659 0 0.66913061440640931 forward_v I I I I #
loop $-1 $-1 $270 $65 #
coedge $-1 $167 $167 $168 $271 reversed $102 $-1 #
coedge $-1 $168 $168 $167 $271 forward $104 $-1 #
coedge $-1 $169 $169 $105 $170 forward $164 $-1 #
edge $-1 $272 0 $272 6.2831853071796004 $169 $273 forward 7 unknown #
face $-1 $274 $275 $36 $-1 $276 reversed single #
loop $-1 $-1 $277 $106 #
plane-surface $-1 65.759912309309328 1.2993468151477181 113.94122584447635 0 1 0 0.84804810408105047 0 0.52991925155115449 forward_v I I I I #
coedge $-1 $278 $279 $280 $281 reversed $107 $-1 #
coedge $-1 $176 $109 $282 $283 reversed $69 $-1 #
coedge $-1 $109 $175 $278 $284 reversed $69 $-1 #
coedge $-1 $280 $285 $109 $178 forward $286 $-1 #
edge $-1 $287 -7.3092586040965202 $288 -4.0798246224248018 $177 $289 forward 7 unknown #
loop $-1 $-1 $184 $110 #
plane-surface $-1 -2.4048624520208932 4.4540907300794359 71.347148633704279 0.84804810408105047 0 0.52991925155115449 0.52991925155115449 0 -0.84804810408105047 forward_v I I I I #
loop $-1 $-1 $290 $71 #
coedge $-1 $182 $182 $183 $291 reversed $111 $-1 #
coedge $-1 $183 $183 $182 $291 forward $113 $-1 #
coedge $-1 $184 $184 $114 $185 forward $179 $-1 #
edge $-1 $292 0 $292 6.2831853071796004 $184 $293 forward 7 unknown #
loop $-1 $-1 $191 $115 #
plane-surface $-1 -2.4048624520208932 4.4540907300794359 71.347148633704279 0.84804810408105047 0 0.52991925155115449 0.52991925155115449 0 -0.84804810408105047 forward_v I I I I #
loop $-1 $-1 $294 $74 #
coedge $-1 $189 $189 $190 $295 reversed $116 $-1 #
coedge $-1 $190 $190 $189 $295 forward $118 $-1 #
coedge $-1 $191 $191 $119 $192 forward $186 $-1 #
edge $-1 $296 0 $296 6.2831853071796004 $191 $297 forward 7 unknown #
loop $-1 $-1 $198 $120 #
plane-surface $-1 -2.4048624520208932 4.4540907300794359 71.347148633704279 0.84804810408105047 0 0.52991925155115449 0.52991925155115449 0 -0.84804810408105047 forward_v I I I I #
loop $-1 $-1 $298 $77 #
coedge $-1 $196 $196 $197 $299 reversed $121 $-1 #
coedge $-1 $197 $197 $196 $299 forward $123 $-1 #
coedge $-1 $198 $198 $124 $199 forward $193 $-1 #
edge $-1 $300 0 $300 6.2831853071796004 $198 $301 forward 7 unknown #
face $-1 $302 $303 $30 $-1 $304 reversed single #
loop $-1 $-1 $305 $125 #
plane-surface $-1 -40.189214758751184 0 0 1 0 0 0 0 -1 forward_v I I I I #
coedge $-1 $306 $211 $307 $308 forward $126 $-1 #
coedge $-1 $309 $128 $306 $310 forward $81 $-1 #
coedge $-1 $128 $309 $311 $312 forward $81 $-1 #
coedge $-1 $214 $213 $128 $207 reversed $215 $-1 #
edge $-1 $313 -22.766202203055261 $314 22.766202203055261 $206 $315 forward 7 unknown #
coedge $-1 $130 $129 $316 $317 forward $51 $-1 #
coedge $-1 $318 $319 $129 $210 reversed $303 $-1 #
edge $-1 $217 -40.189214758751184 $320 40.189214758751184 $209 $321 forward 7 unknown #
coedge $-1 $203 $322 $130 $212 reversed $126 $-1 #
edge $-1 $323 -40.189214758751184 $216 40.189214758751184 $211 $324 forward 7 unknown #
coedge $-1 $206 $131 $322 $325 forward $215 $-1 #
coedge $-1 $131 $206 $318 $326 reversed $215 $-1 #
loop $-1 $-1 $213 $302 #
vertex $-1 $132 $327 #
vertex $-1 $132 $328 #
straight-curve $-1 40.189214758751184 0 8.3505487544810499 0 1 0 I I #
face $-1 $329 $330 $31 $-1 $331 reversed single #
loop $-1 $-1 $231 $133 #
plane-surface $-1 0 -27.880027087162158 -5.3458598929715286 0 0 1 1 0 0 forward_v I I I I #
coedge $-1 $332 $333 $137 $227 forward $134 $-1 #
coedge $-1 $334 $136 $333 $335 forward $85 $-1 #
coedge $-1 $136 $334 $336 $337 forward $85 $-1 #
coedge $-1 $138 $137 $136 $226 reversed $54 $-1 #
edge $-1 $338 -40.189214758751184 $339 40.189214758751184 $136 $340 forward 7 unknown #
edge $-1 $339 -8.3505487544810499 $233 -5.3458598929715286 $222 $341 forward 7 unknown #
coedge $-1 $336 $342 $138 $229 forward $343 $-1 #
edge $-1 $232 5.3458598929715286 $338 8.3505487544810499 $228 $344 forward 7 unknown #
coedge $-1 $345 $139 $342 $346 forward $220 $-1 #
coedge $-1 $139 $345 $332 $347 forward $220 $-1 #
vertex $-1 $229 $348 #
vertex $-1 $347 $349 #
straight-curve $-1 0 -22.766202203055261 -5.3458598929715286 1 0 0 I I #
face $-1 $350 $351 $32 $-1 $352 reversed single #
loop $-1 $-1 $353 $141 #
plane-surface $-1 0 0 8.3505487544810499 0 0 1 1 0 0 forward_v I I I I #
coedge $-1 $354 $355 $243 $356 forward $142 $-1 #
coedge $-1 $147 $144 $357 $358 reversed $89 $-1 #
coedge $-1 $144 $147 $353 $359 reversed $89 $-1 #
coedge $-1 $360 $361 $144 $242 forward $362 $-1 #
edge $-1 $363 -8.3505487544810499 $364 8.3505487544810499 $241 $365 forward 7 unknown #
coedge $-1 $146 $145 $238 $356 reversed $57 $-1 #
coedge $-1 $357 $366 $145 $245 forward $351 $-1 #
edge $-1 $367 10.994058624894542 $249 13.994058624894542 $244 $368 forward 7 unknown #
coedge $-1 $369 $353 $146 $247 forward $236 $-1 #
edge $-1 $248 -13.994058624894542 $370 -10.994058624894542 $246 $371 forward 7 unknown #
vertex $-1 $247 $372 #
vertex $-1 $245 $373 #
straight-curve $-1 -26.488117249789084 12.067428271492403 0 0 0 -1 I I #
face $-1 $-1 $374 $33 $-1 $375 reversed single #
loop $-1 $-1 $155 $149 #
plane-surface $-1 0 0 8.3505487544810499 0 0 1 1 0 0 forward_v I I I I #
coedge $-1 $376 $377 $378 $379 reversed $150 $-1 #
coedge $-1 $380 $152 $154 $261 forward $93 $-1 #
coedge $-1 $152 $380 $376 $381 forward $93 $-1 #
coedge $-1 $378 $155 $152 $258 forward $252 $-1 #
edge $-1 $264 -1.4308563464861965 $382 4.8157133961506116 $257 $383 forward 7 unknown #
coedge $-1 $384 $385 $153 $260 forward $374 $-1 #
edge $-1 $386 -27.415412196042816 $263 -23.96685244298153 $259 $387 forward 7 unknown #
edge $-1 $264 -5.1537916197729743 $386 -9.4405131238556439e-015 $154 $388 forward 7 unknown #
coedge $-1 $155 $378 $384 $389 forward $252 $-1 #
vertex $-1 $260 $390 #
vertex $-1 $156 $391 #
straight-curve $-1 -46.986441343409908 0.26157217834601099 8.3505487544810499 1 0 0 I I #
coedge $-1 $266 $266 $-1 $392 reversed $159 $-1 #
edge $-1 $393 0 $393 6.2831853071796004 $160 $394 forward 7 unknown #
vertex $-1 $163 $395 #
ellipse-curve $-1 -38.274207990511975 2.0463063905279562 6.6262688779504089 -0.66913061440640931 0 0.74314481823134659 0.3715724091156733 0 0.33456530720320465 1 I I #
coedge $-1 $270 $270 $-1 $396 reversed $166 $-1 #
edge $-1 $397 0 $397 6.2831853071796004 $167 $398 forward 7 unknown #
vertex $-1 $170 $399 #
ellipse-curve $-1 -38.274207990511975 4.7234077088008739 6.6262688779504089 -0.66913061440640931 0 0.74314481823134659 0.3715724091156733 0 0.33456530720320465 1 I I #
face $-1 $-1 $286 $36 $-1 $400 forward single #
loop $-1 $-1 $401 $171 #
plane-surface $-1 40.189214758751184 0 0 -1 0 0 0 0 1 forward_v I I I I #
coedge $-1 $402 $403 $404 $405 reversed $172 $-1 #
coedge $-1 $406 $174 $176 $284 forward $107 $-1 #
coedge $-1 $174 $406 $402 $407 forward $107 $-1 #
coedge $-1 $404 $177 $174 $281 forward $286 $-1 #
edge $-1 $288 -5.3817892799714357 $408 0.92769854989199985 $280 $409 forward 7 unknown #
coedge $-1 $410 $411 $175 $283 forward $275 $-1 #
edge $-1 $412 -53.788239049864117 $287 -48.620064167757121 $282 $413 forward 7 unknown #
edge $-1 $288 74.284229368670879 $412 80.378429517502354 $176 $414 forward 7 unknown #
coedge $-1 $177 $404 $410 $415 forward $286 $-1 #
loop $-1 $-1 $404 $274 #
vertex $-1 $283 $416 #
vertex $-1 $178 $417 #
straight-curve $-1 32.879956154654664 7.6088346450111537 8.3505487544810535 -1 0 0 I I #
coedge $-1 $290 $290 $-1 $418 reversed $181 $-1 #
edge $-1 $419 0 $419 6.2831853071796004 $182 $420 forward 7 unknown #
vertex $-1 $185 $421 #
ellipse-curve $-1 38.574497767915332 2.5612443811204066 5.7664613134275537 0.84804810408105047 0 0.52991925155115449 0.26495962577557725 0 -0.42402405204052523 1 I I #
coedge $-1 $294 $294 $-1 $422 reversed $188 $-1 #
edge $-1 $423 0 $423 6.2831853071796004 $189 $424 forward 7 unknown #
vertex $-1 $192 $425 #
ellipse-curve $-1 38.574497767915332 4.4540907300794395 5.7664613134275537 0.84804810408105047 0 0.52991925155115449 0.26495962577557725 0 -0.42402405204052523 1 I I #
coedge $-1 $298 $298 $-1 $426 reversed $195 $-1 #
edge $-1 $427 0 $427 6.2831853071796004 $196 $428 forward 7 unknown #
vertex $-1 $199 $429 #
ellipse-curve $-1 38.574497767915332 6.3469370790384723 5.7664613134275537 0.84804810408105047 0 0.52991925155115449 0.26495962577557725 0 -0.42402405204052523 1 I I #
face $-1 $-1 $215 $30 $-1 $430 reversed single #
loop $-1 $-1 $318 $200 #
plane-surface $-1 0 22.766202203055261 0 0 -1 0 0 0 -1 forward_v I I I I #
coedge $-1 $431 $316 $319 $432 forward $201 $-1 #
coedge $-1 $322 $203 $204 $310 reversed $126 $-1 #
coedge $-1 $316 $431 $203 $308 reversed $201 $-1 #
edge $-1 $323 -8.3505487544810499 $433 8.3505487544810499 $307 $434 forward 7 unknown #
coedge $-1 $205 $204 $431 $435 forward $81 $-1 #
edge $-1 $314 -40.189214758751184 $433 40.189214758751184 $306 $436 forward 7 unknown #
coedge $-1 $319 $318 $205 $312 reversed $303 $-1 #
edge $-1 $437 -40.189214758751184 $313 40.189214758751184 $311 $438 forward 7 unknown #
vertex $-1 $207 $439 #
vertex $-1 $325 $440 #
straight-curve $-1 40.189214758751184 0 -8.3505487544810499 0 -1 0 I I #
coedge $-1 $305 $307 $208 $317 reversed $201 $-1 #
edge $-1 $320 -22.766202203055261 $323 22.766202203055261 $316 $441 forward 7 unknown #
coedge $-1 $311 $209 $214 $326 forward $303 $-1 #
coedge $-1 $209 $311 $305 $432 reversed $303 $-1 #
vertex $-1 $210 $442 #
straight-curve $-1 0 22.766202203055261 8.3505487544810499 -1 0 0 I I #
coedge $-1 $211 $306 $213 $325 reversed $126 $-1 #
vertex $-1 $317 $443 #
straight-curve $-1 0 -22.766202203055261 8.3505487544810499 1 0 0 I I #
edge $-1 $216 -8.3505487544810499 $314 8.3505487544810499 $213 $444 forward 7 unknown #
edge $-1 $217 -8.3505487544810499 $313 8.3505487544810499 $214 $445 forward 7 unknown #
point $-1 40.189214758751184 -22.766202203055261 8.3505487544810499 #
point $-1 40.189214758751184 22.766202203055261 8.3505487544810499 #
face $-1 $-1 $343 $31 $-1 $446 reversed single #
loop $-1 $-1 $447 $219 #
plane-surface $-1 0 -32.993851971269052 -6.8482043237262893 0 1 0 0 0 1 forward_v I I I I #
coedge $-1 $448 $222 $231 $347 reversed $134 $-1 #
coedge $-1 $222 $448 $223 $335 reversed $134 $-1 #
coedge $-1 $224 $223 $449 $450 forward $85 $-1 #
edge $-1 $339 22.766202203055261 $451 32.993851971269052 $333 $452 forward 7 unknown #
coedge $-1 $453 $228 $224 $337 reversed $343 $-1 #
edge $-1 $454 -32.993851971269052 $338 -22.766202203055261 $336 $455 forward 7 unknown #
vertex $-1 $229 $456 #
vertex $-1 $335 $457 #
straight-curve $-1 0 -22.766202203055261 -8.3505487544810499 1 0 0 I I #
straight-curve $-1 40.189214758751184 -22.766202203055261 0 0 0 1 I I #
coedge $-1 $228 $453 $230 $346 reversed $343 $-1 #
loop $-1 $-1 $228 $329 #
straight-curve $-1 -40.189214758751184 -22.766202203055261 0 0 0 -1 I I #
coedge $-1 $231 $230 $458 $459 forward $220 $-1 #
edge $-1 $232 -5.1138248841068972 $460 5.1138248841068936 $342 $461 forward 7 unknown #
edge $-1 $462 -5.1138248841068936 $233 5.1138248841068972 $332 $463 forward 7 unknown #
point $-1 -40.189214758751184 -22.766202203055261 -5.3458598929715286 #
point $-1 40.189214758751184 -22.766202203055261 -5.3458598929715286 #
face $-1 $-1 $362 $32 $-1 $464 reversed single #
loop $-1 $-1 $357 $235 #
plane-surface $-1 0 0 -8.3505487544810499 0 0 1 1 0 0 forward_v I I I I #
coedge $-1 $246 $465 $240 $359 forward $236 $-1 #
coedge $-1 $466 $238 $366 $467 reversed $142 $-1 #
coedge $-1 $238 $466 $369 $468 reversed $142 $-1 #
edge $-1 $370 -8.3505487544810499 $367 8.3505487544810499 $238 $469 forward 7 unknown #
coedge $-1 $470 $244 $239 $358 forward $351 $-1 #
edge $-1 $249 3.3590206528554862 $363 14.057794584418348 $357 $471 forward 7 unknown #
edge $-1 $364 -14.057794584418348 $248 -3.3590206528554862 $353 $472 forward 7 unknown #
coedge $-1 $473 $241 $465 $474 reversed $362 $-1 #
coedge $-1 $241 $473 $470 $475 reversed $362 $-1 #
loop $-1 $-1 $241 $350 #
vertex $-1 $475 $476 #
vertex $-1 $242 $477 #
straight-curve $-1 -26.488117249789084 22.766202203055261 0 0 0 1 I I #
coedge $-1 $244 $470 $354 $467 forward $351 $-1 #
vertex $-1 $245 $478 #
straight-curve $-1 -12.494058624894542 12.067428271492403 -8.3505487544810499 -1 0 0 I I #
coedge $-1 $465 $246 $355 $468 forward $236 $-1 #
vertex $-1 $247 $479 #
straight-curve $-1 -12.494058624894542 12.067428271492403 8.3505487544810499 1 0 0 I I #
point $-1 -26.488117249789084 12.067428271492403 8.3505487544810499 #
point $-1 -26.488117249789084 12.067428271492403 -8.3505487544810499 #
loop $-1 $-1 $259 $251 #
plane-surface $-1 -40.189214758751184 0 0 1 0 0 0 0 -1 forward_v I I I I #
coedge $-1 $377 $254 $256 $381 reversed $150 $-1 #
coedge $-1 $254 $376 $480 $481 reversed $150 $-1 #
coedge $-1 $262 $257 $254 $379 forward $252 $-1 #
edge $-1 $382 -10.627240121137142 $482 -6.7972265846587234 $378 $483 forward 7 unknown #
coedge $-1 $256 $255 $385 $484 reversed $93 $-1 #
edge $-1 $485 9.4405131238556439e-015 $382 5.1537916197729743 $376 $486 forward 7 unknown #
vertex $-1 $258 $487 #
straight-curve $-1 -36.359201222272773 1.6924285248322075 8.3505487544810499 0 1 0 I I #
coedge $-1 $480 $259 $262 $389 reversed $374 $-1 #
coedge $-1 $259 $480 $380 $484 forward $374 $-1 #
vertex $-1 $260 $488 #
straight-curve $-1 -40.189214758751184 0.26157217834601099 32.31740119746258 0 0 1 I I #
straight-curve $-1 -40.189214758751191 0.26157217834601099 4.9019890014197571 -0.74314481823134659 0 -0.66913061440640931 I I #
edge $-1 $482 -6.5081419209828191 $263 -0.26157217834601099 $384 $489 forward 7 unknown #
point $-1 -40.189214758751184 0.26157217834601099 8.3505487544810499 #
point $-1 -36.359201222272766 0.26157217834601099 8.3505487544810499 #
edge $-1 $490 1 $490 0 $266 $-1 forward 7 unknown #
vertex $-1 $267 $491 #
ellipse-curve $-1 -37.124666222529768 2.0463063905279562 5.349573431913595 -0.66913061440640931 0 0.74314481823134659 0.3715724091156733 0 0.33456530720320465 1 I I #
point $-1 -37.902635581396297 2.0463063905279562 6.9608341851536073 #
edge $-1 $492 1 $492 0 $270 $-1 forward 7 unknown #
vertex $-1 $271 $493 #
ellipse-curve $-1 -37.124666222529768 4.7234077088008739 5.349573431913595 -0.66913061440640931 0 0.74314481823134659 0.3715724091156733 0 0.33456530720320465 1 I I #
point $-1 -37.902635581396297 4.7234077088008739 6.9608341851536073 #
plane-surface $-1 0 0 8.3505487544810499 0 0 1 1 0 0 forward_v I I I I #
coedge $-1 $411 $410 $403 $494 forward $275 $-1 #
coedge $-1 $403 $277 $279 $407 reversed $172 $-1 #
coedge $-1 $277 $402 $401 $494 reversed $172 $-1 #
coedge $-1 $285 $280 $277 $405 forward $286 $-1 #
edge $-1 $408 4.0798246224248018 $495 7.3092586040965202 $404 $496 forward 7 unknown #
coedge $-1 $279 $278 $411 $497 reversed $107 $-1 #
edge $-1 $498 -80.378429517502354 $408 -74.284229368670879 $402 $499 forward 7 unknown #
vertex $-1 $281 $500 #
straight-curve $-1 36.959780777079466 2.227045365039718 8.3505487544810535 0 -1 0 I I #
coedge $-1 $401 $282 $285 $415 reversed $275 $-1 #
coedge $-1 $282 $401 $406 $497 forward $275 $-1 #
vertex $-1 $283 $501 #
straight-curve $-1 40.189214758751184 7.6088346450111537 56.970612922238175 0 0 1 I I #
straight-curve $-1 -2.4048624520208932 7.6088346450111537 71.347148633704279 0.52991925155115449 0 -0.84804810408105047 I I #
edge $-1 $495 1.2993468151477181 $287 7.6088346450111537 $410 $502 forward 7 unknown #
point $-1 40.189214758751184 7.6088346450111537 8.3505487544810499 #
point $-1 36.959780777079466 7.6088346450111537 8.3505487544810535 #
edge $-1 $503 1 $503 0 $290 $-1 forward 7 unknown #
vertex $-1 $291 $504 #
ellipse-curve $-1 37.172476286845146 2.5612443811204066 4.8903810883412335 0.84804810408105047 0 0.52991925155115449 0.26495962577557725 0 -0.42402405204052523 1 I I #
point $-1 38.839457393690907 2.5612443811204066 5.3424372613870261 #
edge $-1 $505 1 $505 0 $294 $-1 forward 7 unknown #
vertex $-1 $295 $506 #
ellipse-curve $-1 37.172476286845146 4.4540907300794395 4.8903810883412335 0.84804810408105047 0 0.52991925155115449 0.26495962577557725 0 -0.42402405204052523 1 I I #
point $-1 38.839457393690907 4.4540907300794395 5.3424372613870261 #
edge $-1 $507 1 $507 0 $298 $-1 forward 7 unknown #
vertex $-1 $299 $508 #
ellipse-curve $-1 37.172476286845146 6.3469370790384723 4.8903810883412335 0.84804810408105047 0 0.52991925155115449 0.26495962577557725 0 -0.42402405204052523 1 I I #
point $-1 38.839457393690907 6.3469370790384723 5.3424372613870261 #
plane-surface $-1 40.189214758751184 0 0 -1 0 0 0 0 1 forward_v I I I I #
coedge $-1 $307 $305 $309 $435 reversed $201 $-1 #
edge $-1 $320 -8.3505487544810499 $437 8.3505487544810499 $319 $509 forward 7 unknown #
vertex $-1 $435 $510 #
straight-curve $-1 -40.189214758751184 -22.766202203055261 0 0 0 -1 I I #
edge $-1 $433 -22.766202203055261 $437 22.766202203055261 $431 $511 forward 7 unknown #
straight-curve $-1 0 -22.766202203055261 -8.3505487544810499 -1 0 0 I I #
vertex $-1 $312 $512 #
straight-curve $-1 0 22.766202203055261 -8.3505487544810499 1 0 0 I I #
point $-1 40.189214758751184 22.766202203055261 -8.3505487544810499 #
point $-1 40.189214758751184 -22.766202203055261 -8.3505487544810499 #
straight-curve $-1 -40.189214758751184 0 8.3505487544810499 0 -1 0 I I #
point $-1 -40.189214758751184 22.766202203055261 8.3505487544810499 #
point $-1 -40.189214758751184 -22.766202203055261 8.3505487544810499 #
straight-curve $-1 40.189214758751184 -22.766202203055261 0 0 0 -1 I I #
straight-curve $-1 40.189214758751184 22.766202203055261 0 0 0 -1 I I #
plane-surface $-1 -40.189214758751184 0 0 1 0 0 0 0 -1 forward_v I I I I #
coedge $-1 $449 $458 $453 $513 forward $330 $-1 #
coedge $-1 $333 $332 $514 $515 forward $134 $-1 #
coedge $-1 $514 $447 $334 $450 reversed $330 $-1 #
edge $-1 $451 -40.189214758751184 $454 40.189214758751184 $449 $516 forward 7 unknown #
vertex $-1 $515 $517 #
straight-curve $-1 40.189214758751184 0 -8.3505487544810499 0 -1 0 I I #
coedge $-1 $342 $336 $447 $513 reversed $343 $-1 #
vertex $-1 $337 $518 #
straight-curve $-1 -40.189214758751184 0 -8.3505487544810499 0 1 0 I I #
point $-1 -40.189214758751184 -22.766202203055261 -8.3505487544810499 #
point $-1 40.189214758751184 -22.766202203055261 -8.3505487544810499 #
coedge $-1 $447 $514 $345 $459 reversed $330 $-1 #
edge $-1 $460 -40.189214758751184 $462 40.189214758751184 $458 $519 forward 7 unknown #
vertex $-1 $346 $520 #
straight-curve $-1 -40.189214758751184 -27.880027087162158 -5.3458598929715286 0 -1 0 I I #
vertex $-1 $347 $521 #
straight-curve $-1 40.189214758751184 -27.880027087162158 -5.3458598929715286 0 1 0 I I #
plane-surface $-1 0 22.766202203055261 0 0 -1 0 0 0 -1 forward_v I I I I #
coedge $-1 $353 $369 $360 $474 forward $236 $-1 #
coedge $-1 $355 $354 $473 $522 reversed $142 $-1 #
edge $-1 $523 -14.057794584418348 $367 -3.3590206528554862 $366 $524 forward 7 unknown #
edge $-1 $370 3.3590206528554862 $525 14.057794584418348 $369 $526 forward 7 unknown #
straight-curve $-1 -23.488117249789084 12.067428271492403 0 0 0 -1 I I #
coedge $-1 $366 $357 $361 $475 forward $351 $-1 #
straight-curve $-1 -26.488117249789084 8.708407618636917 -8.3505487544810499 0 1 0 I I #
straight-curve $-1 -26.488117249789084 8.708407618636917 8.3505487544810499 0 -1 0 I I #
coedge $-1 $361 $360 $466 $522 forward $362 $-1 #
edge $-1 $525 23.488117249789084 $364 26.488117249789084 $360 $527 forward 7 unknown #
edge $-1 $363 -26.488117249789084 $523 -23.488117249789084 $361 $528 forward 7 unknown #
point $-1 -26.488117249789084 22.766202203055265 -8.3505487544810499 #
point $-1 -26.488117249789084 22.766202203055265 8.3505487544810499 #
point $-1 -23.488117249789084 12.067428271492403 -8.3505487544810499 #
point $-1 -23.488117249789084 12.067428271492403 8.3505487544810499 #
coedge $-1 $385 $384 $377 $481 forward $374 $-1 #
edge $-1 $482 23.96685244298153 $485 27.415412196042816 $480 $529 forward 7 unknown #
vertex $-1 $389 $530 #
straight-curve $-1 -46.986441343409908 6.5081419209828191 8.3505487544810499 -1 0 0 I I #
edge $-1 $485 -4.8157133961506116 $386 1.4308563464861965 $385 $531 forward 7 unknown #
vertex $-1 $484 $532 #
straight-curve $-1 -40.189214758751191 6.5081419209828191 4.9019890014197571 0.74314481823134659 0 0.66913061440640931 I I #
point $-1 -36.359201222272766 6.5081419209828191 8.3505487544810499 #
point $-1 -40.189214758751184 0.26157217834601099 4.9019890014197633 #
straight-curve $-1 -40.189214758751184 0 8.3505487544810499 0 -1 0 I I #
vertex $-1 $392 $533 #
point $-1 -36.753093813414097 2.0463063905279562 5.6841387391167997 #
vertex $-1 $396 $534 #
point $-1 -36.753093813414097 4.7234077088008739 5.6841387391167997 #
edge $-1 $495 48.620064167757121 $498 53.788239049864117 $401 $535 forward 7 unknown #
vertex $-1 $415 $536 #
straight-curve $-1 32.879956154654664 1.2993468151477181 8.3505487544810535 1 0 0 I I #
edge $-1 $498 -0.92769854989199985 $412 5.3817892799714357 $411 $537 forward 7 unknown #
vertex $-1 $497 $538 #
straight-curve $-1 -2.4048624520208932 1.2993468151477181 71.347148633704279 -0.52991925155115449 0 0.84804810408105047 I I #
point $-1 36.959780777079466 1.2993468151477181 8.3505487544810535 #
point $-1 40.189214758751184 7.6088346450111537 3.1823738723740576 #
straight-curve $-1 40.189214758751184 0 8.3505487544810499 0 1 0 I I #
vertex $-1 $418 $539 #
point $-1 37.437435912620728 2.5612443811204066 4.4663570363007086 #
vertex $-1 $422 $540 #
point $-1 37.437435912620728 4.4540907300794395 4.4663570363007086 #
vertex $-1 $426 $541 #
point $-1 37.437435912620728 6.3469370790384723 4.4663570363007086 #
straight-curve $-1 -40.189214758751184 22.766202203055261 0 0 0 -1 I I #
point $-1 -40.189214758751184 -22.766202203055261 -8.3505487544810499 #
straight-curve $-1 -40.189214758751184 0 -8.3505487544810499 0 1 0 I I #
point $-1 -40.189214758751184 22.766202203055261 -8.3505487544810499 #
edge $-1 $460 -1.5023444307547607 $454 1.5023444307547607 $453 $542 forward 7 unknown #
coedge $-1 $458 $449 $448 $515 reversed $330 $-1 #
edge $-1 $462 -1.5023444307547607 $451 1.5023444307547607 $448 $543 forward 7 unknown #
straight-curve $-1 0 -32.993851971269052 -8.3505487544810499 -1 0 0 I I #
point $-1 40.189214758751184 -32.993851971269052 -8.3505487544810499 #
point $-1 -40.189214758751184 -32.993851971269052 -8.3505487544810499 #
straight-curve $-1 0 -32.993851971269052 -5.3458598929715286 1 0 0 I I #
point $-1 -40.189214758751184 -32.993851971269052 -5.3458598929715286 #
point $-1 40.189214758751184 -32.993851971269052 -5.3458598929715286 #
edge $-1 $525 -8.3505487544810499 $523 8.3505487544810499 $473 $544 forward 7 unknown #
vertex $-1 $522 $545 #
straight-curve $-1 -23.488117249789084 8.708407618636917 -8.3505487544810499 0 -1 0 I I #
vertex $-1 $474 $546 #
straight-curve $-1 -23.488117249789084 8.708407618636917 8.3505487544810499 0 1 0 I I #
straight-curve $-1 0 22.766202203055261 8.3505487544810499 -1 0 0 I I #
straight-curve $-1 0 22.766202203055261 -8.3505487544810499 1 0 0 I I #
straight-curve $-1 -40.189214758751184 6.5081419209828191 32.31740119746258 0 0 -1 I I #
point $-1 -40.189214758751184 6.5081419209828191 8.3505487544810499 #
straight-curve $-1 -40.189214758751184 1.6924285248322075 4.9019890014197669 0 -1 0 I I #
point $-1 -40.189214758751184 6.5081419209828191 4.9019890014197633 #
point $-1 -36.790100915326562 2.0463063905279562 4.9780010227979217 #
point $-1 -36.790100915326562 4.7234077088008739 4.9780010227979217 #
straight-curve $-1 40.189214758751184 1.2993468151477181 56.970612922238175 0 0 -1 I I #
point $-1 40.189214758751184 1.2993468151477181 8.3505487544810499 #
straight-curve $-1 40.189214758751177 2.227045365039718 3.1823738723740576 0 1 0 I I #
point $-1 40.189214758751184 1.2993468151477181 3.1823738723740576 #
point $-1 36.748452234804624 2.5612443811204066 4.6254214625656571 #
point $-1 36.748452234804624 4.4540907300794395 4.6254214625656571 #
point $-1 36.748452234804624 6.3469370790384723 4.6254214625656571 #
straight-curve $-1 -40.189214758751184 -32.993851971269052 -6.8482043237262893 0 0 -1 I I #
straight-curve $-1 40.189214758751184 -32.993851971269052 -6.8482043237262893 0 0 -1 I I #
straight-curve $-1 -23.488117249789084 22.766202203055261 0 0 0 -1 I I #
point $-1 -23.488117249789084 22.766202203055265 -8.3505487544810499 #
point $-1 -23.488117249789084 22.766202203055265 8.3505487544810499 #
End-of-ACIS-data 