500 0 14 0           
7 Unknown 11 ACIS 5.0 NT 24 Fri Mar 26 01:28:39 1999 
-1 9.9999999999999995e-007 1e-010 
body $-1 $14 $-1 $15 #
body $-1 $16 $-1 $17 #
body $-1 $18 $-1 $19 #
body $-1 $20 $-1 $21 #
body $-1 $22 $-1 $23 #
body $-1 $24 $-1 $25 #
body $-1 $26 $-1 $27 #
body $-1 $28 $-1 $29 #
body $-1 $30 $-1 $31 #
body $-1 $32 $-1 $33 #
body $-1 $34 $-1 $35 #
body $-1 $36 $-1 $37 #
body $-1 $38 $-1 $39 #
body $-1 $40 $-1 $41 #
lump $-1 $-1 $42 $0 #
transform $-1 1 0 0 0 1 0 0 0 1 75.767693105868716 32.988902568565528 10.725646947056882 1 rotate no_reflect no_shear #
lump $-1 $-1 $43 $1 #
transform $-1 1 0 0 0 1 0 0 0 1 75.767693105868716 32.988902568565528 10.725646947056882 1 rotate no_reflect no_shear #
lump $-1 $-1 $44 $2 #
transform $-1 1 0 0 0 1 0 0 0 1 75.767693105868716 32.988902568565528 10.725646947056882 1 rotate no_reflect no_shear #
lump $-1 $-1 $45 $3 #
transform $-1 1 0 0 0 1 0 0 0 1 75.767693105868716 32.988902568565528 10.725646947056882 1 rotate no_reflect no_shear #
lump $-1 $-1 $46 $4 #
transform $-1 1 0 0 0 1 0 0 0 1 75.767693105868716 32.988902568565528 10.725646947056882 1 rotate no_reflect no_shear #
lump $-1 $-1 $47 $5 #
transform $-1 1 0 0 0 1 0 0 0 1 75.767693105868716 32.988902568565528 10.725646947056882 1 rotate no_reflect no_shear #
lump $-1 $-1 $48 $6 #
transform $-1 1 0 0 0 1 0 0 0 1 75.767693105868716 32.988902568565528 10.725646947056882 1 rotate no_reflect no_shear #
lump $-1 $-1 $49 $7 #
transform $-1 1 0 0 0 1 0 0 0 1 75.767693105868716 32.988902568565528 10.725646947056882 1 rotate no_reflect no_shear #
lump $-1 $-1 $50 $8 #
transform $-1 1 0 0 0 1 0 0 0 1 75.767693105868716 32.988902568565528 10.725646947056882 1 rotate no_reflect no_shear #
lump $-1 $-1 $51 $9 #
transform $-1 1 0 0 0 1 0 0 0 1 75.767693105868716 32.988902568565528 10.725646947056882 1 rotate no_reflect no_shear #
lump $-1 $-1 $52 $10 #
transform $-1 1 0 0 0 1 0 0 0 1 75.767693105868716 32.988902568565528 10.725646947056882 1 rotate no_reflect no_shear #
lump $-1 $-1 $53 $11 #
transform $-1 1 0 0 0 1 0 0 0 1 75.767693105868716 32.988902568565528 10.725646947056882 1 rotate no_reflect no_shear #
lump $-1 $-1 $54 $12 #
transform $-1 1 0 0 0 1 0 0 0 1 75.767693105868716 32.988902568565528 10.725646947056882 1 rotate no_reflect no_shear #
lump $-1 $-1 $55 $13 #
transform $-1 1 0 0 0 1 0 0 0 1 75.767693105868716 32.988902568565528 10.725646947056882 1 rotate no_reflect no_shear #
shell $-1 $-1 $-1 $56 $-1 $14 #
shell $-1 $-1 $-1 $57 $-1 $16 #
shell $-1 $-1 $-1 $58 $-1 $18 #
shell $-1 $-1 $-1 $59 $-1 $20 #
shell $-1 $-1 $-1 $60 $-1 $22 #
shell $-1 $-1 $-1 $61 $-1 $24 #
shell $-1 $-1 $-1 $62 $-1 $26 #
shell $-1 $-1 $-1 $63 $-1 $28 #
shell $-1 $-1 $-1 $64 $-1 $30 #
shell $-1 $-1 $-1 $65 $-1 $32 #
shell $-1 $-1 $-1 $66 $-1 $34 #
shell $-1 $-1 $-1 $67 $-1 $36 #
shell $-1 $-1 $-1 $68 $-1 $38 #
shell $-1 $-1 $-1 $69 $-1 $40 #
face $-1 $70 $71 $42 $-1 $72 forward single #
face $-1 $73 $74 $43 $-1 $75 reversed single #
face $-1 $76 $77 $44 $-1 $78 reversed single #
face $-1 $79 $80 $45 $-1 $81 reversed single #
face $-1 $82 $83 $46 $-1 $84 forward single #
face $-1 $85 $86 $47 $-1 $87 forward single #
face $-1 $88 $89 $48 $-1 $90 reversed single #
face $-1 $91 $92 $49 $-1 $93 forward single #
face $-1 $94 $95 $50 $-1 $96 forward single #
face $-1 $97 $98 $51 $-1 $99 forward single #
face $-1 $100 $101 $52 $-1 $102 reversed single #
face $-1 $103 $104 $53 $-1 $105 forward single #
face $-1 $106 $107 $54 $-1 $108 forward single #
face $-1 $109 $110 $55 $-1 $111 forward single #
face $-1 $112 $113 $42 $-1 $114 reversed single #
loop $-1 $-1 $115 $56 #
plane-surface $-1 0 0 10.725646947056882 0 0 1 1 0 0 forward_v I I I I #
face $-1 $116 $117 $43 $-1 $118 reversed single #
loop $-1 $-1 $119 $57 #
plane-surface $-1 -73.927480911618161 -26.689117713443899 0 1 0 0 0 0 -1 forward_v I I I I #
face $-1 $120 $121 $44 $-1 $122 reversed single #
loop $-1 $-1 $123 $58 #
plane-surface $-1 -72.156130514755517 20.38933285832227 0 0 1 0 0 0 1 forward_v I I I I #
face $-1 $124 $125 $45 $-1 $126 reversed single #
loop $-1 $-1 $127 $59 #
plane-surface $-1 -188.38043250073429 10.910981553993569 103.63494194598429 0 1 0 -0.74314483375859142 0 0.66913059716165679 forward_v I I I I #
face $-1 $128 $129 $46 $-1 $130 forward single #
loop $-1 $131 $132 $60 #
cone-surface $-1 -71.23928478137185 13.619081926658907 5.8450083506561237 0.74314483375859142 0 -0.66913059716165679 0.66913059716165679 0 0.74314483375859142 1 I I 0 1 1 forward I I I I #
face $-1 $133 $134 $47 $-1 $135 forward single #
loop $-1 $136 $137 $61 #
cone-surface $-1 -71.23928478137185 17.681232485656928 5.8450083506561237 0.74314483375859142 0 -0.66913059716165679 0.66913059716165679 0 0.74314483375859142 1 I I 0 1 1 forward I I I I #
face $-1 $138 $139 $48 $-1 $140 reversed single #
loop $-1 $-1 $141 $62 #
plane-surface $-1 123.97547163908337 -2.5529031695862372 214.60239816185282 0 -1 0 -0.84804810408105047 0 -0.52991925155115449 forward_v I I I I #
face $-1 $142 $143 $49 $-1 $144 forward single #
loop $-1 $145 $146 $63 #
cone-surface $-1 73.802096353130253 -7.7096040741003691 7.9936552172329147 -0.84804810408105047 0 -0.52991925155115449 0.26495962577557725 0 -0.42402405204052523 1 I I 0 1 0.5 forward I I I I #
face $-1 $147 $148 $50 $-1 $149 forward single #
loop $-1 $150 $151 $64 #
cone-surface $-1 73.802096353130253 -5.7758412349075705 7.9936552172329147 -0.84804810408105047 0 -0.52991925155115449 0.26495962577557725 0 -0.42402405204052523 1 I I 0 1 0.5 forward I I I I #
face $-1 $152 $153 $51 $-1 $154 forward single #
loop $-1 $155 $156 $65 #
cone-surface $-1 73.802096353130253 -3.8420783957147719 7.9936552172329147 -0.84804810408105047 0 -0.52991925155115449 0.26495962577557725 0 -0.42402405204052523 1 I I 0 1 0.5 forward I I I I #
face $-1 $157 $158 $52 $-1 $159 reversed single #
loop $-1 $-1 $160 $66 #
plane-surface $-1 123.97547163908337 17.836429688736029 214.60239816185282 0 -1 0 -0.84804810408105047 0 -0.52991925155115449 forward_v I I I I #
face $-1 $161 $162 $53 $-1 $163 forward single #
loop $-1 $164 $165 $67 #
cone-surface $-1 73.802096353130253 12.679728784221901 7.9936552172329147 -0.84804810408105047 0 -0.52991925155115449 0.26495962577557725 0 -0.42402405204052523 1 I I 0 1 0.5 forward I I I I #
face $-1 $166 $167 $54 $-1 $168 forward single #
loop $-1 $169 $170 $68 #
cone-surface $-1 73.802096353130253 14.613491623414696 7.9936552172329147 -0.84804810408105047 0 -0.52991925155115449 0.26495962577557725 0 -0.42402405204052523 1 I I 0 1 0.5 forward I I I I #
face $-1 $171 $172 $55 $-1 $173 forward single #
loop $-1 $174 $175 $69 #
cone-surface $-1 73.802096353130253 16.547254462607498 7.9936552172329147 -0.84804810408105047 0 -0.52991925155115449 0.26495962577557725 0 -0.42402405204052523 1 I I 0 1 0.5 forward I I I I #
face $-1 $176 $177 $42 $-1 $178 reversed single #
loop $-1 $-1 $179 $70 #
plane-surface $-1 0 0 -10.725646947056882 0 0 1 1 0 0 forward_v I I I I #
coedge $-1 $180 $181 $182 $183 forward $71 $-1 #
face $-1 $184 $185 $43 $-1 $186 reversed single #
loop $-1 $-1 $187 $73 #
plane-surface $-1 -72.156130514755517 -20.38933285832227 0 0 -1 0 0 0 -1 forward_v I I I I #
coedge $-1 $188 $189 $190 $191 forward $74 $-1 #
face $-1 $192 $193 $44 $-1 $194 reversed single #
loop $-1 $-1 $195 $76 #
plane-surface $-1 -73.927480911618161 26.689117713443899 0 1 0 0 0 0 -1 forward_v I I I I #
coedge $-1 $196 $197 $198 $199 forward $77 $-1 #
face $-1 $200 $201 $45 $-1 $202 forward single #
loop $-1 $-1 $203 $79 #
plane-surface $-1 -75.76769310586873 15.650157206157921 2.2379784790021375 -0.74314483375859142 0 0.66913059716165679 0.66913059716165679 0 0.74314483375859142 forward_v I I I I #
coedge $-1 $204 $205 $206 $207 reversed $80 $-1 #
face $-1 $-1 $208 $46 $-1 $209 forward single #
loop $-1 $210 $211 $82 #
cone-surface $-1 -70.160469452540653 13.619081926658907 4.8736386897018971 0.74314483375859142 0 -0.66913059716165679 0.3345652985808284 0 0.37157241687929571 1 I I -0.70710678118654746 0.70710678118654746 0.5 forward I I I I #
loop $-1 $-1 $212 $60 #
coedge $-1 $132 $132 $213 $214 reversed $83 $-1 #
face $-1 $-1 $215 $47 $-1 $216 forward single #
loop $-1 $217 $218 $85 #
cone-surface $-1 -70.160469452540653 17.681232485656928 4.8736386897018971 0.74314483375859142 0 -0.66913059716165679 0.3345652985808284 0 0.37157241687929571 1 I I -0.70710678118654746 0.70710678118654746 0.5 forward I I I I #
loop $-1 $-1 $219 $61 #
coedge $-1 $137 $137 $220 $221 reversed $86 $-1 #
face $-1 $222 $223 $48 $-1 $224 reversed single #
loop $-1 $-1 $225 $88 #
plane-surface $-1 -4.5338253389703311 -5.7758412349075705 134.3008797170138 0.84804810408105047 0 0.52991925155115449 0.52991925155115449 0 -0.84804810408105047 forward_v I I I I #
coedge $-1 $226 $227 $228 $229 reversed $89 $-1 #
face $-1 $-1 $230 $49 $-1 $231 forward single #
loop $-1 $232 $233 $91 #
cone-surface $-1 73.166060275069469 -7.7096040741003691 7.5962157785695492 -0.84804810408105047 0 -0.52991925155115449 0.13247981288778862 0 -0.21201202602026262 1 I I -0.70710678118654746 0.70710678118654746 0.25 forward I I I I #
loop $-1 $-1 $234 $63 #
coedge $-1 $146 $146 $235 $236 reversed $92 $-1 #
face $-1 $-1 $237 $50 $-1 $238 forward single #
loop $-1 $239 $240 $94 #
cone-surface $-1 73.166060275069469 -5.7758412349075705 7.5962157785695492 -0.84804810408105047 0 -0.52991925155115449 0.13247981288778862 0 -0.21201202602026262 1 I I -0.70710678118654746 0.70710678118654746 0.25 forward I I I I #
loop $-1 $-1 $241 $64 #
coedge $-1 $151 $151 $242 $243 reversed $95 $-1 #
face $-1 $-1 $244 $51 $-1 $245 forward single #
loop $-1 $246 $247 $97 #
cone-surface $-1 73.166060275069469 -3.8420783957147719 7.5962157785695492 -0.84804810408105047 0 -0.52991925155115449 0.13247981288778862 0 -0.21201202602026262 1 I I -0.70710678118654746 0.70710678118654746 0.25 forward I I I I #
loop $-1 $-1 $248 $65 #
coedge $-1 $156 $156 $249 $250 reversed $98 $-1 #
face $-1 $251 $252 $52 $-1 $253 reversed single #
loop $-1 $-1 $254 $100 #
plane-surface $-1 -4.5338253389703311 14.613491623414696 134.3008797170138 0.84804810408105047 0 0.52991925155115449 0.52991925155115449 0 -0.84804810408105047 forward_v I I I I #
coedge $-1 $255 $256 $257 $258 reversed $101 $-1 #
face $-1 $-1 $259 $53 $-1 $260 forward single #
loop $-1 $261 $262 $103 #
cone-surface $-1 73.166060275069469 12.679728784221901 7.5962157785695492 -0.84804810408105047 0 -0.52991925155115449 0.13247981288778862 0 -0.21201202602026262 1 I I -0.70710678118654746 0.70710678118654746 0.25 forward I I I I #
loop $-1 $-1 $263 $67 #
coedge $-1 $165 $165 $264 $265 reversed $104 $-1 #
face $-1 $-1 $266 $54 $-1 $267 forward single #
loop $-1 $268 $269 $106 #
cone-surface $-1 73.166060275069469 14.613491623414696 7.5962157785695492 -0.84804810408105047 0 -0.52991925155115449 0.13247981288778862 0 -0.21201202602026262 1 I I -0.70710678118654746 0.70710678118654746 0.25 forward I I I I #
loop $-1 $-1 $270 $68 #
coedge $-1 $170 $170 $271 $272 reversed $107 $-1 #
face $-1 $-1 $273 $55 $-1 $274 forward single #
loop $-1 $275 $276 $109 #
cone-surface $-1 73.166060275069469 16.547254462607498 7.5962157785695492 -0.84804810408105047 0 -0.52991925155115449 0.13247981288778862 0 -0.21201202602026262 1 I I -0.70710678118654746 0.70710678118654746 0.25 forward I I I I #
loop $-1 $-1 $277 $69 #
coedge $-1 $175 $175 $278 $279 reversed $110 $-1 #
face $-1 $280 $281 $42 $-1 $282 reversed single #
loop $-1 $-1 $283 $112 #
plane-surface $-1 0 -32.988902568565528 0 0 1 0 0 0 1 forward_v I I I I #
coedge $-1 $284 $285 $286 $287 forward $113 $-1 #
coedge $-1 $288 $115 $289 $290 forward $71 $-1 #
coedge $-1 $115 $288 $291 $292 forward $71 $-1 #
coedge $-1 $293 $294 $115 $183 reversed $295 $-1 #
edge $-1 $296 -32.988902568565528 $297 32.988902568565528 $182 $298 forward 7 unknown #
face $-1 $299 $300 $43 $-1 $301 forward single #
loop $-1 $-1 $302 $116 #
plane-surface $-1 -70.384780117892873 -26.689117713443899 0 -1 0 0 0 0 1 forward_v I I I I #
coedge $-1 $303 $304 $305 $306 forward $117 $-1 #
coedge $-1 $307 $119 $308 $309 reversed $74 $-1 #
coedge $-1 $119 $307 $310 $311 reversed $74 $-1 #
coedge $-1 $304 $303 $119 $191 reversed $117 $-1 #
edge $-1 $312 -10.725646947056882 $313 10.725646947056882 $190 $314 forward 7 unknown #
face $-1 $315 $316 $44 $-1 $317 reversed single #
loop $-1 $-1 $318 $120 #
plane-surface $-1 -70.384780117892873 26.689117713443899 0 -1 0 0 0 0 1 forward_v I I I I #
coedge $-1 $319 $320 $321 $322 reversed $121 $-1 #
coedge $-1 $323 $123 $324 $325 reversed $77 $-1 #
coedge $-1 $123 $323 $326 $327 reversed $77 $-1 #
coedge $-1 $320 $319 $123 $199 reversed $121 $-1 #
edge $-1 $328 -10.725646947056882 $329 10.725646947056882 $198 $330 forward 7 unknown #
face $-1 $331 $332 $45 $-1 $333 forward single #
loop $-1 $-1 $334 $124 #
plane-surface $-1 -72.156130514755517 20.38933285832227 0 0 1 0 0 0 1 forward_v I I I I #
coedge $-1 $335 $336 $337 $338 reversed $125 $-1 #
coedge $-1 $205 $127 $339 $340 reversed $80 $-1 #
coedge $-1 $127 $204 $335 $341 reversed $80 $-1 #
coedge $-1 $337 $342 $127 $207 forward $332 $-1 #
edge $-1 $343 18.422523144498427 $344 26.06485396958837 $206 $345 forward 7 unknown #
loop $-1 $-1 $213 $128 #
plane-surface $-1 -75.76769310586873 15.650157206157921 2.2379784790021375 -0.74314483375859142 0 0.66913059716165679 0.66913059716165679 0 0.74314483375859142 forward_v I I I I #
loop $-1 $-1 $346 $82 #
coedge $-1 $211 $211 $212 $347 reversed $129 $-1 #
coedge $-1 $212 $212 $211 $347 forward $131 $-1 #
coedge $-1 $213 $213 $132 $214 forward $208 $-1 #
edge $-1 $348 0 $348 6.2831853071796004 $213 $349 forward 7 unknown #
loop $-1 $-1 $220 $133 #
plane-surface $-1 -75.76769310586873 15.650157206157921 2.2379784790021375 -0.74314483375859142 0 0.66913059716165679 0.66913059716165679 0 0.74314483375859142 forward_v I I I I #
loop $-1 $-1 $350 $85 #
coedge $-1 $218 $218 $219 $351 reversed $134 $-1 #
coedge $-1 $219 $219 $218 $351 forward $136 $-1 #
coedge $-1 $220 $220 $137 $221 forward $215 $-1 #
edge $-1 $352 0 $352 6.2831853071796004 $220 $353 forward 7 unknown #
face $-1 $354 $355 $48 $-1 $356 reversed single #
loop $-1 $-1 $357 $138 #
plane-surface $-1 123.97547163908337 -8.9987793002289038 214.60239816185282 0 1 0 0.84804810408105047 0 0.52991925155115449 forward_v I I I I #
coedge $-1 $358 $359 $360 $361 reversed $139 $-1 #
coedge $-1 $227 $141 $362 $363 reversed $89 $-1 #
coedge $-1 $141 $226 $358 $364 reversed $89 $-1 #
coedge $-1 $360 $365 $141 $229 forward $366 $-1 #
edge $-1 $367 -13.779957286327033 $368 -10.696811884931151 $228 $369 forward 7 unknown #
loop $-1 $-1 $235 $142 #
plane-surface $-1 -4.5338253389703311 -5.7758412349075705 134.3008797170138 0.84804810408105047 0 0.52991925155115449 0.52991925155115449 0 -0.84804810408105047 forward_v I I I I #
loop $-1 $-1 $370 $91 #
coedge $-1 $233 $233 $234 $371 reversed $143 $-1 #
coedge $-1 $234 $234 $233 $371 forward $145 $-1 #
coedge $-1 $235 $235 $146 $236 forward $230 $-1 #
edge $-1 $372 0 $372 6.2831853071796004 $235 $373 forward 7 unknown #
loop $-1 $-1 $242 $147 #
plane-surface $-1 -4.5338253389703311 -5.7758412349075705 134.3008797170138 0.84804810408105047 0 0.52991925155115449 0.52991925155115449 0 -0.84804810408105047 forward_v I I I I #
loop $-1 $-1 $374 $94 #
coedge $-1 $240 $240 $241 $375 reversed $148 $-1 #
coedge $-1 $241 $241 $240 $375 forward $150 $-1 #
coedge $-1 $242 $242 $151 $243 forward $237 $-1 #
edge $-1 $376 0 $376 6.2831853071796004 $242 $377 forward 7 unknown #
loop $-1 $-1 $249 $152 #
plane-surface $-1 -4.5338253389703311 -5.7758412349075705 134.3008797170138 0.84804810408105047 0 0.52991925155115449 0.52991925155115449 0 -0.84804810408105047 forward_v I I I I #
loop $-1 $-1 $378 $97 #
coedge $-1 $247 $247 $248 $379 reversed $153 $-1 #
coedge $-1 $248 $248 $247 $379 forward $155 $-1 #
coedge $-1 $249 $249 $156 $250 forward $244 $-1 #
edge $-1 $380 0 $380 6.2831853071796004 $249 $381 forward 7 unknown #
face $-1 $382 $383 $52 $-1 $384 reversed single #
loop $-1 $-1 $385 $157 #
plane-surface $-1 123.97547163908337 11.390553558093362 214.60239816185282 0 1 0 0.84804810408105047 0 0.52991925155115449 forward_v I I I I #
coedge $-1 $386 $387 $388 $389 reversed $158 $-1 #
coedge $-1 $256 $160 $390 $391 reversed $101 $-1 #
coedge $-1 $160 $255 $386 $392 reversed $101 $-1 #
coedge $-1 $388 $393 $160 $258 forward $394 $-1 #
edge $-1 $395 -13.779957286327033 $396 -10.696811884931151 $257 $397 forward 7 unknown #
loop $-1 $-1 $264 $161 #
plane-surface $-1 -4.5338253389703311 14.613491623414696 134.3008797170138 0.84804810408105047 0 0.52991925155115449 0.52991925155115449 0 -0.84804810408105047 forward_v I I I I #
loop $-1 $-1 $398 $103 #
coedge $-1 $262 $262 $263 $399 reversed $162 $-1 #
coedge $-1 $263 $263 $262 $399 forward $164 $-1 #
coedge $-1 $264 $264 $165 $265 forward $259 $-1 #
edge $-1 $400 0 $400 6.2831853071796004 $264 $401 forward 7 unknown #
loop $-1 $-1 $271 $166 #
plane-surface $-1 -4.5338253389703311 14.613491623414696 134.3008797170138 0.84804810408105047 0 0.52991925155115449 0.52991925155115449 0 -0.84804810408105047 forward_v I I I I #
loop $-1 $-1 $402 $106 #
coedge $-1 $269 $269 $270 $403 reversed $167 $-1 #
coedge $-1 $270 $270 $269 $403 forward $169 $-1 #
coedge $-1 $271 $271 $170 $272 forward $266 $-1 #
edge $-1 $404 0 $404 6.2831853071796004 $271 $405 forward 7 unknown #
loop $-1 $-1 $278 $171 #
plane-surface $-1 -4.5338253389703311 14.613491623414696 134.3008797170138 0.84804810408105047 0 0.52991925155115449 0.52991925155115449 0 -0.84804810408105047 forward_v I I I I #
loop $-1 $-1 $406 $109 #
coedge $-1 $276 $276 $277 $407 reversed $172 $-1 #
coedge $-1 $277 $277 $276 $407 forward $174 $-1 #
coedge $-1 $278 $278 $175 $279 forward $273 $-1 #
edge $-1 $408 0 $408 6.2831853071796004 $278 $409 forward 7 unknown #
face $-1 $410 $411 $42 $-1 $412 reversed single #
loop $-1 $-1 $413 $176 #
plane-surface $-1 -75.767693105868716 0 0 1 0 0 0 0 -1 forward_v I I I I #
coedge $-1 $414 $291 $415 $416 forward $177 $-1 #
coedge $-1 $417 $179 $414 $418 forward $113 $-1 #
coedge $-1 $179 $417 $419 $420 forward $113 $-1 #
coedge $-1 $294 $293 $179 $287 reversed $295 $-1 #
edge $-1 $421 -32.988902568565528 $422 32.988902568565528 $286 $423 forward 7 unknown #
coedge $-1 $181 $180 $424 $425 forward $71 $-1 #
coedge $-1 $426 $427 $180 $290 reversed $411 $-1 #
edge $-1 $297 -75.767693105868716 $428 75.767693105868716 $289 $429 forward 7 unknown #
coedge $-1 $283 $430 $181 $292 reversed $177 $-1 #
edge $-1 $431 -75.767693105868716 $296 75.767693105868716 $291 $432 forward 7 unknown #
coedge $-1 $286 $182 $430 $433 forward $295 $-1 #
coedge $-1 $182 $286 $426 $434 reversed $295 $-1 #
loop $-1 $-1 $293 $410 #
vertex $-1 $183 $435 #
vertex $-1 $183 $436 #
straight-curve $-1 75.767693105868716 0 10.725646947056882 0 1 0 I I #
face $-1 $437 $438 $43 $-1 $439 reversed single #
loop $-1 $-1 $440 $184 #
plane-surface $-1 0 0 10.725646947056882 0 0 1 1 0 0 forward_v I I I I #
coedge $-1 $441 $442 $443 $444 reversed $185 $-1 #
coedge $-1 $190 $187 $445 $446 reversed $117 $-1 #
coedge $-1 $187 $190 $447 $448 reversed $117 $-1 #
coedge $-1 $442 $441 $187 $306 reversed $185 $-1 #
edge $-1 $449 -10.725646947056882 $450 10.725646947056882 $305 $451 forward 7 unknown #
coedge $-1 $189 $188 $452 $453 reversed $74 $-1 #
coedge $-1 $445 $454 $188 $309 forward $438 $-1 #
edge $-1 $455 -19.644343711843579 $313 -7.0447740016003202 $308 $456 forward 7 unknown #
coedge $-1 $457 $447 $189 $311 forward $300 $-1 #
edge $-1 $312 7.0447740016003202 $458 19.644343711843579 $310 $459 forward 7 unknown #
vertex $-1 $311 $460 #
vertex $-1 $309 $461 #
straight-curve $-1 -73.927480911618161 -20.38933285832227 0 0 0 -1 I I #
face $-1 $462 $463 $44 $-1 $464 forward single #
loop $-1 $-1 $465 $192 #
plane-surface $-1 0 0 -10.725646947056882 0 0 1 1 0 0 forward_v I I I I #
coedge $-1 $466 $467 $323 $468 forward $193 $-1 #
coedge $-1 $198 $195 $469 $470 reversed $121 $-1 #
coedge $-1 $195 $198 $471 $472 reversed $121 $-1 #
coedge $-1 $473 $474 $195 $322 forward $475 $-1 #
edge $-1 $476 -10.725646947056882 $477 10.725646947056882 $321 $478 forward 7 unknown #
coedge $-1 $197 $196 $318 $468 reversed $77 $-1 #
coedge $-1 $469 $465 $196 $325 forward $316 $-1 #
edge $-1 $479 34.306714860515115 $329 37.849415654240403 $324 $480 forward 7 unknown #
coedge $-1 $481 $471 $197 $327 forward $463 $-1 #
edge $-1 $328 -37.849415654240403 $482 -34.306714860515115 $326 $483 forward 7 unknown #
vertex $-1 $327 $484 #
vertex $-1 $325 $485 #
straight-curve $-1 -73.927480911618161 20.38933285832227 0 0 0 -1 I I #
face $-1 $-1 $486 $45 $-1 $487 reversed single #
loop $-1 $-1 $488 $200 #
plane-surface $-1 0 0 10.725646947056882 0 0 1 1 0 0 forward_v I I I I #
coedge $-1 $489 $490 $336 $491 forward $201 $-1 #
coedge $-1 $492 $203 $205 $341 forward $125 $-1 #
coedge $-1 $203 $492 $334 $491 reversed $125 $-1 #
coedge $-1 $488 $206 $203 $338 forward $332 $-1 #
edge $-1 $344 3.0859029509146083 $493 12.564254255243313 $337 $494 forward 7 unknown #
coedge $-1 $495 $496 $204 $340 forward $486 $-1 #
edge $-1 $497 -49.579492493989996 $343 -41.091824025935267 $339 $498 forward 7 unknown #
edge $-1 $344 -11.421284361389962 $497 -2.1389731374768986e-014 $205 $499 forward 7 unknown #
coedge $-1 $206 $488 $495 $500 forward $332 $-1 #
vertex $-1 $340 $501 #
vertex $-1 $207 $502 #
straight-curve $-1 -94.190216250367143 10.910981553993569 10.72564694705688 1 0 0 I I #
coedge $-1 $346 $346 $-1 $503 reversed $210 $-1 #
edge $-1 $504 0 $504 6.2831853071796004 $211 $505 forward 7 unknown #
vertex $-1 $214 $506 #
ellipse-curve $-1 -71.946527693323745 13.619081926658907 6.481812713029516 -0.74314483375859142 0 0.66913059716165679 0.66913059716165679 0 0.74314483375859142 1 I I #
coedge $-1 $350 $350 $-1 $507 reversed $217 $-1 #
edge $-1 $508 0 $508 6.2831853071796004 $218 $509 forward 7 unknown #
vertex $-1 $221 $510 #
ellipse-curve $-1 -71.946527693323745 17.681232485656928 6.481812713029516 -0.74314483375859142 0 0.66913059716165679 0.66913059716165679 0 0.74314483375859142 1 I I #
face $-1 $-1 $366 $48 $-1 $511 forward single #
loop $-1 $-1 $512 $222 #
plane-surface $-1 75.767693105868716 0 0 -1 0 0 0 0 1 forward_v I I I I #
coedge $-1 $513 $514 $515 $516 reversed $223 $-1 #
coedge $-1 $517 $225 $227 $364 forward $139 $-1 #
coedge $-1 $225 $517 $513 $518 forward $139 $-1 #
coedge $-1 $515 $228 $225 $361 forward $366 $-1 #
edge $-1 $368 -0.33501744786754806 $519 6.1108586827751186 $360 $520 forward 7 unknown #
coedge $-1 $521 $522 $226 $363 forward $355 $-1 #
edge $-1 $523 -101.50961634196631 $367 -96.575552133869522 $362 $524 forward 7 unknown #
edge $-1 $368 145.71724431111571 $523 151.53538621173743 $227 $525 forward 7 unknown #
coedge $-1 $228 $515 $521 $526 forward $366 $-1 #
loop $-1 $-1 $515 $354 #
vertex $-1 $363 $527 #
vertex $-1 $229 $528 #
straight-curve $-1 61.987735819541683 -2.5529031695862372 10.725646947056887 -1 0 0 I I #
coedge $-1 $370 $370 $-1 $529 reversed $232 $-1 #
edge $-1 $530 0 $530 6.2831853071796004 $233 $531 forward 7 unknown #
vertex $-1 $236 $532 #
ellipse-curve $-1 74.226120405170761 -7.7096040741003691 8.258614843008484 0.84804810408105047 0 0.52991925155115449 0.26495962577557725 0 -0.42402405204052523 1 I I #
coedge $-1 $374 $374 $-1 $533 reversed $239 $-1 #
edge $-1 $534 0 $534 6.2831853071796004 $240 $535 forward 7 unknown #
vertex $-1 $243 $536 #
ellipse-curve $-1 74.226120405170761 -5.7758412349075705 8.258614843008484 0.84804810408105047 0 0.52991925155115449 0.26495962577557725 0 -0.42402405204052523 1 I I #
coedge $-1 $378 $378 $-1 $537 reversed $246 $-1 #
edge $-1 $538 0 $538 6.2831853071796004 $247 $539 forward 7 unknown #
vertex $-1 $250 $540 #
ellipse-curve $-1 74.226120405170761 -3.8420783957147719 8.258614843008484 0.84804810408105047 0 0.52991925155115449 0.26495962577557725 0 -0.42402405204052523 1 I I #
face $-1 $-1 $394 $52 $-1 $541 forward single #
loop $-1 $-1 $542 $251 #
plane-surface $-1 75.767693105868716 0 0 -1 0 0 0 0 1 forward_v I I I I #
coedge $-1 $543 $544 $545 $546 reversed $252 $-1 #
coedge $-1 $547 $254 $256 $392 forward $158 $-1 #
coedge $-1 $254 $547 $543 $548 forward $158 $-1 #
coedge $-1 $545 $257 $254 $389 forward $394 $-1 #
edge $-1 $396 -10.529683877028681 $549 -4.0838077463860145 $388 $550 forward 7 unknown #
coedge $-1 $551 $552 $255 $391 forward $383 $-1 #
edge $-1 $553 -101.50961634196631 $395 -96.575552133869522 $390 $554 forward 7 unknown #
edge $-1 $396 145.71724431111571 $553 151.53538621173743 $256 $555 forward 7 unknown #
coedge $-1 $257 $545 $551 $556 forward $394 $-1 #
loop $-1 $-1 $545 $382 #
vertex $-1 $391 $557 #
vertex $-1 $258 $558 #
straight-curve $-1 61.987735819541683 17.836429688736029 10.725646947056887 -1 0 0 I I #
coedge $-1 $398 $398 $-1 $559 reversed $261 $-1 #
edge $-1 $560 0 $560 6.2831853071796004 $262 $561 forward 7 unknown #
vertex $-1 $265 $562 #
ellipse-curve $-1 74.226120405170761 12.679728784221901 8.258614843008484 0.84804810408105047 0 0.52991925155115449 0.26495962577557725 0 -0.42402405204052523 1 I I #
coedge $-1 $402 $402 $-1 $563 reversed $268 $-1 #
edge $-1 $564 0 $564 6.2831853071796004 $269 $565 forward 7 unknown #
vertex $-1 $272 $566 #
ellipse-curve $-1 74.226120405170761 14.613491623414696 8.258614843008484 0.84804810408105047 0 0.52991925155115449 0.26495962577557725 0 -0.42402405204052523 1 I I #
coedge $-1 $406 $406 $-1 $567 reversed $275 $-1 #
edge $-1 $568 0 $568 6.2831853071796004 $276 $569 forward 7 unknown #
vertex $-1 $279 $570 #
ellipse-curve $-1 74.226120405170761 16.547254462607498 8.258614843008484 0.84804810408105047 0 0.52991925155115449 0.26495962577557725 0 -0.42402405204052523 1 I I #
face $-1 $-1 $295 $42 $-1 $571 reversed single #
loop $-1 $-1 $426 $280 #
plane-surface $-1 0 32.988902568565528 0 0 -1 0 0 0 -1 forward_v I I I I #
coedge $-1 $572 $424 $427 $573 forward $281 $-1 #
coedge $-1 $430 $283 $284 $418 reversed $177 $-1 #
coedge $-1 $424 $572 $283 $416 reversed $281 $-1 #
edge $-1 $431 -10.725646947056882 $574 10.725646947056882 $415 $575 forward 7 unknown #
coedge $-1 $285 $284 $572 $576 forward $113 $-1 #
edge $-1 $422 -75.767693105868716 $574 75.767693105868716 $414 $577 forward 7 unknown #
coedge $-1 $427 $426 $285 $420 reversed $411 $-1 #
edge $-1 $578 -75.767693105868716 $421 75.767693105868716 $419 $579 forward 7 unknown #
vertex $-1 $287 $580 #
vertex $-1 $433 $581 #
straight-curve $-1 75.767693105868716 0 -10.725646947056882 0 -1 0 I I #
coedge $-1 $413 $415 $288 $425 reversed $281 $-1 #
edge $-1 $428 -32.988902568565528 $431 32.988902568565528 $424 $582 forward 7 unknown #
coedge $-1 $419 $289 $294 $434 forward $411 $-1 #
coedge $-1 $289 $419 $413 $573 reversed $411 $-1 #
vertex $-1 $290 $583 #
straight-curve $-1 0 32.988902568565528 10.725646947056882 -1 0 0 I I #
coedge $-1 $291 $414 $293 $433 reversed $177 $-1 #
vertex $-1 $425 $584 #
straight-curve $-1 0 -32.988902568565528 10.725646947056882 1 0 0 I I #
edge $-1 $296 -10.725646947056882 $422 10.725646947056882 $293 $585 forward 7 unknown #
edge $-1 $297 -10.725646947056882 $421 10.725646947056882 $294 $586 forward 7 unknown #
point $-1 75.767693105868716 -32.988902568565528 10.725646947056882 #
point $-1 75.767693105868716 32.988902568565528 10.725646947056882 #
face $-1 $-1 $587 $43 $-1 $588 reversed single #
loop $-1 $-1 $589 $299 #
plane-surface $-1 0 0 -10.725646947056882 0 0 1 1 0 0 forward_v I I I I #
coedge $-1 $447 $457 $442 $590 forward $300 $-1 #
coedge $-1 $305 $302 $589 $591 reversed $185 $-1 #
coedge $-1 $302 $305 $440 $590 reversed $185 $-1 #
coedge $-1 $592 $593 $302 $444 forward $587 $-1 #
edge $-1 $594 -10.725646947056882 $595 10.725646947056882 $443 $596 forward 7 unknown #
coedge $-1 $589 $308 $303 $446 forward $438 $-1 #
edge $-1 $313 -37.849415654240403 $450 -34.306714860515115 $445 $597 forward 7 unknown #
coedge $-1 $310 $440 $304 $448 forward $300 $-1 #
edge $-1 $449 34.306714860515115 $312 37.849415654240403 $447 $598 forward 7 unknown #
vertex $-1 $448 $599 #
vertex $-1 $446 $600 #
straight-curve $-1 -70.384780117892873 -20.38933285832227 0 0 0 -1 I I #
coedge $-1 $593 $592 $307 $453 forward $587 $-1 #
edge $-1 $458 -10.725646947056882 $455 10.725646947056882 $452 $601 forward 7 unknown #
coedge $-1 $308 $589 $593 $602 forward $438 $-1 #
vertex $-1 $309 $603 #
straight-curve $-1 -73.927480911618161 -13.34455885672195 -10.725646947056882 0 1 0 I I #
coedge $-1 $440 $310 $592 $604 forward $300 $-1 #
vertex $-1 $604 $605 #
straight-curve $-1 -73.927480911618161 -13.34455885672195 10.725646947056882 0 -1 0 I I #
point $-1 -73.927480911618161 -20.38933285832227 10.725646947056882 #
point $-1 -73.927480911618161 -20.38933285832227 -10.725646947056882 #
face $-1 $-1 $475 $44 $-1 $606 reversed single #
loop $-1 $-1 $481 $315 #
plane-surface $-1 0 0 10.725646947056882 0 0 1 1 0 0 forward_v I I I I #
coedge $-1 $324 $607 $466 $608 forward $316 $-1 #
coedge $-1 $609 $318 $465 $608 reversed $193 $-1 #
coedge $-1 $318 $609 $481 $610 reversed $193 $-1 #
edge $-1 $482 -10.725646947056882 $479 10.725646947056882 $318 $611 forward 7 unknown #
coedge $-1 $607 $324 $319 $470 forward $316 $-1 #
edge $-1 $329 7.0447740016003202 $476 19.644343711843579 $469 $612 forward 7 unknown #
coedge $-1 $326 $613 $320 $472 forward $463 $-1 #
edge $-1 $477 -19.644343711843579 $328 -7.0447740016003202 $471 $614 forward 7 unknown #
coedge $-1 $615 $321 $613 $616 reversed $475 $-1 #
coedge $-1 $321 $615 $607 $617 reversed $475 $-1 #
loop $-1 $-1 $615 $462 #
vertex $-1 $617 $618 #
vertex $-1 $322 $619 #
straight-curve $-1 -73.927480911618161 32.988902568565528 0 0 0 1 I I #
vertex $-1 $325 $620 #
straight-curve $-1 -36.078065257377759 20.38933285832227 -10.725646947056882 -1 0 0 I I #
coedge $-1 $613 $326 $467 $610 forward $463 $-1 #
vertex $-1 $327 $621 #
straight-curve $-1 -36.078065257377759 20.38933285832227 10.725646947056882 1 0 0 I I #
point $-1 -73.927480911618161 20.38933285832227 10.725646947056882 #
point $-1 -73.927480911618161 20.38933285832227 -10.725646947056882 #
loop $-1 $-1 $622 $331 #
plane-surface $-1 -75.767693105868716 0 0 1 0 0 0 0 -1 forward_v I I I I #
coedge $-1 $342 $337 $490 $623 forward $332 $-1 #
coedge $-1 $490 $334 $622 $624 reversed $201 $-1 #
coedge $-1 $334 $489 $488 $623 reversed $201 $-1 #
edge $-1 $493 -11.044551917117502 $625 0.37673244427243779 $334 $626 forward 7 unknown #
coedge $-1 $336 $335 $496 $627 reversed $125 $-1 #
vertex $-1 $623 $628 #
straight-curve $-1 -68.125362280778774 7.8250786030789605 10.725646947056882 0 1 0 I I #
coedge $-1 $622 $339 $342 $500 reversed $486 $-1 #
coedge $-1 $339 $622 $492 $627 forward $486 $-1 #
vertex $-1 $340 $629 #
straight-curve $-1 -75.767693105868716 10.910981553993569 51.817470972992147 0 0 1 I I #
straight-curve $-1 -75.76769310586873 10.910981553993569 2.2379784790021375 -0.66913059716165679 0 -0.74314483375859142 I I #
edge $-1 $630 -20.389332858322273 $343 -10.910981553993569 $495 $631 forward 7 unknown #
point $-1 -75.767693105868716 10.910981553993569 10.725646947056882 #
point $-1 -68.125362280778774 10.910981553993569 10.725646947056882 #
edge $-1 $632 1 $632 0 $346 $-1 forward 7 unknown #
vertex $-1 $347 $633 #
ellipse-curve $-1 -70.532041869419942 13.619081926658907 5.2082039882827251 -0.74314483375859142 0 0.66913059716165679 0.66913059716165679 0 0.74314483375859142 1 I I #
point $-1 -71.27739709616209 13.619081926658907 7.2249575467881124 #
edge $-1 $634 1 $634 0 $350 $-1 forward 7 unknown #
vertex $-1 $351 $635 #
ellipse-curve $-1 -70.532041869419942 17.681232485656928 5.2082039882827251 -0.74314483375859142 0 0.66913059716165679 0.66913059716165679 0 0.74314483375859142 1 I I #
point $-1 -71.27739709616209 17.681232485656928 7.2249575467881124 #
plane-surface $-1 0 0 10.725646947056882 0 0 1 1 0 0 forward_v I I I I #
coedge $-1 $522 $521 $514 $636 forward $355 $-1 #
coedge $-1 $514 $357 $359 $518 reversed $223 $-1 #
coedge $-1 $357 $513 $512 $636 reversed $223 $-1 #
coedge $-1 $365 $360 $357 $516 forward $366 $-1 #
edge $-1 $519 10.696811884931151 $637 13.779957286327033 $515 $638 forward 7 unknown #
coedge $-1 $359 $358 $522 $639 reversed $139 $-1 #
edge $-1 $640 -151.53538621173743 $519 -145.71724431111571 $513 $641 forward 7 unknown #
vertex $-1 $361 $642 #
straight-curve $-1 72.68454770447282 -2.8879206174537853 10.725646947056887 0 -1 0 I I #
coedge $-1 $512 $362 $365 $526 reversed $355 $-1 #
coedge $-1 $362 $512 $517 $639 forward $355 $-1 #
vertex $-1 $363 $643 #
straight-curve $-1 75.767693105868716 -2.5529031695862372 107.30119908092641 0 0 1 I I #
straight-curve $-1 -4.5338253389703311 -2.5529031695862372 134.3008797170138 0.52991925155115449 0 -0.84804810408105047 I I #
edge $-1 $637 -8.9987793002289038 $367 -2.5529031695862372 $521 $644 forward 7 unknown #
point $-1 75.767693105868716 -2.5529031695862372 10.725646947056882 #
point $-1 72.684547704472834 -2.5529031695862372 10.725646947056887 #
edge $-1 $645 1 $645 0 $370 $-1 forward 7 unknown #
vertex $-1 $371 $646 #
ellipse-curve $-1 73.37807230108973 -7.7096040741003691 7.7286955914573374 0.84804810408105047 0 0.52991925155115449 0.26495962577557725 0 -0.42402405204052523 1 I I #
point $-1 74.491080030946364 -7.7096040741003691 7.8345907909679671 #
edge $-1 $647 1 $647 0 $374 $-1 forward 7 unknown #
vertex $-1 $375 $648 #
ellipse-curve $-1 73.37807230108973 -5.7758412349075705 7.7286955914573374 0.84804810408105047 0 0.52991925155115449 0.26495962577557725 0 -0.42402405204052523 1 I I #
point $-1 74.491080030946364 -5.7758412349075705 7.8345907909679671 #
edge $-1 $649 1 $649 0 $378 $-1 forward 7 unknown #
vertex $-1 $379 $650 #
ellipse-curve $-1 73.37807230108973 -3.8420783957147719 7.7286955914573374 0.84804810408105047 0 0.52991925155115449 0.26495962577557725 0 -0.42402405204052523 1 I I #
point $-1 74.491080030946364 -3.8420783957147719 7.8345907909679671 #
plane-surface $-1 0 0 10.725646947056882 0 0 1 1 0 0 forward_v I I I I #
coedge $-1 $552 $551 $544 $651 forward $383 $-1 #
coedge $-1 $544 $385 $387 $548 reversed $252 $-1 #
coedge $-1 $385 $543 $542 $651 reversed $252 $-1 #
coedge $-1 $393 $388 $385 $546 forward $394 $-1 #
edge $-1 $549 10.696811884931151 $652 13.779957286327033 $545 $653 forward 7 unknown #
coedge $-1 $387 $386 $552 $654 reversed $158 $-1 #
edge $-1 $655 -151.53538621173743 $549 -145.71724431111571 $543 $656 forward 7 unknown #
vertex $-1 $389 $657 #
straight-curve $-1 72.68454770447282 7.3067458117073478 10.725646947056887 0 -1 0 I I #
coedge $-1 $542 $390 $393 $556 reversed $383 $-1 #
coedge $-1 $390 $542 $547 $654 forward $383 $-1 #
vertex $-1 $391 $658 #
straight-curve $-1 75.767693105868716 17.836429688736029 107.30119908092641 0 0 1 I I #
straight-curve $-1 -4.5338253389703311 17.836429688736029 134.3008797170138 0.52991925155115449 0 -0.84804810408105047 I I #
edge $-1 $652 11.390553558093362 $395 17.836429688736029 $551 $659 forward 7 unknown #
point $-1 75.767693105868716 17.836429688736029 10.725646947056882 #
point $-1 72.684547704472834 17.836429688736029 10.725646947056887 #
edge $-1 $660 1 $660 0 $398 $-1 forward 7 unknown #
vertex $-1 $399 $661 #
ellipse-curve $-1 73.37807230108973 12.679728784221901 7.7286955914573374 0.84804810408105047 0 0.52991925155115449 0.26495962577557725 0 -0.42402405204052523 1 I I #
point $-1 74.491080030946364 12.679728784221901 7.8345907909679671 #
edge $-1 $662 1 $662 0 $402 $-1 forward 7 unknown #
vertex $-1 $403 $663 #
ellipse-curve $-1 73.37807230108973 14.613491623414696 7.7286955914573374 0.84804810408105047 0 0.52991925155115449 0.26495962577557725 0 -0.42402405204052523 1 I I #
point $-1 74.491080030946364 14.613491623414696 7.8345907909679671 #
edge $-1 $664 1 $664 0 $406 $-1 forward 7 unknown #
vertex $-1 $407 $665 #
ellipse-curve $-1 73.37807230108973 16.547254462607498 7.7286955914573374 0.84804810408105047 0 0.52991925155115449 0.26495962577557725 0 -0.42402405204052523 1 I I #
point $-1 74.491080030946364 16.547254462607498 7.8345907909679671 #
plane-surface $-1 75.767693105868716 0 0 -1 0 0 0 0 1 forward_v I I I I #
coedge $-1 $415 $413 $417 $576 reversed $281 $-1 #
edge $-1 $428 -10.725646947056882 $578 10.725646947056882 $427 $666 forward 7 unknown #
vertex $-1 $576 $667 #
straight-curve $-1 -75.767693105868716 -32.988902568565528 0 0 0 -1 I I #
edge $-1 $574 -32.988902568565528 $578 32.988902568565528 $572 $668 forward 7 unknown #
straight-curve $-1 0 -32.988902568565528 -10.725646947056882 -1 0 0 I I #
vertex $-1 $420 $669 #
straight-curve $-1 0 32.988902568565528 -10.725646947056882 1 0 0 I I #
point $-1 75.767693105868716 32.988902568565528 -10.725646947056882 #
point $-1 75.767693105868716 -32.988902568565528 -10.725646947056882 #
straight-curve $-1 -75.767693105868716 0 10.725646947056882 0 -1 0 I I #
point $-1 -75.767693105868716 32.988902568565528 10.725646947056882 #
point $-1 -75.767693105868716 -32.988902568565528 10.725646947056882 #
straight-curve $-1 75.767693105868716 -32.988902568565528 0 0 0 -1 I I #
straight-curve $-1 75.767693105868716 32.988902568565528 0 0 0 -1 I I #
loop $-1 $-1 $443 $437 #
plane-surface $-1 0 -32.988902568565528 0 0 1 0 0 0 1 forward_v I I I I #
coedge $-1 $454 $445 $441 $591 forward $438 $-1 #
edge $-1 $595 -19.644343711843579 $449 -7.0447740016003202 $440 $670 forward 7 unknown #
edge $-1 $450 7.0447740016003202 $594 19.644343711843579 $589 $671 forward 7 unknown #
coedge $-1 $452 $443 $457 $604 reversed $587 $-1 #
coedge $-1 $443 $452 $454 $602 reversed $587 $-1 #
vertex $-1 $602 $672 #
vertex $-1 $444 $673 #
straight-curve $-1 -70.384780117892873 -32.988902568565528 0 0 0 1 I I #
straight-curve $-1 -36.078065257377759 -20.38933285832227 -10.725646947056882 1 0 0 I I #
straight-curve $-1 -36.078065257377759 -20.38933285832227 10.725646947056882 -1 0 0 I I #
point $-1 -70.384780117892873 -20.38933285832227 10.725646947056882 #
point $-1 -70.384780117892873 -20.38933285832227 -10.725646947056882 #
straight-curve $-1 -73.927480911618161 -32.988902568565528 0 0 0 -1 I I #
edge $-1 $594 70.384780117892873 $455 73.927480911618161 $593 $674 forward 7 unknown #
point $-1 -73.927480911618161 -32.988902568565528 -10.725646947056882 #
edge $-1 $458 -73.927480911618161 $595 -70.384780117892873 $592 $675 forward 7 unknown #
point $-1 -73.927480911618161 -32.988902568565528 10.725646947056882 #
plane-surface $-1 0 32.988902568565528 0 0 -1 0 0 0 -1 forward_v I I I I #
coedge $-1 $465 $469 $474 $617 forward $316 $-1 #
edge $-1 $676 -19.644343711843579 $479 -7.0447740016003202 $465 $677 forward 7 unknown #
coedge $-1 $467 $466 $615 $678 reversed $193 $-1 #
edge $-1 $482 7.0447740016003202 $679 19.644343711843579 $481 $680 forward 7 unknown #
straight-curve $-1 -70.384780117892873 20.38933285832227 0 0 0 -1 I I #
straight-curve $-1 -73.927480911618161 13.34455885672195 -10.725646947056882 0 1 0 I I #
coedge $-1 $471 $481 $473 $616 forward $463 $-1 #
straight-curve $-1 -73.927480911618161 13.34455885672195 10.725646947056882 0 -1 0 I I #
coedge $-1 $474 $473 $609 $678 forward $475 $-1 #
edge $-1 $679 70.384780117892873 $477 73.927480911618161 $473 $681 forward 7 unknown #
edge $-1 $476 -73.927480911618161 $676 -70.384780117892873 $474 $682 forward 7 unknown #
point $-1 -73.927480911618161 32.988902568565528 -10.725646947056882 #
point $-1 -73.927480911618161 32.988902568565528 10.725646947056882 #
point $-1 -70.384780117892873 20.38933285832227 -10.725646947056882 #
point $-1 -70.384780117892873 20.38933285832227 10.725646947056882 #
coedge $-1 $496 $495 $489 $624 forward $486 $-1 #
edge $-1 $493 32.047297023401015 $630 39.689627848490957 $488 $683 forward 7 unknown #
edge $-1 $630 41.091824025935267 $625 49.579492493989996 $622 $684 forward 7 unknown #
vertex $-1 $624 $685 #
straight-curve $-1 -75.515609900462536 20.38933285832227 2.5179452486724685 -0.66913059716165679 0 -0.74314483375859142 I I #
edge $-1 $625 -12.564254255243313 $497 -3.0859029509146083 $496 $686 forward 7 unknown #
point $-1 -68.125362280778774 20.389332858322273 10.725646947056882 #
point $-1 -75.767693105868716 10.910981553993569 2.2379784790021535 #
vertex $-1 $500 $687 #
straight-curve $-1 -75.767693105868716 0 10.725646947056882 0 -1 0 I I #
vertex $-1 $503 $688 #
point $-1 -69.862911272258287 13.619081926658907 5.9513488220413171 #
vertex $-1 $507 $689 #
point $-1 -69.862911272258287 17.681232485656928 5.9513488220413171 #
edge $-1 $637 96.575552133869522 $640 101.50961634196631 $512 $690 forward 7 unknown #
vertex $-1 $526 $691 #
straight-curve $-1 61.987735819541683 -8.9987793002289038 10.725646947056887 1 0 0 I I #
edge $-1 $640 -6.1108586827751186 $523 0.33501744786754806 $522 $692 forward 7 unknown #
vertex $-1 $639 $693 #
straight-curve $-1 -4.5338253389703311 -8.9987793002289038 134.3008797170138 -0.52991925155115449 0 0.84804810408105047 I I #
point $-1 72.684547704472834 -8.9987793002289038 10.725646947056887 #
point $-1 75.767693105868716 -2.5529031695862372 5.791582738960102 #
straight-curve $-1 75.767693105868716 0 10.725646947056882 0 1 0 I I #
vertex $-1 $529 $694 #
point $-1 73.643031926865305 -7.7096040741003691 7.3046715394168125 #
vertex $-1 $533 $695 #
point $-1 73.643031926865305 -5.7758412349075705 7.3046715394168125 #
vertex $-1 $537 $696 #
point $-1 73.643031926865305 -3.8420783957147719 7.3046715394168125 #
edge $-1 $652 96.575552133869522 $655 101.50961634196631 $542 $697 forward 7 unknown #
vertex $-1 $556 $698 #
straight-curve $-1 61.987735819541683 11.390553558093362 10.725646947056887 1 0 0 I I #
edge $-1 $655 4.0838077463860145 $553 10.529683877028681 $552 $699 forward 7 unknown #
vertex $-1 $654 $700 #
straight-curve $-1 -4.5338253389703311 11.390553558093362 134.3008797170138 -0.52991925155115449 0 0.84804810408105047 I I #
point $-1 72.684547704472834 11.390553558093362 10.725646947056887 #
point $-1 75.767693105868716 17.836429688736029 5.791582738960102 #
straight-curve $-1 75.767693105868716 0 10.725646947056882 0 1 0 I I #
vertex $-1 $559 $701 #
point $-1 73.643031926865305 12.679728784221901 7.3046715394168125 #
vertex $-1 $563 $702 #
point $-1 73.643031926865305 14.613491623414696 7.3046715394168125 #
vertex $-1 $567 $703 #
point $-1 73.643031926865305 16.547254462607498 7.3046715394168125 #
straight-curve $-1 -75.767693105868716 32.988902568565528 0 0 0 -1 I I #
point $-1 -75.767693105868716 -32.988902568565528 -10.725646947056882 #
straight-curve $-1 -75.767693105868716 0 -10.725646947056882 0 1 0 I I #
point $-1 -75.767693105868716 32.988902568565528 -10.725646947056882 #
straight-curve $-1 -70.384780117892873 -13.34455885672195 10.725646947056882 0 1 0 I I #
straight-curve $-1 -70.384780117892873 -13.34455885672195 -10.725646947056882 0 -1 0 I I #
point $-1 -70.384780117892873 -32.988902568565528 -10.725646947056882 #
point $-1 -70.384780117892873 -32.988902568565528 10.725646947056882 #
straight-curve $-1 0 -32.988902568565528 -10.725646947056882 -1 0 0 I I #
straight-curve $-1 0 -32.988902568565528 10.725646947056882 1 0 0 I I #
vertex $-1 $678 $704 #
straight-curve $-1 -70.384780117892873 13.34455885672195 -10.725646947056882 0 -1 0 I I #
edge $-1 $679 -10.725646947056882 $676 10.725646947056882 $615 $705 forward 7 unknown #
vertex $-1 $616 $706 #
straight-curve $-1 -70.384780117892873 13.34455885672195 10.725646947056882 0 1 0 I I #
straight-curve $-1 0 32.988902568565528 10.725646947056882 -1 0 0 I I #
straight-curve $-1 0 32.988902568565528 -10.725646947056882 1 0 0 I I #
straight-curve $-1 -36.078065257377759 20.38933285832227 10.725646947056882 -1 0 0 I I #
straight-curve $-1 -75.767693105868716 20.389332858322273 51.817470972992147 0 0 -1 I I #
point $-1 -75.767693105868716 20.389332858322273 2.2379784790021535 #
straight-curve $-1 -75.767693105868716 7.8250786030789605 2.2379784790021513 0 -1 0 I I #
point $-1 -75.767693105868716 20.389332858322273 10.725646947056882 #
point $-1 -69.788897035661364 13.619081926658907 4.539073391121069 #
point $-1 -69.788897035661364 17.681232485656928 4.539073391121069 #
straight-curve $-1 75.767693105868716 -8.9987793002289038 107.30119908092641 0 0 -1 I I #
point $-1 75.767693105868716 -8.9987793002289038 10.725646947056882 #
straight-curve $-1 75.767693105868716 -2.8879206174537853 5.7915827389600878 0 1 0 I I #
point $-1 75.767693105868716 -8.9987793002289038 5.791582738960102 #
point $-1 72.954048249049208 -7.7096040741003691 7.463735965681761 #
point $-1 72.954048249049208 -5.7758412349075705 7.463735965681761 #
point $-1 72.954048249049208 -3.8420783957147719 7.463735965681761 #
straight-curve $-1 75.767693105868716 11.390553558093362 107.30119908092641 0 0 -1 I I #
point $-1 75.767693105868716 11.390553558093362 10.725646947056882 #
straight-curve $-1 75.767693105868716 7.3067458117073478 5.7915827389600878 0 1 0 I I #
point $-1 75.767693105868716 11.390553558093362 5.791582738960102 #
point $-1 72.954048249049208 12.679728784221901 7.463735965681761 #
point $-1 72.954048249049208 14.613491623414696 7.463735965681761 #
point $-1 72.954048249049208 16.547254462607498 7.463735965681761 #
point $-1 -70.384780117892873 32.988902568565528 -10.725646947056882 #
straight-curve $-1 -70.384780117892873 32.988902568565528 0 0 0 -1 I I #
point $-1 -70.384780117892873 32.988902568565528 10.725646947056882 #
End-of-ACIS-data 