500 0 10 0           
7 Unknown 11 ACIS 5.0 NT 24 Thu Mar 25 15:21:33 1999 
-1 9.9999999999999995e-007 1e-010 
body $-1 $10 $-1 $11 #
body $-1 $12 $-1 $13 #
body $-1 $14 $-1 $15 #
body $-1 $16 $-1 $17 #
body $-1 $18 $-1 $19 #
body $-1 $20 $-1 $21 #
body $-1 $22 $-1 $23 #
body $-1 $24 $-1 $25 #
body $-1 $26 $-1 $27 #
body $-1 $28 $-1 $29 #
lump $-1 $-1 $30 $0 #
transform $-1 1 0 0 0 1 0 0 0 1 61.096835230567336 27.943779743840462 11.22313683165574 1 rotate no_reflect no_shear #
lump $-1 $-1 $31 $1 #
transform $-1 1 0 0 0 1 0 0 0 1 61.096835230567336 27.943779743840462 11.22313683165574 1 rotate no_reflect no_shear #
lump $-1 $-1 $32 $2 #
transform $-1 1 0 0 0 1 0 0 0 1 61.096835230567336 27.943779743840462 11.22313683165574 1 rotate no_reflect no_shear #
lump $-1 $-1 $33 $3 #
transform $-1 1 0 0 0 1 0 0 0 1 61.096835230567336 27.943779743840462 11.22313683165574 1 rotate no_reflect no_shear #
lump $-1 $-1 $34 $4 #
transform $-1 1 0 0 0 1 0 0 0 1 61.096835230567336 27.943779743840462 11.22313683165574 1 rotate no_reflect no_shear #
lump $-1 $-1 $35 $5 #
transform $-1 1 0 0 0 1 0 0 0 1 61.096835230567336 27.943779743840462 11.22313683165574 1 rotate no_reflect no_shear #
lump $-1 $-1 $36 $6 #
transform $-1 1 0 0 0 1 0 0 0 1 61.096835230567336 27.943779743840462 11.22313683165574 1 rotate no_reflect no_shear #
lump $-1 $-1 $37 $7 #
transform $-1 1 0 0 0 1 0 0 0 1 61.096835230567336 27.943779743840462 11.22313683165574 1 rotate no_reflect no_shear #
lump $-1 $-1 $38 $8 #
transform $-1 1 0 0 0 1 0 0 0 1 61.096835230567336 27.943779743840462 11.22313683165574 1 rotate no_reflect no_shear #
lump $-1 $-1 $39 $9 #
transform $-1 1 0 0 0 1 0 0 0 1 61.096835230567336 27.943779743840462 11.22313683165574 1 rotate no_reflect no_shear #
shell $-1 $-1 $-1 $40 $-1 $10 #
shell $-1 $-1 $-1 $41 $-1 $12 #
shell $-1 $-1 $-1 $42 $-1 $14 #
shell $-1 $-1 $-1 $43 $-1 $16 #
shell $-1 $-1 $-1 $44 $-1 $18 #
shell $-1 $-1 $-1 $45 $-1 $20 #
shell $-1 $-1 $-1 $46 $-1 $22 #
shell $-1 $-1 $-1 $47 $-1 $24 #
shell $-1 $-1 $-1 $48 $-1 $26 #
shell $-1 $-1 $-1 $49 $-1 $28 #
face $-1 $50 $51 $30 $-1 $52 forward single #
face $-1 $53 $54 $31 $-1 $55 reversed single #
face $-1 $56 $57 $32 $-1 $58 reversed single #
face $-1 $59 $60 $33 $-1 $61 reversed single #
face $-1 $62 $63 $34 $-1 $64 forward single #
face $-1 $65 $66 $35 $-1 $67 forward single #
face $-1 $68 $69 $36 $-1 $70 reversed single #
face $-1 $71 $72 $37 $-1 $73 forward single #
face $-1 $74 $75 $38 $-1 $76 forward single #
face $-1 $77 $78 $39 $-1 $79 forward single #
face $-1 $80 $81 $30 $-1 $82 reversed single #
loop $-1 $-1 $83 $40 #
plane-surface $-1 0 0 11.22313683165574 0 0 1 1 0 0 forward_v I I I I #
face $-1 $84 $85 $31 $-1 $86 reversed single #
loop $-1 $-1 $87 $41 #
plane-surface $-1 -55.611178168561452 0 5.72271401664187 0 0 1 1 0 0 forward_v I I I I #
face $-1 $88 $89 $32 $-1 $90 reversed single #
loop $-1 $-1 $91 $42 #
plane-surface $-1 55.611178168561452 0 5.72271401664187 0 0 1 1 0 0 forward_v I I I I #
face $-1 $92 $93 $33 $-1 $94 reversed single #
loop $-1 $-1 $95 $43 #
plane-surface $-1 -44.340442119505752 -14.868574270682728 36.055082186724746 0 0.64278761758704617 0.76604443648966558 1 0 0 forward_v I I I I #
face $-1 $96 $97 $34 $-1 $98 forward single #
loop $-1 $99 $100 $44 #
cone-surface $-1 -46.819761685384243 20.206595931497105 4.3331502696890363 0 -0.64278761758704617 -0.76604443648966558 1.5 0 0 1 I I 0 1 1.5 forward I I I I #
face $-1 $101 $102 $35 $-1 $103 forward single #
loop $-1 $104 $105 $45 #
cone-surface $-1 -41.861122553627261 20.206595931497105 4.3331502696890363 0 -0.64278761758704617 -0.76604443648966558 1.5 0 0 1 I I 0 1 1.5 forward I I I I #
face $-1 $106 $107 $36 $-1 $108 reversed single #
loop $-1 $-1 $109 $46 #
plane-surface $-1 -35.577845682527666 -94.495223380694014 105.35997610390936 -1 0 0 0 -0.54463904215088732 0.83867056331134215 forward_v I I I I #
face $-1 $110 $111 $37 $-1 $112 forward single #
loop $-1 $113 $114 $47 #
cone-surface $-1 -47.215986021749984 -20.943883413441615 6.1644069788402049 0 0.54463904215088732 -0.83867056331134215 1 0 0 1 I I 0 1 1 forward I I I I #
face $-1 $115 $116 $38 $-1 $117 forward single #
loop $-1 $118 $119 $48 #
cone-surface $-1 -42.851683394541617 -20.943883413441615 6.1644069788402049 0 0.54463904215088732 -0.83867056331134215 1 0 0 1 I I 0 1 1 forward I I I I #
face $-1 $120 $121 $39 $-1 $122 forward single #
loop $-1 $123 $124 $49 #
cone-surface $-1 -38.487380767333249 -20.943883413441615 6.1644069788402049 0 0.54463904215088732 -0.83867056331134215 1 0 0 1 I I 0 1 1 forward I I I I #
face $-1 $125 $126 $30 $-1 $127 reversed single #
loop $-1 $-1 $128 $50 #
plane-surface $-1 0 0 -11.22313683165574 0 0 1 1 0 0 forward_v I I I I #
coedge $-1 $129 $130 $131 $132 forward $51 $-1 #
face $-1 $133 $134 $31 $-1 $135 reversed single #
loop $-1 $-1 $136 $53 #
plane-surface $-1 -50.125521106555567 0 8.472925424148805 -1 0 0 0 0 1 forward_v I I I I #
coedge $-1 $137 $138 $139 $140 forward $54 $-1 #
face $-1 $141 $142 $32 $-1 $143 forward single #
loop $-1 $-1 $144 $56 #
plane-surface $-1 50.125521106555567 0 8.472925424148805 1 0 0 0 0 -1 forward_v I I I I #
coedge $-1 $145 $146 $147 $148 reversed $57 $-1 #
face $-1 $149 $150 $33 $-1 $151 reversed single #
loop $-1 $-1 $152 $59 #
plane-surface $-1 -38.555363132455938 63.676004049246643 129.66086361772855 -1 0 0 0 0.64278761758704617 0.76604443648966558 forward_v I I I I #
coedge $-1 $153 $154 $155 $156 reversed $60 $-1 #
face $-1 $-1 $157 $34 $-1 $158 forward single #
loop $-1 $159 $160 $62 #
cone-surface $-1 -46.819761685384243 18.59671867913973 2.4145733107409555 0 -0.64278761758704617 -0.76604443648966558 0.75 0 0 1 I I -0.70710678118654757 0.70710678118654757 0.75 forward I I I I #
loop $-1 $-1 $161 $44 #
coedge $-1 $100 $100 $162 $163 reversed $63 $-1 #
face $-1 $-1 $164 $35 $-1 $165 forward single #
loop $-1 $166 $167 $65 #
cone-surface $-1 -41.861122553627261 18.59671867913973 2.4145733107409555 0 -0.64278761758704617 -0.76604443648966558 0.75 0 0 1 I I -0.70710678118654757 0.70710678118654757 0.75 forward I I I I #
loop $-1 $-1 $168 $45 #
coedge $-1 $105 $105 $169 $170 reversed $66 $-1 #
face $-1 $171 $172 $36 $-1 $173 forward single #
loop $-1 $-1 $174 $68 #
plane-surface $-1 -42.851683394541617 -27.943779743840466 2.8797416651890444 0 -0.54463904215088732 0.83867056331134215 1 0 0 forward_v I I I I #
coedge $-1 $175 $176 $177 $178 reversed $69 $-1 #
face $-1 $-1 $179 $37 $-1 $180 forward single #
loop $-1 $181 $182 $71 #
cone-surface $-1 -47.215986021749984 -20.095518390357984 4.8580394276023462 0 0.54463904215088732 -0.83867056331134215 0.5 0 0 1 I I -0.70710678118654746 0.70710678118654746 0.5 forward I I I I #
loop $-1 $-1 $183 $47 #
coedge $-1 $114 $114 $184 $185 reversed $72 $-1 #
face $-1 $-1 $186 $38 $-1 $187 forward single #
loop $-1 $188 $189 $74 #
cone-surface $-1 -42.851683394541617 -20.095518390357984 4.8580394276023462 0 0.54463904215088732 -0.83867056331134215 0.5 0 0 1 I I -0.70710678118654746 0.70710678118654746 0.5 forward I I I I #
loop $-1 $-1 $190 $48 #
coedge $-1 $119 $119 $191 $192 reversed $75 $-1 #
face $-1 $-1 $193 $39 $-1 $194 forward single #
loop $-1 $195 $196 $77 #
cone-surface $-1 -38.487380767333249 -20.095518390357984 4.8580394276023462 0 0.54463904215088732 -0.83867056331134215 0.5 0 0 1 I I -0.70710678118654746 0.70710678118654746 0.5 forward I I I I #
loop $-1 $-1 $197 $49 #
coedge $-1 $124 $124 $198 $199 reversed $78 $-1 #
face $-1 $200 $201 $30 $-1 $202 reversed single #
loop $-1 $-1 $203 $80 #
plane-surface $-1 0 -27.943779743840462 0 0 1 0 0 0 1 forward_v I I I I #
coedge $-1 $204 $205 $206 $207 forward $81 $-1 #
coedge $-1 $208 $83 $209 $210 forward $51 $-1 #
coedge $-1 $83 $208 $211 $212 forward $51 $-1 #
coedge $-1 $213 $214 $83 $132 reversed $215 $-1 #
edge $-1 $216 -27.943779743840462 $217 27.943779743840462 $131 $218 forward 7 unknown #
face $-1 $219 $220 $31 $-1 $221 reversed single #
loop $-1 $-1 $222 $84 #
plane-surface $-1 0 27.943779743840462 0 0 -1 0 0 0 -1 forward_v I I I I #
coedge $-1 $139 $223 $224 $225 reversed $85 $-1 #
coedge $-1 $226 $87 $227 $228 reversed $54 $-1 #
coedge $-1 $87 $226 $229 $230 reversed $54 $-1 #
coedge $-1 $231 $136 $87 $140 reversed $85 $-1 #
edge $-1 $232 -27.943779743840462 $233 27.943779743840462 $139 $234 forward 7 unknown #
face $-1 $235 $236 $32 $-1 $237 reversed single #
loop $-1 $-1 $238 $88 #
plane-surface $-1 0 0 11.22313683165574 0 0 1 1 0 0 forward_v I I I I #
coedge $-1 $239 $240 $241 $242 reversed $89 $-1 #
coedge $-1 $243 $91 $244 $245 reversed $57 $-1 #
coedge $-1 $91 $243 $246 $247 reversed $57 $-1 #
coedge $-1 $248 $249 $91 $148 forward $250 $-1 #
edge $-1 $251 -27.943779743840462 $252 27.943779743840462 $147 $253 forward 7 unknown #
face $-1 $254 $255 $33 $-1 $256 forward single #
loop $-1 $-1 $257 $92 #
plane-surface $-1 0 27.943779743840462 0 0 -1 0 0 0 -1 forward_v I I I I #
coedge $-1 $258 $259 $260 $261 reversed $93 $-1 #
coedge $-1 $262 $95 $263 $264 reversed $60 $-1 #
coedge $-1 $95 $262 $258 $265 forward $60 $-1 #
coedge $-1 $260 $266 $95 $156 forward $255 $-1 #
edge $-1 $267 -27.955300046802691 $268 -16.385142072703061 $155 $269 forward 7 unknown #
loop $-1 $-1 $162 $96 #
plane-surface $-1 -44.340442119505752 -14.868574270682728 36.055082186724746 0 0.64278761758704617 0.76604443648966558 1 0 0 forward_v I I I I #
loop $-1 $-1 $270 $62 #
coedge $-1 $160 $160 $161 $271 reversed $97 $-1 #
coedge $-1 $161 $161 $160 $271 forward $99 $-1 #
coedge $-1 $162 $162 $100 $163 forward $157 $-1 #
edge $-1 $272 -8.7579237304154467e-016 $272 6.2831853071795996 $162 $273 forward 7 unknown #
loop $-1 $-1 $169 $101 #
plane-surface $-1 -44.340442119505752 -14.868574270682728 36.055082186724746 0 0.64278761758704617 0.76604443648966558 1 0 0 forward_v I I I I #
loop $-1 $-1 $274 $65 #
coedge $-1 $167 $167 $168 $275 reversed $102 $-1 #
coedge $-1 $168 $168 $167 $275 forward $104 $-1 #
coedge $-1 $169 $169 $105 $170 forward $164 $-1 #
edge $-1 $276 -8.7579237304154467e-016 $276 6.2831853071795996 $169 $277 forward 7 unknown #
face $-1 $278 $279 $36 $-1 $280 forward single #
loop $-1 $-1 $177 $106 #
plane-surface $-1 0 0 11.22313683165574 0 0 1 1 0 0 forward_v I I I I #
coedge $-1 $281 $282 $283 $284 reversed $107 $-1 #
coedge $-1 $176 $109 $285 $286 reversed $69 $-1 #
coedge $-1 $109 $175 $281 $287 reversed $69 $-1 #
coedge $-1 $283 $288 $109 $178 forward $172 $-1 #
edge $-1 $289 19.303831946506545 $290 32.151533603287874 $177 $291 forward 7 unknown #
loop $-1 $-1 $184 $110 #
plane-surface $-1 -42.851683394541617 -27.943779743840466 2.8797416651890444 0 -0.54463904215088732 0.83867056331134215 1 0 0 forward_v I I I I #
loop $-1 $-1 $292 $71 #
coedge $-1 $182 $182 $183 $293 reversed $111 $-1 #
coedge $-1 $183 $183 $182 $293 forward $113 $-1 #
coedge $-1 $184 $184 $114 $185 forward $179 $-1 #
edge $-1 $294 4.83736643764565e-016 $294 6.2831853071796013 $184 $295 forward 7 unknown #
loop $-1 $-1 $191 $115 #
plane-surface $-1 -42.851683394541617 -27.943779743840466 2.8797416651890444 0 -0.54463904215088732 0.83867056331134215 1 0 0 forward_v I I I I #
loop $-1 $-1 $296 $74 #
coedge $-1 $189 $189 $190 $297 reversed $116 $-1 #
coedge $-1 $190 $190 $189 $297 forward $118 $-1 #
coedge $-1 $191 $191 $119 $192 forward $186 $-1 #
edge $-1 $298 4.83736643764565e-016 $298 6.2831853071796013 $191 $299 forward 7 unknown #
loop $-1 $-1 $198 $120 #
plane-surface $-1 -42.851683394541617 -27.943779743840466 2.8797416651890444 0 -0.54463904215088732 0.83867056331134215 1 0 0 forward_v I I I I #
loop $-1 $-1 $300 $77 #
coedge $-1 $196 $196 $197 $301 reversed $121 $-1 #
coedge $-1 $197 $197 $196 $301 forward $123 $-1 #
coedge $-1 $198 $198 $124 $199 forward $193 $-1 #
edge $-1 $302 4.83736643764565e-016 $302 6.2831853071796013 $198 $303 forward 7 unknown #
face $-1 $304 $305 $30 $-1 $306 reversed single #
loop $-1 $-1 $307 $125 #
plane-surface $-1 -61.096835230567336 0 0 1 0 0 0 0 -1 forward_v I I I I #
coedge $-1 $308 $211 $309 $310 forward $126 $-1 #
coedge $-1 $311 $128 $308 $312 forward $81 $-1 #
coedge $-1 $128 $311 $313 $314 forward $81 $-1 #
coedge $-1 $214 $213 $128 $207 reversed $215 $-1 #
edge $-1 $315 -27.943779743840462 $316 27.943779743840462 $206 $317 forward 7 unknown #
coedge $-1 $130 $129 $318 $319 forward $51 $-1 #
coedge $-1 $320 $321 $129 $210 reversed $305 $-1 #
edge $-1 $217 -61.096835230567336 $322 61.096835230567336 $209 $323 forward 7 unknown #
coedge $-1 $203 $324 $130 $212 reversed $126 $-1 #
edge $-1 $325 -61.096835230567336 $216 61.096835230567336 $211 $326 forward 7 unknown #
coedge $-1 $206 $131 $324 $327 forward $215 $-1 #
coedge $-1 $131 $206 $320 $328 reversed $215 $-1 #
loop $-1 $-1 $213 $304 #
vertex $-1 $132 $329 #
vertex $-1 $132 $330 #
straight-curve $-1 61.096835230567336 0 11.22313683165574 0 1 0 I I #
face $-1 $331 $332 $31 $-1 $333 forward single #
loop $-1 $-1 $334 $133 #
plane-surface $-1 -61.096835230567336 0 0 1 0 0 0 0 -1 forward_v I I I I #
coedge $-1 $229 $335 $231 $336 forward $134 $-1 #
coedge $-1 $136 $231 $337 $338 reversed $85 $-1 #
coedge $-1 $339 $227 $136 $225 forward $340 $-1 #
edge $-1 $233 1.4862513045674675 $341 6.9866741195813375 $224 $342 forward 7 unknown #
coedge $-1 $138 $137 $334 $343 reversed $54 $-1 #
coedge $-1 $224 $344 $137 $228 forward $340 $-1 #
edge $-1 $345 -33.29124614628661 $233 -22.319932022274841 $227 $346 forward 7 unknown #
coedge $-1 $347 $222 $138 $230 forward $134 $-1 #
edge $-1 $232 22.319932022274841 $348 33.29124614628661 $229 $349 forward 7 unknown #
coedge $-1 $223 $139 $222 $336 reversed $85 $-1 #
vertex $-1 $230 $350 #
vertex $-1 $228 $351 #
straight-curve $-1 -50.125521106555567 0 5.72271401664187 0 -1 0 I I #
face $-1 $352 $353 $32 $-1 $354 reversed single #
loop $-1 $-1 $355 $141 #
plane-surface $-1 0 -27.943779743840462 0 0 1 0 0 0 1 forward_v I I I I #
coedge $-1 $356 $357 $240 $358 forward $142 $-1 #
coedge $-1 $359 $144 $243 $360 reversed $89 $-1 #
coedge $-1 $144 $359 $238 $358 reversed $89 $-1 #
coedge $-1 $361 $246 $144 $242 forward $353 $-1 #
edge $-1 $362 1.4862513045674675 $363 6.9866741195813375 $241 $364 forward 7 unknown #
coedge $-1 $146 $145 $239 $360 forward $57 $-1 #
coedge $-1 $365 $355 $145 $245 forward $236 $-1 #
edge $-1 $366 22.319932022274841 $251 33.29124614628661 $244 $367 forward 7 unknown #
coedge $-1 $241 $368 $146 $247 forward $353 $-1 #
edge $-1 $252 -33.29124614628661 $362 -22.319932022274841 $246 $369 forward 7 unknown #
coedge $-1 $370 $147 $368 $371 reversed $250 $-1 #
coedge $-1 $147 $370 $365 $372 forward $250 $-1 #
loop $-1 $-1 $147 $352 #
vertex $-1 $245 $373 #
vertex $-1 $148 $374 #
straight-curve $-1 61.096835230567336 0 5.72271401664187 0 1 0 I I #
face $-1 $-1 $375 $33 $-1 $376 forward single #
loop $-1 $-1 $260 $149 #
plane-surface $-1 0 0 11.22313683165574 0 0 1 1 0 0 forward_v I I I I #
coedge $-1 $377 $378 $259 $379 forward $150 $-1 #
coedge $-1 $259 $152 $154 $265 reversed $93 $-1 #
coedge $-1 $152 $258 $257 $379 reversed $93 $-1 #
coedge $-1 $380 $155 $152 $261 forward $255 $-1 #
edge $-1 $268 -17.113016827135372 $381 -3.8942222807828593 $260 $382 forward 7 unknown #
coedge $-1 $154 $153 $377 $383 reversed $60 $-1 #
coedge $-1 $384 $385 $153 $264 forward $375 $-1 #
edge $-1 $386 -41.327830771721665 $267 -24.071919865395479 $263 $387 forward 7 unknown #
edge $-1 $388 -55.887559487680917 $268 -38.631648581354739 $258 $389 forward 7 unknown #
coedge $-1 $155 $380 $384 $390 forward $255 $-1 #
vertex $-1 $264 $391 #
vertex $-1 $156 $392 #
straight-curve $-1 -22.170221059752876 14.724985197487953 11.22313683165574 1 0 0 I I #
coedge $-1 $270 $270 $-1 $393 reversed $159 $-1 #
edge $-1 $394 0 $394 6.2831853071796004 $160 $395 forward 7 unknown #
vertex $-1 $163 $396 #
ellipse-curve $-1 -46.819761685384243 21.334382470664206 5.6771939012698791 0 0.64278761758704617 0.76604443648966558 1.5 0 0 1 I I #
coedge $-1 $274 $274 $-1 $397 reversed $166 $-1 #
edge $-1 $398 0 $398 6.2831853071796004 $167 $399 forward 7 unknown #
vertex $-1 $170 $400 #
ellipse-curve $-1 -41.861122553627261 21.334382470664206 5.6771939012698791 0 0.64278761758704617 0.76604443648966558 1.5 0 0 1 I I #
face $-1 $-1 $401 $36 $-1 $402 reversed single #
loop $-1 $-1 $403 $171 #
plane-surface $-1 -50.125521106555567 0 8.472925424148805 -1 0 0 0 0 1 forward_v I I I I #
coedge $-1 $404 $174 $176 $287 forward $107 $-1 #
coedge $-1 $174 $404 $403 $405 forward $107 $-1 #
coedge $-1 $406 $177 $174 $284 forward $172 $-1 #
edge $-1 $290 14.152003985256858 $407 28.699679409284759 $283 $408 forward 7 unknown #
coedge $-1 $409 $410 $175 $286 forward $401 $-1 #
edge $-1 $411 -49.800246386765636 $289 -41.456851220298944 $285 $412 forward 7 unknown #
edge $-1 $290 -15.319127937499626 $411 -4.1888979916949389e-015 $176 $413 forward 7 unknown #
coedge $-1 $177 $406 $409 $414 forward $172 $-1 #
vertex $-1 $286 $415 #
vertex $-1 $178 $416 #
straight-curve $-1 -35.577845682527666 -47.247611690347007 11.223136831655744 0 1 0 I I #
coedge $-1 $292 $292 $-1 $417 reversed $181 $-1 #
edge $-1 $418 0 $418 6.2831853071796004 $182 $419 forward 7 unknown #
vertex $-1 $185 $420 #
ellipse-curve $-1 -47.215986021749984 -21.5199289154498 7.0514392484223913 0 -0.54463904215088732 0.83867056331134215 1 0 0 1 I I #
coedge $-1 $296 $296 $-1 $421 reversed $188 $-1 #
edge $-1 $422 0 $422 6.2831853071796004 $189 $423 forward 7 unknown #
vertex $-1 $192 $424 #
ellipse-curve $-1 -42.851683394541617 -21.5199289154498 7.0514392484223913 0 -0.54463904215088732 0.83867056331134215 1 0 0 1 I I #
coedge $-1 $300 $300 $-1 $425 reversed $195 $-1 #
edge $-1 $426 0 $426 6.2831853071796004 $196 $427 forward 7 unknown #
vertex $-1 $199 $428 #
ellipse-curve $-1 -38.487380767333249 -21.5199289154498 7.0514392484223913 0 -0.54463904215088732 0.83867056331134215 1 0 0 1 I I #
face $-1 $-1 $215 $30 $-1 $429 reversed single #
loop $-1 $-1 $320 $200 #
plane-surface $-1 0 27.943779743840462 0 0 -1 0 0 0 -1 forward_v I I I I #
coedge $-1 $430 $318 $321 $431 forward $201 $-1 #
coedge $-1 $324 $203 $204 $312 reversed $126 $-1 #
coedge $-1 $318 $430 $203 $310 reversed $201 $-1 #
edge $-1 $325 -11.22313683165574 $432 11.22313683165574 $309 $433 forward 7 unknown #
coedge $-1 $205 $204 $430 $434 forward $81 $-1 #
edge $-1 $316 -61.096835230567336 $432 61.096835230567336 $308 $435 forward 7 unknown #
coedge $-1 $321 $320 $205 $314 reversed $305 $-1 #
edge $-1 $436 -61.096835230567336 $315 61.096835230567336 $313 $437 forward 7 unknown #
vertex $-1 $207 $438 #
vertex $-1 $327 $439 #
straight-curve $-1 61.096835230567336 0 -11.22313683165574 0 -1 0 I I #
coedge $-1 $307 $309 $208 $319 reversed $201 $-1 #
edge $-1 $322 -27.943779743840462 $325 27.943779743840462 $318 $440 forward 7 unknown #
coedge $-1 $313 $209 $214 $328 forward $305 $-1 #
coedge $-1 $209 $313 $307 $431 reversed $305 $-1 #
vertex $-1 $210 $441 #
straight-curve $-1 0 27.943779743840462 11.22313683165574 -1 0 0 I I #
coedge $-1 $211 $308 $213 $327 reversed $126 $-1 #
vertex $-1 $319 $442 #
straight-curve $-1 0 -27.943779743840462 11.22313683165574 1 0 0 I I #
edge $-1 $216 -11.22313683165574 $316 11.22313683165574 $213 $443 forward 7 unknown #
edge $-1 $217 -11.22313683165574 $315 11.22313683165574 $214 $444 forward 7 unknown #
point $-1 61.096835230567336 -27.943779743840462 11.22313683165574 #
point $-1 61.096835230567336 27.943779743840462 11.22313683165574 #
face $-1 $-1 $340 $31 $-1 $445 reversed single #
loop $-1 $-1 $337 $219 #
plane-surface $-1 0 0 11.22313683165574 0 0 1 1 0 0 forward_v I I I I #
coedge $-1 $446 $447 $226 $343 forward $220 $-1 #
coedge $-1 $222 $347 $448 $449 reversed $134 $-1 #
edge $-1 $450 -6.9866741195813375 $232 -1.4862513045674675 $222 $451 forward 7 unknown #
coedge $-1 $448 $452 $223 $338 forward $332 $-1 #
edge $-1 $341 -27.943779743840462 $450 27.943779743840462 $337 $453 forward 7 unknown #
coedge $-1 $344 $224 $452 $454 reversed $340 $-1 #
loop $-1 $-1 $224 $331 #
vertex $-1 $225 $455 #
straight-curve $-1 -50.125521106555567 -27.943779743840462 4.2364627120744025 0 0 1 I I #
edge $-1 $348 -27.943779743840462 $345 27.943779743840462 $334 $456 forward 7 unknown #
coedge $-1 $227 $339 $446 $457 forward $340 $-1 #
vertex $-1 $343 $458 #
straight-curve $-1 -27.805589084280726 -27.943779743840462 5.72271401664187 1 0 0 I I #
coedge $-1 $335 $229 $447 $459 reversed $134 $-1 #
vertex $-1 $343 $460 #
straight-curve $-1 -27.805589084280726 27.943779743840462 5.72271401664187 -1 0 0 I I #
point $-1 -50.125521106555567 27.943779743840462 5.72271401664187 #
point $-1 -50.125521106555567 -27.943779743840462 5.72271401664187 #
face $-1 $-1 $250 $32 $-1 $461 reversed single #
loop $-1 $-1 $241 $235 #
plane-surface $-1 0 27.943779743840462 0 0 -1 0 0 0 -1 forward_v I I I I #
coedge $-1 $244 $462 $359 $463 forward $236 $-1 #
coedge $-1 $464 $238 $462 $465 forward $142 $-1 #
coedge $-1 $238 $464 $361 $466 forward $142 $-1 #
edge $-1 $363 -27.943779743840462 $467 27.943779743840462 $238 $468 forward 7 unknown #
coedge $-1 $240 $239 $355 $463 reversed $89 $-1 #
edge $-1 $366 -27.943779743840462 $362 27.943779743840462 $239 $469 forward 7 unknown #
coedge $-1 $368 $241 $357 $466 reversed $353 $-1 #
vertex $-1 $247 $470 #
vertex $-1 $242 $471 #
straight-curve $-1 50.125521106555567 27.943779743840462 4.2364627120744025 0 0 1 I I #
coedge $-1 $462 $244 $249 $372 reversed $236 $-1 #
vertex $-1 $245 $472 #
straight-curve $-1 27.805589084280726 -27.943779743840462 5.72271401664187 1 0 0 I I #
coedge $-1 $246 $361 $248 $371 forward $353 $-1 #
straight-curve $-1 27.805589084280726 27.943779743840462 5.72271401664187 -1 0 0 I I #
coedge $-1 $249 $248 $464 $473 reversed $250 $-1 #
edge $-1 $474 -11.22313683165574 $252 -5.72271401664187 $248 $475 forward 7 unknown #
edge $-1 $476 -11.22313683165574 $251 -5.72271401664187 $249 $477 forward 7 unknown #
point $-1 61.096835230567336 -27.943779743840462 5.72271401664187 #
point $-1 61.096835230567336 27.943779743840462 5.72271401664187 #
loop $-1 $-1 $263 $254 #
plane-surface $-1 -50.125521106555567 0 8.472925424148805 -1 0 0 0 0 1 forward_v I I I I #
coedge $-1 $478 $257 $262 $383 forward $150 $-1 #
coedge $-1 $257 $478 $380 $479 reversed $150 $-1 #
edge $-1 $381 53.607294977208539 $388 64.699180837980265 $257 $480 forward 7 unknown #
coedge $-1 $266 $260 $378 $479 forward $255 $-1 #
vertex $-1 $479 $481 #
straight-curve $-1 -38.555363132455938 31.838002024623322 11.223136831655737 0 1 0 I I #
edge $-1 $388 16.385142072703061 $386 27.955300046802691 $377 $482 forward 7 unknown #
coedge $-1 $385 $263 $266 $390 reversed $375 $-1 #
coedge $-1 $263 $384 $478 $483 reversed $375 $-1 #
vertex $-1 $483 $484 #
straight-curve $-1 -50.125521106555567 -3.7151750910233172 26.696268852679591 0 -0.76604443648966558 0.64278761758704617 I I #
vertex $-1 $383 $485 #
straight-curve $-1 -38.555363132455938 -14.868574270682728 36.055082186724746 0 -0.76604443648966558 0.64278761758704617 I I #
edge $-1 $486 -27.943779743840462 $267 -14.72498519748795 $266 $487 forward 7 unknown #
point $-1 -50.125521106555567 14.72498519748795 11.223136831655744 #
point $-1 -38.555363132455938 14.72498519748795 11.223136831655744 #
edge $-1 $488 1 $488 0 $270 $-1 forward 7 unknown #
vertex $-1 $271 $489 #
ellipse-curve $-1 -46.819761685384243 19.078809392330015 2.9891066381082045 0 0.64278761758704617 0.76604443648966558 1.5 0 0 1 I I #
point $-1 -45.319761685384243 21.334382470664195 5.6771939012698684 #
edge $-1 $490 1 $490 0 $274 $-1 forward 7 unknown #
vertex $-1 $275 $491 #
ellipse-curve $-1 -41.861122553627261 19.078809392330015 2.9891066381082045 0 0.64278761758704617 0.76604443648966558 1.5 0 0 1 I I #
point $-1 -40.361122553627261 21.334382470664195 5.6771939012698684 #
loop $-1 $-1 $285 $278 #
plane-surface $-1 0 -27.943779743840462 0 0 1 0 0 0 1 forward_v I I I I #
coedge $-1 $492 $493 $282 $405 reversed $279 $-1 #
coedge $-1 $282 $281 $410 $494 reversed $107 $-1 #
edge $-1 $495 4.1888979916949389e-015 $407 15.319127937499626 $403 $496 forward 7 unknown #
coedge $-1 $288 $283 $493 $497 forward $172 $-1 #
vertex $-1 $497 $498 #
straight-curve $-1 -21.425841697270808 -15.096078087059132 11.22313683165574 -1 0 0 I I #
coedge $-1 $499 $285 $288 $414 reversed $401 $-1 #
coedge $-1 $285 $499 $404 $494 forward $401 $-1 #
vertex $-1 $286 $500 #
straight-curve $-1 -35.577845682527666 -27.943779743840466 52.67998805195468 0 0 1 I I #
straight-curve $-1 -35.577845682527666 -27.943779743840466 2.8797416651890444 0 -0.83867056331134215 -0.54463904215088732 I I #
edge $-1 $501 -50.125521106555567 $289 -35.577845682527666 $409 $502 forward 7 unknown #
point $-1 -35.577845682527666 -27.943779743840462 11.22313683165574 #
point $-1 -35.577845682527666 -15.096078087059134 11.22313683165574 #
edge $-1 $503 1 $503 0 $292 $-1 forward 7 unknown #
vertex $-1 $293 $504 #
ellipse-curve $-1 -47.215986021749984 -20.367837911433426 5.2773747092580177 0 -0.54463904215088732 0.83867056331134215 1 0 0 1 I I #
point $-1 -46.215986021749984 -21.5199289154498 7.0514392484223922 #
edge $-1 $505 1 $505 0 $296 $-1 forward 7 unknown #
vertex $-1 $297 $506 #
ellipse-curve $-1 -42.851683394541617 -20.367837911433426 5.2773747092580177 0 -0.54463904215088732 0.83867056331134215 1 0 0 1 I I #
point $-1 -41.851683394541617 -21.5199289154498 7.0514392484223922 #
edge $-1 $507 1 $507 0 $300 $-1 forward 7 unknown #
vertex $-1 $301 $508 #
ellipse-curve $-1 -38.487380767333249 -20.367837911433426 5.2773747092580177 0 -0.54463904215088732 0.83867056331134215 1 0 0 1 I I #
point $-1 -37.487380767333249 -21.5199289154498 7.0514392484223922 #
plane-surface $-1 61.096835230567336 0 0 -1 0 0 0 0 1 forward_v I I I I #
coedge $-1 $309 $307 $311 $434 reversed $201 $-1 #
edge $-1 $322 -11.22313683165574 $436 11.22313683165574 $321 $509 forward 7 unknown #
vertex $-1 $434 $510 #
straight-curve $-1 -61.096835230567336 -27.943779743840462 0 0 0 -1 I I #
edge $-1 $432 -27.943779743840462 $436 27.943779743840462 $430 $511 forward 7 unknown #
straight-curve $-1 0 -27.943779743840462 -11.22313683165574 -1 0 0 I I #
vertex $-1 $314 $512 #
straight-curve $-1 0 27.943779743840462 -11.22313683165574 1 0 0 I I #
point $-1 61.096835230567336 27.943779743840462 -11.22313683165574 #
point $-1 61.096835230567336 -27.943779743840462 -11.22313683165574 #
straight-curve $-1 -61.096835230567336 0 11.22313683165574 0 -1 0 I I #
point $-1 -61.096835230567336 27.943779743840462 11.22313683165574 #
point $-1 -61.096835230567336 -27.943779743840462 11.22313683165574 #
straight-curve $-1 61.096835230567336 -27.943779743840462 0 0 0 -1 I I #
straight-curve $-1 61.096835230567336 27.943779743840462 0 0 0 -1 I I #
plane-surface $-1 0 -27.943779743840462 0 0 1 0 0 0 1 forward_v I I I I #
coedge $-1 $513 $334 $344 $457 reversed $220 $-1 #
coedge $-1 $334 $513 $347 $459 forward $220 $-1 #
coedge $-1 $514 $337 $335 $449 forward $332 $-1 #
edge $-1 $450 50.125521106555567 $515 61.096835230567336 $335 $516 forward 7 unknown #
vertex $-1 $449 $517 #
straight-curve $-1 -50.125521106555567 27.943779743840462 4.2364627120744025 0 0 -1 I I #
coedge $-1 $337 $514 $339 $454 forward $332 $-1 #
straight-curve $-1 -50.125521106555567 0 11.22313683165574 0 1 0 I I #
edge $-1 $518 -61.096835230567336 $341 -50.125521106555567 $339 $519 forward 7 unknown #
point $-1 -50.125521106555567 -27.943779743840462 11.22313683165574 #
straight-curve $-1 -61.096835230567336 0 5.72271401664187 0 -1 0 I I #
edge $-1 $518 -11.22313683165574 $345 -5.72271401664187 $446 $520 forward 7 unknown #
point $-1 -61.096835230567336 -27.943779743840462 5.72271401664187 #
edge $-1 $515 -11.22313683165574 $348 -5.72271401664187 $347 $521 forward 7 unknown #
point $-1 -61.096835230567336 27.943779743840462 5.72271401664187 #
plane-surface $-1 61.096835230567336 0 0 -1 0 0 0 0 1 forward_v I I I I #
coedge $-1 $355 $365 $356 $465 reversed $236 $-1 #
edge $-1 $467 -6.9866741195813375 $366 -1.4862513045674675 $355 $522 forward 7 unknown #
coedge $-1 $357 $356 $370 $473 forward $142 $-1 #
edge $-1 $467 50.125521106555567 $476 61.096835230567336 $462 $523 forward 7 unknown #
edge $-1 $474 -61.096835230567336 $363 -50.125521106555567 $361 $524 forward 7 unknown #
vertex $-1 $465 $525 #
straight-curve $-1 50.125521106555567 0 11.22313683165574 0 -1 0 I I #
straight-curve $-1 50.125521106555567 0 5.72271401664187 0 1 0 I I #
point $-1 50.125521106555567 27.943779743840462 5.72271401664187 #
point $-1 50.125521106555567 27.943779743840462 11.22313683165574 #
point $-1 50.125521106555567 -27.943779743840462 5.72271401664187 #
edge $-1 $476 -27.943779743840462 $474 27.943779743840462 $370 $526 forward 7 unknown #
vertex $-1 $473 $527 #
straight-curve $-1 61.096835230567336 27.943779743840462 0 0 0 -1 I I #
vertex $-1 $473 $528 #
straight-curve $-1 61.096835230567336 -27.943779743840462 0 0 0 -1 I I #
coedge $-1 $378 $377 $385 $483 forward $150 $-1 #
edge $-1 $381 38.555363132455938 $486 50.125521106555567 $378 $529 forward 7 unknown #
straight-curve $-1 -38.555363132455938 27.943779743840462 64.830431808864276 0 0 -1 I I #
point $-1 -38.555363132455938 27.943779743840462 11.22313683165574 #
straight-curve $-1 -22.170221059752876 27.943779743840459 0.13125097088401105 -1 0 0 I I #
edge $-1 $386 -64.699180837980265 $486 -53.607294977208539 $478 $530 forward 7 unknown #
point $-1 -50.125521106555567 27.943779743840466 0.13125097088401105 #
point $-1 -38.555363132455938 27.943779743840466 0.13125097088401105 #
vertex $-1 $390 $531 #
straight-curve $-1 -50.125521106555567 0 11.22313683165574 0 -1 0 I I #
vertex $-1 $393 $532 #
point $-1 -45.319761685384243 19.078809392330015 2.9891066381082045 #
vertex $-1 $397 $533 #
point $-1 -40.361122553627261 19.078809392330015 2.9891066381082045 #
coedge $-1 $493 $403 $499 $534 reversed $279 $-1 #
coedge $-1 $403 $492 $406 $497 reversed $279 $-1 #
edge $-1 $495 -28.699679409284759 $411 -14.152003985256858 $410 $535 forward 7 unknown #
vertex $-1 $534 $536 #
straight-curve $-1 -50.125521106555567 -27.943779743840466 2.8797416651890444 0 0.83867056331134215 0.54463904215088732 I I #
edge $-1 $407 15.096078087059134 $501 27.943779743840462 $406 $537 forward 7 unknown #
point $-1 -50.125521106555567 -15.096078087059134 11.22313683165574 #
coedge $-1 $410 $409 $492 $534 forward $401 $-1 #
point $-1 -35.577845682527666 -27.943779743840462 2.8797416651890466 #
vertex $-1 $414 $538 #
straight-curve $-1 0 -27.943779743840462 11.22313683165574 1 0 0 I I #
vertex $-1 $417 $539 #
point $-1 -46.215986021749984 -20.367837911433426 5.2773747092580177 #
vertex $-1 $421 $540 #
point $-1 -41.851683394541617 -20.367837911433426 5.2773747092580177 #
vertex $-1 $425 $541 #
point $-1 -37.487380767333249 -20.367837911433426 5.2773747092580177 #
straight-curve $-1 -61.096835230567336 27.943779743840462 0 0 0 -1 I I #
point $-1 -61.096835230567336 -27.943779743840462 -11.22313683165574 #
straight-curve $-1 -61.096835230567336 0 -11.22313683165574 0 1 0 I I #
point $-1 -61.096835230567336 27.943779743840462 -11.22313683165574 #
coedge $-1 $447 $446 $514 $542 reversed $220 $-1 #
coedge $-1 $452 $448 $513 $542 forward $332 $-1 #
vertex $-1 $449 $543 #
straight-curve $-1 0 27.943779743840462 11.22313683165574 -1 0 0 I I #
point $-1 -50.125521106555567 27.943779743840462 11.22313683165574 #
vertex $-1 $542 $544 #
straight-curve $-1 0 -27.943779743840462 11.22313683165574 1 0 0 I I #
straight-curve $-1 -61.096835230567336 -27.943779743840462 0 0 0 -1 I I #
straight-curve $-1 -61.096835230567336 27.943779743840462 0 0 0 -1 I I #
straight-curve $-1 50.125521106555567 -27.943779743840462 4.2364627120744025 0 0 -1 I I #
straight-curve $-1 0 -27.943779743840462 11.22313683165574 1 0 0 I I #
straight-curve $-1 0 27.943779743840462 11.22313683165574 -1 0 0 I I #
point $-1 50.125521106555567 -27.943779743840462 11.22313683165574 #
straight-curve $-1 61.096835230567336 0 11.22313683165574 0 1 0 I I #
point $-1 61.096835230567336 27.943779743840462 11.22313683165574 #
point $-1 61.096835230567336 -27.943779743840462 11.22313683165574 #
straight-curve $-1 0 27.943779743840462 11.22313683165574 -1 0 0 I I #
straight-curve $-1 -50.125521106555567 27.943779743840462 64.830431808864276 0 0 1 I I #
point $-1 -50.125521106555567 27.943779743840462 11.22313683165574 #
point $-1 -46.819761685384243 18.114627965949445 1.8400399833737064 #
point $-1 -41.861122553627261 18.114627965949445 1.8400399833737064 #
edge $-1 $501 41.456851220298944 $495 49.800246386765636 $499 $545 forward 7 unknown #
straight-curve $-1 -21.425841697270808 -27.943779743840462 2.8797416651890471 1 0 0 I I #
point $-1 -50.125521106555567 -27.943779743840462 2.8797416651890466 #
straight-curve $-1 -50.125521106555567 0 11.22313683165574 0 -1 0 I I #
point $-1 -50.125521106555567 -27.943779743840462 11.22313683165574 #
point $-1 -47.215986021749984 -19.823198869282542 4.4387041459466747 #
point $-1 -42.851683394541617 -19.823198869282542 4.4387041459466747 #
point $-1 -38.487380767333249 -19.823198869282542 4.4387041459466747 #
edge $-1 $515 -27.943779743840462 $518 27.943779743840462 $513 $546 forward 7 unknown #
point $-1 -61.096835230567336 27.943779743840462 11.22313683165574 #
point $-1 -61.096835230567336 -27.943779743840462 11.22313683165574 #
straight-curve $-1 -50.125521106555567 -27.943779743840466 52.67998805195468 0 0 -1 I I #
straight-curve $-1 -61.096835230567336 0 11.22313683165574 0 -1 0 I I #
End-of-ACIS-data 