500 0 7 0           
7 Unknown 11 ACIS 5.0 NT 24 Fri Mar 26 15:38:08 1999 
-1 9.9999999999999995e-007 1e-010 
body $-1 $7 $-1 $8 #
body $-1 $9 $-1 $10 #
body $-1 $11 $-1 $12 #
body $-1 $13 $-1 $14 #
body $-1 $15 $-1 $16 #
body $-1 $17 $-1 $18 #
body $-1 $19 $-1 $20 #
lump $-1 $-1 $21 $0 #
transform $-1 1 0 0 0 1 0 0 0 1 52.732322153386029 21.980303428308272 10.464306813569682 1 rotate no_reflect no_shear #
lump $-1 $-1 $22 $1 #
transform $-1 1 0 0 0 1 0 0 0 1 52.732322153386029 21.980303428308272 10.464306813569682 1 rotate no_reflect no_shear #
lump $-1 $-1 $23 $2 #
transform $-1 1 0 0 0 1 0 0 0 1 52.732322153386029 21.980303428308272 10.464306813569682 1 rotate no_reflect no_shear #
lump $-1 $-1 $24 $3 #
transform $-1 1 0 0 0 1 0 0 0 1 52.732322153386029 21.980303428308272 10.464306813569682 1 rotate no_reflect no_shear #
lump $-1 $-1 $25 $4 #
transform $-1 1 0 0 0 1 0 0 0 1 52.732322153386029 21.980303428308272 10.464306813569682 1 rotate no_reflect no_shear #
lump $-1 $-1 $26 $5 #
transform $-1 1 0 0 0 1 0 0 0 1 52.732322153386029 21.980303428308272 10.464306813569682 1 rotate no_reflect no_shear #
lump $-1 $-1 $27 $6 #
transform $-1 1 0 0 0 1 0 0 0 1 52.732322153386029 21.980303428308272 10.464306813569682 1 rotate no_reflect no_shear #
shell $-1 $-1 $-1 $28 $-1 $7 #
shell $-1 $-1 $-1 $29 $-1 $9 #
shell $-1 $-1 $-1 $30 $-1 $11 #
shell $-1 $-1 $-1 $31 $-1 $13 #
shell $-1 $-1 $-1 $32 $-1 $15 #
shell $-1 $-1 $-1 $33 $-1 $17 #
shell $-1 $-1 $-1 $34 $-1 $19 #
face $-1 $35 $36 $21 $-1 $37 forward single #
face $-1 $38 $39 $22 $-1 $40 reversed single #
face $-1 $41 $42 $23 $-1 $43 forward single #
face $-1 $44 $45 $24 $-1 $46 reversed single #
face $-1 $47 $48 $25 $-1 $49 forward single #
face $-1 $50 $51 $26 $-1 $52 forward single #
face $-1 $53 $54 $27 $-1 $55 forward single #
face $-1 $56 $57 $21 $-1 $58 reversed single #
loop $-1 $-1 $59 $28 #
plane-surface $-1 0 0 10.464306813569682 0 0 1 1 0 0 forward_v I I I I #
face $-1 $60 $61 $22 $-1 $62 reversed single #
loop $-1 $-1 $63 $29 #
plane-surface $-1 -36.46635607834115 -17.725296625509753 0 1 0 0 0 0 -1 forward_v I I I I #
face $-1 $64 $65 $23 $-1 $66 reversed single #
loop $-1 $-1 $67 $30 #
plane-surface $-1 0 18.428123631524944 9.0624968183692971 0 0 1 1 0 0 forward_v I I I I #
face $-1 $68 $69 $24 $-1 $70 reversed single #
loop $-1 $-1 $71 $31 #
plane-surface $-1 -114.72288550714671 3.3541958073943583 91.793562089093612 0 -1 0 0.5877852598018023 0 -0.80901698891910034 forward_v I I I I #
face $-1 $72 $73 $25 $-1 $74 forward single #
loop $-1 $75 $76 $32 #
cone-surface $-1 -49.517052813002849 -3.2122602082244605 7.8247860056379963 0.5877852598018023 0 -0.80901698891910034 0.40450849445955017 0 0.29389262990090115 1 I I 0 1 0.5 forward I I I I #
face $-1 $77 $78 $26 $-1 $79 forward single #
loop $-1 $80 $81 $33 #
cone-surface $-1 -49.517052813002849 -0.74983920236740431 7.8247860056379963 0.5877852598018023 0 -0.80901698891910034 0.40450849445955017 0 0.29389262990090115 1 I I 0 1 0.5 forward I I I I #
face $-1 $82 $83 $27 $-1 $84 forward single #
loop $-1 $85 $86 $34 #
cone-surface $-1 -49.517052813002849 1.7125818034896518 7.8247860056379963 0.5877852598018023 0 -0.80901698891910034 0.40450849445955017 0 0.29389262990090115 1 I I 0 1 0.5 forward I I I I #
face $-1 $87 $88 $21 $-1 $89 reversed single #
loop $-1 $-1 $90 $35 #
plane-surface $-1 0 0 -10.464306813569682 0 0 1 1 0 0 forward_v I I I I #
coedge $-1 $91 $92 $93 $94 forward $36 $-1 #
face $-1 $95 $96 $22 $-1 $97 reversed single #
loop $-1 $-1 $98 $38 #
plane-surface $-1 -34.135032302293908 -13.470289822711234 0 0 -1 0 0 0 -1 forward_v I I I I #
coedge $-1 $99 $100 $101 $102 forward $39 $-1 #
face $-1 $103 $104 $23 $-1 $105 reversed single #
loop $-1 $-1 $106 $41 #
plane-surface $-1 0 18.428123631524944 6.0624968183692971 0 0 1 1 0 0 forward_v I I I I #
coedge $-1 $107 $108 $109 $110 reversed $42 $-1 #
face $-1 $111 $112 $24 $-1 $113 reversed single #
loop $-1 $-1 $114 $44 #
plane-surface $-1 -52.732322153386029 -0.74983920236740431 6.4708731146049416 -0.5877852598018023 0 0.80901698891910034 0.80901698891910034 0 0.5877852598018023 forward_v I I I I #
coedge $-1 $115 $116 $117 $118 reversed $45 $-1 #
face $-1 $-1 $119 $25 $-1 $120 forward single #
loop $-1 $121 $122 $47 #
cone-surface $-1 -48.903082075952724 -3.2122602082244605 6.9797277999589049 0.5877852598018023 0 -0.80901698891910034 0.20225424722977509 0 0.14694631495045057 1 I I -0.70710678118654746 0.70710678118654746 0.25 forward I I I I #
loop $-1 $-1 $123 $32 #
coedge $-1 $76 $76 $124 $125 reversed $48 $-1 #
face $-1 $-1 $126 $26 $-1 $127 forward single #
loop $-1 $128 $129 $50 #
cone-surface $-1 -48.903082075952724 -0.74983920236740431 6.9797277999589049 0.5877852598018023 0 -0.80901698891910034 0.20225424722977509 0 0.14694631495045057 1 I I -0.70710678118654746 0.70710678118654746 0.25 forward I I I I #
loop $-1 $-1 $130 $33 #
coedge $-1 $81 $81 $131 $132 reversed $51 $-1 #
face $-1 $-1 $133 $27 $-1 $134 forward single #
loop $-1 $135 $136 $53 #
cone-surface $-1 -48.903082075952724 1.7125818034896518 6.9797277999589049 0.5877852598018023 0 -0.80901698891910034 0.20225424722977509 0 0.14694631495045057 1 I I -0.70710678118654746 0.70710678118654746 0.25 forward I I I I #
loop $-1 $-1 $137 $34 #
coedge $-1 $86 $86 $138 $139 reversed $54 $-1 #
face $-1 $140 $141 $21 $-1 $142 reversed single #
loop $-1 $-1 $143 $56 #
plane-surface $-1 0 -21.980303428308272 0 0 1 0 0 0 1 forward_v I I I I #
coedge $-1 $144 $145 $146 $147 forward $57 $-1 #
coedge $-1 $148 $59 $149 $150 forward $36 $-1 #
coedge $-1 $59 $148 $151 $152 forward $36 $-1 #
coedge $-1 $153 $154 $59 $94 reversed $155 $-1 #
edge $-1 $156 -21.980303428308272 $157 21.980303428308272 $93 $158 forward 7 unknown #
face $-1 $159 $160 $22 $-1 $161 forward single #
loop $-1 $-1 $162 $60 #
plane-surface $-1 -31.803708526246666 -17.725296625509753 0 -1 0 0 0 0 1 forward_v I I I I #
coedge $-1 $163 $164 $165 $166 forward $61 $-1 #
coedge $-1 $167 $63 $168 $169 reversed $39 $-1 #
coedge $-1 $63 $167 $170 $171 reversed $39 $-1 #
coedge $-1 $164 $163 $63 $102 reversed $61 $-1 #
edge $-1 $172 -10.464306813569682 $173 10.464306813569682 $101 $174 forward 7 unknown #
face $-1 $175 $176 $23 $-1 $177 reversed single #
loop $-1 $-1 $178 $64 #
plane-surface $-1 0 14.875943834741616 7.5624968183692971 0 1 0 0 0 1 forward_v I I I I #
coedge $-1 $179 $180 $181 $182 reversed $65 $-1 #
coedge $-1 $183 $67 $184 $185 reversed $42 $-1 #
coedge $-1 $67 $183 $186 $187 forward $42 $-1 #
coedge $-1 $188 $189 $67 $110 forward $190 $-1 #
edge $-1 $191 -12.7662416125458 $192 -5.6618820189791439 $109 $193 forward 7 unknown #
face $-1 $194 $195 $24 $-1 $196 reversed single #
loop $-1 $-1 $197 $68 #
plane-surface $-1 -114.72288550714671 -4.8538742121291669 91.793562089093612 0 1 0 -0.5877852598018023 0 0.80901698891910034 forward_v I I I I #
coedge $-1 $198 $199 $200 $201 reversed $69 $-1 #
coedge $-1 $116 $71 $202 $203 reversed $45 $-1 #
coedge $-1 $71 $115 $198 $204 reversed $45 $-1 #
coedge $-1 $200 $205 $71 $118 forward $195 $-1 #
edge $-1 $206 35.432474230977121 $207 39.425907929941864 $117 $208 forward 7 unknown #
loop $-1 $-1 $124 $72 #
plane-surface $-1 -52.732322153386029 -0.74983920236740431 6.4708731146049416 -0.5877852598018023 0 0.80901698891910034 0.80901698891910034 0 0.5877852598018023 forward_v I I I I #
loop $-1 $-1 $209 $47 #
coedge $-1 $122 $122 $123 $210 reversed $73 $-1 #
coedge $-1 $123 $123 $122 $210 forward $75 $-1 #
coedge $-1 $124 $124 $76 $125 forward $119 $-1 #
edge $-1 $211 0 $211 6.2831853071796004 $124 $212 forward 7 unknown #
loop $-1 $-1 $131 $77 #
plane-surface $-1 -52.732322153386029 -0.74983920236740431 6.4708731146049416 -0.5877852598018023 0 0.80901698891910034 0.80901698891910034 0 0.5877852598018023 forward_v I I I I #
loop $-1 $-1 $213 $50 #
coedge $-1 $129 $129 $130 $214 reversed $78 $-1 #
coedge $-1 $130 $130 $129 $214 forward $80 $-1 #
coedge $-1 $131 $131 $81 $132 forward $126 $-1 #
edge $-1 $215 0 $215 6.2831853071796004 $131 $216 forward 7 unknown #
loop $-1 $-1 $138 $82 #
plane-surface $-1 -52.732322153386029 -0.74983920236740431 6.4708731146049416 -0.5877852598018023 0 0.80901698891910034 0.80901698891910034 0 0.5877852598018023 forward_v I I I I #
loop $-1 $-1 $217 $53 #
coedge $-1 $136 $136 $137 $218 reversed $83 $-1 #
coedge $-1 $137 $137 $136 $218 forward $85 $-1 #
coedge $-1 $138 $138 $86 $139 forward $133 $-1 #
edge $-1 $219 0 $219 6.2831853071796004 $138 $220 forward 7 unknown #
face $-1 $221 $222 $21 $-1 $223 reversed single #
loop $-1 $-1 $224 $87 #
plane-surface $-1 -52.732322153386029 0 0 1 0 0 0 0 -1 forward_v I I I I #
coedge $-1 $225 $151 $226 $227 forward $88 $-1 #
coedge $-1 $228 $90 $225 $229 forward $57 $-1 #
coedge $-1 $90 $228 $230 $231 forward $57 $-1 #
coedge $-1 $154 $153 $90 $147 reversed $155 $-1 #
edge $-1 $232 -21.980303428308272 $233 21.980303428308272 $146 $234 forward 7 unknown #
coedge $-1 $92 $91 $235 $236 forward $36 $-1 #
coedge $-1 $237 $238 $91 $150 reversed $222 $-1 #
edge $-1 $157 -52.732322153386029 $239 52.732322153386029 $149 $240 forward 7 unknown #
coedge $-1 $143 $241 $92 $152 reversed $88 $-1 #
edge $-1 $242 -52.732322153386029 $156 52.732322153386029 $151 $243 forward 7 unknown #
coedge $-1 $146 $93 $241 $244 forward $155 $-1 #
coedge $-1 $93 $146 $237 $245 reversed $155 $-1 #
loop $-1 $-1 $153 $221 #
vertex $-1 $94 $246 #
vertex $-1 $94 $247 #
straight-curve $-1 52.732322153386029 0 10.464306813569682 0 1 0 I I #
face $-1 $248 $249 $22 $-1 $250 reversed single #
loop $-1 $-1 $251 $95 #
plane-surface $-1 0 0 10.464306813569682 0 0 1 1 0 0 forward_v I I I I #
coedge $-1 $252 $253 $254 $255 reversed $96 $-1 #
coedge $-1 $101 $98 $256 $257 reversed $61 $-1 #
coedge $-1 $98 $101 $258 $259 reversed $61 $-1 #
coedge $-1 $253 $252 $98 $166 reversed $96 $-1 #
edge $-1 $260 -10.464306813569682 $261 10.464306813569682 $165 $262 forward 7 unknown #
coedge $-1 $100 $99 $263 $264 reversed $39 $-1 #
coedge $-1 $256 $265 $99 $169 forward $249 $-1 #
edge $-1 $266 -13.117655115553395 $173 -4.6076415099563572 $168 $267 forward 7 unknown #
coedge $-1 $268 $258 $100 $171 forward $160 $-1 #
edge $-1 $172 4.6076415099563572 $269 13.117655115553395 $170 $270 forward 7 unknown #
vertex $-1 $171 $271 #
vertex $-1 $169 $272 #
straight-curve $-1 -36.46635607834115 -13.470289822711234 0 0 0 -1 I I #
face $-1 $273 $190 $23 $-1 $274 reversed single #
loop $-1 $-1 $275 $103 #
plane-surface $-1 -52.732322153386029 0 0 1 0 0 0 0 -1 forward_v I I I I #
coedge $-1 $276 $186 $277 $278 reversed $104 $-1 #
coedge $-1 $279 $106 $276 $280 forward $65 $-1 #
coedge $-1 $106 $279 $281 $282 reversed $65 $-1 #
coedge $-1 $189 $188 $106 $182 forward $190 $-1 #
edge $-1 $283 5.6618820189791439 $284 12.7662416125458 $181 $285 forward 7 unknown #
coedge $-1 $108 $107 $286 $287 reversed $42 $-1 #
coedge $-1 $288 $289 $107 $185 forward $290 $-1 #
edge $-1 $291 -52.732322153386029 $191 52.732322153386029 $184 $292 forward 7 unknown #
coedge $-1 $178 $293 $108 $187 reversed $104 $-1 #
edge $-1 $294 -52.732322153386029 $192 52.732322153386029 $186 $295 forward 7 unknown #
coedge $-1 $181 $109 $293 $296 forward $190 $-1 #
coedge $-1 $109 $181 $288 $297 reversed $190 $-1 #
loop $-1 $-1 $109 $175 #
vertex $-1 $297 $298 #
vertex $-1 $110 $299 #
straight-curve $-1 52.732322153386029 9.2140618157624719 9.0624968183692971 0 -1 0 I I #
face $-1 $-1 $300 $24 $-1 $301 forward single #
loop $-1 $-1 $117 $111 #
plane-surface $-1 -52.732322153386029 0 0 1 0 0 0 0 -1 forward_v I I I I #
coedge $-1 $302 $303 $304 $305 reversed $112 $-1 #
coedge $-1 $306 $114 $116 $204 forward $69 $-1 #
coedge $-1 $114 $306 $302 $307 forward $69 $-1 #
coedge $-1 $304 $117 $114 $201 forward $195 $-1 #
edge $-1 $207 -3.7291154085780605 $308 4.4789546109454648 $200 $309 forward 7 unknown #
coedge $-1 $310 $311 $115 $203 forward $300 $-1 #
edge $-1 $312 -10.125610436754357 $206 -4.6291206001873277 $202 $313 forward 7 unknown #
edge $-1 $207 0 $312 6.7940351214511576 $116 $314 forward 7 unknown #
coedge $-1 $117 $304 $310 $315 reversed $195 $-1 #
vertex $-1 $315 $316 #
vertex $-1 $118 $317 #
straight-curve $-1 -52.732322153386029 3.3541958073943583 45.896781044546806 0 0 -1 I I #
coedge $-1 $209 $209 $-1 $318 reversed $121 $-1 #
edge $-1 $319 0 $319 6.2831853071796004 $122 $320 forward 7 unknown #
vertex $-1 $125 $321 #
ellipse-curve $-1 -49.984077235102518 -3.2122602082244605 8.4675899640873098 -0.5877852598018023 0 0.80901698891910034 0.40450849445955017 0 0.29389262990090115 1 I I #
coedge $-1 $213 $213 $-1 $322 reversed $128 $-1 #
edge $-1 $323 0 $323 6.2831853071796004 $129 $324 forward 7 unknown #
vertex $-1 $132 $325 #
ellipse-curve $-1 -49.984077235102518 -0.74983920236740431 8.4675899640873098 -0.5877852598018023 0 0.80901698891910034 0.40450849445955017 0 0.29389262990090115 1 I I #
coedge $-1 $217 $217 $-1 $326 reversed $135 $-1 #
edge $-1 $327 0 $327 6.2831853071796004 $136 $328 forward 7 unknown #
vertex $-1 $139 $329 #
ellipse-curve $-1 -49.984077235102518 1.7125818034896518 8.4675899640873098 -0.5877852598018023 0 0.80901698891910034 0.40450849445955017 0 0.29389262990090115 1 I I #
face $-1 $-1 $155 $21 $-1 $330 reversed single #
loop $-1 $-1 $237 $140 #
plane-surface $-1 0 21.980303428308272 0 0 -1 0 0 0 -1 forward_v I I I I #
coedge $-1 $331 $235 $238 $332 forward $141 $-1 #
coedge $-1 $241 $143 $144 $229 reversed $88 $-1 #
coedge $-1 $235 $331 $143 $227 reversed $141 $-1 #
edge $-1 $242 -10.464306813569682 $333 10.464306813569682 $226 $334 forward 7 unknown #
coedge $-1 $145 $144 $331 $335 forward $57 $-1 #
edge $-1 $233 -52.732322153386029 $333 52.732322153386029 $225 $336 forward 7 unknown #
coedge $-1 $238 $237 $145 $231 reversed $222 $-1 #
edge $-1 $337 -52.732322153386029 $232 52.732322153386029 $230 $338 forward 7 unknown #
vertex $-1 $147 $339 #
vertex $-1 $244 $340 #
straight-curve $-1 52.732322153386029 0 -10.464306813569682 0 -1 0 I I #
coedge $-1 $224 $226 $148 $236 reversed $141 $-1 #
edge $-1 $239 -21.980303428308272 $242 21.980303428308272 $235 $341 forward 7 unknown #
coedge $-1 $230 $149 $154 $245 forward $222 $-1 #
coedge $-1 $149 $230 $224 $332 reversed $222 $-1 #
vertex $-1 $150 $342 #
straight-curve $-1 0 21.980303428308272 10.464306813569682 -1 0 0 I I #
coedge $-1 $151 $225 $153 $244 reversed $88 $-1 #
vertex $-1 $236 $343 #
straight-curve $-1 0 -21.980303428308272 10.464306813569682 1 0 0 I I #
edge $-1 $156 -10.464306813569682 $233 10.464306813569682 $153 $344 forward 7 unknown #
edge $-1 $157 -10.464306813569682 $232 10.464306813569682 $154 $345 forward 7 unknown #
point $-1 52.732322153386029 -21.980303428308272 10.464306813569682 #
point $-1 52.732322153386029 21.980303428308272 10.464306813569682 #
face $-1 $-1 $346 $22 $-1 $347 reversed single #
loop $-1 $-1 $348 $159 #
plane-surface $-1 0 0 -10.464306813569682 0 0 1 1 0 0 forward_v I I I I #
coedge $-1 $258 $268 $253 $349 forward $160 $-1 #
coedge $-1 $165 $162 $348 $350 reversed $96 $-1 #
coedge $-1 $162 $165 $251 $349 reversed $96 $-1 #
coedge $-1 $351 $352 $162 $255 forward $346 $-1 #
edge $-1 $353 -10.464306813569682 $354 10.464306813569682 $254 $355 forward 7 unknown #
coedge $-1 $348 $168 $163 $257 forward $249 $-1 #
edge $-1 $173 -19.398839927194196 $261 -14.736192375099712 $256 $356 forward 7 unknown #
coedge $-1 $170 $251 $164 $259 forward $160 $-1 #
edge $-1 $260 14.736192375099712 $172 19.398839927194196 $258 $357 forward 7 unknown #
vertex $-1 $259 $358 #
vertex $-1 $257 $359 #
straight-curve $-1 -31.803708526246666 -13.470289822711234 0 0 0 -1 I I #
coedge $-1 $352 $351 $167 $264 forward $346 $-1 #
edge $-1 $269 -10.464306813569682 $266 10.464306813569682 $263 $360 forward 7 unknown #
coedge $-1 $168 $348 $352 $361 forward $249 $-1 #
vertex $-1 $169 $362 #
straight-curve $-1 -36.46635607834115 -8.8626483127548763 -10.464306813569682 0 1 0 I I #
coedge $-1 $251 $170 $351 $363 forward $160 $-1 #
vertex $-1 $363 $364 #
straight-curve $-1 -36.46635607834115 -8.8626483127548763 10.464306813569682 0 -1 0 I I #
point $-1 -36.46635607834115 -13.470289822711234 10.464306813569682 #
point $-1 -36.46635607834115 -13.470289822711234 -10.464306813569682 #
face $-1 $-1 $290 $23 $-1 $365 reversed single #
plane-surface $-1 52.732322153386029 0 0 -1 0 0 0 0 1 forward_v I I I I #
coedge $-1 $277 $366 $279 $367 forward $176 $-1 #
coedge $-1 $293 $178 $179 $280 reversed $104 $-1 #
coedge $-1 $286 $275 $178 $278 forward $176 $-1 #
edge $-1 $368 2.2812484091846486 $294 5.2812484091846486 $277 $369 forward 7 unknown #
coedge $-1 $180 $179 $275 $367 reversed $65 $-1 #
edge $-1 $283 -52.732322153386029 $368 52.732322153386029 $276 $370 forward 7 unknown #
coedge $-1 $289 $288 $180 $282 forward $290 $-1 #
edge $-1 $284 -52.732322153386029 $371 52.732322153386029 $281 $372 forward 7 unknown #
vertex $-1 $182 $373 #
vertex $-1 $182 $374 #
straight-curve $-1 52.732322153386029 9.2140618157624719 6.0624968183692971 0 1 0 I I #
coedge $-1 $366 $277 $183 $287 forward $176 $-1 #
edge $-1 $294 5.6618820189791439 $291 12.7662416125458 $286 $375 forward 7 unknown #
coedge $-1 $281 $184 $189 $297 forward $290 $-1 #
coedge $-1 $184 $281 $366 $376 reversed $290 $-1 #
loop $-1 $-1 $281 $273 #
vertex $-1 $376 $377 #
straight-curve $-1 0 21.980303428308272 9.0624968183692971 1 0 0 I I #
coedge $-1 $186 $276 $188 $296 reversed $104 $-1 #
vertex $-1 $287 $378 #
straight-curve $-1 0 14.875943834741616 9.0624968183692971 1 0 0 I I #
edge $-1 $192 -5.2812484091846486 $283 -2.2812484091846486 $188 $379 forward 7 unknown #
edge $-1 $191 -9.0624968183692971 $284 -6.0624968183692971 $189 $380 forward 7 unknown #
point $-1 52.732322153386029 21.980303428308272 9.0624968183692971 #
point $-1 52.732322153386029 14.875943834741616 9.0624968183692971 #
loop $-1 $-1 $202 $194 #
plane-surface $-1 0 0 10.464306813569682 0 0 1 1 0 0 forward_v I I I I #
coedge $-1 $303 $197 $199 $307 reversed $112 $-1 #
coedge $-1 $197 $302 $381 $382 reversed $112 $-1 #
coedge $-1 $205 $200 $197 $305 forward $195 $-1 #
edge $-1 $308 -39.425907929941864 $383 -35.432474230977121 $304 $384 forward 7 unknown #
coedge $-1 $199 $198 $311 $385 reversed $69 $-1 #
edge $-1 $386 -6.7940351214511576 $308 0 $302 $387 forward 7 unknown #
vertex $-1 $201 $388 #
straight-curve $-1 -52.732322153386029 -0.37491960118370216 6.470873114604939 0 -1 0 I I #
coedge $-1 $381 $202 $205 $315 forward $300 $-1 #
coedge $-1 $202 $381 $306 $385 forward $300 $-1 #
vertex $-1 $203 $389 #
straight-curve $-1 -57.361442753573357 3.3541958073943583 10.464306813569678 -1 0 0 I I #
straight-curve $-1 -52.732322153386029 3.3541958073943583 6.4708731146049416 0.80901698891910034 0 0.5877852598018023 I I #
edge $-1 $206 -3.3541958073943583 $383 4.8538742121291669 $205 $390 forward 7 unknown #
point $-1 -52.732322153386029 3.3541958073943583 10.464306813569682 #
point $-1 -52.732322153386029 3.3541958073943583 6.4708731146049416 #
edge $-1 $391 1 $391 0 $209 $-1 forward 7 unknown #
vertex $-1 $210 $392 #
ellipse-curve $-1 -49.050028390903172 -3.2122602082244605 7.1819820471886802 -0.5877852598018023 0 0.80901698891910034 0.40450849445955017 0 0.29389262990090115 1 I I #
point $-1 -49.579568740642969 -3.2122602082244605 8.7614825939882159 #
edge $-1 $393 1 $393 0 $213 $-1 forward 7 unknown #
vertex $-1 $214 $394 #
ellipse-curve $-1 -49.050028390903172 -0.74983920236740431 7.1819820471886802 -0.5877852598018023 0 0.80901698891910034 0.40450849445955017 0 0.29389262990090115 1 I I #
point $-1 -49.579568740642969 -0.74983920236740431 8.7614825939882159 #
edge $-1 $395 1 $395 0 $217 $-1 forward 7 unknown #
vertex $-1 $218 $396 #
ellipse-curve $-1 -49.050028390903172 1.7125818034896518 7.1819820471886802 -0.5877852598018023 0 0.80901698891910034 0.40450849445955017 0 0.29389262990090115 1 I I #
point $-1 -49.579568740642969 1.7125818034896518 8.7614825939882159 #
plane-surface $-1 52.732322153386029 0 0 -1 0 0 0 0 1 forward_v I I I I #
coedge $-1 $226 $224 $228 $335 reversed $141 $-1 #
edge $-1 $239 -10.464306813569682 $337 10.464306813569682 $238 $397 forward 7 unknown #
vertex $-1 $335 $398 #
straight-curve $-1 -52.732322153386029 -21.980303428308272 0 0 0 -1 I I #
edge $-1 $333 -21.980303428308272 $337 21.980303428308272 $331 $399 forward 7 unknown #
straight-curve $-1 0 -21.980303428308272 -10.464306813569682 -1 0 0 I I #
vertex $-1 $231 $400 #
straight-curve $-1 0 21.980303428308272 -10.464306813569682 1 0 0 I I #
point $-1 52.732322153386029 21.980303428308272 -10.464306813569682 #
point $-1 52.732322153386029 -21.980303428308272 -10.464306813569682 #
straight-curve $-1 -52.732322153386029 0 10.464306813569682 0 -1 0 I I #
point $-1 -52.732322153386029 21.980303428308272 10.464306813569682 #
point $-1 -52.732322153386029 -21.980303428308272 10.464306813569682 #
straight-curve $-1 52.732322153386029 -21.980303428308272 0 0 0 -1 I I #
straight-curve $-1 52.732322153386029 21.980303428308272 0 0 0 -1 I I #
loop $-1 $-1 $254 $248 #
plane-surface $-1 0 -21.980303428308272 0 0 1 0 0 0 1 forward_v I I I I #
coedge $-1 $265 $256 $252 $350 forward $249 $-1 #
edge $-1 $354 -13.117655115553395 $260 -4.6076415099563572 $251 $401 forward 7 unknown #
edge $-1 $261 4.6076415099563572 $353 13.117655115553395 $348 $402 forward 7 unknown #
coedge $-1 $263 $254 $268 $363 reversed $346 $-1 #
coedge $-1 $254 $263 $265 $361 reversed $346 $-1 #
vertex $-1 $361 $403 #
vertex $-1 $255 $404 #
straight-curve $-1 -31.803708526246666 -21.980303428308272 0 0 0 1 I I #
straight-curve $-1 -17.067516151146954 -13.470289822711234 -10.464306813569682 1 0 0 I I #
straight-curve $-1 -17.067516151146954 -13.470289822711234 10.464306813569682 -1 0 0 I I #
point $-1 -31.803708526246666 -13.470289822711234 10.464306813569682 #
point $-1 -31.803708526246666 -13.470289822711234 -10.464306813569682 #
straight-curve $-1 -36.46635607834115 -21.980303428308272 0 0 0 -1 I I #
edge $-1 $353 31.803708526246666 $266 36.46635607834115 $352 $405 forward 7 unknown #
point $-1 -36.46635607834115 -21.980303428308272 -10.464306813569682 #
edge $-1 $269 -36.46635607834115 $354 -31.803708526246666 $351 $406 forward 7 unknown #
point $-1 -36.46635607834115 -21.980303428308272 10.464306813569682 #
plane-surface $-1 0 21.980303428308272 0 0 -1 0 0 0 -1 forward_v I I I I #
coedge $-1 $275 $286 $289 $376 forward $176 $-1 #
edge $-1 $371 -12.7662416125458 $368 -5.6618820189791439 $275 $407 forward 7 unknown #
vertex $-1 $367 $408 #
straight-curve $-1 -52.732322153386029 14.875943834741616 3.7812484091846486 0 0 1 I I #
straight-curve $-1 0 14.875943834741616 6.0624968183692971 -1 0 0 I I #
vertex $-1 $282 $409 #
straight-curve $-1 0 21.980303428308272 6.0624968183692971 -1 0 0 I I #
point $-1 52.732322153386029 14.875943834741616 6.0624968183692971 #
point $-1 52.732322153386029 21.980303428308272 6.0624968183692971 #
straight-curve $-1 -52.732322153386029 9.2140618157624719 9.0624968183692971 0 1 0 I I #
edge $-1 $291 -9.0624968183692971 $371 -6.0624968183692971 $289 $410 forward 7 unknown #
point $-1 -52.732322153386029 21.980303428308272 9.0624968183692971 #
point $-1 -52.732322153386029 14.875943834741616 9.0624968183692971 #
straight-curve $-1 52.732322153386029 14.875943834741616 3.7812484091846486 0 0 -1 I I #
straight-curve $-1 52.732322153386029 21.980303428308272 0 0 0 -1 I I #
coedge $-1 $311 $310 $303 $382 forward $300 $-1 #
edge $-1 $383 4.6291206001873277 $386 10.125610436754357 $381 $411 forward 7 unknown #
vertex $-1 $382 $412 #
straight-curve $-1 -52.732322153386029 -4.8538742121291669 45.896781044546806 0 0 1 I I #
edge $-1 $386 -4.4789546109454648 $312 3.7291154085780605 $311 $413 forward 7 unknown #
vertex $-1 $385 $414 #
straight-curve $-1 -52.732322153386029 -4.8538742121291669 6.4708731146049416 -0.80901698891910034 0 -0.5877852598018023 I I #
point $-1 -52.732322153386029 -4.8538742121291669 6.4708731146049416 #
point $-1 -47.235832316819 3.3541958073943583 10.464306813569682 #
straight-curve $-1 -52.732322153386029 0 10.464306813569682 0 -1 0 I I #
vertex $-1 $318 $415 #
point $-1 -48.645519896443624 -3.2122602082244605 7.475874677089581 #
vertex $-1 $322 $416 #
point $-1 -48.645519896443624 -0.74983920236740431 7.475874677089581 #
vertex $-1 $326 $417 #
point $-1 -48.645519896443624 1.7125818034896518 7.475874677089581 #
straight-curve $-1 -52.732322153386029 21.980303428308272 0 0 0 -1 I I #
point $-1 -52.732322153386029 -21.980303428308272 -10.464306813569682 #
straight-curve $-1 -52.732322153386029 0 -10.464306813569682 0 1 0 I I #
point $-1 -52.732322153386029 21.980303428308272 -10.464306813569682 #
straight-curve $-1 -31.803708526246666 -8.8626483127548763 10.464306813569682 0 1 0 I I #
straight-curve $-1 -31.803708526246666 -8.8626483127548763 -10.464306813569682 0 -1 0 I I #
point $-1 -31.803708526246666 -21.980303428308272 -10.464306813569682 #
point $-1 -31.803708526246666 -21.980303428308272 10.464306813569682 #
straight-curve $-1 0 -21.980303428308272 -10.464306813569682 -1 0 0 I I #
straight-curve $-1 0 -21.980303428308272 10.464306813569682 1 0 0 I I #
straight-curve $-1 -52.732322153386029 9.2140618157624719 6.0624968183692971 0 -1 0 I I #
point $-1 -52.732322153386029 14.875943834741616 6.0624968183692971 #
point $-1 -52.732322153386029 21.980303428308272 6.0624968183692971 #
straight-curve $-1 -52.732322153386029 21.980303428308272 0 0 0 -1 I I #
straight-curve $-1 -57.361442753573357 -4.8538742121291669 10.464306813569678 1 0 0 I I #
point $-1 -52.732322153386029 -4.8538742121291669 10.464306813569682 #
straight-curve $-1 -47.235832316819007 -0.37491960118370216 10.464306813569682 0 1 0 I I #
point $-1 -47.235832316819 -4.8538742121291669 10.464306813569682 #
point $-1 -48.756135761002277 -3.2122602082244605 6.7774735527291297 #
point $-1 -48.756135761002277 -0.74983920236740431 6.7774735527291297 #
point $-1 -48.756135761002277 1.7125818034896518 6.7774735527291297 #
End-of-ACIS-data 