500 0 6 0           
7 Unknown 11 ACIS 5.0 NT 24 Fri Mar 26 03:06:10 1999 
-1 9.9999999999999995e-007 1e-010 
body $-1 $6 $-1 $7 #
body $-1 $8 $-1 $9 #
body $-1 $10 $-1 $11 #
body $-1 $12 $-1 $13 #
body $-1 $14 $-1 $15 #
body $-1 $16 $-1 $17 #
lump $-1 $-1 $18 $0 #
transform $-1 1 0 0 0 1 0 0 0 1 69.699392681661436 35.694376318670855 16.521680267109751 1 rotate no_reflect no_shear #
lump $-1 $-1 $19 $1 #
transform $-1 1 0 0 0 1 0 0 0 1 69.699392681661436 35.694376318670855 16.521680267109751 1 rotate no_reflect no_shear #
lump $-1 $-1 $20 $2 #
transform $-1 1 0 0 0 1 0 0 0 1 69.699392681661436 35.694376318670855 16.521680267109751 1 rotate no_reflect no_shear #
lump $-1 $-1 $21 $3 #
transform $-1 1 0 0 0 1 0 0 0 1 69.699392681661436 35.694376318670855 16.521680267109751 1 rotate no_reflect no_shear #
lump $-1 $-1 $22 $4 #
transform $-1 1 0 0 0 1 0 0 0 1 69.699392681661436 35.694376318670855 16.521680267109751 1 rotate no_reflect no_shear #
lump $-1 $-1 $23 $5 #
transform $-1 1 0 0 0 1 0 0 0 1 69.699392681661436 35.694376318670855 16.521680267109751 1 rotate no_reflect no_shear #
shell $-1 $-1 $-1 $24 $-1 $6 #
shell $-1 $-1 $-1 $25 $-1 $8 #
shell $-1 $-1 $-1 $26 $-1 $10 #
shell $-1 $-1 $-1 $27 $-1 $12 #
shell $-1 $-1 $-1 $28 $-1 $14 #
shell $-1 $-1 $-1 $29 $-1 $16 #
face $-1 $30 $31 $18 $-1 $32 reversed single #
face $-1 $33 $34 $19 $-1 $35 forward single #
face $-1 $36 $37 $20 $-1 $38 reversed single #
face $-1 $39 $40 $21 $-1 $41 forward single #
face $-1 $42 $43 $22 $-1 $44 reversed single #
face $-1 $45 $46 $23 $-1 $47 forward single #
face $-1 $48 $49 $18 $-1 $50 forward single #
loop $-1 $-1 $51 $24 #
plane-surface $-1 0 -35.694376318670855 0 0 1 0 0 0 1 forward_v I I I I #
face $-1 $52 $53 $19 $-1 $54 reversed single #
loop $-1 $-1 $55 $25 #
plane-surface $-1 0 -35.694376318670855 0 0 1 0 0 0 1 forward_v I I I I #
face $-1 $56 $57 $20 $-1 $58 reversed single #
loop $-1 $-1 $59 $26 #
plane-surface $-1 -186.60905228901464 21.886239421465994 79.250958765615508 0 1 0 -0.83867057594974714 0 0.54463902268945019 forward_v I I I I #
face $-1 $60 $61 $21 $-1 $62 forward single #
loop $-1 $63 $64 $27 #
cone-surface $-1 -62.543878249831756 28.790307870068425 8.0603534967742156 0.83867057594974714 0 -0.54463902268945019 1.0892780453789004 0 1.6773411518994943 1 I I 0 1 2 forward I I I I #
face $-1 $65 $66 $22 $-1 $67 reversed single #
loop $-1 $-1 $68 $28 #
plane-surface $-1 110.68703406463806 21.886239421465994 196.16061837296868 0 1 0 0.83867057594974714 0 0.54463902268945019 forward_v I I I I #
face $-1 $69 $70 $23 $-1 $71 forward single #
loop $-1 $72 $73 $29 #
cone-surface $-1 62.543878249831756 28.790307870068425 8.0603534967742156 -0.83867057594974714 0 -0.54463902268945019 1.0892780453789004 0 -1.6773411518994943 1 I I 0 1 2 forward I I I I #
face $-1 $74 $75 $18 $-1 $76 reversed single #
loop $-1 $-1 $77 $30 #
plane-surface $-1 0 0 16.521680267109751 0 0 1 1 0 0 forward_v I I I I #
coedge $-1 $78 $79 $80 $81 reversed $31 $-1 #
face $-1 $82 $83 $19 $-1 $84 reversed single #
loop $-1 $-1 $85 $33 #
plane-surface $-1 0 0 -16.521680267109751 0 0 1 1 0 0 forward_v I I I I #
coedge $-1 $86 $87 $88 $89 forward $34 $-1 #
face $-1 $90 $91 $20 $-1 $92 reversed single #
loop $-1 $-1 $93 $36 #
plane-surface $-1 -69.699392681661465 28.790307870068425 3.3289405412389073 -0.83867057594974714 0 0.54463902268945019 0.54463902268945019 0 0.83867057594974714 forward_v I I I I #
coedge $-1 $94 $95 $96 $97 reversed $37 $-1 #
face $-1 $-1 $98 $21 $-1 $99 forward single #
loop $-1 $100 $101 $39 #
cone-surface $-1 -58.833425780753629 28.790307870068425 5.6507575666846677 0.83867057594974714 0 -0.54463902268945019 0.54463902268945019 0 0.83867057594974714 1 I I -0.70710678118654746 0.70710678118654746 1 forward I I I I #
loop $-1 $-1 $102 $27 #
coedge $-1 $64 $64 $103 $104 reversed $40 $-1 #
face $-1 $105 $106 $22 $-1 $107 reversed single #
loop $-1 $-1 $108 $42 #
plane-surface $-1 -6.2226255427151216 28.790307870068425 120.23860014859208 0.83867057594974714 0 0.54463902268945019 0.54463902268945019 0 -0.83867057594974714 forward_v I I I I #
coedge $-1 $109 $110 $111 $112 reversed $43 $-1 #
face $-1 $-1 $113 $23 $-1 $114 forward single #
loop $-1 $115 $116 $45 #
cone-surface $-1 58.833425780753629 28.790307870068425 5.6507575666846677 -0.83867057594974714 0 -0.54463902268945019 0.54463902268945019 0 -0.83867057594974714 1 I I -0.70710678118654746 0.70710678118654746 1 forward I I I I #
loop $-1 $-1 $117 $29 #
coedge $-1 $73 $73 $118 $119 reversed $46 $-1 #
face $-1 $120 $121 $18 $-1 $122 reversed single #
loop $-1 $-1 $123 $48 #
plane-surface $-1 0 0 -16.521680267109751 0 0 1 1 0 0 forward_v I I I I #
coedge $-1 $124 $125 $126 $127 forward $49 $-1 #
coedge $-1 $128 $51 $129 $130 reversed $31 $-1 #
coedge $-1 $51 $128 $131 $132 forward $31 $-1 #
coedge $-1 $133 $123 $51 $81 forward $75 $-1 #
edge $-1 $134 -69.699392681661436 $135 69.699392681661436 $51 $136 forward 7 unknown #
face $-1 $137 $138 $19 $-1 $139 reversed single #
loop $-1 $-1 $140 $52 #
plane-surface $-1 -45.240983456865202 -52.123885707981977 0 0 1 0 0 0 1 forward_v I I I I #
coedge $-1 $141 $142 $87 $143 forward $53 $-1 #
coedge $-1 $144 $55 $145 $146 reversed $34 $-1 #
coedge $-1 $55 $144 $85 $143 reversed $34 $-1 #
coedge $-1 $147 $148 $55 $89 reversed $138 $-1 #
edge $-1 $149 -16.521680267109751 $150 16.521680267109751 $88 $151 forward 7 unknown #
face $-1 $152 $153 $20 $-1 $154 forward single #
loop $-1 $-1 $155 $56 #
plane-surface $-1 -69.699392681661436 0 0 1 0 0 0 0 -1 forward_v I I I I #
coedge $-1 $156 $157 $158 $159 reversed $57 $-1 #
coedge $-1 $95 $59 $160 $161 reversed $37 $-1 #
coedge $-1 $59 $94 $156 $162 reversed $37 $-1 #
coedge $-1 $158 $163 $59 $97 forward $153 $-1 #
edge $-1 $164 23.605133462845885 $165 32.172598540248458 $96 $166 forward 7 unknown #
loop $-1 $-1 $103 $60 #
plane-surface $-1 -69.699392681661465 28.790307870068425 3.3289405412389073 -0.83867057594974714 0 0.54463902268945019 0.54463902268945019 0 0.83867057594974714 forward_v I I I I #
loop $-1 $-1 $167 $39 #
coedge $-1 $101 $101 $102 $168 reversed $61 $-1 #
coedge $-1 $102 $102 $101 $168 forward $63 $-1 #
coedge $-1 $103 $103 $64 $104 forward $98 $-1 #
edge $-1 $169 0 $169 6.2831853071796004 $103 $170 forward 7 unknown #
face $-1 $171 $172 $22 $-1 $173 forward single #
loop $-1 $-1 $174 $65 #
plane-surface $-1 0 35.694376318670855 0 0 -1 0 0 0 -1 forward_v I I I I #
coedge $-1 $175 $176 $177 $178 reversed $66 $-1 #
coedge $-1 $110 $68 $179 $180 reversed $43 $-1 #
coedge $-1 $68 $109 $175 $181 reversed $43 $-1 #
coedge $-1 $177 $182 $68 $112 forward $183 $-1 #
edge $-1 $184 81.558628919374598 $185 94.751368645245364 $111 $186 forward 7 unknown #
loop $-1 $-1 $118 $69 #
plane-surface $-1 -6.2226255427151216 28.790307870068425 120.23860014859208 0.83867057594974714 0 0.54463902268945019 0.54463902268945019 0 -0.83867057594974714 forward_v I I I I #
loop $-1 $-1 $187 $45 #
coedge $-1 $116 $116 $117 $188 reversed $70 $-1 #
coedge $-1 $117 $117 $116 $188 forward $72 $-1 #
coedge $-1 $118 $118 $73 $119 forward $113 $-1 #
edge $-1 $189 0 $189 6.2831853071796004 $118 $190 forward 7 unknown #
face $-1 $191 $192 $18 $-1 $193 reversed single #
loop $-1 $-1 $194 $74 #
plane-surface $-1 -69.699392681661436 0 0 1 0 0 0 0 -1 forward_v I I I I #
coedge $-1 $80 $195 $196 $197 forward $75 $-1 #
coedge $-1 $198 $77 $199 $200 forward $49 $-1 #
coedge $-1 $77 $198 $128 $201 forward $49 $-1 #
coedge $-1 $129 $202 $77 $127 reversed $203 $-1 #
edge $-1 $204 -35.694376318670855 $205 35.694376318670855 $126 $206 forward 7 unknown #
coedge $-1 $79 $78 $125 $201 reversed $31 $-1 #
coedge $-1 $196 $126 $78 $130 forward $203 $-1 #
edge $-1 $204 -16.521680267109751 $134 16.521680267109751 $129 $207 forward 7 unknown #
coedge $-1 $208 $209 $79 $132 reversed $121 $-1 #
edge $-1 $210 -16.521680267109751 $135 16.521680267109751 $131 $211 forward 7 unknown #
coedge $-1 $195 $80 $209 $212 forward $75 $-1 #
vertex $-1 $130 $213 #
vertex $-1 $212 $214 #
straight-curve $-1 0 -35.694376318670855 -16.521680267109751 -1 0 0 I I #
face $-1 $215 $216 $19 $-1 $217 reversed single #
loop $-1 $-1 $88 $82 #
plane-surface $-1 -49.061183980067113 -43.909131013326416 0 1 0 0 0 0 -1 forward_v I I I I #
coedge $-1 $218 $219 $220 $221 forward $83 $-1 #
coedge $-1 $222 $85 $223 $224 forward $53 $-1 #
coedge $-1 $85 $222 $147 $225 forward $53 $-1 #
edge $-1 $149 -49.061183980067113 $226 -41.42078293366329 $85 $227 forward 7 unknown #
coedge $-1 $87 $86 $228 $229 forward $34 $-1 #
coedge $-1 $230 $231 $86 $146 forward $232 $-1 #
edge $-1 $233 41.42078293366329 $150 49.061183980067113 $145 $234 forward 7 unknown #
coedge $-1 $220 $88 $142 $225 reversed $138 $-1 #
coedge $-1 $88 $220 $230 $235 reversed $138 $-1 #
vertex $-1 $143 $236 #
vertex $-1 $235 $237 #
straight-curve $-1 -49.061183980067113 -35.694376318670855 0 0 0 1 I I #
face $-1 $-1 $238 $20 $-1 $239 reversed single #
loop $-1 $-1 $158 $90 #
plane-surface $-1 0 0 16.521680267109751 0 0 1 1 0 0 forward_v I I I I #
coedge $-1 $160 $240 $241 $242 forward $91 $-1 #
coedge $-1 $241 $93 $95 $162 forward $57 $-1 #
coedge $-1 $93 $241 $243 $244 reversed $57 $-1 #
coedge $-1 $245 $96 $93 $159 forward $153 $-1 #
edge $-1 $165 7.491085486431782 $246 21.299222383636643 $158 $247 forward 7 unknown #
coedge $-1 $248 $155 $94 $161 forward $91 $-1 #
edge $-1 $249 -36.296538841568804 $164 -23.103799115698003 $160 $250 forward 7 unknown #
edge $-1 $165 -15.730538430933759 $249 -5.235158283374276e-014 $95 $251 forward 7 unknown #
coedge $-1 $96 $245 $248 $252 forward $153 $-1 #
vertex $-1 $161 $253 #
vertex $-1 $97 $254 #
straight-curve $-1 -93.304526144507321 21.886239421465994 16.521680267109751 1 0 0 I I #
coedge $-1 $167 $167 $-1 $255 reversed $100 $-1 #
edge $-1 $256 0 $256 6.2831853071796004 $101 $257 forward 7 unknown #
vertex $-1 $104 $258 #
ellipse-curve $-1 -65.415660142960164 28.790307870068425 9.9253104041743327 -0.83867057594974714 0 0.54463902268945019 1.0892780453789004 0 1.6773411518994943 1 I I #
face $-1 $-1 $183 $22 $-1 $259 reversed single #
loop $-1 $-1 $260 $105 #
plane-surface $-1 0 0 16.521680267109751 0 0 1 1 0 0 forward_v I I I I #
coedge $-1 $261 $262 $176 $263 forward $106 $-1 #
coedge $-1 $264 $108 $110 $181 forward $66 $-1 #
coedge $-1 $108 $264 $174 $263 reversed $66 $-1 #
coedge $-1 $265 $111 $108 $178 forward $183 $-1 #
edge $-1 $185 7.491085486431782 $266 21.299222383636643 $177 $267 forward 7 unknown #
coedge $-1 $268 $260 $109 $180 forward $172 $-1 #
edge $-1 $269 5.7884105719398633 $184 14.355875649342408 $179 $270 forward 7 unknown #
edge $-1 $185 -139.39878536332279 $269 -123.66824693238914 $110 $271 forward 7 unknown #
coedge $-1 $111 $265 $268 $272 reversed $183 $-1 #
loop $-1 $-1 $177 $171 #
vertex $-1 $272 $273 #
vertex $-1 $112 $274 #
straight-curve $-1 69.699392681661436 21.886239421465994 98.080309186484342 0 0 -1 I I #
coedge $-1 $187 $187 $-1 $275 reversed $115 $-1 #
edge $-1 $276 0 $276 6.2831853071796004 $116 $277 forward 7 unknown #
vertex $-1 $119 $278 #
ellipse-curve $-1 65.415660142960178 28.790307870068425 9.9253104041743452 0.83867057594974714 0 0.54463902268945019 1.0892780453789004 0 -1.6773411518994943 1 I I #
face $-1 $-1 $203 $18 $-1 $279 reversed single #
loop $-1 $-1 $280 $120 #
plane-surface $-1 0 35.694376318670855 0 0 -1 0 0 0 -1 forward_v I I I I #
coedge $-1 $209 $208 $281 $282 forward $121 $-1 #
coedge $-1 $123 $133 $283 $284 forward $75 $-1 #
coedge $-1 $202 $129 $123 $197 reversed $203 $-1 #
edge $-1 $285 -35.694376318670855 $134 35.694376318670855 $196 $286 forward 7 unknown #
coedge $-1 $125 $124 $208 $287 forward $49 $-1 #
coedge $-1 $280 $281 $124 $200 reversed $192 $-1 #
edge $-1 $205 -69.699392681661436 $288 69.699392681661436 $199 $289 forward 7 unknown #
edge $-1 $210 -69.699392681661436 $204 69.699392681661436 $128 $290 forward 7 unknown #
coedge $-1 $126 $196 $280 $291 reversed $203 $-1 #
loop $-1 $-1 $129 $191 #
vertex $-1 $127 $292 #
vertex $-1 $127 $293 #
straight-curve $-1 69.699392681661436 0 16.521680267109751 0 1 0 I I #
straight-curve $-1 69.699392681661436 -35.694376318670855 0 0 0 -1 I I #
coedge $-1 $194 $131 $198 $287 reversed $121 $-1 #
coedge $-1 $131 $194 $133 $212 reversed $121 $-1 #
vertex $-1 $287 $294 #
straight-curve $-1 -69.699392681661436 -35.694376318670855 0 0 0 -1 I I #
edge $-1 $135 -35.694376318670855 $295 35.694376318670855 $209 $296 forward 7 unknown #
point $-1 69.699392681661436 -35.694376318670855 -16.521680267109751 #
point $-1 -69.699392681661436 -35.694376318670855 -16.521680267109751 #
face $-1 $-1 $232 $19 $-1 $297 forward single #
loop $-1 $-1 $298 $137 #
plane-surface $-1 -41.42078293366329 -43.909131013326416 0 -1 0 0 0 0 1 forward_v I I I I #
coedge $-1 $299 $140 $222 $300 reversed $83 $-1 #
coedge $-1 $140 $299 $301 $302 reversed $83 $-1 #
coedge $-1 $148 $147 $140 $221 reversed $138 $-1 #
edge $-1 $303 -16.521680267109751 $304 16.521680267109751 $220 $305 forward 7 unknown #
coedge $-1 $142 $141 $218 $300 forward $53 $-1 #
coedge $-1 $228 $298 $141 $224 reversed $216 $-1 #
edge $-1 $226 -8.2147546946555607 $306 8.2147546946555607 $223 $307 forward 7 unknown #
edge $-1 $304 -8.2147546946555607 $149 8.2147546946555607 $147 $308 forward 7 unknown #
vertex $-1 $224 $309 #
straight-curve $-1 0 -35.694376318670855 -16.521680267109751 1 0 0 I I #
coedge $-1 $310 $223 $144 $229 reversed $216 $-1 #
edge $-1 $233 -16.521680267109751 $226 16.521680267109751 $228 $311 forward 7 unknown #
coedge $-1 $301 $145 $148 $235 forward $232 $-1 #
coedge $-1 $145 $301 $310 $312 forward $232 $-1 #
loop $-1 $-1 $145 $215 #
vertex $-1 $146 $313 #
straight-curve $-1 0 -35.694376318670855 16.521680267109751 -1 0 0 I I #
edge $-1 $150 -8.2147546946555607 $303 8.2147546946555607 $148 $314 forward 7 unknown #
point $-1 -49.061183980067113 -35.694376318670855 -16.521680267109751 #
point $-1 -49.061183980067113 -35.694376318670855 16.521680267109751 #
loop $-1 $-1 $243 $152 #
plane-surface $-1 0 35.694376318670855 0 0 -1 0 0 0 -1 forward_v I I I I #
coedge $-1 $155 $248 $315 $316 forward $91 $-1 #
coedge $-1 $157 $156 $155 $242 reversed $57 $-1 #
edge $-1 $317 -21.299222383636643 $249 -7.491085486431782 $155 $318 forward 7 unknown #
coedge $-1 $315 $319 $157 $244 forward $238 $-1 #
edge $-1 $246 1.8540238846487531 $317 17.58456231558246 $243 $320 forward 7 unknown #
coedge $-1 $163 $158 $319 $321 forward $153 $-1 #
vertex $-1 $321 $322 #
straight-curve $-1 -61.131927604258863 14.395153935034212 16.521680267109751 0 1 0 I I #
coedge $-1 $240 $160 $163 $252 reversed $91 $-1 #
vertex $-1 $161 $323 #
straight-curve $-1 -69.699392681661436 21.886239421465994 39.625479382807754 0 0 1 I I #
straight-curve $-1 -69.699392681661465 21.886239421465994 3.3289405412389073 -0.54463902268945019 0 -0.83867057594974714 I I #
edge $-1 $324 -35.694376318670855 $164 -21.886239421465994 $248 $325 forward 7 unknown #
point $-1 -69.699392681661436 21.886239421465994 16.521680267109751 #
point $-1 -61.131927604258863 21.886239421465994 16.521680267109751 #
edge $-1 $326 1 $326 0 $167 $-1 forward 7 unknown #
vertex $-1 $168 $327 #
ellipse-curve $-1 -59.672096356703378 28.790307870068425 6.1953965893741181 -0.83867057594974714 0 0.54463902268945019 1.0892780453789004 0 1.6773411518994943 1 I I #
point $-1 -64.326382097581231 28.790307870068425 11.602651556073805 #
plane-surface $-1 69.699392681661436 0 0 -1 0 0 0 0 1 forward_v I I I I #
coedge $-1 $179 $328 $264 $329 forward $172 $-1 #
coedge $-1 $262 $174 $328 $330 reversed $106 $-1 #
coedge $-1 $174 $261 $265 $331 forward $106 $-1 #
edge $-1 $266 -87.283954997243868 $332 -71.553416566310204 $174 $333 forward 7 unknown #
coedge $-1 $176 $175 $260 $329 reversed $66 $-1 #
coedge $-1 $182 $177 $262 $331 reversed $183 $-1 #
vertex $-1 $178 $334 #
straight-curve $-1 69.699392681661436 14.395153935034212 3.3289405412389854 0 1 0 I I #
coedge $-1 $328 $179 $182 $272 forward $172 $-1 #
vertex $-1 $180 $335 #
straight-curve $-1 55.343517032319028 21.886239421465994 16.521680267109758 1 0 0 I I #
straight-curve $-1 -6.2226255427151216 21.886239421465994 120.23860014859208 -0.54463902268945019 0 0.83867057594974714 I I #
edge $-1 $184 21.886239421465994 $336 35.694376318670855 $182 $337 forward 7 unknown #
point $-1 69.699392681661436 21.886239421465994 16.521680267109751 #
point $-1 69.699392681661436 21.886239421465994 3.3289405412389783 #
edge $-1 $338 1 $338 0 $187 $-1 forward 7 unknown #
vertex $-1 $188 $339 #
ellipse-curve $-1 59.672096356703378 28.790307870068425 6.1953965893741181 0.83867057594974714 0 0.54463902268945019 1.0892780453789004 0 -1.6773411518994943 1 I I #
point $-1 66.504938188339025 28.790307870068425 8.2479692522748174 #
plane-surface $-1 69.699392681661436 0 0 -1 0 0 0 0 1 forward_v I I I I #
coedge $-1 $283 $199 $202 $291 forward $192 $-1 #
coedge $-1 $199 $283 $194 $282 reversed $192 $-1 #
edge $-1 $288 -16.521680267109751 $295 16.521680267109751 $281 $340 forward 7 unknown #
coedge $-1 $281 $280 $195 $284 reversed $192 $-1 #
edge $-1 $295 -69.699392681661436 $285 69.699392681661436 $283 $341 forward 7 unknown #
vertex $-1 $197 $342 #
straight-curve $-1 69.699392681661436 0 -16.521680267109751 0 -1 0 I I #
edge $-1 $288 -35.694376318670855 $210 35.694376318670855 $208 $343 forward 7 unknown #
vertex $-1 $200 $344 #
straight-curve $-1 0 35.694376318670855 16.521680267109751 -1 0 0 I I #
straight-curve $-1 0 -35.694376318670855 16.521680267109751 1 0 0 I I #
edge $-1 $205 -16.521680267109751 $285 16.521680267109751 $202 $345 forward 7 unknown #
point $-1 69.699392681661436 -35.694376318670855 16.521680267109751 #
point $-1 69.699392681661436 35.694376318670855 16.521680267109751 #
point $-1 -69.699392681661436 -35.694376318670855 16.521680267109751 #
vertex $-1 $284 $346 #
straight-curve $-1 -69.699392681661436 0 -16.521680267109751 0 1 0 I I #
plane-surface $-1 0 0 16.521680267109751 0 0 1 1 0 0 forward_v I I I I #
coedge $-1 $223 $310 $299 $347 forward $216 $-1 #
coedge $-1 $219 $218 $298 $347 reversed $83 $-1 #
edge $-1 $306 -3.8202005232019118 $304 3.8202005232019118 $218 $348 forward 7 unknown #
coedge $-1 $231 $230 $219 $302 forward $232 $-1 #
edge $-1 $303 -3.8202005232019118 $349 3.8202005232019118 $219 $350 forward 7 unknown #
vertex $-1 $235 $351 #
vertex $-1 $225 $352 #
straight-curve $-1 -49.061183980067113 -52.123885707981977 0 0 0 -1 I I #
vertex $-1 $347 $353 #
straight-curve $-1 -41.42078293366329 -43.909131013326416 -16.521680267109751 0 -1 0 I I #
straight-curve $-1 -49.061183980067113 -43.909131013326416 -16.521680267109751 0 1 0 I I #
point $-1 -41.42078293366329 -35.694376318670855 -16.521680267109751 #
coedge $-1 $298 $228 $231 $312 reversed $216 $-1 #
straight-curve $-1 -41.42078293366329 -35.694376318670855 0 0 0 -1 I I #
edge $-1 $349 -8.2147546946555607 $233 8.2147546946555607 $310 $354 forward 7 unknown #
point $-1 -41.42078293366329 -35.694376318670855 16.521680267109751 #
straight-curve $-1 -49.061183980067113 -43.909131013326416 16.521680267109751 0 -1 0 I I #
coedge $-1 $319 $243 $240 $316 reversed $238 $-1 #
edge $-1 $324 -16.521680267109751 $317 -3.3289405412389512 $315 $355 forward 7 unknown #
vertex $-1 $244 $356 #
straight-curve $-1 -69.699392681661436 14.395153935034212 3.3289405412389428 0 -1 0 I I #
coedge $-1 $243 $315 $245 $321 reversed $238 $-1 #
straight-curve $-1 -60.12215384768087 35.694376318670855 18.07659554627271 -0.54463902268945019 0 -0.83867057594974714 I I #
edge $-1 $246 61.131927604258863 $324 69.699392681661436 $319 $357 forward 7 unknown #
point $-1 -61.131927604258863 35.694376318670855 16.521680267109751 #
point $-1 -69.699392681661436 21.886239421465994 3.3289405412389512 #
vertex $-1 $321 $358 #
straight-curve $-1 -69.699392681661436 0 16.521680267109751 0 -1 0 I I #
vertex $-1 $255 $359 #
point $-1 -58.582818311324473 28.790307870068425 7.8727377412736121 #
coedge $-1 $260 $268 $261 $330 forward $172 $-1 #
edge $-1 $332 -21.299222383636643 $269 -7.491085486431782 $260 $360 forward 7 unknown #
edge $-1 $336 -69.699392681661436 $332 -61.131927604258891 $261 $361 forward 7 unknown #
edge $-1 $336 -16.521680267109751 $266 -3.3289405412389845 $265 $362 forward 7 unknown #
vertex $-1 $329 $363 #
straight-curve $-1 22.161144735492588 35.694376318670855 76.531425349949302 -0.54463902268945019 0 0.83867057594974714 I I #
point $-1 69.699392681661436 35.694376318670855 3.3289405412389845 #
point $-1 61.131927604258891 21.886239421465994 16.521680267109744 #
vertex $-1 $272 $364 #
straight-curve $-1 69.699392681661436 0 16.521680267109751 0 1 0 I I #
vertex $-1 $275 $365 #
point $-1 60.761374402082275 28.790307870068425 4.518055437474624 #
straight-curve $-1 -69.699392681661436 35.694376318670855 0 0 0 -1 I I #
straight-curve $-1 0 35.694376318670855 -16.521680267109751 1 0 0 I I #
point $-1 69.699392681661436 35.694376318670855 -16.521680267109751 #
straight-curve $-1 -69.699392681661436 0 16.521680267109751 0 -1 0 I I #
point $-1 -69.699392681661436 35.694376318670855 16.521680267109751 #
straight-curve $-1 69.699392681661436 35.694376318670855 0 0 0 -1 I I #
point $-1 -69.699392681661436 35.694376318670855 -16.521680267109751 #
edge $-1 $349 -16.521680267109751 $306 16.521680267109751 $298 $366 forward 7 unknown #
straight-curve $-1 -45.240983456865202 -52.123885707981977 -16.521680267109751 -1 0 0 I I #
vertex $-1 $312 $367 #
straight-curve $-1 -45.240983456865202 -52.123885707981977 16.521680267109751 1 0 0 I I #
point $-1 -49.061183980067113 -52.123885707981977 16.521680267109751 #
point $-1 -49.061183980067113 -52.123885707981977 -16.521680267109751 #
point $-1 -41.42078293366329 -52.123885707981977 -16.521680267109751 #
straight-curve $-1 -41.42078293366329 -43.909131013326416 16.521680267109751 0 1 0 I I #
straight-curve $-1 -69.699392681661436 35.694376318670855 0 0 0 -1 I I #
point $-1 -69.699392681661436 35.694376318670855 3.3289405412389512 #
straight-curve $-1 0 35.694376318670855 16.521680267109751 -1 0 0 I I #
point $-1 -69.699392681661436 35.694376318670855 16.521680267109751 #
point $-1 -57.99475520480388 28.790307870068425 5.1061185439952173 #
straight-curve $-1 61.131927604258891 14.395153935034212 16.521680267109744 0 -1 0 I I #
straight-curve $-1 0 35.694376318670855 16.521680267109751 -1 0 0 I I #
straight-curve $-1 69.699392681661436 35.694376318670855 0 0 0 -1 I I #
point $-1 61.131927604258891 35.694376318670855 16.521680267109744 #
point $-1 69.699392681661436 35.694376318670855 16.521680267109751 #
point $-1 57.99475520480388 28.790307870068425 5.1061185439952173 #
straight-curve $-1 -41.42078293366329 -52.123885707981977 0 0 0 -1 I I #
point $-1 -41.42078293366329 -52.123885707981977 16.521680267109751 #
End-of-ACIS-data 