500 0 9 0           
7 Unknown 11 ACIS 5.0 NT 24 Fri Mar 26 17:51:27 1999 
-1 9.9999999999999995e-007 1e-010 
body $-1 $9 $-1 $10 #
body $-1 $11 $-1 $12 #
body $-1 $13 $-1 $14 #
body $-1 $15 $-1 $16 #
body $-1 $17 $-1 $18 #
body $-1 $19 $-1 $20 #
body $-1 $21 $-1 $22 #
body $-1 $23 $-1 $24 #
body $-1 $25 $-1 $26 #
lump $-1 $-1 $27 $0 #
transform $-1 1 0 0 0 1 0 0 0 1 63.623767815179903 28.589822677922619 8.8095603086087007 1 rotate no_reflect no_shear #
lump $-1 $-1 $28 $1 #
transform $-1 1 0 0 0 1 0 0 0 1 63.623767815179903 28.589822677922619 8.8095603086087007 1 rotate no_reflect no_shear #
lump $-1 $-1 $29 $2 #
transform $-1 1 0 0 0 1 0 0 0 1 63.623767815179903 28.589822677922619 8.8095603086087007 1 rotate no_reflect no_shear #
lump $-1 $-1 $30 $3 #
transform $-1 1 0 0 0 1 0 0 0 1 63.623767815179903 28.589822677922619 8.8095603086087007 1 rotate no_reflect no_shear #
lump $-1 $-1 $31 $4 #
transform $-1 1 0 0 0 1 0 0 0 1 63.623767815179903 28.589822677922619 8.8095603086087007 1 rotate no_reflect no_shear #
lump $-1 $-1 $32 $5 #
transform $-1 1 0 0 0 1 0 0 0 1 63.623767815179903 28.589822677922619 8.8095603086087007 1 rotate no_reflect no_shear #
lump $-1 $-1 $33 $6 #
transform $-1 1 0 0 0 1 0 0 0 1 63.623767815179903 28.589822677922619 8.8095603086087007 1 rotate no_reflect no_shear #
lump $-1 $-1 $34 $7 #
transform $-1 1 0 0 0 1 0 0 0 1 63.623767815179903 28.589822677922619 8.8095603086087007 1 rotate no_reflect no_shear #
lump $-1 $-1 $35 $8 #
transform $-1 1 0 0 0 1 0 0 0 1 63.623767815179903 28.589822677922619 8.8095603086087007 1 rotate no_reflect no_shear #
shell $-1 $-1 $-1 $36 $-1 $9 #
shell $-1 $-1 $-1 $37 $-1 $11 #
shell $-1 $-1 $-1 $38 $-1 $13 #
shell $-1 $-1 $-1 $39 $-1 $15 #
shell $-1 $-1 $-1 $40 $-1 $17 #
shell $-1 $-1 $-1 $41 $-1 $19 #
shell $-1 $-1 $-1 $42 $-1 $21 #
shell $-1 $-1 $-1 $43 $-1 $23 #
shell $-1 $-1 $-1 $44 $-1 $25 #
face $-1 $45 $46 $27 $-1 $47 forward single #
face $-1 $48 $49 $28 $-1 $50 forward single #
face $-1 $51 $52 $29 $-1 $53 reversed single #
face $-1 $54 $55 $30 $-1 $56 forward single #
face $-1 $57 $58 $31 $-1 $59 forward single #
face $-1 $60 $61 $32 $-1 $62 reversed single #
face $-1 $63 $64 $33 $-1 $65 forward single #
face $-1 $66 $67 $34 $-1 $68 reversed single #
face $-1 $69 $70 $35 $-1 $71 forward single #
face $-1 $72 $73 $27 $-1 $74 reversed single #
loop $-1 $-1 $75 $36 #
plane-surface $-1 0 0 8.8095603086087007 0 0 1 1 0 0 forward_v I I I I #
face $-1 $76 $77 $28 $-1 $78 reversed single #
loop $-1 $-1 $79 $37 #
plane-surface $-1 -58.210570329111079 0 1.9621563882315107 0 0 1 1 0 0 forward_v I I I I #
face $-1 $80 $81 $29 $-1 $82 reversed single #
loop $-1 $-1 $83 $38 #
plane-surface $-1 -37.016904928782992 -106.93122917810439 106.0529089318223 1 0 0 0 0.61566148304635926 -0.78801074757464917 forward_v I I I I #
face $-1 $84 $85 $30 $-1 $86 forward single #
loop $-1 $87 $88 $39 #
cone-surface $-1 -30.312800581456507 -25.576595135186256 5.9194600037149199 0 0.61566148304635926 -0.78801074757464917 1 0 0 1 I I 0 1 1 forward I I I I #
face $-1 $89 $90 $31 $-1 $91 forward single #
loop $-1 $92 $93 $40 #
cone-surface $-1 -20.256644060466769 -25.576595135186256 5.9194600037149199 0 0.61566148304635926 -0.78801074757464917 1 0 0 1 I I 0 1 1 forward I I I I #
face $-1 $94 $95 $32 $-1 $96 reversed single #
loop $-1 $-1 $97 $41 #
plane-surface $-1 -20.736395832995843 84.892521147688313 128.24540433571207 1 0 0 0 -0.74314483375859142 -0.66913059716165679 forward_v I I I I #
face $-1 $98 $99 $33 $-1 $100 forward single #
loop $-1 $101 $102 $42 #
cone-surface $-1 -9.4190259383263637 23.138924361963266 3.1253299844732463 0 -0.74314483375859142 -0.66913059716165679 1.5 0 0 1 I I 0 1 1.5 forward I I I I #
face $-1 $103 $104 $34 $-1 $105 reversed single #
loop $-1 $-1 $106 $43 #
plane-surface $-1 37.474174496115239 84.892521147688313 128.24540433571207 1 0 0 0 -0.74314483375859142 -0.66913059716165679 forward_v I I I I #
face $-1 $107 $108 $35 $-1 $109 forward single #
loop $-1 $110 $111 $44 #
cone-surface $-1 48.791544390784722 23.138924361963266 3.1253299844732463 0 -0.74314483375859142 -0.66913059716165679 1.5 0 0 1 I I 0 1 1.5 forward I I I I #
face $-1 $112 $113 $27 $-1 $114 reversed single #
loop $-1 $-1 $115 $45 #
plane-surface $-1 0 0 -8.8095603086087007 0 0 1 1 0 0 forward_v I I I I #
coedge $-1 $116 $117 $118 $119 forward $46 $-1 #
face $-1 $120 $121 $28 $-1 $122 reversed single #
loop $-1 $-1 $123 $48 #
plane-surface $-1 -58.210570329111079 0 -2.7287657698098982 0 0 1 1 0 0 forward_v I I I I #
coedge $-1 $124 $125 $126 $127 forward $49 $-1 #
face $-1 $128 $129 $29 $-1 $130 reversed single #
loop $-1 $-1 $131 $51 #
plane-surface $-1 -25.284722320961635 -28.589822677922626 5.7804832527106527 0 -0.61566148304635926 0.78801074757464917 1 0 0 forward_v I I I I #
coedge $-1 $132 $133 $134 $135 reversed $52 $-1 #
face $-1 $-1 $136 $30 $-1 $137 forward single #
loop $-1 $138 $139 $54 #
cone-surface $-1 -30.312800581456507 -24.194057727260073 4.1498928529828465 0 0.61566148304635926 -0.78801074757464917 0.5 0 0 1 I I -0.70710678118654746 0.70710678118654746 0.5 forward I I I I #
loop $-1 $-1 $140 $39 #
coedge $-1 $88 $88 $141 $142 reversed $55 $-1 #
face $-1 $-1 $143 $31 $-1 $144 forward single #
loop $-1 $145 $146 $57 #
cone-surface $-1 -20.256644060466769 -24.194057727260073 4.1498928529828465 0 0.61566148304635926 -0.78801074757464917 0.5 0 0 1 I I -0.70710678118654746 0.70710678118654746 0.5 forward I I I I #
loop $-1 $-1 $147 $40 #
coedge $-1 $93 $93 $148 $149 reversed $58 $-1 #
face $-1 $150 $151 $32 $-1 $152 reversed single #
loop $-1 $-1 $153 $60 #
plane-surface $-1 -9.4190259383263566 -9.6708275645258652 43.100184832020204 0 0.74314483375859142 0.66913059716165679 1 0 0 forward_v I I I I #
coedge $-1 $154 $155 $156 $157 reversed $61 $-1 #
face $-1 $-1 $158 $33 $-1 $159 forward single #
loop $-1 $160 $161 $63 #
cone-surface $-1 -9.4190259383263637 20.82328442494066 1.0403184719332064 0 -0.74314483375859142 -0.66913059716165679 0.75 0 0 1 I I -0.70710678118654757 0.70710678118654757 0.75 forward I I I I #
loop $-1 $-1 $162 $42 #
coedge $-1 $102 $102 $163 $164 reversed $64 $-1 #
face $-1 $165 $166 $34 $-1 $167 reversed single #
loop $-1 $-1 $168 $66 #
plane-surface $-1 48.791544390784722 -9.6708275645258652 43.100184832020204 0 0.74314483375859142 0.66913059716165679 1 0 0 forward_v I I I I #
coedge $-1 $169 $170 $171 $172 reversed $67 $-1 #
face $-1 $-1 $173 $35 $-1 $174 forward single #
loop $-1 $175 $176 $69 #
cone-surface $-1 48.791544390784722 20.82328442494066 1.0403184719332064 0 -0.74314483375859142 -0.66913059716165679 0.75 0 0 1 I I -0.70710678118654757 0.70710678118654757 0.75 forward I I I I #
loop $-1 $-1 $177 $44 #
coedge $-1 $111 $111 $178 $179 reversed $70 $-1 #
face $-1 $180 $181 $27 $-1 $182 reversed single #
loop $-1 $-1 $183 $72 #
plane-surface $-1 0 -28.589822677922619 0 0 1 0 0 0 1 forward_v I I I I #
coedge $-1 $184 $185 $186 $187 forward $73 $-1 #
coedge $-1 $188 $75 $189 $190 forward $46 $-1 #
coedge $-1 $75 $188 $191 $192 forward $46 $-1 #
coedge $-1 $193 $194 $75 $119 reversed $195 $-1 #
edge $-1 $196 -28.589822677922619 $197 28.589822677922619 $118 $198 forward 7 unknown #
face $-1 $199 $200 $28 $-1 $201 reversed single #
loop $-1 $-1 $202 $76 #
plane-surface $-1 -52.797372843042254 0 -0.38330469078919371 -1 0 0 0 0 1 forward_v I I I I #
coedge $-1 $203 $204 $205 $206 forward $77 $-1 #
coedge $-1 $207 $79 $208 $209 reversed $49 $-1 #
coedge $-1 $79 $207 $210 $211 reversed $49 $-1 #
coedge $-1 $202 $212 $79 $127 reversed $121 $-1 #
edge $-1 $213 -28.589822677922619 $214 28.589822677922619 $126 $215 forward 7 unknown #
face $-1 $216 $217 $29 $-1 $218 forward single #
loop $-1 $-1 $219 $80 #
plane-surface $-1 -13.552539713140275 -106.93122917810439 106.0529089318223 -1 0 0 0 -0.61566148304635926 0.78801074757464917 forward_v I I I I #
coedge $-1 $220 $221 $222 $223 reversed $81 $-1 #
coedge $-1 $133 $83 $224 $225 reversed $52 $-1 #
coedge $-1 $83 $132 $220 $226 reversed $52 $-1 #
coedge $-1 $222 $227 $83 $135 forward $228 $-1 #
edge $-1 $229 44.216894157302448 $230 47.245971213200491 $134 $231 forward 7 unknown #
loop $-1 $-1 $141 $84 #
plane-surface $-1 -25.284722320961635 -28.589822677922626 5.7804832527106527 0 -0.61566148304635926 0.78801074757464917 1 0 0 forward_v I I I I #
loop $-1 $-1 $232 $54 #
coedge $-1 $139 $139 $140 $233 reversed $85 $-1 #
coedge $-1 $140 $140 $139 $233 forward $87 $-1 #
coedge $-1 $141 $141 $88 $142 forward $136 $-1 #
edge $-1 $234 7.4328828269788301e-016 $234 6.2831853071796013 $141 $235 forward 7 unknown #
loop $-1 $-1 $148 $89 #
plane-surface $-1 -25.284722320961635 -28.589822677922626 5.7804832527106527 0 -0.61566148304635926 0.78801074757464917 1 0 0 forward_v I I I I #
loop $-1 $-1 $236 $57 #
coedge $-1 $146 $146 $147 $237 reversed $90 $-1 #
coedge $-1 $147 $147 $146 $237 forward $92 $-1 #
coedge $-1 $148 $148 $93 $149 forward $143 $-1 #
edge $-1 $238 7.4328828269788301e-016 $238 6.2831853071796013 $148 $239 forward 7 unknown #
face $-1 $240 $241 $32 $-1 $242 reversed single #
loop $-1 $-1 $243 $94 #
plane-surface $-1 1.8983439563431297 84.892521147688313 128.24540433571207 -1 0 0 0 0.74314483375859142 0.66913059716165679 forward_v I I I I #
coedge $-1 $244 $245 $246 $247 reversed $95 $-1 #
coedge $-1 $155 $97 $248 $249 reversed $61 $-1 #
coedge $-1 $97 $154 $244 $250 reversed $61 $-1 #
coedge $-1 $246 $251 $97 $157 forward $252 $-1 #
edge $-1 $253 13.856437895921538 $254 21.241671904432934 $156 $255 forward 7 unknown #
loop $-1 $-1 $163 $98 #
plane-surface $-1 -9.4190259383263566 -9.6708275645258652 43.100184832020204 0 0.74314483375859142 0.66913059716165679 1 0 0 forward_v I I I I #
loop $-1 $-1 $256 $63 #
coedge $-1 $161 $161 $162 $257 reversed $99 $-1 #
coedge $-1 $162 $162 $161 $257 forward $101 $-1 #
coedge $-1 $163 $163 $102 $164 forward $158 $-1 #
edge $-1 $258 -1.320090408112036e-015 $258 6.2831853071795996 $163 $259 forward 7 unknown #
face $-1 $260 $261 $34 $-1 $262 forward single #
loop $-1 $-1 $263 $103 #
plane-surface $-1 60.108914285454205 84.892521147688313 128.24540433571207 -1 0 0 0 0.74314483375859142 0.66913059716165679 forward_v I I I I #
coedge $-1 $264 $265 $266 $267 reversed $104 $-1 #
coedge $-1 $170 $106 $268 $269 reversed $67 $-1 #
coedge $-1 $106 $169 $264 $270 reversed $67 $-1 #
coedge $-1 $266 $271 $106 $172 forward $261 $-1 #
edge $-1 $272 13.856437895921538 $273 21.241671904432934 $171 $274 forward 7 unknown #
loop $-1 $-1 $178 $107 #
plane-surface $-1 48.791544390784722 -9.6708275645258652 43.100184832020204 0 0.74314483375859142 0.66913059716165679 1 0 0 forward_v I I I I #
loop $-1 $-1 $275 $69 #
coedge $-1 $176 $176 $177 $276 reversed $108 $-1 #
coedge $-1 $177 $177 $176 $276 forward $110 $-1 #
coedge $-1 $178 $178 $111 $179 forward $173 $-1 #
edge $-1 $277 -1.320090408112036e-015 $277 6.2831853071795996 $178 $278 forward 7 unknown #
face $-1 $279 $280 $27 $-1 $281 reversed single #
loop $-1 $-1 $282 $112 #
plane-surface $-1 -63.623767815179903 0 0 1 0 0 0 0 -1 forward_v I I I I #
coedge $-1 $283 $191 $284 $285 forward $113 $-1 #
coedge $-1 $286 $115 $283 $287 forward $73 $-1 #
coedge $-1 $115 $286 $288 $289 forward $73 $-1 #
coedge $-1 $194 $193 $115 $187 reversed $195 $-1 #
edge $-1 $290 -28.589822677922619 $291 28.589822677922619 $186 $292 forward 7 unknown #
coedge $-1 $117 $116 $293 $294 forward $46 $-1 #
coedge $-1 $295 $296 $116 $190 reversed $280 $-1 #
edge $-1 $197 -63.623767815179903 $297 63.623767815179903 $189 $298 forward 7 unknown #
coedge $-1 $183 $299 $117 $192 reversed $113 $-1 #
edge $-1 $300 -63.623767815179903 $196 63.623767815179903 $191 $301 forward 7 unknown #
coedge $-1 $186 $118 $299 $302 forward $195 $-1 #
coedge $-1 $118 $186 $295 $303 reversed $195 $-1 #
loop $-1 $-1 $193 $279 #
vertex $-1 $119 $304 #
vertex $-1 $119 $305 #
straight-curve $-1 63.623767815179903 0 8.8095603086087007 0 1 0 I I #
face $-1 $306 $307 $28 $-1 $308 reversed single #
loop $-1 $-1 $309 $120 #
plane-surface $-1 0 -28.589822677922619 0 0 1 0 0 0 1 forward_v I I I I #
coedge $-1 $205 $126 $310 $311 reversed $121 $-1 #
coedge $-1 $312 $123 $309 $313 reversed $77 $-1 #
coedge $-1 $123 $312 $314 $315 reversed $77 $-1 #
coedge $-1 $212 $202 $123 $206 reversed $121 $-1 #
edge $-1 $316 -28.589822677922619 $317 28.589822677922619 $205 $318 forward 7 unknown #
coedge $-1 $125 $124 $319 $320 reversed $49 $-1 #
coedge $-1 $321 $322 $124 $209 forward $323 $-1 #
edge $-1 $324 -34.518482650624364 $214 -23.692087678486715 $208 $325 forward 7 unknown #
coedge $-1 $326 $310 $125 $211 forward $200 $-1 #
edge $-1 $213 23.692087678486715 $327 34.518482650624364 $210 $328 forward 7 unknown #
coedge $-1 $126 $205 $321 $329 reversed $121 $-1 #
vertex $-1 $211 $330 #
vertex $-1 $209 $331 #
straight-curve $-1 -52.797372843042254 0 1.9621563882315107 0 1 0 I I #
face $-1 $-1 $228 $29 $-1 $332 reversed single #
loop $-1 $-1 $333 $128 #
plane-surface $-1 0 0 8.8095603086087007 0 0 1 1 0 0 forward_v I I I I #
coedge $-1 $334 $335 $336 $337 reversed $129 $-1 #
coedge $-1 $338 $131 $133 $226 forward $81 $-1 #
coedge $-1 $131 $338 $334 $339 forward $81 $-1 #
coedge $-1 $336 $134 $131 $223 forward $228 $-1 #
edge $-1 $230 -24.374543768302175 $340 -0.91017855265945791 $222 $341 forward 7 unknown #
coedge $-1 $342 $343 $132 $225 forward $217 $-1 #
edge $-1 $344 -28.75283366379627 $229 -24.875791911129575 $224 $345 forward 7 unknown #
edge $-1 $230 8.8800565823946346e-015 $344 4.9200366423929083 $133 $346 forward 7 unknown #
coedge $-1 $134 $336 $342 $347 reversed $228 $-1 #
loop $-1 $-1 $336 $216 #
vertex $-1 $347 $348 #
vertex $-1 $135 $349 #
straight-curve $-1 -37.016904928782992 -28.589822677922619 53.026454465911151 0 0 -1 I I #
coedge $-1 $232 $232 $-1 $350 reversed $138 $-1 #
edge $-1 $351 0 $351 6.2831853071796004 $139 $352 forward 7 unknown #
vertex $-1 $142 $353 #
ellipse-curve $-1 -30.312800581456507 -26.65130180158927 7.2950217806596811 0 -0.61566148304635926 0.78801074757464917 1 0 0 1 I I #
coedge $-1 $236 $236 $-1 $354 reversed $145 $-1 #
edge $-1 $355 0 $355 6.2831853071796004 $146 $356 forward 7 unknown #
vertex $-1 $149 $357 #
ellipse-curve $-1 -20.256644060466769 -26.65130180158927 7.2950217806596811 0 -0.61566148304635926 0.78801074757464917 1 0 0 1 I I #
face $-1 $-1 $252 $32 $-1 $358 forward single #
loop $-1 $-1 $359 $150 #
plane-surface $-1 0 28.589822677922619 0 0 -1 0 0 0 -1 forward_v I I I I #
coedge $-1 $360 $361 $362 $363 reversed $151 $-1 #
coedge $-1 $364 $153 $155 $250 forward $95 $-1 #
coedge $-1 $153 $364 $360 $365 forward $95 $-1 #
coedge $-1 $362 $156 $153 $247 forward $252 $-1 #
edge $-1 $254 -16.026882863832665 $366 6.607856925506308 $246 $367 forward 7 unknown #
coedge $-1 $368 $369 $154 $249 forward $241 $-1 #
edge $-1 $370 -63.515275378180661 $253 -55.313141859247331 $248 $371 forward 7 unknown #
edge $-1 $254 46.142586163157958 $370 57.179645355845238 $155 $372 forward 7 unknown #
coedge $-1 $156 $362 $368 $373 forward $252 $-1 #
loop $-1 $-1 $362 $240 #
vertex $-1 $249 $374 #
vertex $-1 $157 $375 #
straight-curve $-1 -20.736395832995843 42.446260573844157 8.8095603086087024 0 -1 0 I I #
coedge $-1 $256 $256 $-1 $376 reversed $160 $-1 #
edge $-1 $377 0 $377 6.2831853071796004 $161 $378 forward 7 unknown #
vertex $-1 $164 $379 #
ellipse-curve $-1 -9.4190259383263637 24.897205673666924 4.708493549142041 0 0.74314483375859142 0.66913059716165679 1.5 0 0 1 I I #
face $-1 $-1 $380 $34 $-1 $381 reversed single #
loop $-1 $-1 $171 $165 #
plane-surface $-1 0 0 8.8095603086087007 0 0 1 1 0 0 forward_v I I I I #
coedge $-1 $382 $383 $384 $385 reversed $166 $-1 #
coedge $-1 $386 $168 $170 $270 forward $104 $-1 #
coedge $-1 $168 $386 $382 $387 forward $104 $-1 #
coedge $-1 $384 $171 $168 $267 forward $261 $-1 #
edge $-1 $273 13.078402300722878 $388 35.713142090061844 $266 $389 forward 7 unknown #
coedge $-1 $390 $391 $169 $269 forward $380 $-1 #
edge $-1 $392 -63.515275378180661 $272 -55.313141859247331 $268 $393 forward 7 unknown #
edge $-1 $273 46.142586163157958 $392 57.179645355845238 $170 $394 forward 7 unknown #
coedge $-1 $171 $384 $390 $395 forward $261 $-1 #
vertex $-1 $172 $396 #
vertex $-1 $172 $397 #
straight-curve $-1 37.474174496115239 42.446260573844157 8.8095603086087024 0 -1 0 I I #
coedge $-1 $275 $275 $-1 $398 reversed $175 $-1 #
edge $-1 $399 0 $399 6.2831853071796004 $176 $400 forward 7 unknown #
vertex $-1 $179 $401 #
ellipse-curve $-1 48.791544390784722 24.897205673666924 4.708493549142041 0 0.74314483375859142 0.66913059716165679 1.5 0 0 1 I I #
face $-1 $-1 $195 $27 $-1 $402 reversed single #
loop $-1 $-1 $295 $180 #
plane-surface $-1 0 28.589822677922619 0 0 -1 0 0 0 -1 forward_v I I I I #
coedge $-1 $403 $293 $296 $404 forward $181 $-1 #
coedge $-1 $299 $183 $184 $287 reversed $113 $-1 #
coedge $-1 $293 $403 $183 $285 reversed $181 $-1 #
edge $-1 $300 -8.8095603086087007 $405 8.8095603086087007 $284 $406 forward 7 unknown #
coedge $-1 $185 $184 $403 $407 forward $73 $-1 #
edge $-1 $291 -63.623767815179903 $405 63.623767815179903 $283 $408 forward 7 unknown #
coedge $-1 $296 $295 $185 $289 reversed $280 $-1 #
edge $-1 $409 -63.623767815179903 $290 63.623767815179903 $288 $410 forward 7 unknown #
vertex $-1 $187 $411 #
vertex $-1 $302 $412 #
straight-curve $-1 63.623767815179903 0 -8.8095603086087007 0 -1 0 I I #
coedge $-1 $282 $284 $188 $294 reversed $181 $-1 #
edge $-1 $297 -28.589822677922619 $300 28.589822677922619 $293 $413 forward 7 unknown #
coedge $-1 $288 $189 $194 $303 forward $280 $-1 #
coedge $-1 $189 $288 $282 $404 reversed $280 $-1 #
vertex $-1 $190 $414 #
straight-curve $-1 0 28.589822677922619 8.8095603086087007 -1 0 0 I I #
coedge $-1 $191 $283 $193 $302 reversed $113 $-1 #
vertex $-1 $294 $415 #
straight-curve $-1 0 -28.589822677922619 8.8095603086087007 1 0 0 I I #
edge $-1 $196 -8.8095603086087007 $291 8.8095603086087007 $193 $416 forward 7 unknown #
edge $-1 $197 -8.8095603086087007 $290 8.8095603086087007 $194 $417 forward 7 unknown #
point $-1 63.623767815179903 -28.589822677922619 8.8095603086087007 #
point $-1 63.623767815179903 28.589822677922619 8.8095603086087007 #
face $-1 $-1 $323 $28 $-1 $418 reversed single #
loop $-1 $-1 $419 $199 #
plane-surface $-1 -63.623767815179903 0 0 1 0 0 0 0 -1 forward_v I I I I #
coedge $-1 $310 $326 $203 $313 forward $200 $-1 #
coedge $-1 $210 $309 $202 $311 forward $200 $-1 #
edge $-1 $317 -2.5371134244153013 $213 2.1538087336261076 $310 $420 forward 7 unknown #
coedge $-1 $204 $203 $419 $421 reversed $77 $-1 #
edge $-1 $422 -34.518482650624364 $317 -23.692087678486715 $309 $423 forward 7 unknown #
coedge $-1 $322 $321 $204 $315 forward $323 $-1 #
edge $-1 $316 23.692087678486715 $424 34.518482650624364 $314 $425 forward 7 unknown #
vertex $-1 $315 $426 #
vertex $-1 $313 $427 #
straight-curve $-1 -52.797372843042254 0 -2.7287657698098982 0 -1 0 I I #
coedge $-1 $428 $429 $207 $320 forward $307 $-1 #
edge $-1 $327 -28.589822677922619 $324 28.589822677922619 $319 $430 forward 7 unknown #
coedge $-1 $314 $208 $212 $329 forward $323 $-1 #
coedge $-1 $208 $314 $428 $431 reversed $323 $-1 #
loop $-1 $-1 $314 $306 #
vertex $-1 $431 $432 #
straight-curve $-1 -29.105285164555539 28.589822677922619 1.9621563882315107 1 0 0 I I #
coedge $-1 $309 $210 $429 $433 forward $200 $-1 #
vertex $-1 $433 $434 #
straight-curve $-1 -29.105285164555539 -28.589822677922619 1.9621563882315107 -1 0 0 I I #
edge $-1 $214 -2.1538087336261076 $316 2.5371134244153013 $321 $435 forward 7 unknown #
point $-1 -52.797372843042254 -28.589822677922619 1.9621563882315107 #
point $-1 -52.797372843042254 28.589822677922619 1.9621563882315107 #
plane-surface $-1 0 -28.589822677922619 0 0 1 0 0 0 1 forward_v I I I I #
coedge $-1 $343 $342 $335 $436 forward $217 $-1 #
coedge $-1 $335 $219 $221 $339 reversed $129 $-1 #
coedge $-1 $219 $334 $333 $436 reversed $129 $-1 #
coedge $-1 $227 $222 $219 $337 forward $228 $-1 #
edge $-1 $340 -47.245971213200491 $437 -44.216894157302448 $336 $438 forward 7 unknown #
coedge $-1 $221 $220 $343 $439 reversed $81 $-1 #
edge $-1 $440 -4.9200366423929083 $340 -8.8800565823946346e-015 $334 $441 forward 7 unknown #
vertex $-1 $223 $442 #
straight-curve $-1 -12.642361160480817 -28.589822677922619 5.780483252710658 1 0 0 I I #
coedge $-1 $333 $224 $227 $347 forward $217 $-1 #
coedge $-1 $224 $333 $338 $439 forward $217 $-1 #
vertex $-1 $225 $443 #
straight-curve $-1 -37.016904928782992 -53.465614589052194 8.8095603086087024 0 -1 0 I I #
straight-curve $-1 -37.016904928782992 -28.589822677922626 5.7804832527106527 0 0.78801074757464917 0.61566148304635926 I I #
edge $-1 $229 -37.016904928782992 $437 -13.552539713140275 $227 $444 forward 7 unknown #
point $-1 -37.016904928782992 -28.589822677922619 8.8095603086087007 #
point $-1 -37.016904928782992 -28.589822677922619 5.780483252710658 #
edge $-1 $445 1 $445 0 $232 $-1 forward 7 unknown #
vertex $-1 $233 $446 #
ellipse-curve $-1 -30.312800581456507 -24.501888468783253 4.5438982267701711 0 -0.61566148304635926 0.78801074757464917 1 0 0 1 I I #
point $-1 -29.312800581456507 -26.651301801589259 7.2950217806596687 #
edge $-1 $447 1 $447 0 $236 $-1 forward 7 unknown #
vertex $-1 $237 $448 #
ellipse-curve $-1 -20.256644060466769 -24.501888468783253 4.5438982267701711 0 -0.61566148304635926 0.78801074757464917 1 0 0 1 I I #
point $-1 -19.256644060466769 -26.651301801589259 7.2950217806596687 #
plane-surface $-1 0 0 8.8095603086087007 0 0 1 1 0 0 forward_v I I I I #
coedge $-1 $369 $368 $361 $449 forward $241 $-1 #
coedge $-1 $361 $243 $245 $365 reversed $151 $-1 #
coedge $-1 $243 $360 $359 $449 reversed $151 $-1 #
coedge $-1 $251 $246 $243 $363 forward $252 $-1 #
edge $-1 $366 -21.241671904432934 $450 -13.856437895921538 $362 $451 forward 7 unknown #
coedge $-1 $245 $244 $369 $452 reversed $95 $-1 #
edge $-1 $453 -57.179645355845238 $366 -46.142586163157958 $360 $454 forward 7 unknown #
vertex $-1 $247 $455 #
straight-curve $-1 -4.7095129691631783 21.204588669411216 8.809560308608706 1 0 0 I I #
coedge $-1 $359 $248 $251 $373 reversed $241 $-1 #
coedge $-1 $248 $359 $364 $452 forward $241 $-1 #
vertex $-1 $249 $456 #
straight-curve $-1 -20.736395832995843 28.589822677922619 64.122702167856033 0 0 1 I I #
straight-curve $-1 -20.736395832995843 -9.6708275645258652 43.100184832020204 0 0.66913059716165679 -0.74314483375859142 I I #
edge $-1 $450 -1.8983439563431297 $253 20.736395832995843 $368 $457 forward 7 unknown #
point $-1 -20.736395832995843 28.589822677922619 8.8095603086087007 #
point $-1 -20.736395832995843 21.204588669411223 8.8095603086087024 #
edge $-1 $458 1 $458 0 $256 $-1 forward 7 unknown #
vertex $-1 $257 $459 #
ellipse-curve $-1 -9.4190259383263637 21.380643050259604 1.5421664198044489 0 0.74314483375859142 0.66913059716165679 1.5 0 0 1 I I #
point $-1 -7.9190259383263637 24.897205673666924 4.7084935491420437 #
loop $-1 $-1 $268 $260 #
plane-surface $-1 0 28.589822677922619 0 0 -1 0 0 0 -1 forward_v I I I I #
coedge $-1 $383 $263 $265 $387 reversed $166 $-1 #
coedge $-1 $263 $382 $460 $461 reversed $166 $-1 #
coedge $-1 $271 $266 $263 $385 forward $261 $-1 #
edge $-1 $388 -21.241671904432934 $462 -13.856437895921538 $384 $463 forward 7 unknown #
coedge $-1 $265 $264 $391 $464 reversed $104 $-1 #
edge $-1 $465 -57.179645355845238 $388 -46.142586163157958 $382 $466 forward 7 unknown #
vertex $-1 $267 $467 #
straight-curve $-1 24.395772195392361 21.204588669411216 8.809560308608706 1 0 0 I I #
coedge $-1 $460 $268 $271 $395 reversed $380 $-1 #
coedge $-1 $268 $460 $386 $464 forward $380 $-1 #
vertex $-1 $269 $468 #
straight-curve $-1 37.474174496115239 28.589822677922619 64.122702167856033 0 0 1 I I #
straight-curve $-1 37.474174496115239 -9.6708275645258652 43.100184832020204 0 0.66913059716165679 -0.74314483375859142 I I #
edge $-1 $462 -60.108914285454205 $272 -37.474174496115239 $390 $469 forward 7 unknown #
point $-1 37.474174496115239 28.589822677922619 8.8095603086087007 #
point $-1 37.474174496115239 21.204588669411223 8.8095603086087024 #
edge $-1 $470 1 $470 0 $275 $-1 forward 7 unknown #
vertex $-1 $276 $471 #
ellipse-curve $-1 48.791544390784722 21.380643050259604 1.5421664198044489 0 0.74314483375859142 0.66913059716165679 1.5 0 0 1 I I #
point $-1 50.291544390784722 24.897205673666924 4.7084935491420437 #
plane-surface $-1 63.623767815179903 0 0 -1 0 0 0 0 1 forward_v I I I I #
coedge $-1 $284 $282 $286 $407 reversed $181 $-1 #
edge $-1 $297 -8.8095603086087007 $409 8.8095603086087007 $296 $472 forward 7 unknown #
vertex $-1 $407 $473 #
straight-curve $-1 -63.623767815179903 -28.589822677922619 0 0 0 -1 I I #
edge $-1 $405 -28.589822677922619 $409 28.589822677922619 $403 $474 forward 7 unknown #
straight-curve $-1 0 -28.589822677922619 -8.8095603086087007 -1 0 0 I I #
vertex $-1 $289 $475 #
straight-curve $-1 0 28.589822677922619 -8.8095603086087007 1 0 0 I I #
point $-1 63.623767815179903 28.589822677922619 -8.8095603086087007 #
point $-1 63.623767815179903 -28.589822677922619 -8.8095603086087007 #
straight-curve $-1 -63.623767815179903 0 8.8095603086087007 0 -1 0 I I #
point $-1 -63.623767815179903 28.589822677922619 8.8095603086087007 #
point $-1 -63.623767815179903 -28.589822677922619 8.8095603086087007 #
straight-curve $-1 63.623767815179903 -28.589822677922619 0 0 0 -1 I I #
straight-curve $-1 63.623767815179903 28.589822677922619 0 0 0 -1 I I #
plane-surface $-1 0 28.589822677922619 0 0 -1 0 0 0 -1 forward_v I I I I #
coedge $-1 $429 $428 $312 $421 forward $307 $-1 #
straight-curve $-1 -52.797372843042254 -28.589822677922619 -0.19165234539459686 0 0 1 I I #
edge $-1 $424 -28.589822677922619 $422 28.589822677922619 $419 $476 forward 7 unknown #
vertex $-1 $313 $477 #
straight-curve $-1 -29.105285164555539 -28.589822677922619 -2.7287657698098982 1 0 0 I I #
vertex $-1 $315 $478 #
straight-curve $-1 -29.105285164555539 28.589822677922619 -2.7287657698098982 -1 0 0 I I #
point $-1 -52.797372843042254 28.589822677922619 -2.7287657698098982 #
point $-1 -52.797372843042254 -28.589822677922619 -2.7287657698098982 #
coedge $-1 $419 $319 $322 $431 forward $307 $-1 #
coedge $-1 $319 $419 $326 $433 reversed $307 $-1 #
straight-curve $-1 -63.623767815179903 0 1.9621563882315107 0 1 0 I I #
edge $-1 $324 -1.9621563882315107 $424 2.7287657698098982 $322 $479 forward 7 unknown #
point $-1 -63.623767815179903 28.589822677922619 1.9621563882315107 #
edge $-1 $327 -1.9621563882315107 $422 2.7287657698098982 $429 $480 forward 7 unknown #
point $-1 -63.623767815179903 -28.589822677922619 1.9621563882315107 #
straight-curve $-1 -52.797372843042254 28.589822677922619 -0.19165234539459686 0 0 -1 I I #
edge $-1 $437 24.875791911129575 $440 28.75283366379627 $333 $481 forward 7 unknown #
vertex $-1 $436 $482 #
straight-curve $-1 -13.552539713140275 -28.589822677922619 53.026454465911151 0 0 1 I I #
edge $-1 $440 0.91017855265945791 $344 24.374543768302175 $343 $483 forward 7 unknown #
vertex $-1 $439 $484 #
straight-curve $-1 -13.552539713140275 -28.589822677922626 5.7804832527106527 0 -0.78801074757464917 -0.61566148304635926 I I #
point $-1 -13.552539713140275 -28.589822677922619 5.780483252710658 #
point $-1 -37.016904928782992 -24.712780925255924 8.8095603086087007 #
straight-curve $-1 0 -28.589822677922619 8.8095603086087007 1 0 0 I I #
vertex $-1 $350 $485 #
point $-1 -29.312800581456507 -24.501888468783253 4.5438982267701711 #
vertex $-1 $354 $486 #
point $-1 -19.256644060466769 -24.501888468783253 4.5438982267701711 #
edge $-1 $450 55.313141859247331 $453 63.515275378180661 $359 $487 forward 7 unknown #
vertex $-1 $373 $488 #
straight-curve $-1 1.8983439563431297 42.446260573844157 8.8095603086087024 0 1 0 I I #
edge $-1 $453 -6.607856925506308 $370 16.026882863832665 $369 $489 forward 7 unknown #
vertex $-1 $452 $490 #
straight-curve $-1 1.8983439563431297 -9.6708275645258652 43.100184832020204 0 -0.66913059716165679 0.74314483375859142 I I #
point $-1 1.8983439563431297 21.204588669411223 8.8095603086087024 #
point $-1 -20.736395832995843 28.589822677922619 0.60742678967537245 #
straight-curve $-1 0 28.589822677922619 8.8095603086087007 -1 0 0 I I #
vertex $-1 $376 $491 #
point $-1 -7.9190259383263637 21.380643050259604 1.5421664198044489 #
coedge $-1 $391 $390 $383 $461 forward $380 $-1 #
edge $-1 $462 55.313141859247331 $465 63.515275378180661 $460 $492 forward 7 unknown #
vertex $-1 $395 $493 #
straight-curve $-1 60.108914285454205 42.446260573844157 8.8095603086087024 0 1 0 I I #
edge $-1 $465 -35.713142090061844 $392 -13.078402300722878 $391 $494 forward 7 unknown #
vertex $-1 $464 $495 #
straight-curve $-1 60.108914285454205 -9.6708275645258652 43.100184832020204 0 -0.66913059716165679 0.74314483375859142 I I #
point $-1 60.108914285454205 21.204588669411223 8.8095603086087024 #
point $-1 37.474174496115239 28.589822677922619 0.60742678967537245 #
straight-curve $-1 0 28.589822677922619 8.8095603086087007 -1 0 0 I I #
vertex $-1 $398 $496 #
point $-1 50.291544390784722 21.380643050259604 1.5421664198044489 #
straight-curve $-1 -63.623767815179903 28.589822677922619 0 0 0 -1 I I #
point $-1 -63.623767815179903 -28.589822677922619 -8.8095603086087007 #
straight-curve $-1 -63.623767815179903 0 -8.8095603086087007 0 1 0 I I #
point $-1 -63.623767815179903 28.589822677922619 -8.8095603086087007 #
straight-curve $-1 -63.623767815179903 0 -2.7287657698098982 0 -1 0 I I #
point $-1 -63.623767815179903 -28.589822677922619 -2.7287657698098982 #
point $-1 -63.623767815179903 28.589822677922619 -2.7287657698098982 #
straight-curve $-1 -63.623767815179903 28.589822677922619 0 0 0 -1 I I #
straight-curve $-1 -63.623767815179903 -28.589822677922619 0 0 0 -1 I I #
straight-curve $-1 -13.552539713140275 -53.465614589052194 8.8095603086087024 0 1 0 I I #
point $-1 -13.552539713140275 -28.589822677922619 8.8095603086087007 #
straight-curve $-1 -12.642361160480817 -24.712780925255924 8.8095603086087007 -1 0 0 I I #
point $-1 -13.552539713140275 -24.712780925255924 8.8095603086087007 #
point $-1 -30.312800581456507 -23.886226985736894 3.7558874791955219 #
point $-1 -20.256644060466769 -23.886226985736894 3.7558874791955219 #
straight-curve $-1 1.8983439563431297 28.589822677922619 64.122702167856033 0 0 -1 I I #
point $-1 1.8983439563431297 28.589822677922619 8.8095603086087007 #
straight-curve $-1 -4.7095129691631783 28.589822677922619 0.60742678967537245 -1 0 0 I I #
point $-1 1.8983439563431297 28.589822677922619 0.60742678967537245 #
point $-1 -9.4190259383263637 20.265925799621716 0.53847052406196383 #
straight-curve $-1 60.108914285454205 28.589822677922619 64.122702167856033 0 0 -1 I I #
point $-1 60.108914285454205 28.589822677922619 8.8095603086087007 #
straight-curve $-1 24.395772195392361 28.589822677922619 0.60742678967537245 -1 0 0 I I #
point $-1 60.108914285454205 28.589822677922619 0.60742678967537245 #
point $-1 48.791544390784722 20.265925799621716 0.53847052406196383 #
End-of-ACIS-data 