500 0 7 0           
7 Unknown 11 ACIS 5.0 NT 24 Thu Mar 25 17:12:21 1999 
-1 9.9999999999999995e-007 1e-010 
body $-1 $7 $-1 $8 #
body $-1 $9 $-1 $10 #
body $-1 $11 $-1 $12 #
body $-1 $13 $-1 $14 #
body $-1 $15 $-1 $16 #
body $-1 $17 $-1 $18 #
body $-1 $19 $-1 $20 #
lump $-1 $-1 $21 $0 #
transform $-1 1 0 0 0 1 0 0 0 1 51.427350688192391 32.149039156065406 10.797257793043872 1 rotate no_reflect no_shear #
lump $-1 $-1 $22 $1 #
transform $-1 1 0 0 0 1 0 0 0 1 51.427350688192391 32.149039156065406 10.797257793043872 1 rotate no_reflect no_shear #
lump $-1 $-1 $23 $2 #
transform $-1 1 0 0 0 1 0 0 0 1 51.427350688192391 32.149039156065406 10.797257793043872 1 rotate no_reflect no_shear #
lump $-1 $-1 $24 $3 #
transform $-1 1 0 0 0 1 0 0 0 1 51.427350688192391 32.149039156065406 10.797257793043872 1 rotate no_reflect no_shear #
lump $-1 $-1 $25 $4 #
transform $-1 1 0 0 0 1 0 0 0 1 51.427350688192391 32.149039156065406 10.797257793043872 1 rotate no_reflect no_shear #
lump $-1 $-1 $26 $5 #
transform $-1 1 0 0 0 1 0 0 0 1 51.427350688192391 32.149039156065406 10.797257793043872 1 rotate no_reflect no_shear #
lump $-1 $-1 $27 $6 #
transform $-1 1 0 0 0 1 0 0 0 1 51.427350688192391 32.149039156065406 10.797257793043872 1 rotate no_reflect no_shear #
shell $-1 $-1 $-1 $28 $-1 $7 #
shell $-1 $-1 $-1 $29 $-1 $9 #
shell $-1 $-1 $-1 $30 $-1 $11 #
shell $-1 $-1 $-1 $31 $-1 $13 #
shell $-1 $-1 $-1 $32 $-1 $15 #
shell $-1 $-1 $-1 $33 $-1 $17 #
shell $-1 $-1 $-1 $34 $-1 $19 #
face $-1 $35 $36 $21 $-1 $37 forward single #
face $-1 $38 $39 $22 $-1 $40 reversed single #
face $-1 $41 $42 $23 $-1 $43 reversed single #
face $-1 $44 $45 $24 $-1 $46 forward single #
face $-1 $47 $48 $25 $-1 $49 reversed single #
face $-1 $50 $51 $26 $-1 $52 forward single #
face $-1 $53 $54 $27 $-1 $55 forward single #
face $-1 $56 $57 $21 $-1 $58 reversed single #
loop $-1 $-1 $59 $28 #
plane-surface $-1 0 0 10.797257793043872 0 0 1 1 0 0 forward_v I I I I #
face $-1 $60 $61 $22 $-1 $62 reversed single #
loop $-1 $-1 $63 $29 #
plane-surface $-1 -32.832835102104646 -26.541625491018717 0 1 0 0 0 0 -1 forward_v I I I I #
face $-1 $64 $65 $23 $-1 $66 reversed single #
loop $-1 $-1 $67 $30 #
plane-surface $-1 48.888751238312778 13.185171411366408 147.58752423297412 0 -1 0 -0.69465837861970381 0 -0.71933979245794832 forward_v I I I I #
face $-1 $68 $69 $24 $-1 $70 forward single #
loop $-1 $71 $72 $31 #
cone-surface $-1 45.466417810327918 5.4855970168981685 4.9371868612533909 -0.69465837861970381 0 -0.71933979245794832 1.7983494811448708 0 -1.7366459465492596 1 I I 0 1 2.5 forward I I I I #
face $-1 $73 $74 $25 $-1 $75 reversed single #
loop $-1 $-1 $76 $32 #
plane-surface $-1 -129.05278004042145 -10.702922841695404 69.49142601225536 0 1 0 -0.75470958851134928 0 0.65605901945558964 forward_v I I I I #
face $-1 $77 $78 $26 $-1 $79 forward single #
loop $-1 $80 $81 $33 #
cone-surface $-1 -47.166743641427573 -6.6251006401674957 6.0203531151733367 0.75470958851134928 0 -0.65605901945558964 0.65605901945558964 0 0.75470958851134928 1 I I 0 1 1 forward I I I I #
face $-1 $82 $83 $27 $-1 $84 forward single #
loop $-1 $85 $86 $34 #
cone-surface $-1 -47.166743641427573 -0.50836733787563659 6.0203531151733367 0.75470958851134928 0 -0.65605901945558964 0.65605901945558964 0 0.75470958851134928 1 I I 0 1 1 forward I I I I #
face $-1 $87 $88 $21 $-1 $89 reversed single #
loop $-1 $-1 $90 $35 #
plane-surface $-1 0 0 -10.797257793043872 0 0 1 1 0 0 forward_v I I I I #
coedge $-1 $91 $92 $93 $94 forward $36 $-1 #
face $-1 $95 $96 $22 $-1 $97 reversed single #
loop $-1 $-1 $98 $38 #
plane-surface $-1 -31.332835102104646 -20.934211825972028 0 0 -1 0 0 0 -1 forward_v I I I I #
coedge $-1 $99 $100 $101 $102 forward $39 $-1 #
face $-1 $103 $104 $23 $-1 $105 reversed single #
loop $-1 $-1 $106 $41 #
plane-surface $-1 -22.56012885322049 5.4855970168981756 73.600044691561237 0.69465837861970381 0 0.71933979245794832 0.71933979245794832 0 -0.69465837861970381 forward_v I I I I #
coedge $-1 $107 $108 $109 $110 reversed $42 $-1 #
face $-1 $-1 $111 $24 $-1 $112 forward single #
loop $-1 $113 $114 $44 #
cone-surface $-1 43.113807656167481 5.4855970168981685 2.5009877853984257 -0.69465837861970381 0 -0.71933979245794832 0.8991747405724354 0 -0.86832297327462982 1 I I -0.70710678118654757 0.70710678118654735 1.25 forward I I I I #
loop $-1 $-1 $115 $31 #
coedge $-1 $72 $72 $116 $117 reversed $45 $-1 #
face $-1 $118 $119 $25 $-1 $120 reversed single #
loop $-1 $-1 $121 $47 #
plane-surface $-1 -51.427350688192391 -3.5667339890215679 2.0126714808668709 -0.75470958851134928 0 0.65605901945558964 0.65605901945558964 0 0.75470958851134928 forward_v I I I I #
coedge $-1 $122 $123 $124 $125 reversed $48 $-1 #
face $-1 $-1 $126 $26 $-1 $127 forward single #
loop $-1 $128 $129 $50 #
cone-surface $-1 -46.346943892171168 -6.6251006401674957 5.3077120836634997 0.75470958851134928 0 -0.65605901945558964 0.32802950972779482 0 0.37735479425567464 1 I I -0.70710678118654746 0.70710678118654746 0.5 forward I I I I #
loop $-1 $-1 $130 $33 #
coedge $-1 $81 $81 $131 $132 reversed $51 $-1 #
face $-1 $-1 $133 $27 $-1 $134 forward single #
loop $-1 $135 $136 $53 #
cone-surface $-1 -46.346943892171168 -0.50836733787563659 5.3077120836634997 0.75470958851134928 0 -0.65605901945558964 0.32802950972779482 0 0.37735479425567464 1 I I -0.70710678118654746 0.70710678118654746 0.5 forward I I I I #
loop $-1 $-1 $137 $34 #
coedge $-1 $86 $86 $138 $139 reversed $54 $-1 #
face $-1 $140 $141 $21 $-1 $142 reversed single #
loop $-1 $-1 $143 $56 #
plane-surface $-1 0 -32.149039156065406 0 0 1 0 0 0 1 forward_v I I I I #
coedge $-1 $144 $145 $146 $147 forward $57 $-1 #
coedge $-1 $148 $59 $149 $150 forward $36 $-1 #
coedge $-1 $59 $148 $151 $152 forward $36 $-1 #
coedge $-1 $153 $154 $59 $94 reversed $155 $-1 #
edge $-1 $156 -32.149039156065406 $157 32.149039156065406 $93 $158 forward 7 unknown #
face $-1 $159 $160 $22 $-1 $161 forward single #
loop $-1 $-1 $162 $60 #
plane-surface $-1 -29.832835102104646 -26.541625491018717 0 -1 0 0 0 0 1 forward_v I I I I #
coedge $-1 $163 $164 $165 $166 forward $61 $-1 #
coedge $-1 $167 $63 $168 $169 reversed $39 $-1 #
coedge $-1 $63 $167 $170 $171 reversed $39 $-1 #
coedge $-1 $164 $163 $63 $102 reversed $61 $-1 #
edge $-1 $172 -10.797257793043872 $173 10.797257793043872 $101 $174 forward 7 unknown #
face $-1 $175 $176 $23 $-1 $177 reversed single #
loop $-1 $-1 $178 $64 #
plane-surface $-1 48.888751238312778 -2.2139773775700569 147.58752423297412 0 1 0 0.69465837861970381 0 0.71933979245794832 forward_v I I I I #
coedge $-1 $179 $180 $181 $182 reversed $65 $-1 #
coedge $-1 $108 $67 $183 $184 reversed $42 $-1 #
coedge $-1 $67 $107 $179 $185 reversed $42 $-1 #
coedge $-1 $181 $186 $67 $110 forward $187 $-1 #
edge $-1 $188 -26.982975069036002 $189 -18.029683675078687 $109 $190 forward 7 unknown #
loop $-1 $-1 $116 $68 #
plane-surface $-1 -22.56012885322049 5.4855970168981756 73.600044691561237 0.69465837861970381 0 0.71933979245794832 0.71933979245794832 0 -0.69465837861970381 forward_v I I I I #
loop $-1 $-1 $191 $44 #
coedge $-1 $114 $114 $115 $192 reversed $69 $-1 #
coedge $-1 $115 $115 $114 $192 forward $71 $-1 #
coedge $-1 $116 $116 $72 $117 forward $111 $-1 #
edge $-1 $193 0 $193 6.2831853071796004 $116 $194 forward 7 unknown #
face $-1 $195 $196 $25 $-1 $197 reversed single #
loop $-1 $-1 $198 $73 #
plane-surface $-1 -129.05278004042145 3.5694548636522683 69.49142601225536 0 -1 0 0.75470958851134928 0 -0.65605901945558964 forward_v I I I I #
coedge $-1 $199 $200 $201 $202 reversed $74 $-1 #
coedge $-1 $123 $76 $203 $204 reversed $48 $-1 #
coedge $-1 $76 $122 $199 $205 reversed $48 $-1 #
coedge $-1 $201 $206 $76 $125 forward $207 $-1 #
edge $-1 $208 13.099039332018336 $209 20.735363515546538 $124 $210 forward 7 unknown #
loop $-1 $-1 $131 $77 #
plane-surface $-1 -51.427350688192391 -3.5667339890215679 2.0126714808668709 -0.75470958851134928 0 0.65605901945558964 0.65605901945558964 0 0.75470958851134928 forward_v I I I I #
loop $-1 $-1 $211 $50 #
coedge $-1 $129 $129 $130 $212 reversed $78 $-1 #
coedge $-1 $130 $130 $129 $212 forward $80 $-1 #
coedge $-1 $131 $131 $81 $132 forward $126 $-1 #
edge $-1 $213 0 $213 6.2831853071796004 $131 $214 forward 7 unknown #
loop $-1 $-1 $138 $82 #
plane-surface $-1 -51.427350688192391 -3.5667339890215679 2.0126714808668709 -0.75470958851134928 0 0.65605901945558964 0.65605901945558964 0 0.75470958851134928 forward_v I I I I #
loop $-1 $-1 $215 $53 #
coedge $-1 $136 $136 $137 $216 reversed $83 $-1 #
coedge $-1 $137 $137 $136 $216 forward $85 $-1 #
coedge $-1 $138 $138 $86 $139 forward $133 $-1 #
edge $-1 $217 0 $217 6.2831853071796004 $138 $218 forward 7 unknown #
face $-1 $219 $220 $21 $-1 $221 reversed single #
loop $-1 $-1 $222 $87 #
plane-surface $-1 -51.427350688192391 0 0 1 0 0 0 0 -1 forward_v I I I I #
coedge $-1 $223 $151 $224 $225 forward $88 $-1 #
coedge $-1 $226 $90 $223 $227 forward $57 $-1 #
coedge $-1 $90 $226 $228 $229 forward $57 $-1 #
coedge $-1 $154 $153 $90 $147 reversed $155 $-1 #
edge $-1 $230 -32.149039156065406 $231 32.149039156065406 $146 $232 forward 7 unknown #
coedge $-1 $92 $91 $233 $234 forward $36 $-1 #
coedge $-1 $235 $236 $91 $150 reversed $220 $-1 #
edge $-1 $157 -51.427350688192391 $237 51.427350688192391 $149 $238 forward 7 unknown #
coedge $-1 $143 $239 $92 $152 reversed $88 $-1 #
edge $-1 $240 -51.427350688192391 $156 51.427350688192391 $151 $241 forward 7 unknown #
coedge $-1 $146 $93 $239 $242 forward $155 $-1 #
coedge $-1 $93 $146 $235 $243 reversed $155 $-1 #
loop $-1 $-1 $153 $219 #
vertex $-1 $94 $244 #
vertex $-1 $94 $245 #
straight-curve $-1 51.427350688192391 0 10.797257793043872 0 1 0 I I #
face $-1 $246 $247 $22 $-1 $248 reversed single #
loop $-1 $-1 $249 $95 #
plane-surface $-1 0 0 10.797257793043872 0 0 1 1 0 0 forward_v I I I I #
coedge $-1 $250 $251 $252 $253 reversed $96 $-1 #
coedge $-1 $101 $98 $254 $255 reversed $61 $-1 #
coedge $-1 $98 $101 $256 $257 reversed $61 $-1 #
coedge $-1 $251 $250 $98 $166 reversed $96 $-1 #
edge $-1 $258 -10.797257793043872 $259 10.797257793043872 $165 $260 forward 7 unknown #
coedge $-1 $100 $99 $261 $262 reversed $39 $-1 #
coedge $-1 $254 $263 $99 $169 forward $247 $-1 #
edge $-1 $264 -18.878226410556046 $173 -7.6633990804626695 $168 $265 forward 7 unknown #
coedge $-1 $266 $256 $100 $171 forward $160 $-1 #
edge $-1 $172 7.6633990804626695 $267 18.878226410556046 $170 $268 forward 7 unknown #
vertex $-1 $171 $269 #
vertex $-1 $169 $270 #
straight-curve $-1 -32.832835102104646 -20.934211825972028 0 0 0 -1 I I #
face $-1 $-1 $187 $23 $-1 $271 forward single #
loop $-1 $-1 $272 $103 #
plane-surface $-1 51.427350688192391 0 0 -1 0 0 0 0 1 forward_v I I I I #
coedge $-1 $273 $274 $275 $276 reversed $104 $-1 #
coedge $-1 $277 $106 $108 $185 forward $65 $-1 #
coedge $-1 $106 $277 $273 $278 forward $65 $-1 #
coedge $-1 $275 $109 $106 $182 forward $187 $-1 #
edge $-1 $189 -10.44237290291732 $279 4.9567758860191447 $181 $280 forward 7 unknown #
coedge $-1 $281 $282 $107 $184 forward $176 $-1 #
edge $-1 $283 -71.642597516459091 $188 -62.99650432344319 $183 $284 forward 7 unknown #
edge $-1 $189 90.40816152438471 $283 102.85470137638478 $108 $285 forward 7 unknown #
coedge $-1 $109 $275 $281 $286 forward $187 $-1 #
loop $-1 $-1 $275 $175 #
vertex $-1 $184 $287 #
vertex $-1 $110 $288 #
straight-curve $-1 24.444375619156389 13.185171411366408 10.797257793043869 -1 0 0 I I #
coedge $-1 $191 $191 $-1 $289 reversed $113 $-1 #
edge $-1 $290 0 $290 6.2831853071796004 $114 $291 forward 7 unknown #
vertex $-1 $117 $292 #
ellipse-curve $-1 46.950704991213726 5.4855970168981685 6.4742111965359239 0.69465837861970381 0 0.71933979245794832 1.7983494811448708 0 -1.7366459465492596 1 I I #
face $-1 $-1 $207 $25 $-1 $293 forward single #
loop $-1 $-1 $294 $118 #
plane-surface $-1 -51.427350688192391 0 0 1 0 0 0 0 -1 forward_v I I I I #
coedge $-1 $295 $296 $297 $298 reversed $119 $-1 #
coedge $-1 $299 $121 $123 $205 forward $74 $-1 #
coedge $-1 $121 $299 $295 $300 forward $74 $-1 #
coedge $-1 $297 $124 $121 $202 forward $207 $-1 #
edge $-1 $209 -8.9195558471846201 $301 5.3528218581630522 $201 $302 forward 7 unknown #
coedge $-1 $303 $304 $122 $204 forward $196 $-1 #
edge $-1 $305 -32.733041525260809 $208 -23.948455213083808 $203 $306 forward 7 unknown #
edge $-1 $209 -11.639690876996058 $305 0 $123 $307 forward 7 unknown #
coedge $-1 $124 $297 $303 $308 forward $207 $-1 #
loop $-1 $-1 $297 $195 #
vertex $-1 $204 $309 #
vertex $-1 $125 $310 #
straight-curve $-1 -64.526390020210727 -10.702922841695404 10.797257793043872 1 0 0 I I #
coedge $-1 $211 $211 $-1 $311 reversed $128 $-1 #
edge $-1 $312 0 $312 6.2831853071796004 $129 $313 forward 7 unknown #
vertex $-1 $132 $314 #
ellipse-curve $-1 -47.609188596428289 -6.6251006401674957 6.4049646369553699 -0.75470958851134928 0 0.65605901945558964 0.65605901945558964 0 0.75470958851134928 1 I I #
coedge $-1 $215 $215 $-1 $315 reversed $135 $-1 #
edge $-1 $316 0 $316 6.2831853071796004 $136 $317 forward 7 unknown #
vertex $-1 $139 $318 #
ellipse-curve $-1 -47.609188596428289 -0.50836733787563659 6.4049646369553699 -0.75470958851134928 0 0.65605901945558964 0.65605901945558964 0 0.75470958851134928 1 I I #
face $-1 $-1 $155 $21 $-1 $319 reversed single #
loop $-1 $-1 $235 $140 #
plane-surface $-1 0 32.149039156065406 0 0 -1 0 0 0 -1 forward_v I I I I #
coedge $-1 $320 $233 $236 $321 forward $141 $-1 #
coedge $-1 $239 $143 $144 $227 reversed $88 $-1 #
coedge $-1 $233 $320 $143 $225 reversed $141 $-1 #
edge $-1 $240 -10.797257793043872 $322 10.797257793043872 $224 $323 forward 7 unknown #
coedge $-1 $145 $144 $320 $324 forward $57 $-1 #
edge $-1 $231 -51.427350688192391 $322 51.427350688192391 $223 $325 forward 7 unknown #
coedge $-1 $236 $235 $145 $229 reversed $220 $-1 #
edge $-1 $326 -51.427350688192391 $230 51.427350688192391 $228 $327 forward 7 unknown #
vertex $-1 $147 $328 #
vertex $-1 $242 $329 #
straight-curve $-1 51.427350688192391 0 -10.797257793043872 0 -1 0 I I #
coedge $-1 $222 $224 $148 $234 reversed $141 $-1 #
edge $-1 $237 -32.149039156065406 $240 32.149039156065406 $233 $330 forward 7 unknown #
coedge $-1 $228 $149 $154 $243 forward $220 $-1 #
coedge $-1 $149 $228 $222 $321 reversed $220 $-1 #
vertex $-1 $150 $331 #
straight-curve $-1 0 32.149039156065406 10.797257793043872 -1 0 0 I I #
coedge $-1 $151 $223 $153 $242 reversed $88 $-1 #
vertex $-1 $234 $332 #
straight-curve $-1 0 -32.149039156065406 10.797257793043872 1 0 0 I I #
edge $-1 $156 -10.797257793043872 $231 10.797257793043872 $153 $333 forward 7 unknown #
edge $-1 $157 -10.797257793043872 $230 10.797257793043872 $154 $334 forward 7 unknown #
point $-1 51.427350688192391 -32.149039156065406 10.797257793043872 #
point $-1 51.427350688192391 32.149039156065406 10.797257793043872 #
face $-1 $-1 $335 $22 $-1 $336 reversed single #
loop $-1 $-1 $337 $159 #
plane-surface $-1 0 0 -10.797257793043872 0 0 1 1 0 0 forward_v I I I I #
coedge $-1 $256 $266 $251 $338 forward $160 $-1 #
coedge $-1 $165 $162 $337 $339 reversed $96 $-1 #
coedge $-1 $162 $165 $249 $338 reversed $96 $-1 #
coedge $-1 $340 $341 $162 $253 forward $335 $-1 #
edge $-1 $342 -10.797257793043872 $343 10.797257793043872 $252 $344 forward 7 unknown #
coedge $-1 $337 $168 $163 $255 forward $247 $-1 #
edge $-1 $173 -17.166417551052323 $259 -14.166417551052323 $254 $345 forward 7 unknown #
coedge $-1 $170 $249 $164 $257 forward $160 $-1 #
edge $-1 $258 14.166417551052323 $172 17.166417551052323 $256 $346 forward 7 unknown #
vertex $-1 $257 $347 #
vertex $-1 $255 $348 #
straight-curve $-1 -29.832835102104646 -20.934211825972028 0 0 0 -1 I I #
coedge $-1 $341 $340 $167 $262 forward $335 $-1 #
edge $-1 $267 -10.797257793043872 $264 10.797257793043872 $261 $349 forward 7 unknown #
coedge $-1 $168 $337 $341 $350 forward $247 $-1 #
vertex $-1 $169 $351 #
straight-curve $-1 -32.832835102104646 -13.270812745509359 -10.797257793043872 0 1 0 I I #
coedge $-1 $249 $170 $340 $352 forward $160 $-1 #
vertex $-1 $352 $353 #
straight-curve $-1 -32.832835102104646 -13.270812745509359 10.797257793043872 0 -1 0 I I #
point $-1 -32.832835102104646 -20.934211825972028 10.797257793043872 #
point $-1 -32.832835102104646 -20.934211825972028 -10.797257793043872 #
plane-surface $-1 0 0 10.797257793043872 0 0 1 1 0 0 forward_v I I I I #
coedge $-1 $282 $281 $274 $354 forward $176 $-1 #
coedge $-1 $274 $178 $180 $278 reversed $104 $-1 #
coedge $-1 $178 $273 $272 $354 reversed $104 $-1 #
coedge $-1 $186 $181 $178 $276 forward $187 $-1 #
edge $-1 $279 18.029683675078687 $355 26.982975069036002 $275 $356 forward 7 unknown #
coedge $-1 $180 $179 $282 $357 reversed $65 $-1 #
edge $-1 $358 -102.85470137638478 $279 -90.40816152438471 $273 $359 forward 7 unknown #
vertex $-1 $182 $360 #
straight-curve $-1 42.474059294235062 2.7427985084490878 10.797257793043869 0 -1 0 I I #
coedge $-1 $272 $183 $186 $286 reversed $176 $-1 #
coedge $-1 $183 $272 $277 $357 forward $176 $-1 #
vertex $-1 $184 $361 #
straight-curve $-1 51.427350688192391 13.185171411366408 73.793762116487059 0 0 1 I I #
straight-curve $-1 -22.56012885322049 13.185171411366408 73.600044691561237 0.71933979245794832 0 -0.69465837861970381 I I #
edge $-1 $355 -2.2139773775700569 $188 13.185171411366408 $281 $362 forward 7 unknown #
point $-1 51.427350688192391 13.185171411366408 10.797257793043872 #
point $-1 42.474059294235076 13.185171411366408 10.797257793043862 #
edge $-1 $363 1 $363 0 $191 $-1 forward 7 unknown #
vertex $-1 $192 $364 #
ellipse-curve $-1 43.982130629442111 5.4855970168981685 3.4001625259708605 0.69465837861970381 0 0.71933979245794832 1.7983494811448708 0 -1.7366459465492596 1 I I #
point $-1 48.749054472358601 5.4855970168981685 4.7375652499866625 #
plane-surface $-1 0 0 10.797257793043872 0 0 1 1 0 0 forward_v I I I I #
coedge $-1 $304 $303 $296 $365 forward $196 $-1 #
coedge $-1 $296 $198 $200 $300 reversed $119 $-1 #
coedge $-1 $198 $295 $294 $365 reversed $119 $-1 #
coedge $-1 $206 $201 $198 $298 forward $207 $-1 #
edge $-1 $301 -20.735363515546538 $366 -13.099039332018336 $297 $367 forward 7 unknown #
coedge $-1 $200 $199 $304 $368 reversed $74 $-1 #
edge $-1 $369 0 $301 11.639690876996058 $295 $370 forward 7 unknown #
vertex $-1 $202 $371 #
straight-curve $-1 -43.791026504664174 -1.783366994510784 10.797257793043872 0 1 0 I I #
coedge $-1 $294 $203 $206 $308 reversed $196 $-1 #
coedge $-1 $203 $294 $299 $368 forward $196 $-1 #
vertex $-1 $204 $372 #
straight-curve $-1 -51.427350688192391 -10.702922841695404 34.74571300612768 0 0 1 I I #
straight-curve $-1 -51.427350688192391 -10.702922841695404 2.0126714808668709 -0.65605901945558964 0 -0.75470958851134928 I I #
edge $-1 $366 -3.5694548636522683 $208 10.702922841695404 $303 $373 forward 7 unknown #
point $-1 -51.427350688192391 -10.702922841695404 10.797257793043872 #
point $-1 -43.791026504664188 -10.702922841695404 10.797257793043872 #
edge $-1 $374 1 $374 0 $211 $-1 forward 7 unknown #
vertex $-1 $212 $375 #
ellipse-curve $-1 -46.724298686426842 -6.6251006401674957 5.6357415933912947 -0.75470958851134928 0 0.65605901945558964 0.65605901945558964 0 0.75470958851134928 1 I I #
point $-1 -46.953129576972707 -6.6251006401674957 7.1596742254667269 #
edge $-1 $376 1 $376 0 $215 $-1 forward 7 unknown #
vertex $-1 $216 $377 #
ellipse-curve $-1 -46.724298686426842 -0.50836733787563659 5.6357415933912947 -0.75470958851134928 0 0.65605901945558964 0.65605901945558964 0 0.75470958851134928 1 I I #
point $-1 -46.953129576972707 -0.50836733787563659 7.1596742254667269 #
plane-surface $-1 51.427350688192391 0 0 -1 0 0 0 0 1 forward_v I I I I #
coedge $-1 $224 $222 $226 $324 reversed $141 $-1 #
edge $-1 $237 -10.797257793043872 $326 10.797257793043872 $236 $378 forward 7 unknown #
vertex $-1 $324 $379 #
straight-curve $-1 -51.427350688192391 -32.149039156065406 0 0 0 -1 I I #
edge $-1 $322 -32.149039156065406 $326 32.149039156065406 $320 $380 forward 7 unknown #
straight-curve $-1 0 -32.149039156065406 -10.797257793043872 -1 0 0 I I #
vertex $-1 $229 $381 #
straight-curve $-1 0 32.149039156065406 -10.797257793043872 1 0 0 I I #
point $-1 51.427350688192391 32.149039156065406 -10.797257793043872 #
point $-1 51.427350688192391 -32.149039156065406 -10.797257793043872 #
straight-curve $-1 -51.427350688192391 0 10.797257793043872 0 -1 0 I I #
point $-1 -51.427350688192391 32.149039156065406 10.797257793043872 #
point $-1 -51.427350688192391 -32.149039156065406 10.797257793043872 #
straight-curve $-1 51.427350688192391 -32.149039156065406 0 0 0 -1 I I #
straight-curve $-1 51.427350688192391 32.149039156065406 0 0 0 -1 I I #
loop $-1 $-1 $252 $246 #
plane-surface $-1 0 -32.149039156065406 0 0 1 0 0 0 1 forward_v I I I I #
coedge $-1 $263 $254 $250 $339 forward $247 $-1 #
edge $-1 $343 -18.878226410556046 $258 -7.6633990804626695 $249 $382 forward 7 unknown #
edge $-1 $259 7.6633990804626695 $342 18.878226410556046 $337 $383 forward 7 unknown #
coedge $-1 $261 $252 $266 $352 reversed $335 $-1 #
coedge $-1 $252 $261 $263 $350 reversed $335 $-1 #
vertex $-1 $350 $384 #
vertex $-1 $253 $385 #
straight-curve $-1 -29.832835102104646 -32.149039156065406 0 0 0 1 I I #
straight-curve $-1 -15.666417551052323 -20.934211825972028 -10.797257793043872 1 0 0 I I #
straight-curve $-1 -15.666417551052323 -20.934211825972028 10.797257793043872 -1 0 0 I I #
point $-1 -29.832835102104646 -20.934211825972028 10.797257793043872 #
point $-1 -29.832835102104646 -20.934211825972028 -10.797257793043872 #
straight-curve $-1 -32.832835102104646 -32.149039156065406 0 0 0 -1 I I #
edge $-1 $342 29.832835102104646 $264 32.832835102104646 $341 $386 forward 7 unknown #
point $-1 -32.832835102104646 -32.149039156065406 -10.797257793043872 #
edge $-1 $267 -32.832835102104646 $343 -29.832835102104646 $340 $387 forward 7 unknown #
point $-1 -32.832835102104646 -32.149039156065406 10.797257793043872 #
edge $-1 $355 62.99650432344319 $358 71.642597516459091 $272 $388 forward 7 unknown #
vertex $-1 $286 $389 #
straight-curve $-1 24.444375619156389 -2.2139773775700569 10.797257793043869 1 0 0 I I #
edge $-1 $358 -4.9567758860191447 $283 10.44237290291732 $282 $390 forward 7 unknown #
vertex $-1 $357 $391 #
straight-curve $-1 -22.56012885322049 -2.2139773775700569 73.600044691561237 -0.71933979245794832 0 0.69465837861970381 I I #
point $-1 42.474059294235076 -2.2139773775700569 10.797257793043862 #
point $-1 51.427350688192391 13.185171411366408 2.1511646000279683 #
straight-curve $-1 51.427350688192391 0 10.797257793043872 0 1 0 I I #
vertex $-1 $289 $392 #
point $-1 45.780480110586979 5.4855970168981685 1.6635165794216011 #
edge $-1 $366 23.948455213083808 $369 32.733041525260809 $294 $393 forward 7 unknown #
vertex $-1 $308 $394 #
straight-curve $-1 -64.526390020210727 3.5694548636522683 10.797257793043872 -1 0 0 I I #
edge $-1 $369 -5.3528218581630522 $305 8.9195558471846201 $304 $395 forward 7 unknown #
vertex $-1 $368 $396 #
straight-curve $-1 -51.427350688192391 3.5694548636522683 2.0126714808668709 0.65605901945558964 0 0.75470958851134928 I I #
point $-1 -43.791026504664188 3.5694548636522683 10.797257793043872 #
point $-1 -51.427350688192391 -10.702922841695404 2.0126714808668709 #
straight-curve $-1 -51.427350688192391 0 10.797257793043872 0 -1 0 I I #
vertex $-1 $311 $397 #
point $-1 -46.068239666971252 -6.6251006401674957 6.3904511819026437 #
vertex $-1 $315 $398 #
point $-1 -46.068239666971252 -0.50836733787563659 6.3904511819026437 #
straight-curve $-1 -51.427350688192391 32.149039156065406 0 0 0 -1 I I #
point $-1 -51.427350688192391 -32.149039156065406 -10.797257793043872 #
straight-curve $-1 -51.427350688192391 0 -10.797257793043872 0 1 0 I I #
point $-1 -51.427350688192391 32.149039156065406 -10.797257793043872 #
straight-curve $-1 -29.832835102104646 -13.270812745509359 10.797257793043872 0 1 0 I I #
straight-curve $-1 -29.832835102104646 -13.270812745509359 -10.797257793043872 0 -1 0 I I #
point $-1 -29.832835102104646 -32.149039156065406 -10.797257793043872 #
point $-1 -29.832835102104646 -32.149039156065406 10.797257793043872 #
straight-curve $-1 0 -32.149039156065406 -10.797257793043872 -1 0 0 I I #
straight-curve $-1 0 -32.149039156065406 10.797257793043872 1 0 0 I I #
straight-curve $-1 51.427350688192391 -2.2139773775700569 73.793762116487059 0 0 -1 I I #
point $-1 51.427350688192391 -2.2139773775700569 10.797257793043872 #
straight-curve $-1 51.427350688192391 2.7427985084490878 2.1511646000279754 0 1 0 I I #
point $-1 51.427350688192391 -2.2139773775700569 2.1511646000279683 #
point $-1 42.245484682892851 5.4855970168981685 1.6018130448259906 #
straight-curve $-1 -51.427350688192391 3.5694548636522683 34.74571300612768 0 0 -1 I I #
point $-1 -51.427350688192391 3.5694548636522683 10.797257793043872 #
straight-curve $-1 -51.427350688192391 -1.783366994510784 2.0126714808668735 0 -1 0 I I #
point $-1 -51.427350688192391 3.5694548636522683 2.0126714808668709 #
point $-1 -45.969589097915495 -6.6251006401674957 4.9796825739357047 #
point $-1 -45.969589097915495 -0.50836733787563659 4.9796825739357047 #
End-of-ACIS-data 