500 0 7 0           
7 Unknown 11 ACIS 5.0 NT 24 Thu Mar 25 21:42:43 1999 
-1 9.9999999999999995e-007 1e-010 
body $-1 $7 $-1 $8 #
body $-1 $9 $-1 $10 #
body $-1 $11 $-1 $12 #
body $-1 $13 $-1 $14 #
body $-1 $15 $-1 $16 #
body $-1 $17 $-1 $18 #
body $-1 $19 $-1 $20 #
lump $-1 $-1 $21 $0 #
transform $-1 1 0 0 0 1 0 0 0 1 70.917691579943238 44.006541066494577 18.748610307393747 1 rotate no_reflect no_shear #
lump $-1 $-1 $22 $1 #
transform $-1 1 0 0 0 1 0 0 0 1 70.917691579943238 44.006541066494577 18.748610307393747 1 rotate no_reflect no_shear #
lump $-1 $-1 $23 $2 #
transform $-1 1 0 0 0 1 0 0 0 1 70.917691579943238 44.006541066494577 18.748610307393747 1 rotate no_reflect no_shear #
lump $-1 $-1 $24 $3 #
transform $-1 1 0 0 0 1 0 0 0 1 70.917691579943238 44.006541066494577 18.748610307393747 1 rotate no_reflect no_shear #
lump $-1 $-1 $25 $4 #
transform $-1 1 0 0 0 1 0 0 0 1 70.917691579943238 44.006541066494577 18.748610307393747 1 rotate no_reflect no_shear #
lump $-1 $-1 $26 $5 #
transform $-1 1 0 0 0 1 0 0 0 1 70.917691579943238 44.006541066494577 18.748610307393747 1 rotate no_reflect no_shear #
lump $-1 $-1 $27 $6 #
transform $-1 1 0 0 0 1 0 0 0 1 70.917691579943238 44.006541066494577 18.748610307393747 1 rotate no_reflect no_shear #
shell $-1 $-1 $-1 $28 $-1 $7 #
shell $-1 $-1 $-1 $29 $-1 $9 #
shell $-1 $-1 $-1 $30 $-1 $11 #
shell $-1 $-1 $-1 $31 $-1 $13 #
shell $-1 $-1 $-1 $32 $-1 $15 #
shell $-1 $-1 $-1 $33 $-1 $17 #
shell $-1 $-1 $-1 $34 $-1 $19 #
face $-1 $35 $36 $21 $-1 $37 forward single #
face $-1 $38 $39 $22 $-1 $40 reversed single #
face $-1 $41 $42 $23 $-1 $43 reversed single #
face $-1 $44 $45 $24 $-1 $46 forward single #
face $-1 $47 $48 $25 $-1 $49 forward single #
face $-1 $50 $51 $26 $-1 $52 reversed single #
face $-1 $53 $54 $27 $-1 $55 forward single #
face $-1 $56 $57 $21 $-1 $58 reversed single #
loop $-1 $-1 $59 $28 #
plane-surface $-1 0 0 18.748610307393747 0 0 1 1 0 0 forward_v I I I I #
face $-1 $60 $61 $22 $-1 $62 reversed single #
loop $-1 $-1 $63 $29 #
plane-surface $-1 0 -31.935890849207343 10.470200820732344 0 0 1 1 0 0 forward_v I I I I #
face $-1 $64 $65 $23 $-1 $66 reversed single #
loop $-1 $-1 $67 $30 #
plane-surface $-1 -165.82408865828657 12.712632061623275 117.66639302954452 0 1 0 -0.66913061440640931 0 0.74314481823134659 forward_v I I I I #
face $-1 $68 $69 $24 $-1 $70 forward single #
loop $-1 $71 $72 $31 #
cone-surface $-1 -66.859851396511544 14.618407033775618 14.999085648220991 0.66913061440640931 0 -0.74314481823134659 0.3715724091156733 0 0.33456530720320465 1 I I 0 1 0.5 forward I I I I #
face $-1 $73 $74 $25 $-1 $75 forward single #
loop $-1 $76 $77 $32 #
cone-surface $-1 -66.859851396511544 17.477069492004134 14.999085648220991 0.66913061440640931 0 -0.74314481823134659 0.3715724091156733 0 0.33456530720320465 1 I I 0 1 0.5 forward I I I I #
face $-1 $78 $79 $26 $-1 $80 reversed single #
loop $-1 $-1 $81 $33 #
plane-surface $-1 -20.252333929660324 -13.889651155142403 120.09682965899535 0.7660444514056185 0 0.64278759981090561 0.64278759981090561 0 -0.7660444514056185 forward_v I I I I #
face $-1 $82 $83 $27 $-1 $84 forward single #
loop $-1 $85 $86 $34 #
cone-surface $-1 65.615534473865878 -13.889651155142403 13.218903928486439 -0.7660444514056185 0 -0.64278759981090561 1.2855751996218112 0 -1.532088902811237 1 I I 0 1 2 forward I I I I #
face $-1 $87 $88 $21 $-1 $89 reversed single #
loop $-1 $-1 $90 $35 #
plane-surface $-1 0 0 -18.748610307393747 0 0 1 1 0 0 forward_v I I I I #
coedge $-1 $91 $92 $93 $94 forward $36 $-1 #
face $-1 $95 $96 $22 $-1 $97 reversed single #
loop $-1 $-1 $98 $38 #
plane-surface $-1 0 -19.865240631920109 14.609405564063046 0 -1 0 0 0 -1 forward_v I I I I #
coedge $-1 $99 $100 $101 $102 reversed $39 $-1 #
face $-1 $103 $104 $23 $-1 $105 reversed single #
loop $-1 $-1 $106 $41 #
plane-surface $-1 -70.917691579943252 16.047738262889872 12.262162992417288 -0.66913061440640931 0 0.74314481823134659 0.74314481823134659 0 0.66913061440640931 forward_v I I I I #
coedge $-1 $107 $108 $109 $110 reversed $42 $-1 #
face $-1 $-1 $111 $24 $-1 $112 forward single #
loop $-1 $113 $114 $44 #
cone-surface $-1 -66.236693263433366 14.618407033775618 14.306998441978635 0.66913061440640931 0 -0.74314481823134659 0.18578620455783665 0 0.16728265360160233 1 I I -0.70710678118654746 0.70710678118654746 0.25 forward I I I I #
loop $-1 $-1 $115 $31 #
coedge $-1 $72 $72 $116 $117 reversed $45 $-1 #
face $-1 $-1 $118 $25 $-1 $119 forward single #
loop $-1 $120 $121 $47 #
cone-surface $-1 -66.236693263433366 17.477069492004134 14.306998441978635 0.66913061440640931 0 -0.74314481823134659 0.18578620455783665 0 0.16728265360160233 1 I I -0.70710678118654746 0.70710678118654746 0.25 forward I I I I #
loop $-1 $-1 $122 $32 #
coedge $-1 $77 $77 $123 $124 reversed $48 $-1 #
face $-1 $125 $126 $26 $-1 $127 reversed single #
loop $-1 $-1 $128 $50 #
plane-surface $-1 88.399874352960609 -7.9140616783646962 211.26685516859891 0 -1 0 -0.7660444514056185 0 -0.64278759981090561 forward_v I I I I #
coedge $-1 $129 $130 $131 $132 reversed $51 $-1 #
face $-1 $-1 $133 $27 $-1 $134 forward single #
loop $-1 $135 $136 $53 #
cone-surface $-1 62.611720045224189 -13.889651155142403 10.698404415277906 -0.7660444514056185 0 -0.64278759981090561 0.64278759981090561 0 -0.7660444514056185 1 I I -0.70710678118654746 0.70710678118654746 1 forward I I I I #
loop $-1 $-1 $137 $34 #
coedge $-1 $86 $86 $138 $139 reversed $54 $-1 #
face $-1 $140 $141 $21 $-1 $142 reversed single #
loop $-1 $-1 $143 $56 #
plane-surface $-1 0 -44.006541066494577 0 0 1 0 0 0 1 forward_v I I I I #
coedge $-1 $144 $145 $146 $147 forward $57 $-1 #
coedge $-1 $148 $59 $149 $150 forward $36 $-1 #
coedge $-1 $59 $148 $151 $152 forward $36 $-1 #
coedge $-1 $153 $154 $59 $94 reversed $155 $-1 #
edge $-1 $156 -44.006541066494577 $157 44.006541066494577 $93 $158 forward 7 unknown #
face $-1 $159 $160 $22 $-1 $161 reversed single #
loop $-1 $-1 $162 $60 #
plane-surface $-1 -70.917691579943238 0 0 1 0 0 0 0 -1 forward_v I I I I #
coedge $-1 $163 $164 $165 $166 reversed $61 $-1 #
coedge $-1 $167 $63 $168 $169 reversed $39 $-1 #
coedge $-1 $63 $167 $163 $170 forward $39 $-1 #
coedge $-1 $165 $171 $63 $102 forward $172 $-1 #
edge $-1 $173 -28.038595641890907 $174 -3.8972952073164375 $101 $175 forward 7 unknown #
face $-1 $176 $177 $23 $-1 $178 forward single #
loop $-1 $-1 $179 $64 #
plane-surface $-1 -165.82408865828657 19.38284446415647 117.66639302954452 0 -1 0 0.66913061440640931 0 -0.74314481823134659 forward_v I I I I #
coedge $-1 $180 $181 $182 $183 reversed $65 $-1 #
coedge $-1 $108 $67 $184 $185 reversed $42 $-1 #
coedge $-1 $67 $107 $180 $186 reversed $42 $-1 #
coedge $-1 $182 $187 $67 $110 forward $177 $-1 #
edge $-1 $188 11.994352749200047 $189 19.198282157110285 $109 $190 forward 7 unknown #
loop $-1 $-1 $116 $68 #
plane-surface $-1 -70.917691579943252 16.047738262889872 12.262162992417288 -0.66913061440640931 0 0.74314481823134659 0.74314481823134659 0 0.66913061440640931 forward_v I I I I #
loop $-1 $-1 $191 $44 #
coedge $-1 $114 $114 $115 $192 reversed $69 $-1 #
coedge $-1 $115 $115 $114 $192 forward $71 $-1 #
coedge $-1 $116 $116 $72 $117 forward $111 $-1 #
edge $-1 $193 0 $193 6.2831853071796004 $116 $194 forward 7 unknown #
loop $-1 $-1 $123 $73 #
plane-surface $-1 -70.917691579943252 16.047738262889872 12.262162992417288 -0.66913061440640931 0 0.74314481823134659 0.74314481823134659 0 0.66913061440640931 forward_v I I I I #
loop $-1 $-1 $195 $47 #
coedge $-1 $121 $121 $122 $196 reversed $74 $-1 #
coedge $-1 $122 $122 $121 $196 forward $76 $-1 #
coedge $-1 $123 $123 $77 $124 forward $118 $-1 #
edge $-1 $197 0 $197 6.2831853071796004 $123 $198 forward 7 unknown #
face $-1 $199 $200 $26 $-1 $201 forward single #
loop $-1 $-1 $131 $78 #
plane-surface $-1 70.917691579943238 0 0 -1 0 0 0 0 1 forward_v I I I I #
coedge $-1 $202 $203 $204 $205 reversed $79 $-1 #
coedge $-1 $206 $81 $207 $208 reversed $51 $-1 #
coedge $-1 $81 $206 $202 $209 forward $51 $-1 #
coedge $-1 $204 $210 $81 $132 forward $126 $-1 #
edge $-1 $211 -12.920415054348908 $212 -0.96923610079349487 $131 $213 forward 7 unknown #
loop $-1 $-1 $138 $82 #
plane-surface $-1 -20.252333929660324 -13.889651155142403 120.09682965899535 0.7660444514056185 0 0.64278759981090561 0.64278759981090561 0 -0.7660444514056185 forward_v I I I I #
loop $-1 $-1 $214 $53 #
coedge $-1 $136 $136 $137 $215 reversed $83 $-1 #
coedge $-1 $137 $137 $136 $215 forward $85 $-1 #
coedge $-1 $138 $138 $86 $139 forward $133 $-1 #
edge $-1 $216 0 $216 6.2831853071796004 $138 $217 forward 7 unknown #
face $-1 $218 $219 $21 $-1 $220 reversed single #
loop $-1 $-1 $221 $87 #
plane-surface $-1 -70.917691579943238 0 0 1 0 0 0 0 -1 forward_v I I I I #
coedge $-1 $222 $151 $223 $224 forward $88 $-1 #
coedge $-1 $225 $90 $222 $226 forward $57 $-1 #
coedge $-1 $90 $225 $227 $228 forward $57 $-1 #
coedge $-1 $154 $153 $90 $147 reversed $155 $-1 #
edge $-1 $229 -44.006541066494577 $230 44.006541066494577 $146 $231 forward 7 unknown #
coedge $-1 $92 $91 $232 $233 forward $36 $-1 #
coedge $-1 $234 $235 $91 $150 reversed $219 $-1 #
edge $-1 $157 -70.917691579943238 $236 70.917691579943238 $149 $237 forward 7 unknown #
coedge $-1 $143 $238 $92 $152 reversed $88 $-1 #
edge $-1 $239 -70.917691579943238 $156 70.917691579943238 $151 $240 forward 7 unknown #
coedge $-1 $146 $93 $238 $241 forward $155 $-1 #
coedge $-1 $93 $146 $234 $242 reversed $155 $-1 #
loop $-1 $-1 $153 $218 #
vertex $-1 $94 $243 #
vertex $-1 $94 $244 #
straight-curve $-1 70.917691579943238 0 18.748610307393747 0 1 0 I I #
face $-1 $245 $246 $22 $-1 $247 forward single #
loop $-1 $-1 $168 $95 #
plane-surface $-1 0 -44.006541066494577 0 0 1 0 0 0 1 forward_v I I I I #
coedge $-1 $248 $249 $250 $251 forward $96 $-1 #
coedge $-1 $250 $98 $100 $170 reversed $61 $-1 #
coedge $-1 $98 $250 $252 $253 reversed $61 $-1 #
coedge $-1 $254 $101 $98 $166 forward $172 $-1 #
edge $-1 $174 3.1654980387008216 $255 11.443907525362224 $165 $256 forward 7 unknown #
coedge $-1 $100 $99 $248 $257 reversed $39 $-1 #
coedge $-1 $258 $259 $99 $169 forward $160 $-1 #
edge $-1 $260 -70.917691579943238 $173 70.917691579943238 $168 $261 forward 7 unknown #
edge $-1 $262 -70.917691579943238 $174 70.917691579943238 $163 $263 forward 7 unknown #
coedge $-1 $101 $254 $258 $264 forward $172 $-1 #
loop $-1 $-1 $165 $245 #
vertex $-1 $169 $265 #
vertex $-1 $102 $266 #
straight-curve $-1 70.917691579943238 -15.967945424603672 10.470200820732344 0 1 0 I I #
face $-1 $-1 $267 $23 $-1 $268 reversed single #
loop $-1 $-1 $109 $103 #
plane-surface $-1 0 0 18.748610307393747 0 0 1 1 0 0 forward_v I I I I #
coedge $-1 $269 $270 $271 $272 reversed $104 $-1 #
coedge $-1 $273 $106 $108 $186 forward $65 $-1 #
coedge $-1 $106 $273 $269 $274 forward $65 $-1 #
coedge $-1 $271 $109 $106 $183 forward $177 $-1 #
edge $-1 $189 4.6887629301783385 $275 11.358975332711534 $182 $276 forward 7 unknown #
coedge $-1 $277 $278 $107 $185 forward $267 $-1 #
edge $-1 $279 -46.571033522354959 $188 -40.084586207378514 $184 $280 forward 7 unknown #
edge $-1 $189 -9.6938432875779199 $279 -1.8881026247711288e-014 $108 $281 forward 7 unknown #
coedge $-1 $109 $271 $277 $282 forward $177 $-1 #
vertex $-1 $185 $283 #
vertex $-1 $110 $284 #
straight-curve $-1 -82.912044329143285 12.712632061623275 18.748610307393747 1 0 0 I I #
coedge $-1 $191 $191 $-1 $285 reversed $113 $-1 #
edge $-1 $286 0 $286 6.2831853071796004 $114 $287 forward 7 unknown #
vertex $-1 $117 $288 #
ellipse-curve $-1 -67.315726875988119 14.618407033775618 15.505386649905521 -0.66913061440640931 0 0.74314481823134659 0.3715724091156733 0 0.33456530720320465 1 I I #
coedge $-1 $195 $195 $-1 $289 reversed $120 $-1 #
edge $-1 $290 0 $290 6.2831853071796004 $121 $291 forward 7 unknown #
vertex $-1 $124 $292 #
ellipse-curve $-1 -67.315726875988119 17.477069492004134 15.505386649905521 -0.66913061440640931 0 0.74314481823134659 0.3715724091156733 0 0.33456530720320465 1 I I #
face $-1 $-1 $293 $26 $-1 $294 forward single #
loop $-1 $-1 $295 $125 #
plane-surface $-1 0 0 18.748610307393747 0 0 1 1 0 0 forward_v I I I I #
coedge $-1 $203 $128 $130 $209 reversed $79 $-1 #
coedge $-1 $128 $202 $295 $296 reversed $79 $-1 #
coedge $-1 $297 $131 $128 $205 forward $126 $-1 #
edge $-1 $212 -94.18880620792504 $298 -86.884817276905707 $204 $299 forward 7 unknown #
coedge $-1 $130 $129 $300 $301 reversed $51 $-1 #
coedge $-1 $302 $303 $129 $208 forward $293 $-1 #
edge $-1 $304 85.387700352167641 $211 94.922380640781697 $207 $305 forward 7 unknown #
edge $-1 $306 132.30070287127245 $212 141.8353831598865 $202 $307 forward 7 unknown #
coedge $-1 $131 $297 $302 $308 forward $126 $-1 #
vertex $-1 $208 $309 #
vertex $-1 $132 $310 #
straight-curve $-1 70.917691579943238 -6.9448255775712013 11.444621376374428 0 1 0 I I #
coedge $-1 $214 $214 $-1 $311 reversed $135 $-1 #
edge $-1 $312 0 $312 6.2831853071796004 $136 $313 forward 7 unknown #
vertex $-1 $139 $314 #
ellipse-curve $-1 67.853304451101948 -13.889651155142403 15.096615841884068 0.7660444514056185 0 0.64278759981090561 1.2855751996218112 0 -1.532088902811237 1 I I #
face $-1 $-1 $155 $21 $-1 $315 reversed single #
loop $-1 $-1 $234 $140 #
plane-surface $-1 0 44.006541066494577 0 0 -1 0 0 0 -1 forward_v I I I I #
coedge $-1 $316 $232 $235 $317 forward $141 $-1 #
coedge $-1 $238 $143 $144 $226 reversed $88 $-1 #
coedge $-1 $232 $316 $143 $224 reversed $141 $-1 #
edge $-1 $239 -18.748610307393747 $318 18.748610307393747 $223 $319 forward 7 unknown #
coedge $-1 $145 $144 $316 $320 forward $57 $-1 #
edge $-1 $230 -70.917691579943238 $318 70.917691579943238 $222 $321 forward 7 unknown #
coedge $-1 $235 $234 $145 $228 reversed $219 $-1 #
edge $-1 $322 -70.917691579943238 $229 70.917691579943238 $227 $323 forward 7 unknown #
vertex $-1 $147 $324 #
vertex $-1 $241 $325 #
straight-curve $-1 70.917691579943238 0 -18.748610307393747 0 -1 0 I I #
coedge $-1 $221 $223 $148 $233 reversed $141 $-1 #
edge $-1 $236 -44.006541066494577 $239 44.006541066494577 $232 $326 forward 7 unknown #
coedge $-1 $227 $149 $154 $242 forward $219 $-1 #
coedge $-1 $149 $227 $221 $317 reversed $219 $-1 #
vertex $-1 $150 $327 #
straight-curve $-1 0 44.006541066494577 18.748610307393747 -1 0 0 I I #
coedge $-1 $151 $222 $153 $241 reversed $88 $-1 #
vertex $-1 $233 $328 #
straight-curve $-1 0 -44.006541066494577 18.748610307393747 1 0 0 I I #
edge $-1 $156 -18.748610307393747 $230 18.748610307393747 $153 $329 forward 7 unknown #
edge $-1 $157 -18.748610307393747 $229 18.748610307393747 $154 $330 forward 7 unknown #
point $-1 70.917691579943238 -44.006541066494577 18.748610307393747 #
point $-1 70.917691579943238 44.006541066494577 18.748610307393747 #
face $-1 $-1 $172 $22 $-1 $331 reversed single #
loop $-1 $-1 $252 $159 #
plane-surface $-1 0 0 18.748610307393747 0 0 1 1 0 0 forward_v I I I I #
coedge $-1 $332 $162 $167 $257 forward $96 $-1 #
coedge $-1 $162 $332 $333 $334 reversed $96 $-1 #
coedge $-1 $164 $163 $162 $251 reversed $61 $-1 #
edge $-1 $335 -11.443907525362224 $262 -3.1654980387008216 $162 $336 forward 7 unknown #
coedge $-1 $333 $337 $164 $253 forward $246 $-1 #
edge $-1 $255 -70.917691579943238 $335 70.917691579943238 $252 $338 forward 7 unknown #
coedge $-1 $171 $165 $337 $339 reversed $172 $-1 #
vertex $-1 $166 $340 #
straight-curve $-1 70.917691579943238 -19.865240631920109 7.3047027820315229 0 0 1 I I #
edge $-1 $262 3.8972952073164375 $260 28.038595641890907 $248 $341 forward 7 unknown #
coedge $-1 $342 $168 $171 $264 reversed $160 $-1 #
coedge $-1 $168 $342 $332 $343 forward $160 $-1 #
vertex $-1 $169 $344 #
straight-curve $-1 0 -44.006541066494577 10.470200820732344 1 0 0 I I #
vertex $-1 $257 $345 #
straight-curve $-1 0 -19.865240631920109 10.470200820732344 1 0 0 I I #
edge $-1 $346 -18.748610307393747 $173 -10.470200820732344 $171 $347 forward 7 unknown #
point $-1 70.917691579943238 -44.006541066494577 10.470200820732344 #
point $-1 70.917691579943238 -19.865240631920109 10.470200820732344 #
loop $-1 $-1 $184 $176 #
plane-surface $-1 -70.917691579943238 0 0 1 0 0 0 0 -1 forward_v I I I I #
coedge $-1 $270 $179 $181 $274 reversed $104 $-1 #
coedge $-1 $179 $269 $348 $349 reversed $104 $-1 #
coedge $-1 $187 $182 $179 $272 forward $177 $-1 #
edge $-1 $275 -19.198282157110285 $350 -11.994352749200047 $271 $351 forward 7 unknown #
coedge $-1 $181 $180 $278 $352 reversed $65 $-1 #
edge $-1 $353 1.8881026247711288e-014 $275 9.6938432875779199 $269 $354 forward 7 unknown #
vertex $-1 $183 $355 #
straight-curve $-1 -63.713762172033 8.0238691314449362 18.748610307393747 0 1 0 I I #
coedge $-1 $348 $184 $187 $282 reversed $267 $-1 #
coedge $-1 $184 $348 $273 $352 forward $267 $-1 #
vertex $-1 $185 $356 #
straight-curve $-1 -70.917691579943238 12.712632061623275 58.833196514772261 0 0 1 I I #
straight-curve $-1 -70.917691579943252 12.712632061623275 12.262162992417288 -0.74314481823134659 0 -0.66913061440640931 I I #
edge $-1 $350 -19.38284446415647 $188 -12.712632061623275 $277 $357 forward 7 unknown #
point $-1 -70.917691579943238 12.712632061623275 18.748610307393747 #
point $-1 -63.713762172033 12.712632061623275 18.748610307393747 #
edge $-1 $358 1 $358 0 $191 $-1 forward 7 unknown #
vertex $-1 $192 $359 #
ellipse-curve $-1 -66.40397591703497 14.618407033775618 14.492784646536471 -0.66913061440640931 0 0.74314481823134659 0.3715724091156733 0 0.33456530720320465 1 I I #
point $-1 -66.944154466872433 14.618407033775618 15.839951957108713 #
edge $-1 $360 1 $360 0 $195 $-1 forward 7 unknown #
vertex $-1 $196 $361 #
ellipse-curve $-1 -66.40397591703497 17.477069492004134 14.492784646536471 -0.66913061440640931 0 0.74314481823134659 0.3715724091156733 0 0.33456530720320465 1 I I #
point $-1 -66.944154466872433 17.477069492004134 15.839951957108713 #
loop $-1 $-1 $207 $199 #
plane-surface $-1 0 -19.865240631920109 14.609405564063046 0 -1 0 0 0 -1 forward_v I I I I #
coedge $-1 $300 $362 $203 $296 forward $200 $-1 #
edge $-1 $298 -26.717754403462934 $306 -20.588980145780354 $295 $363 forward 7 unknown #
coedge $-1 $210 $204 $362 $364 reversed $126 $-1 #
vertex $-1 $205 $365 #
straight-curve $-1 70.917691579943238 -7.9140616783646962 105.63342758429945 0 0 1 I I #
coedge $-1 $366 $295 $206 $301 forward $200 $-1 #
edge $-1 $306 0.96923610079349487 $304 12.920415054348908 $300 $367 forward 7 unknown #
coedge $-1 $303 $207 $210 $308 reversed $293 $-1 #
coedge $-1 $207 $302 $366 $368 reversed $293 $-1 #
vertex $-1 $368 $369 #
straight-curve $-1 9.9027623595180074 -19.865240631920109 84.159384380457325 0.64278759981090572 0 -0.76604445140561861 I I #
vertex $-1 $301 $370 #
straight-curve $-1 -20.252333929660324 -7.9140616783646962 120.09682965899535 0.64278759981090561 0 -0.7660444514056185 I I #
edge $-1 $371 -11.443907525362224 $211 -4.1399185943428893 $210 $372 forward 7 unknown #
point $-1 70.917691579943238 -19.865240631920109 11.444621376374412 #
point $-1 70.917691579943238 -7.9140616783646962 11.444621376374414 #
edge $-1 $373 1 $373 0 $214 $-1 forward 7 unknown #
vertex $-1 $215 $374 #
ellipse-curve $-1 63.377764496629808 -13.889651155142403 11.341192015088811 0.7660444514056185 0 0.64278759981090561 1.2855751996218112 0 -1.532088902811237 1 I I #
point $-1 69.138879650723766 -13.889651155142403 13.564526939072831 #
plane-surface $-1 70.917691579943238 0 0 -1 0 0 0 0 1 forward_v I I I I #
coedge $-1 $223 $221 $225 $320 reversed $141 $-1 #
edge $-1 $236 -18.748610307393747 $322 18.748610307393747 $235 $375 forward 7 unknown #
vertex $-1 $320 $376 #
straight-curve $-1 -70.917691579943238 -44.006541066494577 0 0 0 -1 I I #
edge $-1 $318 -44.006541066494577 $322 44.006541066494577 $316 $377 forward 7 unknown #
straight-curve $-1 0 -44.006541066494577 -18.748610307393747 -1 0 0 I I #
vertex $-1 $228 $378 #
straight-curve $-1 0 44.006541066494577 -18.748610307393747 1 0 0 I I #
point $-1 70.917691579943238 44.006541066494577 -18.748610307393747 #
point $-1 70.917691579943238 -44.006541066494577 -18.748610307393747 #
straight-curve $-1 -70.917691579943238 0 18.748610307393747 0 -1 0 I I #
point $-1 -70.917691579943238 44.006541066494577 18.748610307393747 #
point $-1 -70.917691579943238 -44.006541066494577 18.748610307393747 #
straight-curve $-1 70.917691579943238 -44.006541066494577 0 0 0 -1 I I #
straight-curve $-1 70.917691579943238 44.006541066494577 0 0 0 -1 I I #
plane-surface $-1 70.917691579943238 0 0 -1 0 0 0 0 1 forward_v I I I I #
coedge $-1 $249 $248 $259 $343 reversed $96 $-1 #
coedge $-1 $379 $252 $249 $334 forward $246 $-1 #
edge $-1 $335 19.865240631920109 $380 44.006541066494577 $249 $381 forward 7 unknown #
vertex $-1 $334 $382 #
straight-curve $-1 -70.917691579943238 -19.865240631920109 7.3047027820315229 0 0 -1 I I #
coedge $-1 $252 $379 $254 $339 forward $246 $-1 #
straight-curve $-1 0 -19.865240631920109 18.748610307393747 -1 0 0 I I #
edge $-1 $346 -44.006541066494577 $255 -19.865240631920109 $254 $383 forward 7 unknown #
point $-1 70.917691579943238 -19.865240631920109 18.748610307393747 #
straight-curve $-1 -70.917691579943238 -15.967945424603672 10.470200820732344 0 -1 0 I I #
coedge $-1 $259 $258 $379 $384 reversed $160 $-1 #
edge $-1 $380 -18.748610307393747 $260 -10.470200820732344 $332 $385 forward 7 unknown #
point $-1 -70.917691579943238 -44.006541066494577 10.470200820732344 #
point $-1 -70.917691579943238 -19.865240631920109 10.470200820732344 #
vertex $-1 $339 $386 #
straight-curve $-1 70.917691579943238 -44.006541066494577 0 0 0 -1 I I #
coedge $-1 $278 $277 $270 $349 forward $267 $-1 #
edge $-1 $350 40.084586207378514 $353 46.571033522354959 $348 $387 forward 7 unknown #
vertex $-1 $282 $388 #
straight-curve $-1 -82.912044329143285 19.38284446415647 18.748610307393747 -1 0 0 I I #
edge $-1 $353 -11.358975332711534 $279 -4.6887629301783385 $278 $389 forward 7 unknown #
vertex $-1 $352 $390 #
straight-curve $-1 -70.917691579943252 19.38284446415647 12.262162992417288 0.74314481823134659 0 0.66913061440640931 I I #
point $-1 -63.713762172033 19.38284446415647 18.748610307393747 #
point $-1 -70.917691579943238 12.712632061623275 12.2621629924173 #
straight-curve $-1 -70.917691579943238 0 18.748610307393747 0 -1 0 I I #
vertex $-1 $285 $391 #
point $-1 -66.032403507919298 14.618407033775618 14.827349953739677 #
vertex $-1 $289 $392 #
point $-1 -66.032403507919298 17.477069492004134 14.827349953739677 #
coedge $-1 $295 $366 $297 $364 forward $200 $-1 #
straight-curve $-1 44.199937176480304 -7.9140616783646962 18.748610307393747 -1 0 0 I I #
edge $-1 $371 -19.865240631920109 $298 -7.9140616783646962 $297 $393 forward 7 unknown #
point $-1 70.917691579943238 -7.9140616783646962 18.748610307393747 #
coedge $-1 $362 $300 $303 $368 forward $200 $-1 #
straight-curve $-1 64.788917322260659 -6.9448255775712013 18.748610307393733 0 -1 0 I I #
edge $-1 $304 64.788917322260659 $371 70.917691579943238 $366 $394 forward 7 unknown #
point $-1 64.788917322260659 -19.865240631920109 18.748610307393733 #
point $-1 64.788917322260659 -7.9140616783646962 18.748610307393733 #
vertex $-1 $364 $395 #
straight-curve $-1 70.917691579943238 -19.865240631920109 7.3047027820315229 0 0 -1 I I #
vertex $-1 $311 $396 #
point $-1 64.663339696251626 -13.889651155142403 9.8091031122775743 #
straight-curve $-1 -70.917691579943238 44.006541066494577 0 0 0 -1 I I #
point $-1 -70.917691579943238 -44.006541066494577 -18.748610307393747 #
straight-curve $-1 -70.917691579943238 0 -18.748610307393747 0 1 0 I I #
point $-1 -70.917691579943238 44.006541066494577 -18.748610307393747 #
coedge $-1 $337 $333 $342 $384 forward $246 $-1 #
vertex $-1 $334 $397 #
straight-curve $-1 -70.917691579943238 0 18.748610307393747 0 -1 0 I I #
point $-1 -70.917691579943238 -19.865240631920109 18.748610307393747 #
straight-curve $-1 70.917691579943238 0 18.748610307393747 0 1 0 I I #
edge $-1 $380 -70.917691579943238 $346 70.917691579943238 $342 $398 forward 7 unknown #
straight-curve $-1 -70.917691579943238 -44.006541066494577 0 0 0 -1 I I #
point $-1 70.917691579943238 -44.006541066494577 18.748610307393747 #
straight-curve $-1 -70.917691579943238 19.38284446415647 58.833196514772261 0 0 -1 I I #
point $-1 -70.917691579943238 19.38284446415647 18.748610307393747 #
straight-curve $-1 -70.917691579943238 8.0238691314449362 12.262162992417299 0 -1 0 I I #
point $-1 -70.917691579943238 19.38284446415647 12.2621629924173 #
point $-1 -66.069410609831763 14.618407033775618 14.121212237420799 #
point $-1 -66.069410609831763 17.477069492004134 14.121212237420799 #
straight-curve $-1 70.917691579943238 0 18.748610307393747 0 1 0 I I #
straight-curve $-1 0 -19.865240631920109 18.748610307393747 1 0 0 I I #
point $-1 70.917691579943238 -19.865240631920109 18.748610307393747 #
point $-1 61.845675593818569 -13.889651155142403 10.055616815467001 #
point $-1 -70.917691579943238 -44.006541066494577 18.748610307393747 #
straight-curve $-1 0 -44.006541066494577 18.748610307393747 1 0 0 I I #
End-of-ACIS-data 