500 0 9 0           
7 Unknown 11 ACIS 5.0 NT 24 Thu Mar 25 19:06:18 1999 
-1 9.9999999999999995e-007 1e-010 
body $-1 $9 $-1 $10 #
body $-1 $11 $-1 $12 #
body $-1 $13 $-1 $14 #
body $-1 $15 $-1 $16 #
body $-1 $17 $-1 $18 #
body $-1 $19 $-1 $20 #
body $-1 $21 $-1 $22 #
body $-1 $23 $-1 $24 #
body $-1 $25 $-1 $26 #
lump $-1 $-1 $27 $0 #
transform $-1 1 0 0 0 1 0 0 0 1 68.908352916043583 46.938097946577635 11.775708309269739 1 rotate no_reflect no_shear #
lump $-1 $-1 $28 $1 #
transform $-1 1 0 0 0 1 0 0 0 1 68.908352916043583 46.938097946577635 11.775708309269739 1 rotate no_reflect no_shear #
lump $-1 $-1 $29 $2 #
transform $-1 1 0 0 0 1 0 0 0 1 68.908352916043583 46.938097946577635 11.775708309269739 1 rotate no_reflect no_shear #
lump $-1 $-1 $30 $3 #
transform $-1 1 0 0 0 1 0 0 0 1 68.908352916043583 46.938097946577635 11.775708309269739 1 rotate no_reflect no_shear #
lump $-1 $-1 $31 $4 #
transform $-1 1 0 0 0 1 0 0 0 1 68.908352916043583 46.938097946577635 11.775708309269739 1 rotate no_reflect no_shear #
lump $-1 $-1 $32 $5 #
transform $-1 1 0 0 0 1 0 0 0 1 68.908352916043583 46.938097946577635 11.775708309269739 1 rotate no_reflect no_shear #
lump $-1 $-1 $33 $6 #
transform $-1 1 0 0 0 1 0 0 0 1 68.908352916043583 46.938097946577635 11.775708309269739 1 rotate no_reflect no_shear #
lump $-1 $-1 $34 $7 #
transform $-1 1 0 0 0 1 0 0 0 1 68.908352916043583 46.938097946577635 11.775708309269739 1 rotate no_reflect no_shear #
lump $-1 $-1 $35 $8 #
transform $-1 1 0 0 0 1 0 0 0 1 68.908352916043583 46.938097946577635 11.775708309269739 1 rotate no_reflect no_shear #
shell $-1 $-1 $-1 $36 $-1 $9 #
shell $-1 $-1 $-1 $37 $-1 $11 #
shell $-1 $-1 $-1 $38 $-1 $13 #
shell $-1 $-1 $-1 $39 $-1 $15 #
shell $-1 $-1 $-1 $40 $-1 $17 #
shell $-1 $-1 $-1 $41 $-1 $19 #
shell $-1 $-1 $-1 $42 $-1 $21 #
shell $-1 $-1 $-1 $43 $-1 $23 #
shell $-1 $-1 $-1 $44 $-1 $25 #
face $-1 $45 $46 $27 $-1 $47 reversed single #
face $-1 $48 $49 $28 $-1 $50 forward single #
face $-1 $51 $52 $29 $-1 $53 reversed single #
face $-1 $54 $55 $30 $-1 $56 forward single #
face $-1 $57 $58 $31 $-1 $59 forward single #
face $-1 $60 $61 $32 $-1 $62 reversed single #
face $-1 $63 $64 $33 $-1 $65 forward single #
face $-1 $66 $67 $34 $-1 $68 forward single #
face $-1 $69 $70 $35 $-1 $71 forward single #
face $-1 $72 $73 $27 $-1 $74 forward single #
loop $-1 $-1 $75 $36 #
plane-surface $-1 0 -46.938097946577635 0 0 1 0 0 0 1 forward_v I I I I #
face $-1 $76 $77 $28 $-1 $78 forward single #
loop $-1 $-1 $79 $37 #
plane-surface $-1 0 -46.938097946577635 0 0 1 0 0 0 1 forward_v I I I I #
face $-1 $80 $81 $29 $-1 $82 reversed single #
loop $-1 $-1 $83 $38 #
plane-surface $-1 -153.75679041719019 -12.286528000547666 116.33680267135992 0 1 0 -0.61566148304635926 0 0.78801074757464917 forward_v I I I I #
face $-1 $84 $85 $30 $-1 $86 forward single #
loop $-1 $87 $88 $39 #
cone-surface $-1 -65.614272405897921 -5.8493126375856406 8.8487280233959904 0.61566148304635926 0 -0.78801074757464917 0.78801074757464917 0 0.61566148304635926 1 I I 0 1 1 forward I I I I #
face $-1 $89 $90 $31 $-1 $91 forward single #
loop $-1 $92 $93 $40 #
cone-surface $-1 -65.614272405897921 3.8065104068573916 8.8487280233959904 0.61566148304635926 0 -0.78801074757464917 0.78801074757464917 0 0.61566148304635926 1 I I 0 1 1 forward I I I I #
face $-1 $94 $95 $32 $-1 $96 reversed single #
loop $-1 $-1 $97 $41 #
plane-surface $-1 51.921504163542451 5.7582256357670865 200.6030398407319 0 -1 0 -0.64278761758704617 0 -0.76604443648966558 forward_v I I I I #
face $-1 $98 $99 $33 $-1 $100 forward single #
loop $-1 $101 $102 $42 #
cone-surface $-1 64.935479342126044 -5.1663751791135795 8.161744411799873 -0.64278761758704617 0 -0.76604443648966558 0.76604443648966558 0 -0.64278761758704617 1 I I 0 1 1 forward I I I I #
face $-1 $103 $104 $34 $-1 $105 forward single #
loop $-1 $106 $107 $43 #
cone-surface $-1 64.935479342126044 -1.0696498735333293 8.161744411799873 -0.64278761758704617 0 -0.76604443648966558 0.76604443648966558 0 -0.64278761758704617 1 I I 0 1 1 forward I I I I #
face $-1 $108 $109 $35 $-1 $110 forward single #
loop $-1 $111 $112 $44 #
cone-surface $-1 64.935479342126044 3.0270754320469209 8.161744411799873 -0.64278761758704617 0 -0.76604443648966558 0.76604443648966558 0 -0.64278761758704617 1 I I 0 1 1 forward I I I I #
face $-1 $113 $114 $27 $-1 $115 reversed single #
loop $-1 $-1 $116 $45 #
plane-surface $-1 0 0 11.775708309269739 0 0 1 1 0 0 forward_v I I I I #
coedge $-1 $117 $118 $119 $120 reversed $46 $-1 #
face $-1 $121 $122 $28 $-1 $123 reversed single #
loop $-1 $-1 $124 $48 #
plane-surface $-1 0 0 11.775708309269739 0 0 1 1 0 0 forward_v I I I I #
coedge $-1 $125 $126 $127 $128 forward $49 $-1 #
face $-1 $129 $130 $29 $-1 $131 reversed single #
loop $-1 $-1 $132 $51 #
plane-surface $-1 -68.908352916043569 -1.0214011153641351 7.735757280341403 -0.61566148304635926 0 0.78801074757464917 0.78801074757464917 0 0.61566148304635926 forward_v I I I I #
coedge $-1 $133 $134 $135 $136 reversed $52 $-1 #
face $-1 $-1 $137 $30 $-1 $138 forward single #
loop $-1 $139 $140 $54 #
cone-surface $-1 -64.597811858988422 -5.8493126375856406 7.5477178781990801 0.61566148304635926 0 -0.78801074757464917 0.39400537378732459 0 0.30783074152317963 1 I I -0.70710678118654746 0.70710678118654746 0.5 forward I I I I #
loop $-1 $-1 $141 $39 #
coedge $-1 $88 $88 $142 $143 reversed $55 $-1 #
face $-1 $-1 $144 $31 $-1 $145 forward single #
loop $-1 $146 $147 $57 #
cone-surface $-1 -64.597811858988422 3.8065104068573916 7.5477178781990801 0.61566148304635926 0 -0.78801074757464917 0.39400537378732459 0 0.30783074152317963 1 I I -0.70710678118654746 0.70710678118654746 0.5 forward I I I I #
loop $-1 $-1 $148 $40 #
coedge $-1 $93 $93 $149 $150 reversed $58 $-1 #
face $-1 $151 $152 $32 $-1 $153 reversed single #
loop $-1 $-1 $154 $60 #
plane-surface $-1 -36.665367841959636 -1.0696498735333293 95.029319082728676 0.64278761758704617 0 0.76604443648966558 0.76604443648966558 0 -0.64278761758704617 forward_v I I I I #
coedge $-1 $155 $156 $157 $158 reversed $61 $-1 #
face $-1 $-1 $159 $33 $-1 $160 forward single #
loop $-1 $161 $162 $63 #
cone-surface $-1 63.819178509618013 -5.1663751791135795 6.8313889121067533 -0.64278761758704617 0 -0.76604443648966558 0.38302221824483279 0 -0.32139380879352308 1 I I -0.70710678118654746 0.70710678118654746 0.5 forward I I I I #
loop $-1 $-1 $163 $42 #
coedge $-1 $102 $102 $164 $165 reversed $64 $-1 #
face $-1 $-1 $166 $34 $-1 $167 forward single #
loop $-1 $168 $169 $66 #
cone-surface $-1 63.819178509618013 -1.0696498735333293 6.8313889121067533 -0.64278761758704617 0 -0.76604443648966558 0.38302221824483279 0 -0.32139380879352308 1 I I -0.70710678118654746 0.70710678118654746 0.5 forward I I I I #
loop $-1 $-1 $170 $43 #
coedge $-1 $107 $107 $171 $172 reversed $67 $-1 #
face $-1 $-1 $173 $35 $-1 $174 forward single #
loop $-1 $175 $176 $69 #
cone-surface $-1 63.819178509618013 3.0270754320469209 6.8313889121067533 -0.64278761758704617 0 -0.76604443648966558 0.38302221824483279 0 -0.32139380879352308 1 I I -0.70710678118654746 0.70710678118654746 0.5 forward I I I I #
loop $-1 $-1 $177 $44 #
coedge $-1 $112 $112 $178 $179 reversed $70 $-1 #
face $-1 $180 $181 $27 $-1 $182 reversed single #
loop $-1 $-1 $183 $72 #
plane-surface $-1 0 0 -11.775708309269739 0 0 1 1 0 0 forward_v I I I I #
coedge $-1 $184 $185 $186 $187 forward $73 $-1 #
coedge $-1 $188 $75 $189 $190 reversed $46 $-1 #
coedge $-1 $75 $188 $191 $192 forward $46 $-1 #
coedge $-1 $193 $183 $75 $120 forward $114 $-1 #
edge $-1 $194 -68.908352916043583 $195 68.908352916043583 $75 $196 forward 7 unknown #
face $-1 $197 $198 $28 $-1 $199 reversed single #
loop $-1 $-1 $200 $76 #
plane-surface $-1 -68.908352916043583 0 0 1 0 0 0 0 -1 forward_v I I I I #
coedge $-1 $201 $202 $126 $203 forward $77 $-1 #
coedge $-1 $204 $79 $205 $206 reversed $49 $-1 #
coedge $-1 $79 $204 $124 $203 reversed $49 $-1 #
coedge $-1 $207 $208 $79 $128 reversed $209 $-1 #
edge $-1 $210 -11.775708309269739 $211 11.775708309269739 $127 $212 forward 7 unknown #
face $-1 $213 $214 $29 $-1 $215 reversed single #
loop $-1 $-1 $216 $80 #
plane-surface $-1 -153.75679041719019 10.243725769819395 116.33680267135992 0 -1 0 0.61566148304635926 0 -0.78801074757464917 forward_v I I I I #
coedge $-1 $217 $218 $219 $220 reversed $81 $-1 #
coedge $-1 $134 $83 $221 $222 reversed $52 $-1 #
coedge $-1 $83 $133 $217 $223 reversed $52 $-1 #
coedge $-1 $219 $224 $83 $136 forward $225 $-1 #
edge $-1 $226 7.9700422925515113 $227 13.140943702070224 $135 $228 forward 7 unknown #
loop $-1 $-1 $142 $84 #
plane-surface $-1 -68.908352916043569 -1.0214011153641351 7.735757280341403 -0.61566148304635926 0 0.78801074757464917 0.78801074757464917 0 0.61566148304635926 forward_v I I I I #
loop $-1 $-1 $229 $54 #
coedge $-1 $140 $140 $141 $230 reversed $85 $-1 #
coedge $-1 $141 $141 $140 $230 forward $87 $-1 #
coedge $-1 $142 $142 $88 $143 forward $137 $-1 #
edge $-1 $231 0 $231 6.2831853071796004 $142 $232 forward 7 unknown #
loop $-1 $-1 $149 $89 #
plane-surface $-1 -68.908352916043569 -1.0214011153641351 7.735757280341403 -0.61566148304635926 0 0.78801074757464917 0.78801074757464917 0 0.61566148304635926 forward_v I I I I #
loop $-1 $-1 $233 $57 #
coedge $-1 $147 $147 $148 $234 reversed $90 $-1 #
coedge $-1 $148 $148 $147 $234 forward $92 $-1 #
coedge $-1 $149 $149 $93 $150 forward $144 $-1 #
edge $-1 $235 0 $235 6.2831853071796004 $149 $236 forward 7 unknown #
face $-1 $237 $238 $32 $-1 $239 forward single #
loop $-1 $-1 $240 $94 #
plane-surface $-1 51.921504163542451 -7.8975253828337451 200.6030398407319 0 1 0 0.64278761758704617 0 0.76604443648966558 forward_v I I I I #
coedge $-1 $241 $242 $243 $244 reversed $95 $-1 #
coedge $-1 $156 $97 $245 $246 reversed $61 $-1 #
coedge $-1 $97 $155 $241 $247 reversed $61 $-1 #
coedge $-1 $243 $248 $97 $158 forward $238 $-1 #
edge $-1 $249 -42.947600834272357 $250 -36.591667733866281 $157 $251 forward 7 unknown #
loop $-1 $-1 $164 $98 #
plane-surface $-1 -36.665367841959636 -1.0696498735333293 95.029319082728676 0.64278761758704617 0 0.76604443648966558 0.76604443648966558 0 -0.64278761758704617 forward_v I I I I #
loop $-1 $-1 $252 $63 #
coedge $-1 $162 $162 $163 $253 reversed $99 $-1 #
coedge $-1 $163 $163 $162 $253 forward $101 $-1 #
coedge $-1 $164 $164 $102 $165 forward $159 $-1 #
edge $-1 $254 0 $254 6.2831853071796004 $164 $255 forward 7 unknown #
loop $-1 $-1 $171 $103 #
plane-surface $-1 -36.665367841959636 -1.0696498735333293 95.029319082728676 0.64278761758704617 0 0.76604443648966558 0.76604443648966558 0 -0.64278761758704617 forward_v I I I I #
loop $-1 $-1 $256 $66 #
coedge $-1 $169 $169 $170 $257 reversed $104 $-1 #
coedge $-1 $170 $170 $169 $257 forward $106 $-1 #
coedge $-1 $171 $171 $107 $172 forward $166 $-1 #
edge $-1 $258 0 $258 6.2831853071796004 $171 $259 forward 7 unknown #
loop $-1 $-1 $178 $108 #
plane-surface $-1 -36.665367841959636 -1.0696498735333293 95.029319082728676 0.64278761758704617 0 0.76604443648966558 0.76604443648966558 0 -0.64278761758704617 forward_v I I I I #
loop $-1 $-1 $260 $69 #
coedge $-1 $176 $176 $177 $261 reversed $109 $-1 #
coedge $-1 $177 $177 $176 $261 forward $111 $-1 #
coedge $-1 $178 $178 $112 $179 forward $173 $-1 #
edge $-1 $262 0 $262 6.2831853071796004 $178 $263 forward 7 unknown #
face $-1 $264 $265 $27 $-1 $266 reversed single #
loop $-1 $-1 $267 $113 #
plane-surface $-1 -68.908352916043583 0 0 1 0 0 0 0 -1 forward_v I I I I #
coedge $-1 $119 $268 $269 $270 forward $114 $-1 #
coedge $-1 $271 $116 $272 $273 forward $73 $-1 #
coedge $-1 $116 $271 $188 $274 forward $73 $-1 #
coedge $-1 $189 $275 $116 $187 reversed $276 $-1 #
edge $-1 $277 -46.938097946577635 $278 46.938097946577635 $186 $279 forward 7 unknown #
coedge $-1 $118 $117 $185 $274 reversed $46 $-1 #
coedge $-1 $269 $186 $117 $190 forward $276 $-1 #
edge $-1 $277 -11.775708309269739 $194 11.775708309269739 $189 $280 forward 7 unknown #
coedge $-1 $281 $282 $118 $192 reversed $181 $-1 #
edge $-1 $283 -11.775708309269739 $195 11.775708309269739 $191 $284 forward 7 unknown #
coedge $-1 $268 $119 $282 $285 forward $114 $-1 #
vertex $-1 $190 $286 #
vertex $-1 $285 $287 #
straight-curve $-1 0 -46.938097946577635 -11.775708309269739 -1 0 0 I I #
face $-1 $288 $209 $28 $-1 $289 reversed single #
loop $-1 $-1 $290 $121 #
plane-surface $-1 -67.111862902700636 -56.571049252235319 0 0 1 0 0 0 1 forward_v I I I I #
coedge $-1 $291 $292 $204 $293 forward $122 $-1 #
coedge $-1 $294 $124 $292 $295 forward $77 $-1 #
coedge $-1 $124 $294 $207 $296 forward $77 $-1 #
edge $-1 $210 65.31537288935769 $297 68.908352916043583 $124 $298 forward 7 unknown #
coedge $-1 $126 $125 $200 $293 reversed $49 $-1 #
coedge $-1 $299 $300 $125 $206 forward $301 $-1 #
edge $-1 $302 -68.908352916043583 $211 -65.31537288935769 $205 $303 forward 7 unknown #
coedge $-1 $304 $127 $202 $296 reversed $209 $-1 #
coedge $-1 $127 $304 $299 $305 reversed $209 $-1 #
loop $-1 $-1 $304 $197 #
vertex $-1 $203 $306 #
vertex $-1 $305 $307 #
straight-curve $-1 -65.31537288935769 -46.938097946577635 0 0 0 -1 I I #
face $-1 $-1 $225 $29 $-1 $308 forward single #
loop $-1 $-1 $309 $129 #
plane-surface $-1 -68.908352916043583 0 0 1 0 0 0 0 -1 forward_v I I I I #
coedge $-1 $310 $311 $312 $313 reversed $130 $-1 #
coedge $-1 $314 $132 $134 $223 forward $81 $-1 #
coedge $-1 $132 $314 $310 $315 forward $81 $-1 #
coedge $-1 $312 $135 $132 $220 forward $225 $-1 #
edge $-1 $227 -11.775827442865598 $316 10.754426327501463 $219 $317 forward 7 unknown #
coedge $-1 $318 $319 $133 $222 forward $214 $-1 #
edge $-1 $320 -50.432644055338571 $226 -46.392693026410221 $221 $321 forward 7 unknown #
edge $-1 $227 -6.5619681272543211 $320 1.830693040787162e-014 $134 $322 forward 7 unknown #
coedge $-1 $135 $312 $318 $323 forward $225 $-1 #
loop $-1 $-1 $312 $213 #
vertex $-1 $222 $324 #
vertex $-1 $136 $325 #
straight-curve $-1 -76.878395208595094 -12.286528000547666 11.775708309269739 1 0 0 I I #
coedge $-1 $229 $229 $-1 $326 reversed $139 $-1 #
edge $-1 $327 0 $327 6.2831853071796004 $140 $328 forward 7 unknown #
vertex $-1 $143 $329 #
ellipse-curve $-1 -66.32290221128423 -5.8493126375856406 9.7557327948055637 -0.61566148304635926 0 0.78801074757464917 0.78801074757464917 0 0.61566148304635926 1 I I #
coedge $-1 $233 $233 $-1 $330 reversed $146 $-1 #
edge $-1 $331 0 $331 6.2831853071796004 $147 $332 forward 7 unknown #
vertex $-1 $150 $333 #
ellipse-curve $-1 -66.32290221128423 3.8065104068573916 9.7557327948055637 -0.61566148304635926 0 0.78801074757464917 0.78801074757464917 0 0.61566148304635926 1 I I #
face $-1 $-1 $334 $32 $-1 $335 reversed single #
loop $-1 $-1 $157 $151 #
plane-surface $-1 0 0 11.775708309269739 0 0 1 1 0 0 forward_v I I I I #
coedge $-1 $336 $337 $338 $339 reversed $152 $-1 #
coedge $-1 $340 $154 $156 $247 forward $95 $-1 #
coedge $-1 $154 $340 $336 $341 forward $95 $-1 #
coedge $-1 $338 $157 $154 $244 forward $238 $-1 #
edge $-1 $250 -6.2930505725337511 $342 7.3627004460670804 $243 $343 forward 7 unknown #
coedge $-1 $344 $345 $155 $246 forward $334 $-1 #
edge $-1 $346 -93.859072843139359 $249 -88.525811611096202 $245 $347 forward 7 unknown #
edge $-1 $250 129.51962436050621 $346 137.81670583208717 $156 $348 forward 7 unknown #
coedge $-1 $157 $338 $344 $349 forward $238 $-1 #
vertex $-1 $158 $350 #
vertex $-1 $158 $351 #
straight-curve $-1 25.960752081771226 5.7582256357670865 11.775708309269731 -1 0 0 I I #
coedge $-1 $252 $252 $-1 $352 reversed $161 $-1 #
edge $-1 $353 0 $353 6.2831853071796004 $162 $354 forward 7 unknown #
vertex $-1 $165 $355 #
ellipse-curve $-1 65.730386365840559 -5.1663751791135795 9.1090776932481532 0.64278761758704617 0 0.76604443648966558 0.76604443648966558 0 -0.64278761758704617 1 I I #
coedge $-1 $256 $256 $-1 $356 reversed $168 $-1 #
edge $-1 $357 0 $357 6.2831853071796004 $169 $358 forward 7 unknown #
vertex $-1 $172 $359 #
ellipse-curve $-1 65.730386365840559 -1.0696498735333293 9.1090776932481532 0.64278761758704617 0 0.76604443648966558 0.76604443648966558 0 -0.64278761758704617 1 I I #
coedge $-1 $260 $260 $-1 $360 reversed $175 $-1 #
edge $-1 $361 0 $361 6.2831853071796004 $176 $362 forward 7 unknown #
vertex $-1 $179 $363 #
ellipse-curve $-1 65.730386365840559 3.0270754320469209 9.1090776932481532 0.64278761758704617 0 0.76604443648966558 0.76604443648966558 0 -0.64278761758704617 1 I I #
face $-1 $-1 $276 $27 $-1 $364 reversed single #
loop $-1 $-1 $365 $180 #
plane-surface $-1 0 46.938097946577635 0 0 -1 0 0 0 -1 forward_v I I I I #
coedge $-1 $282 $281 $366 $367 forward $181 $-1 #
coedge $-1 $183 $193 $368 $369 forward $114 $-1 #
coedge $-1 $275 $189 $183 $270 reversed $276 $-1 #
edge $-1 $370 -46.938097946577635 $194 46.938097946577635 $269 $371 forward 7 unknown #
coedge $-1 $185 $184 $281 $372 forward $73 $-1 #
coedge $-1 $365 $366 $184 $273 reversed $265 $-1 #
edge $-1 $278 -68.908352916043583 $373 68.908352916043583 $272 $374 forward 7 unknown #
edge $-1 $283 -68.908352916043583 $277 68.908352916043583 $188 $375 forward 7 unknown #
coedge $-1 $186 $269 $365 $376 reversed $276 $-1 #
loop $-1 $-1 $189 $264 #
vertex $-1 $187 $377 #
vertex $-1 $187 $378 #
straight-curve $-1 68.908352916043583 0 11.775708309269739 0 1 0 I I #
straight-curve $-1 68.908352916043583 -46.938097946577635 0 0 0 -1 I I #
coedge $-1 $267 $191 $271 $372 reversed $181 $-1 #
coedge $-1 $191 $267 $193 $285 reversed $181 $-1 #
vertex $-1 $372 $379 #
straight-curve $-1 -68.908352916043583 -46.938097946577635 0 0 0 -1 I I #
edge $-1 $195 -46.938097946577635 $380 46.938097946577635 $282 $381 forward 7 unknown #
point $-1 68.908352916043583 -46.938097946577635 -11.775708309269739 #
point $-1 -68.908352916043583 -46.938097946577635 -11.775708309269739 #
face $-1 $-1 $301 $28 $-1 $382 reversed single #
plane-surface $-1 -65.31537288935769 -51.754573599406477 0 -1 0 0 0 0 1 forward_v I I I I #
coedge $-1 $383 $384 $385 $386 forward $198 $-1 #
coedge $-1 $385 $200 $300 $387 reversed $122 $-1 #
coedge $-1 $200 $385 $201 $295 reversed $122 $-1 #
edge $-1 $297 -11.775708309269739 $302 11.775708309269739 $200 $388 forward 7 unknown #
coedge $-1 $202 $201 $384 $389 forward $77 $-1 #
edge $-1 $297 46.938097946577635 $390 56.571049252235319 $292 $391 forward 7 unknown #
edge $-1 $392 -4.8164756528288422 $210 4.8164756528288422 $207 $393 forward 7 unknown #
vertex $-1 $295 $394 #
straight-curve $-1 0 -46.938097946577635 11.775708309269739 -1 0 0 I I #
coedge $-1 $395 $205 $208 $305 forward $301 $-1 #
coedge $-1 $205 $395 $291 $387 forward $301 $-1 #
loop $-1 $-1 $205 $288 #
vertex $-1 $293 $396 #
straight-curve $-1 0 -46.938097946577635 -11.775708309269739 1 0 0 I I #
coedge $-1 $208 $207 $397 $398 forward $209 $-1 #
edge $-1 $211 -4.8164756528288422 $399 4.8164756528288422 $208 $400 forward 7 unknown #
point $-1 -65.31537288935769 -46.938097946577635 11.775708309269739 #
point $-1 -65.31537288935769 -46.938097946577635 -11.775708309269739 #
plane-surface $-1 0 0 11.775708309269739 0 0 1 1 0 0 forward_v I I I I #
coedge $-1 $319 $318 $311 $401 forward $214 $-1 #
coedge $-1 $311 $216 $218 $315 reversed $130 $-1 #
coedge $-1 $216 $310 $309 $401 reversed $130 $-1 #
coedge $-1 $224 $219 $216 $313 forward $225 $-1 #
edge $-1 $316 -13.140943702070224 $402 -7.9700422925515113 $312 $403 forward 7 unknown #
coedge $-1 $218 $217 $319 $404 reversed $81 $-1 #
edge $-1 $405 -1.830693040787162e-014 $316 6.5619681272543211 $310 $406 forward 7 unknown #
vertex $-1 $220 $407 #
straight-curve $-1 -63.737451506524877 -0.51070055768206757 11.77570830926974 0 1 0 I I #
coedge $-1 $309 $221 $224 $323 reversed $214 $-1 #
coedge $-1 $221 $309 $314 $404 forward $214 $-1 #
vertex $-1 $222 $408 #
straight-curve $-1 -68.908352916043583 -12.286528000547666 58.16840133567996 0 0 1 I I #
straight-curve $-1 -68.908352916043569 -12.286528000547666 7.735757280341403 -0.78801074757464917 0 -0.61566148304635926 I I #
edge $-1 $402 -10.243725769819395 $226 12.286528000547666 $318 $409 forward 7 unknown #
point $-1 -68.908352916043583 -12.286528000547666 11.775708309269739 #
point $-1 -63.73745150652487 -12.286528000547666 11.775708309269739 #
edge $-1 $410 1 $410 0 $229 $-1 forward 7 unknown #
vertex $-1 $230 $411 #
ellipse-curve $-1 -64.905642600511598 -5.8493126375856406 7.9417232519864047 -0.61566148304635926 0 0.78801074757464917 0.78801074757464917 0 0.61566148304635926 1 I I #
point $-1 -65.534891463709585 -5.8493126375856406 10.371394277851934 #
edge $-1 $412 1 $412 0 $233 $-1 forward 7 unknown #
vertex $-1 $234 $413 #
ellipse-curve $-1 -64.905642600511598 3.8065104068573916 7.9417232519864047 -0.61566148304635926 0 0.78801074757464917 0.78801074757464917 0 0.61566148304635926 1 I I #
point $-1 -65.534891463709585 3.8065104068573916 10.371394277851934 #
loop $-1 $-1 $245 $237 #
plane-surface $-1 68.908352916043583 0 0 -1 0 0 0 0 1 forward_v I I I I #
coedge $-1 $337 $240 $242 $341 reversed $152 $-1 #
coedge $-1 $240 $336 $414 $415 reversed $152 $-1 #
coedge $-1 $248 $243 $240 $339 forward $238 $-1 #
edge $-1 $342 36.591667733866281 $416 42.947600834272357 $338 $417 forward 7 unknown #
coedge $-1 $242 $241 $345 $418 reversed $95 $-1 #
edge $-1 $419 -137.81670583208717 $342 -129.51962436050621 $336 $420 forward 7 unknown #
vertex $-1 $244 $421 #
straight-curve $-1 62.552419815637514 -0.53482493676666465 11.775708309269746 0 -1 0 I I #
coedge $-1 $414 $245 $248 $349 reversed $334 $-1 #
coedge $-1 $245 $414 $340 $418 forward $334 $-1 #
vertex $-1 $246 $422 #
straight-curve $-1 68.908352916043583 5.7582256357670865 100.30151992036595 0 0 1 I I #
straight-curve $-1 -36.665367841959636 5.7582256357670865 95.029319082728676 0.76604443648966558 0 -0.64278761758704617 I I #
edge $-1 $416 -7.8975253828337451 $249 5.7582256357670865 $344 $423 forward 7 unknown #
point $-1 68.908352916043583 5.7582256357670865 11.775708309269739 #
point $-1 62.552419815637506 5.7582256357670865 11.775708309269746 #
edge $-1 $424 1 $424 0 $252 $-1 forward 7 unknown #
vertex $-1 $253 $425 #
ellipse-curve $-1 64.140572318411529 -5.1663751791135795 7.2144111303515857 0.64278761758704617 0 0.76604443648966558 0.76604443648966558 0 -0.64278761758704617 1 I I #
point $-1 66.496430802330224 -5.1663751791135795 8.4662900756611119 #
edge $-1 $426 1 $426 0 $256 $-1 forward 7 unknown #
vertex $-1 $257 $427 #
ellipse-curve $-1 64.140572318411529 -1.0696498735333293 7.2144111303515857 0.64278761758704617 0 0.76604443648966558 0.76604443648966558 0 -0.64278761758704617 1 I I #
point $-1 66.496430802330224 -1.0696498735333293 8.4662900756611119 #
edge $-1 $428 1 $428 0 $260 $-1 forward 7 unknown #
vertex $-1 $261 $429 #
ellipse-curve $-1 64.140572318411529 3.0270754320469209 7.2144111303515857 0.64278761758704617 0 0.76604443648966558 0.76604443648966558 0 -0.64278761758704617 1 I I #
point $-1 66.496430802330224 3.0270754320469209 8.4662900756611119 #
plane-surface $-1 68.908352916043583 0 0 -1 0 0 0 0 1 forward_v I I I I #
coedge $-1 $368 $272 $275 $376 forward $265 $-1 #
coedge $-1 $272 $368 $267 $367 reversed $265 $-1 #
edge $-1 $373 -11.775708309269739 $380 11.775708309269739 $366 $430 forward 7 unknown #
coedge $-1 $366 $365 $268 $369 reversed $265 $-1 #
edge $-1 $380 -68.908352916043583 $370 68.908352916043583 $368 $431 forward 7 unknown #
vertex $-1 $270 $432 #
straight-curve $-1 68.908352916043583 0 -11.775708309269739 0 -1 0 I I #
edge $-1 $373 -46.938097946577635 $283 46.938097946577635 $281 $433 forward 7 unknown #
vertex $-1 $273 $434 #
straight-curve $-1 0 46.938097946577635 11.775708309269739 -1 0 0 I I #
straight-curve $-1 0 -46.938097946577635 11.775708309269739 1 0 0 I I #
edge $-1 $278 -11.775708309269739 $370 11.775708309269739 $275 $435 forward 7 unknown #
point $-1 68.908352916043583 -46.938097946577635 11.775708309269739 #
point $-1 68.908352916043583 46.938097946577635 11.775708309269739 #
point $-1 -68.908352916043583 -46.938097946577635 11.775708309269739 #
vertex $-1 $369 $436 #
straight-curve $-1 -68.908352916043583 0 -11.775708309269739 0 1 0 I I #
plane-surface $-1 0 0 -11.775708309269739 0 0 1 1 0 0 forward_v I I I I #
coedge $-1 $397 $290 $395 $437 reversed $198 $-1 #
coedge $-1 $290 $397 $294 $389 reversed $198 $-1 #
coedge $-1 $292 $291 $290 $386 reversed $122 $-1 #
edge $-1 $390 -11.775708309269739 $438 11.775708309269739 $385 $439 forward 7 unknown #
edge $-1 $438 -56.571049252235319 $302 -46.938097946577635 $291 $440 forward 7 unknown #
straight-curve $-1 -68.908352916043583 -46.938097946577635 0 0 0 -1 I I #
edge $-1 $390 -1.7964900133429467 $392 1.7964900133429467 $384 $441 forward 7 unknown #
vertex $-1 $295 $442 #
straight-curve $-1 -68.908352916043583 0 11.775708309269739 0 -1 0 I I #
vertex $-1 $296 $443 #
straight-curve $-1 -65.31537288935769 -51.754573599406477 11.775708309269739 0 1 0 I I #
point $-1 -68.908352916043583 -46.938097946577635 11.775708309269739 #
coedge $-1 $300 $299 $383 $437 forward $301 $-1 #
point $-1 -68.908352916043583 -46.938097946577635 -11.775708309269739 #
coedge $-1 $384 $383 $304 $398 reversed $198 $-1 #
edge $-1 $392 -11.775708309269739 $399 11.775708309269739 $304 $444 forward 7 unknown #
vertex $-1 $398 $445 #
straight-curve $-1 -65.31537288935769 -51.754573599406477 -11.775708309269739 0 -1 0 I I #
edge $-1 $402 46.392693026410221 $405 50.432644055338571 $309 $446 forward 7 unknown #
vertex $-1 $323 $447 #
straight-curve $-1 -76.878395208595094 10.243725769819395 11.775708309269739 -1 0 0 I I #
edge $-1 $405 -10.754426327501463 $320 11.775827442865598 $319 $448 forward 7 unknown #
vertex $-1 $404 $449 #
straight-curve $-1 -68.908352916043569 10.243725769819395 7.735757280341403 0.78801074757464917 0 0.61566148304635926 I I #
point $-1 -63.73745150652487 10.243725769819395 11.775708309269739 #
point $-1 -68.908352916043583 -12.286528000547666 7.7357572803413914 #
straight-curve $-1 -68.908352916043583 0 11.775708309269739 0 -1 0 I I #
vertex $-1 $326 $450 #
point $-1 -64.117631852936952 -5.8493126375856406 8.5573847350327643 #
vertex $-1 $330 $451 #
point $-1 -64.117631852936952 3.8065104068573916 8.5573847350327643 #
coedge $-1 $345 $344 $337 $415 forward $334 $-1 #
edge $-1 $416 88.525811611096202 $419 93.859072843139359 $414 $452 forward 7 unknown #
vertex $-1 $349 $453 #
straight-curve $-1 25.960752081771226 -7.8975253828337451 11.775708309269731 1 0 0 I I #
edge $-1 $419 -7.3627004460670804 $346 6.2930505725337511 $345 $454 forward 7 unknown #
vertex $-1 $418 $455 #
straight-curve $-1 -36.665367841959636 -7.8975253828337451 95.029319082728676 -0.76604443648966558 0 0.64278761758704617 I I #
point $-1 62.552419815637506 -7.8975253828337451 11.775708309269746 #
point $-1 68.908352916043583 5.7582256357670865 6.4424470772265892 #
straight-curve $-1 68.908352916043583 0 11.775708309269739 0 1 0 I I #
vertex $-1 $352 $456 #
point $-1 64.906616754901208 -5.1663751791135795 6.5716235127645399 #
vertex $-1 $356 $457 #
point $-1 64.906616754901208 -1.0696498735333293 6.5716235127645399 #
vertex $-1 $360 $458 #
point $-1 64.906616754901208 3.0270754320469209 6.5716235127645399 #
straight-curve $-1 -68.908352916043583 46.938097946577635 0 0 0 -1 I I #
straight-curve $-1 0 46.938097946577635 -11.775708309269739 1 0 0 I I #
point $-1 68.908352916043583 46.938097946577635 -11.775708309269739 #
straight-curve $-1 -68.908352916043583 0 11.775708309269739 0 -1 0 I I #
point $-1 -68.908352916043583 46.938097946577635 11.775708309269739 #
straight-curve $-1 68.908352916043583 46.938097946577635 0 0 0 -1 I I #
point $-1 -68.908352916043583 46.938097946577635 -11.775708309269739 #
edge $-1 $399 -1.7964900133429467 $438 1.7964900133429467 $383 $459 forward 7 unknown #
vertex $-1 $387 $460 #
straight-curve $-1 -68.908352916043583 -56.571049252235319 0 0 0 -1 I I #
straight-curve $-1 -68.908352916043583 0 -11.775708309269739 0 1 0 I I #
straight-curve $-1 -67.111862902700636 -56.571049252235319 11.775708309269739 1 0 0 I I #
point $-1 -68.908352916043583 -56.571049252235319 11.775708309269739 #
point $-1 -65.31537288935769 -56.571049252235319 11.775708309269739 #
straight-curve $-1 -65.31537288935769 -56.571049252235319 0 0 0 -1 I I #
point $-1 -65.31537288935769 -56.571049252235319 -11.775708309269739 #
straight-curve $-1 -68.908352916043583 10.243725769819395 58.16840133567996 0 0 -1 I I #
point $-1 -68.908352916043583 10.243725769819395 11.775708309269739 #
straight-curve $-1 -68.908352916043583 -0.51070055768206757 7.735757280341395 0 -1 0 I I #
point $-1 -68.908352916043583 10.243725769819395 7.7357572803413914 #
point $-1 -64.289981117465246 -5.8493126375856406 7.1537125044117555 #
point $-1 -64.289981117465246 3.8065104068573916 7.1537125044117555 #
straight-curve $-1 68.908352916043583 -7.8975253828337451 100.30151992036595 0 0 -1 I I #
point $-1 68.908352916043583 -7.8975253828337451 11.775708309269739 #
straight-curve $-1 68.908352916043569 -0.53482493676666465 6.4424470772265963 0 1 0 I I #
point $-1 68.908352916043583 -7.8975253828337451 6.4424470772265892 #
point $-1 63.497784700824489 -5.1663751791135795 6.4483666938619209 #
point $-1 63.497784700824489 -1.0696498735333293 6.4483666938619209 #
point $-1 63.497784700824489 3.0270754320469209 6.4483666938619209 #
straight-curve $-1 -67.111862902700636 -56.571049252235319 -11.775708309269739 -1 0 0 I I #
point $-1 -68.908352916043583 -56.571049252235319 -11.775708309269739 #
End-of-ACIS-data 