500 0 8 0           
7 Unknown 11 ACIS 5.0 NT 24 Thu Mar 25 17:07:12 1999 
-1 9.9999999999999995e-007 1e-010 
body $-1 $8 $-1 $9 #
body $-1 $10 $-1 $11 #
body $-1 $12 $-1 $13 #
body $-1 $14 $-1 $15 #
body $-1 $16 $-1 $17 #
body $-1 $18 $-1 $19 #
body $-1 $20 $-1 $21 #
body $-1 $22 $-1 $23 #
lump $-1 $-1 $24 $0 #
transform $-1 1 0 0 0 1 0 0 0 1 59.249855037079989 32.871400791454008 10.294094426753324 1 rotate no_reflect no_shear #
lump $-1 $-1 $25 $1 #
transform $-1 1 0 0 0 1 0 0 0 1 59.249855037079989 32.871400791454008 10.294094426753324 1 rotate no_reflect no_shear #
lump $-1 $-1 $26 $2 #
transform $-1 1 0 0 0 1 0 0 0 1 59.249855037079989 32.871400791454008 10.294094426753324 1 rotate no_reflect no_shear #
lump $-1 $-1 $27 $3 #
transform $-1 1 0 0 0 1 0 0 0 1 59.249855037079989 32.871400791454008 10.294094426753324 1 rotate no_reflect no_shear #
lump $-1 $-1 $28 $4 #
transform $-1 1 0 0 0 1 0 0 0 1 59.249855037079989 32.871400791454008 10.294094426753324 1 rotate no_reflect no_shear #
lump $-1 $-1 $29 $5 #
transform $-1 1 0 0 0 1 0 0 0 1 59.249855037079989 32.871400791454008 10.294094426753324 1 rotate no_reflect no_shear #
lump $-1 $-1 $30 $6 #
transform $-1 1 0 0 0 1 0 0 0 1 59.249855037079989 32.871400791454008 10.294094426753324 1 rotate no_reflect no_shear #
lump $-1 $-1 $31 $7 #
transform $-1 1 0 0 0 1 0 0 0 1 59.249855037079989 32.871400791454008 10.294094426753324 1 rotate no_reflect no_shear #
shell $-1 $-1 $-1 $32 $-1 $8 #
shell $-1 $-1 $-1 $33 $-1 $10 #
shell $-1 $-1 $-1 $34 $-1 $12 #
shell $-1 $-1 $-1 $35 $-1 $14 #
shell $-1 $-1 $-1 $36 $-1 $16 #
shell $-1 $-1 $-1 $37 $-1 $18 #
shell $-1 $-1 $-1 $38 $-1 $20 #
shell $-1 $-1 $-1 $39 $-1 $22 #
face $-1 $40 $41 $24 $-1 $42 forward single #
face $-1 $43 $44 $25 $-1 $45 reversed single #
face $-1 $46 $47 $26 $-1 $48 reversed single #
face $-1 $49 $50 $27 $-1 $51 reversed single #
face $-1 $52 $53 $28 $-1 $54 forward single #
face $-1 $55 $56 $29 $-1 $57 forward single #
face $-1 $58 $59 $30 $-1 $60 reversed single #
face $-1 $61 $62 $31 $-1 $63 forward single #
face $-1 $64 $65 $24 $-1 $66 reversed single #
loop $-1 $-1 $67 $32 #
plane-surface $-1 0 0 10.294094426753324 0 0 1 1 0 0 forward_v I I I I #
face $-1 $68 $69 $25 $-1 $70 reversed single #
loop $-1 $-1 $71 $33 #
plane-surface $-1 -53.784321416433521 -29.871400791454008 0 0 -1 0 0 0 -1 forward_v I I I I #
face $-1 $72 $73 $26 $-1 $74 reversed single #
loop $-1 $-1 $75 $34 #
plane-surface $-1 48.318787795787053 -31.371400791454008 0 1 0 0 0 0 -1 forward_v I I I I #
face $-1 $76 $77 $27 $-1 $78 reversed single #
loop $-1 $-1 $79 $35 #
plane-surface $-1 -48.318787795787053 92.232160426241776 125.66392867957283 1 0 0 0 -0.81915205242281985 -0.57357642473473569 forward_v I I I I #
face $-1 $80 $81 $28 $-1 $82 forward single #
loop $-1 $83 $84 $36 #
cone-surface $-1 -44.180168779982679 30.017805662816087 6.6516231175574001 0 -0.81915205242281985 -0.57357642473473569 1 0 0 1 I I 0 1 1 forward I I I I #
face $-1 $85 $86 $29 $-1 $87 forward single #
loop $-1 $88 $89 $37 #
cone-surface $-1 -37.972240256276123 30.017805662816087 6.6516231175574001 0 -0.81915205242281985 -0.57357642473473569 1 0 0 1 I I 0 1 1 forward I I I I #
face $-1 $90 $91 $30 $-1 $92 reversed single #
loop $-1 $-1 $93 $38 #
plane-surface $-1 0.13230163414225871 -102.52378366383238 96.274532556017363 -1 0 0 0 -0.5877852598018023 0.80901698891910034 forward_v I I I I #
face $-1 $94 $95 $31 $-1 $96 forward single #
loop $-1 $97 $98 $39 #
cone-surface $-1 -13.575889021957352 -23.94880747844298 2.4351748840412872 0 0.5877852598018023 -0.80901698891910034 4 0 0 1 I I 0 1 4 forward I I I I #
face $-1 $99 $100 $24 $-1 $101 reversed single #
loop $-1 $-1 $102 $40 #
plane-surface $-1 0 0 -10.294094426753324 0 0 1 1 0 0 forward_v I I I I #
coedge $-1 $103 $104 $105 $106 forward $41 $-1 #
face $-1 $107 $108 $25 $-1 $109 forward single #
loop $-1 $-1 $110 $43 #
plane-surface $-1 -48.318787795787053 -31.371400791454008 0 -1 0 0 0 0 1 forward_v I I I I #
coedge $-1 $111 $112 $113 $114 forward $44 $-1 #
face $-1 $115 $116 $26 $-1 $117 forward single #
loop $-1 $-1 $118 $46 #
plane-surface $-1 53.784321416433521 -29.871400791454008 0 0 -1 0 0 0 -1 forward_v I I I I #
coedge $-1 $119 $120 $121 $122 forward $47 $-1 #
face $-1 $123 $124 $27 $-1 $125 reversed single #
loop $-1 $-1 $126 $49 #
plane-surface $-1 -41.076204518129401 -4.8371202925154648 57.695288643133409 0 0.81915205242281985 0.57357642473473569 1 0 0 forward_v I I I I #
coedge $-1 $127 $128 $129 $130 reversed $50 $-1 #
face $-1 $-1 $131 $28 $-1 $132 forward single #
loop $-1 $133 $134 $52 #
cone-surface $-1 -44.180168779982679 29.013558795605874 5.9484419121367313 0 -0.81915205242281985 -0.57357642473473569 0.5 0 0 1 I I -0.70710678118654746 0.70710678118654746 0.5 forward I I I I #
loop $-1 $-1 $135 $36 #
coedge $-1 $84 $84 $136 $137 reversed $53 $-1 #
face $-1 $-1 $138 $29 $-1 $139 forward single #
loop $-1 $140 $141 $55 #
cone-surface $-1 -37.972240256276123 29.013558795605874 5.9484419121367313 0 -0.81915205242281985 -0.57357642473473569 0.5 0 0 1 I I -0.70710678118654746 0.70710678118654746 0.5 forward I I I I #
loop $-1 $-1 $142 $37 #
coedge $-1 $89 $89 $143 $144 reversed $56 $-1 #
face $-1 $145 $146 $30 $-1 $147 reversed single #
loop $-1 $-1 $148 $58 #
plane-surface $-1 -13.575889021957352 -32.871400791454008 0.40625392403407545 0 -0.5877852598018023 0.80901698891910034 1 0 0 forward_v I I I I #
coedge $-1 $149 $150 $151 $152 reversed $59 $-1 #
face $-1 $-1 $153 $31 $-1 $154 forward single #
loop $-1 $155 $156 $61 #
cone-surface $-1 -13.575889021957352 -20.655365963226718 -2.0978583851493315 0 0.5877852598018023 -0.80901698891910034 2 0 0 1 I I -0.70710678118654746 0.70710678118654768 2 forward I I I I #
loop $-1 $-1 $157 $39 #
coedge $-1 $98 $98 $158 $159 reversed $62 $-1 #
face $-1 $160 $161 $24 $-1 $162 reversed single #
loop $-1 $-1 $163 $64 #
plane-surface $-1 0 -32.871400791454008 0 0 1 0 0 0 1 forward_v I I I I #
coedge $-1 $164 $165 $166 $167 forward $65 $-1 #
coedge $-1 $168 $67 $169 $170 forward $41 $-1 #
coedge $-1 $67 $168 $171 $172 forward $41 $-1 #
coedge $-1 $173 $174 $67 $106 reversed $175 $-1 #
edge $-1 $176 -32.871400791454008 $177 32.871400791454008 $105 $178 forward 7 unknown #
face $-1 $179 $180 $25 $-1 $181 reversed single #
loop $-1 $-1 $182 $68 #
plane-surface $-1 0 0 10.294094426753324 0 0 1 1 0 0 forward_v I I I I #
coedge $-1 $183 $184 $185 $186 reversed $69 $-1 #
coedge $-1 $187 $71 $188 $189 reversed $44 $-1 #
coedge $-1 $71 $187 $190 $191 reversed $44 $-1 #
coedge $-1 $184 $183 $71 $114 reversed $69 $-1 #
edge $-1 $192 -10.294094426753324 $193 10.294094426753324 $113 $194 forward 7 unknown #
face $-1 $195 $196 $26 $-1 $197 reversed single #
loop $-1 $-1 $198 $72 #
plane-surface $-1 0 0 10.294094426753324 0 0 1 1 0 0 forward_v I I I I #
coedge $-1 $199 $200 $201 $202 reversed $73 $-1 #
coedge $-1 $203 $75 $204 $205 reversed $47 $-1 #
coedge $-1 $75 $203 $206 $207 reversed $47 $-1 #
coedge $-1 $200 $199 $75 $122 reversed $73 $-1 #
edge $-1 $208 -10.294094426753324 $209 10.294094426753324 $121 $210 forward 7 unknown #
face $-1 $211 $212 $27 $-1 $213 reversed single #
loop $-1 $-1 $214 $76 #
plane-surface $-1 -33.83362124047175 92.232160426241776 125.66392867957283 -1 0 0 0 0.81915205242281985 0.57357642473473569 forward_v I I I I #
coedge $-1 $215 $216 $217 $218 reversed $77 $-1 #
coedge $-1 $128 $79 $219 $220 reversed $50 $-1 #
coedge $-1 $79 $127 $215 $221 reversed $50 $-1 #
coedge $-1 $217 $222 $79 $130 forward $223 $-1 #
edge $-1 $224 13.244679421666881 $225 17.762527996945082 $129 $226 forward 7 unknown #
loop $-1 $-1 $136 $80 #
plane-surface $-1 -41.076204518129401 -4.8371202925154648 57.695288643133409 0 0.81915205242281985 0.57357642473473569 1 0 0 forward_v I I I I #
loop $-1 $-1 $227 $52 #
coedge $-1 $134 $134 $135 $228 reversed $81 $-1 #
coedge $-1 $135 $135 $134 $228 forward $83 $-1 #
coedge $-1 $136 $136 $84 $137 forward $131 $-1 #
edge $-1 $229 1.0143470137672301e-015 $229 6.2831853071796013 $136 $230 forward 7 unknown #
loop $-1 $-1 $143 $85 #
plane-surface $-1 -41.076204518129401 -4.8371202925154648 57.695288643133409 0 0.81915205242281985 0.57357642473473569 1 0 0 forward_v I I I I #
loop $-1 $-1 $231 $55 #
coedge $-1 $141 $141 $142 $232 reversed $86 $-1 #
coedge $-1 $142 $142 $141 $232 forward $88 $-1 #
coedge $-1 $143 $143 $89 $144 forward $138 $-1 #
edge $-1 $233 1.0143470137672301e-015 $233 6.2831853071796013 $143 $234 forward 7 unknown #
face $-1 $235 $236 $30 $-1 $237 forward single #
loop $-1 $-1 $238 $90 #
plane-surface $-1 -27.284079678056962 -102.52378366383238 96.274532556017363 1 0 0 0 0.5877852598018023 -0.80901698891910034 forward_v I I I I #
coedge $-1 $239 $240 $241 $242 reversed $91 $-1 #
coedge $-1 $150 $93 $243 $244 reversed $59 $-1 #
coedge $-1 $93 $149 $239 $245 reversed $59 $-1 #
coedge $-1 $241 $246 $93 $152 forward $236 $-1 #
edge $-1 $247 18.39049104046218 $248 31.999935675258925 $151 $249 forward 7 unknown #
loop $-1 $-1 $158 $94 #
plane-surface $-1 -13.575889021957352 -32.871400791454008 0.40625392403407545 0 -0.5877852598018023 0.80901698891910034 1 0 0 forward_v I I I I #
loop $-1 $-1 $250 $61 #
coedge $-1 $156 $156 $157 $251 reversed $95 $-1 #
coedge $-1 $157 $157 $156 $251 forward $97 $-1 #
coedge $-1 $158 $158 $98 $159 forward $153 $-1 #
edge $-1 $252 -5.2350104090330415e-016 $252 6.2831853071795996 $158 $253 forward 7 unknown #
face $-1 $254 $255 $24 $-1 $256 reversed single #
loop $-1 $-1 $257 $99 #
plane-surface $-1 -59.249855037079989 0 0 1 0 0 0 0 -1 forward_v I I I I #
coedge $-1 $258 $171 $259 $260 forward $100 $-1 #
coedge $-1 $261 $102 $258 $262 forward $65 $-1 #
coedge $-1 $102 $261 $263 $264 forward $65 $-1 #
coedge $-1 $174 $173 $102 $167 reversed $175 $-1 #
edge $-1 $265 -32.871400791454008 $266 32.871400791454008 $166 $267 forward 7 unknown #
coedge $-1 $104 $103 $268 $269 forward $41 $-1 #
coedge $-1 $270 $271 $103 $170 reversed $255 $-1 #
edge $-1 $177 -59.249855037079989 $272 59.249855037079989 $169 $273 forward 7 unknown #
coedge $-1 $163 $274 $104 $172 reversed $100 $-1 #
edge $-1 $275 -59.249855037079989 $176 59.249855037079989 $171 $276 forward 7 unknown #
coedge $-1 $166 $105 $274 $277 forward $175 $-1 #
coedge $-1 $105 $166 $270 $278 reversed $175 $-1 #
loop $-1 $-1 $173 $254 #
vertex $-1 $106 $279 #
vertex $-1 $106 $280 #
straight-curve $-1 59.249855037079989 0 10.294094426753324 0 1 0 I I #
face $-1 $281 $282 $25 $-1 $283 reversed single #
loop $-1 $-1 $284 $107 #
plane-surface $-1 -59.249855037079989 0 0 1 0 0 0 0 -1 forward_v I I I I #
coedge $-1 $190 $285 $184 $286 forward $108 $-1 #
coedge $-1 $113 $110 $287 $288 reversed $69 $-1 #
coedge $-1 $110 $113 $182 $286 reversed $69 $-1 #
coedge $-1 $289 $290 $110 $186 forward $291 $-1 #
edge $-1 $292 -10.294094426753324 $293 10.294094426753324 $185 $294 forward 7 unknown #
coedge $-1 $112 $111 $284 $295 reversed $44 $-1 #
coedge $-1 $287 $296 $111 $189 forward $282 $-1 #
edge $-1 $297 -32.357694328863232 $193 -21.426627087570292 $188 $298 forward 7 unknown #
coedge $-1 $299 $182 $112 $191 forward $108 $-1 #
edge $-1 $192 21.426627087570292 $300 32.357694328863232 $190 $301 forward 7 unknown #
vertex $-1 $191 $302 #
vertex $-1 $189 $303 #
straight-curve $-1 -48.318787795787053 -29.871400791454008 0 0 0 -1 I I #
face $-1 $304 $305 $26 $-1 $306 reversed single #
loop $-1 $-1 $307 $115 #
plane-surface $-1 0 -32.871400791454008 0 0 1 0 0 0 1 forward_v I I I I #
coedge $-1 $206 $308 $200 $309 forward $116 $-1 #
coedge $-1 $121 $118 $310 $311 reversed $73 $-1 #
coedge $-1 $118 $121 $198 $309 reversed $73 $-1 #
coedge $-1 $312 $313 $118 $202 forward $314 $-1 #
edge $-1 $315 -10.294094426753324 $316 10.294094426753324 $201 $317 forward 7 unknown #
coedge $-1 $120 $119 $307 $318 reversed $47 $-1 #
coedge $-1 $310 $319 $119 $205 forward $305 $-1 #
edge $-1 $320 -17.185700395727004 $209 -14.185700395727004 $204 $321 forward 7 unknown #
coedge $-1 $322 $198 $120 $207 forward $116 $-1 #
edge $-1 $208 14.185700395727004 $323 17.185700395727004 $206 $324 forward 7 unknown #
vertex $-1 $207 $325 #
vertex $-1 $205 $326 #
straight-curve $-1 48.318787795787053 -29.871400791454008 0 0 0 -1 I I #
face $-1 $-1 $223 $27 $-1 $327 forward single #
loop $-1 $-1 $328 $123 #
plane-surface $-1 0 32.871400791454008 0 0 -1 0 0 0 -1 forward_v I I I I #
coedge $-1 $329 $330 $331 $332 reversed $124 $-1 #
coedge $-1 $333 $126 $128 $221 forward $77 $-1 #
coedge $-1 $126 $333 $329 $334 forward $77 $-1 #
coedge $-1 $331 $129 $126 $218 forward $223 $-1 #
edge $-1 $225 -27.780685536722352 $335 -13.295518981407049 $217 $336 forward 7 unknown #
coedge $-1 $337 $338 $127 $220 forward $212 $-1 #
edge $-1 $339 -58.990026545318273 $224 -52.537869913033092 $219 $340 forward 7 unknown #
edge $-1 $225 57.866172801717063 $339 65.742801582907973 $128 $341 forward 7 unknown #
coedge $-1 $129 $331 $337 $342 forward $223 $-1 #
loop $-1 $-1 $331 $211 #
vertex $-1 $220 $343 #
vertex $-1 $130 $344 #
straight-curve $-1 -48.318787795787053 46.116080213120888 10.294094426753325 0 -1 0 I I #
coedge $-1 $227 $227 $-1 $345 reversed $133 $-1 #
edge $-1 $346 0 $346 6.2831853071796004 $134 $347 forward 7 unknown #
vertex $-1 $137 $348 #
ellipse-curve $-1 -44.180168779982679 30.612476503814918 7.0680161106107198 0 0.81915205242281985 0.57357642473473569 1 0 0 1 I I #
coedge $-1 $231 $231 $-1 $349 reversed $140 $-1 #
edge $-1 $350 0 $350 6.2831853071796004 $141 $351 forward 7 unknown #
vertex $-1 $144 $352 #
ellipse-curve $-1 -37.972240256276123 30.612476503814918 7.0680161106107198 0 0.81915205242281985 0.57357642473473569 1 0 0 1 I I #
face $-1 $-1 $353 $30 $-1 $354 reversed single #
loop $-1 $-1 $151 $145 #
plane-surface $-1 0 0 10.294094426753324 0 0 1 1 0 0 forward_v I I I I #
coedge $-1 $355 $356 $357 $358 reversed $146 $-1 #
coedge $-1 $359 $148 $150 $245 forward $91 $-1 #
coedge $-1 $148 $359 $355 $360 forward $91 $-1 #
coedge $-1 $357 $151 $148 $242 forward $236 $-1 #
edge $-1 $248 -6.9202461451209345 $361 20.496135167078286 $241 $362 forward 7 unknown #
coedge $-1 $363 $364 $149 $244 forward $353 $-1 #
edge $-1 $365 -47.731012353974606 $247 -37.843171851255356 $243 $366 forward 7 unknown #
edge $-1 $248 -16.822198818074085 $365 0 $150 $367 forward 7 unknown #
coedge $-1 $151 $357 $363 $368 forward $236 $-1 #
vertex $-1 $244 $369 #
vertex $-1 $152 $370 #
straight-curve $-1 0.13230163414225871 -51.261891831916188 10.294094426753325 0 1 0 I I #
coedge $-1 $250 $250 $-1 $371 reversed $155 $-1 #
edge $-1 $372 0 $372 6.2831853071796004 $156 $373 forward 7 unknown #
vertex $-1 $159 $374 #
ellipse-curve $-1 -13.575889021957352 -26.066678474055635 5.3501741753936987 0 -0.5877852598018023 0.80901698891910034 4 0 0 1 I I #
face $-1 $-1 $175 $24 $-1 $375 reversed single #
loop $-1 $-1 $270 $160 #
plane-surface $-1 0 32.871400791454008 0 0 -1 0 0 0 -1 forward_v I I I I #
coedge $-1 $376 $268 $271 $377 forward $161 $-1 #
coedge $-1 $274 $163 $164 $262 reversed $100 $-1 #
coedge $-1 $268 $376 $163 $260 reversed $161 $-1 #
edge $-1 $275 -10.294094426753324 $378 10.294094426753324 $259 $379 forward 7 unknown #
coedge $-1 $165 $164 $376 $380 forward $65 $-1 #
edge $-1 $266 -59.249855037079989 $378 59.249855037079989 $258 $381 forward 7 unknown #
coedge $-1 $271 $270 $165 $264 reversed $255 $-1 #
edge $-1 $382 -59.249855037079989 $265 59.249855037079989 $263 $383 forward 7 unknown #
vertex $-1 $167 $384 #
vertex $-1 $277 $385 #
straight-curve $-1 59.249855037079989 0 -10.294094426753324 0 -1 0 I I #
coedge $-1 $257 $259 $168 $269 reversed $161 $-1 #
edge $-1 $272 -32.871400791454008 $275 32.871400791454008 $268 $386 forward 7 unknown #
coedge $-1 $263 $169 $174 $278 forward $255 $-1 #
coedge $-1 $169 $263 $257 $377 reversed $255 $-1 #
vertex $-1 $170 $387 #
straight-curve $-1 0 32.871400791454008 10.294094426753324 -1 0 0 I I #
coedge $-1 $171 $258 $173 $277 reversed $100 $-1 #
vertex $-1 $269 $388 #
straight-curve $-1 0 -32.871400791454008 10.294094426753324 1 0 0 I I #
edge $-1 $176 -10.294094426753324 $266 10.294094426753324 $173 $389 forward 7 unknown #
edge $-1 $177 -10.294094426753324 $265 10.294094426753324 $174 $390 forward 7 unknown #
point $-1 59.249855037079989 -32.871400791454008 10.294094426753324 #
point $-1 59.249855037079989 32.871400791454008 10.294094426753324 #
face $-1 $-1 $291 $25 $-1 $391 reversed single #
loop $-1 $-1 $287 $179 #
plane-surface $-1 0 0 -10.294094426753324 0 0 1 1 0 0 forward_v I I I I #
coedge $-1 $392 $393 $187 $295 forward $180 $-1 #
coedge $-1 $182 $299 $289 $394 forward $108 $-1 #
edge $-1 $293 -17.185700395727004 $192 -14.185700395727004 $182 $395 forward 7 unknown #
coedge $-1 $396 $188 $183 $288 forward $282 $-1 #
edge $-1 $193 14.185700395727004 $292 17.185700395727004 $287 $397 forward 7 unknown #
coedge $-1 $398 $185 $285 $394 reversed $291 $-1 #
coedge $-1 $185 $398 $396 $399 reversed $291 $-1 #
loop $-1 $-1 $185 $281 #
vertex $-1 $399 $400 #
vertex $-1 $186 $401 #
straight-curve $-1 -48.318787795787053 -32.871400791454008 0 0 0 1 I I #
edge $-1 $300 -10.294094426753324 $297 10.294094426753324 $284 $402 forward 7 unknown #
coedge $-1 $188 $396 $392 $403 forward $282 $-1 #
vertex $-1 $189 $404 #
straight-curve $-1 -26.89216070821676 -29.871400791454008 -10.294094426753324 1 0 0 I I #
coedge $-1 $285 $190 $393 $405 forward $108 $-1 #
vertex $-1 $405 $406 #
straight-curve $-1 -26.89216070821676 -29.871400791454008 10.294094426753324 -1 0 0 I I #
point $-1 -48.318787795787053 -29.871400791454008 10.294094426753324 #
point $-1 -48.318787795787053 -29.871400791454008 -10.294094426753324 #
face $-1 $-1 $314 $26 $-1 $407 reversed single #
loop $-1 $-1 $310 $195 #
plane-surface $-1 0 0 -10.294094426753324 0 0 1 1 0 0 forward_v I I I I #
coedge $-1 $408 $409 $203 $318 forward $196 $-1 #
coedge $-1 $198 $322 $312 $410 forward $116 $-1 #
edge $-1 $316 -32.357694328863232 $208 -21.426627087570292 $198 $411 forward 7 unknown #
coedge $-1 $412 $204 $199 $311 forward $305 $-1 #
edge $-1 $209 21.426627087570292 $315 32.357694328863232 $310 $413 forward 7 unknown #
coedge $-1 $414 $201 $308 $410 reversed $314 $-1 #
coedge $-1 $201 $414 $412 $415 reversed $314 $-1 #
loop $-1 $-1 $201 $304 #
vertex $-1 $415 $416 #
vertex $-1 $202 $417 #
straight-curve $-1 59.249855037079989 -29.871400791454008 0 0 0 1 I I #
edge $-1 $323 -10.294094426753324 $320 10.294094426753324 $307 $418 forward 7 unknown #
coedge $-1 $204 $412 $408 $419 forward $305 $-1 #
vertex $-1 $205 $420 #
straight-curve $-1 48.318787795787053 -15.685700395727004 -10.294094426753324 0 1 0 I I #
coedge $-1 $308 $206 $409 $421 forward $116 $-1 #
vertex $-1 $421 $422 #
straight-curve $-1 48.318787795787053 -15.685700395727004 10.294094426753324 0 -1 0 I I #
point $-1 48.318787795787053 -29.871400791454008 10.294094426753324 #
point $-1 48.318787795787053 -29.871400791454008 -10.294094426753324 #
plane-surface $-1 0 0 10.294094426753324 0 0 1 1 0 0 forward_v I I I I #
coedge $-1 $338 $337 $330 $423 forward $212 $-1 #
coedge $-1 $330 $214 $216 $334 reversed $124 $-1 #
coedge $-1 $214 $329 $328 $423 reversed $124 $-1 #
coedge $-1 $222 $217 $214 $332 forward $223 $-1 #
edge $-1 $335 -17.762527996945082 $424 -13.244679421666881 $331 $425 forward 7 unknown #
coedge $-1 $216 $215 $338 $426 reversed $77 $-1 #
edge $-1 $427 -65.742801582907973 $335 -57.866172801717063 $329 $428 forward 7 unknown #
vertex $-1 $218 $429 #
straight-curve $-1 -20.538102259064701 28.35355221617581 10.294094426753329 1 0 0 I I #
coedge $-1 $328 $219 $222 $342 reversed $212 $-1 #
coedge $-1 $219 $328 $333 $426 forward $212 $-1 #
vertex $-1 $220 $430 #
straight-curve $-1 -48.318787795787053 32.871400791454008 62.831964339786417 0 0 1 I I #
straight-curve $-1 -48.318787795787053 -4.8371202925154648 57.695288643133409 0 0.57357642473473569 -0.81915205242281985 I I #
edge $-1 $424 33.83362124047175 $224 48.318787795787053 $337 $431 forward 7 unknown #
point $-1 -48.318787795787053 32.871400791454008 10.294094426753324 #
point $-1 -48.318787795787053 28.353552216175807 10.294094426753325 #
edge $-1 $432 1 $432 0 $227 $-1 forward 7 unknown #
vertex $-1 $228 $433 #
ellipse-curve $-1 -44.180168779982679 29.423134821817285 6.2352301245040991 0 0.81915205242281985 0.57357642473473569 1 0 0 1 I I #
point $-1 -43.180168779982679 30.612476503814893 7.0680161106107011 #
edge $-1 $434 1 $434 0 $231 $-1 forward 7 unknown #
vertex $-1 $232 $435 #
ellipse-curve $-1 -37.972240256276123 29.423134821817285 6.2352301245040991 0 0.81915205242281985 0.57357642473473569 1 0 0 1 I I #
point $-1 -36.972240256276123 30.612476503814893 7.0680161106107011 #
loop $-1 $-1 $243 $235 #
plane-surface $-1 0 -32.871400791454008 0 0 1 0 0 0 1 forward_v I I I I #
coedge $-1 $356 $238 $240 $360 reversed $146 $-1 #
coedge $-1 $238 $355 $436 $437 reversed $146 $-1 #
coedge $-1 $246 $241 $238 $358 forward $236 $-1 #
edge $-1 $361 -31.999935675258925 $438 -18.39049104046218 $357 $439 forward 7 unknown #
coedge $-1 $240 $239 $364 $440 reversed $91 $-1 #
edge $-1 $441 0 $361 16.822198818074085 $355 $442 forward 7 unknown #
vertex $-1 $242 $443 #
straight-curve $-1 -6.7879445109786758 -19.261956156657259 10.294094426753324 -1 0 0 I I #
coedge $-1 $436 $243 $246 $368 reversed $353 $-1 #
coedge $-1 $243 $436 $359 $440 forward $353 $-1 #
vertex $-1 $244 $444 #
straight-curve $-1 0.13230163414225871 -32.871400791454008 48.137266278008681 0 0 1 I I #
straight-curve $-1 0.13230163414225871 -32.871400791454008 0.40625392403407545 0 -0.80901698891910034 -0.5877852598018023 I I #
edge $-1 $438 -27.284079678056962 $247 0.13230163414225871 $363 $445 forward 7 unknown #
point $-1 0.13230163414225871 -32.871400791454008 10.294094426753324 #
point $-1 0.13230163414225871 -19.261956156657263 10.294094426753324 #
edge $-1 $446 1 $446 0 $250 $-1 forward 7 unknown #
vertex $-1 $251 $447 #
ellipse-curve $-1 -13.575889021957352 -21.830936482830321 -0.47982440731113041 0 -0.5877852598018023 0.80901698891910034 4 0 0 1 I I #
point $-1 -9.5758890219573516 -26.066678474055642 5.3501741753937049 #
plane-surface $-1 59.249855037079989 0 0 -1 0 0 0 0 1 forward_v I I I I #
coedge $-1 $259 $257 $261 $380 reversed $161 $-1 #
edge $-1 $272 -10.294094426753324 $382 10.294094426753324 $271 $448 forward 7 unknown #
vertex $-1 $380 $449 #
straight-curve $-1 -59.249855037079989 -32.871400791454008 0 0 0 -1 I I #
edge $-1 $378 -32.871400791454008 $382 32.871400791454008 $376 $450 forward 7 unknown #
straight-curve $-1 0 -32.871400791454008 -10.294094426753324 -1 0 0 I I #
vertex $-1 $264 $451 #
straight-curve $-1 0 32.871400791454008 -10.294094426753324 1 0 0 I I #
point $-1 59.249855037079989 32.871400791454008 -10.294094426753324 #
point $-1 59.249855037079989 -32.871400791454008 -10.294094426753324 #
straight-curve $-1 -59.249855037079989 0 10.294094426753324 0 -1 0 I I #
point $-1 -59.249855037079989 32.871400791454008 10.294094426753324 #
point $-1 -59.249855037079989 -32.871400791454008 10.294094426753324 #
straight-curve $-1 59.249855037079989 -32.871400791454008 0 0 0 -1 I I #
straight-curve $-1 59.249855037079989 32.871400791454008 0 0 0 -1 I I #
plane-surface $-1 0 -32.871400791454008 0 0 1 0 0 0 1 forward_v I I I I #
coedge $-1 $452 $284 $296 $403 reversed $180 $-1 #
coedge $-1 $284 $452 $299 $405 reversed $180 $-1 #
edge $-1 $453 -59.249855037079989 $293 -48.318787795787053 $289 $454 forward 7 unknown #
straight-curve $-1 -48.318787795787053 -15.685700395727004 10.294094426753324 0 1 0 I I #
coedge $-1 $296 $287 $290 $399 forward $282 $-1 #
straight-curve $-1 -48.318787795787053 -15.685700395727004 -10.294094426753324 0 -1 0 I I #
coedge $-1 $290 $289 $452 $455 forward $291 $-1 #
edge $-1 $292 48.318787795787053 $456 59.249855037079989 $290 $457 forward 7 unknown #
point $-1 -48.318787795787053 -32.871400791454008 -10.294094426753324 #
point $-1 -48.318787795787053 -32.871400791454008 10.294094426753324 #
straight-curve $-1 -59.249855037079989 -29.871400791454008 0 0 0 -1 I I #
edge $-1 $456 -32.871400791454008 $297 -29.871400791454008 $392 $458 forward 7 unknown #
point $-1 -59.249855037079989 -29.871400791454008 -10.294094426753324 #
edge $-1 $300 29.871400791454008 $453 32.871400791454008 $393 $459 forward 7 unknown #
point $-1 -59.249855037079989 -29.871400791454008 10.294094426753324 #
plane-surface $-1 59.249855037079989 0 0 -1 0 0 0 0 1 forward_v I I I I #
coedge $-1 $460 $307 $319 $419 reversed $196 $-1 #
coedge $-1 $307 $460 $322 $421 reversed $196 $-1 #
edge $-1 $461 -32.871400791454008 $316 -29.871400791454008 $312 $462 forward 7 unknown #
straight-curve $-1 26.89216070821676 -29.871400791454008 10.294094426753324 -1 0 0 I I #
coedge $-1 $319 $310 $313 $415 forward $305 $-1 #
straight-curve $-1 26.89216070821676 -29.871400791454008 -10.294094426753324 1 0 0 I I #
coedge $-1 $313 $312 $460 $463 forward $314 $-1 #
edge $-1 $315 29.871400791454008 $464 32.871400791454008 $313 $465 forward 7 unknown #
point $-1 59.249855037079989 -29.871400791454008 -10.294094426753324 #
point $-1 59.249855037079989 -29.871400791454008 10.294094426753324 #
straight-curve $-1 48.318787795787053 -32.871400791454008 0 0 0 -1 I I #
edge $-1 $464 -59.249855037079989 $320 -48.318787795787053 $408 $466 forward 7 unknown #
point $-1 48.318787795787053 -32.871400791454008 -10.294094426753324 #
edge $-1 $323 48.318787795787053 $461 59.249855037079989 $409 $467 forward 7 unknown #
point $-1 48.318787795787053 -32.871400791454008 10.294094426753324 #
edge $-1 $424 52.537869913033092 $427 58.990026545318273 $328 $468 forward 7 unknown #
vertex $-1 $342 $469 #
straight-curve $-1 -33.83362124047175 46.116080213120888 10.294094426753325 0 1 0 I I #
edge $-1 $427 13.295518981407049 $339 27.780685536722352 $338 $470 forward 7 unknown #
vertex $-1 $426 $471 #
straight-curve $-1 -33.83362124047175 -4.8371202925154648 57.695288643133409 0 -0.57357642473473569 0.81915205242281985 I I #
point $-1 -33.83362124047175 28.353552216175807 10.294094426753325 #
point $-1 -48.318787795787053 32.871400791454008 3.8419377944681443 #
straight-curve $-1 0 32.871400791454008 10.294094426753324 -1 0 0 I I #
vertex $-1 $345 $472 #
point $-1 -43.180168779982679 29.423134821817285 6.2352301245040991 #
vertex $-1 $349 $473 #
point $-1 -36.972240256276123 29.423134821817285 6.2352301245040991 #
coedge $-1 $364 $363 $356 $437 forward $353 $-1 #
edge $-1 $438 37.843171851255356 $441 47.731012353974606 $436 $474 forward 7 unknown #
vertex $-1 $368 $475 #
straight-curve $-1 -27.284079678056962 -51.261891831916188 10.294094426753325 0 -1 0 I I #
edge $-1 $441 -20.496135167078286 $365 6.9202461451209345 $364 $476 forward 7 unknown #
vertex $-1 $440 $477 #
straight-curve $-1 -27.284079678056962 -32.871400791454008 0.40625392403407545 0 0.80901698891910034 0.5877852598018023 I I #
point $-1 -27.284079678056962 -19.261956156657263 10.294094426753324 #
point $-1 0.13230163414225871 -32.871400791454008 0.40625392403407545 #
straight-curve $-1 0 -32.871400791454008 10.294094426753324 1 0 0 I I #
vertex $-1 $371 $478 #
point $-1 -9.5758890219573516 -21.830936482830321 -0.47982440731113041 #
straight-curve $-1 -59.249855037079989 32.871400791454008 0 0 0 -1 I I #
point $-1 -59.249855037079989 -32.871400791454008 -10.294094426753324 #
straight-curve $-1 -59.249855037079989 0 -10.294094426753324 0 1 0 I I #
point $-1 -59.249855037079989 32.871400791454008 -10.294094426753324 #
coedge $-1 $393 $392 $398 $455 reversed $180 $-1 #
vertex $-1 $405 $479 #
straight-curve $-1 0 -32.871400791454008 10.294094426753324 1 0 0 I I #
edge $-1 $453 -10.294094426753324 $456 10.294094426753324 $452 $480 forward 7 unknown #
vertex $-1 $403 $481 #
straight-curve $-1 0 -32.871400791454008 -10.294094426753324 -1 0 0 I I #
straight-curve $-1 -59.249855037079989 0 -10.294094426753324 0 1 0 I I #
straight-curve $-1 -59.249855037079989 0 10.294094426753324 0 -1 0 I I #
coedge $-1 $409 $408 $414 $463 reversed $196 $-1 #
vertex $-1 $410 $482 #
straight-curve $-1 59.249855037079989 0 10.294094426753324 0 1 0 I I #
edge $-1 $461 -10.294094426753324 $464 10.294094426753324 $414 $483 forward 7 unknown #
vertex $-1 $463 $484 #
straight-curve $-1 59.249855037079989 0 -10.294094426753324 0 -1 0 I I #
straight-curve $-1 0 -32.871400791454008 -10.294094426753324 -1 0 0 I I #
straight-curve $-1 0 -32.871400791454008 10.294094426753324 1 0 0 I I #
straight-curve $-1 -33.83362124047175 32.871400791454008 62.831964339786417 0 0 -1 I I #
point $-1 -33.83362124047175 32.871400791454008 10.294094426753324 #
straight-curve $-1 -20.538102259064701 32.871400791454015 3.8419377944681337 -1 0 0 I I #
point $-1 -33.83362124047175 32.871400791454008 3.8419377944681443 #
point $-1 -44.180168779982679 28.603982769394463 5.6616536997693636 #
point $-1 -37.972240256276123 28.603982769394463 5.6616536997693636 #
straight-curve $-1 -27.284079678056962 -32.871400791454008 48.137266278008681 0 0 -1 I I #
point $-1 -27.284079678056962 -32.871400791454008 10.294094426753324 #
straight-curve $-1 -6.7879445109786758 -32.871400791454008 0.40625392403407362 1 0 0 I I #
point $-1 -27.284079678056962 -32.871400791454008 0.40625392403407545 #
point $-1 -13.575889021957352 -19.479795443623114 -3.7158923629875327 #
point $-1 -59.249855037079989 -32.871400791454008 10.294094426753324 #
straight-curve $-1 -59.249855037079989 -32.871400791454008 0 0 0 -1 I I #
point $-1 -59.249855037079989 -32.871400791454008 -10.294094426753324 #
point $-1 59.249855037079989 -32.871400791454008 10.294094426753324 #
straight-curve $-1 59.249855037079989 -32.871400791454008 0 0 0 -1 I I #
point $-1 59.249855037079989 -32.871400791454008 -10.294094426753324 #
End-of-ACIS-data 