500 0 16 0           
7 Unknown 11 ACIS 5.0 NT 24 Thu Mar 25 21:29:17 1999 
-1 9.9999999999999995e-007 1e-010 
body $-1 $16 $-1 $17 #
body $-1 $18 $-1 $19 #
body $-1 $20 $-1 $21 #
body $-1 $22 $-1 $23 #
body $-1 $24 $-1 $25 #
body $-1 $26 $-1 $27 #
body $-1 $28 $-1 $29 #
body $-1 $30 $-1 $31 #
body $-1 $32 $-1 $33 #
body $-1 $34 $-1 $35 #
body $-1 $36 $-1 $37 #
body $-1 $38 $-1 $39 #
body $-1 $40 $-1 $41 #
body $-1 $42 $-1 $43 #
body $-1 $44 $-1 $45 #
body $-1 $46 $-1 $47 #
lump $-1 $-1 $48 $0 #
transform $-1 1 0 0 0 1 0 0 0 1 44.349497970519117 30.653221997342623 11.820485606543853 1 rotate no_reflect no_shear #
lump $-1 $-1 $49 $1 #
transform $-1 1 0 0 0 1 0 0 0 1 44.349497970519117 30.653221997342623 11.820485606543853 1 rotate no_reflect no_shear #
lump $-1 $-1 $50 $2 #
transform $-1 1 0 0 0 1 0 0 0 1 44.349497970519117 30.653221997342623 11.820485606543853 1 rotate no_reflect no_shear #
lump $-1 $-1 $51 $3 #
transform $-1 1 0 0 0 1 0 0 0 1 44.349497970519117 30.653221997342623 11.820485606543853 1 rotate no_reflect no_shear #
lump $-1 $-1 $52 $4 #
transform $-1 1 0 0 0 1 0 0 0 1 44.349497970519117 30.653221997342623 11.820485606543853 1 rotate no_reflect no_shear #
lump $-1 $-1 $53 $5 #
transform $-1 1 0 0 0 1 0 0 0 1 44.349497970519117 30.653221997342623 11.820485606543853 1 rotate no_reflect no_shear #
lump $-1 $-1 $54 $6 #
transform $-1 1 0 0 0 1 0 0 0 1 44.349497970519117 30.653221997342623 11.820485606543853 1 rotate no_reflect no_shear #
lump $-1 $-1 $55 $7 #
transform $-1 1 0 0 0 1 0 0 0 1 44.349497970519117 30.653221997342623 11.820485606543853 1 rotate no_reflect no_shear #
lump $-1 $-1 $56 $8 #
transform $-1 1 0 0 0 1 0 0 0 1 44.349497970519117 30.653221997342623 11.820485606543853 1 rotate no_reflect no_shear #
lump $-1 $-1 $57 $9 #
transform $-1 1 0 0 0 1 0 0 0 1 44.349497970519117 30.653221997342623 11.820485606543853 1 rotate no_reflect no_shear #
lump $-1 $-1 $58 $10 #
transform $-1 1 0 0 0 1 0 0 0 1 44.349497970519117 30.653221997342623 11.820485606543853 1 rotate no_reflect no_shear #
lump $-1 $-1 $59 $11 #
transform $-1 1 0 0 0 1 0 0 0 1 44.349497970519117 30.653221997342623 11.820485606543853 1 rotate no_reflect no_shear #
lump $-1 $-1 $60 $12 #
transform $-1 1 0 0 0 1 0 0 0 1 44.349497970519117 30.653221997342623 11.820485606543853 1 rotate no_reflect no_shear #
lump $-1 $-1 $61 $13 #
transform $-1 1 0 0 0 1 0 0 0 1 44.349497970519117 30.653221997342623 11.820485606543853 1 rotate no_reflect no_shear #
lump $-1 $-1 $62 $14 #
transform $-1 1 0 0 0 1 0 0 0 1 44.349497970519117 30.653221997342623 11.820485606543853 1 rotate no_reflect no_shear #
lump $-1 $-1 $63 $15 #
transform $-1 1 0 0 0 1 0 0 0 1 44.349497970519117 30.653221997342623 11.820485606543853 1 rotate no_reflect no_shear #
shell $-1 $-1 $-1 $64 $-1 $16 #
shell $-1 $-1 $-1 $65 $-1 $18 #
shell $-1 $-1 $-1 $66 $-1 $20 #
shell $-1 $-1 $-1 $67 $-1 $22 #
shell $-1 $-1 $-1 $68 $-1 $24 #
shell $-1 $-1 $-1 $69 $-1 $26 #
shell $-1 $-1 $-1 $70 $-1 $28 #
shell $-1 $-1 $-1 $71 $-1 $30 #
shell $-1 $-1 $-1 $72 $-1 $32 #
shell $-1 $-1 $-1 $73 $-1 $34 #
shell $-1 $-1 $-1 $74 $-1 $36 #
shell $-1 $-1 $-1 $75 $-1 $38 #
shell $-1 $-1 $-1 $76 $-1 $40 #
shell $-1 $-1 $-1 $77 $-1 $42 #
shell $-1 $-1 $-1 $78 $-1 $44 #
shell $-1 $-1 $-1 $79 $-1 $46 #
face $-1 $80 $81 $48 $-1 $82 forward single #
face $-1 $83 $84 $49 $-1 $85 forward single #
face $-1 $86 $87 $50 $-1 $88 reversed single #
face $-1 $89 $90 $51 $-1 $91 forward single #
face $-1 $92 $93 $52 $-1 $94 forward single #
face $-1 $95 $96 $53 $-1 $97 reversed single #
face $-1 $98 $99 $54 $-1 $100 forward single #
face $-1 $101 $102 $55 $-1 $103 forward single #
face $-1 $104 $105 $56 $-1 $106 reversed single #
face $-1 $107 $108 $57 $-1 $109 forward single #
face $-1 $110 $111 $58 $-1 $112 forward single #
face $-1 $113 $114 $59 $-1 $115 reversed single #
face $-1 $116 $117 $60 $-1 $118 forward single #
face $-1 $119 $120 $61 $-1 $121 forward single #
face $-1 $122 $123 $62 $-1 $124 reversed single #
face $-1 $125 $126 $63 $-1 $127 forward single #
face $-1 $128 $129 $48 $-1 $130 reversed single #
loop $-1 $-1 $131 $64 #
plane-surface $-1 0 0 11.820485606543853 0 0 1 1 0 0 forward_v I I I I #
face $-1 $132 $133 $49 $-1 $134 reversed single #
loop $-1 $-1 $135 $65 #
plane-surface $-1 0 -26.413182389507611 -5.1961508431244123 0 0 1 1 0 0 forward_v I I I I #
face $-1 $136 $137 $50 $-1 $138 reversed single #
loop $-1 $-1 $139 $66 #
plane-surface $-1 55.282256949823712 -11.182310058709618 133.37492325562366 0 -1 0 -0.7660444514056185 0 -0.64278759981090561 forward_v I I I I #
face $-1 $140 $141 $51 $-1 $142 forward single #
loop $-1 $143 $144 $67 #
cone-surface $-1 42.536838496252216 -17.424882518308188 9.7953164349487789 -0.7660444514056185 0 -0.64278759981090561 0.3213937999054528 0 -0.38302222570280925 1 I I 0 1 0.5 forward I I I I #
face $-1 $145 $146 $52 $-1 $147 forward single #
loop $-1 $148 $149 $68 #
cone-surface $-1 42.536838496252216 -13.679339042549046 9.7953164349487789 -0.7660444514056185 0 -0.64278759981090561 0.3213937999054528 0 -0.38302222570280925 1 I I 0 1 0.5 forward I I I I #
face $-1 $150 $151 $53 $-1 $152 reversed single #
loop $-1 $-1 $153 $69 #
plane-surface $-1 55.282256949823712 2.0124568667994671 133.37492325562366 0 -1 0 -0.7660444514056185 0 -0.64278759981090561 forward_v I I I I #
face $-1 $154 $155 $54 $-1 $156 forward single #
loop $-1 $157 $158 $70 #
cone-surface $-1 42.536838496252216 -4.2301155927990983 9.7953164349487789 -0.7660444514056185 0 -0.64278759981090561 0.3213937999054528 0 -0.38302222570280925 1 I I 0 1 0.5 forward I I I I #
face $-1 $159 $160 $55 $-1 $161 forward single #
loop $-1 $162 $163 $71 #
cone-surface $-1 42.536838496252216 -0.48457211703995995 9.7953164349487789 -0.7660444514056185 0 -0.64278759981090561 0.3213937999054528 0 -0.38302222570280925 1 I I 0 1 0.5 forward I I I I #
face $-1 $164 $165 $56 $-1 $166 reversed single #
loop $-1 $-1 $167 $72 #
plane-surface $-1 55.282256949823712 15.207223792308554 133.37492325562366 0 -1 0 -0.7660444514056185 0 -0.64278759981090561 forward_v I I I I #
face $-1 $168 $169 $57 $-1 $170 forward single #
loop $-1 $171 $172 $73 #
cone-surface $-1 42.536838496252216 8.9646513327099875 9.7953164349487789 -0.7660444514056185 0 -0.64278759981090561 0.3213937999054528 0 -0.38302222570280925 1 I I 0 1 0.5 forward I I I I #
face $-1 $173 $174 $58 $-1 $175 forward single #
loop $-1 $176 $177 $74 #
cone-surface $-1 42.536838496252216 12.710194808469129 9.7953164349487789 -0.7660444514056185 0 -0.64278759981090561 0.3213937999054528 0 -0.38302222570280925 1 I I 0 1 0.5 forward I I I I #
face $-1 $178 $179 $59 $-1 $180 reversed single #
loop $-1 $-1 $181 $75 #
plane-surface $-1 55.282256949823712 28.40199071781764 133.37492325562366 0 -1 0 -0.7660444514056185 0 -0.64278759981090561 forward_v I I I I #
face $-1 $182 $183 $60 $-1 $184 forward single #
loop $-1 $185 $186 $76 #
cone-surface $-1 42.536838496252216 22.159418258219073 9.7953164349487789 -0.7660444514056185 0 -0.64278759981090561 0.3213937999054528 0 -0.38302222570280925 1 I I 0 1 0.5 forward I I I I #
face $-1 $187 $188 $61 $-1 $189 forward single #
loop $-1 $190 $191 $77 #
cone-surface $-1 42.536838496252216 25.904961733978215 9.7953164349487789 -0.7660444514056185 0 -0.64278759981090561 0.3213937999054528 0 -0.38302222570280925 1 I I 0 1 0.5 forward I I I I #
face $-1 $192 $193 $62 $-1 $194 reversed single #
loop $-1 $-1 $195 $78 #
plane-surface $-1 -102.54127582768763 12.372740926468712 74.887605745138288 0 1 0 -0.6560590369687036 0 0.75470957328743171 forward_v I I I I #
face $-1 $196 $197 $63 $-1 $198 forward single #
loop $-1 $199 $200 $79 #
cone-surface $-1 -41.545268329572167 16.610529402762307 9.2210516740489297 0.6560590369687036 0 -0.75470957328743171 0.75470957328743171 0 0.6560590369687036 1 I I 0 1 1 forward I I I I #
face $-1 $201 $202 $48 $-1 $203 reversed single #
loop $-1 $-1 $204 $80 #
plane-surface $-1 0 0 -11.820485606543853 0 0 1 1 0 0 forward_v I I I I #
coedge $-1 $205 $206 $207 $208 forward $81 $-1 #
face $-1 $209 $210 $49 $-1 $211 reversed single #
loop $-1 $-1 $212 $83 #
plane-surface $-1 0 -22.173142781672595 -8.5083182248341327 0 -1 0 0 0 -1 forward_v I I I I #
coedge $-1 $213 $214 $215 $216 reversed $84 $-1 #
face $-1 $217 $218 $50 $-1 $219 reversed single #
loop $-1 $-1 $220 $86 #
plane-surface $-1 -12.665116736058103 -15.552110780428617 76.360308549046437 0.7660444514056185 0 0.64278759981090561 0.64278759981090561 0 -0.7660444514056185 forward_v I I I I #
coedge $-1 $221 $222 $223 $224 reversed $87 $-1 #
face $-1 $-1 $225 $51 $-1 $226 forward single #
loop $-1 $227 $228 $89 #
cone-surface $-1 41.962305157698005 -17.424882518308188 9.3132257350905991 -0.7660444514056185 0 -0.64278759981090561 0.1606968999527264 0 -0.19151111285140462 1 I I -0.70710678118654746 0.70710678118654746 0.25 forward I I I I #
loop $-1 $-1 $229 $67 #
coedge $-1 $144 $144 $230 $231 reversed $90 $-1 #
face $-1 $-1 $232 $52 $-1 $233 forward single #
loop $-1 $234 $235 $92 #
cone-surface $-1 41.962305157698005 -13.679339042549046 9.3132257350905991 -0.7660444514056185 0 -0.64278759981090561 0.1606968999527264 0 -0.19151111285140462 1 I I -0.70710678118654746 0.70710678118654746 0.25 forward I I I I #
loop $-1 $-1 $236 $68 #
coedge $-1 $149 $149 $237 $238 reversed $93 $-1 #
face $-1 $239 $240 $53 $-1 $241 reversed single #
loop $-1 $-1 $242 $95 #
plane-surface $-1 -12.665116736058103 -2.3573438549195309 76.360308549046437 0.7660444514056185 0 0.64278759981090561 0.64278759981090561 0 -0.7660444514056185 forward_v I I I I #
coedge $-1 $243 $244 $245 $246 reversed $96 $-1 #
face $-1 $-1 $247 $54 $-1 $248 forward single #
loop $-1 $249 $250 $98 #
cone-surface $-1 41.962305157698005 -4.2301155927990983 9.3132257350905991 -0.7660444514056185 0 -0.64278759981090561 0.1606968999527264 0 -0.19151111285140462 1 I I -0.70710678118654746 0.70710678118654746 0.25 forward I I I I #
loop $-1 $-1 $251 $70 #
coedge $-1 $158 $158 $252 $253 reversed $99 $-1 #
face $-1 $-1 $254 $55 $-1 $255 forward single #
loop $-1 $256 $257 $101 #
cone-surface $-1 41.962305157698005 -0.48457211703995995 9.3132257350905991 -0.7660444514056185 0 -0.64278759981090561 0.1606968999527264 0 -0.19151111285140462 1 I I -0.70710678118654746 0.70710678118654746 0.25 forward I I I I #
loop $-1 $-1 $258 $71 #
coedge $-1 $163 $163 $259 $260 reversed $102 $-1 #
face $-1 $261 $262 $56 $-1 $263 reversed single #
loop $-1 $-1 $264 $104 #
plane-surface $-1 -12.665116736058103 10.837423070589555 76.360308549046437 0.7660444514056185 0 0.64278759981090561 0.64278759981090561 0 -0.7660444514056185 forward_v I I I I #
coedge $-1 $265 $266 $267 $268 reversed $105 $-1 #
face $-1 $-1 $269 $57 $-1 $270 forward single #
loop $-1 $271 $272 $107 #
cone-surface $-1 41.962305157698005 8.9646513327099875 9.3132257350905991 -0.7660444514056185 0 -0.64278759981090561 0.1606968999527264 0 -0.19151111285140462 1 I I -0.70710678118654746 0.70710678118654746 0.25 forward I I I I #
loop $-1 $-1 $273 $73 #
coedge $-1 $172 $172 $274 $275 reversed $108 $-1 #
face $-1 $-1 $276 $58 $-1 $277 forward single #
loop $-1 $278 $279 $110 #
cone-surface $-1 41.962305157698005 12.710194808469129 9.3132257350905991 -0.7660444514056185 0 -0.64278759981090561 0.1606968999527264 0 -0.19151111285140462 1 I I -0.70710678118654746 0.70710678118654746 0.25 forward I I I I #
loop $-1 $-1 $280 $74 #
coedge $-1 $177 $177 $281 $282 reversed $111 $-1 #
face $-1 $283 $284 $59 $-1 $285 reversed single #
loop $-1 $-1 $286 $113 #
plane-surface $-1 -12.665116736058103 24.032189996098641 76.360308549046437 0.7660444514056185 0 0.64278759981090561 0.64278759981090561 0 -0.7660444514056185 forward_v I I I I #
coedge $-1 $287 $288 $289 $290 reversed $114 $-1 #
face $-1 $-1 $291 $60 $-1 $292 forward single #
loop $-1 $293 $294 $116 #
cone-surface $-1 41.962305157698005 22.159418258219073 9.3132257350905991 -0.7660444514056185 0 -0.64278759981090561 0.1606968999527264 0 -0.19151111285140462 1 I I -0.70710678118654746 0.70710678118654746 0.25 forward I I I I #
loop $-1 $-1 $295 $76 #
coedge $-1 $186 $186 $296 $297 reversed $117 $-1 #
face $-1 $-1 $298 $61 $-1 $299 forward single #
loop $-1 $300 $301 $119 #
cone-surface $-1 41.962305157698005 25.904961733978215 9.3132257350905991 -0.7660444514056185 0 -0.64278759981090561 0.1606968999527264 0 -0.19151111285140462 1 I I -0.70710678118654746 0.70710678118654746 0.25 forward I I I I #
loop $-1 $-1 $302 $77 #
coedge $-1 $191 $191 $303 $304 reversed $120 $-1 #
face $-1 $305 $306 $62 $-1 $307 reversed single #
loop $-1 $-1 $308 $122 #
plane-surface $-1 -44.349497970519131 16.610529402762307 7.9456243674536893 -0.6560590369687036 0 0.75470957328743171 0.75470957328743171 0 0.6560590369687036 forward_v I I I I #
coedge $-1 $309 $310 $311 $312 reversed $123 $-1 #
face $-1 $-1 $313 $63 $-1 $314 forward single #
loop $-1 $315 $316 $125 #
cone-surface $-1 -40.6417680984637 16.610529402762307 8.1816935744553749 0.6560590369687036 0 -0.75470957328743171 0.37735478664371586 0 0.3280295184843518 1 I I -0.70710678118654746 0.70710678118654746 0.5 forward I I I I #
loop $-1 $-1 $317 $79 #
coedge $-1 $200 $200 $318 $319 reversed $126 $-1 #
face $-1 $320 $321 $48 $-1 $322 reversed single #
loop $-1 $-1 $323 $128 #
plane-surface $-1 0 -30.653221997342623 0 0 1 0 0 0 1 forward_v I I I I #
coedge $-1 $324 $325 $326 $327 forward $129 $-1 #
coedge $-1 $328 $131 $329 $330 forward $81 $-1 #
coedge $-1 $131 $328 $331 $332 forward $81 $-1 #
coedge $-1 $333 $334 $131 $208 reversed $335 $-1 #
edge $-1 $336 -30.653221997342623 $337 30.653221997342623 $207 $338 forward 7 unknown #
face $-1 $339 $340 $49 $-1 $341 reversed single #
loop $-1 $-1 $342 $132 #
plane-surface $-1 0 0 -11.820485606543853 0 0 1 1 0 0 forward_v I I I I #
coedge $-1 $343 $344 $345 $346 reversed $133 $-1 #
coedge $-1 $347 $135 $344 $348 forward $84 $-1 #
coedge $-1 $135 $347 $349 $350 reversed $84 $-1 #
coedge $-1 $351 $345 $135 $216 forward $340 $-1 #
edge $-1 $352 8.96655158691879 $353 17.446630802588821 $215 $354 forward 7 unknown #
face $-1 $355 $356 $50 $-1 $357 reversed single #
loop $-1 $-1 $358 $136 #
plane-surface $-1 55.282256949823712 -19.921911502147616 133.37492325562366 0 1 0 0.7660444514056185 0 0.64278759981090561 forward_v I I I I #
coedge $-1 $359 $360 $361 $362 reversed $137 $-1 #
coedge $-1 $222 $139 $363 $364 reversed $87 $-1 #
coedge $-1 $139 $221 $359 $365 reversed $87 $-1 #
coedge $-1 $361 $366 $139 $224 forward $367 $-1 #
edge $-1 $368 -16.708369495607261 $369 -13.849094998479121 $223 $370 forward 7 unknown #
loop $-1 $-1 $230 $140 #
plane-surface $-1 -12.665116736058103 -15.552110780428617 76.360308549046437 0.7660444514056185 0 0.64278759981090561 0.64278759981090561 0 -0.7660444514056185 forward_v I I I I #
loop $-1 $-1 $371 $89 #
coedge $-1 $228 $228 $229 $372 reversed $141 $-1 #
coedge $-1 $229 $229 $228 $372 forward $143 $-1 #
coedge $-1 $230 $230 $144 $231 forward $225 $-1 #
edge $-1 $373 0 $373 6.2831853071796004 $230 $374 forward 7 unknown #
loop $-1 $-1 $237 $145 #
plane-surface $-1 -12.665116736058103 -15.552110780428617 76.360308549046437 0.7660444514056185 0 0.64278759981090561 0.64278759981090561 0 -0.7660444514056185 forward_v I I I I #
loop $-1 $-1 $375 $92 #
coedge $-1 $235 $235 $236 $376 reversed $146 $-1 #
coedge $-1 $236 $236 $235 $376 forward $148 $-1 #
coedge $-1 $237 $237 $149 $238 forward $232 $-1 #
edge $-1 $377 0 $377 6.2831853071796004 $237 $378 forward 7 unknown #
face $-1 $379 $380 $53 $-1 $381 reversed single #
loop $-1 $-1 $382 $150 #
plane-surface $-1 55.282256949823712 -6.7271445766385289 133.37492325562366 0 1 0 0.7660444514056185 0 0.64278759981090561 forward_v I I I I #
coedge $-1 $383 $384 $385 $386 reversed $151 $-1 #
coedge $-1 $244 $153 $387 $388 reversed $96 $-1 #
coedge $-1 $153 $243 $383 $389 reversed $96 $-1 #
coedge $-1 $385 $390 $153 $246 forward $391 $-1 #
edge $-1 $392 -16.708369495607261 $393 -13.849094998479121 $245 $394 forward 7 unknown #
loop $-1 $-1 $252 $154 #
plane-surface $-1 -12.665116736058103 -2.3573438549195309 76.360308549046437 0.7660444514056185 0 0.64278759981090561 0.64278759981090561 0 -0.7660444514056185 forward_v I I I I #
loop $-1 $-1 $395 $98 #
coedge $-1 $250 $250 $251 $396 reversed $155 $-1 #
coedge $-1 $251 $251 $250 $396 forward $157 $-1 #
coedge $-1 $252 $252 $158 $253 forward $247 $-1 #
edge $-1 $397 0 $397 6.2831853071796004 $252 $398 forward 7 unknown #
loop $-1 $-1 $259 $159 #
plane-surface $-1 -12.665116736058103 -2.3573438549195309 76.360308549046437 0.7660444514056185 0 0.64278759981090561 0.64278759981090561 0 -0.7660444514056185 forward_v I I I I #
loop $-1 $-1 $399 $101 #
coedge $-1 $257 $257 $258 $400 reversed $160 $-1 #
coedge $-1 $258 $258 $257 $400 forward $162 $-1 #
coedge $-1 $259 $259 $163 $260 forward $254 $-1 #
edge $-1 $401 0 $401 6.2831853071796004 $259 $402 forward 7 unknown #
face $-1 $403 $404 $56 $-1 $405 reversed single #
loop $-1 $-1 $406 $164 #
plane-surface $-1 55.282256949823712 6.4676223488705569 133.37492325562366 0 1 0 0.7660444514056185 0 0.64278759981090561 forward_v I I I I #
coedge $-1 $407 $408 $409 $410 reversed $165 $-1 #
coedge $-1 $266 $167 $411 $412 reversed $105 $-1 #
coedge $-1 $167 $265 $407 $413 reversed $105 $-1 #
coedge $-1 $409 $414 $167 $268 forward $415 $-1 #
edge $-1 $416 -16.708369495607261 $417 -13.849094998479121 $267 $418 forward 7 unknown #
loop $-1 $-1 $274 $168 #
plane-surface $-1 -12.665116736058103 10.837423070589555 76.360308549046437 0.7660444514056185 0 0.64278759981090561 0.64278759981090561 0 -0.7660444514056185 forward_v I I I I #
loop $-1 $-1 $419 $107 #
coedge $-1 $272 $272 $273 $420 reversed $169 $-1 #
coedge $-1 $273 $273 $272 $420 forward $171 $-1 #
coedge $-1 $274 $274 $172 $275 forward $269 $-1 #
edge $-1 $421 0 $421 6.2831853071796004 $274 $422 forward 7 unknown #
loop $-1 $-1 $281 $173 #
plane-surface $-1 -12.665116736058103 10.837423070589555 76.360308549046437 0.7660444514056185 0 0.64278759981090561 0.64278759981090561 0 -0.7660444514056185 forward_v I I I I #
loop $-1 $-1 $423 $110 #
coedge $-1 $279 $279 $280 $424 reversed $174 $-1 #
coedge $-1 $280 $280 $279 $424 forward $176 $-1 #
coedge $-1 $281 $281 $177 $282 forward $276 $-1 #
edge $-1 $425 0 $425 6.2831853071796004 $281 $426 forward 7 unknown #
face $-1 $427 $428 $59 $-1 $429 reversed single #
loop $-1 $-1 $430 $178 #
plane-surface $-1 55.282256949823712 19.662389274379642 133.37492325562366 0 1 0 0.7660444514056185 0 0.64278759981090561 forward_v I I I I #
coedge $-1 $431 $432 $433 $434 reversed $179 $-1 #
coedge $-1 $288 $181 $435 $436 reversed $114 $-1 #
coedge $-1 $181 $287 $431 $437 reversed $114 $-1 #
coedge $-1 $433 $438 $181 $290 forward $439 $-1 #
edge $-1 $440 -16.708369495607261 $441 -13.849094998479121 $289 $442 forward 7 unknown #
loop $-1 $-1 $296 $182 #
plane-surface $-1 -12.665116736058103 24.032189996098641 76.360308549046437 0.7660444514056185 0 0.64278759981090561 0.64278759981090561 0 -0.7660444514056185 forward_v I I I I #
loop $-1 $-1 $443 $116 #
coedge $-1 $294 $294 $295 $444 reversed $183 $-1 #
coedge $-1 $295 $295 $294 $444 forward $185 $-1 #
coedge $-1 $296 $296 $186 $297 forward $291 $-1 #
edge $-1 $445 0 $445 6.2831853071796004 $296 $446 forward 7 unknown #
loop $-1 $-1 $303 $187 #
plane-surface $-1 -12.665116736058103 24.032189996098641 76.360308549046437 0.7660444514056185 0 0.64278759981090561 0.64278759981090561 0 -0.7660444514056185 forward_v I I I I #
loop $-1 $-1 $447 $119 #
coedge $-1 $301 $301 $302 $448 reversed $188 $-1 #
coedge $-1 $302 $302 $301 $448 forward $190 $-1 #
coedge $-1 $303 $303 $191 $304 forward $298 $-1 #
edge $-1 $449 0 $449 6.2831853071796004 $303 $450 forward 7 unknown #
face $-1 $451 $452 $62 $-1 $453 forward single #
loop $-1 $-1 $454 $192 #
plane-surface $-1 -102.54127582768763 20.848317879055902 74.887605745138288 0 -1 0 0.6560590369687036 0 -0.75470957328743171 forward_v I I I I #
coedge $-1 $455 $456 $457 $458 reversed $193 $-1 #
coedge $-1 $310 $195 $459 $460 reversed $123 $-1 #
coedge $-1 $195 $309 $455 $461 reversed $123 $-1 #
coedge $-1 $457 $462 $195 $312 forward $452 $-1 #
edge $-1 $463 6.9211399433246967 $464 11.378657799970334 $311 $465 forward 7 unknown #
loop $-1 $-1 $318 $196 #
plane-surface $-1 -44.349497970519131 16.610529402762307 7.9456243674536893 -0.6560590369687036 0 0.75470957328743171 0.75470957328743171 0 0.6560590369687036 forward_v I I I I #
loop $-1 $-1 $466 $125 #
coedge $-1 $316 $316 $317 $467 reversed $197 $-1 #
coedge $-1 $317 $317 $316 $467 forward $199 $-1 #
coedge $-1 $318 $318 $200 $319 forward $313 $-1 #
edge $-1 $468 0 $468 6.2831853071796004 $318 $469 forward 7 unknown #
face $-1 $470 $471 $48 $-1 $472 reversed single #
loop $-1 $-1 $473 $201 #
plane-surface $-1 -44.349497970519117 0 0 1 0 0 0 0 -1 forward_v I I I I #
coedge $-1 $474 $331 $475 $476 forward $202 $-1 #
coedge $-1 $477 $204 $474 $478 forward $129 $-1 #
coedge $-1 $204 $477 $479 $480 forward $129 $-1 #
coedge $-1 $334 $333 $204 $327 reversed $335 $-1 #
edge $-1 $481 -30.653221997342623 $482 30.653221997342623 $326 $483 forward 7 unknown #
coedge $-1 $206 $205 $484 $485 forward $81 $-1 #
coedge $-1 $486 $487 $205 $330 reversed $471 $-1 #
edge $-1 $337 -44.349497970519117 $488 44.349497970519117 $329 $489 forward 7 unknown #
coedge $-1 $323 $490 $206 $332 reversed $202 $-1 #
edge $-1 $491 -44.349497970519117 $336 44.349497970519117 $331 $492 forward 7 unknown #
coedge $-1 $326 $207 $490 $493 forward $335 $-1 #
coedge $-1 $207 $326 $486 $494 reversed $335 $-1 #
loop $-1 $-1 $333 $470 #
vertex $-1 $208 $495 #
vertex $-1 $208 $496 #
straight-curve $-1 44.349497970519117 0 11.820485606543853 0 1 0 I I #
face $-1 $497 $498 $49 $-1 $499 reversed single #
loop $-1 $-1 $345 $209 #
plane-surface $-1 44.349497970519117 0 0 -1 0 0 0 0 1 forward_v I I I I #
coedge $-1 $500 $501 $343 $502 forward $210 $-1 #
coedge $-1 $503 $212 $342 $502 reversed $133 $-1 #
coedge $-1 $212 $503 $213 $348 reversed $133 $-1 #
coedge $-1 $215 $504 $212 $346 forward $340 $-1 #
edge $-1 $505 -7.5663264941267867 $352 -0.94199173070734599 $345 $506 forward 7 unknown #
coedge $-1 $214 $213 $507 $508 reversed $84 $-1 #
edge $-1 $352 -44.349497970519117 $509 44.349497970519117 $344 $510 forward 7 unknown #
coedge $-1 $511 $512 $214 $350 forward $498 $-1 #
edge $-1 $353 -44.349497970519117 $513 44.349497970519117 $349 $514 forward 7 unknown #
coedge $-1 $504 $215 $512 $515 forward $340 $-1 #
vertex $-1 $216 $516 #
vertex $-1 $515 $517 #
straight-curve $-1 44.349497970519117 -13.206591194753805 -5.1961508431244123 0 -1 0 I I #
face $-1 $-1 $367 $50 $-1 $518 forward single #
loop $-1 $-1 $519 $217 #
plane-surface $-1 44.349497970519117 0 0 -1 0 0 0 0 1 forward_v I I I I #
coedge $-1 $520 $521 $522 $523 reversed $218 $-1 #
coedge $-1 $524 $220 $222 $365 forward $137 $-1 #
coedge $-1 $220 $524 $520 $525 forward $137 $-1 #
coedge $-1 $522 $223 $220 $362 forward $367 $-1 #
edge $-1 $369 3.4062546684953094 $526 12.145856111933307 $361 $527 forward 7 unknown #
coedge $-1 $528 $529 $221 $364 forward $356 $-1 #
edge $-1 $530 -58.274526764647192 $368 -54.866976021267973 $363 $531 forward 7 unknown #
edge $-1 $369 84.250754409979962 $530 88.698995941038234 $222 $532 forward 7 unknown #
coedge $-1 $223 $522 $528 $533 forward $367 $-1 #
loop $-1 $-1 $522 $355 #
vertex $-1 $364 $534 #
vertex $-1 $224 $535 #
straight-curve $-1 27.641128474911856 -11.182310058709618 11.820485606543855 -1 0 0 I I #
coedge $-1 $371 $371 $-1 $536 reversed $227 $-1 #
edge $-1 $537 0 $537 6.2831853071796004 $228 $538 forward 7 unknown #
vertex $-1 $231 $539 #
ellipse-curve $-1 42.919860721955047 -17.424882518308188 10.116710234854249 0.7660444514056185 0 0.64278759981090561 0.3213937999054528 0 -0.38302222570280925 1 I I #
coedge $-1 $375 $375 $-1 $540 reversed $234 $-1 #
edge $-1 $541 0 $541 6.2831853071796004 $235 $542 forward 7 unknown #
vertex $-1 $238 $543 #
ellipse-curve $-1 42.919860721955047 -13.679339042549046 10.116710234854249 0.7660444514056185 0 0.64278759981090561 0.3213937999054528 0 -0.38302222570280925 1 I I #
face $-1 $-1 $391 $53 $-1 $544 forward single #
loop $-1 $-1 $545 $239 #
plane-surface $-1 44.349497970519117 0 0 -1 0 0 0 0 1 forward_v I I I I #
coedge $-1 $546 $547 $548 $549 reversed $240 $-1 #
coedge $-1 $550 $242 $244 $389 forward $151 $-1 #
coedge $-1 $242 $550 $546 $551 forward $151 $-1 #
coedge $-1 $548 $245 $242 $386 forward $391 $-1 #
edge $-1 $393 -3.1911287942592326 $552 5.5484726491787635 $385 $553 forward 7 unknown #
coedge $-1 $554 $555 $243 $388 forward $380 $-1 #
edge $-1 $556 -58.274526764647192 $392 -54.866976021267973 $387 $557 forward 7 unknown #
edge $-1 $393 84.250754409979962 $556 88.698995941038234 $244 $558 forward 7 unknown #
coedge $-1 $245 $548 $554 $559 forward $391 $-1 #
loop $-1 $-1 $548 $379 #
vertex $-1 $388 $560 #
vertex $-1 $246 $561 #
straight-curve $-1 27.641128474911856 2.0124568667994671 11.820485606543855 -1 0 0 I I #
coedge $-1 $395 $395 $-1 $562 reversed $249 $-1 #
edge $-1 $563 0 $563 6.2831853071796004 $250 $564 forward 7 unknown #
vertex $-1 $253 $565 #
ellipse-curve $-1 42.919860721955047 -4.2301155927990983 10.116710234854249 0.7660444514056185 0 0.64278759981090561 0.3213937999054528 0 -0.38302222570280925 1 I I #
coedge $-1 $399 $399 $-1 $566 reversed $256 $-1 #
edge $-1 $567 0 $567 6.2831853071796004 $257 $568 forward 7 unknown #
vertex $-1 $260 $569 #
ellipse-curve $-1 42.919860721955047 -0.48457211703995995 10.116710234854249 0.7660444514056185 0 0.64278759981090561 0.3213937999054528 0 -0.38302222570280925 1 I I #
face $-1 $-1 $415 $56 $-1 $570 forward single #
loop $-1 $-1 $571 $261 #
plane-surface $-1 44.349497970519117 0 0 -1 0 0 0 0 1 forward_v I I I I #
coedge $-1 $572 $573 $574 $575 reversed $262 $-1 #
coedge $-1 $576 $264 $266 $413 forward $165 $-1 #
coedge $-1 $264 $576 $572 $577 forward $165 $-1 #
coedge $-1 $574 $267 $264 $410 forward $415 $-1 #
edge $-1 $417 -9.7885122570137764 $578 -1.0489108135757794 $409 $579 forward 7 unknown #
coedge $-1 $580 $581 $265 $412 forward $404 $-1 #
edge $-1 $582 -58.274526764647192 $416 -54.866976021267973 $411 $583 forward 7 unknown #
edge $-1 $417 84.250754409979962 $582 88.698995941038234 $266 $584 forward 7 unknown #
coedge $-1 $267 $574 $580 $585 forward $415 $-1 #
loop $-1 $-1 $574 $403 #
vertex $-1 $412 $586 #
vertex $-1 $268 $587 #
straight-curve $-1 27.641128474911856 15.207223792308554 11.820485606543855 -1 0 0 I I #
coedge $-1 $419 $419 $-1 $588 reversed $271 $-1 #
edge $-1 $589 0 $589 6.2831853071796004 $272 $590 forward 7 unknown #
vertex $-1 $275 $591 #
ellipse-curve $-1 42.919860721955047 8.9646513327099875 10.116710234854249 0.7660444514056185 0 0.64278759981090561 0.3213937999054528 0 -0.38302222570280925 1 I I #
coedge $-1 $423 $423 $-1 $592 reversed $278 $-1 #
edge $-1 $593 0 $593 6.2831853071796004 $279 $594 forward 7 unknown #
vertex $-1 $282 $595 #
ellipse-curve $-1 42.919860721955047 12.710194808469129 10.116710234854249 0.7660444514056185 0 0.64278759981090561 0.3213937999054528 0 -0.38302222570280925 1 I I #
face $-1 $-1 $439 $59 $-1 $596 forward single #
loop $-1 $-1 $597 $283 #
plane-surface $-1 44.349497970519117 0 0 -1 0 0 0 0 1 forward_v I I I I #
coedge $-1 $598 $599 $600 $601 reversed $284 $-1 #
coedge $-1 $602 $286 $288 $437 forward $179 $-1 #
coedge $-1 $286 $602 $598 $603 forward $179 $-1 #
coedge $-1 $600 $289 $286 $434 forward $439 $-1 #
edge $-1 $441 -16.385895719768321 $604 -7.6462942763303214 $433 $605 forward 7 unknown #
coedge $-1 $606 $607 $287 $436 forward $428 $-1 #
edge $-1 $608 -58.274526764647192 $440 -54.866976021267973 $435 $609 forward 7 unknown #
edge $-1 $441 84.250754409979962 $608 88.698995941038234 $288 $610 forward 7 unknown #
coedge $-1 $289 $600 $606 $611 forward $439 $-1 #
loop $-1 $-1 $600 $427 #
vertex $-1 $436 $612 #
vertex $-1 $290 $613 #
straight-curve $-1 27.641128474911856 28.40199071781764 11.820485606543855 -1 0 0 I I #
coedge $-1 $443 $443 $-1 $614 reversed $293 $-1 #
edge $-1 $615 0 $615 6.2831853071796004 $294 $616 forward 7 unknown #
vertex $-1 $297 $617 #
ellipse-curve $-1 42.919860721955047 22.159418258219073 10.116710234854249 0.7660444514056185 0 0.64278759981090561 0.3213937999054528 0 -0.38302222570280925 1 I I #
coedge $-1 $447 $447 $-1 $618 reversed $300 $-1 #
edge $-1 $619 0 $619 6.2831853071796004 $301 $620 forward 7 unknown #
vertex $-1 $304 $621 #
ellipse-curve $-1 42.919860721955047 25.904961733978215 10.116710234854249 0.7660444514056185 0 0.64278759981090561 0.3213937999054528 0 -0.38302222570280925 1 I I #
face $-1 $-1 $622 $62 $-1 $623 reversed single #
loop $-1 $-1 $311 $305 #
plane-surface $-1 0 0 11.820485606543853 0 0 1 1 0 0 forward_v I I I I #
coedge $-1 $624 $625 $626 $627 reversed $306 $-1 #
coedge $-1 $628 $308 $310 $461 forward $193 $-1 #
coedge $-1 $308 $628 $624 $629 forward $193 $-1 #
coedge $-1 $626 $311 $308 $458 forward $452 $-1 #
edge $-1 $464 4.0674762250875585 $630 12.543053177674748 $457 $631 forward 7 unknown #
coedge $-1 $632 $633 $309 $460 forward $622 $-1 #
edge $-1 $634 -29.49817850511544 $463 -25.623317266025289 $459 $635 forward 7 unknown #
edge $-1 $464 -5.9062691324149972 $634 -1.888283279974768e-014 $310 $636 forward 7 unknown #
coedge $-1 $311 $626 $632 $637 forward $452 $-1 #
vertex $-1 $460 $638 #
vertex $-1 $312 $639 #
straight-curve $-1 -51.270637913843814 12.372740926468712 11.820485606543855 1 0 0 I I #
coedge $-1 $466 $466 $-1 $640 reversed $315 $-1 #
edge $-1 $641 0 $641 6.2831853071796004 $316 $642 forward 7 unknown #
vertex $-1 $319 $643 #
ellipse-curve $-1 -42.120739042196298 16.610529402762307 9.8830549869987792 -0.6560590369687036 0 0.75470957328743171 0.75470957328743171 0 0.6560590369687036 1 I I #
face $-1 $-1 $335 $48 $-1 $644 reversed single #
loop $-1 $-1 $486 $320 #
plane-surface $-1 0 30.653221997342623 0 0 -1 0 0 0 -1 forward_v I I I I #
coedge $-1 $645 $484 $487 $646 forward $321 $-1 #
coedge $-1 $490 $323 $324 $478 reversed $202 $-1 #
coedge $-1 $484 $645 $323 $476 reversed $321 $-1 #
edge $-1 $491 -11.820485606543853 $647 11.820485606543853 $475 $648 forward 7 unknown #
coedge $-1 $325 $324 $645 $649 forward $129 $-1 #
edge $-1 $482 -44.349497970519117 $647 44.349497970519117 $474 $650 forward 7 unknown #
coedge $-1 $487 $486 $325 $480 reversed $471 $-1 #
edge $-1 $651 -44.349497970519117 $481 44.349497970519117 $479 $652 forward 7 unknown #
vertex $-1 $327 $653 #
vertex $-1 $493 $654 #
straight-curve $-1 44.349497970519117 0 -11.820485606543853 0 -1 0 I I #
coedge $-1 $473 $475 $328 $485 reversed $321 $-1 #
edge $-1 $488 -30.653221997342623 $491 30.653221997342623 $484 $655 forward 7 unknown #
coedge $-1 $479 $329 $334 $494 forward $471 $-1 #
coedge $-1 $329 $479 $473 $646 reversed $471 $-1 #
vertex $-1 $330 $656 #
straight-curve $-1 0 30.653221997342623 11.820485606543853 -1 0 0 I I #
coedge $-1 $331 $474 $333 $493 reversed $202 $-1 #
vertex $-1 $485 $657 #
straight-curve $-1 0 -30.653221997342623 11.820485606543853 1 0 0 I I #
edge $-1 $336 -11.820485606543853 $482 11.820485606543853 $333 $658 forward 7 unknown #
edge $-1 $337 -11.820485606543853 $481 11.820485606543853 $334 $659 forward 7 unknown #
point $-1 44.349497970519117 -30.653221997342623 11.820485606543853 #
point $-1 44.349497970519117 30.653221997342623 11.820485606543853 #
face $-1 $-1 $660 $49 $-1 $661 reversed single #
loop $-1 $-1 $349 $339 #
plane-surface $-1 0 -30.653221997342623 0 0 1 0 0 0 1 forward_v I I I I #
coedge $-1 $662 $342 $504 $663 forward $210 $-1 #
coedge $-1 $342 $662 $664 $665 forward $210 $-1 #
edge $-1 $666 -44.349497970519117 $505 44.349497970519117 $342 $667 forward 7 unknown #
coedge $-1 $344 $343 $668 $669 reversed $133 $-1 #
coedge $-1 $345 $351 $500 $663 reversed $340 $-1 #
vertex $-1 $663 $670 #
straight-curve $-1 44.349497970519117 -22.173142781672595 -4.2541591124170663 0 0 1 I I #
coedge $-1 $668 $671 $347 $508 forward $660 $-1 #
edge $-1 $513 -17.446630802588821 $509 -8.96655158691879 $507 $672 forward 7 unknown #
vertex $-1 $508 $673 #
straight-curve $-1 0 -22.173142781672595 -5.1961508431244123 -1 0 0 I I #
coedge $-1 $674 $349 $671 $675 forward $498 $-1 #
coedge $-1 $349 $674 $351 $515 reversed $498 $-1 #
vertex $-1 $675 $676 #
straight-curve $-1 0 -30.653221997342623 -5.1961508431244123 -1 0 0 I I #
edge $-1 $353 5.1961508431244123 $677 11.820485606543853 $351 $678 forward 7 unknown #
point $-1 44.349497970519117 -22.173142781672595 -5.1961508431244123 #
point $-1 44.349497970519117 -30.653221997342627 -5.1961508431244123 #
plane-surface $-1 0 0 11.820485606543853 0 0 1 1 0 0 forward_v I I I I #
coedge $-1 $529 $528 $521 $679 forward $356 $-1 #
coedge $-1 $521 $358 $360 $525 reversed $218 $-1 #
coedge $-1 $358 $520 $519 $679 reversed $218 $-1 #
coedge $-1 $366 $361 $358 $523 forward $367 $-1 #
edge $-1 $526 13.849094998479121 $680 16.708369495607261 $522 $681 forward 7 unknown #
coedge $-1 $360 $359 $529 $682 reversed $137 $-1 #
edge $-1 $683 -88.698995941038234 $526 -84.250754409979962 $520 $684 forward 7 unknown #
vertex $-1 $362 $685 #
straight-curve $-1 41.490223473390984 -7.7760553902143084 11.820485606543855 0 -1 0 I I #
coedge $-1 $519 $363 $366 $533 reversed $356 $-1 #
coedge $-1 $363 $519 $524 $682 forward $356 $-1 #
vertex $-1 $364 $686 #
straight-curve $-1 44.349497970519117 -11.182310058709618 66.687461627811828 0 0 1 I I #
straight-curve $-1 -12.665116736058103 -11.182310058709618 76.360308549046437 0.64278759981090561 0 -0.7660444514056185 I I #
edge $-1 $680 -19.921911502147616 $368 -11.182310058709618 $528 $687 forward 7 unknown #
point $-1 44.349497970519117 -11.182310058709618 11.820485606543853 #
point $-1 41.490223473390976 -11.182310058709618 11.820485606543855 #
edge $-1 $688 1 $688 0 $371 $-1 forward 7 unknown #
vertex $-1 $372 $689 #
ellipse-curve $-1 42.153816270549406 -17.424882518308188 9.4739226350433263 0.7660444514056185 0 0.64278759981090561 0.3213937999054528 0 -0.38302222570280925 1 I I #
point $-1 43.241254521860483 -17.424882518308188 9.7336880091514217 #
edge $-1 $690 1 $690 0 $375 $-1 forward 7 unknown #
vertex $-1 $376 $691 #
ellipse-curve $-1 42.153816270549406 -13.679339042549046 9.4739226350433263 0.7660444514056185 0 0.64278759981090561 0.3213937999054528 0 -0.38302222570280925 1 I I #
point $-1 43.241254521860483 -13.679339042549046 9.7336880091514217 #
plane-surface $-1 0 0 11.820485606543853 0 0 1 1 0 0 forward_v I I I I #
coedge $-1 $555 $554 $547 $692 forward $380 $-1 #
coedge $-1 $547 $382 $384 $551 reversed $240 $-1 #
coedge $-1 $382 $546 $545 $692 reversed $240 $-1 #
coedge $-1 $390 $385 $382 $549 forward $391 $-1 #
edge $-1 $552 13.849094998479121 $693 16.708369495607261 $548 $694 forward 7 unknown #
coedge $-1 $384 $383 $555 $695 reversed $151 $-1 #
edge $-1 $696 -88.698995941038234 $552 -84.250754409979962 $546 $697 forward 7 unknown #
vertex $-1 $386 $698 #
straight-curve $-1 41.490223473390984 -1.1786719274597655 11.820485606543855 0 -1 0 I I #
coedge $-1 $545 $387 $390 $559 reversed $380 $-1 #
coedge $-1 $387 $545 $550 $695 forward $380 $-1 #
vertex $-1 $388 $699 #
straight-curve $-1 44.349497970519117 2.0124568667994671 66.687461627811828 0 0 1 I I #
straight-curve $-1 -12.665116736058103 2.0124568667994671 76.360308549046437 0.64278759981090561 0 -0.7660444514056185 I I #
edge $-1 $693 -6.7271445766385289 $392 2.0124568667994671 $554 $700 forward 7 unknown #
point $-1 44.349497970519117 2.0124568667994671 11.820485606543853 #
point $-1 41.490223473390976 2.0124568667994671 11.820485606543855 #
edge $-1 $701 1 $701 0 $395 $-1 forward 7 unknown #
vertex $-1 $396 $702 #
ellipse-curve $-1 42.153816270549406 -4.2301155927990983 9.4739226350433263 0.7660444514056185 0 0.64278759981090561 0.3213937999054528 0 -0.38302222570280925 1 I I #
point $-1 43.241254521860483 -4.2301155927990983 9.7336880091514217 #
edge $-1 $703 1 $703 0 $399 $-1 forward 7 unknown #
vertex $-1 $400 $704 #
ellipse-curve $-1 42.153816270549406 -0.48457211703995995 9.4739226350433263 0.7660444514056185 0 0.64278759981090561 0.3213937999054528 0 -0.38302222570280925 1 I I #
point $-1 43.241254521860483 -0.48457211703995995 9.7336880091514217 #
plane-surface $-1 0 0 11.820485606543853 0 0 1 1 0 0 forward_v I I I I #
coedge $-1 $581 $580 $573 $705 forward $404 $-1 #
coedge $-1 $573 $406 $408 $577 reversed $262 $-1 #
coedge $-1 $406 $572 $571 $705 reversed $262 $-1 #
coedge $-1 $414 $409 $406 $575 forward $415 $-1 #
edge $-1 $578 13.849094998479121 $706 16.708369495607261 $574 $707 forward 7 unknown #
coedge $-1 $408 $407 $581 $708 reversed $165 $-1 #
edge $-1 $709 -88.698995941038234 $578 -84.250754409979962 $572 $710 forward 7 unknown #
vertex $-1 $410 $711 #
straight-curve $-1 41.490223473390984 5.4187115352947774 11.820485606543855 0 -1 0 I I #
coedge $-1 $571 $411 $414 $585 reversed $404 $-1 #
coedge $-1 $411 $571 $576 $708 forward $404 $-1 #
vertex $-1 $412 $712 #
straight-curve $-1 44.349497970519117 15.207223792308554 66.687461627811828 0 0 1 I I #
straight-curve $-1 -12.665116736058103 15.207223792308554 76.360308549046437 0.64278759981090561 0 -0.7660444514056185 I I #
edge $-1 $706 6.4676223488705569 $416 15.207223792308554 $580 $713 forward 7 unknown #
point $-1 44.349497970519117 15.207223792308554 11.820485606543853 #
point $-1 41.490223473390976 15.207223792308554 11.820485606543855 #
edge $-1 $714 1 $714 0 $419 $-1 forward 7 unknown #
vertex $-1 $420 $715 #
ellipse-curve $-1 42.153816270549406 8.9646513327099875 9.4739226350433263 0.7660444514056185 0 0.64278759981090561 0.3213937999054528 0 -0.38302222570280925 1 I I #
point $-1 43.241254521860483 8.9646513327099875 9.7336880091514217 #
edge $-1 $716 1 $716 0 $423 $-1 forward 7 unknown #
vertex $-1 $424 $717 #
ellipse-curve $-1 42.153816270549406 12.710194808469129 9.4739226350433263 0.7660444514056185 0 0.64278759981090561 0.3213937999054528 0 -0.38302222570280925 1 I I #
point $-1 43.241254521860483 12.710194808469129 9.7336880091514217 #
plane-surface $-1 0 0 11.820485606543853 0 0 1 1 0 0 forward_v I I I I #
coedge $-1 $607 $606 $599 $718 forward $428 $-1 #
coedge $-1 $599 $430 $432 $603 reversed $284 $-1 #
coedge $-1 $430 $598 $597 $718 reversed $284 $-1 #
coedge $-1 $438 $433 $430 $601 forward $439 $-1 #
edge $-1 $604 13.849094998479121 $719 16.708369495607261 $600 $720 forward 7 unknown #
coedge $-1 $432 $431 $607 $721 reversed $179 $-1 #
edge $-1 $722 -88.698995941038234 $604 -84.250754409979962 $598 $723 forward 7 unknown #
vertex $-1 $434 $724 #
straight-curve $-1 41.490223473390984 12.01609499804932 11.820485606543855 0 -1 0 I I #
coedge $-1 $597 $435 $438 $611 reversed $428 $-1 #
coedge $-1 $435 $597 $602 $721 forward $428 $-1 #
vertex $-1 $436 $725 #
straight-curve $-1 44.349497970519117 28.40199071781764 66.687461627811828 0 0 1 I I #
straight-curve $-1 -12.665116736058103 28.40199071781764 76.360308549046437 0.64278759981090561 0 -0.7660444514056185 I I #
edge $-1 $719 19.662389274379642 $440 28.40199071781764 $606 $726 forward 7 unknown #
point $-1 44.349497970519117 28.40199071781764 11.820485606543853 #
point $-1 41.490223473390976 28.40199071781764 11.820485606543855 #
edge $-1 $727 1 $727 0 $443 $-1 forward 7 unknown #
vertex $-1 $444 $728 #
ellipse-curve $-1 42.153816270549406 22.159418258219073 9.4739226350433263 0.7660444514056185 0 0.64278759981090561 0.3213937999054528 0 -0.38302222570280925 1 I I #
point $-1 43.241254521860483 22.159418258219073 9.7336880091514217 #
edge $-1 $729 1 $729 0 $447 $-1 forward 7 unknown #
vertex $-1 $448 $730 #
ellipse-curve $-1 42.153816270549406 25.904961733978215 9.4739226350433263 0.7660444514056185 0 0.64278759981090561 0.3213937999054528 0 -0.38302222570280925 1 I I #
point $-1 43.241254521860483 25.904961733978215 9.7336880091514217 #
loop $-1 $-1 $459 $451 #
plane-surface $-1 -44.349497970519117 0 0 1 0 0 0 0 -1 forward_v I I I I #
coedge $-1 $625 $454 $456 $629 reversed $306 $-1 #
coedge $-1 $454 $624 $731 $732 reversed $306 $-1 #
coedge $-1 $462 $457 $454 $627 forward $452 $-1 #
edge $-1 $630 -11.378657799970334 $733 -6.9211399433246967 $626 $734 forward 7 unknown #
coedge $-1 $456 $455 $633 $735 reversed $193 $-1 #
edge $-1 $736 1.888283279974768e-014 $630 5.9062691324149972 $624 $737 forward 7 unknown #
vertex $-1 $458 $738 #
straight-curve $-1 -39.89198011387348 8.3052647013811534 11.820485606543855 0 1 0 I I #
coedge $-1 $731 $459 $462 $637 reversed $622 $-1 #
coedge $-1 $459 $731 $628 $735 forward $622 $-1 #
vertex $-1 $460 $739 #
straight-curve $-1 -44.349497970519117 12.372740926468712 37.443802872569144 0 0 1 I I #
straight-curve $-1 -44.349497970519131 12.372740926468712 7.9456243674536893 -0.75470957328743171 0 -0.6560590369687036 I I #
edge $-1 $733 -20.848317879055902 $463 -12.372740926468712 $632 $740 forward 7 unknown #
point $-1 -44.349497970519117 12.372740926468712 11.820485606543853 #
point $-1 -39.89198011387348 12.372740926468712 11.820485606543853 #
edge $-1 $741 1 $741 0 $466 $-1 forward 7 unknown #
vertex $-1 $467 $742 #
ellipse-curve $-1 -40.96979761694805 16.610529402762307 8.5590483610990908 -0.6560590369687036 0 0.75470957328743171 0.75470957328743171 0 0.6560590369687036 1 I I #
point $-1 -41.366029468908856 16.610529402762307 10.539114023967471 #
plane-surface $-1 44.349497970519117 0 0 -1 0 0 0 0 1 forward_v I I I I #
coedge $-1 $475 $473 $477 $649 reversed $321 $-1 #
edge $-1 $488 -11.820485606543853 $651 11.820485606543853 $487 $743 forward 7 unknown #
vertex $-1 $649 $744 #
straight-curve $-1 -44.349497970519117 -30.653221997342623 0 0 0 -1 I I #
edge $-1 $647 -30.653221997342623 $651 30.653221997342623 $645 $745 forward 7 unknown #
straight-curve $-1 0 -30.653221997342623 -11.820485606543853 -1 0 0 I I #
vertex $-1 $480 $746 #
straight-curve $-1 0 30.653221997342623 -11.820485606543853 1 0 0 I I #
point $-1 44.349497970519117 30.653221997342623 -11.820485606543853 #
point $-1 44.349497970519117 -30.653221997342623 -11.820485606543853 #
straight-curve $-1 -44.349497970519117 0 11.820485606543853 0 -1 0 I I #
point $-1 -44.349497970519117 30.653221997342623 11.820485606543853 #
point $-1 -44.349497970519117 -30.653221997342623 11.820485606543853 #
straight-curve $-1 44.349497970519117 -30.653221997342623 0 0 0 -1 I I #
straight-curve $-1 44.349497970519117 30.653221997342623 0 0 0 -1 I I #
loop $-1 $-1 $668 $497 #
plane-surface $-1 -44.349497970519117 0 0 1 0 0 0 0 -1 forward_v I I I I #
coedge $-1 $501 $500 $674 $747 forward $210 $-1 #
edge $-1 $505 22.173142781672595 $677 30.653221997342623 $504 $748 forward 7 unknown #
coedge $-1 $671 $668 $501 $665 reversed $660 $-1 #
edge $-1 $749 -30.653221997342623 $666 -22.173142781672595 $664 $750 forward 7 unknown #
vertex $-1 $669 $751 #
straight-curve $-1 0 -22.173142781672595 -11.820485606543853 1 0 0 I I #
coedge $-1 $664 $507 $503 $669 forward $660 $-1 #
edge $-1 $509 0.94199173070734599 $666 7.5663264941267867 $668 $752 forward 7 unknown #
point $-1 44.349497970519117 -22.173142781672595 -11.820485606543853 #
coedge $-1 $507 $664 $511 $675 reversed $660 $-1 #
straight-curve $-1 -44.349497970519117 -13.206591194753805 -5.1961508431244123 0 1 0 I I #
point $-1 -44.349497970519117 -22.173142781672595 -5.1961508431244123 #
coedge $-1 $512 $511 $662 $747 reversed $498 $-1 #
edge $-1 $513 5.1961508431244123 $749 11.820485606543853 $671 $753 forward 7 unknown #
point $-1 -44.349497970519117 -30.653221997342627 -5.1961508431244123 #
vertex $-1 $515 $754 #
straight-curve $-1 44.349497970519117 -30.653221997342623 0 0 0 -1 I I #
edge $-1 $680 54.866976021267973 $683 58.274526764647192 $519 $755 forward 7 unknown #
vertex $-1 $533 $756 #
straight-curve $-1 27.641128474911856 -19.921911502147616 11.820485606543855 1 0 0 I I #
edge $-1 $683 -12.145856111933307 $530 -3.4062546684953094 $529 $757 forward 7 unknown #
vertex $-1 $682 $758 #
straight-curve $-1 -12.665116736058103 -19.921911502147616 76.360308549046437 -0.64278759981090561 0 0.7660444514056185 I I #
point $-1 41.490223473390976 -19.921911502147616 11.820485606543855 #
point $-1 44.349497970519117 -11.182310058709618 8.4129348631646366 #
straight-curve $-1 44.349497970519117 0 11.820485606543853 0 1 0 I I #
vertex $-1 $536 $759 #
point $-1 42.475210070454864 -17.424882518308188 9.0909004093405166 #
vertex $-1 $540 $760 #
point $-1 42.475210070454864 -13.679339042549046 9.0909004093405166 #
edge $-1 $693 54.866976021267973 $696 58.274526764647192 $545 $761 forward 7 unknown #
vertex $-1 $559 $762 #
straight-curve $-1 27.641128474911856 -6.7271445766385289 11.820485606543855 1 0 0 I I #
edge $-1 $696 -5.5484726491787635 $556 3.1911287942592326 $555 $763 forward 7 unknown #
vertex $-1 $695 $764 #
straight-curve $-1 -12.665116736058103 -6.7271445766385289 76.360308549046437 -0.64278759981090561 0 0.7660444514056185 I I #
point $-1 41.490223473390976 -6.7271445766385289 11.820485606543855 #
point $-1 44.349497970519117 2.0124568667994671 8.4129348631646366 #
straight-curve $-1 44.349497970519117 0 11.820485606543853 0 1 0 I I #
vertex $-1 $562 $765 #
point $-1 42.475210070454864 -4.2301155927990983 9.0909004093405166 #
vertex $-1 $566 $766 #
point $-1 42.475210070454864 -0.48457211703995995 9.0909004093405166 #
edge $-1 $706 54.866976021267973 $709 58.274526764647192 $571 $767 forward 7 unknown #
vertex $-1 $585 $768 #
straight-curve $-1 27.641128474911856 6.4676223488705569 11.820485606543855 1 0 0 I I #
edge $-1 $709 1.0489108135757794 $582 9.7885122570137764 $581 $769 forward 7 unknown #
vertex $-1 $708 $770 #
straight-curve $-1 -12.665116736058103 6.4676223488705569 76.360308549046437 -0.64278759981090561 0 0.7660444514056185 I I #
point $-1 41.490223473390976 6.4676223488705569 11.820485606543855 #
point $-1 44.349497970519117 15.207223792308554 8.4129348631646366 #
straight-curve $-1 44.349497970519117 0 11.820485606543853 0 1 0 I I #
vertex $-1 $588 $771 #
point $-1 42.475210070454864 8.9646513327099875 9.0909004093405166 #
vertex $-1 $592 $772 #
point $-1 42.475210070454864 12.710194808469129 9.0909004093405166 #
edge $-1 $719 54.866976021267973 $722 58.274526764647192 $597 $773 forward 7 unknown #
vertex $-1 $611 $774 #
straight-curve $-1 27.641128474911856 19.662389274379642 11.820485606543855 1 0 0 I I #
edge $-1 $722 7.6462942763303214 $608 16.385895719768321 $607 $775 forward 7 unknown #
vertex $-1 $721 $776 #
straight-curve $-1 -12.665116736058103 19.662389274379642 76.360308549046437 -0.64278759981090561 0 0.7660444514056185 I I #
point $-1 41.490223473390976 19.662389274379642 11.820485606543855 #
point $-1 44.349497970519117 28.40199071781764 8.4129348631646366 #
straight-curve $-1 44.349497970519117 0 11.820485606543853 0 1 0 I I #
vertex $-1 $614 $777 #
point $-1 42.475210070454864 22.159418258219073 9.0909004093405166 #
vertex $-1 $618 $778 #
point $-1 42.475210070454864 25.904961733978215 9.0909004093405166 #
coedge $-1 $633 $632 $625 $732 forward $622 $-1 #
edge $-1 $733 25.623317266025289 $736 29.49817850511544 $731 $779 forward 7 unknown #
vertex $-1 $637 $780 #
straight-curve $-1 -51.270637913843814 20.848317879055902 11.820485606543855 -1 0 0 I I #
edge $-1 $736 -12.543053177674748 $634 -4.0674762250875585 $633 $781 forward 7 unknown #
vertex $-1 $735 $782 #
straight-curve $-1 -44.349497970519131 20.848317879055902 7.9456243674536893 0.75470957328743171 0 0.6560590369687036 I I #
point $-1 -39.89198011387348 20.848317879055902 11.820485606543853 #
point $-1 -44.349497970519117 12.372740926468712 7.9456243674537017 #
straight-curve $-1 -44.349497970519117 0 11.820485606543853 0 -1 0 I I #
vertex $-1 $640 $783 #
point $-1 -40.215088043660622 16.610529402762307 9.2151073980677936 #
straight-curve $-1 -44.349497970519117 30.653221997342623 0 0 0 -1 I I #
point $-1 -44.349497970519117 -30.653221997342623 -11.820485606543853 #
straight-curve $-1 -44.349497970519117 0 -11.820485606543853 0 1 0 I I #
point $-1 -44.349497970519117 30.653221997342623 -11.820485606543853 #
edge $-1 $677 -44.349497970519117 $749 44.349497970519117 $674 $784 forward 7 unknown #
straight-curve $-1 44.349497970519117 0 -11.820485606543853 0 -1 0 I I #
vertex $-1 $665 $785 #
straight-curve $-1 -44.349497970519117 0 -11.820485606543853 0 1 0 I I #
point $-1 -44.349497970519117 -22.173142781672595 -11.820485606543853 #
straight-curve $-1 -44.349497970519117 -22.173142781672595 -4.2541591124170663 0 0 -1 I I #
straight-curve $-1 -44.349497970519117 -30.653221997342623 0 0 0 -1 I I #
point $-1 44.349497970519117 -30.653221997342623 -11.820485606543853 #
straight-curve $-1 44.349497970519117 -19.921911502147616 66.687461627811828 0 0 -1 I I #
point $-1 44.349497970519117 -19.921911502147616 11.820485606543853 #
straight-curve $-1 44.34949797051911 -7.7760553902143084 8.4129348631646259 0 1 0 I I #
point $-1 44.349497970519117 -19.921911502147616 8.4129348631646366 #
point $-1 41.770794044846603 -17.424882518308188 9.152528835137872 #
point $-1 41.770794044846603 -13.679339042549046 9.152528835137872 #
straight-curve $-1 44.349497970519117 -6.7271445766385289 66.687461627811828 0 0 -1 I I #
point $-1 44.349497970519117 -6.7271445766385289 11.820485606543853 #
straight-curve $-1 44.34949797051911 -1.1786719274597655 8.4129348631646259 0 1 0 I I #
point $-1 44.349497970519117 -6.7271445766385289 8.4129348631646366 #
point $-1 41.770794044846603 -4.2301155927990983 9.152528835137872 #
point $-1 41.770794044846603 -0.48457211703995995 9.152528835137872 #
straight-curve $-1 44.349497970519117 6.4676223488705569 66.687461627811828 0 0 -1 I I #
point $-1 44.349497970519117 6.4676223488705569 11.820485606543853 #
straight-curve $-1 44.34949797051911 5.4187115352947774 8.4129348631646259 0 1 0 I I #
point $-1 44.349497970519117 6.4676223488705569 8.4129348631646366 #
point $-1 41.770794044846603 8.9646513327099875 9.152528835137872 #
point $-1 41.770794044846603 12.710194808469129 9.152528835137872 #
straight-curve $-1 44.349497970519117 19.662389274379642 66.687461627811828 0 0 -1 I I #
point $-1 44.349497970519117 19.662389274379642 11.820485606543853 #
straight-curve $-1 44.34949797051911 12.01609499804932 8.4129348631646259 0 1 0 I I #
point $-1 44.349497970519117 19.662389274379642 8.4129348631646366 #
point $-1 41.770794044846603 22.159418258219073 9.152528835137872 #
point $-1 41.770794044846603 25.904961733978215 9.152528835137872 #
straight-curve $-1 -44.349497970519117 20.848317879055902 37.443802872569144 0 0 -1 I I #
point $-1 -44.349497970519117 20.848317879055902 11.820485606543853 #
straight-curve $-1 -44.349497970519117 8.3052647013811534 7.9456243674536999 0 -1 0 I I #
point $-1 -44.349497970519117 20.848317879055902 7.9456243674537017 #
point $-1 -40.313738579979351 16.610529402762307 7.804338787811659 #
straight-curve $-1 0 -30.653221997342623 -11.820485606543853 -1 0 0 I I #
point $-1 -44.349497970519117 -30.653221997342623 -11.820485606543853 #
End-of-ACIS-data 