500 0 8 0           
7 Unknown 11 ACIS 5.0 NT 24 Fri Mar 26 19:46:36 1999 
-1 9.9999999999999995e-007 1e-010 
body $-1 $8 $-1 $9 #
body $-1 $10 $-1 $11 #
body $-1 $12 $-1 $13 #
body $-1 $14 $-1 $15 #
body $-1 $16 $-1 $17 #
body $-1 $18 $-1 $19 #
body $-1 $20 $-1 $21 #
body $-1 $22 $-1 $23 #
lump $-1 $-1 $24 $0 #
transform $-1 1 0 0 0 1 0 0 0 1 48.03735465559862 29.897891274005772 13.575086117020266 1 rotate no_reflect no_shear #
lump $-1 $-1 $25 $1 #
transform $-1 1 0 0 0 1 0 0 0 1 48.03735465559862 29.897891274005772 13.575086117020266 1 rotate no_reflect no_shear #
lump $-1 $-1 $26 $2 #
transform $-1 1 0 0 0 1 0 0 0 1 48.03735465559862 29.897891274005772 13.575086117020266 1 rotate no_reflect no_shear #
lump $-1 $-1 $27 $3 #
transform $-1 1 0 0 0 1 0 0 0 1 48.03735465559862 29.897891274005772 13.575086117020266 1 rotate no_reflect no_shear #
lump $-1 $-1 $28 $4 #
transform $-1 1 0 0 0 1 0 0 0 1 48.03735465559862 29.897891274005772 13.575086117020266 1 rotate no_reflect no_shear #
lump $-1 $-1 $29 $5 #
transform $-1 1 0 0 0 1 0 0 0 1 48.03735465559862 29.897891274005772 13.575086117020266 1 rotate no_reflect no_shear #
lump $-1 $-1 $30 $6 #
transform $-1 1 0 0 0 1 0 0 0 1 48.03735465559862 29.897891274005772 13.575086117020266 1 rotate no_reflect no_shear #
lump $-1 $-1 $31 $7 #
transform $-1 1 0 0 0 1 0 0 0 1 48.03735465559862 29.897891274005772 13.575086117020266 1 rotate no_reflect no_shear #
shell $-1 $-1 $-1 $32 $-1 $8 #
shell $-1 $-1 $-1 $33 $-1 $10 #
shell $-1 $-1 $-1 $34 $-1 $12 #
shell $-1 $-1 $-1 $35 $-1 $14 #
shell $-1 $-1 $-1 $36 $-1 $16 #
shell $-1 $-1 $-1 $37 $-1 $18 #
shell $-1 $-1 $-1 $38 $-1 $20 #
shell $-1 $-1 $-1 $39 $-1 $22 #
face $-1 $40 $41 $24 $-1 $42 forward single #
face $-1 $43 $44 $25 $-1 $45 forward single #
face $-1 $46 $47 $26 $-1 $48 reversed single #
face $-1 $49 $50 $27 $-1 $51 forward single #
face $-1 $52 $53 $28 $-1 $54 forward single #
face $-1 $55 $56 $29 $-1 $57 reversed single #
face $-1 $58 $59 $30 $-1 $60 forward single #
face $-1 $61 $62 $31 $-1 $63 forward single #
face $-1 $64 $65 $24 $-1 $66 reversed single #
loop $-1 $-1 $67 $32 #
plane-surface $-1 0 0 13.575086117020266 0 0 1 1 0 0 forward_v I I I I #
face $-1 $68 $69 $25 $-1 $70 reversed single #
loop $-1 $-1 $71 $33 #
plane-surface $-1 -48.03735465559862 0 0 1 0 0 0 0 -1 forward_v I I I I #
face $-1 $72 $73 $26 $-1 $74 reversed single #
loop $-1 $-1 $75 $34 #
plane-surface $-1 -24.558748489323055 -97.832970516699945 72.997835194184105 -1 0 0 0 -0.70710678939079041 0.70710677298230451 forward_v I I I I #
face $-1 $76 $77 $27 $-1 $78 forward single #
loop $-1 $79 $80 $35 #
cone-surface $-1 -32.483645905539973 -24.621485944297461 8.2986807122220245 0 0.70710678939079041 -0.70710677298230451 1 0 0 1 I I 0 1 1 forward I I I I #
face $-1 $81 $82 $28 $-1 $83 forward single #
loop $-1 $84 $85 $36 #
cone-surface $-1 -27.728707455809825 -24.621485944297461 8.2986807122220245 0 0.70710678939079041 -0.70710677298230451 1 0 0 1 I I 0 1 1 forward I I I I #
face $-1 $86 $87 $29 $-1 $88 reversed single #
loop $-1 $-1 $89 $37 #
plane-surface $-1 -14.630432286504231 34.049237502571593 123.22663644718124 1 0 0 0 -0.55919291073839883 -0.82903756765294845 forward_v I I I I #
face $-1 $90 $91 $30 $-1 $92 forward single #
loop $-1 $93 $94 $38 #
cone-surface $-1 -11.676333229841994 27.071721623251829 11.442881991663283 0 -0.55919291073839883 -0.82903756765294845 0.5 0 0 1 I I 0 1 0.5 forward I I I I #
face $-1 $95 $96 $31 $-1 $97 forward single #
loop $-1 $98 $99 $39 #
cone-surface $-1 -7.2451846448486421 27.071721623251829 11.442881991663283 0 -0.55919291073839883 -0.82903756765294845 0.5 0 0 1 I I 0 1 0.5 forward I I I I #
face $-1 $100 $101 $24 $-1 $102 reversed single #
loop $-1 $-1 $103 $40 #
plane-surface $-1 0 0 -13.575086117020266 0 0 1 1 0 0 forward_v I I I I #
coedge $-1 $104 $105 $106 $107 forward $41 $-1 #
face $-1 $108 $109 $25 $-1 $110 reversed single #
loop $-1 $-1 $111 $43 #
plane-surface $-1 0 29.897891274005772 0 0 -1 0 0 0 -1 forward_v I I I I #
coedge $-1 $112 $113 $114 $115 forward $44 $-1 #
face $-1 $116 $117 $26 $-1 $118 reversed single #
loop $-1 $-1 $119 $46 #
plane-surface $-1 -30.106176680674899 -29.897891274005786 5.062757527930458 0 -0.70710678939079041 0.70710677298230451 1 0 0 forward_v I I I I #
coedge $-1 $120 $121 $122 $123 reversed $47 $-1 #
face $-1 $-1 $124 $27 $-1 $125 forward single #
loop $-1 $126 $127 $49 #
cone-surface $-1 -32.483645905539973 -23.247691415673934 6.9248862154775424 0 0.70710678939079041 -0.70710677298230451 0.5 0 0 1 I I -0.70710678118654746 0.70710678118654746 0.5 forward I I I I #
loop $-1 $-1 $128 $35 #
coedge $-1 $80 $80 $129 $130 reversed $50 $-1 #
face $-1 $-1 $131 $28 $-1 $132 forward single #
loop $-1 $133 $134 $52 #
cone-surface $-1 -27.728707455809825 -23.247691415673934 6.9248862154775424 0 0.70710678939079041 -0.70710677298230451 0.5 0 0 1 I I -0.70710678118654746 0.70710678118654746 0.5 forward I I I I #
loop $-1 $-1 $135 $36 #
coedge $-1 $85 $85 $136 $137 reversed $53 $-1 #
face $-1 $138 $139 $29 $-1 $140 reversed single #
loop $-1 $-1 $141 $55 #
plane-surface $-1 -9.460758937345318 -19.675058845502342 43.577093126862195 0 0.55919291073839883 0.82903756765294845 1 0 0 forward_v I I I I #
coedge $-1 $142 $143 $144 $145 reversed $56 $-1 #
face $-1 $-1 $146 $30 $-1 $147 forward single #
loop $-1 $148 $149 $58 #
cone-surface $-1 -11.676333229841994 26.65232694019803 10.821103815923571 0 -0.55919291073839883 -0.82903756765294845 0.25 0 0 1 I I -0.70710678118654746 0.70710678118654746 0.25 forward I I I I #
loop $-1 $-1 $150 $38 #
coedge $-1 $94 $94 $151 $152 reversed $59 $-1 #
face $-1 $-1 $153 $31 $-1 $154 forward single #
loop $-1 $155 $156 $61 #
cone-surface $-1 -7.2451846448486421 26.65232694019803 10.821103815923571 0 -0.55919291073839883 -0.82903756765294845 0.25 0 0 1 I I -0.70710678118654746 0.70710678118654746 0.25 forward I I I I #
loop $-1 $-1 $157 $39 #
coedge $-1 $99 $99 $158 $159 reversed $62 $-1 #
face $-1 $160 $161 $24 $-1 $162 reversed single #
loop $-1 $-1 $163 $64 #
plane-surface $-1 0 -29.897891274005772 0 0 1 0 0 0 1 forward_v I I I I #
coedge $-1 $164 $165 $166 $167 forward $65 $-1 #
coedge $-1 $168 $67 $169 $170 forward $41 $-1 #
coedge $-1 $67 $168 $171 $172 forward $41 $-1 #
coedge $-1 $173 $174 $67 $107 reversed $175 $-1 #
edge $-1 $176 -29.897891274005772 $177 29.897891274005772 $106 $178 forward 7 unknown #
face $-1 $179 $180 $25 $-1 $181 reversed single #
loop $-1 $-1 $114 $68 #
plane-surface $-1 -54.229229547384556 0 5.4446175038874607 0 0 1 1 0 0 forward_v I I I I #
coedge $-1 $182 $183 $112 $184 forward $69 $-1 #
coedge $-1 $185 $71 $111 $184 reversed $44 $-1 #
coedge $-1 $71 $185 $186 $187 reversed $44 $-1 #
coedge $-1 $188 $189 $71 $115 reversed $109 $-1 #
edge $-1 $190 -29.897891274005772 $191 29.897891274005772 $114 $192 forward 7 unknown #
face $-1 $193 $194 $26 $-1 $195 reversed single #
loop $-1 $-1 $196 $72 #
plane-surface $-1 -35.653604872026747 -97.832970516699945 72.997835194184105 1 0 0 0 0.70710678939079041 -0.70710677298230451 forward_v I I I I #
coedge $-1 $197 $198 $199 $200 reversed $73 $-1 #
coedge $-1 $121 $75 $201 $202 reversed $47 $-1 #
coedge $-1 $75 $120 $197 $203 reversed $47 $-1 #
coedge $-1 $199 $204 $75 $123 forward $205 $-1 #
edge $-1 $206 19.0185939843442 $207 27.530922375904531 $122 $208 forward 7 unknown #
loop $-1 $-1 $129 $76 #
plane-surface $-1 -30.106176680674899 -29.897891274005786 5.062757527930458 0 -0.70710678939079041 0.70710677298230451 1 0 0 forward_v I I I I #
loop $-1 $-1 $209 $49 #
coedge $-1 $127 $127 $128 $210 reversed $77 $-1 #
coedge $-1 $128 $128 $127 $210 forward $79 $-1 #
coedge $-1 $129 $129 $80 $130 forward $124 $-1 #
edge $-1 $211 -2.3317860796066896e-022 $211 6.2831853071796004 $129 $212 forward 7 unknown #
loop $-1 $-1 $136 $81 #
plane-surface $-1 -30.106176680674899 -29.897891274005786 5.062757527930458 0 -0.70710678939079041 0.70710677298230451 1 0 0 forward_v I I I I #
loop $-1 $-1 $213 $52 #
coedge $-1 $134 $134 $135 $214 reversed $82 $-1 #
coedge $-1 $135 $135 $134 $214 forward $84 $-1 #
coedge $-1 $136 $136 $85 $137 forward $131 $-1 #
edge $-1 $215 -2.3317860796066896e-022 $215 6.2831853071796004 $136 $216 forward 7 unknown #
face $-1 $217 $218 $29 $-1 $219 forward single #
loop $-1 $-1 $220 $86 #
plane-surface $-1 -4.2910855881864052 34.049237502571593 123.22663644718124 -1 0 0 0 0.55919291073839883 0.82903756765294845 forward_v I I I I #
coedge $-1 $221 $222 $223 $224 reversed $87 $-1 #
coedge $-1 $143 $89 $225 $226 reversed $56 $-1 #
coedge $-1 $89 $142 $221 $227 reversed $56 $-1 #
coedge $-1 $223 $228 $89 $145 forward $218 $-1 #
edge $-1 $229 -12.873272522719976 $230 -7.7801261319505279 $144 $231 forward 7 unknown #
loop $-1 $-1 $151 $90 #
plane-surface $-1 -9.460758937345318 -19.675058845502342 43.577093126862195 0 0.55919291073839883 0.82903756765294845 1 0 0 forward_v I I I I #
loop $-1 $-1 $232 $58 #
coedge $-1 $149 $149 $150 $233 reversed $91 $-1 #
coedge $-1 $150 $150 $149 $233 forward $93 $-1 #
coedge $-1 $151 $151 $94 $152 forward $146 $-1 #
edge $-1 $234 -1.7094895209666595e-015 $234 6.2831853071795987 $151 $235 forward 7 unknown #
loop $-1 $-1 $158 $95 #
plane-surface $-1 -9.460758937345318 -19.675058845502342 43.577093126862195 0 0.55919291073839883 0.82903756765294845 1 0 0 forward_v I I I I #
loop $-1 $-1 $236 $61 #
coedge $-1 $156 $156 $157 $237 reversed $96 $-1 #
coedge $-1 $157 $157 $156 $237 forward $98 $-1 #
coedge $-1 $158 $158 $99 $159 forward $153 $-1 #
edge $-1 $238 -1.7094895209666595e-015 $238 6.2831853071795987 $158 $239 forward 7 unknown #
face $-1 $240 $241 $24 $-1 $242 reversed single #
loop $-1 $-1 $243 $100 #
plane-surface $-1 -48.03735465559862 0 0 1 0 0 0 0 -1 forward_v I I I I #
coedge $-1 $244 $171 $245 $246 forward $101 $-1 #
coedge $-1 $247 $103 $244 $248 forward $65 $-1 #
coedge $-1 $103 $247 $249 $250 forward $65 $-1 #
coedge $-1 $174 $173 $103 $167 reversed $175 $-1 #
edge $-1 $251 -29.897891274005772 $252 29.897891274005772 $166 $253 forward 7 unknown #
coedge $-1 $105 $104 $254 $255 forward $41 $-1 #
coedge $-1 $256 $257 $104 $170 reversed $241 $-1 #
edge $-1 $177 -48.03735465559862 $258 48.03735465559862 $169 $259 forward 7 unknown #
coedge $-1 $163 $260 $105 $172 reversed $101 $-1 #
edge $-1 $261 -48.03735465559862 $176 48.03735465559862 $171 $262 forward 7 unknown #
coedge $-1 $166 $106 $260 $263 forward $175 $-1 #
coedge $-1 $106 $166 $256 $264 reversed $175 $-1 #
loop $-1 $-1 $173 $240 #
vertex $-1 $107 $265 #
vertex $-1 $107 $266 #
straight-curve $-1 48.03735465559862 0 13.575086117020266 0 1 0 I I #
face $-1 $267 $268 $25 $-1 $269 forward single #
loop $-1 $-1 $270 $108 #
plane-surface $-1 -60.421104439170492 0 9.5098518104538634 1 0 0 0 0 -1 forward_v I I I I #
coedge $-1 $271 $111 $189 $272 reversed $69 $-1 #
coedge $-1 $111 $271 $273 $274 reversed $69 $-1 #
edge $-1 $275 -13.575086117020266 $191 -5.4446175038874607 $111 $276 forward 7 unknown #
coedge $-1 $113 $112 $277 $278 reversed $44 $-1 #
coedge $-1 $279 $280 $113 $187 forward $281 $-1 #
edge $-1 $190 5.4446175038874607 $282 13.575086117020266 $186 $283 forward 7 unknown #
coedge $-1 $284 $114 $280 $285 forward $109 $-1 #
coedge $-1 $114 $284 $182 $272 forward $109 $-1 #
vertex $-1 $187 $286 #
vertex $-1 $184 $287 #
straight-curve $-1 -48.03735465559862 0 5.4446175038874607 0 1 0 I I #
face $-1 $-1 $205 $26 $-1 $288 forward single #
loop $-1 $-1 $289 $116 #
plane-surface $-1 0 -29.897891274005772 0 0 1 0 0 0 1 forward_v I I I I #
coedge $-1 $290 $291 $292 $293 reversed $117 $-1 #
coedge $-1 $294 $119 $121 $203 forward $73 $-1 #
coedge $-1 $119 $294 $290 $295 forward $73 $-1 #
coedge $-1 $292 $122 $119 $200 forward $205 $-1 #
edge $-1 $207 9.505660148985605 $296 20.600516531689298 $199 $297 forward 7 unknown #
coedge $-1 $298 $299 $120 $202 forward $194 $-1 #
edge $-1 $300 -31.436160069161581 $206 -22.923831480071787 $201 $301 forward 7 unknown #
edge $-1 $207 -12.038250398392622 $300 -2.0097183471152325e-014 $121 $302 forward 7 unknown #
coedge $-1 $122 $292 $298 $303 forward $205 $-1 #
loop $-1 $-1 $292 $193 #
vertex $-1 $202 $304 #
vertex $-1 $123 $305 #
straight-curve $-1 -24.558748489323055 -48.916485258349972 13.575086117020266 0 1 0 I I #
coedge $-1 $209 $209 $-1 $306 reversed $126 $-1 #
edge $-1 $307 0 $307 6.2831853071796004 $127 $308 forward 7 unknown #
vertex $-1 $130 $309 #
ellipse-curve $-1 -32.483645905539973 -25.641727078225607 9.3189218224753692 0 -0.70710678939079041 0.70710677298230451 1 0 0 1 I I #
coedge $-1 $213 $213 $-1 $310 reversed $133 $-1 #
edge $-1 $311 0 $311 6.2831853071796004 $134 $312 forward 7 unknown #
vertex $-1 $137 $313 #
ellipse-curve $-1 -27.728707455809825 -25.641727078225607 9.3189218224753692 0 -0.70710678939079041 0.70710677298230451 1 0 0 1 I I #
face $-1 $-1 $314 $29 $-1 $315 reversed single #
loop $-1 $-1 $144 $138 #
plane-surface $-1 0 0 13.575086117020266 0 0 1 1 0 0 forward_v I I I I #
coedge $-1 $316 $317 $318 $319 reversed $139 $-1 #
coedge $-1 $320 $141 $143 $227 forward $87 $-1 #
coedge $-1 $141 $320 $316 $321 forward $87 $-1 #
coedge $-1 $318 $144 $141 $224 forward $218 $-1 #
edge $-1 $230 -9.9000528178315719 $322 0.43929388048625384 $223 $323 forward 7 unknown #
coedge $-1 $324 $325 $142 $226 forward $314 $-1 #
edge $-1 $326 -51.47360278963135 $229 -48.038232106570348 $225 $327 forward 7 unknown #
edge $-1 $230 53.652337920781406 $326 59.795782548011545 $143 $328 forward 7 unknown #
coedge $-1 $144 $318 $324 $329 forward $218 $-1 #
vertex $-1 $226 $330 #
vertex $-1 $145 $331 #
straight-curve $-1 -14.630432286504231 17.024618751285796 13.575086117020263 0 -1 0 I I #
coedge $-1 $232 $232 $-1 $332 reversed $148 $-1 #
edge $-1 $333 0 $333 6.2831853071796004 $149 $334 forward 7 unknown #
vertex $-1 $152 $335 #
ellipse-curve $-1 -11.676333229841994 27.351318078621041 11.857400775489776 0 0.55919291073839883 0.82903756765294845 0.5 0 0 1 I I #
coedge $-1 $236 $236 $-1 $336 reversed $155 $-1 #
edge $-1 $337 0 $337 6.2831853071796004 $156 $338 forward 7 unknown #
vertex $-1 $159 $339 #
ellipse-curve $-1 -7.2451846448486421 27.351318078621041 11.857400775489776 0 0.55919291073839883 0.82903756765294845 0.5 0 0 1 I I #
face $-1 $-1 $175 $24 $-1 $340 reversed single #
loop $-1 $-1 $256 $160 #
plane-surface $-1 0 29.897891274005772 0 0 -1 0 0 0 -1 forward_v I I I I #
coedge $-1 $341 $254 $257 $342 forward $161 $-1 #
coedge $-1 $260 $163 $164 $248 reversed $101 $-1 #
coedge $-1 $254 $341 $163 $246 reversed $161 $-1 #
edge $-1 $261 -13.575086117020266 $343 13.575086117020266 $245 $344 forward 7 unknown #
coedge $-1 $165 $164 $341 $345 forward $65 $-1 #
edge $-1 $252 -48.03735465559862 $343 48.03735465559862 $244 $346 forward 7 unknown #
coedge $-1 $257 $256 $165 $250 reversed $241 $-1 #
edge $-1 $347 -48.03735465559862 $251 48.03735465559862 $249 $348 forward 7 unknown #
vertex $-1 $167 $349 #
vertex $-1 $263 $350 #
straight-curve $-1 48.03735465559862 0 -13.575086117020266 0 -1 0 I I #
coedge $-1 $243 $245 $168 $255 reversed $161 $-1 #
edge $-1 $258 -29.897891274005772 $261 29.897891274005772 $254 $351 forward 7 unknown #
coedge $-1 $249 $169 $174 $264 forward $241 $-1 #
coedge $-1 $169 $249 $243 $342 reversed $241 $-1 #
vertex $-1 $170 $352 #
straight-curve $-1 0 29.897891274005772 13.575086117020266 -1 0 0 I I #
coedge $-1 $171 $244 $173 $263 reversed $101 $-1 #
vertex $-1 $255 $353 #
straight-curve $-1 0 -29.897891274005772 13.575086117020266 1 0 0 I I #
edge $-1 $176 -13.575086117020266 $252 13.575086117020266 $173 $354 forward 7 unknown #
edge $-1 $177 -13.575086117020266 $251 13.575086117020266 $174 $355 forward 7 unknown #
point $-1 48.03735465559862 -29.897891274005772 13.575086117020266 #
point $-1 48.03735465559862 29.897891274005772 13.575086117020266 #
face $-1 $-1 $281 $25 $-1 $356 reversed single #
loop $-1 $-1 $277 $179 #
plane-surface $-1 0 0 13.575086117020266 0 0 1 1 0 0 forward_v I I I I #
coedge $-1 $357 $358 $271 $359 forward $180 $-1 #
coedge $-1 $183 $182 $270 $359 reversed $69 $-1 #
edge $-1 $360 -6.1918748917859361 $191 6.1918748917859361 $182 $361 forward 7 unknown #
coedge $-1 $362 $277 $183 $274 forward $268 $-1 #
edge $-1 $275 48.03735465559862 $363 60.421104439170492 $183 $364 forward 7 unknown #
vertex $-1 $274 $365 #
straight-curve $-1 -48.03735465559862 29.897891274005772 0 0 0 -1 I I #
coedge $-1 $273 $366 $185 $278 forward $268 $-1 #
edge $-1 $282 -29.897891274005772 $275 29.897891274005772 $277 $367 forward 7 unknown #
coedge $-1 $368 $186 $366 $369 reversed $281 $-1 #
coedge $-1 $186 $368 $188 $285 reversed $281 $-1 #
loop $-1 $-1 $186 $267 #
vertex $-1 $187 $370 #
straight-curve $-1 -48.03735465559862 -29.897891274005772 0 0 0 1 I I #
coedge $-1 $189 $188 $357 $371 forward $109 $-1 #
edge $-1 $190 -6.1918748917859361 $372 6.1918748917859361 $280 $373 forward 7 unknown #
point $-1 -48.03735465559862 -29.897891274005772 5.4446175038874607 #
point $-1 -48.03735465559862 29.897891274005772 5.4446175038874607 #
plane-surface $-1 0 0 13.575086117020266 0 0 1 1 0 0 forward_v I I I I #
coedge $-1 $299 $298 $291 $374 forward $194 $-1 #
coedge $-1 $291 $196 $198 $295 reversed $117 $-1 #
coedge $-1 $196 $290 $289 $374 reversed $117 $-1 #
coedge $-1 $204 $199 $196 $293 forward $205 $-1 #
edge $-1 $296 -27.530922375904531 $375 -19.0185939843442 $292 $376 forward 7 unknown #
coedge $-1 $198 $197 $299 $377 reversed $73 $-1 #
edge $-1 $378 2.0097183471152325e-014 $296 12.038250398392622 $290 $379 forward 7 unknown #
vertex $-1 $200 $380 #
straight-curve $-1 -15.05308834033745 -21.385562882445441 13.575086117020266 -1 0 0 I I #
coedge $-1 $289 $201 $204 $303 reversed $194 $-1 #
coedge $-1 $201 $289 $294 $377 forward $194 $-1 #
vertex $-1 $202 $381 #
straight-curve $-1 -24.558748489323055 -29.897891274005772 36.498917597092053 0 0 1 I I #
straight-curve $-1 -24.558748489323055 -29.897891274005786 5.062757527930458 0 -0.70710677298230451 -0.70710678939079041 I I #
edge $-1 $375 -35.653604872026747 $206 -24.558748489323055 $298 $382 forward 7 unknown #
point $-1 -24.558748489323055 -29.897891274005772 13.575086117020266 #
point $-1 -24.558748489323055 -21.385562882445441 13.575086117020266 #
edge $-1 $383 1 $383 0 $209 $-1 forward 7 unknown #
vertex $-1 $210 $384 #
ellipse-curve $-1 -32.483645905539973 -23.60124481036933 7.278439601968695 0 -0.70710678939079041 0.70710677298230451 1 0 0 1 I I #
point $-1 -31.483645905539973 -25.641727078225593 9.3189218224753549 #
edge $-1 $385 1 $385 0 $213 $-1 forward 7 unknown #
vertex $-1 $214 $386 #
ellipse-curve $-1 -27.728707455809825 -23.60124481036933 7.278439601968695 0 -0.70710678939079041 0.70710677298230451 1 0 0 1 I I #
point $-1 -26.728707455809825 -25.641727078225593 9.3189218224753549 #
loop $-1 $-1 $225 $217 #
plane-surface $-1 0 29.897891274005772 0 0 -1 0 0 0 -1 forward_v I I I I #
coedge $-1 $317 $220 $222 $321 reversed $139 $-1 #
coedge $-1 $220 $316 $387 $388 reversed $139 $-1 #
coedge $-1 $228 $223 $220 $319 forward $218 $-1 #
edge $-1 $322 7.7801261319505279 $389 12.873272522719976 $318 $390 forward 7 unknown #
coedge $-1 $222 $221 $325 $391 reversed $87 $-1 #
edge $-1 $392 -59.795782548011545 $322 -53.652337920781406 $316 $393 forward 7 unknown #
vertex $-1 $224 $394 #
straight-curve $-1 -4.730379468672659 24.804744883236324 13.575086117020266 1 0 0 I I #
coedge $-1 $387 $225 $228 $329 reversed $314 $-1 #
coedge $-1 $225 $387 $320 $391 forward $314 $-1 #
vertex $-1 $226 $395 #
straight-curve $-1 -14.630432286504231 29.897891274005772 61.613318223590618 0 0 1 I I #
straight-curve $-1 -14.630432286504231 -19.675058845502342 43.577093126862195 0 0.82903756765294845 -0.55919291073839883 I I #
edge $-1 $389 4.2910855881864052 $229 14.630432286504231 $324 $396 forward 7 unknown #
point $-1 -14.630432286504231 29.897891274005772 13.575086117020266 #
point $-1 -14.630432286504231 24.804744883236324 13.575086117020266 #
edge $-1 $397 1 $397 0 $232 $-1 forward 7 unknown #
vertex $-1 $233 $398 #
ellipse-curve $-1 -11.676333229841994 26.792125167882631 11.028363207836808 0 0.55919291073839883 0.82903756765294845 0.5 0 0 1 I I #
point $-1 -11.176333229841994 27.351318078621027 11.857400775489756 #
edge $-1 $399 1 $399 0 $236 $-1 forward 7 unknown #
vertex $-1 $237 $400 #
ellipse-curve $-1 -7.2451846448486421 26.792125167882631 11.028363207836808 0 0.55919291073839883 0.82903756765294845 0.5 0 0 1 I I #
point $-1 -6.7451846448486421 27.351318078621027 11.857400775489756 #
plane-surface $-1 48.03735465559862 0 0 -1 0 0 0 0 1 forward_v I I I I #
coedge $-1 $245 $243 $247 $345 reversed $161 $-1 #
edge $-1 $258 -13.575086117020266 $347 13.575086117020266 $257 $401 forward 7 unknown #
vertex $-1 $345 $402 #
straight-curve $-1 -48.03735465559862 -29.897891274005772 0 0 0 -1 I I #
edge $-1 $343 -29.897891274005772 $347 29.897891274005772 $341 $403 forward 7 unknown #
straight-curve $-1 0 -29.897891274005772 -13.575086117020266 -1 0 0 I I #
vertex $-1 $250 $404 #
straight-curve $-1 0 29.897891274005772 -13.575086117020266 1 0 0 I I #
point $-1 48.03735465559862 29.897891274005772 -13.575086117020266 #
point $-1 48.03735465559862 -29.897891274005772 -13.575086117020266 #
straight-curve $-1 -48.03735465559862 0 13.575086117020266 0 -1 0 I I #
point $-1 -48.03735465559862 29.897891274005772 13.575086117020266 #
point $-1 -48.03735465559862 -29.897891274005772 13.575086117020266 #
straight-curve $-1 48.03735465559862 -29.897891274005772 0 0 0 -1 I I #
straight-curve $-1 48.03735465559862 29.897891274005772 0 0 0 -1 I I #
plane-surface $-1 0 -29.897891274005772 0 0 1 0 0 0 1 forward_v I I I I #
coedge $-1 $405 $270 $284 $371 reversed $180 $-1 #
coedge $-1 $270 $405 $362 $406 reversed $180 $-1 #
edge $-1 $363 -4.0652343065664027 $360 4.0652343065664027 $271 $407 forward 7 unknown #
vertex $-1 $272 $408 #
straight-curve $-1 -54.229229547384556 29.897891274005772 5.4446175038874607 1 0 0 I I #
coedge $-1 $366 $273 $358 $406 forward $268 $-1 #
vertex $-1 $274 $409 #
straight-curve $-1 0 29.897891274005772 13.575086117020266 -1 0 0 I I #
point $-1 -48.03735465559862 29.897891274005772 13.575086117020266 #
coedge $-1 $277 $362 $279 $369 forward $268 $-1 #
straight-curve $-1 -48.03735465559862 0 13.575086117020266 0 1 0 I I #
coedge $-1 $280 $279 $405 $410 forward $281 $-1 #
edge $-1 $411 -60.421104439170492 $282 -48.03735465559862 $279 $412 forward 7 unknown #
point $-1 -48.03735465559862 -29.897891274005772 13.575086117020266 #
edge $-1 $372 -29.897891274005772 $360 29.897891274005772 $357 $413 forward 7 unknown #
vertex $-1 $371 $414 #
straight-curve $-1 -54.229229547384556 -29.897891274005772 5.4446175038874607 -1 0 0 I I #
edge $-1 $375 22.923831480071787 $378 31.436160069161581 $289 $415 forward 7 unknown #
vertex $-1 $303 $416 #
straight-curve $-1 -35.653604872026747 -48.916485258349972 13.575086117020266 0 -1 0 I I #
edge $-1 $378 -20.600516531689298 $300 -9.505660148985605 $299 $417 forward 7 unknown #
vertex $-1 $377 $418 #
straight-curve $-1 -35.653604872026747 -29.897891274005786 5.062757527930458 0 0.70710677298230451 0.70710678939079041 I I #
point $-1 -35.653604872026747 -21.385562882445441 13.575086117020266 #
point $-1 -24.558748489323055 -29.897891274005772 5.0627575279304722 #
straight-curve $-1 0 -29.897891274005772 13.575086117020266 1 0 0 I I #
vertex $-1 $306 $419 #
point $-1 -31.483645905539973 -23.60124481036933 7.278439601968695 #
vertex $-1 $310 $420 #
point $-1 -26.728707455809825 -23.60124481036933 7.278439601968695 #
coedge $-1 $325 $324 $317 $388 forward $314 $-1 #
edge $-1 $389 48.038232106570348 $392 51.47360278963135 $387 $421 forward 7 unknown #
vertex $-1 $329 $422 #
straight-curve $-1 -4.2910855881864052 17.024618751285796 13.575086117020263 0 1 0 I I #
edge $-1 $392 -0.43929388048625384 $326 9.9000528178315719 $325 $423 forward 7 unknown #
vertex $-1 $391 $424 #
straight-curve $-1 -4.2910855881864052 -19.675058845502342 43.577093126862195 0 -0.82903756765294845 0.55919291073839883 I I #
point $-1 -4.2910855881864052 24.804744883236324 13.575086117020266 #
point $-1 -14.630432286504231 29.897891274005772 10.139715433959267 #
straight-curve $-1 0 29.897891274005772 13.575086117020266 -1 0 0 I I #
vertex $-1 $332 $425 #
point $-1 -11.176333229841994 26.792125167882631 11.028363207836808 #
vertex $-1 $336 $426 #
point $-1 -6.7451846448486421 26.792125167882631 11.028363207836808 #
straight-curve $-1 -48.03735465559862 29.897891274005772 0 0 0 -1 I I #
point $-1 -48.03735465559862 -29.897891274005772 -13.575086117020266 #
straight-curve $-1 -48.03735465559862 0 -13.575086117020266 0 1 0 I I #
point $-1 -48.03735465559862 29.897891274005772 -13.575086117020266 #
coedge $-1 $358 $357 $368 $410 reversed $180 $-1 #
edge $-1 $363 -29.897891274005772 $411 29.897891274005772 $358 $427 forward 7 unknown #
straight-curve $-1 -60.421104439170492 29.897891274005772 9.5098518104538634 0 0 -1 I I #
point $-1 -60.421104439170492 29.897891274005772 5.4446175038874607 #
point $-1 -60.421104439170492 29.897891274005772 13.575086117020266 #
edge $-1 $411 -4.0652343065664027 $372 4.0652343065664027 $405 $428 forward 7 unknown #
vertex $-1 $406 $429 #
straight-curve $-1 0 -29.897891274005772 13.575086117020266 1 0 0 I I #
straight-curve $-1 -60.421104439170492 0 5.4446175038874607 0 1 0 I I #
point $-1 -60.421104439170492 -29.897891274005772 5.4446175038874607 #
straight-curve $-1 -35.653604872026747 -29.897891274005772 36.498917597092053 0 0 -1 I I #
point $-1 -35.653604872026747 -29.897891274005772 13.575086117020266 #
straight-curve $-1 -15.05308834033745 -29.897891274005772 5.0627575279304722 1 0 0 I I #
point $-1 -35.653604872026747 -29.897891274005772 5.0627575279304722 #
point $-1 -32.483645905539973 -22.894138020978538 6.5713328289863897 #
point $-1 -27.728707455809825 -22.894138020978538 6.5713328289863897 #
straight-curve $-1 -4.2910855881864052 29.897891274005772 61.613318223590618 0 0 -1 I I #
point $-1 -4.2910855881864052 29.897891274005772 13.575086117020266 #
straight-curve $-1 -4.730379468672659 29.897891274005772 10.139715433959267 -1 0 0 I I #
point $-1 -4.2910855881864052 29.897891274005772 10.139715433959267 #
point $-1 -11.676333229841994 26.512528712513429 10.613844424010335 #
point $-1 -7.2451846448486421 26.512528712513429 10.613844424010335 #
straight-curve $-1 -60.421104439170492 0 13.575086117020266 0 -1 0 I I #
straight-curve $-1 -60.421104439170492 -29.897891274005772 9.5098518104538634 0 0 -1 I I #
point $-1 -60.421104439170492 -29.897891274005772 13.575086117020266 #
End-of-ACIS-data 