500 0 9 0           
7 Unknown 11 ACIS 5.0 NT 24 Fri Mar 26 00:59:40 1999 
-1 9.9999999999999995e-007 1e-010 
body $-1 $9 $-1 $10 #
body $-1 $11 $-1 $12 #
body $-1 $13 $-1 $14 #
body $-1 $15 $-1 $16 #
body $-1 $17 $-1 $18 #
body $-1 $19 $-1 $20 #
body $-1 $21 $-1 $22 #
body $-1 $23 $-1 $24 #
body $-1 $25 $-1 $26 #
lump $-1 $-1 $27 $0 #
transform $-1 1 0 0 0 1 0 0 0 1 60.221564378795733 25.505073997214815 8.6891763678612151 1 rotate no_reflect no_shear #
lump $-1 $-1 $28 $1 #
transform $-1 1 0 0 0 1 0 0 0 1 60.221564378795733 25.505073997214815 8.6891763678612151 1 rotate no_reflect no_shear #
lump $-1 $-1 $29 $2 #
transform $-1 1 0 0 0 1 0 0 0 1 60.221564378795733 25.505073997214815 8.6891763678612151 1 rotate no_reflect no_shear #
lump $-1 $-1 $30 $3 #
transform $-1 1 0 0 0 1 0 0 0 1 60.221564378795733 25.505073997214815 8.6891763678612151 1 rotate no_reflect no_shear #
lump $-1 $-1 $31 $4 #
transform $-1 1 0 0 0 1 0 0 0 1 60.221564378795733 25.505073997214815 8.6891763678612151 1 rotate no_reflect no_shear #
lump $-1 $-1 $32 $5 #
transform $-1 1 0 0 0 1 0 0 0 1 60.221564378795733 25.505073997214815 8.6891763678612151 1 rotate no_reflect no_shear #
lump $-1 $-1 $33 $6 #
transform $-1 1 0 0 0 1 0 0 0 1 60.221564378795733 25.505073997214815 8.6891763678612151 1 rotate no_reflect no_shear #
lump $-1 $-1 $34 $7 #
transform $-1 1 0 0 0 1 0 0 0 1 60.221564378795733 25.505073997214815 8.6891763678612151 1 rotate no_reflect no_shear #
lump $-1 $-1 $35 $8 #
transform $-1 1 0 0 0 1 0 0 0 1 60.221564378795733 25.505073997214815 8.6891763678612151 1 rotate no_reflect no_shear #
shell $-1 $-1 $-1 $36 $-1 $9 #
shell $-1 $-1 $-1 $37 $-1 $11 #
shell $-1 $-1 $-1 $38 $-1 $13 #
shell $-1 $-1 $-1 $39 $-1 $15 #
shell $-1 $-1 $-1 $40 $-1 $17 #
shell $-1 $-1 $-1 $41 $-1 $19 #
shell $-1 $-1 $-1 $42 $-1 $21 #
shell $-1 $-1 $-1 $43 $-1 $23 #
shell $-1 $-1 $-1 $44 $-1 $25 #
face $-1 $45 $46 $27 $-1 $47 forward single #
face $-1 $48 $49 $28 $-1 $50 forward single #
face $-1 $51 $52 $29 $-1 $53 reversed single #
face $-1 $54 $55 $30 $-1 $56 forward single #
face $-1 $57 $58 $31 $-1 $59 forward single #
face $-1 $60 $61 $32 $-1 $62 forward single #
face $-1 $63 $64 $33 $-1 $65 reversed single #
face $-1 $66 $67 $34 $-1 $68 forward single #
face $-1 $69 $70 $35 $-1 $71 forward single #
face $-1 $72 $73 $27 $-1 $74 reversed single #
loop $-1 $-1 $75 $36 #
plane-surface $-1 0 0 8.6891763678612151 0 0 1 1 0 0 forward_v I I I I #
face $-1 $76 $77 $28 $-1 $78 reversed single #
loop $-1 $-1 $79 $37 #
plane-surface $-1 0 -22.151092226688508 -5.6891763678612151 0 0 1 1 0 0 forward_v I I I I #
face $-1 $80 $81 $29 $-1 $82 reversed single #
loop $-1 $-1 $83 $38 #
plane-surface $-1 54.277054508114503 -10.0670362664933 173.05794039126616 0 -1 0 -0.68199836817093118 0 -0.7313536940579346 forward_v I I I I #
face $-1 $84 $85 $30 $-1 $86 forward single #
loop $-1 $87 $88 $39 #
cone-surface $-1 56.45113960061687 -17.05109561822842 5.0853000093735696 -0.68199836817093118 0 -0.7313536940579346 0.3656768470289673 0 -0.34099918408546559 1 I I 0 1 0.5 forward I I I I #
face $-1 $89 $90 $31 $-1 $91 forward single #
loop $-1 $92 $93 $40 #
cone-surface $-1 56.45113960061687 -14.432073361327749 5.0853000093735696 -0.68199836817093118 0 -0.7313536940579346 0.3656768470289673 0 -0.34099918408546559 1 I I 0 1 0.5 forward I I I I #
face $-1 $94 $95 $32 $-1 $96 forward single #
loop $-1 $97 $98 $41 #
cone-surface $-1 56.45113960061687 -11.813051104427078 5.0853000093735696 -0.68199836817093118 0 -0.7313536940579346 0.3656768470289673 0 -0.34099918408546559 1 I I 0 1 0.5 forward I I I I #
face $-1 $99 $100 $33 $-1 $101 reversed single #
loop $-1 $-1 $102 $42 #
plane-surface $-1 -142.36358164887446 -11.391161776767392 92.965915655607347 0 1 0 -0.68199836817093118 0 0.7313536940579346 forward_v I I I I #
face $-1 $103 $104 $34 $-1 $105 forward single #
loop $-1 $106 $107 $43 #
cone-surface $-1 -57.699203400221123 -9.4761175506415505 6.2699611421630159 0.68199836817093118 0 -0.7313536940579346 0.3656768470289673 0 0.34099918408546559 1 I I 0 1 0.5 forward I I I I #
face $-1 $108 $109 $35 $-1 $110 forward single #
loop $-1 $111 $112 $44 #
cone-surface $-1 -57.699203400221123 -6.6035512114527819 6.2699611421630159 0.68199836817093118 0 -0.7313536940579346 0.3656768470289673 0 0.34099918408546559 1 I I 0 1 0.5 forward I I I I #
face $-1 $113 $114 $27 $-1 $115 reversed single #
loop $-1 $-1 $116 $45 #
plane-surface $-1 0 0 -8.6891763678612151 0 0 1 1 0 0 forward_v I I I I #
coedge $-1 $117 $118 $119 $120 forward $46 $-1 #
face $-1 $121 $122 $28 $-1 $123 reversed single #
loop $-1 $-1 $124 $48 #
plane-surface $-1 0 -18.797110456162201 -7.1891763678612151 0 -1 0 0 0 -1 forward_v I I I I #
coedge $-1 $125 $126 $127 $128 reversed $49 $-1 #
face $-1 $129 $130 $29 $-1 $131 reversed single #
loop $-1 $-1 $132 $51 #
plane-surface $-1 -27.864962761964236 -14.432073361327749 84.971413250506188 0.68199836817093118 0 0.7313536940579346 0.7313536940579346 0 -0.68199836817093118 forward_v I I I I #
coedge $-1 $133 $134 $135 $136 reversed $52 $-1 #
face $-1 $-1 $137 $30 $-1 $138 forward single #
loop $-1 $139 $140 $54 #
cone-surface $-1 55.652137728107036 -17.05109561822842 4.2284754210883122 -0.68199836817093118 0 -0.7313536940579346 0.18283842351448365 0 -0.17049959204273279 1 I I -0.70710678118654746 0.70710678118654746 0.25 forward I I I I #
loop $-1 $-1 $141 $39 #
coedge $-1 $88 $88 $142 $143 reversed $55 $-1 #
face $-1 $-1 $144 $31 $-1 $145 forward single #
loop $-1 $146 $147 $57 #
cone-surface $-1 55.652137728107036 -14.432073361327749 4.2284754210883122 -0.68199836817093118 0 -0.7313536940579346 0.18283842351448365 0 -0.17049959204273279 1 I I -0.70710678118654746 0.70710678118654746 0.25 forward I I I I #
loop $-1 $-1 $148 $40 #
coedge $-1 $93 $93 $149 $150 reversed $58 $-1 #
face $-1 $-1 $151 $32 $-1 $152 forward single #
loop $-1 $153 $154 $60 #
cone-surface $-1 55.652137728107036 -11.813051104427078 4.2284754210883122 -0.68199836817093118 0 -0.7313536940579346 0.18283842351448365 0 -0.17049959204273279 1 I I -0.70710678118654746 0.70710678118654746 0.25 forward I I I I #
loop $-1 $-1 $155 $41 #
coedge $-1 $98 $98 $156 $157 reversed $61 $-1 #
face $-1 $158 $159 $33 $-1 $160 reversed single #
loop $-1 $-1 $161 $63 #
plane-surface $-1 -60.221564378795719 -8.0398343810471644 4.8793885148473777 -0.68199836817093118 0 0.7313536940579346 0.7313536940579346 0 0.68199836817093118 forward_v I I I I #
coedge $-1 $162 $163 $164 $165 reversed $64 $-1 #
face $-1 $-1 $166 $34 $-1 $167 forward single #
loop $-1 $168 $169 $66 #
cone-surface $-1 -57.049091426899821 -9.4761175506415505 5.5728014194572566 0.68199836817093118 0 -0.7313536940579346 0.18283842351448365 0 0.17049959204273279 1 I I -0.70710678118654746 0.70710678118654746 0.25 forward I I I I #
loop $-1 $-1 $170 $43 #
coedge $-1 $107 $107 $171 $172 reversed $67 $-1 #
face $-1 $-1 $173 $35 $-1 $174 forward single #
loop $-1 $175 $176 $69 #
cone-surface $-1 -57.049091426899821 -6.6035512114527819 5.5728014194572566 0.68199836817093118 0 -0.7313536940579346 0.18283842351448365 0 0.17049959204273279 1 I I -0.70710678118654746 0.70710678118654746 0.25 forward I I I I #
loop $-1 $-1 $177 $44 #
coedge $-1 $112 $112 $178 $179 reversed $70 $-1 #
face $-1 $180 $181 $27 $-1 $182 reversed single #
loop $-1 $-1 $183 $72 #
plane-surface $-1 0 -25.505073997214815 0 0 1 0 0 0 1 forward_v I I I I #
coedge $-1 $184 $185 $186 $187 forward $73 $-1 #
coedge $-1 $188 $75 $189 $190 forward $46 $-1 #
coedge $-1 $75 $188 $191 $192 forward $46 $-1 #
coedge $-1 $193 $194 $75 $120 reversed $195 $-1 #
edge $-1 $196 -25.505073997214815 $197 25.505073997214815 $119 $198 forward 7 unknown #
face $-1 $199 $200 $28 $-1 $201 reversed single #
loop $-1 $-1 $202 $76 #
plane-surface $-1 0 0 -8.6891763678612151 0 0 1 1 0 0 forward_v I I I I #
coedge $-1 $203 $204 $205 $206 reversed $77 $-1 #
coedge $-1 $207 $79 $204 $208 forward $49 $-1 #
coedge $-1 $79 $207 $209 $210 reversed $49 $-1 #
coedge $-1 $211 $205 $79 $128 forward $200 $-1 #
edge $-1 $212 7.7215643428179472 $213 14.429527883870561 $127 $214 forward 7 unknown #
face $-1 $215 $216 $29 $-1 $217 reversed single #
loop $-1 $-1 $218 $80 #
plane-surface $-1 54.277054508114503 -18.797110456162198 173.05794039126616 0 1 0 0.68199836817093118 0 0.7313536940579346 forward_v I I I I #
coedge $-1 $219 $220 $221 $222 reversed $81 $-1 #
coedge $-1 $134 $83 $223 $224 reversed $52 $-1 #
coedge $-1 $83 $133 $219 $225 reversed $52 $-1 #
coedge $-1 $221 $226 $83 $136 forward $227 $-1 #
edge $-1 $228 -33.083037124738482 $229 -26.79919212931496 $135 $230 forward 7 unknown #
loop $-1 $-1 $142 $84 #
plane-surface $-1 -27.864962761964236 -14.432073361327749 84.971413250506188 0.68199836817093118 0 0.7313536940579346 0.7313536940579346 0 -0.68199836817093118 forward_v I I I I #
loop $-1 $-1 $231 $54 #
coedge $-1 $140 $140 $141 $232 reversed $85 $-1 #
coedge $-1 $141 $141 $140 $232 forward $87 $-1 #
coedge $-1 $142 $142 $88 $143 forward $137 $-1 #
edge $-1 $233 0 $233 6.2831853071796004 $142 $234 forward 7 unknown #
loop $-1 $-1 $149 $89 #
plane-surface $-1 -27.864962761964236 -14.432073361327749 84.971413250506188 0.68199836817093118 0 0.7313536940579346 0.7313536940579346 0 -0.68199836817093118 forward_v I I I I #
loop $-1 $-1 $235 $57 #
coedge $-1 $147 $147 $148 $236 reversed $90 $-1 #
coedge $-1 $148 $148 $147 $236 forward $92 $-1 #
coedge $-1 $149 $149 $93 $150 forward $144 $-1 #
edge $-1 $237 0 $237 6.2831853071796004 $149 $238 forward 7 unknown #
loop $-1 $-1 $156 $94 #
plane-surface $-1 -27.864962761964236 -14.432073361327749 84.971413250506188 0.68199836817093118 0 0.7313536940579346 0.7313536940579346 0 -0.68199836817093118 forward_v I I I I #
loop $-1 $-1 $239 $60 #
coedge $-1 $154 $154 $155 $240 reversed $95 $-1 #
coedge $-1 $155 $155 $154 $240 forward $97 $-1 #
coedge $-1 $156 $156 $98 $157 forward $151 $-1 #
edge $-1 $241 0 $241 6.2831853071796004 $156 $242 forward 7 unknown #
face $-1 $243 $244 $33 $-1 $245 forward single #
loop $-1 $-1 $246 $99 #
plane-surface $-1 -142.36358164887446 -4.6885069853269368 92.965915655607347 0 -1 0 0.68199836817093118 0 -0.7313536940579346 forward_v I I I I #
coedge $-1 $247 $248 $249 $250 reversed $100 $-1 #
coedge $-1 $163 $102 $251 $252 reversed $64 $-1 #
coedge $-1 $102 $162 $247 $253 reversed $64 $-1 #
coedge $-1 $249 $254 $102 $165 forward $244 $-1 #
edge $-1 $255 10.960226445641496 $256 15.045723640233589 $164 $257 forward 7 unknown #
loop $-1 $-1 $171 $103 #
plane-surface $-1 -60.221564378795719 -8.0398343810471644 4.8793885148473777 -0.68199836817093118 0 0.7313536940579346 0.7313536940579346 0 0.68199836817093118 forward_v I I I I #
loop $-1 $-1 $258 $66 #
coedge $-1 $169 $169 $170 $259 reversed $104 $-1 #
coedge $-1 $170 $170 $169 $259 forward $106 $-1 #
coedge $-1 $171 $171 $107 $172 forward $166 $-1 #
edge $-1 $260 0 $260 6.2831853071796004 $171 $261 forward 7 unknown #
loop $-1 $-1 $178 $108 #
plane-surface $-1 -60.221564378795719 -8.0398343810471644 4.8793885148473777 -0.68199836817093118 0 0.7313536940579346 0.7313536940579346 0 0.68199836817093118 forward_v I I I I #
loop $-1 $-1 $262 $69 #
coedge $-1 $176 $176 $177 $263 reversed $109 $-1 #
coedge $-1 $177 $177 $176 $263 forward $111 $-1 #
coedge $-1 $178 $178 $112 $179 forward $173 $-1 #
edge $-1 $264 0 $264 6.2831853071796004 $178 $265 forward 7 unknown #
face $-1 $266 $267 $27 $-1 $268 reversed single #
loop $-1 $-1 $269 $113 #
plane-surface $-1 -60.221564378795733 0 0 1 0 0 0 0 -1 forward_v I I I I #
coedge $-1 $270 $191 $271 $272 forward $114 $-1 #
coedge $-1 $273 $116 $270 $274 forward $73 $-1 #
coedge $-1 $116 $273 $275 $276 forward $73 $-1 #
coedge $-1 $194 $193 $116 $187 reversed $195 $-1 #
edge $-1 $277 -25.505073997214815 $278 25.505073997214815 $186 $279 forward 7 unknown #
coedge $-1 $118 $117 $280 $281 forward $46 $-1 #
coedge $-1 $282 $283 $117 $190 reversed $267 $-1 #
edge $-1 $197 -60.221564378795733 $284 60.221564378795733 $189 $285 forward 7 unknown #
coedge $-1 $183 $286 $118 $192 reversed $114 $-1 #
edge $-1 $287 -60.221564378795733 $196 60.221564378795733 $191 $288 forward 7 unknown #
coedge $-1 $186 $119 $286 $289 forward $195 $-1 #
coedge $-1 $119 $186 $282 $290 reversed $195 $-1 #
loop $-1 $-1 $193 $266 #
vertex $-1 $120 $291 #
vertex $-1 $120 $292 #
straight-curve $-1 60.221564378795733 0 8.6891763678612151 0 1 0 I I #
face $-1 $293 $294 $28 $-1 $295 reversed single #
loop $-1 $-1 $205 $121 #
plane-surface $-1 60.221564378795733 0 0 -1 0 0 0 0 1 forward_v I I I I #
coedge $-1 $296 $297 $203 $298 forward $122 $-1 #
coedge $-1 $299 $124 $202 $298 reversed $77 $-1 #
coedge $-1 $124 $299 $125 $208 reversed $77 $-1 #
coedge $-1 $127 $300 $124 $206 forward $200 $-1 #
edge $-1 $301 -5.0945881839306075 $212 -2.0945881839306075 $205 $302 forward 7 unknown #
coedge $-1 $126 $125 $303 $304 reversed $49 $-1 #
edge $-1 $212 -60.221564378795733 $305 60.221564378795733 $204 $306 forward 7 unknown #
coedge $-1 $307 $308 $126 $210 forward $294 $-1 #
edge $-1 $213 -60.221564378795733 $309 60.221564378795733 $209 $310 forward 7 unknown #
coedge $-1 $300 $127 $308 $311 forward $200 $-1 #
vertex $-1 $128 $312 #
vertex $-1 $311 $313 #
straight-curve $-1 60.221564378795733 -11.075546113344254 -5.6891763678612151 0 -1 0 I I #
face $-1 $-1 $227 $29 $-1 $314 forward single #
loop $-1 $-1 $315 $129 #
plane-surface $-1 60.221564378795733 0 0 -1 0 0 0 0 1 forward_v I I I I #
coedge $-1 $316 $317 $318 $319 reversed $130 $-1 #
coedge $-1 $320 $132 $134 $225 forward $81 $-1 #
coedge $-1 $132 $320 $316 $321 forward $81 $-1 #
coedge $-1 $318 $135 $132 $222 forward $227 $-1 #
edge $-1 $229 2.8509995858294257 $322 11.581073775498323 $221 $323 forward 7 unknown #
coedge $-1 $324 $325 $133 $224 forward $216 $-1 #
edge $-1 $326 -83.699574215205629 $228 -77.839793827771871 $223 $327 forward 7 unknown #
edge $-1 $229 111.85105484523115 $326 120.44312875759147 $134 $328 forward 7 unknown #
coedge $-1 $135 $318 $324 $329 forward $227 $-1 #
loop $-1 $-1 $318 $215 #
vertex $-1 $224 $330 #
vertex $-1 $136 $331 #
straight-curve $-1 27.138527254057252 -10.0670362664933 8.6891763678612222 -1 0 0 I I #
coedge $-1 $231 $231 $-1 $332 reversed $139 $-1 #
edge $-1 $333 0 $333 6.2831853071796004 $140 $334 forward 7 unknown #
vertex $-1 $143 $335 #
ellipse-curve $-1 57.079641881083973 -17.05109561822842 5.7592861741443393 0.68199836817093118 0 0.7313536940579346 0.3656768470289673 0 -0.34099918408546559 1 I I #
coedge $-1 $235 $235 $-1 $336 reversed $146 $-1 #
edge $-1 $337 0 $337 6.2831853071796004 $147 $338 forward 7 unknown #
vertex $-1 $150 $339 #
ellipse-curve $-1 57.079641881083973 -14.432073361327749 5.7592861741443393 0.68199836817093118 0 0.7313536940579346 0.3656768470289673 0 -0.34099918408546559 1 I I #
coedge $-1 $239 $239 $-1 $340 reversed $153 $-1 #
edge $-1 $341 0 $341 6.2831853071796004 $154 $342 forward 7 unknown #
vertex $-1 $157 $343 #
ellipse-curve $-1 57.079641881083973 -11.813051104427078 5.7592861741443393 0.68199836817093118 0 0.7313536940579346 0.3656768470289673 0 -0.34099918408546559 1 I I #
face $-1 $-1 $344 $33 $-1 $345 reversed single #
loop $-1 $-1 $164 $158 #
plane-surface $-1 0 0 8.6891763678612151 0 0 1 1 0 0 forward_v I I I I #
coedge $-1 $346 $347 $348 $349 reversed $159 $-1 #
coedge $-1 $350 $161 $163 $253 forward $100 $-1 #
coedge $-1 $161 $350 $346 $351 forward $100 $-1 #
coedge $-1 $348 $164 $161 $250 forward $244 $-1 #
edge $-1 $256 -7.3712445862438098 $352 -0.66858979480335456 $249 $353 forward 7 unknown #
coedge $-1 $354 $355 $162 $252 forward $344 $-1 #
edge $-1 $356 -41.60356931295631 $255 -37.793781459942458 $251 $357 forward 7 unknown #
edge $-1 $256 -5.5862125641611184 $356 1.9479204584885432e-014 $163 $358 forward 7 unknown #
coedge $-1 $164 $348 $354 $359 forward $244 $-1 #
vertex $-1 $252 $360 #
vertex $-1 $165 $361 #
straight-curve $-1 -71.181790824437229 -11.391161776767392 8.6891763678612151 1 0 0 I I #
coedge $-1 $258 $258 $-1 $362 reversed $168 $-1 #
edge $-1 $363 0 $363 6.2831853071796004 $169 $364 forward 7 unknown #
vertex $-1 $172 $365 #
ellipse-curve $-1 -58.178815781499686 -9.4761175506415505 6.7842824413542875 -0.68199836817093118 0 0.7313536940579346 0.3656768470289673 0 0.34099918408546559 1 I I #
coedge $-1 $262 $262 $-1 $366 reversed $175 $-1 #
edge $-1 $367 0 $367 6.2831853071796004 $176 $368 forward 7 unknown #
vertex $-1 $179 $369 #
ellipse-curve $-1 -58.178815781499686 -6.6035512114527819 6.7842824413542875 -0.68199836817093118 0 0.7313536940579346 0.3656768470289673 0 0.34099918408546559 1 I I #
face $-1 $-1 $195 $27 $-1 $370 reversed single #
loop $-1 $-1 $282 $180 #
plane-surface $-1 0 25.505073997214815 0 0 -1 0 0 0 -1 forward_v I I I I #
coedge $-1 $371 $280 $283 $372 forward $181 $-1 #
coedge $-1 $286 $183 $184 $274 reversed $114 $-1 #
coedge $-1 $280 $371 $183 $272 reversed $181 $-1 #
edge $-1 $287 -8.6891763678612151 $373 8.6891763678612151 $271 $374 forward 7 unknown #
coedge $-1 $185 $184 $371 $375 forward $73 $-1 #
edge $-1 $278 -60.221564378795733 $373 60.221564378795733 $270 $376 forward 7 unknown #
coedge $-1 $283 $282 $185 $276 reversed $267 $-1 #
edge $-1 $377 -60.221564378795733 $277 60.221564378795733 $275 $378 forward 7 unknown #
vertex $-1 $187 $379 #
vertex $-1 $289 $380 #
straight-curve $-1 60.221564378795733 0 -8.6891763678612151 0 -1 0 I I #
coedge $-1 $269 $271 $188 $281 reversed $181 $-1 #
edge $-1 $284 -25.505073997214815 $287 25.505073997214815 $280 $381 forward 7 unknown #
coedge $-1 $275 $189 $194 $290 forward $267 $-1 #
coedge $-1 $189 $275 $269 $372 reversed $267 $-1 #
vertex $-1 $190 $382 #
straight-curve $-1 0 25.505073997214815 8.6891763678612151 -1 0 0 I I #
coedge $-1 $191 $270 $193 $289 reversed $114 $-1 #
vertex $-1 $281 $383 #
straight-curve $-1 0 -25.505073997214815 8.6891763678612151 1 0 0 I I #
edge $-1 $196 -8.6891763678612151 $278 8.6891763678612151 $193 $384 forward 7 unknown #
edge $-1 $197 -8.6891763678612151 $277 8.6891763678612151 $194 $385 forward 7 unknown #
point $-1 60.221564378795733 -25.505073997214815 8.6891763678612151 #
point $-1 60.221564378795733 25.505073997214815 8.6891763678612151 #
face $-1 $-1 $386 $28 $-1 $387 reversed single #
loop $-1 $-1 $209 $199 #
plane-surface $-1 0 -25.505073997214815 0 0 1 0 0 0 1 forward_v I I I I #
coedge $-1 $388 $202 $300 $389 forward $122 $-1 #
coedge $-1 $202 $388 $390 $391 forward $122 $-1 #
edge $-1 $392 -60.221564378795733 $301 60.221564378795733 $202 $393 forward 7 unknown #
coedge $-1 $204 $203 $394 $395 reversed $77 $-1 #
coedge $-1 $205 $211 $296 $389 reversed $200 $-1 #
vertex $-1 $389 $396 #
straight-curve $-1 60.221564378795733 -18.797110456162201 -3.5945881839306075 0 0 1 I I #
coedge $-1 $394 $397 $207 $304 forward $386 $-1 #
edge $-1 $309 -14.429527883870561 $305 -7.7215643428179472 $303 $398 forward 7 unknown #
vertex $-1 $304 $399 #
straight-curve $-1 0 -18.797110456162201 -5.6891763678612151 -1 0 0 I I #
coedge $-1 $400 $209 $397 $401 forward $294 $-1 #
coedge $-1 $209 $400 $211 $311 reversed $294 $-1 #
vertex $-1 $401 $402 #
straight-curve $-1 0 -25.505073997214815 -5.6891763678612151 -1 0 0 I I #
edge $-1 $213 5.6891763678612151 $403 8.6891763678612151 $211 $404 forward 7 unknown #
point $-1 60.221564378795733 -18.797110456162201 -5.6891763678612151 #
point $-1 60.221564378795733 -25.505073997214815 -5.6891763678612151 #
plane-surface $-1 0 0 8.6891763678612151 0 0 1 1 0 0 forward_v I I I I #
coedge $-1 $325 $324 $317 $405 forward $216 $-1 #
coedge $-1 $317 $218 $220 $321 reversed $130 $-1 #
coedge $-1 $218 $316 $315 $405 reversed $130 $-1 #
coedge $-1 $226 $221 $218 $319 forward $227 $-1 #
edge $-1 $322 26.79919212931496 $406 33.083037124738482 $318 $407 forward 7 unknown #
coedge $-1 $220 $219 $325 $408 reversed $81 $-1 #
edge $-1 $409 -120.44312875759147 $322 -111.85105484523115 $316 $410 forward 7 unknown #
vertex $-1 $222 $411 #
straight-curve $-1 53.937719383372212 -7.2160366806638745 8.6891763678612151 0 -1 0 I I #
coedge $-1 $315 $223 $226 $329 reversed $216 $-1 #
coedge $-1 $223 $315 $320 $408 forward $216 $-1 #
vertex $-1 $224 $412 #
straight-curve $-1 60.221564378795733 -10.0670362664933 86.528970195633079 0 0 1 I I #
straight-curve $-1 -27.864962761964236 -10.0670362664933 84.971413250506188 0.7313536940579346 0 -0.68199836817093118 I I #
edge $-1 $406 -18.797110456162198 $228 -10.0670362664933 $324 $413 forward 7 unknown #
point $-1 60.221564378795733 -10.0670362664933 8.6891763678612151 #
point $-1 53.937719383372212 -10.0670362664933 8.689176367861208 #
edge $-1 $414 1 $414 0 $231 $-1 forward 7 unknown #
vertex $-1 $232 $415 #
ellipse-curve $-1 55.822637320149767 -17.05109561822842 4.4113138446027955 0.68199836817093118 0 0.7313536940579346 0.3656768470289673 0 -0.34099918408546559 1 I I #
point $-1 57.445318728112944 -17.05109561822842 5.4182869900588777 #
edge $-1 $416 1 $416 0 $235 $-1 forward 7 unknown #
vertex $-1 $236 $417 #
ellipse-curve $-1 55.822637320149767 -14.432073361327749 4.4113138446027955 0.68199836817093118 0 0.7313536940579346 0.3656768470289673 0 -0.34099918408546559 1 I I #
point $-1 57.445318728112944 -14.432073361327749 5.4182869900588777 #
edge $-1 $418 1 $418 0 $239 $-1 forward 7 unknown #
vertex $-1 $240 $419 #
ellipse-curve $-1 55.822637320149767 -11.813051104427078 4.4113138446027955 0.68199836817093118 0 0.7313536940579346 0.3656768470289673 0 -0.34099918408546559 1 I I #
point $-1 57.445318728112944 -11.813051104427078 5.4182869900588777 #
loop $-1 $-1 $251 $243 #
plane-surface $-1 -60.221564378795733 0 0 1 0 0 0 0 -1 forward_v I I I I #
coedge $-1 $347 $246 $248 $351 reversed $159 $-1 #
coedge $-1 $246 $346 $420 $421 reversed $159 $-1 #
coedge $-1 $254 $249 $246 $349 forward $244 $-1 #
edge $-1 $352 -15.045723640233589 $422 -10.960226445641496 $348 $423 forward 7 unknown #
coedge $-1 $248 $247 $355 $424 reversed $100 $-1 #
edge $-1 $425 -1.9479204584885432e-014 $352 5.5862125641611184 $346 $426 forward 7 unknown #
vertex $-1 $250 $427 #
straight-curve $-1 -56.13606718420364 -4.0199171905235822 8.6891763678612151 0 1 0 I I #
coedge $-1 $420 $251 $254 $359 reversed $344 $-1 #
coedge $-1 $251 $420 $350 $424 forward $344 $-1 #
vertex $-1 $252 $428 #
straight-curve $-1 -60.221564378795733 -11.391161776767392 46.482957827803673 0 0 1 I I #
straight-curve $-1 -60.221564378795719 -11.391161776767392 4.8793885148473777 -0.7313536940579346 0 -0.68199836817093118 I I #
edge $-1 $422 4.6885069853269368 $255 11.391161776767392 $354 $429 forward 7 unknown #
point $-1 -60.221564378795733 -11.391161776767392 8.6891763678612151 #
point $-1 -56.13606718420364 -11.391161776767392 8.6891763678612151 #
edge $-1 $430 1 $430 0 $258 $-1 forward 7 unknown #
vertex $-1 $259 $431 #
ellipse-curve $-1 -57.219591018942552 -9.4761175506415505 5.7556398429717399 -0.68199836817093118 0 0.7313536940579346 0.3656768470289673 0 0.34099918408546559 1 I I #
point $-1 -57.813138934470722 -9.4761175506415505 7.1252816254397571 #
edge $-1 $432 1 $432 0 $262 $-1 forward 7 unknown #
vertex $-1 $263 $433 #
ellipse-curve $-1 -57.219591018942552 -6.6035512114527819 5.7556398429717399 -0.68199836817093118 0 0.7313536940579346 0.3656768470289673 0 0.34099918408546559 1 I I #
point $-1 -57.813138934470722 -6.6035512114527819 7.1252816254397571 #
plane-surface $-1 60.221564378795733 0 0 -1 0 0 0 0 1 forward_v I I I I #
coedge $-1 $271 $269 $273 $375 reversed $181 $-1 #
edge $-1 $284 -8.6891763678612151 $377 8.6891763678612151 $283 $434 forward 7 unknown #
vertex $-1 $375 $435 #
straight-curve $-1 -60.221564378795733 -25.505073997214815 0 0 0 -1 I I #
edge $-1 $373 -25.505073997214815 $377 25.505073997214815 $371 $436 forward 7 unknown #
straight-curve $-1 0 -25.505073997214815 -8.6891763678612151 -1 0 0 I I #
vertex $-1 $276 $437 #
straight-curve $-1 0 25.505073997214815 -8.6891763678612151 1 0 0 I I #
point $-1 60.221564378795733 25.505073997214815 -8.6891763678612151 #
point $-1 60.221564378795733 -25.505073997214815 -8.6891763678612151 #
straight-curve $-1 -60.221564378795733 0 8.6891763678612151 0 -1 0 I I #
point $-1 -60.221564378795733 25.505073997214815 8.6891763678612151 #
point $-1 -60.221564378795733 -25.505073997214815 8.6891763678612151 #
straight-curve $-1 60.221564378795733 -25.505073997214815 0 0 0 -1 I I #
straight-curve $-1 60.221564378795733 25.505073997214815 0 0 0 -1 I I #
loop $-1 $-1 $394 $293 #
plane-surface $-1 -60.221564378795733 0 0 1 0 0 0 0 -1 forward_v I I I I #
coedge $-1 $297 $296 $400 $438 forward $122 $-1 #
edge $-1 $301 18.797110456162201 $403 25.505073997214815 $300 $439 forward 7 unknown #
coedge $-1 $397 $394 $297 $391 reversed $386 $-1 #
edge $-1 $440 -25.505073997214815 $392 -18.797110456162201 $390 $441 forward 7 unknown #
vertex $-1 $395 $442 #
straight-curve $-1 0 -18.797110456162201 -8.6891763678612151 1 0 0 I I #
coedge $-1 $390 $303 $299 $395 forward $386 $-1 #
edge $-1 $305 2.0945881839306075 $392 5.0945881839306075 $394 $443 forward 7 unknown #
point $-1 60.221564378795733 -18.797110456162201 -8.6891763678612151 #
coedge $-1 $303 $390 $307 $401 reversed $386 $-1 #
straight-curve $-1 -60.221564378795733 -11.075546113344254 -5.6891763678612151 0 1 0 I I #
point $-1 -60.221564378795733 -18.797110456162201 -5.6891763678612151 #
coedge $-1 $308 $307 $388 $438 reversed $294 $-1 #
edge $-1 $309 5.6891763678612151 $440 8.6891763678612151 $397 $444 forward 7 unknown #
point $-1 -60.221564378795733 -25.505073997214815 -5.6891763678612151 #
vertex $-1 $311 $445 #
straight-curve $-1 60.221564378795733 -25.505073997214815 0 0 0 -1 I I #
edge $-1 $406 77.839793827771871 $409 83.699574215205629 $315 $446 forward 7 unknown #
vertex $-1 $329 $447 #
straight-curve $-1 27.138527254057252 -18.797110456162198 8.6891763678612222 1 0 0 I I #
edge $-1 $409 -11.581073775498323 $326 -2.8509995858294257 $325 $448 forward 7 unknown #
vertex $-1 $408 $449 #
straight-curve $-1 -27.864962761964236 -18.797110456162198 84.971413250506188 -0.7313536940579346 0 0.68199836817093118 I I #
point $-1 53.937719383372212 -18.797110456162198 8.689176367861208 #
point $-1 60.221564378795733 -10.0670362664933 2.8293959804274493 #
straight-curve $-1 60.221564378795733 0 8.6891763678612151 0 1 0 I I #
vertex $-1 $332 $450 #
point $-1 56.188314167178739 -17.05109561822842 4.0703146605173304 #
vertex $-1 $336 $451 #
point $-1 56.188314167178739 -14.432073361327749 4.0703146605173304 #
vertex $-1 $340 $452 #
point $-1 56.188314167178739 -11.813051104427078 4.0703146605173304 #
coedge $-1 $355 $354 $347 $421 forward $344 $-1 #
edge $-1 $422 37.793781459942458 $425 41.60356931295631 $420 $453 forward 7 unknown #
vertex $-1 $359 $454 #
straight-curve $-1 -71.181790824437229 -4.6885069853269368 8.6891763678612151 -1 0 0 I I #
edge $-1 $425 0.66858979480335456 $356 7.3712445862438098 $355 $455 forward 7 unknown #
vertex $-1 $424 $456 #
straight-curve $-1 -60.221564378795719 -4.6885069853269368 4.8793885148473777 0.7313536940579346 0 0.68199836817093118 I I #
point $-1 -56.13606718420364 -4.6885069853269368 8.6891763678612151 #
point $-1 -60.221564378795733 -11.391161776767392 4.8793885148473644 #
straight-curve $-1 -60.221564378795733 0 8.6891763678612151 0 -1 0 I I #
vertex $-1 $362 $457 #
point $-1 -56.853914171913587 -9.4761175506415505 6.096639027057206 #
vertex $-1 $366 $458 #
point $-1 -56.853914171913587 -6.6035512114527819 6.096639027057206 #
straight-curve $-1 -60.221564378795733 25.505073997214815 0 0 0 -1 I I #
point $-1 -60.221564378795733 -25.505073997214815 -8.6891763678612151 #
straight-curve $-1 -60.221564378795733 0 -8.6891763678612151 0 1 0 I I #
point $-1 -60.221564378795733 25.505073997214815 -8.6891763678612151 #
edge $-1 $403 -60.221564378795733 $440 60.221564378795733 $400 $459 forward 7 unknown #
straight-curve $-1 60.221564378795733 0 -8.6891763678612151 0 -1 0 I I #
vertex $-1 $391 $460 #
straight-curve $-1 -60.221564378795733 0 -8.6891763678612151 0 1 0 I I #
point $-1 -60.221564378795733 -18.797110456162201 -8.6891763678612151 #
straight-curve $-1 -60.221564378795733 -18.797110456162201 -3.5945881839306075 0 0 -1 I I #
straight-curve $-1 -60.221564378795733 -25.505073997214815 0 0 0 -1 I I #
point $-1 60.221564378795733 -25.505073997214815 -8.6891763678612151 #
straight-curve $-1 60.221564378795733 -18.797110456162198 86.528970195633079 0 0 -1 I I #
point $-1 60.221564378795733 -18.797110456162198 8.6891763678612151 #
straight-curve $-1 60.221564378795726 -7.2160366806638745 2.8293959804274706 0 1 0 I I #
point $-1 60.221564378795733 -18.797110456162198 2.8293959804274493 #
point $-1 55.481638136064305 -17.05109561822842 4.0456369975738289 #
point $-1 55.481638136064305 -14.432073361327749 4.0456369975738289 #
point $-1 55.481638136064305 -11.813051104427078 4.0456369975738289 #
straight-curve $-1 -60.221564378795733 -4.6885069853269368 46.482957827803673 0 0 -1 I I #
point $-1 -60.221564378795733 -4.6885069853269368 8.6891763678612151 #
straight-curve $-1 -60.221564378795733 -4.0199171905235822 4.879388514847367 0 -1 0 I I #
point $-1 -60.221564378795733 -4.6885069853269368 4.8793885148473644 #
point $-1 -56.87859183485709 -9.4761175506415505 5.3899629959427733 #
point $-1 -56.87859183485709 -6.6035512114527819 5.3899629959427733 #
straight-curve $-1 0 -25.505073997214815 -8.6891763678612151 -1 0 0 I I #
point $-1 -60.221564378795733 -25.505073997214815 -8.6891763678612151 #
End-of-ACIS-data 