500 0 6 0           
7 Unknown 11 ACIS 5.0 NT 24 Thu Mar 25 21:09:22 1999 
-1 9.9999999999999995e-007 1e-010 
body $-1 $6 $-1 $7 #
body $-1 $8 $-1 $9 #
body $-1 $10 $-1 $11 #
body $-1 $12 $-1 $13 #
body $-1 $14 $-1 $15 #
body $-1 $16 $-1 $17 #
lump $-1 $-1 $18 $0 #
transform $-1 1 0 0 0 1 0 0 0 1 51.82775353251747 24.87975752252083 5.0442878849182069 1 rotate no_reflect no_shear #
lump $-1 $-1 $19 $1 #
transform $-1 1 0 0 0 1 0 0 0 1 51.82775353251747 24.87975752252083 5.0442878849182069 1 rotate no_reflect no_shear #
lump $-1 $-1 $20 $2 #
transform $-1 1 0 0 0 1 0 0 0 1 51.82775353251747 24.87975752252083 5.0442878849182069 1 rotate no_reflect no_shear #
lump $-1 $-1 $21 $3 #
transform $-1 1 0 0 0 1 0 0 0 1 51.82775353251747 24.87975752252083 5.0442878849182069 1 rotate no_reflect no_shear #
lump $-1 $-1 $22 $4 #
transform $-1 1 0 0 0 1 0 0 0 1 51.82775353251747 24.87975752252083 5.0442878849182069 1 rotate no_reflect no_shear #
lump $-1 $-1 $23 $5 #
transform $-1 1 0 0 0 1 0 0 0 1 51.82775353251747 24.87975752252083 5.0442878849182069 1 rotate no_reflect no_shear #
shell $-1 $-1 $-1 $24 $-1 $6 #
shell $-1 $-1 $-1 $25 $-1 $8 #
shell $-1 $-1 $-1 $26 $-1 $10 #
shell $-1 $-1 $-1 $27 $-1 $12 #
shell $-1 $-1 $-1 $28 $-1 $14 #
shell $-1 $-1 $-1 $29 $-1 $16 #
face $-1 $30 $31 $18 $-1 $32 forward single #
face $-1 $33 $34 $19 $-1 $35 reversed single #
face $-1 $36 $37 $20 $-1 $38 reversed single #
face $-1 $39 $40 $21 $-1 $41 forward single #
face $-1 $42 $43 $22 $-1 $44 reversed single #
face $-1 $45 $46 $23 $-1 $47 forward single #
face $-1 $48 $49 $18 $-1 $50 reversed single #
loop $-1 $-1 $51 $24 #
plane-surface $-1 0 0 5.0442878849182069 0 0 1 1 0 0 forward_v I I I I #
face $-1 $52 $53 $19 $-1 $54 reversed single #
loop $-1 $-1 $55 $25 #
plane-surface $-1 0 -22.341812752750467 2.0442878849182069 0 0 1 1 0 0 forward_v I I I I #
face $-1 $56 $57 $20 $-1 $58 reversed single #
loop $-1 $-1 $59 $26 #
plane-surface $-1 64.604004983807187 -6.568048517342767 148.02689135307918 0 -1 0 -0.7660444514056185 0 -0.64278759981090561 forward_v I I I I #
face $-1 $60 $61 $21 $-1 $62 forward single #
loop $-1 $63 $64 $27 #
cone-surface $-1 50.164853860147076 -13.185958250161438 3.1975954999322069 -0.7660444514056185 0 -0.64278759981090561 0.3213937999054528 0 -0.38302222570280925 1 I I 0 1 0.5 forward I I I I #
face $-1 $65 $66 $22 $-1 $67 reversed single #
loop $-1 $-1 $68 $28 #
plane-surface $-1 -51.827753532517477 -13.185958250161436 1.9936907147571077 -0.7660444514056185 0 0.64278759981090561 0.64278759981090561 0 0.7660444514056185 forward_v I I I I #
face $-1 $69 $70 $23 $-1 $71 forward single #
loop $-1 $72 $73 $29 #
cone-surface $-1 -50.164853860147069 -13.185958250161438 3.197595499932206 0.7660444514056185 0 -0.64278759981090561 0.3213937999054528 0 0.38302222570280925 1 I I 0 1 0.5 forward I I I I #
face $-1 $74 $75 $18 $-1 $76 reversed single #
loop $-1 $-1 $77 $30 #
plane-surface $-1 0 0 -5.0442878849182069 0 0 1 1 0 0 forward_v I I I I #
coedge $-1 $78 $79 $80 $81 forward $31 $-1 #
face $-1 $82 $83 $19 $-1 $84 reversed single #
loop $-1 $-1 $85 $33 #
plane-surface $-1 0 -19.803867982980105 3.5442878849182069 0 -1 0 0 0 -1 forward_v I I I I #
coedge $-1 $86 $87 $88 $89 reversed $34 $-1 #
face $-1 $90 $91 $20 $-1 $92 forward single #
loop $-1 $-1 $93 $36 #
plane-surface $-1 -14.800721060998711 -13.185958250161436 81.398416759563005 0.7660444514056185 0 0.64278759981090561 0.64278759981090561 0 -0.7660444514056185 forward_v I I I I #
coedge $-1 $94 $95 $96 $97 reversed $37 $-1 #
face $-1 $-1 $98 $21 $-1 $99 forward single #
loop $-1 $100 $101 $39 #
cone-surface $-1 49.590320521592865 -13.185958250161438 2.7155048000740276 -0.7660444514056185 0 -0.64278759981090561 0.1606968999527264 0 -0.19151111285140462 1 I I -0.70710678118654746 0.70710678118654746 0.25 forward I I I I #
loop $-1 $-1 $102 $27 #
coedge $-1 $64 $64 $103 $104 reversed $40 $-1 #
face $-1 $105 $106 $22 $-1 $107 forward single #
loop $-1 $-1 $108 $42 #
plane-surface $-1 -131.23247957732337 -6.568048517342767 68.622165308273281 0 -1 0 0.7660444514056185 0 -0.64278759981090561 forward_v I I I I #
coedge $-1 $109 $110 $111 $112 reversed $43 $-1 #
face $-1 $-1 $113 $23 $-1 $114 forward single #
loop $-1 $115 $116 $45 #
cone-surface $-1 -49.590320521592858 -13.185958250161438 2.7155048000740267 0.7660444514056185 0 -0.64278759981090561 0.1606968999527264 0 0.19151111285140462 1 I I -0.70710678118654746 0.70710678118654746 0.25 forward I I I I #
loop $-1 $-1 $117 $29 #
coedge $-1 $73 $73 $118 $119 reversed $46 $-1 #
face $-1 $120 $121 $18 $-1 $122 reversed single #
loop $-1 $-1 $123 $48 #
plane-surface $-1 0 -24.87975752252083 0 0 1 0 0 0 1 forward_v I I I I #
coedge $-1 $124 $125 $126 $127 forward $49 $-1 #
coedge $-1 $128 $51 $129 $130 forward $31 $-1 #
coedge $-1 $51 $128 $131 $132 forward $31 $-1 #
coedge $-1 $133 $134 $51 $81 reversed $135 $-1 #
edge $-1 $136 -24.87975752252083 $137 24.87975752252083 $80 $138 forward 7 unknown #
face $-1 $139 $140 $19 $-1 $141 reversed single #
loop $-1 $-1 $142 $52 #
plane-surface $-1 -51.82775353251747 0 0 1 0 0 0 0 -1 forward_v I I I I #
coedge $-1 $143 $144 $145 $146 reversed $53 $-1 #
coedge $-1 $147 $55 $148 $149 reversed $34 $-1 #
coedge $-1 $55 $147 $150 $151 forward $34 $-1 #
coedge $-1 $152 $153 $55 $89 forward $154 $-1 #
edge $-1 $155 -13.708851146145596 $156 -8.6329616066048711 $88 $157 forward 7 unknown #
face $-1 $158 $159 $20 $-1 $160 forward single #
loop $-1 $-1 $161 $56 #
plane-surface $-1 0 -19.803867982980105 3.5442878849182069 0 -1 0 0 0 -1 forward_v I I I I #
coedge $-1 $162 $163 $164 $165 reversed $57 $-1 #
coedge $-1 $95 $59 $166 $167 reversed $37 $-1 #
coedge $-1 $59 $94 $162 $168 reversed $37 $-1 #
coedge $-1 $164 $169 $59 $97 forward $159 $-1 #
edge $-1 $170 -19.525751040613876 $171 -16.965996147278702 $96 $172 forward 7 unknown #
loop $-1 $-1 $103 $60 #
plane-surface $-1 -14.800721060998711 -13.185958250161436 81.398416759563005 0.7660444514056185 0 0.64278759981090561 0.64278759981090561 0 -0.7660444514056185 forward_v I I I I #
loop $-1 $-1 $173 $39 #
coedge $-1 $101 $101 $102 $174 reversed $61 $-1 #
coedge $-1 $102 $102 $101 $174 forward $63 $-1 #
coedge $-1 $103 $103 $64 $104 forward $98 $-1 #
edge $-1 $175 0 $175 6.2831853071796004 $103 $176 forward 7 unknown #
face $-1 $177 $178 $22 $-1 $179 reversed single #
loop $-1 $-1 $111 $65 #
plane-surface $-1 0 0 5.0442878849182069 0 0 1 1 0 0 forward_v I I I I #
coedge $-1 $180 $181 $182 $183 reversed $66 $-1 #
coedge $-1 $184 $68 $185 $186 reversed $43 $-1 #
coedge $-1 $68 $184 $180 $187 forward $43 $-1 #
coedge $-1 $182 $188 $68 $112 forward $106 $-1 #
edge $-1 $189 -13.210888857899388 $190 0.024930607737950972 $111 $191 forward 7 unknown #
loop $-1 $-1 $118 $69 #
plane-surface $-1 -51.827753532517477 -13.185958250161436 1.9936907147571077 -0.7660444514056185 0 0.64278759981090561 0.64278759981090561 0 0.7660444514056185 forward_v I I I I #
loop $-1 $-1 $192 $45 #
coedge $-1 $116 $116 $117 $193 reversed $70 $-1 #
coedge $-1 $117 $117 $116 $193 forward $72 $-1 #
coedge $-1 $118 $118 $73 $119 forward $113 $-1 #
edge $-1 $194 0 $194 6.2831853071796004 $118 $195 forward 7 unknown #
face $-1 $196 $197 $18 $-1 $198 reversed single #
loop $-1 $-1 $199 $74 #
plane-surface $-1 -51.82775353251747 0 0 1 0 0 0 0 -1 forward_v I I I I #
coedge $-1 $200 $131 $201 $202 forward $75 $-1 #
coedge $-1 $203 $77 $200 $204 forward $49 $-1 #
coedge $-1 $77 $203 $205 $206 forward $49 $-1 #
coedge $-1 $134 $133 $77 $127 reversed $135 $-1 #
edge $-1 $207 -24.87975752252083 $208 24.87975752252083 $126 $209 forward 7 unknown #
coedge $-1 $79 $78 $210 $211 forward $31 $-1 #
coedge $-1 $212 $213 $78 $130 reversed $197 $-1 #
edge $-1 $137 -51.82775353251747 $214 51.82775353251747 $129 $215 forward 7 unknown #
coedge $-1 $123 $216 $79 $132 reversed $75 $-1 #
edge $-1 $217 -51.82775353251747 $136 51.82775353251747 $131 $218 forward 7 unknown #
coedge $-1 $126 $80 $216 $219 forward $135 $-1 #
coedge $-1 $80 $126 $212 $220 reversed $135 $-1 #
loop $-1 $-1 $133 $196 #
vertex $-1 $81 $221 #
vertex $-1 $81 $222 #
straight-curve $-1 51.82775353251747 0 5.0442878849182069 0 1 0 I I #
face $-1 $223 $224 $19 $-1 $225 forward single #
loop $-1 $-1 $148 $82 #
plane-surface $-1 0 -24.87975752252083 0 0 1 0 0 0 1 forward_v I I I I #
coedge $-1 $226 $227 $144 $228 forward $83 $-1 #
coedge $-1 $150 $85 $152 $229 reversed $53 $-1 #
coedge $-1 $85 $150 $142 $228 reversed $53 $-1 #
coedge $-1 $230 $231 $85 $146 forward $224 $-1 #
edge $-1 $232 -51.82775353251747 $233 51.82775353251747 $145 $234 forward 7 unknown #
coedge $-1 $87 $86 $226 $235 reversed $34 $-1 #
coedge $-1 $236 $237 $86 $149 forward $140 $-1 #
edge $-1 $238 -51.82775353251747 $155 51.82775353251747 $148 $239 forward 7 unknown #
coedge $-1 $144 $143 $87 $151 reversed $53 $-1 #
edge $-1 $240 -51.82775353251747 $156 51.82775353251747 $150 $241 forward 7 unknown #
coedge $-1 $242 $88 $143 $229 forward $154 $-1 #
coedge $-1 $88 $242 $236 $243 forward $154 $-1 #
loop $-1 $-1 $152 $223 #
vertex $-1 $149 $244 #
vertex $-1 $89 $245 #
straight-curve $-1 51.82775353251747 -11.170906376375234 2.0442878849182069 0 1 0 I I #
face $-1 $-1 $246 $20 $-1 $247 reversed single #
loop $-1 $-1 $164 $90 #
plane-surface $-1 0 0 5.0442878849182069 0 0 1 1 0 0 forward_v I I I I #
coedge $-1 $248 $249 $163 $250 reversed $91 $-1 #
coedge $-1 $251 $93 $95 $168 forward $57 $-1 #
coedge $-1 $93 $251 $161 $250 forward $57 $-1 #
coedge $-1 $252 $96 $93 $165 forward $159 $-1 #
edge $-1 $171 -0.024930607737950972 $253 13.210888857899388 $164 $254 forward 7 unknown #
coedge $-1 $255 $256 $94 $167 forward $246 $-1 #
edge $-1 $257 -72.019754961782496 $170 -68.969157791621384 $166 $258 forward 7 unknown #
edge $-1 $171 99.673235325368225 $257 103.65550706503497 $95 $259 forward 7 unknown #
coedge $-1 $96 $252 $255 $260 forward $159 $-1 #
vertex $-1 $167 $261 #
vertex $-1 $97 $262 #
straight-curve $-1 32.302002491903593 -6.568048517342767 5.0442878849182051 -1 0 0 I I #
coedge $-1 $173 $173 $-1 $263 reversed $100 $-1 #
edge $-1 $264 0 $264 6.2831853071796004 $101 $265 forward 7 unknown #
vertex $-1 $104 $266 #
ellipse-curve $-1 50.547876085849879 -13.185958250161438 3.5189892998376551 0.7660444514056185 0 0.64278759981090561 0.3213937999054528 0 -0.38302222570280925 1 I I #
face $-1 $-1 $267 $22 $-1 $268 forward single #
loop $-1 $-1 $269 $105 #
plane-surface $-1 -51.82775353251747 0 0 1 0 0 0 0 -1 forward_v I I I I #
coedge $-1 $181 $108 $110 $187 reversed $66 $-1 #
coedge $-1 $108 $180 $269 $270 reversed $66 $-1 #
coedge $-1 $271 $111 $108 $183 forward $106 $-1 #
edge $-1 $190 -16.348241149479392 $272 -13.788486256144218 $182 $273 forward 7 unknown #
coedge $-1 $110 $109 $274 $275 reversed $43 $-1 #
coedge $-1 $276 $277 $109 $186 forward $267 $-1 #
edge $-1 $278 -17.251031827662619 $189 -13.268760087995897 $185 $279 forward 7 unknown #
edge $-1 $280 1.1030930024383267e-014 $190 3.9822717396667344 $180 $281 forward 7 unknown #
coedge $-1 $111 $271 $276 $282 forward $106 $-1 #
vertex $-1 $186 $283 #
vertex $-1 $112 $284 #
straight-curve $-1 -49.267998639182295 -6.5929791250807179 5.0442878849182069 0 1 0 I I #
coedge $-1 $192 $192 $-1 $285 reversed $115 $-1 #
edge $-1 $286 0 $286 6.2831853071796004 $116 $287 forward 7 unknown #
vertex $-1 $119 $288 #
ellipse-curve $-1 -50.547876085849886 -13.185958250161438 3.5189892998376631 -0.7660444514056185 0 0.64278759981090561 0.3213937999054528 0 0.38302222570280925 1 I I #
face $-1 $-1 $135 $18 $-1 $289 reversed single #
loop $-1 $-1 $212 $120 #
plane-surface $-1 0 24.87975752252083 0 0 -1 0 0 0 -1 forward_v I I I I #
coedge $-1 $290 $210 $213 $291 forward $121 $-1 #
coedge $-1 $216 $123 $124 $204 reversed $75 $-1 #
coedge $-1 $210 $290 $123 $202 reversed $121 $-1 #
edge $-1 $217 -5.0442878849182069 $292 5.0442878849182069 $201 $293 forward 7 unknown #
coedge $-1 $125 $124 $290 $294 forward $49 $-1 #
edge $-1 $208 -51.82775353251747 $292 51.82775353251747 $200 $295 forward 7 unknown #
coedge $-1 $213 $212 $125 $206 reversed $197 $-1 #
edge $-1 $296 -51.82775353251747 $207 51.82775353251747 $205 $297 forward 7 unknown #
vertex $-1 $127 $298 #
vertex $-1 $219 $299 #
straight-curve $-1 51.82775353251747 0 -5.0442878849182069 0 -1 0 I I #
coedge $-1 $199 $201 $128 $211 reversed $121 $-1 #
edge $-1 $214 -24.87975752252083 $217 24.87975752252083 $210 $300 forward 7 unknown #
coedge $-1 $205 $129 $134 $220 forward $197 $-1 #
coedge $-1 $129 $205 $199 $291 reversed $197 $-1 #
vertex $-1 $130 $301 #
straight-curve $-1 0 24.87975752252083 5.0442878849182069 -1 0 0 I I #
coedge $-1 $131 $200 $133 $219 reversed $75 $-1 #
vertex $-1 $211 $302 #
straight-curve $-1 0 -24.87975752252083 5.0442878849182069 1 0 0 I I #
edge $-1 $136 -5.0442878849182069 $208 5.0442878849182069 $133 $303 forward 7 unknown #
edge $-1 $137 -5.0442878849182069 $207 5.0442878849182069 $134 $304 forward 7 unknown #
point $-1 51.82775353251747 -24.87975752252083 5.0442878849182069 #
point $-1 51.82775353251747 24.87975752252083 5.0442878849182069 #
face $-1 $-1 $154 $19 $-1 $305 reversed single #
loop $-1 $-1 $145 $139 #
plane-surface $-1 0 0 5.0442878849182069 0 0 1 1 0 0 forward_v I I I I #
coedge $-1 $306 $142 $147 $235 forward $83 $-1 #
coedge $-1 $142 $306 $230 $307 reversed $83 $-1 #
edge $-1 $233 -3.2721439424591034 $240 -0.27214394245910345 $142 $308 forward 7 unknown #
edge $-1 $156 0.27214394245910345 $232 3.2721439424591034 $152 $309 forward 7 unknown #
coedge $-1 $310 $145 $227 $307 forward $224 $-1 #
coedge $-1 $145 $310 $242 $311 forward $224 $-1 #
vertex $-1 $229 $312 #
vertex $-1 $307 $313 #
straight-curve $-1 0 -19.803867982980105 5.0442878849182069 -1 0 0 I I #
edge $-1 $240 8.6329616066048711 $238 13.708851146145596 $226 $314 forward 7 unknown #
coedge $-1 $315 $148 $153 $243 reversed $140 $-1 #
coedge $-1 $148 $315 $306 $316 forward $140 $-1 #
vertex $-1 $149 $317 #
straight-curve $-1 0 -24.87975752252083 2.0442878849182069 1 0 0 I I #
vertex $-1 $235 $318 #
straight-curve $-1 0 -19.803867982980105 2.0442878849182069 1 0 0 I I #
coedge $-1 $153 $152 $231 $311 reversed $154 $-1 #
edge $-1 $319 -5.0442878849182069 $155 -2.0442878849182069 $153 $320 forward 7 unknown #
point $-1 51.82775353251747 -24.87975752252083 2.0442878849182069 #
point $-1 51.82775353251747 -19.803867982980105 2.0442878849182069 #
loop $-1 $-1 $166 $158 #
plane-surface $-1 51.82775353251747 0 0 -1 0 0 0 0 1 forward_v I I I I #
coedge $-1 $249 $161 $321 $322 reversed $91 $-1 #
coedge $-1 $161 $248 $252 $323 reversed $91 $-1 #
edge $-1 $324 -103.65550706503497 $253 -99.673235325368225 $161 $325 forward 7 unknown #
coedge $-1 $163 $162 $256 $326 reversed $57 $-1 #
coedge $-1 $169 $164 $249 $323 forward $159 $-1 #
vertex $-1 $323 $327 #
straight-curve $-1 49.267998639182281 -6.5929791250807179 5.0442878849182051 0 -1 0 I I #
coedge $-1 $321 $166 $169 $260 reversed $246 $-1 #
coedge $-1 $166 $321 $251 $326 forward $246 $-1 #
vertex $-1 $167 $328 #
straight-curve $-1 51.82775353251747 -6.568048517342767 74.01344567653959 0 0 1 I I #
straight-curve $-1 -14.800721060998711 -6.568048517342767 81.398416759563005 0.64278759981090561 0 -0.7660444514056185 I I #
edge $-1 $329 -19.803867982980105 $170 -6.568048517342767 $255 $330 forward 7 unknown #
point $-1 51.82775353251747 -6.568048517342767 5.0442878849182069 #
point $-1 49.267998639182295 -6.568048517342767 5.0442878849182051 #
edge $-1 $331 1 $331 0 $173 $-1 forward 7 unknown #
vertex $-1 $174 $332 #
ellipse-curve $-1 49.781831634444266 -13.185958250161438 2.8762017000267539 0.7660444514056185 0 0.64278759981090561 0.3213937999054528 0 -0.38302222570280925 1 I I #
point $-1 50.869269885755344 -13.185958250161438 3.1359670741348502 #
loop $-1 $-1 $185 $177 #
plane-surface $-1 0 -19.803867982980105 3.5442878849182069 0 -1 0 0 0 -1 forward_v I I I I #
coedge $-1 $274 $333 $181 $270 forward $178 $-1 #
edge $-1 $272 29.266794769218436 $280 32.317391939379526 $269 $334 forward 7 unknown #
coedge $-1 $188 $182 $333 $335 forward $106 $-1 #
vertex $-1 $335 $336 #
straight-curve $-1 -65.616239788661687 -6.568048517342767 5.0442878849182051 -1 0 0 I I #
coedge $-1 $337 $269 $184 $275 forward $178 $-1 #
edge $-1 $280 -0.024930607737950972 $278 13.210888857899388 $274 $338 forward 7 unknown #
coedge $-1 $277 $185 $188 $282 reversed $267 $-1 #
coedge $-1 $185 $276 $337 $339 reversed $267 $-1 #
vertex $-1 $339 $340 #
straight-curve $-1 -40.739004189752677 -19.803867982980105 15.208747927359791 0.64278759981090572 0 0.76604445140561861 I I #
vertex $-1 $275 $341 #
straight-curve $-1 -51.827753532517477 -6.568048517342767 1.9936907147571077 0.64278759981090561 0 0.7660444514056185 I I #
edge $-1 $342 -51.82775353251747 $189 -49.267998639182295 $188 $343 forward 7 unknown #
point $-1 -49.267998639182295 -19.803867982980105 5.0442878849182069 #
point $-1 -49.267998639182295 -6.568048517342767 5.0442878849182069 #
edge $-1 $344 1 $344 0 $192 $-1 forward 7 unknown #
vertex $-1 $193 $345 #
ellipse-curve $-1 -49.781831634444259 -13.185958250161438 2.876201700026753 -0.7660444514056185 0 0.64278759981090561 0.3213937999054528 0 0.38302222570280925 1 I I #
point $-1 -50.226482285944428 -13.185958250161438 3.9020115255404679 #
plane-surface $-1 51.82775353251747 0 0 -1 0 0 0 0 1 forward_v I I I I #
coedge $-1 $201 $199 $203 $294 reversed $121 $-1 #
edge $-1 $214 -5.0442878849182069 $296 5.0442878849182069 $213 $346 forward 7 unknown #
vertex $-1 $294 $347 #
straight-curve $-1 -51.82775353251747 -24.87975752252083 0 0 0 -1 I I #
edge $-1 $292 -24.87975752252083 $296 24.87975752252083 $290 $348 forward 7 unknown #
straight-curve $-1 0 -24.87975752252083 -5.0442878849182069 -1 0 0 I I #
vertex $-1 $206 $349 #
straight-curve $-1 0 24.87975752252083 -5.0442878849182069 1 0 0 I I #
point $-1 51.82775353251747 24.87975752252083 -5.0442878849182069 #
point $-1 51.82775353251747 -24.87975752252083 -5.0442878849182069 #
straight-curve $-1 -51.82775353251747 0 5.0442878849182069 0 -1 0 I I #
point $-1 -51.82775353251747 24.87975752252083 5.0442878849182069 #
point $-1 -51.82775353251747 -24.87975752252083 5.0442878849182069 #
straight-curve $-1 51.82775353251747 -24.87975752252083 0 0 0 -1 I I #
straight-curve $-1 51.82775353251747 24.87975752252083 0 0 0 -1 I I #
plane-surface $-1 51.82775353251747 0 0 -1 0 0 0 0 1 forward_v I I I I #
coedge $-1 $227 $226 $237 $316 reversed $83 $-1 #
edge $-1 $233 19.803867982980105 $350 24.87975752252083 $227 $351 forward 7 unknown #
straight-curve $-1 -51.82775353251747 -19.803867982980105 1.7721439424591034 0 0 -1 I I #
straight-curve $-1 51.82775353251747 -19.803867982980105 1.7721439424591034 0 0 1 I I #
coedge $-1 $231 $230 $315 $352 forward $224 $-1 #
edge $-1 $319 -24.87975752252083 $232 -19.803867982980105 $242 $353 forward 7 unknown #
point $-1 51.82775353251747 -19.803867982980105 5.0442878849182069 #
point $-1 -51.82775353251747 -19.803867982980105 5.0442878849182069 #
straight-curve $-1 -51.82775353251747 -11.170906376375234 2.0442878849182069 0 -1 0 I I #
coedge $-1 $237 $236 $310 $352 reversed $140 $-1 #
edge $-1 $350 -5.0442878849182069 $238 -2.0442878849182069 $306 $354 forward 7 unknown #
point $-1 -51.82775353251747 -24.87975752252083 2.0442878849182069 #
point $-1 -51.82775353251747 -19.803867982980105 2.0442878849182069 #
vertex $-1 $311 $355 #
straight-curve $-1 51.82775353251747 -24.87975752252083 0 0 0 -1 I I #
coedge $-1 $256 $255 $248 $322 forward $246 $-1 #
edge $-1 $329 68.969157791621384 $324 72.019754961782496 $321 $356 forward 7 unknown #
edge $-1 $253 49.267998639182281 $329 51.82775353251747 $252 $357 forward 7 unknown #
vertex $-1 $322 $358 #
straight-curve $-1 -14.800721060998711 -19.803867982980105 81.398416759563005 -0.64278759981090561 0 0.7660444514056185 I I #
edge $-1 $324 -13.210888857899388 $257 0.024930607737950972 $256 $359 forward 7 unknown #
point $-1 49.267998639182281 -19.803867982980105 5.0442878849182069 #
point $-1 51.827753532517477 -6.568048517342767 1.9936907147570935 #
vertex $-1 $260 $360 #
straight-curve $-1 51.82775353251747 0 5.0442878849182069 0 1 0 I I #
vertex $-1 $263 $361 #
point $-1 50.103225434349724 -13.185958250161438 2.4931794743239446 #
coedge $-1 $269 $337 $271 $335 reversed $178 $-1 #
straight-curve $-1 -51.82775353251747 -6.568048517342767 34.311082654136641 0 0 -1 I I #
edge $-1 $272 6.568048517342767 $342 19.803867982980105 $333 $362 forward 7 unknown #
point $-1 -51.82775353251747 -6.568048517342767 5.0442878849182069 #
coedge $-1 $333 $274 $277 $339 forward $178 $-1 #
straight-curve $-1 -51.82775353251747 -6.5929791250807179 1.9936907147571215 0 -1 0 I I #
edge $-1 $278 -32.317391939379526 $342 -29.266794769218436 $337 $363 forward 7 unknown #
point $-1 -51.82775353251747 -19.803867982980105 1.9936907147571161 #
point $-1 -51.82775353251747 -6.568048517342767 1.9936907147571161 #
vertex $-1 $339 $364 #
straight-curve $-1 0 -19.803867982980105 5.0442878849182069 1 0 0 I I #
vertex $-1 $285 $365 #
point $-1 -49.460437834538808 -13.185958250161438 3.2592239257295623 #
straight-curve $-1 -51.82775353251747 24.87975752252083 0 0 0 -1 I I #
point $-1 -51.82775353251747 -24.87975752252083 -5.0442878849182069 #
straight-curve $-1 -51.82775353251747 0 -5.0442878849182069 0 1 0 I I #
point $-1 -51.82775353251747 24.87975752252083 -5.0442878849182069 #
vertex $-1 $307 $366 #
straight-curve $-1 -51.82775353251747 0 5.0442878849182069 0 -1 0 I I #
edge $-1 $350 -51.82775353251747 $319 51.82775353251747 $315 $367 forward 7 unknown #
straight-curve $-1 51.82775353251747 0 5.0442878849182069 0 1 0 I I #
straight-curve $-1 -51.82775353251747 -24.87975752252083 0 0 0 -1 I I #
point $-1 51.82775353251747 -24.87975752252083 5.0442878849182069 #
straight-curve $-1 51.82775353251747 -19.803867982980105 74.01344567653959 0 0 -1 I I #
straight-curve $-1 0 -19.803867982980105 5.0442878849182069 1 0 0 I I #
point $-1 51.827753532517477 -19.803867982980105 1.9936907147570935 #
straight-curve $-1 51.827753532517463 -6.5929791250807179 1.9936907147571006 0 1 0 I I #
point $-1 51.82775353251747 -19.803867982980105 5.0442878849182069 #
point $-1 49.398809408741464 -13.185958250161438 2.5548079001213013 #
straight-curve $-1 -51.82775353251747 0 5.0442878849182069 0 -1 0 I I #
straight-curve $-1 -51.82775353251747 -19.803867982980105 34.311082654136641 0 0 1 I I #
point $-1 -51.82775353251747 -19.803867982980105 5.0442878849182069 #
point $-1 -49.398809408741457 -13.185958250161438 2.5548079001213004 #
point $-1 -51.82775353251747 -24.87975752252083 5.0442878849182069 #
straight-curve $-1 0 -24.87975752252083 5.0442878849182069 1 0 0 I I #
End-of-ACIS-data 