500 0 11 0           
7 Unknown 11 ACIS 5.0 NT 24 Fri Mar 26 19:10:53 1999 
-1 9.9999999999999995e-007 1e-010 
body $-1 $11 $-1 $12 #
body $-1 $13 $-1 $14 #
body $-1 $15 $-1 $16 #
body $-1 $17 $-1 $18 #
body $-1 $19 $-1 $20 #
body $-1 $21 $-1 $22 #
body $-1 $23 $-1 $24 #
body $-1 $25 $-1 $26 #
body $-1 $27 $-1 $28 #
body $-1 $29 $-1 $30 #
body $-1 $31 $-1 $32 #
lump $-1 $-1 $33 $0 #
transform $-1 1 0 0 0 1 0 0 0 1 45.778984954374828 19.587012401649488 4.3546088425408556 1 rotate no_reflect no_shear #
lump $-1 $-1 $34 $1 #
transform $-1 1 0 0 0 1 0 0 0 1 45.778984954374828 2.8029516872033917 7.2092176850817111 1 rotate no_reflect no_shear #
lump $-1 $-1 $35 $2 #
transform $-1 0.51503806187062418 0 0.85716730853699208 0 1 0 -0.85716730853699208 0 0.51503806187062418 -78.480498641793858 13.61645550145608 52.019640910487198 1 rotate no_reflect no_shear #
lump $-1 $-1 $36 $3 #
transform $-1 0.51503806187062418 0 0.85716730853699208 0 -1 0 0.85716730853699208 0 -0.51503806187062418 3.361503708327529 13.61645550145608 5.4608764283907112 1 rotate no_reflect no_shear #
lump $-1 $-1 $37 $4 #
transform $-1 0.51503806187062418 0 0.85716730853699208 0 1 0 -0.85716730853699208 0 0.51503806187062418 -78.480498641793858 22.389964088852878 52.019640910487198 1 rotate no_reflect no_shear #
lump $-1 $-1 $38 $5 #
transform $-1 0.51503806187062418 0 0.85716730853699208 0 -1 0 0.85716730853699208 0 -0.51503806187062418 3.361503708327529 22.389964088852878 5.4608764283907112 1 rotate no_reflect no_shear #
lump $-1 $-1 $39 $6 #
transform $-1 0.51503806187062418 0 0.85716730853699208 0 1 0 -0.85716730853699208 0 0.51503806187062418 -78.480498641793858 31.163472676249675 52.019640910487198 1 rotate no_reflect no_shear #
lump $-1 $-1 $40 $7 #
transform $-1 0.51503806187062418 0 0.85716730853699208 0 -1 0 0.85716730853699208 0 -0.51503806187062418 3.361503708327529 31.163472676249675 5.4608764283907112 1 rotate no_reflect no_shear #
lump $-1 $-1 $41 $8 #
transform $-1 0.55919289150049634 0 -0.82903758062907751 0 1 0 0.82903758062907751 0 0.55919289150049634 116.2644018360202 10.141680392980906 131.65160550383851 1 rotate no_reflect no_shear #
lump $-1 $-1 $42 $9 #
transform $-1 0.55919289150049634 0 -0.82903758062907751 0 -1 0 -0.82903758062907751 0 -0.55919289150049634 86.637062072432499 8.1977759564491386 4.2560234253774496 1 rotate no_reflect no_shear #
lump $-1 $-1 $43 $10 #
transform $-1 0.55919289150049634 0 -0.82903758062907751 0 -1 0 -0.82903758062907751 0 -0.55919289150049634 86.637062072432499 12.085584829512673 4.2560234253774496 1 rotate no_reflect no_shear #
shell $-1 $-1 $-1 $44 $-1 $11 #
shell $-1 $-1 $-1 $45 $-1 $13 #
shell $-1 $-1 $-1 $46 $-1 $15 #
shell $-1 $-1 $-1 $47 $-1 $17 #
shell $-1 $-1 $-1 $48 $-1 $19 #
shell $-1 $-1 $-1 $49 $-1 $21 #
shell $-1 $-1 $-1 $50 $-1 $23 #
shell $-1 $-1 $-1 $51 $-1 $25 #
shell $-1 $-1 $-1 $52 $-1 $27 #
shell $-1 $-1 $-1 $53 $-1 $29 #
shell $-1 $-1 $-1 $54 $-1 $31 #
face $-1 $55 $56 $33 $-1 $57 forward single #
face $-1 $58 $59 $34 $-1 $60 forward single #
face $-1 $61 $62 $35 $-1 $63 forward single #
face $-1 $64 $65 $36 $-1 $66 forward single #
face $-1 $67 $68 $37 $-1 $69 forward single #
face $-1 $70 $71 $38 $-1 $72 forward single #
face $-1 $73 $74 $39 $-1 $75 forward single #
face $-1 $76 $77 $40 $-1 $78 forward single #
face $-1 $79 $80 $41 $-1 $81 forward single #
face $-1 $82 $83 $42 $-1 $84 forward single #
face $-1 $85 $86 $43 $-1 $87 forward single #
face $-1 $88 $89 $33 $-1 $90 reversed single #
loop $-1 $-1 $91 $44 #
plane-surface $-1 0 0 4.3546088425408556 0 0 1 1 0 0 forward_v I I I I #
face $-1 $92 $93 $34 $-1 $94 reversed single #
loop $-1 $-1 $95 $45 #
plane-surface $-1 0 0 1.5 0 0 1 1 0 0 forward_v I I I I #
face $-1 $96 $97 $35 $-1 $98 reversed single #
loop $-1 $-1 $99 $46 #
plane-surface $-1 0 0 91.557969908749655 0 0 1 1 0 0 forward_v I I I I #
face $-1 $100 $101 $36 $-1 $102 forward single #
loop $-1 $103 $104 $47 #
cone-surface $-1 0 0 -1.5369273964659564 0 0 1 1 0 0 1 I I 0 1 1 forward I I I I #
face $-1 $105 $106 $37 $-1 $107 reversed single #
loop $-1 $-1 $108 $48 #
plane-surface $-1 0 0 91.557969908749655 0 0 1 1 0 0 forward_v I I I I #
face $-1 $109 $110 $38 $-1 $111 forward single #
loop $-1 $112 $113 $49 #
cone-surface $-1 0 0 -1.5369273964659564 0 0 1 1 0 0 1 I I 0 1 1 forward I I I I #
face $-1 $114 $115 $39 $-1 $116 reversed single #
loop $-1 $-1 $117 $50 #
plane-surface $-1 0 0 91.557969908749655 0 0 1 1 0 0 forward_v I I I I #
face $-1 $118 $119 $40 $-1 $120 forward single #
loop $-1 $121 $122 $51 #
cone-surface $-1 0 0 -1.5369273964659564 0 0 1 1 0 0 1 I I 0 1 1 forward I I I I #
face $-1 $123 $124 $41 $-1 $125 reversed single #
loop $-1 $-1 $126 $52 #
plane-surface $-1 0 0 91.557969908749655 0 0 1 1 0 0 forward_v I I I I #
face $-1 $127 $128 $42 $-1 $129 forward single #
loop $-1 $130 $131 $53 #
cone-surface $-1 0 0 -2.3714560380870999 0 0 1 1 0 0 1 I I 0 1 1 forward I I I I #
face $-1 $132 $133 $43 $-1 $134 forward single #
loop $-1 $135 $136 $54 #
cone-surface $-1 0 0 -2.3714560380870999 0 0 1 1 0 0 1 I I 0 1 1 forward I I I I #
face $-1 $137 $138 $33 $-1 $139 reversed single #
loop $-1 $-1 $140 $55 #
plane-surface $-1 0 0 -4.3546088425408556 0 0 1 1 0 0 forward_v I I I I #
coedge $-1 $141 $142 $143 $144 forward $56 $-1 #
face $-1 $145 $146 $34 $-1 $147 reversed single #
loop $-1 $-1 $148 $58 #
plane-surface $-1 0 0 -1.5 0 0 1 1 0 0 forward_v I I I I #
coedge $-1 $149 $150 $151 $152 forward $59 $-1 #
face $-1 $153 $154 $35 $-1 $155 reversed single #
loop $-1 $-1 $156 $61 #
plane-surface $-1 0 0 -91.557969908749655 0 0 1 1 0 0 forward_v I I I I #
coedge $-1 $157 $158 $159 $160 forward $62 $-1 #
face $-1 $-1 $161 $36 $-1 $162 forward single #
loop $-1 $-1 $163 $64 #
plane-surface $-1 0 0 -2.5738547929319129 0 0 -1 -1 0 0 forward_v I I I I #
loop $-1 $-1 $164 $47 #
coedge $-1 $104 $104 $163 $165 reversed $65 $-1 #
face $-1 $166 $167 $37 $-1 $168 reversed single #
loop $-1 $-1 $169 $67 #
plane-surface $-1 0 0 -91.557969908749655 0 0 1 1 0 0 forward_v I I I I #
coedge $-1 $170 $171 $172 $173 forward $68 $-1 #
face $-1 $-1 $174 $38 $-1 $175 forward single #
loop $-1 $-1 $176 $70 #
plane-surface $-1 0 0 -2.5738547929319129 0 0 -1 -1 0 0 forward_v I I I I #
loop $-1 $-1 $177 $49 #
coedge $-1 $113 $113 $176 $178 reversed $71 $-1 #
face $-1 $179 $180 $39 $-1 $181 reversed single #
loop $-1 $-1 $182 $73 #
plane-surface $-1 0 0 -91.557969908749655 0 0 1 1 0 0 forward_v I I I I #
coedge $-1 $183 $184 $185 $186 forward $74 $-1 #
face $-1 $-1 $187 $40 $-1 $188 forward single #
loop $-1 $-1 $189 $76 #
plane-surface $-1 0 0 -2.5738547929319129 0 0 -1 -1 0 0 forward_v I I I I #
loop $-1 $-1 $190 $51 #
coedge $-1 $122 $122 $189 $191 reversed $77 $-1 #
face $-1 $192 $193 $41 $-1 $194 reversed single #
loop $-1 $-1 $195 $79 #
plane-surface $-1 0 0 -91.557969908749655 0 0 1 1 0 0 forward_v I I I I #
coedge $-1 $196 $197 $198 $199 forward $80 $-1 #
face $-1 $-1 $200 $42 $-1 $201 forward single #
loop $-1 $-1 $202 $82 #
plane-surface $-1 0 0 -4.2429120761741999 0 0 -1 -1 0 0 forward_v I I I I #
loop $-1 $-1 $203 $53 #
coedge $-1 $131 $131 $202 $204 reversed $83 $-1 #
face $-1 $-1 $205 $43 $-1 $206 forward single #
loop $-1 $-1 $207 $85 #
plane-surface $-1 0 0 -4.2429120761741999 0 0 -1 -1 0 0 forward_v I I I I #
loop $-1 $-1 $208 $54 #
coedge $-1 $136 $136 $207 $209 reversed $86 $-1 #
face $-1 $210 $211 $33 $-1 $212 reversed single #
loop $-1 $-1 $213 $88 #
plane-surface $-1 0 -19.587012401649488 0 0 1 0 0 0 1 forward_v I I I I #
coedge $-1 $214 $215 $216 $217 forward $89 $-1 #
coedge $-1 $218 $91 $219 $220 forward $56 $-1 #
coedge $-1 $91 $218 $221 $222 forward $56 $-1 #
coedge $-1 $223 $224 $91 $144 reversed $225 $-1 #
edge $-1 $226 -19.587012401649488 $227 19.587012401649488 $143 $228 forward 7 unknown #
face $-1 $229 $230 $34 $-1 $231 reversed single #
loop $-1 $-1 $232 $92 #
plane-surface $-1 0 -2.8029516872033917 0 0 1 0 0 0 1 forward_v I I I I #
coedge $-1 $233 $234 $235 $236 forward $93 $-1 #
coedge $-1 $237 $95 $238 $239 forward $59 $-1 #
coedge $-1 $95 $237 $240 $241 forward $59 $-1 #
coedge $-1 $242 $243 $95 $152 reversed $244 $-1 #
edge $-1 $245 -2.8029516872033917 $246 2.8029516872033917 $151 $247 forward 7 unknown #
face $-1 $248 $249 $35 $-1 $250 reversed single #
loop $-1 $-1 $251 $96 #
plane-surface $-1 0 -3.1788216825814324 0 0 1 0 0 0 1 forward_v I I I I #
coedge $-1 $252 $253 $254 $255 forward $97 $-1 #
coedge $-1 $256 $99 $257 $258 forward $62 $-1 #
coedge $-1 $99 $256 $259 $260 forward $62 $-1 #
coedge $-1 $261 $262 $99 $160 reversed $263 $-1 #
edge $-1 $264 -3.1788216825814324 $265 3.1788216825814324 $159 $266 forward 7 unknown #
loop $-1 $267 $268 $100 #
cone-surface $-1 0 0 0 0 0 1 0.5 0 0 1 I I -0.70710678118654746 0.70710678118654746 0.5 forward I I I I #
coedge $-1 $163 $163 $104 $165 forward $101 $-1 #
coedge $-1 $164 $164 $268 $269 forward $103 $-1 #
edge $-1 $270 0 $270 6.2831853071796004 $163 $271 forward 7 unknown #
face $-1 $272 $273 $37 $-1 $274 reversed single #
loop $-1 $-1 $275 $105 #
plane-surface $-1 0 -3.1788216825814324 0 0 1 0 0 0 1 forward_v I I I I #
coedge $-1 $276 $277 $278 $279 forward $106 $-1 #
coedge $-1 $280 $108 $281 $282 forward $68 $-1 #
coedge $-1 $108 $280 $283 $284 forward $68 $-1 #
coedge $-1 $285 $286 $108 $173 reversed $287 $-1 #
edge $-1 $288 -3.1788216825814324 $289 3.1788216825814324 $172 $290 forward 7 unknown #
loop $-1 $291 $292 $109 #
cone-surface $-1 0 0 0 0 0 1 0.5 0 0 1 I I -0.70710678118654746 0.70710678118654746 0.5 forward I I I I #
coedge $-1 $176 $176 $113 $178 forward $110 $-1 #
coedge $-1 $177 $177 $292 $293 forward $112 $-1 #
edge $-1 $294 0 $294 6.2831853071796004 $176 $295 forward 7 unknown #
face $-1 $296 $297 $39 $-1 $298 reversed single #
loop $-1 $-1 $299 $114 #
plane-surface $-1 0 -3.1788216825814324 0 0 1 0 0 0 1 forward_v I I I I #
coedge $-1 $300 $301 $302 $303 forward $115 $-1 #
coedge $-1 $304 $117 $305 $306 forward $74 $-1 #
coedge $-1 $117 $304 $307 $308 forward $74 $-1 #
coedge $-1 $309 $310 $117 $186 reversed $311 $-1 #
edge $-1 $312 -3.1788216825814324 $313 3.1788216825814324 $185 $314 forward 7 unknown #
loop $-1 $315 $316 $118 #
cone-surface $-1 0 0 0 0 0 1 0.5 0 0 1 I I -0.70710678118654746 0.70710678118654746 0.5 forward I I I I #
coedge $-1 $189 $189 $122 $191 forward $119 $-1 #
coedge $-1 $190 $190 $316 $317 forward $121 $-1 #
edge $-1 $318 0 $318 6.2831853071796004 $189 $319 forward 7 unknown #
face $-1 $320 $321 $41 $-1 $322 reversed single #
loop $-1 $-1 $323 $123 #
plane-surface $-1 0 -4.5357770185741231 0 0 1 0 0 0 1 forward_v I I I I #
coedge $-1 $324 $325 $326 $327 forward $124 $-1 #
coedge $-1 $328 $126 $329 $330 forward $80 $-1 #
coedge $-1 $126 $328 $331 $332 forward $80 $-1 #
coedge $-1 $333 $334 $126 $199 reversed $335 $-1 #
edge $-1 $336 -4.5357770185741231 $337 4.5357770185741231 $198 $338 forward 7 unknown #
loop $-1 $339 $340 $127 #
cone-surface $-1 0 0 0 0 0 1 0.5 0 0 1 I I -0.70710678118654746 0.70710678118654746 0.5 forward I I I I #
coedge $-1 $202 $202 $131 $204 forward $128 $-1 #
coedge $-1 $203 $203 $340 $341 forward $130 $-1 #
edge $-1 $342 0 $342 6.2831853071796004 $202 $343 forward 7 unknown #
loop $-1 $344 $345 $132 #
cone-surface $-1 0 0 0 0 0 1 0.5 0 0 1 I I -0.70710678118654746 0.70710678118654746 0.5 forward I I I I #
coedge $-1 $207 $207 $136 $209 forward $133 $-1 #
coedge $-1 $208 $208 $345 $346 forward $135 $-1 #
edge $-1 $347 0 $347 6.2831853071796004 $207 $348 forward 7 unknown #
face $-1 $349 $350 $33 $-1 $351 reversed single #
loop $-1 $-1 $352 $137 #
plane-surface $-1 -45.778984954374828 0 0 1 0 0 0 0 -1 forward_v I I I I #
coedge $-1 $353 $221 $354 $355 forward $138 $-1 #
coedge $-1 $356 $140 $353 $357 forward $89 $-1 #
coedge $-1 $140 $356 $358 $359 forward $89 $-1 #
coedge $-1 $224 $223 $140 $217 reversed $225 $-1 #
edge $-1 $360 -19.587012401649488 $361 19.587012401649488 $216 $362 forward 7 unknown #
coedge $-1 $142 $141 $363 $364 forward $56 $-1 #
coedge $-1 $365 $366 $141 $220 reversed $350 $-1 #
edge $-1 $227 -45.778984954374828 $367 45.778984954374828 $219 $368 forward 7 unknown #
coedge $-1 $213 $369 $142 $222 reversed $138 $-1 #
edge $-1 $370 -45.778984954374828 $226 45.778984954374828 $221 $371 forward 7 unknown #
coedge $-1 $216 $143 $369 $372 forward $225 $-1 #
coedge $-1 $143 $216 $365 $373 reversed $225 $-1 #
loop $-1 $-1 $223 $349 #
vertex $-1 $144 $374 #
vertex $-1 $144 $375 #
straight-curve $-1 45.778984954374828 0 4.3546088425408556 0 1 0 I I #
face $-1 $376 $377 $34 $-1 $378 reversed single #
loop $-1 $-1 $379 $145 #
plane-surface $-1 -45.778984954374828 0 0 1 0 0 0 0 -1 forward_v I I I I #
coedge $-1 $380 $240 $381 $382 forward $146 $-1 #
coedge $-1 $383 $148 $380 $384 forward $93 $-1 #
coedge $-1 $148 $383 $385 $386 forward $93 $-1 #
coedge $-1 $243 $242 $148 $236 reversed $244 $-1 #
edge $-1 $387 -2.8029516872033917 $388 2.8029516872033917 $235 $389 forward 7 unknown #
coedge $-1 $150 $149 $390 $391 forward $59 $-1 #
coedge $-1 $392 $393 $149 $239 reversed $377 $-1 #
edge $-1 $246 -45.778984954374828 $394 45.778984954374828 $238 $395 forward 7 unknown #
coedge $-1 $232 $396 $150 $241 reversed $146 $-1 #
edge $-1 $397 -45.778984954374828 $245 45.778984954374828 $240 $398 forward 7 unknown #
coedge $-1 $235 $151 $396 $399 forward $244 $-1 #
coedge $-1 $151 $235 $392 $400 reversed $244 $-1 #
loop $-1 $-1 $242 $376 #
vertex $-1 $152 $401 #
vertex $-1 $152 $402 #
straight-curve $-1 45.778984954374828 0 1.5 0 1 0 I I #
face $-1 $403 $404 $35 $-1 $405 reversed single #
loop $-1 $-1 $406 $153 #
plane-surface $-1 -183.11593981749931 0 0 1 0 0 0 0 -1 forward_v I I I I #
coedge $-1 $407 $259 $408 $409 forward $154 $-1 #
coedge $-1 $410 $156 $407 $411 forward $97 $-1 #
coedge $-1 $156 $410 $412 $413 forward $97 $-1 #
coedge $-1 $262 $261 $156 $255 reversed $263 $-1 #
edge $-1 $414 -3.1788216825814324 $415 3.1788216825814324 $254 $416 forward 7 unknown #
coedge $-1 $158 $157 $417 $418 forward $62 $-1 #
coedge $-1 $419 $420 $157 $258 reversed $404 $-1 #
edge $-1 $265 -183.11593981749931 $421 183.11593981749931 $257 $422 forward 7 unknown #
coedge $-1 $251 $423 $158 $260 reversed $154 $-1 #
edge $-1 $424 -183.11593981749931 $264 183.11593981749931 $259 $425 forward 7 unknown #
coedge $-1 $254 $159 $423 $426 forward $263 $-1 #
coedge $-1 $159 $254 $419 $427 reversed $263 $-1 #
loop $-1 $-1 $261 $403 #
vertex $-1 $160 $428 #
vertex $-1 $160 $429 #
straight-curve $-1 183.11593981749931 0 91.557969908749655 0 1 0 I I #
loop $-1 $-1 $430 $100 #
coedge $-1 $268 $268 $164 $269 reversed $161 $-1 #
edge $-1 $431 0 $431 6.2831853071796004 $268 $432 forward 7 unknown #
vertex $-1 $165 $433 #
ellipse-curve $-1 0 0 -2.5738547929319129 0 0 -1 1 0 0 1 I I #
face $-1 $434 $435 $37 $-1 $436 reversed single #
loop $-1 $-1 $437 $166 #
plane-surface $-1 -183.11593981749931 0 0 1 0 0 0 0 -1 forward_v I I I I #
coedge $-1 $438 $283 $439 $440 forward $167 $-1 #
coedge $-1 $441 $169 $438 $442 forward $106 $-1 #
coedge $-1 $169 $441 $443 $444 forward $106 $-1 #
coedge $-1 $286 $285 $169 $279 reversed $287 $-1 #
edge $-1 $445 -3.1788216825814324 $446 3.1788216825814324 $278 $447 forward 7 unknown #
coedge $-1 $171 $170 $448 $449 forward $68 $-1 #
coedge $-1 $450 $451 $170 $282 reversed $435 $-1 #
edge $-1 $289 -183.11593981749931 $452 183.11593981749931 $281 $453 forward 7 unknown #
coedge $-1 $275 $454 $171 $284 reversed $167 $-1 #
edge $-1 $455 -183.11593981749931 $288 183.11593981749931 $283 $456 forward 7 unknown #
coedge $-1 $278 $172 $454 $457 forward $287 $-1 #
coedge $-1 $172 $278 $450 $458 reversed $287 $-1 #
loop $-1 $-1 $285 $434 #
vertex $-1 $173 $459 #
vertex $-1 $173 $460 #
straight-curve $-1 183.11593981749931 0 91.557969908749655 0 1 0 I I #
loop $-1 $-1 $461 $109 #
coedge $-1 $292 $292 $177 $293 reversed $174 $-1 #
edge $-1 $462 0 $462 6.2831853071796004 $292 $463 forward 7 unknown #
vertex $-1 $178 $464 #
ellipse-curve $-1 0 0 -2.5738547929319129 0 0 -1 1 0 0 1 I I #
face $-1 $465 $466 $39 $-1 $467 reversed single #
loop $-1 $-1 $468 $179 #
plane-surface $-1 -183.11593981749931 0 0 1 0 0 0 0 -1 forward_v I I I I #
coedge $-1 $469 $307 $470 $471 forward $180 $-1 #
coedge $-1 $472 $182 $469 $473 forward $115 $-1 #
coedge $-1 $182 $472 $474 $475 forward $115 $-1 #
coedge $-1 $310 $309 $182 $303 reversed $311 $-1 #
edge $-1 $476 -3.1788216825814324 $477 3.1788216825814324 $302 $478 forward 7 unknown #
coedge $-1 $184 $183 $479 $480 forward $74 $-1 #
coedge $-1 $481 $482 $183 $306 reversed $466 $-1 #
edge $-1 $313 -183.11593981749931 $483 183.11593981749931 $305 $484 forward 7 unknown #
coedge $-1 $299 $485 $184 $308 reversed $180 $-1 #
edge $-1 $486 -183.11593981749931 $312 183.11593981749931 $307 $487 forward 7 unknown #
coedge $-1 $302 $185 $485 $488 forward $311 $-1 #
coedge $-1 $185 $302 $481 $489 reversed $311 $-1 #
loop $-1 $-1 $309 $465 #
vertex $-1 $186 $490 #
vertex $-1 $186 $491 #
straight-curve $-1 183.11593981749931 0 91.557969908749655 0 1 0 I I #
loop $-1 $-1 $492 $118 #
coedge $-1 $316 $316 $190 $317 reversed $187 $-1 #
edge $-1 $493 0 $493 6.2831853071796004 $316 $494 forward 7 unknown #
vertex $-1 $191 $495 #
ellipse-curve $-1 0 0 -2.5738547929319129 0 0 -1 1 0 0 1 I I #
face $-1 $496 $497 $41 $-1 $498 reversed single #
loop $-1 $-1 $499 $192 #
plane-surface $-1 -183.11593981749931 0 0 1 0 0 0 0 -1 forward_v I I I I #
coedge $-1 $500 $331 $501 $502 forward $193 $-1 #
coedge $-1 $503 $195 $500 $504 forward $124 $-1 #
coedge $-1 $195 $503 $505 $506 forward $124 $-1 #
coedge $-1 $334 $333 $195 $327 reversed $335 $-1 #
edge $-1 $507 -4.5357770185741231 $508 4.5357770185741231 $326 $509 forward 7 unknown #
coedge $-1 $197 $196 $510 $511 forward $80 $-1 #
coedge $-1 $512 $513 $196 $330 reversed $497 $-1 #
edge $-1 $337 -183.11593981749931 $514 183.11593981749931 $329 $515 forward 7 unknown #
coedge $-1 $323 $516 $197 $332 reversed $193 $-1 #
edge $-1 $517 -183.11593981749931 $336 183.11593981749931 $331 $518 forward 7 unknown #
coedge $-1 $326 $198 $516 $519 forward $335 $-1 #
coedge $-1 $198 $326 $512 $520 reversed $335 $-1 #
loop $-1 $-1 $333 $496 #
vertex $-1 $199 $521 #
vertex $-1 $199 $522 #
straight-curve $-1 183.11593981749931 0 91.557969908749655 0 1 0 I I #
loop $-1 $-1 $523 $127 #
coedge $-1 $340 $340 $203 $341 reversed $200 $-1 #
edge $-1 $524 0 $524 6.2831853071796004 $340 $525 forward 7 unknown #
vertex $-1 $204 $526 #
ellipse-curve $-1 0 0 -4.2429120761741999 0 0 -1 1 0 0 1 I I #
loop $-1 $-1 $527 $132 #
coedge $-1 $345 $345 $208 $346 reversed $205 $-1 #
edge $-1 $528 0 $528 6.2831853071796004 $345 $529 forward 7 unknown #
vertex $-1 $209 $530 #
ellipse-curve $-1 0 0 -4.2429120761741999 0 0 -1 1 0 0 1 I I #
face $-1 $-1 $225 $33 $-1 $531 reversed single #
loop $-1 $-1 $365 $210 #
plane-surface $-1 0 19.587012401649488 0 0 -1 0 0 0 -1 forward_v I I I I #
coedge $-1 $532 $363 $366 $533 forward $211 $-1 #
coedge $-1 $369 $213 $214 $357 reversed $138 $-1 #
coedge $-1 $363 $532 $213 $355 reversed $211 $-1 #
edge $-1 $370 -4.3546088425408556 $534 4.3546088425408556 $354 $535 forward 7 unknown #
coedge $-1 $215 $214 $532 $536 forward $89 $-1 #
edge $-1 $361 -45.778984954374828 $534 45.778984954374828 $353 $537 forward 7 unknown #
coedge $-1 $366 $365 $215 $359 reversed $350 $-1 #
edge $-1 $538 -45.778984954374828 $360 45.778984954374828 $358 $539 forward 7 unknown #
vertex $-1 $217 $540 #
vertex $-1 $372 $541 #
straight-curve $-1 45.778984954374828 0 -4.3546088425408556 0 -1 0 I I #
coedge $-1 $352 $354 $218 $364 reversed $211 $-1 #
edge $-1 $367 -19.587012401649488 $370 19.587012401649488 $363 $542 forward 7 unknown #
coedge $-1 $358 $219 $224 $373 forward $350 $-1 #
coedge $-1 $219 $358 $352 $533 reversed $350 $-1 #
vertex $-1 $220 $543 #
straight-curve $-1 0 19.587012401649488 4.3546088425408556 -1 0 0 I I #
coedge $-1 $221 $353 $223 $372 reversed $138 $-1 #
vertex $-1 $364 $544 #
straight-curve $-1 0 -19.587012401649488 4.3546088425408556 1 0 0 I I #
edge $-1 $226 -4.3546088425408556 $361 4.3546088425408556 $223 $545 forward 7 unknown #
edge $-1 $227 -4.3546088425408556 $360 4.3546088425408556 $224 $546 forward 7 unknown #
point $-1 45.778984954374828 -19.587012401649488 4.3546088425408556 #
point $-1 45.778984954374828 19.587012401649488 4.3546088425408556 #
face $-1 $-1 $244 $34 $-1 $547 reversed single #
loop $-1 $-1 $392 $229 #
plane-surface $-1 0 2.8029516872033917 0 0 -1 0 0 0 -1 forward_v I I I I #
coedge $-1 $548 $390 $393 $549 forward $230 $-1 #
coedge $-1 $396 $232 $233 $384 reversed $146 $-1 #
coedge $-1 $390 $548 $232 $382 reversed $230 $-1 #
edge $-1 $397 -1.5 $550 1.5 $381 $551 forward 7 unknown #
coedge $-1 $234 $233 $548 $552 forward $93 $-1 #
edge $-1 $388 -45.778984954374828 $550 45.778984954374828 $380 $553 forward 7 unknown #
coedge $-1 $393 $392 $234 $386 reversed $377 $-1 #
edge $-1 $554 -45.778984954374828 $387 45.778984954374828 $385 $555 forward 7 unknown #
vertex $-1 $236 $556 #
vertex $-1 $399 $557 #
straight-curve $-1 45.778984954374828 0 -1.5 0 -1 0 I I #
coedge $-1 $379 $381 $237 $391 reversed $230 $-1 #
edge $-1 $394 -2.8029516872033917 $397 2.8029516872033917 $390 $558 forward 7 unknown #
coedge $-1 $385 $238 $243 $400 forward $377 $-1 #
coedge $-1 $238 $385 $379 $549 reversed $377 $-1 #
vertex $-1 $239 $559 #
straight-curve $-1 0 2.8029516872033917 1.5 -1 0 0 I I #
coedge $-1 $240 $380 $242 $399 reversed $146 $-1 #
vertex $-1 $391 $560 #
straight-curve $-1 0 -2.8029516872033917 1.5 1 0 0 I I #
edge $-1 $245 -1.5 $388 1.5 $242 $561 forward 7 unknown #
edge $-1 $246 -1.5 $387 1.5 $243 $562 forward 7 unknown #
point $-1 45.778984954374828 -2.8029516872033917 1.5 #
point $-1 45.778984954374828 2.8029516872033917 1.5 #
face $-1 $-1 $263 $35 $-1 $563 reversed single #
loop $-1 $-1 $419 $248 #
plane-surface $-1 0 3.1788216825814324 0 0 -1 0 0 0 -1 forward_v I I I I #
coedge $-1 $564 $417 $420 $565 forward $249 $-1 #
coedge $-1 $423 $251 $252 $411 reversed $154 $-1 #
coedge $-1 $417 $564 $251 $409 reversed $249 $-1 #
edge $-1 $424 -91.557969908749655 $566 91.557969908749655 $408 $567 forward 7 unknown #
coedge $-1 $253 $252 $564 $568 forward $97 $-1 #
edge $-1 $415 -183.11593981749931 $566 183.11593981749931 $407 $569 forward 7 unknown #
coedge $-1 $420 $419 $253 $413 reversed $404 $-1 #
edge $-1 $570 -183.11593981749931 $414 183.11593981749931 $412 $571 forward 7 unknown #
vertex $-1 $255 $572 #
vertex $-1 $426 $573 #
straight-curve $-1 183.11593981749931 0 -91.557969908749655 0 -1 0 I I #
coedge $-1 $406 $408 $256 $418 reversed $249 $-1 #
edge $-1 $421 -3.1788216825814324 $424 3.1788216825814324 $417 $574 forward 7 unknown #
coedge $-1 $412 $257 $262 $427 forward $404 $-1 #
coedge $-1 $257 $412 $406 $565 reversed $404 $-1 #
vertex $-1 $258 $575 #
straight-curve $-1 0 3.1788216825814324 91.557969908749655 -1 0 0 I I #
coedge $-1 $259 $407 $261 $426 reversed $154 $-1 #
vertex $-1 $418 $576 #
straight-curve $-1 0 -3.1788216825814324 91.557969908749655 1 0 0 I I #
edge $-1 $264 -91.557969908749655 $415 91.557969908749655 $261 $577 forward 7 unknown #
edge $-1 $265 -91.557969908749655 $414 91.557969908749655 $262 $578 forward 7 unknown #
point $-1 183.11593981749931 -3.1788216825814324 91.557969908749655 #
point $-1 183.11593981749931 3.1788216825814324 91.557969908749655 #
coedge $-1 $430 $430 $-1 $579 reversed $267 $-1 #
vertex $-1 $269 $580 #
ellipse-curve $-1 0 0 -0.5 0 0 -1 1 0 0 1 I I #
point $-1 1 0 -2.5738547929319129 #
face $-1 $-1 $287 $37 $-1 $581 reversed single #
loop $-1 $-1 $450 $272 #
plane-surface $-1 0 3.1788216825814324 0 0 -1 0 0 0 -1 forward_v I I I I #
coedge $-1 $582 $448 $451 $583 forward $273 $-1 #
coedge $-1 $454 $275 $276 $442 reversed $167 $-1 #
coedge $-1 $448 $582 $275 $440 reversed $273 $-1 #
edge $-1 $455 -91.557969908749655 $584 91.557969908749655 $439 $585 forward 7 unknown #
coedge $-1 $277 $276 $582 $586 forward $106 $-1 #
edge $-1 $446 -183.11593981749931 $584 183.11593981749931 $438 $587 forward 7 unknown #
coedge $-1 $451 $450 $277 $444 reversed $435 $-1 #
edge $-1 $588 -183.11593981749931 $445 183.11593981749931 $443 $589 forward 7 unknown #
vertex $-1 $279 $590 #
vertex $-1 $457 $591 #
straight-curve $-1 183.11593981749931 0 -91.557969908749655 0 -1 0 I I #
coedge $-1 $437 $439 $280 $449 reversed $273 $-1 #
edge $-1 $452 -3.1788216825814324 $455 3.1788216825814324 $448 $592 forward 7 unknown #
coedge $-1 $443 $281 $286 $458 forward $435 $-1 #
coedge $-1 $281 $443 $437 $583 reversed $435 $-1 #
vertex $-1 $282 $593 #
straight-curve $-1 0 3.1788216825814324 91.557969908749655 -1 0 0 I I #
coedge $-1 $283 $438 $285 $457 reversed $167 $-1 #
vertex $-1 $449 $594 #
straight-curve $-1 0 -3.1788216825814324 91.557969908749655 1 0 0 I I #
edge $-1 $288 -91.557969908749655 $446 91.557969908749655 $285 $595 forward 7 unknown #
edge $-1 $289 -91.557969908749655 $445 91.557969908749655 $286 $596 forward 7 unknown #
point $-1 183.11593981749931 -3.1788216825814324 91.557969908749655 #
point $-1 183.11593981749931 3.1788216825814324 91.557969908749655 #
coedge $-1 $461 $461 $-1 $597 reversed $291 $-1 #
vertex $-1 $293 $598 #
ellipse-curve $-1 0 0 -0.5 0 0 -1 1 0 0 1 I I #
point $-1 1 0 -2.5738547929319129 #
face $-1 $-1 $311 $39 $-1 $599 reversed single #
loop $-1 $-1 $481 $296 #
plane-surface $-1 0 3.1788216825814324 0 0 -1 0 0 0 -1 forward_v I I I I #
coedge $-1 $600 $479 $482 $601 forward $297 $-1 #
coedge $-1 $485 $299 $300 $473 reversed $180 $-1 #
coedge $-1 $479 $600 $299 $471 reversed $297 $-1 #
edge $-1 $486 -91.557969908749655 $602 91.557969908749655 $470 $603 forward 7 unknown #
coedge $-1 $301 $300 $600 $604 forward $115 $-1 #
edge $-1 $477 -183.11593981749931 $602 183.11593981749931 $469 $605 forward 7 unknown #
coedge $-1 $482 $481 $301 $475 reversed $466 $-1 #
edge $-1 $606 -183.11593981749931 $476 183.11593981749931 $474 $607 forward 7 unknown #
vertex $-1 $303 $608 #
vertex $-1 $488 $609 #
straight-curve $-1 183.11593981749931 0 -91.557969908749655 0 -1 0 I I #
coedge $-1 $468 $470 $304 $480 reversed $297 $-1 #
edge $-1 $483 -3.1788216825814324 $486 3.1788216825814324 $479 $610 forward 7 unknown #
coedge $-1 $474 $305 $310 $489 forward $466 $-1 #
coedge $-1 $305 $474 $468 $601 reversed $466 $-1 #
vertex $-1 $306 $611 #
straight-curve $-1 0 3.1788216825814324 91.557969908749655 -1 0 0 I I #
coedge $-1 $307 $469 $309 $488 reversed $180 $-1 #
vertex $-1 $480 $612 #
straight-curve $-1 0 -3.1788216825814324 91.557969908749655 1 0 0 I I #
edge $-1 $312 -91.557969908749655 $477 91.557969908749655 $309 $613 forward 7 unknown #
edge $-1 $313 -91.557969908749655 $476 91.557969908749655 $310 $614 forward 7 unknown #
point $-1 183.11593981749931 -3.1788216825814324 91.557969908749655 #
point $-1 183.11593981749931 3.1788216825814324 91.557969908749655 #
coedge $-1 $492 $492 $-1 $615 reversed $315 $-1 #
vertex $-1 $317 $616 #
ellipse-curve $-1 0 0 -0.5 0 0 -1 1 0 0 1 I I #
point $-1 1 0 -2.5738547929319129 #
face $-1 $-1 $335 $41 $-1 $617 reversed single #
loop $-1 $-1 $512 $320 #
plane-surface $-1 0 4.5357770185741231 0 0 -1 0 0 0 -1 forward_v I I I I #
coedge $-1 $618 $510 $513 $619 forward $321 $-1 #
coedge $-1 $516 $323 $324 $504 reversed $193 $-1 #
coedge $-1 $510 $618 $323 $502 reversed $321 $-1 #
edge $-1 $517 -91.557969908749655 $620 91.557969908749655 $501 $621 forward 7 unknown #
coedge $-1 $325 $324 $618 $622 forward $124 $-1 #
edge $-1 $508 -183.11593981749931 $620 183.11593981749931 $500 $623 forward 7 unknown #
coedge $-1 $513 $512 $325 $506 reversed $497 $-1 #
edge $-1 $624 -183.11593981749931 $507 183.11593981749931 $505 $625 forward 7 unknown #
vertex $-1 $327 $626 #
vertex $-1 $519 $627 #
straight-curve $-1 183.11593981749931 0 -91.557969908749655 0 -1 0 I I #
coedge $-1 $499 $501 $328 $511 reversed $321 $-1 #
edge $-1 $514 -4.5357770185741231 $517 4.5357770185741231 $510 $628 forward 7 unknown #
coedge $-1 $505 $329 $334 $520 forward $497 $-1 #
coedge $-1 $329 $505 $499 $619 reversed $497 $-1 #
vertex $-1 $330 $629 #
straight-curve $-1 0 4.5357770185741231 91.557969908749655 -1 0 0 I I #
coedge $-1 $331 $500 $333 $519 reversed $193 $-1 #
vertex $-1 $511 $630 #
straight-curve $-1 0 -4.5357770185741231 91.557969908749655 1 0 0 I I #
edge $-1 $336 -91.557969908749655 $508 91.557969908749655 $333 $631 forward 7 unknown #
edge $-1 $337 -91.557969908749655 $507 91.557969908749655 $334 $632 forward 7 unknown #
point $-1 183.11593981749931 -4.5357770185741231 91.557969908749655 #
point $-1 183.11593981749931 4.5357770185741231 91.557969908749655 #
coedge $-1 $523 $523 $-1 $633 reversed $339 $-1 #
vertex $-1 $341 $634 #
ellipse-curve $-1 0 0 -0.5 0 0 -1 1 0 0 1 I I #
point $-1 1 0 -4.2429120761741999 #
coedge $-1 $527 $527 $-1 $635 reversed $344 $-1 #
vertex $-1 $346 $636 #
ellipse-curve $-1 0 0 -0.5 0 0 -1 1 0 0 1 I I #
point $-1 1 0 -4.2429120761741999 #
plane-surface $-1 45.778984954374828 0 0 -1 0 0 0 0 1 forward_v I I I I #
coedge $-1 $354 $352 $356 $536 reversed $211 $-1 #
edge $-1 $367 -4.3546088425408556 $538 4.3546088425408556 $366 $637 forward 7 unknown #
vertex $-1 $536 $638 #
straight-curve $-1 -45.778984954374828 -19.587012401649488 0 0 0 -1 I I #
edge $-1 $534 -19.587012401649488 $538 19.587012401649488 $532 $639 forward 7 unknown #
straight-curve $-1 0 -19.587012401649488 -4.3546088425408556 -1 0 0 I I #
vertex $-1 $359 $640 #
straight-curve $-1 0 19.587012401649488 -4.3546088425408556 1 0 0 I I #
point $-1 45.778984954374828 19.587012401649488 -4.3546088425408556 #
point $-1 45.778984954374828 -19.587012401649488 -4.3546088425408556 #
straight-curve $-1 -45.778984954374828 0 4.3546088425408556 0 -1 0 I I #
point $-1 -45.778984954374828 19.587012401649488 4.3546088425408556 #
point $-1 -45.778984954374828 -19.587012401649488 4.3546088425408556 #
straight-curve $-1 45.778984954374828 -19.587012401649488 0 0 0 -1 I I #
straight-curve $-1 45.778984954374828 19.587012401649488 0 0 0 -1 I I #
plane-surface $-1 45.778984954374828 0 0 -1 0 0 0 0 1 forward_v I I I I #
coedge $-1 $381 $379 $383 $552 reversed $230 $-1 #
edge $-1 $394 -1.5 $554 1.5 $393 $641 forward 7 unknown #
vertex $-1 $552 $642 #
straight-curve $-1 -45.778984954374828 -2.8029516872033917 0 0 0 -1 I I #
edge $-1 $550 -2.8029516872033917 $554 2.8029516872033917 $548 $643 forward 7 unknown #
straight-curve $-1 0 -2.8029516872033917 -1.5 -1 0 0 I I #
vertex $-1 $386 $644 #
straight-curve $-1 0 2.8029516872033917 -1.5 1 0 0 I I #
point $-1 45.778984954374828 2.8029516872033917 -1.5 #
point $-1 45.778984954374828 -2.8029516872033917 -1.5 #
straight-curve $-1 -45.778984954374828 0 1.5 0 -1 0 I I #
point $-1 -45.778984954374828 2.8029516872033917 1.5 #
point $-1 -45.778984954374828 -2.8029516872033917 1.5 #
straight-curve $-1 45.778984954374828 -2.8029516872033917 0 0 0 -1 I I #
straight-curve $-1 45.778984954374828 2.8029516872033917 0 0 0 -1 I I #
plane-surface $-1 183.11593981749931 0 0 -1 0 0 0 0 1 forward_v I I I I #
coedge $-1 $408 $406 $410 $568 reversed $249 $-1 #
edge $-1 $421 -91.557969908749655 $570 91.557969908749655 $420 $645 forward 7 unknown #
vertex $-1 $568 $646 #
straight-curve $-1 -183.11593981749931 -3.1788216825814324 0 0 0 -1 I I #
edge $-1 $566 -3.1788216825814324 $570 3.1788216825814324 $564 $647 forward 7 unknown #
straight-curve $-1 0 -3.1788216825814324 -91.557969908749655 -1 0 0 I I #
vertex $-1 $413 $648 #
straight-curve $-1 0 3.1788216825814324 -91.557969908749655 1 0 0 I I #
point $-1 183.11593981749931 3.1788216825814324 -91.557969908749655 #
point $-1 183.11593981749931 -3.1788216825814324 -91.557969908749655 #
straight-curve $-1 -183.11593981749931 0 91.557969908749655 0 -1 0 I I #
point $-1 -183.11593981749931 3.1788216825814324 91.557969908749655 #
point $-1 -183.11593981749931 -3.1788216825814324 91.557969908749655 #
straight-curve $-1 183.11593981749931 -3.1788216825814324 0 0 0 -1 I I #
straight-curve $-1 183.11593981749931 3.1788216825814324 0 0 0 -1 I I #
edge $-1 $649 1 $649 0 $430 $-1 forward 7 unknown #
point $-1 1 0 -0.5 #
plane-surface $-1 183.11593981749931 0 0 -1 0 0 0 0 1 forward_v I I I I #
coedge $-1 $439 $437 $441 $586 reversed $273 $-1 #
edge $-1 $452 -91.557969908749655 $588 91.557969908749655 $451 $650 forward 7 unknown #
vertex $-1 $586 $651 #
straight-curve $-1 -183.11593981749931 -3.1788216825814324 0 0 0 -1 I I #
edge $-1 $584 -3.1788216825814324 $588 3.1788216825814324 $582 $652 forward 7 unknown #
straight-curve $-1 0 -3.1788216825814324 -91.557969908749655 -1 0 0 I I #
vertex $-1 $444 $653 #
straight-curve $-1 0 3.1788216825814324 -91.557969908749655 1 0 0 I I #
point $-1 183.11593981749931 3.1788216825814324 -91.557969908749655 #
point $-1 183.11593981749931 -3.1788216825814324 -91.557969908749655 #
straight-curve $-1 -183.11593981749931 0 91.557969908749655 0 -1 0 I I #
point $-1 -183.11593981749931 3.1788216825814324 91.557969908749655 #
point $-1 -183.11593981749931 -3.1788216825814324 91.557969908749655 #
straight-curve $-1 183.11593981749931 -3.1788216825814324 0 0 0 -1 I I #
straight-curve $-1 183.11593981749931 3.1788216825814324 0 0 0 -1 I I #
edge $-1 $654 1 $654 0 $461 $-1 forward 7 unknown #
point $-1 1 0 -0.5 #
plane-surface $-1 183.11593981749931 0 0 -1 0 0 0 0 1 forward_v I I I I #
coedge $-1 $470 $468 $472 $604 reversed $297 $-1 #
edge $-1 $483 -91.557969908749655 $606 91.557969908749655 $482 $655 forward 7 unknown #
vertex $-1 $604 $656 #
straight-curve $-1 -183.11593981749931 -3.1788216825814324 0 0 0 -1 I I #
edge $-1 $602 -3.1788216825814324 $606 3.1788216825814324 $600 $657 forward 7 unknown #
straight-curve $-1 0 -3.1788216825814324 -91.557969908749655 -1 0 0 I I #
vertex $-1 $475 $658 #
straight-curve $-1 0 3.1788216825814324 -91.557969908749655 1 0 0 I I #
point $-1 183.11593981749931 3.1788216825814324 -91.557969908749655 #
point $-1 183.11593981749931 -3.1788216825814324 -91.557969908749655 #
straight-curve $-1 -183.11593981749931 0 91.557969908749655 0 -1 0 I I #
point $-1 -183.11593981749931 3.1788216825814324 91.557969908749655 #
point $-1 -183.11593981749931 -3.1788216825814324 91.557969908749655 #
straight-curve $-1 183.11593981749931 -3.1788216825814324 0 0 0 -1 I I #
straight-curve $-1 183.11593981749931 3.1788216825814324 0 0 0 -1 I I #
edge $-1 $659 1 $659 0 $492 $-1 forward 7 unknown #
point $-1 1 0 -0.5 #
plane-surface $-1 183.11593981749931 0 0 -1 0 0 0 0 1 forward_v I I I I #
coedge $-1 $501 $499 $503 $622 reversed $321 $-1 #
edge $-1 $514 -91.557969908749655 $624 91.557969908749655 $513 $660 forward 7 unknown #
vertex $-1 $622 $661 #
straight-curve $-1 -183.11593981749931 -4.5357770185741231 0 0 0 -1 I I #
edge $-1 $620 -4.5357770185741231 $624 4.5357770185741231 $618 $662 forward 7 unknown #
straight-curve $-1 0 -4.5357770185741231 -91.557969908749655 -1 0 0 I I #
vertex $-1 $506 $663 #
straight-curve $-1 0 4.5357770185741231 -91.557969908749655 1 0 0 I I #
point $-1 183.11593981749931 4.5357770185741231 -91.557969908749655 #
point $-1 183.11593981749931 -4.5357770185741231 -91.557969908749655 #
straight-curve $-1 -183.11593981749931 0 91.557969908749655 0 -1 0 I I #
point $-1 -183.11593981749931 4.5357770185741231 91.557969908749655 #
point $-1 -183.11593981749931 -4.5357770185741231 91.557969908749655 #
straight-curve $-1 183.11593981749931 -4.5357770185741231 0 0 0 -1 I I #
straight-curve $-1 183.11593981749931 4.5357770185741231 0 0 0 -1 I I #
edge $-1 $664 1 $664 0 $523 $-1 forward 7 unknown #
point $-1 1 0 -0.5 #
edge $-1 $665 1 $665 0 $527 $-1 forward 7 unknown #
point $-1 1 0 -0.5 #
straight-curve $-1 -45.778984954374828 19.587012401649488 0 0 0 -1 I I #
point $-1 -45.778984954374828 -19.587012401649488 -4.3546088425408556 #
straight-curve $-1 -45.778984954374828 0 -4.3546088425408556 0 1 0 I I #
point $-1 -45.778984954374828 19.587012401649488 -4.3546088425408556 #
straight-curve $-1 -45.778984954374828 2.8029516872033917 0 0 0 -1 I I #
point $-1 -45.778984954374828 -2.8029516872033917 -1.5 #
straight-curve $-1 -45.778984954374828 0 -1.5 0 1 0 I I #
point $-1 -45.778984954374828 2.8029516872033917 -1.5 #
straight-curve $-1 -183.11593981749931 3.1788216825814324 0 0 0 -1 I I #
point $-1 -183.11593981749931 -3.1788216825814324 -91.557969908749655 #
straight-curve $-1 -183.11593981749931 0 -91.557969908749655 0 1 0 I I #
point $-1 -183.11593981749931 3.1788216825814324 -91.557969908749655 #
vertex $-1 $579 $666 #
straight-curve $-1 -183.11593981749931 3.1788216825814324 0 0 0 -1 I I #
point $-1 -183.11593981749931 -3.1788216825814324 -91.557969908749655 #
straight-curve $-1 -183.11593981749931 0 -91.557969908749655 0 1 0 I I #
point $-1 -183.11593981749931 3.1788216825814324 -91.557969908749655 #
vertex $-1 $597 $667 #
straight-curve $-1 -183.11593981749931 3.1788216825814324 0 0 0 -1 I I #
point $-1 -183.11593981749931 -3.1788216825814324 -91.557969908749655 #
straight-curve $-1 -183.11593981749931 0 -91.557969908749655 0 1 0 I I #
point $-1 -183.11593981749931 3.1788216825814324 -91.557969908749655 #
vertex $-1 $615 $668 #
straight-curve $-1 -183.11593981749931 4.5357770185741231 0 0 0 -1 I I #
point $-1 -183.11593981749931 -4.5357770185741231 -91.557969908749655 #
straight-curve $-1 -183.11593981749931 0 -91.557969908749655 0 1 0 I I #
point $-1 -183.11593981749931 4.5357770185741231 -91.557969908749655 #
vertex $-1 $633 $669 #
vertex $-1 $635 $670 #
point $-1 0 0 0.5 #
point $-1 0 0 0.5 #
point $-1 0 0 0.5 #
point $-1 0 0 0.5 #
point $-1 0 0 0.5 #
End-of-ACIS-data 