500 0 14 0           
7 Unknown 11 ACIS 5.0 NT 24 Fri Mar 26 14:43:28 1999 
-1 9.9999999999999995e-007 1e-010 
body $-1 $14 $-1 $15 #
body $-1 $16 $-1 $17 #
body $-1 $18 $-1 $19 #
body $-1 $20 $-1 $21 #
body $-1 $22 $-1 $23 #
body $-1 $24 $-1 $25 #
body $-1 $26 $-1 $27 #
body $-1 $28 $-1 $29 #
body $-1 $30 $-1 $31 #
body $-1 $32 $-1 $33 #
body $-1 $34 $-1 $35 #
body $-1 $36 $-1 $37 #
body $-1 $38 $-1 $39 #
body $-1 $40 $-1 $41 #
lump $-1 $-1 $42 $0 #
transform $-1 1 0 0 0 1 0 0 0 1 40.012207403790399 21.695147107789019 4.5460029920981295 1 rotate no_reflect no_shear #
lump $-1 $-1 $43 $1 #
transform $-1 1 0 0 0 1 0 0 0 1 40.012207403790399 21.695147107789019 4.5460029920981295 1 rotate no_reflect no_shear #
lump $-1 $-1 $44 $2 #
transform $-1 1 0 0 0 1 0 0 0 1 40.012207403790399 21.695147107789019 4.5460029920981295 1 rotate no_reflect no_shear #
lump $-1 $-1 $45 $3 #
transform $-1 1 0 0 0 1 0 0 0 1 40.012207403790399 21.695147107789019 4.5460029920981295 1 rotate no_reflect no_shear #
lump $-1 $-1 $46 $4 #
transform $-1 1 0 0 0 1 0 0 0 1 40.012207403790399 21.695147107789019 4.5460029920981295 1 rotate no_reflect no_shear #
lump $-1 $-1 $47 $5 #
transform $-1 1 0 0 0 1 0 0 0 1 40.012207403790399 21.695147107789019 4.5460029920981295 1 rotate no_reflect no_shear #
lump $-1 $-1 $48 $6 #
transform $-1 1 0 0 0 1 0 0 0 1 40.012207403790399 21.695147107789019 4.5460029920981295 1 rotate no_reflect no_shear #
lump $-1 $-1 $49 $7 #
transform $-1 1 0 0 0 1 0 0 0 1 40.012207403790399 21.695147107789019 4.5460029920981295 1 rotate no_reflect no_shear #
lump $-1 $-1 $50 $8 #
transform $-1 1 0 0 0 1 0 0 0 1 40.012207403790399 21.695147107789019 4.5460029920981295 1 rotate no_reflect no_shear #
lump $-1 $-1 $51 $9 #
transform $-1 1 0 0 0 1 0 0 0 1 40.012207403790399 21.695147107789019 4.5460029920981295 1 rotate no_reflect no_shear #
lump $-1 $-1 $52 $10 #
transform $-1 1 0 0 0 1 0 0 0 1 40.012207403790399 21.695147107789019 4.5460029920981295 1 rotate no_reflect no_shear #
lump $-1 $-1 $53 $11 #
transform $-1 1 0 0 0 1 0 0 0 1 40.012207403790399 21.695147107789019 4.5460029920981295 1 rotate no_reflect no_shear #
lump $-1 $-1 $54 $12 #
transform $-1 1 0 0 0 1 0 0 0 1 40.012207403790399 21.695147107789019 4.5460029920981295 1 rotate no_reflect no_shear #
lump $-1 $-1 $55 $13 #
transform $-1 1 0 0 0 1 0 0 0 1 40.012207403790399 21.695147107789019 4.5460029920981295 1 rotate no_reflect no_shear #
shell $-1 $-1 $-1 $56 $-1 $14 #
shell $-1 $-1 $-1 $57 $-1 $16 #
shell $-1 $-1 $-1 $58 $-1 $18 #
shell $-1 $-1 $-1 $59 $-1 $20 #
shell $-1 $-1 $-1 $60 $-1 $22 #
shell $-1 $-1 $-1 $61 $-1 $24 #
shell $-1 $-1 $-1 $62 $-1 $26 #
shell $-1 $-1 $-1 $63 $-1 $28 #
shell $-1 $-1 $-1 $64 $-1 $30 #
shell $-1 $-1 $-1 $65 $-1 $32 #
shell $-1 $-1 $-1 $66 $-1 $34 #
shell $-1 $-1 $-1 $67 $-1 $36 #
shell $-1 $-1 $-1 $68 $-1 $38 #
shell $-1 $-1 $-1 $69 $-1 $40 #
face $-1 $70 $71 $42 $-1 $72 forward single #
face $-1 $73 $74 $43 $-1 $75 reversed single #
face $-1 $76 $77 $44 $-1 $78 reversed single #
face $-1 $79 $80 $45 $-1 $81 forward single #
face $-1 $82 $83 $46 $-1 $84 reversed single #
face $-1 $85 $86 $47 $-1 $87 forward single #
face $-1 $88 $89 $48 $-1 $90 reversed single #
face $-1 $91 $92 $49 $-1 $93 forward single #
face $-1 $94 $95 $50 $-1 $96 reversed single #
face $-1 $97 $98 $51 $-1 $99 forward single #
face $-1 $100 $101 $52 $-1 $102 reversed single #
face $-1 $103 $104 $53 $-1 $105 forward single #
face $-1 $106 $107 $54 $-1 $108 reversed single #
face $-1 $109 $110 $55 $-1 $111 forward single #
face $-1 $112 $113 $42 $-1 $114 reversed single #
loop $-1 $-1 $115 $56 #
plane-surface $-1 0 0 4.5460029920981295 0 0 1 1 0 0 forward_v I I I I #
face $-1 $116 $117 $43 $-1 $118 reversed single #
loop $-1 $-1 $119 $57 #
plane-surface $-1 -38.512207403790399 -18.084219208511172 0 0 -1 0 0 0 -1 forward_v I I I I #
face $-1 $120 $121 $44 $-1 $122 reversed single #
loop $-1 $-1 $123 $58 #
plane-surface $-1 -95.601837644015092 -11.385941752797486 58.463132821560528 0 -1 0 0.69465837861970381 0 -0.71933979245794832 forward_v I I I I #
face $-1 $124 $125 $45 $-1 $126 forward single #
loop $-1 $127 $128 $59 #
cone-surface $-1 -36.81829751757305 -14.735080480654329 1.3705157977807441 0.69465837861970381 0 -0.71933979245794832 0.71933979245794832 0 0.69465837861970381 1 I I 0 1 1 forward I I I I #
face $-1 $129 $130 $46 $-1 $131 reversed single #
loop $-1 $-1 $132 $60 #
plane-surface $-1 -95.601837644015092 1.8738470193025769 58.463132821560528 0 -1 0 0.69465837861970381 0 -0.71933979245794832 forward_v I I I I #
face $-1 $133 $134 $47 $-1 $135 forward single #
loop $-1 $136 $137 $61 #
cone-surface $-1 -36.81829751757305 -1.4752917085542663 1.3705157977807441 0.69465837861970381 0 -0.71933979245794832 0.71933979245794832 0 0.69465837861970381 1 I I 0 1 1 forward I I I I #
face $-1 $138 $139 $48 $-1 $140 reversed single #
loop $-1 $-1 $141 $62 #
plane-surface $-1 -95.601837644015092 15.133635791402643 58.463132821560528 0 -1 0 0.69465837861970381 0 -0.71933979245794832 forward_v I I I I #
face $-1 $142 $143 $49 $-1 $144 forward single #
loop $-1 $145 $146 $63 #
cone-surface $-1 -36.81829751757305 11.7844970635458 1.3705157977807441 0.69465837861970381 0 -0.71933979245794832 0.71933979245794832 0 0.69465837861970381 1 I I 0 1 1 forward I I I I #
face $-1 $147 $148 $50 $-1 $149 reversed single #
loop $-1 $-1 $150 $64 #
plane-surface $-1 38.037091704761139 -11.385941752797486 114.05276306178523 0 -1 0 -0.69465837861970381 0 -0.71933979245794832 forward_v I I I I #
face $-1 $151 $152 $51 $-1 $153 forward single #
loop $-1 $154 $155 $65 #
cone-surface $-1 36.818297517573043 -14.735080480654329 1.3705157977807476 -0.69465837861970381 0 -0.71933979245794832 0.71933979245794832 0 -0.69465837861970381 1 I I 0 1 1 forward I I I I #
face $-1 $156 $157 $52 $-1 $158 reversed single #
loop $-1 $-1 $159 $66 #
plane-surface $-1 38.037091704761139 1.8738470193025769 114.05276306178523 0 -1 0 -0.69465837861970381 0 -0.71933979245794832 forward_v I I I I #
face $-1 $160 $161 $53 $-1 $162 forward single #
loop $-1 $163 $164 $67 #
cone-surface $-1 36.818297517573043 -1.4752917085542663 1.3705157977807476 -0.69465837861970381 0 -0.71933979245794832 0.71933979245794832 0 -0.69465837861970381 1 I I 0 1 1 forward I I I I #
face $-1 $165 $166 $54 $-1 $167 reversed single #
loop $-1 $-1 $168 $68 #
plane-surface $-1 38.037091704761139 15.133635791402643 114.05276306178523 0 -1 0 -0.69465837861970381 0 -0.71933979245794832 forward_v I I I I #
face $-1 $169 $170 $55 $-1 $171 forward single #
loop $-1 $172 $173 $69 #
cone-surface $-1 36.818297517573043 11.7844970635458 1.3705157977807476 -0.69465837861970381 0 -0.71933979245794832 0.71933979245794832 0 -0.69465837861970381 1 I I 0 1 1 forward I I I I #
face $-1 $174 $175 $42 $-1 $176 reversed single #
loop $-1 $-1 $177 $70 #
plane-surface $-1 0 0 -4.5460029920981295 0 0 1 1 0 0 forward_v I I I I #
coedge $-1 $178 $179 $180 $181 forward $71 $-1 #
face $-1 $182 $183 $43 $-1 $184 forward single #
loop $-1 $-1 $185 $73 #
plane-surface $-1 -37.012207403790399 -19.889683158150095 0 -1 0 0 0 0 1 forward_v I I I I #
coedge $-1 $186 $187 $188 $189 forward $74 $-1 #
face $-1 $190 $191 $44 $-1 $192 forward single #
loop $-1 $-1 $193 $76 #
plane-surface $-1 -40.012207403790399 -14.735080480654329 0.89838688230658903 -0.69465837861970381 0 0.71933979245794832 0.71933979245794832 0 0.69465837861970381 forward_v I I I I #
coedge $-1 $194 $195 $196 $197 reversed $77 $-1 #
face $-1 $-1 $198 $45 $-1 $199 forward single #
loop $-1 $200 $201 $79 #
cone-surface $-1 -35.165666926548248 -14.735080480654329 -0.34083323786985353 0.69465837861970381 0 -0.71933979245794832 0.35966989622897416 0 0.3473291893098519 1 I I -0.70710678118654746 0.70710678118654746 0.5 forward I I I I #
loop $-1 $-1 $202 $59 #
coedge $-1 $128 $128 $203 $204 reversed $80 $-1 #
face $-1 $205 $206 $46 $-1 $207 reversed single #
loop $-1 $-1 $208 $82 #
plane-surface $-1 -40.012207403790399 -1.4752917085542663 0.89838688230658903 -0.69465837861970381 0 0.71933979245794832 0.71933979245794832 0 0.69465837861970381 forward_v I I I I #
coedge $-1 $209 $210 $211 $212 reversed $83 $-1 #
face $-1 $-1 $213 $47 $-1 $214 forward single #
loop $-1 $215 $216 $85 #
cone-surface $-1 -35.165666926548248 -1.4752917085542663 -0.34083323786985353 0.69465837861970381 0 -0.71933979245794832 0.35966989622897416 0 0.3473291893098519 1 I I -0.70710678118654746 0.70710678118654746 0.5 forward I I I I #
loop $-1 $-1 $217 $61 #
coedge $-1 $137 $137 $218 $219 reversed $86 $-1 #
face $-1 $220 $221 $48 $-1 $222 reversed single #
loop $-1 $-1 $223 $88 #
plane-surface $-1 -40.012207403790399 11.7844970635458 0.89838688230658903 -0.69465837861970381 0 0.71933979245794832 0.71933979245794832 0 0.69465837861970381 forward_v I I I I #
coedge $-1 $224 $225 $226 $227 reversed $89 $-1 #
face $-1 $-1 $228 $49 $-1 $229 forward single #
loop $-1 $230 $231 $91 #
cone-surface $-1 -35.165666926548248 11.7844970635458 -0.34083323786985353 0.69465837861970381 0 -0.71933979245794832 0.35966989622897416 0 0.3473291893098519 1 I I -0.70710678118654746 0.70710678118654746 0.5 forward I I I I #
loop $-1 $-1 $232 $63 #
coedge $-1 $146 $146 $233 $234 reversed $92 $-1 #
face $-1 $235 $236 $50 $-1 $237 reversed single #
loop $-1 $-1 $238 $94 #
plane-surface $-1 -17.552538535463555 -14.735080480654329 56.488017122531289 0.69465837861970381 0 0.71933979245794832 0.71933979245794832 0 -0.69465837861970381 forward_v I I I I #
coedge $-1 $239 $240 $241 $242 reversed $95 $-1 #
face $-1 $-1 $243 $51 $-1 $244 forward single #
loop $-1 $245 $246 $97 #
cone-surface $-1 35.165666926548241 -14.735080480654329 -0.34083323786984998 -0.69465837861970381 0 -0.71933979245794832 0.35966989622897416 0 -0.3473291893098519 1 I I -0.70710678118654746 0.70710678118654746 0.5 forward I I I I #
loop $-1 $-1 $247 $65 #
coedge $-1 $155 $155 $248 $249 reversed $98 $-1 #
face $-1 $250 $251 $52 $-1 $252 reversed single #
loop $-1 $-1 $253 $100 #
plane-surface $-1 -17.552538535463555 -1.4752917085542663 56.488017122531289 0.69465837861970381 0 0.71933979245794832 0.71933979245794832 0 -0.69465837861970381 forward_v I I I I #
coedge $-1 $254 $255 $256 $257 reversed $101 $-1 #
face $-1 $-1 $258 $53 $-1 $259 forward single #
loop $-1 $260 $261 $103 #
cone-surface $-1 35.165666926548241 -1.4752917085542663 -0.34083323786984998 -0.69465837861970381 0 -0.71933979245794832 0.35966989622897416 0 -0.3473291893098519 1 I I -0.70710678118654746 0.70710678118654746 0.5 forward I I I I #
loop $-1 $-1 $262 $67 #
coedge $-1 $164 $164 $263 $264 reversed $104 $-1 #
face $-1 $265 $266 $54 $-1 $267 reversed single #
loop $-1 $-1 $268 $106 #
plane-surface $-1 -17.552538535463555 11.7844970635458 56.488017122531289 0.69465837861970381 0 0.71933979245794832 0.71933979245794832 0 -0.69465837861970381 forward_v I I I I #
coedge $-1 $269 $270 $271 $272 reversed $107 $-1 #
face $-1 $-1 $273 $55 $-1 $274 forward single #
loop $-1 $275 $276 $109 #
cone-surface $-1 35.165666926548241 11.7844970635458 -0.34083323786984998 -0.69465837861970381 0 -0.71933979245794832 0.35966989622897416 0 -0.3473291893098519 1 I I -0.70710678118654746 0.70710678118654746 0.5 forward I I I I #
loop $-1 $-1 $277 $69 #
coedge $-1 $173 $173 $278 $279 reversed $110 $-1 #
face $-1 $280 $281 $42 $-1 $282 reversed single #
loop $-1 $-1 $283 $112 #
plane-surface $-1 0 -21.695147107789019 0 0 1 0 0 0 1 forward_v I I I I #
coedge $-1 $284 $285 $286 $287 forward $113 $-1 #
coedge $-1 $288 $115 $289 $290 forward $71 $-1 #
coedge $-1 $115 $288 $291 $292 forward $71 $-1 #
coedge $-1 $293 $294 $115 $181 reversed $295 $-1 #
edge $-1 $296 -21.695147107789019 $297 21.695147107789019 $180 $298 forward 7 unknown #
face $-1 $299 $300 $43 $-1 $301 reversed single #
loop $-1 $-1 $302 $116 #
plane-surface $-1 0 0 4.5460029920981295 0 0 1 1 0 0 forward_v I I I I #
coedge $-1 $303 $304 $305 $306 reversed $117 $-1 #
coedge $-1 $307 $119 $308 $309 reversed $74 $-1 #
coedge $-1 $119 $307 $310 $311 reversed $74 $-1 #
coedge $-1 $304 $303 $119 $189 reversed $117 $-1 #
edge $-1 $312 -4.5460029920981295 $313 4.5460029920981295 $188 $314 forward 7 unknown #
face $-1 $315 $316 $44 $-1 $317 forward single #
loop $-1 $-1 $318 $120 #
plane-surface $-1 0 0 4.5460029920981295 0 0 1 1 0 0 forward_v I I I I #
coedge $-1 $319 $320 $321 $322 reversed $121 $-1 #
coedge $-1 $195 $123 $323 $324 reversed $77 $-1 #
coedge $-1 $123 $194 $319 $325 reversed $77 $-1 #
coedge $-1 $321 $326 $123 $197 forward $327 $-1 #
edge $-1 $328 24.685563418682136 $329 28.333179528473675 $196 $330 forward 7 unknown #
loop $-1 $-1 $203 $124 #
plane-surface $-1 -40.012207403790399 -14.735080480654329 0.89838688230658903 -0.69465837861970381 0 0.71933979245794832 0.71933979245794832 0 0.69465837861970381 forward_v I I I I #
loop $-1 $-1 $331 $79 #
coedge $-1 $201 $201 $202 $332 reversed $125 $-1 #
coedge $-1 $202 $202 $201 $332 forward $127 $-1 #
coedge $-1 $203 $203 $128 $204 forward $198 $-1 #
edge $-1 $333 0 $333 6.2831853071796004 $203 $334 forward 7 unknown #
face $-1 $335 $336 $46 $-1 $337 reversed single #
loop $-1 $-1 $338 $129 #
plane-surface $-1 -95.601837644015092 -4.8244304364111095 58.463132821560528 0 1 0 -0.69465837861970381 0 0.71933979245794832 forward_v I I I I #
coedge $-1 $339 $340 $341 $342 reversed $130 $-1 #
coedge $-1 $210 $132 $343 $344 reversed $83 $-1 #
coedge $-1 $132 $209 $339 $345 reversed $83 $-1 #
coedge $-1 $341 $346 $132 $212 forward $336 $-1 #
edge $-1 $347 24.685563418682136 $348 28.333179528473675 $211 $349 forward 7 unknown #
loop $-1 $-1 $218 $133 #
plane-surface $-1 -40.012207403790399 -1.4752917085542663 0.89838688230658903 -0.69465837861970381 0 0.71933979245794832 0.71933979245794832 0 0.69465837861970381 forward_v I I I I #
loop $-1 $-1 $350 $85 #
coedge $-1 $216 $216 $217 $351 reversed $134 $-1 #
coedge $-1 $217 $217 $216 $351 forward $136 $-1 #
coedge $-1 $218 $218 $137 $219 forward $213 $-1 #
edge $-1 $352 0 $352 6.2831853071796004 $218 $353 forward 7 unknown #
face $-1 $354 $355 $48 $-1 $356 forward single #
loop $-1 $-1 $357 $138 #
plane-surface $-1 -95.601837644015092 8.4353583356889565 58.463132821560528 0 1 0 -0.69465837861970381 0 0.71933979245794832 forward_v I I I I #
coedge $-1 $358 $359 $360 $361 reversed $139 $-1 #
coedge $-1 $225 $141 $362 $363 reversed $89 $-1 #
coedge $-1 $141 $224 $358 $364 reversed $89 $-1 #
coedge $-1 $360 $365 $141 $227 forward $366 $-1 #
edge $-1 $367 24.685563418682136 $368 28.333179528473675 $226 $369 forward 7 unknown #
loop $-1 $-1 $233 $142 #
plane-surface $-1 -40.012207403790399 11.7844970635458 0.89838688230658903 -0.69465837861970381 0 0.71933979245794832 0.71933979245794832 0 0.69465837861970381 forward_v I I I I #
loop $-1 $-1 $370 $91 #
coedge $-1 $231 $231 $232 $371 reversed $143 $-1 #
coedge $-1 $232 $232 $231 $371 forward $145 $-1 #
coedge $-1 $233 $233 $146 $234 forward $228 $-1 #
edge $-1 $372 0 $372 6.2831853071796004 $233 $373 forward 7 unknown #
face $-1 $374 $375 $50 $-1 $376 forward single #
loop $-1 $-1 $377 $147 #
plane-surface $-1 38.037091704761139 -18.084219208511172 114.05276306178523 0 1 0 0.69465837861970381 0 0.71933979245794832 forward_v I I I I #
coedge $-1 $378 $379 $380 $381 reversed $148 $-1 #
coedge $-1 $240 $150 $382 $383 reversed $95 $-1 #
coedge $-1 $150 $239 $378 $384 reversed $95 $-1 #
coedge $-1 $380 $385 $150 $242 forward $375 $-1 #
edge $-1 $386 -20.993661551409829 $387 -17.216444582405011 $241 $388 forward 7 unknown #
loop $-1 $-1 $248 $151 #
plane-surface $-1 -17.552538535463555 -14.735080480654329 56.488017122531289 0.69465837861970381 0 0.71933979245794832 0.71933979245794832 0 -0.69465837861970381 forward_v I I I I #
loop $-1 $-1 $389 $97 #
coedge $-1 $246 $246 $247 $390 reversed $152 $-1 #
coedge $-1 $247 $247 $246 $390 forward $154 $-1 #
coedge $-1 $248 $248 $155 $249 forward $243 $-1 #
edge $-1 $391 0 $391 6.2831853071796004 $248 $392 forward 7 unknown #
face $-1 $393 $394 $52 $-1 $395 reversed single #
loop $-1 $-1 $396 $156 #
plane-surface $-1 38.037091704761139 -4.8244304364111095 114.05276306178523 0 1 0 0.69465837861970381 0 0.71933979245794832 forward_v I I I I #
coedge $-1 $397 $398 $399 $400 reversed $157 $-1 #
coedge $-1 $255 $159 $401 $402 reversed $101 $-1 #
coedge $-1 $159 $254 $397 $403 reversed $101 $-1 #
coedge $-1 $399 $404 $159 $257 forward $405 $-1 #
edge $-1 $406 -20.993661551409829 $407 -17.216444582405011 $256 $408 forward 7 unknown #
loop $-1 $-1 $263 $160 #
plane-surface $-1 -17.552538535463555 -1.4752917085542663 56.488017122531289 0.69465837861970381 0 0.71933979245794832 0.71933979245794832 0 -0.69465837861970381 forward_v I I I I #
loop $-1 $-1 $409 $103 #
coedge $-1 $261 $261 $262 $410 reversed $161 $-1 #
coedge $-1 $262 $262 $261 $410 forward $163 $-1 #
coedge $-1 $263 $263 $164 $264 forward $258 $-1 #
edge $-1 $411 0 $411 6.2831853071796004 $263 $412 forward 7 unknown #
face $-1 $413 $414 $54 $-1 $415 reversed single #
loop $-1 $-1 $416 $165 #
plane-surface $-1 38.037091704761139 8.4353583356889565 114.05276306178523 0 1 0 0.69465837861970381 0 0.71933979245794832 forward_v I I I I #
coedge $-1 $417 $418 $419 $420 reversed $166 $-1 #
coedge $-1 $270 $168 $421 $422 reversed $107 $-1 #
coedge $-1 $168 $269 $417 $423 reversed $107 $-1 #
coedge $-1 $419 $424 $168 $272 forward $425 $-1 #
edge $-1 $426 -20.993661551409829 $427 -17.216444582405011 $271 $428 forward 7 unknown #
loop $-1 $-1 $278 $169 #
plane-surface $-1 -17.552538535463555 11.7844970635458 56.488017122531289 0.69465837861970381 0 0.71933979245794832 0.71933979245794832 0 -0.69465837861970381 forward_v I I I I #
loop $-1 $-1 $429 $109 #
coedge $-1 $276 $276 $277 $430 reversed $170 $-1 #
coedge $-1 $277 $277 $276 $430 forward $172 $-1 #
coedge $-1 $278 $278 $173 $279 forward $273 $-1 #
edge $-1 $431 0 $431 6.2831853071796004 $278 $432 forward 7 unknown #
face $-1 $433 $434 $42 $-1 $435 reversed single #
loop $-1 $-1 $436 $174 #
plane-surface $-1 -40.012207403790399 0 0 1 0 0 0 0 -1 forward_v I I I I #
coedge $-1 $437 $291 $438 $439 forward $175 $-1 #
coedge $-1 $440 $177 $437 $441 forward $113 $-1 #
coedge $-1 $177 $440 $442 $443 forward $113 $-1 #
coedge $-1 $294 $293 $177 $287 reversed $295 $-1 #
edge $-1 $444 -21.695147107789019 $445 21.695147107789019 $286 $446 forward 7 unknown #
coedge $-1 $179 $178 $447 $448 forward $71 $-1 #
coedge $-1 $449 $450 $178 $290 reversed $434 $-1 #
edge $-1 $297 -40.012207403790399 $451 40.012207403790399 $289 $452 forward 7 unknown #
coedge $-1 $283 $453 $179 $292 reversed $175 $-1 #
edge $-1 $454 -40.012207403790399 $296 40.012207403790399 $291 $455 forward 7 unknown #
coedge $-1 $286 $180 $453 $456 forward $295 $-1 #
coedge $-1 $180 $286 $449 $457 reversed $295 $-1 #
loop $-1 $-1 $293 $433 #
vertex $-1 $181 $458 #
vertex $-1 $181 $459 #
straight-curve $-1 40.012207403790399 0 4.5460029920981295 0 1 0 I I #
face $-1 $460 $461 $43 $-1 $462 reversed single #
loop $-1 $-1 $463 $182 #
plane-surface $-1 -40.012207403790399 0 0 1 0 0 0 0 -1 forward_v I I I I #
coedge $-1 $310 $464 $304 $465 forward $183 $-1 #
coedge $-1 $188 $185 $466 $467 reversed $117 $-1 #
coedge $-1 $185 $188 $302 $465 reversed $117 $-1 #
coedge $-1 $468 $469 $185 $306 forward $470 $-1 #
edge $-1 $471 -4.5460029920981295 $472 4.5460029920981295 $305 $473 forward 7 unknown #
coedge $-1 $187 $186 $463 $474 reversed $74 $-1 #
coedge $-1 $466 $475 $186 $309 forward $461 $-1 #
edge $-1 $476 -20.756103701895199 $313 -17.756103701895199 $308 $477 forward 7 unknown #
coedge $-1 $478 $302 $187 $311 forward $183 $-1 #
edge $-1 $312 17.756103701895199 $479 20.756103701895199 $310 $480 forward 7 unknown #
vertex $-1 $311 $481 #
vertex $-1 $309 $482 #
straight-curve $-1 -37.012207403790399 -18.084219208511172 0 0 0 -1 I I #
face $-1 $-1 $327 $44 $-1 $483 reversed single #
loop $-1 $-1 $484 $190 #
plane-surface $-1 -38.512207403790399 -18.084219208511172 0 0 -1 0 0 0 -1 forward_v I I I I #
coedge $-1 $485 $486 $487 $488 forward $191 $-1 #
coedge $-1 $489 $193 $195 $325 forward $121 $-1 #
coedge $-1 $193 $489 $484 $490 reversed $121 $-1 #
coedge $-1 $491 $196 $193 $322 forward $327 $-1 #
edge $-1 $329 4.0184015124703212 $492 10.716678968184008 $321 $493 forward 7 unknown #
coedge $-1 $486 $485 $194 $324 forward $191 $-1 #
edge $-1 $494 -11.565928387221959 $328 -7.7887114182171473 $323 $495 forward 7 unknown #
edge $-1 $329 0 $494 5.250949563207465 $195 $496 forward 7 unknown #
coedge $-1 $196 $491 $486 $497 reversed $327 $-1 #
loop $-1 $-1 $321 $315 #
vertex $-1 $497 $498 #
vertex $-1 $197 $499 #
straight-curve $-1 -40.012207403790399 -11.385941752797486 29.231566410780264 0 0 -1 I I #
coedge $-1 $331 $331 $-1 $500 reversed $200 $-1 #
edge $-1 $501 0 $501 6.2831853071796004 $201 $502 forward 7 unknown #
vertex $-1 $204 $503 #
ellipse-curve $-1 -38.123598919287993 -14.735080480654329 2.7221949372023584 -0.69465837861970381 0 0.71933979245794832 0.71933979245794832 0 0.69465837861970381 1 I I #
face $-1 $-1 $504 $46 $-1 $505 forward single #
loop $-1 $-1 $211 $205 #
plane-surface $-1 -40.012207403790399 0 0 1 0 0 0 0 -1 forward_v I I I I #
coedge $-1 $506 $507 $508 $509 reversed $206 $-1 #
coedge $-1 $510 $208 $210 $345 forward $130 $-1 #
coedge $-1 $208 $510 $506 $511 forward $130 $-1 #
coedge $-1 $508 $211 $208 $342 forward $336 $-1 #
edge $-1 $348 -2.6114928735797101 $512 4.0867845821339763 $341 $513 forward 7 unknown #
coedge $-1 $514 $515 $209 $344 forward $504 $-1 #
edge $-1 $516 -11.565928387221959 $347 -7.7887114182171473 $343 $517 forward 7 unknown #
edge $-1 $348 0 $516 5.250949563207465 $210 $518 forward 7 unknown #
coedge $-1 $211 $508 $514 $519 reversed $336 $-1 #
vertex $-1 $519 $520 #
vertex $-1 $212 $521 #
straight-curve $-1 -40.012207403790399 1.8738470193025769 29.231566410780264 0 0 -1 I I #
coedge $-1 $350 $350 $-1 $522 reversed $215 $-1 #
edge $-1 $523 0 $523 6.2831853071796004 $216 $524 forward 7 unknown #
vertex $-1 $219 $525 #
ellipse-curve $-1 -38.123598919287993 -1.4752917085542663 2.7221949372023584 -0.69465837861970381 0 0.71933979245794832 0.71933979245794832 0 0.69465837861970381 1 I I #
face $-1 $-1 $366 $48 $-1 $526 reversed single #
loop $-1 $-1 $527 $220 #
plane-surface $-1 0 0 4.5460029920981295 0 0 1 1 0 0 forward_v I I I I #
coedge $-1 $528 $529 $530 $531 reversed $221 $-1 #
coedge $-1 $532 $223 $225 $364 forward $139 $-1 #
coedge $-1 $223 $532 $528 $533 forward $139 $-1 #
coedge $-1 $530 $226 $223 $361 forward $366 $-1 #
edge $-1 $368 -9.2413872596297431 $534 -2.5431098039160567 $360 $535 forward 7 unknown #
coedge $-1 $536 $537 $224 $363 forward $355 $-1 #
edge $-1 $538 -11.565928387221959 $367 -7.7887114182171473 $362 $539 forward 7 unknown #
edge $-1 $368 0 $538 5.250949563207465 $225 $540 forward 7 unknown #
coedge $-1 $226 $530 $536 $541 reversed $366 $-1 #
loop $-1 $-1 $530 $354 #
vertex $-1 $541 $542 #
vertex $-1 $227 $543 #
straight-curve $-1 -40.012207403790399 15.133635791402643 29.231566410780264 0 0 -1 I I #
coedge $-1 $370 $370 $-1 $544 reversed $230 $-1 #
edge $-1 $545 0 $545 6.2831853071796004 $231 $546 forward 7 unknown #
vertex $-1 $234 $547 #
ellipse-curve $-1 -38.123598919287993 11.7844970635458 2.7221949372023584 -0.69465837861970381 0 0.71933979245794832 0.71933979245794832 0 0.69465837861970381 1 I I #
face $-1 $-1 $548 $50 $-1 $549 reversed single #
loop $-1 $-1 $241 $235 #
plane-surface $-1 0 0 4.5460029920981295 0 0 1 1 0 0 forward_v I I I I #
coedge $-1 $550 $551 $552 $553 reversed $236 $-1 #
coedge $-1 $554 $238 $240 $384 forward $148 $-1 #
coedge $-1 $238 $554 $550 $555 forward $148 $-1 #
coedge $-1 $552 $241 $238 $381 forward $375 $-1 #
edge $-1 $387 4.0184015124703212 $556 10.716678968184008 $380 $557 forward 7 unknown #
coedge $-1 $558 $559 $239 $383 forward $548 $-1 #
edge $-1 $560 -56.127994648586039 $386 -52.480378538794483 $382 $561 forward 7 unknown #
edge $-1 $387 74.773465244373341 $560 80.024414807580825 $240 $562 forward 7 unknown #
coedge $-1 $241 $552 $558 $563 forward $375 $-1 #
vertex $-1 $242 $564 #
vertex $-1 $242 $565 #
straight-curve $-1 19.018545852380569 -11.385941752797486 4.5460029920981313 -1 0 0 I I #
coedge $-1 $389 $389 $-1 $566 reversed $245 $-1 #
edge $-1 $567 0 $567 6.2831853071796004 $246 $568 forward 7 unknown #
vertex $-1 $249 $569 #
ellipse-curve $-1 38.123598919287979 -14.735080480654329 2.7221949372023584 0.69465837861970381 0 0.71933979245794832 0.71933979245794832 0 -0.69465837861970381 1 I I #
face $-1 $-1 $405 $52 $-1 $570 forward single #
loop $-1 $-1 $571 $250 #
plane-surface $-1 40.012207403790399 0 0 -1 0 0 0 0 1 forward_v I I I I #
coedge $-1 $572 $573 $574 $575 reversed $251 $-1 #
coedge $-1 $576 $253 $255 $403 forward $157 $-1 #
coedge $-1 $253 $576 $572 $577 forward $157 $-1 #
coedge $-1 $574 $256 $253 $400 forward $405 $-1 #
edge $-1 $407 -2.6114928735797101 $578 4.0867845821339763 $399 $579 forward 7 unknown #
coedge $-1 $580 $581 $254 $402 forward $394 $-1 #
edge $-1 $582 -56.127994648586039 $406 -52.480378538794483 $401 $583 forward 7 unknown #
edge $-1 $407 74.773465244373341 $582 80.024414807580825 $255 $584 forward 7 unknown #
coedge $-1 $256 $574 $580 $585 forward $405 $-1 #
loop $-1 $-1 $574 $393 #
vertex $-1 $402 $586 #
vertex $-1 $257 $587 #
straight-curve $-1 19.018545852380569 1.8738470193025769 4.5460029920981313 -1 0 0 I I #
coedge $-1 $409 $409 $-1 $588 reversed $260 $-1 #
edge $-1 $589 0 $589 6.2831853071796004 $261 $590 forward 7 unknown #
vertex $-1 $264 $591 #
ellipse-curve $-1 38.123598919287979 -1.4752917085542663 2.7221949372023584 0.69465837861970381 0 0.71933979245794832 0.71933979245794832 0 -0.69465837861970381 1 I I #
face $-1 $-1 $425 $54 $-1 $592 forward single #
loop $-1 $-1 $593 $265 #
plane-surface $-1 40.012207403790399 0 0 -1 0 0 0 0 1 forward_v I I I I #
coedge $-1 $594 $595 $596 $597 reversed $266 $-1 #
coedge $-1 $598 $268 $270 $423 forward $166 $-1 #
coedge $-1 $268 $598 $594 $599 forward $166 $-1 #
coedge $-1 $596 $271 $268 $420 forward $425 $-1 #
edge $-1 $427 -9.2413872596297431 $600 -2.5431098039160567 $419 $601 forward 7 unknown #
coedge $-1 $602 $603 $269 $422 forward $414 $-1 #
edge $-1 $604 -56.127994648586039 $426 -52.480378538794483 $421 $605 forward 7 unknown #
edge $-1 $427 74.773465244373341 $604 80.024414807580825 $270 $606 forward 7 unknown #
coedge $-1 $271 $596 $602 $607 forward $425 $-1 #
loop $-1 $-1 $596 $413 #
vertex $-1 $422 $608 #
vertex $-1 $272 $609 #
straight-curve $-1 19.018545852380569 15.133635791402643 4.5460029920981313 -1 0 0 I I #
coedge $-1 $429 $429 $-1 $610 reversed $275 $-1 #
edge $-1 $611 0 $611 6.2831853071796004 $276 $612 forward 7 unknown #
vertex $-1 $279 $613 #
ellipse-curve $-1 38.123598919287979 11.7844970635458 2.7221949372023584 0.69465837861970381 0 0.71933979245794832 0.71933979245794832 0 -0.69465837861970381 1 I I #
face $-1 $-1 $295 $42 $-1 $614 reversed single #
loop $-1 $-1 $449 $280 #
plane-surface $-1 0 21.695147107789019 0 0 -1 0 0 0 -1 forward_v I I I I #
coedge $-1 $615 $447 $450 $616 forward $281 $-1 #
coedge $-1 $453 $283 $284 $441 reversed $175 $-1 #
coedge $-1 $447 $615 $283 $439 reversed $281 $-1 #
edge $-1 $454 -4.5460029920981295 $617 4.5460029920981295 $438 $618 forward 7 unknown #
coedge $-1 $285 $284 $615 $619 forward $113 $-1 #
edge $-1 $445 -40.012207403790399 $617 40.012207403790399 $437 $620 forward 7 unknown #
coedge $-1 $450 $449 $285 $443 reversed $434 $-1 #
edge $-1 $621 -40.012207403790399 $444 40.012207403790399 $442 $622 forward 7 unknown #
vertex $-1 $287 $623 #
vertex $-1 $456 $624 #
straight-curve $-1 40.012207403790399 0 -4.5460029920981295 0 -1 0 I I #
coedge $-1 $436 $438 $288 $448 reversed $281 $-1 #
edge $-1 $451 -21.695147107789019 $454 21.695147107789019 $447 $625 forward 7 unknown #
coedge $-1 $442 $289 $294 $457 forward $434 $-1 #
coedge $-1 $289 $442 $436 $616 reversed $434 $-1 #
vertex $-1 $290 $626 #
straight-curve $-1 0 21.695147107789019 4.5460029920981295 -1 0 0 I I #
coedge $-1 $291 $437 $293 $456 reversed $175 $-1 #
vertex $-1 $448 $627 #
straight-curve $-1 0 -21.695147107789019 4.5460029920981295 1 0 0 I I #
edge $-1 $296 -4.5460029920981295 $445 4.5460029920981295 $293 $628 forward 7 unknown #
edge $-1 $297 -4.5460029920981295 $444 4.5460029920981295 $294 $629 forward 7 unknown #
point $-1 40.012207403790399 -21.695147107789019 4.5460029920981295 #
point $-1 40.012207403790399 21.695147107789019 4.5460029920981295 #
face $-1 $-1 $470 $43 $-1 $630 reversed single #
loop $-1 $-1 $466 $299 #
plane-surface $-1 0 0 -4.5460029920981295 0 0 1 1 0 0 forward_v I I I I #
coedge $-1 $631 $632 $307 $474 forward $300 $-1 #
coedge $-1 $302 $478 $468 $633 forward $183 $-1 #
edge $-1 $472 -11.750305528713971 $312 -8.1393776294361242 $302 $634 forward 7 unknown #
coedge $-1 $635 $308 $303 $467 forward $461 $-1 #
edge $-1 $313 8.1393776294361242 $471 11.750305528713971 $466 $636 forward 7 unknown #
coedge $-1 $637 $305 $464 $633 reversed $470 $-1 #
coedge $-1 $305 $637 $635 $638 reversed $470 $-1 #
loop $-1 $-1 $305 $460 #
vertex $-1 $638 $639 #
vertex $-1 $306 $640 #
straight-curve $-1 -37.012207403790399 -21.695147107789019 0 0 0 1 I I #
edge $-1 $479 -4.5460029920981295 $476 4.5460029920981295 $463 $641 forward 7 unknown #
coedge $-1 $308 $635 $631 $642 forward $461 $-1 #
vertex $-1 $309 $643 #
straight-curve $-1 -19.256103701895199 -18.084219208511172 -4.5460029920981295 1 0 0 I I #
coedge $-1 $464 $310 $632 $644 forward $183 $-1 #
vertex $-1 $644 $645 #
straight-curve $-1 -19.256103701895199 -18.084219208511172 4.5460029920981295 -1 0 0 I I #
point $-1 -37.012207403790399 -18.084219208511172 4.5460029920981295 #
point $-1 -37.012207403790399 -18.084219208511172 -4.5460029920981295 #
plane-surface $-1 -40.012207403790399 0 0 1 0 0 0 0 -1 forward_v I I I I #
coedge $-1 $487 $646 $320 $490 forward $316 $-1 #
coedge $-1 $323 $318 $489 $647 forward $191 $-1 #
coedge $-1 $318 $323 $326 $497 forward $191 $-1 #
coedge $-1 $646 $484 $318 $488 reversed $316 $-1 #
edge $-1 $648 -20.756103701895199 $649 -16.978886732890388 $318 $650 forward 7 unknown #
coedge $-1 $320 $319 $485 $647 reversed $121 $-1 #
edge $-1 $492 -0.22746885682530898 $649 5.0234807063821556 $484 $651 forward 7 unknown #
coedge $-1 $326 $321 $646 $652 forward $327 $-1 #
vertex $-1 $652 $653 #
straight-curve $-1 -40.012207403790399 -7.3675402403271644 0.89838688230658892 0 -1 0 I I #
vertex $-1 $324 $654 #
straight-curve $-1 -47.800918822007546 -11.385941752797486 4.5460029920981313 -1 0 0 I I #
straight-curve $-1 -40.012207403790399 -11.385941752797486 0.89838688230658903 0.71933979245794832 0 0.69465837861970381 I I #
edge $-1 $328 11.385941752797486 $648 18.084219208511172 $326 $655 forward 7 unknown #
point $-1 -40.012207403790399 -11.385941752797486 4.5460029920981295 #
point $-1 -40.012207403790399 -11.385941752797486 0.89838688230658903 #
edge $-1 $656 1 $656 0 $331 $-1 forward 7 unknown #
vertex $-1 $332 $657 #
ellipse-curve $-1 -35.512996115858101 -14.735080480654329 0.018836658359120628 -0.69465837861970381 0 0.71933979245794832 0.71933979245794832 0 0.69465837861970381 1 I I #
point $-1 -37.404259126830055 -14.735080480654329 3.4168533158220713 #
loop $-1 $-1 $343 $335 #
plane-surface $-1 0 0 4.5460029920981295 0 0 1 1 0 0 forward_v I I I I #
coedge $-1 $507 $338 $340 $511 reversed $206 $-1 #
coedge $-1 $338 $506 $658 $659 reversed $206 $-1 #
coedge $-1 $346 $341 $338 $509 forward $336 $-1 #
edge $-1 $512 -28.333179528473675 $660 -24.685563418682136 $508 $661 forward 7 unknown #
coedge $-1 $340 $339 $515 $662 reversed $130 $-1 #
edge $-1 $663 -5.250949563207465 $512 0 $506 $664 forward 7 unknown #
vertex $-1 $342 $665 #
straight-curve $-1 -40.012207403790399 -0.73764585427713314 0.89838688230658892 0 -1 0 I I #
coedge $-1 $658 $343 $346 $519 forward $504 $-1 #
coedge $-1 $343 $658 $510 $662 forward $504 $-1 #
vertex $-1 $344 $666 #
straight-curve $-1 -47.800918822007546 1.8738470193025769 4.5460029920981313 -1 0 0 I I #
straight-curve $-1 -40.012207403790399 1.8738470193025769 0.89838688230658903 0.71933979245794832 0 0.69465837861970381 I I #
edge $-1 $347 -1.8738470193025769 $660 4.8244304364111095 $346 $667 forward 7 unknown #
point $-1 -40.012207403790399 1.8738470193025769 4.5460029920981295 #
point $-1 -40.012207403790399 1.8738470193025769 0.89838688230658903 #
edge $-1 $668 1 $668 0 $350 $-1 forward 7 unknown #
vertex $-1 $351 $669 #
ellipse-curve $-1 -35.512996115858101 -1.4752917085542663 0.018836658359120628 -0.69465837861970381 0 0.71933979245794832 0.71933979245794832 0 0.69465837861970381 1 I I #
point $-1 -37.404259126830055 -1.4752917085542663 3.4168533158220713 #
plane-surface $-1 -40.012207403790399 0 0 1 0 0 0 0 -1 forward_v I I I I #
coedge $-1 $537 $536 $529 $670 forward $355 $-1 #
coedge $-1 $529 $357 $359 $533 reversed $221 $-1 #
coedge $-1 $357 $528 $527 $670 reversed $221 $-1 #
coedge $-1 $365 $360 $357 $531 forward $366 $-1 #
edge $-1 $534 -28.333179528473675 $671 -24.685563418682136 $530 $672 forward 7 unknown #
coedge $-1 $359 $358 $537 $673 reversed $139 $-1 #
edge $-1 $674 -5.250949563207465 $534 0 $528 $675 forward 7 unknown #
vertex $-1 $361 $676 #
straight-curve $-1 -40.012207403790399 5.8922485317728999 0.89838688230658892 0 -1 0 I I #
coedge $-1 $527 $362 $365 $541 forward $355 $-1 #
coedge $-1 $362 $527 $532 $673 forward $355 $-1 #
vertex $-1 $363 $677 #
straight-curve $-1 -47.800918822007546 15.133635791402643 4.5460029920981313 -1 0 0 I I #
straight-curve $-1 -40.012207403790399 15.133635791402643 0.89838688230658903 0.71933979245794832 0 0.69465837861970381 I I #
edge $-1 $367 -15.133635791402643 $671 -8.4353583356889565 $365 $678 forward 7 unknown #
point $-1 -40.012207403790399 15.133635791402643 4.5460029920981295 #
point $-1 -40.012207403790399 15.133635791402643 0.89838688230658903 #
edge $-1 $679 1 $679 0 $370 $-1 forward 7 unknown #
vertex $-1 $371 $680 #
ellipse-curve $-1 -35.512996115858101 11.7844970635458 0.018836658359120628 -0.69465837861970381 0 0.71933979245794832 0.71933979245794832 0 0.69465837861970381 1 I I #
point $-1 -37.404259126830055 11.7844970635458 3.4168533158220713 #
loop $-1 $-1 $382 $374 #
plane-surface $-1 40.012207403790399 0 0 -1 0 0 0 0 1 forward_v I I I I #
coedge $-1 $551 $377 $379 $555 reversed $236 $-1 #
coedge $-1 $377 $550 $681 $682 reversed $236 $-1 #
coedge $-1 $385 $380 $377 $553 forward $375 $-1 #
edge $-1 $556 17.216444582405011 $683 20.993661551409829 $552 $684 forward 7 unknown #
coedge $-1 $379 $378 $559 $685 reversed $148 $-1 #
edge $-1 $686 -80.024414807580825 $556 -74.773465244373341 $550 $687 forward 7 unknown #
vertex $-1 $381 $688 #
straight-curve $-1 36.234990434785573 -7.3675402403271644 4.5460029920981313 0 -1 0 I I #
coedge $-1 $681 $382 $385 $563 reversed $548 $-1 #
coedge $-1 $382 $681 $554 $685 forward $548 $-1 #
vertex $-1 $383 $689 #
straight-curve $-1 40.012207403790399 -11.385941752797486 57.026381530892614 0 0 1 I I #
straight-curve $-1 -17.552538535463555 -11.385941752797486 56.488017122531289 0.71933979245794832 0 -0.69465837861970381 I I #
edge $-1 $683 -18.084219208511172 $386 -11.385941752797486 $558 $690 forward 7 unknown #
point $-1 40.012207403790399 -11.385941752797486 4.5460029920981295 #
point $-1 36.23499043478558 -11.385941752797486 4.5460029920981313 #
edge $-1 $691 1 $691 0 $389 $-1 forward 7 unknown #
vertex $-1 $390 $692 #
ellipse-curve $-1 35.512996115858094 -14.735080480654329 0.018836658359124181 0.69465837861970381 0 0.71933979245794832 0.71933979245794832 0 -0.69465837861970381 1 I I #
point $-1 38.842938711745944 -14.735080480654329 2.0275365585826668 #
plane-surface $-1 0 0 4.5460029920981295 0 0 1 1 0 0 forward_v I I I I #
coedge $-1 $581 $580 $573 $693 forward $394 $-1 #
coedge $-1 $573 $396 $398 $577 reversed $251 $-1 #
coedge $-1 $396 $572 $571 $693 reversed $251 $-1 #
coedge $-1 $404 $399 $396 $575 forward $405 $-1 #
edge $-1 $578 17.216444582405011 $694 20.993661551409829 $574 $695 forward 7 unknown #
coedge $-1 $398 $397 $581 $696 reversed $157 $-1 #
edge $-1 $697 -80.024414807580825 $578 -74.773465244373341 $572 $698 forward 7 unknown #
vertex $-1 $400 $699 #
straight-curve $-1 36.234990434785573 -0.73764585427713314 4.5460029920981313 0 -1 0 I I #
coedge $-1 $571 $401 $404 $585 reversed $394 $-1 #
coedge $-1 $401 $571 $576 $696 forward $394 $-1 #
vertex $-1 $402 $700 #
straight-curve $-1 40.012207403790399 1.8738470193025769 57.026381530892614 0 0 1 I I #
straight-curve $-1 -17.552538535463555 1.8738470193025769 56.488017122531289 0.71933979245794832 0 -0.69465837861970381 I I #
edge $-1 $694 -4.8244304364111095 $406 1.8738470193025769 $580 $701 forward 7 unknown #
point $-1 40.012207403790399 1.8738470193025769 4.5460029920981295 #
point $-1 36.23499043478558 1.8738470193025769 4.5460029920981313 #
edge $-1 $702 1 $702 0 $409 $-1 forward 7 unknown #
vertex $-1 $410 $703 #
ellipse-curve $-1 35.512996115858094 -1.4752917085542663 0.018836658359124181 0.69465837861970381 0 0.71933979245794832 0.71933979245794832 0 -0.69465837861970381 1 I I #
point $-1 38.842938711745944 -1.4752917085542663 2.0275365585826668 #
plane-surface $-1 0 0 4.5460029920981295 0 0 1 1 0 0 forward_v I I I I #
coedge $-1 $603 $602 $595 $704 forward $414 $-1 #
coedge $-1 $595 $416 $418 $599 reversed $266 $-1 #
coedge $-1 $416 $594 $593 $704 reversed $266 $-1 #
coedge $-1 $424 $419 $416 $597 forward $425 $-1 #
edge $-1 $600 17.216444582405011 $705 20.993661551409829 $596 $706 forward 7 unknown #
coedge $-1 $418 $417 $603 $707 reversed $166 $-1 #
edge $-1 $708 -80.024414807580825 $600 -74.773465244373341 $594 $709 forward 7 unknown #
vertex $-1 $420 $710 #
straight-curve $-1 36.234990434785573 5.8922485317728999 4.5460029920981313 0 -1 0 I I #
coedge $-1 $593 $421 $424 $607 reversed $414 $-1 #
coedge $-1 $421 $593 $598 $707 forward $414 $-1 #
vertex $-1 $422 $711 #
straight-curve $-1 40.012207403790399 15.133635791402643 57.026381530892614 0 0 1 I I #
straight-curve $-1 -17.552538535463555 15.133635791402643 56.488017122531289 0.71933979245794832 0 -0.69465837861970381 I I #
edge $-1 $705 8.4353583356889565 $426 15.133635791402643 $602 $712 forward 7 unknown #
point $-1 40.012207403790399 15.133635791402643 4.5460029920981295 #
point $-1 36.23499043478558 15.133635791402643 4.5460029920981313 #
edge $-1 $713 1 $713 0 $429 $-1 forward 7 unknown #
vertex $-1 $430 $714 #
ellipse-curve $-1 35.512996115858094 11.7844970635458 0.018836658359124181 0.69465837861970381 0 0.71933979245794832 0.71933979245794832 0 -0.69465837861970381 1 I I #
point $-1 38.842938711745944 11.7844970635458 2.0275365585826668 #
plane-surface $-1 40.012207403790399 0 0 -1 0 0 0 0 1 forward_v I I I I #
coedge $-1 $438 $436 $440 $619 reversed $281 $-1 #
edge $-1 $451 -4.5460029920981295 $621 4.5460029920981295 $450 $715 forward 7 unknown #
vertex $-1 $619 $716 #
straight-curve $-1 -40.012207403790399 -21.695147107789019 0 0 0 -1 I I #
edge $-1 $617 -21.695147107789019 $621 21.695147107789019 $615 $717 forward 7 unknown #
straight-curve $-1 0 -21.695147107789019 -4.5460029920981295 -1 0 0 I I #
vertex $-1 $443 $718 #
straight-curve $-1 0 21.695147107789019 -4.5460029920981295 1 0 0 I I #
point $-1 40.012207403790399 21.695147107789019 -4.5460029920981295 #
point $-1 40.012207403790399 -21.695147107789019 -4.5460029920981295 #
straight-curve $-1 -40.012207403790399 0 4.5460029920981295 0 -1 0 I I #
point $-1 -40.012207403790399 21.695147107789019 4.5460029920981295 #
point $-1 -40.012207403790399 -21.695147107789019 4.5460029920981295 #
straight-curve $-1 40.012207403790399 -21.695147107789019 0 0 0 -1 I I #
straight-curve $-1 40.012207403790399 21.695147107789019 0 0 0 -1 I I #
plane-surface $-1 0 -21.695147107789019 0 0 1 0 0 0 1 forward_v I I I I #
coedge $-1 $719 $463 $475 $642 reversed $300 $-1 #
coedge $-1 $463 $719 $478 $644 reversed $300 $-1 #
edge $-1 $720 -40.012207403790399 $472 -37.012207403790399 $468 $721 forward 7 unknown #
straight-curve $-1 -37.012207403790399 -9.9448415790750477 4.5460029920981295 0 1 0 I I #
coedge $-1 $475 $466 $469 $638 forward $461 $-1 #
straight-curve $-1 -37.012207403790399 -9.9448415790750477 -4.5460029920981295 0 -1 0 I I #
coedge $-1 $469 $468 $719 $722 forward $470 $-1 #
edge $-1 $471 37.012207403790399 $723 40.012207403790399 $469 $724 forward 7 unknown #
point $-1 -37.012207403790399 -21.695147107789019 -4.5460029920981295 #
point $-1 -37.012207403790399 -21.695147107789019 4.5460029920981295 #
straight-curve $-1 -40.012207403790399 -18.084219208511172 0 0 0 -1 I I #
edge $-1 $723 -21.695147107789019 $476 -18.084219208511172 $631 $725 forward 7 unknown #
point $-1 -40.012207403790399 -18.084219208511172 -4.5460029920981295 #
edge $-1 $479 18.084219208511172 $720 21.695147107789019 $632 $726 forward 7 unknown #
point $-1 -40.012207403790399 -18.084219208511172 4.5460029920981295 #
coedge $-1 $484 $487 $491 $652 reversed $316 $-1 #
edge $-1 $649 -10.716678968184008 $494 -4.0184015124703212 $485 $727 forward 7 unknown #
vertex $-1 $652 $728 #
vertex $-1 $488 $729 #
straight-curve $-1 -19.256103701895199 -18.084219208511172 4.5460029920981295 1 0 0 I I #
straight-curve $-1 -39.848580003531033 -18.084219208511172 1.0564000295753351 0.71933979245794832 0 0.69465837861970381 I I #
edge $-1 $492 0.89838688230658903 $648 4.5460029920981295 $491 $730 forward 7 unknown #
point $-1 -40.012207403790399 -18.084219208511172 0.89838688230658903 #
point $-1 -36.234990434785587 -11.385941752797486 4.5460029920981295 #
straight-curve $-1 -40.012207403790399 0 4.5460029920981295 0 -1 0 I I #
vertex $-1 $500 $731 #
point $-1 -34.79365632340015 -14.735080480654329 0.71349503697882444 #
coedge $-1 $515 $514 $507 $659 forward $504 $-1 #
edge $-1 $660 7.7887114182171473 $663 11.565928387221959 $658 $732 forward 7 unknown #
vertex $-1 $659 $733 #
straight-curve $-1 -40.012207403790399 -4.8244304364111095 29.231566410780264 0 0 1 I I #
edge $-1 $663 -4.0867845821339763 $516 2.6114928735797101 $515 $734 forward 7 unknown #
vertex $-1 $662 $735 #
straight-curve $-1 -40.012207403790399 -4.8244304364111095 0.89838688230658903 -0.71933979245794832 0 -0.69465837861970381 I I #
point $-1 -40.012207403790399 -4.8244304364111095 0.89838688230658903 #
point $-1 -36.234990434785587 1.8738470193025769 4.5460029920981295 #
straight-curve $-1 -40.012207403790399 0 4.5460029920981295 0 -1 0 I I #
vertex $-1 $522 $736 #
point $-1 -34.79365632340015 -1.4752917085542663 0.71349503697882444 #
edge $-1 $671 7.7887114182171473 $674 11.565928387221959 $527 $737 forward 7 unknown #
vertex $-1 $531 $738 #
straight-curve $-1 -40.012207403790399 8.4353583356889565 29.231566410780264 0 0 1 I I #
edge $-1 $674 2.5431098039160567 $538 9.2413872596297431 $537 $739 forward 7 unknown #
vertex $-1 $673 $740 #
straight-curve $-1 -40.012207403790399 8.4353583356889565 0.89838688230658903 -0.71933979245794832 0 -0.69465837861970381 I I #
point $-1 -40.012207403790399 8.4353583356889565 0.89838688230658903 #
point $-1 -36.234990434785587 15.133635791402643 4.5460029920981295 #
straight-curve $-1 -40.012207403790399 0 4.5460029920981295 0 -1 0 I I #
vertex $-1 $544 $741 #
point $-1 -34.79365632340015 11.7844970635458 0.71349503697882444 #
coedge $-1 $559 $558 $551 $682 forward $548 $-1 #
edge $-1 $683 52.480378538794483 $686 56.127994648586039 $681 $742 forward 7 unknown #
vertex $-1 $563 $743 #
straight-curve $-1 19.018545852380569 -18.084219208511172 4.5460029920981313 1 0 0 I I #
edge $-1 $686 -10.716678968184008 $560 -4.0184015124703212 $559 $744 forward 7 unknown #
vertex $-1 $685 $745 #
straight-curve $-1 -17.552538535463555 -18.084219208511172 56.488017122531289 -0.71933979245794832 0 0.69465837861970381 I I #
point $-1 36.23499043478558 -18.084219208511172 4.5460029920981313 #
point $-1 40.012207403790406 -11.385941752797486 0.89838688230657482 #
straight-curve $-1 40.012207403790399 0 4.5460029920981295 0 1 0 I I #
vertex $-1 $566 $746 #
point $-1 36.232335908316038 -14.735080480654329 -0.67582172026057963 #
edge $-1 $694 52.480378538794483 $697 56.127994648586039 $571 $747 forward 7 unknown #
vertex $-1 $585 $748 #
straight-curve $-1 19.018545852380569 -4.8244304364111095 4.5460029920981313 1 0 0 I I #
edge $-1 $697 -4.0867845821339763 $582 2.6114928735797101 $581 $749 forward 7 unknown #
vertex $-1 $696 $750 #
straight-curve $-1 -17.552538535463555 -4.8244304364111095 56.488017122531289 -0.71933979245794832 0 0.69465837861970381 I I #
point $-1 36.23499043478558 -4.8244304364111095 4.5460029920981313 #
point $-1 40.012207403790406 1.8738470193025769 0.89838688230657482 #
straight-curve $-1 40.012207403790399 0 4.5460029920981295 0 1 0 I I #
vertex $-1 $588 $751 #
point $-1 36.232335908316038 -1.4752917085542663 -0.67582172026057963 #
edge $-1 $705 52.480378538794483 $708 56.127994648586039 $593 $752 forward 7 unknown #
vertex $-1 $607 $753 #
straight-curve $-1 19.018545852380569 8.4353583356889565 4.5460029920981313 1 0 0 I I #
edge $-1 $708 2.5431098039160567 $604 9.2413872596297431 $603 $754 forward 7 unknown #
vertex $-1 $707 $755 #
straight-curve $-1 -17.552538535463555 8.4353583356889565 56.488017122531289 -0.71933979245794832 0 0.69465837861970381 I I #
point $-1 36.23499043478558 8.4353583356889565 4.5460029920981313 #
point $-1 40.012207403790406 15.133635791402643 0.89838688230657482 #
straight-curve $-1 40.012207403790399 0 4.5460029920981295 0 1 0 I I #
vertex $-1 $610 $756 #
point $-1 36.232335908316038 11.7844970635458 -0.67582172026057963 #
straight-curve $-1 -40.012207403790399 21.695147107789019 0 0 0 -1 I I #
point $-1 -40.012207403790399 -21.695147107789019 -4.5460029920981295 #
straight-curve $-1 -40.012207403790399 0 -4.5460029920981295 0 1 0 I I #
point $-1 -40.012207403790399 21.695147107789019 -4.5460029920981295 #
coedge $-1 $632 $631 $637 $722 reversed $300 $-1 #
vertex $-1 $644 $757 #
straight-curve $-1 0 -21.695147107789019 4.5460029920981295 1 0 0 I I #
edge $-1 $720 -4.5460029920981295 $723 4.5460029920981295 $719 $758 forward 7 unknown #
vertex $-1 $642 $759 #
straight-curve $-1 0 -21.695147107789019 -4.5460029920981295 -1 0 0 I I #
straight-curve $-1 -40.012207403790399 0 -4.5460029920981295 0 1 0 I I #
straight-curve $-1 -40.012207403790399 0 4.5460029920981295 0 -1 0 I I #
straight-curve $-1 -36.234990434785587 -7.3675402403271644 4.5460029920981286 0 1 0 I I #
point $-1 -40.012207403790399 -18.084219208511172 4.5460029920981295 #
point $-1 -36.234990434785587 -18.084219208511172 4.5460029920981295 #
straight-curve $-1 -40.012207403790399 -18.084219208511172 0 0 0 1 I I #
point $-1 -34.818337737238394 -14.735080480654329 -0.7005031340988277 #
straight-curve $-1 -47.800918822007546 -4.8244304364111095 4.5460029920981313 1 0 0 I I #
point $-1 -40.012207403790399 -4.8244304364111095 4.5460029920981295 #
straight-curve $-1 -36.234990434785587 -0.73764585427713314 4.5460029920981286 0 1 0 I I #
point $-1 -36.234990434785587 -4.8244304364111095 4.5460029920981295 #
point $-1 -34.818337737238394 -1.4752917085542663 -0.7005031340988277 #
straight-curve $-1 -47.800918822007546 8.4353583356889565 4.5460029920981313 1 0 0 I I #
point $-1 -40.012207403790399 8.4353583356889565 4.5460029920981295 #
straight-curve $-1 -36.234990434785587 5.8922485317728999 4.5460029920981286 0 1 0 I I #
point $-1 -36.234990434785587 8.4353583356889565 4.5460029920981295 #
point $-1 -34.818337737238394 11.7844970635458 -0.7005031340988277 #
straight-curve $-1 40.012207403790399 -18.084219208511172 57.026381530892614 0 0 -1 I I #
point $-1 40.012207403790399 -18.084219208511172 4.5460029920981295 #
straight-curve $-1 40.012207403790391 -7.3675402403271644 0.89838688230658903 0 1 0 I I #
point $-1 40.012207403790406 -18.084219208511172 0.89838688230657482 #
point $-1 34.818337737238387 -14.735080480654329 -0.70050313409882414 #
straight-curve $-1 40.012207403790399 -4.8244304364111095 57.026381530892614 0 0 -1 I I #
point $-1 40.012207403790399 -4.8244304364111095 4.5460029920981295 #
straight-curve $-1 40.012207403790391 -0.73764585427713314 0.89838688230658903 0 1 0 I I #
point $-1 40.012207403790406 -4.8244304364111095 0.89838688230657482 #
point $-1 34.818337737238387 -1.4752917085542663 -0.70050313409882414 #
straight-curve $-1 40.012207403790399 8.4353583356889565 57.026381530892614 0 0 -1 I I #
point $-1 40.012207403790399 8.4353583356889565 4.5460029920981295 #
straight-curve $-1 40.012207403790391 5.8922485317728999 0.89838688230658903 0 1 0 I I #
point $-1 40.012207403790406 8.4353583356889565 0.89838688230657482 #
point $-1 34.818337737238387 11.7844970635458 -0.70050313409882414 #
point $-1 -40.012207403790399 -21.695147107789019 4.5460029920981295 #
straight-curve $-1 -40.012207403790399 -21.695147107789019 0 0 0 -1 I I #
point $-1 -40.012207403790399 -21.695147107789019 -4.5460029920981295 #
End-of-ACIS-data 