500 0 15 0           
7 Unknown 11 ACIS 5.0 NT 24 Thu Mar 25 15:51:51 1999 
-1 9.9999999999999995e-007 1e-010 
body $-1 $15 $-1 $16 #
body $-1 $17 $-1 $18 #
body $-1 $19 $-1 $20 #
body $-1 $21 $-1 $22 #
body $-1 $23 $-1 $24 #
body $-1 $25 $-1 $26 #
body $-1 $27 $-1 $28 #
body $-1 $29 $-1 $30 #
body $-1 $31 $-1 $32 #
body $-1 $33 $-1 $34 #
body $-1 $35 $-1 $36 #
body $-1 $37 $-1 $38 #
body $-1 $39 $-1 $40 #
body $-1 $41 $-1 $42 #
body $-1 $43 $-1 $44 #
lump $-1 $-1 $45 $0 #
transform $-1 1 0 0 0 1 0 0 0 1 46.258735923337504 27.610960942064722 10.669070127624082 1 rotate no_reflect no_shear #
lump $-1 $-1 $46 $1 #
transform $-1 1 0 0 0 1 0 0 0 1 46.258735923337504 27.610960942064722 10.669070127624082 1 rotate no_reflect no_shear #
lump $-1 $-1 $47 $2 #
transform $-1 1 0 0 0 1 0 0 0 1 46.258735923337504 27.610960942064722 10.669070127624082 1 rotate no_reflect no_shear #
lump $-1 $-1 $48 $3 #
transform $-1 1 0 0 0 1 0 0 0 1 46.258735923337504 27.610960942064722 10.669070127624082 1 rotate no_reflect no_shear #
lump $-1 $-1 $49 $4 #
transform $-1 1 0 0 0 1 0 0 0 1 46.258735923337504 27.610960942064722 10.669070127624082 1 rotate no_reflect no_shear #
lump $-1 $-1 $50 $5 #
transform $-1 1 0 0 0 1 0 0 0 1 46.258735923337504 27.610960942064722 10.669070127624082 1 rotate no_reflect no_shear #
lump $-1 $-1 $51 $6 #
transform $-1 1 0 0 0 1 0 0 0 1 46.258735923337504 27.610960942064722 10.669070127624082 1 rotate no_reflect no_shear #
lump $-1 $-1 $52 $7 #
transform $-1 1 0 0 0 1 0 0 0 1 46.258735923337504 27.610960942064722 10.669070127624082 1 rotate no_reflect no_shear #
lump $-1 $-1 $53 $8 #
transform $-1 1 0 0 0 1 0 0 0 1 46.258735923337504 27.610960942064722 10.669070127624082 1 rotate no_reflect no_shear #
lump $-1 $-1 $54 $9 #
transform $-1 1 0 0 0 1 0 0 0 1 46.258735923337504 27.610960942064722 10.669070127624082 1 rotate no_reflect no_shear #
lump $-1 $-1 $55 $10 #
transform $-1 1 0 0 0 1 0 0 0 1 46.258735923337504 27.610960942064722 10.669070127624082 1 rotate no_reflect no_shear #
lump $-1 $-1 $56 $11 #
transform $-1 1 0 0 0 1 0 0 0 1 46.258735923337504 27.610960942064722 10.669070127624082 1 rotate no_reflect no_shear #
lump $-1 $-1 $57 $12 #
transform $-1 1 0 0 0 1 0 0 0 1 46.258735923337504 27.610960942064722 10.669070127624082 1 rotate no_reflect no_shear #
lump $-1 $-1 $58 $13 #
transform $-1 1 0 0 0 1 0 0 0 1 46.258735923337504 27.610960942064722 10.669070127624082 1 rotate no_reflect no_shear #
lump $-1 $-1 $59 $14 #
transform $-1 1 0 0 0 1 0 0 0 1 46.258735923337504 27.610960942064722 10.669070127624082 1 rotate no_reflect no_shear #
shell $-1 $-1 $-1 $60 $-1 $15 #
shell $-1 $-1 $-1 $61 $-1 $17 #
shell $-1 $-1 $-1 $62 $-1 $19 #
shell $-1 $-1 $-1 $63 $-1 $21 #
shell $-1 $-1 $-1 $64 $-1 $23 #
shell $-1 $-1 $-1 $65 $-1 $25 #
shell $-1 $-1 $-1 $66 $-1 $27 #
shell $-1 $-1 $-1 $67 $-1 $29 #
shell $-1 $-1 $-1 $68 $-1 $31 #
shell $-1 $-1 $-1 $69 $-1 $33 #
shell $-1 $-1 $-1 $70 $-1 $35 #
shell $-1 $-1 $-1 $71 $-1 $37 #
shell $-1 $-1 $-1 $72 $-1 $39 #
shell $-1 $-1 $-1 $73 $-1 $41 #
shell $-1 $-1 $-1 $74 $-1 $43 #
face $-1 $75 $76 $45 $-1 $77 forward single #
face $-1 $78 $79 $46 $-1 $80 forward single #
face $-1 $81 $82 $47 $-1 $83 forward single #
face $-1 $84 $85 $48 $-1 $86 reversed single #
face $-1 $87 $88 $49 $-1 $89 forward single #
face $-1 $90 $91 $50 $-1 $92 forward single #
face $-1 $93 $94 $51 $-1 $95 forward single #
face $-1 $96 $97 $52 $-1 $98 reversed single #
face $-1 $99 $100 $53 $-1 $101 forward single #
face $-1 $102 $103 $54 $-1 $104 forward single #
face $-1 $105 $106 $55 $-1 $107 forward single #
face $-1 $108 $109 $56 $-1 $110 reversed single #
face $-1 $111 $112 $57 $-1 $113 forward single #
face $-1 $114 $115 $58 $-1 $116 forward single #
face $-1 $117 $118 $59 $-1 $119 forward single #
face $-1 $120 $121 $45 $-1 $122 reversed single #
loop $-1 $-1 $123 $60 #
plane-surface $-1 0 0 10.669070127624082 0 0 1 1 0 0 forward_v I I I I #
face $-1 $124 $125 $46 $-1 $126 reversed single #
loop $-1 $-1 $127 $61 #
plane-surface $-1 0 -27.610960942064722 0 0 1 0 0 0 1 forward_v I I I I #
face $-1 $128 $129 $47 $-1 $130 reversed single #
loop $-1 $-1 $131 $62 #
plane-surface $-1 0 27.610960942064722 0 0 -1 0 0 0 -1 forward_v I I I I #
face $-1 $132 $133 $48 $-1 $134 reversed single #
loop $-1 $-1 $135 $63 #
plane-surface $-1 -93.908757152652242 -15.107723746435578 80.93520609194816 0 1 0 -0.51503808176128008 0 0.85716729658548041 forward_v I I I I #
face $-1 $136 $137 $49 $-1 $138 forward single #
loop $-1 $139 $140 $64 #
cone-surface $-1 -38.328452671670277 -13.876899740039157 5.4676583981621691 0.51503808176128008 0 -0.85716729658548041 0.4285836482927402 0 0.25751904088064004 1 I I 0 1 0.5 forward I I I I #
face $-1 $141 $142 $50 $-1 $143 forward single #
loop $-1 $144 $145 $65 #
cone-surface $-1 -38.328452671670277 -12.030663730444523 5.4676583981621691 0.51503808176128008 0 -0.85716729658548041 0.4285836482927402 0 0.25751904088064004 1 I I 0 1 0.5 forward I I I I #
face $-1 $146 $147 $51 $-1 $148 forward single #
loop $-1 $149 $150 $66 #
cone-surface $-1 -38.328452671670277 -10.184427720849889 5.4676583981621691 0.51503808176128008 0 -0.85716729658548041 0.4285836482927402 0 0.25751904088064004 1 I I 0 1 0.5 forward I I I I #
face $-1 $151 $152 $52 $-1 $153 reversed single #
loop $-1 $-1 $154 $67 #
plane-surface $-1 -93.908757152652242 2.6645352591003757e-015 80.93520609194816 0 1 0 -0.51503808176128008 0 0.85716729658548041 forward_v I I I I #
face $-1 $155 $156 $53 $-1 $157 forward single #
loop $-1 $158 $159 $68 #
cone-surface $-1 -38.328452671670277 1.2308240063964249 5.4676583981621691 0.51503808176128008 0 -0.85716729658548041 0.4285836482927402 0 0.25751904088064004 1 I I 0 1 0.5 forward I I I I #
face $-1 $160 $161 $54 $-1 $162 forward single #
loop $-1 $163 $164 $69 #
cone-surface $-1 -38.328452671670277 3.0770600159910586 5.4676583981621691 0.51503808176128008 0 -0.85716729658548041 0.4285836482927402 0 0.25751904088064004 1 I I 0 1 0.5 forward I I I I #
face $-1 $165 $166 $55 $-1 $167 forward single #
loop $-1 $168 $169 $70 #
cone-surface $-1 -38.328452671670277 4.9232960255856923 5.4676583981621691 0.51503808176128008 0 -0.85716729658548041 0.4285836482927402 0 0.25751904088064004 1 I I 0 1 0.5 forward I I I I #
face $-1 $170 $171 $56 $-1 $172 reversed single #
loop $-1 $-1 $173 $71 #
plane-surface $-1 28.049403304202762 0.8921173098152817 130.72608776052382 0 -1 0 -0.6018150307709319 0 -0.79863550430605224 forward_v I I I I #
face $-1 $174 $175 $57 $-1 $176 forward single #
loop $-1 $177 $178 $72 #
cone-surface $-1 39.553847287601506 -4.8100918582064978 5.389832434152086 -0.6018150307709319 0 -0.79863550430605224 0.39931775215302612 0 -0.30090751538546595 1 I I 0 1 0.5 forward I I I I #
face $-1 $179 $180 $58 $-1 $181 forward single #
loop $-1 $182 $183 $73 #
cone-surface $-1 39.553847287601506 -2.6717634201983316 5.389832434152086 -0.6018150307709319 0 -0.79863550430605224 0.39931775215302612 0 -0.30090751538546595 1 I I 0 1 0.5 forward I I I I #
face $-1 $184 $185 $59 $-1 $186 forward single #
loop $-1 $187 $188 $74 #
cone-surface $-1 39.553847287601506 -0.53343498219016539 5.389832434152086 -0.6018150307709319 0 -0.79863550430605224 0.39931775215302612 0 -0.30090751538546595 1 I I 0 1 0.5 forward I I I I #
face $-1 $189 $190 $45 $-1 $191 reversed single #
loop $-1 $-1 $192 $75 #
plane-surface $-1 0 0 -10.669070127624082 0 0 1 1 0 0 forward_v I I I I #
coedge $-1 $193 $194 $195 $196 forward $76 $-1 #
face $-1 $197 $198 $46 $-1 $199 reversed single #
loop $-1 $-1 $200 $78 #
plane-surface $-1 0 0 -10.669070127624082 0 0 1 1 0 0 forward_v I I I I #
coedge $-1 $201 $202 $203 $204 forward $79 $-1 #
face $-1 $205 $206 $47 $-1 $207 forward single #
loop $-1 $-1 $208 $81 #
plane-surface $-1 -46.258735923337504 0 0 1 0 0 0 0 -1 forward_v I I I I #
coedge $-1 $209 $210 $211 $212 forward $82 $-1 #
face $-1 $213 $214 $48 $-1 $215 reversed single #
loop $-1 $-1 $216 $84 #
plane-surface $-1 -46.258735923337511 -12.030663730444523 1.6322548622104449 -0.51503808176128008 0 0.85716729658548041 0.85716729658548041 0 0.51503808176128008 forward_v I I I I #
coedge $-1 $217 $218 $219 $220 reversed $85 $-1 #
face $-1 $-1 $221 $49 $-1 $222 forward single #
loop $-1 $223 $224 $87 #
cone-surface $-1 -37.789302879425222 -13.876899740039157 4.5703624772606961 0.51503808176128008 0 -0.85716729658548041 0.2142918241463701 0 0.12875952044032002 1 I I -0.70710678118654746 0.70710678118654746 0.25 forward I I I I #
loop $-1 $-1 $225 $64 #
coedge $-1 $140 $140 $226 $227 reversed $88 $-1 #
face $-1 $-1 $228 $50 $-1 $229 forward single #
loop $-1 $230 $231 $90 #
cone-surface $-1 -37.789302879425222 -12.030663730444523 4.5703624772606961 0.51503808176128008 0 -0.85716729658548041 0.2142918241463701 0 0.12875952044032002 1 I I -0.70710678118654746 0.70710678118654746 0.25 forward I I I I #
loop $-1 $-1 $232 $65 #
coedge $-1 $145 $145 $233 $234 reversed $91 $-1 #
face $-1 $-1 $235 $51 $-1 $236 forward single #
loop $-1 $237 $238 $93 #
cone-surface $-1 -37.789302879425222 -10.184427720849889 4.5703624772606961 0.51503808176128008 0 -0.85716729658548041 0.2142918241463701 0 0.12875952044032002 1 I I -0.70710678118654746 0.70710678118654746 0.25 forward I I I I #
loop $-1 $-1 $239 $66 #
coedge $-1 $150 $150 $240 $241 reversed $94 $-1 #
face $-1 $242 $243 $52 $-1 $244 reversed single #
loop $-1 $-1 $245 $96 #
plane-surface $-1 -46.258735923337511 3.0770600159910586 1.6322548622104449 -0.51503808176128008 0 0.85716729658548041 0.85716729658548041 0 0.51503808176128008 forward_v I I I I #
coedge $-1 $246 $247 $248 $249 reversed $97 $-1 #
face $-1 $-1 $250 $53 $-1 $251 forward single #
loop $-1 $252 $253 $99 #
cone-surface $-1 -37.789302879425222 1.2308240063964249 4.5703624772606961 0.51503808176128008 0 -0.85716729658548041 0.2142918241463701 0 0.12875952044032002 1 I I -0.70710678118654746 0.70710678118654746 0.25 forward I I I I #
loop $-1 $-1 $254 $68 #
coedge $-1 $159 $159 $255 $256 reversed $100 $-1 #
face $-1 $-1 $257 $54 $-1 $258 forward single #
loop $-1 $259 $260 $102 #
cone-surface $-1 -37.789302879425222 3.0770600159910586 4.5703624772606961 0.51503808176128008 0 -0.85716729658548041 0.2142918241463701 0 0.12875952044032002 1 I I -0.70710678118654746 0.70710678118654746 0.25 forward I I I I #
loop $-1 $-1 $261 $69 #
coedge $-1 $164 $164 $262 $263 reversed $103 $-1 #
face $-1 $-1 $264 $55 $-1 $265 forward single #
loop $-1 $266 $267 $105 #
cone-surface $-1 -37.789302879425222 4.9232960255856923 4.5703624772606961 0.51503808176128008 0 -0.85716729658548041 0.2142918241463701 0 0.12875952044032002 1 I I -0.70710678118654746 0.70710678118654746 0.25 forward I I I I #
loop $-1 $-1 $268 $70 #
coedge $-1 $169 $169 $269 $270 reversed $106 $-1 #
face $-1 $271 $272 $56 $-1 $273 reversed single #
loop $-1 $-1 $274 $108 #
plane-surface $-1 -27.629001862052782 -2.6717634201983316 56.838349975133539 0.6018150307709319 0 0.79863550430605224 0.79863550430605224 0 -0.6018150307709319 forward_v I I I I #
coedge $-1 $275 $276 $277 $278 reversed $109 $-1 #
face $-1 $-1 $279 $57 $-1 $280 forward single #
loop $-1 $281 $282 $111 #
cone-surface $-1 39.008022525128105 -4.8100918582064978 4.6654985239766233 -0.6018150307709319 0 -0.79863550430605224 0.19965887607651306 0 -0.15045375769273298 1 I I -0.70710678118654746 0.70710678118654746 0.25 forward I I I I #
loop $-1 $-1 $283 $72 #
coedge $-1 $178 $178 $284 $285 reversed $112 $-1 #
face $-1 $-1 $286 $58 $-1 $287 forward single #
loop $-1 $288 $289 $114 #
cone-surface $-1 39.008022525128105 -2.6717634201983316 4.6654985239766233 -0.6018150307709319 0 -0.79863550430605224 0.19965887607651306 0 -0.15045375769273298 1 I I -0.70710678118654746 0.70710678118654746 0.25 forward I I I I #
loop $-1 $-1 $290 $73 #
coedge $-1 $183 $183 $291 $292 reversed $115 $-1 #
face $-1 $-1 $293 $59 $-1 $294 forward single #
loop $-1 $295 $296 $117 #
cone-surface $-1 39.008022525128105 -0.53343498219016539 4.6654985239766233 -0.6018150307709319 0 -0.79863550430605224 0.19965887607651306 0 -0.15045375769273298 1 I I -0.70710678118654746 0.70710678118654746 0.25 forward I I I I #
loop $-1 $-1 $297 $74 #
coedge $-1 $188 $188 $298 $299 reversed $118 $-1 #
face $-1 $300 $301 $45 $-1 $302 reversed single #
loop $-1 $-1 $303 $120 #
plane-surface $-1 0 -27.610960942064722 0 0 1 0 0 0 1 forward_v I I I I #
coedge $-1 $304 $305 $306 $307 forward $121 $-1 #
coedge $-1 $308 $123 $309 $310 forward $76 $-1 #
coedge $-1 $123 $308 $311 $312 forward $76 $-1 #
coedge $-1 $313 $314 $123 $196 reversed $315 $-1 #
edge $-1 $316 -27.610960942064722 $317 27.610960942064722 $195 $318 forward 7 unknown #
face $-1 $319 $320 $46 $-1 $321 forward single #
loop $-1 $-1 $322 $124 #
plane-surface $-1 46.258735923337504 0 0 -1 0 0 0 0 1 forward_v I I I I #
coedge $-1 $323 $324 $325 $326 forward $125 $-1 #
coedge $-1 $325 $127 $322 $327 reversed $79 $-1 #
coedge $-1 $127 $325 $328 $329 reversed $79 $-1 #
coedge $-1 $330 $331 $127 $204 reversed $320 $-1 #
edge $-1 $332 -46.258735923337504 $333 46.258735923337504 $203 $334 forward 7 unknown #
face $-1 $335 $336 $47 $-1 $337 reversed single #
loop $-1 $-1 $338 $128 #
plane-surface $-1 0 33.862579539879292 -5.1797103058029066 0 0 1 1 0 0 forward_v I I I I #
coedge $-1 $339 $340 $209 $341 forward $129 $-1 #
coedge $-1 $342 $131 $208 $341 reversed $82 $-1 #
coedge $-1 $131 $342 $343 $344 reversed $82 $-1 #
coedge $-1 $338 $345 $131 $212 reversed $206 $-1 #
edge $-1 $346 -46.258735923337504 $347 46.258735923337504 $211 $348 forward 7 unknown #
face $-1 $349 $350 $48 $-1 $351 reversed single #
loop $-1 $-1 $352 $132 #
plane-surface $-1 -93.908757152652242 -8.9536037144534681 80.93520609194816 0 -1 0 0.51503808176128008 0 -0.85716729658548041 forward_v I I I I #
coedge $-1 $353 $354 $355 $356 reversed $133 $-1 #
coedge $-1 $218 $135 $357 $358 reversed $85 $-1 #
coedge $-1 $135 $217 $353 $359 reversed $85 $-1 #
coedge $-1 $355 $360 $135 $220 forward $361 $-1 #
edge $-1 $362 0.69564265298861727 $363 15.735428612713633 $219 $364 forward 7 unknown #
loop $-1 $-1 $226 $136 #
plane-surface $-1 -46.258735923337511 -12.030663730444523 1.6322548622104449 -0.51503808176128008 0 0.85716729658548041 0.85716729658548041 0 0.51503808176128008 forward_v I I I I #
loop $-1 $-1 $365 $87 #
coedge $-1 $224 $224 $225 $366 reversed $137 $-1 #
coedge $-1 $225 $225 $224 $366 forward $139 $-1 #
coedge $-1 $226 $226 $140 $227 forward $221 $-1 #
edge $-1 $367 0 $367 6.2831853071796004 $226 $368 forward 7 unknown #
loop $-1 $-1 $233 $141 #
plane-surface $-1 -46.258735923337511 -12.030663730444523 1.6322548622104449 -0.51503808176128008 0 0.85716729658548041 0.85716729658548041 0 0.51503808176128008 forward_v I I I I #
loop $-1 $-1 $369 $90 #
coedge $-1 $231 $231 $232 $370 reversed $142 $-1 #
coedge $-1 $232 $232 $231 $370 forward $144 $-1 #
coedge $-1 $233 $233 $145 $234 forward $228 $-1 #
edge $-1 $371 0 $371 6.2831853071796004 $233 $372 forward 7 unknown #
loop $-1 $-1 $240 $146 #
plane-surface $-1 -46.258735923337511 -12.030663730444523 1.6322548622104449 -0.51503808176128008 0 0.85716729658548041 0.85716729658548041 0 0.51503808176128008 forward_v I I I I #
loop $-1 $-1 $373 $93 #
coedge $-1 $238 $238 $239 $374 reversed $147 $-1 #
coedge $-1 $239 $239 $238 $374 forward $149 $-1 #
coedge $-1 $240 $240 $150 $241 forward $235 $-1 #
edge $-1 $375 0 $375 6.2831853071796004 $240 $376 forward 7 unknown #
face $-1 $377 $378 $52 $-1 $379 forward single #
loop $-1 $-1 $380 $151 #
plane-surface $-1 -93.908757152652242 6.1541200319821145 80.93520609194816 0 -1 0 0.51503808176128008 0 -0.85716729658548041 forward_v I I I I #
coedge $-1 $381 $382 $383 $384 reversed $152 $-1 #
coedge $-1 $247 $154 $385 $386 reversed $97 $-1 #
coedge $-1 $154 $246 $381 $387 reversed $97 $-1 #
coedge $-1 $383 $388 $154 $249 forward $378 $-1 #
edge $-1 $389 0.69564265298861727 $390 15.735428612713633 $248 $391 forward 7 unknown #
loop $-1 $-1 $255 $155 #
plane-surface $-1 -46.258735923337511 3.0770600159910586 1.6322548622104449 -0.51503808176128008 0 0.85716729658548041 0.85716729658548041 0 0.51503808176128008 forward_v I I I I #
loop $-1 $-1 $392 $99 #
coedge $-1 $253 $253 $254 $393 reversed $156 $-1 #
coedge $-1 $254 $254 $253 $393 forward $158 $-1 #
coedge $-1 $255 $255 $159 $256 forward $250 $-1 #
edge $-1 $394 0 $394 6.2831853071796004 $255 $395 forward 7 unknown #
loop $-1 $-1 $262 $160 #
plane-surface $-1 -46.258735923337511 3.0770600159910586 1.6322548622104449 -0.51503808176128008 0 0.85716729658548041 0.85716729658548041 0 0.51503808176128008 forward_v I I I I #
loop $-1 $-1 $396 $102 #
coedge $-1 $260 $260 $261 $397 reversed $161 $-1 #
coedge $-1 $261 $261 $260 $397 forward $163 $-1 #
coedge $-1 $262 $262 $164 $263 forward $257 $-1 #
edge $-1 $398 0 $398 6.2831853071796004 $262 $399 forward 7 unknown #
loop $-1 $-1 $269 $165 #
plane-surface $-1 -46.258735923337511 3.0770600159910586 1.6322548622104449 -0.51503808176128008 0 0.85716729658548041 0.85716729658548041 0 0.51503808176128008 forward_v I I I I #
loop $-1 $-1 $400 $105 #
coedge $-1 $267 $267 $268 $401 reversed $166 $-1 #
coedge $-1 $268 $268 $267 $401 forward $168 $-1 #
coedge $-1 $269 $269 $169 $270 forward $264 $-1 #
edge $-1 $402 0 $402 6.2831853071796004 $269 $403 forward 7 unknown #
face $-1 $404 $405 $56 $-1 $406 forward single #
loop $-1 $-1 $407 $170 #
plane-surface $-1 28.049403304202762 -6.2356441502119448 130.72608776052382 0 1 0 0.6018150307709319 0 0.79863550430605224 forward_v I I I I #
coedge $-1 $408 $409 $410 $411 reversed $171 $-1 #
coedge $-1 $276 $173 $412 $413 reversed $109 $-1 #
coedge $-1 $173 $275 $408 $414 reversed $109 $-1 #
coedge $-1 $410 $415 $173 $278 forward $405 $-1 #
edge $-1 $416 -32.234034271236126 $417 -19.614999009325469 $277 $418 forward 7 unknown #
loop $-1 $-1 $284 $174 #
plane-surface $-1 -27.629001862052782 -2.6717634201983316 56.838349975133539 0.6018150307709319 0 0.79863550430605224 0.79863550430605224 0 -0.6018150307709319 forward_v I I I I #
loop $-1 $-1 $419 $111 #
coedge $-1 $282 $282 $283 $420 reversed $175 $-1 #
coedge $-1 $283 $283 $282 $420 forward $177 $-1 #
coedge $-1 $284 $284 $178 $285 forward $279 $-1 #
edge $-1 $421 0 $421 6.2831853071796004 $284 $422 forward 7 unknown #
loop $-1 $-1 $291 $179 #
plane-surface $-1 -27.629001862052782 -2.6717634201983316 56.838349975133539 0.6018150307709319 0 0.79863550430605224 0.79863550430605224 0 -0.6018150307709319 forward_v I I I I #
loop $-1 $-1 $423 $114 #
coedge $-1 $289 $289 $290 $424 reversed $180 $-1 #
coedge $-1 $290 $290 $289 $424 forward $182 $-1 #
coedge $-1 $291 $291 $183 $292 forward $286 $-1 #
edge $-1 $425 0 $425 6.2831853071796004 $291 $426 forward 7 unknown #
loop $-1 $-1 $298 $184 #
plane-surface $-1 -27.629001862052782 -2.6717634201983316 56.838349975133539 0.6018150307709319 0 0.79863550430605224 0.79863550430605224 0 -0.6018150307709319 forward_v I I I I #
loop $-1 $-1 $427 $117 #
coedge $-1 $296 $296 $297 $428 reversed $185 $-1 #
coedge $-1 $297 $297 $296 $428 forward $187 $-1 #
coedge $-1 $298 $298 $188 $299 forward $293 $-1 #
edge $-1 $429 0 $429 6.2831853071796004 $298 $430 forward 7 unknown #
face $-1 $431 $432 $45 $-1 $433 reversed single #
loop $-1 $-1 $434 $189 #
plane-surface $-1 -46.258735923337504 0 0 1 0 0 0 0 -1 forward_v I I I I #
coedge $-1 $311 $435 $313 $436 reversed $190 $-1 #
coedge $-1 $437 $192 $435 $438 forward $121 $-1 #
coedge $-1 $192 $437 $439 $440 forward $121 $-1 #
coedge $-1 $314 $313 $192 $307 reversed $315 $-1 #
edge $-1 $441 -27.610960942064722 $442 27.610960942064722 $306 $443 forward 7 unknown #
coedge $-1 $194 $193 $444 $445 forward $76 $-1 #
coedge $-1 $446 $447 $193 $310 reversed $432 $-1 #
edge $-1 $317 -46.258735923337504 $448 46.258735923337504 $309 $449 forward 7 unknown #
coedge $-1 $450 $303 $194 $312 reversed $190 $-1 #
edge $-1 $451 -46.258735923337504 $316 46.258735923337504 $311 $452 forward 7 unknown #
coedge $-1 $306 $195 $303 $436 forward $315 $-1 #
coedge $-1 $195 $306 $446 $453 reversed $315 $-1 #
loop $-1 $-1 $313 $431 #
vertex $-1 $196 $454 #
vertex $-1 $196 $455 #
straight-curve $-1 46.258735923337504 0 10.669070127624082 0 1 0 I I #
face $-1 $456 $457 $46 $-1 $458 reversed single #
loop $-1 $-1 $331 $197 #
plane-surface $-1 0 -33.862579539879292 -5.1797103058029066 0 0 1 1 0 0 forward_v I I I I #
coedge $-1 $459 $460 $201 $327 forward $198 $-1 #
coedge $-1 $461 $200 $460 $462 forward $125 $-1 #
coedge $-1 $200 $461 $463 $464 forward $125 $-1 #
coedge $-1 $202 $201 $200 $326 reversed $79 $-1 #
edge $-1 $465 -46.258735923337504 $466 46.258735923337504 $200 $467 forward 7 unknown #
edge $-1 $466 -10.669070127624082 $333 -5.1797103058029066 $322 $468 forward 7 unknown #
coedge $-1 $463 $469 $202 $329 forward $470 $-1 #
edge $-1 $332 5.1797103058029066 $465 10.669070127624082 $328 $471 forward 7 unknown #
coedge $-1 $472 $203 $469 $473 forward $320 $-1 #
coedge $-1 $203 $472 $459 $474 forward $320 $-1 #
vertex $-1 $329 $475 #
vertex $-1 $474 $476 #
straight-curve $-1 0 -27.610960942064722 -5.1797103058029066 1 0 0 I I #
face $-1 $477 $478 $47 $-1 $479 reversed single #
loop $-1 $-1 $480 $205 #
plane-surface $-1 0 40.114198137693862 -7.9243902167134941 0 -1 0 0 0 -1 forward_v I I I I #
coedge $-1 $481 $211 $482 $483 forward $206 $-1 #
coedge $-1 $484 $208 $345 $485 reversed $129 $-1 #
coedge $-1 $208 $484 $486 $487 reversed $129 $-1 #
edge $-1 $488 -10.669070127624082 $347 -5.1797103058029066 $208 $489 forward 7 unknown #
coedge $-1 $210 $209 $490 $491 reversed $82 $-1 #
coedge $-1 $492 $482 $210 $344 forward $493 $-1 #
edge $-1 $346 5.1797103058029066 $494 10.669070127624082 $343 $495 forward 7 unknown #
coedge $-1 $211 $481 $339 $485 forward $206 $-1 #
vertex $-1 $344 $496 #
vertex $-1 $485 $497 #
straight-curve $-1 0 27.610960942064722 -5.1797103058029066 -1 0 0 I I #
face $-1 $-1 $361 $48 $-1 $498 forward single #
loop $-1 $-1 $499 $213 #
plane-surface $-1 -46.258735923337504 0 0 1 0 0 0 0 -1 forward_v I I I I #
coedge $-1 $500 $501 $502 $503 reversed $214 $-1 #
coedge $-1 $504 $216 $218 $359 forward $133 $-1 #
coedge $-1 $216 $504 $500 $505 forward $133 $-1 #
coedge $-1 $502 $219 $216 $356 forward $361 $-1 #
edge $-1 $363 -9.0923918812133167 $506 -2.9382718492312065 $355 $507 forward 7 unknown #
coedge $-1 $508 $509 $217 $358 forward $350 $-1 #
edge $-1 $510 -38.835348183763628 $362 -29.798532918349999 $357 $511 forward 7 unknown #
edge $-1 $363 -17.545916671851455 $510 -8.2634070795339233e-015 $218 $512 forward 7 unknown #
coedge $-1 $219 $502 $508 $513 forward $361 $-1 #
loop $-1 $-1 $502 $349 #
vertex $-1 $358 $514 #
vertex $-1 $220 $515 #
straight-curve $-1 -46.954378576326121 -15.107723746435578 10.669070127624082 1 0 0 I I #
coedge $-1 $365 $365 $-1 $516 reversed $223 $-1 #
edge $-1 $517 0 $517 6.2831853071796004 $224 $518 forward 7 unknown #
vertex $-1 $227 $519 #
ellipse-curve $-1 -38.738842943475007 -13.876899740039157 6.1506624949172615 -0.51503808176128008 0 0.85716729658548041 0.4285836482927402 0 0.25751904088064004 1 I I #
coedge $-1 $369 $369 $-1 $520 reversed $230 $-1 #
edge $-1 $521 0 $521 6.2831853071796004 $231 $522 forward 7 unknown #
vertex $-1 $234 $523 #
ellipse-curve $-1 -38.738842943475007 -12.030663730444523 6.1506624949172615 -0.51503808176128008 0 0.85716729658548041 0.4285836482927402 0 0.25751904088064004 1 I I #
coedge $-1 $373 $373 $-1 $524 reversed $237 $-1 #
edge $-1 $525 0 $525 6.2831853071796004 $238 $526 forward 7 unknown #
vertex $-1 $241 $527 #
ellipse-curve $-1 -38.738842943475007 -10.184427720849889 6.1506624949172615 -0.51503808176128008 0 0.85716729658548041 0.4285836482927402 0 0.25751904088064004 1 I I #
face $-1 $-1 $528 $52 $-1 $529 reversed single #
loop $-1 $-1 $248 $242 #
plane-surface $-1 0 0 10.669070127624082 0 0 1 1 0 0 forward_v I I I I #
coedge $-1 $530 $531 $532 $533 reversed $243 $-1 #
coedge $-1 $534 $245 $247 $387 forward $152 $-1 #
coedge $-1 $245 $534 $530 $535 forward $152 $-1 #
coedge $-1 $532 $248 $245 $384 forward $378 $-1 #
edge $-1 $390 -1.5385300079955266 $536 4.6155900239865852 $383 $537 forward 7 unknown #
coedge $-1 $538 $539 $246 $386 forward $528 $-1 #
edge $-1 $540 -38.835348183763628 $389 -29.798532918349999 $385 $541 forward 7 unknown #
edge $-1 $390 -17.545916671851455 $540 -8.2634070795339233e-015 $247 $542 forward 7 unknown #
coedge $-1 $248 $532 $538 $543 forward $378 $-1 #
vertex $-1 $249 $544 #
vertex $-1 $249 $545 #
straight-curve $-1 -46.954378576326121 2.6645352591003757e-015 10.669070127624082 1 0 0 I I #
coedge $-1 $392 $392 $-1 $546 reversed $252 $-1 #
edge $-1 $547 0 $547 6.2831853071796004 $253 $548 forward 7 unknown #
vertex $-1 $256 $549 #
ellipse-curve $-1 -38.738842943475007 1.2308240063964249 6.1506624949172615 -0.51503808176128008 0 0.85716729658548041 0.4285836482927402 0 0.25751904088064004 1 I I #
coedge $-1 $396 $396 $-1 $550 reversed $259 $-1 #
edge $-1 $551 0 $551 6.2831853071796004 $260 $552 forward 7 unknown #
vertex $-1 $263 $553 #
ellipse-curve $-1 -38.738842943475007 3.0770600159910586 6.1506624949172615 -0.51503808176128008 0 0.85716729658548041 0.4285836482927402 0 0.25751904088064004 1 I I #
coedge $-1 $400 $400 $-1 $554 reversed $266 $-1 #
edge $-1 $555 0 $555 6.2831853071796004 $267 $556 forward 7 unknown #
vertex $-1 $270 $557 #
ellipse-curve $-1 -38.738842943475007 4.9232960255856923 6.1506624949172615 -0.51503808176128008 0 0.85716729658548041 0.4285836482927402 0 0.25751904088064004 1 I I #
face $-1 $-1 $558 $56 $-1 $559 reversed single #
loop $-1 $-1 $277 $271 #
plane-surface $-1 0 0 10.669070127624082 0 0 1 1 0 0 forward_v I I I I #
coedge $-1 $560 $561 $562 $563 reversed $272 $-1 #
coedge $-1 $564 $274 $276 $414 forward $171 $-1 #
coedge $-1 $274 $564 $560 $565 forward $171 $-1 #
coedge $-1 $562 $277 $274 $411 forward $405 $-1 #
edge $-1 $417 -2.2279990199144475 $566 4.8997624401127791 $410 $567 forward 7 unknown #
coedge $-1 $568 $569 $275 $413 forward $558 $-1 #
edge $-1 $570 -64.203099071383917 $416 -54.693973752637831 $412 $571 forward 7 unknown #
edge $-1 $417 76.716727710117326 $570 92.517471846675022 $276 $572 forward 7 unknown #
coedge $-1 $277 $562 $568 $573 forward $405 $-1 #
vertex $-1 $413 $574 #
vertex $-1 $278 $575 #
straight-curve $-1 14.024701652101381 0.8921173098152817 10.669070127624082 -1 0 0 I I #
coedge $-1 $419 $419 $-1 $576 reversed $281 $-1 #
edge $-1 $577 0 $577 6.2831853071796004 $282 $578 forward 7 unknown #
vertex $-1 $285 $579 #
ellipse-curve $-1 39.949218292382177 -4.8100918582064978 5.9145074682510383 0.6018150307709319 0 0.79863550430605224 0.39931775215302612 0 -0.30090751538546595 1 I I #
coedge $-1 $423 $423 $-1 $580 reversed $288 $-1 #
edge $-1 $581 0 $581 6.2831853071796004 $289 $582 forward 7 unknown #
vertex $-1 $292 $583 #
ellipse-curve $-1 39.949218292382177 -2.6717634201983316 5.9145074682510383 0.6018150307709319 0 0.79863550430605224 0.39931775215302612 0 -0.30090751538546595 1 I I #
coedge $-1 $427 $427 $-1 $584 reversed $295 $-1 #
edge $-1 $585 0 $585 6.2831853071796004 $296 $586 forward 7 unknown #
vertex $-1 $299 $587 #
ellipse-curve $-1 39.949218292382177 -0.53343498219016539 5.9145074682510383 0.6018150307709319 0 0.79863550430605224 0.39931775215302612 0 -0.30090751538546595 1 I I #
face $-1 $-1 $315 $45 $-1 $588 reversed single #
loop $-1 $-1 $447 $300 #
plane-surface $-1 0 27.610960942064722 0 0 -1 0 0 0 -1 forward_v I I I I #
coedge $-1 $589 $444 $447 $590 forward $301 $-1 #
coedge $-1 $303 $450 $304 $438 reversed $190 $-1 #
edge $-1 $316 -10.669070127624082 $442 10.669070127624082 $313 $591 forward 7 unknown #
coedge $-1 $305 $304 $589 $592 forward $121 $-1 #
edge $-1 $442 -46.258735923337504 $593 46.258735923337504 $435 $594 forward 7 unknown #
coedge $-1 $447 $446 $305 $440 reversed $432 $-1 #
edge $-1 $595 -46.258735923337504 $441 46.258735923337504 $439 $596 forward 7 unknown #
vertex $-1 $307 $597 #
vertex $-1 $436 $598 #
straight-curve $-1 46.258735923337504 0 -10.669070127624082 0 -1 0 I I #
coedge $-1 $434 $599 $308 $445 reversed $301 $-1 #
edge $-1 $448 -27.610960942064722 $451 27.610960942064722 $444 $600 forward 7 unknown #
coedge $-1 $439 $309 $314 $453 forward $432 $-1 #
coedge $-1 $309 $439 $434 $590 reversed $432 $-1 #
vertex $-1 $310 $601 #
straight-curve $-1 0 27.610960942064722 10.669070127624082 -1 0 0 I I #
coedge $-1 $435 $311 $599 $602 forward $190 $-1 #
vertex $-1 $445 $603 #
straight-curve $-1 0 -27.610960942064722 10.669070127624082 1 0 0 I I #
edge $-1 $317 -10.669070127624082 $441 10.669070127624082 $314 $604 forward 7 unknown #
point $-1 46.258735923337504 -27.610960942064722 10.669070127624082 #
point $-1 46.258735923337504 27.610960942064722 10.669070127624082 #
face $-1 $-1 $470 $46 $-1 $605 reversed single #
loop $-1 $-1 $606 $319 #
plane-surface $-1 0 -40.114198137693862 -7.9243902167134941 0 1 0 0 0 1 forward_v I I I I #
coedge $-1 $607 $322 $331 $474 reversed $198 $-1 #
coedge $-1 $322 $607 $323 $462 reversed $198 $-1 #
coedge $-1 $324 $323 $608 $609 forward $125 $-1 #
edge $-1 $466 27.610960942064722 $610 40.114198137693862 $460 $611 forward 7 unknown #
coedge $-1 $612 $328 $324 $464 reversed $470 $-1 #
edge $-1 $613 -40.114198137693862 $465 -27.610960942064722 $463 $614 forward 7 unknown #
vertex $-1 $329 $615 #
vertex $-1 $462 $616 #
straight-curve $-1 0 -27.610960942064722 -10.669070127624082 1 0 0 I I #
straight-curve $-1 46.258735923337504 -27.610960942064722 0 0 0 1 I I #
coedge $-1 $328 $612 $330 $473 reversed $470 $-1 #
loop $-1 $-1 $328 $456 #
straight-curve $-1 -46.258735923337504 -27.610960942064722 0 0 0 -1 I I #
coedge $-1 $331 $330 $617 $618 forward $320 $-1 #
edge $-1 $332 -6.25161859781457 $619 6.25161859781457 $469 $620 forward 7 unknown #
edge $-1 $621 -6.25161859781457 $333 6.25161859781457 $459 $622 forward 7 unknown #
point $-1 -46.258735923337504 -27.610960942064722 -5.1797103058029066 #
point $-1 46.258735923337504 -27.610960942064722 -5.1797103058029066 #
face $-1 $-1 $493 $47 $-1 $623 reversed single #
loop $-1 $-1 $490 $335 #
plane-surface $-1 0 0 -10.669070127624082 0 0 1 1 0 0 forward_v I I I I #
coedge $-1 $624 $625 $626 $627 forward $336 $-1 #
coedge $-1 $345 $338 $625 $628 forward $206 $-1 #
coedge $-1 $343 $626 $338 $483 reversed $493 $-1 #
edge $-1 $346 -6.25161859781457 $629 6.25161859781457 $482 $630 forward 7 unknown #
coedge $-1 $340 $339 $631 $632 forward $129 $-1 #
edge $-1 $633 -6.25161859781457 $347 6.25161859781457 $339 $634 forward 7 unknown #
coedge $-1 $635 $490 $340 $487 forward $478 $-1 #
edge $-1 $488 -6.25161859781457 $636 6.25161859781457 $340 $637 forward 7 unknown #
vertex $-1 $487 $638 #
straight-curve $-1 -46.258735923337504 27.610960942064722 0 0 0 1 I I #
coedge $-1 $486 $639 $342 $491 forward $478 $-1 #
edge $-1 $494 -46.258735923337504 $488 46.258735923337504 $490 $640 forward 7 unknown #
coedge $-1 $626 $343 $639 $641 reversed $493 $-1 #
loop $-1 $-1 $343 $477 #
vertex $-1 $344 $642 #
straight-curve $-1 46.258735923337504 27.610960942064722 0 0 0 -1 I I #
point $-1 46.258735923337504 27.610960942064722 -5.1797103058029066 #
point $-1 -46.258735923337504 27.610960942064722 -5.1797103058029066 #
plane-surface $-1 0 0 10.669070127624082 0 0 1 1 0 0 forward_v I I I I #
coedge $-1 $509 $508 $501 $643 forward $350 $-1 #
coedge $-1 $501 $352 $354 $505 reversed $214 $-1 #
coedge $-1 $352 $500 $499 $643 reversed $214 $-1 #
coedge $-1 $360 $355 $352 $503 forward $361 $-1 #
edge $-1 $506 -15.735428612713633 $644 -0.69564265298861727 $502 $645 forward 7 unknown #
coedge $-1 $354 $353 $509 $646 reversed $133 $-1 #
edge $-1 $647 8.2634070795339233e-015 $506 17.545916671851455 $500 $648 forward 7 unknown #
vertex $-1 $356 $649 #
straight-curve $-1 -31.218949963612491 -6.0153318652222616 10.669070127624082 0 1 0 I I #
coedge $-1 $499 $357 $360 $513 reversed $350 $-1 #
coedge $-1 $357 $499 $504 $646 forward $350 $-1 #
vertex $-1 $358 $650 #
straight-curve $-1 -46.258735923337504 -15.107723746435578 40.46760304597408 0 0 1 I I #
straight-curve $-1 -46.258735923337511 -15.107723746435578 1.6322548622104449 -0.85716729658548041 0 -0.51503808176128008 I I #
edge $-1 $644 8.9536037144534681 $362 15.107723746435578 $508 $651 forward 7 unknown #
point $-1 -46.258735923337504 -15.107723746435578 10.669070127624082 #
point $-1 -31.218949963612488 -15.107723746435578 10.669070127624082 #
edge $-1 $652 1 $652 0 $365 $-1 forward 7 unknown #
vertex $-1 $366 $653 #
ellipse-curve $-1 -37.918062399865541 -13.876899740039157 4.7846543014070662 -0.51503808176128008 0 0.85716729658548041 0.4285836482927402 0 0.25751904088064004 1 I I #
point $-1 -38.31025929518227 -13.876899740039157 6.4081815357979126 #
edge $-1 $654 1 $654 0 $369 $-1 forward 7 unknown #
vertex $-1 $370 $655 #
ellipse-curve $-1 -37.918062399865541 -12.030663730444523 4.7846543014070662 -0.51503808176128008 0 0.85716729658548041 0.4285836482927402 0 0.25751904088064004 1 I I #
point $-1 -38.31025929518227 -12.030663730444523 6.4081815357979126 #
edge $-1 $656 1 $656 0 $373 $-1 forward 7 unknown #
vertex $-1 $374 $657 #
ellipse-curve $-1 -37.918062399865541 -10.184427720849889 4.7846543014070662 -0.51503808176128008 0 0.85716729658548041 0.4285836482927402 0 0.25751904088064004 1 I I #
point $-1 -38.31025929518227 -10.184427720849889 6.4081815357979126 #
loop $-1 $-1 $385 $377 #
plane-surface $-1 -46.258735923337504 0 0 1 0 0 0 0 -1 forward_v I I I I #
coedge $-1 $531 $380 $382 $535 reversed $243 $-1 #
coedge $-1 $380 $530 $658 $659 reversed $243 $-1 #
coedge $-1 $388 $383 $380 $533 forward $378 $-1 #
edge $-1 $536 -15.735428612713633 $660 -0.69564265298861727 $532 $661 forward 7 unknown #
coedge $-1 $382 $381 $539 $662 reversed $152 $-1 #
edge $-1 $663 8.2634070795339233e-015 $536 17.545916671851455 $530 $664 forward 7 unknown #
vertex $-1 $384 $665 #
straight-curve $-1 -31.218949963612491 1.5385300079955293 10.669070127624082 0 1 0 I I #
coedge $-1 $658 $385 $388 $543 reversed $528 $-1 #
coedge $-1 $385 $658 $534 $662 forward $528 $-1 #
vertex $-1 $386 $666 #
straight-curve $-1 -46.258735923337504 2.6645352591003757e-015 40.46760304597408 0 0 1 I I #
straight-curve $-1 -46.258735923337511 2.6645352591003757e-015 1.6322548622104449 -0.85716729658548041 0 -0.51503808176128008 I I #
edge $-1 $660 -6.1541200319821145 $389 -2.6645352591003757e-015 $538 $667 forward 7 unknown #
point $-1 -46.258735923337504 2.6645352591003757e-015 10.669070127624082 #
point $-1 -31.218949963612488 2.6645352591003757e-015 10.669070127624082 #
edge $-1 $668 1 $668 0 $392 $-1 forward 7 unknown #
vertex $-1 $393 $669 #
ellipse-curve $-1 -37.918062399865541 1.2308240063964249 4.7846543014070662 -0.51503808176128008 0 0.85716729658548041 0.4285836482927402 0 0.25751904088064004 1 I I #
point $-1 -38.31025929518227 1.2308240063964249 6.4081815357979126 #
edge $-1 $670 1 $670 0 $396 $-1 forward 7 unknown #
vertex $-1 $397 $671 #
ellipse-curve $-1 -37.918062399865541 3.0770600159910586 4.7846543014070662 -0.51503808176128008 0 0.85716729658548041 0.4285836482927402 0 0.25751904088064004 1 I I #
point $-1 -38.31025929518227 3.0770600159910586 6.4081815357979126 #
edge $-1 $672 1 $672 0 $400 $-1 forward 7 unknown #
vertex $-1 $401 $673 #
ellipse-curve $-1 -37.918062399865541 4.9232960255856923 4.7846543014070662 -0.51503808176128008 0 0.85716729658548041 0.4285836482927402 0 0.25751904088064004 1 I I #
point $-1 -38.31025929518227 4.9232960255856923 6.4081815357979126 #
loop $-1 $-1 $412 $404 #
plane-surface $-1 46.258735923337504 0 0 -1 0 0 0 0 1 forward_v I I I I #
coedge $-1 $561 $407 $409 $565 reversed $272 $-1 #
coedge $-1 $407 $560 $674 $675 reversed $272 $-1 #
coedge $-1 $415 $410 $407 $563 forward $405 $-1 #
edge $-1 $566 19.614999009325469 $676 32.234034271236126 $562 $677 forward 7 unknown #
coedge $-1 $409 $408 $569 $678 reversed $171 $-1 #
edge $-1 $679 -92.517471846675022 $566 -76.716727710117326 $560 $680 forward 7 unknown #
vertex $-1 $411 $681 #
straight-curve $-1 33.639700661426865 -1.3358817100991658 10.669070127624078 0 -1 0 I I #
coedge $-1 $674 $412 $415 $573 reversed $558 $-1 #
coedge $-1 $412 $674 $564 $678 forward $558 $-1 #
vertex $-1 $413 $682 #
straight-curve $-1 46.258735923337504 0.8921173098152817 65.363043880261912 0 0 1 I I #
straight-curve $-1 -27.629001862052782 0.8921173098152817 56.838349975133539 0.79863550430605224 0 -0.6018150307709319 I I #
edge $-1 $676 -6.2356441502119448 $416 0.8921173098152817 $568 $683 forward 7 unknown #
point $-1 46.258735923337504 0.8921173098152817 10.669070127624082 #
point $-1 33.639700661426851 0.8921173098152817 10.669070127624089 #
edge $-1 $684 1 $684 0 $419 $-1 forward 7 unknown #
vertex $-1 $420 $685 #
ellipse-curve $-1 39.158476282820835 -4.8100918582064978 4.8651574000531363 0.6018150307709319 0 0.79863550430605224 0.39931775215302612 0 -0.30090751538546595 1 I I #
point $-1 40.348536044535201 -4.8100918582064978 5.6135999528655702 #
edge $-1 $686 1 $686 0 $423 $-1 forward 7 unknown #
vertex $-1 $424 $687 #
ellipse-curve $-1 39.158476282820835 -2.6717634201983316 4.8651574000531363 0.6018150307709319 0 0.79863550430605224 0.39931775215302612 0 -0.30090751538546595 1 I I #
point $-1 40.348536044535201 -2.6717634201983316 5.6135999528655702 #
edge $-1 $688 1 $688 0 $427 $-1 forward 7 unknown #
vertex $-1 $428 $689 #
ellipse-curve $-1 39.158476282820835 -0.53343498219016539 4.8651574000531363 0.6018150307709319 0 0.79863550430605224 0.39931775215302612 0 -0.30090751538546595 1 I I #
point $-1 40.348536044535201 -0.53343498219016539 5.6135999528655702 #
plane-surface $-1 46.258735923337504 0 0 -1 0 0 0 0 1 forward_v I I I I #
coedge $-1 $599 $434 $437 $592 reversed $301 $-1 #
edge $-1 $448 -10.669070127624082 $595 10.669070127624082 $447 $690 forward 7 unknown #
straight-curve $-1 46.258735923337504 -27.610960942064722 0 0 0 -1 I I #
edge $-1 $593 -27.610960942064722 $595 27.610960942064722 $589 $691 forward 7 unknown #
vertex $-1 $592 $692 #
straight-curve $-1 0 -27.610960942064722 -10.669070127624082 -1 0 0 I I #
vertex $-1 $440 $693 #
straight-curve $-1 0 27.610960942064722 -10.669070127624082 1 0 0 I I #
point $-1 46.258735923337504 27.610960942064722 -10.669070127624082 #
point $-1 46.258735923337504 -27.610960942064722 -10.669070127624082 #
coedge $-1 $444 $589 $450 $602 reversed $301 $-1 #
straight-curve $-1 -46.258735923337504 0 10.669070127624082 0 -1 0 I I #
point $-1 -46.258735923337504 27.610960942064722 10.669070127624082 #
edge $-1 $451 -10.669070127624082 $593 10.669070127624082 $599 $694 forward 7 unknown #
point $-1 -46.258735923337504 -27.610960942064722 10.669070127624082 #
straight-curve $-1 46.258735923337504 27.610960942064722 0 0 0 -1 I I #
plane-surface $-1 -46.258735923337504 0 0 1 0 0 0 0 -1 forward_v I I I I #
coedge $-1 $608 $617 $612 $695 forward $457 $-1 #
coedge $-1 $460 $459 $696 $697 forward $198 $-1 #
coedge $-1 $696 $606 $461 $609 reversed $457 $-1 #
edge $-1 $610 -46.258735923337504 $613 46.258735923337504 $608 $698 forward 7 unknown #
vertex $-1 $697 $699 #
straight-curve $-1 46.258735923337504 0 -10.669070127624082 0 -1 0 I I #
coedge $-1 $469 $463 $606 $695 reversed $470 $-1 #
vertex $-1 $464 $700 #
straight-curve $-1 -46.258735923337504 0 -10.669070127624082 0 1 0 I I #
point $-1 -46.258735923337504 -27.610960942064722 -10.669070127624082 #
point $-1 46.258735923337504 -27.610960942064722 -10.669070127624082 #
coedge $-1 $606 $696 $472 $618 reversed $457 $-1 #
edge $-1 $619 -46.258735923337504 $621 46.258735923337504 $617 $701 forward 7 unknown #
vertex $-1 $473 $702 #
straight-curve $-1 -46.258735923337504 -33.862579539879292 -5.1797103058029066 0 -1 0 I I #
vertex $-1 $474 $703 #
straight-curve $-1 46.258735923337504 -33.862579539879292 -5.1797103058029066 0 1 0 I I #
plane-surface $-1 46.258735923337504 0 0 -1 0 0 0 0 1 forward_v I I I I #
coedge $-1 $631 $480 $635 $704 reversed $336 $-1 #
coedge $-1 $480 $631 $481 $628 reversed $336 $-1 #
coedge $-1 $482 $492 $480 $627 reversed $493 $-1 #
edge $-1 $629 -2.7446799109105875 $705 2.7446799109105875 $626 $706 forward 7 unknown #
edge $-1 $629 -46.258735923337504 $633 46.258735923337504 $625 $707 forward 7 unknown #
vertex $-1 $483 $708 #
straight-curve $-1 46.258735923337504 33.862579539879292 -5.1797103058029066 0 1 0 I I #
coedge $-1 $625 $624 $484 $632 reversed $336 $-1 #
edge $-1 $633 -2.7446799109105875 $636 2.7446799109105875 $631 $709 forward 7 unknown #
vertex $-1 $628 $710 #
straight-curve $-1 -46.258735923337504 33.862579539879292 -5.1797103058029066 0 -1 0 I I #
coedge $-1 $639 $486 $624 $704 forward $478 $-1 #
vertex $-1 $704 $711 #
straight-curve $-1 -46.258735923337504 33.862579539879292 -10.669070127624082 0 1 0 I I #
point $-1 -46.258735923337504 27.610960942064722 -10.669070127624082 #
coedge $-1 $490 $635 $492 $641 forward $478 $-1 #
straight-curve $-1 0 27.610960942064722 -10.669070127624082 -1 0 0 I I #
edge $-1 $705 -40.114198137693862 $494 -27.610960942064722 $492 $712 forward 7 unknown #
point $-1 46.258735923337504 27.610960942064722 -10.669070127624082 #
edge $-1 $644 29.798532918349999 $647 38.835348183763628 $499 $713 forward 7 unknown #
vertex $-1 $513 $714 #
straight-curve $-1 -46.954378576326121 -8.9536037144534681 10.669070127624082 -1 0 0 I I #
edge $-1 $647 2.9382718492312065 $510 9.0923918812133167 $509 $715 forward 7 unknown #
vertex $-1 $646 $716 #
straight-curve $-1 -46.258735923337511 -8.9536037144534681 1.6322548622104449 0.85716729658548041 0 0.51503808176128008 I I #
point $-1 -31.218949963612488 -8.9536037144534681 10.669070127624082 #
point $-1 -46.258735923337504 -15.107723746435578 1.6322548622104491 #
straight-curve $-1 -46.258735923337504 0 10.669070127624082 0 -1 0 I I #
vertex $-1 $516 $717 #
point $-1 -37.489478751572804 -13.876899740039157 5.0421733422877066 #
vertex $-1 $520 $718 #
point $-1 -37.489478751572804 -12.030663730444523 5.0421733422877066 #
vertex $-1 $524 $719 #
point $-1 -37.489478751572804 -10.184427720849889 5.0421733422877066 #
coedge $-1 $539 $538 $531 $659 forward $528 $-1 #
edge $-1 $660 29.798532918349999 $663 38.835348183763628 $658 $720 forward 7 unknown #
vertex $-1 $543 $721 #
straight-curve $-1 -46.954378576326121 6.1541200319821145 10.669070127624082 -1 0 0 I I #
edge $-1 $663 -4.6155900239865852 $540 1.5385300079955266 $539 $722 forward 7 unknown #
vertex $-1 $662 $723 #
straight-curve $-1 -46.258735923337511 6.1541200319821145 1.6322548622104449 0.85716729658548041 0 0.51503808176128008 I I #
point $-1 -31.218949963612488 6.1541200319821145 10.669070127624082 #
point $-1 -46.258735923337504 2.6645352591003757e-015 1.6322548622104491 #
straight-curve $-1 -46.258735923337504 0 10.669070127624082 0 -1 0 I I #
vertex $-1 $546 $724 #
point $-1 -37.489478751572804 1.2308240063964249 5.0421733422877066 #
vertex $-1 $550 $725 #
point $-1 -37.489478751572804 3.0770600159910586 5.0421733422877066 #
vertex $-1 $554 $726 #
point $-1 -37.489478751572804 4.9232960255856923 5.0421733422877066 #
coedge $-1 $569 $568 $561 $675 forward $558 $-1 #
edge $-1 $676 54.693973752637831 $679 64.203099071383917 $674 $727 forward 7 unknown #
vertex $-1 $573 $728 #
straight-curve $-1 14.024701652101381 -6.2356441502119448 10.669070127624082 1 0 0 I I #
edge $-1 $679 -4.8997624401127791 $570 2.2279990199144475 $569 $729 forward 7 unknown #
vertex $-1 $678 $730 #
straight-curve $-1 -27.629001862052782 -6.2356441502119448 56.838349975133539 -0.79863550430605224 0 0.6018150307709319 I I #
point $-1 33.639700661426851 -6.2356441502119448 10.669070127624089 #
point $-1 46.258735923337504 0.8921173098152817 1.1599448088779951 #
straight-curve $-1 46.258735923337504 0 10.669070127624082 0 1 0 I I #
vertex $-1 $576 $731 #
point $-1 39.557794034973867 -4.8100918582064978 4.5642498846676709 #
vertex $-1 $580 $732 #
point $-1 39.557794034973867 -2.6717634201983316 4.5642498846676709 #
vertex $-1 $584 $733 #
point $-1 39.557794034973867 -0.53343498219016539 4.5642498846676709 #
straight-curve $-1 -46.258735923337504 27.610960942064722 0 0 0 -1 I I #
straight-curve $-1 -46.258735923337504 0 -10.669070127624082 0 1 0 I I #
point $-1 -46.258735923337504 -27.610960942064722 -10.669070127624082 #
point $-1 -46.258735923337504 27.610960942064722 -10.669070127624082 #
straight-curve $-1 -46.258735923337504 -27.610960942064722 0 0 0 -1 I I #
edge $-1 $619 -2.7446799109105875 $613 2.7446799109105875 $612 $734 forward 7 unknown #
coedge $-1 $617 $608 $607 $697 reversed $457 $-1 #
edge $-1 $621 -2.7446799109105875 $610 2.7446799109105875 $607 $735 forward 7 unknown #
straight-curve $-1 0 -40.114198137693862 -10.669070127624082 -1 0 0 I I #
point $-1 46.258735923337504 -40.114198137693862 -10.669070127624082 #
point $-1 -46.258735923337504 -40.114198137693862 -10.669070127624082 #
straight-curve $-1 0 -40.114198137693862 -5.1797103058029066 1 0 0 I I #
point $-1 -46.258735923337504 -40.114198137693862 -5.1797103058029066 #
point $-1 46.258735923337504 -40.114198137693862 -5.1797103058029066 #
edge $-1 $636 -46.258735923337504 $705 46.258735923337504 $624 $736 forward 7 unknown #
vertex $-1 $641 $737 #
straight-curve $-1 46.258735923337504 40.114198137693862 -7.9243902167134941 0 0 -1 I I #
straight-curve $-1 0 40.114198137693862 -5.1797103058029066 -1 0 0 I I #
point $-1 46.258735923337504 40.114198137693862 -5.1797103058029066 #
straight-curve $-1 -46.258735923337504 40.114198137693862 -7.9243902167134941 0 0 -1 I I #
point $-1 -46.258735923337504 40.114198137693862 -5.1797103058029066 #
point $-1 -46.258735923337504 40.114198137693862 -10.669070127624082 #
straight-curve $-1 46.258735923337504 0 -10.669070127624082 0 -1 0 I I #
straight-curve $-1 -46.258735923337504 -8.9536037144534681 40.46760304597408 0 0 -1 I I #
point $-1 -46.258735923337504 -8.9536037144534681 10.669070127624082 #
straight-curve $-1 -46.258735923337504 -6.0153318652222616 1.6322548622104511 0 -1 0 I I #
point $-1 -46.258735923337504 -8.9536037144534681 1.6322548622104491 #
point $-1 -37.660543358984903 -13.876899740039157 4.3560706531143261 #
point $-1 -37.660543358984903 -12.030663730444523 4.3560706531143261 #
point $-1 -37.660543358984903 -10.184427720849889 4.3560706531143261 #
straight-curve $-1 -46.258735923337504 6.1541200319821145 40.46760304597408 0 0 -1 I I #
point $-1 -46.258735923337504 6.1541200319821145 10.669070127624082 #
straight-curve $-1 -46.258735923337504 1.5385300079955293 1.6322548622104511 0 -1 0 I I #
point $-1 -46.258735923337504 6.1541200319821145 1.6322548622104491 #
point $-1 -37.660543358984903 1.2308240063964249 4.3560706531143261 #
point $-1 -37.660543358984903 3.0770600159910586 4.3560706531143261 #
point $-1 -37.660543358984903 4.9232960255856923 4.3560706531143261 #
straight-curve $-1 46.258735923337504 -6.2356441502119448 65.363043880261912 0 0 -1 I I #
point $-1 46.258735923337504 -6.2356441502119448 10.669070127624082 #
straight-curve $-1 46.258735923337504 -1.3358817100991658 1.1599448088779951 0 1 0 I I #
point $-1 46.258735923337504 -6.2356441502119448 1.1599448088779951 #
point $-1 38.857568767435374 -4.8100918582064978 4.4658396479001103 #
point $-1 38.857568767435374 -2.6717634201983316 4.4658396479001103 #
point $-1 38.857568767435374 -0.53343498219016539 4.4658396479001103 #
straight-curve $-1 -46.258735923337504 -40.114198137693862 -7.9243902167134941 0 0 -1 I I #
straight-curve $-1 46.258735923337504 -40.114198137693862 -7.9243902167134941 0 0 -1 I I #
straight-curve $-1 0 40.114198137693862 -10.669070127624082 1 0 0 I I #
point $-1 46.258735923337504 40.114198137693862 -10.669070127624082 #
End-of-ACIS-data 