500 0 13 0           
7 Unknown 11 ACIS 5.0 NT 24 Fri Mar 26 02:49:28 1999 
-1 9.9999999999999995e-007 1e-010 
body $-1 $13 $-1 $14 #
body $-1 $15 $-1 $16 #
body $-1 $17 $-1 $18 #
body $-1 $19 $-1 $20 #
body $-1 $21 $-1 $22 #
body $-1 $23 $-1 $24 #
body $-1 $25 $-1 $26 #
body $-1 $27 $-1 $28 #
body $-1 $29 $-1 $30 #
body $-1 $31 $-1 $32 #
body $-1 $33 $-1 $34 #
body $-1 $35 $-1 $36 #
body $-1 $37 $-1 $38 #
lump $-1 $-1 $39 $0 #
transform $-1 1 0 0 0 1 0 0 0 1 40.408948026978365 23.965057713964288 9.1027286082949157 1 rotate no_reflect no_shear #
lump $-1 $-1 $40 $1 #
transform $-1 1 0 0 0 1 0 0 0 1 40.408948026978365 23.965057713964288 9.1027286082949157 1 rotate no_reflect no_shear #
lump $-1 $-1 $41 $2 #
transform $-1 1 0 0 0 1 0 0 0 1 40.408948026978365 23.965057713964288 9.1027286082949157 1 rotate no_reflect no_shear #
lump $-1 $-1 $42 $3 #
transform $-1 1 0 0 0 1 0 0 0 1 40.408948026978365 23.965057713964288 9.1027286082949157 1 rotate no_reflect no_shear #
lump $-1 $-1 $43 $4 #
transform $-1 1 0 0 0 1 0 0 0 1 40.408948026978365 23.965057713964288 9.1027286082949157 1 rotate no_reflect no_shear #
lump $-1 $-1 $44 $5 #
transform $-1 1 0 0 0 1 0 0 0 1 40.408948026978365 23.965057713964288 9.1027286082949157 1 rotate no_reflect no_shear #
lump $-1 $-1 $45 $6 #
transform $-1 1 0 0 0 1 0 0 0 1 40.408948026978365 23.965057713964288 9.1027286082949157 1 rotate no_reflect no_shear #
lump $-1 $-1 $46 $7 #
transform $-1 1 0 0 0 1 0 0 0 1 40.408948026978365 23.965057713964288 9.1027286082949157 1 rotate no_reflect no_shear #
lump $-1 $-1 $47 $8 #
transform $-1 1 0 0 0 1 0 0 0 1 40.408948026978365 23.965057713964288 9.1027286082949157 1 rotate no_reflect no_shear #
lump $-1 $-1 $48 $9 #
transform $-1 1 0 0 0 1 0 0 0 1 40.408948026978365 23.965057713964288 9.1027286082949157 1 rotate no_reflect no_shear #
lump $-1 $-1 $49 $10 #
transform $-1 1 0 0 0 1 0 0 0 1 40.408948026978365 23.965057713964288 9.1027286082949157 1 rotate no_reflect no_shear #
lump $-1 $-1 $50 $11 #
transform $-1 1 0 0 0 1 0 0 0 1 40.408948026978365 23.965057713964288 9.1027286082949157 1 rotate no_reflect no_shear #
lump $-1 $-1 $51 $12 #
transform $-1 1 0 0 0 1 0 0 0 1 40.408948026978365 23.965057713964288 9.1027286082949157 1 rotate no_reflect no_shear #
shell $-1 $-1 $-1 $52 $-1 $13 #
shell $-1 $-1 $-1 $53 $-1 $15 #
shell $-1 $-1 $-1 $54 $-1 $17 #
shell $-1 $-1 $-1 $55 $-1 $19 #
shell $-1 $-1 $-1 $56 $-1 $21 #
shell $-1 $-1 $-1 $57 $-1 $23 #
shell $-1 $-1 $-1 $58 $-1 $25 #
shell $-1 $-1 $-1 $59 $-1 $27 #
shell $-1 $-1 $-1 $60 $-1 $29 #
shell $-1 $-1 $-1 $61 $-1 $31 #
shell $-1 $-1 $-1 $62 $-1 $33 #
shell $-1 $-1 $-1 $63 $-1 $35 #
shell $-1 $-1 $-1 $64 $-1 $37 #
face $-1 $65 $66 $39 $-1 $67 forward single #
face $-1 $68 $69 $40 $-1 $70 forward single #
face $-1 $71 $72 $41 $-1 $73 forward single #
face $-1 $74 $75 $42 $-1 $76 reversed single #
face $-1 $77 $78 $43 $-1 $79 forward single #
face $-1 $80 $81 $44 $-1 $82 reversed single #
face $-1 $83 $84 $45 $-1 $85 forward single #
face $-1 $86 $87 $46 $-1 $88 reversed single #
face $-1 $89 $90 $47 $-1 $91 forward single #
face $-1 $92 $93 $48 $-1 $94 forward single #
face $-1 $95 $96 $49 $-1 $97 reversed single #
face $-1 $98 $99 $50 $-1 $100 forward single #
face $-1 $101 $102 $51 $-1 $103 forward single #
face $-1 $104 $105 $39 $-1 $106 reversed single #
loop $-1 $-1 $107 $52 #
plane-surface $-1 0 0 9.1027286082949157 0 0 1 1 0 0 forward_v I I I I #
face $-1 $108 $109 $40 $-1 $110 reversed single #
loop $-1 $-1 $111 $53 #
plane-surface $-1 -35.352729120504584 0 3.4526263822568177 0 0 1 1 0 0 forward_v I I I I #
face $-1 $112 $113 $41 $-1 $114 reversed single #
loop $-1 $-1 $115 $54 #
plane-surface $-1 35.352729120504577 0 3.4526263822568177 0 0 1 1 0 0 forward_v I I I I #
face $-1 $116 $117 $42 $-1 $118 reversed single #
loop $-1 $-1 $119 $55 #
plane-surface $-1 -2.229068809235315 53.514114259158902 92.625654475370084 -1 0 0 0 0.75470958851134928 0.65605901945558964 forward_v I I I I #
face $-1 $120 $121 $43 $-1 $122 forward single #
loop $-1 $123 $124 $56 #
cone-surface $-1 -9.1638324657429138 19.701757379870557 4.7037847766083498 0 -0.75470958851134928 -0.65605901945558964 1.5 0 0 1 I I 0 1 1.5 forward I I I I #
face $-1 $125 $126 $44 $-1 $127 reversed single #
loop $-1 $-1 $128 $57 #
plane-surface $-1 16.098596122250505 53.514114259158902 92.625654475370084 -1 0 0 0 0.75470958851134928 0.65605901945558964 forward_v I I I I #
face $-1 $129 $130 $45 $-1 $131 forward single #
loop $-1 $132 $133 $58 #
cone-surface $-1 9.1638324657429067 19.701757379870557 4.7037847766083498 0 -0.75470958851134928 -0.65605901945558964 1.5 0 0 1 I I 0 1 1.5 forward I I I I #
face $-1 $134 $135 $46 $-1 $136 reversed single #
loop $-1 $-1 $137 $59 #
plane-surface $-1 -12.56084233859157 -70.320299123403899 71.076206902564991 1 0 0 0 0.57357644374324357 -0.81915203911291934 forward_v I I I I #
face $-1 $138 $139 $47 $-1 $140 forward single #
loop $-1 $141 $142 $60 #
cone-surface $-1 -8.9720302418511224 -19.99465707982398 5.6304836430861283 0 0.57357644374324357 -0.81915203911291934 1.5 0 0 1 I I 0 1 1.5 forward I I I I #
face $-1 $143 $144 $48 $-1 $145 forward single #
loop $-1 $146 $147 $61 #
cone-surface $-1 -3.5888120967404475 -19.99465707982398 5.6304836430861283 0 0.57357644374324357 -0.81915203911291934 1.5 0 0 1 I I 0 1 1.5 forward I I I I #
face $-1 $148 $149 $49 $-1 $150 reversed single #
loop $-1 $-1 $151 $62 #
plane-surface $-1 17.735667875439226 -70.320299123403899 71.076206902564991 1 0 0 0 0.57357644374324357 -0.81915203911291934 forward_v I I I I #
face $-1 $152 $153 $50 $-1 $154 forward single #
loop $-1 $155 $156 $63 #
cone-surface $-1 21.324479972179681 -19.99465707982398 5.6304836430861283 0 0.57357644374324357 -0.81915203911291934 1.5 0 0 1 I I 0 1 1.5 forward I I I I #
face $-1 $157 $158 $51 $-1 $159 forward single #
loop $-1 $160 $161 $64 #
cone-surface $-1 26.707698117290349 -19.99465707982398 5.6304836430861283 0 0.57357644374324357 -0.81915203911291934 1.5 0 0 1 I I 0 1 1.5 forward I I I I #
face $-1 $162 $163 $39 $-1 $164 reversed single #
loop $-1 $-1 $165 $65 #
plane-surface $-1 0 0 -9.1027286082949157 0 0 1 1 0 0 forward_v I I I I #
coedge $-1 $166 $167 $168 $169 forward $66 $-1 #
face $-1 $170 $171 $40 $-1 $172 reversed single #
loop $-1 $-1 $173 $68 #
plane-surface $-1 -35.352729120504584 0 -0.16018484705545877 0 0 1 1 0 0 forward_v I I I I #
coedge $-1 $174 $175 $176 $177 forward $69 $-1 #
face $-1 $178 $179 $41 $-1 $180 reversed single #
loop $-1 $-1 $181 $71 #
plane-surface $-1 35.352729120504577 0 -0.16018484705545877 0 0 1 1 0 0 forward_v I I I I #
coedge $-1 $182 $183 $184 $185 reversed $72 $-1 #
face $-1 $186 $187 $42 $-1 $188 reversed single #
loop $-1 $-1 $189 $74 #
plane-surface $-1 -9.1638324657429138 -7.4799268160757819 39.604344835747462 0 0.75470958851134928 0.65605901945558964 1 0 0 forward_v I I I I #
coedge $-1 $190 $191 $192 $193 reversed $75 $-1 #
face $-1 $-1 $194 $43 $-1 $195 forward single #
loop $-1 $196 $197 $77 #
cone-surface $-1 -9.1638324657429138 17.337592223446226 2.6486474125605444 0 -0.75470958851134928 -0.65605901945558964 0.75 0 0 1 I I -0.70710678118654757 0.70710678118654757 0.75 forward I I I I #
loop $-1 $-1 $198 $56 #
coedge $-1 $124 $124 $199 $200 reversed $78 $-1 #
face $-1 $201 $202 $44 $-1 $203 reversed single #
loop $-1 $-1 $204 $80 #
plane-surface $-1 9.1638324657429067 -7.4799268160757819 39.604344835747462 0 0.75470958851134928 0.65605901945558964 1 0 0 forward_v I I I I #
coedge $-1 $205 $206 $207 $208 reversed $81 $-1 #
face $-1 $-1 $209 $45 $-1 $210 forward single #
loop $-1 $211 $212 $83 #
cone-surface $-1 9.1638324657429067 17.337592223446226 2.6486474125605444 0 -0.75470958851134928 -0.65605901945558964 0.75 0 0 1 I I -0.70710678118654757 0.70710678118654757 0.75 forward I I I I #
loop $-1 $-1 $213 $58 #
coedge $-1 $133 $133 $214 $215 reversed $84 $-1 #
face $-1 $216 $217 $46 $-1 $218 reversed single #
loop $-1 $-1 $219 $86 #
plane-surface $-1 -6.280421169295785 -23.965057713964278 4.8740625531503809 0 -0.57357644374324357 0.81915203911291934 1 0 0 forward_v I I I I #
coedge $-1 $220 $221 $222 $223 reversed $87 $-1 #
face $-1 $-1 $224 $47 $-1 $225 forward single #
loop $-1 $226 $227 $89 #
cone-surface $-1 -8.9720302418511224 -18.613654553796373 3.6582076761149285 0 0.57357644374324357 -0.81915203911291934 0.75 0 0 1 I I -0.70710678118654757 0.70710678118654757 0.75 forward I I I I #
loop $-1 $-1 $228 $60 #
coedge $-1 $142 $142 $229 $230 reversed $90 $-1 #
face $-1 $-1 $231 $48 $-1 $232 forward single #
loop $-1 $233 $234 $92 #
cone-surface $-1 -3.5888120967404475 -18.613654553796373 3.6582076761149285 0 0.57357644374324357 -0.81915203911291934 0.75 0 0 1 I I -0.70710678118654757 0.70710678118654757 0.75 forward I I I I #
loop $-1 $-1 $235 $61 #
coedge $-1 $147 $147 $236 $237 reversed $93 $-1 #
face $-1 $238 $239 $49 $-1 $240 reversed single #
loop $-1 $-1 $241 $95 #
plane-surface $-1 24.016089044735011 -23.965057713964278 4.8740625531503809 0 -0.57357644374324357 0.81915203911291934 1 0 0 forward_v I I I I #
coedge $-1 $242 $243 $244 $245 reversed $96 $-1 #
face $-1 $-1 $246 $50 $-1 $247 forward single #
loop $-1 $248 $249 $98 #
cone-surface $-1 21.324479972179681 -18.613654553796373 3.6582076761149285 0 0.57357644374324357 -0.81915203911291934 0.75 0 0 1 I I -0.70710678118654757 0.70710678118654757 0.75 forward I I I I #
loop $-1 $-1 $250 $63 #
coedge $-1 $156 $156 $251 $252 reversed $99 $-1 #
face $-1 $-1 $253 $51 $-1 $254 forward single #
loop $-1 $255 $256 $101 #
cone-surface $-1 26.707698117290349 -18.613654553796373 3.6582076761149285 0 0.57357644374324357 -0.81915203911291934 0.75 0 0 1 I I -0.70710678118654757 0.70710678118654757 0.75 forward I I I I #
loop $-1 $-1 $257 $64 #
coedge $-1 $161 $161 $258 $259 reversed $102 $-1 #
face $-1 $260 $261 $39 $-1 $262 reversed single #
loop $-1 $-1 $263 $104 #
plane-surface $-1 0 -23.965057713964288 0 0 1 0 0 0 1 forward_v I I I I #
coedge $-1 $264 $265 $266 $267 forward $105 $-1 #
coedge $-1 $268 $107 $269 $270 forward $66 $-1 #
coedge $-1 $107 $268 $271 $272 forward $66 $-1 #
coedge $-1 $273 $274 $107 $169 reversed $275 $-1 #
edge $-1 $276 -23.965057713964288 $277 23.965057713964288 $168 $278 forward 7 unknown #
face $-1 $279 $280 $40 $-1 $281 reversed single #
loop $-1 $-1 $282 $108 #
plane-surface $-1 -30.296510214030807 0 1.6462207676006795 -1 0 0 0 0 1 forward_v I I I I #
coedge $-1 $283 $284 $285 $286 forward $109 $-1 #
coedge $-1 $287 $111 $288 $289 reversed $69 $-1 #
coedge $-1 $111 $287 $290 $291 reversed $69 $-1 #
coedge $-1 $282 $292 $111 $177 reversed $171 $-1 #
edge $-1 $293 -23.965057713964288 $294 23.965057713964288 $176 $295 forward 7 unknown #
face $-1 $296 $297 $41 $-1 $298 reversed single #
loop $-1 $-1 $299 $112 #
plane-surface $-1 30.296510214030796 0 1.6462207676006795 1 0 0 0 0 -1 forward_v I I I I #
coedge $-1 $300 $301 $302 $303 reversed $113 $-1 #
coedge $-1 $304 $115 $305 $306 reversed $72 $-1 #
coedge $-1 $115 $304 $307 $308 reversed $72 $-1 #
coedge $-1 $309 $310 $115 $185 forward $311 $-1 #
edge $-1 $312 -23.965057713964288 $313 23.965057713964288 $184 $314 forward 7 unknown #
face $-1 $315 $316 $42 $-1 $317 reversed single #
loop $-1 $-1 $318 $116 #
plane-surface $-1 -16.098596122250513 53.514114259158902 92.625654475370084 1 0 0 0 -0.75470958851134928 -0.65605901945558964 forward_v I I I I #
coedge $-1 $319 $320 $321 $322 reversed $117 $-1 #
coedge $-1 $191 $119 $323 $324 reversed $75 $-1 #
coedge $-1 $119 $190 $319 $325 reversed $75 $-1 #
coedge $-1 $321 $326 $119 $193 forward $316 $-1 #
edge $-1 $327 37.210098629390124 $328 42.881800093851055 $192 $329 forward 7 unknown #
loop $-1 $-1 $199 $120 #
plane-surface $-1 -9.1638324657429138 -7.4799268160757819 39.604344835747462 0 0.75470958851134928 0.65605901945558964 1 0 0 forward_v I I I I #
loop $-1 $-1 $330 $77 #
coedge $-1 $197 $197 $198 $331 reversed $121 $-1 #
coedge $-1 $198 $198 $197 $331 forward $123 $-1 #
coedge $-1 $199 $199 $124 $200 forward $194 $-1 #
edge $-1 $332 1.0865569335390771e-015 $332 6.2831853071796013 $199 $333 forward 7 unknown #
face $-1 $334 $335 $44 $-1 $336 forward single #
loop $-1 $-1 $337 $125 #
plane-surface $-1 2.2290688092353079 53.514114259158902 92.625654475370084 1 0 0 0 -0.75470958851134928 -0.65605901945558964 forward_v I I I I #
coedge $-1 $338 $339 $340 $341 reversed $126 $-1 #
coedge $-1 $206 $128 $342 $343 reversed $81 $-1 #
coedge $-1 $128 $205 $338 $344 reversed $81 $-1 #
coedge $-1 $340 $345 $128 $208 forward $346 $-1 #
edge $-1 $347 37.210098629390124 $348 42.881800093851055 $207 $349 forward 7 unknown #
loop $-1 $-1 $214 $129 #
plane-surface $-1 9.1638324657429067 -7.4799268160757819 39.604344835747462 0 0.75470958851134928 0.65605901945558964 1 0 0 forward_v I I I I #
loop $-1 $-1 $350 $83 #
coedge $-1 $212 $212 $213 $351 reversed $130 $-1 #
coedge $-1 $213 $213 $212 $351 forward $132 $-1 #
coedge $-1 $214 $214 $133 $215 forward $209 $-1 #
edge $-1 $352 1.0865569335390771e-015 $352 6.2831853071796013 $214 $353 forward 7 unknown #
face $-1 $354 $355 $46 $-1 $356 forward single #
loop $-1 $-1 $357 $134 #
plane-surface $-1 0 -70.320299123403899 71.076206902564991 -1 0 0 0 -0.57357644374324357 0.81915203911291934 forward_v I I I I #
coedge $-1 $358 $359 $360 $361 reversed $135 $-1 #
coedge $-1 $221 $137 $362 $363 reversed $87 $-1 #
coedge $-1 $137 $220 $358 $364 reversed $87 $-1 #
coedge $-1 $360 $365 $137 $223 forward $366 $-1 #
edge $-1 $367 26.435374842987578 $368 30.664040898132122 $222 $369 forward 7 unknown #
loop $-1 $-1 $229 $138 #
plane-surface $-1 -6.280421169295785 -23.965057713964278 4.8740625531503809 0 -0.57357644374324357 0.81915203911291934 1 0 0 forward_v I I I I #
loop $-1 $-1 $370 $89 #
coedge $-1 $227 $227 $228 $371 reversed $139 $-1 #
coedge $-1 $228 $228 $227 $371 forward $141 $-1 #
coedge $-1 $229 $229 $142 $230 forward $224 $-1 #
edge $-1 $372 1.4440326370371518e-016 $372 6.2831853071796004 $229 $373 forward 7 unknown #
loop $-1 $-1 $236 $143 #
plane-surface $-1 -6.280421169295785 -23.965057713964278 4.8740625531503809 0 -0.57357644374324357 0.81915203911291934 1 0 0 forward_v I I I I #
loop $-1 $-1 $374 $92 #
coedge $-1 $234 $234 $235 $375 reversed $144 $-1 #
coedge $-1 $235 $235 $234 $375 forward $146 $-1 #
coedge $-1 $236 $236 $147 $237 forward $231 $-1 #
edge $-1 $376 1.4440326370371518e-016 $376 6.2831853071796004 $236 $377 forward 7 unknown #
face $-1 $378 $379 $49 $-1 $380 reversed single #
loop $-1 $-1 $381 $148 #
plane-surface $-1 30.296510214030796 -70.320299123403899 71.076206902564991 -1 0 0 0 -0.57357644374324357 0.81915203911291934 forward_v I I I I #
coedge $-1 $382 $383 $384 $385 reversed $149 $-1 #
coedge $-1 $243 $151 $386 $387 reversed $96 $-1 #
coedge $-1 $151 $242 $382 $388 reversed $96 $-1 #
coedge $-1 $384 $389 $151 $245 forward $379 $-1 #
edge $-1 $390 26.435374842987578 $391 30.664040898132122 $244 $392 forward 7 unknown #
loop $-1 $-1 $251 $152 #
plane-surface $-1 24.016089044735011 -23.965057713964278 4.8740625531503809 0 -0.57357644374324357 0.81915203911291934 1 0 0 forward_v I I I I #
loop $-1 $-1 $393 $98 #
coedge $-1 $249 $249 $250 $394 reversed $153 $-1 #
coedge $-1 $250 $250 $249 $394 forward $155 $-1 #
coedge $-1 $251 $251 $156 $252 forward $246 $-1 #
edge $-1 $395 1.4440326370371518e-016 $395 6.2831853071796004 $251 $396 forward 7 unknown #
loop $-1 $-1 $258 $157 #
plane-surface $-1 24.016089044735011 -23.965057713964278 4.8740625531503809 0 -0.57357644374324357 0.81915203911291934 1 0 0 forward_v I I I I #
loop $-1 $-1 $397 $101 #
coedge $-1 $256 $256 $257 $398 reversed $158 $-1 #
coedge $-1 $257 $257 $256 $398 forward $160 $-1 #
coedge $-1 $258 $258 $161 $259 forward $253 $-1 #
edge $-1 $399 1.4440326370371518e-016 $399 6.2831853071796004 $258 $400 forward 7 unknown #
face $-1 $401 $402 $39 $-1 $403 reversed single #
loop $-1 $-1 $404 $162 #
plane-surface $-1 -40.408948026978365 0 0 1 0 0 0 0 -1 forward_v I I I I #
coedge $-1 $405 $271 $406 $407 forward $163 $-1 #
coedge $-1 $408 $165 $405 $409 forward $105 $-1 #
coedge $-1 $165 $408 $410 $411 forward $105 $-1 #
coedge $-1 $274 $273 $165 $267 reversed $275 $-1 #
edge $-1 $412 -23.965057713964288 $413 23.965057713964288 $266 $414 forward 7 unknown #
coedge $-1 $167 $166 $415 $416 forward $66 $-1 #
coedge $-1 $417 $418 $166 $270 reversed $402 $-1 #
edge $-1 $277 -40.408948026978365 $419 40.408948026978365 $269 $420 forward 7 unknown #
coedge $-1 $263 $421 $167 $272 reversed $163 $-1 #
edge $-1 $422 -40.408948026978365 $276 40.408948026978365 $271 $423 forward 7 unknown #
coedge $-1 $266 $168 $421 $424 forward $275 $-1 #
coedge $-1 $168 $266 $417 $425 reversed $275 $-1 #
loop $-1 $-1 $273 $401 #
vertex $-1 $169 $426 #
vertex $-1 $169 $427 #
straight-curve $-1 40.408948026978365 0 9.1027286082949157 0 1 0 I I #
face $-1 $428 $429 $40 $-1 $430 reversed single #
loop $-1 $-1 $431 $170 #
plane-surface $-1 0 -23.965057713964288 0 0 1 0 0 0 1 forward_v I I I I #
coedge $-1 $285 $176 $432 $433 reversed $171 $-1 #
coedge $-1 $434 $173 $431 $435 reversed $109 $-1 #
coedge $-1 $173 $434 $436 $437 reversed $109 $-1 #
coedge $-1 $292 $282 $173 $286 reversed $171 $-1 #
edge $-1 $438 -23.965057713964288 $439 23.965057713964288 $285 $440 forward 7 unknown #
coedge $-1 $175 $174 $441 $442 reversed $69 $-1 #
coedge $-1 $443 $444 $174 $289 forward $445 $-1 #
edge $-1 $446 -22.732583466726073 $294 -12.620145653778515 $288 $447 forward 7 unknown #
coedge $-1 $448 $432 $175 $291 forward $280 $-1 #
edge $-1 $293 12.620145653778515 $449 22.732583466726073 $290 $450 forward 7 unknown #
coedge $-1 $176 $285 $443 $451 reversed $171 $-1 #
vertex $-1 $291 $452 #
vertex $-1 $289 $453 #
straight-curve $-1 -30.296510214030807 0 3.4526263822568177 0 1 0 I I #
face $-1 $454 $455 $41 $-1 $456 reversed single #
loop $-1 $-1 $307 $178 #
plane-surface $-1 0 -23.965057713964288 0 0 1 0 0 0 1 forward_v I I I I #
coedge $-1 $457 $458 $459 $460 reversed $179 $-1 #
coedge $-1 $461 $181 $462 $463 reversed $113 $-1 #
coedge $-1 $181 $461 $464 $465 reversed $113 $-1 #
coedge $-1 $310 $309 $181 $303 forward $311 $-1 #
edge $-1 $466 -23.965057713964288 $467 23.965057713964288 $302 $468 forward 7 unknown #
coedge $-1 $183 $182 $458 $469 forward $72 $-1 #
coedge $-1 $470 $459 $182 $306 forward $455 $-1 #
edge $-1 $471 12.620145653778508 $312 22.732583466726069 $305 $472 forward 7 unknown #
coedge $-1 $473 $474 $183 $308 forward $297 $-1 #
edge $-1 $313 -22.732583466726069 $475 -12.620145653778508 $307 $476 forward 7 unknown #
coedge $-1 $302 $184 $474 $477 forward $311 $-1 #
coedge $-1 $184 $302 $470 $478 reversed $311 $-1 #
loop $-1 $-1 $184 $454 #
vertex $-1 $478 $479 #
vertex $-1 $477 $480 #
straight-curve $-1 40.408948026978365 0 3.4526263822568177 0 -1 0 I I #
face $-1 $-1 $481 $42 $-1 $482 forward single #
loop $-1 $-1 $192 $186 #
plane-surface $-1 0 23.965057713964288 0 0 -1 0 0 0 -1 forward_v I I I I #
coedge $-1 $483 $484 $485 $486 reversed $187 $-1 #
coedge $-1 $487 $189 $191 $325 forward $117 $-1 #
coedge $-1 $189 $487 $483 $488 forward $117 $-1 #
coedge $-1 $485 $192 $189 $322 forward $316 $-1 #
edge $-1 $328 -2.3528474236361419 $489 11.516679889379056 $321 $490 forward 7 unknown #
coedge $-1 $491 $492 $190 $324 forward $481 $-1 #
edge $-1 $493 -7.7223341537210004 $327 -2.7919994156151624 $323 $494 forward 7 unknown #
edge $-1 $328 -47.930115427928619 $493 -40.415037375656546 $191 $495 forward 7 unknown #
coedge $-1 $192 $485 $491 $496 reversed $316 $-1 #
vertex $-1 $496 $497 #
vertex $-1 $193 $498 #
straight-curve $-1 -2.229068809235315 23.965057713964288 46.312827237685042 0 0 -1 I I #
coedge $-1 $330 $330 $-1 $499 reversed $196 $-1 #
edge $-1 $500 0 $500 6.2831853071796004 $197 $501 forward 7 unknown #
vertex $-1 $200 $502 #
ellipse-curve $-1 -9.1638324657429138 21.499890344911368 6.2668778760644548 0 0.75470958851134928 0.65605901945558964 1.5 0 0 1 I I #
face $-1 $-1 $346 $44 $-1 $503 reversed single #
loop $-1 $-1 $504 $201 #
plane-surface $-1 0 0 9.1027286082949157 0 0 1 1 0 0 forward_v I I I I #
coedge $-1 $505 $506 $507 $508 reversed $202 $-1 #
coedge $-1 $509 $204 $206 $344 forward $126 $-1 #
coedge $-1 $204 $509 $505 $510 forward $126 $-1 #
coedge $-1 $507 $207 $204 $341 forward $346 $-1 #
edge $-1 $348 -11.516679889379052 $511 2.3528474236361454 $340 $512 forward 7 unknown #
coedge $-1 $513 $514 $205 $343 forward $335 $-1 #
edge $-1 $515 -7.7223341537210004 $347 -2.7919994156151624 $342 $516 forward 7 unknown #
edge $-1 $348 -47.930115427928619 $515 -40.415037375656546 $206 $517 forward 7 unknown #
coedge $-1 $207 $507 $513 $518 reversed $346 $-1 #
loop $-1 $-1 $507 $334 #
vertex $-1 $518 $519 #
vertex $-1 $208 $520 #
straight-curve $-1 16.098596122250505 23.965057713964288 46.312827237685042 0 0 -1 I I #
coedge $-1 $350 $350 $-1 $521 reversed $211 $-1 #
edge $-1 $522 0 $522 6.2831853071796004 $212 $523 forward 7 unknown #
vertex $-1 $215 $524 #
ellipse-curve $-1 9.1638324657429067 21.499890344911368 6.2668778760644548 0 0.75470958851134928 0.65605901945558964 1.5 0 0 1 I I #
face $-1 $-1 $366 $46 $-1 $525 reversed single #
loop $-1 $-1 $526 $216 #
plane-surface $-1 0 0 9.1027286082949157 0 0 1 1 0 0 forward_v I I I I #
coedge $-1 $527 $528 $529 $530 reversed $217 $-1 #
coedge $-1 $531 $219 $221 $364 forward $135 $-1 #
coedge $-1 $219 $531 $527 $532 forward $135 $-1 #
coedge $-1 $529 $222 $219 $361 forward $366 $-1 #
edge $-1 $368 -9.4206317539436775 $533 3.1402105846478925 $360 $534 forward 7 unknown #
coedge $-1 $535 $536 $220 $363 forward $355 $-1 #
edge $-1 $537 -17.234252729577904 $367 -11.195091847737661 $362 $538 forward 7 unknown #
edge $-1 $368 -1.2806143718170109e-014 $537 7.3724541885779757 $221 $539 forward 7 unknown #
coedge $-1 $222 $529 $535 $540 reversed $366 $-1 #
loop $-1 $-1 $529 $354 #
vertex $-1 $540 $541 #
vertex $-1 $223 $542 #
straight-curve $-1 -12.56084233859157 -23.965057713964288 35.538103451282495 0 0 -1 I I #
coedge $-1 $370 $370 $-1 $543 reversed $226 $-1 #
edge $-1 $544 0 $544 6.2831853071796004 $227 $545 forward 7 unknown #
vertex $-1 $230 $546 #
ellipse-curve $-1 -8.9720302418511224 -20.945477273044162 6.9883955807226483 0 -0.57357644374324357 0.81915203911291934 1.5 0 0 1 I I #
coedge $-1 $374 $374 $-1 $547 reversed $233 $-1 #
edge $-1 $548 0 $548 6.2831853071796004 $234 $549 forward 7 unknown #
vertex $-1 $237 $550 #
ellipse-curve $-1 -3.5888120967404475 -20.945477273044162 6.9883955807226483 0 -0.57357644374324357 0.81915203911291934 1.5 0 0 1 I I #
face $-1 $-1 $551 $49 $-1 $552 forward single #
loop $-1 $-1 $244 $238 #
plane-surface $-1 0 -23.965057713964288 0 0 1 0 0 0 1 forward_v I I I I #
coedge $-1 $553 $554 $555 $556 reversed $239 $-1 #
coedge $-1 $557 $241 $243 $388 forward $149 $-1 #
coedge $-1 $241 $557 $553 $558 forward $149 $-1 #
coedge $-1 $555 $244 $241 $385 forward $379 $-1 #
edge $-1 $391 5.7276233530717207 $559 18.288465691663291 $384 $560 forward 7 unknown #
coedge $-1 $561 $562 $242 $387 forward $551 $-1 #
edge $-1 $563 -17.234252729577904 $390 -11.195091847737661 $386 $564 forward 7 unknown #
edge $-1 $391 -1.2806143718170109e-014 $563 7.3724541885779757 $243 $565 forward 7 unknown #
coedge $-1 $244 $555 $561 $566 reversed $379 $-1 #
vertex $-1 $566 $567 #
vertex $-1 $245 $568 #
straight-curve $-1 17.735667875439226 -23.965057713964288 35.538103451282495 0 0 -1 I I #
coedge $-1 $393 $393 $-1 $569 reversed $248 $-1 #
edge $-1 $570 0 $570 6.2831853071796004 $249 $571 forward 7 unknown #
vertex $-1 $252 $572 #
ellipse-curve $-1 21.324479972179681 -20.945477273044162 6.9883955807226483 0 -0.57357644374324357 0.81915203911291934 1.5 0 0 1 I I #
coedge $-1 $397 $397 $-1 $573 reversed $255 $-1 #
edge $-1 $574 0 $574 6.2831853071796004 $256 $575 forward 7 unknown #
vertex $-1 $259 $576 #
ellipse-curve $-1 26.707698117290349 -20.945477273044162 6.9883955807226483 0 -0.57357644374324357 0.81915203911291934 1.5 0 0 1 I I #
face $-1 $-1 $275 $39 $-1 $577 reversed single #
loop $-1 $-1 $417 $260 #
plane-surface $-1 0 23.965057713964288 0 0 -1 0 0 0 -1 forward_v I I I I #
coedge $-1 $578 $415 $418 $579 forward $261 $-1 #
coedge $-1 $421 $263 $264 $409 reversed $163 $-1 #
coedge $-1 $415 $578 $263 $407 reversed $261 $-1 #
edge $-1 $422 -9.1027286082949157 $580 9.1027286082949157 $406 $581 forward 7 unknown #
coedge $-1 $265 $264 $578 $582 forward $105 $-1 #
edge $-1 $413 -40.408948026978365 $580 40.408948026978365 $405 $583 forward 7 unknown #
coedge $-1 $418 $417 $265 $411 reversed $402 $-1 #
edge $-1 $584 -40.408948026978365 $412 40.408948026978365 $410 $585 forward 7 unknown #
vertex $-1 $267 $586 #
vertex $-1 $424 $587 #
straight-curve $-1 40.408948026978365 0 -9.1027286082949157 0 -1 0 I I #
coedge $-1 $404 $406 $268 $416 reversed $261 $-1 #
edge $-1 $419 -23.965057713964288 $422 23.965057713964288 $415 $588 forward 7 unknown #
coedge $-1 $410 $269 $274 $425 forward $402 $-1 #
coedge $-1 $269 $410 $404 $579 reversed $402 $-1 #
vertex $-1 $270 $589 #
straight-curve $-1 0 23.965057713964288 9.1027286082949157 -1 0 0 I I #
coedge $-1 $271 $405 $273 $424 reversed $163 $-1 #
vertex $-1 $416 $590 #
straight-curve $-1 0 -23.965057713964288 9.1027286082949157 1 0 0 I I #
edge $-1 $276 -9.1027286082949157 $413 9.1027286082949157 $273 $591 forward 7 unknown #
edge $-1 $277 -9.1027286082949157 $412 9.1027286082949157 $274 $592 forward 7 unknown #
point $-1 40.408948026978365 -23.965057713964288 9.1027286082949157 #
point $-1 40.408948026978365 23.965057713964288 9.1027286082949157 #
face $-1 $-1 $445 $40 $-1 $593 reversed single #
loop $-1 $-1 $594 $279 #
plane-surface $-1 -40.408948026978365 0 0 1 0 0 0 0 -1 forward_v I I I I #
coedge $-1 $432 $448 $283 $435 forward $280 $-1 #
coedge $-1 $290 $431 $282 $433 forward $280 $-1 #
edge $-1 $439 -0.98329523085579851 $293 2.629515998456478 $432 $595 forward 7 unknown #
coedge $-1 $284 $283 $594 $596 reversed $109 $-1 #
edge $-1 $597 -22.732583466726073 $439 -12.620145653778515 $431 $598 forward 7 unknown #
coedge $-1 $444 $443 $284 $437 forward $445 $-1 #
edge $-1 $438 12.620145653778515 $599 22.732583466726073 $436 $600 forward 7 unknown #
vertex $-1 $437 $601 #
vertex $-1 $435 $602 #
straight-curve $-1 -30.296510214030807 0 -0.16018484705545877 0 -1 0 I I #
coedge $-1 $603 $604 $287 $442 forward $429 $-1 #
edge $-1 $449 -23.965057713964288 $446 23.965057713964288 $441 $605 forward 7 unknown #
coedge $-1 $436 $288 $292 $451 forward $445 $-1 #
coedge $-1 $288 $436 $603 $606 reversed $445 $-1 #
loop $-1 $-1 $436 $428 #
vertex $-1 $606 $607 #
straight-curve $-1 -17.676364560252292 23.965057713964288 3.4526263822568177 1 0 0 I I #
coedge $-1 $431 $290 $604 $608 forward $280 $-1 #
vertex $-1 $608 $609 #
straight-curve $-1 -17.676364560252292 -23.965057713964288 3.4526263822568177 -1 0 0 I I #
edge $-1 $294 -2.629515998456478 $438 0.98329523085579851 $443 $610 forward 7 unknown #
point $-1 -30.296510214030807 -23.965057713964288 3.4526263822568177 #
point $-1 -30.296510214030807 23.965057713964288 3.4526263822568177 #
face $-1 $-1 $311 $41 $-1 $611 reversed single #
loop $-1 $-1 $305 $296 #
plane-surface $-1 0 23.965057713964288 0 0 -1 0 0 0 -1 forward_v I I I I #
coedge $-1 $612 $299 $461 $613 reversed $179 $-1 #
coedge $-1 $299 $612 $304 $469 reversed $179 $-1 #
coedge $-1 $305 $464 $299 $460 forward $455 $-1 #
edge $-1 $614 -0.98329523085579851 $471 2.629515998456478 $459 $615 forward 7 unknown #
coedge $-1 $301 $300 $457 $613 forward $113 $-1 #
coedge $-1 $474 $473 $300 $463 forward $297 $-1 #
edge $-1 $616 12.620145653778508 $466 22.732583466726069 $462 $617 forward 7 unknown #
coedge $-1 $459 $470 $301 $465 forward $455 $-1 #
edge $-1 $467 -22.732583466726069 $614 -12.620145653778508 $464 $618 forward 7 unknown #
vertex $-1 $303 $619 #
vertex $-1 $303 $620 #
straight-curve $-1 40.408948026978365 0 -0.16018484705545877 0 1 0 I I #
edge $-1 $471 -23.965057713964288 $475 23.965057713964288 $458 $621 forward 7 unknown #
coedge $-1 $464 $305 $310 $478 forward $455 $-1 #
vertex $-1 $306 $622 #
straight-curve $-1 17.676364560252289 23.965057713964288 3.4526263822568177 1 0 0 I I #
coedge $-1 $462 $307 $612 $623 forward $297 $-1 #
coedge $-1 $307 $462 $309 $477 reversed $297 $-1 #
vertex $-1 $308 $624 #
straight-curve $-1 17.676364560252289 -23.965057713964288 3.4526263822568177 -1 0 0 I I #
edge $-1 $313 -3.4526263822568177 $466 0.16018484705545877 $309 $625 forward 7 unknown #
edge $-1 $312 -3.4526263822568177 $467 0.16018484705545877 $310 $626 forward 7 unknown #
point $-1 40.408948026978358 23.965057713964288 3.4526263822568177 #
point $-1 40.408948026978358 -23.965057713964288 3.4526263822568177 #
loop $-1 $-1 $323 $315 #
plane-surface $-1 0 0 9.1027286082949157 0 0 1 1 0 0 forward_v I I I I #
coedge $-1 $484 $318 $320 $488 reversed $187 $-1 #
coedge $-1 $318 $483 $627 $628 reversed $187 $-1 #
coedge $-1 $326 $321 $318 $486 forward $316 $-1 #
edge $-1 $489 -42.881800093851055 $629 -37.210098629390124 $485 $630 forward 7 unknown #
coedge $-1 $320 $319 $492 $631 reversed $117 $-1 #
edge $-1 $632 40.415037375656546 $489 47.930115427928619 $483 $633 forward 7 unknown #
vertex $-1 $322 $634 #
straight-curve $-1 -4.5819162328714569 23.965057713964288 3.4310271438339868 -1 0 0 I I #
coedge $-1 $627 $323 $326 $496 forward $481 $-1 #
coedge $-1 $323 $627 $487 $631 forward $481 $-1 #
vertex $-1 $324 $635 #
straight-curve $-1 -2.229068809235315 26.757057129579451 9.1027286082949175 0 1 0 I I #
straight-curve $-1 -2.229068809235315 -7.4799268160757819 39.604344835747462 0 -0.65605901945558964 0.75470958851134928 I I #
edge $-1 $327 2.229068809235315 $629 16.098596122250513 $326 $636 forward 7 unknown #
point $-1 -2.229068809235315 23.965057713964288 9.1027286082949157 #
point $-1 -2.229068809235315 23.965057713964288 3.4310271438339868 #
edge $-1 $637 1 $637 0 $330 $-1 forward 7 unknown #
vertex $-1 $331 $638 #
ellipse-curve $-1 -9.1638324657429138 17.903624414829739 3.1406916771522368 0 0.75470958851134928 0.65605901945558964 1.5 0 0 1 I I #
point $-1 -7.6638324657429138 21.499890344911378 6.2668778760644619 #
plane-surface $-1 0 23.965057713964288 0 0 -1 0 0 0 -1 forward_v I I I I #
coedge $-1 $514 $513 $506 $639 forward $335 $-1 #
coedge $-1 $506 $337 $339 $510 reversed $202 $-1 #
coedge $-1 $337 $505 $504 $639 reversed $202 $-1 #
coedge $-1 $345 $340 $337 $508 forward $346 $-1 #
edge $-1 $511 -42.881800093851055 $640 -37.210098629390124 $507 $641 forward 7 unknown #
coedge $-1 $339 $338 $514 $642 reversed $126 $-1 #
edge $-1 $643 40.415037375656546 $511 47.930115427928619 $505 $644 forward 7 unknown #
vertex $-1 $341 $645 #
straight-curve $-1 4.5819162328714533 23.965057713964288 3.4310271438339868 -1 0 0 I I #
coedge $-1 $504 $342 $345 $518 forward $335 $-1 #
coedge $-1 $342 $504 $509 $642 forward $335 $-1 #
vertex $-1 $343 $646 #
straight-curve $-1 16.098596122250505 26.757057129579451 9.1027286082949175 0 1 0 I I #
straight-curve $-1 16.098596122250505 -7.4799268160757819 39.604344835747462 0 -0.65605901945558964 0.75470958851134928 I I #
edge $-1 $347 -16.098596122250505 $640 -2.2290688092353079 $345 $647 forward 7 unknown #
point $-1 16.098596122250505 23.965057713964288 9.1027286082949157 #
point $-1 16.098596122250505 23.965057713964288 3.4310271438339868 #
edge $-1 $648 1 $648 0 $350 $-1 forward 7 unknown #
vertex $-1 $351 $649 #
ellipse-curve $-1 9.1638324657429067 17.903624414829739 3.1406916771522368 0 0.75470958851134928 0.65605901945558964 1.5 0 0 1 I I #
point $-1 10.663832465742907 21.499890344911378 6.2668778760644619 #
plane-surface $-1 0 -23.965057713964288 0 0 1 0 0 0 1 forward_v I I I I #
coedge $-1 $536 $535 $528 $650 forward $355 $-1 #
coedge $-1 $528 $357 $359 $532 reversed $217 $-1 #
coedge $-1 $357 $527 $526 $650 reversed $217 $-1 #
coedge $-1 $365 $360 $357 $530 forward $366 $-1 #
edge $-1 $533 -30.664040898132122 $651 -26.435374842987578 $529 $652 forward 7 unknown #
coedge $-1 $359 $358 $536 $653 reversed $135 $-1 #
edge $-1 $654 -7.3724541885779757 $533 1.2806143718170109e-014 $527 $655 forward 7 unknown #
vertex $-1 $361 $656 #
straight-curve $-1 -3.1402105846478925 -23.965057713964288 4.8740625531503747 1 0 0 I I #
coedge $-1 $526 $362 $365 $540 forward $355 $-1 #
coedge $-1 $362 $526 $531 $653 forward $355 $-1 #
vertex $-1 $363 $657 #
straight-curve $-1 -12.56084233859157 -35.160149561701949 9.1027286082949175 0 -1 0 I I #
straight-curve $-1 -12.56084233859157 -23.965057713964278 4.8740625531503809 0 0.81915203911291934 0.57357644374324357 I I #
edge $-1 $367 -12.56084233859157 $651 0 $365 $658 forward 7 unknown #
point $-1 -12.56084233859157 -23.965057713964288 9.1027286082949157 #
point $-1 -12.56084233859157 -23.965057713964288 4.8740625531503738 #
edge $-1 $659 1 $659 0 $370 $-1 forward 7 unknown #
vertex $-1 $371 $660 #
ellipse-curve $-1 -8.9720302418511224 -19.043836886603806 4.272571705449618 0 -0.57357644374324357 0.81915203911291934 1.5 0 0 1 I I #
point $-1 -7.4720302418511224 -20.945477273044155 6.9883955807226386 #
edge $-1 $661 1 $661 0 $374 $-1 forward 7 unknown #
vertex $-1 $375 $662 #
ellipse-curve $-1 -3.5888120967404475 -19.043836886603806 4.272571705449618 0 -0.57357644374324357 0.81915203911291934 1.5 0 0 1 I I #
point $-1 -2.0888120967404475 -20.945477273044155 6.9883955807226386 #
loop $-1 $-1 $386 $378 #
plane-surface $-1 0 0 9.1027286082949157 0 0 1 1 0 0 forward_v I I I I #
coedge $-1 $554 $381 $383 $558 reversed $239 $-1 #
coedge $-1 $381 $553 $663 $664 reversed $239 $-1 #
coedge $-1 $389 $384 $381 $556 forward $379 $-1 #
edge $-1 $559 -30.664040898132122 $665 -26.435374842987578 $555 $666 forward 7 unknown #
coedge $-1 $383 $382 $562 $667 reversed $149 $-1 #
edge $-1 $668 -7.3724541885779757 $559 1.2806143718170109e-014 $553 $669 forward 7 unknown #
vertex $-1 $385 $670 #
straight-curve $-1 12.008044522367506 -23.965057713964288 4.8740625531503747 1 0 0 I I #
coedge $-1 $663 $386 $389 $566 forward $551 $-1 #
coedge $-1 $386 $663 $557 $667 forward $551 $-1 #
vertex $-1 $387 $671 #
straight-curve $-1 17.735667875439226 -35.160149561701949 9.1027286082949175 0 -1 0 I I #
straight-curve $-1 17.735667875439226 -23.965057713964278 4.8740625531503809 0 0.81915203911291934 0.57357644374324357 I I #
edge $-1 $390 17.735667875439226 $665 30.296510214030796 $389 $672 forward 7 unknown #
point $-1 17.735667875439226 -23.965057713964288 9.1027286082949157 #
point $-1 17.735667875439226 -23.965057713964288 4.8740625531503738 #
edge $-1 $673 1 $673 0 $393 $-1 forward 7 unknown #
vertex $-1 $394 $674 #
ellipse-curve $-1 21.324479972179681 -19.043836886603806 4.272571705449618 0 -0.57357644374324357 0.81915203911291934 1.5 0 0 1 I I #
point $-1 22.824479972179681 -20.945477273044155 6.9883955807226386 #
edge $-1 $675 1 $675 0 $397 $-1 forward 7 unknown #
vertex $-1 $398 $676 #
ellipse-curve $-1 26.707698117290349 -19.043836886603806 4.272571705449618 0 -0.57357644374324357 0.81915203911291934 1.5 0 0 1 I I #
point $-1 28.207698117290349 -20.945477273044155 6.9883955807226386 #
plane-surface $-1 40.408948026978365 0 0 -1 0 0 0 0 1 forward_v I I I I #
coedge $-1 $406 $404 $408 $582 reversed $261 $-1 #
edge $-1 $419 -9.1027286082949157 $584 9.1027286082949157 $418 $677 forward 7 unknown #
vertex $-1 $582 $678 #
straight-curve $-1 -40.408948026978365 -23.965057713964288 0 0 0 -1 I I #
edge $-1 $580 -23.965057713964288 $584 23.965057713964288 $578 $679 forward 7 unknown #
straight-curve $-1 0 -23.965057713964288 -9.1027286082949157 -1 0 0 I I #
vertex $-1 $411 $680 #
straight-curve $-1 0 23.965057713964288 -9.1027286082949157 1 0 0 I I #
point $-1 40.408948026978365 23.965057713964288 -9.1027286082949157 #
point $-1 40.408948026978365 -23.965057713964288 -9.1027286082949157 #
straight-curve $-1 -40.408948026978365 0 9.1027286082949157 0 -1 0 I I #
point $-1 -40.408948026978365 23.965057713964288 9.1027286082949157 #
point $-1 -40.408948026978365 -23.965057713964288 9.1027286082949157 #
straight-curve $-1 40.408948026978365 -23.965057713964288 0 0 0 -1 I I #
straight-curve $-1 40.408948026978365 23.965057713964288 0 0 0 -1 I I #
plane-surface $-1 0 23.965057713964288 0 0 -1 0 0 0 -1 forward_v I I I I #
coedge $-1 $604 $603 $434 $596 forward $429 $-1 #
straight-curve $-1 -30.296510214030807 -23.965057713964288 0.82311038380033974 0 0 1 I I #
edge $-1 $599 -23.965057713964288 $597 23.965057713964288 $594 $681 forward 7 unknown #
vertex $-1 $435 $682 #
straight-curve $-1 -17.676364560252292 -23.965057713964288 -0.16018484705545877 1 0 0 I I #
vertex $-1 $437 $683 #
straight-curve $-1 -17.676364560252292 23.965057713964288 -0.16018484705545877 -1 0 0 I I #
point $-1 -30.296510214030807 23.965057713964288 -0.16018484705545877 #
point $-1 -30.296510214030807 -23.965057713964288 -0.16018484705545877 #
coedge $-1 $594 $441 $444 $606 forward $429 $-1 #
coedge $-1 $441 $594 $448 $608 reversed $429 $-1 #
straight-curve $-1 -40.408948026978365 0 3.4526263822568177 0 1 0 I I #
edge $-1 $446 -3.4526263822568177 $599 0.16018484705545877 $444 $684 forward 7 unknown #
point $-1 -40.408948026978365 23.965057713964288 3.4526263822568177 #
edge $-1 $449 -3.4526263822568177 $597 0.16018484705545877 $604 $685 forward 7 unknown #
point $-1 -40.408948026978365 -23.965057713964288 3.4526263822568177 #
straight-curve $-1 -30.296510214030807 23.965057713964288 0.82311038380033974 0 0 -1 I I #
plane-surface $-1 40.408948026978365 0 0 -1 0 0 0 0 1 forward_v I I I I #
coedge $-1 $458 $457 $473 $623 reversed $179 $-1 #
edge $-1 $616 -23.965057713964288 $614 23.965057713964288 $457 $686 forward 7 unknown #
vertex $-1 $465 $687 #
straight-curve $-1 30.296510214030796 23.965057713964288 0.82311038380033974 0 0 1 I I #
vertex $-1 $463 $688 #
straight-curve $-1 17.676364560252289 -23.965057713964288 -0.16018484705545877 1 0 0 I I #
straight-curve $-1 17.676364560252289 23.965057713964288 -0.16018484705545877 -1 0 0 I I #
point $-1 40.408948026978358 -23.965057713964288 -0.16018484705545877 #
point $-1 40.408948026978358 23.965057713964288 -0.16018484705545877 #
straight-curve $-1 30.296510214030796 0 3.4526263822568177 0 -1 0 I I #
point $-1 30.296510214030796 23.965057713964288 3.4526263822568177 #
edge $-1 $475 -2.629515998456478 $616 0.98329523085579851 $473 $689 forward 7 unknown #
point $-1 30.296510214030796 -23.965057713964288 3.4526263822568177 #
straight-curve $-1 40.408948026978365 -23.965057713964288 0 0 0 -1 I I #
straight-curve $-1 40.408948026978365 23.965057713964288 0 0 0 -1 I I #
coedge $-1 $492 $491 $484 $628 forward $481 $-1 #
edge $-1 $629 2.7919994156151624 $632 7.7223341537210004 $627 $690 forward 7 unknown #
vertex $-1 $628 $691 #
straight-curve $-1 -16.098596122250513 23.965057713964288 46.312827237685042 0 0 1 I I #
edge $-1 $632 -11.516679889379056 $493 2.3528474236361419 $492 $692 forward 7 unknown #
vertex $-1 $631 $693 #
straight-curve $-1 -16.098596122250513 -7.4799268160757819 39.604344835747462 0 0.65605901945558964 -0.75470958851134928 I I #
point $-1 -16.098596122250513 23.965057713964288 3.4310271438339868 #
point $-1 -2.229068809235315 19.03472297585845 9.102728608294921 #
straight-curve $-1 0 23.965057713964288 9.1027286082949157 -1 0 0 I I #
vertex $-1 $499 $694 #
point $-1 -7.6638324657429138 17.903624414829739 3.1406916771522368 #
edge $-1 $640 2.7919994156151624 $643 7.7223341537210004 $504 $695 forward 7 unknown #
vertex $-1 $639 $696 #
straight-curve $-1 2.2290688092353079 23.965057713964288 46.312827237685042 0 0 1 I I #
edge $-1 $643 -2.3528474236361454 $515 11.516679889379052 $514 $697 forward 7 unknown #
vertex $-1 $642 $698 #
straight-curve $-1 2.2290688092353079 -7.4799268160757819 39.604344835747462 0 0.65605901945558964 -0.75470958851134928 I I #
point $-1 2.2290688092353079 23.965057713964288 3.4310271438339868 #
point $-1 16.098596122250505 19.03472297585845 9.102728608294921 #
straight-curve $-1 0 23.965057713964288 9.1027286082949157 -1 0 0 I I #
vertex $-1 $521 $699 #
point $-1 10.663832465742907 17.903624414829739 3.1406916771522368 #
edge $-1 $651 11.195091847737661 $654 17.234252729577904 $526 $700 forward 7 unknown #
vertex $-1 $530 $701 #
straight-curve $-1 0 -23.965057713964288 35.538103451282495 0 0 1 I I #
edge $-1 $654 -3.1402105846478925 $537 9.4206317539436775 $536 $702 forward 7 unknown #
vertex $-1 $653 $703 #
straight-curve $-1 0 -23.965057713964278 4.8740625531503809 0 -0.81915203911291934 -0.57357644374324357 I I #
point $-1 0 -23.965057713964288 4.8740625531503738 #
point $-1 -12.56084233859157 -17.925896832124046 9.1027286082949157 #
straight-curve $-1 0 -23.965057713964288 9.1027286082949157 1 0 0 I I #
vertex $-1 $543 $704 #
point $-1 -7.4720302418511224 -19.043836886603806 4.272571705449618 #
vertex $-1 $547 $705 #
point $-1 -2.0888120967404475 -19.043836886603806 4.272571705449618 #
coedge $-1 $562 $561 $554 $664 forward $551 $-1 #
edge $-1 $665 11.195091847737661 $668 17.234252729577904 $663 $706 forward 7 unknown #
vertex $-1 $664 $707 #
straight-curve $-1 30.296510214030796 -23.965057713964288 35.538103451282495 0 0 1 I I #
edge $-1 $668 -18.288465691663291 $563 -5.7276233530717207 $562 $708 forward 7 unknown #
vertex $-1 $667 $709 #
straight-curve $-1 30.296510214030796 -23.965057713964278 4.8740625531503809 0 -0.81915203911291934 -0.57357644374324357 I I #
point $-1 30.296510214030796 -23.965057713964288 4.8740625531503738 #
point $-1 17.735667875439226 -17.925896832124046 9.1027286082949157 #
straight-curve $-1 0 -23.965057713964288 9.1027286082949157 1 0 0 I I #
vertex $-1 $569 $710 #
point $-1 22.824479972179681 -19.043836886603806 4.272571705449618 #
vertex $-1 $573 $711 #
point $-1 28.207698117290349 -19.043836886603806 4.272571705449618 #
straight-curve $-1 -40.408948026978365 23.965057713964288 0 0 0 -1 I I #
point $-1 -40.408948026978365 -23.965057713964288 -9.1027286082949157 #
straight-curve $-1 -40.408948026978365 0 -9.1027286082949157 0 1 0 I I #
point $-1 -40.408948026978365 23.965057713964288 -9.1027286082949157 #
straight-curve $-1 -40.408948026978365 0 -0.16018484705545877 0 -1 0 I I #
point $-1 -40.408948026978365 -23.965057713964288 -0.16018484705545877 #
point $-1 -40.408948026978365 23.965057713964288 -0.16018484705545877 #
straight-curve $-1 -40.408948026978365 23.965057713964288 0 0 0 -1 I I #
straight-curve $-1 -40.408948026978365 -23.965057713964288 0 0 0 -1 I I #
straight-curve $-1 30.296510214030796 0 -0.16018484705545877 0 1 0 I I #
point $-1 30.296510214030796 23.965057713964288 -0.16018484705545877 #
point $-1 30.296510214030796 -23.965057713964288 -0.16018484705545877 #
straight-curve $-1 30.296510214030796 -23.965057713964288 0.82311038380033974 0 0 -1 I I #
straight-curve $-1 -16.098596122250513 26.757057129579451 9.1027286082949175 0 -1 0 I I #
point $-1 -16.098596122250513 23.965057713964288 9.1027286082949157 #
straight-curve $-1 -4.5819162328714569 19.03472297585845 9.1027286082949175 1 0 0 I I #
point $-1 -16.098596122250513 19.03472297585845 9.102728608294921 #
point $-1 -9.1638324657429138 16.771560032062713 2.1566031479688519 #
straight-curve $-1 2.2290688092353079 26.757057129579451 9.1027286082949175 0 -1 0 I I #
point $-1 2.2290688092353079 23.965057713964288 9.1027286082949157 #
straight-curve $-1 4.5819162328714533 19.03472297585845 9.1027286082949175 1 0 0 I I #
point $-1 2.2290688092353079 19.03472297585845 9.102728608294921 #
point $-1 9.1638324657429067 16.771560032062713 2.1566031479688519 #
straight-curve $-1 0 -35.160149561701949 9.1027286082949175 0 1 0 I I #
point $-1 0 -23.965057713964288 9.1027286082949157 #
straight-curve $-1 -3.1402105846478925 -17.925896832124046 9.1027286082949157 -1 0 0 I I #
point $-1 0 -17.925896832124046 9.1027286082949157 #
point $-1 -8.9720302418511224 -18.183472220988939 3.043843646780239 #
point $-1 -3.5888120967404475 -18.183472220988939 3.043843646780239 #
straight-curve $-1 30.296510214030796 -35.160149561701949 9.1027286082949175 0 1 0 I I #
point $-1 30.296510214030796 -23.965057713964288 9.1027286082949157 #
straight-curve $-1 12.008044522367506 -17.925896832124046 9.1027286082949157 -1 0 0 I I #
point $-1 30.296510214030796 -17.925896832124046 9.1027286082949157 #
point $-1 21.324479972179681 -18.183472220988939 3.043843646780239 #
point $-1 26.707698117290349 -18.183472220988939 3.043843646780239 #
End-of-ACIS-data 