500 0 10 0           
7 Unknown 11 ACIS 5.0 NT 24 Fri Mar 26 01:32:48 1999 
-1 9.9999999999999995e-007 1e-010 
body $-1 $10 $-1 $11 #
body $-1 $12 $-1 $13 #
body $-1 $14 $-1 $15 #
body $-1 $16 $-1 $17 #
body $-1 $18 $-1 $19 #
body $-1 $20 $-1 $21 #
body $-1 $22 $-1 $23 #
body $-1 $24 $-1 $25 #
body $-1 $26 $-1 $27 #
body $-1 $28 $-1 $29 #
lump $-1 $-1 $30 $0 #
transform $-1 1 0 0 0 1 0 0 0 1 54.952848902859586 27.437516217702374 5.9640403229036885 1 rotate no_reflect no_shear #
lump $-1 $-1 $31 $1 #
transform $-1 1 0 0 0 1 0 0 0 1 54.952848902859586 27.437516217702374 5.9640403229036885 1 rotate no_reflect no_shear #
lump $-1 $-1 $32 $2 #
transform $-1 1 0 0 0 1 0 0 0 1 54.952848902859586 27.437516217702374 5.9640403229036885 1 rotate no_reflect no_shear #
lump $-1 $-1 $33 $3 #
transform $-1 1 0 0 0 1 0 0 0 1 54.952848902859586 27.437516217702374 5.9640403229036885 1 rotate no_reflect no_shear #
lump $-1 $-1 $34 $4 #
transform $-1 1 0 0 0 1 0 0 0 1 54.952848902859586 27.437516217702374 5.9640403229036885 1 rotate no_reflect no_shear #
lump $-1 $-1 $35 $5 #
transform $-1 1 0 0 0 1 0 0 0 1 54.952848902859586 27.437516217702374 5.9640403229036885 1 rotate no_reflect no_shear #
lump $-1 $-1 $36 $6 #
transform $-1 1 0 0 0 1 0 0 0 1 54.952848902859586 27.437516217702374 5.9640403229036885 1 rotate no_reflect no_shear #
lump $-1 $-1 $37 $7 #
transform $-1 1 0 0 0 1 0 0 0 1 54.952848902859586 27.437516217702374 5.9640403229036885 1 rotate no_reflect no_shear #
lump $-1 $-1 $38 $8 #
transform $-1 1 0 0 0 1 0 0 0 1 54.952848902859586 27.437516217702374 5.9640403229036885 1 rotate no_reflect no_shear #
lump $-1 $-1 $39 $9 #
transform $-1 1 0 0 0 1 0 0 0 1 54.952848902859586 27.437516217702374 5.9640403229036885 1 rotate no_reflect no_shear #
shell $-1 $-1 $-1 $40 $-1 $10 #
shell $-1 $-1 $-1 $41 $-1 $12 #
shell $-1 $-1 $-1 $42 $-1 $14 #
shell $-1 $-1 $-1 $43 $-1 $16 #
shell $-1 $-1 $-1 $44 $-1 $18 #
shell $-1 $-1 $-1 $45 $-1 $20 #
shell $-1 $-1 $-1 $46 $-1 $22 #
shell $-1 $-1 $-1 $47 $-1 $24 #
shell $-1 $-1 $-1 $48 $-1 $26 #
shell $-1 $-1 $-1 $49 $-1 $28 #
face $-1 $50 $51 $30 $-1 $52 forward single #
face $-1 $53 $54 $31 $-1 $55 reversed single #
face $-1 $56 $57 $32 $-1 $58 reversed single #
face $-1 $59 $60 $33 $-1 $61 forward single #
face $-1 $62 $63 $34 $-1 $64 reversed single #
face $-1 $65 $66 $35 $-1 $67 forward single #
face $-1 $68 $69 $36 $-1 $70 reversed single #
face $-1 $71 $72 $37 $-1 $73 forward single #
face $-1 $74 $75 $38 $-1 $76 reversed single #
face $-1 $77 $78 $39 $-1 $79 forward single #
face $-1 $80 $81 $30 $-1 $82 reversed single #
loop $-1 $-1 $83 $40 #
plane-surface $-1 0 0 5.9640403229036885 0 0 1 1 0 0 forward_v I I I I #
face $-1 $84 $85 $31 $-1 $86 reversed single #
loop $-1 $-1 $87 $41 #
plane-surface $-1 0 -24.707705050477486 2.799442298116638 0 0 1 1 0 0 forward_v I I I I #
face $-1 $88 $89 $32 $-1 $90 reversed single #
loop $-1 $-1 $91 $42 #
plane-surface $-1 -111.55846867535212 -19.640551989503166 95.395646456751479 0 1 0 -0.51503808176128008 0 0.85716729658548041 forward_v I I I I #
face $-1 $92 $93 $33 $-1 $94 forward single #
loop $-1 $95 $96 $43 #
cone-surface $-1 -50.589735193069636 -15.748779009116994 2.9289124504599502 0.51503808176128008 0 -0.85716729658548041 0.85716729658548041 0 0.51503808176128008 1 I I 0 1 1 forward I I I I #
face $-1 $97 $98 $34 $-1 $99 reversed single #
loop $-1 $-1 $100 $44 #
plane-surface $-1 -111.55846867535212 -7.3214918719419106 95.395646456751479 0 1 0 -0.51503808176128008 0 0.85716729658548041 forward_v I I I I #
face $-1 $101 $102 $35 $-1 $103 forward single #
loop $-1 $104 $105 $45 #
cone-surface $-1 -50.589735193069636 -3.4297188915557371 2.9289124504599502 0.51503808176128008 0 -0.85716729658548041 0.85716729658548041 0 0.51503808176128008 1 I I 0 1 1 forward I I I I #
face $-1 $106 $107 $36 $-1 $108 reversed single #
loop $-1 $-1 $109 $46 #
plane-surface $-1 -111.55846867535212 4.9975682456193464 95.395646456751479 0 1 0 -0.51503808176128008 0 0.85716729658548041 forward_v I I I I #
face $-1 $110 $111 $37 $-1 $112 forward single #
loop $-1 $113 $114 $47 #
cone-surface $-1 -50.589735193069636 8.88934122600552 2.9289124504599502 0.51503808176128008 0 -0.85716729658548041 0.85716729658548041 0 0.51503808176128008 1 I I 0 1 1 forward I I I I #
face $-1 $115 $116 $38 $-1 $117 reversed single #
loop $-1 $-1 $118 $48 #
plane-surface $-1 -111.55846867535212 17.316628363180605 95.395646456751479 0 1 0 -0.51503808176128008 0 0.85716729658548041 forward_v I I I I #
face $-1 $119 $120 $39 $-1 $121 forward single #
loop $-1 $122 $123 $49 #
cone-surface $-1 -50.589735193069636 21.208401343566777 2.9289124504599502 0.51503808176128008 0 -0.85716729658548041 0.85716729658548041 0 0.51503808176128008 1 I I 0 1 1 forward I I I I #
face $-1 $124 $125 $30 $-1 $126 reversed single #
loop $-1 $-1 $127 $50 #
plane-surface $-1 0 0 -5.9640403229036885 0 0 1 1 0 0 forward_v I I I I #
coedge $-1 $128 $129 $130 $131 forward $51 $-1 #
face $-1 $132 $133 $31 $-1 $134 reversed single #
loop $-1 $-1 $135 $53 #
plane-surface $-1 0 -21.977893883252598 4.3817413105101632 0 -1 0 0 0 -1 forward_v I I I I #
coedge $-1 $136 $137 $138 $139 reversed $54 $-1 #
face $-1 $140 $141 $32 $-1 $142 reversed single #
loop $-1 $-1 $143 $56 #
plane-surface $-1 -54.952848902859586 -15.748779009116994 1.1880765892824172 -0.51503808176128008 0 0.85716729658548041 0.85716729658548041 0 0.51503808176128008 forward_v I I I I #
coedge $-1 $144 $145 $146 $147 reversed $57 $-1 #
face $-1 $-1 $148 $33 $-1 $149 forward single #
loop $-1 $150 $151 $59 #
cone-surface $-1 -49.943371595603061 -15.748779009116994 1.8531827965341066 0.51503808176128008 0 -0.85716729658548041 0.4285836482927402 0 0.25751904088064004 1 I I -0.70710678118654746 0.70710678118654746 0.5 forward I I I I #
loop $-1 $-1 $152 $43 #
coedge $-1 $96 $96 $153 $154 reversed $60 $-1 #
face $-1 $155 $156 $34 $-1 $157 reversed single #
loop $-1 $-1 $158 $62 #
plane-surface $-1 -54.952848902859586 -3.4297188915557371 1.1880765892824172 -0.51503808176128008 0 0.85716729658548041 0.85716729658548041 0 0.51503808176128008 forward_v I I I I #
coedge $-1 $159 $160 $161 $162 reversed $63 $-1 #
face $-1 $-1 $163 $35 $-1 $164 forward single #
loop $-1 $165 $166 $65 #
cone-surface $-1 -49.943371595603061 -3.4297188915557371 1.8531827965341066 0.51503808176128008 0 -0.85716729658548041 0.4285836482927402 0 0.25751904088064004 1 I I -0.70710678118654746 0.70710678118654746 0.5 forward I I I I #
loop $-1 $-1 $167 $45 #
coedge $-1 $105 $105 $168 $169 reversed $66 $-1 #
face $-1 $170 $171 $36 $-1 $172 reversed single #
loop $-1 $-1 $173 $68 #
plane-surface $-1 -54.952848902859586 8.88934122600552 1.1880765892824172 -0.51503808176128008 0 0.85716729658548041 0.85716729658548041 0 0.51503808176128008 forward_v I I I I #
coedge $-1 $174 $175 $176 $177 reversed $69 $-1 #
face $-1 $-1 $178 $37 $-1 $179 forward single #
loop $-1 $180 $181 $71 #
cone-surface $-1 -49.943371595603061 8.88934122600552 1.8531827965341066 0.51503808176128008 0 -0.85716729658548041 0.4285836482927402 0 0.25751904088064004 1 I I -0.70710678118654746 0.70710678118654746 0.5 forward I I I I #
loop $-1 $-1 $182 $47 #
coedge $-1 $114 $114 $183 $184 reversed $72 $-1 #
face $-1 $185 $186 $38 $-1 $187 reversed single #
loop $-1 $-1 $188 $74 #
plane-surface $-1 -54.952848902859586 21.208401343566777 1.1880765892824172 -0.51503808176128008 0 0.85716729658548041 0.85716729658548041 0 0.51503808176128008 forward_v I I I I #
coedge $-1 $189 $190 $191 $192 reversed $75 $-1 #
face $-1 $-1 $193 $39 $-1 $194 forward single #
loop $-1 $195 $196 $77 #
cone-surface $-1 -49.943371595603061 21.208401343566777 1.8531827965341066 0.51503808176128008 0 -0.85716729658548041 0.4285836482927402 0 0.25751904088064004 1 I I -0.70710678118654746 0.70710678118654746 0.5 forward I I I I #
loop $-1 $-1 $197 $49 #
coedge $-1 $123 $123 $198 $199 reversed $78 $-1 #
face $-1 $200 $201 $30 $-1 $202 reversed single #
loop $-1 $-1 $203 $80 #
plane-surface $-1 0 -27.437516217702374 0 0 1 0 0 0 1 forward_v I I I I #
coedge $-1 $204 $205 $206 $207 forward $81 $-1 #
coedge $-1 $208 $83 $209 $210 forward $51 $-1 #
coedge $-1 $83 $208 $211 $212 forward $51 $-1 #
coedge $-1 $213 $214 $83 $131 reversed $215 $-1 #
edge $-1 $216 -27.437516217702374 $217 27.437516217702374 $130 $218 forward 7 unknown #
face $-1 $219 $220 $31 $-1 $221 reversed single #
loop $-1 $-1 $222 $84 #
plane-surface $-1 -54.952848902859586 0 0 1 0 0 0 0 -1 forward_v I I I I #
coedge $-1 $223 $224 $225 $226 reversed $85 $-1 #
coedge $-1 $227 $87 $228 $229 reversed $54 $-1 #
coedge $-1 $87 $227 $223 $230 forward $54 $-1 #
coedge $-1 $225 $231 $87 $139 forward $232 $-1 #
edge $-1 $233 -15.083663692463631 $234 -9.6240413580138551 $138 $235 forward 7 unknown #
face $-1 $236 $237 $32 $-1 $238 forward single #
loop $-1 $-1 $239 $88 #
plane-surface $-1 -111.55846867535212 -11.857006028730821 95.395646456751479 0 -1 0 0.51503808176128008 0 -0.85716729658548041 forward_v I I I I #
coedge $-1 $240 $241 $242 $243 reversed $89 $-1 #
coedge $-1 $145 $91 $244 $245 reversed $57 $-1 #
coedge $-1 $91 $144 $240 $246 reversed $57 $-1 #
coedge $-1 $242 $247 $91 $147 forward $237 $-1 #
edge $-1 $248 0.82638543481647275 $249 8.774923741224498 $146 $250 forward 7 unknown #
loop $-1 $-1 $153 $92 #
plane-surface $-1 -54.952848902859586 -15.748779009116994 1.1880765892824172 -0.51503808176128008 0 0.85716729658548041 0.85716729658548041 0 0.51503808176128008 forward_v I I I I #
loop $-1 $-1 $251 $59 #
coedge $-1 $151 $151 $152 $252 reversed $93 $-1 #
coedge $-1 $152 $152 $151 $252 forward $95 $-1 #
coedge $-1 $153 $153 $96 $154 forward $148 $-1 #
edge $-1 $253 0 $253 6.2831853071796004 $153 $254 forward 7 unknown #
face $-1 $255 $256 $34 $-1 $257 forward single #
loop $-1 $-1 $258 $97 #
plane-surface $-1 -111.55846867535212 0.46205408883043653 95.395646456751479 0 -1 0 0.51503808176128008 0 -0.85716729658548041 forward_v I I I I #
coedge $-1 $259 $260 $261 $262 reversed $98 $-1 #
coedge $-1 $160 $100 $263 $264 reversed $63 $-1 #
coedge $-1 $100 $159 $259 $265 reversed $63 $-1 #
coedge $-1 $261 $266 $100 $162 forward $256 $-1 #
edge $-1 $267 0.82638543481647275 $268 8.774923741224498 $161 $269 forward 7 unknown #
loop $-1 $-1 $168 $101 #
plane-surface $-1 -54.952848902859586 -3.4297188915557371 1.1880765892824172 -0.51503808176128008 0 0.85716729658548041 0.85716729658548041 0 0.51503808176128008 forward_v I I I I #
loop $-1 $-1 $270 $65 #
coedge $-1 $166 $166 $167 $271 reversed $102 $-1 #
coedge $-1 $167 $167 $166 $271 forward $104 $-1 #
coedge $-1 $168 $168 $105 $169 forward $163 $-1 #
edge $-1 $272 0 $272 6.2831853071796004 $168 $273 forward 7 unknown #
face $-1 $274 $275 $36 $-1 $276 forward single #
loop $-1 $-1 $277 $106 #
plane-surface $-1 -111.55846867535212 12.781114206391694 95.395646456751479 0 -1 0 0.51503808176128008 0 -0.85716729658548041 forward_v I I I I #
coedge $-1 $278 $279 $280 $281 reversed $107 $-1 #
coedge $-1 $175 $109 $282 $283 reversed $69 $-1 #
coedge $-1 $109 $174 $278 $284 reversed $69 $-1 #
coedge $-1 $280 $285 $109 $177 forward $275 $-1 #
edge $-1 $286 0.82638543481647275 $287 8.774923741224498 $176 $288 forward 7 unknown #
loop $-1 $-1 $183 $110 #
plane-surface $-1 -54.952848902859586 8.88934122600552 1.1880765892824172 -0.51503808176128008 0 0.85716729658548041 0.85716729658548041 0 0.51503808176128008 forward_v I I I I #
loop $-1 $-1 $289 $71 #
coedge $-1 $181 $181 $182 $290 reversed $111 $-1 #
coedge $-1 $182 $182 $181 $290 forward $113 $-1 #
coedge $-1 $183 $183 $114 $184 forward $178 $-1 #
edge $-1 $291 0 $291 6.2831853071796004 $183 $292 forward 7 unknown #
face $-1 $293 $294 $38 $-1 $295 forward single #
loop $-1 $-1 $296 $115 #
plane-surface $-1 -111.55846867535212 25.100174323952949 95.395646456751479 0 -1 0 0.51503808176128008 0 -0.85716729658548041 forward_v I I I I #
coedge $-1 $297 $298 $299 $300 reversed $116 $-1 #
coedge $-1 $190 $118 $301 $302 reversed $75 $-1 #
coedge $-1 $118 $189 $297 $303 reversed $75 $-1 #
coedge $-1 $299 $304 $118 $192 forward $294 $-1 #
edge $-1 $305 0.82638543481647275 $306 8.774923741224498 $191 $307 forward 7 unknown #
loop $-1 $-1 $198 $119 #
plane-surface $-1 -54.952848902859586 21.208401343566777 1.1880765892824172 -0.51503808176128008 0 0.85716729658548041 0.85716729658548041 0 0.51503808176128008 forward_v I I I I #
loop $-1 $-1 $308 $77 #
coedge $-1 $196 $196 $197 $309 reversed $120 $-1 #
coedge $-1 $197 $197 $196 $309 forward $122 $-1 #
coedge $-1 $198 $198 $123 $199 forward $193 $-1 #
edge $-1 $310 0 $310 6.2831853071796004 $198 $311 forward 7 unknown #
face $-1 $312 $313 $30 $-1 $314 reversed single #
loop $-1 $-1 $315 $124 #
plane-surface $-1 -54.952848902859586 0 0 1 0 0 0 0 -1 forward_v I I I I #
coedge $-1 $316 $211 $317 $318 forward $125 $-1 #
coedge $-1 $319 $127 $316 $320 forward $81 $-1 #
coedge $-1 $127 $319 $321 $322 forward $81 $-1 #
coedge $-1 $214 $213 $127 $207 reversed $215 $-1 #
edge $-1 $323 -27.437516217702374 $324 27.437516217702374 $206 $325 forward 7 unknown #
coedge $-1 $129 $128 $326 $327 forward $51 $-1 #
coedge $-1 $328 $329 $128 $210 reversed $313 $-1 #
edge $-1 $217 -54.952848902859586 $330 54.952848902859586 $209 $331 forward 7 unknown #
coedge $-1 $203 $332 $129 $212 reversed $125 $-1 #
edge $-1 $333 -54.952848902859586 $216 54.952848902859586 $211 $334 forward 7 unknown #
coedge $-1 $206 $130 $332 $335 forward $215 $-1 #
coedge $-1 $130 $206 $328 $336 reversed $215 $-1 #
loop $-1 $-1 $213 $312 #
vertex $-1 $131 $337 #
vertex $-1 $131 $338 #
straight-curve $-1 54.952848902859586 0 5.9640403229036885 0 1 0 I I #
face $-1 $339 $340 $31 $-1 $341 forward single #
loop $-1 $-1 $228 $132 #
plane-surface $-1 0 -27.437516217702374 0 0 1 0 0 0 1 forward_v I I I I #
coedge $-1 $342 $343 $344 $345 forward $133 $-1 #
coedge $-1 $344 $135 $137 $230 reversed $85 $-1 #
coedge $-1 $135 $344 $346 $347 reversed $85 $-1 #
coedge $-1 $348 $138 $135 $226 forward $232 $-1 #
edge $-1 $234 0.60857164286155641 $349 3.7731696676486068 $225 $350 forward 7 unknown #
coedge $-1 $137 $136 $342 $351 reversed $54 $-1 #
coedge $-1 $352 $353 $136 $229 forward $220 $-1 #
edge $-1 $354 -54.952848902859586 $233 54.952848902859586 $228 $355 forward 7 unknown #
edge $-1 $356 -54.952848902859586 $234 54.952848902859586 $223 $357 forward 7 unknown #
coedge $-1 $138 $348 $352 $358 forward $232 $-1 #
loop $-1 $-1 $225 $339 #
vertex $-1 $229 $359 #
vertex $-1 $139 $360 #
straight-curve $-1 54.952848902859586 -12.353852525238743 2.799442298116638 0 1 0 I I #
face $-1 $-1 $361 $32 $-1 $362 reversed single #
loop $-1 $-1 $146 $140 #
plane-surface $-1 0 0 5.9640403229036885 0 0 1 1 0 0 forward_v I I I I #
coedge $-1 $363 $364 $365 $366 reversed $141 $-1 #
coedge $-1 $367 $143 $145 $246 forward $89 $-1 #
coedge $-1 $143 $367 $363 $368 forward $89 $-1 #
coedge $-1 $365 $146 $143 $243 forward $237 $-1 #
edge $-1 $249 -11.766162484944669 $369 -3.9826165241723235 $242 $370 forward 7 unknown #
coedge $-1 $371 $372 $144 $245 forward $361 $-1 #
edge $-1 $373 -46.509746639093322 $248 -41.733782905472054 $244 $374 forward 7 unknown #
edge $-1 $249 -9.2730302918356404 $373 0 $145 $375 forward 7 unknown #
coedge $-1 $146 $365 $371 $376 forward $237 $-1 #
vertex $-1 $245 $377 #
vertex $-1 $147 $378 #
straight-curve $-1 -55.779234337676058 -19.640551989503166 5.9640403229036849 1 0 0 I I #
coedge $-1 $251 $251 $-1 $379 reversed $150 $-1 #
edge $-1 $380 0 $380 6.2831853071796004 $151 $381 forward 7 unknown #
vertex $-1 $154 $382 #
ellipse-curve $-1 -50.978579749655573 -15.748779009116994 3.5760584560930528 -0.51503808176128008 0 0.85716729658548041 0.85716729658548041 0 0.51503808176128008 1 I I #
face $-1 $-1 $383 $34 $-1 $384 reversed single #
loop $-1 $-1 $161 $155 #
plane-surface $-1 0 0 5.9640403229036885 0 0 1 1 0 0 forward_v I I I I #
coedge $-1 $385 $386 $387 $388 reversed $156 $-1 #
coedge $-1 $389 $158 $160 $265 forward $98 $-1 #
coedge $-1 $158 $389 $385 $390 forward $98 $-1 #
coedge $-1 $387 $161 $158 $262 forward $256 $-1 #
edge $-1 $268 -5.6066324261640421 $391 2.1769135346083051 $261 $392 forward 7 unknown #
coedge $-1 $393 $394 $159 $264 forward $383 $-1 #
edge $-1 $395 -46.509746639093322 $267 -41.733782905472054 $263 $396 forward 7 unknown #
edge $-1 $268 -9.2730302918356404 $395 0 $160 $397 forward 7 unknown #
coedge $-1 $161 $387 $393 $398 forward $256 $-1 #
vertex $-1 $162 $399 #
vertex $-1 $162 $400 #
straight-curve $-1 -55.779234337676058 -7.3214918719419106 5.9640403229036849 1 0 0 I I #
coedge $-1 $270 $270 $-1 $401 reversed $165 $-1 #
edge $-1 $402 0 $402 6.2831853071796004 $166 $403 forward 7 unknown #
vertex $-1 $169 $404 #
ellipse-curve $-1 -50.978579749655573 -3.4297188915557371 3.5760584560930528 -0.51503808176128008 0 0.85716729658548041 0.85716729658548041 0 0.51503808176128008 1 I I #
face $-1 $-1 $405 $36 $-1 $406 reversed single #
loop $-1 $-1 $176 $170 #
plane-surface $-1 0 0 5.9640403229036885 0 0 1 1 0 0 forward_v I I I I #
coedge $-1 $407 $408 $409 $410 reversed $171 $-1 #
coedge $-1 $411 $173 $175 $284 forward $107 $-1 #
coedge $-1 $173 $411 $407 $412 forward $107 $-1 #
coedge $-1 $409 $176 $173 $281 forward $275 $-1 #
edge $-1 $287 0.55289763261658642 $413 8.3364435933889336 $280 $414 forward 7 unknown #
coedge $-1 $415 $416 $174 $283 forward $405 $-1 #
edge $-1 $417 -46.509746639093322 $286 -41.733782905472054 $282 $418 forward 7 unknown #
edge $-1 $287 -9.2730302918356404 $417 0 $175 $419 forward 7 unknown #
coedge $-1 $176 $409 $415 $420 forward $275 $-1 #
vertex $-1 $177 $421 #
vertex $-1 $177 $422 #
straight-curve $-1 -55.779234337676058 4.9975682456193464 5.9640403229036849 1 0 0 I I #
coedge $-1 $289 $289 $-1 $423 reversed $180 $-1 #
edge $-1 $424 0 $424 6.2831853071796004 $181 $425 forward 7 unknown #
vertex $-1 $184 $426 #
ellipse-curve $-1 -50.978579749655573 8.88934122600552 3.5760584560930528 -0.51503808176128008 0 0.85716729658548041 0.85716729658548041 0 0.51503808176128008 1 I I #
face $-1 $-1 $427 $38 $-1 $428 reversed single #
loop $-1 $-1 $191 $185 #
plane-surface $-1 0 0 5.9640403229036885 0 0 1 1 0 0 forward_v I I I I #
coedge $-1 $429 $430 $431 $432 reversed $186 $-1 #
coedge $-1 $433 $188 $190 $303 forward $116 $-1 #
coedge $-1 $188 $433 $429 $434 forward $116 $-1 #
coedge $-1 $431 $191 $188 $300 forward $294 $-1 #
edge $-1 $306 6.7124276913972167 $435 14.49597365216956 $299 $436 forward 7 unknown #
coedge $-1 $437 $438 $189 $302 forward $427 $-1 #
edge $-1 $439 -46.509746639093322 $305 -41.733782905472054 $301 $440 forward 7 unknown #
edge $-1 $306 -9.2730302918356404 $439 0 $190 $441 forward 7 unknown #
coedge $-1 $191 $431 $437 $442 forward $294 $-1 #
vertex $-1 $192 $443 #
vertex $-1 $192 $444 #
straight-curve $-1 -55.779234337676058 17.316628363180605 5.9640403229036849 1 0 0 I I #
coedge $-1 $308 $308 $-1 $445 reversed $195 $-1 #
edge $-1 $446 0 $446 6.2831853071796004 $196 $447 forward 7 unknown #
vertex $-1 $199 $448 #
ellipse-curve $-1 -50.978579749655573 21.208401343566777 3.5760584560930528 -0.51503808176128008 0 0.85716729658548041 0.85716729658548041 0 0.51503808176128008 1 I I #
face $-1 $-1 $215 $30 $-1 $449 reversed single #
loop $-1 $-1 $328 $200 #
plane-surface $-1 0 27.437516217702374 0 0 -1 0 0 0 -1 forward_v I I I I #
coedge $-1 $450 $326 $329 $451 forward $201 $-1 #
coedge $-1 $332 $203 $204 $320 reversed $125 $-1 #
coedge $-1 $326 $450 $203 $318 reversed $201 $-1 #
edge $-1 $333 -5.9640403229036885 $452 5.9640403229036885 $317 $453 forward 7 unknown #
coedge $-1 $205 $204 $450 $454 forward $81 $-1 #
edge $-1 $324 -54.952848902859586 $452 54.952848902859586 $316 $455 forward 7 unknown #
coedge $-1 $329 $328 $205 $322 reversed $313 $-1 #
edge $-1 $456 -54.952848902859586 $323 54.952848902859586 $321 $457 forward 7 unknown #
vertex $-1 $207 $458 #
vertex $-1 $335 $459 #
straight-curve $-1 54.952848902859586 0 -5.9640403229036885 0 -1 0 I I #
coedge $-1 $315 $317 $208 $327 reversed $201 $-1 #
edge $-1 $330 -27.437516217702374 $333 27.437516217702374 $326 $460 forward 7 unknown #
coedge $-1 $321 $209 $214 $336 forward $313 $-1 #
coedge $-1 $209 $321 $315 $451 reversed $313 $-1 #
vertex $-1 $210 $461 #
straight-curve $-1 0 27.437516217702374 5.9640403229036885 -1 0 0 I I #
coedge $-1 $211 $316 $213 $335 reversed $125 $-1 #
vertex $-1 $327 $462 #
straight-curve $-1 0 -27.437516217702374 5.9640403229036885 1 0 0 I I #
edge $-1 $216 -5.9640403229036885 $324 5.9640403229036885 $213 $463 forward 7 unknown #
edge $-1 $217 -5.9640403229036885 $323 5.9640403229036885 $214 $464 forward 7 unknown #
point $-1 54.952848902859586 -27.437516217702374 5.9640403229036885 #
point $-1 54.952848902859586 27.437516217702374 5.9640403229036885 #
face $-1 $-1 $232 $31 $-1 $465 reversed single #
loop $-1 $-1 $346 $219 #
plane-surface $-1 0 0 5.9640403229036885 0 0 1 1 0 0 forward_v I I I I #
coedge $-1 $466 $222 $227 $351 forward $133 $-1 #
coedge $-1 $222 $466 $467 $468 reversed $133 $-1 #
coedge $-1 $224 $223 $222 $345 reversed $85 $-1 #
edge $-1 $469 -3.7731696676486068 $356 -0.60857164286155641 $222 $470 forward 7 unknown #
coedge $-1 $467 $471 $224 $347 forward $340 $-1 #
edge $-1 $349 -54.952848902859586 $469 54.952848902859586 $346 $472 forward 7 unknown #
coedge $-1 $231 $225 $471 $473 reversed $232 $-1 #
vertex $-1 $226 $474 #
straight-curve $-1 54.952848902859586 -21.977893883252598 2.1908706552550816 0 0 1 I I #
edge $-1 $356 9.6240413580138551 $354 15.083663692463631 $342 $475 forward 7 unknown #
coedge $-1 $476 $228 $231 $358 reversed $220 $-1 #
coedge $-1 $228 $476 $466 $477 forward $220 $-1 #
vertex $-1 $229 $478 #
straight-curve $-1 0 -27.437516217702374 2.799442298116638 1 0 0 I I #
vertex $-1 $351 $479 #
straight-curve $-1 0 -21.977893883252598 2.799442298116638 1 0 0 I I #
edge $-1 $480 -5.9640403229036885 $233 -2.799442298116638 $231 $481 forward 7 unknown #
point $-1 54.952848902859586 -27.437516217702374 2.799442298116638 #
point $-1 54.952848902859586 -21.977893883252598 2.799442298116638 #
loop $-1 $-1 $244 $236 #
plane-surface $-1 -54.952848902859586 0 0 1 0 0 0 0 -1 forward_v I I I I #
coedge $-1 $364 $239 $241 $368 reversed $141 $-1 #
coedge $-1 $239 $363 $482 $483 reversed $141 $-1 #
coedge $-1 $247 $242 $239 $366 forward $237 $-1 #
edge $-1 $369 -8.774923741224498 $484 -0.82638543481647275 $365 $485 forward 7 unknown #
coedge $-1 $241 $240 $372 $486 reversed $89 $-1 #
edge $-1 $487 0 $369 9.2730302918356404 $363 $488 forward 7 unknown #
vertex $-1 $243 $489 #
straight-curve $-1 -47.00431059645156 -7.8743895045584971 5.9640403229036876 0 1 0 I I #
coedge $-1 $482 $244 $247 $376 reversed $361 $-1 #
coedge $-1 $244 $482 $367 $486 forward $361 $-1 #
vertex $-1 $245 $490 #
straight-curve $-1 -54.952848902859586 -19.640551989503166 47.697823228375739 0 0 1 I I #
straight-curve $-1 -54.952848902859586 -19.640551989503166 1.1880765892824172 -0.85716729658548041 0 -0.51503808176128008 I I #
edge $-1 $484 11.857006028730821 $248 19.640551989503166 $371 $491 forward 7 unknown #
point $-1 -54.952848902859586 -19.640551989503166 5.9640403229036885 #
point $-1 -47.00431059645156 -19.640551989503166 5.9640403229036885 #
edge $-1 $492 1 $492 0 $251 $-1 forward 7 unknown #
vertex $-1 $252 $493 #
ellipse-curve $-1 -50.200890636483699 -15.748779009116994 2.2817664448268467 -0.51503808176128008 0 0.85716729658548041 0.85716729658548041 0 0.51503808176128008 1 I I #
point $-1 -50.121412453070093 -15.748779009116994 4.0910965378543338 #
loop $-1 $-1 $263 $255 #
plane-surface $-1 -54.952848902859586 0 0 1 0 0 0 0 -1 forward_v I I I I #
coedge $-1 $386 $258 $260 $390 reversed $156 $-1 #
coedge $-1 $258 $385 $494 $495 reversed $156 $-1 #
coedge $-1 $266 $261 $258 $388 forward $256 $-1 #
edge $-1 $391 -8.774923741224498 $496 -0.82638543481647275 $387 $497 forward 7 unknown #
coedge $-1 $260 $259 $394 $498 reversed $98 $-1 #
edge $-1 $499 0 $391 9.2730302918356404 $385 $500 forward 7 unknown #
vertex $-1 $262 $501 #
straight-curve $-1 -47.00431059645156 -1.7148594457778685 5.9640403229036876 0 1 0 I I #
coedge $-1 $494 $263 $266 $398 reversed $383 $-1 #
coedge $-1 $263 $494 $389 $498 forward $383 $-1 #
vertex $-1 $264 $502 #
straight-curve $-1 -54.952848902859586 -7.3214918719419106 47.697823228375739 0 0 1 I I #
straight-curve $-1 -54.952848902859586 -7.3214918719419106 1.1880765892824172 -0.85716729658548041 0 -0.51503808176128008 I I #
edge $-1 $496 -0.46205408883043653 $267 7.3214918719419106 $393 $503 forward 7 unknown #
point $-1 -54.952848902859586 -7.3214918719419106 5.9640403229036885 #
point $-1 -47.00431059645156 -7.3214918719419106 5.9640403229036885 #
edge $-1 $504 1 $504 0 $270 $-1 forward 7 unknown #
vertex $-1 $271 $505 #
ellipse-curve $-1 -50.200890636483699 -3.4297188915557371 2.2817664448268467 -0.51503808176128008 0 0.85716729658548041 0.85716729658548041 0 0.51503808176128008 1 I I #
point $-1 -50.121412453070093 -3.4297188915557371 4.0910965378543338 #
loop $-1 $-1 $282 $274 #
plane-surface $-1 -54.952848902859586 0 0 1 0 0 0 0 -1 forward_v I I I I #
coedge $-1 $408 $277 $279 $412 reversed $171 $-1 #
coedge $-1 $277 $407 $506 $507 reversed $171 $-1 #
coedge $-1 $285 $280 $277 $410 forward $275 $-1 #
edge $-1 $413 -8.774923741224498 $508 -0.82638543481647275 $409 $509 forward 7 unknown #
coedge $-1 $279 $278 $416 $510 reversed $107 $-1 #
edge $-1 $511 0 $413 9.2730302918356404 $407 $512 forward 7 unknown #
vertex $-1 $281 $513 #
straight-curve $-1 -47.00431059645156 4.44467061300276 5.9640403229036876 0 1 0 I I #
coedge $-1 $506 $282 $285 $420 reversed $405 $-1 #
coedge $-1 $282 $506 $411 $510 forward $405 $-1 #
vertex $-1 $283 $514 #
straight-curve $-1 -54.952848902859586 4.9975682456193464 47.697823228375739 0 0 1 I I #
straight-curve $-1 -54.952848902859586 4.9975682456193464 1.1880765892824172 -0.85716729658548041 0 -0.51503808176128008 I I #
edge $-1 $508 -12.781114206391694 $286 -4.9975682456193464 $415 $515 forward 7 unknown #
point $-1 -54.952848902859586 4.9975682456193464 5.9640403229036885 #
point $-1 -47.00431059645156 4.9975682456193464 5.9640403229036885 #
edge $-1 $516 1 $516 0 $289 $-1 forward 7 unknown #
vertex $-1 $290 $517 #
ellipse-curve $-1 -50.200890636483699 8.88934122600552 2.2817664448268467 -0.51503808176128008 0 0.85716729658548041 0.85716729658548041 0 0.51503808176128008 1 I I #
point $-1 -50.121412453070093 8.88934122600552 4.0910965378543338 #
loop $-1 $-1 $301 $293 #
plane-surface $-1 -54.952848902859586 0 0 1 0 0 0 0 -1 forward_v I I I I #
coedge $-1 $430 $296 $298 $434 reversed $186 $-1 #
coedge $-1 $296 $429 $518 $519 reversed $186 $-1 #
coedge $-1 $304 $299 $296 $432 forward $294 $-1 #
edge $-1 $435 -8.774923741224498 $520 -0.82638543481647275 $431 $521 forward 7 unknown #
coedge $-1 $298 $297 $438 $522 reversed $116 $-1 #
edge $-1 $523 0 $435 9.2730302918356404 $429 $524 forward 7 unknown #
vertex $-1 $300 $525 #
straight-curve $-1 -47.00431059645156 10.604200671783389 5.9640403229036876 0 1 0 I I #
coedge $-1 $518 $301 $304 $442 reversed $427 $-1 #
coedge $-1 $301 $518 $433 $522 forward $427 $-1 #
vertex $-1 $302 $526 #
straight-curve $-1 -54.952848902859586 17.316628363180605 47.697823228375739 0 0 1 I I #
straight-curve $-1 -54.952848902859586 17.316628363180605 1.1880765892824172 -0.85716729658548041 0 -0.51503808176128008 I I #
edge $-1 $520 -25.100174323952949 $305 -17.316628363180605 $437 $527 forward 7 unknown #
point $-1 -54.952848902859586 17.316628363180605 5.9640403229036885 #
point $-1 -47.00431059645156 17.316628363180605 5.9640403229036885 #
edge $-1 $528 1 $528 0 $308 $-1 forward 7 unknown #
vertex $-1 $309 $529 #
ellipse-curve $-1 -50.200890636483699 21.208401343566777 2.2817664448268467 -0.51503808176128008 0 0.85716729658548041 0.85716729658548041 0 0.51503808176128008 1 I I #
point $-1 -50.121412453070093 21.208401343566777 4.0910965378543338 #
plane-surface $-1 54.952848902859586 0 0 -1 0 0 0 0 1 forward_v I I I I #
coedge $-1 $317 $315 $319 $454 reversed $201 $-1 #
edge $-1 $330 -5.9640403229036885 $456 5.9640403229036885 $329 $530 forward 7 unknown #
vertex $-1 $454 $531 #
straight-curve $-1 -54.952848902859586 -27.437516217702374 0 0 0 -1 I I #
edge $-1 $452 -27.437516217702374 $456 27.437516217702374 $450 $532 forward 7 unknown #
straight-curve $-1 0 -27.437516217702374 -5.9640403229036885 -1 0 0 I I #
vertex $-1 $322 $533 #
straight-curve $-1 0 27.437516217702374 -5.9640403229036885 1 0 0 I I #
point $-1 54.952848902859586 27.437516217702374 -5.9640403229036885 #
point $-1 54.952848902859586 -27.437516217702374 -5.9640403229036885 #
straight-curve $-1 -54.952848902859586 0 5.9640403229036885 0 -1 0 I I #
point $-1 -54.952848902859586 27.437516217702374 5.9640403229036885 #
point $-1 -54.952848902859586 -27.437516217702374 5.9640403229036885 #
straight-curve $-1 54.952848902859586 -27.437516217702374 0 0 0 -1 I I #
straight-curve $-1 54.952848902859586 27.437516217702374 0 0 0 -1 I I #
plane-surface $-1 54.952848902859586 0 0 -1 0 0 0 0 1 forward_v I I I I #
coedge $-1 $343 $342 $353 $477 reversed $133 $-1 #
coedge $-1 $534 $346 $343 $468 forward $340 $-1 #
edge $-1 $469 21.977893883252598 $535 27.437516217702374 $343 $536 forward 7 unknown #
vertex $-1 $468 $537 #
straight-curve $-1 -54.952848902859586 -21.977893883252598 2.1908706552550816 0 0 -1 I I #
coedge $-1 $346 $534 $348 $473 forward $340 $-1 #
straight-curve $-1 0 -21.977893883252598 5.9640403229036885 -1 0 0 I I #
edge $-1 $480 -27.437516217702374 $349 -21.977893883252598 $348 $538 forward 7 unknown #
point $-1 54.952848902859586 -21.977893883252598 5.9640403229036885 #
straight-curve $-1 -54.952848902859586 -12.353852525238743 2.799442298116638 0 -1 0 I I #
coedge $-1 $353 $352 $534 $539 reversed $220 $-1 #
edge $-1 $535 -5.9640403229036885 $354 -2.799442298116638 $466 $540 forward 7 unknown #
point $-1 -54.952848902859586 -27.437516217702374 2.799442298116638 #
point $-1 -54.952848902859586 -21.977893883252598 2.799442298116638 #
vertex $-1 $473 $541 #
straight-curve $-1 54.952848902859586 -27.437516217702374 0 0 0 -1 I I #
coedge $-1 $372 $371 $364 $483 forward $361 $-1 #
edge $-1 $484 41.733782905472054 $487 46.509746639093322 $482 $542 forward 7 unknown #
vertex $-1 $376 $543 #
straight-curve $-1 -55.779234337676058 -11.857006028730821 5.9640403229036849 -1 0 0 I I #
edge $-1 $487 3.9826165241723235 $373 11.766162484944669 $372 $544 forward 7 unknown #
vertex $-1 $486 $545 #
straight-curve $-1 -54.952848902859586 -11.857006028730821 1.1880765892824172 0.85716729658548041 0 0.51503808176128008 I I #
point $-1 -47.00431059645156 -11.857006028730821 5.9640403229036885 #
point $-1 -54.952848902859586 -19.640551989503166 1.1880765892824172 #
straight-curve $-1 -54.952848902859586 0 5.9640403229036885 0 -1 0 I I #
vertex $-1 $379 $546 #
point $-1 -49.343723339898219 -15.748779009116994 2.7968045265881267 #
coedge $-1 $394 $393 $386 $495 forward $383 $-1 #
edge $-1 $496 41.733782905472054 $499 46.509746639093322 $494 $547 forward 7 unknown #
vertex $-1 $398 $548 #
straight-curve $-1 -55.779234337676058 0.46205408883043653 5.9640403229036849 -1 0 0 I I #
edge $-1 $499 -2.1769135346083051 $395 5.6066324261640421 $394 $549 forward 7 unknown #
vertex $-1 $498 $550 #
straight-curve $-1 -54.952848902859586 0.46205408883043653 1.1880765892824172 0.85716729658548041 0 0.51503808176128008 I I #
point $-1 -47.00431059645156 0.46205408883043653 5.9640403229036885 #
point $-1 -54.952848902859586 -7.3214918719419106 1.1880765892824172 #
straight-curve $-1 -54.952848902859586 0 5.9640403229036885 0 -1 0 I I #
vertex $-1 $401 $551 #
point $-1 -49.343723339898219 -3.4297188915557371 2.7968045265881267 #
coedge $-1 $416 $415 $408 $507 forward $405 $-1 #
edge $-1 $508 41.733782905472054 $511 46.509746639093322 $506 $552 forward 7 unknown #
vertex $-1 $420 $553 #
straight-curve $-1 -55.779234337676058 12.781114206391694 5.9640403229036849 -1 0 0 I I #
edge $-1 $511 -8.3364435933889336 $417 -0.55289763261658642 $416 $554 forward 7 unknown #
vertex $-1 $510 $555 #
straight-curve $-1 -54.952848902859586 12.781114206391694 1.1880765892824172 0.85716729658548041 0 0.51503808176128008 I I #
point $-1 -47.00431059645156 12.781114206391694 5.9640403229036885 #
point $-1 -54.952848902859586 4.9975682456193464 1.1880765892824172 #
straight-curve $-1 -54.952848902859586 0 5.9640403229036885 0 -1 0 I I #
vertex $-1 $423 $556 #
point $-1 -49.343723339898219 8.88934122600552 2.7968045265881267 #
coedge $-1 $438 $437 $430 $519 forward $427 $-1 #
edge $-1 $520 41.733782905472054 $523 46.509746639093322 $518 $557 forward 7 unknown #
vertex $-1 $442 $558 #
straight-curve $-1 -55.779234337676058 25.100174323952949 5.9640403229036849 -1 0 0 I I #
edge $-1 $523 -14.49597365216956 $439 -6.7124276913972167 $438 $559 forward 7 unknown #
vertex $-1 $522 $560 #
straight-curve $-1 -54.952848902859586 25.100174323952949 1.1880765892824172 0.85716729658548041 0 0.51503808176128008 I I #
point $-1 -47.00431059645156 25.100174323952949 5.9640403229036885 #
point $-1 -54.952848902859586 17.316628363180605 1.1880765892824172 #
straight-curve $-1 -54.952848902859586 0 5.9640403229036885 0 -1 0 I I #
vertex $-1 $445 $561 #
point $-1 -49.343723339898219 21.208401343566777 2.7968045265881267 #
straight-curve $-1 -54.952848902859586 27.437516217702374 0 0 0 -1 I I #
point $-1 -54.952848902859586 -27.437516217702374 -5.9640403229036885 #
straight-curve $-1 -54.952848902859586 0 -5.9640403229036885 0 1 0 I I #
point $-1 -54.952848902859586 27.437516217702374 -5.9640403229036885 #
coedge $-1 $471 $467 $476 $539 forward $340 $-1 #
vertex $-1 $468 $562 #
straight-curve $-1 -54.952848902859586 0 5.9640403229036885 0 -1 0 I I #
point $-1 -54.952848902859586 -21.977893883252598 5.9640403229036885 #
straight-curve $-1 54.952848902859586 0 5.9640403229036885 0 1 0 I I #
edge $-1 $535 -54.952848902859586 $480 54.952848902859586 $476 $563 forward 7 unknown #
straight-curve $-1 -54.952848902859586 -27.437516217702374 0 0 0 -1 I I #
point $-1 54.952848902859586 -27.437516217702374 5.9640403229036885 #
straight-curve $-1 -54.952848902859586 -11.857006028730821 47.697823228375739 0 0 -1 I I #
point $-1 -54.952848902859586 -11.857006028730821 5.9640403229036885 #
straight-curve $-1 -54.952848902859586 -7.8743895045584971 1.1880765892824177 0 -1 0 I I #
point $-1 -54.952848902859586 -11.857006028730821 1.1880765892824172 #
point $-1 -49.685852554722423 -15.748779009116994 1.4245991482413665 #
straight-curve $-1 -54.952848902859586 0.46205408883043653 47.697823228375739 0 0 -1 I I #
point $-1 -54.952848902859586 0.46205408883043653 5.9640403229036885 #
straight-curve $-1 -54.952848902859586 -1.7148594457778685 1.1880765892824177 0 -1 0 I I #
point $-1 -54.952848902859586 0.46205408883043653 1.1880765892824172 #
point $-1 -49.685852554722423 -3.4297188915557371 1.4245991482413665 #
straight-curve $-1 -54.952848902859586 12.781114206391694 47.697823228375739 0 0 -1 I I #
point $-1 -54.952848902859586 12.781114206391694 5.9640403229036885 #
straight-curve $-1 -54.952848902859586 4.44467061300276 1.1880765892824177 0 -1 0 I I #
point $-1 -54.952848902859586 12.781114206391694 1.1880765892824172 #
point $-1 -49.685852554722423 8.88934122600552 1.4245991482413665 #
straight-curve $-1 -54.952848902859586 25.100174323952949 47.697823228375739 0 0 -1 I I #
point $-1 -54.952848902859586 25.100174323952949 5.9640403229036885 #
straight-curve $-1 -54.952848902859586 10.604200671783389 1.1880765892824177 0 -1 0 I I #
point $-1 -54.952848902859586 25.100174323952949 1.1880765892824172 #
point $-1 -49.685852554722423 21.208401343566777 1.4245991482413665 #
point $-1 -54.952848902859586 -27.437516217702374 5.9640403229036885 #
straight-curve $-1 0 -27.437516217702374 5.9640403229036885 1 0 0 I I #
End-of-ACIS-data 