500 0 4 0           
7 Unknown 11 ACIS 5.0 NT 24 Thu Mar 25 17:26:46 1999 
-1 9.9999999999999995e-007 1e-010 
body $-1 $4 $-1 $5 #
body $-1 $6 $-1 $7 #
body $-1 $8 $-1 $9 #
body $-1 $10 $-1 $11 #
lump $-1 $-1 $12 $0 #
transform $-1 1 0 0 0 1 0 0 0 1 45.387127292703028 29.175084223174082 11.700573726162084 1 rotate no_reflect no_shear #
lump $-1 $-1 $13 $1 #
transform $-1 1 0 0 0 1 0 0 0 1 45.387127292703028 29.175084223174082 11.700573726162084 1 rotate no_reflect no_shear #
lump $-1 $-1 $14 $2 #
transform $-1 1 0 0 0 1 0 0 0 1 45.387127292703028 29.175084223174082 11.700573726162084 1 rotate no_reflect no_shear #
lump $-1 $-1 $15 $3 #
transform $-1 1 0 0 0 1 0 0 0 1 45.387127292703028 29.175084223174082 11.700573726162084 1 rotate no_reflect no_shear #
shell $-1 $-1 $-1 $16 $-1 $4 #
shell $-1 $-1 $-1 $17 $-1 $6 #
shell $-1 $-1 $-1 $18 $-1 $8 #
shell $-1 $-1 $-1 $19 $-1 $10 #
face $-1 $20 $21 $12 $-1 $22 forward single #
face $-1 $23 $24 $13 $-1 $25 forward single #
face $-1 $26 $27 $14 $-1 $28 reversed single #
face $-1 $29 $30 $15 $-1 $31 forward single #
face $-1 $32 $33 $12 $-1 $34 reversed single #
loop $-1 $-1 $35 $16 #
plane-surface $-1 0 0 11.700573726162084 0 0 1 1 0 0 forward_v I I I I #
face $-1 $36 $37 $13 $-1 $38 reversed single #
loop $-1 $-1 $39 $17 #
plane-surface $-1 -37.833727957106035 0 -7.5204761843304055 0 0 1 1 0 0 forward_v I I I I #
face $-1 $40 $41 $14 $-1 $42 reversed single #
loop $-1 $-1 $43 $18 #
plane-surface $-1 36.320287723747342 48.408366480214227 113.47820276274129 1 0 0 0 -0.68199836817093118 -0.7313536940579346 forward_v I I I I #
face $-1 $44 $45 $15 $-1 $46 forward single #
loop $-1 $47 $48 $19 #
cone-surface $-1 40.853707508225185 25.91140642274647 8.5310401816866666 0 -0.68199836817093118 -0.7313536940579346 1.5 0 0 1 I I 0 1 1.5 forward I I I I #
face $-1 $49 $50 $12 $-1 $51 reversed single #
loop $-1 $-1 $52 $20 #
plane-surface $-1 0 0 -11.700573726162084 0 0 1 1 0 0 forward_v I I I I #
coedge $-1 $53 $54 $55 $56 forward $21 $-1 #
face $-1 $57 $58 $13 $-1 $59 reversed single #
loop $-1 $-1 $60 $23 #
plane-surface $-1 -30.280328621509042 0 -9.6105249552462446 -1 0 0 0 0 1 forward_v I I I I #
coedge $-1 $61 $62 $63 $64 forward $24 $-1 #
face $-1 $65 $66 $14 $-1 $67 reversed single #
loop $-1 $-1 $68 $26 #
plane-surface $-1 40.853707508225185 -13.499527018965367 47.090116346349163 0 0.68199836817093118 0.7313536940579346 1 0 0 forward_v I I I I #
coedge $-1 $69 $70 $71 $72 reversed $27 $-1 #
face $-1 $-1 $73 $15 $-1 $74 forward single #
loop $-1 $75 $76 $29 #
cone-surface $-1 40.853707508225185 24.498216805055321 7.015579888028455 0 -0.68199836817093118 -0.7313536940579346 0.75 0 0 1 I I -0.70710678118654757 0.70710678118654757 0.75 forward I I I I #
loop $-1 $-1 $77 $19 #
coedge $-1 $48 $48 $78 $79 reversed $30 $-1 #
face $-1 $80 $81 $12 $-1 $82 reversed single #
loop $-1 $-1 $83 $32 #
plane-surface $-1 0 -29.175084223174082 0 0 1 0 0 0 1 forward_v I I I I #
coedge $-1 $84 $85 $86 $87 forward $33 $-1 #
coedge $-1 $88 $35 $89 $90 forward $21 $-1 #
coedge $-1 $35 $88 $91 $92 forward $21 $-1 #
coedge $-1 $93 $94 $35 $56 reversed $95 $-1 #
edge $-1 $96 -29.175084223174082 $97 29.175084223174082 $55 $98 forward 7 unknown #
face $-1 $99 $100 $13 $-1 $101 reversed single #
loop $-1 $-1 $102 $36 #
plane-surface $-1 0 0 -11.700573726162084 0 0 1 1 0 0 forward_v I I I I #
coedge $-1 $103 $63 $104 $105 reversed $37 $-1 #
coedge $-1 $106 $39 $107 $108 reversed $24 $-1 #
coedge $-1 $39 $106 $109 $110 reversed $24 $-1 #
coedge $-1 $60 $111 $39 $64 reversed $37 $-1 #
edge $-1 $112 -29.175084223174082 $113 29.175084223174082 $63 $114 forward 7 unknown #
face $-1 $115 $116 $14 $-1 $117 reversed single #
loop $-1 $-1 $118 $40 #
plane-surface $-1 45.387127292703028 0 0 -1 0 0 0 0 1 forward_v I I I I #
coedge $-1 $119 $120 $121 $122 reversed $41 $-1 #
coedge $-1 $70 $43 $123 $124 reversed $27 $-1 #
coedge $-1 $43 $69 $119 $125 reversed $27 $-1 #
coedge $-1 $121 $126 $43 $72 forward $127 $-1 #
edge $-1 $128 -4.9709009830669686 $129 -0.24692706533764408 $71 $130 forward 7 unknown #
loop $-1 $-1 $78 $44 #
plane-surface $-1 40.853707508225185 -13.499527018965367 47.090116346349163 0 0.68199836817093118 0.7313536940579346 1 0 0 forward_v I I I I #
loop $-1 $-1 $131 $29 #
coedge $-1 $76 $76 $77 $132 reversed $45 $-1 #
coedge $-1 $77 $77 $76 $132 forward $47 $-1 #
coedge $-1 $78 $78 $48 $79 forward $73 $-1 #
edge $-1 $133 -1.8490904095475431e-015 $133 6.2831853071795987 $78 $134 forward 7 unknown #
face $-1 $135 $136 $12 $-1 $137 reversed single #
loop $-1 $-1 $138 $49 #
plane-surface $-1 -45.387127292703028 0 0 1 0 0 0 0 -1 forward_v I I I I #
coedge $-1 $139 $91 $140 $141 forward $50 $-1 #
coedge $-1 $142 $52 $139 $143 forward $33 $-1 #
coedge $-1 $52 $142 $144 $145 forward $33 $-1 #
coedge $-1 $94 $93 $52 $87 reversed $95 $-1 #
edge $-1 $146 -29.175084223174082 $147 29.175084223174082 $86 $148 forward 7 unknown #
coedge $-1 $54 $53 $149 $150 forward $21 $-1 #
coedge $-1 $151 $152 $53 $90 reversed $136 $-1 #
edge $-1 $97 -45.387127292703028 $153 45.387127292703028 $89 $154 forward 7 unknown #
coedge $-1 $83 $155 $54 $92 reversed $50 $-1 #
edge $-1 $156 -45.387127292703028 $96 45.387127292703028 $91 $157 forward 7 unknown #
coedge $-1 $86 $55 $155 $158 forward $95 $-1 #
coedge $-1 $55 $86 $151 $159 reversed $95 $-1 #
loop $-1 $-1 $93 $135 #
vertex $-1 $56 $160 #
vertex $-1 $56 $161 #
straight-curve $-1 45.387127292703028 0 11.700573726162084 0 1 0 I I #
face $-1 $162 $163 $13 $-1 $164 reversed single #
loop $-1 $-1 $104 $57 #
plane-surface $-1 0 -29.175084223174082 0 0 1 0 0 0 1 forward_v I I I I #
coedge $-1 $165 $166 $103 $167 forward $58 $-1 #
coedge $-1 $111 $60 $102 $167 reversed $37 $-1 #
coedge $-1 $109 $168 $60 $105 forward $100 $-1 #
edge $-1 $169 -6.8953112485389614 $112 -2.7152137067072832 $104 $170 forward 7 unknown #
coedge $-1 $62 $61 $171 $172 reversed $24 $-1 #
coedge $-1 $173 $174 $61 $108 forward $175 $-1 #
edge $-1 $176 -26.47026331415001 $113 -11.363464642956025 $107 $177 forward 7 unknown #
coedge $-1 $178 $104 $62 $110 forward $100 $-1 #
edge $-1 $112 11.363464642956025 $179 26.47026331415001 $109 $180 forward 7 unknown #
coedge $-1 $63 $103 $173 $181 reversed $37 $-1 #
vertex $-1 $110 $182 #
vertex $-1 $108 $183 #
straight-curve $-1 -30.280328621509042 0 -7.5204761843304055 0 1 0 I I #
face $-1 $-1 $127 $14 $-1 $184 forward single #
loop $-1 $-1 $185 $65 #
plane-surface $-1 0 29.175084223174082 0 0 -1 0 0 0 -1 forward_v I I I I #
coedge $-1 $186 $187 $120 $188 forward $66 $-1 #
coedge $-1 $189 $68 $70 $125 forward $41 $-1 #
coedge $-1 $68 $189 $118 $188 reversed $41 $-1 #
coedge $-1 $190 $71 $68 $122 forward $127 $-1 #
edge $-1 $129 15.893433969634749 $191 24.960273538590435 $121 $192 forward 7 unknown #
coedge $-1 $193 $185 $69 $124 forward $116 $-1 #
edge $-1 $194 -49.443704697929874 $128 -45.038527655208561 $123 $195 forward 7 unknown #
edge $-1 $129 51.890949116343485 $194 58.350168446348142 $70 $196 forward 7 unknown #
coedge $-1 $71 $190 $193 $197 forward $127 $-1 #
loop $-1 $-1 $121 $115 #
vertex $-1 $124 $198 #
vertex $-1 $72 $199 #
straight-curve $-1 36.320287723747342 24.204183240107113 11.700573726162084 0 -1 0 I I #
coedge $-1 $131 $131 $-1 $200 reversed $75 $-1 #
edge $-1 $201 0 $201 6.2831853071796004 $76 $202 forward 7 unknown #
vertex $-1 $79 $203 #
ellipse-curve $-1 40.853707508225185 26.813097264309423 9.4979852048014308 0 0.68199836817093118 0.7313536940579346 1.5 0 0 1 I I #
face $-1 $-1 $95 $12 $-1 $204 reversed single #
loop $-1 $-1 $151 $80 #
plane-surface $-1 0 29.175084223174082 0 0 -1 0 0 0 -1 forward_v I I I I #
coedge $-1 $205 $149 $152 $206 forward $81 $-1 #
coedge $-1 $155 $83 $84 $143 reversed $50 $-1 #
coedge $-1 $149 $205 $83 $141 reversed $81 $-1 #
edge $-1 $156 -11.700573726162084 $207 11.700573726162084 $140 $208 forward 7 unknown #
coedge $-1 $85 $84 $205 $209 forward $33 $-1 #
edge $-1 $147 -45.387127292703028 $207 45.387127292703028 $139 $210 forward 7 unknown #
coedge $-1 $152 $151 $85 $145 reversed $136 $-1 #
edge $-1 $211 -45.387127292703028 $146 45.387127292703028 $144 $212 forward 7 unknown #
vertex $-1 $87 $213 #
vertex $-1 $158 $214 #
straight-curve $-1 45.387127292703028 0 -11.700573726162084 0 -1 0 I I #
coedge $-1 $138 $140 $88 $150 reversed $81 $-1 #
edge $-1 $153 -29.175084223174082 $156 29.175084223174082 $149 $215 forward 7 unknown #
coedge $-1 $144 $89 $94 $159 forward $136 $-1 #
coedge $-1 $89 $144 $138 $206 reversed $136 $-1 #
vertex $-1 $90 $216 #
straight-curve $-1 0 29.175084223174082 11.700573726162084 -1 0 0 I I #
coedge $-1 $91 $139 $93 $158 reversed $50 $-1 #
vertex $-1 $150 $217 #
straight-curve $-1 0 -29.175084223174082 11.700573726162084 1 0 0 I I #
edge $-1 $96 -11.700573726162084 $147 11.700573726162084 $93 $218 forward 7 unknown #
edge $-1 $97 -11.700573726162084 $146 11.700573726162084 $94 $219 forward 7 unknown #
point $-1 45.387127292703028 -29.175084223174082 11.700573726162084 #
point $-1 45.387127292703028 29.175084223174082 11.700573726162084 #
face $-1 $-1 $175 $13 $-1 $220 reversed single #
loop $-1 $-1 $171 $99 #
plane-surface $-1 -45.387127292703028 0 0 1 0 0 0 0 -1 forward_v I I I I #
coedge $-1 $221 $102 $168 $222 forward $58 $-1 #
coedge $-1 $102 $221 $223 $224 forward $58 $-1 #
edge $-1 $225 -29.175084223174082 $169 29.175084223174082 $102 $226 forward 7 unknown #
coedge $-1 $104 $178 $165 $222 reversed $100 $-1 #
vertex $-1 $222 $227 #
straight-curve $-1 -30.280328621509042 -29.175084223174082 -4.8052624776231223 0 0 1 I I #
coedge $-1 $228 $229 $106 $172 forward $163 $-1 #
edge $-1 $179 -29.175084223174082 $176 29.175084223174082 $171 $230 forward 7 unknown #
coedge $-1 $223 $107 $111 $181 forward $175 $-1 #
coedge $-1 $107 $223 $228 $231 reversed $175 $-1 #
loop $-1 $-1 $173 $162 #
vertex $-1 $231 $232 #
straight-curve $-1 -18.916863978553017 29.175084223174082 -7.5204761843304055 1 0 0 I I #
coedge $-1 $168 $109 $229 $233 forward $100 $-1 #
vertex $-1 $233 $234 #
straight-curve $-1 -18.916863978553017 -29.175084223174082 -7.5204761843304055 -1 0 0 I I #
edge $-1 $113 2.7152137067072832 $225 6.8953112485389614 $173 $235 forward 7 unknown #
point $-1 -30.280328621509042 -29.175084223174082 -7.5204761843304055 #
point $-1 -30.280328621509042 29.175084223174082 -7.5204761843304055 #
plane-surface $-1 0 0 11.700573726162084 0 0 1 1 0 0 forward_v I I I I #
coedge $-1 $123 $236 $189 $237 forward $116 $-1 #
coedge $-1 $187 $118 $236 $238 reversed $66 $-1 #
coedge $-1 $118 $186 $190 $239 reversed $66 $-1 #
edge $-1 $191 30.896793387071163 $240 37.356012717075821 $118 $241 forward 7 unknown #
coedge $-1 $120 $119 $185 $237 reversed $41 $-1 #
coedge $-1 $126 $121 $187 $239 forward $127 $-1 #
vertex $-1 $239 $242 #
straight-curve $-1 20.426853754112592 24.451110305444757 11.700573726162084 1 0 0 I I #
coedge $-1 $236 $123 $126 $197 reversed $116 $-1 #
vertex $-1 $124 $243 #
straight-curve $-1 36.320287723747342 29.175084223174082 56.739101381370645 0 0 1 I I #
straight-curve $-1 36.320287723747342 -13.499527018965367 47.090116346349163 0 0.7313536940579346 -0.68199836817093118 I I #
edge $-1 $244 -45.387127292703028 $128 -36.320287723747342 $193 $245 forward 7 unknown #
point $-1 36.320287723747342 29.175084223174082 11.700573726162084 #
point $-1 36.320287723747342 24.451110305444757 11.700573726162084 #
edge $-1 $246 1 $246 0 $131 $-1 forward 7 unknown #
vertex $-1 $132 $247 #
ellipse-curve $-1 40.853707508225185 25.009715581183521 7.5640951585719058 0 0.68199836817093118 0.7313536940579346 1.5 0 0 1 I I #
point $-1 42.353707508225185 26.813097264309416 9.4979852048014273 #
plane-surface $-1 45.387127292703028 0 0 -1 0 0 0 0 1 forward_v I I I I #
coedge $-1 $140 $138 $142 $209 reversed $81 $-1 #
edge $-1 $153 -11.700573726162084 $211 11.700573726162084 $152 $248 forward 7 unknown #
vertex $-1 $209 $249 #
straight-curve $-1 -45.387127292703028 -29.175084223174082 0 0 0 -1 I I #
edge $-1 $207 -29.175084223174082 $211 29.175084223174082 $205 $250 forward 7 unknown #
straight-curve $-1 0 -29.175084223174082 -11.700573726162084 -1 0 0 I I #
vertex $-1 $145 $251 #
straight-curve $-1 0 29.175084223174082 -11.700573726162084 1 0 0 I I #
point $-1 45.387127292703028 29.175084223174082 -11.700573726162084 #
point $-1 45.387127292703028 -29.175084223174082 -11.700573726162084 #
straight-curve $-1 -45.387127292703028 0 11.700573726162084 0 -1 0 I I #
point $-1 -45.387127292703028 29.175084223174082 11.700573726162084 #
point $-1 -45.387127292703028 -29.175084223174082 11.700573726162084 #
straight-curve $-1 45.387127292703028 -29.175084223174082 0 0 0 -1 I I #
straight-curve $-1 45.387127292703028 29.175084223174082 0 0 0 -1 I I #
plane-surface $-1 0 29.175084223174082 0 0 -1 0 0 0 -1 forward_v I I I I #
coedge $-1 $166 $165 $252 $253 forward $58 $-1 #
edge $-1 $169 30.280328621509042 $254 45.387127292703028 $168 $255 forward 7 unknown #
coedge $-1 $174 $173 $166 $224 reversed $175 $-1 #
edge $-1 $256 -45.387127292703028 $225 -30.280328621509042 $223 $257 forward 7 unknown #
vertex $-1 $181 $258 #
straight-curve $-1 -30.280328621509042 0 -11.700573726162084 0 -1 0 I I #
point $-1 -30.280328621509042 -29.175084223174082 -11.700573726162084 #
coedge $-1 $252 $171 $174 $231 forward $163 $-1 #
coedge $-1 $171 $252 $178 $233 reversed $163 $-1 #
straight-curve $-1 -45.387127292703028 0 -7.5204761843304055 0 1 0 I I #
edge $-1 $176 7.5204761843304055 $256 11.700573726162084 $174 $259 forward 7 unknown #
point $-1 -45.387127292703028 29.175084223174082 -7.5204761843304055 #
edge $-1 $179 7.5204761843304055 $254 11.700573726162084 $229 $260 forward 7 unknown #
point $-1 -45.387127292703028 -29.175084223174082 -7.5204761843304055 #
straight-curve $-1 -30.280328621509042 29.175084223174082 -4.8052624776231223 0 0 -1 I I #
coedge $-1 $185 $193 $186 $238 forward $116 $-1 #
edge $-1 $240 -24.960273538590435 $194 -15.893433969634749 $185 $261 forward 7 unknown #
edge $-1 $244 -11.700573726162084 $240 -7.2953966834407709 $186 $262 forward 7 unknown #
edge $-1 $191 24.451110305444757 $244 29.175084223174082 $187 $263 forward 7 unknown #
vertex $-1 $188 $264 #
straight-curve $-1 45.387127292703028 1.8546263272654979 32.772136397859036 0 0.7313536940579346 -0.68199836817093118 I I #
point $-1 45.387127292703028 24.451110305444757 11.700573726162084 #
point $-1 36.320287723747342 29.175084223174082 7.2953966834407709 #
vertex $-1 $239 $265 #
straight-curve $-1 0 29.175084223174082 11.700573726162084 -1 0 0 I I #
vertex $-1 $200 $266 #
point $-1 42.353707508225185 25.009715581183521 7.5640951585719058 #
straight-curve $-1 -45.387127292703028 29.175084223174082 0 0 0 -1 I I #
point $-1 -45.387127292703028 -29.175084223174082 -11.700573726162084 #
straight-curve $-1 -45.387127292703028 0 -11.700573726162084 0 1 0 I I #
point $-1 -45.387127292703028 29.175084223174082 -11.700573726162084 #
coedge $-1 $229 $228 $221 $253 reversed $163 $-1 #
edge $-1 $254 -29.175084223174082 $256 29.175084223174082 $252 $267 forward 7 unknown #
vertex $-1 $253 $268 #
straight-curve $-1 0 -29.175084223174082 -11.700573726162084 -1 0 0 I I #
vertex $-1 $224 $269 #
straight-curve $-1 0 29.175084223174082 -11.700573726162084 1 0 0 I I #
point $-1 -30.280328621509042 29.175084223174082 -11.700573726162084 #
straight-curve $-1 -45.387127292703028 29.175084223174082 0 0 0 -1 I I #
straight-curve $-1 -45.387127292703028 -29.175084223174082 0 0 0 -1 I I #
straight-curve $-1 20.426853754112592 29.175084223174078 7.2953966834407709 -1 0 0 I I #
straight-curve $-1 45.387127292703028 29.175084223174082 0 0 0 -1 I I #
straight-curve $-1 45.387127292703028 0 11.700573726162084 0 1 0 I I #
point $-1 45.387127292703028 29.175084223174082 7.2953966834407709 #
point $-1 45.387127292703028 29.175084223174082 11.700573726162084 #
point $-1 40.853707508225185 23.986718028927122 6.4670646174850042 #
straight-curve $-1 -45.387127292703028 0 -11.700573726162084 0 1 0 I I #
point $-1 -45.387127292703028 -29.175084223174082 -11.700573726162084 #
point $-1 -45.387127292703028 29.175084223174082 -11.700573726162084 #
End-of-ACIS-data 