500 0 4 0           
7 Unknown 11 ACIS 5.0 NT 24 Thu Mar 25 22:18:23 1999 
-1 9.9999999999999995e-007 1e-010 
body $-1 $4 $-1 $5 #
body $-1 $6 $-1 $7 #
body $-1 $8 $-1 $9 #
body $-1 $10 $-1 $11 #
lump $-1 $-1 $12 $0 #
transform $-1 1 0 0 0 1 0 0 0 1 48.214362010559405 25.250776761821555 10.785850760495597 1 rotate no_reflect no_shear #
lump $-1 $-1 $13 $1 #
transform $-1 1 0 0 0 1 0 0 0 1 48.214362010559405 25.250776761821555 10.785850760495597 1 rotate no_reflect no_shear #
lump $-1 $-1 $14 $2 #
transform $-1 1 0 0 0 1 0 0 0 1 48.214362010559405 25.250776761821555 10.785850760495597 1 rotate no_reflect no_shear #
lump $-1 $-1 $15 $3 #
transform $-1 1 0 0 0 1 0 0 0 1 48.214362010559405 25.250776761821555 10.785850760495597 1 rotate no_reflect no_shear #
shell $-1 $-1 $-1 $16 $-1 $4 #
shell $-1 $-1 $-1 $17 $-1 $6 #
shell $-1 $-1 $-1 $18 $-1 $8 #
shell $-1 $-1 $-1 $19 $-1 $10 #
face $-1 $20 $21 $12 $-1 $22 forward single #
face $-1 $23 $24 $13 $-1 $25 forward single #
face $-1 $26 $27 $14 $-1 $28 reversed single #
face $-1 $29 $30 $15 $-1 $31 forward single #
face $-1 $32 $33 $12 $-1 $34 reversed single #
loop $-1 $-1 $35 $16 #
plane-surface $-1 0 0 10.785850760495597 0 0 1 1 0 0 forward_v I I I I #
face $-1 $36 $37 $13 $-1 $38 reversed single #
loop $-1 $-1 $39 $17 #
plane-surface $-1 -44.58757484319068 0 -5.5795920927880145 0 0 1 1 0 0 forward_v I I I I #
face $-1 $40 $41 $14 $-1 $42 reversed single #
loop $-1 $-1 $43 $18 #
plane-surface $-1 36.328864236877699 19.00000255242584 141.06652258110111 0 1 0 0.64278761758704617 0 0.76604443648966558 forward_v I I I I #
face $-1 $44 $45 $15 $-1 $46 forward single #
loop $-1 $47 $48 $19 #
cone-surface $-1 44.249242744291635 22.125389657123698 7.2311292897013111 -0.64278761758704617 0 -0.76604443648966558 0.76604443648966558 0 -0.64278761758704617 1 I I 0 1 1 forward I I I I #
face $-1 $49 $50 $12 $-1 $51 reversed single #
loop $-1 $-1 $52 $20 #
plane-surface $-1 0 0 -10.785850760495597 0 0 1 1 0 0 forward_v I I I I #
coedge $-1 $53 $54 $55 $56 forward $21 $-1 #
face $-1 $57 $58 $13 $-1 $59 reversed single #
loop $-1 $-1 $60 $23 #
plane-surface $-1 -44.58757484319068 0 -10.272804867011903 0 0 1 1 0 0 forward_v I I I I #
coedge $-1 $61 $62 $63 $64 forward $24 $-1 #
face $-1 $65 $66 $14 $-1 $67 reversed single #
loop $-1 $-1 $68 $26 #
plane-surface $-1 -25.654325543616032 22.125389657123698 67.197835026925674 0.64278761758704617 0 0.76604443648966558 0.76604443648966558 0 -0.64278761758704617 forward_v I I I I #
coedge $-1 $69 $70 $71 $72 reversed $27 $-1 #
face $-1 $-1 $73 $15 $-1 $74 forward single #
loop $-1 $75 $76 $29 #
cone-surface $-1 43.282481692931277 22.125389657123698 6.078988357693996 -0.64278761758704617 0 -0.76604443648966558 0.38302221824483279 0 -0.32139380879352308 1 I I -0.70710678118654746 0.70710678118654746 0.5 forward I I I I #
loop $-1 $-1 $77 $19 #
coedge $-1 $48 $48 $78 $79 reversed $30 $-1 #
face $-1 $80 $81 $12 $-1 $82 reversed single #
loop $-1 $-1 $83 $32 #
plane-surface $-1 0 -25.250776761821555 0 0 1 0 0 0 1 forward_v I I I I #
coedge $-1 $84 $85 $86 $87 forward $33 $-1 #
coedge $-1 $88 $35 $89 $90 forward $21 $-1 #
coedge $-1 $35 $88 $91 $92 forward $21 $-1 #
coedge $-1 $93 $94 $35 $56 reversed $95 $-1 #
edge $-1 $96 -25.250776761821555 $97 25.250776761821555 $55 $98 forward 7 unknown #
face $-1 $99 $100 $13 $-1 $101 reversed single #
loop $-1 $-1 $102 $36 #
plane-surface $-1 -40.960787675821962 0 -7.9261984798999583 -1 0 0 0 0 1 forward_v I I I I #
coedge $-1 $103 $104 $105 $106 forward $37 $-1 #
coedge $-1 $107 $39 $108 $109 reversed $24 $-1 #
coedge $-1 $39 $107 $110 $111 reversed $24 $-1 #
coedge $-1 $102 $112 $39 $64 reversed $58 $-1 #
edge $-1 $113 -25.250776761821555 $114 25.250776761821555 $63 $115 forward 7 unknown #
face $-1 $116 $117 $14 $-1 $118 forward single #
loop $-1 $-1 $71 $40 #
plane-surface $-1 48.214362010559405 0 0 -1 0 0 0 0 1 forward_v I I I I #
coedge $-1 $119 $120 $121 $122 reversed $41 $-1 #
coedge $-1 $70 $43 $123 $124 reversed $27 $-1 #
coedge $-1 $43 $69 $119 $125 reversed $27 $-1 #
coedge $-1 $121 $126 $43 $72 forward $66 $-1 #
edge $-1 $127 59.747410530054957 $128 65.318616044118613 $71 $129 forward 7 unknown #
loop $-1 $-1 $78 $44 #
plane-surface $-1 -25.654325543616032 22.125389657123698 67.197835026925674 0.64278761758704617 0 0.76604443648966558 0.76604443648966558 0 -0.64278761758704617 forward_v I I I I #
loop $-1 $-1 $130 $29 #
coedge $-1 $76 $76 $77 $131 reversed $45 $-1 #
coedge $-1 $77 $77 $76 $131 forward $47 $-1 #
coedge $-1 $78 $78 $48 $79 forward $73 $-1 #
edge $-1 $132 0 $132 6.2831853071796004 $78 $133 forward 7 unknown #
face $-1 $134 $135 $12 $-1 $136 reversed single #
loop $-1 $-1 $137 $49 #
plane-surface $-1 -48.214362010559405 0 0 1 0 0 0 0 -1 forward_v I I I I #
coedge $-1 $138 $91 $139 $140 forward $50 $-1 #
coedge $-1 $141 $52 $138 $142 forward $33 $-1 #
coedge $-1 $52 $141 $143 $144 forward $33 $-1 #
coedge $-1 $94 $93 $52 $87 reversed $95 $-1 #
edge $-1 $145 -25.250776761821555 $146 25.250776761821555 $86 $147 forward 7 unknown #
coedge $-1 $54 $53 $148 $149 forward $21 $-1 #
coedge $-1 $150 $151 $53 $90 reversed $135 $-1 #
edge $-1 $97 -48.214362010559405 $152 48.214362010559405 $89 $153 forward 7 unknown #
coedge $-1 $83 $154 $54 $92 reversed $50 $-1 #
edge $-1 $155 -48.214362010559405 $96 48.214362010559405 $91 $156 forward 7 unknown #
coedge $-1 $86 $55 $154 $157 forward $95 $-1 #
coedge $-1 $55 $86 $150 $158 reversed $95 $-1 #
loop $-1 $-1 $93 $134 #
vertex $-1 $56 $159 #
vertex $-1 $56 $160 #
straight-curve $-1 48.214362010559405 0 10.785850760495597 0 1 0 I I #
face $-1 $161 $162 $13 $-1 $163 reversed single #
loop $-1 $-1 $164 $57 #
plane-surface $-1 0 -25.250776761821555 0 0 1 0 0 0 1 forward_v I I I I #
coedge $-1 $105 $63 $165 $166 reversed $58 $-1 #
coedge $-1 $167 $60 $164 $168 reversed $37 $-1 #
coedge $-1 $60 $167 $169 $170 reversed $37 $-1 #
coedge $-1 $112 $102 $60 $106 reversed $58 $-1 #
edge $-1 $171 -25.250776761821555 $172 25.250776761821555 $105 $173 forward 7 unknown #
coedge $-1 $62 $61 $174 $175 reversed $24 $-1 #
coedge $-1 $176 $177 $61 $109 forward $178 $-1 #
edge $-1 $179 -25.920574588964058 $114 -18.667000254226622 $108 $180 forward 7 unknown #
coedge $-1 $181 $165 $62 $111 forward $100 $-1 #
edge $-1 $113 18.667000254226622 $182 25.920574588964058 $110 $183 forward 7 unknown #
coedge $-1 $63 $105 $176 $184 reversed $58 $-1 #
vertex $-1 $111 $185 #
vertex $-1 $109 $186 #
straight-curve $-1 -40.960787675821962 0 -5.5795920927880145 0 1 0 I I #
face $-1 $-1 $187 $14 $-1 $188 reversed single #
loop $-1 $-1 $123 $65 #
plane-surface $-1 0 0 10.785850760495597 0 0 1 1 0 0 forward_v I I I I #
coedge $-1 $189 $68 $70 $125 forward $41 $-1 #
coedge $-1 $68 $189 $190 $191 reversed $41 $-1 #
coedge $-1 $192 $71 $68 $122 forward $66 $-1 #
edge $-1 $128 7.9373077238639915 $193 14.188081933259706 $121 $194 forward 7 unknown #
coedge $-1 $195 $196 $69 $124 forward $117 $-1 #
edge $-1 $197 23.41042584471867 $127 30.049929892120556 $123 $198 forward 7 unknown #
edge $-1 $128 -96.428724021118811 $197 -87.761466965083187 $70 $199 forward 7 unknown #
coedge $-1 $71 $192 $195 $200 reversed $66 $-1 #
vertex $-1 $200 $201 #
vertex $-1 $72 $202 #
straight-curve $-1 48.214362010559405 19.00000255242584 70.533261290550556 0 0 -1 I I #
coedge $-1 $130 $130 $-1 $203 reversed $75 $-1 #
edge $-1 $204 0 $204 6.2831853071796004 $76 $205 forward 7 unknown #
vertex $-1 $79 $206 #
ellipse-curve $-1 44.894609986858455 22.125389657123698 8.0002480034637777 0.64278761758704617 0 0.76604443648966558 0.76604443648966558 0 -0.64278761758704617 1 I I #
face $-1 $-1 $95 $12 $-1 $207 reversed single #
loop $-1 $-1 $150 $80 #
plane-surface $-1 0 25.250776761821555 0 0 -1 0 0 0 -1 forward_v I I I I #
coedge $-1 $208 $148 $151 $209 forward $81 $-1 #
coedge $-1 $154 $83 $84 $142 reversed $50 $-1 #
coedge $-1 $148 $208 $83 $140 reversed $81 $-1 #
edge $-1 $155 -10.785850760495597 $210 10.785850760495597 $139 $211 forward 7 unknown #
coedge $-1 $85 $84 $208 $212 forward $33 $-1 #
edge $-1 $146 -48.214362010559405 $210 48.214362010559405 $138 $213 forward 7 unknown #
coedge $-1 $151 $150 $85 $144 reversed $135 $-1 #
edge $-1 $214 -48.214362010559405 $145 48.214362010559405 $143 $215 forward 7 unknown #
vertex $-1 $87 $216 #
vertex $-1 $157 $217 #
straight-curve $-1 48.214362010559405 0 -10.785850760495597 0 -1 0 I I #
coedge $-1 $137 $139 $88 $149 reversed $81 $-1 #
edge $-1 $152 -25.250776761821555 $155 25.250776761821555 $148 $218 forward 7 unknown #
coedge $-1 $143 $89 $94 $158 forward $135 $-1 #
coedge $-1 $89 $143 $137 $209 reversed $135 $-1 #
vertex $-1 $90 $219 #
straight-curve $-1 0 25.250776761821555 10.785850760495597 -1 0 0 I I #
coedge $-1 $91 $138 $93 $157 reversed $50 $-1 #
vertex $-1 $149 $220 #
straight-curve $-1 0 -25.250776761821555 10.785850760495597 1 0 0 I I #
edge $-1 $96 -10.785850760495597 $146 10.785850760495597 $93 $221 forward 7 unknown #
edge $-1 $97 -10.785850760495597 $145 10.785850760495597 $94 $222 forward 7 unknown #
point $-1 48.214362010559405 -25.250776761821555 10.785850760495597 #
point $-1 48.214362010559405 25.250776761821555 10.785850760495597 #
face $-1 $-1 $178 $13 $-1 $223 reversed single #
loop $-1 $-1 $224 $99 #
plane-surface $-1 -48.214362010559405 0 0 1 0 0 0 0 -1 forward_v I I I I #
coedge $-1 $165 $181 $103 $168 forward $100 $-1 #
coedge $-1 $110 $164 $102 $166 forward $100 $-1 #
edge $-1 $172 -6.3097056270619234 $113 -1.6164928528380353 $165 $225 forward 7 unknown #
coedge $-1 $104 $103 $224 $226 reversed $37 $-1 #
edge $-1 $227 -25.920574588964058 $172 -18.667000254226622 $164 $228 forward 7 unknown #
coedge $-1 $177 $176 $104 $170 forward $178 $-1 #
edge $-1 $171 18.667000254226622 $229 25.920574588964058 $169 $230 forward 7 unknown #
vertex $-1 $170 $231 #
vertex $-1 $168 $232 #
straight-curve $-1 -40.960787675821962 0 -10.272804867011903 0 -1 0 I I #
coedge $-1 $233 $234 $107 $175 forward $162 $-1 #
edge $-1 $182 -25.250776761821555 $179 25.250776761821555 $174 $235 forward 7 unknown #
coedge $-1 $169 $108 $112 $184 forward $178 $-1 #
coedge $-1 $108 $169 $233 $236 reversed $178 $-1 #
loop $-1 $-1 $169 $161 #
vertex $-1 $236 $237 #
straight-curve $-1 -22.29378742159534 25.250776761821555 -5.5795920927880145 1 0 0 I I #
coedge $-1 $164 $110 $234 $238 forward $100 $-1 #
vertex $-1 $238 $239 #
straight-curve $-1 -22.29378742159534 -25.250776761821555 -5.5795920927880145 -1 0 0 I I #
edge $-1 $114 1.6164928528380353 $171 6.3097056270619234 $176 $240 forward 7 unknown #
point $-1 -40.960787675821962 -25.250776761821555 -5.5795920927880145 #
point $-1 -40.960787675821962 25.250776761821555 -5.5795920927880145 #
loop $-1 $-1 $190 $116 #
plane-surface $-1 0 25.250776761821555 0 0 -1 0 0 0 -1 forward_v I I I I #
coedge $-1 $120 $119 $196 $241 reversed $41 $-1 #
coedge $-1 $242 $243 $120 $191 forward $187 $-1 #
edge $-1 $193 -65.005579201845464 $244 -56.33832214580984 $190 $245 forward 7 unknown #
coedge $-1 $126 $121 $243 $246 reversed $66 $-1 #
vertex $-1 $122 $247 #
straight-curve $-1 48.214362010559398 11.062694828561849 5.2146452464319495 0 1 0 I I #
coedge $-1 $248 $123 $126 $200 forward $117 $-1 #
coedge $-1 $123 $248 $189 $241 forward $117 $-1 #
vertex $-1 $124 $249 #
straight-curve $-1 18.16443211843885 19.00000255242584 10.785850760495592 1 0 0 I I #
straight-curve $-1 -25.654325543616032 19.00000255242584 67.197835026925674 -0.76604443648966558 0 0.64278761758704617 I I #
edge $-1 $127 19.00000255242584 $250 25.250776761821555 $126 $251 forward 7 unknown #
point $-1 48.214362010559405 19.00000255242584 10.785850760495597 #
point $-1 48.214362010559405 19.00000255242584 5.2146452464319424 #
edge $-1 $252 1 $252 0 $130 $-1 forward 7 unknown #
vertex $-1 $131 $253 #
ellipse-curve $-1 43.603875501724801 22.125389657123698 6.4620105759388284 0.64278761758704617 0 0.76604443648966558 0.76604443648966558 0 -0.64278761758704617 1 I I #
point $-1 45.660654423348134 22.125389657123698 7.3574603858767471 #
plane-surface $-1 48.214362010559405 0 0 -1 0 0 0 0 1 forward_v I I I I #
coedge $-1 $139 $137 $141 $212 reversed $81 $-1 #
edge $-1 $152 -10.785850760495597 $214 10.785850760495597 $151 $254 forward 7 unknown #
vertex $-1 $212 $255 #
straight-curve $-1 -48.214362010559405 -25.250776761821555 0 0 0 -1 I I #
edge $-1 $210 -25.250776761821555 $214 25.250776761821555 $208 $256 forward 7 unknown #
straight-curve $-1 0 -25.250776761821555 -10.785850760495597 -1 0 0 I I #
vertex $-1 $144 $257 #
straight-curve $-1 0 25.250776761821555 -10.785850760495597 1 0 0 I I #
point $-1 48.214362010559405 25.250776761821555 -10.785850760495597 #
point $-1 48.214362010559405 -25.250776761821555 -10.785850760495597 #
straight-curve $-1 -48.214362010559405 0 10.785850760495597 0 -1 0 I I #
point $-1 -48.214362010559405 25.250776761821555 10.785850760495597 #
point $-1 -48.214362010559405 -25.250776761821555 10.785850760495597 #
straight-curve $-1 48.214362010559405 -25.250776761821555 0 0 0 -1 I I #
straight-curve $-1 48.214362010559405 25.250776761821555 0 0 0 -1 I I #
plane-surface $-1 0 25.250776761821555 0 0 -1 0 0 0 -1 forward_v I I I I #
coedge $-1 $234 $233 $167 $226 forward $162 $-1 #
straight-curve $-1 -40.960787675821962 -25.250776761821555 -3.9630992399499791 0 0 1 I I #
edge $-1 $229 -25.250776761821555 $227 25.250776761821555 $224 $258 forward 7 unknown #
vertex $-1 $168 $259 #
straight-curve $-1 -22.29378742159534 -25.250776761821555 -10.272804867011903 1 0 0 I I #
vertex $-1 $170 $260 #
straight-curve $-1 -22.29378742159534 25.250776761821555 -10.272804867011903 -1 0 0 I I #
point $-1 -40.960787675821962 25.250776761821555 -10.272804867011903 #
point $-1 -40.960787675821962 -25.250776761821555 -10.272804867011903 #
coedge $-1 $224 $174 $177 $236 forward $162 $-1 #
coedge $-1 $174 $224 $181 $238 reversed $162 $-1 #
straight-curve $-1 -48.214362010559405 0 -5.5795920927880145 0 1 0 I I #
edge $-1 $179 5.5795920927880145 $229 10.272804867011903 $177 $261 forward 7 unknown #
point $-1 -48.214362010559398 25.250776761821555 -5.5795920927880145 #
edge $-1 $182 5.5795920927880145 $227 10.272804867011903 $234 $262 forward 7 unknown #
point $-1 -48.214362010559398 -25.250776761821555 -5.5795920927880145 #
straight-curve $-1 -40.960787675821962 25.250776761821555 -3.9630992399499791 0 0 -1 I I #
edge $-1 $244 -14.188081933259706 $197 -7.9373077238639915 $196 $263 forward 7 unknown #
coedge $-1 $243 $190 $248 $264 reversed $187 $-1 #
coedge $-1 $190 $242 $192 $246 forward $187 $-1 #
vertex $-1 $191 $265 #
straight-curve $-1 -1.582800277802626 25.250776761821555 46.999426631452231 -0.76604443648966558 0 0.64278761758704617 I I #
edge $-1 $250 -10.785850760495597 $193 -5.2146452464319495 $192 $266 forward 7 unknown #
point $-1 48.214362010559405 25.250776761821555 5.2146452464319495 #
coedge $-1 $196 $195 $242 $264 forward $117 $-1 #
point $-1 41.57485796315752 19.00000255242584 10.785850760495599 #
vertex $-1 $200 $267 #
straight-curve $-1 48.214362010559405 0 10.785850760495597 0 1 0 I I #
vertex $-1 $203 $268 #
point $-1 44.369919938214466 22.125389657123698 5.8192229583517827 #
straight-curve $-1 -48.214362010559405 25.250776761821555 0 0 0 -1 I I #
point $-1 -48.214362010559405 -25.250776761821555 -10.785850760495597 #
straight-curve $-1 -48.214362010559405 0 -10.785850760495597 0 1 0 I I #
point $-1 -48.214362010559405 25.250776761821555 -10.785850760495597 #
straight-curve $-1 -48.214362010559405 0 -10.272804867011903 0 -1 0 I I #
point $-1 -48.214362010559398 -25.250776761821555 -10.272804867011903 #
point $-1 -48.214362010559398 25.250776761821555 -10.272804867011903 #
straight-curve $-1 -48.214362010559405 25.250776761821555 0 0 0 -1 I I #
straight-curve $-1 -48.214362010559405 -25.250776761821555 0 0 0 -1 I I #
straight-curve $-1 41.574857963157513 11.062694828561849 10.785850760495599 0 -1 0 I I #
edge $-1 $250 -48.214362010559405 $244 -41.57485796315752 $242 $269 forward 7 unknown #
point $-1 41.57485796315752 25.250776761821555 10.785850760495599 #
straight-curve $-1 48.214362010559405 25.250776761821555 0 0 0 -1 I I #
point $-1 48.214362010559405 25.250776761821555 10.785850760495597 #
point $-1 42.961087884137754 22.125389657123698 5.6959661394491636 #
straight-curve $-1 0 25.250776761821555 10.785850760495597 -1 0 0 I I #
End-of-ACIS-data 