500 0 6 0           
7 Unknown 11 ACIS 5.0 NT 24 Fri Mar 26 01:13:11 1999 
-1 9.9999999999999995e-007 1e-010 
body $-1 $6 $-1 $7 #
body $-1 $8 $-1 $9 #
body $-1 $10 $-1 $11 #
body $-1 $12 $-1 $13 #
body $-1 $14 $-1 $15 #
body $-1 $16 $-1 $17 #
lump $-1 $-1 $18 $0 #
transform $-1 1 0 0 0 1 0 0 0 1 56.898709067049168 38.771589897707052 17.007815145471408 1 rotate no_reflect no_shear #
lump $-1 $-1 $19 $1 #
transform $-1 1 0 0 0 1 0 0 0 1 56.898709067049168 38.771589897707052 17.007815145471408 1 rotate no_reflect no_shear #
lump $-1 $-1 $20 $2 #
transform $-1 1 0 0 0 1 0 0 0 1 56.898709067049168 38.771589897707052 17.007815145471408 1 rotate no_reflect no_shear #
lump $-1 $-1 $21 $3 #
transform $-1 1 0 0 0 1 0 0 0 1 56.898709067049168 38.771589897707052 17.007815145471408 1 rotate no_reflect no_shear #
lump $-1 $-1 $22 $4 #
transform $-1 1 0 0 0 1 0 0 0 1 56.898709067049168 38.771589897707052 17.007815145471408 1 rotate no_reflect no_shear #
lump $-1 $-1 $23 $5 #
transform $-1 1 0 0 0 1 0 0 0 1 56.898709067049168 38.771589897707052 17.007815145471408 1 rotate no_reflect no_shear #
shell $-1 $-1 $-1 $24 $-1 $6 #
shell $-1 $-1 $-1 $25 $-1 $8 #
shell $-1 $-1 $-1 $26 $-1 $10 #
shell $-1 $-1 $-1 $27 $-1 $12 #
shell $-1 $-1 $-1 $28 $-1 $14 #
shell $-1 $-1 $-1 $29 $-1 $16 #
face $-1 $30 $31 $18 $-1 $32 forward single #
face $-1 $33 $34 $19 $-1 $35 reversed single #
face $-1 $36 $37 $20 $-1 $38 forward single #
face $-1 $39 $40 $21 $-1 $41 forward single #
face $-1 $42 $43 $22 $-1 $44 reversed single #
face $-1 $45 $46 $23 $-1 $47 forward single #
face $-1 $48 $49 $18 $-1 $50 reversed single #
loop $-1 $-1 $51 $24 #
plane-surface $-1 0 0 17.007815145471408 0 0 1 1 0 0 forward_v I I I I #
face $-1 $52 $53 $19 $-1 $54 reversed single #
loop $-1 $-1 $55 $25 #
plane-surface $-1 56.898710934292495 20.233505649084442 163.47618054893385 0 -1 0 -0.70710678939079041 0 -0.70710677298230451 forward_v I I I I #
face $-1 $56 $57 $20 $-1 $58 forward single #
loop $-1 $59 $60 $26 #
cone-surface $-1 47.91006783388697 4.5914327692963397 8.0191737852184524 -0.70710678939079041 0 -0.70710677298230451 1.0606601594734568 0 -1.0606601840861856 1 I I 0 1 1.5 forward I I I I #
face $-1 $61 $62 $21 $-1 $63 forward single #
loop $-1 $64 $65 $27 #
cone-surface $-1 47.91006783388697 13.976676497169201 8.0191737852184524 -0.70710678939079041 0 -0.70710677298230451 1.0606601594734568 0 -1.0606601840861856 1 I I 0 1 1.5 forward I I I I #
face $-1 $66 $67 $22 $-1 $68 reversed single #
loop $-1 $-1 $69 $28 #
plane-surface $-1 -134.50836253656939 -24.03798343119292 93.753718990923971 0 -1 0 0.68199836817093118 0 -0.7313536940579346 forward_v I I I I #
face $-1 $70 $71 $23 $-1 $72 forward single #
loop $-1 $73 $74 $29 #
cone-surface $-1 -50.726198992308014 -31.404786664449986 10.874545695084777 0.68199836817093118 0 -0.7313536940579346 1.4627073881158692 0 1.3639967363418624 1 I I 0 1 2 forward I I I I #
face $-1 $75 $76 $18 $-1 $77 reversed single #
loop $-1 $-1 $78 $30 #
plane-surface $-1 0 0 -17.007815145471408 0 0 1 1 0 0 forward_v I I I I #
coedge $-1 $79 $80 $81 $82 forward $31 $-1 #
face $-1 $83 $84 $19 $-1 $85 reversed single #
loop $-1 $-1 $86 $33 #
plane-surface $-1 -23.568216043471097 9.2840546332327705 83.009255438413604 0.70710678939079041 0 0.70710677298230451 0.70710677298230451 0 -0.70710678939079041 forward_v I I I I #
coedge $-1 $87 $88 $89 $90 reversed $34 $-1 #
face $-1 $-1 $91 $20 $-1 $92 forward single #
loop $-1 $93 $94 $36 #
cone-surface $-1 45.62383968325581 4.5914327692963397 5.7329456876394538 -0.70710678939079041 0 -0.70710677298230451 0.53033007973672841 0 -0.53033009204309278 1 I I -0.70710678118654757 0.70710678118654757 0.75 forward I I I I #
loop $-1 $-1 $95 $26 #
coedge $-1 $60 $60 $96 $97 reversed $37 $-1 #
face $-1 $-1 $98 $21 $-1 $99 forward single #
loop $-1 $100 $101 $39 #
cone-surface $-1 45.62383968325581 13.976676497169201 5.7329456876394538 -0.70710678939079041 0 -0.70710677298230451 0.53033007973672841 0 -0.53033009204309278 1 I I -0.70710678118654757 0.70710678118654757 0.75 forward I I I I #
loop $-1 $-1 $102 $27 #
coedge $-1 $65 $65 $103 $104 reversed $40 $-1 #
face $-1 $105 $106 $22 $-1 $107 reversed single #
loop $-1 $-1 $108 $42 #
plane-surface $-1 -56.898709067049197 -31.404786664449986 10.527556864295761 -0.68199836817093118 0 0.7313536940579346 0.7313536940579346 0 0.68199836817093118 forward_v I I I I #
coedge $-1 $109 $110 $111 $112 reversed $43 $-1 #
face $-1 $-1 $113 $23 $-1 $114 forward single #
loop $-1 $115 $116 $45 #
cone-surface $-1 -47.34630357896809 -31.404786664449986 7.2500516912280304 0.68199836817093118 0 -0.7313536940579346 0.7313536940579346 0 0.68199836817093118 1 I I -0.70710678118654746 0.70710678118654746 1 forward I I I I #
loop $-1 $-1 $117 $29 #
coedge $-1 $74 $74 $118 $119 reversed $46 $-1 #
face $-1 $120 $121 $18 $-1 $122 reversed single #
loop $-1 $-1 $123 $48 #
plane-surface $-1 0 -38.771589897707052 0 0 1 0 0 0 1 forward_v I I I I #
coedge $-1 $124 $125 $126 $127 forward $49 $-1 #
coedge $-1 $128 $51 $129 $130 forward $31 $-1 #
coedge $-1 $51 $128 $131 $132 forward $31 $-1 #
coedge $-1 $133 $134 $51 $82 reversed $135 $-1 #
edge $-1 $136 -38.771589897707052 $137 38.771589897707052 $81 $138 forward 7 unknown #
face $-1 $139 $140 $19 $-1 $141 forward single #
loop $-1 $-1 $142 $52 #
plane-surface $-1 56.898710934292495 -1.6653963826189013 163.47618054893385 0 1 0 0.70710678939079041 0 0.70710677298230451 forward_v I I I I #
coedge $-1 $143 $144 $145 $146 reversed $53 $-1 #
coedge $-1 $88 $55 $147 $148 reversed $34 $-1 #
coedge $-1 $55 $87 $143 $149 reversed $34 $-1 #
coedge $-1 $145 $150 $55 $90 forward $140 $-1 #
edge $-1 $151 -28.449353599902921 $152 -13.983867250754628 $89 $153 forward 7 unknown #
loop $-1 $-1 $96 $56 #
plane-surface $-1 -23.568216043471097 9.2840546332327705 83.009255438413604 0.70710678939079041 0 0.70710677298230451 0.70710677298230451 0 -0.70710678939079041 forward_v I I I I #
loop $-1 $-1 $154 $36 #
coedge $-1 $94 $94 $95 $155 reversed $57 $-1 #
coedge $-1 $95 $95 $94 $155 forward $59 $-1 #
coedge $-1 $96 $96 $60 $97 forward $91 $-1 #
edge $-1 $156 0 $156 6.2831853071796004 $96 $157 forward 7 unknown #
loop $-1 $-1 $103 $61 #
plane-surface $-1 -23.568216043471097 9.2840546332327705 83.009255438413604 0.70710678939079041 0 0.70710677298230451 0.70710677298230451 0 -0.70710678939079041 forward_v I I I I #
loop $-1 $-1 $158 $39 #
coedge $-1 $101 $101 $102 $159 reversed $62 $-1 #
coedge $-1 $102 $102 $101 $159 forward $64 $-1 #
coedge $-1 $103 $103 $65 $104 forward $98 $-1 #
edge $-1 $160 0 $160 6.2831853071796004 $103 $161 forward 7 unknown #
face $-1 $162 $163 $22 $-1 $164 forward single #
loop $-1 $-1 $165 $66 #
plane-surface $-1 0 -38.771589897707052 0 0 1 0 0 0 1 forward_v I I I I #
coedge $-1 $166 $167 $168 $169 reversed $67 $-1 #
coedge $-1 $110 $69 $170 $171 reversed $43 $-1 #
coedge $-1 $69 $109 $166 $172 reversed $43 $-1 #
coedge $-1 $168 $173 $69 $112 forward $174 $-1 #
edge $-1 $175 29.869044349990578 $176 36.349302631166196 $111 $177 forward 7 unknown #
loop $-1 $-1 $118 $70 #
plane-surface $-1 -56.898709067049197 -31.404786664449986 10.527556864295761 -0.68199836817093118 0 0.7313536940579346 0.7313536940579346 0 0.68199836817093118 forward_v I I I I #
loop $-1 $-1 $178 $45 #
coedge $-1 $116 $116 $117 $179 reversed $71 $-1 #
coedge $-1 $117 $117 $116 $179 forward $73 $-1 #
coedge $-1 $118 $118 $74 $119 forward $113 $-1 #
edge $-1 $180 0 $180 6.2831853071796004 $118 $181 forward 7 unknown #
face $-1 $182 $183 $18 $-1 $184 reversed single #
loop $-1 $-1 $185 $75 #
plane-surface $-1 -56.898709067049168 0 0 1 0 0 0 0 -1 forward_v I I I I #
coedge $-1 $186 $131 $187 $188 forward $76 $-1 #
coedge $-1 $189 $78 $186 $190 forward $49 $-1 #
coedge $-1 $78 $189 $191 $192 forward $49 $-1 #
coedge $-1 $134 $133 $78 $127 reversed $135 $-1 #
edge $-1 $193 -38.771589897707052 $194 38.771589897707052 $126 $195 forward 7 unknown #
coedge $-1 $80 $79 $196 $197 forward $31 $-1 #
coedge $-1 $198 $199 $79 $130 reversed $183 $-1 #
edge $-1 $137 -56.898709067049168 $200 56.898709067049168 $129 $201 forward 7 unknown #
coedge $-1 $123 $202 $80 $132 reversed $76 $-1 #
edge $-1 $203 -56.898709067049168 $136 56.898709067049168 $131 $204 forward 7 unknown #
coedge $-1 $126 $81 $202 $205 forward $135 $-1 #
coedge $-1 $81 $126 $198 $206 reversed $135 $-1 #
loop $-1 $-1 $133 $182 #
vertex $-1 $82 $207 #
vertex $-1 $82 $208 #
straight-curve $-1 56.898709067049168 0 17.007815145471408 0 1 0 I I #
face $-1 $-1 $209 $19 $-1 $210 reversed single #
loop $-1 $-1 $89 $83 #
plane-surface $-1 0 0 17.007815145471408 0 0 1 1 0 0 forward_v I I I I #
coedge $-1 $211 $212 $213 $214 reversed $84 $-1 #
coedge $-1 $215 $86 $88 $149 forward $53 $-1 #
coedge $-1 $86 $215 $211 $216 forward $53 $-1 #
coedge $-1 $213 $89 $86 $146 forward $140 $-1 #
edge $-1 $152 -15.591478332468057 $217 6.3074236992352866 $145 $218 forward 7 unknown #
coedge $-1 $219 $220 $87 $148 forward $209 $-1 #
edge $-1 $221 -79.195761813816915 $151 -64.730275128995515 $147 $222 forward 7 unknown #
edge $-1 $152 93.340130915453258 $221 113.79741813409838 $88 $223 forward 7 unknown #
coedge $-1 $89 $213 $219 $224 forward $140 $-1 #
vertex $-1 $148 $225 #
vertex $-1 $90 $226 #
straight-curve $-1 28.449355467146248 20.233505649084442 17.007815145471412 -1 0 0 I I #
coedge $-1 $154 $154 $-1 $227 reversed $93 $-1 #
edge $-1 $228 0 $228 6.2831853071796004 $94 $229 forward 7 unknown #
vertex $-1 $97 $230 #
ellipse-curve $-1 49.665965892475022 4.5914327692963397 9.7750718030607082 0.70710678939079041 0 0.70710677298230451 1.0606601594734568 0 -1.0606601840861856 1 I I #
coedge $-1 $158 $158 $-1 $231 reversed $100 $-1 #
edge $-1 $232 0 $232 6.2831853071796004 $101 $233 forward 7 unknown #
vertex $-1 $104 $234 #
ellipse-curve $-1 49.665965892475022 13.976676497169201 9.7750718030607082 0.70710678939079041 0 0.70710677298230451 1.0606601594734568 0 -1.0606601840861856 1 I I #
face $-1 $-1 $174 $22 $-1 $235 reversed single #
loop $-1 $-1 $236 $105 #
plane-surface $-1 0 0 17.007815145471408 0 0 1 1 0 0 forward_v I I I I #
coedge $-1 $237 $238 $167 $239 forward $106 $-1 #
coedge $-1 $240 $108 $110 $172 forward $67 $-1 #
coedge $-1 $108 $240 $165 $239 reversed $67 $-1 #
coedge $-1 $241 $111 $108 $169 forward $174 $-1 #
edge $-1 $176 8.335590098967927 $242 23.069196565482059 $168 $243 forward 7 unknown #
coedge $-1 $244 $236 $109 $171 forward $163 $-1 #
edge $-1 $245 -17.304698260379809 $175 -10.355472201235528 $170 $246 forward 7 unknown #
edge $-1 $176 3.8958409169770864e-014 $245 9.5018677222868071 $110 $247 forward 7 unknown #
coedge $-1 $111 $241 $244 $248 reversed $174 $-1 #
loop $-1 $-1 $168 $162 #
vertex $-1 $248 $249 #
vertex $-1 $112 $250 #
straight-curve $-1 -56.898709067049168 -24.03798343119292 46.876859495461986 0 0 -1 I I #
coedge $-1 $178 $178 $-1 $251 reversed $115 $-1 #
edge $-1 $252 0 $252 6.2831853071796004 $116 $253 forward 7 unknown #
vertex $-1 $119 $254 #
ellipse-curve $-1 -53.424096037477021 -31.404786664449986 13.767686004883602 -0.68199836817093118 0 0.7313536940579346 1.4627073881158692 0 1.3639967363418624 1 I I #
face $-1 $-1 $135 $18 $-1 $255 reversed single #
loop $-1 $-1 $198 $120 #
plane-surface $-1 0 38.771589897707052 0 0 -1 0 0 0 -1 forward_v I I I I #
coedge $-1 $256 $196 $199 $257 forward $121 $-1 #
coedge $-1 $202 $123 $124 $190 reversed $76 $-1 #
coedge $-1 $196 $256 $123 $188 reversed $121 $-1 #
edge $-1 $203 -17.007815145471408 $258 17.007815145471408 $187 $259 forward 7 unknown #
coedge $-1 $125 $124 $256 $260 forward $49 $-1 #
edge $-1 $194 -56.898709067049168 $258 56.898709067049168 $186 $261 forward 7 unknown #
coedge $-1 $199 $198 $125 $192 reversed $183 $-1 #
edge $-1 $262 -56.898709067049168 $193 56.898709067049168 $191 $263 forward 7 unknown #
vertex $-1 $127 $264 #
vertex $-1 $205 $265 #
straight-curve $-1 56.898709067049168 0 -17.007815145471408 0 -1 0 I I #
coedge $-1 $185 $187 $128 $197 reversed $121 $-1 #
edge $-1 $200 -38.771589897707052 $203 38.771589897707052 $196 $266 forward 7 unknown #
coedge $-1 $191 $129 $134 $206 forward $183 $-1 #
coedge $-1 $129 $191 $185 $257 reversed $183 $-1 #
vertex $-1 $130 $267 #
straight-curve $-1 0 38.771589897707052 17.007815145471408 -1 0 0 I I #
coedge $-1 $131 $186 $133 $205 reversed $76 $-1 #
vertex $-1 $197 $268 #
straight-curve $-1 0 -38.771589897707052 17.007815145471408 1 0 0 I I #
edge $-1 $136 -17.007815145471408 $194 17.007815145471408 $133 $269 forward 7 unknown #
edge $-1 $137 -17.007815145471408 $193 17.007815145471408 $134 $270 forward 7 unknown #
point $-1 56.898709067049168 -38.771589897707052 17.007815145471408 #
point $-1 56.898709067049168 38.771589897707052 17.007815145471408 #
loop $-1 $-1 $147 $139 #
plane-surface $-1 56.898709067049168 0 0 -1 0 0 0 0 1 forward_v I I I I #
coedge $-1 $212 $142 $144 $216 reversed $84 $-1 #
coedge $-1 $142 $211 $271 $272 reversed $84 $-1 #
coedge $-1 $150 $145 $142 $214 forward $140 $-1 #
edge $-1 $217 13.983867250754628 $273 28.449353599902921 $213 $274 forward 7 unknown #
coedge $-1 $144 $143 $220 $275 reversed $53 $-1 #
edge $-1 $276 -113.79741813409838 $217 -93.340130915453258 $211 $277 forward 7 unknown #
vertex $-1 $146 $278 #
straight-curve $-1 42.43322271790089 4.6420273166163852 17.007815145471405 0 -1 0 I I #
coedge $-1 $271 $147 $150 $224 reversed $209 $-1 #
coedge $-1 $147 $271 $215 $275 forward $209 $-1 #
vertex $-1 $148 $279 #
straight-curve $-1 56.898709067049168 20.233505649084442 81.738090274466927 0 0 1 I I #
straight-curve $-1 -23.568216043471097 20.233505649084442 83.009255438413604 0.70710677298230451 0 -0.70710678939079041 I I #
edge $-1 $273 -1.6653963826189013 $151 20.233505649084442 $219 $280 forward 7 unknown #
point $-1 56.898709067049168 20.233505649084442 17.007815145471408 #
point $-1 42.433222717900875 20.233505649084442 17.007815145471412 #
edge $-1 $281 1 $281 0 $154 $-1 forward 7 unknown #
vertex $-1 $155 $282 #
ellipse-curve $-1 46.154169775298904 4.5914327692963397 6.2632757673761823 0.70710678939079041 0 0.70710677298230451 1.0606601594734568 0 -1.0606601840861856 1 I I #
point $-1 50.726626051948493 4.5914327692963397 8.7144116189745375 #
edge $-1 $283 1 $283 0 $158 $-1 forward 7 unknown #
vertex $-1 $159 $284 #
ellipse-curve $-1 46.154169775298904 13.976676497169201 6.2632757673761823 0.70710678939079041 0 0.70710677298230451 1.0606601594734568 0 -1.0606601840861856 1 I I #
point $-1 50.726626051948493 13.976676497169201 8.7144116189745375 #
plane-surface $-1 -56.898709067049168 0 0 1 0 0 0 0 -1 forward_v I I I I #
coedge $-1 $170 $285 $240 $286 forward $163 $-1 #
coedge $-1 $238 $165 $285 $287 reversed $106 $-1 #
coedge $-1 $165 $237 $241 $288 forward $106 $-1 #
edge $-1 $242 -17.216652230518825 $289 -7.714784508232059 $165 $290 forward 7 unknown #
coedge $-1 $167 $166 $236 $286 reversed $67 $-1 #
coedge $-1 $173 $168 $238 $288 reversed $174 $-1 #
vertex $-1 $239 $291 #
straight-curve $-1 -56.898709067049168 -15.702393332224993 10.527556864295791 0 -1 0 I I #
coedge $-1 $285 $170 $173 $248 forward $163 $-1 #
vertex $-1 $171 $292 #
straight-curve $-1 -67.254181268284697 -24.03798343119292 17.007815145471405 -1 0 0 I I #
straight-curve $-1 -56.898709067049197 -24.03798343119292 10.527556864295761 0.7313536940579346 0 0.68199836817093118 I I #
edge $-1 $175 24.03798343119292 $293 38.771589897707052 $173 $294 forward 7 unknown #
point $-1 -56.898709067049168 -24.03798343119292 17.007815145471408 #
point $-1 -56.898709067049168 -24.03798343119292 10.527556864295788 #
edge $-1 $295 1 $295 0 $178 $-1 forward 7 unknown #
vertex $-1 $179 $296 #
ellipse-curve $-1 -48.02830194713902 -31.404786664449986 7.9814053852859654 -0.68199836817093118 0 0.7313536940579346 1.4627073881158692 0 1.3639967363418624 1 I I #
point $-1 -51.96138864936114 -31.404786664449986 15.131682741225447 #
plane-surface $-1 56.898709067049168 0 0 -1 0 0 0 0 1 forward_v I I I I #
coedge $-1 $187 $185 $189 $260 reversed $121 $-1 #
edge $-1 $200 -17.007815145471408 $262 17.007815145471408 $199 $297 forward 7 unknown #
vertex $-1 $260 $298 #
straight-curve $-1 -56.898709067049168 -38.771589897707052 0 0 0 -1 I I #
edge $-1 $258 -38.771589897707052 $262 38.771589897707052 $256 $299 forward 7 unknown #
straight-curve $-1 0 -38.771589897707052 -17.007815145471408 -1 0 0 I I #
vertex $-1 $192 $300 #
straight-curve $-1 0 38.771589897707052 -17.007815145471408 1 0 0 I I #
point $-1 56.898709067049168 38.771589897707052 -17.007815145471408 #
point $-1 56.898709067049168 -38.771589897707052 -17.007815145471408 #
straight-curve $-1 -56.898709067049168 0 17.007815145471408 0 -1 0 I I #
point $-1 -56.898709067049168 38.771589897707052 17.007815145471408 #
point $-1 -56.898709067049168 -38.771589897707052 17.007815145471408 #
straight-curve $-1 56.898709067049168 -38.771589897707052 0 0 0 -1 I I #
straight-curve $-1 56.898709067049168 38.771589897707052 0 0 0 -1 I I #
coedge $-1 $220 $219 $212 $272 forward $209 $-1 #
edge $-1 $273 64.730275128995515 $276 79.195761813816915 $271 $301 forward 7 unknown #
vertex $-1 $224 $302 #
straight-curve $-1 28.449355467146248 -1.6653963826189013 17.007815145471412 1 0 0 I I #
edge $-1 $276 -6.3074236992352866 $221 15.591478332468057 $220 $303 forward 7 unknown #
vertex $-1 $275 $304 #
straight-curve $-1 -23.568216043471097 -1.6653963826189013 83.009255438413604 -0.70710677298230451 0 0.70710678939079041 I I #
point $-1 42.433222717900875 -1.6653963826189013 17.007815145471412 #
point $-1 56.898709067049168 20.233505649084442 2.5423284606500118 #
straight-curve $-1 56.898709067049168 0 17.007815145471408 0 1 0 I I #
vertex $-1 $227 $305 #
point $-1 47.214829934772361 4.5914327692963397 5.2026155832899965 #
vertex $-1 $231 $306 #
point $-1 47.214829934772361 13.976676497169201 5.2026155832899965 #
coedge $-1 $236 $244 $237 $287 forward $163 $-1 #
edge $-1 $289 -23.069196565482059 $245 -8.335590098967927 $236 $307 forward 7 unknown #
edge $-1 $293 -56.898709067049168 $289 -49.949483007904888 $237 $308 forward 7 unknown #
edge $-1 $293 -17.007815145471408 $242 -10.527556864295788 $241 $309 forward 7 unknown #
vertex $-1 $239 $310 #
straight-curve $-1 -44.307246858948446 -38.771589897707052 22.269285590876052 0.7313536940579346 0 0.68199836817093118 I I #
point $-1 -56.898709067049168 -38.771589897707052 10.527556864295788 #
point $-1 -49.949483007904888 -24.03798343119292 17.007815145471408 #
vertex $-1 $248 $311 #
straight-curve $-1 -56.898709067049168 0 17.007815145471408 0 -1 0 I I #
vertex $-1 $251 $312 #
point $-1 -46.565594559023154 -31.404786664449986 9.3454021216278278 #
straight-curve $-1 -56.898709067049168 38.771589897707052 0 0 0 -1 I I #
point $-1 -56.898709067049168 -38.771589897707052 -17.007815145471408 #
straight-curve $-1 -56.898709067049168 0 -17.007815145471408 0 1 0 I I #
point $-1 -56.898709067049168 38.771589897707052 -17.007815145471408 #
straight-curve $-1 56.898709067049168 -1.6653963826189013 81.738090274466927 0 0 -1 I I #
point $-1 56.898709067049168 -1.6653963826189013 17.007815145471408 #
straight-curve $-1 56.898709067049168 4.6420273166163852 2.5423284606500189 0 1 0 I I #
point $-1 56.898709067049168 -1.6653963826189013 2.5423284606500118 #
point $-1 45.093509591212715 4.5914327692963397 5.2026156079027253 #
point $-1 45.093509591212715 13.976676497169201 5.2026156079027253 #
straight-curve $-1 -49.949483007904888 -15.702393332224993 17.007815145471412 0 1 0 I I #
straight-curve $-1 0 -38.771589897707052 17.007815145471408 1 0 0 I I #
straight-curve $-1 -56.898709067049168 -38.771589897707052 0 0 0 -1 I I #
point $-1 -49.949483007904888 -38.771589897707052 17.007815145471408 #
point $-1 -56.898709067049168 -38.771589897707052 17.007815145471408 #
point $-1 -46.66430521079716 -31.404786664449986 6.5186979971700953 #
End-of-ACIS-data 