500 0 9 0           
7 Unknown 11 ACIS 5.0 NT 24 Fri Mar 26 18:01:03 1999 
-1 9.9999999999999995e-007 1e-010 
body $-1 $9 $-1 $10 #
body $-1 $11 $-1 $12 #
body $-1 $13 $-1 $14 #
body $-1 $15 $-1 $16 #
body $-1 $17 $-1 $18 #
body $-1 $19 $-1 $20 #
body $-1 $21 $-1 $22 #
body $-1 $23 $-1 $24 #
body $-1 $25 $-1 $26 #
lump $-1 $-1 $27 $0 #
transform $-1 1 0 0 0 1 0 0 0 1 45.007477034821619 19.164199380023753 6.8709096925742683 1 rotate no_reflect no_shear #
lump $-1 $-1 $28 $1 #
transform $-1 1 0 0 0 1 0 0 0 1 45.007477034821619 19.164199380023753 6.8709096925742683 1 rotate no_reflect no_shear #
lump $-1 $-1 $29 $2 #
transform $-1 1 0 0 0 1 0 0 0 1 45.007477034821619 19.164199380023753 6.8709096925742683 1 rotate no_reflect no_shear #
lump $-1 $-1 $30 $3 #
transform $-1 1 0 0 0 1 0 0 0 1 45.007477034821619 19.164199380023753 6.8709096925742683 1 rotate no_reflect no_shear #
lump $-1 $-1 $31 $4 #
transform $-1 1 0 0 0 1 0 0 0 1 45.007477034821619 19.164199380023753 6.8709096925742683 1 rotate no_reflect no_shear #
lump $-1 $-1 $32 $5 #
transform $-1 1 0 0 0 1 0 0 0 1 45.007477034821619 19.164199380023753 6.8709096925742683 1 rotate no_reflect no_shear #
lump $-1 $-1 $33 $6 #
transform $-1 1 0 0 0 1 0 0 0 1 45.007477034821619 19.164199380023753 6.8709096925742683 1 rotate no_reflect no_shear #
lump $-1 $-1 $34 $7 #
transform $-1 1 0 0 0 1 0 0 0 1 45.007477034821619 19.164199380023753 6.8709096925742683 1 rotate no_reflect no_shear #
lump $-1 $-1 $35 $8 #
transform $-1 1 0 0 0 1 0 0 0 1 45.007477034821619 19.164199380023753 6.8709096925742683 1 rotate no_reflect no_shear #
shell $-1 $-1 $-1 $36 $-1 $9 #
shell $-1 $-1 $-1 $37 $-1 $11 #
shell $-1 $-1 $-1 $38 $-1 $13 #
shell $-1 $-1 $-1 $39 $-1 $15 #
shell $-1 $-1 $-1 $40 $-1 $17 #
shell $-1 $-1 $-1 $41 $-1 $19 #
shell $-1 $-1 $-1 $42 $-1 $21 #
shell $-1 $-1 $-1 $43 $-1 $23 #
shell $-1 $-1 $-1 $44 $-1 $25 #
face $-1 $45 $46 $27 $-1 $47 forward single #
face $-1 $48 $49 $28 $-1 $50 forward single #
face $-1 $51 $52 $29 $-1 $53 forward single #
face $-1 $54 $55 $30 $-1 $56 reversed single #
face $-1 $57 $58 $31 $-1 $59 forward single #
face $-1 $60 $61 $32 $-1 $62 forward single #
face $-1 $63 $64 $33 $-1 $65 reversed single #
face $-1 $66 $67 $34 $-1 $68 forward single #
face $-1 $69 $70 $35 $-1 $71 forward single #
face $-1 $72 $73 $27 $-1 $74 reversed single #
loop $-1 $-1 $75 $36 #
plane-surface $-1 0 0 6.8709096925742683 0 0 1 1 0 0 forward_v I I I I #
face $-1 $76 $77 $28 $-1 $78 reversed single #
loop $-1 $-1 $79 $37 #
plane-surface $-1 -40.652936579652639 0 -3.8709096925742683 0 0 1 1 0 0 forward_v I I I I #
face $-1 $80 $81 $29 $-1 $82 reversed single #
loop $-1 $-1 $83 $38 #
plane-surface $-1 40.652936579652646 0 -3.8709096925742683 0 0 1 1 0 0 forward_v I I I I #
face $-1 $84 $85 $30 $-1 $86 reversed single #
loop $-1 $-1 $87 $39 #
plane-surface $-1 -22.82189512613796 39.397870618775123 97.446615867832818 -1 0 0 0 0.57357644374324357 0.81915203911291934 forward_v I I I I #
face $-1 $88 $89 $31 $-1 $90 forward single #
loop $-1 $91 $92 $40 #
cone-surface $-1 -32.447967267813453 14.73183911042633 3.2149682402546702 0 -0.57357644374324357 -0.81915203911291934 1 0 0 1 I I 0 1 1 forward I I I I #
face $-1 $93 $94 $32 $-1 $95 forward single #
loop $-1 $96 $97 $41 #
cone-surface $-1 -26.672323982808159 14.73183911042633 3.2149682402546702 0 -0.57357644374324357 -0.81915203911291934 1 0 0 1 I I 0 1 1 forward I I I I #
face $-1 $98 $99 $33 $-1 $100 reversed single #
loop $-1 $-1 $101 $42 #
plane-surface $-1 18.380072671730396 -68.189857743770347 75.553022642646255 1 0 0 0 0.54463904215088732 -0.83867056331134215 forward_v I I I I #
face $-1 $102 $103 $34 $-1 $104 forward single #
loop $-1 $105 $106 $43 #
cone-surface $-1 22.307855730693191 -13.195899762008739 2.3499502434719135 0 0.54463904215088732 -0.83867056331134215 1.5 0 0 1 I I 0 1 1.5 forward I I I I #
face $-1 $107 $108 $35 $-1 $109 forward single #
loop $-1 $110 $111 $44 #
cone-surface $-1 28.199530319137367 -13.195899762008739 2.3499502434719135 0 0.54463904215088732 -0.83867056331134215 1.5 0 0 1 I I 0 1 1.5 forward I I I I #
face $-1 $112 $113 $27 $-1 $114 reversed single #
loop $-1 $-1 $115 $45 #
plane-surface $-1 0 0 -6.8709096925742683 0 0 1 1 0 0 forward_v I I I I #
coedge $-1 $116 $117 $118 $119 forward $46 $-1 #
face $-1 $120 $121 $28 $-1 $122 reversed single #
loop $-1 $-1 $123 $48 #
plane-surface $-1 -36.298396124483659 0 -5.3709096925742683 -1 0 0 0 0 1 forward_v I I I I #
coedge $-1 $124 $125 $126 $127 forward $49 $-1 #
face $-1 $128 $129 $29 $-1 $130 reversed single #
loop $-1 $-1 $131 $51 #
plane-surface $-1 36.298396124483666 0 -5.3709096925742683 1 0 0 0 0 -1 forward_v I I I I #
coedge $-1 $132 $133 $134 $135 reversed $52 $-1 #
face $-1 $136 $137 $30 $-1 $138 reversed single #
loop $-1 $-1 $139 $54 #
plane-surface $-1 -29.56014562531081 -12.232586620202255 23.710682691028779 0 0.57357644374324357 0.81915203911291934 1 0 0 forward_v I I I I #
coedge $-1 $140 $141 $142 $143 reversed $55 $-1 #
face $-1 $-1 $144 $31 $-1 $145 forward single #
loop $-1 $146 $147 $57 #
cone-surface $-1 -32.447967267813453 13.686239729161848 1.7216975967318442 0 -0.57357644374324357 -0.81915203911291934 0.5 0 0 1 I I -0.70710678118654746 0.70710678118654746 0.5 forward I I I I #
loop $-1 $-1 $148 $40 #
coedge $-1 $92 $92 $149 $150 reversed $58 $-1 #
face $-1 $-1 $151 $32 $-1 $152 forward single #
loop $-1 $153 $154 $60 #
cone-surface $-1 -26.672323982808159 13.686239729161848 1.7216975967318442 0 -0.57357644374324357 -0.81915203911291934 0.5 0 0 1 I I -0.70710678118654746 0.70710678118654746 0.5 forward I I I I #
loop $-1 $-1 $155 $41 #
coedge $-1 $97 $97 $156 $157 reversed $61 $-1 #
face $-1 $158 $159 $33 $-1 $160 reversed single #
loop $-1 $-1 $161 $63 #
plane-surface $-1 25.253693024915265 -19.164199380023739 0.060130406613964738 0 -0.54463904215088732 0.83867056331134215 1 0 0 forward_v I I I I #
coedge $-1 $162 $163 $164 $165 reversed $64 $-1 #
face $-1 $-1 $166 $34 $-1 $167 forward single #
loop $-1 $168 $169 $66 #
cone-surface $-1 22.307855730693191 -12.062960964063061 0.60537751486619573 0 0.54463904215088732 -0.83867056331134215 0.75 0 0 1 I I -0.70710678118654757 0.70710678118654757 0.75 forward I I I I #
loop $-1 $-1 $170 $43 #
coedge $-1 $106 $106 $171 $172 reversed $67 $-1 #
face $-1 $-1 $173 $35 $-1 $174 forward single #
loop $-1 $175 $176 $69 #
cone-surface $-1 28.199530319137367 -12.062960964063061 0.60537751486619573 0 0.54463904215088732 -0.83867056331134215 0.75 0 0 1 I I -0.70710678118654757 0.70710678118654757 0.75 forward I I I I #
loop $-1 $-1 $177 $44 #
coedge $-1 $111 $111 $178 $179 reversed $70 $-1 #
face $-1 $180 $181 $27 $-1 $182 reversed single #
loop $-1 $-1 $183 $72 #
plane-surface $-1 0 -19.164199380023753 0 0 1 0 0 0 1 forward_v I I I I #
coedge $-1 $184 $185 $186 $187 forward $73 $-1 #
coedge $-1 $188 $75 $189 $190 forward $46 $-1 #
coedge $-1 $75 $188 $191 $192 forward $46 $-1 #
coedge $-1 $193 $194 $75 $119 reversed $195 $-1 #
edge $-1 $196 -19.164199380023753 $197 19.164199380023753 $118 $198 forward 7 unknown #
face $-1 $199 $200 $28 $-1 $201 reversed single #
loop $-1 $-1 $202 $76 #
plane-surface $-1 0 0 -6.8709096925742683 0 0 1 1 0 0 forward_v I I I I #
coedge $-1 $203 $126 $204 $205 reversed $77 $-1 #
coedge $-1 $206 $79 $207 $208 reversed $49 $-1 #
coedge $-1 $79 $206 $209 $210 reversed $49 $-1 #
coedge $-1 $123 $211 $79 $127 reversed $77 $-1 #
edge $-1 $212 -19.164199380023753 $213 19.164199380023753 $126 $214 forward 7 unknown #
face $-1 $215 $216 $29 $-1 $217 reversed single #
loop $-1 $-1 $218 $80 #
plane-surface $-1 0 -19.164199380023753 0 0 1 0 0 0 1 forward_v I I I I #
coedge $-1 $219 $220 $221 $222 reversed $81 $-1 #
coedge $-1 $223 $83 $224 $225 reversed $52 $-1 #
coedge $-1 $83 $223 $218 $226 reversed $52 $-1 #
coedge $-1 $227 $228 $83 $135 forward $229 $-1 #
edge $-1 $230 -19.164199380023753 $231 19.164199380023753 $134 $232 forward 7 unknown #
face $-1 $233 $234 $30 $-1 $235 reversed single #
loop $-1 $-1 $236 $84 #
plane-surface $-1 -36.298396124483659 39.397870618775123 97.446615867832818 1 0 0 0 -0.57357644374324357 -0.81915203911291934 forward_v I I I I #
coedge $-1 $237 $238 $239 $240 reversed $85 $-1 #
coedge $-1 $141 $87 $241 $242 reversed $55 $-1 #
coedge $-1 $87 $140 $237 $243 reversed $55 $-1 #
coedge $-1 $239 $244 $87 $143 forward $234 $-1 #
edge $-1 $245 41.852398241342144 $246 46.996891898048631 $142 $247 forward 7 unknown #
loop $-1 $-1 $149 $88 #
plane-surface $-1 -29.56014562531081 -12.232586620202255 23.710682691028779 0 0.57357644374324357 0.81915203911291934 1 0 0 forward_v I I I I #
loop $-1 $-1 $248 $57 #
coedge $-1 $147 $147 $148 $249 reversed $89 $-1 #
coedge $-1 $148 $148 $147 $249 forward $91 $-1 #
coedge $-1 $149 $149 $92 $150 forward $144 $-1 #
edge $-1 $250 7.0188233642812721e-017 $250 6.2831853071796004 $149 $251 forward 7 unknown #
loop $-1 $-1 $156 $93 #
plane-surface $-1 -29.56014562531081 -12.232586620202255 23.710682691028779 0 0.57357644374324357 0.81915203911291934 1 0 0 forward_v I I I I #
loop $-1 $-1 $252 $60 #
coedge $-1 $154 $154 $155 $253 reversed $94 $-1 #
coedge $-1 $155 $155 $154 $253 forward $96 $-1 #
coedge $-1 $156 $156 $97 $157 forward $151 $-1 #
edge $-1 $254 7.0188233642812721e-017 $254 6.2831853071796004 $156 $255 forward 7 unknown #
face $-1 $256 $257 $33 $-1 $258 forward single #
loop $-1 $-1 $259 $98 #
plane-surface $-1 32.127313378100133 -68.189857743770347 75.553022642646255 -1 0 0 0 -0.54463904215088732 0.83867056331134215 forward_v I I I I #
coedge $-1 $260 $261 $262 $263 reversed $99 $-1 #
coedge $-1 $163 $101 $264 $265 reversed $64 $-1 #
coedge $-1 $101 $162 $260 $266 reversed $64 $-1 #
coedge $-1 $262 $267 $101 $165 forward $268 $-1 #
edge $-1 $269 30.905601628748858 $270 37.71638091470917 $164 $271 forward 7 unknown #
loop $-1 $-1 $171 $102 #
plane-surface $-1 25.253693024915265 -19.164199380023739 0.060130406613964738 0 -0.54463904215088732 0.83867056331134215 1 0 0 forward_v I I I I #
loop $-1 $-1 $272 $66 #
coedge $-1 $169 $169 $170 $273 reversed $103 $-1 #
coedge $-1 $170 $170 $169 $273 forward $105 $-1 #
coedge $-1 $171 $171 $106 $172 forward $166 $-1 #
edge $-1 $274 -5.0247630846736268e-016 $274 6.2831853071795996 $171 $275 forward 7 unknown #
loop $-1 $-1 $178 $107 #
plane-surface $-1 25.253693024915265 -19.164199380023739 0.060130406613964738 0 -0.54463904215088732 0.83867056331134215 1 0 0 forward_v I I I I #
loop $-1 $-1 $276 $69 #
coedge $-1 $176 $176 $177 $277 reversed $108 $-1 #
coedge $-1 $177 $177 $176 $277 forward $110 $-1 #
coedge $-1 $178 $178 $111 $179 forward $173 $-1 #
edge $-1 $278 -5.0247630846736268e-016 $278 6.2831853071795996 $178 $279 forward 7 unknown #
face $-1 $280 $281 $27 $-1 $282 reversed single #
loop $-1 $-1 $283 $112 #
plane-surface $-1 -45.007477034821619 0 0 1 0 0 0 0 -1 forward_v I I I I #
coedge $-1 $284 $191 $285 $286 forward $113 $-1 #
coedge $-1 $287 $115 $284 $288 forward $73 $-1 #
coedge $-1 $115 $287 $289 $290 forward $73 $-1 #
coedge $-1 $194 $193 $115 $187 reversed $195 $-1 #
edge $-1 $291 -19.164199380023753 $292 19.164199380023753 $186 $293 forward 7 unknown #
coedge $-1 $117 $116 $294 $295 forward $46 $-1 #
coedge $-1 $296 $297 $116 $190 reversed $281 $-1 #
edge $-1 $197 -45.007477034821619 $298 45.007477034821619 $189 $299 forward 7 unknown #
coedge $-1 $183 $300 $117 $192 reversed $113 $-1 #
edge $-1 $301 -45.007477034821619 $196 45.007477034821619 $191 $302 forward 7 unknown #
coedge $-1 $186 $118 $300 $303 forward $195 $-1 #
coedge $-1 $118 $186 $296 $304 reversed $195 $-1 #
loop $-1 $-1 $193 $280 #
vertex $-1 $119 $305 #
vertex $-1 $119 $306 #
straight-curve $-1 45.007477034821619 0 6.8709096925742683 0 1 0 I I #
face $-1 $307 $308 $28 $-1 $309 reversed single #
loop $-1 $-1 $204 $120 #
plane-surface $-1 0 -19.164199380023753 0 0 1 0 0 0 1 forward_v I I I I #
coedge $-1 $310 $311 $203 $312 forward $121 $-1 #
coedge $-1 $211 $123 $202 $312 reversed $77 $-1 #
coedge $-1 $209 $313 $123 $205 forward $200 $-1 #
edge $-1 $314 -4.1854548462871346 $212 -1.1854548462871342 $204 $315 forward 7 unknown #
coedge $-1 $125 $124 $316 $317 reversed $49 $-1 #
coedge $-1 $318 $319 $124 $208 forward $320 $-1 #
edge $-1 $321 -24.6810087449953 $213 -15.97192783465734 $207 $322 forward 7 unknown #
coedge $-1 $323 $204 $125 $210 forward $200 $-1 #
edge $-1 $212 15.97192783465734 $324 24.6810087449953 $209 $325 forward 7 unknown #
coedge $-1 $126 $203 $318 $326 reversed $77 $-1 #
vertex $-1 $210 $327 #
vertex $-1 $208 $328 #
straight-curve $-1 -36.298396124483659 0 -3.8709096925742683 0 1 0 I I #
face $-1 $329 $330 $29 $-1 $331 reversed single #
loop $-1 $-1 $332 $128 #
plane-surface $-1 0 0 -6.8709096925742683 0 0 1 1 0 0 forward_v I I I I #
coedge $-1 $333 $334 $133 $226 forward $129 $-1 #
coedge $-1 $335 $131 $332 $336 reversed $81 $-1 #
coedge $-1 $131 $335 $223 $337 reversed $81 $-1 #
coedge $-1 $224 $338 $131 $222 forward $330 $-1 #
edge $-1 $339 -4.1854548462871346 $340 -1.1854548462871342 $221 $341 forward 7 unknown #
coedge $-1 $133 $132 $220 $337 forward $52 $-1 #
coedge $-1 $342 $221 $132 $225 forward $330 $-1 #
edge $-1 $340 15.971927834657343 $230 24.681008744995303 $224 $343 forward 7 unknown #
edge $-1 $231 -24.681008744995303 $344 -15.971927834657343 $218 $345 forward 7 unknown #
coedge $-1 $346 $134 $334 $347 forward $229 $-1 #
coedge $-1 $134 $346 $342 $348 reversed $229 $-1 #
loop $-1 $-1 $134 $329 #
vertex $-1 $348 $349 #
vertex $-1 $347 $350 #
straight-curve $-1 45.007477034821619 0 -3.8709096925742683 0 -1 0 I I #
face $-1 $-1 $351 $30 $-1 $352 forward single #
loop $-1 $-1 $142 $136 #
plane-surface $-1 0 19.164199380023753 0 0 -1 0 0 0 -1 forward_v I I I I #
coedge $-1 $353 $354 $355 $356 reversed $137 $-1 #
coedge $-1 $357 $139 $141 $243 forward $85 $-1 #
coedge $-1 $139 $357 $353 $358 forward $85 $-1 #
coedge $-1 $355 $142 $139 $240 forward $234 $-1 #
edge $-1 $246 8.0418223134825553 $359 21.518323311828254 $239 $360 forward 7 unknown #
coedge $-1 $361 $362 $140 $242 forward $351 $-1 #
edge $-1 $363 -7.8818341497729669 $245 -0.53473592936380854 $241 $364 forward 7 unknown #
edge $-1 $246 -38.328398760047513 $363 -29.359247894763065 $141 $365 forward 7 unknown #
coedge $-1 $142 $355 $361 $366 reversed $234 $-1 #
vertex $-1 $366 $367 #
vertex $-1 $143 $368 #
straight-curve $-1 -22.82189512613796 19.164199380023753 48.723307933916409 0 0 -1 I I #
coedge $-1 $248 $248 $-1 $369 reversed $146 $-1 #
edge $-1 $370 0 $370 6.2831853071796004 $147 $371 forward 7 unknown #
vertex $-1 $150 $372 #
ellipse-curve $-1 -32.447967267813453 15.490650269819181 4.2986628642210221 0 0.57357644374324357 0.81915203911291934 1 0 0 1 I I #
coedge $-1 $252 $252 $-1 $373 reversed $153 $-1 #
edge $-1 $374 0 $374 6.2831853071796004 $154 $375 forward 7 unknown #
vertex $-1 $157 $376 #
ellipse-curve $-1 -26.672323982808159 15.490650269819181 4.2986628642210221 0 0.57357644374324357 0.81915203911291934 1 0 0 1 I I #
face $-1 $-1 $268 $33 $-1 $377 reversed single #
loop $-1 $-1 $378 $158 #
plane-surface $-1 0 0 6.8709096925742683 0 0 1 1 0 0 forward_v I I I I #
coedge $-1 $379 $380 $381 $382 reversed $159 $-1 #
coedge $-1 $383 $161 $163 $266 forward $99 $-1 #
coedge $-1 $161 $383 $379 $384 forward $99 $-1 #
coedge $-1 $381 $164 $161 $263 forward $268 $-1 #
edge $-1 $270 5.7532261592727636 $385 19.500466865642501 $262 $386 forward 7 unknown #
coedge $-1 $387 $388 $162 $265 forward $257 $-1 #
edge $-1 $389 -25.418409695226455 $269 -14.93072949186142 $264 $390 forward 7 unknown #
edge $-1 $270 -1.6944551593250291e-014 $389 12.505124970591876 $163 $391 forward 7 unknown #
coedge $-1 $164 $381 $387 $392 reversed $268 $-1 #
loop $-1 $-1 $381 $256 #
vertex $-1 $392 $393 #
vertex $-1 $165 $394 #
straight-curve $-1 18.380072671730396 -19.164199380023753 37.776511321323127 0 0 -1 I I #
coedge $-1 $272 $272 $-1 $395 reversed $168 $-1 #
edge $-1 $396 0 $396 6.2831853071796004 $169 $397 forward 7 unknown #
vertex $-1 $172 $398 #
ellipse-curve $-1 22.307855730693191 -13.920359278341243 3.4655200495941072 0 -0.54463904215088732 0.83867056331134215 1.5 0 0 1 I I #
coedge $-1 $276 $276 $-1 $399 reversed $175 $-1 #
edge $-1 $400 0 $400 6.2831853071796004 $176 $401 forward 7 unknown #
vertex $-1 $179 $402 #
ellipse-curve $-1 28.199530319137367 -13.920359278341243 3.4655200495941072 0 -0.54463904215088732 0.83867056331134215 1.5 0 0 1 I I #
face $-1 $-1 $195 $27 $-1 $403 reversed single #
loop $-1 $-1 $296 $180 #
plane-surface $-1 0 19.164199380023753 0 0 -1 0 0 0 -1 forward_v I I I I #
coedge $-1 $404 $294 $297 $405 forward $181 $-1 #
coedge $-1 $300 $183 $184 $288 reversed $113 $-1 #
coedge $-1 $294 $404 $183 $286 reversed $181 $-1 #
edge $-1 $301 -6.8709096925742683 $406 6.8709096925742683 $285 $407 forward 7 unknown #
coedge $-1 $185 $184 $404 $408 forward $73 $-1 #
edge $-1 $292 -45.007477034821619 $406 45.007477034821619 $284 $409 forward 7 unknown #
coedge $-1 $297 $296 $185 $290 reversed $281 $-1 #
edge $-1 $410 -45.007477034821619 $291 45.007477034821619 $289 $411 forward 7 unknown #
vertex $-1 $187 $412 #
vertex $-1 $303 $413 #
straight-curve $-1 45.007477034821619 0 -6.8709096925742683 0 -1 0 I I #
coedge $-1 $283 $285 $188 $295 reversed $181 $-1 #
edge $-1 $298 -19.164199380023753 $301 19.164199380023753 $294 $414 forward 7 unknown #
coedge $-1 $289 $189 $194 $304 forward $281 $-1 #
coedge $-1 $189 $289 $283 $405 reversed $281 $-1 #
vertex $-1 $190 $415 #
straight-curve $-1 0 19.164199380023753 6.8709096925742683 -1 0 0 I I #
coedge $-1 $191 $284 $193 $303 reversed $113 $-1 #
vertex $-1 $295 $416 #
straight-curve $-1 0 -19.164199380023753 6.8709096925742683 1 0 0 I I #
edge $-1 $196 -6.8709096925742683 $292 6.8709096925742683 $193 $417 forward 7 unknown #
edge $-1 $197 -6.8709096925742683 $291 6.8709096925742683 $194 $418 forward 7 unknown #
point $-1 45.007477034821619 -19.164199380023753 6.8709096925742683 #
point $-1 45.007477034821619 19.164199380023753 6.8709096925742683 #
face $-1 $-1 $320 $28 $-1 $419 reversed single #
loop $-1 $-1 $316 $199 #
plane-surface $-1 -45.007477034821619 0 0 1 0 0 0 0 -1 forward_v I I I I #
coedge $-1 $420 $202 $313 $421 forward $121 $-1 #
coedge $-1 $202 $420 $422 $423 forward $121 $-1 #
edge $-1 $424 -19.164199380023753 $314 19.164199380023753 $202 $425 forward 7 unknown #
coedge $-1 $204 $323 $310 $421 reversed $200 $-1 #
vertex $-1 $421 $426 #
straight-curve $-1 -36.298396124483659 -19.164199380023753 -2.6854548462871342 0 0 1 I I #
coedge $-1 $427 $428 $206 $317 forward $308 $-1 #
edge $-1 $324 -19.164199380023753 $321 19.164199380023753 $316 $429 forward 7 unknown #
coedge $-1 $422 $207 $211 $326 forward $320 $-1 #
coedge $-1 $207 $422 $427 $430 reversed $320 $-1 #
loop $-1 $-1 $318 $307 #
vertex $-1 $430 $431 #
straight-curve $-1 -20.32646828982632 19.164199380023753 -3.8709096925742683 1 0 0 I I #
coedge $-1 $313 $209 $428 $432 forward $200 $-1 #
vertex $-1 $432 $433 #
straight-curve $-1 -20.32646828982632 -19.164199380023753 -3.8709096925742683 -1 0 0 I I #
edge $-1 $213 1.1854548462871342 $424 4.1854548462871346 $318 $434 forward 7 unknown #
point $-1 -36.298396124483659 -19.164199380023753 -3.8709096925742683 #
point $-1 -36.298396124483659 19.164199380023753 -3.8709096925742683 #
face $-1 $-1 $229 $29 $-1 $435 reversed single #
loop $-1 $-1 $224 $215 #
plane-surface $-1 0 19.164199380023753 0 0 -1 0 0 0 -1 forward_v I I I I #
coedge $-1 $436 $437 $219 $336 forward $216 $-1 #
coedge $-1 $438 $218 $335 $439 forward $129 $-1 #
coedge $-1 $218 $438 $227 $347 reversed $129 $-1 #
coedge $-1 $220 $219 $333 $439 reversed $81 $-1 #
edge $-1 $440 -19.164199380023753 $339 19.164199380023753 $332 $441 forward 7 unknown #
edge $-1 $340 -19.164199380023753 $344 19.164199380023753 $220 $442 forward 7 unknown #
coedge $-1 $221 $342 $436 $443 reversed $330 $-1 #
vertex $-1 $443 $444 #
vertex $-1 $225 $445 #
straight-curve $-1 36.298396124483666 19.164199380023753 -2.6854548462871342 0 0 1 I I #
coedge $-1 $338 $224 $228 $348 forward $330 $-1 #
straight-curve $-1 20.326468289826323 19.164199380023753 -3.8709096925742683 1 0 0 I I #
vertex $-1 $226 $446 #
straight-curve $-1 20.326468289826323 -19.164199380023753 -3.8709096925742683 -1 0 0 I I #
coedge $-1 $228 $227 $447 $448 reversed $229 $-1 #
edge $-1 $231 3.8709096925742683 $449 6.8709096925742683 $227 $450 forward 7 unknown #
edge $-1 $230 3.8709096925742683 $451 6.8709096925742683 $228 $452 forward 7 unknown #
point $-1 45.007477034821626 19.164199380023753 -3.8709096925742683 #
point $-1 45.007477034821626 -19.164199380023753 -3.8709096925742683 #
loop $-1 $-1 $241 $233 #
plane-surface $-1 0 0 6.8709096925742683 0 0 1 1 0 0 forward_v I I I I #
coedge $-1 $354 $236 $238 $358 reversed $137 $-1 #
coedge $-1 $236 $353 $453 $454 reversed $137 $-1 #
coedge $-1 $244 $239 $236 $356 forward $234 $-1 #
edge $-1 $359 -46.996891898048631 $455 -41.852398241342144 $355 $456 forward 7 unknown #
coedge $-1 $238 $237 $362 $457 reversed $85 $-1 #
edge $-1 $458 29.359247894763065 $359 38.328398760047513 $353 $459 forward 7 unknown #
vertex $-1 $240 $460 #
straight-curve $-1 -14.780072812655405 19.164199380023753 1.7264160358677803 -1 0 0 I I #
coedge $-1 $453 $241 $244 $366 forward $351 $-1 #
coedge $-1 $241 $453 $357 $457 forward $351 $-1 #
vertex $-1 $242 $461 #
straight-curve $-1 -22.82189512613796 19.698935309387561 6.8709096925742656 0 1 0 I I #
straight-curve $-1 -22.82189512613796 -12.232586620202255 23.710682691028779 0 -0.81915203911291934 0.57357644374324357 I I #
edge $-1 $245 22.82189512613796 $455 36.298396124483659 $244 $462 forward 7 unknown #
point $-1 -22.82189512613796 19.164199380023753 6.8709096925742683 #
point $-1 -22.82189512613796 19.164199380023753 1.726416035867782 #
edge $-1 $463 1 $463 0 $248 $-1 forward 7 unknown #
vertex $-1 $249 $464 #
ellipse-curve $-1 -32.447967267813453 13.973027951033469 2.1312736162883037 0 0.57357644374324357 0.81915203911291934 1 0 0 1 I I #
point $-1 -31.447967267813453 15.490650269819191 4.2986628642210372 #
edge $-1 $465 1 $465 0 $252 $-1 forward 7 unknown #
vertex $-1 $253 $466 #
ellipse-curve $-1 -26.672323982808159 13.973027951033469 2.1312736162883037 0 0.57357644374324357 0.81915203911291934 1 0 0 1 I I #
point $-1 -25.672323982808159 15.490650269819191 4.2986628642210372 #
plane-surface $-1 0 -19.164199380023753 0 0 1 0 0 0 1 forward_v I I I I #
coedge $-1 $388 $387 $380 $467 forward $257 $-1 #
coedge $-1 $380 $259 $261 $384 reversed $159 $-1 #
coedge $-1 $259 $379 $378 $467 reversed $159 $-1 #
coedge $-1 $267 $262 $259 $382 forward $268 $-1 #
edge $-1 $385 -37.71638091470917 $468 -30.905601628748858 $381 $469 forward 7 unknown #
coedge $-1 $261 $260 $388 $470 reversed $99 $-1 #
edge $-1 $471 -12.505124970591876 $385 1.6944551593250291e-014 $379 $472 forward 7 unknown #
vertex $-1 $263 $473 #
straight-curve $-1 12.626846512457632 -19.164199380023753 0.060130406613956654 1 0 0 I I #
coedge $-1 $378 $264 $267 $392 forward $257 $-1 #
coedge $-1 $264 $378 $383 $470 forward $257 $-1 #
vertex $-1 $265 $474 #
straight-curve $-1 18.380072671730396 -34.094928871885173 6.8709096925742656 0 -1 0 I I #
straight-curve $-1 18.380072671730396 -19.164199380023739 0.060130406613964738 0 0.83867056331134215 0.54463904215088732 I I #
edge $-1 $269 18.380072671730396 $468 32.127313378100133 $267 $475 forward 7 unknown #
point $-1 18.380072671730396 -19.164199380023753 6.8709096925742683 #
point $-1 18.380072671730396 -19.164199380023753 0.060130406613955509 #
edge $-1 $476 1 $476 0 $272 $-1 forward 7 unknown #
vertex $-1 $273 $477 #
ellipse-curve $-1 22.307855730693191 -12.471440245676227 1.2343804373497025 0 -0.54463904215088732 0.83867056331134215 1.5 0 0 1 I I #
point $-1 23.807855730693191 -13.920359278341255 3.465520049594125 #
edge $-1 $478 1 $478 0 $276 $-1 forward 7 unknown #
vertex $-1 $277 $479 #
ellipse-curve $-1 28.199530319137367 -12.471440245676227 1.2343804373497025 0 -0.54463904215088732 0.83867056331134215 1.5 0 0 1 I I #
point $-1 29.699530319137367 -13.920359278341255 3.465520049594125 #
plane-surface $-1 45.007477034821619 0 0 -1 0 0 0 0 1 forward_v I I I I #
coedge $-1 $285 $283 $287 $408 reversed $181 $-1 #
edge $-1 $298 -6.8709096925742683 $410 6.8709096925742683 $297 $480 forward 7 unknown #
vertex $-1 $408 $481 #
straight-curve $-1 -45.007477034821619 -19.164199380023753 0 0 0 -1 I I #
edge $-1 $406 -19.164199380023753 $410 19.164199380023753 $404 $482 forward 7 unknown #
straight-curve $-1 0 -19.164199380023753 -6.8709096925742683 -1 0 0 I I #
vertex $-1 $290 $483 #
straight-curve $-1 0 19.164199380023753 -6.8709096925742683 1 0 0 I I #
point $-1 45.007477034821619 19.164199380023753 -6.8709096925742683 #
point $-1 45.007477034821619 -19.164199380023753 -6.8709096925742683 #
straight-curve $-1 -45.007477034821619 0 6.8709096925742683 0 -1 0 I I #
point $-1 -45.007477034821619 19.164199380023753 6.8709096925742683 #
point $-1 -45.007477034821619 -19.164199380023753 6.8709096925742683 #
straight-curve $-1 45.007477034821619 -19.164199380023753 0 0 0 -1 I I #
straight-curve $-1 45.007477034821619 19.164199380023753 0 0 0 -1 I I #
plane-surface $-1 0 19.164199380023753 0 0 -1 0 0 0 -1 forward_v I I I I #
coedge $-1 $311 $310 $484 $485 forward $121 $-1 #
edge $-1 $314 36.298396124483659 $486 45.007477034821619 $313 $487 forward 7 unknown #
coedge $-1 $319 $318 $311 $423 reversed $320 $-1 #
edge $-1 $488 -45.007477034821619 $424 -36.298396124483659 $422 $489 forward 7 unknown #
vertex $-1 $326 $490 #
straight-curve $-1 -36.298396124483659 0 -6.8709096925742683 0 -1 0 I I #
point $-1 -36.298396124483659 -19.164199380023753 -6.8709096925742683 #
coedge $-1 $484 $316 $319 $430 forward $308 $-1 #
coedge $-1 $316 $484 $323 $432 reversed $308 $-1 #
straight-curve $-1 -45.007477034821619 0 -3.8709096925742683 0 1 0 I I #
edge $-1 $321 3.8709096925742683 $488 6.8709096925742683 $319 $491 forward 7 unknown #
point $-1 -45.007477034821619 19.164199380023753 -3.8709096925742683 #
edge $-1 $324 3.8709096925742683 $486 6.8709096925742683 $428 $492 forward 7 unknown #
point $-1 -45.007477034821619 -19.164199380023753 -3.8709096925742683 #
straight-curve $-1 -36.298396124483659 19.164199380023753 -2.6854548462871342 0 0 -1 I I #
plane-surface $-1 45.007477034821619 0 0 -1 0 0 0 0 1 forward_v I I I I #
coedge $-1 $447 $332 $338 $443 forward $216 $-1 #
coedge $-1 $332 $447 $438 $493 forward $216 $-1 #
coedge $-1 $334 $333 $437 $493 reversed $129 $-1 #
edge $-1 $344 1.1854548462871342 $440 4.1854548462871346 $333 $494 forward 7 unknown #
vertex $-1 $336 $495 #
straight-curve $-1 36.298396124483666 0 -6.8709096925742683 0 1 0 I I #
straight-curve $-1 36.298396124483666 0 -3.8709096925742683 0 -1 0 I I #
edge $-1 $339 36.298396124483666 $451 45.007477034821619 $338 $496 forward 7 unknown #
point $-1 36.298396124483666 19.164199380023753 -6.8709096925742683 #
point $-1 36.298396124483666 19.164199380023753 -3.8709096925742683 #
point $-1 36.298396124483666 -19.164199380023753 -3.8709096925742683 #
coedge $-1 $437 $436 $346 $448 forward $216 $-1 #
edge $-1 $451 -19.164199380023753 $449 19.164199380023753 $346 $497 forward 7 unknown #
vertex $-1 $347 $498 #
straight-curve $-1 45.007477034821619 -19.164199380023753 0 0 0 -1 I I #
vertex $-1 $448 $499 #
straight-curve $-1 45.007477034821619 19.164199380023753 0 0 0 -1 I I #
coedge $-1 $362 $361 $354 $454 forward $351 $-1 #
edge $-1 $455 0.53473592936380854 $458 7.8818341497729669 $453 $500 forward 7 unknown #
vertex $-1 $454 $501 #
straight-curve $-1 -36.298396124483659 19.164199380023753 48.723307933916409 0 0 1 I I #
edge $-1 $458 -21.518323311828254 $363 -8.0418223134825553 $362 $502 forward 7 unknown #
vertex $-1 $457 $503 #
straight-curve $-1 -36.298396124483659 -12.232586620202255 23.710682691028779 0 0.81915203911291934 -0.57357644374324357 I I #
point $-1 -36.298396124483659 19.164199380023753 1.726416035867782 #
point $-1 -22.82189512613796 11.817101159614595 6.8709096925742692 #
straight-curve $-1 0 19.164199380023753 6.8709096925742683 -1 0 0 I I #
vertex $-1 $369 $504 #
point $-1 -31.447967267813453 13.973027951033469 2.1312736162883037 #
vertex $-1 $373 $505 #
point $-1 -25.672323982808159 13.973027951033469 2.1312736162883037 #
edge $-1 $468 14.93072949186142 $471 25.418409695226455 $378 $506 forward 7 unknown #
vertex $-1 $382 $507 #
straight-curve $-1 32.127313378100133 -19.164199380023753 37.776511321323127 0 0 1 I I #
edge $-1 $471 -19.500466865642501 $389 -5.7532261592727636 $388 $508 forward 7 unknown #
vertex $-1 $470 $509 #
straight-curve $-1 32.127313378100133 -19.164199380023739 0.060130406613964738 0 -0.83867056331134215 -0.54463904215088732 I I #
point $-1 32.127313378100133 -19.164199380023753 0.060130406613955509 #
point $-1 18.380072671730396 -8.6765191766587186 6.8709096925742674 #
straight-curve $-1 0 -19.164199380023753 6.8709096925742683 1 0 0 I I #
vertex $-1 $395 $510 #
point $-1 23.807855730693191 -12.471440245676227 1.2343804373497025 #
vertex $-1 $399 $511 #
point $-1 29.699530319137367 -12.471440245676227 1.2343804373497025 #
straight-curve $-1 -45.007477034821619 19.164199380023753 0 0 0 -1 I I #
point $-1 -45.007477034821619 -19.164199380023753 -6.8709096925742683 #
straight-curve $-1 -45.007477034821619 0 -6.8709096925742683 0 1 0 I I #
point $-1 -45.007477034821619 19.164199380023753 -6.8709096925742683 #
coedge $-1 $428 $427 $420 $485 reversed $308 $-1 #
edge $-1 $486 -19.164199380023753 $488 19.164199380023753 $484 $512 forward 7 unknown #
vertex $-1 $485 $513 #
straight-curve $-1 0 -19.164199380023753 -6.8709096925742683 -1 0 0 I I #
vertex $-1 $423 $514 #
straight-curve $-1 0 19.164199380023753 -6.8709096925742683 1 0 0 I I #
point $-1 -36.298396124483659 19.164199380023753 -6.8709096925742683 #
straight-curve $-1 -45.007477034821619 19.164199380023753 0 0 0 -1 I I #
straight-curve $-1 -45.007477034821619 -19.164199380023753 0 0 0 -1 I I #
edge $-1 $449 -45.007477034821619 $440 -36.298396124483666 $438 $515 forward 7 unknown #
straight-curve $-1 36.298396124483666 -19.164199380023753 -2.6854548462871342 0 0 -1 I I #
point $-1 36.298396124483666 -19.164199380023753 -6.8709096925742683 #
straight-curve $-1 0 19.164199380023753 -6.8709096925742683 1 0 0 I I #
straight-curve $-1 45.007477034821619 0 -6.8709096925742683 0 -1 0 I I #
point $-1 45.007477034821619 -19.164199380023753 -6.8709096925742683 #
point $-1 45.007477034821619 19.164199380023753 -6.8709096925742683 #
straight-curve $-1 -36.298396124483659 19.698935309387561 6.8709096925742656 0 -1 0 I I #
point $-1 -36.298396124483659 19.164199380023753 6.8709096925742683 #
straight-curve $-1 -14.780072812655405 11.817101159614591 6.8709096925742692 1 0 0 I I #
point $-1 -36.298396124483659 11.817101159614595 6.8709096925742692 #
point $-1 -32.447967267813453 13.399451507290227 1.3121215771753845 #
point $-1 -26.672323982808159 13.399451507290227 1.3121215771753845 #
straight-curve $-1 32.127313378100133 -34.094928871885173 6.8709096925742656 0 1 0 I I #
point $-1 32.127313378100133 -19.164199380023753 6.8709096925742683 #
straight-curve $-1 12.626846512457632 -8.6765191766587169 6.8709096925742683 -1 0 0 I I #
point $-1 32.127313378100133 -8.6765191766587186 6.8709096925742674 #
point $-1 22.307855730693191 -11.654481682449894 -0.023625407617310912 #
point $-1 28.199530319137367 -11.654481682449894 -0.023625407617310912 #
straight-curve $-1 -45.007477034821619 0 -6.8709096925742683 0 1 0 I I #
point $-1 -45.007477034821619 -19.164199380023753 -6.8709096925742683 #
point $-1 -45.007477034821619 19.164199380023753 -6.8709096925742683 #
straight-curve $-1 0 -19.164199380023753 -6.8709096925742683 -1 0 0 I I #
End-of-ACIS-data 