500 0 8 0           
7 Unknown 11 ACIS 5.0 NT 24 Thu Mar 25 15:18:00 1999 
-1 9.9999999999999995e-007 1e-010 
body $-1 $8 $-1 $9 #
body $-1 $10 $-1 $11 #
body $-1 $12 $-1 $13 #
body $-1 $14 $-1 $15 #
body $-1 $16 $-1 $17 #
body $-1 $18 $-1 $19 #
body $-1 $20 $-1 $21 #
body $-1 $22 $-1 $23 #
lump $-1 $-1 $24 $0 #
transform $-1 1 0 0 0 1 0 0 0 1 49.211706900234994 33.438489011840325 15.830803436133237 1 rotate no_reflect no_shear #
lump $-1 $-1 $25 $1 #
transform $-1 1 0 0 0 1 0 0 0 1 49.211706900234994 33.438489011840325 15.830803436133237 1 rotate no_reflect no_shear #
lump $-1 $-1 $26 $2 #
transform $-1 1 0 0 0 1 0 0 0 1 49.211706900234994 33.438489011840325 15.830803436133237 1 rotate no_reflect no_shear #
lump $-1 $-1 $27 $3 #
transform $-1 1 0 0 0 1 0 0 0 1 49.211706900234994 33.438489011840325 15.830803436133237 1 rotate no_reflect no_shear #
lump $-1 $-1 $28 $4 #
transform $-1 1 0 0 0 1 0 0 0 1 49.211706900234994 33.438489011840325 15.830803436133237 1 rotate no_reflect no_shear #
lump $-1 $-1 $29 $5 #
transform $-1 1 0 0 0 1 0 0 0 1 49.211706900234994 33.438489011840325 15.830803436133237 1 rotate no_reflect no_shear #
lump $-1 $-1 $30 $6 #
transform $-1 1 0 0 0 1 0 0 0 1 49.211706900234994 33.438489011840325 15.830803436133237 1 rotate no_reflect no_shear #
lump $-1 $-1 $31 $7 #
transform $-1 1 0 0 0 1 0 0 0 1 49.211706900234994 33.438489011840325 15.830803436133237 1 rotate no_reflect no_shear #
shell $-1 $-1 $-1 $32 $-1 $8 #
shell $-1 $-1 $-1 $33 $-1 $10 #
shell $-1 $-1 $-1 $34 $-1 $12 #
shell $-1 $-1 $-1 $35 $-1 $14 #
shell $-1 $-1 $-1 $36 $-1 $16 #
shell $-1 $-1 $-1 $37 $-1 $18 #
shell $-1 $-1 $-1 $38 $-1 $20 #
shell $-1 $-1 $-1 $39 $-1 $22 #
face $-1 $40 $41 $24 $-1 $42 forward single #
face $-1 $43 $44 $25 $-1 $45 reversed single #
face $-1 $46 $47 $26 $-1 $48 reversed single #
face $-1 $49 $50 $27 $-1 $51 forward single #
face $-1 $52 $53 $28 $-1 $54 forward single #
face $-1 $55 $56 $29 $-1 $57 reversed single #
face $-1 $58 $59 $30 $-1 $60 forward single #
face $-1 $61 $62 $31 $-1 $63 forward single #
face $-1 $64 $65 $24 $-1 $66 reversed single #
loop $-1 $-1 $67 $32 #
plane-surface $-1 0 0 15.830803436133237 0 0 1 1 0 0 forward_v I I I I #
face $-1 $68 $69 $25 $-1 $70 reversed single #
loop $-1 $-1 $71 $33 #
plane-surface $-1 0 -24.159445742869259 6.4001531809181262 0 0 1 1 0 0 forward_v I I I I #
face $-1 $72 $73 $26 $-1 $74 reversed single #
loop $-1 $-1 $75 $34 #
plane-surface $-1 -20.384155618117354 26.863733467912411 70.956202618305056 0.70710678939079041 0 0.70710677298230451 0.70710677298230451 0 -0.70710678939079041 forward_v I I I I #
face $-1 $76 $77 $27 $-1 $78 forward single #
loop $-1 $79 $80 $35 #
cone-surface $-1 41.427790842119038 24.045981091943304 8.0468872228552364 -0.70710678939079041 0 -0.70710677298230451 1.0606601594734568 0 -1.0606601840861856 1 I I 0 1 1.5 forward I I I I #
face $-1 $81 $82 $28 $-1 $83 forward single #
loop $-1 $84 $85 $36 #
cone-surface $-1 41.427790842119038 29.681485843881511 8.0468872228552364 -0.70710678939079041 0 -0.70710677298230451 1.0606601594734568 0 -1.0606601840861856 1 I I 0 1 1.5 forward I I I I #
face $-1 $86 $87 $29 $-1 $88 reversed single #
loop $-1 $-1 $89 $37 #
plane-surface $-1 -49.211706900235001 26.863733467912411 1.3603384849735107 -0.70710678939079041 0 0.70710677298230451 0.70710677298230451 0 0.70710678939079041 forward_v I I I I #
face $-1 $90 $91 $30 $-1 $92 forward single #
loop $-1 $93 $94 $38 #
cone-surface $-1 -41.427790842119045 24.045981091943304 8.0468872228552364 0.70710678939079041 0 -0.70710677298230451 1.0606601594734568 0 1.0606601840861856 1 I I 0 1 1.5 forward I I I I #
face $-1 $95 $96 $31 $-1 $97 forward single #
loop $-1 $98 $99 $39 #
cone-surface $-1 -41.427790842119045 29.681485843881511 8.0468872228552364 0.70710678939079041 0 -0.70710677298230451 1.0606601594734568 0 1.0606601840861856 1 I I 0 1 1.5 forward I I I I #
face $-1 $100 $101 $24 $-1 $102 reversed single #
loop $-1 $-1 $103 $40 #
plane-surface $-1 0 0 -15.830803436133237 0 0 1 1 0 0 forward_v I I I I #
coedge $-1 $104 $105 $106 $107 forward $41 $-1 #
face $-1 $108 $109 $25 $-1 $110 reversed single #
loop $-1 $-1 $111 $43 #
plane-surface $-1 0 -14.880402473898192 11.115478308525681 0 -1 0 0 0 -1 forward_v I I I I #
coedge $-1 $112 $113 $114 $115 reversed $44 $-1 #
face $-1 $116 $117 $26 $-1 $118 reversed single #
loop $-1 $-1 $119 $46 #
plane-surface $-1 49.211708515214191 20.288977923984497 140.5520651366574 0 1 0 0.70710678939079041 0 0.70710677298230451 forward_v I I I I #
coedge $-1 $120 $121 $122 $123 reversed $47 $-1 #
face $-1 $-1 $124 $27 $-1 $125 forward single #
loop $-1 $126 $127 $49 #
cone-surface $-1 40.348776999645544 24.045981091943304 6.9678734054203701 -0.70710678939079041 0 -0.70710677298230451 0.53033007973672841 0 -0.53033009204309278 1 I I -0.70710678118654757 0.70710678118654757 0.75 forward I I I I #
loop $-1 $-1 $128 $35 #
coedge $-1 $80 $80 $129 $130 reversed $50 $-1 #
face $-1 $-1 $131 $28 $-1 $132 forward single #
loop $-1 $133 $134 $52 #
cone-surface $-1 40.348776999645544 29.681485843881511 6.9678734054203701 -0.70710678939079041 0 -0.70710677298230451 0.53033007973672841 0 -0.53033009204309278 1 I I -0.70710678118654757 0.70710678118654757 0.75 forward I I I I #
loop $-1 $-1 $135 $36 #
coedge $-1 $85 $85 $136 $137 reversed $53 $-1 #
face $-1 $138 $139 $29 $-1 $140 forward single #
loop $-1 $-1 $141 $55 #
plane-surface $-1 -118.80757103356655 20.288977923984497 70.956201003325859 0 1 0 -0.70710678939079041 0 0.70710677298230451 forward_v I I I I #
coedge $-1 $142 $143 $144 $145 reversed $56 $-1 #
face $-1 $-1 $146 $30 $-1 $147 forward single #
loop $-1 $148 $149 $58 #
cone-surface $-1 -40.348776999645551 24.045981091943304 6.9678734054203701 0.70710678939079041 0 -0.70710677298230451 0.53033007973672841 0 0.53033009204309278 1 I I -0.70710678118654757 0.70710678118654757 0.75 forward I I I I #
loop $-1 $-1 $150 $38 #
coedge $-1 $94 $94 $151 $152 reversed $59 $-1 #
face $-1 $-1 $153 $31 $-1 $154 forward single #
loop $-1 $155 $156 $61 #
cone-surface $-1 -40.348776999645551 29.681485843881511 6.9678734054203701 0.70710678939079041 0 -0.70710677298230451 0.53033007973672841 0 0.53033009204309278 1 I I -0.70710678118654757 0.70710678118654757 0.75 forward I I I I #
loop $-1 $-1 $157 $39 #
coedge $-1 $99 $99 $158 $159 reversed $62 $-1 #
face $-1 $160 $161 $24 $-1 $162 reversed single #
loop $-1 $-1 $163 $64 #
plane-surface $-1 0 -33.438489011840325 0 0 1 0 0 0 1 forward_v I I I I #
coedge $-1 $164 $165 $166 $167 forward $65 $-1 #
coedge $-1 $168 $67 $169 $170 forward $41 $-1 #
coedge $-1 $67 $168 $171 $172 forward $41 $-1 #
coedge $-1 $173 $174 $67 $107 reversed $175 $-1 #
edge $-1 $176 -33.438489011840325 $177 33.438489011840325 $106 $178 forward 7 unknown #
face $-1 $179 $180 $25 $-1 $181 reversed single #
loop $-1 $-1 $182 $68 #
plane-surface $-1 -49.211706900234994 0 0 1 0 0 0 0 -1 forward_v I I I I #
coedge $-1 $183 $184 $185 $186 reversed $69 $-1 #
coedge $-1 $187 $71 $188 $189 reversed $44 $-1 #
coedge $-1 $71 $187 $183 $190 forward $44 $-1 #
coedge $-1 $185 $191 $71 $115 forward $192 $-1 #
edge $-1 $193 -21.358766140405695 $194 -2.8006796024635623 $114 $195 forward 7 unknown #
face $-1 $196 $197 $26 $-1 $198 forward single #
loop $-1 $-1 $199 $72 #
plane-surface $-1 0 33.438489011840325 0 0 -1 0 0 0 -1 forward_v I I I I #
coedge $-1 $200 $201 $202 $203 reversed $73 $-1 #
coedge $-1 $204 $75 $199 $205 reversed $47 $-1 #
coedge $-1 $75 $204 $200 $206 forward $47 $-1 #
coedge $-1 $202 $207 $75 $123 forward $197 $-1 #
edge $-1 $208 -20.006622277884119 $209 -6.8571111900282915 $122 $210 forward 7 unknown #
loop $-1 $-1 $129 $76 #
plane-surface $-1 -20.384155618117354 26.863733467912411 70.956202618305056 0.70710678939079041 0 0.70710677298230451 0.70710677298230451 0 -0.70710678939079041 forward_v I I I I #
loop $-1 $-1 $211 $49 #
coedge $-1 $127 $127 $128 $212 reversed $77 $-1 #
coedge $-1 $128 $128 $127 $212 forward $79 $-1 #
coedge $-1 $129 $129 $80 $130 forward $124 $-1 #
edge $-1 $213 0 $213 6.2831853071796004 $129 $214 forward 7 unknown #
loop $-1 $-1 $136 $81 #
plane-surface $-1 -20.384155618117354 26.863733467912411 70.956202618305056 0.70710678939079041 0 0.70710677298230451 0.70710677298230451 0 -0.70710678939079041 forward_v I I I I #
loop $-1 $-1 $215 $52 #
coedge $-1 $134 $134 $135 $216 reversed $82 $-1 #
coedge $-1 $135 $135 $134 $216 forward $84 $-1 #
coedge $-1 $136 $136 $85 $137 forward $131 $-1 #
edge $-1 $217 0 $217 6.2831853071796004 $136 $218 forward 7 unknown #
face $-1 $219 $220 $29 $-1 $221 reversed single #
loop $-1 $-1 $222 $86 #
plane-surface $-1 0 0 15.830803436133237 0 0 1 1 0 0 forward_v I I I I #
coedge $-1 $223 $224 $225 $226 reversed $87 $-1 #
coedge $-1 $227 $89 $228 $229 reversed $56 $-1 #
coedge $-1 $89 $227 $223 $230 forward $56 $-1 #
coedge $-1 $225 $231 $89 $145 forward $232 $-1 #
edge $-1 $233 -20.006622277884119 $234 -6.8571111900282915 $144 $235 forward 7 unknown #
loop $-1 $-1 $151 $90 #
plane-surface $-1 -49.211706900235001 26.863733467912411 1.3603384849735107 -0.70710678939079041 0 0.70710677298230451 0.70710677298230451 0 0.70710678939079041 forward_v I I I I #
loop $-1 $-1 $236 $58 #
coedge $-1 $149 $149 $150 $237 reversed $91 $-1 #
coedge $-1 $150 $150 $149 $237 forward $93 $-1 #
coedge $-1 $151 $151 $94 $152 forward $146 $-1 #
edge $-1 $238 0 $238 6.2831853071796004 $151 $239 forward 7 unknown #
loop $-1 $-1 $158 $95 #
plane-surface $-1 -49.211706900235001 26.863733467912411 1.3603384849735107 -0.70710678939079041 0 0.70710677298230451 0.70710677298230451 0 0.70710678939079041 forward_v I I I I #
loop $-1 $-1 $240 $61 #
coedge $-1 $156 $156 $157 $241 reversed $96 $-1 #
coedge $-1 $157 $157 $156 $241 forward $98 $-1 #
coedge $-1 $158 $158 $99 $159 forward $153 $-1 #
edge $-1 $242 0 $242 6.2831853071796004 $158 $243 forward 7 unknown #
face $-1 $244 $245 $24 $-1 $246 reversed single #
loop $-1 $-1 $247 $100 #
plane-surface $-1 -49.211706900234994 0 0 1 0 0 0 0 -1 forward_v I I I I #
coedge $-1 $248 $171 $249 $250 forward $101 $-1 #
coedge $-1 $251 $103 $248 $252 forward $65 $-1 #
coedge $-1 $103 $251 $253 $254 forward $65 $-1 #
coedge $-1 $174 $173 $103 $167 reversed $175 $-1 #
edge $-1 $255 -33.438489011840325 $256 33.438489011840325 $166 $257 forward 7 unknown #
coedge $-1 $105 $104 $258 $259 forward $41 $-1 #
coedge $-1 $260 $261 $104 $170 reversed $245 $-1 #
edge $-1 $177 -49.211706900234994 $262 49.211706900234994 $169 $263 forward 7 unknown #
coedge $-1 $163 $264 $105 $172 reversed $101 $-1 #
edge $-1 $265 -49.211706900234994 $176 49.211706900234994 $171 $266 forward 7 unknown #
coedge $-1 $166 $106 $264 $267 forward $175 $-1 #
coedge $-1 $106 $166 $260 $268 reversed $175 $-1 #
loop $-1 $-1 $173 $244 #
vertex $-1 $107 $269 #
vertex $-1 $107 $270 #
straight-curve $-1 49.211706900234994 0 15.830803436133237 0 1 0 I I #
face $-1 $271 $272 $25 $-1 $273 forward single #
loop $-1 $-1 $188 $108 #
plane-surface $-1 0 -33.438489011840325 0 0 1 0 0 0 1 forward_v I I I I #
coedge $-1 $274 $275 $276 $277 forward $109 $-1 #
coedge $-1 $276 $111 $113 $190 reversed $69 $-1 #
coedge $-1 $111 $276 $278 $279 reversed $69 $-1 #
coedge $-1 $280 $114 $111 $186 forward $192 $-1 #
edge $-1 $194 0.84241402665528575 $281 10.273064281870395 $185 $282 forward 7 unknown #
coedge $-1 $113 $112 $274 $283 reversed $44 $-1 #
coedge $-1 $284 $285 $112 $189 forward $180 $-1 #
edge $-1 $286 -49.211706900234994 $193 49.211706900234994 $188 $287 forward 7 unknown #
edge $-1 $288 -49.211706900234994 $194 49.211706900234994 $183 $289 forward 7 unknown #
coedge $-1 $114 $280 $284 $290 forward $192 $-1 #
loop $-1 $-1 $185 $271 #
vertex $-1 $189 $291 #
vertex $-1 $115 $292 #
straight-curve $-1 49.211706900234994 -12.07972287143463 6.4001531809181262 0 1 0 I I #
face $-1 $-1 $293 $26 $-1 $294 reversed single #
loop $-1 $-1 $122 $116 #
plane-surface $-1 0 0 15.830803436133237 0 0 1 1 0 0 forward_v I I I I #
coedge $-1 $295 $296 $120 $205 forward $117 $-1 #
coedge $-1 $201 $119 $121 $206 reversed $73 $-1 #
coedge $-1 $119 $200 $297 $298 reversed $73 $-1 #
coedge $-1 $299 $122 $119 $203 forward $197 $-1 #
edge $-1 $209 10.135388027256806 $300 24.605852642627898 $202 $301 forward 7 unknown #
coedge $-1 $121 $120 $302 $303 reversed $47 $-1 #
edge $-1 $304 -66.129720240525913 $208 -45.665392690189719 $199 $305 forward 7 unknown #
edge $-1 $306 -98.423413800470016 $209 -77.959086250133808 $200 $307 forward 7 unknown #
coedge $-1 $122 $299 $295 $308 forward $197 $-1 #
vertex $-1 $123 $309 #
vertex $-1 $123 $310 #
straight-curve $-1 34.741242284863908 13.431866733956205 15.83080343613323 0 -1 0 I I #
coedge $-1 $211 $211 $-1 $311 reversed $126 $-1 #
edge $-1 $312 0 $312 6.2831853071796004 $127 $313 forward 7 unknown #
vertex $-1 $130 $314 #
ellipse-curve $-1 41.976474592549444 24.045981091943304 8.5955709605533812 0.70710678939079041 0 0.70710677298230451 1.0606601594734568 0 -1.0606601840861856 1 I I #
coedge $-1 $215 $215 $-1 $315 reversed $133 $-1 #
edge $-1 $316 0 $316 6.2831853071796004 $134 $317 forward 7 unknown #
vertex $-1 $137 $318 #
ellipse-curve $-1 41.976474592549444 29.681485843881511 8.5955709605533812 0.70710678939079041 0 0.70710677298230451 1.0606601594734568 0 -1.0606601840861856 1 I I #
face $-1 $-1 $232 $29 $-1 $319 reversed single #
loop $-1 $-1 $228 $138 #
plane-surface $-1 0 33.438489011840325 0 0 -1 0 0 0 -1 forward_v I I I I #
coedge $-1 $320 $321 $224 $322 forward $139 $-1 #
coedge $-1 $224 $141 $143 $230 reversed $87 $-1 #
coedge $-1 $141 $223 $222 $322 reversed $87 $-1 #
coedge $-1 $323 $144 $141 $226 forward $232 $-1 #
edge $-1 $234 -34.117762016689412 $324 -19.647297065529692 $225 $325 forward 7 unknown #
coedge $-1 $143 $142 $320 $326 reversed $56 $-1 #
coedge $-1 $327 $328 $142 $229 forward $220 $-1 #
edge $-1 $329 -3.5463142100452822 $233 16.918013340290909 $228 $330 forward 7 unknown #
edge $-1 $331 -20.464327550336204 $234 -1.0048591735576163e-014 $223 $332 forward 7 unknown #
coedge $-1 $144 $323 $327 $333 forward $232 $-1 #
loop $-1 $-1 $225 $219 #
vertex $-1 $229 $334 #
vertex $-1 $145 $335 #
straight-curve $-1 -49.211706900234994 13.431866733956205 1.3603384849735196 0 -1 0 I I #
coedge $-1 $236 $236 $-1 $336 reversed $148 $-1 #
edge $-1 $337 0 $337 6.2831853071796004 $149 $338 forward 7 unknown #
vertex $-1 $152 $339 #
ellipse-curve $-1 -41.976474592549451 24.045981091943304 8.5955709605533777 -0.70710678939079041 0 0.70710677298230451 1.0606601594734568 0 1.0606601840861856 1 I I #
coedge $-1 $240 $240 $-1 $340 reversed $155 $-1 #
edge $-1 $341 0 $341 6.2831853071796004 $156 $342 forward 7 unknown #
vertex $-1 $159 $343 #
ellipse-curve $-1 -41.976474592549451 29.681485843881511 8.5955709605533777 -0.70710678939079041 0 0.70710677298230451 1.0606601594734568 0 1.0606601840861856 1 I I #
face $-1 $-1 $175 $24 $-1 $344 reversed single #
loop $-1 $-1 $260 $160 #
plane-surface $-1 0 33.438489011840325 0 0 -1 0 0 0 -1 forward_v I I I I #
coedge $-1 $345 $258 $261 $346 forward $161 $-1 #
coedge $-1 $264 $163 $164 $252 reversed $101 $-1 #
coedge $-1 $258 $345 $163 $250 reversed $161 $-1 #
edge $-1 $265 -15.830803436133237 $347 15.830803436133237 $249 $348 forward 7 unknown #
coedge $-1 $165 $164 $345 $349 forward $65 $-1 #
edge $-1 $256 -49.211706900234994 $347 49.211706900234994 $248 $350 forward 7 unknown #
coedge $-1 $261 $260 $165 $254 reversed $245 $-1 #
edge $-1 $351 -49.211706900234994 $255 49.211706900234994 $253 $352 forward 7 unknown #
vertex $-1 $167 $353 #
vertex $-1 $267 $354 #
straight-curve $-1 49.211706900234994 0 -15.830803436133237 0 -1 0 I I #
coedge $-1 $247 $249 $168 $259 reversed $161 $-1 #
edge $-1 $262 -33.438489011840325 $265 33.438489011840325 $258 $355 forward 7 unknown #
coedge $-1 $253 $169 $174 $268 forward $245 $-1 #
coedge $-1 $169 $253 $247 $346 reversed $245 $-1 #
vertex $-1 $170 $356 #
straight-curve $-1 0 33.438489011840325 15.830803436133237 -1 0 0 I I #
coedge $-1 $171 $248 $173 $267 reversed $101 $-1 #
vertex $-1 $259 $357 #
straight-curve $-1 0 -33.438489011840325 15.830803436133237 1 0 0 I I #
edge $-1 $176 -15.830803436133237 $256 15.830803436133237 $173 $358 forward 7 unknown #
edge $-1 $177 -15.830803436133237 $255 15.830803436133237 $174 $359 forward 7 unknown #
point $-1 49.211706900234994 -33.438489011840325 15.830803436133237 #
point $-1 49.211706900234994 33.438489011840325 15.830803436133237 #
face $-1 $-1 $192 $25 $-1 $360 reversed single #
loop $-1 $-1 $278 $179 #
plane-surface $-1 0 0 15.830803436133237 0 0 1 1 0 0 forward_v I I I I #
coedge $-1 $361 $182 $187 $283 forward $109 $-1 #
coedge $-1 $182 $361 $362 $363 reversed $109 $-1 #
coedge $-1 $184 $183 $182 $277 reversed $69 $-1 #
edge $-1 $364 -10.273064281870395 $288 -0.84241402665528575 $182 $365 forward 7 unknown #
coedge $-1 $362 $366 $184 $279 forward $272 $-1 #
edge $-1 $281 -49.211706900234994 $364 49.211706900234994 $278 $367 forward 7 unknown #
coedge $-1 $191 $185 $366 $368 reversed $192 $-1 #
vertex $-1 $186 $369 #
straight-curve $-1 49.211706900234994 -14.880402473898192 5.5577391542628405 0 0 1 I I #
edge $-1 $288 2.8006796024635623 $286 21.358766140405695 $274 $370 forward 7 unknown #
coedge $-1 $371 $188 $191 $290 reversed $180 $-1 #
coedge $-1 $188 $371 $361 $372 forward $180 $-1 #
vertex $-1 $189 $373 #
straight-curve $-1 0 -33.438489011840325 6.4001531809181262 1 0 0 I I #
vertex $-1 $283 $374 #
straight-curve $-1 0 -14.880402473898192 6.4001531809181262 1 0 0 I I #
edge $-1 $375 -15.830803436133237 $193 -6.4001531809181262 $191 $376 forward 7 unknown #
point $-1 49.211706900234994 -33.438489011840325 6.4001531809181262 #
point $-1 49.211706900234994 -14.880402473898192 6.4001531809181262 #
loop $-1 $-1 $302 $196 #
plane-surface $-1 49.211706900234994 0 0 -1 0 0 0 0 1 forward_v I I I I #
coedge $-1 $296 $199 $207 $308 reversed $117 $-1 #
coedge $-1 $199 $295 $377 $378 forward $117 $-1 #
coedge $-1 $302 $379 $201 $298 forward $293 $-1 #
edge $-1 $300 54.445229132195465 $306 68.915694083355191 $297 $380 forward 7 unknown #
coedge $-1 $207 $202 $379 $381 forward $197 $-1 #
vertex $-1 $381 $382 #
straight-curve $-1 24.605854257607096 20.288977923984497 15.830803436133237 1 0 0 I I #
coedge $-1 $377 $297 $204 $303 forward $293 $-1 #
edge $-1 $306 6.8571111900282915 $304 20.006622277884119 $302 $383 forward 7 unknown #
vertex $-1 $303 $384 #
straight-curve $-1 2.4509338227341324 33.438489011840325 48.121112647562953 -0.70710677298230462 0 0.70710678939079052 I I #
vertex $-1 $303 $385 #
straight-curve $-1 -20.384155618117354 20.288977923984497 70.956202618305056 -0.70710677298230451 0 0.70710678939079041 I I #
edge $-1 $386 -49.211706900234994 $208 -34.741242284863901 $295 $387 forward 7 unknown #
point $-1 34.741242284863901 33.438489011840325 15.830803436133237 #
point $-1 34.741242284863901 20.288977923984497 15.830803436133237 #
edge $-1 $388 1 $388 0 $211 $-1 forward 7 unknown #
vertex $-1 $212 $389 #
ellipse-curve $-1 40.879107091688638 24.045981091943304 7.4982034851570987 0.70710678939079041 0 0.70710677298230451 1.0606601594734568 0 -1.0606601840861856 1 I I #
point $-1 43.037134752022894 24.045981091943304 7.5349107764671857 #
edge $-1 $390 1 $390 0 $215 $-1 forward 7 unknown #
vertex $-1 $216 $391 #
ellipse-curve $-1 40.879107091688638 29.681485843881511 7.4982034851570987 0.70710678939079041 0 0.70710677298230451 1.0606601594734568 0 -1.0606601840861856 1 I I #
point $-1 43.037134752022894 29.681485843881511 7.5349107764671857 #
plane-surface $-1 -49.211706900234994 0 0 1 0 0 0 0 -1 forward_v I I I I #
coedge $-1 $392 $222 $227 $326 forward $139 $-1 #
coedge $-1 $222 $392 $323 $393 forward $139 $-1 #
edge $-1 $324 10.19207861654828 $331 24.662543231919372 $222 $394 forward 7 unknown #
coedge $-1 $231 $225 $321 $393 reversed $232 $-1 #
vertex $-1 $322 $395 #
straight-curve $-1 -49.211706900234994 20.288977923984497 35.478100501662929 0 0 1 I I #
edge $-1 $331 6.8571111900282915 $329 20.006622277884119 $320 $396 forward 7 unknown #
coedge $-1 $328 $228 $231 $333 reversed $220 $-1 #
coedge $-1 $228 $327 $392 $397 reversed $220 $-1 #
vertex $-1 $397 $398 #
straight-curve $-1 -37.24886508191031 33.438489011840325 13.32318058089718 -0.70710677298230462 0 -0.70710678939079052 I I #
vertex $-1 $326 $399 #
straight-curve $-1 -49.211706900235001 20.288977923984497 1.3603384849735107 -0.70710677298230451 0 -0.70710678939079041 I I #
edge $-1 $400 -15.830803436133237 $233 -1.3603384849735178 $327 $401 forward 7 unknown #
point $-1 -49.211706900234994 33.438489011840325 1.3603384849735178 #
point $-1 -49.211706900234994 20.288977923984497 1.3603384849735178 #
edge $-1 $402 1 $402 0 $236 $-1 forward 7 unknown #
vertex $-1 $237 $403 #
ellipse-curve $-1 -40.879107091688645 24.045981091943304 7.4982034851570987 -0.70710678939079041 0 0.70710677298230451 1.0606601594734568 0 1.0606601840861856 1 I I #
point $-1 -40.915814433075987 24.045981091943304 9.6562311446395572 #
edge $-1 $404 1 $404 0 $240 $-1 forward 7 unknown #
vertex $-1 $241 $405 #
ellipse-curve $-1 -40.879107091688645 29.681485843881511 7.4982034851570987 -0.70710678939079041 0 0.70710677298230451 1.0606601594734568 0 1.0606601840861856 1 I I #
point $-1 -40.915814433075987 29.681485843881511 9.6562311446395572 #
plane-surface $-1 49.211706900234994 0 0 -1 0 0 0 0 1 forward_v I I I I #
coedge $-1 $249 $247 $251 $349 reversed $161 $-1 #
edge $-1 $262 -15.830803436133237 $351 15.830803436133237 $261 $406 forward 7 unknown #
vertex $-1 $349 $407 #
straight-curve $-1 -49.211706900234994 -33.438489011840325 0 0 0 -1 I I #
edge $-1 $347 -33.438489011840325 $351 33.438489011840325 $345 $408 forward 7 unknown #
straight-curve $-1 0 -33.438489011840325 -15.830803436133237 -1 0 0 I I #
vertex $-1 $254 $409 #
straight-curve $-1 0 33.438489011840325 -15.830803436133237 1 0 0 I I #
point $-1 49.211706900234994 33.438489011840325 -15.830803436133237 #
point $-1 49.211706900234994 -33.438489011840325 -15.830803436133237 #
straight-curve $-1 -49.211706900234994 0 15.830803436133237 0 -1 0 I I #
point $-1 -49.211706900234994 33.438489011840325 15.830803436133237 #
point $-1 -49.211706900234994 -33.438489011840325 15.830803436133237 #
straight-curve $-1 49.211706900234994 -33.438489011840325 0 0 0 -1 I I #
straight-curve $-1 49.211706900234994 33.438489011840325 0 0 0 -1 I I #
plane-surface $-1 49.211706900234994 0 0 -1 0 0 0 0 1 forward_v I I I I #
coedge $-1 $275 $274 $285 $372 reversed $109 $-1 #
coedge $-1 $410 $278 $275 $363 forward $272 $-1 #
edge $-1 $364 14.880402473898192 $411 33.438489011840325 $275 $412 forward 7 unknown #
vertex $-1 $363 $413 #
straight-curve $-1 -49.211706900234994 -14.880402473898192 5.5577391542628405 0 0 -1 I I #
coedge $-1 $278 $410 $280 $368 forward $272 $-1 #
straight-curve $-1 0 -14.880402473898192 15.830803436133237 -1 0 0 I I #
edge $-1 $375 -33.438489011840325 $281 -14.880402473898192 $280 $414 forward 7 unknown #
point $-1 49.211706900234994 -14.880402473898192 15.830803436133236 #
straight-curve $-1 -49.211706900234994 -12.07972287143463 6.4001531809181262 0 -1 0 I I #
coedge $-1 $285 $284 $410 $415 reversed $180 $-1 #
edge $-1 $411 -15.830803436133237 $286 -6.4001531809181262 $361 $416 forward 7 unknown #
point $-1 -49.211706900234994 -33.438489011840325 6.4001531809181262 #
point $-1 -49.211706900234994 -14.880402473898192 6.4001531809181262 #
vertex $-1 $368 $417 #
straight-curve $-1 49.211706900234994 -33.438489011840325 0 0 0 -1 I I #
coedge $-1 $379 $302 $296 $378 reversed $293 $-1 #
edge $-1 $386 -15.830803436133237 $304 -1.3603384849735107 $377 $418 forward 7 unknown #
coedge $-1 $297 $377 $299 $381 reversed $293 $-1 #
straight-curve $-1 49.211706900234994 20.288977923984497 70.276032568328702 0 0 -1 I I #
edge $-1 $300 20.288977923984497 $386 33.438489011840325 $379 $419 forward 7 unknown #
point $-1 49.211706900234994 20.288977923984497 15.830803436133237 #
straight-curve $-1 49.211706900234994 13.431866733956205 1.3603384849735178 0 1 0 I I #
point $-1 49.211706900234994 33.438489011840325 1.3603384849735107 #
point $-1 49.211706900234994 20.288977923984497 1.3603384849735107 #
vertex $-1 $381 $420 #
straight-curve $-1 0 33.438489011840325 15.830803436133237 -1 0 0 I I #
vertex $-1 $311 $421 #
point $-1 41.939767251162095 24.045981091943304 6.4375433010709129 #
vertex $-1 $315 $422 #
point $-1 41.939767251162095 29.681485843881511 6.4375433010709129 #
coedge $-1 $321 $320 $328 $397 forward $139 $-1 #
edge $-1 $400 -33.438489011840325 $324 -20.288977923984497 $323 $423 forward 7 unknown #
straight-curve $-1 -59.403785516783273 20.288977923984497 15.830803436133237 1 0 0 I I #
point $-1 -49.211706900234994 20.288977923984497 15.830803436133237 #
straight-curve $-1 -34.741242284863908 13.431866733956205 15.830803436133237 0 1 0 I I #
edge $-1 $329 34.741242284863901 $400 49.211706900234994 $328 $424 forward 7 unknown #
point $-1 -34.741242284863901 33.438489011840325 15.830803436133237 #
point $-1 -34.741242284863901 20.288977923984497 15.830803436133237 #
vertex $-1 $397 $425 #
straight-curve $-1 -49.211706900234994 33.438489011840325 0 0 0 -1 I I #
vertex $-1 $336 $426 #
point $-1 -39.818446932215188 24.045981091943304 8.5588636692432836 #
vertex $-1 $340 $427 #
point $-1 -39.818446932215188 29.681485843881511 8.5588636692432836 #
straight-curve $-1 -49.211706900234994 33.438489011840325 0 0 0 -1 I I #
point $-1 -49.211706900234994 -33.438489011840325 -15.830803436133237 #
straight-curve $-1 -49.211706900234994 0 -15.830803436133237 0 1 0 I I #
point $-1 -49.211706900234994 33.438489011840325 -15.830803436133237 #
coedge $-1 $366 $362 $371 $415 forward $272 $-1 #
vertex $-1 $363 $428 #
straight-curve $-1 -49.211706900234994 0 15.830803436133237 0 -1 0 I I #
point $-1 -49.211706900234994 -14.880402473898192 15.830803436133236 #
straight-curve $-1 49.211706900234994 0 15.830803436133237 0 1 0 I I #
edge $-1 $411 -49.211706900234994 $375 49.211706900234994 $371 $429 forward 7 unknown #
straight-curve $-1 -49.211706900234994 -33.438489011840325 0 0 0 -1 I I #
point $-1 49.211706900234994 -33.438489011840325 15.830803436133237 #
straight-curve $-1 49.211706900234994 33.438489011840325 0 0 0 -1 I I #
straight-curve $-1 49.211706900234994 0 15.830803436133237 0 1 0 I I #
point $-1 49.211706900234994 33.438489011840325 15.830803436133237 #
point $-1 39.81844690760245 24.045981091943304 6.4375433256836416 #
point $-1 39.81844690760245 29.681485843881511 6.4375433256836416 #
straight-curve $-1 -49.211706900234994 0 15.830803436133237 0 -1 0 I I #
straight-curve $-1 0 33.438489011840325 15.830803436133237 -1 0 0 I I #
point $-1 -49.211706900234994 33.438489011840325 15.830803436133237 #
point $-1 -39.818446907602457 24.045981091943304 6.4375433256836416 #
point $-1 -39.818446907602457 29.681485843881511 6.4375433256836416 #
point $-1 -49.211706900234994 -33.438489011840325 15.830803436133237 #
straight-curve $-1 0 -33.438489011840325 15.830803436133237 1 0 0 I I #
End-of-ACIS-data 